<?xml version="1.0" standalone="no"?>
<!DOCTYPE svg PUBLIC "-//W3C//DTD SVG 1.1//EN" "http://www.w3.org/Graphics/SVG/1.1/DTD/svg11.dtd">
<svg width="24mm" height="874mm" viewBox="-12 -1613 24 874" xmlns="http://www.w3.org/2000/svg" version="1.1">
<title>OpenSCAD Model</title>
<path d="
M 7.1869,-1327.59 L 7.79507,-1327.74 L 8.37889,-1327.98 L 8.92912,-1328.28 L 9.43712,-1328.65 L 9.89484,-1329.08
 L 10.2951,-1329.56 L 10.6315,-1330.09 L 10.8989,-1330.66 L 11.0929,-1331.26 L 11.2106,-1331.87 L 11.25,-1332.5
 L 11.25,-1607.5 L 11.2106,-1608.13 L 11.0929,-1608.74 L 10.8989,-1609.34 L 10.6315,-1609.91 L 10.2951,-1610.44
 L 9.89484,-1610.92 L 9.43712,-1611.35 L 8.92912,-1611.72 L 8.37889,-1612.02 L 7.79507,-1612.26 L 7.1869,-1612.41
 L 6.56395,-1612.49 L -6.56395,-1612.49 L -7.1869,-1612.41 L -7.79507,-1612.26 L -8.37889,-1612.02 L -8.92912,-1611.72
 L -9.43712,-1611.35 L -9.89484,-1610.92 L -10.2951,-1610.44 L -10.6315,-1609.91 L -10.8989,-1609.34 L -11.0929,-1608.74
 L -11.2106,-1608.13 L -11.25,-1607.5 L -11.25,-1332.5 L -11.2106,-1331.87 L -11.0929,-1331.26 L -10.8989,-1330.66
 L -10.6315,-1330.09 L -10.2951,-1329.56 L -9.89484,-1329.08 L -9.43712,-1328.65 L -8.92912,-1328.28 L -8.37889,-1327.98
 L -7.79507,-1327.74 L -7.1869,-1327.59 L -6.56395,-1327.51 L 6.56395,-1327.51 z
M -6.00116,-1329.01 L -6.49951,-1329.07 L -6.98605,-1329.2 L -7.45311,-1329.38 L -7.8933,-1329.62 L -8.29968,-1329.92
 L -8.66586,-1330.26 L -8.98605,-1330.65 L -9.25522,-1331.07 L -9.4691,-1331.53 L -9.62433,-1332.01 L -9.71844,-1332.5
 L -9.75,-1333 L -9.75,-1607 L -9.71844,-1607.5 L -9.62433,-1607.99 L -9.4691,-1608.47 L -9.25522,-1608.93
 L -8.98605,-1609.35 L -8.66586,-1609.74 L -8.29968,-1610.08 L -7.8933,-1610.38 L -7.45311,-1610.62 L -6.98605,-1610.8
 L -6.49951,-1610.93 L -6.00116,-1610.99 L 6.00116,-1610.99 L 6.49951,-1610.93 L 6.98605,-1610.8 L 7.45311,-1610.62
 L 7.8933,-1610.38 L 8.29968,-1610.08 L 8.66586,-1609.74 L 8.98605,-1609.35 L 9.25522,-1608.93 L 9.4691,-1608.47
 L 9.62433,-1607.99 L 9.71844,-1607.5 L 9.75,-1607 L 9.75,-1333 L 9.71844,-1332.5 L 9.62433,-1332.01
 L 9.4691,-1331.53 L 9.25522,-1331.07 L 8.98605,-1330.65 L 8.66586,-1330.26 L 8.29968,-1329.92 L 7.8933,-1329.62
 L 7.45311,-1329.38 L 6.98605,-1329.2 L 6.49951,-1329.07 L 6.00116,-1329.01 z
M 7.1869,-1033.59 L 7.79507,-1033.74 L 8.37889,-1033.98 L 8.92912,-1034.28 L 9.43712,-1034.65 L 9.89484,-1035.08
 L 10.2951,-1035.56 L 10.6315,-1036.09 L 10.8989,-1036.66 L 11.0929,-1037.26 L 11.2106,-1037.87 L 11.25,-1038.5
 L 11.25,-1313.5 L 11.2106,-1314.13 L 11.0929,-1314.74 L 10.8989,-1315.34 L 10.6315,-1315.91 L 10.2951,-1316.44
 L 9.89484,-1316.92 L 9.43712,-1317.35 L 8.92912,-1317.72 L 8.37889,-1318.02 L 7.79507,-1318.26 L 7.1869,-1318.41
 L 6.56395,-1318.49 L -6.56395,-1318.49 L -7.1869,-1318.41 L -7.79507,-1318.26 L -8.37889,-1318.02 L -8.92912,-1317.72
 L -9.43712,-1317.35 L -9.89484,-1316.92 L -10.2951,-1316.44 L -10.6315,-1315.91 L -10.8989,-1315.34 L -11.0929,-1314.74
 L -11.2106,-1314.13 L -11.25,-1313.5 L -11.25,-1038.5 L -11.2106,-1037.87 L -11.0929,-1037.26 L -10.8989,-1036.66
 L -10.6315,-1036.09 L -10.2951,-1035.56 L -9.89484,-1035.08 L -9.43712,-1034.65 L -8.92912,-1034.28 L -8.37889,-1033.98
 L -7.79507,-1033.74 L -7.1869,-1033.59 L -6.56395,-1033.51 L 6.56395,-1033.51 z
M -5.94545,-1035.89 L -6.3333,-1035.94 L -6.71194,-1036.04 L -7.07541,-1036.18 L -7.41798,-1036.37 L -7.73424,-1036.6
 L -8.01921,-1036.87 L -8.2684,-1037.17 L -8.47786,-1037.5 L -8.64432,-1037.85 L -8.76512,-1038.23 L -8.83836,-1038.61
 L -8.86292,-1039 L -8.86292,-1313 L -8.83836,-1313.39 L -8.76512,-1313.77 L -8.64432,-1314.15 L -8.47786,-1314.5
 L -8.2684,-1314.83 L -8.01921,-1315.13 L -7.73424,-1315.4 L -7.41798,-1315.63 L -7.07541,-1315.82 L -6.71194,-1315.96
 L -6.3333,-1316.06 L -5.94545,-1316.11 L 5.94545,-1316.11 L 6.3333,-1316.06 L 6.71194,-1315.96 L 7.07541,-1315.82
 L 7.41798,-1315.63 L 7.73424,-1315.4 L 8.01921,-1315.13 L 8.2684,-1314.83 L 8.47786,-1314.5 L 8.64432,-1314.15
 L 8.76512,-1313.77 L 8.83836,-1313.39 L 8.86292,-1313 L 8.86292,-1039 L 8.83836,-1038.61 L 8.76512,-1038.23
 L 8.64432,-1037.85 L 8.47786,-1037.5 L 8.2684,-1037.17 L 8.01921,-1036.87 L 7.73424,-1036.6 L 7.41798,-1036.37
 L 7.07541,-1036.18 L 6.71194,-1036.04 L 6.3333,-1035.94 L 5.94545,-1035.89 z
M 7.1869,-739.589 L 7.79507,-739.745 L 8.37889,-739.976 L 8.92912,-740.278 L 9.43712,-740.647 L 9.89484,-741.077
 L 10.2951,-741.561 L 10.6315,-742.091 L 10.8989,-742.659 L 11.0929,-743.257 L 11.2106,-743.873 L 11.25,-744.5
 L 11.25,-1019.5 L 11.2106,-1020.13 L 11.0929,-1020.74 L 10.8989,-1021.34 L 10.6315,-1021.91 L 10.2951,-1022.44
 L 9.89484,-1022.92 L 9.43712,-1023.35 L 8.92912,-1023.72 L 8.37889,-1024.02 L 7.79507,-1024.26 L 7.1869,-1024.41
 L 6.56395,-1024.49 L -6.56395,-1024.49 L -7.1869,-1024.41 L -7.79507,-1024.26 L -8.37889,-1024.02 L -8.92912,-1023.72
 L -9.43712,-1023.35 L -9.89484,-1022.92 L -10.2951,-1022.44 L -10.6315,-1021.91 L -10.8989,-1021.34 L -11.0929,-1020.74
 L -11.2106,-1020.13 L -11.25,-1019.5 L -11.25,-744.5 L -11.2106,-743.873 L -11.0929,-743.257 L -10.8989,-742.659
 L -10.6315,-742.091 L -10.2951,-741.561 L -9.89484,-741.077 L -9.43712,-740.647 L -8.92912,-740.278 L -8.37889,-739.976
 L -7.79507,-739.745 L -7.1869,-739.589 L -6.56395,-739.51 L 6.56395,-739.51 z
M 3.61592,-1014.87 L 3.34988,-1014.9 L 3.09015,-1014.97 L 2.84084,-1015.07 L 2.60585,-1015.2 L 2.3889,-1015.35
 L 2.19344,-1015.54 L 2.02251,-1015.74 L 1.87881,-1015.97 L 1.76465,-1016.21 L 1.68178,-1016.47 L 1.63153,-1016.73
 L 1.6147,-1017 L 1.63153,-1017.27 L 1.68178,-1017.53 L 1.76465,-1017.79 L 1.87881,-1018.03 L 2.02251,-1018.26
 L 2.19344,-1018.46 L 2.3889,-1018.65 L 2.60585,-1018.8 L 2.84084,-1018.93 L 3.09015,-1019.03 L 3.34988,-1019.1
 L 3.61592,-1019.13 L 3.88406,-1019.13 L 4.1501,-1019.1 L 4.40984,-1019.03 L 4.65915,-1018.93 L 4.89413,-1018.8
 L 5.11108,-1018.65 L 5.30655,-1018.46 L 5.47748,-1018.26 L 5.62117,-1018.03 L 5.73534,-1017.79 L 5.81821,-1017.53
 L 5.86845,-1017.27 L 5.88528,-1017 L 5.86845,-1016.73 L 5.81821,-1016.47 L 5.73534,-1016.21 L 5.62117,-1015.97
 L 5.47748,-1015.74 L 5.30655,-1015.54 L 5.11108,-1015.35 L 4.89413,-1015.2 L 4.65915,-1015.07 L 4.40984,-1014.97
 L 4.1501,-1014.9 L 3.88406,-1014.87 z
M -3.88406,-1014.87 L -4.1501,-1014.9 L -4.40984,-1014.97 L -4.65915,-1015.07 L -4.89413,-1015.2 L -5.11108,-1015.35
 L -5.30655,-1015.54 L -5.47748,-1015.74 L -5.62117,-1015.97 L -5.73534,-1016.21 L -5.81821,-1016.47 L -5.86845,-1016.73
 L -5.88528,-1017 L -5.86845,-1017.27 L -5.81821,-1017.53 L -5.73534,-1017.79 L -5.62117,-1018.03 L -5.47748,-1018.26
 L -5.30655,-1018.46 L -5.11108,-1018.65 L -4.89413,-1018.8 L -4.65915,-1018.93 L -4.40984,-1019.03 L -4.1501,-1019.1
 L -3.88406,-1019.13 L -3.61592,-1019.13 L -3.34988,-1019.1 L -3.09015,-1019.03 L -2.84084,-1018.93 L -2.60585,-1018.8
 L -2.3889,-1018.65 L -2.19344,-1018.46 L -2.02251,-1018.26 L -1.87881,-1018.03 L -1.76465,-1017.79 L -1.68178,-1017.53
 L -1.63153,-1017.27 L -1.6147,-1017 L -1.63153,-1016.73 L -1.68178,-1016.47 L -1.76465,-1016.21 L -1.87881,-1015.97
 L -2.02251,-1015.74 L -2.19344,-1015.54 L -2.3889,-1015.35 L -2.60585,-1015.2 L -2.84084,-1015.07 L -3.09015,-1014.97
 L -3.34988,-1014.9 L -3.61592,-1014.87 z
M 3.61592,-744.869 L 3.34988,-744.903 L 3.09015,-744.969 L 2.84084,-745.068 L 2.60585,-745.197 L 2.3889,-745.355
 L 2.19344,-745.538 L 2.02251,-745.745 L 1.87881,-745.971 L 1.76465,-746.214 L 1.68178,-746.469 L 1.63153,-746.732
 L 1.6147,-747 L 1.63153,-747.268 L 1.68178,-747.531 L 1.76465,-747.786 L 1.87881,-748.029 L 2.02251,-748.255
 L 2.19344,-748.462 L 2.3889,-748.645 L 2.60585,-748.803 L 2.84084,-748.932 L 3.09015,-749.031 L 3.34988,-749.097
 L 3.61592,-749.131 L 3.88406,-749.131 L 4.1501,-749.097 L 4.40984,-749.031 L 4.65915,-748.932 L 4.89413,-748.803
 L 5.11108,-748.645 L 5.30655,-748.462 L 5.47748,-748.255 L 5.62117,-748.029 L 5.73534,-747.786 L 5.81821,-747.531
 L 5.86845,-747.268 L 5.88528,-747 L 5.86845,-746.732 L 5.81821,-746.469 L 5.73534,-746.214 L 5.62117,-745.971
 L 5.47748,-745.745 L 5.30655,-745.538 L 5.11108,-745.355 L 4.89413,-745.197 L 4.65915,-745.068 L 4.40984,-744.969
 L 4.1501,-744.903 L 3.88406,-744.869 z
M -3.88406,-744.869 L -4.1501,-744.903 L -4.40984,-744.969 L -4.65915,-745.068 L -4.89413,-745.197 L -5.11108,-745.355
 L -5.30655,-745.538 L -5.47748,-745.745 L -5.62117,-745.971 L -5.73534,-746.214 L -5.81821,-746.469 L -5.86845,-746.732
 L -5.88528,-747 L -5.86845,-747.268 L -5.81821,-747.531 L -5.73534,-747.786 L -5.62117,-748.029 L -5.47748,-748.255
 L -5.30655,-748.462 L -5.11108,-748.645 L -4.89413,-748.803 L -4.65915,-748.932 L -4.40984,-749.031 L -4.1501,-749.097
 L -3.88406,-749.131 L -3.61592,-749.131 L -3.34988,-749.097 L -3.09015,-749.031 L -2.84084,-748.932 L -2.60585,-748.803
 L -2.3889,-748.645 L -2.19344,-748.462 L -2.02251,-748.255 L -1.87881,-748.029 L -1.76465,-747.786 L -1.68178,-747.531
 L -1.63153,-747.268 L -1.6147,-747 L -1.63153,-746.732 L -1.68178,-746.469 L -1.76465,-746.214 L -1.87881,-745.971
 L -2.02251,-745.745 L -2.19344,-745.538 L -2.3889,-745.355 L -2.60585,-745.197 L -2.84084,-745.068 L -3.09015,-744.969
 L -3.34988,-744.903 L -3.61592,-744.869 z
" stroke="black" fill="lightgray" stroke-width="0.5"/>
</svg>
