  0
SECTION
  2
BLOCKS
  0
ENDSEC
  0
SECTION
  2
ENTITIES
  0
LINE
  8
0
 10
100.937
 20
265.589
 11
101.545
 21
265.745
  0
LINE
  8
0
 10
101.545
 20
265.745
 11
102.129
 21
265.976
  0
LINE
  8
0
 10
102.129
 20
265.976
 11
102.679
 21
266.278
  0
LINE
  8
0
 10
102.679
 20
266.278
 11
103.187
 21
266.647
  0
LINE
  8
0
 10
103.187
 20
266.647
 11
103.645
 21
267.077
  0
LINE
  8
0
 10
103.645
 20
267.077
 11
104.045
 21
267.561
  0
LINE
  8
0
 10
104.045
 20
267.561
 11
104.382
 21
268.091
  0
LINE
  8
0
 10
104.382
 20
268.091
 11
104.649
 21
268.659
  0
LINE
  8
0
 10
104.649
 20
268.659
 11
104.843
 21
269.257
  0
LINE
  8
0
 10
104.843
 20
269.257
 11
104.961
 21
269.873
  0
LINE
  8
0
 10
104.961
 20
269.873
 11
105
 21
270.5
  0
LINE
  8
0
 10
105
 20
270.5
 11
105
 21
425.5
  0
LINE
  8
0
 10
105
 20
425.5
 11
104.961
 21
426.127
  0
LINE
  8
0
 10
104.961
 20
426.127
 11
104.843
 21
426.743
  0
LINE
  8
0
 10
104.843
 20
426.743
 11
104.649
 21
427.341
  0
LINE
  8
0
 10
104.649
 20
427.341
 11
104.382
 21
427.909
  0
LINE
  8
0
 10
104.382
 20
427.909
 11
104.045
 21
428.439
  0
LINE
  8
0
 10
104.045
 20
428.439
 11
103.645
 21
428.923
  0
LINE
  8
0
 10
103.645
 20
428.923
 11
103.187
 21
429.353
  0
LINE
  8
0
 10
103.187
 20
429.353
 11
102.679
 21
429.722
  0
LINE
  8
0
 10
102.679
 20
429.722
 11
102.129
 21
430.024
  0
LINE
  8
0
 10
102.129
 20
430.024
 11
101.545
 21
430.255
  0
LINE
  8
0
 10
101.545
 20
430.255
 11
100.937
 21
430.411
  0
LINE
  8
0
 10
100.937
 20
430.411
 11
100.314
 21
430.49
  0
LINE
  8
0
 10
100.314
 20
430.49
 11
-100.314
 21
430.49
  0
LINE
  8
0
 10
-100.314
 20
430.49
 11
-100.937
 21
430.411
  0
LINE
  8
0
 10
-100.937
 20
430.411
 11
-101.545
 21
430.255
  0
LINE
  8
0
 10
-101.545
 20
430.255
 11
-102.129
 21
430.024
  0
LINE
  8
0
 10
-102.129
 20
430.024
 11
-102.679
 21
429.722
  0
LINE
  8
0
 10
-102.679
 20
429.722
 11
-103.187
 21
429.353
  0
LINE
  8
0
 10
-103.187
 20
429.353
 11
-103.645
 21
428.923
  0
LINE
  8
0
 10
-103.645
 20
428.923
 11
-104.045
 21
428.439
  0
LINE
  8
0
 10
-104.045
 20
428.439
 11
-104.382
 21
427.909
  0
LINE
  8
0
 10
-104.382
 20
427.909
 11
-104.649
 21
427.341
  0
LINE
  8
0
 10
-104.649
 20
427.341
 11
-104.843
 21
426.743
  0
LINE
  8
0
 10
-104.843
 20
426.743
 11
-104.961
 21
426.127
  0
LINE
  8
0
 10
-104.961
 20
426.127
 11
-105
 21
425.5
  0
LINE
  8
0
 10
-105
 20
425.5
 11
-105
 21
270.5
  0
LINE
  8
0
 10
-105
 20
270.5
 11
-104.961
 21
269.873
  0
LINE
  8
0
 10
-104.961
 20
269.873
 11
-104.843
 21
269.257
  0
LINE
  8
0
 10
-104.843
 20
269.257
 11
-104.649
 21
268.659
  0
LINE
  8
0
 10
-104.649
 20
268.659
 11
-104.382
 21
268.091
  0
LINE
  8
0
 10
-104.382
 20
268.091
 11
-104.045
 21
267.561
  0
LINE
  8
0
 10
-104.045
 20
267.561
 11
-103.645
 21
267.077
  0
LINE
  8
0
 10
-103.645
 20
267.077
 11
-103.187
 21
266.647
  0
LINE
  8
0
 10
-103.187
 20
266.647
 11
-102.679
 21
266.278
  0
LINE
  8
0
 10
-102.679
 20
266.278
 11
-102.129
 21
265.976
  0
LINE
  8
0
 10
-102.129
 20
265.976
 11
-101.545
 21
265.745
  0
LINE
  8
0
 10
-101.545
 20
265.745
 11
-100.937
 21
265.589
  0
LINE
  8
0
 10
-100.937
 20
265.589
 11
-100.314
 21
265.51
  0
LINE
  8
0
 10
-100.314
 20
265.51
 11
100.314
 21
265.51
  0
LINE
  8
0
 10
100.314
 20
265.51
 11
100.937
 21
265.589
  0
LINE
  8
0
 10
-99.993
 20
266.888
 11
-100.475
 21
266.949
  0
LINE
  8
0
 10
-100.475
 20
266.949
 11
-100.946
 21
267.07
  0
LINE
  8
0
 10
-100.946
 20
267.07
 11
-101.398
 21
267.249
  0
LINE
  8
0
 10
-101.398
 20
267.249
 11
-101.823
 21
267.483
  0
LINE
  8
0
 10
-101.823
 20
267.483
 11
-102.216
 21
267.769
  0
LINE
  8
0
 10
-102.216
 20
267.769
 11
-102.571
 21
268.101
  0
LINE
  8
0
 10
-102.571
 20
268.101
 11
-102.88
 21
268.476
  0
LINE
  8
0
 10
-102.88
 20
268.476
 11
-103.141
 21
268.886
  0
LINE
  8
0
 10
-103.141
 20
268.886
 11
-103.348
 21
269.326
  0
LINE
  8
0
 10
-103.348
 20
269.326
 11
-103.498
 21
269.788
  0
LINE
  8
0
 10
-103.498
 20
269.788
 11
-103.589
 21
270.265
  0
LINE
  8
0
 10
-103.589
 20
270.265
 11
-103.619
 21
270.75
  0
LINE
  8
0
 10
-103.619
 20
270.75
 11
-103.619
 21
425.25
  0
LINE
  8
0
 10
-103.619
 20
425.25
 11
-103.589
 21
425.735
  0
LINE
  8
0
 10
-103.589
 20
425.735
 11
-103.498
 21
426.212
  0
LINE
  8
0
 10
-103.498
 20
426.212
 11
-103.348
 21
426.674
  0
LINE
  8
0
 10
-103.348
 20
426.674
 11
-103.141
 21
427.114
  0
LINE
  8
0
 10
-103.141
 20
427.114
 11
-102.88
 21
427.524
  0
LINE
  8
0
 10
-102.88
 20
427.524
 11
-102.571
 21
427.899
  0
LINE
  8
0
 10
-102.571
 20
427.899
 11
-102.216
 21
428.231
  0
LINE
  8
0
 10
-102.216
 20
428.231
 11
-101.823
 21
428.517
  0
LINE
  8
0
 10
-101.823
 20
428.517
 11
-101.398
 21
428.751
  0
LINE
  8
0
 10
-101.398
 20
428.751
 11
-100.946
 21
428.93
  0
LINE
  8
0
 10
-100.946
 20
428.93
 11
-100.475
 21
429.051
  0
LINE
  8
0
 10
-100.475
 20
429.051
 11
-99.993
 21
429.112
  0
LINE
  8
0
 10
-99.993
 20
429.112
 11
99.993
 21
429.112
  0
LINE
  8
0
 10
99.993
 20
429.112
 11
100.475
 21
429.051
  0
LINE
  8
0
 10
100.475
 20
429.051
 11
100.946
 21
428.93
  0
LINE
  8
0
 10
100.946
 20
428.93
 11
101.398
 21
428.751
  0
LINE
  8
0
 10
101.398
 20
428.751
 11
101.823
 21
428.517
  0
LINE
  8
0
 10
101.823
 20
428.517
 11
102.216
 21
428.231
  0
LINE
  8
0
 10
102.216
 20
428.231
 11
102.571
 21
427.899
  0
LINE
  8
0
 10
102.571
 20
427.899
 11
102.88
 21
427.524
  0
LINE
  8
0
 10
102.88
 20
427.524
 11
103.141
 21
427.114
  0
LINE
  8
0
 10
103.141
 20
427.114
 11
103.348
 21
426.674
  0
LINE
  8
0
 10
103.348
 20
426.674
 11
103.498
 21
426.212
  0
LINE
  8
0
 10
103.498
 20
426.212
 11
103.589
 21
425.735
  0
LINE
  8
0
 10
103.589
 20
425.735
 11
103.619
 21
425.25
  0
LINE
  8
0
 10
103.619
 20
425.25
 11
103.619
 21
270.75
  0
LINE
  8
0
 10
103.619
 20
270.75
 11
103.589
 21
270.265
  0
LINE
  8
0
 10
103.589
 20
270.265
 11
103.498
 21
269.788
  0
LINE
  8
0
 10
103.498
 20
269.788
 11
103.348
 21
269.326
  0
LINE
  8
0
 10
103.348
 20
269.326
 11
103.141
 21
268.886
  0
LINE
  8
0
 10
103.141
 20
268.886
 11
102.88
 21
268.476
  0
LINE
  8
0
 10
102.88
 20
268.476
 11
102.571
 21
268.101
  0
LINE
  8
0
 10
102.571
 20
268.101
 11
102.216
 21
267.769
  0
LINE
  8
0
 10
102.216
 20
267.769
 11
101.823
 21
267.483
  0
LINE
  8
0
 10
101.823
 20
267.483
 11
101.398
 21
267.249
  0
LINE
  8
0
 10
101.398
 20
267.249
 11
100.946
 21
267.07
  0
LINE
  8
0
 10
100.946
 20
267.07
 11
100.475
 21
266.949
  0
LINE
  8
0
 10
100.475
 20
266.949
 11
99.993
 21
266.888
  0
LINE
  8
0
 10
99.993
 20
266.888
 11
-99.993
 21
266.888
  0
LINE
  8
0
 10
100.937
 20
91.5886
 11
101.545
 21
91.7447
  0
LINE
  8
0
 10
101.545
 20
91.7447
 11
102.129
 21
91.9759
  0
LINE
  8
0
 10
102.129
 20
91.9759
 11
102.679
 21
92.2784
  0
LINE
  8
0
 10
102.679
 20
92.2784
 11
103.187
 21
92.6474
  0
LINE
  8
0
 10
103.187
 20
92.6474
 11
103.645
 21
93.0773
  0
LINE
  8
0
 10
103.645
 20
93.0773
 11
104.045
 21
93.5611
  0
LINE
  8
0
 10
104.045
 20
93.5611
 11
104.382
 21
94.0912
  0
LINE
  8
0
 10
104.382
 20
94.0912
 11
104.649
 21
94.6594
  0
LINE
  8
0
 10
104.649
 20
94.6594
 11
104.843
 21
95.2566
  0
LINE
  8
0
 10
104.843
 20
95.2566
 11
104.961
 21
95.8733
  0
LINE
  8
0
 10
104.961
 20
95.8733
 11
105
 21
96.5
  0
LINE
  8
0
 10
105
 20
96.5
 11
105
 21
251.5
  0
LINE
  8
0
 10
105
 20
251.5
 11
104.961
 21
252.127
  0
LINE
  8
0
 10
104.961
 20
252.127
 11
104.843
 21
252.743
  0
LINE
  8
0
 10
104.843
 20
252.743
 11
104.649
 21
253.341
  0
LINE
  8
0
 10
104.649
 20
253.341
 11
104.382
 21
253.909
  0
LINE
  8
0
 10
104.382
 20
253.909
 11
104.045
 21
254.439
  0
LINE
  8
0
 10
104.045
 20
254.439
 11
103.645
 21
254.923
  0
LINE
  8
0
 10
103.645
 20
254.923
 11
103.187
 21
255.353
  0
LINE
  8
0
 10
103.187
 20
255.353
 11
102.679
 21
255.722
  0
LINE
  8
0
 10
102.679
 20
255.722
 11
102.129
 21
256.024
  0
LINE
  8
0
 10
102.129
 20
256.024
 11
101.545
 21
256.255
  0
LINE
  8
0
 10
101.545
 20
256.255
 11
100.937
 21
256.411
  0
LINE
  8
0
 10
100.937
 20
256.411
 11
100.314
 21
256.49
  0
LINE
  8
0
 10
100.314
 20
256.49
 11
-100.314
 21
256.49
  0
LINE
  8
0
 10
-100.314
 20
256.49
 11
-100.937
 21
256.411
  0
LINE
  8
0
 10
-100.937
 20
256.411
 11
-101.545
 21
256.255
  0
LINE
  8
0
 10
-101.545
 20
256.255
 11
-102.129
 21
256.024
  0
LINE
  8
0
 10
-102.129
 20
256.024
 11
-102.679
 21
255.722
  0
LINE
  8
0
 10
-102.679
 20
255.722
 11
-103.187
 21
255.353
  0
LINE
  8
0
 10
-103.187
 20
255.353
 11
-103.645
 21
254.923
  0
LINE
  8
0
 10
-103.645
 20
254.923
 11
-104.045
 21
254.439
  0
LINE
  8
0
 10
-104.045
 20
254.439
 11
-104.382
 21
253.909
  0
LINE
  8
0
 10
-104.382
 20
253.909
 11
-104.649
 21
253.341
  0
LINE
  8
0
 10
-104.649
 20
253.341
 11
-104.843
 21
252.743
  0
LINE
  8
0
 10
-104.843
 20
252.743
 11
-104.961
 21
252.127
  0
LINE
  8
0
 10
-104.961
 20
252.127
 11
-105
 21
251.5
  0
LINE
  8
0
 10
-105
 20
251.5
 11
-105
 21
96.5
  0
LINE
  8
0
 10
-105
 20
96.5
 11
-104.961
 21
95.8733
  0
LINE
  8
0
 10
-104.961
 20
95.8733
 11
-104.843
 21
95.2566
  0
LINE
  8
0
 10
-104.843
 20
95.2566
 11
-104.649
 21
94.6594
  0
LINE
  8
0
 10
-104.649
 20
94.6594
 11
-104.382
 21
94.0912
  0
LINE
  8
0
 10
-104.382
 20
94.0912
 11
-104.045
 21
93.5611
  0
LINE
  8
0
 10
-104.045
 20
93.5611
 11
-103.645
 21
93.0773
  0
LINE
  8
0
 10
-103.645
 20
93.0773
 11
-103.187
 21
92.6474
  0
LINE
  8
0
 10
-103.187
 20
92.6474
 11
-102.679
 21
92.2784
  0
LINE
  8
0
 10
-102.679
 20
92.2784
 11
-102.129
 21
91.9759
  0
LINE
  8
0
 10
-102.129
 20
91.9759
 11
-101.545
 21
91.7447
  0
LINE
  8
0
 10
-101.545
 20
91.7447
 11
-100.937
 21
91.5886
  0
LINE
  8
0
 10
-100.937
 20
91.5886
 11
-100.314
 21
91.5099
  0
LINE
  8
0
 10
-100.314
 20
91.5099
 11
100.314
 21
91.5099
  0
LINE
  8
0
 10
100.314
 20
91.5099
 11
100.937
 21
91.5886
  0
LINE
  8
0
 10
97.387
 20
247.204
 11
97.1627
 21
247.232
  0
LINE
  8
0
 10
97.1627
 20
247.232
 11
96.9438
 21
247.288
  0
LINE
  8
0
 10
96.9438
 20
247.288
 11
96.7336
 21
247.371
  0
LINE
  8
0
 10
96.7336
 20
247.371
 11
96.5355
 21
247.48
  0
LINE
  8
0
 10
96.5355
 20
247.48
 11
96.3526
 21
247.613
  0
LINE
  8
0
 10
96.3526
 20
247.613
 11
96.1879
 21
247.768
  0
LINE
  8
0
 10
96.1879
 20
247.768
 11
96.0438
 21
247.942
  0
LINE
  8
0
 10
96.0438
 20
247.942
 11
95.9226
 21
248.133
  0
LINE
  8
0
 10
95.9226
 20
248.133
 11
95.8264
 21
248.337
  0
LINE
  8
0
 10
95.8264
 20
248.337
 11
95.7565
 21
248.552
  0
LINE
  8
0
 10
95.7565
 20
248.552
 11
95.7142
 21
248.774
  0
LINE
  8
0
 10
95.7142
 20
248.774
 11
95.7
 21
249
  0
LINE
  8
0
 10
95.7
 20
249
 11
95.7142
 21
249.226
  0
LINE
  8
0
 10
95.7142
 20
249.226
 11
95.7565
 21
249.448
  0
LINE
  8
0
 10
95.7565
 20
249.448
 11
95.8264
 21
249.663
  0
LINE
  8
0
 10
95.8264
 20
249.663
 11
95.9226
 21
249.867
  0
LINE
  8
0
 10
95.9226
 20
249.867
 11
96.0438
 21
250.058
  0
LINE
  8
0
 10
96.0438
 20
250.058
 11
96.1879
 21
250.232
  0
LINE
  8
0
 10
96.1879
 20
250.232
 11
96.3526
 21
250.387
  0
LINE
  8
0
 10
96.3526
 20
250.387
 11
96.5355
 21
250.52
  0
LINE
  8
0
 10
96.5355
 20
250.52
 11
96.7336
 21
250.629
  0
LINE
  8
0
 10
96.7336
 20
250.629
 11
96.9438
 21
250.712
  0
LINE
  8
0
 10
96.9438
 20
250.712
 11
97.1627
 21
250.768
  0
LINE
  8
0
 10
97.1627
 20
250.768
 11
97.387
 21
250.796
  0
LINE
  8
0
 10
97.387
 20
250.796
 11
97.613
 21
250.796
  0
LINE
  8
0
 10
97.613
 20
250.796
 11
97.8373
 21
250.768
  0
LINE
  8
0
 10
97.8373
 20
250.768
 11
98.0562
 21
250.712
  0
LINE
  8
0
 10
98.0562
 20
250.712
 11
98.2664
 21
250.629
  0
LINE
  8
0
 10
98.2664
 20
250.629
 11
98.4645
 21
250.52
  0
LINE
  8
0
 10
98.4645
 20
250.52
 11
98.6474
 21
250.387
  0
LINE
  8
0
 10
98.6474
 20
250.387
 11
98.8121
 21
250.232
  0
LINE
  8
0
 10
98.8121
 20
250.232
 11
98.9562
 21
250.058
  0
LINE
  8
0
 10
98.9562
 20
250.058
 11
99.0773
 21
249.867
  0
LINE
  8
0
 10
99.0773
 20
249.867
 11
99.1736
 21
249.663
  0
LINE
  8
0
 10
99.1736
 20
249.663
 11
99.2434
 21
249.448
  0
LINE
  8
0
 10
99.2434
 20
249.448
 11
99.2858
 21
249.226
  0
LINE
  8
0
 10
99.2858
 20
249.226
 11
99.3
 21
249
  0
LINE
  8
0
 10
99.3
 20
249
 11
99.2858
 21
248.774
  0
LINE
  8
0
 10
99.2858
 20
248.774
 11
99.2434
 21
248.552
  0
LINE
  8
0
 10
99.2434
 20
248.552
 11
99.1736
 21
248.337
  0
LINE
  8
0
 10
99.1736
 20
248.337
 11
99.0773
 21
248.133
  0
LINE
  8
0
 10
99.0773
 20
248.133
 11
98.9562
 21
247.942
  0
LINE
  8
0
 10
98.9562
 20
247.942
 11
98.8121
 21
247.768
  0
LINE
  8
0
 10
98.8121
 20
247.768
 11
98.6474
 21
247.613
  0
LINE
  8
0
 10
98.6474
 20
247.613
 11
98.4645
 21
247.48
  0
LINE
  8
0
 10
98.4645
 20
247.48
 11
98.2664
 21
247.371
  0
LINE
  8
0
 10
98.2664
 20
247.371
 11
98.0562
 21
247.288
  0
LINE
  8
0
 10
98.0562
 20
247.288
 11
97.8373
 21
247.232
  0
LINE
  8
0
 10
97.8373
 20
247.232
 11
97.613
 21
247.204
  0
LINE
  8
0
 10
97.613
 20
247.204
 11
97.387
 21
247.204
  0
LINE
  8
0
 10
-97.613
 20
247.204
 11
-97.8373
 21
247.232
  0
LINE
  8
0
 10
-97.8373
 20
247.232
 11
-98.0562
 21
247.288
  0
LINE
  8
0
 10
-98.0562
 20
247.288
 11
-98.2664
 21
247.371
  0
LINE
  8
0
 10
-98.2664
 20
247.371
 11
-98.4645
 21
247.48
  0
LINE
  8
0
 10
-98.4645
 20
247.48
 11
-98.6474
 21
247.613
  0
LINE
  8
0
 10
-98.6474
 20
247.613
 11
-98.8121
 21
247.768
  0
LINE
  8
0
 10
-98.8121
 20
247.768
 11
-98.9562
 21
247.942
  0
LINE
  8
0
 10
-98.9562
 20
247.942
 11
-99.0773
 21
248.133
  0
LINE
  8
0
 10
-99.0773
 20
248.133
 11
-99.1736
 21
248.337
  0
LINE
  8
0
 10
-99.1736
 20
248.337
 11
-99.2434
 21
248.552
  0
LINE
  8
0
 10
-99.2434
 20
248.552
 11
-99.2858
 21
248.774
  0
LINE
  8
0
 10
-99.2858
 20
248.774
 11
-99.3
 21
249
  0
LINE
  8
0
 10
-99.3
 20
249
 11
-99.2858
 21
249.226
  0
LINE
  8
0
 10
-99.2858
 20
249.226
 11
-99.2434
 21
249.448
  0
LINE
  8
0
 10
-99.2434
 20
249.448
 11
-99.1736
 21
249.663
  0
LINE
  8
0
 10
-99.1736
 20
249.663
 11
-99.0773
 21
249.867
  0
LINE
  8
0
 10
-99.0773
 20
249.867
 11
-98.9562
 21
250.058
  0
LINE
  8
0
 10
-98.9562
 20
250.058
 11
-98.8121
 21
250.232
  0
LINE
  8
0
 10
-98.8121
 20
250.232
 11
-98.6474
 21
250.387
  0
LINE
  8
0
 10
-98.6474
 20
250.387
 11
-98.4645
 21
250.52
  0
LINE
  8
0
 10
-98.4645
 20
250.52
 11
-98.2664
 21
250.629
  0
LINE
  8
0
 10
-98.2664
 20
250.629
 11
-98.0562
 21
250.712
  0
LINE
  8
0
 10
-98.0562
 20
250.712
 11
-97.8373
 21
250.768
  0
LINE
  8
0
 10
-97.8373
 20
250.768
 11
-97.613
 21
250.796
  0
LINE
  8
0
 10
-97.613
 20
250.796
 11
-97.387
 21
250.796
  0
LINE
  8
0
 10
-97.387
 20
250.796
 11
-97.1627
 21
250.768
  0
LINE
  8
0
 10
-97.1627
 20
250.768
 11
-96.9438
 21
250.712
  0
LINE
  8
0
 10
-96.9438
 20
250.712
 11
-96.7336
 21
250.629
  0
LINE
  8
0
 10
-96.7336
 20
250.629
 11
-96.5355
 21
250.52
  0
LINE
  8
0
 10
-96.5355
 20
250.52
 11
-96.3526
 21
250.387
  0
LINE
  8
0
 10
-96.3526
 20
250.387
 11
-96.1879
 21
250.232
  0
LINE
  8
0
 10
-96.1879
 20
250.232
 11
-96.0438
 21
250.058
  0
LINE
  8
0
 10
-96.0438
 20
250.058
 11
-95.9226
 21
249.867
  0
LINE
  8
0
 10
-95.9226
 20
249.867
 11
-95.8264
 21
249.663
  0
LINE
  8
0
 10
-95.8264
 20
249.663
 11
-95.7565
 21
249.448
  0
LINE
  8
0
 10
-95.7565
 20
249.448
 11
-95.7142
 21
249.226
  0
LINE
  8
0
 10
-95.7142
 20
249.226
 11
-95.7
 21
249
  0
LINE
  8
0
 10
-95.7
 20
249
 11
-95.7142
 21
248.774
  0
LINE
  8
0
 10
-95.7142
 20
248.774
 11
-95.7565
 21
248.552
  0
LINE
  8
0
 10
-95.7565
 20
248.552
 11
-95.8264
 21
248.337
  0
LINE
  8
0
 10
-95.8264
 20
248.337
 11
-95.9226
 21
248.133
  0
LINE
  8
0
 10
-95.9226
 20
248.133
 11
-96.0438
 21
247.942
  0
LINE
  8
0
 10
-96.0438
 20
247.942
 11
-96.1879
 21
247.768
  0
LINE
  8
0
 10
-96.1879
 20
247.768
 11
-96.3526
 21
247.613
  0
LINE
  8
0
 10
-96.3526
 20
247.613
 11
-96.5355
 21
247.48
  0
LINE
  8
0
 10
-96.5355
 20
247.48
 11
-96.7336
 21
247.371
  0
LINE
  8
0
 10
-96.7336
 20
247.371
 11
-96.9438
 21
247.288
  0
LINE
  8
0
 10
-96.9438
 20
247.288
 11
-97.1627
 21
247.232
  0
LINE
  8
0
 10
-97.1627
 20
247.232
 11
-97.387
 21
247.204
  0
LINE
  8
0
 10
-97.387
 20
247.204
 11
-97.613
 21
247.204
  0
LINE
  8
0
 10
-97.613
 20
97.2036
 11
-97.8373
 21
97.2319
  0
LINE
  8
0
 10
-97.8373
 20
97.2319
 11
-98.0562
 21
97.2881
  0
LINE
  8
0
 10
-98.0562
 20
97.2881
 11
-98.2664
 21
97.3713
  0
LINE
  8
0
 10
-98.2664
 20
97.3713
 11
-98.4645
 21
97.4802
  0
LINE
  8
0
 10
-98.4645
 20
97.4802
 11
-98.6474
 21
97.6131
  0
LINE
  8
0
 10
-98.6474
 20
97.6131
 11
-98.8121
 21
97.7678
  0
LINE
  8
0
 10
-98.8121
 20
97.7678
 11
-98.9562
 21
97.942
  0
LINE
  8
0
 10
-98.9562
 20
97.942
 11
-99.0773
 21
98.1328
  0
LINE
  8
0
 10
-99.0773
 20
98.1328
 11
-99.1736
 21
98.3374
  0
LINE
  8
0
 10
-99.1736
 20
98.3374
 11
-99.2434
 21
98.5524
  0
LINE
  8
0
 10
-99.2434
 20
98.5524
 11
-99.2858
 21
98.7744
  0
LINE
  8
0
 10
-99.2858
 20
98.7744
 11
-99.3
 21
99
  0
LINE
  8
0
 10
-99.3
 20
99
 11
-99.2858
 21
99.2256
  0
LINE
  8
0
 10
-99.2858
 20
99.2256
 11
-99.2434
 21
99.4476
  0
LINE
  8
0
 10
-99.2434
 20
99.4476
 11
-99.1736
 21
99.6626
  0
LINE
  8
0
 10
-99.1736
 20
99.6626
 11
-99.0773
 21
99.8672
  0
LINE
  8
0
 10
-99.0773
 20
99.8672
 11
-98.9562
 21
100.058
  0
LINE
  8
0
 10
-98.9562
 20
100.058
 11
-98.8121
 21
100.232
  0
LINE
  8
0
 10
-98.8121
 20
100.232
 11
-98.6474
 21
100.387
  0
LINE
  8
0
 10
-98.6474
 20
100.387
 11
-98.4645
 21
100.52
  0
LINE
  8
0
 10
-98.4645
 20
100.52
 11
-98.2664
 21
100.629
  0
LINE
  8
0
 10
-98.2664
 20
100.629
 11
-98.0562
 21
100.712
  0
LINE
  8
0
 10
-98.0562
 20
100.712
 11
-97.8373
 21
100.768
  0
LINE
  8
0
 10
-97.8373
 20
100.768
 11
-97.613
 21
100.796
  0
LINE
  8
0
 10
-97.613
 20
100.796
 11
-97.387
 21
100.796
  0
LINE
  8
0
 10
-97.387
 20
100.796
 11
-97.1627
 21
100.768
  0
LINE
  8
0
 10
-97.1627
 20
100.768
 11
-96.9438
 21
100.712
  0
LINE
  8
0
 10
-96.9438
 20
100.712
 11
-96.7336
 21
100.629
  0
LINE
  8
0
 10
-96.7336
 20
100.629
 11
-96.5355
 21
100.52
  0
LINE
  8
0
 10
-96.5355
 20
100.52
 11
-96.3526
 21
100.387
  0
LINE
  8
0
 10
-96.3526
 20
100.387
 11
-96.1879
 21
100.232
  0
LINE
  8
0
 10
-96.1879
 20
100.232
 11
-96.0438
 21
100.058
  0
LINE
  8
0
 10
-96.0438
 20
100.058
 11
-95.9226
 21
99.8672
  0
LINE
  8
0
 10
-95.9226
 20
99.8672
 11
-95.8264
 21
99.6626
  0
LINE
  8
0
 10
-95.8264
 20
99.6626
 11
-95.7565
 21
99.4476
  0
LINE
  8
0
 10
-95.7565
 20
99.4476
 11
-95.7142
 21
99.2256
  0
LINE
  8
0
 10
-95.7142
 20
99.2256
 11
-95.7
 21
99
  0
LINE
  8
0
 10
-95.7
 20
99
 11
-95.7142
 21
98.7744
  0
LINE
  8
0
 10
-95.7142
 20
98.7744
 11
-95.7565
 21
98.5524
  0
LINE
  8
0
 10
-95.7565
 20
98.5524
 11
-95.8264
 21
98.3374
  0
LINE
  8
0
 10
-95.8264
 20
98.3374
 11
-95.9226
 21
98.1328
  0
LINE
  8
0
 10
-95.9226
 20
98.1328
 11
-96.0438
 21
97.942
  0
LINE
  8
0
 10
-96.0438
 20
97.942
 11
-96.1879
 21
97.7678
  0
LINE
  8
0
 10
-96.1879
 20
97.7678
 11
-96.3526
 21
97.6131
  0
LINE
  8
0
 10
-96.3526
 20
97.6131
 11
-96.5355
 21
97.4802
  0
LINE
  8
0
 10
-96.5355
 20
97.4802
 11
-96.7336
 21
97.3713
  0
LINE
  8
0
 10
-96.7336
 20
97.3713
 11
-96.9438
 21
97.2881
  0
LINE
  8
0
 10
-96.9438
 20
97.2881
 11
-97.1627
 21
97.2319
  0
LINE
  8
0
 10
-97.1627
 20
97.2319
 11
-97.387
 21
97.2036
  0
LINE
  8
0
 10
-97.387
 20
97.2036
 11
-97.613
 21
97.2036
  0
LINE
  8
0
 10
97.387
 20
97.2036
 11
97.1627
 21
97.2319
  0
LINE
  8
0
 10
97.1627
 20
97.2319
 11
96.9438
 21
97.2881
  0
LINE
  8
0
 10
96.9438
 20
97.2881
 11
96.7336
 21
97.3713
  0
LINE
  8
0
 10
96.7336
 20
97.3713
 11
96.5355
 21
97.4802
  0
LINE
  8
0
 10
96.5355
 20
97.4802
 11
96.3526
 21
97.6131
  0
LINE
  8
0
 10
96.3526
 20
97.6131
 11
96.1879
 21
97.7678
  0
LINE
  8
0
 10
96.1879
 20
97.7678
 11
96.0438
 21
97.942
  0
LINE
  8
0
 10
96.0438
 20
97.942
 11
95.9226
 21
98.1328
  0
LINE
  8
0
 10
95.9226
 20
98.1328
 11
95.8264
 21
98.3374
  0
LINE
  8
0
 10
95.8264
 20
98.3374
 11
95.7565
 21
98.5524
  0
LINE
  8
0
 10
95.7565
 20
98.5524
 11
95.7142
 21
98.7744
  0
LINE
  8
0
 10
95.7142
 20
98.7744
 11
95.7
 21
99
  0
LINE
  8
0
 10
95.7
 20
99
 11
95.7142
 21
99.2256
  0
LINE
  8
0
 10
95.7142
 20
99.2256
 11
95.7565
 21
99.4476
  0
LINE
  8
0
 10
95.7565
 20
99.4476
 11
95.8264
 21
99.6626
  0
LINE
  8
0
 10
95.8264
 20
99.6626
 11
95.9226
 21
99.8672
  0
LINE
  8
0
 10
95.9226
 20
99.8672
 11
96.0438
 21
100.058
  0
LINE
  8
0
 10
96.0438
 20
100.058
 11
96.1879
 21
100.232
  0
LINE
  8
0
 10
96.1879
 20
100.232
 11
96.3526
 21
100.387
  0
LINE
  8
0
 10
96.3526
 20
100.387
 11
96.5355
 21
100.52
  0
LINE
  8
0
 10
96.5355
 20
100.52
 11
96.7336
 21
100.629
  0
LINE
  8
0
 10
96.7336
 20
100.629
 11
96.9438
 21
100.712
  0
LINE
  8
0
 10
96.9438
 20
100.712
 11
97.1627
 21
100.768
  0
LINE
  8
0
 10
97.1627
 20
100.768
 11
97.387
 21
100.796
  0
LINE
  8
0
 10
97.387
 20
100.796
 11
97.613
 21
100.796
  0
LINE
  8
0
 10
97.613
 20
100.796
 11
97.8373
 21
100.768
  0
LINE
  8
0
 10
97.8373
 20
100.768
 11
98.0562
 21
100.712
  0
LINE
  8
0
 10
98.0562
 20
100.712
 11
98.2664
 21
100.629
  0
LINE
  8
0
 10
98.2664
 20
100.629
 11
98.4645
 21
100.52
  0
LINE
  8
0
 10
98.4645
 20
100.52
 11
98.6474
 21
100.387
  0
LINE
  8
0
 10
98.6474
 20
100.387
 11
98.8121
 21
100.232
  0
LINE
  8
0
 10
98.8121
 20
100.232
 11
98.9562
 21
100.058
  0
LINE
  8
0
 10
98.9562
 20
100.058
 11
99.0773
 21
99.8672
  0
LINE
  8
0
 10
99.0773
 20
99.8672
 11
99.1736
 21
99.6626
  0
LINE
  8
0
 10
99.1736
 20
99.6626
 11
99.2434
 21
99.4476
  0
LINE
  8
0
 10
99.2434
 20
99.4476
 11
99.2858
 21
99.2256
  0
LINE
  8
0
 10
99.2858
 20
99.2256
 11
99.3
 21
99
  0
LINE
  8
0
 10
99.3
 20
99
 11
99.2858
 21
98.7744
  0
LINE
  8
0
 10
99.2858
 20
98.7744
 11
99.2434
 21
98.5524
  0
LINE
  8
0
 10
99.2434
 20
98.5524
 11
99.1736
 21
98.3374
  0
LINE
  8
0
 10
99.1736
 20
98.3374
 11
99.0773
 21
98.1328
  0
LINE
  8
0
 10
99.0773
 20
98.1328
 11
98.9562
 21
97.942
  0
LINE
  8
0
 10
98.9562
 20
97.942
 11
98.8121
 21
97.7678
  0
LINE
  8
0
 10
98.8121
 20
97.7678
 11
98.6474
 21
97.6131
  0
LINE
  8
0
 10
98.6474
 20
97.6131
 11
98.4645
 21
97.4802
  0
LINE
  8
0
 10
98.4645
 20
97.4802
 11
98.2664
 21
97.3713
  0
LINE
  8
0
 10
98.2664
 20
97.3713
 11
98.0562
 21
97.2881
  0
LINE
  8
0
 10
98.0562
 20
97.2881
 11
97.8373
 21
97.2319
  0
LINE
  8
0
 10
97.8373
 20
97.2319
 11
97.613
 21
97.2036
  0
LINE
  8
0
 10
97.613
 20
97.2036
 11
97.387
 21
97.2036
  0
ENDSEC
  0
SECTION
  2
OBJECTS
  0
DICTIONARY
  0
ENDSEC
  0
EOF
