<?xml version="1.0" standalone="no"?>
<!DOCTYPE svg PUBLIC "-//W3C//DTD SVG 1.1//EN" "http://www.w3.org/Graphics/SVG/1.1/DTD/svg11.dtd">
<svg width="180mm" height="118mm" viewBox="-90 -232 180 118" xmlns="http://www.w3.org/2000/svg" version="1.1">
<title>OpenSCAD Model</title>
<path d="
M 85.9369,-209.339 L 86.5451,-209.495 L 87.1289,-209.726 L 87.6791,-210.028 L 88.1871,-210.397 L 88.6448,-210.827
 L 89.0451,-211.311 L 89.3815,-211.841 L 89.6489,-212.409 L 89.8429,-213.007 L 89.9606,-213.623 L 90,-214.25
 L 90,-226.75 L 89.9606,-227.377 L 89.8429,-227.993 L 89.6489,-228.591 L 89.3815,-229.159 L 89.0451,-229.689
 L 88.6448,-230.173 L 88.1871,-230.603 L 87.6791,-230.972 L 87.1289,-231.274 L 86.5451,-231.505 L 85.9369,-231.661
 L 85.3139,-231.74 L -85.3139,-231.74 L -85.9369,-231.661 L -86.5451,-231.505 L -87.1289,-231.274 L -87.6791,-230.972
 L -88.1871,-230.603 L -88.4,-230.403 L -90,-230.403 L -90,-210.597 L -88.4,-210.597 L -88.1871,-210.397
 L -87.6791,-210.028 L -87.1289,-209.726 L -86.5451,-209.495 L -85.9369,-209.339 L -85.3139,-209.26 L 85.3139,-209.26
 z
M -84.7512,-210.758 L -85.2495,-210.821 L -85.7361,-210.946 L -86.2031,-211.131 L -86.6433,-211.373 L -87.0497,-211.668
 L -87.4159,-212.012 L -87.7361,-212.399 L -88.0052,-212.823 L -88.2191,-213.278 L -88.3743,-213.755 L -88.4685,-214.249
 L -88.5,-214.75 L -88.5,-226.25 L -88.4685,-226.751 L -88.3743,-227.245 L -88.2191,-227.722 L -88.0052,-228.177
 L -87.7361,-228.601 L -87.4159,-228.988 L -87.0497,-229.332 L -86.6433,-229.627 L -86.2031,-229.869 L -85.7361,-230.054
 L -85.2495,-230.179 L -84.7512,-230.242 L 84.7512,-230.242 L 85.2495,-230.179 L 85.7361,-230.054 L 86.2031,-229.869
 L 86.6433,-229.627 L 87.0497,-229.332 L 87.4159,-228.988 L 87.7361,-228.601 L 88.0052,-228.177 L 88.2191,-227.722
 L 88.3743,-227.245 L 88.4685,-226.751 L 88.5,-226.25 L 88.5,-214.75 L 88.4685,-214.249 L 88.3743,-213.755
 L 88.2191,-213.278 L 88.0052,-212.823 L 87.7361,-212.399 L 87.4159,-212.012 L 87.0497,-211.668 L 86.6433,-211.373
 L 86.2031,-211.131 L 85.7361,-210.946 L 85.2495,-210.821 L 84.7512,-210.758 z
M 85.9369,-177.839 L 86.5451,-177.995 L 87.1289,-178.226 L 87.6791,-178.528 L 88.1871,-178.897 L 88.6448,-179.327
 L 89.0451,-179.811 L 89.3815,-180.341 L 89.6489,-180.909 L 89.8429,-181.507 L 89.9606,-182.123 L 90,-182.75
 L 90,-195.25 L 89.9606,-195.877 L 89.8429,-196.493 L 89.6489,-197.091 L 89.3815,-197.659 L 89.0451,-198.189
 L 88.6448,-198.673 L 88.1871,-199.103 L 87.6791,-199.472 L 87.1289,-199.774 L 86.5451,-200.005 L 85.9369,-200.161
 L 85.3139,-200.24 L -85.3139,-200.24 L -85.9369,-200.161 L -86.5451,-200.005 L -87.1289,-199.774 L -87.6791,-199.472
 L -88.1871,-199.103 L -88.6448,-198.673 L -89.0451,-198.189 L -89.3815,-197.659 L -89.6489,-197.091 L -89.8429,-196.493
 L -89.9606,-195.877 L -90,-195.25 L -90,-182.75 L -89.9606,-182.123 L -89.8429,-181.507 L -89.6489,-180.909
 L -89.3815,-180.341 L -89.0451,-179.811 L -88.6448,-179.327 L -88.1871,-178.897 L -87.6791,-178.528 L -87.1289,-178.226
 L -86.5451,-177.995 L -85.9369,-177.839 L -85.3139,-177.76 L 85.3139,-177.76 z
M -84.7512,-179.258 L -85.2495,-179.321 L -85.7361,-179.446 L -86.2031,-179.631 L -86.6433,-179.873 L -87.0497,-180.168
 L -87.4159,-180.512 L -87.7361,-180.899 L -88.0052,-181.323 L -88.2191,-181.778 L -88.3743,-182.255 L -88.4685,-182.749
 L -88.5,-183.25 L -88.5,-194.75 L -88.4685,-195.251 L -88.3743,-195.745 L -88.2191,-196.222 L -88.0052,-196.677
 L -87.7361,-197.101 L -87.4159,-197.488 L -87.0497,-197.832 L -86.6433,-198.127 L -86.2031,-198.369 L -85.7361,-198.554
 L -85.2495,-198.679 L -84.7512,-198.742 L 84.7512,-198.742 L 85.2495,-198.679 L 85.7361,-198.554 L 86.2031,-198.369
 L 86.6433,-198.127 L 87.0497,-197.832 L 87.4159,-197.488 L 87.7361,-197.101 L 88.0052,-196.677 L 88.2191,-196.222
 L 88.3743,-195.745 L 88.4685,-195.251 L 88.5,-194.75 L 88.5,-183.25 L 88.4685,-182.749 L 88.3743,-182.255
 L 88.2191,-181.778 L 88.0052,-181.323 L 87.7361,-180.899 L 87.4159,-180.512 L 87.0497,-180.168 L 86.6433,-179.873
 L 86.2031,-179.631 L 85.7361,-179.446 L 85.2495,-179.321 L 84.7512,-179.258 z
M 85.9369,-146.339 L 86.5451,-146.495 L 87.1289,-146.726 L 87.6791,-147.028 L 88.1871,-147.397 L 88.6448,-147.827
 L 89.0451,-148.311 L 89.3815,-148.841 L 89.6489,-149.409 L 89.8429,-150.007 L 89.9606,-150.623 L 90,-151.25
 L 90,-163.75 L 89.9606,-164.377 L 89.8429,-164.993 L 89.6489,-165.591 L 89.3815,-166.159 L 89.0451,-166.689
 L 88.6448,-167.173 L 88.1871,-167.603 L 87.6791,-167.972 L 87.1289,-168.274 L 86.5451,-168.505 L 85.9369,-168.661
 L 85.3139,-168.74 L -85.3139,-168.74 L -85.9369,-168.661 L -86.5451,-168.505 L -87.1289,-168.274 L -87.6791,-167.972
 L -88.1871,-167.603 L -88.6448,-167.173 L -89.0451,-166.689 L -89.3815,-166.159 L -89.6489,-165.591 L -89.8429,-164.993
 L -89.9606,-164.377 L -90,-163.75 L -90,-151.25 L -89.9606,-150.623 L -89.8429,-150.007 L -89.6489,-149.409
 L -89.3815,-148.841 L -89.0451,-148.311 L -88.6448,-147.827 L -88.1871,-147.397 L -87.6791,-147.028 L -87.1289,-146.726
 L -86.5451,-146.495 L -85.9369,-146.339 L -85.3139,-146.26 L 85.3139,-146.26 z
M -84.6955,-148.643 L -85.0833,-148.692 L -85.4619,-148.789 L -85.8254,-148.933 L -86.168,-149.122 L -86.4843,-149.351
 L -86.7692,-149.619 L -87.0184,-149.92 L -87.2279,-150.25 L -87.3943,-150.604 L -87.5151,-150.976 L -87.5884,-151.36
 L -87.6129,-151.75 L -87.6129,-163.25 L -87.5884,-163.64 L -87.5151,-164.024 L -87.3943,-164.396 L -87.2279,-164.75
 L -87.0184,-165.08 L -86.7692,-165.381 L -86.4843,-165.649 L -86.168,-165.878 L -85.8254,-166.067 L -85.4619,-166.211
 L -85.0833,-166.308 L -84.6955,-166.357 L 84.6955,-166.357 L 85.0833,-166.308 L 85.4619,-166.211 L 85.8254,-166.067
 L 86.168,-165.878 L 86.4843,-165.649 L 86.7692,-165.381 L 87.0184,-165.08 L 87.2279,-164.75 L 87.3943,-164.396
 L 87.5151,-164.024 L 87.5884,-163.64 L 87.6129,-163.25 L 87.6129,-151.75 L 87.5884,-151.36 L 87.5151,-150.976
 L 87.3943,-150.604 L 87.2279,-150.25 L 87.0184,-149.92 L 86.7692,-149.619 L 86.4843,-149.351 L 86.168,-149.122
 L 85.8254,-148.933 L 85.4619,-148.789 L 85.0833,-148.692 L 84.6955,-148.643 z
M 85.9369,-114.839 L 86.5451,-114.995 L 87.1289,-115.226 L 87.6791,-115.528 L 88.1871,-115.897 L 88.6448,-116.327
 L 89.0451,-116.811 L 89.3815,-117.341 L 89.6489,-117.909 L 89.8429,-118.507 L 89.9606,-119.123 L 90,-119.75
 L 90,-132.25 L 89.9606,-132.877 L 89.8429,-133.493 L 89.6489,-134.091 L 89.3815,-134.659 L 89.0451,-135.189
 L 88.6448,-135.673 L 88.1871,-136.103 L 87.6791,-136.472 L 87.1289,-136.774 L 86.5451,-137.005 L 85.9369,-137.161
 L 85.3139,-137.24 L -85.3139,-137.24 L -85.9369,-137.161 L -86.5451,-137.005 L -87.1289,-136.774 L -87.6791,-136.472
 L -88.1871,-136.103 L -88.6448,-135.673 L -89.0451,-135.189 L -89.3815,-134.659 L -89.6489,-134.091 L -89.8429,-133.493
 L -89.9606,-132.877 L -90,-132.25 L -90,-119.75 L -89.9606,-119.123 L -89.8429,-118.507 L -89.6489,-117.909
 L -89.3815,-117.341 L -89.0451,-116.811 L -88.6448,-116.327 L -88.1871,-115.897 L -87.6791,-115.528 L -87.1289,-115.226
 L -86.5451,-114.995 L -85.9369,-114.839 L -85.3139,-114.76 L 85.3139,-114.76 z
M 82.3659,-127.619 L 82.0999,-127.653 L 81.8401,-127.719 L 81.5908,-127.818 L 81.3559,-127.947 L 81.1389,-128.105
 L 80.9434,-128.288 L 80.7725,-128.495 L 80.6288,-128.721 L 80.5146,-128.964 L 80.4318,-129.219 L 80.3815,-129.482
 L 80.3647,-129.75 L 80.3815,-130.018 L 80.4318,-130.281 L 80.5146,-130.536 L 80.6288,-130.779 L 80.7725,-131.005
 L 80.9434,-131.212 L 81.1389,-131.395 L 81.3559,-131.553 L 81.5908,-131.682 L 81.8401,-131.781 L 82.0999,-131.847
 L 82.3659,-131.881 L 82.6341,-131.881 L 82.9001,-131.847 L 83.1598,-131.781 L 83.4092,-131.682 L 83.6441,-131.553
 L 83.8611,-131.395 L 84.0566,-131.212 L 84.2275,-131.005 L 84.3712,-130.779 L 84.4853,-130.536 L 84.5682,-130.281
 L 84.6185,-130.018 L 84.6353,-129.75 L 84.6185,-129.482 L 84.5682,-129.219 L 84.4853,-128.964 L 84.3712,-128.721
 L 84.2275,-128.495 L 84.0566,-128.288 L 83.8611,-128.105 L 83.6441,-127.947 L 83.4092,-127.818 L 83.1598,-127.719
 L 82.9001,-127.653 L 82.6341,-127.619 z
M -82.6341,-127.619 L -82.9001,-127.653 L -83.1598,-127.719 L -83.4092,-127.818 L -83.6441,-127.947 L -83.8611,-128.105
 L -84.0566,-128.288 L -84.2275,-128.495 L -84.3712,-128.721 L -84.4853,-128.964 L -84.5682,-129.219 L -84.6185,-129.482
 L -84.6353,-129.75 L -84.6185,-130.018 L -84.5682,-130.281 L -84.4853,-130.536 L -84.3712,-130.779 L -84.2275,-131.005
 L -84.0566,-131.212 L -83.8611,-131.395 L -83.6441,-131.553 L -83.4092,-131.682 L -83.1598,-131.781 L -82.9001,-131.847
 L -82.6341,-131.881 L -82.3659,-131.881 L -82.0999,-131.847 L -81.8401,-131.781 L -81.5908,-131.682 L -81.3559,-131.553
 L -81.1389,-131.395 L -80.9434,-131.212 L -80.7725,-131.005 L -80.6288,-130.779 L -80.5146,-130.536 L -80.4318,-130.281
 L -80.3815,-130.018 L -80.3647,-129.75 L -80.3815,-129.482 L -80.4318,-129.219 L -80.5146,-128.964 L -80.6288,-128.721
 L -80.7725,-128.495 L -80.9434,-128.288 L -81.1389,-128.105 L -81.3559,-127.947 L -81.5908,-127.818 L -81.8401,-127.719
 L -82.0999,-127.653 L -82.3659,-127.619 z
M 82.3659,-120.119 L 82.0999,-120.153 L 81.8401,-120.219 L 81.5908,-120.318 L 81.3559,-120.447 L 81.1389,-120.605
 L 80.9434,-120.788 L 80.7725,-120.995 L 80.6288,-121.221 L 80.5146,-121.464 L 80.4318,-121.719 L 80.3815,-121.982
 L 80.3647,-122.25 L 80.3815,-122.518 L 80.4318,-122.781 L 80.5146,-123.036 L 80.6288,-123.279 L 80.7725,-123.505
 L 80.9434,-123.712 L 81.1389,-123.895 L 81.3559,-124.053 L 81.5908,-124.182 L 81.8401,-124.281 L 82.0999,-124.347
 L 82.3659,-124.381 L 82.6341,-124.381 L 82.9001,-124.347 L 83.1598,-124.281 L 83.4092,-124.182 L 83.6441,-124.053
 L 83.8611,-123.895 L 84.0566,-123.712 L 84.2275,-123.505 L 84.3712,-123.279 L 84.4853,-123.036 L 84.5682,-122.781
 L 84.6185,-122.518 L 84.6353,-122.25 L 84.6185,-121.982 L 84.5682,-121.719 L 84.4853,-121.464 L 84.3712,-121.221
 L 84.2275,-120.995 L 84.0566,-120.788 L 83.8611,-120.605 L 83.6441,-120.447 L 83.4092,-120.318 L 83.1598,-120.219
 L 82.9001,-120.153 L 82.6341,-120.119 z
M -82.6341,-120.119 L -82.9001,-120.153 L -83.1598,-120.219 L -83.4092,-120.318 L -83.6441,-120.447 L -83.8611,-120.605
 L -84.0566,-120.788 L -84.2275,-120.995 L -84.3712,-121.221 L -84.4853,-121.464 L -84.5682,-121.719 L -84.6185,-121.982
 L -84.6353,-122.25 L -84.6185,-122.518 L -84.5682,-122.781 L -84.4853,-123.036 L -84.3712,-123.279 L -84.2275,-123.505
 L -84.0566,-123.712 L -83.8611,-123.895 L -83.6441,-124.053 L -83.4092,-124.182 L -83.1598,-124.281 L -82.9001,-124.347
 L -82.6341,-124.381 L -82.3659,-124.381 L -82.0999,-124.347 L -81.8401,-124.281 L -81.5908,-124.182 L -81.3559,-124.053
 L -81.1389,-123.895 L -80.9434,-123.712 L -80.7725,-123.505 L -80.6288,-123.279 L -80.5146,-123.036 L -80.4318,-122.781
 L -80.3815,-122.518 L -80.3647,-122.25 L -80.3815,-121.982 L -80.4318,-121.719 L -80.5146,-121.464 L -80.6288,-121.221
 L -80.7725,-120.995 L -80.9434,-120.788 L -81.1389,-120.605 L -81.3559,-120.447 L -81.5908,-120.318 L -81.8401,-120.219
 L -82.0999,-120.153 L -82.3659,-120.119 z
" stroke="black" fill="lightgray" stroke-width="0.5"/>
</svg>
