  0
SECTION
  2
BLOCKS
  0
ENDSEC
  0
SECTION
  2
ENTITIES
  0
LINE
  8
0
 10
7.1869
 20
1044.09
 11
7.79507
 21
1044.24
  0
LINE
  8
0
 10
7.79507
 20
1044.24
 11
8.37889
 21
1044.48
  0
LINE
  8
0
 10
8.37889
 20
1044.48
 11
8.92912
 21
1044.78
  0
LINE
  8
0
 10
8.92912
 20
1044.78
 11
9.43712
 21
1045.15
  0
LINE
  8
0
 10
9.43712
 20
1045.15
 11
9.89484
 21
1045.58
  0
LINE
  8
0
 10
9.89484
 20
1045.58
 11
10.2951
 21
1046.06
  0
LINE
  8
0
 10
10.2951
 20
1046.06
 11
10.6315
 21
1046.59
  0
LINE
  8
0
 10
10.6315
 20
1046.59
 11
10.8989
 21
1047.16
  0
LINE
  8
0
 10
10.8989
 20
1047.16
 11
11.0929
 21
1047.76
  0
LINE
  8
0
 10
11.0929
 20
1047.76
 11
11.2106
 21
1048.37
  0
LINE
  8
0
 10
11.2106
 20
1048.37
 11
11.25
 21
1049
  0
LINE
  8
0
 10
11.25
 20
1049
 11
11.25
 21
1219
  0
LINE
  8
0
 10
11.25
 20
1219
 11
11.2106
 21
1219.63
  0
LINE
  8
0
 10
11.2106
 20
1219.63
 11
11.0929
 21
1220.24
  0
LINE
  8
0
 10
11.0929
 20
1220.24
 11
10.8989
 21
1220.84
  0
LINE
  8
0
 10
10.8989
 20
1220.84
 11
10.6315
 21
1221.41
  0
LINE
  8
0
 10
10.6315
 20
1221.41
 11
10.2951
 21
1221.94
  0
LINE
  8
0
 10
10.2951
 20
1221.94
 11
9.89484
 21
1222.42
  0
LINE
  8
0
 10
9.89484
 20
1222.42
 11
9.43712
 21
1222.85
  0
LINE
  8
0
 10
9.43712
 20
1222.85
 11
8.92912
 21
1223.22
  0
LINE
  8
0
 10
8.92912
 20
1223.22
 11
8.37889
 21
1223.52
  0
LINE
  8
0
 10
8.37889
 20
1223.52
 11
7.79507
 21
1223.76
  0
LINE
  8
0
 10
7.79507
 20
1223.76
 11
7.1869
 21
1223.91
  0
LINE
  8
0
 10
7.1869
 20
1223.91
 11
6.56395
 21
1223.99
  0
LINE
  8
0
 10
6.56395
 20
1223.99
 11
-6.56395
 21
1223.99
  0
LINE
  8
0
 10
-6.56395
 20
1223.99
 11
-7.1869
 21
1223.91
  0
LINE
  8
0
 10
-7.1869
 20
1223.91
 11
-7.79507
 21
1223.76
  0
LINE
  8
0
 10
-7.79507
 20
1223.76
 11
-8.37889
 21
1223.52
  0
LINE
  8
0
 10
-8.37889
 20
1223.52
 11
-8.92912
 21
1223.22
  0
LINE
  8
0
 10
-8.92912
 20
1223.22
 11
-9.43712
 21
1222.85
  0
LINE
  8
0
 10
-9.43712
 20
1222.85
 11
-9.89484
 21
1222.42
  0
LINE
  8
0
 10
-9.89484
 20
1222.42
 11
-10.2951
 21
1221.94
  0
LINE
  8
0
 10
-10.2951
 20
1221.94
 11
-10.6315
 21
1221.41
  0
LINE
  8
0
 10
-10.6315
 20
1221.41
 11
-10.8989
 21
1220.84
  0
LINE
  8
0
 10
-10.8989
 20
1220.84
 11
-11.0929
 21
1220.24
  0
LINE
  8
0
 10
-11.0929
 20
1220.24
 11
-11.2106
 21
1219.63
  0
LINE
  8
0
 10
-11.2106
 20
1219.63
 11
-11.25
 21
1219
  0
LINE
  8
0
 10
-11.25
 20
1219
 11
-11.25
 21
1049
  0
LINE
  8
0
 10
-11.25
 20
1049
 11
-11.2106
 21
1048.37
  0
LINE
  8
0
 10
-11.2106
 20
1048.37
 11
-11.0929
 21
1047.76
  0
LINE
  8
0
 10
-11.0929
 20
1047.76
 11
-10.8989
 21
1047.16
  0
LINE
  8
0
 10
-10.8989
 20
1047.16
 11
-10.6315
 21
1046.59
  0
LINE
  8
0
 10
-10.6315
 20
1046.59
 11
-10.2951
 21
1046.06
  0
LINE
  8
0
 10
-10.2951
 20
1046.06
 11
-9.89484
 21
1045.58
  0
LINE
  8
0
 10
-9.89484
 20
1045.58
 11
-9.43712
 21
1045.15
  0
LINE
  8
0
 10
-9.43712
 20
1045.15
 11
-8.92912
 21
1044.78
  0
LINE
  8
0
 10
-8.92912
 20
1044.78
 11
-8.37889
 21
1044.48
  0
LINE
  8
0
 10
-8.37889
 20
1044.48
 11
-7.79507
 21
1044.24
  0
LINE
  8
0
 10
-7.79507
 20
1044.24
 11
-7.1869
 21
1044.09
  0
LINE
  8
0
 10
-7.1869
 20
1044.09
 11
-6.56395
 21
1044.01
  0
LINE
  8
0
 10
-6.56395
 20
1044.01
 11
6.56395
 21
1044.01
  0
LINE
  8
0
 10
6.56395
 20
1044.01
 11
7.1869
 21
1044.09
  0
LINE
  8
0
 10
-6.00116
 20
1045.51
 11
-6.49951
 21
1045.57
  0
LINE
  8
0
 10
-6.49951
 20
1045.57
 11
-6.98605
 21
1045.7
  0
LINE
  8
0
 10
-6.98605
 20
1045.7
 11
-7.45311
 21
1045.88
  0
LINE
  8
0
 10
-7.45311
 20
1045.88
 11
-7.8933
 21
1046.12
  0
LINE
  8
0
 10
-7.8933
 20
1046.12
 11
-8.29968
 21
1046.42
  0
LINE
  8
0
 10
-8.29968
 20
1046.42
 11
-8.66586
 21
1046.76
  0
LINE
  8
0
 10
-8.66586
 20
1046.76
 11
-8.98605
 21
1047.15
  0
LINE
  8
0
 10
-8.98605
 20
1047.15
 11
-9.25522
 21
1047.57
  0
LINE
  8
0
 10
-9.25522
 20
1047.57
 11
-9.4691
 21
1048.03
  0
LINE
  8
0
 10
-9.4691
 20
1048.03
 11
-9.62433
 21
1048.51
  0
LINE
  8
0
 10
-9.62433
 20
1048.51
 11
-9.71844
 21
1049
  0
LINE
  8
0
 10
-9.71844
 20
1049
 11
-9.75
 21
1049.5
  0
LINE
  8
0
 10
-9.75
 20
1049.5
 11
-9.75
 21
1218.5
  0
LINE
  8
0
 10
-9.75
 20
1218.5
 11
-9.71844
 21
1219
  0
LINE
  8
0
 10
-9.71844
 20
1219
 11
-9.62433
 21
1219.49
  0
LINE
  8
0
 10
-9.62433
 20
1219.49
 11
-9.4691
 21
1219.97
  0
LINE
  8
0
 10
-9.4691
 20
1219.97
 11
-9.25522
 21
1220.43
  0
LINE
  8
0
 10
-9.25522
 20
1220.43
 11
-8.98605
 21
1220.85
  0
LINE
  8
0
 10
-8.98605
 20
1220.85
 11
-8.66586
 21
1221.24
  0
LINE
  8
0
 10
-8.66586
 20
1221.24
 11
-8.29968
 21
1221.58
  0
LINE
  8
0
 10
-8.29968
 20
1221.58
 11
-7.8933
 21
1221.88
  0
LINE
  8
0
 10
-7.8933
 20
1221.88
 11
-7.45311
 21
1222.12
  0
LINE
  8
0
 10
-7.45311
 20
1222.12
 11
-6.98605
 21
1222.3
  0
LINE
  8
0
 10
-6.98605
 20
1222.3
 11
-6.49951
 21
1222.43
  0
LINE
  8
0
 10
-6.49951
 20
1222.43
 11
-6.00116
 21
1222.49
  0
LINE
  8
0
 10
-6.00116
 20
1222.49
 11
6.00116
 21
1222.49
  0
LINE
  8
0
 10
6.00116
 20
1222.49
 11
6.49951
 21
1222.43
  0
LINE
  8
0
 10
6.49951
 20
1222.43
 11
6.98605
 21
1222.3
  0
LINE
  8
0
 10
6.98605
 20
1222.3
 11
7.45311
 21
1222.12
  0
LINE
  8
0
 10
7.45311
 20
1222.12
 11
7.8933
 21
1221.88
  0
LINE
  8
0
 10
7.8933
 20
1221.88
 11
8.29968
 21
1221.58
  0
LINE
  8
0
 10
8.29968
 20
1221.58
 11
8.66586
 21
1221.24
  0
LINE
  8
0
 10
8.66586
 20
1221.24
 11
8.98605
 21
1220.85
  0
LINE
  8
0
 10
8.98605
 20
1220.85
 11
9.25522
 21
1220.43
  0
LINE
  8
0
 10
9.25522
 20
1220.43
 11
9.4691
 21
1219.97
  0
LINE
  8
0
 10
9.4691
 20
1219.97
 11
9.62433
 21
1219.49
  0
LINE
  8
0
 10
9.62433
 20
1219.49
 11
9.71844
 21
1219
  0
LINE
  8
0
 10
9.71844
 20
1219
 11
9.75
 21
1218.5
  0
LINE
  8
0
 10
9.75
 20
1218.5
 11
9.75
 21
1049.5
  0
LINE
  8
0
 10
9.75
 20
1049.5
 11
9.71844
 21
1049
  0
LINE
  8
0
 10
9.71844
 20
1049
 11
9.62433
 21
1048.51
  0
LINE
  8
0
 10
9.62433
 20
1048.51
 11
9.4691
 21
1048.03
  0
LINE
  8
0
 10
9.4691
 20
1048.03
 11
9.25522
 21
1047.57
  0
LINE
  8
0
 10
9.25522
 20
1047.57
 11
8.98605
 21
1047.15
  0
LINE
  8
0
 10
8.98605
 20
1047.15
 11
8.66586
 21
1046.76
  0
LINE
  8
0
 10
8.66586
 20
1046.76
 11
8.29968
 21
1046.42
  0
LINE
  8
0
 10
8.29968
 20
1046.42
 11
7.8933
 21
1046.12
  0
LINE
  8
0
 10
7.8933
 20
1046.12
 11
7.45311
 21
1045.88
  0
LINE
  8
0
 10
7.45311
 20
1045.88
 11
6.98605
 21
1045.7
  0
LINE
  8
0
 10
6.98605
 20
1045.7
 11
6.49951
 21
1045.57
  0
LINE
  8
0
 10
6.49951
 20
1045.57
 11
6.00116
 21
1045.51
  0
LINE
  8
0
 10
6.00116
 20
1045.51
 11
-6.00116
 21
1045.51
  0
LINE
  8
0
 10
7.1869
 20
855.089
 11
7.79507
 21
855.245
  0
LINE
  8
0
 10
7.79507
 20
855.245
 11
8.37889
 21
855.476
  0
LINE
  8
0
 10
8.37889
 20
855.476
 11
8.92912
 21
855.778
  0
LINE
  8
0
 10
8.92912
 20
855.778
 11
9.43712
 21
856.147
  0
LINE
  8
0
 10
9.43712
 20
856.147
 11
9.89484
 21
856.577
  0
LINE
  8
0
 10
9.89484
 20
856.577
 11
10.2951
 21
857.061
  0
LINE
  8
0
 10
10.2951
 20
857.061
 11
10.6315
 21
857.591
  0
LINE
  8
0
 10
10.6315
 20
857.591
 11
10.8989
 21
858.159
  0
LINE
  8
0
 10
10.8989
 20
858.159
 11
11.0929
 21
858.757
  0
LINE
  8
0
 10
11.0929
 20
858.757
 11
11.2106
 21
859.373
  0
LINE
  8
0
 10
11.2106
 20
859.373
 11
11.25
 21
860
  0
LINE
  8
0
 10
11.25
 20
860
 11
11.25
 21
1030
  0
LINE
  8
0
 10
11.25
 20
1030
 11
11.2106
 21
1030.63
  0
LINE
  8
0
 10
11.2106
 20
1030.63
 11
11.0929
 21
1031.24
  0
LINE
  8
0
 10
11.0929
 20
1031.24
 11
10.8989
 21
1031.84
  0
LINE
  8
0
 10
10.8989
 20
1031.84
 11
10.6315
 21
1032.41
  0
LINE
  8
0
 10
10.6315
 20
1032.41
 11
10.2951
 21
1032.94
  0
LINE
  8
0
 10
10.2951
 20
1032.94
 11
9.89484
 21
1033.42
  0
LINE
  8
0
 10
9.89484
 20
1033.42
 11
9.43712
 21
1033.85
  0
LINE
  8
0
 10
9.43712
 20
1033.85
 11
8.92912
 21
1034.22
  0
LINE
  8
0
 10
8.92912
 20
1034.22
 11
8.37889
 21
1034.52
  0
LINE
  8
0
 10
8.37889
 20
1034.52
 11
7.79507
 21
1034.76
  0
LINE
  8
0
 10
7.79507
 20
1034.76
 11
7.1869
 21
1034.91
  0
LINE
  8
0
 10
7.1869
 20
1034.91
 11
6.56395
 21
1034.99
  0
LINE
  8
0
 10
6.56395
 20
1034.99
 11
-6.56395
 21
1034.99
  0
LINE
  8
0
 10
-6.56395
 20
1034.99
 11
-7.1869
 21
1034.91
  0
LINE
  8
0
 10
-7.1869
 20
1034.91
 11
-7.79507
 21
1034.76
  0
LINE
  8
0
 10
-7.79507
 20
1034.76
 11
-8.37889
 21
1034.52
  0
LINE
  8
0
 10
-8.37889
 20
1034.52
 11
-8.92912
 21
1034.22
  0
LINE
  8
0
 10
-8.92912
 20
1034.22
 11
-9.43712
 21
1033.85
  0
LINE
  8
0
 10
-9.43712
 20
1033.85
 11
-9.89484
 21
1033.42
  0
LINE
  8
0
 10
-9.89484
 20
1033.42
 11
-10.2951
 21
1032.94
  0
LINE
  8
0
 10
-10.2951
 20
1032.94
 11
-10.6315
 21
1032.41
  0
LINE
  8
0
 10
-10.6315
 20
1032.41
 11
-10.8989
 21
1031.84
  0
LINE
  8
0
 10
-10.8989
 20
1031.84
 11
-11.0929
 21
1031.24
  0
LINE
  8
0
 10
-11.0929
 20
1031.24
 11
-11.2106
 21
1030.63
  0
LINE
  8
0
 10
-11.2106
 20
1030.63
 11
-11.25
 21
1030
  0
LINE
  8
0
 10
-11.25
 20
1030
 11
-11.25
 21
860
  0
LINE
  8
0
 10
-11.25
 20
860
 11
-11.2106
 21
859.373
  0
LINE
  8
0
 10
-11.2106
 20
859.373
 11
-11.0929
 21
858.757
  0
LINE
  8
0
 10
-11.0929
 20
858.757
 11
-10.8989
 21
858.159
  0
LINE
  8
0
 10
-10.8989
 20
858.159
 11
-10.6315
 21
857.591
  0
LINE
  8
0
 10
-10.6315
 20
857.591
 11
-10.2951
 21
857.061
  0
LINE
  8
0
 10
-10.2951
 20
857.061
 11
-9.89484
 21
856.577
  0
LINE
  8
0
 10
-9.89484
 20
856.577
 11
-9.43712
 21
856.147
  0
LINE
  8
0
 10
-9.43712
 20
856.147
 11
-8.92912
 21
855.778
  0
LINE
  8
0
 10
-8.92912
 20
855.778
 11
-8.37889
 21
855.476
  0
LINE
  8
0
 10
-8.37889
 20
855.476
 11
-7.79507
 21
855.245
  0
LINE
  8
0
 10
-7.79507
 20
855.245
 11
-7.1869
 21
855.089
  0
LINE
  8
0
 10
-7.1869
 20
855.089
 11
-6.56395
 21
855.01
  0
LINE
  8
0
 10
-6.56395
 20
855.01
 11
6.56395
 21
855.01
  0
LINE
  8
0
 10
6.56395
 20
855.01
 11
7.1869
 21
855.089
  0
LINE
  8
0
 10
-5.99316
 20
856.635
 11
-6.47565
 21
856.696
  0
LINE
  8
0
 10
-6.47565
 20
856.696
 11
-6.9467
 21
856.817
  0
LINE
  8
0
 10
-6.9467
 20
856.817
 11
-7.39888
 21
856.996
  0
LINE
  8
0
 10
-7.39888
 20
856.996
 11
-7.82506
 21
857.23
  0
LINE
  8
0
 10
-7.82506
 20
857.23
 11
-8.21851
 21
857.516
  0
LINE
  8
0
 10
-8.21851
 20
857.516
 11
-8.57301
 21
857.849
  0
LINE
  8
0
 10
-8.57301
 20
857.849
 11
-8.88301
 21
858.224
  0
LINE
  8
0
 10
-8.88301
 20
858.224
 11
-9.1436
 21
858.634
  0
LINE
  8
0
 10
-9.1436
 20
858.634
 11
-9.35068
 21
859.074
  0
LINE
  8
0
 10
-9.35068
 20
859.074
 11
-9.50096
 21
859.537
  0
LINE
  8
0
 10
-9.50096
 20
859.537
 11
-9.59209
 21
860.015
  0
LINE
  8
0
 10
-9.59209
 20
860.015
 11
-9.62262
 21
860.5
  0
LINE
  8
0
 10
-9.62262
 20
860.5
 11
-9.62262
 21
1029.5
  0
LINE
  8
0
 10
-9.62262
 20
1029.5
 11
-9.59209
 21
1029.99
  0
LINE
  8
0
 10
-9.59209
 20
1029.99
 11
-9.50096
 21
1030.46
  0
LINE
  8
0
 10
-9.50096
 20
1030.46
 11
-9.35068
 21
1030.93
  0
LINE
  8
0
 10
-9.35068
 20
1030.93
 11
-9.1436
 21
1031.37
  0
LINE
  8
0
 10
-9.1436
 20
1031.37
 11
-8.88301
 21
1031.78
  0
LINE
  8
0
 10
-8.88301
 20
1031.78
 11
-8.57301
 21
1032.15
  0
LINE
  8
0
 10
-8.57301
 20
1032.15
 11
-8.21851
 21
1032.48
  0
LINE
  8
0
 10
-8.21851
 20
1032.48
 11
-7.82506
 21
1032.77
  0
LINE
  8
0
 10
-7.82506
 20
1032.77
 11
-7.39888
 21
1033
  0
LINE
  8
0
 10
-7.39888
 20
1033
 11
-6.9467
 21
1033.18
  0
LINE
  8
0
 10
-6.9467
 20
1033.18
 11
-6.47565
 21
1033.3
  0
LINE
  8
0
 10
-6.47565
 20
1033.3
 11
-5.99316
 21
1033.36
  0
LINE
  8
0
 10
-5.99316
 20
1033.36
 11
5.99316
 21
1033.36
  0
LINE
  8
0
 10
5.99316
 20
1033.36
 11
6.47565
 21
1033.3
  0
LINE
  8
0
 10
6.47565
 20
1033.3
 11
6.9467
 21
1033.18
  0
LINE
  8
0
 10
6.9467
 20
1033.18
 11
7.39888
 21
1033
  0
LINE
  8
0
 10
7.39888
 20
1033
 11
7.82506
 21
1032.77
  0
LINE
  8
0
 10
7.82506
 20
1032.77
 11
8.21851
 21
1032.48
  0
LINE
  8
0
 10
8.21851
 20
1032.48
 11
8.57301
 21
1032.15
  0
LINE
  8
0
 10
8.57301
 20
1032.15
 11
8.88301
 21
1031.78
  0
LINE
  8
0
 10
8.88301
 20
1031.78
 11
9.1436
 21
1031.37
  0
LINE
  8
0
 10
9.1436
 20
1031.37
 11
9.35068
 21
1030.93
  0
LINE
  8
0
 10
9.35068
 20
1030.93
 11
9.50096
 21
1030.46
  0
LINE
  8
0
 10
9.50096
 20
1030.46
 11
9.59209
 21
1029.99
  0
LINE
  8
0
 10
9.59209
 20
1029.99
 11
9.62262
 21
1029.5
  0
LINE
  8
0
 10
9.62262
 20
1029.5
 11
9.62262
 21
860.5
  0
LINE
  8
0
 10
9.62262
 20
860.5
 11
9.59209
 21
860.015
  0
LINE
  8
0
 10
9.59209
 20
860.015
 11
9.50096
 21
859.537
  0
LINE
  8
0
 10
9.50096
 20
859.537
 11
9.35068
 21
859.074
  0
LINE
  8
0
 10
9.35068
 20
859.074
 11
9.1436
 21
858.634
  0
LINE
  8
0
 10
9.1436
 20
858.634
 11
8.88301
 21
858.224
  0
LINE
  8
0
 10
8.88301
 20
858.224
 11
8.57301
 21
857.849
  0
LINE
  8
0
 10
8.57301
 20
857.849
 11
8.21851
 21
857.516
  0
LINE
  8
0
 10
8.21851
 20
857.516
 11
7.82506
 21
857.23
  0
LINE
  8
0
 10
7.82506
 20
857.23
 11
7.39888
 21
856.996
  0
LINE
  8
0
 10
7.39888
 20
856.996
 11
6.9467
 21
856.817
  0
LINE
  8
0
 10
6.9467
 20
856.817
 11
6.47565
 21
856.696
  0
LINE
  8
0
 10
6.47565
 20
856.696
 11
5.99316
 21
856.635
  0
LINE
  8
0
 10
5.99316
 20
856.635
 11
-5.99316
 21
856.635
  0
LINE
  8
0
 10
7.1869
 20
666.089
 11
7.79507
 21
666.245
  0
LINE
  8
0
 10
7.79507
 20
666.245
 11
8.37889
 21
666.476
  0
LINE
  8
0
 10
8.37889
 20
666.476
 11
8.92912
 21
666.778
  0
LINE
  8
0
 10
8.92912
 20
666.778
 11
9.43712
 21
667.147
  0
LINE
  8
0
 10
9.43712
 20
667.147
 11
9.89484
 21
667.577
  0
LINE
  8
0
 10
9.89484
 20
667.577
 11
10.2951
 21
668.061
  0
LINE
  8
0
 10
10.2951
 20
668.061
 11
10.6315
 21
668.591
  0
LINE
  8
0
 10
10.6315
 20
668.591
 11
10.8989
 21
669.159
  0
LINE
  8
0
 10
10.8989
 20
669.159
 11
11.0929
 21
669.757
  0
LINE
  8
0
 10
11.0929
 20
669.757
 11
11.2106
 21
670.373
  0
LINE
  8
0
 10
11.2106
 20
670.373
 11
11.25
 21
671
  0
LINE
  8
0
 10
11.25
 20
671
 11
11.25
 21
841
  0
LINE
  8
0
 10
11.25
 20
841
 11
11.2106
 21
841.627
  0
LINE
  8
0
 10
11.2106
 20
841.627
 11
11.0929
 21
842.243
  0
LINE
  8
0
 10
11.0929
 20
842.243
 11
10.8989
 21
842.841
  0
LINE
  8
0
 10
10.8989
 20
842.841
 11
10.6315
 21
843.409
  0
LINE
  8
0
 10
10.6315
 20
843.409
 11
10.2951
 21
843.939
  0
LINE
  8
0
 10
10.2951
 20
843.939
 11
9.89484
 21
844.423
  0
LINE
  8
0
 10
9.89484
 20
844.423
 11
9.43712
 21
844.853
  0
LINE
  8
0
 10
9.43712
 20
844.853
 11
8.92912
 21
845.222
  0
LINE
  8
0
 10
8.92912
 20
845.222
 11
8.37889
 21
845.524
  0
LINE
  8
0
 10
8.37889
 20
845.524
 11
7.79507
 21
845.755
  0
LINE
  8
0
 10
7.79507
 20
845.755
 11
7.1869
 21
845.911
  0
LINE
  8
0
 10
7.1869
 20
845.911
 11
6.56395
 21
845.99
  0
LINE
  8
0
 10
6.56395
 20
845.99
 11
-6.56395
 21
845.99
  0
LINE
  8
0
 10
-6.56395
 20
845.99
 11
-7.1869
 21
845.911
  0
LINE
  8
0
 10
-7.1869
 20
845.911
 11
-7.79507
 21
845.755
  0
LINE
  8
0
 10
-7.79507
 20
845.755
 11
-8.37889
 21
845.524
  0
LINE
  8
0
 10
-8.37889
 20
845.524
 11
-8.92912
 21
845.222
  0
LINE
  8
0
 10
-8.92912
 20
845.222
 11
-9.43712
 21
844.853
  0
LINE
  8
0
 10
-9.43712
 20
844.853
 11
-9.89484
 21
844.423
  0
LINE
  8
0
 10
-9.89484
 20
844.423
 11
-10.2951
 21
843.939
  0
LINE
  8
0
 10
-10.2951
 20
843.939
 11
-10.6315
 21
843.409
  0
LINE
  8
0
 10
-10.6315
 20
843.409
 11
-10.8989
 21
842.841
  0
LINE
  8
0
 10
-10.8989
 20
842.841
 11
-11.0929
 21
842.243
  0
LINE
  8
0
 10
-11.0929
 20
842.243
 11
-11.2106
 21
841.627
  0
LINE
  8
0
 10
-11.2106
 20
841.627
 11
-11.25
 21
841
  0
LINE
  8
0
 10
-11.25
 20
841
 11
-11.25
 21
671
  0
LINE
  8
0
 10
-11.25
 20
671
 11
-11.2106
 21
670.373
  0
LINE
  8
0
 10
-11.2106
 20
670.373
 11
-11.0929
 21
669.757
  0
LINE
  8
0
 10
-11.0929
 20
669.757
 11
-10.8989
 21
669.159
  0
LINE
  8
0
 10
-10.8989
 20
669.159
 11
-10.6315
 21
668.591
  0
LINE
  8
0
 10
-10.6315
 20
668.591
 11
-10.2951
 21
668.061
  0
LINE
  8
0
 10
-10.2951
 20
668.061
 11
-9.89484
 21
667.577
  0
LINE
  8
0
 10
-9.89484
 20
667.577
 11
-9.43712
 21
667.147
  0
LINE
  8
0
 10
-9.43712
 20
667.147
 11
-8.92912
 21
666.778
  0
LINE
  8
0
 10
-8.92912
 20
666.778
 11
-8.37889
 21
666.476
  0
LINE
  8
0
 10
-8.37889
 20
666.476
 11
-7.79507
 21
666.245
  0
LINE
  8
0
 10
-7.79507
 20
666.245
 11
-7.1869
 21
666.089
  0
LINE
  8
0
 10
-7.1869
 20
666.089
 11
-6.56395
 21
666.01
  0
LINE
  8
0
 10
-6.56395
 20
666.01
 11
6.56395
 21
666.01
  0
LINE
  8
0
 10
6.56395
 20
666.01
 11
7.1869
 21
666.089
  0
LINE
  8
0
 10
3.59929
 20
836.105
 11
3.30028
 21
836.143
  0
LINE
  8
0
 10
3.30028
 20
836.143
 11
3.00835
 21
836.217
  0
LINE
  8
0
 10
3.00835
 20
836.217
 11
2.72812
 21
836.328
  0
LINE
  8
0
 10
2.72812
 20
836.328
 11
2.464
 21
836.474
  0
LINE
  8
0
 10
2.464
 20
836.474
 11
2.22017
 21
836.651
  0
LINE
  8
0
 10
2.22017
 20
836.651
 11
2.00047
 21
836.857
  0
LINE
  8
0
 10
2.00047
 20
836.857
 11
1.80835
 21
837.089
  0
LINE
  8
0
 10
1.80835
 20
837.089
 11
1.64685
 21
837.344
  0
LINE
  8
0
 10
1.64685
 20
837.344
 11
1.51852
 21
837.617
  0
LINE
  8
0
 10
1.51852
 20
837.617
 11
1.4254
 21
837.903
  0
LINE
  8
0
 10
1.4254
 20
837.903
 11
1.36891
 21
838.199
  0
LINE
  8
0
 10
1.36891
 20
838.199
 11
1.34999
 21
838.5
  0
LINE
  8
0
 10
1.34999
 20
838.5
 11
1.36891
 21
838.801
  0
LINE
  8
0
 10
1.36891
 20
838.801
 11
1.4254
 21
839.097
  0
LINE
  8
0
 10
1.4254
 20
839.097
 11
1.51852
 21
839.383
  0
LINE
  8
0
 10
1.51852
 20
839.383
 11
1.64685
 21
839.656
  0
LINE
  8
0
 10
1.64685
 20
839.656
 11
1.80835
 21
839.911
  0
LINE
  8
0
 10
1.80835
 20
839.911
 11
2.00047
 21
840.143
  0
LINE
  8
0
 10
2.00047
 20
840.143
 11
2.22017
 21
840.349
  0
LINE
  8
0
 10
2.22017
 20
840.349
 11
2.464
 21
840.526
  0
LINE
  8
0
 10
2.464
 20
840.526
 11
2.72812
 21
840.672
  0
LINE
  8
0
 10
2.72812
 20
840.672
 11
3.00835
 21
840.783
  0
LINE
  8
0
 10
3.00835
 20
840.783
 11
3.30028
 21
840.857
  0
LINE
  8
0
 10
3.30028
 20
840.857
 11
3.59929
 21
840.895
  0
LINE
  8
0
 10
3.59929
 20
840.895
 11
3.9007
 21
840.895
  0
LINE
  8
0
 10
3.9007
 20
840.895
 11
4.19971
 21
840.857
  0
LINE
  8
0
 10
4.19971
 20
840.857
 11
4.49164
 21
840.783
  0
LINE
  8
0
 10
4.49164
 20
840.783
 11
4.77187
 21
840.672
  0
LINE
  8
0
 10
4.77187
 20
840.672
 11
5.03598
 21
840.526
  0
LINE
  8
0
 10
5.03598
 20
840.526
 11
5.27982
 21
840.349
  0
LINE
  8
0
 10
5.27982
 20
840.349
 11
5.49951
 21
840.143
  0
LINE
  8
0
 10
5.49951
 20
840.143
 11
5.69164
 21
839.911
  0
LINE
  8
0
 10
5.69164
 20
839.911
 11
5.85313
 21
839.656
  0
LINE
  8
0
 10
5.85313
 20
839.656
 11
5.98146
 21
839.383
  0
LINE
  8
0
 10
5.98146
 20
839.383
 11
6.07458
 21
839.097
  0
LINE
  8
0
 10
6.07458
 20
839.097
 11
6.13107
 21
838.801
  0
LINE
  8
0
 10
6.13107
 20
838.801
 11
6.14999
 21
838.5
  0
LINE
  8
0
 10
6.14999
 20
838.5
 11
6.13107
 21
838.199
  0
LINE
  8
0
 10
6.13107
 20
838.199
 11
6.07458
 21
837.903
  0
LINE
  8
0
 10
6.07458
 20
837.903
 11
5.98146
 21
837.617
  0
LINE
  8
0
 10
5.98146
 20
837.617
 11
5.85313
 21
837.344
  0
LINE
  8
0
 10
5.85313
 20
837.344
 11
5.69164
 21
837.089
  0
LINE
  8
0
 10
5.69164
 20
837.089
 11
5.49951
 21
836.857
  0
LINE
  8
0
 10
5.49951
 20
836.857
 11
5.27982
 21
836.651
  0
LINE
  8
0
 10
5.27982
 20
836.651
 11
5.03598
 21
836.474
  0
LINE
  8
0
 10
5.03598
 20
836.474
 11
4.77187
 21
836.328
  0
LINE
  8
0
 10
4.77187
 20
836.328
 11
4.49164
 21
836.217
  0
LINE
  8
0
 10
4.49164
 20
836.217
 11
4.19971
 21
836.143
  0
LINE
  8
0
 10
4.19971
 20
836.143
 11
3.9007
 21
836.105
  0
LINE
  8
0
 10
3.9007
 20
836.105
 11
3.59929
 21
836.105
  0
LINE
  8
0
 10
-3.9007
 20
836.105
 11
-4.19971
 21
836.143
  0
LINE
  8
0
 10
-4.19971
 20
836.143
 11
-4.49164
 21
836.217
  0
LINE
  8
0
 10
-4.49164
 20
836.217
 11
-4.77187
 21
836.328
  0
LINE
  8
0
 10
-4.77187
 20
836.328
 11
-5.03598
 21
836.474
  0
LINE
  8
0
 10
-5.03598
 20
836.474
 11
-5.27982
 21
836.651
  0
LINE
  8
0
 10
-5.27982
 20
836.651
 11
-5.49951
 21
836.857
  0
LINE
  8
0
 10
-5.49951
 20
836.857
 11
-5.69164
 21
837.089
  0
LINE
  8
0
 10
-5.69164
 20
837.089
 11
-5.85313
 21
837.344
  0
LINE
  8
0
 10
-5.85313
 20
837.344
 11
-5.98146
 21
837.617
  0
LINE
  8
0
 10
-5.98146
 20
837.617
 11
-6.07458
 21
837.903
  0
LINE
  8
0
 10
-6.07458
 20
837.903
 11
-6.13107
 21
838.199
  0
LINE
  8
0
 10
-6.13107
 20
838.199
 11
-6.14999
 21
838.5
  0
LINE
  8
0
 10
-6.14999
 20
838.5
 11
-6.13107
 21
838.801
  0
LINE
  8
0
 10
-6.13107
 20
838.801
 11
-6.07458
 21
839.097
  0
LINE
  8
0
 10
-6.07458
 20
839.097
 11
-5.98146
 21
839.383
  0
LINE
  8
0
 10
-5.98146
 20
839.383
 11
-5.85313
 21
839.656
  0
LINE
  8
0
 10
-5.85313
 20
839.656
 11
-5.69164
 21
839.911
  0
LINE
  8
0
 10
-5.69164
 20
839.911
 11
-5.49951
 21
840.143
  0
LINE
  8
0
 10
-5.49951
 20
840.143
 11
-5.27982
 21
840.349
  0
LINE
  8
0
 10
-5.27982
 20
840.349
 11
-5.03598
 21
840.526
  0
LINE
  8
0
 10
-5.03598
 20
840.526
 11
-4.77187
 21
840.672
  0
LINE
  8
0
 10
-4.77187
 20
840.672
 11
-4.49164
 21
840.783
  0
LINE
  8
0
 10
-4.49164
 20
840.783
 11
-4.19971
 21
840.857
  0
LINE
  8
0
 10
-4.19971
 20
840.857
 11
-3.9007
 21
840.895
  0
LINE
  8
0
 10
-3.9007
 20
840.895
 11
-3.59929
 21
840.895
  0
LINE
  8
0
 10
-3.59929
 20
840.895
 11
-3.30028
 21
840.857
  0
LINE
  8
0
 10
-3.30028
 20
840.857
 11
-3.00835
 21
840.783
  0
LINE
  8
0
 10
-3.00835
 20
840.783
 11
-2.72812
 21
840.672
  0
LINE
  8
0
 10
-2.72812
 20
840.672
 11
-2.464
 21
840.526
  0
LINE
  8
0
 10
-2.464
 20
840.526
 11
-2.22017
 21
840.349
  0
LINE
  8
0
 10
-2.22017
 20
840.349
 11
-2.00047
 21
840.143
  0
LINE
  8
0
 10
-2.00047
 20
840.143
 11
-1.80835
 21
839.911
  0
LINE
  8
0
 10
-1.80835
 20
839.911
 11
-1.64685
 21
839.656
  0
LINE
  8
0
 10
-1.64685
 20
839.656
 11
-1.51852
 21
839.383
  0
LINE
  8
0
 10
-1.51852
 20
839.383
 11
-1.4254
 21
839.097
  0
LINE
  8
0
 10
-1.4254
 20
839.097
 11
-1.36891
 21
838.801
  0
LINE
  8
0
 10
-1.36891
 20
838.801
 11
-1.34999
 21
838.5
  0
LINE
  8
0
 10
-1.34999
 20
838.5
 11
-1.36891
 21
838.199
  0
LINE
  8
0
 10
-1.36891
 20
838.199
 11
-1.4254
 21
837.903
  0
LINE
  8
0
 10
-1.4254
 20
837.903
 11
-1.51852
 21
837.617
  0
LINE
  8
0
 10
-1.51852
 20
837.617
 11
-1.64685
 21
837.344
  0
LINE
  8
0
 10
-1.64685
 20
837.344
 11
-1.80835
 21
837.089
  0
LINE
  8
0
 10
-1.80835
 20
837.089
 11
-2.00047
 21
836.857
  0
LINE
  8
0
 10
-2.00047
 20
836.857
 11
-2.22017
 21
836.651
  0
LINE
  8
0
 10
-2.22017
 20
836.651
 11
-2.464
 21
836.474
  0
LINE
  8
0
 10
-2.464
 20
836.474
 11
-2.72812
 21
836.328
  0
LINE
  8
0
 10
-2.72812
 20
836.328
 11
-3.00835
 21
836.217
  0
LINE
  8
0
 10
-3.00835
 20
836.217
 11
-3.30028
 21
836.143
  0
LINE
  8
0
 10
-3.30028
 20
836.143
 11
-3.59929
 21
836.105
  0
LINE
  8
0
 10
-3.59929
 20
836.105
 11
-3.9007
 21
836.105
  0
LINE
  8
0
 10
3.59929
 20
671.105
 11
3.30028
 21
671.143
  0
LINE
  8
0
 10
3.30028
 20
671.143
 11
3.00835
 21
671.217
  0
LINE
  8
0
 10
3.00835
 20
671.217
 11
2.72812
 21
671.328
  0
LINE
  8
0
 10
2.72812
 20
671.328
 11
2.464
 21
671.474
  0
LINE
  8
0
 10
2.464
 20
671.474
 11
2.22017
 21
671.651
  0
LINE
  8
0
 10
2.22017
 20
671.651
 11
2.00047
 21
671.857
  0
LINE
  8
0
 10
2.00047
 20
671.857
 11
1.80835
 21
672.089
  0
LINE
  8
0
 10
1.80835
 20
672.089
 11
1.64685
 21
672.344
  0
LINE
  8
0
 10
1.64685
 20
672.344
 11
1.51852
 21
672.617
  0
LINE
  8
0
 10
1.51852
 20
672.617
 11
1.4254
 21
672.903
  0
LINE
  8
0
 10
1.4254
 20
672.903
 11
1.36891
 21
673.199
  0
LINE
  8
0
 10
1.36891
 20
673.199
 11
1.34999
 21
673.5
  0
LINE
  8
0
 10
1.34999
 20
673.5
 11
1.36891
 21
673.801
  0
LINE
  8
0
 10
1.36891
 20
673.801
 11
1.4254
 21
674.097
  0
LINE
  8
0
 10
1.4254
 20
674.097
 11
1.51852
 21
674.383
  0
LINE
  8
0
 10
1.51852
 20
674.383
 11
1.64685
 21
674.656
  0
LINE
  8
0
 10
1.64685
 20
674.656
 11
1.80835
 21
674.911
  0
LINE
  8
0
 10
1.80835
 20
674.911
 11
2.00047
 21
675.143
  0
LINE
  8
0
 10
2.00047
 20
675.143
 11
2.22017
 21
675.349
  0
LINE
  8
0
 10
2.22017
 20
675.349
 11
2.464
 21
675.526
  0
LINE
  8
0
 10
2.464
 20
675.526
 11
2.72812
 21
675.672
  0
LINE
  8
0
 10
2.72812
 20
675.672
 11
3.00835
 21
675.783
  0
LINE
  8
0
 10
3.00835
 20
675.783
 11
3.30028
 21
675.857
  0
LINE
  8
0
 10
3.30028
 20
675.857
 11
3.59929
 21
675.895
  0
LINE
  8
0
 10
3.59929
 20
675.895
 11
3.9007
 21
675.895
  0
LINE
  8
0
 10
3.9007
 20
675.895
 11
4.19971
 21
675.857
  0
LINE
  8
0
 10
4.19971
 20
675.857
 11
4.49164
 21
675.783
  0
LINE
  8
0
 10
4.49164
 20
675.783
 11
4.77187
 21
675.672
  0
LINE
  8
0
 10
4.77187
 20
675.672
 11
5.03598
 21
675.526
  0
LINE
  8
0
 10
5.03598
 20
675.526
 11
5.27982
 21
675.349
  0
LINE
  8
0
 10
5.27982
 20
675.349
 11
5.49951
 21
675.143
  0
LINE
  8
0
 10
5.49951
 20
675.143
 11
5.69164
 21
674.911
  0
LINE
  8
0
 10
5.69164
 20
674.911
 11
5.85313
 21
674.656
  0
LINE
  8
0
 10
5.85313
 20
674.656
 11
5.98146
 21
674.383
  0
LINE
  8
0
 10
5.98146
 20
674.383
 11
6.07458
 21
674.097
  0
LINE
  8
0
 10
6.07458
 20
674.097
 11
6.13107
 21
673.801
  0
LINE
  8
0
 10
6.13107
 20
673.801
 11
6.14999
 21
673.5
  0
LINE
  8
0
 10
6.14999
 20
673.5
 11
6.13107
 21
673.199
  0
LINE
  8
0
 10
6.13107
 20
673.199
 11
6.07458
 21
672.903
  0
LINE
  8
0
 10
6.07458
 20
672.903
 11
5.98146
 21
672.617
  0
LINE
  8
0
 10
5.98146
 20
672.617
 11
5.85313
 21
672.344
  0
LINE
  8
0
 10
5.85313
 20
672.344
 11
5.69164
 21
672.089
  0
LINE
  8
0
 10
5.69164
 20
672.089
 11
5.49951
 21
671.857
  0
LINE
  8
0
 10
5.49951
 20
671.857
 11
5.27982
 21
671.651
  0
LINE
  8
0
 10
5.27982
 20
671.651
 11
5.03598
 21
671.474
  0
LINE
  8
0
 10
5.03598
 20
671.474
 11
4.77187
 21
671.328
  0
LINE
  8
0
 10
4.77187
 20
671.328
 11
4.49164
 21
671.217
  0
LINE
  8
0
 10
4.49164
 20
671.217
 11
4.19971
 21
671.143
  0
LINE
  8
0
 10
4.19971
 20
671.143
 11
3.9007
 21
671.105
  0
LINE
  8
0
 10
3.9007
 20
671.105
 11
3.59929
 21
671.105
  0
LINE
  8
0
 10
-3.9007
 20
671.105
 11
-4.19971
 21
671.143
  0
LINE
  8
0
 10
-4.19971
 20
671.143
 11
-4.49164
 21
671.217
  0
LINE
  8
0
 10
-4.49164
 20
671.217
 11
-4.77187
 21
671.328
  0
LINE
  8
0
 10
-4.77187
 20
671.328
 11
-5.03598
 21
671.474
  0
LINE
  8
0
 10
-5.03598
 20
671.474
 11
-5.27982
 21
671.651
  0
LINE
  8
0
 10
-5.27982
 20
671.651
 11
-5.49951
 21
671.857
  0
LINE
  8
0
 10
-5.49951
 20
671.857
 11
-5.69164
 21
672.089
  0
LINE
  8
0
 10
-5.69164
 20
672.089
 11
-5.85313
 21
672.344
  0
LINE
  8
0
 10
-5.85313
 20
672.344
 11
-5.98146
 21
672.617
  0
LINE
  8
0
 10
-5.98146
 20
672.617
 11
-6.07458
 21
672.903
  0
LINE
  8
0
 10
-6.07458
 20
672.903
 11
-6.13107
 21
673.199
  0
LINE
  8
0
 10
-6.13107
 20
673.199
 11
-6.14999
 21
673.5
  0
LINE
  8
0
 10
-6.14999
 20
673.5
 11
-6.13107
 21
673.801
  0
LINE
  8
0
 10
-6.13107
 20
673.801
 11
-6.07458
 21
674.097
  0
LINE
  8
0
 10
-6.07458
 20
674.097
 11
-5.98146
 21
674.383
  0
LINE
  8
0
 10
-5.98146
 20
674.383
 11
-5.85313
 21
674.656
  0
LINE
  8
0
 10
-5.85313
 20
674.656
 11
-5.69164
 21
674.911
  0
LINE
  8
0
 10
-5.69164
 20
674.911
 11
-5.49951
 21
675.143
  0
LINE
  8
0
 10
-5.49951
 20
675.143
 11
-5.27982
 21
675.349
  0
LINE
  8
0
 10
-5.27982
 20
675.349
 11
-5.03598
 21
675.526
  0
LINE
  8
0
 10
-5.03598
 20
675.526
 11
-4.77187
 21
675.672
  0
LINE
  8
0
 10
-4.77187
 20
675.672
 11
-4.49164
 21
675.783
  0
LINE
  8
0
 10
-4.49164
 20
675.783
 11
-4.19971
 21
675.857
  0
LINE
  8
0
 10
-4.19971
 20
675.857
 11
-3.9007
 21
675.895
  0
LINE
  8
0
 10
-3.9007
 20
675.895
 11
-3.59929
 21
675.895
  0
LINE
  8
0
 10
-3.59929
 20
675.895
 11
-3.30028
 21
675.857
  0
LINE
  8
0
 10
-3.30028
 20
675.857
 11
-3.00835
 21
675.783
  0
LINE
  8
0
 10
-3.00835
 20
675.783
 11
-2.72812
 21
675.672
  0
LINE
  8
0
 10
-2.72812
 20
675.672
 11
-2.464
 21
675.526
  0
LINE
  8
0
 10
-2.464
 20
675.526
 11
-2.22017
 21
675.349
  0
LINE
  8
0
 10
-2.22017
 20
675.349
 11
-2.00047
 21
675.143
  0
LINE
  8
0
 10
-2.00047
 20
675.143
 11
-1.80835
 21
674.911
  0
LINE
  8
0
 10
-1.80835
 20
674.911
 11
-1.64685
 21
674.656
  0
LINE
  8
0
 10
-1.64685
 20
674.656
 11
-1.51852
 21
674.383
  0
LINE
  8
0
 10
-1.51852
 20
674.383
 11
-1.4254
 21
674.097
  0
LINE
  8
0
 10
-1.4254
 20
674.097
 11
-1.36891
 21
673.801
  0
LINE
  8
0
 10
-1.36891
 20
673.801
 11
-1.34999
 21
673.5
  0
LINE
  8
0
 10
-1.34999
 20
673.5
 11
-1.36891
 21
673.199
  0
LINE
  8
0
 10
-1.36891
 20
673.199
 11
-1.4254
 21
672.903
  0
LINE
  8
0
 10
-1.4254
 20
672.903
 11
-1.51852
 21
672.617
  0
LINE
  8
0
 10
-1.51852
 20
672.617
 11
-1.64685
 21
672.344
  0
LINE
  8
0
 10
-1.64685
 20
672.344
 11
-1.80835
 21
672.089
  0
LINE
  8
0
 10
-1.80835
 20
672.089
 11
-2.00047
 21
671.857
  0
LINE
  8
0
 10
-2.00047
 20
671.857
 11
-2.22017
 21
671.651
  0
LINE
  8
0
 10
-2.22017
 20
671.651
 11
-2.464
 21
671.474
  0
LINE
  8
0
 10
-2.464
 20
671.474
 11
-2.72812
 21
671.328
  0
LINE
  8
0
 10
-2.72812
 20
671.328
 11
-3.00835
 21
671.217
  0
LINE
  8
0
 10
-3.00835
 20
671.217
 11
-3.30028
 21
671.143
  0
LINE
  8
0
 10
-3.30028
 20
671.143
 11
-3.59929
 21
671.105
  0
LINE
  8
0
 10
-3.59929
 20
671.105
 11
-3.9007
 21
671.105
  0
LINE
  8
0
 10
7.1869
 20
477.089
 11
7.79507
 21
477.245
  0
LINE
  8
0
 10
7.79507
 20
477.245
 11
8.37889
 21
477.476
  0
LINE
  8
0
 10
8.37889
 20
477.476
 11
8.92912
 21
477.778
  0
LINE
  8
0
 10
8.92912
 20
477.778
 11
9.43712
 21
478.147
  0
LINE
  8
0
 10
9.43712
 20
478.147
 11
9.89484
 21
478.577
  0
LINE
  8
0
 10
9.89484
 20
478.577
 11
10.2951
 21
479.061
  0
LINE
  8
0
 10
10.2951
 20
479.061
 11
10.6315
 21
479.591
  0
LINE
  8
0
 10
10.6315
 20
479.591
 11
10.8989
 21
480.159
  0
LINE
  8
0
 10
10.8989
 20
480.159
 11
11.0929
 21
480.757
  0
LINE
  8
0
 10
11.0929
 20
480.757
 11
11.2106
 21
481.373
  0
LINE
  8
0
 10
11.2106
 20
481.373
 11
11.25
 21
482
  0
LINE
  8
0
 10
11.25
 20
482
 11
11.25
 21
652
  0
LINE
  8
0
 10
11.25
 20
652
 11
11.2106
 21
652.627
  0
LINE
  8
0
 10
11.2106
 20
652.627
 11
11.0929
 21
653.243
  0
LINE
  8
0
 10
11.0929
 20
653.243
 11
10.8989
 21
653.841
  0
LINE
  8
0
 10
10.8989
 20
653.841
 11
10.6315
 21
654.409
  0
LINE
  8
0
 10
10.6315
 20
654.409
 11
10.2951
 21
654.939
  0
LINE
  8
0
 10
10.2951
 20
654.939
 11
9.89484
 21
655.423
  0
LINE
  8
0
 10
9.89484
 20
655.423
 11
9.43712
 21
655.853
  0
LINE
  8
0
 10
9.43712
 20
655.853
 11
8.92912
 21
656.222
  0
LINE
  8
0
 10
8.92912
 20
656.222
 11
8.37889
 21
656.524
  0
LINE
  8
0
 10
8.37889
 20
656.524
 11
7.79507
 21
656.755
  0
LINE
  8
0
 10
7.79507
 20
656.755
 11
7.1869
 21
656.911
  0
LINE
  8
0
 10
7.1869
 20
656.911
 11
6.56395
 21
656.99
  0
LINE
  8
0
 10
6.56395
 20
656.99
 11
-6.56395
 21
656.99
  0
LINE
  8
0
 10
-6.56395
 20
656.99
 11
-7.1869
 21
656.911
  0
LINE
  8
0
 10
-7.1869
 20
656.911
 11
-7.79507
 21
656.755
  0
LINE
  8
0
 10
-7.79507
 20
656.755
 11
-8.37889
 21
656.524
  0
LINE
  8
0
 10
-8.37889
 20
656.524
 11
-8.92912
 21
656.222
  0
LINE
  8
0
 10
-8.92912
 20
656.222
 11
-9.43712
 21
655.853
  0
LINE
  8
0
 10
-9.43712
 20
655.853
 11
-9.89484
 21
655.423
  0
LINE
  8
0
 10
-9.89484
 20
655.423
 11
-10.2951
 21
654.939
  0
LINE
  8
0
 10
-10.2951
 20
654.939
 11
-10.6315
 21
654.409
  0
LINE
  8
0
 10
-10.6315
 20
654.409
 11
-10.8989
 21
653.841
  0
LINE
  8
0
 10
-10.8989
 20
653.841
 11
-11.0929
 21
653.243
  0
LINE
  8
0
 10
-11.0929
 20
653.243
 11
-11.2106
 21
652.627
  0
LINE
  8
0
 10
-11.2106
 20
652.627
 11
-11.25
 21
652
  0
LINE
  8
0
 10
-11.25
 20
652
 11
-11.25
 21
482
  0
LINE
  8
0
 10
-11.25
 20
482
 11
-11.2106
 21
481.373
  0
LINE
  8
0
 10
-11.2106
 20
481.373
 11
-11.0929
 21
480.757
  0
LINE
  8
0
 10
-11.0929
 20
480.757
 11
-10.8989
 21
480.159
  0
LINE
  8
0
 10
-10.8989
 20
480.159
 11
-10.6315
 21
479.591
  0
LINE
  8
0
 10
-10.6315
 20
479.591
 11
-10.2951
 21
479.061
  0
LINE
  8
0
 10
-10.2951
 20
479.061
 11
-9.89484
 21
478.577
  0
LINE
  8
0
 10
-9.89484
 20
478.577
 11
-9.43712
 21
478.147
  0
LINE
  8
0
 10
-9.43712
 20
478.147
 11
-8.92912
 21
477.778
  0
LINE
  8
0
 10
-8.92912
 20
477.778
 11
-8.37889
 21
477.476
  0
LINE
  8
0
 10
-8.37889
 20
477.476
 11
-7.79507
 21
477.245
  0
LINE
  8
0
 10
-7.79507
 20
477.245
 11
-7.1869
 21
477.089
  0
LINE
  8
0
 10
-7.1869
 20
477.089
 11
-6.56395
 21
477.01
  0
LINE
  8
0
 10
-6.56395
 20
477.01
 11
6.56395
 21
477.01
  0
LINE
  8
0
 10
6.56395
 20
477.01
 11
7.1869
 21
477.089
  0
LINE
  8
0
 10
3.63696
 20
647.704
 11
3.4127
 21
647.732
  0
LINE
  8
0
 10
3.4127
 20
647.732
 11
3.19376
 21
647.788
  0
LINE
  8
0
 10
3.19376
 20
647.788
 11
2.9836
 21
647.871
  0
LINE
  8
0
 10
2.9836
 20
647.871
 11
2.78551
 21
647.98
  0
LINE
  8
0
 10
2.78551
 20
647.98
 11
2.60263
 21
648.113
  0
LINE
  8
0
 10
2.60263
 20
648.113
 11
2.43785
 21
648.268
  0
LINE
  8
0
 10
2.43785
 20
648.268
 11
2.29376
 21
648.442
  0
LINE
  8
0
 10
2.29376
 20
648.442
 11
2.17264
 21
648.633
  0
LINE
  8
0
 10
2.17264
 20
648.633
 11
2.0764
 21
648.837
  0
LINE
  8
0
 10
2.0764
 20
648.837
 11
2.00655
 21
649.052
  0
LINE
  8
0
 10
2.00655
 20
649.052
 11
1.96419
 21
649.274
  0
LINE
  8
0
 10
1.96419
 20
649.274
 11
1.95
 21
649.5
  0
LINE
  8
0
 10
1.95
 20
649.5
 11
1.96419
 21
649.726
  0
LINE
  8
0
 10
1.96419
 20
649.726
 11
2.00655
 21
649.948
  0
LINE
  8
0
 10
2.00655
 20
649.948
 11
2.0764
 21
650.163
  0
LINE
  8
0
 10
2.0764
 20
650.163
 11
2.17264
 21
650.367
  0
LINE
  8
0
 10
2.17264
 20
650.367
 11
2.29376
 21
650.558
  0
LINE
  8
0
 10
2.29376
 20
650.558
 11
2.43785
 21
650.732
  0
LINE
  8
0
 10
2.43785
 20
650.732
 11
2.60263
 21
650.887
  0
LINE
  8
0
 10
2.60263
 20
650.887
 11
2.78551
 21
651.02
  0
LINE
  8
0
 10
2.78551
 20
651.02
 11
2.9836
 21
651.129
  0
LINE
  8
0
 10
2.9836
 20
651.129
 11
3.19376
 21
651.212
  0
LINE
  8
0
 10
3.19376
 20
651.212
 11
3.4127
 21
651.268
  0
LINE
  8
0
 10
3.4127
 20
651.268
 11
3.63696
 21
651.296
  0
LINE
  8
0
 10
3.63696
 20
651.296
 11
3.86302
 21
651.296
  0
LINE
  8
0
 10
3.86302
 20
651.296
 11
4.08728
 21
651.268
  0
LINE
  8
0
 10
4.08728
 20
651.268
 11
4.30623
 21
651.212
  0
LINE
  8
0
 10
4.30623
 20
651.212
 11
4.51639
 21
651.129
  0
LINE
  8
0
 10
4.51639
 20
651.129
 11
4.71448
 21
651.02
  0
LINE
  8
0
 10
4.71448
 20
651.02
 11
4.89735
 21
650.887
  0
LINE
  8
0
 10
4.89735
 20
650.887
 11
5.06213
 21
650.732
  0
LINE
  8
0
 10
5.06213
 20
650.732
 11
5.20622
 21
650.558
  0
LINE
  8
0
 10
5.20622
 20
650.558
 11
5.32735
 21
650.367
  0
LINE
  8
0
 10
5.32735
 20
650.367
 11
5.42358
 21
650.163
  0
LINE
  8
0
 10
5.42358
 20
650.163
 11
5.49344
 21
649.948
  0
LINE
  8
0
 10
5.49344
 20
649.948
 11
5.5358
 21
649.726
  0
LINE
  8
0
 10
5.5358
 20
649.726
 11
5.54999
 21
649.5
  0
LINE
  8
0
 10
5.54999
 20
649.5
 11
5.5358
 21
649.274
  0
LINE
  8
0
 10
5.5358
 20
649.274
 11
5.49344
 21
649.052
  0
LINE
  8
0
 10
5.49344
 20
649.052
 11
5.42358
 21
648.837
  0
LINE
  8
0
 10
5.42358
 20
648.837
 11
5.32735
 21
648.633
  0
LINE
  8
0
 10
5.32735
 20
648.633
 11
5.20622
 21
648.442
  0
LINE
  8
0
 10
5.20622
 20
648.442
 11
5.06213
 21
648.268
  0
LINE
  8
0
 10
5.06213
 20
648.268
 11
4.89735
 21
648.113
  0
LINE
  8
0
 10
4.89735
 20
648.113
 11
4.71448
 21
647.98
  0
LINE
  8
0
 10
4.71448
 20
647.98
 11
4.51639
 21
647.871
  0
LINE
  8
0
 10
4.51639
 20
647.871
 11
4.30623
 21
647.788
  0
LINE
  8
0
 10
4.30623
 20
647.788
 11
4.08728
 21
647.732
  0
LINE
  8
0
 10
4.08728
 20
647.732
 11
3.86302
 21
647.704
  0
LINE
  8
0
 10
3.86302
 20
647.704
 11
3.63696
 21
647.704
  0
LINE
  8
0
 10
-3.86302
 20
647.704
 11
-4.08728
 21
647.732
  0
LINE
  8
0
 10
-4.08728
 20
647.732
 11
-4.30623
 21
647.788
  0
LINE
  8
0
 10
-4.30623
 20
647.788
 11
-4.51639
 21
647.871
  0
LINE
  8
0
 10
-4.51639
 20
647.871
 11
-4.71448
 21
647.98
  0
LINE
  8
0
 10
-4.71448
 20
647.98
 11
-4.89735
 21
648.113
  0
LINE
  8
0
 10
-4.89735
 20
648.113
 11
-5.06213
 21
648.268
  0
LINE
  8
0
 10
-5.06213
 20
648.268
 11
-5.20622
 21
648.442
  0
LINE
  8
0
 10
-5.20622
 20
648.442
 11
-5.32735
 21
648.633
  0
LINE
  8
0
 10
-5.32735
 20
648.633
 11
-5.42358
 21
648.837
  0
LINE
  8
0
 10
-5.42358
 20
648.837
 11
-5.49344
 21
649.052
  0
LINE
  8
0
 10
-5.49344
 20
649.052
 11
-5.5358
 21
649.274
  0
LINE
  8
0
 10
-5.5358
 20
649.274
 11
-5.54999
 21
649.5
  0
LINE
  8
0
 10
-5.54999
 20
649.5
 11
-5.5358
 21
649.726
  0
LINE
  8
0
 10
-5.5358
 20
649.726
 11
-5.49344
 21
649.948
  0
LINE
  8
0
 10
-5.49344
 20
649.948
 11
-5.42358
 21
650.163
  0
LINE
  8
0
 10
-5.42358
 20
650.163
 11
-5.32735
 21
650.367
  0
LINE
  8
0
 10
-5.32735
 20
650.367
 11
-5.20622
 21
650.558
  0
LINE
  8
0
 10
-5.20622
 20
650.558
 11
-5.06213
 21
650.732
  0
LINE
  8
0
 10
-5.06213
 20
650.732
 11
-4.89735
 21
650.887
  0
LINE
  8
0
 10
-4.89735
 20
650.887
 11
-4.71448
 21
651.02
  0
LINE
  8
0
 10
-4.71448
 20
651.02
 11
-4.51639
 21
651.129
  0
LINE
  8
0
 10
-4.51639
 20
651.129
 11
-4.30623
 21
651.212
  0
LINE
  8
0
 10
-4.30623
 20
651.212
 11
-4.08728
 21
651.268
  0
LINE
  8
0
 10
-4.08728
 20
651.268
 11
-3.86302
 21
651.296
  0
LINE
  8
0
 10
-3.86302
 20
651.296
 11
-3.63696
 21
651.296
  0
LINE
  8
0
 10
-3.63696
 20
651.296
 11
-3.4127
 21
651.268
  0
LINE
  8
0
 10
-3.4127
 20
651.268
 11
-3.19376
 21
651.212
  0
LINE
  8
0
 10
-3.19376
 20
651.212
 11
-2.9836
 21
651.129
  0
LINE
  8
0
 10
-2.9836
 20
651.129
 11
-2.78551
 21
651.02
  0
LINE
  8
0
 10
-2.78551
 20
651.02
 11
-2.60263
 21
650.887
  0
LINE
  8
0
 10
-2.60263
 20
650.887
 11
-2.43785
 21
650.732
  0
LINE
  8
0
 10
-2.43785
 20
650.732
 11
-2.29376
 21
650.558
  0
LINE
  8
0
 10
-2.29376
 20
650.558
 11
-2.17264
 21
650.367
  0
LINE
  8
0
 10
-2.17264
 20
650.367
 11
-2.0764
 21
650.163
  0
LINE
  8
0
 10
-2.0764
 20
650.163
 11
-2.00655
 21
649.948
  0
LINE
  8
0
 10
-2.00655
 20
649.948
 11
-1.96419
 21
649.726
  0
LINE
  8
0
 10
-1.96419
 20
649.726
 11
-1.95
 21
649.5
  0
LINE
  8
0
 10
-1.95
 20
649.5
 11
-1.96419
 21
649.274
  0
LINE
  8
0
 10
-1.96419
 20
649.274
 11
-2.00655
 21
649.052
  0
LINE
  8
0
 10
-2.00655
 20
649.052
 11
-2.0764
 21
648.837
  0
LINE
  8
0
 10
-2.0764
 20
648.837
 11
-2.17264
 21
648.633
  0
LINE
  8
0
 10
-2.17264
 20
648.633
 11
-2.29376
 21
648.442
  0
LINE
  8
0
 10
-2.29376
 20
648.442
 11
-2.43785
 21
648.268
  0
LINE
  8
0
 10
-2.43785
 20
648.268
 11
-2.60263
 21
648.113
  0
LINE
  8
0
 10
-2.60263
 20
648.113
 11
-2.78551
 21
647.98
  0
LINE
  8
0
 10
-2.78551
 20
647.98
 11
-2.9836
 21
647.871
  0
LINE
  8
0
 10
-2.9836
 20
647.871
 11
-3.19376
 21
647.788
  0
LINE
  8
0
 10
-3.19376
 20
647.788
 11
-3.4127
 21
647.732
  0
LINE
  8
0
 10
-3.4127
 20
647.732
 11
-3.63696
 21
647.704
  0
LINE
  8
0
 10
-3.63696
 20
647.704
 11
-3.86302
 21
647.704
  0
LINE
  8
0
 10
-3.86302
 20
482.704
 11
-4.08728
 21
482.732
  0
LINE
  8
0
 10
-4.08728
 20
482.732
 11
-4.30623
 21
482.788
  0
LINE
  8
0
 10
-4.30623
 20
482.788
 11
-4.51639
 21
482.871
  0
LINE
  8
0
 10
-4.51639
 20
482.871
 11
-4.71448
 21
482.98
  0
LINE
  8
0
 10
-4.71448
 20
482.98
 11
-4.89735
 21
483.113
  0
LINE
  8
0
 10
-4.89735
 20
483.113
 11
-5.06213
 21
483.268
  0
LINE
  8
0
 10
-5.06213
 20
483.268
 11
-5.20622
 21
483.442
  0
LINE
  8
0
 10
-5.20622
 20
483.442
 11
-5.32735
 21
483.633
  0
LINE
  8
0
 10
-5.32735
 20
483.633
 11
-5.42358
 21
483.837
  0
LINE
  8
0
 10
-5.42358
 20
483.837
 11
-5.49344
 21
484.052
  0
LINE
  8
0
 10
-5.49344
 20
484.052
 11
-5.5358
 21
484.274
  0
LINE
  8
0
 10
-5.5358
 20
484.274
 11
-5.54999
 21
484.5
  0
LINE
  8
0
 10
-5.54999
 20
484.5
 11
-5.5358
 21
484.726
  0
LINE
  8
0
 10
-5.5358
 20
484.726
 11
-5.49344
 21
484.948
  0
LINE
  8
0
 10
-5.49344
 20
484.948
 11
-5.42358
 21
485.163
  0
LINE
  8
0
 10
-5.42358
 20
485.163
 11
-5.32735
 21
485.367
  0
LINE
  8
0
 10
-5.32735
 20
485.367
 11
-5.20622
 21
485.558
  0
LINE
  8
0
 10
-5.20622
 20
485.558
 11
-5.06213
 21
485.732
  0
LINE
  8
0
 10
-5.06213
 20
485.732
 11
-4.89735
 21
485.887
  0
LINE
  8
0
 10
-4.89735
 20
485.887
 11
-4.71448
 21
486.02
  0
LINE
  8
0
 10
-4.71448
 20
486.02
 11
-4.51639
 21
486.129
  0
LINE
  8
0
 10
-4.51639
 20
486.129
 11
-4.30623
 21
486.212
  0
LINE
  8
0
 10
-4.30623
 20
486.212
 11
-4.08728
 21
486.268
  0
LINE
  8
0
 10
-4.08728
 20
486.268
 11
-3.86302
 21
486.296
  0
LINE
  8
0
 10
-3.86302
 20
486.296
 11
-3.63696
 21
486.296
  0
LINE
  8
0
 10
-3.63696
 20
486.296
 11
-3.4127
 21
486.268
  0
LINE
  8
0
 10
-3.4127
 20
486.268
 11
-3.19376
 21
486.212
  0
LINE
  8
0
 10
-3.19376
 20
486.212
 11
-2.9836
 21
486.129
  0
LINE
  8
0
 10
-2.9836
 20
486.129
 11
-2.78551
 21
486.02
  0
LINE
  8
0
 10
-2.78551
 20
486.02
 11
-2.60263
 21
485.887
  0
LINE
  8
0
 10
-2.60263
 20
485.887
 11
-2.43785
 21
485.732
  0
LINE
  8
0
 10
-2.43785
 20
485.732
 11
-2.29376
 21
485.558
  0
LINE
  8
0
 10
-2.29376
 20
485.558
 11
-2.17264
 21
485.367
  0
LINE
  8
0
 10
-2.17264
 20
485.367
 11
-2.0764
 21
485.163
  0
LINE
  8
0
 10
-2.0764
 20
485.163
 11
-2.00655
 21
484.948
  0
LINE
  8
0
 10
-2.00655
 20
484.948
 11
-1.96419
 21
484.726
  0
LINE
  8
0
 10
-1.96419
 20
484.726
 11
-1.95
 21
484.5
  0
LINE
  8
0
 10
-1.95
 20
484.5
 11
-1.96419
 21
484.274
  0
LINE
  8
0
 10
-1.96419
 20
484.274
 11
-2.00655
 21
484.052
  0
LINE
  8
0
 10
-2.00655
 20
484.052
 11
-2.0764
 21
483.837
  0
LINE
  8
0
 10
-2.0764
 20
483.837
 11
-2.17264
 21
483.633
  0
LINE
  8
0
 10
-2.17264
 20
483.633
 11
-2.29376
 21
483.442
  0
LINE
  8
0
 10
-2.29376
 20
483.442
 11
-2.43785
 21
483.268
  0
LINE
  8
0
 10
-2.43785
 20
483.268
 11
-2.60263
 21
483.113
  0
LINE
  8
0
 10
-2.60263
 20
483.113
 11
-2.78551
 21
482.98
  0
LINE
  8
0
 10
-2.78551
 20
482.98
 11
-2.9836
 21
482.871
  0
LINE
  8
0
 10
-2.9836
 20
482.871
 11
-3.19376
 21
482.788
  0
LINE
  8
0
 10
-3.19376
 20
482.788
 11
-3.4127
 21
482.732
  0
LINE
  8
0
 10
-3.4127
 20
482.732
 11
-3.63696
 21
482.704
  0
LINE
  8
0
 10
-3.63696
 20
482.704
 11
-3.86302
 21
482.704
  0
LINE
  8
0
 10
3.63696
 20
482.704
 11
3.4127
 21
482.732
  0
LINE
  8
0
 10
3.4127
 20
482.732
 11
3.19376
 21
482.788
  0
LINE
  8
0
 10
3.19376
 20
482.788
 11
2.9836
 21
482.871
  0
LINE
  8
0
 10
2.9836
 20
482.871
 11
2.78551
 21
482.98
  0
LINE
  8
0
 10
2.78551
 20
482.98
 11
2.60263
 21
483.113
  0
LINE
  8
0
 10
2.60263
 20
483.113
 11
2.43785
 21
483.268
  0
LINE
  8
0
 10
2.43785
 20
483.268
 11
2.29376
 21
483.442
  0
LINE
  8
0
 10
2.29376
 20
483.442
 11
2.17264
 21
483.633
  0
LINE
  8
0
 10
2.17264
 20
483.633
 11
2.0764
 21
483.837
  0
LINE
  8
0
 10
2.0764
 20
483.837
 11
2.00655
 21
484.052
  0
LINE
  8
0
 10
2.00655
 20
484.052
 11
1.96419
 21
484.274
  0
LINE
  8
0
 10
1.96419
 20
484.274
 11
1.95
 21
484.5
  0
LINE
  8
0
 10
1.95
 20
484.5
 11
1.96419
 21
484.726
  0
LINE
  8
0
 10
1.96419
 20
484.726
 11
2.00655
 21
484.948
  0
LINE
  8
0
 10
2.00655
 20
484.948
 11
2.0764
 21
485.163
  0
LINE
  8
0
 10
2.0764
 20
485.163
 11
2.17264
 21
485.367
  0
LINE
  8
0
 10
2.17264
 20
485.367
 11
2.29376
 21
485.558
  0
LINE
  8
0
 10
2.29376
 20
485.558
 11
2.43785
 21
485.732
  0
LINE
  8
0
 10
2.43785
 20
485.732
 11
2.60263
 21
485.887
  0
LINE
  8
0
 10
2.60263
 20
485.887
 11
2.78551
 21
486.02
  0
LINE
  8
0
 10
2.78551
 20
486.02
 11
2.9836
 21
486.129
  0
LINE
  8
0
 10
2.9836
 20
486.129
 11
3.19376
 21
486.212
  0
LINE
  8
0
 10
3.19376
 20
486.212
 11
3.4127
 21
486.268
  0
LINE
  8
0
 10
3.4127
 20
486.268
 11
3.63696
 21
486.296
  0
LINE
  8
0
 10
3.63696
 20
486.296
 11
3.86302
 21
486.296
  0
LINE
  8
0
 10
3.86302
 20
486.296
 11
4.08728
 21
486.268
  0
LINE
  8
0
 10
4.08728
 20
486.268
 11
4.30623
 21
486.212
  0
LINE
  8
0
 10
4.30623
 20
486.212
 11
4.51639
 21
486.129
  0
LINE
  8
0
 10
4.51639
 20
486.129
 11
4.71448
 21
486.02
  0
LINE
  8
0
 10
4.71448
 20
486.02
 11
4.89735
 21
485.887
  0
LINE
  8
0
 10
4.89735
 20
485.887
 11
5.06213
 21
485.732
  0
LINE
  8
0
 10
5.06213
 20
485.732
 11
5.20622
 21
485.558
  0
LINE
  8
0
 10
5.20622
 20
485.558
 11
5.32735
 21
485.367
  0
LINE
  8
0
 10
5.32735
 20
485.367
 11
5.42358
 21
485.163
  0
LINE
  8
0
 10
5.42358
 20
485.163
 11
5.49344
 21
484.948
  0
LINE
  8
0
 10
5.49344
 20
484.948
 11
5.5358
 21
484.726
  0
LINE
  8
0
 10
5.5358
 20
484.726
 11
5.54999
 21
484.5
  0
LINE
  8
0
 10
5.54999
 20
484.5
 11
5.5358
 21
484.274
  0
LINE
  8
0
 10
5.5358
 20
484.274
 11
5.49344
 21
484.052
  0
LINE
  8
0
 10
5.49344
 20
484.052
 11
5.42358
 21
483.837
  0
LINE
  8
0
 10
5.42358
 20
483.837
 11
5.32735
 21
483.633
  0
LINE
  8
0
 10
5.32735
 20
483.633
 11
5.20622
 21
483.442
  0
LINE
  8
0
 10
5.20622
 20
483.442
 11
5.06213
 21
483.268
  0
LINE
  8
0
 10
5.06213
 20
483.268
 11
4.89735
 21
483.113
  0
LINE
  8
0
 10
4.89735
 20
483.113
 11
4.71448
 21
482.98
  0
LINE
  8
0
 10
4.71448
 20
482.98
 11
4.51639
 21
482.871
  0
LINE
  8
0
 10
4.51639
 20
482.871
 11
4.30623
 21
482.788
  0
LINE
  8
0
 10
4.30623
 20
482.788
 11
4.08728
 21
482.732
  0
LINE
  8
0
 10
4.08728
 20
482.732
 11
3.86302
 21
482.704
  0
LINE
  8
0
 10
3.86302
 20
482.704
 11
3.63696
 21
482.704
  0
ENDSEC
  0
SECTION
  2
OBJECTS
  0
DICTIONARY
  0
ENDSEC
  0
EOF
