  0
SECTION
  2
BLOCKS
  0
ENDSEC
  0
SECTION
  2
ENTITIES
  0
LINE
  8
0
 10
2.43594
 20
-12.7697
 11
4.01721
 21
-12.3637
  0
LINE
  8
0
 10
4.01721
 20
-12.3637
 11
5.53513
 21
-11.7627
  0
LINE
  8
0
 10
5.53513
 20
-11.7627
 11
6.96574
 21
-10.9763
  0
LINE
  8
0
 10
6.96574
 20
-10.9763
 11
8.2865
 21
-10.0167
  0
LINE
  8
0
 10
8.2865
 20
-10.0167
 11
9.47658
 21
-8.89911
  0
LINE
  8
0
 10
9.47658
 20
-8.89911
 11
10.5172
 21
-7.6412
  0
LINE
  8
0
 10
10.5172
 20
-7.6412
 11
11.392
 21
-6.26279
  0
LINE
  8
0
 10
11.392
 20
-6.26279
 11
12.0871
 21
-4.78561
  0
LINE
  8
0
 10
12.0871
 20
-4.78561
 11
12.5916
 21
-3.23296
  0
LINE
  8
0
 10
12.5916
 20
-3.23296
 11
12.8975
 21
-1.62932
  0
LINE
  8
0
 10
12.8975
 20
-1.62932
 11
13
 21
0
  0
LINE
  8
0
 10
13
 20
0
 11
12.8975
 21
1.62932
  0
LINE
  8
0
 10
12.8975
 20
1.62932
 11
12.5916
 21
3.23296
  0
LINE
  8
0
 10
12.5916
 20
3.23296
 11
12.0871
 21
4.78561
  0
LINE
  8
0
 10
12.0871
 20
4.78561
 11
11.392
 21
6.26279
  0
LINE
  8
0
 10
11.392
 20
6.26279
 11
10.5172
 21
7.6412
  0
LINE
  8
0
 10
10.5172
 20
7.6412
 11
9.47658
 21
8.89911
  0
LINE
  8
0
 10
9.47658
 20
8.89911
 11
8.2865
 21
10.0167
  0
LINE
  8
0
 10
8.2865
 20
10.0167
 11
6.96574
 21
10.9763
  0
LINE
  8
0
 10
6.96574
 20
10.9763
 11
5.53513
 21
11.7627
  0
LINE
  8
0
 10
5.53513
 20
11.7627
 11
4.01721
 21
12.3637
  0
LINE
  8
0
 10
4.01721
 20
12.3637
 11
2.43594
 21
12.7697
  0
LINE
  8
0
 10
2.43594
 20
12.7697
 11
0.816269
 21
12.9743
  0
LINE
  8
0
 10
0.816269
 20
12.9743
 11
-0.816269
 21
12.9743
  0
LINE
  8
0
 10
-0.816269
 20
12.9743
 11
-2.43594
 21
12.7697
  0
LINE
  8
0
 10
-2.43594
 20
12.7697
 11
-4.01721
 21
12.3637
  0
LINE
  8
0
 10
-4.01721
 20
12.3637
 11
-5.53513
 21
11.7627
  0
LINE
  8
0
 10
-5.53513
 20
11.7627
 11
-6.96574
 21
10.9763
  0
LINE
  8
0
 10
-6.96574
 20
10.9763
 11
-8.2865
 21
10.0167
  0
LINE
  8
0
 10
-8.2865
 20
10.0167
 11
-9.47658
 21
8.89911
  0
LINE
  8
0
 10
-9.47658
 20
8.89911
 11
-10.5172
 21
7.6412
  0
LINE
  8
0
 10
-10.5172
 20
7.6412
 11
-11.392
 21
6.26279
  0
LINE
  8
0
 10
-11.392
 20
6.26279
 11
-12.0871
 21
4.78561
  0
LINE
  8
0
 10
-12.0871
 20
4.78561
 11
-12.5916
 21
3.23296
  0
LINE
  8
0
 10
-12.5916
 20
3.23296
 11
-12.744
 21
2.43376
  0
LINE
  8
0
 10
-12.744
 20
2.43376
 11
-12.9123
 21
2.31154
  0
LINE
  8
0
 10
-12.9123
 20
2.31154
 11
-13.1869
 21
2.05363
  0
LINE
  8
0
 10
-13.1869
 20
2.05363
 11
-13.427
 21
1.76335
  0
LINE
  8
0
 10
-13.427
 20
1.76335
 11
-13.6289
 21
1.44525
  0
LINE
  8
0
 10
-13.6289
 20
1.44525
 11
-13.7893
 21
1.10437
  0
LINE
  8
0
 10
-13.7893
 20
1.10437
 11
-13.9057
 21
0.746063
  0
LINE
  8
0
 10
-13.9057
 20
0.746063
 11
-13.9763
 21
0.375992
  0
LINE
  8
0
 10
-13.9763
 20
0.375992
 11
-14
 21
0
  0
LINE
  8
0
 10
-14
 20
0
 11
-13.9763
 21
-0.375992
  0
LINE
  8
0
 10
-13.9763
 20
-0.375992
 11
-13.9057
 21
-0.746063
  0
LINE
  8
0
 10
-13.9057
 20
-0.746063
 11
-13.7893
 21
-1.10437
  0
LINE
  8
0
 10
-13.7893
 20
-1.10437
 11
-13.6289
 21
-1.44525
  0
LINE
  8
0
 10
-13.6289
 20
-1.44525
 11
-13.427
 21
-1.76335
  0
LINE
  8
0
 10
-13.427
 20
-1.76335
 11
-13.1869
 21
-2.05363
  0
LINE
  8
0
 10
-13.1869
 20
-2.05363
 11
-12.9123
 21
-2.31154
  0
LINE
  8
0
 10
-12.9123
 20
-2.31154
 11
-12.744
 21
-2.43376
  0
LINE
  8
0
 10
-12.744
 20
-2.43376
 11
-12.5916
 21
-3.23296
  0
LINE
  8
0
 10
-12.5916
 20
-3.23296
 11
-12.0871
 21
-4.78561
  0
LINE
  8
0
 10
-12.0871
 20
-4.78561
 11
-11.392
 21
-6.26279
  0
LINE
  8
0
 10
-11.392
 20
-6.26279
 11
-10.5172
 21
-7.6412
  0
LINE
  8
0
 10
-10.5172
 20
-7.6412
 11
-9.47658
 21
-8.89911
  0
LINE
  8
0
 10
-9.47658
 20
-8.89911
 11
-8.2865
 21
-10.0167
  0
LINE
  8
0
 10
-8.2865
 20
-10.0167
 11
-6.96574
 21
-10.9763
  0
LINE
  8
0
 10
-6.96574
 20
-10.9763
 11
-5.53513
 21
-11.7627
  0
LINE
  8
0
 10
-5.53513
 20
-11.7627
 11
-4.01721
 21
-12.3637
  0
LINE
  8
0
 10
-4.01721
 20
-12.3637
 11
-2.43594
 21
-12.7697
  0
LINE
  8
0
 10
-2.43594
 20
-12.7697
 11
-0.816269
 21
-12.9743
  0
LINE
  8
0
 10
-0.816269
 20
-12.9743
 11
0.816269
 21
-12.9743
  0
LINE
  8
0
 10
0.816269
 20
-12.9743
 11
2.43594
 21
-12.7697
  0
LINE
  8
0
 10
-25.5
 20
6
 11
-55.5
 21
6
  0
LINE
  8
0
 10
-55.5
 20
6
 11
-55.5
 21
-6
  0
LINE
  8
0
 10
-55.5
 20
-6
 11
-25.5
 21
-6
  0
LINE
  8
0
 10
-25.5
 20
-6
 11
-25.5
 21
6
  0
ENDSEC
  0
SECTION
  2
OBJECTS
  0
DICTIONARY
  0
ENDSEC
  0
EOF
