<?xml version="1.0" standalone="no"?>
<!DOCTYPE svg PUBLIC "-//W3C//DTD SVG 1.1//EN" "http://www.w3.org/Graphics/SVG/1.1/DTD/svg11.dtd">
<svg width="24mm" height="828mm" viewBox="-12 -1530 24 828" xmlns="http://www.w3.org/2000/svg" version="1.1">
<title>OpenSCAD Model</title>
<path d="
M 7.1869,-1260.09 L 7.79507,-1260.24 L 8.37889,-1260.48 L 8.92912,-1260.78 L 9.43712,-1261.15 L 9.89484,-1261.58
 L 10.2951,-1262.06 L 10.6315,-1262.59 L 10.8989,-1263.16 L 11.0929,-1263.76 L 11.2106,-1264.37 L 11.25,-1265
 L 11.25,-1525 L 11.2106,-1525.63 L 11.0929,-1526.24 L 10.8989,-1526.84 L 10.6315,-1527.41 L 10.2951,-1527.94
 L 9.89484,-1528.42 L 9.43712,-1528.85 L 8.92912,-1529.22 L 8.37889,-1529.52 L 7.79507,-1529.76 L 7.1869,-1529.91
 L 6.56395,-1529.99 L -6.56395,-1529.99 L -7.1869,-1529.91 L -7.79507,-1529.76 L -8.37889,-1529.52 L -8.92912,-1529.22
 L -9.43712,-1528.85 L -9.89484,-1528.42 L -10.2951,-1527.94 L -10.6315,-1527.41 L -10.8989,-1526.84 L -11.0929,-1526.24
 L -11.2106,-1525.63 L -11.25,-1525 L -11.25,-1265 L -11.2106,-1264.37 L -11.0929,-1263.76 L -10.8989,-1263.16
 L -10.6315,-1262.59 L -10.2951,-1262.06 L -9.89484,-1261.58 L -9.43712,-1261.15 L -8.92912,-1260.78 L -8.37889,-1260.48
 L -7.79507,-1260.24 L -7.1869,-1260.09 L -6.56395,-1260.01 L 6.56395,-1260.01 z
M -6.00116,-1261.51 L -6.49951,-1261.57 L -6.98605,-1261.7 L -7.45311,-1261.88 L -7.8933,-1262.12 L -8.29968,-1262.42
 L -8.66586,-1262.76 L -8.98605,-1263.15 L -9.25522,-1263.57 L -9.4691,-1264.03 L -9.62433,-1264.51 L -9.71844,-1265
 L -9.75,-1265.5 L -9.75,-1524.5 L -9.71844,-1525 L -9.62433,-1525.49 L -9.4691,-1525.97 L -9.25522,-1526.43
 L -8.98605,-1526.85 L -8.66586,-1527.24 L -8.29968,-1527.58 L -7.8933,-1527.88 L -7.45311,-1528.12 L -6.98605,-1528.3
 L -6.49951,-1528.43 L -6.00116,-1528.49 L 6.00116,-1528.49 L 6.49951,-1528.43 L 6.98605,-1528.3 L 7.45311,-1528.12
 L 7.8933,-1527.88 L 8.29968,-1527.58 L 8.66586,-1527.24 L 8.98605,-1526.85 L 9.25522,-1526.43 L 9.4691,-1525.97
 L 9.62433,-1525.49 L 9.71844,-1525 L 9.75,-1524.5 L 9.75,-1265.5 L 9.71844,-1265 L 9.62433,-1264.51
 L 9.4691,-1264.03 L 9.25522,-1263.57 L 8.98605,-1263.15 L 8.66586,-1262.76 L 8.29968,-1262.42 L 7.8933,-1262.12
 L 7.45311,-1261.88 L 6.98605,-1261.7 L 6.49951,-1261.57 L 6.00116,-1261.51 z
M 7.1869,-981.089 L 7.79507,-981.245 L 8.37889,-981.476 L 8.92912,-981.778 L 9.43712,-982.147 L 9.89484,-982.577
 L 10.2951,-983.061 L 10.6315,-983.591 L 10.8989,-984.159 L 11.0929,-984.757 L 11.2106,-985.373 L 11.25,-986
 L 11.25,-1246 L 11.2106,-1246.63 L 11.0929,-1247.24 L 10.8989,-1247.84 L 10.6315,-1248.41 L 10.2951,-1248.94
 L 9.89484,-1249.42 L 9.43712,-1249.85 L 8.92912,-1250.22 L 8.37889,-1250.52 L 7.79507,-1250.76 L 7.1869,-1250.91
 L 6.56395,-1250.99 L -6.56395,-1250.99 L -7.1869,-1250.91 L -7.79507,-1250.76 L -8.37889,-1250.52 L -8.92912,-1250.22
 L -9.43712,-1249.85 L -9.89484,-1249.42 L -10.2951,-1248.94 L -10.6315,-1248.41 L -10.8989,-1247.84 L -11.0929,-1247.24
 L -11.2106,-1246.63 L -11.25,-1246 L -11.25,-986 L -11.2106,-985.373 L -11.0929,-984.757 L -10.8989,-984.159
 L -10.6315,-983.591 L -10.2951,-983.061 L -9.89484,-982.577 L -9.43712,-982.147 L -8.92912,-981.778 L -8.37889,-981.476
 L -7.79507,-981.245 L -7.1869,-981.089 L -6.56395,-981.01 L 6.56395,-981.01 z
M -5.94545,-983.393 L -6.3333,-983.442 L -6.71194,-983.539 L -7.07541,-983.683 L -7.41798,-983.872 L -7.73424,-984.101
 L -8.01921,-984.369 L -8.2684,-984.67 L -8.47786,-985 L -8.64432,-985.354 L -8.76512,-985.726 L -8.83836,-986.11
 L -8.86292,-986.5 L -8.86292,-1245.5 L -8.83836,-1245.89 L -8.76512,-1246.27 L -8.64432,-1246.65 L -8.47786,-1247
 L -8.2684,-1247.33 L -8.01921,-1247.63 L -7.73424,-1247.9 L -7.41798,-1248.13 L -7.07541,-1248.32 L -6.71194,-1248.46
 L -6.3333,-1248.56 L -5.94545,-1248.61 L 5.94545,-1248.61 L 6.3333,-1248.56 L 6.71194,-1248.46 L 7.07541,-1248.32
 L 7.41798,-1248.13 L 7.73424,-1247.9 L 8.01921,-1247.63 L 8.2684,-1247.33 L 8.47786,-1247 L 8.64432,-1246.65
 L 8.76512,-1246.27 L 8.83836,-1245.89 L 8.86292,-1245.5 L 8.86292,-986.5 L 8.83836,-986.11 L 8.76512,-985.726
 L 8.64432,-985.354 L 8.47786,-985 L 8.2684,-984.67 L 8.01921,-984.369 L 7.73424,-984.101 L 7.41798,-983.872
 L 7.07541,-983.683 L 6.71194,-983.539 L 6.3333,-983.442 L 5.94545,-983.393 z
M 7.1869,-702.089 L 7.79507,-702.245 L 8.37889,-702.476 L 8.92912,-702.778 L 9.43712,-703.147 L 9.89484,-703.577
 L 10.2951,-704.061 L 10.6315,-704.591 L 10.8989,-705.159 L 11.0929,-705.757 L 11.2106,-706.373 L 11.25,-707
 L 11.25,-967 L 11.2106,-967.627 L 11.0929,-968.243 L 10.8989,-968.841 L 10.6315,-969.409 L 10.2951,-969.939
 L 9.89484,-970.423 L 9.43712,-970.853 L 8.92912,-971.222 L 8.37889,-971.524 L 7.79507,-971.755 L 7.1869,-971.911
 L 6.56395,-971.99 L -6.56395,-971.99 L -7.1869,-971.911 L -7.79507,-971.755 L -8.37889,-971.524 L -8.92912,-971.222
 L -9.43712,-970.853 L -9.89484,-970.423 L -10.2951,-969.939 L -10.6315,-969.409 L -10.8989,-968.841 L -11.0929,-968.243
 L -11.2106,-967.627 L -11.25,-967 L -11.25,-707 L -11.2106,-706.373 L -11.0929,-705.757 L -10.8989,-705.159
 L -10.6315,-704.591 L -10.2951,-704.061 L -9.89484,-703.577 L -9.43712,-703.147 L -8.92912,-702.778 L -8.37889,-702.476
 L -7.79507,-702.245 L -7.1869,-702.089 L -6.56395,-702.01 L 6.56395,-702.01 z
M 3.61592,-962.369 L 3.34988,-962.403 L 3.09015,-962.469 L 2.84084,-962.568 L 2.60585,-962.697 L 2.3889,-962.855
 L 2.19344,-963.038 L 2.02251,-963.245 L 1.87881,-963.471 L 1.76465,-963.714 L 1.68178,-963.969 L 1.63153,-964.232
 L 1.6147,-964.5 L 1.63153,-964.768 L 1.68178,-965.031 L 1.76465,-965.286 L 1.87881,-965.529 L 2.02251,-965.755
 L 2.19344,-965.962 L 2.3889,-966.145 L 2.60585,-966.303 L 2.84084,-966.432 L 3.09015,-966.531 L 3.34988,-966.597
 L 3.61592,-966.631 L 3.88406,-966.631 L 4.1501,-966.597 L 4.40984,-966.531 L 4.65915,-966.432 L 4.89413,-966.303
 L 5.11108,-966.145 L 5.30655,-965.962 L 5.47748,-965.755 L 5.62117,-965.529 L 5.73534,-965.286 L 5.81821,-965.031
 L 5.86845,-964.768 L 5.88528,-964.5 L 5.86845,-964.232 L 5.81821,-963.969 L 5.73534,-963.714 L 5.62117,-963.471
 L 5.47748,-963.245 L 5.30655,-963.038 L 5.11108,-962.855 L 4.89413,-962.697 L 4.65915,-962.568 L 4.40984,-962.469
 L 4.1501,-962.403 L 3.88406,-962.369 z
M -3.88406,-962.369 L -4.1501,-962.403 L -4.40984,-962.469 L -4.65915,-962.568 L -4.89413,-962.697 L -5.11108,-962.855
 L -5.30655,-963.038 L -5.47748,-963.245 L -5.62117,-963.471 L -5.73534,-963.714 L -5.81821,-963.969 L -5.86845,-964.232
 L -5.88528,-964.5 L -5.86845,-964.768 L -5.81821,-965.031 L -5.73534,-965.286 L -5.62117,-965.529 L -5.47748,-965.755
 L -5.30655,-965.962 L -5.11108,-966.145 L -4.89413,-966.303 L -4.65915,-966.432 L -4.40984,-966.531 L -4.1501,-966.597
 L -3.88406,-966.631 L -3.61592,-966.631 L -3.34988,-966.597 L -3.09015,-966.531 L -2.84084,-966.432 L -2.60585,-966.303
 L -2.3889,-966.145 L -2.19344,-965.962 L -2.02251,-965.755 L -1.87881,-965.529 L -1.76465,-965.286 L -1.68178,-965.031
 L -1.63153,-964.768 L -1.6147,-964.5 L -1.63153,-964.232 L -1.68178,-963.969 L -1.76465,-963.714 L -1.87881,-963.471
 L -2.02251,-963.245 L -2.19344,-963.038 L -2.3889,-962.855 L -2.60585,-962.697 L -2.84084,-962.568 L -3.09015,-962.469
 L -3.34988,-962.403 L -3.61592,-962.369 z
M 3.61592,-707.369 L 3.34988,-707.403 L 3.09015,-707.469 L 2.84084,-707.568 L 2.60585,-707.697 L 2.3889,-707.855
 L 2.19344,-708.038 L 2.02251,-708.245 L 1.87881,-708.471 L 1.76465,-708.714 L 1.68178,-708.969 L 1.63153,-709.232
 L 1.6147,-709.5 L 1.63153,-709.768 L 1.68178,-710.031 L 1.76465,-710.286 L 1.87881,-710.529 L 2.02251,-710.755
 L 2.19344,-710.962 L 2.3889,-711.145 L 2.60585,-711.303 L 2.84084,-711.432 L 3.09015,-711.531 L 3.34988,-711.597
 L 3.61592,-711.631 L 3.88406,-711.631 L 4.1501,-711.597 L 4.40984,-711.531 L 4.65915,-711.432 L 4.89413,-711.303
 L 5.11108,-711.145 L 5.30655,-710.962 L 5.47748,-710.755 L 5.62117,-710.529 L 5.73534,-710.286 L 5.81821,-710.031
 L 5.86845,-709.768 L 5.88528,-709.5 L 5.86845,-709.232 L 5.81821,-708.969 L 5.73534,-708.714 L 5.62117,-708.471
 L 5.47748,-708.245 L 5.30655,-708.038 L 5.11108,-707.855 L 4.89413,-707.697 L 4.65915,-707.568 L 4.40984,-707.469
 L 4.1501,-707.403 L 3.88406,-707.369 z
M -3.88406,-707.369 L -4.1501,-707.403 L -4.40984,-707.469 L -4.65915,-707.568 L -4.89413,-707.697 L -5.11108,-707.855
 L -5.30655,-708.038 L -5.47748,-708.245 L -5.62117,-708.471 L -5.73534,-708.714 L -5.81821,-708.969 L -5.86845,-709.232
 L -5.88528,-709.5 L -5.86845,-709.768 L -5.81821,-710.031 L -5.73534,-710.286 L -5.62117,-710.529 L -5.47748,-710.755
 L -5.30655,-710.962 L -5.11108,-711.145 L -4.89413,-711.303 L -4.65915,-711.432 L -4.40984,-711.531 L -4.1501,-711.597
 L -3.88406,-711.631 L -3.61592,-711.631 L -3.34988,-711.597 L -3.09015,-711.531 L -2.84084,-711.432 L -2.60585,-711.303
 L -2.3889,-711.145 L -2.19344,-710.962 L -2.02251,-710.755 L -1.87881,-710.529 L -1.76465,-710.286 L -1.68178,-710.031
 L -1.63153,-709.768 L -1.6147,-709.5 L -1.63153,-709.232 L -1.68178,-708.969 L -1.76465,-708.714 L -1.87881,-708.471
 L -2.02251,-708.245 L -2.19344,-708.038 L -2.3889,-707.855 L -2.60585,-707.697 L -2.84084,-707.568 L -3.09015,-707.469
 L -3.34988,-707.403 L -3.61592,-707.369 z
" stroke="black" fill="lightgray" stroke-width="0.5"/>
</svg>
