  0
SECTION
  2
BLOCKS
  0
ENDSEC
  0
SECTION
  2
ENTITIES
  0
LINE
  8
0
 10
70.9369
 20
240.839
 11
71.5451
 21
240.995
  0
LINE
  8
0
 10
71.5451
 20
240.995
 11
72.1289
 21
241.226
  0
LINE
  8
0
 10
72.1289
 20
241.226
 11
72.6791
 21
241.528
  0
LINE
  8
0
 10
72.6791
 20
241.528
 11
73.1871
 21
241.897
  0
LINE
  8
0
 10
73.1871
 20
241.897
 11
73.6448
 21
242.327
  0
LINE
  8
0
 10
73.6448
 20
242.327
 11
74.0451
 21
242.811
  0
LINE
  8
0
 10
74.0451
 20
242.811
 11
74.3815
 21
243.341
  0
LINE
  8
0
 10
74.3815
 20
243.341
 11
74.6489
 21
243.909
  0
LINE
  8
0
 10
74.6489
 20
243.909
 11
74.8429
 21
244.507
  0
LINE
  8
0
 10
74.8429
 20
244.507
 11
74.9606
 21
245.123
  0
LINE
  8
0
 10
74.9606
 20
245.123
 11
75
 21
245.75
  0
LINE
  8
0
 10
75
 20
245.75
 11
75
 21
258.25
  0
LINE
  8
0
 10
75
 20
258.25
 11
74.9606
 21
258.877
  0
LINE
  8
0
 10
74.9606
 20
258.877
 11
74.8429
 21
259.493
  0
LINE
  8
0
 10
74.8429
 20
259.493
 11
74.6489
 21
260.091
  0
LINE
  8
0
 10
74.6489
 20
260.091
 11
74.3815
 21
260.659
  0
LINE
  8
0
 10
74.3815
 20
260.659
 11
74.0451
 21
261.189
  0
LINE
  8
0
 10
74.0451
 20
261.189
 11
73.6448
 21
261.673
  0
LINE
  8
0
 10
73.6448
 20
261.673
 11
73.1871
 21
262.103
  0
LINE
  8
0
 10
73.1871
 20
262.103
 11
72.6791
 21
262.472
  0
LINE
  8
0
 10
72.6791
 20
262.472
 11
72.1289
 21
262.774
  0
LINE
  8
0
 10
72.1289
 20
262.774
 11
71.5451
 21
263.005
  0
LINE
  8
0
 10
71.5451
 20
263.005
 11
70.9369
 21
263.161
  0
LINE
  8
0
 10
70.9369
 20
263.161
 11
70.3139
 21
263.24
  0
LINE
  8
0
 10
70.3139
 20
263.24
 11
-70.3139
 21
263.24
  0
LINE
  8
0
 10
-70.3139
 20
263.24
 11
-70.9369
 21
263.161
  0
LINE
  8
0
 10
-70.9369
 20
263.161
 11
-71.5451
 21
263.005
  0
LINE
  8
0
 10
-71.5451
 20
263.005
 11
-72.1289
 21
262.774
  0
LINE
  8
0
 10
-72.1289
 20
262.774
 11
-72.6791
 21
262.472
  0
LINE
  8
0
 10
-72.6791
 20
262.472
 11
-73.1871
 21
262.103
  0
LINE
  8
0
 10
-73.1871
 20
262.103
 11
-73.6448
 21
261.673
  0
LINE
  8
0
 10
-73.6448
 20
261.673
 11
-74.0451
 21
261.189
  0
LINE
  8
0
 10
-74.0451
 20
261.189
 11
-74.3815
 21
260.659
  0
LINE
  8
0
 10
-74.3815
 20
260.659
 11
-74.6489
 21
260.091
  0
LINE
  8
0
 10
-74.6489
 20
260.091
 11
-74.8429
 21
259.493
  0
LINE
  8
0
 10
-74.8429
 20
259.493
 11
-74.9
 21
259.194
  0
LINE
  8
0
 10
-74.9
 20
259.194
 11
-75
 21
259.194
  0
LINE
  8
0
 10
-75
 20
259.194
 11
-75
 21
244.806
  0
LINE
  8
0
 10
-75
 20
244.806
 11
-74.9
 21
244.806
  0
LINE
  8
0
 10
-74.9
 20
244.806
 11
-74.8429
 21
244.507
  0
LINE
  8
0
 10
-74.8429
 20
244.507
 11
-74.6489
 21
243.909
  0
LINE
  8
0
 10
-74.6489
 20
243.909
 11
-74.3815
 21
243.341
  0
LINE
  8
0
 10
-74.3815
 20
243.341
 11
-74.0451
 21
242.811
  0
LINE
  8
0
 10
-74.0451
 20
242.811
 11
-73.6448
 21
242.327
  0
LINE
  8
0
 10
-73.6448
 20
242.327
 11
-73.1871
 21
241.897
  0
LINE
  8
0
 10
-73.1871
 20
241.897
 11
-72.6791
 21
241.528
  0
LINE
  8
0
 10
-72.6791
 20
241.528
 11
-72.1289
 21
241.226
  0
LINE
  8
0
 10
-72.1289
 20
241.226
 11
-71.5451
 21
240.995
  0
LINE
  8
0
 10
-71.5451
 20
240.995
 11
-70.9369
 21
240.839
  0
LINE
  8
0
 10
-70.9369
 20
240.839
 11
-70.3139
 21
240.76
  0
LINE
  8
0
 10
-70.3139
 20
240.76
 11
70.3139
 21
240.76
  0
LINE
  8
0
 10
70.3139
 20
240.76
 11
70.9369
 21
240.839
  0
LINE
  8
0
 10
-69.7512
 20
242.258
 11
-70.2495
 21
242.321
  0
LINE
  8
0
 10
-70.2495
 20
242.321
 11
-70.7361
 21
242.446
  0
LINE
  8
0
 10
-70.7361
 20
242.446
 11
-71.2031
 21
242.631
  0
LINE
  8
0
 10
-71.2031
 20
242.631
 11
-71.6433
 21
242.873
  0
LINE
  8
0
 10
-71.6433
 20
242.873
 11
-72.0497
 21
243.168
  0
LINE
  8
0
 10
-72.0497
 20
243.168
 11
-72.4159
 21
243.512
  0
LINE
  8
0
 10
-72.4159
 20
243.512
 11
-72.7361
 21
243.899
  0
LINE
  8
0
 10
-72.7361
 20
243.899
 11
-73.0052
 21
244.323
  0
LINE
  8
0
 10
-73.0052
 20
244.323
 11
-73.2191
 21
244.778
  0
LINE
  8
0
 10
-73.2191
 20
244.778
 11
-73.3743
 21
245.255
  0
LINE
  8
0
 10
-73.3743
 20
245.255
 11
-73.4685
 21
245.749
  0
LINE
  8
0
 10
-73.4685
 20
245.749
 11
-73.5
 21
246.25
  0
LINE
  8
0
 10
-73.5
 20
246.25
 11
-73.5
 21
257.75
  0
LINE
  8
0
 10
-73.5
 20
257.75
 11
-73.4685
 21
258.251
  0
LINE
  8
0
 10
-73.4685
 20
258.251
 11
-73.3743
 21
258.745
  0
LINE
  8
0
 10
-73.3743
 20
258.745
 11
-73.2191
 21
259.222
  0
LINE
  8
0
 10
-73.2191
 20
259.222
 11
-73.0052
 21
259.677
  0
LINE
  8
0
 10
-73.0052
 20
259.677
 11
-72.7361
 21
260.101
  0
LINE
  8
0
 10
-72.7361
 20
260.101
 11
-72.4159
 21
260.488
  0
LINE
  8
0
 10
-72.4159
 20
260.488
 11
-72.0497
 21
260.832
  0
LINE
  8
0
 10
-72.0497
 20
260.832
 11
-71.6433
 21
261.127
  0
LINE
  8
0
 10
-71.6433
 20
261.127
 11
-71.2031
 21
261.369
  0
LINE
  8
0
 10
-71.2031
 20
261.369
 11
-70.7361
 21
261.554
  0
LINE
  8
0
 10
-70.7361
 20
261.554
 11
-70.2495
 21
261.679
  0
LINE
  8
0
 10
-70.2495
 20
261.679
 11
-69.7512
 21
261.742
  0
LINE
  8
0
 10
-69.7512
 20
261.742
 11
69.7512
 21
261.742
  0
LINE
  8
0
 10
69.7512
 20
261.742
 11
70.2495
 21
261.679
  0
LINE
  8
0
 10
70.2495
 20
261.679
 11
70.7361
 21
261.554
  0
LINE
  8
0
 10
70.7361
 20
261.554
 11
71.2031
 21
261.369
  0
LINE
  8
0
 10
71.2031
 20
261.369
 11
71.6433
 21
261.127
  0
LINE
  8
0
 10
71.6433
 20
261.127
 11
72.0497
 21
260.832
  0
LINE
  8
0
 10
72.0497
 20
260.832
 11
72.4159
 21
260.488
  0
LINE
  8
0
 10
72.4159
 20
260.488
 11
72.7361
 21
260.101
  0
LINE
  8
0
 10
72.7361
 20
260.101
 11
73.0052
 21
259.677
  0
LINE
  8
0
 10
73.0052
 20
259.677
 11
73.2191
 21
259.222
  0
LINE
  8
0
 10
73.2191
 20
259.222
 11
73.3743
 21
258.745
  0
LINE
  8
0
 10
73.3743
 20
258.745
 11
73.4685
 21
258.251
  0
LINE
  8
0
 10
73.4685
 20
258.251
 11
73.5
 21
257.75
  0
LINE
  8
0
 10
73.5
 20
257.75
 11
73.5
 21
246.25
  0
LINE
  8
0
 10
73.5
 20
246.25
 11
73.4685
 21
245.749
  0
LINE
  8
0
 10
73.4685
 20
245.749
 11
73.3743
 21
245.255
  0
LINE
  8
0
 10
73.3743
 20
245.255
 11
73.2191
 21
244.778
  0
LINE
  8
0
 10
73.2191
 20
244.778
 11
73.0052
 21
244.323
  0
LINE
  8
0
 10
73.0052
 20
244.323
 11
72.7361
 21
243.899
  0
LINE
  8
0
 10
72.7361
 20
243.899
 11
72.4159
 21
243.512
  0
LINE
  8
0
 10
72.4159
 20
243.512
 11
72.0497
 21
243.168
  0
LINE
  8
0
 10
72.0497
 20
243.168
 11
71.6433
 21
242.873
  0
LINE
  8
0
 10
71.6433
 20
242.873
 11
71.2031
 21
242.631
  0
LINE
  8
0
 10
71.2031
 20
242.631
 11
70.7361
 21
242.446
  0
LINE
  8
0
 10
70.7361
 20
242.446
 11
70.2495
 21
242.321
  0
LINE
  8
0
 10
70.2495
 20
242.321
 11
69.7512
 21
242.258
  0
LINE
  8
0
 10
69.7512
 20
242.258
 11
-69.7512
 21
242.258
  0
LINE
  8
0
 10
70.9369
 20
209.339
 11
71.5451
 21
209.495
  0
LINE
  8
0
 10
71.5451
 20
209.495
 11
72.1289
 21
209.726
  0
LINE
  8
0
 10
72.1289
 20
209.726
 11
72.6791
 21
210.028
  0
LINE
  8
0
 10
72.6791
 20
210.028
 11
73.1871
 21
210.397
  0
LINE
  8
0
 10
73.1871
 20
210.397
 11
73.6448
 21
210.827
  0
LINE
  8
0
 10
73.6448
 20
210.827
 11
74.0451
 21
211.311
  0
LINE
  8
0
 10
74.0451
 20
211.311
 11
74.3815
 21
211.841
  0
LINE
  8
0
 10
74.3815
 20
211.841
 11
74.6489
 21
212.409
  0
LINE
  8
0
 10
74.6489
 20
212.409
 11
74.8429
 21
213.007
  0
LINE
  8
0
 10
74.8429
 20
213.007
 11
74.9606
 21
213.623
  0
LINE
  8
0
 10
74.9606
 20
213.623
 11
75
 21
214.25
  0
LINE
  8
0
 10
75
 20
214.25
 11
75
 21
226.75
  0
LINE
  8
0
 10
75
 20
226.75
 11
74.9606
 21
227.377
  0
LINE
  8
0
 10
74.9606
 20
227.377
 11
74.8429
 21
227.993
  0
LINE
  8
0
 10
74.8429
 20
227.993
 11
74.6489
 21
228.591
  0
LINE
  8
0
 10
74.6489
 20
228.591
 11
74.3815
 21
229.159
  0
LINE
  8
0
 10
74.3815
 20
229.159
 11
74.0451
 21
229.689
  0
LINE
  8
0
 10
74.0451
 20
229.689
 11
73.6448
 21
230.173
  0
LINE
  8
0
 10
73.6448
 20
230.173
 11
73.1871
 21
230.603
  0
LINE
  8
0
 10
73.1871
 20
230.603
 11
72.6791
 21
230.972
  0
LINE
  8
0
 10
72.6791
 20
230.972
 11
72.1289
 21
231.274
  0
LINE
  8
0
 10
72.1289
 20
231.274
 11
71.5451
 21
231.505
  0
LINE
  8
0
 10
71.5451
 20
231.505
 11
70.9369
 21
231.661
  0
LINE
  8
0
 10
70.9369
 20
231.661
 11
70.3139
 21
231.74
  0
LINE
  8
0
 10
70.3139
 20
231.74
 11
-70.3139
 21
231.74
  0
LINE
  8
0
 10
-70.3139
 20
231.74
 11
-70.9369
 21
231.661
  0
LINE
  8
0
 10
-70.9369
 20
231.661
 11
-71.5451
 21
231.505
  0
LINE
  8
0
 10
-71.5451
 20
231.505
 11
-72.1289
 21
231.274
  0
LINE
  8
0
 10
-72.1289
 20
231.274
 11
-72.6791
 21
230.972
  0
LINE
  8
0
 10
-72.6791
 20
230.972
 11
-73.1871
 21
230.603
  0
LINE
  8
0
 10
-73.1871
 20
230.603
 11
-73.6448
 21
230.173
  0
LINE
  8
0
 10
-73.6448
 20
230.173
 11
-74.0451
 21
229.689
  0
LINE
  8
0
 10
-74.0451
 20
229.689
 11
-74.3815
 21
229.159
  0
LINE
  8
0
 10
-74.3815
 20
229.159
 11
-74.6489
 21
228.591
  0
LINE
  8
0
 10
-74.6489
 20
228.591
 11
-74.8429
 21
227.993
  0
LINE
  8
0
 10
-74.8429
 20
227.993
 11
-74.9606
 21
227.377
  0
LINE
  8
0
 10
-74.9606
 20
227.377
 11
-75
 21
226.75
  0
LINE
  8
0
 10
-75
 20
226.75
 11
-75
 21
214.25
  0
LINE
  8
0
 10
-75
 20
214.25
 11
-74.9606
 21
213.623
  0
LINE
  8
0
 10
-74.9606
 20
213.623
 11
-74.8429
 21
213.007
  0
LINE
  8
0
 10
-74.8429
 20
213.007
 11
-74.6489
 21
212.409
  0
LINE
  8
0
 10
-74.6489
 20
212.409
 11
-74.3815
 21
211.841
  0
LINE
  8
0
 10
-74.3815
 20
211.841
 11
-74.0451
 21
211.311
  0
LINE
  8
0
 10
-74.0451
 20
211.311
 11
-73.6448
 21
210.827
  0
LINE
  8
0
 10
-73.6448
 20
210.827
 11
-73.1871
 21
210.397
  0
LINE
  8
0
 10
-73.1871
 20
210.397
 11
-72.6791
 21
210.028
  0
LINE
  8
0
 10
-72.6791
 20
210.028
 11
-72.1289
 21
209.726
  0
LINE
  8
0
 10
-72.1289
 20
209.726
 11
-71.5451
 21
209.495
  0
LINE
  8
0
 10
-71.5451
 20
209.495
 11
-70.9369
 21
209.339
  0
LINE
  8
0
 10
-70.9369
 20
209.339
 11
-70.3139
 21
209.26
  0
LINE
  8
0
 10
-70.3139
 20
209.26
 11
70.3139
 21
209.26
  0
LINE
  8
0
 10
70.3139
 20
209.26
 11
70.9369
 21
209.339
  0
LINE
  8
0
 10
-69.7512
 20
210.758
 11
-70.2495
 21
210.821
  0
LINE
  8
0
 10
-70.2495
 20
210.821
 11
-70.7361
 21
210.946
  0
LINE
  8
0
 10
-70.7361
 20
210.946
 11
-71.2031
 21
211.131
  0
LINE
  8
0
 10
-71.2031
 20
211.131
 11
-71.6433
 21
211.373
  0
LINE
  8
0
 10
-71.6433
 20
211.373
 11
-72.0497
 21
211.668
  0
LINE
  8
0
 10
-72.0497
 20
211.668
 11
-72.4159
 21
212.012
  0
LINE
  8
0
 10
-72.4159
 20
212.012
 11
-72.7361
 21
212.399
  0
LINE
  8
0
 10
-72.7361
 20
212.399
 11
-73.0052
 21
212.823
  0
LINE
  8
0
 10
-73.0052
 20
212.823
 11
-73.2191
 21
213.278
  0
LINE
  8
0
 10
-73.2191
 20
213.278
 11
-73.3743
 21
213.755
  0
LINE
  8
0
 10
-73.3743
 20
213.755
 11
-73.4685
 21
214.249
  0
LINE
  8
0
 10
-73.4685
 20
214.249
 11
-73.5
 21
214.75
  0
LINE
  8
0
 10
-73.5
 20
214.75
 11
-73.5
 21
226.25
  0
LINE
  8
0
 10
-73.5
 20
226.25
 11
-73.4685
 21
226.751
  0
LINE
  8
0
 10
-73.4685
 20
226.751
 11
-73.3743
 21
227.245
  0
LINE
  8
0
 10
-73.3743
 20
227.245
 11
-73.2191
 21
227.722
  0
LINE
  8
0
 10
-73.2191
 20
227.722
 11
-73.0052
 21
228.177
  0
LINE
  8
0
 10
-73.0052
 20
228.177
 11
-72.7361
 21
228.601
  0
LINE
  8
0
 10
-72.7361
 20
228.601
 11
-72.4159
 21
228.988
  0
LINE
  8
0
 10
-72.4159
 20
228.988
 11
-72.0497
 21
229.332
  0
LINE
  8
0
 10
-72.0497
 20
229.332
 11
-71.6433
 21
229.627
  0
LINE
  8
0
 10
-71.6433
 20
229.627
 11
-71.2031
 21
229.869
  0
LINE
  8
0
 10
-71.2031
 20
229.869
 11
-70.7361
 21
230.054
  0
LINE
  8
0
 10
-70.7361
 20
230.054
 11
-70.2495
 21
230.179
  0
LINE
  8
0
 10
-70.2495
 20
230.179
 11
-69.7512
 21
230.242
  0
LINE
  8
0
 10
-69.7512
 20
230.242
 11
69.7512
 21
230.242
  0
LINE
  8
0
 10
69.7512
 20
230.242
 11
70.2495
 21
230.179
  0
LINE
  8
0
 10
70.2495
 20
230.179
 11
70.7361
 21
230.054
  0
LINE
  8
0
 10
70.7361
 20
230.054
 11
71.2031
 21
229.869
  0
LINE
  8
0
 10
71.2031
 20
229.869
 11
71.6433
 21
229.627
  0
LINE
  8
0
 10
71.6433
 20
229.627
 11
72.0497
 21
229.332
  0
LINE
  8
0
 10
72.0497
 20
229.332
 11
72.4159
 21
228.988
  0
LINE
  8
0
 10
72.4159
 20
228.988
 11
72.7361
 21
228.601
  0
LINE
  8
0
 10
72.7361
 20
228.601
 11
73.0052
 21
228.177
  0
LINE
  8
0
 10
73.0052
 20
228.177
 11
73.2191
 21
227.722
  0
LINE
  8
0
 10
73.2191
 20
227.722
 11
73.3743
 21
227.245
  0
LINE
  8
0
 10
73.3743
 20
227.245
 11
73.4685
 21
226.751
  0
LINE
  8
0
 10
73.4685
 20
226.751
 11
73.5
 21
226.25
  0
LINE
  8
0
 10
73.5
 20
226.25
 11
73.5
 21
214.75
  0
LINE
  8
0
 10
73.5
 20
214.75
 11
73.4685
 21
214.249
  0
LINE
  8
0
 10
73.4685
 20
214.249
 11
73.3743
 21
213.755
  0
LINE
  8
0
 10
73.3743
 20
213.755
 11
73.2191
 21
213.278
  0
LINE
  8
0
 10
73.2191
 20
213.278
 11
73.0052
 21
212.823
  0
LINE
  8
0
 10
73.0052
 20
212.823
 11
72.7361
 21
212.399
  0
LINE
  8
0
 10
72.7361
 20
212.399
 11
72.4159
 21
212.012
  0
LINE
  8
0
 10
72.4159
 20
212.012
 11
72.0497
 21
211.668
  0
LINE
  8
0
 10
72.0497
 20
211.668
 11
71.6433
 21
211.373
  0
LINE
  8
0
 10
71.6433
 20
211.373
 11
71.2031
 21
211.131
  0
LINE
  8
0
 10
71.2031
 20
211.131
 11
70.7361
 21
210.946
  0
LINE
  8
0
 10
70.7361
 20
210.946
 11
70.2495
 21
210.821
  0
LINE
  8
0
 10
70.2495
 20
210.821
 11
69.7512
 21
210.758
  0
LINE
  8
0
 10
69.7512
 20
210.758
 11
-69.7512
 21
210.758
  0
LINE
  8
0
 10
70.9369
 20
177.839
 11
71.5451
 21
177.995
  0
LINE
  8
0
 10
71.5451
 20
177.995
 11
72.1289
 21
178.226
  0
LINE
  8
0
 10
72.1289
 20
178.226
 11
72.6791
 21
178.528
  0
LINE
  8
0
 10
72.6791
 20
178.528
 11
73.1871
 21
178.897
  0
LINE
  8
0
 10
73.1871
 20
178.897
 11
73.6448
 21
179.327
  0
LINE
  8
0
 10
73.6448
 20
179.327
 11
74.0451
 21
179.811
  0
LINE
  8
0
 10
74.0451
 20
179.811
 11
74.3815
 21
180.341
  0
LINE
  8
0
 10
74.3815
 20
180.341
 11
74.6489
 21
180.909
  0
LINE
  8
0
 10
74.6489
 20
180.909
 11
74.8429
 21
181.507
  0
LINE
  8
0
 10
74.8429
 20
181.507
 11
74.9606
 21
182.123
  0
LINE
  8
0
 10
74.9606
 20
182.123
 11
75
 21
182.75
  0
LINE
  8
0
 10
75
 20
182.75
 11
75
 21
195.25
  0
LINE
  8
0
 10
75
 20
195.25
 11
74.9606
 21
195.877
  0
LINE
  8
0
 10
74.9606
 20
195.877
 11
74.8429
 21
196.493
  0
LINE
  8
0
 10
74.8429
 20
196.493
 11
74.6489
 21
197.091
  0
LINE
  8
0
 10
74.6489
 20
197.091
 11
74.3815
 21
197.659
  0
LINE
  8
0
 10
74.3815
 20
197.659
 11
74.0451
 21
198.189
  0
LINE
  8
0
 10
74.0451
 20
198.189
 11
73.6448
 21
198.673
  0
LINE
  8
0
 10
73.6448
 20
198.673
 11
73.1871
 21
199.103
  0
LINE
  8
0
 10
73.1871
 20
199.103
 11
72.6791
 21
199.472
  0
LINE
  8
0
 10
72.6791
 20
199.472
 11
72.1289
 21
199.774
  0
LINE
  8
0
 10
72.1289
 20
199.774
 11
71.5451
 21
200.005
  0
LINE
  8
0
 10
71.5451
 20
200.005
 11
70.9369
 21
200.161
  0
LINE
  8
0
 10
70.9369
 20
200.161
 11
70.3139
 21
200.24
  0
LINE
  8
0
 10
70.3139
 20
200.24
 11
-70.3139
 21
200.24
  0
LINE
  8
0
 10
-70.3139
 20
200.24
 11
-70.9369
 21
200.161
  0
LINE
  8
0
 10
-70.9369
 20
200.161
 11
-71.5451
 21
200.005
  0
LINE
  8
0
 10
-71.5451
 20
200.005
 11
-72.1289
 21
199.774
  0
LINE
  8
0
 10
-72.1289
 20
199.774
 11
-72.6791
 21
199.472
  0
LINE
  8
0
 10
-72.6791
 20
199.472
 11
-73.1871
 21
199.103
  0
LINE
  8
0
 10
-73.1871
 20
199.103
 11
-73.6448
 21
198.673
  0
LINE
  8
0
 10
-73.6448
 20
198.673
 11
-74.0451
 21
198.189
  0
LINE
  8
0
 10
-74.0451
 20
198.189
 11
-74.3815
 21
197.659
  0
LINE
  8
0
 10
-74.3815
 20
197.659
 11
-74.6489
 21
197.091
  0
LINE
  8
0
 10
-74.6489
 20
197.091
 11
-74.8429
 21
196.493
  0
LINE
  8
0
 10
-74.8429
 20
196.493
 11
-74.9606
 21
195.877
  0
LINE
  8
0
 10
-74.9606
 20
195.877
 11
-75
 21
195.25
  0
LINE
  8
0
 10
-75
 20
195.25
 11
-75
 21
182.75
  0
LINE
  8
0
 10
-75
 20
182.75
 11
-74.9606
 21
182.123
  0
LINE
  8
0
 10
-74.9606
 20
182.123
 11
-74.8429
 21
181.507
  0
LINE
  8
0
 10
-74.8429
 20
181.507
 11
-74.6489
 21
180.909
  0
LINE
  8
0
 10
-74.6489
 20
180.909
 11
-74.3815
 21
180.341
  0
LINE
  8
0
 10
-74.3815
 20
180.341
 11
-74.0451
 21
179.811
  0
LINE
  8
0
 10
-74.0451
 20
179.811
 11
-73.6448
 21
179.327
  0
LINE
  8
0
 10
-73.6448
 20
179.327
 11
-73.1871
 21
178.897
  0
LINE
  8
0
 10
-73.1871
 20
178.897
 11
-72.6791
 21
178.528
  0
LINE
  8
0
 10
-72.6791
 20
178.528
 11
-72.1289
 21
178.226
  0
LINE
  8
0
 10
-72.1289
 20
178.226
 11
-71.5451
 21
177.995
  0
LINE
  8
0
 10
-71.5451
 20
177.995
 11
-70.9369
 21
177.839
  0
LINE
  8
0
 10
-70.9369
 20
177.839
 11
-70.3139
 21
177.76
  0
LINE
  8
0
 10
-70.3139
 20
177.76
 11
70.3139
 21
177.76
  0
LINE
  8
0
 10
70.3139
 20
177.76
 11
70.9369
 21
177.839
  0
LINE
  8
0
 10
-69.7432
 20
179.385
 11
-70.2256
 21
179.446
  0
LINE
  8
0
 10
-70.2256
 20
179.446
 11
-70.6967
 21
179.567
  0
LINE
  8
0
 10
-70.6967
 20
179.567
 11
-71.1489
 21
179.746
  0
LINE
  8
0
 10
-71.1489
 20
179.746
 11
-71.5751
 21
179.98
  0
LINE
  8
0
 10
-71.5751
 20
179.98
 11
-71.9685
 21
180.266
  0
LINE
  8
0
 10
-71.9685
 20
180.266
 11
-72.323
 21
180.599
  0
LINE
  8
0
 10
-72.323
 20
180.599
 11
-72.633
 21
180.974
  0
LINE
  8
0
 10
-72.633
 20
180.974
 11
-72.8936
 21
181.384
  0
LINE
  8
0
 10
-72.8936
 20
181.384
 11
-73.1007
 21
181.824
  0
LINE
  8
0
 10
-73.1007
 20
181.824
 11
-73.251
 21
182.287
  0
LINE
  8
0
 10
-73.251
 20
182.287
 11
-73.3421
 21
182.765
  0
LINE
  8
0
 10
-73.3421
 20
182.765
 11
-73.3726
 21
183.25
  0
LINE
  8
0
 10
-73.3726
 20
183.25
 11
-73.3726
 21
194.75
  0
LINE
  8
0
 10
-73.3726
 20
194.75
 11
-73.3421
 21
195.235
  0
LINE
  8
0
 10
-73.3421
 20
195.235
 11
-73.251
 21
195.713
  0
LINE
  8
0
 10
-73.251
 20
195.713
 11
-73.1007
 21
196.176
  0
LINE
  8
0
 10
-73.1007
 20
196.176
 11
-72.8936
 21
196.616
  0
LINE
  8
0
 10
-72.8936
 20
196.616
 11
-72.633
 21
197.026
  0
LINE
  8
0
 10
-72.633
 20
197.026
 11
-72.323
 21
197.401
  0
LINE
  8
0
 10
-72.323
 20
197.401
 11
-71.9685
 21
197.734
  0
LINE
  8
0
 10
-71.9685
 20
197.734
 11
-71.5751
 21
198.02
  0
LINE
  8
0
 10
-71.5751
 20
198.02
 11
-71.1489
 21
198.254
  0
LINE
  8
0
 10
-71.1489
 20
198.254
 11
-70.6967
 21
198.433
  0
LINE
  8
0
 10
-70.6967
 20
198.433
 11
-70.2256
 21
198.554
  0
LINE
  8
0
 10
-70.2256
 20
198.554
 11
-69.7432
 21
198.615
  0
LINE
  8
0
 10
-69.7432
 20
198.615
 11
69.7432
 21
198.615
  0
LINE
  8
0
 10
69.7432
 20
198.615
 11
70.2256
 21
198.554
  0
LINE
  8
0
 10
70.2256
 20
198.554
 11
70.6967
 21
198.433
  0
LINE
  8
0
 10
70.6967
 20
198.433
 11
71.1489
 21
198.254
  0
LINE
  8
0
 10
71.1489
 20
198.254
 11
71.5751
 21
198.02
  0
LINE
  8
0
 10
71.5751
 20
198.02
 11
71.9685
 21
197.734
  0
LINE
  8
0
 10
71.9685
 20
197.734
 11
72.323
 21
197.401
  0
LINE
  8
0
 10
72.323
 20
197.401
 11
72.633
 21
197.026
  0
LINE
  8
0
 10
72.633
 20
197.026
 11
72.8936
 21
196.616
  0
LINE
  8
0
 10
72.8936
 20
196.616
 11
73.1007
 21
196.176
  0
LINE
  8
0
 10
73.1007
 20
196.176
 11
73.251
 21
195.713
  0
LINE
  8
0
 10
73.251
 20
195.713
 11
73.3421
 21
195.235
  0
LINE
  8
0
 10
73.3421
 20
195.235
 11
73.3726
 21
194.75
  0
LINE
  8
0
 10
73.3726
 20
194.75
 11
73.3726
 21
183.25
  0
LINE
  8
0
 10
73.3726
 20
183.25
 11
73.3421
 21
182.765
  0
LINE
  8
0
 10
73.3421
 20
182.765
 11
73.251
 21
182.287
  0
LINE
  8
0
 10
73.251
 20
182.287
 11
73.1007
 21
181.824
  0
LINE
  8
0
 10
73.1007
 20
181.824
 11
72.8936
 21
181.384
  0
LINE
  8
0
 10
72.8936
 20
181.384
 11
72.633
 21
180.974
  0
LINE
  8
0
 10
72.633
 20
180.974
 11
72.323
 21
180.599
  0
LINE
  8
0
 10
72.323
 20
180.599
 11
71.9685
 21
180.266
  0
LINE
  8
0
 10
71.9685
 20
180.266
 11
71.5751
 21
179.98
  0
LINE
  8
0
 10
71.5751
 20
179.98
 11
71.1489
 21
179.746
  0
LINE
  8
0
 10
71.1489
 20
179.746
 11
70.6967
 21
179.567
  0
LINE
  8
0
 10
70.6967
 20
179.567
 11
70.2256
 21
179.446
  0
LINE
  8
0
 10
70.2256
 20
179.446
 11
69.7432
 21
179.385
  0
LINE
  8
0
 10
69.7432
 20
179.385
 11
-69.7432
 21
179.385
  0
LINE
  8
0
 10
70.9369
 20
146.339
 11
71.5451
 21
146.495
  0
LINE
  8
0
 10
71.5451
 20
146.495
 11
72.1289
 21
146.726
  0
LINE
  8
0
 10
72.1289
 20
146.726
 11
72.6791
 21
147.028
  0
LINE
  8
0
 10
72.6791
 20
147.028
 11
73.1871
 21
147.397
  0
LINE
  8
0
 10
73.1871
 20
147.397
 11
73.6448
 21
147.827
  0
LINE
  8
0
 10
73.6448
 20
147.827
 11
74.0451
 21
148.311
  0
LINE
  8
0
 10
74.0451
 20
148.311
 11
74.3815
 21
148.841
  0
LINE
  8
0
 10
74.3815
 20
148.841
 11
74.6489
 21
149.409
  0
LINE
  8
0
 10
74.6489
 20
149.409
 11
74.8429
 21
150.007
  0
LINE
  8
0
 10
74.8429
 20
150.007
 11
74.9606
 21
150.623
  0
LINE
  8
0
 10
74.9606
 20
150.623
 11
75
 21
151.25
  0
LINE
  8
0
 10
75
 20
151.25
 11
75
 21
163.75
  0
LINE
  8
0
 10
75
 20
163.75
 11
74.9606
 21
164.377
  0
LINE
  8
0
 10
74.9606
 20
164.377
 11
74.8429
 21
164.993
  0
LINE
  8
0
 10
74.8429
 20
164.993
 11
74.6489
 21
165.591
  0
LINE
  8
0
 10
74.6489
 20
165.591
 11
74.3815
 21
166.159
  0
LINE
  8
0
 10
74.3815
 20
166.159
 11
74.0451
 21
166.689
  0
LINE
  8
0
 10
74.0451
 20
166.689
 11
73.6448
 21
167.173
  0
LINE
  8
0
 10
73.6448
 20
167.173
 11
73.1871
 21
167.603
  0
LINE
  8
0
 10
73.1871
 20
167.603
 11
72.6791
 21
167.972
  0
LINE
  8
0
 10
72.6791
 20
167.972
 11
72.1289
 21
168.274
  0
LINE
  8
0
 10
72.1289
 20
168.274
 11
71.5451
 21
168.505
  0
LINE
  8
0
 10
71.5451
 20
168.505
 11
70.9369
 21
168.661
  0
LINE
  8
0
 10
70.9369
 20
168.661
 11
70.3139
 21
168.74
  0
LINE
  8
0
 10
70.3139
 20
168.74
 11
-70.3139
 21
168.74
  0
LINE
  8
0
 10
-70.3139
 20
168.74
 11
-70.9369
 21
168.661
  0
LINE
  8
0
 10
-70.9369
 20
168.661
 11
-71.5451
 21
168.505
  0
LINE
  8
0
 10
-71.5451
 20
168.505
 11
-72.1289
 21
168.274
  0
LINE
  8
0
 10
-72.1289
 20
168.274
 11
-72.6791
 21
167.972
  0
LINE
  8
0
 10
-72.6791
 20
167.972
 11
-73.1871
 21
167.603
  0
LINE
  8
0
 10
-73.1871
 20
167.603
 11
-73.6448
 21
167.173
  0
LINE
  8
0
 10
-73.6448
 20
167.173
 11
-74.0451
 21
166.689
  0
LINE
  8
0
 10
-74.0451
 20
166.689
 11
-74.3815
 21
166.159
  0
LINE
  8
0
 10
-74.3815
 20
166.159
 11
-74.6489
 21
165.591
  0
LINE
  8
0
 10
-74.6489
 20
165.591
 11
-74.8429
 21
164.993
  0
LINE
  8
0
 10
-74.8429
 20
164.993
 11
-74.9606
 21
164.377
  0
LINE
  8
0
 10
-74.9606
 20
164.377
 11
-75
 21
163.75
  0
LINE
  8
0
 10
-75
 20
163.75
 11
-75
 21
151.25
  0
LINE
  8
0
 10
-75
 20
151.25
 11
-74.9606
 21
150.623
  0
LINE
  8
0
 10
-74.9606
 20
150.623
 11
-74.8429
 21
150.007
  0
LINE
  8
0
 10
-74.8429
 20
150.007
 11
-74.6489
 21
149.409
  0
LINE
  8
0
 10
-74.6489
 20
149.409
 11
-74.3815
 21
148.841
  0
LINE
  8
0
 10
-74.3815
 20
148.841
 11
-74.0451
 21
148.311
  0
LINE
  8
0
 10
-74.0451
 20
148.311
 11
-73.6448
 21
147.827
  0
LINE
  8
0
 10
-73.6448
 20
147.827
 11
-73.1871
 21
147.397
  0
LINE
  8
0
 10
-73.1871
 20
147.397
 11
-72.6791
 21
147.028
  0
LINE
  8
0
 10
-72.6791
 20
147.028
 11
-72.1289
 21
146.726
  0
LINE
  8
0
 10
-72.1289
 20
146.726
 11
-71.5451
 21
146.495
  0
LINE
  8
0
 10
-71.5451
 20
146.495
 11
-70.9369
 21
146.339
  0
LINE
  8
0
 10
-70.9369
 20
146.339
 11
-70.3139
 21
146.26
  0
LINE
  8
0
 10
-70.3139
 20
146.26
 11
70.3139
 21
146.26
  0
LINE
  8
0
 10
70.3139
 20
146.26
 11
70.9369
 21
146.339
  0
LINE
  8
0
 10
67.3493
 20
158.855
 11
67.0503
 21
158.893
  0
LINE
  8
0
 10
67.0503
 20
158.893
 11
66.7584
 21
158.967
  0
LINE
  8
0
 10
66.7584
 20
158.967
 11
66.4781
 21
159.078
  0
LINE
  8
0
 10
66.4781
 20
159.078
 11
66.214
 21
159.224
  0
LINE
  8
0
 10
66.214
 20
159.224
 11
65.9702
 21
159.401
  0
LINE
  8
0
 10
65.9702
 20
159.401
 11
65.7505
 21
159.607
  0
LINE
  8
0
 10
65.7505
 20
159.607
 11
65.5583
 21
159.839
  0
LINE
  8
0
 10
65.5583
 20
159.839
 11
65.3969
 21
160.094
  0
LINE
  8
0
 10
65.3969
 20
160.094
 11
65.2685
 21
160.367
  0
LINE
  8
0
 10
65.2685
 20
160.367
 11
65.1754
 21
160.653
  0
LINE
  8
0
 10
65.1754
 20
160.653
 11
65.1189
 21
160.949
  0
LINE
  8
0
 10
65.1189
 20
160.949
 11
65.1
 21
161.25
  0
LINE
  8
0
 10
65.1
 20
161.25
 11
65.1189
 21
161.551
  0
LINE
  8
0
 10
65.1189
 20
161.551
 11
65.1754
 21
161.847
  0
LINE
  8
0
 10
65.1754
 20
161.847
 11
65.2685
 21
162.133
  0
LINE
  8
0
 10
65.2685
 20
162.133
 11
65.3969
 21
162.406
  0
LINE
  8
0
 10
65.3969
 20
162.406
 11
65.5583
 21
162.661
  0
LINE
  8
0
 10
65.5583
 20
162.661
 11
65.7505
 21
162.893
  0
LINE
  8
0
 10
65.7505
 20
162.893
 11
65.9702
 21
163.099
  0
LINE
  8
0
 10
65.9702
 20
163.099
 11
66.214
 21
163.276
  0
LINE
  8
0
 10
66.214
 20
163.276
 11
66.4781
 21
163.422
  0
LINE
  8
0
 10
66.4781
 20
163.422
 11
66.7584
 21
163.533
  0
LINE
  8
0
 10
66.7584
 20
163.533
 11
67.0503
 21
163.607
  0
LINE
  8
0
 10
67.0503
 20
163.607
 11
67.3493
 21
163.645
  0
LINE
  8
0
 10
67.3493
 20
163.645
 11
67.6507
 21
163.645
  0
LINE
  8
0
 10
67.6507
 20
163.645
 11
67.9497
 21
163.607
  0
LINE
  8
0
 10
67.9497
 20
163.607
 11
68.2416
 21
163.533
  0
LINE
  8
0
 10
68.2416
 20
163.533
 11
68.5219
 21
163.422
  0
LINE
  8
0
 10
68.5219
 20
163.422
 11
68.786
 21
163.276
  0
LINE
  8
0
 10
68.786
 20
163.276
 11
69.0298
 21
163.099
  0
LINE
  8
0
 10
69.0298
 20
163.099
 11
69.2495
 21
162.893
  0
LINE
  8
0
 10
69.2495
 20
162.893
 11
69.4416
 21
162.661
  0
LINE
  8
0
 10
69.4416
 20
162.661
 11
69.6031
 21
162.406
  0
LINE
  8
0
 10
69.6031
 20
162.406
 11
69.7315
 21
162.133
  0
LINE
  8
0
 10
69.7315
 20
162.133
 11
69.8246
 21
161.847
  0
LINE
  8
0
 10
69.8246
 20
161.847
 11
69.8811
 21
161.551
  0
LINE
  8
0
 10
69.8811
 20
161.551
 11
69.9
 21
161.25
  0
LINE
  8
0
 10
69.9
 20
161.25
 11
69.8811
 21
160.949
  0
LINE
  8
0
 10
69.8811
 20
160.949
 11
69.8246
 21
160.653
  0
LINE
  8
0
 10
69.8246
 20
160.653
 11
69.7315
 21
160.367
  0
LINE
  8
0
 10
69.7315
 20
160.367
 11
69.6031
 21
160.094
  0
LINE
  8
0
 10
69.6031
 20
160.094
 11
69.4416
 21
159.839
  0
LINE
  8
0
 10
69.4416
 20
159.839
 11
69.2495
 21
159.607
  0
LINE
  8
0
 10
69.2495
 20
159.607
 11
69.0298
 21
159.401
  0
LINE
  8
0
 10
69.0298
 20
159.401
 11
68.786
 21
159.224
  0
LINE
  8
0
 10
68.786
 20
159.224
 11
68.5219
 21
159.078
  0
LINE
  8
0
 10
68.5219
 20
159.078
 11
68.2416
 21
158.967
  0
LINE
  8
0
 10
68.2416
 20
158.967
 11
67.9497
 21
158.893
  0
LINE
  8
0
 10
67.9497
 20
158.893
 11
67.6507
 21
158.855
  0
LINE
  8
0
 10
67.6507
 20
158.855
 11
67.3493
 21
158.855
  0
LINE
  8
0
 10
-67.6507
 20
158.855
 11
-67.9497
 21
158.893
  0
LINE
  8
0
 10
-67.9497
 20
158.893
 11
-68.2416
 21
158.967
  0
LINE
  8
0
 10
-68.2416
 20
158.967
 11
-68.5219
 21
159.078
  0
LINE
  8
0
 10
-68.5219
 20
159.078
 11
-68.786
 21
159.224
  0
LINE
  8
0
 10
-68.786
 20
159.224
 11
-69.0298
 21
159.401
  0
LINE
  8
0
 10
-69.0298
 20
159.401
 11
-69.2495
 21
159.607
  0
LINE
  8
0
 10
-69.2495
 20
159.607
 11
-69.4416
 21
159.839
  0
LINE
  8
0
 10
-69.4416
 20
159.839
 11
-69.6031
 21
160.094
  0
LINE
  8
0
 10
-69.6031
 20
160.094
 11
-69.7315
 21
160.367
  0
LINE
  8
0
 10
-69.7315
 20
160.367
 11
-69.8246
 21
160.653
  0
LINE
  8
0
 10
-69.8246
 20
160.653
 11
-69.8811
 21
160.949
  0
LINE
  8
0
 10
-69.8811
 20
160.949
 11
-69.9
 21
161.25
  0
LINE
  8
0
 10
-69.9
 20
161.25
 11
-69.8811
 21
161.551
  0
LINE
  8
0
 10
-69.8811
 20
161.551
 11
-69.8246
 21
161.847
  0
LINE
  8
0
 10
-69.8246
 20
161.847
 11
-69.7315
 21
162.133
  0
LINE
  8
0
 10
-69.7315
 20
162.133
 11
-69.6031
 21
162.406
  0
LINE
  8
0
 10
-69.6031
 20
162.406
 11
-69.4416
 21
162.661
  0
LINE
  8
0
 10
-69.4416
 20
162.661
 11
-69.2495
 21
162.893
  0
LINE
  8
0
 10
-69.2495
 20
162.893
 11
-69.0298
 21
163.099
  0
LINE
  8
0
 10
-69.0298
 20
163.099
 11
-68.786
 21
163.276
  0
LINE
  8
0
 10
-68.786
 20
163.276
 11
-68.5219
 21
163.422
  0
LINE
  8
0
 10
-68.5219
 20
163.422
 11
-68.2416
 21
163.533
  0
LINE
  8
0
 10
-68.2416
 20
163.533
 11
-67.9497
 21
163.607
  0
LINE
  8
0
 10
-67.9497
 20
163.607
 11
-67.6507
 21
163.645
  0
LINE
  8
0
 10
-67.6507
 20
163.645
 11
-67.3493
 21
163.645
  0
LINE
  8
0
 10
-67.3493
 20
163.645
 11
-67.0503
 21
163.607
  0
LINE
  8
0
 10
-67.0503
 20
163.607
 11
-66.7584
 21
163.533
  0
LINE
  8
0
 10
-66.7584
 20
163.533
 11
-66.4781
 21
163.422
  0
LINE
  8
0
 10
-66.4781
 20
163.422
 11
-66.214
 21
163.276
  0
LINE
  8
0
 10
-66.214
 20
163.276
 11
-65.9702
 21
163.099
  0
LINE
  8
0
 10
-65.9702
 20
163.099
 11
-65.7505
 21
162.893
  0
LINE
  8
0
 10
-65.7505
 20
162.893
 11
-65.5583
 21
162.661
  0
LINE
  8
0
 10
-65.5583
 20
162.661
 11
-65.3969
 21
162.406
  0
LINE
  8
0
 10
-65.3969
 20
162.406
 11
-65.2685
 21
162.133
  0
LINE
  8
0
 10
-65.2685
 20
162.133
 11
-65.1754
 21
161.847
  0
LINE
  8
0
 10
-65.1754
 20
161.847
 11
-65.1189
 21
161.551
  0
LINE
  8
0
 10
-65.1189
 20
161.551
 11
-65.1
 21
161.25
  0
LINE
  8
0
 10
-65.1
 20
161.25
 11
-65.1189
 21
160.949
  0
LINE
  8
0
 10
-65.1189
 20
160.949
 11
-65.1754
 21
160.653
  0
LINE
  8
0
 10
-65.1754
 20
160.653
 11
-65.2685
 21
160.367
  0
LINE
  8
0
 10
-65.2685
 20
160.367
 11
-65.3969
 21
160.094
  0
LINE
  8
0
 10
-65.3969
 20
160.094
 11
-65.5583
 21
159.839
  0
LINE
  8
0
 10
-65.5583
 20
159.839
 11
-65.7505
 21
159.607
  0
LINE
  8
0
 10
-65.7505
 20
159.607
 11
-65.9702
 21
159.401
  0
LINE
  8
0
 10
-65.9702
 20
159.401
 11
-66.214
 21
159.224
  0
LINE
  8
0
 10
-66.214
 20
159.224
 11
-66.4781
 21
159.078
  0
LINE
  8
0
 10
-66.4781
 20
159.078
 11
-66.7584
 21
158.967
  0
LINE
  8
0
 10
-66.7584
 20
158.967
 11
-67.0503
 21
158.893
  0
LINE
  8
0
 10
-67.0503
 20
158.893
 11
-67.3493
 21
158.855
  0
LINE
  8
0
 10
-67.3493
 20
158.855
 11
-67.6507
 21
158.855
  0
LINE
  8
0
 10
67.3493
 20
151.355
 11
67.0503
 21
151.393
  0
LINE
  8
0
 10
67.0503
 20
151.393
 11
66.7584
 21
151.467
  0
LINE
  8
0
 10
66.7584
 20
151.467
 11
66.4781
 21
151.578
  0
LINE
  8
0
 10
66.4781
 20
151.578
 11
66.214
 21
151.724
  0
LINE
  8
0
 10
66.214
 20
151.724
 11
65.9702
 21
151.901
  0
LINE
  8
0
 10
65.9702
 20
151.901
 11
65.7505
 21
152.107
  0
LINE
  8
0
 10
65.7505
 20
152.107
 11
65.5583
 21
152.339
  0
LINE
  8
0
 10
65.5583
 20
152.339
 11
65.3969
 21
152.594
  0
LINE
  8
0
 10
65.3969
 20
152.594
 11
65.2685
 21
152.867
  0
LINE
  8
0
 10
65.2685
 20
152.867
 11
65.1754
 21
153.153
  0
LINE
  8
0
 10
65.1754
 20
153.153
 11
65.1189
 21
153.449
  0
LINE
  8
0
 10
65.1189
 20
153.449
 11
65.1
 21
153.75
  0
LINE
  8
0
 10
65.1
 20
153.75
 11
65.1189
 21
154.051
  0
LINE
  8
0
 10
65.1189
 20
154.051
 11
65.1754
 21
154.347
  0
LINE
  8
0
 10
65.1754
 20
154.347
 11
65.2685
 21
154.633
  0
LINE
  8
0
 10
65.2685
 20
154.633
 11
65.3969
 21
154.906
  0
LINE
  8
0
 10
65.3969
 20
154.906
 11
65.5583
 21
155.161
  0
LINE
  8
0
 10
65.5583
 20
155.161
 11
65.7505
 21
155.393
  0
LINE
  8
0
 10
65.7505
 20
155.393
 11
65.9702
 21
155.599
  0
LINE
  8
0
 10
65.9702
 20
155.599
 11
66.214
 21
155.776
  0
LINE
  8
0
 10
66.214
 20
155.776
 11
66.4781
 21
155.922
  0
LINE
  8
0
 10
66.4781
 20
155.922
 11
66.7584
 21
156.033
  0
LINE
  8
0
 10
66.7584
 20
156.033
 11
67.0503
 21
156.107
  0
LINE
  8
0
 10
67.0503
 20
156.107
 11
67.3493
 21
156.145
  0
LINE
  8
0
 10
67.3493
 20
156.145
 11
67.6507
 21
156.145
  0
LINE
  8
0
 10
67.6507
 20
156.145
 11
67.9497
 21
156.107
  0
LINE
  8
0
 10
67.9497
 20
156.107
 11
68.2416
 21
156.033
  0
LINE
  8
0
 10
68.2416
 20
156.033
 11
68.5219
 21
155.922
  0
LINE
  8
0
 10
68.5219
 20
155.922
 11
68.786
 21
155.776
  0
LINE
  8
0
 10
68.786
 20
155.776
 11
69.0298
 21
155.599
  0
LINE
  8
0
 10
69.0298
 20
155.599
 11
69.2495
 21
155.393
  0
LINE
  8
0
 10
69.2495
 20
155.393
 11
69.4416
 21
155.161
  0
LINE
  8
0
 10
69.4416
 20
155.161
 11
69.6031
 21
154.906
  0
LINE
  8
0
 10
69.6031
 20
154.906
 11
69.7315
 21
154.633
  0
LINE
  8
0
 10
69.7315
 20
154.633
 11
69.8246
 21
154.347
  0
LINE
  8
0
 10
69.8246
 20
154.347
 11
69.8811
 21
154.051
  0
LINE
  8
0
 10
69.8811
 20
154.051
 11
69.9
 21
153.75
  0
LINE
  8
0
 10
69.9
 20
153.75
 11
69.8811
 21
153.449
  0
LINE
  8
0
 10
69.8811
 20
153.449
 11
69.8246
 21
153.153
  0
LINE
  8
0
 10
69.8246
 20
153.153
 11
69.7315
 21
152.867
  0
LINE
  8
0
 10
69.7315
 20
152.867
 11
69.6031
 21
152.594
  0
LINE
  8
0
 10
69.6031
 20
152.594
 11
69.4416
 21
152.339
  0
LINE
  8
0
 10
69.4416
 20
152.339
 11
69.2495
 21
152.107
  0
LINE
  8
0
 10
69.2495
 20
152.107
 11
69.0298
 21
151.901
  0
LINE
  8
0
 10
69.0298
 20
151.901
 11
68.786
 21
151.724
  0
LINE
  8
0
 10
68.786
 20
151.724
 11
68.5219
 21
151.578
  0
LINE
  8
0
 10
68.5219
 20
151.578
 11
68.2416
 21
151.467
  0
LINE
  8
0
 10
68.2416
 20
151.467
 11
67.9497
 21
151.393
  0
LINE
  8
0
 10
67.9497
 20
151.393
 11
67.6507
 21
151.355
  0
LINE
  8
0
 10
67.6507
 20
151.355
 11
67.3493
 21
151.355
  0
LINE
  8
0
 10
-67.6507
 20
151.355
 11
-67.9497
 21
151.393
  0
LINE
  8
0
 10
-67.9497
 20
151.393
 11
-68.2416
 21
151.467
  0
LINE
  8
0
 10
-68.2416
 20
151.467
 11
-68.5219
 21
151.578
  0
LINE
  8
0
 10
-68.5219
 20
151.578
 11
-68.786
 21
151.724
  0
LINE
  8
0
 10
-68.786
 20
151.724
 11
-69.0298
 21
151.901
  0
LINE
  8
0
 10
-69.0298
 20
151.901
 11
-69.2495
 21
152.107
  0
LINE
  8
0
 10
-69.2495
 20
152.107
 11
-69.4416
 21
152.339
  0
LINE
  8
0
 10
-69.4416
 20
152.339
 11
-69.6031
 21
152.594
  0
LINE
  8
0
 10
-69.6031
 20
152.594
 11
-69.7315
 21
152.867
  0
LINE
  8
0
 10
-69.7315
 20
152.867
 11
-69.8246
 21
153.153
  0
LINE
  8
0
 10
-69.8246
 20
153.153
 11
-69.8811
 21
153.449
  0
LINE
  8
0
 10
-69.8811
 20
153.449
 11
-69.9
 21
153.75
  0
LINE
  8
0
 10
-69.9
 20
153.75
 11
-69.8811
 21
154.051
  0
LINE
  8
0
 10
-69.8811
 20
154.051
 11
-69.8246
 21
154.347
  0
LINE
  8
0
 10
-69.8246
 20
154.347
 11
-69.7315
 21
154.633
  0
LINE
  8
0
 10
-69.7315
 20
154.633
 11
-69.6031
 21
154.906
  0
LINE
  8
0
 10
-69.6031
 20
154.906
 11
-69.4416
 21
155.161
  0
LINE
  8
0
 10
-69.4416
 20
155.161
 11
-69.2495
 21
155.393
  0
LINE
  8
0
 10
-69.2495
 20
155.393
 11
-69.0298
 21
155.599
  0
LINE
  8
0
 10
-69.0298
 20
155.599
 11
-68.786
 21
155.776
  0
LINE
  8
0
 10
-68.786
 20
155.776
 11
-68.5219
 21
155.922
  0
LINE
  8
0
 10
-68.5219
 20
155.922
 11
-68.2416
 21
156.033
  0
LINE
  8
0
 10
-68.2416
 20
156.033
 11
-67.9497
 21
156.107
  0
LINE
  8
0
 10
-67.9497
 20
156.107
 11
-67.6507
 21
156.145
  0
LINE
  8
0
 10
-67.6507
 20
156.145
 11
-67.3493
 21
156.145
  0
LINE
  8
0
 10
-67.3493
 20
156.145
 11
-67.0503
 21
156.107
  0
LINE
  8
0
 10
-67.0503
 20
156.107
 11
-66.7584
 21
156.033
  0
LINE
  8
0
 10
-66.7584
 20
156.033
 11
-66.4781
 21
155.922
  0
LINE
  8
0
 10
-66.4781
 20
155.922
 11
-66.214
 21
155.776
  0
LINE
  8
0
 10
-66.214
 20
155.776
 11
-65.9702
 21
155.599
  0
LINE
  8
0
 10
-65.9702
 20
155.599
 11
-65.7505
 21
155.393
  0
LINE
  8
0
 10
-65.7505
 20
155.393
 11
-65.5583
 21
155.161
  0
LINE
  8
0
 10
-65.5583
 20
155.161
 11
-65.3969
 21
154.906
  0
LINE
  8
0
 10
-65.3969
 20
154.906
 11
-65.2685
 21
154.633
  0
LINE
  8
0
 10
-65.2685
 20
154.633
 11
-65.1754
 21
154.347
  0
LINE
  8
0
 10
-65.1754
 20
154.347
 11
-65.1189
 21
154.051
  0
LINE
  8
0
 10
-65.1189
 20
154.051
 11
-65.1
 21
153.75
  0
LINE
  8
0
 10
-65.1
 20
153.75
 11
-65.1189
 21
153.449
  0
LINE
  8
0
 10
-65.1189
 20
153.449
 11
-65.1754
 21
153.153
  0
LINE
  8
0
 10
-65.1754
 20
153.153
 11
-65.2685
 21
152.867
  0
LINE
  8
0
 10
-65.2685
 20
152.867
 11
-65.3969
 21
152.594
  0
LINE
  8
0
 10
-65.3969
 20
152.594
 11
-65.5583
 21
152.339
  0
LINE
  8
0
 10
-65.5583
 20
152.339
 11
-65.7505
 21
152.107
  0
LINE
  8
0
 10
-65.7505
 20
152.107
 11
-65.9702
 21
151.901
  0
LINE
  8
0
 10
-65.9702
 20
151.901
 11
-66.214
 21
151.724
  0
LINE
  8
0
 10
-66.214
 20
151.724
 11
-66.4781
 21
151.578
  0
LINE
  8
0
 10
-66.4781
 20
151.578
 11
-66.7584
 21
151.467
  0
LINE
  8
0
 10
-66.7584
 20
151.467
 11
-67.0503
 21
151.393
  0
LINE
  8
0
 10
-67.0503
 20
151.393
 11
-67.3493
 21
151.355
  0
LINE
  8
0
 10
-67.3493
 20
151.355
 11
-67.6507
 21
151.355
  0
LINE
  8
0
 10
70.9369
 20
114.839
 11
71.5451
 21
114.995
  0
LINE
  8
0
 10
71.5451
 20
114.995
 11
72.1289
 21
115.226
  0
LINE
  8
0
 10
72.1289
 20
115.226
 11
72.6791
 21
115.528
  0
LINE
  8
0
 10
72.6791
 20
115.528
 11
73.1871
 21
115.897
  0
LINE
  8
0
 10
73.1871
 20
115.897
 11
73.6448
 21
116.327
  0
LINE
  8
0
 10
73.6448
 20
116.327
 11
74.0451
 21
116.811
  0
LINE
  8
0
 10
74.0451
 20
116.811
 11
74.3815
 21
117.341
  0
LINE
  8
0
 10
74.3815
 20
117.341
 11
74.6489
 21
117.909
  0
LINE
  8
0
 10
74.6489
 20
117.909
 11
74.8429
 21
118.507
  0
LINE
  8
0
 10
74.8429
 20
118.507
 11
74.9606
 21
119.123
  0
LINE
  8
0
 10
74.9606
 20
119.123
 11
75
 21
119.75
  0
LINE
  8
0
 10
75
 20
119.75
 11
75
 21
132.25
  0
LINE
  8
0
 10
75
 20
132.25
 11
74.9606
 21
132.877
  0
LINE
  8
0
 10
74.9606
 20
132.877
 11
74.8429
 21
133.493
  0
LINE
  8
0
 10
74.8429
 20
133.493
 11
74.6489
 21
134.091
  0
LINE
  8
0
 10
74.6489
 20
134.091
 11
74.3815
 21
134.659
  0
LINE
  8
0
 10
74.3815
 20
134.659
 11
74.0451
 21
135.189
  0
LINE
  8
0
 10
74.0451
 20
135.189
 11
73.6448
 21
135.673
  0
LINE
  8
0
 10
73.6448
 20
135.673
 11
73.1871
 21
136.103
  0
LINE
  8
0
 10
73.1871
 20
136.103
 11
72.6791
 21
136.472
  0
LINE
  8
0
 10
72.6791
 20
136.472
 11
72.1289
 21
136.774
  0
LINE
  8
0
 10
72.1289
 20
136.774
 11
71.5451
 21
137.005
  0
LINE
  8
0
 10
71.5451
 20
137.005
 11
70.9369
 21
137.161
  0
LINE
  8
0
 10
70.9369
 20
137.161
 11
70.3139
 21
137.24
  0
LINE
  8
0
 10
70.3139
 20
137.24
 11
-70.3139
 21
137.24
  0
LINE
  8
0
 10
-70.3139
 20
137.24
 11
-70.9369
 21
137.161
  0
LINE
  8
0
 10
-70.9369
 20
137.161
 11
-71.5451
 21
137.005
  0
LINE
  8
0
 10
-71.5451
 20
137.005
 11
-72.1289
 21
136.774
  0
LINE
  8
0
 10
-72.1289
 20
136.774
 11
-72.6791
 21
136.472
  0
LINE
  8
0
 10
-72.6791
 20
136.472
 11
-73.1871
 21
136.103
  0
LINE
  8
0
 10
-73.1871
 20
136.103
 11
-73.6448
 21
135.673
  0
LINE
  8
0
 10
-73.6448
 20
135.673
 11
-74.0451
 21
135.189
  0
LINE
  8
0
 10
-74.0451
 20
135.189
 11
-74.3815
 21
134.659
  0
LINE
  8
0
 10
-74.3815
 20
134.659
 11
-74.6489
 21
134.091
  0
LINE
  8
0
 10
-74.6489
 20
134.091
 11
-74.8429
 21
133.493
  0
LINE
  8
0
 10
-74.8429
 20
133.493
 11
-74.9606
 21
132.877
  0
LINE
  8
0
 10
-74.9606
 20
132.877
 11
-75
 21
132.25
  0
LINE
  8
0
 10
-75
 20
132.25
 11
-75
 21
119.75
  0
LINE
  8
0
 10
-75
 20
119.75
 11
-74.9606
 21
119.123
  0
LINE
  8
0
 10
-74.9606
 20
119.123
 11
-74.8429
 21
118.507
  0
LINE
  8
0
 10
-74.8429
 20
118.507
 11
-74.6489
 21
117.909
  0
LINE
  8
0
 10
-74.6489
 20
117.909
 11
-74.3815
 21
117.341
  0
LINE
  8
0
 10
-74.3815
 20
117.341
 11
-74.0451
 21
116.811
  0
LINE
  8
0
 10
-74.0451
 20
116.811
 11
-73.6448
 21
116.327
  0
LINE
  8
0
 10
-73.6448
 20
116.327
 11
-73.1871
 21
115.897
  0
LINE
  8
0
 10
-73.1871
 20
115.897
 11
-72.6791
 21
115.528
  0
LINE
  8
0
 10
-72.6791
 20
115.528
 11
-72.1289
 21
115.226
  0
LINE
  8
0
 10
-72.1289
 20
115.226
 11
-71.5451
 21
114.995
  0
LINE
  8
0
 10
-71.5451
 20
114.995
 11
-70.9369
 21
114.839
  0
LINE
  8
0
 10
-70.9369
 20
114.839
 11
-70.3139
 21
114.76
  0
LINE
  8
0
 10
-70.3139
 20
114.76
 11
70.3139
 21
114.76
  0
LINE
  8
0
 10
70.3139
 20
114.76
 11
70.9369
 21
114.839
  0
LINE
  8
0
 10
-67.613
 20
127.954
 11
-67.8373
 21
127.982
  0
LINE
  8
0
 10
-67.8373
 20
127.982
 11
-68.0562
 21
128.038
  0
LINE
  8
0
 10
-68.0562
 20
128.038
 11
-68.2664
 21
128.121
  0
LINE
  8
0
 10
-68.2664
 20
128.121
 11
-68.4645
 21
128.23
  0
LINE
  8
0
 10
-68.4645
 20
128.23
 11
-68.6474
 21
128.363
  0
LINE
  8
0
 10
-68.6474
 20
128.363
 11
-68.8121
 21
128.518
  0
LINE
  8
0
 10
-68.8121
 20
128.518
 11
-68.9562
 21
128.692
  0
LINE
  8
0
 10
-68.9562
 20
128.692
 11
-69.0773
 21
128.883
  0
LINE
  8
0
 10
-69.0773
 20
128.883
 11
-69.1736
 21
129.087
  0
LINE
  8
0
 10
-69.1736
 20
129.087
 11
-69.2434
 21
129.302
  0
LINE
  8
0
 10
-69.2434
 20
129.302
 11
-69.2858
 21
129.524
  0
LINE
  8
0
 10
-69.2858
 20
129.524
 11
-69.3
 21
129.75
  0
LINE
  8
0
 10
-69.3
 20
129.75
 11
-69.2858
 21
129.976
  0
LINE
  8
0
 10
-69.2858
 20
129.976
 11
-69.2434
 21
130.198
  0
LINE
  8
0
 10
-69.2434
 20
130.198
 11
-69.1736
 21
130.413
  0
LINE
  8
0
 10
-69.1736
 20
130.413
 11
-69.0773
 21
130.617
  0
LINE
  8
0
 10
-69.0773
 20
130.617
 11
-68.9562
 21
130.808
  0
LINE
  8
0
 10
-68.9562
 20
130.808
 11
-68.8121
 21
130.982
  0
LINE
  8
0
 10
-68.8121
 20
130.982
 11
-68.6474
 21
131.137
  0
LINE
  8
0
 10
-68.6474
 20
131.137
 11
-68.4645
 21
131.27
  0
LINE
  8
0
 10
-68.4645
 20
131.27
 11
-68.2664
 21
131.379
  0
LINE
  8
0
 10
-68.2664
 20
131.379
 11
-68.0562
 21
131.462
  0
LINE
  8
0
 10
-68.0562
 20
131.462
 11
-67.8373
 21
131.518
  0
LINE
  8
0
 10
-67.8373
 20
131.518
 11
-67.613
 21
131.546
  0
LINE
  8
0
 10
-67.613
 20
131.546
 11
-67.387
 21
131.546
  0
LINE
  8
0
 10
-67.387
 20
131.546
 11
-67.1627
 21
131.518
  0
LINE
  8
0
 10
-67.1627
 20
131.518
 11
-66.9438
 21
131.462
  0
LINE
  8
0
 10
-66.9438
 20
131.462
 11
-66.7336
 21
131.379
  0
LINE
  8
0
 10
-66.7336
 20
131.379
 11
-66.5355
 21
131.27
  0
LINE
  8
0
 10
-66.5355
 20
131.27
 11
-66.3526
 21
131.137
  0
LINE
  8
0
 10
-66.3526
 20
131.137
 11
-66.1879
 21
130.982
  0
LINE
  8
0
 10
-66.1879
 20
130.982
 11
-66.0438
 21
130.808
  0
LINE
  8
0
 10
-66.0438
 20
130.808
 11
-65.9226
 21
130.617
  0
LINE
  8
0
 10
-65.9226
 20
130.617
 11
-65.8264
 21
130.413
  0
LINE
  8
0
 10
-65.8264
 20
130.413
 11
-65.7565
 21
130.198
  0
LINE
  8
0
 10
-65.7565
 20
130.198
 11
-65.7142
 21
129.976
  0
LINE
  8
0
 10
-65.7142
 20
129.976
 11
-65.7
 21
129.75
  0
LINE
  8
0
 10
-65.7
 20
129.75
 11
-65.7142
 21
129.524
  0
LINE
  8
0
 10
-65.7142
 20
129.524
 11
-65.7565
 21
129.302
  0
LINE
  8
0
 10
-65.7565
 20
129.302
 11
-65.8264
 21
129.087
  0
LINE
  8
0
 10
-65.8264
 20
129.087
 11
-65.9226
 21
128.883
  0
LINE
  8
0
 10
-65.9226
 20
128.883
 11
-66.0438
 21
128.692
  0
LINE
  8
0
 10
-66.0438
 20
128.692
 11
-66.1879
 21
128.518
  0
LINE
  8
0
 10
-66.1879
 20
128.518
 11
-66.3526
 21
128.363
  0
LINE
  8
0
 10
-66.3526
 20
128.363
 11
-66.5355
 21
128.23
  0
LINE
  8
0
 10
-66.5355
 20
128.23
 11
-66.7336
 21
128.121
  0
LINE
  8
0
 10
-66.7336
 20
128.121
 11
-66.9438
 21
128.038
  0
LINE
  8
0
 10
-66.9438
 20
128.038
 11
-67.1627
 21
127.982
  0
LINE
  8
0
 10
-67.1627
 20
127.982
 11
-67.387
 21
127.954
  0
LINE
  8
0
 10
-67.387
 20
127.954
 11
-67.613
 21
127.954
  0
LINE
  8
0
 10
67.387
 20
127.954
 11
67.1627
 21
127.982
  0
LINE
  8
0
 10
67.1627
 20
127.982
 11
66.9438
 21
128.038
  0
LINE
  8
0
 10
66.9438
 20
128.038
 11
66.7336
 21
128.121
  0
LINE
  8
0
 10
66.7336
 20
128.121
 11
66.5355
 21
128.23
  0
LINE
  8
0
 10
66.5355
 20
128.23
 11
66.3526
 21
128.363
  0
LINE
  8
0
 10
66.3526
 20
128.363
 11
66.1879
 21
128.518
  0
LINE
  8
0
 10
66.1879
 20
128.518
 11
66.0438
 21
128.692
  0
LINE
  8
0
 10
66.0438
 20
128.692
 11
65.9226
 21
128.883
  0
LINE
  8
0
 10
65.9226
 20
128.883
 11
65.8264
 21
129.087
  0
LINE
  8
0
 10
65.8264
 20
129.087
 11
65.7565
 21
129.302
  0
LINE
  8
0
 10
65.7565
 20
129.302
 11
65.7142
 21
129.524
  0
LINE
  8
0
 10
65.7142
 20
129.524
 11
65.7
 21
129.75
  0
LINE
  8
0
 10
65.7
 20
129.75
 11
65.7142
 21
129.976
  0
LINE
  8
0
 10
65.7142
 20
129.976
 11
65.7565
 21
130.198
  0
LINE
  8
0
 10
65.7565
 20
130.198
 11
65.8264
 21
130.413
  0
LINE
  8
0
 10
65.8264
 20
130.413
 11
65.9226
 21
130.617
  0
LINE
  8
0
 10
65.9226
 20
130.617
 11
66.0438
 21
130.808
  0
LINE
  8
0
 10
66.0438
 20
130.808
 11
66.1879
 21
130.982
  0
LINE
  8
0
 10
66.1879
 20
130.982
 11
66.3526
 21
131.137
  0
LINE
  8
0
 10
66.3526
 20
131.137
 11
66.5355
 21
131.27
  0
LINE
  8
0
 10
66.5355
 20
131.27
 11
66.7336
 21
131.379
  0
LINE
  8
0
 10
66.7336
 20
131.379
 11
66.9438
 21
131.462
  0
LINE
  8
0
 10
66.9438
 20
131.462
 11
67.1627
 21
131.518
  0
LINE
  8
0
 10
67.1627
 20
131.518
 11
67.387
 21
131.546
  0
LINE
  8
0
 10
67.387
 20
131.546
 11
67.613
 21
131.546
  0
LINE
  8
0
 10
67.613
 20
131.546
 11
67.8373
 21
131.518
  0
LINE
  8
0
 10
67.8373
 20
131.518
 11
68.0562
 21
131.462
  0
LINE
  8
0
 10
68.0562
 20
131.462
 11
68.2664
 21
131.379
  0
LINE
  8
0
 10
68.2664
 20
131.379
 11
68.4645
 21
131.27
  0
LINE
  8
0
 10
68.4645
 20
131.27
 11
68.6474
 21
131.137
  0
LINE
  8
0
 10
68.6474
 20
131.137
 11
68.8121
 21
130.982
  0
LINE
  8
0
 10
68.8121
 20
130.982
 11
68.9562
 21
130.808
  0
LINE
  8
0
 10
68.9562
 20
130.808
 11
69.0773
 21
130.617
  0
LINE
  8
0
 10
69.0773
 20
130.617
 11
69.1736
 21
130.413
  0
LINE
  8
0
 10
69.1736
 20
130.413
 11
69.2434
 21
130.198
  0
LINE
  8
0
 10
69.2434
 20
130.198
 11
69.2858
 21
129.976
  0
LINE
  8
0
 10
69.2858
 20
129.976
 11
69.3
 21
129.75
  0
LINE
  8
0
 10
69.3
 20
129.75
 11
69.2858
 21
129.524
  0
LINE
  8
0
 10
69.2858
 20
129.524
 11
69.2434
 21
129.302
  0
LINE
  8
0
 10
69.2434
 20
129.302
 11
69.1736
 21
129.087
  0
LINE
  8
0
 10
69.1736
 20
129.087
 11
69.0773
 21
128.883
  0
LINE
  8
0
 10
69.0773
 20
128.883
 11
68.9562
 21
128.692
  0
LINE
  8
0
 10
68.9562
 20
128.692
 11
68.8121
 21
128.518
  0
LINE
  8
0
 10
68.8121
 20
128.518
 11
68.6474
 21
128.363
  0
LINE
  8
0
 10
68.6474
 20
128.363
 11
68.4645
 21
128.23
  0
LINE
  8
0
 10
68.4645
 20
128.23
 11
68.2664
 21
128.121
  0
LINE
  8
0
 10
68.2664
 20
128.121
 11
68.0562
 21
128.038
  0
LINE
  8
0
 10
68.0562
 20
128.038
 11
67.8373
 21
127.982
  0
LINE
  8
0
 10
67.8373
 20
127.982
 11
67.613
 21
127.954
  0
LINE
  8
0
 10
67.613
 20
127.954
 11
67.387
 21
127.954
  0
LINE
  8
0
 10
67.387
 20
120.454
 11
67.1627
 21
120.482
  0
LINE
  8
0
 10
67.1627
 20
120.482
 11
66.9438
 21
120.538
  0
LINE
  8
0
 10
66.9438
 20
120.538
 11
66.7336
 21
120.621
  0
LINE
  8
0
 10
66.7336
 20
120.621
 11
66.5355
 21
120.73
  0
LINE
  8
0
 10
66.5355
 20
120.73
 11
66.3526
 21
120.863
  0
LINE
  8
0
 10
66.3526
 20
120.863
 11
66.1879
 21
121.018
  0
LINE
  8
0
 10
66.1879
 20
121.018
 11
66.0438
 21
121.192
  0
LINE
  8
0
 10
66.0438
 20
121.192
 11
65.9226
 21
121.383
  0
LINE
  8
0
 10
65.9226
 20
121.383
 11
65.8264
 21
121.587
  0
LINE
  8
0
 10
65.8264
 20
121.587
 11
65.7565
 21
121.802
  0
LINE
  8
0
 10
65.7565
 20
121.802
 11
65.7142
 21
122.024
  0
LINE
  8
0
 10
65.7142
 20
122.024
 11
65.7
 21
122.25
  0
LINE
  8
0
 10
65.7
 20
122.25
 11
65.7142
 21
122.476
  0
LINE
  8
0
 10
65.7142
 20
122.476
 11
65.7565
 21
122.698
  0
LINE
  8
0
 10
65.7565
 20
122.698
 11
65.8264
 21
122.913
  0
LINE
  8
0
 10
65.8264
 20
122.913
 11
65.9226
 21
123.117
  0
LINE
  8
0
 10
65.9226
 20
123.117
 11
66.0438
 21
123.308
  0
LINE
  8
0
 10
66.0438
 20
123.308
 11
66.1879
 21
123.482
  0
LINE
  8
0
 10
66.1879
 20
123.482
 11
66.3526
 21
123.637
  0
LINE
  8
0
 10
66.3526
 20
123.637
 11
66.5355
 21
123.77
  0
LINE
  8
0
 10
66.5355
 20
123.77
 11
66.7336
 21
123.879
  0
LINE
  8
0
 10
66.7336
 20
123.879
 11
66.9438
 21
123.962
  0
LINE
  8
0
 10
66.9438
 20
123.962
 11
67.1627
 21
124.018
  0
LINE
  8
0
 10
67.1627
 20
124.018
 11
67.387
 21
124.046
  0
LINE
  8
0
 10
67.387
 20
124.046
 11
67.613
 21
124.046
  0
LINE
  8
0
 10
67.613
 20
124.046
 11
67.8373
 21
124.018
  0
LINE
  8
0
 10
67.8373
 20
124.018
 11
68.0562
 21
123.962
  0
LINE
  8
0
 10
68.0562
 20
123.962
 11
68.2664
 21
123.879
  0
LINE
  8
0
 10
68.2664
 20
123.879
 11
68.4645
 21
123.77
  0
LINE
  8
0
 10
68.4645
 20
123.77
 11
68.6474
 21
123.637
  0
LINE
  8
0
 10
68.6474
 20
123.637
 11
68.8121
 21
123.482
  0
LINE
  8
0
 10
68.8121
 20
123.482
 11
68.9562
 21
123.308
  0
LINE
  8
0
 10
68.9562
 20
123.308
 11
69.0773
 21
123.117
  0
LINE
  8
0
 10
69.0773
 20
123.117
 11
69.1736
 21
122.913
  0
LINE
  8
0
 10
69.1736
 20
122.913
 11
69.2434
 21
122.698
  0
LINE
  8
0
 10
69.2434
 20
122.698
 11
69.2858
 21
122.476
  0
LINE
  8
0
 10
69.2858
 20
122.476
 11
69.3
 21
122.25
  0
LINE
  8
0
 10
69.3
 20
122.25
 11
69.2858
 21
122.024
  0
LINE
  8
0
 10
69.2858
 20
122.024
 11
69.2434
 21
121.802
  0
LINE
  8
0
 10
69.2434
 20
121.802
 11
69.1736
 21
121.587
  0
LINE
  8
0
 10
69.1736
 20
121.587
 11
69.0773
 21
121.383
  0
LINE
  8
0
 10
69.0773
 20
121.383
 11
68.9562
 21
121.192
  0
LINE
  8
0
 10
68.9562
 20
121.192
 11
68.8121
 21
121.018
  0
LINE
  8
0
 10
68.8121
 20
121.018
 11
68.6474
 21
120.863
  0
LINE
  8
0
 10
68.6474
 20
120.863
 11
68.4645
 21
120.73
  0
LINE
  8
0
 10
68.4645
 20
120.73
 11
68.2664
 21
120.621
  0
LINE
  8
0
 10
68.2664
 20
120.621
 11
68.0562
 21
120.538
  0
LINE
  8
0
 10
68.0562
 20
120.538
 11
67.8373
 21
120.482
  0
LINE
  8
0
 10
67.8373
 20
120.482
 11
67.613
 21
120.454
  0
LINE
  8
0
 10
67.613
 20
120.454
 11
67.387
 21
120.454
  0
LINE
  8
0
 10
-67.613
 20
120.454
 11
-67.8373
 21
120.482
  0
LINE
  8
0
 10
-67.8373
 20
120.482
 11
-68.0562
 21
120.538
  0
LINE
  8
0
 10
-68.0562
 20
120.538
 11
-68.2664
 21
120.621
  0
LINE
  8
0
 10
-68.2664
 20
120.621
 11
-68.4645
 21
120.73
  0
LINE
  8
0
 10
-68.4645
 20
120.73
 11
-68.6474
 21
120.863
  0
LINE
  8
0
 10
-68.6474
 20
120.863
 11
-68.8121
 21
121.018
  0
LINE
  8
0
 10
-68.8121
 20
121.018
 11
-68.9562
 21
121.192
  0
LINE
  8
0
 10
-68.9562
 20
121.192
 11
-69.0773
 21
121.383
  0
LINE
  8
0
 10
-69.0773
 20
121.383
 11
-69.1736
 21
121.587
  0
LINE
  8
0
 10
-69.1736
 20
121.587
 11
-69.2434
 21
121.802
  0
LINE
  8
0
 10
-69.2434
 20
121.802
 11
-69.2858
 21
122.024
  0
LINE
  8
0
 10
-69.2858
 20
122.024
 11
-69.3
 21
122.25
  0
LINE
  8
0
 10
-69.3
 20
122.25
 11
-69.2858
 21
122.476
  0
LINE
  8
0
 10
-69.2858
 20
122.476
 11
-69.2434
 21
122.698
  0
LINE
  8
0
 10
-69.2434
 20
122.698
 11
-69.1736
 21
122.913
  0
LINE
  8
0
 10
-69.1736
 20
122.913
 11
-69.0773
 21
123.117
  0
LINE
  8
0
 10
-69.0773
 20
123.117
 11
-68.9562
 21
123.308
  0
LINE
  8
0
 10
-68.9562
 20
123.308
 11
-68.8121
 21
123.482
  0
LINE
  8
0
 10
-68.8121
 20
123.482
 11
-68.6474
 21
123.637
  0
LINE
  8
0
 10
-68.6474
 20
123.637
 11
-68.4645
 21
123.77
  0
LINE
  8
0
 10
-68.4645
 20
123.77
 11
-68.2664
 21
123.879
  0
LINE
  8
0
 10
-68.2664
 20
123.879
 11
-68.0562
 21
123.962
  0
LINE
  8
0
 10
-68.0562
 20
123.962
 11
-67.8373
 21
124.018
  0
LINE
  8
0
 10
-67.8373
 20
124.018
 11
-67.613
 21
124.046
  0
LINE
  8
0
 10
-67.613
 20
124.046
 11
-67.387
 21
124.046
  0
LINE
  8
0
 10
-67.387
 20
124.046
 11
-67.1627
 21
124.018
  0
LINE
  8
0
 10
-67.1627
 20
124.018
 11
-66.9438
 21
123.962
  0
LINE
  8
0
 10
-66.9438
 20
123.962
 11
-66.7336
 21
123.879
  0
LINE
  8
0
 10
-66.7336
 20
123.879
 11
-66.5355
 21
123.77
  0
LINE
  8
0
 10
-66.5355
 20
123.77
 11
-66.3526
 21
123.637
  0
LINE
  8
0
 10
-66.3526
 20
123.637
 11
-66.1879
 21
123.482
  0
LINE
  8
0
 10
-66.1879
 20
123.482
 11
-66.0438
 21
123.308
  0
LINE
  8
0
 10
-66.0438
 20
123.308
 11
-65.9226
 21
123.117
  0
LINE
  8
0
 10
-65.9226
 20
123.117
 11
-65.8264
 21
122.913
  0
LINE
  8
0
 10
-65.8264
 20
122.913
 11
-65.7565
 21
122.698
  0
LINE
  8
0
 10
-65.7565
 20
122.698
 11
-65.7142
 21
122.476
  0
LINE
  8
0
 10
-65.7142
 20
122.476
 11
-65.7
 21
122.25
  0
LINE
  8
0
 10
-65.7
 20
122.25
 11
-65.7142
 21
122.024
  0
LINE
  8
0
 10
-65.7142
 20
122.024
 11
-65.7565
 21
121.802
  0
LINE
  8
0
 10
-65.7565
 20
121.802
 11
-65.8264
 21
121.587
  0
LINE
  8
0
 10
-65.8264
 20
121.587
 11
-65.9226
 21
121.383
  0
LINE
  8
0
 10
-65.9226
 20
121.383
 11
-66.0438
 21
121.192
  0
LINE
  8
0
 10
-66.0438
 20
121.192
 11
-66.1879
 21
121.018
  0
LINE
  8
0
 10
-66.1879
 20
121.018
 11
-66.3526
 21
120.863
  0
LINE
  8
0
 10
-66.3526
 20
120.863
 11
-66.5355
 21
120.73
  0
LINE
  8
0
 10
-66.5355
 20
120.73
 11
-66.7336
 21
120.621
  0
LINE
  8
0
 10
-66.7336
 20
120.621
 11
-66.9438
 21
120.538
  0
LINE
  8
0
 10
-66.9438
 20
120.538
 11
-67.1627
 21
120.482
  0
LINE
  8
0
 10
-67.1627
 20
120.482
 11
-67.387
 21
120.454
  0
LINE
  8
0
 10
-67.387
 20
120.454
 11
-67.613
 21
120.454
  0
ENDSEC
  0
SECTION
  2
OBJECTS
  0
DICTIONARY
  0
ENDSEC
  0
EOF
