  0
SECTION
  2
BLOCKS
  0
ENDSEC
  0
SECTION
  2
ENTITIES
  0
LINE
  8
0
 10
100.937
 20
252.089
 11
101.545
 21
252.245
  0
LINE
  8
0
 10
101.545
 20
252.245
 11
102.129
 21
252.476
  0
LINE
  8
0
 10
102.129
 20
252.476
 11
102.679
 21
252.778
  0
LINE
  8
0
 10
102.679
 20
252.778
 11
103.187
 21
253.147
  0
LINE
  8
0
 10
103.187
 20
253.147
 11
103.645
 21
253.577
  0
LINE
  8
0
 10
103.645
 20
253.577
 11
104.045
 21
254.061
  0
LINE
  8
0
 10
104.045
 20
254.061
 11
104.382
 21
254.591
  0
LINE
  8
0
 10
104.382
 20
254.591
 11
104.649
 21
255.159
  0
LINE
  8
0
 10
104.649
 20
255.159
 11
104.843
 21
255.757
  0
LINE
  8
0
 10
104.843
 20
255.757
 11
104.961
 21
256.373
  0
LINE
  8
0
 10
104.961
 20
256.373
 11
105
 21
257
  0
LINE
  8
0
 10
105
 20
257
 11
105
 21
337
  0
LINE
  8
0
 10
105
 20
337
 11
104.961
 21
337.627
  0
LINE
  8
0
 10
104.961
 20
337.627
 11
104.843
 21
338.243
  0
LINE
  8
0
 10
104.843
 20
338.243
 11
104.649
 21
338.841
  0
LINE
  8
0
 10
104.649
 20
338.841
 11
104.382
 21
339.409
  0
LINE
  8
0
 10
104.382
 20
339.409
 11
104.045
 21
339.939
  0
LINE
  8
0
 10
104.045
 20
339.939
 11
103.645
 21
340.423
  0
LINE
  8
0
 10
103.645
 20
340.423
 11
103.187
 21
340.853
  0
LINE
  8
0
 10
103.187
 20
340.853
 11
102.679
 21
341.222
  0
LINE
  8
0
 10
102.679
 20
341.222
 11
102.129
 21
341.524
  0
LINE
  8
0
 10
102.129
 20
341.524
 11
101.545
 21
341.755
  0
LINE
  8
0
 10
101.545
 20
341.755
 11
100.937
 21
341.911
  0
LINE
  8
0
 10
100.937
 20
341.911
 11
100.314
 21
341.99
  0
LINE
  8
0
 10
100.314
 20
341.99
 11
-100.314
 21
341.99
  0
LINE
  8
0
 10
-100.314
 20
341.99
 11
-100.937
 21
341.911
  0
LINE
  8
0
 10
-100.937
 20
341.911
 11
-101.545
 21
341.755
  0
LINE
  8
0
 10
-101.545
 20
341.755
 11
-102.129
 21
341.524
  0
LINE
  8
0
 10
-102.129
 20
341.524
 11
-102.679
 21
341.222
  0
LINE
  8
0
 10
-102.679
 20
341.222
 11
-103.187
 21
340.853
  0
LINE
  8
0
 10
-103.187
 20
340.853
 11
-103.645
 21
340.423
  0
LINE
  8
0
 10
-103.645
 20
340.423
 11
-104.045
 21
339.939
  0
LINE
  8
0
 10
-104.045
 20
339.939
 11
-104.382
 21
339.409
  0
LINE
  8
0
 10
-104.382
 20
339.409
 11
-104.649
 21
338.841
  0
LINE
  8
0
 10
-104.649
 20
338.841
 11
-104.843
 21
338.243
  0
LINE
  8
0
 10
-104.843
 20
338.243
 11
-104.961
 21
337.627
  0
LINE
  8
0
 10
-104.961
 20
337.627
 11
-105
 21
337
  0
LINE
  8
0
 10
-105
 20
337
 11
-105
 21
257
  0
LINE
  8
0
 10
-105
 20
257
 11
-104.961
 21
256.373
  0
LINE
  8
0
 10
-104.961
 20
256.373
 11
-104.843
 21
255.757
  0
LINE
  8
0
 10
-104.843
 20
255.757
 11
-104.649
 21
255.159
  0
LINE
  8
0
 10
-104.649
 20
255.159
 11
-104.382
 21
254.591
  0
LINE
  8
0
 10
-104.382
 20
254.591
 11
-104.045
 21
254.061
  0
LINE
  8
0
 10
-104.045
 20
254.061
 11
-103.645
 21
253.577
  0
LINE
  8
0
 10
-103.645
 20
253.577
 11
-103.187
 21
253.147
  0
LINE
  8
0
 10
-103.187
 20
253.147
 11
-102.679
 21
252.778
  0
LINE
  8
0
 10
-102.679
 20
252.778
 11
-102.129
 21
252.476
  0
LINE
  8
0
 10
-102.129
 20
252.476
 11
-101.545
 21
252.245
  0
LINE
  8
0
 10
-101.545
 20
252.245
 11
-100.937
 21
252.089
  0
LINE
  8
0
 10
-100.937
 20
252.089
 11
-100.314
 21
252.01
  0
LINE
  8
0
 10
-100.314
 20
252.01
 11
100.314
 21
252.01
  0
LINE
  8
0
 10
100.314
 20
252.01
 11
100.937
 21
252.089
  0
LINE
  8
0
 10
-100.037
 20
252.681
 11
-100.608
 21
252.753
  0
LINE
  8
0
 10
-100.608
 20
252.753
 11
-101.165
 21
252.896
  0
LINE
  8
0
 10
-101.165
 20
252.896
 11
-101.699
 21
253.107
  0
LINE
  8
0
 10
-101.699
 20
253.107
 11
-102.203
 21
253.384
  0
LINE
  8
0
 10
-102.203
 20
253.384
 11
-102.668
 21
253.722
  0
LINE
  8
0
 10
-102.668
 20
253.722
 11
-103.088
 21
254.116
  0
LINE
  8
0
 10
-103.088
 20
254.116
 11
-103.454
 21
254.559
  0
LINE
  8
0
 10
-103.454
 20
254.559
 11
-103.762
 21
255.044
  0
LINE
  8
0
 10
-103.762
 20
255.044
 11
-104.007
 21
255.565
  0
LINE
  8
0
 10
-104.007
 20
255.565
 11
-104.185
 21
256.111
  0
LINE
  8
0
 10
-104.185
 20
256.111
 11
-104.292
 21
256.676
  0
LINE
  8
0
 10
-104.292
 20
256.676
 11
-104.328
 21
257.25
  0
LINE
  8
0
 10
-104.328
 20
257.25
 11
-104.328
 21
336.75
  0
LINE
  8
0
 10
-104.328
 20
336.75
 11
-104.292
 21
337.324
  0
LINE
  8
0
 10
-104.292
 20
337.324
 11
-104.185
 21
337.889
  0
LINE
  8
0
 10
-104.185
 20
337.889
 11
-104.007
 21
338.435
  0
LINE
  8
0
 10
-104.007
 20
338.435
 11
-103.762
 21
338.956
  0
LINE
  8
0
 10
-103.762
 20
338.956
 11
-103.454
 21
339.441
  0
LINE
  8
0
 10
-103.454
 20
339.441
 11
-103.088
 21
339.884
  0
LINE
  8
0
 10
-103.088
 20
339.884
 11
-102.668
 21
340.278
  0
LINE
  8
0
 10
-102.668
 20
340.278
 11
-102.203
 21
340.616
  0
LINE
  8
0
 10
-102.203
 20
340.616
 11
-101.699
 21
340.893
  0
LINE
  8
0
 10
-101.699
 20
340.893
 11
-101.165
 21
341.104
  0
LINE
  8
0
 10
-101.165
 20
341.104
 11
-100.608
 21
341.247
  0
LINE
  8
0
 10
-100.608
 20
341.247
 11
-100.037
 21
341.319
  0
LINE
  8
0
 10
-100.037
 20
341.319
 11
100.037
 21
341.319
  0
LINE
  8
0
 10
100.037
 20
341.319
 11
100.608
 21
341.247
  0
LINE
  8
0
 10
100.608
 20
341.247
 11
101.165
 21
341.104
  0
LINE
  8
0
 10
101.165
 20
341.104
 11
101.699
 21
340.893
  0
LINE
  8
0
 10
101.699
 20
340.893
 11
102.203
 21
340.616
  0
LINE
  8
0
 10
102.203
 20
340.616
 11
102.668
 21
340.278
  0
LINE
  8
0
 10
102.668
 20
340.278
 11
103.088
 21
339.884
  0
LINE
  8
0
 10
103.088
 20
339.884
 11
103.454
 21
339.441
  0
LINE
  8
0
 10
103.454
 20
339.441
 11
103.762
 21
338.956
  0
LINE
  8
0
 10
103.762
 20
338.956
 11
104.007
 21
338.435
  0
LINE
  8
0
 10
104.007
 20
338.435
 11
104.185
 21
337.889
  0
LINE
  8
0
 10
104.185
 20
337.889
 11
104.292
 21
337.324
  0
LINE
  8
0
 10
104.292
 20
337.324
 11
104.328
 21
336.75
  0
LINE
  8
0
 10
104.328
 20
336.75
 11
104.328
 21
257.25
  0
LINE
  8
0
 10
104.328
 20
257.25
 11
104.292
 21
256.676
  0
LINE
  8
0
 10
104.292
 20
256.676
 11
104.185
 21
256.111
  0
LINE
  8
0
 10
104.185
 20
256.111
 11
104.007
 21
255.565
  0
LINE
  8
0
 10
104.007
 20
255.565
 11
103.762
 21
255.044
  0
LINE
  8
0
 10
103.762
 20
255.044
 11
103.454
 21
254.559
  0
LINE
  8
0
 10
103.454
 20
254.559
 11
103.088
 21
254.116
  0
LINE
  8
0
 10
103.088
 20
254.116
 11
102.668
 21
253.722
  0
LINE
  8
0
 10
102.668
 20
253.722
 11
102.203
 21
253.384
  0
LINE
  8
0
 10
102.203
 20
253.384
 11
101.699
 21
253.107
  0
LINE
  8
0
 10
101.699
 20
253.107
 11
101.165
 21
252.896
  0
LINE
  8
0
 10
101.165
 20
252.896
 11
100.608
 21
252.753
  0
LINE
  8
0
 10
100.608
 20
252.753
 11
100.037
 21
252.681
  0
LINE
  8
0
 10
100.037
 20
252.681
 11
-100.037
 21
252.681
  0
LINE
  8
0
 10
100.937
 20
153.089
 11
101.545
 21
153.245
  0
LINE
  8
0
 10
101.545
 20
153.245
 11
102.129
 21
153.476
  0
LINE
  8
0
 10
102.129
 20
153.476
 11
102.679
 21
153.778
  0
LINE
  8
0
 10
102.679
 20
153.778
 11
103.187
 21
154.147
  0
LINE
  8
0
 10
103.187
 20
154.147
 11
103.645
 21
154.577
  0
LINE
  8
0
 10
103.645
 20
154.577
 11
104.045
 21
155.061
  0
LINE
  8
0
 10
104.045
 20
155.061
 11
104.382
 21
155.591
  0
LINE
  8
0
 10
104.382
 20
155.591
 11
104.649
 21
156.159
  0
LINE
  8
0
 10
104.649
 20
156.159
 11
104.843
 21
156.757
  0
LINE
  8
0
 10
104.843
 20
156.757
 11
104.961
 21
157.373
  0
LINE
  8
0
 10
104.961
 20
157.373
 11
105
 21
158
  0
LINE
  8
0
 10
105
 20
158
 11
105
 21
238
  0
LINE
  8
0
 10
105
 20
238
 11
104.961
 21
238.627
  0
LINE
  8
0
 10
104.961
 20
238.627
 11
104.843
 21
239.243
  0
LINE
  8
0
 10
104.843
 20
239.243
 11
104.649
 21
239.841
  0
LINE
  8
0
 10
104.649
 20
239.841
 11
104.382
 21
240.409
  0
LINE
  8
0
 10
104.382
 20
240.409
 11
104.045
 21
240.939
  0
LINE
  8
0
 10
104.045
 20
240.939
 11
103.645
 21
241.423
  0
LINE
  8
0
 10
103.645
 20
241.423
 11
103.187
 21
241.853
  0
LINE
  8
0
 10
103.187
 20
241.853
 11
102.679
 21
242.222
  0
LINE
  8
0
 10
102.679
 20
242.222
 11
102.129
 21
242.524
  0
LINE
  8
0
 10
102.129
 20
242.524
 11
101.545
 21
242.755
  0
LINE
  8
0
 10
101.545
 20
242.755
 11
100.937
 21
242.911
  0
LINE
  8
0
 10
100.937
 20
242.911
 11
100.314
 21
242.99
  0
LINE
  8
0
 10
100.314
 20
242.99
 11
-100.314
 21
242.99
  0
LINE
  8
0
 10
-100.314
 20
242.99
 11
-100.937
 21
242.911
  0
LINE
  8
0
 10
-100.937
 20
242.911
 11
-101.545
 21
242.755
  0
LINE
  8
0
 10
-101.545
 20
242.755
 11
-102.129
 21
242.524
  0
LINE
  8
0
 10
-102.129
 20
242.524
 11
-102.679
 21
242.222
  0
LINE
  8
0
 10
-102.679
 20
242.222
 11
-103.187
 21
241.853
  0
LINE
  8
0
 10
-103.187
 20
241.853
 11
-103.645
 21
241.423
  0
LINE
  8
0
 10
-103.645
 20
241.423
 11
-104.045
 21
240.939
  0
LINE
  8
0
 10
-104.045
 20
240.939
 11
-104.382
 21
240.409
  0
LINE
  8
0
 10
-104.382
 20
240.409
 11
-104.649
 21
239.841
  0
LINE
  8
0
 10
-104.649
 20
239.841
 11
-104.843
 21
239.243
  0
LINE
  8
0
 10
-104.843
 20
239.243
 11
-104.961
 21
238.627
  0
LINE
  8
0
 10
-104.961
 20
238.627
 11
-105
 21
238
  0
LINE
  8
0
 10
-105
 20
238
 11
-105
 21
158
  0
LINE
  8
0
 10
-105
 20
158
 11
-104.961
 21
157.373
  0
LINE
  8
0
 10
-104.961
 20
157.373
 11
-104.843
 21
156.757
  0
LINE
  8
0
 10
-104.843
 20
156.757
 11
-104.649
 21
156.159
  0
LINE
  8
0
 10
-104.649
 20
156.159
 11
-104.382
 21
155.591
  0
LINE
  8
0
 10
-104.382
 20
155.591
 11
-104.045
 21
155.061
  0
LINE
  8
0
 10
-104.045
 20
155.061
 11
-103.645
 21
154.577
  0
LINE
  8
0
 10
-103.645
 20
154.577
 11
-103.187
 21
154.147
  0
LINE
  8
0
 10
-103.187
 20
154.147
 11
-102.679
 21
153.778
  0
LINE
  8
0
 10
-102.679
 20
153.778
 11
-102.129
 21
153.476
  0
LINE
  8
0
 10
-102.129
 20
153.476
 11
-101.545
 21
153.245
  0
LINE
  8
0
 10
-101.545
 20
153.245
 11
-100.937
 21
153.089
  0
LINE
  8
0
 10
-100.937
 20
153.089
 11
-100.314
 21
153.01
  0
LINE
  8
0
 10
-100.314
 20
153.01
 11
100.314
 21
153.01
  0
LINE
  8
0
 10
100.314
 20
153.01
 11
100.937
 21
153.089
  0
LINE
  8
0
 10
-99.8825
 20
156.145
 11
-100.145
 21
156.178
  0
LINE
  8
0
 10
-100.145
 20
156.178
 11
-100.402
 21
156.244
  0
LINE
  8
0
 10
-100.402
 20
156.244
 11
-100.648
 21
156.341
  0
LINE
  8
0
 10
-100.648
 20
156.341
 11
-100.88
 21
156.469
  0
LINE
  8
0
 10
-100.88
 20
156.469
 11
-101.095
 21
156.625
  0
LINE
  8
0
 10
-101.095
 20
156.625
 11
-101.288
 21
156.806
  0
LINE
  8
0
 10
-101.288
 20
156.806
 11
-101.457
 21
157.01
  0
LINE
  8
0
 10
-101.457
 20
157.01
 11
-101.599
 21
157.234
  0
LINE
  8
0
 10
-101.599
 20
157.234
 11
-101.711
 21
157.473
  0
LINE
  8
0
 10
-101.711
 20
157.473
 11
-101.793
 21
157.725
  0
LINE
  8
0
 10
-101.793
 20
157.725
 11
-101.843
 21
157.986
  0
LINE
  8
0
 10
-101.843
 20
157.986
 11
-101.86
 21
158.25
  0
LINE
  8
0
 10
-101.86
 20
158.25
 11
-101.86
 21
237.75
  0
LINE
  8
0
 10
-101.86
 20
237.75
 11
-101.843
 21
238.014
  0
LINE
  8
0
 10
-101.843
 20
238.014
 11
-101.793
 21
238.275
  0
LINE
  8
0
 10
-101.793
 20
238.275
 11
-101.711
 21
238.527
  0
LINE
  8
0
 10
-101.711
 20
238.527
 11
-101.599
 21
238.766
  0
LINE
  8
0
 10
-101.599
 20
238.766
 11
-101.457
 21
238.99
  0
LINE
  8
0
 10
-101.457
 20
238.99
 11
-101.288
 21
239.194
  0
LINE
  8
0
 10
-101.288
 20
239.194
 11
-101.095
 21
239.375
  0
LINE
  8
0
 10
-101.095
 20
239.375
 11
-100.88
 21
239.531
  0
LINE
  8
0
 10
-100.88
 20
239.531
 11
-100.648
 21
239.659
  0
LINE
  8
0
 10
-100.648
 20
239.659
 11
-100.402
 21
239.756
  0
LINE
  8
0
 10
-100.402
 20
239.756
 11
-100.145
 21
239.822
  0
LINE
  8
0
 10
-100.145
 20
239.822
 11
-99.8825
 21
239.855
  0
LINE
  8
0
 10
-99.8825
 20
239.855
 11
99.8825
 21
239.855
  0
LINE
  8
0
 10
99.8825
 20
239.855
 11
100.145
 21
239.822
  0
LINE
  8
0
 10
100.145
 20
239.822
 11
100.402
 21
239.756
  0
LINE
  8
0
 10
100.402
 20
239.756
 11
100.648
 21
239.659
  0
LINE
  8
0
 10
100.648
 20
239.659
 11
100.88
 21
239.531
  0
LINE
  8
0
 10
100.88
 20
239.531
 11
101.095
 21
239.375
  0
LINE
  8
0
 10
101.095
 20
239.375
 11
101.288
 21
239.194
  0
LINE
  8
0
 10
101.288
 20
239.194
 11
101.457
 21
238.99
  0
LINE
  8
0
 10
101.457
 20
238.99
 11
101.599
 21
238.766
  0
LINE
  8
0
 10
101.599
 20
238.766
 11
101.711
 21
238.527
  0
LINE
  8
0
 10
101.711
 20
238.527
 11
101.793
 21
238.275
  0
LINE
  8
0
 10
101.793
 20
238.275
 11
101.843
 21
238.014
  0
LINE
  8
0
 10
101.843
 20
238.014
 11
101.86
 21
237.75
  0
LINE
  8
0
 10
101.86
 20
237.75
 11
101.86
 21
158.25
  0
LINE
  8
0
 10
101.86
 20
158.25
 11
101.843
 21
157.986
  0
LINE
  8
0
 10
101.843
 20
157.986
 11
101.793
 21
157.725
  0
LINE
  8
0
 10
101.793
 20
157.725
 11
101.711
 21
157.473
  0
LINE
  8
0
 10
101.711
 20
157.473
 11
101.599
 21
157.234
  0
LINE
  8
0
 10
101.599
 20
157.234
 11
101.457
 21
157.01
  0
LINE
  8
0
 10
101.457
 20
157.01
 11
101.288
 21
156.806
  0
LINE
  8
0
 10
101.288
 20
156.806
 11
101.095
 21
156.625
  0
LINE
  8
0
 10
101.095
 20
156.625
 11
100.88
 21
156.469
  0
LINE
  8
0
 10
100.88
 20
156.469
 11
100.648
 21
156.341
  0
LINE
  8
0
 10
100.648
 20
156.341
 11
100.402
 21
156.244
  0
LINE
  8
0
 10
100.402
 20
156.244
 11
100.145
 21
156.178
  0
LINE
  8
0
 10
100.145
 20
156.178
 11
99.8825
 21
156.145
  0
LINE
  8
0
 10
99.8825
 20
156.145
 11
-99.8825
 21
156.145
  0
ENDSEC
  0
SECTION
  2
OBJECTS
  0
DICTIONARY
  0
ENDSEC
  0
EOF
