<?xml version="1.0" standalone="no"?>
<!DOCTYPE svg PUBLIC "-//W3C//DTD SVG 1.1//EN" "http://www.w3.org/Graphics/SVG/1.1/DTD/svg11.dtd">
<svg width="150mm" height="1236mm" viewBox="-75 -2112 150 1236" xmlns="http://www.w3.org/2000/svg" version="1.1">
<title>OpenSCAD Model</title>
<path d="
M 70.9369,-1872.09 L 71.5451,-1872.24 L 72.1289,-1872.48 L 72.6791,-1872.78 L 73.1871,-1873.15 L 73.6448,-1873.58
 L 74.0451,-1874.06 L 74.3815,-1874.59 L 74.6489,-1875.16 L 74.8429,-1875.76 L 74.9606,-1876.37 L 75,-1877
 L 75,-2107 L 74.9606,-2107.63 L 74.8429,-2108.24 L 74.6489,-2108.84 L 74.3815,-2109.41 L 74.0451,-2109.94
 L 73.6448,-2110.42 L 73.1871,-2110.85 L 72.6791,-2111.22 L 72.1289,-2111.52 L 71.5451,-2111.76 L 70.9369,-2111.91
 L 70.3139,-2111.99 L -70.3139,-2111.99 L -70.9369,-2111.91 L -71.5451,-2111.76 L -72.1289,-2111.52 L -72.6791,-2111.22
 L -73.1871,-2110.85 L -73.6448,-2110.42 L -74.0451,-2109.94 L -74.3815,-2109.41 L -74.6489,-2108.84 L -74.8429,-2108.24
 L -74.9606,-2107.63 L -75,-2107 L -75,-1877 L -74.9606,-1876.37 L -74.8429,-1875.76 L -74.6489,-1875.16
 L -74.3815,-1874.59 L -74.0451,-1874.06 L -73.6448,-1873.58 L -73.1871,-1873.15 L -72.6791,-1872.78 L -72.1289,-1872.48
 L -71.5451,-1872.24 L -70.9369,-1872.09 L -70.3139,-1872.01 L 70.3139,-1872.01 z
M -69.7512,-1873.51 L -70.2495,-1873.57 L -70.7361,-1873.7 L -71.2031,-1873.88 L -71.6433,-1874.12 L -72.0497,-1874.42
 L -72.4159,-1874.76 L -72.7361,-1875.15 L -73.0052,-1875.57 L -73.2191,-1876.03 L -73.3743,-1876.51 L -73.4685,-1877
 L -73.5,-1877.5 L -73.5,-2106.5 L -73.4685,-2107 L -73.3743,-2107.49 L -73.2191,-2107.97 L -73.0052,-2108.43
 L -72.7361,-2108.85 L -72.4159,-2109.24 L -72.0497,-2109.58 L -71.6433,-2109.88 L -71.2031,-2110.12 L -70.7361,-2110.3
 L -70.2495,-2110.43 L -69.7512,-2110.49 L 69.7512,-2110.49 L 70.2495,-2110.43 L 70.7361,-2110.3 L 71.2031,-2110.12
 L 71.6433,-2109.88 L 72.0497,-2109.58 L 72.4159,-2109.24 L 72.7361,-2108.85 L 73.0052,-2108.43 L 73.2191,-2107.97
 L 73.3743,-2107.49 L 73.4685,-2107 L 73.5,-2106.5 L 73.5,-1877.5 L 73.4685,-1877 L 73.3743,-1876.51
 L 73.2191,-1876.03 L 73.0052,-1875.57 L 72.7361,-1875.15 L 72.4159,-1874.76 L 72.0497,-1874.42 L 71.6433,-1874.12
 L 71.2031,-1873.88 L 70.7361,-1873.7 L 70.2495,-1873.57 L 69.7512,-1873.51 z
M 70.9369,-1623.09 L 71.5451,-1623.24 L 72.1289,-1623.48 L 72.6791,-1623.78 L 73.1871,-1624.15 L 73.6448,-1624.58
 L 74.0451,-1625.06 L 74.3815,-1625.59 L 74.6489,-1626.16 L 74.8429,-1626.76 L 74.9606,-1627.37 L 75,-1628
 L 75,-1858 L 74.9606,-1858.63 L 74.8429,-1859.24 L 74.6489,-1859.84 L 74.3815,-1860.41 L 74.0451,-1860.94
 L 73.6448,-1861.42 L 73.1871,-1861.85 L 72.6791,-1862.22 L 72.1289,-1862.52 L 71.5451,-1862.76 L 70.9369,-1862.91
 L 70.3139,-1862.99 L -70.3139,-1862.99 L -70.9369,-1862.91 L -71.5451,-1862.76 L -72.1289,-1862.52 L -72.6791,-1862.22
 L -73.1871,-1861.85 L -73.6448,-1861.42 L -74.0451,-1860.94 L -74.3815,-1860.41 L -74.6489,-1859.84 L -74.8429,-1859.24
 L -74.9606,-1858.63 L -75,-1858 L -75,-1628 L -74.9606,-1627.37 L -74.8429,-1626.76 L -74.6489,-1626.16
 L -74.3815,-1625.59 L -74.0451,-1625.06 L -73.6448,-1624.58 L -73.1871,-1624.15 L -72.6791,-1623.78 L -72.1289,-1623.48
 L -71.5451,-1623.24 L -70.9369,-1623.09 L -70.3139,-1623.01 L 70.3139,-1623.01 z
M -69.7512,-1624.51 L -70.2495,-1624.57 L -70.7361,-1624.7 L -71.2031,-1624.88 L -71.6433,-1625.12 L -72.0497,-1625.42
 L -72.4159,-1625.76 L -72.7361,-1626.15 L -73.0052,-1626.57 L -73.2191,-1627.03 L -73.3743,-1627.51 L -73.4685,-1628
 L -73.5,-1628.5 L -73.5,-1857.5 L -73.4685,-1858 L -73.3743,-1858.49 L -73.2191,-1858.97 L -73.0052,-1859.43
 L -72.7361,-1859.85 L -72.4159,-1860.24 L -72.0497,-1860.58 L -71.6433,-1860.88 L -71.2031,-1861.12 L -70.7361,-1861.3
 L -70.2495,-1861.43 L -69.7512,-1861.49 L 69.7512,-1861.49 L 70.2495,-1861.43 L 70.7361,-1861.3 L 71.2031,-1861.12
 L 71.6433,-1860.88 L 72.0497,-1860.58 L 72.4159,-1860.24 L 72.7361,-1859.85 L 73.0052,-1859.43 L 73.2191,-1858.97
 L 73.3743,-1858.49 L 73.4685,-1858 L 73.5,-1857.5 L 73.5,-1628.5 L 73.4685,-1628 L 73.3743,-1627.51
 L 73.2191,-1627.03 L 73.0052,-1626.57 L 72.7361,-1626.15 L 72.4159,-1625.76 L 72.0497,-1625.42 L 71.6433,-1625.12
 L 71.2031,-1624.88 L 70.7361,-1624.7 L 70.2495,-1624.57 L 69.7512,-1624.51 z
M 70.9369,-1374.09 L 71.5451,-1374.24 L 72.1289,-1374.48 L 72.6791,-1374.78 L 73.1871,-1375.15 L 73.6448,-1375.58
 L 74.0451,-1376.06 L 74.3815,-1376.59 L 74.6489,-1377.16 L 74.8429,-1377.76 L 74.9606,-1378.37 L 75,-1379
 L 75,-1609 L 74.9606,-1609.63 L 74.8429,-1610.24 L 74.6489,-1610.84 L 74.3815,-1611.41 L 74.0451,-1611.94
 L 73.6448,-1612.42 L 73.1871,-1612.85 L 72.6791,-1613.22 L 72.1289,-1613.52 L 71.5451,-1613.76 L 70.9369,-1613.91
 L 70.3139,-1613.99 L -70.3139,-1613.99 L -70.9369,-1613.91 L -71.5451,-1613.76 L -72.1289,-1613.52 L -72.6791,-1613.22
 L -73.1871,-1612.85 L -73.6448,-1612.42 L -74.0451,-1611.94 L -74.3815,-1611.41 L -74.6489,-1610.84 L -74.8429,-1610.24
 L -74.9606,-1609.63 L -75,-1609 L -75,-1379 L -74.9606,-1378.37 L -74.8429,-1377.76 L -74.6489,-1377.16
 L -74.3815,-1376.59 L -74.0451,-1376.06 L -73.6448,-1375.58 L -73.1871,-1375.15 L -72.6791,-1374.78 L -72.1289,-1374.48
 L -71.5451,-1374.24 L -70.9369,-1374.09 L -70.3139,-1374.01 L 70.3139,-1374.01 z
M -69.7432,-1375.64 L -70.2256,-1375.7 L -70.6967,-1375.82 L -71.1489,-1376 L -71.5751,-1376.23 L -71.9685,-1376.52
 L -72.323,-1376.85 L -72.633,-1377.22 L -72.8936,-1377.63 L -73.1007,-1378.07 L -73.251,-1378.54 L -73.3421,-1379.01
 L -73.3726,-1379.5 L -73.3726,-1608.5 L -73.3421,-1608.99 L -73.251,-1609.46 L -73.1007,-1609.93 L -72.8936,-1610.37
 L -72.633,-1610.78 L -72.323,-1611.15 L -71.9685,-1611.48 L -71.5751,-1611.77 L -71.1489,-1612 L -70.6967,-1612.18
 L -70.2256,-1612.3 L -69.7432,-1612.36 L 69.7432,-1612.36 L 70.2256,-1612.3 L 70.6967,-1612.18 L 71.1489,-1612
 L 71.5751,-1611.77 L 71.9685,-1611.48 L 72.323,-1611.15 L 72.633,-1610.78 L 72.8936,-1610.37 L 73.1007,-1609.93
 L 73.251,-1609.46 L 73.3421,-1608.99 L 73.3726,-1608.5 L 73.3726,-1379.5 L 73.3421,-1379.01 L 73.251,-1378.54
 L 73.1007,-1378.07 L 72.8936,-1377.63 L 72.633,-1377.22 L 72.323,-1376.85 L 71.9685,-1376.52 L 71.5751,-1376.23
 L 71.1489,-1376 L 70.6967,-1375.82 L 70.2256,-1375.7 L 69.7432,-1375.64 z
M 70.9369,-1125.09 L 71.5451,-1125.24 L 72.1289,-1125.48 L 72.6791,-1125.78 L 73.1871,-1126.15 L 73.6448,-1126.58
 L 74.0451,-1127.06 L 74.3815,-1127.59 L 74.6489,-1128.16 L 74.8429,-1128.76 L 74.9606,-1129.37 L 75,-1130
 L 75,-1360 L 74.9606,-1360.63 L 74.8429,-1361.24 L 74.6489,-1361.84 L 74.3815,-1362.41 L 74.0451,-1362.94
 L 73.6448,-1363.42 L 73.1871,-1363.85 L 72.6791,-1364.22 L 72.1289,-1364.52 L 71.5451,-1364.76 L 70.9369,-1364.91
 L 70.3139,-1364.99 L -70.3139,-1364.99 L -70.9369,-1364.91 L -71.5451,-1364.76 L -72.1289,-1364.52 L -72.6791,-1364.22
 L -73.1871,-1363.85 L -73.6448,-1363.42 L -74.0451,-1362.94 L -74.3815,-1362.41 L -74.6489,-1361.84 L -74.8429,-1361.24
 L -74.9606,-1360.63 L -75,-1360 L -75,-1130 L -74.9606,-1129.37 L -74.8429,-1128.76 L -74.6489,-1128.16
 L -74.3815,-1127.59 L -74.0451,-1127.06 L -73.6448,-1126.58 L -73.1871,-1126.15 L -72.6791,-1125.78 L -72.1289,-1125.48
 L -71.5451,-1125.24 L -70.9369,-1125.09 L -70.3139,-1125.01 L 70.3139,-1125.01 z
M 67.3493,-1355.1 L 67.0503,-1355.14 L 66.7584,-1355.22 L 66.4781,-1355.33 L 66.214,-1355.47 L 65.9702,-1355.65
 L 65.7505,-1355.86 L 65.5583,-1356.09 L 65.3969,-1356.34 L 65.2685,-1356.62 L 65.1754,-1356.9 L 65.1189,-1357.2
 L 65.1,-1357.5 L 65.1189,-1357.8 L 65.1754,-1358.1 L 65.2685,-1358.38 L 65.3969,-1358.66 L 65.5583,-1358.91
 L 65.7505,-1359.14 L 65.9702,-1359.35 L 66.214,-1359.53 L 66.4781,-1359.67 L 66.7584,-1359.78 L 67.0503,-1359.86
 L 67.3493,-1359.9 L 67.6507,-1359.9 L 67.9497,-1359.86 L 68.2416,-1359.78 L 68.5219,-1359.67 L 68.786,-1359.53
 L 69.0298,-1359.35 L 69.2495,-1359.14 L 69.4416,-1358.91 L 69.6031,-1358.66 L 69.7315,-1358.38 L 69.8246,-1358.1
 L 69.8811,-1357.8 L 69.9,-1357.5 L 69.8811,-1357.2 L 69.8246,-1356.9 L 69.7315,-1356.62 L 69.6031,-1356.34
 L 69.4416,-1356.09 L 69.2495,-1355.86 L 69.0298,-1355.65 L 68.786,-1355.47 L 68.5219,-1355.33 L 68.2416,-1355.22
 L 67.9497,-1355.14 L 67.6507,-1355.1 z
M -67.6507,-1355.1 L -67.9497,-1355.14 L -68.2416,-1355.22 L -68.5219,-1355.33 L -68.786,-1355.47 L -69.0298,-1355.65
 L -69.2495,-1355.86 L -69.4416,-1356.09 L -69.6031,-1356.34 L -69.7315,-1356.62 L -69.8246,-1356.9 L -69.8811,-1357.2
 L -69.9,-1357.5 L -69.8811,-1357.8 L -69.8246,-1358.1 L -69.7315,-1358.38 L -69.6031,-1358.66 L -69.4416,-1358.91
 L -69.2495,-1359.14 L -69.0298,-1359.35 L -68.786,-1359.53 L -68.5219,-1359.67 L -68.2416,-1359.78 L -67.9497,-1359.86
 L -67.6507,-1359.9 L -67.3493,-1359.9 L -67.0503,-1359.86 L -66.7584,-1359.78 L -66.4781,-1359.67 L -66.214,-1359.53
 L -65.9702,-1359.35 L -65.7505,-1359.14 L -65.5583,-1358.91 L -65.3969,-1358.66 L -65.2685,-1358.38 L -65.1754,-1358.1
 L -65.1189,-1357.8 L -65.1,-1357.5 L -65.1189,-1357.2 L -65.1754,-1356.9 L -65.2685,-1356.62 L -65.3969,-1356.34
 L -65.5583,-1356.09 L -65.7505,-1355.86 L -65.9702,-1355.65 L -66.214,-1355.47 L -66.4781,-1355.33 L -66.7584,-1355.22
 L -67.0503,-1355.14 L -67.3493,-1355.1 z
M 67.3493,-1130.1 L 67.0503,-1130.14 L 66.7584,-1130.22 L 66.4781,-1130.33 L 66.214,-1130.47 L 65.9702,-1130.65
 L 65.7505,-1130.86 L 65.5583,-1131.09 L 65.3969,-1131.34 L 65.2685,-1131.62 L 65.1754,-1131.9 L 65.1189,-1132.2
 L 65.1,-1132.5 L 65.1189,-1132.8 L 65.1754,-1133.1 L 65.2685,-1133.38 L 65.3969,-1133.66 L 65.5583,-1133.91
 L 65.7505,-1134.14 L 65.9702,-1134.35 L 66.214,-1134.53 L 66.4781,-1134.67 L 66.7584,-1134.78 L 67.0503,-1134.86
 L 67.3493,-1134.9 L 67.6507,-1134.9 L 67.9497,-1134.86 L 68.2416,-1134.78 L 68.5219,-1134.67 L 68.786,-1134.53
 L 69.0298,-1134.35 L 69.2495,-1134.14 L 69.4416,-1133.91 L 69.6031,-1133.66 L 69.7315,-1133.38 L 69.8246,-1133.1
 L 69.8811,-1132.8 L 69.9,-1132.5 L 69.8811,-1132.2 L 69.8246,-1131.9 L 69.7315,-1131.62 L 69.6031,-1131.34
 L 69.4416,-1131.09 L 69.2495,-1130.86 L 69.0298,-1130.65 L 68.786,-1130.47 L 68.5219,-1130.33 L 68.2416,-1130.22
 L 67.9497,-1130.14 L 67.6507,-1130.1 z
M -67.6507,-1130.1 L -67.9497,-1130.14 L -68.2416,-1130.22 L -68.5219,-1130.33 L -68.786,-1130.47 L -69.0298,-1130.65
 L -69.2495,-1130.86 L -69.4416,-1131.09 L -69.6031,-1131.34 L -69.7315,-1131.62 L -69.8246,-1131.9 L -69.8811,-1132.2
 L -69.9,-1132.5 L -69.8811,-1132.8 L -69.8246,-1133.1 L -69.7315,-1133.38 L -69.6031,-1133.66 L -69.4416,-1133.91
 L -69.2495,-1134.14 L -69.0298,-1134.35 L -68.786,-1134.53 L -68.5219,-1134.67 L -68.2416,-1134.78 L -67.9497,-1134.86
 L -67.6507,-1134.9 L -67.3493,-1134.9 L -67.0503,-1134.86 L -66.7584,-1134.78 L -66.4781,-1134.67 L -66.214,-1134.53
 L -65.9702,-1134.35 L -65.7505,-1134.14 L -65.5583,-1133.91 L -65.3969,-1133.66 L -65.2685,-1133.38 L -65.1754,-1133.1
 L -65.1189,-1132.8 L -65.1,-1132.5 L -65.1189,-1132.2 L -65.1754,-1131.9 L -65.2685,-1131.62 L -65.3969,-1131.34
 L -65.5583,-1131.09 L -65.7505,-1130.86 L -65.9702,-1130.65 L -66.214,-1130.47 L -66.4781,-1130.33 L -66.7584,-1130.22
 L -67.0503,-1130.14 L -67.3493,-1130.1 z
M 70.9369,-876.089 L 71.5451,-876.245 L 72.1289,-876.476 L 72.6791,-876.778 L 73.1871,-877.147 L 73.6448,-877.577
 L 74.0451,-878.061 L 74.3815,-878.591 L 74.6489,-879.159 L 74.8429,-879.757 L 74.9606,-880.373 L 75,-881
 L 75,-1111 L 74.9606,-1111.63 L 74.8429,-1112.24 L 74.6489,-1112.84 L 74.3815,-1113.41 L 74.0451,-1113.94
 L 73.6448,-1114.42 L 73.1871,-1114.85 L 72.6791,-1115.22 L 72.1289,-1115.52 L 71.5451,-1115.76 L 70.9369,-1115.91
 L 70.3139,-1115.99 L -70.3139,-1115.99 L -70.9369,-1115.91 L -71.5451,-1115.76 L -72.1289,-1115.52 L -72.6791,-1115.22
 L -73.1871,-1114.85 L -73.6448,-1114.42 L -74.0451,-1113.94 L -74.3815,-1113.41 L -74.6489,-1112.84 L -74.8429,-1112.24
 L -74.9606,-1111.63 L -75,-1111 L -75,-881 L -74.9606,-880.373 L -74.8429,-879.757 L -74.6489,-879.159
 L -74.3815,-878.591 L -74.0451,-878.061 L -73.6448,-877.577 L -73.1871,-877.147 L -72.6791,-876.778 L -72.1289,-876.476
 L -71.5451,-876.245 L -70.9369,-876.089 L -70.3139,-876.01 L 70.3139,-876.01 z
M 67.387,-1106.7 L 67.1627,-1106.73 L 66.9438,-1106.79 L 66.7336,-1106.87 L 66.5355,-1106.98 L 66.3526,-1107.11
 L 66.1879,-1107.27 L 66.0438,-1107.44 L 65.9226,-1107.63 L 65.8264,-1107.84 L 65.7565,-1108.05 L 65.7142,-1108.27
 L 65.7,-1108.5 L 65.7142,-1108.73 L 65.7565,-1108.95 L 65.8264,-1109.16 L 65.9226,-1109.37 L 66.0438,-1109.56
 L 66.1879,-1109.73 L 66.3526,-1109.89 L 66.5355,-1110.02 L 66.7336,-1110.13 L 66.9438,-1110.21 L 67.1627,-1110.27
 L 67.387,-1110.3 L 67.613,-1110.3 L 67.8373,-1110.27 L 68.0562,-1110.21 L 68.2664,-1110.13 L 68.4645,-1110.02
 L 68.6474,-1109.89 L 68.8121,-1109.73 L 68.9562,-1109.56 L 69.0773,-1109.37 L 69.1736,-1109.16 L 69.2434,-1108.95
 L 69.2858,-1108.73 L 69.3,-1108.5 L 69.2858,-1108.27 L 69.2434,-1108.05 L 69.1736,-1107.84 L 69.0773,-1107.63
 L 68.9562,-1107.44 L 68.8121,-1107.27 L 68.6474,-1107.11 L 68.4645,-1106.98 L 68.2664,-1106.87 L 68.0562,-1106.79
 L 67.8373,-1106.73 L 67.613,-1106.7 z
M -67.613,-1106.7 L -67.8373,-1106.73 L -68.0562,-1106.79 L -68.2664,-1106.87 L -68.4645,-1106.98 L -68.6474,-1107.11
 L -68.8121,-1107.27 L -68.9562,-1107.44 L -69.0773,-1107.63 L -69.1736,-1107.84 L -69.2434,-1108.05 L -69.2858,-1108.27
 L -69.3,-1108.5 L -69.2858,-1108.73 L -69.2434,-1108.95 L -69.1736,-1109.16 L -69.0773,-1109.37 L -68.9562,-1109.56
 L -68.8121,-1109.73 L -68.6474,-1109.89 L -68.4645,-1110.02 L -68.2664,-1110.13 L -68.0562,-1110.21 L -67.8373,-1110.27
 L -67.613,-1110.3 L -67.387,-1110.3 L -67.1627,-1110.27 L -66.9438,-1110.21 L -66.7336,-1110.13 L -66.5355,-1110.02
 L -66.3526,-1109.89 L -66.1879,-1109.73 L -66.0438,-1109.56 L -65.9226,-1109.37 L -65.8264,-1109.16 L -65.7565,-1108.95
 L -65.7142,-1108.73 L -65.7,-1108.5 L -65.7142,-1108.27 L -65.7565,-1108.05 L -65.8264,-1107.84 L -65.9226,-1107.63
 L -66.0438,-1107.44 L -66.1879,-1107.27 L -66.3526,-1107.11 L -66.5355,-1106.98 L -66.7336,-1106.87 L -66.9438,-1106.79
 L -67.1627,-1106.73 L -67.387,-1106.7 z
M -67.613,-881.704 L -67.8373,-881.732 L -68.0562,-881.788 L -68.2664,-881.871 L -68.4645,-881.98 L -68.6474,-882.113
 L -68.8121,-882.268 L -68.9562,-882.442 L -69.0773,-882.633 L -69.1736,-882.837 L -69.2434,-883.052 L -69.2858,-883.274
 L -69.3,-883.5 L -69.2858,-883.726 L -69.2434,-883.948 L -69.1736,-884.163 L -69.0773,-884.367 L -68.9562,-884.558
 L -68.8121,-884.732 L -68.6474,-884.887 L -68.4645,-885.02 L -68.2664,-885.129 L -68.0562,-885.212 L -67.8373,-885.268
 L -67.613,-885.296 L -67.387,-885.296 L -67.1627,-885.268 L -66.9438,-885.212 L -66.7336,-885.129 L -66.5355,-885.02
 L -66.3526,-884.887 L -66.1879,-884.732 L -66.0438,-884.558 L -65.9226,-884.367 L -65.8264,-884.163 L -65.7565,-883.948
 L -65.7142,-883.726 L -65.7,-883.5 L -65.7142,-883.274 L -65.7565,-883.052 L -65.8264,-882.837 L -65.9226,-882.633
 L -66.0438,-882.442 L -66.1879,-882.268 L -66.3526,-882.113 L -66.5355,-881.98 L -66.7336,-881.871 L -66.9438,-881.788
 L -67.1627,-881.732 L -67.387,-881.704 z
M 67.387,-881.704 L 67.1627,-881.732 L 66.9438,-881.788 L 66.7336,-881.871 L 66.5355,-881.98 L 66.3526,-882.113
 L 66.1879,-882.268 L 66.0438,-882.442 L 65.9226,-882.633 L 65.8264,-882.837 L 65.7565,-883.052 L 65.7142,-883.274
 L 65.7,-883.5 L 65.7142,-883.726 L 65.7565,-883.948 L 65.8264,-884.163 L 65.9226,-884.367 L 66.0438,-884.558
 L 66.1879,-884.732 L 66.3526,-884.887 L 66.5355,-885.02 L 66.7336,-885.129 L 66.9438,-885.212 L 67.1627,-885.268
 L 67.387,-885.296 L 67.613,-885.296 L 67.8373,-885.268 L 68.0562,-885.212 L 68.2664,-885.129 L 68.4645,-885.02
 L 68.6474,-884.887 L 68.8121,-884.732 L 68.9562,-884.558 L 69.0773,-884.367 L 69.1736,-884.163 L 69.2434,-883.948
 L 69.2858,-883.726 L 69.3,-883.5 L 69.2858,-883.274 L 69.2434,-883.052 L 69.1736,-882.837 L 69.0773,-882.633
 L 68.9562,-882.442 L 68.8121,-882.268 L 68.6474,-882.113 L 68.4645,-881.98 L 68.2664,-881.871 L 68.0562,-881.788
 L 67.8373,-881.732 L 67.613,-881.704 z
" stroke="black" fill="lightgray" stroke-width="0.5"/>
</svg>
