<?xml version="1.0" standalone="no"?>
<!DOCTYPE svg PUBLIC "-//W3C//DTD SVG 1.1//EN" "http://www.w3.org/Graphics/SVG/1.1/DTD/svg11.dtd">
<svg width="44mm" height="74mm" viewBox="-22 -121 44 74" xmlns="http://www.w3.org/2000/svg" version="1.1">
<title>OpenSCAD Model</title>
<path d="
M 17.9369,-47.0886 L 18.5451,-47.2447 L 19.1289,-47.4759 L 19.6791,-47.7784 L 20.1871,-48.1474 L 20.6448,-48.5773
 L 21.0451,-49.0611 L 21.3815,-49.5912 L 21.6489,-50.1594 L 21.8429,-50.7566 L 21.9606,-51.3733 L 22,-52
 L 22,-116 L 21.9606,-116.627 L 21.8429,-117.243 L 21.6489,-117.841 L 21.3815,-118.409 L 21.0451,-118.939
 L 20.6448,-119.423 L 20.1871,-119.853 L 19.6791,-120.222 L 19.1289,-120.524 L 18.5451,-120.755 L 17.9369,-120.911
 L 17.3139,-120.99 L 8,-120.99 L 8,-56.25 L 1.9778,-56.25 L 2.1869,-56.0536 L 2.42705,-55.7634
 L 2.62891,-55.4453 L 2.78932,-55.1044 L 2.90575,-54.7461 L 2.97633,-54.376 L 3,-54 L 2.97633,-53.624
 L 2.90575,-53.2539 L 2.78932,-52.8956 L 2.62891,-52.5547 L 2.42705,-52.2366 L 2.1869,-51.9464 L 1.91226,-51.6885
 L 1.60747,-51.467 L 1.27733,-51.2855 L 0.927048,-51.1468 L 0.562134,-51.0531 L 0.18837,-51.0059 L -0.18837,-51.0059
 L -0.562134,-51.0531 L -0.927048,-51.1468 L -1.27733,-51.2855 L -1.60747,-51.467 L -1.91226,-51.6885 L -2.1869,-51.9464
 L -2.42705,-52.2366 L -2.62891,-52.5547 L -2.78932,-52.8956 L -2.90575,-53.2539 L -2.97633,-53.624 L -3,-54
 L -2.97633,-54.376 L -2.90575,-54.7461 L -2.78932,-55.1044 L -2.62891,-55.4453 L -2.42705,-55.7634 L -2.1869,-56.0536
 L -1.9778,-56.25 L -8,-56.25 L -8,-120.99 L -17.3139,-120.99 L -17.9369,-120.911 L -18.5451,-120.755
 L -19.1289,-120.524 L -19.6791,-120.222 L -20.1871,-119.853 L -20.6448,-119.423 L -21.0451,-118.939 L -21.3815,-118.409
 L -21.6489,-117.841 L -21.8429,-117.243 L -21.9606,-116.627 L -22,-116 L -22,-52 L -21.9606,-51.3733
 L -21.8429,-50.7566 L -21.6489,-50.1594 L -21.3815,-49.5912 L -21.0451,-49.0611 L -20.6448,-48.5773 L -20.1871,-48.1474
 L -19.6791,-47.7784 L -19.1289,-47.4759 L -18.5451,-47.2447 L -17.9369,-47.0886 L -17.3139,-47.0099 L 17.3139,-47.0099
 z
M 14.8116,-111.006 L 14.4379,-111.053 L 14.0729,-111.147 L 13.7227,-111.286 L 13.3925,-111.467 L 13.0877,-111.688
 L 12.8131,-111.946 L 12.5729,-112.237 L 12.3711,-112.555 L 12.2107,-112.896 L 12.0942,-113.254 L 12.0237,-113.624
 L 12,-114 L 12.0237,-114.376 L 12.0942,-114.746 L 12.2107,-115.104 L 12.3711,-115.445 L 12.5729,-115.763
 L 12.8131,-116.054 L 13.0877,-116.312 L 13.3925,-116.533 L 13.7227,-116.714 L 14.0729,-116.853 L 14.4379,-116.947
 L 14.8116,-116.994 L 15.1884,-116.994 L 15.5621,-116.947 L 15.927,-116.853 L 16.2773,-116.714 L 16.6075,-116.533
 L 16.9123,-116.312 L 17.1869,-116.054 L 17.427,-115.763 L 17.6289,-115.445 L 17.7893,-115.104 L 17.9057,-114.746
 L 17.9763,-114.376 L 18,-114 L 17.9763,-113.624 L 17.9057,-113.254 L 17.7893,-112.896 L 17.6289,-112.555
 L 17.427,-112.237 L 17.1869,-111.946 L 16.9123,-111.688 L 16.6075,-111.467 L 16.2773,-111.286 L 15.927,-111.147
 L 15.5621,-111.053 L 15.1884,-111.006 z
M -15.1884,-111.006 L -15.5621,-111.053 L -15.927,-111.147 L -16.2773,-111.286 L -16.6075,-111.467 L -16.9123,-111.688
 L -17.1869,-111.946 L -17.427,-112.237 L -17.6289,-112.555 L -17.7893,-112.896 L -17.9057,-113.254 L -17.9763,-113.624
 L -18,-114 L -17.9763,-114.376 L -17.9057,-114.746 L -17.7893,-115.104 L -17.6289,-115.445 L -17.427,-115.763
 L -17.1869,-116.054 L -16.9123,-116.312 L -16.6075,-116.533 L -16.2773,-116.714 L -15.927,-116.853 L -15.5621,-116.947
 L -15.1884,-116.994 L -14.8116,-116.994 L -14.4379,-116.947 L -14.0729,-116.853 L -13.7227,-116.714 L -13.3925,-116.533
 L -13.0877,-116.312 L -12.8131,-116.054 L -12.5729,-115.763 L -12.3711,-115.445 L -12.2107,-115.104 L -12.0942,-114.746
 L -12.0237,-114.376 L -12,-114 L -12.0237,-113.624 L -12.0942,-113.254 L -12.2107,-112.896 L -12.3711,-112.555
 L -12.5729,-112.237 L -12.8131,-111.946 L -13.0877,-111.688 L -13.3925,-111.467 L -13.7227,-111.286 L -14.0729,-111.147
 L -14.4379,-111.053 L -14.8116,-111.006 z
M -15.0942,-105.003 L -15.2811,-105.027 L -15.4635,-105.073 L -15.6387,-105.143 L -15.8037,-105.234 L -15.9561,-105.344
 L -16.0934,-105.473 L -16.2135,-105.618 L -16.3145,-105.777 L -16.3947,-105.948 L -16.4529,-106.127 L -16.4882,-106.312
 L -16.5,-106.5 L -16.4882,-106.688 L -16.4529,-106.873 L -16.3947,-107.052 L -16.3145,-107.223 L -16.2135,-107.382
 L -16.0934,-107.527 L -15.9561,-107.656 L -15.8037,-107.766 L -15.6387,-107.857 L -15.4635,-107.927 L -15.2811,-107.973
 L -15.0942,-107.997 L -14.9058,-107.997 L -14.7189,-107.973 L -14.5365,-107.927 L -14.3613,-107.857 L -14.1963,-107.766
 L -14.0439,-107.656 L -13.9065,-107.527 L -13.7865,-107.382 L -13.6855,-107.223 L -13.6053,-107.052 L -13.5471,-106.873
 L -13.5118,-106.688 L -13.5,-106.5 L -13.5118,-106.312 L -13.5471,-106.127 L -13.6053,-105.948 L -13.6855,-105.777
 L -13.7865,-105.618 L -13.9065,-105.473 L -14.0439,-105.344 L -14.1963,-105.234 L -14.3613,-105.143 L -14.5365,-105.073
 L -14.7189,-105.027 L -14.9058,-105.003 z
M 14.9058,-105.003 L 14.7189,-105.027 L 14.5365,-105.073 L 14.3613,-105.143 L 14.1963,-105.234 L 14.0439,-105.344
 L 13.9065,-105.473 L 13.7865,-105.618 L 13.6855,-105.777 L 13.6053,-105.948 L 13.5471,-106.127 L 13.5118,-106.312
 L 13.5,-106.5 L 13.5118,-106.688 L 13.5471,-106.873 L 13.6053,-107.052 L 13.6855,-107.223 L 13.7865,-107.382
 L 13.9065,-107.527 L 14.0439,-107.656 L 14.1963,-107.766 L 14.3613,-107.857 L 14.5365,-107.927 L 14.7189,-107.973
 L 14.9058,-107.997 L 15.0942,-107.997 L 15.2811,-107.973 L 15.4635,-107.927 L 15.6387,-107.857 L 15.8037,-107.766
 L 15.9561,-107.656 L 16.0934,-107.527 L 16.2135,-107.382 L 16.3145,-107.223 L 16.3947,-107.052 L 16.4529,-106.873
 L 16.4882,-106.688 L 16.5,-106.5 L 16.4882,-106.312 L 16.4529,-106.127 L 16.3947,-105.948 L 16.3145,-105.777
 L 16.2135,-105.618 L 16.0934,-105.473 L 15.9561,-105.344 L 15.8037,-105.234 L 15.6387,-105.143 L 15.4635,-105.073
 L 15.2811,-105.027 L 15.0942,-105.003 z
M 14.8116,-96.0059 L 14.4379,-96.0531 L 14.0729,-96.1468 L 13.7227,-96.2855 L 13.3925,-96.467 L 13.0877,-96.6884
 L 12.8131,-96.9464 L 12.5729,-97.2366 L 12.3711,-97.5547 L 12.2107,-97.8956 L 12.0942,-98.2539 L 12.0237,-98.624
 L 12,-99 L 12.0237,-99.376 L 12.0942,-99.7461 L 12.2107,-100.104 L 12.3711,-100.445 L 12.5729,-100.763
 L 12.8131,-101.054 L 13.0877,-101.312 L 13.3925,-101.533 L 13.7227,-101.714 L 14.0729,-101.853 L 14.4379,-101.947
 L 14.8116,-101.994 L 15.1884,-101.994 L 15.5621,-101.947 L 15.927,-101.853 L 16.2773,-101.714 L 16.6075,-101.533
 L 16.9123,-101.312 L 17.1869,-101.054 L 17.427,-100.763 L 17.6289,-100.445 L 17.7893,-100.104 L 17.9057,-99.7461
 L 17.9763,-99.376 L 18,-99 L 17.9763,-98.624 L 17.9057,-98.2539 L 17.7893,-97.8956 L 17.6289,-97.5547
 L 17.427,-97.2366 L 17.1869,-96.9464 L 16.9123,-96.6884 L 16.6075,-96.467 L 16.2773,-96.2855 L 15.927,-96.1468
 L 15.5621,-96.0531 L 15.1884,-96.0059 z
M -15.1884,-96.0059 L -15.5621,-96.0531 L -15.927,-96.1468 L -16.2773,-96.2855 L -16.6075,-96.467 L -16.9123,-96.6884
 L -17.1869,-96.9464 L -17.427,-97.2366 L -17.6289,-97.5547 L -17.7893,-97.8956 L -17.9057,-98.2539 L -17.9763,-98.624
 L -18,-99 L -17.9763,-99.376 L -17.9057,-99.7461 L -17.7893,-100.104 L -17.6289,-100.445 L -17.427,-100.763
 L -17.1869,-101.054 L -16.9123,-101.312 L -16.6075,-101.533 L -16.2773,-101.714 L -15.927,-101.853 L -15.5621,-101.947
 L -15.1884,-101.994 L -14.8116,-101.994 L -14.4379,-101.947 L -14.0729,-101.853 L -13.7227,-101.714 L -13.3925,-101.533
 L -13.0877,-101.312 L -12.8131,-101.054 L -12.5729,-100.763 L -12.3711,-100.445 L -12.2107,-100.104 L -12.0942,-99.7461
 L -12.0237,-99.376 L -12,-99 L -12.0237,-98.624 L -12.0942,-98.2539 L -12.2107,-97.8956 L -12.3711,-97.5547
 L -12.5729,-97.2366 L -12.8131,-96.9464 L -13.0877,-96.6884 L -13.3925,-96.467 L -13.7227,-96.2855 L -14.0729,-96.1468
 L -14.4379,-96.0531 L -14.8116,-96.0059 z
M 14.9058,-90.0029 L 14.7189,-90.0266 L 14.5365,-90.0734 L 14.3613,-90.1427 L 14.1963,-90.2335 L 14.0439,-90.3442
 L 13.9065,-90.4732 L 13.7865,-90.6183 L 13.6855,-90.7774 L 13.6053,-90.9478 L 13.5471,-91.127 L 13.5118,-91.312
 L 13.5,-91.5 L 13.5118,-91.688 L 13.5471,-91.873 L 13.6053,-92.0522 L 13.6855,-92.2226 L 13.7865,-92.3817
 L 13.9065,-92.5268 L 14.0439,-92.6558 L 14.1963,-92.7665 L 14.3613,-92.8572 L 14.5365,-92.9266 L 14.7189,-92.9734
 L 14.9058,-92.997 L 15.0942,-92.997 L 15.2811,-92.9734 L 15.4635,-92.9266 L 15.6387,-92.8572 L 15.8037,-92.7665
 L 15.9561,-92.6558 L 16.0934,-92.5268 L 16.2135,-92.3817 L 16.3145,-92.2226 L 16.3947,-92.0522 L 16.4529,-91.873
 L 16.4882,-91.688 L 16.5,-91.5 L 16.4882,-91.312 L 16.4529,-91.127 L 16.3947,-90.9478 L 16.3145,-90.7774
 L 16.2135,-90.6183 L 16.0934,-90.4732 L 15.9561,-90.3442 L 15.8037,-90.2335 L 15.6387,-90.1427 L 15.4635,-90.0734
 L 15.2811,-90.0266 L 15.0942,-90.0029 z
M -15.0942,-90.0029 L -15.2811,-90.0266 L -15.4635,-90.0734 L -15.6387,-90.1427 L -15.8037,-90.2335 L -15.9561,-90.3442
 L -16.0934,-90.4732 L -16.2135,-90.6183 L -16.3145,-90.7774 L -16.3947,-90.9478 L -16.4529,-91.127 L -16.4882,-91.312
 L -16.5,-91.5 L -16.4882,-91.688 L -16.4529,-91.873 L -16.3947,-92.0522 L -16.3145,-92.2226 L -16.2135,-92.3817
 L -16.0934,-92.5268 L -15.9561,-92.6558 L -15.8037,-92.7665 L -15.6387,-92.8572 L -15.4635,-92.9266 L -15.2811,-92.9734
 L -15.0942,-92.997 L -14.9058,-92.997 L -14.7189,-92.9734 L -14.5365,-92.9266 L -14.3613,-92.8572 L -14.1963,-92.7665
 L -14.0439,-92.6558 L -13.9065,-92.5268 L -13.7865,-92.3817 L -13.6855,-92.2226 L -13.6053,-92.0522 L -13.5471,-91.873
 L -13.5118,-91.688 L -13.5,-91.5 L -13.5118,-91.312 L -13.5471,-91.127 L -13.6053,-90.9478 L -13.6855,-90.7774
 L -13.7865,-90.6183 L -13.9065,-90.4732 L -14.0439,-90.3442 L -14.1963,-90.2335 L -14.3613,-90.1427 L -14.5365,-90.0734
 L -14.7189,-90.0266 L -14.9058,-90.0029 z
M -15.1884,-81.0059 L -15.5621,-81.0531 L -15.927,-81.1468 L -16.2773,-81.2855 L -16.6075,-81.467 L -16.9123,-81.6885
 L -17.1869,-81.9464 L -17.427,-82.2366 L -17.6289,-82.5547 L -17.7893,-82.8956 L -17.9057,-83.2539 L -17.9763,-83.624
 L -18,-84 L -17.9763,-84.376 L -17.9057,-84.7461 L -17.7893,-85.1044 L -17.6289,-85.4453 L -17.427,-85.7634
 L -17.1869,-86.0536 L -16.9123,-86.3115 L -16.6075,-86.533 L -16.2773,-86.7145 L -15.927,-86.8532 L -15.5621,-86.9469
 L -15.1884,-86.9941 L -14.8116,-86.9941 L -14.4379,-86.9469 L -14.0729,-86.8532 L -13.7227,-86.7145 L -13.3925,-86.533
 L -13.0877,-86.3115 L -12.8131,-86.0536 L -12.5729,-85.7634 L -12.3711,-85.4453 L -12.2107,-85.1044 L -12.0942,-84.7461
 L -12.0237,-84.376 L -12,-84 L -12.0237,-83.624 L -12.0942,-83.2539 L -12.2107,-82.8956 L -12.3711,-82.5547
 L -12.5729,-82.2366 L -12.8131,-81.9464 L -13.0877,-81.6885 L -13.3925,-81.467 L -13.7227,-81.2855 L -14.0729,-81.1468
 L -14.4379,-81.0531 L -14.8116,-81.0059 z
M 14.8116,-81.0059 L 14.4379,-81.0531 L 14.0729,-81.1468 L 13.7227,-81.2855 L 13.3925,-81.467 L 13.0877,-81.6885
 L 12.8131,-81.9464 L 12.5729,-82.2366 L 12.3711,-82.5547 L 12.2107,-82.8956 L 12.0942,-83.2539 L 12.0237,-83.624
 L 12,-84 L 12.0237,-84.376 L 12.0942,-84.7461 L 12.2107,-85.1044 L 12.3711,-85.4453 L 12.5729,-85.7634
 L 12.8131,-86.0536 L 13.0877,-86.3115 L 13.3925,-86.533 L 13.7227,-86.7145 L 14.0729,-86.8532 L 14.4379,-86.9469
 L 14.8116,-86.9941 L 15.1884,-86.9941 L 15.5621,-86.9469 L 15.927,-86.8532 L 16.2773,-86.7145 L 16.6075,-86.533
 L 16.9123,-86.3115 L 17.1869,-86.0536 L 17.427,-85.7634 L 17.6289,-85.4453 L 17.7893,-85.1044 L 17.9057,-84.7461
 L 17.9763,-84.376 L 18,-84 L 17.9763,-83.624 L 17.9057,-83.2539 L 17.7893,-82.8956 L 17.6289,-82.5547
 L 17.427,-82.2366 L 17.1869,-81.9464 L 16.9123,-81.6885 L 16.6075,-81.467 L 16.2773,-81.2855 L 15.927,-81.1468
 L 15.5621,-81.0531 L 15.1884,-81.0059 z
M -15.0942,-75.003 L -15.2811,-75.0266 L -15.4635,-75.0734 L -15.6387,-75.1428 L -15.8037,-75.2335 L -15.9561,-75.3442
 L -16.0934,-75.4732 L -16.2135,-75.6183 L -16.3145,-75.7774 L -16.3947,-75.9478 L -16.4529,-76.127 L -16.4882,-76.312
 L -16.5,-76.5 L -16.4882,-76.688 L -16.4529,-76.873 L -16.3947,-77.0522 L -16.3145,-77.2226 L -16.2135,-77.3817
 L -16.0934,-77.5268 L -15.9561,-77.6558 L -15.8037,-77.7665 L -15.6387,-77.8573 L -15.4635,-77.9266 L -15.2811,-77.9734
 L -15.0942,-77.9971 L -14.9058,-77.9971 L -14.7189,-77.9734 L -14.5365,-77.9266 L -14.3613,-77.8573 L -14.1963,-77.7665
 L -14.0439,-77.6558 L -13.9065,-77.5268 L -13.7865,-77.3817 L -13.6855,-77.2226 L -13.6053,-77.0522 L -13.5471,-76.873
 L -13.5118,-76.688 L -13.5,-76.5 L -13.5118,-76.312 L -13.5471,-76.127 L -13.6053,-75.9478 L -13.6855,-75.7774
 L -13.7865,-75.6183 L -13.9065,-75.4732 L -14.0439,-75.3442 L -14.1963,-75.2335 L -14.3613,-75.1428 L -14.5365,-75.0734
 L -14.7189,-75.0266 L -14.9058,-75.003 z
M 14.9058,-75.003 L 14.7189,-75.0266 L 14.5365,-75.0734 L 14.3613,-75.1428 L 14.1963,-75.2335 L 14.0439,-75.3442
 L 13.9065,-75.4732 L 13.7865,-75.6183 L 13.6855,-75.7774 L 13.6053,-75.9478 L 13.5471,-76.127 L 13.5118,-76.312
 L 13.5,-76.5 L 13.5118,-76.688 L 13.5471,-76.873 L 13.6053,-77.0522 L 13.6855,-77.2226 L 13.7865,-77.3817
 L 13.9065,-77.5268 L 14.0439,-77.6558 L 14.1963,-77.7665 L 14.3613,-77.8573 L 14.5365,-77.9266 L 14.7189,-77.9734
 L 14.9058,-77.9971 L 15.0942,-77.9971 L 15.2811,-77.9734 L 15.4635,-77.9266 L 15.6387,-77.8573 L 15.8037,-77.7665
 L 15.9561,-77.6558 L 16.0934,-77.5268 L 16.2135,-77.3817 L 16.3145,-77.2226 L 16.3947,-77.0522 L 16.4529,-76.873
 L 16.4882,-76.688 L 16.5,-76.5 L 16.4882,-76.312 L 16.4529,-76.127 L 16.3947,-75.9478 L 16.3145,-75.7774
 L 16.2135,-75.6183 L 16.0934,-75.4732 L 15.9561,-75.3442 L 15.8037,-75.2335 L 15.6387,-75.1428 L 15.4635,-75.0734
 L 15.2811,-75.0266 L 15.0942,-75.003 z
M 14.8116,-66.0059 L 14.4379,-66.0531 L 14.0729,-66.1468 L 13.7227,-66.2855 L 13.3925,-66.467 L 13.0877,-66.6885
 L 12.8131,-66.9464 L 12.5729,-67.2366 L 12.3711,-67.5547 L 12.2107,-67.8956 L 12.0942,-68.2539 L 12.0237,-68.624
 L 12,-69 L 12.0237,-69.376 L 12.0942,-69.7461 L 12.2107,-70.1044 L 12.3711,-70.4453 L 12.5729,-70.7634
 L 12.8131,-71.0536 L 13.0877,-71.3116 L 13.3925,-71.533 L 13.7227,-71.7145 L 14.0729,-71.8532 L 14.4379,-71.9469
 L 14.8116,-71.9941 L 15.1884,-71.9941 L 15.5621,-71.9469 L 15.927,-71.8532 L 16.2773,-71.7145 L 16.6075,-71.533
 L 16.9123,-71.3116 L 17.1869,-71.0536 L 17.427,-70.7634 L 17.6289,-70.4453 L 17.7893,-70.1044 L 17.9057,-69.7461
 L 17.9763,-69.376 L 18,-69 L 17.9763,-68.624 L 17.9057,-68.2539 L 17.7893,-67.8956 L 17.6289,-67.5547
 L 17.427,-67.2366 L 17.1869,-66.9464 L 16.9123,-66.6885 L 16.6075,-66.467 L 16.2773,-66.2855 L 15.927,-66.1468
 L 15.5621,-66.0531 L 15.1884,-66.0059 z
M -15.1884,-66.0059 L -15.5621,-66.0531 L -15.927,-66.1468 L -16.2773,-66.2855 L -16.6075,-66.467 L -16.9123,-66.6885
 L -17.1869,-66.9464 L -17.427,-67.2366 L -17.6289,-67.5547 L -17.7893,-67.8956 L -17.9057,-68.2539 L -17.9763,-68.624
 L -18,-69 L -17.9763,-69.376 L -17.9057,-69.7461 L -17.7893,-70.1044 L -17.6289,-70.4453 L -17.427,-70.7634
 L -17.1869,-71.0536 L -16.9123,-71.3116 L -16.6075,-71.533 L -16.2773,-71.7145 L -15.927,-71.8532 L -15.5621,-71.9469
 L -15.1884,-71.9941 L -14.8116,-71.9941 L -14.4379,-71.9469 L -14.0729,-71.8532 L -13.7227,-71.7145 L -13.3925,-71.533
 L -13.0877,-71.3116 L -12.8131,-71.0536 L -12.5729,-70.7634 L -12.3711,-70.4453 L -12.2107,-70.1044 L -12.0942,-69.7461
 L -12.0237,-69.376 L -12,-69 L -12.0237,-68.624 L -12.0942,-68.2539 L -12.2107,-67.8956 L -12.3711,-67.5547
 L -12.5729,-67.2366 L -12.8131,-66.9464 L -13.0877,-66.6885 L -13.3925,-66.467 L -13.7227,-66.2855 L -14.0729,-66.1468
 L -14.4379,-66.0531 L -14.8116,-66.0059 z
M -15.0942,-60.003 L -15.2811,-60.0266 L -15.4635,-60.0734 L -15.6387,-60.1428 L -15.8037,-60.2335 L -15.9561,-60.3442
 L -16.0934,-60.4732 L -16.2135,-60.6183 L -16.3145,-60.7774 L -16.3947,-60.9478 L -16.4529,-61.127 L -16.4882,-61.312
 L -16.5,-61.5 L -16.4882,-61.688 L -16.4529,-61.873 L -16.3947,-62.0522 L -16.3145,-62.2226 L -16.2135,-62.3817
 L -16.0934,-62.5268 L -15.9561,-62.6558 L -15.8037,-62.7665 L -15.6387,-62.8573 L -15.4635,-62.9266 L -15.2811,-62.9734
 L -15.0942,-62.997 L -14.9058,-62.997 L -14.7189,-62.9734 L -14.5365,-62.9266 L -14.3613,-62.8573 L -14.1963,-62.7665
 L -14.0439,-62.6558 L -13.9065,-62.5268 L -13.7865,-62.3817 L -13.6855,-62.2226 L -13.6053,-62.0522 L -13.5471,-61.873
 L -13.5118,-61.688 L -13.5,-61.5 L -13.5118,-61.312 L -13.5471,-61.127 L -13.6053,-60.9478 L -13.6855,-60.7774
 L -13.7865,-60.6183 L -13.9065,-60.4732 L -14.0439,-60.3442 L -14.1963,-60.2335 L -14.3613,-60.1428 L -14.5365,-60.0734
 L -14.7189,-60.0266 L -14.9058,-60.003 z
M 14.9058,-60.003 L 14.7189,-60.0266 L 14.5365,-60.0734 L 14.3613,-60.1428 L 14.1963,-60.2335 L 14.0439,-60.3442
 L 13.9065,-60.4732 L 13.7865,-60.6183 L 13.6855,-60.7774 L 13.6053,-60.9478 L 13.5471,-61.127 L 13.5118,-61.312
 L 13.5,-61.5 L 13.5118,-61.688 L 13.5471,-61.873 L 13.6053,-62.0522 L 13.6855,-62.2226 L 13.7865,-62.3817
 L 13.9065,-62.5268 L 14.0439,-62.6558 L 14.1963,-62.7665 L 14.3613,-62.8573 L 14.5365,-62.9266 L 14.7189,-62.9734
 L 14.9058,-62.997 L 15.0942,-62.997 L 15.2811,-62.9734 L 15.4635,-62.9266 L 15.6387,-62.8573 L 15.8037,-62.7665
 L 15.9561,-62.6558 L 16.0934,-62.5268 L 16.2135,-62.3817 L 16.3145,-62.2226 L 16.3947,-62.0522 L 16.4529,-61.873
 L 16.4882,-61.688 L 16.5,-61.5 L 16.4882,-61.312 L 16.4529,-61.127 L 16.3947,-60.9478 L 16.3145,-60.7774
 L 16.2135,-60.6183 L 16.0934,-60.4732 L 15.9561,-60.3442 L 15.8037,-60.2335 L 15.6387,-60.1428 L 15.4635,-60.0734
 L 15.2811,-60.0266 L 15.0942,-60.003 z
M -15.1884,-51.0059 L -15.5621,-51.0531 L -15.927,-51.1468 L -16.2773,-51.2855 L -16.6075,-51.467 L -16.9123,-51.6885
 L -17.1869,-51.9464 L -17.427,-52.2366 L -17.6289,-52.5547 L -17.7893,-52.8956 L -17.9057,-53.2539 L -17.9763,-53.624
 L -18,-54 L -17.9763,-54.376 L -17.9057,-54.7461 L -17.7893,-55.1044 L -17.6289,-55.4453 L -17.427,-55.7634
 L -17.1869,-56.0536 L -16.9123,-56.3116 L -16.6075,-56.533 L -16.2773,-56.7145 L -15.927,-56.8532 L -15.5621,-56.9469
 L -15.1884,-56.9941 L -14.8116,-56.9941 L -14.4379,-56.9469 L -14.0729,-56.8532 L -13.7227,-56.7145 L -13.3925,-56.533
 L -13.0877,-56.3116 L -12.8131,-56.0536 L -12.5729,-55.7634 L -12.3711,-55.4453 L -12.2107,-55.1044 L -12.0942,-54.7461
 L -12.0237,-54.376 L -12,-54 L -12.0237,-53.624 L -12.0942,-53.2539 L -12.2107,-52.8956 L -12.3711,-52.5547
 L -12.5729,-52.2366 L -12.8131,-51.9464 L -13.0877,-51.6885 L -13.3925,-51.467 L -13.7227,-51.2855 L -14.0729,-51.1468
 L -14.4379,-51.0531 L -14.8116,-51.0059 z
M 14.8116,-51.0059 L 14.4379,-51.0531 L 14.0729,-51.1468 L 13.7227,-51.2855 L 13.3925,-51.467 L 13.0877,-51.6885
 L 12.8131,-51.9464 L 12.5729,-52.2366 L 12.3711,-52.5547 L 12.2107,-52.8956 L 12.0942,-53.2539 L 12.0237,-53.624
 L 12,-54 L 12.0237,-54.376 L 12.0942,-54.7461 L 12.2107,-55.1044 L 12.3711,-55.4453 L 12.5729,-55.7634
 L 12.8131,-56.0536 L 13.0877,-56.3116 L 13.3925,-56.533 L 13.7227,-56.7145 L 14.0729,-56.8532 L 14.4379,-56.9469
 L 14.8116,-56.9941 L 15.1884,-56.9941 L 15.5621,-56.9469 L 15.927,-56.8532 L 16.2773,-56.7145 L 16.6075,-56.533
 L 16.9123,-56.3116 L 17.1869,-56.0536 L 17.427,-55.7634 L 17.6289,-55.4453 L 17.7893,-55.1044 L 17.9057,-54.7461
 L 17.9763,-54.376 L 18,-54 L 17.9763,-53.624 L 17.9057,-53.2539 L 17.7893,-52.8956 L 17.6289,-52.5547
 L 17.427,-52.2366 L 17.1869,-51.9464 L 16.9123,-51.6885 L 16.6075,-51.467 L 16.2773,-51.2855 L 15.927,-51.1468
 L 15.5621,-51.0531 L 15.1884,-51.0059 z
M 7.40581,-52.503 L 7.21892,-52.5266 L 7.03647,-52.5734 L 6.86133,-52.6428 L 6.69626,-52.7335 L 6.54385,-52.8442
 L 6.40654,-52.9732 L 6.28647,-53.1183 L 6.18553,-53.2774 L 6.10533,-53.4478 L 6.04712,-53.627 L 6.01183,-53.812
 L 6,-54 L 6.01183,-54.188 L 6.04712,-54.373 L 6.10533,-54.5522 L 6.18553,-54.7226 L 6.28647,-54.8817
 L 6.40654,-55.0268 L 6.54385,-55.1558 L 6.69626,-55.2665 L 6.86133,-55.3573 L 7.03647,-55.4266 L 7.21892,-55.4734
 L 7.40581,-55.497 L 7.59418,-55.497 L 7.78107,-55.4734 L 7.96352,-55.4266 L 8.13866,-55.3573 L 8.30373,-55.2665
 L 8.45613,-55.1558 L 8.59344,-55.0268 L 8.71352,-54.8817 L 8.81445,-54.7226 L 8.89465,-54.5522 L 8.95287,-54.373
 L 8.98816,-54.188 L 9,-54 L 8.98816,-53.812 L 8.95287,-53.627 L 8.89465,-53.4478 L 8.81445,-53.2774
 L 8.71352,-53.1183 L 8.59344,-52.9732 L 8.45613,-52.8442 L 8.30373,-52.7335 L 8.13866,-52.6428 L 7.96352,-52.5734
 L 7.78107,-52.5266 L 7.59418,-52.503 z
M -7.59418,-52.503 L -7.78107,-52.5266 L -7.96352,-52.5734 L -8.13866,-52.6428 L -8.30373,-52.7335 L -8.45613,-52.8442
 L -8.59344,-52.9732 L -8.71352,-53.1183 L -8.81445,-53.2774 L -8.89465,-53.4478 L -8.95287,-53.627 L -8.98816,-53.812
 L -9,-54 L -8.98816,-54.188 L -8.95287,-54.373 L -8.89465,-54.5522 L -8.81445,-54.7226 L -8.71352,-54.8817
 L -8.59344,-55.0268 L -8.45613,-55.1558 L -8.30373,-55.2665 L -8.13866,-55.3573 L -7.96352,-55.4266 L -7.78107,-55.4734
 L -7.59418,-55.497 L -7.40581,-55.497 L -7.21892,-55.4734 L -7.03647,-55.4266 L -6.86133,-55.3573 L -6.69626,-55.2665
 L -6.54385,-55.1558 L -6.40654,-55.0268 L -6.28647,-54.8817 L -6.18553,-54.7226 L -6.10533,-54.5522 L -6.04712,-54.373
 L -6.01183,-54.188 L -6,-54 L -6.01183,-53.812 L -6.04712,-53.627 L -6.10533,-53.4478 L -6.18553,-53.2774
 L -6.28647,-53.1183 L -6.40654,-52.9732 L -6.54385,-52.8442 L -6.69626,-52.7335 L -6.86133,-52.6428 L -7.03647,-52.5734
 L -7.21892,-52.5266 L -7.40581,-52.503 z
" stroke="black" fill="lightgray" stroke-width="0.5"/>
</svg>
