<?xml version="1.0" standalone="no"?>
<!DOCTYPE svg PUBLIC "-//W3C//DTD SVG 1.1//EN" "http://www.w3.org/Graphics/SVG/1.1/DTD/svg11.dtd">
<svg width="136mm" height="424mm" viewBox="-68 -644 136 424" xmlns="http://www.w3.org/2000/svg" version="1.1">
<title>OpenSCAD Model</title>
<path d="
M -64.5,-508.925 L -64.0451,-508.745 L -63.4369,-508.589 L -62.8139,-508.51 L 62.8139,-508.51 L 63.4369,-508.589
 L 64.0451,-508.745 L 64.6289,-508.976 L 65.1791,-509.278 L 65.6871,-509.647 L 66.1448,-510.077 L 66.5451,-510.561
 L 66.8815,-511.091 L 67.1489,-511.659 L 67.3429,-512.257 L 67.4606,-512.873 L 67.5,-513.5 L 67.5,-638.5
 L 67.4606,-639.127 L 67.3429,-639.743 L 67.1489,-640.341 L 66.8815,-640.909 L 66.5451,-641.439 L 66.1448,-641.923
 L 65.6871,-642.353 L 65.1791,-642.722 L 64.6289,-643.024 L 64.0451,-643.255 L 63.4369,-643.411 L 62.8139,-643.49
 L -62.8139,-643.49 L -63.4369,-643.411 L -64.0451,-643.255 L -64.5,-643.075 L -64.5,-643.49 L -67.5,-643.49
 L -67.5,-508.51 L -64.5,-508.51 z
M -62.2432,-510.135 L -62.7256,-510.196 L -63.1967,-510.317 L -63.6489,-510.496 L -64.0751,-510.73 L -64.4685,-511.016
 L -64.823,-511.349 L -65.133,-511.724 L -65.3936,-512.134 L -65.6007,-512.574 L -65.751,-513.037 L -65.8421,-513.515
 L -65.8726,-514 L -65.8726,-638 L -65.8421,-638.485 L -65.751,-638.963 L -65.6007,-639.426 L -65.3936,-639.866
 L -65.133,-640.276 L -64.823,-640.651 L -64.4685,-640.984 L -64.0751,-641.27 L -63.6489,-641.504 L -63.1967,-641.683
 L -62.7256,-641.804 L -62.2432,-641.865 L 62.2432,-641.865 L 62.7256,-641.804 L 63.1967,-641.683 L 63.6489,-641.504
 L 64.0751,-641.27 L 64.4685,-640.984 L 64.823,-640.651 L 65.133,-640.276 L 65.3936,-639.866 L 65.6007,-639.426
 L 65.751,-638.963 L 65.8421,-638.485 L 65.8726,-638 L 65.8726,-514 L 65.8421,-513.515 L 65.751,-513.037
 L 65.6007,-512.574 L 65.3936,-512.134 L 65.133,-511.724 L 64.823,-511.349 L 64.4685,-511.016 L 64.0751,-510.73
 L 63.6489,-510.496 L 63.1967,-510.317 L 62.7256,-510.196 L 62.2432,-510.135 z
M 63.4369,-364.589 L 64.0451,-364.745 L 64.6289,-364.976 L 65.1791,-365.278 L 65.6871,-365.647 L 66.1448,-366.077
 L 66.5451,-366.561 L 66.8815,-367.091 L 67.1489,-367.659 L 67.3429,-368.257 L 67.4606,-368.873 L 67.5,-369.5
 L 67.5,-494.5 L 67.4606,-495.127 L 67.3429,-495.743 L 67.1489,-496.341 L 66.8815,-496.909 L 66.5451,-497.439
 L 66.1448,-497.923 L 65.6871,-498.353 L 65.1791,-498.722 L 64.6289,-499.024 L 64.0451,-499.255 L 63.4369,-499.411
 L 62.8139,-499.49 L -62.8139,-499.49 L -63.4369,-499.411 L -64.0451,-499.255 L -64.5,-499.075 L -64.5,-499.115
 L -67.5,-499.115 L -67.5,-364.885 L -64.5,-364.885 L -64.5,-364.925 L -64.0451,-364.745 L -63.4369,-364.589
 L -62.8139,-364.51 L 62.8139,-364.51 z
M 59.8493,-489.605 L 59.5503,-489.643 L 59.2584,-489.717 L 58.9781,-489.828 L 58.714,-489.974 L 58.4702,-490.151
 L 58.2505,-490.357 L 58.0583,-490.589 L 57.8969,-490.844 L 57.7685,-491.117 L 57.6754,-491.403 L 57.6189,-491.699
 L 57.6,-492 L 57.6189,-492.301 L 57.6754,-492.597 L 57.7685,-492.883 L 57.8969,-493.156 L 58.0583,-493.411
 L 58.2505,-493.643 L 58.4702,-493.849 L 58.714,-494.026 L 58.9781,-494.172 L 59.2584,-494.283 L 59.5503,-494.357
 L 59.8493,-494.395 L 60.1507,-494.395 L 60.4497,-494.357 L 60.7416,-494.283 L 61.0219,-494.172 L 61.286,-494.026
 L 61.5298,-493.849 L 61.7495,-493.643 L 61.9416,-493.411 L 62.1031,-493.156 L 62.2315,-492.883 L 62.3246,-492.597
 L 62.3811,-492.301 L 62.4,-492 L 62.3811,-491.699 L 62.3246,-491.403 L 62.2315,-491.117 L 62.1031,-490.844
 L 61.9416,-490.589 L 61.7495,-490.357 L 61.5298,-490.151 L 61.286,-489.974 L 61.0219,-489.828 L 60.7416,-489.717
 L 60.4497,-489.643 L 60.1507,-489.605 z
M -60.1507,-489.605 L -60.4497,-489.643 L -60.7416,-489.717 L -61.0219,-489.828 L -61.286,-489.974 L -61.5298,-490.151
 L -61.7495,-490.357 L -61.9416,-490.589 L -62.1031,-490.844 L -62.2315,-491.117 L -62.3246,-491.403 L -62.3811,-491.699
 L -62.4,-492 L -62.3811,-492.301 L -62.3246,-492.597 L -62.2315,-492.883 L -62.1031,-493.156 L -61.9416,-493.411
 L -61.7495,-493.643 L -61.5298,-493.849 L -61.286,-494.026 L -61.0219,-494.172 L -60.7416,-494.283 L -60.4497,-494.357
 L -60.1507,-494.395 L -59.8493,-494.395 L -59.5503,-494.357 L -59.2584,-494.283 L -58.9781,-494.172 L -58.714,-494.026
 L -58.4702,-493.849 L -58.2505,-493.643 L -58.0583,-493.411 L -57.8969,-493.156 L -57.7685,-492.883 L -57.6754,-492.597
 L -57.6189,-492.301 L -57.6,-492 L -57.6189,-491.699 L -57.6754,-491.403 L -57.7685,-491.117 L -57.8969,-490.844
 L -58.0583,-490.589 L -58.2505,-490.357 L -58.4702,-490.151 L -58.714,-489.974 L -58.9781,-489.828 L -59.2584,-489.717
 L -59.5503,-489.643 L -59.8493,-489.605 z
M 59.8493,-369.605 L 59.5503,-369.643 L 59.2584,-369.717 L 58.9781,-369.828 L 58.714,-369.974 L 58.4702,-370.151
 L 58.2505,-370.357 L 58.0583,-370.589 L 57.8969,-370.844 L 57.7685,-371.117 L 57.6754,-371.403 L 57.6189,-371.699
 L 57.6,-372 L 57.6189,-372.301 L 57.6754,-372.597 L 57.7685,-372.883 L 57.8969,-373.156 L 58.0583,-373.411
 L 58.2505,-373.643 L 58.4702,-373.849 L 58.714,-374.026 L 58.9781,-374.172 L 59.2584,-374.283 L 59.5503,-374.357
 L 59.8493,-374.395 L 60.1507,-374.395 L 60.4497,-374.357 L 60.7416,-374.283 L 61.0219,-374.172 L 61.286,-374.026
 L 61.5298,-373.849 L 61.7495,-373.643 L 61.9416,-373.411 L 62.1031,-373.156 L 62.2315,-372.883 L 62.3246,-372.597
 L 62.3811,-372.301 L 62.4,-372 L 62.3811,-371.699 L 62.3246,-371.403 L 62.2315,-371.117 L 62.1031,-370.844
 L 61.9416,-370.589 L 61.7495,-370.357 L 61.5298,-370.151 L 61.286,-369.974 L 61.0219,-369.828 L 60.7416,-369.717
 L 60.4497,-369.643 L 60.1507,-369.605 z
M -60.1507,-369.605 L -60.4497,-369.643 L -60.7416,-369.717 L -61.0219,-369.828 L -61.286,-369.974 L -61.5298,-370.151
 L -61.7495,-370.357 L -61.9416,-370.589 L -62.1031,-370.844 L -62.2315,-371.117 L -62.3246,-371.403 L -62.3811,-371.699
 L -62.4,-372 L -62.3811,-372.301 L -62.3246,-372.597 L -62.2315,-372.883 L -62.1031,-373.156 L -61.9416,-373.411
 L -61.7495,-373.643 L -61.5298,-373.849 L -61.286,-374.026 L -61.0219,-374.172 L -60.7416,-374.283 L -60.4497,-374.357
 L -60.1507,-374.395 L -59.8493,-374.395 L -59.5503,-374.357 L -59.2584,-374.283 L -58.9781,-374.172 L -58.714,-374.026
 L -58.4702,-373.849 L -58.2505,-373.643 L -58.0583,-373.411 L -57.8969,-373.156 L -57.7685,-372.883 L -57.6754,-372.597
 L -57.6189,-372.301 L -57.6,-372 L -57.6189,-371.699 L -57.6754,-371.403 L -57.7685,-371.117 L -57.8969,-370.844
 L -58.0583,-370.589 L -58.2505,-370.357 L -58.4702,-370.151 L -58.714,-369.974 L -58.9781,-369.828 L -59.2584,-369.717
 L -59.5503,-369.643 L -59.8493,-369.605 z
M 63.4369,-220.589 L 64.0451,-220.745 L 64.6289,-220.976 L 65.1791,-221.278 L 65.6871,-221.647 L 66.1448,-222.077
 L 66.5451,-222.561 L 66.8815,-223.091 L 67.1489,-223.659 L 67.3429,-224.257 L 67.4606,-224.873 L 67.5,-225.5
 L 67.5,-350.5 L 67.4606,-351.127 L 67.3429,-351.743 L 67.1489,-352.341 L 66.8815,-352.909 L 66.5451,-353.439
 L 66.1448,-353.923 L 65.6871,-354.353 L 65.1791,-354.722 L 64.6289,-355.024 L 64.0451,-355.255 L 63.4369,-355.411
 L 62.8139,-355.49 L -62.8139,-355.49 L -63.4369,-355.411 L -64.0451,-355.255 L -64.6289,-355.024 L -65.1791,-354.722
 L -65.6871,-354.353 L -66.1448,-353.923 L -66.5451,-353.439 L -66.8815,-352.909 L -67.1489,-352.341 L -67.3429,-351.743
 L -67.4,-351.444 L -67.5,-351.444 L -67.5,-224.556 L -67.4,-224.556 L -67.3429,-224.257 L -67.1489,-223.659
 L -66.8815,-223.091 L -66.5451,-222.561 L -66.1448,-222.077 L -65.6871,-221.647 L -65.1791,-221.278 L -64.6289,-220.976
 L -64.0451,-220.745 L -63.4369,-220.589 L -62.8139,-220.51 L 62.8139,-220.51 z
M 59.887,-346.204 L 59.6627,-346.232 L 59.4438,-346.288 L 59.2336,-346.371 L 59.0355,-346.48 L 58.8526,-346.613
 L 58.6879,-346.768 L 58.5438,-346.942 L 58.4226,-347.133 L 58.3264,-347.337 L 58.2565,-347.552 L 58.2142,-347.774
 L 58.2,-348 L 58.2142,-348.226 L 58.2565,-348.448 L 58.3264,-348.663 L 58.4226,-348.867 L 58.5438,-349.058
 L 58.6879,-349.232 L 58.8526,-349.387 L 59.0355,-349.52 L 59.2336,-349.629 L 59.4438,-349.712 L 59.6627,-349.768
 L 59.887,-349.796 L 60.113,-349.796 L 60.3373,-349.768 L 60.5562,-349.712 L 60.7664,-349.629 L 60.9645,-349.52
 L 61.1474,-349.387 L 61.3121,-349.232 L 61.4562,-349.058 L 61.5773,-348.867 L 61.6736,-348.663 L 61.7434,-348.448
 L 61.7858,-348.226 L 61.8,-348 L 61.7858,-347.774 L 61.7434,-347.552 L 61.6736,-347.337 L 61.5773,-347.133
 L 61.4562,-346.942 L 61.3121,-346.768 L 61.1474,-346.613 L 60.9645,-346.48 L 60.7664,-346.371 L 60.5562,-346.288
 L 60.3373,-346.232 L 60.113,-346.204 z
M -60.113,-346.204 L -60.3373,-346.232 L -60.5562,-346.288 L -60.7664,-346.371 L -60.9645,-346.48 L -61.1474,-346.613
 L -61.3121,-346.768 L -61.4562,-346.942 L -61.5773,-347.133 L -61.6736,-347.337 L -61.7434,-347.552 L -61.7858,-347.774
 L -61.8,-348 L -61.7858,-348.226 L -61.7434,-348.448 L -61.6736,-348.663 L -61.5773,-348.867 L -61.4562,-349.058
 L -61.3121,-349.232 L -61.1474,-349.387 L -60.9645,-349.52 L -60.7664,-349.629 L -60.5562,-349.712 L -60.3373,-349.768
 L -60.113,-349.796 L -59.887,-349.796 L -59.6627,-349.768 L -59.4438,-349.712 L -59.2336,-349.629 L -59.0355,-349.52
 L -58.8526,-349.387 L -58.6879,-349.232 L -58.5438,-349.058 L -58.4226,-348.867 L -58.3264,-348.663 L -58.2565,-348.448
 L -58.2142,-348.226 L -58.2,-348 L -58.2142,-347.774 L -58.2565,-347.552 L -58.3264,-347.337 L -58.4226,-347.133
 L -58.5438,-346.942 L -58.6879,-346.768 L -58.8526,-346.613 L -59.0355,-346.48 L -59.2336,-346.371 L -59.4438,-346.288
 L -59.6627,-346.232 L -59.887,-346.204 z
M 59.887,-226.204 L 59.6627,-226.232 L 59.4438,-226.288 L 59.2336,-226.371 L 59.0355,-226.48 L 58.8526,-226.613
 L 58.6879,-226.768 L 58.5438,-226.942 L 58.4226,-227.133 L 58.3264,-227.337 L 58.2565,-227.552 L 58.2142,-227.774
 L 58.2,-228 L 58.2142,-228.226 L 58.2565,-228.448 L 58.3264,-228.663 L 58.4226,-228.867 L 58.5438,-229.058
 L 58.6879,-229.232 L 58.8526,-229.387 L 59.0355,-229.52 L 59.2336,-229.629 L 59.4438,-229.712 L 59.6627,-229.768
 L 59.887,-229.796 L 60.113,-229.796 L 60.3373,-229.768 L 60.5562,-229.712 L 60.7664,-229.629 L 60.9645,-229.52
 L 61.1474,-229.387 L 61.3121,-229.232 L 61.4562,-229.058 L 61.5773,-228.867 L 61.6736,-228.663 L 61.7434,-228.448
 L 61.7858,-228.226 L 61.8,-228 L 61.7858,-227.774 L 61.7434,-227.552 L 61.6736,-227.337 L 61.5773,-227.133
 L 61.4562,-226.942 L 61.3121,-226.768 L 61.1474,-226.613 L 60.9645,-226.48 L 60.7664,-226.371 L 60.5562,-226.288
 L 60.3373,-226.232 L 60.113,-226.204 z
M -60.113,-226.204 L -60.3373,-226.232 L -60.5562,-226.288 L -60.7664,-226.371 L -60.9645,-226.48 L -61.1474,-226.613
 L -61.3121,-226.768 L -61.4562,-226.942 L -61.5773,-227.133 L -61.6736,-227.337 L -61.7434,-227.552 L -61.7858,-227.774
 L -61.8,-228 L -61.7858,-228.226 L -61.7434,-228.448 L -61.6736,-228.663 L -61.5773,-228.867 L -61.4562,-229.058
 L -61.3121,-229.232 L -61.1474,-229.387 L -60.9645,-229.52 L -60.7664,-229.629 L -60.5562,-229.712 L -60.3373,-229.768
 L -60.113,-229.796 L -59.887,-229.796 L -59.6627,-229.768 L -59.4438,-229.712 L -59.2336,-229.629 L -59.0355,-229.52
 L -58.8526,-229.387 L -58.6879,-229.232 L -58.5438,-229.058 L -58.4226,-228.867 L -58.3264,-228.663 L -58.2565,-228.448
 L -58.2142,-228.226 L -58.2,-228 L -58.2142,-227.774 L -58.2565,-227.552 L -58.3264,-227.337 L -58.4226,-227.133
 L -58.5438,-226.942 L -58.6879,-226.768 L -58.8526,-226.613 L -59.0355,-226.48 L -59.2336,-226.371 L -59.4438,-226.288
 L -59.6627,-226.232 L -59.887,-226.204 z
" stroke="black" fill="lightgray" stroke-width="0.5"/>
</svg>
