solid OpenSCAD_Model
  facet normal 0.998026 0.0628038 0
    outer loop
      vertex 11.5 0 4
      vertex 11.4093 1.44133 0
      vertex 11.4093 1.44133 4
    endloop
  endfacet
  facet normal 0.998026 0.0628038 0
    outer loop
      vertex 11.4093 1.44133 0
      vertex 11.5 0 4
      vertex 11.5 0 0
    endloop
  endfacet
  facet normal -0.998026 0.0628038 0
    outer loop
      vertex -11.5 0 0
      vertex -11.4093 1.44133 4
      vertex -11.4093 1.44133 0
    endloop
  endfacet
  facet normal -0.998026 0.0628038 0
    outer loop
      vertex -11.4093 1.44133 4
      vertex -11.5 0 0
      vertex -11.5 0 4
    endloop
  endfacet
  facet normal 0 1 -0
    outer loop
      vertex 0.722091 11.4773 0
      vertex -0.722091 11.4773 4
      vertex 0.722091 11.4773 4
    endloop
  endfacet
  facet normal 0 1 0
    outer loop
      vertex -0.722091 11.4773 4
      vertex 0.722091 11.4773 0
      vertex -0.722091 11.4773 0
    endloop
  endfacet
  facet normal 0 -1 0
    outer loop
      vertex -0.722091 -11.4773 0
      vertex 0.722091 -11.4773 4
      vertex -0.722091 -11.4773 4
    endloop
  endfacet
  facet normal 0 -1 -0
    outer loop
      vertex 0.722091 -11.4773 4
      vertex -0.722091 -11.4773 0
      vertex 0.722091 -11.4773 0
    endloop
  endfacet
  facet normal 0.770515 -0.637422 0
    outer loop
      vertex 8.38314 -7.87229 4
      vertex 9.30369 -6.75953 0
      vertex 9.30369 -6.75953 4
    endloop
  endfacet
  facet normal 0.770515 -0.637422 0
    outer loop
      vertex 9.30369 -6.75953 0
      vertex 8.38314 -7.87229 4
      vertex 8.38314 -7.87229 0
    endloop
  endfacet
  facet normal 0.684548 0.728968 -0
    outer loop
      vertex 8.38314 7.87229 0
      vertex 7.33038 8.8609 4
      vertex 8.38314 7.87229 4
    endloop
  endfacet
  facet normal 0.684548 0.728968 0
    outer loop
      vertex 7.33038 8.8609 4
      vertex 8.38314 7.87229 0
      vertex 7.33038 8.8609 0
    endloop
  endfacet
  facet normal -0.684548 0.728968 0
    outer loop
      vertex -7.33038 8.8609 0
      vertex -8.38314 7.87229 4
      vertex -7.33038 8.8609 4
    endloop
  endfacet
  facet normal -0.684548 0.728968 0
    outer loop
      vertex -8.38314 7.87229 4
      vertex -7.33038 8.8609 0
      vertex -8.38314 7.87229 0
    endloop
  endfacet
  facet normal -0.3681 0.929786 0
    outer loop
      vertex -3.55369 10.9371 0
      vertex -4.89646 10.4055 4
      vertex -3.55369 10.9371 4
    endloop
  endfacet
  facet normal -0.3681 0.929786 0
    outer loop
      vertex -4.89646 10.4055 4
      vertex -3.55369 10.9371 0
      vertex -4.89646 10.4055 0
    endloop
  endfacet
  facet normal 0.904828 0.425776 0
    outer loop
      vertex 10.6924 4.23343 4
      vertex 10.0775 5.54017 0
      vertex 10.0775 5.54017 4
    endloop
  endfacet
  facet normal 0.904828 0.425776 0
    outer loop
      vertex 10.0775 5.54017 0
      vertex 10.6924 4.23343 4
      vertex 10.6924 4.23343 0
    endloop
  endfacet
  facet normal 0.3681 0.929786 -0
    outer loop
      vertex 4.89646 10.4055 0
      vertex 3.55369 10.9371 4
      vertex 4.89646 10.4055 4
    endloop
  endfacet
  facet normal 0.3681 0.929786 0
    outer loop
      vertex 3.55369 10.9371 4
      vertex 4.89646 10.4055 0
      vertex 3.55369 10.9371 0
    endloop
  endfacet
  facet normal 0.481747 0.87631 -0
    outer loop
      vertex 6.16201 9.70977 0
      vertex 4.89646 10.4055 4
      vertex 6.16201 9.70977 4
    endloop
  endfacet
  facet normal 0.481747 0.87631 0
    outer loop
      vertex 4.89646 10.4055 4
      vertex 6.16201 9.70977 0
      vertex 4.89646 10.4055 0
    endloop
  endfacet
  facet normal -0.904828 0.425776 0
    outer loop
      vertex -10.6924 4.23343 0
      vertex -10.0775 5.54017 4
      vertex -10.0775 5.54017 0
    endloop
  endfacet
  facet normal -0.904828 0.425776 0
    outer loop
      vertex -10.0775 5.54017 4
      vertex -10.6924 4.23343 0
      vertex -10.6924 4.23343 4
    endloop
  endfacet
  facet normal -0.770515 0.637422 0
    outer loop
      vertex -9.30369 6.75953 0
      vertex -8.38314 7.87229 4
      vertex -8.38314 7.87229 0
    endloop
  endfacet
  facet normal -0.770515 0.637422 0
    outer loop
      vertex -8.38314 7.87229 4
      vertex -9.30369 6.75953 0
      vertex -9.30369 6.75953 4
    endloop
  endfacet
  facet normal 0 0 1
    outer loop
      vertex 8.5 0 4
      vertex 11.5 0 4
      vertex 11.4093 1.44133 4
    endloop
  endfacet
  facet normal 0 0 1
    outer loop
      vertex 8.43297 1.06533 4
      vertex 11.4093 1.44133 4
      vertex 11.1387 2.85993 4
    endloop
  endfacet
  facet normal 0 0 1
    outer loop
      vertex 11.5 0 4
      vertex 8.5 0 4
      vertex 11.4093 -1.44133 4
    endloop
  endfacet
  facet normal 0 0 1
    outer loop
      vertex 8.23296 2.11386 4
      vertex 11.1387 2.85993 4
      vertex 10.6924 4.23343 4
    endloop
  endfacet
  facet normal -0 0 1
    outer loop
      vertex 8.43297 -1.06533 4
      vertex 11.4093 -1.44133 4
      vertex 8.5 0 4
    endloop
  endfacet
  facet normal 0 0 1
    outer loop
      vertex 7.9031 3.12906 4
      vertex 10.6924 4.23343 4
      vertex 10.0775 5.54017 4
    endloop
  endfacet
  facet normal 0 0 1
    outer loop
      vertex 11.4093 -1.44133 4
      vertex 8.43297 -1.06533 4
      vertex 11.1387 -2.85993 4
    endloop
  endfacet
  facet normal 0 0 1
    outer loop
      vertex 7.44861 4.09491 4
      vertex 10.0775 5.54017 4
      vertex 9.30369 6.75953 4
    endloop
  endfacet
  facet normal -0 0 1
    outer loop
      vertex 8.23296 -2.11386 4
      vertex 11.1387 -2.85993 4
      vertex 8.43297 -1.06533 4
    endloop
  endfacet
  facet normal 0 0 1
    outer loop
      vertex 11.1387 -2.85993 4
      vertex 8.23296 -2.11386 4
      vertex 10.6924 -4.23343 4
    endloop
  endfacet
  facet normal 0 0 1
    outer loop
      vertex 11.4093 1.44133 4
      vertex 8.43297 1.06533 4
      vertex 8.5 0 4
    endloop
  endfacet
  facet normal 0 0 1
    outer loop
      vertex 6.87664 4.99617 4
      vertex 9.30369 6.75953 4
      vertex 8.38314 7.87229 4
    endloop
  endfacet
  facet normal 0 0 1
    outer loop
      vertex 11.1387 2.85993 4
      vertex 8.23296 2.11386 4
      vertex 8.43297 1.06533 4
    endloop
  endfacet
  facet normal 0 0 1
    outer loop
      vertex 10.6924 4.23343 4
      vertex 7.9031 3.12906 4
      vertex 8.23296 2.11386 4
    endloop
  endfacet
  facet normal 0 0 1
    outer loop
      vertex 10.0775 5.54017 4
      vertex 7.44861 4.09491 4
      vertex 7.9031 3.12906 4
    endloop
  endfacet
  facet normal 0 0 1
    outer loop
      vertex 6.19623 5.81865 4
      vertex 8.38314 7.87229 4
      vertex 7.33038 8.8609 4
    endloop
  endfacet
  facet normal 0 0 1
    outer loop
      vertex 9.30369 6.75953 4
      vertex 6.87664 4.99617 4
      vertex 7.44861 4.09491 4
    endloop
  endfacet
  facet normal 0 0 1
    outer loop
      vertex 8.38314 7.87229 4
      vertex 6.19623 5.81865 4
      vertex 6.87664 4.99617 4
    endloop
  endfacet
  facet normal 0 0 1
    outer loop
      vertex 5.4181 6.54936 4
      vertex 7.33038 8.8609 4
      vertex 6.16201 9.70977 4
    endloop
  endfacet
  facet normal 0 0 1
    outer loop
      vertex 7.33038 8.8609 4
      vertex 5.4181 6.54936 4
      vertex 6.19623 5.81865 4
    endloop
  endfacet
  facet normal 0 0 1
    outer loop
      vertex 4.55453 7.17679 4
      vertex 6.16201 9.70977 4
      vertex 4.89646 10.4055 4
    endloop
  endfacet
  facet normal 0 0 1
    outer loop
      vertex 6.16201 9.70977 4
      vertex 4.55453 7.17679 4
      vertex 5.4181 6.54936 4
    endloop
  endfacet
  facet normal 0 0 1
    outer loop
      vertex 4.89646 10.4055 4
      vertex 3.61912 7.69103 4
      vertex 4.55453 7.17679 4
    endloop
  endfacet
  facet normal 0 0 1
    outer loop
      vertex 3.55369 10.9371 4
      vertex 3.61912 7.69103 4
      vertex 4.89646 10.4055 4
    endloop
  endfacet
  facet normal 0 0 1
    outer loop
      vertex 3.55369 10.9371 4
      vertex 2.62664 8.08398 4
      vertex 3.61912 7.69103 4
    endloop
  endfacet
  facet normal 0 0 1
    outer loop
      vertex 2.15488 11.2963 4
      vertex 2.62664 8.08398 4
      vertex 3.55369 10.9371 4
    endloop
  endfacet
  facet normal 0 0 1
    outer loop
      vertex 2.15488 11.2963 4
      vertex 1.59274 8.34944 4
      vertex 2.62664 8.08398 4
    endloop
  endfacet
  facet normal 0 0 1
    outer loop
      vertex 0.722091 11.4773 4
      vertex 1.59274 8.34944 4
      vertex 2.15488 11.2963 4
    endloop
  endfacet
  facet normal 0 0 1
    outer loop
      vertex 0.722091 11.4773 4
      vertex 0.533719 8.48323 4
      vertex 1.59274 8.34944 4
    endloop
  endfacet
  facet normal 0 0 1
    outer loop
      vertex 0.722091 11.4773 4
      vertex -0.533719 8.48323 4
      vertex 0.533719 8.48323 4
    endloop
  endfacet
  facet normal -0 0 1
    outer loop
      vertex -0.722091 11.4773 4
      vertex -0.533719 8.48323 4
      vertex 0.722091 11.4773 4
    endloop
  endfacet
  facet normal 0 0 1
    outer loop
      vertex -0.722091 11.4773 4
      vertex -1.59274 8.34944 4
      vertex -0.533719 8.48323 4
    endloop
  endfacet
  facet normal -0 0 1
    outer loop
      vertex -2.15488 11.2963 4
      vertex -1.59274 8.34944 4
      vertex -0.722091 11.4773 4
    endloop
  endfacet
  facet normal 0 0 1
    outer loop
      vertex -2.15488 11.2963 4
      vertex -2.62664 8.08398 4
      vertex -1.59274 8.34944 4
    endloop
  endfacet
  facet normal -0 0 1
    outer loop
      vertex -3.55369 10.9371 4
      vertex -2.62664 8.08398 4
      vertex -2.15488 11.2963 4
    endloop
  endfacet
  facet normal 0 0 1
    outer loop
      vertex -3.55369 10.9371 4
      vertex -3.61912 7.69103 4
      vertex -2.62664 8.08398 4
    endloop
  endfacet
  facet normal -0 0 1
    outer loop
      vertex -4.89646 10.4055 4
      vertex -3.61912 7.69103 4
      vertex -3.55369 10.9371 4
    endloop
  endfacet
  facet normal 0 0 1
    outer loop
      vertex -3.61912 7.69103 4
      vertex -4.89646 10.4055 4
      vertex -4.55453 7.17679 4
    endloop
  endfacet
  facet normal -0 0 1
    outer loop
      vertex -6.16201 9.70977 4
      vertex -4.55453 7.17679 4
      vertex -4.89646 10.4055 4
    endloop
  endfacet
  facet normal 0 0 1
    outer loop
      vertex -4.55453 7.17679 4
      vertex -6.16201 9.70977 4
      vertex -5.4181 6.54936 4
    endloop
  endfacet
  facet normal -0 0 1
    outer loop
      vertex -7.33038 8.8609 4
      vertex -5.4181 6.54936 4
      vertex -6.16201 9.70977 4
    endloop
  endfacet
  facet normal 0 0 1
    outer loop
      vertex -5.4181 6.54936 4
      vertex -7.33038 8.8609 4
      vertex -6.19623 5.81865 4
    endloop
  endfacet
  facet normal -0 0 1
    outer loop
      vertex -8.38314 7.87229 4
      vertex -6.19623 5.81865 4
      vertex -7.33038 8.8609 4
    endloop
  endfacet
  facet normal 0 0 1
    outer loop
      vertex -6.19623 5.81865 4
      vertex -8.38314 7.87229 4
      vertex -6.87664 4.99617 4
    endloop
  endfacet
  facet normal -0 0 1
    outer loop
      vertex -9.30369 6.75953 4
      vertex -6.87664 4.99617 4
      vertex -8.38314 7.87229 4
    endloop
  endfacet
  facet normal 0 0 1
    outer loop
      vertex -6.87664 4.99617 4
      vertex -9.30369 6.75953 4
      vertex -7.44861 4.09491 4
    endloop
  endfacet
  facet normal -0 0 1
    outer loop
      vertex -10.0775 5.54017 4
      vertex -7.44861 4.09491 4
      vertex -9.30369 6.75953 4
    endloop
  endfacet
  facet normal 0 0 1
    outer loop
      vertex -7.44861 4.09491 4
      vertex -10.0775 5.54017 4
      vertex -7.9031 3.12906 4
    endloop
  endfacet
  facet normal -0 0 1
    outer loop
      vertex -10.6924 4.23343 4
      vertex -7.9031 3.12906 4
      vertex -10.0775 5.54017 4
    endloop
  endfacet
  facet normal 0 0 1
    outer loop
      vertex -7.9031 3.12906 4
      vertex -10.6924 4.23343 4
      vertex -8.23296 2.11386 4
    endloop
  endfacet
  facet normal -0 0 1
    outer loop
      vertex 7.9031 -3.12906 4
      vertex 10.6924 -4.23343 4
      vertex 8.23296 -2.11386 4
    endloop
  endfacet
  facet normal 0 0 1
    outer loop
      vertex 10.6924 -4.23343 4
      vertex 7.9031 -3.12906 4
      vertex 10.0775 -5.54017 4
    endloop
  endfacet
  facet normal -0 0 1
    outer loop
      vertex 7.44861 -4.09491 4
      vertex 10.0775 -5.54017 4
      vertex 7.9031 -3.12906 4
    endloop
  endfacet
  facet normal 0 0 1
    outer loop
      vertex 10.0775 -5.54017 4
      vertex 7.44861 -4.09491 4
      vertex 9.30369 -6.75953 4
    endloop
  endfacet
  facet normal -0 0 1
    outer loop
      vertex 6.87664 -4.99617 4
      vertex 9.30369 -6.75953 4
      vertex 7.44861 -4.09491 4
    endloop
  endfacet
  facet normal 0 0 1
    outer loop
      vertex 9.30369 -6.75953 4
      vertex 6.87664 -4.99617 4
      vertex 8.38314 -7.87229 4
    endloop
  endfacet
  facet normal -0 0 1
    outer loop
      vertex 6.19623 -5.81865 4
      vertex 8.38314 -7.87229 4
      vertex 6.87664 -4.99617 4
    endloop
  endfacet
  facet normal 0 0 1
    outer loop
      vertex 8.38314 -7.87229 4
      vertex 6.19623 -5.81865 4
      vertex 7.33038 -8.8609 4
    endloop
  endfacet
  facet normal -0 0 1
    outer loop
      vertex 5.4181 -6.54936 4
      vertex 7.33038 -8.8609 4
      vertex 6.19623 -5.81865 4
    endloop
  endfacet
  facet normal 0 0 1
    outer loop
      vertex 7.33038 -8.8609 4
      vertex 5.4181 -6.54936 4
      vertex 6.16201 -9.70977 4
    endloop
  endfacet
  facet normal -0 0 1
    outer loop
      vertex 4.55453 -7.17679 4
      vertex 6.16201 -9.70977 4
      vertex 5.4181 -6.54936 4
    endloop
  endfacet
  facet normal 0 0 1
    outer loop
      vertex 6.16201 -9.70977 4
      vertex 4.55453 -7.17679 4
      vertex 4.89646 -10.4055 4
    endloop
  endfacet
  facet normal -0 0 1
    outer loop
      vertex 3.61912 -7.69103 4
      vertex 4.89646 -10.4055 4
      vertex 4.55453 -7.17679 4
    endloop
  endfacet
  facet normal 0 0 1
    outer loop
      vertex 3.61912 -7.69103 4
      vertex 3.55369 -10.9371 4
      vertex 4.89646 -10.4055 4
    endloop
  endfacet
  facet normal -0 0 1
    outer loop
      vertex 2.62664 -8.08398 4
      vertex 3.55369 -10.9371 4
      vertex 3.61912 -7.69103 4
    endloop
  endfacet
  facet normal 0 0 1
    outer loop
      vertex 2.62664 -8.08398 4
      vertex 2.15488 -11.2963 4
      vertex 3.55369 -10.9371 4
    endloop
  endfacet
  facet normal -0 0 1
    outer loop
      vertex 1.59274 -8.34944 4
      vertex 2.15488 -11.2963 4
      vertex 2.62664 -8.08398 4
    endloop
  endfacet
  facet normal 0 0 1
    outer loop
      vertex 1.59274 -8.34944 4
      vertex 0.722091 -11.4773 4
      vertex 2.15488 -11.2963 4
    endloop
  endfacet
  facet normal -0 0 1
    outer loop
      vertex 0.533719 -8.48323 4
      vertex 0.722091 -11.4773 4
      vertex 1.59274 -8.34944 4
    endloop
  endfacet
  facet normal -0 0 1
    outer loop
      vertex -0.533719 -8.48323 4
      vertex 0.722091 -11.4773 4
      vertex 0.533719 -8.48323 4
    endloop
  endfacet
  facet normal 0 0 1
    outer loop
      vertex -0.533719 -8.48323 4
      vertex -0.722091 -11.4773 4
      vertex 0.722091 -11.4773 4
    endloop
  endfacet
  facet normal 0 0 1
    outer loop
      vertex -1.59274 -8.34944 4
      vertex -0.722091 -11.4773 4
      vertex -0.533719 -8.48323 4
    endloop
  endfacet
  facet normal 0 0 1
    outer loop
      vertex -1.59274 -8.34944 4
      vertex -2.15488 -11.2963 4
      vertex -0.722091 -11.4773 4
    endloop
  endfacet
  facet normal 0 0 1
    outer loop
      vertex -2.62664 -8.08398 4
      vertex -2.15488 -11.2963 4
      vertex -1.59274 -8.34944 4
    endloop
  endfacet
  facet normal 0 0 1
    outer loop
      vertex -2.62664 -8.08398 4
      vertex -3.55369 -10.9371 4
      vertex -2.15488 -11.2963 4
    endloop
  endfacet
  facet normal 0 0 1
    outer loop
      vertex -3.61912 -7.69103 4
      vertex -3.55369 -10.9371 4
      vertex -2.62664 -8.08398 4
    endloop
  endfacet
  facet normal 0 0 1
    outer loop
      vertex -4.89646 -10.4055 4
      vertex -3.61912 -7.69103 4
      vertex -4.55453 -7.17679 4
    endloop
  endfacet
  facet normal 0 0 1
    outer loop
      vertex -3.61912 -7.69103 4
      vertex -4.89646 -10.4055 4
      vertex -3.55369 -10.9371 4
    endloop
  endfacet
  facet normal 0 0 1
    outer loop
      vertex -6.16201 -9.70977 4
      vertex -4.55453 -7.17679 4
      vertex -5.4181 -6.54936 4
    endloop
  endfacet
  facet normal 0 0 1
    outer loop
      vertex -4.55453 -7.17679 4
      vertex -6.16201 -9.70977 4
      vertex -4.89646 -10.4055 4
    endloop
  endfacet
  facet normal 0 0 1
    outer loop
      vertex -7.33038 -8.8609 4
      vertex -5.4181 -6.54936 4
      vertex -6.19623 -5.81865 4
    endloop
  endfacet
  facet normal 0 0 1
    outer loop
      vertex -8.38314 -7.87229 4
      vertex -6.19623 -5.81865 4
      vertex -6.87664 -4.99617 4
    endloop
  endfacet
  facet normal 0 0 1
    outer loop
      vertex -5.4181 -6.54936 4
      vertex -7.33038 -8.8609 4
      vertex -6.16201 -9.70977 4
    endloop
  endfacet
  facet normal 0 0 1
    outer loop
      vertex -9.30369 -6.75953 4
      vertex -6.87664 -4.99617 4
      vertex -7.44861 -4.09491 4
    endloop
  endfacet
  facet normal 0 0 1
    outer loop
      vertex -10.0775 -5.54017 4
      vertex -7.44861 -4.09491 4
      vertex -7.9031 -3.12906 4
    endloop
  endfacet
  facet normal 0 0 1
    outer loop
      vertex -10.6924 -4.23343 4
      vertex -7.9031 -3.12906 4
      vertex -8.23296 -2.11386 4
    endloop
  endfacet
  facet normal 0 0 1
    outer loop
      vertex -6.19623 -5.81865 4
      vertex -8.38314 -7.87229 4
      vertex -7.33038 -8.8609 4
    endloop
  endfacet
  facet normal 0 0 1
    outer loop
      vertex -11.1387 -2.85993 4
      vertex -8.23296 -2.11386 4
      vertex -8.43297 -1.06533 4
    endloop
  endfacet
  facet normal 0 0 1
    outer loop
      vertex -11.4093 -1.44133 4
      vertex -8.43297 -1.06533 4
      vertex -8.5 0 4
    endloop
  endfacet
  facet normal -0 0 1
    outer loop
      vertex -11.1387 2.85993 4
      vertex -8.23296 2.11386 4
      vertex -10.6924 4.23343 4
    endloop
  endfacet
  facet normal 0 0 1
    outer loop
      vertex -6.87664 -4.99617 4
      vertex -9.30369 -6.75953 4
      vertex -8.38314 -7.87229 4
    endloop
  endfacet
  facet normal 0 0 1
    outer loop
      vertex -8.23296 2.11386 4
      vertex -11.1387 2.85993 4
      vertex -8.43297 1.06533 4
    endloop
  endfacet
  facet normal 0 0 1
    outer loop
      vertex -7.44861 -4.09491 4
      vertex -10.0775 -5.54017 4
      vertex -9.30369 -6.75953 4
    endloop
  endfacet
  facet normal -0 0 1
    outer loop
      vertex -11.4093 1.44133 4
      vertex -8.43297 1.06533 4
      vertex -11.1387 2.85993 4
    endloop
  endfacet
  facet normal 0 0 1
    outer loop
      vertex -7.9031 -3.12906 4
      vertex -10.6924 -4.23343 4
      vertex -10.0775 -5.54017 4
    endloop
  endfacet
  facet normal 0 0 1
    outer loop
      vertex -8.43297 1.06533 4
      vertex -11.4093 1.44133 4
      vertex -8.5 0 4
    endloop
  endfacet
  facet normal 0 0 1
    outer loop
      vertex -8.23296 -2.11386 4
      vertex -11.1387 -2.85993 4
      vertex -10.6924 -4.23343 4
    endloop
  endfacet
  facet normal 0 0 1
    outer loop
      vertex -11.5 0 4
      vertex -8.5 0 4
      vertex -11.4093 1.44133 4
    endloop
  endfacet
  facet normal 0 0 1
    outer loop
      vertex -8.43297 -1.06533 4
      vertex -11.4093 -1.44133 4
      vertex -11.1387 -2.85993 4
    endloop
  endfacet
  facet normal 0 0 1
    outer loop
      vertex -8.5 0 4
      vertex -11.5 0 4
      vertex -11.4093 -1.44133 4
    endloop
  endfacet
  facet normal -0.125331 0.992115 0
    outer loop
      vertex -0.722091 11.4773 0
      vertex -2.15488 11.2963 4
      vertex -0.722091 11.4773 4
    endloop
  endfacet
  facet normal -0.125331 0.992115 0
    outer loop
      vertex -2.15488 11.2963 4
      vertex -0.722091 11.4773 0
      vertex -2.15488 11.2963 0
    endloop
  endfacet
  facet normal 0 0 -1
    outer loop
      vertex 8.5 0 0
      vertex 11.5 0 0
      vertex 11.4093 -1.44133 0
    endloop
  endfacet
  facet normal 0 0 -1
    outer loop
      vertex 8.43297 -1.06533 0
      vertex 11.4093 -1.44133 0
      vertex 11.1387 -2.85993 0
    endloop
  endfacet
  facet normal 0 0 -1
    outer loop
      vertex 11.5 0 0
      vertex 8.5 0 0
      vertex 11.4093 1.44133 0
    endloop
  endfacet
  facet normal 0 0 -1
    outer loop
      vertex 8.23296 -2.11386 0
      vertex 11.1387 -2.85993 0
      vertex 10.6924 -4.23343 0
    endloop
  endfacet
  facet normal 0 0 -1
    outer loop
      vertex 8.43297 1.06533 0
      vertex 11.4093 1.44133 0
      vertex 8.5 0 0
    endloop
  endfacet
  facet normal 0 0 -1
    outer loop
      vertex 7.9031 -3.12906 0
      vertex 10.6924 -4.23343 0
      vertex 10.0775 -5.54017 0
    endloop
  endfacet
  facet normal -0 0 -1
    outer loop
      vertex 11.4093 1.44133 0
      vertex 8.43297 1.06533 0
      vertex 11.1387 2.85993 0
    endloop
  endfacet
  facet normal 0 0 -1
    outer loop
      vertex 7.44861 -4.09491 0
      vertex 10.0775 -5.54017 0
      vertex 9.30369 -6.75953 0
    endloop
  endfacet
  facet normal 0 0 -1
    outer loop
      vertex 8.23296 2.11386 0
      vertex 11.1387 2.85993 0
      vertex 8.43297 1.06533 0
    endloop
  endfacet
  facet normal -0 0 -1
    outer loop
      vertex 11.1387 2.85993 0
      vertex 8.23296 2.11386 0
      vertex 10.6924 4.23343 0
    endloop
  endfacet
  facet normal 0 0 -1
    outer loop
      vertex 11.4093 -1.44133 0
      vertex 8.43297 -1.06533 0
      vertex 8.5 0 0
    endloop
  endfacet
  facet normal 0 0 -1
    outer loop
      vertex 6.87664 -4.99617 0
      vertex 9.30369 -6.75953 0
      vertex 8.38314 -7.87229 0
    endloop
  endfacet
  facet normal 0 0 -1
    outer loop
      vertex 11.1387 -2.85993 0
      vertex 8.23296 -2.11386 0
      vertex 8.43297 -1.06533 0
    endloop
  endfacet
  facet normal 0 0 -1
    outer loop
      vertex 10.6924 -4.23343 0
      vertex 7.9031 -3.12906 0
      vertex 8.23296 -2.11386 0
    endloop
  endfacet
  facet normal 0 0 -1
    outer loop
      vertex 10.0775 -5.54017 0
      vertex 7.44861 -4.09491 0
      vertex 7.9031 -3.12906 0
    endloop
  endfacet
  facet normal 0 0 -1
    outer loop
      vertex 6.19623 -5.81865 0
      vertex 8.38314 -7.87229 0
      vertex 7.33038 -8.8609 0
    endloop
  endfacet
  facet normal 0 0 -1
    outer loop
      vertex 9.30369 -6.75953 0
      vertex 6.87664 -4.99617 0
      vertex 7.44861 -4.09491 0
    endloop
  endfacet
  facet normal 0 0 -1
    outer loop
      vertex 8.38314 -7.87229 0
      vertex 6.19623 -5.81865 0
      vertex 6.87664 -4.99617 0
    endloop
  endfacet
  facet normal 0 0 -1
    outer loop
      vertex 5.4181 -6.54936 0
      vertex 7.33038 -8.8609 0
      vertex 6.16201 -9.70977 0
    endloop
  endfacet
  facet normal 0 0 -1
    outer loop
      vertex 7.33038 -8.8609 0
      vertex 5.4181 -6.54936 0
      vertex 6.19623 -5.81865 0
    endloop
  endfacet
  facet normal 0 0 -1
    outer loop
      vertex 4.55453 -7.17679 0
      vertex 6.16201 -9.70977 0
      vertex 4.89646 -10.4055 0
    endloop
  endfacet
  facet normal 0 0 -1
    outer loop
      vertex 6.16201 -9.70977 0
      vertex 4.55453 -7.17679 0
      vertex 5.4181 -6.54936 0
    endloop
  endfacet
  facet normal 0 0 -1
    outer loop
      vertex 4.89646 -10.4055 0
      vertex 3.61912 -7.69103 0
      vertex 4.55453 -7.17679 0
    endloop
  endfacet
  facet normal 0 0 -1
    outer loop
      vertex 3.55369 -10.9371 0
      vertex 3.61912 -7.69103 0
      vertex 4.89646 -10.4055 0
    endloop
  endfacet
  facet normal 0 0 -1
    outer loop
      vertex 3.55369 -10.9371 0
      vertex 2.62664 -8.08398 0
      vertex 3.61912 -7.69103 0
    endloop
  endfacet
  facet normal 0 0 -1
    outer loop
      vertex 2.15488 -11.2963 0
      vertex 2.62664 -8.08398 0
      vertex 3.55369 -10.9371 0
    endloop
  endfacet
  facet normal 0 0 -1
    outer loop
      vertex 2.15488 -11.2963 0
      vertex 1.59274 -8.34944 0
      vertex 2.62664 -8.08398 0
    endloop
  endfacet
  facet normal 0 0 -1
    outer loop
      vertex 0.722091 -11.4773 0
      vertex 1.59274 -8.34944 0
      vertex 2.15488 -11.2963 0
    endloop
  endfacet
  facet normal 0 0 -1
    outer loop
      vertex 0.722091 -11.4773 0
      vertex 0.533719 -8.48323 0
      vertex 1.59274 -8.34944 0
    endloop
  endfacet
  facet normal 0 0 -1
    outer loop
      vertex 0.722091 -11.4773 0
      vertex -0.533719 -8.48323 0
      vertex 0.533719 -8.48323 0
    endloop
  endfacet
  facet normal 0 0 -1
    outer loop
      vertex -0.722091 -11.4773 0
      vertex -0.533719 -8.48323 0
      vertex 0.722091 -11.4773 0
    endloop
  endfacet
  facet normal 0 0 -1
    outer loop
      vertex -0.722091 -11.4773 0
      vertex -1.59274 -8.34944 0
      vertex -0.533719 -8.48323 0
    endloop
  endfacet
  facet normal 0 0 -1
    outer loop
      vertex -2.15488 -11.2963 0
      vertex -1.59274 -8.34944 0
      vertex -0.722091 -11.4773 0
    endloop
  endfacet
  facet normal 0 0 -1
    outer loop
      vertex -2.15488 -11.2963 0
      vertex -2.62664 -8.08398 0
      vertex -1.59274 -8.34944 0
    endloop
  endfacet
  facet normal 0 0 -1
    outer loop
      vertex -3.55369 -10.9371 0
      vertex -2.62664 -8.08398 0
      vertex -2.15488 -11.2963 0
    endloop
  endfacet
  facet normal 0 0 -1
    outer loop
      vertex -3.55369 -10.9371 0
      vertex -3.61912 -7.69103 0
      vertex -2.62664 -8.08398 0
    endloop
  endfacet
  facet normal 0 0 -1
    outer loop
      vertex -4.89646 -10.4055 0
      vertex -3.61912 -7.69103 0
      vertex -3.55369 -10.9371 0
    endloop
  endfacet
  facet normal -0 0 -1
    outer loop
      vertex -3.61912 -7.69103 0
      vertex -4.89646 -10.4055 0
      vertex -4.55453 -7.17679 0
    endloop
  endfacet
  facet normal 0 0 -1
    outer loop
      vertex -6.16201 -9.70977 0
      vertex -4.55453 -7.17679 0
      vertex -4.89646 -10.4055 0
    endloop
  endfacet
  facet normal -0 0 -1
    outer loop
      vertex -4.55453 -7.17679 0
      vertex -6.16201 -9.70977 0
      vertex -5.4181 -6.54936 0
    endloop
  endfacet
  facet normal 0 0 -1
    outer loop
      vertex -7.33038 -8.8609 0
      vertex -5.4181 -6.54936 0
      vertex -6.16201 -9.70977 0
    endloop
  endfacet
  facet normal -0 0 -1
    outer loop
      vertex -5.4181 -6.54936 0
      vertex -7.33038 -8.8609 0
      vertex -6.19623 -5.81865 0
    endloop
  endfacet
  facet normal 0 0 -1
    outer loop
      vertex -8.38314 -7.87229 0
      vertex -6.19623 -5.81865 0
      vertex -7.33038 -8.8609 0
    endloop
  endfacet
  facet normal -0 0 -1
    outer loop
      vertex -6.19623 -5.81865 0
      vertex -8.38314 -7.87229 0
      vertex -6.87664 -4.99617 0
    endloop
  endfacet
  facet normal 0 0 -1
    outer loop
      vertex -9.30369 -6.75953 0
      vertex -6.87664 -4.99617 0
      vertex -8.38314 -7.87229 0
    endloop
  endfacet
  facet normal -0 0 -1
    outer loop
      vertex -6.87664 -4.99617 0
      vertex -9.30369 -6.75953 0
      vertex -7.44861 -4.09491 0
    endloop
  endfacet
  facet normal 0 0 -1
    outer loop
      vertex -10.0775 -5.54017 0
      vertex -7.44861 -4.09491 0
      vertex -9.30369 -6.75953 0
    endloop
  endfacet
  facet normal -0 0 -1
    outer loop
      vertex -7.44861 -4.09491 0
      vertex -10.0775 -5.54017 0
      vertex -7.9031 -3.12906 0
    endloop
  endfacet
  facet normal 0 0 -1
    outer loop
      vertex -10.6924 -4.23343 0
      vertex -7.9031 -3.12906 0
      vertex -10.0775 -5.54017 0
    endloop
  endfacet
  facet normal -0 0 -1
    outer loop
      vertex -7.9031 -3.12906 0
      vertex -10.6924 -4.23343 0
      vertex -8.23296 -2.11386 0
    endloop
  endfacet
  facet normal 0 0 -1
    outer loop
      vertex 7.9031 3.12906 0
      vertex 10.6924 4.23343 0
      vertex 8.23296 2.11386 0
    endloop
  endfacet
  facet normal -0 0 -1
    outer loop
      vertex 10.6924 4.23343 0
      vertex 7.9031 3.12906 0
      vertex 10.0775 5.54017 0
    endloop
  endfacet
  facet normal 0 0 -1
    outer loop
      vertex 7.44861 4.09491 0
      vertex 10.0775 5.54017 0
      vertex 7.9031 3.12906 0
    endloop
  endfacet
  facet normal -0 0 -1
    outer loop
      vertex 10.0775 5.54017 0
      vertex 7.44861 4.09491 0
      vertex 9.30369 6.75953 0
    endloop
  endfacet
  facet normal 0 0 -1
    outer loop
      vertex 6.87664 4.99617 0
      vertex 9.30369 6.75953 0
      vertex 7.44861 4.09491 0
    endloop
  endfacet
  facet normal -0 0 -1
    outer loop
      vertex 9.30369 6.75953 0
      vertex 6.87664 4.99617 0
      vertex 8.38314 7.87229 0
    endloop
  endfacet
  facet normal 0 0 -1
    outer loop
      vertex 6.19623 5.81865 0
      vertex 8.38314 7.87229 0
      vertex 6.87664 4.99617 0
    endloop
  endfacet
  facet normal -0 0 -1
    outer loop
      vertex 8.38314 7.87229 0
      vertex 6.19623 5.81865 0
      vertex 7.33038 8.8609 0
    endloop
  endfacet
  facet normal 0 0 -1
    outer loop
      vertex 5.4181 6.54936 0
      vertex 7.33038 8.8609 0
      vertex 6.19623 5.81865 0
    endloop
  endfacet
  facet normal -0 0 -1
    outer loop
      vertex 7.33038 8.8609 0
      vertex 5.4181 6.54936 0
      vertex 6.16201 9.70977 0
    endloop
  endfacet
  facet normal 0 0 -1
    outer loop
      vertex 4.55453 7.17679 0
      vertex 6.16201 9.70977 0
      vertex 5.4181 6.54936 0
    endloop
  endfacet
  facet normal -0 0 -1
    outer loop
      vertex 6.16201 9.70977 0
      vertex 4.55453 7.17679 0
      vertex 4.89646 10.4055 0
    endloop
  endfacet
  facet normal 0 0 -1
    outer loop
      vertex 3.61912 7.69103 0
      vertex 4.89646 10.4055 0
      vertex 4.55453 7.17679 0
    endloop
  endfacet
  facet normal 0 0 -1
    outer loop
      vertex 3.61912 7.69103 0
      vertex 3.55369 10.9371 0
      vertex 4.89646 10.4055 0
    endloop
  endfacet
  facet normal 0 0 -1
    outer loop
      vertex 2.62664 8.08398 0
      vertex 3.55369 10.9371 0
      vertex 3.61912 7.69103 0
    endloop
  endfacet
  facet normal 0 0 -1
    outer loop
      vertex 2.62664 8.08398 0
      vertex 2.15488 11.2963 0
      vertex 3.55369 10.9371 0
    endloop
  endfacet
  facet normal 0 0 -1
    outer loop
      vertex 1.59274 8.34944 0
      vertex 2.15488 11.2963 0
      vertex 2.62664 8.08398 0
    endloop
  endfacet
  facet normal 0 0 -1
    outer loop
      vertex 1.59274 8.34944 0
      vertex 0.722091 11.4773 0
      vertex 2.15488 11.2963 0
    endloop
  endfacet
  facet normal 0 0 -1
    outer loop
      vertex 0.533719 8.48323 0
      vertex 0.722091 11.4773 0
      vertex 1.59274 8.34944 0
    endloop
  endfacet
  facet normal 0 0 -1
    outer loop
      vertex -0.533719 8.48323 0
      vertex 0.722091 11.4773 0
      vertex 0.533719 8.48323 0
    endloop
  endfacet
  facet normal 0 0 -1
    outer loop
      vertex -0.533719 8.48323 0
      vertex -0.722091 11.4773 0
      vertex 0.722091 11.4773 0
    endloop
  endfacet
  facet normal 0 0 -1
    outer loop
      vertex -1.59274 8.34944 0
      vertex -0.722091 11.4773 0
      vertex -0.533719 8.48323 0
    endloop
  endfacet
  facet normal 0 0 -1
    outer loop
      vertex -1.59274 8.34944 0
      vertex -2.15488 11.2963 0
      vertex -0.722091 11.4773 0
    endloop
  endfacet
  facet normal 0 0 -1
    outer loop
      vertex -2.62664 8.08398 0
      vertex -2.15488 11.2963 0
      vertex -1.59274 8.34944 0
    endloop
  endfacet
  facet normal 0 0 -1
    outer loop
      vertex -2.62664 8.08398 0
      vertex -3.55369 10.9371 0
      vertex -2.15488 11.2963 0
    endloop
  endfacet
  facet normal 0 0 -1
    outer loop
      vertex -3.61912 7.69103 0
      vertex -3.55369 10.9371 0
      vertex -2.62664 8.08398 0
    endloop
  endfacet
  facet normal 0 0 -1
    outer loop
      vertex -4.89646 10.4055 0
      vertex -3.61912 7.69103 0
      vertex -4.55453 7.17679 0
    endloop
  endfacet
  facet normal 0 0 -1
    outer loop
      vertex -3.61912 7.69103 0
      vertex -4.89646 10.4055 0
      vertex -3.55369 10.9371 0
    endloop
  endfacet
  facet normal 0 0 -1
    outer loop
      vertex -6.16201 9.70977 0
      vertex -4.55453 7.17679 0
      vertex -5.4181 6.54936 0
    endloop
  endfacet
  facet normal 0 0 -1
    outer loop
      vertex -4.55453 7.17679 0
      vertex -6.16201 9.70977 0
      vertex -4.89646 10.4055 0
    endloop
  endfacet
  facet normal 0 0 -1
    outer loop
      vertex -7.33038 8.8609 0
      vertex -5.4181 6.54936 0
      vertex -6.19623 5.81865 0
    endloop
  endfacet
  facet normal 0 0 -1
    outer loop
      vertex -8.38314 7.87229 0
      vertex -6.19623 5.81865 0
      vertex -6.87664 4.99617 0
    endloop
  endfacet
  facet normal 0 0 -1
    outer loop
      vertex -5.4181 6.54936 0
      vertex -7.33038 8.8609 0
      vertex -6.16201 9.70977 0
    endloop
  endfacet
  facet normal 0 0 -1
    outer loop
      vertex -9.30369 6.75953 0
      vertex -6.87664 4.99617 0
      vertex -7.44861 4.09491 0
    endloop
  endfacet
  facet normal 0 0 -1
    outer loop
      vertex -10.0775 5.54017 0
      vertex -7.44861 4.09491 0
      vertex -7.9031 3.12906 0
    endloop
  endfacet
  facet normal 0 0 -1
    outer loop
      vertex -10.6924 4.23343 0
      vertex -7.9031 3.12906 0
      vertex -8.23296 2.11386 0
    endloop
  endfacet
  facet normal 0 0 -1
    outer loop
      vertex -6.19623 5.81865 0
      vertex -8.38314 7.87229 0
      vertex -7.33038 8.8609 0
    endloop
  endfacet
  facet normal 0 0 -1
    outer loop
      vertex -11.1387 2.85993 0
      vertex -8.23296 2.11386 0
      vertex -8.43297 1.06533 0
    endloop
  endfacet
  facet normal 0 0 -1
    outer loop
      vertex -11.4093 1.44133 0
      vertex -8.43297 1.06533 0
      vertex -8.5 0 0
    endloop
  endfacet
  facet normal 0 0 -1
    outer loop
      vertex -11.1387 -2.85993 0
      vertex -8.23296 -2.11386 0
      vertex -10.6924 -4.23343 0
    endloop
  endfacet
  facet normal 0 0 -1
    outer loop
      vertex -6.87664 4.99617 0
      vertex -9.30369 6.75953 0
      vertex -8.38314 7.87229 0
    endloop
  endfacet
  facet normal -0 0 -1
    outer loop
      vertex -8.23296 -2.11386 0
      vertex -11.1387 -2.85993 0
      vertex -8.43297 -1.06533 0
    endloop
  endfacet
  facet normal 0 0 -1
    outer loop
      vertex -7.44861 4.09491 0
      vertex -10.0775 5.54017 0
      vertex -9.30369 6.75953 0
    endloop
  endfacet
  facet normal 0 0 -1
    outer loop
      vertex -11.4093 -1.44133 0
      vertex -8.43297 -1.06533 0
      vertex -11.1387 -2.85993 0
    endloop
  endfacet
  facet normal 0 0 -1
    outer loop
      vertex -7.9031 3.12906 0
      vertex -10.6924 4.23343 0
      vertex -10.0775 5.54017 0
    endloop
  endfacet
  facet normal -0 0 -1
    outer loop
      vertex -8.43297 -1.06533 0
      vertex -11.4093 -1.44133 0
      vertex -8.5 0 0
    endloop
  endfacet
  facet normal 0 0 -1
    outer loop
      vertex -8.23296 2.11386 0
      vertex -11.1387 2.85993 0
      vertex -10.6924 4.23343 0
    endloop
  endfacet
  facet normal 0 0 -1
    outer loop
      vertex -11.5 0 0
      vertex -8.5 0 0
      vertex -11.4093 -1.44133 0
    endloop
  endfacet
  facet normal 0 0 -1
    outer loop
      vertex -8.43297 1.06533 0
      vertex -11.4093 1.44133 0
      vertex -11.1387 2.85993 0
    endloop
  endfacet
  facet normal 0 0 -1
    outer loop
      vertex -8.5 0 0
      vertex -11.5 0 0
      vertex -11.4093 1.44133 0
    endloop
  endfacet
  facet normal 0.125331 -0.992115 0
    outer loop
      vertex 0.722091 -11.4773 0
      vertex 2.15488 -11.2963 4
      vertex 0.722091 -11.4773 4
    endloop
  endfacet
  facet normal 0.125331 -0.992115 0
    outer loop
      vertex 2.15488 -11.2963 4
      vertex 0.722091 -11.4773 0
      vertex 2.15488 -11.2963 0
    endloop
  endfacet
  facet normal 0.951052 0.309031 0
    outer loop
      vertex 11.1387 2.85993 4
      vertex 10.6924 4.23343 0
      vertex 10.6924 4.23343 4
    endloop
  endfacet
  facet normal 0.951052 0.309031 0
    outer loop
      vertex 10.6924 4.23343 0
      vertex 11.1387 2.85993 4
      vertex 11.1387 2.85993 0
    endloop
  endfacet
  facet normal 0.982289 0.187373 0
    outer loop
      vertex 11.4093 1.44133 4
      vertex 11.1387 2.85993 0
      vertex 11.1387 2.85993 4
    endloop
  endfacet
  facet normal 0.982289 0.187373 0
    outer loop
      vertex 11.1387 2.85993 0
      vertex 11.4093 1.44133 4
      vertex 11.4093 1.44133 0
    endloop
  endfacet
  facet normal 0.770515 0.637422 0
    outer loop
      vertex 9.30369 6.75953 4
      vertex 8.38314 7.87229 0
      vertex 8.38314 7.87229 4
    endloop
  endfacet
  facet normal 0.770515 0.637422 0
    outer loop
      vertex 8.38314 7.87229 0
      vertex 9.30369 6.75953 4
      vertex 9.30369 6.75953 0
    endloop
  endfacet
  facet normal 0.844334 0.535817 0
    outer loop
      vertex 10.0775 5.54017 4
      vertex 9.30369 6.75953 0
      vertex 9.30369 6.75953 4
    endloop
  endfacet
  facet normal 0.844334 0.535817 0
    outer loop
      vertex 9.30369 6.75953 0
      vertex 10.0775 5.54017 4
      vertex 10.0775 5.54017 0
    endloop
  endfacet
  facet normal 0.24872 0.968575 -0
    outer loop
      vertex 3.55369 10.9371 0
      vertex 2.15488 11.2963 4
      vertex 3.55369 10.9371 4
    endloop
  endfacet
  facet normal 0.24872 0.968575 0
    outer loop
      vertex 2.15488 11.2963 4
      vertex 3.55369 10.9371 0
      vertex 2.15488 11.2963 0
    endloop
  endfacet
  facet normal 0.125331 0.992115 -0
    outer loop
      vertex 2.15488 11.2963 0
      vertex 0.722091 11.4773 4
      vertex 2.15488 11.2963 4
    endloop
  endfacet
  facet normal 0.125331 0.992115 0
    outer loop
      vertex 0.722091 11.4773 4
      vertex 2.15488 11.2963 0
      vertex 0.722091 11.4773 0
    endloop
  endfacet
  facet normal 0.587785 0.809017 -0
    outer loop
      vertex 7.33038 8.8609 0
      vertex 6.16201 9.70977 4
      vertex 7.33038 8.8609 4
    endloop
  endfacet
  facet normal 0.587785 0.809017 0
    outer loop
      vertex 6.16201 9.70977 4
      vertex 7.33038 8.8609 0
      vertex 6.16201 9.70977 0
    endloop
  endfacet
  facet normal -0.844334 0.535817 0
    outer loop
      vertex -10.0775 5.54017 0
      vertex -9.30369 6.75953 4
      vertex -9.30369 6.75953 0
    endloop
  endfacet
  facet normal -0.844334 0.535817 0
    outer loop
      vertex -9.30369 6.75953 4
      vertex -10.0775 5.54017 0
      vertex -10.0775 5.54017 4
    endloop
  endfacet
  facet normal -0.951052 0.309031 0
    outer loop
      vertex -11.1387 2.85993 0
      vertex -10.6924 4.23343 4
      vertex -10.6924 4.23343 0
    endloop
  endfacet
  facet normal -0.951052 0.309031 0
    outer loop
      vertex -10.6924 4.23343 4
      vertex -11.1387 2.85993 0
      vertex -11.1387 2.85993 4
    endloop
  endfacet
  facet normal -0.982289 0.187373 0
    outer loop
      vertex -11.4093 1.44133 0
      vertex -11.1387 2.85993 4
      vertex -11.1387 2.85993 0
    endloop
  endfacet
  facet normal -0.982289 0.187373 0
    outer loop
      vertex -11.1387 2.85993 4
      vertex -11.4093 1.44133 0
      vertex -11.4093 1.44133 4
    endloop
  endfacet
  facet normal -0.481747 0.87631 0
    outer loop
      vertex -4.89646 10.4055 0
      vertex -6.16201 9.70977 4
      vertex -4.89646 10.4055 4
    endloop
  endfacet
  facet normal -0.481747 0.87631 0
    outer loop
      vertex -6.16201 9.70977 4
      vertex -4.89646 10.4055 0
      vertex -6.16201 9.70977 0
    endloop
  endfacet
  facet normal -0.587785 0.809017 0
    outer loop
      vertex -6.16201 9.70977 0
      vertex -7.33038 8.8609 4
      vertex -6.16201 9.70977 4
    endloop
  endfacet
  facet normal -0.587785 0.809017 0
    outer loop
      vertex -7.33038 8.8609 4
      vertex -6.16201 9.70977 0
      vertex -7.33038 8.8609 0
    endloop
  endfacet
  facet normal -0.24872 0.968575 0
    outer loop
      vertex -2.15488 11.2963 0
      vertex -3.55369 10.9371 4
      vertex -2.15488 11.2963 4
    endloop
  endfacet
  facet normal -0.24872 0.968575 0
    outer loop
      vertex -3.55369 10.9371 4
      vertex -2.15488 11.2963 0
      vertex -3.55369 10.9371 0
    endloop
  endfacet
  facet normal 0.998026 -0.0628038 0
    outer loop
      vertex 11.4093 -1.44133 4
      vertex 11.5 0 0
      vertex 11.5 0 4
    endloop
  endfacet
  facet normal 0.998026 -0.0628038 0
    outer loop
      vertex 11.5 0 0
      vertex 11.4093 -1.44133 4
      vertex 11.4093 -1.44133 0
    endloop
  endfacet
  facet normal -0.904828 -0.425776 0
    outer loop
      vertex -10.0775 -5.54017 0
      vertex -10.6924 -4.23343 4
      vertex -10.6924 -4.23343 0
    endloop
  endfacet
  facet normal -0.904828 -0.425776 0
    outer loop
      vertex -10.6924 -4.23343 4
      vertex -10.0775 -5.54017 0
      vertex -10.0775 -5.54017 4
    endloop
  endfacet
  facet normal 0.481747 -0.87631 0
    outer loop
      vertex 4.89646 -10.4055 0
      vertex 6.16201 -9.70977 4
      vertex 4.89646 -10.4055 4
    endloop
  endfacet
  facet normal 0.481747 -0.87631 0
    outer loop
      vertex 6.16201 -9.70977 4
      vertex 4.89646 -10.4055 0
      vertex 6.16201 -9.70977 0
    endloop
  endfacet
  facet normal 0.951052 -0.309031 0
    outer loop
      vertex 10.6924 -4.23343 4
      vertex 11.1387 -2.85993 0
      vertex 11.1387 -2.85993 4
    endloop
  endfacet
  facet normal 0.951052 -0.309031 0
    outer loop
      vertex 11.1387 -2.85993 0
      vertex 10.6924 -4.23343 4
      vertex 10.6924 -4.23343 0
    endloop
  endfacet
  facet normal -0.24872 -0.968575 0
    outer loop
      vertex -3.55369 -10.9371 0
      vertex -2.15488 -11.2963 4
      vertex -3.55369 -10.9371 4
    endloop
  endfacet
  facet normal -0.24872 -0.968575 -0
    outer loop
      vertex -2.15488 -11.2963 4
      vertex -3.55369 -10.9371 0
      vertex -2.15488 -11.2963 0
    endloop
  endfacet
  facet normal -0.982289 -0.187373 0
    outer loop
      vertex -11.1387 -2.85993 0
      vertex -11.4093 -1.44133 4
      vertex -11.4093 -1.44133 0
    endloop
  endfacet
  facet normal -0.982289 -0.187373 0
    outer loop
      vertex -11.4093 -1.44133 4
      vertex -11.1387 -2.85993 0
      vertex -11.1387 -2.85993 4
    endloop
  endfacet
  facet normal -0.998026 -0.0628038 0
    outer loop
      vertex -11.4093 -1.44133 0
      vertex -11.5 0 4
      vertex -11.5 0 0
    endloop
  endfacet
  facet normal -0.998026 -0.0628038 0
    outer loop
      vertex -11.5 0 4
      vertex -11.4093 -1.44133 0
      vertex -11.4093 -1.44133 4
    endloop
  endfacet
  facet normal -0.951052 -0.309031 0
    outer loop
      vertex -10.6924 -4.23343 0
      vertex -11.1387 -2.85993 4
      vertex -11.1387 -2.85993 0
    endloop
  endfacet
  facet normal -0.951052 -0.309031 0
    outer loop
      vertex -11.1387 -2.85993 4
      vertex -10.6924 -4.23343 0
      vertex -10.6924 -4.23343 4
    endloop
  endfacet
  facet normal 0.684548 -0.728968 0
    outer loop
      vertex 7.33038 -8.8609 0
      vertex 8.38314 -7.87229 4
      vertex 7.33038 -8.8609 4
    endloop
  endfacet
  facet normal 0.684548 -0.728968 0
    outer loop
      vertex 8.38314 -7.87229 4
      vertex 7.33038 -8.8609 0
      vertex 8.38314 -7.87229 0
    endloop
  endfacet
  facet normal 0.3681 -0.929786 0
    outer loop
      vertex 3.55369 -10.9371 0
      vertex 4.89646 -10.4055 4
      vertex 3.55369 -10.9371 4
    endloop
  endfacet
  facet normal 0.3681 -0.929786 0
    outer loop
      vertex 4.89646 -10.4055 4
      vertex 3.55369 -10.9371 0
      vertex 4.89646 -10.4055 0
    endloop
  endfacet
  facet normal 0.24872 -0.968575 0
    outer loop
      vertex 2.15488 -11.2963 0
      vertex 3.55369 -10.9371 4
      vertex 2.15488 -11.2963 4
    endloop
  endfacet
  facet normal 0.24872 -0.968575 0
    outer loop
      vertex 3.55369 -10.9371 4
      vertex 2.15488 -11.2963 0
      vertex 3.55369 -10.9371 0
    endloop
  endfacet
  facet normal 0.844334 -0.535817 0
    outer loop
      vertex 9.30369 -6.75953 4
      vertex 10.0775 -5.54017 0
      vertex 10.0775 -5.54017 4
    endloop
  endfacet
  facet normal 0.844334 -0.535817 0
    outer loop
      vertex 10.0775 -5.54017 0
      vertex 9.30369 -6.75953 4
      vertex 9.30369 -6.75953 0
    endloop
  endfacet
  facet normal 0.982289 -0.187373 0
    outer loop
      vertex 11.1387 -2.85993 4
      vertex 11.4093 -1.44133 0
      vertex 11.4093 -1.44133 4
    endloop
  endfacet
  facet normal 0.982289 -0.187373 0
    outer loop
      vertex 11.4093 -1.44133 0
      vertex 11.1387 -2.85993 4
      vertex 11.1387 -2.85993 0
    endloop
  endfacet
  facet normal -0.125331 -0.992115 0
    outer loop
      vertex -2.15488 -11.2963 0
      vertex -0.722091 -11.4773 4
      vertex -2.15488 -11.2963 4
    endloop
  endfacet
  facet normal -0.125331 -0.992115 -0
    outer loop
      vertex -0.722091 -11.4773 4
      vertex -2.15488 -11.2963 0
      vertex -0.722091 -11.4773 0
    endloop
  endfacet
  facet normal -0.3681 -0.929786 0
    outer loop
      vertex -4.89646 -10.4055 0
      vertex -3.55369 -10.9371 4
      vertex -4.89646 -10.4055 4
    endloop
  endfacet
  facet normal -0.3681 -0.929786 -0
    outer loop
      vertex -3.55369 -10.9371 4
      vertex -4.89646 -10.4055 0
      vertex -3.55369 -10.9371 0
    endloop
  endfacet
  facet normal -0.770515 -0.637422 0
    outer loop
      vertex -8.38314 -7.87229 0
      vertex -9.30369 -6.75953 4
      vertex -9.30369 -6.75953 0
    endloop
  endfacet
  facet normal -0.770515 -0.637422 0
    outer loop
      vertex -9.30369 -6.75953 4
      vertex -8.38314 -7.87229 0
      vertex -8.38314 -7.87229 4
    endloop
  endfacet
  facet normal -0.684548 -0.728968 0
    outer loop
      vertex -8.38314 -7.87229 0
      vertex -7.33038 -8.8609 4
      vertex -8.38314 -7.87229 4
    endloop
  endfacet
  facet normal -0.684548 -0.728968 -0
    outer loop
      vertex -7.33038 -8.8609 4
      vertex -8.38314 -7.87229 0
      vertex -7.33038 -8.8609 0
    endloop
  endfacet
  facet normal 0.587785 -0.809017 0
    outer loop
      vertex 6.16201 -9.70977 0
      vertex 7.33038 -8.8609 4
      vertex 6.16201 -9.70977 4
    endloop
  endfacet
  facet normal 0.587785 -0.809017 0
    outer loop
      vertex 7.33038 -8.8609 4
      vertex 6.16201 -9.70977 0
      vertex 7.33038 -8.8609 0
    endloop
  endfacet
  facet normal 0.904828 -0.425776 0
    outer loop
      vertex 10.0775 -5.54017 4
      vertex 10.6924 -4.23343 0
      vertex 10.6924 -4.23343 4
    endloop
  endfacet
  facet normal 0.904828 -0.425776 0
    outer loop
      vertex 10.6924 -4.23343 0
      vertex 10.0775 -5.54017 4
      vertex 10.0775 -5.54017 0
    endloop
  endfacet
  facet normal -0.844334 -0.535817 0
    outer loop
      vertex -9.30369 -6.75953 0
      vertex -10.0775 -5.54017 4
      vertex -10.0775 -5.54017 0
    endloop
  endfacet
  facet normal -0.844334 -0.535817 0
    outer loop
      vertex -10.0775 -5.54017 4
      vertex -9.30369 -6.75953 0
      vertex -9.30369 -6.75953 4
    endloop
  endfacet
  facet normal -0.481747 -0.87631 0
    outer loop
      vertex -6.16201 -9.70977 0
      vertex -4.89646 -10.4055 4
      vertex -6.16201 -9.70977 4
    endloop
  endfacet
  facet normal -0.481747 -0.87631 -0
    outer loop
      vertex -4.89646 -10.4055 4
      vertex -6.16201 -9.70977 0
      vertex -4.89646 -10.4055 0
    endloop
  endfacet
  facet normal -0.587785 -0.809017 0
    outer loop
      vertex -7.33038 -8.8609 0
      vertex -6.16201 -9.70977 4
      vertex -7.33038 -8.8609 4
    endloop
  endfacet
  facet normal -0.587785 -0.809017 -0
    outer loop
      vertex -6.16201 -9.70977 4
      vertex -7.33038 -8.8609 0
      vertex -6.16201 -9.70977 0
    endloop
  endfacet
  facet normal -0.998026 -0.0627953 0
    outer loop
      vertex 8.5 0 0
      vertex 8.43297 1.06533 4
      vertex 8.43297 1.06533 0
    endloop
  endfacet
  facet normal -0.998026 -0.0627953 0
    outer loop
      vertex 8.43297 1.06533 4
      vertex 8.5 0 0
      vertex 8.5 0 4
    endloop
  endfacet
  facet normal 0.998026 -0.0627953 0
    outer loop
      vertex -8.5 0 4
      vertex -8.43297 1.06533 0
      vertex -8.43297 1.06533 4
    endloop
  endfacet
  facet normal 0.998026 -0.0627953 0
    outer loop
      vertex -8.43297 1.06533 0
      vertex -8.5 0 4
      vertex -8.5 0 0
    endloop
  endfacet
  facet normal 0 -1 0
    outer loop
      vertex -0.533719 8.48323 0
      vertex 0.533719 8.48323 4
      vertex -0.533719 8.48323 4
    endloop
  endfacet
  facet normal 0 -1 -0
    outer loop
      vertex 0.533719 8.48323 4
      vertex -0.533719 8.48323 0
      vertex 0.533719 8.48323 0
    endloop
  endfacet
  facet normal 0 1 -0
    outer loop
      vertex 0.533719 -8.48323 0
      vertex -0.533719 -8.48323 4
      vertex 0.533719 -8.48323 4
    endloop
  endfacet
  facet normal 0 1 0
    outer loop
      vertex -0.533719 -8.48323 4
      vertex 0.533719 -8.48323 0
      vertex -0.533719 -8.48323 0
    endloop
  endfacet
  facet normal -0.684546 -0.72897 0
    outer loop
      vertex 5.4181 6.54936 0
      vertex 6.19623 5.81865 4
      vertex 5.4181 6.54936 4
    endloop
  endfacet
  facet normal -0.684546 -0.72897 -0
    outer loop
      vertex 6.19623 5.81865 4
      vertex 5.4181 6.54936 0
      vertex 6.19623 5.81865 0
    endloop
  endfacet
  facet normal 0.684546 -0.72897 0
    outer loop
      vertex -6.19623 5.81865 0
      vertex -5.4181 6.54936 4
      vertex -6.19623 5.81865 4
    endloop
  endfacet
  facet normal 0.684546 -0.72897 0
    outer loop
      vertex -5.4181 6.54936 4
      vertex -6.19623 5.81865 0
      vertex -5.4181 6.54936 0
    endloop
  endfacet
  facet normal 0.368124 -0.929777 0
    outer loop
      vertex -3.61912 7.69103 0
      vertex -2.62664 8.08398 4
      vertex -3.61912 7.69103 4
    endloop
  endfacet
  facet normal 0.368124 -0.929777 0
    outer loop
      vertex -2.62664 8.08398 4
      vertex -3.61912 7.69103 0
      vertex -2.62664 8.08398 0
    endloop
  endfacet
  facet normal -0.904829 -0.425776 0
    outer loop
      vertex 7.9031 3.12906 0
      vertex 7.44861 4.09491 4
      vertex 7.44861 4.09491 0
    endloop
  endfacet
  facet normal -0.904829 -0.425776 0
    outer loop
      vertex 7.44861 4.09491 4
      vertex 7.9031 3.12906 0
      vertex 7.9031 3.12906 4
    endloop
  endfacet
  facet normal -0.368124 -0.929777 0
    outer loop
      vertex 2.62664 8.08398 0
      vertex 3.61912 7.69103 4
      vertex 2.62664 8.08398 4
    endloop
  endfacet
  facet normal -0.368124 -0.929777 -0
    outer loop
      vertex 3.61912 7.69103 4
      vertex 2.62664 8.08398 0
      vertex 3.61912 7.69103 0
    endloop
  endfacet
  facet normal -0.24869 -0.968583 0
    outer loop
      vertex 1.59274 8.34944 0
      vertex 2.62664 8.08398 4
      vertex 1.59274 8.34944 4
    endloop
  endfacet
  facet normal -0.24869 -0.968583 -0
    outer loop
      vertex 2.62664 8.08398 4
      vertex 1.59274 8.34944 0
      vertex 2.62664 8.08398 0
    endloop
  endfacet
  facet normal -0.481749 -0.876309 0
    outer loop
      vertex 3.61912 7.69103 0
      vertex 4.55453 7.17679 4
      vertex 3.61912 7.69103 4
    endloop
  endfacet
  facet normal -0.481749 -0.876309 -0
    outer loop
      vertex 4.55453 7.17679 4
      vertex 3.61912 7.69103 0
      vertex 4.55453 7.17679 0
    endloop
  endfacet
  facet normal 0.904829 -0.425776 0
    outer loop
      vertex -7.9031 3.12906 4
      vertex -7.44861 4.09491 0
      vertex -7.44861 4.09491 4
    endloop
  endfacet
  facet normal 0.904829 -0.425776 0
    outer loop
      vertex -7.44861 4.09491 0
      vertex -7.9031 3.12906 4
      vertex -7.9031 3.12906 0
    endloop
  endfacet
  facet normal 0.844322 -0.535835 0
    outer loop
      vertex -7.44861 4.09491 4
      vertex -6.87664 4.99617 0
      vertex -6.87664 4.99617 4
    endloop
  endfacet
  facet normal 0.844322 -0.535835 0
    outer loop
      vertex -6.87664 4.99617 0
      vertex -7.44861 4.09491 4
      vertex -7.44861 4.09491 0
    endloop
  endfacet
  facet normal 0.587791 -0.809013 0
    outer loop
      vertex -5.4181 6.54936 0
      vertex -4.55453 7.17679 4
      vertex -5.4181 6.54936 4
    endloop
  endfacet
  facet normal 0.587791 -0.809013 0
    outer loop
      vertex -4.55453 7.17679 4
      vertex -5.4181 6.54936 0
      vertex -4.55453 7.17679 0
    endloop
  endfacet
  facet normal 0.125337 -0.992114 0
    outer loop
      vertex -1.59274 8.34944 0
      vertex -0.533719 8.48323 4
      vertex -1.59274 8.34944 4
    endloop
  endfacet
  facet normal 0.125337 -0.992114 0
    outer loop
      vertex -0.533719 8.48323 4
      vertex -1.59274 8.34944 0
      vertex -0.533719 8.48323 0
    endloop
  endfacet
  facet normal -0.125337 0.992114 0
    outer loop
      vertex 1.59274 -8.34944 0
      vertex 0.533719 -8.48323 4
      vertex 1.59274 -8.34944 4
    endloop
  endfacet
  facet normal -0.125337 0.992114 0
    outer loop
      vertex 0.533719 -8.48323 4
      vertex 1.59274 -8.34944 0
      vertex 0.533719 -8.48323 0
    endloop
  endfacet
  facet normal -0.951056 -0.309018 0
    outer loop
      vertex 8.23296 2.11386 0
      vertex 7.9031 3.12906 4
      vertex 7.9031 3.12906 0
    endloop
  endfacet
  facet normal -0.951056 -0.309018 0
    outer loop
      vertex 7.9031 3.12906 4
      vertex 8.23296 2.11386 0
      vertex 8.23296 2.11386 4
    endloop
  endfacet
  facet normal -0.982289 -0.187374 0
    outer loop
      vertex 8.43297 1.06533 0
      vertex 8.23296 2.11386 4
      vertex 8.23296 2.11386 0
    endloop
  endfacet
  facet normal -0.982289 -0.187374 0
    outer loop
      vertex 8.23296 2.11386 4
      vertex 8.43297 1.06533 0
      vertex 8.43297 1.06533 4
    endloop
  endfacet
  facet normal -0.770515 -0.637421 0
    outer loop
      vertex 6.87664 4.99617 0
      vertex 6.19623 5.81865 4
      vertex 6.19623 5.81865 0
    endloop
  endfacet
  facet normal -0.770515 -0.637421 0
    outer loop
      vertex 6.19623 5.81865 4
      vertex 6.87664 4.99617 0
      vertex 6.87664 4.99617 4
    endloop
  endfacet
  facet normal -0.844322 -0.535835 0
    outer loop
      vertex 7.44861 4.09491 0
      vertex 6.87664 4.99617 4
      vertex 6.87664 4.99617 0
    endloop
  endfacet
  facet normal -0.844322 -0.535835 0
    outer loop
      vertex 6.87664 4.99617 4
      vertex 7.44861 4.09491 0
      vertex 7.44861 4.09491 4
    endloop
  endfacet
  facet normal -0.125337 -0.992114 0
    outer loop
      vertex 0.533719 8.48323 0
      vertex 1.59274 8.34944 4
      vertex 0.533719 8.48323 4
    endloop
  endfacet
  facet normal -0.125337 -0.992114 -0
    outer loop
      vertex 1.59274 8.34944 4
      vertex 0.533719 8.48323 0
      vertex 1.59274 8.34944 0
    endloop
  endfacet
  facet normal -0.587791 -0.809013 0
    outer loop
      vertex 4.55453 7.17679 0
      vertex 5.4181 6.54936 4
      vertex 4.55453 7.17679 4
    endloop
  endfacet
  facet normal -0.587791 -0.809013 -0
    outer loop
      vertex 5.4181 6.54936 4
      vertex 4.55453 7.17679 0
      vertex 5.4181 6.54936 0
    endloop
  endfacet
  facet normal 0.770515 -0.637421 0
    outer loop
      vertex -6.87664 4.99617 4
      vertex -6.19623 5.81865 0
      vertex -6.19623 5.81865 4
    endloop
  endfacet
  facet normal 0.770515 -0.637421 0
    outer loop
      vertex -6.19623 5.81865 0
      vertex -6.87664 4.99617 4
      vertex -6.87664 4.99617 0
    endloop
  endfacet
  facet normal 0.951056 -0.309018 0
    outer loop
      vertex -8.23296 2.11386 4
      vertex -7.9031 3.12906 0
      vertex -7.9031 3.12906 4
    endloop
  endfacet
  facet normal 0.951056 -0.309018 0
    outer loop
      vertex -7.9031 3.12906 0
      vertex -8.23296 2.11386 4
      vertex -8.23296 2.11386 0
    endloop
  endfacet
  facet normal 0.982289 -0.187374 0
    outer loop
      vertex -8.43297 1.06533 4
      vertex -8.23296 2.11386 0
      vertex -8.23296 2.11386 4
    endloop
  endfacet
  facet normal 0.982289 -0.187374 0
    outer loop
      vertex -8.23296 2.11386 0
      vertex -8.43297 1.06533 4
      vertex -8.43297 1.06533 0
    endloop
  endfacet
  facet normal 0.481749 -0.876309 0
    outer loop
      vertex -4.55453 7.17679 0
      vertex -3.61912 7.69103 4
      vertex -4.55453 7.17679 4
    endloop
  endfacet
  facet normal 0.481749 -0.876309 0
    outer loop
      vertex -3.61912 7.69103 4
      vertex -4.55453 7.17679 0
      vertex -3.61912 7.69103 0
    endloop
  endfacet
  facet normal 0.24869 -0.968583 0
    outer loop
      vertex -2.62664 8.08398 0
      vertex -1.59274 8.34944 4
      vertex -2.62664 8.08398 4
    endloop
  endfacet
  facet normal 0.24869 -0.968583 0
    outer loop
      vertex -1.59274 8.34944 4
      vertex -2.62664 8.08398 0
      vertex -1.59274 8.34944 0
    endloop
  endfacet
  facet normal -0.998026 0.0627953 0
    outer loop
      vertex 8.43297 -1.06533 0
      vertex 8.5 0 4
      vertex 8.5 0 0
    endloop
  endfacet
  facet normal -0.998026 0.0627953 0
    outer loop
      vertex 8.5 0 4
      vertex 8.43297 -1.06533 0
      vertex 8.43297 -1.06533 4
    endloop
  endfacet
  facet normal -0.904829 0.425776 0
    outer loop
      vertex 7.44861 -4.09491 0
      vertex 7.9031 -3.12906 4
      vertex 7.9031 -3.12906 0
    endloop
  endfacet
  facet normal -0.904829 0.425776 0
    outer loop
      vertex 7.9031 -3.12906 4
      vertex 7.44861 -4.09491 0
      vertex 7.44861 -4.09491 4
    endloop
  endfacet
  facet normal 0.904829 0.425776 0
    outer loop
      vertex -7.44861 -4.09491 4
      vertex -7.9031 -3.12906 0
      vertex -7.9031 -3.12906 4
    endloop
  endfacet
  facet normal 0.904829 0.425776 0
    outer loop
      vertex -7.9031 -3.12906 0
      vertex -7.44861 -4.09491 4
      vertex -7.44861 -4.09491 0
    endloop
  endfacet
  facet normal 0.998026 0.0627953 0
    outer loop
      vertex -8.43297 -1.06533 4
      vertex -8.5 0 0
      vertex -8.5 0 4
    endloop
  endfacet
  facet normal 0.998026 0.0627953 0
    outer loop
      vertex -8.5 0 0
      vertex -8.43297 -1.06533 4
      vertex -8.43297 -1.06533 0
    endloop
  endfacet
  facet normal -0.368124 0.929777 0
    outer loop
      vertex 3.61912 -7.69103 0
      vertex 2.62664 -8.08398 4
      vertex 3.61912 -7.69103 4
    endloop
  endfacet
  facet normal -0.368124 0.929777 0
    outer loop
      vertex 2.62664 -8.08398 4
      vertex 3.61912 -7.69103 0
      vertex 2.62664 -8.08398 0
    endloop
  endfacet
  facet normal -0.951056 0.309018 0
    outer loop
      vertex 7.9031 -3.12906 0
      vertex 8.23296 -2.11386 4
      vertex 8.23296 -2.11386 0
    endloop
  endfacet
  facet normal -0.951056 0.309018 0
    outer loop
      vertex 8.23296 -2.11386 4
      vertex 7.9031 -3.12906 0
      vertex 7.9031 -3.12906 4
    endloop
  endfacet
  facet normal -0.770515 0.637421 0
    outer loop
      vertex 6.19623 -5.81865 0
      vertex 6.87664 -4.99617 4
      vertex 6.87664 -4.99617 0
    endloop
  endfacet
  facet normal -0.770515 0.637421 0
    outer loop
      vertex 6.87664 -4.99617 4
      vertex 6.19623 -5.81865 0
      vertex 6.19623 -5.81865 4
    endloop
  endfacet
  facet normal 0.481749 0.876309 -0
    outer loop
      vertex -3.61912 -7.69103 0
      vertex -4.55453 -7.17679 4
      vertex -3.61912 -7.69103 4
    endloop
  endfacet
  facet normal 0.481749 0.876309 0
    outer loop
      vertex -4.55453 -7.17679 4
      vertex -3.61912 -7.69103 0
      vertex -4.55453 -7.17679 0
    endloop
  endfacet
  facet normal 0.368124 0.929777 -0
    outer loop
      vertex -2.62664 -8.08398 0
      vertex -3.61912 -7.69103 4
      vertex -2.62664 -8.08398 4
    endloop
  endfacet
  facet normal 0.368124 0.929777 0
    outer loop
      vertex -3.61912 -7.69103 4
      vertex -2.62664 -8.08398 0
      vertex -3.61912 -7.69103 0
    endloop
  endfacet
  facet normal 0.684546 0.72897 -0
    outer loop
      vertex -5.4181 -6.54936 0
      vertex -6.19623 -5.81865 4
      vertex -5.4181 -6.54936 4
    endloop
  endfacet
  facet normal 0.684546 0.72897 0
    outer loop
      vertex -6.19623 -5.81865 4
      vertex -5.4181 -6.54936 0
      vertex -6.19623 -5.81865 0
    endloop
  endfacet
  facet normal 0.982289 0.187374 0
    outer loop
      vertex -8.23296 -2.11386 4
      vertex -8.43297 -1.06533 0
      vertex -8.43297 -1.06533 4
    endloop
  endfacet
  facet normal 0.982289 0.187374 0
    outer loop
      vertex -8.43297 -1.06533 0
      vertex -8.23296 -2.11386 4
      vertex -8.23296 -2.11386 0
    endloop
  endfacet
  facet normal 0.951056 0.309018 0
    outer loop
      vertex -7.9031 -3.12906 4
      vertex -8.23296 -2.11386 0
      vertex -8.23296 -2.11386 4
    endloop
  endfacet
  facet normal 0.951056 0.309018 0
    outer loop
      vertex -8.23296 -2.11386 0
      vertex -7.9031 -3.12906 4
      vertex -7.9031 -3.12906 0
    endloop
  endfacet
  facet normal -0.684546 0.72897 0
    outer loop
      vertex 6.19623 -5.81865 0
      vertex 5.4181 -6.54936 4
      vertex 6.19623 -5.81865 4
    endloop
  endfacet
  facet normal -0.684546 0.72897 0
    outer loop
      vertex 5.4181 -6.54936 4
      vertex 6.19623 -5.81865 0
      vertex 5.4181 -6.54936 0
    endloop
  endfacet
  facet normal -0.481749 0.876309 0
    outer loop
      vertex 4.55453 -7.17679 0
      vertex 3.61912 -7.69103 4
      vertex 4.55453 -7.17679 4
    endloop
  endfacet
  facet normal -0.481749 0.876309 0
    outer loop
      vertex 3.61912 -7.69103 4
      vertex 4.55453 -7.17679 0
      vertex 3.61912 -7.69103 0
    endloop
  endfacet
  facet normal -0.24869 0.968583 0
    outer loop
      vertex 2.62664 -8.08398 0
      vertex 1.59274 -8.34944 4
      vertex 2.62664 -8.08398 4
    endloop
  endfacet
  facet normal -0.24869 0.968583 0
    outer loop
      vertex 1.59274 -8.34944 4
      vertex 2.62664 -8.08398 0
      vertex 1.59274 -8.34944 0
    endloop
  endfacet
  facet normal -0.982289 0.187374 0
    outer loop
      vertex 8.23296 -2.11386 0
      vertex 8.43297 -1.06533 4
      vertex 8.43297 -1.06533 0
    endloop
  endfacet
  facet normal -0.982289 0.187374 0
    outer loop
      vertex 8.43297 -1.06533 4
      vertex 8.23296 -2.11386 0
      vertex 8.23296 -2.11386 4
    endloop
  endfacet
  facet normal -0.844322 0.535835 0
    outer loop
      vertex 6.87664 -4.99617 0
      vertex 7.44861 -4.09491 4
      vertex 7.44861 -4.09491 0
    endloop
  endfacet
  facet normal -0.844322 0.535835 0
    outer loop
      vertex 7.44861 -4.09491 4
      vertex 6.87664 -4.99617 0
      vertex 6.87664 -4.99617 4
    endloop
  endfacet
  facet normal 0.125337 0.992114 -0
    outer loop
      vertex -0.533719 -8.48323 0
      vertex -1.59274 -8.34944 4
      vertex -0.533719 -8.48323 4
    endloop
  endfacet
  facet normal 0.125337 0.992114 0
    outer loop
      vertex -1.59274 -8.34944 4
      vertex -0.533719 -8.48323 0
      vertex -1.59274 -8.34944 0
    endloop
  endfacet
  facet normal 0.587791 0.809013 -0
    outer loop
      vertex -4.55453 -7.17679 0
      vertex -5.4181 -6.54936 4
      vertex -4.55453 -7.17679 4
    endloop
  endfacet
  facet normal 0.587791 0.809013 0
    outer loop
      vertex -5.4181 -6.54936 4
      vertex -4.55453 -7.17679 0
      vertex -5.4181 -6.54936 0
    endloop
  endfacet
  facet normal 0.770515 0.637421 0
    outer loop
      vertex -6.19623 -5.81865 4
      vertex -6.87664 -4.99617 0
      vertex -6.87664 -4.99617 4
    endloop
  endfacet
  facet normal 0.770515 0.637421 0
    outer loop
      vertex -6.87664 -4.99617 0
      vertex -6.19623 -5.81865 4
      vertex -6.19623 -5.81865 0
    endloop
  endfacet
  facet normal 0.844322 0.535835 0
    outer loop
      vertex -6.87664 -4.99617 4
      vertex -7.44861 -4.09491 0
      vertex -7.44861 -4.09491 4
    endloop
  endfacet
  facet normal 0.844322 0.535835 0
    outer loop
      vertex -7.44861 -4.09491 0
      vertex -6.87664 -4.99617 4
      vertex -6.87664 -4.99617 0
    endloop
  endfacet
  facet normal -0.587791 0.809013 0
    outer loop
      vertex 5.4181 -6.54936 0
      vertex 4.55453 -7.17679 4
      vertex 5.4181 -6.54936 4
    endloop
  endfacet
  facet normal -0.587791 0.809013 0
    outer loop
      vertex 4.55453 -7.17679 4
      vertex 5.4181 -6.54936 0
      vertex 4.55453 -7.17679 0
    endloop
  endfacet
  facet normal 0.24869 0.968583 -0
    outer loop
      vertex -1.59274 -8.34944 0
      vertex -2.62664 -8.08398 4
      vertex -1.59274 -8.34944 4
    endloop
  endfacet
  facet normal 0.24869 0.968583 0
    outer loop
      vertex -2.62664 -8.08398 4
      vertex -1.59274 -8.34944 0
      vertex -2.62664 -8.08398 0
    endloop
  endfacet
endsolid OpenSCAD_Model
