<?xml version="1.0" standalone="no"?>
<!DOCTYPE svg PUBLIC "-//W3C//DTD SVG 1.1//EN" "http://www.w3.org/Graphics/SVG/1.1/DTD/svg11.dtd">
<svg width="180mm" height="627mm" viewBox="-90 -1188 180 627" xmlns="http://www.w3.org/2000/svg" version="1.1">
<title>OpenSCAD Model</title>
<path d="
M 85.9369,-1038.09 L 86.5451,-1038.24 L 87.1289,-1038.48 L 87.6791,-1038.78 L 88.1871,-1039.15 L 88.6448,-1039.58
 L 89.0451,-1040.06 L 89.3815,-1040.59 L 89.6489,-1041.16 L 89.8429,-1041.76 L 89.9606,-1042.37 L 90,-1043
 L 90,-1183 L 89.9606,-1183.63 L 89.8429,-1184.24 L 89.6489,-1184.84 L 89.3815,-1185.41 L 89.0451,-1185.94
 L 88.6448,-1186.42 L 88.1871,-1186.85 L 87.6791,-1187.22 L 87.1289,-1187.52 L 86.5451,-1187.76 L 85.9369,-1187.91
 L 85.3139,-1187.99 L -85.3139,-1187.99 L -85.9369,-1187.91 L -86.5451,-1187.76 L -87.1289,-1187.52 L -87.6791,-1187.22
 L -88.1871,-1186.85 L -88.6448,-1186.42 L -89.0451,-1185.94 L -89.3815,-1185.41 L -89.6489,-1184.84 L -89.8429,-1184.24
 L -89.9606,-1183.63 L -90,-1183 L -90,-1043 L -89.9606,-1042.37 L -89.8429,-1041.76 L -89.6489,-1041.16
 L -89.3815,-1040.59 L -89.0451,-1040.06 L -88.6448,-1039.58 L -88.1871,-1039.15 L -87.6791,-1038.78 L -87.1289,-1038.48
 L -86.5451,-1038.24 L -85.9369,-1038.09 L -85.3139,-1038.01 L 85.3139,-1038.01 z
M -85.0482,-1038.51 L -85.6401,-1038.58 L -86.2178,-1038.73 L -86.7724,-1038.95 L -87.2952,-1039.24 L -87.7778,-1039.59
 L -88.2126,-1040 L -88.5928,-1040.46 L -88.9125,-1040.96 L -89.1664,-1041.5 L -89.3508,-1042.07 L -89.4625,-1042.65
 L -89.5,-1043.25 L -89.5,-1182.75 L -89.4625,-1183.35 L -89.3508,-1183.93 L -89.1664,-1184.5 L -88.9125,-1185.04
 L -88.5928,-1185.54 L -88.2126,-1186 L -87.7778,-1186.41 L -87.2952,-1186.76 L -86.7724,-1187.05 L -86.2178,-1187.27
 L -85.6401,-1187.42 L -85.0482,-1187.49 L 85.0482,-1187.49 L 85.6401,-1187.42 L 86.2178,-1187.27 L 86.7724,-1187.05
 L 87.2952,-1186.76 L 87.7778,-1186.41 L 88.2126,-1186 L 88.5928,-1185.54 L 88.9125,-1185.04 L 89.1664,-1184.5
 L 89.3508,-1183.93 L 89.4625,-1183.35 L 89.5,-1182.75 L 89.5,-1043.25 L 89.4625,-1042.65 L 89.3508,-1042.07
 L 89.1664,-1041.5 L 88.9125,-1040.96 L 88.5928,-1040.46 L 88.2126,-1040 L 87.7778,-1039.59 L 87.2952,-1039.24
 L 86.7724,-1038.95 L 86.2178,-1038.73 L 85.6401,-1038.58 L 85.0482,-1038.51 z
M 85.9369,-879.089 L 86.5451,-879.245 L 87.1289,-879.476 L 87.6791,-879.778 L 88.1871,-880.147 L 88.6448,-880.577
 L 89.0451,-881.061 L 89.3815,-881.591 L 89.6489,-882.159 L 89.8429,-882.757 L 89.9606,-883.373 L 90,-884
 L 90,-1024 L 89.9606,-1024.63 L 89.8429,-1025.24 L 89.6489,-1025.84 L 89.3815,-1026.41 L 89.0451,-1026.94
 L 88.6448,-1027.42 L 88.1871,-1027.85 L 87.6791,-1028.22 L 87.1289,-1028.52 L 86.5451,-1028.76 L 85.9369,-1028.91
 L 85.3139,-1028.99 L -85.3139,-1028.99 L -85.9369,-1028.91 L -86.5451,-1028.76 L -87.1289,-1028.52 L -87.6791,-1028.22
 L -88.1871,-1027.85 L -88.6448,-1027.42 L -89.0451,-1026.94 L -89.3815,-1026.41 L -89.6489,-1025.84 L -89.8429,-1025.24
 L -89.9606,-1024.63 L -90,-1024 L -90,-884 L -89.9606,-883.373 L -89.8429,-882.757 L -89.6489,-882.159
 L -89.3815,-881.591 L -89.0451,-881.061 L -88.6448,-880.577 L -88.1871,-880.147 L -87.6791,-879.778 L -87.1289,-879.476
 L -86.5451,-879.245 L -85.9369,-879.089 L -85.3139,-879.01 L 85.3139,-879.01 z
M -85.0482,-879.509 L -85.6401,-879.584 L -86.2178,-879.732 L -86.7724,-879.952 L -87.2952,-880.239 L -87.7778,-880.59
 L -88.2126,-880.998 L -88.5928,-881.458 L -88.9125,-881.962 L -89.1664,-882.501 L -89.3508,-883.069 L -89.4625,-883.655
 L -89.5,-884.25 L -89.5,-1023.75 L -89.4625,-1024.35 L -89.3508,-1024.93 L -89.1664,-1025.5 L -88.9125,-1026.04
 L -88.5928,-1026.54 L -88.2126,-1027 L -87.7778,-1027.41 L -87.2952,-1027.76 L -86.7724,-1028.05 L -86.2178,-1028.27
 L -85.6401,-1028.42 L -85.0482,-1028.49 L 85.0482,-1028.49 L 85.6401,-1028.42 L 86.2178,-1028.27 L 86.7724,-1028.05
 L 87.2952,-1027.76 L 87.7778,-1027.41 L 88.2126,-1027 L 88.5928,-1026.54 L 88.9125,-1026.04 L 89.1664,-1025.5
 L 89.3508,-1024.93 L 89.4625,-1024.35 L 89.5,-1023.75 L 89.5,-884.25 L 89.4625,-883.655 L 89.3508,-883.069
 L 89.1664,-882.501 L 88.9125,-881.962 L 88.5928,-881.458 L 88.2126,-880.998 L 87.7778,-880.59 L 87.2952,-880.239
 L 86.7724,-879.952 L 86.2178,-879.732 L 85.6401,-879.584 L 85.0482,-879.509 z
M 85.9369,-720.089 L 86.5451,-720.245 L 87.1289,-720.476 L 87.6791,-720.778 L 88.1871,-721.147 L 88.6448,-721.577
 L 89.0451,-722.061 L 89.3815,-722.591 L 89.6489,-723.159 L 89.8429,-723.757 L 89.9606,-724.373 L 90,-725
 L 90,-865 L 89.9606,-865.627 L 89.8429,-866.243 L 89.6489,-866.841 L 89.3815,-867.409 L 89.0451,-867.939
 L 88.6448,-868.423 L 88.1871,-868.853 L 87.6791,-869.222 L 87.1289,-869.524 L 86.5451,-869.755 L 85.9369,-869.911
 L 85.3139,-869.99 L -85.3139,-869.99 L -85.9369,-869.911 L -86.5451,-869.755 L -87.1289,-869.524 L -87.6791,-869.222
 L -88.1871,-868.853 L -88.6448,-868.423 L -89.0451,-867.939 L -89.3815,-867.409 L -89.6489,-866.841 L -89.8429,-866.243
 L -89.9606,-865.627 L -90,-865 L -90,-725 L -89.9606,-724.373 L -89.8429,-723.757 L -89.6489,-723.159
 L -89.3815,-722.591 L -89.0451,-722.061 L -88.6448,-721.577 L -88.1871,-721.147 L -87.6791,-720.778 L -87.1289,-720.476
 L -86.5451,-720.245 L -85.9369,-720.089 L -85.3139,-720.01 L 85.3139,-720.01 z
M -85.0375,-720.681 L -85.6079,-720.753 L -86.1648,-720.896 L -86.6994,-721.107 L -87.2032,-721.384 L -87.6684,-721.722
 L -88.0875,-722.116 L -88.454,-722.559 L -88.7621,-723.044 L -89.0069,-723.565 L -89.1846,-724.111 L -89.2923,-724.676
 L -89.3284,-725.25 L -89.3284,-864.75 L -89.2923,-865.324 L -89.1846,-865.889 L -89.0069,-866.435 L -88.7621,-866.956
 L -88.454,-867.441 L -88.0875,-867.884 L -87.6684,-868.278 L -87.2032,-868.616 L -86.6994,-868.893 L -86.1648,-869.104
 L -85.6079,-869.247 L -85.0375,-869.319 L 85.0375,-869.319 L 85.6079,-869.247 L 86.1648,-869.104 L 86.6994,-868.893
 L 87.2032,-868.616 L 87.6684,-868.278 L 88.0875,-867.884 L 88.454,-867.441 L 88.7621,-866.956 L 89.0069,-866.435
 L 89.1846,-865.889 L 89.2923,-865.324 L 89.3284,-864.75 L 89.3284,-725.25 L 89.2923,-724.676 L 89.1846,-724.111
 L 89.0069,-723.565 L 88.7621,-723.044 L 88.454,-722.559 L 88.0875,-722.116 L 87.6684,-721.722 L 87.2032,-721.384
 L 86.6994,-721.107 L 86.1648,-720.896 L 85.6079,-720.753 L 85.0375,-720.681 z
M 85.9369,-561.089 L 86.5451,-561.245 L 87.1289,-561.476 L 87.6791,-561.778 L 88.1871,-562.147 L 88.6448,-562.577
 L 89.0451,-563.061 L 89.3815,-563.591 L 89.6489,-564.159 L 89.8429,-564.757 L 89.9606,-565.373 L 90,-566
 L 90,-706 L 89.9606,-706.627 L 89.8429,-707.243 L 89.6489,-707.841 L 89.3815,-708.409 L 89.0451,-708.939
 L 88.6448,-709.423 L 88.1871,-709.853 L 87.6791,-710.222 L 87.1289,-710.524 L 86.5451,-710.755 L 85.9369,-710.911
 L 85.3139,-710.99 L -85.3139,-710.99 L -85.9369,-710.911 L -86.5451,-710.755 L -87.1289,-710.524 L -87.6791,-710.222
 L -88.1871,-709.853 L -88.6448,-709.423 L -89.0451,-708.939 L -89.3815,-708.409 L -89.6489,-707.841 L -89.8429,-707.243
 L -89.9606,-706.627 L -90,-706 L -90,-566 L -89.9606,-565.373 L -89.8429,-564.757 L -89.6489,-564.159
 L -89.3815,-563.591 L -89.0451,-563.061 L -88.6448,-562.577 L -88.1871,-562.147 L -87.6791,-561.778 L -87.1289,-561.476
 L -86.5451,-561.245 L -85.9369,-561.089 L -85.3139,-561.01 L 85.3139,-561.01 z
M -84.8825,-564.145 L -85.1453,-564.178 L -85.4019,-564.244 L -85.6482,-564.341 L -85.8804,-564.469 L -86.0947,-564.624
 L -86.2879,-564.806 L -86.4567,-565.01 L -86.5987,-565.234 L -86.7115,-565.473 L -86.7934,-565.725 L -86.843,-565.986
 L -86.8596,-566.25 L -86.8596,-705.75 L -86.843,-706.014 L -86.7934,-706.275 L -86.7115,-706.527 L -86.5987,-706.766
 L -86.4567,-706.99 L -86.2879,-707.194 L -86.0947,-707.376 L -85.8804,-707.531 L -85.6482,-707.659 L -85.4019,-707.756
 L -85.1453,-707.822 L -84.8825,-707.855 L 84.8825,-707.855 L 85.1453,-707.822 L 85.4019,-707.756 L 85.6482,-707.659
 L 85.8804,-707.531 L 86.0947,-707.376 L 86.2879,-707.194 L 86.4567,-706.99 L 86.5987,-706.766 L 86.7115,-706.527
 L 86.7934,-706.275 L 86.843,-706.014 L 86.8596,-705.75 L 86.8596,-566.25 L 86.843,-565.986 L 86.7934,-565.725
 L 86.7115,-565.473 L 86.5987,-565.234 L 86.4567,-565.01 L 86.2879,-564.806 L 86.0947,-564.624 L 85.8804,-564.469
 L 85.6482,-564.341 L 85.4019,-564.244 L 85.1453,-564.178 L 84.8825,-564.145 z
" stroke="black" fill="lightgray" stroke-width="0.5"/>
</svg>
