<?xml version="1.0" standalone="no"?>
<!DOCTYPE svg PUBLIC "-//W3C//DTD SVG 1.1//EN" "http://www.w3.org/Graphics/SVG/1.1/DTD/svg11.dtd">
<svg width="210mm" height="468mm" viewBox="-105 -711 210 468" xmlns="http://www.w3.org/2000/svg" version="1.1">
<title>OpenSCAD Model</title>
<path d="
M 100.937,-561.089 L 101.545,-561.245 L 102.129,-561.476 L 102.679,-561.778 L 103.187,-562.147 L 103.645,-562.577
 L 104.045,-563.061 L 104.382,-563.591 L 104.649,-564.159 L 104.843,-564.757 L 104.961,-565.373 L 105,-566
 L 105,-706 L 104.961,-706.627 L 104.843,-707.243 L 104.649,-707.841 L 104.382,-708.409 L 104.045,-708.939
 L 103.645,-709.423 L 103.187,-709.853 L 102.679,-710.222 L 102.129,-710.524 L 101.545,-710.755 L 100.937,-710.911
 L 100.314,-710.99 L -100.314,-710.99 L -100.937,-710.911 L -101.545,-710.755 L -102.129,-710.524 L -102.679,-710.222
 L -103.187,-709.853 L -103.645,-709.423 L -104.045,-708.939 L -104.382,-708.409 L -104.649,-707.841 L -104.843,-707.243
 L -104.961,-706.627 L -105,-706 L -105,-566 L -104.961,-565.373 L -104.843,-564.757 L -104.649,-564.159
 L -104.382,-563.591 L -104.045,-563.061 L -103.645,-562.577 L -103.187,-562.147 L -102.679,-561.778 L -102.129,-561.476
 L -101.545,-561.245 L -100.937,-561.089 L -100.314,-561.01 L 100.314,-561.01 z
M -100.048,-561.509 L -100.64,-561.584 L -101.218,-561.732 L -101.772,-561.952 L -102.295,-562.239 L -102.778,-562.59
 L -103.213,-562.998 L -103.593,-563.458 L -103.912,-563.962 L -104.166,-564.501 L -104.351,-565.069 L -104.463,-565.655
 L -104.5,-566.25 L -104.5,-705.75 L -104.463,-706.345 L -104.351,-706.931 L -104.166,-707.499 L -103.912,-708.038
 L -103.593,-708.542 L -103.213,-709.002 L -102.778,-709.41 L -102.295,-709.761 L -101.772,-710.048 L -101.218,-710.268
 L -100.64,-710.416 L -100.048,-710.491 L 100.048,-710.491 L 100.64,-710.416 L 101.218,-710.268 L 101.772,-710.048
 L 102.295,-709.761 L 102.778,-709.41 L 103.213,-709.002 L 103.593,-708.542 L 103.912,-708.038 L 104.166,-707.499
 L 104.351,-706.931 L 104.463,-706.345 L 104.5,-705.75 L 104.5,-566.25 L 104.463,-565.655 L 104.351,-565.069
 L 104.166,-564.501 L 103.912,-563.962 L 103.593,-563.458 L 103.213,-562.998 L 102.778,-562.59 L 102.295,-562.239
 L 101.772,-561.952 L 101.218,-561.732 L 100.64,-561.584 L 100.048,-561.509 z
M 100.937,-402.089 L 101.545,-402.245 L 102.129,-402.476 L 102.679,-402.778 L 103.187,-403.147 L 103.645,-403.577
 L 104.045,-404.061 L 104.382,-404.591 L 104.649,-405.159 L 104.843,-405.757 L 104.961,-406.373 L 105,-407
 L 105,-547 L 104.961,-547.627 L 104.843,-548.243 L 104.649,-548.841 L 104.382,-549.409 L 104.045,-549.939
 L 103.645,-550.423 L 103.187,-550.853 L 102.679,-551.222 L 102.129,-551.524 L 101.545,-551.755 L 100.937,-551.911
 L 100.314,-551.99 L -100.314,-551.99 L -100.937,-551.911 L -101.545,-551.755 L -102.129,-551.524 L -102.679,-551.222
 L -103.187,-550.853 L -103.645,-550.423 L -104.045,-549.939 L -104.382,-549.409 L -104.649,-548.841 L -104.843,-548.243
 L -104.961,-547.627 L -105,-547 L -105,-407 L -104.961,-406.373 L -104.843,-405.757 L -104.649,-405.159
 L -104.382,-404.591 L -104.045,-404.061 L -103.645,-403.577 L -103.187,-403.147 L -102.679,-402.778 L -102.129,-402.476
 L -101.545,-402.245 L -100.937,-402.089 L -100.314,-402.01 L 100.314,-402.01 z
M -99.993,-403.388 L -100.475,-403.449 L -100.946,-403.57 L -101.398,-403.749 L -101.823,-403.983 L -102.216,-404.269
 L -102.571,-404.601 L -102.88,-404.976 L -103.141,-405.386 L -103.348,-405.826 L -103.498,-406.288 L -103.589,-406.765
 L -103.619,-407.25 L -103.619,-546.75 L -103.589,-547.235 L -103.498,-547.712 L -103.348,-548.174 L -103.141,-548.614
 L -102.88,-549.024 L -102.571,-549.399 L -102.216,-549.731 L -101.823,-550.017 L -101.398,-550.251 L -100.946,-550.43
 L -100.475,-550.551 L -99.993,-550.612 L 99.993,-550.612 L 100.475,-550.551 L 100.946,-550.43 L 101.398,-550.251
 L 101.823,-550.017 L 102.216,-549.731 L 102.571,-549.399 L 102.88,-549.024 L 103.141,-548.614 L 103.348,-548.174
 L 103.498,-547.712 L 103.589,-547.235 L 103.619,-546.75 L 103.619,-407.25 L 103.589,-406.765 L 103.498,-406.288
 L 103.348,-405.826 L 103.141,-405.386 L 102.88,-404.976 L 102.571,-404.601 L 102.216,-404.269 L 101.823,-403.983
 L 101.398,-403.749 L 100.946,-403.57 L 100.475,-403.449 L 99.993,-403.388 z
M 100.937,-243.089 L 101.545,-243.245 L 102.129,-243.476 L 102.679,-243.778 L 103.187,-244.147 L 103.645,-244.577
 L 104.045,-245.061 L 104.382,-245.591 L 104.649,-246.159 L 104.843,-246.757 L 104.961,-247.373 L 105,-248
 L 105,-388 L 104.961,-388.627 L 104.843,-389.243 L 104.649,-389.841 L 104.382,-390.409 L 104.045,-390.939
 L 103.645,-391.423 L 103.187,-391.853 L 102.679,-392.222 L 102.129,-392.524 L 101.545,-392.755 L 100.937,-392.911
 L 100.314,-392.99 L -100.314,-392.99 L -100.937,-392.911 L -101.545,-392.755 L -102.129,-392.524 L -102.679,-392.222
 L -103.187,-391.853 L -103.645,-391.423 L -104.045,-390.939 L -104.382,-390.409 L -104.649,-389.841 L -104.843,-389.243
 L -104.961,-388.627 L -105,-388 L -105,-248 L -104.961,-247.373 L -104.843,-246.757 L -104.649,-246.159
 L -104.382,-245.591 L -104.045,-245.061 L -103.645,-244.577 L -103.187,-244.147 L -102.679,-243.778 L -102.129,-243.476
 L -101.545,-243.245 L -100.937,-243.089 L -100.314,-243.01 L 100.314,-243.01 z
M 97.387,-383.704 L 97.1627,-383.732 L 96.9438,-383.788 L 96.7336,-383.871 L 96.5355,-383.98 L 96.3526,-384.113
 L 96.1879,-384.268 L 96.0438,-384.442 L 95.9226,-384.633 L 95.8264,-384.837 L 95.7565,-385.052 L 95.7142,-385.274
 L 95.7,-385.5 L 95.7142,-385.726 L 95.7565,-385.948 L 95.8264,-386.163 L 95.9226,-386.367 L 96.0438,-386.558
 L 96.1879,-386.732 L 96.3526,-386.887 L 96.5355,-387.02 L 96.7336,-387.129 L 96.9438,-387.212 L 97.1627,-387.268
 L 97.387,-387.296 L 97.613,-387.296 L 97.8373,-387.268 L 98.0562,-387.212 L 98.2664,-387.129 L 98.4645,-387.02
 L 98.6474,-386.887 L 98.8121,-386.732 L 98.9562,-386.558 L 99.0773,-386.367 L 99.1736,-386.163 L 99.2434,-385.948
 L 99.2858,-385.726 L 99.3,-385.5 L 99.2858,-385.274 L 99.2434,-385.052 L 99.1736,-384.837 L 99.0773,-384.633
 L 98.9562,-384.442 L 98.8121,-384.268 L 98.6474,-384.113 L 98.4645,-383.98 L 98.2664,-383.871 L 98.0562,-383.788
 L 97.8373,-383.732 L 97.613,-383.704 z
M -97.613,-383.704 L -97.8373,-383.732 L -98.0562,-383.788 L -98.2664,-383.871 L -98.4645,-383.98 L -98.6474,-384.113
 L -98.8121,-384.268 L -98.9562,-384.442 L -99.0773,-384.633 L -99.1736,-384.837 L -99.2434,-385.052 L -99.2858,-385.274
 L -99.3,-385.5 L -99.2858,-385.726 L -99.2434,-385.948 L -99.1736,-386.163 L -99.0773,-386.367 L -98.9562,-386.558
 L -98.8121,-386.732 L -98.6474,-386.887 L -98.4645,-387.02 L -98.2664,-387.129 L -98.0562,-387.212 L -97.8373,-387.268
 L -97.613,-387.296 L -97.387,-387.296 L -97.1627,-387.268 L -96.9438,-387.212 L -96.7336,-387.129 L -96.5355,-387.02
 L -96.3526,-386.887 L -96.1879,-386.732 L -96.0438,-386.558 L -95.9226,-386.367 L -95.8264,-386.163 L -95.7565,-385.948
 L -95.7142,-385.726 L -95.7,-385.5 L -95.7142,-385.274 L -95.7565,-385.052 L -95.8264,-384.837 L -95.9226,-384.633
 L -96.0438,-384.442 L -96.1879,-384.268 L -96.3526,-384.113 L -96.5355,-383.98 L -96.7336,-383.871 L -96.9438,-383.788
 L -97.1627,-383.732 L -97.387,-383.704 z
M -97.613,-248.704 L -97.8373,-248.732 L -98.0562,-248.788 L -98.2664,-248.871 L -98.4645,-248.98 L -98.6474,-249.113
 L -98.8121,-249.268 L -98.9562,-249.442 L -99.0773,-249.633 L -99.1736,-249.837 L -99.2434,-250.052 L -99.2858,-250.274
 L -99.3,-250.5 L -99.2858,-250.726 L -99.2434,-250.948 L -99.1736,-251.163 L -99.0773,-251.367 L -98.9562,-251.558
 L -98.8121,-251.732 L -98.6474,-251.887 L -98.4645,-252.02 L -98.2664,-252.129 L -98.0562,-252.212 L -97.8373,-252.268
 L -97.613,-252.296 L -97.387,-252.296 L -97.1627,-252.268 L -96.9438,-252.212 L -96.7336,-252.129 L -96.5355,-252.02
 L -96.3526,-251.887 L -96.1879,-251.732 L -96.0438,-251.558 L -95.9226,-251.367 L -95.8264,-251.163 L -95.7565,-250.948
 L -95.7142,-250.726 L -95.7,-250.5 L -95.7142,-250.274 L -95.7565,-250.052 L -95.8264,-249.837 L -95.9226,-249.633
 L -96.0438,-249.442 L -96.1879,-249.268 L -96.3526,-249.113 L -96.5355,-248.98 L -96.7336,-248.871 L -96.9438,-248.788
 L -97.1627,-248.732 L -97.387,-248.704 z
M 97.387,-248.704 L 97.1627,-248.732 L 96.9438,-248.788 L 96.7336,-248.871 L 96.5355,-248.98 L 96.3526,-249.113
 L 96.1879,-249.268 L 96.0438,-249.442 L 95.9226,-249.633 L 95.8264,-249.837 L 95.7565,-250.052 L 95.7142,-250.274
 L 95.7,-250.5 L 95.7142,-250.726 L 95.7565,-250.948 L 95.8264,-251.163 L 95.9226,-251.367 L 96.0438,-251.558
 L 96.1879,-251.732 L 96.3526,-251.887 L 96.5355,-252.02 L 96.7336,-252.129 L 96.9438,-252.212 L 97.1627,-252.268
 L 97.387,-252.296 L 97.613,-252.296 L 97.8373,-252.268 L 98.0562,-252.212 L 98.2664,-252.129 L 98.4645,-252.02
 L 98.6474,-251.887 L 98.8121,-251.732 L 98.9562,-251.558 L 99.0773,-251.367 L 99.1736,-251.163 L 99.2434,-250.948
 L 99.2858,-250.726 L 99.3,-250.5 L 99.2858,-250.274 L 99.2434,-250.052 L 99.1736,-249.837 L 99.0773,-249.633
 L 98.9562,-249.442 L 98.8121,-249.268 L 98.6474,-249.113 L 98.4645,-248.98 L 98.2664,-248.871 L 98.0562,-248.788
 L 97.8373,-248.732 L 97.613,-248.704 z
" stroke="black" fill="lightgray" stroke-width="0.5"/>
</svg>
