<?xml version="1.0" standalone="no"?>
<!DOCTYPE svg PUBLIC "-//W3C//DTD SVG 1.1//EN" "http://www.w3.org/Graphics/SVG/1.1/DTD/svg11.dtd">
<svg width="60mm" height="648mm" viewBox="-30 -981 60 648" xmlns="http://www.w3.org/2000/svg" version="1.1">
<title>OpenSCAD Model</title>
<path d="
M -27,-771.425 L -26.5451,-771.245 L -25.9369,-771.089 L -25.3139,-771.01 L 25.3139,-771.01 L 25.9369,-771.089
 L 26.5451,-771.245 L 27.1289,-771.476 L 27.6791,-771.778 L 28.1871,-772.147 L 28.6448,-772.577 L 29.0451,-773.061
 L 29.3815,-773.591 L 29.6489,-774.159 L 29.8429,-774.757 L 29.9606,-775.373 L 30,-776 L 30,-976
 L 29.9606,-976.627 L 29.8429,-977.243 L 29.6489,-977.841 L 29.3815,-978.409 L 29.0451,-978.939 L 28.6448,-979.423
 L 28.1871,-979.853 L 27.6791,-980.222 L 27.1289,-980.524 L 26.5451,-980.755 L 25.9369,-980.911 L 25.3139,-980.99
 L -25.3139,-980.99 L -25.9369,-980.911 L -26.5451,-980.755 L -27,-980.575 L -27,-980.99 L -30,-980.99
 L -30,-771.01 L -27,-771.01 z
M -24.7432,-772.635 L -25.2256,-772.696 L -25.6967,-772.817 L -26.1489,-772.996 L -26.5751,-773.23 L -26.9685,-773.516
 L -27.323,-773.849 L -27.633,-774.224 L -27.8936,-774.634 L -28.1007,-775.074 L -28.251,-775.537 L -28.3421,-776.015
 L -28.3726,-776.5 L -28.3726,-975.5 L -28.3421,-975.985 L -28.251,-976.463 L -28.1007,-976.926 L -27.8936,-977.366
 L -27.633,-977.776 L -27.323,-978.151 L -26.9685,-978.484 L -26.5751,-978.77 L -26.1489,-979.004 L -25.6967,-979.183
 L -25.2256,-979.304 L -24.7432,-979.365 L 24.7432,-979.365 L 25.2256,-979.304 L 25.6967,-979.183 L 26.1489,-979.004
 L 26.5751,-978.77 L 26.9685,-978.484 L 27.323,-978.151 L 27.633,-977.776 L 27.8936,-977.366 L 28.1007,-976.926
 L 28.251,-976.463 L 28.3421,-975.985 L 28.3726,-975.5 L 28.3726,-776.5 L 28.3421,-776.015 L 28.251,-775.537
 L 28.1007,-775.074 L 27.8936,-774.634 L 27.633,-774.224 L 27.323,-773.849 L 26.9685,-773.516 L 26.5751,-773.23
 L 26.1489,-772.996 L 25.6967,-772.817 L 25.2256,-772.696 L 24.7432,-772.635 z
M 25.9369,-552.089 L 26.5451,-552.245 L 27.1289,-552.476 L 27.6791,-552.778 L 28.1871,-553.147 L 28.6448,-553.577
 L 29.0451,-554.061 L 29.3815,-554.591 L 29.6489,-555.159 L 29.8429,-555.757 L 29.9606,-556.373 L 30,-557
 L 30,-757 L 29.9606,-757.627 L 29.8429,-758.243 L 29.6489,-758.841 L 29.3815,-759.409 L 29.0451,-759.939
 L 28.6448,-760.423 L 28.1871,-760.853 L 27.6791,-761.222 L 27.1289,-761.524 L 26.5451,-761.755 L 25.9369,-761.911
 L 25.3139,-761.99 L -25.3139,-761.99 L -25.9369,-761.911 L -26.5451,-761.755 L -27,-761.575 L -27,-761.615
 L -30,-761.615 L -30,-552.385 L -27,-552.385 L -27,-552.425 L -26.5451,-552.245 L -25.9369,-552.089
 L -25.3139,-552.01 L 25.3139,-552.01 z
M 22.3493,-752.105 L 22.0503,-752.143 L 21.7583,-752.217 L 21.4781,-752.328 L 21.214,-752.474 L 20.9702,-752.651
 L 20.7505,-752.857 L 20.5583,-753.089 L 20.3969,-753.344 L 20.2685,-753.617 L 20.1754,-753.903 L 20.1189,-754.199
 L 20.1,-754.5 L 20.1189,-754.801 L 20.1754,-755.097 L 20.2685,-755.383 L 20.3969,-755.656 L 20.5583,-755.911
 L 20.7505,-756.143 L 20.9702,-756.349 L 21.214,-756.526 L 21.4781,-756.672 L 21.7583,-756.783 L 22.0503,-756.857
 L 22.3493,-756.895 L 22.6507,-756.895 L 22.9497,-756.857 L 23.2416,-756.783 L 23.5219,-756.672 L 23.786,-756.526
 L 24.0298,-756.349 L 24.2495,-756.143 L 24.4416,-755.911 L 24.6031,-755.656 L 24.7315,-755.383 L 24.8246,-755.097
 L 24.8811,-754.801 L 24.9,-754.5 L 24.8811,-754.199 L 24.8246,-753.903 L 24.7315,-753.617 L 24.6031,-753.344
 L 24.4416,-753.089 L 24.2495,-752.857 L 24.0298,-752.651 L 23.786,-752.474 L 23.5219,-752.328 L 23.2416,-752.217
 L 22.9497,-752.143 L 22.6507,-752.105 z
M -22.6507,-752.105 L -22.9497,-752.143 L -23.2416,-752.217 L -23.5219,-752.328 L -23.786,-752.474 L -24.0298,-752.651
 L -24.2495,-752.857 L -24.4416,-753.089 L -24.6031,-753.344 L -24.7315,-753.617 L -24.8246,-753.903 L -24.8811,-754.199
 L -24.9,-754.5 L -24.8811,-754.801 L -24.8246,-755.097 L -24.7315,-755.383 L -24.6031,-755.656 L -24.4416,-755.911
 L -24.2495,-756.143 L -24.0298,-756.349 L -23.786,-756.526 L -23.5219,-756.672 L -23.2416,-756.783 L -22.9497,-756.857
 L -22.6507,-756.895 L -22.3493,-756.895 L -22.0503,-756.857 L -21.7583,-756.783 L -21.4781,-756.672 L -21.214,-756.526
 L -20.9702,-756.349 L -20.7505,-756.143 L -20.5583,-755.911 L -20.3969,-755.656 L -20.2685,-755.383 L -20.1754,-755.097
 L -20.1189,-754.801 L -20.1,-754.5 L -20.1189,-754.199 L -20.1754,-753.903 L -20.2685,-753.617 L -20.3969,-753.344
 L -20.5583,-753.089 L -20.7505,-752.857 L -20.9702,-752.651 L -21.214,-752.474 L -21.4781,-752.328 L -21.7583,-752.217
 L -22.0503,-752.143 L -22.3493,-752.105 z
M 22.3493,-557.105 L 22.0503,-557.143 L 21.7583,-557.217 L 21.4781,-557.328 L 21.214,-557.474 L 20.9702,-557.651
 L 20.7505,-557.857 L 20.5583,-558.089 L 20.3969,-558.344 L 20.2685,-558.617 L 20.1754,-558.903 L 20.1189,-559.199
 L 20.1,-559.5 L 20.1189,-559.801 L 20.1754,-560.097 L 20.2685,-560.383 L 20.3969,-560.656 L 20.5583,-560.911
 L 20.7505,-561.143 L 20.9702,-561.349 L 21.214,-561.526 L 21.4781,-561.672 L 21.7583,-561.783 L 22.0503,-561.857
 L 22.3493,-561.895 L 22.6507,-561.895 L 22.9497,-561.857 L 23.2416,-561.783 L 23.5219,-561.672 L 23.786,-561.526
 L 24.0298,-561.349 L 24.2495,-561.143 L 24.4416,-560.911 L 24.6031,-560.656 L 24.7315,-560.383 L 24.8246,-560.097
 L 24.8811,-559.801 L 24.9,-559.5 L 24.8811,-559.199 L 24.8246,-558.903 L 24.7315,-558.617 L 24.6031,-558.344
 L 24.4416,-558.089 L 24.2495,-557.857 L 24.0298,-557.651 L 23.786,-557.474 L 23.5219,-557.328 L 23.2416,-557.217
 L 22.9497,-557.143 L 22.6507,-557.105 z
M -22.6507,-557.105 L -22.9497,-557.143 L -23.2416,-557.217 L -23.5219,-557.328 L -23.786,-557.474 L -24.0298,-557.651
 L -24.2495,-557.857 L -24.4416,-558.089 L -24.6031,-558.344 L -24.7315,-558.617 L -24.8246,-558.903 L -24.8811,-559.199
 L -24.9,-559.5 L -24.8811,-559.801 L -24.8246,-560.097 L -24.7315,-560.383 L -24.6031,-560.656 L -24.4416,-560.911
 L -24.2495,-561.143 L -24.0298,-561.349 L -23.786,-561.526 L -23.5219,-561.672 L -23.2416,-561.783 L -22.9497,-561.857
 L -22.6507,-561.895 L -22.3493,-561.895 L -22.0503,-561.857 L -21.7583,-561.783 L -21.4781,-561.672 L -21.214,-561.526
 L -20.9702,-561.349 L -20.7505,-561.143 L -20.5583,-560.911 L -20.3969,-560.656 L -20.2685,-560.383 L -20.1754,-560.097
 L -20.1189,-559.801 L -20.1,-559.5 L -20.1189,-559.199 L -20.1754,-558.903 L -20.2685,-558.617 L -20.3969,-558.344
 L -20.5583,-558.089 L -20.7505,-557.857 L -20.9702,-557.651 L -21.214,-557.474 L -21.4781,-557.328 L -21.7583,-557.217
 L -22.0503,-557.143 L -22.3493,-557.105 z
M 25.9369,-333.089 L 26.5451,-333.245 L 27.1289,-333.476 L 27.6791,-333.778 L 28.1871,-334.147 L 28.6448,-334.577
 L 29.0451,-335.061 L 29.3815,-335.591 L 29.6489,-336.159 L 29.8429,-336.757 L 29.9606,-337.373 L 30,-338
 L 30,-538 L 29.9606,-538.627 L 29.8429,-539.243 L 29.6489,-539.841 L 29.3815,-540.409 L 29.0451,-540.939
 L 28.6448,-541.423 L 28.1871,-541.853 L 27.6791,-542.222 L 27.1289,-542.524 L 26.5451,-542.755 L 25.9369,-542.911
 L 25.3139,-542.99 L -25.3139,-542.99 L -25.9369,-542.911 L -26.5451,-542.755 L -27.1289,-542.524 L -27.6791,-542.222
 L -28.1871,-541.853 L -28.6448,-541.423 L -29.0451,-540.939 L -29.3815,-540.409 L -29.6489,-539.841 L -29.8429,-539.243
 L -29.9,-538.944 L -30,-538.944 L -30,-337.056 L -29.9,-337.056 L -29.8429,-336.757 L -29.6489,-336.159
 L -29.3815,-335.591 L -29.0451,-335.061 L -28.6448,-334.577 L -28.1871,-334.147 L -27.6791,-333.778 L -27.1289,-333.476
 L -26.5451,-333.245 L -25.9369,-333.089 L -25.3139,-333.01 L 25.3139,-333.01 z
M 22.387,-533.704 L 22.1627,-533.732 L 21.9438,-533.788 L 21.7336,-533.871 L 21.5355,-533.98 L 21.3526,-534.113
 L 21.1879,-534.268 L 21.0438,-534.442 L 20.9226,-534.633 L 20.8264,-534.837 L 20.7565,-535.052 L 20.7142,-535.274
 L 20.7,-535.5 L 20.7142,-535.726 L 20.7565,-535.948 L 20.8264,-536.163 L 20.9226,-536.367 L 21.0438,-536.558
 L 21.1879,-536.732 L 21.3526,-536.887 L 21.5355,-537.02 L 21.7336,-537.129 L 21.9438,-537.212 L 22.1627,-537.268
 L 22.387,-537.296 L 22.613,-537.296 L 22.8373,-537.268 L 23.0562,-537.212 L 23.2664,-537.129 L 23.4645,-537.02
 L 23.6474,-536.887 L 23.8121,-536.732 L 23.9562,-536.558 L 24.0773,-536.367 L 24.1736,-536.163 L 24.2434,-535.948
 L 24.2858,-535.726 L 24.3,-535.5 L 24.2858,-535.274 L 24.2434,-535.052 L 24.1736,-534.837 L 24.0773,-534.633
 L 23.9562,-534.442 L 23.8121,-534.268 L 23.6474,-534.113 L 23.4645,-533.98 L 23.2664,-533.871 L 23.0562,-533.788
 L 22.8373,-533.732 L 22.613,-533.704 z
M -22.613,-533.704 L -22.8373,-533.732 L -23.0562,-533.788 L -23.2664,-533.871 L -23.4645,-533.98 L -23.6474,-534.113
 L -23.8121,-534.268 L -23.9562,-534.442 L -24.0773,-534.633 L -24.1736,-534.837 L -24.2434,-535.052 L -24.2858,-535.274
 L -24.3,-535.5 L -24.2858,-535.726 L -24.2434,-535.948 L -24.1736,-536.163 L -24.0773,-536.367 L -23.9562,-536.558
 L -23.8121,-536.732 L -23.6474,-536.887 L -23.4645,-537.02 L -23.2664,-537.129 L -23.0562,-537.212 L -22.8373,-537.268
 L -22.613,-537.296 L -22.387,-537.296 L -22.1627,-537.268 L -21.9438,-537.212 L -21.7336,-537.129 L -21.5355,-537.02
 L -21.3526,-536.887 L -21.1879,-536.732 L -21.0438,-536.558 L -20.9226,-536.367 L -20.8264,-536.163 L -20.7565,-535.948
 L -20.7142,-535.726 L -20.7,-535.5 L -20.7142,-535.274 L -20.7565,-535.052 L -20.8264,-534.837 L -20.9226,-534.633
 L -21.0438,-534.442 L -21.1879,-534.268 L -21.3526,-534.113 L -21.5355,-533.98 L -21.7336,-533.871 L -21.9438,-533.788
 L -22.1627,-533.732 L -22.387,-533.704 z
M 22.387,-338.704 L 22.1627,-338.732 L 21.9438,-338.788 L 21.7336,-338.871 L 21.5355,-338.98 L 21.3526,-339.113
 L 21.1879,-339.268 L 21.0438,-339.442 L 20.9226,-339.633 L 20.8264,-339.837 L 20.7565,-340.052 L 20.7142,-340.274
 L 20.7,-340.5 L 20.7142,-340.726 L 20.7565,-340.948 L 20.8264,-341.163 L 20.9226,-341.367 L 21.0438,-341.558
 L 21.1879,-341.732 L 21.3526,-341.887 L 21.5355,-342.02 L 21.7336,-342.129 L 21.9438,-342.212 L 22.1627,-342.268
 L 22.387,-342.296 L 22.613,-342.296 L 22.8373,-342.268 L 23.0562,-342.212 L 23.2664,-342.129 L 23.4645,-342.02
 L 23.6474,-341.887 L 23.8121,-341.732 L 23.9562,-341.558 L 24.0773,-341.367 L 24.1736,-341.163 L 24.2434,-340.948
 L 24.2858,-340.726 L 24.3,-340.5 L 24.2858,-340.274 L 24.2434,-340.052 L 24.1736,-339.837 L 24.0773,-339.633
 L 23.9562,-339.442 L 23.8121,-339.268 L 23.6474,-339.113 L 23.4645,-338.98 L 23.2664,-338.871 L 23.0562,-338.788
 L 22.8373,-338.732 L 22.613,-338.704 z
M -22.613,-338.704 L -22.8373,-338.732 L -23.0562,-338.788 L -23.2664,-338.871 L -23.4645,-338.98 L -23.6474,-339.113
 L -23.8121,-339.268 L -23.9562,-339.442 L -24.0773,-339.633 L -24.1736,-339.837 L -24.2434,-340.052 L -24.2858,-340.274
 L -24.3,-340.5 L -24.2858,-340.726 L -24.2434,-340.948 L -24.1736,-341.163 L -24.0773,-341.367 L -23.9562,-341.558
 L -23.8121,-341.732 L -23.6474,-341.887 L -23.4645,-342.02 L -23.2664,-342.129 L -23.0562,-342.212 L -22.8373,-342.268
 L -22.613,-342.296 L -22.387,-342.296 L -22.1627,-342.268 L -21.9438,-342.212 L -21.7336,-342.129 L -21.5355,-342.02
 L -21.3526,-341.887 L -21.1879,-341.732 L -21.0438,-341.558 L -20.9226,-341.367 L -20.8264,-341.163 L -20.7565,-340.948
 L -20.7142,-340.726 L -20.7,-340.5 L -20.7142,-340.274 L -20.7565,-340.052 L -20.8264,-339.837 L -20.9226,-339.633
 L -21.0438,-339.442 L -21.1879,-339.268 L -21.3526,-339.113 L -21.5355,-338.98 L -21.7336,-338.871 L -21.9438,-338.788
 L -22.1627,-338.732 L -22.387,-338.704 z
" stroke="black" fill="lightgray" stroke-width="0.5"/>
</svg>
