  0
SECTION
  2
BLOCKS
  0
ENDSEC
  0
SECTION
  2
ENTITIES
  0
LINE
  8
0
 10
108.437
 20
184.589
 11
109.045
 21
184.745
  0
LINE
  8
0
 10
109.045
 20
184.745
 11
109.629
 21
184.976
  0
LINE
  8
0
 10
109.629
 20
184.976
 11
110.179
 21
185.278
  0
LINE
  8
0
 10
110.179
 20
185.278
 11
110.687
 21
185.647
  0
LINE
  8
0
 10
110.687
 20
185.647
 11
111.145
 21
186.077
  0
LINE
  8
0
 10
111.145
 20
186.077
 11
111.545
 21
186.561
  0
LINE
  8
0
 10
111.545
 20
186.561
 11
111.882
 21
187.091
  0
LINE
  8
0
 10
111.882
 20
187.091
 11
112.149
 21
187.659
  0
LINE
  8
0
 10
112.149
 20
187.659
 11
112.343
 21
188.257
  0
LINE
  8
0
 10
112.343
 20
188.257
 11
112.461
 21
188.873
  0
LINE
  8
0
 10
112.461
 20
188.873
 11
112.5
 21
189.5
  0
LINE
  8
0
 10
112.5
 20
189.5
 11
112.5
 21
194.5
  0
LINE
  8
0
 10
112.5
 20
194.5
 11
112.461
 21
195.127
  0
LINE
  8
0
 10
112.461
 20
195.127
 11
112.343
 21
195.743
  0
LINE
  8
0
 10
112.343
 20
195.743
 11
112.149
 21
196.341
  0
LINE
  8
0
 10
112.149
 20
196.341
 11
111.882
 21
196.909
  0
LINE
  8
0
 10
111.882
 20
196.909
 11
111.545
 21
197.439
  0
LINE
  8
0
 10
111.545
 20
197.439
 11
111.145
 21
197.923
  0
LINE
  8
0
 10
111.145
 20
197.923
 11
110.687
 21
198.353
  0
LINE
  8
0
 10
110.687
 20
198.353
 11
110.179
 21
198.722
  0
LINE
  8
0
 10
110.179
 20
198.722
 11
109.629
 21
199.024
  0
LINE
  8
0
 10
109.629
 20
199.024
 11
109.045
 21
199.255
  0
LINE
  8
0
 10
109.045
 20
199.255
 11
108.437
 21
199.411
  0
LINE
  8
0
 10
108.437
 20
199.411
 11
107.814
 21
199.49
  0
LINE
  8
0
 10
107.814
 20
199.49
 11
-107.814
 21
199.49
  0
LINE
  8
0
 10
-107.814
 20
199.49
 11
-108.437
 21
199.411
  0
LINE
  8
0
 10
-108.437
 20
199.411
 11
-109.045
 21
199.255
  0
LINE
  8
0
 10
-109.045
 20
199.255
 11
-109.629
 21
199.024
  0
LINE
  8
0
 10
-109.629
 20
199.024
 11
-110.179
 21
198.722
  0
LINE
  8
0
 10
-110.179
 20
198.722
 11
-110.687
 21
198.353
  0
LINE
  8
0
 10
-110.687
 20
198.353
 11
-111.145
 21
197.923
  0
LINE
  8
0
 10
-111.145
 20
197.923
 11
-111.545
 21
197.439
  0
LINE
  8
0
 10
-111.545
 20
197.439
 11
-111.882
 21
196.909
  0
LINE
  8
0
 10
-111.882
 20
196.909
 11
-112.149
 21
196.341
  0
LINE
  8
0
 10
-112.149
 20
196.341
 11
-112.343
 21
195.743
  0
LINE
  8
0
 10
-112.343
 20
195.743
 11
-112.461
 21
195.127
  0
LINE
  8
0
 10
-112.461
 20
195.127
 11
-112.5
 21
194.5
  0
LINE
  8
0
 10
-112.5
 20
194.5
 11
-112.5
 21
189.5
  0
LINE
  8
0
 10
-112.5
 20
189.5
 11
-112.461
 21
188.873
  0
LINE
  8
0
 10
-112.461
 20
188.873
 11
-112.343
 21
188.257
  0
LINE
  8
0
 10
-112.343
 20
188.257
 11
-112.149
 21
187.659
  0
LINE
  8
0
 10
-112.149
 20
187.659
 11
-111.882
 21
187.091
  0
LINE
  8
0
 10
-111.882
 20
187.091
 11
-111.545
 21
186.561
  0
LINE
  8
0
 10
-111.545
 20
186.561
 11
-111.145
 21
186.077
  0
LINE
  8
0
 10
-111.145
 20
186.077
 11
-110.687
 21
185.647
  0
LINE
  8
0
 10
-110.687
 20
185.647
 11
-110.179
 21
185.278
  0
LINE
  8
0
 10
-110.179
 20
185.278
 11
-109.629
 21
184.976
  0
LINE
  8
0
 10
-109.629
 20
184.976
 11
-109.045
 21
184.745
  0
LINE
  8
0
 10
-109.045
 20
184.745
 11
-108.437
 21
184.589
  0
LINE
  8
0
 10
-108.437
 20
184.589
 11
-107.814
 21
184.51
  0
LINE
  8
0
 10
-107.814
 20
184.51
 11
107.814
 21
184.51
  0
LINE
  8
0
 10
107.814
 20
184.51
 11
108.437
 21
184.589
  0
LINE
  8
0
 10
-107.548
 20
185.009
 11
-108.14
 21
185.084
  0
LINE
  8
0
 10
-108.14
 20
185.084
 11
-108.718
 21
185.232
  0
LINE
  8
0
 10
-108.718
 20
185.232
 11
-109.272
 21
185.452
  0
LINE
  8
0
 10
-109.272
 20
185.452
 11
-109.795
 21
185.739
  0
LINE
  8
0
 10
-109.795
 20
185.739
 11
-110.278
 21
186.09
  0
LINE
  8
0
 10
-110.278
 20
186.09
 11
-110.713
 21
186.498
  0
LINE
  8
0
 10
-110.713
 20
186.498
 11
-111.093
 21
186.958
  0
LINE
  8
0
 10
-111.093
 20
186.958
 11
-111.412
 21
187.462
  0
LINE
  8
0
 10
-111.412
 20
187.462
 11
-111.666
 21
188.001
  0
LINE
  8
0
 10
-111.666
 20
188.001
 11
-111.851
 21
188.569
  0
LINE
  8
0
 10
-111.851
 20
188.569
 11
-111.963
 21
189.155
  0
LINE
  8
0
 10
-111.963
 20
189.155
 11
-112
 21
189.75
  0
LINE
  8
0
 10
-112
 20
189.75
 11
-112
 21
194.25
  0
LINE
  8
0
 10
-112
 20
194.25
 11
-111.963
 21
194.845
  0
LINE
  8
0
 10
-111.963
 20
194.845
 11
-111.851
 21
195.431
  0
LINE
  8
0
 10
-111.851
 20
195.431
 11
-111.666
 21
195.999
  0
LINE
  8
0
 10
-111.666
 20
195.999
 11
-111.412
 21
196.538
  0
LINE
  8
0
 10
-111.412
 20
196.538
 11
-111.093
 21
197.042
  0
LINE
  8
0
 10
-111.093
 20
197.042
 11
-110.713
 21
197.502
  0
LINE
  8
0
 10
-110.713
 20
197.502
 11
-110.278
 21
197.91
  0
LINE
  8
0
 10
-110.278
 20
197.91
 11
-109.795
 21
198.261
  0
LINE
  8
0
 10
-109.795
 20
198.261
 11
-109.272
 21
198.548
  0
LINE
  8
0
 10
-109.272
 20
198.548
 11
-108.718
 21
198.768
  0
LINE
  8
0
 10
-108.718
 20
198.768
 11
-108.14
 21
198.916
  0
LINE
  8
0
 10
-108.14
 20
198.916
 11
-107.548
 21
198.991
  0
LINE
  8
0
 10
-107.548
 20
198.991
 11
107.548
 21
198.991
  0
LINE
  8
0
 10
107.548
 20
198.991
 11
108.14
 21
198.916
  0
LINE
  8
0
 10
108.14
 20
198.916
 11
108.718
 21
198.768
  0
LINE
  8
0
 10
108.718
 20
198.768
 11
109.272
 21
198.548
  0
LINE
  8
0
 10
109.272
 20
198.548
 11
109.795
 21
198.261
  0
LINE
  8
0
 10
109.795
 20
198.261
 11
110.278
 21
197.91
  0
LINE
  8
0
 10
110.278
 20
197.91
 11
110.713
 21
197.502
  0
LINE
  8
0
 10
110.713
 20
197.502
 11
111.093
 21
197.042
  0
LINE
  8
0
 10
111.093
 20
197.042
 11
111.412
 21
196.538
  0
LINE
  8
0
 10
111.412
 20
196.538
 11
111.666
 21
195.999
  0
LINE
  8
0
 10
111.666
 20
195.999
 11
111.851
 21
195.431
  0
LINE
  8
0
 10
111.851
 20
195.431
 11
111.963
 21
194.845
  0
LINE
  8
0
 10
111.963
 20
194.845
 11
112
 21
194.25
  0
LINE
  8
0
 10
112
 20
194.25
 11
112
 21
189.75
  0
LINE
  8
0
 10
112
 20
189.75
 11
111.963
 21
189.155
  0
LINE
  8
0
 10
111.963
 20
189.155
 11
111.851
 21
188.569
  0
LINE
  8
0
 10
111.851
 20
188.569
 11
111.666
 21
188.001
  0
LINE
  8
0
 10
111.666
 20
188.001
 11
111.412
 21
187.462
  0
LINE
  8
0
 10
111.412
 20
187.462
 11
111.093
 21
186.958
  0
LINE
  8
0
 10
111.093
 20
186.958
 11
110.713
 21
186.498
  0
LINE
  8
0
 10
110.713
 20
186.498
 11
110.278
 21
186.09
  0
LINE
  8
0
 10
110.278
 20
186.09
 11
109.795
 21
185.739
  0
LINE
  8
0
 10
109.795
 20
185.739
 11
109.272
 21
185.452
  0
LINE
  8
0
 10
109.272
 20
185.452
 11
108.718
 21
185.232
  0
LINE
  8
0
 10
108.718
 20
185.232
 11
108.14
 21
185.084
  0
LINE
  8
0
 10
108.14
 20
185.084
 11
107.548
 21
185.009
  0
LINE
  8
0
 10
107.548
 20
185.009
 11
-107.548
 21
185.009
  0
LINE
  8
0
 10
108.437
 20
160.589
 11
109.045
 21
160.745
  0
LINE
  8
0
 10
109.045
 20
160.745
 11
109.629
 21
160.976
  0
LINE
  8
0
 10
109.629
 20
160.976
 11
110.179
 21
161.278
  0
LINE
  8
0
 10
110.179
 20
161.278
 11
110.687
 21
161.647
  0
LINE
  8
0
 10
110.687
 20
161.647
 11
111.145
 21
162.077
  0
LINE
  8
0
 10
111.145
 20
162.077
 11
111.545
 21
162.561
  0
LINE
  8
0
 10
111.545
 20
162.561
 11
111.882
 21
163.091
  0
LINE
  8
0
 10
111.882
 20
163.091
 11
112.149
 21
163.659
  0
LINE
  8
0
 10
112.149
 20
163.659
 11
112.343
 21
164.257
  0
LINE
  8
0
 10
112.343
 20
164.257
 11
112.461
 21
164.873
  0
LINE
  8
0
 10
112.461
 20
164.873
 11
112.5
 21
165.5
  0
LINE
  8
0
 10
112.5
 20
165.5
 11
112.5
 21
170.5
  0
LINE
  8
0
 10
112.5
 20
170.5
 11
112.461
 21
171.127
  0
LINE
  8
0
 10
112.461
 20
171.127
 11
112.343
 21
171.743
  0
LINE
  8
0
 10
112.343
 20
171.743
 11
112.149
 21
172.341
  0
LINE
  8
0
 10
112.149
 20
172.341
 11
111.882
 21
172.909
  0
LINE
  8
0
 10
111.882
 20
172.909
 11
111.545
 21
173.439
  0
LINE
  8
0
 10
111.545
 20
173.439
 11
111.145
 21
173.923
  0
LINE
  8
0
 10
111.145
 20
173.923
 11
110.687
 21
174.353
  0
LINE
  8
0
 10
110.687
 20
174.353
 11
110.179
 21
174.722
  0
LINE
  8
0
 10
110.179
 20
174.722
 11
109.629
 21
175.024
  0
LINE
  8
0
 10
109.629
 20
175.024
 11
109.045
 21
175.255
  0
LINE
  8
0
 10
109.045
 20
175.255
 11
108.437
 21
175.411
  0
LINE
  8
0
 10
108.437
 20
175.411
 11
107.814
 21
175.49
  0
LINE
  8
0
 10
107.814
 20
175.49
 11
-107.814
 21
175.49
  0
LINE
  8
0
 10
-107.814
 20
175.49
 11
-108.437
 21
175.411
  0
LINE
  8
0
 10
-108.437
 20
175.411
 11
-109.045
 21
175.255
  0
LINE
  8
0
 10
-109.045
 20
175.255
 11
-109.629
 21
175.024
  0
LINE
  8
0
 10
-109.629
 20
175.024
 11
-110.179
 21
174.722
  0
LINE
  8
0
 10
-110.179
 20
174.722
 11
-110.687
 21
174.353
  0
LINE
  8
0
 10
-110.687
 20
174.353
 11
-111.145
 21
173.923
  0
LINE
  8
0
 10
-111.145
 20
173.923
 11
-111.545
 21
173.439
  0
LINE
  8
0
 10
-111.545
 20
173.439
 11
-111.882
 21
172.909
  0
LINE
  8
0
 10
-111.882
 20
172.909
 11
-112.149
 21
172.341
  0
LINE
  8
0
 10
-112.149
 20
172.341
 11
-112.343
 21
171.743
  0
LINE
  8
0
 10
-112.343
 20
171.743
 11
-112.461
 21
171.127
  0
LINE
  8
0
 10
-112.461
 20
171.127
 11
-112.5
 21
170.5
  0
LINE
  8
0
 10
-112.5
 20
170.5
 11
-112.5
 21
165.5
  0
LINE
  8
0
 10
-112.5
 20
165.5
 11
-112.461
 21
164.873
  0
LINE
  8
0
 10
-112.461
 20
164.873
 11
-112.343
 21
164.257
  0
LINE
  8
0
 10
-112.343
 20
164.257
 11
-112.149
 21
163.659
  0
LINE
  8
0
 10
-112.149
 20
163.659
 11
-111.882
 21
163.091
  0
LINE
  8
0
 10
-111.882
 20
163.091
 11
-111.545
 21
162.561
  0
LINE
  8
0
 10
-111.545
 20
162.561
 11
-111.145
 21
162.077
  0
LINE
  8
0
 10
-111.145
 20
162.077
 11
-110.687
 21
161.647
  0
LINE
  8
0
 10
-110.687
 20
161.647
 11
-110.179
 21
161.278
  0
LINE
  8
0
 10
-110.179
 20
161.278
 11
-109.629
 21
160.976
  0
LINE
  8
0
 10
-109.629
 20
160.976
 11
-109.045
 21
160.745
  0
LINE
  8
0
 10
-109.045
 20
160.745
 11
-108.437
 21
160.589
  0
LINE
  8
0
 10
-108.437
 20
160.589
 11
-107.814
 21
160.51
  0
LINE
  8
0
 10
-107.814
 20
160.51
 11
107.814
 21
160.51
  0
LINE
  8
0
 10
107.814
 20
160.51
 11
108.437
 21
160.589
  0
LINE
  8
0
 10
-107.548
 20
161.009
 11
-108.14
 21
161.084
  0
LINE
  8
0
 10
-108.14
 20
161.084
 11
-108.718
 21
161.232
  0
LINE
  8
0
 10
-108.718
 20
161.232
 11
-109.272
 21
161.452
  0
LINE
  8
0
 10
-109.272
 20
161.452
 11
-109.795
 21
161.739
  0
LINE
  8
0
 10
-109.795
 20
161.739
 11
-110.278
 21
162.09
  0
LINE
  8
0
 10
-110.278
 20
162.09
 11
-110.713
 21
162.498
  0
LINE
  8
0
 10
-110.713
 20
162.498
 11
-111.093
 21
162.958
  0
LINE
  8
0
 10
-111.093
 20
162.958
 11
-111.412
 21
163.462
  0
LINE
  8
0
 10
-111.412
 20
163.462
 11
-111.666
 21
164.001
  0
LINE
  8
0
 10
-111.666
 20
164.001
 11
-111.851
 21
164.569
  0
LINE
  8
0
 10
-111.851
 20
164.569
 11
-111.963
 21
165.155
  0
LINE
  8
0
 10
-111.963
 20
165.155
 11
-112
 21
165.75
  0
LINE
  8
0
 10
-112
 20
165.75
 11
-112
 21
170.25
  0
LINE
  8
0
 10
-112
 20
170.25
 11
-111.963
 21
170.845
  0
LINE
  8
0
 10
-111.963
 20
170.845
 11
-111.851
 21
171.431
  0
LINE
  8
0
 10
-111.851
 20
171.431
 11
-111.666
 21
171.999
  0
LINE
  8
0
 10
-111.666
 20
171.999
 11
-111.412
 21
172.538
  0
LINE
  8
0
 10
-111.412
 20
172.538
 11
-111.093
 21
173.042
  0
LINE
  8
0
 10
-111.093
 20
173.042
 11
-110.713
 21
173.502
  0
LINE
  8
0
 10
-110.713
 20
173.502
 11
-110.278
 21
173.91
  0
LINE
  8
0
 10
-110.278
 20
173.91
 11
-109.795
 21
174.261
  0
LINE
  8
0
 10
-109.795
 20
174.261
 11
-109.272
 21
174.548
  0
LINE
  8
0
 10
-109.272
 20
174.548
 11
-108.718
 21
174.768
  0
LINE
  8
0
 10
-108.718
 20
174.768
 11
-108.14
 21
174.916
  0
LINE
  8
0
 10
-108.14
 20
174.916
 11
-107.548
 21
174.991
  0
LINE
  8
0
 10
-107.548
 20
174.991
 11
107.548
 21
174.991
  0
LINE
  8
0
 10
107.548
 20
174.991
 11
108.14
 21
174.916
  0
LINE
  8
0
 10
108.14
 20
174.916
 11
108.718
 21
174.768
  0
LINE
  8
0
 10
108.718
 20
174.768
 11
109.272
 21
174.548
  0
LINE
  8
0
 10
109.272
 20
174.548
 11
109.795
 21
174.261
  0
LINE
  8
0
 10
109.795
 20
174.261
 11
110.278
 21
173.91
  0
LINE
  8
0
 10
110.278
 20
173.91
 11
110.713
 21
173.502
  0
LINE
  8
0
 10
110.713
 20
173.502
 11
111.093
 21
173.042
  0
LINE
  8
0
 10
111.093
 20
173.042
 11
111.412
 21
172.538
  0
LINE
  8
0
 10
111.412
 20
172.538
 11
111.666
 21
171.999
  0
LINE
  8
0
 10
111.666
 20
171.999
 11
111.851
 21
171.431
  0
LINE
  8
0
 10
111.851
 20
171.431
 11
111.963
 21
170.845
  0
LINE
  8
0
 10
111.963
 20
170.845
 11
112
 21
170.25
  0
LINE
  8
0
 10
112
 20
170.25
 11
112
 21
165.75
  0
LINE
  8
0
 10
112
 20
165.75
 11
111.963
 21
165.155
  0
LINE
  8
0
 10
111.963
 20
165.155
 11
111.851
 21
164.569
  0
LINE
  8
0
 10
111.851
 20
164.569
 11
111.666
 21
164.001
  0
LINE
  8
0
 10
111.666
 20
164.001
 11
111.412
 21
163.462
  0
LINE
  8
0
 10
111.412
 20
163.462
 11
111.093
 21
162.958
  0
LINE
  8
0
 10
111.093
 20
162.958
 11
110.713
 21
162.498
  0
LINE
  8
0
 10
110.713
 20
162.498
 11
110.278
 21
162.09
  0
LINE
  8
0
 10
110.278
 20
162.09
 11
109.795
 21
161.739
  0
LINE
  8
0
 10
109.795
 20
161.739
 11
109.272
 21
161.452
  0
LINE
  8
0
 10
109.272
 20
161.452
 11
108.718
 21
161.232
  0
LINE
  8
0
 10
108.718
 20
161.232
 11
108.14
 21
161.084
  0
LINE
  8
0
 10
108.14
 20
161.084
 11
107.548
 21
161.009
  0
LINE
  8
0
 10
107.548
 20
161.009
 11
-107.548
 21
161.009
  0
LINE
  8
0
 10
108.437
 20
136.589
 11
109.045
 21
136.745
  0
LINE
  8
0
 10
109.045
 20
136.745
 11
109.629
 21
136.976
  0
LINE
  8
0
 10
109.629
 20
136.976
 11
110.179
 21
137.278
  0
LINE
  8
0
 10
110.179
 20
137.278
 11
110.687
 21
137.647
  0
LINE
  8
0
 10
110.687
 20
137.647
 11
111.145
 21
138.077
  0
LINE
  8
0
 10
111.145
 20
138.077
 11
111.545
 21
138.561
  0
LINE
  8
0
 10
111.545
 20
138.561
 11
111.882
 21
139.091
  0
LINE
  8
0
 10
111.882
 20
139.091
 11
112.149
 21
139.659
  0
LINE
  8
0
 10
112.149
 20
139.659
 11
112.343
 21
140.257
  0
LINE
  8
0
 10
112.343
 20
140.257
 11
112.461
 21
140.873
  0
LINE
  8
0
 10
112.461
 20
140.873
 11
112.5
 21
141.5
  0
LINE
  8
0
 10
112.5
 20
141.5
 11
112.5
 21
146.5
  0
LINE
  8
0
 10
112.5
 20
146.5
 11
112.461
 21
147.127
  0
LINE
  8
0
 10
112.461
 20
147.127
 11
112.343
 21
147.743
  0
LINE
  8
0
 10
112.343
 20
147.743
 11
112.149
 21
148.341
  0
LINE
  8
0
 10
112.149
 20
148.341
 11
111.882
 21
148.909
  0
LINE
  8
0
 10
111.882
 20
148.909
 11
111.545
 21
149.439
  0
LINE
  8
0
 10
111.545
 20
149.439
 11
111.145
 21
149.923
  0
LINE
  8
0
 10
111.145
 20
149.923
 11
110.687
 21
150.353
  0
LINE
  8
0
 10
110.687
 20
150.353
 11
110.179
 21
150.722
  0
LINE
  8
0
 10
110.179
 20
150.722
 11
109.629
 21
151.024
  0
LINE
  8
0
 10
109.629
 20
151.024
 11
109.045
 21
151.255
  0
LINE
  8
0
 10
109.045
 20
151.255
 11
108.437
 21
151.411
  0
LINE
  8
0
 10
108.437
 20
151.411
 11
107.814
 21
151.49
  0
LINE
  8
0
 10
107.814
 20
151.49
 11
-107.814
 21
151.49
  0
LINE
  8
0
 10
-107.814
 20
151.49
 11
-108.437
 21
151.411
  0
LINE
  8
0
 10
-108.437
 20
151.411
 11
-109.045
 21
151.255
  0
LINE
  8
0
 10
-109.045
 20
151.255
 11
-109.629
 21
151.024
  0
LINE
  8
0
 10
-109.629
 20
151.024
 11
-110.179
 21
150.722
  0
LINE
  8
0
 10
-110.179
 20
150.722
 11
-110.687
 21
150.353
  0
LINE
  8
0
 10
-110.687
 20
150.353
 11
-111.145
 21
149.923
  0
LINE
  8
0
 10
-111.145
 20
149.923
 11
-111.545
 21
149.439
  0
LINE
  8
0
 10
-111.545
 20
149.439
 11
-111.882
 21
148.909
  0
LINE
  8
0
 10
-111.882
 20
148.909
 11
-112.149
 21
148.341
  0
LINE
  8
0
 10
-112.149
 20
148.341
 11
-112.343
 21
147.743
  0
LINE
  8
0
 10
-112.343
 20
147.743
 11
-112.461
 21
147.127
  0
LINE
  8
0
 10
-112.461
 20
147.127
 11
-112.5
 21
146.5
  0
LINE
  8
0
 10
-112.5
 20
146.5
 11
-112.5
 21
141.5
  0
LINE
  8
0
 10
-112.5
 20
141.5
 11
-112.461
 21
140.873
  0
LINE
  8
0
 10
-112.461
 20
140.873
 11
-112.343
 21
140.257
  0
LINE
  8
0
 10
-112.343
 20
140.257
 11
-112.149
 21
139.659
  0
LINE
  8
0
 10
-112.149
 20
139.659
 11
-111.882
 21
139.091
  0
LINE
  8
0
 10
-111.882
 20
139.091
 11
-111.545
 21
138.561
  0
LINE
  8
0
 10
-111.545
 20
138.561
 11
-111.145
 21
138.077
  0
LINE
  8
0
 10
-111.145
 20
138.077
 11
-110.687
 21
137.647
  0
LINE
  8
0
 10
-110.687
 20
137.647
 11
-110.179
 21
137.278
  0
LINE
  8
0
 10
-110.179
 20
137.278
 11
-109.629
 21
136.976
  0
LINE
  8
0
 10
-109.629
 20
136.976
 11
-109.045
 21
136.745
  0
LINE
  8
0
 10
-109.045
 20
136.745
 11
-108.437
 21
136.589
  0
LINE
  8
0
 10
-108.437
 20
136.589
 11
-107.814
 21
136.51
  0
LINE
  8
0
 10
-107.814
 20
136.51
 11
107.814
 21
136.51
  0
LINE
  8
0
 10
107.814
 20
136.51
 11
108.437
 21
136.589
  0
LINE
  8
0
 10
-107.548
 20
137.009
 11
-108.14
 21
137.084
  0
LINE
  8
0
 10
-108.14
 20
137.084
 11
-108.718
 21
137.232
  0
LINE
  8
0
 10
-108.718
 20
137.232
 11
-109.272
 21
137.452
  0
LINE
  8
0
 10
-109.272
 20
137.452
 11
-109.795
 21
137.739
  0
LINE
  8
0
 10
-109.795
 20
137.739
 11
-110.278
 21
138.09
  0
LINE
  8
0
 10
-110.278
 20
138.09
 11
-110.713
 21
138.498
  0
LINE
  8
0
 10
-110.713
 20
138.498
 11
-111.093
 21
138.958
  0
LINE
  8
0
 10
-111.093
 20
138.958
 11
-111.412
 21
139.462
  0
LINE
  8
0
 10
-111.412
 20
139.462
 11
-111.666
 21
140.001
  0
LINE
  8
0
 10
-111.666
 20
140.001
 11
-111.851
 21
140.569
  0
LINE
  8
0
 10
-111.851
 20
140.569
 11
-111.963
 21
141.155
  0
LINE
  8
0
 10
-111.963
 20
141.155
 11
-112
 21
141.75
  0
LINE
  8
0
 10
-112
 20
141.75
 11
-112
 21
146.25
  0
LINE
  8
0
 10
-112
 20
146.25
 11
-111.963
 21
146.845
  0
LINE
  8
0
 10
-111.963
 20
146.845
 11
-111.851
 21
147.431
  0
LINE
  8
0
 10
-111.851
 20
147.431
 11
-111.666
 21
147.999
  0
LINE
  8
0
 10
-111.666
 20
147.999
 11
-111.412
 21
148.538
  0
LINE
  8
0
 10
-111.412
 20
148.538
 11
-111.093
 21
149.042
  0
LINE
  8
0
 10
-111.093
 20
149.042
 11
-110.713
 21
149.502
  0
LINE
  8
0
 10
-110.713
 20
149.502
 11
-110.278
 21
149.91
  0
LINE
  8
0
 10
-110.278
 20
149.91
 11
-109.795
 21
150.261
  0
LINE
  8
0
 10
-109.795
 20
150.261
 11
-109.272
 21
150.548
  0
LINE
  8
0
 10
-109.272
 20
150.548
 11
-108.718
 21
150.768
  0
LINE
  8
0
 10
-108.718
 20
150.768
 11
-108.14
 21
150.916
  0
LINE
  8
0
 10
-108.14
 20
150.916
 11
-107.548
 21
150.991
  0
LINE
  8
0
 10
-107.548
 20
150.991
 11
107.548
 21
150.991
  0
LINE
  8
0
 10
107.548
 20
150.991
 11
108.14
 21
150.916
  0
LINE
  8
0
 10
108.14
 20
150.916
 11
108.718
 21
150.768
  0
LINE
  8
0
 10
108.718
 20
150.768
 11
109.272
 21
150.548
  0
LINE
  8
0
 10
109.272
 20
150.548
 11
109.795
 21
150.261
  0
LINE
  8
0
 10
109.795
 20
150.261
 11
110.278
 21
149.91
  0
LINE
  8
0
 10
110.278
 20
149.91
 11
110.713
 21
149.502
  0
LINE
  8
0
 10
110.713
 20
149.502
 11
111.093
 21
149.042
  0
LINE
  8
0
 10
111.093
 20
149.042
 11
111.412
 21
148.538
  0
LINE
  8
0
 10
111.412
 20
148.538
 11
111.666
 21
147.999
  0
LINE
  8
0
 10
111.666
 20
147.999
 11
111.851
 21
147.431
  0
LINE
  8
0
 10
111.851
 20
147.431
 11
111.963
 21
146.845
  0
LINE
  8
0
 10
111.963
 20
146.845
 11
112
 21
146.25
  0
LINE
  8
0
 10
112
 20
146.25
 11
112
 21
141.75
  0
LINE
  8
0
 10
112
 20
141.75
 11
111.963
 21
141.155
  0
LINE
  8
0
 10
111.963
 20
141.155
 11
111.851
 21
140.569
  0
LINE
  8
0
 10
111.851
 20
140.569
 11
111.666
 21
140.001
  0
LINE
  8
0
 10
111.666
 20
140.001
 11
111.412
 21
139.462
  0
LINE
  8
0
 10
111.412
 20
139.462
 11
111.093
 21
138.958
  0
LINE
  8
0
 10
111.093
 20
138.958
 11
110.713
 21
138.498
  0
LINE
  8
0
 10
110.713
 20
138.498
 11
110.278
 21
138.09
  0
LINE
  8
0
 10
110.278
 20
138.09
 11
109.795
 21
137.739
  0
LINE
  8
0
 10
109.795
 20
137.739
 11
109.272
 21
137.452
  0
LINE
  8
0
 10
109.272
 20
137.452
 11
108.718
 21
137.232
  0
LINE
  8
0
 10
108.718
 20
137.232
 11
108.14
 21
137.084
  0
LINE
  8
0
 10
108.14
 20
137.084
 11
107.548
 21
137.009
  0
LINE
  8
0
 10
107.548
 20
137.009
 11
-107.548
 21
137.009
  0
LINE
  8
0
 10
108.437
 20
112.589
 11
109.045
 21
112.745
  0
LINE
  8
0
 10
109.045
 20
112.745
 11
109.629
 21
112.976
  0
LINE
  8
0
 10
109.629
 20
112.976
 11
110.179
 21
113.278
  0
LINE
  8
0
 10
110.179
 20
113.278
 11
110.687
 21
113.647
  0
LINE
  8
0
 10
110.687
 20
113.647
 11
111.145
 21
114.077
  0
LINE
  8
0
 10
111.145
 20
114.077
 11
111.545
 21
114.561
  0
LINE
  8
0
 10
111.545
 20
114.561
 11
111.882
 21
115.091
  0
LINE
  8
0
 10
111.882
 20
115.091
 11
112.149
 21
115.659
  0
LINE
  8
0
 10
112.149
 20
115.659
 11
112.343
 21
116.257
  0
LINE
  8
0
 10
112.343
 20
116.257
 11
112.461
 21
116.873
  0
LINE
  8
0
 10
112.461
 20
116.873
 11
112.5
 21
117.5
  0
LINE
  8
0
 10
112.5
 20
117.5
 11
112.5
 21
122.5
  0
LINE
  8
0
 10
112.5
 20
122.5
 11
112.461
 21
123.127
  0
LINE
  8
0
 10
112.461
 20
123.127
 11
112.343
 21
123.743
  0
LINE
  8
0
 10
112.343
 20
123.743
 11
112.149
 21
124.341
  0
LINE
  8
0
 10
112.149
 20
124.341
 11
111.882
 21
124.909
  0
LINE
  8
0
 10
111.882
 20
124.909
 11
111.545
 21
125.439
  0
LINE
  8
0
 10
111.545
 20
125.439
 11
111.145
 21
125.923
  0
LINE
  8
0
 10
111.145
 20
125.923
 11
110.687
 21
126.353
  0
LINE
  8
0
 10
110.687
 20
126.353
 11
110.179
 21
126.722
  0
LINE
  8
0
 10
110.179
 20
126.722
 11
109.629
 21
127.024
  0
LINE
  8
0
 10
109.629
 20
127.024
 11
109.045
 21
127.255
  0
LINE
  8
0
 10
109.045
 20
127.255
 11
108.437
 21
127.411
  0
LINE
  8
0
 10
108.437
 20
127.411
 11
107.814
 21
127.49
  0
LINE
  8
0
 10
107.814
 20
127.49
 11
-107.814
 21
127.49
  0
LINE
  8
0
 10
-107.814
 20
127.49
 11
-108.437
 21
127.411
  0
LINE
  8
0
 10
-108.437
 20
127.411
 11
-109.045
 21
127.255
  0
LINE
  8
0
 10
-109.045
 20
127.255
 11
-109.629
 21
127.024
  0
LINE
  8
0
 10
-109.629
 20
127.024
 11
-110.179
 21
126.722
  0
LINE
  8
0
 10
-110.179
 20
126.722
 11
-110.687
 21
126.353
  0
LINE
  8
0
 10
-110.687
 20
126.353
 11
-111.145
 21
125.923
  0
LINE
  8
0
 10
-111.145
 20
125.923
 11
-111.545
 21
125.439
  0
LINE
  8
0
 10
-111.545
 20
125.439
 11
-111.882
 21
124.909
  0
LINE
  8
0
 10
-111.882
 20
124.909
 11
-112.149
 21
124.341
  0
LINE
  8
0
 10
-112.149
 20
124.341
 11
-112.343
 21
123.743
  0
LINE
  8
0
 10
-112.343
 20
123.743
 11
-112.461
 21
123.127
  0
LINE
  8
0
 10
-112.461
 20
123.127
 11
-112.5
 21
122.5
  0
LINE
  8
0
 10
-112.5
 20
122.5
 11
-112.5
 21
117.5
  0
LINE
  8
0
 10
-112.5
 20
117.5
 11
-112.461
 21
116.873
  0
LINE
  8
0
 10
-112.461
 20
116.873
 11
-112.343
 21
116.257
  0
LINE
  8
0
 10
-112.343
 20
116.257
 11
-112.149
 21
115.659
  0
LINE
  8
0
 10
-112.149
 20
115.659
 11
-111.882
 21
115.091
  0
LINE
  8
0
 10
-111.882
 20
115.091
 11
-111.545
 21
114.561
  0
LINE
  8
0
 10
-111.545
 20
114.561
 11
-111.145
 21
114.077
  0
LINE
  8
0
 10
-111.145
 20
114.077
 11
-110.687
 21
113.647
  0
LINE
  8
0
 10
-110.687
 20
113.647
 11
-110.179
 21
113.278
  0
LINE
  8
0
 10
-110.179
 20
113.278
 11
-109.629
 21
112.976
  0
LINE
  8
0
 10
-109.629
 20
112.976
 11
-109.045
 21
112.745
  0
LINE
  8
0
 10
-109.045
 20
112.745
 11
-108.437
 21
112.589
  0
LINE
  8
0
 10
-108.437
 20
112.589
 11
-107.814
 21
112.51
  0
LINE
  8
0
 10
-107.814
 20
112.51
 11
107.814
 21
112.51
  0
LINE
  8
0
 10
107.814
 20
112.51
 11
108.437
 21
112.589
  0
LINE
  8
0
 10
-107.493
 20
113.888
 11
-107.975
 21
113.949
  0
LINE
  8
0
 10
-107.975
 20
113.949
 11
-108.446
 21
114.07
  0
LINE
  8
0
 10
-108.446
 20
114.07
 11
-108.898
 21
114.249
  0
LINE
  8
0
 10
-108.898
 20
114.249
 11
-109.323
 21
114.483
  0
LINE
  8
0
 10
-109.323
 20
114.483
 11
-109.716
 21
114.769
  0
LINE
  8
0
 10
-109.716
 20
114.769
 11
-110.071
 21
115.101
  0
LINE
  8
0
 10
-110.071
 20
115.101
 11
-110.38
 21
115.476
  0
LINE
  8
0
 10
-110.38
 20
115.476
 11
-110.641
 21
115.886
  0
LINE
  8
0
 10
-110.641
 20
115.886
 11
-110.848
 21
116.326
  0
LINE
  8
0
 10
-110.848
 20
116.326
 11
-110.998
 21
116.788
  0
LINE
  8
0
 10
-110.998
 20
116.788
 11
-111.089
 21
117.265
  0
LINE
  8
0
 10
-111.089
 20
117.265
 11
-111.119
 21
117.75
  0
LINE
  8
0
 10
-111.119
 20
117.75
 11
-111.119
 21
122.25
  0
LINE
  8
0
 10
-111.119
 20
122.25
 11
-111.089
 21
122.735
  0
LINE
  8
0
 10
-111.089
 20
122.735
 11
-110.998
 21
123.212
  0
LINE
  8
0
 10
-110.998
 20
123.212
 11
-110.848
 21
123.674
  0
LINE
  8
0
 10
-110.848
 20
123.674
 11
-110.641
 21
124.114
  0
LINE
  8
0
 10
-110.641
 20
124.114
 11
-110.38
 21
124.524
  0
LINE
  8
0
 10
-110.38
 20
124.524
 11
-110.071
 21
124.899
  0
LINE
  8
0
 10
-110.071
 20
124.899
 11
-109.716
 21
125.231
  0
LINE
  8
0
 10
-109.716
 20
125.231
 11
-109.323
 21
125.517
  0
LINE
  8
0
 10
-109.323
 20
125.517
 11
-108.898
 21
125.751
  0
LINE
  8
0
 10
-108.898
 20
125.751
 11
-108.446
 21
125.93
  0
LINE
  8
0
 10
-108.446
 20
125.93
 11
-107.975
 21
126.051
  0
LINE
  8
0
 10
-107.975
 20
126.051
 11
-107.493
 21
126.112
  0
LINE
  8
0
 10
-107.493
 20
126.112
 11
107.493
 21
126.112
  0
LINE
  8
0
 10
107.493
 20
126.112
 11
107.975
 21
126.051
  0
LINE
  8
0
 10
107.975
 20
126.051
 11
108.446
 21
125.93
  0
LINE
  8
0
 10
108.446
 20
125.93
 11
108.898
 21
125.751
  0
LINE
  8
0
 10
108.898
 20
125.751
 11
109.323
 21
125.517
  0
LINE
  8
0
 10
109.323
 20
125.517
 11
109.716
 21
125.231
  0
LINE
  8
0
 10
109.716
 20
125.231
 11
110.071
 21
124.899
  0
LINE
  8
0
 10
110.071
 20
124.899
 11
110.38
 21
124.524
  0
LINE
  8
0
 10
110.38
 20
124.524
 11
110.641
 21
124.114
  0
LINE
  8
0
 10
110.641
 20
124.114
 11
110.848
 21
123.674
  0
LINE
  8
0
 10
110.848
 20
123.674
 11
110.998
 21
123.212
  0
LINE
  8
0
 10
110.998
 20
123.212
 11
111.089
 21
122.735
  0
LINE
  8
0
 10
111.089
 20
122.735
 11
111.119
 21
122.25
  0
LINE
  8
0
 10
111.119
 20
122.25
 11
111.119
 21
117.75
  0
LINE
  8
0
 10
111.119
 20
117.75
 11
111.089
 21
117.265
  0
LINE
  8
0
 10
111.089
 20
117.265
 11
110.998
 21
116.788
  0
LINE
  8
0
 10
110.998
 20
116.788
 11
110.848
 21
116.326
  0
LINE
  8
0
 10
110.848
 20
116.326
 11
110.641
 21
115.886
  0
LINE
  8
0
 10
110.641
 20
115.886
 11
110.38
 21
115.476
  0
LINE
  8
0
 10
110.38
 20
115.476
 11
110.071
 21
115.101
  0
LINE
  8
0
 10
110.071
 20
115.101
 11
109.716
 21
114.769
  0
LINE
  8
0
 10
109.716
 20
114.769
 11
109.323
 21
114.483
  0
LINE
  8
0
 10
109.323
 20
114.483
 11
108.898
 21
114.249
  0
LINE
  8
0
 10
108.898
 20
114.249
 11
108.446
 21
114.07
  0
LINE
  8
0
 10
108.446
 20
114.07
 11
107.975
 21
113.949
  0
LINE
  8
0
 10
107.975
 20
113.949
 11
107.493
 21
113.888
  0
LINE
  8
0
 10
107.493
 20
113.888
 11
-107.493
 21
113.888
  0
LINE
  8
0
 10
108.437
 20
88.5886
 11
109.045
 21
88.7447
  0
LINE
  8
0
 10
109.045
 20
88.7447
 11
109.629
 21
88.9759
  0
LINE
  8
0
 10
109.629
 20
88.9759
 11
110.179
 21
89.2784
  0
LINE
  8
0
 10
110.179
 20
89.2784
 11
110.687
 21
89.6474
  0
LINE
  8
0
 10
110.687
 20
89.6474
 11
111.145
 21
90.0773
  0
LINE
  8
0
 10
111.145
 20
90.0773
 11
111.545
 21
90.5611
  0
LINE
  8
0
 10
111.545
 20
90.5611
 11
111.882
 21
91.0912
  0
LINE
  8
0
 10
111.882
 20
91.0912
 11
112.149
 21
91.6594
  0
LINE
  8
0
 10
112.149
 20
91.6594
 11
112.343
 21
92.2566
  0
LINE
  8
0
 10
112.343
 20
92.2566
 11
112.461
 21
92.8733
  0
LINE
  8
0
 10
112.461
 20
92.8733
 11
112.5
 21
93.5
  0
LINE
  8
0
 10
112.5
 20
93.5
 11
112.5
 21
98.5
  0
LINE
  8
0
 10
112.5
 20
98.5
 11
112.461
 21
99.1267
  0
LINE
  8
0
 10
112.461
 20
99.1267
 11
112.343
 21
99.7434
  0
LINE
  8
0
 10
112.343
 20
99.7434
 11
112.149
 21
100.341
  0
LINE
  8
0
 10
112.149
 20
100.341
 11
111.882
 21
100.909
  0
LINE
  8
0
 10
111.882
 20
100.909
 11
111.545
 21
101.439
  0
LINE
  8
0
 10
111.545
 20
101.439
 11
111.145
 21
101.923
  0
LINE
  8
0
 10
111.145
 20
101.923
 11
110.687
 21
102.353
  0
LINE
  8
0
 10
110.687
 20
102.353
 11
110.179
 21
102.722
  0
LINE
  8
0
 10
110.179
 20
102.722
 11
109.629
 21
103.024
  0
LINE
  8
0
 10
109.629
 20
103.024
 11
109.045
 21
103.255
  0
LINE
  8
0
 10
109.045
 20
103.255
 11
108.437
 21
103.411
  0
LINE
  8
0
 10
108.437
 20
103.411
 11
107.814
 21
103.49
  0
LINE
  8
0
 10
107.814
 20
103.49
 11
-107.814
 21
103.49
  0
LINE
  8
0
 10
-107.814
 20
103.49
 11
-108.437
 21
103.411
  0
LINE
  8
0
 10
-108.437
 20
103.411
 11
-109.045
 21
103.255
  0
LINE
  8
0
 10
-109.045
 20
103.255
 11
-109.629
 21
103.024
  0
LINE
  8
0
 10
-109.629
 20
103.024
 11
-110.179
 21
102.722
  0
LINE
  8
0
 10
-110.179
 20
102.722
 11
-110.687
 21
102.353
  0
LINE
  8
0
 10
-110.687
 20
102.353
 11
-111.145
 21
101.923
  0
LINE
  8
0
 10
-111.145
 20
101.923
 11
-111.545
 21
101.439
  0
LINE
  8
0
 10
-111.545
 20
101.439
 11
-111.882
 21
100.909
  0
LINE
  8
0
 10
-111.882
 20
100.909
 11
-112.149
 21
100.341
  0
LINE
  8
0
 10
-112.149
 20
100.341
 11
-112.343
 21
99.7434
  0
LINE
  8
0
 10
-112.343
 20
99.7434
 11
-112.461
 21
99.1267
  0
LINE
  8
0
 10
-112.461
 20
99.1267
 11
-112.5
 21
98.5
  0
LINE
  8
0
 10
-112.5
 20
98.5
 11
-112.5
 21
93.5
  0
LINE
  8
0
 10
-112.5
 20
93.5
 11
-112.461
 21
92.8733
  0
LINE
  8
0
 10
-112.461
 20
92.8733
 11
-112.343
 21
92.2566
  0
LINE
  8
0
 10
-112.343
 20
92.2566
 11
-112.149
 21
91.6594
  0
LINE
  8
0
 10
-112.149
 20
91.6594
 11
-111.882
 21
91.0912
  0
LINE
  8
0
 10
-111.882
 20
91.0912
 11
-111.545
 21
90.5611
  0
LINE
  8
0
 10
-111.545
 20
90.5611
 11
-111.145
 21
90.0773
  0
LINE
  8
0
 10
-111.145
 20
90.0773
 11
-110.687
 21
89.6474
  0
LINE
  8
0
 10
-110.687
 20
89.6474
 11
-110.179
 21
89.2784
  0
LINE
  8
0
 10
-110.179
 20
89.2784
 11
-109.629
 21
88.9759
  0
LINE
  8
0
 10
-109.629
 20
88.9759
 11
-109.045
 21
88.7447
  0
LINE
  8
0
 10
-109.045
 20
88.7447
 11
-108.437
 21
88.5886
  0
LINE
  8
0
 10
-108.437
 20
88.5886
 11
-107.814
 21
88.5099
  0
LINE
  8
0
 10
-107.814
 20
88.5099
 11
107.814
 21
88.5099
  0
LINE
  8
0
 10
107.814
 20
88.5099
 11
108.437
 21
88.5886
  0
LINE
  8
0
 10
-105.113
 20
94.2036
 11
-105.337
 21
94.2319
  0
LINE
  8
0
 10
-105.337
 20
94.2319
 11
-105.556
 21
94.2881
  0
LINE
  8
0
 10
-105.556
 20
94.2881
 11
-105.766
 21
94.3713
  0
LINE
  8
0
 10
-105.766
 20
94.3713
 11
-105.964
 21
94.4802
  0
LINE
  8
0
 10
-105.964
 20
94.4802
 11
-106.147
 21
94.6131
  0
LINE
  8
0
 10
-106.147
 20
94.6131
 11
-106.312
 21
94.7678
  0
LINE
  8
0
 10
-106.312
 20
94.7678
 11
-106.456
 21
94.942
  0
LINE
  8
0
 10
-106.456
 20
94.942
 11
-106.577
 21
95.1329
  0
LINE
  8
0
 10
-106.577
 20
95.1329
 11
-106.674
 21
95.3374
  0
LINE
  8
0
 10
-106.674
 20
95.3374
 11
-106.743
 21
95.5524
  0
LINE
  8
0
 10
-106.743
 20
95.5524
 11
-106.786
 21
95.7744
  0
LINE
  8
0
 10
-106.786
 20
95.7744
 11
-106.8
 21
96
  0
LINE
  8
0
 10
-106.8
 20
96
 11
-106.786
 21
96.2256
  0
LINE
  8
0
 10
-106.786
 20
96.2256
 11
-106.743
 21
96.4476
  0
LINE
  8
0
 10
-106.743
 20
96.4476
 11
-106.674
 21
96.6626
  0
LINE
  8
0
 10
-106.674
 20
96.6626
 11
-106.577
 21
96.8671
  0
LINE
  8
0
 10
-106.577
 20
96.8671
 11
-106.456
 21
97.058
  0
LINE
  8
0
 10
-106.456
 20
97.058
 11
-106.312
 21
97.2322
  0
LINE
  8
0
 10
-106.312
 20
97.2322
 11
-106.147
 21
97.3869
  0
LINE
  8
0
 10
-106.147
 20
97.3869
 11
-105.964
 21
97.5198
  0
LINE
  8
0
 10
-105.964
 20
97.5198
 11
-105.766
 21
97.6287
  0
LINE
  8
0
 10
-105.766
 20
97.6287
 11
-105.556
 21
97.7119
  0
LINE
  8
0
 10
-105.556
 20
97.7119
 11
-105.337
 21
97.7681
  0
LINE
  8
0
 10
-105.337
 20
97.7681
 11
-105.113
 21
97.7964
  0
LINE
  8
0
 10
-105.113
 20
97.7964
 11
-104.887
 21
97.7964
  0
LINE
  8
0
 10
-104.887
 20
97.7964
 11
-104.663
 21
97.7681
  0
LINE
  8
0
 10
-104.663
 20
97.7681
 11
-104.444
 21
97.7119
  0
LINE
  8
0
 10
-104.444
 20
97.7119
 11
-104.234
 21
97.6287
  0
LINE
  8
0
 10
-104.234
 20
97.6287
 11
-104.036
 21
97.5198
  0
LINE
  8
0
 10
-104.036
 20
97.5198
 11
-103.853
 21
97.3869
  0
LINE
  8
0
 10
-103.853
 20
97.3869
 11
-103.688
 21
97.2322
  0
LINE
  8
0
 10
-103.688
 20
97.2322
 11
-103.544
 21
97.058
  0
LINE
  8
0
 10
-103.544
 20
97.058
 11
-103.423
 21
96.8671
  0
LINE
  8
0
 10
-103.423
 20
96.8671
 11
-103.326
 21
96.6626
  0
LINE
  8
0
 10
-103.326
 20
96.6626
 11
-103.257
 21
96.4476
  0
LINE
  8
0
 10
-103.257
 20
96.4476
 11
-103.214
 21
96.2256
  0
LINE
  8
0
 10
-103.214
 20
96.2256
 11
-103.2
 21
96
  0
LINE
  8
0
 10
-103.2
 20
96
 11
-103.214
 21
95.7744
  0
LINE
  8
0
 10
-103.214
 20
95.7744
 11
-103.257
 21
95.5524
  0
LINE
  8
0
 10
-103.257
 20
95.5524
 11
-103.326
 21
95.3374
  0
LINE
  8
0
 10
-103.326
 20
95.3374
 11
-103.423
 21
95.1329
  0
LINE
  8
0
 10
-103.423
 20
95.1329
 11
-103.544
 21
94.942
  0
LINE
  8
0
 10
-103.544
 20
94.942
 11
-103.688
 21
94.7678
  0
LINE
  8
0
 10
-103.688
 20
94.7678
 11
-103.853
 21
94.6131
  0
LINE
  8
0
 10
-103.853
 20
94.6131
 11
-104.036
 21
94.4802
  0
LINE
  8
0
 10
-104.036
 20
94.4802
 11
-104.234
 21
94.3713
  0
LINE
  8
0
 10
-104.234
 20
94.3713
 11
-104.444
 21
94.2881
  0
LINE
  8
0
 10
-104.444
 20
94.2881
 11
-104.663
 21
94.2319
  0
LINE
  8
0
 10
-104.663
 20
94.2319
 11
-104.887
 21
94.2036
  0
LINE
  8
0
 10
-104.887
 20
94.2036
 11
-105.113
 21
94.2036
  0
LINE
  8
0
 10
104.887
 20
94.2036
 11
104.663
 21
94.2319
  0
LINE
  8
0
 10
104.663
 20
94.2319
 11
104.444
 21
94.2881
  0
LINE
  8
0
 10
104.444
 20
94.2881
 11
104.234
 21
94.3713
  0
LINE
  8
0
 10
104.234
 20
94.3713
 11
104.036
 21
94.4802
  0
LINE
  8
0
 10
104.036
 20
94.4802
 11
103.853
 21
94.6131
  0
LINE
  8
0
 10
103.853
 20
94.6131
 11
103.688
 21
94.7678
  0
LINE
  8
0
 10
103.688
 20
94.7678
 11
103.544
 21
94.942
  0
LINE
  8
0
 10
103.544
 20
94.942
 11
103.423
 21
95.1329
  0
LINE
  8
0
 10
103.423
 20
95.1329
 11
103.326
 21
95.3374
  0
LINE
  8
0
 10
103.326
 20
95.3374
 11
103.257
 21
95.5524
  0
LINE
  8
0
 10
103.257
 20
95.5524
 11
103.214
 21
95.7744
  0
LINE
  8
0
 10
103.214
 20
95.7744
 11
103.2
 21
96
  0
LINE
  8
0
 10
103.2
 20
96
 11
103.214
 21
96.2256
  0
LINE
  8
0
 10
103.214
 20
96.2256
 11
103.257
 21
96.4476
  0
LINE
  8
0
 10
103.257
 20
96.4476
 11
103.326
 21
96.6626
  0
LINE
  8
0
 10
103.326
 20
96.6626
 11
103.423
 21
96.8671
  0
LINE
  8
0
 10
103.423
 20
96.8671
 11
103.544
 21
97.058
  0
LINE
  8
0
 10
103.544
 20
97.058
 11
103.688
 21
97.2322
  0
LINE
  8
0
 10
103.688
 20
97.2322
 11
103.853
 21
97.3869
  0
LINE
  8
0
 10
103.853
 20
97.3869
 11
104.036
 21
97.5198
  0
LINE
  8
0
 10
104.036
 20
97.5198
 11
104.234
 21
97.6287
  0
LINE
  8
0
 10
104.234
 20
97.6287
 11
104.444
 21
97.7119
  0
LINE
  8
0
 10
104.444
 20
97.7119
 11
104.663
 21
97.7681
  0
LINE
  8
0
 10
104.663
 20
97.7681
 11
104.887
 21
97.7964
  0
LINE
  8
0
 10
104.887
 20
97.7964
 11
105.113
 21
97.7964
  0
LINE
  8
0
 10
105.113
 20
97.7964
 11
105.337
 21
97.7681
  0
LINE
  8
0
 10
105.337
 20
97.7681
 11
105.556
 21
97.7119
  0
LINE
  8
0
 10
105.556
 20
97.7119
 11
105.766
 21
97.6287
  0
LINE
  8
0
 10
105.766
 20
97.6287
 11
105.964
 21
97.5198
  0
LINE
  8
0
 10
105.964
 20
97.5198
 11
106.147
 21
97.3869
  0
LINE
  8
0
 10
106.147
 20
97.3869
 11
106.312
 21
97.2322
  0
LINE
  8
0
 10
106.312
 20
97.2322
 11
106.456
 21
97.058
  0
LINE
  8
0
 10
106.456
 20
97.058
 11
106.577
 21
96.8671
  0
LINE
  8
0
 10
106.577
 20
96.8671
 11
106.674
 21
96.6626
  0
LINE
  8
0
 10
106.674
 20
96.6626
 11
106.743
 21
96.4476
  0
LINE
  8
0
 10
106.743
 20
96.4476
 11
106.786
 21
96.2256
  0
LINE
  8
0
 10
106.786
 20
96.2256
 11
106.8
 21
96
  0
LINE
  8
0
 10
106.8
 20
96
 11
106.786
 21
95.7744
  0
LINE
  8
0
 10
106.786
 20
95.7744
 11
106.743
 21
95.5524
  0
LINE
  8
0
 10
106.743
 20
95.5524
 11
106.674
 21
95.3374
  0
LINE
  8
0
 10
106.674
 20
95.3374
 11
106.577
 21
95.1329
  0
LINE
  8
0
 10
106.577
 20
95.1329
 11
106.456
 21
94.942
  0
LINE
  8
0
 10
106.456
 20
94.942
 11
106.312
 21
94.7678
  0
LINE
  8
0
 10
106.312
 20
94.7678
 11
106.147
 21
94.6131
  0
LINE
  8
0
 10
106.147
 20
94.6131
 11
105.964
 21
94.4802
  0
LINE
  8
0
 10
105.964
 20
94.4802
 11
105.766
 21
94.3713
  0
LINE
  8
0
 10
105.766
 20
94.3713
 11
105.556
 21
94.2881
  0
LINE
  8
0
 10
105.556
 20
94.2881
 11
105.337
 21
94.2319
  0
LINE
  8
0
 10
105.337
 20
94.2319
 11
105.113
 21
94.2036
  0
LINE
  8
0
 10
105.113
 20
94.2036
 11
104.887
 21
94.2036
  0
ENDSEC
  0
SECTION
  2
OBJECTS
  0
DICTIONARY
  0
ENDSEC
  0
EOF
