  0
SECTION
  2
BLOCKS
  0
ENDSEC
  0
SECTION
  2
ENTITIES
  0
LINE
  8
0
 10
10.9369
 20
1422.09
 11
11.5451
 21
1422.24
  0
LINE
  8
0
 10
11.5451
 20
1422.24
 11
12.1289
 21
1422.48
  0
LINE
  8
0
 10
12.1289
 20
1422.48
 11
12.6791
 21
1422.78
  0
LINE
  8
0
 10
12.6791
 20
1422.78
 11
13.1871
 21
1423.15
  0
LINE
  8
0
 10
13.1871
 20
1423.15
 11
13.6448
 21
1423.58
  0
LINE
  8
0
 10
13.6448
 20
1423.58
 11
14.0451
 21
1424.06
  0
LINE
  8
0
 10
14.0451
 20
1424.06
 11
14.3815
 21
1424.59
  0
LINE
  8
0
 10
14.3815
 20
1424.59
 11
14.6489
 21
1425.16
  0
LINE
  8
0
 10
14.6489
 20
1425.16
 11
14.8429
 21
1425.76
  0
LINE
  8
0
 10
14.8429
 20
1425.76
 11
14.9606
 21
1426.37
  0
LINE
  8
0
 10
14.9606
 20
1426.37
 11
15
 21
1427
  0
LINE
  8
0
 10
15
 20
1427
 11
15
 21
1597
  0
LINE
  8
0
 10
15
 20
1597
 11
14.9606
 21
1597.63
  0
LINE
  8
0
 10
14.9606
 20
1597.63
 11
14.8429
 21
1598.24
  0
LINE
  8
0
 10
14.8429
 20
1598.24
 11
14.6489
 21
1598.84
  0
LINE
  8
0
 10
14.6489
 20
1598.84
 11
14.3815
 21
1599.41
  0
LINE
  8
0
 10
14.3815
 20
1599.41
 11
14.0451
 21
1599.94
  0
LINE
  8
0
 10
14.0451
 20
1599.94
 11
13.6448
 21
1600.42
  0
LINE
  8
0
 10
13.6448
 20
1600.42
 11
13.1871
 21
1600.85
  0
LINE
  8
0
 10
13.1871
 20
1600.85
 11
12.6791
 21
1601.22
  0
LINE
  8
0
 10
12.6791
 20
1601.22
 11
12.1289
 21
1601.52
  0
LINE
  8
0
 10
12.1289
 20
1601.52
 11
11.5451
 21
1601.76
  0
LINE
  8
0
 10
11.5451
 20
1601.76
 11
10.9369
 21
1601.91
  0
LINE
  8
0
 10
10.9369
 20
1601.91
 11
10.3139
 21
1601.99
  0
LINE
  8
0
 10
10.3139
 20
1601.99
 11
-10.3139
 21
1601.99
  0
LINE
  8
0
 10
-10.3139
 20
1601.99
 11
-10.9369
 21
1601.91
  0
LINE
  8
0
 10
-10.9369
 20
1601.91
 11
-11.5451
 21
1601.76
  0
LINE
  8
0
 10
-11.5451
 20
1601.76
 11
-12.1289
 21
1601.52
  0
LINE
  8
0
 10
-12.1289
 20
1601.52
 11
-12.6791
 21
1601.22
  0
LINE
  8
0
 10
-12.6791
 20
1601.22
 11
-13.1871
 21
1600.85
  0
LINE
  8
0
 10
-13.1871
 20
1600.85
 11
-13.6448
 21
1600.42
  0
LINE
  8
0
 10
-13.6448
 20
1600.42
 11
-14.0451
 21
1599.94
  0
LINE
  8
0
 10
-14.0451
 20
1599.94
 11
-14.3815
 21
1599.41
  0
LINE
  8
0
 10
-14.3815
 20
1599.41
 11
-14.6489
 21
1598.84
  0
LINE
  8
0
 10
-14.6489
 20
1598.84
 11
-14.8429
 21
1598.24
  0
LINE
  8
0
 10
-14.8429
 20
1598.24
 11
-14.9606
 21
1597.63
  0
LINE
  8
0
 10
-14.9606
 20
1597.63
 11
-15
 21
1597
  0
LINE
  8
0
 10
-15
 20
1597
 11
-15
 21
1427
  0
LINE
  8
0
 10
-15
 20
1427
 11
-14.9606
 21
1426.37
  0
LINE
  8
0
 10
-14.9606
 20
1426.37
 11
-14.8429
 21
1425.76
  0
LINE
  8
0
 10
-14.8429
 20
1425.76
 11
-14.6489
 21
1425.16
  0
LINE
  8
0
 10
-14.6489
 20
1425.16
 11
-14.3815
 21
1424.59
  0
LINE
  8
0
 10
-14.3815
 20
1424.59
 11
-14.0451
 21
1424.06
  0
LINE
  8
0
 10
-14.0451
 20
1424.06
 11
-13.6448
 21
1423.58
  0
LINE
  8
0
 10
-13.6448
 20
1423.58
 11
-13.1871
 21
1423.15
  0
LINE
  8
0
 10
-13.1871
 20
1423.15
 11
-12.6791
 21
1422.78
  0
LINE
  8
0
 10
-12.6791
 20
1422.78
 11
-12.1289
 21
1422.48
  0
LINE
  8
0
 10
-12.1289
 20
1422.48
 11
-11.5451
 21
1422.24
  0
LINE
  8
0
 10
-11.5451
 20
1422.24
 11
-10.9369
 21
1422.09
  0
LINE
  8
0
 10
-10.9369
 20
1422.09
 11
-10.3139
 21
1422.01
  0
LINE
  8
0
 10
-10.3139
 20
1422.01
 11
10.3139
 21
1422.01
  0
LINE
  8
0
 10
10.3139
 20
1422.01
 11
10.9369
 21
1422.09
  0
LINE
  8
0
 10
-9.75116
 20
1423.51
 11
-10.2495
 21
1423.57
  0
LINE
  8
0
 10
-10.2495
 20
1423.57
 11
-10.7361
 21
1423.7
  0
LINE
  8
0
 10
-10.7361
 20
1423.7
 11
-11.2031
 21
1423.88
  0
LINE
  8
0
 10
-11.2031
 20
1423.88
 11
-11.6433
 21
1424.12
  0
LINE
  8
0
 10
-11.6433
 20
1424.12
 11
-12.0497
 21
1424.42
  0
LINE
  8
0
 10
-12.0497
 20
1424.42
 11
-12.4159
 21
1424.76
  0
LINE
  8
0
 10
-12.4159
 20
1424.76
 11
-12.7361
 21
1425.15
  0
LINE
  8
0
 10
-12.7361
 20
1425.15
 11
-13.0052
 21
1425.57
  0
LINE
  8
0
 10
-13.0052
 20
1425.57
 11
-13.2191
 21
1426.03
  0
LINE
  8
0
 10
-13.2191
 20
1426.03
 11
-13.3743
 21
1426.51
  0
LINE
  8
0
 10
-13.3743
 20
1426.51
 11
-13.4684
 21
1427
  0
LINE
  8
0
 10
-13.4684
 20
1427
 11
-13.5
 21
1427.5
  0
LINE
  8
0
 10
-13.5
 20
1427.5
 11
-13.5
 21
1596.5
  0
LINE
  8
0
 10
-13.5
 20
1596.5
 11
-13.4684
 21
1597
  0
LINE
  8
0
 10
-13.4684
 20
1597
 11
-13.3743
 21
1597.49
  0
LINE
  8
0
 10
-13.3743
 20
1597.49
 11
-13.2191
 21
1597.97
  0
LINE
  8
0
 10
-13.2191
 20
1597.97
 11
-13.0052
 21
1598.43
  0
LINE
  8
0
 10
-13.0052
 20
1598.43
 11
-12.7361
 21
1598.85
  0
LINE
  8
0
 10
-12.7361
 20
1598.85
 11
-12.4159
 21
1599.24
  0
LINE
  8
0
 10
-12.4159
 20
1599.24
 11
-12.0497
 21
1599.58
  0
LINE
  8
0
 10
-12.0497
 20
1599.58
 11
-11.6433
 21
1599.88
  0
LINE
  8
0
 10
-11.6433
 20
1599.88
 11
-11.2031
 21
1600.12
  0
LINE
  8
0
 10
-11.2031
 20
1600.12
 11
-10.7361
 21
1600.3
  0
LINE
  8
0
 10
-10.7361
 20
1600.3
 11
-10.2495
 21
1600.43
  0
LINE
  8
0
 10
-10.2495
 20
1600.43
 11
-9.75116
 21
1600.49
  0
LINE
  8
0
 10
-9.75116
 20
1600.49
 11
9.75116
 21
1600.49
  0
LINE
  8
0
 10
9.75116
 20
1600.49
 11
10.2495
 21
1600.43
  0
LINE
  8
0
 10
10.2495
 20
1600.43
 11
10.7361
 21
1600.3
  0
LINE
  8
0
 10
10.7361
 20
1600.3
 11
11.2031
 21
1600.12
  0
LINE
  8
0
 10
11.2031
 20
1600.12
 11
11.6433
 21
1599.88
  0
LINE
  8
0
 10
11.6433
 20
1599.88
 11
12.0497
 21
1599.58
  0
LINE
  8
0
 10
12.0497
 20
1599.58
 11
12.4159
 21
1599.24
  0
LINE
  8
0
 10
12.4159
 20
1599.24
 11
12.7361
 21
1598.85
  0
LINE
  8
0
 10
12.7361
 20
1598.85
 11
13.0052
 21
1598.43
  0
LINE
  8
0
 10
13.0052
 20
1598.43
 11
13.2191
 21
1597.97
  0
LINE
  8
0
 10
13.2191
 20
1597.97
 11
13.3743
 21
1597.49
  0
LINE
  8
0
 10
13.3743
 20
1597.49
 11
13.4684
 21
1597
  0
LINE
  8
0
 10
13.4684
 20
1597
 11
13.5
 21
1596.5
  0
LINE
  8
0
 10
13.5
 20
1596.5
 11
13.5
 21
1427.5
  0
LINE
  8
0
 10
13.5
 20
1427.5
 11
13.4684
 21
1427
  0
LINE
  8
0
 10
13.4684
 20
1427
 11
13.3743
 21
1426.51
  0
LINE
  8
0
 10
13.3743
 20
1426.51
 11
13.2191
 21
1426.03
  0
LINE
  8
0
 10
13.2191
 20
1426.03
 11
13.0052
 21
1425.57
  0
LINE
  8
0
 10
13.0052
 20
1425.57
 11
12.7361
 21
1425.15
  0
LINE
  8
0
 10
12.7361
 20
1425.15
 11
12.4159
 21
1424.76
  0
LINE
  8
0
 10
12.4159
 20
1424.76
 11
12.0497
 21
1424.42
  0
LINE
  8
0
 10
12.0497
 20
1424.42
 11
11.6433
 21
1424.12
  0
LINE
  8
0
 10
11.6433
 20
1424.12
 11
11.2031
 21
1423.88
  0
LINE
  8
0
 10
11.2031
 20
1423.88
 11
10.7361
 21
1423.7
  0
LINE
  8
0
 10
10.7361
 20
1423.7
 11
10.2495
 21
1423.57
  0
LINE
  8
0
 10
10.2495
 20
1423.57
 11
9.75116
 21
1423.51
  0
LINE
  8
0
 10
9.75116
 20
1423.51
 11
-9.75116
 21
1423.51
  0
LINE
  8
0
 10
10.9369
 20
1233.09
 11
11.5451
 21
1233.24
  0
LINE
  8
0
 10
11.5451
 20
1233.24
 11
12.1289
 21
1233.48
  0
LINE
  8
0
 10
12.1289
 20
1233.48
 11
12.6791
 21
1233.78
  0
LINE
  8
0
 10
12.6791
 20
1233.78
 11
13.1871
 21
1234.15
  0
LINE
  8
0
 10
13.1871
 20
1234.15
 11
13.6448
 21
1234.58
  0
LINE
  8
0
 10
13.6448
 20
1234.58
 11
14.0451
 21
1235.06
  0
LINE
  8
0
 10
14.0451
 20
1235.06
 11
14.3815
 21
1235.59
  0
LINE
  8
0
 10
14.3815
 20
1235.59
 11
14.6489
 21
1236.16
  0
LINE
  8
0
 10
14.6489
 20
1236.16
 11
14.8429
 21
1236.76
  0
LINE
  8
0
 10
14.8429
 20
1236.76
 11
14.9606
 21
1237.37
  0
LINE
  8
0
 10
14.9606
 20
1237.37
 11
15
 21
1238
  0
LINE
  8
0
 10
15
 20
1238
 11
15
 21
1408
  0
LINE
  8
0
 10
15
 20
1408
 11
14.9606
 21
1408.63
  0
LINE
  8
0
 10
14.9606
 20
1408.63
 11
14.8429
 21
1409.24
  0
LINE
  8
0
 10
14.8429
 20
1409.24
 11
14.6489
 21
1409.84
  0
LINE
  8
0
 10
14.6489
 20
1409.84
 11
14.3815
 21
1410.41
  0
LINE
  8
0
 10
14.3815
 20
1410.41
 11
14.0451
 21
1410.94
  0
LINE
  8
0
 10
14.0451
 20
1410.94
 11
13.6448
 21
1411.42
  0
LINE
  8
0
 10
13.6448
 20
1411.42
 11
13.1871
 21
1411.85
  0
LINE
  8
0
 10
13.1871
 20
1411.85
 11
12.6791
 21
1412.22
  0
LINE
  8
0
 10
12.6791
 20
1412.22
 11
12.1289
 21
1412.52
  0
LINE
  8
0
 10
12.1289
 20
1412.52
 11
11.5451
 21
1412.76
  0
LINE
  8
0
 10
11.5451
 20
1412.76
 11
10.9369
 21
1412.91
  0
LINE
  8
0
 10
10.9369
 20
1412.91
 11
10.3139
 21
1412.99
  0
LINE
  8
0
 10
10.3139
 20
1412.99
 11
-10.3139
 21
1412.99
  0
LINE
  8
0
 10
-10.3139
 20
1412.99
 11
-10.9369
 21
1412.91
  0
LINE
  8
0
 10
-10.9369
 20
1412.91
 11
-11.5451
 21
1412.76
  0
LINE
  8
0
 10
-11.5451
 20
1412.76
 11
-12.1289
 21
1412.52
  0
LINE
  8
0
 10
-12.1289
 20
1412.52
 11
-12.6791
 21
1412.22
  0
LINE
  8
0
 10
-12.6791
 20
1412.22
 11
-13.1871
 21
1411.85
  0
LINE
  8
0
 10
-13.1871
 20
1411.85
 11
-13.6448
 21
1411.42
  0
LINE
  8
0
 10
-13.6448
 20
1411.42
 11
-14.0451
 21
1410.94
  0
LINE
  8
0
 10
-14.0451
 20
1410.94
 11
-14.3815
 21
1410.41
  0
LINE
  8
0
 10
-14.3815
 20
1410.41
 11
-14.6489
 21
1409.84
  0
LINE
  8
0
 10
-14.6489
 20
1409.84
 11
-14.8429
 21
1409.24
  0
LINE
  8
0
 10
-14.8429
 20
1409.24
 11
-14.9606
 21
1408.63
  0
LINE
  8
0
 10
-14.9606
 20
1408.63
 11
-15
 21
1408
  0
LINE
  8
0
 10
-15
 20
1408
 11
-15
 21
1238
  0
LINE
  8
0
 10
-15
 20
1238
 11
-14.9606
 21
1237.37
  0
LINE
  8
0
 10
-14.9606
 20
1237.37
 11
-14.8429
 21
1236.76
  0
LINE
  8
0
 10
-14.8429
 20
1236.76
 11
-14.6489
 21
1236.16
  0
LINE
  8
0
 10
-14.6489
 20
1236.16
 11
-14.3815
 21
1235.59
  0
LINE
  8
0
 10
-14.3815
 20
1235.59
 11
-14.0451
 21
1235.06
  0
LINE
  8
0
 10
-14.0451
 20
1235.06
 11
-13.6448
 21
1234.58
  0
LINE
  8
0
 10
-13.6448
 20
1234.58
 11
-13.1871
 21
1234.15
  0
LINE
  8
0
 10
-13.1871
 20
1234.15
 11
-12.6791
 21
1233.78
  0
LINE
  8
0
 10
-12.6791
 20
1233.78
 11
-12.1289
 21
1233.48
  0
LINE
  8
0
 10
-12.1289
 20
1233.48
 11
-11.5451
 21
1233.24
  0
LINE
  8
0
 10
-11.5451
 20
1233.24
 11
-10.9369
 21
1233.09
  0
LINE
  8
0
 10
-10.9369
 20
1233.09
 11
-10.3139
 21
1233.01
  0
LINE
  8
0
 10
-10.3139
 20
1233.01
 11
10.3139
 21
1233.01
  0
LINE
  8
0
 10
10.3139
 20
1233.01
 11
10.9369
 21
1233.09
  0
LINE
  8
0
 10
-9.75116
 20
1234.51
 11
-10.2495
 21
1234.57
  0
LINE
  8
0
 10
-10.2495
 20
1234.57
 11
-10.7361
 21
1234.7
  0
LINE
  8
0
 10
-10.7361
 20
1234.7
 11
-11.2031
 21
1234.88
  0
LINE
  8
0
 10
-11.2031
 20
1234.88
 11
-11.6433
 21
1235.12
  0
LINE
  8
0
 10
-11.6433
 20
1235.12
 11
-12.0497
 21
1235.42
  0
LINE
  8
0
 10
-12.0497
 20
1235.42
 11
-12.4159
 21
1235.76
  0
LINE
  8
0
 10
-12.4159
 20
1235.76
 11
-12.7361
 21
1236.15
  0
LINE
  8
0
 10
-12.7361
 20
1236.15
 11
-13.0052
 21
1236.57
  0
LINE
  8
0
 10
-13.0052
 20
1236.57
 11
-13.2191
 21
1237.03
  0
LINE
  8
0
 10
-13.2191
 20
1237.03
 11
-13.3743
 21
1237.51
  0
LINE
  8
0
 10
-13.3743
 20
1237.51
 11
-13.4684
 21
1238
  0
LINE
  8
0
 10
-13.4684
 20
1238
 11
-13.5
 21
1238.5
  0
LINE
  8
0
 10
-13.5
 20
1238.5
 11
-13.5
 21
1407.5
  0
LINE
  8
0
 10
-13.5
 20
1407.5
 11
-13.4684
 21
1408
  0
LINE
  8
0
 10
-13.4684
 20
1408
 11
-13.3743
 21
1408.49
  0
LINE
  8
0
 10
-13.3743
 20
1408.49
 11
-13.2191
 21
1408.97
  0
LINE
  8
0
 10
-13.2191
 20
1408.97
 11
-13.0052
 21
1409.43
  0
LINE
  8
0
 10
-13.0052
 20
1409.43
 11
-12.7361
 21
1409.85
  0
LINE
  8
0
 10
-12.7361
 20
1409.85
 11
-12.4159
 21
1410.24
  0
LINE
  8
0
 10
-12.4159
 20
1410.24
 11
-12.0497
 21
1410.58
  0
LINE
  8
0
 10
-12.0497
 20
1410.58
 11
-11.6433
 21
1410.88
  0
LINE
  8
0
 10
-11.6433
 20
1410.88
 11
-11.2031
 21
1411.12
  0
LINE
  8
0
 10
-11.2031
 20
1411.12
 11
-10.7361
 21
1411.3
  0
LINE
  8
0
 10
-10.7361
 20
1411.3
 11
-10.2495
 21
1411.43
  0
LINE
  8
0
 10
-10.2495
 20
1411.43
 11
-9.75116
 21
1411.49
  0
LINE
  8
0
 10
-9.75116
 20
1411.49
 11
9.75116
 21
1411.49
  0
LINE
  8
0
 10
9.75116
 20
1411.49
 11
10.2495
 21
1411.43
  0
LINE
  8
0
 10
10.2495
 20
1411.43
 11
10.7361
 21
1411.3
  0
LINE
  8
0
 10
10.7361
 20
1411.3
 11
11.2031
 21
1411.12
  0
LINE
  8
0
 10
11.2031
 20
1411.12
 11
11.6433
 21
1410.88
  0
LINE
  8
0
 10
11.6433
 20
1410.88
 11
12.0497
 21
1410.58
  0
LINE
  8
0
 10
12.0497
 20
1410.58
 11
12.4159
 21
1410.24
  0
LINE
  8
0
 10
12.4159
 20
1410.24
 11
12.7361
 21
1409.85
  0
LINE
  8
0
 10
12.7361
 20
1409.85
 11
13.0052
 21
1409.43
  0
LINE
  8
0
 10
13.0052
 20
1409.43
 11
13.2191
 21
1408.97
  0
LINE
  8
0
 10
13.2191
 20
1408.97
 11
13.3743
 21
1408.49
  0
LINE
  8
0
 10
13.3743
 20
1408.49
 11
13.4684
 21
1408
  0
LINE
  8
0
 10
13.4684
 20
1408
 11
13.5
 21
1407.5
  0
LINE
  8
0
 10
13.5
 20
1407.5
 11
13.5
 21
1238.5
  0
LINE
  8
0
 10
13.5
 20
1238.5
 11
13.4684
 21
1238
  0
LINE
  8
0
 10
13.4684
 20
1238
 11
13.3743
 21
1237.51
  0
LINE
  8
0
 10
13.3743
 20
1237.51
 11
13.2191
 21
1237.03
  0
LINE
  8
0
 10
13.2191
 20
1237.03
 11
13.0052
 21
1236.57
  0
LINE
  8
0
 10
13.0052
 20
1236.57
 11
12.7361
 21
1236.15
  0
LINE
  8
0
 10
12.7361
 20
1236.15
 11
12.4159
 21
1235.76
  0
LINE
  8
0
 10
12.4159
 20
1235.76
 11
12.0497
 21
1235.42
  0
LINE
  8
0
 10
12.0497
 20
1235.42
 11
11.6433
 21
1235.12
  0
LINE
  8
0
 10
11.6433
 20
1235.12
 11
11.2031
 21
1234.88
  0
LINE
  8
0
 10
11.2031
 20
1234.88
 11
10.7361
 21
1234.7
  0
LINE
  8
0
 10
10.7361
 20
1234.7
 11
10.2495
 21
1234.57
  0
LINE
  8
0
 10
10.2495
 20
1234.57
 11
9.75116
 21
1234.51
  0
LINE
  8
0
 10
9.75116
 20
1234.51
 11
-9.75116
 21
1234.51
  0
LINE
  8
0
 10
10.9369
 20
1044.09
 11
11.5451
 21
1044.24
  0
LINE
  8
0
 10
11.5451
 20
1044.24
 11
12.1289
 21
1044.48
  0
LINE
  8
0
 10
12.1289
 20
1044.48
 11
12.6791
 21
1044.78
  0
LINE
  8
0
 10
12.6791
 20
1044.78
 11
13.1871
 21
1045.15
  0
LINE
  8
0
 10
13.1871
 20
1045.15
 11
13.6448
 21
1045.58
  0
LINE
  8
0
 10
13.6448
 20
1045.58
 11
14.0451
 21
1046.06
  0
LINE
  8
0
 10
14.0451
 20
1046.06
 11
14.3815
 21
1046.59
  0
LINE
  8
0
 10
14.3815
 20
1046.59
 11
14.6489
 21
1047.16
  0
LINE
  8
0
 10
14.6489
 20
1047.16
 11
14.8429
 21
1047.76
  0
LINE
  8
0
 10
14.8429
 20
1047.76
 11
14.9606
 21
1048.37
  0
LINE
  8
0
 10
14.9606
 20
1048.37
 11
15
 21
1049
  0
LINE
  8
0
 10
15
 20
1049
 11
15
 21
1219
  0
LINE
  8
0
 10
15
 20
1219
 11
14.9606
 21
1219.63
  0
LINE
  8
0
 10
14.9606
 20
1219.63
 11
14.8429
 21
1220.24
  0
LINE
  8
0
 10
14.8429
 20
1220.24
 11
14.6489
 21
1220.84
  0
LINE
  8
0
 10
14.6489
 20
1220.84
 11
14.3815
 21
1221.41
  0
LINE
  8
0
 10
14.3815
 20
1221.41
 11
14.0451
 21
1221.94
  0
LINE
  8
0
 10
14.0451
 20
1221.94
 11
13.6448
 21
1222.42
  0
LINE
  8
0
 10
13.6448
 20
1222.42
 11
13.1871
 21
1222.85
  0
LINE
  8
0
 10
13.1871
 20
1222.85
 11
12.6791
 21
1223.22
  0
LINE
  8
0
 10
12.6791
 20
1223.22
 11
12.1289
 21
1223.52
  0
LINE
  8
0
 10
12.1289
 20
1223.52
 11
11.5451
 21
1223.76
  0
LINE
  8
0
 10
11.5451
 20
1223.76
 11
10.9369
 21
1223.91
  0
LINE
  8
0
 10
10.9369
 20
1223.91
 11
10.3139
 21
1223.99
  0
LINE
  8
0
 10
10.3139
 20
1223.99
 11
-10.3139
 21
1223.99
  0
LINE
  8
0
 10
-10.3139
 20
1223.99
 11
-10.9369
 21
1223.91
  0
LINE
  8
0
 10
-10.9369
 20
1223.91
 11
-11.5451
 21
1223.76
  0
LINE
  8
0
 10
-11.5451
 20
1223.76
 11
-12.1289
 21
1223.52
  0
LINE
  8
0
 10
-12.1289
 20
1223.52
 11
-12.6791
 21
1223.22
  0
LINE
  8
0
 10
-12.6791
 20
1223.22
 11
-13.1871
 21
1222.85
  0
LINE
  8
0
 10
-13.1871
 20
1222.85
 11
-13.6448
 21
1222.42
  0
LINE
  8
0
 10
-13.6448
 20
1222.42
 11
-14.0451
 21
1221.94
  0
LINE
  8
0
 10
-14.0451
 20
1221.94
 11
-14.3815
 21
1221.41
  0
LINE
  8
0
 10
-14.3815
 20
1221.41
 11
-14.6489
 21
1220.84
  0
LINE
  8
0
 10
-14.6489
 20
1220.84
 11
-14.8429
 21
1220.24
  0
LINE
  8
0
 10
-14.8429
 20
1220.24
 11
-14.9606
 21
1219.63
  0
LINE
  8
0
 10
-14.9606
 20
1219.63
 11
-15
 21
1219
  0
LINE
  8
0
 10
-15
 20
1219
 11
-15
 21
1049
  0
LINE
  8
0
 10
-15
 20
1049
 11
-14.9606
 21
1048.37
  0
LINE
  8
0
 10
-14.9606
 20
1048.37
 11
-14.8429
 21
1047.76
  0
LINE
  8
0
 10
-14.8429
 20
1047.76
 11
-14.6489
 21
1047.16
  0
LINE
  8
0
 10
-14.6489
 20
1047.16
 11
-14.3815
 21
1046.59
  0
LINE
  8
0
 10
-14.3815
 20
1046.59
 11
-14.0451
 21
1046.06
  0
LINE
  8
0
 10
-14.0451
 20
1046.06
 11
-13.6448
 21
1045.58
  0
LINE
  8
0
 10
-13.6448
 20
1045.58
 11
-13.1871
 21
1045.15
  0
LINE
  8
0
 10
-13.1871
 20
1045.15
 11
-12.6791
 21
1044.78
  0
LINE
  8
0
 10
-12.6791
 20
1044.78
 11
-12.1289
 21
1044.48
  0
LINE
  8
0
 10
-12.1289
 20
1044.48
 11
-11.5451
 21
1044.24
  0
LINE
  8
0
 10
-11.5451
 20
1044.24
 11
-10.9369
 21
1044.09
  0
LINE
  8
0
 10
-10.9369
 20
1044.09
 11
-10.3139
 21
1044.01
  0
LINE
  8
0
 10
-10.3139
 20
1044.01
 11
10.3139
 21
1044.01
  0
LINE
  8
0
 10
10.3139
 20
1044.01
 11
10.9369
 21
1044.09
  0
LINE
  8
0
 10
-9.74316
 20
1045.64
 11
-10.2256
 21
1045.7
  0
LINE
  8
0
 10
-10.2256
 20
1045.7
 11
-10.6967
 21
1045.82
  0
LINE
  8
0
 10
-10.6967
 20
1045.82
 11
-11.1489
 21
1046
  0
LINE
  8
0
 10
-11.1489
 20
1046
 11
-11.5751
 21
1046.23
  0
LINE
  8
0
 10
-11.5751
 20
1046.23
 11
-11.9685
 21
1046.52
  0
LINE
  8
0
 10
-11.9685
 20
1046.52
 11
-12.323
 21
1046.85
  0
LINE
  8
0
 10
-12.323
 20
1046.85
 11
-12.633
 21
1047.22
  0
LINE
  8
0
 10
-12.633
 20
1047.22
 11
-12.8936
 21
1047.63
  0
LINE
  8
0
 10
-12.8936
 20
1047.63
 11
-13.1007
 21
1048.07
  0
LINE
  8
0
 10
-13.1007
 20
1048.07
 11
-13.251
 21
1048.54
  0
LINE
  8
0
 10
-13.251
 20
1048.54
 11
-13.3421
 21
1049.01
  0
LINE
  8
0
 10
-13.3421
 20
1049.01
 11
-13.3726
 21
1049.5
  0
LINE
  8
0
 10
-13.3726
 20
1049.5
 11
-13.3726
 21
1218.5
  0
LINE
  8
0
 10
-13.3726
 20
1218.5
 11
-13.3421
 21
1218.99
  0
LINE
  8
0
 10
-13.3421
 20
1218.99
 11
-13.251
 21
1219.46
  0
LINE
  8
0
 10
-13.251
 20
1219.46
 11
-13.1007
 21
1219.93
  0
LINE
  8
0
 10
-13.1007
 20
1219.93
 11
-12.8936
 21
1220.37
  0
LINE
  8
0
 10
-12.8936
 20
1220.37
 11
-12.633
 21
1220.78
  0
LINE
  8
0
 10
-12.633
 20
1220.78
 11
-12.323
 21
1221.15
  0
LINE
  8
0
 10
-12.323
 20
1221.15
 11
-11.9685
 21
1221.48
  0
LINE
  8
0
 10
-11.9685
 20
1221.48
 11
-11.5751
 21
1221.77
  0
LINE
  8
0
 10
-11.5751
 20
1221.77
 11
-11.1489
 21
1222
  0
LINE
  8
0
 10
-11.1489
 20
1222
 11
-10.6967
 21
1222.18
  0
LINE
  8
0
 10
-10.6967
 20
1222.18
 11
-10.2256
 21
1222.3
  0
LINE
  8
0
 10
-10.2256
 20
1222.3
 11
-9.74316
 21
1222.36
  0
LINE
  8
0
 10
-9.74316
 20
1222.36
 11
9.74316
 21
1222.36
  0
LINE
  8
0
 10
9.74316
 20
1222.36
 11
10.2256
 21
1222.3
  0
LINE
  8
0
 10
10.2256
 20
1222.3
 11
10.6967
 21
1222.18
  0
LINE
  8
0
 10
10.6967
 20
1222.18
 11
11.1489
 21
1222
  0
LINE
  8
0
 10
11.1489
 20
1222
 11
11.5751
 21
1221.77
  0
LINE
  8
0
 10
11.5751
 20
1221.77
 11
11.9685
 21
1221.48
  0
LINE
  8
0
 10
11.9685
 20
1221.48
 11
12.323
 21
1221.15
  0
LINE
  8
0
 10
12.323
 20
1221.15
 11
12.633
 21
1220.78
  0
LINE
  8
0
 10
12.633
 20
1220.78
 11
12.8936
 21
1220.37
  0
LINE
  8
0
 10
12.8936
 20
1220.37
 11
13.1007
 21
1219.93
  0
LINE
  8
0
 10
13.1007
 20
1219.93
 11
13.251
 21
1219.46
  0
LINE
  8
0
 10
13.251
 20
1219.46
 11
13.3421
 21
1218.99
  0
LINE
  8
0
 10
13.3421
 20
1218.99
 11
13.3726
 21
1218.5
  0
LINE
  8
0
 10
13.3726
 20
1218.5
 11
13.3726
 21
1049.5
  0
LINE
  8
0
 10
13.3726
 20
1049.5
 11
13.3421
 21
1049.01
  0
LINE
  8
0
 10
13.3421
 20
1049.01
 11
13.251
 21
1048.54
  0
LINE
  8
0
 10
13.251
 20
1048.54
 11
13.1007
 21
1048.07
  0
LINE
  8
0
 10
13.1007
 20
1048.07
 11
12.8936
 21
1047.63
  0
LINE
  8
0
 10
12.8936
 20
1047.63
 11
12.633
 21
1047.22
  0
LINE
  8
0
 10
12.633
 20
1047.22
 11
12.323
 21
1046.85
  0
LINE
  8
0
 10
12.323
 20
1046.85
 11
11.9685
 21
1046.52
  0
LINE
  8
0
 10
11.9685
 20
1046.52
 11
11.5751
 21
1046.23
  0
LINE
  8
0
 10
11.5751
 20
1046.23
 11
11.1489
 21
1046
  0
LINE
  8
0
 10
11.1489
 20
1046
 11
10.6967
 21
1045.82
  0
LINE
  8
0
 10
10.6967
 20
1045.82
 11
10.2256
 21
1045.7
  0
LINE
  8
0
 10
10.2256
 20
1045.7
 11
9.74316
 21
1045.64
  0
LINE
  8
0
 10
9.74316
 20
1045.64
 11
-9.74316
 21
1045.64
  0
LINE
  8
0
 10
10.9369
 20
855.089
 11
11.5451
 21
855.245
  0
LINE
  8
0
 10
11.5451
 20
855.245
 11
12.1289
 21
855.476
  0
LINE
  8
0
 10
12.1289
 20
855.476
 11
12.6791
 21
855.778
  0
LINE
  8
0
 10
12.6791
 20
855.778
 11
13.1871
 21
856.147
  0
LINE
  8
0
 10
13.1871
 20
856.147
 11
13.6448
 21
856.577
  0
LINE
  8
0
 10
13.6448
 20
856.577
 11
14.0451
 21
857.061
  0
LINE
  8
0
 10
14.0451
 20
857.061
 11
14.3815
 21
857.591
  0
LINE
  8
0
 10
14.3815
 20
857.591
 11
14.6489
 21
858.159
  0
LINE
  8
0
 10
14.6489
 20
858.159
 11
14.8429
 21
858.757
  0
LINE
  8
0
 10
14.8429
 20
858.757
 11
14.9606
 21
859.373
  0
LINE
  8
0
 10
14.9606
 20
859.373
 11
15
 21
860
  0
LINE
  8
0
 10
15
 20
860
 11
15
 21
1030
  0
LINE
  8
0
 10
15
 20
1030
 11
14.9606
 21
1030.63
  0
LINE
  8
0
 10
14.9606
 20
1030.63
 11
14.8429
 21
1031.24
  0
LINE
  8
0
 10
14.8429
 20
1031.24
 11
14.6489
 21
1031.84
  0
LINE
  8
0
 10
14.6489
 20
1031.84
 11
14.3815
 21
1032.41
  0
LINE
  8
0
 10
14.3815
 20
1032.41
 11
14.0451
 21
1032.94
  0
LINE
  8
0
 10
14.0451
 20
1032.94
 11
13.6448
 21
1033.42
  0
LINE
  8
0
 10
13.6448
 20
1033.42
 11
13.1871
 21
1033.85
  0
LINE
  8
0
 10
13.1871
 20
1033.85
 11
12.6791
 21
1034.22
  0
LINE
  8
0
 10
12.6791
 20
1034.22
 11
12.1289
 21
1034.52
  0
LINE
  8
0
 10
12.1289
 20
1034.52
 11
11.5451
 21
1034.76
  0
LINE
  8
0
 10
11.5451
 20
1034.76
 11
10.9369
 21
1034.91
  0
LINE
  8
0
 10
10.9369
 20
1034.91
 11
10.3139
 21
1034.99
  0
LINE
  8
0
 10
10.3139
 20
1034.99
 11
-10.3139
 21
1034.99
  0
LINE
  8
0
 10
-10.3139
 20
1034.99
 11
-10.9369
 21
1034.91
  0
LINE
  8
0
 10
-10.9369
 20
1034.91
 11
-11.5451
 21
1034.76
  0
LINE
  8
0
 10
-11.5451
 20
1034.76
 11
-12.1289
 21
1034.52
  0
LINE
  8
0
 10
-12.1289
 20
1034.52
 11
-12.6791
 21
1034.22
  0
LINE
  8
0
 10
-12.6791
 20
1034.22
 11
-13.1871
 21
1033.85
  0
LINE
  8
0
 10
-13.1871
 20
1033.85
 11
-13.6448
 21
1033.42
  0
LINE
  8
0
 10
-13.6448
 20
1033.42
 11
-14.0451
 21
1032.94
  0
LINE
  8
0
 10
-14.0451
 20
1032.94
 11
-14.3815
 21
1032.41
  0
LINE
  8
0
 10
-14.3815
 20
1032.41
 11
-14.6489
 21
1031.84
  0
LINE
  8
0
 10
-14.6489
 20
1031.84
 11
-14.8429
 21
1031.24
  0
LINE
  8
0
 10
-14.8429
 20
1031.24
 11
-14.9606
 21
1030.63
  0
LINE
  8
0
 10
-14.9606
 20
1030.63
 11
-15
 21
1030
  0
LINE
  8
0
 10
-15
 20
1030
 11
-15
 21
860
  0
LINE
  8
0
 10
-15
 20
860
 11
-14.9606
 21
859.373
  0
LINE
  8
0
 10
-14.9606
 20
859.373
 11
-14.8429
 21
858.757
  0
LINE
  8
0
 10
-14.8429
 20
858.757
 11
-14.6489
 21
858.159
  0
LINE
  8
0
 10
-14.6489
 20
858.159
 11
-14.3815
 21
857.591
  0
LINE
  8
0
 10
-14.3815
 20
857.591
 11
-14.0451
 21
857.061
  0
LINE
  8
0
 10
-14.0451
 20
857.061
 11
-13.6448
 21
856.577
  0
LINE
  8
0
 10
-13.6448
 20
856.577
 11
-13.1871
 21
856.147
  0
LINE
  8
0
 10
-13.1871
 20
856.147
 11
-12.6791
 21
855.778
  0
LINE
  8
0
 10
-12.6791
 20
855.778
 11
-12.1289
 21
855.476
  0
LINE
  8
0
 10
-12.1289
 20
855.476
 11
-11.5451
 21
855.245
  0
LINE
  8
0
 10
-11.5451
 20
855.245
 11
-10.9369
 21
855.089
  0
LINE
  8
0
 10
-10.9369
 20
855.089
 11
-10.3139
 21
855.01
  0
LINE
  8
0
 10
-10.3139
 20
855.01
 11
10.3139
 21
855.01
  0
LINE
  8
0
 10
10.3139
 20
855.01
 11
10.9369
 21
855.089
  0
LINE
  8
0
 10
7.34929
 20
1025.1
 11
7.05028
 21
1025.14
  0
LINE
  8
0
 10
7.05028
 20
1025.14
 11
6.75835
 21
1025.22
  0
LINE
  8
0
 10
6.75835
 20
1025.22
 11
6.47812
 21
1025.33
  0
LINE
  8
0
 10
6.47812
 20
1025.33
 11
6.214
 21
1025.47
  0
LINE
  8
0
 10
6.214
 20
1025.47
 11
5.97017
 21
1025.65
  0
LINE
  8
0
 10
5.97017
 20
1025.65
 11
5.75047
 21
1025.86
  0
LINE
  8
0
 10
5.75047
 20
1025.86
 11
5.55835
 21
1026.09
  0
LINE
  8
0
 10
5.55835
 20
1026.09
 11
5.39685
 21
1026.34
  0
LINE
  8
0
 10
5.39685
 20
1026.34
 11
5.26852
 21
1026.62
  0
LINE
  8
0
 10
5.26852
 20
1026.62
 11
5.1754
 21
1026.9
  0
LINE
  8
0
 10
5.1754
 20
1026.9
 11
5.11891
 21
1027.2
  0
LINE
  8
0
 10
5.11891
 20
1027.2
 11
5.09999
 21
1027.5
  0
LINE
  8
0
 10
5.09999
 20
1027.5
 11
5.11891
 21
1027.8
  0
LINE
  8
0
 10
5.11891
 20
1027.8
 11
5.1754
 21
1028.1
  0
LINE
  8
0
 10
5.1754
 20
1028.1
 11
5.26852
 21
1028.38
  0
LINE
  8
0
 10
5.26852
 20
1028.38
 11
5.39685
 21
1028.66
  0
LINE
  8
0
 10
5.39685
 20
1028.66
 11
5.55835
 21
1028.91
  0
LINE
  8
0
 10
5.55835
 20
1028.91
 11
5.75047
 21
1029.14
  0
LINE
  8
0
 10
5.75047
 20
1029.14
 11
5.97017
 21
1029.35
  0
LINE
  8
0
 10
5.97017
 20
1029.35
 11
6.214
 21
1029.53
  0
LINE
  8
0
 10
6.214
 20
1029.53
 11
6.47812
 21
1029.67
  0
LINE
  8
0
 10
6.47812
 20
1029.67
 11
6.75835
 21
1029.78
  0
LINE
  8
0
 10
6.75835
 20
1029.78
 11
7.05028
 21
1029.86
  0
LINE
  8
0
 10
7.05028
 20
1029.86
 11
7.34929
 21
1029.9
  0
LINE
  8
0
 10
7.34929
 20
1029.9
 11
7.6507
 21
1029.9
  0
LINE
  8
0
 10
7.6507
 20
1029.9
 11
7.94971
 21
1029.86
  0
LINE
  8
0
 10
7.94971
 20
1029.86
 11
8.24164
 21
1029.78
  0
LINE
  8
0
 10
8.24164
 20
1029.78
 11
8.52187
 21
1029.67
  0
LINE
  8
0
 10
8.52187
 20
1029.67
 11
8.78598
 21
1029.53
  0
LINE
  8
0
 10
8.78598
 20
1029.53
 11
9.02982
 21
1029.35
  0
LINE
  8
0
 10
9.02982
 20
1029.35
 11
9.24951
 21
1029.14
  0
LINE
  8
0
 10
9.24951
 20
1029.14
 11
9.44164
 21
1028.91
  0
LINE
  8
0
 10
9.44164
 20
1028.91
 11
9.60313
 21
1028.66
  0
LINE
  8
0
 10
9.60313
 20
1028.66
 11
9.73146
 21
1028.38
  0
LINE
  8
0
 10
9.73146
 20
1028.38
 11
9.82458
 21
1028.1
  0
LINE
  8
0
 10
9.82458
 20
1028.1
 11
9.88107
 21
1027.8
  0
LINE
  8
0
 10
9.88107
 20
1027.8
 11
9.89999
 21
1027.5
  0
LINE
  8
0
 10
9.89999
 20
1027.5
 11
9.88107
 21
1027.2
  0
LINE
  8
0
 10
9.88107
 20
1027.2
 11
9.82458
 21
1026.9
  0
LINE
  8
0
 10
9.82458
 20
1026.9
 11
9.73146
 21
1026.62
  0
LINE
  8
0
 10
9.73146
 20
1026.62
 11
9.60313
 21
1026.34
  0
LINE
  8
0
 10
9.60313
 20
1026.34
 11
9.44164
 21
1026.09
  0
LINE
  8
0
 10
9.44164
 20
1026.09
 11
9.24951
 21
1025.86
  0
LINE
  8
0
 10
9.24951
 20
1025.86
 11
9.02982
 21
1025.65
  0
LINE
  8
0
 10
9.02982
 20
1025.65
 11
8.78598
 21
1025.47
  0
LINE
  8
0
 10
8.78598
 20
1025.47
 11
8.52187
 21
1025.33
  0
LINE
  8
0
 10
8.52187
 20
1025.33
 11
8.24164
 21
1025.22
  0
LINE
  8
0
 10
8.24164
 20
1025.22
 11
7.94971
 21
1025.14
  0
LINE
  8
0
 10
7.94971
 20
1025.14
 11
7.6507
 21
1025.1
  0
LINE
  8
0
 10
7.6507
 20
1025.1
 11
7.34929
 21
1025.1
  0
LINE
  8
0
 10
-7.6507
 20
1025.1
 11
-7.94971
 21
1025.14
  0
LINE
  8
0
 10
-7.94971
 20
1025.14
 11
-8.24164
 21
1025.22
  0
LINE
  8
0
 10
-8.24164
 20
1025.22
 11
-8.52187
 21
1025.33
  0
LINE
  8
0
 10
-8.52187
 20
1025.33
 11
-8.78598
 21
1025.47
  0
LINE
  8
0
 10
-8.78598
 20
1025.47
 11
-9.02982
 21
1025.65
  0
LINE
  8
0
 10
-9.02982
 20
1025.65
 11
-9.24951
 21
1025.86
  0
LINE
  8
0
 10
-9.24951
 20
1025.86
 11
-9.44164
 21
1026.09
  0
LINE
  8
0
 10
-9.44164
 20
1026.09
 11
-9.60313
 21
1026.34
  0
LINE
  8
0
 10
-9.60313
 20
1026.34
 11
-9.73146
 21
1026.62
  0
LINE
  8
0
 10
-9.73146
 20
1026.62
 11
-9.82458
 21
1026.9
  0
LINE
  8
0
 10
-9.82458
 20
1026.9
 11
-9.88107
 21
1027.2
  0
LINE
  8
0
 10
-9.88107
 20
1027.2
 11
-9.89999
 21
1027.5
  0
LINE
  8
0
 10
-9.89999
 20
1027.5
 11
-9.88107
 21
1027.8
  0
LINE
  8
0
 10
-9.88107
 20
1027.8
 11
-9.82458
 21
1028.1
  0
LINE
  8
0
 10
-9.82458
 20
1028.1
 11
-9.73146
 21
1028.38
  0
LINE
  8
0
 10
-9.73146
 20
1028.38
 11
-9.60313
 21
1028.66
  0
LINE
  8
0
 10
-9.60313
 20
1028.66
 11
-9.44164
 21
1028.91
  0
LINE
  8
0
 10
-9.44164
 20
1028.91
 11
-9.24951
 21
1029.14
  0
LINE
  8
0
 10
-9.24951
 20
1029.14
 11
-9.02982
 21
1029.35
  0
LINE
  8
0
 10
-9.02982
 20
1029.35
 11
-8.78598
 21
1029.53
  0
LINE
  8
0
 10
-8.78598
 20
1029.53
 11
-8.52187
 21
1029.67
  0
LINE
  8
0
 10
-8.52187
 20
1029.67
 11
-8.24164
 21
1029.78
  0
LINE
  8
0
 10
-8.24164
 20
1029.78
 11
-7.94971
 21
1029.86
  0
LINE
  8
0
 10
-7.94971
 20
1029.86
 11
-7.6507
 21
1029.9
  0
LINE
  8
0
 10
-7.6507
 20
1029.9
 11
-7.34929
 21
1029.9
  0
LINE
  8
0
 10
-7.34929
 20
1029.9
 11
-7.05028
 21
1029.86
  0
LINE
  8
0
 10
-7.05028
 20
1029.86
 11
-6.75835
 21
1029.78
  0
LINE
  8
0
 10
-6.75835
 20
1029.78
 11
-6.47812
 21
1029.67
  0
LINE
  8
0
 10
-6.47812
 20
1029.67
 11
-6.214
 21
1029.53
  0
LINE
  8
0
 10
-6.214
 20
1029.53
 11
-5.97017
 21
1029.35
  0
LINE
  8
0
 10
-5.97017
 20
1029.35
 11
-5.75047
 21
1029.14
  0
LINE
  8
0
 10
-5.75047
 20
1029.14
 11
-5.55835
 21
1028.91
  0
LINE
  8
0
 10
-5.55835
 20
1028.91
 11
-5.39685
 21
1028.66
  0
LINE
  8
0
 10
-5.39685
 20
1028.66
 11
-5.26852
 21
1028.38
  0
LINE
  8
0
 10
-5.26852
 20
1028.38
 11
-5.1754
 21
1028.1
  0
LINE
  8
0
 10
-5.1754
 20
1028.1
 11
-5.11891
 21
1027.8
  0
LINE
  8
0
 10
-5.11891
 20
1027.8
 11
-5.09999
 21
1027.5
  0
LINE
  8
0
 10
-5.09999
 20
1027.5
 11
-5.11891
 21
1027.2
  0
LINE
  8
0
 10
-5.11891
 20
1027.2
 11
-5.1754
 21
1026.9
  0
LINE
  8
0
 10
-5.1754
 20
1026.9
 11
-5.26852
 21
1026.62
  0
LINE
  8
0
 10
-5.26852
 20
1026.62
 11
-5.39685
 21
1026.34
  0
LINE
  8
0
 10
-5.39685
 20
1026.34
 11
-5.55835
 21
1026.09
  0
LINE
  8
0
 10
-5.55835
 20
1026.09
 11
-5.75047
 21
1025.86
  0
LINE
  8
0
 10
-5.75047
 20
1025.86
 11
-5.97017
 21
1025.65
  0
LINE
  8
0
 10
-5.97017
 20
1025.65
 11
-6.214
 21
1025.47
  0
LINE
  8
0
 10
-6.214
 20
1025.47
 11
-6.47812
 21
1025.33
  0
LINE
  8
0
 10
-6.47812
 20
1025.33
 11
-6.75835
 21
1025.22
  0
LINE
  8
0
 10
-6.75835
 20
1025.22
 11
-7.05028
 21
1025.14
  0
LINE
  8
0
 10
-7.05028
 20
1025.14
 11
-7.34929
 21
1025.1
  0
LINE
  8
0
 10
-7.34929
 20
1025.1
 11
-7.6507
 21
1025.1
  0
LINE
  8
0
 10
7.34929
 20
860.105
 11
7.05028
 21
860.143
  0
LINE
  8
0
 10
7.05028
 20
860.143
 11
6.75835
 21
860.217
  0
LINE
  8
0
 10
6.75835
 20
860.217
 11
6.47812
 21
860.328
  0
LINE
  8
0
 10
6.47812
 20
860.328
 11
6.214
 21
860.474
  0
LINE
  8
0
 10
6.214
 20
860.474
 11
5.97017
 21
860.651
  0
LINE
  8
0
 10
5.97017
 20
860.651
 11
5.75047
 21
860.857
  0
LINE
  8
0
 10
5.75047
 20
860.857
 11
5.55835
 21
861.089
  0
LINE
  8
0
 10
5.55835
 20
861.089
 11
5.39685
 21
861.344
  0
LINE
  8
0
 10
5.39685
 20
861.344
 11
5.26852
 21
861.617
  0
LINE
  8
0
 10
5.26852
 20
861.617
 11
5.1754
 21
861.903
  0
LINE
  8
0
 10
5.1754
 20
861.903
 11
5.11891
 21
862.199
  0
LINE
  8
0
 10
5.11891
 20
862.199
 11
5.09999
 21
862.5
  0
LINE
  8
0
 10
5.09999
 20
862.5
 11
5.11891
 21
862.801
  0
LINE
  8
0
 10
5.11891
 20
862.801
 11
5.1754
 21
863.097
  0
LINE
  8
0
 10
5.1754
 20
863.097
 11
5.26852
 21
863.383
  0
LINE
  8
0
 10
5.26852
 20
863.383
 11
5.39685
 21
863.656
  0
LINE
  8
0
 10
5.39685
 20
863.656
 11
5.55835
 21
863.911
  0
LINE
  8
0
 10
5.55835
 20
863.911
 11
5.75047
 21
864.143
  0
LINE
  8
0
 10
5.75047
 20
864.143
 11
5.97017
 21
864.349
  0
LINE
  8
0
 10
5.97017
 20
864.349
 11
6.214
 21
864.526
  0
LINE
  8
0
 10
6.214
 20
864.526
 11
6.47812
 21
864.672
  0
LINE
  8
0
 10
6.47812
 20
864.672
 11
6.75835
 21
864.783
  0
LINE
  8
0
 10
6.75835
 20
864.783
 11
7.05028
 21
864.857
  0
LINE
  8
0
 10
7.05028
 20
864.857
 11
7.34929
 21
864.895
  0
LINE
  8
0
 10
7.34929
 20
864.895
 11
7.6507
 21
864.895
  0
LINE
  8
0
 10
7.6507
 20
864.895
 11
7.94971
 21
864.857
  0
LINE
  8
0
 10
7.94971
 20
864.857
 11
8.24164
 21
864.783
  0
LINE
  8
0
 10
8.24164
 20
864.783
 11
8.52187
 21
864.672
  0
LINE
  8
0
 10
8.52187
 20
864.672
 11
8.78598
 21
864.526
  0
LINE
  8
0
 10
8.78598
 20
864.526
 11
9.02982
 21
864.349
  0
LINE
  8
0
 10
9.02982
 20
864.349
 11
9.24951
 21
864.143
  0
LINE
  8
0
 10
9.24951
 20
864.143
 11
9.44164
 21
863.911
  0
LINE
  8
0
 10
9.44164
 20
863.911
 11
9.60313
 21
863.656
  0
LINE
  8
0
 10
9.60313
 20
863.656
 11
9.73146
 21
863.383
  0
LINE
  8
0
 10
9.73146
 20
863.383
 11
9.82458
 21
863.097
  0
LINE
  8
0
 10
9.82458
 20
863.097
 11
9.88107
 21
862.801
  0
LINE
  8
0
 10
9.88107
 20
862.801
 11
9.89999
 21
862.5
  0
LINE
  8
0
 10
9.89999
 20
862.5
 11
9.88107
 21
862.199
  0
LINE
  8
0
 10
9.88107
 20
862.199
 11
9.82458
 21
861.903
  0
LINE
  8
0
 10
9.82458
 20
861.903
 11
9.73146
 21
861.617
  0
LINE
  8
0
 10
9.73146
 20
861.617
 11
9.60313
 21
861.344
  0
LINE
  8
0
 10
9.60313
 20
861.344
 11
9.44164
 21
861.089
  0
LINE
  8
0
 10
9.44164
 20
861.089
 11
9.24951
 21
860.857
  0
LINE
  8
0
 10
9.24951
 20
860.857
 11
9.02982
 21
860.651
  0
LINE
  8
0
 10
9.02982
 20
860.651
 11
8.78598
 21
860.474
  0
LINE
  8
0
 10
8.78598
 20
860.474
 11
8.52187
 21
860.328
  0
LINE
  8
0
 10
8.52187
 20
860.328
 11
8.24164
 21
860.217
  0
LINE
  8
0
 10
8.24164
 20
860.217
 11
7.94971
 21
860.143
  0
LINE
  8
0
 10
7.94971
 20
860.143
 11
7.6507
 21
860.105
  0
LINE
  8
0
 10
7.6507
 20
860.105
 11
7.34929
 21
860.105
  0
LINE
  8
0
 10
-7.6507
 20
860.105
 11
-7.94971
 21
860.143
  0
LINE
  8
0
 10
-7.94971
 20
860.143
 11
-8.24164
 21
860.217
  0
LINE
  8
0
 10
-8.24164
 20
860.217
 11
-8.52187
 21
860.328
  0
LINE
  8
0
 10
-8.52187
 20
860.328
 11
-8.78598
 21
860.474
  0
LINE
  8
0
 10
-8.78598
 20
860.474
 11
-9.02982
 21
860.651
  0
LINE
  8
0
 10
-9.02982
 20
860.651
 11
-9.24951
 21
860.857
  0
LINE
  8
0
 10
-9.24951
 20
860.857
 11
-9.44164
 21
861.089
  0
LINE
  8
0
 10
-9.44164
 20
861.089
 11
-9.60313
 21
861.344
  0
LINE
  8
0
 10
-9.60313
 20
861.344
 11
-9.73146
 21
861.617
  0
LINE
  8
0
 10
-9.73146
 20
861.617
 11
-9.82458
 21
861.903
  0
LINE
  8
0
 10
-9.82458
 20
861.903
 11
-9.88107
 21
862.199
  0
LINE
  8
0
 10
-9.88107
 20
862.199
 11
-9.89999
 21
862.5
  0
LINE
  8
0
 10
-9.89999
 20
862.5
 11
-9.88107
 21
862.801
  0
LINE
  8
0
 10
-9.88107
 20
862.801
 11
-9.82458
 21
863.097
  0
LINE
  8
0
 10
-9.82458
 20
863.097
 11
-9.73146
 21
863.383
  0
LINE
  8
0
 10
-9.73146
 20
863.383
 11
-9.60313
 21
863.656
  0
LINE
  8
0
 10
-9.60313
 20
863.656
 11
-9.44164
 21
863.911
  0
LINE
  8
0
 10
-9.44164
 20
863.911
 11
-9.24951
 21
864.143
  0
LINE
  8
0
 10
-9.24951
 20
864.143
 11
-9.02982
 21
864.349
  0
LINE
  8
0
 10
-9.02982
 20
864.349
 11
-8.78598
 21
864.526
  0
LINE
  8
0
 10
-8.78598
 20
864.526
 11
-8.52187
 21
864.672
  0
LINE
  8
0
 10
-8.52187
 20
864.672
 11
-8.24164
 21
864.783
  0
LINE
  8
0
 10
-8.24164
 20
864.783
 11
-7.94971
 21
864.857
  0
LINE
  8
0
 10
-7.94971
 20
864.857
 11
-7.6507
 21
864.895
  0
LINE
  8
0
 10
-7.6507
 20
864.895
 11
-7.34929
 21
864.895
  0
LINE
  8
0
 10
-7.34929
 20
864.895
 11
-7.05028
 21
864.857
  0
LINE
  8
0
 10
-7.05028
 20
864.857
 11
-6.75835
 21
864.783
  0
LINE
  8
0
 10
-6.75835
 20
864.783
 11
-6.47812
 21
864.672
  0
LINE
  8
0
 10
-6.47812
 20
864.672
 11
-6.214
 21
864.526
  0
LINE
  8
0
 10
-6.214
 20
864.526
 11
-5.97017
 21
864.349
  0
LINE
  8
0
 10
-5.97017
 20
864.349
 11
-5.75047
 21
864.143
  0
LINE
  8
0
 10
-5.75047
 20
864.143
 11
-5.55835
 21
863.911
  0
LINE
  8
0
 10
-5.55835
 20
863.911
 11
-5.39685
 21
863.656
  0
LINE
  8
0
 10
-5.39685
 20
863.656
 11
-5.26852
 21
863.383
  0
LINE
  8
0
 10
-5.26852
 20
863.383
 11
-5.1754
 21
863.097
  0
LINE
  8
0
 10
-5.1754
 20
863.097
 11
-5.11891
 21
862.801
  0
LINE
  8
0
 10
-5.11891
 20
862.801
 11
-5.09999
 21
862.5
  0
LINE
  8
0
 10
-5.09999
 20
862.5
 11
-5.11891
 21
862.199
  0
LINE
  8
0
 10
-5.11891
 20
862.199
 11
-5.1754
 21
861.903
  0
LINE
  8
0
 10
-5.1754
 20
861.903
 11
-5.26852
 21
861.617
  0
LINE
  8
0
 10
-5.26852
 20
861.617
 11
-5.39685
 21
861.344
  0
LINE
  8
0
 10
-5.39685
 20
861.344
 11
-5.55835
 21
861.089
  0
LINE
  8
0
 10
-5.55835
 20
861.089
 11
-5.75047
 21
860.857
  0
LINE
  8
0
 10
-5.75047
 20
860.857
 11
-5.97017
 21
860.651
  0
LINE
  8
0
 10
-5.97017
 20
860.651
 11
-6.214
 21
860.474
  0
LINE
  8
0
 10
-6.214
 20
860.474
 11
-6.47812
 21
860.328
  0
LINE
  8
0
 10
-6.47812
 20
860.328
 11
-6.75835
 21
860.217
  0
LINE
  8
0
 10
-6.75835
 20
860.217
 11
-7.05028
 21
860.143
  0
LINE
  8
0
 10
-7.05028
 20
860.143
 11
-7.34929
 21
860.105
  0
LINE
  8
0
 10
-7.34929
 20
860.105
 11
-7.6507
 21
860.105
  0
LINE
  8
0
 10
10.9369
 20
666.089
 11
11.5451
 21
666.245
  0
LINE
  8
0
 10
11.5451
 20
666.245
 11
12.1289
 21
666.476
  0
LINE
  8
0
 10
12.1289
 20
666.476
 11
12.6791
 21
666.778
  0
LINE
  8
0
 10
12.6791
 20
666.778
 11
13.1871
 21
667.147
  0
LINE
  8
0
 10
13.1871
 20
667.147
 11
13.6448
 21
667.577
  0
LINE
  8
0
 10
13.6448
 20
667.577
 11
14.0451
 21
668.061
  0
LINE
  8
0
 10
14.0451
 20
668.061
 11
14.3815
 21
668.591
  0
LINE
  8
0
 10
14.3815
 20
668.591
 11
14.6489
 21
669.159
  0
LINE
  8
0
 10
14.6489
 20
669.159
 11
14.8429
 21
669.757
  0
LINE
  8
0
 10
14.8429
 20
669.757
 11
14.9606
 21
670.373
  0
LINE
  8
0
 10
14.9606
 20
670.373
 11
15
 21
671
  0
LINE
  8
0
 10
15
 20
671
 11
15
 21
841
  0
LINE
  8
0
 10
15
 20
841
 11
14.9606
 21
841.627
  0
LINE
  8
0
 10
14.9606
 20
841.627
 11
14.8429
 21
842.243
  0
LINE
  8
0
 10
14.8429
 20
842.243
 11
14.6489
 21
842.841
  0
LINE
  8
0
 10
14.6489
 20
842.841
 11
14.3815
 21
843.409
  0
LINE
  8
0
 10
14.3815
 20
843.409
 11
14.0451
 21
843.939
  0
LINE
  8
0
 10
14.0451
 20
843.939
 11
13.6448
 21
844.423
  0
LINE
  8
0
 10
13.6448
 20
844.423
 11
13.1871
 21
844.853
  0
LINE
  8
0
 10
13.1871
 20
844.853
 11
12.6791
 21
845.222
  0
LINE
  8
0
 10
12.6791
 20
845.222
 11
12.1289
 21
845.524
  0
LINE
  8
0
 10
12.1289
 20
845.524
 11
11.5451
 21
845.755
  0
LINE
  8
0
 10
11.5451
 20
845.755
 11
10.9369
 21
845.911
  0
LINE
  8
0
 10
10.9369
 20
845.911
 11
10.3139
 21
845.99
  0
LINE
  8
0
 10
10.3139
 20
845.99
 11
-10.3139
 21
845.99
  0
LINE
  8
0
 10
-10.3139
 20
845.99
 11
-10.9369
 21
845.911
  0
LINE
  8
0
 10
-10.9369
 20
845.911
 11
-11.5451
 21
845.755
  0
LINE
  8
0
 10
-11.5451
 20
845.755
 11
-12.1289
 21
845.524
  0
LINE
  8
0
 10
-12.1289
 20
845.524
 11
-12.6791
 21
845.222
  0
LINE
  8
0
 10
-12.6791
 20
845.222
 11
-13.1871
 21
844.853
  0
LINE
  8
0
 10
-13.1871
 20
844.853
 11
-13.6448
 21
844.423
  0
LINE
  8
0
 10
-13.6448
 20
844.423
 11
-14.0451
 21
843.939
  0
LINE
  8
0
 10
-14.0451
 20
843.939
 11
-14.3815
 21
843.409
  0
LINE
  8
0
 10
-14.3815
 20
843.409
 11
-14.6489
 21
842.841
  0
LINE
  8
0
 10
-14.6489
 20
842.841
 11
-14.8429
 21
842.243
  0
LINE
  8
0
 10
-14.8429
 20
842.243
 11
-14.9606
 21
841.627
  0
LINE
  8
0
 10
-14.9606
 20
841.627
 11
-15
 21
841
  0
LINE
  8
0
 10
-15
 20
841
 11
-15
 21
671
  0
LINE
  8
0
 10
-15
 20
671
 11
-14.9606
 21
670.373
  0
LINE
  8
0
 10
-14.9606
 20
670.373
 11
-14.8429
 21
669.757
  0
LINE
  8
0
 10
-14.8429
 20
669.757
 11
-14.6489
 21
669.159
  0
LINE
  8
0
 10
-14.6489
 20
669.159
 11
-14.3815
 21
668.591
  0
LINE
  8
0
 10
-14.3815
 20
668.591
 11
-14.0451
 21
668.061
  0
LINE
  8
0
 10
-14.0451
 20
668.061
 11
-13.6448
 21
667.577
  0
LINE
  8
0
 10
-13.6448
 20
667.577
 11
-13.1871
 21
667.147
  0
LINE
  8
0
 10
-13.1871
 20
667.147
 11
-12.6791
 21
666.778
  0
LINE
  8
0
 10
-12.6791
 20
666.778
 11
-12.1289
 21
666.476
  0
LINE
  8
0
 10
-12.1289
 20
666.476
 11
-11.5451
 21
666.245
  0
LINE
  8
0
 10
-11.5451
 20
666.245
 11
-10.9369
 21
666.089
  0
LINE
  8
0
 10
-10.9369
 20
666.089
 11
-10.3139
 21
666.01
  0
LINE
  8
0
 10
-10.3139
 20
666.01
 11
10.3139
 21
666.01
  0
LINE
  8
0
 10
10.3139
 20
666.01
 11
10.9369
 21
666.089
  0
LINE
  8
0
 10
7.38696
 20
836.704
 11
7.1627
 21
836.732
  0
LINE
  8
0
 10
7.1627
 20
836.732
 11
6.94376
 21
836.788
  0
LINE
  8
0
 10
6.94376
 20
836.788
 11
6.7336
 21
836.871
  0
LINE
  8
0
 10
6.7336
 20
836.871
 11
6.53551
 21
836.98
  0
LINE
  8
0
 10
6.53551
 20
836.98
 11
6.35263
 21
837.113
  0
LINE
  8
0
 10
6.35263
 20
837.113
 11
6.18785
 21
837.268
  0
LINE
  8
0
 10
6.18785
 20
837.268
 11
6.04376
 21
837.442
  0
LINE
  8
0
 10
6.04376
 20
837.442
 11
5.92264
 21
837.633
  0
LINE
  8
0
 10
5.92264
 20
837.633
 11
5.8264
 21
837.837
  0
LINE
  8
0
 10
5.8264
 20
837.837
 11
5.75655
 21
838.052
  0
LINE
  8
0
 10
5.75655
 20
838.052
 11
5.71419
 21
838.274
  0
LINE
  8
0
 10
5.71419
 20
838.274
 11
5.7
 21
838.5
  0
LINE
  8
0
 10
5.7
 20
838.5
 11
5.71419
 21
838.726
  0
LINE
  8
0
 10
5.71419
 20
838.726
 11
5.75655
 21
838.948
  0
LINE
  8
0
 10
5.75655
 20
838.948
 11
5.8264
 21
839.163
  0
LINE
  8
0
 10
5.8264
 20
839.163
 11
5.92264
 21
839.367
  0
LINE
  8
0
 10
5.92264
 20
839.367
 11
6.04376
 21
839.558
  0
LINE
  8
0
 10
6.04376
 20
839.558
 11
6.18785
 21
839.732
  0
LINE
  8
0
 10
6.18785
 20
839.732
 11
6.35263
 21
839.887
  0
LINE
  8
0
 10
6.35263
 20
839.887
 11
6.53551
 21
840.02
  0
LINE
  8
0
 10
6.53551
 20
840.02
 11
6.7336
 21
840.129
  0
LINE
  8
0
 10
6.7336
 20
840.129
 11
6.94376
 21
840.212
  0
LINE
  8
0
 10
6.94376
 20
840.212
 11
7.1627
 21
840.268
  0
LINE
  8
0
 10
7.1627
 20
840.268
 11
7.38696
 21
840.296
  0
LINE
  8
0
 10
7.38696
 20
840.296
 11
7.61302
 21
840.296
  0
LINE
  8
0
 10
7.61302
 20
840.296
 11
7.83728
 21
840.268
  0
LINE
  8
0
 10
7.83728
 20
840.268
 11
8.05623
 21
840.212
  0
LINE
  8
0
 10
8.05623
 20
840.212
 11
8.26639
 21
840.129
  0
LINE
  8
0
 10
8.26639
 20
840.129
 11
8.46448
 21
840.02
  0
LINE
  8
0
 10
8.46448
 20
840.02
 11
8.64735
 21
839.887
  0
LINE
  8
0
 10
8.64735
 20
839.887
 11
8.81213
 21
839.732
  0
LINE
  8
0
 10
8.81213
 20
839.732
 11
8.95622
 21
839.558
  0
LINE
  8
0
 10
8.95622
 20
839.558
 11
9.07735
 21
839.367
  0
LINE
  8
0
 10
9.07735
 20
839.367
 11
9.17358
 21
839.163
  0
LINE
  8
0
 10
9.17358
 20
839.163
 11
9.24344
 21
838.948
  0
LINE
  8
0
 10
9.24344
 20
838.948
 11
9.2858
 21
838.726
  0
LINE
  8
0
 10
9.2858
 20
838.726
 11
9.29999
 21
838.5
  0
LINE
  8
0
 10
9.29999
 20
838.5
 11
9.2858
 21
838.274
  0
LINE
  8
0
 10
9.2858
 20
838.274
 11
9.24344
 21
838.052
  0
LINE
  8
0
 10
9.24344
 20
838.052
 11
9.17358
 21
837.837
  0
LINE
  8
0
 10
9.17358
 20
837.837
 11
9.07735
 21
837.633
  0
LINE
  8
0
 10
9.07735
 20
837.633
 11
8.95622
 21
837.442
  0
LINE
  8
0
 10
8.95622
 20
837.442
 11
8.81213
 21
837.268
  0
LINE
  8
0
 10
8.81213
 20
837.268
 11
8.64735
 21
837.113
  0
LINE
  8
0
 10
8.64735
 20
837.113
 11
8.46448
 21
836.98
  0
LINE
  8
0
 10
8.46448
 20
836.98
 11
8.26639
 21
836.871
  0
LINE
  8
0
 10
8.26639
 20
836.871
 11
8.05623
 21
836.788
  0
LINE
  8
0
 10
8.05623
 20
836.788
 11
7.83728
 21
836.732
  0
LINE
  8
0
 10
7.83728
 20
836.732
 11
7.61302
 21
836.704
  0
LINE
  8
0
 10
7.61302
 20
836.704
 11
7.38696
 21
836.704
  0
LINE
  8
0
 10
-7.61302
 20
836.704
 11
-7.83728
 21
836.732
  0
LINE
  8
0
 10
-7.83728
 20
836.732
 11
-8.05623
 21
836.788
  0
LINE
  8
0
 10
-8.05623
 20
836.788
 11
-8.26639
 21
836.871
  0
LINE
  8
0
 10
-8.26639
 20
836.871
 11
-8.46448
 21
836.98
  0
LINE
  8
0
 10
-8.46448
 20
836.98
 11
-8.64735
 21
837.113
  0
LINE
  8
0
 10
-8.64735
 20
837.113
 11
-8.81213
 21
837.268
  0
LINE
  8
0
 10
-8.81213
 20
837.268
 11
-8.95622
 21
837.442
  0
LINE
  8
0
 10
-8.95622
 20
837.442
 11
-9.07735
 21
837.633
  0
LINE
  8
0
 10
-9.07735
 20
837.633
 11
-9.17358
 21
837.837
  0
LINE
  8
0
 10
-9.17358
 20
837.837
 11
-9.24344
 21
838.052
  0
LINE
  8
0
 10
-9.24344
 20
838.052
 11
-9.2858
 21
838.274
  0
LINE
  8
0
 10
-9.2858
 20
838.274
 11
-9.29999
 21
838.5
  0
LINE
  8
0
 10
-9.29999
 20
838.5
 11
-9.2858
 21
838.726
  0
LINE
  8
0
 10
-9.2858
 20
838.726
 11
-9.24344
 21
838.948
  0
LINE
  8
0
 10
-9.24344
 20
838.948
 11
-9.17358
 21
839.163
  0
LINE
  8
0
 10
-9.17358
 20
839.163
 11
-9.07735
 21
839.367
  0
LINE
  8
0
 10
-9.07735
 20
839.367
 11
-8.95622
 21
839.558
  0
LINE
  8
0
 10
-8.95622
 20
839.558
 11
-8.81213
 21
839.732
  0
LINE
  8
0
 10
-8.81213
 20
839.732
 11
-8.64735
 21
839.887
  0
LINE
  8
0
 10
-8.64735
 20
839.887
 11
-8.46448
 21
840.02
  0
LINE
  8
0
 10
-8.46448
 20
840.02
 11
-8.26639
 21
840.129
  0
LINE
  8
0
 10
-8.26639
 20
840.129
 11
-8.05623
 21
840.212
  0
LINE
  8
0
 10
-8.05623
 20
840.212
 11
-7.83728
 21
840.268
  0
LINE
  8
0
 10
-7.83728
 20
840.268
 11
-7.61302
 21
840.296
  0
LINE
  8
0
 10
-7.61302
 20
840.296
 11
-7.38696
 21
840.296
  0
LINE
  8
0
 10
-7.38696
 20
840.296
 11
-7.1627
 21
840.268
  0
LINE
  8
0
 10
-7.1627
 20
840.268
 11
-6.94376
 21
840.212
  0
LINE
  8
0
 10
-6.94376
 20
840.212
 11
-6.7336
 21
840.129
  0
LINE
  8
0
 10
-6.7336
 20
840.129
 11
-6.53551
 21
840.02
  0
LINE
  8
0
 10
-6.53551
 20
840.02
 11
-6.35263
 21
839.887
  0
LINE
  8
0
 10
-6.35263
 20
839.887
 11
-6.18785
 21
839.732
  0
LINE
  8
0
 10
-6.18785
 20
839.732
 11
-6.04376
 21
839.558
  0
LINE
  8
0
 10
-6.04376
 20
839.558
 11
-5.92264
 21
839.367
  0
LINE
  8
0
 10
-5.92264
 20
839.367
 11
-5.8264
 21
839.163
  0
LINE
  8
0
 10
-5.8264
 20
839.163
 11
-5.75655
 21
838.948
  0
LINE
  8
0
 10
-5.75655
 20
838.948
 11
-5.71419
 21
838.726
  0
LINE
  8
0
 10
-5.71419
 20
838.726
 11
-5.7
 21
838.5
  0
LINE
  8
0
 10
-5.7
 20
838.5
 11
-5.71419
 21
838.274
  0
LINE
  8
0
 10
-5.71419
 20
838.274
 11
-5.75655
 21
838.052
  0
LINE
  8
0
 10
-5.75655
 20
838.052
 11
-5.8264
 21
837.837
  0
LINE
  8
0
 10
-5.8264
 20
837.837
 11
-5.92264
 21
837.633
  0
LINE
  8
0
 10
-5.92264
 20
837.633
 11
-6.04376
 21
837.442
  0
LINE
  8
0
 10
-6.04376
 20
837.442
 11
-6.18785
 21
837.268
  0
LINE
  8
0
 10
-6.18785
 20
837.268
 11
-6.35263
 21
837.113
  0
LINE
  8
0
 10
-6.35263
 20
837.113
 11
-6.53551
 21
836.98
  0
LINE
  8
0
 10
-6.53551
 20
836.98
 11
-6.7336
 21
836.871
  0
LINE
  8
0
 10
-6.7336
 20
836.871
 11
-6.94376
 21
836.788
  0
LINE
  8
0
 10
-6.94376
 20
836.788
 11
-7.1627
 21
836.732
  0
LINE
  8
0
 10
-7.1627
 20
836.732
 11
-7.38696
 21
836.704
  0
LINE
  8
0
 10
-7.38696
 20
836.704
 11
-7.61302
 21
836.704
  0
LINE
  8
0
 10
-7.61302
 20
671.704
 11
-7.83728
 21
671.732
  0
LINE
  8
0
 10
-7.83728
 20
671.732
 11
-8.05623
 21
671.788
  0
LINE
  8
0
 10
-8.05623
 20
671.788
 11
-8.26639
 21
671.871
  0
LINE
  8
0
 10
-8.26639
 20
671.871
 11
-8.46448
 21
671.98
  0
LINE
  8
0
 10
-8.46448
 20
671.98
 11
-8.64735
 21
672.113
  0
LINE
  8
0
 10
-8.64735
 20
672.113
 11
-8.81213
 21
672.268
  0
LINE
  8
0
 10
-8.81213
 20
672.268
 11
-8.95622
 21
672.442
  0
LINE
  8
0
 10
-8.95622
 20
672.442
 11
-9.07735
 21
672.633
  0
LINE
  8
0
 10
-9.07735
 20
672.633
 11
-9.17358
 21
672.837
  0
LINE
  8
0
 10
-9.17358
 20
672.837
 11
-9.24344
 21
673.052
  0
LINE
  8
0
 10
-9.24344
 20
673.052
 11
-9.2858
 21
673.274
  0
LINE
  8
0
 10
-9.2858
 20
673.274
 11
-9.29999
 21
673.5
  0
LINE
  8
0
 10
-9.29999
 20
673.5
 11
-9.2858
 21
673.726
  0
LINE
  8
0
 10
-9.2858
 20
673.726
 11
-9.24344
 21
673.948
  0
LINE
  8
0
 10
-9.24344
 20
673.948
 11
-9.17358
 21
674.163
  0
LINE
  8
0
 10
-9.17358
 20
674.163
 11
-9.07735
 21
674.367
  0
LINE
  8
0
 10
-9.07735
 20
674.367
 11
-8.95622
 21
674.558
  0
LINE
  8
0
 10
-8.95622
 20
674.558
 11
-8.81213
 21
674.732
  0
LINE
  8
0
 10
-8.81213
 20
674.732
 11
-8.64735
 21
674.887
  0
LINE
  8
0
 10
-8.64735
 20
674.887
 11
-8.46448
 21
675.02
  0
LINE
  8
0
 10
-8.46448
 20
675.02
 11
-8.26639
 21
675.129
  0
LINE
  8
0
 10
-8.26639
 20
675.129
 11
-8.05623
 21
675.212
  0
LINE
  8
0
 10
-8.05623
 20
675.212
 11
-7.83728
 21
675.268
  0
LINE
  8
0
 10
-7.83728
 20
675.268
 11
-7.61302
 21
675.296
  0
LINE
  8
0
 10
-7.61302
 20
675.296
 11
-7.38696
 21
675.296
  0
LINE
  8
0
 10
-7.38696
 20
675.296
 11
-7.1627
 21
675.268
  0
LINE
  8
0
 10
-7.1627
 20
675.268
 11
-6.94376
 21
675.212
  0
LINE
  8
0
 10
-6.94376
 20
675.212
 11
-6.7336
 21
675.129
  0
LINE
  8
0
 10
-6.7336
 20
675.129
 11
-6.53551
 21
675.02
  0
LINE
  8
0
 10
-6.53551
 20
675.02
 11
-6.35263
 21
674.887
  0
LINE
  8
0
 10
-6.35263
 20
674.887
 11
-6.18785
 21
674.732
  0
LINE
  8
0
 10
-6.18785
 20
674.732
 11
-6.04376
 21
674.558
  0
LINE
  8
0
 10
-6.04376
 20
674.558
 11
-5.92264
 21
674.367
  0
LINE
  8
0
 10
-5.92264
 20
674.367
 11
-5.8264
 21
674.163
  0
LINE
  8
0
 10
-5.8264
 20
674.163
 11
-5.75655
 21
673.948
  0
LINE
  8
0
 10
-5.75655
 20
673.948
 11
-5.71419
 21
673.726
  0
LINE
  8
0
 10
-5.71419
 20
673.726
 11
-5.7
 21
673.5
  0
LINE
  8
0
 10
-5.7
 20
673.5
 11
-5.71419
 21
673.274
  0
LINE
  8
0
 10
-5.71419
 20
673.274
 11
-5.75655
 21
673.052
  0
LINE
  8
0
 10
-5.75655
 20
673.052
 11
-5.8264
 21
672.837
  0
LINE
  8
0
 10
-5.8264
 20
672.837
 11
-5.92264
 21
672.633
  0
LINE
  8
0
 10
-5.92264
 20
672.633
 11
-6.04376
 21
672.442
  0
LINE
  8
0
 10
-6.04376
 20
672.442
 11
-6.18785
 21
672.268
  0
LINE
  8
0
 10
-6.18785
 20
672.268
 11
-6.35263
 21
672.113
  0
LINE
  8
0
 10
-6.35263
 20
672.113
 11
-6.53551
 21
671.98
  0
LINE
  8
0
 10
-6.53551
 20
671.98
 11
-6.7336
 21
671.871
  0
LINE
  8
0
 10
-6.7336
 20
671.871
 11
-6.94376
 21
671.788
  0
LINE
  8
0
 10
-6.94376
 20
671.788
 11
-7.1627
 21
671.732
  0
LINE
  8
0
 10
-7.1627
 20
671.732
 11
-7.38696
 21
671.704
  0
LINE
  8
0
 10
-7.38696
 20
671.704
 11
-7.61302
 21
671.704
  0
LINE
  8
0
 10
7.38696
 20
671.704
 11
7.1627
 21
671.732
  0
LINE
  8
0
 10
7.1627
 20
671.732
 11
6.94376
 21
671.788
  0
LINE
  8
0
 10
6.94376
 20
671.788
 11
6.7336
 21
671.871
  0
LINE
  8
0
 10
6.7336
 20
671.871
 11
6.53551
 21
671.98
  0
LINE
  8
0
 10
6.53551
 20
671.98
 11
6.35263
 21
672.113
  0
LINE
  8
0
 10
6.35263
 20
672.113
 11
6.18785
 21
672.268
  0
LINE
  8
0
 10
6.18785
 20
672.268
 11
6.04376
 21
672.442
  0
LINE
  8
0
 10
6.04376
 20
672.442
 11
5.92264
 21
672.633
  0
LINE
  8
0
 10
5.92264
 20
672.633
 11
5.8264
 21
672.837
  0
LINE
  8
0
 10
5.8264
 20
672.837
 11
5.75655
 21
673.052
  0
LINE
  8
0
 10
5.75655
 20
673.052
 11
5.71419
 21
673.274
  0
LINE
  8
0
 10
5.71419
 20
673.274
 11
5.7
 21
673.5
  0
LINE
  8
0
 10
5.7
 20
673.5
 11
5.71419
 21
673.726
  0
LINE
  8
0
 10
5.71419
 20
673.726
 11
5.75655
 21
673.948
  0
LINE
  8
0
 10
5.75655
 20
673.948
 11
5.8264
 21
674.163
  0
LINE
  8
0
 10
5.8264
 20
674.163
 11
5.92264
 21
674.367
  0
LINE
  8
0
 10
5.92264
 20
674.367
 11
6.04376
 21
674.558
  0
LINE
  8
0
 10
6.04376
 20
674.558
 11
6.18785
 21
674.732
  0
LINE
  8
0
 10
6.18785
 20
674.732
 11
6.35263
 21
674.887
  0
LINE
  8
0
 10
6.35263
 20
674.887
 11
6.53551
 21
675.02
  0
LINE
  8
0
 10
6.53551
 20
675.02
 11
6.7336
 21
675.129
  0
LINE
  8
0
 10
6.7336
 20
675.129
 11
6.94376
 21
675.212
  0
LINE
  8
0
 10
6.94376
 20
675.212
 11
7.1627
 21
675.268
  0
LINE
  8
0
 10
7.1627
 20
675.268
 11
7.38696
 21
675.296
  0
LINE
  8
0
 10
7.38696
 20
675.296
 11
7.61302
 21
675.296
  0
LINE
  8
0
 10
7.61302
 20
675.296
 11
7.83728
 21
675.268
  0
LINE
  8
0
 10
7.83728
 20
675.268
 11
8.05623
 21
675.212
  0
LINE
  8
0
 10
8.05623
 20
675.212
 11
8.26639
 21
675.129
  0
LINE
  8
0
 10
8.26639
 20
675.129
 11
8.46448
 21
675.02
  0
LINE
  8
0
 10
8.46448
 20
675.02
 11
8.64735
 21
674.887
  0
LINE
  8
0
 10
8.64735
 20
674.887
 11
8.81213
 21
674.732
  0
LINE
  8
0
 10
8.81213
 20
674.732
 11
8.95622
 21
674.558
  0
LINE
  8
0
 10
8.95622
 20
674.558
 11
9.07735
 21
674.367
  0
LINE
  8
0
 10
9.07735
 20
674.367
 11
9.17358
 21
674.163
  0
LINE
  8
0
 10
9.17358
 20
674.163
 11
9.24344
 21
673.948
  0
LINE
  8
0
 10
9.24344
 20
673.948
 11
9.2858
 21
673.726
  0
LINE
  8
0
 10
9.2858
 20
673.726
 11
9.29999
 21
673.5
  0
LINE
  8
0
 10
9.29999
 20
673.5
 11
9.2858
 21
673.274
  0
LINE
  8
0
 10
9.2858
 20
673.274
 11
9.24344
 21
673.052
  0
LINE
  8
0
 10
9.24344
 20
673.052
 11
9.17358
 21
672.837
  0
LINE
  8
0
 10
9.17358
 20
672.837
 11
9.07735
 21
672.633
  0
LINE
  8
0
 10
9.07735
 20
672.633
 11
8.95622
 21
672.442
  0
LINE
  8
0
 10
8.95622
 20
672.442
 11
8.81213
 21
672.268
  0
LINE
  8
0
 10
8.81213
 20
672.268
 11
8.64735
 21
672.113
  0
LINE
  8
0
 10
8.64735
 20
672.113
 11
8.46448
 21
671.98
  0
LINE
  8
0
 10
8.46448
 20
671.98
 11
8.26639
 21
671.871
  0
LINE
  8
0
 10
8.26639
 20
671.871
 11
8.05623
 21
671.788
  0
LINE
  8
0
 10
8.05623
 20
671.788
 11
7.83728
 21
671.732
  0
LINE
  8
0
 10
7.83728
 20
671.732
 11
7.61302
 21
671.704
  0
LINE
  8
0
 10
7.61302
 20
671.704
 11
7.38696
 21
671.704
  0
ENDSEC
  0
SECTION
  2
OBJECTS
  0
DICTIONARY
  0
ENDSEC
  0
EOF
