<?xml version="1.0" standalone="no"?>
<!DOCTYPE svg PUBLIC "-//W3C//DTD SVG 1.1//EN" "http://www.w3.org/Graphics/SVG/1.1/DTD/svg11.dtd">
<svg width="60mm" height="30mm" viewBox="-30 -15 60 30" xmlns="http://www.w3.org/2000/svg" version="1.1">
<title>OpenSCAD Model</title>
<path d="
M 25.4369,14.4114 L 26.0451,14.2553 L 26.6289,14.0241 L 27.1791,13.7216 L 27.6871,13.3526 L 28.1448,12.9227
 L 28.5451,12.4389 L 28.8815,11.9088 L 29.1489,11.3406 L 29.3429,10.7434 L 29.4606,10.1267 L 29.5,9.5
 L 29.5,-9.5 L 29.4606,-10.1267 L 29.3429,-10.7434 L 29.1489,-11.3406 L 28.8815,-11.9088 L 28.5451,-12.4389
 L 28.1448,-12.9227 L 27.6871,-13.3526 L 27.1791,-13.7216 L 26.6289,-14.0241 L 26.0451,-14.2553 L 25.4369,-14.4114
 L 24.8139,-14.4901 L -24.8139,-14.4901 L -25.4369,-14.4114 L -26.0451,-14.2553 L -26.6289,-14.0241 L -27.1791,-13.7216
 L -27.6871,-13.3526 L -28.1448,-12.9227 L -28.5451,-12.4389 L -28.8815,-11.9088 L -29.1489,-11.3406 L -29.3429,-10.7434
 L -29.4606,-10.1267 L -29.5,-9.5 L -29.5,9.5 L -29.4606,10.1267 L -29.3429,10.7434 L -29.1489,11.3406
 L -28.8815,11.9088 L -28.5451,12.4389 L -28.1448,12.9227 L -27.6871,13.3526 L -27.1791,13.7216 L -26.6289,14.0241
 L -26.0451,14.2553 L -25.4369,14.4114 L -24.8139,14.4901 L 24.8139,14.4901 z
M -22.6884,-4.50591 L -23.0621,-4.55313 L -23.427,-4.64682 L -23.7773,-4.78551 L -24.1075,-4.96701 L -24.4123,-5.18845
 L -24.6869,-5.44635 L -24.927,-5.73663 L -25.1289,-6.05473 L -25.2893,-6.39561 L -25.4057,-6.75392 L -25.4763,-7.12399
 L -25.5,-7.5 L -25.4763,-7.87599 L -25.4057,-8.24606 L -25.2893,-8.60437 L -25.1289,-8.94525 L -24.927,-9.26335
 L -24.6869,-9.55363 L -24.4123,-9.81154 L -24.1075,-10.033 L -23.7773,-10.2145 L -23.427,-10.3532 L -23.0621,-10.4469
 L -22.6884,-10.4941 L -22.3116,-10.4941 L -21.9379,-10.4469 L -21.5729,-10.3532 L -21.2227,-10.2145 L -20.8925,-10.033
 L -20.5877,-9.81154 L -20.3131,-9.55363 L -20.0729,-9.26335 L -19.8711,-8.94525 L -19.7107,-8.60437 L -19.5942,-8.24606
 L -19.5237,-7.87599 L -19.5,-7.5 L -19.5237,-7.12399 L -19.5942,-6.75392 L -19.7107,-6.39561 L -19.8711,-6.05473
 L -20.0729,-5.73663 L -20.3131,-5.44635 L -20.5877,-5.18845 L -20.8925,-4.96701 L -21.2227,-4.78551 L -21.5729,-4.64682
 L -21.9379,-4.55313 L -22.3116,-4.50591 z
M 22.3116,-4.50591 L 21.9379,-4.55313 L 21.5729,-4.64682 L 21.2227,-4.78551 L 20.8925,-4.96701 L 20.5877,-5.18845
 L 20.3131,-5.44635 L 20.0729,-5.73663 L 19.8711,-6.05473 L 19.7107,-6.39561 L 19.5942,-6.75392 L 19.5237,-7.12399
 L 19.5,-7.5 L 19.5237,-7.87599 L 19.5942,-8.24606 L 19.7107,-8.60437 L 19.8711,-8.94525 L 20.0729,-9.26335
 L 20.3131,-9.55363 L 20.5877,-9.81154 L 20.8925,-10.033 L 21.2227,-10.2145 L 21.5729,-10.3532 L 21.9379,-10.4469
 L 22.3116,-10.4941 L 22.6884,-10.4941 L 23.0621,-10.4469 L 23.427,-10.3532 L 23.7773,-10.2145 L 24.1075,-10.033
 L 24.4123,-9.81154 L 24.6869,-9.55363 L 24.927,-9.26335 L 25.1289,-8.94525 L 25.2893,-8.60437 L 25.4057,-8.24606
 L 25.4763,-7.87599 L 25.5,-7.5 L 25.4763,-7.12399 L 25.4057,-6.75392 L 25.2893,-6.39561 L 25.1289,-6.05473
 L 24.927,-5.73663 L 24.6869,-5.44635 L 24.4123,-5.18845 L 24.1075,-4.96701 L 23.7773,-4.78551 L 23.427,-4.64682
 L 23.0621,-4.55313 L 22.6884,-4.50591 z
M -10.4057,-8.24606 L -10.2893,-8.60437 L -10.1289,-8.94525 L -9.92705,-9.26335 L -9.6869,-9.55363 L -9.41226,-9.81154
 L -9.10747,-10.033 L -8.77733,-10.2145 L -8.42705,-10.3532 L -8.06213,-10.4469 L -7.68837,-10.4941 L -7.31161,-10.4941
 L -6.93785,-10.4469 L -6.57294,-10.3532 L -6.22266,-10.2145 L -5.89252,-10.033 L -5.58772,-9.81154 L -5.31308,-9.55363
 L -5.07294,-9.26335 L -4.87108,-8.94525 L -4.71066,-8.60437 L -4.59424,-8.24606 L -4.52365,-7.87599 L -4.5,-7.5
 L -4.52365,-7.12399 L -4.59424,-6.75392 L -4.71066,-6.39561 L -4.87108,-6.05473 L -5.07294,-5.73663 L -5.31308,-5.44635
 L -5.58772,-5.18845 L -5.89252,-4.96701 L -6.22266,-4.78551 L -6.57294,-4.64682 L -6.93785,-4.55313 L -7.31161,-4.50591
 L -7.68837,-4.50591 L -8.06213,-4.55313 L -8.42705,-4.64682 L -8.77733,-4.78551 L -9.10747,-4.96701 L -9.41226,-5.18845
 L -9.6869,-5.44635 L -9.92705,-5.73663 L -10.1289,-6.05473 L -10.2893,-6.39561 L -10.4057,-6.75392 L -10.4763,-7.12399
 L -10.5,-7.5 L -10.4763,-7.87599 z
M 4.59424,-8.24606 L 4.71066,-8.60437 L 4.87108,-8.94525 L 5.07294,-9.26335 L 5.31308,-9.55363 L 5.58772,-9.81154
 L 5.89252,-10.033 L 6.22266,-10.2145 L 6.57294,-10.3532 L 6.93785,-10.4469 L 7.31161,-10.4941 L 7.68837,-10.4941
 L 8.06213,-10.4469 L 8.42705,-10.3532 L 8.77733,-10.2145 L 9.10747,-10.033 L 9.41226,-9.81154 L 9.6869,-9.55363
 L 9.92705,-9.26335 L 10.1289,-8.94525 L 10.2893,-8.60437 L 10.4057,-8.24606 L 10.4763,-7.87599 L 10.5,-7.5
 L 10.4763,-7.12399 L 10.4057,-6.75392 L 10.2893,-6.39561 L 10.1289,-6.05473 L 9.92705,-5.73663 L 9.6869,-5.44635
 L 9.41226,-5.18845 L 9.10747,-4.96701 L 8.77733,-4.78551 L 8.42705,-4.64682 L 8.06213,-4.55313 L 7.68837,-4.50591
 L 7.31161,-4.50591 L 6.93785,-4.55313 L 6.57294,-4.64682 L 6.22266,-4.78551 L 5.89252,-4.96701 L 5.58772,-5.18845
 L 5.31308,-5.44635 L 5.07294,-5.73663 L 4.87108,-6.05473 L 4.71066,-6.39561 L 4.59424,-6.75392 L 4.52365,-7.12399
 L 4.5,-7.5 L 4.52365,-7.87599 z
M 14.9058,-6.00294 L 14.7189,-6.02657 L 14.5365,-6.07341 L 14.3613,-6.14275 L 14.1963,-6.23351 L 14.0439,-6.34422
 L 13.9065,-6.47318 L 13.7865,-6.61832 L 13.6855,-6.77736 L 13.6053,-6.9478 L 13.5471,-7.12695 L 13.5118,-7.312
 L 13.5,-7.5 L 13.5118,-7.68799 L 13.5471,-7.87303 L 13.6053,-8.05219 L 13.6855,-8.22263 L 13.7865,-8.38167
 L 13.9065,-8.52681 L 14.0439,-8.65576 L 14.1963,-8.76648 L 14.3613,-8.85724 L 14.5365,-8.92657 L 14.7189,-8.97342
 L 14.9058,-8.99704 L 15.0942,-8.99704 L 15.2811,-8.97342 L 15.4635,-8.92657 L 15.6387,-8.85724 L 15.8037,-8.76648
 L 15.9561,-8.65576 L 16.0934,-8.52681 L 16.2135,-8.38167 L 16.3145,-8.22263 L 16.3947,-8.05219 L 16.4529,-7.87303
 L 16.4882,-7.68799 L 16.5,-7.5 L 16.4882,-7.312 L 16.4529,-7.12695 L 16.3947,-6.9478 L 16.3145,-6.77736
 L 16.2135,-6.61832 L 16.0934,-6.47318 L 15.9561,-6.34422 L 15.8037,-6.23351 L 15.6387,-6.14275 L 15.4635,-6.07341
 L 15.2811,-6.02657 L 15.0942,-6.00294 z
M -22.5942,1.49704 L -22.7811,1.47342 L -22.9635,1.42657 L -23.1387,1.35724 L -23.3037,1.26648 L -23.4561,1.15576
 L -23.5934,1.02681 L -23.7135,0.881668 L -23.8145,0.722626 L -23.8947,0.552185 L -23.9529,0.373032 L -23.9882,0.187988
 L -24,-0 L -23.9882,-0.187988 L -23.9529,-0.373032 L -23.8947,-0.552185 L -23.8145,-0.722626 L -23.7135,-0.881668
 L -23.5934,-1.02681 L -23.4561,-1.15576 L -23.3037,-1.26648 L -23.1387,-1.35724 L -22.9635,-1.42657 L -22.7811,-1.47342
 L -22.5942,-1.49704 L -22.4058,-1.49704 L -22.2189,-1.47342 L -22.0365,-1.42657 L -21.8613,-1.35724 L -21.6963,-1.26648
 L -21.5439,-1.15576 L -21.4065,-1.02681 L -21.2865,-0.881668 L -21.1855,-0.722626 L -21.1053,-0.552185 L -21.0471,-0.373032
 L -21.0118,-0.187988 L -21,-0 L -21.0118,0.187988 L -21.0471,0.373032 L -21.1053,0.552185 L -21.1855,0.722626
 L -21.2865,0.881668 L -21.4065,1.02681 L -21.5439,1.15576 L -21.6963,1.26648 L -21.8613,1.35724 L -22.0365,1.42657
 L -22.2189,1.47342 L -22.4058,1.49704 z
M -0.0941772,1.49704 L -0.281067,1.47342 L -0.463516,1.42657 L -0.638657,1.35724 L -0.803726,1.26648 L -0.956131,1.15576
 L -1.09344,1.02681 L -1.21352,0.881668 L -1.31445,0.722626 L -1.39465,0.552185 L -1.45287,0.373032 L -1.48816,0.187988
 L -1.5,-0 L -1.48816,-0.187988 L -1.45287,-0.373032 L -1.39465,-0.552185 L -1.31445,-0.722626 L -1.21352,-0.881668
 L -1.09344,-1.02681 L -0.956131,-1.15576 L -0.803726,-1.26648 L -0.638657,-1.35724 L -0.463516,-1.42657 L -0.281067,-1.47342
 L -0.0941772,-1.49704 L 0.0941772,-1.49704 L 0.281067,-1.47342 L 0.463516,-1.42657 L 0.638657,-1.35724 L 0.803726,-1.26648
 L 0.956131,-1.15576 L 1.09344,-1.02681 L 1.21352,-0.881668 L 1.31445,-0.722626 L 1.39465,-0.552185 L 1.45287,-0.373032
 L 1.48816,-0.187988 L 1.5,-0 L 1.48816,0.187988 L 1.45287,0.373032 L 1.39465,0.552185 L 1.31445,0.722626
 L 1.21352,0.881668 L 1.09344,1.02681 L 0.956131,1.15576 L 0.803726,1.26648 L 0.638657,1.35724 L 0.463516,1.42657
 L 0.281067,1.47342 L 0.0941772,1.49704 z
M -15.0942,1.49704 L -15.2811,1.47342 L -15.4635,1.42657 L -15.6387,1.35724 L -15.8037,1.26648 L -15.9561,1.15576
 L -16.0934,1.02681 L -16.2135,0.881668 L -16.3145,0.722626 L -16.3947,0.552185 L -16.4529,0.373032 L -16.4882,0.187988
 L -16.5,-0 L -16.4882,-0.187988 L -16.4529,-0.373032 L -16.3947,-0.552185 L -16.3145,-0.722626 L -16.2135,-0.881668
 L -16.0934,-1.02681 L -15.9561,-1.15576 L -15.8037,-1.26648 L -15.6387,-1.35724 L -15.4635,-1.42657 L -15.2811,-1.47342
 L -15.0942,-1.49704 L -14.9058,-1.49704 L -14.7189,-1.47342 L -14.5365,-1.42657 L -14.3613,-1.35724 L -14.1963,-1.26648
 L -14.0439,-1.15576 L -13.9065,-1.02681 L -13.7865,-0.881668 L -13.6855,-0.722626 L -13.6053,-0.552185 L -13.5471,-0.373032
 L -13.5118,-0.187988 L -13.5,-0 L -13.5118,0.187988 L -13.5471,0.373032 L -13.6053,0.552185 L -13.6855,0.722626
 L -13.7865,0.881668 L -13.9065,1.02681 L -14.0439,1.15576 L -14.1963,1.26648 L -14.3613,1.35724 L -14.5365,1.42657
 L -14.7189,1.47342 L -14.9058,1.49704 z
M 14.9058,1.49704 L 14.7189,1.47342 L 14.5365,1.42657 L 14.3613,1.35724 L 14.1963,1.26648 L 14.0439,1.15576
 L 13.9065,1.02681 L 13.7865,0.881668 L 13.6855,0.722626 L 13.6053,0.552185 L 13.5471,0.373032 L 13.5118,0.187988
 L 13.5,-0 L 13.5118,-0.187988 L 13.5471,-0.373032 L 13.6053,-0.552185 L 13.6855,-0.722626 L 13.7865,-0.881668
 L 13.9065,-1.02681 L 14.0439,-1.15576 L 14.1963,-1.26648 L 14.3613,-1.35724 L 14.5365,-1.42657 L 14.7189,-1.47342
 L 14.9058,-1.49704 L 15.0942,-1.49704 L 15.2811,-1.47342 L 15.4635,-1.42657 L 15.6387,-1.35724 L 15.8037,-1.26648
 L 15.9561,-1.15576 L 16.0934,-1.02681 L 16.2135,-0.881668 L 16.3145,-0.722626 L 16.3947,-0.552185 L 16.4529,-0.373032
 L 16.4882,-0.187988 L 16.5,-0 L 16.4882,0.187988 L 16.4529,0.373032 L 16.3947,0.552185 L 16.3145,0.722626
 L 16.2135,0.881668 L 16.0934,1.02681 L 15.9561,1.15576 L 15.8037,1.26648 L 15.6387,1.35724 L 15.4635,1.42657
 L 15.2811,1.47342 L 15.0942,1.49704 z
M 22.4058,1.49704 L 22.2189,1.47342 L 22.0365,1.42657 L 21.8613,1.35724 L 21.6963,1.26648 L 21.5439,1.15576
 L 21.4065,1.02681 L 21.2865,0.881668 L 21.1855,0.722626 L 21.1053,0.552185 L 21.0471,0.373032 L 21.0118,0.187988
 L 21,-0 L 21.0118,-0.187988 L 21.0471,-0.373032 L 21.1053,-0.552185 L 21.1855,-0.722626 L 21.2865,-0.881668
 L 21.4065,-1.02681 L 21.5439,-1.15576 L 21.6963,-1.26648 L 21.8613,-1.35724 L 22.0365,-1.42657 L 22.2189,-1.47342
 L 22.4058,-1.49704 L 22.5942,-1.49704 L 22.7811,-1.47342 L 22.9635,-1.42657 L 23.1387,-1.35724 L 23.3037,-1.26648
 L 23.4561,-1.15576 L 23.5934,-1.02681 L 23.7135,-0.881668 L 23.8145,-0.722626 L 23.8947,-0.552185 L 23.9529,-0.373032
 L 23.9882,-0.187988 L 24,-0 L 23.9882,0.187988 L 23.9529,0.373032 L 23.8947,0.552185 L 23.8145,0.722626
 L 23.7135,0.881668 L 23.5934,1.02681 L 23.4561,1.15576 L 23.3037,1.26648 L 23.1387,1.35724 L 22.9635,1.42657
 L 22.7811,1.47342 L 22.5942,1.49704 z
M 7.40581,1.49704 L 7.21892,1.47342 L 7.03647,1.42657 L 6.86133,1.35724 L 6.69626,1.26648 L 6.54385,1.15576
 L 6.40654,1.02681 L 6.28647,0.881668 L 6.18553,0.722626 L 6.10533,0.552185 L 6.04712,0.373032 L 6.01183,0.187988
 L 6,-0 L 6.01183,-0.187988 L 6.04712,-0.373032 L 6.10533,-0.552185 L 6.18553,-0.722626 L 6.28647,-0.881668
 L 6.40654,-1.02681 L 6.54385,-1.15576 L 6.69626,-1.26648 L 6.86133,-1.35724 L 7.03647,-1.42657 L 7.21892,-1.47342
 L 7.40581,-1.49704 L 7.59418,-1.49704 L 7.78107,-1.47342 L 7.96352,-1.42657 L 8.13866,-1.35724 L 8.30373,-1.26648
 L 8.45613,-1.15576 L 8.59344,-1.02681 L 8.71352,-0.881668 L 8.81445,-0.722626 L 8.89465,-0.552185 L 8.95287,-0.373032
 L 8.98816,-0.187988 L 9,-0 L 8.98816,0.187988 L 8.95287,0.373032 L 8.89465,0.552185 L 8.81445,0.722626
 L 8.71352,0.881668 L 8.59344,1.02681 L 8.45613,1.15576 L 8.30373,1.26648 L 8.13866,1.35724 L 7.96352,1.42657
 L 7.78107,1.47342 L 7.59418,1.49704 z
M -7.59418,1.49704 L -7.78107,1.47342 L -7.96352,1.42657 L -8.13866,1.35724 L -8.30373,1.26648 L -8.45613,1.15576
 L -8.59344,1.02681 L -8.71352,0.881668 L -8.81445,0.722626 L -8.89465,0.552185 L -8.95287,0.373032 L -8.98816,0.187988
 L -9,-0 L -8.98816,-0.187988 L -8.95287,-0.373032 L -8.89465,-0.552185 L -8.81445,-0.722626 L -8.71352,-0.881668
 L -8.59344,-1.02681 L -8.45613,-1.15576 L -8.30373,-1.26648 L -8.13866,-1.35724 L -7.96352,-1.42657 L -7.78107,-1.47342
 L -7.59418,-1.49704 L -7.40581,-1.49704 L -7.21892,-1.47342 L -7.03647,-1.42657 L -6.86133,-1.35724 L -6.69626,-1.26648
 L -6.54385,-1.15576 L -6.40654,-1.02681 L -6.28647,-0.881668 L -6.18553,-0.722626 L -6.10533,-0.552185 L -6.04712,-0.373032
 L -6.01183,-0.187988 L -6,-0 L -6.01183,0.187988 L -6.04712,0.373032 L -6.10533,0.552185 L -6.18553,0.722626
 L -6.28647,0.881668 L -6.40654,1.02681 L -6.54385,1.15576 L -6.69626,1.26648 L -6.86133,1.35724 L -7.03647,1.42657
 L -7.21892,1.47342 L -7.40581,1.49704 z
M -7.68837,10.4941 L -8.06213,10.4469 L -8.42705,10.3532 L -8.77733,10.2145 L -9.10747,10.033 L -9.41226,9.81154
 L -9.6869,9.55363 L -9.92705,9.26335 L -10.1289,8.94525 L -10.2893,8.60437 L -10.4057,8.24606 L -10.4763,7.87599
 L -10.5,7.5 L -10.4763,7.12399 L -10.4057,6.75392 L -10.2893,6.39561 L -10.1289,6.05473 L -9.92705,5.73663
 L -9.6869,5.44635 L -9.41226,5.18845 L -9.10747,4.96701 L -8.77733,4.78551 L -8.42705,4.64682 L -8.06213,4.55313
 L -7.68837,4.50591 L -7.31161,4.50591 L -6.93785,4.55313 L -6.57294,4.64682 L -6.22266,4.78551 L -5.89252,4.96701
 L -5.58772,5.18845 L -5.31308,5.44635 L -5.07294,5.73663 L -4.87108,6.05473 L -4.71066,6.39561 L -4.59424,6.75392
 L -4.52365,7.12399 L -4.5,7.5 L -4.52365,7.87599 L -4.59424,8.24606 L -4.71066,8.60437 L -4.87108,8.94525
 L -5.07294,9.26335 L -5.31308,9.55363 L -5.58772,9.81154 L -5.89252,10.033 L -6.22266,10.2145 L -6.57294,10.3532
 L -6.93785,10.4469 L -7.31161,10.4941 z
M 7.31161,10.4941 L 6.93785,10.4469 L 6.57294,10.3532 L 6.22266,10.2145 L 5.89252,10.033 L 5.58772,9.81154
 L 5.31308,9.55363 L 5.07294,9.26335 L 4.87108,8.94525 L 4.71066,8.60437 L 4.59424,8.24606 L 4.52365,7.87599
 L 4.5,7.5 L 4.52365,7.12399 L 4.59424,6.75392 L 4.71066,6.39561 L 4.87108,6.05473 L 5.07294,5.73663
 L 5.31308,5.44635 L 5.58772,5.18845 L 5.89252,4.96701 L 6.22266,4.78551 L 6.57294,4.64682 L 6.93785,4.55313
 L 7.31161,4.50591 L 7.68837,4.50591 L 8.06213,4.55313 L 8.42705,4.64682 L 8.77733,4.78551 L 9.10747,4.96701
 L 9.41226,5.18845 L 9.6869,5.44635 L 9.92705,5.73663 L 10.1289,6.05473 L 10.2893,6.39561 L 10.4057,6.75392
 L 10.4763,7.12399 L 10.5,7.5 L 10.4763,7.87599 L 10.4057,8.24606 L 10.2893,8.60437 L 10.1289,8.94525
 L 9.92705,9.26335 L 9.6869,9.55363 L 9.41226,9.81154 L 9.10747,10.033 L 8.77733,10.2145 L 8.42705,10.3532
 L 8.06213,10.4469 L 7.68837,10.4941 z
M -22.6884,10.4941 L -23.0621,10.4469 L -23.427,10.3532 L -23.7773,10.2145 L -24.1075,10.033 L -24.4123,9.81154
 L -24.6869,9.55363 L -24.927,9.26335 L -25.1289,8.94525 L -25.2893,8.60437 L -25.4057,8.24606 L -25.4763,7.87599
 L -25.5,7.5 L -25.4763,7.12399 L -25.4057,6.75392 L -25.2893,6.39561 L -25.1289,6.05473 L -24.927,5.73663
 L -24.6869,5.44635 L -24.4123,5.18845 L -24.1075,4.96701 L -23.7773,4.78551 L -23.427,4.64682 L -23.0621,4.55313
 L -22.6884,4.50591 L -22.3116,4.50591 L -21.9379,4.55313 L -21.5729,4.64682 L -21.2227,4.78551 L -20.8925,4.96701
 L -20.5877,5.18845 L -20.3131,5.44635 L -20.0729,5.73663 L -19.8711,6.05473 L -19.7107,6.39561 L -19.5942,6.75392
 L -19.5237,7.12399 L -19.5,7.5 L -19.5237,7.87599 L -19.5942,8.24606 L -19.7107,8.60437 L -19.8711,8.94525
 L -20.0729,9.26335 L -20.3131,9.55363 L -20.5877,9.81154 L -20.8925,10.033 L -21.2227,10.2145 L -21.5729,10.3532
 L -21.9379,10.4469 L -22.3116,10.4941 z
M 22.3116,10.4941 L 21.9379,10.4469 L 21.5729,10.3532 L 21.2227,10.2145 L 20.8925,10.033 L 20.5877,9.81154
 L 20.3131,9.55363 L 20.0729,9.26335 L 19.8711,8.94525 L 19.7107,8.60437 L 19.5942,8.24606 L 19.5237,7.87599
 L 19.5,7.5 L 19.5237,7.12399 L 19.5942,6.75392 L 19.7107,6.39561 L 19.8711,6.05473 L 20.0729,5.73663
 L 20.3131,5.44635 L 20.5877,5.18845 L 20.8925,4.96701 L 21.2227,4.78551 L 21.5729,4.64682 L 21.9379,4.55313
 L 22.3116,4.50591 L 22.6884,4.50591 L 23.0621,4.55313 L 23.427,4.64682 L 23.7773,4.78551 L 24.1075,4.96701
 L 24.4123,5.18845 L 24.6869,5.44635 L 24.927,5.73663 L 25.1289,6.05473 L 25.2893,6.39561 L 25.4057,6.75392
 L 25.4763,7.12399 L 25.5,7.5 L 25.4763,7.87599 L 25.4057,8.24606 L 25.2893,8.60437 L 25.1289,8.94525
 L 24.927,9.26335 L 24.6869,9.55363 L 24.4123,9.81154 L 24.1075,10.033 L 23.7773,10.2145 L 23.427,10.3532
 L 23.0621,10.4469 L 22.6884,10.4941 z
M -0.0941772,8.99704 L -0.281067,8.97342 L -0.463516,8.92657 L -0.638657,8.85724 L -0.803726,8.76648 L -0.956131,8.65576
 L -1.09344,8.52681 L -1.21352,8.38167 L -1.31445,8.22263 L -1.39465,8.05219 L -1.45287,7.87303 L -1.48816,7.68799
 L -1.5,7.5 L -1.48816,7.312 L -1.45287,7.12695 L -1.39465,6.9478 L -1.31445,6.77736 L -1.21352,6.61832
 L -1.09344,6.47318 L -0.956131,6.34422 L -0.803726,6.23351 L -0.638657,6.14275 L -0.463516,6.07341 L -0.281067,6.02657
 L -0.0941772,6.00294 L 0.0941772,6.00294 L 0.281067,6.02657 L 0.463516,6.07341 L 0.638657,6.14275 L 0.803726,6.23351
 L 0.956131,6.34422 L 1.09344,6.47318 L 1.21352,6.61832 L 1.31445,6.77736 L 1.39465,6.9478 L 1.45287,7.12695
 L 1.48816,7.312 L 1.5,7.5 L 1.48816,7.68799 L 1.45287,7.87303 L 1.39465,8.05219 L 1.31445,8.22263
 L 1.21352,8.38167 L 1.09344,8.52681 L 0.956131,8.65576 L 0.803726,8.76648 L 0.638657,8.85724 L 0.463516,8.92657
 L 0.281067,8.97342 L 0.0941772,8.99704 z
M 14.9058,8.99704 L 14.7189,8.97342 L 14.5365,8.92657 L 14.3613,8.85724 L 14.1963,8.76648 L 14.0439,8.65576
 L 13.9065,8.52681 L 13.7865,8.38167 L 13.6855,8.22263 L 13.6053,8.05219 L 13.5471,7.87303 L 13.5118,7.68799
 L 13.5,7.5 L 13.5118,7.312 L 13.5471,7.12695 L 13.6053,6.9478 L 13.6855,6.77736 L 13.7865,6.61832
 L 13.9065,6.47318 L 14.0439,6.34422 L 14.1963,6.23351 L 14.3613,6.14275 L 14.5365,6.07341 L 14.7189,6.02657
 L 14.9058,6.00294 L 15.0942,6.00294 L 15.2811,6.02657 L 15.4635,6.07341 L 15.6387,6.14275 L 15.8037,6.23351
 L 15.9561,6.34422 L 16.0934,6.47318 L 16.2135,6.61832 L 16.3145,6.77736 L 16.3947,6.9478 L 16.4529,7.12695
 L 16.4882,7.312 L 16.5,7.5 L 16.4882,7.68799 L 16.4529,7.87303 L 16.3947,8.05219 L 16.3145,8.22263
 L 16.2135,8.38167 L 16.0934,8.52681 L 15.9561,8.65576 L 15.8037,8.76648 L 15.6387,8.85724 L 15.4635,8.92657
 L 15.2811,8.97342 L 15.0942,8.99704 z
M -15.0942,8.99704 L -15.2811,8.97342 L -15.4635,8.92657 L -15.6387,8.85724 L -15.8037,8.76648 L -15.9561,8.65576
 L -16.0934,8.52681 L -16.2135,8.38167 L -16.3145,8.22263 L -16.3947,8.05219 L -16.4529,7.87303 L -16.4882,7.68799
 L -16.5,7.5 L -16.4882,7.312 L -16.4529,7.12695 L -16.3947,6.9478 L -16.3145,6.77736 L -16.2135,6.61832
 L -16.0934,6.47318 L -15.9561,6.34422 L -15.8037,6.23351 L -15.6387,6.14275 L -15.4635,6.07341 L -15.2811,6.02657
 L -15.0942,6.00294 L -14.9058,6.00294 L -14.7189,6.02657 L -14.5365,6.07341 L -14.3613,6.14275 L -14.1963,6.23351
 L -14.0439,6.34422 L -13.9065,6.47318 L -13.7865,6.61832 L -13.6855,6.77736 L -13.6053,6.9478 L -13.5471,7.12695
 L -13.5118,7.312 L -13.5,7.5 L -13.5118,7.68799 L -13.5471,7.87303 L -13.6053,8.05219 L -13.6855,8.22263
 L -13.7865,8.38167 L -13.9065,8.52681 L -14.0439,8.65576 L -14.1963,8.76648 L -14.3613,8.85724 L -14.5365,8.92657
 L -14.7189,8.97342 L -14.9058,8.99704 z
M 1.45287,-7.12695 L 1.39465,-6.9478 L 1.31445,-6.77736 L 1.21352,-6.61832 L 1.09344,-6.47318 L 0.956131,-6.34422
 L 0.803726,-6.23351 L 0.638657,-6.14275 L 0.463516,-6.07341 L 0.281067,-6.02657 L 0.0941772,-6.00294 L -0.0941772,-6.00294
 L -0.281067,-6.02657 L -0.463516,-6.07341 L -0.638657,-6.14275 L -0.803726,-6.23351 L -0.956131,-6.34422 L -1.09344,-6.47318
 L -1.21352,-6.61832 L -1.31445,-6.77736 L -1.39465,-6.9478 L -1.45287,-7.12695 L -1.48816,-7.312 L -1.5,-7.5
 L -1.48816,-7.68799 L -1.45287,-7.87303 L -1.39465,-8.05219 L -1.31445,-8.22263 L -1.21352,-8.38167 L -1.09344,-8.52681
 L -0.956131,-8.65576 L -0.803726,-8.76648 L -0.638657,-8.85724 L -0.463516,-8.92657 L -0.281067,-8.97342 L -0.0941772,-8.99704
 L 0.0941772,-8.99704 L 0.281067,-8.97342 L 0.463516,-8.92657 L 0.638657,-8.85724 L 0.803726,-8.76648 L 0.956131,-8.65576
 L 1.09344,-8.52681 L 1.21352,-8.38167 L 1.31445,-8.22263 L 1.39465,-8.05219 L 1.45287,-7.87303 L 1.48816,-7.68799
 L 1.5,-7.5 L 1.48816,-7.312 z
M -13.5471,-7.12695 L -13.6053,-6.9478 L -13.6855,-6.77736 L -13.7865,-6.61832 L -13.9065,-6.47318 L -14.0439,-6.34422
 L -14.1963,-6.23351 L -14.3613,-6.14275 L -14.5365,-6.07341 L -14.7189,-6.02657 L -14.9058,-6.00294 L -15.0942,-6.00294
 L -15.2811,-6.02657 L -15.4635,-6.07341 L -15.6387,-6.14275 L -15.8037,-6.23351 L -15.9561,-6.34422 L -16.0934,-6.47318
 L -16.2135,-6.61832 L -16.3145,-6.77736 L -16.3947,-6.9478 L -16.4529,-7.12695 L -16.4882,-7.312 L -16.5,-7.5
 L -16.4882,-7.68799 L -16.4529,-7.87303 L -16.3947,-8.05219 L -16.3145,-8.22263 L -16.2135,-8.38167 L -16.0934,-8.52681
 L -15.9561,-8.65576 L -15.8037,-8.76648 L -15.6387,-8.85724 L -15.4635,-8.92657 L -15.2811,-8.97342 L -15.0942,-8.99704
 L -14.9058,-8.99704 L -14.7189,-8.97342 L -14.5365,-8.92657 L -14.3613,-8.85724 L -14.1963,-8.76648 L -14.0439,-8.65576
 L -13.9065,-8.52681 L -13.7865,-8.38167 L -13.6855,-8.22263 L -13.6053,-8.05219 L -13.5471,-7.87303 L -13.5118,-7.68799
 L -13.5,-7.5 L -13.5118,-7.312 z
" stroke="black" fill="lightgray" stroke-width="0.5"/>
</svg>
