solid OpenSCAD_Model
  facet normal 0.866025 -0.500001 5.88765e-18
    outer loop
      vertex 2.308 -3.99756 12
      vertex 4.616 0 0
      vertex 4.616 0 12
    endloop
  endfacet
  facet normal 0.866025 -0.500001 5.88765e-18
    outer loop
      vertex 4.616 0 0
      vertex 2.308 -3.99756 12
      vertex 2.308 -3.99756 0
    endloop
  endfacet
  facet normal -0 0 -1
    outer loop
      vertex 4.616 0 0
      vertex 2.48029 -0.313333 0
      vertex 2.5 0 0
    endloop
  endfacet
  facet normal 0 0 -1
    outer loop
      vertex 4.616 0 0
      vertex 2.42146 -0.621724 0
      vertex 2.48029 -0.313333 0
    endloop
  endfacet
  facet normal 0 0 -1
    outer loop
      vertex 4.616 0 0
      vertex 2.32444 -0.920311 0
      vertex 2.42146 -0.621724 0
    endloop
  endfacet
  facet normal 0 0 -1
    outer loop
      vertex 2.19077 -1.20438 0
      vertex 4.616 0 0
      vertex 2.308 -3.99756 0
    endloop
  endfacet
  facet normal 0 0 -1
    outer loop
      vertex 4.616 0 0
      vertex 2.19077 -1.20438 0
      vertex 2.32444 -0.920311 0
    endloop
  endfacet
  facet normal 0 0 -1
    outer loop
      vertex 2.308 -3.99756 0
      vertex 2.02254 -1.46946 0
      vertex 2.19077 -1.20438 0
    endloop
  endfacet
  facet normal 0 0 -1
    outer loop
      vertex 2.308 -3.99756 0
      vertex 1.82242 -1.71137 0
      vertex 2.02254 -1.46946 0
    endloop
  endfacet
  facet normal 0 0 -1
    outer loop
      vertex 2.308 -3.99756 0
      vertex 1.59356 -1.92628 0
      vertex 1.82242 -1.71137 0
    endloop
  endfacet
  facet normal 0 0 -1
    outer loop
      vertex 2.308 -3.99756 0
      vertex 1.33957 -2.11082 0
      vertex 1.59356 -1.92628 0
    endloop
  endfacet
  facet normal 0 0 -1
    outer loop
      vertex 2.308 -3.99756 0
      vertex 1.06445 -2.26207 0
      vertex 1.33957 -2.11082 0
    endloop
  endfacet
  facet normal 0 0 -1
    outer loop
      vertex 2.308 -3.99756 0
      vertex 0.772542 -2.37764 0
      vertex 1.06445 -2.26207 0
    endloop
  endfacet
  facet normal 0 0 -1
    outer loop
      vertex 2.308 -3.99756 0
      vertex 0.468452 -2.45572 0
      vertex 0.772542 -2.37764 0
    endloop
  endfacet
  facet normal 0 0 -1
    outer loop
      vertex 2.308 -3.99756 0
      vertex 0.156976 -2.49507 0
      vertex 0.468452 -2.45572 0
    endloop
  endfacet
  facet normal 0 0 -1
    outer loop
      vertex 2.308 -3.99756 0
      vertex -0.156976 -2.49507 0
      vertex 0.156976 -2.49507 0
    endloop
  endfacet
  facet normal 0 0 -1
    outer loop
      vertex -2.308 -3.99756 0
      vertex -0.156976 -2.49507 0
      vertex 2.308 -3.99756 0
    endloop
  endfacet
  facet normal -0 0 -1
    outer loop
      vertex -0.156976 -2.49507 0
      vertex -2.308 -3.99756 0
      vertex -0.468452 -2.45572 0
    endloop
  endfacet
  facet normal -0 0 -1
    outer loop
      vertex -0.468452 -2.45572 0
      vertex -2.308 -3.99756 0
      vertex -0.772542 -2.37764 0
    endloop
  endfacet
  facet normal -0 0 -1
    outer loop
      vertex -0.772542 -2.37764 0
      vertex -2.308 -3.99756 0
      vertex -1.06445 -2.26207 0
    endloop
  endfacet
  facet normal 0 0 -1
    outer loop
      vertex -2.308 -3.99756 0
      vertex -1.33957 -2.11082 0
      vertex -1.06445 -2.26207 0
    endloop
  endfacet
  facet normal 0 0 -1
    outer loop
      vertex -2.308 -3.99756 0
      vertex -1.59356 -1.92628 0
      vertex -1.33957 -2.11082 0
    endloop
  endfacet
  facet normal 0 0 -1
    outer loop
      vertex -2.308 -3.99756 0
      vertex -1.82242 -1.71137 0
      vertex -1.59356 -1.92628 0
    endloop
  endfacet
  facet normal 0 0 -1
    outer loop
      vertex -2.308 -3.99756 0
      vertex -2.02254 -1.46946 0
      vertex -1.82242 -1.71137 0
    endloop
  endfacet
  facet normal 0 0 -1
    outer loop
      vertex -2.308 -3.99756 0
      vertex -2.19077 -1.20438 0
      vertex -2.02254 -1.46946 0
    endloop
  endfacet
  facet normal 0 0 -1
    outer loop
      vertex -4.616 0 0
      vertex -2.19077 -1.20438 0
      vertex -2.308 -3.99756 0
    endloop
  endfacet
  facet normal 0 0 -1
    outer loop
      vertex -2.19077 -1.20438 0
      vertex -4.616 0 0
      vertex -2.32444 -0.920311 0
    endloop
  endfacet
  facet normal 0 0 -1
    outer loop
      vertex -2.32444 -0.920311 0
      vertex -4.616 0 0
      vertex -2.42146 -0.621724 0
    endloop
  endfacet
  facet normal 0 0 -1
    outer loop
      vertex -2.42146 -0.621724 0
      vertex -4.616 0 0
      vertex -2.48029 -0.313333 0
    endloop
  endfacet
  facet normal 0 0 -1
    outer loop
      vertex -2.48029 -0.313333 0
      vertex -4.616 0 0
      vertex -2.5 0 0
    endloop
  endfacet
  facet normal 0 0 -1
    outer loop
      vertex 2.48029 0.313333 0
      vertex 4.616 0 0
      vertex 2.5 0 0
    endloop
  endfacet
  facet normal 0 0 -1
    outer loop
      vertex 2.42146 0.621724 0
      vertex 4.616 0 0
      vertex 2.48029 0.313333 0
    endloop
  endfacet
  facet normal 0 0 -1
    outer loop
      vertex 2.32444 0.920311 0
      vertex 4.616 0 0
      vertex 2.42146 0.621724 0
    endloop
  endfacet
  facet normal 0 0 -1
    outer loop
      vertex 2.19077 1.20438 0
      vertex 4.616 0 0
      vertex 2.32444 0.920311 0
    endloop
  endfacet
  facet normal 0 0 -1
    outer loop
      vertex 4.616 0 0
      vertex 2.19077 1.20438 0
      vertex 2.308 3.99756 0
    endloop
  endfacet
  facet normal 0 0 -1
    outer loop
      vertex 2.02254 1.46946 0
      vertex 2.308 3.99756 0
      vertex 2.19077 1.20438 0
    endloop
  endfacet
  facet normal 0 0 -1
    outer loop
      vertex 1.82242 1.71137 0
      vertex 2.308 3.99756 0
      vertex 2.02254 1.46946 0
    endloop
  endfacet
  facet normal 0 0 -1
    outer loop
      vertex 1.59356 1.92628 0
      vertex 2.308 3.99756 0
      vertex 1.82242 1.71137 0
    endloop
  endfacet
  facet normal 0 0 -1
    outer loop
      vertex 1.33957 2.11082 0
      vertex 2.308 3.99756 0
      vertex 1.59356 1.92628 0
    endloop
  endfacet
  facet normal 0 0 -1
    outer loop
      vertex 1.06445 2.26207 0
      vertex 2.308 3.99756 0
      vertex 1.33957 2.11082 0
    endloop
  endfacet
  facet normal 0 0 -1
    outer loop
      vertex 0.772542 2.37764 0
      vertex 2.308 3.99756 0
      vertex 1.06445 2.26207 0
    endloop
  endfacet
  facet normal 0 0 -1
    outer loop
      vertex 0.468452 2.45572 0
      vertex 2.308 3.99756 0
      vertex 0.772542 2.37764 0
    endloop
  endfacet
  facet normal 0 0 -1
    outer loop
      vertex 0.156976 2.49507 0
      vertex 2.308 3.99756 0
      vertex 0.468452 2.45572 0
    endloop
  endfacet
  facet normal 0 0 -1
    outer loop
      vertex -0.156976 2.49507 0
      vertex 2.308 3.99756 0
      vertex 0.156976 2.49507 0
    endloop
  endfacet
  facet normal 0 0 -1
    outer loop
      vertex -2.308 3.99756 0
      vertex -0.156976 2.49507 0
      vertex -0.468452 2.45572 0
    endloop
  endfacet
  facet normal 0 0 -1
    outer loop
      vertex -2.308 3.99756 0
      vertex -0.468452 2.45572 0
      vertex -0.772542 2.37764 0
    endloop
  endfacet
  facet normal 0 0 -1
    outer loop
      vertex -2.308 3.99756 0
      vertex -0.772542 2.37764 0
      vertex -1.06445 2.26207 0
    endloop
  endfacet
  facet normal 0 0 -1
    outer loop
      vertex -0.156976 2.49507 0
      vertex -2.308 3.99756 0
      vertex 2.308 3.99756 0
    endloop
  endfacet
  facet normal 0 0 -1
    outer loop
      vertex -1.33957 2.11082 0
      vertex -2.308 3.99756 0
      vertex -1.06445 2.26207 0
    endloop
  endfacet
  facet normal 0 0 -1
    outer loop
      vertex -1.59356 1.92628 0
      vertex -2.308 3.99756 0
      vertex -1.33957 2.11082 0
    endloop
  endfacet
  facet normal 0 0 -1
    outer loop
      vertex -1.82242 1.71137 0
      vertex -2.308 3.99756 0
      vertex -1.59356 1.92628 0
    endloop
  endfacet
  facet normal 0 0 -1
    outer loop
      vertex -2.02254 1.46946 0
      vertex -2.308 3.99756 0
      vertex -1.82242 1.71137 0
    endloop
  endfacet
  facet normal 0 0 -1
    outer loop
      vertex -2.19077 1.20438 0
      vertex -2.308 3.99756 0
      vertex -2.02254 1.46946 0
    endloop
  endfacet
  facet normal 0 0 -1
    outer loop
      vertex -4.616 0 0
      vertex -2.19077 1.20438 0
      vertex -2.32444 0.920311 0
    endloop
  endfacet
  facet normal 0 0 -1
    outer loop
      vertex -4.616 0 0
      vertex -2.32444 0.920311 0
      vertex -2.42146 0.621724 0
    endloop
  endfacet
  facet normal 0 0 -1
    outer loop
      vertex -4.616 0 0
      vertex -2.42146 0.621724 0
      vertex -2.48029 0.313333 0
    endloop
  endfacet
  facet normal 0 0 -1
    outer loop
      vertex -4.616 0 0
      vertex -2.48029 0.313333 0
      vertex -2.5 0 0
    endloop
  endfacet
  facet normal -0 0 -1
    outer loop
      vertex -2.19077 1.20438 0
      vertex -4.616 0 0
      vertex -2.308 3.99756 0
    endloop
  endfacet
  facet normal 0.866025 0.500001 -5.88765e-18
    outer loop
      vertex 4.616 0 12
      vertex 2.308 3.99756 0
      vertex 2.308 3.99756 12
    endloop
  endfacet
  facet normal 0.866025 0.500001 -5.88765e-18
    outer loop
      vertex 2.308 3.99756 0
      vertex 4.616 0 12
      vertex 4.616 0 0
    endloop
  endfacet
  facet normal -0.866025 -0.500001 -5.88765e-18
    outer loop
      vertex -2.308 -3.99756 0
      vertex -4.616 0 12
      vertex -4.616 0 0
    endloop
  endfacet
  facet normal -0.866025 -0.500001 -5.88765e-18
    outer loop
      vertex -4.616 0 12
      vertex -2.308 -3.99756 0
      vertex -2.308 -3.99756 12
    endloop
  endfacet
  facet normal 0 0 1
    outer loop
      vertex 2.308 3.99756 12
      vertex 2.308 -3.99756 12
      vertex 4.616 0 12
    endloop
  endfacet
  facet normal -0 0 1
    outer loop
      vertex -2.308 3.99756 12
      vertex 2.308 -3.99756 12
      vertex 2.308 3.99756 12
    endloop
  endfacet
  facet normal 0 0 1
    outer loop
      vertex -2.308 3.99756 12
      vertex -2.308 -3.99756 12
      vertex 2.308 -3.99756 12
    endloop
  endfacet
  facet normal 0 -0 1
    outer loop
      vertex -2.308 -3.99756 12
      vertex -2.308 3.99756 12
      vertex -4.616 0 12
    endloop
  endfacet
  facet normal 0 -1 0
    outer loop
      vertex -2.308 -3.99756 0
      vertex 2.308 -3.99756 12
      vertex -2.308 -3.99756 12
    endloop
  endfacet
  facet normal 0 -1 -0
    outer loop
      vertex 2.308 -3.99756 12
      vertex -2.308 -3.99756 0
      vertex 2.308 -3.99756 0
    endloop
  endfacet
  facet normal -0.866025 0.500001 5.88765e-18
    outer loop
      vertex -4.616 0 0
      vertex -2.308 3.99756 12
      vertex -2.308 3.99756 0
    endloop
  endfacet
  facet normal -0.866025 0.500001 5.88765e-18
    outer loop
      vertex -2.308 3.99756 12
      vertex -4.616 0 0
      vertex -4.616 0 12
    endloop
  endfacet
  facet normal 0 1 -0
    outer loop
      vertex 2.308 3.99756 0
      vertex -2.308 3.99756 12
      vertex 2.308 3.99756 12
    endloop
  endfacet
  facet normal 0 1 0
    outer loop
      vertex -2.308 3.99756 12
      vertex 2.308 3.99756 0
      vertex -2.308 3.99756 0
    endloop
  endfacet
  facet normal 0.90483 0.425772 3.95708e-19
    outer loop
      vertex 2.32444 0.920311 0
      vertex 2.19077 1.20438 -12
      vertex 2.19077 1.20438 0
    endloop
  endfacet
  facet normal 0.90483 0.425772 3.95708e-19
    outer loop
      vertex 2.19077 1.20438 -12
      vertex 2.32444 0.920311 0
      vertex 2.32444 0.920311 -12
    endloop
  endfacet
  facet normal 0.844321 0.535838 -2.32921e-19
    outer loop
      vertex 2.19077 1.20438 0
      vertex 2.02254 1.46946 -12
      vertex 2.02254 1.46946 0
    endloop
  endfacet
  facet normal 0.844321 0.535838 -2.32921e-19
    outer loop
      vertex 2.02254 1.46946 -12
      vertex 2.19077 1.20438 0
      vertex 2.19077 1.20438 -12
    endloop
  endfacet
  facet normal 0.368112 0.929781 -0
    outer loop
      vertex 1.06445 2.26207 -12
      vertex 0.772542 2.37764 0
      vertex 1.06445 2.26207 0
    endloop
  endfacet
  facet normal 0.368112 0.929781 0
    outer loop
      vertex 0.772542 2.37764 0
      vertex 1.06445 2.26207 -12
      vertex 0.772542 2.37764 -12
    endloop
  endfacet
  facet normal -0.368112 0.929781 0
    outer loop
      vertex -0.772542 2.37764 -12
      vertex -1.06445 2.26207 0
      vertex -0.772542 2.37764 0
    endloop
  endfacet
  facet normal -0.368112 0.929781 0
    outer loop
      vertex -1.06445 2.26207 0
      vertex -0.772542 2.37764 -12
      vertex -1.06445 2.26207 -12
    endloop
  endfacet
  facet normal -0.90483 0.425772 -3.95708e-19
    outer loop
      vertex -2.32444 0.920311 -12
      vertex -2.19077 1.20438 0
      vertex -2.19077 1.20438 -12
    endloop
  endfacet
  facet normal -0.90483 0.425772 -3.95708e-19
    outer loop
      vertex -2.19077 1.20438 0
      vertex -2.32444 0.920311 -12
      vertex -2.32444 0.920311 0
    endloop
  endfacet
  facet normal 0.998027 -0.0627802 -1.08593e-19
    outer loop
      vertex 2.48029 -0.313333 0
      vertex 2.5 0 -12
      vertex 2.5 0 0
    endloop
  endfacet
  facet normal 0.998027 -0.0627802 -1.08593e-19
    outer loop
      vertex 2.5 0 -12
      vertex 2.48029 -0.313333 0
      vertex 2.48029 -0.313333 -12
    endloop
  endfacet
  facet normal 0.684541 0.728975 -0
    outer loop
      vertex 1.82242 1.71137 -12
      vertex 1.59356 1.92628 0
      vertex 1.82242 1.71137 0
    endloop
  endfacet
  facet normal 0.684541 0.728975 0
    outer loop
      vertex 1.59356 1.92628 0
      vertex 1.82242 1.71137 -12
      vertex 1.59356 1.92628 -12
    endloop
  endfacet
  facet normal 0.125338 0.992114 -0
    outer loop
      vertex 0.468452 2.45572 -12
      vertex 0.156976 2.49507 0
      vertex 0.468452 2.45572 0
    endloop
  endfacet
  facet normal 0.125338 0.992114 0
    outer loop
      vertex 0.156976 2.49507 0
      vertex 0.468452 2.45572 -12
      vertex 0.156976 2.49507 -12
    endloop
  endfacet
  facet normal 0.481757 0.876305 -0
    outer loop
      vertex 1.33957 2.11082 -12
      vertex 1.06445 2.26207 0
      vertex 1.33957 2.11082 0
    endloop
  endfacet
  facet normal 0.481757 0.876305 0
    outer loop
      vertex 1.06445 2.26207 0
      vertex 1.33957 2.11082 -12
      vertex 1.06445 2.26207 -12
    endloop
  endfacet
  facet normal -0.998027 0.0627802 -1.08593e-19
    outer loop
      vertex -2.5 0 -12
      vertex -2.48029 0.313333 0
      vertex -2.48029 0.313333 -12
    endloop
  endfacet
  facet normal -0.998027 0.0627802 -1.08593e-19
    outer loop
      vertex -2.48029 0.313333 0
      vertex -2.5 0 -12
      vertex -2.5 0 0
    endloop
  endfacet
  facet normal -0.770522 0.637414 -6.09733e-19
    outer loop
      vertex -2.02254 1.46946 -12
      vertex -1.82242 1.71137 0
      vertex -1.82242 1.71137 -12
    endloop
  endfacet
  facet normal -0.770522 0.637414 -6.09733e-19
    outer loop
      vertex -1.82242 1.71137 0
      vertex -2.02254 1.46946 -12
      vertex -2.02254 1.46946 0
    endloop
  endfacet
  facet normal -0.125338 0.992114 0
    outer loop
      vertex -0.156976 2.49507 -12
      vertex -0.468452 2.45572 0
      vertex -0.156976 2.49507 0
    endloop
  endfacet
  facet normal -0.125338 0.992114 0
    outer loop
      vertex -0.468452 2.45572 0
      vertex -0.156976 2.49507 -12
      vertex -0.468452 2.45572 -12
    endloop
  endfacet
  facet normal -0.684541 0.728975 0
    outer loop
      vertex -1.59356 1.92628 -12
      vertex -1.82242 1.71137 0
      vertex -1.59356 1.92628 0
    endloop
  endfacet
  facet normal -0.684541 0.728975 0
    outer loop
      vertex -1.82242 1.71137 0
      vertex -1.59356 1.92628 -12
      vertex -1.82242 1.71137 -12
    endloop
  endfacet
  facet normal 0.90483 -0.425772 -3.95708e-19
    outer loop
      vertex 2.19077 -1.20438 0
      vertex 2.32444 -0.920311 -12
      vertex 2.32444 -0.920311 0
    endloop
  endfacet
  facet normal 0.90483 -0.425772 -3.95708e-19
    outer loop
      vertex 2.32444 -0.920311 -12
      vertex 2.19077 -1.20438 0
      vertex 2.19077 -1.20438 -12
    endloop
  endfacet
  facet normal -0.684541 -0.728975 0
    outer loop
      vertex -1.82242 -1.71137 -12
      vertex -1.59356 -1.92628 0
      vertex -1.82242 -1.71137 0
    endloop
  endfacet
  facet normal -0.684541 -0.728975 -0
    outer loop
      vertex -1.59356 -1.92628 0
      vertex -1.82242 -1.71137 -12
      vertex -1.59356 -1.92628 -12
    endloop
  endfacet
  facet normal -0.90483 -0.425772 3.95708e-19
    outer loop
      vertex -2.19077 -1.20438 -12
      vertex -2.32444 -0.920311 0
      vertex -2.32444 -0.920311 -12
    endloop
  endfacet
  facet normal -0.90483 -0.425772 3.95708e-19
    outer loop
      vertex -2.32444 -0.920311 0
      vertex -2.19077 -1.20438 -12
      vertex -2.19077 -1.20438 0
    endloop
  endfacet
  facet normal 0.481757 -0.876305 0
    outer loop
      vertex 1.06445 -2.26207 -12
      vertex 1.33957 -2.11082 0
      vertex 1.06445 -2.26207 0
    endloop
  endfacet
  facet normal 0.481757 -0.876305 0
    outer loop
      vertex 1.33957 -2.11082 0
      vertex 1.06445 -2.26207 -12
      vertex 1.33957 -2.11082 -12
    endloop
  endfacet
  facet normal 0.982287 0.187385 7.82411e-20
    outer loop
      vertex 2.48029 0.313333 0
      vertex 2.42146 0.621724 -12
      vertex 2.42146 0.621724 0
    endloop
  endfacet
  facet normal 0.982287 0.187385 7.82411e-20
    outer loop
      vertex 2.42146 0.621724 -12
      vertex 2.48029 0.313333 0
      vertex 2.48029 0.313333 -12
    endloop
  endfacet
  facet normal 0.951054 0.309026 -4.13686e-19
    outer loop
      vertex 2.42146 0.621724 0
      vertex 2.32444 0.920311 -12
      vertex 2.32444 0.920311 0
    endloop
  endfacet
  facet normal 0.951054 0.309026 -4.13686e-19
    outer loop
      vertex 2.32444 0.920311 -12
      vertex 2.42146 0.621724 0
      vertex 2.42146 0.621724 -12
    endloop
  endfacet
  facet normal 0.770522 0.637414 6.09733e-19
    outer loop
      vertex 2.02254 1.46946 0
      vertex 1.82242 1.71137 -12
      vertex 1.82242 1.71137 0
    endloop
  endfacet
  facet normal 0.770522 0.637414 6.09733e-19
    outer loop
      vertex 1.82242 1.71137 -12
      vertex 2.02254 1.46946 0
      vertex 2.02254 1.46946 -12
    endloop
  endfacet
  facet normal 0 1 -0
    outer loop
      vertex 0.156976 2.49507 -12
      vertex -0.156976 2.49507 0
      vertex 0.156976 2.49507 0
    endloop
  endfacet
  facet normal 0 1 0
    outer loop
      vertex -0.156976 2.49507 0
      vertex 0.156976 2.49507 -12
      vertex -0.156976 2.49507 -12
    endloop
  endfacet
  facet normal 0.248699 0.968581 -0
    outer loop
      vertex 0.772542 2.37764 -12
      vertex 0.468452 2.45572 0
      vertex 0.772542 2.37764 0
    endloop
  endfacet
  facet normal 0.248699 0.968581 0
    outer loop
      vertex 0.468452 2.45572 0
      vertex 0.772542 2.37764 -12
      vertex 0.468452 2.45572 -12
    endloop
  endfacet
  facet normal 0.587797 0.809009 -0
    outer loop
      vertex 1.59356 1.92628 -12
      vertex 1.33957 2.11082 0
      vertex 1.59356 1.92628 0
    endloop
  endfacet
  facet normal 0.587797 0.809009 0
    outer loop
      vertex 1.33957 2.11082 0
      vertex 1.59356 1.92628 -12
      vertex 1.33957 2.11082 -12
    endloop
  endfacet
  facet normal -0.951054 0.309026 4.13686e-19
    outer loop
      vertex -2.42146 0.621724 -12
      vertex -2.32444 0.920311 0
      vertex -2.32444 0.920311 -12
    endloop
  endfacet
  facet normal -0.951054 0.309026 4.13686e-19
    outer loop
      vertex -2.32444 0.920311 0
      vertex -2.42146 0.621724 -12
      vertex -2.42146 0.621724 0
    endloop
  endfacet
  facet normal -0.982287 0.187385 -7.82411e-20
    outer loop
      vertex -2.48029 0.313333 -12
      vertex -2.42146 0.621724 0
      vertex -2.42146 0.621724 -12
    endloop
  endfacet
  facet normal -0.982287 0.187385 -7.82411e-20
    outer loop
      vertex -2.42146 0.621724 0
      vertex -2.48029 0.313333 -12
      vertex -2.48029 0.313333 0
    endloop
  endfacet
  facet normal -0.844321 0.535838 2.32921e-19
    outer loop
      vertex -2.19077 1.20438 -12
      vertex -2.02254 1.46946 0
      vertex -2.02254 1.46946 -12
    endloop
  endfacet
  facet normal -0.844321 0.535838 2.32921e-19
    outer loop
      vertex -2.02254 1.46946 0
      vertex -2.19077 1.20438 -12
      vertex -2.19077 1.20438 0
    endloop
  endfacet
  facet normal -0.248699 0.968581 0
    outer loop
      vertex -0.468452 2.45572 -12
      vertex -0.772542 2.37764 0
      vertex -0.468452 2.45572 0
    endloop
  endfacet
  facet normal -0.248699 0.968581 0
    outer loop
      vertex -0.772542 2.37764 0
      vertex -0.468452 2.45572 -12
      vertex -0.772542 2.37764 -12
    endloop
  endfacet
  facet normal -0.587797 0.809009 0
    outer loop
      vertex -1.33957 2.11082 -12
      vertex -1.59356 1.92628 0
      vertex -1.33957 2.11082 0
    endloop
  endfacet
  facet normal -0.587797 0.809009 0
    outer loop
      vertex -1.59356 1.92628 0
      vertex -1.33957 2.11082 -12
      vertex -1.59356 1.92628 -12
    endloop
  endfacet
  facet normal -0.481757 0.876305 0
    outer loop
      vertex -1.06445 2.26207 -12
      vertex -1.33957 2.11082 0
      vertex -1.06445 2.26207 0
    endloop
  endfacet
  facet normal -0.481757 0.876305 0
    outer loop
      vertex -1.33957 2.11082 0
      vertex -1.06445 2.26207 -12
      vertex -1.33957 2.11082 -12
    endloop
  endfacet
  facet normal 0.998027 0.0627802 1.08593e-19
    outer loop
      vertex 2.5 0 0
      vertex 2.48029 0.313333 -12
      vertex 2.48029 0.313333 0
    endloop
  endfacet
  facet normal 0.998027 0.0627802 1.08593e-19
    outer loop
      vertex 2.48029 0.313333 -12
      vertex 2.5 0 0
      vertex 2.5 0 -12
    endloop
  endfacet
  facet normal 0.951054 -0.309026 4.13686e-19
    outer loop
      vertex 2.32444 -0.920311 0
      vertex 2.42146 -0.621724 -12
      vertex 2.42146 -0.621724 0
    endloop
  endfacet
  facet normal 0.951054 -0.309026 4.13686e-19
    outer loop
      vertex 2.42146 -0.621724 -12
      vertex 2.32444 -0.920311 0
      vertex 2.32444 -0.920311 -12
    endloop
  endfacet
  facet normal 0.770522 -0.637414 -6.09733e-19
    outer loop
      vertex 1.82242 -1.71137 0
      vertex 2.02254 -1.46946 -12
      vertex 2.02254 -1.46946 0
    endloop
  endfacet
  facet normal 0.770522 -0.637414 -6.09733e-19
    outer loop
      vertex 2.02254 -1.46946 -12
      vertex 1.82242 -1.71137 0
      vertex 1.82242 -1.71137 -12
    endloop
  endfacet
  facet normal 0 -1 0
    outer loop
      vertex -0.156976 -2.49507 -12
      vertex 0.156976 -2.49507 0
      vertex -0.156976 -2.49507 0
    endloop
  endfacet
  facet normal 0 -1 -0
    outer loop
      vertex 0.156976 -2.49507 0
      vertex -0.156976 -2.49507 -12
      vertex 0.156976 -2.49507 -12
    endloop
  endfacet
  facet normal -0.998027 -0.0627802 1.08593e-19
    outer loop
      vertex -2.48029 -0.313333 -12
      vertex -2.5 0 0
      vertex -2.5 0 -12
    endloop
  endfacet
  facet normal -0.998027 -0.0627802 1.08593e-19
    outer loop
      vertex -2.5 0 0
      vertex -2.48029 -0.313333 -12
      vertex -2.48029 -0.313333 0
    endloop
  endfacet
  facet normal 0 0 -1
    outer loop
      vertex 2.48029 -0.313333 -12
      vertex 2.48029 0.313333 -12
      vertex 2.5 0 -12
    endloop
  endfacet
  facet normal 0 0 -1
    outer loop
      vertex 2.42146 -0.621724 -12
      vertex 2.48029 0.313333 -12
      vertex 2.48029 -0.313333 -12
    endloop
  endfacet
  facet normal 0 0 -1
    outer loop
      vertex 2.42146 -0.621724 -12
      vertex 2.42146 0.621724 -12
      vertex 2.48029 0.313333 -12
    endloop
  endfacet
  facet normal 0 0 -1
    outer loop
      vertex 2.32444 -0.920311 -12
      vertex 2.42146 0.621724 -12
      vertex 2.42146 -0.621724 -12
    endloop
  endfacet
  facet normal 0 0 -1
    outer loop
      vertex 2.32444 -0.920311 -12
      vertex 2.32444 0.920311 -12
      vertex 2.42146 0.621724 -12
    endloop
  endfacet
  facet normal 0 0 -1
    outer loop
      vertex 2.19077 -1.20438 -12
      vertex 2.32444 0.920311 -12
      vertex 2.32444 -0.920311 -12
    endloop
  endfacet
  facet normal 0 0 -1
    outer loop
      vertex 2.19077 -1.20438 -12
      vertex 2.19077 1.20438 -12
      vertex 2.32444 0.920311 -12
    endloop
  endfacet
  facet normal 0 0 -1
    outer loop
      vertex 2.02254 -1.46946 -12
      vertex 2.19077 1.20438 -12
      vertex 2.19077 -1.20438 -12
    endloop
  endfacet
  facet normal 0 0 -1
    outer loop
      vertex 2.02254 -1.46946 -12
      vertex 2.02254 1.46946 -12
      vertex 2.19077 1.20438 -12
    endloop
  endfacet
  facet normal 0 0 -1
    outer loop
      vertex 1.82242 -1.71137 -12
      vertex 2.02254 1.46946 -12
      vertex 2.02254 -1.46946 -12
    endloop
  endfacet
  facet normal 0 0 -1
    outer loop
      vertex 1.82242 -1.71137 -12
      vertex 1.82242 1.71137 -12
      vertex 2.02254 1.46946 -12
    endloop
  endfacet
  facet normal 0 0 -1
    outer loop
      vertex 1.59356 -1.92628 -12
      vertex 1.82242 1.71137 -12
      vertex 1.82242 -1.71137 -12
    endloop
  endfacet
  facet normal 0 0 -1
    outer loop
      vertex 1.59356 -1.92628 -12
      vertex 1.59356 1.92628 -12
      vertex 1.82242 1.71137 -12
    endloop
  endfacet
  facet normal 0 0 -1
    outer loop
      vertex 1.33957 -2.11082 -12
      vertex 1.59356 1.92628 -12
      vertex 1.59356 -1.92628 -12
    endloop
  endfacet
  facet normal 0 0 -1
    outer loop
      vertex 1.33957 -2.11082 -12
      vertex 1.33957 2.11082 -12
      vertex 1.59356 1.92628 -12
    endloop
  endfacet
  facet normal 0 0 -1
    outer loop
      vertex 1.06445 -2.26207 -12
      vertex 1.33957 2.11082 -12
      vertex 1.33957 -2.11082 -12
    endloop
  endfacet
  facet normal 0 0 -1
    outer loop
      vertex 1.06445 -2.26207 -12
      vertex 1.06445 2.26207 -12
      vertex 1.33957 2.11082 -12
    endloop
  endfacet
  facet normal 0 0 -1
    outer loop
      vertex 0.772542 -2.37764 -12
      vertex 1.06445 2.26207 -12
      vertex 1.06445 -2.26207 -12
    endloop
  endfacet
  facet normal 0 0 -1
    outer loop
      vertex 0.772542 -2.37764 -12
      vertex 0.772542 2.37764 -12
      vertex 1.06445 2.26207 -12
    endloop
  endfacet
  facet normal 0 0 -1
    outer loop
      vertex 0.468452 -2.45572 -12
      vertex 0.772542 2.37764 -12
      vertex 0.772542 -2.37764 -12
    endloop
  endfacet
  facet normal 0 0 -1
    outer loop
      vertex 0.468452 -2.45572 -12
      vertex 0.468452 2.45572 -12
      vertex 0.772542 2.37764 -12
    endloop
  endfacet
  facet normal 0 0 -1
    outer loop
      vertex 0.156976 -2.49507 -12
      vertex 0.468452 2.45572 -12
      vertex 0.468452 -2.45572 -12
    endloop
  endfacet
  facet normal 0 0 -1
    outer loop
      vertex 0.156976 -2.49507 -12
      vertex 0.156976 2.49507 -12
      vertex 0.468452 2.45572 -12
    endloop
  endfacet
  facet normal 0 0 -1
    outer loop
      vertex -0.156976 -2.49507 -12
      vertex 0.156976 2.49507 -12
      vertex 0.156976 -2.49507 -12
    endloop
  endfacet
  facet normal 0 0 -1
    outer loop
      vertex -0.156976 -2.49507 -12
      vertex -0.156976 2.49507 -12
      vertex 0.156976 2.49507 -12
    endloop
  endfacet
  facet normal 0 0 -1
    outer loop
      vertex -0.468452 -2.45572 -12
      vertex -0.156976 2.49507 -12
      vertex -0.156976 -2.49507 -12
    endloop
  endfacet
  facet normal 0 0 -1
    outer loop
      vertex -0.468452 -2.45572 -12
      vertex -0.468452 2.45572 -12
      vertex -0.156976 2.49507 -12
    endloop
  endfacet
  facet normal 0 0 -1
    outer loop
      vertex -0.772542 -2.37764 -12
      vertex -0.468452 2.45572 -12
      vertex -0.468452 -2.45572 -12
    endloop
  endfacet
  facet normal 0 0 -1
    outer loop
      vertex -0.772542 -2.37764 -12
      vertex -0.772542 2.37764 -12
      vertex -0.468452 2.45572 -12
    endloop
  endfacet
  facet normal 0 0 -1
    outer loop
      vertex -1.06445 -2.26207 -12
      vertex -0.772542 2.37764 -12
      vertex -0.772542 -2.37764 -12
    endloop
  endfacet
  facet normal 0 0 -1
    outer loop
      vertex -1.06445 -2.26207 -12
      vertex -1.06445 2.26207 -12
      vertex -0.772542 2.37764 -12
    endloop
  endfacet
  facet normal 0 0 -1
    outer loop
      vertex -1.33957 -2.11082 -12
      vertex -1.06445 2.26207 -12
      vertex -1.06445 -2.26207 -12
    endloop
  endfacet
  facet normal 0 0 -1
    outer loop
      vertex -1.33957 -2.11082 -12
      vertex -1.33957 2.11082 -12
      vertex -1.06445 2.26207 -12
    endloop
  endfacet
  facet normal 0 0 -1
    outer loop
      vertex -1.59356 -1.92628 -12
      vertex -1.33957 2.11082 -12
      vertex -1.33957 -2.11082 -12
    endloop
  endfacet
  facet normal 0 0 -1
    outer loop
      vertex -1.59356 -1.92628 -12
      vertex -1.59356 1.92628 -12
      vertex -1.33957 2.11082 -12
    endloop
  endfacet
  facet normal 0 0 -1
    outer loop
      vertex -1.82242 -1.71137 -12
      vertex -1.59356 1.92628 -12
      vertex -1.59356 -1.92628 -12
    endloop
  endfacet
  facet normal 0 0 -1
    outer loop
      vertex -1.82242 -1.71137 -12
      vertex -1.82242 1.71137 -12
      vertex -1.59356 1.92628 -12
    endloop
  endfacet
  facet normal 0 0 -1
    outer loop
      vertex -2.02254 -1.46946 -12
      vertex -1.82242 1.71137 -12
      vertex -1.82242 -1.71137 -12
    endloop
  endfacet
  facet normal 0 0 -1
    outer loop
      vertex -2.02254 -1.46946 -12
      vertex -2.02254 1.46946 -12
      vertex -1.82242 1.71137 -12
    endloop
  endfacet
  facet normal 0 0 -1
    outer loop
      vertex -2.19077 -1.20438 -12
      vertex -2.02254 1.46946 -12
      vertex -2.02254 -1.46946 -12
    endloop
  endfacet
  facet normal 0 0 -1
    outer loop
      vertex -2.19077 -1.20438 -12
      vertex -2.19077 1.20438 -12
      vertex -2.02254 1.46946 -12
    endloop
  endfacet
  facet normal 0 0 -1
    outer loop
      vertex -2.32444 -0.920311 -12
      vertex -2.19077 1.20438 -12
      vertex -2.19077 -1.20438 -12
    endloop
  endfacet
  facet normal 0 0 -1
    outer loop
      vertex -2.32444 -0.920311 -12
      vertex -2.32444 0.920311 -12
      vertex -2.19077 1.20438 -12
    endloop
  endfacet
  facet normal 0 0 -1
    outer loop
      vertex -2.42146 -0.621724 -12
      vertex -2.32444 0.920311 -12
      vertex -2.32444 -0.920311 -12
    endloop
  endfacet
  facet normal 0 0 -1
    outer loop
      vertex -2.42146 -0.621724 -12
      vertex -2.42146 0.621724 -12
      vertex -2.32444 0.920311 -12
    endloop
  endfacet
  facet normal 0 0 -1
    outer loop
      vertex -2.48029 -0.313333 -12
      vertex -2.42146 0.621724 -12
      vertex -2.42146 -0.621724 -12
    endloop
  endfacet
  facet normal 0 0 -1
    outer loop
      vertex -2.48029 -0.313333 -12
      vertex -2.48029 0.313333 -12
      vertex -2.42146 0.621724 -12
    endloop
  endfacet
  facet normal 0 -0 -1
    outer loop
      vertex -2.48029 0.313333 -12
      vertex -2.48029 -0.313333 -12
      vertex -2.5 0 -12
    endloop
  endfacet
  facet normal -0.844321 -0.535838 -2.32921e-19
    outer loop
      vertex -2.02254 -1.46946 -12
      vertex -2.19077 -1.20438 0
      vertex -2.19077 -1.20438 -12
    endloop
  endfacet
  facet normal -0.844321 -0.535838 -2.32921e-19
    outer loop
      vertex -2.19077 -1.20438 0
      vertex -2.02254 -1.46946 -12
      vertex -2.02254 -1.46946 0
    endloop
  endfacet
  facet normal 0.125338 -0.992114 0
    outer loop
      vertex 0.156976 -2.49507 -12
      vertex 0.468452 -2.45572 0
      vertex 0.156976 -2.49507 0
    endloop
  endfacet
  facet normal 0.125338 -0.992114 0
    outer loop
      vertex 0.468452 -2.45572 0
      vertex 0.156976 -2.49507 -12
      vertex 0.468452 -2.45572 -12
    endloop
  endfacet
  facet normal -0.248699 -0.968581 0
    outer loop
      vertex -0.772542 -2.37764 -12
      vertex -0.468452 -2.45572 0
      vertex -0.772542 -2.37764 0
    endloop
  endfacet
  facet normal -0.248699 -0.968581 -0
    outer loop
      vertex -0.468452 -2.45572 0
      vertex -0.772542 -2.37764 -12
      vertex -0.468452 -2.45572 -12
    endloop
  endfacet
  facet normal -0.951054 -0.309026 -4.13686e-19
    outer loop
      vertex -2.32444 -0.920311 -12
      vertex -2.42146 -0.621724 0
      vertex -2.42146 -0.621724 -12
    endloop
  endfacet
  facet normal -0.951054 -0.309026 -4.13686e-19
    outer loop
      vertex -2.42146 -0.621724 0
      vertex -2.32444 -0.920311 -12
      vertex -2.32444 -0.920311 0
    endloop
  endfacet
  facet normal -0.982287 -0.187385 7.82411e-20
    outer loop
      vertex -2.42146 -0.621724 -12
      vertex -2.48029 -0.313333 0
      vertex -2.48029 -0.313333 -12
    endloop
  endfacet
  facet normal -0.982287 -0.187385 7.82411e-20
    outer loop
      vertex -2.48029 -0.313333 0
      vertex -2.42146 -0.621724 -12
      vertex -2.42146 -0.621724 0
    endloop
  endfacet
  facet normal -0.770522 -0.637414 6.09733e-19
    outer loop
      vertex -1.82242 -1.71137 -12
      vertex -2.02254 -1.46946 0
      vertex -2.02254 -1.46946 -12
    endloop
  endfacet
  facet normal -0.770522 -0.637414 6.09733e-19
    outer loop
      vertex -2.02254 -1.46946 0
      vertex -1.82242 -1.71137 -12
      vertex -1.82242 -1.71137 0
    endloop
  endfacet
  facet normal 0.368112 -0.929781 0
    outer loop
      vertex 0.772542 -2.37764 -12
      vertex 1.06445 -2.26207 0
      vertex 0.772542 -2.37764 0
    endloop
  endfacet
  facet normal 0.368112 -0.929781 0
    outer loop
      vertex 1.06445 -2.26207 0
      vertex 0.772542 -2.37764 -12
      vertex 1.06445 -2.26207 -12
    endloop
  endfacet
  facet normal 0.248699 -0.968581 0
    outer loop
      vertex 0.468452 -2.45572 -12
      vertex 0.772542 -2.37764 0
      vertex 0.468452 -2.45572 0
    endloop
  endfacet
  facet normal 0.248699 -0.968581 0
    outer loop
      vertex 0.772542 -2.37764 0
      vertex 0.468452 -2.45572 -12
      vertex 0.772542 -2.37764 -12
    endloop
  endfacet
  facet normal 0.684541 -0.728975 0
    outer loop
      vertex 1.59356 -1.92628 -12
      vertex 1.82242 -1.71137 0
      vertex 1.59356 -1.92628 0
    endloop
  endfacet
  facet normal 0.684541 -0.728975 0
    outer loop
      vertex 1.82242 -1.71137 0
      vertex 1.59356 -1.92628 -12
      vertex 1.82242 -1.71137 -12
    endloop
  endfacet
  facet normal 0.982287 -0.187385 -7.82411e-20
    outer loop
      vertex 2.42146 -0.621724 0
      vertex 2.48029 -0.313333 -12
      vertex 2.48029 -0.313333 0
    endloop
  endfacet
  facet normal 0.982287 -0.187385 -7.82411e-20
    outer loop
      vertex 2.48029 -0.313333 -12
      vertex 2.42146 -0.621724 0
      vertex 2.42146 -0.621724 -12
    endloop
  endfacet
  facet normal 0.844321 -0.535838 2.32921e-19
    outer loop
      vertex 2.02254 -1.46946 0
      vertex 2.19077 -1.20438 -12
      vertex 2.19077 -1.20438 0
    endloop
  endfacet
  facet normal 0.844321 -0.535838 2.32921e-19
    outer loop
      vertex 2.19077 -1.20438 -12
      vertex 2.02254 -1.46946 0
      vertex 2.02254 -1.46946 -12
    endloop
  endfacet
  facet normal -0.125338 -0.992114 0
    outer loop
      vertex -0.468452 -2.45572 -12
      vertex -0.156976 -2.49507 0
      vertex -0.468452 -2.45572 0
    endloop
  endfacet
  facet normal -0.125338 -0.992114 -0
    outer loop
      vertex -0.156976 -2.49507 0
      vertex -0.468452 -2.45572 -12
      vertex -0.156976 -2.49507 -12
    endloop
  endfacet
  facet normal -0.481757 -0.876305 0
    outer loop
      vertex -1.33957 -2.11082 -12
      vertex -1.06445 -2.26207 0
      vertex -1.33957 -2.11082 0
    endloop
  endfacet
  facet normal -0.481757 -0.876305 -0
    outer loop
      vertex -1.06445 -2.26207 0
      vertex -1.33957 -2.11082 -12
      vertex -1.06445 -2.26207 -12
    endloop
  endfacet
  facet normal 0.587797 -0.809009 0
    outer loop
      vertex 1.33957 -2.11082 -12
      vertex 1.59356 -1.92628 0
      vertex 1.33957 -2.11082 0
    endloop
  endfacet
  facet normal 0.587797 -0.809009 0
    outer loop
      vertex 1.59356 -1.92628 0
      vertex 1.33957 -2.11082 -12
      vertex 1.59356 -1.92628 -12
    endloop
  endfacet
  facet normal -0.587797 -0.809009 0
    outer loop
      vertex -1.59356 -1.92628 -12
      vertex -1.33957 -2.11082 0
      vertex -1.59356 -1.92628 0
    endloop
  endfacet
  facet normal -0.587797 -0.809009 -0
    outer loop
      vertex -1.33957 -2.11082 0
      vertex -1.59356 -1.92628 -12
      vertex -1.33957 -2.11082 -12
    endloop
  endfacet
  facet normal -0.368112 -0.929781 0
    outer loop
      vertex -1.06445 -2.26207 -12
      vertex -0.772542 -2.37764 0
      vertex -1.06445 -2.26207 0
    endloop
  endfacet
  facet normal -0.368112 -0.929781 -0
    outer loop
      vertex -0.772542 -2.37764 0
      vertex -1.06445 -2.26207 -12
      vertex -0.772542 -2.37764 -12
    endloop
  endfacet
endsolid OpenSCAD_Model
