<?xml version="1.0" standalone="no"?>
<!DOCTYPE svg PUBLIC "-//W3C//DTD SVG 1.1//EN" "http://www.w3.org/Graphics/SVG/1.1/DTD/svg11.dtd">
<svg width="24mm" height="1236mm" viewBox="-12 -2112 24 1236" xmlns="http://www.w3.org/2000/svg" version="1.1">
<title>OpenSCAD Model</title>
<path d="
M 7.1869,-1872.09 L 7.79507,-1872.24 L 8.37889,-1872.48 L 8.92912,-1872.78 L 9.43712,-1873.15 L 9.89484,-1873.58
 L 10.2951,-1874.06 L 10.6315,-1874.59 L 10.8989,-1875.16 L 11.0929,-1875.76 L 11.2106,-1876.37 L 11.25,-1877
 L 11.25,-2107 L 11.2106,-2107.63 L 11.0929,-2108.24 L 10.8989,-2108.84 L 10.6315,-2109.41 L 10.2951,-2109.94
 L 9.89484,-2110.42 L 9.43712,-2110.85 L 8.92912,-2111.22 L 8.37889,-2111.52 L 7.79507,-2111.76 L 7.1869,-2111.91
 L 6.56395,-2111.99 L -6.56395,-2111.99 L -7.1869,-2111.91 L -7.79507,-2111.76 L -8.37889,-2111.52 L -8.92912,-2111.22
 L -9.43712,-2110.85 L -9.89484,-2110.42 L -10.2951,-2109.94 L -10.6315,-2109.41 L -10.8989,-2108.84 L -11.0929,-2108.24
 L -11.2106,-2107.63 L -11.25,-2107 L -11.25,-1877 L -11.2106,-1876.37 L -11.0929,-1875.76 L -10.8989,-1875.16
 L -10.6315,-1874.59 L -10.2951,-1874.06 L -9.89484,-1873.58 L -9.43712,-1873.15 L -8.92912,-1872.78 L -8.37889,-1872.48
 L -7.79507,-1872.24 L -7.1869,-1872.09 L -6.56395,-1872.01 L 6.56395,-1872.01 z
M -6.00116,-1873.51 L -6.49951,-1873.57 L -6.98605,-1873.7 L -7.45311,-1873.88 L -7.8933,-1874.12 L -8.29968,-1874.42
 L -8.66586,-1874.76 L -8.98605,-1875.15 L -9.25522,-1875.57 L -9.4691,-1876.03 L -9.62433,-1876.51 L -9.71844,-1877
 L -9.75,-1877.5 L -9.75,-2106.5 L -9.71844,-2107 L -9.62433,-2107.49 L -9.4691,-2107.97 L -9.25522,-2108.43
 L -8.98605,-2108.85 L -8.66586,-2109.24 L -8.29968,-2109.58 L -7.8933,-2109.88 L -7.45311,-2110.12 L -6.98605,-2110.3
 L -6.49951,-2110.43 L -6.00116,-2110.49 L 6.00116,-2110.49 L 6.49951,-2110.43 L 6.98605,-2110.3 L 7.45311,-2110.12
 L 7.8933,-2109.88 L 8.29968,-2109.58 L 8.66586,-2109.24 L 8.98605,-2108.85 L 9.25522,-2108.43 L 9.4691,-2107.97
 L 9.62433,-2107.49 L 9.71844,-2107 L 9.75,-2106.5 L 9.75,-1877.5 L 9.71844,-1877 L 9.62433,-1876.51
 L 9.4691,-1876.03 L 9.25522,-1875.57 L 8.98605,-1875.15 L 8.66586,-1874.76 L 8.29968,-1874.42 L 7.8933,-1874.12
 L 7.45311,-1873.88 L 6.98605,-1873.7 L 6.49951,-1873.57 L 6.00116,-1873.51 z
M 7.1869,-1623.09 L 7.79507,-1623.24 L 8.37889,-1623.48 L 8.92912,-1623.78 L 9.43712,-1624.15 L 9.89484,-1624.58
 L 10.2951,-1625.06 L 10.6315,-1625.59 L 10.8989,-1626.16 L 11.0929,-1626.76 L 11.2106,-1627.37 L 11.25,-1628
 L 11.25,-1858 L 11.2106,-1858.63 L 11.0929,-1859.24 L 10.8989,-1859.84 L 10.6315,-1860.41 L 10.2951,-1860.94
 L 9.89484,-1861.42 L 9.43712,-1861.85 L 8.92912,-1862.22 L 8.37889,-1862.52 L 7.79507,-1862.76 L 7.1869,-1862.91
 L 6.56395,-1862.99 L -6.56395,-1862.99 L -7.1869,-1862.91 L -7.79507,-1862.76 L -8.37889,-1862.52 L -8.92912,-1862.22
 L -9.43712,-1861.85 L -9.89484,-1861.42 L -10.2951,-1860.94 L -10.6315,-1860.41 L -10.8989,-1859.84 L -11.0929,-1859.24
 L -11.2106,-1858.63 L -11.25,-1858 L -11.25,-1628 L -11.2106,-1627.37 L -11.0929,-1626.76 L -10.8989,-1626.16
 L -10.6315,-1625.59 L -10.2951,-1625.06 L -9.89484,-1624.58 L -9.43712,-1624.15 L -8.92912,-1623.78 L -8.37889,-1623.48
 L -7.79507,-1623.24 L -7.1869,-1623.09 L -6.56395,-1623.01 L 6.56395,-1623.01 z
M -6.00116,-1624.51 L -6.49951,-1624.57 L -6.98605,-1624.7 L -7.45311,-1624.88 L -7.8933,-1625.12 L -8.29968,-1625.42
 L -8.66586,-1625.76 L -8.98605,-1626.15 L -9.25522,-1626.57 L -9.4691,-1627.03 L -9.62433,-1627.51 L -9.71844,-1628
 L -9.75,-1628.5 L -9.75,-1857.5 L -9.71844,-1858 L -9.62433,-1858.49 L -9.4691,-1858.97 L -9.25522,-1859.43
 L -8.98605,-1859.85 L -8.66586,-1860.24 L -8.29968,-1860.58 L -7.8933,-1860.88 L -7.45311,-1861.12 L -6.98605,-1861.3
 L -6.49951,-1861.43 L -6.00116,-1861.49 L 6.00116,-1861.49 L 6.49951,-1861.43 L 6.98605,-1861.3 L 7.45311,-1861.12
 L 7.8933,-1860.88 L 8.29968,-1860.58 L 8.66586,-1860.24 L 8.98605,-1859.85 L 9.25522,-1859.43 L 9.4691,-1858.97
 L 9.62433,-1858.49 L 9.71844,-1858 L 9.75,-1857.5 L 9.75,-1628.5 L 9.71844,-1628 L 9.62433,-1627.51
 L 9.4691,-1627.03 L 9.25522,-1626.57 L 8.98605,-1626.15 L 8.66586,-1625.76 L 8.29968,-1625.42 L 7.8933,-1625.12
 L 7.45311,-1624.88 L 6.98605,-1624.7 L 6.49951,-1624.57 L 6.00116,-1624.51 z
M 7.1869,-1374.09 L 7.79507,-1374.24 L 8.37889,-1374.48 L 8.92912,-1374.78 L 9.43712,-1375.15 L 9.89484,-1375.58
 L 10.2951,-1376.06 L 10.6315,-1376.59 L 10.8989,-1377.16 L 11.0929,-1377.76 L 11.2106,-1378.37 L 11.25,-1379
 L 11.25,-1609 L 11.2106,-1609.63 L 11.0929,-1610.24 L 10.8989,-1610.84 L 10.6315,-1611.41 L 10.2951,-1611.94
 L 9.89484,-1612.42 L 9.43712,-1612.85 L 8.92912,-1613.22 L 8.37889,-1613.52 L 7.79507,-1613.76 L 7.1869,-1613.91
 L 6.56395,-1613.99 L -6.56395,-1613.99 L -7.1869,-1613.91 L -7.79507,-1613.76 L -8.37889,-1613.52 L -8.92912,-1613.22
 L -9.43712,-1612.85 L -9.89484,-1612.42 L -10.2951,-1611.94 L -10.6315,-1611.41 L -10.8989,-1610.84 L -11.0929,-1610.24
 L -11.2106,-1609.63 L -11.25,-1609 L -11.25,-1379 L -11.2106,-1378.37 L -11.0929,-1377.76 L -10.8989,-1377.16
 L -10.6315,-1376.59 L -10.2951,-1376.06 L -9.89484,-1375.58 L -9.43712,-1375.15 L -8.92912,-1374.78 L -8.37889,-1374.48
 L -7.79507,-1374.24 L -7.1869,-1374.09 L -6.56395,-1374.01 L 6.56395,-1374.01 z
M -5.99316,-1375.64 L -6.47565,-1375.7 L -6.9467,-1375.82 L -7.39888,-1376 L -7.82506,-1376.23 L -8.21851,-1376.52
 L -8.57301,-1376.85 L -8.88301,-1377.22 L -9.1436,-1377.63 L -9.35068,-1378.07 L -9.50096,-1378.54 L -9.59209,-1379.01
 L -9.62262,-1379.5 L -9.62262,-1608.5 L -9.59209,-1608.99 L -9.50096,-1609.46 L -9.35068,-1609.93 L -9.1436,-1610.37
 L -8.88301,-1610.78 L -8.57301,-1611.15 L -8.21851,-1611.48 L -7.82506,-1611.77 L -7.39888,-1612 L -6.9467,-1612.18
 L -6.47565,-1612.3 L -5.99316,-1612.36 L 5.99316,-1612.36 L 6.47565,-1612.3 L 6.9467,-1612.18 L 7.39888,-1612
 L 7.82506,-1611.77 L 8.21851,-1611.48 L 8.57301,-1611.15 L 8.88301,-1610.78 L 9.1436,-1610.37 L 9.35068,-1609.93
 L 9.50096,-1609.46 L 9.59209,-1608.99 L 9.62262,-1608.5 L 9.62262,-1379.5 L 9.59209,-1379.01 L 9.50096,-1378.54
 L 9.35068,-1378.07 L 9.1436,-1377.63 L 8.88301,-1377.22 L 8.57301,-1376.85 L 8.21851,-1376.52 L 7.82506,-1376.23
 L 7.39888,-1376 L 6.9467,-1375.82 L 6.47565,-1375.7 L 5.99316,-1375.64 z
M 7.1869,-1125.09 L 7.79507,-1125.24 L 8.37889,-1125.48 L 8.92912,-1125.78 L 9.43712,-1126.15 L 9.89484,-1126.58
 L 10.2951,-1127.06 L 10.6315,-1127.59 L 10.8989,-1128.16 L 11.0929,-1128.76 L 11.2106,-1129.37 L 11.25,-1130
 L 11.25,-1360 L 11.2106,-1360.63 L 11.0929,-1361.24 L 10.8989,-1361.84 L 10.6315,-1362.41 L 10.2951,-1362.94
 L 9.89484,-1363.42 L 9.43712,-1363.85 L 8.92912,-1364.22 L 8.37889,-1364.52 L 7.79507,-1364.76 L 7.1869,-1364.91
 L 6.56395,-1364.99 L -6.56395,-1364.99 L -7.1869,-1364.91 L -7.79507,-1364.76 L -8.37889,-1364.52 L -8.92912,-1364.22
 L -9.43712,-1363.85 L -9.89484,-1363.42 L -10.2951,-1362.94 L -10.6315,-1362.41 L -10.8989,-1361.84 L -11.0929,-1361.24
 L -11.2106,-1360.63 L -11.25,-1360 L -11.25,-1130 L -11.2106,-1129.37 L -11.0929,-1128.76 L -10.8989,-1128.16
 L -10.6315,-1127.59 L -10.2951,-1127.06 L -9.89484,-1126.58 L -9.43712,-1126.15 L -8.92912,-1125.78 L -8.37889,-1125.48
 L -7.79507,-1125.24 L -7.1869,-1125.09 L -6.56395,-1125.01 L 6.56395,-1125.01 z
M 3.59929,-1355.1 L 3.30028,-1355.14 L 3.00835,-1355.22 L 2.72812,-1355.33 L 2.464,-1355.47 L 2.22017,-1355.65
 L 2.00047,-1355.86 L 1.80835,-1356.09 L 1.64685,-1356.34 L 1.51852,-1356.62 L 1.4254,-1356.9 L 1.36891,-1357.2
 L 1.34999,-1357.5 L 1.36891,-1357.8 L 1.4254,-1358.1 L 1.51852,-1358.38 L 1.64685,-1358.66 L 1.80835,-1358.91
 L 2.00047,-1359.14 L 2.22017,-1359.35 L 2.464,-1359.53 L 2.72812,-1359.67 L 3.00835,-1359.78 L 3.30028,-1359.86
 L 3.59929,-1359.9 L 3.9007,-1359.9 L 4.19971,-1359.86 L 4.49164,-1359.78 L 4.77187,-1359.67 L 5.03598,-1359.53
 L 5.27982,-1359.35 L 5.49951,-1359.14 L 5.69164,-1358.91 L 5.85313,-1358.66 L 5.98146,-1358.38 L 6.07458,-1358.1
 L 6.13107,-1357.8 L 6.14999,-1357.5 L 6.13107,-1357.2 L 6.07458,-1356.9 L 5.98146,-1356.62 L 5.85313,-1356.34
 L 5.69164,-1356.09 L 5.49951,-1355.86 L 5.27982,-1355.65 L 5.03598,-1355.47 L 4.77187,-1355.33 L 4.49164,-1355.22
 L 4.19971,-1355.14 L 3.9007,-1355.1 z
M -3.9007,-1355.1 L -4.19971,-1355.14 L -4.49164,-1355.22 L -4.77187,-1355.33 L -5.03598,-1355.47 L -5.27982,-1355.65
 L -5.49951,-1355.86 L -5.69164,-1356.09 L -5.85313,-1356.34 L -5.98146,-1356.62 L -6.07458,-1356.9 L -6.13107,-1357.2
 L -6.14999,-1357.5 L -6.13107,-1357.8 L -6.07458,-1358.1 L -5.98146,-1358.38 L -5.85313,-1358.66 L -5.69164,-1358.91
 L -5.49951,-1359.14 L -5.27982,-1359.35 L -5.03598,-1359.53 L -4.77187,-1359.67 L -4.49164,-1359.78 L -4.19971,-1359.86
 L -3.9007,-1359.9 L -3.59929,-1359.9 L -3.30028,-1359.86 L -3.00835,-1359.78 L -2.72812,-1359.67 L -2.464,-1359.53
 L -2.22017,-1359.35 L -2.00047,-1359.14 L -1.80835,-1358.91 L -1.64685,-1358.66 L -1.51852,-1358.38 L -1.4254,-1358.1
 L -1.36891,-1357.8 L -1.34999,-1357.5 L -1.36891,-1357.2 L -1.4254,-1356.9 L -1.51852,-1356.62 L -1.64685,-1356.34
 L -1.80835,-1356.09 L -2.00047,-1355.86 L -2.22017,-1355.65 L -2.464,-1355.47 L -2.72812,-1355.33 L -3.00835,-1355.22
 L -3.30028,-1355.14 L -3.59929,-1355.1 z
M 3.59929,-1130.1 L 3.30028,-1130.14 L 3.00835,-1130.22 L 2.72812,-1130.33 L 2.464,-1130.47 L 2.22017,-1130.65
 L 2.00047,-1130.86 L 1.80835,-1131.09 L 1.64685,-1131.34 L 1.51852,-1131.62 L 1.4254,-1131.9 L 1.36891,-1132.2
 L 1.34999,-1132.5 L 1.36891,-1132.8 L 1.4254,-1133.1 L 1.51852,-1133.38 L 1.64685,-1133.66 L 1.80835,-1133.91
 L 2.00047,-1134.14 L 2.22017,-1134.35 L 2.464,-1134.53 L 2.72812,-1134.67 L 3.00835,-1134.78 L 3.30028,-1134.86
 L 3.59929,-1134.9 L 3.9007,-1134.9 L 4.19971,-1134.86 L 4.49164,-1134.78 L 4.77187,-1134.67 L 5.03598,-1134.53
 L 5.27982,-1134.35 L 5.49951,-1134.14 L 5.69164,-1133.91 L 5.85313,-1133.66 L 5.98146,-1133.38 L 6.07458,-1133.1
 L 6.13107,-1132.8 L 6.14999,-1132.5 L 6.13107,-1132.2 L 6.07458,-1131.9 L 5.98146,-1131.62 L 5.85313,-1131.34
 L 5.69164,-1131.09 L 5.49951,-1130.86 L 5.27982,-1130.65 L 5.03598,-1130.47 L 4.77187,-1130.33 L 4.49164,-1130.22
 L 4.19971,-1130.14 L 3.9007,-1130.1 z
M -3.9007,-1130.1 L -4.19971,-1130.14 L -4.49164,-1130.22 L -4.77187,-1130.33 L -5.03598,-1130.47 L -5.27982,-1130.65
 L -5.49951,-1130.86 L -5.69164,-1131.09 L -5.85313,-1131.34 L -5.98146,-1131.62 L -6.07458,-1131.9 L -6.13107,-1132.2
 L -6.14999,-1132.5 L -6.13107,-1132.8 L -6.07458,-1133.1 L -5.98146,-1133.38 L -5.85313,-1133.66 L -5.69164,-1133.91
 L -5.49951,-1134.14 L -5.27982,-1134.35 L -5.03598,-1134.53 L -4.77187,-1134.67 L -4.49164,-1134.78 L -4.19971,-1134.86
 L -3.9007,-1134.9 L -3.59929,-1134.9 L -3.30028,-1134.86 L -3.00835,-1134.78 L -2.72812,-1134.67 L -2.464,-1134.53
 L -2.22017,-1134.35 L -2.00047,-1134.14 L -1.80835,-1133.91 L -1.64685,-1133.66 L -1.51852,-1133.38 L -1.4254,-1133.1
 L -1.36891,-1132.8 L -1.34999,-1132.5 L -1.36891,-1132.2 L -1.4254,-1131.9 L -1.51852,-1131.62 L -1.64685,-1131.34
 L -1.80835,-1131.09 L -2.00047,-1130.86 L -2.22017,-1130.65 L -2.464,-1130.47 L -2.72812,-1130.33 L -3.00835,-1130.22
 L -3.30028,-1130.14 L -3.59929,-1130.1 z
M 7.1869,-876.089 L 7.79507,-876.245 L 8.37889,-876.476 L 8.92912,-876.778 L 9.43712,-877.147 L 9.89484,-877.577
 L 10.2951,-878.061 L 10.6315,-878.591 L 10.8989,-879.159 L 11.0929,-879.757 L 11.2106,-880.373 L 11.25,-881
 L 11.25,-1111 L 11.2106,-1111.63 L 11.0929,-1112.24 L 10.8989,-1112.84 L 10.6315,-1113.41 L 10.2951,-1113.94
 L 9.89484,-1114.42 L 9.43712,-1114.85 L 8.92912,-1115.22 L 8.37889,-1115.52 L 7.79507,-1115.76 L 7.1869,-1115.91
 L 6.56395,-1115.99 L -6.56395,-1115.99 L -7.1869,-1115.91 L -7.79507,-1115.76 L -8.37889,-1115.52 L -8.92912,-1115.22
 L -9.43712,-1114.85 L -9.89484,-1114.42 L -10.2951,-1113.94 L -10.6315,-1113.41 L -10.8989,-1112.84 L -11.0929,-1112.24
 L -11.2106,-1111.63 L -11.25,-1111 L -11.25,-881 L -11.2106,-880.373 L -11.0929,-879.757 L -10.8989,-879.159
 L -10.6315,-878.591 L -10.2951,-878.061 L -9.89484,-877.577 L -9.43712,-877.147 L -8.92912,-876.778 L -8.37889,-876.476
 L -7.79507,-876.245 L -7.1869,-876.089 L -6.56395,-876.01 L 6.56395,-876.01 z
M 3.63696,-1106.7 L 3.4127,-1106.73 L 3.19376,-1106.79 L 2.9836,-1106.87 L 2.78551,-1106.98 L 2.60263,-1107.11
 L 2.43785,-1107.27 L 2.29376,-1107.44 L 2.17264,-1107.63 L 2.0764,-1107.84 L 2.00655,-1108.05 L 1.96419,-1108.27
 L 1.95,-1108.5 L 1.96419,-1108.73 L 2.00655,-1108.95 L 2.0764,-1109.16 L 2.17264,-1109.37 L 2.29376,-1109.56
 L 2.43785,-1109.73 L 2.60263,-1109.89 L 2.78551,-1110.02 L 2.9836,-1110.13 L 3.19376,-1110.21 L 3.4127,-1110.27
 L 3.63696,-1110.3 L 3.86302,-1110.3 L 4.08728,-1110.27 L 4.30623,-1110.21 L 4.51639,-1110.13 L 4.71448,-1110.02
 L 4.89735,-1109.89 L 5.06213,-1109.73 L 5.20622,-1109.56 L 5.32735,-1109.37 L 5.42358,-1109.16 L 5.49344,-1108.95
 L 5.5358,-1108.73 L 5.54999,-1108.5 L 5.5358,-1108.27 L 5.49344,-1108.05 L 5.42358,-1107.84 L 5.32735,-1107.63
 L 5.20622,-1107.44 L 5.06213,-1107.27 L 4.89735,-1107.11 L 4.71448,-1106.98 L 4.51639,-1106.87 L 4.30623,-1106.79
 L 4.08728,-1106.73 L 3.86302,-1106.7 z
M -3.86302,-1106.7 L -4.08728,-1106.73 L -4.30623,-1106.79 L -4.51639,-1106.87 L -4.71448,-1106.98 L -4.89735,-1107.11
 L -5.06213,-1107.27 L -5.20622,-1107.44 L -5.32735,-1107.63 L -5.42358,-1107.84 L -5.49344,-1108.05 L -5.5358,-1108.27
 L -5.54999,-1108.5 L -5.5358,-1108.73 L -5.49344,-1108.95 L -5.42358,-1109.16 L -5.32735,-1109.37 L -5.20622,-1109.56
 L -5.06213,-1109.73 L -4.89735,-1109.89 L -4.71448,-1110.02 L -4.51639,-1110.13 L -4.30623,-1110.21 L -4.08728,-1110.27
 L -3.86302,-1110.3 L -3.63696,-1110.3 L -3.4127,-1110.27 L -3.19376,-1110.21 L -2.9836,-1110.13 L -2.78551,-1110.02
 L -2.60263,-1109.89 L -2.43785,-1109.73 L -2.29376,-1109.56 L -2.17264,-1109.37 L -2.0764,-1109.16 L -2.00655,-1108.95
 L -1.96419,-1108.73 L -1.95,-1108.5 L -1.96419,-1108.27 L -2.00655,-1108.05 L -2.0764,-1107.84 L -2.17264,-1107.63
 L -2.29376,-1107.44 L -2.43785,-1107.27 L -2.60263,-1107.11 L -2.78551,-1106.98 L -2.9836,-1106.87 L -3.19376,-1106.79
 L -3.4127,-1106.73 L -3.63696,-1106.7 z
M -3.86302,-881.704 L -4.08728,-881.732 L -4.30623,-881.788 L -4.51639,-881.871 L -4.71448,-881.98 L -4.89735,-882.113
 L -5.06213,-882.268 L -5.20622,-882.442 L -5.32735,-882.633 L -5.42358,-882.837 L -5.49344,-883.052 L -5.5358,-883.274
 L -5.54999,-883.5 L -5.5358,-883.726 L -5.49344,-883.948 L -5.42358,-884.163 L -5.32735,-884.367 L -5.20622,-884.558
 L -5.06213,-884.732 L -4.89735,-884.887 L -4.71448,-885.02 L -4.51639,-885.129 L -4.30623,-885.212 L -4.08728,-885.268
 L -3.86302,-885.296 L -3.63696,-885.296 L -3.4127,-885.268 L -3.19376,-885.212 L -2.9836,-885.129 L -2.78551,-885.02
 L -2.60263,-884.887 L -2.43785,-884.732 L -2.29376,-884.558 L -2.17264,-884.367 L -2.0764,-884.163 L -2.00655,-883.948
 L -1.96419,-883.726 L -1.95,-883.5 L -1.96419,-883.274 L -2.00655,-883.052 L -2.0764,-882.837 L -2.17264,-882.633
 L -2.29376,-882.442 L -2.43785,-882.268 L -2.60263,-882.113 L -2.78551,-881.98 L -2.9836,-881.871 L -3.19376,-881.788
 L -3.4127,-881.732 L -3.63696,-881.704 z
M 3.63696,-881.704 L 3.4127,-881.732 L 3.19376,-881.788 L 2.9836,-881.871 L 2.78551,-881.98 L 2.60263,-882.113
 L 2.43785,-882.268 L 2.29376,-882.442 L 2.17264,-882.633 L 2.0764,-882.837 L 2.00655,-883.052 L 1.96419,-883.274
 L 1.95,-883.5 L 1.96419,-883.726 L 2.00655,-883.948 L 2.0764,-884.163 L 2.17264,-884.367 L 2.29376,-884.558
 L 2.43785,-884.732 L 2.60263,-884.887 L 2.78551,-885.02 L 2.9836,-885.129 L 3.19376,-885.212 L 3.4127,-885.268
 L 3.63696,-885.296 L 3.86302,-885.296 L 4.08728,-885.268 L 4.30623,-885.212 L 4.51639,-885.129 L 4.71448,-885.02
 L 4.89735,-884.887 L 5.06213,-884.732 L 5.20622,-884.558 L 5.32735,-884.367 L 5.42358,-884.163 L 5.49344,-883.948
 L 5.5358,-883.726 L 5.54999,-883.5 L 5.5358,-883.274 L 5.49344,-883.052 L 5.42358,-882.837 L 5.32735,-882.633
 L 5.20622,-882.442 L 5.06213,-882.268 L 4.89735,-882.113 L 4.71448,-881.98 L 4.51639,-881.871 L 4.30623,-881.788
 L 4.08728,-881.732 L 3.86302,-881.704 z
" stroke="black" fill="lightgray" stroke-width="0.5"/>
</svg>
