<?xml version="1.0" standalone="no"?>
<!DOCTYPE svg PUBLIC "-//W3C//DTD SVG 1.1//EN" "http://www.w3.org/Graphics/SVG/1.1/DTD/svg11.dtd">
<svg width="106mm" height="262mm" viewBox="-53 -455 106 262" xmlns="http://www.w3.org/2000/svg" version="1.1">
<title>OpenSCAD Model</title>
<path d="
M 48.4369,-409.589 L 49.0451,-409.745 L 49.6289,-409.976 L 50.1791,-410.278 L 50.6871,-410.647 L 51.1448,-411.077
 L 51.5451,-411.561 L 51.8815,-412.091 L 52.1489,-412.659 L 52.3429,-413.257 L 52.4606,-413.873 L 52.5,-414.5
 L 52.5,-449.5 L 52.4606,-450.127 L 52.3429,-450.743 L 52.1489,-451.341 L 51.8815,-451.909 L 51.5451,-452.439
 L 51.1448,-452.923 L 50.6871,-453.353 L 50.1791,-453.722 L 49.6289,-454.024 L 49.0451,-454.255 L 48.4369,-454.411
 L 47.8139,-454.49 L -47.8139,-454.49 L -48.4369,-454.411 L -49.0451,-454.255 L -49.6289,-454.024 L -50.1791,-453.722
 L -50.6871,-453.353 L -51.1448,-452.923 L -51.5451,-452.439 L -51.8815,-451.909 L -52.1489,-451.341 L -52.3429,-450.743
 L -52.4,-450.444 L -52.5,-450.444 L -52.5,-413.556 L -52.4,-413.556 L -52.3429,-413.257 L -52.1489,-412.659
 L -51.8815,-412.091 L -51.5451,-411.561 L -51.1448,-411.077 L -50.6871,-410.647 L -50.1791,-410.278 L -49.6289,-409.976
 L -49.0451,-409.745 L -48.4369,-409.589 L -47.8139,-409.51 L 47.8139,-409.51 z
M -47.2512,-411.008 L -47.7495,-411.071 L -48.2361,-411.196 L -48.7031,-411.381 L -49.1433,-411.623 L -49.5497,-411.918
 L -49.9159,-412.262 L -50.2361,-412.649 L -50.5052,-413.073 L -50.7191,-413.528 L -50.8743,-414.005 L -50.9685,-414.499
 L -51,-415 L -51,-449 L -50.9685,-449.501 L -50.8743,-449.995 L -50.7191,-450.472 L -50.5052,-450.927
 L -50.2361,-451.351 L -49.9159,-451.738 L -49.5497,-452.082 L -49.1433,-452.377 L -48.7031,-452.619 L -48.2361,-452.804
 L -47.7495,-452.929 L -47.2512,-452.992 L 47.2512,-452.992 L 47.7495,-452.929 L 48.2361,-452.804 L 48.7031,-452.619
 L 49.1433,-452.377 L 49.5497,-452.082 L 49.9159,-451.738 L 50.2361,-451.351 L 50.5052,-450.927 L 50.7191,-450.472
 L 50.8743,-449.995 L 50.9685,-449.501 L 51,-449 L 51,-415 L 50.9685,-414.499 L 50.8743,-414.005
 L 50.7191,-413.528 L 50.5052,-413.073 L 50.2361,-412.649 L 49.9159,-412.262 L 49.5497,-411.918 L 49.1433,-411.623
 L 48.7031,-411.381 L 48.2361,-411.196 L 47.7495,-411.071 L 47.2512,-411.008 z
M 48.4369,-355.589 L 49.0451,-355.745 L 49.6289,-355.976 L 50.1791,-356.278 L 50.6871,-356.647 L 51.1448,-357.077
 L 51.5451,-357.561 L 51.8815,-358.091 L 52.1489,-358.659 L 52.3429,-359.257 L 52.4606,-359.873 L 52.5,-360.5
 L 52.5,-395.5 L 52.4606,-396.127 L 52.3429,-396.743 L 52.1489,-397.341 L 51.8815,-397.909 L 51.5451,-398.439
 L 51.1448,-398.923 L 50.6871,-399.353 L 50.1791,-399.722 L 49.6289,-400.024 L 49.0451,-400.255 L 48.4369,-400.411
 L 47.8139,-400.49 L -47.8139,-400.49 L -48.4369,-400.411 L -49.0451,-400.255 L -49.6289,-400.024 L -50.1791,-399.722
 L -50.6871,-399.353 L -51.1448,-398.923 L -51.5451,-398.439 L -51.8815,-397.909 L -52.1489,-397.341 L -52.3429,-396.743
 L -52.4606,-396.127 L -52.5,-395.5 L -52.5,-360.5 L -52.4606,-359.873 L -52.3429,-359.257 L -52.1489,-358.659
 L -51.8815,-358.091 L -51.5451,-357.561 L -51.1448,-357.077 L -50.6871,-356.647 L -50.1791,-356.278 L -49.6289,-355.976
 L -49.0451,-355.745 L -48.4369,-355.589 L -47.8139,-355.51 L 47.8139,-355.51 z
M -47.2512,-357.008 L -47.7495,-357.071 L -48.2361,-357.196 L -48.7031,-357.381 L -49.1433,-357.623 L -49.5497,-357.918
 L -49.9159,-358.262 L -50.2361,-358.649 L -50.5052,-359.073 L -50.7191,-359.528 L -50.8743,-360.005 L -50.9685,-360.499
 L -51,-361 L -51,-395 L -50.9685,-395.501 L -50.8743,-395.995 L -50.7191,-396.472 L -50.5052,-396.927
 L -50.2361,-397.351 L -49.9159,-397.738 L -49.5497,-398.082 L -49.1433,-398.377 L -48.7031,-398.619 L -48.2361,-398.804
 L -47.7495,-398.929 L -47.2512,-398.992 L 47.2512,-398.992 L 47.7495,-398.929 L 48.2361,-398.804 L 48.7031,-398.619
 L 49.1433,-398.377 L 49.5497,-398.082 L 49.9159,-397.738 L 50.2361,-397.351 L 50.5052,-396.927 L 50.7191,-396.472
 L 50.8743,-395.995 L 50.9685,-395.501 L 51,-395 L 51,-361 L 50.9685,-360.499 L 50.8743,-360.005
 L 50.7191,-359.528 L 50.5052,-359.073 L 50.2361,-358.649 L 49.9159,-358.262 L 49.5497,-357.918 L 49.1433,-357.623
 L 48.7031,-357.381 L 48.2361,-357.196 L 47.7495,-357.071 L 47.2512,-357.008 z
M 48.4369,-301.589 L 49.0451,-301.745 L 49.6289,-301.976 L 50.1791,-302.278 L 50.6871,-302.647 L 51.1448,-303.077
 L 51.5451,-303.561 L 51.8815,-304.091 L 52.1489,-304.659 L 52.3429,-305.257 L 52.4606,-305.873 L 52.5,-306.5
 L 52.5,-341.5 L 52.4606,-342.127 L 52.3429,-342.743 L 52.1489,-343.341 L 51.8815,-343.909 L 51.5451,-344.439
 L 51.1448,-344.923 L 50.6871,-345.353 L 50.1791,-345.722 L 49.6289,-346.024 L 49.0451,-346.255 L 48.4369,-346.411
 L 47.8139,-346.49 L -47.8139,-346.49 L -48.4369,-346.411 L -49.0451,-346.255 L -49.6289,-346.024 L -50.1791,-345.722
 L -50.6871,-345.353 L -51.1448,-344.923 L -51.5451,-344.439 L -51.8815,-343.909 L -52.1489,-343.341 L -52.3429,-342.743
 L -52.4606,-342.127 L -52.5,-341.5 L -52.5,-306.5 L -52.4606,-305.873 L -52.3429,-305.257 L -52.1489,-304.659
 L -51.8815,-304.091 L -51.5451,-303.561 L -51.1448,-303.077 L -50.6871,-302.647 L -50.1791,-302.278 L -49.6289,-301.976
 L -49.0451,-301.745 L -48.4369,-301.589 L -47.8139,-301.51 L 47.8139,-301.51 z
M -47.2432,-303.135 L -47.7256,-303.196 L -48.1967,-303.317 L -48.6489,-303.496 L -49.0751,-303.73 L -49.4685,-304.016
 L -49.823,-304.349 L -50.133,-304.724 L -50.3936,-305.134 L -50.6007,-305.574 L -50.751,-306.037 L -50.8421,-306.515
 L -50.8726,-307 L -50.8726,-341 L -50.8421,-341.485 L -50.751,-341.963 L -50.6007,-342.426 L -50.3936,-342.866
 L -50.133,-343.276 L -49.823,-343.651 L -49.4685,-343.984 L -49.0751,-344.27 L -48.6489,-344.504 L -48.1967,-344.683
 L -47.7256,-344.804 L -47.2432,-344.865 L 47.2432,-344.865 L 47.7256,-344.804 L 48.1967,-344.683 L 48.6489,-344.504
 L 49.0751,-344.27 L 49.4685,-343.984 L 49.823,-343.651 L 50.133,-343.276 L 50.3936,-342.866 L 50.6007,-342.426
 L 50.751,-341.963 L 50.8421,-341.485 L 50.8726,-341 L 50.8726,-307 L 50.8421,-306.515 L 50.751,-306.037
 L 50.6007,-305.574 L 50.3936,-305.134 L 50.133,-304.724 L 49.823,-304.349 L 49.4685,-304.016 L 49.0751,-303.73
 L 48.6489,-303.496 L 48.1967,-303.317 L 47.7256,-303.196 L 47.2432,-303.135 z
M 48.4369,-247.589 L 49.0451,-247.745 L 49.6289,-247.976 L 50.1791,-248.278 L 50.6871,-248.647 L 51.1448,-249.077
 L 51.5451,-249.561 L 51.8815,-250.091 L 52.1489,-250.659 L 52.3429,-251.257 L 52.4606,-251.873 L 52.5,-252.5
 L 52.5,-287.5 L 52.4606,-288.127 L 52.3429,-288.743 L 52.1489,-289.341 L 51.8815,-289.909 L 51.5451,-290.439
 L 51.1448,-290.923 L 50.6871,-291.353 L 50.1791,-291.722 L 49.6289,-292.024 L 49.0451,-292.255 L 48.4369,-292.411
 L 47.8139,-292.49 L -47.8139,-292.49 L -48.4369,-292.411 L -49.0451,-292.255 L -49.6289,-292.024 L -50.1791,-291.722
 L -50.6871,-291.353 L -51.1448,-290.923 L -51.5451,-290.439 L -51.8815,-289.909 L -52.1489,-289.341 L -52.3429,-288.743
 L -52.4606,-288.127 L -52.5,-287.5 L -52.5,-252.5 L -52.4606,-251.873 L -52.3429,-251.257 L -52.1489,-250.659
 L -51.8815,-250.091 L -51.5451,-249.561 L -51.1448,-249.077 L -50.6871,-248.647 L -50.1791,-248.278 L -49.6289,-247.976
 L -49.0451,-247.745 L -48.4369,-247.589 L -47.8139,-247.51 L 47.8139,-247.51 z
M 44.8493,-282.605 L 44.5503,-282.643 L 44.2584,-282.717 L 43.9781,-282.828 L 43.714,-282.974 L 43.4702,-283.151
 L 43.2505,-283.357 L 43.0583,-283.589 L 42.8969,-283.844 L 42.7685,-284.117 L 42.6754,-284.403 L 42.6189,-284.699
 L 42.6,-285 L 42.6189,-285.301 L 42.6754,-285.597 L 42.7685,-285.883 L 42.8969,-286.156 L 43.0583,-286.411
 L 43.2505,-286.643 L 43.4702,-286.849 L 43.714,-287.026 L 43.9781,-287.172 L 44.2584,-287.283 L 44.5503,-287.357
 L 44.8493,-287.395 L 45.1507,-287.395 L 45.4497,-287.357 L 45.7416,-287.283 L 46.0219,-287.172 L 46.286,-287.026
 L 46.5298,-286.849 L 46.7495,-286.643 L 46.9416,-286.411 L 47.1031,-286.156 L 47.2315,-285.883 L 47.3246,-285.597
 L 47.3811,-285.301 L 47.4,-285 L 47.3811,-284.699 L 47.3246,-284.403 L 47.2315,-284.117 L 47.1031,-283.844
 L 46.9416,-283.589 L 46.7495,-283.357 L 46.5298,-283.151 L 46.286,-282.974 L 46.0219,-282.828 L 45.7416,-282.717
 L 45.4497,-282.643 L 45.1507,-282.605 z
M -45.1507,-282.605 L -45.4497,-282.643 L -45.7416,-282.717 L -46.0219,-282.828 L -46.286,-282.974 L -46.5298,-283.151
 L -46.7495,-283.357 L -46.9416,-283.589 L -47.1031,-283.844 L -47.2315,-284.117 L -47.3246,-284.403 L -47.3811,-284.699
 L -47.4,-285 L -47.3811,-285.301 L -47.3246,-285.597 L -47.2315,-285.883 L -47.1031,-286.156 L -46.9416,-286.411
 L -46.7495,-286.643 L -46.5298,-286.849 L -46.286,-287.026 L -46.0219,-287.172 L -45.7416,-287.283 L -45.4497,-287.357
 L -45.1507,-287.395 L -44.8493,-287.395 L -44.5503,-287.357 L -44.2584,-287.283 L -43.9781,-287.172 L -43.714,-287.026
 L -43.4702,-286.849 L -43.2505,-286.643 L -43.0583,-286.411 L -42.8969,-286.156 L -42.7685,-285.883 L -42.6754,-285.597
 L -42.6189,-285.301 L -42.6,-285 L -42.6189,-284.699 L -42.6754,-284.403 L -42.7685,-284.117 L -42.8969,-283.844
 L -43.0583,-283.589 L -43.2505,-283.357 L -43.4702,-283.151 L -43.714,-282.974 L -43.9781,-282.828 L -44.2584,-282.717
 L -44.5503,-282.643 L -44.8493,-282.605 z
M 44.8493,-252.605 L 44.5503,-252.643 L 44.2584,-252.717 L 43.9781,-252.828 L 43.714,-252.974 L 43.4702,-253.151
 L 43.2505,-253.357 L 43.0583,-253.589 L 42.8969,-253.844 L 42.7685,-254.117 L 42.6754,-254.403 L 42.6189,-254.699
 L 42.6,-255 L 42.6189,-255.301 L 42.6754,-255.597 L 42.7685,-255.883 L 42.8969,-256.156 L 43.0583,-256.411
 L 43.2505,-256.643 L 43.4702,-256.849 L 43.714,-257.026 L 43.9781,-257.172 L 44.2584,-257.283 L 44.5503,-257.357
 L 44.8493,-257.395 L 45.1507,-257.395 L 45.4497,-257.357 L 45.7416,-257.283 L 46.0219,-257.172 L 46.286,-257.026
 L 46.5298,-256.849 L 46.7495,-256.643 L 46.9416,-256.411 L 47.1031,-256.156 L 47.2315,-255.883 L 47.3246,-255.597
 L 47.3811,-255.301 L 47.4,-255 L 47.3811,-254.699 L 47.3246,-254.403 L 47.2315,-254.117 L 47.1031,-253.844
 L 46.9416,-253.589 L 46.7495,-253.357 L 46.5298,-253.151 L 46.286,-252.974 L 46.0219,-252.828 L 45.7416,-252.717
 L 45.4497,-252.643 L 45.1507,-252.605 z
M -45.1507,-252.605 L -45.4497,-252.643 L -45.7416,-252.717 L -46.0219,-252.828 L -46.286,-252.974 L -46.5298,-253.151
 L -46.7495,-253.357 L -46.9416,-253.589 L -47.1031,-253.844 L -47.2315,-254.117 L -47.3246,-254.403 L -47.3811,-254.699
 L -47.4,-255 L -47.3811,-255.301 L -47.3246,-255.597 L -47.2315,-255.883 L -47.1031,-256.156 L -46.9416,-256.411
 L -46.7495,-256.643 L -46.5298,-256.849 L -46.286,-257.026 L -46.0219,-257.172 L -45.7416,-257.283 L -45.4497,-257.357
 L -45.1507,-257.395 L -44.8493,-257.395 L -44.5503,-257.357 L -44.2584,-257.283 L -43.9781,-257.172 L -43.714,-257.026
 L -43.4702,-256.849 L -43.2505,-256.643 L -43.0583,-256.411 L -42.8969,-256.156 L -42.7685,-255.883 L -42.6754,-255.597
 L -42.6189,-255.301 L -42.6,-255 L -42.6189,-254.699 L -42.6754,-254.403 L -42.7685,-254.117 L -42.8969,-253.844
 L -43.0583,-253.589 L -43.2505,-253.357 L -43.4702,-253.151 L -43.714,-252.974 L -43.9781,-252.828 L -44.2584,-252.717
 L -44.5503,-252.643 L -44.8493,-252.605 z
M 48.4369,-193.589 L 49.0451,-193.745 L 49.6289,-193.976 L 50.1791,-194.278 L 50.6871,-194.647 L 51.1448,-195.077
 L 51.5451,-195.561 L 51.8815,-196.091 L 52.1489,-196.659 L 52.3429,-197.257 L 52.4606,-197.873 L 52.5,-198.5
 L 52.5,-233.5 L 52.4606,-234.127 L 52.3429,-234.743 L 52.1489,-235.341 L 51.8815,-235.909 L 51.5451,-236.439
 L 51.1448,-236.923 L 50.6871,-237.353 L 50.1791,-237.722 L 49.6289,-238.024 L 49.0451,-238.255 L 48.4369,-238.411
 L 47.8139,-238.49 L -47.8139,-238.49 L -48.4369,-238.411 L -49.0451,-238.255 L -49.6289,-238.024 L -50.1791,-237.722
 L -50.6871,-237.353 L -51.1448,-236.923 L -51.5451,-236.439 L -51.8815,-235.909 L -52.1489,-235.341 L -52.3429,-234.743
 L -52.4606,-234.127 L -52.5,-233.5 L -52.5,-198.5 L -52.4606,-197.873 L -52.3429,-197.257 L -52.1489,-196.659
 L -51.8815,-196.091 L -51.5451,-195.561 L -51.1448,-195.077 L -50.6871,-194.647 L -50.1791,-194.278 L -49.6289,-193.976
 L -49.0451,-193.745 L -48.4369,-193.589 L -47.8139,-193.51 L 47.8139,-193.51 z
M -45.113,-229.204 L -45.3373,-229.232 L -45.5562,-229.288 L -45.7664,-229.371 L -45.9645,-229.48 L -46.1474,-229.613
 L -46.3121,-229.768 L -46.4562,-229.942 L -46.5773,-230.133 L -46.6736,-230.337 L -46.7434,-230.552 L -46.7858,-230.774
 L -46.8,-231 L -46.7858,-231.226 L -46.7434,-231.448 L -46.6736,-231.663 L -46.5773,-231.867 L -46.4562,-232.058
 L -46.3121,-232.232 L -46.1474,-232.387 L -45.9645,-232.52 L -45.7664,-232.629 L -45.5562,-232.712 L -45.3373,-232.768
 L -45.113,-232.796 L -44.887,-232.796 L -44.6627,-232.768 L -44.4438,-232.712 L -44.2336,-232.629 L -44.0355,-232.52
 L -43.8526,-232.387 L -43.6879,-232.232 L -43.5438,-232.058 L -43.4226,-231.867 L -43.3264,-231.663 L -43.2565,-231.448
 L -43.2142,-231.226 L -43.2,-231 L -43.2142,-230.774 L -43.2565,-230.552 L -43.3264,-230.337 L -43.4226,-230.133
 L -43.5438,-229.942 L -43.6879,-229.768 L -43.8526,-229.613 L -44.0355,-229.48 L -44.2336,-229.371 L -44.4438,-229.288
 L -44.6627,-229.232 L -44.887,-229.204 z
M 44.887,-229.204 L 44.6627,-229.232 L 44.4438,-229.288 L 44.2336,-229.371 L 44.0355,-229.48 L 43.8526,-229.613
 L 43.6879,-229.768 L 43.5438,-229.942 L 43.4226,-230.133 L 43.3264,-230.337 L 43.2565,-230.552 L 43.2142,-230.774
 L 43.2,-231 L 43.2142,-231.226 L 43.2565,-231.448 L 43.3264,-231.663 L 43.4226,-231.867 L 43.5438,-232.058
 L 43.6879,-232.232 L 43.8526,-232.387 L 44.0355,-232.52 L 44.2336,-232.629 L 44.4438,-232.712 L 44.6627,-232.768
 L 44.887,-232.796 L 45.113,-232.796 L 45.3373,-232.768 L 45.5562,-232.712 L 45.7664,-232.629 L 45.9645,-232.52
 L 46.1474,-232.387 L 46.3121,-232.232 L 46.4562,-232.058 L 46.5773,-231.867 L 46.6736,-231.663 L 46.7434,-231.448
 L 46.7858,-231.226 L 46.8,-231 L 46.7858,-230.774 L 46.7434,-230.552 L 46.6736,-230.337 L 46.5773,-230.133
 L 46.4562,-229.942 L 46.3121,-229.768 L 46.1474,-229.613 L 45.9645,-229.48 L 45.7664,-229.371 L 45.5562,-229.288
 L 45.3373,-229.232 L 45.113,-229.204 z
M 44.887,-199.204 L 44.6627,-199.232 L 44.4438,-199.288 L 44.2336,-199.371 L 44.0355,-199.48 L 43.8526,-199.613
 L 43.6879,-199.768 L 43.5438,-199.942 L 43.4226,-200.133 L 43.3264,-200.337 L 43.2565,-200.552 L 43.2142,-200.774
 L 43.2,-201 L 43.2142,-201.226 L 43.2565,-201.448 L 43.3264,-201.663 L 43.4226,-201.867 L 43.5438,-202.058
 L 43.6879,-202.232 L 43.8526,-202.387 L 44.0355,-202.52 L 44.2336,-202.629 L 44.4438,-202.712 L 44.6627,-202.768
 L 44.887,-202.796 L 45.113,-202.796 L 45.3373,-202.768 L 45.5562,-202.712 L 45.7664,-202.629 L 45.9645,-202.52
 L 46.1474,-202.387 L 46.3121,-202.232 L 46.4562,-202.058 L 46.5773,-201.867 L 46.6736,-201.663 L 46.7434,-201.448
 L 46.7858,-201.226 L 46.8,-201 L 46.7858,-200.774 L 46.7434,-200.552 L 46.6736,-200.337 L 46.5773,-200.133
 L 46.4562,-199.942 L 46.3121,-199.768 L 46.1474,-199.613 L 45.9645,-199.48 L 45.7664,-199.371 L 45.5562,-199.288
 L 45.3373,-199.232 L 45.113,-199.204 z
M -45.113,-199.204 L -45.3373,-199.232 L -45.5562,-199.288 L -45.7664,-199.371 L -45.9645,-199.48 L -46.1474,-199.613
 L -46.3121,-199.768 L -46.4562,-199.942 L -46.5773,-200.133 L -46.6736,-200.337 L -46.7434,-200.552 L -46.7858,-200.774
 L -46.8,-201 L -46.7858,-201.226 L -46.7434,-201.448 L -46.6736,-201.663 L -46.5773,-201.867 L -46.4562,-202.058
 L -46.3121,-202.232 L -46.1474,-202.387 L -45.9645,-202.52 L -45.7664,-202.629 L -45.5562,-202.712 L -45.3373,-202.768
 L -45.113,-202.796 L -44.887,-202.796 L -44.6627,-202.768 L -44.4438,-202.712 L -44.2336,-202.629 L -44.0355,-202.52
 L -43.8526,-202.387 L -43.6879,-202.232 L -43.5438,-202.058 L -43.4226,-201.867 L -43.3264,-201.663 L -43.2565,-201.448
 L -43.2142,-201.226 L -43.2,-201 L -43.2142,-200.774 L -43.2565,-200.552 L -43.3264,-200.337 L -43.4226,-200.133
 L -43.5438,-199.942 L -43.6879,-199.768 L -43.8526,-199.613 L -44.0355,-199.48 L -44.2336,-199.371 L -44.4438,-199.288
 L -44.6627,-199.232 L -44.887,-199.204 z
" stroke="black" fill="lightgray" stroke-width="0.5"/>
</svg>
