<?xml version="1.0" standalone="no"?>
<!DOCTYPE svg PUBLIC "-//W3C//DTD SVG 1.1//EN" "http://www.w3.org/Graphics/SVG/1.1/DTD/svg11.dtd">
<svg width="90mm" height="412mm" viewBox="-45 -710 90 412" xmlns="http://www.w3.org/2000/svg" version="1.1">
<title>OpenSCAD Model</title>
<path d="
M 40.9369,-634.589 L 41.5451,-634.745 L 42.1289,-634.976 L 42.6791,-635.278 L 43.1871,-635.647 L 43.6448,-636.077
 L 44.0451,-636.561 L 44.3815,-637.091 L 44.6489,-637.659 L 44.8429,-638.257 L 44.9606,-638.873 L 45,-639.5
 L 45,-704.5 L 44.9606,-705.127 L 44.8429,-705.743 L 44.6489,-706.341 L 44.3815,-706.909 L 44.0451,-707.439
 L 43.6448,-707.923 L 43.1871,-708.353 L 42.6791,-708.722 L 42.1289,-709.024 L 41.5451,-709.255 L 40.9369,-709.411
 L 40.3139,-709.49 L -40.3139,-709.49 L -40.9369,-709.411 L -41.5451,-709.255 L -42.1289,-709.024 L -42.6791,-708.722
 L -43.1871,-708.353 L -43.6448,-707.923 L -44.0451,-707.439 L -44.3815,-706.909 L -44.6489,-706.341 L -44.8429,-705.743
 L -44.9,-705.444 L -45,-705.444 L -45,-638.556 L -44.9,-638.556 L -44.8429,-638.257 L -44.6489,-637.659
 L -44.3815,-637.091 L -44.0451,-636.561 L -43.6448,-636.077 L -43.1871,-635.647 L -42.6791,-635.278 L -42.1289,-634.976
 L -41.5451,-634.745 L -40.9369,-634.589 L -40.3139,-634.51 L 40.3139,-634.51 z
M -39.7512,-636.008 L -40.2495,-636.071 L -40.7361,-636.196 L -41.2031,-636.381 L -41.6433,-636.623 L -42.0497,-636.918
 L -42.4159,-637.262 L -42.7361,-637.649 L -43.0052,-638.073 L -43.2191,-638.528 L -43.3743,-639.005 L -43.4685,-639.499
 L -43.5,-640 L -43.5,-704 L -43.4685,-704.501 L -43.3743,-704.995 L -43.2191,-705.472 L -43.0052,-705.927
 L -42.7361,-706.351 L -42.4159,-706.738 L -42.0497,-707.082 L -41.6433,-707.377 L -41.2031,-707.619 L -40.7361,-707.804
 L -40.2495,-707.929 L -39.7512,-707.992 L 39.7512,-707.992 L 40.2495,-707.929 L 40.7361,-707.804 L 41.2031,-707.619
 L 41.6433,-707.377 L 42.0497,-707.082 L 42.4159,-706.738 L 42.7361,-706.351 L 43.0052,-705.927 L 43.2191,-705.472
 L 43.3743,-704.995 L 43.4685,-704.501 L 43.5,-704 L 43.5,-640 L 43.4685,-639.499 L 43.3743,-639.005
 L 43.2191,-638.528 L 43.0052,-638.073 L 42.7361,-637.649 L 42.4159,-637.262 L 42.0497,-636.918 L 41.6433,-636.623
 L 41.2031,-636.381 L 40.7361,-636.196 L 40.2495,-636.071 L 39.7512,-636.008 z
M 40.9369,-550.589 L 41.5451,-550.745 L 42.1289,-550.976 L 42.6791,-551.278 L 43.1871,-551.647 L 43.6448,-552.077
 L 44.0451,-552.561 L 44.3815,-553.091 L 44.6489,-553.659 L 44.8429,-554.257 L 44.9606,-554.873 L 45,-555.5
 L 45,-620.5 L 44.9606,-621.127 L 44.8429,-621.743 L 44.6489,-622.341 L 44.3815,-622.909 L 44.0451,-623.439
 L 43.6448,-623.923 L 43.1871,-624.353 L 42.6791,-624.722 L 42.1289,-625.024 L 41.5451,-625.255 L 40.9369,-625.411
 L 40.3139,-625.49 L -40.3139,-625.49 L -40.9369,-625.411 L -41.5451,-625.255 L -42.1289,-625.024 L -42.6791,-624.722
 L -43.1871,-624.353 L -43.6448,-623.923 L -44.0451,-623.439 L -44.3815,-622.909 L -44.6489,-622.341 L -44.8429,-621.743
 L -44.9606,-621.127 L -45,-620.5 L -45,-555.5 L -44.9606,-554.873 L -44.8429,-554.257 L -44.6489,-553.659
 L -44.3815,-553.091 L -44.0451,-552.561 L -43.6448,-552.077 L -43.1871,-551.647 L -42.6791,-551.278 L -42.1289,-550.976
 L -41.5451,-550.745 L -40.9369,-550.589 L -40.3139,-550.51 L 40.3139,-550.51 z
M -39.7512,-552.008 L -40.2495,-552.071 L -40.7361,-552.196 L -41.2031,-552.381 L -41.6433,-552.623 L -42.0497,-552.918
 L -42.4159,-553.262 L -42.7361,-553.649 L -43.0052,-554.073 L -43.2191,-554.528 L -43.3743,-555.005 L -43.4685,-555.499
 L -43.5,-556 L -43.5,-620 L -43.4685,-620.501 L -43.3743,-620.995 L -43.2191,-621.472 L -43.0052,-621.927
 L -42.7361,-622.351 L -42.4159,-622.738 L -42.0497,-623.082 L -41.6433,-623.377 L -41.2031,-623.619 L -40.7361,-623.804
 L -40.2495,-623.929 L -39.7512,-623.992 L 39.7512,-623.992 L 40.2495,-623.929 L 40.7361,-623.804 L 41.2031,-623.619
 L 41.6433,-623.377 L 42.0497,-623.082 L 42.4159,-622.738 L 42.7361,-622.351 L 43.0052,-621.927 L 43.2191,-621.472
 L 43.3743,-620.995 L 43.4685,-620.501 L 43.5,-620 L 43.5,-556 L 43.4685,-555.499 L 43.3743,-555.005
 L 43.2191,-554.528 L 43.0052,-554.073 L 42.7361,-553.649 L 42.4159,-553.262 L 42.0497,-552.918 L 41.6433,-552.623
 L 41.2031,-552.381 L 40.7361,-552.196 L 40.2495,-552.071 L 39.7512,-552.008 z
M 40.9369,-466.589 L 41.5451,-466.745 L 42.1289,-466.976 L 42.6791,-467.278 L 43.1871,-467.647 L 43.6448,-468.077
 L 44.0451,-468.561 L 44.3815,-469.091 L 44.6489,-469.659 L 44.8429,-470.257 L 44.9606,-470.873 L 45,-471.5
 L 45,-536.5 L 44.9606,-537.127 L 44.8429,-537.743 L 44.6489,-538.341 L 44.3815,-538.909 L 44.0451,-539.439
 L 43.6448,-539.923 L 43.1871,-540.353 L 42.6791,-540.722 L 42.1289,-541.024 L 41.5451,-541.255 L 40.9369,-541.411
 L 40.3139,-541.49 L -40.3139,-541.49 L -40.9369,-541.411 L -41.5451,-541.255 L -42.1289,-541.024 L -42.6791,-540.722
 L -43.1871,-540.353 L -43.6448,-539.923 L -44.0451,-539.439 L -44.3815,-538.909 L -44.6489,-538.341 L -44.8429,-537.743
 L -44.9606,-537.127 L -45,-536.5 L -45,-471.5 L -44.9606,-470.873 L -44.8429,-470.257 L -44.6489,-469.659
 L -44.3815,-469.091 L -44.0451,-468.561 L -43.6448,-468.077 L -43.1871,-467.647 L -42.6791,-467.278 L -42.1289,-466.976
 L -41.5451,-466.745 L -40.9369,-466.589 L -40.3139,-466.51 L 40.3139,-466.51 z
M -39.7432,-468.135 L -40.2256,-468.196 L -40.6967,-468.317 L -41.1489,-468.496 L -41.5751,-468.73 L -41.9685,-469.016
 L -42.323,-469.349 L -42.633,-469.724 L -42.8936,-470.134 L -43.1007,-470.574 L -43.251,-471.037 L -43.3421,-471.515
 L -43.3726,-472 L -43.3726,-536 L -43.3421,-536.485 L -43.251,-536.963 L -43.1007,-537.426 L -42.8936,-537.866
 L -42.633,-538.276 L -42.323,-538.651 L -41.9685,-538.984 L -41.5751,-539.27 L -41.1489,-539.504 L -40.6967,-539.683
 L -40.2256,-539.804 L -39.7432,-539.865 L 39.7432,-539.865 L 40.2256,-539.804 L 40.6967,-539.683 L 41.1489,-539.504
 L 41.5751,-539.27 L 41.9685,-538.984 L 42.323,-538.651 L 42.633,-538.276 L 42.8936,-537.866 L 43.1007,-537.426
 L 43.251,-536.963 L 43.3421,-536.485 L 43.3726,-536 L 43.3726,-472 L 43.3421,-471.515 L 43.251,-471.037
 L 43.1007,-470.574 L 42.8936,-470.134 L 42.633,-469.724 L 42.323,-469.349 L 41.9685,-469.016 L 41.5751,-468.73
 L 41.1489,-468.496 L 40.6967,-468.317 L 40.2256,-468.196 L 39.7432,-468.135 z
M 40.9369,-382.589 L 41.5451,-382.745 L 42.1289,-382.976 L 42.6791,-383.278 L 43.1871,-383.647 L 43.6448,-384.077
 L 44.0451,-384.561 L 44.3815,-385.091 L 44.6489,-385.659 L 44.8429,-386.257 L 44.9606,-386.873 L 45,-387.5
 L 45,-452.5 L 44.9606,-453.127 L 44.8429,-453.743 L 44.6489,-454.341 L 44.3815,-454.909 L 44.0451,-455.439
 L 43.6448,-455.923 L 43.1871,-456.353 L 42.6791,-456.722 L 42.1289,-457.024 L 41.5451,-457.255 L 40.9369,-457.411
 L 40.3139,-457.49 L -40.3139,-457.49 L -40.9369,-457.411 L -41.5451,-457.255 L -42.1289,-457.024 L -42.6791,-456.722
 L -43.1871,-456.353 L -43.6448,-455.923 L -44.0451,-455.439 L -44.3815,-454.909 L -44.6489,-454.341 L -44.8429,-453.743
 L -44.9606,-453.127 L -45,-452.5 L -45,-387.5 L -44.9606,-386.873 L -44.8429,-386.257 L -44.6489,-385.659
 L -44.3815,-385.091 L -44.0451,-384.561 L -43.6448,-384.077 L -43.1871,-383.647 L -42.6791,-383.278 L -42.1289,-382.976
 L -41.5451,-382.745 L -40.9369,-382.589 L -40.3139,-382.51 L 40.3139,-382.51 z
M 37.3493,-447.605 L 37.0503,-447.643 L 36.7584,-447.717 L 36.4781,-447.828 L 36.214,-447.974 L 35.9702,-448.151
 L 35.7505,-448.357 L 35.5583,-448.589 L 35.3969,-448.844 L 35.2685,-449.117 L 35.1754,-449.403 L 35.1189,-449.699
 L 35.1,-450 L 35.1189,-450.301 L 35.1754,-450.597 L 35.2685,-450.883 L 35.3969,-451.156 L 35.5583,-451.411
 L 35.7505,-451.643 L 35.9702,-451.849 L 36.214,-452.026 L 36.4781,-452.172 L 36.7584,-452.283 L 37.0503,-452.357
 L 37.3493,-452.395 L 37.6507,-452.395 L 37.9497,-452.357 L 38.2416,-452.283 L 38.5219,-452.172 L 38.786,-452.026
 L 39.0298,-451.849 L 39.2495,-451.643 L 39.4416,-451.411 L 39.6031,-451.156 L 39.7315,-450.883 L 39.8246,-450.597
 L 39.8811,-450.301 L 39.9,-450 L 39.8811,-449.699 L 39.8246,-449.403 L 39.7315,-449.117 L 39.6031,-448.844
 L 39.4416,-448.589 L 39.2495,-448.357 L 39.0298,-448.151 L 38.786,-447.974 L 38.5219,-447.828 L 38.2416,-447.717
 L 37.9497,-447.643 L 37.6507,-447.605 z
M -37.6507,-447.605 L -37.9497,-447.643 L -38.2416,-447.717 L -38.5219,-447.828 L -38.786,-447.974 L -39.0298,-448.151
 L -39.2495,-448.357 L -39.4416,-448.589 L -39.6031,-448.844 L -39.7315,-449.117 L -39.8246,-449.403 L -39.8811,-449.699
 L -39.9,-450 L -39.8811,-450.301 L -39.8246,-450.597 L -39.7315,-450.883 L -39.6031,-451.156 L -39.4416,-451.411
 L -39.2495,-451.643 L -39.0298,-451.849 L -38.786,-452.026 L -38.5219,-452.172 L -38.2416,-452.283 L -37.9497,-452.357
 L -37.6507,-452.395 L -37.3493,-452.395 L -37.0503,-452.357 L -36.7584,-452.283 L -36.4781,-452.172 L -36.214,-452.026
 L -35.9702,-451.849 L -35.7505,-451.643 L -35.5583,-451.411 L -35.3969,-451.156 L -35.2685,-450.883 L -35.1754,-450.597
 L -35.1189,-450.301 L -35.1,-450 L -35.1189,-449.699 L -35.1754,-449.403 L -35.2685,-449.117 L -35.3969,-448.844
 L -35.5583,-448.589 L -35.7505,-448.357 L -35.9702,-448.151 L -36.214,-447.974 L -36.4781,-447.828 L -36.7584,-447.717
 L -37.0503,-447.643 L -37.3493,-447.605 z
M 37.3493,-387.605 L 37.0503,-387.643 L 36.7584,-387.717 L 36.4781,-387.828 L 36.214,-387.974 L 35.9702,-388.151
 L 35.7505,-388.357 L 35.5583,-388.589 L 35.3969,-388.844 L 35.2685,-389.117 L 35.1754,-389.403 L 35.1189,-389.699
 L 35.1,-390 L 35.1189,-390.301 L 35.1754,-390.597 L 35.2685,-390.883 L 35.3969,-391.156 L 35.5583,-391.411
 L 35.7505,-391.643 L 35.9702,-391.849 L 36.214,-392.026 L 36.4781,-392.172 L 36.7584,-392.283 L 37.0503,-392.357
 L 37.3493,-392.395 L 37.6507,-392.395 L 37.9497,-392.357 L 38.2416,-392.283 L 38.5219,-392.172 L 38.786,-392.026
 L 39.0298,-391.849 L 39.2495,-391.643 L 39.4416,-391.411 L 39.6031,-391.156 L 39.7315,-390.883 L 39.8246,-390.597
 L 39.8811,-390.301 L 39.9,-390 L 39.8811,-389.699 L 39.8246,-389.403 L 39.7315,-389.117 L 39.6031,-388.844
 L 39.4416,-388.589 L 39.2495,-388.357 L 39.0298,-388.151 L 38.786,-387.974 L 38.5219,-387.828 L 38.2416,-387.717
 L 37.9497,-387.643 L 37.6507,-387.605 z
M -37.6507,-387.605 L -37.9497,-387.643 L -38.2416,-387.717 L -38.5219,-387.828 L -38.786,-387.974 L -39.0298,-388.151
 L -39.2495,-388.357 L -39.4416,-388.589 L -39.6031,-388.844 L -39.7315,-389.117 L -39.8246,-389.403 L -39.8811,-389.699
 L -39.9,-390 L -39.8811,-390.301 L -39.8246,-390.597 L -39.7315,-390.883 L -39.6031,-391.156 L -39.4416,-391.411
 L -39.2495,-391.643 L -39.0298,-391.849 L -38.786,-392.026 L -38.5219,-392.172 L -38.2416,-392.283 L -37.9497,-392.357
 L -37.6507,-392.395 L -37.3493,-392.395 L -37.0503,-392.357 L -36.7584,-392.283 L -36.4781,-392.172 L -36.214,-392.026
 L -35.9702,-391.849 L -35.7505,-391.643 L -35.5583,-391.411 L -35.3969,-391.156 L -35.2685,-390.883 L -35.1754,-390.597
 L -35.1189,-390.301 L -35.1,-390 L -35.1189,-389.699 L -35.1754,-389.403 L -35.2685,-389.117 L -35.3969,-388.844
 L -35.5583,-388.589 L -35.7505,-388.357 L -35.9702,-388.151 L -36.214,-387.974 L -36.4781,-387.828 L -36.7584,-387.717
 L -37.0503,-387.643 L -37.3493,-387.605 z
M 40.9369,-298.589 L 41.5451,-298.745 L 42.1289,-298.976 L 42.6791,-299.278 L 43.1871,-299.647 L 43.6448,-300.077
 L 44.0451,-300.561 L 44.3815,-301.091 L 44.6489,-301.659 L 44.8429,-302.257 L 44.9606,-302.873 L 45,-303.5
 L 45,-368.5 L 44.9606,-369.127 L 44.8429,-369.743 L 44.6489,-370.341 L 44.3815,-370.909 L 44.0451,-371.439
 L 43.6448,-371.923 L 43.1871,-372.353 L 42.6791,-372.722 L 42.1289,-373.024 L 41.5451,-373.255 L 40.9369,-373.411
 L 40.3139,-373.49 L -40.3139,-373.49 L -40.9369,-373.411 L -41.5451,-373.255 L -42.1289,-373.024 L -42.6791,-372.722
 L -43.1871,-372.353 L -43.6448,-371.923 L -44.0451,-371.439 L -44.3815,-370.909 L -44.6489,-370.341 L -44.8429,-369.743
 L -44.9606,-369.127 L -45,-368.5 L -45,-303.5 L -44.9606,-302.873 L -44.8429,-302.257 L -44.6489,-301.659
 L -44.3815,-301.091 L -44.0451,-300.561 L -43.6448,-300.077 L -43.1871,-299.647 L -42.6791,-299.278 L -42.1289,-298.976
 L -41.5451,-298.745 L -40.9369,-298.589 L -40.3139,-298.51 L 40.3139,-298.51 z
M 37.387,-364.204 L 37.1627,-364.232 L 36.9438,-364.288 L 36.7336,-364.371 L 36.5355,-364.48 L 36.3526,-364.613
 L 36.1879,-364.768 L 36.0438,-364.942 L 35.9226,-365.133 L 35.8264,-365.337 L 35.7565,-365.552 L 35.7142,-365.774
 L 35.7,-366 L 35.7142,-366.226 L 35.7565,-366.448 L 35.8264,-366.663 L 35.9226,-366.867 L 36.0438,-367.058
 L 36.1879,-367.232 L 36.3526,-367.387 L 36.5355,-367.52 L 36.7336,-367.629 L 36.9438,-367.712 L 37.1627,-367.768
 L 37.387,-367.796 L 37.613,-367.796 L 37.8373,-367.768 L 38.0562,-367.712 L 38.2664,-367.629 L 38.4645,-367.52
 L 38.6474,-367.387 L 38.8121,-367.232 L 38.9562,-367.058 L 39.0773,-366.867 L 39.1736,-366.663 L 39.2434,-366.448
 L 39.2858,-366.226 L 39.3,-366 L 39.2858,-365.774 L 39.2434,-365.552 L 39.1736,-365.337 L 39.0773,-365.133
 L 38.9562,-364.942 L 38.8121,-364.768 L 38.6474,-364.613 L 38.4645,-364.48 L 38.2664,-364.371 L 38.0562,-364.288
 L 37.8373,-364.232 L 37.613,-364.204 z
M -37.613,-364.204 L -37.8373,-364.232 L -38.0562,-364.288 L -38.2664,-364.371 L -38.4645,-364.48 L -38.6474,-364.613
 L -38.8121,-364.768 L -38.9562,-364.942 L -39.0773,-365.133 L -39.1736,-365.337 L -39.2434,-365.552 L -39.2858,-365.774
 L -39.3,-366 L -39.2858,-366.226 L -39.2434,-366.448 L -39.1736,-366.663 L -39.0773,-366.867 L -38.9562,-367.058
 L -38.8121,-367.232 L -38.6474,-367.387 L -38.4645,-367.52 L -38.2664,-367.629 L -38.0562,-367.712 L -37.8373,-367.768
 L -37.613,-367.796 L -37.387,-367.796 L -37.1627,-367.768 L -36.9438,-367.712 L -36.7336,-367.629 L -36.5355,-367.52
 L -36.3526,-367.387 L -36.1879,-367.232 L -36.0438,-367.058 L -35.9226,-366.867 L -35.8264,-366.663 L -35.7565,-366.448
 L -35.7142,-366.226 L -35.7,-366 L -35.7142,-365.774 L -35.7565,-365.552 L -35.8264,-365.337 L -35.9226,-365.133
 L -36.0438,-364.942 L -36.1879,-364.768 L -36.3526,-364.613 L -36.5355,-364.48 L -36.7336,-364.371 L -36.9438,-364.288
 L -37.1627,-364.232 L -37.387,-364.204 z
M -37.613,-304.204 L -37.8373,-304.232 L -38.0562,-304.288 L -38.2664,-304.371 L -38.4645,-304.48 L -38.6474,-304.613
 L -38.8121,-304.768 L -38.9562,-304.942 L -39.0773,-305.133 L -39.1736,-305.337 L -39.2434,-305.552 L -39.2858,-305.774
 L -39.3,-306 L -39.2858,-306.226 L -39.2434,-306.448 L -39.1736,-306.663 L -39.0773,-306.867 L -38.9562,-307.058
 L -38.8121,-307.232 L -38.6474,-307.387 L -38.4645,-307.52 L -38.2664,-307.629 L -38.0562,-307.712 L -37.8373,-307.768
 L -37.613,-307.796 L -37.387,-307.796 L -37.1627,-307.768 L -36.9438,-307.712 L -36.7336,-307.629 L -36.5355,-307.52
 L -36.3526,-307.387 L -36.1879,-307.232 L -36.0438,-307.058 L -35.9226,-306.867 L -35.8264,-306.663 L -35.7565,-306.448
 L -35.7142,-306.226 L -35.7,-306 L -35.7142,-305.774 L -35.7565,-305.552 L -35.8264,-305.337 L -35.9226,-305.133
 L -36.0438,-304.942 L -36.1879,-304.768 L -36.3526,-304.613 L -36.5355,-304.48 L -36.7336,-304.371 L -36.9438,-304.288
 L -37.1627,-304.232 L -37.387,-304.204 z
M 37.387,-304.204 L 37.1627,-304.232 L 36.9438,-304.288 L 36.7336,-304.371 L 36.5355,-304.48 L 36.3526,-304.613
 L 36.1879,-304.768 L 36.0438,-304.942 L 35.9226,-305.133 L 35.8264,-305.337 L 35.7565,-305.552 L 35.7142,-305.774
 L 35.7,-306 L 35.7142,-306.226 L 35.7565,-306.448 L 35.8264,-306.663 L 35.9226,-306.867 L 36.0438,-307.058
 L 36.1879,-307.232 L 36.3526,-307.387 L 36.5355,-307.52 L 36.7336,-307.629 L 36.9438,-307.712 L 37.1627,-307.768
 L 37.387,-307.796 L 37.613,-307.796 L 37.8373,-307.768 L 38.0562,-307.712 L 38.2664,-307.629 L 38.4645,-307.52
 L 38.6474,-307.387 L 38.8121,-307.232 L 38.9562,-307.058 L 39.0773,-306.867 L 39.1736,-306.663 L 39.2434,-306.448
 L 39.2858,-306.226 L 39.3,-306 L 39.2858,-305.774 L 39.2434,-305.552 L 39.1736,-305.337 L 39.0773,-305.133
 L 38.9562,-304.942 L 38.8121,-304.768 L 38.6474,-304.613 L 38.4645,-304.48 L 38.2664,-304.371 L 38.0562,-304.288
 L 37.8373,-304.232 L 37.613,-304.204 z
" stroke="black" fill="lightgray" stroke-width="0.5"/>
</svg>
