<?xml version="1.0" standalone="no"?>
<!DOCTYPE svg PUBLIC "-//W3C//DTD SVG 1.1//EN" "http://www.w3.org/Graphics/SVG/1.1/DTD/svg11.dtd">
<svg width="120mm" height="1086mm" viewBox="-60 -1857 120 1086" xmlns="http://www.w3.org/2000/svg" version="1.1">
<title>OpenSCAD Model</title>
<path d="
M 55.9369,-1647.09 L 56.5451,-1647.24 L 57.1289,-1647.48 L 57.6791,-1647.78 L 58.1871,-1648.15 L 58.6448,-1648.58
 L 59.0451,-1649.06 L 59.3815,-1649.59 L 59.6489,-1650.16 L 59.8429,-1650.76 L 59.9606,-1651.37 L 60,-1652
 L 60,-1852 L 59.9606,-1852.63 L 59.8429,-1853.24 L 59.6489,-1853.84 L 59.3815,-1854.41 L 59.0451,-1854.94
 L 58.6448,-1855.42 L 58.1871,-1855.85 L 57.6791,-1856.22 L 57.1289,-1856.52 L 56.5451,-1856.76 L 55.9369,-1856.91
 L 55.3139,-1856.99 L -55.3139,-1856.99 L -55.9369,-1856.91 L -56.5451,-1856.76 L -57.1289,-1856.52 L -57.6791,-1856.22
 L -58.1871,-1855.85 L -58.6448,-1855.42 L -59.0451,-1854.94 L -59.3815,-1854.41 L -59.6489,-1853.84 L -59.8429,-1853.24
 L -59.9606,-1852.63 L -60,-1852 L -60,-1652 L -59.9606,-1651.37 L -59.8429,-1650.76 L -59.6489,-1650.16
 L -59.3815,-1649.59 L -59.0451,-1649.06 L -58.6448,-1648.58 L -58.1871,-1648.15 L -57.6791,-1647.78 L -57.1289,-1647.48
 L -56.5451,-1647.24 L -55.9369,-1647.09 L -55.3139,-1647.01 L 55.3139,-1647.01 z
M -54.7512,-1648.51 L -55.2495,-1648.57 L -55.7361,-1648.7 L -56.2031,-1648.88 L -56.6433,-1649.12 L -57.0497,-1649.42
 L -57.4159,-1649.76 L -57.7361,-1650.15 L -58.0052,-1650.57 L -58.2191,-1651.03 L -58.3743,-1651.51 L -58.4685,-1652
 L -58.5,-1652.5 L -58.5,-1851.5 L -58.4685,-1852 L -58.3743,-1852.49 L -58.2191,-1852.97 L -58.0052,-1853.43
 L -57.7361,-1853.85 L -57.4159,-1854.24 L -57.0497,-1854.58 L -56.6433,-1854.88 L -56.2031,-1855.12 L -55.7361,-1855.3
 L -55.2495,-1855.43 L -54.7512,-1855.49 L 54.7512,-1855.49 L 55.2495,-1855.43 L 55.7361,-1855.3 L 56.2031,-1855.12
 L 56.6433,-1854.88 L 57.0497,-1854.58 L 57.4159,-1854.24 L 57.7361,-1853.85 L 58.0052,-1853.43 L 58.2191,-1852.97
 L 58.3743,-1852.49 L 58.4685,-1852 L 58.5,-1851.5 L 58.5,-1652.5 L 58.4685,-1652 L 58.3743,-1651.51
 L 58.2191,-1651.03 L 58.0052,-1650.57 L 57.7361,-1650.15 L 57.4159,-1649.76 L 57.0497,-1649.42 L 56.6433,-1649.12
 L 56.2031,-1648.88 L 55.7361,-1648.7 L 55.2495,-1648.57 L 54.7512,-1648.51 z
M 55.9369,-1428.09 L 56.5451,-1428.24 L 57.1289,-1428.48 L 57.6791,-1428.78 L 58.1871,-1429.15 L 58.6448,-1429.58
 L 59.0451,-1430.06 L 59.3815,-1430.59 L 59.6489,-1431.16 L 59.8429,-1431.76 L 59.9606,-1432.37 L 60,-1433
 L 60,-1633 L 59.9606,-1633.63 L 59.8429,-1634.24 L 59.6489,-1634.84 L 59.3815,-1635.41 L 59.0451,-1635.94
 L 58.6448,-1636.42 L 58.1871,-1636.85 L 57.6791,-1637.22 L 57.1289,-1637.52 L 56.5451,-1637.76 L 55.9369,-1637.91
 L 55.3139,-1637.99 L -55.3139,-1637.99 L -55.9369,-1637.91 L -56.5451,-1637.76 L -57.1289,-1637.52 L -57.6791,-1637.22
 L -58.1871,-1636.85 L -58.6448,-1636.42 L -59.0451,-1635.94 L -59.3815,-1635.41 L -59.6489,-1634.84 L -59.8429,-1634.24
 L -59.9606,-1633.63 L -60,-1633 L -60,-1433 L -59.9606,-1432.37 L -59.8429,-1431.76 L -59.6489,-1431.16
 L -59.3815,-1430.59 L -59.0451,-1430.06 L -58.6448,-1429.58 L -58.1871,-1429.15 L -57.6791,-1428.78 L -57.1289,-1428.48
 L -56.5451,-1428.24 L -55.9369,-1428.09 L -55.3139,-1428.01 L 55.3139,-1428.01 z
M -54.7512,-1429.51 L -55.2495,-1429.57 L -55.7361,-1429.7 L -56.2031,-1429.88 L -56.6433,-1430.12 L -57.0497,-1430.42
 L -57.4159,-1430.76 L -57.7361,-1431.15 L -58.0052,-1431.57 L -58.2191,-1432.03 L -58.3743,-1432.51 L -58.4685,-1433
 L -58.5,-1433.5 L -58.5,-1632.5 L -58.4685,-1633 L -58.3743,-1633.49 L -58.2191,-1633.97 L -58.0052,-1634.43
 L -57.7361,-1634.85 L -57.4159,-1635.24 L -57.0497,-1635.58 L -56.6433,-1635.88 L -56.2031,-1636.12 L -55.7361,-1636.3
 L -55.2495,-1636.43 L -54.7512,-1636.49 L 54.7512,-1636.49 L 55.2495,-1636.43 L 55.7361,-1636.3 L 56.2031,-1636.12
 L 56.6433,-1635.88 L 57.0497,-1635.58 L 57.4159,-1635.24 L 57.7361,-1634.85 L 58.0052,-1634.43 L 58.2191,-1633.97
 L 58.3743,-1633.49 L 58.4685,-1633 L 58.5,-1632.5 L 58.5,-1433.5 L 58.4685,-1433 L 58.3743,-1432.51
 L 58.2191,-1432.03 L 58.0052,-1431.57 L 57.7361,-1431.15 L 57.4159,-1430.76 L 57.0497,-1430.42 L 56.6433,-1430.12
 L 56.2031,-1429.88 L 55.7361,-1429.7 L 55.2495,-1429.57 L 54.7512,-1429.51 z
M 55.9369,-1209.09 L 56.5451,-1209.24 L 57.1289,-1209.48 L 57.6791,-1209.78 L 58.1871,-1210.15 L 58.6448,-1210.58
 L 59.0451,-1211.06 L 59.3815,-1211.59 L 59.6489,-1212.16 L 59.8429,-1212.76 L 59.9606,-1213.37 L 60,-1214
 L 60,-1414 L 59.9606,-1414.63 L 59.8429,-1415.24 L 59.6489,-1415.84 L 59.3815,-1416.41 L 59.0451,-1416.94
 L 58.6448,-1417.42 L 58.1871,-1417.85 L 57.6791,-1418.22 L 57.1289,-1418.52 L 56.5451,-1418.76 L 55.9369,-1418.91
 L 55.3139,-1418.99 L -55.3139,-1418.99 L -55.9369,-1418.91 L -56.5451,-1418.76 L -57.1289,-1418.52 L -57.6791,-1418.22
 L -58.1871,-1417.85 L -58.6448,-1417.42 L -59.0451,-1416.94 L -59.3815,-1416.41 L -59.6489,-1415.84 L -59.8429,-1415.24
 L -59.9606,-1414.63 L -60,-1414 L -60,-1214 L -59.9606,-1213.37 L -59.8429,-1212.76 L -59.6489,-1212.16
 L -59.3815,-1211.59 L -59.0451,-1211.06 L -58.6448,-1210.58 L -58.1871,-1210.15 L -57.6791,-1209.78 L -57.1289,-1209.48
 L -56.5451,-1209.24 L -55.9369,-1209.09 L -55.3139,-1209.01 L 55.3139,-1209.01 z
M -54.7432,-1210.64 L -55.2256,-1210.7 L -55.6967,-1210.82 L -56.1489,-1211 L -56.5751,-1211.23 L -56.9685,-1211.52
 L -57.323,-1211.85 L -57.633,-1212.22 L -57.8936,-1212.63 L -58.1007,-1213.07 L -58.251,-1213.54 L -58.3421,-1214.01
 L -58.3726,-1214.5 L -58.3726,-1413.5 L -58.3421,-1413.99 L -58.251,-1414.46 L -58.1007,-1414.93 L -57.8936,-1415.37
 L -57.633,-1415.78 L -57.323,-1416.15 L -56.9685,-1416.48 L -56.5751,-1416.77 L -56.1489,-1417 L -55.6967,-1417.18
 L -55.2256,-1417.3 L -54.7432,-1417.36 L 54.7432,-1417.36 L 55.2256,-1417.3 L 55.6967,-1417.18 L 56.1489,-1417
 L 56.5751,-1416.77 L 56.9685,-1416.48 L 57.323,-1416.15 L 57.633,-1415.78 L 57.8936,-1415.37 L 58.1007,-1414.93
 L 58.251,-1414.46 L 58.3421,-1413.99 L 58.3726,-1413.5 L 58.3726,-1214.5 L 58.3421,-1214.01 L 58.251,-1213.54
 L 58.1007,-1213.07 L 57.8936,-1212.63 L 57.633,-1212.22 L 57.323,-1211.85 L 56.9685,-1211.52 L 56.5751,-1211.23
 L 56.1489,-1211 L 55.6967,-1210.82 L 55.2256,-1210.7 L 54.7432,-1210.64 z
M 55.9369,-990.089 L 56.5451,-990.245 L 57.1289,-990.476 L 57.6791,-990.778 L 58.1871,-991.147 L 58.6448,-991.577
 L 59.0451,-992.061 L 59.3815,-992.591 L 59.6489,-993.159 L 59.8429,-993.757 L 59.9606,-994.373 L 60,-995
 L 60,-1195 L 59.9606,-1195.63 L 59.8429,-1196.24 L 59.6489,-1196.84 L 59.3815,-1197.41 L 59.0451,-1197.94
 L 58.6448,-1198.42 L 58.1871,-1198.85 L 57.6791,-1199.22 L 57.1289,-1199.52 L 56.5451,-1199.76 L 55.9369,-1199.91
 L 55.3139,-1199.99 L -55.3139,-1199.99 L -55.9369,-1199.91 L -56.5451,-1199.76 L -57.1289,-1199.52 L -57.6791,-1199.22
 L -58.1871,-1198.85 L -58.6448,-1198.42 L -59.0451,-1197.94 L -59.3815,-1197.41 L -59.6489,-1196.84 L -59.8429,-1196.24
 L -59.9606,-1195.63 L -60,-1195 L -60,-995 L -59.9606,-994.373 L -59.8429,-993.757 L -59.6489,-993.159
 L -59.3815,-992.591 L -59.0451,-992.061 L -58.6448,-991.577 L -58.1871,-991.147 L -57.6791,-990.778 L -57.1289,-990.476
 L -56.5451,-990.245 L -55.9369,-990.089 L -55.3139,-990.01 L 55.3139,-990.01 z
M 52.3493,-1190.1 L 52.0503,-1190.14 L 51.7584,-1190.22 L 51.4781,-1190.33 L 51.214,-1190.47 L 50.9702,-1190.65
 L 50.7505,-1190.86 L 50.5583,-1191.09 L 50.3969,-1191.34 L 50.2685,-1191.62 L 50.1754,-1191.9 L 50.1189,-1192.2
 L 50.1,-1192.5 L 50.1189,-1192.8 L 50.1754,-1193.1 L 50.2685,-1193.38 L 50.3969,-1193.66 L 50.5583,-1193.91
 L 50.7505,-1194.14 L 50.9702,-1194.35 L 51.214,-1194.53 L 51.4781,-1194.67 L 51.7584,-1194.78 L 52.0503,-1194.86
 L 52.3493,-1194.9 L 52.6507,-1194.9 L 52.9497,-1194.86 L 53.2416,-1194.78 L 53.5219,-1194.67 L 53.786,-1194.53
 L 54.0298,-1194.35 L 54.2495,-1194.14 L 54.4416,-1193.91 L 54.6031,-1193.66 L 54.7315,-1193.38 L 54.8246,-1193.1
 L 54.8811,-1192.8 L 54.9,-1192.5 L 54.8811,-1192.2 L 54.8246,-1191.9 L 54.7315,-1191.62 L 54.6031,-1191.34
 L 54.4416,-1191.09 L 54.2495,-1190.86 L 54.0298,-1190.65 L 53.786,-1190.47 L 53.5219,-1190.33 L 53.2416,-1190.22
 L 52.9497,-1190.14 L 52.6507,-1190.1 z
M -52.6507,-1190.1 L -52.9497,-1190.14 L -53.2416,-1190.22 L -53.5219,-1190.33 L -53.786,-1190.47 L -54.0298,-1190.65
 L -54.2495,-1190.86 L -54.4416,-1191.09 L -54.6031,-1191.34 L -54.7315,-1191.62 L -54.8246,-1191.9 L -54.8811,-1192.2
 L -54.9,-1192.5 L -54.8811,-1192.8 L -54.8246,-1193.1 L -54.7315,-1193.38 L -54.6031,-1193.66 L -54.4416,-1193.91
 L -54.2495,-1194.14 L -54.0298,-1194.35 L -53.786,-1194.53 L -53.5219,-1194.67 L -53.2416,-1194.78 L -52.9497,-1194.86
 L -52.6507,-1194.9 L -52.3493,-1194.9 L -52.0503,-1194.86 L -51.7584,-1194.78 L -51.4781,-1194.67 L -51.214,-1194.53
 L -50.9702,-1194.35 L -50.7505,-1194.14 L -50.5583,-1193.91 L -50.3969,-1193.66 L -50.2685,-1193.38 L -50.1754,-1193.1
 L -50.1189,-1192.8 L -50.1,-1192.5 L -50.1189,-1192.2 L -50.1754,-1191.9 L -50.2685,-1191.62 L -50.3969,-1191.34
 L -50.5583,-1191.09 L -50.7505,-1190.86 L -50.9702,-1190.65 L -51.214,-1190.47 L -51.4781,-1190.33 L -51.7584,-1190.22
 L -52.0503,-1190.14 L -52.3493,-1190.1 z
M 52.3493,-995.105 L 52.0503,-995.143 L 51.7584,-995.217 L 51.4781,-995.328 L 51.214,-995.474 L 50.9702,-995.651
 L 50.7505,-995.857 L 50.5583,-996.089 L 50.3969,-996.344 L 50.2685,-996.617 L 50.1754,-996.903 L 50.1189,-997.199
 L 50.1,-997.5 L 50.1189,-997.801 L 50.1754,-998.097 L 50.2685,-998.383 L 50.3969,-998.656 L 50.5583,-998.911
 L 50.7505,-999.143 L 50.9702,-999.349 L 51.214,-999.526 L 51.4781,-999.672 L 51.7584,-999.783 L 52.0503,-999.857
 L 52.3493,-999.895 L 52.6507,-999.895 L 52.9497,-999.857 L 53.2416,-999.783 L 53.5219,-999.672 L 53.786,-999.526
 L 54.0298,-999.349 L 54.2495,-999.143 L 54.4416,-998.911 L 54.6031,-998.656 L 54.7315,-998.383 L 54.8246,-998.097
 L 54.8811,-997.801 L 54.9,-997.5 L 54.8811,-997.199 L 54.8246,-996.903 L 54.7315,-996.617 L 54.6031,-996.344
 L 54.4416,-996.089 L 54.2495,-995.857 L 54.0298,-995.651 L 53.786,-995.474 L 53.5219,-995.328 L 53.2416,-995.217
 L 52.9497,-995.143 L 52.6507,-995.105 z
M -52.6507,-995.105 L -52.9497,-995.143 L -53.2416,-995.217 L -53.5219,-995.328 L -53.786,-995.474 L -54.0298,-995.651
 L -54.2495,-995.857 L -54.4416,-996.089 L -54.6031,-996.344 L -54.7315,-996.617 L -54.8246,-996.903 L -54.8811,-997.199
 L -54.9,-997.5 L -54.8811,-997.801 L -54.8246,-998.097 L -54.7315,-998.383 L -54.6031,-998.656 L -54.4416,-998.911
 L -54.2495,-999.143 L -54.0298,-999.349 L -53.786,-999.526 L -53.5219,-999.672 L -53.2416,-999.783 L -52.9497,-999.857
 L -52.6507,-999.895 L -52.3493,-999.895 L -52.0503,-999.857 L -51.7584,-999.783 L -51.4781,-999.672 L -51.214,-999.526
 L -50.9702,-999.349 L -50.7505,-999.143 L -50.5583,-998.911 L -50.3969,-998.656 L -50.2685,-998.383 L -50.1754,-998.097
 L -50.1189,-997.801 L -50.1,-997.5 L -50.1189,-997.199 L -50.1754,-996.903 L -50.2685,-996.617 L -50.3969,-996.344
 L -50.5583,-996.089 L -50.7505,-995.857 L -50.9702,-995.651 L -51.214,-995.474 L -51.4781,-995.328 L -51.7584,-995.217
 L -52.0503,-995.143 L -52.3493,-995.105 z
M 55.9369,-771.089 L 56.5451,-771.245 L 57.1289,-771.476 L 57.6791,-771.778 L 58.1871,-772.147 L 58.6448,-772.577
 L 59.0451,-773.061 L 59.3815,-773.591 L 59.6489,-774.159 L 59.8429,-774.757 L 59.9606,-775.373 L 60,-776
 L 60,-976 L 59.9606,-976.627 L 59.8429,-977.243 L 59.6489,-977.841 L 59.3815,-978.409 L 59.0451,-978.939
 L 58.6448,-979.423 L 58.1871,-979.853 L 57.6791,-980.222 L 57.1289,-980.524 L 56.5451,-980.755 L 55.9369,-980.911
 L 55.3139,-980.99 L -55.3139,-980.99 L -55.9369,-980.911 L -56.5451,-980.755 L -57.1289,-980.524 L -57.6791,-980.222
 L -58.1871,-979.853 L -58.6448,-979.423 L -59.0451,-978.939 L -59.3815,-978.409 L -59.6489,-977.841 L -59.8429,-977.243
 L -59.9606,-976.627 L -60,-976 L -60,-776 L -59.9606,-775.373 L -59.8429,-774.757 L -59.6489,-774.159
 L -59.3815,-773.591 L -59.0451,-773.061 L -58.6448,-772.577 L -58.1871,-772.147 L -57.6791,-771.778 L -57.1289,-771.476
 L -56.5451,-771.245 L -55.9369,-771.089 L -55.3139,-771.01 L 55.3139,-771.01 z
M 52.387,-971.704 L 52.1627,-971.732 L 51.9438,-971.788 L 51.7336,-971.871 L 51.5355,-971.98 L 51.3526,-972.113
 L 51.1879,-972.268 L 51.0438,-972.442 L 50.9226,-972.633 L 50.8264,-972.837 L 50.7565,-973.052 L 50.7142,-973.274
 L 50.7,-973.5 L 50.7142,-973.726 L 50.7565,-973.948 L 50.8264,-974.163 L 50.9226,-974.367 L 51.0438,-974.558
 L 51.1879,-974.732 L 51.3526,-974.887 L 51.5355,-975.02 L 51.7336,-975.129 L 51.9438,-975.212 L 52.1627,-975.268
 L 52.387,-975.296 L 52.613,-975.296 L 52.8373,-975.268 L 53.0562,-975.212 L 53.2664,-975.129 L 53.4645,-975.02
 L 53.6474,-974.887 L 53.8121,-974.732 L 53.9562,-974.558 L 54.0773,-974.367 L 54.1736,-974.163 L 54.2434,-973.948
 L 54.2858,-973.726 L 54.3,-973.5 L 54.2858,-973.274 L 54.2434,-973.052 L 54.1736,-972.837 L 54.0773,-972.633
 L 53.9562,-972.442 L 53.8121,-972.268 L 53.6474,-972.113 L 53.4645,-971.98 L 53.2664,-971.871 L 53.0562,-971.788
 L 52.8373,-971.732 L 52.613,-971.704 z
M -52.613,-971.704 L -52.8373,-971.732 L -53.0562,-971.788 L -53.2664,-971.871 L -53.4645,-971.98 L -53.6474,-972.113
 L -53.8121,-972.268 L -53.9562,-972.442 L -54.0773,-972.633 L -54.1736,-972.837 L -54.2434,-973.052 L -54.2858,-973.274
 L -54.3,-973.5 L -54.2858,-973.726 L -54.2434,-973.948 L -54.1736,-974.163 L -54.0773,-974.367 L -53.9562,-974.558
 L -53.8121,-974.732 L -53.6474,-974.887 L -53.4645,-975.02 L -53.2664,-975.129 L -53.0562,-975.212 L -52.8373,-975.268
 L -52.613,-975.296 L -52.387,-975.296 L -52.1627,-975.268 L -51.9438,-975.212 L -51.7336,-975.129 L -51.5355,-975.02
 L -51.3526,-974.887 L -51.1879,-974.732 L -51.0438,-974.558 L -50.9226,-974.367 L -50.8264,-974.163 L -50.7565,-973.948
 L -50.7142,-973.726 L -50.7,-973.5 L -50.7142,-973.274 L -50.7565,-973.052 L -50.8264,-972.837 L -50.9226,-972.633
 L -51.0438,-972.442 L -51.1879,-972.268 L -51.3526,-972.113 L -51.5355,-971.98 L -51.7336,-971.871 L -51.9438,-971.788
 L -52.1627,-971.732 L -52.387,-971.704 z
M -52.613,-776.704 L -52.8373,-776.732 L -53.0562,-776.788 L -53.2664,-776.871 L -53.4645,-776.98 L -53.6474,-777.113
 L -53.8121,-777.268 L -53.9562,-777.442 L -54.0773,-777.633 L -54.1736,-777.837 L -54.2434,-778.052 L -54.2858,-778.274
 L -54.3,-778.5 L -54.2858,-778.726 L -54.2434,-778.948 L -54.1736,-779.163 L -54.0773,-779.367 L -53.9562,-779.558
 L -53.8121,-779.732 L -53.6474,-779.887 L -53.4645,-780.02 L -53.2664,-780.129 L -53.0562,-780.212 L -52.8373,-780.268
 L -52.613,-780.296 L -52.387,-780.296 L -52.1627,-780.268 L -51.9438,-780.212 L -51.7336,-780.129 L -51.5355,-780.02
 L -51.3526,-779.887 L -51.1879,-779.732 L -51.0438,-779.558 L -50.9226,-779.367 L -50.8264,-779.163 L -50.7565,-778.948
 L -50.7142,-778.726 L -50.7,-778.5 L -50.7142,-778.274 L -50.7565,-778.052 L -50.8264,-777.837 L -50.9226,-777.633
 L -51.0438,-777.442 L -51.1879,-777.268 L -51.3526,-777.113 L -51.5355,-776.98 L -51.7336,-776.871 L -51.9438,-776.788
 L -52.1627,-776.732 L -52.387,-776.704 z
M 52.387,-776.704 L 52.1627,-776.732 L 51.9438,-776.788 L 51.7336,-776.871 L 51.5355,-776.98 L 51.3526,-777.113
 L 51.1879,-777.268 L 51.0438,-777.442 L 50.9226,-777.633 L 50.8264,-777.837 L 50.7565,-778.052 L 50.7142,-778.274
 L 50.7,-778.5 L 50.7142,-778.726 L 50.7565,-778.948 L 50.8264,-779.163 L 50.9226,-779.367 L 51.0438,-779.558
 L 51.1879,-779.732 L 51.3526,-779.887 L 51.5355,-780.02 L 51.7336,-780.129 L 51.9438,-780.212 L 52.1627,-780.268
 L 52.387,-780.296 L 52.613,-780.296 L 52.8373,-780.268 L 53.0562,-780.212 L 53.2664,-780.129 L 53.4645,-780.02
 L 53.6474,-779.887 L 53.8121,-779.732 L 53.9562,-779.558 L 54.0773,-779.367 L 54.1736,-779.163 L 54.2434,-778.948
 L 54.2858,-778.726 L 54.3,-778.5 L 54.2858,-778.274 L 54.2434,-778.052 L 54.1736,-777.837 L 54.0773,-777.633
 L 53.9562,-777.442 L 53.8121,-777.268 L 53.6474,-777.113 L 53.4645,-776.98 L 53.2664,-776.871 L 53.0562,-776.788
 L 52.8373,-776.732 L 52.613,-776.704 z
" stroke="black" fill="lightgray" stroke-width="0.5"/>
</svg>
