<?xml version="1.0" standalone="no"?>
<!DOCTYPE svg PUBLIC "-//W3C//DTD SVG 1.1//EN" "http://www.w3.org/Graphics/SVG/1.1/DTD/svg11.dtd">
<svg width="30mm" height="981mm" viewBox="-15 -1926 30 981" xmlns="http://www.w3.org/2000/svg" version="1.1">
<title>OpenSCAD Model</title>
<path d="
M 10.9369,-1836.09 L 11.5451,-1836.24 L 12.1289,-1836.48 L 12.6791,-1836.78 L 13.1871,-1837.15 L 13.6448,-1837.58
 L 14.0451,-1838.06 L 14.3815,-1838.59 L 14.6489,-1839.16 L 14.8429,-1839.76 L 14.9606,-1840.37 L 15,-1841
 L 15,-1921 L 14.9606,-1921.63 L 14.8429,-1922.24 L 14.6489,-1922.84 L 14.3815,-1923.41 L 14.0451,-1923.94
 L 13.6448,-1924.42 L 13.1871,-1924.85 L 12.6791,-1925.22 L 12.1289,-1925.52 L 11.5451,-1925.76 L 10.9369,-1925.91
 L 10.3139,-1925.99 L -10.3139,-1925.99 L -10.9369,-1925.91 L -11.5451,-1925.76 L -12.1289,-1925.52 L -12.6791,-1925.22
 L -13.1871,-1924.85 L -13.6448,-1924.42 L -14.0451,-1923.94 L -14.3815,-1923.41 L -14.6489,-1922.84 L -14.8429,-1922.24
 L -14.9606,-1921.63 L -15,-1921 L -15,-1841 L -14.9606,-1840.37 L -14.8429,-1839.76 L -14.6489,-1839.16
 L -14.3815,-1838.59 L -14.0451,-1838.06 L -13.6448,-1837.58 L -13.1871,-1837.15 L -12.6791,-1836.78 L -12.1289,-1836.48
 L -11.5451,-1836.24 L -10.9369,-1836.09 L -10.3139,-1836.01 L 10.3139,-1836.01 z
M -9.75116,-1837.51 L -10.2495,-1837.57 L -10.7361,-1837.7 L -11.2031,-1837.88 L -11.6433,-1838.12 L -12.0497,-1838.42
 L -12.4159,-1838.76 L -12.7361,-1839.15 L -13.0052,-1839.57 L -13.2191,-1840.03 L -13.3743,-1840.51 L -13.4684,-1841
 L -13.5,-1841.5 L -13.5,-1920.5 L -13.4684,-1921 L -13.3743,-1921.49 L -13.2191,-1921.97 L -13.0052,-1922.43
 L -12.7361,-1922.85 L -12.4159,-1923.24 L -12.0497,-1923.58 L -11.6433,-1923.88 L -11.2031,-1924.12 L -10.7361,-1924.3
 L -10.2495,-1924.43 L -9.75116,-1924.49 L 9.75116,-1924.49 L 10.2495,-1924.43 L 10.7361,-1924.3 L 11.2031,-1924.12
 L 11.6433,-1923.88 L 12.0497,-1923.58 L 12.4159,-1923.24 L 12.7361,-1922.85 L 13.0052,-1922.43 L 13.2191,-1921.97
 L 13.3743,-1921.49 L 13.4684,-1921 L 13.5,-1920.5 L 13.5,-1841.5 L 13.4684,-1841 L 13.3743,-1840.51
 L 13.2191,-1840.03 L 13.0052,-1839.57 L 12.7361,-1839.15 L 12.4159,-1838.76 L 12.0497,-1838.42 L 11.6433,-1838.12
 L 11.2031,-1837.88 L 10.7361,-1837.7 L 10.2495,-1837.57 L 9.75116,-1837.51 z
M 10.9369,-1737.09 L 11.5451,-1737.24 L 12.1289,-1737.48 L 12.6791,-1737.78 L 13.1871,-1738.15 L 13.6448,-1738.58
 L 14.0451,-1739.06 L 14.3815,-1739.59 L 14.6489,-1740.16 L 14.8429,-1740.76 L 14.9606,-1741.37 L 15,-1742
 L 15,-1822 L 14.9606,-1822.63 L 14.8429,-1823.24 L 14.6489,-1823.84 L 14.3815,-1824.41 L 14.0451,-1824.94
 L 13.6448,-1825.42 L 13.1871,-1825.85 L 12.6791,-1826.22 L 12.1289,-1826.52 L 11.5451,-1826.76 L 10.9369,-1826.91
 L 10.3139,-1826.99 L -10.3139,-1826.99 L -10.9369,-1826.91 L -11.5451,-1826.76 L -12.1289,-1826.52 L -12.6791,-1826.22
 L -13.1871,-1825.85 L -13.6448,-1825.42 L -14.0451,-1824.94 L -14.3815,-1824.41 L -14.6489,-1823.84 L -14.8429,-1823.24
 L -14.9606,-1822.63 L -15,-1822 L -15,-1742 L -14.9606,-1741.37 L -14.8429,-1740.76 L -14.6489,-1740.16
 L -14.3815,-1739.59 L -14.0451,-1739.06 L -13.6448,-1738.58 L -13.1871,-1738.15 L -12.6791,-1737.78 L -12.1289,-1737.48
 L -11.5451,-1737.24 L -10.9369,-1737.09 L -10.3139,-1737.01 L 10.3139,-1737.01 z
M -9.75116,-1738.51 L -10.2495,-1738.57 L -10.7361,-1738.7 L -11.2031,-1738.88 L -11.6433,-1739.12 L -12.0497,-1739.42
 L -12.4159,-1739.76 L -12.7361,-1740.15 L -13.0052,-1740.57 L -13.2191,-1741.03 L -13.3743,-1741.51 L -13.4684,-1742
 L -13.5,-1742.5 L -13.5,-1821.5 L -13.4684,-1822 L -13.3743,-1822.49 L -13.2191,-1822.97 L -13.0052,-1823.43
 L -12.7361,-1823.85 L -12.4159,-1824.24 L -12.0497,-1824.58 L -11.6433,-1824.88 L -11.2031,-1825.12 L -10.7361,-1825.3
 L -10.2495,-1825.43 L -9.75116,-1825.49 L 9.75116,-1825.49 L 10.2495,-1825.43 L 10.7361,-1825.3 L 11.2031,-1825.12
 L 11.6433,-1824.88 L 12.0497,-1824.58 L 12.4159,-1824.24 L 12.7361,-1823.85 L 13.0052,-1823.43 L 13.2191,-1822.97
 L 13.3743,-1822.49 L 13.4684,-1822 L 13.5,-1821.5 L 13.5,-1742.5 L 13.4684,-1742 L 13.3743,-1741.51
 L 13.2191,-1741.03 L 13.0052,-1740.57 L 12.7361,-1740.15 L 12.4159,-1739.76 L 12.0497,-1739.42 L 11.6433,-1739.12
 L 11.2031,-1738.88 L 10.7361,-1738.7 L 10.2495,-1738.57 L 9.75116,-1738.51 z
M 10.9369,-1638.09 L 11.5451,-1638.24 L 12.1289,-1638.48 L 12.6791,-1638.78 L 13.1871,-1639.15 L 13.6448,-1639.58
 L 14.0451,-1640.06 L 14.3815,-1640.59 L 14.6489,-1641.16 L 14.8429,-1641.76 L 14.9606,-1642.37 L 15,-1643
 L 15,-1723 L 14.9606,-1723.63 L 14.8429,-1724.24 L 14.6489,-1724.84 L 14.3815,-1725.41 L 14.0451,-1725.94
 L 13.6448,-1726.42 L 13.1871,-1726.85 L 12.6791,-1727.22 L 12.1289,-1727.52 L 11.5451,-1727.76 L 10.9369,-1727.91
 L 10.3139,-1727.99 L -10.3139,-1727.99 L -10.9369,-1727.91 L -11.5451,-1727.76 L -12.1289,-1727.52 L -12.6791,-1727.22
 L -13.1871,-1726.85 L -13.6448,-1726.42 L -14.0451,-1725.94 L -14.3815,-1725.41 L -14.6489,-1724.84 L -14.8429,-1724.24
 L -14.9606,-1723.63 L -15,-1723 L -15,-1643 L -14.9606,-1642.37 L -14.8429,-1641.76 L -14.6489,-1641.16
 L -14.3815,-1640.59 L -14.0451,-1640.06 L -13.6448,-1639.58 L -13.1871,-1639.15 L -12.6791,-1638.78 L -12.1289,-1638.48
 L -11.5451,-1638.24 L -10.9369,-1638.09 L -10.3139,-1638.01 L 10.3139,-1638.01 z
M -9.75116,-1639.51 L -10.2495,-1639.57 L -10.7361,-1639.7 L -11.2031,-1639.88 L -11.6433,-1640.12 L -12.0497,-1640.42
 L -12.4159,-1640.76 L -12.7361,-1641.15 L -13.0052,-1641.57 L -13.2191,-1642.03 L -13.3743,-1642.51 L -13.4684,-1643
 L -13.5,-1643.5 L -13.5,-1722.5 L -13.4684,-1723 L -13.3743,-1723.49 L -13.2191,-1723.97 L -13.0052,-1724.43
 L -12.7361,-1724.85 L -12.4159,-1725.24 L -12.0497,-1725.58 L -11.6433,-1725.88 L -11.2031,-1726.12 L -10.7361,-1726.3
 L -10.2495,-1726.43 L -9.75116,-1726.49 L 9.75116,-1726.49 L 10.2495,-1726.43 L 10.7361,-1726.3 L 11.2031,-1726.12
 L 11.6433,-1725.88 L 12.0497,-1725.58 L 12.4159,-1725.24 L 12.7361,-1724.85 L 13.0052,-1724.43 L 13.2191,-1723.97
 L 13.3743,-1723.49 L 13.4684,-1723 L 13.5,-1722.5 L 13.5,-1643.5 L 13.4684,-1643 L 13.3743,-1642.51
 L 13.2191,-1642.03 L 13.0052,-1641.57 L 12.7361,-1641.15 L 12.4159,-1640.76 L 12.0497,-1640.42 L 11.6433,-1640.12
 L 11.2031,-1639.88 L 10.7361,-1639.7 L 10.2495,-1639.57 L 9.75116,-1639.51 z
M 10.9369,-1539.09 L 11.5451,-1539.24 L 12.1289,-1539.48 L 12.6791,-1539.78 L 13.1871,-1540.15 L 13.6448,-1540.58
 L 14.0451,-1541.06 L 14.3815,-1541.59 L 14.6489,-1542.16 L 14.8429,-1542.76 L 14.9606,-1543.37 L 15,-1544
 L 15,-1624 L 14.9606,-1624.63 L 14.8429,-1625.24 L 14.6489,-1625.84 L 14.3815,-1626.41 L 14.0451,-1626.94
 L 13.6448,-1627.42 L 13.1871,-1627.85 L 12.6791,-1628.22 L 12.1289,-1628.52 L 11.5451,-1628.76 L 10.9369,-1628.91
 L 10.3139,-1628.99 L -10.3139,-1628.99 L -10.9369,-1628.91 L -11.5451,-1628.76 L -12.1289,-1628.52 L -12.6791,-1628.22
 L -13.1871,-1627.85 L -13.6448,-1627.42 L -14.0451,-1626.94 L -14.3815,-1626.41 L -14.6489,-1625.84 L -14.8429,-1625.24
 L -14.9606,-1624.63 L -15,-1624 L -15,-1544 L -14.9606,-1543.37 L -14.8429,-1542.76 L -14.6489,-1542.16
 L -14.3815,-1541.59 L -14.0451,-1541.06 L -13.6448,-1540.58 L -13.1871,-1540.15 L -12.6791,-1539.78 L -12.1289,-1539.48
 L -11.5451,-1539.24 L -10.9369,-1539.09 L -10.3139,-1539.01 L 10.3139,-1539.01 z
M -9.75116,-1540.51 L -10.2495,-1540.57 L -10.7361,-1540.7 L -11.2031,-1540.88 L -11.6433,-1541.12 L -12.0497,-1541.42
 L -12.4159,-1541.76 L -12.7361,-1542.15 L -13.0052,-1542.57 L -13.2191,-1543.03 L -13.3743,-1543.51 L -13.4684,-1544
 L -13.5,-1544.5 L -13.5,-1623.5 L -13.4684,-1624 L -13.3743,-1624.49 L -13.2191,-1624.97 L -13.0052,-1625.43
 L -12.7361,-1625.85 L -12.4159,-1626.24 L -12.0497,-1626.58 L -11.6433,-1626.88 L -11.2031,-1627.12 L -10.7361,-1627.3
 L -10.2495,-1627.43 L -9.75116,-1627.49 L 9.75116,-1627.49 L 10.2495,-1627.43 L 10.7361,-1627.3 L 11.2031,-1627.12
 L 11.6433,-1626.88 L 12.0497,-1626.58 L 12.4159,-1626.24 L 12.7361,-1625.85 L 13.0052,-1625.43 L 13.2191,-1624.97
 L 13.3743,-1624.49 L 13.4684,-1624 L 13.5,-1623.5 L 13.5,-1544.5 L 13.4684,-1544 L 13.3743,-1543.51
 L 13.2191,-1543.03 L 13.0052,-1542.57 L 12.7361,-1542.15 L 12.4159,-1541.76 L 12.0497,-1541.42 L 11.6433,-1541.12
 L 11.2031,-1540.88 L 10.7361,-1540.7 L 10.2495,-1540.57 L 9.75116,-1540.51 z
M 10.9369,-1440.09 L 11.5451,-1440.24 L 12.1289,-1440.48 L 12.6791,-1440.78 L 13.1871,-1441.15 L 13.6448,-1441.58
 L 14.0451,-1442.06 L 14.3815,-1442.59 L 14.6489,-1443.16 L 14.8429,-1443.76 L 14.9606,-1444.37 L 15,-1445
 L 15,-1525 L 14.9606,-1525.63 L 14.8429,-1526.24 L 14.6489,-1526.84 L 14.3815,-1527.41 L 14.0451,-1527.94
 L 13.6448,-1528.42 L 13.1871,-1528.85 L 12.6791,-1529.22 L 12.1289,-1529.52 L 11.5451,-1529.76 L 10.9369,-1529.91
 L 10.3139,-1529.99 L -10.3139,-1529.99 L -10.9369,-1529.91 L -11.5451,-1529.76 L -12.1289,-1529.52 L -12.6791,-1529.22
 L -13.1871,-1528.85 L -13.6448,-1528.42 L -14.0451,-1527.94 L -14.3815,-1527.41 L -14.6489,-1526.84 L -14.8429,-1526.24
 L -14.9606,-1525.63 L -15,-1525 L -15,-1445 L -14.9606,-1444.37 L -14.8429,-1443.76 L -14.6489,-1443.16
 L -14.3815,-1442.59 L -14.0451,-1442.06 L -13.6448,-1441.58 L -13.1871,-1441.15 L -12.6791,-1440.78 L -12.1289,-1440.48
 L -11.5451,-1440.24 L -10.9369,-1440.09 L -10.3139,-1440.01 L 10.3139,-1440.01 z
M -9.75116,-1441.51 L -10.2495,-1441.57 L -10.7361,-1441.7 L -11.2031,-1441.88 L -11.6433,-1442.12 L -12.0497,-1442.42
 L -12.4159,-1442.76 L -12.7361,-1443.15 L -13.0052,-1443.57 L -13.2191,-1444.03 L -13.3743,-1444.51 L -13.4684,-1445
 L -13.5,-1445.5 L -13.5,-1524.5 L -13.4684,-1525 L -13.3743,-1525.49 L -13.2191,-1525.97 L -13.0052,-1526.43
 L -12.7361,-1526.85 L -12.4159,-1527.24 L -12.0497,-1527.58 L -11.6433,-1527.88 L -11.2031,-1528.12 L -10.7361,-1528.3
 L -10.2495,-1528.43 L -9.75116,-1528.49 L 9.75116,-1528.49 L 10.2495,-1528.43 L 10.7361,-1528.3 L 11.2031,-1528.12
 L 11.6433,-1527.88 L 12.0497,-1527.58 L 12.4159,-1527.24 L 12.7361,-1526.85 L 13.0052,-1526.43 L 13.2191,-1525.97
 L 13.3743,-1525.49 L 13.4684,-1525 L 13.5,-1524.5 L 13.5,-1445.5 L 13.4684,-1445 L 13.3743,-1444.51
 L 13.2191,-1444.03 L 13.0052,-1443.57 L 12.7361,-1443.15 L 12.4159,-1442.76 L 12.0497,-1442.42 L 11.6433,-1442.12
 L 11.2031,-1441.88 L 10.7361,-1441.7 L 10.2495,-1441.57 L 9.75116,-1441.51 z
M 10.9369,-1341.09 L 11.5451,-1341.24 L 12.1289,-1341.48 L 12.6791,-1341.78 L 13.1871,-1342.15 L 13.6448,-1342.58
 L 14.0451,-1343.06 L 14.3815,-1343.59 L 14.6489,-1344.16 L 14.8429,-1344.76 L 14.9606,-1345.37 L 15,-1346
 L 15,-1426 L 14.9606,-1426.63 L 14.8429,-1427.24 L 14.6489,-1427.84 L 14.3815,-1428.41 L 14.0451,-1428.94
 L 13.6448,-1429.42 L 13.1871,-1429.85 L 12.6791,-1430.22 L 12.1289,-1430.52 L 11.5451,-1430.76 L 10.9369,-1430.91
 L 10.3139,-1430.99 L -10.3139,-1430.99 L -10.9369,-1430.91 L -11.5451,-1430.76 L -12.1289,-1430.52 L -12.6791,-1430.22
 L -13.1871,-1429.85 L -13.6448,-1429.42 L -14.0451,-1428.94 L -14.3815,-1428.41 L -14.6489,-1427.84 L -14.8429,-1427.24
 L -14.9606,-1426.63 L -15,-1426 L -15,-1346 L -14.9606,-1345.37 L -14.8429,-1344.76 L -14.6489,-1344.16
 L -14.3815,-1343.59 L -14.0451,-1343.06 L -13.6448,-1342.58 L -13.1871,-1342.15 L -12.6791,-1341.78 L -12.1289,-1341.48
 L -11.5451,-1341.24 L -10.9369,-1341.09 L -10.3139,-1341.01 L 10.3139,-1341.01 z
M -9.75116,-1342.51 L -10.2495,-1342.57 L -10.7361,-1342.7 L -11.2031,-1342.88 L -11.6433,-1343.12 L -12.0497,-1343.42
 L -12.4159,-1343.76 L -12.7361,-1344.15 L -13.0052,-1344.57 L -13.2191,-1345.03 L -13.3743,-1345.51 L -13.4684,-1346
 L -13.5,-1346.5 L -13.5,-1425.5 L -13.4684,-1426 L -13.3743,-1426.49 L -13.2191,-1426.97 L -13.0052,-1427.43
 L -12.7361,-1427.85 L -12.4159,-1428.24 L -12.0497,-1428.58 L -11.6433,-1428.88 L -11.2031,-1429.12 L -10.7361,-1429.3
 L -10.2495,-1429.43 L -9.75116,-1429.49 L 9.75116,-1429.49 L 10.2495,-1429.43 L 10.7361,-1429.3 L 11.2031,-1429.12
 L 11.6433,-1428.88 L 12.0497,-1428.58 L 12.4159,-1428.24 L 12.7361,-1427.85 L 13.0052,-1427.43 L 13.2191,-1426.97
 L 13.3743,-1426.49 L 13.4684,-1426 L 13.5,-1425.5 L 13.5,-1346.5 L 13.4684,-1346 L 13.3743,-1345.51
 L 13.2191,-1345.03 L 13.0052,-1344.57 L 12.7361,-1344.15 L 12.4159,-1343.76 L 12.0497,-1343.42 L 11.6433,-1343.12
 L 11.2031,-1342.88 L 10.7361,-1342.7 L 10.2495,-1342.57 L 9.75116,-1342.51 z
M 10.9369,-1242.09 L 11.5451,-1242.24 L 12.1289,-1242.48 L 12.6791,-1242.78 L 13.1871,-1243.15 L 13.6448,-1243.58
 L 14.0451,-1244.06 L 14.3815,-1244.59 L 14.6489,-1245.16 L 14.8429,-1245.76 L 14.9606,-1246.37 L 15,-1247
 L 15,-1327 L 14.9606,-1327.63 L 14.8429,-1328.24 L 14.6489,-1328.84 L 14.3815,-1329.41 L 14.0451,-1329.94
 L 13.6448,-1330.42 L 13.1871,-1330.85 L 12.6791,-1331.22 L 12.1289,-1331.52 L 11.5451,-1331.76 L 10.9369,-1331.91
 L 10.3139,-1331.99 L -10.3139,-1331.99 L -10.9369,-1331.91 L -11.5451,-1331.76 L -12.1289,-1331.52 L -12.6791,-1331.22
 L -13.1871,-1330.85 L -13.6448,-1330.42 L -14.0451,-1329.94 L -14.3815,-1329.41 L -14.6489,-1328.84 L -14.8429,-1328.24
 L -14.9606,-1327.63 L -15,-1327 L -15,-1247 L -14.9606,-1246.37 L -14.8429,-1245.76 L -14.6489,-1245.16
 L -14.3815,-1244.59 L -14.0451,-1244.06 L -13.6448,-1243.58 L -13.1871,-1243.15 L -12.6791,-1242.78 L -12.1289,-1242.48
 L -11.5451,-1242.24 L -10.9369,-1242.09 L -10.3139,-1242.01 L 10.3139,-1242.01 z
M -9.75116,-1243.51 L -10.2495,-1243.57 L -10.7361,-1243.7 L -11.2031,-1243.88 L -11.6433,-1244.12 L -12.0497,-1244.42
 L -12.4159,-1244.76 L -12.7361,-1245.15 L -13.0052,-1245.57 L -13.2191,-1246.03 L -13.3743,-1246.51 L -13.4684,-1247
 L -13.5,-1247.5 L -13.5,-1326.5 L -13.4684,-1327 L -13.3743,-1327.49 L -13.2191,-1327.97 L -13.0052,-1328.43
 L -12.7361,-1328.85 L -12.4159,-1329.24 L -12.0497,-1329.58 L -11.6433,-1329.88 L -11.2031,-1330.12 L -10.7361,-1330.3
 L -10.2495,-1330.43 L -9.75116,-1330.49 L 9.75116,-1330.49 L 10.2495,-1330.43 L 10.7361,-1330.3 L 11.2031,-1330.12
 L 11.6433,-1329.88 L 12.0497,-1329.58 L 12.4159,-1329.24 L 12.7361,-1328.85 L 13.0052,-1328.43 L 13.2191,-1327.97
 L 13.3743,-1327.49 L 13.4684,-1327 L 13.5,-1326.5 L 13.5,-1247.5 L 13.4684,-1247 L 13.3743,-1246.51
 L 13.2191,-1246.03 L 13.0052,-1245.57 L 12.7361,-1245.15 L 12.4159,-1244.76 L 12.0497,-1244.42 L 11.6433,-1244.12
 L 11.2031,-1243.88 L 10.7361,-1243.7 L 10.2495,-1243.57 L 9.75116,-1243.51 z
M 10.9369,-1143.09 L 11.5451,-1143.24 L 12.1289,-1143.48 L 12.6791,-1143.78 L 13.1871,-1144.15 L 13.6448,-1144.58
 L 14.0451,-1145.06 L 14.3815,-1145.59 L 14.6489,-1146.16 L 14.8429,-1146.76 L 14.9606,-1147.37 L 15,-1148
 L 15,-1228 L 14.9606,-1228.63 L 14.8429,-1229.24 L 14.6489,-1229.84 L 14.3815,-1230.41 L 14.0451,-1230.94
 L 13.6448,-1231.42 L 13.1871,-1231.85 L 12.6791,-1232.22 L 12.1289,-1232.52 L 11.5451,-1232.76 L 10.9369,-1232.91
 L 10.3139,-1232.99 L -10.3139,-1232.99 L -10.9369,-1232.91 L -11.5451,-1232.76 L -12.1289,-1232.52 L -12.6791,-1232.22
 L -13.1871,-1231.85 L -13.6448,-1231.42 L -14.0451,-1230.94 L -14.3815,-1230.41 L -14.6489,-1229.84 L -14.8429,-1229.24
 L -14.9606,-1228.63 L -15,-1228 L -15,-1148 L -14.9606,-1147.37 L -14.8429,-1146.76 L -14.6489,-1146.16
 L -14.3815,-1145.59 L -14.0451,-1145.06 L -13.6448,-1144.58 L -13.1871,-1144.15 L -12.6791,-1143.78 L -12.1289,-1143.48
 L -11.5451,-1143.24 L -10.9369,-1143.09 L -10.3139,-1143.01 L 10.3139,-1143.01 z
M -9.75116,-1144.51 L -10.2495,-1144.57 L -10.7361,-1144.7 L -11.2031,-1144.88 L -11.6433,-1145.12 L -12.0497,-1145.42
 L -12.4159,-1145.76 L -12.7361,-1146.15 L -13.0052,-1146.57 L -13.2191,-1147.03 L -13.3743,-1147.51 L -13.4684,-1148
 L -13.5,-1148.5 L -13.5,-1227.5 L -13.4684,-1228 L -13.3743,-1228.49 L -13.2191,-1228.97 L -13.0052,-1229.43
 L -12.7361,-1229.85 L -12.4159,-1230.24 L -12.0497,-1230.58 L -11.6433,-1230.88 L -11.2031,-1231.12 L -10.7361,-1231.3
 L -10.2495,-1231.43 L -9.75116,-1231.49 L 9.75116,-1231.49 L 10.2495,-1231.43 L 10.7361,-1231.3 L 11.2031,-1231.12
 L 11.6433,-1230.88 L 12.0497,-1230.58 L 12.4159,-1230.24 L 12.7361,-1229.85 L 13.0052,-1229.43 L 13.2191,-1228.97
 L 13.3743,-1228.49 L 13.4684,-1228 L 13.5,-1227.5 L 13.5,-1148.5 L 13.4684,-1148 L 13.3743,-1147.51
 L 13.2191,-1147.03 L 13.0052,-1146.57 L 12.7361,-1146.15 L 12.4159,-1145.76 L 12.0497,-1145.42 L 11.6433,-1145.12
 L 11.2031,-1144.88 L 10.7361,-1144.7 L 10.2495,-1144.57 L 9.75116,-1144.51 z
M 10.9369,-1044.09 L 11.5451,-1044.24 L 12.1289,-1044.48 L 12.6791,-1044.78 L 13.1871,-1045.15 L 13.6448,-1045.58
 L 14.0451,-1046.06 L 14.3815,-1046.59 L 14.6489,-1047.16 L 14.8429,-1047.76 L 14.9606,-1048.37 L 15,-1049
 L 15,-1129 L 14.9606,-1129.63 L 14.8429,-1130.24 L 14.6489,-1130.84 L 14.3815,-1131.41 L 14.0451,-1131.94
 L 13.6448,-1132.42 L 13.1871,-1132.85 L 12.6791,-1133.22 L 12.1289,-1133.52 L 11.5451,-1133.76 L 10.9369,-1133.91
 L 10.3139,-1133.99 L -10.3139,-1133.99 L -10.9369,-1133.91 L -11.5451,-1133.76 L -12.1289,-1133.52 L -12.6791,-1133.22
 L -13.1871,-1132.85 L -13.6448,-1132.42 L -14.0451,-1131.94 L -14.3815,-1131.41 L -14.6489,-1130.84 L -14.8429,-1130.24
 L -14.9606,-1129.63 L -15,-1129 L -15,-1049 L -14.9606,-1048.37 L -14.8429,-1047.76 L -14.6489,-1047.16
 L -14.3815,-1046.59 L -14.0451,-1046.06 L -13.6448,-1045.58 L -13.1871,-1045.15 L -12.6791,-1044.78 L -12.1289,-1044.48
 L -11.5451,-1044.24 L -10.9369,-1044.09 L -10.3139,-1044.01 L 10.3139,-1044.01 z
M -9.69545,-1046.39 L -10.0833,-1046.44 L -10.4619,-1046.54 L -10.8254,-1046.68 L -11.168,-1046.87 L -11.4842,-1047.1
 L -11.7692,-1047.37 L -12.0184,-1047.67 L -12.2279,-1048 L -12.3943,-1048.35 L -12.5151,-1048.73 L -12.5884,-1049.11
 L -12.6129,-1049.5 L -12.6129,-1128.5 L -12.5884,-1128.89 L -12.5151,-1129.27 L -12.3943,-1129.65 L -12.2279,-1130
 L -12.0184,-1130.33 L -11.7692,-1130.63 L -11.4842,-1130.9 L -11.168,-1131.13 L -10.8254,-1131.32 L -10.4619,-1131.46
 L -10.0833,-1131.56 L -9.69545,-1131.61 L 9.69545,-1131.61 L 10.0833,-1131.56 L 10.4619,-1131.46 L 10.8254,-1131.32
 L 11.168,-1131.13 L 11.4842,-1130.9 L 11.7692,-1130.63 L 12.0184,-1130.33 L 12.2279,-1130 L 12.3943,-1129.65
 L 12.5151,-1129.27 L 12.5884,-1128.89 L 12.6129,-1128.5 L 12.6129,-1049.5 L 12.5884,-1049.11 L 12.5151,-1048.73
 L 12.3943,-1048.35 L 12.2279,-1048 L 12.0184,-1047.67 L 11.7692,-1047.37 L 11.4842,-1047.1 L 11.168,-1046.87
 L 10.8254,-1046.68 L 10.4619,-1046.54 L 10.0833,-1046.44 L 9.69545,-1046.39 z
M 10.9369,-945.089 L 11.5451,-945.245 L 12.1289,-945.476 L 12.6791,-945.778 L 13.1871,-946.147 L 13.6448,-946.577
 L 14.0451,-947.061 L 14.3815,-947.591 L 14.6489,-948.159 L 14.8429,-948.757 L 14.9606,-949.373 L 15,-950
 L 15,-1030 L 14.9606,-1030.63 L 14.8429,-1031.24 L 14.6489,-1031.84 L 14.3815,-1032.41 L 14.0451,-1032.94
 L 13.6448,-1033.42 L 13.1871,-1033.85 L 12.6791,-1034.22 L 12.1289,-1034.52 L 11.5451,-1034.76 L 10.9369,-1034.91
 L 10.3139,-1034.99 L -10.3139,-1034.99 L -10.9369,-1034.91 L -11.5451,-1034.76 L -12.1289,-1034.52 L -12.6791,-1034.22
 L -13.1871,-1033.85 L -13.6448,-1033.42 L -14.0451,-1032.94 L -14.3815,-1032.41 L -14.6489,-1031.84 L -14.8429,-1031.24
 L -14.9606,-1030.63 L -15,-1030 L -15,-950 L -14.9606,-949.373 L -14.8429,-948.757 L -14.6489,-948.159
 L -14.3815,-947.591 L -14.0451,-947.061 L -13.6448,-946.577 L -13.1871,-946.147 L -12.6791,-945.778 L -12.1289,-945.476
 L -11.5451,-945.245 L -10.9369,-945.089 L -10.3139,-945.01 L 10.3139,-945.01 z
M -7.63406,-1025.37 L -7.9001,-1025.4 L -8.15984,-1025.47 L -8.40915,-1025.57 L -8.64413,-1025.7 L -8.86108,-1025.85
 L -9.05655,-1026.04 L -9.22748,-1026.24 L -9.37117,-1026.47 L -9.48534,-1026.71 L -9.56821,-1026.97 L -9.61845,-1027.23
 L -9.63528,-1027.5 L -9.61845,-1027.77 L -9.56821,-1028.03 L -9.48534,-1028.29 L -9.37117,-1028.53 L -9.22748,-1028.76
 L -9.05655,-1028.96 L -8.86108,-1029.15 L -8.64413,-1029.3 L -8.40915,-1029.43 L -8.15984,-1029.53 L -7.9001,-1029.6
 L -7.63406,-1029.63 L -7.36592,-1029.63 L -7.09988,-1029.6 L -6.84015,-1029.53 L -6.59084,-1029.43 L -6.35585,-1029.3
 L -6.1389,-1029.15 L -5.94344,-1028.96 L -5.77251,-1028.76 L -5.62881,-1028.53 L -5.51465,-1028.29 L -5.43178,-1028.03
 L -5.38153,-1027.77 L -5.3647,-1027.5 L -5.38153,-1027.23 L -5.43178,-1026.97 L -5.51465,-1026.71 L -5.62881,-1026.47
 L -5.77251,-1026.24 L -5.94344,-1026.04 L -6.1389,-1025.85 L -6.35585,-1025.7 L -6.59084,-1025.57 L -6.84015,-1025.47
 L -7.09988,-1025.4 L -7.36592,-1025.37 z
M 7.36592,-1025.37 L 7.09988,-1025.4 L 6.84015,-1025.47 L 6.59084,-1025.57 L 6.35585,-1025.7 L 6.1389,-1025.85
 L 5.94344,-1026.04 L 5.77251,-1026.24 L 5.62881,-1026.47 L 5.51465,-1026.71 L 5.43178,-1026.97 L 5.38153,-1027.23
 L 5.3647,-1027.5 L 5.38153,-1027.77 L 5.43178,-1028.03 L 5.51465,-1028.29 L 5.62881,-1028.53 L 5.77251,-1028.76
 L 5.94344,-1028.96 L 6.1389,-1029.15 L 6.35585,-1029.3 L 6.59084,-1029.43 L 6.84015,-1029.53 L 7.09988,-1029.6
 L 7.36592,-1029.63 L 7.63406,-1029.63 L 7.9001,-1029.6 L 8.15984,-1029.53 L 8.40915,-1029.43 L 8.64413,-1029.3
 L 8.86108,-1029.15 L 9.05655,-1028.96 L 9.22748,-1028.76 L 9.37117,-1028.53 L 9.48534,-1028.29 L 9.56821,-1028.03
 L 9.61845,-1027.77 L 9.63528,-1027.5 L 9.61845,-1027.23 L 9.56821,-1026.97 L 9.48534,-1026.71 L 9.37117,-1026.47
 L 9.22748,-1026.24 L 9.05655,-1026.04 L 8.86108,-1025.85 L 8.64413,-1025.7 L 8.40915,-1025.57 L 8.15984,-1025.47
 L 7.9001,-1025.4 L 7.63406,-1025.37 z
M -7.63406,-950.369 L -7.9001,-950.403 L -8.15984,-950.469 L -8.40915,-950.568 L -8.64413,-950.697 L -8.86108,-950.855
 L -9.05655,-951.038 L -9.22748,-951.245 L -9.37117,-951.471 L -9.48534,-951.714 L -9.56821,-951.969 L -9.61845,-952.232
 L -9.63528,-952.5 L -9.61845,-952.768 L -9.56821,-953.031 L -9.48534,-953.286 L -9.37117,-953.529 L -9.22748,-953.755
 L -9.05655,-953.962 L -8.86108,-954.145 L -8.64413,-954.303 L -8.40915,-954.432 L -8.15984,-954.531 L -7.9001,-954.597
 L -7.63406,-954.631 L -7.36592,-954.631 L -7.09988,-954.597 L -6.84015,-954.531 L -6.59084,-954.432 L -6.35585,-954.303
 L -6.1389,-954.145 L -5.94344,-953.962 L -5.77251,-953.755 L -5.62881,-953.529 L -5.51465,-953.286 L -5.43178,-953.031
 L -5.38153,-952.768 L -5.3647,-952.5 L -5.38153,-952.232 L -5.43178,-951.969 L -5.51465,-951.714 L -5.62881,-951.471
 L -5.77251,-951.245 L -5.94344,-951.038 L -6.1389,-950.855 L -6.35585,-950.697 L -6.59084,-950.568 L -6.84015,-950.469
 L -7.09988,-950.403 L -7.36592,-950.369 z
M 7.36592,-950.369 L 7.09988,-950.403 L 6.84015,-950.469 L 6.59084,-950.568 L 6.35585,-950.697 L 6.1389,-950.855
 L 5.94344,-951.038 L 5.77251,-951.245 L 5.62881,-951.471 L 5.51465,-951.714 L 5.43178,-951.969 L 5.38153,-952.232
 L 5.3647,-952.5 L 5.38153,-952.768 L 5.43178,-953.031 L 5.51465,-953.286 L 5.62881,-953.529 L 5.77251,-953.755
 L 5.94344,-953.962 L 6.1389,-954.145 L 6.35585,-954.303 L 6.59084,-954.432 L 6.84015,-954.531 L 7.09988,-954.597
 L 7.36592,-954.631 L 7.63406,-954.631 L 7.9001,-954.597 L 8.15984,-954.531 L 8.40915,-954.432 L 8.64413,-954.303
 L 8.86108,-954.145 L 9.05655,-953.962 L 9.22748,-953.755 L 9.37117,-953.529 L 9.48534,-953.286 L 9.56821,-953.031
 L 9.61845,-952.768 L 9.63528,-952.5 L 9.61845,-952.232 L 9.56821,-951.969 L 9.48534,-951.714 L 9.37117,-951.471
 L 9.22748,-951.245 L 9.05655,-951.038 L 8.86108,-950.855 L 8.64413,-950.697 L 8.40915,-950.568 L 8.15984,-950.469
 L 7.9001,-950.403 L 7.63406,-950.369 z
" stroke="black" fill="lightgray" stroke-width="0.5"/>
</svg>
