<?xml version="1.0" standalone="no"?>
<!DOCTYPE svg PUBLIC "-//W3C//DTD SVG 1.1//EN" "http://www.w3.org/Graphics/SVG/1.1/DTD/svg11.dtd">
<svg width="16mm" height="307mm" viewBox="-8 -610 16 307" xmlns="http://www.w3.org/2000/svg" version="1.1">
<title>OpenSCAD Model</title>
<path d="
M 3.4369,-587.339 L 4.04507,-587.495 L 4.62889,-587.726 L 5.17912,-588.028 L 5.68712,-588.397 L 6.14484,-588.827
 L 6.54507,-589.311 L 6.88153,-589.841 L 7.14888,-590.409 L 7.34291,-591.007 L 7.46057,-591.623 L 7.5,-592.25
 L 7.5,-604.75 L 7.46057,-605.377 L 7.34291,-605.993 L 7.14888,-606.591 L 6.88153,-607.159 L 6.54507,-607.689
 L 6.14484,-608.173 L 5.68712,-608.603 L 5.17912,-608.972 L 4.62889,-609.274 L 4.04507,-609.505 L 3.4369,-609.661
 L 2.81395,-609.74 L -2.81395,-609.74 L -3.4369,-609.661 L -4.04507,-609.505 L -4.62889,-609.274 L -5.17912,-608.972
 L -5.68712,-608.603 L -6.14484,-608.173 L -6.54507,-607.689 L -6.88153,-607.159 L -7.14888,-606.591 L -7.34291,-605.993
 L -7.46057,-605.377 L -7.5,-604.75 L -7.5,-592.25 L -7.46057,-591.623 L -7.34291,-591.007 L -7.14888,-590.409
 L -6.88153,-589.841 L -6.54507,-589.311 L -6.14484,-588.827 L -5.68712,-588.397 L -5.17912,-588.028 L -4.62889,-587.726
 L -4.04507,-587.495 L -3.4369,-587.339 L -2.81395,-587.26 L 2.81395,-587.26 z
M -2.25116,-588.758 L -2.74951,-588.821 L -3.23605,-588.946 L -3.70311,-589.131 L -4.1433,-589.373 L -4.54968,-589.668
 L -4.91586,-590.012 L -5.23605,-590.399 L -5.50522,-590.823 L -5.7191,-591.278 L -5.87433,-591.755 L -5.96844,-592.249
 L -6,-592.75 L -6,-604.25 L -5.96844,-604.751 L -5.87433,-605.245 L -5.7191,-605.722 L -5.50522,-606.177
 L -5.23605,-606.601 L -4.91586,-606.988 L -4.54968,-607.332 L -4.1433,-607.627 L -3.70311,-607.869 L -3.23605,-608.054
 L -2.74951,-608.179 L -2.25116,-608.242 L 2.25116,-608.242 L 2.74951,-608.179 L 3.23605,-608.054 L 3.70311,-607.869
 L 4.1433,-607.627 L 4.54968,-607.332 L 4.91586,-606.988 L 5.23605,-606.601 L 5.50522,-606.177 L 5.7191,-605.722
 L 5.87433,-605.245 L 5.96844,-604.751 L 6,-604.25 L 6,-592.75 L 5.96844,-592.249 L 5.87433,-591.755
 L 5.7191,-591.278 L 5.50522,-590.823 L 5.23605,-590.399 L 4.91586,-590.012 L 4.54968,-589.668 L 4.1433,-589.373
 L 3.70311,-589.131 L 3.23605,-588.946 L 2.74951,-588.821 L 2.25116,-588.758 z
M 3.4369,-555.839 L 4.04507,-555.995 L 4.62889,-556.226 L 5.17912,-556.528 L 5.68712,-556.897 L 6.14484,-557.327
 L 6.54507,-557.811 L 6.88153,-558.341 L 7.14888,-558.909 L 7.34291,-559.507 L 7.46057,-560.123 L 7.5,-560.75
 L 7.5,-573.25 L 7.46057,-573.877 L 7.34291,-574.493 L 7.14888,-575.091 L 6.88153,-575.659 L 6.54507,-576.189
 L 6.14484,-576.673 L 5.68712,-577.103 L 5.17912,-577.472 L 4.62889,-577.774 L 4.04507,-578.005 L 3.4369,-578.161
 L 2.81395,-578.24 L -2.81395,-578.24 L -3.4369,-578.161 L -4.04507,-578.005 L -4.62889,-577.774 L -5.17912,-577.472
 L -5.68712,-577.103 L -6.14484,-576.673 L -6.54507,-576.189 L -6.88153,-575.659 L -7.14888,-575.091 L -7.34291,-574.493
 L -7.46057,-573.877 L -7.5,-573.25 L -7.5,-560.75 L -7.46057,-560.123 L -7.34291,-559.507 L -7.14888,-558.909
 L -6.88153,-558.341 L -6.54507,-557.811 L -6.14484,-557.327 L -5.68712,-556.897 L -5.17912,-556.528 L -4.62889,-556.226
 L -4.04507,-555.995 L -3.4369,-555.839 L -2.81395,-555.76 L 2.81395,-555.76 z
M -2.25116,-557.258 L -2.74951,-557.321 L -3.23605,-557.446 L -3.70311,-557.631 L -4.1433,-557.873 L -4.54968,-558.168
 L -4.91586,-558.512 L -5.23605,-558.899 L -5.50522,-559.323 L -5.7191,-559.778 L -5.87433,-560.255 L -5.96844,-560.749
 L -6,-561.25 L -6,-572.75 L -5.96844,-573.251 L -5.87433,-573.745 L -5.7191,-574.222 L -5.50522,-574.677
 L -5.23605,-575.101 L -4.91586,-575.488 L -4.54968,-575.832 L -4.1433,-576.127 L -3.70311,-576.369 L -3.23605,-576.554
 L -2.74951,-576.679 L -2.25116,-576.742 L 2.25116,-576.742 L 2.74951,-576.679 L 3.23605,-576.554 L 3.70311,-576.369
 L 4.1433,-576.127 L 4.54968,-575.832 L 4.91586,-575.488 L 5.23605,-575.101 L 5.50522,-574.677 L 5.7191,-574.222
 L 5.87433,-573.745 L 5.96844,-573.251 L 6,-572.75 L 6,-561.25 L 5.96844,-560.749 L 5.87433,-560.255
 L 5.7191,-559.778 L 5.50522,-559.323 L 5.23605,-558.899 L 4.91586,-558.512 L 4.54968,-558.168 L 4.1433,-557.873
 L 3.70311,-557.631 L 3.23605,-557.446 L 2.74951,-557.321 L 2.25116,-557.258 z
M 3.4369,-524.339 L 4.04507,-524.495 L 4.62889,-524.726 L 5.17912,-525.028 L 5.68712,-525.397 L 6.14484,-525.827
 L 6.54507,-526.311 L 6.88153,-526.841 L 7.14888,-527.409 L 7.34291,-528.007 L 7.46057,-528.623 L 7.5,-529.25
 L 7.5,-541.75 L 7.46057,-542.377 L 7.34291,-542.993 L 7.14888,-543.591 L 6.88153,-544.159 L 6.54507,-544.689
 L 6.14484,-545.173 L 5.68712,-545.603 L 5.17912,-545.972 L 4.62889,-546.274 L 4.04507,-546.505 L 3.4369,-546.661
 L 2.81395,-546.74 L -2.81395,-546.74 L -3.4369,-546.661 L -4.04507,-546.505 L -4.62889,-546.274 L -5.17912,-545.972
 L -5.68712,-545.603 L -6.14484,-545.173 L -6.54507,-544.689 L -6.88153,-544.159 L -7.14888,-543.591 L -7.34291,-542.993
 L -7.46057,-542.377 L -7.5,-541.75 L -7.5,-529.25 L -7.46057,-528.623 L -7.34291,-528.007 L -7.14888,-527.409
 L -6.88153,-526.841 L -6.54507,-526.311 L -6.14484,-525.827 L -5.68712,-525.397 L -5.17912,-525.028 L -4.62889,-524.726
 L -4.04507,-524.495 L -3.4369,-524.339 L -2.81395,-524.26 L 2.81395,-524.26 z
M -2.25116,-525.758 L -2.74951,-525.821 L -3.23605,-525.946 L -3.70311,-526.131 L -4.1433,-526.373 L -4.54968,-526.668
 L -4.91586,-527.012 L -5.23605,-527.399 L -5.50522,-527.823 L -5.7191,-528.278 L -5.87433,-528.755 L -5.96844,-529.249
 L -6,-529.75 L -6,-541.25 L -5.96844,-541.751 L -5.87433,-542.245 L -5.7191,-542.722 L -5.50522,-543.177
 L -5.23605,-543.601 L -4.91586,-543.988 L -4.54968,-544.332 L -4.1433,-544.627 L -3.70311,-544.869 L -3.23605,-545.054
 L -2.74951,-545.179 L -2.25116,-545.242 L 2.25116,-545.242 L 2.74951,-545.179 L 3.23605,-545.054 L 3.70311,-544.869
 L 4.1433,-544.627 L 4.54968,-544.332 L 4.91586,-543.988 L 5.23605,-543.601 L 5.50522,-543.177 L 5.7191,-542.722
 L 5.87433,-542.245 L 5.96844,-541.751 L 6,-541.25 L 6,-529.75 L 5.96844,-529.249 L 5.87433,-528.755
 L 5.7191,-528.278 L 5.50522,-527.823 L 5.23605,-527.399 L 4.91586,-527.012 L 4.54968,-526.668 L 4.1433,-526.373
 L 3.70311,-526.131 L 3.23605,-525.946 L 2.74951,-525.821 L 2.25116,-525.758 z
M 3.4369,-492.839 L 4.04507,-492.995 L 4.62889,-493.226 L 5.17912,-493.528 L 5.68712,-493.897 L 6.14484,-494.327
 L 6.54507,-494.811 L 6.88153,-495.341 L 7.14888,-495.909 L 7.34291,-496.507 L 7.46057,-497.123 L 7.5,-497.75
 L 7.5,-510.25 L 7.46057,-510.877 L 7.34291,-511.493 L 7.14888,-512.091 L 6.88153,-512.659 L 6.54507,-513.189
 L 6.14484,-513.673 L 5.68712,-514.103 L 5.17912,-514.472 L 4.62889,-514.774 L 4.04507,-515.005 L 3.4369,-515.161
 L 2.81395,-515.24 L -2.81395,-515.24 L -3.4369,-515.161 L -4.04507,-515.005 L -4.62889,-514.774 L -5.17912,-514.472
 L -5.68712,-514.103 L -6.14484,-513.673 L -6.54507,-513.189 L -6.88153,-512.659 L -7.14888,-512.091 L -7.34291,-511.493
 L -7.46057,-510.877 L -7.5,-510.25 L -7.5,-497.75 L -7.46057,-497.123 L -7.34291,-496.507 L -7.14888,-495.909
 L -6.88153,-495.341 L -6.54507,-494.811 L -6.14484,-494.327 L -5.68712,-493.897 L -5.17912,-493.528 L -4.62889,-493.226
 L -4.04507,-492.995 L -3.4369,-492.839 L -2.81395,-492.76 L 2.81395,-492.76 z
M -2.25116,-494.258 L -2.74951,-494.321 L -3.23605,-494.446 L -3.70311,-494.631 L -4.1433,-494.873 L -4.54968,-495.168
 L -4.91586,-495.512 L -5.23605,-495.899 L -5.50522,-496.323 L -5.7191,-496.778 L -5.87433,-497.255 L -5.96844,-497.749
 L -6,-498.25 L -6,-509.75 L -5.96844,-510.251 L -5.87433,-510.745 L -5.7191,-511.222 L -5.50522,-511.677
 L -5.23605,-512.101 L -4.91586,-512.488 L -4.54968,-512.832 L -4.1433,-513.127 L -3.70311,-513.369 L -3.23605,-513.554
 L -2.74951,-513.679 L -2.25116,-513.742 L 2.25116,-513.742 L 2.74951,-513.679 L 3.23605,-513.554 L 3.70311,-513.369
 L 4.1433,-513.127 L 4.54968,-512.832 L 4.91586,-512.488 L 5.23605,-512.101 L 5.50522,-511.677 L 5.7191,-511.222
 L 5.87433,-510.745 L 5.96844,-510.251 L 6,-509.75 L 6,-498.25 L 5.96844,-497.749 L 5.87433,-497.255
 L 5.7191,-496.778 L 5.50522,-496.323 L 5.23605,-495.899 L 4.91586,-495.512 L 4.54968,-495.168 L 4.1433,-494.873
 L 3.70311,-494.631 L 3.23605,-494.446 L 2.74951,-494.321 L 2.25116,-494.258 z
M 3.4369,-461.339 L 4.04507,-461.495 L 4.62889,-461.726 L 5.17912,-462.028 L 5.68712,-462.397 L 6.14484,-462.827
 L 6.54507,-463.311 L 6.88153,-463.841 L 7.14888,-464.409 L 7.34291,-465.007 L 7.46057,-465.623 L 7.5,-466.25
 L 7.5,-478.75 L 7.46057,-479.377 L 7.34291,-479.993 L 7.14888,-480.591 L 6.88153,-481.159 L 6.54507,-481.689
 L 6.14484,-482.173 L 5.68712,-482.603 L 5.17912,-482.972 L 4.62889,-483.274 L 4.04507,-483.505 L 3.4369,-483.661
 L 2.81395,-483.74 L -2.81395,-483.74 L -3.4369,-483.661 L -4.04507,-483.505 L -4.62889,-483.274 L -5.17912,-482.972
 L -5.68712,-482.603 L -6.14484,-482.173 L -6.54507,-481.689 L -6.88153,-481.159 L -7.14888,-480.591 L -7.34291,-479.993
 L -7.46057,-479.377 L -7.5,-478.75 L -7.5,-466.25 L -7.46057,-465.623 L -7.34291,-465.007 L -7.14888,-464.409
 L -6.88153,-463.841 L -6.54507,-463.311 L -6.14484,-462.827 L -5.68712,-462.397 L -5.17912,-462.028 L -4.62889,-461.726
 L -4.04507,-461.495 L -3.4369,-461.339 L -2.81395,-461.26 L 2.81395,-461.26 z
M -2.25116,-462.758 L -2.74951,-462.821 L -3.23605,-462.946 L -3.70311,-463.131 L -4.1433,-463.373 L -4.54968,-463.668
 L -4.91586,-464.012 L -5.23605,-464.399 L -5.50522,-464.823 L -5.7191,-465.278 L -5.87433,-465.755 L -5.96844,-466.249
 L -6,-466.75 L -6,-478.25 L -5.96844,-478.751 L -5.87433,-479.245 L -5.7191,-479.722 L -5.50522,-480.177
 L -5.23605,-480.601 L -4.91586,-480.988 L -4.54968,-481.332 L -4.1433,-481.627 L -3.70311,-481.869 L -3.23605,-482.054
 L -2.74951,-482.179 L -2.25116,-482.242 L 2.25116,-482.242 L 2.74951,-482.179 L 3.23605,-482.054 L 3.70311,-481.869
 L 4.1433,-481.627 L 4.54968,-481.332 L 4.91586,-480.988 L 5.23605,-480.601 L 5.50522,-480.177 L 5.7191,-479.722
 L 5.87433,-479.245 L 5.96844,-478.751 L 6,-478.25 L 6,-466.75 L 5.96844,-466.249 L 5.87433,-465.755
 L 5.7191,-465.278 L 5.50522,-464.823 L 5.23605,-464.399 L 4.91586,-464.012 L 4.54968,-463.668 L 4.1433,-463.373
 L 3.70311,-463.131 L 3.23605,-462.946 L 2.74951,-462.821 L 2.25116,-462.758 z
M 3.4369,-429.839 L 4.04507,-429.995 L 4.62889,-430.226 L 5.17912,-430.528 L 5.68712,-430.897 L 6.14484,-431.327
 L 6.54507,-431.811 L 6.88153,-432.341 L 7.14888,-432.909 L 7.34291,-433.507 L 7.46057,-434.123 L 7.5,-434.75
 L 7.5,-447.25 L 7.46057,-447.877 L 7.34291,-448.493 L 7.14888,-449.091 L 6.88153,-449.659 L 6.54507,-450.189
 L 6.14484,-450.673 L 5.68712,-451.103 L 5.17912,-451.472 L 4.62889,-451.774 L 4.04507,-452.005 L 3.4369,-452.161
 L 2.81395,-452.24 L -2.81395,-452.24 L -3.4369,-452.161 L -4.04507,-452.005 L -4.62889,-451.774 L -5.17912,-451.472
 L -5.68712,-451.103 L -6.14484,-450.673 L -6.54507,-450.189 L -6.88153,-449.659 L -7.14888,-449.091 L -7.34291,-448.493
 L -7.46057,-447.877 L -7.5,-447.25 L -7.5,-434.75 L -7.46057,-434.123 L -7.34291,-433.507 L -7.14888,-432.909
 L -6.88153,-432.341 L -6.54507,-431.811 L -6.14484,-431.327 L -5.68712,-430.897 L -5.17912,-430.528 L -4.62889,-430.226
 L -4.04507,-429.995 L -3.4369,-429.839 L -2.81395,-429.76 L 2.81395,-429.76 z
M -2.25116,-431.258 L -2.74951,-431.321 L -3.23605,-431.446 L -3.70311,-431.631 L -4.1433,-431.873 L -4.54968,-432.168
 L -4.91586,-432.512 L -5.23605,-432.899 L -5.50522,-433.323 L -5.7191,-433.778 L -5.87433,-434.255 L -5.96844,-434.749
 L -6,-435.25 L -6,-446.75 L -5.96844,-447.251 L -5.87433,-447.745 L -5.7191,-448.222 L -5.50522,-448.677
 L -5.23605,-449.101 L -4.91586,-449.488 L -4.54968,-449.832 L -4.1433,-450.127 L -3.70311,-450.369 L -3.23605,-450.554
 L -2.74951,-450.679 L -2.25116,-450.742 L 2.25116,-450.742 L 2.74951,-450.679 L 3.23605,-450.554 L 3.70311,-450.369
 L 4.1433,-450.127 L 4.54968,-449.832 L 4.91586,-449.488 L 5.23605,-449.101 L 5.50522,-448.677 L 5.7191,-448.222
 L 5.87433,-447.745 L 5.96844,-447.251 L 6,-446.75 L 6,-435.25 L 5.96844,-434.749 L 5.87433,-434.255
 L 5.7191,-433.778 L 5.50522,-433.323 L 5.23605,-432.899 L 4.91586,-432.512 L 4.54968,-432.168 L 4.1433,-431.873
 L 3.70311,-431.631 L 3.23605,-431.446 L 2.74951,-431.321 L 2.25116,-431.258 z
M 3.4369,-398.339 L 4.04507,-398.495 L 4.62889,-398.726 L 5.17912,-399.028 L 5.68712,-399.397 L 6.14484,-399.827
 L 6.54507,-400.311 L 6.88153,-400.841 L 7.14888,-401.409 L 7.34291,-402.007 L 7.46057,-402.623 L 7.5,-403.25
 L 7.5,-415.75 L 7.46057,-416.377 L 7.34291,-416.993 L 7.14888,-417.591 L 6.88153,-418.159 L 6.54507,-418.689
 L 6.14484,-419.173 L 5.68712,-419.603 L 5.17912,-419.972 L 4.62889,-420.274 L 4.04507,-420.505 L 3.4369,-420.661
 L 2.81395,-420.74 L -2.81395,-420.74 L -3.4369,-420.661 L -4.04507,-420.505 L -4.62889,-420.274 L -5.17912,-419.972
 L -5.68712,-419.603 L -6.14484,-419.173 L -6.54507,-418.689 L -6.88153,-418.159 L -7.14888,-417.591 L -7.34291,-416.993
 L -7.46057,-416.377 L -7.5,-415.75 L -7.5,-403.25 L -7.46057,-402.623 L -7.34291,-402.007 L -7.14888,-401.409
 L -6.88153,-400.841 L -6.54507,-400.311 L -6.14484,-399.827 L -5.68712,-399.397 L -5.17912,-399.028 L -4.62889,-398.726
 L -4.04507,-398.495 L -3.4369,-398.339 L -2.81395,-398.26 L 2.81395,-398.26 z
M -2.25116,-399.758 L -2.74951,-399.821 L -3.23605,-399.946 L -3.70311,-400.131 L -4.1433,-400.373 L -4.54968,-400.668
 L -4.91586,-401.012 L -5.23605,-401.399 L -5.50522,-401.823 L -5.7191,-402.278 L -5.87433,-402.755 L -5.96844,-403.249
 L -6,-403.75 L -6,-415.25 L -5.96844,-415.751 L -5.87433,-416.245 L -5.7191,-416.722 L -5.50522,-417.177
 L -5.23605,-417.601 L -4.91586,-417.988 L -4.54968,-418.332 L -4.1433,-418.627 L -3.70311,-418.869 L -3.23605,-419.054
 L -2.74951,-419.179 L -2.25116,-419.242 L 2.25116,-419.242 L 2.74951,-419.179 L 3.23605,-419.054 L 3.70311,-418.869
 L 4.1433,-418.627 L 4.54968,-418.332 L 4.91586,-417.988 L 5.23605,-417.601 L 5.50522,-417.177 L 5.7191,-416.722
 L 5.87433,-416.245 L 5.96844,-415.751 L 6,-415.25 L 6,-403.75 L 5.96844,-403.249 L 5.87433,-402.755
 L 5.7191,-402.278 L 5.50522,-401.823 L 5.23605,-401.399 L 4.91586,-401.012 L 4.54968,-400.668 L 4.1433,-400.373
 L 3.70311,-400.131 L 3.23605,-399.946 L 2.74951,-399.821 L 2.25116,-399.758 z
M 3.4369,-366.839 L 4.04507,-366.995 L 4.62889,-367.226 L 5.17912,-367.528 L 5.68712,-367.897 L 6.14484,-368.327
 L 6.54507,-368.811 L 6.88153,-369.341 L 7.14888,-369.909 L 7.34291,-370.507 L 7.46057,-371.123 L 7.5,-371.75
 L 7.5,-384.25 L 7.46057,-384.877 L 7.34291,-385.493 L 7.14888,-386.091 L 6.88153,-386.659 L 6.54507,-387.189
 L 6.14484,-387.673 L 5.68712,-388.103 L 5.17912,-388.472 L 4.62889,-388.774 L 4.04507,-389.005 L 3.4369,-389.161
 L 2.81395,-389.24 L -2.81395,-389.24 L -3.4369,-389.161 L -4.04507,-389.005 L -4.62889,-388.774 L -5.17912,-388.472
 L -5.68712,-388.103 L -6.14484,-387.673 L -6.54507,-387.189 L -6.88153,-386.659 L -7.14888,-386.091 L -7.34291,-385.493
 L -7.46057,-384.877 L -7.5,-384.25 L -7.5,-371.75 L -7.46057,-371.123 L -7.34291,-370.507 L -7.14888,-369.909
 L -6.88153,-369.341 L -6.54507,-368.811 L -6.14484,-368.327 L -5.68712,-367.897 L -5.17912,-367.528 L -4.62889,-367.226
 L -4.04507,-366.995 L -3.4369,-366.839 L -2.81395,-366.76 L 2.81395,-366.76 z
M -2.25116,-368.258 L -2.74951,-368.321 L -3.23605,-368.446 L -3.70311,-368.631 L -4.1433,-368.873 L -4.54968,-369.168
 L -4.91586,-369.512 L -5.23605,-369.899 L -5.50522,-370.323 L -5.7191,-370.778 L -5.87433,-371.255 L -5.96844,-371.749
 L -6,-372.25 L -6,-383.75 L -5.96844,-384.251 L -5.87433,-384.745 L -5.7191,-385.222 L -5.50522,-385.677
 L -5.23605,-386.101 L -4.91586,-386.488 L -4.54968,-386.832 L -4.1433,-387.127 L -3.70311,-387.369 L -3.23605,-387.554
 L -2.74951,-387.679 L -2.25116,-387.742 L 2.25116,-387.742 L 2.74951,-387.679 L 3.23605,-387.554 L 3.70311,-387.369
 L 4.1433,-387.127 L 4.54968,-386.832 L 4.91586,-386.488 L 5.23605,-386.101 L 5.50522,-385.677 L 5.7191,-385.222
 L 5.87433,-384.745 L 5.96844,-384.251 L 6,-383.75 L 6,-372.25 L 5.96844,-371.749 L 5.87433,-371.255
 L 5.7191,-370.778 L 5.50522,-370.323 L 5.23605,-369.899 L 4.91586,-369.512 L 4.54968,-369.168 L 4.1433,-368.873
 L 3.70311,-368.631 L 3.23605,-368.446 L 2.74951,-368.321 L 2.25116,-368.258 z
M 3.4369,-335.339 L 4.04507,-335.495 L 4.62889,-335.726 L 5.17912,-336.028 L 5.68712,-336.397 L 6.14484,-336.827
 L 6.54507,-337.311 L 6.88153,-337.841 L 7.14888,-338.409 L 7.34291,-339.007 L 7.46057,-339.623 L 7.5,-340.25
 L 7.5,-352.75 L 7.46057,-353.377 L 7.34291,-353.993 L 7.14888,-354.591 L 6.88153,-355.159 L 6.54507,-355.689
 L 6.14484,-356.173 L 5.68712,-356.603 L 5.17912,-356.972 L 4.62889,-357.274 L 4.04507,-357.505 L 3.4369,-357.661
 L 2.81395,-357.74 L -2.81395,-357.74 L -3.4369,-357.661 L -4.04507,-357.505 L -4.62889,-357.274 L -5.17912,-356.972
 L -5.68712,-356.603 L -6.14484,-356.173 L -6.54507,-355.689 L -6.88153,-355.159 L -7.14888,-354.591 L -7.34291,-353.993
 L -7.46057,-353.377 L -7.5,-352.75 L -7.5,-340.25 L -7.46057,-339.623 L -7.34291,-339.007 L -7.14888,-338.409
 L -6.88153,-337.841 L -6.54507,-337.311 L -6.14484,-336.827 L -5.68712,-336.397 L -5.17912,-336.028 L -4.62889,-335.726
 L -4.04507,-335.495 L -3.4369,-335.339 L -2.81395,-335.26 L 2.81395,-335.26 z
M -2.19545,-337.643 L -2.5833,-337.692 L -2.96194,-337.789 L -3.32541,-337.933 L -3.66798,-338.122 L -3.98424,-338.351
 L -4.26921,-338.619 L -4.5184,-338.92 L -4.72786,-339.25 L -4.89432,-339.604 L -5.01512,-339.976 L -5.08836,-340.36
 L -5.11292,-340.75 L -5.11292,-352.25 L -5.08836,-352.64 L -5.01512,-353.024 L -4.89432,-353.396 L -4.72786,-353.75
 L -4.5184,-354.08 L -4.26921,-354.381 L -3.98424,-354.649 L -3.66798,-354.878 L -3.32541,-355.067 L -2.96194,-355.211
 L -2.5833,-355.308 L -2.19545,-355.357 L 2.19545,-355.357 L 2.5833,-355.308 L 2.96194,-355.211 L 3.32541,-355.067
 L 3.66798,-354.878 L 3.98424,-354.649 L 4.26921,-354.381 L 4.5184,-354.08 L 4.72786,-353.75 L 4.89432,-353.396
 L 5.01512,-353.024 L 5.08836,-352.64 L 5.11292,-352.25 L 5.11292,-340.75 L 5.08836,-340.36 L 5.01512,-339.976
 L 4.89432,-339.604 L 4.72786,-339.25 L 4.5184,-338.92 L 4.26921,-338.619 L 3.98424,-338.351 L 3.66798,-338.122
 L 3.32541,-337.933 L 2.96194,-337.789 L 2.5833,-337.692 L 2.19545,-337.643 z
M 3.4369,-303.839 L 4.04507,-303.995 L 4.62889,-304.226 L 5.17912,-304.528 L 5.68712,-304.897 L 6.14484,-305.327
 L 6.54507,-305.811 L 6.88153,-306.341 L 7.14888,-306.909 L 7.34291,-307.507 L 7.46057,-308.123 L 7.5,-308.75
 L 7.5,-321.25 L 7.46057,-321.877 L 7.34291,-322.493 L 7.14888,-323.091 L 6.88153,-323.659 L 6.54507,-324.189
 L 6.14484,-324.673 L 5.68712,-325.103 L 5.17912,-325.472 L 4.62889,-325.774 L 4.04507,-326.005 L 3.4369,-326.161
 L 2.81395,-326.24 L -2.81395,-326.24 L -3.4369,-326.161 L -4.04507,-326.005 L -4.62889,-325.774 L -5.17912,-325.472
 L -5.68712,-325.103 L -6.14484,-324.673 L -6.54507,-324.189 L -6.88153,-323.659 L -7.14888,-323.091 L -7.34291,-322.493
 L -7.46057,-321.877 L -7.5,-321.25 L -7.5,-308.75 L -7.46057,-308.123 L -7.34291,-307.507 L -7.14888,-306.909
 L -6.88153,-306.341 L -6.54507,-305.811 L -6.14484,-305.327 L -5.68712,-304.897 L -5.17912,-304.528 L -4.62889,-304.226
 L -4.04507,-303.995 L -3.4369,-303.839 L -2.81395,-303.76 L 2.81395,-303.76 z
M -0.134064,-316.619 L -0.400101,-316.653 L -0.659836,-316.719 L -0.909149,-316.818 L -1.14413,-316.947 L -1.36108,-317.105
 L -1.55655,-317.288 L -1.72748,-317.495 L -1.87117,-317.721 L -1.98534,-317.964 L -2.06821,-318.219 L -2.11845,-318.482
 L -2.13528,-318.75 L -2.11845,-319.018 L -2.06821,-319.281 L -1.98534,-319.536 L -1.87117,-319.779 L -1.72748,-320.005
 L -1.55655,-320.212 L -1.36108,-320.395 L -1.14413,-320.553 L -0.909149,-320.682 L -0.659836,-320.781 L -0.400101,-320.847
 L -0.134064,-320.881 L 0.134064,-320.881 L 0.400101,-320.847 L 0.659836,-320.781 L 0.909149,-320.682 L 1.14413,-320.553
 L 1.36108,-320.395 L 1.55655,-320.212 L 1.72748,-320.005 L 1.87117,-319.779 L 1.98534,-319.536 L 2.06821,-319.281
 L 2.11845,-319.018 L 2.13528,-318.75 L 2.11845,-318.482 L 2.06821,-318.219 L 1.98534,-317.964 L 1.87117,-317.721
 L 1.72748,-317.495 L 1.55655,-317.288 L 1.36108,-317.105 L 1.14413,-316.947 L 0.909149,-316.818 L 0.659836,-316.719
 L 0.400101,-316.653 L 0.134064,-316.619 z
M -0.134064,-309.119 L -0.400101,-309.153 L -0.659836,-309.219 L -0.909149,-309.318 L -1.14413,-309.447 L -1.36108,-309.605
 L -1.55655,-309.788 L -1.72748,-309.995 L -1.87117,-310.221 L -1.98534,-310.464 L -2.06821,-310.719 L -2.11845,-310.982
 L -2.13528,-311.25 L -2.11845,-311.518 L -2.06821,-311.781 L -1.98534,-312.036 L -1.87117,-312.279 L -1.72748,-312.505
 L -1.55655,-312.712 L -1.36108,-312.895 L -1.14413,-313.053 L -0.909149,-313.182 L -0.659836,-313.281 L -0.400101,-313.347
 L -0.134064,-313.381 L 0.134064,-313.381 L 0.400101,-313.347 L 0.659836,-313.281 L 0.909149,-313.182 L 1.14413,-313.053
 L 1.36108,-312.895 L 1.55655,-312.712 L 1.72748,-312.505 L 1.87117,-312.279 L 1.98534,-312.036 L 2.06821,-311.781
 L 2.11845,-311.518 L 2.13528,-311.25 L 2.11845,-310.982 L 2.06821,-310.719 L 1.98534,-310.464 L 1.87117,-310.221
 L 1.72748,-309.995 L 1.55655,-309.788 L 1.36108,-309.605 L 1.14413,-309.447 L 0.909149,-309.318 L 0.659836,-309.219
 L 0.400101,-309.153 L 0.134064,-309.119 z
" stroke="black" fill="lightgray" stroke-width="0.5"/>
</svg>
