<?xml version="1.0" standalone="no"?>
<!DOCTYPE svg PUBLIC "-//W3C//DTD SVG 1.1//EN" "http://www.w3.org/Graphics/SVG/1.1/DTD/svg11.dtd">
<svg width="76mm" height="178mm" viewBox="-38 -298 76 178" xmlns="http://www.w3.org/2000/svg" version="1.1">
<title>OpenSCAD Model</title>
<path d="
M 33.4369,-260.339 L 34.0451,-260.495 L 34.6289,-260.726 L 35.1791,-261.028 L 35.6871,-261.397 L 36.1448,-261.827
 L 36.5451,-262.311 L 36.8815,-262.841 L 37.1489,-263.409 L 37.3429,-264.007 L 37.4606,-264.623 L 37.5,-265.25
 L 37.5,-292.75 L 37.4606,-293.377 L 37.3429,-293.993 L 37.1489,-294.591 L 36.8815,-295.159 L 36.5451,-295.689
 L 36.1448,-296.173 L 35.6871,-296.603 L 35.1791,-296.972 L 34.6289,-297.274 L 34.0451,-297.505 L 33.4369,-297.661
 L 32.8139,-297.74 L -32.8139,-297.74 L -33.4369,-297.661 L -34.0451,-297.505 L -34.6289,-297.274 L -35.1791,-296.972
 L -35.6871,-296.603 L -36.1448,-296.173 L -36.5451,-295.689 L -36.8815,-295.159 L -37.1489,-294.591 L -37.3429,-293.993
 L -37.4606,-293.377 L -37.5,-292.75 L -37.5,-265.25 L -37.4606,-264.623 L -37.3429,-264.007 L -37.1489,-263.409
 L -36.8815,-262.841 L -36.5451,-262.311 L -36.1448,-261.827 L -35.6871,-261.397 L -35.1791,-261.028 L -34.6289,-260.726
 L -34.0451,-260.495 L -33.4369,-260.339 L -32.8139,-260.26 L 32.8139,-260.26 z
M -32.2512,-261.758 L -32.7495,-261.821 L -33.2361,-261.946 L -33.7031,-262.131 L -34.1433,-262.373 L -34.5497,-262.668
 L -34.9159,-263.012 L -35.2361,-263.399 L -35.5052,-263.823 L -35.7191,-264.278 L -35.8743,-264.755 L -35.9685,-265.249
 L -36,-265.75 L -36,-292.25 L -35.9685,-292.751 L -35.8743,-293.245 L -35.7191,-293.722 L -35.5052,-294.177
 L -35.2361,-294.601 L -34.9159,-294.988 L -34.5497,-295.332 L -34.1433,-295.627 L -33.7031,-295.869 L -33.2361,-296.054
 L -32.7495,-296.179 L -32.2512,-296.242 L 32.2512,-296.242 L 32.7495,-296.179 L 33.2361,-296.054 L 33.7031,-295.869
 L 34.1433,-295.627 L 34.5497,-295.332 L 34.9159,-294.988 L 35.2361,-294.601 L 35.5052,-294.177 L 35.7191,-293.722
 L 35.8743,-293.245 L 35.9685,-292.751 L 36,-292.25 L 36,-265.75 L 35.9685,-265.249 L 35.8743,-264.755
 L 35.7191,-264.278 L 35.5052,-263.823 L 35.2361,-263.399 L 34.9159,-263.012 L 34.5497,-262.668 L 34.1433,-262.373
 L 33.7031,-262.131 L 33.2361,-261.946 L 32.7495,-261.821 L 32.2512,-261.758 z
M 33.4369,-213.839 L 34.0451,-213.995 L 34.6289,-214.226 L 35.1791,-214.528 L 35.6871,-214.897 L 36.1448,-215.327
 L 36.5451,-215.811 L 36.8815,-216.341 L 37.1489,-216.909 L 37.3429,-217.507 L 37.4606,-218.123 L 37.5,-218.75
 L 37.5,-246.25 L 37.4606,-246.877 L 37.3429,-247.493 L 37.1489,-248.091 L 36.8815,-248.659 L 36.5451,-249.189
 L 36.1448,-249.673 L 35.6871,-250.103 L 35.1791,-250.472 L 34.6289,-250.774 L 34.0451,-251.005 L 33.4369,-251.161
 L 32.8139,-251.24 L -32.8139,-251.24 L -33.4369,-251.161 L -34.0451,-251.005 L -34.6289,-250.774 L -35.1791,-250.472
 L -35.6871,-250.103 L -36.1448,-249.673 L -36.5451,-249.189 L -36.8815,-248.659 L -37.1489,-248.091 L -37.3429,-247.493
 L -37.4606,-246.877 L -37.5,-246.25 L -37.5,-218.75 L -37.4606,-218.123 L -37.3429,-217.507 L -37.1489,-216.909
 L -36.8815,-216.341 L -36.5451,-215.811 L -36.1448,-215.327 L -35.6871,-214.897 L -35.1791,-214.528 L -34.6289,-214.226
 L -34.0451,-213.995 L -33.4369,-213.839 L -32.8139,-213.76 L 32.8139,-213.76 z
M -32.2432,-215.385 L -32.7256,-215.446 L -33.1967,-215.567 L -33.6489,-215.746 L -34.0751,-215.98 L -34.4685,-216.266
 L -34.823,-216.599 L -35.133,-216.974 L -35.3936,-217.384 L -35.6007,-217.824 L -35.751,-218.287 L -35.8421,-218.765
 L -35.8726,-219.25 L -35.8726,-245.75 L -35.8421,-246.235 L -35.751,-246.713 L -35.6007,-247.176 L -35.3936,-247.616
 L -35.133,-248.026 L -34.823,-248.401 L -34.4685,-248.734 L -34.0751,-249.02 L -33.6489,-249.254 L -33.1967,-249.433
 L -32.7256,-249.554 L -32.2432,-249.615 L 32.2432,-249.615 L 32.7256,-249.554 L 33.1967,-249.433 L 33.6489,-249.254
 L 34.0751,-249.02 L 34.4685,-248.734 L 34.823,-248.401 L 35.133,-248.026 L 35.3936,-247.616 L 35.6007,-247.176
 L 35.751,-246.713 L 35.8421,-246.235 L 35.8726,-245.75 L 35.8726,-219.25 L 35.8421,-218.765 L 35.751,-218.287
 L 35.6007,-217.824 L 35.3936,-217.384 L 35.133,-216.974 L 34.823,-216.599 L 34.4685,-216.266 L 34.0751,-215.98
 L 33.6489,-215.746 L 33.1967,-215.567 L 32.7256,-215.446 L 32.2432,-215.385 z
M 33.4369,-167.339 L 34.0451,-167.495 L 34.6289,-167.726 L 35.1791,-168.028 L 35.6871,-168.397 L 36.1448,-168.827
 L 36.5451,-169.311 L 36.8815,-169.841 L 37.1489,-170.409 L 37.3429,-171.007 L 37.4606,-171.623 L 37.5,-172.25
 L 37.5,-199.75 L 37.4606,-200.377 L 37.3429,-200.993 L 37.1489,-201.591 L 36.8815,-202.159 L 36.5451,-202.689
 L 36.1448,-203.173 L 35.6871,-203.603 L 35.1791,-203.972 L 34.6289,-204.274 L 34.0451,-204.505 L 33.4369,-204.661
 L 32.8139,-204.74 L -32.8139,-204.74 L -33.4369,-204.661 L -34.0451,-204.505 L -34.6289,-204.274 L -35.1791,-203.972
 L -35.6871,-203.603 L -36.1448,-203.173 L -36.5451,-202.689 L -36.8815,-202.159 L -37.1489,-201.591 L -37.3429,-200.993
 L -37.4606,-200.377 L -37.5,-199.75 L -37.5,-172.25 L -37.4606,-171.623 L -37.3429,-171.007 L -37.1489,-170.409
 L -36.8815,-169.841 L -36.5451,-169.311 L -36.1448,-168.827 L -35.6871,-168.397 L -35.1791,-168.028 L -34.6289,-167.726
 L -34.0451,-167.495 L -33.4369,-167.339 L -32.8139,-167.26 L 32.8139,-167.26 z
M 29.8493,-194.855 L 29.5503,-194.893 L 29.2583,-194.967 L 28.9781,-195.078 L 28.714,-195.224 L 28.4702,-195.401
 L 28.2505,-195.607 L 28.0583,-195.839 L 27.8969,-196.094 L 27.7685,-196.367 L 27.6754,-196.653 L 27.6189,-196.949
 L 27.6,-197.25 L 27.6189,-197.551 L 27.6754,-197.847 L 27.7685,-198.133 L 27.8969,-198.406 L 28.0583,-198.661
 L 28.2505,-198.893 L 28.4702,-199.099 L 28.714,-199.276 L 28.9781,-199.422 L 29.2583,-199.533 L 29.5503,-199.607
 L 29.8493,-199.645 L 30.1507,-199.645 L 30.4497,-199.607 L 30.7416,-199.533 L 31.0219,-199.422 L 31.286,-199.276
 L 31.5298,-199.099 L 31.7495,-198.893 L 31.9416,-198.661 L 32.1031,-198.406 L 32.2315,-198.133 L 32.3246,-197.847
 L 32.3811,-197.551 L 32.4,-197.25 L 32.3811,-196.949 L 32.3246,-196.653 L 32.2315,-196.367 L 32.1031,-196.094
 L 31.9416,-195.839 L 31.7495,-195.607 L 31.5298,-195.401 L 31.286,-195.224 L 31.0219,-195.078 L 30.7416,-194.967
 L 30.4497,-194.893 L 30.1507,-194.855 z
M -30.1507,-194.855 L -30.4497,-194.893 L -30.7416,-194.967 L -31.0219,-195.078 L -31.286,-195.224 L -31.5298,-195.401
 L -31.7495,-195.607 L -31.9416,-195.839 L -32.1031,-196.094 L -32.2315,-196.367 L -32.3246,-196.653 L -32.3811,-196.949
 L -32.4,-197.25 L -32.3811,-197.551 L -32.3246,-197.847 L -32.2315,-198.133 L -32.1031,-198.406 L -31.9416,-198.661
 L -31.7495,-198.893 L -31.5298,-199.099 L -31.286,-199.276 L -31.0219,-199.422 L -30.7416,-199.533 L -30.4497,-199.607
 L -30.1507,-199.645 L -29.8493,-199.645 L -29.5503,-199.607 L -29.2583,-199.533 L -28.9781,-199.422 L -28.714,-199.276
 L -28.4702,-199.099 L -28.2505,-198.893 L -28.0583,-198.661 L -27.8969,-198.406 L -27.7685,-198.133 L -27.6754,-197.847
 L -27.6189,-197.551 L -27.6,-197.25 L -27.6189,-196.949 L -27.6754,-196.653 L -27.7685,-196.367 L -27.8969,-196.094
 L -28.0583,-195.839 L -28.2505,-195.607 L -28.4702,-195.401 L -28.714,-195.224 L -28.9781,-195.078 L -29.2583,-194.967
 L -29.5503,-194.893 L -29.8493,-194.855 z
M 29.8493,-172.355 L 29.5503,-172.393 L 29.2583,-172.467 L 28.9781,-172.578 L 28.714,-172.724 L 28.4702,-172.901
 L 28.2505,-173.107 L 28.0583,-173.339 L 27.8969,-173.594 L 27.7685,-173.867 L 27.6754,-174.153 L 27.6189,-174.449
 L 27.6,-174.75 L 27.6189,-175.051 L 27.6754,-175.347 L 27.7685,-175.633 L 27.8969,-175.906 L 28.0583,-176.161
 L 28.2505,-176.393 L 28.4702,-176.599 L 28.714,-176.776 L 28.9781,-176.922 L 29.2583,-177.033 L 29.5503,-177.107
 L 29.8493,-177.145 L 30.1507,-177.145 L 30.4497,-177.107 L 30.7416,-177.033 L 31.0219,-176.922 L 31.286,-176.776
 L 31.5298,-176.599 L 31.7495,-176.393 L 31.9416,-176.161 L 32.1031,-175.906 L 32.2315,-175.633 L 32.3246,-175.347
 L 32.3811,-175.051 L 32.4,-174.75 L 32.3811,-174.449 L 32.3246,-174.153 L 32.2315,-173.867 L 32.1031,-173.594
 L 31.9416,-173.339 L 31.7495,-173.107 L 31.5298,-172.901 L 31.286,-172.724 L 31.0219,-172.578 L 30.7416,-172.467
 L 30.4497,-172.393 L 30.1507,-172.355 z
M -30.1507,-172.355 L -30.4497,-172.393 L -30.7416,-172.467 L -31.0219,-172.578 L -31.286,-172.724 L -31.5298,-172.901
 L -31.7495,-173.107 L -31.9416,-173.339 L -32.1031,-173.594 L -32.2315,-173.867 L -32.3246,-174.153 L -32.3811,-174.449
 L -32.4,-174.75 L -32.3811,-175.051 L -32.3246,-175.347 L -32.2315,-175.633 L -32.1031,-175.906 L -31.9416,-176.161
 L -31.7495,-176.393 L -31.5298,-176.599 L -31.286,-176.776 L -31.0219,-176.922 L -30.7416,-177.033 L -30.4497,-177.107
 L -30.1507,-177.145 L -29.8493,-177.145 L -29.5503,-177.107 L -29.2583,-177.033 L -28.9781,-176.922 L -28.714,-176.776
 L -28.4702,-176.599 L -28.2505,-176.393 L -28.0583,-176.161 L -27.8969,-175.906 L -27.7685,-175.633 L -27.6754,-175.347
 L -27.6189,-175.051 L -27.6,-174.75 L -27.6189,-174.449 L -27.6754,-174.153 L -27.7685,-173.867 L -27.8969,-173.594
 L -28.0583,-173.339 L -28.2505,-173.107 L -28.4702,-172.901 L -28.714,-172.724 L -28.9781,-172.578 L -29.2583,-172.467
 L -29.5503,-172.393 L -29.8493,-172.355 z
M 33.4369,-120.839 L 34.0451,-120.995 L 34.6289,-121.226 L 35.1791,-121.528 L 35.6871,-121.897 L 36.1448,-122.327
 L 36.5451,-122.811 L 36.8815,-123.341 L 37.1489,-123.909 L 37.3429,-124.507 L 37.4606,-125.123 L 37.5,-125.75
 L 37.5,-153.25 L 37.4606,-153.877 L 37.3429,-154.493 L 37.1489,-155.091 L 36.8815,-155.659 L 36.5451,-156.189
 L 36.1448,-156.673 L 35.6871,-157.103 L 35.1791,-157.472 L 34.6289,-157.774 L 34.0451,-158.005 L 33.4369,-158.161
 L 32.8139,-158.24 L -32.8139,-158.24 L -33.4369,-158.161 L -34.0451,-158.005 L -34.6289,-157.774 L -35.1791,-157.472
 L -35.6871,-157.103 L -36.1448,-156.673 L -36.5451,-156.189 L -36.8815,-155.659 L -37.1489,-155.091 L -37.3429,-154.493
 L -37.4606,-153.877 L -37.5,-153.25 L -37.5,-125.75 L -37.4606,-125.123 L -37.3429,-124.507 L -37.1489,-123.909
 L -36.8815,-123.341 L -36.5451,-122.811 L -36.1448,-122.327 L -35.6871,-121.897 L -35.1791,-121.528 L -34.6289,-121.226
 L -34.0451,-120.995 L -33.4369,-120.839 L -32.8139,-120.76 L 32.8139,-120.76 z
M -30.113,-148.954 L -30.3373,-148.982 L -30.5562,-149.038 L -30.7664,-149.121 L -30.9645,-149.23 L -31.1474,-149.363
 L -31.3121,-149.518 L -31.4562,-149.692 L -31.5773,-149.883 L -31.6736,-150.087 L -31.7434,-150.302 L -31.7858,-150.524
 L -31.8,-150.75 L -31.7858,-150.976 L -31.7434,-151.198 L -31.6736,-151.413 L -31.5773,-151.617 L -31.4562,-151.808
 L -31.3121,-151.982 L -31.1474,-152.137 L -30.9645,-152.27 L -30.7664,-152.379 L -30.5562,-152.462 L -30.3373,-152.518
 L -30.113,-152.546 L -29.887,-152.546 L -29.6627,-152.518 L -29.4438,-152.462 L -29.2336,-152.379 L -29.0355,-152.27
 L -28.8526,-152.137 L -28.6879,-151.982 L -28.5438,-151.808 L -28.4226,-151.617 L -28.3264,-151.413 L -28.2565,-151.198
 L -28.2142,-150.976 L -28.2,-150.75 L -28.2142,-150.524 L -28.2565,-150.302 L -28.3264,-150.087 L -28.4226,-149.883
 L -28.5438,-149.692 L -28.6879,-149.518 L -28.8526,-149.363 L -29.0355,-149.23 L -29.2336,-149.121 L -29.4438,-149.038
 L -29.6627,-148.982 L -29.887,-148.954 z
M 29.887,-148.954 L 29.6627,-148.982 L 29.4438,-149.038 L 29.2336,-149.121 L 29.0355,-149.23 L 28.8526,-149.363
 L 28.6879,-149.518 L 28.5438,-149.692 L 28.4226,-149.883 L 28.3264,-150.087 L 28.2565,-150.302 L 28.2142,-150.524
 L 28.2,-150.75 L 28.2142,-150.976 L 28.2565,-151.198 L 28.3264,-151.413 L 28.4226,-151.617 L 28.5438,-151.808
 L 28.6879,-151.982 L 28.8526,-152.137 L 29.0355,-152.27 L 29.2336,-152.379 L 29.4438,-152.462 L 29.6627,-152.518
 L 29.887,-152.546 L 30.113,-152.546 L 30.3373,-152.518 L 30.5562,-152.462 L 30.7664,-152.379 L 30.9645,-152.27
 L 31.1474,-152.137 L 31.3121,-151.982 L 31.4562,-151.808 L 31.5773,-151.617 L 31.6736,-151.413 L 31.7434,-151.198
 L 31.7858,-150.976 L 31.8,-150.75 L 31.7858,-150.524 L 31.7434,-150.302 L 31.6736,-150.087 L 31.5773,-149.883
 L 31.4562,-149.692 L 31.3121,-149.518 L 31.1474,-149.363 L 30.9645,-149.23 L 30.7664,-149.121 L 30.5562,-149.038
 L 30.3373,-148.982 L 30.113,-148.954 z
M 29.887,-126.454 L 29.6627,-126.482 L 29.4438,-126.538 L 29.2336,-126.621 L 29.0355,-126.73 L 28.8526,-126.863
 L 28.6879,-127.018 L 28.5438,-127.192 L 28.4226,-127.383 L 28.3264,-127.587 L 28.2565,-127.802 L 28.2142,-128.024
 L 28.2,-128.25 L 28.2142,-128.476 L 28.2565,-128.698 L 28.3264,-128.913 L 28.4226,-129.117 L 28.5438,-129.308
 L 28.6879,-129.482 L 28.8526,-129.637 L 29.0355,-129.77 L 29.2336,-129.879 L 29.4438,-129.962 L 29.6627,-130.018
 L 29.887,-130.046 L 30.113,-130.046 L 30.3373,-130.018 L 30.5562,-129.962 L 30.7664,-129.879 L 30.9645,-129.77
 L 31.1474,-129.637 L 31.3121,-129.482 L 31.4562,-129.308 L 31.5773,-129.117 L 31.6736,-128.913 L 31.7434,-128.698
 L 31.7858,-128.476 L 31.8,-128.25 L 31.7858,-128.024 L 31.7434,-127.802 L 31.6736,-127.587 L 31.5773,-127.383
 L 31.4562,-127.192 L 31.3121,-127.018 L 31.1474,-126.863 L 30.9645,-126.73 L 30.7664,-126.621 L 30.5562,-126.538
 L 30.3373,-126.482 L 30.113,-126.454 z
M -30.113,-126.454 L -30.3373,-126.482 L -30.5562,-126.538 L -30.7664,-126.621 L -30.9645,-126.73 L -31.1474,-126.863
 L -31.3121,-127.018 L -31.4562,-127.192 L -31.5773,-127.383 L -31.6736,-127.587 L -31.7434,-127.802 L -31.7858,-128.024
 L -31.8,-128.25 L -31.7858,-128.476 L -31.7434,-128.698 L -31.6736,-128.913 L -31.5773,-129.117 L -31.4562,-129.308
 L -31.3121,-129.482 L -31.1474,-129.637 L -30.9645,-129.77 L -30.7664,-129.879 L -30.5562,-129.962 L -30.3373,-130.018
 L -30.113,-130.046 L -29.887,-130.046 L -29.6627,-130.018 L -29.4438,-129.962 L -29.2336,-129.879 L -29.0355,-129.77
 L -28.8526,-129.637 L -28.6879,-129.482 L -28.5438,-129.308 L -28.4226,-129.117 L -28.3264,-128.913 L -28.2565,-128.698
 L -28.2142,-128.476 L -28.2,-128.25 L -28.2142,-128.024 L -28.2565,-127.802 L -28.3264,-127.587 L -28.4226,-127.383
 L -28.5438,-127.192 L -28.6879,-127.018 L -28.8526,-126.863 L -29.0355,-126.73 L -29.2336,-126.621 L -29.4438,-126.538
 L -29.6627,-126.482 L -29.887,-126.454 z
" stroke="black" fill="lightgray" stroke-width="0.5"/>
</svg>
