solid OpenSCAD_Model
  facet normal -0.866025 0.5 -1.41905e-18
    outer loop
      vertex -5.76999 0 0
      vertex -2.88499 4.99696 25
      vertex -2.88499 4.99696 0
    endloop
  endfacet
  facet normal -0.866025 0.5 -1.41905e-18
    outer loop
      vertex -2.88499 4.99696 25
      vertex -5.76999 0 0
      vertex -5.76999 0 25
    endloop
  endfacet
  facet normal 0 1 -0
    outer loop
      vertex 2.88499 4.99696 0
      vertex -2.88499 4.99696 25
      vertex 2.88499 4.99696 25
    endloop
  endfacet
  facet normal 0 1 0
    outer loop
      vertex -2.88499 4.99696 25
      vertex 2.88499 4.99696 0
      vertex -2.88499 4.99696 0
    endloop
  endfacet
  facet normal -0 0 -1
    outer loop
      vertex 5.76999 0 0
      vertex 2.97634 -0.375999 0
      vertex 3 0 0
    endloop
  endfacet
  facet normal 0 0 -1
    outer loop
      vertex 5.76999 0 0
      vertex 2.90575 -0.746069 0
      vertex 2.97634 -0.375999 0
    endloop
  endfacet
  facet normal 0 0 -1
    outer loop
      vertex 2.62892 -1.44526 0
      vertex 5.76999 0 0
      vertex 2.88499 -4.99696 0
    endloop
  endfacet
  facet normal 0 0 -1
    outer loop
      vertex 5.76999 0 0
      vertex 2.78933 -1.10437 0
      vertex 2.90575 -0.746069 0
    endloop
  endfacet
  facet normal 0 0 -1
    outer loop
      vertex 5.76999 0 0
      vertex 2.62892 -1.44526 0
      vertex 2.78933 -1.10437 0
    endloop
  endfacet
  facet normal 0 0 -1
    outer loop
      vertex 2.88499 -4.99696 0
      vertex 2.42705 -1.76336 0
      vertex 2.62892 -1.44526 0
    endloop
  endfacet
  facet normal 0 0 -1
    outer loop
      vertex 2.88499 -4.99696 0
      vertex 2.18691 -2.05364 0
      vertex 2.42705 -1.76336 0
    endloop
  endfacet
  facet normal 0 0 -1
    outer loop
      vertex 2.88499 -4.99696 0
      vertex 1.91227 -2.31154 0
      vertex 2.18691 -2.05364 0
    endloop
  endfacet
  facet normal 0 0 -1
    outer loop
      vertex 2.88499 -4.99696 0
      vertex 1.60748 -2.53298 0
      vertex 1.91227 -2.31154 0
    endloop
  endfacet
  facet normal 0 0 -1
    outer loop
      vertex 2.88499 -4.99696 0
      vertex 1.27734 -2.71448 0
      vertex 1.60748 -2.53298 0
    endloop
  endfacet
  facet normal 0 0 -1
    outer loop
      vertex 2.88499 -4.99696 0
      vertex 0.927051 -2.85317 0
      vertex 1.27734 -2.71448 0
    endloop
  endfacet
  facet normal 0 0 -1
    outer loop
      vertex 2.88499 -4.99696 0
      vertex 0.562143 -2.94686 0
      vertex 0.927051 -2.85317 0
    endloop
  endfacet
  facet normal 0 0 -1
    outer loop
      vertex 2.88499 -4.99696 0
      vertex 0.188371 -2.99408 0
      vertex 0.562143 -2.94686 0
    endloop
  endfacet
  facet normal 0 0 -1
    outer loop
      vertex 2.88499 -4.99696 0
      vertex -0.188371 -2.99408 0
      vertex 0.188371 -2.99408 0
    endloop
  endfacet
  facet normal 0 0 -1
    outer loop
      vertex -2.88499 -4.99696 0
      vertex -0.188371 -2.99408 0
      vertex 2.88499 -4.99696 0
    endloop
  endfacet
  facet normal -0 0 -1
    outer loop
      vertex -0.188371 -2.99408 0
      vertex -2.88499 -4.99696 0
      vertex -0.562143 -2.94686 0
    endloop
  endfacet
  facet normal -0 0 -1
    outer loop
      vertex -0.562143 -2.94686 0
      vertex -2.88499 -4.99696 0
      vertex -0.927051 -2.85317 0
    endloop
  endfacet
  facet normal -0 0 -1
    outer loop
      vertex -0.927051 -2.85317 0
      vertex -2.88499 -4.99696 0
      vertex -1.27734 -2.71448 0
    endloop
  endfacet
  facet normal 0 0 -1
    outer loop
      vertex -2.88499 -4.99696 0
      vertex -1.60748 -2.53298 0
      vertex -1.27734 -2.71448 0
    endloop
  endfacet
  facet normal 0 0 -1
    outer loop
      vertex -2.88499 -4.99696 0
      vertex -1.91227 -2.31154 0
      vertex -1.60748 -2.53298 0
    endloop
  endfacet
  facet normal 0 0 -1
    outer loop
      vertex -2.88499 -4.99696 0
      vertex -2.18691 -2.05364 0
      vertex -1.91227 -2.31154 0
    endloop
  endfacet
  facet normal 0 0 -1
    outer loop
      vertex -2.88499 -4.99696 0
      vertex -2.42705 -1.76336 0
      vertex -2.18691 -2.05364 0
    endloop
  endfacet
  facet normal 0 0 -1
    outer loop
      vertex -2.88499 -4.99696 0
      vertex -2.62892 -1.44526 0
      vertex -2.42705 -1.76336 0
    endloop
  endfacet
  facet normal 0 0 -1
    outer loop
      vertex -5.76999 0 0
      vertex -2.62892 -1.44526 0
      vertex -2.88499 -4.99696 0
    endloop
  endfacet
  facet normal 0 0 -1
    outer loop
      vertex -2.62892 -1.44526 0
      vertex -5.76999 0 0
      vertex -2.78933 -1.10437 0
    endloop
  endfacet
  facet normal 0 0 -1
    outer loop
      vertex -2.78933 -1.10437 0
      vertex -5.76999 0 0
      vertex -2.90575 -0.746069 0
    endloop
  endfacet
  facet normal 0 0 -1
    outer loop
      vertex -2.90575 -0.746069 0
      vertex -5.76999 0 0
      vertex -2.97634 -0.375999 0
    endloop
  endfacet
  facet normal 0 0 -1
    outer loop
      vertex -2.97634 -0.375999 0
      vertex -5.76999 0 0
      vertex -3 0 0
    endloop
  endfacet
  facet normal 0 0 -1
    outer loop
      vertex 2.97634 0.375999 0
      vertex 5.76999 0 0
      vertex 3 0 0
    endloop
  endfacet
  facet normal 0 0 -1
    outer loop
      vertex 2.90575 0.746069 0
      vertex 5.76999 0 0
      vertex 2.97634 0.375999 0
    endloop
  endfacet
  facet normal 0 0 -1
    outer loop
      vertex 2.78933 1.10437 0
      vertex 5.76999 0 0
      vertex 2.90575 0.746069 0
    endloop
  endfacet
  facet normal 0 0 -1
    outer loop
      vertex 2.62892 1.44526 0
      vertex 5.76999 0 0
      vertex 2.78933 1.10437 0
    endloop
  endfacet
  facet normal 0 0 -1
    outer loop
      vertex 5.76999 0 0
      vertex 2.62892 1.44526 0
      vertex 2.88499 4.99696 0
    endloop
  endfacet
  facet normal 0 0 -1
    outer loop
      vertex 2.42705 1.76336 0
      vertex 2.88499 4.99696 0
      vertex 2.62892 1.44526 0
    endloop
  endfacet
  facet normal 0 0 -1
    outer loop
      vertex 2.18691 2.05364 0
      vertex 2.88499 4.99696 0
      vertex 2.42705 1.76336 0
    endloop
  endfacet
  facet normal 0 0 -1
    outer loop
      vertex 1.91227 2.31154 0
      vertex 2.88499 4.99696 0
      vertex 2.18691 2.05364 0
    endloop
  endfacet
  facet normal 0 0 -1
    outer loop
      vertex 1.60748 2.53298 0
      vertex 2.88499 4.99696 0
      vertex 1.91227 2.31154 0
    endloop
  endfacet
  facet normal 0 0 -1
    outer loop
      vertex 1.27734 2.71448 0
      vertex 2.88499 4.99696 0
      vertex 1.60748 2.53298 0
    endloop
  endfacet
  facet normal 0 0 -1
    outer loop
      vertex 0.927051 2.85317 0
      vertex 2.88499 4.99696 0
      vertex 1.27734 2.71448 0
    endloop
  endfacet
  facet normal 0 0 -1
    outer loop
      vertex 0.562143 2.94686 0
      vertex 2.88499 4.99696 0
      vertex 0.927051 2.85317 0
    endloop
  endfacet
  facet normal 0 0 -1
    outer loop
      vertex 0.188371 2.99408 0
      vertex 2.88499 4.99696 0
      vertex 0.562143 2.94686 0
    endloop
  endfacet
  facet normal 0 0 -1
    outer loop
      vertex -0.188371 2.99408 0
      vertex 2.88499 4.99696 0
      vertex 0.188371 2.99408 0
    endloop
  endfacet
  facet normal 0 0 -1
    outer loop
      vertex -2.88499 4.99696 0
      vertex -0.188371 2.99408 0
      vertex -0.562143 2.94686 0
    endloop
  endfacet
  facet normal 0 0 -1
    outer loop
      vertex -2.88499 4.99696 0
      vertex -0.562143 2.94686 0
      vertex -0.927051 2.85317 0
    endloop
  endfacet
  facet normal 0 0 -1
    outer loop
      vertex -2.88499 4.99696 0
      vertex -0.927051 2.85317 0
      vertex -1.27734 2.71448 0
    endloop
  endfacet
  facet normal 0 0 -1
    outer loop
      vertex -0.188371 2.99408 0
      vertex -2.88499 4.99696 0
      vertex 2.88499 4.99696 0
    endloop
  endfacet
  facet normal 0 0 -1
    outer loop
      vertex -1.60748 2.53298 0
      vertex -2.88499 4.99696 0
      vertex -1.27734 2.71448 0
    endloop
  endfacet
  facet normal 0 0 -1
    outer loop
      vertex -1.91227 2.31154 0
      vertex -2.88499 4.99696 0
      vertex -1.60748 2.53298 0
    endloop
  endfacet
  facet normal 0 0 -1
    outer loop
      vertex -2.18691 2.05364 0
      vertex -2.88499 4.99696 0
      vertex -1.91227 2.31154 0
    endloop
  endfacet
  facet normal 0 0 -1
    outer loop
      vertex -2.42705 1.76336 0
      vertex -2.88499 4.99696 0
      vertex -2.18691 2.05364 0
    endloop
  endfacet
  facet normal 0 0 -1
    outer loop
      vertex -2.62892 1.44526 0
      vertex -2.88499 4.99696 0
      vertex -2.42705 1.76336 0
    endloop
  endfacet
  facet normal 0 0 -1
    outer loop
      vertex -5.76999 0 0
      vertex -2.62892 1.44526 0
      vertex -2.78933 1.10437 0
    endloop
  endfacet
  facet normal 0 0 -1
    outer loop
      vertex -5.76999 0 0
      vertex -2.78933 1.10437 0
      vertex -2.90575 0.746069 0
    endloop
  endfacet
  facet normal 0 0 -1
    outer loop
      vertex -5.76999 0 0
      vertex -2.90575 0.746069 0
      vertex -2.97634 0.375999 0
    endloop
  endfacet
  facet normal 0 0 -1
    outer loop
      vertex -5.76999 0 0
      vertex -2.97634 0.375999 0
      vertex -3 0 0
    endloop
  endfacet
  facet normal -0 0 -1
    outer loop
      vertex -2.62892 1.44526 0
      vertex -5.76999 0 0
      vertex -2.88499 4.99696 0
    endloop
  endfacet
  facet normal 0 0 1
    outer loop
      vertex 2.88499 4.99696 25
      vertex 2.88499 -4.99696 25
      vertex 5.76999 0 25
    endloop
  endfacet
  facet normal -0 0 1
    outer loop
      vertex -2.88499 4.99696 25
      vertex 2.88499 -4.99696 25
      vertex 2.88499 4.99696 25
    endloop
  endfacet
  facet normal 0 0 1
    outer loop
      vertex -2.88499 4.99696 25
      vertex -2.88499 -4.99696 25
      vertex 2.88499 -4.99696 25
    endloop
  endfacet
  facet normal 0 -0 1
    outer loop
      vertex -2.88499 -4.99696 25
      vertex -2.88499 4.99696 25
      vertex -5.76999 0 25
    endloop
  endfacet
  facet normal 0.866025 -0.5 -1.41905e-18
    outer loop
      vertex 2.88499 -4.99696 25
      vertex 5.76999 0 0
      vertex 5.76999 0 25
    endloop
  endfacet
  facet normal 0.866025 -0.5 -1.41905e-18
    outer loop
      vertex 5.76999 0 0
      vertex 2.88499 -4.99696 25
      vertex 2.88499 -4.99696 0
    endloop
  endfacet
  facet normal 0.866025 0.5 1.41905e-18
    outer loop
      vertex 5.76999 0 25
      vertex 2.88499 4.99696 0
      vertex 2.88499 4.99696 25
    endloop
  endfacet
  facet normal 0.866025 0.5 1.41905e-18
    outer loop
      vertex 2.88499 4.99696 0
      vertex 5.76999 0 25
      vertex 5.76999 0 0
    endloop
  endfacet
  facet normal 0 -1 0
    outer loop
      vertex -2.88499 -4.99696 0
      vertex 2.88499 -4.99696 25
      vertex -2.88499 -4.99696 25
    endloop
  endfacet
  facet normal 0 -1 -0
    outer loop
      vertex 2.88499 -4.99696 25
      vertex -2.88499 -4.99696 0
      vertex 2.88499 -4.99696 0
    endloop
  endfacet
  facet normal -0.866025 -0.5 1.41905e-18
    outer loop
      vertex -2.88499 -4.99696 0
      vertex -5.76999 0 25
      vertex -5.76999 0 0
    endloop
  endfacet
  facet normal -0.866025 -0.5 1.41905e-18
    outer loop
      vertex -5.76999 0 25
      vertex -2.88499 -4.99696 0
      vertex -2.88499 -4.99696 25
    endloop
  endfacet
  facet normal 0.844331 0.535822 2.7339e-19
    outer loop
      vertex 2.62892 1.44526 0
      vertex 2.42705 1.76336 -25
      vertex 2.42705 1.76336 0
    endloop
  endfacet
  facet normal 0.844331 0.535822 2.7339e-19
    outer loop
      vertex 2.42705 1.76336 -25
      vertex 2.62892 1.44526 0
      vertex 2.62892 1.44526 -25
    endloop
  endfacet
  facet normal 0.368126 0.929776 -0
    outer loop
      vertex 1.27734 2.71448 -25
      vertex 0.927051 2.85317 0
      vertex 1.27734 2.71448 0
    endloop
  endfacet
  facet normal 0.368126 0.929776 0
    outer loop
      vertex 0.927051 2.85317 0
      vertex 1.27734 2.71448 -25
      vertex 0.927051 2.85317 -25
    endloop
  endfacet
  facet normal -0.368126 0.929776 0
    outer loop
      vertex -0.927051 2.85317 -25
      vertex -1.27734 2.71448 0
      vertex -0.927051 2.85317 0
    endloop
  endfacet
  facet normal -0.368126 0.929776 0
    outer loop
      vertex -1.27734 2.71448 0
      vertex -0.927051 2.85317 -25
      vertex -1.27734 2.71448 -25
    endloop
  endfacet
  facet normal -0.904828 0.425778 3.10084e-19
    outer loop
      vertex -2.78933 1.10437 -25
      vertex -2.62892 1.44526 0
      vertex -2.62892 1.44526 -25
    endloop
  endfacet
  facet normal -0.904828 0.425778 3.10084e-19
    outer loop
      vertex -2.62892 1.44526 0
      vertex -2.78933 1.10437 -25
      vertex -2.78933 1.10437 0
    endloop
  endfacet
  facet normal 0.98229 -0.187369 1.28423e-19
    outer loop
      vertex 2.90575 -0.746069 0
      vertex 2.97634 -0.375999 -25
      vertex 2.97634 -0.375999 0
    endloop
  endfacet
  facet normal 0.98229 -0.187369 1.28423e-19
    outer loop
      vertex 2.97634 -0.375999 -25
      vertex 2.90575 -0.746069 0
      vertex 2.90575 -0.746069 -25
    endloop
  endfacet
  facet normal 0.684541 0.728974 -0
    outer loop
      vertex 2.18691 2.05364 -25
      vertex 1.91227 2.31154 0
      vertex 2.18691 2.05364 0
    endloop
  endfacet
  facet normal 0.684541 0.728974 0
    outer loop
      vertex 1.91227 2.31154 0
      vertex 2.18691 2.05364 -25
      vertex 1.91227 2.31154 -25
    endloop
  endfacet
  facet normal 0.125337 0.992114 -0
    outer loop
      vertex 0.562143 2.94686 -25
      vertex 0.188371 2.99408 0
      vertex 0.562143 2.94686 0
    endloop
  endfacet
  facet normal 0.125337 0.992114 0
    outer loop
      vertex 0.188371 2.99408 0
      vertex 0.562143 2.94686 -25
      vertex 0.188371 2.99408 -25
    endloop
  endfacet
  facet normal 0.58778 0.809021 -0
    outer loop
      vertex 1.91227 2.31154 -25
      vertex 1.60748 2.53298 0
      vertex 1.91227 2.31154 0
    endloop
  endfacet
  facet normal 0.58778 0.809021 0
    outer loop
      vertex 1.60748 2.53298 0
      vertex 1.91227 2.31154 -25
      vertex 1.60748 2.53298 -25
    endloop
  endfacet
  facet normal -0.98229 0.187369 1.28423e-19
    outer loop
      vertex -2.97634 0.375999 -25
      vertex -2.90575 0.746069 0
      vertex -2.90575 0.746069 -25
    endloop
  endfacet
  facet normal -0.98229 0.187369 1.28423e-19
    outer loop
      vertex -2.90575 0.746069 0
      vertex -2.97634 0.375999 -25
      vertex -2.97634 0.375999 0
    endloop
  endfacet
  facet normal -0.770514 0.637423 5.0363e-19
    outer loop
      vertex -2.42705 1.76336 -25
      vertex -2.18691 2.05364 0
      vertex -2.18691 2.05364 -25
    endloop
  endfacet
  facet normal -0.770514 0.637423 5.0363e-19
    outer loop
      vertex -2.18691 2.05364 0
      vertex -2.42705 1.76336 -25
      vertex -2.42705 1.76336 0
    endloop
  endfacet
  facet normal -0.248684 0.968585 0
    outer loop
      vertex -0.562143 2.94686 -25
      vertex -0.927051 2.85317 0
      vertex -0.562143 2.94686 0
    endloop
  endfacet
  facet normal -0.248684 0.968585 0
    outer loop
      vertex -0.927051 2.85317 0
      vertex -0.562143 2.94686 -25
      vertex -0.927051 2.85317 -25
    endloop
  endfacet
  facet normal -0.684541 0.728974 0
    outer loop
      vertex -1.91227 2.31154 -25
      vertex -2.18691 2.05364 0
      vertex -1.91227 2.31154 0
    endloop
  endfacet
  facet normal -0.684541 0.728974 0
    outer loop
      vertex -2.18691 2.05364 0
      vertex -1.91227 2.31154 -25
      vertex -2.18691 2.05364 -25
    endloop
  endfacet
  facet normal 0.998026 0.0628015 -2.09542e-20
    outer loop
      vertex 3 0 0
      vertex 2.97634 0.375999 -25
      vertex 2.97634 0.375999 0
    endloop
  endfacet
  facet normal 0.998026 0.0628015 -2.09542e-20
    outer loop
      vertex 2.97634 0.375999 -25
      vertex 3 0 0
      vertex 3 0 -25
    endloop
  endfacet
  facet normal 0.481762 -0.876302 0
    outer loop
      vertex 1.27734 -2.71448 -25
      vertex 1.60748 -2.53298 0
      vertex 1.27734 -2.71448 0
    endloop
  endfacet
  facet normal 0.481762 -0.876302 0
    outer loop
      vertex 1.60748 -2.53298 0
      vertex 1.27734 -2.71448 -25
      vertex 1.60748 -2.53298 -25
    endloop
  endfacet
  facet normal 0.770514 0.637423 -5.0363e-19
    outer loop
      vertex 2.42705 1.76336 0
      vertex 2.18691 2.05364 -25
      vertex 2.18691 2.05364 0
    endloop
  endfacet
  facet normal 0.770514 0.637423 -5.0363e-19
    outer loop
      vertex 2.18691 2.05364 -25
      vertex 2.42705 1.76336 0
      vertex 2.42705 1.76336 -25
    endloop
  endfacet
  facet normal 0 1 -0
    outer loop
      vertex 0.188371 2.99408 -25
      vertex -0.188371 2.99408 0
      vertex 0.188371 2.99408 0
    endloop
  endfacet
  facet normal 0 1 0
    outer loop
      vertex -0.188371 2.99408 0
      vertex 0.188371 2.99408 -25
      vertex -0.188371 2.99408 -25
    endloop
  endfacet
  facet normal 0.248684 0.968585 -0
    outer loop
      vertex 0.927051 2.85317 -25
      vertex 0.562143 2.94686 0
      vertex 0.927051 2.85317 0
    endloop
  endfacet
  facet normal 0.248684 0.968585 0
    outer loop
      vertex 0.562143 2.94686 0
      vertex 0.927051 2.85317 -25
      vertex 0.562143 2.94686 -25
    endloop
  endfacet
  facet normal 0.481762 0.876302 -0
    outer loop
      vertex 1.60748 2.53298 -25
      vertex 1.27734 2.71448 0
      vertex 1.60748 2.53298 0
    endloop
  endfacet
  facet normal 0.481762 0.876302 0
    outer loop
      vertex 1.27734 2.71448 0
      vertex 1.60748 2.53298 -25
      vertex 1.27734 2.71448 -25
    endloop
  endfacet
  facet normal -0.998026 0.0628015 2.09542e-20
    outer loop
      vertex -3 0 -25
      vertex -2.97634 0.375999 0
      vertex -2.97634 0.375999 -25
    endloop
  endfacet
  facet normal -0.998026 0.0628015 2.09542e-20
    outer loop
      vertex -2.97634 0.375999 0
      vertex -3 0 -25
      vertex -3 0 0
    endloop
  endfacet
  facet normal -0.951056 0.309019 7.98604e-20
    outer loop
      vertex -2.90575 0.746069 -25
      vertex -2.78933 1.10437 0
      vertex -2.78933 1.10437 -25
    endloop
  endfacet
  facet normal -0.951056 0.309019 7.98604e-20
    outer loop
      vertex -2.78933 1.10437 0
      vertex -2.90575 0.746069 -25
      vertex -2.90575 0.746069 0
    endloop
  endfacet
  facet normal -0.844331 0.535822 -2.7339e-19
    outer loop
      vertex -2.62892 1.44526 -25
      vertex -2.42705 1.76336 0
      vertex -2.42705 1.76336 -25
    endloop
  endfacet
  facet normal -0.844331 0.535822 -2.7339e-19
    outer loop
      vertex -2.42705 1.76336 0
      vertex -2.62892 1.44526 -25
      vertex -2.62892 1.44526 0
    endloop
  endfacet
  facet normal -0.125337 0.992114 0
    outer loop
      vertex -0.188371 2.99408 -25
      vertex -0.562143 2.94686 0
      vertex -0.188371 2.99408 0
    endloop
  endfacet
  facet normal -0.125337 0.992114 0
    outer loop
      vertex -0.562143 2.94686 0
      vertex -0.188371 2.99408 -25
      vertex -0.562143 2.94686 -25
    endloop
  endfacet
  facet normal -0.58778 0.809021 0
    outer loop
      vertex -1.60748 2.53298 -25
      vertex -1.91227 2.31154 0
      vertex -1.60748 2.53298 0
    endloop
  endfacet
  facet normal -0.58778 0.809021 0
    outer loop
      vertex -1.91227 2.31154 0
      vertex -1.60748 2.53298 -25
      vertex -1.91227 2.31154 -25
    endloop
  endfacet
  facet normal -0.481762 0.876302 0
    outer loop
      vertex -1.27734 2.71448 -25
      vertex -1.60748 2.53298 0
      vertex -1.27734 2.71448 0
    endloop
  endfacet
  facet normal -0.481762 0.876302 0
    outer loop
      vertex -1.60748 2.53298 0
      vertex -1.27734 2.71448 -25
      vertex -1.60748 2.53298 -25
    endloop
  endfacet
  facet normal 0.998026 -0.0628015 2.09542e-20
    outer loop
      vertex 2.97634 -0.375999 0
      vertex 3 0 -25
      vertex 3 0 0
    endloop
  endfacet
  facet normal 0.998026 -0.0628015 2.09542e-20
    outer loop
      vertex 3 0 -25
      vertex 2.97634 -0.375999 0
      vertex 2.97634 -0.375999 -25
    endloop
  endfacet
  facet normal 0 -1 0
    outer loop
      vertex -0.188371 -2.99408 -25
      vertex 0.188371 -2.99408 0
      vertex -0.188371 -2.99408 0
    endloop
  endfacet
  facet normal 0 -1 -0
    outer loop
      vertex 0.188371 -2.99408 0
      vertex -0.188371 -2.99408 -25
      vertex 0.188371 -2.99408 -25
    endloop
  endfacet
  facet normal 0 0 -1
    outer loop
      vertex 2.97634 -0.375999 -25
      vertex 2.97634 0.375999 -25
      vertex 3 0 -25
    endloop
  endfacet
  facet normal 0 0 -1
    outer loop
      vertex 2.90575 -0.746069 -25
      vertex 2.97634 0.375999 -25
      vertex 2.97634 -0.375999 -25
    endloop
  endfacet
  facet normal 0 0 -1
    outer loop
      vertex 2.90575 -0.746069 -25
      vertex 2.90575 0.746069 -25
      vertex 2.97634 0.375999 -25
    endloop
  endfacet
  facet normal 0 0 -1
    outer loop
      vertex 2.78933 -1.10437 -25
      vertex 2.90575 0.746069 -25
      vertex 2.90575 -0.746069 -25
    endloop
  endfacet
  facet normal 0 0 -1
    outer loop
      vertex 2.78933 -1.10437 -25
      vertex 2.78933 1.10437 -25
      vertex 2.90575 0.746069 -25
    endloop
  endfacet
  facet normal 0 0 -1
    outer loop
      vertex 2.62892 -1.44526 -25
      vertex 2.78933 1.10437 -25
      vertex 2.78933 -1.10437 -25
    endloop
  endfacet
  facet normal 0 0 -1
    outer loop
      vertex 2.62892 -1.44526 -25
      vertex 2.62892 1.44526 -25
      vertex 2.78933 1.10437 -25
    endloop
  endfacet
  facet normal 0 0 -1
    outer loop
      vertex 2.42705 -1.76336 -25
      vertex 2.62892 1.44526 -25
      vertex 2.62892 -1.44526 -25
    endloop
  endfacet
  facet normal 0 0 -1
    outer loop
      vertex 2.42705 -1.76336 -25
      vertex 2.42705 1.76336 -25
      vertex 2.62892 1.44526 -25
    endloop
  endfacet
  facet normal 0 0 -1
    outer loop
      vertex 2.18691 -2.05364 -25
      vertex 2.42705 1.76336 -25
      vertex 2.42705 -1.76336 -25
    endloop
  endfacet
  facet normal 0 0 -1
    outer loop
      vertex 2.18691 -2.05364 -25
      vertex 2.18691 2.05364 -25
      vertex 2.42705 1.76336 -25
    endloop
  endfacet
  facet normal 0 0 -1
    outer loop
      vertex 1.91227 -2.31154 -25
      vertex 2.18691 2.05364 -25
      vertex 2.18691 -2.05364 -25
    endloop
  endfacet
  facet normal 0 0 -1
    outer loop
      vertex 1.91227 -2.31154 -25
      vertex 1.91227 2.31154 -25
      vertex 2.18691 2.05364 -25
    endloop
  endfacet
  facet normal 0 0 -1
    outer loop
      vertex 1.60748 -2.53298 -25
      vertex 1.91227 2.31154 -25
      vertex 1.91227 -2.31154 -25
    endloop
  endfacet
  facet normal 0 0 -1
    outer loop
      vertex 1.60748 -2.53298 -25
      vertex 1.60748 2.53298 -25
      vertex 1.91227 2.31154 -25
    endloop
  endfacet
  facet normal 0 0 -1
    outer loop
      vertex 1.27734 -2.71448 -25
      vertex 1.60748 2.53298 -25
      vertex 1.60748 -2.53298 -25
    endloop
  endfacet
  facet normal 0 0 -1
    outer loop
      vertex 1.27734 -2.71448 -25
      vertex 1.27734 2.71448 -25
      vertex 1.60748 2.53298 -25
    endloop
  endfacet
  facet normal 0 0 -1
    outer loop
      vertex 0.927051 -2.85317 -25
      vertex 1.27734 2.71448 -25
      vertex 1.27734 -2.71448 -25
    endloop
  endfacet
  facet normal 0 0 -1
    outer loop
      vertex 0.927051 -2.85317 -25
      vertex 0.927051 2.85317 -25
      vertex 1.27734 2.71448 -25
    endloop
  endfacet
  facet normal 0 0 -1
    outer loop
      vertex 0.562143 -2.94686 -25
      vertex 0.927051 2.85317 -25
      vertex 0.927051 -2.85317 -25
    endloop
  endfacet
  facet normal 0 0 -1
    outer loop
      vertex 0.562143 -2.94686 -25
      vertex 0.562143 2.94686 -25
      vertex 0.927051 2.85317 -25
    endloop
  endfacet
  facet normal 0 0 -1
    outer loop
      vertex 0.188371 -2.99408 -25
      vertex 0.562143 2.94686 -25
      vertex 0.562143 -2.94686 -25
    endloop
  endfacet
  facet normal 0 0 -1
    outer loop
      vertex 0.188371 -2.99408 -25
      vertex 0.188371 2.99408 -25
      vertex 0.562143 2.94686 -25
    endloop
  endfacet
  facet normal 0 0 -1
    outer loop
      vertex -0.188371 -2.99408 -25
      vertex 0.188371 2.99408 -25
      vertex 0.188371 -2.99408 -25
    endloop
  endfacet
  facet normal 0 0 -1
    outer loop
      vertex -0.188371 -2.99408 -25
      vertex -0.188371 2.99408 -25
      vertex 0.188371 2.99408 -25
    endloop
  endfacet
  facet normal 0 0 -1
    outer loop
      vertex -0.562143 -2.94686 -25
      vertex -0.188371 2.99408 -25
      vertex -0.188371 -2.99408 -25
    endloop
  endfacet
  facet normal 0 0 -1
    outer loop
      vertex -0.562143 -2.94686 -25
      vertex -0.562143 2.94686 -25
      vertex -0.188371 2.99408 -25
    endloop
  endfacet
  facet normal 0 0 -1
    outer loop
      vertex -0.927051 -2.85317 -25
      vertex -0.562143 2.94686 -25
      vertex -0.562143 -2.94686 -25
    endloop
  endfacet
  facet normal 0 0 -1
    outer loop
      vertex -0.927051 -2.85317 -25
      vertex -0.927051 2.85317 -25
      vertex -0.562143 2.94686 -25
    endloop
  endfacet
  facet normal 0 0 -1
    outer loop
      vertex -1.27734 -2.71448 -25
      vertex -0.927051 2.85317 -25
      vertex -0.927051 -2.85317 -25
    endloop
  endfacet
  facet normal 0 0 -1
    outer loop
      vertex -1.27734 -2.71448 -25
      vertex -1.27734 2.71448 -25
      vertex -0.927051 2.85317 -25
    endloop
  endfacet
  facet normal 0 0 -1
    outer loop
      vertex -1.60748 -2.53298 -25
      vertex -1.27734 2.71448 -25
      vertex -1.27734 -2.71448 -25
    endloop
  endfacet
  facet normal 0 0 -1
    outer loop
      vertex -1.60748 -2.53298 -25
      vertex -1.60748 2.53298 -25
      vertex -1.27734 2.71448 -25
    endloop
  endfacet
  facet normal 0 0 -1
    outer loop
      vertex -1.91227 -2.31154 -25
      vertex -1.60748 2.53298 -25
      vertex -1.60748 -2.53298 -25
    endloop
  endfacet
  facet normal 0 0 -1
    outer loop
      vertex -1.91227 -2.31154 -25
      vertex -1.91227 2.31154 -25
      vertex -1.60748 2.53298 -25
    endloop
  endfacet
  facet normal 0 0 -1
    outer loop
      vertex -2.18691 -2.05364 -25
      vertex -1.91227 2.31154 -25
      vertex -1.91227 -2.31154 -25
    endloop
  endfacet
  facet normal 0 0 -1
    outer loop
      vertex -2.18691 -2.05364 -25
      vertex -2.18691 2.05364 -25
      vertex -1.91227 2.31154 -25
    endloop
  endfacet
  facet normal 0 0 -1
    outer loop
      vertex -2.42705 -1.76336 -25
      vertex -2.18691 2.05364 -25
      vertex -2.18691 -2.05364 -25
    endloop
  endfacet
  facet normal 0 0 -1
    outer loop
      vertex -2.42705 -1.76336 -25
      vertex -2.42705 1.76336 -25
      vertex -2.18691 2.05364 -25
    endloop
  endfacet
  facet normal 0 0 -1
    outer loop
      vertex -2.62892 -1.44526 -25
      vertex -2.42705 1.76336 -25
      vertex -2.42705 -1.76336 -25
    endloop
  endfacet
  facet normal 0 0 -1
    outer loop
      vertex -2.62892 -1.44526 -25
      vertex -2.62892 1.44526 -25
      vertex -2.42705 1.76336 -25
    endloop
  endfacet
  facet normal 0 0 -1
    outer loop
      vertex -2.78933 -1.10437 -25
      vertex -2.62892 1.44526 -25
      vertex -2.62892 -1.44526 -25
    endloop
  endfacet
  facet normal 0 0 -1
    outer loop
      vertex -2.78933 -1.10437 -25
      vertex -2.78933 1.10437 -25
      vertex -2.62892 1.44526 -25
    endloop
  endfacet
  facet normal 0 0 -1
    outer loop
      vertex -2.90575 -0.746069 -25
      vertex -2.78933 1.10437 -25
      vertex -2.78933 -1.10437 -25
    endloop
  endfacet
  facet normal 0 0 -1
    outer loop
      vertex -2.90575 -0.746069 -25
      vertex -2.90575 0.746069 -25
      vertex -2.78933 1.10437 -25
    endloop
  endfacet
  facet normal 0 0 -1
    outer loop
      vertex -2.97634 -0.375999 -25
      vertex -2.90575 0.746069 -25
      vertex -2.90575 -0.746069 -25
    endloop
  endfacet
  facet normal 0 0 -1
    outer loop
      vertex -2.97634 -0.375999 -25
      vertex -2.97634 0.375999 -25
      vertex -2.90575 0.746069 -25
    endloop
  endfacet
  facet normal 0 -0 -1
    outer loop
      vertex -2.97634 0.375999 -25
      vertex -2.97634 -0.375999 -25
      vertex -3 0 -25
    endloop
  endfacet
  facet normal -0.844331 -0.535822 2.7339e-19
    outer loop
      vertex -2.42705 -1.76336 -25
      vertex -2.62892 -1.44526 0
      vertex -2.62892 -1.44526 -25
    endloop
  endfacet
  facet normal -0.844331 -0.535822 2.7339e-19
    outer loop
      vertex -2.62892 -1.44526 0
      vertex -2.42705 -1.76336 -25
      vertex -2.42705 -1.76336 0
    endloop
  endfacet
  facet normal 0.125337 -0.992114 0
    outer loop
      vertex 0.188371 -2.99408 -25
      vertex 0.562143 -2.94686 0
      vertex 0.188371 -2.99408 0
    endloop
  endfacet
  facet normal 0.125337 -0.992114 0
    outer loop
      vertex 0.562143 -2.94686 0
      vertex 0.188371 -2.99408 -25
      vertex 0.562143 -2.94686 -25
    endloop
  endfacet
  facet normal 0.368126 -0.929776 0
    outer loop
      vertex 0.927051 -2.85317 -25
      vertex 1.27734 -2.71448 0
      vertex 0.927051 -2.85317 0
    endloop
  endfacet
  facet normal 0.368126 -0.929776 0
    outer loop
      vertex 1.27734 -2.71448 0
      vertex 0.927051 -2.85317 -25
      vertex 1.27734 -2.71448 -25
    endloop
  endfacet
  facet normal 0.904828 0.425778 -3.10084e-19
    outer loop
      vertex 2.78933 1.10437 0
      vertex 2.62892 1.44526 -25
      vertex 2.62892 1.44526 0
    endloop
  endfacet
  facet normal 0.904828 0.425778 -3.10084e-19
    outer loop
      vertex 2.62892 1.44526 -25
      vertex 2.78933 1.10437 0
      vertex 2.78933 1.10437 -25
    endloop
  endfacet
  facet normal 0.951056 0.309019 -7.98604e-20
    outer loop
      vertex 2.90575 0.746069 0
      vertex 2.78933 1.10437 -25
      vertex 2.78933 1.10437 0
    endloop
  endfacet
  facet normal 0.951056 0.309019 -7.98604e-20
    outer loop
      vertex 2.78933 1.10437 -25
      vertex 2.90575 0.746069 0
      vertex 2.90575 0.746069 -25
    endloop
  endfacet
  facet normal 0.98229 0.187369 -1.28423e-19
    outer loop
      vertex 2.97634 0.375999 0
      vertex 2.90575 0.746069 -25
      vertex 2.90575 0.746069 0
    endloop
  endfacet
  facet normal 0.98229 0.187369 -1.28423e-19
    outer loop
      vertex 2.90575 0.746069 -25
      vertex 2.97634 0.375999 0
      vertex 2.97634 0.375999 -25
    endloop
  endfacet
  facet normal 0.904828 -0.425778 3.10084e-19
    outer loop
      vertex 2.62892 -1.44526 0
      vertex 2.78933 -1.10437 -25
      vertex 2.78933 -1.10437 0
    endloop
  endfacet
  facet normal 0.904828 -0.425778 3.10084e-19
    outer loop
      vertex 2.78933 -1.10437 -25
      vertex 2.62892 -1.44526 0
      vertex 2.62892 -1.44526 -25
    endloop
  endfacet
  facet normal 0.951056 -0.309019 7.98604e-20
    outer loop
      vertex 2.78933 -1.10437 0
      vertex 2.90575 -0.746069 -25
      vertex 2.90575 -0.746069 0
    endloop
  endfacet
  facet normal 0.951056 -0.309019 7.98604e-20
    outer loop
      vertex 2.90575 -0.746069 -25
      vertex 2.78933 -1.10437 0
      vertex 2.78933 -1.10437 -25
    endloop
  endfacet
  facet normal 0.684541 -0.728974 0
    outer loop
      vertex 1.91227 -2.31154 -25
      vertex 2.18691 -2.05364 0
      vertex 1.91227 -2.31154 0
    endloop
  endfacet
  facet normal 0.684541 -0.728974 0
    outer loop
      vertex 2.18691 -2.05364 0
      vertex 1.91227 -2.31154 -25
      vertex 2.18691 -2.05364 -25
    endloop
  endfacet
  facet normal 0.770514 -0.637423 5.0363e-19
    outer loop
      vertex 2.18691 -2.05364 0
      vertex 2.42705 -1.76336 -25
      vertex 2.42705 -1.76336 0
    endloop
  endfacet
  facet normal 0.770514 -0.637423 5.0363e-19
    outer loop
      vertex 2.42705 -1.76336 -25
      vertex 2.18691 -2.05364 0
      vertex 2.18691 -2.05364 -25
    endloop
  endfacet
  facet normal 0.844331 -0.535822 -2.7339e-19
    outer loop
      vertex 2.42705 -1.76336 0
      vertex 2.62892 -1.44526 -25
      vertex 2.62892 -1.44526 0
    endloop
  endfacet
  facet normal 0.844331 -0.535822 -2.7339e-19
    outer loop
      vertex 2.62892 -1.44526 -25
      vertex 2.42705 -1.76336 0
      vertex 2.42705 -1.76336 -25
    endloop
  endfacet
  facet normal -0.368126 -0.929776 0
    outer loop
      vertex -1.27734 -2.71448 -25
      vertex -0.927051 -2.85317 0
      vertex -1.27734 -2.71448 0
    endloop
  endfacet
  facet normal -0.368126 -0.929776 -0
    outer loop
      vertex -0.927051 -2.85317 0
      vertex -1.27734 -2.71448 -25
      vertex -0.927051 -2.85317 -25
    endloop
  endfacet
  facet normal -0.904828 -0.425778 -3.10084e-19
    outer loop
      vertex -2.62892 -1.44526 -25
      vertex -2.78933 -1.10437 0
      vertex -2.78933 -1.10437 -25
    endloop
  endfacet
  facet normal -0.904828 -0.425778 -3.10084e-19
    outer loop
      vertex -2.78933 -1.10437 0
      vertex -2.62892 -1.44526 -25
      vertex -2.62892 -1.44526 0
    endloop
  endfacet
  facet normal -0.684541 -0.728974 0
    outer loop
      vertex -2.18691 -2.05364 -25
      vertex -1.91227 -2.31154 0
      vertex -2.18691 -2.05364 0
    endloop
  endfacet
  facet normal -0.684541 -0.728974 -0
    outer loop
      vertex -1.91227 -2.31154 0
      vertex -2.18691 -2.05364 -25
      vertex -1.91227 -2.31154 -25
    endloop
  endfacet
  facet normal 0.248684 -0.968585 0
    outer loop
      vertex 0.562143 -2.94686 -25
      vertex 0.927051 -2.85317 0
      vertex 0.562143 -2.94686 0
    endloop
  endfacet
  facet normal 0.248684 -0.968585 0
    outer loop
      vertex 0.927051 -2.85317 0
      vertex 0.562143 -2.94686 -25
      vertex 0.927051 -2.85317 -25
    endloop
  endfacet
  facet normal 0.58778 -0.809021 0
    outer loop
      vertex 1.60748 -2.53298 -25
      vertex 1.91227 -2.31154 0
      vertex 1.60748 -2.53298 0
    endloop
  endfacet
  facet normal 0.58778 -0.809021 0
    outer loop
      vertex 1.91227 -2.31154 0
      vertex 1.60748 -2.53298 -25
      vertex 1.91227 -2.31154 -25
    endloop
  endfacet
  facet normal -0.58778 -0.809021 0
    outer loop
      vertex -1.91227 -2.31154 -25
      vertex -1.60748 -2.53298 0
      vertex -1.91227 -2.31154 0
    endloop
  endfacet
  facet normal -0.58778 -0.809021 -0
    outer loop
      vertex -1.60748 -2.53298 0
      vertex -1.91227 -2.31154 -25
      vertex -1.60748 -2.53298 -25
    endloop
  endfacet
  facet normal -0.248684 -0.968585 0
    outer loop
      vertex -0.927051 -2.85317 -25
      vertex -0.562143 -2.94686 0
      vertex -0.927051 -2.85317 0
    endloop
  endfacet
  facet normal -0.248684 -0.968585 -0
    outer loop
      vertex -0.562143 -2.94686 0
      vertex -0.927051 -2.85317 -25
      vertex -0.562143 -2.94686 -25
    endloop
  endfacet
  facet normal -0.125337 -0.992114 0
    outer loop
      vertex -0.562143 -2.94686 -25
      vertex -0.188371 -2.99408 0
      vertex -0.562143 -2.94686 0
    endloop
  endfacet
  facet normal -0.125337 -0.992114 -0
    outer loop
      vertex -0.188371 -2.99408 0
      vertex -0.562143 -2.94686 -25
      vertex -0.188371 -2.99408 -25
    endloop
  endfacet
  facet normal -0.998026 -0.0628015 -2.09542e-20
    outer loop
      vertex -2.97634 -0.375999 -25
      vertex -3 0 0
      vertex -3 0 -25
    endloop
  endfacet
  facet normal -0.998026 -0.0628015 -2.09542e-20
    outer loop
      vertex -3 0 0
      vertex -2.97634 -0.375999 -25
      vertex -2.97634 -0.375999 0
    endloop
  endfacet
  facet normal -0.481762 -0.876302 0
    outer loop
      vertex -1.60748 -2.53298 -25
      vertex -1.27734 -2.71448 0
      vertex -1.60748 -2.53298 0
    endloop
  endfacet
  facet normal -0.481762 -0.876302 -0
    outer loop
      vertex -1.27734 -2.71448 0
      vertex -1.60748 -2.53298 -25
      vertex -1.27734 -2.71448 -25
    endloop
  endfacet
  facet normal -0.951056 -0.309019 -7.98604e-20
    outer loop
      vertex -2.78933 -1.10437 -25
      vertex -2.90575 -0.746069 0
      vertex -2.90575 -0.746069 -25
    endloop
  endfacet
  facet normal -0.951056 -0.309019 -7.98604e-20
    outer loop
      vertex -2.90575 -0.746069 0
      vertex -2.78933 -1.10437 -25
      vertex -2.78933 -1.10437 0
    endloop
  endfacet
  facet normal -0.98229 -0.187369 -1.28423e-19
    outer loop
      vertex -2.90575 -0.746069 -25
      vertex -2.97634 -0.375999 0
      vertex -2.97634 -0.375999 -25
    endloop
  endfacet
  facet normal -0.98229 -0.187369 -1.28423e-19
    outer loop
      vertex -2.97634 -0.375999 0
      vertex -2.90575 -0.746069 -25
      vertex -2.90575 -0.746069 0
    endloop
  endfacet
  facet normal -0.770514 -0.637423 -5.0363e-19
    outer loop
      vertex -2.18691 -2.05364 -25
      vertex -2.42705 -1.76336 0
      vertex -2.42705 -1.76336 -25
    endloop
  endfacet
  facet normal -0.770514 -0.637423 -5.0363e-19
    outer loop
      vertex -2.42705 -1.76336 0
      vertex -2.18691 -2.05364 -25
      vertex -2.18691 -2.05364 0
    endloop
  endfacet
endsolid OpenSCAD_Model
