<?xml version="1.0" standalone="no"?>
<!DOCTYPE svg PUBLIC "-//W3C//DTD SVG 1.1//EN" "http://www.w3.org/Graphics/SVG/1.1/DTD/svg11.dtd">
<svg width="210mm" height="627mm" viewBox="-105 -1029 210 627" xmlns="http://www.w3.org/2000/svg" version="1.1">
<title>OpenSCAD Model</title>
<path d="
M 100.937,-879.089 L 101.545,-879.245 L 102.129,-879.476 L 102.679,-879.778 L 103.187,-880.147 L 103.645,-880.577
 L 104.045,-881.061 L 104.382,-881.591 L 104.649,-882.159 L 104.843,-882.757 L 104.961,-883.373 L 105,-884
 L 105,-1024 L 104.961,-1024.63 L 104.843,-1025.24 L 104.649,-1025.84 L 104.382,-1026.41 L 104.045,-1026.94
 L 103.645,-1027.42 L 103.187,-1027.85 L 102.679,-1028.22 L 102.129,-1028.52 L 101.545,-1028.76 L 100.937,-1028.91
 L 100.314,-1028.99 L -100.314,-1028.99 L -100.937,-1028.91 L -101.545,-1028.76 L -102.129,-1028.52 L -102.679,-1028.22
 L -103.187,-1027.85 L -103.645,-1027.42 L -104.045,-1026.94 L -104.382,-1026.41 L -104.649,-1025.84 L -104.843,-1025.24
 L -104.961,-1024.63 L -105,-1024 L -105,-884 L -104.961,-883.373 L -104.843,-882.757 L -104.649,-882.159
 L -104.382,-881.591 L -104.045,-881.061 L -103.645,-880.577 L -103.187,-880.147 L -102.679,-879.778 L -102.129,-879.476
 L -101.545,-879.245 L -100.937,-879.089 L -100.314,-879.01 L 100.314,-879.01 z
M -100.048,-879.509 L -100.64,-879.584 L -101.218,-879.732 L -101.772,-879.952 L -102.295,-880.239 L -102.778,-880.59
 L -103.213,-880.998 L -103.593,-881.458 L -103.912,-881.962 L -104.166,-882.501 L -104.351,-883.069 L -104.463,-883.655
 L -104.5,-884.25 L -104.5,-1023.75 L -104.463,-1024.35 L -104.351,-1024.93 L -104.166,-1025.5 L -103.912,-1026.04
 L -103.593,-1026.54 L -103.213,-1027 L -102.778,-1027.41 L -102.295,-1027.76 L -101.772,-1028.05 L -101.218,-1028.27
 L -100.64,-1028.42 L -100.048,-1028.49 L 100.048,-1028.49 L 100.64,-1028.42 L 101.218,-1028.27 L 101.772,-1028.05
 L 102.295,-1027.76 L 102.778,-1027.41 L 103.213,-1027 L 103.593,-1026.54 L 103.912,-1026.04 L 104.166,-1025.5
 L 104.351,-1024.93 L 104.463,-1024.35 L 104.5,-1023.75 L 104.5,-884.25 L 104.463,-883.655 L 104.351,-883.069
 L 104.166,-882.501 L 103.912,-881.962 L 103.593,-881.458 L 103.213,-880.998 L 102.778,-880.59 L 102.295,-880.239
 L 101.772,-879.952 L 101.218,-879.732 L 100.64,-879.584 L 100.048,-879.509 z
M 100.937,-720.089 L 101.545,-720.245 L 102.129,-720.476 L 102.679,-720.778 L 103.187,-721.147 L 103.645,-721.577
 L 104.045,-722.061 L 104.382,-722.591 L 104.649,-723.159 L 104.843,-723.757 L 104.961,-724.373 L 105,-725
 L 105,-865 L 104.961,-865.627 L 104.843,-866.243 L 104.649,-866.841 L 104.382,-867.409 L 104.045,-867.939
 L 103.645,-868.423 L 103.187,-868.853 L 102.679,-869.222 L 102.129,-869.524 L 101.545,-869.755 L 100.937,-869.911
 L 100.314,-869.99 L -100.314,-869.99 L -100.937,-869.911 L -101.545,-869.755 L -102.129,-869.524 L -102.679,-869.222
 L -103.187,-868.853 L -103.645,-868.423 L -104.045,-867.939 L -104.382,-867.409 L -104.649,-866.841 L -104.843,-866.243
 L -104.961,-865.627 L -105,-865 L -105,-725 L -104.961,-724.373 L -104.843,-723.757 L -104.649,-723.159
 L -104.382,-722.591 L -104.045,-722.061 L -103.645,-721.577 L -103.187,-721.147 L -102.679,-720.778 L -102.129,-720.476
 L -101.545,-720.245 L -100.937,-720.089 L -100.314,-720.01 L 100.314,-720.01 z
M -100.048,-720.509 L -100.64,-720.584 L -101.218,-720.732 L -101.772,-720.952 L -102.295,-721.239 L -102.778,-721.59
 L -103.213,-721.998 L -103.593,-722.458 L -103.912,-722.962 L -104.166,-723.501 L -104.351,-724.069 L -104.463,-724.655
 L -104.5,-725.25 L -104.5,-864.75 L -104.463,-865.345 L -104.351,-865.931 L -104.166,-866.499 L -103.912,-867.038
 L -103.593,-867.542 L -103.213,-868.002 L -102.778,-868.41 L -102.295,-868.761 L -101.772,-869.048 L -101.218,-869.268
 L -100.64,-869.416 L -100.048,-869.491 L 100.048,-869.491 L 100.64,-869.416 L 101.218,-869.268 L 101.772,-869.048
 L 102.295,-868.761 L 102.778,-868.41 L 103.213,-868.002 L 103.593,-867.542 L 103.912,-867.038 L 104.166,-866.499
 L 104.351,-865.931 L 104.463,-865.345 L 104.5,-864.75 L 104.5,-725.25 L 104.463,-724.655 L 104.351,-724.069
 L 104.166,-723.501 L 103.912,-722.962 L 103.593,-722.458 L 103.213,-721.998 L 102.778,-721.59 L 102.295,-721.239
 L 101.772,-720.952 L 101.218,-720.732 L 100.64,-720.584 L 100.048,-720.509 z
M 100.937,-561.089 L 101.545,-561.245 L 102.129,-561.476 L 102.679,-561.778 L 103.187,-562.147 L 103.645,-562.577
 L 104.045,-563.061 L 104.382,-563.591 L 104.649,-564.159 L 104.843,-564.757 L 104.961,-565.373 L 105,-566
 L 105,-706 L 104.961,-706.627 L 104.843,-707.243 L 104.649,-707.841 L 104.382,-708.409 L 104.045,-708.939
 L 103.645,-709.423 L 103.187,-709.853 L 102.679,-710.222 L 102.129,-710.524 L 101.545,-710.755 L 100.937,-710.911
 L 100.314,-710.99 L -100.314,-710.99 L -100.937,-710.911 L -101.545,-710.755 L -102.129,-710.524 L -102.679,-710.222
 L -103.187,-709.853 L -103.645,-709.423 L -104.045,-708.939 L -104.382,-708.409 L -104.649,-707.841 L -104.843,-707.243
 L -104.961,-706.627 L -105,-706 L -105,-566 L -104.961,-565.373 L -104.843,-564.757 L -104.649,-564.159
 L -104.382,-563.591 L -104.045,-563.061 L -103.645,-562.577 L -103.187,-562.147 L -102.679,-561.778 L -102.129,-561.476
 L -101.545,-561.245 L -100.937,-561.089 L -100.314,-561.01 L 100.314,-561.01 z
M -99.993,-562.388 L -100.475,-562.449 L -100.946,-562.57 L -101.398,-562.749 L -101.823,-562.983 L -102.216,-563.269
 L -102.571,-563.601 L -102.88,-563.976 L -103.141,-564.386 L -103.348,-564.826 L -103.498,-565.288 L -103.589,-565.765
 L -103.619,-566.25 L -103.619,-705.75 L -103.589,-706.235 L -103.498,-706.712 L -103.348,-707.174 L -103.141,-707.614
 L -102.88,-708.024 L -102.571,-708.399 L -102.216,-708.731 L -101.823,-709.017 L -101.398,-709.251 L -100.946,-709.43
 L -100.475,-709.551 L -99.993,-709.612 L 99.993,-709.612 L 100.475,-709.551 L 100.946,-709.43 L 101.398,-709.251
 L 101.823,-709.017 L 102.216,-708.731 L 102.571,-708.399 L 102.88,-708.024 L 103.141,-707.614 L 103.348,-707.174
 L 103.498,-706.712 L 103.589,-706.235 L 103.619,-705.75 L 103.619,-566.25 L 103.589,-565.765 L 103.498,-565.288
 L 103.348,-564.826 L 103.141,-564.386 L 102.88,-563.976 L 102.571,-563.601 L 102.216,-563.269 L 101.823,-562.983
 L 101.398,-562.749 L 100.946,-562.57 L 100.475,-562.449 L 99.993,-562.388 z
M 100.937,-402.089 L 101.545,-402.245 L 102.129,-402.476 L 102.679,-402.778 L 103.187,-403.147 L 103.645,-403.577
 L 104.045,-404.061 L 104.382,-404.591 L 104.649,-405.159 L 104.843,-405.757 L 104.961,-406.373 L 105,-407
 L 105,-547 L 104.961,-547.627 L 104.843,-548.243 L 104.649,-548.841 L 104.382,-549.409 L 104.045,-549.939
 L 103.645,-550.423 L 103.187,-550.853 L 102.679,-551.222 L 102.129,-551.524 L 101.545,-551.755 L 100.937,-551.911
 L 100.314,-551.99 L -100.314,-551.99 L -100.937,-551.911 L -101.545,-551.755 L -102.129,-551.524 L -102.679,-551.222
 L -103.187,-550.853 L -103.645,-550.423 L -104.045,-549.939 L -104.382,-549.409 L -104.649,-548.841 L -104.843,-548.243
 L -104.961,-547.627 L -105,-547 L -105,-407 L -104.961,-406.373 L -104.843,-405.757 L -104.649,-405.159
 L -104.382,-404.591 L -104.045,-404.061 L -103.645,-403.577 L -103.187,-403.147 L -102.679,-402.778 L -102.129,-402.476
 L -101.545,-402.245 L -100.937,-402.089 L -100.314,-402.01 L 100.314,-402.01 z
M 97.387,-542.704 L 97.1627,-542.732 L 96.9438,-542.788 L 96.7336,-542.871 L 96.5355,-542.98 L 96.3526,-543.113
 L 96.1879,-543.268 L 96.0438,-543.442 L 95.9226,-543.633 L 95.8264,-543.837 L 95.7565,-544.052 L 95.7142,-544.274
 L 95.7,-544.5 L 95.7142,-544.726 L 95.7565,-544.948 L 95.8264,-545.163 L 95.9226,-545.367 L 96.0438,-545.558
 L 96.1879,-545.732 L 96.3526,-545.887 L 96.5355,-546.02 L 96.7336,-546.129 L 96.9438,-546.212 L 97.1627,-546.268
 L 97.387,-546.296 L 97.613,-546.296 L 97.8373,-546.268 L 98.0562,-546.212 L 98.2664,-546.129 L 98.4645,-546.02
 L 98.6474,-545.887 L 98.8121,-545.732 L 98.9562,-545.558 L 99.0773,-545.367 L 99.1736,-545.163 L 99.2434,-544.948
 L 99.2858,-544.726 L 99.3,-544.5 L 99.2858,-544.274 L 99.2434,-544.052 L 99.1736,-543.837 L 99.0773,-543.633
 L 98.9562,-543.442 L 98.8121,-543.268 L 98.6474,-543.113 L 98.4645,-542.98 L 98.2664,-542.871 L 98.0562,-542.788
 L 97.8373,-542.732 L 97.613,-542.704 z
M -97.613,-542.704 L -97.8373,-542.732 L -98.0562,-542.788 L -98.2664,-542.871 L -98.4645,-542.98 L -98.6474,-543.113
 L -98.8121,-543.268 L -98.9562,-543.442 L -99.0773,-543.633 L -99.1736,-543.837 L -99.2434,-544.052 L -99.2858,-544.274
 L -99.3,-544.5 L -99.2858,-544.726 L -99.2434,-544.948 L -99.1736,-545.163 L -99.0773,-545.367 L -98.9562,-545.558
 L -98.8121,-545.732 L -98.6474,-545.887 L -98.4645,-546.02 L -98.2664,-546.129 L -98.0562,-546.212 L -97.8373,-546.268
 L -97.613,-546.296 L -97.387,-546.296 L -97.1627,-546.268 L -96.9438,-546.212 L -96.7336,-546.129 L -96.5355,-546.02
 L -96.3526,-545.887 L -96.1879,-545.732 L -96.0438,-545.558 L -95.9226,-545.367 L -95.8264,-545.163 L -95.7565,-544.948
 L -95.7142,-544.726 L -95.7,-544.5 L -95.7142,-544.274 L -95.7565,-544.052 L -95.8264,-543.837 L -95.9226,-543.633
 L -96.0438,-543.442 L -96.1879,-543.268 L -96.3526,-543.113 L -96.5355,-542.98 L -96.7336,-542.871 L -96.9438,-542.788
 L -97.1627,-542.732 L -97.387,-542.704 z
M -97.613,-407.704 L -97.8373,-407.732 L -98.0562,-407.788 L -98.2664,-407.871 L -98.4645,-407.98 L -98.6474,-408.113
 L -98.8121,-408.268 L -98.9562,-408.442 L -99.0773,-408.633 L -99.1736,-408.837 L -99.2434,-409.052 L -99.2858,-409.274
 L -99.3,-409.5 L -99.2858,-409.726 L -99.2434,-409.948 L -99.1736,-410.163 L -99.0773,-410.367 L -98.9562,-410.558
 L -98.8121,-410.732 L -98.6474,-410.887 L -98.4645,-411.02 L -98.2664,-411.129 L -98.0562,-411.212 L -97.8373,-411.268
 L -97.613,-411.296 L -97.387,-411.296 L -97.1627,-411.268 L -96.9438,-411.212 L -96.7336,-411.129 L -96.5355,-411.02
 L -96.3526,-410.887 L -96.1879,-410.732 L -96.0438,-410.558 L -95.9226,-410.367 L -95.8264,-410.163 L -95.7565,-409.948
 L -95.7142,-409.726 L -95.7,-409.5 L -95.7142,-409.274 L -95.7565,-409.052 L -95.8264,-408.837 L -95.9226,-408.633
 L -96.0438,-408.442 L -96.1879,-408.268 L -96.3526,-408.113 L -96.5355,-407.98 L -96.7336,-407.871 L -96.9438,-407.788
 L -97.1627,-407.732 L -97.387,-407.704 z
M 97.387,-407.704 L 97.1627,-407.732 L 96.9438,-407.788 L 96.7336,-407.871 L 96.5355,-407.98 L 96.3526,-408.113
 L 96.1879,-408.268 L 96.0438,-408.442 L 95.9226,-408.633 L 95.8264,-408.837 L 95.7565,-409.052 L 95.7142,-409.274
 L 95.7,-409.5 L 95.7142,-409.726 L 95.7565,-409.948 L 95.8264,-410.163 L 95.9226,-410.367 L 96.0438,-410.558
 L 96.1879,-410.732 L 96.3526,-410.887 L 96.5355,-411.02 L 96.7336,-411.129 L 96.9438,-411.212 L 97.1627,-411.268
 L 97.387,-411.296 L 97.613,-411.296 L 97.8373,-411.268 L 98.0562,-411.212 L 98.2664,-411.129 L 98.4645,-411.02
 L 98.6474,-410.887 L 98.8121,-410.732 L 98.9562,-410.558 L 99.0773,-410.367 L 99.1736,-410.163 L 99.2434,-409.948
 L 99.2858,-409.726 L 99.3,-409.5 L 99.2858,-409.274 L 99.2434,-409.052 L 99.1736,-408.837 L 99.0773,-408.633
 L 98.9562,-408.442 L 98.8121,-408.268 L 98.6474,-408.113 L 98.4645,-407.98 L 98.2664,-407.871 L 98.0562,-407.788
 L 97.8373,-407.732 L 97.613,-407.704 z
" stroke="black" fill="lightgray" stroke-width="0.5"/>
</svg>
