  0
SECTION
  2
BLOCKS
  0
ENDSEC
  0
SECTION
  2
ENTITIES
  0
LINE
  8
0
 10
0.879135
 20
-11.1706
 11
0.976593
 21
-11.1625
  0
LINE
  8
0
 10
0.976593
 20
-11.1625
 11
1.07396
 21
-11.1536
  0
LINE
  8
0
 10
1.07396
 20
-11.1536
 11
1.10609
 21
-11.1503
  0
LINE
  8
0
 10
1.10609
 20
-11.1503
 11
1.21014
 21
-11.0943
  0
LINE
  8
0
 10
1.21014
 20
-11.0943
 11
1.24944
 21
-10.9926
  0
LINE
  8
0
 10
1.24944
 20
-10.9926
 11
1.25269
 21
-10.8825
  0
LINE
  8
0
 10
1.25269
 20
-10.8825
 11
1.26949
 21
-10.7733
  0
LINE
  8
0
 10
1.26949
 20
-10.7733
 11
1.29945
 21
-10.6657
  0
LINE
  8
0
 10
1.29945
 20
-10.6657
 11
1.34222
 21
-10.5607
  0
LINE
  8
0
 10
1.34222
 20
-10.5607
 11
1.42958
 21
-10.4466
  0
LINE
  8
0
 10
1.42958
 20
-10.4466
 11
1.53999
 21
-10.3557
  0
LINE
  8
0
 10
1.53999
 20
-10.3557
 11
1.66783
 21
-10.2898
  0
LINE
  8
0
 10
1.66783
 20
-10.2898
 11
1.80743
 21
-10.2505
  0
LINE
  8
0
 10
1.80743
 20
-10.2505
 11
1.95204
 21
-10.2397
  0
LINE
  8
0
 10
1.95204
 20
-10.2397
 11
2.09474
 21
-10.2579
  0
LINE
  8
0
 10
2.09474
 20
-10.2579
 11
2.22958
 21
-10.3056
  0
LINE
  8
0
 10
2.22958
 20
-10.3056
 11
2.35068
 21
-10.3829
  0
LINE
  8
0
 10
2.35068
 20
-10.3829
 11
2.42662
 21
-10.467
  0
LINE
  8
0
 10
2.42662
 20
-10.467
 11
2.49158
 21
-10.5578
  0
LINE
  8
0
 10
2.49158
 20
-10.5578
 11
2.54482
 21
-10.6546
  0
LINE
  8
0
 10
2.54482
 20
-10.6546
 11
2.5856
 21
-10.757
  0
LINE
  8
0
 10
2.5856
 20
-10.757
 11
2.65717
 21
-10.8391
  0
LINE
  8
0
 10
2.65717
 20
-10.8391
 11
2.77423
 21
-10.8562
  0
LINE
  8
0
 10
2.77423
 20
-10.8562
 11
2.80554
 21
-10.8482
  0
LINE
  8
0
 10
2.80554
 20
-10.8482
 11
2.9001
 21
-10.8233
  0
LINE
  8
0
 10
2.9001
 20
-10.8233
 11
2.99445
 21
-10.7976
  0
LINE
  8
0
 10
2.99445
 20
-10.7976
 11
3.02553
 21
-10.7888
  0
LINE
  8
0
 10
3.02553
 20
-10.7888
 11
3.11826
 21
-10.7156
  0
LINE
  8
0
 10
3.11826
 20
-10.7156
 11
3.1393
 21
-10.6086
  0
LINE
  8
0
 10
3.1393
 20
-10.6086
 11
3.12338
 21
-10.4996
  0
LINE
  8
0
 10
3.12338
 20
-10.4996
 11
3.12096
 21
-10.3891
  0
LINE
  8
0
 10
3.12096
 20
-10.3891
 11
3.13179
 21
-10.278
  0
LINE
  8
0
 10
3.13179
 20
-10.278
 11
3.15569
 21
-10.1672
  0
LINE
  8
0
 10
3.15569
 20
-10.1672
 11
3.22191
 21
-10.0397
  0
LINE
  8
0
 10
3.22191
 20
-10.0397
 11
3.31485
 21
-9.93098
  0
LINE
  8
0
 10
3.31485
 20
-9.93098
 11
3.42931
 21
-9.84383
  0
LINE
  8
0
 10
3.42931
 20
-9.84383
 11
3.55995
 21
-9.78091
  0
LINE
  8
0
 10
3.55995
 20
-9.78091
 11
3.70049
 21
-9.74512
  0
LINE
  8
0
 10
3.70049
 20
-9.74512
 11
3.84418
 21
-9.73831
  0
LINE
  8
0
 10
3.84418
 20
-9.73831
 11
3.98526
 21
-9.76184
  0
LINE
  8
0
 10
3.98526
 20
-9.76184
 11
4.11794
 21
-9.81696
  0
LINE
  8
0
 10
4.11794
 20
-9.81696
 11
4.20734
 21
-9.88657
  0
LINE
  8
0
 10
4.20734
 20
-9.88657
 11
4.28706
 21
-9.96471
  0
LINE
  8
0
 10
4.28706
 20
-9.96471
 11
4.35631
 21
-10.0509
  0
LINE
  8
0
 10
4.35631
 20
-10.0509
 11
4.41426
 21
-10.1446
  0
LINE
  8
0
 10
4.41426
 20
-10.1446
 11
4.49899
 21
-10.213
  0
LINE
  8
0
 10
4.49899
 20
-10.213
 11
4.61723
 21
-10.2095
  0
LINE
  8
0
 10
4.61723
 20
-10.2095
 11
4.6467
 21
-10.1962
  0
LINE
  8
0
 10
4.6467
 20
-10.1962
 11
4.73549
 21
-10.1553
  0
LINE
  8
0
 10
4.73549
 20
-10.1553
 11
4.82393
 21
-10.1136
  0
LINE
  8
0
 10
4.82393
 20
-10.1136
 11
4.85303
 21
-10.0996
  0
LINE
  8
0
 10
4.85303
 20
-10.0996
 11
4.93163
 21
-10.0113
  0
LINE
  8
0
 10
4.93163
 20
-10.0113
 11
4.93378
 21
-9.90234
  0
LINE
  8
0
 10
4.93378
 20
-9.90234
 11
4.89917
 21
-9.79773
  0
LINE
  8
0
 10
4.89917
 20
-9.79773
 11
4.87759
 21
-9.68935
  0
LINE
  8
0
 10
4.87759
 20
-9.68935
 11
4.86897
 21
-9.57806
  0
LINE
  8
0
 10
4.86897
 20
-9.57806
 11
4.87326
 21
-9.46474
  0
LINE
  8
0
 10
4.87326
 20
-9.46474
 11
4.91634
 21
-9.32768
  0
LINE
  8
0
 10
4.91634
 20
-9.32768
 11
4.98898
 21
-9.20448
  0
LINE
  8
0
 10
4.98898
 20
-9.20448
 11
5.08656
 21
-9.09879
  0
LINE
  8
0
 10
5.08656
 20
-9.09879
 11
5.20432
 21
-9.01413
  0
LINE
  8
0
 10
5.20432
 20
-9.01413
 11
5.33649
 21
-8.95448
  0
LINE
  8
0
 10
5.33649
 20
-8.95448
 11
5.47682
 21
-8.92284
  0
LINE
  8
0
 10
5.47682
 20
-8.92284
 11
5.61984
 21
-8.92151
  0
LINE
  8
0
 10
5.61984
 20
-8.92151
 11
5.76007
 21
-8.95274
  0
LINE
  8
0
 10
5.76007
 20
-8.95274
 11
5.8602
 21
-9.00578
  0
LINE
  8
0
 10
5.8602
 20
-9.00578
 11
5.95229
 21
-9.06888
  0
LINE
  8
0
 10
5.95229
 20
-9.06888
 11
6.03545
 21
-9.14171
  0
LINE
  8
0
 10
6.03545
 20
-9.14171
 11
6.10878
 21
-9.22395
  0
LINE
  8
0
 10
6.10878
 20
-9.22395
 11
6.20412
 21
-9.27664
  0
LINE
  8
0
 10
6.20412
 20
-9.27664
 11
6.31996
 21
-9.25264
  0
LINE
  8
0
 10
6.31996
 20
-9.25264
 11
6.34666
 21
-9.23445
  0
LINE
  8
0
 10
6.34666
 20
-9.23445
 11
6.427
 21
-9.17873
  0
LINE
  8
0
 10
6.427
 20
-9.17873
 11
6.50687
 21
-9.12228
  0
LINE
  8
0
 10
6.50687
 20
-9.12228
 11
6.53308
 21
-9.10341
  0
LINE
  8
0
 10
6.53308
 20
-9.10341
 11
6.59515
 21
-9.00285
  0
LINE
  8
0
 10
6.59515
 20
-9.00285
 11
6.57834
 21
-8.89516
  0
LINE
  8
0
 10
6.57834
 20
-8.89516
 11
6.52611
 21
-8.79814
  0
LINE
  8
0
 10
6.52611
 20
-8.79814
 11
6.48604
 21
-8.69516
  0
LINE
  8
0
 10
6.48604
 20
-8.69516
 11
6.45822
 21
-8.58705
  0
LINE
  8
0
 10
6.45822
 20
-8.58705
 11
6.44276
 21
-8.47472
  0
LINE
  8
0
 10
6.44276
 20
-8.47472
 11
6.46138
 21
-8.33226
  0
LINE
  8
0
 10
6.46138
 20
-8.33226
 11
6.51154
 21
-8.19832
  0
LINE
  8
0
 10
6.51154
 20
-8.19832
 11
6.58928
 21
-8.07727
  0
LINE
  8
0
 10
6.58928
 20
-8.07727
 11
6.69054
 21
-7.97346
  0
LINE
  8
0
 10
6.69054
 20
-7.97346
 11
6.81035
 21
-7.89177
  0
LINE
  8
0
 10
6.81035
 20
-7.89177
 11
6.94305
 21
-7.83624
  0
LINE
  8
0
 10
6.94305
 20
-7.83624
 11
7.08366
 21
-7.81009
  0
LINE
  8
0
 10
7.08366
 20
-7.81009
 11
7.22719
 21
-7.8165
  0
LINE
  8
0
 10
7.22719
 20
-7.8165
 11
7.33501
 21
-7.85135
  0
LINE
  8
0
 10
7.33501
 20
-7.85135
 11
7.43666
 21
-7.89749
  0
LINE
  8
0
 10
7.43666
 20
-7.89749
 11
7.53119
 21
-7.95477
  0
LINE
  8
0
 10
7.53119
 20
-7.95477
 11
7.61771
 21
-8.02304
  0
LINE
  8
0
 10
7.61771
 20
-8.02304
 11
7.72073
 21
-8.05838
  0
LINE
  8
0
 10
7.72073
 20
-8.05838
 11
7.83064
 21
-8.01462
  0
LINE
  8
0
 10
7.83064
 20
-8.01462
 11
7.85379
 21
-7.99208
  0
LINE
  8
0
 10
7.85379
 20
-7.99208
 11
7.92323
 21
-7.92323
  0
LINE
  8
0
 10
7.92323
 20
-7.92323
 11
7.99208
 21
-7.85379
  0
LINE
  8
0
 10
7.99208
 20
-7.85379
 11
8.01462
 21
-7.83064
  0
LINE
  8
0
 10
8.01462
 20
-7.83064
 11
8.05829
 21
-7.72084
  0
LINE
  8
0
 10
8.05829
 20
-7.72084
 11
8.02304
 21
-7.61771
  0
LINE
  8
0
 10
8.02304
 20
-7.61771
 11
7.95474
 21
-7.53123
  0
LINE
  8
0
 10
7.95474
 20
-7.53123
 11
7.8974
 21
-7.43677
  0
LINE
  8
0
 10
7.8974
 20
-7.43677
 11
7.85123
 21
-7.33514
  0
LINE
  8
0
 10
7.85123
 20
-7.33514
 11
7.8165
 21
-7.22719
  0
LINE
  8
0
 10
7.8165
 20
-7.22719
 11
7.81009
 21
-7.08366
  0
LINE
  8
0
 10
7.81009
 20
-7.08366
 11
7.83624
 21
-6.94305
  0
LINE
  8
0
 10
7.83624
 20
-6.94305
 11
7.89177
 21
-6.81035
  0
LINE
  8
0
 10
7.89177
 20
-6.81035
 11
7.97346
 21
-6.69054
  0
LINE
  8
0
 10
7.97346
 20
-6.69054
 11
8.07727
 21
-6.58928
  0
LINE
  8
0
 10
8.07727
 20
-6.58928
 11
8.19832
 21
-6.51154
  0
LINE
  8
0
 10
8.19832
 20
-6.51154
 11
8.33226
 21
-6.46138
  0
LINE
  8
0
 10
8.33226
 20
-6.46138
 11
8.47472
 21
-6.44276
  0
LINE
  8
0
 10
8.47472
 20
-6.44276
 11
8.58694
 21
-6.45836
  0
LINE
  8
0
 10
8.58694
 20
-6.45836
 11
8.69507
 21
-6.48616
  0
LINE
  8
0
 10
8.69507
 20
-6.48616
 11
8.79811
 21
-6.52614
  0
LINE
  8
0
 10
8.79811
 20
-6.52614
 11
8.89516
 21
-6.57834
  0
LINE
  8
0
 10
8.89516
 20
-6.57834
 11
9.00276
 21
-6.59526
  0
LINE
  8
0
 10
9.00276
 20
-6.59526
 11
9.10341
 21
-6.53308
  0
LINE
  8
0
 10
9.10341
 20
-6.53308
 11
9.12228
 21
-6.50687
  0
LINE
  8
0
 10
9.12228
 20
-6.50687
 11
9.17873
 21
-6.427
  0
LINE
  8
0
 10
9.17873
 20
-6.427
 11
9.23445
 21
-6.34666
  0
LINE
  8
0
 10
9.23445
 20
-6.34666
 11
9.25264
 21
-6.31996
  0
LINE
  8
0
 10
9.25264
 20
-6.31996
 11
9.27658
 21
-6.20424
  0
LINE
  8
0
 10
9.27658
 20
-6.20424
 11
9.22395
 21
-6.10878
  0
LINE
  8
0
 10
9.22395
 20
-6.10878
 11
9.14168
 21
-6.03549
  0
LINE
  8
0
 10
9.14168
 20
-6.03549
 11
9.0688
 21
-5.95242
  0
LINE
  8
0
 10
9.0688
 20
-5.95242
 11
9.00569
 21
-5.86035
  0
LINE
  8
0
 10
9.00569
 20
-5.86035
 11
8.95274
 21
-5.76007
  0
LINE
  8
0
 10
8.95274
 20
-5.76007
 11
8.92151
 21
-5.61984
  0
LINE
  8
0
 10
8.92151
 20
-5.61984
 11
8.92284
 21
-5.47682
  0
LINE
  8
0
 10
8.92284
 20
-5.47682
 11
8.95448
 21
-5.33649
  0
LINE
  8
0
 10
8.95448
 20
-5.33649
 11
9.01413
 21
-5.20432
  0
LINE
  8
0
 10
9.01413
 20
-5.20432
 11
9.09879
 21
-5.08656
  0
LINE
  8
0
 10
9.09879
 20
-5.08656
 11
9.20448
 21
-4.98898
  0
LINE
  8
0
 10
9.20448
 20
-4.98898
 11
9.32768
 21
-4.91634
  0
LINE
  8
0
 10
9.32768
 20
-4.91634
 11
9.46474
 21
-4.87326
  0
LINE
  8
0
 10
9.46474
 20
-4.87326
 11
9.57797
 21
-4.86913
  0
LINE
  8
0
 10
9.57797
 20
-4.86913
 11
9.68927
 21
-4.87773
  0
LINE
  8
0
 10
9.68927
 20
-4.87773
 11
9.7977
 21
-4.89922
  0
LINE
  8
0
 10
9.7977
 20
-4.89922
 11
9.90234
 21
-4.93378
  0
LINE
  8
0
 10
9.90234
 20
-4.93378
 11
10.0112
 21
-4.93175
  0
LINE
  8
0
 10
10.0112
 20
-4.93175
 11
10.0996
 21
-4.85303
  0
LINE
  8
0
 10
10.0996
 20
-4.85303
 11
10.1136
 21
-4.82393
  0
LINE
  8
0
 10
10.1136
 20
-4.82393
 11
10.1553
 21
-4.73549
  0
LINE
  8
0
 10
10.1553
 20
-4.73549
 11
10.1962
 21
-4.6467
  0
LINE
  8
0
 10
10.1962
 20
-4.6467
 11
10.2095
 21
-4.61723
  0
LINE
  8
0
 10
10.2095
 20
-4.61723
 11
10.213
 21
-4.49911
  0
LINE
  8
0
 10
10.213
 20
-4.49911
 11
10.1446
 21
-4.41426
  0
LINE
  8
0
 10
10.1446
 20
-4.41426
 11
10.0508
 21
-4.35637
  0
LINE
  8
0
 10
10.0508
 20
-4.35637
 11
9.96466
 21
-4.28722
  0
LINE
  8
0
 10
9.96466
 20
-4.28722
 11
9.88652
 21
-4.20749
  0
LINE
  8
0
 10
9.88652
 20
-4.20749
 11
9.81696
 21
-4.11794
  0
LINE
  8
0
 10
9.81696
 20
-4.11794
 11
9.76184
 21
-3.98526
  0
LINE
  8
0
 10
9.76184
 20
-3.98526
 11
9.73831
 21
-3.84418
  0
LINE
  8
0
 10
9.73831
 20
-3.84418
 11
9.74512
 21
-3.70049
  0
LINE
  8
0
 10
9.74512
 20
-3.70049
 11
9.78091
 21
-3.55995
  0
LINE
  8
0
 10
9.78091
 20
-3.55995
 11
9.84383
 21
-3.42931
  0
LINE
  8
0
 10
9.84383
 20
-3.42931
 11
9.93098
 21
-3.31485
  0
LINE
  8
0
 10
9.93098
 20
-3.31485
 11
10.0397
 21
-3.22191
  0
LINE
  8
0
 10
10.0397
 20
-3.22191
 11
10.1672
 21
-3.15569
  0
LINE
  8
0
 10
10.1672
 20
-3.15569
 11
10.278
 21
-3.13196
  0
LINE
  8
0
 10
10.278
 20
-3.13196
 11
10.3891
 21
-3.12109
  0
LINE
  8
0
 10
10.3891
 20
-3.12109
 11
10.4996
 21
-3.12343
  0
LINE
  8
0
 10
10.4996
 20
-3.12343
 11
10.6086
 21
-3.1393
  0
LINE
  8
0
 10
10.6086
 20
-3.1393
 11
10.7155
 21
-3.11839
  0
LINE
  8
0
 10
10.7155
 20
-3.11839
 11
10.7888
 21
-3.02553
  0
LINE
  8
0
 10
10.7888
 20
-3.02553
 11
10.7976
 21
-2.99445
  0
LINE
  8
0
 10
10.7976
 20
-2.99445
 11
10.8233
 21
-2.9001
  0
LINE
  8
0
 10
10.8233
 20
-2.9001
 11
10.8482
 21
-2.80554
  0
LINE
  8
0
 10
10.8482
 20
-2.80554
 11
10.8562
 21
-2.77423
  0
LINE
  8
0
 10
10.8562
 20
-2.77423
 11
10.8391
 21
-2.6573
  0
LINE
  8
0
 10
10.8391
 20
-2.6573
 11
10.757
 21
-2.5856
  0
LINE
  8
0
 10
10.757
 20
-2.5856
 11
10.6546
 21
-2.54486
  0
LINE
  8
0
 10
10.6546
 20
-2.54486
 11
10.5577
 21
-2.49173
  0
LINE
  8
0
 10
10.5577
 20
-2.49173
 11
10.4669
 21
-2.42679
  0
LINE
  8
0
 10
10.4669
 20
-2.42679
 11
10.3829
 21
-2.35068
  0
LINE
  8
0
 10
10.3829
 20
-2.35068
 11
10.3056
 21
-2.22958
  0
LINE
  8
0
 10
10.3056
 20
-2.22958
 11
10.2579
 21
-2.09474
  0
LINE
  8
0
 10
10.2579
 20
-2.09474
 11
10.2397
 21
-1.95204
  0
LINE
  8
0
 10
10.2397
 20
-1.95204
 11
10.2505
 21
-1.80743
  0
LINE
  8
0
 10
10.2505
 20
-1.80743
 11
10.2898
 21
-1.66783
  0
LINE
  8
0
 10
10.2898
 20
-1.66783
 11
10.3557
 21
-1.53999
  0
LINE
  8
0
 10
10.3557
 20
-1.53999
 11
10.4466
 21
-1.42958
  0
LINE
  8
0
 10
10.4466
 20
-1.42958
 11
10.5607
 21
-1.34222
  0
LINE
  8
0
 10
10.5607
 20
-1.34222
 11
10.6657
 21
-1.29962
  0
LINE
  8
0
 10
10.6657
 20
-1.29962
 11
10.7732
 21
-1.26964
  0
LINE
  8
0
 10
10.7732
 20
-1.26964
 11
10.8825
 21
-1.25275
  0
LINE
  8
0
 10
10.8825
 20
-1.25275
 11
10.9926
 21
-1.24944
  0
LINE
  8
0
 10
10.9926
 20
-1.24944
 11
11.0943
 21
-1.21028
  0
LINE
  8
0
 10
11.0943
 20
-1.21028
 11
11.1503
 21
-1.10609
  0
LINE
  8
0
 10
11.1503
 20
-1.10609
 11
11.1536
 21
-1.07396
  0
LINE
  8
0
 10
11.1536
 20
-1.07396
 11
11.1625
 21
-0.976593
  0
LINE
  8
0
 10
11.1625
 20
-0.976593
 11
11.1706
 21
-0.879135
  0
LINE
  8
0
 10
11.1706
 20
-0.879135
 11
11.173
 21
-0.846924
  0
LINE
  8
0
 10
11.173
 20
-0.846924
 11
11.1359
 21
-0.734741
  0
LINE
  8
0
 10
11.1359
 20
-0.734741
 11
11.0426
 21
-0.678375
  0
LINE
  8
0
 10
11.0426
 20
-0.678375
 11
10.9347
 21
-0.656052
  0
LINE
  8
0
 10
10.9347
 20
-0.656052
 11
10.83
 21
-0.620544
  0
LINE
  8
0
 10
10.83
 20
-0.620544
 11
10.7293
 21
-0.572357
  0
LINE
  8
0
 10
10.7293
 20
-0.572357
 11
10.6333
 21
-0.511993
  0
LINE
  8
0
 10
10.6333
 20
-0.511993
 11
10.5362
 21
-0.406158
  0
LINE
  8
0
 10
10.5362
 20
-0.406158
 11
10.4658
 21
-0.281647
  0
LINE
  8
0
 10
10.4658
 20
-0.281647
 11
10.4231
 21
-0.144287
  0
LINE
  8
0
 10
10.4231
 20
-0.144287
 11
10.4086
 21
0
  0
LINE
  8
0
 10
10.4086
 20
0
 11
10.4231
 21
0.144287
  0
LINE
  8
0
 10
10.4231
 20
0.144287
 11
10.4658
 21
0.281647
  0
LINE
  8
0
 10
10.4658
 20
0.281647
 11
10.5362
 21
0.406158
  0
LINE
  8
0
 10
10.5362
 20
0.406158
 11
10.6333
 21
0.511993
  0
LINE
  8
0
 10
10.6333
 20
0.511993
 11
10.7293
 21
0.572189
  0
LINE
  8
0
 10
10.7293
 20
0.572189
 11
10.83
 21
0.620392
  0
LINE
  8
0
 10
10.83
 20
0.620392
 11
10.9347
 21
0.655991
  0
LINE
  8
0
 10
10.9347
 20
0.655991
 11
11.0426
 21
0.678375
  0
LINE
  8
0
 10
11.0426
 20
0.678375
 11
11.1359
 21
0.734589
  0
LINE
  8
0
 10
11.1359
 20
0.734589
 11
11.173
 21
0.846924
  0
LINE
  8
0
 10
11.173
 20
0.846924
 11
11.1706
 21
0.879135
  0
LINE
  8
0
 10
11.1706
 20
0.879135
 11
11.1625
 21
0.976593
  0
LINE
  8
0
 10
11.1625
 20
0.976593
 11
11.1536
 21
1.07396
  0
LINE
  8
0
 10
11.1536
 20
1.07396
 11
11.1503
 21
1.10609
  0
LINE
  8
0
 10
11.1503
 20
1.10609
 11
11.0943
 21
1.21014
  0
LINE
  8
0
 10
11.0943
 20
1.21014
 11
10.9926
 21
1.24944
  0
LINE
  8
0
 10
10.9926
 20
1.24944
 11
10.8825
 21
1.25269
  0
LINE
  8
0
 10
10.8825
 20
1.25269
 11
10.7733
 21
1.26949
  0
LINE
  8
0
 10
10.7733
 20
1.26949
 11
10.6657
 21
1.29945
  0
LINE
  8
0
 10
10.6657
 20
1.29945
 11
10.5607
 21
1.34222
  0
LINE
  8
0
 10
10.5607
 20
1.34222
 11
10.4466
 21
1.42958
  0
LINE
  8
0
 10
10.4466
 20
1.42958
 11
10.3557
 21
1.53999
  0
LINE
  8
0
 10
10.3557
 20
1.53999
 11
10.2898
 21
1.66783
  0
LINE
  8
0
 10
10.2898
 20
1.66783
 11
10.2505
 21
1.80743
  0
LINE
  8
0
 10
10.2505
 20
1.80743
 11
10.2397
 21
1.95204
  0
LINE
  8
0
 10
10.2397
 20
1.95204
 11
10.2579
 21
2.09474
  0
LINE
  8
0
 10
10.2579
 20
2.09474
 11
10.3056
 21
2.22958
  0
LINE
  8
0
 10
10.3056
 20
2.22958
 11
10.3829
 21
2.35068
  0
LINE
  8
0
 10
10.3829
 20
2.35068
 11
10.467
 21
2.42662
  0
LINE
  8
0
 10
10.467
 20
2.42662
 11
10.5578
 21
2.49158
  0
LINE
  8
0
 10
10.5578
 20
2.49158
 11
10.6546
 21
2.54482
  0
LINE
  8
0
 10
10.6546
 20
2.54482
 11
10.757
 21
2.5856
  0
LINE
  8
0
 10
10.757
 20
2.5856
 11
10.8391
 21
2.65717
  0
LINE
  8
0
 10
10.8391
 20
2.65717
 11
10.8562
 21
2.77423
  0
LINE
  8
0
 10
10.8562
 20
2.77423
 11
10.8482
 21
2.80554
  0
LINE
  8
0
 10
10.8482
 20
2.80554
 11
10.8233
 21
2.9001
  0
LINE
  8
0
 10
10.8233
 20
2.9001
 11
10.7976
 21
2.99445
  0
LINE
  8
0
 10
10.7976
 20
2.99445
 11
10.7888
 21
3.02553
  0
LINE
  8
0
 10
10.7888
 20
3.02553
 11
10.7156
 21
3.11826
  0
LINE
  8
0
 10
10.7156
 20
3.11826
 11
10.6086
 21
3.1393
  0
LINE
  8
0
 10
10.6086
 20
3.1393
 11
10.4996
 21
3.12338
  0
LINE
  8
0
 10
10.4996
 20
3.12338
 11
10.3891
 21
3.12096
  0
LINE
  8
0
 10
10.3891
 20
3.12096
 11
10.278
 21
3.13179
  0
LINE
  8
0
 10
10.278
 20
3.13179
 11
10.1672
 21
3.15569
  0
LINE
  8
0
 10
10.1672
 20
3.15569
 11
10.0397
 21
3.22191
  0
LINE
  8
0
 10
10.0397
 20
3.22191
 11
9.93098
 21
3.31485
  0
LINE
  8
0
 10
9.93098
 20
3.31485
 11
9.84383
 21
3.42931
  0
LINE
  8
0
 10
9.84383
 20
3.42931
 11
9.78091
 21
3.55995
  0
LINE
  8
0
 10
9.78091
 20
3.55995
 11
9.74512
 21
3.70049
  0
LINE
  8
0
 10
9.74512
 20
3.70049
 11
9.73831
 21
3.84418
  0
LINE
  8
0
 10
9.73831
 20
3.84418
 11
9.76184
 21
3.98526
  0
LINE
  8
0
 10
9.76184
 20
3.98526
 11
9.81696
 21
4.11794
  0
LINE
  8
0
 10
9.81696
 20
4.11794
 11
9.88657
 21
4.20734
  0
LINE
  8
0
 10
9.88657
 20
4.20734
 11
9.96471
 21
4.28706
  0
LINE
  8
0
 10
9.96471
 20
4.28706
 11
10.0509
 21
4.35631
  0
LINE
  8
0
 10
10.0509
 20
4.35631
 11
10.1446
 21
4.41426
  0
LINE
  8
0
 10
10.1446
 20
4.41426
 11
10.213
 21
4.49899
  0
LINE
  8
0
 10
10.213
 20
4.49899
 11
10.2095
 21
4.61723
  0
LINE
  8
0
 10
10.2095
 20
4.61723
 11
10.1962
 21
4.6467
  0
LINE
  8
0
 10
10.1962
 20
4.6467
 11
10.1553
 21
4.73549
  0
LINE
  8
0
 10
10.1553
 20
4.73549
 11
10.1136
 21
4.82393
  0
LINE
  8
0
 10
10.1136
 20
4.82393
 11
10.0996
 21
4.85303
  0
LINE
  8
0
 10
10.0996
 20
4.85303
 11
10.0113
 21
4.93163
  0
LINE
  8
0
 10
10.0113
 20
4.93163
 11
9.90234
 21
4.93378
  0
LINE
  8
0
 10
9.90234
 20
4.93378
 11
9.79773
 21
4.89917
  0
LINE
  8
0
 10
9.79773
 20
4.89917
 11
9.68935
 21
4.87759
  0
LINE
  8
0
 10
9.68935
 20
4.87759
 11
9.57806
 21
4.86897
  0
LINE
  8
0
 10
9.57806
 20
4.86897
 11
9.46474
 21
4.87326
  0
LINE
  8
0
 10
9.46474
 20
4.87326
 11
9.32768
 21
4.91634
  0
LINE
  8
0
 10
9.32768
 20
4.91634
 11
9.20448
 21
4.98898
  0
LINE
  8
0
 10
9.20448
 20
4.98898
 11
9.09879
 21
5.08656
  0
LINE
  8
0
 10
9.09879
 20
5.08656
 11
9.01413
 21
5.20432
  0
LINE
  8
0
 10
9.01413
 20
5.20432
 11
8.95448
 21
5.33649
  0
LINE
  8
0
 10
8.95448
 20
5.33649
 11
8.92284
 21
5.47682
  0
LINE
  8
0
 10
8.92284
 20
5.47682
 11
8.92151
 21
5.61984
  0
LINE
  8
0
 10
8.92151
 20
5.61984
 11
8.95274
 21
5.76007
  0
LINE
  8
0
 10
8.95274
 20
5.76007
 11
9.00578
 21
5.8602
  0
LINE
  8
0
 10
9.00578
 20
5.8602
 11
9.06888
 21
5.95229
  0
LINE
  8
0
 10
9.06888
 20
5.95229
 11
9.14171
 21
6.03545
  0
LINE
  8
0
 10
9.14171
 20
6.03545
 11
9.22395
 21
6.10878
  0
LINE
  8
0
 10
9.22395
 20
6.10878
 11
9.27664
 21
6.20412
  0
LINE
  8
0
 10
9.27664
 20
6.20412
 11
9.25264
 21
6.31996
  0
LINE
  8
0
 10
9.25264
 20
6.31996
 11
9.23445
 21
6.34666
  0
LINE
  8
0
 10
9.23445
 20
6.34666
 11
9.17873
 21
6.427
  0
LINE
  8
0
 10
9.17873
 20
6.427
 11
9.12228
 21
6.50687
  0
LINE
  8
0
 10
9.12228
 20
6.50687
 11
9.10341
 21
6.53308
  0
LINE
  8
0
 10
9.10341
 20
6.53308
 11
9.00285
 21
6.59515
  0
LINE
  8
0
 10
9.00285
 20
6.59515
 11
8.89516
 21
6.57834
  0
LINE
  8
0
 10
8.89516
 20
6.57834
 11
8.79814
 21
6.52611
  0
LINE
  8
0
 10
8.79814
 20
6.52611
 11
8.69516
 21
6.48604
  0
LINE
  8
0
 10
8.69516
 20
6.48604
 11
8.58705
 21
6.45822
  0
LINE
  8
0
 10
8.58705
 20
6.45822
 11
8.47472
 21
6.44276
  0
LINE
  8
0
 10
8.47472
 20
6.44276
 11
8.33226
 21
6.46138
  0
LINE
  8
0
 10
8.33226
 20
6.46138
 11
8.19832
 21
6.51154
  0
LINE
  8
0
 10
8.19832
 20
6.51154
 11
8.07727
 21
6.58928
  0
LINE
  8
0
 10
8.07727
 20
6.58928
 11
7.97346
 21
6.69054
  0
LINE
  8
0
 10
7.97346
 20
6.69054
 11
7.89177
 21
6.81035
  0
LINE
  8
0
 10
7.89177
 20
6.81035
 11
7.83624
 21
6.94305
  0
LINE
  8
0
 10
7.83624
 20
6.94305
 11
7.81009
 21
7.08366
  0
LINE
  8
0
 10
7.81009
 20
7.08366
 11
7.8165
 21
7.22719
  0
LINE
  8
0
 10
7.8165
 20
7.22719
 11
7.85135
 21
7.33501
  0
LINE
  8
0
 10
7.85135
 20
7.33501
 11
7.89749
 21
7.43666
  0
LINE
  8
0
 10
7.89749
 20
7.43666
 11
7.95477
 21
7.53119
  0
LINE
  8
0
 10
7.95477
 20
7.53119
 11
8.02304
 21
7.61771
  0
LINE
  8
0
 10
8.02304
 20
7.61771
 11
8.05838
 21
7.72073
  0
LINE
  8
0
 10
8.05838
 20
7.72073
 11
8.01462
 21
7.83064
  0
LINE
  8
0
 10
8.01462
 20
7.83064
 11
7.99208
 21
7.85379
  0
LINE
  8
0
 10
7.99208
 20
7.85379
 11
7.92323
 21
7.92323
  0
LINE
  8
0
 10
7.92323
 20
7.92323
 11
7.85379
 21
7.99208
  0
LINE
  8
0
 10
7.85379
 20
7.99208
 11
7.83064
 21
8.01462
  0
LINE
  8
0
 10
7.83064
 20
8.01462
 11
7.72084
 21
8.05829
  0
LINE
  8
0
 10
7.72084
 20
8.05829
 11
7.61771
 21
8.02304
  0
LINE
  8
0
 10
7.61771
 20
8.02304
 11
7.53123
 21
7.95474
  0
LINE
  8
0
 10
7.53123
 20
7.95474
 11
7.43677
 21
7.8974
  0
LINE
  8
0
 10
7.43677
 20
7.8974
 11
7.33514
 21
7.85123
  0
LINE
  8
0
 10
7.33514
 20
7.85123
 11
7.22719
 21
7.8165
  0
LINE
  8
0
 10
7.22719
 20
7.8165
 11
7.08366
 21
7.81009
  0
LINE
  8
0
 10
7.08366
 20
7.81009
 11
6.94305
 21
7.83624
  0
LINE
  8
0
 10
6.94305
 20
7.83624
 11
6.81035
 21
7.89177
  0
LINE
  8
0
 10
6.81035
 20
7.89177
 11
6.69054
 21
7.97346
  0
LINE
  8
0
 10
6.69054
 20
7.97346
 11
6.58928
 21
8.07727
  0
LINE
  8
0
 10
6.58928
 20
8.07727
 11
6.51154
 21
8.19832
  0
LINE
  8
0
 10
6.51154
 20
8.19832
 11
6.46138
 21
8.33226
  0
LINE
  8
0
 10
6.46138
 20
8.33226
 11
6.44276
 21
8.47472
  0
LINE
  8
0
 10
6.44276
 20
8.47472
 11
6.45836
 21
8.58694
  0
LINE
  8
0
 10
6.45836
 20
8.58694
 11
6.48616
 21
8.69507
  0
LINE
  8
0
 10
6.48616
 20
8.69507
 11
6.52614
 21
8.79811
  0
LINE
  8
0
 10
6.52614
 20
8.79811
 11
6.57834
 21
8.89516
  0
LINE
  8
0
 10
6.57834
 20
8.89516
 11
6.59526
 21
9.00276
  0
LINE
  8
0
 10
6.59526
 20
9.00276
 11
6.53308
 21
9.10341
  0
LINE
  8
0
 10
6.53308
 20
9.10341
 11
6.50687
 21
9.12228
  0
LINE
  8
0
 10
6.50687
 20
9.12228
 11
6.427
 21
9.17873
  0
LINE
  8
0
 10
6.427
 20
9.17873
 11
6.34666
 21
9.23445
  0
LINE
  8
0
 10
6.34666
 20
9.23445
 11
6.31996
 21
9.25264
  0
LINE
  8
0
 10
6.31996
 20
9.25264
 11
6.20424
 21
9.27658
  0
LINE
  8
0
 10
6.20424
 20
9.27658
 11
6.10878
 21
9.22395
  0
LINE
  8
0
 10
6.10878
 20
9.22395
 11
6.03549
 21
9.14168
  0
LINE
  8
0
 10
6.03549
 20
9.14168
 11
5.95242
 21
9.0688
  0
LINE
  8
0
 10
5.95242
 20
9.0688
 11
5.86035
 21
9.00569
  0
LINE
  8
0
 10
5.86035
 20
9.00569
 11
5.76007
 21
8.95274
  0
LINE
  8
0
 10
5.76007
 20
8.95274
 11
5.61984
 21
8.92151
  0
LINE
  8
0
 10
5.61984
 20
8.92151
 11
5.47682
 21
8.92284
  0
LINE
  8
0
 10
5.47682
 20
8.92284
 11
5.33649
 21
8.95448
  0
LINE
  8
0
 10
5.33649
 20
8.95448
 11
5.20432
 21
9.01413
  0
LINE
  8
0
 10
5.20432
 20
9.01413
 11
5.08656
 21
9.09879
  0
LINE
  8
0
 10
5.08656
 20
9.09879
 11
4.98898
 21
9.20448
  0
LINE
  8
0
 10
4.98898
 20
9.20448
 11
4.91634
 21
9.32768
  0
LINE
  8
0
 10
4.91634
 20
9.32768
 11
4.87326
 21
9.46474
  0
LINE
  8
0
 10
4.87326
 20
9.46474
 11
4.86913
 21
9.57797
  0
LINE
  8
0
 10
4.86913
 20
9.57797
 11
4.87773
 21
9.68927
  0
LINE
  8
0
 10
4.87773
 20
9.68927
 11
4.89922
 21
9.7977
  0
LINE
  8
0
 10
4.89922
 20
9.7977
 11
4.93378
 21
9.90234
  0
LINE
  8
0
 10
4.93378
 20
9.90234
 11
4.93175
 21
10.0112
  0
LINE
  8
0
 10
4.93175
 20
10.0112
 11
4.85303
 21
10.0996
  0
LINE
  8
0
 10
4.85303
 20
10.0996
 11
4.82393
 21
10.1136
  0
LINE
  8
0
 10
4.82393
 20
10.1136
 11
4.73549
 21
10.1553
  0
LINE
  8
0
 10
4.73549
 20
10.1553
 11
4.6467
 21
10.1962
  0
LINE
  8
0
 10
4.6467
 20
10.1962
 11
4.61723
 21
10.2095
  0
LINE
  8
0
 10
4.61723
 20
10.2095
 11
4.49911
 21
10.213
  0
LINE
  8
0
 10
4.49911
 20
10.213
 11
4.41426
 21
10.1446
  0
LINE
  8
0
 10
4.41426
 20
10.1446
 11
4.35637
 21
10.0508
  0
LINE
  8
0
 10
4.35637
 20
10.0508
 11
4.28722
 21
9.96466
  0
LINE
  8
0
 10
4.28722
 20
9.96466
 11
4.20749
 21
9.88652
  0
LINE
  8
0
 10
4.20749
 20
9.88652
 11
4.11794
 21
9.81696
  0
LINE
  8
0
 10
4.11794
 20
9.81696
 11
3.98526
 21
9.76184
  0
LINE
  8
0
 10
3.98526
 20
9.76184
 11
3.84418
 21
9.73831
  0
LINE
  8
0
 10
3.84418
 20
9.73831
 11
3.70049
 21
9.74512
  0
LINE
  8
0
 10
3.70049
 20
9.74512
 11
3.55995
 21
9.78091
  0
LINE
  8
0
 10
3.55995
 20
9.78091
 11
3.42931
 21
9.84383
  0
LINE
  8
0
 10
3.42931
 20
9.84383
 11
3.31485
 21
9.93098
  0
LINE
  8
0
 10
3.31485
 20
9.93098
 11
3.22191
 21
10.0397
  0
LINE
  8
0
 10
3.22191
 20
10.0397
 11
3.15569
 21
10.1672
  0
LINE
  8
0
 10
3.15569
 20
10.1672
 11
3.13196
 21
10.278
  0
LINE
  8
0
 10
3.13196
 20
10.278
 11
3.12109
 21
10.3891
  0
LINE
  8
0
 10
3.12109
 20
10.3891
 11
3.12343
 21
10.4996
  0
LINE
  8
0
 10
3.12343
 20
10.4996
 11
3.1393
 21
10.6086
  0
LINE
  8
0
 10
3.1393
 20
10.6086
 11
3.11839
 21
10.7155
  0
LINE
  8
0
 10
3.11839
 20
10.7155
 11
3.02553
 21
10.7888
  0
LINE
  8
0
 10
3.02553
 20
10.7888
 11
2.99445
 21
10.7976
  0
LINE
  8
0
 10
2.99445
 20
10.7976
 11
2.9001
 21
10.8233
  0
LINE
  8
0
 10
2.9001
 20
10.8233
 11
2.80554
 21
10.8482
  0
LINE
  8
0
 10
2.80554
 20
10.8482
 11
2.77423
 21
10.8562
  0
LINE
  8
0
 10
2.77423
 20
10.8562
 11
2.6573
 21
10.8391
  0
LINE
  8
0
 10
2.6573
 20
10.8391
 11
2.5856
 21
10.757
  0
LINE
  8
0
 10
2.5856
 20
10.757
 11
2.54486
 21
10.6546
  0
LINE
  8
0
 10
2.54486
 20
10.6546
 11
2.49173
 21
10.5577
  0
LINE
  8
0
 10
2.49173
 20
10.5577
 11
2.42679
 21
10.4669
  0
LINE
  8
0
 10
2.42679
 20
10.4669
 11
2.35068
 21
10.3829
  0
LINE
  8
0
 10
2.35068
 20
10.3829
 11
2.22958
 21
10.3056
  0
LINE
  8
0
 10
2.22958
 20
10.3056
 11
2.09474
 21
10.2579
  0
LINE
  8
0
 10
2.09474
 20
10.2579
 11
1.95204
 21
10.2397
  0
LINE
  8
0
 10
1.95204
 20
10.2397
 11
1.80743
 21
10.2505
  0
LINE
  8
0
 10
1.80743
 20
10.2505
 11
1.66783
 21
10.2898
  0
LINE
  8
0
 10
1.66783
 20
10.2898
 11
1.53999
 21
10.3557
  0
LINE
  8
0
 10
1.53999
 20
10.3557
 11
1.42958
 21
10.4466
  0
LINE
  8
0
 10
1.42958
 20
10.4466
 11
1.34222
 21
10.5607
  0
LINE
  8
0
 10
1.34222
 20
10.5607
 11
1.29962
 21
10.6657
  0
LINE
  8
0
 10
1.29962
 20
10.6657
 11
1.26964
 21
10.7732
  0
LINE
  8
0
 10
1.26964
 20
10.7732
 11
1.25275
 21
10.8825
  0
LINE
  8
0
 10
1.25275
 20
10.8825
 11
1.24944
 21
10.9926
  0
LINE
  8
0
 10
1.24944
 20
10.9926
 11
1.21028
 21
11.0943
  0
LINE
  8
0
 10
1.21028
 20
11.0943
 11
1.10609
 21
11.1503
  0
LINE
  8
0
 10
1.10609
 20
11.1503
 11
1.07396
 21
11.1536
  0
LINE
  8
0
 10
1.07396
 20
11.1536
 11
0.976593
 21
11.1625
  0
LINE
  8
0
 10
0.976593
 20
11.1625
 11
0.879135
 21
11.1706
  0
LINE
  8
0
 10
0.879135
 20
11.1706
 11
0.846924
 21
11.173
  0
LINE
  8
0
 10
0.846924
 20
11.173
 11
0.734741
 21
11.1359
  0
LINE
  8
0
 10
0.734741
 20
11.1359
 11
0.678375
 21
11.0426
  0
LINE
  8
0
 10
0.678375
 20
11.0426
 11
0.656052
 21
10.9347
  0
LINE
  8
0
 10
0.656052
 20
10.9347
 11
0.620544
 21
10.83
  0
LINE
  8
0
 10
0.620544
 20
10.83
 11
0.572357
 21
10.7293
  0
LINE
  8
0
 10
0.572357
 20
10.7293
 11
0.511993
 21
10.6333
  0
LINE
  8
0
 10
0.511993
 20
10.6333
 11
0.406158
 21
10.5362
  0
LINE
  8
0
 10
0.406158
 20
10.5362
 11
0.281647
 21
10.4658
  0
LINE
  8
0
 10
0.281647
 20
10.4658
 11
0.144287
 21
10.4231
  0
LINE
  8
0
 10
0.144287
 20
10.4231
 11
0
 21
10.4086
  0
LINE
  8
0
 10
0
 20
10.4086
 11
-0.144287
 21
10.4231
  0
LINE
  8
0
 10
-0.144287
 20
10.4231
 11
-0.281647
 21
10.4658
  0
LINE
  8
0
 10
-0.281647
 20
10.4658
 11
-0.406158
 21
10.5362
  0
LINE
  8
0
 10
-0.406158
 20
10.5362
 11
-0.511993
 21
10.6333
  0
LINE
  8
0
 10
-0.511993
 20
10.6333
 11
-0.572189
 21
10.7293
  0
LINE
  8
0
 10
-0.572189
 20
10.7293
 11
-0.620392
 21
10.83
  0
LINE
  8
0
 10
-0.620392
 20
10.83
 11
-0.655991
 21
10.9347
  0
LINE
  8
0
 10
-0.655991
 20
10.9347
 11
-0.678375
 21
11.0426
  0
LINE
  8
0
 10
-0.678375
 20
11.0426
 11
-0.734589
 21
11.1359
  0
LINE
  8
0
 10
-0.734589
 20
11.1359
 11
-0.846924
 21
11.173
  0
LINE
  8
0
 10
-0.846924
 20
11.173
 11
-0.879135
 21
11.1706
  0
LINE
  8
0
 10
-0.879135
 20
11.1706
 11
-0.976593
 21
11.1625
  0
LINE
  8
0
 10
-0.976593
 20
11.1625
 11
-1.07396
 21
11.1536
  0
LINE
  8
0
 10
-1.07396
 20
11.1536
 11
-1.10609
 21
11.1503
  0
LINE
  8
0
 10
-1.10609
 20
11.1503
 11
-1.21014
 21
11.0943
  0
LINE
  8
0
 10
-1.21014
 20
11.0943
 11
-1.24944
 21
10.9926
  0
LINE
  8
0
 10
-1.24944
 20
10.9926
 11
-1.25269
 21
10.8825
  0
LINE
  8
0
 10
-1.25269
 20
10.8825
 11
-1.26949
 21
10.7733
  0
LINE
  8
0
 10
-1.26949
 20
10.7733
 11
-1.29945
 21
10.6657
  0
LINE
  8
0
 10
-1.29945
 20
10.6657
 11
-1.34222
 21
10.5607
  0
LINE
  8
0
 10
-1.34222
 20
10.5607
 11
-1.42958
 21
10.4466
  0
LINE
  8
0
 10
-1.42958
 20
10.4466
 11
-1.53999
 21
10.3557
  0
LINE
  8
0
 10
-1.53999
 20
10.3557
 11
-1.66783
 21
10.2898
  0
LINE
  8
0
 10
-1.66783
 20
10.2898
 11
-1.80743
 21
10.2505
  0
LINE
  8
0
 10
-1.80743
 20
10.2505
 11
-1.95204
 21
10.2397
  0
LINE
  8
0
 10
-1.95204
 20
10.2397
 11
-2.09474
 21
10.2579
  0
LINE
  8
0
 10
-2.09474
 20
10.2579
 11
-2.22958
 21
10.3056
  0
LINE
  8
0
 10
-2.22958
 20
10.3056
 11
-2.35068
 21
10.3829
  0
LINE
  8
0
 10
-2.35068
 20
10.3829
 11
-2.42662
 21
10.467
  0
LINE
  8
0
 10
-2.42662
 20
10.467
 11
-2.49158
 21
10.5578
  0
LINE
  8
0
 10
-2.49158
 20
10.5578
 11
-2.54482
 21
10.6546
  0
LINE
  8
0
 10
-2.54482
 20
10.6546
 11
-2.5856
 21
10.757
  0
LINE
  8
0
 10
-2.5856
 20
10.757
 11
-2.65717
 21
10.8391
  0
LINE
  8
0
 10
-2.65717
 20
10.8391
 11
-2.77423
 21
10.8562
  0
LINE
  8
0
 10
-2.77423
 20
10.8562
 11
-2.80554
 21
10.8482
  0
LINE
  8
0
 10
-2.80554
 20
10.8482
 11
-2.9001
 21
10.8233
  0
LINE
  8
0
 10
-2.9001
 20
10.8233
 11
-2.99445
 21
10.7976
  0
LINE
  8
0
 10
-2.99445
 20
10.7976
 11
-3.02553
 21
10.7888
  0
LINE
  8
0
 10
-3.02553
 20
10.7888
 11
-3.11826
 21
10.7156
  0
LINE
  8
0
 10
-3.11826
 20
10.7156
 11
-3.1393
 21
10.6086
  0
LINE
  8
0
 10
-3.1393
 20
10.6086
 11
-3.12338
 21
10.4996
  0
LINE
  8
0
 10
-3.12338
 20
10.4996
 11
-3.12096
 21
10.3891
  0
LINE
  8
0
 10
-3.12096
 20
10.3891
 11
-3.13179
 21
10.278
  0
LINE
  8
0
 10
-3.13179
 20
10.278
 11
-3.15569
 21
10.1672
  0
LINE
  8
0
 10
-3.15569
 20
10.1672
 11
-3.22191
 21
10.0397
  0
LINE
  8
0
 10
-3.22191
 20
10.0397
 11
-3.31485
 21
9.93098
  0
LINE
  8
0
 10
-3.31485
 20
9.93098
 11
-3.42931
 21
9.84383
  0
LINE
  8
0
 10
-3.42931
 20
9.84383
 11
-3.55995
 21
9.78091
  0
LINE
  8
0
 10
-3.55995
 20
9.78091
 11
-3.70049
 21
9.74512
  0
LINE
  8
0
 10
-3.70049
 20
9.74512
 11
-3.84418
 21
9.73831
  0
LINE
  8
0
 10
-3.84418
 20
9.73831
 11
-3.98526
 21
9.76184
  0
LINE
  8
0
 10
-3.98526
 20
9.76184
 11
-4.11794
 21
9.81696
  0
LINE
  8
0
 10
-4.11794
 20
9.81696
 11
-4.20734
 21
9.88657
  0
LINE
  8
0
 10
-4.20734
 20
9.88657
 11
-4.28706
 21
9.96471
  0
LINE
  8
0
 10
-4.28706
 20
9.96471
 11
-4.35631
 21
10.0509
  0
LINE
  8
0
 10
-4.35631
 20
10.0509
 11
-4.41426
 21
10.1446
  0
LINE
  8
0
 10
-4.41426
 20
10.1446
 11
-4.49899
 21
10.213
  0
LINE
  8
0
 10
-4.49899
 20
10.213
 11
-4.61723
 21
10.2095
  0
LINE
  8
0
 10
-4.61723
 20
10.2095
 11
-4.6467
 21
10.1962
  0
LINE
  8
0
 10
-4.6467
 20
10.1962
 11
-4.73549
 21
10.1553
  0
LINE
  8
0
 10
-4.73549
 20
10.1553
 11
-4.82393
 21
10.1136
  0
LINE
  8
0
 10
-4.82393
 20
10.1136
 11
-4.85303
 21
10.0996
  0
LINE
  8
0
 10
-4.85303
 20
10.0996
 11
-4.93163
 21
10.0113
  0
LINE
  8
0
 10
-4.93163
 20
10.0113
 11
-4.93378
 21
9.90234
  0
LINE
  8
0
 10
-4.93378
 20
9.90234
 11
-4.89917
 21
9.79773
  0
LINE
  8
0
 10
-4.89917
 20
9.79773
 11
-4.87759
 21
9.68935
  0
LINE
  8
0
 10
-4.87759
 20
9.68935
 11
-4.86897
 21
9.57806
  0
LINE
  8
0
 10
-4.86897
 20
9.57806
 11
-4.87326
 21
9.46474
  0
LINE
  8
0
 10
-4.87326
 20
9.46474
 11
-4.91634
 21
9.32768
  0
LINE
  8
0
 10
-4.91634
 20
9.32768
 11
-4.98898
 21
9.20448
  0
LINE
  8
0
 10
-4.98898
 20
9.20448
 11
-5.08656
 21
9.09879
  0
LINE
  8
0
 10
-5.08656
 20
9.09879
 11
-5.20432
 21
9.01413
  0
LINE
  8
0
 10
-5.20432
 20
9.01413
 11
-5.33649
 21
8.95448
  0
LINE
  8
0
 10
-5.33649
 20
8.95448
 11
-5.47682
 21
8.92284
  0
LINE
  8
0
 10
-5.47682
 20
8.92284
 11
-5.61984
 21
8.92151
  0
LINE
  8
0
 10
-5.61984
 20
8.92151
 11
-5.76007
 21
8.95274
  0
LINE
  8
0
 10
-5.76007
 20
8.95274
 11
-5.8602
 21
9.00578
  0
LINE
  8
0
 10
-5.8602
 20
9.00578
 11
-5.95229
 21
9.06888
  0
LINE
  8
0
 10
-5.95229
 20
9.06888
 11
-6.03545
 21
9.14171
  0
LINE
  8
0
 10
-6.03545
 20
9.14171
 11
-6.10878
 21
9.22395
  0
LINE
  8
0
 10
-6.10878
 20
9.22395
 11
-6.20412
 21
9.27664
  0
LINE
  8
0
 10
-6.20412
 20
9.27664
 11
-6.31996
 21
9.25264
  0
LINE
  8
0
 10
-6.31996
 20
9.25264
 11
-6.34666
 21
9.23445
  0
LINE
  8
0
 10
-6.34666
 20
9.23445
 11
-6.427
 21
9.17873
  0
LINE
  8
0
 10
-6.427
 20
9.17873
 11
-6.50687
 21
9.12228
  0
LINE
  8
0
 10
-6.50687
 20
9.12228
 11
-6.53308
 21
9.10341
  0
LINE
  8
0
 10
-6.53308
 20
9.10341
 11
-6.59515
 21
9.00285
  0
LINE
  8
0
 10
-6.59515
 20
9.00285
 11
-6.57834
 21
8.89516
  0
LINE
  8
0
 10
-6.57834
 20
8.89516
 11
-6.52611
 21
8.79814
  0
LINE
  8
0
 10
-6.52611
 20
8.79814
 11
-6.48604
 21
8.69516
  0
LINE
  8
0
 10
-6.48604
 20
8.69516
 11
-6.45822
 21
8.58705
  0
LINE
  8
0
 10
-6.45822
 20
8.58705
 11
-6.44276
 21
8.47472
  0
LINE
  8
0
 10
-6.44276
 20
8.47472
 11
-6.46138
 21
8.33226
  0
LINE
  8
0
 10
-6.46138
 20
8.33226
 11
-6.51154
 21
8.19832
  0
LINE
  8
0
 10
-6.51154
 20
8.19832
 11
-6.58928
 21
8.07727
  0
LINE
  8
0
 10
-6.58928
 20
8.07727
 11
-6.69054
 21
7.97346
  0
LINE
  8
0
 10
-6.69054
 20
7.97346
 11
-6.81035
 21
7.89177
  0
LINE
  8
0
 10
-6.81035
 20
7.89177
 11
-6.94305
 21
7.83624
  0
LINE
  8
0
 10
-6.94305
 20
7.83624
 11
-7.08366
 21
7.81009
  0
LINE
  8
0
 10
-7.08366
 20
7.81009
 11
-7.22719
 21
7.8165
  0
LINE
  8
0
 10
-7.22719
 20
7.8165
 11
-7.33501
 21
7.85135
  0
LINE
  8
0
 10
-7.33501
 20
7.85135
 11
-7.43666
 21
7.89749
  0
LINE
  8
0
 10
-7.43666
 20
7.89749
 11
-7.53119
 21
7.95477
  0
LINE
  8
0
 10
-7.53119
 20
7.95477
 11
-7.61771
 21
8.02304
  0
LINE
  8
0
 10
-7.61771
 20
8.02304
 11
-7.72073
 21
8.05838
  0
LINE
  8
0
 10
-7.72073
 20
8.05838
 11
-7.83064
 21
8.01462
  0
LINE
  8
0
 10
-7.83064
 20
8.01462
 11
-7.85379
 21
7.99208
  0
LINE
  8
0
 10
-7.85379
 20
7.99208
 11
-7.92323
 21
7.92323
  0
LINE
  8
0
 10
-7.92323
 20
7.92323
 11
-7.99208
 21
7.85379
  0
LINE
  8
0
 10
-7.99208
 20
7.85379
 11
-8.01462
 21
7.83064
  0
LINE
  8
0
 10
-8.01462
 20
7.83064
 11
-8.05829
 21
7.72084
  0
LINE
  8
0
 10
-8.05829
 20
7.72084
 11
-8.02304
 21
7.61771
  0
LINE
  8
0
 10
-8.02304
 20
7.61771
 11
-7.95474
 21
7.53123
  0
LINE
  8
0
 10
-7.95474
 20
7.53123
 11
-7.8974
 21
7.43677
  0
LINE
  8
0
 10
-7.8974
 20
7.43677
 11
-7.85123
 21
7.33514
  0
LINE
  8
0
 10
-7.85123
 20
7.33514
 11
-7.8165
 21
7.22719
  0
LINE
  8
0
 10
-7.8165
 20
7.22719
 11
-7.81009
 21
7.08366
  0
LINE
  8
0
 10
-7.81009
 20
7.08366
 11
-7.83624
 21
6.94305
  0
LINE
  8
0
 10
-7.83624
 20
6.94305
 11
-7.89177
 21
6.81035
  0
LINE
  8
0
 10
-7.89177
 20
6.81035
 11
-7.97346
 21
6.69054
  0
LINE
  8
0
 10
-7.97346
 20
6.69054
 11
-8.07727
 21
6.58928
  0
LINE
  8
0
 10
-8.07727
 20
6.58928
 11
-8.19832
 21
6.51154
  0
LINE
  8
0
 10
-8.19832
 20
6.51154
 11
-8.33226
 21
6.46138
  0
LINE
  8
0
 10
-8.33226
 20
6.46138
 11
-8.47472
 21
6.44276
  0
LINE
  8
0
 10
-8.47472
 20
6.44276
 11
-8.58694
 21
6.45836
  0
LINE
  8
0
 10
-8.58694
 20
6.45836
 11
-8.69507
 21
6.48616
  0
LINE
  8
0
 10
-8.69507
 20
6.48616
 11
-8.79811
 21
6.52614
  0
LINE
  8
0
 10
-8.79811
 20
6.52614
 11
-8.89516
 21
6.57834
  0
LINE
  8
0
 10
-8.89516
 20
6.57834
 11
-9.00276
 21
6.59526
  0
LINE
  8
0
 10
-9.00276
 20
6.59526
 11
-9.10341
 21
6.53308
  0
LINE
  8
0
 10
-9.10341
 20
6.53308
 11
-9.12228
 21
6.50687
  0
LINE
  8
0
 10
-9.12228
 20
6.50687
 11
-9.17873
 21
6.427
  0
LINE
  8
0
 10
-9.17873
 20
6.427
 11
-9.23445
 21
6.34666
  0
LINE
  8
0
 10
-9.23445
 20
6.34666
 11
-9.25264
 21
6.31996
  0
LINE
  8
0
 10
-9.25264
 20
6.31996
 11
-9.27658
 21
6.20424
  0
LINE
  8
0
 10
-9.27658
 20
6.20424
 11
-9.22395
 21
6.10878
  0
LINE
  8
0
 10
-9.22395
 20
6.10878
 11
-9.14168
 21
6.03549
  0
LINE
  8
0
 10
-9.14168
 20
6.03549
 11
-9.0688
 21
5.95242
  0
LINE
  8
0
 10
-9.0688
 20
5.95242
 11
-9.00569
 21
5.86035
  0
LINE
  8
0
 10
-9.00569
 20
5.86035
 11
-8.95274
 21
5.76007
  0
LINE
  8
0
 10
-8.95274
 20
5.76007
 11
-8.92151
 21
5.61984
  0
LINE
  8
0
 10
-8.92151
 20
5.61984
 11
-8.92284
 21
5.47682
  0
LINE
  8
0
 10
-8.92284
 20
5.47682
 11
-8.95448
 21
5.33649
  0
LINE
  8
0
 10
-8.95448
 20
5.33649
 11
-9.01413
 21
5.20432
  0
LINE
  8
0
 10
-9.01413
 20
5.20432
 11
-9.09879
 21
5.08656
  0
LINE
  8
0
 10
-9.09879
 20
5.08656
 11
-9.20448
 21
4.98898
  0
LINE
  8
0
 10
-9.20448
 20
4.98898
 11
-9.32768
 21
4.91634
  0
LINE
  8
0
 10
-9.32768
 20
4.91634
 11
-9.46474
 21
4.87326
  0
LINE
  8
0
 10
-9.46474
 20
4.87326
 11
-9.57797
 21
4.86913
  0
LINE
  8
0
 10
-9.57797
 20
4.86913
 11
-9.68927
 21
4.87773
  0
LINE
  8
0
 10
-9.68927
 20
4.87773
 11
-9.7977
 21
4.89922
  0
LINE
  8
0
 10
-9.7977
 20
4.89922
 11
-9.90234
 21
4.93378
  0
LINE
  8
0
 10
-9.90234
 20
4.93378
 11
-10.0112
 21
4.93175
  0
LINE
  8
0
 10
-10.0112
 20
4.93175
 11
-10.0996
 21
4.85303
  0
LINE
  8
0
 10
-10.0996
 20
4.85303
 11
-10.1136
 21
4.82393
  0
LINE
  8
0
 10
-10.1136
 20
4.82393
 11
-10.1553
 21
4.73549
  0
LINE
  8
0
 10
-10.1553
 20
4.73549
 11
-10.1962
 21
4.6467
  0
LINE
  8
0
 10
-10.1962
 20
4.6467
 11
-10.2095
 21
4.61723
  0
LINE
  8
0
 10
-10.2095
 20
4.61723
 11
-10.213
 21
4.49911
  0
LINE
  8
0
 10
-10.213
 20
4.49911
 11
-10.1446
 21
4.41426
  0
LINE
  8
0
 10
-10.1446
 20
4.41426
 11
-10.0508
 21
4.35637
  0
LINE
  8
0
 10
-10.0508
 20
4.35637
 11
-9.96466
 21
4.28722
  0
LINE
  8
0
 10
-9.96466
 20
4.28722
 11
-9.88652
 21
4.20749
  0
LINE
  8
0
 10
-9.88652
 20
4.20749
 11
-9.81696
 21
4.11794
  0
LINE
  8
0
 10
-9.81696
 20
4.11794
 11
-9.76184
 21
3.98526
  0
LINE
  8
0
 10
-9.76184
 20
3.98526
 11
-9.73831
 21
3.84418
  0
LINE
  8
0
 10
-9.73831
 20
3.84418
 11
-9.74512
 21
3.70049
  0
LINE
  8
0
 10
-9.74512
 20
3.70049
 11
-9.78091
 21
3.55995
  0
LINE
  8
0
 10
-9.78091
 20
3.55995
 11
-9.84383
 21
3.42931
  0
LINE
  8
0
 10
-9.84383
 20
3.42931
 11
-9.93098
 21
3.31485
  0
LINE
  8
0
 10
-9.93098
 20
3.31485
 11
-10.0397
 21
3.22191
  0
LINE
  8
0
 10
-10.0397
 20
3.22191
 11
-10.1672
 21
3.15569
  0
LINE
  8
0
 10
-10.1672
 20
3.15569
 11
-10.278
 21
3.13196
  0
LINE
  8
0
 10
-10.278
 20
3.13196
 11
-10.3891
 21
3.12109
  0
LINE
  8
0
 10
-10.3891
 20
3.12109
 11
-10.4996
 21
3.12343
  0
LINE
  8
0
 10
-10.4996
 20
3.12343
 11
-10.6086
 21
3.1393
  0
LINE
  8
0
 10
-10.6086
 20
3.1393
 11
-10.7155
 21
3.11839
  0
LINE
  8
0
 10
-10.7155
 20
3.11839
 11
-10.7888
 21
3.02553
  0
LINE
  8
0
 10
-10.7888
 20
3.02553
 11
-10.7976
 21
2.99445
  0
LINE
  8
0
 10
-10.7976
 20
2.99445
 11
-10.8233
 21
2.9001
  0
LINE
  8
0
 10
-10.8233
 20
2.9001
 11
-10.8482
 21
2.80554
  0
LINE
  8
0
 10
-10.8482
 20
2.80554
 11
-10.8562
 21
2.77423
  0
LINE
  8
0
 10
-10.8562
 20
2.77423
 11
-10.8391
 21
2.6573
  0
LINE
  8
0
 10
-10.8391
 20
2.6573
 11
-10.757
 21
2.5856
  0
LINE
  8
0
 10
-10.757
 20
2.5856
 11
-10.6546
 21
2.54486
  0
LINE
  8
0
 10
-10.6546
 20
2.54486
 11
-10.5577
 21
2.49173
  0
LINE
  8
0
 10
-10.5577
 20
2.49173
 11
-10.4669
 21
2.42679
  0
LINE
  8
0
 10
-10.4669
 20
2.42679
 11
-10.3829
 21
2.35068
  0
LINE
  8
0
 10
-10.3829
 20
2.35068
 11
-10.3056
 21
2.22958
  0
LINE
  8
0
 10
-10.3056
 20
2.22958
 11
-10.2579
 21
2.09474
  0
LINE
  8
0
 10
-10.2579
 20
2.09474
 11
-10.2397
 21
1.95204
  0
LINE
  8
0
 10
-10.2397
 20
1.95204
 11
-10.2505
 21
1.80743
  0
LINE
  8
0
 10
-10.2505
 20
1.80743
 11
-10.2898
 21
1.66783
  0
LINE
  8
0
 10
-10.2898
 20
1.66783
 11
-10.3557
 21
1.53999
  0
LINE
  8
0
 10
-10.3557
 20
1.53999
 11
-10.4466
 21
1.42958
  0
LINE
  8
0
 10
-10.4466
 20
1.42958
 11
-10.5607
 21
1.34222
  0
LINE
  8
0
 10
-10.5607
 20
1.34222
 11
-10.6657
 21
1.29962
  0
LINE
  8
0
 10
-10.6657
 20
1.29962
 11
-10.7732
 21
1.26964
  0
LINE
  8
0
 10
-10.7732
 20
1.26964
 11
-10.8825
 21
1.25275
  0
LINE
  8
0
 10
-10.8825
 20
1.25275
 11
-10.9926
 21
1.24944
  0
LINE
  8
0
 10
-10.9926
 20
1.24944
 11
-11.0943
 21
1.21028
  0
LINE
  8
0
 10
-11.0943
 20
1.21028
 11
-11.1503
 21
1.10609
  0
LINE
  8
0
 10
-11.1503
 20
1.10609
 11
-11.1536
 21
1.07396
  0
LINE
  8
0
 10
-11.1536
 20
1.07396
 11
-11.1625
 21
0.976593
  0
LINE
  8
0
 10
-11.1625
 20
0.976593
 11
-11.1706
 21
0.879135
  0
LINE
  8
0
 10
-11.1706
 20
0.879135
 11
-11.173
 21
0.846924
  0
LINE
  8
0
 10
-11.173
 20
0.846924
 11
-11.1359
 21
0.734741
  0
LINE
  8
0
 10
-11.1359
 20
0.734741
 11
-11.0426
 21
0.678375
  0
LINE
  8
0
 10
-11.0426
 20
0.678375
 11
-10.9347
 21
0.656052
  0
LINE
  8
0
 10
-10.9347
 20
0.656052
 11
-10.83
 21
0.620544
  0
LINE
  8
0
 10
-10.83
 20
0.620544
 11
-10.7293
 21
0.572357
  0
LINE
  8
0
 10
-10.7293
 20
0.572357
 11
-10.6333
 21
0.511993
  0
LINE
  8
0
 10
-10.6333
 20
0.511993
 11
-10.5362
 21
0.406158
  0
LINE
  8
0
 10
-10.5362
 20
0.406158
 11
-10.4658
 21
0.281647
  0
LINE
  8
0
 10
-10.4658
 20
0.281647
 11
-10.4231
 21
0.144287
  0
LINE
  8
0
 10
-10.4231
 20
0.144287
 11
-10.4086
 21
0
  0
LINE
  8
0
 10
-10.4086
 20
0
 11
-10.4231
 21
-0.144287
  0
LINE
  8
0
 10
-10.4231
 20
-0.144287
 11
-10.4658
 21
-0.281647
  0
LINE
  8
0
 10
-10.4658
 20
-0.281647
 11
-10.5362
 21
-0.406158
  0
LINE
  8
0
 10
-10.5362
 20
-0.406158
 11
-10.6333
 21
-0.511993
  0
LINE
  8
0
 10
-10.6333
 20
-0.511993
 11
-10.7293
 21
-0.572189
  0
LINE
  8
0
 10
-10.7293
 20
-0.572189
 11
-10.83
 21
-0.620392
  0
LINE
  8
0
 10
-10.83
 20
-0.620392
 11
-10.9347
 21
-0.655991
  0
LINE
  8
0
 10
-10.9347
 20
-0.655991
 11
-11.0426
 21
-0.678375
  0
LINE
  8
0
 10
-11.0426
 20
-0.678375
 11
-11.1359
 21
-0.734589
  0
LINE
  8
0
 10
-11.1359
 20
-0.734589
 11
-11.173
 21
-0.846924
  0
LINE
  8
0
 10
-11.173
 20
-0.846924
 11
-11.1706
 21
-0.879135
  0
LINE
  8
0
 10
-11.1706
 20
-0.879135
 11
-11.1625
 21
-0.976593
  0
LINE
  8
0
 10
-11.1625
 20
-0.976593
 11
-11.1536
 21
-1.07396
  0
LINE
  8
0
 10
-11.1536
 20
-1.07396
 11
-11.1503
 21
-1.10609
  0
LINE
  8
0
 10
-11.1503
 20
-1.10609
 11
-11.0943
 21
-1.21014
  0
LINE
  8
0
 10
-11.0943
 20
-1.21014
 11
-10.9926
 21
-1.24944
  0
LINE
  8
0
 10
-10.9926
 20
-1.24944
 11
-10.8825
 21
-1.25269
  0
LINE
  8
0
 10
-10.8825
 20
-1.25269
 11
-10.7733
 21
-1.26949
  0
LINE
  8
0
 10
-10.7733
 20
-1.26949
 11
-10.6657
 21
-1.29945
  0
LINE
  8
0
 10
-10.6657
 20
-1.29945
 11
-10.5607
 21
-1.34222
  0
LINE
  8
0
 10
-10.5607
 20
-1.34222
 11
-10.4466
 21
-1.42958
  0
LINE
  8
0
 10
-10.4466
 20
-1.42958
 11
-10.3557
 21
-1.53999
  0
LINE
  8
0
 10
-10.3557
 20
-1.53999
 11
-10.2898
 21
-1.66783
  0
LINE
  8
0
 10
-10.2898
 20
-1.66783
 11
-10.2505
 21
-1.80743
  0
LINE
  8
0
 10
-10.2505
 20
-1.80743
 11
-10.2397
 21
-1.95204
  0
LINE
  8
0
 10
-10.2397
 20
-1.95204
 11
-10.2579
 21
-2.09474
  0
LINE
  8
0
 10
-10.2579
 20
-2.09474
 11
-10.3056
 21
-2.22958
  0
LINE
  8
0
 10
-10.3056
 20
-2.22958
 11
-10.3829
 21
-2.35068
  0
LINE
  8
0
 10
-10.3829
 20
-2.35068
 11
-10.467
 21
-2.42662
  0
LINE
  8
0
 10
-10.467
 20
-2.42662
 11
-10.5578
 21
-2.49158
  0
LINE
  8
0
 10
-10.5578
 20
-2.49158
 11
-10.6546
 21
-2.54482
  0
LINE
  8
0
 10
-10.6546
 20
-2.54482
 11
-10.757
 21
-2.5856
  0
LINE
  8
0
 10
-10.757
 20
-2.5856
 11
-10.8391
 21
-2.65717
  0
LINE
  8
0
 10
-10.8391
 20
-2.65717
 11
-10.8562
 21
-2.77423
  0
LINE
  8
0
 10
-10.8562
 20
-2.77423
 11
-10.8482
 21
-2.80554
  0
LINE
  8
0
 10
-10.8482
 20
-2.80554
 11
-10.8233
 21
-2.9001
  0
LINE
  8
0
 10
-10.8233
 20
-2.9001
 11
-10.7976
 21
-2.99445
  0
LINE
  8
0
 10
-10.7976
 20
-2.99445
 11
-10.7888
 21
-3.02553
  0
LINE
  8
0
 10
-10.7888
 20
-3.02553
 11
-10.7156
 21
-3.11826
  0
LINE
  8
0
 10
-10.7156
 20
-3.11826
 11
-10.6086
 21
-3.1393
  0
LINE
  8
0
 10
-10.6086
 20
-3.1393
 11
-10.4996
 21
-3.12338
  0
LINE
  8
0
 10
-10.4996
 20
-3.12338
 11
-10.3891
 21
-3.12096
  0
LINE
  8
0
 10
-10.3891
 20
-3.12096
 11
-10.278
 21
-3.13179
  0
LINE
  8
0
 10
-10.278
 20
-3.13179
 11
-10.1672
 21
-3.15569
  0
LINE
  8
0
 10
-10.1672
 20
-3.15569
 11
-10.0397
 21
-3.22191
  0
LINE
  8
0
 10
-10.0397
 20
-3.22191
 11
-9.93098
 21
-3.31485
  0
LINE
  8
0
 10
-9.93098
 20
-3.31485
 11
-9.84383
 21
-3.42931
  0
LINE
  8
0
 10
-9.84383
 20
-3.42931
 11
-9.78091
 21
-3.55995
  0
LINE
  8
0
 10
-9.78091
 20
-3.55995
 11
-9.74512
 21
-3.70049
  0
LINE
  8
0
 10
-9.74512
 20
-3.70049
 11
-9.73831
 21
-3.84418
  0
LINE
  8
0
 10
-9.73831
 20
-3.84418
 11
-9.76184
 21
-3.98526
  0
LINE
  8
0
 10
-9.76184
 20
-3.98526
 11
-9.81696
 21
-4.11794
  0
LINE
  8
0
 10
-9.81696
 20
-4.11794
 11
-9.88657
 21
-4.20734
  0
LINE
  8
0
 10
-9.88657
 20
-4.20734
 11
-9.96471
 21
-4.28706
  0
LINE
  8
0
 10
-9.96471
 20
-4.28706
 11
-10.0509
 21
-4.35631
  0
LINE
  8
0
 10
-10.0509
 20
-4.35631
 11
-10.1446
 21
-4.41426
  0
LINE
  8
0
 10
-10.1446
 20
-4.41426
 11
-10.213
 21
-4.49899
  0
LINE
  8
0
 10
-10.213
 20
-4.49899
 11
-10.2095
 21
-4.61723
  0
LINE
  8
0
 10
-10.2095
 20
-4.61723
 11
-10.1962
 21
-4.6467
  0
LINE
  8
0
 10
-10.1962
 20
-4.6467
 11
-10.1553
 21
-4.73549
  0
LINE
  8
0
 10
-10.1553
 20
-4.73549
 11
-10.1136
 21
-4.82393
  0
LINE
  8
0
 10
-10.1136
 20
-4.82393
 11
-10.0996
 21
-4.85303
  0
LINE
  8
0
 10
-10.0996
 20
-4.85303
 11
-10.0113
 21
-4.93163
  0
LINE
  8
0
 10
-10.0113
 20
-4.93163
 11
-9.90234
 21
-4.93378
  0
LINE
  8
0
 10
-9.90234
 20
-4.93378
 11
-9.79773
 21
-4.89917
  0
LINE
  8
0
 10
-9.79773
 20
-4.89917
 11
-9.68935
 21
-4.87759
  0
LINE
  8
0
 10
-9.68935
 20
-4.87759
 11
-9.57806
 21
-4.86897
  0
LINE
  8
0
 10
-9.57806
 20
-4.86897
 11
-9.46474
 21
-4.87326
  0
LINE
  8
0
 10
-9.46474
 20
-4.87326
 11
-9.32768
 21
-4.91634
  0
LINE
  8
0
 10
-9.32768
 20
-4.91634
 11
-9.20448
 21
-4.98898
  0
LINE
  8
0
 10
-9.20448
 20
-4.98898
 11
-9.09879
 21
-5.08656
  0
LINE
  8
0
 10
-9.09879
 20
-5.08656
 11
-9.01413
 21
-5.20432
  0
LINE
  8
0
 10
-9.01413
 20
-5.20432
 11
-8.95448
 21
-5.33649
  0
LINE
  8
0
 10
-8.95448
 20
-5.33649
 11
-8.92284
 21
-5.47682
  0
LINE
  8
0
 10
-8.92284
 20
-5.47682
 11
-8.92151
 21
-5.61984
  0
LINE
  8
0
 10
-8.92151
 20
-5.61984
 11
-8.95274
 21
-5.76007
  0
LINE
  8
0
 10
-8.95274
 20
-5.76007
 11
-9.00578
 21
-5.8602
  0
LINE
  8
0
 10
-9.00578
 20
-5.8602
 11
-9.06888
 21
-5.95229
  0
LINE
  8
0
 10
-9.06888
 20
-5.95229
 11
-9.14171
 21
-6.03545
  0
LINE
  8
0
 10
-9.14171
 20
-6.03545
 11
-9.22395
 21
-6.10878
  0
LINE
  8
0
 10
-9.22395
 20
-6.10878
 11
-9.27664
 21
-6.20412
  0
LINE
  8
0
 10
-9.27664
 20
-6.20412
 11
-9.25264
 21
-6.31996
  0
LINE
  8
0
 10
-9.25264
 20
-6.31996
 11
-9.23445
 21
-6.34666
  0
LINE
  8
0
 10
-9.23445
 20
-6.34666
 11
-9.17873
 21
-6.427
  0
LINE
  8
0
 10
-9.17873
 20
-6.427
 11
-9.12228
 21
-6.50687
  0
LINE
  8
0
 10
-9.12228
 20
-6.50687
 11
-9.10341
 21
-6.53308
  0
LINE
  8
0
 10
-9.10341
 20
-6.53308
 11
-9.00285
 21
-6.59515
  0
LINE
  8
0
 10
-9.00285
 20
-6.59515
 11
-8.89516
 21
-6.57834
  0
LINE
  8
0
 10
-8.89516
 20
-6.57834
 11
-8.79814
 21
-6.52611
  0
LINE
  8
0
 10
-8.79814
 20
-6.52611
 11
-8.69516
 21
-6.48604
  0
LINE
  8
0
 10
-8.69516
 20
-6.48604
 11
-8.58705
 21
-6.45822
  0
LINE
  8
0
 10
-8.58705
 20
-6.45822
 11
-8.47472
 21
-6.44276
  0
LINE
  8
0
 10
-8.47472
 20
-6.44276
 11
-8.33226
 21
-6.46138
  0
LINE
  8
0
 10
-8.33226
 20
-6.46138
 11
-8.19832
 21
-6.51154
  0
LINE
  8
0
 10
-8.19832
 20
-6.51154
 11
-8.07727
 21
-6.58928
  0
LINE
  8
0
 10
-8.07727
 20
-6.58928
 11
-7.97346
 21
-6.69054
  0
LINE
  8
0
 10
-7.97346
 20
-6.69054
 11
-7.89177
 21
-6.81035
  0
LINE
  8
0
 10
-7.89177
 20
-6.81035
 11
-7.83624
 21
-6.94305
  0
LINE
  8
0
 10
-7.83624
 20
-6.94305
 11
-7.81009
 21
-7.08366
  0
LINE
  8
0
 10
-7.81009
 20
-7.08366
 11
-7.8165
 21
-7.22719
  0
LINE
  8
0
 10
-7.8165
 20
-7.22719
 11
-7.85135
 21
-7.33501
  0
LINE
  8
0
 10
-7.85135
 20
-7.33501
 11
-7.89749
 21
-7.43666
  0
LINE
  8
0
 10
-7.89749
 20
-7.43666
 11
-7.95477
 21
-7.53119
  0
LINE
  8
0
 10
-7.95477
 20
-7.53119
 11
-8.02304
 21
-7.61771
  0
LINE
  8
0
 10
-8.02304
 20
-7.61771
 11
-8.05838
 21
-7.72073
  0
LINE
  8
0
 10
-8.05838
 20
-7.72073
 11
-8.01462
 21
-7.83064
  0
LINE
  8
0
 10
-8.01462
 20
-7.83064
 11
-7.99208
 21
-7.85379
  0
LINE
  8
0
 10
-7.99208
 20
-7.85379
 11
-7.92323
 21
-7.92323
  0
LINE
  8
0
 10
-7.92323
 20
-7.92323
 11
-7.85379
 21
-7.99208
  0
LINE
  8
0
 10
-7.85379
 20
-7.99208
 11
-7.83064
 21
-8.01462
  0
LINE
  8
0
 10
-7.83064
 20
-8.01462
 11
-7.72084
 21
-8.05829
  0
LINE
  8
0
 10
-7.72084
 20
-8.05829
 11
-7.61771
 21
-8.02304
  0
LINE
  8
0
 10
-7.61771
 20
-8.02304
 11
-7.53123
 21
-7.95474
  0
LINE
  8
0
 10
-7.53123
 20
-7.95474
 11
-7.43677
 21
-7.8974
  0
LINE
  8
0
 10
-7.43677
 20
-7.8974
 11
-7.33514
 21
-7.85123
  0
LINE
  8
0
 10
-7.33514
 20
-7.85123
 11
-7.22719
 21
-7.8165
  0
LINE
  8
0
 10
-7.22719
 20
-7.8165
 11
-7.08366
 21
-7.81009
  0
LINE
  8
0
 10
-7.08366
 20
-7.81009
 11
-6.94305
 21
-7.83624
  0
LINE
  8
0
 10
-6.94305
 20
-7.83624
 11
-6.81035
 21
-7.89177
  0
LINE
  8
0
 10
-6.81035
 20
-7.89177
 11
-6.69054
 21
-7.97346
  0
LINE
  8
0
 10
-6.69054
 20
-7.97346
 11
-6.58928
 21
-8.07727
  0
LINE
  8
0
 10
-6.58928
 20
-8.07727
 11
-6.51154
 21
-8.19832
  0
LINE
  8
0
 10
-6.51154
 20
-8.19832
 11
-6.46138
 21
-8.33226
  0
LINE
  8
0
 10
-6.46138
 20
-8.33226
 11
-6.44276
 21
-8.47472
  0
LINE
  8
0
 10
-6.44276
 20
-8.47472
 11
-6.45836
 21
-8.58694
  0
LINE
  8
0
 10
-6.45836
 20
-8.58694
 11
-6.48616
 21
-8.69507
  0
LINE
  8
0
 10
-6.48616
 20
-8.69507
 11
-6.52614
 21
-8.79811
  0
LINE
  8
0
 10
-6.52614
 20
-8.79811
 11
-6.57834
 21
-8.89516
  0
LINE
  8
0
 10
-6.57834
 20
-8.89516
 11
-6.59526
 21
-9.00276
  0
LINE
  8
0
 10
-6.59526
 20
-9.00276
 11
-6.53308
 21
-9.10341
  0
LINE
  8
0
 10
-6.53308
 20
-9.10341
 11
-6.50687
 21
-9.12228
  0
LINE
  8
0
 10
-6.50687
 20
-9.12228
 11
-6.427
 21
-9.17873
  0
LINE
  8
0
 10
-6.427
 20
-9.17873
 11
-6.34666
 21
-9.23445
  0
LINE
  8
0
 10
-6.34666
 20
-9.23445
 11
-6.31996
 21
-9.25264
  0
LINE
  8
0
 10
-6.31996
 20
-9.25264
 11
-6.20424
 21
-9.27658
  0
LINE
  8
0
 10
-6.20424
 20
-9.27658
 11
-6.10878
 21
-9.22395
  0
LINE
  8
0
 10
-6.10878
 20
-9.22395
 11
-6.03549
 21
-9.14168
  0
LINE
  8
0
 10
-6.03549
 20
-9.14168
 11
-5.95242
 21
-9.0688
  0
LINE
  8
0
 10
-5.95242
 20
-9.0688
 11
-5.86035
 21
-9.00569
  0
LINE
  8
0
 10
-5.86035
 20
-9.00569
 11
-5.76007
 21
-8.95274
  0
LINE
  8
0
 10
-5.76007
 20
-8.95274
 11
-5.61984
 21
-8.92151
  0
LINE
  8
0
 10
-5.61984
 20
-8.92151
 11
-5.47682
 21
-8.92284
  0
LINE
  8
0
 10
-5.47682
 20
-8.92284
 11
-5.33649
 21
-8.95448
  0
LINE
  8
0
 10
-5.33649
 20
-8.95448
 11
-5.20432
 21
-9.01413
  0
LINE
  8
0
 10
-5.20432
 20
-9.01413
 11
-5.08656
 21
-9.09879
  0
LINE
  8
0
 10
-5.08656
 20
-9.09879
 11
-4.98898
 21
-9.20448
  0
LINE
  8
0
 10
-4.98898
 20
-9.20448
 11
-4.91634
 21
-9.32768
  0
LINE
  8
0
 10
-4.91634
 20
-9.32768
 11
-4.87326
 21
-9.46474
  0
LINE
  8
0
 10
-4.87326
 20
-9.46474
 11
-4.86913
 21
-9.57797
  0
LINE
  8
0
 10
-4.86913
 20
-9.57797
 11
-4.87773
 21
-9.68927
  0
LINE
  8
0
 10
-4.87773
 20
-9.68927
 11
-4.89922
 21
-9.7977
  0
LINE
  8
0
 10
-4.89922
 20
-9.7977
 11
-4.93378
 21
-9.90234
  0
LINE
  8
0
 10
-4.93378
 20
-9.90234
 11
-4.93175
 21
-10.0112
  0
LINE
  8
0
 10
-4.93175
 20
-10.0112
 11
-4.85303
 21
-10.0996
  0
LINE
  8
0
 10
-4.85303
 20
-10.0996
 11
-4.82393
 21
-10.1136
  0
LINE
  8
0
 10
-4.82393
 20
-10.1136
 11
-4.73549
 21
-10.1553
  0
LINE
  8
0
 10
-4.73549
 20
-10.1553
 11
-4.6467
 21
-10.1962
  0
LINE
  8
0
 10
-4.6467
 20
-10.1962
 11
-4.61723
 21
-10.2095
  0
LINE
  8
0
 10
-4.61723
 20
-10.2095
 11
-4.49911
 21
-10.213
  0
LINE
  8
0
 10
-4.49911
 20
-10.213
 11
-4.41426
 21
-10.1446
  0
LINE
  8
0
 10
-4.41426
 20
-10.1446
 11
-4.35637
 21
-10.0508
  0
LINE
  8
0
 10
-4.35637
 20
-10.0508
 11
-4.28722
 21
-9.96466
  0
LINE
  8
0
 10
-4.28722
 20
-9.96466
 11
-4.20749
 21
-9.88652
  0
LINE
  8
0
 10
-4.20749
 20
-9.88652
 11
-4.11794
 21
-9.81696
  0
LINE
  8
0
 10
-4.11794
 20
-9.81696
 11
-3.98526
 21
-9.76184
  0
LINE
  8
0
 10
-3.98526
 20
-9.76184
 11
-3.84418
 21
-9.73831
  0
LINE
  8
0
 10
-3.84418
 20
-9.73831
 11
-3.70049
 21
-9.74512
  0
LINE
  8
0
 10
-3.70049
 20
-9.74512
 11
-3.55995
 21
-9.78091
  0
LINE
  8
0
 10
-3.55995
 20
-9.78091
 11
-3.42931
 21
-9.84383
  0
LINE
  8
0
 10
-3.42931
 20
-9.84383
 11
-3.31485
 21
-9.93098
  0
LINE
  8
0
 10
-3.31485
 20
-9.93098
 11
-3.22191
 21
-10.0397
  0
LINE
  8
0
 10
-3.22191
 20
-10.0397
 11
-3.15569
 21
-10.1672
  0
LINE
  8
0
 10
-3.15569
 20
-10.1672
 11
-3.13196
 21
-10.278
  0
LINE
  8
0
 10
-3.13196
 20
-10.278
 11
-3.12109
 21
-10.3891
  0
LINE
  8
0
 10
-3.12109
 20
-10.3891
 11
-3.12343
 21
-10.4996
  0
LINE
  8
0
 10
-3.12343
 20
-10.4996
 11
-3.1393
 21
-10.6086
  0
LINE
  8
0
 10
-3.1393
 20
-10.6086
 11
-3.11839
 21
-10.7155
  0
LINE
  8
0
 10
-3.11839
 20
-10.7155
 11
-3.02553
 21
-10.7888
  0
LINE
  8
0
 10
-3.02553
 20
-10.7888
 11
-2.99445
 21
-10.7976
  0
LINE
  8
0
 10
-2.99445
 20
-10.7976
 11
-2.9001
 21
-10.8233
  0
LINE
  8
0
 10
-2.9001
 20
-10.8233
 11
-2.80554
 21
-10.8482
  0
LINE
  8
0
 10
-2.80554
 20
-10.8482
 11
-2.77423
 21
-10.8562
  0
LINE
  8
0
 10
-2.77423
 20
-10.8562
 11
-2.6573
 21
-10.8391
  0
LINE
  8
0
 10
-2.6573
 20
-10.8391
 11
-2.5856
 21
-10.757
  0
LINE
  8
0
 10
-2.5856
 20
-10.757
 11
-2.54486
 21
-10.6546
  0
LINE
  8
0
 10
-2.54486
 20
-10.6546
 11
-2.49173
 21
-10.5577
  0
LINE
  8
0
 10
-2.49173
 20
-10.5577
 11
-2.42679
 21
-10.4669
  0
LINE
  8
0
 10
-2.42679
 20
-10.4669
 11
-2.35068
 21
-10.3829
  0
LINE
  8
0
 10
-2.35068
 20
-10.3829
 11
-2.22958
 21
-10.3056
  0
LINE
  8
0
 10
-2.22958
 20
-10.3056
 11
-2.09474
 21
-10.2579
  0
LINE
  8
0
 10
-2.09474
 20
-10.2579
 11
-1.95204
 21
-10.2397
  0
LINE
  8
0
 10
-1.95204
 20
-10.2397
 11
-1.80743
 21
-10.2505
  0
LINE
  8
0
 10
-1.80743
 20
-10.2505
 11
-1.66783
 21
-10.2898
  0
LINE
  8
0
 10
-1.66783
 20
-10.2898
 11
-1.53999
 21
-10.3557
  0
LINE
  8
0
 10
-1.53999
 20
-10.3557
 11
-1.42958
 21
-10.4466
  0
LINE
  8
0
 10
-1.42958
 20
-10.4466
 11
-1.34222
 21
-10.5607
  0
LINE
  8
0
 10
-1.34222
 20
-10.5607
 11
-1.29962
 21
-10.6657
  0
LINE
  8
0
 10
-1.29962
 20
-10.6657
 11
-1.26964
 21
-10.7732
  0
LINE
  8
0
 10
-1.26964
 20
-10.7732
 11
-1.25275
 21
-10.8825
  0
LINE
  8
0
 10
-1.25275
 20
-10.8825
 11
-1.24944
 21
-10.9926
  0
LINE
  8
0
 10
-1.24944
 20
-10.9926
 11
-1.21028
 21
-11.0943
  0
LINE
  8
0
 10
-1.21028
 20
-11.0943
 11
-1.10609
 21
-11.1503
  0
LINE
  8
0
 10
-1.10609
 20
-11.1503
 11
-1.07396
 21
-11.1536
  0
LINE
  8
0
 10
-1.07396
 20
-11.1536
 11
-0.976593
 21
-11.1625
  0
LINE
  8
0
 10
-0.976593
 20
-11.1625
 11
-0.879135
 21
-11.1706
  0
LINE
  8
0
 10
-0.879135
 20
-11.1706
 11
-0.846924
 21
-11.173
  0
LINE
  8
0
 10
-0.846924
 20
-11.173
 11
-0.734741
 21
-11.1359
  0
LINE
  8
0
 10
-0.734741
 20
-11.1359
 11
-0.678375
 21
-11.0426
  0
LINE
  8
0
 10
-0.678375
 20
-11.0426
 11
-0.656052
 21
-10.9347
  0
LINE
  8
0
 10
-0.656052
 20
-10.9347
 11
-0.620544
 21
-10.83
  0
LINE
  8
0
 10
-0.620544
 20
-10.83
 11
-0.572357
 21
-10.7293
  0
LINE
  8
0
 10
-0.572357
 20
-10.7293
 11
-0.511993
 21
-10.6333
  0
LINE
  8
0
 10
-0.511993
 20
-10.6333
 11
-0.406158
 21
-10.5362
  0
LINE
  8
0
 10
-0.406158
 20
-10.5362
 11
-0.281647
 21
-10.4658
  0
LINE
  8
0
 10
-0.281647
 20
-10.4658
 11
-0.144287
 21
-10.4231
  0
LINE
  8
0
 10
-0.144287
 20
-10.4231
 11
0
 21
-10.4086
  0
LINE
  8
0
 10
0
 20
-10.4086
 11
0.144287
 21
-10.4231
  0
LINE
  8
0
 10
0.144287
 20
-10.4231
 11
0.281647
 21
-10.4658
  0
LINE
  8
0
 10
0.281647
 20
-10.4658
 11
0.406158
 21
-10.5362
  0
LINE
  8
0
 10
0.406158
 20
-10.5362
 11
0.511993
 21
-10.6333
  0
LINE
  8
0
 10
0.511993
 20
-10.6333
 11
0.572189
 21
-10.7293
  0
LINE
  8
0
 10
0.572189
 20
-10.7293
 11
0.620392
 21
-10.83
  0
LINE
  8
0
 10
0.620392
 20
-10.83
 11
0.655991
 21
-10.9347
  0
LINE
  8
0
 10
0.655991
 20
-10.9347
 11
0.678375
 21
-11.0426
  0
LINE
  8
0
 10
0.678375
 20
-11.0426
 11
0.734589
 21
-11.1359
  0
LINE
  8
0
 10
0.734589
 20
-11.1359
 11
0.846924
 21
-11.173
  0
LINE
  8
0
 10
0.846924
 20
-11.173
 11
0.879135
 21
-11.1706
  0
LINE
  8
0
 10
-0.109879
 20
-1.74654
 11
-0.327911
 21
-1.71899
  0
LINE
  8
0
 10
-0.327911
 20
-1.71899
 11
-0.540771
 21
-1.66434
  0
LINE
  8
0
 10
-0.540771
 20
-1.66434
 11
-0.745102
 21
-1.58344
  0
LINE
  8
0
 10
-0.745102
 20
-1.58344
 11
-0.937683
 21
-1.47757
  0
LINE
  8
0
 10
-0.937683
 20
-1.47757
 11
-1.11548
 21
-1.34839
  0
LINE
  8
0
 10
-1.11548
 20
-1.34839
 11
-1.27568
 21
-1.19795
  0
LINE
  8
0
 10
-1.27568
 20
-1.19795
 11
-1.41577
 21
-1.02861
  0
LINE
  8
0
 10
-1.41577
 20
-1.02861
 11
-1.53352
 21
-0.843063
  0
LINE
  8
0
 10
-1.53352
 20
-0.843063
 11
-1.62711
 21
-0.644211
  0
LINE
  8
0
 10
-1.62711
 20
-0.644211
 11
-1.69501
 21
-0.435196
  0
LINE
  8
0
 10
-1.69501
 20
-0.435196
 11
-1.73619
 21
-0.21933
  0
LINE
  8
0
 10
-1.73619
 20
-0.21933
 11
-1.75
 21
0
  0
LINE
  8
0
 10
-1.75
 20
0
 11
-1.73619
 21
0.21933
  0
LINE
  8
0
 10
-1.73619
 20
0.21933
 11
-1.69501
 21
0.435196
  0
LINE
  8
0
 10
-1.69501
 20
0.435196
 11
-1.62711
 21
0.644211
  0
LINE
  8
0
 10
-1.62711
 20
0.644211
 11
-1.53352
 21
0.843063
  0
LINE
  8
0
 10
-1.53352
 20
0.843063
 11
-1.43393
 21
1
  0
LINE
  8
0
 10
-1.43393
 20
1
 11
1.43393
 21
1
  0
LINE
  8
0
 10
1.43393
 20
1
 11
1.53352
 21
0.843063
  0
LINE
  8
0
 10
1.53352
 20
0.843063
 11
1.62711
 21
0.644211
  0
LINE
  8
0
 10
1.62711
 20
0.644211
 11
1.69501
 21
0.435196
  0
LINE
  8
0
 10
1.69501
 20
0.435196
 11
1.73619
 21
0.21933
  0
LINE
  8
0
 10
1.73619
 20
0.21933
 11
1.75
 21
0
  0
LINE
  8
0
 10
1.75
 20
0
 11
1.73619
 21
-0.21933
  0
LINE
  8
0
 10
1.73619
 20
-0.21933
 11
1.69501
 21
-0.435196
  0
LINE
  8
0
 10
1.69501
 20
-0.435196
 11
1.62711
 21
-0.644211
  0
LINE
  8
0
 10
1.62711
 20
-0.644211
 11
1.53352
 21
-0.843063
  0
LINE
  8
0
 10
1.53352
 20
-0.843063
 11
1.41577
 21
-1.02861
  0
LINE
  8
0
 10
1.41577
 20
-1.02861
 11
1.27568
 21
-1.19795
  0
LINE
  8
0
 10
1.27568
 20
-1.19795
 11
1.11548
 21
-1.34839
  0
LINE
  8
0
 10
1.11548
 20
-1.34839
 11
0.937683
 21
-1.47757
  0
LINE
  8
0
 10
0.937683
 20
-1.47757
 11
0.745102
 21
-1.58344
  0
LINE
  8
0
 10
0.745102
 20
-1.58344
 11
0.540771
 21
-1.66434
  0
LINE
  8
0
 10
0.540771
 20
-1.66434
 11
0.327911
 21
-1.71899
  0
LINE
  8
0
 10
0.327911
 20
-1.71899
 11
0.109879
 21
-1.74654
  0
LINE
  8
0
 10
0.109879
 20
-1.74654
 11
-0.109879
 21
-1.74654
  0
ENDSEC
  0
SECTION
  2
OBJECTS
  0
DICTIONARY
  0
ENDSEC
  0
EOF
