  0
SECTION
  2
BLOCKS
  0
ENDSEC
  0
SECTION
  2
ENTITIES
  0
LINE
  8
0
 10
17.9369
 20
32.0886
 11
18.5451
 21
32.2447
  0
LINE
  8
0
 10
18.5451
 20
32.2447
 11
19.1289
 21
32.4759
  0
LINE
  8
0
 10
19.1289
 20
32.4759
 11
19.6791
 21
32.7784
  0
LINE
  8
0
 10
19.6791
 20
32.7784
 11
20.1871
 21
33.1474
  0
LINE
  8
0
 10
20.1871
 20
33.1474
 11
20.6448
 21
33.5773
  0
LINE
  8
0
 10
20.6448
 20
33.5773
 11
21.0451
 21
34.0611
  0
LINE
  8
0
 10
21.0451
 20
34.0611
 11
21.3815
 21
34.5912
  0
LINE
  8
0
 10
21.3815
 20
34.5912
 11
21.6489
 21
35.1594
  0
LINE
  8
0
 10
21.6489
 20
35.1594
 11
21.8429
 21
35.7566
  0
LINE
  8
0
 10
21.8429
 20
35.7566
 11
21.9606
 21
36.3733
  0
LINE
  8
0
 10
21.9606
 20
36.3733
 11
22
 21
37
  0
LINE
  8
0
 10
22
 20
37
 11
22
 21
71
  0
LINE
  8
0
 10
22
 20
71
 11
21.9606
 21
71.6267
  0
LINE
  8
0
 10
21.9606
 20
71.6267
 11
21.8429
 21
72.2434
  0
LINE
  8
0
 10
21.8429
 20
72.2434
 11
21.6489
 21
72.8406
  0
LINE
  8
0
 10
21.6489
 20
72.8406
 11
21.3815
 21
73.4088
  0
LINE
  8
0
 10
21.3815
 20
73.4088
 11
21.0451
 21
73.9389
  0
LINE
  8
0
 10
21.0451
 20
73.9389
 11
20.6448
 21
74.4227
  0
LINE
  8
0
 10
20.6448
 20
74.4227
 11
20.1871
 21
74.8526
  0
LINE
  8
0
 10
20.1871
 20
74.8526
 11
19.6791
 21
75.2216
  0
LINE
  8
0
 10
19.6791
 20
75.2216
 11
19.1289
 21
75.5241
  0
LINE
  8
0
 10
19.1289
 20
75.5241
 11
18.5451
 21
75.7553
  0
LINE
  8
0
 10
18.5451
 20
75.7553
 11
17.9369
 21
75.9114
  0
LINE
  8
0
 10
17.9369
 20
75.9114
 11
17.3139
 21
75.9901
  0
LINE
  8
0
 10
17.3139
 20
75.9901
 11
-17.3139
 21
75.9901
  0
LINE
  8
0
 10
-17.3139
 20
75.9901
 11
-17.9369
 21
75.9114
  0
LINE
  8
0
 10
-17.9369
 20
75.9114
 11
-18.5451
 21
75.7553
  0
LINE
  8
0
 10
-18.5451
 20
75.7553
 11
-19.1289
 21
75.5241
  0
LINE
  8
0
 10
-19.1289
 20
75.5241
 11
-19.6791
 21
75.2216
  0
LINE
  8
0
 10
-19.6791
 20
75.2216
 11
-20.1871
 21
74.8526
  0
LINE
  8
0
 10
-20.1871
 20
74.8526
 11
-20.6448
 21
74.4227
  0
LINE
  8
0
 10
-20.6448
 20
74.4227
 11
-21.0451
 21
73.9389
  0
LINE
  8
0
 10
-21.0451
 20
73.9389
 11
-21.3815
 21
73.4088
  0
LINE
  8
0
 10
-21.3815
 20
73.4088
 11
-21.6489
 21
72.8406
  0
LINE
  8
0
 10
-21.6489
 20
72.8406
 11
-21.8429
 21
72.2434
  0
LINE
  8
0
 10
-21.8429
 20
72.2434
 11
-21.9606
 21
71.6267
  0
LINE
  8
0
 10
-21.9606
 20
71.6267
 11
-22
 21
71
  0
LINE
  8
0
 10
-22
 20
71
 11
-22
 21
37
  0
LINE
  8
0
 10
-22
 20
37
 11
-21.9606
 21
36.3733
  0
LINE
  8
0
 10
-21.9606
 20
36.3733
 11
-21.8429
 21
35.7566
  0
LINE
  8
0
 10
-21.8429
 20
35.7566
 11
-21.6489
 21
35.1594
  0
LINE
  8
0
 10
-21.6489
 20
35.1594
 11
-21.3815
 21
34.5912
  0
LINE
  8
0
 10
-21.3815
 20
34.5912
 11
-21.0451
 21
34.0611
  0
LINE
  8
0
 10
-21.0451
 20
34.0611
 11
-20.6448
 21
33.5773
  0
LINE
  8
0
 10
-20.6448
 20
33.5773
 11
-20.1871
 21
33.1474
  0
LINE
  8
0
 10
-20.1871
 20
33.1474
 11
-19.6791
 21
32.7784
  0
LINE
  8
0
 10
-19.6791
 20
32.7784
 11
-19.1289
 21
32.4759
  0
LINE
  8
0
 10
-19.1289
 20
32.4759
 11
-18.5451
 21
32.2447
  0
LINE
  8
0
 10
-18.5451
 20
32.2447
 11
-17.9369
 21
32.0886
  0
LINE
  8
0
 10
-17.9369
 20
32.0886
 11
-17.3139
 21
32.0099
  0
LINE
  8
0
 10
-17.3139
 20
32.0099
 11
17.3139
 21
32.0099
  0
LINE
  8
0
 10
17.3139
 20
32.0099
 11
17.9369
 21
32.0886
  0
LINE
  8
0
 10
-0.18837
 20
66.0059
 11
-0.562134
 21
66.0531
  0
LINE
  8
0
 10
-0.562134
 20
66.0531
 11
-0.927048
 21
66.1468
  0
LINE
  8
0
 10
-0.927048
 20
66.1468
 11
-1.27733
 21
66.2855
  0
LINE
  8
0
 10
-1.27733
 20
66.2855
 11
-1.60747
 21
66.467
  0
LINE
  8
0
 10
-1.60747
 20
66.467
 11
-1.91226
 21
66.6884
  0
LINE
  8
0
 10
-1.91226
 20
66.6884
 11
-2.1869
 21
66.9464
  0
LINE
  8
0
 10
-2.1869
 20
66.9464
 11
-2.42705
 21
67.2366
  0
LINE
  8
0
 10
-2.42705
 20
67.2366
 11
-2.62891
 21
67.5547
  0
LINE
  8
0
 10
-2.62891
 20
67.5547
 11
-2.78932
 21
67.8956
  0
LINE
  8
0
 10
-2.78932
 20
67.8956
 11
-2.90575
 21
68.2539
  0
LINE
  8
0
 10
-2.90575
 20
68.2539
 11
-2.97633
 21
68.624
  0
LINE
  8
0
 10
-2.97633
 20
68.624
 11
-3
 21
69
  0
LINE
  8
0
 10
-3
 20
69
 11
-2.97633
 21
69.376
  0
LINE
  8
0
 10
-2.97633
 20
69.376
 11
-2.90575
 21
69.7461
  0
LINE
  8
0
 10
-2.90575
 20
69.7461
 11
-2.78932
 21
70.1044
  0
LINE
  8
0
 10
-2.78932
 20
70.1044
 11
-2.62891
 21
70.4453
  0
LINE
  8
0
 10
-2.62891
 20
70.4453
 11
-2.42705
 21
70.7634
  0
LINE
  8
0
 10
-2.42705
 20
70.7634
 11
-2.1869
 21
71.0536
  0
LINE
  8
0
 10
-2.1869
 20
71.0536
 11
-1.91226
 21
71.3115
  0
LINE
  8
0
 10
-1.91226
 20
71.3115
 11
-1.60747
 21
71.533
  0
LINE
  8
0
 10
-1.60747
 20
71.533
 11
-1.27733
 21
71.7145
  0
LINE
  8
0
 10
-1.27733
 20
71.7145
 11
-0.927048
 21
71.8532
  0
LINE
  8
0
 10
-0.927048
 20
71.8532
 11
-0.562134
 21
71.9469
  0
LINE
  8
0
 10
-0.562134
 20
71.9469
 11
-0.18837
 21
71.9941
  0
LINE
  8
0
 10
-0.18837
 20
71.9941
 11
0.18837
 21
71.9941
  0
LINE
  8
0
 10
0.18837
 20
71.9941
 11
0.562134
 21
71.9469
  0
LINE
  8
0
 10
0.562134
 20
71.9469
 11
0.927048
 21
71.8532
  0
LINE
  8
0
 10
0.927048
 20
71.8532
 11
1.27733
 21
71.7145
  0
LINE
  8
0
 10
1.27733
 20
71.7145
 11
1.60747
 21
71.533
  0
LINE
  8
0
 10
1.60747
 20
71.533
 11
1.91226
 21
71.3115
  0
LINE
  8
0
 10
1.91226
 20
71.3115
 11
2.1869
 21
71.0536
  0
LINE
  8
0
 10
2.1869
 20
71.0536
 11
2.42705
 21
70.7634
  0
LINE
  8
0
 10
2.42705
 20
70.7634
 11
2.62891
 21
70.4453
  0
LINE
  8
0
 10
2.62891
 20
70.4453
 11
2.78932
 21
70.1044
  0
LINE
  8
0
 10
2.78932
 20
70.1044
 11
2.90575
 21
69.7461
  0
LINE
  8
0
 10
2.90575
 20
69.7461
 11
2.97633
 21
69.376
  0
LINE
  8
0
 10
2.97633
 20
69.376
 11
3
 21
69
  0
LINE
  8
0
 10
3
 20
69
 11
2.97633
 21
68.624
  0
LINE
  8
0
 10
2.97633
 20
68.624
 11
2.90575
 21
68.2539
  0
LINE
  8
0
 10
2.90575
 20
68.2539
 11
2.78932
 21
67.8956
  0
LINE
  8
0
 10
2.78932
 20
67.8956
 11
2.62891
 21
67.5547
  0
LINE
  8
0
 10
2.62891
 20
67.5547
 11
2.42705
 21
67.2366
  0
LINE
  8
0
 10
2.42705
 20
67.2366
 11
2.1869
 21
66.9464
  0
LINE
  8
0
 10
2.1869
 20
66.9464
 11
1.91226
 21
66.6884
  0
LINE
  8
0
 10
1.91226
 20
66.6884
 11
1.60747
 21
66.467
  0
LINE
  8
0
 10
1.60747
 20
66.467
 11
1.27733
 21
66.2855
  0
LINE
  8
0
 10
1.27733
 20
66.2855
 11
0.927048
 21
66.1468
  0
LINE
  8
0
 10
0.927048
 20
66.1468
 11
0.562134
 21
66.0531
  0
LINE
  8
0
 10
0.562134
 20
66.0531
 11
0.18837
 21
66.0059
  0
LINE
  8
0
 10
0.18837
 20
66.0059
 11
-0.18837
 21
66.0059
  0
LINE
  8
0
 10
-15.1884
 20
66.0059
 11
-15.5621
 21
66.0531
  0
LINE
  8
0
 10
-15.5621
 20
66.0531
 11
-15.927
 21
66.1468
  0
LINE
  8
0
 10
-15.927
 20
66.1468
 11
-16.2773
 21
66.2855
  0
LINE
  8
0
 10
-16.2773
 20
66.2855
 11
-16.6075
 21
66.467
  0
LINE
  8
0
 10
-16.6075
 20
66.467
 11
-16.9123
 21
66.6884
  0
LINE
  8
0
 10
-16.9123
 20
66.6884
 11
-17.1869
 21
66.9464
  0
LINE
  8
0
 10
-17.1869
 20
66.9464
 11
-17.427
 21
67.2366
  0
LINE
  8
0
 10
-17.427
 20
67.2366
 11
-17.6289
 21
67.5547
  0
LINE
  8
0
 10
-17.6289
 20
67.5547
 11
-17.7893
 21
67.8956
  0
LINE
  8
0
 10
-17.7893
 20
67.8956
 11
-17.9057
 21
68.2539
  0
LINE
  8
0
 10
-17.9057
 20
68.2539
 11
-17.9763
 21
68.624
  0
LINE
  8
0
 10
-17.9763
 20
68.624
 11
-18
 21
69
  0
LINE
  8
0
 10
-18
 20
69
 11
-17.9763
 21
69.376
  0
LINE
  8
0
 10
-17.9763
 20
69.376
 11
-17.9057
 21
69.7461
  0
LINE
  8
0
 10
-17.9057
 20
69.7461
 11
-17.7893
 21
70.1044
  0
LINE
  8
0
 10
-17.7893
 20
70.1044
 11
-17.6289
 21
70.4453
  0
LINE
  8
0
 10
-17.6289
 20
70.4453
 11
-17.427
 21
70.7634
  0
LINE
  8
0
 10
-17.427
 20
70.7634
 11
-17.1869
 21
71.0536
  0
LINE
  8
0
 10
-17.1869
 20
71.0536
 11
-16.9123
 21
71.3115
  0
LINE
  8
0
 10
-16.9123
 20
71.3115
 11
-16.6075
 21
71.533
  0
LINE
  8
0
 10
-16.6075
 20
71.533
 11
-16.2773
 21
71.7145
  0
LINE
  8
0
 10
-16.2773
 20
71.7145
 11
-15.927
 21
71.8532
  0
LINE
  8
0
 10
-15.927
 20
71.8532
 11
-15.5621
 21
71.9469
  0
LINE
  8
0
 10
-15.5621
 20
71.9469
 11
-15.1884
 21
71.9941
  0
LINE
  8
0
 10
-15.1884
 20
71.9941
 11
-14.8116
 21
71.9941
  0
LINE
  8
0
 10
-14.8116
 20
71.9941
 11
-14.4379
 21
71.9469
  0
LINE
  8
0
 10
-14.4379
 20
71.9469
 11
-14.0729
 21
71.8532
  0
LINE
  8
0
 10
-14.0729
 20
71.8532
 11
-13.7227
 21
71.7145
  0
LINE
  8
0
 10
-13.7227
 20
71.7145
 11
-13.3925
 21
71.533
  0
LINE
  8
0
 10
-13.3925
 20
71.533
 11
-13.0877
 21
71.3115
  0
LINE
  8
0
 10
-13.0877
 20
71.3115
 11
-12.8131
 21
71.0536
  0
LINE
  8
0
 10
-12.8131
 20
71.0536
 11
-12.5729
 21
70.7634
  0
LINE
  8
0
 10
-12.5729
 20
70.7634
 11
-12.3711
 21
70.4453
  0
LINE
  8
0
 10
-12.3711
 20
70.4453
 11
-12.2107
 21
70.1044
  0
LINE
  8
0
 10
-12.2107
 20
70.1044
 11
-12.0942
 21
69.7461
  0
LINE
  8
0
 10
-12.0942
 20
69.7461
 11
-12.0237
 21
69.376
  0
LINE
  8
0
 10
-12.0237
 20
69.376
 11
-12
 21
69
  0
LINE
  8
0
 10
-12
 20
69
 11
-12.0237
 21
68.624
  0
LINE
  8
0
 10
-12.0237
 20
68.624
 11
-12.0942
 21
68.2539
  0
LINE
  8
0
 10
-12.0942
 20
68.2539
 11
-12.2107
 21
67.8956
  0
LINE
  8
0
 10
-12.2107
 20
67.8956
 11
-12.3711
 21
67.5547
  0
LINE
  8
0
 10
-12.3711
 20
67.5547
 11
-12.5729
 21
67.2366
  0
LINE
  8
0
 10
-12.5729
 20
67.2366
 11
-12.8131
 21
66.9464
  0
LINE
  8
0
 10
-12.8131
 20
66.9464
 11
-13.0877
 21
66.6884
  0
LINE
  8
0
 10
-13.0877
 20
66.6884
 11
-13.3925
 21
66.467
  0
LINE
  8
0
 10
-13.3925
 20
66.467
 11
-13.7227
 21
66.2855
  0
LINE
  8
0
 10
-13.7227
 20
66.2855
 11
-14.0729
 21
66.1468
  0
LINE
  8
0
 10
-14.0729
 20
66.1468
 11
-14.4379
 21
66.0531
  0
LINE
  8
0
 10
-14.4379
 20
66.0531
 11
-14.8116
 21
66.0059
  0
LINE
  8
0
 10
-14.8116
 20
66.0059
 11
-15.1884
 21
66.0059
  0
LINE
  8
0
 10
14.8116
 20
66.0059
 11
14.4379
 21
66.0531
  0
LINE
  8
0
 10
14.4379
 20
66.0531
 11
14.0729
 21
66.1468
  0
LINE
  8
0
 10
14.0729
 20
66.1468
 11
13.7227
 21
66.2855
  0
LINE
  8
0
 10
13.7227
 20
66.2855
 11
13.3925
 21
66.467
  0
LINE
  8
0
 10
13.3925
 20
66.467
 11
13.0877
 21
66.6884
  0
LINE
  8
0
 10
13.0877
 20
66.6884
 11
12.8131
 21
66.9464
  0
LINE
  8
0
 10
12.8131
 20
66.9464
 11
12.5729
 21
67.2366
  0
LINE
  8
0
 10
12.5729
 20
67.2366
 11
12.3711
 21
67.5547
  0
LINE
  8
0
 10
12.3711
 20
67.5547
 11
12.2107
 21
67.8956
  0
LINE
  8
0
 10
12.2107
 20
67.8956
 11
12.0942
 21
68.2539
  0
LINE
  8
0
 10
12.0942
 20
68.2539
 11
12.0237
 21
68.624
  0
LINE
  8
0
 10
12.0237
 20
68.624
 11
12
 21
69
  0
LINE
  8
0
 10
12
 20
69
 11
12.0237
 21
69.376
  0
LINE
  8
0
 10
12.0237
 20
69.376
 11
12.0942
 21
69.7461
  0
LINE
  8
0
 10
12.0942
 20
69.7461
 11
12.2107
 21
70.1044
  0
LINE
  8
0
 10
12.2107
 20
70.1044
 11
12.3711
 21
70.4453
  0
LINE
  8
0
 10
12.3711
 20
70.4453
 11
12.5729
 21
70.7634
  0
LINE
  8
0
 10
12.5729
 20
70.7634
 11
12.8131
 21
71.0536
  0
LINE
  8
0
 10
12.8131
 20
71.0536
 11
13.0877
 21
71.3115
  0
LINE
  8
0
 10
13.0877
 20
71.3115
 11
13.3925
 21
71.533
  0
LINE
  8
0
 10
13.3925
 20
71.533
 11
13.7227
 21
71.7145
  0
LINE
  8
0
 10
13.7227
 20
71.7145
 11
14.0729
 21
71.8532
  0
LINE
  8
0
 10
14.0729
 20
71.8532
 11
14.4379
 21
71.9469
  0
LINE
  8
0
 10
14.4379
 20
71.9469
 11
14.8116
 21
71.9941
  0
LINE
  8
0
 10
14.8116
 20
71.9941
 11
15.1884
 21
71.9941
  0
LINE
  8
0
 10
15.1884
 20
71.9941
 11
15.5621
 21
71.9469
  0
LINE
  8
0
 10
15.5621
 20
71.9469
 11
15.927
 21
71.8532
  0
LINE
  8
0
 10
15.927
 20
71.8532
 11
16.2773
 21
71.7145
  0
LINE
  8
0
 10
16.2773
 20
71.7145
 11
16.6075
 21
71.533
  0
LINE
  8
0
 10
16.6075
 20
71.533
 11
16.9123
 21
71.3115
  0
LINE
  8
0
 10
16.9123
 20
71.3115
 11
17.1869
 21
71.0536
  0
LINE
  8
0
 10
17.1869
 20
71.0536
 11
17.427
 21
70.7634
  0
LINE
  8
0
 10
17.427
 20
70.7634
 11
17.6289
 21
70.4453
  0
LINE
  8
0
 10
17.6289
 20
70.4453
 11
17.7893
 21
70.1044
  0
LINE
  8
0
 10
17.7893
 20
70.1044
 11
17.9057
 21
69.7461
  0
LINE
  8
0
 10
17.9057
 20
69.7461
 11
17.9763
 21
69.376
  0
LINE
  8
0
 10
17.9763
 20
69.376
 11
18
 21
69
  0
LINE
  8
0
 10
18
 20
69
 11
17.9763
 21
68.624
  0
LINE
  8
0
 10
17.9763
 20
68.624
 11
17.9057
 21
68.2539
  0
LINE
  8
0
 10
17.9057
 20
68.2539
 11
17.7893
 21
67.8956
  0
LINE
  8
0
 10
17.7893
 20
67.8956
 11
17.6289
 21
67.5547
  0
LINE
  8
0
 10
17.6289
 20
67.5547
 11
17.427
 21
67.2366
  0
LINE
  8
0
 10
17.427
 20
67.2366
 11
17.1869
 21
66.9464
  0
LINE
  8
0
 10
17.1869
 20
66.9464
 11
16.9123
 21
66.6884
  0
LINE
  8
0
 10
16.9123
 20
66.6884
 11
16.6075
 21
66.467
  0
LINE
  8
0
 10
16.6075
 20
66.467
 11
16.2773
 21
66.2855
  0
LINE
  8
0
 10
16.2773
 20
66.2855
 11
15.927
 21
66.1468
  0
LINE
  8
0
 10
15.927
 20
66.1468
 11
15.5621
 21
66.0531
  0
LINE
  8
0
 10
15.5621
 20
66.0531
 11
15.1884
 21
66.0059
  0
LINE
  8
0
 10
15.1884
 20
66.0059
 11
14.8116
 21
66.0059
  0
LINE
  8
0
 10
7.38696
 20
67.2036
 11
7.1627
 21
67.2319
  0
LINE
  8
0
 10
7.1627
 20
67.2319
 11
6.94376
 21
67.2881
  0
LINE
  8
0
 10
6.94376
 20
67.2881
 11
6.7336
 21
67.3713
  0
LINE
  8
0
 10
6.7336
 20
67.3713
 11
6.53551
 21
67.4802
  0
LINE
  8
0
 10
6.53551
 20
67.4802
 11
6.35263
 21
67.6131
  0
LINE
  8
0
 10
6.35263
 20
67.6131
 11
6.18785
 21
67.7678
  0
LINE
  8
0
 10
6.18785
 20
67.7678
 11
6.04376
 21
67.942
  0
LINE
  8
0
 10
6.04376
 20
67.942
 11
5.92264
 21
68.1328
  0
LINE
  8
0
 10
5.92264
 20
68.1328
 11
5.8264
 21
68.3374
  0
LINE
  8
0
 10
5.8264
 20
68.3374
 11
5.75655
 21
68.5524
  0
LINE
  8
0
 10
5.75655
 20
68.5524
 11
5.71419
 21
68.7744
  0
LINE
  8
0
 10
5.71419
 20
68.7744
 11
5.7
 21
69
  0
LINE
  8
0
 10
5.7
 20
69
 11
5.71419
 21
69.2256
  0
LINE
  8
0
 10
5.71419
 20
69.2256
 11
5.75655
 21
69.4476
  0
LINE
  8
0
 10
5.75655
 20
69.4476
 11
5.8264
 21
69.6626
  0
LINE
  8
0
 10
5.8264
 20
69.6626
 11
5.92264
 21
69.8671
  0
LINE
  8
0
 10
5.92264
 20
69.8671
 11
6.04376
 21
70.058
  0
LINE
  8
0
 10
6.04376
 20
70.058
 11
6.18785
 21
70.2322
  0
LINE
  8
0
 10
6.18785
 20
70.2322
 11
6.35263
 21
70.3869
  0
LINE
  8
0
 10
6.35263
 20
70.3869
 11
6.53551
 21
70.5198
  0
LINE
  8
0
 10
6.53551
 20
70.5198
 11
6.7336
 21
70.6287
  0
LINE
  8
0
 10
6.7336
 20
70.6287
 11
6.94376
 21
70.7119
  0
LINE
  8
0
 10
6.94376
 20
70.7119
 11
7.1627
 21
70.7681
  0
LINE
  8
0
 10
7.1627
 20
70.7681
 11
7.38696
 21
70.7964
  0
LINE
  8
0
 10
7.38696
 20
70.7964
 11
7.61302
 21
70.7964
  0
LINE
  8
0
 10
7.61302
 20
70.7964
 11
7.83728
 21
70.7681
  0
LINE
  8
0
 10
7.83728
 20
70.7681
 11
8.05623
 21
70.7119
  0
LINE
  8
0
 10
8.05623
 20
70.7119
 11
8.26639
 21
70.6287
  0
LINE
  8
0
 10
8.26639
 20
70.6287
 11
8.46448
 21
70.5198
  0
LINE
  8
0
 10
8.46448
 20
70.5198
 11
8.64735
 21
70.3869
  0
LINE
  8
0
 10
8.64735
 20
70.3869
 11
8.81213
 21
70.2322
  0
LINE
  8
0
 10
8.81213
 20
70.2322
 11
8.95622
 21
70.058
  0
LINE
  8
0
 10
8.95622
 20
70.058
 11
9.07735
 21
69.8671
  0
LINE
  8
0
 10
9.07735
 20
69.8671
 11
9.17358
 21
69.6626
  0
LINE
  8
0
 10
9.17358
 20
69.6626
 11
9.24344
 21
69.4476
  0
LINE
  8
0
 10
9.24344
 20
69.4476
 11
9.2858
 21
69.2256
  0
LINE
  8
0
 10
9.2858
 20
69.2256
 11
9.29999
 21
69
  0
LINE
  8
0
 10
9.29999
 20
69
 11
9.2858
 21
68.7744
  0
LINE
  8
0
 10
9.2858
 20
68.7744
 11
9.24344
 21
68.5524
  0
LINE
  8
0
 10
9.24344
 20
68.5524
 11
9.17358
 21
68.3374
  0
LINE
  8
0
 10
9.17358
 20
68.3374
 11
9.07735
 21
68.1328
  0
LINE
  8
0
 10
9.07735
 20
68.1328
 11
8.95622
 21
67.942
  0
LINE
  8
0
 10
8.95622
 20
67.942
 11
8.81213
 21
67.7678
  0
LINE
  8
0
 10
8.81213
 20
67.7678
 11
8.64735
 21
67.6131
  0
LINE
  8
0
 10
8.64735
 20
67.6131
 11
8.46448
 21
67.4802
  0
LINE
  8
0
 10
8.46448
 20
67.4802
 11
8.26639
 21
67.3713
  0
LINE
  8
0
 10
8.26639
 20
67.3713
 11
8.05623
 21
67.2881
  0
LINE
  8
0
 10
8.05623
 20
67.2881
 11
7.83728
 21
67.2319
  0
LINE
  8
0
 10
7.83728
 20
67.2319
 11
7.61302
 21
67.2036
  0
LINE
  8
0
 10
7.61302
 20
67.2036
 11
7.38696
 21
67.2036
  0
LINE
  8
0
 10
-7.59418
 20
67.5029
 11
-7.78107
 21
67.5266
  0
LINE
  8
0
 10
-7.78107
 20
67.5266
 11
-7.96352
 21
67.5734
  0
LINE
  8
0
 10
-7.96352
 20
67.5734
 11
-8.13866
 21
67.6427
  0
LINE
  8
0
 10
-8.13866
 20
67.6427
 11
-8.30373
 21
67.7335
  0
LINE
  8
0
 10
-8.30373
 20
67.7335
 11
-8.45613
 21
67.8442
  0
LINE
  8
0
 10
-8.45613
 20
67.8442
 11
-8.59344
 21
67.9732
  0
LINE
  8
0
 10
-8.59344
 20
67.9732
 11
-8.71352
 21
68.1183
  0
LINE
  8
0
 10
-8.71352
 20
68.1183
 11
-8.81445
 21
68.2774
  0
LINE
  8
0
 10
-8.81445
 20
68.2774
 11
-8.89465
 21
68.4478
  0
LINE
  8
0
 10
-8.89465
 20
68.4478
 11
-8.95287
 21
68.627
  0
LINE
  8
0
 10
-8.95287
 20
68.627
 11
-8.98816
 21
68.812
  0
LINE
  8
0
 10
-8.98816
 20
68.812
 11
-9
 21
69
  0
LINE
  8
0
 10
-9
 20
69
 11
-8.98816
 21
69.188
  0
LINE
  8
0
 10
-8.98816
 20
69.188
 11
-8.95287
 21
69.373
  0
LINE
  8
0
 10
-8.95287
 20
69.373
 11
-8.89465
 21
69.5522
  0
LINE
  8
0
 10
-8.89465
 20
69.5522
 11
-8.81445
 21
69.7226
  0
LINE
  8
0
 10
-8.81445
 20
69.7226
 11
-8.71352
 21
69.8817
  0
LINE
  8
0
 10
-8.71352
 20
69.8817
 11
-8.59344
 21
70.0268
  0
LINE
  8
0
 10
-8.59344
 20
70.0268
 11
-8.45613
 21
70.1558
  0
LINE
  8
0
 10
-8.45613
 20
70.1558
 11
-8.30373
 21
70.2665
  0
LINE
  8
0
 10
-8.30373
 20
70.2665
 11
-8.13866
 21
70.3572
  0
LINE
  8
0
 10
-8.13866
 20
70.3572
 11
-7.96352
 21
70.4266
  0
LINE
  8
0
 10
-7.96352
 20
70.4266
 11
-7.78107
 21
70.4734
  0
LINE
  8
0
 10
-7.78107
 20
70.4734
 11
-7.59418
 21
70.497
  0
LINE
  8
0
 10
-7.59418
 20
70.497
 11
-7.40581
 21
70.497
  0
LINE
  8
0
 10
-7.40581
 20
70.497
 11
-7.21892
 21
70.4734
  0
LINE
  8
0
 10
-7.21892
 20
70.4734
 11
-7.03647
 21
70.4266
  0
LINE
  8
0
 10
-7.03647
 20
70.4266
 11
-6.86133
 21
70.3572
  0
LINE
  8
0
 10
-6.86133
 20
70.3572
 11
-6.69626
 21
70.2665
  0
LINE
  8
0
 10
-6.69626
 20
70.2665
 11
-6.54385
 21
70.1558
  0
LINE
  8
0
 10
-6.54385
 20
70.1558
 11
-6.40654
 21
70.0268
  0
LINE
  8
0
 10
-6.40654
 20
70.0268
 11
-6.28647
 21
69.8817
  0
LINE
  8
0
 10
-6.28647
 20
69.8817
 11
-6.18553
 21
69.7226
  0
LINE
  8
0
 10
-6.18553
 20
69.7226
 11
-6.10533
 21
69.5522
  0
LINE
  8
0
 10
-6.10533
 20
69.5522
 11
-6.04712
 21
69.373
  0
LINE
  8
0
 10
-6.04712
 20
69.373
 11
-6.01183
 21
69.188
  0
LINE
  8
0
 10
-6.01183
 20
69.188
 11
-6
 21
69
  0
LINE
  8
0
 10
-6
 20
69
 11
-6.01183
 21
68.812
  0
LINE
  8
0
 10
-6.01183
 20
68.812
 11
-6.04712
 21
68.627
  0
LINE
  8
0
 10
-6.04712
 20
68.627
 11
-6.10533
 21
68.4478
  0
LINE
  8
0
 10
-6.10533
 20
68.4478
 11
-6.18553
 21
68.2774
  0
LINE
  8
0
 10
-6.18553
 20
68.2774
 11
-6.28647
 21
68.1183
  0
LINE
  8
0
 10
-6.28647
 20
68.1183
 11
-6.40654
 21
67.9732
  0
LINE
  8
0
 10
-6.40654
 20
67.9732
 11
-6.54385
 21
67.8442
  0
LINE
  8
0
 10
-6.54385
 20
67.8442
 11
-6.69626
 21
67.7335
  0
LINE
  8
0
 10
-6.69626
 20
67.7335
 11
-6.86133
 21
67.6427
  0
LINE
  8
0
 10
-6.86133
 20
67.6427
 11
-7.03647
 21
67.5734
  0
LINE
  8
0
 10
-7.03647
 20
67.5734
 11
-7.21892
 21
67.5266
  0
LINE
  8
0
 10
-7.21892
 20
67.5266
 11
-7.40581
 21
67.5029
  0
LINE
  8
0
 10
-7.40581
 20
67.5029
 11
-7.59418
 21
67.5029
  0
LINE
  8
0
 10
-15.0942
 20
60.0029
 11
-15.2811
 21
60.0266
  0
LINE
  8
0
 10
-15.2811
 20
60.0266
 11
-15.4635
 21
60.0734
  0
LINE
  8
0
 10
-15.4635
 20
60.0734
 11
-15.6387
 21
60.1427
  0
LINE
  8
0
 10
-15.6387
 20
60.1427
 11
-15.8037
 21
60.2335
  0
LINE
  8
0
 10
-15.8037
 20
60.2335
 11
-15.9561
 21
60.3442
  0
LINE
  8
0
 10
-15.9561
 20
60.3442
 11
-16.0934
 21
60.4732
  0
LINE
  8
0
 10
-16.0934
 20
60.4732
 11
-16.2135
 21
60.6183
  0
LINE
  8
0
 10
-16.2135
 20
60.6183
 11
-16.3145
 21
60.7774
  0
LINE
  8
0
 10
-16.3145
 20
60.7774
 11
-16.3947
 21
60.9478
  0
LINE
  8
0
 10
-16.3947
 20
60.9478
 11
-16.4529
 21
61.127
  0
LINE
  8
0
 10
-16.4529
 20
61.127
 11
-16.4882
 21
61.312
  0
LINE
  8
0
 10
-16.4882
 20
61.312
 11
-16.5
 21
61.5
  0
LINE
  8
0
 10
-16.5
 20
61.5
 11
-16.4882
 21
61.688
  0
LINE
  8
0
 10
-16.4882
 20
61.688
 11
-16.4529
 21
61.873
  0
LINE
  8
0
 10
-16.4529
 20
61.873
 11
-16.3947
 21
62.0522
  0
LINE
  8
0
 10
-16.3947
 20
62.0522
 11
-16.3145
 21
62.2226
  0
LINE
  8
0
 10
-16.3145
 20
62.2226
 11
-16.2135
 21
62.3817
  0
LINE
  8
0
 10
-16.2135
 20
62.3817
 11
-16.0934
 21
62.5268
  0
LINE
  8
0
 10
-16.0934
 20
62.5268
 11
-15.9561
 21
62.6558
  0
LINE
  8
0
 10
-15.9561
 20
62.6558
 11
-15.8037
 21
62.7665
  0
LINE
  8
0
 10
-15.8037
 20
62.7665
 11
-15.6387
 21
62.8572
  0
LINE
  8
0
 10
-15.6387
 20
62.8572
 11
-15.4635
 21
62.9266
  0
LINE
  8
0
 10
-15.4635
 20
62.9266
 11
-15.2811
 21
62.9734
  0
LINE
  8
0
 10
-15.2811
 20
62.9734
 11
-15.0942
 21
62.997
  0
LINE
  8
0
 10
-15.0942
 20
62.997
 11
-14.9058
 21
62.997
  0
LINE
  8
0
 10
-14.9058
 20
62.997
 11
-14.7189
 21
62.9734
  0
LINE
  8
0
 10
-14.7189
 20
62.9734
 11
-14.5365
 21
62.9266
  0
LINE
  8
0
 10
-14.5365
 20
62.9266
 11
-14.3613
 21
62.8572
  0
LINE
  8
0
 10
-14.3613
 20
62.8572
 11
-14.1963
 21
62.7665
  0
LINE
  8
0
 10
-14.1963
 20
62.7665
 11
-14.0439
 21
62.6558
  0
LINE
  8
0
 10
-14.0439
 20
62.6558
 11
-13.9065
 21
62.5268
  0
LINE
  8
0
 10
-13.9065
 20
62.5268
 11
-13.7865
 21
62.3817
  0
LINE
  8
0
 10
-13.7865
 20
62.3817
 11
-13.6855
 21
62.2226
  0
LINE
  8
0
 10
-13.6855
 20
62.2226
 11
-13.6053
 21
62.0522
  0
LINE
  8
0
 10
-13.6053
 20
62.0522
 11
-13.5471
 21
61.873
  0
LINE
  8
0
 10
-13.5471
 20
61.873
 11
-13.5118
 21
61.688
  0
LINE
  8
0
 10
-13.5118
 20
61.688
 11
-13.5
 21
61.5
  0
LINE
  8
0
 10
-13.5
 20
61.5
 11
-13.5118
 21
61.312
  0
LINE
  8
0
 10
-13.5118
 20
61.312
 11
-13.5471
 21
61.127
  0
LINE
  8
0
 10
-13.5471
 20
61.127
 11
-13.6053
 21
60.9478
  0
LINE
  8
0
 10
-13.6053
 20
60.9478
 11
-13.6855
 21
60.7774
  0
LINE
  8
0
 10
-13.6855
 20
60.7774
 11
-13.7865
 21
60.6183
  0
LINE
  8
0
 10
-13.7865
 20
60.6183
 11
-13.9065
 21
60.4732
  0
LINE
  8
0
 10
-13.9065
 20
60.4732
 11
-14.0439
 21
60.3442
  0
LINE
  8
0
 10
-14.0439
 20
60.3442
 11
-14.1963
 21
60.2335
  0
LINE
  8
0
 10
-14.1963
 20
60.2335
 11
-14.3613
 21
60.1427
  0
LINE
  8
0
 10
-14.3613
 20
60.1427
 11
-14.5365
 21
60.0734
  0
LINE
  8
0
 10
-14.5365
 20
60.0734
 11
-14.7189
 21
60.0266
  0
LINE
  8
0
 10
-14.7189
 20
60.0266
 11
-14.9058
 21
60.0029
  0
LINE
  8
0
 10
-14.9058
 20
60.0029
 11
-15.0942
 21
60.0029
  0
LINE
  8
0
 10
-0.469986
 20
50.2796
 11
-0.932587
 21
50.3678
  0
LINE
  8
0
 10
-0.932587
 20
50.3678
 11
-1.38046
 21
50.5134
  0
LINE
  8
0
 10
-1.38046
 20
50.5134
 11
-1.80656
 21
50.7139
  0
LINE
  8
0
 10
-1.80656
 20
50.7139
 11
-2.20419
 21
50.9662
  0
LINE
  8
0
 10
-2.20419
 20
50.9662
 11
-2.56705
 21
51.2664
  0
LINE
  8
0
 10
-2.56705
 20
51.2664
 11
-2.88942
 21
51.6097
  0
LINE
  8
0
 10
-2.88942
 20
51.6097
 11
-3.16623
 21
51.9907
  0
LINE
  8
0
 10
-3.16623
 20
51.9907
 11
-3.3931
 21
52.4033
  0
LINE
  8
0
 10
-3.3931
 20
52.4033
 11
-3.56645
 21
52.8412
  0
LINE
  8
0
 10
-3.56645
 20
52.8412
 11
-3.68356
 21
53.2973
  0
LINE
  8
0
 10
-3.68356
 20
53.2973
 11
-3.7426
 21
53.7645
  0
LINE
  8
0
 10
-3.7426
 20
53.7645
 11
-3.7426
 21
54.2355
  0
LINE
  8
0
 10
-3.7426
 20
54.2355
 11
-3.68356
 21
54.7027
  0
LINE
  8
0
 10
-3.68356
 20
54.7027
 11
-3.56645
 21
55.1588
  0
LINE
  8
0
 10
-3.56645
 20
55.1588
 11
-3.3931
 21
55.5967
  0
LINE
  8
0
 10
-3.3931
 20
55.5967
 11
-3.16623
 21
56.0093
  0
LINE
  8
0
 10
-3.16623
 20
56.0093
 11
-2.88942
 21
56.3903
  0
LINE
  8
0
 10
-2.88942
 20
56.3903
 11
-2.56705
 21
56.7336
  0
LINE
  8
0
 10
-2.56705
 20
56.7336
 11
-2.20419
 21
57.0338
  0
LINE
  8
0
 10
-2.20419
 20
57.0338
 11
-1.80656
 21
57.2861
  0
LINE
  8
0
 10
-1.80656
 20
57.2861
 11
-1.38046
 21
57.4866
  0
LINE
  8
0
 10
-1.38046
 20
57.4866
 11
-0.932587
 21
57.6322
  0
LINE
  8
0
 10
-0.932587
 20
57.6322
 11
-0.469986
 21
57.7204
  0
LINE
  8
0
 10
-0.469986
 20
57.7204
 11
0
 21
57.75
  0
LINE
  8
0
 10
0
 20
57.75
 11
0.469986
 21
57.7204
  0
LINE
  8
0
 10
0.469986
 20
57.7204
 11
0.932587
 21
57.6322
  0
LINE
  8
0
 10
0.932587
 20
57.6322
 11
1.38046
 21
57.4866
  0
LINE
  8
0
 10
1.38046
 20
57.4866
 11
1.80656
 21
57.2861
  0
LINE
  8
0
 10
1.80656
 20
57.2861
 11
2.20419
 21
57.0338
  0
LINE
  8
0
 10
2.20419
 20
57.0338
 11
2.56705
 21
56.7336
  0
LINE
  8
0
 10
2.56705
 20
56.7336
 11
2.88942
 21
56.3903
  0
LINE
  8
0
 10
2.88942
 20
56.3903
 11
3.16623
 21
56.0093
  0
LINE
  8
0
 10
3.16623
 20
56.0093
 11
3.3931
 21
55.5967
  0
LINE
  8
0
 10
3.3931
 20
55.5967
 11
3.56645
 21
55.1588
  0
LINE
  8
0
 10
3.56645
 20
55.1588
 11
3.68356
 21
54.7027
  0
LINE
  8
0
 10
3.68356
 20
54.7027
 11
3.7426
 21
54.2355
  0
LINE
  8
0
 10
3.7426
 20
54.2355
 11
3.7426
 21
53.7645
  0
LINE
  8
0
 10
3.7426
 20
53.7645
 11
3.68356
 21
53.2973
  0
LINE
  8
0
 10
3.68356
 20
53.2973
 11
3.56645
 21
52.8412
  0
LINE
  8
0
 10
3.56645
 20
52.8412
 11
3.3931
 21
52.4033
  0
LINE
  8
0
 10
3.3931
 20
52.4033
 11
3.16623
 21
51.9907
  0
LINE
  8
0
 10
3.16623
 20
51.9907
 11
2.88942
 21
51.6097
  0
LINE
  8
0
 10
2.88942
 20
51.6097
 11
2.56705
 21
51.2664
  0
LINE
  8
0
 10
2.56705
 20
51.2664
 11
2.20419
 21
50.9662
  0
LINE
  8
0
 10
2.20419
 20
50.9662
 11
1.80656
 21
50.7139
  0
LINE
  8
0
 10
1.80656
 20
50.7139
 11
1.38046
 21
50.5134
  0
LINE
  8
0
 10
1.38046
 20
50.5134
 11
0.932587
 21
50.3678
  0
LINE
  8
0
 10
0.932587
 20
50.3678
 11
0.469986
 21
50.2796
  0
LINE
  8
0
 10
0.469986
 20
50.2796
 11
0
 21
50.25
  0
LINE
  8
0
 10
0
 20
50.25
 11
-0.469986
 21
50.2796
  0
LINE
  8
0
 10
-15.1884
 20
51.0059
 11
-15.5621
 21
51.0531
  0
LINE
  8
0
 10
-15.5621
 20
51.0531
 11
-15.927
 21
51.1468
  0
LINE
  8
0
 10
-15.927
 20
51.1468
 11
-16.2773
 21
51.2855
  0
LINE
  8
0
 10
-16.2773
 20
51.2855
 11
-16.6075
 21
51.467
  0
LINE
  8
0
 10
-16.6075
 20
51.467
 11
-16.9123
 21
51.6885
  0
LINE
  8
0
 10
-16.9123
 20
51.6885
 11
-17.1869
 21
51.9464
  0
LINE
  8
0
 10
-17.1869
 20
51.9464
 11
-17.427
 21
52.2366
  0
LINE
  8
0
 10
-17.427
 20
52.2366
 11
-17.6289
 21
52.5547
  0
LINE
  8
0
 10
-17.6289
 20
52.5547
 11
-17.7893
 21
52.8956
  0
LINE
  8
0
 10
-17.7893
 20
52.8956
 11
-17.9057
 21
53.2539
  0
LINE
  8
0
 10
-17.9057
 20
53.2539
 11
-17.9763
 21
53.624
  0
LINE
  8
0
 10
-17.9763
 20
53.624
 11
-18
 21
54
  0
LINE
  8
0
 10
-18
 20
54
 11
-17.9763
 21
54.376
  0
LINE
  8
0
 10
-17.9763
 20
54.376
 11
-17.9057
 21
54.7461
  0
LINE
  8
0
 10
-17.9057
 20
54.7461
 11
-17.7893
 21
55.1044
  0
LINE
  8
0
 10
-17.7893
 20
55.1044
 11
-17.6289
 21
55.4453
  0
LINE
  8
0
 10
-17.6289
 20
55.4453
 11
-17.427
 21
55.7634
  0
LINE
  8
0
 10
-17.427
 20
55.7634
 11
-17.1869
 21
56.0536
  0
LINE
  8
0
 10
-17.1869
 20
56.0536
 11
-16.9123
 21
56.3115
  0
LINE
  8
0
 10
-16.9123
 20
56.3115
 11
-16.6075
 21
56.533
  0
LINE
  8
0
 10
-16.6075
 20
56.533
 11
-16.2773
 21
56.7145
  0
LINE
  8
0
 10
-16.2773
 20
56.7145
 11
-15.927
 21
56.8532
  0
LINE
  8
0
 10
-15.927
 20
56.8532
 11
-15.5621
 21
56.9469
  0
LINE
  8
0
 10
-15.5621
 20
56.9469
 11
-15.1884
 21
56.9941
  0
LINE
  8
0
 10
-15.1884
 20
56.9941
 11
-14.8116
 21
56.9941
  0
LINE
  8
0
 10
-14.8116
 20
56.9941
 11
-14.4379
 21
56.9469
  0
LINE
  8
0
 10
-14.4379
 20
56.9469
 11
-14.0729
 21
56.8532
  0
LINE
  8
0
 10
-14.0729
 20
56.8532
 11
-13.7227
 21
56.7145
  0
LINE
  8
0
 10
-13.7227
 20
56.7145
 11
-13.3925
 21
56.533
  0
LINE
  8
0
 10
-13.3925
 20
56.533
 11
-13.0877
 21
56.3115
  0
LINE
  8
0
 10
-13.0877
 20
56.3115
 11
-12.8131
 21
56.0536
  0
LINE
  8
0
 10
-12.8131
 20
56.0536
 11
-12.5729
 21
55.7634
  0
LINE
  8
0
 10
-12.5729
 20
55.7634
 11
-12.3711
 21
55.4453
  0
LINE
  8
0
 10
-12.3711
 20
55.4453
 11
-12.2107
 21
55.1044
  0
LINE
  8
0
 10
-12.2107
 20
55.1044
 11
-12.0942
 21
54.7461
  0
LINE
  8
0
 10
-12.0942
 20
54.7461
 11
-12.0237
 21
54.376
  0
LINE
  8
0
 10
-12.0237
 20
54.376
 11
-12
 21
54
  0
LINE
  8
0
 10
-12
 20
54
 11
-12.0237
 21
53.624
  0
LINE
  8
0
 10
-12.0237
 20
53.624
 11
-12.0942
 21
53.2539
  0
LINE
  8
0
 10
-12.0942
 20
53.2539
 11
-12.2107
 21
52.8956
  0
LINE
  8
0
 10
-12.2107
 20
52.8956
 11
-12.3711
 21
52.5547
  0
LINE
  8
0
 10
-12.3711
 20
52.5547
 11
-12.5729
 21
52.2366
  0
LINE
  8
0
 10
-12.5729
 20
52.2366
 11
-12.8131
 21
51.9464
  0
LINE
  8
0
 10
-12.8131
 20
51.9464
 11
-13.0877
 21
51.6885
  0
LINE
  8
0
 10
-13.0877
 20
51.6885
 11
-13.3925
 21
51.467
  0
LINE
  8
0
 10
-13.3925
 20
51.467
 11
-13.7227
 21
51.2855
  0
LINE
  8
0
 10
-13.7227
 20
51.2855
 11
-14.0729
 21
51.1468
  0
LINE
  8
0
 10
-14.0729
 20
51.1468
 11
-14.4379
 21
51.0531
  0
LINE
  8
0
 10
-14.4379
 20
51.0531
 11
-14.8116
 21
51.0059
  0
LINE
  8
0
 10
-14.8116
 20
51.0059
 11
-15.1884
 21
51.0059
  0
LINE
  8
0
 10
-15.0942
 20
45.003
 11
-15.2811
 21
45.0266
  0
LINE
  8
0
 10
-15.2811
 20
45.0266
 11
-15.4635
 21
45.0734
  0
LINE
  8
0
 10
-15.4635
 20
45.0734
 11
-15.6387
 21
45.1428
  0
LINE
  8
0
 10
-15.6387
 20
45.1428
 11
-15.8037
 21
45.2335
  0
LINE
  8
0
 10
-15.8037
 20
45.2335
 11
-15.9561
 21
45.3442
  0
LINE
  8
0
 10
-15.9561
 20
45.3442
 11
-16.0934
 21
45.4732
  0
LINE
  8
0
 10
-16.0934
 20
45.4732
 11
-16.2135
 21
45.6183
  0
LINE
  8
0
 10
-16.2135
 20
45.6183
 11
-16.3145
 21
45.7774
  0
LINE
  8
0
 10
-16.3145
 20
45.7774
 11
-16.3947
 21
45.9478
  0
LINE
  8
0
 10
-16.3947
 20
45.9478
 11
-16.4529
 21
46.127
  0
LINE
  8
0
 10
-16.4529
 20
46.127
 11
-16.4882
 21
46.312
  0
LINE
  8
0
 10
-16.4882
 20
46.312
 11
-16.5
 21
46.5
  0
LINE
  8
0
 10
-16.5
 20
46.5
 11
-16.4882
 21
46.688
  0
LINE
  8
0
 10
-16.4882
 20
46.688
 11
-16.4529
 21
46.873
  0
LINE
  8
0
 10
-16.4529
 20
46.873
 11
-16.3947
 21
47.0522
  0
LINE
  8
0
 10
-16.3947
 20
47.0522
 11
-16.3145
 21
47.2226
  0
LINE
  8
0
 10
-16.3145
 20
47.2226
 11
-16.2135
 21
47.3817
  0
LINE
  8
0
 10
-16.2135
 20
47.3817
 11
-16.0934
 21
47.5268
  0
LINE
  8
0
 10
-16.0934
 20
47.5268
 11
-15.9561
 21
47.6558
  0
LINE
  8
0
 10
-15.9561
 20
47.6558
 11
-15.8037
 21
47.7665
  0
LINE
  8
0
 10
-15.8037
 20
47.7665
 11
-15.6387
 21
47.8573
  0
LINE
  8
0
 10
-15.6387
 20
47.8573
 11
-15.4635
 21
47.9266
  0
LINE
  8
0
 10
-15.4635
 20
47.9266
 11
-15.2811
 21
47.9734
  0
LINE
  8
0
 10
-15.2811
 20
47.9734
 11
-15.0942
 21
47.9971
  0
LINE
  8
0
 10
-15.0942
 20
47.9971
 11
-14.9058
 21
47.9971
  0
LINE
  8
0
 10
-14.9058
 20
47.9971
 11
-14.7189
 21
47.9734
  0
LINE
  8
0
 10
-14.7189
 20
47.9734
 11
-14.5365
 21
47.9266
  0
LINE
  8
0
 10
-14.5365
 20
47.9266
 11
-14.3613
 21
47.8573
  0
LINE
  8
0
 10
-14.3613
 20
47.8573
 11
-14.1963
 21
47.7665
  0
LINE
  8
0
 10
-14.1963
 20
47.7665
 11
-14.0439
 21
47.6558
  0
LINE
  8
0
 10
-14.0439
 20
47.6558
 11
-13.9065
 21
47.5268
  0
LINE
  8
0
 10
-13.9065
 20
47.5268
 11
-13.7865
 21
47.3817
  0
LINE
  8
0
 10
-13.7865
 20
47.3817
 11
-13.6855
 21
47.2226
  0
LINE
  8
0
 10
-13.6855
 20
47.2226
 11
-13.6053
 21
47.0522
  0
LINE
  8
0
 10
-13.6053
 20
47.0522
 11
-13.5471
 21
46.873
  0
LINE
  8
0
 10
-13.5471
 20
46.873
 11
-13.5118
 21
46.688
  0
LINE
  8
0
 10
-13.5118
 20
46.688
 11
-13.5
 21
46.5
  0
LINE
  8
0
 10
-13.5
 20
46.5
 11
-13.5118
 21
46.312
  0
LINE
  8
0
 10
-13.5118
 20
46.312
 11
-13.5471
 21
46.127
  0
LINE
  8
0
 10
-13.5471
 20
46.127
 11
-13.6053
 21
45.9478
  0
LINE
  8
0
 10
-13.6053
 20
45.9478
 11
-13.6855
 21
45.7774
  0
LINE
  8
0
 10
-13.6855
 20
45.7774
 11
-13.7865
 21
45.6183
  0
LINE
  8
0
 10
-13.7865
 20
45.6183
 11
-13.9065
 21
45.4732
  0
LINE
  8
0
 10
-13.9065
 20
45.4732
 11
-14.0439
 21
45.3442
  0
LINE
  8
0
 10
-14.0439
 20
45.3442
 11
-14.1963
 21
45.2335
  0
LINE
  8
0
 10
-14.1963
 20
45.2335
 11
-14.3613
 21
45.1428
  0
LINE
  8
0
 10
-14.3613
 20
45.1428
 11
-14.5365
 21
45.0734
  0
LINE
  8
0
 10
-14.5365
 20
45.0734
 11
-14.7189
 21
45.0266
  0
LINE
  8
0
 10
-14.7189
 20
45.0266
 11
-14.9058
 21
45.003
  0
LINE
  8
0
 10
-14.9058
 20
45.003
 11
-15.0942
 21
45.003
  0
LINE
  8
0
 10
-1.64999
 20
45.15
 11
-1.64999
 21
46.85
  0
LINE
  8
0
 10
-1.64999
 20
46.85
 11
1.64999
 21
46.85
  0
LINE
  8
0
 10
1.64999
 20
46.85
 11
1.64999
 21
45.15
  0
LINE
  8
0
 10
1.64999
 20
45.15
 11
-1.64999
 21
45.15
  0
LINE
  8
0
 10
-15.1884
 20
36.0059
 11
-15.5621
 21
36.0531
  0
LINE
  8
0
 10
-15.5621
 20
36.0531
 11
-15.927
 21
36.1468
  0
LINE
  8
0
 10
-15.927
 20
36.1468
 11
-16.2773
 21
36.2855
  0
LINE
  8
0
 10
-16.2773
 20
36.2855
 11
-16.6075
 21
36.467
  0
LINE
  8
0
 10
-16.6075
 20
36.467
 11
-16.9123
 21
36.6885
  0
LINE
  8
0
 10
-16.9123
 20
36.6885
 11
-17.1869
 21
36.9464
  0
LINE
  8
0
 10
-17.1869
 20
36.9464
 11
-17.427
 21
37.2366
  0
LINE
  8
0
 10
-17.427
 20
37.2366
 11
-17.6289
 21
37.5547
  0
LINE
  8
0
 10
-17.6289
 20
37.5547
 11
-17.7893
 21
37.8956
  0
LINE
  8
0
 10
-17.7893
 20
37.8956
 11
-17.9057
 21
38.2539
  0
LINE
  8
0
 10
-17.9057
 20
38.2539
 11
-17.9763
 21
38.624
  0
LINE
  8
0
 10
-17.9763
 20
38.624
 11
-18
 21
39
  0
LINE
  8
0
 10
-18
 20
39
 11
-17.9763
 21
39.376
  0
LINE
  8
0
 10
-17.9763
 20
39.376
 11
-17.9057
 21
39.7461
  0
LINE
  8
0
 10
-17.9057
 20
39.7461
 11
-17.7893
 21
40.1044
  0
LINE
  8
0
 10
-17.7893
 20
40.1044
 11
-17.6289
 21
40.4453
  0
LINE
  8
0
 10
-17.6289
 20
40.4453
 11
-17.427
 21
40.7634
  0
LINE
  8
0
 10
-17.427
 20
40.7634
 11
-17.1869
 21
41.0536
  0
LINE
  8
0
 10
-17.1869
 20
41.0536
 11
-16.9123
 21
41.3116
  0
LINE
  8
0
 10
-16.9123
 20
41.3116
 11
-16.6075
 21
41.533
  0
LINE
  8
0
 10
-16.6075
 20
41.533
 11
-16.2773
 21
41.7145
  0
LINE
  8
0
 10
-16.2773
 20
41.7145
 11
-15.927
 21
41.8532
  0
LINE
  8
0
 10
-15.927
 20
41.8532
 11
-15.5621
 21
41.9469
  0
LINE
  8
0
 10
-15.5621
 20
41.9469
 11
-15.1884
 21
41.9941
  0
LINE
  8
0
 10
-15.1884
 20
41.9941
 11
-14.8116
 21
41.9941
  0
LINE
  8
0
 10
-14.8116
 20
41.9941
 11
-14.4379
 21
41.9469
  0
LINE
  8
0
 10
-14.4379
 20
41.9469
 11
-14.0729
 21
41.8532
  0
LINE
  8
0
 10
-14.0729
 20
41.8532
 11
-13.7227
 21
41.7145
  0
LINE
  8
0
 10
-13.7227
 20
41.7145
 11
-13.3925
 21
41.533
  0
LINE
  8
0
 10
-13.3925
 20
41.533
 11
-13.0877
 21
41.3116
  0
LINE
  8
0
 10
-13.0877
 20
41.3116
 11
-12.8131
 21
41.0536
  0
LINE
  8
0
 10
-12.8131
 20
41.0536
 11
-12.5729
 21
40.7634
  0
LINE
  8
0
 10
-12.5729
 20
40.7634
 11
-12.3711
 21
40.4453
  0
LINE
  8
0
 10
-12.3711
 20
40.4453
 11
-12.2107
 21
40.1044
  0
LINE
  8
0
 10
-12.2107
 20
40.1044
 11
-12.0942
 21
39.7461
  0
LINE
  8
0
 10
-12.0942
 20
39.7461
 11
-12.0237
 21
39.376
  0
LINE
  8
0
 10
-12.0237
 20
39.376
 11
-12
 21
39
  0
LINE
  8
0
 10
-12
 20
39
 11
-12.0237
 21
38.624
  0
LINE
  8
0
 10
-12.0237
 20
38.624
 11
-12.0942
 21
38.2539
  0
LINE
  8
0
 10
-12.0942
 20
38.2539
 11
-12.2107
 21
37.8956
  0
LINE
  8
0
 10
-12.2107
 20
37.8956
 11
-12.3711
 21
37.5547
  0
LINE
  8
0
 10
-12.3711
 20
37.5547
 11
-12.5729
 21
37.2366
  0
LINE
  8
0
 10
-12.5729
 20
37.2366
 11
-12.8131
 21
36.9464
  0
LINE
  8
0
 10
-12.8131
 20
36.9464
 11
-13.0877
 21
36.6885
  0
LINE
  8
0
 10
-13.0877
 20
36.6885
 11
-13.3925
 21
36.467
  0
LINE
  8
0
 10
-13.3925
 20
36.467
 11
-13.7227
 21
36.2855
  0
LINE
  8
0
 10
-13.7227
 20
36.2855
 11
-14.0729
 21
36.1468
  0
LINE
  8
0
 10
-14.0729
 20
36.1468
 11
-14.4379
 21
36.0531
  0
LINE
  8
0
 10
-14.4379
 20
36.0531
 11
-14.8116
 21
36.0059
  0
LINE
  8
0
 10
-14.8116
 20
36.0059
 11
-15.1884
 21
36.0059
  0
LINE
  8
0
 10
-0.18837
 20
36.0059
 11
-0.562134
 21
36.0531
  0
LINE
  8
0
 10
-0.562134
 20
36.0531
 11
-0.927048
 21
36.1468
  0
LINE
  8
0
 10
-0.927048
 20
36.1468
 11
-1.27733
 21
36.2855
  0
LINE
  8
0
 10
-1.27733
 20
36.2855
 11
-1.60747
 21
36.467
  0
LINE
  8
0
 10
-1.60747
 20
36.467
 11
-1.91226
 21
36.6885
  0
LINE
  8
0
 10
-1.91226
 20
36.6885
 11
-2.1869
 21
36.9464
  0
LINE
  8
0
 10
-2.1869
 20
36.9464
 11
-2.42705
 21
37.2366
  0
LINE
  8
0
 10
-2.42705
 20
37.2366
 11
-2.62891
 21
37.5547
  0
LINE
  8
0
 10
-2.62891
 20
37.5547
 11
-2.78932
 21
37.8956
  0
LINE
  8
0
 10
-2.78932
 20
37.8956
 11
-2.90575
 21
38.2539
  0
LINE
  8
0
 10
-2.90575
 20
38.2539
 11
-2.97633
 21
38.624
  0
LINE
  8
0
 10
-2.97633
 20
38.624
 11
-3
 21
39
  0
LINE
  8
0
 10
-3
 20
39
 11
-2.97633
 21
39.376
  0
LINE
  8
0
 10
-2.97633
 20
39.376
 11
-2.90575
 21
39.7461
  0
LINE
  8
0
 10
-2.90575
 20
39.7461
 11
-2.78932
 21
40.1044
  0
LINE
  8
0
 10
-2.78932
 20
40.1044
 11
-2.62891
 21
40.4453
  0
LINE
  8
0
 10
-2.62891
 20
40.4453
 11
-2.42705
 21
40.7634
  0
LINE
  8
0
 10
-2.42705
 20
40.7634
 11
-2.1869
 21
41.0536
  0
LINE
  8
0
 10
-2.1869
 20
41.0536
 11
-1.91226
 21
41.3116
  0
LINE
  8
0
 10
-1.91226
 20
41.3116
 11
-1.60747
 21
41.533
  0
LINE
  8
0
 10
-1.60747
 20
41.533
 11
-1.27733
 21
41.7145
  0
LINE
  8
0
 10
-1.27733
 20
41.7145
 11
-0.927048
 21
41.8532
  0
LINE
  8
0
 10
-0.927048
 20
41.8532
 11
-0.562134
 21
41.9469
  0
LINE
  8
0
 10
-0.562134
 20
41.9469
 11
-0.18837
 21
41.9941
  0
LINE
  8
0
 10
-0.18837
 20
41.9941
 11
0.18837
 21
41.9941
  0
LINE
  8
0
 10
0.18837
 20
41.9941
 11
0.562134
 21
41.9469
  0
LINE
  8
0
 10
0.562134
 20
41.9469
 11
0.927048
 21
41.8532
  0
LINE
  8
0
 10
0.927048
 20
41.8532
 11
1.27733
 21
41.7145
  0
LINE
  8
0
 10
1.27733
 20
41.7145
 11
1.60747
 21
41.533
  0
LINE
  8
0
 10
1.60747
 20
41.533
 11
1.91226
 21
41.3116
  0
LINE
  8
0
 10
1.91226
 20
41.3116
 11
2.1869
 21
41.0536
  0
LINE
  8
0
 10
2.1869
 20
41.0536
 11
2.42705
 21
40.7634
  0
LINE
  8
0
 10
2.42705
 20
40.7634
 11
2.62891
 21
40.4453
  0
LINE
  8
0
 10
2.62891
 20
40.4453
 11
2.78932
 21
40.1044
  0
LINE
  8
0
 10
2.78932
 20
40.1044
 11
2.90575
 21
39.7461
  0
LINE
  8
0
 10
2.90575
 20
39.7461
 11
2.97633
 21
39.376
  0
LINE
  8
0
 10
2.97633
 20
39.376
 11
3
 21
39
  0
LINE
  8
0
 10
3
 20
39
 11
2.97633
 21
38.624
  0
LINE
  8
0
 10
2.97633
 20
38.624
 11
2.90575
 21
38.2539
  0
LINE
  8
0
 10
2.90575
 20
38.2539
 11
2.78932
 21
37.8956
  0
LINE
  8
0
 10
2.78932
 20
37.8956
 11
2.62891
 21
37.5547
  0
LINE
  8
0
 10
2.62891
 20
37.5547
 11
2.42705
 21
37.2366
  0
LINE
  8
0
 10
2.42705
 20
37.2366
 11
2.1869
 21
36.9464
  0
LINE
  8
0
 10
2.1869
 20
36.9464
 11
1.91226
 21
36.6885
  0
LINE
  8
0
 10
1.91226
 20
36.6885
 11
1.60747
 21
36.467
  0
LINE
  8
0
 10
1.60747
 20
36.467
 11
1.27733
 21
36.2855
  0
LINE
  8
0
 10
1.27733
 20
36.2855
 11
0.927048
 21
36.1468
  0
LINE
  8
0
 10
0.927048
 20
36.1468
 11
0.562134
 21
36.0531
  0
LINE
  8
0
 10
0.562134
 20
36.0531
 11
0.18837
 21
36.0059
  0
LINE
  8
0
 10
0.18837
 20
36.0059
 11
-0.18837
 21
36.0059
  0
LINE
  8
0
 10
14.8116
 20
36.0059
 11
14.4379
 21
36.0531
  0
LINE
  8
0
 10
14.4379
 20
36.0531
 11
14.0729
 21
36.1468
  0
LINE
  8
0
 10
14.0729
 20
36.1468
 11
13.7227
 21
36.2855
  0
LINE
  8
0
 10
13.7227
 20
36.2855
 11
13.3925
 21
36.467
  0
LINE
  8
0
 10
13.3925
 20
36.467
 11
13.0877
 21
36.6885
  0
LINE
  8
0
 10
13.0877
 20
36.6885
 11
12.8131
 21
36.9464
  0
LINE
  8
0
 10
12.8131
 20
36.9464
 11
12.5729
 21
37.2366
  0
LINE
  8
0
 10
12.5729
 20
37.2366
 11
12.3711
 21
37.5547
  0
LINE
  8
0
 10
12.3711
 20
37.5547
 11
12.2107
 21
37.8956
  0
LINE
  8
0
 10
12.2107
 20
37.8956
 11
12.0942
 21
38.2539
  0
LINE
  8
0
 10
12.0942
 20
38.2539
 11
12.0237
 21
38.624
  0
LINE
  8
0
 10
12.0237
 20
38.624
 11
12
 21
39
  0
LINE
  8
0
 10
12
 20
39
 11
12.0237
 21
39.376
  0
LINE
  8
0
 10
12.0237
 20
39.376
 11
12.0942
 21
39.7461
  0
LINE
  8
0
 10
12.0942
 20
39.7461
 11
12.2107
 21
40.1044
  0
LINE
  8
0
 10
12.2107
 20
40.1044
 11
12.3711
 21
40.4453
  0
LINE
  8
0
 10
12.3711
 20
40.4453
 11
12.5729
 21
40.7634
  0
LINE
  8
0
 10
12.5729
 20
40.7634
 11
12.8131
 21
41.0536
  0
LINE
  8
0
 10
12.8131
 20
41.0536
 11
13.0877
 21
41.3116
  0
LINE
  8
0
 10
13.0877
 20
41.3116
 11
13.3925
 21
41.533
  0
LINE
  8
0
 10
13.3925
 20
41.533
 11
13.7227
 21
41.7145
  0
LINE
  8
0
 10
13.7227
 20
41.7145
 11
14.0729
 21
41.8532
  0
LINE
  8
0
 10
14.0729
 20
41.8532
 11
14.4379
 21
41.9469
  0
LINE
  8
0
 10
14.4379
 20
41.9469
 11
14.8116
 21
41.9941
  0
LINE
  8
0
 10
14.8116
 20
41.9941
 11
15.1884
 21
41.9941
  0
LINE
  8
0
 10
15.1884
 20
41.9941
 11
15.5621
 21
41.9469
  0
LINE
  8
0
 10
15.5621
 20
41.9469
 11
15.927
 21
41.8532
  0
LINE
  8
0
 10
15.927
 20
41.8532
 11
16.2773
 21
41.7145
  0
LINE
  8
0
 10
16.2773
 20
41.7145
 11
16.6075
 21
41.533
  0
LINE
  8
0
 10
16.6075
 20
41.533
 11
16.9123
 21
41.3116
  0
LINE
  8
0
 10
16.9123
 20
41.3116
 11
17.1869
 21
41.0536
  0
LINE
  8
0
 10
17.1869
 20
41.0536
 11
17.427
 21
40.7634
  0
LINE
  8
0
 10
17.427
 20
40.7634
 11
17.6289
 21
40.4453
  0
LINE
  8
0
 10
17.6289
 20
40.4453
 11
17.7893
 21
40.1044
  0
LINE
  8
0
 10
17.7893
 20
40.1044
 11
17.9057
 21
39.7461
  0
LINE
  8
0
 10
17.9057
 20
39.7461
 11
17.9763
 21
39.376
  0
LINE
  8
0
 10
17.9763
 20
39.376
 11
18
 21
39
  0
LINE
  8
0
 10
18
 20
39
 11
17.9763
 21
38.624
  0
LINE
  8
0
 10
17.9763
 20
38.624
 11
17.9057
 21
38.2539
  0
LINE
  8
0
 10
17.9057
 20
38.2539
 11
17.7893
 21
37.8956
  0
LINE
  8
0
 10
17.7893
 20
37.8956
 11
17.6289
 21
37.5547
  0
LINE
  8
0
 10
17.6289
 20
37.5547
 11
17.427
 21
37.2366
  0
LINE
  8
0
 10
17.427
 20
37.2366
 11
17.1869
 21
36.9464
  0
LINE
  8
0
 10
17.1869
 20
36.9464
 11
16.9123
 21
36.6885
  0
LINE
  8
0
 10
16.9123
 20
36.6885
 11
16.6075
 21
36.467
  0
LINE
  8
0
 10
16.6075
 20
36.467
 11
16.2773
 21
36.2855
  0
LINE
  8
0
 10
16.2773
 20
36.2855
 11
15.927
 21
36.1468
  0
LINE
  8
0
 10
15.927
 20
36.1468
 11
15.5621
 21
36.0531
  0
LINE
  8
0
 10
15.5621
 20
36.0531
 11
15.1884
 21
36.0059
  0
LINE
  8
0
 10
15.1884
 20
36.0059
 11
14.8116
 21
36.0059
  0
LINE
  8
0
 10
7.38696
 20
37.2036
 11
7.1627
 21
37.2319
  0
LINE
  8
0
 10
7.1627
 20
37.2319
 11
6.94376
 21
37.2881
  0
LINE
  8
0
 10
6.94376
 20
37.2881
 11
6.7336
 21
37.3713
  0
LINE
  8
0
 10
6.7336
 20
37.3713
 11
6.53551
 21
37.4802
  0
LINE
  8
0
 10
6.53551
 20
37.4802
 11
6.35263
 21
37.6131
  0
LINE
  8
0
 10
6.35263
 20
37.6131
 11
6.18785
 21
37.7678
  0
LINE
  8
0
 10
6.18785
 20
37.7678
 11
6.04376
 21
37.942
  0
LINE
  8
0
 10
6.04376
 20
37.942
 11
5.92264
 21
38.1329
  0
LINE
  8
0
 10
5.92264
 20
38.1329
 11
5.8264
 21
38.3374
  0
LINE
  8
0
 10
5.8264
 20
38.3374
 11
5.75655
 21
38.5524
  0
LINE
  8
0
 10
5.75655
 20
38.5524
 11
5.71419
 21
38.7744
  0
LINE
  8
0
 10
5.71419
 20
38.7744
 11
5.7
 21
39
  0
LINE
  8
0
 10
5.7
 20
39
 11
5.71419
 21
39.2256
  0
LINE
  8
0
 10
5.71419
 20
39.2256
 11
5.75655
 21
39.4476
  0
LINE
  8
0
 10
5.75655
 20
39.4476
 11
5.8264
 21
39.6626
  0
LINE
  8
0
 10
5.8264
 20
39.6626
 11
5.92264
 21
39.8672
  0
LINE
  8
0
 10
5.92264
 20
39.8672
 11
6.04376
 21
40.058
  0
LINE
  8
0
 10
6.04376
 20
40.058
 11
6.18785
 21
40.2322
  0
LINE
  8
0
 10
6.18785
 20
40.2322
 11
6.35263
 21
40.3869
  0
LINE
  8
0
 10
6.35263
 20
40.3869
 11
6.53551
 21
40.5198
  0
LINE
  8
0
 10
6.53551
 20
40.5198
 11
6.7336
 21
40.6287
  0
LINE
  8
0
 10
6.7336
 20
40.6287
 11
6.94376
 21
40.7119
  0
LINE
  8
0
 10
6.94376
 20
40.7119
 11
7.1627
 21
40.7681
  0
LINE
  8
0
 10
7.1627
 20
40.7681
 11
7.38696
 21
40.7964
  0
LINE
  8
0
 10
7.38696
 20
40.7964
 11
7.61302
 21
40.7964
  0
LINE
  8
0
 10
7.61302
 20
40.7964
 11
7.83728
 21
40.7681
  0
LINE
  8
0
 10
7.83728
 20
40.7681
 11
8.05623
 21
40.7119
  0
LINE
  8
0
 10
8.05623
 20
40.7119
 11
8.26639
 21
40.6287
  0
LINE
  8
0
 10
8.26639
 20
40.6287
 11
8.46448
 21
40.5198
  0
LINE
  8
0
 10
8.46448
 20
40.5198
 11
8.64735
 21
40.3869
  0
LINE
  8
0
 10
8.64735
 20
40.3869
 11
8.81213
 21
40.2322
  0
LINE
  8
0
 10
8.81213
 20
40.2322
 11
8.95622
 21
40.058
  0
LINE
  8
0
 10
8.95622
 20
40.058
 11
9.07735
 21
39.8672
  0
LINE
  8
0
 10
9.07735
 20
39.8672
 11
9.17358
 21
39.6626
  0
LINE
  8
0
 10
9.17358
 20
39.6626
 11
9.24344
 21
39.4476
  0
LINE
  8
0
 10
9.24344
 20
39.4476
 11
9.2858
 21
39.2256
  0
LINE
  8
0
 10
9.2858
 20
39.2256
 11
9.29999
 21
39
  0
LINE
  8
0
 10
9.29999
 20
39
 11
9.2858
 21
38.7744
  0
LINE
  8
0
 10
9.2858
 20
38.7744
 11
9.24344
 21
38.5524
  0
LINE
  8
0
 10
9.24344
 20
38.5524
 11
9.17358
 21
38.3374
  0
LINE
  8
0
 10
9.17358
 20
38.3374
 11
9.07735
 21
38.1329
  0
LINE
  8
0
 10
9.07735
 20
38.1329
 11
8.95622
 21
37.942
  0
LINE
  8
0
 10
8.95622
 20
37.942
 11
8.81213
 21
37.7678
  0
LINE
  8
0
 10
8.81213
 20
37.7678
 11
8.64735
 21
37.6131
  0
LINE
  8
0
 10
8.64735
 20
37.6131
 11
8.46448
 21
37.4802
  0
LINE
  8
0
 10
8.46448
 20
37.4802
 11
8.26639
 21
37.3713
  0
LINE
  8
0
 10
8.26639
 20
37.3713
 11
8.05623
 21
37.2881
  0
LINE
  8
0
 10
8.05623
 20
37.2881
 11
7.83728
 21
37.2319
  0
LINE
  8
0
 10
7.83728
 20
37.2319
 11
7.61302
 21
37.2036
  0
LINE
  8
0
 10
7.61302
 20
37.2036
 11
7.38696
 21
37.2036
  0
LINE
  8
0
 10
-7.59418
 20
37.503
 11
-7.78107
 21
37.5266
  0
LINE
  8
0
 10
-7.78107
 20
37.5266
 11
-7.96352
 21
37.5734
  0
LINE
  8
0
 10
-7.96352
 20
37.5734
 11
-8.13866
 21
37.6428
  0
LINE
  8
0
 10
-8.13866
 20
37.6428
 11
-8.30373
 21
37.7335
  0
LINE
  8
0
 10
-8.30373
 20
37.7335
 11
-8.45613
 21
37.8442
  0
LINE
  8
0
 10
-8.45613
 20
37.8442
 11
-8.59344
 21
37.9732
  0
LINE
  8
0
 10
-8.59344
 20
37.9732
 11
-8.71352
 21
38.1183
  0
LINE
  8
0
 10
-8.71352
 20
38.1183
 11
-8.81445
 21
38.2774
  0
LINE
  8
0
 10
-8.81445
 20
38.2774
 11
-8.89465
 21
38.4478
  0
LINE
  8
0
 10
-8.89465
 20
38.4478
 11
-8.95287
 21
38.627
  0
LINE
  8
0
 10
-8.95287
 20
38.627
 11
-8.98816
 21
38.812
  0
LINE
  8
0
 10
-8.98816
 20
38.812
 11
-9
 21
39
  0
LINE
  8
0
 10
-9
 20
39
 11
-8.98816
 21
39.188
  0
LINE
  8
0
 10
-8.98816
 20
39.188
 11
-8.95287
 21
39.373
  0
LINE
  8
0
 10
-8.95287
 20
39.373
 11
-8.89465
 21
39.5522
  0
LINE
  8
0
 10
-8.89465
 20
39.5522
 11
-8.81445
 21
39.7226
  0
LINE
  8
0
 10
-8.81445
 20
39.7226
 11
-8.71352
 21
39.8817
  0
LINE
  8
0
 10
-8.71352
 20
39.8817
 11
-8.59344
 21
40.0268
  0
LINE
  8
0
 10
-8.59344
 20
40.0268
 11
-8.45613
 21
40.1558
  0
LINE
  8
0
 10
-8.45613
 20
40.1558
 11
-8.30373
 21
40.2665
  0
LINE
  8
0
 10
-8.30373
 20
40.2665
 11
-8.13866
 21
40.3573
  0
LINE
  8
0
 10
-8.13866
 20
40.3573
 11
-7.96352
 21
40.4266
  0
LINE
  8
0
 10
-7.96352
 20
40.4266
 11
-7.78107
 21
40.4734
  0
LINE
  8
0
 10
-7.78107
 20
40.4734
 11
-7.59418
 21
40.4971
  0
LINE
  8
0
 10
-7.59418
 20
40.4971
 11
-7.40581
 21
40.4971
  0
LINE
  8
0
 10
-7.40581
 20
40.4971
 11
-7.21892
 21
40.4734
  0
LINE
  8
0
 10
-7.21892
 20
40.4734
 11
-7.03647
 21
40.4266
  0
LINE
  8
0
 10
-7.03647
 20
40.4266
 11
-6.86133
 21
40.3573
  0
LINE
  8
0
 10
-6.86133
 20
40.3573
 11
-6.69626
 21
40.2665
  0
LINE
  8
0
 10
-6.69626
 20
40.2665
 11
-6.54385
 21
40.1558
  0
LINE
  8
0
 10
-6.54385
 20
40.1558
 11
-6.40654
 21
40.0268
  0
LINE
  8
0
 10
-6.40654
 20
40.0268
 11
-6.28647
 21
39.8817
  0
LINE
  8
0
 10
-6.28647
 20
39.8817
 11
-6.18553
 21
39.7226
  0
LINE
  8
0
 10
-6.18553
 20
39.7226
 11
-6.10533
 21
39.5522
  0
LINE
  8
0
 10
-6.10533
 20
39.5522
 11
-6.04712
 21
39.373
  0
LINE
  8
0
 10
-6.04712
 20
39.373
 11
-6.01183
 21
39.188
  0
LINE
  8
0
 10
-6.01183
 20
39.188
 11
-6
 21
39
  0
LINE
  8
0
 10
-6
 20
39
 11
-6.01183
 21
38.812
  0
LINE
  8
0
 10
-6.01183
 20
38.812
 11
-6.04712
 21
38.627
  0
LINE
  8
0
 10
-6.04712
 20
38.627
 11
-6.10533
 21
38.4478
  0
LINE
  8
0
 10
-6.10533
 20
38.4478
 11
-6.18553
 21
38.2774
  0
LINE
  8
0
 10
-6.18553
 20
38.2774
 11
-6.28647
 21
38.1183
  0
LINE
  8
0
 10
-6.28647
 20
38.1183
 11
-6.40654
 21
37.9732
  0
LINE
  8
0
 10
-6.40654
 20
37.9732
 11
-6.54385
 21
37.8442
  0
LINE
  8
0
 10
-6.54385
 20
37.8442
 11
-6.69626
 21
37.7335
  0
LINE
  8
0
 10
-6.69626
 20
37.7335
 11
-6.86133
 21
37.6428
  0
LINE
  8
0
 10
-6.86133
 20
37.6428
 11
-7.03647
 21
37.5734
  0
LINE
  8
0
 10
-7.03647
 20
37.5734
 11
-7.21892
 21
37.5266
  0
LINE
  8
0
 10
-7.21892
 20
37.5266
 11
-7.40581
 21
37.503
  0
LINE
  8
0
 10
-7.40581
 20
37.503
 11
-7.59418
 21
37.503
  0
LINE
  8
0
 10
17.9369
 20
-21.9114
 11
18.5451
 21
-21.7553
  0
LINE
  8
0
 10
18.5451
 20
-21.7553
 11
19.1289
 21
-21.5241
  0
LINE
  8
0
 10
19.1289
 20
-21.5241
 11
19.6791
 21
-21.2216
  0
LINE
  8
0
 10
19.6791
 20
-21.2216
 11
20.1871
 21
-20.8526
  0
LINE
  8
0
 10
20.1871
 20
-20.8526
 11
20.6448
 21
-20.4227
  0
LINE
  8
0
 10
20.6448
 20
-20.4227
 11
21.0451
 21
-19.9389
  0
LINE
  8
0
 10
21.0451
 20
-19.9389
 11
21.3815
 21
-19.4088
  0
LINE
  8
0
 10
21.3815
 20
-19.4088
 11
21.6489
 21
-18.8406
  0
LINE
  8
0
 10
21.6489
 20
-18.8406
 11
21.8429
 21
-18.2434
  0
LINE
  8
0
 10
21.8429
 20
-18.2434
 11
21.9606
 21
-17.6267
  0
LINE
  8
0
 10
21.9606
 20
-17.6267
 11
22
 21
-17
  0
LINE
  8
0
 10
22
 20
-17
 11
22
 21
17
  0
LINE
  8
0
 10
22
 20
17
 11
21.9606
 21
17.6267
  0
LINE
  8
0
 10
21.9606
 20
17.6267
 11
21.8429
 21
18.2434
  0
LINE
  8
0
 10
21.8429
 20
18.2434
 11
21.6489
 21
18.8406
  0
LINE
  8
0
 10
21.6489
 20
18.8406
 11
21.3815
 21
19.4088
  0
LINE
  8
0
 10
21.3815
 20
19.4088
 11
21.0451
 21
19.9389
  0
LINE
  8
0
 10
21.0451
 20
19.9389
 11
20.6448
 21
20.4227
  0
LINE
  8
0
 10
20.6448
 20
20.4227
 11
20.1871
 21
20.8526
  0
LINE
  8
0
 10
20.1871
 20
20.8526
 11
19.6791
 21
21.2216
  0
LINE
  8
0
 10
19.6791
 20
21.2216
 11
19.1289
 21
21.5241
  0
LINE
  8
0
 10
19.1289
 20
21.5241
 11
18.5451
 21
21.7553
  0
LINE
  8
0
 10
18.5451
 20
21.7553
 11
17.9369
 21
21.9114
  0
LINE
  8
0
 10
17.9369
 20
21.9114
 11
17.3139
 21
21.9901
  0
LINE
  8
0
 10
17.3139
 20
21.9901
 11
-17.3139
 21
21.9901
  0
LINE
  8
0
 10
-17.3139
 20
21.9901
 11
-17.9369
 21
21.9114
  0
LINE
  8
0
 10
-17.9369
 20
21.9114
 11
-18.5451
 21
21.7553
  0
LINE
  8
0
 10
-18.5451
 20
21.7553
 11
-19.1289
 21
21.5241
  0
LINE
  8
0
 10
-19.1289
 20
21.5241
 11
-19.6791
 21
21.2216
  0
LINE
  8
0
 10
-19.6791
 20
21.2216
 11
-20.1871
 21
20.8526
  0
LINE
  8
0
 10
-20.1871
 20
20.8526
 11
-20.6448
 21
20.4227
  0
LINE
  8
0
 10
-20.6448
 20
20.4227
 11
-21.0451
 21
19.9389
  0
LINE
  8
0
 10
-21.0451
 20
19.9389
 11
-21.3815
 21
19.4088
  0
LINE
  8
0
 10
-21.3815
 20
19.4088
 11
-21.6489
 21
18.8406
  0
LINE
  8
0
 10
-21.6489
 20
18.8406
 11
-21.8429
 21
18.2434
  0
LINE
  8
0
 10
-21.8429
 20
18.2434
 11
-21.9606
 21
17.6267
  0
LINE
  8
0
 10
-21.9606
 20
17.6267
 11
-22
 21
17
  0
LINE
  8
0
 10
-22
 20
17
 11
-22
 21
-17
  0
LINE
  8
0
 10
-22
 20
-17
 11
-21.9606
 21
-17.6267
  0
LINE
  8
0
 10
-21.9606
 20
-17.6267
 11
-21.8429
 21
-18.2434
  0
LINE
  8
0
 10
-21.8429
 20
-18.2434
 11
-21.6489
 21
-18.8406
  0
LINE
  8
0
 10
-21.6489
 20
-18.8406
 11
-21.3815
 21
-19.4088
  0
LINE
  8
0
 10
-21.3815
 20
-19.4088
 11
-21.0451
 21
-19.9389
  0
LINE
  8
0
 10
-21.0451
 20
-19.9389
 11
-20.6448
 21
-20.4227
  0
LINE
  8
0
 10
-20.6448
 20
-20.4227
 11
-20.1871
 21
-20.8526
  0
LINE
  8
0
 10
-20.1871
 20
-20.8526
 11
-19.6791
 21
-21.2216
  0
LINE
  8
0
 10
-19.6791
 20
-21.2216
 11
-19.1289
 21
-21.5241
  0
LINE
  8
0
 10
-19.1289
 20
-21.5241
 11
-18.5451
 21
-21.7553
  0
LINE
  8
0
 10
-18.5451
 20
-21.7553
 11
-17.9369
 21
-21.9114
  0
LINE
  8
0
 10
-17.9369
 20
-21.9114
 11
-17.3139
 21
-21.9901
  0
LINE
  8
0
 10
-17.3139
 20
-21.9901
 11
17.3139
 21
-21.9901
  0
LINE
  8
0
 10
17.3139
 20
-21.9901
 11
17.9369
 21
-21.9114
  0
LINE
  8
0
 10
-0.18837
 20
12.0059
 11
-0.562134
 21
12.0531
  0
LINE
  8
0
 10
-0.562134
 20
12.0531
 11
-0.927048
 21
12.1468
  0
LINE
  8
0
 10
-0.927048
 20
12.1468
 11
-1.27733
 21
12.2855
  0
LINE
  8
0
 10
-1.27733
 20
12.2855
 11
-1.60747
 21
12.467
  0
LINE
  8
0
 10
-1.60747
 20
12.467
 11
-1.91226
 21
12.6884
  0
LINE
  8
0
 10
-1.91226
 20
12.6884
 11
-2.1869
 21
12.9464
  0
LINE
  8
0
 10
-2.1869
 20
12.9464
 11
-2.42705
 21
13.2366
  0
LINE
  8
0
 10
-2.42705
 20
13.2366
 11
-2.62891
 21
13.5547
  0
LINE
  8
0
 10
-2.62891
 20
13.5547
 11
-2.78932
 21
13.8956
  0
LINE
  8
0
 10
-2.78932
 20
13.8956
 11
-2.90575
 21
14.2539
  0
LINE
  8
0
 10
-2.90575
 20
14.2539
 11
-2.97633
 21
14.624
  0
LINE
  8
0
 10
-2.97633
 20
14.624
 11
-3
 21
15
  0
LINE
  8
0
 10
-3
 20
15
 11
-2.97633
 21
15.376
  0
LINE
  8
0
 10
-2.97633
 20
15.376
 11
-2.90575
 21
15.7461
  0
LINE
  8
0
 10
-2.90575
 20
15.7461
 11
-2.78932
 21
16.1044
  0
LINE
  8
0
 10
-2.78932
 20
16.1044
 11
-2.62891
 21
16.4453
  0
LINE
  8
0
 10
-2.62891
 20
16.4453
 11
-2.42705
 21
16.7634
  0
LINE
  8
0
 10
-2.42705
 20
16.7634
 11
-2.1869
 21
17.0536
  0
LINE
  8
0
 10
-2.1869
 20
17.0536
 11
-1.91226
 21
17.3115
  0
LINE
  8
0
 10
-1.91226
 20
17.3115
 11
-1.60747
 21
17.533
  0
LINE
  8
0
 10
-1.60747
 20
17.533
 11
-1.27733
 21
17.7145
  0
LINE
  8
0
 10
-1.27733
 20
17.7145
 11
-0.927048
 21
17.8532
  0
LINE
  8
0
 10
-0.927048
 20
17.8532
 11
-0.562134
 21
17.9469
  0
LINE
  8
0
 10
-0.562134
 20
17.9469
 11
-0.18837
 21
17.9941
  0
LINE
  8
0
 10
-0.18837
 20
17.9941
 11
0.18837
 21
17.9941
  0
LINE
  8
0
 10
0.18837
 20
17.9941
 11
0.562134
 21
17.9469
  0
LINE
  8
0
 10
0.562134
 20
17.9469
 11
0.927048
 21
17.8532
  0
LINE
  8
0
 10
0.927048
 20
17.8532
 11
1.27733
 21
17.7145
  0
LINE
  8
0
 10
1.27733
 20
17.7145
 11
1.60747
 21
17.533
  0
LINE
  8
0
 10
1.60747
 20
17.533
 11
1.91226
 21
17.3115
  0
LINE
  8
0
 10
1.91226
 20
17.3115
 11
2.1869
 21
17.0536
  0
LINE
  8
0
 10
2.1869
 20
17.0536
 11
2.42705
 21
16.7634
  0
LINE
  8
0
 10
2.42705
 20
16.7634
 11
2.62891
 21
16.4453
  0
LINE
  8
0
 10
2.62891
 20
16.4453
 11
2.78932
 21
16.1044
  0
LINE
  8
0
 10
2.78932
 20
16.1044
 11
2.90575
 21
15.7461
  0
LINE
  8
0
 10
2.90575
 20
15.7461
 11
2.97633
 21
15.376
  0
LINE
  8
0
 10
2.97633
 20
15.376
 11
3
 21
15
  0
LINE
  8
0
 10
3
 20
15
 11
2.97633
 21
14.624
  0
LINE
  8
0
 10
2.97633
 20
14.624
 11
2.90575
 21
14.2539
  0
LINE
  8
0
 10
2.90575
 20
14.2539
 11
2.78932
 21
13.8956
  0
LINE
  8
0
 10
2.78932
 20
13.8956
 11
2.62891
 21
13.5547
  0
LINE
  8
0
 10
2.62891
 20
13.5547
 11
2.42705
 21
13.2366
  0
LINE
  8
0
 10
2.42705
 20
13.2366
 11
2.1869
 21
12.9464
  0
LINE
  8
0
 10
2.1869
 20
12.9464
 11
1.91226
 21
12.6884
  0
LINE
  8
0
 10
1.91226
 20
12.6884
 11
1.60747
 21
12.467
  0
LINE
  8
0
 10
1.60747
 20
12.467
 11
1.27733
 21
12.2855
  0
LINE
  8
0
 10
1.27733
 20
12.2855
 11
0.927048
 21
12.1468
  0
LINE
  8
0
 10
0.927048
 20
12.1468
 11
0.562134
 21
12.0531
  0
LINE
  8
0
 10
0.562134
 20
12.0531
 11
0.18837
 21
12.0059
  0
LINE
  8
0
 10
0.18837
 20
12.0059
 11
-0.18837
 21
12.0059
  0
LINE
  8
0
 10
14.8116
 20
12.0059
 11
14.4379
 21
12.0531
  0
LINE
  8
0
 10
14.4379
 20
12.0531
 11
14.0729
 21
12.1468
  0
LINE
  8
0
 10
14.0729
 20
12.1468
 11
13.7227
 21
12.2855
  0
LINE
  8
0
 10
13.7227
 20
12.2855
 11
13.3925
 21
12.467
  0
LINE
  8
0
 10
13.3925
 20
12.467
 11
13.0877
 21
12.6884
  0
LINE
  8
0
 10
13.0877
 20
12.6884
 11
12.8131
 21
12.9464
  0
LINE
  8
0
 10
12.8131
 20
12.9464
 11
12.5729
 21
13.2366
  0
LINE
  8
0
 10
12.5729
 20
13.2366
 11
12.3711
 21
13.5547
  0
LINE
  8
0
 10
12.3711
 20
13.5547
 11
12.2107
 21
13.8956
  0
LINE
  8
0
 10
12.2107
 20
13.8956
 11
12.0942
 21
14.2539
  0
LINE
  8
0
 10
12.0942
 20
14.2539
 11
12.0237
 21
14.624
  0
LINE
  8
0
 10
12.0237
 20
14.624
 11
12
 21
15
  0
LINE
  8
0
 10
12
 20
15
 11
12.0237
 21
15.376
  0
LINE
  8
0
 10
12.0237
 20
15.376
 11
12.0942
 21
15.7461
  0
LINE
  8
0
 10
12.0942
 20
15.7461
 11
12.2107
 21
16.1044
  0
LINE
  8
0
 10
12.2107
 20
16.1044
 11
12.3711
 21
16.4453
  0
LINE
  8
0
 10
12.3711
 20
16.4453
 11
12.5729
 21
16.7634
  0
LINE
  8
0
 10
12.5729
 20
16.7634
 11
12.8131
 21
17.0536
  0
LINE
  8
0
 10
12.8131
 20
17.0536
 11
13.0877
 21
17.3115
  0
LINE
  8
0
 10
13.0877
 20
17.3115
 11
13.3925
 21
17.533
  0
LINE
  8
0
 10
13.3925
 20
17.533
 11
13.7227
 21
17.7145
  0
LINE
  8
0
 10
13.7227
 20
17.7145
 11
14.0729
 21
17.8532
  0
LINE
  8
0
 10
14.0729
 20
17.8532
 11
14.4379
 21
17.9469
  0
LINE
  8
0
 10
14.4379
 20
17.9469
 11
14.8116
 21
17.9941
  0
LINE
  8
0
 10
14.8116
 20
17.9941
 11
15.1884
 21
17.9941
  0
LINE
  8
0
 10
15.1884
 20
17.9941
 11
15.5621
 21
17.9469
  0
LINE
  8
0
 10
15.5621
 20
17.9469
 11
15.927
 21
17.8532
  0
LINE
  8
0
 10
15.927
 20
17.8532
 11
16.2773
 21
17.7145
  0
LINE
  8
0
 10
16.2773
 20
17.7145
 11
16.6075
 21
17.533
  0
LINE
  8
0
 10
16.6075
 20
17.533
 11
16.9123
 21
17.3115
  0
LINE
  8
0
 10
16.9123
 20
17.3115
 11
17.1869
 21
17.0536
  0
LINE
  8
0
 10
17.1869
 20
17.0536
 11
17.427
 21
16.7634
  0
LINE
  8
0
 10
17.427
 20
16.7634
 11
17.6289
 21
16.4453
  0
LINE
  8
0
 10
17.6289
 20
16.4453
 11
17.7893
 21
16.1044
  0
LINE
  8
0
 10
17.7893
 20
16.1044
 11
17.9057
 21
15.7461
  0
LINE
  8
0
 10
17.9057
 20
15.7461
 11
17.9763
 21
15.376
  0
LINE
  8
0
 10
17.9763
 20
15.376
 11
18
 21
15
  0
LINE
  8
0
 10
18
 20
15
 11
17.9763
 21
14.624
  0
LINE
  8
0
 10
17.9763
 20
14.624
 11
17.9057
 21
14.2539
  0
LINE
  8
0
 10
17.9057
 20
14.2539
 11
17.7893
 21
13.8956
  0
LINE
  8
0
 10
17.7893
 20
13.8956
 11
17.6289
 21
13.5547
  0
LINE
  8
0
 10
17.6289
 20
13.5547
 11
17.427
 21
13.2366
  0
LINE
  8
0
 10
17.427
 20
13.2366
 11
17.1869
 21
12.9464
  0
LINE
  8
0
 10
17.1869
 20
12.9464
 11
16.9123
 21
12.6884
  0
LINE
  8
0
 10
16.9123
 20
12.6884
 11
16.6075
 21
12.467
  0
LINE
  8
0
 10
16.6075
 20
12.467
 11
16.2773
 21
12.2855
  0
LINE
  8
0
 10
16.2773
 20
12.2855
 11
15.927
 21
12.1468
  0
LINE
  8
0
 10
15.927
 20
12.1468
 11
15.5621
 21
12.0531
  0
LINE
  8
0
 10
15.5621
 20
12.0531
 11
15.1884
 21
12.0059
  0
LINE
  8
0
 10
15.1884
 20
12.0059
 11
14.8116
 21
12.0059
  0
LINE
  8
0
 10
-15.1884
 20
12.0059
 11
-15.5621
 21
12.0531
  0
LINE
  8
0
 10
-15.5621
 20
12.0531
 11
-15.927
 21
12.1468
  0
LINE
  8
0
 10
-15.927
 20
12.1468
 11
-16.2773
 21
12.2855
  0
LINE
  8
0
 10
-16.2773
 20
12.2855
 11
-16.6075
 21
12.467
  0
LINE
  8
0
 10
-16.6075
 20
12.467
 11
-16.9123
 21
12.6884
  0
LINE
  8
0
 10
-16.9123
 20
12.6884
 11
-17.1869
 21
12.9464
  0
LINE
  8
0
 10
-17.1869
 20
12.9464
 11
-17.427
 21
13.2366
  0
LINE
  8
0
 10
-17.427
 20
13.2366
 11
-17.6289
 21
13.5547
  0
LINE
  8
0
 10
-17.6289
 20
13.5547
 11
-17.7893
 21
13.8956
  0
LINE
  8
0
 10
-17.7893
 20
13.8956
 11
-17.9057
 21
14.2539
  0
LINE
  8
0
 10
-17.9057
 20
14.2539
 11
-17.9763
 21
14.624
  0
LINE
  8
0
 10
-17.9763
 20
14.624
 11
-18
 21
15
  0
LINE
  8
0
 10
-18
 20
15
 11
-17.9763
 21
15.376
  0
LINE
  8
0
 10
-17.9763
 20
15.376
 11
-17.9057
 21
15.7461
  0
LINE
  8
0
 10
-17.9057
 20
15.7461
 11
-17.7893
 21
16.1044
  0
LINE
  8
0
 10
-17.7893
 20
16.1044
 11
-17.6289
 21
16.4453
  0
LINE
  8
0
 10
-17.6289
 20
16.4453
 11
-17.427
 21
16.7634
  0
LINE
  8
0
 10
-17.427
 20
16.7634
 11
-17.1869
 21
17.0536
  0
LINE
  8
0
 10
-17.1869
 20
17.0536
 11
-16.9123
 21
17.3115
  0
LINE
  8
0
 10
-16.9123
 20
17.3115
 11
-16.6075
 21
17.533
  0
LINE
  8
0
 10
-16.6075
 20
17.533
 11
-16.2773
 21
17.7145
  0
LINE
  8
0
 10
-16.2773
 20
17.7145
 11
-15.927
 21
17.8532
  0
LINE
  8
0
 10
-15.927
 20
17.8532
 11
-15.5621
 21
17.9469
  0
LINE
  8
0
 10
-15.5621
 20
17.9469
 11
-15.1884
 21
17.9941
  0
LINE
  8
0
 10
-15.1884
 20
17.9941
 11
-14.8116
 21
17.9941
  0
LINE
  8
0
 10
-14.8116
 20
17.9941
 11
-14.4379
 21
17.9469
  0
LINE
  8
0
 10
-14.4379
 20
17.9469
 11
-14.0729
 21
17.8532
  0
LINE
  8
0
 10
-14.0729
 20
17.8532
 11
-13.7227
 21
17.7145
  0
LINE
  8
0
 10
-13.7227
 20
17.7145
 11
-13.3925
 21
17.533
  0
LINE
  8
0
 10
-13.3925
 20
17.533
 11
-13.0877
 21
17.3115
  0
LINE
  8
0
 10
-13.0877
 20
17.3115
 11
-12.8131
 21
17.0536
  0
LINE
  8
0
 10
-12.8131
 20
17.0536
 11
-12.5729
 21
16.7634
  0
LINE
  8
0
 10
-12.5729
 20
16.7634
 11
-12.3711
 21
16.4453
  0
LINE
  8
0
 10
-12.3711
 20
16.4453
 11
-12.2107
 21
16.1044
  0
LINE
  8
0
 10
-12.2107
 20
16.1044
 11
-12.0942
 21
15.7461
  0
LINE
  8
0
 10
-12.0942
 20
15.7461
 11
-12.0237
 21
15.376
  0
LINE
  8
0
 10
-12.0237
 20
15.376
 11
-12
 21
15
  0
LINE
  8
0
 10
-12
 20
15
 11
-12.0237
 21
14.624
  0
LINE
  8
0
 10
-12.0237
 20
14.624
 11
-12.0942
 21
14.2539
  0
LINE
  8
0
 10
-12.0942
 20
14.2539
 11
-12.2107
 21
13.8956
  0
LINE
  8
0
 10
-12.2107
 20
13.8956
 11
-12.3711
 21
13.5547
  0
LINE
  8
0
 10
-12.3711
 20
13.5547
 11
-12.5729
 21
13.2366
  0
LINE
  8
0
 10
-12.5729
 20
13.2366
 11
-12.8131
 21
12.9464
  0
LINE
  8
0
 10
-12.8131
 20
12.9464
 11
-13.0877
 21
12.6884
  0
LINE
  8
0
 10
-13.0877
 20
12.6884
 11
-13.3925
 21
12.467
  0
LINE
  8
0
 10
-13.3925
 20
12.467
 11
-13.7227
 21
12.2855
  0
LINE
  8
0
 10
-13.7227
 20
12.2855
 11
-14.0729
 21
12.1468
  0
LINE
  8
0
 10
-14.0729
 20
12.1468
 11
-14.4379
 21
12.0531
  0
LINE
  8
0
 10
-14.4379
 20
12.0531
 11
-14.8116
 21
12.0059
  0
LINE
  8
0
 10
-14.8116
 20
12.0059
 11
-15.1884
 21
12.0059
  0
LINE
  8
0
 10
7.38696
 20
13.2036
 11
7.1627
 21
13.2319
  0
LINE
  8
0
 10
7.1627
 20
13.2319
 11
6.94376
 21
13.2881
  0
LINE
  8
0
 10
6.94376
 20
13.2881
 11
6.7336
 21
13.3713
  0
LINE
  8
0
 10
6.7336
 20
13.3713
 11
6.53551
 21
13.4802
  0
LINE
  8
0
 10
6.53551
 20
13.4802
 11
6.35263
 21
13.6131
  0
LINE
  8
0
 10
6.35263
 20
13.6131
 11
6.18785
 21
13.7678
  0
LINE
  8
0
 10
6.18785
 20
13.7678
 11
6.04376
 21
13.942
  0
LINE
  8
0
 10
6.04376
 20
13.942
 11
5.92264
 21
14.1328
  0
LINE
  8
0
 10
5.92264
 20
14.1328
 11
5.8264
 21
14.3374
  0
LINE
  8
0
 10
5.8264
 20
14.3374
 11
5.75655
 21
14.5524
  0
LINE
  8
0
 10
5.75655
 20
14.5524
 11
5.71419
 21
14.7744
  0
LINE
  8
0
 10
5.71419
 20
14.7744
 11
5.7
 21
15
  0
LINE
  8
0
 10
5.7
 20
15
 11
5.71419
 21
15.2256
  0
LINE
  8
0
 10
5.71419
 20
15.2256
 11
5.75655
 21
15.4476
  0
LINE
  8
0
 10
5.75655
 20
15.4476
 11
5.8264
 21
15.6626
  0
LINE
  8
0
 10
5.8264
 20
15.6626
 11
5.92264
 21
15.8671
  0
LINE
  8
0
 10
5.92264
 20
15.8671
 11
6.04376
 21
16.058
  0
LINE
  8
0
 10
6.04376
 20
16.058
 11
6.18785
 21
16.2322
  0
LINE
  8
0
 10
6.18785
 20
16.2322
 11
6.35263
 21
16.3869
  0
LINE
  8
0
 10
6.35263
 20
16.3869
 11
6.53551
 21
16.5198
  0
LINE
  8
0
 10
6.53551
 20
16.5198
 11
6.7336
 21
16.6287
  0
LINE
  8
0
 10
6.7336
 20
16.6287
 11
6.94376
 21
16.7119
  0
LINE
  8
0
 10
6.94376
 20
16.7119
 11
7.1627
 21
16.7681
  0
LINE
  8
0
 10
7.1627
 20
16.7681
 11
7.38696
 21
16.7964
  0
LINE
  8
0
 10
7.38696
 20
16.7964
 11
7.61302
 21
16.7964
  0
LINE
  8
0
 10
7.61302
 20
16.7964
 11
7.83728
 21
16.7681
  0
LINE
  8
0
 10
7.83728
 20
16.7681
 11
8.05623
 21
16.7119
  0
LINE
  8
0
 10
8.05623
 20
16.7119
 11
8.26639
 21
16.6287
  0
LINE
  8
0
 10
8.26639
 20
16.6287
 11
8.46448
 21
16.5198
  0
LINE
  8
0
 10
8.46448
 20
16.5198
 11
8.64735
 21
16.3869
  0
LINE
  8
0
 10
8.64735
 20
16.3869
 11
8.81213
 21
16.2322
  0
LINE
  8
0
 10
8.81213
 20
16.2322
 11
8.95622
 21
16.058
  0
LINE
  8
0
 10
8.95622
 20
16.058
 11
9.07735
 21
15.8671
  0
LINE
  8
0
 10
9.07735
 20
15.8671
 11
9.17358
 21
15.6626
  0
LINE
  8
0
 10
9.17358
 20
15.6626
 11
9.24344
 21
15.4476
  0
LINE
  8
0
 10
9.24344
 20
15.4476
 11
9.2858
 21
15.2256
  0
LINE
  8
0
 10
9.2858
 20
15.2256
 11
9.29999
 21
15
  0
LINE
  8
0
 10
9.29999
 20
15
 11
9.2858
 21
14.7744
  0
LINE
  8
0
 10
9.2858
 20
14.7744
 11
9.24344
 21
14.5524
  0
LINE
  8
0
 10
9.24344
 20
14.5524
 11
9.17358
 21
14.3374
  0
LINE
  8
0
 10
9.17358
 20
14.3374
 11
9.07735
 21
14.1328
  0
LINE
  8
0
 10
9.07735
 20
14.1328
 11
8.95622
 21
13.942
  0
LINE
  8
0
 10
8.95622
 20
13.942
 11
8.81213
 21
13.7678
  0
LINE
  8
0
 10
8.81213
 20
13.7678
 11
8.64735
 21
13.6131
  0
LINE
  8
0
 10
8.64735
 20
13.6131
 11
8.46448
 21
13.4802
  0
LINE
  8
0
 10
8.46448
 20
13.4802
 11
8.26639
 21
13.3713
  0
LINE
  8
0
 10
8.26639
 20
13.3713
 11
8.05623
 21
13.2881
  0
LINE
  8
0
 10
8.05623
 20
13.2881
 11
7.83728
 21
13.2319
  0
LINE
  8
0
 10
7.83728
 20
13.2319
 11
7.61302
 21
13.2036
  0
LINE
  8
0
 10
7.61302
 20
13.2036
 11
7.38696
 21
13.2036
  0
LINE
  8
0
 10
-7.59418
 20
13.5029
 11
-7.78107
 21
13.5266
  0
LINE
  8
0
 10
-7.78107
 20
13.5266
 11
-7.96352
 21
13.5734
  0
LINE
  8
0
 10
-7.96352
 20
13.5734
 11
-8.13866
 21
13.6427
  0
LINE
  8
0
 10
-8.13866
 20
13.6427
 11
-8.30373
 21
13.7335
  0
LINE
  8
0
 10
-8.30373
 20
13.7335
 11
-8.45613
 21
13.8442
  0
LINE
  8
0
 10
-8.45613
 20
13.8442
 11
-8.59344
 21
13.9732
  0
LINE
  8
0
 10
-8.59344
 20
13.9732
 11
-8.71352
 21
14.1183
  0
LINE
  8
0
 10
-8.71352
 20
14.1183
 11
-8.81445
 21
14.2774
  0
LINE
  8
0
 10
-8.81445
 20
14.2774
 11
-8.89465
 21
14.4478
  0
LINE
  8
0
 10
-8.89465
 20
14.4478
 11
-8.95287
 21
14.627
  0
LINE
  8
0
 10
-8.95287
 20
14.627
 11
-8.98816
 21
14.812
  0
LINE
  8
0
 10
-8.98816
 20
14.812
 11
-9
 21
15
  0
LINE
  8
0
 10
-9
 20
15
 11
-8.98816
 21
15.188
  0
LINE
  8
0
 10
-8.98816
 20
15.188
 11
-8.95287
 21
15.373
  0
LINE
  8
0
 10
-8.95287
 20
15.373
 11
-8.89465
 21
15.5522
  0
LINE
  8
0
 10
-8.89465
 20
15.5522
 11
-8.81445
 21
15.7226
  0
LINE
  8
0
 10
-8.81445
 20
15.7226
 11
-8.71352
 21
15.8817
  0
LINE
  8
0
 10
-8.71352
 20
15.8817
 11
-8.59344
 21
16.0268
  0
LINE
  8
0
 10
-8.59344
 20
16.0268
 11
-8.45613
 21
16.1558
  0
LINE
  8
0
 10
-8.45613
 20
16.1558
 11
-8.30373
 21
16.2665
  0
LINE
  8
0
 10
-8.30373
 20
16.2665
 11
-8.13866
 21
16.3572
  0
LINE
  8
0
 10
-8.13866
 20
16.3572
 11
-7.96352
 21
16.4266
  0
LINE
  8
0
 10
-7.96352
 20
16.4266
 11
-7.78107
 21
16.4734
  0
LINE
  8
0
 10
-7.78107
 20
16.4734
 11
-7.59418
 21
16.497
  0
LINE
  8
0
 10
-7.59418
 20
16.497
 11
-7.40581
 21
16.497
  0
LINE
  8
0
 10
-7.40581
 20
16.497
 11
-7.21892
 21
16.4734
  0
LINE
  8
0
 10
-7.21892
 20
16.4734
 11
-7.03647
 21
16.4266
  0
LINE
  8
0
 10
-7.03647
 20
16.4266
 11
-6.86133
 21
16.3572
  0
LINE
  8
0
 10
-6.86133
 20
16.3572
 11
-6.69626
 21
16.2665
  0
LINE
  8
0
 10
-6.69626
 20
16.2665
 11
-6.54385
 21
16.1558
  0
LINE
  8
0
 10
-6.54385
 20
16.1558
 11
-6.40654
 21
16.0268
  0
LINE
  8
0
 10
-6.40654
 20
16.0268
 11
-6.28647
 21
15.8817
  0
LINE
  8
0
 10
-6.28647
 20
15.8817
 11
-6.18553
 21
15.7226
  0
LINE
  8
0
 10
-6.18553
 20
15.7226
 11
-6.10533
 21
15.5522
  0
LINE
  8
0
 10
-6.10533
 20
15.5522
 11
-6.04712
 21
15.373
  0
LINE
  8
0
 10
-6.04712
 20
15.373
 11
-6.01183
 21
15.188
  0
LINE
  8
0
 10
-6.01183
 20
15.188
 11
-6
 21
15
  0
LINE
  8
0
 10
-6
 20
15
 11
-6.01183
 21
14.812
  0
LINE
  8
0
 10
-6.01183
 20
14.812
 11
-6.04712
 21
14.627
  0
LINE
  8
0
 10
-6.04712
 20
14.627
 11
-6.10533
 21
14.4478
  0
LINE
  8
0
 10
-6.10533
 20
14.4478
 11
-6.18553
 21
14.2774
  0
LINE
  8
0
 10
-6.18553
 20
14.2774
 11
-6.28647
 21
14.1183
  0
LINE
  8
0
 10
-6.28647
 20
14.1183
 11
-6.40654
 21
13.9732
  0
LINE
  8
0
 10
-6.40654
 20
13.9732
 11
-6.54385
 21
13.8442
  0
LINE
  8
0
 10
-6.54385
 20
13.8442
 11
-6.69626
 21
13.7335
  0
LINE
  8
0
 10
-6.69626
 20
13.7335
 11
-6.86133
 21
13.6427
  0
LINE
  8
0
 10
-6.86133
 20
13.6427
 11
-7.03647
 21
13.5734
  0
LINE
  8
0
 10
-7.03647
 20
13.5734
 11
-7.21892
 21
13.5266
  0
LINE
  8
0
 10
-7.21892
 20
13.5266
 11
-7.40581
 21
13.5029
  0
LINE
  8
0
 10
-7.40581
 20
13.5029
 11
-7.59418
 21
13.5029
  0
LINE
  8
0
 10
-5.31395
 20
-10.9901
 11
-5.9369
 21
-10.9114
  0
LINE
  8
0
 10
-5.9369
 20
-10.9114
 11
-6.54507
 21
-10.7553
  0
LINE
  8
0
 10
-6.54507
 20
-10.7553
 11
-7.12889
 21
-10.5241
  0
LINE
  8
0
 10
-7.12889
 20
-10.5241
 11
-7.67912
 21
-10.2216
  0
LINE
  8
0
 10
-7.67912
 20
-10.2216
 11
-8.18712
 21
-9.85255
  0
LINE
  8
0
 10
-8.18712
 20
-9.85255
 11
-8.64484
 21
-9.42273
  0
LINE
  8
0
 10
-8.64484
 20
-9.42273
 11
-9.04507
 21
-8.93892
  0
LINE
  8
0
 10
-9.04507
 20
-8.93892
 11
-9.38153
 21
-8.40877
  0
LINE
  8
0
 10
-9.38153
 20
-8.40877
 11
-9.64888
 21
-7.84062
  0
LINE
  8
0
 10
-9.64888
 20
-7.84062
 11
-9.84291
 21
-7.24344
  0
LINE
  8
0
 10
-9.84291
 20
-7.24344
 11
-9.96057
 21
-6.62666
  0
LINE
  8
0
 10
-9.96057
 20
-6.62666
 11
-10
 21
-6
  0
LINE
  8
0
 10
-10
 20
-6
 11
-10
 21
6
  0
LINE
  8
0
 10
-10
 20
6
 11
-9.96057
 21
6.62666
  0
LINE
  8
0
 10
-9.96057
 20
6.62666
 11
-9.84291
 21
7.24344
  0
LINE
  8
0
 10
-9.84291
 20
7.24344
 11
-9.64888
 21
7.84062
  0
LINE
  8
0
 10
-9.64888
 20
7.84062
 11
-9.38153
 21
8.40877
  0
LINE
  8
0
 10
-9.38153
 20
8.40877
 11
-9.04507
 21
8.93892
  0
LINE
  8
0
 10
-9.04507
 20
8.93892
 11
-8.64484
 21
9.42273
  0
LINE
  8
0
 10
-8.64484
 20
9.42273
 11
-8.18712
 21
9.85255
  0
LINE
  8
0
 10
-8.18712
 20
9.85255
 11
-7.67912
 21
10.2216
  0
LINE
  8
0
 10
-7.67912
 20
10.2216
 11
-7.12889
 21
10.5241
  0
LINE
  8
0
 10
-7.12889
 20
10.5241
 11
-6.54507
 21
10.7553
  0
LINE
  8
0
 10
-6.54507
 20
10.7553
 11
-5.9369
 21
10.9114
  0
LINE
  8
0
 10
-5.9369
 20
10.9114
 11
-5.31395
 21
10.9901
  0
LINE
  8
0
 10
-5.31395
 20
10.9901
 11
8.31395
 21
10.9901
  0
LINE
  8
0
 10
8.31395
 20
10.9901
 11
8.9369
 21
10.9114
  0
LINE
  8
0
 10
8.9369
 20
10.9114
 11
9.54507
 21
10.7553
  0
LINE
  8
0
 10
9.54507
 20
10.7553
 11
10.1289
 21
10.5241
  0
LINE
  8
0
 10
10.1289
 20
10.5241
 11
10.6791
 21
10.2216
  0
LINE
  8
0
 10
10.6791
 20
10.2216
 11
11.1871
 21
9.85255
  0
LINE
  8
0
 10
11.1871
 20
9.85255
 11
11.6448
 21
9.42273
  0
LINE
  8
0
 10
11.6448
 20
9.42273
 11
11.9946
 21
9
  0
LINE
  8
0
 10
11.9946
 20
9
 11
12
 21
9
  0
LINE
  8
0
 10
12
 20
9
 11
12
 21
8.99342
  0
LINE
  8
0
 10
12
 20
8.99342
 11
12.0451
 21
8.93892
  0
LINE
  8
0
 10
12.0451
 20
8.93892
 11
12.3815
 21
8.40877
  0
LINE
  8
0
 10
12.3815
 20
8.40877
 11
12.6489
 21
7.84062
  0
LINE
  8
0
 10
12.6489
 20
7.84062
 11
12.8429
 21
7.24344
  0
LINE
  8
0
 10
12.8429
 20
7.24344
 11
12.9606
 21
6.62666
  0
LINE
  8
0
 10
12.9606
 20
6.62666
 11
12.9685
 21
6.5
  0
LINE
  8
0
 10
12.9685
 20
6.5
 11
16.5
 21
6.5
  0
LINE
  8
0
 10
16.5
 20
6.5
 11
16.5
 21
-6.5
  0
LINE
  8
0
 10
16.5
 20
-6.5
 11
12.9685
 21
-6.5
  0
LINE
  8
0
 10
12.9685
 20
-6.5
 11
12.9606
 21
-6.62666
  0
LINE
  8
0
 10
12.9606
 20
-6.62666
 11
12.8429
 21
-7.24344
  0
LINE
  8
0
 10
12.8429
 20
-7.24344
 11
12.6489
 21
-7.84062
  0
LINE
  8
0
 10
12.6489
 20
-7.84062
 11
12.3815
 21
-8.40877
  0
LINE
  8
0
 10
12.3815
 20
-8.40877
 11
12.0451
 21
-8.93892
  0
LINE
  8
0
 10
12.0451
 20
-8.93892
 11
12
 21
-8.99342
  0
LINE
  8
0
 10
12
 20
-8.99342
 11
12
 21
-9
  0
LINE
  8
0
 10
12
 20
-9
 11
11.9946
 21
-9
  0
LINE
  8
0
 10
11.9946
 20
-9
 11
11.6448
 21
-9.42273
  0
LINE
  8
0
 10
11.6448
 20
-9.42273
 11
11.1871
 21
-9.85255
  0
LINE
  8
0
 10
11.1871
 20
-9.85255
 11
10.6791
 21
-10.2216
  0
LINE
  8
0
 10
10.6791
 20
-10.2216
 11
10.1289
 21
-10.5241
  0
LINE
  8
0
 10
10.1289
 20
-10.5241
 11
9.54507
 21
-10.7553
  0
LINE
  8
0
 10
9.54507
 20
-10.7553
 11
8.9369
 21
-10.9114
  0
LINE
  8
0
 10
8.9369
 20
-10.9114
 11
8.31395
 21
-10.9901
  0
LINE
  8
0
 10
8.31395
 20
-10.9901
 11
-5.31395
 21
-10.9901
  0
LINE
  8
0
 10
-15.0942
 20
6.00294
 11
-15.2811
 21
6.02657
  0
LINE
  8
0
 10
-15.2811
 20
6.02657
 11
-15.4635
 21
6.07341
  0
LINE
  8
0
 10
-15.4635
 20
6.07341
 11
-15.6387
 21
6.14275
  0
LINE
  8
0
 10
-15.6387
 20
6.14275
 11
-15.8037
 21
6.23351
  0
LINE
  8
0
 10
-15.8037
 20
6.23351
 11
-15.9561
 21
6.34422
  0
LINE
  8
0
 10
-15.9561
 20
6.34422
 11
-16.0934
 21
6.47318
  0
LINE
  8
0
 10
-16.0934
 20
6.47318
 11
-16.2135
 21
6.61832
  0
LINE
  8
0
 10
-16.2135
 20
6.61832
 11
-16.3145
 21
6.77736
  0
LINE
  8
0
 10
-16.3145
 20
6.77736
 11
-16.3947
 21
6.9478
  0
LINE
  8
0
 10
-16.3947
 20
6.9478
 11
-16.4529
 21
7.12695
  0
LINE
  8
0
 10
-16.4529
 20
7.12695
 11
-16.4882
 21
7.312
  0
LINE
  8
0
 10
-16.4882
 20
7.312
 11
-16.5
 21
7.5
  0
LINE
  8
0
 10
-16.5
 20
7.5
 11
-16.4882
 21
7.68799
  0
LINE
  8
0
 10
-16.4882
 20
7.68799
 11
-16.4529
 21
7.87303
  0
LINE
  8
0
 10
-16.4529
 20
7.87303
 11
-16.3947
 21
8.05219
  0
LINE
  8
0
 10
-16.3947
 20
8.05219
 11
-16.3145
 21
8.22263
  0
LINE
  8
0
 10
-16.3145
 20
8.22263
 11
-16.2135
 21
8.38167
  0
LINE
  8
0
 10
-16.2135
 20
8.38167
 11
-16.0934
 21
8.52681
  0
LINE
  8
0
 10
-16.0934
 20
8.52681
 11
-15.9561
 21
8.65576
  0
LINE
  8
0
 10
-15.9561
 20
8.65576
 11
-15.8037
 21
8.76648
  0
LINE
  8
0
 10
-15.8037
 20
8.76648
 11
-15.6387
 21
8.85724
  0
LINE
  8
0
 10
-15.6387
 20
8.85724
 11
-15.4635
 21
8.92657
  0
LINE
  8
0
 10
-15.4635
 20
8.92657
 11
-15.2811
 21
8.97342
  0
LINE
  8
0
 10
-15.2811
 20
8.97342
 11
-15.0942
 21
8.99704
  0
LINE
  8
0
 10
-15.0942
 20
8.99704
 11
-14.9058
 21
8.99704
  0
LINE
  8
0
 10
-14.9058
 20
8.99704
 11
-14.7189
 21
8.97342
  0
LINE
  8
0
 10
-14.7189
 20
8.97342
 11
-14.5365
 21
8.92657
  0
LINE
  8
0
 10
-14.5365
 20
8.92657
 11
-14.3613
 21
8.85724
  0
LINE
  8
0
 10
-14.3613
 20
8.85724
 11
-14.1963
 21
8.76648
  0
LINE
  8
0
 10
-14.1963
 20
8.76648
 11
-14.0439
 21
8.65576
  0
LINE
  8
0
 10
-14.0439
 20
8.65576
 11
-13.9065
 21
8.52681
  0
LINE
  8
0
 10
-13.9065
 20
8.52681
 11
-13.7865
 21
8.38167
  0
LINE
  8
0
 10
-13.7865
 20
8.38167
 11
-13.6855
 21
8.22263
  0
LINE
  8
0
 10
-13.6855
 20
8.22263
 11
-13.6053
 21
8.05219
  0
LINE
  8
0
 10
-13.6053
 20
8.05219
 11
-13.5471
 21
7.87303
  0
LINE
  8
0
 10
-13.5471
 20
7.87303
 11
-13.5118
 21
7.68799
  0
LINE
  8
0
 10
-13.5118
 20
7.68799
 11
-13.5
 21
7.5
  0
LINE
  8
0
 10
-13.5
 20
7.5
 11
-13.5118
 21
7.312
  0
LINE
  8
0
 10
-13.5118
 20
7.312
 11
-13.5471
 21
7.12695
  0
LINE
  8
0
 10
-13.5471
 20
7.12695
 11
-13.6053
 21
6.9478
  0
LINE
  8
0
 10
-13.6053
 20
6.9478
 11
-13.6855
 21
6.77736
  0
LINE
  8
0
 10
-13.6855
 20
6.77736
 11
-13.7865
 21
6.61832
  0
LINE
  8
0
 10
-13.7865
 20
6.61832
 11
-13.9065
 21
6.47318
  0
LINE
  8
0
 10
-13.9065
 20
6.47318
 11
-14.0439
 21
6.34422
  0
LINE
  8
0
 10
-14.0439
 20
6.34422
 11
-14.1963
 21
6.23351
  0
LINE
  8
0
 10
-14.1963
 20
6.23351
 11
-14.3613
 21
6.14275
  0
LINE
  8
0
 10
-14.3613
 20
6.14275
 11
-14.5365
 21
6.07341
  0
LINE
  8
0
 10
-14.5365
 20
6.07341
 11
-14.7189
 21
6.02657
  0
LINE
  8
0
 10
-14.7189
 20
6.02657
 11
-14.9058
 21
6.00294
  0
LINE
  8
0
 10
-14.9058
 20
6.00294
 11
-15.0942
 21
6.00294
  0
LINE
  8
0
 10
-15.1884
 20
-2.99408
 11
-15.5621
 21
-2.94685
  0
LINE
  8
0
 10
-15.5621
 20
-2.94685
 11
-15.927
 21
-2.85316
  0
LINE
  8
0
 10
-15.927
 20
-2.85316
 11
-16.2773
 21
-2.71448
  0
LINE
  8
0
 10
-16.2773
 20
-2.71448
 11
-16.6075
 21
-2.53297
  0
LINE
  8
0
 10
-16.6075
 20
-2.53297
 11
-16.9123
 21
-2.31154
  0
LINE
  8
0
 10
-16.9123
 20
-2.31154
 11
-17.1869
 21
-2.05363
  0
LINE
  8
0
 10
-17.1869
 20
-2.05363
 11
-17.427
 21
-1.76335
  0
LINE
  8
0
 10
-17.427
 20
-1.76335
 11
-17.6289
 21
-1.44525
  0
LINE
  8
0
 10
-17.6289
 20
-1.44525
 11
-17.7893
 21
-1.10437
  0
LINE
  8
0
 10
-17.7893
 20
-1.10437
 11
-17.9057
 21
-0.746063
  0
LINE
  8
0
 10
-17.9057
 20
-0.746063
 11
-17.9763
 21
-0.375992
  0
LINE
  8
0
 10
-17.9763
 20
-0.375992
 11
-18
 21
0
  0
LINE
  8
0
 10
-18
 20
0
 11
-17.9763
 21
0.375992
  0
LINE
  8
0
 10
-17.9763
 20
0.375992
 11
-17.9057
 21
0.746063
  0
LINE
  8
0
 10
-17.9057
 20
0.746063
 11
-17.7893
 21
1.10437
  0
LINE
  8
0
 10
-17.7893
 20
1.10437
 11
-17.6289
 21
1.44525
  0
LINE
  8
0
 10
-17.6289
 20
1.44525
 11
-17.427
 21
1.76335
  0
LINE
  8
0
 10
-17.427
 20
1.76335
 11
-17.1869
 21
2.05363
  0
LINE
  8
0
 10
-17.1869
 20
2.05363
 11
-16.9123
 21
2.31154
  0
LINE
  8
0
 10
-16.9123
 20
2.31154
 11
-16.6075
 21
2.53297
  0
LINE
  8
0
 10
-16.6075
 20
2.53297
 11
-16.2773
 21
2.71448
  0
LINE
  8
0
 10
-16.2773
 20
2.71448
 11
-15.927
 21
2.85316
  0
LINE
  8
0
 10
-15.927
 20
2.85316
 11
-15.5621
 21
2.94685
  0
LINE
  8
0
 10
-15.5621
 20
2.94685
 11
-15.1884
 21
2.99408
  0
LINE
  8
0
 10
-15.1884
 20
2.99408
 11
-14.8116
 21
2.99408
  0
LINE
  8
0
 10
-14.8116
 20
2.99408
 11
-14.4379
 21
2.94685
  0
LINE
  8
0
 10
-14.4379
 20
2.94685
 11
-14.0729
 21
2.85316
  0
LINE
  8
0
 10
-14.0729
 20
2.85316
 11
-13.7227
 21
2.71448
  0
LINE
  8
0
 10
-13.7227
 20
2.71448
 11
-13.3925
 21
2.53297
  0
LINE
  8
0
 10
-13.3925
 20
2.53297
 11
-13.0877
 21
2.31154
  0
LINE
  8
0
 10
-13.0877
 20
2.31154
 11
-12.8131
 21
2.05363
  0
LINE
  8
0
 10
-12.8131
 20
2.05363
 11
-12.5729
 21
1.76335
  0
LINE
  8
0
 10
-12.5729
 20
1.76335
 11
-12.3711
 21
1.44525
  0
LINE
  8
0
 10
-12.3711
 20
1.44525
 11
-12.2107
 21
1.10437
  0
LINE
  8
0
 10
-12.2107
 20
1.10437
 11
-12.0942
 21
0.746063
  0
LINE
  8
0
 10
-12.0942
 20
0.746063
 11
-12.0237
 21
0.375992
  0
LINE
  8
0
 10
-12.0237
 20
0.375992
 11
-12
 21
0
  0
LINE
  8
0
 10
-12
 20
0
 11
-12.0237
 21
-0.375992
  0
LINE
  8
0
 10
-12.0237
 20
-0.375992
 11
-12.0942
 21
-0.746063
  0
LINE
  8
0
 10
-12.0942
 20
-0.746063
 11
-12.2107
 21
-1.10437
  0
LINE
  8
0
 10
-12.2107
 20
-1.10437
 11
-12.3711
 21
-1.44525
  0
LINE
  8
0
 10
-12.3711
 20
-1.44525
 11
-12.5729
 21
-1.76335
  0
LINE
  8
0
 10
-12.5729
 20
-1.76335
 11
-12.8131
 21
-2.05363
  0
LINE
  8
0
 10
-12.8131
 20
-2.05363
 11
-13.0877
 21
-2.31154
  0
LINE
  8
0
 10
-13.0877
 20
-2.31154
 11
-13.3925
 21
-2.53297
  0
LINE
  8
0
 10
-13.3925
 20
-2.53297
 11
-13.7227
 21
-2.71448
  0
LINE
  8
0
 10
-13.7227
 20
-2.71448
 11
-14.0729
 21
-2.85316
  0
LINE
  8
0
 10
-14.0729
 20
-2.85316
 11
-14.4379
 21
-2.94685
  0
LINE
  8
0
 10
-14.4379
 20
-2.94685
 11
-14.8116
 21
-2.99408
  0
LINE
  8
0
 10
-14.8116
 20
-2.99408
 11
-15.1884
 21
-2.99408
  0
LINE
  8
0
 10
-15.0942
 20
-8.99704
 11
-15.2811
 21
-8.97342
  0
LINE
  8
0
 10
-15.2811
 20
-8.97342
 11
-15.4635
 21
-8.92657
  0
LINE
  8
0
 10
-15.4635
 20
-8.92657
 11
-15.6387
 21
-8.85724
  0
LINE
  8
0
 10
-15.6387
 20
-8.85724
 11
-15.8037
 21
-8.76648
  0
LINE
  8
0
 10
-15.8037
 20
-8.76648
 11
-15.9561
 21
-8.65576
  0
LINE
  8
0
 10
-15.9561
 20
-8.65576
 11
-16.0934
 21
-8.52681
  0
LINE
  8
0
 10
-16.0934
 20
-8.52681
 11
-16.2135
 21
-8.38167
  0
LINE
  8
0
 10
-16.2135
 20
-8.38167
 11
-16.3145
 21
-8.22263
  0
LINE
  8
0
 10
-16.3145
 20
-8.22263
 11
-16.3947
 21
-8.05219
  0
LINE
  8
0
 10
-16.3947
 20
-8.05219
 11
-16.4529
 21
-7.87303
  0
LINE
  8
0
 10
-16.4529
 20
-7.87303
 11
-16.4882
 21
-7.68799
  0
LINE
  8
0
 10
-16.4882
 20
-7.68799
 11
-16.5
 21
-7.5
  0
LINE
  8
0
 10
-16.5
 20
-7.5
 11
-16.4882
 21
-7.312
  0
LINE
  8
0
 10
-16.4882
 20
-7.312
 11
-16.4529
 21
-7.12695
  0
LINE
  8
0
 10
-16.4529
 20
-7.12695
 11
-16.3947
 21
-6.9478
  0
LINE
  8
0
 10
-16.3947
 20
-6.9478
 11
-16.3145
 21
-6.77736
  0
LINE
  8
0
 10
-16.3145
 20
-6.77736
 11
-16.2135
 21
-6.61832
  0
LINE
  8
0
 10
-16.2135
 20
-6.61832
 11
-16.0934
 21
-6.47318
  0
LINE
  8
0
 10
-16.0934
 20
-6.47318
 11
-15.9561
 21
-6.34422
  0
LINE
  8
0
 10
-15.9561
 20
-6.34422
 11
-15.8037
 21
-6.23351
  0
LINE
  8
0
 10
-15.8037
 20
-6.23351
 11
-15.6387
 21
-6.14275
  0
LINE
  8
0
 10
-15.6387
 20
-6.14275
 11
-15.4635
 21
-6.07341
  0
LINE
  8
0
 10
-15.4635
 20
-6.07341
 11
-15.2811
 21
-6.02657
  0
LINE
  8
0
 10
-15.2811
 20
-6.02657
 11
-15.0942
 21
-6.00294
  0
LINE
  8
0
 10
-15.0942
 20
-6.00294
 11
-14.9058
 21
-6.00294
  0
LINE
  8
0
 10
-14.9058
 20
-6.00294
 11
-14.7189
 21
-6.02657
  0
LINE
  8
0
 10
-14.7189
 20
-6.02657
 11
-14.5365
 21
-6.07341
  0
LINE
  8
0
 10
-14.5365
 20
-6.07341
 11
-14.3613
 21
-6.14275
  0
LINE
  8
0
 10
-14.3613
 20
-6.14275
 11
-14.1963
 21
-6.23351
  0
LINE
  8
0
 10
-14.1963
 20
-6.23351
 11
-14.0439
 21
-6.34422
  0
LINE
  8
0
 10
-14.0439
 20
-6.34422
 11
-13.9065
 21
-6.47318
  0
LINE
  8
0
 10
-13.9065
 20
-6.47318
 11
-13.7865
 21
-6.61832
  0
LINE
  8
0
 10
-13.7865
 20
-6.61832
 11
-13.6855
 21
-6.77736
  0
LINE
  8
0
 10
-13.6855
 20
-6.77736
 11
-13.6053
 21
-6.9478
  0
LINE
  8
0
 10
-13.6053
 20
-6.9478
 11
-13.5471
 21
-7.12695
  0
LINE
  8
0
 10
-13.5471
 20
-7.12695
 11
-13.5118
 21
-7.312
  0
LINE
  8
0
 10
-13.5118
 20
-7.312
 11
-13.5
 21
-7.5
  0
LINE
  8
0
 10
-13.5
 20
-7.5
 11
-13.5118
 21
-7.68799
  0
LINE
  8
0
 10
-13.5118
 20
-7.68799
 11
-13.5471
 21
-7.87303
  0
LINE
  8
0
 10
-13.5471
 20
-7.87303
 11
-13.6053
 21
-8.05219
  0
LINE
  8
0
 10
-13.6053
 20
-8.05219
 11
-13.6855
 21
-8.22263
  0
LINE
  8
0
 10
-13.6855
 20
-8.22263
 11
-13.7865
 21
-8.38167
  0
LINE
  8
0
 10
-13.7865
 20
-8.38167
 11
-13.9065
 21
-8.52681
  0
LINE
  8
0
 10
-13.9065
 20
-8.52681
 11
-14.0439
 21
-8.65576
  0
LINE
  8
0
 10
-14.0439
 20
-8.65576
 11
-14.1963
 21
-8.76648
  0
LINE
  8
0
 10
-14.1963
 20
-8.76648
 11
-14.3613
 21
-8.85724
  0
LINE
  8
0
 10
-14.3613
 20
-8.85724
 11
-14.5365
 21
-8.92657
  0
LINE
  8
0
 10
-14.5365
 20
-8.92657
 11
-14.7189
 21
-8.97342
  0
LINE
  8
0
 10
-14.7189
 20
-8.97342
 11
-14.9058
 21
-8.99704
  0
LINE
  8
0
 10
-14.9058
 20
-8.99704
 11
-15.0942
 21
-8.99704
  0
LINE
  8
0
 10
14.8116
 20
-17.9941
 11
14.4379
 21
-17.9469
  0
LINE
  8
0
 10
14.4379
 20
-17.9469
 11
14.0729
 21
-17.8532
  0
LINE
  8
0
 10
14.0729
 20
-17.8532
 11
13.7227
 21
-17.7145
  0
LINE
  8
0
 10
13.7227
 20
-17.7145
 11
13.3925
 21
-17.533
  0
LINE
  8
0
 10
13.3925
 20
-17.533
 11
13.0877
 21
-17.3115
  0
LINE
  8
0
 10
13.0877
 20
-17.3115
 11
12.8131
 21
-17.0536
  0
LINE
  8
0
 10
12.8131
 20
-17.0536
 11
12.5729
 21
-16.7634
  0
LINE
  8
0
 10
12.5729
 20
-16.7634
 11
12.3711
 21
-16.4453
  0
LINE
  8
0
 10
12.3711
 20
-16.4453
 11
12.2107
 21
-16.1044
  0
LINE
  8
0
 10
12.2107
 20
-16.1044
 11
12.0942
 21
-15.7461
  0
LINE
  8
0
 10
12.0942
 20
-15.7461
 11
12.0237
 21
-15.376
  0
LINE
  8
0
 10
12.0237
 20
-15.376
 11
12
 21
-15
  0
LINE
  8
0
 10
12
 20
-15
 11
12.0237
 21
-14.624
  0
LINE
  8
0
 10
12.0237
 20
-14.624
 11
12.0942
 21
-14.2539
  0
LINE
  8
0
 10
12.0942
 20
-14.2539
 11
12.2107
 21
-13.8956
  0
LINE
  8
0
 10
12.2107
 20
-13.8956
 11
12.3711
 21
-13.5547
  0
LINE
  8
0
 10
12.3711
 20
-13.5547
 11
12.5729
 21
-13.2366
  0
LINE
  8
0
 10
12.5729
 20
-13.2366
 11
12.8131
 21
-12.9464
  0
LINE
  8
0
 10
12.8131
 20
-12.9464
 11
13.0877
 21
-12.6884
  0
LINE
  8
0
 10
13.0877
 20
-12.6884
 11
13.3925
 21
-12.467
  0
LINE
  8
0
 10
13.3925
 20
-12.467
 11
13.7227
 21
-12.2855
  0
LINE
  8
0
 10
13.7227
 20
-12.2855
 11
14.0729
 21
-12.1468
  0
LINE
  8
0
 10
14.0729
 20
-12.1468
 11
14.4379
 21
-12.0531
  0
LINE
  8
0
 10
14.4379
 20
-12.0531
 11
14.8116
 21
-12.0059
  0
LINE
  8
0
 10
14.8116
 20
-12.0059
 11
15.1884
 21
-12.0059
  0
LINE
  8
0
 10
15.1884
 20
-12.0059
 11
15.5621
 21
-12.0531
  0
LINE
  8
0
 10
15.5621
 20
-12.0531
 11
15.927
 21
-12.1468
  0
LINE
  8
0
 10
15.927
 20
-12.1468
 11
16.2773
 21
-12.2855
  0
LINE
  8
0
 10
16.2773
 20
-12.2855
 11
16.6075
 21
-12.467
  0
LINE
  8
0
 10
16.6075
 20
-12.467
 11
16.9123
 21
-12.6884
  0
LINE
  8
0
 10
16.9123
 20
-12.6884
 11
17.1869
 21
-12.9464
  0
LINE
  8
0
 10
17.1869
 20
-12.9464
 11
17.427
 21
-13.2366
  0
LINE
  8
0
 10
17.427
 20
-13.2366
 11
17.6289
 21
-13.5547
  0
LINE
  8
0
 10
17.6289
 20
-13.5547
 11
17.7893
 21
-13.8956
  0
LINE
  8
0
 10
17.7893
 20
-13.8956
 11
17.9057
 21
-14.2539
  0
LINE
  8
0
 10
17.9057
 20
-14.2539
 11
17.9763
 21
-14.624
  0
LINE
  8
0
 10
17.9763
 20
-14.624
 11
18
 21
-15
  0
LINE
  8
0
 10
18
 20
-15
 11
17.9763
 21
-15.376
  0
LINE
  8
0
 10
17.9763
 20
-15.376
 11
17.9057
 21
-15.7461
  0
LINE
  8
0
 10
17.9057
 20
-15.7461
 11
17.7893
 21
-16.1044
  0
LINE
  8
0
 10
17.7893
 20
-16.1044
 11
17.6289
 21
-16.4453
  0
LINE
  8
0
 10
17.6289
 20
-16.4453
 11
17.427
 21
-16.7634
  0
LINE
  8
0
 10
17.427
 20
-16.7634
 11
17.1869
 21
-17.0536
  0
LINE
  8
0
 10
17.1869
 20
-17.0536
 11
16.9123
 21
-17.3115
  0
LINE
  8
0
 10
16.9123
 20
-17.3115
 11
16.6075
 21
-17.533
  0
LINE
  8
0
 10
16.6075
 20
-17.533
 11
16.2773
 21
-17.7145
  0
LINE
  8
0
 10
16.2773
 20
-17.7145
 11
15.927
 21
-17.8532
  0
LINE
  8
0
 10
15.927
 20
-17.8532
 11
15.5621
 21
-17.9469
  0
LINE
  8
0
 10
15.5621
 20
-17.9469
 11
15.1884
 21
-17.9941
  0
LINE
  8
0
 10
15.1884
 20
-17.9941
 11
14.8116
 21
-17.9941
  0
LINE
  8
0
 10
-0.18837
 20
-17.9941
 11
-0.562134
 21
-17.9469
  0
LINE
  8
0
 10
-0.562134
 20
-17.9469
 11
-0.927048
 21
-17.8532
  0
LINE
  8
0
 10
-0.927048
 20
-17.8532
 11
-1.27733
 21
-17.7145
  0
LINE
  8
0
 10
-1.27733
 20
-17.7145
 11
-1.60747
 21
-17.533
  0
LINE
  8
0
 10
-1.60747
 20
-17.533
 11
-1.91226
 21
-17.3115
  0
LINE
  8
0
 10
-1.91226
 20
-17.3115
 11
-2.1869
 21
-17.0536
  0
LINE
  8
0
 10
-2.1869
 20
-17.0536
 11
-2.42705
 21
-16.7634
  0
LINE
  8
0
 10
-2.42705
 20
-16.7634
 11
-2.62891
 21
-16.4453
  0
LINE
  8
0
 10
-2.62891
 20
-16.4453
 11
-2.78932
 21
-16.1044
  0
LINE
  8
0
 10
-2.78932
 20
-16.1044
 11
-2.90575
 21
-15.7461
  0
LINE
  8
0
 10
-2.90575
 20
-15.7461
 11
-2.97633
 21
-15.376
  0
LINE
  8
0
 10
-2.97633
 20
-15.376
 11
-3
 21
-15
  0
LINE
  8
0
 10
-3
 20
-15
 11
-2.97633
 21
-14.624
  0
LINE
  8
0
 10
-2.97633
 20
-14.624
 11
-2.90575
 21
-14.2539
  0
LINE
  8
0
 10
-2.90575
 20
-14.2539
 11
-2.78932
 21
-13.8956
  0
LINE
  8
0
 10
-2.78932
 20
-13.8956
 11
-2.62891
 21
-13.5547
  0
LINE
  8
0
 10
-2.62891
 20
-13.5547
 11
-2.42705
 21
-13.2366
  0
LINE
  8
0
 10
-2.42705
 20
-13.2366
 11
-2.1869
 21
-12.9464
  0
LINE
  8
0
 10
-2.1869
 20
-12.9464
 11
-1.91226
 21
-12.6884
  0
LINE
  8
0
 10
-1.91226
 20
-12.6884
 11
-1.60747
 21
-12.467
  0
LINE
  8
0
 10
-1.60747
 20
-12.467
 11
-1.27733
 21
-12.2855
  0
LINE
  8
0
 10
-1.27733
 20
-12.2855
 11
-0.927048
 21
-12.1468
  0
LINE
  8
0
 10
-0.927048
 20
-12.1468
 11
-0.562134
 21
-12.0531
  0
LINE
  8
0
 10
-0.562134
 20
-12.0531
 11
-0.18837
 21
-12.0059
  0
LINE
  8
0
 10
-0.18837
 20
-12.0059
 11
0.18837
 21
-12.0059
  0
LINE
  8
0
 10
0.18837
 20
-12.0059
 11
0.562134
 21
-12.0531
  0
LINE
  8
0
 10
0.562134
 20
-12.0531
 11
0.927048
 21
-12.1468
  0
LINE
  8
0
 10
0.927048
 20
-12.1468
 11
1.27733
 21
-12.2855
  0
LINE
  8
0
 10
1.27733
 20
-12.2855
 11
1.60747
 21
-12.467
  0
LINE
  8
0
 10
1.60747
 20
-12.467
 11
1.91226
 21
-12.6884
  0
LINE
  8
0
 10
1.91226
 20
-12.6884
 11
2.1869
 21
-12.9464
  0
LINE
  8
0
 10
2.1869
 20
-12.9464
 11
2.42705
 21
-13.2366
  0
LINE
  8
0
 10
2.42705
 20
-13.2366
 11
2.62891
 21
-13.5547
  0
LINE
  8
0
 10
2.62891
 20
-13.5547
 11
2.78932
 21
-13.8956
  0
LINE
  8
0
 10
2.78932
 20
-13.8956
 11
2.90575
 21
-14.2539
  0
LINE
  8
0
 10
2.90575
 20
-14.2539
 11
2.97633
 21
-14.624
  0
LINE
  8
0
 10
2.97633
 20
-14.624
 11
3
 21
-15
  0
LINE
  8
0
 10
3
 20
-15
 11
2.97633
 21
-15.376
  0
LINE
  8
0
 10
2.97633
 20
-15.376
 11
2.90575
 21
-15.7461
  0
LINE
  8
0
 10
2.90575
 20
-15.7461
 11
2.78932
 21
-16.1044
  0
LINE
  8
0
 10
2.78932
 20
-16.1044
 11
2.62891
 21
-16.4453
  0
LINE
  8
0
 10
2.62891
 20
-16.4453
 11
2.42705
 21
-16.7634
  0
LINE
  8
0
 10
2.42705
 20
-16.7634
 11
2.1869
 21
-17.0536
  0
LINE
  8
0
 10
2.1869
 20
-17.0536
 11
1.91226
 21
-17.3115
  0
LINE
  8
0
 10
1.91226
 20
-17.3115
 11
1.60747
 21
-17.533
  0
LINE
  8
0
 10
1.60747
 20
-17.533
 11
1.27733
 21
-17.7145
  0
LINE
  8
0
 10
1.27733
 20
-17.7145
 11
0.927048
 21
-17.8532
  0
LINE
  8
0
 10
0.927048
 20
-17.8532
 11
0.562134
 21
-17.9469
  0
LINE
  8
0
 10
0.562134
 20
-17.9469
 11
0.18837
 21
-17.9941
  0
LINE
  8
0
 10
0.18837
 20
-17.9941
 11
-0.18837
 21
-17.9941
  0
LINE
  8
0
 10
-15.1884
 20
-17.9941
 11
-15.5621
 21
-17.9469
  0
LINE
  8
0
 10
-15.5621
 20
-17.9469
 11
-15.927
 21
-17.8532
  0
LINE
  8
0
 10
-15.927
 20
-17.8532
 11
-16.2773
 21
-17.7145
  0
LINE
  8
0
 10
-16.2773
 20
-17.7145
 11
-16.6075
 21
-17.533
  0
LINE
  8
0
 10
-16.6075
 20
-17.533
 11
-16.9123
 21
-17.3115
  0
LINE
  8
0
 10
-16.9123
 20
-17.3115
 11
-17.1869
 21
-17.0536
  0
LINE
  8
0
 10
-17.1869
 20
-17.0536
 11
-17.427
 21
-16.7634
  0
LINE
  8
0
 10
-17.427
 20
-16.7634
 11
-17.6289
 21
-16.4453
  0
LINE
  8
0
 10
-17.6289
 20
-16.4453
 11
-17.7893
 21
-16.1044
  0
LINE
  8
0
 10
-17.7893
 20
-16.1044
 11
-17.9057
 21
-15.7461
  0
LINE
  8
0
 10
-17.9057
 20
-15.7461
 11
-17.9763
 21
-15.376
  0
LINE
  8
0
 10
-17.9763
 20
-15.376
 11
-18
 21
-15
  0
LINE
  8
0
 10
-18
 20
-15
 11
-17.9763
 21
-14.624
  0
LINE
  8
0
 10
-17.9763
 20
-14.624
 11
-17.9057
 21
-14.2539
  0
LINE
  8
0
 10
-17.9057
 20
-14.2539
 11
-17.7893
 21
-13.8956
  0
LINE
  8
0
 10
-17.7893
 20
-13.8956
 11
-17.6289
 21
-13.5547
  0
LINE
  8
0
 10
-17.6289
 20
-13.5547
 11
-17.427
 21
-13.2366
  0
LINE
  8
0
 10
-17.427
 20
-13.2366
 11
-17.1869
 21
-12.9464
  0
LINE
  8
0
 10
-17.1869
 20
-12.9464
 11
-16.9123
 21
-12.6884
  0
LINE
  8
0
 10
-16.9123
 20
-12.6884
 11
-16.6075
 21
-12.467
  0
LINE
  8
0
 10
-16.6075
 20
-12.467
 11
-16.2773
 21
-12.2855
  0
LINE
  8
0
 10
-16.2773
 20
-12.2855
 11
-15.927
 21
-12.1468
  0
LINE
  8
0
 10
-15.927
 20
-12.1468
 11
-15.5621
 21
-12.0531
  0
LINE
  8
0
 10
-15.5621
 20
-12.0531
 11
-15.1884
 21
-12.0059
  0
LINE
  8
0
 10
-15.1884
 20
-12.0059
 11
-14.8116
 21
-12.0059
  0
LINE
  8
0
 10
-14.8116
 20
-12.0059
 11
-14.4379
 21
-12.0531
  0
LINE
  8
0
 10
-14.4379
 20
-12.0531
 11
-14.0729
 21
-12.1468
  0
LINE
  8
0
 10
-14.0729
 20
-12.1468
 11
-13.7227
 21
-12.2855
  0
LINE
  8
0
 10
-13.7227
 20
-12.2855
 11
-13.3925
 21
-12.467
  0
LINE
  8
0
 10
-13.3925
 20
-12.467
 11
-13.0877
 21
-12.6884
  0
LINE
  8
0
 10
-13.0877
 20
-12.6884
 11
-12.8131
 21
-12.9464
  0
LINE
  8
0
 10
-12.8131
 20
-12.9464
 11
-12.5729
 21
-13.2366
  0
LINE
  8
0
 10
-12.5729
 20
-13.2366
 11
-12.3711
 21
-13.5547
  0
LINE
  8
0
 10
-12.3711
 20
-13.5547
 11
-12.2107
 21
-13.8956
  0
LINE
  8
0
 10
-12.2107
 20
-13.8956
 11
-12.0942
 21
-14.2539
  0
LINE
  8
0
 10
-12.0942
 20
-14.2539
 11
-12.0237
 21
-14.624
  0
LINE
  8
0
 10
-12.0237
 20
-14.624
 11
-12
 21
-15
  0
LINE
  8
0
 10
-12
 20
-15
 11
-12.0237
 21
-15.376
  0
LINE
  8
0
 10
-12.0237
 20
-15.376
 11
-12.0942
 21
-15.7461
  0
LINE
  8
0
 10
-12.0942
 20
-15.7461
 11
-12.2107
 21
-16.1044
  0
LINE
  8
0
 10
-12.2107
 20
-16.1044
 11
-12.3711
 21
-16.4453
  0
LINE
  8
0
 10
-12.3711
 20
-16.4453
 11
-12.5729
 21
-16.7634
  0
LINE
  8
0
 10
-12.5729
 20
-16.7634
 11
-12.8131
 21
-17.0536
  0
LINE
  8
0
 10
-12.8131
 20
-17.0536
 11
-13.0877
 21
-17.3115
  0
LINE
  8
0
 10
-13.0877
 20
-17.3115
 11
-13.3925
 21
-17.533
  0
LINE
  8
0
 10
-13.3925
 20
-17.533
 11
-13.7227
 21
-17.7145
  0
LINE
  8
0
 10
-13.7227
 20
-17.7145
 11
-14.0729
 21
-17.8532
  0
LINE
  8
0
 10
-14.0729
 20
-17.8532
 11
-14.4379
 21
-17.9469
  0
LINE
  8
0
 10
-14.4379
 20
-17.9469
 11
-14.8116
 21
-17.9941
  0
LINE
  8
0
 10
-14.8116
 20
-17.9941
 11
-15.1884
 21
-17.9941
  0
LINE
  8
0
 10
7.38696
 20
-16.7964
 11
7.1627
 21
-16.7681
  0
LINE
  8
0
 10
7.1627
 20
-16.7681
 11
6.94376
 21
-16.7119
  0
LINE
  8
0
 10
6.94376
 20
-16.7119
 11
6.7336
 21
-16.6287
  0
LINE
  8
0
 10
6.7336
 20
-16.6287
 11
6.53551
 21
-16.5198
  0
LINE
  8
0
 10
6.53551
 20
-16.5198
 11
6.35263
 21
-16.3869
  0
LINE
  8
0
 10
6.35263
 20
-16.3869
 11
6.18785
 21
-16.2322
  0
LINE
  8
0
 10
6.18785
 20
-16.2322
 11
6.04376
 21
-16.058
  0
LINE
  8
0
 10
6.04376
 20
-16.058
 11
5.92264
 21
-15.8671
  0
LINE
  8
0
 10
5.92264
 20
-15.8671
 11
5.8264
 21
-15.6626
  0
LINE
  8
0
 10
5.8264
 20
-15.6626
 11
5.75655
 21
-15.4476
  0
LINE
  8
0
 10
5.75655
 20
-15.4476
 11
5.71419
 21
-15.2256
  0
LINE
  8
0
 10
5.71419
 20
-15.2256
 11
5.7
 21
-15
  0
LINE
  8
0
 10
5.7
 20
-15
 11
5.71419
 21
-14.7744
  0
LINE
  8
0
 10
5.71419
 20
-14.7744
 11
5.75655
 21
-14.5524
  0
LINE
  8
0
 10
5.75655
 20
-14.5524
 11
5.8264
 21
-14.3374
  0
LINE
  8
0
 10
5.8264
 20
-14.3374
 11
5.92264
 21
-14.1328
  0
LINE
  8
0
 10
5.92264
 20
-14.1328
 11
6.04376
 21
-13.942
  0
LINE
  8
0
 10
6.04376
 20
-13.942
 11
6.18785
 21
-13.7678
  0
LINE
  8
0
 10
6.18785
 20
-13.7678
 11
6.35263
 21
-13.6131
  0
LINE
  8
0
 10
6.35263
 20
-13.6131
 11
6.53551
 21
-13.4802
  0
LINE
  8
0
 10
6.53551
 20
-13.4802
 11
6.7336
 21
-13.3713
  0
LINE
  8
0
 10
6.7336
 20
-13.3713
 11
6.94376
 21
-13.2881
  0
LINE
  8
0
 10
6.94376
 20
-13.2881
 11
7.1627
 21
-13.2319
  0
LINE
  8
0
 10
7.1627
 20
-13.2319
 11
7.38696
 21
-13.2036
  0
LINE
  8
0
 10
7.38696
 20
-13.2036
 11
7.61302
 21
-13.2036
  0
LINE
  8
0
 10
7.61302
 20
-13.2036
 11
7.83728
 21
-13.2319
  0
LINE
  8
0
 10
7.83728
 20
-13.2319
 11
8.05623
 21
-13.2881
  0
LINE
  8
0
 10
8.05623
 20
-13.2881
 11
8.26639
 21
-13.3713
  0
LINE
  8
0
 10
8.26639
 20
-13.3713
 11
8.46448
 21
-13.4802
  0
LINE
  8
0
 10
8.46448
 20
-13.4802
 11
8.64735
 21
-13.6131
  0
LINE
  8
0
 10
8.64735
 20
-13.6131
 11
8.81213
 21
-13.7678
  0
LINE
  8
0
 10
8.81213
 20
-13.7678
 11
8.95622
 21
-13.942
  0
LINE
  8
0
 10
8.95622
 20
-13.942
 11
9.07735
 21
-14.1328
  0
LINE
  8
0
 10
9.07735
 20
-14.1328
 11
9.17358
 21
-14.3374
  0
LINE
  8
0
 10
9.17358
 20
-14.3374
 11
9.24344
 21
-14.5524
  0
LINE
  8
0
 10
9.24344
 20
-14.5524
 11
9.2858
 21
-14.7744
  0
LINE
  8
0
 10
9.2858
 20
-14.7744
 11
9.29999
 21
-15
  0
LINE
  8
0
 10
9.29999
 20
-15
 11
9.2858
 21
-15.2256
  0
LINE
  8
0
 10
9.2858
 20
-15.2256
 11
9.24344
 21
-15.4476
  0
LINE
  8
0
 10
9.24344
 20
-15.4476
 11
9.17358
 21
-15.6626
  0
LINE
  8
0
 10
9.17358
 20
-15.6626
 11
9.07735
 21
-15.8671
  0
LINE
  8
0
 10
9.07735
 20
-15.8671
 11
8.95622
 21
-16.058
  0
LINE
  8
0
 10
8.95622
 20
-16.058
 11
8.81213
 21
-16.2322
  0
LINE
  8
0
 10
8.81213
 20
-16.2322
 11
8.64735
 21
-16.3869
  0
LINE
  8
0
 10
8.64735
 20
-16.3869
 11
8.46448
 21
-16.5198
  0
LINE
  8
0
 10
8.46448
 20
-16.5198
 11
8.26639
 21
-16.6287
  0
LINE
  8
0
 10
8.26639
 20
-16.6287
 11
8.05623
 21
-16.7119
  0
LINE
  8
0
 10
8.05623
 20
-16.7119
 11
7.83728
 21
-16.7681
  0
LINE
  8
0
 10
7.83728
 20
-16.7681
 11
7.61302
 21
-16.7964
  0
LINE
  8
0
 10
7.61302
 20
-16.7964
 11
7.38696
 21
-16.7964
  0
LINE
  8
0
 10
-7.59418
 20
-16.497
 11
-7.78107
 21
-16.4734
  0
LINE
  8
0
 10
-7.78107
 20
-16.4734
 11
-7.96352
 21
-16.4266
  0
LINE
  8
0
 10
-7.96352
 20
-16.4266
 11
-8.13866
 21
-16.3572
  0
LINE
  8
0
 10
-8.13866
 20
-16.3572
 11
-8.30373
 21
-16.2665
  0
LINE
  8
0
 10
-8.30373
 20
-16.2665
 11
-8.45613
 21
-16.1558
  0
LINE
  8
0
 10
-8.45613
 20
-16.1558
 11
-8.59344
 21
-16.0268
  0
LINE
  8
0
 10
-8.59344
 20
-16.0268
 11
-8.71352
 21
-15.8817
  0
LINE
  8
0
 10
-8.71352
 20
-15.8817
 11
-8.81445
 21
-15.7226
  0
LINE
  8
0
 10
-8.81445
 20
-15.7226
 11
-8.89465
 21
-15.5522
  0
LINE
  8
0
 10
-8.89465
 20
-15.5522
 11
-8.95287
 21
-15.373
  0
LINE
  8
0
 10
-8.95287
 20
-15.373
 11
-8.98816
 21
-15.188
  0
LINE
  8
0
 10
-8.98816
 20
-15.188
 11
-9
 21
-15
  0
LINE
  8
0
 10
-9
 20
-15
 11
-8.98816
 21
-14.812
  0
LINE
  8
0
 10
-8.98816
 20
-14.812
 11
-8.95287
 21
-14.627
  0
LINE
  8
0
 10
-8.95287
 20
-14.627
 11
-8.89465
 21
-14.4478
  0
LINE
  8
0
 10
-8.89465
 20
-14.4478
 11
-8.81445
 21
-14.2774
  0
LINE
  8
0
 10
-8.81445
 20
-14.2774
 11
-8.71352
 21
-14.1183
  0
LINE
  8
0
 10
-8.71352
 20
-14.1183
 11
-8.59344
 21
-13.9732
  0
LINE
  8
0
 10
-8.59344
 20
-13.9732
 11
-8.45613
 21
-13.8442
  0
LINE
  8
0
 10
-8.45613
 20
-13.8442
 11
-8.30373
 21
-13.7335
  0
LINE
  8
0
 10
-8.30373
 20
-13.7335
 11
-8.13866
 21
-13.6427
  0
LINE
  8
0
 10
-8.13866
 20
-13.6427
 11
-7.96352
 21
-13.5734
  0
LINE
  8
0
 10
-7.96352
 20
-13.5734
 11
-7.78107
 21
-13.5266
  0
LINE
  8
0
 10
-7.78107
 20
-13.5266
 11
-7.59418
 21
-13.5029
  0
LINE
  8
0
 10
-7.59418
 20
-13.5029
 11
-7.40581
 21
-13.5029
  0
LINE
  8
0
 10
-7.40581
 20
-13.5029
 11
-7.21892
 21
-13.5266
  0
LINE
  8
0
 10
-7.21892
 20
-13.5266
 11
-7.03647
 21
-13.5734
  0
LINE
  8
0
 10
-7.03647
 20
-13.5734
 11
-6.86133
 21
-13.6427
  0
LINE
  8
0
 10
-6.86133
 20
-13.6427
 11
-6.69626
 21
-13.7335
  0
LINE
  8
0
 10
-6.69626
 20
-13.7335
 11
-6.54385
 21
-13.8442
  0
LINE
  8
0
 10
-6.54385
 20
-13.8442
 11
-6.40654
 21
-13.9732
  0
LINE
  8
0
 10
-6.40654
 20
-13.9732
 11
-6.28647
 21
-14.1183
  0
LINE
  8
0
 10
-6.28647
 20
-14.1183
 11
-6.18553
 21
-14.2774
  0
LINE
  8
0
 10
-6.18553
 20
-14.2774
 11
-6.10533
 21
-14.4478
  0
LINE
  8
0
 10
-6.10533
 20
-14.4478
 11
-6.04712
 21
-14.627
  0
LINE
  8
0
 10
-6.04712
 20
-14.627
 11
-6.01183
 21
-14.812
  0
LINE
  8
0
 10
-6.01183
 20
-14.812
 11
-6
 21
-15
  0
LINE
  8
0
 10
-6
 20
-15
 11
-6.01183
 21
-15.188
  0
LINE
  8
0
 10
-6.01183
 20
-15.188
 11
-6.04712
 21
-15.373
  0
LINE
  8
0
 10
-6.04712
 20
-15.373
 11
-6.10533
 21
-15.5522
  0
LINE
  8
0
 10
-6.10533
 20
-15.5522
 11
-6.18553
 21
-15.7226
  0
LINE
  8
0
 10
-6.18553
 20
-15.7226
 11
-6.28647
 21
-15.8817
  0
LINE
  8
0
 10
-6.28647
 20
-15.8817
 11
-6.40654
 21
-16.0268
  0
LINE
  8
0
 10
-6.40654
 20
-16.0268
 11
-6.54385
 21
-16.1558
  0
LINE
  8
0
 10
-6.54385
 20
-16.1558
 11
-6.69626
 21
-16.2665
  0
LINE
  8
0
 10
-6.69626
 20
-16.2665
 11
-6.86133
 21
-16.3572
  0
LINE
  8
0
 10
-6.86133
 20
-16.3572
 11
-7.03647
 21
-16.4266
  0
LINE
  8
0
 10
-7.03647
 20
-16.4266
 11
-7.21892
 21
-16.4734
  0
LINE
  8
0
 10
-7.21892
 20
-16.4734
 11
-7.40581
 21
-16.497
  0
LINE
  8
0
 10
-7.40581
 20
-16.497
 11
-7.59418
 21
-16.497
  0
ENDSEC
  0
SECTION
  2
OBJECTS
  0
DICTIONARY
  0
ENDSEC
  0
EOF
