<?xml version="1.0" standalone="no"?>
<!DOCTYPE svg PUBLIC "-//W3C//DTD SVG 1.1//EN" "http://www.w3.org/Graphics/SVG/1.1/DTD/svg11.dtd">
<svg width="136mm" height="987mm" viewBox="-68 -1614 136 987" xmlns="http://www.w3.org/2000/svg" version="1.1">
<title>OpenSCAD Model</title>
<path d="
M 63.4369,-1374.09 L 64.0451,-1374.24 L 64.6289,-1374.48 L 65.1791,-1374.78 L 65.6871,-1375.15 L 66.1448,-1375.58
 L 66.5451,-1376.06 L 66.8815,-1376.59 L 67.1489,-1377.16 L 67.3429,-1377.76 L 67.4606,-1378.37 L 67.5,-1379
 L 67.5,-1609 L 67.4606,-1609.63 L 67.3429,-1610.24 L 67.1489,-1610.84 L 66.8815,-1611.41 L 66.5451,-1611.94
 L 66.1448,-1612.42 L 65.6871,-1612.85 L 65.1791,-1613.22 L 64.6289,-1613.52 L 64.0451,-1613.76 L 63.4369,-1613.91
 L 62.8139,-1613.99 L -62.8139,-1613.99 L -63.4369,-1613.91 L -64.0451,-1613.76 L -64.6289,-1613.52 L -65.1791,-1613.22
 L -65.6871,-1612.85 L -66.1448,-1612.42 L -66.5451,-1611.94 L -66.8815,-1611.41 L -67.1489,-1610.84 L -67.3429,-1610.24
 L -67.4606,-1609.63 L -67.5,-1609 L -67.5,-1379 L -67.4606,-1378.37 L -67.3429,-1377.76 L -67.1489,-1377.16
 L -66.8815,-1376.59 L -66.5451,-1376.06 L -66.1448,-1375.58 L -65.6871,-1375.15 L -65.1791,-1374.78 L -64.6289,-1374.48
 L -64.0451,-1374.24 L -63.4369,-1374.09 L -62.8139,-1374.01 L 62.8139,-1374.01 z
M -62.2512,-1375.51 L -62.7495,-1375.57 L -63.2361,-1375.7 L -63.7031,-1375.88 L -64.1433,-1376.12 L -64.5497,-1376.42
 L -64.9159,-1376.76 L -65.2361,-1377.15 L -65.5052,-1377.57 L -65.7191,-1378.03 L -65.8743,-1378.51 L -65.9685,-1379
 L -66,-1379.5 L -66,-1608.5 L -65.9685,-1609 L -65.8743,-1609.49 L -65.7191,-1609.97 L -65.5052,-1610.43
 L -65.2361,-1610.85 L -64.9159,-1611.24 L -64.5497,-1611.58 L -64.1433,-1611.88 L -63.7031,-1612.12 L -63.2361,-1612.3
 L -62.7495,-1612.43 L -62.2512,-1612.49 L 62.2512,-1612.49 L 62.7495,-1612.43 L 63.2361,-1612.3 L 63.7031,-1612.12
 L 64.1433,-1611.88 L 64.5497,-1611.58 L 64.9159,-1611.24 L 65.2361,-1610.85 L 65.5052,-1610.43 L 65.7191,-1609.97
 L 65.8743,-1609.49 L 65.9685,-1609 L 66,-1608.5 L 66,-1379.5 L 65.9685,-1379 L 65.8743,-1378.51
 L 65.7191,-1378.03 L 65.5052,-1377.57 L 65.2361,-1377.15 L 64.9159,-1376.76 L 64.5497,-1376.42 L 64.1433,-1376.12
 L 63.7031,-1375.88 L 63.2361,-1375.7 L 62.7495,-1375.57 L 62.2512,-1375.51 z
M 63.4369,-1125.09 L 64.0451,-1125.24 L 64.6289,-1125.48 L 65.1791,-1125.78 L 65.6871,-1126.15 L 66.1448,-1126.58
 L 66.5451,-1127.06 L 66.8815,-1127.59 L 67.1489,-1128.16 L 67.3429,-1128.76 L 67.4606,-1129.37 L 67.5,-1130
 L 67.5,-1360 L 67.4606,-1360.63 L 67.3429,-1361.24 L 67.1489,-1361.84 L 66.8815,-1362.41 L 66.5451,-1362.94
 L 66.1448,-1363.42 L 65.6871,-1363.85 L 65.1791,-1364.22 L 64.6289,-1364.52 L 64.0451,-1364.76 L 63.4369,-1364.91
 L 62.8139,-1364.99 L -62.8139,-1364.99 L -63.4369,-1364.91 L -64.0451,-1364.76 L -64.6289,-1364.52 L -65.1791,-1364.22
 L -65.6871,-1363.85 L -66.1448,-1363.42 L -66.5451,-1362.94 L -66.8815,-1362.41 L -67.1489,-1361.84 L -67.3429,-1361.24
 L -67.4606,-1360.63 L -67.5,-1360 L -67.5,-1130 L -67.4606,-1129.37 L -67.3429,-1128.76 L -67.1489,-1128.16
 L -66.8815,-1127.59 L -66.5451,-1127.06 L -66.1448,-1126.58 L -65.6871,-1126.15 L -65.1791,-1125.78 L -64.6289,-1125.48
 L -64.0451,-1125.24 L -63.4369,-1125.09 L -62.8139,-1125.01 L 62.8139,-1125.01 z
M -62.2432,-1126.64 L -62.7256,-1126.7 L -63.1967,-1126.82 L -63.6489,-1127 L -64.0751,-1127.23 L -64.4685,-1127.52
 L -64.823,-1127.85 L -65.133,-1128.22 L -65.3936,-1128.63 L -65.6007,-1129.07 L -65.751,-1129.54 L -65.8421,-1130.01
 L -65.8726,-1130.5 L -65.8726,-1359.5 L -65.8421,-1359.99 L -65.751,-1360.46 L -65.6007,-1360.93 L -65.3936,-1361.37
 L -65.133,-1361.78 L -64.823,-1362.15 L -64.4685,-1362.48 L -64.0751,-1362.77 L -63.6489,-1363 L -63.1967,-1363.18
 L -62.7256,-1363.3 L -62.2432,-1363.36 L 62.2432,-1363.36 L 62.7256,-1363.3 L 63.1967,-1363.18 L 63.6489,-1363
 L 64.0751,-1362.77 L 64.4685,-1362.48 L 64.823,-1362.15 L 65.133,-1361.78 L 65.3936,-1361.37 L 65.6007,-1360.93
 L 65.751,-1360.46 L 65.8421,-1359.99 L 65.8726,-1359.5 L 65.8726,-1130.5 L 65.8421,-1130.01 L 65.751,-1129.54
 L 65.6007,-1129.07 L 65.3936,-1128.63 L 65.133,-1128.22 L 64.823,-1127.85 L 64.4685,-1127.52 L 64.0751,-1127.23
 L 63.6489,-1127 L 63.1967,-1126.82 L 62.7256,-1126.7 L 62.2432,-1126.64 z
M 63.4369,-876.089 L 64.0451,-876.245 L 64.6289,-876.476 L 65.1791,-876.778 L 65.6871,-877.147 L 66.1448,-877.577
 L 66.5451,-878.061 L 66.8815,-878.591 L 67.1489,-879.159 L 67.3429,-879.757 L 67.4606,-880.373 L 67.5,-881
 L 67.5,-1111 L 67.4606,-1111.63 L 67.3429,-1112.24 L 67.1489,-1112.84 L 66.8815,-1113.41 L 66.5451,-1113.94
 L 66.1448,-1114.42 L 65.6871,-1114.85 L 65.1791,-1115.22 L 64.6289,-1115.52 L 64.0451,-1115.76 L 63.4369,-1115.91
 L 62.8139,-1115.99 L -62.8139,-1115.99 L -63.4369,-1115.91 L -64.0451,-1115.76 L -64.6289,-1115.52 L -65.1791,-1115.22
 L -65.6871,-1114.85 L -66.1448,-1114.42 L -66.5451,-1113.94 L -66.8815,-1113.41 L -67.1489,-1112.84 L -67.3429,-1112.24
 L -67.4606,-1111.63 L -67.5,-1111 L -67.5,-881 L -67.4606,-880.373 L -67.3429,-879.757 L -67.1489,-879.159
 L -66.8815,-878.591 L -66.5451,-878.061 L -66.1448,-877.577 L -65.6871,-877.147 L -65.1791,-876.778 L -64.6289,-876.476
 L -64.0451,-876.245 L -63.4369,-876.089 L -62.8139,-876.01 L 62.8139,-876.01 z
M 59.8493,-1106.1 L 59.5503,-1106.14 L 59.2584,-1106.22 L 58.9781,-1106.33 L 58.714,-1106.47 L 58.4702,-1106.65
 L 58.2505,-1106.86 L 58.0583,-1107.09 L 57.8969,-1107.34 L 57.7685,-1107.62 L 57.6754,-1107.9 L 57.6189,-1108.2
 L 57.6,-1108.5 L 57.6189,-1108.8 L 57.6754,-1109.1 L 57.7685,-1109.38 L 57.8969,-1109.66 L 58.0583,-1109.91
 L 58.2505,-1110.14 L 58.4702,-1110.35 L 58.714,-1110.53 L 58.9781,-1110.67 L 59.2584,-1110.78 L 59.5503,-1110.86
 L 59.8493,-1110.9 L 60.1507,-1110.9 L 60.4497,-1110.86 L 60.7416,-1110.78 L 61.0219,-1110.67 L 61.286,-1110.53
 L 61.5298,-1110.35 L 61.7495,-1110.14 L 61.9416,-1109.91 L 62.1031,-1109.66 L 62.2315,-1109.38 L 62.3246,-1109.1
 L 62.3811,-1108.8 L 62.4,-1108.5 L 62.3811,-1108.2 L 62.3246,-1107.9 L 62.2315,-1107.62 L 62.1031,-1107.34
 L 61.9416,-1107.09 L 61.7495,-1106.86 L 61.5298,-1106.65 L 61.286,-1106.47 L 61.0219,-1106.33 L 60.7416,-1106.22
 L 60.4497,-1106.14 L 60.1507,-1106.1 z
M -60.1507,-1106.1 L -60.4497,-1106.14 L -60.7416,-1106.22 L -61.0219,-1106.33 L -61.286,-1106.47 L -61.5298,-1106.65
 L -61.7495,-1106.86 L -61.9416,-1107.09 L -62.1031,-1107.34 L -62.2315,-1107.62 L -62.3246,-1107.9 L -62.3811,-1108.2
 L -62.4,-1108.5 L -62.3811,-1108.8 L -62.3246,-1109.1 L -62.2315,-1109.38 L -62.1031,-1109.66 L -61.9416,-1109.91
 L -61.7495,-1110.14 L -61.5298,-1110.35 L -61.286,-1110.53 L -61.0219,-1110.67 L -60.7416,-1110.78 L -60.4497,-1110.86
 L -60.1507,-1110.9 L -59.8493,-1110.9 L -59.5503,-1110.86 L -59.2584,-1110.78 L -58.9781,-1110.67 L -58.714,-1110.53
 L -58.4702,-1110.35 L -58.2505,-1110.14 L -58.0583,-1109.91 L -57.8969,-1109.66 L -57.7685,-1109.38 L -57.6754,-1109.1
 L -57.6189,-1108.8 L -57.6,-1108.5 L -57.6189,-1108.2 L -57.6754,-1107.9 L -57.7685,-1107.62 L -57.8969,-1107.34
 L -58.0583,-1107.09 L -58.2505,-1106.86 L -58.4702,-1106.65 L -58.714,-1106.47 L -58.9781,-1106.33 L -59.2584,-1106.22
 L -59.5503,-1106.14 L -59.8493,-1106.1 z
M 59.8493,-881.105 L 59.5503,-881.143 L 59.2584,-881.217 L 58.9781,-881.328 L 58.714,-881.474 L 58.4702,-881.651
 L 58.2505,-881.857 L 58.0583,-882.089 L 57.8969,-882.344 L 57.7685,-882.617 L 57.6754,-882.903 L 57.6189,-883.199
 L 57.6,-883.5 L 57.6189,-883.801 L 57.6754,-884.097 L 57.7685,-884.383 L 57.8969,-884.656 L 58.0583,-884.911
 L 58.2505,-885.143 L 58.4702,-885.349 L 58.714,-885.526 L 58.9781,-885.672 L 59.2584,-885.783 L 59.5503,-885.857
 L 59.8493,-885.895 L 60.1507,-885.895 L 60.4497,-885.857 L 60.7416,-885.783 L 61.0219,-885.672 L 61.286,-885.526
 L 61.5298,-885.349 L 61.7495,-885.143 L 61.9416,-884.911 L 62.1031,-884.656 L 62.2315,-884.383 L 62.3246,-884.097
 L 62.3811,-883.801 L 62.4,-883.5 L 62.3811,-883.199 L 62.3246,-882.903 L 62.2315,-882.617 L 62.1031,-882.344
 L 61.9416,-882.089 L 61.7495,-881.857 L 61.5298,-881.651 L 61.286,-881.474 L 61.0219,-881.328 L 60.7416,-881.217
 L 60.4497,-881.143 L 60.1507,-881.105 z
M -60.1507,-881.105 L -60.4497,-881.143 L -60.7416,-881.217 L -61.0219,-881.328 L -61.286,-881.474 L -61.5298,-881.651
 L -61.7495,-881.857 L -61.9416,-882.089 L -62.1031,-882.344 L -62.2315,-882.617 L -62.3246,-882.903 L -62.3811,-883.199
 L -62.4,-883.5 L -62.3811,-883.801 L -62.3246,-884.097 L -62.2315,-884.383 L -62.1031,-884.656 L -61.9416,-884.911
 L -61.7495,-885.143 L -61.5298,-885.349 L -61.286,-885.526 L -61.0219,-885.672 L -60.7416,-885.783 L -60.4497,-885.857
 L -60.1507,-885.895 L -59.8493,-885.895 L -59.5503,-885.857 L -59.2584,-885.783 L -58.9781,-885.672 L -58.714,-885.526
 L -58.4702,-885.349 L -58.2505,-885.143 L -58.0583,-884.911 L -57.8969,-884.656 L -57.7685,-884.383 L -57.6754,-884.097
 L -57.6189,-883.801 L -57.6,-883.5 L -57.6189,-883.199 L -57.6754,-882.903 L -57.7685,-882.617 L -57.8969,-882.344
 L -58.0583,-882.089 L -58.2505,-881.857 L -58.4702,-881.651 L -58.714,-881.474 L -58.9781,-881.328 L -59.2584,-881.217
 L -59.5503,-881.143 L -59.8493,-881.105 z
M 63.4369,-627.089 L 64.0451,-627.245 L 64.6289,-627.476 L 65.1791,-627.778 L 65.6871,-628.147 L 66.1448,-628.577
 L 66.5451,-629.061 L 66.8815,-629.591 L 67.1489,-630.159 L 67.3429,-630.757 L 67.4606,-631.373 L 67.5,-632
 L 67.5,-862 L 67.4606,-862.627 L 67.3429,-863.243 L 67.1489,-863.841 L 66.8815,-864.409 L 66.5451,-864.939
 L 66.1448,-865.423 L 65.6871,-865.853 L 65.1791,-866.222 L 64.6289,-866.524 L 64.0451,-866.755 L 63.4369,-866.911
 L 62.8139,-866.99 L -62.8139,-866.99 L -63.4369,-866.911 L -64.0451,-866.755 L -64.6289,-866.524 L -65.1791,-866.222
 L -65.6871,-865.853 L -66.1448,-865.423 L -66.5451,-864.939 L -66.8815,-864.409 L -67.1489,-863.841 L -67.3429,-863.243
 L -67.4606,-862.627 L -67.5,-862 L -67.5,-632 L -67.4606,-631.373 L -67.3429,-630.757 L -67.1489,-630.159
 L -66.8815,-629.591 L -66.5451,-629.061 L -66.1448,-628.577 L -65.6871,-628.147 L -65.1791,-627.778 L -64.6289,-627.476
 L -64.0451,-627.245 L -63.4369,-627.089 L -62.8139,-627.01 L 62.8139,-627.01 z
M 59.887,-857.704 L 59.6627,-857.732 L 59.4438,-857.788 L 59.2336,-857.871 L 59.0355,-857.98 L 58.8526,-858.113
 L 58.6879,-858.268 L 58.5438,-858.442 L 58.4226,-858.633 L 58.3264,-858.837 L 58.2565,-859.052 L 58.2142,-859.274
 L 58.2,-859.5 L 58.2142,-859.726 L 58.2565,-859.948 L 58.3264,-860.163 L 58.4226,-860.367 L 58.5438,-860.558
 L 58.6879,-860.732 L 58.8526,-860.887 L 59.0355,-861.02 L 59.2336,-861.129 L 59.4438,-861.212 L 59.6627,-861.268
 L 59.887,-861.296 L 60.113,-861.296 L 60.3373,-861.268 L 60.5562,-861.212 L 60.7664,-861.129 L 60.9645,-861.02
 L 61.1474,-860.887 L 61.3121,-860.732 L 61.4562,-860.558 L 61.5773,-860.367 L 61.6736,-860.163 L 61.7434,-859.948
 L 61.7858,-859.726 L 61.8,-859.5 L 61.7858,-859.274 L 61.7434,-859.052 L 61.6736,-858.837 L 61.5773,-858.633
 L 61.4562,-858.442 L 61.3121,-858.268 L 61.1474,-858.113 L 60.9645,-857.98 L 60.7664,-857.871 L 60.5562,-857.788
 L 60.3373,-857.732 L 60.113,-857.704 z
M -60.113,-857.704 L -60.3373,-857.732 L -60.5562,-857.788 L -60.7664,-857.871 L -60.9645,-857.98 L -61.1474,-858.113
 L -61.3121,-858.268 L -61.4562,-858.442 L -61.5773,-858.633 L -61.6736,-858.837 L -61.7434,-859.052 L -61.7858,-859.274
 L -61.8,-859.5 L -61.7858,-859.726 L -61.7434,-859.948 L -61.6736,-860.163 L -61.5773,-860.367 L -61.4562,-860.558
 L -61.3121,-860.732 L -61.1474,-860.887 L -60.9645,-861.02 L -60.7664,-861.129 L -60.5562,-861.212 L -60.3373,-861.268
 L -60.113,-861.296 L -59.887,-861.296 L -59.6627,-861.268 L -59.4438,-861.212 L -59.2336,-861.129 L -59.0355,-861.02
 L -58.8526,-860.887 L -58.6879,-860.732 L -58.5438,-860.558 L -58.4226,-860.367 L -58.3264,-860.163 L -58.2565,-859.948
 L -58.2142,-859.726 L -58.2,-859.5 L -58.2142,-859.274 L -58.2565,-859.052 L -58.3264,-858.837 L -58.4226,-858.633
 L -58.5438,-858.442 L -58.6879,-858.268 L -58.8526,-858.113 L -59.0355,-857.98 L -59.2336,-857.871 L -59.4438,-857.788
 L -59.6627,-857.732 L -59.887,-857.704 z
M -60.113,-632.704 L -60.3373,-632.732 L -60.5562,-632.788 L -60.7664,-632.871 L -60.9645,-632.98 L -61.1474,-633.113
 L -61.3121,-633.268 L -61.4562,-633.442 L -61.5773,-633.633 L -61.6736,-633.837 L -61.7434,-634.052 L -61.7858,-634.274
 L -61.8,-634.5 L -61.7858,-634.726 L -61.7434,-634.948 L -61.6736,-635.163 L -61.5773,-635.367 L -61.4562,-635.558
 L -61.3121,-635.732 L -61.1474,-635.887 L -60.9645,-636.02 L -60.7664,-636.129 L -60.5562,-636.212 L -60.3373,-636.268
 L -60.113,-636.296 L -59.887,-636.296 L -59.6627,-636.268 L -59.4438,-636.212 L -59.2336,-636.129 L -59.0355,-636.02
 L -58.8526,-635.887 L -58.6879,-635.732 L -58.5438,-635.558 L -58.4226,-635.367 L -58.3264,-635.163 L -58.2565,-634.948
 L -58.2142,-634.726 L -58.2,-634.5 L -58.2142,-634.274 L -58.2565,-634.052 L -58.3264,-633.837 L -58.4226,-633.633
 L -58.5438,-633.442 L -58.6879,-633.268 L -58.8526,-633.113 L -59.0355,-632.98 L -59.2336,-632.871 L -59.4438,-632.788
 L -59.6627,-632.732 L -59.887,-632.704 z
M 59.887,-632.704 L 59.6627,-632.732 L 59.4438,-632.788 L 59.2336,-632.871 L 59.0355,-632.98 L 58.8526,-633.113
 L 58.6879,-633.268 L 58.5438,-633.442 L 58.4226,-633.633 L 58.3264,-633.837 L 58.2565,-634.052 L 58.2142,-634.274
 L 58.2,-634.5 L 58.2142,-634.726 L 58.2565,-634.948 L 58.3264,-635.163 L 58.4226,-635.367 L 58.5438,-635.558
 L 58.6879,-635.732 L 58.8526,-635.887 L 59.0355,-636.02 L 59.2336,-636.129 L 59.4438,-636.212 L 59.6627,-636.268
 L 59.887,-636.296 L 60.113,-636.296 L 60.3373,-636.268 L 60.5562,-636.212 L 60.7664,-636.129 L 60.9645,-636.02
 L 61.1474,-635.887 L 61.3121,-635.732 L 61.4562,-635.558 L 61.5773,-635.367 L 61.6736,-635.163 L 61.7434,-634.948
 L 61.7858,-634.726 L 61.8,-634.5 L 61.7858,-634.274 L 61.7434,-634.052 L 61.6736,-633.837 L 61.5773,-633.633
 L 61.4562,-633.442 L 61.3121,-633.268 L 61.1474,-633.113 L 60.9645,-632.98 L 60.7664,-632.871 L 60.5562,-632.788
 L 60.3373,-632.732 L 60.113,-632.704 z
" stroke="black" fill="lightgray" stroke-width="0.5"/>
</svg>
