  0
SECTION
  2
BLOCKS
  0
ENDSEC
  0
SECTION
  2
ENTITIES
  0
LINE
  8
0
 10
100.937
 20
589.589
 11
101.545
 21
589.745
  0
LINE
  8
0
 10
101.545
 20
589.745
 11
102.129
 21
589.976
  0
LINE
  8
0
 10
102.129
 20
589.976
 11
102.679
 21
590.278
  0
LINE
  8
0
 10
102.679
 20
590.278
 11
103.187
 21
590.647
  0
LINE
  8
0
 10
103.187
 20
590.647
 11
103.645
 21
591.077
  0
LINE
  8
0
 10
103.645
 20
591.077
 11
104.045
 21
591.561
  0
LINE
  8
0
 10
104.045
 20
591.561
 11
104.382
 21
592.091
  0
LINE
  8
0
 10
104.382
 20
592.091
 11
104.649
 21
592.659
  0
LINE
  8
0
 10
104.649
 20
592.659
 11
104.843
 21
593.257
  0
LINE
  8
0
 10
104.843
 20
593.257
 11
104.961
 21
593.873
  0
LINE
  8
0
 10
104.961
 20
593.873
 11
105
 21
594.5
  0
LINE
  8
0
 10
105
 20
594.5
 11
105
 21
809.5
  0
LINE
  8
0
 10
105
 20
809.5
 11
104.961
 21
810.127
  0
LINE
  8
0
 10
104.961
 20
810.127
 11
104.843
 21
810.743
  0
LINE
  8
0
 10
104.843
 20
810.743
 11
104.649
 21
811.341
  0
LINE
  8
0
 10
104.649
 20
811.341
 11
104.382
 21
811.909
  0
LINE
  8
0
 10
104.382
 20
811.909
 11
104.045
 21
812.439
  0
LINE
  8
0
 10
104.045
 20
812.439
 11
103.645
 21
812.923
  0
LINE
  8
0
 10
103.645
 20
812.923
 11
103.187
 21
813.353
  0
LINE
  8
0
 10
103.187
 20
813.353
 11
102.679
 21
813.722
  0
LINE
  8
0
 10
102.679
 20
813.722
 11
102.129
 21
814.024
  0
LINE
  8
0
 10
102.129
 20
814.024
 11
101.545
 21
814.255
  0
LINE
  8
0
 10
101.545
 20
814.255
 11
100.937
 21
814.411
  0
LINE
  8
0
 10
100.937
 20
814.411
 11
100.314
 21
814.49
  0
LINE
  8
0
 10
100.314
 20
814.49
 11
-100.314
 21
814.49
  0
LINE
  8
0
 10
-100.314
 20
814.49
 11
-100.937
 21
814.411
  0
LINE
  8
0
 10
-100.937
 20
814.411
 11
-101.545
 21
814.255
  0
LINE
  8
0
 10
-101.545
 20
814.255
 11
-102.129
 21
814.024
  0
LINE
  8
0
 10
-102.129
 20
814.024
 11
-102.679
 21
813.722
  0
LINE
  8
0
 10
-102.679
 20
813.722
 11
-103.187
 21
813.353
  0
LINE
  8
0
 10
-103.187
 20
813.353
 11
-103.645
 21
812.923
  0
LINE
  8
0
 10
-103.645
 20
812.923
 11
-104.045
 21
812.439
  0
LINE
  8
0
 10
-104.045
 20
812.439
 11
-104.382
 21
811.909
  0
LINE
  8
0
 10
-104.382
 20
811.909
 11
-104.649
 21
811.341
  0
LINE
  8
0
 10
-104.649
 20
811.341
 11
-104.843
 21
810.743
  0
LINE
  8
0
 10
-104.843
 20
810.743
 11
-104.961
 21
810.127
  0
LINE
  8
0
 10
-104.961
 20
810.127
 11
-105
 21
809.5
  0
LINE
  8
0
 10
-105
 20
809.5
 11
-105
 21
594.5
  0
LINE
  8
0
 10
-105
 20
594.5
 11
-104.961
 21
593.873
  0
LINE
  8
0
 10
-104.961
 20
593.873
 11
-104.843
 21
593.257
  0
LINE
  8
0
 10
-104.843
 20
593.257
 11
-104.649
 21
592.659
  0
LINE
  8
0
 10
-104.649
 20
592.659
 11
-104.382
 21
592.091
  0
LINE
  8
0
 10
-104.382
 20
592.091
 11
-104.045
 21
591.561
  0
LINE
  8
0
 10
-104.045
 20
591.561
 11
-103.645
 21
591.077
  0
LINE
  8
0
 10
-103.645
 20
591.077
 11
-103.187
 21
590.647
  0
LINE
  8
0
 10
-103.187
 20
590.647
 11
-102.679
 21
590.278
  0
LINE
  8
0
 10
-102.679
 20
590.278
 11
-102.129
 21
589.976
  0
LINE
  8
0
 10
-102.129
 20
589.976
 11
-101.545
 21
589.745
  0
LINE
  8
0
 10
-101.545
 20
589.745
 11
-100.937
 21
589.589
  0
LINE
  8
0
 10
-100.937
 20
589.589
 11
-100.314
 21
589.51
  0
LINE
  8
0
 10
-100.314
 20
589.51
 11
100.314
 21
589.51
  0
LINE
  8
0
 10
100.314
 20
589.51
 11
100.937
 21
589.589
  0
LINE
  8
0
 10
-99.6955
 20
591.893
 11
-100.083
 21
591.942
  0
LINE
  8
0
 10
-100.083
 20
591.942
 11
-100.462
 21
592.039
  0
LINE
  8
0
 10
-100.462
 20
592.039
 11
-100.825
 21
592.183
  0
LINE
  8
0
 10
-100.825
 20
592.183
 11
-101.168
 21
592.372
  0
LINE
  8
0
 10
-101.168
 20
592.372
 11
-101.484
 21
592.601
  0
LINE
  8
0
 10
-101.484
 20
592.601
 11
-101.769
 21
592.869
  0
LINE
  8
0
 10
-101.769
 20
592.869
 11
-102.018
 21
593.17
  0
LINE
  8
0
 10
-102.018
 20
593.17
 11
-102.228
 21
593.5
  0
LINE
  8
0
 10
-102.228
 20
593.5
 11
-102.394
 21
593.854
  0
LINE
  8
0
 10
-102.394
 20
593.854
 11
-102.515
 21
594.226
  0
LINE
  8
0
 10
-102.515
 20
594.226
 11
-102.588
 21
594.61
  0
LINE
  8
0
 10
-102.588
 20
594.61
 11
-102.613
 21
595
  0
LINE
  8
0
 10
-102.613
 20
595
 11
-102.613
 21
809
  0
LINE
  8
0
 10
-102.613
 20
809
 11
-102.588
 21
809.39
  0
LINE
  8
0
 10
-102.588
 20
809.39
 11
-102.515
 21
809.774
  0
LINE
  8
0
 10
-102.515
 20
809.774
 11
-102.394
 21
810.146
  0
LINE
  8
0
 10
-102.394
 20
810.146
 11
-102.228
 21
810.5
  0
LINE
  8
0
 10
-102.228
 20
810.5
 11
-102.018
 21
810.83
  0
LINE
  8
0
 10
-102.018
 20
810.83
 11
-101.769
 21
811.131
  0
LINE
  8
0
 10
-101.769
 20
811.131
 11
-101.484
 21
811.399
  0
LINE
  8
0
 10
-101.484
 20
811.399
 11
-101.168
 21
811.628
  0
LINE
  8
0
 10
-101.168
 20
811.628
 11
-100.825
 21
811.817
  0
LINE
  8
0
 10
-100.825
 20
811.817
 11
-100.462
 21
811.961
  0
LINE
  8
0
 10
-100.462
 20
811.961
 11
-100.083
 21
812.058
  0
LINE
  8
0
 10
-100.083
 20
812.058
 11
-99.6955
 21
812.107
  0
LINE
  8
0
 10
-99.6955
 20
812.107
 11
99.6955
 21
812.107
  0
LINE
  8
0
 10
99.6955
 20
812.107
 11
100.083
 21
812.058
  0
LINE
  8
0
 10
100.083
 20
812.058
 11
100.462
 21
811.961
  0
LINE
  8
0
 10
100.462
 20
811.961
 11
100.825
 21
811.817
  0
LINE
  8
0
 10
100.825
 20
811.817
 11
101.168
 21
811.628
  0
LINE
  8
0
 10
101.168
 20
811.628
 11
101.484
 21
811.399
  0
LINE
  8
0
 10
101.484
 20
811.399
 11
101.769
 21
811.131
  0
LINE
  8
0
 10
101.769
 20
811.131
 11
102.018
 21
810.83
  0
LINE
  8
0
 10
102.018
 20
810.83
 11
102.228
 21
810.5
  0
LINE
  8
0
 10
102.228
 20
810.5
 11
102.394
 21
810.146
  0
LINE
  8
0
 10
102.394
 20
810.146
 11
102.515
 21
809.774
  0
LINE
  8
0
 10
102.515
 20
809.774
 11
102.588
 21
809.39
  0
LINE
  8
0
 10
102.588
 20
809.39
 11
102.613
 21
809
  0
LINE
  8
0
 10
102.613
 20
809
 11
102.613
 21
595
  0
LINE
  8
0
 10
102.613
 20
595
 11
102.588
 21
594.61
  0
LINE
  8
0
 10
102.588
 20
594.61
 11
102.515
 21
594.226
  0
LINE
  8
0
 10
102.515
 20
594.226
 11
102.394
 21
593.854
  0
LINE
  8
0
 10
102.394
 20
593.854
 11
102.228
 21
593.5
  0
LINE
  8
0
 10
102.228
 20
593.5
 11
102.018
 21
593.17
  0
LINE
  8
0
 10
102.018
 20
593.17
 11
101.769
 21
592.869
  0
LINE
  8
0
 10
101.769
 20
592.869
 11
101.484
 21
592.601
  0
LINE
  8
0
 10
101.484
 20
592.601
 11
101.168
 21
592.372
  0
LINE
  8
0
 10
101.168
 20
592.372
 11
100.825
 21
592.183
  0
LINE
  8
0
 10
100.825
 20
592.183
 11
100.462
 21
592.039
  0
LINE
  8
0
 10
100.462
 20
592.039
 11
100.083
 21
591.942
  0
LINE
  8
0
 10
100.083
 20
591.942
 11
99.6955
 21
591.893
  0
LINE
  8
0
 10
99.6955
 20
591.893
 11
-99.6955
 21
591.893
  0
LINE
  8
0
 10
100.937
 20
355.589
 11
101.545
 21
355.745
  0
LINE
  8
0
 10
101.545
 20
355.745
 11
102.129
 21
355.976
  0
LINE
  8
0
 10
102.129
 20
355.976
 11
102.679
 21
356.278
  0
LINE
  8
0
 10
102.679
 20
356.278
 11
103.187
 21
356.647
  0
LINE
  8
0
 10
103.187
 20
356.647
 11
103.645
 21
357.077
  0
LINE
  8
0
 10
103.645
 20
357.077
 11
104.045
 21
357.561
  0
LINE
  8
0
 10
104.045
 20
357.561
 11
104.382
 21
358.091
  0
LINE
  8
0
 10
104.382
 20
358.091
 11
104.649
 21
358.659
  0
LINE
  8
0
 10
104.649
 20
358.659
 11
104.843
 21
359.257
  0
LINE
  8
0
 10
104.843
 20
359.257
 11
104.961
 21
359.873
  0
LINE
  8
0
 10
104.961
 20
359.873
 11
105
 21
360.5
  0
LINE
  8
0
 10
105
 20
360.5
 11
105
 21
575.5
  0
LINE
  8
0
 10
105
 20
575.5
 11
104.961
 21
576.127
  0
LINE
  8
0
 10
104.961
 20
576.127
 11
104.843
 21
576.743
  0
LINE
  8
0
 10
104.843
 20
576.743
 11
104.649
 21
577.341
  0
LINE
  8
0
 10
104.649
 20
577.341
 11
104.382
 21
577.909
  0
LINE
  8
0
 10
104.382
 20
577.909
 11
104.045
 21
578.439
  0
LINE
  8
0
 10
104.045
 20
578.439
 11
103.645
 21
578.923
  0
LINE
  8
0
 10
103.645
 20
578.923
 11
103.187
 21
579.353
  0
LINE
  8
0
 10
103.187
 20
579.353
 11
102.679
 21
579.722
  0
LINE
  8
0
 10
102.679
 20
579.722
 11
102.129
 21
580.024
  0
LINE
  8
0
 10
102.129
 20
580.024
 11
101.545
 21
580.255
  0
LINE
  8
0
 10
101.545
 20
580.255
 11
100.937
 21
580.411
  0
LINE
  8
0
 10
100.937
 20
580.411
 11
100.314
 21
580.49
  0
LINE
  8
0
 10
100.314
 20
580.49
 11
-100.314
 21
580.49
  0
LINE
  8
0
 10
-100.314
 20
580.49
 11
-100.937
 21
580.411
  0
LINE
  8
0
 10
-100.937
 20
580.411
 11
-101.545
 21
580.255
  0
LINE
  8
0
 10
-101.545
 20
580.255
 11
-102.129
 21
580.024
  0
LINE
  8
0
 10
-102.129
 20
580.024
 11
-102.679
 21
579.722
  0
LINE
  8
0
 10
-102.679
 20
579.722
 11
-103.187
 21
579.353
  0
LINE
  8
0
 10
-103.187
 20
579.353
 11
-103.645
 21
578.923
  0
LINE
  8
0
 10
-103.645
 20
578.923
 11
-104.045
 21
578.439
  0
LINE
  8
0
 10
-104.045
 20
578.439
 11
-104.382
 21
577.909
  0
LINE
  8
0
 10
-104.382
 20
577.909
 11
-104.649
 21
577.341
  0
LINE
  8
0
 10
-104.649
 20
577.341
 11
-104.843
 21
576.743
  0
LINE
  8
0
 10
-104.843
 20
576.743
 11
-104.961
 21
576.127
  0
LINE
  8
0
 10
-104.961
 20
576.127
 11
-105
 21
575.5
  0
LINE
  8
0
 10
-105
 20
575.5
 11
-105
 21
360.5
  0
LINE
  8
0
 10
-105
 20
360.5
 11
-104.961
 21
359.873
  0
LINE
  8
0
 10
-104.961
 20
359.873
 11
-104.843
 21
359.257
  0
LINE
  8
0
 10
-104.843
 20
359.257
 11
-104.649
 21
358.659
  0
LINE
  8
0
 10
-104.649
 20
358.659
 11
-104.382
 21
358.091
  0
LINE
  8
0
 10
-104.382
 20
358.091
 11
-104.045
 21
357.561
  0
LINE
  8
0
 10
-104.045
 20
357.561
 11
-103.645
 21
357.077
  0
LINE
  8
0
 10
-103.645
 20
357.077
 11
-103.187
 21
356.647
  0
LINE
  8
0
 10
-103.187
 20
356.647
 11
-102.679
 21
356.278
  0
LINE
  8
0
 10
-102.679
 20
356.278
 11
-102.129
 21
355.976
  0
LINE
  8
0
 10
-102.129
 20
355.976
 11
-101.545
 21
355.745
  0
LINE
  8
0
 10
-101.545
 20
355.745
 11
-100.937
 21
355.589
  0
LINE
  8
0
 10
-100.937
 20
355.589
 11
-100.314
 21
355.51
  0
LINE
  8
0
 10
-100.314
 20
355.51
 11
100.314
 21
355.51
  0
LINE
  8
0
 10
100.314
 20
355.51
 11
100.937
 21
355.589
  0
LINE
  8
0
 10
97.3659
 20
570.869
 11
97.0999
 21
570.903
  0
LINE
  8
0
 10
97.0999
 20
570.903
 11
96.8401
 21
570.969
  0
LINE
  8
0
 10
96.8401
 20
570.969
 11
96.5908
 21
571.068
  0
LINE
  8
0
 10
96.5908
 20
571.068
 11
96.3559
 21
571.197
  0
LINE
  8
0
 10
96.3559
 20
571.197
 11
96.1389
 21
571.355
  0
LINE
  8
0
 10
96.1389
 20
571.355
 11
95.9434
 21
571.538
  0
LINE
  8
0
 10
95.9434
 20
571.538
 11
95.7725
 21
571.745
  0
LINE
  8
0
 10
95.7725
 20
571.745
 11
95.6288
 21
571.971
  0
LINE
  8
0
 10
95.6288
 20
571.971
 11
95.5146
 21
572.214
  0
LINE
  8
0
 10
95.5146
 20
572.214
 11
95.4318
 21
572.469
  0
LINE
  8
0
 10
95.4318
 20
572.469
 11
95.3815
 21
572.732
  0
LINE
  8
0
 10
95.3815
 20
572.732
 11
95.3647
 21
573
  0
LINE
  8
0
 10
95.3647
 20
573
 11
95.3815
 21
573.268
  0
LINE
  8
0
 10
95.3815
 20
573.268
 11
95.4318
 21
573.531
  0
LINE
  8
0
 10
95.4318
 20
573.531
 11
95.5146
 21
573.786
  0
LINE
  8
0
 10
95.5146
 20
573.786
 11
95.6288
 21
574.029
  0
LINE
  8
0
 10
95.6288
 20
574.029
 11
95.7725
 21
574.255
  0
LINE
  8
0
 10
95.7725
 20
574.255
 11
95.9434
 21
574.462
  0
LINE
  8
0
 10
95.9434
 20
574.462
 11
96.1389
 21
574.645
  0
LINE
  8
0
 10
96.1389
 20
574.645
 11
96.3559
 21
574.803
  0
LINE
  8
0
 10
96.3559
 20
574.803
 11
96.5908
 21
574.932
  0
LINE
  8
0
 10
96.5908
 20
574.932
 11
96.8401
 21
575.031
  0
LINE
  8
0
 10
96.8401
 20
575.031
 11
97.0999
 21
575.097
  0
LINE
  8
0
 10
97.0999
 20
575.097
 11
97.3659
 21
575.131
  0
LINE
  8
0
 10
97.3659
 20
575.131
 11
97.6341
 21
575.131
  0
LINE
  8
0
 10
97.6341
 20
575.131
 11
97.9001
 21
575.097
  0
LINE
  8
0
 10
97.9001
 20
575.097
 11
98.1598
 21
575.031
  0
LINE
  8
0
 10
98.1598
 20
575.031
 11
98.4092
 21
574.932
  0
LINE
  8
0
 10
98.4092
 20
574.932
 11
98.6441
 21
574.803
  0
LINE
  8
0
 10
98.6441
 20
574.803
 11
98.8611
 21
574.645
  0
LINE
  8
0
 10
98.8611
 20
574.645
 11
99.0566
 21
574.462
  0
LINE
  8
0
 10
99.0566
 20
574.462
 11
99.2275
 21
574.255
  0
LINE
  8
0
 10
99.2275
 20
574.255
 11
99.3712
 21
574.029
  0
LINE
  8
0
 10
99.3712
 20
574.029
 11
99.4853
 21
573.786
  0
LINE
  8
0
 10
99.4853
 20
573.786
 11
99.5682
 21
573.531
  0
LINE
  8
0
 10
99.5682
 20
573.531
 11
99.6185
 21
573.268
  0
LINE
  8
0
 10
99.6185
 20
573.268
 11
99.6353
 21
573
  0
LINE
  8
0
 10
99.6353
 20
573
 11
99.6185
 21
572.732
  0
LINE
  8
0
 10
99.6185
 20
572.732
 11
99.5682
 21
572.469
  0
LINE
  8
0
 10
99.5682
 20
572.469
 11
99.4853
 21
572.214
  0
LINE
  8
0
 10
99.4853
 20
572.214
 11
99.3712
 21
571.971
  0
LINE
  8
0
 10
99.3712
 20
571.971
 11
99.2275
 21
571.745
  0
LINE
  8
0
 10
99.2275
 20
571.745
 11
99.0566
 21
571.538
  0
LINE
  8
0
 10
99.0566
 20
571.538
 11
98.8611
 21
571.355
  0
LINE
  8
0
 10
98.8611
 20
571.355
 11
98.6441
 21
571.197
  0
LINE
  8
0
 10
98.6441
 20
571.197
 11
98.4092
 21
571.068
  0
LINE
  8
0
 10
98.4092
 20
571.068
 11
98.1598
 21
570.969
  0
LINE
  8
0
 10
98.1598
 20
570.969
 11
97.9001
 21
570.903
  0
LINE
  8
0
 10
97.9001
 20
570.903
 11
97.6341
 21
570.869
  0
LINE
  8
0
 10
97.6341
 20
570.869
 11
97.3659
 21
570.869
  0
LINE
  8
0
 10
-97.6341
 20
570.869
 11
-97.9001
 21
570.903
  0
LINE
  8
0
 10
-97.9001
 20
570.903
 11
-98.1598
 21
570.969
  0
LINE
  8
0
 10
-98.1598
 20
570.969
 11
-98.4092
 21
571.068
  0
LINE
  8
0
 10
-98.4092
 20
571.068
 11
-98.6441
 21
571.197
  0
LINE
  8
0
 10
-98.6441
 20
571.197
 11
-98.8611
 21
571.355
  0
LINE
  8
0
 10
-98.8611
 20
571.355
 11
-99.0566
 21
571.538
  0
LINE
  8
0
 10
-99.0566
 20
571.538
 11
-99.2275
 21
571.745
  0
LINE
  8
0
 10
-99.2275
 20
571.745
 11
-99.3712
 21
571.971
  0
LINE
  8
0
 10
-99.3712
 20
571.971
 11
-99.4853
 21
572.214
  0
LINE
  8
0
 10
-99.4853
 20
572.214
 11
-99.5682
 21
572.469
  0
LINE
  8
0
 10
-99.5682
 20
572.469
 11
-99.6185
 21
572.732
  0
LINE
  8
0
 10
-99.6185
 20
572.732
 11
-99.6353
 21
573
  0
LINE
  8
0
 10
-99.6353
 20
573
 11
-99.6185
 21
573.268
  0
LINE
  8
0
 10
-99.6185
 20
573.268
 11
-99.5682
 21
573.531
  0
LINE
  8
0
 10
-99.5682
 20
573.531
 11
-99.4853
 21
573.786
  0
LINE
  8
0
 10
-99.4853
 20
573.786
 11
-99.3712
 21
574.029
  0
LINE
  8
0
 10
-99.3712
 20
574.029
 11
-99.2275
 21
574.255
  0
LINE
  8
0
 10
-99.2275
 20
574.255
 11
-99.0566
 21
574.462
  0
LINE
  8
0
 10
-99.0566
 20
574.462
 11
-98.8611
 21
574.645
  0
LINE
  8
0
 10
-98.8611
 20
574.645
 11
-98.6441
 21
574.803
  0
LINE
  8
0
 10
-98.6441
 20
574.803
 11
-98.4092
 21
574.932
  0
LINE
  8
0
 10
-98.4092
 20
574.932
 11
-98.1598
 21
575.031
  0
LINE
  8
0
 10
-98.1598
 20
575.031
 11
-97.9001
 21
575.097
  0
LINE
  8
0
 10
-97.9001
 20
575.097
 11
-97.6341
 21
575.131
  0
LINE
  8
0
 10
-97.6341
 20
575.131
 11
-97.3659
 21
575.131
  0
LINE
  8
0
 10
-97.3659
 20
575.131
 11
-97.0999
 21
575.097
  0
LINE
  8
0
 10
-97.0999
 20
575.097
 11
-96.8401
 21
575.031
  0
LINE
  8
0
 10
-96.8401
 20
575.031
 11
-96.5908
 21
574.932
  0
LINE
  8
0
 10
-96.5908
 20
574.932
 11
-96.3559
 21
574.803
  0
LINE
  8
0
 10
-96.3559
 20
574.803
 11
-96.1389
 21
574.645
  0
LINE
  8
0
 10
-96.1389
 20
574.645
 11
-95.9434
 21
574.462
  0
LINE
  8
0
 10
-95.9434
 20
574.462
 11
-95.7725
 21
574.255
  0
LINE
  8
0
 10
-95.7725
 20
574.255
 11
-95.6288
 21
574.029
  0
LINE
  8
0
 10
-95.6288
 20
574.029
 11
-95.5146
 21
573.786
  0
LINE
  8
0
 10
-95.5146
 20
573.786
 11
-95.4318
 21
573.531
  0
LINE
  8
0
 10
-95.4318
 20
573.531
 11
-95.3815
 21
573.268
  0
LINE
  8
0
 10
-95.3815
 20
573.268
 11
-95.3647
 21
573
  0
LINE
  8
0
 10
-95.3647
 20
573
 11
-95.3815
 21
572.732
  0
LINE
  8
0
 10
-95.3815
 20
572.732
 11
-95.4318
 21
572.469
  0
LINE
  8
0
 10
-95.4318
 20
572.469
 11
-95.5146
 21
572.214
  0
LINE
  8
0
 10
-95.5146
 20
572.214
 11
-95.6288
 21
571.971
  0
LINE
  8
0
 10
-95.6288
 20
571.971
 11
-95.7725
 21
571.745
  0
LINE
  8
0
 10
-95.7725
 20
571.745
 11
-95.9434
 21
571.538
  0
LINE
  8
0
 10
-95.9434
 20
571.538
 11
-96.1389
 21
571.355
  0
LINE
  8
0
 10
-96.1389
 20
571.355
 11
-96.3559
 21
571.197
  0
LINE
  8
0
 10
-96.3559
 20
571.197
 11
-96.5908
 21
571.068
  0
LINE
  8
0
 10
-96.5908
 20
571.068
 11
-96.8401
 21
570.969
  0
LINE
  8
0
 10
-96.8401
 20
570.969
 11
-97.0999
 21
570.903
  0
LINE
  8
0
 10
-97.0999
 20
570.903
 11
-97.3659
 21
570.869
  0
LINE
  8
0
 10
-97.3659
 20
570.869
 11
-97.6341
 21
570.869
  0
LINE
  8
0
 10
97.3659
 20
360.869
 11
97.0999
 21
360.903
  0
LINE
  8
0
 10
97.0999
 20
360.903
 11
96.8401
 21
360.969
  0
LINE
  8
0
 10
96.8401
 20
360.969
 11
96.5908
 21
361.068
  0
LINE
  8
0
 10
96.5908
 20
361.068
 11
96.3559
 21
361.197
  0
LINE
  8
0
 10
96.3559
 20
361.197
 11
96.1389
 21
361.355
  0
LINE
  8
0
 10
96.1389
 20
361.355
 11
95.9434
 21
361.538
  0
LINE
  8
0
 10
95.9434
 20
361.538
 11
95.7725
 21
361.745
  0
LINE
  8
0
 10
95.7725
 20
361.745
 11
95.6288
 21
361.971
  0
LINE
  8
0
 10
95.6288
 20
361.971
 11
95.5146
 21
362.214
  0
LINE
  8
0
 10
95.5146
 20
362.214
 11
95.4318
 21
362.469
  0
LINE
  8
0
 10
95.4318
 20
362.469
 11
95.3815
 21
362.732
  0
LINE
  8
0
 10
95.3815
 20
362.732
 11
95.3647
 21
363
  0
LINE
  8
0
 10
95.3647
 20
363
 11
95.3815
 21
363.268
  0
LINE
  8
0
 10
95.3815
 20
363.268
 11
95.4318
 21
363.531
  0
LINE
  8
0
 10
95.4318
 20
363.531
 11
95.5146
 21
363.786
  0
LINE
  8
0
 10
95.5146
 20
363.786
 11
95.6288
 21
364.029
  0
LINE
  8
0
 10
95.6288
 20
364.029
 11
95.7725
 21
364.255
  0
LINE
  8
0
 10
95.7725
 20
364.255
 11
95.9434
 21
364.462
  0
LINE
  8
0
 10
95.9434
 20
364.462
 11
96.1389
 21
364.645
  0
LINE
  8
0
 10
96.1389
 20
364.645
 11
96.3559
 21
364.803
  0
LINE
  8
0
 10
96.3559
 20
364.803
 11
96.5908
 21
364.932
  0
LINE
  8
0
 10
96.5908
 20
364.932
 11
96.8401
 21
365.031
  0
LINE
  8
0
 10
96.8401
 20
365.031
 11
97.0999
 21
365.097
  0
LINE
  8
0
 10
97.0999
 20
365.097
 11
97.3659
 21
365.131
  0
LINE
  8
0
 10
97.3659
 20
365.131
 11
97.6341
 21
365.131
  0
LINE
  8
0
 10
97.6341
 20
365.131
 11
97.9001
 21
365.097
  0
LINE
  8
0
 10
97.9001
 20
365.097
 11
98.1598
 21
365.031
  0
LINE
  8
0
 10
98.1598
 20
365.031
 11
98.4092
 21
364.932
  0
LINE
  8
0
 10
98.4092
 20
364.932
 11
98.6441
 21
364.803
  0
LINE
  8
0
 10
98.6441
 20
364.803
 11
98.8611
 21
364.645
  0
LINE
  8
0
 10
98.8611
 20
364.645
 11
99.0566
 21
364.462
  0
LINE
  8
0
 10
99.0566
 20
364.462
 11
99.2275
 21
364.255
  0
LINE
  8
0
 10
99.2275
 20
364.255
 11
99.3712
 21
364.029
  0
LINE
  8
0
 10
99.3712
 20
364.029
 11
99.4853
 21
363.786
  0
LINE
  8
0
 10
99.4853
 20
363.786
 11
99.5682
 21
363.531
  0
LINE
  8
0
 10
99.5682
 20
363.531
 11
99.6185
 21
363.268
  0
LINE
  8
0
 10
99.6185
 20
363.268
 11
99.6353
 21
363
  0
LINE
  8
0
 10
99.6353
 20
363
 11
99.6185
 21
362.732
  0
LINE
  8
0
 10
99.6185
 20
362.732
 11
99.5682
 21
362.469
  0
LINE
  8
0
 10
99.5682
 20
362.469
 11
99.4853
 21
362.214
  0
LINE
  8
0
 10
99.4853
 20
362.214
 11
99.3712
 21
361.971
  0
LINE
  8
0
 10
99.3712
 20
361.971
 11
99.2275
 21
361.745
  0
LINE
  8
0
 10
99.2275
 20
361.745
 11
99.0566
 21
361.538
  0
LINE
  8
0
 10
99.0566
 20
361.538
 11
98.8611
 21
361.355
  0
LINE
  8
0
 10
98.8611
 20
361.355
 11
98.6441
 21
361.197
  0
LINE
  8
0
 10
98.6441
 20
361.197
 11
98.4092
 21
361.068
  0
LINE
  8
0
 10
98.4092
 20
361.068
 11
98.1598
 21
360.969
  0
LINE
  8
0
 10
98.1598
 20
360.969
 11
97.9001
 21
360.903
  0
LINE
  8
0
 10
97.9001
 20
360.903
 11
97.6341
 21
360.869
  0
LINE
  8
0
 10
97.6341
 20
360.869
 11
97.3659
 21
360.869
  0
LINE
  8
0
 10
-97.6341
 20
360.869
 11
-97.9001
 21
360.903
  0
LINE
  8
0
 10
-97.9001
 20
360.903
 11
-98.1598
 21
360.969
  0
LINE
  8
0
 10
-98.1598
 20
360.969
 11
-98.4092
 21
361.068
  0
LINE
  8
0
 10
-98.4092
 20
361.068
 11
-98.6441
 21
361.197
  0
LINE
  8
0
 10
-98.6441
 20
361.197
 11
-98.8611
 21
361.355
  0
LINE
  8
0
 10
-98.8611
 20
361.355
 11
-99.0566
 21
361.538
  0
LINE
  8
0
 10
-99.0566
 20
361.538
 11
-99.2275
 21
361.745
  0
LINE
  8
0
 10
-99.2275
 20
361.745
 11
-99.3712
 21
361.971
  0
LINE
  8
0
 10
-99.3712
 20
361.971
 11
-99.4853
 21
362.214
  0
LINE
  8
0
 10
-99.4853
 20
362.214
 11
-99.5682
 21
362.469
  0
LINE
  8
0
 10
-99.5682
 20
362.469
 11
-99.6185
 21
362.732
  0
LINE
  8
0
 10
-99.6185
 20
362.732
 11
-99.6353
 21
363
  0
LINE
  8
0
 10
-99.6353
 20
363
 11
-99.6185
 21
363.268
  0
LINE
  8
0
 10
-99.6185
 20
363.268
 11
-99.5682
 21
363.531
  0
LINE
  8
0
 10
-99.5682
 20
363.531
 11
-99.4853
 21
363.786
  0
LINE
  8
0
 10
-99.4853
 20
363.786
 11
-99.3712
 21
364.029
  0
LINE
  8
0
 10
-99.3712
 20
364.029
 11
-99.2275
 21
364.255
  0
LINE
  8
0
 10
-99.2275
 20
364.255
 11
-99.0566
 21
364.462
  0
LINE
  8
0
 10
-99.0566
 20
364.462
 11
-98.8611
 21
364.645
  0
LINE
  8
0
 10
-98.8611
 20
364.645
 11
-98.6441
 21
364.803
  0
LINE
  8
0
 10
-98.6441
 20
364.803
 11
-98.4092
 21
364.932
  0
LINE
  8
0
 10
-98.4092
 20
364.932
 11
-98.1598
 21
365.031
  0
LINE
  8
0
 10
-98.1598
 20
365.031
 11
-97.9001
 21
365.097
  0
LINE
  8
0
 10
-97.9001
 20
365.097
 11
-97.6341
 21
365.131
  0
LINE
  8
0
 10
-97.6341
 20
365.131
 11
-97.3659
 21
365.131
  0
LINE
  8
0
 10
-97.3659
 20
365.131
 11
-97.0999
 21
365.097
  0
LINE
  8
0
 10
-97.0999
 20
365.097
 11
-96.8401
 21
365.031
  0
LINE
  8
0
 10
-96.8401
 20
365.031
 11
-96.5908
 21
364.932
  0
LINE
  8
0
 10
-96.5908
 20
364.932
 11
-96.3559
 21
364.803
  0
LINE
  8
0
 10
-96.3559
 20
364.803
 11
-96.1389
 21
364.645
  0
LINE
  8
0
 10
-96.1389
 20
364.645
 11
-95.9434
 21
364.462
  0
LINE
  8
0
 10
-95.9434
 20
364.462
 11
-95.7725
 21
364.255
  0
LINE
  8
0
 10
-95.7725
 20
364.255
 11
-95.6288
 21
364.029
  0
LINE
  8
0
 10
-95.6288
 20
364.029
 11
-95.5146
 21
363.786
  0
LINE
  8
0
 10
-95.5146
 20
363.786
 11
-95.4318
 21
363.531
  0
LINE
  8
0
 10
-95.4318
 20
363.531
 11
-95.3815
 21
363.268
  0
LINE
  8
0
 10
-95.3815
 20
363.268
 11
-95.3647
 21
363
  0
LINE
  8
0
 10
-95.3647
 20
363
 11
-95.3815
 21
362.732
  0
LINE
  8
0
 10
-95.3815
 20
362.732
 11
-95.4318
 21
362.469
  0
LINE
  8
0
 10
-95.4318
 20
362.469
 11
-95.5146
 21
362.214
  0
LINE
  8
0
 10
-95.5146
 20
362.214
 11
-95.6288
 21
361.971
  0
LINE
  8
0
 10
-95.6288
 20
361.971
 11
-95.7725
 21
361.745
  0
LINE
  8
0
 10
-95.7725
 20
361.745
 11
-95.9434
 21
361.538
  0
LINE
  8
0
 10
-95.9434
 20
361.538
 11
-96.1389
 21
361.355
  0
LINE
  8
0
 10
-96.1389
 20
361.355
 11
-96.3559
 21
361.197
  0
LINE
  8
0
 10
-96.3559
 20
361.197
 11
-96.5908
 21
361.068
  0
LINE
  8
0
 10
-96.5908
 20
361.068
 11
-96.8401
 21
360.969
  0
LINE
  8
0
 10
-96.8401
 20
360.969
 11
-97.0999
 21
360.903
  0
LINE
  8
0
 10
-97.0999
 20
360.903
 11
-97.3659
 21
360.869
  0
LINE
  8
0
 10
-97.3659
 20
360.869
 11
-97.6341
 21
360.869
  0
ENDSEC
  0
SECTION
  2
OBJECTS
  0
DICTIONARY
  0
ENDSEC
  0
EOF
