solid OpenSCAD_Model
  facet normal 0.998026 0.0627973 0
    outer loop
      vertex 32.5 0 7
      vertex 32.2437 4.07333 0
      vertex 32.2437 4.07333 7
    endloop
  endfacet
  facet normal 0.998026 0.0627973 0
    outer loop
      vertex 32.2437 4.07333 0
      vertex 32.5 0 7
      vertex 32.5 0 0
    endloop
  endfacet
  facet normal -0.998026 0.0627973 0
    outer loop
      vertex -32.5 0 0
      vertex -32.2437 4.07333 7
      vertex -32.2437 4.07333 0
    endloop
  endfacet
  facet normal -0.998026 0.0627973 0
    outer loop
      vertex -32.2437 4.07333 7
      vertex -32.5 0 0
      vertex -32.5 0 7
    endloop
  endfacet
  facet normal 0 1 -0
    outer loop
      vertex 2.04069 32.4359 0
      vertex -2.04069 32.4359 7
      vertex 2.04069 32.4359 7
    endloop
  endfacet
  facet normal 0 1 0
    outer loop
      vertex -2.04069 32.4359 7
      vertex 2.04069 32.4359 0
      vertex -2.04069 32.4359 0
    endloop
  endfacet
  facet normal 0 -1 0
    outer loop
      vertex -2.04069 -32.4359 0
      vertex 2.04069 -32.4359 7
      vertex -2.04069 -32.4359 7
    endloop
  endfacet
  facet normal 0 -1 -0
    outer loop
      vertex 2.04069 -32.4359 7
      vertex -2.04069 -32.4359 0
      vertex 2.04069 -32.4359 0
    endloop
  endfacet
  facet normal 0.684547 0.728968 -0
    outer loop
      vertex 23.6915 22.2478 0
      vertex 20.7163 25.0417 7
      vertex 23.6915 22.2478 7
    endloop
  endfacet
  facet normal 0.684547 0.728968 0
    outer loop
      vertex 20.7163 25.0417 7
      vertex 23.6915 22.2478 0
      vertex 20.7163 25.0417 0
    endloop
  endfacet
  facet normal -0.684547 0.728968 0
    outer loop
      vertex -20.7163 25.0417 0
      vertex -23.6915 22.2478 7
      vertex -20.7163 25.0417 7
    endloop
  endfacet
  facet normal -0.684547 0.728968 0
    outer loop
      vertex -23.6915 22.2478 7
      vertex -20.7163 25.0417 0
      vertex -23.6915 22.2478 0
    endloop
  endfacet
  facet normal -0.368119 0.929779 0
    outer loop
      vertex -10.0431 30.9093 0
      vertex -13.8378 29.4069 7
      vertex -10.0431 30.9093 7
    endloop
  endfacet
  facet normal -0.368119 0.929779 0
    outer loop
      vertex -13.8378 29.4069 7
      vertex -10.0431 30.9093 0
      vertex -13.8378 29.4069 0
    endloop
  endfacet
  facet normal 0.904836 0.42576 0
    outer loop
      vertex 30.2177 11.964 7
      vertex 28.48 15.657 0
      vertex 28.48 15.657 7
    endloop
  endfacet
  facet normal 0.904836 0.42576 0
    outer loop
      vertex 28.48 15.657 0
      vertex 30.2177 11.964 7
      vertex 30.2177 11.964 0
    endloop
  endfacet
  facet normal 0.982291 0.187364 0
    outer loop
      vertex 32.2437 4.07333 7
      vertex 31.479 8.08242 0
      vertex 31.479 8.08242 7
    endloop
  endfacet
  facet normal 0.982291 0.187364 0
    outer loop
      vertex 31.479 8.08242 0
      vertex 32.2437 4.07333 7
      vertex 32.2437 4.07333 0
    endloop
  endfacet
  facet normal 0.844328 0.535827 0
    outer loop
      vertex 28.48 15.657 7
      vertex 26.2931 19.103 0
      vertex 26.2931 19.103 7
    endloop
  endfacet
  facet normal 0.844328 0.535827 0
    outer loop
      vertex 26.2931 19.103 0
      vertex 28.48 15.657 7
      vertex 28.48 15.657 0
    endloop
  endfacet
  facet normal 0.368119 0.929779 -0
    outer loop
      vertex 13.8378 29.4069 0
      vertex 10.0431 30.9093 7
      vertex 13.8378 29.4069 7
    endloop
  endfacet
  facet normal 0.368119 0.929779 0
    outer loop
      vertex 10.0431 30.9093 7
      vertex 13.8378 29.4069 0
      vertex 10.0431 30.9093 0
    endloop
  endfacet
  facet normal 0.248687 0.968584 -0
    outer loop
      vertex 10.0431 30.9093 0
      vertex 6.08989 31.9243 7
      vertex 10.0431 30.9093 7
    endloop
  endfacet
  facet normal 0.248687 0.968584 0
    outer loop
      vertex 6.08989 31.9243 7
      vertex 10.0431 30.9093 0
      vertex 6.08989 31.9243 0
    endloop
  endfacet
  facet normal 0.481744 0.876312 -0
    outer loop
      vertex 17.4144 27.4407 0
      vertex 13.8378 29.4069 7
      vertex 17.4144 27.4407 7
    endloop
  endfacet
  facet normal 0.481744 0.876312 0
    outer loop
      vertex 13.8378 29.4069 7
      vertex 17.4144 27.4407 0
      vertex 13.8378 29.4069 0
    endloop
  endfacet
  facet normal -0.904836 0.42576 0
    outer loop
      vertex -30.2177 11.964 0
      vertex -28.48 15.657 7
      vertex -28.48 15.657 0
    endloop
  endfacet
  facet normal -0.904836 0.42576 0
    outer loop
      vertex -28.48 15.657 7
      vertex -30.2177 11.964 0
      vertex -30.2177 11.964 7
    endloop
  endfacet
  facet normal -0.770514 0.637423 0
    outer loop
      vertex -26.2931 19.103 0
      vertex -23.6915 22.2478 7
      vertex -23.6915 22.2478 0
    endloop
  endfacet
  facet normal -0.770514 0.637423 0
    outer loop
      vertex -23.6915 22.2478 7
      vertex -26.2931 19.103 0
      vertex -26.2931 19.103 7
    endloop
  endfacet
  facet normal -0.951049 0.309039 0
    outer loop
      vertex -31.479 8.08242 0
      vertex -30.2177 11.964 7
      vertex -30.2177 11.964 0
    endloop
  endfacet
  facet normal -0.951049 0.309039 0
    outer loop
      vertex -30.2177 11.964 7
      vertex -31.479 8.08242 0
      vertex -31.479 8.08242 7
    endloop
  endfacet
  facet normal -0.125349 0.992113 0
    outer loop
      vertex -2.04069 32.4359 0
      vertex -6.08989 31.9243 7
      vertex -2.04069 32.4359 7
    endloop
  endfacet
  facet normal -0.125349 0.992113 0
    outer loop
      vertex -6.08989 31.9243 7
      vertex -2.04069 32.4359 0
      vertex -6.08989 31.9243 0
    endloop
  endfacet
  facet normal 0.125349 -0.992113 0
    outer loop
      vertex 2.04069 -32.4359 0
      vertex 6.08989 -31.9243 7
      vertex 2.04069 -32.4359 7
    endloop
  endfacet
  facet normal 0.125349 -0.992113 0
    outer loop
      vertex 6.08989 -31.9243 7
      vertex 2.04069 -32.4359 0
      vertex 6.08989 -31.9243 0
    endloop
  endfacet
  facet normal 0.951049 0.309039 0
    outer loop
      vertex 31.479 8.08242 7
      vertex 30.2177 11.964 0
      vertex 30.2177 11.964 7
    endloop
  endfacet
  facet normal 0.951049 0.309039 0
    outer loop
      vertex 30.2177 11.964 0
      vertex 31.479 8.08242 7
      vertex 31.479 8.08242 0
    endloop
  endfacet
  facet normal 0.770514 0.637423 0
    outer loop
      vertex 26.2931 19.103 7
      vertex 23.6915 22.2478 0
      vertex 23.6915 22.2478 7
    endloop
  endfacet
  facet normal 0.770514 0.637423 0
    outer loop
      vertex 23.6915 22.2478 0
      vertex 26.2931 19.103 7
      vertex 26.2931 19.103 0
    endloop
  endfacet
  facet normal 0.125349 0.992113 -0
    outer loop
      vertex 6.08989 31.9243 0
      vertex 2.04069 32.4359 7
      vertex 6.08989 31.9243 7
    endloop
  endfacet
  facet normal 0.125349 0.992113 0
    outer loop
      vertex 2.04069 32.4359 7
      vertex 6.08989 31.9243 0
      vertex 2.04069 32.4359 0
    endloop
  endfacet
  facet normal 0.58779 0.809014 -0
    outer loop
      vertex 20.7163 25.0417 0
      vertex 17.4144 27.4407 7
      vertex 20.7163 25.0417 7
    endloop
  endfacet
  facet normal 0.58779 0.809014 0
    outer loop
      vertex 17.4144 27.4407 7
      vertex 20.7163 25.0417 0
      vertex 17.4144 27.4407 0
    endloop
  endfacet
  facet normal -0.844328 0.535827 0
    outer loop
      vertex -28.48 15.657 0
      vertex -26.2931 19.103 7
      vertex -26.2931 19.103 0
    endloop
  endfacet
  facet normal -0.844328 0.535827 0
    outer loop
      vertex -26.2931 19.103 7
      vertex -28.48 15.657 0
      vertex -28.48 15.657 7
    endloop
  endfacet
  facet normal -0.982291 0.187364 0
    outer loop
      vertex -32.2437 4.07333 0
      vertex -31.479 8.08242 7
      vertex -31.479 8.08242 0
    endloop
  endfacet
  facet normal -0.982291 0.187364 0
    outer loop
      vertex -31.479 8.08242 7
      vertex -32.2437 4.07333 0
      vertex -32.2437 4.07333 7
    endloop
  endfacet
  facet normal 0 0 1
    outer loop
      vertex 25 0 7
      vertex 32.5 0 7
      vertex 32.2437 4.07333 7
    endloop
  endfacet
  facet normal 0 0 1
    outer loop
      vertex 24.8029 3.13333 7
      vertex 32.2437 4.07333 7
      vertex 31.479 8.08242 7
    endloop
  endfacet
  facet normal 0 0 1
    outer loop
      vertex 32.5 0 7
      vertex 25 0 7
      vertex 32.2437 -4.07333 7
    endloop
  endfacet
  facet normal 0 0 1
    outer loop
      vertex 24.2146 6.21725 7
      vertex 31.479 8.08242 7
      vertex 30.2177 11.964 7
    endloop
  endfacet
  facet normal -0 0 1
    outer loop
      vertex 24.8029 -3.13333 7
      vertex 32.2437 -4.07333 7
      vertex 25 0 7
    endloop
  endfacet
  facet normal 0 0 1
    outer loop
      vertex 23.2444 9.20311 7
      vertex 30.2177 11.964 7
      vertex 28.48 15.657 7
    endloop
  endfacet
  facet normal 0 0 1
    outer loop
      vertex 32.2437 -4.07333 7
      vertex 24.8029 -3.13333 7
      vertex 31.479 -8.08242 7
    endloop
  endfacet
  facet normal 0 0 1
    outer loop
      vertex 21.9077 12.0438 7
      vertex 28.48 15.657 7
      vertex 26.2931 19.103 7
    endloop
  endfacet
  facet normal -0 0 1
    outer loop
      vertex 24.2146 -6.21725 7
      vertex 31.479 -8.08242 7
      vertex 24.8029 -3.13333 7
    endloop
  endfacet
  facet normal 0 0 1
    outer loop
      vertex 31.479 -8.08242 7
      vertex 24.2146 -6.21725 7
      vertex 30.2177 -11.964 7
    endloop
  endfacet
  facet normal 0 0 1
    outer loop
      vertex 32.2437 4.07333 7
      vertex 24.8029 3.13333 7
      vertex 25 0 7
    endloop
  endfacet
  facet normal 0 0 1
    outer loop
      vertex 31.479 8.08242 7
      vertex 24.2146 6.21725 7
      vertex 24.8029 3.13333 7
    endloop
  endfacet
  facet normal 0 0 1
    outer loop
      vertex 20.2254 14.6946 7
      vertex 26.2931 19.103 7
      vertex 23.6915 22.2478 7
    endloop
  endfacet
  facet normal 0 0 1
    outer loop
      vertex 30.2177 11.964 7
      vertex 23.2444 9.20311 7
      vertex 24.2146 6.21725 7
    endloop
  endfacet
  facet normal 0 0 1
    outer loop
      vertex 28.48 15.657 7
      vertex 21.9077 12.0438 7
      vertex 23.2444 9.20311 7
    endloop
  endfacet
  facet normal 0 0 1
    outer loop
      vertex 18.2242 17.1137 7
      vertex 23.6915 22.2478 7
      vertex 20.7163 25.0417 7
    endloop
  endfacet
  facet normal 0 0 1
    outer loop
      vertex 26.2931 19.103 7
      vertex 20.2254 14.6946 7
      vertex 21.9077 12.0438 7
    endloop
  endfacet
  facet normal 0 0 1
    outer loop
      vertex 23.6915 22.2478 7
      vertex 18.2242 17.1137 7
      vertex 20.2254 14.6946 7
    endloop
  endfacet
  facet normal 0 0 1
    outer loop
      vertex 15.9356 19.2628 7
      vertex 20.7163 25.0417 7
      vertex 17.4144 27.4407 7
    endloop
  endfacet
  facet normal 0 0 1
    outer loop
      vertex 20.7163 25.0417 7
      vertex 15.9356 19.2628 7
      vertex 18.2242 17.1137 7
    endloop
  endfacet
  facet normal 0 0 1
    outer loop
      vertex 13.3957 21.1082 7
      vertex 17.4144 27.4407 7
      vertex 13.8378 29.4069 7
    endloop
  endfacet
  facet normal 0 0 1
    outer loop
      vertex 17.4144 27.4407 7
      vertex 13.3957 21.1082 7
      vertex 15.9356 19.2628 7
    endloop
  endfacet
  facet normal 0 0 1
    outer loop
      vertex 13.8378 29.4069 7
      vertex 10.6445 22.6207 7
      vertex 13.3957 21.1082 7
    endloop
  endfacet
  facet normal 0 0 1
    outer loop
      vertex 10.0431 30.9093 7
      vertex 10.6445 22.6207 7
      vertex 13.8378 29.4069 7
    endloop
  endfacet
  facet normal 0 0 1
    outer loop
      vertex 10.0431 30.9093 7
      vertex 7.72542 23.7764 7
      vertex 10.6445 22.6207 7
    endloop
  endfacet
  facet normal 0 0 1
    outer loop
      vertex 6.08989 31.9243 7
      vertex 7.72542 23.7764 7
      vertex 10.0431 30.9093 7
    endloop
  endfacet
  facet normal 0 0 1
    outer loop
      vertex 6.08989 31.9243 7
      vertex 4.68453 24.5572 7
      vertex 7.72542 23.7764 7
    endloop
  endfacet
  facet normal 0 0 1
    outer loop
      vertex 2.04069 32.4359 7
      vertex 4.68453 24.5572 7
      vertex 6.08989 31.9243 7
    endloop
  endfacet
  facet normal 0 0 1
    outer loop
      vertex 2.04069 32.4359 7
      vertex 1.56976 24.9507 7
      vertex 4.68453 24.5572 7
    endloop
  endfacet
  facet normal 0 0 1
    outer loop
      vertex 2.04069 32.4359 7
      vertex -1.56976 24.9507 7
      vertex 1.56976 24.9507 7
    endloop
  endfacet
  facet normal -0 0 1
    outer loop
      vertex -2.04069 32.4359 7
      vertex -1.56976 24.9507 7
      vertex 2.04069 32.4359 7
    endloop
  endfacet
  facet normal 0 0 1
    outer loop
      vertex -2.04069 32.4359 7
      vertex -4.68453 24.5572 7
      vertex -1.56976 24.9507 7
    endloop
  endfacet
  facet normal -0 0 1
    outer loop
      vertex -6.08989 31.9243 7
      vertex -4.68453 24.5572 7
      vertex -2.04069 32.4359 7
    endloop
  endfacet
  facet normal 0 0 1
    outer loop
      vertex -6.08989 31.9243 7
      vertex -7.72542 23.7764 7
      vertex -4.68453 24.5572 7
    endloop
  endfacet
  facet normal -0 0 1
    outer loop
      vertex -10.0431 30.9093 7
      vertex -7.72542 23.7764 7
      vertex -6.08989 31.9243 7
    endloop
  endfacet
  facet normal 0 0 1
    outer loop
      vertex -10.0431 30.9093 7
      vertex -10.6445 22.6207 7
      vertex -7.72542 23.7764 7
    endloop
  endfacet
  facet normal -0 0 1
    outer loop
      vertex -13.8378 29.4069 7
      vertex -10.6445 22.6207 7
      vertex -10.0431 30.9093 7
    endloop
  endfacet
  facet normal 0 0 1
    outer loop
      vertex -10.6445 22.6207 7
      vertex -13.8378 29.4069 7
      vertex -13.3957 21.1082 7
    endloop
  endfacet
  facet normal -0 0 1
    outer loop
      vertex -17.4144 27.4407 7
      vertex -13.3957 21.1082 7
      vertex -13.8378 29.4069 7
    endloop
  endfacet
  facet normal 0 0 1
    outer loop
      vertex -13.3957 21.1082 7
      vertex -17.4144 27.4407 7
      vertex -15.9356 19.2628 7
    endloop
  endfacet
  facet normal -0 0 1
    outer loop
      vertex -20.7163 25.0417 7
      vertex -15.9356 19.2628 7
      vertex -17.4144 27.4407 7
    endloop
  endfacet
  facet normal 0 0 1
    outer loop
      vertex -15.9356 19.2628 7
      vertex -20.7163 25.0417 7
      vertex -18.2242 17.1137 7
    endloop
  endfacet
  facet normal -0 0 1
    outer loop
      vertex -23.6915 22.2478 7
      vertex -18.2242 17.1137 7
      vertex -20.7163 25.0417 7
    endloop
  endfacet
  facet normal 0 0 1
    outer loop
      vertex -18.2242 17.1137 7
      vertex -23.6915 22.2478 7
      vertex -20.2254 14.6946 7
    endloop
  endfacet
  facet normal -0 0 1
    outer loop
      vertex -26.2931 19.103 7
      vertex -20.2254 14.6946 7
      vertex -23.6915 22.2478 7
    endloop
  endfacet
  facet normal 0 0 1
    outer loop
      vertex -20.2254 14.6946 7
      vertex -26.2931 19.103 7
      vertex -21.9077 12.0438 7
    endloop
  endfacet
  facet normal -0 0 1
    outer loop
      vertex -28.48 15.657 7
      vertex -21.9077 12.0438 7
      vertex -26.2931 19.103 7
    endloop
  endfacet
  facet normal 0 0 1
    outer loop
      vertex -21.9077 12.0438 7
      vertex -28.48 15.657 7
      vertex -23.2444 9.20311 7
    endloop
  endfacet
  facet normal -0 0 1
    outer loop
      vertex -30.2177 11.964 7
      vertex -23.2444 9.20311 7
      vertex -28.48 15.657 7
    endloop
  endfacet
  facet normal 0 0 1
    outer loop
      vertex -23.2444 9.20311 7
      vertex -30.2177 11.964 7
      vertex -24.2146 6.21725 7
    endloop
  endfacet
  facet normal -0 0 1
    outer loop
      vertex 23.2444 -9.20311 7
      vertex 30.2177 -11.964 7
      vertex 24.2146 -6.21725 7
    endloop
  endfacet
  facet normal 0 0 1
    outer loop
      vertex 30.2177 -11.964 7
      vertex 23.2444 -9.20311 7
      vertex 28.48 -15.657 7
    endloop
  endfacet
  facet normal -0 0 1
    outer loop
      vertex 21.9077 -12.0438 7
      vertex 28.48 -15.657 7
      vertex 23.2444 -9.20311 7
    endloop
  endfacet
  facet normal 0 0 1
    outer loop
      vertex 28.48 -15.657 7
      vertex 21.9077 -12.0438 7
      vertex 26.2931 -19.103 7
    endloop
  endfacet
  facet normal -0 0 1
    outer loop
      vertex 20.2254 -14.6946 7
      vertex 26.2931 -19.103 7
      vertex 21.9077 -12.0438 7
    endloop
  endfacet
  facet normal 0 0 1
    outer loop
      vertex 26.2931 -19.103 7
      vertex 20.2254 -14.6946 7
      vertex 23.6915 -22.2478 7
    endloop
  endfacet
  facet normal -0 0 1
    outer loop
      vertex 18.2242 -17.1137 7
      vertex 23.6915 -22.2478 7
      vertex 20.2254 -14.6946 7
    endloop
  endfacet
  facet normal 0 0 1
    outer loop
      vertex 23.6915 -22.2478 7
      vertex 18.2242 -17.1137 7
      vertex 20.7163 -25.0417 7
    endloop
  endfacet
  facet normal -0 0 1
    outer loop
      vertex 15.9356 -19.2628 7
      vertex 20.7163 -25.0417 7
      vertex 18.2242 -17.1137 7
    endloop
  endfacet
  facet normal 0 0 1
    outer loop
      vertex 20.7163 -25.0417 7
      vertex 15.9356 -19.2628 7
      vertex 17.4144 -27.4407 7
    endloop
  endfacet
  facet normal -0 0 1
    outer loop
      vertex 13.3957 -21.1082 7
      vertex 17.4144 -27.4407 7
      vertex 15.9356 -19.2628 7
    endloop
  endfacet
  facet normal 0 0 1
    outer loop
      vertex 17.4144 -27.4407 7
      vertex 13.3957 -21.1082 7
      vertex 13.8378 -29.4069 7
    endloop
  endfacet
  facet normal -0 0 1
    outer loop
      vertex 10.6445 -22.6207 7
      vertex 13.8378 -29.4069 7
      vertex 13.3957 -21.1082 7
    endloop
  endfacet
  facet normal 0 0 1
    outer loop
      vertex 10.6445 -22.6207 7
      vertex 10.0431 -30.9093 7
      vertex 13.8378 -29.4069 7
    endloop
  endfacet
  facet normal -0 0 1
    outer loop
      vertex 7.72542 -23.7764 7
      vertex 10.0431 -30.9093 7
      vertex 10.6445 -22.6207 7
    endloop
  endfacet
  facet normal 0 0 1
    outer loop
      vertex 7.72542 -23.7764 7
      vertex 6.08989 -31.9243 7
      vertex 10.0431 -30.9093 7
    endloop
  endfacet
  facet normal -0 0 1
    outer loop
      vertex 4.68453 -24.5572 7
      vertex 6.08989 -31.9243 7
      vertex 7.72542 -23.7764 7
    endloop
  endfacet
  facet normal 0 0 1
    outer loop
      vertex 4.68453 -24.5572 7
      vertex 2.04069 -32.4359 7
      vertex 6.08989 -31.9243 7
    endloop
  endfacet
  facet normal -0 0 1
    outer loop
      vertex 1.56976 -24.9507 7
      vertex 2.04069 -32.4359 7
      vertex 4.68453 -24.5572 7
    endloop
  endfacet
  facet normal -0 0 1
    outer loop
      vertex -1.56976 -24.9507 7
      vertex 2.04069 -32.4359 7
      vertex 1.56976 -24.9507 7
    endloop
  endfacet
  facet normal 0 0 1
    outer loop
      vertex -1.56976 -24.9507 7
      vertex -2.04069 -32.4359 7
      vertex 2.04069 -32.4359 7
    endloop
  endfacet
  facet normal 0 0 1
    outer loop
      vertex -4.68453 -24.5572 7
      vertex -2.04069 -32.4359 7
      vertex -1.56976 -24.9507 7
    endloop
  endfacet
  facet normal 0 0 1
    outer loop
      vertex -4.68453 -24.5572 7
      vertex -6.08989 -31.9243 7
      vertex -2.04069 -32.4359 7
    endloop
  endfacet
  facet normal 0 0 1
    outer loop
      vertex -7.72542 -23.7764 7
      vertex -6.08989 -31.9243 7
      vertex -4.68453 -24.5572 7
    endloop
  endfacet
  facet normal 0 0 1
    outer loop
      vertex -7.72542 -23.7764 7
      vertex -10.0431 -30.9093 7
      vertex -6.08989 -31.9243 7
    endloop
  endfacet
  facet normal 0 0 1
    outer loop
      vertex -10.6445 -22.6207 7
      vertex -10.0431 -30.9093 7
      vertex -7.72542 -23.7764 7
    endloop
  endfacet
  facet normal 0 0 1
    outer loop
      vertex -13.8378 -29.4069 7
      vertex -10.6445 -22.6207 7
      vertex -13.3957 -21.1082 7
    endloop
  endfacet
  facet normal 0 0 1
    outer loop
      vertex -10.6445 -22.6207 7
      vertex -13.8378 -29.4069 7
      vertex -10.0431 -30.9093 7
    endloop
  endfacet
  facet normal 0 0 1
    outer loop
      vertex -17.4144 -27.4407 7
      vertex -13.3957 -21.1082 7
      vertex -15.9356 -19.2628 7
    endloop
  endfacet
  facet normal 0 0 1
    outer loop
      vertex -13.3957 -21.1082 7
      vertex -17.4144 -27.4407 7
      vertex -13.8378 -29.4069 7
    endloop
  endfacet
  facet normal 0 0 1
    outer loop
      vertex -20.7163 -25.0417 7
      vertex -15.9356 -19.2628 7
      vertex -18.2242 -17.1137 7
    endloop
  endfacet
  facet normal 0 0 1
    outer loop
      vertex -23.6915 -22.2478 7
      vertex -18.2242 -17.1137 7
      vertex -20.2254 -14.6946 7
    endloop
  endfacet
  facet normal 0 0 1
    outer loop
      vertex -15.9356 -19.2628 7
      vertex -20.7163 -25.0417 7
      vertex -17.4144 -27.4407 7
    endloop
  endfacet
  facet normal 0 0 1
    outer loop
      vertex -26.2931 -19.103 7
      vertex -20.2254 -14.6946 7
      vertex -21.9077 -12.0438 7
    endloop
  endfacet
  facet normal 0 0 1
    outer loop
      vertex -28.48 -15.657 7
      vertex -21.9077 -12.0438 7
      vertex -23.2444 -9.20311 7
    endloop
  endfacet
  facet normal 0 0 1
    outer loop
      vertex -18.2242 -17.1137 7
      vertex -23.6915 -22.2478 7
      vertex -20.7163 -25.0417 7
    endloop
  endfacet
  facet normal 0 0 1
    outer loop
      vertex -30.2177 -11.964 7
      vertex -23.2444 -9.20311 7
      vertex -24.2146 -6.21725 7
    endloop
  endfacet
  facet normal 0 0 1
    outer loop
      vertex -31.479 -8.08242 7
      vertex -24.2146 -6.21725 7
      vertex -24.8029 -3.13333 7
    endloop
  endfacet
  facet normal 0 0 1
    outer loop
      vertex -32.2437 -4.07333 7
      vertex -24.8029 -3.13333 7
      vertex -25 0 7
    endloop
  endfacet
  facet normal -0 0 1
    outer loop
      vertex -31.479 8.08242 7
      vertex -24.2146 6.21725 7
      vertex -30.2177 11.964 7
    endloop
  endfacet
  facet normal 0 0 1
    outer loop
      vertex -20.2254 -14.6946 7
      vertex -26.2931 -19.103 7
      vertex -23.6915 -22.2478 7
    endloop
  endfacet
  facet normal 0 0 1
    outer loop
      vertex -24.2146 6.21725 7
      vertex -31.479 8.08242 7
      vertex -24.8029 3.13333 7
    endloop
  endfacet
  facet normal 0 0 1
    outer loop
      vertex -21.9077 -12.0438 7
      vertex -28.48 -15.657 7
      vertex -26.2931 -19.103 7
    endloop
  endfacet
  facet normal -0 0 1
    outer loop
      vertex -32.2437 4.07333 7
      vertex -24.8029 3.13333 7
      vertex -31.479 8.08242 7
    endloop
  endfacet
  facet normal 0 0 1
    outer loop
      vertex -23.2444 -9.20311 7
      vertex -30.2177 -11.964 7
      vertex -28.48 -15.657 7
    endloop
  endfacet
  facet normal 0 0 1
    outer loop
      vertex -24.8029 3.13333 7
      vertex -32.2437 4.07333 7
      vertex -25 0 7
    endloop
  endfacet
  facet normal 0 0 1
    outer loop
      vertex -24.2146 -6.21725 7
      vertex -31.479 -8.08242 7
      vertex -30.2177 -11.964 7
    endloop
  endfacet
  facet normal 0 0 1
    outer loop
      vertex -32.5 0 7
      vertex -25 0 7
      vertex -32.2437 4.07333 7
    endloop
  endfacet
  facet normal 0 0 1
    outer loop
      vertex -24.8029 -3.13333 7
      vertex -32.2437 -4.07333 7
      vertex -31.479 -8.08242 7
    endloop
  endfacet
  facet normal 0 0 1
    outer loop
      vertex -25 0 7
      vertex -32.5 0 7
      vertex -32.2437 -4.07333 7
    endloop
  endfacet
  facet normal -0.481744 0.876312 0
    outer loop
      vertex -13.8378 29.4069 0
      vertex -17.4144 27.4407 7
      vertex -13.8378 29.4069 7
    endloop
  endfacet
  facet normal -0.481744 0.876312 0
    outer loop
      vertex -17.4144 27.4407 7
      vertex -13.8378 29.4069 0
      vertex -17.4144 27.4407 0
    endloop
  endfacet
  facet normal -0.58779 0.809014 0
    outer loop
      vertex -17.4144 27.4407 0
      vertex -20.7163 25.0417 7
      vertex -17.4144 27.4407 7
    endloop
  endfacet
  facet normal -0.58779 0.809014 0
    outer loop
      vertex -20.7163 25.0417 7
      vertex -17.4144 27.4407 0
      vertex -20.7163 25.0417 0
    endloop
  endfacet
  facet normal -0.248687 0.968584 0
    outer loop
      vertex -6.08989 31.9243 0
      vertex -10.0431 30.9093 7
      vertex -6.08989 31.9243 7
    endloop
  endfacet
  facet normal -0.248687 0.968584 0
    outer loop
      vertex -10.0431 30.9093 7
      vertex -6.08989 31.9243 0
      vertex -10.0431 30.9093 0
    endloop
  endfacet
  facet normal 0.998026 -0.0627973 0
    outer loop
      vertex 32.2437 -4.07333 7
      vertex 32.5 0 0
      vertex 32.5 0 7
    endloop
  endfacet
  facet normal 0.998026 -0.0627973 0
    outer loop
      vertex 32.5 0 0
      vertex 32.2437 -4.07333 7
      vertex 32.2437 -4.07333 0
    endloop
  endfacet
  facet normal 0.770514 -0.637423 0
    outer loop
      vertex 23.6915 -22.2478 7
      vertex 26.2931 -19.103 0
      vertex 26.2931 -19.103 7
    endloop
  endfacet
  facet normal 0.770514 -0.637423 0
    outer loop
      vertex 26.2931 -19.103 0
      vertex 23.6915 -22.2478 7
      vertex 23.6915 -22.2478 0
    endloop
  endfacet
  facet normal 0.951049 -0.309039 0
    outer loop
      vertex 30.2177 -11.964 7
      vertex 31.479 -8.08242 0
      vertex 31.479 -8.08242 7
    endloop
  endfacet
  facet normal 0.951049 -0.309039 0
    outer loop
      vertex 31.479 -8.08242 0
      vertex 30.2177 -11.964 7
      vertex 30.2177 -11.964 0
    endloop
  endfacet
  facet normal 0.982291 -0.187364 0
    outer loop
      vertex 31.479 -8.08242 7
      vertex 32.2437 -4.07333 0
      vertex 32.2437 -4.07333 7
    endloop
  endfacet
  facet normal 0.982291 -0.187364 0
    outer loop
      vertex 32.2437 -4.07333 0
      vertex 31.479 -8.08242 7
      vertex 31.479 -8.08242 0
    endloop
  endfacet
  facet normal -0.904836 -0.42576 0
    outer loop
      vertex -28.48 -15.657 0
      vertex -30.2177 -11.964 7
      vertex -30.2177 -11.964 0
    endloop
  endfacet
  facet normal -0.904836 -0.42576 0
    outer loop
      vertex -30.2177 -11.964 7
      vertex -28.48 -15.657 0
      vertex -28.48 -15.657 7
    endloop
  endfacet
  facet normal 0 0 -1
    outer loop
      vertex 25 0 0
      vertex 32.5 0 0
      vertex 32.2437 -4.07333 0
    endloop
  endfacet
  facet normal 0 0 -1
    outer loop
      vertex 24.8029 -3.13333 0
      vertex 32.2437 -4.07333 0
      vertex 31.479 -8.08242 0
    endloop
  endfacet
  facet normal 0 0 -1
    outer loop
      vertex 32.5 0 0
      vertex 25 0 0
      vertex 32.2437 4.07333 0
    endloop
  endfacet
  facet normal 0 0 -1
    outer loop
      vertex 24.2146 -6.21725 0
      vertex 31.479 -8.08242 0
      vertex 30.2177 -11.964 0
    endloop
  endfacet
  facet normal 0 0 -1
    outer loop
      vertex 24.8029 3.13333 0
      vertex 32.2437 4.07333 0
      vertex 25 0 0
    endloop
  endfacet
  facet normal 0 0 -1
    outer loop
      vertex 23.2444 -9.20311 0
      vertex 30.2177 -11.964 0
      vertex 28.48 -15.657 0
    endloop
  endfacet
  facet normal -0 0 -1
    outer loop
      vertex 32.2437 4.07333 0
      vertex 24.8029 3.13333 0
      vertex 31.479 8.08242 0
    endloop
  endfacet
  facet normal 0 0 -1
    outer loop
      vertex 21.9077 -12.0438 0
      vertex 28.48 -15.657 0
      vertex 26.2931 -19.103 0
    endloop
  endfacet
  facet normal 0 0 -1
    outer loop
      vertex 24.2146 6.21725 0
      vertex 31.479 8.08242 0
      vertex 24.8029 3.13333 0
    endloop
  endfacet
  facet normal -0 0 -1
    outer loop
      vertex 31.479 8.08242 0
      vertex 24.2146 6.21725 0
      vertex 30.2177 11.964 0
    endloop
  endfacet
  facet normal 0 0 -1
    outer loop
      vertex 32.2437 -4.07333 0
      vertex 24.8029 -3.13333 0
      vertex 25 0 0
    endloop
  endfacet
  facet normal 0 0 -1
    outer loop
      vertex 31.479 -8.08242 0
      vertex 24.2146 -6.21725 0
      vertex 24.8029 -3.13333 0
    endloop
  endfacet
  facet normal 0 0 -1
    outer loop
      vertex 20.2254 -14.6946 0
      vertex 26.2931 -19.103 0
      vertex 23.6915 -22.2478 0
    endloop
  endfacet
  facet normal 0 0 -1
    outer loop
      vertex 30.2177 -11.964 0
      vertex 23.2444 -9.20311 0
      vertex 24.2146 -6.21725 0
    endloop
  endfacet
  facet normal 0 0 -1
    outer loop
      vertex 28.48 -15.657 0
      vertex 21.9077 -12.0438 0
      vertex 23.2444 -9.20311 0
    endloop
  endfacet
  facet normal 0 0 -1
    outer loop
      vertex 18.2242 -17.1137 0
      vertex 23.6915 -22.2478 0
      vertex 20.7163 -25.0417 0
    endloop
  endfacet
  facet normal 0 0 -1
    outer loop
      vertex 26.2931 -19.103 0
      vertex 20.2254 -14.6946 0
      vertex 21.9077 -12.0438 0
    endloop
  endfacet
  facet normal 0 0 -1
    outer loop
      vertex 23.6915 -22.2478 0
      vertex 18.2242 -17.1137 0
      vertex 20.2254 -14.6946 0
    endloop
  endfacet
  facet normal 0 0 -1
    outer loop
      vertex 15.9356 -19.2628 0
      vertex 20.7163 -25.0417 0
      vertex 17.4144 -27.4407 0
    endloop
  endfacet
  facet normal 0 0 -1
    outer loop
      vertex 20.7163 -25.0417 0
      vertex 15.9356 -19.2628 0
      vertex 18.2242 -17.1137 0
    endloop
  endfacet
  facet normal 0 0 -1
    outer loop
      vertex 13.3957 -21.1082 0
      vertex 17.4144 -27.4407 0
      vertex 13.8378 -29.4069 0
    endloop
  endfacet
  facet normal 0 0 -1
    outer loop
      vertex 17.4144 -27.4407 0
      vertex 13.3957 -21.1082 0
      vertex 15.9356 -19.2628 0
    endloop
  endfacet
  facet normal 0 0 -1
    outer loop
      vertex 13.8378 -29.4069 0
      vertex 10.6445 -22.6207 0
      vertex 13.3957 -21.1082 0
    endloop
  endfacet
  facet normal 0 0 -1
    outer loop
      vertex 10.0431 -30.9093 0
      vertex 10.6445 -22.6207 0
      vertex 13.8378 -29.4069 0
    endloop
  endfacet
  facet normal 0 0 -1
    outer loop
      vertex 10.0431 -30.9093 0
      vertex 7.72542 -23.7764 0
      vertex 10.6445 -22.6207 0
    endloop
  endfacet
  facet normal 0 0 -1
    outer loop
      vertex 6.08989 -31.9243 0
      vertex 7.72542 -23.7764 0
      vertex 10.0431 -30.9093 0
    endloop
  endfacet
  facet normal 0 0 -1
    outer loop
      vertex 6.08989 -31.9243 0
      vertex 4.68453 -24.5572 0
      vertex 7.72542 -23.7764 0
    endloop
  endfacet
  facet normal 0 0 -1
    outer loop
      vertex 2.04069 -32.4359 0
      vertex 4.68453 -24.5572 0
      vertex 6.08989 -31.9243 0
    endloop
  endfacet
  facet normal 0 0 -1
    outer loop
      vertex 2.04069 -32.4359 0
      vertex 1.56976 -24.9507 0
      vertex 4.68453 -24.5572 0
    endloop
  endfacet
  facet normal 0 0 -1
    outer loop
      vertex 2.04069 -32.4359 0
      vertex -1.56976 -24.9507 0
      vertex 1.56976 -24.9507 0
    endloop
  endfacet
  facet normal 0 0 -1
    outer loop
      vertex -2.04069 -32.4359 0
      vertex -1.56976 -24.9507 0
      vertex 2.04069 -32.4359 0
    endloop
  endfacet
  facet normal 0 0 -1
    outer loop
      vertex -2.04069 -32.4359 0
      vertex -4.68453 -24.5572 0
      vertex -1.56976 -24.9507 0
    endloop
  endfacet
  facet normal 0 0 -1
    outer loop
      vertex -6.08989 -31.9243 0
      vertex -4.68453 -24.5572 0
      vertex -2.04069 -32.4359 0
    endloop
  endfacet
  facet normal 0 0 -1
    outer loop
      vertex -6.08989 -31.9243 0
      vertex -7.72542 -23.7764 0
      vertex -4.68453 -24.5572 0
    endloop
  endfacet
  facet normal 0 0 -1
    outer loop
      vertex -10.0431 -30.9093 0
      vertex -7.72542 -23.7764 0
      vertex -6.08989 -31.9243 0
    endloop
  endfacet
  facet normal 0 0 -1
    outer loop
      vertex -10.0431 -30.9093 0
      vertex -10.6445 -22.6207 0
      vertex -7.72542 -23.7764 0
    endloop
  endfacet
  facet normal 0 0 -1
    outer loop
      vertex -13.8378 -29.4069 0
      vertex -10.6445 -22.6207 0
      vertex -10.0431 -30.9093 0
    endloop
  endfacet
  facet normal -0 0 -1
    outer loop
      vertex -10.6445 -22.6207 0
      vertex -13.8378 -29.4069 0
      vertex -13.3957 -21.1082 0
    endloop
  endfacet
  facet normal 0 0 -1
    outer loop
      vertex -17.4144 -27.4407 0
      vertex -13.3957 -21.1082 0
      vertex -13.8378 -29.4069 0
    endloop
  endfacet
  facet normal -0 0 -1
    outer loop
      vertex -13.3957 -21.1082 0
      vertex -17.4144 -27.4407 0
      vertex -15.9356 -19.2628 0
    endloop
  endfacet
  facet normal 0 0 -1
    outer loop
      vertex -20.7163 -25.0417 0
      vertex -15.9356 -19.2628 0
      vertex -17.4144 -27.4407 0
    endloop
  endfacet
  facet normal -0 0 -1
    outer loop
      vertex -15.9356 -19.2628 0
      vertex -20.7163 -25.0417 0
      vertex -18.2242 -17.1137 0
    endloop
  endfacet
  facet normal 0 0 -1
    outer loop
      vertex -23.6915 -22.2478 0
      vertex -18.2242 -17.1137 0
      vertex -20.7163 -25.0417 0
    endloop
  endfacet
  facet normal -0 0 -1
    outer loop
      vertex -18.2242 -17.1137 0
      vertex -23.6915 -22.2478 0
      vertex -20.2254 -14.6946 0
    endloop
  endfacet
  facet normal 0 0 -1
    outer loop
      vertex -26.2931 -19.103 0
      vertex -20.2254 -14.6946 0
      vertex -23.6915 -22.2478 0
    endloop
  endfacet
  facet normal -0 0 -1
    outer loop
      vertex -20.2254 -14.6946 0
      vertex -26.2931 -19.103 0
      vertex -21.9077 -12.0438 0
    endloop
  endfacet
  facet normal 0 0 -1
    outer loop
      vertex -28.48 -15.657 0
      vertex -21.9077 -12.0438 0
      vertex -26.2931 -19.103 0
    endloop
  endfacet
  facet normal -0 0 -1
    outer loop
      vertex -21.9077 -12.0438 0
      vertex -28.48 -15.657 0
      vertex -23.2444 -9.20311 0
    endloop
  endfacet
  facet normal 0 0 -1
    outer loop
      vertex -30.2177 -11.964 0
      vertex -23.2444 -9.20311 0
      vertex -28.48 -15.657 0
    endloop
  endfacet
  facet normal -0 0 -1
    outer loop
      vertex -23.2444 -9.20311 0
      vertex -30.2177 -11.964 0
      vertex -24.2146 -6.21725 0
    endloop
  endfacet
  facet normal 0 0 -1
    outer loop
      vertex 23.2444 9.20311 0
      vertex 30.2177 11.964 0
      vertex 24.2146 6.21725 0
    endloop
  endfacet
  facet normal -0 0 -1
    outer loop
      vertex 30.2177 11.964 0
      vertex 23.2444 9.20311 0
      vertex 28.48 15.657 0
    endloop
  endfacet
  facet normal 0 0 -1
    outer loop
      vertex 21.9077 12.0438 0
      vertex 28.48 15.657 0
      vertex 23.2444 9.20311 0
    endloop
  endfacet
  facet normal -0 0 -1
    outer loop
      vertex 28.48 15.657 0
      vertex 21.9077 12.0438 0
      vertex 26.2931 19.103 0
    endloop
  endfacet
  facet normal 0 0 -1
    outer loop
      vertex 20.2254 14.6946 0
      vertex 26.2931 19.103 0
      vertex 21.9077 12.0438 0
    endloop
  endfacet
  facet normal -0 0 -1
    outer loop
      vertex 26.2931 19.103 0
      vertex 20.2254 14.6946 0
      vertex 23.6915 22.2478 0
    endloop
  endfacet
  facet normal 0 0 -1
    outer loop
      vertex 18.2242 17.1137 0
      vertex 23.6915 22.2478 0
      vertex 20.2254 14.6946 0
    endloop
  endfacet
  facet normal -0 0 -1
    outer loop
      vertex 23.6915 22.2478 0
      vertex 18.2242 17.1137 0
      vertex 20.7163 25.0417 0
    endloop
  endfacet
  facet normal 0 0 -1
    outer loop
      vertex 15.9356 19.2628 0
      vertex 20.7163 25.0417 0
      vertex 18.2242 17.1137 0
    endloop
  endfacet
  facet normal -0 0 -1
    outer loop
      vertex 20.7163 25.0417 0
      vertex 15.9356 19.2628 0
      vertex 17.4144 27.4407 0
    endloop
  endfacet
  facet normal 0 0 -1
    outer loop
      vertex 13.3957 21.1082 0
      vertex 17.4144 27.4407 0
      vertex 15.9356 19.2628 0
    endloop
  endfacet
  facet normal -0 0 -1
    outer loop
      vertex 17.4144 27.4407 0
      vertex 13.3957 21.1082 0
      vertex 13.8378 29.4069 0
    endloop
  endfacet
  facet normal 0 0 -1
    outer loop
      vertex 10.6445 22.6207 0
      vertex 13.8378 29.4069 0
      vertex 13.3957 21.1082 0
    endloop
  endfacet
  facet normal 0 0 -1
    outer loop
      vertex 10.6445 22.6207 0
      vertex 10.0431 30.9093 0
      vertex 13.8378 29.4069 0
    endloop
  endfacet
  facet normal 0 0 -1
    outer loop
      vertex 7.72542 23.7764 0
      vertex 10.0431 30.9093 0
      vertex 10.6445 22.6207 0
    endloop
  endfacet
  facet normal 0 0 -1
    outer loop
      vertex 7.72542 23.7764 0
      vertex 6.08989 31.9243 0
      vertex 10.0431 30.9093 0
    endloop
  endfacet
  facet normal 0 0 -1
    outer loop
      vertex 4.68453 24.5572 0
      vertex 6.08989 31.9243 0
      vertex 7.72542 23.7764 0
    endloop
  endfacet
  facet normal 0 0 -1
    outer loop
      vertex 4.68453 24.5572 0
      vertex 2.04069 32.4359 0
      vertex 6.08989 31.9243 0
    endloop
  endfacet
  facet normal 0 0 -1
    outer loop
      vertex 1.56976 24.9507 0
      vertex 2.04069 32.4359 0
      vertex 4.68453 24.5572 0
    endloop
  endfacet
  facet normal 0 0 -1
    outer loop
      vertex -1.56976 24.9507 0
      vertex 2.04069 32.4359 0
      vertex 1.56976 24.9507 0
    endloop
  endfacet
  facet normal 0 0 -1
    outer loop
      vertex -1.56976 24.9507 0
      vertex -2.04069 32.4359 0
      vertex 2.04069 32.4359 0
    endloop
  endfacet
  facet normal 0 0 -1
    outer loop
      vertex -4.68453 24.5572 0
      vertex -2.04069 32.4359 0
      vertex -1.56976 24.9507 0
    endloop
  endfacet
  facet normal 0 0 -1
    outer loop
      vertex -4.68453 24.5572 0
      vertex -6.08989 31.9243 0
      vertex -2.04069 32.4359 0
    endloop
  endfacet
  facet normal 0 0 -1
    outer loop
      vertex -7.72542 23.7764 0
      vertex -6.08989 31.9243 0
      vertex -4.68453 24.5572 0
    endloop
  endfacet
  facet normal 0 0 -1
    outer loop
      vertex -7.72542 23.7764 0
      vertex -10.0431 30.9093 0
      vertex -6.08989 31.9243 0
    endloop
  endfacet
  facet normal 0 0 -1
    outer loop
      vertex -10.6445 22.6207 0
      vertex -10.0431 30.9093 0
      vertex -7.72542 23.7764 0
    endloop
  endfacet
  facet normal 0 0 -1
    outer loop
      vertex -13.8378 29.4069 0
      vertex -10.6445 22.6207 0
      vertex -13.3957 21.1082 0
    endloop
  endfacet
  facet normal 0 0 -1
    outer loop
      vertex -10.6445 22.6207 0
      vertex -13.8378 29.4069 0
      vertex -10.0431 30.9093 0
    endloop
  endfacet
  facet normal 0 0 -1
    outer loop
      vertex -17.4144 27.4407 0
      vertex -13.3957 21.1082 0
      vertex -15.9356 19.2628 0
    endloop
  endfacet
  facet normal 0 0 -1
    outer loop
      vertex -13.3957 21.1082 0
      vertex -17.4144 27.4407 0
      vertex -13.8378 29.4069 0
    endloop
  endfacet
  facet normal 0 0 -1
    outer loop
      vertex -20.7163 25.0417 0
      vertex -15.9356 19.2628 0
      vertex -18.2242 17.1137 0
    endloop
  endfacet
  facet normal 0 0 -1
    outer loop
      vertex -23.6915 22.2478 0
      vertex -18.2242 17.1137 0
      vertex -20.2254 14.6946 0
    endloop
  endfacet
  facet normal 0 0 -1
    outer loop
      vertex -15.9356 19.2628 0
      vertex -20.7163 25.0417 0
      vertex -17.4144 27.4407 0
    endloop
  endfacet
  facet normal 0 0 -1
    outer loop
      vertex -26.2931 19.103 0
      vertex -20.2254 14.6946 0
      vertex -21.9077 12.0438 0
    endloop
  endfacet
  facet normal 0 0 -1
    outer loop
      vertex -28.48 15.657 0
      vertex -21.9077 12.0438 0
      vertex -23.2444 9.20311 0
    endloop
  endfacet
  facet normal 0 0 -1
    outer loop
      vertex -18.2242 17.1137 0
      vertex -23.6915 22.2478 0
      vertex -20.7163 25.0417 0
    endloop
  endfacet
  facet normal 0 0 -1
    outer loop
      vertex -30.2177 11.964 0
      vertex -23.2444 9.20311 0
      vertex -24.2146 6.21725 0
    endloop
  endfacet
  facet normal 0 0 -1
    outer loop
      vertex -31.479 8.08242 0
      vertex -24.2146 6.21725 0
      vertex -24.8029 3.13333 0
    endloop
  endfacet
  facet normal 0 0 -1
    outer loop
      vertex -32.2437 4.07333 0
      vertex -24.8029 3.13333 0
      vertex -25 0 0
    endloop
  endfacet
  facet normal 0 0 -1
    outer loop
      vertex -31.479 -8.08242 0
      vertex -24.2146 -6.21725 0
      vertex -30.2177 -11.964 0
    endloop
  endfacet
  facet normal 0 0 -1
    outer loop
      vertex -20.2254 14.6946 0
      vertex -26.2931 19.103 0
      vertex -23.6915 22.2478 0
    endloop
  endfacet
  facet normal -0 0 -1
    outer loop
      vertex -24.2146 -6.21725 0
      vertex -31.479 -8.08242 0
      vertex -24.8029 -3.13333 0
    endloop
  endfacet
  facet normal 0 0 -1
    outer loop
      vertex -21.9077 12.0438 0
      vertex -28.48 15.657 0
      vertex -26.2931 19.103 0
    endloop
  endfacet
  facet normal 0 0 -1
    outer loop
      vertex -32.2437 -4.07333 0
      vertex -24.8029 -3.13333 0
      vertex -31.479 -8.08242 0
    endloop
  endfacet
  facet normal 0 0 -1
    outer loop
      vertex -23.2444 9.20311 0
      vertex -30.2177 11.964 0
      vertex -28.48 15.657 0
    endloop
  endfacet
  facet normal -0 0 -1
    outer loop
      vertex -24.8029 -3.13333 0
      vertex -32.2437 -4.07333 0
      vertex -25 0 0
    endloop
  endfacet
  facet normal 0 0 -1
    outer loop
      vertex -24.2146 6.21725 0
      vertex -31.479 8.08242 0
      vertex -30.2177 11.964 0
    endloop
  endfacet
  facet normal 0 0 -1
    outer loop
      vertex -32.5 0 0
      vertex -25 0 0
      vertex -32.2437 -4.07333 0
    endloop
  endfacet
  facet normal 0 0 -1
    outer loop
      vertex -24.8029 3.13333 0
      vertex -32.2437 4.07333 0
      vertex -31.479 8.08242 0
    endloop
  endfacet
  facet normal 0 0 -1
    outer loop
      vertex -25 0 0
      vertex -32.5 0 0
      vertex -32.2437 4.07333 0
    endloop
  endfacet
  facet normal 0.481744 -0.876312 0
    outer loop
      vertex 13.8378 -29.4069 0
      vertex 17.4144 -27.4407 7
      vertex 13.8378 -29.4069 7
    endloop
  endfacet
  facet normal 0.481744 -0.876312 0
    outer loop
      vertex 17.4144 -27.4407 7
      vertex 13.8378 -29.4069 0
      vertex 17.4144 -27.4407 0
    endloop
  endfacet
  facet normal 0.684547 -0.728968 0
    outer loop
      vertex 20.7163 -25.0417 0
      vertex 23.6915 -22.2478 7
      vertex 20.7163 -25.0417 7
    endloop
  endfacet
  facet normal 0.684547 -0.728968 0
    outer loop
      vertex 23.6915 -22.2478 7
      vertex 20.7163 -25.0417 0
      vertex 23.6915 -22.2478 0
    endloop
  endfacet
  facet normal 0.844328 -0.535827 0
    outer loop
      vertex 26.2931 -19.103 7
      vertex 28.48 -15.657 0
      vertex 28.48 -15.657 7
    endloop
  endfacet
  facet normal 0.844328 -0.535827 0
    outer loop
      vertex 28.48 -15.657 0
      vertex 26.2931 -19.103 7
      vertex 26.2931 -19.103 0
    endloop
  endfacet
  facet normal -0.951049 -0.309039 0
    outer loop
      vertex -30.2177 -11.964 0
      vertex -31.479 -8.08242 7
      vertex -31.479 -8.08242 0
    endloop
  endfacet
  facet normal -0.951049 -0.309039 0
    outer loop
      vertex -31.479 -8.08242 7
      vertex -30.2177 -11.964 0
      vertex -30.2177 -11.964 7
    endloop
  endfacet
  facet normal 0.368119 -0.929779 0
    outer loop
      vertex 10.0431 -30.9093 0
      vertex 13.8378 -29.4069 7
      vertex 10.0431 -30.9093 7
    endloop
  endfacet
  facet normal 0.368119 -0.929779 0
    outer loop
      vertex 13.8378 -29.4069 7
      vertex 10.0431 -30.9093 0
      vertex 13.8378 -29.4069 0
    endloop
  endfacet
  facet normal 0.248687 -0.968584 0
    outer loop
      vertex 6.08989 -31.9243 0
      vertex 10.0431 -30.9093 7
      vertex 6.08989 -31.9243 7
    endloop
  endfacet
  facet normal 0.248687 -0.968584 0
    outer loop
      vertex 10.0431 -30.9093 7
      vertex 6.08989 -31.9243 0
      vertex 10.0431 -30.9093 0
    endloop
  endfacet
  facet normal 0.904836 -0.42576 0
    outer loop
      vertex 28.48 -15.657 7
      vertex 30.2177 -11.964 0
      vertex 30.2177 -11.964 7
    endloop
  endfacet
  facet normal 0.904836 -0.42576 0
    outer loop
      vertex 30.2177 -11.964 0
      vertex 28.48 -15.657 7
      vertex 28.48 -15.657 0
    endloop
  endfacet
  facet normal -0.125349 -0.992113 0
    outer loop
      vertex -6.08989 -31.9243 0
      vertex -2.04069 -32.4359 7
      vertex -6.08989 -31.9243 7
    endloop
  endfacet
  facet normal -0.125349 -0.992113 -0
    outer loop
      vertex -2.04069 -32.4359 7
      vertex -6.08989 -31.9243 0
      vertex -2.04069 -32.4359 0
    endloop
  endfacet
  facet normal -0.368119 -0.929779 0
    outer loop
      vertex -13.8378 -29.4069 0
      vertex -10.0431 -30.9093 7
      vertex -13.8378 -29.4069 7
    endloop
  endfacet
  facet normal -0.368119 -0.929779 -0
    outer loop
      vertex -10.0431 -30.9093 7
      vertex -13.8378 -29.4069 0
      vertex -10.0431 -30.9093 0
    endloop
  endfacet
  facet normal -0.248687 -0.968584 0
    outer loop
      vertex -10.0431 -30.9093 0
      vertex -6.08989 -31.9243 7
      vertex -10.0431 -30.9093 7
    endloop
  endfacet
  facet normal -0.248687 -0.968584 -0
    outer loop
      vertex -6.08989 -31.9243 7
      vertex -10.0431 -30.9093 0
      vertex -6.08989 -31.9243 0
    endloop
  endfacet
  facet normal -0.770514 -0.637423 0
    outer loop
      vertex -23.6915 -22.2478 0
      vertex -26.2931 -19.103 7
      vertex -26.2931 -19.103 0
    endloop
  endfacet
  facet normal -0.770514 -0.637423 0
    outer loop
      vertex -26.2931 -19.103 7
      vertex -23.6915 -22.2478 0
      vertex -23.6915 -22.2478 7
    endloop
  endfacet
  facet normal -0.684547 -0.728968 0
    outer loop
      vertex -23.6915 -22.2478 0
      vertex -20.7163 -25.0417 7
      vertex -23.6915 -22.2478 7
    endloop
  endfacet
  facet normal -0.684547 -0.728968 -0
    outer loop
      vertex -20.7163 -25.0417 7
      vertex -23.6915 -22.2478 0
      vertex -20.7163 -25.0417 0
    endloop
  endfacet
  facet normal -0.982291 -0.187364 0
    outer loop
      vertex -31.479 -8.08242 0
      vertex -32.2437 -4.07333 7
      vertex -32.2437 -4.07333 0
    endloop
  endfacet
  facet normal -0.982291 -0.187364 0
    outer loop
      vertex -32.2437 -4.07333 7
      vertex -31.479 -8.08242 0
      vertex -31.479 -8.08242 7
    endloop
  endfacet
  facet normal -0.998026 -0.0627973 0
    outer loop
      vertex -32.2437 -4.07333 0
      vertex -32.5 0 7
      vertex -32.5 0 0
    endloop
  endfacet
  facet normal -0.998026 -0.0627973 0
    outer loop
      vertex -32.5 0 7
      vertex -32.2437 -4.07333 0
      vertex -32.2437 -4.07333 7
    endloop
  endfacet
  facet normal 0.58779 -0.809014 0
    outer loop
      vertex 17.4144 -27.4407 0
      vertex 20.7163 -25.0417 7
      vertex 17.4144 -27.4407 7
    endloop
  endfacet
  facet normal 0.58779 -0.809014 0
    outer loop
      vertex 20.7163 -25.0417 7
      vertex 17.4144 -27.4407 0
      vertex 20.7163 -25.0417 0
    endloop
  endfacet
  facet normal -0.844328 -0.535827 0
    outer loop
      vertex -26.2931 -19.103 0
      vertex -28.48 -15.657 7
      vertex -28.48 -15.657 0
    endloop
  endfacet
  facet normal -0.844328 -0.535827 0
    outer loop
      vertex -28.48 -15.657 7
      vertex -26.2931 -19.103 0
      vertex -26.2931 -19.103 7
    endloop
  endfacet
  facet normal -0.481744 -0.876312 0
    outer loop
      vertex -17.4144 -27.4407 0
      vertex -13.8378 -29.4069 7
      vertex -17.4144 -27.4407 7
    endloop
  endfacet
  facet normal -0.481744 -0.876312 -0
    outer loop
      vertex -13.8378 -29.4069 7
      vertex -17.4144 -27.4407 0
      vertex -13.8378 -29.4069 0
    endloop
  endfacet
  facet normal -0.58779 -0.809014 0
    outer loop
      vertex -20.7163 -25.0417 0
      vertex -17.4144 -27.4407 7
      vertex -20.7163 -25.0417 7
    endloop
  endfacet
  facet normal -0.58779 -0.809014 -0
    outer loop
      vertex -17.4144 -27.4407 7
      vertex -20.7163 -25.0417 0
      vertex -17.4144 -27.4407 0
    endloop
  endfacet
  facet normal -0.998027 -0.0627802 0
    outer loop
      vertex 25 0 0
      vertex 24.8029 3.13333 7
      vertex 24.8029 3.13333 0
    endloop
  endfacet
  facet normal -0.998027 -0.0627802 0
    outer loop
      vertex 24.8029 3.13333 7
      vertex 25 0 0
      vertex 25 0 7
    endloop
  endfacet
  facet normal 0.998027 -0.0627802 0
    outer loop
      vertex -25 0 7
      vertex -24.8029 3.13333 0
      vertex -24.8029 3.13333 7
    endloop
  endfacet
  facet normal 0.998027 -0.0627802 0
    outer loop
      vertex -24.8029 3.13333 0
      vertex -25 0 7
      vertex -25 0 0
    endloop
  endfacet
  facet normal 0 -1 0
    outer loop
      vertex -1.56976 24.9507 0
      vertex 1.56976 24.9507 7
      vertex -1.56976 24.9507 7
    endloop
  endfacet
  facet normal 0 -1 -0
    outer loop
      vertex 1.56976 24.9507 7
      vertex -1.56976 24.9507 0
      vertex 1.56976 24.9507 0
    endloop
  endfacet
  facet normal 0 1 -0
    outer loop
      vertex 1.56976 -24.9507 0
      vertex -1.56976 -24.9507 7
      vertex 1.56976 -24.9507 7
    endloop
  endfacet
  facet normal 0 1 0
    outer loop
      vertex -1.56976 -24.9507 7
      vertex 1.56976 -24.9507 0
      vertex -1.56976 -24.9507 0
    endloop
  endfacet
  facet normal -0.684541 0.728975 0
    outer loop
      vertex 18.2242 -17.1137 0
      vertex 15.9356 -19.2628 7
      vertex 18.2242 -17.1137 7
    endloop
  endfacet
  facet normal -0.684541 0.728975 0
    outer loop
      vertex 15.9356 -19.2628 7
      vertex 18.2242 -17.1137 0
      vertex 15.9356 -19.2628 0
    endloop
  endfacet
  facet normal -0.684541 -0.728975 0
    outer loop
      vertex 15.9356 19.2628 0
      vertex 18.2242 17.1137 7
      vertex 15.9356 19.2628 7
    endloop
  endfacet
  facet normal -0.684541 -0.728975 -0
    outer loop
      vertex 18.2242 17.1137 7
      vertex 15.9356 19.2628 0
      vertex 18.2242 17.1137 0
    endloop
  endfacet
  facet normal 0.684541 -0.728975 0
    outer loop
      vertex -18.2242 17.1137 0
      vertex -15.9356 19.2628 7
      vertex -18.2242 17.1137 7
    endloop
  endfacet
  facet normal 0.684541 -0.728975 0
    outer loop
      vertex -15.9356 19.2628 7
      vertex -18.2242 17.1137 0
      vertex -15.9356 19.2628 0
    endloop
  endfacet
  facet normal 0.368112 -0.929781 0
    outer loop
      vertex -10.6445 22.6207 0
      vertex -7.72542 23.7764 7
      vertex -10.6445 22.6207 7
    endloop
  endfacet
  facet normal 0.368112 -0.929781 0
    outer loop
      vertex -7.72542 23.7764 7
      vertex -10.6445 22.6207 0
      vertex -7.72542 23.7764 0
    endloop
  endfacet
  facet normal -0.90483 -0.425772 0
    outer loop
      vertex 23.2444 9.20311 0
      vertex 21.9077 12.0438 7
      vertex 21.9077 12.0438 0
    endloop
  endfacet
  facet normal -0.90483 -0.425772 0
    outer loop
      vertex 21.9077 12.0438 7
      vertex 23.2444 9.20311 0
      vertex 23.2444 9.20311 7
    endloop
  endfacet
  facet normal -0.982287 -0.187385 0
    outer loop
      vertex 24.8029 3.13333 0
      vertex 24.2146 6.21725 7
      vertex 24.2146 6.21725 0
    endloop
  endfacet
  facet normal -0.982287 -0.187385 0
    outer loop
      vertex 24.2146 6.21725 7
      vertex 24.8029 3.13333 0
      vertex 24.8029 3.13333 7
    endloop
  endfacet
  facet normal -0.844321 -0.535838 0
    outer loop
      vertex 21.9077 12.0438 0
      vertex 20.2254 14.6946 7
      vertex 20.2254 14.6946 0
    endloop
  endfacet
  facet normal -0.844321 -0.535838 0
    outer loop
      vertex 20.2254 14.6946 7
      vertex 21.9077 12.0438 0
      vertex 21.9077 12.0438 7
    endloop
  endfacet
  facet normal -0.368112 -0.929781 0
    outer loop
      vertex 7.72542 23.7764 0
      vertex 10.6445 22.6207 7
      vertex 7.72542 23.7764 7
    endloop
  endfacet
  facet normal -0.368112 -0.929781 -0
    outer loop
      vertex 10.6445 22.6207 7
      vertex 7.72542 23.7764 0
      vertex 10.6445 22.6207 0
    endloop
  endfacet
  facet normal -0.248699 -0.968581 0
    outer loop
      vertex 4.68453 24.5572 0
      vertex 7.72542 23.7764 7
      vertex 4.68453 24.5572 7
    endloop
  endfacet
  facet normal -0.248699 -0.968581 -0
    outer loop
      vertex 7.72542 23.7764 7
      vertex 4.68453 24.5572 0
      vertex 7.72542 23.7764 0
    endloop
  endfacet
  facet normal -0.481757 -0.876305 0
    outer loop
      vertex 10.6445 22.6207 0
      vertex 13.3957 21.1082 7
      vertex 10.6445 22.6207 7
    endloop
  endfacet
  facet normal -0.481757 -0.876305 -0
    outer loop
      vertex 13.3957 21.1082 7
      vertex 10.6445 22.6207 0
      vertex 13.3957 21.1082 0
    endloop
  endfacet
  facet normal 0.844321 -0.535838 0
    outer loop
      vertex -21.9077 12.0438 7
      vertex -20.2254 14.6946 0
      vertex -20.2254 14.6946 7
    endloop
  endfacet
  facet normal 0.844321 -0.535838 0
    outer loop
      vertex -20.2254 14.6946 0
      vertex -21.9077 12.0438 7
      vertex -21.9077 12.0438 0
    endloop
  endfacet
  facet normal 0.770522 -0.637414 0
    outer loop
      vertex -20.2254 14.6946 7
      vertex -18.2242 17.1137 0
      vertex -18.2242 17.1137 7
    endloop
  endfacet
  facet normal 0.770522 -0.637414 0
    outer loop
      vertex -18.2242 17.1137 0
      vertex -20.2254 14.6946 7
      vertex -20.2254 14.6946 0
    endloop
  endfacet
  facet normal 0.951053 -0.309027 0
    outer loop
      vertex -24.2146 6.21725 7
      vertex -23.2444 9.20311 0
      vertex -23.2444 9.20311 7
    endloop
  endfacet
  facet normal 0.951053 -0.309027 0
    outer loop
      vertex -23.2444 9.20311 0
      vertex -24.2146 6.21725 7
      vertex -24.2146 6.21725 0
    endloop
  endfacet
  facet normal 0.587797 -0.809009 0
    outer loop
      vertex -15.9356 19.2628 0
      vertex -13.3957 21.1082 7
      vertex -15.9356 19.2628 7
    endloop
  endfacet
  facet normal 0.587797 -0.809009 0
    outer loop
      vertex -13.3957 21.1082 7
      vertex -15.9356 19.2628 0
      vertex -13.3957 21.1082 0
    endloop
  endfacet
  facet normal 0.125337 -0.992114 0
    outer loop
      vertex -4.68453 24.5572 0
      vertex -1.56976 24.9507 7
      vertex -4.68453 24.5572 7
    endloop
  endfacet
  facet normal 0.125337 -0.992114 0
    outer loop
      vertex -1.56976 24.9507 7
      vertex -4.68453 24.5572 0
      vertex -1.56976 24.9507 0
    endloop
  endfacet
  facet normal -0.125337 0.992114 0
    outer loop
      vertex 4.68453 -24.5572 0
      vertex 1.56976 -24.9507 7
      vertex 4.68453 -24.5572 7
    endloop
  endfacet
  facet normal -0.125337 0.992114 0
    outer loop
      vertex 1.56976 -24.9507 7
      vertex 4.68453 -24.5572 0
      vertex 1.56976 -24.9507 0
    endloop
  endfacet
  facet normal -0.951053 -0.309027 0
    outer loop
      vertex 24.2146 6.21725 0
      vertex 23.2444 9.20311 7
      vertex 23.2444 9.20311 0
    endloop
  endfacet
  facet normal -0.951053 -0.309027 0
    outer loop
      vertex 23.2444 9.20311 7
      vertex 24.2146 6.21725 0
      vertex 24.2146 6.21725 7
    endloop
  endfacet
  facet normal -0.770522 -0.637414 0
    outer loop
      vertex 20.2254 14.6946 0
      vertex 18.2242 17.1137 7
      vertex 18.2242 17.1137 0
    endloop
  endfacet
  facet normal -0.770522 -0.637414 0
    outer loop
      vertex 18.2242 17.1137 7
      vertex 20.2254 14.6946 0
      vertex 20.2254 14.6946 7
    endloop
  endfacet
  facet normal -0.125337 -0.992114 0
    outer loop
      vertex 1.56976 24.9507 0
      vertex 4.68453 24.5572 7
      vertex 1.56976 24.9507 7
    endloop
  endfacet
  facet normal -0.125337 -0.992114 -0
    outer loop
      vertex 4.68453 24.5572 7
      vertex 1.56976 24.9507 0
      vertex 4.68453 24.5572 0
    endloop
  endfacet
  facet normal -0.587797 -0.809009 0
    outer loop
      vertex 13.3957 21.1082 0
      vertex 15.9356 19.2628 7
      vertex 13.3957 21.1082 7
    endloop
  endfacet
  facet normal -0.587797 -0.809009 -0
    outer loop
      vertex 15.9356 19.2628 7
      vertex 13.3957 21.1082 0
      vertex 15.9356 19.2628 0
    endloop
  endfacet
  facet normal 0.90483 -0.425772 0
    outer loop
      vertex -23.2444 9.20311 7
      vertex -21.9077 12.0438 0
      vertex -21.9077 12.0438 7
    endloop
  endfacet
  facet normal 0.90483 -0.425772 0
    outer loop
      vertex -21.9077 12.0438 0
      vertex -23.2444 9.20311 7
      vertex -23.2444 9.20311 0
    endloop
  endfacet
  facet normal 0.982287 -0.187385 0
    outer loop
      vertex -24.8029 3.13333 7
      vertex -24.2146 6.21725 0
      vertex -24.2146 6.21725 7
    endloop
  endfacet
  facet normal 0.982287 -0.187385 0
    outer loop
      vertex -24.2146 6.21725 0
      vertex -24.8029 3.13333 7
      vertex -24.8029 3.13333 0
    endloop
  endfacet
  facet normal 0.481757 -0.876305 0
    outer loop
      vertex -13.3957 21.1082 0
      vertex -10.6445 22.6207 7
      vertex -13.3957 21.1082 7
    endloop
  endfacet
  facet normal 0.481757 -0.876305 0
    outer loop
      vertex -10.6445 22.6207 7
      vertex -13.3957 21.1082 0
      vertex -10.6445 22.6207 0
    endloop
  endfacet
  facet normal 0.248699 -0.968581 0
    outer loop
      vertex -7.72542 23.7764 0
      vertex -4.68453 24.5572 7
      vertex -7.72542 23.7764 7
    endloop
  endfacet
  facet normal 0.248699 -0.968581 0
    outer loop
      vertex -4.68453 24.5572 7
      vertex -7.72542 23.7764 0
      vertex -4.68453 24.5572 0
    endloop
  endfacet
  facet normal -0.982287 0.187385 0
    outer loop
      vertex 24.2146 -6.21725 0
      vertex 24.8029 -3.13333 7
      vertex 24.8029 -3.13333 0
    endloop
  endfacet
  facet normal -0.982287 0.187385 0
    outer loop
      vertex 24.8029 -3.13333 7
      vertex 24.2146 -6.21725 0
      vertex 24.2146 -6.21725 7
    endloop
  endfacet
  facet normal -0.587797 0.809009 0
    outer loop
      vertex 15.9356 -19.2628 0
      vertex 13.3957 -21.1082 7
      vertex 15.9356 -19.2628 7
    endloop
  endfacet
  facet normal -0.587797 0.809009 0
    outer loop
      vertex 13.3957 -21.1082 7
      vertex 15.9356 -19.2628 0
      vertex 13.3957 -21.1082 0
    endloop
  endfacet
  facet normal -0.368112 0.929781 0
    outer loop
      vertex 10.6445 -22.6207 0
      vertex 7.72542 -23.7764 7
      vertex 10.6445 -22.6207 7
    endloop
  endfacet
  facet normal -0.368112 0.929781 0
    outer loop
      vertex 7.72542 -23.7764 7
      vertex 10.6445 -22.6207 0
      vertex 7.72542 -23.7764 0
    endloop
  endfacet
  facet normal -0.90483 0.425772 0
    outer loop
      vertex 21.9077 -12.0438 0
      vertex 23.2444 -9.20311 7
      vertex 23.2444 -9.20311 0
    endloop
  endfacet
  facet normal -0.90483 0.425772 0
    outer loop
      vertex 23.2444 -9.20311 7
      vertex 21.9077 -12.0438 0
      vertex 21.9077 -12.0438 7
    endloop
  endfacet
  facet normal -0.998027 0.0627802 0
    outer loop
      vertex 24.8029 -3.13333 0
      vertex 25 0 7
      vertex 25 0 0
    endloop
  endfacet
  facet normal -0.998027 0.0627802 0
    outer loop
      vertex 25 0 7
      vertex 24.8029 -3.13333 0
      vertex 24.8029 -3.13333 7
    endloop
  endfacet
  facet normal 0.368112 0.929781 -0
    outer loop
      vertex -7.72542 -23.7764 0
      vertex -10.6445 -22.6207 7
      vertex -7.72542 -23.7764 7
    endloop
  endfacet
  facet normal 0.368112 0.929781 0
    outer loop
      vertex -10.6445 -22.6207 7
      vertex -7.72542 -23.7764 0
      vertex -10.6445 -22.6207 0
    endloop
  endfacet
  facet normal 0.770522 0.637414 0
    outer loop
      vertex -18.2242 -17.1137 7
      vertex -20.2254 -14.6946 0
      vertex -20.2254 -14.6946 7
    endloop
  endfacet
  facet normal 0.770522 0.637414 0
    outer loop
      vertex -20.2254 -14.6946 0
      vertex -18.2242 -17.1137 7
      vertex -18.2242 -17.1137 0
    endloop
  endfacet
  facet normal 0.951053 0.309027 0
    outer loop
      vertex -23.2444 -9.20311 7
      vertex -24.2146 -6.21725 0
      vertex -24.2146 -6.21725 7
    endloop
  endfacet
  facet normal 0.951053 0.309027 0
    outer loop
      vertex -24.2146 -6.21725 0
      vertex -23.2444 -9.20311 7
      vertex -23.2444 -9.20311 0
    endloop
  endfacet
  facet normal -0.481757 0.876305 0
    outer loop
      vertex 13.3957 -21.1082 0
      vertex 10.6445 -22.6207 7
      vertex 13.3957 -21.1082 7
    endloop
  endfacet
  facet normal -0.481757 0.876305 0
    outer loop
      vertex 10.6445 -22.6207 7
      vertex 13.3957 -21.1082 0
      vertex 10.6445 -22.6207 0
    endloop
  endfacet
  facet normal -0.248699 0.968581 0
    outer loop
      vertex 7.72542 -23.7764 0
      vertex 4.68453 -24.5572 7
      vertex 7.72542 -23.7764 7
    endloop
  endfacet
  facet normal -0.248699 0.968581 0
    outer loop
      vertex 4.68453 -24.5572 7
      vertex 7.72542 -23.7764 0
      vertex 4.68453 -24.5572 0
    endloop
  endfacet
  facet normal -0.844321 0.535838 0
    outer loop
      vertex 20.2254 -14.6946 0
      vertex 21.9077 -12.0438 7
      vertex 21.9077 -12.0438 0
    endloop
  endfacet
  facet normal -0.844321 0.535838 0
    outer loop
      vertex 21.9077 -12.0438 7
      vertex 20.2254 -14.6946 0
      vertex 20.2254 -14.6946 7
    endloop
  endfacet
  facet normal -0.770522 0.637414 0
    outer loop
      vertex 18.2242 -17.1137 0
      vertex 20.2254 -14.6946 7
      vertex 20.2254 -14.6946 0
    endloop
  endfacet
  facet normal -0.770522 0.637414 0
    outer loop
      vertex 20.2254 -14.6946 7
      vertex 18.2242 -17.1137 0
      vertex 18.2242 -17.1137 7
    endloop
  endfacet
  facet normal -0.951053 0.309027 0
    outer loop
      vertex 23.2444 -9.20311 0
      vertex 24.2146 -6.21725 7
      vertex 24.2146 -6.21725 0
    endloop
  endfacet
  facet normal -0.951053 0.309027 0
    outer loop
      vertex 24.2146 -6.21725 7
      vertex 23.2444 -9.20311 0
      vertex 23.2444 -9.20311 7
    endloop
  endfacet
  facet normal 0.125337 0.992114 -0
    outer loop
      vertex -1.56976 -24.9507 0
      vertex -4.68453 -24.5572 7
      vertex -1.56976 -24.9507 7
    endloop
  endfacet
  facet normal 0.125337 0.992114 0
    outer loop
      vertex -4.68453 -24.5572 7
      vertex -1.56976 -24.9507 0
      vertex -4.68453 -24.5572 0
    endloop
  endfacet
  facet normal 0.587797 0.809009 -0
    outer loop
      vertex -13.3957 -21.1082 0
      vertex -15.9356 -19.2628 7
      vertex -13.3957 -21.1082 7
    endloop
  endfacet
  facet normal 0.587797 0.809009 0
    outer loop
      vertex -15.9356 -19.2628 7
      vertex -13.3957 -21.1082 0
      vertex -15.9356 -19.2628 0
    endloop
  endfacet
  facet normal 0.248699 0.968581 -0
    outer loop
      vertex -4.68453 -24.5572 0
      vertex -7.72542 -23.7764 7
      vertex -4.68453 -24.5572 7
    endloop
  endfacet
  facet normal 0.248699 0.968581 0
    outer loop
      vertex -7.72542 -23.7764 7
      vertex -4.68453 -24.5572 0
      vertex -7.72542 -23.7764 0
    endloop
  endfacet
  facet normal 0.684541 0.728975 -0
    outer loop
      vertex -15.9356 -19.2628 0
      vertex -18.2242 -17.1137 7
      vertex -15.9356 -19.2628 7
    endloop
  endfacet
  facet normal 0.684541 0.728975 0
    outer loop
      vertex -18.2242 -17.1137 7
      vertex -15.9356 -19.2628 0
      vertex -18.2242 -17.1137 0
    endloop
  endfacet
  facet normal 0.90483 0.425772 0
    outer loop
      vertex -21.9077 -12.0438 7
      vertex -23.2444 -9.20311 0
      vertex -23.2444 -9.20311 7
    endloop
  endfacet
  facet normal 0.90483 0.425772 0
    outer loop
      vertex -23.2444 -9.20311 0
      vertex -21.9077 -12.0438 7
      vertex -21.9077 -12.0438 0
    endloop
  endfacet
  facet normal 0.982287 0.187385 0
    outer loop
      vertex -24.2146 -6.21725 7
      vertex -24.8029 -3.13333 0
      vertex -24.8029 -3.13333 7
    endloop
  endfacet
  facet normal 0.982287 0.187385 0
    outer loop
      vertex -24.8029 -3.13333 0
      vertex -24.2146 -6.21725 7
      vertex -24.2146 -6.21725 0
    endloop
  endfacet
  facet normal 0.998027 0.0627802 0
    outer loop
      vertex -24.8029 -3.13333 7
      vertex -25 0 0
      vertex -25 0 7
    endloop
  endfacet
  facet normal 0.998027 0.0627802 0
    outer loop
      vertex -25 0 0
      vertex -24.8029 -3.13333 7
      vertex -24.8029 -3.13333 0
    endloop
  endfacet
  facet normal 0.481757 0.876305 -0
    outer loop
      vertex -10.6445 -22.6207 0
      vertex -13.3957 -21.1082 7
      vertex -10.6445 -22.6207 7
    endloop
  endfacet
  facet normal 0.481757 0.876305 0
    outer loop
      vertex -13.3957 -21.1082 7
      vertex -10.6445 -22.6207 0
      vertex -13.3957 -21.1082 0
    endloop
  endfacet
  facet normal 0.844321 0.535838 0
    outer loop
      vertex -20.2254 -14.6946 7
      vertex -21.9077 -12.0438 0
      vertex -21.9077 -12.0438 7
    endloop
  endfacet
  facet normal 0.844321 0.535838 0
    outer loop
      vertex -21.9077 -12.0438 0
      vertex -20.2254 -14.6946 7
      vertex -20.2254 -14.6946 0
    endloop
  endfacet
endsolid OpenSCAD_Model
