<?xml version="1.0" standalone="no"?>
<!DOCTYPE svg PUBLIC "-//W3C//DTD SVG 1.1//EN" "http://www.w3.org/Graphics/SVG/1.1/DTD/svg11.dtd">
<svg width="210mm" height="532mm" viewBox="-105 -1049 210 532" xmlns="http://www.w3.org/2000/svg" version="1.1">
<title>OpenSCAD Model</title>
<path d="
M 100.937,-1003.59 L 101.545,-1003.74 L 102.129,-1003.98 L 102.679,-1004.28 L 103.187,-1004.65 L 103.645,-1005.08
 L 104.045,-1005.56 L 104.382,-1006.09 L 104.649,-1006.66 L 104.843,-1007.26 L 104.961,-1007.87 L 105,-1008.5
 L 105,-1043.5 L 104.961,-1044.13 L 104.843,-1044.74 L 104.649,-1045.34 L 104.382,-1045.91 L 104.045,-1046.44
 L 103.645,-1046.92 L 103.187,-1047.35 L 102.679,-1047.72 L 102.129,-1048.02 L 101.545,-1048.26 L 100.937,-1048.41
 L 100.314,-1048.49 L -100.314,-1048.49 L -100.937,-1048.41 L -101.545,-1048.26 L -102.129,-1048.02 L -102.679,-1047.72
 L -103.187,-1047.35 L -103.645,-1046.92 L -104.045,-1046.44 L -104.382,-1045.91 L -104.649,-1045.34 L -104.843,-1044.74
 L -104.961,-1044.13 L -105,-1043.5 L -105,-1008.5 L -104.961,-1007.87 L -104.843,-1007.26 L -104.649,-1006.66
 L -104.382,-1006.09 L -104.045,-1005.56 L -103.645,-1005.08 L -103.187,-1004.65 L -102.679,-1004.28 L -102.129,-1003.98
 L -101.545,-1003.74 L -100.937,-1003.59 L -100.314,-1003.51 L 100.314,-1003.51 z
M -99.7512,-1005.01 L -100.25,-1005.07 L -100.736,-1005.2 L -101.203,-1005.38 L -101.643,-1005.62 L -102.05,-1005.92
 L -102.416,-1006.26 L -102.736,-1006.65 L -103.005,-1007.07 L -103.219,-1007.53 L -103.374,-1008.01 L -103.468,-1008.5
 L -103.5,-1009 L -103.5,-1043 L -103.468,-1043.5 L -103.374,-1043.99 L -103.219,-1044.47 L -103.005,-1044.93
 L -102.736,-1045.35 L -102.416,-1045.74 L -102.05,-1046.08 L -101.643,-1046.38 L -101.203,-1046.62 L -100.736,-1046.8
 L -100.25,-1046.93 L -99.7512,-1046.99 L 99.7512,-1046.99 L 100.25,-1046.93 L 100.736,-1046.8 L 101.203,-1046.62
 L 101.643,-1046.38 L 102.05,-1046.08 L 102.416,-1045.74 L 102.736,-1045.35 L 103.005,-1044.93 L 103.219,-1044.47
 L 103.374,-1043.99 L 103.468,-1043.5 L 103.5,-1043 L 103.5,-1009 L 103.468,-1008.5 L 103.374,-1008.01
 L 103.219,-1007.53 L 103.005,-1007.07 L 102.736,-1006.65 L 102.416,-1006.26 L 102.05,-1005.92 L 101.643,-1005.62
 L 101.203,-1005.38 L 100.736,-1005.2 L 100.25,-1005.07 L 99.7512,-1005.01 z
M 100.937,-949.589 L 101.545,-949.745 L 102.129,-949.976 L 102.679,-950.278 L 103.187,-950.647 L 103.645,-951.077
 L 104.045,-951.561 L 104.382,-952.091 L 104.649,-952.659 L 104.843,-953.257 L 104.961,-953.873 L 105,-954.5
 L 105,-989.5 L 104.961,-990.127 L 104.843,-990.743 L 104.649,-991.341 L 104.382,-991.909 L 104.045,-992.439
 L 103.645,-992.923 L 103.187,-993.353 L 102.679,-993.722 L 102.129,-994.024 L 101.545,-994.255 L 100.937,-994.411
 L 100.314,-994.49 L -100.314,-994.49 L -100.937,-994.411 L -101.545,-994.255 L -102.129,-994.024 L -102.679,-993.722
 L -103.187,-993.353 L -103.645,-992.923 L -104.045,-992.439 L -104.382,-991.909 L -104.649,-991.341 L -104.843,-990.743
 L -104.961,-990.127 L -105,-989.5 L -105,-954.5 L -104.961,-953.873 L -104.843,-953.257 L -104.649,-952.659
 L -104.382,-952.091 L -104.045,-951.561 L -103.645,-951.077 L -103.187,-950.647 L -102.679,-950.278 L -102.129,-949.976
 L -101.545,-949.745 L -100.937,-949.589 L -100.314,-949.51 L 100.314,-949.51 z
M -99.7512,-951.008 L -100.25,-951.071 L -100.736,-951.196 L -101.203,-951.381 L -101.643,-951.623 L -102.05,-951.918
 L -102.416,-952.262 L -102.736,-952.649 L -103.005,-953.073 L -103.219,-953.528 L -103.374,-954.005 L -103.468,-954.499
 L -103.5,-955 L -103.5,-989 L -103.468,-989.501 L -103.374,-989.995 L -103.219,-990.472 L -103.005,-990.927
 L -102.736,-991.351 L -102.416,-991.738 L -102.05,-992.082 L -101.643,-992.377 L -101.203,-992.619 L -100.736,-992.804
 L -100.25,-992.929 L -99.7512,-992.992 L 99.7512,-992.992 L 100.25,-992.929 L 100.736,-992.804 L 101.203,-992.619
 L 101.643,-992.377 L 102.05,-992.082 L 102.416,-991.738 L 102.736,-991.351 L 103.005,-990.927 L 103.219,-990.472
 L 103.374,-989.995 L 103.468,-989.501 L 103.5,-989 L 103.5,-955 L 103.468,-954.499 L 103.374,-954.005
 L 103.219,-953.528 L 103.005,-953.073 L 102.736,-952.649 L 102.416,-952.262 L 102.05,-951.918 L 101.643,-951.623
 L 101.203,-951.381 L 100.736,-951.196 L 100.25,-951.071 L 99.7512,-951.008 z
M 100.937,-895.589 L 101.545,-895.745 L 102.129,-895.976 L 102.679,-896.278 L 103.187,-896.647 L 103.645,-897.077
 L 104.045,-897.561 L 104.382,-898.091 L 104.649,-898.659 L 104.843,-899.257 L 104.961,-899.873 L 105,-900.5
 L 105,-935.5 L 104.961,-936.127 L 104.843,-936.743 L 104.649,-937.341 L 104.382,-937.909 L 104.045,-938.439
 L 103.645,-938.923 L 103.187,-939.353 L 102.679,-939.722 L 102.129,-940.024 L 101.545,-940.255 L 100.937,-940.411
 L 100.314,-940.49 L -100.314,-940.49 L -100.937,-940.411 L -101.545,-940.255 L -102.129,-940.024 L -102.679,-939.722
 L -103.187,-939.353 L -103.645,-938.923 L -104.045,-938.439 L -104.382,-937.909 L -104.649,-937.341 L -104.843,-936.743
 L -104.961,-936.127 L -105,-935.5 L -105,-900.5 L -104.961,-899.873 L -104.843,-899.257 L -104.649,-898.659
 L -104.382,-898.091 L -104.045,-897.561 L -103.645,-897.077 L -103.187,-896.647 L -102.679,-896.278 L -102.129,-895.976
 L -101.545,-895.745 L -100.937,-895.589 L -100.314,-895.51 L 100.314,-895.51 z
M -99.7512,-897.008 L -100.25,-897.071 L -100.736,-897.196 L -101.203,-897.381 L -101.643,-897.623 L -102.05,-897.918
 L -102.416,-898.262 L -102.736,-898.649 L -103.005,-899.073 L -103.219,-899.528 L -103.374,-900.005 L -103.468,-900.499
 L -103.5,-901 L -103.5,-935 L -103.468,-935.501 L -103.374,-935.995 L -103.219,-936.472 L -103.005,-936.927
 L -102.736,-937.351 L -102.416,-937.738 L -102.05,-938.082 L -101.643,-938.377 L -101.203,-938.619 L -100.736,-938.804
 L -100.25,-938.929 L -99.7512,-938.992 L 99.7512,-938.992 L 100.25,-938.929 L 100.736,-938.804 L 101.203,-938.619
 L 101.643,-938.377 L 102.05,-938.082 L 102.416,-937.738 L 102.736,-937.351 L 103.005,-936.927 L 103.219,-936.472
 L 103.374,-935.995 L 103.468,-935.501 L 103.5,-935 L 103.5,-901 L 103.468,-900.499 L 103.374,-900.005
 L 103.219,-899.528 L 103.005,-899.073 L 102.736,-898.649 L 102.416,-898.262 L 102.05,-897.918 L 101.643,-897.623
 L 101.203,-897.381 L 100.736,-897.196 L 100.25,-897.071 L 99.7512,-897.008 z
M 100.937,-841.589 L 101.545,-841.745 L 102.129,-841.976 L 102.679,-842.278 L 103.187,-842.647 L 103.645,-843.077
 L 104.045,-843.561 L 104.382,-844.091 L 104.649,-844.659 L 104.843,-845.257 L 104.961,-845.873 L 105,-846.5
 L 105,-881.5 L 104.961,-882.127 L 104.843,-882.743 L 104.649,-883.341 L 104.382,-883.909 L 104.045,-884.439
 L 103.645,-884.923 L 103.187,-885.353 L 102.679,-885.722 L 102.129,-886.024 L 101.545,-886.255 L 100.937,-886.411
 L 100.314,-886.49 L -100.314,-886.49 L -100.937,-886.411 L -101.545,-886.255 L -102.129,-886.024 L -102.679,-885.722
 L -103.187,-885.353 L -103.645,-884.923 L -104.045,-884.439 L -104.382,-883.909 L -104.649,-883.341 L -104.843,-882.743
 L -104.961,-882.127 L -105,-881.5 L -105,-846.5 L -104.961,-845.873 L -104.843,-845.257 L -104.649,-844.659
 L -104.382,-844.091 L -104.045,-843.561 L -103.645,-843.077 L -103.187,-842.647 L -102.679,-842.278 L -102.129,-841.976
 L -101.545,-841.745 L -100.937,-841.589 L -100.314,-841.51 L 100.314,-841.51 z
M -99.7512,-843.008 L -100.25,-843.071 L -100.736,-843.196 L -101.203,-843.381 L -101.643,-843.623 L -102.05,-843.918
 L -102.416,-844.262 L -102.736,-844.649 L -103.005,-845.073 L -103.219,-845.528 L -103.374,-846.005 L -103.468,-846.499
 L -103.5,-847 L -103.5,-881 L -103.468,-881.501 L -103.374,-881.995 L -103.219,-882.472 L -103.005,-882.927
 L -102.736,-883.351 L -102.416,-883.738 L -102.05,-884.082 L -101.643,-884.377 L -101.203,-884.619 L -100.736,-884.804
 L -100.25,-884.929 L -99.7512,-884.992 L 99.7512,-884.992 L 100.25,-884.929 L 100.736,-884.804 L 101.203,-884.619
 L 101.643,-884.377 L 102.05,-884.082 L 102.416,-883.738 L 102.736,-883.351 L 103.005,-882.927 L 103.219,-882.472
 L 103.374,-881.995 L 103.468,-881.501 L 103.5,-881 L 103.5,-847 L 103.468,-846.499 L 103.374,-846.005
 L 103.219,-845.528 L 103.005,-845.073 L 102.736,-844.649 L 102.416,-844.262 L 102.05,-843.918 L 101.643,-843.623
 L 101.203,-843.381 L 100.736,-843.196 L 100.25,-843.071 L 99.7512,-843.008 z
M 100.937,-787.589 L 101.545,-787.745 L 102.129,-787.976 L 102.679,-788.278 L 103.187,-788.647 L 103.645,-789.077
 L 104.045,-789.561 L 104.382,-790.091 L 104.649,-790.659 L 104.843,-791.257 L 104.961,-791.873 L 105,-792.5
 L 105,-827.5 L 104.961,-828.127 L 104.843,-828.743 L 104.649,-829.341 L 104.382,-829.909 L 104.045,-830.439
 L 103.645,-830.923 L 103.187,-831.353 L 102.679,-831.722 L 102.129,-832.024 L 101.545,-832.255 L 100.937,-832.411
 L 100.314,-832.49 L -100.314,-832.49 L -100.937,-832.411 L -101.545,-832.255 L -102.129,-832.024 L -102.679,-831.722
 L -103.187,-831.353 L -103.645,-830.923 L -104.045,-830.439 L -104.382,-829.909 L -104.649,-829.341 L -104.843,-828.743
 L -104.961,-828.127 L -105,-827.5 L -105,-792.5 L -104.961,-791.873 L -104.843,-791.257 L -104.649,-790.659
 L -104.382,-790.091 L -104.045,-789.561 L -103.645,-789.077 L -103.187,-788.647 L -102.679,-788.278 L -102.129,-787.976
 L -101.545,-787.745 L -100.937,-787.589 L -100.314,-787.51 L 100.314,-787.51 z
M -99.7512,-789.008 L -100.25,-789.071 L -100.736,-789.196 L -101.203,-789.381 L -101.643,-789.623 L -102.05,-789.918
 L -102.416,-790.262 L -102.736,-790.649 L -103.005,-791.073 L -103.219,-791.528 L -103.374,-792.005 L -103.468,-792.499
 L -103.5,-793 L -103.5,-827 L -103.468,-827.501 L -103.374,-827.995 L -103.219,-828.472 L -103.005,-828.927
 L -102.736,-829.351 L -102.416,-829.738 L -102.05,-830.082 L -101.643,-830.377 L -101.203,-830.619 L -100.736,-830.804
 L -100.25,-830.929 L -99.7512,-830.992 L 99.7512,-830.992 L 100.25,-830.929 L 100.736,-830.804 L 101.203,-830.619
 L 101.643,-830.377 L 102.05,-830.082 L 102.416,-829.738 L 102.736,-829.351 L 103.005,-828.927 L 103.219,-828.472
 L 103.374,-827.995 L 103.468,-827.501 L 103.5,-827 L 103.5,-793 L 103.468,-792.499 L 103.374,-792.005
 L 103.219,-791.528 L 103.005,-791.073 L 102.736,-790.649 L 102.416,-790.262 L 102.05,-789.918 L 101.643,-789.623
 L 101.203,-789.381 L 100.736,-789.196 L 100.25,-789.071 L 99.7512,-789.008 z
M 100.937,-733.589 L 101.545,-733.745 L 102.129,-733.976 L 102.679,-734.278 L 103.187,-734.647 L 103.645,-735.077
 L 104.045,-735.561 L 104.382,-736.091 L 104.649,-736.659 L 104.843,-737.257 L 104.961,-737.873 L 105,-738.5
 L 105,-773.5 L 104.961,-774.127 L 104.843,-774.743 L 104.649,-775.341 L 104.382,-775.909 L 104.045,-776.439
 L 103.645,-776.923 L 103.187,-777.353 L 102.679,-777.722 L 102.129,-778.024 L 101.545,-778.255 L 100.937,-778.411
 L 100.314,-778.49 L -100.314,-778.49 L -100.937,-778.411 L -101.545,-778.255 L -102.129,-778.024 L -102.679,-777.722
 L -103.187,-777.353 L -103.645,-776.923 L -104.045,-776.439 L -104.382,-775.909 L -104.649,-775.341 L -104.843,-774.743
 L -104.961,-774.127 L -105,-773.5 L -105,-738.5 L -104.961,-737.873 L -104.843,-737.257 L -104.649,-736.659
 L -104.382,-736.091 L -104.045,-735.561 L -103.645,-735.077 L -103.187,-734.647 L -102.679,-734.278 L -102.129,-733.976
 L -101.545,-733.745 L -100.937,-733.589 L -100.314,-733.51 L 100.314,-733.51 z
M -99.7512,-735.008 L -100.25,-735.071 L -100.736,-735.196 L -101.203,-735.381 L -101.643,-735.623 L -102.05,-735.918
 L -102.416,-736.262 L -102.736,-736.649 L -103.005,-737.073 L -103.219,-737.528 L -103.374,-738.005 L -103.468,-738.499
 L -103.5,-739 L -103.5,-773 L -103.468,-773.501 L -103.374,-773.995 L -103.219,-774.472 L -103.005,-774.927
 L -102.736,-775.351 L -102.416,-775.738 L -102.05,-776.082 L -101.643,-776.377 L -101.203,-776.619 L -100.736,-776.804
 L -100.25,-776.929 L -99.7512,-776.992 L 99.7512,-776.992 L 100.25,-776.929 L 100.736,-776.804 L 101.203,-776.619
 L 101.643,-776.377 L 102.05,-776.082 L 102.416,-775.738 L 102.736,-775.351 L 103.005,-774.927 L 103.219,-774.472
 L 103.374,-773.995 L 103.468,-773.501 L 103.5,-773 L 103.5,-739 L 103.468,-738.499 L 103.374,-738.005
 L 103.219,-737.528 L 103.005,-737.073 L 102.736,-736.649 L 102.416,-736.262 L 102.05,-735.918 L 101.643,-735.623
 L 101.203,-735.381 L 100.736,-735.196 L 100.25,-735.071 L 99.7512,-735.008 z
M 100.937,-679.589 L 101.545,-679.745 L 102.129,-679.976 L 102.679,-680.278 L 103.187,-680.647 L 103.645,-681.077
 L 104.045,-681.561 L 104.382,-682.091 L 104.649,-682.659 L 104.843,-683.257 L 104.961,-683.873 L 105,-684.5
 L 105,-719.5 L 104.961,-720.127 L 104.843,-720.743 L 104.649,-721.341 L 104.382,-721.909 L 104.045,-722.439
 L 103.645,-722.923 L 103.187,-723.353 L 102.679,-723.722 L 102.129,-724.024 L 101.545,-724.255 L 100.937,-724.411
 L 100.314,-724.49 L -100.314,-724.49 L -100.937,-724.411 L -101.545,-724.255 L -102.129,-724.024 L -102.679,-723.722
 L -103.187,-723.353 L -103.645,-722.923 L -104.045,-722.439 L -104.382,-721.909 L -104.649,-721.341 L -104.843,-720.743
 L -104.961,-720.127 L -105,-719.5 L -105,-684.5 L -104.961,-683.873 L -104.843,-683.257 L -104.649,-682.659
 L -104.382,-682.091 L -104.045,-681.561 L -103.645,-681.077 L -103.187,-680.647 L -102.679,-680.278 L -102.129,-679.976
 L -101.545,-679.745 L -100.937,-679.589 L -100.314,-679.51 L 100.314,-679.51 z
M -99.7512,-681.008 L -100.25,-681.071 L -100.736,-681.196 L -101.203,-681.381 L -101.643,-681.623 L -102.05,-681.918
 L -102.416,-682.262 L -102.736,-682.649 L -103.005,-683.073 L -103.219,-683.528 L -103.374,-684.005 L -103.468,-684.499
 L -103.5,-685 L -103.5,-719 L -103.468,-719.501 L -103.374,-719.995 L -103.219,-720.472 L -103.005,-720.927
 L -102.736,-721.351 L -102.416,-721.738 L -102.05,-722.082 L -101.643,-722.377 L -101.203,-722.619 L -100.736,-722.804
 L -100.25,-722.929 L -99.7512,-722.992 L 99.7512,-722.992 L 100.25,-722.929 L 100.736,-722.804 L 101.203,-722.619
 L 101.643,-722.377 L 102.05,-722.082 L 102.416,-721.738 L 102.736,-721.351 L 103.005,-720.927 L 103.219,-720.472
 L 103.374,-719.995 L 103.468,-719.501 L 103.5,-719 L 103.5,-685 L 103.468,-684.499 L 103.374,-684.005
 L 103.219,-683.528 L 103.005,-683.073 L 102.736,-682.649 L 102.416,-682.262 L 102.05,-681.918 L 101.643,-681.623
 L 101.203,-681.381 L 100.736,-681.196 L 100.25,-681.071 L 99.7512,-681.008 z
M 100.937,-625.589 L 101.545,-625.745 L 102.129,-625.976 L 102.679,-626.278 L 103.187,-626.647 L 103.645,-627.077
 L 104.045,-627.561 L 104.382,-628.091 L 104.649,-628.659 L 104.843,-629.257 L 104.961,-629.873 L 105,-630.5
 L 105,-665.5 L 104.961,-666.127 L 104.843,-666.743 L 104.649,-667.341 L 104.382,-667.909 L 104.045,-668.439
 L 103.645,-668.923 L 103.187,-669.353 L 102.679,-669.722 L 102.129,-670.024 L 101.545,-670.255 L 100.937,-670.411
 L 100.314,-670.49 L -100.314,-670.49 L -100.937,-670.411 L -101.545,-670.255 L -102.129,-670.024 L -102.679,-669.722
 L -103.187,-669.353 L -103.645,-668.923 L -104.045,-668.439 L -104.382,-667.909 L -104.649,-667.341 L -104.843,-666.743
 L -104.961,-666.127 L -105,-665.5 L -105,-630.5 L -104.961,-629.873 L -104.843,-629.257 L -104.649,-628.659
 L -104.382,-628.091 L -104.045,-627.561 L -103.645,-627.077 L -103.187,-626.647 L -102.679,-626.278 L -102.129,-625.976
 L -101.545,-625.745 L -100.937,-625.589 L -100.314,-625.51 L 100.314,-625.51 z
M -99.7512,-627.008 L -100.25,-627.071 L -100.736,-627.196 L -101.203,-627.381 L -101.643,-627.623 L -102.05,-627.918
 L -102.416,-628.262 L -102.736,-628.649 L -103.005,-629.073 L -103.219,-629.528 L -103.374,-630.005 L -103.468,-630.499
 L -103.5,-631 L -103.5,-665 L -103.468,-665.501 L -103.374,-665.995 L -103.219,-666.472 L -103.005,-666.927
 L -102.736,-667.351 L -102.416,-667.738 L -102.05,-668.082 L -101.643,-668.377 L -101.203,-668.619 L -100.736,-668.804
 L -100.25,-668.929 L -99.7512,-668.992 L 99.7512,-668.992 L 100.25,-668.929 L 100.736,-668.804 L 101.203,-668.619
 L 101.643,-668.377 L 102.05,-668.082 L 102.416,-667.738 L 102.736,-667.351 L 103.005,-666.927 L 103.219,-666.472
 L 103.374,-665.995 L 103.468,-665.501 L 103.5,-665 L 103.5,-631 L 103.468,-630.499 L 103.374,-630.005
 L 103.219,-629.528 L 103.005,-629.073 L 102.736,-628.649 L 102.416,-628.262 L 102.05,-627.918 L 101.643,-627.623
 L 101.203,-627.381 L 100.736,-627.196 L 100.25,-627.071 L 99.7512,-627.008 z
M 100.937,-571.589 L 101.545,-571.745 L 102.129,-571.976 L 102.679,-572.278 L 103.187,-572.647 L 103.645,-573.077
 L 104.045,-573.561 L 104.382,-574.091 L 104.649,-574.659 L 104.843,-575.257 L 104.961,-575.873 L 105,-576.5
 L 105,-611.5 L 104.961,-612.127 L 104.843,-612.743 L 104.649,-613.341 L 104.382,-613.909 L 104.045,-614.439
 L 103.645,-614.923 L 103.187,-615.353 L 102.679,-615.722 L 102.129,-616.024 L 101.545,-616.255 L 100.937,-616.411
 L 100.314,-616.49 L -100.314,-616.49 L -100.937,-616.411 L -101.545,-616.255 L -102.129,-616.024 L -102.679,-615.722
 L -103.187,-615.353 L -103.645,-614.923 L -104.045,-614.439 L -104.382,-613.909 L -104.649,-613.341 L -104.843,-612.743
 L -104.961,-612.127 L -105,-611.5 L -105,-576.5 L -104.961,-575.873 L -104.843,-575.257 L -104.649,-574.659
 L -104.382,-574.091 L -104.045,-573.561 L -103.645,-573.077 L -103.187,-572.647 L -102.679,-572.278 L -102.129,-571.976
 L -101.545,-571.745 L -100.937,-571.589 L -100.314,-571.51 L 100.314,-571.51 z
M -99.6955,-573.893 L -100.083,-573.942 L -100.462,-574.039 L -100.825,-574.183 L -101.168,-574.372 L -101.484,-574.601
 L -101.769,-574.869 L -102.018,-575.17 L -102.228,-575.5 L -102.394,-575.854 L -102.515,-576.226 L -102.588,-576.61
 L -102.613,-577 L -102.613,-611 L -102.588,-611.39 L -102.515,-611.774 L -102.394,-612.146 L -102.228,-612.5
 L -102.018,-612.83 L -101.769,-613.131 L -101.484,-613.399 L -101.168,-613.628 L -100.825,-613.817 L -100.462,-613.961
 L -100.083,-614.058 L -99.6955,-614.107 L 99.6955,-614.107 L 100.083,-614.058 L 100.462,-613.961 L 100.825,-613.817
 L 101.168,-613.628 L 101.484,-613.399 L 101.769,-613.131 L 102.018,-612.83 L 102.228,-612.5 L 102.394,-612.146
 L 102.515,-611.774 L 102.588,-611.39 L 102.613,-611 L 102.613,-577 L 102.588,-576.61 L 102.515,-576.226
 L 102.394,-575.854 L 102.228,-575.5 L 102.018,-575.17 L 101.769,-574.869 L 101.484,-574.601 L 101.168,-574.372
 L 100.825,-574.183 L 100.462,-574.039 L 100.083,-573.942 L 99.6955,-573.893 z
M 100.937,-517.589 L 101.545,-517.745 L 102.129,-517.976 L 102.679,-518.278 L 103.187,-518.647 L 103.645,-519.077
 L 104.045,-519.561 L 104.382,-520.091 L 104.649,-520.659 L 104.843,-521.257 L 104.961,-521.873 L 105,-522.5
 L 105,-557.5 L 104.961,-558.127 L 104.843,-558.743 L 104.649,-559.341 L 104.382,-559.909 L 104.045,-560.439
 L 103.645,-560.923 L 103.187,-561.353 L 102.679,-561.722 L 102.129,-562.024 L 101.545,-562.255 L 100.937,-562.411
 L 100.314,-562.49 L -100.314,-562.49 L -100.937,-562.411 L -101.545,-562.255 L -102.129,-562.024 L -102.679,-561.722
 L -103.187,-561.353 L -103.645,-560.923 L -104.045,-560.439 L -104.382,-559.909 L -104.649,-559.341 L -104.843,-558.743
 L -104.961,-558.127 L -105,-557.5 L -105,-522.5 L -104.961,-521.873 L -104.843,-521.257 L -104.649,-520.659
 L -104.382,-520.091 L -104.045,-519.561 L -103.645,-519.077 L -103.187,-518.647 L -102.679,-518.278 L -102.129,-517.976
 L -101.545,-517.745 L -100.937,-517.589 L -100.314,-517.51 L 100.314,-517.51 z
M -97.6341,-552.869 L -97.9001,-552.903 L -98.1598,-552.969 L -98.4092,-553.068 L -98.6441,-553.197 L -98.8611,-553.355
 L -99.0566,-553.538 L -99.2275,-553.745 L -99.3712,-553.971 L -99.4853,-554.214 L -99.5682,-554.469 L -99.6185,-554.732
 L -99.6353,-555 L -99.6185,-555.268 L -99.5682,-555.531 L -99.4853,-555.786 L -99.3712,-556.029 L -99.2275,-556.255
 L -99.0566,-556.462 L -98.8611,-556.645 L -98.6441,-556.803 L -98.4092,-556.932 L -98.1598,-557.031 L -97.9001,-557.097
 L -97.6341,-557.131 L -97.3659,-557.131 L -97.0999,-557.097 L -96.8401,-557.031 L -96.5908,-556.932 L -96.3559,-556.803
 L -96.1389,-556.645 L -95.9434,-556.462 L -95.7725,-556.255 L -95.6288,-556.029 L -95.5146,-555.786 L -95.4318,-555.531
 L -95.3815,-555.268 L -95.3647,-555 L -95.3815,-554.732 L -95.4318,-554.469 L -95.5146,-554.214 L -95.6288,-553.971
 L -95.7725,-553.745 L -95.9434,-553.538 L -96.1389,-553.355 L -96.3559,-553.197 L -96.5908,-553.068 L -96.8401,-552.969
 L -97.0999,-552.903 L -97.3659,-552.869 z
M 97.3659,-552.869 L 97.0999,-552.903 L 96.8401,-552.969 L 96.5908,-553.068 L 96.3559,-553.197 L 96.1389,-553.355
 L 95.9434,-553.538 L 95.7725,-553.745 L 95.6288,-553.971 L 95.5146,-554.214 L 95.4318,-554.469 L 95.3815,-554.732
 L 95.3647,-555 L 95.3815,-555.268 L 95.4318,-555.531 L 95.5146,-555.786 L 95.6288,-556.029 L 95.7725,-556.255
 L 95.9434,-556.462 L 96.1389,-556.645 L 96.3559,-556.803 L 96.5908,-556.932 L 96.8401,-557.031 L 97.0999,-557.097
 L 97.3659,-557.131 L 97.6341,-557.131 L 97.9001,-557.097 L 98.1598,-557.031 L 98.4092,-556.932 L 98.6441,-556.803
 L 98.8611,-556.645 L 99.0566,-556.462 L 99.2275,-556.255 L 99.3712,-556.029 L 99.4853,-555.786 L 99.5682,-555.531
 L 99.6185,-555.268 L 99.6353,-555 L 99.6185,-554.732 L 99.5682,-554.469 L 99.4853,-554.214 L 99.3712,-553.971
 L 99.2275,-553.745 L 99.0566,-553.538 L 98.8611,-553.355 L 98.6441,-553.197 L 98.4092,-553.068 L 98.1598,-552.969
 L 97.9001,-552.903 L 97.6341,-552.869 z
M -97.6341,-522.869 L -97.9001,-522.903 L -98.1598,-522.969 L -98.4092,-523.068 L -98.6441,-523.197 L -98.8611,-523.355
 L -99.0566,-523.538 L -99.2275,-523.745 L -99.3712,-523.971 L -99.4853,-524.214 L -99.5682,-524.469 L -99.6185,-524.732
 L -99.6353,-525 L -99.6185,-525.268 L -99.5682,-525.531 L -99.4853,-525.786 L -99.3712,-526.029 L -99.2275,-526.255
 L -99.0566,-526.462 L -98.8611,-526.645 L -98.6441,-526.803 L -98.4092,-526.932 L -98.1598,-527.031 L -97.9001,-527.097
 L -97.6341,-527.131 L -97.3659,-527.131 L -97.0999,-527.097 L -96.8401,-527.031 L -96.5908,-526.932 L -96.3559,-526.803
 L -96.1389,-526.645 L -95.9434,-526.462 L -95.7725,-526.255 L -95.6288,-526.029 L -95.5146,-525.786 L -95.4318,-525.531
 L -95.3815,-525.268 L -95.3647,-525 L -95.3815,-524.732 L -95.4318,-524.469 L -95.5146,-524.214 L -95.6288,-523.971
 L -95.7725,-523.745 L -95.9434,-523.538 L -96.1389,-523.355 L -96.3559,-523.197 L -96.5908,-523.068 L -96.8401,-522.969
 L -97.0999,-522.903 L -97.3659,-522.869 z
M 97.3659,-522.869 L 97.0999,-522.903 L 96.8401,-522.969 L 96.5908,-523.068 L 96.3559,-523.197 L 96.1389,-523.355
 L 95.9434,-523.538 L 95.7725,-523.745 L 95.6288,-523.971 L 95.5146,-524.214 L 95.4318,-524.469 L 95.3815,-524.732
 L 95.3647,-525 L 95.3815,-525.268 L 95.4318,-525.531 L 95.5146,-525.786 L 95.6288,-526.029 L 95.7725,-526.255
 L 95.9434,-526.462 L 96.1389,-526.645 L 96.3559,-526.803 L 96.5908,-526.932 L 96.8401,-527.031 L 97.0999,-527.097
 L 97.3659,-527.131 L 97.6341,-527.131 L 97.9001,-527.097 L 98.1598,-527.031 L 98.4092,-526.932 L 98.6441,-526.803
 L 98.8611,-526.645 L 99.0566,-526.462 L 99.2275,-526.255 L 99.3712,-526.029 L 99.4853,-525.786 L 99.5682,-525.531
 L 99.6185,-525.268 L 99.6353,-525 L 99.6185,-524.732 L 99.5682,-524.469 L 99.4853,-524.214 L 99.3712,-523.971
 L 99.2275,-523.745 L 99.0566,-523.538 L 98.8611,-523.355 L 98.6441,-523.197 L 98.4092,-523.068 L 98.1598,-522.969
 L 97.9001,-522.903 L 97.6341,-522.869 z
" stroke="black" fill="lightgray" stroke-width="0.5"/>
</svg>
