<?xml version="1.0" standalone="no"?>
<!DOCTYPE svg PUBLIC "-//W3C//DTD SVG 1.1//EN" "http://www.w3.org/Graphics/SVG/1.1/DTD/svg11.dtd">
<svg width="166mm" height="88mm" viewBox="-83 -152 166 88" xmlns="http://www.w3.org/2000/svg" version="1.1">
<title>OpenSCAD Model</title>
<path d="
M 78.4369,-136.589 L 79.0451,-136.745 L 79.6289,-136.976 L 80.1791,-137.278 L 80.6871,-137.647 L 81.1448,-138.077
 L 81.5451,-138.561 L 81.8815,-139.091 L 82.1489,-139.659 L 82.3429,-140.257 L 82.4606,-140.873 L 82.5,-141.5
 L 82.5,-146.5 L 82.4606,-147.127 L 82.3429,-147.743 L 82.1489,-148.341 L 81.8815,-148.909 L 81.5451,-149.439
 L 81.1448,-149.923 L 80.6871,-150.353 L 80.1791,-150.722 L 79.6289,-151.024 L 79.0451,-151.255 L 78.4369,-151.411
 L 77.8139,-151.49 L -77.8139,-151.49 L -78.4369,-151.411 L -79.0451,-151.255 L -79.6289,-151.024 L -80.1791,-150.722
 L -80.6871,-150.353 L -81.1448,-149.923 L -81.5451,-149.439 L -81.8815,-148.909 L -82.1489,-148.341 L -82.3429,-147.743
 L -82.4606,-147.127 L -82.5,-146.5 L -82.5,-141.5 L -82.4606,-140.873 L -82.3429,-140.257 L -82.1489,-139.659
 L -81.8815,-139.091 L -81.5451,-138.561 L -81.1448,-138.077 L -80.6871,-137.647 L -80.1791,-137.278 L -79.6289,-136.976
 L -79.0451,-136.745 L -78.4369,-136.589 L -77.8139,-136.51 L 77.8139,-136.51 z
M -77.5482,-137.009 L -78.1401,-137.084 L -78.7178,-137.232 L -79.2724,-137.452 L -79.7952,-137.739 L -80.2778,-138.09
 L -80.7126,-138.498 L -81.0928,-138.958 L -81.4125,-139.462 L -81.6664,-140.001 L -81.8508,-140.569 L -81.9625,-141.155
 L -82,-141.75 L -82,-146.25 L -81.9625,-146.845 L -81.8508,-147.431 L -81.6664,-147.999 L -81.4125,-148.538
 L -81.0928,-149.042 L -80.7126,-149.502 L -80.2778,-149.91 L -79.7952,-150.261 L -79.2724,-150.548 L -78.7178,-150.768
 L -78.1401,-150.916 L -77.5482,-150.991 L 77.5482,-150.991 L 78.1401,-150.916 L 78.7178,-150.768 L 79.2724,-150.548
 L 79.7952,-150.261 L 80.2778,-149.91 L 80.7126,-149.502 L 81.0928,-149.042 L 81.4125,-148.538 L 81.6664,-147.999
 L 81.8508,-147.431 L 81.9625,-146.845 L 82,-146.25 L 82,-141.75 L 81.9625,-141.155 L 81.8508,-140.569
 L 81.6664,-140.001 L 81.4125,-139.462 L 81.0928,-138.958 L 80.7126,-138.498 L 80.2778,-138.09 L 79.7952,-137.739
 L 79.2724,-137.452 L 78.7178,-137.232 L 78.1401,-137.084 L 77.5482,-137.009 z
M 78.4369,-112.589 L 79.0451,-112.745 L 79.6289,-112.976 L 80.1791,-113.278 L 80.6871,-113.647 L 81.1448,-114.077
 L 81.5451,-114.561 L 81.8815,-115.091 L 82.1489,-115.659 L 82.3429,-116.257 L 82.4606,-116.873 L 82.5,-117.5
 L 82.5,-122.5 L 82.4606,-123.127 L 82.3429,-123.743 L 82.1489,-124.341 L 81.8815,-124.909 L 81.5451,-125.439
 L 81.1448,-125.923 L 80.6871,-126.353 L 80.1791,-126.722 L 79.6289,-127.024 L 79.0451,-127.255 L 78.4369,-127.411
 L 77.8139,-127.49 L -77.8139,-127.49 L -78.4369,-127.411 L -79.0451,-127.255 L -79.6289,-127.024 L -80.1791,-126.722
 L -80.6871,-126.353 L -81.1448,-125.923 L -81.5451,-125.439 L -81.8815,-124.909 L -82.1489,-124.341 L -82.3429,-123.743
 L -82.4606,-123.127 L -82.5,-122.5 L -82.5,-117.5 L -82.4606,-116.873 L -82.3429,-116.257 L -82.1489,-115.659
 L -81.8815,-115.091 L -81.5451,-114.561 L -81.1448,-114.077 L -80.6871,-113.647 L -80.1791,-113.278 L -79.6289,-112.976
 L -79.0451,-112.745 L -78.4369,-112.589 L -77.8139,-112.51 L 77.8139,-112.51 z
M -77.5482,-113.009 L -78.1401,-113.084 L -78.7178,-113.232 L -79.2724,-113.452 L -79.7952,-113.739 L -80.2778,-114.09
 L -80.7126,-114.498 L -81.0928,-114.958 L -81.4125,-115.462 L -81.6664,-116.001 L -81.8508,-116.569 L -81.9625,-117.155
 L -82,-117.75 L -82,-122.25 L -81.9625,-122.845 L -81.8508,-123.431 L -81.6664,-123.999 L -81.4125,-124.538
 L -81.0928,-125.042 L -80.7126,-125.502 L -80.2778,-125.91 L -79.7952,-126.261 L -79.2724,-126.548 L -78.7178,-126.768
 L -78.1401,-126.916 L -77.5482,-126.991 L 77.5482,-126.991 L 78.1401,-126.916 L 78.7178,-126.768 L 79.2724,-126.548
 L 79.7952,-126.261 L 80.2778,-125.91 L 80.7126,-125.502 L 81.0928,-125.042 L 81.4125,-124.538 L 81.6664,-123.999
 L 81.8508,-123.431 L 81.9625,-122.845 L 82,-122.25 L 82,-117.75 L 81.9625,-117.155 L 81.8508,-116.569
 L 81.6664,-116.001 L 81.4125,-115.462 L 81.0928,-114.958 L 80.7126,-114.498 L 80.2778,-114.09 L 79.7952,-113.739
 L 79.2724,-113.452 L 78.7178,-113.232 L 78.1401,-113.084 L 77.5482,-113.009 z
M 78.4369,-88.5886 L 79.0451,-88.7447 L 79.6289,-88.9759 L 80.1791,-89.2784 L 80.6871,-89.6474 L 81.1448,-90.0773
 L 81.5451,-90.5611 L 81.8815,-91.0912 L 82.1489,-91.6594 L 82.3429,-92.2566 L 82.4606,-92.8733 L 82.5,-93.5
 L 82.5,-98.5 L 82.4606,-99.1267 L 82.3429,-99.7434 L 82.1489,-100.341 L 81.8815,-100.909 L 81.5451,-101.439
 L 81.1448,-101.923 L 80.6871,-102.353 L 80.1791,-102.722 L 79.6289,-103.024 L 79.0451,-103.255 L 78.4369,-103.411
 L 77.8139,-103.49 L -77.8139,-103.49 L -78.4369,-103.411 L -79.0451,-103.255 L -79.6289,-103.024 L -80.1791,-102.722
 L -80.6871,-102.353 L -81.1448,-101.923 L -81.5451,-101.439 L -81.8815,-100.909 L -82.1489,-100.341 L -82.3429,-99.7434
 L -82.4606,-99.1267 L -82.5,-98.5 L -82.5,-93.5 L -82.4606,-92.8733 L -82.3429,-92.2566 L -82.1489,-91.6594
 L -81.8815,-91.0912 L -81.5451,-90.5611 L -81.1448,-90.0773 L -80.6871,-89.6474 L -80.1791,-89.2784 L -79.6289,-88.9759
 L -79.0451,-88.7447 L -78.4369,-88.5886 L -77.8139,-88.5099 L 77.8139,-88.5099 z
M -77.493,-89.8882 L -77.9751,-89.9491 L -78.4457,-90.0699 L -78.8975,-90.2488 L -79.3234,-90.4829 L -79.7165,-90.7685
 L -80.0707,-91.1012 L -80.3805,-91.4756 L -80.6408,-91.8859 L -80.8477,-92.3256 L -80.9979,-92.7877 L -81.089,-93.265
 L -81.1195,-93.75 L -81.1195,-98.25 L -81.089,-98.735 L -80.9979,-99.2123 L -80.8477,-99.6744 L -80.6408,-100.114
 L -80.3805,-100.524 L -80.0707,-100.899 L -79.7165,-101.231 L -79.3234,-101.517 L -78.8975,-101.751 L -78.4457,-101.93
 L -77.9751,-102.051 L -77.493,-102.112 L 77.493,-102.112 L 77.9751,-102.051 L 78.4457,-101.93 L 78.8975,-101.751
 L 79.3234,-101.517 L 79.7165,-101.231 L 80.0707,-100.899 L 80.3805,-100.524 L 80.6408,-100.114 L 80.8477,-99.6744
 L 80.9979,-99.2123 L 81.089,-98.735 L 81.1195,-98.25 L 81.1195,-93.75 L 81.089,-93.265 L 80.9979,-92.7877
 L 80.8477,-92.3256 L 80.6408,-91.8859 L 80.3805,-91.4756 L 80.0707,-91.1012 L 79.7165,-90.7685 L 79.3234,-90.4829
 L 78.8975,-90.2488 L 78.4457,-90.0699 L 77.9751,-89.9491 L 77.493,-89.8882 z
M 78.4369,-64.5886 L 79.0451,-64.7447 L 79.6289,-64.9759 L 80.1791,-65.2784 L 80.6871,-65.6474 L 81.1448,-66.0773
 L 81.5451,-66.5611 L 81.8815,-67.0912 L 82.1489,-67.6594 L 82.3429,-68.2566 L 82.4606,-68.8733 L 82.5,-69.5
 L 82.5,-74.5 L 82.4606,-75.1267 L 82.3429,-75.7434 L 82.1489,-76.3406 L 81.8815,-76.9088 L 81.5451,-77.4389
 L 81.1448,-77.9227 L 80.6871,-78.3526 L 80.1791,-78.7216 L 79.6289,-79.0241 L 79.0451,-79.2553 L 78.4369,-79.4114
 L 77.8139,-79.4901 L -77.8139,-79.4901 L -78.4369,-79.4114 L -79.0451,-79.2553 L -79.6289,-79.0241 L -80.1791,-78.7216
 L -80.6871,-78.3526 L -81.1448,-77.9227 L -81.5451,-77.4389 L -81.8815,-76.9088 L -82.1489,-76.3406 L -82.3429,-75.7434
 L -82.4606,-75.1267 L -82.5,-74.5 L -82.5,-69.5 L -82.4606,-68.8733 L -82.3429,-68.2566 L -82.1489,-67.6594
 L -81.8815,-67.0912 L -81.5451,-66.5611 L -81.1448,-66.0773 L -80.6871,-65.6474 L -80.1791,-65.2784 L -79.6289,-64.9759
 L -79.0451,-64.7447 L -78.4369,-64.5886 L -77.8139,-64.5099 L 77.8139,-64.5099 z
M -75.113,-70.2036 L -75.3373,-70.2319 L -75.5562,-70.2881 L -75.7664,-70.3713 L -75.9645,-70.4802 L -76.1474,-70.6131
 L -76.3121,-70.7678 L -76.4562,-70.942 L -76.5773,-71.1329 L -76.6736,-71.3374 L -76.7434,-71.5524 L -76.7858,-71.7744
 L -76.8,-72 L -76.7858,-72.2256 L -76.7434,-72.4476 L -76.6736,-72.6626 L -76.5773,-72.8671 L -76.4562,-73.058
 L -76.3121,-73.2322 L -76.1474,-73.3869 L -75.9645,-73.5198 L -75.7664,-73.6287 L -75.5562,-73.7119 L -75.3373,-73.7681
 L -75.113,-73.7964 L -74.887,-73.7964 L -74.6627,-73.7681 L -74.4438,-73.7119 L -74.2336,-73.6287 L -74.0355,-73.5198
 L -73.8526,-73.3869 L -73.6879,-73.2322 L -73.5438,-73.058 L -73.4226,-72.8671 L -73.3264,-72.6626 L -73.2565,-72.4476
 L -73.2142,-72.2256 L -73.2,-72 L -73.2142,-71.7744 L -73.2565,-71.5524 L -73.3264,-71.3374 L -73.4226,-71.1329
 L -73.5438,-70.942 L -73.6879,-70.7678 L -73.8526,-70.6131 L -74.0355,-70.4802 L -74.2336,-70.3713 L -74.4438,-70.2881
 L -74.6627,-70.2319 L -74.887,-70.2036 z
M 74.887,-70.2036 L 74.6627,-70.2319 L 74.4438,-70.2881 L 74.2336,-70.3713 L 74.0355,-70.4802 L 73.8526,-70.6131
 L 73.6879,-70.7678 L 73.5438,-70.942 L 73.4226,-71.1329 L 73.3264,-71.3374 L 73.2565,-71.5524 L 73.2142,-71.7744
 L 73.2,-72 L 73.2142,-72.2256 L 73.2565,-72.4476 L 73.3264,-72.6626 L 73.4226,-72.8671 L 73.5438,-73.058
 L 73.6879,-73.2322 L 73.8526,-73.3869 L 74.0355,-73.5198 L 74.2336,-73.6287 L 74.4438,-73.7119 L 74.6627,-73.7681
 L 74.887,-73.7964 L 75.113,-73.7964 L 75.3373,-73.7681 L 75.5562,-73.7119 L 75.7664,-73.6287 L 75.9645,-73.5198
 L 76.1474,-73.3869 L 76.3121,-73.2322 L 76.4562,-73.058 L 76.5773,-72.8671 L 76.6736,-72.6626 L 76.7434,-72.4476
 L 76.7858,-72.2256 L 76.8,-72 L 76.7858,-71.7744 L 76.7434,-71.5524 L 76.6736,-71.3374 L 76.5773,-71.1329
 L 76.4562,-70.942 L 76.3121,-70.7678 L 76.1474,-70.6131 L 75.9645,-70.4802 L 75.7664,-70.3713 L 75.5562,-70.2881
 L 75.3373,-70.2319 L 75.113,-70.2036 z
" stroke="black" fill="lightgray" stroke-width="0.5"/>
</svg>
