<?xml version="1.0" standalone="no"?>
<!DOCTYPE svg PUBLIC "-//W3C//DTD SVG 1.1//EN" "http://www.w3.org/Graphics/SVG/1.1/DTD/svg11.dtd">
<svg width="136mm" height="694mm" viewBox="-68 -1049 136 694" xmlns="http://www.w3.org/2000/svg" version="1.1">
<title>OpenSCAD Model</title>
<path d="
M 63.4369,-823.589 L 64.0451,-823.745 L 64.6289,-823.976 L 65.1791,-824.278 L 65.6871,-824.647 L 66.1448,-825.077
 L 66.5451,-825.561 L 66.8815,-826.091 L 67.1489,-826.659 L 67.3429,-827.257 L 67.4606,-827.873 L 67.5,-828.5
 L 67.5,-1043.5 L 67.4606,-1044.13 L 67.3429,-1044.74 L 67.1489,-1045.34 L 66.8815,-1045.91 L 66.5451,-1046.44
 L 66.1448,-1046.92 L 65.6871,-1047.35 L 65.1791,-1047.72 L 64.6289,-1048.02 L 64.0451,-1048.26 L 63.4369,-1048.41
 L 62.8139,-1048.49 L -62.8139,-1048.49 L -63.4369,-1048.41 L -64.0451,-1048.26 L -64.6289,-1048.02 L -65.1791,-1047.72
 L -65.6871,-1047.35 L -66.1448,-1046.92 L -66.5451,-1046.44 L -66.8815,-1045.91 L -67.1489,-1045.34 L -67.3429,-1044.74
 L -67.4606,-1044.13 L -67.5,-1043.5 L -67.5,-828.5 L -67.4606,-827.873 L -67.3429,-827.257 L -67.1489,-826.659
 L -66.8815,-826.091 L -66.5451,-825.561 L -66.1448,-825.077 L -65.6871,-824.647 L -65.1791,-824.278 L -64.6289,-823.976
 L -64.0451,-823.745 L -63.4369,-823.589 L -62.8139,-823.51 L 62.8139,-823.51 z
M -62.2432,-825.135 L -62.7256,-825.196 L -63.1967,-825.317 L -63.6489,-825.496 L -64.0751,-825.73 L -64.4685,-826.016
 L -64.823,-826.349 L -65.133,-826.724 L -65.3936,-827.134 L -65.6007,-827.574 L -65.751,-828.037 L -65.8421,-828.515
 L -65.8726,-829 L -65.8726,-1043 L -65.8421,-1043.49 L -65.751,-1043.96 L -65.6007,-1044.43 L -65.3936,-1044.87
 L -65.133,-1045.28 L -64.823,-1045.65 L -64.4685,-1045.98 L -64.0751,-1046.27 L -63.6489,-1046.5 L -63.1967,-1046.68
 L -62.7256,-1046.8 L -62.2432,-1046.86 L 62.2432,-1046.86 L 62.7256,-1046.8 L 63.1967,-1046.68 L 63.6489,-1046.5
 L 64.0751,-1046.27 L 64.4685,-1045.98 L 64.823,-1045.65 L 65.133,-1045.28 L 65.3936,-1044.87 L 65.6007,-1044.43
 L 65.751,-1043.96 L 65.8421,-1043.49 L 65.8726,-1043 L 65.8726,-829 L 65.8421,-828.515 L 65.751,-828.037
 L 65.6007,-827.574 L 65.3936,-827.134 L 65.133,-826.724 L 64.823,-826.349 L 64.4685,-826.016 L 64.0751,-825.73
 L 63.6489,-825.496 L 63.1967,-825.317 L 62.7256,-825.196 L 62.2432,-825.135 z
M 63.4369,-589.589 L 64.0451,-589.745 L 64.6289,-589.976 L 65.1791,-590.278 L 65.6871,-590.647 L 66.1448,-591.077
 L 66.5451,-591.561 L 66.8815,-592.091 L 67.1489,-592.659 L 67.3429,-593.257 L 67.4606,-593.873 L 67.5,-594.5
 L 67.5,-809.5 L 67.4606,-810.127 L 67.3429,-810.743 L 67.1489,-811.341 L 66.8815,-811.909 L 66.5451,-812.439
 L 66.1448,-812.923 L 65.6871,-813.353 L 65.1791,-813.722 L 64.6289,-814.024 L 64.0451,-814.255 L 63.4369,-814.411
 L 62.8139,-814.49 L -62.8139,-814.49 L -63.4369,-814.411 L -64.0451,-814.255 L -64.6289,-814.024 L -65.1791,-813.722
 L -65.6871,-813.353 L -66.1448,-812.923 L -66.5451,-812.439 L -66.8815,-811.909 L -67.1489,-811.341 L -67.3429,-810.743
 L -67.4606,-810.127 L -67.5,-809.5 L -67.5,-594.5 L -67.4606,-593.873 L -67.3429,-593.257 L -67.1489,-592.659
 L -66.8815,-592.091 L -66.5451,-591.561 L -66.1448,-591.077 L -65.6871,-590.647 L -65.1791,-590.278 L -64.6289,-589.976
 L -64.0451,-589.745 L -63.4369,-589.589 L -62.8139,-589.51 L 62.8139,-589.51 z
M 59.8493,-804.605 L 59.5503,-804.643 L 59.2584,-804.717 L 58.9781,-804.828 L 58.714,-804.974 L 58.4702,-805.151
 L 58.2505,-805.357 L 58.0583,-805.589 L 57.8969,-805.844 L 57.7685,-806.117 L 57.6754,-806.403 L 57.6189,-806.699
 L 57.6,-807 L 57.6189,-807.301 L 57.6754,-807.597 L 57.7685,-807.883 L 57.8969,-808.156 L 58.0583,-808.411
 L 58.2505,-808.643 L 58.4702,-808.849 L 58.714,-809.026 L 58.9781,-809.172 L 59.2584,-809.283 L 59.5503,-809.357
 L 59.8493,-809.395 L 60.1507,-809.395 L 60.4497,-809.357 L 60.7416,-809.283 L 61.0219,-809.172 L 61.286,-809.026
 L 61.5298,-808.849 L 61.7495,-808.643 L 61.9416,-808.411 L 62.1031,-808.156 L 62.2315,-807.883 L 62.3246,-807.597
 L 62.3811,-807.301 L 62.4,-807 L 62.3811,-806.699 L 62.3246,-806.403 L 62.2315,-806.117 L 62.1031,-805.844
 L 61.9416,-805.589 L 61.7495,-805.357 L 61.5298,-805.151 L 61.286,-804.974 L 61.0219,-804.828 L 60.7416,-804.717
 L 60.4497,-804.643 L 60.1507,-804.605 z
M -60.1507,-804.605 L -60.4497,-804.643 L -60.7416,-804.717 L -61.0219,-804.828 L -61.286,-804.974 L -61.5298,-805.151
 L -61.7495,-805.357 L -61.9416,-805.589 L -62.1031,-805.844 L -62.2315,-806.117 L -62.3246,-806.403 L -62.3811,-806.699
 L -62.4,-807 L -62.3811,-807.301 L -62.3246,-807.597 L -62.2315,-807.883 L -62.1031,-808.156 L -61.9416,-808.411
 L -61.7495,-808.643 L -61.5298,-808.849 L -61.286,-809.026 L -61.0219,-809.172 L -60.7416,-809.283 L -60.4497,-809.357
 L -60.1507,-809.395 L -59.8493,-809.395 L -59.5503,-809.357 L -59.2584,-809.283 L -58.9781,-809.172 L -58.714,-809.026
 L -58.4702,-808.849 L -58.2505,-808.643 L -58.0583,-808.411 L -57.8969,-808.156 L -57.7685,-807.883 L -57.6754,-807.597
 L -57.6189,-807.301 L -57.6,-807 L -57.6189,-806.699 L -57.6754,-806.403 L -57.7685,-806.117 L -57.8969,-805.844
 L -58.0583,-805.589 L -58.2505,-805.357 L -58.4702,-805.151 L -58.714,-804.974 L -58.9781,-804.828 L -59.2584,-804.717
 L -59.5503,-804.643 L -59.8493,-804.605 z
M 59.8493,-594.605 L 59.5503,-594.643 L 59.2584,-594.717 L 58.9781,-594.828 L 58.714,-594.974 L 58.4702,-595.151
 L 58.2505,-595.357 L 58.0583,-595.589 L 57.8969,-595.844 L 57.7685,-596.117 L 57.6754,-596.403 L 57.6189,-596.699
 L 57.6,-597 L 57.6189,-597.301 L 57.6754,-597.597 L 57.7685,-597.883 L 57.8969,-598.156 L 58.0583,-598.411
 L 58.2505,-598.643 L 58.4702,-598.849 L 58.714,-599.026 L 58.9781,-599.172 L 59.2584,-599.283 L 59.5503,-599.357
 L 59.8493,-599.395 L 60.1507,-599.395 L 60.4497,-599.357 L 60.7416,-599.283 L 61.0219,-599.172 L 61.286,-599.026
 L 61.5298,-598.849 L 61.7495,-598.643 L 61.9416,-598.411 L 62.1031,-598.156 L 62.2315,-597.883 L 62.3246,-597.597
 L 62.3811,-597.301 L 62.4,-597 L 62.3811,-596.699 L 62.3246,-596.403 L 62.2315,-596.117 L 62.1031,-595.844
 L 61.9416,-595.589 L 61.7495,-595.357 L 61.5298,-595.151 L 61.286,-594.974 L 61.0219,-594.828 L 60.7416,-594.717
 L 60.4497,-594.643 L 60.1507,-594.605 z
M -60.1507,-594.605 L -60.4497,-594.643 L -60.7416,-594.717 L -61.0219,-594.828 L -61.286,-594.974 L -61.5298,-595.151
 L -61.7495,-595.357 L -61.9416,-595.589 L -62.1031,-595.844 L -62.2315,-596.117 L -62.3246,-596.403 L -62.3811,-596.699
 L -62.4,-597 L -62.3811,-597.301 L -62.3246,-597.597 L -62.2315,-597.883 L -62.1031,-598.156 L -61.9416,-598.411
 L -61.7495,-598.643 L -61.5298,-598.849 L -61.286,-599.026 L -61.0219,-599.172 L -60.7416,-599.283 L -60.4497,-599.357
 L -60.1507,-599.395 L -59.8493,-599.395 L -59.5503,-599.357 L -59.2584,-599.283 L -58.9781,-599.172 L -58.714,-599.026
 L -58.4702,-598.849 L -58.2505,-598.643 L -58.0583,-598.411 L -57.8969,-598.156 L -57.7685,-597.883 L -57.6754,-597.597
 L -57.6189,-597.301 L -57.6,-597 L -57.6189,-596.699 L -57.6754,-596.403 L -57.7685,-596.117 L -57.8969,-595.844
 L -58.0583,-595.589 L -58.2505,-595.357 L -58.4702,-595.151 L -58.714,-594.974 L -58.9781,-594.828 L -59.2584,-594.717
 L -59.5503,-594.643 L -59.8493,-594.605 z
M 63.4369,-355.589 L 64.0451,-355.745 L 64.6289,-355.976 L 65.1791,-356.278 L 65.6871,-356.647 L 66.1448,-357.077
 L 66.5451,-357.561 L 66.8815,-358.091 L 67.1489,-358.659 L 67.3429,-359.257 L 67.4606,-359.873 L 67.5,-360.5
 L 67.5,-575.5 L 67.4606,-576.127 L 67.3429,-576.743 L 67.1489,-577.341 L 66.8815,-577.909 L 66.5451,-578.439
 L 66.1448,-578.923 L 65.6871,-579.353 L 65.1791,-579.722 L 64.6289,-580.024 L 64.0451,-580.255 L 63.4369,-580.411
 L 62.8139,-580.49 L -62.8139,-580.49 L -63.4369,-580.411 L -64.0451,-580.255 L -64.6289,-580.024 L -65.1791,-579.722
 L -65.6871,-579.353 L -66.1448,-578.923 L -66.5451,-578.439 L -66.8815,-577.909 L -67.1489,-577.341 L -67.3429,-576.743
 L -67.4606,-576.127 L -67.5,-575.5 L -67.5,-360.5 L -67.4606,-359.873 L -67.3429,-359.257 L -67.1489,-358.659
 L -66.8815,-358.091 L -66.5451,-357.561 L -66.1448,-357.077 L -65.6871,-356.647 L -65.1791,-356.278 L -64.6289,-355.976
 L -64.0451,-355.745 L -63.4369,-355.589 L -62.8139,-355.51 L 62.8139,-355.51 z
M 59.887,-571.204 L 59.6627,-571.232 L 59.4438,-571.288 L 59.2336,-571.371 L 59.0355,-571.48 L 58.8526,-571.613
 L 58.6879,-571.768 L 58.5438,-571.942 L 58.4226,-572.133 L 58.3264,-572.337 L 58.2565,-572.552 L 58.2142,-572.774
 L 58.2,-573 L 58.2142,-573.226 L 58.2565,-573.448 L 58.3264,-573.663 L 58.4226,-573.867 L 58.5438,-574.058
 L 58.6879,-574.232 L 58.8526,-574.387 L 59.0355,-574.52 L 59.2336,-574.629 L 59.4438,-574.712 L 59.6627,-574.768
 L 59.887,-574.796 L 60.113,-574.796 L 60.3373,-574.768 L 60.5562,-574.712 L 60.7664,-574.629 L 60.9645,-574.52
 L 61.1474,-574.387 L 61.3121,-574.232 L 61.4562,-574.058 L 61.5773,-573.867 L 61.6736,-573.663 L 61.7434,-573.448
 L 61.7858,-573.226 L 61.8,-573 L 61.7858,-572.774 L 61.7434,-572.552 L 61.6736,-572.337 L 61.5773,-572.133
 L 61.4562,-571.942 L 61.3121,-571.768 L 61.1474,-571.613 L 60.9645,-571.48 L 60.7664,-571.371 L 60.5562,-571.288
 L 60.3373,-571.232 L 60.113,-571.204 z
M -60.113,-571.204 L -60.3373,-571.232 L -60.5562,-571.288 L -60.7664,-571.371 L -60.9645,-571.48 L -61.1474,-571.613
 L -61.3121,-571.768 L -61.4562,-571.942 L -61.5773,-572.133 L -61.6736,-572.337 L -61.7434,-572.552 L -61.7858,-572.774
 L -61.8,-573 L -61.7858,-573.226 L -61.7434,-573.448 L -61.6736,-573.663 L -61.5773,-573.867 L -61.4562,-574.058
 L -61.3121,-574.232 L -61.1474,-574.387 L -60.9645,-574.52 L -60.7664,-574.629 L -60.5562,-574.712 L -60.3373,-574.768
 L -60.113,-574.796 L -59.887,-574.796 L -59.6627,-574.768 L -59.4438,-574.712 L -59.2336,-574.629 L -59.0355,-574.52
 L -58.8526,-574.387 L -58.6879,-574.232 L -58.5438,-574.058 L -58.4226,-573.867 L -58.3264,-573.663 L -58.2565,-573.448
 L -58.2142,-573.226 L -58.2,-573 L -58.2142,-572.774 L -58.2565,-572.552 L -58.3264,-572.337 L -58.4226,-572.133
 L -58.5438,-571.942 L -58.6879,-571.768 L -58.8526,-571.613 L -59.0355,-571.48 L -59.2336,-571.371 L -59.4438,-571.288
 L -59.6627,-571.232 L -59.887,-571.204 z
M -60.113,-361.204 L -60.3373,-361.232 L -60.5562,-361.288 L -60.7664,-361.371 L -60.9645,-361.48 L -61.1474,-361.613
 L -61.3121,-361.768 L -61.4562,-361.942 L -61.5773,-362.133 L -61.6736,-362.337 L -61.7434,-362.552 L -61.7858,-362.774
 L -61.8,-363 L -61.7858,-363.226 L -61.7434,-363.448 L -61.6736,-363.663 L -61.5773,-363.867 L -61.4562,-364.058
 L -61.3121,-364.232 L -61.1474,-364.387 L -60.9645,-364.52 L -60.7664,-364.629 L -60.5562,-364.712 L -60.3373,-364.768
 L -60.113,-364.796 L -59.887,-364.796 L -59.6627,-364.768 L -59.4438,-364.712 L -59.2336,-364.629 L -59.0355,-364.52
 L -58.8526,-364.387 L -58.6879,-364.232 L -58.5438,-364.058 L -58.4226,-363.867 L -58.3264,-363.663 L -58.2565,-363.448
 L -58.2142,-363.226 L -58.2,-363 L -58.2142,-362.774 L -58.2565,-362.552 L -58.3264,-362.337 L -58.4226,-362.133
 L -58.5438,-361.942 L -58.6879,-361.768 L -58.8526,-361.613 L -59.0355,-361.48 L -59.2336,-361.371 L -59.4438,-361.288
 L -59.6627,-361.232 L -59.887,-361.204 z
M 59.887,-361.204 L 59.6627,-361.232 L 59.4438,-361.288 L 59.2336,-361.371 L 59.0355,-361.48 L 58.8526,-361.613
 L 58.6879,-361.768 L 58.5438,-361.942 L 58.4226,-362.133 L 58.3264,-362.337 L 58.2565,-362.552 L 58.2142,-362.774
 L 58.2,-363 L 58.2142,-363.226 L 58.2565,-363.448 L 58.3264,-363.663 L 58.4226,-363.867 L 58.5438,-364.058
 L 58.6879,-364.232 L 58.8526,-364.387 L 59.0355,-364.52 L 59.2336,-364.629 L 59.4438,-364.712 L 59.6627,-364.768
 L 59.887,-364.796 L 60.113,-364.796 L 60.3373,-364.768 L 60.5562,-364.712 L 60.7664,-364.629 L 60.9645,-364.52
 L 61.1474,-364.387 L 61.3121,-364.232 L 61.4562,-364.058 L 61.5773,-363.867 L 61.6736,-363.663 L 61.7434,-363.448
 L 61.7858,-363.226 L 61.8,-363 L 61.7858,-362.774 L 61.7434,-362.552 L 61.6736,-362.337 L 61.5773,-362.133
 L 61.4562,-361.942 L 61.3121,-361.768 L 61.1474,-361.613 L 60.9645,-361.48 L 60.7664,-361.371 L 60.5562,-361.288
 L 60.3373,-361.232 L 60.113,-361.204 z
" stroke="black" fill="lightgray" stroke-width="0.5"/>
</svg>
