  0
SECTION
  2
BLOCKS
  0
ENDSEC
  0
SECTION
  2
ENTITIES
  0
LINE
  8
0
 10
63.4369
 20
823.589
 11
64.0451
 21
823.745
  0
LINE
  8
0
 10
64.0451
 20
823.745
 11
64.6289
 21
823.976
  0
LINE
  8
0
 10
64.6289
 20
823.976
 11
65.1791
 21
824.278
  0
LINE
  8
0
 10
65.1791
 20
824.278
 11
65.6871
 21
824.647
  0
LINE
  8
0
 10
65.6871
 20
824.647
 11
66.1448
 21
825.077
  0
LINE
  8
0
 10
66.1448
 20
825.077
 11
66.5451
 21
825.561
  0
LINE
  8
0
 10
66.5451
 20
825.561
 11
66.8815
 21
826.091
  0
LINE
  8
0
 10
66.8815
 20
826.091
 11
67.1489
 21
826.659
  0
LINE
  8
0
 10
67.1489
 20
826.659
 11
67.3429
 21
827.257
  0
LINE
  8
0
 10
67.3429
 20
827.257
 11
67.4606
 21
827.873
  0
LINE
  8
0
 10
67.4606
 20
827.873
 11
67.5
 21
828.5
  0
LINE
  8
0
 10
67.5
 20
828.5
 11
67.5
 21
1043.5
  0
LINE
  8
0
 10
67.5
 20
1043.5
 11
67.4606
 21
1044.13
  0
LINE
  8
0
 10
67.4606
 20
1044.13
 11
67.3429
 21
1044.74
  0
LINE
  8
0
 10
67.3429
 20
1044.74
 11
67.1489
 21
1045.34
  0
LINE
  8
0
 10
67.1489
 20
1045.34
 11
66.8815
 21
1045.91
  0
LINE
  8
0
 10
66.8815
 20
1045.91
 11
66.5451
 21
1046.44
  0
LINE
  8
0
 10
66.5451
 20
1046.44
 11
66.1448
 21
1046.92
  0
LINE
  8
0
 10
66.1448
 20
1046.92
 11
65.6871
 21
1047.35
  0
LINE
  8
0
 10
65.6871
 20
1047.35
 11
65.1791
 21
1047.72
  0
LINE
  8
0
 10
65.1791
 20
1047.72
 11
64.6289
 21
1048.02
  0
LINE
  8
0
 10
64.6289
 20
1048.02
 11
64.0451
 21
1048.26
  0
LINE
  8
0
 10
64.0451
 20
1048.26
 11
63.4369
 21
1048.41
  0
LINE
  8
0
 10
63.4369
 20
1048.41
 11
62.8139
 21
1048.49
  0
LINE
  8
0
 10
62.8139
 20
1048.49
 11
-62.8139
 21
1048.49
  0
LINE
  8
0
 10
-62.8139
 20
1048.49
 11
-63.4369
 21
1048.41
  0
LINE
  8
0
 10
-63.4369
 20
1048.41
 11
-64.0451
 21
1048.26
  0
LINE
  8
0
 10
-64.0451
 20
1048.26
 11
-64.6289
 21
1048.02
  0
LINE
  8
0
 10
-64.6289
 20
1048.02
 11
-65.1791
 21
1047.72
  0
LINE
  8
0
 10
-65.1791
 20
1047.72
 11
-65.6871
 21
1047.35
  0
LINE
  8
0
 10
-65.6871
 20
1047.35
 11
-66.1448
 21
1046.92
  0
LINE
  8
0
 10
-66.1448
 20
1046.92
 11
-66.5451
 21
1046.44
  0
LINE
  8
0
 10
-66.5451
 20
1046.44
 11
-66.8815
 21
1045.91
  0
LINE
  8
0
 10
-66.8815
 20
1045.91
 11
-67.1489
 21
1045.34
  0
LINE
  8
0
 10
-67.1489
 20
1045.34
 11
-67.3429
 21
1044.74
  0
LINE
  8
0
 10
-67.3429
 20
1044.74
 11
-67.4606
 21
1044.13
  0
LINE
  8
0
 10
-67.4606
 20
1044.13
 11
-67.5
 21
1043.5
  0
LINE
  8
0
 10
-67.5
 20
1043.5
 11
-67.5
 21
828.5
  0
LINE
  8
0
 10
-67.5
 20
828.5
 11
-67.4606
 21
827.873
  0
LINE
  8
0
 10
-67.4606
 20
827.873
 11
-67.3429
 21
827.257
  0
LINE
  8
0
 10
-67.3429
 20
827.257
 11
-67.1489
 21
826.659
  0
LINE
  8
0
 10
-67.1489
 20
826.659
 11
-66.8815
 21
826.091
  0
LINE
  8
0
 10
-66.8815
 20
826.091
 11
-66.5451
 21
825.561
  0
LINE
  8
0
 10
-66.5451
 20
825.561
 11
-66.1448
 21
825.077
  0
LINE
  8
0
 10
-66.1448
 20
825.077
 11
-65.6871
 21
824.647
  0
LINE
  8
0
 10
-65.6871
 20
824.647
 11
-65.1791
 21
824.278
  0
LINE
  8
0
 10
-65.1791
 20
824.278
 11
-64.6289
 21
823.976
  0
LINE
  8
0
 10
-64.6289
 20
823.976
 11
-64.0451
 21
823.745
  0
LINE
  8
0
 10
-64.0451
 20
823.745
 11
-63.4369
 21
823.589
  0
LINE
  8
0
 10
-63.4369
 20
823.589
 11
-62.8139
 21
823.51
  0
LINE
  8
0
 10
-62.8139
 20
823.51
 11
62.8139
 21
823.51
  0
LINE
  8
0
 10
62.8139
 20
823.51
 11
63.4369
 21
823.589
  0
LINE
  8
0
 10
-62.2432
 20
825.135
 11
-62.7256
 21
825.196
  0
LINE
  8
0
 10
-62.7256
 20
825.196
 11
-63.1967
 21
825.317
  0
LINE
  8
0
 10
-63.1967
 20
825.317
 11
-63.6489
 21
825.496
  0
LINE
  8
0
 10
-63.6489
 20
825.496
 11
-64.0751
 21
825.73
  0
LINE
  8
0
 10
-64.0751
 20
825.73
 11
-64.4685
 21
826.016
  0
LINE
  8
0
 10
-64.4685
 20
826.016
 11
-64.823
 21
826.349
  0
LINE
  8
0
 10
-64.823
 20
826.349
 11
-65.133
 21
826.724
  0
LINE
  8
0
 10
-65.133
 20
826.724
 11
-65.3936
 21
827.134
  0
LINE
  8
0
 10
-65.3936
 20
827.134
 11
-65.6007
 21
827.574
  0
LINE
  8
0
 10
-65.6007
 20
827.574
 11
-65.751
 21
828.037
  0
LINE
  8
0
 10
-65.751
 20
828.037
 11
-65.8421
 21
828.515
  0
LINE
  8
0
 10
-65.8421
 20
828.515
 11
-65.8726
 21
829
  0
LINE
  8
0
 10
-65.8726
 20
829
 11
-65.8726
 21
1043
  0
LINE
  8
0
 10
-65.8726
 20
1043
 11
-65.8421
 21
1043.49
  0
LINE
  8
0
 10
-65.8421
 20
1043.49
 11
-65.751
 21
1043.96
  0
LINE
  8
0
 10
-65.751
 20
1043.96
 11
-65.6007
 21
1044.43
  0
LINE
  8
0
 10
-65.6007
 20
1044.43
 11
-65.3936
 21
1044.87
  0
LINE
  8
0
 10
-65.3936
 20
1044.87
 11
-65.133
 21
1045.28
  0
LINE
  8
0
 10
-65.133
 20
1045.28
 11
-64.823
 21
1045.65
  0
LINE
  8
0
 10
-64.823
 20
1045.65
 11
-64.4685
 21
1045.98
  0
LINE
  8
0
 10
-64.4685
 20
1045.98
 11
-64.0751
 21
1046.27
  0
LINE
  8
0
 10
-64.0751
 20
1046.27
 11
-63.6489
 21
1046.5
  0
LINE
  8
0
 10
-63.6489
 20
1046.5
 11
-63.1967
 21
1046.68
  0
LINE
  8
0
 10
-63.1967
 20
1046.68
 11
-62.7256
 21
1046.8
  0
LINE
  8
0
 10
-62.7256
 20
1046.8
 11
-62.2432
 21
1046.86
  0
LINE
  8
0
 10
-62.2432
 20
1046.86
 11
62.2432
 21
1046.86
  0
LINE
  8
0
 10
62.2432
 20
1046.86
 11
62.7256
 21
1046.8
  0
LINE
  8
0
 10
62.7256
 20
1046.8
 11
63.1967
 21
1046.68
  0
LINE
  8
0
 10
63.1967
 20
1046.68
 11
63.6489
 21
1046.5
  0
LINE
  8
0
 10
63.6489
 20
1046.5
 11
64.0751
 21
1046.27
  0
LINE
  8
0
 10
64.0751
 20
1046.27
 11
64.4685
 21
1045.98
  0
LINE
  8
0
 10
64.4685
 20
1045.98
 11
64.823
 21
1045.65
  0
LINE
  8
0
 10
64.823
 20
1045.65
 11
65.133
 21
1045.28
  0
LINE
  8
0
 10
65.133
 20
1045.28
 11
65.3936
 21
1044.87
  0
LINE
  8
0
 10
65.3936
 20
1044.87
 11
65.6007
 21
1044.43
  0
LINE
  8
0
 10
65.6007
 20
1044.43
 11
65.751
 21
1043.96
  0
LINE
  8
0
 10
65.751
 20
1043.96
 11
65.8421
 21
1043.49
  0
LINE
  8
0
 10
65.8421
 20
1043.49
 11
65.8726
 21
1043
  0
LINE
  8
0
 10
65.8726
 20
1043
 11
65.8726
 21
829
  0
LINE
  8
0
 10
65.8726
 20
829
 11
65.8421
 21
828.515
  0
LINE
  8
0
 10
65.8421
 20
828.515
 11
65.751
 21
828.037
  0
LINE
  8
0
 10
65.751
 20
828.037
 11
65.6007
 21
827.574
  0
LINE
  8
0
 10
65.6007
 20
827.574
 11
65.3936
 21
827.134
  0
LINE
  8
0
 10
65.3936
 20
827.134
 11
65.133
 21
826.724
  0
LINE
  8
0
 10
65.133
 20
826.724
 11
64.823
 21
826.349
  0
LINE
  8
0
 10
64.823
 20
826.349
 11
64.4685
 21
826.016
  0
LINE
  8
0
 10
64.4685
 20
826.016
 11
64.0751
 21
825.73
  0
LINE
  8
0
 10
64.0751
 20
825.73
 11
63.6489
 21
825.496
  0
LINE
  8
0
 10
63.6489
 20
825.496
 11
63.1967
 21
825.317
  0
LINE
  8
0
 10
63.1967
 20
825.317
 11
62.7256
 21
825.196
  0
LINE
  8
0
 10
62.7256
 20
825.196
 11
62.2432
 21
825.135
  0
LINE
  8
0
 10
62.2432
 20
825.135
 11
-62.2432
 21
825.135
  0
LINE
  8
0
 10
63.4369
 20
589.589
 11
64.0451
 21
589.745
  0
LINE
  8
0
 10
64.0451
 20
589.745
 11
64.6289
 21
589.976
  0
LINE
  8
0
 10
64.6289
 20
589.976
 11
65.1791
 21
590.278
  0
LINE
  8
0
 10
65.1791
 20
590.278
 11
65.6871
 21
590.647
  0
LINE
  8
0
 10
65.6871
 20
590.647
 11
66.1448
 21
591.077
  0
LINE
  8
0
 10
66.1448
 20
591.077
 11
66.5451
 21
591.561
  0
LINE
  8
0
 10
66.5451
 20
591.561
 11
66.8815
 21
592.091
  0
LINE
  8
0
 10
66.8815
 20
592.091
 11
67.1489
 21
592.659
  0
LINE
  8
0
 10
67.1489
 20
592.659
 11
67.3429
 21
593.257
  0
LINE
  8
0
 10
67.3429
 20
593.257
 11
67.4606
 21
593.873
  0
LINE
  8
0
 10
67.4606
 20
593.873
 11
67.5
 21
594.5
  0
LINE
  8
0
 10
67.5
 20
594.5
 11
67.5
 21
809.5
  0
LINE
  8
0
 10
67.5
 20
809.5
 11
67.4606
 21
810.127
  0
LINE
  8
0
 10
67.4606
 20
810.127
 11
67.3429
 21
810.743
  0
LINE
  8
0
 10
67.3429
 20
810.743
 11
67.1489
 21
811.341
  0
LINE
  8
0
 10
67.1489
 20
811.341
 11
66.8815
 21
811.909
  0
LINE
  8
0
 10
66.8815
 20
811.909
 11
66.5451
 21
812.439
  0
LINE
  8
0
 10
66.5451
 20
812.439
 11
66.1448
 21
812.923
  0
LINE
  8
0
 10
66.1448
 20
812.923
 11
65.6871
 21
813.353
  0
LINE
  8
0
 10
65.6871
 20
813.353
 11
65.1791
 21
813.722
  0
LINE
  8
0
 10
65.1791
 20
813.722
 11
64.6289
 21
814.024
  0
LINE
  8
0
 10
64.6289
 20
814.024
 11
64.0451
 21
814.255
  0
LINE
  8
0
 10
64.0451
 20
814.255
 11
63.4369
 21
814.411
  0
LINE
  8
0
 10
63.4369
 20
814.411
 11
62.8139
 21
814.49
  0
LINE
  8
0
 10
62.8139
 20
814.49
 11
-62.8139
 21
814.49
  0
LINE
  8
0
 10
-62.8139
 20
814.49
 11
-63.4369
 21
814.411
  0
LINE
  8
0
 10
-63.4369
 20
814.411
 11
-64.0451
 21
814.255
  0
LINE
  8
0
 10
-64.0451
 20
814.255
 11
-64.6289
 21
814.024
  0
LINE
  8
0
 10
-64.6289
 20
814.024
 11
-65.1791
 21
813.722
  0
LINE
  8
0
 10
-65.1791
 20
813.722
 11
-65.6871
 21
813.353
  0
LINE
  8
0
 10
-65.6871
 20
813.353
 11
-66.1448
 21
812.923
  0
LINE
  8
0
 10
-66.1448
 20
812.923
 11
-66.5451
 21
812.439
  0
LINE
  8
0
 10
-66.5451
 20
812.439
 11
-66.8815
 21
811.909
  0
LINE
  8
0
 10
-66.8815
 20
811.909
 11
-67.1489
 21
811.341
  0
LINE
  8
0
 10
-67.1489
 20
811.341
 11
-67.3429
 21
810.743
  0
LINE
  8
0
 10
-67.3429
 20
810.743
 11
-67.4606
 21
810.127
  0
LINE
  8
0
 10
-67.4606
 20
810.127
 11
-67.5
 21
809.5
  0
LINE
  8
0
 10
-67.5
 20
809.5
 11
-67.5
 21
594.5
  0
LINE
  8
0
 10
-67.5
 20
594.5
 11
-67.4606
 21
593.873
  0
LINE
  8
0
 10
-67.4606
 20
593.873
 11
-67.3429
 21
593.257
  0
LINE
  8
0
 10
-67.3429
 20
593.257
 11
-67.1489
 21
592.659
  0
LINE
  8
0
 10
-67.1489
 20
592.659
 11
-66.8815
 21
592.091
  0
LINE
  8
0
 10
-66.8815
 20
592.091
 11
-66.5451
 21
591.561
  0
LINE
  8
0
 10
-66.5451
 20
591.561
 11
-66.1448
 21
591.077
  0
LINE
  8
0
 10
-66.1448
 20
591.077
 11
-65.6871
 21
590.647
  0
LINE
  8
0
 10
-65.6871
 20
590.647
 11
-65.1791
 21
590.278
  0
LINE
  8
0
 10
-65.1791
 20
590.278
 11
-64.6289
 21
589.976
  0
LINE
  8
0
 10
-64.6289
 20
589.976
 11
-64.0451
 21
589.745
  0
LINE
  8
0
 10
-64.0451
 20
589.745
 11
-63.4369
 21
589.589
  0
LINE
  8
0
 10
-63.4369
 20
589.589
 11
-62.8139
 21
589.51
  0
LINE
  8
0
 10
-62.8139
 20
589.51
 11
62.8139
 21
589.51
  0
LINE
  8
0
 10
62.8139
 20
589.51
 11
63.4369
 21
589.589
  0
LINE
  8
0
 10
59.8493
 20
804.605
 11
59.5503
 21
804.643
  0
LINE
  8
0
 10
59.5503
 20
804.643
 11
59.2584
 21
804.717
  0
LINE
  8
0
 10
59.2584
 20
804.717
 11
58.9781
 21
804.828
  0
LINE
  8
0
 10
58.9781
 20
804.828
 11
58.714
 21
804.974
  0
LINE
  8
0
 10
58.714
 20
804.974
 11
58.4702
 21
805.151
  0
LINE
  8
0
 10
58.4702
 20
805.151
 11
58.2505
 21
805.357
  0
LINE
  8
0
 10
58.2505
 20
805.357
 11
58.0583
 21
805.589
  0
LINE
  8
0
 10
58.0583
 20
805.589
 11
57.8969
 21
805.844
  0
LINE
  8
0
 10
57.8969
 20
805.844
 11
57.7685
 21
806.117
  0
LINE
  8
0
 10
57.7685
 20
806.117
 11
57.6754
 21
806.403
  0
LINE
  8
0
 10
57.6754
 20
806.403
 11
57.6189
 21
806.699
  0
LINE
  8
0
 10
57.6189
 20
806.699
 11
57.6
 21
807
  0
LINE
  8
0
 10
57.6
 20
807
 11
57.6189
 21
807.301
  0
LINE
  8
0
 10
57.6189
 20
807.301
 11
57.6754
 21
807.597
  0
LINE
  8
0
 10
57.6754
 20
807.597
 11
57.7685
 21
807.883
  0
LINE
  8
0
 10
57.7685
 20
807.883
 11
57.8969
 21
808.156
  0
LINE
  8
0
 10
57.8969
 20
808.156
 11
58.0583
 21
808.411
  0
LINE
  8
0
 10
58.0583
 20
808.411
 11
58.2505
 21
808.643
  0
LINE
  8
0
 10
58.2505
 20
808.643
 11
58.4702
 21
808.849
  0
LINE
  8
0
 10
58.4702
 20
808.849
 11
58.714
 21
809.026
  0
LINE
  8
0
 10
58.714
 20
809.026
 11
58.9781
 21
809.172
  0
LINE
  8
0
 10
58.9781
 20
809.172
 11
59.2584
 21
809.283
  0
LINE
  8
0
 10
59.2584
 20
809.283
 11
59.5503
 21
809.357
  0
LINE
  8
0
 10
59.5503
 20
809.357
 11
59.8493
 21
809.395
  0
LINE
  8
0
 10
59.8493
 20
809.395
 11
60.1507
 21
809.395
  0
LINE
  8
0
 10
60.1507
 20
809.395
 11
60.4497
 21
809.357
  0
LINE
  8
0
 10
60.4497
 20
809.357
 11
60.7416
 21
809.283
  0
LINE
  8
0
 10
60.7416
 20
809.283
 11
61.0219
 21
809.172
  0
LINE
  8
0
 10
61.0219
 20
809.172
 11
61.286
 21
809.026
  0
LINE
  8
0
 10
61.286
 20
809.026
 11
61.5298
 21
808.849
  0
LINE
  8
0
 10
61.5298
 20
808.849
 11
61.7495
 21
808.643
  0
LINE
  8
0
 10
61.7495
 20
808.643
 11
61.9416
 21
808.411
  0
LINE
  8
0
 10
61.9416
 20
808.411
 11
62.1031
 21
808.156
  0
LINE
  8
0
 10
62.1031
 20
808.156
 11
62.2315
 21
807.883
  0
LINE
  8
0
 10
62.2315
 20
807.883
 11
62.3246
 21
807.597
  0
LINE
  8
0
 10
62.3246
 20
807.597
 11
62.3811
 21
807.301
  0
LINE
  8
0
 10
62.3811
 20
807.301
 11
62.4
 21
807
  0
LINE
  8
0
 10
62.4
 20
807
 11
62.3811
 21
806.699
  0
LINE
  8
0
 10
62.3811
 20
806.699
 11
62.3246
 21
806.403
  0
LINE
  8
0
 10
62.3246
 20
806.403
 11
62.2315
 21
806.117
  0
LINE
  8
0
 10
62.2315
 20
806.117
 11
62.1031
 21
805.844
  0
LINE
  8
0
 10
62.1031
 20
805.844
 11
61.9416
 21
805.589
  0
LINE
  8
0
 10
61.9416
 20
805.589
 11
61.7495
 21
805.357
  0
LINE
  8
0
 10
61.7495
 20
805.357
 11
61.5298
 21
805.151
  0
LINE
  8
0
 10
61.5298
 20
805.151
 11
61.286
 21
804.974
  0
LINE
  8
0
 10
61.286
 20
804.974
 11
61.0219
 21
804.828
  0
LINE
  8
0
 10
61.0219
 20
804.828
 11
60.7416
 21
804.717
  0
LINE
  8
0
 10
60.7416
 20
804.717
 11
60.4497
 21
804.643
  0
LINE
  8
0
 10
60.4497
 20
804.643
 11
60.1507
 21
804.605
  0
LINE
  8
0
 10
60.1507
 20
804.605
 11
59.8493
 21
804.605
  0
LINE
  8
0
 10
-60.1507
 20
804.605
 11
-60.4497
 21
804.643
  0
LINE
  8
0
 10
-60.4497
 20
804.643
 11
-60.7416
 21
804.717
  0
LINE
  8
0
 10
-60.7416
 20
804.717
 11
-61.0219
 21
804.828
  0
LINE
  8
0
 10
-61.0219
 20
804.828
 11
-61.286
 21
804.974
  0
LINE
  8
0
 10
-61.286
 20
804.974
 11
-61.5298
 21
805.151
  0
LINE
  8
0
 10
-61.5298
 20
805.151
 11
-61.7495
 21
805.357
  0
LINE
  8
0
 10
-61.7495
 20
805.357
 11
-61.9416
 21
805.589
  0
LINE
  8
0
 10
-61.9416
 20
805.589
 11
-62.1031
 21
805.844
  0
LINE
  8
0
 10
-62.1031
 20
805.844
 11
-62.2315
 21
806.117
  0
LINE
  8
0
 10
-62.2315
 20
806.117
 11
-62.3246
 21
806.403
  0
LINE
  8
0
 10
-62.3246
 20
806.403
 11
-62.3811
 21
806.699
  0
LINE
  8
0
 10
-62.3811
 20
806.699
 11
-62.4
 21
807
  0
LINE
  8
0
 10
-62.4
 20
807
 11
-62.3811
 21
807.301
  0
LINE
  8
0
 10
-62.3811
 20
807.301
 11
-62.3246
 21
807.597
  0
LINE
  8
0
 10
-62.3246
 20
807.597
 11
-62.2315
 21
807.883
  0
LINE
  8
0
 10
-62.2315
 20
807.883
 11
-62.1031
 21
808.156
  0
LINE
  8
0
 10
-62.1031
 20
808.156
 11
-61.9416
 21
808.411
  0
LINE
  8
0
 10
-61.9416
 20
808.411
 11
-61.7495
 21
808.643
  0
LINE
  8
0
 10
-61.7495
 20
808.643
 11
-61.5298
 21
808.849
  0
LINE
  8
0
 10
-61.5298
 20
808.849
 11
-61.286
 21
809.026
  0
LINE
  8
0
 10
-61.286
 20
809.026
 11
-61.0219
 21
809.172
  0
LINE
  8
0
 10
-61.0219
 20
809.172
 11
-60.7416
 21
809.283
  0
LINE
  8
0
 10
-60.7416
 20
809.283
 11
-60.4497
 21
809.357
  0
LINE
  8
0
 10
-60.4497
 20
809.357
 11
-60.1507
 21
809.395
  0
LINE
  8
0
 10
-60.1507
 20
809.395
 11
-59.8493
 21
809.395
  0
LINE
  8
0
 10
-59.8493
 20
809.395
 11
-59.5503
 21
809.357
  0
LINE
  8
0
 10
-59.5503
 20
809.357
 11
-59.2584
 21
809.283
  0
LINE
  8
0
 10
-59.2584
 20
809.283
 11
-58.9781
 21
809.172
  0
LINE
  8
0
 10
-58.9781
 20
809.172
 11
-58.714
 21
809.026
  0
LINE
  8
0
 10
-58.714
 20
809.026
 11
-58.4702
 21
808.849
  0
LINE
  8
0
 10
-58.4702
 20
808.849
 11
-58.2505
 21
808.643
  0
LINE
  8
0
 10
-58.2505
 20
808.643
 11
-58.0583
 21
808.411
  0
LINE
  8
0
 10
-58.0583
 20
808.411
 11
-57.8969
 21
808.156
  0
LINE
  8
0
 10
-57.8969
 20
808.156
 11
-57.7685
 21
807.883
  0
LINE
  8
0
 10
-57.7685
 20
807.883
 11
-57.6754
 21
807.597
  0
LINE
  8
0
 10
-57.6754
 20
807.597
 11
-57.6189
 21
807.301
  0
LINE
  8
0
 10
-57.6189
 20
807.301
 11
-57.6
 21
807
  0
LINE
  8
0
 10
-57.6
 20
807
 11
-57.6189
 21
806.699
  0
LINE
  8
0
 10
-57.6189
 20
806.699
 11
-57.6754
 21
806.403
  0
LINE
  8
0
 10
-57.6754
 20
806.403
 11
-57.7685
 21
806.117
  0
LINE
  8
0
 10
-57.7685
 20
806.117
 11
-57.8969
 21
805.844
  0
LINE
  8
0
 10
-57.8969
 20
805.844
 11
-58.0583
 21
805.589
  0
LINE
  8
0
 10
-58.0583
 20
805.589
 11
-58.2505
 21
805.357
  0
LINE
  8
0
 10
-58.2505
 20
805.357
 11
-58.4702
 21
805.151
  0
LINE
  8
0
 10
-58.4702
 20
805.151
 11
-58.714
 21
804.974
  0
LINE
  8
0
 10
-58.714
 20
804.974
 11
-58.9781
 21
804.828
  0
LINE
  8
0
 10
-58.9781
 20
804.828
 11
-59.2584
 21
804.717
  0
LINE
  8
0
 10
-59.2584
 20
804.717
 11
-59.5503
 21
804.643
  0
LINE
  8
0
 10
-59.5503
 20
804.643
 11
-59.8493
 21
804.605
  0
LINE
  8
0
 10
-59.8493
 20
804.605
 11
-60.1507
 21
804.605
  0
LINE
  8
0
 10
59.8493
 20
594.605
 11
59.5503
 21
594.643
  0
LINE
  8
0
 10
59.5503
 20
594.643
 11
59.2584
 21
594.717
  0
LINE
  8
0
 10
59.2584
 20
594.717
 11
58.9781
 21
594.828
  0
LINE
  8
0
 10
58.9781
 20
594.828
 11
58.714
 21
594.974
  0
LINE
  8
0
 10
58.714
 20
594.974
 11
58.4702
 21
595.151
  0
LINE
  8
0
 10
58.4702
 20
595.151
 11
58.2505
 21
595.357
  0
LINE
  8
0
 10
58.2505
 20
595.357
 11
58.0583
 21
595.589
  0
LINE
  8
0
 10
58.0583
 20
595.589
 11
57.8969
 21
595.844
  0
LINE
  8
0
 10
57.8969
 20
595.844
 11
57.7685
 21
596.117
  0
LINE
  8
0
 10
57.7685
 20
596.117
 11
57.6754
 21
596.403
  0
LINE
  8
0
 10
57.6754
 20
596.403
 11
57.6189
 21
596.699
  0
LINE
  8
0
 10
57.6189
 20
596.699
 11
57.6
 21
597
  0
LINE
  8
0
 10
57.6
 20
597
 11
57.6189
 21
597.301
  0
LINE
  8
0
 10
57.6189
 20
597.301
 11
57.6754
 21
597.597
  0
LINE
  8
0
 10
57.6754
 20
597.597
 11
57.7685
 21
597.883
  0
LINE
  8
0
 10
57.7685
 20
597.883
 11
57.8969
 21
598.156
  0
LINE
  8
0
 10
57.8969
 20
598.156
 11
58.0583
 21
598.411
  0
LINE
  8
0
 10
58.0583
 20
598.411
 11
58.2505
 21
598.643
  0
LINE
  8
0
 10
58.2505
 20
598.643
 11
58.4702
 21
598.849
  0
LINE
  8
0
 10
58.4702
 20
598.849
 11
58.714
 21
599.026
  0
LINE
  8
0
 10
58.714
 20
599.026
 11
58.9781
 21
599.172
  0
LINE
  8
0
 10
58.9781
 20
599.172
 11
59.2584
 21
599.283
  0
LINE
  8
0
 10
59.2584
 20
599.283
 11
59.5503
 21
599.357
  0
LINE
  8
0
 10
59.5503
 20
599.357
 11
59.8493
 21
599.395
  0
LINE
  8
0
 10
59.8493
 20
599.395
 11
60.1507
 21
599.395
  0
LINE
  8
0
 10
60.1507
 20
599.395
 11
60.4497
 21
599.357
  0
LINE
  8
0
 10
60.4497
 20
599.357
 11
60.7416
 21
599.283
  0
LINE
  8
0
 10
60.7416
 20
599.283
 11
61.0219
 21
599.172
  0
LINE
  8
0
 10
61.0219
 20
599.172
 11
61.286
 21
599.026
  0
LINE
  8
0
 10
61.286
 20
599.026
 11
61.5298
 21
598.849
  0
LINE
  8
0
 10
61.5298
 20
598.849
 11
61.7495
 21
598.643
  0
LINE
  8
0
 10
61.7495
 20
598.643
 11
61.9416
 21
598.411
  0
LINE
  8
0
 10
61.9416
 20
598.411
 11
62.1031
 21
598.156
  0
LINE
  8
0
 10
62.1031
 20
598.156
 11
62.2315
 21
597.883
  0
LINE
  8
0
 10
62.2315
 20
597.883
 11
62.3246
 21
597.597
  0
LINE
  8
0
 10
62.3246
 20
597.597
 11
62.3811
 21
597.301
  0
LINE
  8
0
 10
62.3811
 20
597.301
 11
62.4
 21
597
  0
LINE
  8
0
 10
62.4
 20
597
 11
62.3811
 21
596.699
  0
LINE
  8
0
 10
62.3811
 20
596.699
 11
62.3246
 21
596.403
  0
LINE
  8
0
 10
62.3246
 20
596.403
 11
62.2315
 21
596.117
  0
LINE
  8
0
 10
62.2315
 20
596.117
 11
62.1031
 21
595.844
  0
LINE
  8
0
 10
62.1031
 20
595.844
 11
61.9416
 21
595.589
  0
LINE
  8
0
 10
61.9416
 20
595.589
 11
61.7495
 21
595.357
  0
LINE
  8
0
 10
61.7495
 20
595.357
 11
61.5298
 21
595.151
  0
LINE
  8
0
 10
61.5298
 20
595.151
 11
61.286
 21
594.974
  0
LINE
  8
0
 10
61.286
 20
594.974
 11
61.0219
 21
594.828
  0
LINE
  8
0
 10
61.0219
 20
594.828
 11
60.7416
 21
594.717
  0
LINE
  8
0
 10
60.7416
 20
594.717
 11
60.4497
 21
594.643
  0
LINE
  8
0
 10
60.4497
 20
594.643
 11
60.1507
 21
594.605
  0
LINE
  8
0
 10
60.1507
 20
594.605
 11
59.8493
 21
594.605
  0
LINE
  8
0
 10
-60.1507
 20
594.605
 11
-60.4497
 21
594.643
  0
LINE
  8
0
 10
-60.4497
 20
594.643
 11
-60.7416
 21
594.717
  0
LINE
  8
0
 10
-60.7416
 20
594.717
 11
-61.0219
 21
594.828
  0
LINE
  8
0
 10
-61.0219
 20
594.828
 11
-61.286
 21
594.974
  0
LINE
  8
0
 10
-61.286
 20
594.974
 11
-61.5298
 21
595.151
  0
LINE
  8
0
 10
-61.5298
 20
595.151
 11
-61.7495
 21
595.357
  0
LINE
  8
0
 10
-61.7495
 20
595.357
 11
-61.9416
 21
595.589
  0
LINE
  8
0
 10
-61.9416
 20
595.589
 11
-62.1031
 21
595.844
  0
LINE
  8
0
 10
-62.1031
 20
595.844
 11
-62.2315
 21
596.117
  0
LINE
  8
0
 10
-62.2315
 20
596.117
 11
-62.3246
 21
596.403
  0
LINE
  8
0
 10
-62.3246
 20
596.403
 11
-62.3811
 21
596.699
  0
LINE
  8
0
 10
-62.3811
 20
596.699
 11
-62.4
 21
597
  0
LINE
  8
0
 10
-62.4
 20
597
 11
-62.3811
 21
597.301
  0
LINE
  8
0
 10
-62.3811
 20
597.301
 11
-62.3246
 21
597.597
  0
LINE
  8
0
 10
-62.3246
 20
597.597
 11
-62.2315
 21
597.883
  0
LINE
  8
0
 10
-62.2315
 20
597.883
 11
-62.1031
 21
598.156
  0
LINE
  8
0
 10
-62.1031
 20
598.156
 11
-61.9416
 21
598.411
  0
LINE
  8
0
 10
-61.9416
 20
598.411
 11
-61.7495
 21
598.643
  0
LINE
  8
0
 10
-61.7495
 20
598.643
 11
-61.5298
 21
598.849
  0
LINE
  8
0
 10
-61.5298
 20
598.849
 11
-61.286
 21
599.026
  0
LINE
  8
0
 10
-61.286
 20
599.026
 11
-61.0219
 21
599.172
  0
LINE
  8
0
 10
-61.0219
 20
599.172
 11
-60.7416
 21
599.283
  0
LINE
  8
0
 10
-60.7416
 20
599.283
 11
-60.4497
 21
599.357
  0
LINE
  8
0
 10
-60.4497
 20
599.357
 11
-60.1507
 21
599.395
  0
LINE
  8
0
 10
-60.1507
 20
599.395
 11
-59.8493
 21
599.395
  0
LINE
  8
0
 10
-59.8493
 20
599.395
 11
-59.5503
 21
599.357
  0
LINE
  8
0
 10
-59.5503
 20
599.357
 11
-59.2584
 21
599.283
  0
LINE
  8
0
 10
-59.2584
 20
599.283
 11
-58.9781
 21
599.172
  0
LINE
  8
0
 10
-58.9781
 20
599.172
 11
-58.714
 21
599.026
  0
LINE
  8
0
 10
-58.714
 20
599.026
 11
-58.4702
 21
598.849
  0
LINE
  8
0
 10
-58.4702
 20
598.849
 11
-58.2505
 21
598.643
  0
LINE
  8
0
 10
-58.2505
 20
598.643
 11
-58.0583
 21
598.411
  0
LINE
  8
0
 10
-58.0583
 20
598.411
 11
-57.8969
 21
598.156
  0
LINE
  8
0
 10
-57.8969
 20
598.156
 11
-57.7685
 21
597.883
  0
LINE
  8
0
 10
-57.7685
 20
597.883
 11
-57.6754
 21
597.597
  0
LINE
  8
0
 10
-57.6754
 20
597.597
 11
-57.6189
 21
597.301
  0
LINE
  8
0
 10
-57.6189
 20
597.301
 11
-57.6
 21
597
  0
LINE
  8
0
 10
-57.6
 20
597
 11
-57.6189
 21
596.699
  0
LINE
  8
0
 10
-57.6189
 20
596.699
 11
-57.6754
 21
596.403
  0
LINE
  8
0
 10
-57.6754
 20
596.403
 11
-57.7685
 21
596.117
  0
LINE
  8
0
 10
-57.7685
 20
596.117
 11
-57.8969
 21
595.844
  0
LINE
  8
0
 10
-57.8969
 20
595.844
 11
-58.0583
 21
595.589
  0
LINE
  8
0
 10
-58.0583
 20
595.589
 11
-58.2505
 21
595.357
  0
LINE
  8
0
 10
-58.2505
 20
595.357
 11
-58.4702
 21
595.151
  0
LINE
  8
0
 10
-58.4702
 20
595.151
 11
-58.714
 21
594.974
  0
LINE
  8
0
 10
-58.714
 20
594.974
 11
-58.9781
 21
594.828
  0
LINE
  8
0
 10
-58.9781
 20
594.828
 11
-59.2584
 21
594.717
  0
LINE
  8
0
 10
-59.2584
 20
594.717
 11
-59.5503
 21
594.643
  0
LINE
  8
0
 10
-59.5503
 20
594.643
 11
-59.8493
 21
594.605
  0
LINE
  8
0
 10
-59.8493
 20
594.605
 11
-60.1507
 21
594.605
  0
LINE
  8
0
 10
63.4369
 20
355.589
 11
64.0451
 21
355.745
  0
LINE
  8
0
 10
64.0451
 20
355.745
 11
64.6289
 21
355.976
  0
LINE
  8
0
 10
64.6289
 20
355.976
 11
65.1791
 21
356.278
  0
LINE
  8
0
 10
65.1791
 20
356.278
 11
65.6871
 21
356.647
  0
LINE
  8
0
 10
65.6871
 20
356.647
 11
66.1448
 21
357.077
  0
LINE
  8
0
 10
66.1448
 20
357.077
 11
66.5451
 21
357.561
  0
LINE
  8
0
 10
66.5451
 20
357.561
 11
66.8815
 21
358.091
  0
LINE
  8
0
 10
66.8815
 20
358.091
 11
67.1489
 21
358.659
  0
LINE
  8
0
 10
67.1489
 20
358.659
 11
67.3429
 21
359.257
  0
LINE
  8
0
 10
67.3429
 20
359.257
 11
67.4606
 21
359.873
  0
LINE
  8
0
 10
67.4606
 20
359.873
 11
67.5
 21
360.5
  0
LINE
  8
0
 10
67.5
 20
360.5
 11
67.5
 21
575.5
  0
LINE
  8
0
 10
67.5
 20
575.5
 11
67.4606
 21
576.127
  0
LINE
  8
0
 10
67.4606
 20
576.127
 11
67.3429
 21
576.743
  0
LINE
  8
0
 10
67.3429
 20
576.743
 11
67.1489
 21
577.341
  0
LINE
  8
0
 10
67.1489
 20
577.341
 11
66.8815
 21
577.909
  0
LINE
  8
0
 10
66.8815
 20
577.909
 11
66.5451
 21
578.439
  0
LINE
  8
0
 10
66.5451
 20
578.439
 11
66.1448
 21
578.923
  0
LINE
  8
0
 10
66.1448
 20
578.923
 11
65.6871
 21
579.353
  0
LINE
  8
0
 10
65.6871
 20
579.353
 11
65.1791
 21
579.722
  0
LINE
  8
0
 10
65.1791
 20
579.722
 11
64.6289
 21
580.024
  0
LINE
  8
0
 10
64.6289
 20
580.024
 11
64.0451
 21
580.255
  0
LINE
  8
0
 10
64.0451
 20
580.255
 11
63.4369
 21
580.411
  0
LINE
  8
0
 10
63.4369
 20
580.411
 11
62.8139
 21
580.49
  0
LINE
  8
0
 10
62.8139
 20
580.49
 11
-62.8139
 21
580.49
  0
LINE
  8
0
 10
-62.8139
 20
580.49
 11
-63.4369
 21
580.411
  0
LINE
  8
0
 10
-63.4369
 20
580.411
 11
-64.0451
 21
580.255
  0
LINE
  8
0
 10
-64.0451
 20
580.255
 11
-64.6289
 21
580.024
  0
LINE
  8
0
 10
-64.6289
 20
580.024
 11
-65.1791
 21
579.722
  0
LINE
  8
0
 10
-65.1791
 20
579.722
 11
-65.6871
 21
579.353
  0
LINE
  8
0
 10
-65.6871
 20
579.353
 11
-66.1448
 21
578.923
  0
LINE
  8
0
 10
-66.1448
 20
578.923
 11
-66.5451
 21
578.439
  0
LINE
  8
0
 10
-66.5451
 20
578.439
 11
-66.8815
 21
577.909
  0
LINE
  8
0
 10
-66.8815
 20
577.909
 11
-67.1489
 21
577.341
  0
LINE
  8
0
 10
-67.1489
 20
577.341
 11
-67.3429
 21
576.743
  0
LINE
  8
0
 10
-67.3429
 20
576.743
 11
-67.4606
 21
576.127
  0
LINE
  8
0
 10
-67.4606
 20
576.127
 11
-67.5
 21
575.5
  0
LINE
  8
0
 10
-67.5
 20
575.5
 11
-67.5
 21
360.5
  0
LINE
  8
0
 10
-67.5
 20
360.5
 11
-67.4606
 21
359.873
  0
LINE
  8
0
 10
-67.4606
 20
359.873
 11
-67.3429
 21
359.257
  0
LINE
  8
0
 10
-67.3429
 20
359.257
 11
-67.1489
 21
358.659
  0
LINE
  8
0
 10
-67.1489
 20
358.659
 11
-66.8815
 21
358.091
  0
LINE
  8
0
 10
-66.8815
 20
358.091
 11
-66.5451
 21
357.561
  0
LINE
  8
0
 10
-66.5451
 20
357.561
 11
-66.1448
 21
357.077
  0
LINE
  8
0
 10
-66.1448
 20
357.077
 11
-65.6871
 21
356.647
  0
LINE
  8
0
 10
-65.6871
 20
356.647
 11
-65.1791
 21
356.278
  0
LINE
  8
0
 10
-65.1791
 20
356.278
 11
-64.6289
 21
355.976
  0
LINE
  8
0
 10
-64.6289
 20
355.976
 11
-64.0451
 21
355.745
  0
LINE
  8
0
 10
-64.0451
 20
355.745
 11
-63.4369
 21
355.589
  0
LINE
  8
0
 10
-63.4369
 20
355.589
 11
-62.8139
 21
355.51
  0
LINE
  8
0
 10
-62.8139
 20
355.51
 11
62.8139
 21
355.51
  0
LINE
  8
0
 10
62.8139
 20
355.51
 11
63.4369
 21
355.589
  0
LINE
  8
0
 10
59.887
 20
571.204
 11
59.6627
 21
571.232
  0
LINE
  8
0
 10
59.6627
 20
571.232
 11
59.4438
 21
571.288
  0
LINE
  8
0
 10
59.4438
 20
571.288
 11
59.2336
 21
571.371
  0
LINE
  8
0
 10
59.2336
 20
571.371
 11
59.0355
 21
571.48
  0
LINE
  8
0
 10
59.0355
 20
571.48
 11
58.8526
 21
571.613
  0
LINE
  8
0
 10
58.8526
 20
571.613
 11
58.6879
 21
571.768
  0
LINE
  8
0
 10
58.6879
 20
571.768
 11
58.5438
 21
571.942
  0
LINE
  8
0
 10
58.5438
 20
571.942
 11
58.4226
 21
572.133
  0
LINE
  8
0
 10
58.4226
 20
572.133
 11
58.3264
 21
572.337
  0
LINE
  8
0
 10
58.3264
 20
572.337
 11
58.2565
 21
572.552
  0
LINE
  8
0
 10
58.2565
 20
572.552
 11
58.2142
 21
572.774
  0
LINE
  8
0
 10
58.2142
 20
572.774
 11
58.2
 21
573
  0
LINE
  8
0
 10
58.2
 20
573
 11
58.2142
 21
573.226
  0
LINE
  8
0
 10
58.2142
 20
573.226
 11
58.2565
 21
573.448
  0
LINE
  8
0
 10
58.2565
 20
573.448
 11
58.3264
 21
573.663
  0
LINE
  8
0
 10
58.3264
 20
573.663
 11
58.4226
 21
573.867
  0
LINE
  8
0
 10
58.4226
 20
573.867
 11
58.5438
 21
574.058
  0
LINE
  8
0
 10
58.5438
 20
574.058
 11
58.6879
 21
574.232
  0
LINE
  8
0
 10
58.6879
 20
574.232
 11
58.8526
 21
574.387
  0
LINE
  8
0
 10
58.8526
 20
574.387
 11
59.0355
 21
574.52
  0
LINE
  8
0
 10
59.0355
 20
574.52
 11
59.2336
 21
574.629
  0
LINE
  8
0
 10
59.2336
 20
574.629
 11
59.4438
 21
574.712
  0
LINE
  8
0
 10
59.4438
 20
574.712
 11
59.6627
 21
574.768
  0
LINE
  8
0
 10
59.6627
 20
574.768
 11
59.887
 21
574.796
  0
LINE
  8
0
 10
59.887
 20
574.796
 11
60.113
 21
574.796
  0
LINE
  8
0
 10
60.113
 20
574.796
 11
60.3373
 21
574.768
  0
LINE
  8
0
 10
60.3373
 20
574.768
 11
60.5562
 21
574.712
  0
LINE
  8
0
 10
60.5562
 20
574.712
 11
60.7664
 21
574.629
  0
LINE
  8
0
 10
60.7664
 20
574.629
 11
60.9645
 21
574.52
  0
LINE
  8
0
 10
60.9645
 20
574.52
 11
61.1474
 21
574.387
  0
LINE
  8
0
 10
61.1474
 20
574.387
 11
61.3121
 21
574.232
  0
LINE
  8
0
 10
61.3121
 20
574.232
 11
61.4562
 21
574.058
  0
LINE
  8
0
 10
61.4562
 20
574.058
 11
61.5773
 21
573.867
  0
LINE
  8
0
 10
61.5773
 20
573.867
 11
61.6736
 21
573.663
  0
LINE
  8
0
 10
61.6736
 20
573.663
 11
61.7434
 21
573.448
  0
LINE
  8
0
 10
61.7434
 20
573.448
 11
61.7858
 21
573.226
  0
LINE
  8
0
 10
61.7858
 20
573.226
 11
61.8
 21
573
  0
LINE
  8
0
 10
61.8
 20
573
 11
61.7858
 21
572.774
  0
LINE
  8
0
 10
61.7858
 20
572.774
 11
61.7434
 21
572.552
  0
LINE
  8
0
 10
61.7434
 20
572.552
 11
61.6736
 21
572.337
  0
LINE
  8
0
 10
61.6736
 20
572.337
 11
61.5773
 21
572.133
  0
LINE
  8
0
 10
61.5773
 20
572.133
 11
61.4562
 21
571.942
  0
LINE
  8
0
 10
61.4562
 20
571.942
 11
61.3121
 21
571.768
  0
LINE
  8
0
 10
61.3121
 20
571.768
 11
61.1474
 21
571.613
  0
LINE
  8
0
 10
61.1474
 20
571.613
 11
60.9645
 21
571.48
  0
LINE
  8
0
 10
60.9645
 20
571.48
 11
60.7664
 21
571.371
  0
LINE
  8
0
 10
60.7664
 20
571.371
 11
60.5562
 21
571.288
  0
LINE
  8
0
 10
60.5562
 20
571.288
 11
60.3373
 21
571.232
  0
LINE
  8
0
 10
60.3373
 20
571.232
 11
60.113
 21
571.204
  0
LINE
  8
0
 10
60.113
 20
571.204
 11
59.887
 21
571.204
  0
LINE
  8
0
 10
-60.113
 20
571.204
 11
-60.3373
 21
571.232
  0
LINE
  8
0
 10
-60.3373
 20
571.232
 11
-60.5562
 21
571.288
  0
LINE
  8
0
 10
-60.5562
 20
571.288
 11
-60.7664
 21
571.371
  0
LINE
  8
0
 10
-60.7664
 20
571.371
 11
-60.9645
 21
571.48
  0
LINE
  8
0
 10
-60.9645
 20
571.48
 11
-61.1474
 21
571.613
  0
LINE
  8
0
 10
-61.1474
 20
571.613
 11
-61.3121
 21
571.768
  0
LINE
  8
0
 10
-61.3121
 20
571.768
 11
-61.4562
 21
571.942
  0
LINE
  8
0
 10
-61.4562
 20
571.942
 11
-61.5773
 21
572.133
  0
LINE
  8
0
 10
-61.5773
 20
572.133
 11
-61.6736
 21
572.337
  0
LINE
  8
0
 10
-61.6736
 20
572.337
 11
-61.7434
 21
572.552
  0
LINE
  8
0
 10
-61.7434
 20
572.552
 11
-61.7858
 21
572.774
  0
LINE
  8
0
 10
-61.7858
 20
572.774
 11
-61.8
 21
573
  0
LINE
  8
0
 10
-61.8
 20
573
 11
-61.7858
 21
573.226
  0
LINE
  8
0
 10
-61.7858
 20
573.226
 11
-61.7434
 21
573.448
  0
LINE
  8
0
 10
-61.7434
 20
573.448
 11
-61.6736
 21
573.663
  0
LINE
  8
0
 10
-61.6736
 20
573.663
 11
-61.5773
 21
573.867
  0
LINE
  8
0
 10
-61.5773
 20
573.867
 11
-61.4562
 21
574.058
  0
LINE
  8
0
 10
-61.4562
 20
574.058
 11
-61.3121
 21
574.232
  0
LINE
  8
0
 10
-61.3121
 20
574.232
 11
-61.1474
 21
574.387
  0
LINE
  8
0
 10
-61.1474
 20
574.387
 11
-60.9645
 21
574.52
  0
LINE
  8
0
 10
-60.9645
 20
574.52
 11
-60.7664
 21
574.629
  0
LINE
  8
0
 10
-60.7664
 20
574.629
 11
-60.5562
 21
574.712
  0
LINE
  8
0
 10
-60.5562
 20
574.712
 11
-60.3373
 21
574.768
  0
LINE
  8
0
 10
-60.3373
 20
574.768
 11
-60.113
 21
574.796
  0
LINE
  8
0
 10
-60.113
 20
574.796
 11
-59.887
 21
574.796
  0
LINE
  8
0
 10
-59.887
 20
574.796
 11
-59.6627
 21
574.768
  0
LINE
  8
0
 10
-59.6627
 20
574.768
 11
-59.4438
 21
574.712
  0
LINE
  8
0
 10
-59.4438
 20
574.712
 11
-59.2336
 21
574.629
  0
LINE
  8
0
 10
-59.2336
 20
574.629
 11
-59.0355
 21
574.52
  0
LINE
  8
0
 10
-59.0355
 20
574.52
 11
-58.8526
 21
574.387
  0
LINE
  8
0
 10
-58.8526
 20
574.387
 11
-58.6879
 21
574.232
  0
LINE
  8
0
 10
-58.6879
 20
574.232
 11
-58.5438
 21
574.058
  0
LINE
  8
0
 10
-58.5438
 20
574.058
 11
-58.4226
 21
573.867
  0
LINE
  8
0
 10
-58.4226
 20
573.867
 11
-58.3264
 21
573.663
  0
LINE
  8
0
 10
-58.3264
 20
573.663
 11
-58.2565
 21
573.448
  0
LINE
  8
0
 10
-58.2565
 20
573.448
 11
-58.2142
 21
573.226
  0
LINE
  8
0
 10
-58.2142
 20
573.226
 11
-58.2
 21
573
  0
LINE
  8
0
 10
-58.2
 20
573
 11
-58.2142
 21
572.774
  0
LINE
  8
0
 10
-58.2142
 20
572.774
 11
-58.2565
 21
572.552
  0
LINE
  8
0
 10
-58.2565
 20
572.552
 11
-58.3264
 21
572.337
  0
LINE
  8
0
 10
-58.3264
 20
572.337
 11
-58.4226
 21
572.133
  0
LINE
  8
0
 10
-58.4226
 20
572.133
 11
-58.5438
 21
571.942
  0
LINE
  8
0
 10
-58.5438
 20
571.942
 11
-58.6879
 21
571.768
  0
LINE
  8
0
 10
-58.6879
 20
571.768
 11
-58.8526
 21
571.613
  0
LINE
  8
0
 10
-58.8526
 20
571.613
 11
-59.0355
 21
571.48
  0
LINE
  8
0
 10
-59.0355
 20
571.48
 11
-59.2336
 21
571.371
  0
LINE
  8
0
 10
-59.2336
 20
571.371
 11
-59.4438
 21
571.288
  0
LINE
  8
0
 10
-59.4438
 20
571.288
 11
-59.6627
 21
571.232
  0
LINE
  8
0
 10
-59.6627
 20
571.232
 11
-59.887
 21
571.204
  0
LINE
  8
0
 10
-59.887
 20
571.204
 11
-60.113
 21
571.204
  0
LINE
  8
0
 10
-60.113
 20
361.204
 11
-60.3373
 21
361.232
  0
LINE
  8
0
 10
-60.3373
 20
361.232
 11
-60.5562
 21
361.288
  0
LINE
  8
0
 10
-60.5562
 20
361.288
 11
-60.7664
 21
361.371
  0
LINE
  8
0
 10
-60.7664
 20
361.371
 11
-60.9645
 21
361.48
  0
LINE
  8
0
 10
-60.9645
 20
361.48
 11
-61.1474
 21
361.613
  0
LINE
  8
0
 10
-61.1474
 20
361.613
 11
-61.3121
 21
361.768
  0
LINE
  8
0
 10
-61.3121
 20
361.768
 11
-61.4562
 21
361.942
  0
LINE
  8
0
 10
-61.4562
 20
361.942
 11
-61.5773
 21
362.133
  0
LINE
  8
0
 10
-61.5773
 20
362.133
 11
-61.6736
 21
362.337
  0
LINE
  8
0
 10
-61.6736
 20
362.337
 11
-61.7434
 21
362.552
  0
LINE
  8
0
 10
-61.7434
 20
362.552
 11
-61.7858
 21
362.774
  0
LINE
  8
0
 10
-61.7858
 20
362.774
 11
-61.8
 21
363
  0
LINE
  8
0
 10
-61.8
 20
363
 11
-61.7858
 21
363.226
  0
LINE
  8
0
 10
-61.7858
 20
363.226
 11
-61.7434
 21
363.448
  0
LINE
  8
0
 10
-61.7434
 20
363.448
 11
-61.6736
 21
363.663
  0
LINE
  8
0
 10
-61.6736
 20
363.663
 11
-61.5773
 21
363.867
  0
LINE
  8
0
 10
-61.5773
 20
363.867
 11
-61.4562
 21
364.058
  0
LINE
  8
0
 10
-61.4562
 20
364.058
 11
-61.3121
 21
364.232
  0
LINE
  8
0
 10
-61.3121
 20
364.232
 11
-61.1474
 21
364.387
  0
LINE
  8
0
 10
-61.1474
 20
364.387
 11
-60.9645
 21
364.52
  0
LINE
  8
0
 10
-60.9645
 20
364.52
 11
-60.7664
 21
364.629
  0
LINE
  8
0
 10
-60.7664
 20
364.629
 11
-60.5562
 21
364.712
  0
LINE
  8
0
 10
-60.5562
 20
364.712
 11
-60.3373
 21
364.768
  0
LINE
  8
0
 10
-60.3373
 20
364.768
 11
-60.113
 21
364.796
  0
LINE
  8
0
 10
-60.113
 20
364.796
 11
-59.887
 21
364.796
  0
LINE
  8
0
 10
-59.887
 20
364.796
 11
-59.6627
 21
364.768
  0
LINE
  8
0
 10
-59.6627
 20
364.768
 11
-59.4438
 21
364.712
  0
LINE
  8
0
 10
-59.4438
 20
364.712
 11
-59.2336
 21
364.629
  0
LINE
  8
0
 10
-59.2336
 20
364.629
 11
-59.0355
 21
364.52
  0
LINE
  8
0
 10
-59.0355
 20
364.52
 11
-58.8526
 21
364.387
  0
LINE
  8
0
 10
-58.8526
 20
364.387
 11
-58.6879
 21
364.232
  0
LINE
  8
0
 10
-58.6879
 20
364.232
 11
-58.5438
 21
364.058
  0
LINE
  8
0
 10
-58.5438
 20
364.058
 11
-58.4226
 21
363.867
  0
LINE
  8
0
 10
-58.4226
 20
363.867
 11
-58.3264
 21
363.663
  0
LINE
  8
0
 10
-58.3264
 20
363.663
 11
-58.2565
 21
363.448
  0
LINE
  8
0
 10
-58.2565
 20
363.448
 11
-58.2142
 21
363.226
  0
LINE
  8
0
 10
-58.2142
 20
363.226
 11
-58.2
 21
363
  0
LINE
  8
0
 10
-58.2
 20
363
 11
-58.2142
 21
362.774
  0
LINE
  8
0
 10
-58.2142
 20
362.774
 11
-58.2565
 21
362.552
  0
LINE
  8
0
 10
-58.2565
 20
362.552
 11
-58.3264
 21
362.337
  0
LINE
  8
0
 10
-58.3264
 20
362.337
 11
-58.4226
 21
362.133
  0
LINE
  8
0
 10
-58.4226
 20
362.133
 11
-58.5438
 21
361.942
  0
LINE
  8
0
 10
-58.5438
 20
361.942
 11
-58.6879
 21
361.768
  0
LINE
  8
0
 10
-58.6879
 20
361.768
 11
-58.8526
 21
361.613
  0
LINE
  8
0
 10
-58.8526
 20
361.613
 11
-59.0355
 21
361.48
  0
LINE
  8
0
 10
-59.0355
 20
361.48
 11
-59.2336
 21
361.371
  0
LINE
  8
0
 10
-59.2336
 20
361.371
 11
-59.4438
 21
361.288
  0
LINE
  8
0
 10
-59.4438
 20
361.288
 11
-59.6627
 21
361.232
  0
LINE
  8
0
 10
-59.6627
 20
361.232
 11
-59.887
 21
361.204
  0
LINE
  8
0
 10
-59.887
 20
361.204
 11
-60.113
 21
361.204
  0
LINE
  8
0
 10
59.887
 20
361.204
 11
59.6627
 21
361.232
  0
LINE
  8
0
 10
59.6627
 20
361.232
 11
59.4438
 21
361.288
  0
LINE
  8
0
 10
59.4438
 20
361.288
 11
59.2336
 21
361.371
  0
LINE
  8
0
 10
59.2336
 20
361.371
 11
59.0355
 21
361.48
  0
LINE
  8
0
 10
59.0355
 20
361.48
 11
58.8526
 21
361.613
  0
LINE
  8
0
 10
58.8526
 20
361.613
 11
58.6879
 21
361.768
  0
LINE
  8
0
 10
58.6879
 20
361.768
 11
58.5438
 21
361.942
  0
LINE
  8
0
 10
58.5438
 20
361.942
 11
58.4226
 21
362.133
  0
LINE
  8
0
 10
58.4226
 20
362.133
 11
58.3264
 21
362.337
  0
LINE
  8
0
 10
58.3264
 20
362.337
 11
58.2565
 21
362.552
  0
LINE
  8
0
 10
58.2565
 20
362.552
 11
58.2142
 21
362.774
  0
LINE
  8
0
 10
58.2142
 20
362.774
 11
58.2
 21
363
  0
LINE
  8
0
 10
58.2
 20
363
 11
58.2142
 21
363.226
  0
LINE
  8
0
 10
58.2142
 20
363.226
 11
58.2565
 21
363.448
  0
LINE
  8
0
 10
58.2565
 20
363.448
 11
58.3264
 21
363.663
  0
LINE
  8
0
 10
58.3264
 20
363.663
 11
58.4226
 21
363.867
  0
LINE
  8
0
 10
58.4226
 20
363.867
 11
58.5438
 21
364.058
  0
LINE
  8
0
 10
58.5438
 20
364.058
 11
58.6879
 21
364.232
  0
LINE
  8
0
 10
58.6879
 20
364.232
 11
58.8526
 21
364.387
  0
LINE
  8
0
 10
58.8526
 20
364.387
 11
59.0355
 21
364.52
  0
LINE
  8
0
 10
59.0355
 20
364.52
 11
59.2336
 21
364.629
  0
LINE
  8
0
 10
59.2336
 20
364.629
 11
59.4438
 21
364.712
  0
LINE
  8
0
 10
59.4438
 20
364.712
 11
59.6627
 21
364.768
  0
LINE
  8
0
 10
59.6627
 20
364.768
 11
59.887
 21
364.796
  0
LINE
  8
0
 10
59.887
 20
364.796
 11
60.113
 21
364.796
  0
LINE
  8
0
 10
60.113
 20
364.796
 11
60.3373
 21
364.768
  0
LINE
  8
0
 10
60.3373
 20
364.768
 11
60.5562
 21
364.712
  0
LINE
  8
0
 10
60.5562
 20
364.712
 11
60.7664
 21
364.629
  0
LINE
  8
0
 10
60.7664
 20
364.629
 11
60.9645
 21
364.52
  0
LINE
  8
0
 10
60.9645
 20
364.52
 11
61.1474
 21
364.387
  0
LINE
  8
0
 10
61.1474
 20
364.387
 11
61.3121
 21
364.232
  0
LINE
  8
0
 10
61.3121
 20
364.232
 11
61.4562
 21
364.058
  0
LINE
  8
0
 10
61.4562
 20
364.058
 11
61.5773
 21
363.867
  0
LINE
  8
0
 10
61.5773
 20
363.867
 11
61.6736
 21
363.663
  0
LINE
  8
0
 10
61.6736
 20
363.663
 11
61.7434
 21
363.448
  0
LINE
  8
0
 10
61.7434
 20
363.448
 11
61.7858
 21
363.226
  0
LINE
  8
0
 10
61.7858
 20
363.226
 11
61.8
 21
363
  0
LINE
  8
0
 10
61.8
 20
363
 11
61.7858
 21
362.774
  0
LINE
  8
0
 10
61.7858
 20
362.774
 11
61.7434
 21
362.552
  0
LINE
  8
0
 10
61.7434
 20
362.552
 11
61.6736
 21
362.337
  0
LINE
  8
0
 10
61.6736
 20
362.337
 11
61.5773
 21
362.133
  0
LINE
  8
0
 10
61.5773
 20
362.133
 11
61.4562
 21
361.942
  0
LINE
  8
0
 10
61.4562
 20
361.942
 11
61.3121
 21
361.768
  0
LINE
  8
0
 10
61.3121
 20
361.768
 11
61.1474
 21
361.613
  0
LINE
  8
0
 10
61.1474
 20
361.613
 11
60.9645
 21
361.48
  0
LINE
  8
0
 10
60.9645
 20
361.48
 11
60.7664
 21
361.371
  0
LINE
  8
0
 10
60.7664
 20
361.371
 11
60.5562
 21
361.288
  0
LINE
  8
0
 10
60.5562
 20
361.288
 11
60.3373
 21
361.232
  0
LINE
  8
0
 10
60.3373
 20
361.232
 11
60.113
 21
361.204
  0
LINE
  8
0
 10
60.113
 20
361.204
 11
59.887
 21
361.204
  0
ENDSEC
  0
SECTION
  2
OBJECTS
  0
DICTIONARY
  0
ENDSEC
  0
EOF
