<?xml version="1.0" standalone="no"?>
<!DOCTYPE svg PUBLIC "-//W3C//DTD SVG 1.1//EN" "http://www.w3.org/Graphics/SVG/1.1/DTD/svg11.dtd">
<svg width="180mm" height="129mm" viewBox="-90 -237 180 129" xmlns="http://www.w3.org/2000/svg" version="1.1">
<title>OpenSCAD Model</title>
<path d="
M 85.9369,-177.089 L 86.5451,-177.245 L 87.1289,-177.476 L 87.6791,-177.778 L 88.1871,-178.147 L 88.6448,-178.577
 L 89.0451,-179.061 L 89.3815,-179.591 L 89.6489,-180.159 L 89.8429,-180.757 L 89.9606,-181.373 L 90,-182
 L 90,-232 L 89.9606,-232.627 L 89.8429,-233.243 L 89.6489,-233.841 L 89.3815,-234.409 L 89.0451,-234.939
 L 88.6448,-235.423 L 88.1871,-235.853 L 87.6791,-236.222 L 87.1289,-236.524 L 86.5451,-236.755 L 85.9369,-236.911
 L 85.3139,-236.99 L -85.3139,-236.99 L -85.9369,-236.911 L -86.5451,-236.755 L -87.1289,-236.524 L -87.6791,-236.222
 L -88.1871,-235.853 L -88.6448,-235.423 L -89.0451,-234.939 L -89.3815,-234.409 L -89.6489,-233.841 L -89.8429,-233.243
 L -89.9606,-232.627 L -90,-232 L -90,-182 L -89.9606,-181.373 L -89.8429,-180.757 L -89.6489,-180.159
 L -89.3815,-179.591 L -89.0451,-179.061 L -88.6448,-178.577 L -88.1871,-178.147 L -87.6791,-177.778 L -87.1289,-177.476
 L -86.5451,-177.245 L -85.9369,-177.089 L -85.3139,-177.01 L 85.3139,-177.01 z
M -85.0375,-177.681 L -85.6079,-177.753 L -86.1648,-177.896 L -86.6994,-178.107 L -87.2032,-178.384 L -87.6684,-178.722
 L -88.0875,-179.116 L -88.454,-179.559 L -88.7621,-180.044 L -89.0069,-180.565 L -89.1846,-181.111 L -89.2923,-181.676
 L -89.3284,-182.25 L -89.3284,-231.75 L -89.2923,-232.324 L -89.1846,-232.889 L -89.0069,-233.435 L -88.7621,-233.956
 L -88.454,-234.441 L -88.0875,-234.884 L -87.6684,-235.278 L -87.2032,-235.616 L -86.6994,-235.893 L -86.1648,-236.104
 L -85.6079,-236.247 L -85.0375,-236.319 L 85.0375,-236.319 L 85.6079,-236.247 L 86.1648,-236.104 L 86.6994,-235.893
 L 87.2032,-235.616 L 87.6684,-235.278 L 88.0875,-234.884 L 88.454,-234.441 L 88.7621,-233.956 L 89.0069,-233.435
 L 89.1846,-232.889 L 89.2923,-232.324 L 89.3284,-231.75 L 89.3284,-182.25 L 89.2923,-181.676 L 89.1846,-181.111
 L 89.0069,-180.565 L 88.7621,-180.044 L 88.454,-179.559 L 88.0875,-179.116 L 87.6684,-178.722 L 87.2032,-178.384
 L 86.6994,-178.107 L 86.1648,-177.896 L 85.6079,-177.753 L 85.0375,-177.681 z
M 85.9369,-108.089 L 86.5451,-108.245 L 87.1289,-108.476 L 87.6791,-108.778 L 88.1871,-109.147 L 88.6448,-109.577
 L 89.0451,-110.061 L 89.3815,-110.591 L 89.6489,-111.159 L 89.8429,-111.757 L 89.9606,-112.373 L 90,-113
 L 90,-163 L 89.9606,-163.627 L 89.8429,-164.243 L 89.6489,-164.841 L 89.3815,-165.409 L 89.0451,-165.939
 L 88.6448,-166.423 L 88.1871,-166.853 L 87.6791,-167.222 L 87.1289,-167.524 L 86.5451,-167.755 L 85.9369,-167.911
 L 85.3139,-167.99 L -85.3139,-167.99 L -85.9369,-167.911 L -86.5451,-167.755 L -87.1289,-167.524 L -87.6791,-167.222
 L -88.1871,-166.853 L -88.6448,-166.423 L -89.0451,-165.939 L -89.3815,-165.409 L -89.6489,-164.841 L -89.8429,-164.243
 L -89.9606,-163.627 L -90,-163 L -90,-113 L -89.9606,-112.373 L -89.8429,-111.757 L -89.6489,-111.159
 L -89.3815,-110.591 L -89.0451,-110.061 L -88.6448,-109.577 L -88.1871,-109.147 L -87.6791,-108.778 L -87.1289,-108.476
 L -86.5451,-108.245 L -85.9369,-108.089 L -85.3139,-108.01 L 85.3139,-108.01 z
M -84.8825,-111.145 L -85.1453,-111.178 L -85.4019,-111.244 L -85.6482,-111.341 L -85.8804,-111.469 L -86.0947,-111.625
 L -86.2879,-111.806 L -86.4567,-112.01 L -86.5987,-112.234 L -86.7115,-112.473 L -86.7934,-112.725 L -86.843,-112.986
 L -86.8596,-113.25 L -86.8596,-162.75 L -86.843,-163.014 L -86.7934,-163.275 L -86.7115,-163.527 L -86.5987,-163.766
 L -86.4567,-163.99 L -86.2879,-164.194 L -86.0947,-164.375 L -85.8804,-164.531 L -85.6482,-164.659 L -85.4019,-164.756
 L -85.1453,-164.822 L -84.8825,-164.855 L 84.8825,-164.855 L 85.1453,-164.822 L 85.4019,-164.756 L 85.6482,-164.659
 L 85.8804,-164.531 L 86.0947,-164.375 L 86.2879,-164.194 L 86.4567,-163.99 L 86.5987,-163.766 L 86.7115,-163.527
 L 86.7934,-163.275 L 86.843,-163.014 L 86.8596,-162.75 L 86.8596,-113.25 L 86.843,-112.986 L 86.7934,-112.725
 L 86.7115,-112.473 L 86.5987,-112.234 L 86.4567,-112.01 L 86.2879,-111.806 L 86.0947,-111.625 L 85.8804,-111.469
 L 85.6482,-111.341 L 85.4019,-111.244 L 85.1453,-111.178 L 84.8825,-111.145 z
" stroke="black" fill="lightgray" stroke-width="0.5"/>
</svg>
