  0
SECTION
  2
BLOCKS
  0
ENDSEC
  0
SECTION
  2
ENTITIES
  0
LINE
  8
0
 10
108.437
 20
720.089
 11
109.045
 21
720.245
  0
LINE
  8
0
 10
109.045
 20
720.245
 11
109.629
 21
720.476
  0
LINE
  8
0
 10
109.629
 20
720.476
 11
110.179
 21
720.778
  0
LINE
  8
0
 10
110.179
 20
720.778
 11
110.687
 21
721.147
  0
LINE
  8
0
 10
110.687
 20
721.147
 11
111.145
 21
721.577
  0
LINE
  8
0
 10
111.145
 20
721.577
 11
111.545
 21
722.061
  0
LINE
  8
0
 10
111.545
 20
722.061
 11
111.882
 21
722.591
  0
LINE
  8
0
 10
111.882
 20
722.591
 11
112.149
 21
723.159
  0
LINE
  8
0
 10
112.149
 20
723.159
 11
112.343
 21
723.757
  0
LINE
  8
0
 10
112.343
 20
723.757
 11
112.461
 21
724.373
  0
LINE
  8
0
 10
112.461
 20
724.373
 11
112.5
 21
725
  0
LINE
  8
0
 10
112.5
 20
725
 11
112.5
 21
865
  0
LINE
  8
0
 10
112.5
 20
865
 11
112.461
 21
865.627
  0
LINE
  8
0
 10
112.461
 20
865.627
 11
112.343
 21
866.243
  0
LINE
  8
0
 10
112.343
 20
866.243
 11
112.149
 21
866.841
  0
LINE
  8
0
 10
112.149
 20
866.841
 11
111.882
 21
867.409
  0
LINE
  8
0
 10
111.882
 20
867.409
 11
111.545
 21
867.939
  0
LINE
  8
0
 10
111.545
 20
867.939
 11
111.145
 21
868.423
  0
LINE
  8
0
 10
111.145
 20
868.423
 11
110.687
 21
868.853
  0
LINE
  8
0
 10
110.687
 20
868.853
 11
110.179
 21
869.222
  0
LINE
  8
0
 10
110.179
 20
869.222
 11
109.629
 21
869.524
  0
LINE
  8
0
 10
109.629
 20
869.524
 11
109.045
 21
869.755
  0
LINE
  8
0
 10
109.045
 20
869.755
 11
108.437
 21
869.911
  0
LINE
  8
0
 10
108.437
 20
869.911
 11
107.814
 21
869.99
  0
LINE
  8
0
 10
107.814
 20
869.99
 11
-107.814
 21
869.99
  0
LINE
  8
0
 10
-107.814
 20
869.99
 11
-108.437
 21
869.911
  0
LINE
  8
0
 10
-108.437
 20
869.911
 11
-109.045
 21
869.755
  0
LINE
  8
0
 10
-109.045
 20
869.755
 11
-109.629
 21
869.524
  0
LINE
  8
0
 10
-109.629
 20
869.524
 11
-110.179
 21
869.222
  0
LINE
  8
0
 10
-110.179
 20
869.222
 11
-110.687
 21
868.853
  0
LINE
  8
0
 10
-110.687
 20
868.853
 11
-111.145
 21
868.423
  0
LINE
  8
0
 10
-111.145
 20
868.423
 11
-111.545
 21
867.939
  0
LINE
  8
0
 10
-111.545
 20
867.939
 11
-111.882
 21
867.409
  0
LINE
  8
0
 10
-111.882
 20
867.409
 11
-112.149
 21
866.841
  0
LINE
  8
0
 10
-112.149
 20
866.841
 11
-112.343
 21
866.243
  0
LINE
  8
0
 10
-112.343
 20
866.243
 11
-112.461
 21
865.627
  0
LINE
  8
0
 10
-112.461
 20
865.627
 11
-112.5
 21
865
  0
LINE
  8
0
 10
-112.5
 20
865
 11
-112.5
 21
725
  0
LINE
  8
0
 10
-112.5
 20
725
 11
-112.461
 21
724.373
  0
LINE
  8
0
 10
-112.461
 20
724.373
 11
-112.343
 21
723.757
  0
LINE
  8
0
 10
-112.343
 20
723.757
 11
-112.149
 21
723.159
  0
LINE
  8
0
 10
-112.149
 20
723.159
 11
-111.882
 21
722.591
  0
LINE
  8
0
 10
-111.882
 20
722.591
 11
-111.545
 21
722.061
  0
LINE
  8
0
 10
-111.545
 20
722.061
 11
-111.145
 21
721.577
  0
LINE
  8
0
 10
-111.145
 20
721.577
 11
-110.687
 21
721.147
  0
LINE
  8
0
 10
-110.687
 20
721.147
 11
-110.179
 21
720.778
  0
LINE
  8
0
 10
-110.179
 20
720.778
 11
-109.629
 21
720.476
  0
LINE
  8
0
 10
-109.629
 20
720.476
 11
-109.045
 21
720.245
  0
LINE
  8
0
 10
-109.045
 20
720.245
 11
-108.437
 21
720.089
  0
LINE
  8
0
 10
-108.437
 20
720.089
 11
-107.814
 21
720.01
  0
LINE
  8
0
 10
-107.814
 20
720.01
 11
107.814
 21
720.01
  0
LINE
  8
0
 10
107.814
 20
720.01
 11
108.437
 21
720.089
  0
LINE
  8
0
 10
-107.548
 20
720.509
 11
-108.14
 21
720.584
  0
LINE
  8
0
 10
-108.14
 20
720.584
 11
-108.718
 21
720.732
  0
LINE
  8
0
 10
-108.718
 20
720.732
 11
-109.272
 21
720.952
  0
LINE
  8
0
 10
-109.272
 20
720.952
 11
-109.795
 21
721.239
  0
LINE
  8
0
 10
-109.795
 20
721.239
 11
-110.278
 21
721.59
  0
LINE
  8
0
 10
-110.278
 20
721.59
 11
-110.713
 21
721.998
  0
LINE
  8
0
 10
-110.713
 20
721.998
 11
-111.093
 21
722.458
  0
LINE
  8
0
 10
-111.093
 20
722.458
 11
-111.412
 21
722.962
  0
LINE
  8
0
 10
-111.412
 20
722.962
 11
-111.666
 21
723.501
  0
LINE
  8
0
 10
-111.666
 20
723.501
 11
-111.851
 21
724.069
  0
LINE
  8
0
 10
-111.851
 20
724.069
 11
-111.963
 21
724.655
  0
LINE
  8
0
 10
-111.963
 20
724.655
 11
-112
 21
725.25
  0
LINE
  8
0
 10
-112
 20
725.25
 11
-112
 21
864.75
  0
LINE
  8
0
 10
-112
 20
864.75
 11
-111.963
 21
865.345
  0
LINE
  8
0
 10
-111.963
 20
865.345
 11
-111.851
 21
865.931
  0
LINE
  8
0
 10
-111.851
 20
865.931
 11
-111.666
 21
866.499
  0
LINE
  8
0
 10
-111.666
 20
866.499
 11
-111.412
 21
867.038
  0
LINE
  8
0
 10
-111.412
 20
867.038
 11
-111.093
 21
867.542
  0
LINE
  8
0
 10
-111.093
 20
867.542
 11
-110.713
 21
868.002
  0
LINE
  8
0
 10
-110.713
 20
868.002
 11
-110.278
 21
868.41
  0
LINE
  8
0
 10
-110.278
 20
868.41
 11
-109.795
 21
868.761
  0
LINE
  8
0
 10
-109.795
 20
868.761
 11
-109.272
 21
869.048
  0
LINE
  8
0
 10
-109.272
 20
869.048
 11
-108.718
 21
869.268
  0
LINE
  8
0
 10
-108.718
 20
869.268
 11
-108.14
 21
869.416
  0
LINE
  8
0
 10
-108.14
 20
869.416
 11
-107.548
 21
869.491
  0
LINE
  8
0
 10
-107.548
 20
869.491
 11
107.548
 21
869.491
  0
LINE
  8
0
 10
107.548
 20
869.491
 11
108.14
 21
869.416
  0
LINE
  8
0
 10
108.14
 20
869.416
 11
108.718
 21
869.268
  0
LINE
  8
0
 10
108.718
 20
869.268
 11
109.272
 21
869.048
  0
LINE
  8
0
 10
109.272
 20
869.048
 11
109.795
 21
868.761
  0
LINE
  8
0
 10
109.795
 20
868.761
 11
110.278
 21
868.41
  0
LINE
  8
0
 10
110.278
 20
868.41
 11
110.713
 21
868.002
  0
LINE
  8
0
 10
110.713
 20
868.002
 11
111.093
 21
867.542
  0
LINE
  8
0
 10
111.093
 20
867.542
 11
111.412
 21
867.038
  0
LINE
  8
0
 10
111.412
 20
867.038
 11
111.666
 21
866.499
  0
LINE
  8
0
 10
111.666
 20
866.499
 11
111.851
 21
865.931
  0
LINE
  8
0
 10
111.851
 20
865.931
 11
111.963
 21
865.345
  0
LINE
  8
0
 10
111.963
 20
865.345
 11
112
 21
864.75
  0
LINE
  8
0
 10
112
 20
864.75
 11
112
 21
725.25
  0
LINE
  8
0
 10
112
 20
725.25
 11
111.963
 21
724.655
  0
LINE
  8
0
 10
111.963
 20
724.655
 11
111.851
 21
724.069
  0
LINE
  8
0
 10
111.851
 20
724.069
 11
111.666
 21
723.501
  0
LINE
  8
0
 10
111.666
 20
723.501
 11
111.412
 21
722.962
  0
LINE
  8
0
 10
111.412
 20
722.962
 11
111.093
 21
722.458
  0
LINE
  8
0
 10
111.093
 20
722.458
 11
110.713
 21
721.998
  0
LINE
  8
0
 10
110.713
 20
721.998
 11
110.278
 21
721.59
  0
LINE
  8
0
 10
110.278
 20
721.59
 11
109.795
 21
721.239
  0
LINE
  8
0
 10
109.795
 20
721.239
 11
109.272
 21
720.952
  0
LINE
  8
0
 10
109.272
 20
720.952
 11
108.718
 21
720.732
  0
LINE
  8
0
 10
108.718
 20
720.732
 11
108.14
 21
720.584
  0
LINE
  8
0
 10
108.14
 20
720.584
 11
107.548
 21
720.509
  0
LINE
  8
0
 10
107.548
 20
720.509
 11
-107.548
 21
720.509
  0
LINE
  8
0
 10
108.437
 20
561.089
 11
109.045
 21
561.245
  0
LINE
  8
0
 10
109.045
 20
561.245
 11
109.629
 21
561.476
  0
LINE
  8
0
 10
109.629
 20
561.476
 11
110.179
 21
561.778
  0
LINE
  8
0
 10
110.179
 20
561.778
 11
110.687
 21
562.147
  0
LINE
  8
0
 10
110.687
 20
562.147
 11
111.145
 21
562.577
  0
LINE
  8
0
 10
111.145
 20
562.577
 11
111.545
 21
563.061
  0
LINE
  8
0
 10
111.545
 20
563.061
 11
111.882
 21
563.591
  0
LINE
  8
0
 10
111.882
 20
563.591
 11
112.149
 21
564.159
  0
LINE
  8
0
 10
112.149
 20
564.159
 11
112.343
 21
564.757
  0
LINE
  8
0
 10
112.343
 20
564.757
 11
112.461
 21
565.373
  0
LINE
  8
0
 10
112.461
 20
565.373
 11
112.5
 21
566
  0
LINE
  8
0
 10
112.5
 20
566
 11
112.5
 21
706
  0
LINE
  8
0
 10
112.5
 20
706
 11
112.461
 21
706.627
  0
LINE
  8
0
 10
112.461
 20
706.627
 11
112.343
 21
707.243
  0
LINE
  8
0
 10
112.343
 20
707.243
 11
112.149
 21
707.841
  0
LINE
  8
0
 10
112.149
 20
707.841
 11
111.882
 21
708.409
  0
LINE
  8
0
 10
111.882
 20
708.409
 11
111.545
 21
708.939
  0
LINE
  8
0
 10
111.545
 20
708.939
 11
111.145
 21
709.423
  0
LINE
  8
0
 10
111.145
 20
709.423
 11
110.687
 21
709.853
  0
LINE
  8
0
 10
110.687
 20
709.853
 11
110.179
 21
710.222
  0
LINE
  8
0
 10
110.179
 20
710.222
 11
109.629
 21
710.524
  0
LINE
  8
0
 10
109.629
 20
710.524
 11
109.045
 21
710.755
  0
LINE
  8
0
 10
109.045
 20
710.755
 11
108.437
 21
710.911
  0
LINE
  8
0
 10
108.437
 20
710.911
 11
107.814
 21
710.99
  0
LINE
  8
0
 10
107.814
 20
710.99
 11
-107.814
 21
710.99
  0
LINE
  8
0
 10
-107.814
 20
710.99
 11
-108.437
 21
710.911
  0
LINE
  8
0
 10
-108.437
 20
710.911
 11
-109.045
 21
710.755
  0
LINE
  8
0
 10
-109.045
 20
710.755
 11
-109.629
 21
710.524
  0
LINE
  8
0
 10
-109.629
 20
710.524
 11
-110.179
 21
710.222
  0
LINE
  8
0
 10
-110.179
 20
710.222
 11
-110.687
 21
709.853
  0
LINE
  8
0
 10
-110.687
 20
709.853
 11
-111.145
 21
709.423
  0
LINE
  8
0
 10
-111.145
 20
709.423
 11
-111.545
 21
708.939
  0
LINE
  8
0
 10
-111.545
 20
708.939
 11
-111.882
 21
708.409
  0
LINE
  8
0
 10
-111.882
 20
708.409
 11
-112.149
 21
707.841
  0
LINE
  8
0
 10
-112.149
 20
707.841
 11
-112.343
 21
707.243
  0
LINE
  8
0
 10
-112.343
 20
707.243
 11
-112.461
 21
706.627
  0
LINE
  8
0
 10
-112.461
 20
706.627
 11
-112.5
 21
706
  0
LINE
  8
0
 10
-112.5
 20
706
 11
-112.5
 21
566
  0
LINE
  8
0
 10
-112.5
 20
566
 11
-112.461
 21
565.373
  0
LINE
  8
0
 10
-112.461
 20
565.373
 11
-112.343
 21
564.757
  0
LINE
  8
0
 10
-112.343
 20
564.757
 11
-112.149
 21
564.159
  0
LINE
  8
0
 10
-112.149
 20
564.159
 11
-111.882
 21
563.591
  0
LINE
  8
0
 10
-111.882
 20
563.591
 11
-111.545
 21
563.061
  0
LINE
  8
0
 10
-111.545
 20
563.061
 11
-111.145
 21
562.577
  0
LINE
  8
0
 10
-111.145
 20
562.577
 11
-110.687
 21
562.147
  0
LINE
  8
0
 10
-110.687
 20
562.147
 11
-110.179
 21
561.778
  0
LINE
  8
0
 10
-110.179
 20
561.778
 11
-109.629
 21
561.476
  0
LINE
  8
0
 10
-109.629
 20
561.476
 11
-109.045
 21
561.245
  0
LINE
  8
0
 10
-109.045
 20
561.245
 11
-108.437
 21
561.089
  0
LINE
  8
0
 10
-108.437
 20
561.089
 11
-107.814
 21
561.01
  0
LINE
  8
0
 10
-107.814
 20
561.01
 11
107.814
 21
561.01
  0
LINE
  8
0
 10
107.814
 20
561.01
 11
108.437
 21
561.089
  0
LINE
  8
0
 10
-107.537
 20
561.681
 11
-108.108
 21
561.753
  0
LINE
  8
0
 10
-108.108
 20
561.753
 11
-108.665
 21
561.896
  0
LINE
  8
0
 10
-108.665
 20
561.896
 11
-109.199
 21
562.107
  0
LINE
  8
0
 10
-109.199
 20
562.107
 11
-109.703
 21
562.384
  0
LINE
  8
0
 10
-109.703
 20
562.384
 11
-110.168
 21
562.722
  0
LINE
  8
0
 10
-110.168
 20
562.722
 11
-110.588
 21
563.116
  0
LINE
  8
0
 10
-110.588
 20
563.116
 11
-110.954
 21
563.559
  0
LINE
  8
0
 10
-110.954
 20
563.559
 11
-111.262
 21
564.044
  0
LINE
  8
0
 10
-111.262
 20
564.044
 11
-111.507
 21
564.565
  0
LINE
  8
0
 10
-111.507
 20
564.565
 11
-111.685
 21
565.111
  0
LINE
  8
0
 10
-111.685
 20
565.111
 11
-111.792
 21
565.676
  0
LINE
  8
0
 10
-111.792
 20
565.676
 11
-111.828
 21
566.25
  0
LINE
  8
0
 10
-111.828
 20
566.25
 11
-111.828
 21
705.75
  0
LINE
  8
0
 10
-111.828
 20
705.75
 11
-111.792
 21
706.324
  0
LINE
  8
0
 10
-111.792
 20
706.324
 11
-111.685
 21
706.889
  0
LINE
  8
0
 10
-111.685
 20
706.889
 11
-111.507
 21
707.435
  0
LINE
  8
0
 10
-111.507
 20
707.435
 11
-111.262
 21
707.956
  0
LINE
  8
0
 10
-111.262
 20
707.956
 11
-110.954
 21
708.441
  0
LINE
  8
0
 10
-110.954
 20
708.441
 11
-110.588
 21
708.884
  0
LINE
  8
0
 10
-110.588
 20
708.884
 11
-110.168
 21
709.278
  0
LINE
  8
0
 10
-110.168
 20
709.278
 11
-109.703
 21
709.616
  0
LINE
  8
0
 10
-109.703
 20
709.616
 11
-109.199
 21
709.893
  0
LINE
  8
0
 10
-109.199
 20
709.893
 11
-108.665
 21
710.104
  0
LINE
  8
0
 10
-108.665
 20
710.104
 11
-108.108
 21
710.247
  0
LINE
  8
0
 10
-108.108
 20
710.247
 11
-107.537
 21
710.319
  0
LINE
  8
0
 10
-107.537
 20
710.319
 11
107.537
 21
710.319
  0
LINE
  8
0
 10
107.537
 20
710.319
 11
108.108
 21
710.247
  0
LINE
  8
0
 10
108.108
 20
710.247
 11
108.665
 21
710.104
  0
LINE
  8
0
 10
108.665
 20
710.104
 11
109.199
 21
709.893
  0
LINE
  8
0
 10
109.199
 20
709.893
 11
109.703
 21
709.616
  0
LINE
  8
0
 10
109.703
 20
709.616
 11
110.168
 21
709.278
  0
LINE
  8
0
 10
110.168
 20
709.278
 11
110.588
 21
708.884
  0
LINE
  8
0
 10
110.588
 20
708.884
 11
110.954
 21
708.441
  0
LINE
  8
0
 10
110.954
 20
708.441
 11
111.262
 21
707.956
  0
LINE
  8
0
 10
111.262
 20
707.956
 11
111.507
 21
707.435
  0
LINE
  8
0
 10
111.507
 20
707.435
 11
111.685
 21
706.889
  0
LINE
  8
0
 10
111.685
 20
706.889
 11
111.792
 21
706.324
  0
LINE
  8
0
 10
111.792
 20
706.324
 11
111.828
 21
705.75
  0
LINE
  8
0
 10
111.828
 20
705.75
 11
111.828
 21
566.25
  0
LINE
  8
0
 10
111.828
 20
566.25
 11
111.792
 21
565.676
  0
LINE
  8
0
 10
111.792
 20
565.676
 11
111.685
 21
565.111
  0
LINE
  8
0
 10
111.685
 20
565.111
 11
111.507
 21
564.565
  0
LINE
  8
0
 10
111.507
 20
564.565
 11
111.262
 21
564.044
  0
LINE
  8
0
 10
111.262
 20
564.044
 11
110.954
 21
563.559
  0
LINE
  8
0
 10
110.954
 20
563.559
 11
110.588
 21
563.116
  0
LINE
  8
0
 10
110.588
 20
563.116
 11
110.168
 21
562.722
  0
LINE
  8
0
 10
110.168
 20
562.722
 11
109.703
 21
562.384
  0
LINE
  8
0
 10
109.703
 20
562.384
 11
109.199
 21
562.107
  0
LINE
  8
0
 10
109.199
 20
562.107
 11
108.665
 21
561.896
  0
LINE
  8
0
 10
108.665
 20
561.896
 11
108.108
 21
561.753
  0
LINE
  8
0
 10
108.108
 20
561.753
 11
107.537
 21
561.681
  0
LINE
  8
0
 10
107.537
 20
561.681
 11
-107.537
 21
561.681
  0
LINE
  8
0
 10
108.437
 20
402.089
 11
109.045
 21
402.245
  0
LINE
  8
0
 10
109.045
 20
402.245
 11
109.629
 21
402.476
  0
LINE
  8
0
 10
109.629
 20
402.476
 11
110.179
 21
402.778
  0
LINE
  8
0
 10
110.179
 20
402.778
 11
110.687
 21
403.147
  0
LINE
  8
0
 10
110.687
 20
403.147
 11
111.145
 21
403.577
  0
LINE
  8
0
 10
111.145
 20
403.577
 11
111.545
 21
404.061
  0
LINE
  8
0
 10
111.545
 20
404.061
 11
111.882
 21
404.591
  0
LINE
  8
0
 10
111.882
 20
404.591
 11
112.149
 21
405.159
  0
LINE
  8
0
 10
112.149
 20
405.159
 11
112.343
 21
405.757
  0
LINE
  8
0
 10
112.343
 20
405.757
 11
112.461
 21
406.373
  0
LINE
  8
0
 10
112.461
 20
406.373
 11
112.5
 21
407
  0
LINE
  8
0
 10
112.5
 20
407
 11
112.5
 21
547
  0
LINE
  8
0
 10
112.5
 20
547
 11
112.461
 21
547.627
  0
LINE
  8
0
 10
112.461
 20
547.627
 11
112.343
 21
548.243
  0
LINE
  8
0
 10
112.343
 20
548.243
 11
112.149
 21
548.841
  0
LINE
  8
0
 10
112.149
 20
548.841
 11
111.882
 21
549.409
  0
LINE
  8
0
 10
111.882
 20
549.409
 11
111.545
 21
549.939
  0
LINE
  8
0
 10
111.545
 20
549.939
 11
111.145
 21
550.423
  0
LINE
  8
0
 10
111.145
 20
550.423
 11
110.687
 21
550.853
  0
LINE
  8
0
 10
110.687
 20
550.853
 11
110.179
 21
551.222
  0
LINE
  8
0
 10
110.179
 20
551.222
 11
109.629
 21
551.524
  0
LINE
  8
0
 10
109.629
 20
551.524
 11
109.045
 21
551.755
  0
LINE
  8
0
 10
109.045
 20
551.755
 11
108.437
 21
551.911
  0
LINE
  8
0
 10
108.437
 20
551.911
 11
107.814
 21
551.99
  0
LINE
  8
0
 10
107.814
 20
551.99
 11
-107.814
 21
551.99
  0
LINE
  8
0
 10
-107.814
 20
551.99
 11
-108.437
 21
551.911
  0
LINE
  8
0
 10
-108.437
 20
551.911
 11
-109.045
 21
551.755
  0
LINE
  8
0
 10
-109.045
 20
551.755
 11
-109.629
 21
551.524
  0
LINE
  8
0
 10
-109.629
 20
551.524
 11
-110.179
 21
551.222
  0
LINE
  8
0
 10
-110.179
 20
551.222
 11
-110.687
 21
550.853
  0
LINE
  8
0
 10
-110.687
 20
550.853
 11
-111.145
 21
550.423
  0
LINE
  8
0
 10
-111.145
 20
550.423
 11
-111.545
 21
549.939
  0
LINE
  8
0
 10
-111.545
 20
549.939
 11
-111.882
 21
549.409
  0
LINE
  8
0
 10
-111.882
 20
549.409
 11
-112.149
 21
548.841
  0
LINE
  8
0
 10
-112.149
 20
548.841
 11
-112.343
 21
548.243
  0
LINE
  8
0
 10
-112.343
 20
548.243
 11
-112.461
 21
547.627
  0
LINE
  8
0
 10
-112.461
 20
547.627
 11
-112.5
 21
547
  0
LINE
  8
0
 10
-112.5
 20
547
 11
-112.5
 21
407
  0
LINE
  8
0
 10
-112.5
 20
407
 11
-112.461
 21
406.373
  0
LINE
  8
0
 10
-112.461
 20
406.373
 11
-112.343
 21
405.757
  0
LINE
  8
0
 10
-112.343
 20
405.757
 11
-112.149
 21
405.159
  0
LINE
  8
0
 10
-112.149
 20
405.159
 11
-111.882
 21
404.591
  0
LINE
  8
0
 10
-111.882
 20
404.591
 11
-111.545
 21
404.061
  0
LINE
  8
0
 10
-111.545
 20
404.061
 11
-111.145
 21
403.577
  0
LINE
  8
0
 10
-111.145
 20
403.577
 11
-110.687
 21
403.147
  0
LINE
  8
0
 10
-110.687
 20
403.147
 11
-110.179
 21
402.778
  0
LINE
  8
0
 10
-110.179
 20
402.778
 11
-109.629
 21
402.476
  0
LINE
  8
0
 10
-109.629
 20
402.476
 11
-109.045
 21
402.245
  0
LINE
  8
0
 10
-109.045
 20
402.245
 11
-108.437
 21
402.089
  0
LINE
  8
0
 10
-108.437
 20
402.089
 11
-107.814
 21
402.01
  0
LINE
  8
0
 10
-107.814
 20
402.01
 11
107.814
 21
402.01
  0
LINE
  8
0
 10
107.814
 20
402.01
 11
108.437
 21
402.089
  0
LINE
  8
0
 10
-107.382
 20
405.145
 11
-107.645
 21
405.178
  0
LINE
  8
0
 10
-107.645
 20
405.178
 11
-107.902
 21
405.244
  0
LINE
  8
0
 10
-107.902
 20
405.244
 11
-108.148
 21
405.341
  0
LINE
  8
0
 10
-108.148
 20
405.341
 11
-108.38
 21
405.469
  0
LINE
  8
0
 10
-108.38
 20
405.469
 11
-108.595
 21
405.624
  0
LINE
  8
0
 10
-108.595
 20
405.624
 11
-108.788
 21
405.806
  0
LINE
  8
0
 10
-108.788
 20
405.806
 11
-108.957
 21
406.01
  0
LINE
  8
0
 10
-108.957
 20
406.01
 11
-109.099
 21
406.234
  0
LINE
  8
0
 10
-109.099
 20
406.234
 11
-109.211
 21
406.473
  0
LINE
  8
0
 10
-109.211
 20
406.473
 11
-109.293
 21
406.725
  0
LINE
  8
0
 10
-109.293
 20
406.725
 11
-109.343
 21
406.986
  0
LINE
  8
0
 10
-109.343
 20
406.986
 11
-109.36
 21
407.25
  0
LINE
  8
0
 10
-109.36
 20
407.25
 11
-109.36
 21
546.75
  0
LINE
  8
0
 10
-109.36
 20
546.75
 11
-109.343
 21
547.014
  0
LINE
  8
0
 10
-109.343
 20
547.014
 11
-109.293
 21
547.275
  0
LINE
  8
0
 10
-109.293
 20
547.275
 11
-109.211
 21
547.527
  0
LINE
  8
0
 10
-109.211
 20
547.527
 11
-109.099
 21
547.766
  0
LINE
  8
0
 10
-109.099
 20
547.766
 11
-108.957
 21
547.99
  0
LINE
  8
0
 10
-108.957
 20
547.99
 11
-108.788
 21
548.194
  0
LINE
  8
0
 10
-108.788
 20
548.194
 11
-108.595
 21
548.376
  0
LINE
  8
0
 10
-108.595
 20
548.376
 11
-108.38
 21
548.531
  0
LINE
  8
0
 10
-108.38
 20
548.531
 11
-108.148
 21
548.659
  0
LINE
  8
0
 10
-108.148
 20
548.659
 11
-107.902
 21
548.756
  0
LINE
  8
0
 10
-107.902
 20
548.756
 11
-107.645
 21
548.822
  0
LINE
  8
0
 10
-107.645
 20
548.822
 11
-107.382
 21
548.855
  0
LINE
  8
0
 10
-107.382
 20
548.855
 11
107.382
 21
548.855
  0
LINE
  8
0
 10
107.382
 20
548.855
 11
107.645
 21
548.822
  0
LINE
  8
0
 10
107.645
 20
548.822
 11
107.902
 21
548.756
  0
LINE
  8
0
 10
107.902
 20
548.756
 11
108.148
 21
548.659
  0
LINE
  8
0
 10
108.148
 20
548.659
 11
108.38
 21
548.531
  0
LINE
  8
0
 10
108.38
 20
548.531
 11
108.595
 21
548.376
  0
LINE
  8
0
 10
108.595
 20
548.376
 11
108.788
 21
548.194
  0
LINE
  8
0
 10
108.788
 20
548.194
 11
108.957
 21
547.99
  0
LINE
  8
0
 10
108.957
 20
547.99
 11
109.099
 21
547.766
  0
LINE
  8
0
 10
109.099
 20
547.766
 11
109.211
 21
547.527
  0
LINE
  8
0
 10
109.211
 20
547.527
 11
109.293
 21
547.275
  0
LINE
  8
0
 10
109.293
 20
547.275
 11
109.343
 21
547.014
  0
LINE
  8
0
 10
109.343
 20
547.014
 11
109.36
 21
546.75
  0
LINE
  8
0
 10
109.36
 20
546.75
 11
109.36
 21
407.25
  0
LINE
  8
0
 10
109.36
 20
407.25
 11
109.343
 21
406.986
  0
LINE
  8
0
 10
109.343
 20
406.986
 11
109.293
 21
406.725
  0
LINE
  8
0
 10
109.293
 20
406.725
 11
109.211
 21
406.473
  0
LINE
  8
0
 10
109.211
 20
406.473
 11
109.099
 21
406.234
  0
LINE
  8
0
 10
109.099
 20
406.234
 11
108.957
 21
406.01
  0
LINE
  8
0
 10
108.957
 20
406.01
 11
108.788
 21
405.806
  0
LINE
  8
0
 10
108.788
 20
405.806
 11
108.595
 21
405.624
  0
LINE
  8
0
 10
108.595
 20
405.624
 11
108.38
 21
405.469
  0
LINE
  8
0
 10
108.38
 20
405.469
 11
108.148
 21
405.341
  0
LINE
  8
0
 10
108.148
 20
405.341
 11
107.902
 21
405.244
  0
LINE
  8
0
 10
107.902
 20
405.244
 11
107.645
 21
405.178
  0
LINE
  8
0
 10
107.645
 20
405.178
 11
107.382
 21
405.145
  0
LINE
  8
0
 10
107.382
 20
405.145
 11
-107.382
 21
405.145
  0
ENDSEC
  0
SECTION
  2
OBJECTS
  0
DICTIONARY
  0
ENDSEC
  0
EOF
