<?xml version="1.0" standalone="no"?>
<!DOCTYPE svg PUBLIC "-//W3C//DTD SVG 1.1//EN" "http://www.w3.org/Graphics/SVG/1.1/DTD/svg11.dtd">
<svg width="196mm" height="1107mm" viewBox="-98 -2088 196 1107" xmlns="http://www.w3.org/2000/svg" version="1.1">
<title>OpenSCAD Model</title>
<path d="
M 93.4369,-1818.09 L 94.0451,-1818.24 L 94.6289,-1818.48 L 95.1791,-1818.78 L 95.6871,-1819.15 L 96.1448,-1819.58
 L 96.5451,-1820.06 L 96.8815,-1820.59 L 97.1489,-1821.16 L 97.3429,-1821.76 L 97.4606,-1822.37 L 97.5,-1823
 L 97.5,-2083 L 97.4606,-2083.63 L 97.3429,-2084.24 L 97.1489,-2084.84 L 96.8815,-2085.41 L 96.5451,-2085.94
 L 96.1448,-2086.42 L 95.6871,-2086.85 L 95.1791,-2087.22 L 94.6289,-2087.52 L 94.0451,-2087.76 L 93.4369,-2087.91
 L 92.8139,-2087.99 L -92.8139,-2087.99 L -93.4369,-2087.91 L -94.0451,-2087.76 L -94.6289,-2087.52 L -95.1791,-2087.22
 L -95.6871,-2086.85 L -96.1448,-2086.42 L -96.5451,-2085.94 L -96.8815,-2085.41 L -97.1489,-2084.84 L -97.3429,-2084.24
 L -97.4606,-2083.63 L -97.5,-2083 L -97.5,-1823 L -97.4606,-1822.37 L -97.3429,-1821.76 L -97.1489,-1821.16
 L -96.8815,-1820.59 L -96.5451,-1820.06 L -96.1448,-1819.58 L -95.6871,-1819.15 L -95.1791,-1818.78 L -94.6289,-1818.48
 L -94.0451,-1818.24 L -93.4369,-1818.09 L -92.8139,-1818.01 L 92.8139,-1818.01 z
M -92.2512,-1819.51 L -92.7495,-1819.57 L -93.2361,-1819.7 L -93.7031,-1819.88 L -94.1433,-1820.12 L -94.5497,-1820.42
 L -94.9159,-1820.76 L -95.2361,-1821.15 L -95.5052,-1821.57 L -95.7191,-1822.03 L -95.8743,-1822.51 L -95.9685,-1823
 L -96,-1823.5 L -96,-2082.5 L -95.9685,-2083 L -95.8743,-2083.49 L -95.7191,-2083.97 L -95.5052,-2084.43
 L -95.2361,-2084.85 L -94.9159,-2085.24 L -94.5497,-2085.58 L -94.1433,-2085.88 L -93.7031,-2086.12 L -93.2361,-2086.3
 L -92.7495,-2086.43 L -92.2512,-2086.49 L 92.2512,-2086.49 L 92.7495,-2086.43 L 93.2361,-2086.3 L 93.7031,-2086.12
 L 94.1433,-2085.88 L 94.5497,-2085.58 L 94.9159,-2085.24 L 95.2361,-2084.85 L 95.5052,-2084.43 L 95.7191,-2083.97
 L 95.8743,-2083.49 L 95.9685,-2083 L 96,-2082.5 L 96,-1823.5 L 95.9685,-1823 L 95.8743,-1822.51
 L 95.7191,-1822.03 L 95.5052,-1821.57 L 95.2361,-1821.15 L 94.9159,-1820.76 L 94.5497,-1820.42 L 94.1433,-1820.12
 L 93.7031,-1819.88 L 93.2361,-1819.7 L 92.7495,-1819.57 L 92.2512,-1819.51 z
M 93.4369,-1539.09 L 94.0451,-1539.24 L 94.6289,-1539.48 L 95.1791,-1539.78 L 95.6871,-1540.15 L 96.1448,-1540.58
 L 96.5451,-1541.06 L 96.8815,-1541.59 L 97.1489,-1542.16 L 97.3429,-1542.76 L 97.4606,-1543.37 L 97.5,-1544
 L 97.5,-1804 L 97.4606,-1804.63 L 97.3429,-1805.24 L 97.1489,-1805.84 L 96.8815,-1806.41 L 96.5451,-1806.94
 L 96.1448,-1807.42 L 95.6871,-1807.85 L 95.1791,-1808.22 L 94.6289,-1808.52 L 94.0451,-1808.76 L 93.4369,-1808.91
 L 92.8139,-1808.99 L -92.8139,-1808.99 L -93.4369,-1808.91 L -94.0451,-1808.76 L -94.6289,-1808.52 L -95.1791,-1808.22
 L -95.6871,-1807.85 L -96.1448,-1807.42 L -96.5451,-1806.94 L -96.8815,-1806.41 L -97.1489,-1805.84 L -97.3429,-1805.24
 L -97.4606,-1804.63 L -97.5,-1804 L -97.5,-1544 L -97.4606,-1543.37 L -97.3429,-1542.76 L -97.1489,-1542.16
 L -96.8815,-1541.59 L -96.5451,-1541.06 L -96.1448,-1540.58 L -95.6871,-1540.15 L -95.1791,-1539.78 L -94.6289,-1539.48
 L -94.0451,-1539.24 L -93.4369,-1539.09 L -92.8139,-1539.01 L 92.8139,-1539.01 z
M -92.2512,-1540.51 L -92.7495,-1540.57 L -93.2361,-1540.7 L -93.7031,-1540.88 L -94.1433,-1541.12 L -94.5497,-1541.42
 L -94.9159,-1541.76 L -95.2361,-1542.15 L -95.5052,-1542.57 L -95.7191,-1543.03 L -95.8743,-1543.51 L -95.9685,-1544
 L -96,-1544.5 L -96,-1803.5 L -95.9685,-1804 L -95.8743,-1804.49 L -95.7191,-1804.97 L -95.5052,-1805.43
 L -95.2361,-1805.85 L -94.9159,-1806.24 L -94.5497,-1806.58 L -94.1433,-1806.88 L -93.7031,-1807.12 L -93.2361,-1807.3
 L -92.7495,-1807.43 L -92.2512,-1807.49 L 92.2512,-1807.49 L 92.7495,-1807.43 L 93.2361,-1807.3 L 93.7031,-1807.12
 L 94.1433,-1806.88 L 94.5497,-1806.58 L 94.9159,-1806.24 L 95.2361,-1805.85 L 95.5052,-1805.43 L 95.7191,-1804.97
 L 95.8743,-1804.49 L 95.9685,-1804 L 96,-1803.5 L 96,-1544.5 L 95.9685,-1544 L 95.8743,-1543.51
 L 95.7191,-1543.03 L 95.5052,-1542.57 L 95.2361,-1542.15 L 94.9159,-1541.76 L 94.5497,-1541.42 L 94.1433,-1541.12
 L 93.7031,-1540.88 L 93.2361,-1540.7 L 92.7495,-1540.57 L 92.2512,-1540.51 z
M 93.4369,-1260.09 L 94.0451,-1260.24 L 94.6289,-1260.48 L 95.1791,-1260.78 L 95.6871,-1261.15 L 96.1448,-1261.58
 L 96.5451,-1262.06 L 96.8815,-1262.59 L 97.1489,-1263.16 L 97.3429,-1263.76 L 97.4606,-1264.37 L 97.5,-1265
 L 97.5,-1525 L 97.4606,-1525.63 L 97.3429,-1526.24 L 97.1489,-1526.84 L 96.8815,-1527.41 L 96.5451,-1527.94
 L 96.1448,-1528.42 L 95.6871,-1528.85 L 95.1791,-1529.22 L 94.6289,-1529.52 L 94.0451,-1529.76 L 93.4369,-1529.91
 L 92.8139,-1529.99 L -92.8139,-1529.99 L -93.4369,-1529.91 L -94.0451,-1529.76 L -94.6289,-1529.52 L -95.1791,-1529.22
 L -95.6871,-1528.85 L -96.1448,-1528.42 L -96.5451,-1527.94 L -96.8815,-1527.41 L -97.1489,-1526.84 L -97.3429,-1526.24
 L -97.4606,-1525.63 L -97.5,-1525 L -97.5,-1265 L -97.4606,-1264.37 L -97.3429,-1263.76 L -97.1489,-1263.16
 L -96.8815,-1262.59 L -96.5451,-1262.06 L -96.1448,-1261.58 L -95.6871,-1261.15 L -95.1791,-1260.78 L -94.6289,-1260.48
 L -94.0451,-1260.24 L -93.4369,-1260.09 L -92.8139,-1260.01 L 92.8139,-1260.01 z
M -92.1955,-1262.39 L -92.5833,-1262.44 L -92.9619,-1262.54 L -93.3254,-1262.68 L -93.668,-1262.87 L -93.9843,-1263.1
 L -94.2692,-1263.37 L -94.5184,-1263.67 L -94.7279,-1264 L -94.8943,-1264.35 L -95.0151,-1264.73 L -95.0884,-1265.11
 L -95.1129,-1265.5 L -95.1129,-1524.5 L -95.0884,-1524.89 L -95.0151,-1525.27 L -94.8943,-1525.65 L -94.7279,-1526
 L -94.5184,-1526.33 L -94.2692,-1526.63 L -93.9843,-1526.9 L -93.668,-1527.13 L -93.3254,-1527.32 L -92.9619,-1527.46
 L -92.5833,-1527.56 L -92.1955,-1527.61 L 92.1955,-1527.61 L 92.5833,-1527.56 L 92.9619,-1527.46 L 93.3254,-1527.32
 L 93.668,-1527.13 L 93.9843,-1526.9 L 94.2692,-1526.63 L 94.5184,-1526.33 L 94.7279,-1526 L 94.8943,-1525.65
 L 95.0151,-1525.27 L 95.0884,-1524.89 L 95.1129,-1524.5 L 95.1129,-1265.5 L 95.0884,-1265.11 L 95.0151,-1264.73
 L 94.8943,-1264.35 L 94.7279,-1264 L 94.5184,-1263.67 L 94.2692,-1263.37 L 93.9843,-1263.1 L 93.668,-1262.87
 L 93.3254,-1262.68 L 92.9619,-1262.54 L 92.5833,-1262.44 L 92.1955,-1262.39 z
M 93.4369,-981.089 L 94.0451,-981.245 L 94.6289,-981.476 L 95.1791,-981.778 L 95.6871,-982.147 L 96.1448,-982.577
 L 96.5451,-983.061 L 96.8815,-983.591 L 97.1489,-984.159 L 97.3429,-984.757 L 97.4606,-985.373 L 97.5,-986
 L 97.5,-1246 L 97.4606,-1246.63 L 97.3429,-1247.24 L 97.1489,-1247.84 L 96.8815,-1248.41 L 96.5451,-1248.94
 L 96.1448,-1249.42 L 95.6871,-1249.85 L 95.1791,-1250.22 L 94.6289,-1250.52 L 94.0451,-1250.76 L 93.4369,-1250.91
 L 92.8139,-1250.99 L -92.8139,-1250.99 L -93.4369,-1250.91 L -94.0451,-1250.76 L -94.6289,-1250.52 L -95.1791,-1250.22
 L -95.6871,-1249.85 L -96.1448,-1249.42 L -96.5451,-1248.94 L -96.8815,-1248.41 L -97.1489,-1247.84 L -97.3429,-1247.24
 L -97.4606,-1246.63 L -97.5,-1246 L -97.5,-986 L -97.4606,-985.373 L -97.3429,-984.757 L -97.1489,-984.159
 L -96.8815,-983.591 L -96.5451,-983.061 L -96.1448,-982.577 L -95.6871,-982.147 L -95.1791,-981.778 L -94.6289,-981.476
 L -94.0451,-981.245 L -93.4369,-981.089 L -92.8139,-981.01 L 92.8139,-981.01 z
M 89.8659,-1241.37 L 89.5999,-1241.4 L 89.3401,-1241.47 L 89.0908,-1241.57 L 88.8559,-1241.7 L 88.6389,-1241.85
 L 88.4434,-1242.04 L 88.2725,-1242.24 L 88.1288,-1242.47 L 88.0146,-1242.71 L 87.9318,-1242.97 L 87.8815,-1243.23
 L 87.8647,-1243.5 L 87.8815,-1243.77 L 87.9318,-1244.03 L 88.0146,-1244.29 L 88.1288,-1244.53 L 88.2725,-1244.76
 L 88.4434,-1244.96 L 88.6389,-1245.15 L 88.8559,-1245.3 L 89.0908,-1245.43 L 89.3401,-1245.53 L 89.5999,-1245.6
 L 89.8659,-1245.63 L 90.1341,-1245.63 L 90.4001,-1245.6 L 90.6598,-1245.53 L 90.9092,-1245.43 L 91.1441,-1245.3
 L 91.3611,-1245.15 L 91.5566,-1244.96 L 91.7275,-1244.76 L 91.8712,-1244.53 L 91.9853,-1244.29 L 92.0682,-1244.03
 L 92.1185,-1243.77 L 92.1353,-1243.5 L 92.1185,-1243.23 L 92.0682,-1242.97 L 91.9853,-1242.71 L 91.8712,-1242.47
 L 91.7275,-1242.24 L 91.5566,-1242.04 L 91.3611,-1241.85 L 91.1441,-1241.7 L 90.9092,-1241.57 L 90.6598,-1241.47
 L 90.4001,-1241.4 L 90.1341,-1241.37 z
M -90.1341,-1241.37 L -90.4001,-1241.4 L -90.6598,-1241.47 L -90.9092,-1241.57 L -91.1441,-1241.7 L -91.3611,-1241.85
 L -91.5566,-1242.04 L -91.7275,-1242.24 L -91.8712,-1242.47 L -91.9853,-1242.71 L -92.0682,-1242.97 L -92.1185,-1243.23
 L -92.1353,-1243.5 L -92.1185,-1243.77 L -92.0682,-1244.03 L -91.9853,-1244.29 L -91.8712,-1244.53 L -91.7275,-1244.76
 L -91.5566,-1244.96 L -91.3611,-1245.15 L -91.1441,-1245.3 L -90.9092,-1245.43 L -90.6598,-1245.53 L -90.4001,-1245.6
 L -90.1341,-1245.63 L -89.8659,-1245.63 L -89.5999,-1245.6 L -89.3401,-1245.53 L -89.0908,-1245.43 L -88.8559,-1245.3
 L -88.6389,-1245.15 L -88.4434,-1244.96 L -88.2725,-1244.76 L -88.1288,-1244.53 L -88.0146,-1244.29 L -87.9318,-1244.03
 L -87.8815,-1243.77 L -87.8647,-1243.5 L -87.8815,-1243.23 L -87.9318,-1242.97 L -88.0146,-1242.71 L -88.1288,-1242.47
 L -88.2725,-1242.24 L -88.4434,-1242.04 L -88.6389,-1241.85 L -88.8559,-1241.7 L -89.0908,-1241.57 L -89.3401,-1241.47
 L -89.5999,-1241.4 L -89.8659,-1241.37 z
M 89.8659,-986.369 L 89.5999,-986.403 L 89.3401,-986.469 L 89.0908,-986.568 L 88.8559,-986.697 L 88.6389,-986.855
 L 88.4434,-987.038 L 88.2725,-987.245 L 88.1288,-987.471 L 88.0146,-987.714 L 87.9318,-987.969 L 87.8815,-988.232
 L 87.8647,-988.5 L 87.8815,-988.768 L 87.9318,-989.031 L 88.0146,-989.286 L 88.1288,-989.529 L 88.2725,-989.755
 L 88.4434,-989.962 L 88.6389,-990.145 L 88.8559,-990.303 L 89.0908,-990.432 L 89.3401,-990.531 L 89.5999,-990.597
 L 89.8659,-990.631 L 90.1341,-990.631 L 90.4001,-990.597 L 90.6598,-990.531 L 90.9092,-990.432 L 91.1441,-990.303
 L 91.3611,-990.145 L 91.5566,-989.962 L 91.7275,-989.755 L 91.8712,-989.529 L 91.9853,-989.286 L 92.0682,-989.031
 L 92.1185,-988.768 L 92.1353,-988.5 L 92.1185,-988.232 L 92.0682,-987.969 L 91.9853,-987.714 L 91.8712,-987.471
 L 91.7275,-987.245 L 91.5566,-987.038 L 91.3611,-986.855 L 91.1441,-986.697 L 90.9092,-986.568 L 90.6598,-986.469
 L 90.4001,-986.403 L 90.1341,-986.369 z
M -90.1341,-986.369 L -90.4001,-986.403 L -90.6598,-986.469 L -90.9092,-986.568 L -91.1441,-986.697 L -91.3611,-986.855
 L -91.5566,-987.038 L -91.7275,-987.245 L -91.8712,-987.471 L -91.9853,-987.714 L -92.0682,-987.969 L -92.1185,-988.232
 L -92.1353,-988.5 L -92.1185,-988.768 L -92.0682,-989.031 L -91.9853,-989.286 L -91.8712,-989.529 L -91.7275,-989.755
 L -91.5566,-989.962 L -91.3611,-990.145 L -91.1441,-990.303 L -90.9092,-990.432 L -90.6598,-990.531 L -90.4001,-990.597
 L -90.1341,-990.631 L -89.8659,-990.631 L -89.5999,-990.597 L -89.3401,-990.531 L -89.0908,-990.432 L -88.8559,-990.303
 L -88.6389,-990.145 L -88.4434,-989.962 L -88.2725,-989.755 L -88.1288,-989.529 L -88.0146,-989.286 L -87.9318,-989.031
 L -87.8815,-988.768 L -87.8647,-988.5 L -87.8815,-988.232 L -87.9318,-987.969 L -88.0146,-987.714 L -88.1288,-987.471
 L -88.2725,-987.245 L -88.4434,-987.038 L -88.6389,-986.855 L -88.8559,-986.697 L -89.0908,-986.568 L -89.3401,-986.469
 L -89.5999,-986.403 L -89.8659,-986.369 z
" stroke="black" fill="lightgray" stroke-width="0.5"/>
</svg>
