<?xml version="1.0" standalone="no"?>
<!DOCTYPE svg PUBLIC "-//W3C//DTD SVG 1.1//EN" "http://www.w3.org/Graphics/SVG/1.1/DTD/svg11.dtd">
<svg width="76mm" height="1168mm" viewBox="-38 -2201 76 1168" xmlns="http://www.w3.org/2000/svg" version="1.1">
<title>OpenSCAD Model</title>
<path d="
M 33.4369,-1915.59 L 34.0451,-1915.74 L 34.6289,-1915.98 L 35.1791,-1916.28 L 35.6871,-1916.65 L 36.1448,-1917.08
 L 36.5451,-1917.56 L 36.8815,-1918.09 L 37.1489,-1918.66 L 37.3429,-1919.26 L 37.4606,-1919.87 L 37.5,-1920.5
 L 37.5,-2195.5 L 37.4606,-2196.13 L 37.3429,-2196.74 L 37.1489,-2197.34 L 36.8815,-2197.91 L 36.5451,-2198.44
 L 36.1448,-2198.92 L 35.6871,-2199.35 L 35.1791,-2199.72 L 34.6289,-2200.02 L 34.0451,-2200.26 L 33.4369,-2200.41
 L 32.8139,-2200.49 L -32.8139,-2200.49 L -33.4369,-2200.41 L -34.0451,-2200.26 L -34.6289,-2200.02 L -35.1791,-2199.72
 L -35.6871,-2199.35 L -36.1448,-2198.92 L -36.5451,-2198.44 L -36.8815,-2197.91 L -37.1489,-2197.34 L -37.3429,-2196.74
 L -37.4606,-2196.13 L -37.5,-2195.5 L -37.5,-1920.5 L -37.4606,-1919.87 L -37.3429,-1919.26 L -37.1489,-1918.66
 L -36.8815,-1918.09 L -36.5451,-1917.56 L -36.1448,-1917.08 L -35.6871,-1916.65 L -35.1791,-1916.28 L -34.6289,-1915.98
 L -34.0451,-1915.74 L -33.4369,-1915.59 L -32.8139,-1915.51 L 32.8139,-1915.51 z
M -32.2512,-1917.01 L -32.7495,-1917.07 L -33.2361,-1917.2 L -33.7031,-1917.38 L -34.1433,-1917.62 L -34.5497,-1917.92
 L -34.9159,-1918.26 L -35.2361,-1918.65 L -35.5052,-1919.07 L -35.7191,-1919.53 L -35.8743,-1920.01 L -35.9685,-1920.5
 L -36,-1921 L -36,-2195 L -35.9685,-2195.5 L -35.8743,-2195.99 L -35.7191,-2196.47 L -35.5052,-2196.93
 L -35.2361,-2197.35 L -34.9159,-2197.74 L -34.5497,-2198.08 L -34.1433,-2198.38 L -33.7031,-2198.62 L -33.2361,-2198.8
 L -32.7495,-2198.93 L -32.2512,-2198.99 L 32.2512,-2198.99 L 32.7495,-2198.93 L 33.2361,-2198.8 L 33.7031,-2198.62
 L 34.1433,-2198.38 L 34.5497,-2198.08 L 34.9159,-2197.74 L 35.2361,-2197.35 L 35.5052,-2196.93 L 35.7191,-2196.47
 L 35.8743,-2195.99 L 35.9685,-2195.5 L 36,-2195 L 36,-1921 L 35.9685,-1920.5 L 35.8743,-1920.01
 L 35.7191,-1919.53 L 35.5052,-1919.07 L 35.2361,-1918.65 L 34.9159,-1918.26 L 34.5497,-1917.92 L 34.1433,-1917.62
 L 33.7031,-1917.38 L 33.2361,-1917.2 L 32.7495,-1917.07 L 32.2512,-1917.01 z
M 33.4369,-1621.59 L 34.0451,-1621.74 L 34.6289,-1621.98 L 35.1791,-1622.28 L 35.6871,-1622.65 L 36.1448,-1623.08
 L 36.5451,-1623.56 L 36.8815,-1624.09 L 37.1489,-1624.66 L 37.3429,-1625.26 L 37.4606,-1625.87 L 37.5,-1626.5
 L 37.5,-1901.5 L 37.4606,-1902.13 L 37.3429,-1902.74 L 37.1489,-1903.34 L 36.8815,-1903.91 L 36.5451,-1904.44
 L 36.1448,-1904.92 L 35.6871,-1905.35 L 35.1791,-1905.72 L 34.6289,-1906.02 L 34.0451,-1906.26 L 33.4369,-1906.41
 L 32.8139,-1906.49 L -32.8139,-1906.49 L -33.4369,-1906.41 L -34.0451,-1906.26 L -34.6289,-1906.02 L -35.1791,-1905.72
 L -35.6871,-1905.35 L -36.1448,-1904.92 L -36.5451,-1904.44 L -36.8815,-1903.91 L -37.1489,-1903.34 L -37.3429,-1902.74
 L -37.4606,-1902.13 L -37.5,-1901.5 L -37.5,-1626.5 L -37.4606,-1625.87 L -37.3429,-1625.26 L -37.1489,-1624.66
 L -36.8815,-1624.09 L -36.5451,-1623.56 L -36.1448,-1623.08 L -35.6871,-1622.65 L -35.1791,-1622.28 L -34.6289,-1621.98
 L -34.0451,-1621.74 L -33.4369,-1621.59 L -32.8139,-1621.51 L 32.8139,-1621.51 z
M -32.2512,-1623.01 L -32.7495,-1623.07 L -33.2361,-1623.2 L -33.7031,-1623.38 L -34.1433,-1623.62 L -34.5497,-1623.92
 L -34.9159,-1624.26 L -35.2361,-1624.65 L -35.5052,-1625.07 L -35.7191,-1625.53 L -35.8743,-1626.01 L -35.9685,-1626.5
 L -36,-1627 L -36,-1901 L -35.9685,-1901.5 L -35.8743,-1901.99 L -35.7191,-1902.47 L -35.5052,-1902.93
 L -35.2361,-1903.35 L -34.9159,-1903.74 L -34.5497,-1904.08 L -34.1433,-1904.38 L -33.7031,-1904.62 L -33.2361,-1904.8
 L -32.7495,-1904.93 L -32.2512,-1904.99 L 32.2512,-1904.99 L 32.7495,-1904.93 L 33.2361,-1904.8 L 33.7031,-1904.62
 L 34.1433,-1904.38 L 34.5497,-1904.08 L 34.9159,-1903.74 L 35.2361,-1903.35 L 35.5052,-1902.93 L 35.7191,-1902.47
 L 35.8743,-1901.99 L 35.9685,-1901.5 L 36,-1901 L 36,-1627 L 35.9685,-1626.5 L 35.8743,-1626.01
 L 35.7191,-1625.53 L 35.5052,-1625.07 L 35.2361,-1624.65 L 34.9159,-1624.26 L 34.5497,-1623.92 L 34.1433,-1623.62
 L 33.7031,-1623.38 L 33.2361,-1623.2 L 32.7495,-1623.07 L 32.2512,-1623.01 z
M 33.4369,-1327.59 L 34.0451,-1327.74 L 34.6289,-1327.98 L 35.1791,-1328.28 L 35.6871,-1328.65 L 36.1448,-1329.08
 L 36.5451,-1329.56 L 36.8815,-1330.09 L 37.1489,-1330.66 L 37.3429,-1331.26 L 37.4606,-1331.87 L 37.5,-1332.5
 L 37.5,-1607.5 L 37.4606,-1608.13 L 37.3429,-1608.74 L 37.1489,-1609.34 L 36.8815,-1609.91 L 36.5451,-1610.44
 L 36.1448,-1610.92 L 35.6871,-1611.35 L 35.1791,-1611.72 L 34.6289,-1612.02 L 34.0451,-1612.26 L 33.4369,-1612.41
 L 32.8139,-1612.49 L -32.8139,-1612.49 L -33.4369,-1612.41 L -34.0451,-1612.26 L -34.6289,-1612.02 L -35.1791,-1611.72
 L -35.6871,-1611.35 L -36.1448,-1610.92 L -36.5451,-1610.44 L -36.8815,-1609.91 L -37.1489,-1609.34 L -37.3429,-1608.74
 L -37.4606,-1608.13 L -37.5,-1607.5 L -37.5,-1332.5 L -37.4606,-1331.87 L -37.3429,-1331.26 L -37.1489,-1330.66
 L -36.8815,-1330.09 L -36.5451,-1329.56 L -36.1448,-1329.08 L -35.6871,-1328.65 L -35.1791,-1328.28 L -34.6289,-1327.98
 L -34.0451,-1327.74 L -33.4369,-1327.59 L -32.8139,-1327.51 L 32.8139,-1327.51 z
M -32.1954,-1329.89 L -32.5833,-1329.94 L -32.9619,-1330.04 L -33.3254,-1330.18 L -33.668,-1330.37 L -33.9842,-1330.6
 L -34.2692,-1330.87 L -34.5184,-1331.17 L -34.7279,-1331.5 L -34.8943,-1331.85 L -35.0151,-1332.23 L -35.0884,-1332.61
 L -35.1129,-1333 L -35.1129,-1607 L -35.0884,-1607.39 L -35.0151,-1607.77 L -34.8943,-1608.15 L -34.7279,-1608.5
 L -34.5184,-1608.83 L -34.2692,-1609.13 L -33.9842,-1609.4 L -33.668,-1609.63 L -33.3254,-1609.82 L -32.9619,-1609.96
 L -32.5833,-1610.06 L -32.1954,-1610.11 L 32.1954,-1610.11 L 32.5833,-1610.06 L 32.9619,-1609.96 L 33.3254,-1609.82
 L 33.668,-1609.63 L 33.9842,-1609.4 L 34.2692,-1609.13 L 34.5184,-1608.83 L 34.7279,-1608.5 L 34.8943,-1608.15
 L 35.0151,-1607.77 L 35.0884,-1607.39 L 35.1129,-1607 L 35.1129,-1333 L 35.0884,-1332.61 L 35.0151,-1332.23
 L 34.8943,-1331.85 L 34.7279,-1331.5 L 34.5184,-1331.17 L 34.2692,-1330.87 L 33.9842,-1330.6 L 33.668,-1330.37
 L 33.3254,-1330.18 L 32.9619,-1330.04 L 32.5833,-1329.94 L 32.1954,-1329.89 z
M 33.4369,-1033.59 L 34.0451,-1033.74 L 34.6289,-1033.98 L 35.1791,-1034.28 L 35.6871,-1034.65 L 36.1448,-1035.08
 L 36.5451,-1035.56 L 36.8815,-1036.09 L 37.1489,-1036.66 L 37.3429,-1037.26 L 37.4606,-1037.87 L 37.5,-1038.5
 L 37.5,-1313.5 L 37.4606,-1314.13 L 37.3429,-1314.74 L 37.1489,-1315.34 L 36.8815,-1315.91 L 36.5451,-1316.44
 L 36.1448,-1316.92 L 35.6871,-1317.35 L 35.1791,-1317.72 L 34.6289,-1318.02 L 34.0451,-1318.26 L 33.4369,-1318.41
 L 32.8139,-1318.49 L -32.8139,-1318.49 L -33.4369,-1318.41 L -34.0451,-1318.26 L -34.6289,-1318.02 L -35.1791,-1317.72
 L -35.6871,-1317.35 L -36.1448,-1316.92 L -36.5451,-1316.44 L -36.8815,-1315.91 L -37.1489,-1315.34 L -37.3429,-1314.74
 L -37.4606,-1314.13 L -37.5,-1313.5 L -37.5,-1038.5 L -37.4606,-1037.87 L -37.3429,-1037.26 L -37.1489,-1036.66
 L -36.8815,-1036.09 L -36.5451,-1035.56 L -36.1448,-1035.08 L -35.6871,-1034.65 L -35.1791,-1034.28 L -34.6289,-1033.98
 L -34.0451,-1033.74 L -33.4369,-1033.59 L -32.8139,-1033.51 L 32.8139,-1033.51 z
M 29.8659,-1308.87 L 29.5999,-1308.9 L 29.3401,-1308.97 L 29.0908,-1309.07 L 28.8559,-1309.2 L 28.6389,-1309.35
 L 28.4434,-1309.54 L 28.2725,-1309.74 L 28.1288,-1309.97 L 28.0146,-1310.21 L 27.9318,-1310.47 L 27.8815,-1310.73
 L 27.8647,-1311 L 27.8815,-1311.27 L 27.9318,-1311.53 L 28.0146,-1311.79 L 28.1288,-1312.03 L 28.2725,-1312.26
 L 28.4434,-1312.46 L 28.6389,-1312.65 L 28.8559,-1312.8 L 29.0908,-1312.93 L 29.3401,-1313.03 L 29.5999,-1313.1
 L 29.8659,-1313.13 L 30.1341,-1313.13 L 30.4001,-1313.1 L 30.6598,-1313.03 L 30.9091,-1312.93 L 31.1441,-1312.8
 L 31.3611,-1312.65 L 31.5565,-1312.46 L 31.7275,-1312.26 L 31.8712,-1312.03 L 31.9853,-1311.79 L 32.0682,-1311.53
 L 32.1185,-1311.27 L 32.1353,-1311 L 32.1185,-1310.73 L 32.0682,-1310.47 L 31.9853,-1310.21 L 31.8712,-1309.97
 L 31.7275,-1309.74 L 31.5565,-1309.54 L 31.3611,-1309.35 L 31.1441,-1309.2 L 30.9091,-1309.07 L 30.6598,-1308.97
 L 30.4001,-1308.9 L 30.1341,-1308.87 z
M -30.1341,-1308.87 L -30.4001,-1308.9 L -30.6598,-1308.97 L -30.9091,-1309.07 L -31.1441,-1309.2 L -31.3611,-1309.35
 L -31.5565,-1309.54 L -31.7275,-1309.74 L -31.8712,-1309.97 L -31.9853,-1310.21 L -32.0682,-1310.47 L -32.1185,-1310.73
 L -32.1353,-1311 L -32.1185,-1311.27 L -32.0682,-1311.53 L -31.9853,-1311.79 L -31.8712,-1312.03 L -31.7275,-1312.26
 L -31.5565,-1312.46 L -31.3611,-1312.65 L -31.1441,-1312.8 L -30.9091,-1312.93 L -30.6598,-1313.03 L -30.4001,-1313.1
 L -30.1341,-1313.13 L -29.8659,-1313.13 L -29.5999,-1313.1 L -29.3401,-1313.03 L -29.0908,-1312.93 L -28.8559,-1312.8
 L -28.6389,-1312.65 L -28.4434,-1312.46 L -28.2725,-1312.26 L -28.1288,-1312.03 L -28.0146,-1311.79 L -27.9318,-1311.53
 L -27.8815,-1311.27 L -27.8647,-1311 L -27.8815,-1310.73 L -27.9318,-1310.47 L -28.0146,-1310.21 L -28.1288,-1309.97
 L -28.2725,-1309.74 L -28.4434,-1309.54 L -28.6389,-1309.35 L -28.8559,-1309.2 L -29.0908,-1309.07 L -29.3401,-1308.97
 L -29.5999,-1308.9 L -29.8659,-1308.87 z
M 29.8659,-1038.87 L 29.5999,-1038.9 L 29.3401,-1038.97 L 29.0908,-1039.07 L 28.8559,-1039.2 L 28.6389,-1039.35
 L 28.4434,-1039.54 L 28.2725,-1039.74 L 28.1288,-1039.97 L 28.0146,-1040.21 L 27.9318,-1040.47 L 27.8815,-1040.73
 L 27.8647,-1041 L 27.8815,-1041.27 L 27.9318,-1041.53 L 28.0146,-1041.79 L 28.1288,-1042.03 L 28.2725,-1042.26
 L 28.4434,-1042.46 L 28.6389,-1042.65 L 28.8559,-1042.8 L 29.0908,-1042.93 L 29.3401,-1043.03 L 29.5999,-1043.1
 L 29.8659,-1043.13 L 30.1341,-1043.13 L 30.4001,-1043.1 L 30.6598,-1043.03 L 30.9091,-1042.93 L 31.1441,-1042.8
 L 31.3611,-1042.65 L 31.5565,-1042.46 L 31.7275,-1042.26 L 31.8712,-1042.03 L 31.9853,-1041.79 L 32.0682,-1041.53
 L 32.1185,-1041.27 L 32.1353,-1041 L 32.1185,-1040.73 L 32.0682,-1040.47 L 31.9853,-1040.21 L 31.8712,-1039.97
 L 31.7275,-1039.74 L 31.5565,-1039.54 L 31.3611,-1039.35 L 31.1441,-1039.2 L 30.9091,-1039.07 L 30.6598,-1038.97
 L 30.4001,-1038.9 L 30.1341,-1038.87 z
M -30.1341,-1038.87 L -30.4001,-1038.9 L -30.6598,-1038.97 L -30.9091,-1039.07 L -31.1441,-1039.2 L -31.3611,-1039.35
 L -31.5565,-1039.54 L -31.7275,-1039.74 L -31.8712,-1039.97 L -31.9853,-1040.21 L -32.0682,-1040.47 L -32.1185,-1040.73
 L -32.1353,-1041 L -32.1185,-1041.27 L -32.0682,-1041.53 L -31.9853,-1041.79 L -31.8712,-1042.03 L -31.7275,-1042.26
 L -31.5565,-1042.46 L -31.3611,-1042.65 L -31.1441,-1042.8 L -30.9091,-1042.93 L -30.6598,-1043.03 L -30.4001,-1043.1
 L -30.1341,-1043.13 L -29.8659,-1043.13 L -29.5999,-1043.1 L -29.3401,-1043.03 L -29.0908,-1042.93 L -28.8559,-1042.8
 L -28.6389,-1042.65 L -28.4434,-1042.46 L -28.2725,-1042.26 L -28.1288,-1042.03 L -28.0146,-1041.79 L -27.9318,-1041.53
 L -27.8815,-1041.27 L -27.8647,-1041 L -27.8815,-1040.73 L -27.9318,-1040.47 L -28.0146,-1040.21 L -28.1288,-1039.97
 L -28.2725,-1039.74 L -28.4434,-1039.54 L -28.6389,-1039.35 L -28.8559,-1039.2 L -29.0908,-1039.07 L -29.3401,-1038.97
 L -29.5999,-1038.9 L -29.8659,-1038.87 z
" stroke="black" fill="lightgray" stroke-width="0.5"/>
</svg>
