  0
SECTION
  2
BLOCKS
  0
ENDSEC
  0
SECTION
  2
ENTITIES
  0
LINE
  8
0
 10
3.4369
 20
114.839
 11
4.04507
 21
114.995
  0
LINE
  8
0
 10
4.04507
 20
114.995
 11
4.62889
 21
115.226
  0
LINE
  8
0
 10
4.62889
 20
115.226
 11
5.17912
 21
115.528
  0
LINE
  8
0
 10
5.17912
 20
115.528
 11
5.68712
 21
115.897
  0
LINE
  8
0
 10
5.68712
 20
115.897
 11
6.14484
 21
116.327
  0
LINE
  8
0
 10
6.14484
 20
116.327
 11
6.54507
 21
116.811
  0
LINE
  8
0
 10
6.54507
 20
116.811
 11
6.88153
 21
117.341
  0
LINE
  8
0
 10
6.88153
 20
117.341
 11
7.14888
 21
117.909
  0
LINE
  8
0
 10
7.14888
 20
117.909
 11
7.34291
 21
118.507
  0
LINE
  8
0
 10
7.34291
 20
118.507
 11
7.46057
 21
119.123
  0
LINE
  8
0
 10
7.46057
 20
119.123
 11
7.5
 21
119.75
  0
LINE
  8
0
 10
7.5
 20
119.75
 11
7.5
 21
132.25
  0
LINE
  8
0
 10
7.5
 20
132.25
 11
7.46057
 21
132.877
  0
LINE
  8
0
 10
7.46057
 20
132.877
 11
7.34291
 21
133.493
  0
LINE
  8
0
 10
7.34291
 20
133.493
 11
7.14888
 21
134.091
  0
LINE
  8
0
 10
7.14888
 20
134.091
 11
6.88153
 21
134.659
  0
LINE
  8
0
 10
6.88153
 20
134.659
 11
6.54507
 21
135.189
  0
LINE
  8
0
 10
6.54507
 20
135.189
 11
6.14484
 21
135.673
  0
LINE
  8
0
 10
6.14484
 20
135.673
 11
5.68712
 21
136.103
  0
LINE
  8
0
 10
5.68712
 20
136.103
 11
5.17912
 21
136.472
  0
LINE
  8
0
 10
5.17912
 20
136.472
 11
4.62889
 21
136.774
  0
LINE
  8
0
 10
4.62889
 20
136.774
 11
4.04507
 21
137.005
  0
LINE
  8
0
 10
4.04507
 20
137.005
 11
3.4369
 21
137.161
  0
LINE
  8
0
 10
3.4369
 20
137.161
 11
2.81395
 21
137.24
  0
LINE
  8
0
 10
2.81395
 20
137.24
 11
-2.81395
 21
137.24
  0
LINE
  8
0
 10
-2.81395
 20
137.24
 11
-3.4369
 21
137.161
  0
LINE
  8
0
 10
-3.4369
 20
137.161
 11
-4.04507
 21
137.005
  0
LINE
  8
0
 10
-4.04507
 20
137.005
 11
-4.62889
 21
136.774
  0
LINE
  8
0
 10
-4.62889
 20
136.774
 11
-5.17912
 21
136.472
  0
LINE
  8
0
 10
-5.17912
 20
136.472
 11
-5.68712
 21
136.103
  0
LINE
  8
0
 10
-5.68712
 20
136.103
 11
-6.14484
 21
135.673
  0
LINE
  8
0
 10
-6.14484
 20
135.673
 11
-6.54507
 21
135.189
  0
LINE
  8
0
 10
-6.54507
 20
135.189
 11
-6.88153
 21
134.659
  0
LINE
  8
0
 10
-6.88153
 20
134.659
 11
-7.14888
 21
134.091
  0
LINE
  8
0
 10
-7.14888
 20
134.091
 11
-7.34291
 21
133.493
  0
LINE
  8
0
 10
-7.34291
 20
133.493
 11
-7.46057
 21
132.877
  0
LINE
  8
0
 10
-7.46057
 20
132.877
 11
-7.5
 21
132.25
  0
LINE
  8
0
 10
-7.5
 20
132.25
 11
-7.5
 21
119.75
  0
LINE
  8
0
 10
-7.5
 20
119.75
 11
-7.46057
 21
119.123
  0
LINE
  8
0
 10
-7.46057
 20
119.123
 11
-7.34291
 21
118.507
  0
LINE
  8
0
 10
-7.34291
 20
118.507
 11
-7.14888
 21
117.909
  0
LINE
  8
0
 10
-7.14888
 20
117.909
 11
-6.88153
 21
117.341
  0
LINE
  8
0
 10
-6.88153
 20
117.341
 11
-6.54507
 21
116.811
  0
LINE
  8
0
 10
-6.54507
 20
116.811
 11
-6.14484
 21
116.327
  0
LINE
  8
0
 10
-6.14484
 20
116.327
 11
-5.68712
 21
115.897
  0
LINE
  8
0
 10
-5.68712
 20
115.897
 11
-5.17912
 21
115.528
  0
LINE
  8
0
 10
-5.17912
 20
115.528
 11
-4.62889
 21
115.226
  0
LINE
  8
0
 10
-4.62889
 20
115.226
 11
-4.04507
 21
114.995
  0
LINE
  8
0
 10
-4.04507
 20
114.995
 11
-3.4369
 21
114.839
  0
LINE
  8
0
 10
-3.4369
 20
114.839
 11
-2.81395
 21
114.76
  0
LINE
  8
0
 10
-2.81395
 20
114.76
 11
2.81395
 21
114.76
  0
LINE
  8
0
 10
2.81395
 20
114.76
 11
3.4369
 21
114.839
  0
LINE
  8
0
 10
-2.54825
 20
115.259
 11
-3.14006
 21
115.334
  0
LINE
  8
0
 10
-3.14006
 20
115.334
 11
-3.71782
 21
115.482
  0
LINE
  8
0
 10
-3.71782
 20
115.482
 11
-4.27245
 21
115.702
  0
LINE
  8
0
 10
-4.27245
 20
115.702
 11
-4.79517
 21
115.989
  0
LINE
  8
0
 10
-4.79517
 20
115.989
 11
-5.27776
 21
116.34
  0
LINE
  8
0
 10
-5.27776
 20
116.34
 11
-5.7126
 21
116.748
  0
LINE
  8
0
 10
-5.7126
 20
116.748
 11
-6.09282
 21
117.208
  0
LINE
  8
0
 10
-6.09282
 20
117.208
 11
-6.41245
 21
117.712
  0
LINE
  8
0
 10
-6.41245
 20
117.712
 11
-6.66643
 21
118.251
  0
LINE
  8
0
 10
-6.66643
 20
118.251
 11
-6.85077
 21
118.819
  0
LINE
  8
0
 10
-6.85077
 20
118.819
 11
-6.96254
 21
119.405
  0
LINE
  8
0
 10
-6.96254
 20
119.405
 11
-7
 21
120
  0
LINE
  8
0
 10
-7
 20
120
 11
-7
 21
132
  0
LINE
  8
0
 10
-7
 20
132
 11
-6.96254
 21
132.595
  0
LINE
  8
0
 10
-6.96254
 20
132.595
 11
-6.85077
 21
133.181
  0
LINE
  8
0
 10
-6.85077
 20
133.181
 11
-6.66643
 21
133.749
  0
LINE
  8
0
 10
-6.66643
 20
133.749
 11
-6.41245
 21
134.288
  0
LINE
  8
0
 10
-6.41245
 20
134.288
 11
-6.09282
 21
134.792
  0
LINE
  8
0
 10
-6.09282
 20
134.792
 11
-5.7126
 21
135.252
  0
LINE
  8
0
 10
-5.7126
 20
135.252
 11
-5.27776
 21
135.66
  0
LINE
  8
0
 10
-5.27776
 20
135.66
 11
-4.79517
 21
136.011
  0
LINE
  8
0
 10
-4.79517
 20
136.011
 11
-4.27245
 21
136.298
  0
LINE
  8
0
 10
-4.27245
 20
136.298
 11
-3.71782
 21
136.518
  0
LINE
  8
0
 10
-3.71782
 20
136.518
 11
-3.14006
 21
136.666
  0
LINE
  8
0
 10
-3.14006
 20
136.666
 11
-2.54825
 21
136.741
  0
LINE
  8
0
 10
-2.54825
 20
136.741
 11
2.54825
 21
136.741
  0
LINE
  8
0
 10
2.54825
 20
136.741
 11
3.14006
 21
136.666
  0
LINE
  8
0
 10
3.14006
 20
136.666
 11
3.71782
 21
136.518
  0
LINE
  8
0
 10
3.71782
 20
136.518
 11
4.27245
 21
136.298
  0
LINE
  8
0
 10
4.27245
 20
136.298
 11
4.79517
 21
136.011
  0
LINE
  8
0
 10
4.79517
 20
136.011
 11
5.27776
 21
135.66
  0
LINE
  8
0
 10
5.27776
 20
135.66
 11
5.7126
 21
135.252
  0
LINE
  8
0
 10
5.7126
 20
135.252
 11
6.09282
 21
134.792
  0
LINE
  8
0
 10
6.09282
 20
134.792
 11
6.41245
 21
134.288
  0
LINE
  8
0
 10
6.41245
 20
134.288
 11
6.66643
 21
133.749
  0
LINE
  8
0
 10
6.66643
 20
133.749
 11
6.85077
 21
133.181
  0
LINE
  8
0
 10
6.85077
 20
133.181
 11
6.96254
 21
132.595
  0
LINE
  8
0
 10
6.96254
 20
132.595
 11
7
 21
132
  0
LINE
  8
0
 10
7
 20
132
 11
7
 21
120
  0
LINE
  8
0
 10
7
 20
120
 11
6.96254
 21
119.405
  0
LINE
  8
0
 10
6.96254
 20
119.405
 11
6.85077
 21
118.819
  0
LINE
  8
0
 10
6.85077
 20
118.819
 11
6.66643
 21
118.251
  0
LINE
  8
0
 10
6.66643
 20
118.251
 11
6.41245
 21
117.712
  0
LINE
  8
0
 10
6.41245
 20
117.712
 11
6.09282
 21
117.208
  0
LINE
  8
0
 10
6.09282
 20
117.208
 11
5.7126
 21
116.748
  0
LINE
  8
0
 10
5.7126
 20
116.748
 11
5.27776
 21
116.34
  0
LINE
  8
0
 10
5.27776
 20
116.34
 11
4.79517
 21
115.989
  0
LINE
  8
0
 10
4.79517
 20
115.989
 11
4.27245
 21
115.702
  0
LINE
  8
0
 10
4.27245
 20
115.702
 11
3.71782
 21
115.482
  0
LINE
  8
0
 10
3.71782
 20
115.482
 11
3.14006
 21
115.334
  0
LINE
  8
0
 10
3.14006
 20
115.334
 11
2.54825
 21
115.259
  0
LINE
  8
0
 10
2.54825
 20
115.259
 11
-2.54825
 21
115.259
  0
LINE
  8
0
 10
3.4369
 20
83.3386
 11
4.04507
 21
83.4947
  0
LINE
  8
0
 10
4.04507
 20
83.4947
 11
4.62889
 21
83.7259
  0
LINE
  8
0
 10
4.62889
 20
83.7259
 11
5.17912
 21
84.0284
  0
LINE
  8
0
 10
5.17912
 20
84.0284
 11
5.68712
 21
84.3974
  0
LINE
  8
0
 10
5.68712
 20
84.3974
 11
6.14484
 21
84.8273
  0
LINE
  8
0
 10
6.14484
 20
84.8273
 11
6.54507
 21
85.3111
  0
LINE
  8
0
 10
6.54507
 20
85.3111
 11
6.88153
 21
85.8412
  0
LINE
  8
0
 10
6.88153
 20
85.8412
 11
7.14888
 21
86.4094
  0
LINE
  8
0
 10
7.14888
 20
86.4094
 11
7.34291
 21
87.0066
  0
LINE
  8
0
 10
7.34291
 20
87.0066
 11
7.46057
 21
87.6233
  0
LINE
  8
0
 10
7.46057
 20
87.6233
 11
7.5
 21
88.25
  0
LINE
  8
0
 10
7.5
 20
88.25
 11
7.5
 21
100.75
  0
LINE
  8
0
 10
7.5
 20
100.75
 11
7.46057
 21
101.377
  0
LINE
  8
0
 10
7.46057
 20
101.377
 11
7.34291
 21
101.993
  0
LINE
  8
0
 10
7.34291
 20
101.993
 11
7.14888
 21
102.591
  0
LINE
  8
0
 10
7.14888
 20
102.591
 11
6.88153
 21
103.159
  0
LINE
  8
0
 10
6.88153
 20
103.159
 11
6.54507
 21
103.689
  0
LINE
  8
0
 10
6.54507
 20
103.689
 11
6.14484
 21
104.173
  0
LINE
  8
0
 10
6.14484
 20
104.173
 11
5.68712
 21
104.603
  0
LINE
  8
0
 10
5.68712
 20
104.603
 11
5.17912
 21
104.972
  0
LINE
  8
0
 10
5.17912
 20
104.972
 11
4.62889
 21
105.274
  0
LINE
  8
0
 10
4.62889
 20
105.274
 11
4.04507
 21
105.505
  0
LINE
  8
0
 10
4.04507
 20
105.505
 11
3.4369
 21
105.661
  0
LINE
  8
0
 10
3.4369
 20
105.661
 11
2.81395
 21
105.74
  0
LINE
  8
0
 10
2.81395
 20
105.74
 11
-2.81395
 21
105.74
  0
LINE
  8
0
 10
-2.81395
 20
105.74
 11
-3.4369
 21
105.661
  0
LINE
  8
0
 10
-3.4369
 20
105.661
 11
-4.04507
 21
105.505
  0
LINE
  8
0
 10
-4.04507
 20
105.505
 11
-4.62889
 21
105.274
  0
LINE
  8
0
 10
-4.62889
 20
105.274
 11
-5.17912
 21
104.972
  0
LINE
  8
0
 10
-5.17912
 20
104.972
 11
-5.68712
 21
104.603
  0
LINE
  8
0
 10
-5.68712
 20
104.603
 11
-6.14484
 21
104.173
  0
LINE
  8
0
 10
-6.14484
 20
104.173
 11
-6.54507
 21
103.689
  0
LINE
  8
0
 10
-6.54507
 20
103.689
 11
-6.88153
 21
103.159
  0
LINE
  8
0
 10
-6.88153
 20
103.159
 11
-7.14888
 21
102.591
  0
LINE
  8
0
 10
-7.14888
 20
102.591
 11
-7.34291
 21
101.993
  0
LINE
  8
0
 10
-7.34291
 20
101.993
 11
-7.46057
 21
101.377
  0
LINE
  8
0
 10
-7.46057
 20
101.377
 11
-7.5
 21
100.75
  0
LINE
  8
0
 10
-7.5
 20
100.75
 11
-7.5
 21
88.25
  0
LINE
  8
0
 10
-7.5
 20
88.25
 11
-7.46057
 21
87.6233
  0
LINE
  8
0
 10
-7.46057
 20
87.6233
 11
-7.34291
 21
87.0066
  0
LINE
  8
0
 10
-7.34291
 20
87.0066
 11
-7.14888
 21
86.4094
  0
LINE
  8
0
 10
-7.14888
 20
86.4094
 11
-6.88153
 21
85.8412
  0
LINE
  8
0
 10
-6.88153
 20
85.8412
 11
-6.54507
 21
85.3111
  0
LINE
  8
0
 10
-6.54507
 20
85.3111
 11
-6.14484
 21
84.8273
  0
LINE
  8
0
 10
-6.14484
 20
84.8273
 11
-5.68712
 21
84.3974
  0
LINE
  8
0
 10
-5.68712
 20
84.3974
 11
-5.17912
 21
84.0284
  0
LINE
  8
0
 10
-5.17912
 20
84.0284
 11
-4.62889
 21
83.7259
  0
LINE
  8
0
 10
-4.62889
 20
83.7259
 11
-4.04507
 21
83.4947
  0
LINE
  8
0
 10
-4.04507
 20
83.4947
 11
-3.4369
 21
83.3386
  0
LINE
  8
0
 10
-3.4369
 20
83.3386
 11
-2.81395
 21
83.2599
  0
LINE
  8
0
 10
-2.81395
 20
83.2599
 11
2.81395
 21
83.2599
  0
LINE
  8
0
 10
2.81395
 20
83.2599
 11
3.4369
 21
83.3386
  0
LINE
  8
0
 10
-2.49297
 20
84.6382
 11
-2.97505
 21
84.6991
  0
LINE
  8
0
 10
-2.97505
 20
84.6991
 11
-3.44572
 21
84.8199
  0
LINE
  8
0
 10
-3.44572
 20
84.8199
 11
-3.89754
 21
84.9988
  0
LINE
  8
0
 10
-3.89754
 20
84.9988
 11
-4.32336
 21
85.2329
  0
LINE
  8
0
 10
-4.32336
 20
85.2329
 11
-4.71649
 21
85.5185
  0
LINE
  8
0
 10
-4.71649
 20
85.5185
 11
-5.07071
 21
85.8512
  0
LINE
  8
0
 10
-5.07071
 20
85.8512
 11
-5.38046
 21
86.2256
  0
LINE
  8
0
 10
-5.38046
 20
86.2256
 11
-5.64084
 21
86.6359
  0
LINE
  8
0
 10
-5.64084
 20
86.6359
 11
-5.84773
 21
87.0756
  0
LINE
  8
0
 10
-5.84773
 20
87.0756
 11
-5.99789
 21
87.5377
  0
LINE
  8
0
 10
-5.99789
 20
87.5377
 11
-6.08896
 21
88.015
  0
LINE
  8
0
 10
-6.08896
 20
88.015
 11
-6.11946
 21
88.5
  0
LINE
  8
0
 10
-6.11946
 20
88.5
 11
-6.11946
 21
100.5
  0
LINE
  8
0
 10
-6.11946
 20
100.5
 11
-6.08896
 21
100.985
  0
LINE
  8
0
 10
-6.08896
 20
100.985
 11
-5.99789
 21
101.462
  0
LINE
  8
0
 10
-5.99789
 20
101.462
 11
-5.84773
 21
101.924
  0
LINE
  8
0
 10
-5.84773
 20
101.924
 11
-5.64084
 21
102.364
  0
LINE
  8
0
 10
-5.64084
 20
102.364
 11
-5.38046
 21
102.774
  0
LINE
  8
0
 10
-5.38046
 20
102.774
 11
-5.07071
 21
103.149
  0
LINE
  8
0
 10
-5.07071
 20
103.149
 11
-4.71649
 21
103.481
  0
LINE
  8
0
 10
-4.71649
 20
103.481
 11
-4.32336
 21
103.767
  0
LINE
  8
0
 10
-4.32336
 20
103.767
 11
-3.89754
 21
104.001
  0
LINE
  8
0
 10
-3.89754
 20
104.001
 11
-3.44572
 21
104.18
  0
LINE
  8
0
 10
-3.44572
 20
104.18
 11
-2.97505
 21
104.301
  0
LINE
  8
0
 10
-2.97505
 20
104.301
 11
-2.49297
 21
104.362
  0
LINE
  8
0
 10
-2.49297
 20
104.362
 11
2.49297
 21
104.362
  0
LINE
  8
0
 10
2.49297
 20
104.362
 11
2.97505
 21
104.301
  0
LINE
  8
0
 10
2.97505
 20
104.301
 11
3.44572
 21
104.18
  0
LINE
  8
0
 10
3.44572
 20
104.18
 11
3.89754
 21
104.001
  0
LINE
  8
0
 10
3.89754
 20
104.001
 11
4.32336
 21
103.767
  0
LINE
  8
0
 10
4.32336
 20
103.767
 11
4.71649
 21
103.481
  0
LINE
  8
0
 10
4.71649
 20
103.481
 11
5.07071
 21
103.149
  0
LINE
  8
0
 10
5.07071
 20
103.149
 11
5.38046
 21
102.774
  0
LINE
  8
0
 10
5.38046
 20
102.774
 11
5.64084
 21
102.364
  0
LINE
  8
0
 10
5.64084
 20
102.364
 11
5.84773
 21
101.924
  0
LINE
  8
0
 10
5.84773
 20
101.924
 11
5.99789
 21
101.462
  0
LINE
  8
0
 10
5.99789
 20
101.462
 11
6.08896
 21
100.985
  0
LINE
  8
0
 10
6.08896
 20
100.985
 11
6.11946
 21
100.5
  0
LINE
  8
0
 10
6.11946
 20
100.5
 11
6.11946
 21
88.5
  0
LINE
  8
0
 10
6.11946
 20
88.5
 11
6.08896
 21
88.015
  0
LINE
  8
0
 10
6.08896
 20
88.015
 11
5.99789
 21
87.5377
  0
LINE
  8
0
 10
5.99789
 20
87.5377
 11
5.84773
 21
87.0756
  0
LINE
  8
0
 10
5.84773
 20
87.0756
 11
5.64084
 21
86.6359
  0
LINE
  8
0
 10
5.64084
 20
86.6359
 11
5.38046
 21
86.2256
  0
LINE
  8
0
 10
5.38046
 20
86.2256
 11
5.07071
 21
85.8512
  0
LINE
  8
0
 10
5.07071
 20
85.8512
 11
4.71649
 21
85.5185
  0
LINE
  8
0
 10
4.71649
 20
85.5185
 11
4.32336
 21
85.2329
  0
LINE
  8
0
 10
4.32336
 20
85.2329
 11
3.89754
 21
84.9988
  0
LINE
  8
0
 10
3.89754
 20
84.9988
 11
3.44572
 21
84.8199
  0
LINE
  8
0
 10
3.44572
 20
84.8199
 11
2.97505
 21
84.6991
  0
LINE
  8
0
 10
2.97505
 20
84.6991
 11
2.49297
 21
84.6382
  0
LINE
  8
0
 10
2.49297
 20
84.6382
 11
-2.49297
 21
84.6382
  0
LINE
  8
0
 10
3.4369
 20
51.8386
 11
4.04507
 21
51.9947
  0
LINE
  8
0
 10
4.04507
 20
51.9947
 11
4.62889
 21
52.2259
  0
LINE
  8
0
 10
4.62889
 20
52.2259
 11
5.17912
 21
52.5284
  0
LINE
  8
0
 10
5.17912
 20
52.5284
 11
5.68712
 21
52.8974
  0
LINE
  8
0
 10
5.68712
 20
52.8974
 11
6.14484
 21
53.3273
  0
LINE
  8
0
 10
6.14484
 20
53.3273
 11
6.54507
 21
53.8111
  0
LINE
  8
0
 10
6.54507
 20
53.8111
 11
6.88153
 21
54.3412
  0
LINE
  8
0
 10
6.88153
 20
54.3412
 11
7.14888
 21
54.9094
  0
LINE
  8
0
 10
7.14888
 20
54.9094
 11
7.34291
 21
55.5066
  0
LINE
  8
0
 10
7.34291
 20
55.5066
 11
7.46057
 21
56.1233
  0
LINE
  8
0
 10
7.46057
 20
56.1233
 11
7.5
 21
56.75
  0
LINE
  8
0
 10
7.5
 20
56.75
 11
7.5
 21
69.25
  0
LINE
  8
0
 10
7.5
 20
69.25
 11
7.46057
 21
69.8767
  0
LINE
  8
0
 10
7.46057
 20
69.8767
 11
7.34291
 21
70.4934
  0
LINE
  8
0
 10
7.34291
 20
70.4934
 11
7.14888
 21
71.0906
  0
LINE
  8
0
 10
7.14888
 20
71.0906
 11
6.88153
 21
71.6588
  0
LINE
  8
0
 10
6.88153
 20
71.6588
 11
6.54507
 21
72.1889
  0
LINE
  8
0
 10
6.54507
 20
72.1889
 11
6.14484
 21
72.6727
  0
LINE
  8
0
 10
6.14484
 20
72.6727
 11
5.68712
 21
73.1026
  0
LINE
  8
0
 10
5.68712
 20
73.1026
 11
5.17912
 21
73.4716
  0
LINE
  8
0
 10
5.17912
 20
73.4716
 11
4.62889
 21
73.7741
  0
LINE
  8
0
 10
4.62889
 20
73.7741
 11
4.04507
 21
74.0053
  0
LINE
  8
0
 10
4.04507
 20
74.0053
 11
3.4369
 21
74.1614
  0
LINE
  8
0
 10
3.4369
 20
74.1614
 11
2.81395
 21
74.2401
  0
LINE
  8
0
 10
2.81395
 20
74.2401
 11
-2.81395
 21
74.2401
  0
LINE
  8
0
 10
-2.81395
 20
74.2401
 11
-3.4369
 21
74.1614
  0
LINE
  8
0
 10
-3.4369
 20
74.1614
 11
-4.04507
 21
74.0053
  0
LINE
  8
0
 10
-4.04507
 20
74.0053
 11
-4.62889
 21
73.7741
  0
LINE
  8
0
 10
-4.62889
 20
73.7741
 11
-5.17912
 21
73.4716
  0
LINE
  8
0
 10
-5.17912
 20
73.4716
 11
-5.68712
 21
73.1026
  0
LINE
  8
0
 10
-5.68712
 20
73.1026
 11
-6.14484
 21
72.6727
  0
LINE
  8
0
 10
-6.14484
 20
72.6727
 11
-6.54507
 21
72.1889
  0
LINE
  8
0
 10
-6.54507
 20
72.1889
 11
-6.88153
 21
71.6588
  0
LINE
  8
0
 10
-6.88153
 20
71.6588
 11
-7.14888
 21
71.0906
  0
LINE
  8
0
 10
-7.14888
 20
71.0906
 11
-7.34291
 21
70.4934
  0
LINE
  8
0
 10
-7.34291
 20
70.4934
 11
-7.46057
 21
69.8767
  0
LINE
  8
0
 10
-7.46057
 20
69.8767
 11
-7.5
 21
69.25
  0
LINE
  8
0
 10
-7.5
 20
69.25
 11
-7.5
 21
56.75
  0
LINE
  8
0
 10
-7.5
 20
56.75
 11
-7.46057
 21
56.1233
  0
LINE
  8
0
 10
-7.46057
 20
56.1233
 11
-7.34291
 21
55.5066
  0
LINE
  8
0
 10
-7.34291
 20
55.5066
 11
-7.14888
 21
54.9094
  0
LINE
  8
0
 10
-7.14888
 20
54.9094
 11
-6.88153
 21
54.3412
  0
LINE
  8
0
 10
-6.88153
 20
54.3412
 11
-6.54507
 21
53.8111
  0
LINE
  8
0
 10
-6.54507
 20
53.8111
 11
-6.14484
 21
53.3273
  0
LINE
  8
0
 10
-6.14484
 20
53.3273
 11
-5.68712
 21
52.8974
  0
LINE
  8
0
 10
-5.68712
 20
52.8974
 11
-5.17912
 21
52.5284
  0
LINE
  8
0
 10
-5.17912
 20
52.5284
 11
-4.62889
 21
52.2259
  0
LINE
  8
0
 10
-4.62889
 20
52.2259
 11
-4.04507
 21
51.9947
  0
LINE
  8
0
 10
-4.04507
 20
51.9947
 11
-3.4369
 21
51.8386
  0
LINE
  8
0
 10
-3.4369
 20
51.8386
 11
-2.81395
 21
51.7599
  0
LINE
  8
0
 10
-2.81395
 20
51.7599
 11
2.81395
 21
51.7599
  0
LINE
  8
0
 10
2.81395
 20
51.7599
 11
3.4369
 21
51.8386
  0
LINE
  8
0
 10
-0.113022
 20
64.9536
 11
-0.33728
 21
64.9819
  0
LINE
  8
0
 10
-0.33728
 20
64.9819
 11
-0.556229
 21
65.0381
  0
LINE
  8
0
 10
-0.556229
 20
65.0381
 11
-0.766388
 21
65.1213
  0
LINE
  8
0
 10
-0.766388
 20
65.1213
 11
-0.964478
 21
65.2302
  0
LINE
  8
0
 10
-0.964478
 20
65.2302
 11
-1.14735
 21
65.3631
  0
LINE
  8
0
 10
-1.14735
 20
65.3631
 11
-1.31213
 21
65.5178
  0
LINE
  8
0
 10
-1.31213
 20
65.5178
 11
-1.45622
 21
65.692
  0
LINE
  8
0
 10
-1.45622
 20
65.692
 11
-1.57735
 21
65.8828
  0
LINE
  8
0
 10
-1.57735
 20
65.8828
 11
-1.67358
 21
66.0874
  0
LINE
  8
0
 10
-1.67358
 20
66.0874
 11
-1.74344
 21
66.3024
  0
LINE
  8
0
 10
-1.74344
 20
66.3024
 11
-1.7858
 21
66.5244
  0
LINE
  8
0
 10
-1.7858
 20
66.5244
 11
-1.79999
 21
66.75
  0
LINE
  8
0
 10
-1.79999
 20
66.75
 11
-1.7858
 21
66.9756
  0
LINE
  8
0
 10
-1.7858
 20
66.9756
 11
-1.74344
 21
67.1976
  0
LINE
  8
0
 10
-1.74344
 20
67.1976
 11
-1.67358
 21
67.4126
  0
LINE
  8
0
 10
-1.67358
 20
67.4126
 11
-1.57735
 21
67.6171
  0
LINE
  8
0
 10
-1.57735
 20
67.6171
 11
-1.45622
 21
67.808
  0
LINE
  8
0
 10
-1.45622
 20
67.808
 11
-1.31213
 21
67.9822
  0
LINE
  8
0
 10
-1.31213
 20
67.9822
 11
-1.14735
 21
68.1369
  0
LINE
  8
0
 10
-1.14735
 20
68.1369
 11
-0.964478
 21
68.2698
  0
LINE
  8
0
 10
-0.964478
 20
68.2698
 11
-0.766388
 21
68.3787
  0
LINE
  8
0
 10
-0.766388
 20
68.3787
 11
-0.556229
 21
68.4619
  0
LINE
  8
0
 10
-0.556229
 20
68.4619
 11
-0.33728
 21
68.5181
  0
LINE
  8
0
 10
-0.33728
 20
68.5181
 11
-0.113022
 21
68.5464
  0
LINE
  8
0
 10
-0.113022
 20
68.5464
 11
0.113022
 21
68.5464
  0
LINE
  8
0
 10
0.113022
 20
68.5464
 11
0.33728
 21
68.5181
  0
LINE
  8
0
 10
0.33728
 20
68.5181
 11
0.556229
 21
68.4619
  0
LINE
  8
0
 10
0.556229
 20
68.4619
 11
0.766388
 21
68.3787
  0
LINE
  8
0
 10
0.766388
 20
68.3787
 11
0.964478
 21
68.2698
  0
LINE
  8
0
 10
0.964478
 20
68.2698
 11
1.14735
 21
68.1369
  0
LINE
  8
0
 10
1.14735
 20
68.1369
 11
1.31213
 21
67.9822
  0
LINE
  8
0
 10
1.31213
 20
67.9822
 11
1.45622
 21
67.808
  0
LINE
  8
0
 10
1.45622
 20
67.808
 11
1.57735
 21
67.6171
  0
LINE
  8
0
 10
1.57735
 20
67.6171
 11
1.67358
 21
67.4126
  0
LINE
  8
0
 10
1.67358
 20
67.4126
 11
1.74344
 21
67.1976
  0
LINE
  8
0
 10
1.74344
 20
67.1976
 11
1.7858
 21
66.9756
  0
LINE
  8
0
 10
1.7858
 20
66.9756
 11
1.79999
 21
66.75
  0
LINE
  8
0
 10
1.79999
 20
66.75
 11
1.7858
 21
66.5244
  0
LINE
  8
0
 10
1.7858
 20
66.5244
 11
1.74344
 21
66.3024
  0
LINE
  8
0
 10
1.74344
 20
66.3024
 11
1.67358
 21
66.0874
  0
LINE
  8
0
 10
1.67358
 20
66.0874
 11
1.57735
 21
65.8828
  0
LINE
  8
0
 10
1.57735
 20
65.8828
 11
1.45622
 21
65.692
  0
LINE
  8
0
 10
1.45622
 20
65.692
 11
1.31213
 21
65.5178
  0
LINE
  8
0
 10
1.31213
 20
65.5178
 11
1.14735
 21
65.3631
  0
LINE
  8
0
 10
1.14735
 20
65.3631
 11
0.964478
 21
65.2302
  0
LINE
  8
0
 10
0.964478
 20
65.2302
 11
0.766388
 21
65.1213
  0
LINE
  8
0
 10
0.766388
 20
65.1213
 11
0.556229
 21
65.0381
  0
LINE
  8
0
 10
0.556229
 20
65.0381
 11
0.33728
 21
64.9819
  0
LINE
  8
0
 10
0.33728
 20
64.9819
 11
0.113022
 21
64.9536
  0
LINE
  8
0
 10
0.113022
 20
64.9536
 11
-0.113022
 21
64.9536
  0
LINE
  8
0
 10
-0.113022
 20
57.4536
 11
-0.33728
 21
57.4819
  0
LINE
  8
0
 10
-0.33728
 20
57.4819
 11
-0.556229
 21
57.5381
  0
LINE
  8
0
 10
-0.556229
 20
57.5381
 11
-0.766388
 21
57.6213
  0
LINE
  8
0
 10
-0.766388
 20
57.6213
 11
-0.964478
 21
57.7302
  0
LINE
  8
0
 10
-0.964478
 20
57.7302
 11
-1.14735
 21
57.8631
  0
LINE
  8
0
 10
-1.14735
 20
57.8631
 11
-1.31213
 21
58.0178
  0
LINE
  8
0
 10
-1.31213
 20
58.0178
 11
-1.45622
 21
58.192
  0
LINE
  8
0
 10
-1.45622
 20
58.192
 11
-1.57735
 21
58.3829
  0
LINE
  8
0
 10
-1.57735
 20
58.3829
 11
-1.67358
 21
58.5874
  0
LINE
  8
0
 10
-1.67358
 20
58.5874
 11
-1.74344
 21
58.8024
  0
LINE
  8
0
 10
-1.74344
 20
58.8024
 11
-1.7858
 21
59.0244
  0
LINE
  8
0
 10
-1.7858
 20
59.0244
 11
-1.79999
 21
59.25
  0
LINE
  8
0
 10
-1.79999
 20
59.25
 11
-1.7858
 21
59.4756
  0
LINE
  8
0
 10
-1.7858
 20
59.4756
 11
-1.74344
 21
59.6976
  0
LINE
  8
0
 10
-1.74344
 20
59.6976
 11
-1.67358
 21
59.9126
  0
LINE
  8
0
 10
-1.67358
 20
59.9126
 11
-1.57735
 21
60.1172
  0
LINE
  8
0
 10
-1.57735
 20
60.1172
 11
-1.45622
 21
60.308
  0
LINE
  8
0
 10
-1.45622
 20
60.308
 11
-1.31213
 21
60.4822
  0
LINE
  8
0
 10
-1.31213
 20
60.4822
 11
-1.14735
 21
60.6369
  0
LINE
  8
0
 10
-1.14735
 20
60.6369
 11
-0.964478
 21
60.7698
  0
LINE
  8
0
 10
-0.964478
 20
60.7698
 11
-0.766388
 21
60.8787
  0
LINE
  8
0
 10
-0.766388
 20
60.8787
 11
-0.556229
 21
60.9619
  0
LINE
  8
0
 10
-0.556229
 20
60.9619
 11
-0.33728
 21
61.0181
  0
LINE
  8
0
 10
-0.33728
 20
61.0181
 11
-0.113022
 21
61.0464
  0
LINE
  8
0
 10
-0.113022
 20
61.0464
 11
0.113022
 21
61.0464
  0
LINE
  8
0
 10
0.113022
 20
61.0464
 11
0.33728
 21
61.0181
  0
LINE
  8
0
 10
0.33728
 20
61.0181
 11
0.556229
 21
60.9619
  0
LINE
  8
0
 10
0.556229
 20
60.9619
 11
0.766388
 21
60.8787
  0
LINE
  8
0
 10
0.766388
 20
60.8787
 11
0.964478
 21
60.7698
  0
LINE
  8
0
 10
0.964478
 20
60.7698
 11
1.14735
 21
60.6369
  0
LINE
  8
0
 10
1.14735
 20
60.6369
 11
1.31213
 21
60.4822
  0
LINE
  8
0
 10
1.31213
 20
60.4822
 11
1.45622
 21
60.308
  0
LINE
  8
0
 10
1.45622
 20
60.308
 11
1.57735
 21
60.1172
  0
LINE
  8
0
 10
1.57735
 20
60.1172
 11
1.67358
 21
59.9126
  0
LINE
  8
0
 10
1.67358
 20
59.9126
 11
1.74344
 21
59.6976
  0
LINE
  8
0
 10
1.74344
 20
59.6976
 11
1.7858
 21
59.4756
  0
LINE
  8
0
 10
1.7858
 20
59.4756
 11
1.79999
 21
59.25
  0
LINE
  8
0
 10
1.79999
 20
59.25
 11
1.7858
 21
59.0244
  0
LINE
  8
0
 10
1.7858
 20
59.0244
 11
1.74344
 21
58.8024
  0
LINE
  8
0
 10
1.74344
 20
58.8024
 11
1.67358
 21
58.5874
  0
LINE
  8
0
 10
1.67358
 20
58.5874
 11
1.57735
 21
58.3829
  0
LINE
  8
0
 10
1.57735
 20
58.3829
 11
1.45622
 21
58.192
  0
LINE
  8
0
 10
1.45622
 20
58.192
 11
1.31213
 21
58.0178
  0
LINE
  8
0
 10
1.31213
 20
58.0178
 11
1.14735
 21
57.8631
  0
LINE
  8
0
 10
1.14735
 20
57.8631
 11
0.964478
 21
57.7302
  0
LINE
  8
0
 10
0.964478
 20
57.7302
 11
0.766388
 21
57.6213
  0
LINE
  8
0
 10
0.766388
 20
57.6213
 11
0.556229
 21
57.5381
  0
LINE
  8
0
 10
0.556229
 20
57.5381
 11
0.33728
 21
57.4819
  0
LINE
  8
0
 10
0.33728
 20
57.4819
 11
0.113022
 21
57.4536
  0
LINE
  8
0
 10
0.113022
 20
57.4536
 11
-0.113022
 21
57.4536
  0
ENDSEC
  0
SECTION
  2
OBJECTS
  0
DICTIONARY
  0
ENDSEC
  0
EOF
