  0
SECTION
  2
BLOCKS
  0
ENDSEC
  0
SECTION
  2
ENTITIES
  0
LINE
  8
0
 10
100.937
 20
333.089
 11
101.545
 21
333.245
  0
LINE
  8
0
 10
101.545
 20
333.245
 11
102.129
 21
333.476
  0
LINE
  8
0
 10
102.129
 20
333.476
 11
102.679
 21
333.778
  0
LINE
  8
0
 10
102.679
 20
333.778
 11
103.187
 21
334.147
  0
LINE
  8
0
 10
103.187
 20
334.147
 11
103.645
 21
334.577
  0
LINE
  8
0
 10
103.645
 20
334.577
 11
104.045
 21
335.061
  0
LINE
  8
0
 10
104.045
 20
335.061
 11
104.382
 21
335.591
  0
LINE
  8
0
 10
104.382
 20
335.591
 11
104.649
 21
336.159
  0
LINE
  8
0
 10
104.649
 20
336.159
 11
104.843
 21
336.757
  0
LINE
  8
0
 10
104.843
 20
336.757
 11
104.961
 21
337.373
  0
LINE
  8
0
 10
104.961
 20
337.373
 11
105
 21
338
  0
LINE
  8
0
 10
105
 20
338
 11
105
 21
538
  0
LINE
  8
0
 10
105
 20
538
 11
104.961
 21
538.627
  0
LINE
  8
0
 10
104.961
 20
538.627
 11
104.843
 21
539.243
  0
LINE
  8
0
 10
104.843
 20
539.243
 11
104.649
 21
539.841
  0
LINE
  8
0
 10
104.649
 20
539.841
 11
104.382
 21
540.409
  0
LINE
  8
0
 10
104.382
 20
540.409
 11
104.045
 21
540.939
  0
LINE
  8
0
 10
104.045
 20
540.939
 11
103.645
 21
541.423
  0
LINE
  8
0
 10
103.645
 20
541.423
 11
103.187
 21
541.853
  0
LINE
  8
0
 10
103.187
 20
541.853
 11
102.679
 21
542.222
  0
LINE
  8
0
 10
102.679
 20
542.222
 11
102.129
 21
542.524
  0
LINE
  8
0
 10
102.129
 20
542.524
 11
101.545
 21
542.755
  0
LINE
  8
0
 10
101.545
 20
542.755
 11
100.937
 21
542.911
  0
LINE
  8
0
 10
100.937
 20
542.911
 11
100.314
 21
542.99
  0
LINE
  8
0
 10
100.314
 20
542.99
 11
-100.314
 21
542.99
  0
LINE
  8
0
 10
-100.314
 20
542.99
 11
-100.937
 21
542.911
  0
LINE
  8
0
 10
-100.937
 20
542.911
 11
-101.545
 21
542.755
  0
LINE
  8
0
 10
-101.545
 20
542.755
 11
-102.129
 21
542.524
  0
LINE
  8
0
 10
-102.129
 20
542.524
 11
-102.679
 21
542.222
  0
LINE
  8
0
 10
-102.679
 20
542.222
 11
-103.187
 21
541.853
  0
LINE
  8
0
 10
-103.187
 20
541.853
 11
-103.645
 21
541.423
  0
LINE
  8
0
 10
-103.645
 20
541.423
 11
-104.045
 21
540.939
  0
LINE
  8
0
 10
-104.045
 20
540.939
 11
-104.382
 21
540.409
  0
LINE
  8
0
 10
-104.382
 20
540.409
 11
-104.649
 21
539.841
  0
LINE
  8
0
 10
-104.649
 20
539.841
 11
-104.843
 21
539.243
  0
LINE
  8
0
 10
-104.843
 20
539.243
 11
-104.961
 21
538.627
  0
LINE
  8
0
 10
-104.961
 20
538.627
 11
-105
 21
538
  0
LINE
  8
0
 10
-105
 20
538
 11
-105
 21
338
  0
LINE
  8
0
 10
-105
 20
338
 11
-104.961
 21
337.373
  0
LINE
  8
0
 10
-104.961
 20
337.373
 11
-104.843
 21
336.757
  0
LINE
  8
0
 10
-104.843
 20
336.757
 11
-104.649
 21
336.159
  0
LINE
  8
0
 10
-104.649
 20
336.159
 11
-104.382
 21
335.591
  0
LINE
  8
0
 10
-104.382
 20
335.591
 11
-104.045
 21
335.061
  0
LINE
  8
0
 10
-104.045
 20
335.061
 11
-103.645
 21
334.577
  0
LINE
  8
0
 10
-103.645
 20
334.577
 11
-103.187
 21
334.147
  0
LINE
  8
0
 10
-103.187
 20
334.147
 11
-102.679
 21
333.778
  0
LINE
  8
0
 10
-102.679
 20
333.778
 11
-102.129
 21
333.476
  0
LINE
  8
0
 10
-102.129
 20
333.476
 11
-101.545
 21
333.245
  0
LINE
  8
0
 10
-101.545
 20
333.245
 11
-100.937
 21
333.089
  0
LINE
  8
0
 10
-100.937
 20
333.089
 11
-100.314
 21
333.01
  0
LINE
  8
0
 10
-100.314
 20
333.01
 11
100.314
 21
333.01
  0
LINE
  8
0
 10
100.314
 20
333.01
 11
100.937
 21
333.089
  0
LINE
  8
0
 10
-99.993
 20
334.388
 11
-100.475
 21
334.449
  0
LINE
  8
0
 10
-100.475
 20
334.449
 11
-100.946
 21
334.57
  0
LINE
  8
0
 10
-100.946
 20
334.57
 11
-101.398
 21
334.749
  0
LINE
  8
0
 10
-101.398
 20
334.749
 11
-101.823
 21
334.983
  0
LINE
  8
0
 10
-101.823
 20
334.983
 11
-102.216
 21
335.269
  0
LINE
  8
0
 10
-102.216
 20
335.269
 11
-102.571
 21
335.601
  0
LINE
  8
0
 10
-102.571
 20
335.601
 11
-102.88
 21
335.976
  0
LINE
  8
0
 10
-102.88
 20
335.976
 11
-103.141
 21
336.386
  0
LINE
  8
0
 10
-103.141
 20
336.386
 11
-103.348
 21
336.826
  0
LINE
  8
0
 10
-103.348
 20
336.826
 11
-103.498
 21
337.288
  0
LINE
  8
0
 10
-103.498
 20
337.288
 11
-103.589
 21
337.765
  0
LINE
  8
0
 10
-103.589
 20
337.765
 11
-103.619
 21
338.25
  0
LINE
  8
0
 10
-103.619
 20
338.25
 11
-103.619
 21
537.75
  0
LINE
  8
0
 10
-103.619
 20
537.75
 11
-103.589
 21
538.235
  0
LINE
  8
0
 10
-103.589
 20
538.235
 11
-103.498
 21
538.712
  0
LINE
  8
0
 10
-103.498
 20
538.712
 11
-103.348
 21
539.174
  0
LINE
  8
0
 10
-103.348
 20
539.174
 11
-103.141
 21
539.614
  0
LINE
  8
0
 10
-103.141
 20
539.614
 11
-102.88
 21
540.024
  0
LINE
  8
0
 10
-102.88
 20
540.024
 11
-102.571
 21
540.399
  0
LINE
  8
0
 10
-102.571
 20
540.399
 11
-102.216
 21
540.731
  0
LINE
  8
0
 10
-102.216
 20
540.731
 11
-101.823
 21
541.017
  0
LINE
  8
0
 10
-101.823
 20
541.017
 11
-101.398
 21
541.251
  0
LINE
  8
0
 10
-101.398
 20
541.251
 11
-100.946
 21
541.43
  0
LINE
  8
0
 10
-100.946
 20
541.43
 11
-100.475
 21
541.551
  0
LINE
  8
0
 10
-100.475
 20
541.551
 11
-99.993
 21
541.612
  0
LINE
  8
0
 10
-99.993
 20
541.612
 11
99.993
 21
541.612
  0
LINE
  8
0
 10
99.993
 20
541.612
 11
100.475
 21
541.551
  0
LINE
  8
0
 10
100.475
 20
541.551
 11
100.946
 21
541.43
  0
LINE
  8
0
 10
100.946
 20
541.43
 11
101.398
 21
541.251
  0
LINE
  8
0
 10
101.398
 20
541.251
 11
101.823
 21
541.017
  0
LINE
  8
0
 10
101.823
 20
541.017
 11
102.216
 21
540.731
  0
LINE
  8
0
 10
102.216
 20
540.731
 11
102.571
 21
540.399
  0
LINE
  8
0
 10
102.571
 20
540.399
 11
102.88
 21
540.024
  0
LINE
  8
0
 10
102.88
 20
540.024
 11
103.141
 21
539.614
  0
LINE
  8
0
 10
103.141
 20
539.614
 11
103.348
 21
539.174
  0
LINE
  8
0
 10
103.348
 20
539.174
 11
103.498
 21
538.712
  0
LINE
  8
0
 10
103.498
 20
538.712
 11
103.589
 21
538.235
  0
LINE
  8
0
 10
103.589
 20
538.235
 11
103.619
 21
537.75
  0
LINE
  8
0
 10
103.619
 20
537.75
 11
103.619
 21
338.25
  0
LINE
  8
0
 10
103.619
 20
338.25
 11
103.589
 21
337.765
  0
LINE
  8
0
 10
103.589
 20
337.765
 11
103.498
 21
337.288
  0
LINE
  8
0
 10
103.498
 20
337.288
 11
103.348
 21
336.826
  0
LINE
  8
0
 10
103.348
 20
336.826
 11
103.141
 21
336.386
  0
LINE
  8
0
 10
103.141
 20
336.386
 11
102.88
 21
335.976
  0
LINE
  8
0
 10
102.88
 20
335.976
 11
102.571
 21
335.601
  0
LINE
  8
0
 10
102.571
 20
335.601
 11
102.216
 21
335.269
  0
LINE
  8
0
 10
102.216
 20
335.269
 11
101.823
 21
334.983
  0
LINE
  8
0
 10
101.823
 20
334.983
 11
101.398
 21
334.749
  0
LINE
  8
0
 10
101.398
 20
334.749
 11
100.946
 21
334.57
  0
LINE
  8
0
 10
100.946
 20
334.57
 11
100.475
 21
334.449
  0
LINE
  8
0
 10
100.475
 20
334.449
 11
99.993
 21
334.388
  0
LINE
  8
0
 10
99.993
 20
334.388
 11
-99.993
 21
334.388
  0
LINE
  8
0
 10
100.937
 20
114.089
 11
101.545
 21
114.245
  0
LINE
  8
0
 10
101.545
 20
114.245
 11
102.129
 21
114.476
  0
LINE
  8
0
 10
102.129
 20
114.476
 11
102.679
 21
114.778
  0
LINE
  8
0
 10
102.679
 20
114.778
 11
103.187
 21
115.147
  0
LINE
  8
0
 10
103.187
 20
115.147
 11
103.645
 21
115.577
  0
LINE
  8
0
 10
103.645
 20
115.577
 11
104.045
 21
116.061
  0
LINE
  8
0
 10
104.045
 20
116.061
 11
104.382
 21
116.591
  0
LINE
  8
0
 10
104.382
 20
116.591
 11
104.649
 21
117.159
  0
LINE
  8
0
 10
104.649
 20
117.159
 11
104.843
 21
117.757
  0
LINE
  8
0
 10
104.843
 20
117.757
 11
104.961
 21
118.373
  0
LINE
  8
0
 10
104.961
 20
118.373
 11
105
 21
119
  0
LINE
  8
0
 10
105
 20
119
 11
105
 21
319
  0
LINE
  8
0
 10
105
 20
319
 11
104.961
 21
319.627
  0
LINE
  8
0
 10
104.961
 20
319.627
 11
104.843
 21
320.243
  0
LINE
  8
0
 10
104.843
 20
320.243
 11
104.649
 21
320.841
  0
LINE
  8
0
 10
104.649
 20
320.841
 11
104.382
 21
321.409
  0
LINE
  8
0
 10
104.382
 20
321.409
 11
104.045
 21
321.939
  0
LINE
  8
0
 10
104.045
 20
321.939
 11
103.645
 21
322.423
  0
LINE
  8
0
 10
103.645
 20
322.423
 11
103.187
 21
322.853
  0
LINE
  8
0
 10
103.187
 20
322.853
 11
102.679
 21
323.222
  0
LINE
  8
0
 10
102.679
 20
323.222
 11
102.129
 21
323.524
  0
LINE
  8
0
 10
102.129
 20
323.524
 11
101.545
 21
323.755
  0
LINE
  8
0
 10
101.545
 20
323.755
 11
100.937
 21
323.911
  0
LINE
  8
0
 10
100.937
 20
323.911
 11
100.314
 21
323.99
  0
LINE
  8
0
 10
100.314
 20
323.99
 11
-100.314
 21
323.99
  0
LINE
  8
0
 10
-100.314
 20
323.99
 11
-100.937
 21
323.911
  0
LINE
  8
0
 10
-100.937
 20
323.911
 11
-101.545
 21
323.755
  0
LINE
  8
0
 10
-101.545
 20
323.755
 11
-102.129
 21
323.524
  0
LINE
  8
0
 10
-102.129
 20
323.524
 11
-102.679
 21
323.222
  0
LINE
  8
0
 10
-102.679
 20
323.222
 11
-103.187
 21
322.853
  0
LINE
  8
0
 10
-103.187
 20
322.853
 11
-103.645
 21
322.423
  0
LINE
  8
0
 10
-103.645
 20
322.423
 11
-104.045
 21
321.939
  0
LINE
  8
0
 10
-104.045
 20
321.939
 11
-104.382
 21
321.409
  0
LINE
  8
0
 10
-104.382
 20
321.409
 11
-104.649
 21
320.841
  0
LINE
  8
0
 10
-104.649
 20
320.841
 11
-104.843
 21
320.243
  0
LINE
  8
0
 10
-104.843
 20
320.243
 11
-104.961
 21
319.627
  0
LINE
  8
0
 10
-104.961
 20
319.627
 11
-105
 21
319
  0
LINE
  8
0
 10
-105
 20
319
 11
-105
 21
119
  0
LINE
  8
0
 10
-105
 20
119
 11
-104.961
 21
118.373
  0
LINE
  8
0
 10
-104.961
 20
118.373
 11
-104.843
 21
117.757
  0
LINE
  8
0
 10
-104.843
 20
117.757
 11
-104.649
 21
117.159
  0
LINE
  8
0
 10
-104.649
 20
117.159
 11
-104.382
 21
116.591
  0
LINE
  8
0
 10
-104.382
 20
116.591
 11
-104.045
 21
116.061
  0
LINE
  8
0
 10
-104.045
 20
116.061
 11
-103.645
 21
115.577
  0
LINE
  8
0
 10
-103.645
 20
115.577
 11
-103.187
 21
115.147
  0
LINE
  8
0
 10
-103.187
 20
115.147
 11
-102.679
 21
114.778
  0
LINE
  8
0
 10
-102.679
 20
114.778
 11
-102.129
 21
114.476
  0
LINE
  8
0
 10
-102.129
 20
114.476
 11
-101.545
 21
114.245
  0
LINE
  8
0
 10
-101.545
 20
114.245
 11
-100.937
 21
114.089
  0
LINE
  8
0
 10
-100.937
 20
114.089
 11
-100.314
 21
114.01
  0
LINE
  8
0
 10
-100.314
 20
114.01
 11
100.314
 21
114.01
  0
LINE
  8
0
 10
100.314
 20
114.01
 11
100.937
 21
114.089
  0
LINE
  8
0
 10
97.387
 20
314.704
 11
97.1627
 21
314.732
  0
LINE
  8
0
 10
97.1627
 20
314.732
 11
96.9438
 21
314.788
  0
LINE
  8
0
 10
96.9438
 20
314.788
 11
96.7336
 21
314.871
  0
LINE
  8
0
 10
96.7336
 20
314.871
 11
96.5355
 21
314.98
  0
LINE
  8
0
 10
96.5355
 20
314.98
 11
96.3526
 21
315.113
  0
LINE
  8
0
 10
96.3526
 20
315.113
 11
96.1879
 21
315.268
  0
LINE
  8
0
 10
96.1879
 20
315.268
 11
96.0438
 21
315.442
  0
LINE
  8
0
 10
96.0438
 20
315.442
 11
95.9226
 21
315.633
  0
LINE
  8
0
 10
95.9226
 20
315.633
 11
95.8264
 21
315.837
  0
LINE
  8
0
 10
95.8264
 20
315.837
 11
95.7565
 21
316.052
  0
LINE
  8
0
 10
95.7565
 20
316.052
 11
95.7142
 21
316.274
  0
LINE
  8
0
 10
95.7142
 20
316.274
 11
95.7
 21
316.5
  0
LINE
  8
0
 10
95.7
 20
316.5
 11
95.7142
 21
316.726
  0
LINE
  8
0
 10
95.7142
 20
316.726
 11
95.7565
 21
316.948
  0
LINE
  8
0
 10
95.7565
 20
316.948
 11
95.8264
 21
317.163
  0
LINE
  8
0
 10
95.8264
 20
317.163
 11
95.9226
 21
317.367
  0
LINE
  8
0
 10
95.9226
 20
317.367
 11
96.0438
 21
317.558
  0
LINE
  8
0
 10
96.0438
 20
317.558
 11
96.1879
 21
317.732
  0
LINE
  8
0
 10
96.1879
 20
317.732
 11
96.3526
 21
317.887
  0
LINE
  8
0
 10
96.3526
 20
317.887
 11
96.5355
 21
318.02
  0
LINE
  8
0
 10
96.5355
 20
318.02
 11
96.7336
 21
318.129
  0
LINE
  8
0
 10
96.7336
 20
318.129
 11
96.9438
 21
318.212
  0
LINE
  8
0
 10
96.9438
 20
318.212
 11
97.1627
 21
318.268
  0
LINE
  8
0
 10
97.1627
 20
318.268
 11
97.387
 21
318.296
  0
LINE
  8
0
 10
97.387
 20
318.296
 11
97.613
 21
318.296
  0
LINE
  8
0
 10
97.613
 20
318.296
 11
97.8373
 21
318.268
  0
LINE
  8
0
 10
97.8373
 20
318.268
 11
98.0562
 21
318.212
  0
LINE
  8
0
 10
98.0562
 20
318.212
 11
98.2664
 21
318.129
  0
LINE
  8
0
 10
98.2664
 20
318.129
 11
98.4645
 21
318.02
  0
LINE
  8
0
 10
98.4645
 20
318.02
 11
98.6474
 21
317.887
  0
LINE
  8
0
 10
98.6474
 20
317.887
 11
98.8121
 21
317.732
  0
LINE
  8
0
 10
98.8121
 20
317.732
 11
98.9562
 21
317.558
  0
LINE
  8
0
 10
98.9562
 20
317.558
 11
99.0773
 21
317.367
  0
LINE
  8
0
 10
99.0773
 20
317.367
 11
99.1736
 21
317.163
  0
LINE
  8
0
 10
99.1736
 20
317.163
 11
99.2434
 21
316.948
  0
LINE
  8
0
 10
99.2434
 20
316.948
 11
99.2858
 21
316.726
  0
LINE
  8
0
 10
99.2858
 20
316.726
 11
99.3
 21
316.5
  0
LINE
  8
0
 10
99.3
 20
316.5
 11
99.2858
 21
316.274
  0
LINE
  8
0
 10
99.2858
 20
316.274
 11
99.2434
 21
316.052
  0
LINE
  8
0
 10
99.2434
 20
316.052
 11
99.1736
 21
315.837
  0
LINE
  8
0
 10
99.1736
 20
315.837
 11
99.0773
 21
315.633
  0
LINE
  8
0
 10
99.0773
 20
315.633
 11
98.9562
 21
315.442
  0
LINE
  8
0
 10
98.9562
 20
315.442
 11
98.8121
 21
315.268
  0
LINE
  8
0
 10
98.8121
 20
315.268
 11
98.6474
 21
315.113
  0
LINE
  8
0
 10
98.6474
 20
315.113
 11
98.4645
 21
314.98
  0
LINE
  8
0
 10
98.4645
 20
314.98
 11
98.2664
 21
314.871
  0
LINE
  8
0
 10
98.2664
 20
314.871
 11
98.0562
 21
314.788
  0
LINE
  8
0
 10
98.0562
 20
314.788
 11
97.8373
 21
314.732
  0
LINE
  8
0
 10
97.8373
 20
314.732
 11
97.613
 21
314.704
  0
LINE
  8
0
 10
97.613
 20
314.704
 11
97.387
 21
314.704
  0
LINE
  8
0
 10
-97.613
 20
314.704
 11
-97.8373
 21
314.732
  0
LINE
  8
0
 10
-97.8373
 20
314.732
 11
-98.0562
 21
314.788
  0
LINE
  8
0
 10
-98.0562
 20
314.788
 11
-98.2664
 21
314.871
  0
LINE
  8
0
 10
-98.2664
 20
314.871
 11
-98.4645
 21
314.98
  0
LINE
  8
0
 10
-98.4645
 20
314.98
 11
-98.6474
 21
315.113
  0
LINE
  8
0
 10
-98.6474
 20
315.113
 11
-98.8121
 21
315.268
  0
LINE
  8
0
 10
-98.8121
 20
315.268
 11
-98.9562
 21
315.442
  0
LINE
  8
0
 10
-98.9562
 20
315.442
 11
-99.0773
 21
315.633
  0
LINE
  8
0
 10
-99.0773
 20
315.633
 11
-99.1736
 21
315.837
  0
LINE
  8
0
 10
-99.1736
 20
315.837
 11
-99.2434
 21
316.052
  0
LINE
  8
0
 10
-99.2434
 20
316.052
 11
-99.2858
 21
316.274
  0
LINE
  8
0
 10
-99.2858
 20
316.274
 11
-99.3
 21
316.5
  0
LINE
  8
0
 10
-99.3
 20
316.5
 11
-99.2858
 21
316.726
  0
LINE
  8
0
 10
-99.2858
 20
316.726
 11
-99.2434
 21
316.948
  0
LINE
  8
0
 10
-99.2434
 20
316.948
 11
-99.1736
 21
317.163
  0
LINE
  8
0
 10
-99.1736
 20
317.163
 11
-99.0773
 21
317.367
  0
LINE
  8
0
 10
-99.0773
 20
317.367
 11
-98.9562
 21
317.558
  0
LINE
  8
0
 10
-98.9562
 20
317.558
 11
-98.8121
 21
317.732
  0
LINE
  8
0
 10
-98.8121
 20
317.732
 11
-98.6474
 21
317.887
  0
LINE
  8
0
 10
-98.6474
 20
317.887
 11
-98.4645
 21
318.02
  0
LINE
  8
0
 10
-98.4645
 20
318.02
 11
-98.2664
 21
318.129
  0
LINE
  8
0
 10
-98.2664
 20
318.129
 11
-98.0562
 21
318.212
  0
LINE
  8
0
 10
-98.0562
 20
318.212
 11
-97.8373
 21
318.268
  0
LINE
  8
0
 10
-97.8373
 20
318.268
 11
-97.613
 21
318.296
  0
LINE
  8
0
 10
-97.613
 20
318.296
 11
-97.387
 21
318.296
  0
LINE
  8
0
 10
-97.387
 20
318.296
 11
-97.1627
 21
318.268
  0
LINE
  8
0
 10
-97.1627
 20
318.268
 11
-96.9438
 21
318.212
  0
LINE
  8
0
 10
-96.9438
 20
318.212
 11
-96.7336
 21
318.129
  0
LINE
  8
0
 10
-96.7336
 20
318.129
 11
-96.5355
 21
318.02
  0
LINE
  8
0
 10
-96.5355
 20
318.02
 11
-96.3526
 21
317.887
  0
LINE
  8
0
 10
-96.3526
 20
317.887
 11
-96.1879
 21
317.732
  0
LINE
  8
0
 10
-96.1879
 20
317.732
 11
-96.0438
 21
317.558
  0
LINE
  8
0
 10
-96.0438
 20
317.558
 11
-95.9226
 21
317.367
  0
LINE
  8
0
 10
-95.9226
 20
317.367
 11
-95.8264
 21
317.163
  0
LINE
  8
0
 10
-95.8264
 20
317.163
 11
-95.7565
 21
316.948
  0
LINE
  8
0
 10
-95.7565
 20
316.948
 11
-95.7142
 21
316.726
  0
LINE
  8
0
 10
-95.7142
 20
316.726
 11
-95.7
 21
316.5
  0
LINE
  8
0
 10
-95.7
 20
316.5
 11
-95.7142
 21
316.274
  0
LINE
  8
0
 10
-95.7142
 20
316.274
 11
-95.7565
 21
316.052
  0
LINE
  8
0
 10
-95.7565
 20
316.052
 11
-95.8264
 21
315.837
  0
LINE
  8
0
 10
-95.8264
 20
315.837
 11
-95.9226
 21
315.633
  0
LINE
  8
0
 10
-95.9226
 20
315.633
 11
-96.0438
 21
315.442
  0
LINE
  8
0
 10
-96.0438
 20
315.442
 11
-96.1879
 21
315.268
  0
LINE
  8
0
 10
-96.1879
 20
315.268
 11
-96.3526
 21
315.113
  0
LINE
  8
0
 10
-96.3526
 20
315.113
 11
-96.5355
 21
314.98
  0
LINE
  8
0
 10
-96.5355
 20
314.98
 11
-96.7336
 21
314.871
  0
LINE
  8
0
 10
-96.7336
 20
314.871
 11
-96.9438
 21
314.788
  0
LINE
  8
0
 10
-96.9438
 20
314.788
 11
-97.1627
 21
314.732
  0
LINE
  8
0
 10
-97.1627
 20
314.732
 11
-97.387
 21
314.704
  0
LINE
  8
0
 10
-97.387
 20
314.704
 11
-97.613
 21
314.704
  0
LINE
  8
0
 10
-97.613
 20
119.704
 11
-97.8373
 21
119.732
  0
LINE
  8
0
 10
-97.8373
 20
119.732
 11
-98.0562
 21
119.788
  0
LINE
  8
0
 10
-98.0562
 20
119.788
 11
-98.2664
 21
119.871
  0
LINE
  8
0
 10
-98.2664
 20
119.871
 11
-98.4645
 21
119.98
  0
LINE
  8
0
 10
-98.4645
 20
119.98
 11
-98.6474
 21
120.113
  0
LINE
  8
0
 10
-98.6474
 20
120.113
 11
-98.8121
 21
120.268
  0
LINE
  8
0
 10
-98.8121
 20
120.268
 11
-98.9562
 21
120.442
  0
LINE
  8
0
 10
-98.9562
 20
120.442
 11
-99.0773
 21
120.633
  0
LINE
  8
0
 10
-99.0773
 20
120.633
 11
-99.1736
 21
120.837
  0
LINE
  8
0
 10
-99.1736
 20
120.837
 11
-99.2434
 21
121.052
  0
LINE
  8
0
 10
-99.2434
 20
121.052
 11
-99.2858
 21
121.274
  0
LINE
  8
0
 10
-99.2858
 20
121.274
 11
-99.3
 21
121.5
  0
LINE
  8
0
 10
-99.3
 20
121.5
 11
-99.2858
 21
121.726
  0
LINE
  8
0
 10
-99.2858
 20
121.726
 11
-99.2434
 21
121.948
  0
LINE
  8
0
 10
-99.2434
 20
121.948
 11
-99.1736
 21
122.163
  0
LINE
  8
0
 10
-99.1736
 20
122.163
 11
-99.0773
 21
122.367
  0
LINE
  8
0
 10
-99.0773
 20
122.367
 11
-98.9562
 21
122.558
  0
LINE
  8
0
 10
-98.9562
 20
122.558
 11
-98.8121
 21
122.732
  0
LINE
  8
0
 10
-98.8121
 20
122.732
 11
-98.6474
 21
122.887
  0
LINE
  8
0
 10
-98.6474
 20
122.887
 11
-98.4645
 21
123.02
  0
LINE
  8
0
 10
-98.4645
 20
123.02
 11
-98.2664
 21
123.129
  0
LINE
  8
0
 10
-98.2664
 20
123.129
 11
-98.0562
 21
123.212
  0
LINE
  8
0
 10
-98.0562
 20
123.212
 11
-97.8373
 21
123.268
  0
LINE
  8
0
 10
-97.8373
 20
123.268
 11
-97.613
 21
123.296
  0
LINE
  8
0
 10
-97.613
 20
123.296
 11
-97.387
 21
123.296
  0
LINE
  8
0
 10
-97.387
 20
123.296
 11
-97.1627
 21
123.268
  0
LINE
  8
0
 10
-97.1627
 20
123.268
 11
-96.9438
 21
123.212
  0
LINE
  8
0
 10
-96.9438
 20
123.212
 11
-96.7336
 21
123.129
  0
LINE
  8
0
 10
-96.7336
 20
123.129
 11
-96.5355
 21
123.02
  0
LINE
  8
0
 10
-96.5355
 20
123.02
 11
-96.3526
 21
122.887
  0
LINE
  8
0
 10
-96.3526
 20
122.887
 11
-96.1879
 21
122.732
  0
LINE
  8
0
 10
-96.1879
 20
122.732
 11
-96.0438
 21
122.558
  0
LINE
  8
0
 10
-96.0438
 20
122.558
 11
-95.9226
 21
122.367
  0
LINE
  8
0
 10
-95.9226
 20
122.367
 11
-95.8264
 21
122.163
  0
LINE
  8
0
 10
-95.8264
 20
122.163
 11
-95.7565
 21
121.948
  0
LINE
  8
0
 10
-95.7565
 20
121.948
 11
-95.7142
 21
121.726
  0
LINE
  8
0
 10
-95.7142
 20
121.726
 11
-95.7
 21
121.5
  0
LINE
  8
0
 10
-95.7
 20
121.5
 11
-95.7142
 21
121.274
  0
LINE
  8
0
 10
-95.7142
 20
121.274
 11
-95.7565
 21
121.052
  0
LINE
  8
0
 10
-95.7565
 20
121.052
 11
-95.8264
 21
120.837
  0
LINE
  8
0
 10
-95.8264
 20
120.837
 11
-95.9226
 21
120.633
  0
LINE
  8
0
 10
-95.9226
 20
120.633
 11
-96.0438
 21
120.442
  0
LINE
  8
0
 10
-96.0438
 20
120.442
 11
-96.1879
 21
120.268
  0
LINE
  8
0
 10
-96.1879
 20
120.268
 11
-96.3526
 21
120.113
  0
LINE
  8
0
 10
-96.3526
 20
120.113
 11
-96.5355
 21
119.98
  0
LINE
  8
0
 10
-96.5355
 20
119.98
 11
-96.7336
 21
119.871
  0
LINE
  8
0
 10
-96.7336
 20
119.871
 11
-96.9438
 21
119.788
  0
LINE
  8
0
 10
-96.9438
 20
119.788
 11
-97.1627
 21
119.732
  0
LINE
  8
0
 10
-97.1627
 20
119.732
 11
-97.387
 21
119.704
  0
LINE
  8
0
 10
-97.387
 20
119.704
 11
-97.613
 21
119.704
  0
LINE
  8
0
 10
97.387
 20
119.704
 11
97.1627
 21
119.732
  0
LINE
  8
0
 10
97.1627
 20
119.732
 11
96.9438
 21
119.788
  0
LINE
  8
0
 10
96.9438
 20
119.788
 11
96.7336
 21
119.871
  0
LINE
  8
0
 10
96.7336
 20
119.871
 11
96.5355
 21
119.98
  0
LINE
  8
0
 10
96.5355
 20
119.98
 11
96.3526
 21
120.113
  0
LINE
  8
0
 10
96.3526
 20
120.113
 11
96.1879
 21
120.268
  0
LINE
  8
0
 10
96.1879
 20
120.268
 11
96.0438
 21
120.442
  0
LINE
  8
0
 10
96.0438
 20
120.442
 11
95.9226
 21
120.633
  0
LINE
  8
0
 10
95.9226
 20
120.633
 11
95.8264
 21
120.837
  0
LINE
  8
0
 10
95.8264
 20
120.837
 11
95.7565
 21
121.052
  0
LINE
  8
0
 10
95.7565
 20
121.052
 11
95.7142
 21
121.274
  0
LINE
  8
0
 10
95.7142
 20
121.274
 11
95.7
 21
121.5
  0
LINE
  8
0
 10
95.7
 20
121.5
 11
95.7142
 21
121.726
  0
LINE
  8
0
 10
95.7142
 20
121.726
 11
95.7565
 21
121.948
  0
LINE
  8
0
 10
95.7565
 20
121.948
 11
95.8264
 21
122.163
  0
LINE
  8
0
 10
95.8264
 20
122.163
 11
95.9226
 21
122.367
  0
LINE
  8
0
 10
95.9226
 20
122.367
 11
96.0438
 21
122.558
  0
LINE
  8
0
 10
96.0438
 20
122.558
 11
96.1879
 21
122.732
  0
LINE
  8
0
 10
96.1879
 20
122.732
 11
96.3526
 21
122.887
  0
LINE
  8
0
 10
96.3526
 20
122.887
 11
96.5355
 21
123.02
  0
LINE
  8
0
 10
96.5355
 20
123.02
 11
96.7336
 21
123.129
  0
LINE
  8
0
 10
96.7336
 20
123.129
 11
96.9438
 21
123.212
  0
LINE
  8
0
 10
96.9438
 20
123.212
 11
97.1627
 21
123.268
  0
LINE
  8
0
 10
97.1627
 20
123.268
 11
97.387
 21
123.296
  0
LINE
  8
0
 10
97.387
 20
123.296
 11
97.613
 21
123.296
  0
LINE
  8
0
 10
97.613
 20
123.296
 11
97.8373
 21
123.268
  0
LINE
  8
0
 10
97.8373
 20
123.268
 11
98.0562
 21
123.212
  0
LINE
  8
0
 10
98.0562
 20
123.212
 11
98.2664
 21
123.129
  0
LINE
  8
0
 10
98.2664
 20
123.129
 11
98.4645
 21
123.02
  0
LINE
  8
0
 10
98.4645
 20
123.02
 11
98.6474
 21
122.887
  0
LINE
  8
0
 10
98.6474
 20
122.887
 11
98.8121
 21
122.732
  0
LINE
  8
0
 10
98.8121
 20
122.732
 11
98.9562
 21
122.558
  0
LINE
  8
0
 10
98.9562
 20
122.558
 11
99.0773
 21
122.367
  0
LINE
  8
0
 10
99.0773
 20
122.367
 11
99.1736
 21
122.163
  0
LINE
  8
0
 10
99.1736
 20
122.163
 11
99.2434
 21
121.948
  0
LINE
  8
0
 10
99.2434
 20
121.948
 11
99.2858
 21
121.726
  0
LINE
  8
0
 10
99.2858
 20
121.726
 11
99.3
 21
121.5
  0
LINE
  8
0
 10
99.3
 20
121.5
 11
99.2858
 21
121.274
  0
LINE
  8
0
 10
99.2858
 20
121.274
 11
99.2434
 21
121.052
  0
LINE
  8
0
 10
99.2434
 20
121.052
 11
99.1736
 21
120.837
  0
LINE
  8
0
 10
99.1736
 20
120.837
 11
99.0773
 21
120.633
  0
LINE
  8
0
 10
99.0773
 20
120.633
 11
98.9562
 21
120.442
  0
LINE
  8
0
 10
98.9562
 20
120.442
 11
98.8121
 21
120.268
  0
LINE
  8
0
 10
98.8121
 20
120.268
 11
98.6474
 21
120.113
  0
LINE
  8
0
 10
98.6474
 20
120.113
 11
98.4645
 21
119.98
  0
LINE
  8
0
 10
98.4645
 20
119.98
 11
98.2664
 21
119.871
  0
LINE
  8
0
 10
98.2664
 20
119.871
 11
98.0562
 21
119.788
  0
LINE
  8
0
 10
98.0562
 20
119.788
 11
97.8373
 21
119.732
  0
LINE
  8
0
 10
97.8373
 20
119.732
 11
97.613
 21
119.704
  0
LINE
  8
0
 10
97.613
 20
119.704
 11
97.387
 21
119.704
  0
ENDSEC
  0
SECTION
  2
OBJECTS
  0
DICTIONARY
  0
ENDSEC
  0
EOF
