<?xml version="1.0" standalone="no"?>
<!DOCTYPE svg PUBLIC "-//W3C//DTD SVG 1.1//EN" "http://www.w3.org/Graphics/SVG/1.1/DTD/svg11.dtd">
<svg width="210mm" height="786mm" viewBox="-105 -1347 210 786" xmlns="http://www.w3.org/2000/svg" version="1.1">
<title>OpenSCAD Model</title>
<path d="
M 100.937,-1197.09 L 101.545,-1197.24 L 102.129,-1197.48 L 102.679,-1197.78 L 103.187,-1198.15 L 103.645,-1198.58
 L 104.045,-1199.06 L 104.382,-1199.59 L 104.649,-1200.16 L 104.843,-1200.76 L 104.961,-1201.37 L 105,-1202
 L 105,-1342 L 104.961,-1342.63 L 104.843,-1343.24 L 104.649,-1343.84 L 104.382,-1344.41 L 104.045,-1344.94
 L 103.645,-1345.42 L 103.187,-1345.85 L 102.679,-1346.22 L 102.129,-1346.52 L 101.545,-1346.76 L 100.937,-1346.91
 L 100.314,-1346.99 L -100.314,-1346.99 L -100.937,-1346.91 L -101.545,-1346.76 L -102.129,-1346.52 L -102.679,-1346.22
 L -103.187,-1345.85 L -103.645,-1345.42 L -104.045,-1344.94 L -104.382,-1344.41 L -104.649,-1343.84 L -104.843,-1343.24
 L -104.9,-1342.94 L -105,-1342.94 L -105,-1201.06 L -104.9,-1201.06 L -104.843,-1200.76 L -104.649,-1200.16
 L -104.382,-1199.59 L -104.045,-1199.06 L -103.645,-1198.58 L -103.187,-1198.15 L -102.679,-1197.78 L -102.129,-1197.48
 L -101.545,-1197.24 L -100.937,-1197.09 L -100.314,-1197.01 L 100.314,-1197.01 z
M -99.7512,-1198.51 L -100.25,-1198.57 L -100.736,-1198.7 L -101.203,-1198.88 L -101.643,-1199.12 L -102.05,-1199.42
 L -102.416,-1199.76 L -102.736,-1200.15 L -103.005,-1200.57 L -103.219,-1201.03 L -103.374,-1201.51 L -103.468,-1202
 L -103.5,-1202.5 L -103.5,-1341.5 L -103.468,-1342 L -103.374,-1342.49 L -103.219,-1342.97 L -103.005,-1343.43
 L -102.736,-1343.85 L -102.416,-1344.24 L -102.05,-1344.58 L -101.643,-1344.88 L -101.203,-1345.12 L -100.736,-1345.3
 L -100.25,-1345.43 L -99.7512,-1345.49 L 99.7512,-1345.49 L 100.25,-1345.43 L 100.736,-1345.3 L 101.203,-1345.12
 L 101.643,-1344.88 L 102.05,-1344.58 L 102.416,-1344.24 L 102.736,-1343.85 L 103.005,-1343.43 L 103.219,-1342.97
 L 103.374,-1342.49 L 103.468,-1342 L 103.5,-1341.5 L 103.5,-1202.5 L 103.468,-1202 L 103.374,-1201.51
 L 103.219,-1201.03 L 103.005,-1200.57 L 102.736,-1200.15 L 102.416,-1199.76 L 102.05,-1199.42 L 101.643,-1199.12
 L 101.203,-1198.88 L 100.736,-1198.7 L 100.25,-1198.57 L 99.7512,-1198.51 z
M 100.937,-1038.09 L 101.545,-1038.24 L 102.129,-1038.48 L 102.679,-1038.78 L 103.187,-1039.15 L 103.645,-1039.58
 L 104.045,-1040.06 L 104.382,-1040.59 L 104.649,-1041.16 L 104.843,-1041.76 L 104.961,-1042.37 L 105,-1043
 L 105,-1183 L 104.961,-1183.63 L 104.843,-1184.24 L 104.649,-1184.84 L 104.382,-1185.41 L 104.045,-1185.94
 L 103.645,-1186.42 L 103.187,-1186.85 L 102.679,-1187.22 L 102.129,-1187.52 L 101.545,-1187.76 L 100.937,-1187.91
 L 100.314,-1187.99 L -100.314,-1187.99 L -100.937,-1187.91 L -101.545,-1187.76 L -102.129,-1187.52 L -102.679,-1187.22
 L -103.187,-1186.85 L -103.645,-1186.42 L -104.045,-1185.94 L -104.382,-1185.41 L -104.649,-1184.84 L -104.843,-1184.24
 L -104.961,-1183.63 L -105,-1183 L -105,-1043 L -104.961,-1042.37 L -104.843,-1041.76 L -104.649,-1041.16
 L -104.382,-1040.59 L -104.045,-1040.06 L -103.645,-1039.58 L -103.187,-1039.15 L -102.679,-1038.78 L -102.129,-1038.48
 L -101.545,-1038.24 L -100.937,-1038.09 L -100.314,-1038.01 L 100.314,-1038.01 z
M -99.7512,-1039.51 L -100.25,-1039.57 L -100.736,-1039.7 L -101.203,-1039.88 L -101.643,-1040.12 L -102.05,-1040.42
 L -102.416,-1040.76 L -102.736,-1041.15 L -103.005,-1041.57 L -103.219,-1042.03 L -103.374,-1042.51 L -103.468,-1043
 L -103.5,-1043.5 L -103.5,-1182.5 L -103.468,-1183 L -103.374,-1183.49 L -103.219,-1183.97 L -103.005,-1184.43
 L -102.736,-1184.85 L -102.416,-1185.24 L -102.05,-1185.58 L -101.643,-1185.88 L -101.203,-1186.12 L -100.736,-1186.3
 L -100.25,-1186.43 L -99.7512,-1186.49 L 99.7512,-1186.49 L 100.25,-1186.43 L 100.736,-1186.3 L 101.203,-1186.12
 L 101.643,-1185.88 L 102.05,-1185.58 L 102.416,-1185.24 L 102.736,-1184.85 L 103.005,-1184.43 L 103.219,-1183.97
 L 103.374,-1183.49 L 103.468,-1183 L 103.5,-1182.5 L 103.5,-1043.5 L 103.468,-1043 L 103.374,-1042.51
 L 103.219,-1042.03 L 103.005,-1041.57 L 102.736,-1041.15 L 102.416,-1040.76 L 102.05,-1040.42 L 101.643,-1040.12
 L 101.203,-1039.88 L 100.736,-1039.7 L 100.25,-1039.57 L 99.7512,-1039.51 z
M 100.937,-879.089 L 101.545,-879.245 L 102.129,-879.476 L 102.679,-879.778 L 103.187,-880.147 L 103.645,-880.577
 L 104.045,-881.061 L 104.382,-881.591 L 104.649,-882.159 L 104.843,-882.757 L 104.961,-883.373 L 105,-884
 L 105,-1024 L 104.961,-1024.63 L 104.843,-1025.24 L 104.649,-1025.84 L 104.382,-1026.41 L 104.045,-1026.94
 L 103.645,-1027.42 L 103.187,-1027.85 L 102.679,-1028.22 L 102.129,-1028.52 L 101.545,-1028.76 L 100.937,-1028.91
 L 100.314,-1028.99 L -100.314,-1028.99 L -100.937,-1028.91 L -101.545,-1028.76 L -102.129,-1028.52 L -102.679,-1028.22
 L -103.187,-1027.85 L -103.645,-1027.42 L -104.045,-1026.94 L -104.382,-1026.41 L -104.649,-1025.84 L -104.843,-1025.24
 L -104.961,-1024.63 L -105,-1024 L -105,-884 L -104.961,-883.373 L -104.843,-882.757 L -104.649,-882.159
 L -104.382,-881.591 L -104.045,-881.061 L -103.645,-880.577 L -103.187,-880.147 L -102.679,-879.778 L -102.129,-879.476
 L -101.545,-879.245 L -100.937,-879.089 L -100.314,-879.01 L 100.314,-879.01 z
M -99.7432,-880.635 L -100.226,-880.696 L -100.697,-880.817 L -101.149,-880.996 L -101.575,-881.23 L -101.969,-881.516
 L -102.323,-881.849 L -102.633,-882.224 L -102.894,-882.634 L -103.101,-883.074 L -103.251,-883.537 L -103.342,-884.015
 L -103.373,-884.5 L -103.373,-1023.5 L -103.342,-1023.99 L -103.251,-1024.46 L -103.101,-1024.93 L -102.894,-1025.37
 L -102.633,-1025.78 L -102.323,-1026.15 L -101.969,-1026.48 L -101.575,-1026.77 L -101.149,-1027 L -100.697,-1027.18
 L -100.226,-1027.3 L -99.7432,-1027.36 L 99.7432,-1027.36 L 100.226,-1027.3 L 100.697,-1027.18 L 101.149,-1027
 L 101.575,-1026.77 L 101.969,-1026.48 L 102.323,-1026.15 L 102.633,-1025.78 L 102.894,-1025.37 L 103.101,-1024.93
 L 103.251,-1024.46 L 103.342,-1023.99 L 103.373,-1023.5 L 103.373,-884.5 L 103.342,-884.015 L 103.251,-883.537
 L 103.101,-883.074 L 102.894,-882.634 L 102.633,-882.224 L 102.323,-881.849 L 101.969,-881.516 L 101.575,-881.23
 L 101.149,-880.996 L 100.697,-880.817 L 100.226,-880.696 L 99.7432,-880.635 z
M 100.937,-720.089 L 101.545,-720.245 L 102.129,-720.476 L 102.679,-720.778 L 103.187,-721.147 L 103.645,-721.577
 L 104.045,-722.061 L 104.382,-722.591 L 104.649,-723.159 L 104.843,-723.757 L 104.961,-724.373 L 105,-725
 L 105,-865 L 104.961,-865.627 L 104.843,-866.243 L 104.649,-866.841 L 104.382,-867.409 L 104.045,-867.939
 L 103.645,-868.423 L 103.187,-868.853 L 102.679,-869.222 L 102.129,-869.524 L 101.545,-869.755 L 100.937,-869.911
 L 100.314,-869.99 L -100.314,-869.99 L -100.937,-869.911 L -101.545,-869.755 L -102.129,-869.524 L -102.679,-869.222
 L -103.187,-868.853 L -103.645,-868.423 L -104.045,-867.939 L -104.382,-867.409 L -104.649,-866.841 L -104.843,-866.243
 L -104.961,-865.627 L -105,-865 L -105,-725 L -104.961,-724.373 L -104.843,-723.757 L -104.649,-723.159
 L -104.382,-722.591 L -104.045,-722.061 L -103.645,-721.577 L -103.187,-721.147 L -102.679,-720.778 L -102.129,-720.476
 L -101.545,-720.245 L -100.937,-720.089 L -100.314,-720.01 L 100.314,-720.01 z
M 97.3493,-860.105 L 97.0503,-860.143 L 96.7584,-860.217 L 96.4781,-860.328 L 96.214,-860.474 L 95.9702,-860.651
 L 95.7505,-860.857 L 95.5583,-861.089 L 95.3969,-861.344 L 95.2685,-861.617 L 95.1754,-861.903 L 95.1189,-862.199
 L 95.1,-862.5 L 95.1189,-862.801 L 95.1754,-863.097 L 95.2685,-863.383 L 95.3969,-863.656 L 95.5583,-863.911
 L 95.7505,-864.143 L 95.9702,-864.349 L 96.214,-864.526 L 96.4781,-864.672 L 96.7584,-864.783 L 97.0503,-864.857
 L 97.3493,-864.895 L 97.6507,-864.895 L 97.9497,-864.857 L 98.2416,-864.783 L 98.5219,-864.672 L 98.786,-864.526
 L 99.0298,-864.349 L 99.2495,-864.143 L 99.4416,-863.911 L 99.6031,-863.656 L 99.7315,-863.383 L 99.8246,-863.097
 L 99.8811,-862.801 L 99.9,-862.5 L 99.8811,-862.199 L 99.8246,-861.903 L 99.7315,-861.617 L 99.6031,-861.344
 L 99.4416,-861.089 L 99.2495,-860.857 L 99.0298,-860.651 L 98.786,-860.474 L 98.5219,-860.328 L 98.2416,-860.217
 L 97.9497,-860.143 L 97.6507,-860.105 z
M -97.6507,-860.105 L -97.9497,-860.143 L -98.2416,-860.217 L -98.5219,-860.328 L -98.786,-860.474 L -99.0298,-860.651
 L -99.2495,-860.857 L -99.4416,-861.089 L -99.6031,-861.344 L -99.7315,-861.617 L -99.8246,-861.903 L -99.8811,-862.199
 L -99.9,-862.5 L -99.8811,-862.801 L -99.8246,-863.097 L -99.7315,-863.383 L -99.6031,-863.656 L -99.4416,-863.911
 L -99.2495,-864.143 L -99.0298,-864.349 L -98.786,-864.526 L -98.5219,-864.672 L -98.2416,-864.783 L -97.9497,-864.857
 L -97.6507,-864.895 L -97.3493,-864.895 L -97.0503,-864.857 L -96.7584,-864.783 L -96.4781,-864.672 L -96.214,-864.526
 L -95.9702,-864.349 L -95.7505,-864.143 L -95.5583,-863.911 L -95.3969,-863.656 L -95.2685,-863.383 L -95.1754,-863.097
 L -95.1189,-862.801 L -95.1,-862.5 L -95.1189,-862.199 L -95.1754,-861.903 L -95.2685,-861.617 L -95.3969,-861.344
 L -95.5583,-861.089 L -95.7505,-860.857 L -95.9702,-860.651 L -96.214,-860.474 L -96.4781,-860.328 L -96.7584,-860.217
 L -97.0503,-860.143 L -97.3493,-860.105 z
M 97.3493,-725.105 L 97.0503,-725.143 L 96.7584,-725.217 L 96.4781,-725.328 L 96.214,-725.474 L 95.9702,-725.651
 L 95.7505,-725.857 L 95.5583,-726.089 L 95.3969,-726.344 L 95.2685,-726.617 L 95.1754,-726.903 L 95.1189,-727.199
 L 95.1,-727.5 L 95.1189,-727.801 L 95.1754,-728.097 L 95.2685,-728.383 L 95.3969,-728.656 L 95.5583,-728.911
 L 95.7505,-729.143 L 95.9702,-729.349 L 96.214,-729.526 L 96.4781,-729.672 L 96.7584,-729.783 L 97.0503,-729.857
 L 97.3493,-729.895 L 97.6507,-729.895 L 97.9497,-729.857 L 98.2416,-729.783 L 98.5219,-729.672 L 98.786,-729.526
 L 99.0298,-729.349 L 99.2495,-729.143 L 99.4416,-728.911 L 99.6031,-728.656 L 99.7315,-728.383 L 99.8246,-728.097
 L 99.8811,-727.801 L 99.9,-727.5 L 99.8811,-727.199 L 99.8246,-726.903 L 99.7315,-726.617 L 99.6031,-726.344
 L 99.4416,-726.089 L 99.2495,-725.857 L 99.0298,-725.651 L 98.786,-725.474 L 98.5219,-725.328 L 98.2416,-725.217
 L 97.9497,-725.143 L 97.6507,-725.105 z
M -97.6507,-725.105 L -97.9497,-725.143 L -98.2416,-725.217 L -98.5219,-725.328 L -98.786,-725.474 L -99.0298,-725.651
 L -99.2495,-725.857 L -99.4416,-726.089 L -99.6031,-726.344 L -99.7315,-726.617 L -99.8246,-726.903 L -99.8811,-727.199
 L -99.9,-727.5 L -99.8811,-727.801 L -99.8246,-728.097 L -99.7315,-728.383 L -99.6031,-728.656 L -99.4416,-728.911
 L -99.2495,-729.143 L -99.0298,-729.349 L -98.786,-729.526 L -98.5219,-729.672 L -98.2416,-729.783 L -97.9497,-729.857
 L -97.6507,-729.895 L -97.3493,-729.895 L -97.0503,-729.857 L -96.7584,-729.783 L -96.4781,-729.672 L -96.214,-729.526
 L -95.9702,-729.349 L -95.7505,-729.143 L -95.5583,-728.911 L -95.3969,-728.656 L -95.2685,-728.383 L -95.1754,-728.097
 L -95.1189,-727.801 L -95.1,-727.5 L -95.1189,-727.199 L -95.1754,-726.903 L -95.2685,-726.617 L -95.3969,-726.344
 L -95.5583,-726.089 L -95.7505,-725.857 L -95.9702,-725.651 L -96.214,-725.474 L -96.4781,-725.328 L -96.7584,-725.217
 L -97.0503,-725.143 L -97.3493,-725.105 z
M 100.937,-561.089 L 101.545,-561.245 L 102.129,-561.476 L 102.679,-561.778 L 103.187,-562.147 L 103.645,-562.577
 L 104.045,-563.061 L 104.382,-563.591 L 104.649,-564.159 L 104.843,-564.757 L 104.961,-565.373 L 105,-566
 L 105,-706 L 104.961,-706.627 L 104.843,-707.243 L 104.649,-707.841 L 104.382,-708.409 L 104.045,-708.939
 L 103.645,-709.423 L 103.187,-709.853 L 102.679,-710.222 L 102.129,-710.524 L 101.545,-710.755 L 100.937,-710.911
 L 100.314,-710.99 L -100.314,-710.99 L -100.937,-710.911 L -101.545,-710.755 L -102.129,-710.524 L -102.679,-710.222
 L -103.187,-709.853 L -103.645,-709.423 L -104.045,-708.939 L -104.382,-708.409 L -104.649,-707.841 L -104.843,-707.243
 L -104.961,-706.627 L -105,-706 L -105,-566 L -104.961,-565.373 L -104.843,-564.757 L -104.649,-564.159
 L -104.382,-563.591 L -104.045,-563.061 L -103.645,-562.577 L -103.187,-562.147 L -102.679,-561.778 L -102.129,-561.476
 L -101.545,-561.245 L -100.937,-561.089 L -100.314,-561.01 L 100.314,-561.01 z
M 97.387,-701.704 L 97.1627,-701.732 L 96.9438,-701.788 L 96.7336,-701.871 L 96.5355,-701.98 L 96.3526,-702.113
 L 96.1879,-702.268 L 96.0438,-702.442 L 95.9226,-702.633 L 95.8264,-702.837 L 95.7565,-703.052 L 95.7142,-703.274
 L 95.7,-703.5 L 95.7142,-703.726 L 95.7565,-703.948 L 95.8264,-704.163 L 95.9226,-704.367 L 96.0438,-704.558
 L 96.1879,-704.732 L 96.3526,-704.887 L 96.5355,-705.02 L 96.7336,-705.129 L 96.9438,-705.212 L 97.1627,-705.268
 L 97.387,-705.296 L 97.613,-705.296 L 97.8373,-705.268 L 98.0562,-705.212 L 98.2664,-705.129 L 98.4645,-705.02
 L 98.6474,-704.887 L 98.8121,-704.732 L 98.9562,-704.558 L 99.0773,-704.367 L 99.1736,-704.163 L 99.2434,-703.948
 L 99.2858,-703.726 L 99.3,-703.5 L 99.2858,-703.274 L 99.2434,-703.052 L 99.1736,-702.837 L 99.0773,-702.633
 L 98.9562,-702.442 L 98.8121,-702.268 L 98.6474,-702.113 L 98.4645,-701.98 L 98.2664,-701.871 L 98.0562,-701.788
 L 97.8373,-701.732 L 97.613,-701.704 z
M -97.613,-701.704 L -97.8373,-701.732 L -98.0562,-701.788 L -98.2664,-701.871 L -98.4645,-701.98 L -98.6474,-702.113
 L -98.8121,-702.268 L -98.9562,-702.442 L -99.0773,-702.633 L -99.1736,-702.837 L -99.2434,-703.052 L -99.2858,-703.274
 L -99.3,-703.5 L -99.2858,-703.726 L -99.2434,-703.948 L -99.1736,-704.163 L -99.0773,-704.367 L -98.9562,-704.558
 L -98.8121,-704.732 L -98.6474,-704.887 L -98.4645,-705.02 L -98.2664,-705.129 L -98.0562,-705.212 L -97.8373,-705.268
 L -97.613,-705.296 L -97.387,-705.296 L -97.1627,-705.268 L -96.9438,-705.212 L -96.7336,-705.129 L -96.5355,-705.02
 L -96.3526,-704.887 L -96.1879,-704.732 L -96.0438,-704.558 L -95.9226,-704.367 L -95.8264,-704.163 L -95.7565,-703.948
 L -95.7142,-703.726 L -95.7,-703.5 L -95.7142,-703.274 L -95.7565,-703.052 L -95.8264,-702.837 L -95.9226,-702.633
 L -96.0438,-702.442 L -96.1879,-702.268 L -96.3526,-702.113 L -96.5355,-701.98 L -96.7336,-701.871 L -96.9438,-701.788
 L -97.1627,-701.732 L -97.387,-701.704 z
M -97.613,-566.704 L -97.8373,-566.732 L -98.0562,-566.788 L -98.2664,-566.871 L -98.4645,-566.98 L -98.6474,-567.113
 L -98.8121,-567.268 L -98.9562,-567.442 L -99.0773,-567.633 L -99.1736,-567.837 L -99.2434,-568.052 L -99.2858,-568.274
 L -99.3,-568.5 L -99.2858,-568.726 L -99.2434,-568.948 L -99.1736,-569.163 L -99.0773,-569.367 L -98.9562,-569.558
 L -98.8121,-569.732 L -98.6474,-569.887 L -98.4645,-570.02 L -98.2664,-570.129 L -98.0562,-570.212 L -97.8373,-570.268
 L -97.613,-570.296 L -97.387,-570.296 L -97.1627,-570.268 L -96.9438,-570.212 L -96.7336,-570.129 L -96.5355,-570.02
 L -96.3526,-569.887 L -96.1879,-569.732 L -96.0438,-569.558 L -95.9226,-569.367 L -95.8264,-569.163 L -95.7565,-568.948
 L -95.7142,-568.726 L -95.7,-568.5 L -95.7142,-568.274 L -95.7565,-568.052 L -95.8264,-567.837 L -95.9226,-567.633
 L -96.0438,-567.442 L -96.1879,-567.268 L -96.3526,-567.113 L -96.5355,-566.98 L -96.7336,-566.871 L -96.9438,-566.788
 L -97.1627,-566.732 L -97.387,-566.704 z
M 97.387,-566.704 L 97.1627,-566.732 L 96.9438,-566.788 L 96.7336,-566.871 L 96.5355,-566.98 L 96.3526,-567.113
 L 96.1879,-567.268 L 96.0438,-567.442 L 95.9226,-567.633 L 95.8264,-567.837 L 95.7565,-568.052 L 95.7142,-568.274
 L 95.7,-568.5 L 95.7142,-568.726 L 95.7565,-568.948 L 95.8264,-569.163 L 95.9226,-569.367 L 96.0438,-569.558
 L 96.1879,-569.732 L 96.3526,-569.887 L 96.5355,-570.02 L 96.7336,-570.129 L 96.9438,-570.212 L 97.1627,-570.268
 L 97.387,-570.296 L 97.613,-570.296 L 97.8373,-570.268 L 98.0562,-570.212 L 98.2664,-570.129 L 98.4645,-570.02
 L 98.6474,-569.887 L 98.8121,-569.732 L 98.9562,-569.558 L 99.0773,-569.367 L 99.1736,-569.163 L 99.2434,-568.948
 L 99.2858,-568.726 L 99.3,-568.5 L 99.2858,-568.274 L 99.2434,-568.052 L 99.1736,-567.837 L 99.0773,-567.633
 L 98.9562,-567.442 L 98.8121,-567.268 L 98.6474,-567.113 L 98.4645,-566.98 L 98.2664,-566.871 L 98.0562,-566.788
 L 97.8373,-566.732 L 97.613,-566.704 z
" stroke="black" fill="lightgray" stroke-width="0.5"/>
</svg>
