<?xml version="1.0" standalone="no"?>
<!DOCTYPE svg PUBLIC "-//W3C//DTD SVG 1.1//EN" "http://www.w3.org/Graphics/SVG/1.1/DTD/svg11.dtd">
<svg width="196mm" height="369mm" viewBox="-98 -657 196 369" xmlns="http://www.w3.org/2000/svg" version="1.1">
<title>OpenSCAD Model</title>
<path d="
M 93.4369,-477.089 L 94.0451,-477.245 L 94.6289,-477.476 L 95.1791,-477.778 L 95.6871,-478.147 L 96.1448,-478.577
 L 96.5451,-479.061 L 96.8815,-479.591 L 97.1489,-480.159 L 97.3429,-480.757 L 97.4606,-481.373 L 97.5,-482
 L 97.5,-652 L 97.4606,-652.627 L 97.3429,-653.243 L 97.1489,-653.841 L 96.8815,-654.409 L 96.5451,-654.939
 L 96.1448,-655.423 L 95.6871,-655.853 L 95.1791,-656.222 L 94.6289,-656.524 L 94.0451,-656.755 L 93.4369,-656.911
 L 92.8139,-656.99 L -92.8139,-656.99 L -93.4369,-656.911 L -94.0451,-656.755 L -94.6289,-656.524 L -95.1791,-656.222
 L -95.6871,-655.853 L -96.1448,-655.423 L -96.5451,-654.939 L -96.8815,-654.409 L -97.1489,-653.841 L -97.3429,-653.243
 L -97.4606,-652.627 L -97.5,-652 L -97.5,-482 L -97.4606,-481.373 L -97.3429,-480.757 L -97.1489,-480.159
 L -96.8815,-479.591 L -96.5451,-479.061 L -96.1448,-478.577 L -95.6871,-478.147 L -95.1791,-477.778 L -94.6289,-477.476
 L -94.0451,-477.245 L -93.4369,-477.089 L -92.8139,-477.01 L 92.8139,-477.01 z
M -92.5375,-477.681 L -93.1079,-477.753 L -93.6648,-477.896 L -94.1994,-478.107 L -94.7032,-478.384 L -95.1684,-478.722
 L -95.5875,-479.116 L -95.954,-479.559 L -96.2621,-480.044 L -96.5069,-480.565 L -96.6846,-481.111 L -96.7923,-481.676
 L -96.8284,-482.25 L -96.8284,-651.75 L -96.7923,-652.324 L -96.6846,-652.889 L -96.5069,-653.435 L -96.2621,-653.956
 L -95.954,-654.441 L -95.5875,-654.884 L -95.1684,-655.278 L -94.7032,-655.616 L -94.1994,-655.893 L -93.6648,-656.104
 L -93.1079,-656.247 L -92.5375,-656.319 L 92.5375,-656.319 L 93.1079,-656.247 L 93.6648,-656.104 L 94.1994,-655.893
 L 94.7032,-655.616 L 95.1684,-655.278 L 95.5875,-654.884 L 95.954,-654.441 L 96.2621,-653.956 L 96.5069,-653.435
 L 96.6846,-652.889 L 96.7923,-652.324 L 96.8284,-651.75 L 96.8284,-482.25 L 96.7923,-481.676 L 96.6846,-481.111
 L 96.5069,-480.565 L 96.2621,-480.044 L 95.954,-479.559 L 95.5875,-479.116 L 95.1684,-478.722 L 94.7032,-478.384
 L 94.1994,-478.107 L 93.6648,-477.896 L 93.1079,-477.753 L 92.5375,-477.681 z
M 93.4369,-288.089 L 94.0451,-288.245 L 94.6289,-288.476 L 95.1791,-288.778 L 95.6871,-289.147 L 96.1448,-289.577
 L 96.5451,-290.061 L 96.8815,-290.591 L 97.1489,-291.159 L 97.3429,-291.757 L 97.4606,-292.373 L 97.5,-293
 L 97.5,-463 L 97.4606,-463.627 L 97.3429,-464.243 L 97.1489,-464.841 L 96.8815,-465.409 L 96.5451,-465.939
 L 96.1448,-466.423 L 95.6871,-466.853 L 95.1791,-467.222 L 94.6289,-467.524 L 94.0451,-467.755 L 93.4369,-467.911
 L 92.8139,-467.99 L -92.8139,-467.99 L -93.4369,-467.911 L -94.0451,-467.755 L -94.6289,-467.524 L -95.1791,-467.222
 L -95.6871,-466.853 L -96.1448,-466.423 L -96.5451,-465.939 L -96.8815,-465.409 L -97.1489,-464.841 L -97.3429,-464.243
 L -97.4606,-463.627 L -97.5,-463 L -97.5,-293 L -97.4606,-292.373 L -97.3429,-291.757 L -97.1489,-291.159
 L -96.8815,-290.591 L -96.5451,-290.061 L -96.1448,-289.577 L -95.6871,-289.147 L -95.1791,-288.778 L -94.6289,-288.476
 L -94.0451,-288.245 L -93.4369,-288.089 L -92.8139,-288.01 L 92.8139,-288.01 z
M -92.3825,-291.145 L -92.6453,-291.178 L -92.9019,-291.244 L -93.1482,-291.341 L -93.3804,-291.469 L -93.5947,-291.624
 L -93.7879,-291.806 L -93.9567,-292.01 L -94.0987,-292.234 L -94.2115,-292.473 L -94.2934,-292.725 L -94.343,-292.986
 L -94.3596,-293.25 L -94.3596,-462.75 L -94.343,-463.014 L -94.2934,-463.275 L -94.2115,-463.527 L -94.0987,-463.766
 L -93.9567,-463.99 L -93.7879,-464.194 L -93.5947,-464.376 L -93.3804,-464.531 L -93.1482,-464.659 L -92.9019,-464.756
 L -92.6453,-464.822 L -92.3825,-464.855 L 92.3825,-464.855 L 92.6453,-464.822 L 92.9019,-464.756 L 93.1482,-464.659
 L 93.3804,-464.531 L 93.5947,-464.376 L 93.7879,-464.194 L 93.9567,-463.99 L 94.0987,-463.766 L 94.2115,-463.527
 L 94.2934,-463.275 L 94.343,-463.014 L 94.3596,-462.75 L 94.3596,-293.25 L 94.343,-292.986 L 94.2934,-292.725
 L 94.2115,-292.473 L 94.0987,-292.234 L 93.9567,-292.01 L 93.7879,-291.806 L 93.5947,-291.624 L 93.3804,-291.469
 L 93.1482,-291.341 L 92.9019,-291.244 L 92.6453,-291.178 L 92.3825,-291.145 z
" stroke="black" fill="lightgray" stroke-width="0.5"/>
</svg>
