solid OpenSCAD_Model
  facet normal 0.998026 0.0627961 1.89591e-18
    outer loop
      vertex 50 0 10
      vertex 49.6057 6.26666 0
      vertex 49.6057 6.26666 10
    endloop
  endfacet
  facet normal 0.998026 0.0627961 1.89591e-18
    outer loop
      vertex 49.6057 6.26666 0
      vertex 50 0 10
      vertex 50 0 0
    endloop
  endfacet
  facet normal -0.998026 0.0627961 -1.89591e-18
    outer loop
      vertex -50 0 0
      vertex -49.6057 6.26666 10
      vertex -49.6057 6.26666 0
    endloop
  endfacet
  facet normal -0.998026 0.0627961 -1.89591e-18
    outer loop
      vertex -49.6057 6.26666 10
      vertex -50 0 0
      vertex -50 0 10
    endloop
  endfacet
  facet normal 0 1 -0
    outer loop
      vertex 3.13953 49.9013 0
      vertex -3.13953 49.9013 10
      vertex 3.13953 49.9013 10
    endloop
  endfacet
  facet normal 0 1 0
    outer loop
      vertex -3.13953 49.9013 10
      vertex 3.13953 49.9013 0
      vertex -3.13953 49.9013 0
    endloop
  endfacet
  facet normal 0 -1 0
    outer loop
      vertex -3.13953 -49.9013 0
      vertex 3.13953 -49.9013 10
      vertex -3.13953 -49.9013 10
    endloop
  endfacet
  facet normal 0 -1 -0
    outer loop
      vertex 3.13953 -49.9013 10
      vertex -3.13953 -49.9013 0
      vertex 3.13953 -49.9013 0
    endloop
  endfacet
  facet normal 0.684549 0.728967 -0
    outer loop
      vertex 36.4484 34.2274 0
      vertex 31.8712 38.5257 10
      vertex 36.4484 34.2274 10
    endloop
  endfacet
  facet normal 0.684549 0.728967 0
    outer loop
      vertex 31.8712 38.5257 10
      vertex 36.4484 34.2274 0
      vertex 31.8712 38.5257 0
    endloop
  endfacet
  facet normal -0.684549 0.728967 0
    outer loop
      vertex -31.8712 38.5257 0
      vertex -36.4484 34.2274 10
      vertex -31.8712 38.5257 10
    endloop
  endfacet
  facet normal -0.684549 0.728967 0
    outer loop
      vertex -36.4484 34.2274 10
      vertex -31.8712 38.5257 0
      vertex -36.4484 34.2274 0
    endloop
  endfacet
  facet normal -0.36811 0.929782 0
    outer loop
      vertex -15.4508 47.5528 0
      vertex -21.289 45.2414 10
      vertex -15.4508 47.5528 10
    endloop
  endfacet
  facet normal -0.36811 0.929782 0
    outer loop
      vertex -21.289 45.2414 10
      vertex -15.4508 47.5528 0
      vertex -21.289 45.2414 0
    endloop
  endfacet
  facet normal 0.904828 0.425778 1.41174e-17
    outer loop
      vertex 46.4888 18.4062 10
      vertex 43.8153 24.0877 0
      vertex 43.8153 24.0877 10
    endloop
  endfacet
  facet normal 0.904828 0.425778 1.41174e-17
    outer loop
      vertex 43.8153 24.0877 0
      vertex 46.4888 18.4062 10
      vertex 46.4888 18.4062 0
    endloop
  endfacet
  facet normal 0.36811 0.929782 -0
    outer loop
      vertex 21.289 45.2414 0
      vertex 15.4508 47.5528 10
      vertex 21.289 45.2414 10
    endloop
  endfacet
  facet normal 0.36811 0.929782 0
    outer loop
      vertex 15.4508 47.5528 10
      vertex 21.289 45.2414 0
      vertex 15.4508 47.5528 0
    endloop
  endfacet
  facet normal 0.248701 0.96858 -0
    outer loop
      vertex 15.4508 47.5528 0
      vertex 9.36907 49.1144 10
      vertex 15.4508 47.5528 10
    endloop
  endfacet
  facet normal 0.248701 0.96858 0
    outer loop
      vertex 9.36907 49.1144 10
      vertex 15.4508 47.5528 0
      vertex 9.36907 49.1144 0
    endloop
  endfacet
  facet normal 0.481764 0.876301 -0
    outer loop
      vertex 26.7913 42.2164 0
      vertex 21.289 45.2414 10
      vertex 26.7913 42.2164 10
    endloop
  endfacet
  facet normal 0.481764 0.876301 0
    outer loop
      vertex 21.289 45.2414 10
      vertex 26.7913 42.2164 0
      vertex 21.289 45.2414 0
    endloop
  endfacet
  facet normal -0.844335 0.535816 -1.54436e-17
    outer loop
      vertex -43.8153 24.0877 0
      vertex -40.4509 29.3893 10
      vertex -40.4509 29.3893 0
    endloop
  endfacet
  facet normal -0.844335 0.535816 -1.54436e-17
    outer loop
      vertex -40.4509 29.3893 10
      vertex -43.8153 24.0877 0
      vertex -43.8153 24.0877 10
    endloop
  endfacet
  facet normal -0.770507 0.637431 -2.65218e-17
    outer loop
      vertex -40.4509 29.3893 0
      vertex -36.4484 34.2274 10
      vertex -36.4484 34.2274 0
    endloop
  endfacet
  facet normal -0.770507 0.637431 -2.65218e-17
    outer loop
      vertex -36.4484 34.2274 10
      vertex -40.4509 29.3893 0
      vertex -40.4509 29.3893 10
    endloop
  endfacet
  facet normal 0 0 1
    outer loop
      vertex 40 0 10
      vertex 50 0 10
      vertex 49.6057 6.26666 10
    endloop
  endfacet
  facet normal 0 0 1
    outer loop
      vertex 39.6846 5.01333 10
      vertex 49.6057 6.26666 10
      vertex 48.4292 12.4345 10
    endloop
  endfacet
  facet normal 0 0 1
    outer loop
      vertex 50 0 10
      vertex 40 0 10
      vertex 49.6057 -6.26666 10
    endloop
  endfacet
  facet normal 0 0 1
    outer loop
      vertex 38.7433 9.94759 10
      vertex 48.4292 12.4345 10
      vertex 46.4888 18.4062 10
    endloop
  endfacet
  facet normal -0 0 1
    outer loop
      vertex 39.6846 -5.01333 10
      vertex 49.6057 -6.26666 10
      vertex 40 0 10
    endloop
  endfacet
  facet normal 0 0 1
    outer loop
      vertex 37.1911 14.725 10
      vertex 46.4888 18.4062 10
      vertex 43.8153 24.0877 10
    endloop
  endfacet
  facet normal 0 0 1
    outer loop
      vertex 49.6057 -6.26666 10
      vertex 39.6846 -5.01333 10
      vertex 48.4292 -12.4345 10
    endloop
  endfacet
  facet normal 0 0 1
    outer loop
      vertex 35.0523 19.2701 10
      vertex 43.8153 24.0877 10
      vertex 40.4509 29.3893 10
    endloop
  endfacet
  facet normal -0 0 1
    outer loop
      vertex 38.7433 -9.94759 10
      vertex 48.4292 -12.4345 10
      vertex 39.6846 -5.01333 10
    endloop
  endfacet
  facet normal 0 0 1
    outer loop
      vertex 48.4292 -12.4345 10
      vertex 38.7433 -9.94759 10
      vertex 46.4888 -18.4062 10
    endloop
  endfacet
  facet normal 0 0 1
    outer loop
      vertex 49.6057 6.26666 10
      vertex 39.6846 5.01333 10
      vertex 40 0 10
    endloop
  endfacet
  facet normal 0 0 1
    outer loop
      vertex 48.4292 12.4345 10
      vertex 38.7433 9.94759 10
      vertex 39.6846 5.01333 10
    endloop
  endfacet
  facet normal 0 0 1
    outer loop
      vertex 46.4888 18.4062 10
      vertex 37.1911 14.725 10
      vertex 38.7433 9.94759 10
    endloop
  endfacet
  facet normal 0 0 1
    outer loop
      vertex 32.3607 23.5114 10
      vertex 40.4509 29.3893 10
      vertex 36.4484 34.2274 10
    endloop
  endfacet
  facet normal 0 0 1
    outer loop
      vertex 43.8153 24.0877 10
      vertex 35.0523 19.2701 10
      vertex 37.1911 14.725 10
    endloop
  endfacet
  facet normal 0 0 1
    outer loop
      vertex 40.4509 29.3893 10
      vertex 32.3607 23.5114 10
      vertex 35.0523 19.2701 10
    endloop
  endfacet
  facet normal 0 0 1
    outer loop
      vertex 29.1587 27.3819 10
      vertex 36.4484 34.2274 10
      vertex 31.8712 38.5257 10
    endloop
  endfacet
  facet normal 0 0 1
    outer loop
      vertex 36.4484 34.2274 10
      vertex 29.1587 27.3819 10
      vertex 32.3607 23.5114 10
    endloop
  endfacet
  facet normal 0 0 1
    outer loop
      vertex 25.497 30.8205 10
      vertex 31.8712 38.5257 10
      vertex 26.7913 42.2164 10
    endloop
  endfacet
  facet normal 0 0 1
    outer loop
      vertex 31.8712 38.5257 10
      vertex 25.497 30.8205 10
      vertex 29.1587 27.3819 10
    endloop
  endfacet
  facet normal 0 0 1
    outer loop
      vertex 26.7913 42.2164 10
      vertex 21.4331 33.7731 10
      vertex 25.497 30.8205 10
    endloop
  endfacet
  facet normal 0 0 1
    outer loop
      vertex 21.289 45.2414 10
      vertex 21.4331 33.7731 10
      vertex 26.7913 42.2164 10
    endloop
  endfacet
  facet normal 0 0 1
    outer loop
      vertex 21.289 45.2414 10
      vertex 17.0312 36.1931 10
      vertex 21.4331 33.7731 10
    endloop
  endfacet
  facet normal 0 0 1
    outer loop
      vertex 15.4508 47.5528 10
      vertex 17.0312 36.1931 10
      vertex 21.289 45.2414 10
    endloop
  endfacet
  facet normal 0 0 1
    outer loop
      vertex 15.4508 47.5528 10
      vertex 12.3607 38.0423 10
      vertex 17.0312 36.1931 10
    endloop
  endfacet
  facet normal 0 0 1
    outer loop
      vertex 9.36907 49.1144 10
      vertex 12.3607 38.0423 10
      vertex 15.4508 47.5528 10
    endloop
  endfacet
  facet normal 0 0 1
    outer loop
      vertex 9.36907 49.1144 10
      vertex 7.49525 39.2915 10
      vertex 12.3607 38.0423 10
    endloop
  endfacet
  facet normal 0 0 1
    outer loop
      vertex 3.13953 49.9013 10
      vertex 7.49525 39.2915 10
      vertex 9.36907 49.1144 10
    endloop
  endfacet
  facet normal 0 0 1
    outer loop
      vertex 3.13953 49.9013 10
      vertex 2.51162 39.9211 10
      vertex 7.49525 39.2915 10
    endloop
  endfacet
  facet normal 0 0 1
    outer loop
      vertex 3.13953 49.9013 10
      vertex -2.51162 39.9211 10
      vertex 2.51162 39.9211 10
    endloop
  endfacet
  facet normal -0 0 1
    outer loop
      vertex -3.13953 49.9013 10
      vertex -2.51162 39.9211 10
      vertex 3.13953 49.9013 10
    endloop
  endfacet
  facet normal 0 0 1
    outer loop
      vertex -3.13953 49.9013 10
      vertex -7.49525 39.2915 10
      vertex -2.51162 39.9211 10
    endloop
  endfacet
  facet normal -0 0 1
    outer loop
      vertex -9.36907 49.1144 10
      vertex -7.49525 39.2915 10
      vertex -3.13953 49.9013 10
    endloop
  endfacet
  facet normal 0 0 1
    outer loop
      vertex -9.36907 49.1144 10
      vertex -12.3607 38.0423 10
      vertex -7.49525 39.2915 10
    endloop
  endfacet
  facet normal -0 0 1
    outer loop
      vertex -15.4508 47.5528 10
      vertex -12.3607 38.0423 10
      vertex -9.36907 49.1144 10
    endloop
  endfacet
  facet normal 0 0 1
    outer loop
      vertex -15.4508 47.5528 10
      vertex -17.0312 36.1931 10
      vertex -12.3607 38.0423 10
    endloop
  endfacet
  facet normal -0 0 1
    outer loop
      vertex -21.289 45.2414 10
      vertex -17.0312 36.1931 10
      vertex -15.4508 47.5528 10
    endloop
  endfacet
  facet normal 0 0 1
    outer loop
      vertex -21.289 45.2414 10
      vertex -21.4331 33.7731 10
      vertex -17.0312 36.1931 10
    endloop
  endfacet
  facet normal -0 0 1
    outer loop
      vertex -26.7913 42.2164 10
      vertex -21.4331 33.7731 10
      vertex -21.289 45.2414 10
    endloop
  endfacet
  facet normal 0 0 1
    outer loop
      vertex -21.4331 33.7731 10
      vertex -26.7913 42.2164 10
      vertex -25.497 30.8205 10
    endloop
  endfacet
  facet normal -0 0 1
    outer loop
      vertex -31.8712 38.5257 10
      vertex -25.497 30.8205 10
      vertex -26.7913 42.2164 10
    endloop
  endfacet
  facet normal 0 0 1
    outer loop
      vertex -25.497 30.8205 10
      vertex -31.8712 38.5257 10
      vertex -29.1587 27.3819 10
    endloop
  endfacet
  facet normal -0 0 1
    outer loop
      vertex -36.4484 34.2274 10
      vertex -29.1587 27.3819 10
      vertex -31.8712 38.5257 10
    endloop
  endfacet
  facet normal 0 0 1
    outer loop
      vertex -29.1587 27.3819 10
      vertex -36.4484 34.2274 10
      vertex -32.3607 23.5114 10
    endloop
  endfacet
  facet normal -0 0 1
    outer loop
      vertex -40.4509 29.3893 10
      vertex -32.3607 23.5114 10
      vertex -36.4484 34.2274 10
    endloop
  endfacet
  facet normal 0 0 1
    outer loop
      vertex -32.3607 23.5114 10
      vertex -40.4509 29.3893 10
      vertex -35.0523 19.2701 10
    endloop
  endfacet
  facet normal -0 0 1
    outer loop
      vertex -43.8153 24.0877 10
      vertex -35.0523 19.2701 10
      vertex -40.4509 29.3893 10
    endloop
  endfacet
  facet normal 0 0 1
    outer loop
      vertex -35.0523 19.2701 10
      vertex -43.8153 24.0877 10
      vertex -37.1911 14.725 10
    endloop
  endfacet
  facet normal 0 0 1
    outer loop
      vertex -37.1911 14.725 10
      vertex -46.4888 18.4062 10
      vertex -38.7433 9.94759 10
    endloop
  endfacet
  facet normal -0 0 1
    outer loop
      vertex -46.4888 18.4062 10
      vertex -37.1911 14.725 10
      vertex -43.8153 24.0877 10
    endloop
  endfacet
  facet normal -0 0 1
    outer loop
      vertex 37.1911 -14.725 10
      vertex 46.4888 -18.4062 10
      vertex 38.7433 -9.94759 10
    endloop
  endfacet
  facet normal 0 0 1
    outer loop
      vertex 46.4888 -18.4062 10
      vertex 37.1911 -14.725 10
      vertex 43.8153 -24.0877 10
    endloop
  endfacet
  facet normal -0 0 1
    outer loop
      vertex 35.0523 -19.2701 10
      vertex 43.8153 -24.0877 10
      vertex 37.1911 -14.725 10
    endloop
  endfacet
  facet normal 0 0 1
    outer loop
      vertex 43.8153 -24.0877 10
      vertex 35.0523 -19.2701 10
      vertex 40.4509 -29.3893 10
    endloop
  endfacet
  facet normal -0 0 1
    outer loop
      vertex 32.3607 -23.5114 10
      vertex 40.4509 -29.3893 10
      vertex 35.0523 -19.2701 10
    endloop
  endfacet
  facet normal 0 0 1
    outer loop
      vertex 40.4509 -29.3893 10
      vertex 32.3607 -23.5114 10
      vertex 36.4484 -34.2274 10
    endloop
  endfacet
  facet normal -0 0 1
    outer loop
      vertex 29.1587 -27.3819 10
      vertex 36.4484 -34.2274 10
      vertex 32.3607 -23.5114 10
    endloop
  endfacet
  facet normal 0 0 1
    outer loop
      vertex 36.4484 -34.2274 10
      vertex 29.1587 -27.3819 10
      vertex 31.8712 -38.5257 10
    endloop
  endfacet
  facet normal -0 0 1
    outer loop
      vertex 25.497 -30.8205 10
      vertex 31.8712 -38.5257 10
      vertex 29.1587 -27.3819 10
    endloop
  endfacet
  facet normal 0 0 1
    outer loop
      vertex 31.8712 -38.5257 10
      vertex 25.497 -30.8205 10
      vertex 26.7913 -42.2164 10
    endloop
  endfacet
  facet normal -0 0 1
    outer loop
      vertex 21.4331 -33.7731 10
      vertex 26.7913 -42.2164 10
      vertex 25.497 -30.8205 10
    endloop
  endfacet
  facet normal 0 0 1
    outer loop
      vertex 21.4331 -33.7731 10
      vertex 21.289 -45.2414 10
      vertex 26.7913 -42.2164 10
    endloop
  endfacet
  facet normal -0 0 1
    outer loop
      vertex 17.0312 -36.1931 10
      vertex 21.289 -45.2414 10
      vertex 21.4331 -33.7731 10
    endloop
  endfacet
  facet normal 0 0 1
    outer loop
      vertex 17.0312 -36.1931 10
      vertex 15.4508 -47.5528 10
      vertex 21.289 -45.2414 10
    endloop
  endfacet
  facet normal -0 0 1
    outer loop
      vertex 12.3607 -38.0423 10
      vertex 15.4508 -47.5528 10
      vertex 17.0312 -36.1931 10
    endloop
  endfacet
  facet normal 0 0 1
    outer loop
      vertex 12.3607 -38.0423 10
      vertex 9.36907 -49.1144 10
      vertex 15.4508 -47.5528 10
    endloop
  endfacet
  facet normal -0 0 1
    outer loop
      vertex 7.49525 -39.2915 10
      vertex 9.36907 -49.1144 10
      vertex 12.3607 -38.0423 10
    endloop
  endfacet
  facet normal 0 0 1
    outer loop
      vertex 7.49525 -39.2915 10
      vertex 3.13953 -49.9013 10
      vertex 9.36907 -49.1144 10
    endloop
  endfacet
  facet normal -0 0 1
    outer loop
      vertex 2.51162 -39.9211 10
      vertex 3.13953 -49.9013 10
      vertex 7.49525 -39.2915 10
    endloop
  endfacet
  facet normal -0 0 1
    outer loop
      vertex -2.51162 -39.9211 10
      vertex 3.13953 -49.9013 10
      vertex 2.51162 -39.9211 10
    endloop
  endfacet
  facet normal 0 0 1
    outer loop
      vertex -2.51162 -39.9211 10
      vertex -3.13953 -49.9013 10
      vertex 3.13953 -49.9013 10
    endloop
  endfacet
  facet normal 0 0 1
    outer loop
      vertex -7.49525 -39.2915 10
      vertex -3.13953 -49.9013 10
      vertex -2.51162 -39.9211 10
    endloop
  endfacet
  facet normal 0 0 1
    outer loop
      vertex -7.49525 -39.2915 10
      vertex -9.36907 -49.1144 10
      vertex -3.13953 -49.9013 10
    endloop
  endfacet
  facet normal 0 0 1
    outer loop
      vertex -12.3607 -38.0423 10
      vertex -9.36907 -49.1144 10
      vertex -7.49525 -39.2915 10
    endloop
  endfacet
  facet normal 0 0 1
    outer loop
      vertex -12.3607 -38.0423 10
      vertex -15.4508 -47.5528 10
      vertex -9.36907 -49.1144 10
    endloop
  endfacet
  facet normal 0 0 1
    outer loop
      vertex -17.0312 -36.1931 10
      vertex -15.4508 -47.5528 10
      vertex -12.3607 -38.0423 10
    endloop
  endfacet
  facet normal 0 0 1
    outer loop
      vertex -17.0312 -36.1931 10
      vertex -21.289 -45.2414 10
      vertex -15.4508 -47.5528 10
    endloop
  endfacet
  facet normal 0 0 1
    outer loop
      vertex -21.4331 -33.7731 10
      vertex -21.289 -45.2414 10
      vertex -17.0312 -36.1931 10
    endloop
  endfacet
  facet normal 0 0 1
    outer loop
      vertex -26.7913 -42.2164 10
      vertex -21.4331 -33.7731 10
      vertex -25.497 -30.8205 10
    endloop
  endfacet
  facet normal 0 0 1
    outer loop
      vertex -21.4331 -33.7731 10
      vertex -26.7913 -42.2164 10
      vertex -21.289 -45.2414 10
    endloop
  endfacet
  facet normal 0 0 1
    outer loop
      vertex -31.8712 -38.5257 10
      vertex -25.497 -30.8205 10
      vertex -29.1587 -27.3819 10
    endloop
  endfacet
  facet normal 0 0 1
    outer loop
      vertex -25.497 -30.8205 10
      vertex -31.8712 -38.5257 10
      vertex -26.7913 -42.2164 10
    endloop
  endfacet
  facet normal 0 0 1
    outer loop
      vertex -36.4484 -34.2274 10
      vertex -29.1587 -27.3819 10
      vertex -32.3607 -23.5114 10
    endloop
  endfacet
  facet normal 0 0 1
    outer loop
      vertex -40.4509 -29.3893 10
      vertex -32.3607 -23.5114 10
      vertex -35.0523 -19.2701 10
    endloop
  endfacet
  facet normal 0 0 1
    outer loop
      vertex -29.1587 -27.3819 10
      vertex -36.4484 -34.2274 10
      vertex -31.8712 -38.5257 10
    endloop
  endfacet
  facet normal 0 0 1
    outer loop
      vertex -43.8153 -24.0877 10
      vertex -35.0523 -19.2701 10
      vertex -37.1911 -14.725 10
    endloop
  endfacet
  facet normal 0 0 1
    outer loop
      vertex -46.4888 -18.4062 10
      vertex -37.1911 -14.725 10
      vertex -38.7433 -9.94759 10
    endloop
  endfacet
  facet normal 0 0 1
    outer loop
      vertex -48.4292 -12.4345 10
      vertex -38.7433 -9.94759 10
      vertex -39.6846 -5.01333 10
    endloop
  endfacet
  facet normal 0 0 1
    outer loop
      vertex -32.3607 -23.5114 10
      vertex -40.4509 -29.3893 10
      vertex -36.4484 -34.2274 10
    endloop
  endfacet
  facet normal 0 0 1
    outer loop
      vertex -49.6057 -6.26666 10
      vertex -39.6846 -5.01333 10
      vertex -40 0 10
    endloop
  endfacet
  facet normal -0 0 1
    outer loop
      vertex -48.4292 12.4345 10
      vertex -38.7433 9.94759 10
      vertex -46.4888 18.4062 10
    endloop
  endfacet
  facet normal 0 0 1
    outer loop
      vertex -38.7433 9.94759 10
      vertex -48.4292 12.4345 10
      vertex -39.6846 5.01333 10
    endloop
  endfacet
  facet normal 0 0 1
    outer loop
      vertex -35.0523 -19.2701 10
      vertex -43.8153 -24.0877 10
      vertex -40.4509 -29.3893 10
    endloop
  endfacet
  facet normal -0 0 1
    outer loop
      vertex -49.6057 6.26666 10
      vertex -39.6846 5.01333 10
      vertex -48.4292 12.4345 10
    endloop
  endfacet
  facet normal 0 0 1
    outer loop
      vertex -37.1911 -14.725 10
      vertex -46.4888 -18.4062 10
      vertex -43.8153 -24.0877 10
    endloop
  endfacet
  facet normal 0 0 1
    outer loop
      vertex -39.6846 5.01333 10
      vertex -49.6057 6.26666 10
      vertex -40 0 10
    endloop
  endfacet
  facet normal 0 0 1
    outer loop
      vertex -38.7433 -9.94759 10
      vertex -48.4292 -12.4345 10
      vertex -46.4888 -18.4062 10
    endloop
  endfacet
  facet normal 0 0 1
    outer loop
      vertex -50 0 10
      vertex -40 0 10
      vertex -49.6057 6.26666 10
    endloop
  endfacet
  facet normal 0 0 1
    outer loop
      vertex -39.6846 -5.01333 10
      vertex -49.6057 -6.26666 10
      vertex -48.4292 -12.4345 10
    endloop
  endfacet
  facet normal 0 0 1
    outer loop
      vertex -40 0 10
      vertex -50 0 10
      vertex -49.6057 -6.26666 10
    endloop
  endfacet
  facet normal -0.587779 0.809022 0
    outer loop
      vertex -26.7913 42.2164 0
      vertex -31.8712 38.5257 10
      vertex -26.7913 42.2164 10
    endloop
  endfacet
  facet normal -0.587779 0.809022 0
    outer loop
      vertex -31.8712 38.5257 10
      vertex -26.7913 42.2164 0
      vertex -31.8712 38.5257 0
    endloop
  endfacet
  facet normal -0.125322 0.992116 0
    outer loop
      vertex -3.13953 49.9013 0
      vertex -9.36907 49.1144 10
      vertex -3.13953 49.9013 10
    endloop
  endfacet
  facet normal -0.125322 0.992116 0
    outer loop
      vertex -9.36907 49.1144 10
      vertex -3.13953 49.9013 0
      vertex -9.36907 49.1144 0
    endloop
  endfacet
  facet normal 0 0 -1
    outer loop
      vertex 40 0 0
      vertex 50 0 0
      vertex 49.6057 -6.26666 0
    endloop
  endfacet
  facet normal 0 0 -1
    outer loop
      vertex 39.6846 -5.01333 0
      vertex 49.6057 -6.26666 0
      vertex 48.4292 -12.4345 0
    endloop
  endfacet
  facet normal 0 0 -1
    outer loop
      vertex 50 0 0
      vertex 40 0 0
      vertex 49.6057 6.26666 0
    endloop
  endfacet
  facet normal 0 0 -1
    outer loop
      vertex 38.7433 -9.94759 0
      vertex 48.4292 -12.4345 0
      vertex 46.4888 -18.4062 0
    endloop
  endfacet
  facet normal 0 0 -1
    outer loop
      vertex 39.6846 5.01333 0
      vertex 49.6057 6.26666 0
      vertex 40 0 0
    endloop
  endfacet
  facet normal 0 0 -1
    outer loop
      vertex 37.1911 -14.725 0
      vertex 46.4888 -18.4062 0
      vertex 43.8153 -24.0877 0
    endloop
  endfacet
  facet normal -0 0 -1
    outer loop
      vertex 49.6057 6.26666 0
      vertex 39.6846 5.01333 0
      vertex 48.4292 12.4345 0
    endloop
  endfacet
  facet normal 0 0 -1
    outer loop
      vertex 35.0523 -19.2701 0
      vertex 43.8153 -24.0877 0
      vertex 40.4509 -29.3893 0
    endloop
  endfacet
  facet normal 0 0 -1
    outer loop
      vertex 38.7433 9.94759 0
      vertex 48.4292 12.4345 0
      vertex 39.6846 5.01333 0
    endloop
  endfacet
  facet normal -0 0 -1
    outer loop
      vertex 48.4292 12.4345 0
      vertex 38.7433 9.94759 0
      vertex 46.4888 18.4062 0
    endloop
  endfacet
  facet normal 0 0 -1
    outer loop
      vertex 49.6057 -6.26666 0
      vertex 39.6846 -5.01333 0
      vertex 40 0 0
    endloop
  endfacet
  facet normal 0 0 -1
    outer loop
      vertex 48.4292 -12.4345 0
      vertex 38.7433 -9.94759 0
      vertex 39.6846 -5.01333 0
    endloop
  endfacet
  facet normal 0 0 -1
    outer loop
      vertex 46.4888 -18.4062 0
      vertex 37.1911 -14.725 0
      vertex 38.7433 -9.94759 0
    endloop
  endfacet
  facet normal 0 0 -1
    outer loop
      vertex 32.3607 -23.5114 0
      vertex 40.4509 -29.3893 0
      vertex 36.4484 -34.2274 0
    endloop
  endfacet
  facet normal 0 0 -1
    outer loop
      vertex 43.8153 -24.0877 0
      vertex 35.0523 -19.2701 0
      vertex 37.1911 -14.725 0
    endloop
  endfacet
  facet normal 0 0 -1
    outer loop
      vertex 40.4509 -29.3893 0
      vertex 32.3607 -23.5114 0
      vertex 35.0523 -19.2701 0
    endloop
  endfacet
  facet normal 0 0 -1
    outer loop
      vertex 29.1587 -27.3819 0
      vertex 36.4484 -34.2274 0
      vertex 31.8712 -38.5257 0
    endloop
  endfacet
  facet normal 0 0 -1
    outer loop
      vertex 36.4484 -34.2274 0
      vertex 29.1587 -27.3819 0
      vertex 32.3607 -23.5114 0
    endloop
  endfacet
  facet normal 0 0 -1
    outer loop
      vertex 25.497 -30.8205 0
      vertex 31.8712 -38.5257 0
      vertex 26.7913 -42.2164 0
    endloop
  endfacet
  facet normal 0 0 -1
    outer loop
      vertex 31.8712 -38.5257 0
      vertex 25.497 -30.8205 0
      vertex 29.1587 -27.3819 0
    endloop
  endfacet
  facet normal 0 0 -1
    outer loop
      vertex 26.7913 -42.2164 0
      vertex 21.4331 -33.7731 0
      vertex 25.497 -30.8205 0
    endloop
  endfacet
  facet normal 0 0 -1
    outer loop
      vertex 21.289 -45.2414 0
      vertex 21.4331 -33.7731 0
      vertex 26.7913 -42.2164 0
    endloop
  endfacet
  facet normal 0 0 -1
    outer loop
      vertex 21.289 -45.2414 0
      vertex 17.0312 -36.1931 0
      vertex 21.4331 -33.7731 0
    endloop
  endfacet
  facet normal 0 0 -1
    outer loop
      vertex 15.4508 -47.5528 0
      vertex 17.0312 -36.1931 0
      vertex 21.289 -45.2414 0
    endloop
  endfacet
  facet normal 0 0 -1
    outer loop
      vertex 15.4508 -47.5528 0
      vertex 12.3607 -38.0423 0
      vertex 17.0312 -36.1931 0
    endloop
  endfacet
  facet normal 0 0 -1
    outer loop
      vertex 9.36907 -49.1144 0
      vertex 12.3607 -38.0423 0
      vertex 15.4508 -47.5528 0
    endloop
  endfacet
  facet normal 0 0 -1
    outer loop
      vertex 9.36907 -49.1144 0
      vertex 7.49525 -39.2915 0
      vertex 12.3607 -38.0423 0
    endloop
  endfacet
  facet normal 0 0 -1
    outer loop
      vertex 3.13953 -49.9013 0
      vertex 7.49525 -39.2915 0
      vertex 9.36907 -49.1144 0
    endloop
  endfacet
  facet normal 0 0 -1
    outer loop
      vertex 3.13953 -49.9013 0
      vertex 2.51162 -39.9211 0
      vertex 7.49525 -39.2915 0
    endloop
  endfacet
  facet normal 0 0 -1
    outer loop
      vertex 3.13953 -49.9013 0
      vertex -2.51162 -39.9211 0
      vertex 2.51162 -39.9211 0
    endloop
  endfacet
  facet normal 0 0 -1
    outer loop
      vertex -3.13953 -49.9013 0
      vertex -2.51162 -39.9211 0
      vertex 3.13953 -49.9013 0
    endloop
  endfacet
  facet normal 0 0 -1
    outer loop
      vertex -3.13953 -49.9013 0
      vertex -7.49525 -39.2915 0
      vertex -2.51162 -39.9211 0
    endloop
  endfacet
  facet normal 0 0 -1
    outer loop
      vertex -9.36907 -49.1144 0
      vertex -7.49525 -39.2915 0
      vertex -3.13953 -49.9013 0
    endloop
  endfacet
  facet normal 0 0 -1
    outer loop
      vertex -9.36907 -49.1144 0
      vertex -12.3607 -38.0423 0
      vertex -7.49525 -39.2915 0
    endloop
  endfacet
  facet normal 0 0 -1
    outer loop
      vertex -15.4508 -47.5528 0
      vertex -12.3607 -38.0423 0
      vertex -9.36907 -49.1144 0
    endloop
  endfacet
  facet normal 0 0 -1
    outer loop
      vertex -15.4508 -47.5528 0
      vertex -17.0312 -36.1931 0
      vertex -12.3607 -38.0423 0
    endloop
  endfacet
  facet normal 0 0 -1
    outer loop
      vertex -21.289 -45.2414 0
      vertex -17.0312 -36.1931 0
      vertex -15.4508 -47.5528 0
    endloop
  endfacet
  facet normal 0 0 -1
    outer loop
      vertex -21.289 -45.2414 0
      vertex -21.4331 -33.7731 0
      vertex -17.0312 -36.1931 0
    endloop
  endfacet
  facet normal 0 0 -1
    outer loop
      vertex -26.7913 -42.2164 0
      vertex -21.4331 -33.7731 0
      vertex -21.289 -45.2414 0
    endloop
  endfacet
  facet normal -0 0 -1
    outer loop
      vertex -21.4331 -33.7731 0
      vertex -26.7913 -42.2164 0
      vertex -25.497 -30.8205 0
    endloop
  endfacet
  facet normal 0 0 -1
    outer loop
      vertex -31.8712 -38.5257 0
      vertex -25.497 -30.8205 0
      vertex -26.7913 -42.2164 0
    endloop
  endfacet
  facet normal -0 0 -1
    outer loop
      vertex -25.497 -30.8205 0
      vertex -31.8712 -38.5257 0
      vertex -29.1587 -27.3819 0
    endloop
  endfacet
  facet normal 0 0 -1
    outer loop
      vertex -36.4484 -34.2274 0
      vertex -29.1587 -27.3819 0
      vertex -31.8712 -38.5257 0
    endloop
  endfacet
  facet normal -0 0 -1
    outer loop
      vertex -29.1587 -27.3819 0
      vertex -36.4484 -34.2274 0
      vertex -32.3607 -23.5114 0
    endloop
  endfacet
  facet normal 0 0 -1
    outer loop
      vertex -40.4509 -29.3893 0
      vertex -32.3607 -23.5114 0
      vertex -36.4484 -34.2274 0
    endloop
  endfacet
  facet normal -0 0 -1
    outer loop
      vertex -32.3607 -23.5114 0
      vertex -40.4509 -29.3893 0
      vertex -35.0523 -19.2701 0
    endloop
  endfacet
  facet normal 0 0 -1
    outer loop
      vertex -43.8153 -24.0877 0
      vertex -35.0523 -19.2701 0
      vertex -40.4509 -29.3893 0
    endloop
  endfacet
  facet normal -0 0 -1
    outer loop
      vertex -35.0523 -19.2701 0
      vertex -43.8153 -24.0877 0
      vertex -37.1911 -14.725 0
    endloop
  endfacet
  facet normal -0 0 -1
    outer loop
      vertex -37.1911 -14.725 0
      vertex -46.4888 -18.4062 0
      vertex -38.7433 -9.94759 0
    endloop
  endfacet
  facet normal 0 0 -1
    outer loop
      vertex -46.4888 -18.4062 0
      vertex -37.1911 -14.725 0
      vertex -43.8153 -24.0877 0
    endloop
  endfacet
  facet normal 0 0 -1
    outer loop
      vertex 37.1911 14.725 0
      vertex 46.4888 18.4062 0
      vertex 38.7433 9.94759 0
    endloop
  endfacet
  facet normal -0 0 -1
    outer loop
      vertex 46.4888 18.4062 0
      vertex 37.1911 14.725 0
      vertex 43.8153 24.0877 0
    endloop
  endfacet
  facet normal 0 0 -1
    outer loop
      vertex 35.0523 19.2701 0
      vertex 43.8153 24.0877 0
      vertex 37.1911 14.725 0
    endloop
  endfacet
  facet normal -0 0 -1
    outer loop
      vertex 43.8153 24.0877 0
      vertex 35.0523 19.2701 0
      vertex 40.4509 29.3893 0
    endloop
  endfacet
  facet normal 0 0 -1
    outer loop
      vertex 32.3607 23.5114 0
      vertex 40.4509 29.3893 0
      vertex 35.0523 19.2701 0
    endloop
  endfacet
  facet normal -0 0 -1
    outer loop
      vertex 40.4509 29.3893 0
      vertex 32.3607 23.5114 0
      vertex 36.4484 34.2274 0
    endloop
  endfacet
  facet normal 0 0 -1
    outer loop
      vertex 29.1587 27.3819 0
      vertex 36.4484 34.2274 0
      vertex 32.3607 23.5114 0
    endloop
  endfacet
  facet normal -0 0 -1
    outer loop
      vertex 36.4484 34.2274 0
      vertex 29.1587 27.3819 0
      vertex 31.8712 38.5257 0
    endloop
  endfacet
  facet normal 0 0 -1
    outer loop
      vertex 25.497 30.8205 0
      vertex 31.8712 38.5257 0
      vertex 29.1587 27.3819 0
    endloop
  endfacet
  facet normal -0 0 -1
    outer loop
      vertex 31.8712 38.5257 0
      vertex 25.497 30.8205 0
      vertex 26.7913 42.2164 0
    endloop
  endfacet
  facet normal 0 0 -1
    outer loop
      vertex 21.4331 33.7731 0
      vertex 26.7913 42.2164 0
      vertex 25.497 30.8205 0
    endloop
  endfacet
  facet normal 0 0 -1
    outer loop
      vertex 21.4331 33.7731 0
      vertex 21.289 45.2414 0
      vertex 26.7913 42.2164 0
    endloop
  endfacet
  facet normal 0 0 -1
    outer loop
      vertex 17.0312 36.1931 0
      vertex 21.289 45.2414 0
      vertex 21.4331 33.7731 0
    endloop
  endfacet
  facet normal 0 0 -1
    outer loop
      vertex 17.0312 36.1931 0
      vertex 15.4508 47.5528 0
      vertex 21.289 45.2414 0
    endloop
  endfacet
  facet normal 0 0 -1
    outer loop
      vertex 12.3607 38.0423 0
      vertex 15.4508 47.5528 0
      vertex 17.0312 36.1931 0
    endloop
  endfacet
  facet normal 0 0 -1
    outer loop
      vertex 12.3607 38.0423 0
      vertex 9.36907 49.1144 0
      vertex 15.4508 47.5528 0
    endloop
  endfacet
  facet normal 0 0 -1
    outer loop
      vertex 7.49525 39.2915 0
      vertex 9.36907 49.1144 0
      vertex 12.3607 38.0423 0
    endloop
  endfacet
  facet normal 0 0 -1
    outer loop
      vertex 7.49525 39.2915 0
      vertex 3.13953 49.9013 0
      vertex 9.36907 49.1144 0
    endloop
  endfacet
  facet normal 0 0 -1
    outer loop
      vertex 2.51162 39.9211 0
      vertex 3.13953 49.9013 0
      vertex 7.49525 39.2915 0
    endloop
  endfacet
  facet normal 0 0 -1
    outer loop
      vertex -2.51162 39.9211 0
      vertex 3.13953 49.9013 0
      vertex 2.51162 39.9211 0
    endloop
  endfacet
  facet normal 0 0 -1
    outer loop
      vertex -2.51162 39.9211 0
      vertex -3.13953 49.9013 0
      vertex 3.13953 49.9013 0
    endloop
  endfacet
  facet normal 0 0 -1
    outer loop
      vertex -7.49525 39.2915 0
      vertex -3.13953 49.9013 0
      vertex -2.51162 39.9211 0
    endloop
  endfacet
  facet normal 0 0 -1
    outer loop
      vertex -7.49525 39.2915 0
      vertex -9.36907 49.1144 0
      vertex -3.13953 49.9013 0
    endloop
  endfacet
  facet normal 0 0 -1
    outer loop
      vertex -12.3607 38.0423 0
      vertex -9.36907 49.1144 0
      vertex -7.49525 39.2915 0
    endloop
  endfacet
  facet normal 0 0 -1
    outer loop
      vertex -12.3607 38.0423 0
      vertex -15.4508 47.5528 0
      vertex -9.36907 49.1144 0
    endloop
  endfacet
  facet normal 0 0 -1
    outer loop
      vertex -17.0312 36.1931 0
      vertex -15.4508 47.5528 0
      vertex -12.3607 38.0423 0
    endloop
  endfacet
  facet normal 0 0 -1
    outer loop
      vertex -17.0312 36.1931 0
      vertex -21.289 45.2414 0
      vertex -15.4508 47.5528 0
    endloop
  endfacet
  facet normal 0 0 -1
    outer loop
      vertex -21.4331 33.7731 0
      vertex -21.289 45.2414 0
      vertex -17.0312 36.1931 0
    endloop
  endfacet
  facet normal 0 0 -1
    outer loop
      vertex -26.7913 42.2164 0
      vertex -21.4331 33.7731 0
      vertex -25.497 30.8205 0
    endloop
  endfacet
  facet normal 0 0 -1
    outer loop
      vertex -21.4331 33.7731 0
      vertex -26.7913 42.2164 0
      vertex -21.289 45.2414 0
    endloop
  endfacet
  facet normal 0 0 -1
    outer loop
      vertex -31.8712 38.5257 0
      vertex -25.497 30.8205 0
      vertex -29.1587 27.3819 0
    endloop
  endfacet
  facet normal 0 0 -1
    outer loop
      vertex -25.497 30.8205 0
      vertex -31.8712 38.5257 0
      vertex -26.7913 42.2164 0
    endloop
  endfacet
  facet normal 0 0 -1
    outer loop
      vertex -36.4484 34.2274 0
      vertex -29.1587 27.3819 0
      vertex -32.3607 23.5114 0
    endloop
  endfacet
  facet normal 0 0 -1
    outer loop
      vertex -40.4509 29.3893 0
      vertex -32.3607 23.5114 0
      vertex -35.0523 19.2701 0
    endloop
  endfacet
  facet normal 0 0 -1
    outer loop
      vertex -29.1587 27.3819 0
      vertex -36.4484 34.2274 0
      vertex -31.8712 38.5257 0
    endloop
  endfacet
  facet normal 0 0 -1
    outer loop
      vertex -43.8153 24.0877 0
      vertex -35.0523 19.2701 0
      vertex -37.1911 14.725 0
    endloop
  endfacet
  facet normal 0 0 -1
    outer loop
      vertex -46.4888 18.4062 0
      vertex -37.1911 14.725 0
      vertex -38.7433 9.94759 0
    endloop
  endfacet
  facet normal 0 0 -1
    outer loop
      vertex -48.4292 12.4345 0
      vertex -38.7433 9.94759 0
      vertex -39.6846 5.01333 0
    endloop
  endfacet
  facet normal 0 0 -1
    outer loop
      vertex -32.3607 23.5114 0
      vertex -40.4509 29.3893 0
      vertex -36.4484 34.2274 0
    endloop
  endfacet
  facet normal 0 0 -1
    outer loop
      vertex -49.6057 6.26666 0
      vertex -39.6846 5.01333 0
      vertex -40 0 0
    endloop
  endfacet
  facet normal 0 0 -1
    outer loop
      vertex -48.4292 -12.4345 0
      vertex -38.7433 -9.94759 0
      vertex -46.4888 -18.4062 0
    endloop
  endfacet
  facet normal -0 0 -1
    outer loop
      vertex -38.7433 -9.94759 0
      vertex -48.4292 -12.4345 0
      vertex -39.6846 -5.01333 0
    endloop
  endfacet
  facet normal 0 0 -1
    outer loop
      vertex -35.0523 19.2701 0
      vertex -43.8153 24.0877 0
      vertex -40.4509 29.3893 0
    endloop
  endfacet
  facet normal 0 0 -1
    outer loop
      vertex -49.6057 -6.26666 0
      vertex -39.6846 -5.01333 0
      vertex -48.4292 -12.4345 0
    endloop
  endfacet
  facet normal 0 0 -1
    outer loop
      vertex -37.1911 14.725 0
      vertex -46.4888 18.4062 0
      vertex -43.8153 24.0877 0
    endloop
  endfacet
  facet normal -0 0 -1
    outer loop
      vertex -39.6846 -5.01333 0
      vertex -49.6057 -6.26666 0
      vertex -40 0 0
    endloop
  endfacet
  facet normal 0 0 -1
    outer loop
      vertex -38.7433 9.94759 0
      vertex -48.4292 12.4345 0
      vertex -46.4888 18.4062 0
    endloop
  endfacet
  facet normal 0 0 -1
    outer loop
      vertex -50 0 0
      vertex -40 0 0
      vertex -49.6057 -6.26666 0
    endloop
  endfacet
  facet normal 0 0 -1
    outer loop
      vertex -39.6846 5.01333 0
      vertex -49.6057 6.26666 0
      vertex -48.4292 12.4345 0
    endloop
  endfacet
  facet normal 0 0 -1
    outer loop
      vertex -40 0 0
      vertex -50 0 0
      vertex -49.6057 6.26666 0
    endloop
  endfacet
  facet normal 0.125322 -0.992116 0
    outer loop
      vertex 3.13953 -49.9013 0
      vertex 9.36907 -49.1144 10
      vertex 3.13953 -49.9013 10
    endloop
  endfacet
  facet normal 0.125322 -0.992116 0
    outer loop
      vertex 9.36907 -49.1144 10
      vertex 3.13953 -49.9013 0
      vertex 9.36907 -49.1144 0
    endloop
  endfacet
  facet normal 0.951053 0.309028 -9.94579e-18
    outer loop
      vertex 48.4292 12.4345 10
      vertex 46.4888 18.4062 0
      vertex 46.4888 18.4062 10
    endloop
  endfacet
  facet normal 0.951053 0.309028 -9.94579e-18
    outer loop
      vertex 46.4888 18.4062 0
      vertex 48.4292 12.4345 10
      vertex 48.4292 12.4345 0
    endloop
  endfacet
  facet normal 0.98229 0.187369 -3.92306e-18
    outer loop
      vertex 49.6057 6.26666 10
      vertex 48.4292 12.4345 0
      vertex 48.4292 12.4345 10
    endloop
  endfacet
  facet normal 0.98229 0.187369 -3.92306e-18
    outer loop
      vertex 48.4292 12.4345 0
      vertex 49.6057 6.26666 10
      vertex 49.6057 6.26666 0
    endloop
  endfacet
  facet normal 0.770507 0.637431 2.65218e-17
    outer loop
      vertex 40.4509 29.3893 10
      vertex 36.4484 34.2274 0
      vertex 36.4484 34.2274 10
    endloop
  endfacet
  facet normal 0.770507 0.637431 2.65218e-17
    outer loop
      vertex 36.4484 34.2274 0
      vertex 40.4509 29.3893 10
      vertex 40.4509 29.3893 0
    endloop
  endfacet
  facet normal 0.844335 0.535816 1.54436e-17
    outer loop
      vertex 43.8153 24.0877 10
      vertex 40.4509 29.3893 0
      vertex 40.4509 29.3893 10
    endloop
  endfacet
  facet normal 0.844335 0.535816 1.54436e-17
    outer loop
      vertex 40.4509 29.3893 0
      vertex 43.8153 24.0877 10
      vertex 43.8153 24.0877 0
    endloop
  endfacet
  facet normal 0.125322 0.992116 -0
    outer loop
      vertex 9.36907 49.1144 0
      vertex 3.13953 49.9013 10
      vertex 9.36907 49.1144 10
    endloop
  endfacet
  facet normal 0.125322 0.992116 0
    outer loop
      vertex 3.13953 49.9013 10
      vertex 9.36907 49.1144 0
      vertex 3.13953 49.9013 0
    endloop
  endfacet
  facet normal 0.587779 0.809022 -0
    outer loop
      vertex 31.8712 38.5257 0
      vertex 26.7913 42.2164 10
      vertex 31.8712 38.5257 10
    endloop
  endfacet
  facet normal 0.587779 0.809022 0
    outer loop
      vertex 26.7913 42.2164 10
      vertex 31.8712 38.5257 0
      vertex 26.7913 42.2164 0
    endloop
  endfacet
  facet normal -0.904828 0.425778 -1.41174e-17
    outer loop
      vertex -46.4888 18.4062 0
      vertex -43.8153 24.0877 10
      vertex -43.8153 24.0877 0
    endloop
  endfacet
  facet normal -0.904828 0.425778 -1.41174e-17
    outer loop
      vertex -43.8153 24.0877 10
      vertex -46.4888 18.4062 0
      vertex -46.4888 18.4062 10
    endloop
  endfacet
  facet normal -0.951053 0.309028 9.94579e-18
    outer loop
      vertex -48.4292 12.4345 0
      vertex -46.4888 18.4062 10
      vertex -46.4888 18.4062 0
    endloop
  endfacet
  facet normal -0.951053 0.309028 9.94579e-18
    outer loop
      vertex -46.4888 18.4062 10
      vertex -48.4292 12.4345 0
      vertex -48.4292 12.4345 10
    endloop
  endfacet
  facet normal -0.98229 0.187369 3.92306e-18
    outer loop
      vertex -49.6057 6.26666 0
      vertex -48.4292 12.4345 10
      vertex -48.4292 12.4345 0
    endloop
  endfacet
  facet normal -0.98229 0.187369 3.92306e-18
    outer loop
      vertex -48.4292 12.4345 10
      vertex -49.6057 6.26666 0
      vertex -49.6057 6.26666 10
    endloop
  endfacet
  facet normal 0.998026 -0.0627961 -1.89591e-18
    outer loop
      vertex 49.6057 -6.26666 10
      vertex 50 0 0
      vertex 50 0 10
    endloop
  endfacet
  facet normal 0.998026 -0.0627961 -1.89591e-18
    outer loop
      vertex 50 0 0
      vertex 49.6057 -6.26666 10
      vertex 49.6057 -6.26666 0
    endloop
  endfacet
  facet normal 0.770507 -0.637431 -2.65218e-17
    outer loop
      vertex 36.4484 -34.2274 10
      vertex 40.4509 -29.3893 0
      vertex 40.4509 -29.3893 10
    endloop
  endfacet
  facet normal 0.770507 -0.637431 -2.65218e-17
    outer loop
      vertex 40.4509 -29.3893 0
      vertex 36.4484 -34.2274 10
      vertex 36.4484 -34.2274 0
    endloop
  endfacet
  facet normal 0.36811 -0.929782 0
    outer loop
      vertex 15.4508 -47.5528 0
      vertex 21.289 -45.2414 10
      vertex 15.4508 -47.5528 10
    endloop
  endfacet
  facet normal 0.36811 -0.929782 0
    outer loop
      vertex 21.289 -45.2414 10
      vertex 15.4508 -47.5528 0
      vertex 21.289 -45.2414 0
    endloop
  endfacet
  facet normal -0.481764 0.876301 0
    outer loop
      vertex -21.289 45.2414 0
      vertex -26.7913 42.2164 10
      vertex -21.289 45.2414 10
    endloop
  endfacet
  facet normal -0.481764 0.876301 0
    outer loop
      vertex -26.7913 42.2164 10
      vertex -21.289 45.2414 0
      vertex -26.7913 42.2164 0
    endloop
  endfacet
  facet normal -0.248701 0.96858 0
    outer loop
      vertex -9.36907 49.1144 0
      vertex -15.4508 47.5528 10
      vertex -9.36907 49.1144 10
    endloop
  endfacet
  facet normal -0.248701 0.96858 0
    outer loop
      vertex -15.4508 47.5528 10
      vertex -9.36907 49.1144 0
      vertex -15.4508 47.5528 0
    endloop
  endfacet
  facet normal 0.951053 -0.309028 9.94579e-18
    outer loop
      vertex 46.4888 -18.4062 10
      vertex 48.4292 -12.4345 0
      vertex 48.4292 -12.4345 10
    endloop
  endfacet
  facet normal 0.951053 -0.309028 9.94579e-18
    outer loop
      vertex 48.4292 -12.4345 0
      vertex 46.4888 -18.4062 10
      vertex 46.4888 -18.4062 0
    endloop
  endfacet
  facet normal 0.98229 -0.187369 3.92306e-18
    outer loop
      vertex 48.4292 -12.4345 10
      vertex 49.6057 -6.26666 0
      vertex 49.6057 -6.26666 10
    endloop
  endfacet
  facet normal 0.98229 -0.187369 3.92306e-18
    outer loop
      vertex 49.6057 -6.26666 0
      vertex 48.4292 -12.4345 10
      vertex 48.4292 -12.4345 0
    endloop
  endfacet
  facet normal 0.904828 -0.425778 -1.41174e-17
    outer loop
      vertex 43.8153 -24.0877 10
      vertex 46.4888 -18.4062 0
      vertex 46.4888 -18.4062 10
    endloop
  endfacet
  facet normal 0.904828 -0.425778 -1.41174e-17
    outer loop
      vertex 46.4888 -18.4062 0
      vertex 43.8153 -24.0877 10
      vertex 43.8153 -24.0877 0
    endloop
  endfacet
  facet normal 0.844335 -0.535816 -1.54436e-17
    outer loop
      vertex 40.4509 -29.3893 10
      vertex 43.8153 -24.0877 0
      vertex 43.8153 -24.0877 10
    endloop
  endfacet
  facet normal 0.844335 -0.535816 -1.54436e-17
    outer loop
      vertex 43.8153 -24.0877 0
      vertex 40.4509 -29.3893 10
      vertex 40.4509 -29.3893 0
    endloop
  endfacet
  facet normal -0.684549 -0.728967 0
    outer loop
      vertex -36.4484 -34.2274 0
      vertex -31.8712 -38.5257 10
      vertex -36.4484 -34.2274 10
    endloop
  endfacet
  facet normal -0.684549 -0.728967 -0
    outer loop
      vertex -31.8712 -38.5257 10
      vertex -36.4484 -34.2274 0
      vertex -31.8712 -38.5257 0
    endloop
  endfacet
  facet normal -0.770507 -0.637431 2.65218e-17
    outer loop
      vertex -36.4484 -34.2274 0
      vertex -40.4509 -29.3893 10
      vertex -40.4509 -29.3893 0
    endloop
  endfacet
  facet normal -0.770507 -0.637431 2.65218e-17
    outer loop
      vertex -40.4509 -29.3893 10
      vertex -36.4484 -34.2274 0
      vertex -36.4484 -34.2274 10
    endloop
  endfacet
  facet normal -0.904828 -0.425778 1.41174e-17
    outer loop
      vertex -43.8153 -24.0877 0
      vertex -46.4888 -18.4062 10
      vertex -46.4888 -18.4062 0
    endloop
  endfacet
  facet normal -0.904828 -0.425778 1.41174e-17
    outer loop
      vertex -46.4888 -18.4062 10
      vertex -43.8153 -24.0877 0
      vertex -43.8153 -24.0877 10
    endloop
  endfacet
  facet normal -0.998026 -0.0627961 1.89591e-18
    outer loop
      vertex -49.6057 -6.26666 0
      vertex -50 0 10
      vertex -50 0 0
    endloop
  endfacet
  facet normal -0.998026 -0.0627961 1.89591e-18
    outer loop
      vertex -50 0 10
      vertex -49.6057 -6.26666 0
      vertex -49.6057 -6.26666 10
    endloop
  endfacet
  facet normal -0.98229 -0.187369 -3.92306e-18
    outer loop
      vertex -48.4292 -12.4345 0
      vertex -49.6057 -6.26666 10
      vertex -49.6057 -6.26666 0
    endloop
  endfacet
  facet normal -0.98229 -0.187369 -3.92306e-18
    outer loop
      vertex -49.6057 -6.26666 10
      vertex -48.4292 -12.4345 0
      vertex -48.4292 -12.4345 10
    endloop
  endfacet
  facet normal -0.951053 -0.309028 -9.94579e-18
    outer loop
      vertex -46.4888 -18.4062 0
      vertex -48.4292 -12.4345 10
      vertex -48.4292 -12.4345 0
    endloop
  endfacet
  facet normal -0.951053 -0.309028 -9.94579e-18
    outer loop
      vertex -48.4292 -12.4345 10
      vertex -46.4888 -18.4062 0
      vertex -46.4888 -18.4062 10
    endloop
  endfacet
  facet normal 0.684549 -0.728967 0
    outer loop
      vertex 31.8712 -38.5257 0
      vertex 36.4484 -34.2274 10
      vertex 31.8712 -38.5257 10
    endloop
  endfacet
  facet normal 0.684549 -0.728967 0
    outer loop
      vertex 36.4484 -34.2274 10
      vertex 31.8712 -38.5257 0
      vertex 36.4484 -34.2274 0
    endloop
  endfacet
  facet normal 0.481764 -0.876301 0
    outer loop
      vertex 21.289 -45.2414 0
      vertex 26.7913 -42.2164 10
      vertex 21.289 -45.2414 10
    endloop
  endfacet
  facet normal 0.481764 -0.876301 0
    outer loop
      vertex 26.7913 -42.2164 10
      vertex 21.289 -45.2414 0
      vertex 26.7913 -42.2164 0
    endloop
  endfacet
  facet normal 0.248701 -0.96858 0
    outer loop
      vertex 9.36907 -49.1144 0
      vertex 15.4508 -47.5528 10
      vertex 9.36907 -49.1144 10
    endloop
  endfacet
  facet normal 0.248701 -0.96858 0
    outer loop
      vertex 15.4508 -47.5528 10
      vertex 9.36907 -49.1144 0
      vertex 15.4508 -47.5528 0
    endloop
  endfacet
  facet normal -0.125322 -0.992116 0
    outer loop
      vertex -9.36907 -49.1144 0
      vertex -3.13953 -49.9013 10
      vertex -9.36907 -49.1144 10
    endloop
  endfacet
  facet normal -0.125322 -0.992116 -0
    outer loop
      vertex -3.13953 -49.9013 10
      vertex -9.36907 -49.1144 0
      vertex -3.13953 -49.9013 0
    endloop
  endfacet
  facet normal -0.587779 -0.809022 0
    outer loop
      vertex -31.8712 -38.5257 0
      vertex -26.7913 -42.2164 10
      vertex -31.8712 -38.5257 10
    endloop
  endfacet
  facet normal -0.587779 -0.809022 -0
    outer loop
      vertex -26.7913 -42.2164 10
      vertex -31.8712 -38.5257 0
      vertex -26.7913 -42.2164 0
    endloop
  endfacet
  facet normal -0.844335 -0.535816 1.54436e-17
    outer loop
      vertex -40.4509 -29.3893 0
      vertex -43.8153 -24.0877 10
      vertex -43.8153 -24.0877 0
    endloop
  endfacet
  facet normal -0.844335 -0.535816 1.54436e-17
    outer loop
      vertex -43.8153 -24.0877 10
      vertex -40.4509 -29.3893 0
      vertex -40.4509 -29.3893 10
    endloop
  endfacet
  facet normal 0.587779 -0.809022 0
    outer loop
      vertex 26.7913 -42.2164 0
      vertex 31.8712 -38.5257 10
      vertex 26.7913 -42.2164 10
    endloop
  endfacet
  facet normal 0.587779 -0.809022 0
    outer loop
      vertex 31.8712 -38.5257 10
      vertex 26.7913 -42.2164 0
      vertex 31.8712 -38.5257 0
    endloop
  endfacet
  facet normal -0.248701 -0.96858 0
    outer loop
      vertex -15.4508 -47.5528 0
      vertex -9.36907 -49.1144 10
      vertex -15.4508 -47.5528 10
    endloop
  endfacet
  facet normal -0.248701 -0.96858 -0
    outer loop
      vertex -9.36907 -49.1144 10
      vertex -15.4508 -47.5528 0
      vertex -9.36907 -49.1144 0
    endloop
  endfacet
  facet normal -0.36811 -0.929782 0
    outer loop
      vertex -21.289 -45.2414 0
      vertex -15.4508 -47.5528 10
      vertex -21.289 -45.2414 10
    endloop
  endfacet
  facet normal -0.36811 -0.929782 -0
    outer loop
      vertex -15.4508 -47.5528 10
      vertex -21.289 -45.2414 0
      vertex -15.4508 -47.5528 0
    endloop
  endfacet
  facet normal -0.481764 -0.876301 0
    outer loop
      vertex -26.7913 -42.2164 0
      vertex -21.289 -45.2414 10
      vertex -26.7913 -42.2164 10
    endloop
  endfacet
  facet normal -0.481764 -0.876301 -0
    outer loop
      vertex -21.289 -45.2414 10
      vertex -26.7913 -42.2164 0
      vertex -21.289 -45.2414 0
    endloop
  endfacet
  facet normal -0.998027 -0.0627881 2.95697e-19
    outer loop
      vertex 40 0 0
      vertex 39.6846 5.01333 10
      vertex 39.6846 5.01333 0
    endloop
  endfacet
  facet normal -0.998027 -0.0627881 2.95697e-19
    outer loop
      vertex 39.6846 5.01333 10
      vertex 40 0 0
      vertex 40 0 10
    endloop
  endfacet
  facet normal 0.998027 -0.0627881 -2.95697e-19
    outer loop
      vertex -40 0 10
      vertex -39.6846 5.01333 0
      vertex -39.6846 5.01333 10
    endloop
  endfacet
  facet normal 0.998027 -0.0627881 -2.95697e-19
    outer loop
      vertex -39.6846 5.01333 0
      vertex -40 0 10
      vertex -40 0 0
    endloop
  endfacet
  facet normal 0 -1 0
    outer loop
      vertex -2.51162 39.9211 0
      vertex 2.51162 39.9211 10
      vertex -2.51162 39.9211 10
    endloop
  endfacet
  facet normal 0 -1 -0
    outer loop
      vertex 2.51162 39.9211 10
      vertex -2.51162 39.9211 0
      vertex 2.51162 39.9211 0
    endloop
  endfacet
  facet normal -0.684551 -0.728965 0
    outer loop
      vertex 25.497 30.8205 0
      vertex 29.1587 27.3819 10
      vertex 25.497 30.8205 10
    endloop
  endfacet
  facet normal -0.684551 -0.728965 -0
    outer loop
      vertex 29.1587 27.3819 10
      vertex 25.497 30.8205 0
      vertex 29.1587 27.3819 0
    endloop
  endfacet
  facet normal 0.684551 -0.728965 0
    outer loop
      vertex -29.1587 27.3819 0
      vertex -25.497 30.8205 10
      vertex -29.1587 27.3819 10
    endloop
  endfacet
  facet normal 0.684551 -0.728965 0
    outer loop
      vertex -25.497 30.8205 10
      vertex -29.1587 27.3819 0
      vertex -25.497 30.8205 0
    endloop
  endfacet
  facet normal 0.368128 -0.929775 0
    outer loop
      vertex -17.0312 36.1931 0
      vertex -12.3607 38.0423 10
      vertex -17.0312 36.1931 10
    endloop
  endfacet
  facet normal 0.368128 -0.929775 0
    outer loop
      vertex -12.3607 38.0423 10
      vertex -17.0312 36.1931 0
      vertex -12.3607 38.0423 0
    endloop
  endfacet
  facet normal -0.904824 -0.425786 -4.10958e-18
    outer loop
      vertex 37.1911 14.725 0
      vertex 35.0523 19.2701 10
      vertex 35.0523 19.2701 0
    endloop
  endfacet
  facet normal -0.904824 -0.425786 -4.10958e-18
    outer loop
      vertex 35.0523 19.2701 10
      vertex 37.1911 14.725 0
      vertex 37.1911 14.725 10
    endloop
  endfacet
  facet normal -0.982286 -0.187389 1.05329e-18
    outer loop
      vertex 39.6846 5.01333 0
      vertex 38.7433 9.94759 10
      vertex 38.7433 9.94759 0
    endloop
  endfacet
  facet normal -0.982286 -0.187389 1.05329e-18
    outer loop
      vertex 38.7433 9.94759 10
      vertex 39.6846 5.01333 0
      vertex 39.6846 5.01333 10
    endloop
  endfacet
  facet normal -0.844329 -0.535825 -6.04339e-18
    outer loop
      vertex 35.0523 19.2701 0
      vertex 32.3607 23.5114 10
      vertex 32.3607 23.5114 0
    endloop
  endfacet
  facet normal -0.844329 -0.535825 -6.04339e-18
    outer loop
      vertex 32.3607 23.5114 10
      vertex 35.0523 19.2701 0
      vertex 35.0523 19.2701 10
    endloop
  endfacet
  facet normal -0.368128 -0.929775 0
    outer loop
      vertex 12.3607 38.0423 0
      vertex 17.0312 36.1931 10
      vertex 12.3607 38.0423 10
    endloop
  endfacet
  facet normal -0.368128 -0.929775 -0
    outer loop
      vertex 17.0312 36.1931 10
      vertex 12.3607 38.0423 0
      vertex 17.0312 36.1931 0
    endloop
  endfacet
  facet normal -0.248683 -0.968585 0
    outer loop
      vertex 7.49525 39.2915 0
      vertex 12.3607 38.0423 10
      vertex 7.49525 39.2915 10
    endloop
  endfacet
  facet normal -0.248683 -0.968585 -0
    outer loop
      vertex 12.3607 38.0423 10
      vertex 7.49525 39.2915 0
      vertex 12.3607 38.0423 0
    endloop
  endfacet
  facet normal -0.587786 -0.809017 0
    outer loop
      vertex 21.4331 33.7731 0
      vertex 25.497 30.8205 10
      vertex 21.4331 33.7731 10
    endloop
  endfacet
  facet normal -0.587786 -0.809017 -0
    outer loop
      vertex 25.497 30.8205 10
      vertex 21.4331 33.7731 0
      vertex 25.497 30.8205 0
    endloop
  endfacet
  facet normal 0.844329 -0.535825 6.04339e-18
    outer loop
      vertex -35.0523 19.2701 10
      vertex -32.3607 23.5114 0
      vertex -32.3607 23.5114 10
    endloop
  endfacet
  facet normal 0.844329 -0.535825 6.04339e-18
    outer loop
      vertex -32.3607 23.5114 0
      vertex -35.0523 19.2701 10
      vertex -35.0523 19.2701 0
    endloop
  endfacet
  facet normal 0.770509 -0.637429 -5.57716e-18
    outer loop
      vertex -32.3607 23.5114 10
      vertex -29.1587 27.3819 0
      vertex -29.1587 27.3819 10
    endloop
  endfacet
  facet normal 0.770509 -0.637429 -5.57716e-18
    outer loop
      vertex -29.1587 27.3819 0
      vertex -32.3607 23.5114 10
      vertex -32.3607 23.5114 0
    endloop
  endfacet
  facet normal 0.951061 -0.309004 -3.47929e-18
    outer loop
      vertex -38.7433 9.94759 10
      vertex -37.1911 14.725 0
      vertex -37.1911 14.725 10
    endloop
  endfacet
  facet normal 0.951061 -0.309004 -3.47929e-18
    outer loop
      vertex -37.1911 14.725 0
      vertex -38.7433 9.94759 10
      vertex -38.7433 9.94759 0
    endloop
  endfacet
  facet normal 0.587786 -0.809017 0
    outer loop
      vertex -25.497 30.8205 0
      vertex -21.4331 33.7731 10
      vertex -25.497 30.8205 10
    endloop
  endfacet
  facet normal 0.587786 -0.809017 0
    outer loop
      vertex -21.4331 33.7731 10
      vertex -25.497 30.8205 0
      vertex -21.4331 33.7731 0
    endloop
  endfacet
  facet normal 0.125337 -0.992114 0
    outer loop
      vertex -7.49525 39.2915 0
      vertex -2.51162 39.9211 10
      vertex -7.49525 39.2915 10
    endloop
  endfacet
  facet normal 0.125337 -0.992114 0
    outer loop
      vertex -2.51162 39.9211 10
      vertex -7.49525 39.2915 0
      vertex -2.51162 39.9211 0
    endloop
  endfacet
  facet normal -0.998027 0.0627881 -2.95697e-19
    outer loop
      vertex 39.6846 -5.01333 0
      vertex 40 0 10
      vertex 40 0 0
    endloop
  endfacet
  facet normal -0.998027 0.0627881 -2.95697e-19
    outer loop
      vertex 40 0 10
      vertex 39.6846 -5.01333 0
      vertex 39.6846 -5.01333 10
    endloop
  endfacet
  facet normal 0.248683 0.968585 -0
    outer loop
      vertex -7.49525 -39.2915 0
      vertex -12.3607 -38.0423 10
      vertex -7.49525 -39.2915 10
    endloop
  endfacet
  facet normal 0.248683 0.968585 0
    outer loop
      vertex -12.3607 -38.0423 10
      vertex -7.49525 -39.2915 0
      vertex -12.3607 -38.0423 0
    endloop
  endfacet
  facet normal -0.125337 0.992114 0
    outer loop
      vertex 7.49525 -39.2915 0
      vertex 2.51162 -39.9211 10
      vertex 7.49525 -39.2915 10
    endloop
  endfacet
  facet normal -0.125337 0.992114 0
    outer loop
      vertex 2.51162 -39.9211 10
      vertex 7.49525 -39.2915 0
      vertex 2.51162 -39.9211 0
    endloop
  endfacet
  facet normal -0.951061 -0.309004 3.47929e-18
    outer loop
      vertex 38.7433 9.94759 0
      vertex 37.1911 14.725 10
      vertex 37.1911 14.725 0
    endloop
  endfacet
  facet normal -0.951061 -0.309004 3.47929e-18
    outer loop
      vertex 37.1911 14.725 10
      vertex 38.7433 9.94759 0
      vertex 38.7433 9.94759 10
    endloop
  endfacet
  facet normal -0.770509 -0.637429 5.57716e-18
    outer loop
      vertex 32.3607 23.5114 0
      vertex 29.1587 27.3819 10
      vertex 29.1587 27.3819 0
    endloop
  endfacet
  facet normal -0.770509 -0.637429 5.57716e-18
    outer loop
      vertex 29.1587 27.3819 10
      vertex 32.3607 23.5114 0
      vertex 32.3607 23.5114 10
    endloop
  endfacet
  facet normal -0.125337 -0.992114 0
    outer loop
      vertex 2.51162 39.9211 0
      vertex 7.49525 39.2915 10
      vertex 2.51162 39.9211 10
    endloop
  endfacet
  facet normal -0.125337 -0.992114 -0
    outer loop
      vertex 7.49525 39.2915 10
      vertex 2.51162 39.9211 0
      vertex 7.49525 39.2915 0
    endloop
  endfacet
  facet normal -0.481759 -0.876304 0
    outer loop
      vertex 17.0312 36.1931 0
      vertex 21.4331 33.7731 10
      vertex 17.0312 36.1931 10
    endloop
  endfacet
  facet normal -0.481759 -0.876304 -0
    outer loop
      vertex 21.4331 33.7731 10
      vertex 17.0312 36.1931 0
      vertex 21.4331 33.7731 0
    endloop
  endfacet
  facet normal 0.904824 -0.425786 4.10958e-18
    outer loop
      vertex -37.1911 14.725 10
      vertex -35.0523 19.2701 0
      vertex -35.0523 19.2701 10
    endloop
  endfacet
  facet normal 0.904824 -0.425786 4.10958e-18
    outer loop
      vertex -35.0523 19.2701 0
      vertex -37.1911 14.725 10
      vertex -37.1911 14.725 0
    endloop
  endfacet
  facet normal 0.982286 -0.187389 -1.05329e-18
    outer loop
      vertex -39.6846 5.01333 10
      vertex -38.7433 9.94759 0
      vertex -38.7433 9.94759 10
    endloop
  endfacet
  facet normal 0.982286 -0.187389 -1.05329e-18
    outer loop
      vertex -38.7433 9.94759 0
      vertex -39.6846 5.01333 10
      vertex -39.6846 5.01333 0
    endloop
  endfacet
  facet normal 0.481759 -0.876304 0
    outer loop
      vertex -21.4331 33.7731 0
      vertex -17.0312 36.1931 10
      vertex -21.4331 33.7731 10
    endloop
  endfacet
  facet normal 0.481759 -0.876304 0
    outer loop
      vertex -17.0312 36.1931 10
      vertex -21.4331 33.7731 0
      vertex -17.0312 36.1931 0
    endloop
  endfacet
  facet normal 0.248683 -0.968585 0
    outer loop
      vertex -12.3607 38.0423 0
      vertex -7.49525 39.2915 10
      vertex -12.3607 38.0423 10
    endloop
  endfacet
  facet normal 0.248683 -0.968585 0
    outer loop
      vertex -7.49525 39.2915 10
      vertex -12.3607 38.0423 0
      vertex -7.49525 39.2915 0
    endloop
  endfacet
  facet normal -0.844329 0.535825 6.04339e-18
    outer loop
      vertex 32.3607 -23.5114 0
      vertex 35.0523 -19.2701 10
      vertex 35.0523 -19.2701 0
    endloop
  endfacet
  facet normal -0.844329 0.535825 6.04339e-18
    outer loop
      vertex 35.0523 -19.2701 10
      vertex 32.3607 -23.5114 0
      vertex 32.3607 -23.5114 10
    endloop
  endfacet
  facet normal -0.982286 0.187389 -1.05329e-18
    outer loop
      vertex 38.7433 -9.94759 0
      vertex 39.6846 -5.01333 10
      vertex 39.6846 -5.01333 0
    endloop
  endfacet
  facet normal -0.982286 0.187389 -1.05329e-18
    outer loop
      vertex 39.6846 -5.01333 10
      vertex 38.7433 -9.94759 0
      vertex 38.7433 -9.94759 10
    endloop
  endfacet
  facet normal 0.125337 0.992114 -0
    outer loop
      vertex -2.51162 -39.9211 0
      vertex -7.49525 -39.2915 10
      vertex -2.51162 -39.9211 10
    endloop
  endfacet
  facet normal 0.125337 0.992114 0
    outer loop
      vertex -7.49525 -39.2915 10
      vertex -2.51162 -39.9211 0
      vertex -7.49525 -39.2915 0
    endloop
  endfacet
  facet normal 0.951061 0.309004 3.47929e-18
    outer loop
      vertex -37.1911 -14.725 10
      vertex -38.7433 -9.94759 0
      vertex -38.7433 -9.94759 10
    endloop
  endfacet
  facet normal 0.951061 0.309004 3.47929e-18
    outer loop
      vertex -38.7433 -9.94759 0
      vertex -37.1911 -14.725 10
      vertex -37.1911 -14.725 0
    endloop
  endfacet
  facet normal -0.368128 0.929775 0
    outer loop
      vertex 17.0312 -36.1931 0
      vertex 12.3607 -38.0423 10
      vertex 17.0312 -36.1931 10
    endloop
  endfacet
  facet normal -0.368128 0.929775 0
    outer loop
      vertex 12.3607 -38.0423 10
      vertex 17.0312 -36.1931 0
      vertex 12.3607 -38.0423 0
    endloop
  endfacet
  facet normal -0.248683 0.968585 0
    outer loop
      vertex 12.3607 -38.0423 0
      vertex 7.49525 -39.2915 10
      vertex 12.3607 -38.0423 10
    endloop
  endfacet
  facet normal -0.248683 0.968585 0
    outer loop
      vertex 7.49525 -39.2915 10
      vertex 12.3607 -38.0423 0
      vertex 7.49525 -39.2915 0
    endloop
  endfacet
  facet normal -0.904824 0.425786 4.10958e-18
    outer loop
      vertex 35.0523 -19.2701 0
      vertex 37.1911 -14.725 10
      vertex 37.1911 -14.725 0
    endloop
  endfacet
  facet normal -0.904824 0.425786 4.10958e-18
    outer loop
      vertex 37.1911 -14.725 10
      vertex 35.0523 -19.2701 0
      vertex 35.0523 -19.2701 10
    endloop
  endfacet
  facet normal -0.684551 0.728965 0
    outer loop
      vertex 29.1587 -27.3819 0
      vertex 25.497 -30.8205 10
      vertex 29.1587 -27.3819 10
    endloop
  endfacet
  facet normal -0.684551 0.728965 0
    outer loop
      vertex 25.497 -30.8205 10
      vertex 29.1587 -27.3819 0
      vertex 25.497 -30.8205 0
    endloop
  endfacet
  facet normal -0.951061 0.309004 -3.47929e-18
    outer loop
      vertex 37.1911 -14.725 0
      vertex 38.7433 -9.94759 10
      vertex 38.7433 -9.94759 0
    endloop
  endfacet
  facet normal -0.951061 0.309004 -3.47929e-18
    outer loop
      vertex 38.7433 -9.94759 10
      vertex 37.1911 -14.725 0
      vertex 37.1911 -14.725 10
    endloop
  endfacet
  facet normal 0.368128 0.929775 -0
    outer loop
      vertex -12.3607 -38.0423 0
      vertex -17.0312 -36.1931 10
      vertex -12.3607 -38.0423 10
    endloop
  endfacet
  facet normal 0.368128 0.929775 0
    outer loop
      vertex -17.0312 -36.1931 10
      vertex -12.3607 -38.0423 0
      vertex -17.0312 -36.1931 0
    endloop
  endfacet
  facet normal 0.770509 0.637429 5.57716e-18
    outer loop
      vertex -29.1587 -27.3819 10
      vertex -32.3607 -23.5114 0
      vertex -32.3607 -23.5114 10
    endloop
  endfacet
  facet normal 0.770509 0.637429 5.57716e-18
    outer loop
      vertex -32.3607 -23.5114 0
      vertex -29.1587 -27.3819 10
      vertex -29.1587 -27.3819 0
    endloop
  endfacet
  facet normal 0.904824 0.425786 -4.10958e-18
    outer loop
      vertex -35.0523 -19.2701 10
      vertex -37.1911 -14.725 0
      vertex -37.1911 -14.725 10
    endloop
  endfacet
  facet normal 0.904824 0.425786 -4.10958e-18
    outer loop
      vertex -37.1911 -14.725 0
      vertex -35.0523 -19.2701 10
      vertex -35.0523 -19.2701 0
    endloop
  endfacet
  facet normal 0.998027 0.0627881 2.95697e-19
    outer loop
      vertex -39.6846 -5.01333 10
      vertex -40 0 0
      vertex -40 0 10
    endloop
  endfacet
  facet normal 0.998027 0.0627881 2.95697e-19
    outer loop
      vertex -40 0 0
      vertex -39.6846 -5.01333 10
      vertex -39.6846 -5.01333 0
    endloop
  endfacet
  facet normal -0.481759 0.876304 0
    outer loop
      vertex 21.4331 -33.7731 0
      vertex 17.0312 -36.1931 10
      vertex 21.4331 -33.7731 10
    endloop
  endfacet
  facet normal -0.481759 0.876304 0
    outer loop
      vertex 17.0312 -36.1931 10
      vertex 21.4331 -33.7731 0
      vertex 17.0312 -36.1931 0
    endloop
  endfacet
  facet normal 0 1 -0
    outer loop
      vertex 2.51162 -39.9211 0
      vertex -2.51162 -39.9211 10
      vertex 2.51162 -39.9211 10
    endloop
  endfacet
  facet normal 0 1 0
    outer loop
      vertex -2.51162 -39.9211 10
      vertex 2.51162 -39.9211 0
      vertex -2.51162 -39.9211 0
    endloop
  endfacet
  facet normal 0.684551 0.728965 -0
    outer loop
      vertex -25.497 -30.8205 0
      vertex -29.1587 -27.3819 10
      vertex -25.497 -30.8205 10
    endloop
  endfacet
  facet normal 0.684551 0.728965 0
    outer loop
      vertex -29.1587 -27.3819 10
      vertex -25.497 -30.8205 0
      vertex -29.1587 -27.3819 0
    endloop
  endfacet
  facet normal 0.844329 0.535825 -6.04339e-18
    outer loop
      vertex -32.3607 -23.5114 10
      vertex -35.0523 -19.2701 0
      vertex -35.0523 -19.2701 10
    endloop
  endfacet
  facet normal 0.844329 0.535825 -6.04339e-18
    outer loop
      vertex -35.0523 -19.2701 0
      vertex -32.3607 -23.5114 10
      vertex -32.3607 -23.5114 0
    endloop
  endfacet
  facet normal 0.982286 0.187389 1.05329e-18
    outer loop
      vertex -38.7433 -9.94759 10
      vertex -39.6846 -5.01333 0
      vertex -39.6846 -5.01333 10
    endloop
  endfacet
  facet normal 0.982286 0.187389 1.05329e-18
    outer loop
      vertex -39.6846 -5.01333 0
      vertex -38.7433 -9.94759 10
      vertex -38.7433 -9.94759 0
    endloop
  endfacet
  facet normal -0.587786 0.809017 0
    outer loop
      vertex 25.497 -30.8205 0
      vertex 21.4331 -33.7731 10
      vertex 25.497 -30.8205 10
    endloop
  endfacet
  facet normal -0.587786 0.809017 0
    outer loop
      vertex 21.4331 -33.7731 10
      vertex 25.497 -30.8205 0
      vertex 21.4331 -33.7731 0
    endloop
  endfacet
  facet normal -0.770509 0.637429 -5.57716e-18
    outer loop
      vertex 29.1587 -27.3819 0
      vertex 32.3607 -23.5114 10
      vertex 32.3607 -23.5114 0
    endloop
  endfacet
  facet normal -0.770509 0.637429 -5.57716e-18
    outer loop
      vertex 32.3607 -23.5114 10
      vertex 29.1587 -27.3819 0
      vertex 29.1587 -27.3819 10
    endloop
  endfacet
  facet normal 0.481759 0.876304 -0
    outer loop
      vertex -17.0312 -36.1931 0
      vertex -21.4331 -33.7731 10
      vertex -17.0312 -36.1931 10
    endloop
  endfacet
  facet normal 0.481759 0.876304 0
    outer loop
      vertex -21.4331 -33.7731 10
      vertex -17.0312 -36.1931 0
      vertex -21.4331 -33.7731 0
    endloop
  endfacet
  facet normal 0.587786 0.809017 -0
    outer loop
      vertex -21.4331 -33.7731 0
      vertex -25.497 -30.8205 10
      vertex -21.4331 -33.7731 10
    endloop
  endfacet
  facet normal 0.587786 0.809017 0
    outer loop
      vertex -25.497 -30.8205 10
      vertex -21.4331 -33.7731 0
      vertex -25.497 -30.8205 0
    endloop
  endfacet
endsolid OpenSCAD_Model
