  0
SECTION
  2
BLOCKS
  0
ENDSEC
  0
SECTION
  2
ENTITIES
  0
LINE
  8
0
 10
1.68642
 20
-8.84058
 11
2.78114
 21
-8.55949
  0
LINE
  8
0
 10
2.78114
 20
-8.55949
 11
3.832
 21
-8.14343
  0
LINE
  8
0
 10
3.832
 20
-8.14343
 11
4.82243
 21
-7.59894
  0
LINE
  8
0
 10
4.82243
 20
-7.59894
 11
5.7368
 21
-6.93462
  0
LINE
  8
0
 10
5.7368
 20
-6.93462
 11
6.56071
 21
-6.16092
  0
LINE
  8
0
 10
6.56071
 20
-6.16092
 11
7.28114
 21
-5.29005
  0
LINE
  8
0
 10
7.28114
 20
-5.29005
 11
7.88675
 21
-4.33577
  0
LINE
  8
0
 10
7.88675
 20
-4.33577
 11
8.36798
 21
-3.31311
  0
LINE
  8
0
 10
8.36798
 20
-3.31311
 11
8.71724
 21
-2.2382
  0
LINE
  8
0
 10
8.71724
 20
-2.2382
 11
8.92903
 21
-1.12799
  0
LINE
  8
0
 10
8.92903
 20
-1.12799
 11
9
 21
0
  0
LINE
  8
0
 10
9
 20
0
 11
8.92903
 21
1.12799
  0
LINE
  8
0
 10
8.92903
 20
1.12799
 11
8.71724
 21
2.2382
  0
LINE
  8
0
 10
8.71724
 20
2.2382
 11
8.36798
 21
3.31311
  0
LINE
  8
0
 10
8.36798
 20
3.31311
 11
7.88675
 21
4.33577
  0
LINE
  8
0
 10
7.88675
 20
4.33577
 11
7.28114
 21
5.29005
  0
LINE
  8
0
 10
7.28114
 20
5.29005
 11
6.56071
 21
6.16092
  0
LINE
  8
0
 10
6.56071
 20
6.16092
 11
5.7368
 21
6.93462
  0
LINE
  8
0
 10
5.7368
 20
6.93462
 11
4.82243
 21
7.59894
  0
LINE
  8
0
 10
4.82243
 20
7.59894
 11
3.832
 21
8.14343
  0
LINE
  8
0
 10
3.832
 20
8.14343
 11
2.78114
 21
8.55949
  0
LINE
  8
0
 10
2.78114
 20
8.55949
 11
1.68642
 21
8.84058
  0
LINE
  8
0
 10
1.68642
 20
8.84058
 11
0.565109
 21
8.98224
  0
LINE
  8
0
 10
0.565109
 20
8.98224
 11
-0.565109
 21
8.98224
  0
LINE
  8
0
 10
-0.565109
 20
8.98224
 11
-1.68642
 21
8.84058
  0
LINE
  8
0
 10
-1.68642
 20
8.84058
 11
-2.78114
 21
8.55949
  0
LINE
  8
0
 10
-2.78114
 20
8.55949
 11
-3.832
 21
8.14343
  0
LINE
  8
0
 10
-3.832
 20
8.14343
 11
-4.82243
 21
7.59894
  0
LINE
  8
0
 10
-4.82243
 20
7.59894
 11
-5.7368
 21
6.93462
  0
LINE
  8
0
 10
-5.7368
 20
6.93462
 11
-6.56071
 21
6.16092
  0
LINE
  8
0
 10
-6.56071
 20
6.16092
 11
-7.28114
 21
5.29005
  0
LINE
  8
0
 10
-7.28114
 20
5.29005
 11
-7.88675
 21
4.33577
  0
LINE
  8
0
 10
-7.88675
 20
4.33577
 11
-8.36798
 21
3.31311
  0
LINE
  8
0
 10
-8.36798
 20
3.31311
 11
-8.71724
 21
2.2382
  0
LINE
  8
0
 10
-8.71724
 20
2.2382
 11
-8.92903
 21
1.12799
  0
LINE
  8
0
 10
-8.92903
 20
1.12799
 11
-9
 21
0
  0
LINE
  8
0
 10
-9
 20
0
 11
-8.92903
 21
-1.12799
  0
LINE
  8
0
 10
-8.92903
 20
-1.12799
 11
-8.71724
 21
-2.2382
  0
LINE
  8
0
 10
-8.71724
 20
-2.2382
 11
-8.36798
 21
-3.31311
  0
LINE
  8
0
 10
-8.36798
 20
-3.31311
 11
-7.88675
 21
-4.33577
  0
LINE
  8
0
 10
-7.88675
 20
-4.33577
 11
-7.28114
 21
-5.29005
  0
LINE
  8
0
 10
-7.28114
 20
-5.29005
 11
-6.56071
 21
-6.16092
  0
LINE
  8
0
 10
-6.56071
 20
-6.16092
 11
-5.7368
 21
-6.93462
  0
LINE
  8
0
 10
-5.7368
 20
-6.93462
 11
-4.82243
 21
-7.59894
  0
LINE
  8
0
 10
-4.82243
 20
-7.59894
 11
-3.832
 21
-8.14343
  0
LINE
  8
0
 10
-3.832
 20
-8.14343
 11
-2.78114
 21
-8.55949
  0
LINE
  8
0
 10
-2.78114
 20
-8.55949
 11
-1.68642
 21
-8.84058
  0
LINE
  8
0
 10
-1.68642
 20
-8.84058
 11
-0.565109
 21
-8.98224
  0
LINE
  8
0
 10
-0.565109
 20
-8.98224
 11
0.565109
 21
-8.98224
  0
LINE
  8
0
 10
0.565109
 20
-8.98224
 11
1.68642
 21
-8.84058
  0
LINE
  8
0
 10
-0.37674
 20
-5.98816
 11
-1.12428
 21
-5.89372
  0
LINE
  8
0
 10
-1.12428
 20
-5.89372
 11
-1.8541
 21
-5.70633
  0
LINE
  8
0
 10
-1.8541
 20
-5.70633
 11
-2.55467
 21
-5.42896
  0
LINE
  8
0
 10
-2.55467
 20
-5.42896
 11
-3.21495
 21
-5.06596
  0
LINE
  8
0
 10
-3.21495
 20
-5.06596
 11
-3.82454
 21
-4.62308
  0
LINE
  8
0
 10
-3.82454
 20
-4.62308
 11
-4.37381
 21
-4.10727
  0
LINE
  8
0
 10
-4.37381
 20
-4.10727
 11
-4.8541
 21
-3.5267
  0
LINE
  8
0
 10
-4.8541
 20
-3.5267
 11
-5.25783
 21
-2.89052
  0
LINE
  8
0
 10
-5.25783
 20
-2.89052
 11
-5.57864
 21
-2.20874
  0
LINE
  8
0
 10
-5.57864
 20
-2.20874
 11
-5.81149
 21
-1.49213
  0
LINE
  8
0
 10
-5.81149
 20
-1.49213
 11
-5.95268
 21
-0.751999
  0
LINE
  8
0
 10
-5.95268
 20
-0.751999
 11
-6
 21
0
  0
LINE
  8
0
 10
-6
 20
0
 11
-5.95268
 21
0.751999
  0
LINE
  8
0
 10
-5.95268
 20
0.751999
 11
-5.81149
 21
1.49213
  0
LINE
  8
0
 10
-5.81149
 20
1.49213
 11
-5.57864
 21
2.20874
  0
LINE
  8
0
 10
-5.57864
 20
2.20874
 11
-5.25783
 21
2.89052
  0
LINE
  8
0
 10
-5.25783
 20
2.89052
 11
-4.8541
 21
3.5267
  0
LINE
  8
0
 10
-4.8541
 20
3.5267
 11
-4.37381
 21
4.10727
  0
LINE
  8
0
 10
-4.37381
 20
4.10727
 11
-3.82454
 21
4.62308
  0
LINE
  8
0
 10
-3.82454
 20
4.62308
 11
-3.21495
 21
5.06596
  0
LINE
  8
0
 10
-3.21495
 20
5.06596
 11
-2.55467
 21
5.42896
  0
LINE
  8
0
 10
-2.55467
 20
5.42896
 11
-1.8541
 21
5.70633
  0
LINE
  8
0
 10
-1.8541
 20
5.70633
 11
-1.12428
 21
5.89372
  0
LINE
  8
0
 10
-1.12428
 20
5.89372
 11
-0.37674
 21
5.98816
  0
LINE
  8
0
 10
-0.37674
 20
5.98816
 11
0.37674
 21
5.98816
  0
LINE
  8
0
 10
0.37674
 20
5.98816
 11
1.12428
 21
5.89372
  0
LINE
  8
0
 10
1.12428
 20
5.89372
 11
1.8541
 21
5.70633
  0
LINE
  8
0
 10
1.8541
 20
5.70633
 11
2.55467
 21
5.42896
  0
LINE
  8
0
 10
2.55467
 20
5.42896
 11
3.21495
 21
5.06596
  0
LINE
  8
0
 10
3.21495
 20
5.06596
 11
3.82454
 21
4.62308
  0
LINE
  8
0
 10
3.82454
 20
4.62308
 11
4.37381
 21
4.10727
  0
LINE
  8
0
 10
4.37381
 20
4.10727
 11
4.8541
 21
3.5267
  0
LINE
  8
0
 10
4.8541
 20
3.5267
 11
5.25783
 21
2.89052
  0
LINE
  8
0
 10
5.25783
 20
2.89052
 11
5.57864
 21
2.20874
  0
LINE
  8
0
 10
5.57864
 20
2.20874
 11
5.81149
 21
1.49213
  0
LINE
  8
0
 10
5.81149
 20
1.49213
 11
5.95268
 21
0.751999
  0
LINE
  8
0
 10
5.95268
 20
0.751999
 11
6
 21
0
  0
LINE
  8
0
 10
6
 20
0
 11
5.95268
 21
-0.751999
  0
LINE
  8
0
 10
5.95268
 20
-0.751999
 11
5.81149
 21
-1.49213
  0
LINE
  8
0
 10
5.81149
 20
-1.49213
 11
5.57864
 21
-2.20874
  0
LINE
  8
0
 10
5.57864
 20
-2.20874
 11
5.25783
 21
-2.89052
  0
LINE
  8
0
 10
5.25783
 20
-2.89052
 11
4.8541
 21
-3.5267
  0
LINE
  8
0
 10
4.8541
 20
-3.5267
 11
4.37381
 21
-4.10727
  0
LINE
  8
0
 10
4.37381
 20
-4.10727
 11
3.82454
 21
-4.62308
  0
LINE
  8
0
 10
3.82454
 20
-4.62308
 11
3.21495
 21
-5.06596
  0
LINE
  8
0
 10
3.21495
 20
-5.06596
 11
2.55467
 21
-5.42896
  0
LINE
  8
0
 10
2.55467
 20
-5.42896
 11
1.8541
 21
-5.70633
  0
LINE
  8
0
 10
1.8541
 20
-5.70633
 11
1.12428
 21
-5.89372
  0
LINE
  8
0
 10
1.12428
 20
-5.89372
 11
0.37674
 21
-5.98816
  0
LINE
  8
0
 10
0.37674
 20
-5.98816
 11
-0.37674
 21
-5.98816
  0
ENDSEC
  0
SECTION
  2
OBJECTS
  0
DICTIONARY
  0
ENDSEC
  0
EOF
