solid OpenSCAD_Model
  facet normal -0.951056 0.309017 -6.41517e-19
    outer loop
      vertex -8.71725 2.23821 0
      vertex -8.36799 3.31312 4
      vertex -8.36799 3.31312 0
    endloop
  endfacet
  facet normal -0.951056 0.309017 -6.41517e-19
    outer loop
      vertex -8.36799 3.31312 4
      vertex -8.71725 2.23821 0
      vertex -8.71725 2.23821 4
    endloop
  endfacet
  facet normal 0.844328 0.535826 1.1871e-17
    outer loop
      vertex 7.88676 4.33578 4
      vertex 7.28115 5.29007 0
      vertex 7.28115 5.29007 4
    endloop
  endfacet
  facet normal 0.844328 0.535826 1.1871e-17
    outer loop
      vertex 7.28115 5.29007 0
      vertex 7.88676 4.33578 4
      vertex 7.88676 4.33578 0
    endloop
  endfacet
  facet normal 0.368128 0.929775 -0
    outer loop
      vertex 3.83201 8.14344 0
      vertex 2.78115 8.55951 4
      vertex 3.83201 8.14344 4
    endloop
  endfacet
  facet normal 0.368128 0.929775 0
    outer loop
      vertex 2.78115 8.55951 4
      vertex 3.83201 8.14344 0
      vertex 2.78115 8.55951 0
    endloop
  endfacet
  facet normal -0.368128 0.929775 0
    outer loop
      vertex -2.78115 8.55951 0
      vertex -3.83201 8.14344 4
      vertex -2.78115 8.55951 4
    endloop
  endfacet
  facet normal -0.368128 0.929775 0
    outer loop
      vertex -3.83201 8.14344 4
      vertex -2.78115 8.55951 0
      vertex -3.83201 8.14344 0
    endloop
  endfacet
  facet normal -0.904826 0.425781 2.03247e-18
    outer loop
      vertex -8.36799 3.31312 0
      vertex -7.88676 4.33578 4
      vertex -7.88676 4.33578 0
    endloop
  endfacet
  facet normal -0.904826 0.425781 2.03247e-18
    outer loop
      vertex -7.88676 4.33578 4
      vertex -8.36799 3.31312 0
      vertex -8.36799 3.31312 4
    endloop
  endfacet
  facet normal 0.982288 -0.187378 2.02048e-18
    outer loop
      vertex 8.71725 -2.23821 4
      vertex 8.92903 -1.128 0
      vertex 8.92903 -1.128 4
    endloop
  endfacet
  facet normal 0.982288 -0.187378 2.02048e-18
    outer loop
      vertex 8.92903 -1.128 0
      vertex 8.71725 -2.23821 4
      vertex 8.71725 -2.23821 0
    endloop
  endfacet
  facet normal 0.982288 0.187378 -2.02048e-18
    outer loop
      vertex 8.92903 1.128 4
      vertex 8.71725 2.23821 0
      vertex 8.71725 2.23821 4
    endloop
  endfacet
  facet normal 0.982288 0.187378 -2.02048e-18
    outer loop
      vertex 8.71725 2.23821 0
      vertex 8.92903 1.128 4
      vertex 8.92903 1.128 0
    endloop
  endfacet
  facet normal 0.125337 0.992114 -0
    outer loop
      vertex 1.68643 8.84058 0
      vertex 0.565114 8.98224 4
      vertex 1.68643 8.84058 4
    endloop
  endfacet
  facet normal 0.125337 0.992114 0
    outer loop
      vertex 0.565114 8.98224 4
      vertex 1.68643 8.84058 0
      vertex 0.565114 8.98224 0
    endloop
  endfacet
  facet normal 0.481751 0.876308 -0
    outer loop
      vertex 4.82244 7.59895 0
      vertex 3.83201 8.14344 4
      vertex 4.82244 7.59895 4
    endloop
  endfacet
  facet normal 0.481751 0.876308 0
    outer loop
      vertex 3.83201 8.14344 4
      vertex 4.82244 7.59895 0
      vertex 3.83201 8.14344 0
    endloop
  endfacet
  facet normal -0.982288 0.187378 2.02048e-18
    outer loop
      vertex -8.92903 1.128 0
      vertex -8.71725 2.23821 4
      vertex -8.71725 2.23821 0
    endloop
  endfacet
  facet normal -0.982288 0.187378 2.02048e-18
    outer loop
      vertex -8.71725 2.23821 4
      vertex -8.92903 1.128 0
      vertex -8.92903 1.128 4
    endloop
  endfacet
  facet normal -0.770513 0.637424 -4.44868e-18
    outer loop
      vertex -7.28115 5.29007 0
      vertex -6.56072 6.16092 4
      vertex -6.56072 6.16092 0
    endloop
  endfacet
  facet normal -0.770513 0.637424 -4.44868e-18
    outer loop
      vertex -6.56072 6.16092 4
      vertex -7.28115 5.29007 0
      vertex -7.28115 5.29007 4
    endloop
  endfacet
  facet normal -0.248685 0.968585 0
    outer loop
      vertex -1.68643 8.84058 0
      vertex -2.78115 8.55951 4
      vertex -1.68643 8.84058 4
    endloop
  endfacet
  facet normal -0.248685 0.968585 0
    outer loop
      vertex -2.78115 8.55951 4
      vertex -1.68643 8.84058 0
      vertex -2.78115 8.55951 0
    endloop
  endfacet
  facet normal -0.68455 0.728966 0
    outer loop
      vertex -5.73682 6.93462 0
      vertex -6.56072 6.16092 4
      vertex -5.73682 6.93462 4
    endloop
  endfacet
  facet normal -0.68455 0.728966 0
    outer loop
      vertex -6.56072 6.16092 4
      vertex -5.73682 6.93462 0
      vertex -6.56072 6.16092 0
    endloop
  endfacet
  facet normal 0.998027 0.0627925 -4.00198e-19
    outer loop
      vertex 9 0 4
      vertex 8.92903 1.128 0
      vertex 8.92903 1.128 4
    endloop
  endfacet
  facet normal 0.998027 0.0627925 -4.00198e-19
    outer loop
      vertex 8.92903 1.128 0
      vertex 9 0 4
      vertex 9 0 0
    endloop
  endfacet
  facet normal 0.481751 -0.876308 0
    outer loop
      vertex 3.83201 -8.14344 0
      vertex 4.82244 -7.59895 4
      vertex 3.83201 -8.14344 4
    endloop
  endfacet
  facet normal 0.481751 -0.876308 0
    outer loop
      vertex 4.82244 -7.59895 4
      vertex 3.83201 -8.14344 0
      vertex 4.82244 -7.59895 0
    endloop
  endfacet
  facet normal 0.951056 -0.309017 -6.41517e-19
    outer loop
      vertex 8.36799 -3.31312 4
      vertex 8.71725 -2.23821 0
      vertex 8.71725 -2.23821 4
    endloop
  endfacet
  facet normal 0.951056 -0.309017 -6.41517e-19
    outer loop
      vertex 8.71725 -2.23821 0
      vertex 8.36799 -3.31312 4
      vertex 8.36799 -3.31312 0
    endloop
  endfacet
  facet normal 0.68455 0.728966 -0
    outer loop
      vertex 6.56072 6.16092 0
      vertex 5.73682 6.93462 4
      vertex 6.56072 6.16092 4
    endloop
  endfacet
  facet normal 0.68455 0.728966 0
    outer loop
      vertex 5.73682 6.93462 4
      vertex 6.56072 6.16092 0
      vertex 5.73682 6.93462 0
    endloop
  endfacet
  facet normal 0 1 -0
    outer loop
      vertex 0.565114 8.98224 0
      vertex -0.565114 8.98224 4
      vertex 0.565114 8.98224 4
    endloop
  endfacet
  facet normal 0 1 0
    outer loop
      vertex -0.565114 8.98224 4
      vertex 0.565114 8.98224 0
      vertex -0.565114 8.98224 0
    endloop
  endfacet
  facet normal 0.248685 0.968585 -0
    outer loop
      vertex 2.78115 8.55951 0
      vertex 1.68643 8.84058 4
      vertex 2.78115 8.55951 4
    endloop
  endfacet
  facet normal 0.248685 0.968585 0
    outer loop
      vertex 1.68643 8.84058 4
      vertex 2.78115 8.55951 0
      vertex 1.68643 8.84058 0
    endloop
  endfacet
  facet normal 0.587782 0.80902 -0
    outer loop
      vertex 5.73682 6.93462 0
      vertex 4.82244 7.59895 4
      vertex 5.73682 6.93462 4
    endloop
  endfacet
  facet normal 0.587782 0.80902 0
    outer loop
      vertex 4.82244 7.59895 4
      vertex 5.73682 6.93462 0
      vertex 4.82244 7.59895 0
    endloop
  endfacet
  facet normal -0.998027 0.0627925 4.00198e-19
    outer loop
      vertex -9 0 0
      vertex -8.92903 1.128 4
      vertex -8.92903 1.128 0
    endloop
  endfacet
  facet normal -0.998027 0.0627925 4.00198e-19
    outer loop
      vertex -8.92903 1.128 4
      vertex -9 0 0
      vertex -9 0 4
    endloop
  endfacet
  facet normal -0.844328 0.535826 -1.1871e-17
    outer loop
      vertex -7.88676 4.33578 0
      vertex -7.28115 5.29007 4
      vertex -7.28115 5.29007 0
    endloop
  endfacet
  facet normal -0.844328 0.535826 -1.1871e-17
    outer loop
      vertex -7.28115 5.29007 4
      vertex -7.88676 4.33578 0
      vertex -7.88676 4.33578 4
    endloop
  endfacet
  facet normal -0.125337 0.992114 0
    outer loop
      vertex -0.565114 8.98224 0
      vertex -1.68643 8.84058 4
      vertex -0.565114 8.98224 4
    endloop
  endfacet
  facet normal -0.125337 0.992114 0
    outer loop
      vertex -1.68643 8.84058 4
      vertex -0.565114 8.98224 0
      vertex -1.68643 8.84058 0
    endloop
  endfacet
  facet normal -0.587782 0.80902 0
    outer loop
      vertex -4.82244 7.59895 0
      vertex -5.73682 6.93462 4
      vertex -4.82244 7.59895 4
    endloop
  endfacet
  facet normal -0.587782 0.80902 0
    outer loop
      vertex -5.73682 6.93462 4
      vertex -4.82244 7.59895 0
      vertex -5.73682 6.93462 0
    endloop
  endfacet
  facet normal -0.481751 0.876308 0
    outer loop
      vertex -3.83201 8.14344 0
      vertex -4.82244 7.59895 4
      vertex -3.83201 8.14344 4
    endloop
  endfacet
  facet normal -0.481751 0.876308 0
    outer loop
      vertex -4.82244 7.59895 4
      vertex -3.83201 8.14344 0
      vertex -4.82244 7.59895 0
    endloop
  endfacet
  facet normal 0.998027 -0.0627925 4.00198e-19
    outer loop
      vertex 8.92903 -1.128 4
      vertex 9 0 0
      vertex 9 0 4
    endloop
  endfacet
  facet normal 0.998027 -0.0627925 4.00198e-19
    outer loop
      vertex 9 0 0
      vertex 8.92903 -1.128 4
      vertex 8.92903 -1.128 0
    endloop
  endfacet
  facet normal 0.125337 -0.992114 0
    outer loop
      vertex 0.565114 -8.98224 0
      vertex 1.68643 -8.84058 4
      vertex 0.565114 -8.98224 4
    endloop
  endfacet
  facet normal 0.125337 -0.992114 0
    outer loop
      vertex 1.68643 -8.84058 4
      vertex 0.565114 -8.98224 0
      vertex 1.68643 -8.84058 0
    endloop
  endfacet
  facet normal 0.904826 0.425781 -2.03247e-18
    outer loop
      vertex 8.36799 3.31312 4
      vertex 7.88676 4.33578 0
      vertex 7.88676 4.33578 4
    endloop
  endfacet
  facet normal 0.904826 0.425781 -2.03247e-18
    outer loop
      vertex 7.88676 4.33578 0
      vertex 8.36799 3.31312 4
      vertex 8.36799 3.31312 0
    endloop
  endfacet
  facet normal 0.951056 0.309017 6.41517e-19
    outer loop
      vertex 8.71725 2.23821 4
      vertex 8.36799 3.31312 0
      vertex 8.36799 3.31312 4
    endloop
  endfacet
  facet normal 0.951056 0.309017 6.41517e-19
    outer loop
      vertex 8.36799 3.31312 0
      vertex 8.71725 2.23821 4
      vertex 8.71725 2.23821 0
    endloop
  endfacet
  facet normal 0.770513 0.637424 4.44868e-18
    outer loop
      vertex 7.28115 5.29007 4
      vertex 6.56072 6.16092 0
      vertex 6.56072 6.16092 4
    endloop
  endfacet
  facet normal 0.770513 0.637424 4.44868e-18
    outer loop
      vertex 6.56072 6.16092 0
      vertex 7.28115 5.29007 4
      vertex 7.28115 5.29007 0
    endloop
  endfacet
  facet normal 0 0 1
    outer loop
      vertex 6 0 4
      vertex 9 0 4
      vertex 8.92903 1.128 4
    endloop
  endfacet
  facet normal 0 0 1
    outer loop
      vertex 5.95269 0.751999 4
      vertex 8.92903 1.128 4
      vertex 8.71725 2.23821 4
    endloop
  endfacet
  facet normal 0 0 1
    outer loop
      vertex 9 0 4
      vertex 6 0 4
      vertex 8.92903 -1.128 4
    endloop
  endfacet
  facet normal 0 0 1
    outer loop
      vertex 5.8115 1.49214 4
      vertex 8.71725 2.23821 4
      vertex 8.36799 3.31312 4
    endloop
  endfacet
  facet normal -0 0 1
    outer loop
      vertex 5.95269 -0.751999 4
      vertex 8.92903 -1.128 4
      vertex 6 0 4
    endloop
  endfacet
  facet normal 0 0 1
    outer loop
      vertex 5.57866 2.20875 4
      vertex 8.36799 3.31312 4
      vertex 7.88676 4.33578 4
    endloop
  endfacet
  facet normal 0 0 1
    outer loop
      vertex 8.92903 -1.128 4
      vertex 5.95269 -0.751999 4
      vertex 8.71725 -2.23821 4
    endloop
  endfacet
  facet normal 0 0 1
    outer loop
      vertex 5.25784 2.89052 4
      vertex 7.88676 4.33578 4
      vertex 7.28115 5.29007 4
    endloop
  endfacet
  facet normal -0 0 1
    outer loop
      vertex 5.8115 -1.49214 4
      vertex 8.71725 -2.23821 4
      vertex 5.95269 -0.751999 4
    endloop
  endfacet
  facet normal 0 0 1
    outer loop
      vertex 4.8541 3.52671 4
      vertex 7.28115 5.29007 4
      vertex 6.56072 6.16092 4
    endloop
  endfacet
  facet normal 0 0 1
    outer loop
      vertex 8.71725 -2.23821 4
      vertex 5.8115 -1.49214 4
      vertex 8.36799 -3.31312 4
    endloop
  endfacet
  facet normal -0 0 1
    outer loop
      vertex 5.57866 -2.20875 4
      vertex 8.36799 -3.31312 4
      vertex 5.8115 -1.49214 4
    endloop
  endfacet
  facet normal 0 0 1
    outer loop
      vertex 8.92903 1.128 4
      vertex 5.95269 0.751999 4
      vertex 6 0 4
    endloop
  endfacet
  facet normal 0 0 1
    outer loop
      vertex 8.71725 2.23821 4
      vertex 5.8115 1.49214 4
      vertex 5.95269 0.751999 4
    endloop
  endfacet
  facet normal 0 0 1
    outer loop
      vertex 4.37381 4.10728 4
      vertex 6.56072 6.16092 4
      vertex 5.73682 6.93462 4
    endloop
  endfacet
  facet normal 0 0 1
    outer loop
      vertex 8.36799 3.31312 4
      vertex 5.57866 2.20875 4
      vertex 5.8115 1.49214 4
    endloop
  endfacet
  facet normal 0 0 1
    outer loop
      vertex 7.88676 4.33578 4
      vertex 5.25784 2.89052 4
      vertex 5.57866 2.20875 4
    endloop
  endfacet
  facet normal 0 0 1
    outer loop
      vertex 7.28115 5.29007 4
      vertex 4.8541 3.52671 4
      vertex 5.25784 2.89052 4
    endloop
  endfacet
  facet normal 0 0 1
    outer loop
      vertex 3.82454 4.62308 4
      vertex 5.73682 6.93462 4
      vertex 4.82244 7.59895 4
    endloop
  endfacet
  facet normal 0 0 1
    outer loop
      vertex 6.56072 6.16092 4
      vertex 4.37381 4.10728 4
      vertex 4.8541 3.52671 4
    endloop
  endfacet
  facet normal 0 0 1
    outer loop
      vertex 3.21496 5.06597 4
      vertex 4.82244 7.59895 4
      vertex 3.83201 8.14344 4
    endloop
  endfacet
  facet normal 0 0 1
    outer loop
      vertex 5.73682 6.93462 4
      vertex 3.82454 4.62308 4
      vertex 4.37381 4.10728 4
    endloop
  endfacet
  facet normal 0 0 1
    outer loop
      vertex 4.82244 7.59895 4
      vertex 3.21496 5.06597 4
      vertex 3.82454 4.62308 4
    endloop
  endfacet
  facet normal 0 0 1
    outer loop
      vertex 2.55468 5.42896 4
      vertex 3.83201 8.14344 4
      vertex 2.78115 8.55951 4
    endloop
  endfacet
  facet normal 0 0 1
    outer loop
      vertex 3.83201 8.14344 4
      vertex 2.55468 5.42896 4
      vertex 3.21496 5.06597 4
    endloop
  endfacet
  facet normal 0 0 1
    outer loop
      vertex 2.78115 8.55951 4
      vertex 1.8541 5.70634 4
      vertex 2.55468 5.42896 4
    endloop
  endfacet
  facet normal 0 0 1
    outer loop
      vertex 1.68643 8.84058 4
      vertex 1.8541 5.70634 4
      vertex 2.78115 8.55951 4
    endloop
  endfacet
  facet normal 0 0 1
    outer loop
      vertex 1.68643 8.84058 4
      vertex 1.12429 5.89372 4
      vertex 1.8541 5.70634 4
    endloop
  endfacet
  facet normal 0 0 1
    outer loop
      vertex 0.565114 8.98224 4
      vertex 1.12429 5.89372 4
      vertex 1.68643 8.84058 4
    endloop
  endfacet
  facet normal 0 0 1
    outer loop
      vertex 0.565114 8.98224 4
      vertex 0.376742 5.98816 4
      vertex 1.12429 5.89372 4
    endloop
  endfacet
  facet normal 0 0 1
    outer loop
      vertex 0.565114 8.98224 4
      vertex -0.376742 5.98816 4
      vertex 0.376742 5.98816 4
    endloop
  endfacet
  facet normal -0 0 1
    outer loop
      vertex -0.565114 8.98224 4
      vertex -0.376742 5.98816 4
      vertex 0.565114 8.98224 4
    endloop
  endfacet
  facet normal 0 0 1
    outer loop
      vertex -0.565114 8.98224 4
      vertex -1.12429 5.89372 4
      vertex -0.376742 5.98816 4
    endloop
  endfacet
  facet normal -0 0 1
    outer loop
      vertex -1.68643 8.84058 4
      vertex -1.12429 5.89372 4
      vertex -0.565114 8.98224 4
    endloop
  endfacet
  facet normal 0 0 1
    outer loop
      vertex -1.68643 8.84058 4
      vertex -1.8541 5.70634 4
      vertex -1.12429 5.89372 4
    endloop
  endfacet
  facet normal -0 0 1
    outer loop
      vertex -2.78115 8.55951 4
      vertex -1.8541 5.70634 4
      vertex -1.68643 8.84058 4
    endloop
  endfacet
  facet normal 0 0 1
    outer loop
      vertex -1.8541 5.70634 4
      vertex -2.78115 8.55951 4
      vertex -2.55468 5.42896 4
    endloop
  endfacet
  facet normal -0 0 1
    outer loop
      vertex -3.83201 8.14344 4
      vertex -2.55468 5.42896 4
      vertex -2.78115 8.55951 4
    endloop
  endfacet
  facet normal 0 0 1
    outer loop
      vertex -2.55468 5.42896 4
      vertex -3.83201 8.14344 4
      vertex -3.21496 5.06597 4
    endloop
  endfacet
  facet normal -0 0 1
    outer loop
      vertex -4.82244 7.59895 4
      vertex -3.21496 5.06597 4
      vertex -3.83201 8.14344 4
    endloop
  endfacet
  facet normal 0 0 1
    outer loop
      vertex -3.21496 5.06597 4
      vertex -4.82244 7.59895 4
      vertex -3.82454 4.62308 4
    endloop
  endfacet
  facet normal -0 0 1
    outer loop
      vertex -5.73682 6.93462 4
      vertex -3.82454 4.62308 4
      vertex -4.82244 7.59895 4
    endloop
  endfacet
  facet normal 0 0 1
    outer loop
      vertex -3.82454 4.62308 4
      vertex -5.73682 6.93462 4
      vertex -4.37381 4.10728 4
    endloop
  endfacet
  facet normal -0 0 1
    outer loop
      vertex -6.56072 6.16092 4
      vertex -4.37381 4.10728 4
      vertex -5.73682 6.93462 4
    endloop
  endfacet
  facet normal 0 0 1
    outer loop
      vertex -4.37381 4.10728 4
      vertex -6.56072 6.16092 4
      vertex -4.8541 3.52671 4
    endloop
  endfacet
  facet normal -0 0 1
    outer loop
      vertex -7.28115 5.29007 4
      vertex -4.8541 3.52671 4
      vertex -6.56072 6.16092 4
    endloop
  endfacet
  facet normal 0 0 1
    outer loop
      vertex -4.8541 3.52671 4
      vertex -7.28115 5.29007 4
      vertex -5.25784 2.89052 4
    endloop
  endfacet
  facet normal -0 0 1
    outer loop
      vertex -7.88676 4.33578 4
      vertex -5.25784 2.89052 4
      vertex -7.28115 5.29007 4
    endloop
  endfacet
  facet normal 0 0 1
    outer loop
      vertex -5.25784 2.89052 4
      vertex -7.88676 4.33578 4
      vertex -5.57866 2.20875 4
    endloop
  endfacet
  facet normal -0 0 1
    outer loop
      vertex -8.36799 3.31312 4
      vertex -5.57866 2.20875 4
      vertex -7.88676 4.33578 4
    endloop
  endfacet
  facet normal 0 0 1
    outer loop
      vertex 8.36799 -3.31312 4
      vertex 5.57866 -2.20875 4
      vertex 7.88676 -4.33578 4
    endloop
  endfacet
  facet normal -0 0 1
    outer loop
      vertex 5.25784 -2.89052 4
      vertex 7.88676 -4.33578 4
      vertex 5.57866 -2.20875 4
    endloop
  endfacet
  facet normal 0 0 1
    outer loop
      vertex 7.88676 -4.33578 4
      vertex 5.25784 -2.89052 4
      vertex 7.28115 -5.29007 4
    endloop
  endfacet
  facet normal -0 0 1
    outer loop
      vertex 4.8541 -3.52671 4
      vertex 7.28115 -5.29007 4
      vertex 5.25784 -2.89052 4
    endloop
  endfacet
  facet normal 0 0 1
    outer loop
      vertex 7.28115 -5.29007 4
      vertex 4.8541 -3.52671 4
      vertex 6.56072 -6.16092 4
    endloop
  endfacet
  facet normal -0 0 1
    outer loop
      vertex 4.37381 -4.10728 4
      vertex 6.56072 -6.16092 4
      vertex 4.8541 -3.52671 4
    endloop
  endfacet
  facet normal 0 0 1
    outer loop
      vertex 6.56072 -6.16092 4
      vertex 4.37381 -4.10728 4
      vertex 5.73682 -6.93462 4
    endloop
  endfacet
  facet normal -0 0 1
    outer loop
      vertex 3.82454 -4.62308 4
      vertex 5.73682 -6.93462 4
      vertex 4.37381 -4.10728 4
    endloop
  endfacet
  facet normal 0 0 1
    outer loop
      vertex 5.73682 -6.93462 4
      vertex 3.82454 -4.62308 4
      vertex 4.82244 -7.59895 4
    endloop
  endfacet
  facet normal -0 0 1
    outer loop
      vertex 3.21496 -5.06597 4
      vertex 4.82244 -7.59895 4
      vertex 3.82454 -4.62308 4
    endloop
  endfacet
  facet normal 0 0 1
    outer loop
      vertex 4.82244 -7.59895 4
      vertex 3.21496 -5.06597 4
      vertex 3.83201 -8.14344 4
    endloop
  endfacet
  facet normal -0 0 1
    outer loop
      vertex 2.55468 -5.42896 4
      vertex 3.83201 -8.14344 4
      vertex 3.21496 -5.06597 4
    endloop
  endfacet
  facet normal 0 0 1
    outer loop
      vertex 3.83201 -8.14344 4
      vertex 2.55468 -5.42896 4
      vertex 2.78115 -8.55951 4
    endloop
  endfacet
  facet normal -0 0 1
    outer loop
      vertex 1.8541 -5.70634 4
      vertex 2.78115 -8.55951 4
      vertex 2.55468 -5.42896 4
    endloop
  endfacet
  facet normal 0 0 1
    outer loop
      vertex 1.8541 -5.70634 4
      vertex 1.68643 -8.84058 4
      vertex 2.78115 -8.55951 4
    endloop
  endfacet
  facet normal -0 0 1
    outer loop
      vertex 1.12429 -5.89372 4
      vertex 1.68643 -8.84058 4
      vertex 1.8541 -5.70634 4
    endloop
  endfacet
  facet normal 0 0 1
    outer loop
      vertex 1.12429 -5.89372 4
      vertex 0.565114 -8.98224 4
      vertex 1.68643 -8.84058 4
    endloop
  endfacet
  facet normal -0 0 1
    outer loop
      vertex 0.376742 -5.98816 4
      vertex 0.565114 -8.98224 4
      vertex 1.12429 -5.89372 4
    endloop
  endfacet
  facet normal -0 0 1
    outer loop
      vertex -0.376742 -5.98816 4
      vertex 0.565114 -8.98224 4
      vertex 0.376742 -5.98816 4
    endloop
  endfacet
  facet normal 0 0 1
    outer loop
      vertex -0.376742 -5.98816 4
      vertex -0.565114 -8.98224 4
      vertex 0.565114 -8.98224 4
    endloop
  endfacet
  facet normal 0 0 1
    outer loop
      vertex -1.12429 -5.89372 4
      vertex -0.565114 -8.98224 4
      vertex -0.376742 -5.98816 4
    endloop
  endfacet
  facet normal 0 0 1
    outer loop
      vertex -1.12429 -5.89372 4
      vertex -1.68643 -8.84058 4
      vertex -0.565114 -8.98224 4
    endloop
  endfacet
  facet normal 0 0 1
    outer loop
      vertex -1.8541 -5.70634 4
      vertex -1.68643 -8.84058 4
      vertex -1.12429 -5.89372 4
    endloop
  endfacet
  facet normal 0 0 1
    outer loop
      vertex -2.78115 -8.55951 4
      vertex -1.8541 -5.70634 4
      vertex -2.55468 -5.42896 4
    endloop
  endfacet
  facet normal 0 0 1
    outer loop
      vertex -1.8541 -5.70634 4
      vertex -2.78115 -8.55951 4
      vertex -1.68643 -8.84058 4
    endloop
  endfacet
  facet normal 0 0 1
    outer loop
      vertex -3.83201 -8.14344 4
      vertex -2.55468 -5.42896 4
      vertex -3.21496 -5.06597 4
    endloop
  endfacet
  facet normal 0 0 1
    outer loop
      vertex -4.82244 -7.59895 4
      vertex -3.21496 -5.06597 4
      vertex -3.82454 -4.62308 4
    endloop
  endfacet
  facet normal 0 0 1
    outer loop
      vertex -2.55468 -5.42896 4
      vertex -3.83201 -8.14344 4
      vertex -2.78115 -8.55951 4
    endloop
  endfacet
  facet normal 0 0 1
    outer loop
      vertex -5.73682 -6.93462 4
      vertex -3.82454 -4.62308 4
      vertex -4.37381 -4.10728 4
    endloop
  endfacet
  facet normal 0 0 1
    outer loop
      vertex -3.21496 -5.06597 4
      vertex -4.82244 -7.59895 4
      vertex -3.83201 -8.14344 4
    endloop
  endfacet
  facet normal 0 0 1
    outer loop
      vertex -6.56072 -6.16092 4
      vertex -4.37381 -4.10728 4
      vertex -4.8541 -3.52671 4
    endloop
  endfacet
  facet normal 0 0 1
    outer loop
      vertex -7.28115 -5.29007 4
      vertex -4.8541 -3.52671 4
      vertex -5.25784 -2.89052 4
    endloop
  endfacet
  facet normal 0 0 1
    outer loop
      vertex -7.88676 -4.33578 4
      vertex -5.25784 -2.89052 4
      vertex -5.57866 -2.20875 4
    endloop
  endfacet
  facet normal 0 0 1
    outer loop
      vertex -3.82454 -4.62308 4
      vertex -5.73682 -6.93462 4
      vertex -4.82244 -7.59895 4
    endloop
  endfacet
  facet normal 0 0 1
    outer loop
      vertex -8.36799 -3.31312 4
      vertex -5.57866 -2.20875 4
      vertex -5.8115 -1.49214 4
    endloop
  endfacet
  facet normal 0 0 1
    outer loop
      vertex -8.71725 -2.23821 4
      vertex -5.8115 -1.49214 4
      vertex -5.95269 -0.751999 4
    endloop
  endfacet
  facet normal 0 0 1
    outer loop
      vertex -8.92903 -1.128 4
      vertex -5.95269 -0.751999 4
      vertex -6 0 4
    endloop
  endfacet
  facet normal 0 0 1
    outer loop
      vertex -5.57866 2.20875 4
      vertex -8.36799 3.31312 4
      vertex -5.8115 1.49214 4
    endloop
  endfacet
  facet normal 0 0 1
    outer loop
      vertex -4.37381 -4.10728 4
      vertex -6.56072 -6.16092 4
      vertex -5.73682 -6.93462 4
    endloop
  endfacet
  facet normal -0 0 1
    outer loop
      vertex -8.71725 2.23821 4
      vertex -5.8115 1.49214 4
      vertex -8.36799 3.31312 4
    endloop
  endfacet
  facet normal 0 0 1
    outer loop
      vertex -4.8541 -3.52671 4
      vertex -7.28115 -5.29007 4
      vertex -6.56072 -6.16092 4
    endloop
  endfacet
  facet normal 0 0 1
    outer loop
      vertex -5.8115 1.49214 4
      vertex -8.71725 2.23821 4
      vertex -5.95269 0.751999 4
    endloop
  endfacet
  facet normal 0 0 1
    outer loop
      vertex -5.25784 -2.89052 4
      vertex -7.88676 -4.33578 4
      vertex -7.28115 -5.29007 4
    endloop
  endfacet
  facet normal -0 0 1
    outer loop
      vertex -8.92903 1.128 4
      vertex -5.95269 0.751999 4
      vertex -8.71725 2.23821 4
    endloop
  endfacet
  facet normal 0 0 1
    outer loop
      vertex -5.57866 -2.20875 4
      vertex -8.36799 -3.31312 4
      vertex -7.88676 -4.33578 4
    endloop
  endfacet
  facet normal 0 0 1
    outer loop
      vertex -5.95269 0.751999 4
      vertex -8.92903 1.128 4
      vertex -6 0 4
    endloop
  endfacet
  facet normal 0 0 1
    outer loop
      vertex -5.8115 -1.49214 4
      vertex -8.71725 -2.23821 4
      vertex -8.36799 -3.31312 4
    endloop
  endfacet
  facet normal 0 0 1
    outer loop
      vertex -9 0 4
      vertex -6 0 4
      vertex -8.92903 1.128 4
    endloop
  endfacet
  facet normal 0 0 1
    outer loop
      vertex -5.95269 -0.751999 4
      vertex -8.92903 -1.128 4
      vertex -8.71725 -2.23821 4
    endloop
  endfacet
  facet normal 0 0 1
    outer loop
      vertex -6 0 4
      vertex -9 0 4
      vertex -8.92903 -1.128 4
    endloop
  endfacet
  facet normal 0.904826 -0.425781 2.03247e-18
    outer loop
      vertex 7.88676 -4.33578 4
      vertex 8.36799 -3.31312 0
      vertex 8.36799 -3.31312 4
    endloop
  endfacet
  facet normal 0.904826 -0.425781 2.03247e-18
    outer loop
      vertex 8.36799 -3.31312 0
      vertex 7.88676 -4.33578 4
      vertex 7.88676 -4.33578 0
    endloop
  endfacet
  facet normal -0.248685 -0.968585 0
    outer loop
      vertex -2.78115 -8.55951 0
      vertex -1.68643 -8.84058 4
      vertex -2.78115 -8.55951 4
    endloop
  endfacet
  facet normal -0.248685 -0.968585 -0
    outer loop
      vertex -1.68643 -8.84058 4
      vertex -2.78115 -8.55951 0
      vertex -1.68643 -8.84058 0
    endloop
  endfacet
  facet normal -0.125337 -0.992114 0
    outer loop
      vertex -1.68643 -8.84058 0
      vertex -0.565114 -8.98224 4
      vertex -1.68643 -8.84058 4
    endloop
  endfacet
  facet normal -0.125337 -0.992114 -0
    outer loop
      vertex -0.565114 -8.98224 4
      vertex -1.68643 -8.84058 0
      vertex -0.565114 -8.98224 0
    endloop
  endfacet
  facet normal -0.998027 -0.0627925 -4.00198e-19
    outer loop
      vertex -8.92903 -1.128 0
      vertex -9 0 4
      vertex -9 0 0
    endloop
  endfacet
  facet normal -0.998027 -0.0627925 -4.00198e-19
    outer loop
      vertex -9 0 4
      vertex -8.92903 -1.128 0
      vertex -8.92903 -1.128 4
    endloop
  endfacet
  facet normal -0.982288 -0.187378 -2.02048e-18
    outer loop
      vertex -8.71725 -2.23821 0
      vertex -8.92903 -1.128 4
      vertex -8.92903 -1.128 0
    endloop
  endfacet
  facet normal -0.982288 -0.187378 -2.02048e-18
    outer loop
      vertex -8.92903 -1.128 4
      vertex -8.71725 -2.23821 0
      vertex -8.71725 -2.23821 4
    endloop
  endfacet
  facet normal -0.844328 -0.535826 1.1871e-17
    outer loop
      vertex -7.28115 -5.29007 0
      vertex -7.88676 -4.33578 4
      vertex -7.88676 -4.33578 0
    endloop
  endfacet
  facet normal -0.844328 -0.535826 1.1871e-17
    outer loop
      vertex -7.88676 -4.33578 4
      vertex -7.28115 -5.29007 0
      vertex -7.28115 -5.29007 4
    endloop
  endfacet
  facet normal -0.904826 -0.425781 -2.03247e-18
    outer loop
      vertex -7.88676 -4.33578 0
      vertex -8.36799 -3.31312 4
      vertex -8.36799 -3.31312 0
    endloop
  endfacet
  facet normal -0.904826 -0.425781 -2.03247e-18
    outer loop
      vertex -8.36799 -3.31312 4
      vertex -7.88676 -4.33578 0
      vertex -7.88676 -4.33578 4
    endloop
  endfacet
  facet normal 0.368128 -0.929775 0
    outer loop
      vertex 2.78115 -8.55951 0
      vertex 3.83201 -8.14344 4
      vertex 2.78115 -8.55951 4
    endloop
  endfacet
  facet normal 0.368128 -0.929775 0
    outer loop
      vertex 3.83201 -8.14344 4
      vertex 2.78115 -8.55951 0
      vertex 3.83201 -8.14344 0
    endloop
  endfacet
  facet normal 0.248685 -0.968585 0
    outer loop
      vertex 1.68643 -8.84058 0
      vertex 2.78115 -8.55951 4
      vertex 1.68643 -8.84058 4
    endloop
  endfacet
  facet normal 0.248685 -0.968585 0
    outer loop
      vertex 2.78115 -8.55951 4
      vertex 1.68643 -8.84058 0
      vertex 2.78115 -8.55951 0
    endloop
  endfacet
  facet normal 0.68455 -0.728966 0
    outer loop
      vertex 5.73682 -6.93462 0
      vertex 6.56072 -6.16092 4
      vertex 5.73682 -6.93462 4
    endloop
  endfacet
  facet normal 0.68455 -0.728966 0
    outer loop
      vertex 6.56072 -6.16092 4
      vertex 5.73682 -6.93462 0
      vertex 6.56072 -6.16092 0
    endloop
  endfacet
  facet normal 0.844328 -0.535826 -1.1871e-17
    outer loop
      vertex 7.28115 -5.29007 4
      vertex 7.88676 -4.33578 0
      vertex 7.88676 -4.33578 4
    endloop
  endfacet
  facet normal 0.844328 -0.535826 -1.1871e-17
    outer loop
      vertex 7.88676 -4.33578 0
      vertex 7.28115 -5.29007 4
      vertex 7.28115 -5.29007 0
    endloop
  endfacet
  facet normal -0.368128 -0.929775 0
    outer loop
      vertex -3.83201 -8.14344 0
      vertex -2.78115 -8.55951 4
      vertex -3.83201 -8.14344 4
    endloop
  endfacet
  facet normal -0.368128 -0.929775 -0
    outer loop
      vertex -2.78115 -8.55951 4
      vertex -3.83201 -8.14344 0
      vertex -2.78115 -8.55951 0
    endloop
  endfacet
  facet normal 0 -1 0
    outer loop
      vertex -0.565114 -8.98224 0
      vertex 0.565114 -8.98224 4
      vertex -0.565114 -8.98224 4
    endloop
  endfacet
  facet normal 0 -1 -0
    outer loop
      vertex 0.565114 -8.98224 4
      vertex -0.565114 -8.98224 0
      vertex 0.565114 -8.98224 0
    endloop
  endfacet
  facet normal 0 0 -1
    outer loop
      vertex 6 0 0
      vertex 9 0 0
      vertex 8.92903 -1.128 0
    endloop
  endfacet
  facet normal 0 0 -1
    outer loop
      vertex 5.95269 -0.751999 0
      vertex 8.92903 -1.128 0
      vertex 8.71725 -2.23821 0
    endloop
  endfacet
  facet normal 0 0 -1
    outer loop
      vertex 9 0 0
      vertex 6 0 0
      vertex 8.92903 1.128 0
    endloop
  endfacet
  facet normal 0 0 -1
    outer loop
      vertex 5.8115 -1.49214 0
      vertex 8.71725 -2.23821 0
      vertex 8.36799 -3.31312 0
    endloop
  endfacet
  facet normal 0 0 -1
    outer loop
      vertex 5.95269 0.751999 0
      vertex 8.92903 1.128 0
      vertex 6 0 0
    endloop
  endfacet
  facet normal 0 0 -1
    outer loop
      vertex 5.57866 -2.20875 0
      vertex 8.36799 -3.31312 0
      vertex 7.88676 -4.33578 0
    endloop
  endfacet
  facet normal -0 0 -1
    outer loop
      vertex 8.92903 1.128 0
      vertex 5.95269 0.751999 0
      vertex 8.71725 2.23821 0
    endloop
  endfacet
  facet normal 0 0 -1
    outer loop
      vertex 5.25784 -2.89052 0
      vertex 7.88676 -4.33578 0
      vertex 7.28115 -5.29007 0
    endloop
  endfacet
  facet normal 0 0 -1
    outer loop
      vertex 5.8115 1.49214 0
      vertex 8.71725 2.23821 0
      vertex 5.95269 0.751999 0
    endloop
  endfacet
  facet normal 0 0 -1
    outer loop
      vertex 4.8541 -3.52671 0
      vertex 7.28115 -5.29007 0
      vertex 6.56072 -6.16092 0
    endloop
  endfacet
  facet normal -0 0 -1
    outer loop
      vertex 8.71725 2.23821 0
      vertex 5.8115 1.49214 0
      vertex 8.36799 3.31312 0
    endloop
  endfacet
  facet normal 0 0 -1
    outer loop
      vertex 5.57866 2.20875 0
      vertex 8.36799 3.31312 0
      vertex 5.8115 1.49214 0
    endloop
  endfacet
  facet normal 0 0 -1
    outer loop
      vertex 8.92903 -1.128 0
      vertex 5.95269 -0.751999 0
      vertex 6 0 0
    endloop
  endfacet
  facet normal 0 0 -1
    outer loop
      vertex 8.71725 -2.23821 0
      vertex 5.8115 -1.49214 0
      vertex 5.95269 -0.751999 0
    endloop
  endfacet
  facet normal 0 0 -1
    outer loop
      vertex 4.37381 -4.10728 0
      vertex 6.56072 -6.16092 0
      vertex 5.73682 -6.93462 0
    endloop
  endfacet
  facet normal 0 0 -1
    outer loop
      vertex 8.36799 -3.31312 0
      vertex 5.57866 -2.20875 0
      vertex 5.8115 -1.49214 0
    endloop
  endfacet
  facet normal 0 0 -1
    outer loop
      vertex 7.88676 -4.33578 0
      vertex 5.25784 -2.89052 0
      vertex 5.57866 -2.20875 0
    endloop
  endfacet
  facet normal 0 0 -1
    outer loop
      vertex 7.28115 -5.29007 0
      vertex 4.8541 -3.52671 0
      vertex 5.25784 -2.89052 0
    endloop
  endfacet
  facet normal 0 0 -1
    outer loop
      vertex 3.82454 -4.62308 0
      vertex 5.73682 -6.93462 0
      vertex 4.82244 -7.59895 0
    endloop
  endfacet
  facet normal 0 0 -1
    outer loop
      vertex 6.56072 -6.16092 0
      vertex 4.37381 -4.10728 0
      vertex 4.8541 -3.52671 0
    endloop
  endfacet
  facet normal 0 0 -1
    outer loop
      vertex 3.21496 -5.06597 0
      vertex 4.82244 -7.59895 0
      vertex 3.83201 -8.14344 0
    endloop
  endfacet
  facet normal 0 0 -1
    outer loop
      vertex 5.73682 -6.93462 0
      vertex 3.82454 -4.62308 0
      vertex 4.37381 -4.10728 0
    endloop
  endfacet
  facet normal 0 0 -1
    outer loop
      vertex 4.82244 -7.59895 0
      vertex 3.21496 -5.06597 0
      vertex 3.82454 -4.62308 0
    endloop
  endfacet
  facet normal 0 0 -1
    outer loop
      vertex 2.55468 -5.42896 0
      vertex 3.83201 -8.14344 0
      vertex 2.78115 -8.55951 0
    endloop
  endfacet
  facet normal 0 0 -1
    outer loop
      vertex 3.83201 -8.14344 0
      vertex 2.55468 -5.42896 0
      vertex 3.21496 -5.06597 0
    endloop
  endfacet
  facet normal 0 0 -1
    outer loop
      vertex 2.78115 -8.55951 0
      vertex 1.8541 -5.70634 0
      vertex 2.55468 -5.42896 0
    endloop
  endfacet
  facet normal 0 0 -1
    outer loop
      vertex 1.68643 -8.84058 0
      vertex 1.8541 -5.70634 0
      vertex 2.78115 -8.55951 0
    endloop
  endfacet
  facet normal 0 0 -1
    outer loop
      vertex 1.68643 -8.84058 0
      vertex 1.12429 -5.89372 0
      vertex 1.8541 -5.70634 0
    endloop
  endfacet
  facet normal 0 0 -1
    outer loop
      vertex 0.565114 -8.98224 0
      vertex 1.12429 -5.89372 0
      vertex 1.68643 -8.84058 0
    endloop
  endfacet
  facet normal 0 0 -1
    outer loop
      vertex 0.565114 -8.98224 0
      vertex 0.376742 -5.98816 0
      vertex 1.12429 -5.89372 0
    endloop
  endfacet
  facet normal 0 0 -1
    outer loop
      vertex 0.565114 -8.98224 0
      vertex -0.376742 -5.98816 0
      vertex 0.376742 -5.98816 0
    endloop
  endfacet
  facet normal 0 0 -1
    outer loop
      vertex -0.565114 -8.98224 0
      vertex -0.376742 -5.98816 0
      vertex 0.565114 -8.98224 0
    endloop
  endfacet
  facet normal 0 0 -1
    outer loop
      vertex -0.565114 -8.98224 0
      vertex -1.12429 -5.89372 0
      vertex -0.376742 -5.98816 0
    endloop
  endfacet
  facet normal 0 0 -1
    outer loop
      vertex -1.68643 -8.84058 0
      vertex -1.12429 -5.89372 0
      vertex -0.565114 -8.98224 0
    endloop
  endfacet
  facet normal 0 0 -1
    outer loop
      vertex -1.68643 -8.84058 0
      vertex -1.8541 -5.70634 0
      vertex -1.12429 -5.89372 0
    endloop
  endfacet
  facet normal 0 0 -1
    outer loop
      vertex -2.78115 -8.55951 0
      vertex -1.8541 -5.70634 0
      vertex -1.68643 -8.84058 0
    endloop
  endfacet
  facet normal -0 0 -1
    outer loop
      vertex -1.8541 -5.70634 0
      vertex -2.78115 -8.55951 0
      vertex -2.55468 -5.42896 0
    endloop
  endfacet
  facet normal 0 0 -1
    outer loop
      vertex -3.83201 -8.14344 0
      vertex -2.55468 -5.42896 0
      vertex -2.78115 -8.55951 0
    endloop
  endfacet
  facet normal -0 0 -1
    outer loop
      vertex -2.55468 -5.42896 0
      vertex -3.83201 -8.14344 0
      vertex -3.21496 -5.06597 0
    endloop
  endfacet
  facet normal 0 0 -1
    outer loop
      vertex -4.82244 -7.59895 0
      vertex -3.21496 -5.06597 0
      vertex -3.83201 -8.14344 0
    endloop
  endfacet
  facet normal -0 0 -1
    outer loop
      vertex -3.21496 -5.06597 0
      vertex -4.82244 -7.59895 0
      vertex -3.82454 -4.62308 0
    endloop
  endfacet
  facet normal 0 0 -1
    outer loop
      vertex -5.73682 -6.93462 0
      vertex -3.82454 -4.62308 0
      vertex -4.82244 -7.59895 0
    endloop
  endfacet
  facet normal -0 0 -1
    outer loop
      vertex -3.82454 -4.62308 0
      vertex -5.73682 -6.93462 0
      vertex -4.37381 -4.10728 0
    endloop
  endfacet
  facet normal 0 0 -1
    outer loop
      vertex -6.56072 -6.16092 0
      vertex -4.37381 -4.10728 0
      vertex -5.73682 -6.93462 0
    endloop
  endfacet
  facet normal -0 0 -1
    outer loop
      vertex -4.37381 -4.10728 0
      vertex -6.56072 -6.16092 0
      vertex -4.8541 -3.52671 0
    endloop
  endfacet
  facet normal 0 0 -1
    outer loop
      vertex -7.28115 -5.29007 0
      vertex -4.8541 -3.52671 0
      vertex -6.56072 -6.16092 0
    endloop
  endfacet
  facet normal -0 0 -1
    outer loop
      vertex -4.8541 -3.52671 0
      vertex -7.28115 -5.29007 0
      vertex -5.25784 -2.89052 0
    endloop
  endfacet
  facet normal 0 0 -1
    outer loop
      vertex -7.88676 -4.33578 0
      vertex -5.25784 -2.89052 0
      vertex -7.28115 -5.29007 0
    endloop
  endfacet
  facet normal -0 0 -1
    outer loop
      vertex -5.25784 -2.89052 0
      vertex -7.88676 -4.33578 0
      vertex -5.57866 -2.20875 0
    endloop
  endfacet
  facet normal 0 0 -1
    outer loop
      vertex -8.36799 -3.31312 0
      vertex -5.57866 -2.20875 0
      vertex -7.88676 -4.33578 0
    endloop
  endfacet
  facet normal -0 0 -1
    outer loop
      vertex 8.36799 3.31312 0
      vertex 5.57866 2.20875 0
      vertex 7.88676 4.33578 0
    endloop
  endfacet
  facet normal 0 0 -1
    outer loop
      vertex 5.25784 2.89052 0
      vertex 7.88676 4.33578 0
      vertex 5.57866 2.20875 0
    endloop
  endfacet
  facet normal -0 0 -1
    outer loop
      vertex 7.88676 4.33578 0
      vertex 5.25784 2.89052 0
      vertex 7.28115 5.29007 0
    endloop
  endfacet
  facet normal 0 0 -1
    outer loop
      vertex 4.8541 3.52671 0
      vertex 7.28115 5.29007 0
      vertex 5.25784 2.89052 0
    endloop
  endfacet
  facet normal -0 0 -1
    outer loop
      vertex 7.28115 5.29007 0
      vertex 4.8541 3.52671 0
      vertex 6.56072 6.16092 0
    endloop
  endfacet
  facet normal 0 0 -1
    outer loop
      vertex 4.37381 4.10728 0
      vertex 6.56072 6.16092 0
      vertex 4.8541 3.52671 0
    endloop
  endfacet
  facet normal -0 0 -1
    outer loop
      vertex 6.56072 6.16092 0
      vertex 4.37381 4.10728 0
      vertex 5.73682 6.93462 0
    endloop
  endfacet
  facet normal 0 0 -1
    outer loop
      vertex 3.82454 4.62308 0
      vertex 5.73682 6.93462 0
      vertex 4.37381 4.10728 0
    endloop
  endfacet
  facet normal -0 0 -1
    outer loop
      vertex 5.73682 6.93462 0
      vertex 3.82454 4.62308 0
      vertex 4.82244 7.59895 0
    endloop
  endfacet
  facet normal 0 0 -1
    outer loop
      vertex 3.21496 5.06597 0
      vertex 4.82244 7.59895 0
      vertex 3.82454 4.62308 0
    endloop
  endfacet
  facet normal -0 0 -1
    outer loop
      vertex 4.82244 7.59895 0
      vertex 3.21496 5.06597 0
      vertex 3.83201 8.14344 0
    endloop
  endfacet
  facet normal 0 0 -1
    outer loop
      vertex 2.55468 5.42896 0
      vertex 3.83201 8.14344 0
      vertex 3.21496 5.06597 0
    endloop
  endfacet
  facet normal -0 0 -1
    outer loop
      vertex 3.83201 8.14344 0
      vertex 2.55468 5.42896 0
      vertex 2.78115 8.55951 0
    endloop
  endfacet
  facet normal 0 0 -1
    outer loop
      vertex 1.8541 5.70634 0
      vertex 2.78115 8.55951 0
      vertex 2.55468 5.42896 0
    endloop
  endfacet
  facet normal 0 0 -1
    outer loop
      vertex 1.8541 5.70634 0
      vertex 1.68643 8.84058 0
      vertex 2.78115 8.55951 0
    endloop
  endfacet
  facet normal 0 0 -1
    outer loop
      vertex 1.12429 5.89372 0
      vertex 1.68643 8.84058 0
      vertex 1.8541 5.70634 0
    endloop
  endfacet
  facet normal 0 0 -1
    outer loop
      vertex 1.12429 5.89372 0
      vertex 0.565114 8.98224 0
      vertex 1.68643 8.84058 0
    endloop
  endfacet
  facet normal 0 0 -1
    outer loop
      vertex 0.376742 5.98816 0
      vertex 0.565114 8.98224 0
      vertex 1.12429 5.89372 0
    endloop
  endfacet
  facet normal 0 0 -1
    outer loop
      vertex -0.376742 5.98816 0
      vertex 0.565114 8.98224 0
      vertex 0.376742 5.98816 0
    endloop
  endfacet
  facet normal 0 0 -1
    outer loop
      vertex -0.376742 5.98816 0
      vertex -0.565114 8.98224 0
      vertex 0.565114 8.98224 0
    endloop
  endfacet
  facet normal 0 0 -1
    outer loop
      vertex -1.12429 5.89372 0
      vertex -0.565114 8.98224 0
      vertex -0.376742 5.98816 0
    endloop
  endfacet
  facet normal 0 0 -1
    outer loop
      vertex -1.12429 5.89372 0
      vertex -1.68643 8.84058 0
      vertex -0.565114 8.98224 0
    endloop
  endfacet
  facet normal 0 0 -1
    outer loop
      vertex -1.8541 5.70634 0
      vertex -1.68643 8.84058 0
      vertex -1.12429 5.89372 0
    endloop
  endfacet
  facet normal 0 0 -1
    outer loop
      vertex -2.78115 8.55951 0
      vertex -1.8541 5.70634 0
      vertex -2.55468 5.42896 0
    endloop
  endfacet
  facet normal 0 0 -1
    outer loop
      vertex -1.8541 5.70634 0
      vertex -2.78115 8.55951 0
      vertex -1.68643 8.84058 0
    endloop
  endfacet
  facet normal 0 0 -1
    outer loop
      vertex -3.83201 8.14344 0
      vertex -2.55468 5.42896 0
      vertex -3.21496 5.06597 0
    endloop
  endfacet
  facet normal 0 0 -1
    outer loop
      vertex -4.82244 7.59895 0
      vertex -3.21496 5.06597 0
      vertex -3.82454 4.62308 0
    endloop
  endfacet
  facet normal 0 0 -1
    outer loop
      vertex -2.55468 5.42896 0
      vertex -3.83201 8.14344 0
      vertex -2.78115 8.55951 0
    endloop
  endfacet
  facet normal 0 0 -1
    outer loop
      vertex -5.73682 6.93462 0
      vertex -3.82454 4.62308 0
      vertex -4.37381 4.10728 0
    endloop
  endfacet
  facet normal 0 0 -1
    outer loop
      vertex -3.21496 5.06597 0
      vertex -4.82244 7.59895 0
      vertex -3.83201 8.14344 0
    endloop
  endfacet
  facet normal 0 0 -1
    outer loop
      vertex -6.56072 6.16092 0
      vertex -4.37381 4.10728 0
      vertex -4.8541 3.52671 0
    endloop
  endfacet
  facet normal 0 0 -1
    outer loop
      vertex -7.28115 5.29007 0
      vertex -4.8541 3.52671 0
      vertex -5.25784 2.89052 0
    endloop
  endfacet
  facet normal 0 0 -1
    outer loop
      vertex -7.88676 4.33578 0
      vertex -5.25784 2.89052 0
      vertex -5.57866 2.20875 0
    endloop
  endfacet
  facet normal 0 0 -1
    outer loop
      vertex -3.82454 4.62308 0
      vertex -5.73682 6.93462 0
      vertex -4.82244 7.59895 0
    endloop
  endfacet
  facet normal 0 0 -1
    outer loop
      vertex -8.36799 3.31312 0
      vertex -5.57866 2.20875 0
      vertex -5.8115 1.49214 0
    endloop
  endfacet
  facet normal 0 0 -1
    outer loop
      vertex -8.71725 2.23821 0
      vertex -5.8115 1.49214 0
      vertex -5.95269 0.751999 0
    endloop
  endfacet
  facet normal 0 0 -1
    outer loop
      vertex -8.92903 1.128 0
      vertex -5.95269 0.751999 0
      vertex -6 0 0
    endloop
  endfacet
  facet normal -0 0 -1
    outer loop
      vertex -5.57866 -2.20875 0
      vertex -8.36799 -3.31312 0
      vertex -5.8115 -1.49214 0
    endloop
  endfacet
  facet normal 0 0 -1
    outer loop
      vertex -4.37381 4.10728 0
      vertex -6.56072 6.16092 0
      vertex -5.73682 6.93462 0
    endloop
  endfacet
  facet normal 0 0 -1
    outer loop
      vertex -8.71725 -2.23821 0
      vertex -5.8115 -1.49214 0
      vertex -8.36799 -3.31312 0
    endloop
  endfacet
  facet normal 0 0 -1
    outer loop
      vertex -4.8541 3.52671 0
      vertex -7.28115 5.29007 0
      vertex -6.56072 6.16092 0
    endloop
  endfacet
  facet normal -0 0 -1
    outer loop
      vertex -5.8115 -1.49214 0
      vertex -8.71725 -2.23821 0
      vertex -5.95269 -0.751999 0
    endloop
  endfacet
  facet normal 0 0 -1
    outer loop
      vertex -5.25784 2.89052 0
      vertex -7.88676 4.33578 0
      vertex -7.28115 5.29007 0
    endloop
  endfacet
  facet normal 0 0 -1
    outer loop
      vertex -8.92903 -1.128 0
      vertex -5.95269 -0.751999 0
      vertex -8.71725 -2.23821 0
    endloop
  endfacet
  facet normal 0 0 -1
    outer loop
      vertex -5.57866 2.20875 0
      vertex -8.36799 3.31312 0
      vertex -7.88676 4.33578 0
    endloop
  endfacet
  facet normal -0 0 -1
    outer loop
      vertex -5.95269 -0.751999 0
      vertex -8.92903 -1.128 0
      vertex -6 0 0
    endloop
  endfacet
  facet normal 0 0 -1
    outer loop
      vertex -5.8115 1.49214 0
      vertex -8.71725 2.23821 0
      vertex -8.36799 3.31312 0
    endloop
  endfacet
  facet normal 0 0 -1
    outer loop
      vertex -9 0 0
      vertex -6 0 0
      vertex -8.92903 -1.128 0
    endloop
  endfacet
  facet normal 0 0 -1
    outer loop
      vertex -5.95269 0.751999 0
      vertex -8.92903 1.128 0
      vertex -8.71725 2.23821 0
    endloop
  endfacet
  facet normal 0 0 -1
    outer loop
      vertex -6 0 0
      vertex -9 0 0
      vertex -8.92903 1.128 0
    endloop
  endfacet
  facet normal -0.770513 -0.637424 4.44868e-18
    outer loop
      vertex -6.56072 -6.16092 0
      vertex -7.28115 -5.29007 4
      vertex -7.28115 -5.29007 0
    endloop
  endfacet
  facet normal -0.770513 -0.637424 4.44868e-18
    outer loop
      vertex -7.28115 -5.29007 4
      vertex -6.56072 -6.16092 0
      vertex -6.56072 -6.16092 4
    endloop
  endfacet
  facet normal -0.68455 -0.728966 0
    outer loop
      vertex -6.56072 -6.16092 0
      vertex -5.73682 -6.93462 4
      vertex -6.56072 -6.16092 4
    endloop
  endfacet
  facet normal -0.68455 -0.728966 -0
    outer loop
      vertex -5.73682 -6.93462 4
      vertex -6.56072 -6.16092 0
      vertex -5.73682 -6.93462 0
    endloop
  endfacet
  facet normal 0.770513 -0.637424 -4.44868e-18
    outer loop
      vertex 6.56072 -6.16092 4
      vertex 7.28115 -5.29007 0
      vertex 7.28115 -5.29007 4
    endloop
  endfacet
  facet normal 0.770513 -0.637424 -4.44868e-18
    outer loop
      vertex 7.28115 -5.29007 0
      vertex 6.56072 -6.16092 4
      vertex 6.56072 -6.16092 0
    endloop
  endfacet
  facet normal 0.587782 -0.80902 0
    outer loop
      vertex 4.82244 -7.59895 0
      vertex 5.73682 -6.93462 4
      vertex 4.82244 -7.59895 4
    endloop
  endfacet
  facet normal 0.587782 -0.80902 0
    outer loop
      vertex 5.73682 -6.93462 4
      vertex 4.82244 -7.59895 0
      vertex 5.73682 -6.93462 0
    endloop
  endfacet
  facet normal -0.951056 -0.309017 6.41517e-19
    outer loop
      vertex -8.36799 -3.31312 0
      vertex -8.71725 -2.23821 4
      vertex -8.71725 -2.23821 0
    endloop
  endfacet
  facet normal -0.951056 -0.309017 6.41517e-19
    outer loop
      vertex -8.71725 -2.23821 4
      vertex -8.36799 -3.31312 0
      vertex -8.36799 -3.31312 4
    endloop
  endfacet
  facet normal -0.481751 -0.876308 0
    outer loop
      vertex -4.82244 -7.59895 0
      vertex -3.83201 -8.14344 4
      vertex -4.82244 -7.59895 4
    endloop
  endfacet
  facet normal -0.481751 -0.876308 -0
    outer loop
      vertex -3.83201 -8.14344 4
      vertex -4.82244 -7.59895 0
      vertex -3.83201 -8.14344 0
    endloop
  endfacet
  facet normal -0.587782 -0.80902 0
    outer loop
      vertex -5.73682 -6.93462 0
      vertex -4.82244 -7.59895 4
      vertex -5.73682 -6.93462 4
    endloop
  endfacet
  facet normal -0.587782 -0.80902 -0
    outer loop
      vertex -4.82244 -7.59895 4
      vertex -5.73682 -6.93462 0
      vertex -4.82244 -7.59895 0
    endloop
  endfacet
  facet normal -0.998027 -0.0627882 -1.04209e-18
    outer loop
      vertex 6 0 0
      vertex 5.95269 0.751999 4
      vertex 5.95269 0.751999 0
    endloop
  endfacet
  facet normal -0.998027 -0.0627882 -1.04209e-18
    outer loop
      vertex 5.95269 0.751999 4
      vertex 6 0 0
      vertex 6 0 4
    endloop
  endfacet
  facet normal 0.998027 -0.0627882 1.04209e-18
    outer loop
      vertex -6 0 4
      vertex -5.95269 0.751999 0
      vertex -5.95269 0.751999 4
    endloop
  endfacet
  facet normal 0.998027 -0.0627882 1.04209e-18
    outer loop
      vertex -5.95269 0.751999 0
      vertex -6 0 4
      vertex -6 0 0
    endloop
  endfacet
  facet normal 0 -1 0
    outer loop
      vertex -0.376742 5.98816 0
      vertex 0.376742 5.98816 4
      vertex -0.376742 5.98816 4
    endloop
  endfacet
  facet normal 0 -1 -0
    outer loop
      vertex 0.376742 5.98816 4
      vertex -0.376742 5.98816 0
      vertex 0.376742 5.98816 0
    endloop
  endfacet
  facet normal 0 1 -0
    outer loop
      vertex 0.376742 -5.98816 0
      vertex -0.376742 -5.98816 4
      vertex 0.376742 -5.98816 4
    endloop
  endfacet
  facet normal 0 1 0
    outer loop
      vertex -0.376742 -5.98816 4
      vertex 0.376742 -5.98816 0
      vertex -0.376742 -5.98816 0
    endloop
  endfacet
  facet normal -0.684548 -0.728968 0
    outer loop
      vertex 3.82454 4.62308 0
      vertex 4.37381 4.10728 4
      vertex 3.82454 4.62308 4
    endloop
  endfacet
  facet normal -0.684548 -0.728968 -0
    outer loop
      vertex 4.37381 4.10728 4
      vertex 3.82454 4.62308 0
      vertex 4.37381 4.10728 0
    endloop
  endfacet
  facet normal 0.684548 -0.728968 0
    outer loop
      vertex -4.37381 4.10728 0
      vertex -3.82454 4.62308 4
      vertex -4.37381 4.10728 4
    endloop
  endfacet
  facet normal 0.684548 -0.728968 0
    outer loop
      vertex -3.82454 4.62308 4
      vertex -4.37381 4.10728 0
      vertex -3.82454 4.62308 0
    endloop
  endfacet
  facet normal 0.368125 -0.929776 0
    outer loop
      vertex -2.55468 5.42896 0
      vertex -1.8541 5.70634 4
      vertex -2.55468 5.42896 4
    endloop
  endfacet
  facet normal 0.368125 -0.929776 0
    outer loop
      vertex -1.8541 5.70634 4
      vertex -2.55468 5.42896 0
      vertex -1.8541 5.70634 0
    endloop
  endfacet
  facet normal -0.904825 -0.425783 -3.85361e-18
    outer loop
      vertex 5.57866 2.20875 0
      vertex 5.25784 2.89052 4
      vertex 5.25784 2.89052 0
    endloop
  endfacet
  facet normal -0.904825 -0.425783 -3.85361e-18
    outer loop
      vertex 5.25784 2.89052 4
      vertex 5.57866 2.20875 0
      vertex 5.57866 2.20875 4
    endloop
  endfacet
  facet normal -0.982287 -0.187382 1.92454e-18
    outer loop
      vertex 5.95269 0.751999 0
      vertex 5.8115 1.49214 4
      vertex 5.8115 1.49214 0
    endloop
  endfacet
  facet normal -0.982287 -0.187382 1.92454e-18
    outer loop
      vertex 5.8115 1.49214 4
      vertex 5.95269 0.751999 0
      vertex 5.95269 0.751999 4
    endloop
  endfacet
  facet normal -0.368125 -0.929776 0
    outer loop
      vertex 1.8541 5.70634 0
      vertex 2.55468 5.42896 4
      vertex 1.8541 5.70634 4
    endloop
  endfacet
  facet normal -0.368125 -0.929776 -0
    outer loop
      vertex 2.55468 5.42896 4
      vertex 1.8541 5.70634 0
      vertex 2.55468 5.42896 0
    endloop
  endfacet
  facet normal -0.248686 -0.968584 0
    outer loop
      vertex 1.12429 5.89372 0
      vertex 1.8541 5.70634 4
      vertex 1.12429 5.89372 4
    endloop
  endfacet
  facet normal -0.248686 -0.968584 -0
    outer loop
      vertex 1.8541 5.70634 4
      vertex 1.12429 5.89372 0
      vertex 1.8541 5.70634 0
    endloop
  endfacet
  facet normal -0.481752 -0.876308 0
    outer loop
      vertex 2.55468 5.42896 0
      vertex 3.21496 5.06597 4
      vertex 2.55468 5.42896 4
    endloop
  endfacet
  facet normal -0.481752 -0.876308 -0
    outer loop
      vertex 3.21496 5.06597 4
      vertex 2.55468 5.42896 0
      vertex 3.21496 5.06597 0
    endloop
  endfacet
  facet normal 0.904825 -0.425783 3.85361e-18
    outer loop
      vertex -5.57866 2.20875 4
      vertex -5.25784 2.89052 0
      vertex -5.25784 2.89052 4
    endloop
  endfacet
  facet normal 0.904825 -0.425783 3.85361e-18
    outer loop
      vertex -5.25784 2.89052 0
      vertex -5.57866 2.20875 4
      vertex -5.57866 2.20875 0
    endloop
  endfacet
  facet normal 0.844327 -0.535828 8.7234e-18
    outer loop
      vertex -5.25784 2.89052 4
      vertex -4.8541 3.52671 0
      vertex -4.8541 3.52671 4
    endloop
  endfacet
  facet normal 0.844327 -0.535828 8.7234e-18
    outer loop
      vertex -4.8541 3.52671 0
      vertex -5.25784 2.89052 4
      vertex -5.25784 2.89052 0
    endloop
  endfacet
  facet normal 0.951057 -0.309016 -1.13764e-18
    outer loop
      vertex -5.8115 1.49214 4
      vertex -5.57866 2.20875 0
      vertex -5.57866 2.20875 4
    endloop
  endfacet
  facet normal 0.951057 -0.309016 -1.13764e-18
    outer loop
      vertex -5.57866 2.20875 0
      vertex -5.8115 1.49214 4
      vertex -5.8115 1.49214 0
    endloop
  endfacet
  facet normal 0.587789 -0.809014 0
    outer loop
      vertex -3.82454 4.62308 0
      vertex -3.21496 5.06597 4
      vertex -3.82454 4.62308 4
    endloop
  endfacet
  facet normal 0.587789 -0.809014 0
    outer loop
      vertex -3.21496 5.06597 4
      vertex -3.82454 4.62308 0
      vertex -3.21496 5.06597 0
    endloop
  endfacet
  facet normal 0.125337 -0.992114 0
    outer loop
      vertex -1.12429 5.89372 0
      vertex -0.376742 5.98816 4
      vertex -1.12429 5.89372 4
    endloop
  endfacet
  facet normal 0.125337 -0.992114 0
    outer loop
      vertex -0.376742 5.98816 4
      vertex -1.12429 5.89372 0
      vertex -0.376742 5.98816 0
    endloop
  endfacet
  facet normal -0.951057 0.309016 -1.13764e-18
    outer loop
      vertex 5.57866 -2.20875 0
      vertex 5.8115 -1.49214 4
      vertex 5.8115 -1.49214 0
    endloop
  endfacet
  facet normal -0.951057 0.309016 -1.13764e-18
    outer loop
      vertex 5.8115 -1.49214 4
      vertex 5.57866 -2.20875 0
      vertex 5.57866 -2.20875 4
    endloop
  endfacet
  facet normal -0.125337 0.992114 0
    outer loop
      vertex 1.12429 -5.89372 0
      vertex 0.376742 -5.98816 4
      vertex 1.12429 -5.89372 4
    endloop
  endfacet
  facet normal -0.125337 0.992114 0
    outer loop
      vertex 0.376742 -5.98816 4
      vertex 1.12429 -5.89372 0
      vertex 0.376742 -5.98816 0
    endloop
  endfacet
  facet normal -0.951057 -0.309016 1.13764e-18
    outer loop
      vertex 5.8115 1.49214 0
      vertex 5.57866 2.20875 4
      vertex 5.57866 2.20875 0
    endloop
  endfacet
  facet normal -0.951057 -0.309016 1.13764e-18
    outer loop
      vertex 5.57866 2.20875 4
      vertex 5.8115 1.49214 0
      vertex 5.8115 1.49214 4
    endloop
  endfacet
  facet normal -0.770513 -0.637425 7.25753e-18
    outer loop
      vertex 4.8541 3.52671 0
      vertex 4.37381 4.10728 4
      vertex 4.37381 4.10728 0
    endloop
  endfacet
  facet normal -0.770513 -0.637425 7.25753e-18
    outer loop
      vertex 4.37381 4.10728 4
      vertex 4.8541 3.52671 0
      vertex 4.8541 3.52671 4
    endloop
  endfacet
  facet normal -0.844327 -0.535828 -8.7234e-18
    outer loop
      vertex 5.25784 2.89052 0
      vertex 4.8541 3.52671 4
      vertex 4.8541 3.52671 0
    endloop
  endfacet
  facet normal -0.844327 -0.535828 -8.7234e-18
    outer loop
      vertex 4.8541 3.52671 4
      vertex 5.25784 2.89052 0
      vertex 5.25784 2.89052 4
    endloop
  endfacet
  facet normal -0.125337 -0.992114 0
    outer loop
      vertex 0.376742 5.98816 0
      vertex 1.12429 5.89372 4
      vertex 0.376742 5.98816 4
    endloop
  endfacet
  facet normal -0.125337 -0.992114 -0
    outer loop
      vertex 1.12429 5.89372 4
      vertex 0.376742 5.98816 0
      vertex 1.12429 5.89372 0
    endloop
  endfacet
  facet normal -0.587789 -0.809014 0
    outer loop
      vertex 3.21496 5.06597 0
      vertex 3.82454 4.62308 4
      vertex 3.21496 5.06597 4
    endloop
  endfacet
  facet normal -0.587789 -0.809014 -0
    outer loop
      vertex 3.82454 4.62308 4
      vertex 3.21496 5.06597 0
      vertex 3.82454 4.62308 0
    endloop
  endfacet
  facet normal 0.770513 -0.637425 -7.25753e-18
    outer loop
      vertex -4.8541 3.52671 4
      vertex -4.37381 4.10728 0
      vertex -4.37381 4.10728 4
    endloop
  endfacet
  facet normal 0.770513 -0.637425 -7.25753e-18
    outer loop
      vertex -4.37381 4.10728 0
      vertex -4.8541 3.52671 4
      vertex -4.8541 3.52671 0
    endloop
  endfacet
  facet normal 0.982287 -0.187382 -1.92454e-18
    outer loop
      vertex -5.95269 0.751999 4
      vertex -5.8115 1.49214 0
      vertex -5.8115 1.49214 4
    endloop
  endfacet
  facet normal 0.982287 -0.187382 -1.92454e-18
    outer loop
      vertex -5.8115 1.49214 0
      vertex -5.95269 0.751999 4
      vertex -5.95269 0.751999 0
    endloop
  endfacet
  facet normal 0.248686 -0.968584 0
    outer loop
      vertex -1.8541 5.70634 0
      vertex -1.12429 5.89372 4
      vertex -1.8541 5.70634 4
    endloop
  endfacet
  facet normal 0.248686 -0.968584 0
    outer loop
      vertex -1.12429 5.89372 4
      vertex -1.8541 5.70634 0
      vertex -1.12429 5.89372 0
    endloop
  endfacet
  facet normal -0.998027 0.0627882 1.04209e-18
    outer loop
      vertex 5.95269 -0.751999 0
      vertex 6 0 4
      vertex 6 0 0
    endloop
  endfacet
  facet normal -0.998027 0.0627882 1.04209e-18
    outer loop
      vertex 6 0 4
      vertex 5.95269 -0.751999 0
      vertex 5.95269 -0.751999 4
    endloop
  endfacet
  facet normal -0.684548 0.728968 0
    outer loop
      vertex 4.37381 -4.10728 0
      vertex 3.82454 -4.62308 4
      vertex 4.37381 -4.10728 4
    endloop
  endfacet
  facet normal -0.684548 0.728968 0
    outer loop
      vertex 3.82454 -4.62308 4
      vertex 4.37381 -4.10728 0
      vertex 3.82454 -4.62308 0
    endloop
  endfacet
  facet normal -0.982287 0.187382 -1.92454e-18
    outer loop
      vertex 5.8115 -1.49214 0
      vertex 5.95269 -0.751999 4
      vertex 5.95269 -0.751999 0
    endloop
  endfacet
  facet normal -0.982287 0.187382 -1.92454e-18
    outer loop
      vertex 5.95269 -0.751999 4
      vertex 5.8115 -1.49214 0
      vertex 5.8115 -1.49214 4
    endloop
  endfacet
  facet normal 0.904825 0.425783 -3.85361e-18
    outer loop
      vertex -5.25784 -2.89052 4
      vertex -5.57866 -2.20875 0
      vertex -5.57866 -2.20875 4
    endloop
  endfacet
  facet normal 0.904825 0.425783 -3.85361e-18
    outer loop
      vertex -5.57866 -2.20875 0
      vertex -5.25784 -2.89052 4
      vertex -5.25784 -2.89052 0
    endloop
  endfacet
  facet normal -0.368125 0.929776 0
    outer loop
      vertex 2.55468 -5.42896 0
      vertex 1.8541 -5.70634 4
      vertex 2.55468 -5.42896 4
    endloop
  endfacet
  facet normal -0.368125 0.929776 0
    outer loop
      vertex 1.8541 -5.70634 4
      vertex 2.55468 -5.42896 0
      vertex 1.8541 -5.70634 0
    endloop
  endfacet
  facet normal 0.481752 -0.876308 0
    outer loop
      vertex -3.21496 5.06597 0
      vertex -2.55468 5.42896 4
      vertex -3.21496 5.06597 4
    endloop
  endfacet
  facet normal 0.481752 -0.876308 0
    outer loop
      vertex -2.55468 5.42896 4
      vertex -3.21496 5.06597 0
      vertex -2.55468 5.42896 0
    endloop
  endfacet
  facet normal -0.481752 0.876308 0
    outer loop
      vertex 3.21496 -5.06597 0
      vertex 2.55468 -5.42896 4
      vertex 3.21496 -5.06597 4
    endloop
  endfacet
  facet normal -0.481752 0.876308 0
    outer loop
      vertex 2.55468 -5.42896 4
      vertex 3.21496 -5.06597 0
      vertex 2.55468 -5.42896 0
    endloop
  endfacet
  facet normal -0.904825 0.425783 3.85361e-18
    outer loop
      vertex 5.25784 -2.89052 0
      vertex 5.57866 -2.20875 4
      vertex 5.57866 -2.20875 0
    endloop
  endfacet
  facet normal -0.904825 0.425783 3.85361e-18
    outer loop
      vertex 5.57866 -2.20875 4
      vertex 5.25784 -2.89052 0
      vertex 5.25784 -2.89052 4
    endloop
  endfacet
  facet normal -0.770513 0.637425 -7.25753e-18
    outer loop
      vertex 4.37381 -4.10728 0
      vertex 4.8541 -3.52671 4
      vertex 4.8541 -3.52671 0
    endloop
  endfacet
  facet normal -0.770513 0.637425 -7.25753e-18
    outer loop
      vertex 4.8541 -3.52671 4
      vertex 4.37381 -4.10728 0
      vertex 4.37381 -4.10728 4
    endloop
  endfacet
  facet normal 0.951057 0.309016 1.13764e-18
    outer loop
      vertex -5.57866 -2.20875 4
      vertex -5.8115 -1.49214 0
      vertex -5.8115 -1.49214 4
    endloop
  endfacet
  facet normal 0.951057 0.309016 1.13764e-18
    outer loop
      vertex -5.8115 -1.49214 0
      vertex -5.57866 -2.20875 4
      vertex -5.57866 -2.20875 0
    endloop
  endfacet
  facet normal 0.998027 0.0627882 -1.04209e-18
    outer loop
      vertex -5.95269 -0.751999 4
      vertex -6 0 0
      vertex -6 0 4
    endloop
  endfacet
  facet normal 0.998027 0.0627882 -1.04209e-18
    outer loop
      vertex -6 0 0
      vertex -5.95269 -0.751999 4
      vertex -5.95269 -0.751999 0
    endloop
  endfacet
  facet normal -0.248686 0.968584 0
    outer loop
      vertex 1.8541 -5.70634 0
      vertex 1.12429 -5.89372 4
      vertex 1.8541 -5.70634 4
    endloop
  endfacet
  facet normal -0.248686 0.968584 0
    outer loop
      vertex 1.12429 -5.89372 4
      vertex 1.8541 -5.70634 0
      vertex 1.12429 -5.89372 0
    endloop
  endfacet
  facet normal -0.587789 0.809014 0
    outer loop
      vertex 3.82454 -4.62308 0
      vertex 3.21496 -5.06597 4
      vertex 3.82454 -4.62308 4
    endloop
  endfacet
  facet normal -0.587789 0.809014 0
    outer loop
      vertex 3.21496 -5.06597 4
      vertex 3.82454 -4.62308 0
      vertex 3.21496 -5.06597 0
    endloop
  endfacet
  facet normal -0.844327 0.535828 8.7234e-18
    outer loop
      vertex 4.8541 -3.52671 0
      vertex 5.25784 -2.89052 4
      vertex 5.25784 -2.89052 0
    endloop
  endfacet
  facet normal -0.844327 0.535828 8.7234e-18
    outer loop
      vertex 5.25784 -2.89052 4
      vertex 4.8541 -3.52671 0
      vertex 4.8541 -3.52671 4
    endloop
  endfacet
  facet normal 0.125337 0.992114 -0
    outer loop
      vertex -0.376742 -5.98816 0
      vertex -1.12429 -5.89372 4
      vertex -0.376742 -5.98816 4
    endloop
  endfacet
  facet normal 0.125337 0.992114 0
    outer loop
      vertex -1.12429 -5.89372 4
      vertex -0.376742 -5.98816 0
      vertex -1.12429 -5.89372 0
    endloop
  endfacet
  facet normal 0.684548 0.728968 -0
    outer loop
      vertex -3.82454 -4.62308 0
      vertex -4.37381 -4.10728 4
      vertex -3.82454 -4.62308 4
    endloop
  endfacet
  facet normal 0.684548 0.728968 0
    outer loop
      vertex -4.37381 -4.10728 4
      vertex -3.82454 -4.62308 0
      vertex -4.37381 -4.10728 0
    endloop
  endfacet
  facet normal 0.248686 0.968584 -0
    outer loop
      vertex -1.12429 -5.89372 0
      vertex -1.8541 -5.70634 4
      vertex -1.12429 -5.89372 4
    endloop
  endfacet
  facet normal 0.248686 0.968584 0
    outer loop
      vertex -1.8541 -5.70634 4
      vertex -1.12429 -5.89372 0
      vertex -1.8541 -5.70634 0
    endloop
  endfacet
  facet normal 0.770513 0.637425 7.25753e-18
    outer loop
      vertex -4.37381 -4.10728 4
      vertex -4.8541 -3.52671 0
      vertex -4.8541 -3.52671 4
    endloop
  endfacet
  facet normal 0.770513 0.637425 7.25753e-18
    outer loop
      vertex -4.8541 -3.52671 0
      vertex -4.37381 -4.10728 4
      vertex -4.37381 -4.10728 0
    endloop
  endfacet
  facet normal 0.844327 0.535828 -8.7234e-18
    outer loop
      vertex -4.8541 -3.52671 4
      vertex -5.25784 -2.89052 0
      vertex -5.25784 -2.89052 4
    endloop
  endfacet
  facet normal 0.844327 0.535828 -8.7234e-18
    outer loop
      vertex -5.25784 -2.89052 0
      vertex -4.8541 -3.52671 4
      vertex -4.8541 -3.52671 0
    endloop
  endfacet
  facet normal 0.982287 0.187382 1.92454e-18
    outer loop
      vertex -5.8115 -1.49214 4
      vertex -5.95269 -0.751999 0
      vertex -5.95269 -0.751999 4
    endloop
  endfacet
  facet normal 0.982287 0.187382 1.92454e-18
    outer loop
      vertex -5.95269 -0.751999 0
      vertex -5.8115 -1.49214 4
      vertex -5.8115 -1.49214 0
    endloop
  endfacet
  facet normal 0.587789 0.809014 -0
    outer loop
      vertex -3.21496 -5.06597 0
      vertex -3.82454 -4.62308 4
      vertex -3.21496 -5.06597 4
    endloop
  endfacet
  facet normal 0.587789 0.809014 0
    outer loop
      vertex -3.82454 -4.62308 4
      vertex -3.21496 -5.06597 0
      vertex -3.82454 -4.62308 0
    endloop
  endfacet
  facet normal 0.368125 0.929776 -0
    outer loop
      vertex -1.8541 -5.70634 0
      vertex -2.55468 -5.42896 4
      vertex -1.8541 -5.70634 4
    endloop
  endfacet
  facet normal 0.368125 0.929776 0
    outer loop
      vertex -2.55468 -5.42896 4
      vertex -1.8541 -5.70634 0
      vertex -2.55468 -5.42896 0
    endloop
  endfacet
  facet normal 0.481752 0.876308 -0
    outer loop
      vertex -2.55468 -5.42896 0
      vertex -3.21496 -5.06597 4
      vertex -2.55468 -5.42896 4
    endloop
  endfacet
  facet normal 0.481752 0.876308 0
    outer loop
      vertex -3.21496 -5.06597 4
      vertex -2.55468 -5.42896 0
      vertex -3.21496 -5.06597 0
    endloop
  endfacet
endsolid OpenSCAD_Model
