  0
SECTION
  2
BLOCKS
  0
ENDSEC
  0
SECTION
  2
ENTITIES
  0
LINE
  8
0
 10
7.1869
 20
63.0886
 11
7.79507
 21
63.2447
  0
LINE
  8
0
 10
7.79507
 20
63.2447
 11
8.37889
 21
63.4759
  0
LINE
  8
0
 10
8.37889
 20
63.4759
 11
8.92912
 21
63.7784
  0
LINE
  8
0
 10
8.92912
 20
63.7784
 11
9.43712
 21
64.1474
  0
LINE
  8
0
 10
9.43712
 20
64.1474
 11
9.89484
 21
64.5773
  0
LINE
  8
0
 10
9.89484
 20
64.5773
 11
10.2951
 21
65.0611
  0
LINE
  8
0
 10
10.2951
 20
65.0611
 11
10.6315
 21
65.5912
  0
LINE
  8
0
 10
10.6315
 20
65.5912
 11
10.8989
 21
66.1594
  0
LINE
  8
0
 10
10.8989
 20
66.1594
 11
11.0929
 21
66.7566
  0
LINE
  8
0
 10
11.0929
 20
66.7566
 11
11.2106
 21
67.3733
  0
LINE
  8
0
 10
11.2106
 20
67.3733
 11
11.25
 21
68
  0
LINE
  8
0
 10
11.25
 20
68
 11
11.25
 21
88
  0
LINE
  8
0
 10
11.25
 20
88
 11
11.2106
 21
88.6267
  0
LINE
  8
0
 10
11.2106
 20
88.6267
 11
11.0929
 21
89.2434
  0
LINE
  8
0
 10
11.0929
 20
89.2434
 11
10.8989
 21
89.8406
  0
LINE
  8
0
 10
10.8989
 20
89.8406
 11
10.6315
 21
90.4088
  0
LINE
  8
0
 10
10.6315
 20
90.4088
 11
10.2951
 21
90.9389
  0
LINE
  8
0
 10
10.2951
 20
90.9389
 11
9.89484
 21
91.4227
  0
LINE
  8
0
 10
9.89484
 20
91.4227
 11
9.43712
 21
91.8526
  0
LINE
  8
0
 10
9.43712
 20
91.8526
 11
8.92912
 21
92.2216
  0
LINE
  8
0
 10
8.92912
 20
92.2216
 11
8.37889
 21
92.5241
  0
LINE
  8
0
 10
8.37889
 20
92.5241
 11
7.79507
 21
92.7553
  0
LINE
  8
0
 10
7.79507
 20
92.7553
 11
7.1869
 21
92.9114
  0
LINE
  8
0
 10
7.1869
 20
92.9114
 11
6.56395
 21
92.9901
  0
LINE
  8
0
 10
6.56395
 20
92.9901
 11
-6.56395
 21
92.9901
  0
LINE
  8
0
 10
-6.56395
 20
92.9901
 11
-7.1869
 21
92.9114
  0
LINE
  8
0
 10
-7.1869
 20
92.9114
 11
-7.79507
 21
92.7553
  0
LINE
  8
0
 10
-7.79507
 20
92.7553
 11
-8.37889
 21
92.5241
  0
LINE
  8
0
 10
-8.37889
 20
92.5241
 11
-8.92912
 21
92.2216
  0
LINE
  8
0
 10
-8.92912
 20
92.2216
 11
-9.43712
 21
91.8526
  0
LINE
  8
0
 10
-9.43712
 20
91.8526
 11
-9.89484
 21
91.4227
  0
LINE
  8
0
 10
-9.89484
 20
91.4227
 11
-10.2951
 21
90.9389
  0
LINE
  8
0
 10
-10.2951
 20
90.9389
 11
-10.6315
 21
90.4088
  0
LINE
  8
0
 10
-10.6315
 20
90.4088
 11
-10.8989
 21
89.8406
  0
LINE
  8
0
 10
-10.8989
 20
89.8406
 11
-11.0929
 21
89.2434
  0
LINE
  8
0
 10
-11.0929
 20
89.2434
 11
-11.2106
 21
88.6267
  0
LINE
  8
0
 10
-11.2106
 20
88.6267
 11
-11.25
 21
88
  0
LINE
  8
0
 10
-11.25
 20
88
 11
-11.25
 21
68
  0
LINE
  8
0
 10
-11.25
 20
68
 11
-11.2106
 21
67.3733
  0
LINE
  8
0
 10
-11.2106
 20
67.3733
 11
-11.0929
 21
66.7566
  0
LINE
  8
0
 10
-11.0929
 20
66.7566
 11
-10.8989
 21
66.1594
  0
LINE
  8
0
 10
-10.8989
 20
66.1594
 11
-10.6315
 21
65.5912
  0
LINE
  8
0
 10
-10.6315
 20
65.5912
 11
-10.2951
 21
65.0611
  0
LINE
  8
0
 10
-10.2951
 20
65.0611
 11
-9.89484
 21
64.5773
  0
LINE
  8
0
 10
-9.89484
 20
64.5773
 11
-9.43712
 21
64.1474
  0
LINE
  8
0
 10
-9.43712
 20
64.1474
 11
-8.92912
 21
63.7784
  0
LINE
  8
0
 10
-8.92912
 20
63.7784
 11
-8.37889
 21
63.4759
  0
LINE
  8
0
 10
-8.37889
 20
63.4759
 11
-7.79507
 21
63.2447
  0
LINE
  8
0
 10
-7.79507
 20
63.2447
 11
-7.1869
 21
63.0886
  0
LINE
  8
0
 10
-7.1869
 20
63.0886
 11
-6.56395
 21
63.0099
  0
LINE
  8
0
 10
-6.56395
 20
63.0099
 11
6.56395
 21
63.0099
  0
LINE
  8
0
 10
6.56395
 20
63.0099
 11
7.1869
 21
63.0886
  0
LINE
  8
0
 10
7.1869
 20
24.0886
 11
7.79507
 21
24.2447
  0
LINE
  8
0
 10
7.79507
 20
24.2447
 11
8.37889
 21
24.4759
  0
LINE
  8
0
 10
8.37889
 20
24.4759
 11
8.92912
 21
24.7784
  0
LINE
  8
0
 10
8.92912
 20
24.7784
 11
9.43712
 21
25.1474
  0
LINE
  8
0
 10
9.43712
 20
25.1474
 11
9.89484
 21
25.5773
  0
LINE
  8
0
 10
9.89484
 20
25.5773
 11
10.2951
 21
26.0611
  0
LINE
  8
0
 10
10.2951
 20
26.0611
 11
10.6315
 21
26.5912
  0
LINE
  8
0
 10
10.6315
 20
26.5912
 11
10.8989
 21
27.1594
  0
LINE
  8
0
 10
10.8989
 20
27.1594
 11
11.0929
 21
27.7566
  0
LINE
  8
0
 10
11.0929
 20
27.7566
 11
11.2106
 21
28.3733
  0
LINE
  8
0
 10
11.2106
 20
28.3733
 11
11.25
 21
29
  0
LINE
  8
0
 10
11.25
 20
29
 11
11.25
 21
49
  0
LINE
  8
0
 10
11.25
 20
49
 11
11.2106
 21
49.6267
  0
LINE
  8
0
 10
11.2106
 20
49.6267
 11
11.0929
 21
50.2434
  0
LINE
  8
0
 10
11.0929
 20
50.2434
 11
10.8989
 21
50.8406
  0
LINE
  8
0
 10
10.8989
 20
50.8406
 11
10.6315
 21
51.4088
  0
LINE
  8
0
 10
10.6315
 20
51.4088
 11
10.2951
 21
51.9389
  0
LINE
  8
0
 10
10.2951
 20
51.9389
 11
9.89484
 21
52.4227
  0
LINE
  8
0
 10
9.89484
 20
52.4227
 11
9.43712
 21
52.8526
  0
LINE
  8
0
 10
9.43712
 20
52.8526
 11
8.92912
 21
53.2216
  0
LINE
  8
0
 10
8.92912
 20
53.2216
 11
8.37889
 21
53.5241
  0
LINE
  8
0
 10
8.37889
 20
53.5241
 11
7.79507
 21
53.7553
  0
LINE
  8
0
 10
7.79507
 20
53.7553
 11
7.1869
 21
53.9114
  0
LINE
  8
0
 10
7.1869
 20
53.9114
 11
6.56395
 21
53.9901
  0
LINE
  8
0
 10
6.56395
 20
53.9901
 11
-6.56395
 21
53.9901
  0
LINE
  8
0
 10
-6.56395
 20
53.9901
 11
-7.1869
 21
53.9114
  0
LINE
  8
0
 10
-7.1869
 20
53.9114
 11
-7.79507
 21
53.7553
  0
LINE
  8
0
 10
-7.79507
 20
53.7553
 11
-8.37889
 21
53.5241
  0
LINE
  8
0
 10
-8.37889
 20
53.5241
 11
-8.92912
 21
53.2216
  0
LINE
  8
0
 10
-8.92912
 20
53.2216
 11
-9.43712
 21
52.8526
  0
LINE
  8
0
 10
-9.43712
 20
52.8526
 11
-9.89484
 21
52.4227
  0
LINE
  8
0
 10
-9.89484
 20
52.4227
 11
-10.2951
 21
51.9389
  0
LINE
  8
0
 10
-10.2951
 20
51.9389
 11
-10.6315
 21
51.4088
  0
LINE
  8
0
 10
-10.6315
 20
51.4088
 11
-10.8989
 21
50.8406
  0
LINE
  8
0
 10
-10.8989
 20
50.8406
 11
-11.0929
 21
50.2434
  0
LINE
  8
0
 10
-11.0929
 20
50.2434
 11
-11.2106
 21
49.6267
  0
LINE
  8
0
 10
-11.2106
 20
49.6267
 11
-11.25
 21
49
  0
LINE
  8
0
 10
-11.25
 20
49
 11
-11.25
 21
29
  0
LINE
  8
0
 10
-11.25
 20
29
 11
-11.2106
 21
28.3733
  0
LINE
  8
0
 10
-11.2106
 20
28.3733
 11
-11.0929
 21
27.7566
  0
LINE
  8
0
 10
-11.0929
 20
27.7566
 11
-10.8989
 21
27.1594
  0
LINE
  8
0
 10
-10.8989
 20
27.1594
 11
-10.6315
 21
26.5912
  0
LINE
  8
0
 10
-10.6315
 20
26.5912
 11
-10.2951
 21
26.0611
  0
LINE
  8
0
 10
-10.2951
 20
26.0611
 11
-9.89484
 21
25.5773
  0
LINE
  8
0
 10
-9.89484
 20
25.5773
 11
-9.43712
 21
25.1474
  0
LINE
  8
0
 10
-9.43712
 20
25.1474
 11
-8.92912
 21
24.7784
  0
LINE
  8
0
 10
-8.92912
 20
24.7784
 11
-8.37889
 21
24.4759
  0
LINE
  8
0
 10
-8.37889
 20
24.4759
 11
-7.79507
 21
24.2447
  0
LINE
  8
0
 10
-7.79507
 20
24.2447
 11
-7.1869
 21
24.0886
  0
LINE
  8
0
 10
-7.1869
 20
24.0886
 11
-6.56395
 21
24.0099
  0
LINE
  8
0
 10
-6.56395
 20
24.0099
 11
6.56395
 21
24.0099
  0
LINE
  8
0
 10
6.56395
 20
24.0099
 11
7.1869
 21
24.0886
  0
LINE
  8
0
 10
-3.86302
 20
44.7036
 11
-4.08728
 21
44.7319
  0
LINE
  8
0
 10
-4.08728
 20
44.7319
 11
-4.30623
 21
44.7881
  0
LINE
  8
0
 10
-4.30623
 20
44.7881
 11
-4.51639
 21
44.8713
  0
LINE
  8
0
 10
-4.51639
 20
44.8713
 11
-4.71448
 21
44.9802
  0
LINE
  8
0
 10
-4.71448
 20
44.9802
 11
-4.89735
 21
45.1131
  0
LINE
  8
0
 10
-4.89735
 20
45.1131
 11
-5.06213
 21
45.2678
  0
LINE
  8
0
 10
-5.06213
 20
45.2678
 11
-5.20622
 21
45.442
  0
LINE
  8
0
 10
-5.20622
 20
45.442
 11
-5.32735
 21
45.6328
  0
LINE
  8
0
 10
-5.32735
 20
45.6328
 11
-5.42358
 21
45.8374
  0
LINE
  8
0
 10
-5.42358
 20
45.8374
 11
-5.49344
 21
46.0524
  0
LINE
  8
0
 10
-5.49344
 20
46.0524
 11
-5.5358
 21
46.2744
  0
LINE
  8
0
 10
-5.5358
 20
46.2744
 11
-5.54999
 21
46.5
  0
LINE
  8
0
 10
-5.54999
 20
46.5
 11
-5.5358
 21
46.7256
  0
LINE
  8
0
 10
-5.5358
 20
46.7256
 11
-5.49344
 21
46.9476
  0
LINE
  8
0
 10
-5.49344
 20
46.9476
 11
-5.42358
 21
47.1626
  0
LINE
  8
0
 10
-5.42358
 20
47.1626
 11
-5.32735
 21
47.3671
  0
LINE
  8
0
 10
-5.32735
 20
47.3671
 11
-5.20622
 21
47.558
  0
LINE
  8
0
 10
-5.20622
 20
47.558
 11
-5.06213
 21
47.7322
  0
LINE
  8
0
 10
-5.06213
 20
47.7322
 11
-4.89735
 21
47.8869
  0
LINE
  8
0
 10
-4.89735
 20
47.8869
 11
-4.71448
 21
48.0198
  0
LINE
  8
0
 10
-4.71448
 20
48.0198
 11
-4.51639
 21
48.1287
  0
LINE
  8
0
 10
-4.51639
 20
48.1287
 11
-4.30623
 21
48.2119
  0
LINE
  8
0
 10
-4.30623
 20
48.2119
 11
-4.08728
 21
48.2681
  0
LINE
  8
0
 10
-4.08728
 20
48.2681
 11
-3.86302
 21
48.2964
  0
LINE
  8
0
 10
-3.86302
 20
48.2964
 11
-3.63696
 21
48.2964
  0
LINE
  8
0
 10
-3.63696
 20
48.2964
 11
-3.4127
 21
48.2681
  0
LINE
  8
0
 10
-3.4127
 20
48.2681
 11
-3.19376
 21
48.2119
  0
LINE
  8
0
 10
-3.19376
 20
48.2119
 11
-2.9836
 21
48.1287
  0
LINE
  8
0
 10
-2.9836
 20
48.1287
 11
-2.78551
 21
48.0198
  0
LINE
  8
0
 10
-2.78551
 20
48.0198
 11
-2.60263
 21
47.8869
  0
LINE
  8
0
 10
-2.60263
 20
47.8869
 11
-2.43785
 21
47.7322
  0
LINE
  8
0
 10
-2.43785
 20
47.7322
 11
-2.29376
 21
47.558
  0
LINE
  8
0
 10
-2.29376
 20
47.558
 11
-2.17264
 21
47.3671
  0
LINE
  8
0
 10
-2.17264
 20
47.3671
 11
-2.0764
 21
47.1626
  0
LINE
  8
0
 10
-2.0764
 20
47.1626
 11
-2.00655
 21
46.9476
  0
LINE
  8
0
 10
-2.00655
 20
46.9476
 11
-1.96419
 21
46.7256
  0
LINE
  8
0
 10
-1.96419
 20
46.7256
 11
-1.95
 21
46.5
  0
LINE
  8
0
 10
-1.95
 20
46.5
 11
-1.96419
 21
46.2744
  0
LINE
  8
0
 10
-1.96419
 20
46.2744
 11
-2.00655
 21
46.0524
  0
LINE
  8
0
 10
-2.00655
 20
46.0524
 11
-2.0764
 21
45.8374
  0
LINE
  8
0
 10
-2.0764
 20
45.8374
 11
-2.17264
 21
45.6328
  0
LINE
  8
0
 10
-2.17264
 20
45.6328
 11
-2.29376
 21
45.442
  0
LINE
  8
0
 10
-2.29376
 20
45.442
 11
-2.43785
 21
45.2678
  0
LINE
  8
0
 10
-2.43785
 20
45.2678
 11
-2.60263
 21
45.1131
  0
LINE
  8
0
 10
-2.60263
 20
45.1131
 11
-2.78551
 21
44.9802
  0
LINE
  8
0
 10
-2.78551
 20
44.9802
 11
-2.9836
 21
44.8713
  0
LINE
  8
0
 10
-2.9836
 20
44.8713
 11
-3.19376
 21
44.7881
  0
LINE
  8
0
 10
-3.19376
 20
44.7881
 11
-3.4127
 21
44.7319
  0
LINE
  8
0
 10
-3.4127
 20
44.7319
 11
-3.63696
 21
44.7036
  0
LINE
  8
0
 10
-3.63696
 20
44.7036
 11
-3.86302
 21
44.7036
  0
LINE
  8
0
 10
3.63696
 20
44.7036
 11
3.4127
 21
44.7319
  0
LINE
  8
0
 10
3.4127
 20
44.7319
 11
3.19376
 21
44.7881
  0
LINE
  8
0
 10
3.19376
 20
44.7881
 11
2.9836
 21
44.8713
  0
LINE
  8
0
 10
2.9836
 20
44.8713
 11
2.78551
 21
44.9802
  0
LINE
  8
0
 10
2.78551
 20
44.9802
 11
2.60263
 21
45.1131
  0
LINE
  8
0
 10
2.60263
 20
45.1131
 11
2.43785
 21
45.2678
  0
LINE
  8
0
 10
2.43785
 20
45.2678
 11
2.29376
 21
45.442
  0
LINE
  8
0
 10
2.29376
 20
45.442
 11
2.17264
 21
45.6328
  0
LINE
  8
0
 10
2.17264
 20
45.6328
 11
2.0764
 21
45.8374
  0
LINE
  8
0
 10
2.0764
 20
45.8374
 11
2.00655
 21
46.0524
  0
LINE
  8
0
 10
2.00655
 20
46.0524
 11
1.96419
 21
46.2744
  0
LINE
  8
0
 10
1.96419
 20
46.2744
 11
1.95
 21
46.5
  0
LINE
  8
0
 10
1.95
 20
46.5
 11
1.96419
 21
46.7256
  0
LINE
  8
0
 10
1.96419
 20
46.7256
 11
2.00655
 21
46.9476
  0
LINE
  8
0
 10
2.00655
 20
46.9476
 11
2.0764
 21
47.1626
  0
LINE
  8
0
 10
2.0764
 20
47.1626
 11
2.17264
 21
47.3671
  0
LINE
  8
0
 10
2.17264
 20
47.3671
 11
2.29376
 21
47.558
  0
LINE
  8
0
 10
2.29376
 20
47.558
 11
2.43785
 21
47.7322
  0
LINE
  8
0
 10
2.43785
 20
47.7322
 11
2.60263
 21
47.8869
  0
LINE
  8
0
 10
2.60263
 20
47.8869
 11
2.78551
 21
48.0198
  0
LINE
  8
0
 10
2.78551
 20
48.0198
 11
2.9836
 21
48.1287
  0
LINE
  8
0
 10
2.9836
 20
48.1287
 11
3.19376
 21
48.2119
  0
LINE
  8
0
 10
3.19376
 20
48.2119
 11
3.4127
 21
48.2681
  0
LINE
  8
0
 10
3.4127
 20
48.2681
 11
3.63696
 21
48.2964
  0
LINE
  8
0
 10
3.63696
 20
48.2964
 11
3.86302
 21
48.2964
  0
LINE
  8
0
 10
3.86302
 20
48.2964
 11
4.08728
 21
48.2681
  0
LINE
  8
0
 10
4.08728
 20
48.2681
 11
4.30623
 21
48.2119
  0
LINE
  8
0
 10
4.30623
 20
48.2119
 11
4.51639
 21
48.1287
  0
LINE
  8
0
 10
4.51639
 20
48.1287
 11
4.71448
 21
48.0198
  0
LINE
  8
0
 10
4.71448
 20
48.0198
 11
4.89735
 21
47.8869
  0
LINE
  8
0
 10
4.89735
 20
47.8869
 11
5.06213
 21
47.7322
  0
LINE
  8
0
 10
5.06213
 20
47.7322
 11
5.20622
 21
47.558
  0
LINE
  8
0
 10
5.20622
 20
47.558
 11
5.32735
 21
47.3671
  0
LINE
  8
0
 10
5.32735
 20
47.3671
 11
5.42358
 21
47.1626
  0
LINE
  8
0
 10
5.42358
 20
47.1626
 11
5.49344
 21
46.9476
  0
LINE
  8
0
 10
5.49344
 20
46.9476
 11
5.5358
 21
46.7256
  0
LINE
  8
0
 10
5.5358
 20
46.7256
 11
5.54999
 21
46.5
  0
LINE
  8
0
 10
5.54999
 20
46.5
 11
5.5358
 21
46.2744
  0
LINE
  8
0
 10
5.5358
 20
46.2744
 11
5.49344
 21
46.0524
  0
LINE
  8
0
 10
5.49344
 20
46.0524
 11
5.42358
 21
45.8374
  0
LINE
  8
0
 10
5.42358
 20
45.8374
 11
5.32735
 21
45.6328
  0
LINE
  8
0
 10
5.32735
 20
45.6328
 11
5.20622
 21
45.442
  0
LINE
  8
0
 10
5.20622
 20
45.442
 11
5.06213
 21
45.2678
  0
LINE
  8
0
 10
5.06213
 20
45.2678
 11
4.89735
 21
45.1131
  0
LINE
  8
0
 10
4.89735
 20
45.1131
 11
4.71448
 21
44.9802
  0
LINE
  8
0
 10
4.71448
 20
44.9802
 11
4.51639
 21
44.8713
  0
LINE
  8
0
 10
4.51639
 20
44.8713
 11
4.30623
 21
44.7881
  0
LINE
  8
0
 10
4.30623
 20
44.7881
 11
4.08728
 21
44.7319
  0
LINE
  8
0
 10
4.08728
 20
44.7319
 11
3.86302
 21
44.7036
  0
LINE
  8
0
 10
3.86302
 20
44.7036
 11
3.63696
 21
44.7036
  0
LINE
  8
0
 10
-3.86302
 20
29.7036
 11
-4.08728
 21
29.7319
  0
LINE
  8
0
 10
-4.08728
 20
29.7319
 11
-4.30623
 21
29.7881
  0
LINE
  8
0
 10
-4.30623
 20
29.7881
 11
-4.51639
 21
29.8713
  0
LINE
  8
0
 10
-4.51639
 20
29.8713
 11
-4.71448
 21
29.9802
  0
LINE
  8
0
 10
-4.71448
 20
29.9802
 11
-4.89735
 21
30.1131
  0
LINE
  8
0
 10
-4.89735
 20
30.1131
 11
-5.06213
 21
30.2678
  0
LINE
  8
0
 10
-5.06213
 20
30.2678
 11
-5.20622
 21
30.442
  0
LINE
  8
0
 10
-5.20622
 20
30.442
 11
-5.32735
 21
30.6329
  0
LINE
  8
0
 10
-5.32735
 20
30.6329
 11
-5.42358
 21
30.8374
  0
LINE
  8
0
 10
-5.42358
 20
30.8374
 11
-5.49344
 21
31.0524
  0
LINE
  8
0
 10
-5.49344
 20
31.0524
 11
-5.5358
 21
31.2744
  0
LINE
  8
0
 10
-5.5358
 20
31.2744
 11
-5.54999
 21
31.5
  0
LINE
  8
0
 10
-5.54999
 20
31.5
 11
-5.5358
 21
31.7256
  0
LINE
  8
0
 10
-5.5358
 20
31.7256
 11
-5.49344
 21
31.9476
  0
LINE
  8
0
 10
-5.49344
 20
31.9476
 11
-5.42358
 21
32.1626
  0
LINE
  8
0
 10
-5.42358
 20
32.1626
 11
-5.32735
 21
32.3672
  0
LINE
  8
0
 10
-5.32735
 20
32.3672
 11
-5.20622
 21
32.558
  0
LINE
  8
0
 10
-5.20622
 20
32.558
 11
-5.06213
 21
32.7322
  0
LINE
  8
0
 10
-5.06213
 20
32.7322
 11
-4.89735
 21
32.8869
  0
LINE
  8
0
 10
-4.89735
 20
32.8869
 11
-4.71448
 21
33.0198
  0
LINE
  8
0
 10
-4.71448
 20
33.0198
 11
-4.51639
 21
33.1287
  0
LINE
  8
0
 10
-4.51639
 20
33.1287
 11
-4.30623
 21
33.2119
  0
LINE
  8
0
 10
-4.30623
 20
33.2119
 11
-4.08728
 21
33.2681
  0
LINE
  8
0
 10
-4.08728
 20
33.2681
 11
-3.86302
 21
33.2964
  0
LINE
  8
0
 10
-3.86302
 20
33.2964
 11
-3.63696
 21
33.2964
  0
LINE
  8
0
 10
-3.63696
 20
33.2964
 11
-3.4127
 21
33.2681
  0
LINE
  8
0
 10
-3.4127
 20
33.2681
 11
-3.19376
 21
33.2119
  0
LINE
  8
0
 10
-3.19376
 20
33.2119
 11
-2.9836
 21
33.1287
  0
LINE
  8
0
 10
-2.9836
 20
33.1287
 11
-2.78551
 21
33.0198
  0
LINE
  8
0
 10
-2.78551
 20
33.0198
 11
-2.60263
 21
32.8869
  0
LINE
  8
0
 10
-2.60263
 20
32.8869
 11
-2.43785
 21
32.7322
  0
LINE
  8
0
 10
-2.43785
 20
32.7322
 11
-2.29376
 21
32.558
  0
LINE
  8
0
 10
-2.29376
 20
32.558
 11
-2.17264
 21
32.3672
  0
LINE
  8
0
 10
-2.17264
 20
32.3672
 11
-2.0764
 21
32.1626
  0
LINE
  8
0
 10
-2.0764
 20
32.1626
 11
-2.00655
 21
31.9476
  0
LINE
  8
0
 10
-2.00655
 20
31.9476
 11
-1.96419
 21
31.7256
  0
LINE
  8
0
 10
-1.96419
 20
31.7256
 11
-1.95
 21
31.5
  0
LINE
  8
0
 10
-1.95
 20
31.5
 11
-1.96419
 21
31.2744
  0
LINE
  8
0
 10
-1.96419
 20
31.2744
 11
-2.00655
 21
31.0524
  0
LINE
  8
0
 10
-2.00655
 20
31.0524
 11
-2.0764
 21
30.8374
  0
LINE
  8
0
 10
-2.0764
 20
30.8374
 11
-2.17264
 21
30.6329
  0
LINE
  8
0
 10
-2.17264
 20
30.6329
 11
-2.29376
 21
30.442
  0
LINE
  8
0
 10
-2.29376
 20
30.442
 11
-2.43785
 21
30.2678
  0
LINE
  8
0
 10
-2.43785
 20
30.2678
 11
-2.60263
 21
30.1131
  0
LINE
  8
0
 10
-2.60263
 20
30.1131
 11
-2.78551
 21
29.9802
  0
LINE
  8
0
 10
-2.78551
 20
29.9802
 11
-2.9836
 21
29.8713
  0
LINE
  8
0
 10
-2.9836
 20
29.8713
 11
-3.19376
 21
29.7881
  0
LINE
  8
0
 10
-3.19376
 20
29.7881
 11
-3.4127
 21
29.7319
  0
LINE
  8
0
 10
-3.4127
 20
29.7319
 11
-3.63696
 21
29.7036
  0
LINE
  8
0
 10
-3.63696
 20
29.7036
 11
-3.86302
 21
29.7036
  0
LINE
  8
0
 10
3.63696
 20
29.7036
 11
3.4127
 21
29.7319
  0
LINE
  8
0
 10
3.4127
 20
29.7319
 11
3.19376
 21
29.7881
  0
LINE
  8
0
 10
3.19376
 20
29.7881
 11
2.9836
 21
29.8713
  0
LINE
  8
0
 10
2.9836
 20
29.8713
 11
2.78551
 21
29.9802
  0
LINE
  8
0
 10
2.78551
 20
29.9802
 11
2.60263
 21
30.1131
  0
LINE
  8
0
 10
2.60263
 20
30.1131
 11
2.43785
 21
30.2678
  0
LINE
  8
0
 10
2.43785
 20
30.2678
 11
2.29376
 21
30.442
  0
LINE
  8
0
 10
2.29376
 20
30.442
 11
2.17264
 21
30.6329
  0
LINE
  8
0
 10
2.17264
 20
30.6329
 11
2.0764
 21
30.8374
  0
LINE
  8
0
 10
2.0764
 20
30.8374
 11
2.00655
 21
31.0524
  0
LINE
  8
0
 10
2.00655
 20
31.0524
 11
1.96419
 21
31.2744
  0
LINE
  8
0
 10
1.96419
 20
31.2744
 11
1.95
 21
31.5
  0
LINE
  8
0
 10
1.95
 20
31.5
 11
1.96419
 21
31.7256
  0
LINE
  8
0
 10
1.96419
 20
31.7256
 11
2.00655
 21
31.9476
  0
LINE
  8
0
 10
2.00655
 20
31.9476
 11
2.0764
 21
32.1626
  0
LINE
  8
0
 10
2.0764
 20
32.1626
 11
2.17264
 21
32.3672
  0
LINE
  8
0
 10
2.17264
 20
32.3672
 11
2.29376
 21
32.558
  0
LINE
  8
0
 10
2.29376
 20
32.558
 11
2.43785
 21
32.7322
  0
LINE
  8
0
 10
2.43785
 20
32.7322
 11
2.60263
 21
32.8869
  0
LINE
  8
0
 10
2.60263
 20
32.8869
 11
2.78551
 21
33.0198
  0
LINE
  8
0
 10
2.78551
 20
33.0198
 11
2.9836
 21
33.1287
  0
LINE
  8
0
 10
2.9836
 20
33.1287
 11
3.19376
 21
33.2119
  0
LINE
  8
0
 10
3.19376
 20
33.2119
 11
3.4127
 21
33.2681
  0
LINE
  8
0
 10
3.4127
 20
33.2681
 11
3.63696
 21
33.2964
  0
LINE
  8
0
 10
3.63696
 20
33.2964
 11
3.86302
 21
33.2964
  0
LINE
  8
0
 10
3.86302
 20
33.2964
 11
4.08728
 21
33.2681
  0
LINE
  8
0
 10
4.08728
 20
33.2681
 11
4.30623
 21
33.2119
  0
LINE
  8
0
 10
4.30623
 20
33.2119
 11
4.51639
 21
33.1287
  0
LINE
  8
0
 10
4.51639
 20
33.1287
 11
4.71448
 21
33.0198
  0
LINE
  8
0
 10
4.71448
 20
33.0198
 11
4.89735
 21
32.8869
  0
LINE
  8
0
 10
4.89735
 20
32.8869
 11
5.06213
 21
32.7322
  0
LINE
  8
0
 10
5.06213
 20
32.7322
 11
5.20622
 21
32.558
  0
LINE
  8
0
 10
5.20622
 20
32.558
 11
5.32735
 21
32.3672
  0
LINE
  8
0
 10
5.32735
 20
32.3672
 11
5.42358
 21
32.1626
  0
LINE
  8
0
 10
5.42358
 20
32.1626
 11
5.49344
 21
31.9476
  0
LINE
  8
0
 10
5.49344
 20
31.9476
 11
5.5358
 21
31.7256
  0
LINE
  8
0
 10
5.5358
 20
31.7256
 11
5.54999
 21
31.5
  0
LINE
  8
0
 10
5.54999
 20
31.5
 11
5.5358
 21
31.2744
  0
LINE
  8
0
 10
5.5358
 20
31.2744
 11
5.49344
 21
31.0524
  0
LINE
  8
0
 10
5.49344
 20
31.0524
 11
5.42358
 21
30.8374
  0
LINE
  8
0
 10
5.42358
 20
30.8374
 11
5.32735
 21
30.6329
  0
LINE
  8
0
 10
5.32735
 20
30.6329
 11
5.20622
 21
30.442
  0
LINE
  8
0
 10
5.20622
 20
30.442
 11
5.06213
 21
30.2678
  0
LINE
  8
0
 10
5.06213
 20
30.2678
 11
4.89735
 21
30.1131
  0
LINE
  8
0
 10
4.89735
 20
30.1131
 11
4.71448
 21
29.9802
  0
LINE
  8
0
 10
4.71448
 20
29.9802
 11
4.51639
 21
29.8713
  0
LINE
  8
0
 10
4.51639
 20
29.8713
 11
4.30623
 21
29.7881
  0
LINE
  8
0
 10
4.30623
 20
29.7881
 11
4.08728
 21
29.7319
  0
LINE
  8
0
 10
4.08728
 20
29.7319
 11
3.86302
 21
29.7036
  0
LINE
  8
0
 10
3.86302
 20
29.7036
 11
3.63696
 21
29.7036
  0
ENDSEC
  0
SECTION
  2
OBJECTS
  0
DICTIONARY
  0
ENDSEC
  0
EOF
