<?xml version="1.0" standalone="no"?>
<!DOCTYPE svg PUBLIC "-//W3C//DTD SVG 1.1//EN" "http://www.w3.org/Graphics/SVG/1.1/DTD/svg11.dtd">
<svg width="24mm" height="69mm" viewBox="-12 -93 24 69" xmlns="http://www.w3.org/2000/svg" version="1.1">
<title>OpenSCAD Model</title>
<path d="
M 7.1869,-63.0886 L 7.79507,-63.2447 L 8.37889,-63.4759 L 8.92912,-63.7784 L 9.43712,-64.1474 L 9.89484,-64.5773
 L 10.2951,-65.0611 L 10.6315,-65.5912 L 10.8989,-66.1594 L 11.0929,-66.7566 L 11.2106,-67.3733 L 11.25,-68
 L 11.25,-88 L 11.2106,-88.6267 L 11.0929,-89.2434 L 10.8989,-89.8406 L 10.6315,-90.4088 L 10.2951,-90.9389
 L 9.89484,-91.4227 L 9.43712,-91.8526 L 8.92912,-92.2216 L 8.37889,-92.5241 L 7.79507,-92.7553 L 7.1869,-92.9114
 L 6.56395,-92.9901 L -6.56395,-92.9901 L -7.1869,-92.9114 L -7.79507,-92.7553 L -8.37889,-92.5241 L -8.92912,-92.2216
 L -9.43712,-91.8526 L -9.89484,-91.4227 L -10.2951,-90.9389 L -10.6315,-90.4088 L -10.8989,-89.8406 L -11.0929,-89.2434
 L -11.2106,-88.6267 L -11.25,-88 L -11.25,-68 L -11.2106,-67.3733 L -11.0929,-66.7566 L -10.8989,-66.1594
 L -10.6315,-65.5912 L -10.2951,-65.0611 L -9.89484,-64.5773 L -9.43712,-64.1474 L -8.92912,-63.7784 L -8.37889,-63.4759
 L -7.79507,-63.2447 L -7.1869,-63.0886 L -6.56395,-63.0099 L 6.56395,-63.0099 z
M 7.1869,-24.0886 L 7.79507,-24.2447 L 8.37889,-24.4759 L 8.92912,-24.7784 L 9.43712,-25.1474 L 9.89484,-25.5773
 L 10.2951,-26.0611 L 10.6315,-26.5912 L 10.8989,-27.1594 L 11.0929,-27.7566 L 11.2106,-28.3733 L 11.25,-29
 L 11.25,-49 L 11.2106,-49.6267 L 11.0929,-50.2434 L 10.8989,-50.8406 L 10.6315,-51.4088 L 10.2951,-51.9389
 L 9.89484,-52.4227 L 9.43712,-52.8526 L 8.92912,-53.2216 L 8.37889,-53.5241 L 7.79507,-53.7553 L 7.1869,-53.9114
 L 6.56395,-53.9901 L -6.56395,-53.9901 L -7.1869,-53.9114 L -7.79507,-53.7553 L -8.37889,-53.5241 L -8.92912,-53.2216
 L -9.43712,-52.8526 L -9.89484,-52.4227 L -10.2951,-51.9389 L -10.6315,-51.4088 L -10.8989,-50.8406 L -11.0929,-50.2434
 L -11.2106,-49.6267 L -11.25,-49 L -11.25,-29 L -11.2106,-28.3733 L -11.0929,-27.7566 L -10.8989,-27.1594
 L -10.6315,-26.5912 L -10.2951,-26.0611 L -9.89484,-25.5773 L -9.43712,-25.1474 L -8.92912,-24.7784 L -8.37889,-24.4759
 L -7.79507,-24.2447 L -7.1869,-24.0886 L -6.56395,-24.0099 L 6.56395,-24.0099 z
M -3.86302,-44.7036 L -4.08728,-44.7319 L -4.30623,-44.7881 L -4.51639,-44.8713 L -4.71448,-44.9802 L -4.89735,-45.1131
 L -5.06213,-45.2678 L -5.20622,-45.442 L -5.32735,-45.6328 L -5.42358,-45.8374 L -5.49344,-46.0524 L -5.5358,-46.2744
 L -5.54999,-46.5 L -5.5358,-46.7256 L -5.49344,-46.9476 L -5.42358,-47.1626 L -5.32735,-47.3671 L -5.20622,-47.558
 L -5.06213,-47.7322 L -4.89735,-47.8869 L -4.71448,-48.0198 L -4.51639,-48.1287 L -4.30623,-48.2119 L -4.08728,-48.2681
 L -3.86302,-48.2964 L -3.63696,-48.2964 L -3.4127,-48.2681 L -3.19376,-48.2119 L -2.9836,-48.1287 L -2.78551,-48.0198
 L -2.60263,-47.8869 L -2.43785,-47.7322 L -2.29376,-47.558 L -2.17264,-47.3671 L -2.0764,-47.1626 L -2.00655,-46.9476
 L -1.96419,-46.7256 L -1.95,-46.5 L -1.96419,-46.2744 L -2.00655,-46.0524 L -2.0764,-45.8374 L -2.17264,-45.6328
 L -2.29376,-45.442 L -2.43785,-45.2678 L -2.60263,-45.1131 L -2.78551,-44.9802 L -2.9836,-44.8713 L -3.19376,-44.7881
 L -3.4127,-44.7319 L -3.63696,-44.7036 z
M 3.63696,-44.7036 L 3.4127,-44.7319 L 3.19376,-44.7881 L 2.9836,-44.8713 L 2.78551,-44.9802 L 2.60263,-45.1131
 L 2.43785,-45.2678 L 2.29376,-45.442 L 2.17264,-45.6328 L 2.0764,-45.8374 L 2.00655,-46.0524 L 1.96419,-46.2744
 L 1.95,-46.5 L 1.96419,-46.7256 L 2.00655,-46.9476 L 2.0764,-47.1626 L 2.17264,-47.3671 L 2.29376,-47.558
 L 2.43785,-47.7322 L 2.60263,-47.8869 L 2.78551,-48.0198 L 2.9836,-48.1287 L 3.19376,-48.2119 L 3.4127,-48.2681
 L 3.63696,-48.2964 L 3.86302,-48.2964 L 4.08728,-48.2681 L 4.30623,-48.2119 L 4.51639,-48.1287 L 4.71448,-48.0198
 L 4.89735,-47.8869 L 5.06213,-47.7322 L 5.20622,-47.558 L 5.32735,-47.3671 L 5.42358,-47.1626 L 5.49344,-46.9476
 L 5.5358,-46.7256 L 5.54999,-46.5 L 5.5358,-46.2744 L 5.49344,-46.0524 L 5.42358,-45.8374 L 5.32735,-45.6328
 L 5.20622,-45.442 L 5.06213,-45.2678 L 4.89735,-45.1131 L 4.71448,-44.9802 L 4.51639,-44.8713 L 4.30623,-44.7881
 L 4.08728,-44.7319 L 3.86302,-44.7036 z
M -3.86302,-29.7036 L -4.08728,-29.7319 L -4.30623,-29.7881 L -4.51639,-29.8713 L -4.71448,-29.9802 L -4.89735,-30.1131
 L -5.06213,-30.2678 L -5.20622,-30.442 L -5.32735,-30.6329 L -5.42358,-30.8374 L -5.49344,-31.0524 L -5.5358,-31.2744
 L -5.54999,-31.5 L -5.5358,-31.7256 L -5.49344,-31.9476 L -5.42358,-32.1626 L -5.32735,-32.3672 L -5.20622,-32.558
 L -5.06213,-32.7322 L -4.89735,-32.8869 L -4.71448,-33.0198 L -4.51639,-33.1287 L -4.30623,-33.2119 L -4.08728,-33.2681
 L -3.86302,-33.2964 L -3.63696,-33.2964 L -3.4127,-33.2681 L -3.19376,-33.2119 L -2.9836,-33.1287 L -2.78551,-33.0198
 L -2.60263,-32.8869 L -2.43785,-32.7322 L -2.29376,-32.558 L -2.17264,-32.3672 L -2.0764,-32.1626 L -2.00655,-31.9476
 L -1.96419,-31.7256 L -1.95,-31.5 L -1.96419,-31.2744 L -2.00655,-31.0524 L -2.0764,-30.8374 L -2.17264,-30.6329
 L -2.29376,-30.442 L -2.43785,-30.2678 L -2.60263,-30.1131 L -2.78551,-29.9802 L -2.9836,-29.8713 L -3.19376,-29.7881
 L -3.4127,-29.7319 L -3.63696,-29.7036 z
M 3.63696,-29.7036 L 3.4127,-29.7319 L 3.19376,-29.7881 L 2.9836,-29.8713 L 2.78551,-29.9802 L 2.60263,-30.1131
 L 2.43785,-30.2678 L 2.29376,-30.442 L 2.17264,-30.6329 L 2.0764,-30.8374 L 2.00655,-31.0524 L 1.96419,-31.2744
 L 1.95,-31.5 L 1.96419,-31.7256 L 2.00655,-31.9476 L 2.0764,-32.1626 L 2.17264,-32.3672 L 2.29376,-32.558
 L 2.43785,-32.7322 L 2.60263,-32.8869 L 2.78551,-33.0198 L 2.9836,-33.1287 L 3.19376,-33.2119 L 3.4127,-33.2681
 L 3.63696,-33.2964 L 3.86302,-33.2964 L 4.08728,-33.2681 L 4.30623,-33.2119 L 4.51639,-33.1287 L 4.71448,-33.0198
 L 4.89735,-32.8869 L 5.06213,-32.7322 L 5.20622,-32.558 L 5.32735,-32.3672 L 5.42358,-32.1626 L 5.49344,-31.9476
 L 5.5358,-31.7256 L 5.54999,-31.5 L 5.5358,-31.2744 L 5.49344,-31.0524 L 5.42358,-30.8374 L 5.32735,-30.6329
 L 5.20622,-30.442 L 5.06213,-30.2678 L 4.89735,-30.1131 L 4.71448,-29.9802 L 4.51639,-29.8713 L 4.30623,-29.7881
 L 4.08728,-29.7319 L 3.86302,-29.7036 z
" stroke="black" fill="lightgray" stroke-width="0.5"/>
</svg>
