<?xml version="1.0" standalone="no"?>
<!DOCTYPE svg PUBLIC "-//W3C//DTD SVG 1.1//EN" "http://www.w3.org/Graphics/SVG/1.1/DTD/svg11.dtd">
<svg width="150mm" height="828mm" viewBox="-75 -1530 150 828" xmlns="http://www.w3.org/2000/svg" version="1.1">
<title>OpenSCAD Model</title>
<path d="
M 70.9369,-1260.09 L 71.5451,-1260.24 L 72.1289,-1260.48 L 72.6791,-1260.78 L 73.1871,-1261.15 L 73.6448,-1261.58
 L 74.0451,-1262.06 L 74.3815,-1262.59 L 74.6489,-1263.16 L 74.8429,-1263.76 L 74.9606,-1264.37 L 75,-1265
 L 75,-1525 L 74.9606,-1525.63 L 74.8429,-1526.24 L 74.6489,-1526.84 L 74.3815,-1527.41 L 74.0451,-1527.94
 L 73.6448,-1528.42 L 73.1871,-1528.85 L 72.6791,-1529.22 L 72.1289,-1529.52 L 71.5451,-1529.76 L 70.9369,-1529.91
 L 70.3139,-1529.99 L -70.3139,-1529.99 L -70.9369,-1529.91 L -71.5451,-1529.76 L -72.1289,-1529.52 L -72.6791,-1529.22
 L -73.1871,-1528.85 L -73.6448,-1528.42 L -74.0451,-1527.94 L -74.3815,-1527.41 L -74.6489,-1526.84 L -74.8429,-1526.24
 L -74.9606,-1525.63 L -75,-1525 L -75,-1265 L -74.9606,-1264.37 L -74.8429,-1263.76 L -74.6489,-1263.16
 L -74.3815,-1262.59 L -74.0451,-1262.06 L -73.6448,-1261.58 L -73.1871,-1261.15 L -72.6791,-1260.78 L -72.1289,-1260.48
 L -71.5451,-1260.24 L -70.9369,-1260.09 L -70.3139,-1260.01 L 70.3139,-1260.01 z
M -69.7512,-1261.51 L -70.2495,-1261.57 L -70.7361,-1261.7 L -71.2031,-1261.88 L -71.6433,-1262.12 L -72.0497,-1262.42
 L -72.4159,-1262.76 L -72.7361,-1263.15 L -73.0052,-1263.57 L -73.2191,-1264.03 L -73.3743,-1264.51 L -73.4685,-1265
 L -73.5,-1265.5 L -73.5,-1524.5 L -73.4685,-1525 L -73.3743,-1525.49 L -73.2191,-1525.97 L -73.0052,-1526.43
 L -72.7361,-1526.85 L -72.4159,-1527.24 L -72.0497,-1527.58 L -71.6433,-1527.88 L -71.2031,-1528.12 L -70.7361,-1528.3
 L -70.2495,-1528.43 L -69.7512,-1528.49 L 69.7512,-1528.49 L 70.2495,-1528.43 L 70.7361,-1528.3 L 71.2031,-1528.12
 L 71.6433,-1527.88 L 72.0497,-1527.58 L 72.4159,-1527.24 L 72.7361,-1526.85 L 73.0052,-1526.43 L 73.2191,-1525.97
 L 73.3743,-1525.49 L 73.4685,-1525 L 73.5,-1524.5 L 73.5,-1265.5 L 73.4685,-1265 L 73.3743,-1264.51
 L 73.2191,-1264.03 L 73.0052,-1263.57 L 72.7361,-1263.15 L 72.4159,-1262.76 L 72.0497,-1262.42 L 71.6433,-1262.12
 L 71.2031,-1261.88 L 70.7361,-1261.7 L 70.2495,-1261.57 L 69.7512,-1261.51 z
M 70.9369,-981.089 L 71.5451,-981.245 L 72.1289,-981.476 L 72.6791,-981.778 L 73.1871,-982.147 L 73.6448,-982.577
 L 74.0451,-983.061 L 74.3815,-983.591 L 74.6489,-984.159 L 74.8429,-984.757 L 74.9606,-985.373 L 75,-986
 L 75,-1246 L 74.9606,-1246.63 L 74.8429,-1247.24 L 74.6489,-1247.84 L 74.3815,-1248.41 L 74.0451,-1248.94
 L 73.6448,-1249.42 L 73.1871,-1249.85 L 72.6791,-1250.22 L 72.1289,-1250.52 L 71.5451,-1250.76 L 70.9369,-1250.91
 L 70.3139,-1250.99 L -70.3139,-1250.99 L -70.9369,-1250.91 L -71.5451,-1250.76 L -72.1289,-1250.52 L -72.6791,-1250.22
 L -73.1871,-1249.85 L -73.6448,-1249.42 L -74.0451,-1248.94 L -74.3815,-1248.41 L -74.6489,-1247.84 L -74.8429,-1247.24
 L -74.9606,-1246.63 L -75,-1246 L -75,-986 L -74.9606,-985.373 L -74.8429,-984.757 L -74.6489,-984.159
 L -74.3815,-983.591 L -74.0451,-983.061 L -73.6448,-982.577 L -73.1871,-982.147 L -72.6791,-981.778 L -72.1289,-981.476
 L -71.5451,-981.245 L -70.9369,-981.089 L -70.3139,-981.01 L 70.3139,-981.01 z
M -69.6955,-983.393 L -70.0833,-983.442 L -70.4619,-983.539 L -70.8254,-983.683 L -71.168,-983.872 L -71.4843,-984.101
 L -71.7692,-984.369 L -72.0184,-984.67 L -72.2279,-985 L -72.3943,-985.354 L -72.5151,-985.726 L -72.5884,-986.11
 L -72.6129,-986.5 L -72.6129,-1245.5 L -72.5884,-1245.89 L -72.5151,-1246.27 L -72.3943,-1246.65 L -72.2279,-1247
 L -72.0184,-1247.33 L -71.7692,-1247.63 L -71.4843,-1247.9 L -71.168,-1248.13 L -70.8254,-1248.32 L -70.4619,-1248.46
 L -70.0833,-1248.56 L -69.6955,-1248.61 L 69.6955,-1248.61 L 70.0833,-1248.56 L 70.4619,-1248.46 L 70.8254,-1248.32
 L 71.168,-1248.13 L 71.4843,-1247.9 L 71.7692,-1247.63 L 72.0184,-1247.33 L 72.2279,-1247 L 72.3943,-1246.65
 L 72.5151,-1246.27 L 72.5884,-1245.89 L 72.6129,-1245.5 L 72.6129,-986.5 L 72.5884,-986.11 L 72.5151,-985.726
 L 72.3943,-985.354 L 72.2279,-985 L 72.0184,-984.67 L 71.7692,-984.369 L 71.4843,-984.101 L 71.168,-983.872
 L 70.8254,-983.683 L 70.4619,-983.539 L 70.0833,-983.442 L 69.6955,-983.393 z
M 70.9369,-702.089 L 71.5451,-702.245 L 72.1289,-702.476 L 72.6791,-702.778 L 73.1871,-703.147 L 73.6448,-703.577
 L 74.0451,-704.061 L 74.3815,-704.591 L 74.6489,-705.159 L 74.8429,-705.757 L 74.9606,-706.373 L 75,-707
 L 75,-967 L 74.9606,-967.627 L 74.8429,-968.243 L 74.6489,-968.841 L 74.3815,-969.409 L 74.0451,-969.939
 L 73.6448,-970.423 L 73.1871,-970.853 L 72.6791,-971.222 L 72.1289,-971.524 L 71.5451,-971.755 L 70.9369,-971.911
 L 70.3139,-971.99 L -70.3139,-971.99 L -70.9369,-971.911 L -71.5451,-971.755 L -72.1289,-971.524 L -72.6791,-971.222
 L -73.1871,-970.853 L -73.6448,-970.423 L -74.0451,-969.939 L -74.3815,-969.409 L -74.6489,-968.841 L -74.8429,-968.243
 L -74.9606,-967.627 L -75,-967 L -75,-707 L -74.9606,-706.373 L -74.8429,-705.757 L -74.6489,-705.159
 L -74.3815,-704.591 L -74.0451,-704.061 L -73.6448,-703.577 L -73.1871,-703.147 L -72.6791,-702.778 L -72.1289,-702.476
 L -71.5451,-702.245 L -70.9369,-702.089 L -70.3139,-702.01 L 70.3139,-702.01 z
M 67.3659,-962.369 L 67.0999,-962.403 L 66.8401,-962.469 L 66.5908,-962.568 L 66.3559,-962.697 L 66.1389,-962.855
 L 65.9434,-963.038 L 65.7725,-963.245 L 65.6288,-963.471 L 65.5146,-963.714 L 65.4318,-963.969 L 65.3815,-964.232
 L 65.3647,-964.5 L 65.3815,-964.768 L 65.4318,-965.031 L 65.5146,-965.286 L 65.6288,-965.529 L 65.7725,-965.755
 L 65.9434,-965.962 L 66.1389,-966.145 L 66.3559,-966.303 L 66.5908,-966.432 L 66.8401,-966.531 L 67.0999,-966.597
 L 67.3659,-966.631 L 67.6341,-966.631 L 67.9001,-966.597 L 68.1598,-966.531 L 68.4092,-966.432 L 68.6441,-966.303
 L 68.8611,-966.145 L 69.0566,-965.962 L 69.2275,-965.755 L 69.3712,-965.529 L 69.4853,-965.286 L 69.5682,-965.031
 L 69.6185,-964.768 L 69.6353,-964.5 L 69.6185,-964.232 L 69.5682,-963.969 L 69.4853,-963.714 L 69.3712,-963.471
 L 69.2275,-963.245 L 69.0566,-963.038 L 68.8611,-962.855 L 68.6441,-962.697 L 68.4092,-962.568 L 68.1598,-962.469
 L 67.9001,-962.403 L 67.6341,-962.369 z
M -67.6341,-962.369 L -67.9001,-962.403 L -68.1598,-962.469 L -68.4092,-962.568 L -68.6441,-962.697 L -68.8611,-962.855
 L -69.0566,-963.038 L -69.2275,-963.245 L -69.3712,-963.471 L -69.4853,-963.714 L -69.5682,-963.969 L -69.6185,-964.232
 L -69.6353,-964.5 L -69.6185,-964.768 L -69.5682,-965.031 L -69.4853,-965.286 L -69.3712,-965.529 L -69.2275,-965.755
 L -69.0566,-965.962 L -68.8611,-966.145 L -68.6441,-966.303 L -68.4092,-966.432 L -68.1598,-966.531 L -67.9001,-966.597
 L -67.6341,-966.631 L -67.3659,-966.631 L -67.0999,-966.597 L -66.8401,-966.531 L -66.5908,-966.432 L -66.3559,-966.303
 L -66.1389,-966.145 L -65.9434,-965.962 L -65.7725,-965.755 L -65.6288,-965.529 L -65.5146,-965.286 L -65.4318,-965.031
 L -65.3815,-964.768 L -65.3647,-964.5 L -65.3815,-964.232 L -65.4318,-963.969 L -65.5146,-963.714 L -65.6288,-963.471
 L -65.7725,-963.245 L -65.9434,-963.038 L -66.1389,-962.855 L -66.3559,-962.697 L -66.5908,-962.568 L -66.8401,-962.469
 L -67.0999,-962.403 L -67.3659,-962.369 z
M 67.3659,-707.369 L 67.0999,-707.403 L 66.8401,-707.469 L 66.5908,-707.568 L 66.3559,-707.697 L 66.1389,-707.855
 L 65.9434,-708.038 L 65.7725,-708.245 L 65.6288,-708.471 L 65.5146,-708.714 L 65.4318,-708.969 L 65.3815,-709.232
 L 65.3647,-709.5 L 65.3815,-709.768 L 65.4318,-710.031 L 65.5146,-710.286 L 65.6288,-710.529 L 65.7725,-710.755
 L 65.9434,-710.962 L 66.1389,-711.145 L 66.3559,-711.303 L 66.5908,-711.432 L 66.8401,-711.531 L 67.0999,-711.597
 L 67.3659,-711.631 L 67.6341,-711.631 L 67.9001,-711.597 L 68.1598,-711.531 L 68.4092,-711.432 L 68.6441,-711.303
 L 68.8611,-711.145 L 69.0566,-710.962 L 69.2275,-710.755 L 69.3712,-710.529 L 69.4853,-710.286 L 69.5682,-710.031
 L 69.6185,-709.768 L 69.6353,-709.5 L 69.6185,-709.232 L 69.5682,-708.969 L 69.4853,-708.714 L 69.3712,-708.471
 L 69.2275,-708.245 L 69.0566,-708.038 L 68.8611,-707.855 L 68.6441,-707.697 L 68.4092,-707.568 L 68.1598,-707.469
 L 67.9001,-707.403 L 67.6341,-707.369 z
M -67.6341,-707.369 L -67.9001,-707.403 L -68.1598,-707.469 L -68.4092,-707.568 L -68.6441,-707.697 L -68.8611,-707.855
 L -69.0566,-708.038 L -69.2275,-708.245 L -69.3712,-708.471 L -69.4853,-708.714 L -69.5682,-708.969 L -69.6185,-709.232
 L -69.6353,-709.5 L -69.6185,-709.768 L -69.5682,-710.031 L -69.4853,-710.286 L -69.3712,-710.529 L -69.2275,-710.755
 L -69.0566,-710.962 L -68.8611,-711.145 L -68.6441,-711.303 L -68.4092,-711.432 L -68.1598,-711.531 L -67.9001,-711.597
 L -67.6341,-711.631 L -67.3659,-711.631 L -67.0999,-711.597 L -66.8401,-711.531 L -66.5908,-711.432 L -66.3559,-711.303
 L -66.1389,-711.145 L -65.9434,-710.962 L -65.7725,-710.755 L -65.6288,-710.529 L -65.5146,-710.286 L -65.4318,-710.031
 L -65.3815,-709.768 L -65.3647,-709.5 L -65.3815,-709.232 L -65.4318,-708.969 L -65.5146,-708.714 L -65.6288,-708.471
 L -65.7725,-708.245 L -65.9434,-708.038 L -66.1389,-707.855 L -66.3559,-707.697 L -66.5908,-707.568 L -66.8401,-707.469
 L -67.0999,-707.403 L -67.3659,-707.369 z
" stroke="black" fill="lightgray" stroke-width="0.5"/>
</svg>
