<?xml version="1.0" standalone="no"?>
<!DOCTYPE svg PUBLIC "-//W3C//DTD SVG 1.1//EN" "http://www.w3.org/Graphics/SVG/1.1/DTD/svg11.dtd">
<svg width="180mm" height="681mm" viewBox="-90 -1341 180 681" xmlns="http://www.w3.org/2000/svg" version="1.1">
<title>OpenSCAD Model</title>
<path d="
M 85.9369,-1281.09 L 86.5451,-1281.24 L 87.1289,-1281.48 L 87.6791,-1281.78 L 88.1871,-1282.15 L 88.6448,-1282.58
 L 89.0451,-1283.06 L 89.3815,-1283.59 L 89.6489,-1284.16 L 89.8429,-1284.76 L 89.9606,-1285.37 L 90,-1286
 L 90,-1336 L 89.9606,-1336.63 L 89.8429,-1337.24 L 89.6489,-1337.84 L 89.3815,-1338.41 L 89.0451,-1338.94
 L 88.6448,-1339.42 L 88.1871,-1339.85 L 87.6791,-1340.22 L 87.1289,-1340.52 L 86.5451,-1340.76 L 85.9369,-1340.91
 L 85.3139,-1340.99 L -85.3139,-1340.99 L -85.9369,-1340.91 L -86.5451,-1340.76 L -87.1289,-1340.52 L -87.6791,-1340.22
 L -88.1871,-1339.85 L -88.6448,-1339.42 L -89.0451,-1338.94 L -89.3815,-1338.41 L -89.6489,-1337.84 L -89.8429,-1337.24
 L -89.9606,-1336.63 L -90,-1336 L -90,-1286 L -89.9606,-1285.37 L -89.8429,-1284.76 L -89.6489,-1284.16
 L -89.3815,-1283.59 L -89.0451,-1283.06 L -88.6448,-1282.58 L -88.1871,-1282.15 L -87.6791,-1281.78 L -87.1289,-1281.48
 L -86.5451,-1281.24 L -85.9369,-1281.09 L -85.3139,-1281.01 L 85.3139,-1281.01 z
M -85.0482,-1281.51 L -85.6401,-1281.58 L -86.2178,-1281.73 L -86.7724,-1281.95 L -87.2952,-1282.24 L -87.7778,-1282.59
 L -88.2126,-1283 L -88.5928,-1283.46 L -88.9125,-1283.96 L -89.1664,-1284.5 L -89.3508,-1285.07 L -89.4625,-1285.65
 L -89.5,-1286.25 L -89.5,-1335.75 L -89.4625,-1336.35 L -89.3508,-1336.93 L -89.1664,-1337.5 L -88.9125,-1338.04
 L -88.5928,-1338.54 L -88.2126,-1339 L -87.7778,-1339.41 L -87.2952,-1339.76 L -86.7724,-1340.05 L -86.2178,-1340.27
 L -85.6401,-1340.42 L -85.0482,-1340.49 L 85.0482,-1340.49 L 85.6401,-1340.42 L 86.2178,-1340.27 L 86.7724,-1340.05
 L 87.2952,-1339.76 L 87.7778,-1339.41 L 88.2126,-1339 L 88.5928,-1338.54 L 88.9125,-1338.04 L 89.1664,-1337.5
 L 89.3508,-1336.93 L 89.4625,-1336.35 L 89.5,-1335.75 L 89.5,-1286.25 L 89.4625,-1285.65 L 89.3508,-1285.07
 L 89.1664,-1284.5 L 88.9125,-1283.96 L 88.5928,-1283.46 L 88.2126,-1283 L 87.7778,-1282.59 L 87.2952,-1282.24
 L 86.7724,-1281.95 L 86.2178,-1281.73 L 85.6401,-1281.58 L 85.0482,-1281.51 z
M 85.9369,-1212.09 L 86.5451,-1212.24 L 87.1289,-1212.48 L 87.6791,-1212.78 L 88.1871,-1213.15 L 88.6448,-1213.58
 L 89.0451,-1214.06 L 89.3815,-1214.59 L 89.6489,-1215.16 L 89.8429,-1215.76 L 89.9606,-1216.37 L 90,-1217
 L 90,-1267 L 89.9606,-1267.63 L 89.8429,-1268.24 L 89.6489,-1268.84 L 89.3815,-1269.41 L 89.0451,-1269.94
 L 88.6448,-1270.42 L 88.1871,-1270.85 L 87.6791,-1271.22 L 87.1289,-1271.52 L 86.5451,-1271.76 L 85.9369,-1271.91
 L 85.3139,-1271.99 L -85.3139,-1271.99 L -85.9369,-1271.91 L -86.5451,-1271.76 L -87.1289,-1271.52 L -87.6791,-1271.22
 L -88.1871,-1270.85 L -88.6448,-1270.42 L -89.0451,-1269.94 L -89.3815,-1269.41 L -89.6489,-1268.84 L -89.8429,-1268.24
 L -89.9606,-1267.63 L -90,-1267 L -90,-1217 L -89.9606,-1216.37 L -89.8429,-1215.76 L -89.6489,-1215.16
 L -89.3815,-1214.59 L -89.0451,-1214.06 L -88.6448,-1213.58 L -88.1871,-1213.15 L -87.6791,-1212.78 L -87.1289,-1212.48
 L -86.5451,-1212.24 L -85.9369,-1212.09 L -85.3139,-1212.01 L 85.3139,-1212.01 z
M -85.0482,-1212.51 L -85.6401,-1212.58 L -86.2178,-1212.73 L -86.7724,-1212.95 L -87.2952,-1213.24 L -87.7778,-1213.59
 L -88.2126,-1214 L -88.5928,-1214.46 L -88.9125,-1214.96 L -89.1664,-1215.5 L -89.3508,-1216.07 L -89.4625,-1216.65
 L -89.5,-1217.25 L -89.5,-1266.75 L -89.4625,-1267.35 L -89.3508,-1267.93 L -89.1664,-1268.5 L -88.9125,-1269.04
 L -88.5928,-1269.54 L -88.2126,-1270 L -87.7778,-1270.41 L -87.2952,-1270.76 L -86.7724,-1271.05 L -86.2178,-1271.27
 L -85.6401,-1271.42 L -85.0482,-1271.49 L 85.0482,-1271.49 L 85.6401,-1271.42 L 86.2178,-1271.27 L 86.7724,-1271.05
 L 87.2952,-1270.76 L 87.7778,-1270.41 L 88.2126,-1270 L 88.5928,-1269.54 L 88.9125,-1269.04 L 89.1664,-1268.5
 L 89.3508,-1267.93 L 89.4625,-1267.35 L 89.5,-1266.75 L 89.5,-1217.25 L 89.4625,-1216.65 L 89.3508,-1216.07
 L 89.1664,-1215.5 L 88.9125,-1214.96 L 88.5928,-1214.46 L 88.2126,-1214 L 87.7778,-1213.59 L 87.2952,-1213.24
 L 86.7724,-1212.95 L 86.2178,-1212.73 L 85.6401,-1212.58 L 85.0482,-1212.51 z
M 85.9369,-1143.09 L 86.5451,-1143.24 L 87.1289,-1143.48 L 87.6791,-1143.78 L 88.1871,-1144.15 L 88.6448,-1144.58
 L 89.0451,-1145.06 L 89.3815,-1145.59 L 89.6489,-1146.16 L 89.8429,-1146.76 L 89.9606,-1147.37 L 90,-1148
 L 90,-1198 L 89.9606,-1198.63 L 89.8429,-1199.24 L 89.6489,-1199.84 L 89.3815,-1200.41 L 89.0451,-1200.94
 L 88.6448,-1201.42 L 88.1871,-1201.85 L 87.6791,-1202.22 L 87.1289,-1202.52 L 86.5451,-1202.76 L 85.9369,-1202.91
 L 85.3139,-1202.99 L -85.3139,-1202.99 L -85.9369,-1202.91 L -86.5451,-1202.76 L -87.1289,-1202.52 L -87.6791,-1202.22
 L -88.1871,-1201.85 L -88.6448,-1201.42 L -89.0451,-1200.94 L -89.3815,-1200.41 L -89.6489,-1199.84 L -89.8429,-1199.24
 L -89.9606,-1198.63 L -90,-1198 L -90,-1148 L -89.9606,-1147.37 L -89.8429,-1146.76 L -89.6489,-1146.16
 L -89.3815,-1145.59 L -89.0451,-1145.06 L -88.6448,-1144.58 L -88.1871,-1144.15 L -87.6791,-1143.78 L -87.1289,-1143.48
 L -86.5451,-1143.24 L -85.9369,-1143.09 L -85.3139,-1143.01 L 85.3139,-1143.01 z
M -85.0482,-1143.51 L -85.6401,-1143.58 L -86.2178,-1143.73 L -86.7724,-1143.95 L -87.2952,-1144.24 L -87.7778,-1144.59
 L -88.2126,-1145 L -88.5928,-1145.46 L -88.9125,-1145.96 L -89.1664,-1146.5 L -89.3508,-1147.07 L -89.4625,-1147.65
 L -89.5,-1148.25 L -89.5,-1197.75 L -89.4625,-1198.35 L -89.3508,-1198.93 L -89.1664,-1199.5 L -88.9125,-1200.04
 L -88.5928,-1200.54 L -88.2126,-1201 L -87.7778,-1201.41 L -87.2952,-1201.76 L -86.7724,-1202.05 L -86.2178,-1202.27
 L -85.6401,-1202.42 L -85.0482,-1202.49 L 85.0482,-1202.49 L 85.6401,-1202.42 L 86.2178,-1202.27 L 86.7724,-1202.05
 L 87.2952,-1201.76 L 87.7778,-1201.41 L 88.2126,-1201 L 88.5928,-1200.54 L 88.9125,-1200.04 L 89.1664,-1199.5
 L 89.3508,-1198.93 L 89.4625,-1198.35 L 89.5,-1197.75 L 89.5,-1148.25 L 89.4625,-1147.65 L 89.3508,-1147.07
 L 89.1664,-1146.5 L 88.9125,-1145.96 L 88.5928,-1145.46 L 88.2126,-1145 L 87.7778,-1144.59 L 87.2952,-1144.24
 L 86.7724,-1143.95 L 86.2178,-1143.73 L 85.6401,-1143.58 L 85.0482,-1143.51 z
M 85.9369,-1074.09 L 86.5451,-1074.24 L 87.1289,-1074.48 L 87.6791,-1074.78 L 88.1871,-1075.15 L 88.6448,-1075.58
 L 89.0451,-1076.06 L 89.3815,-1076.59 L 89.6489,-1077.16 L 89.8429,-1077.76 L 89.9606,-1078.37 L 90,-1079
 L 90,-1129 L 89.9606,-1129.63 L 89.8429,-1130.24 L 89.6489,-1130.84 L 89.3815,-1131.41 L 89.0451,-1131.94
 L 88.6448,-1132.42 L 88.1871,-1132.85 L 87.6791,-1133.22 L 87.1289,-1133.52 L 86.5451,-1133.76 L 85.9369,-1133.91
 L 85.3139,-1133.99 L -85.3139,-1133.99 L -85.9369,-1133.91 L -86.5451,-1133.76 L -87.1289,-1133.52 L -87.6791,-1133.22
 L -88.1871,-1132.85 L -88.6448,-1132.42 L -89.0451,-1131.94 L -89.3815,-1131.41 L -89.6489,-1130.84 L -89.8429,-1130.24
 L -89.9606,-1129.63 L -90,-1129 L -90,-1079 L -89.9606,-1078.37 L -89.8429,-1077.76 L -89.6489,-1077.16
 L -89.3815,-1076.59 L -89.0451,-1076.06 L -88.6448,-1075.58 L -88.1871,-1075.15 L -87.6791,-1074.78 L -87.1289,-1074.48
 L -86.5451,-1074.24 L -85.9369,-1074.09 L -85.3139,-1074.01 L 85.3139,-1074.01 z
M -85.0482,-1074.51 L -85.6401,-1074.58 L -86.2178,-1074.73 L -86.7724,-1074.95 L -87.2952,-1075.24 L -87.7778,-1075.59
 L -88.2126,-1076 L -88.5928,-1076.46 L -88.9125,-1076.96 L -89.1664,-1077.5 L -89.3508,-1078.07 L -89.4625,-1078.65
 L -89.5,-1079.25 L -89.5,-1128.75 L -89.4625,-1129.35 L -89.3508,-1129.93 L -89.1664,-1130.5 L -88.9125,-1131.04
 L -88.5928,-1131.54 L -88.2126,-1132 L -87.7778,-1132.41 L -87.2952,-1132.76 L -86.7724,-1133.05 L -86.2178,-1133.27
 L -85.6401,-1133.42 L -85.0482,-1133.49 L 85.0482,-1133.49 L 85.6401,-1133.42 L 86.2178,-1133.27 L 86.7724,-1133.05
 L 87.2952,-1132.76 L 87.7778,-1132.41 L 88.2126,-1132 L 88.5928,-1131.54 L 88.9125,-1131.04 L 89.1664,-1130.5
 L 89.3508,-1129.93 L 89.4625,-1129.35 L 89.5,-1128.75 L 89.5,-1079.25 L 89.4625,-1078.65 L 89.3508,-1078.07
 L 89.1664,-1077.5 L 88.9125,-1076.96 L 88.5928,-1076.46 L 88.2126,-1076 L 87.7778,-1075.59 L 87.2952,-1075.24
 L 86.7724,-1074.95 L 86.2178,-1074.73 L 85.6401,-1074.58 L 85.0482,-1074.51 z
M 85.9369,-1005.09 L 86.5451,-1005.24 L 87.1289,-1005.48 L 87.6791,-1005.78 L 88.1871,-1006.15 L 88.6448,-1006.58
 L 89.0451,-1007.06 L 89.3815,-1007.59 L 89.6489,-1008.16 L 89.8429,-1008.76 L 89.9606,-1009.37 L 90,-1010
 L 90,-1060 L 89.9606,-1060.63 L 89.8429,-1061.24 L 89.6489,-1061.84 L 89.3815,-1062.41 L 89.0451,-1062.94
 L 88.6448,-1063.42 L 88.1871,-1063.85 L 87.6791,-1064.22 L 87.1289,-1064.52 L 86.5451,-1064.76 L 85.9369,-1064.91
 L 85.3139,-1064.99 L -85.3139,-1064.99 L -85.9369,-1064.91 L -86.5451,-1064.76 L -87.1289,-1064.52 L -87.6791,-1064.22
 L -88.1871,-1063.85 L -88.6448,-1063.42 L -89.0451,-1062.94 L -89.3815,-1062.41 L -89.6489,-1061.84 L -89.8429,-1061.24
 L -89.9606,-1060.63 L -90,-1060 L -90,-1010 L -89.9606,-1009.37 L -89.8429,-1008.76 L -89.6489,-1008.16
 L -89.3815,-1007.59 L -89.0451,-1007.06 L -88.6448,-1006.58 L -88.1871,-1006.15 L -87.6791,-1005.78 L -87.1289,-1005.48
 L -86.5451,-1005.24 L -85.9369,-1005.09 L -85.3139,-1005.01 L 85.3139,-1005.01 z
M -85.0482,-1005.51 L -85.6401,-1005.58 L -86.2178,-1005.73 L -86.7724,-1005.95 L -87.2952,-1006.24 L -87.7778,-1006.59
 L -88.2126,-1007 L -88.5928,-1007.46 L -88.9125,-1007.96 L -89.1664,-1008.5 L -89.3508,-1009.07 L -89.4625,-1009.65
 L -89.5,-1010.25 L -89.5,-1059.75 L -89.4625,-1060.35 L -89.3508,-1060.93 L -89.1664,-1061.5 L -88.9125,-1062.04
 L -88.5928,-1062.54 L -88.2126,-1063 L -87.7778,-1063.41 L -87.2952,-1063.76 L -86.7724,-1064.05 L -86.2178,-1064.27
 L -85.6401,-1064.42 L -85.0482,-1064.49 L 85.0482,-1064.49 L 85.6401,-1064.42 L 86.2178,-1064.27 L 86.7724,-1064.05
 L 87.2952,-1063.76 L 87.7778,-1063.41 L 88.2126,-1063 L 88.5928,-1062.54 L 88.9125,-1062.04 L 89.1664,-1061.5
 L 89.3508,-1060.93 L 89.4625,-1060.35 L 89.5,-1059.75 L 89.5,-1010.25 L 89.4625,-1009.65 L 89.3508,-1009.07
 L 89.1664,-1008.5 L 88.9125,-1007.96 L 88.5928,-1007.46 L 88.2126,-1007 L 87.7778,-1006.59 L 87.2952,-1006.24
 L 86.7724,-1005.95 L 86.2178,-1005.73 L 85.6401,-1005.58 L 85.0482,-1005.51 z
M 85.9369,-936.089 L 86.5451,-936.245 L 87.1289,-936.476 L 87.6791,-936.778 L 88.1871,-937.147 L 88.6448,-937.577
 L 89.0451,-938.061 L 89.3815,-938.591 L 89.6489,-939.159 L 89.8429,-939.757 L 89.9606,-940.373 L 90,-941
 L 90,-991 L 89.9606,-991.627 L 89.8429,-992.243 L 89.6489,-992.841 L 89.3815,-993.409 L 89.0451,-993.939
 L 88.6448,-994.423 L 88.1871,-994.853 L 87.6791,-995.222 L 87.1289,-995.524 L 86.5451,-995.755 L 85.9369,-995.911
 L 85.3139,-995.99 L -85.3139,-995.99 L -85.9369,-995.911 L -86.5451,-995.755 L -87.1289,-995.524 L -87.6791,-995.222
 L -88.1871,-994.853 L -88.6448,-994.423 L -89.0451,-993.939 L -89.3815,-993.409 L -89.6489,-992.841 L -89.8429,-992.243
 L -89.9606,-991.627 L -90,-991 L -90,-941 L -89.9606,-940.373 L -89.8429,-939.757 L -89.6489,-939.159
 L -89.3815,-938.591 L -89.0451,-938.061 L -88.6448,-937.577 L -88.1871,-937.147 L -87.6791,-936.778 L -87.1289,-936.476
 L -86.5451,-936.245 L -85.9369,-936.089 L -85.3139,-936.01 L 85.3139,-936.01 z
M -85.0482,-936.509 L -85.6401,-936.584 L -86.2178,-936.732 L -86.7724,-936.952 L -87.2952,-937.239 L -87.7778,-937.59
 L -88.2126,-937.998 L -88.5928,-938.458 L -88.9125,-938.962 L -89.1664,-939.501 L -89.3508,-940.069 L -89.4625,-940.655
 L -89.5,-941.25 L -89.5,-990.75 L -89.4625,-991.345 L -89.3508,-991.931 L -89.1664,-992.499 L -88.9125,-993.038
 L -88.5928,-993.542 L -88.2126,-994.002 L -87.7778,-994.41 L -87.2952,-994.761 L -86.7724,-995.048 L -86.2178,-995.268
 L -85.6401,-995.416 L -85.0482,-995.491 L 85.0482,-995.491 L 85.6401,-995.416 L 86.2178,-995.268 L 86.7724,-995.048
 L 87.2952,-994.761 L 87.7778,-994.41 L 88.2126,-994.002 L 88.5928,-993.542 L 88.9125,-993.038 L 89.1664,-992.499
 L 89.3508,-991.931 L 89.4625,-991.345 L 89.5,-990.75 L 89.5,-941.25 L 89.4625,-940.655 L 89.3508,-940.069
 L 89.1664,-939.501 L 88.9125,-938.962 L 88.5928,-938.458 L 88.2126,-937.998 L 87.7778,-937.59 L 87.2952,-937.239
 L 86.7724,-936.952 L 86.2178,-936.732 L 85.6401,-936.584 L 85.0482,-936.509 z
M 85.9369,-867.089 L 86.5451,-867.245 L 87.1289,-867.476 L 87.6791,-867.778 L 88.1871,-868.147 L 88.6448,-868.577
 L 89.0451,-869.061 L 89.3815,-869.591 L 89.6489,-870.159 L 89.8429,-870.757 L 89.9606,-871.373 L 90,-872
 L 90,-922 L 89.9606,-922.627 L 89.8429,-923.243 L 89.6489,-923.841 L 89.3815,-924.409 L 89.0451,-924.939
 L 88.6448,-925.423 L 88.1871,-925.853 L 87.6791,-926.222 L 87.1289,-926.524 L 86.5451,-926.755 L 85.9369,-926.911
 L 85.3139,-926.99 L -85.3139,-926.99 L -85.9369,-926.911 L -86.5451,-926.755 L -87.1289,-926.524 L -87.6791,-926.222
 L -88.1871,-925.853 L -88.6448,-925.423 L -89.0451,-924.939 L -89.3815,-924.409 L -89.6489,-923.841 L -89.8429,-923.243
 L -89.9606,-922.627 L -90,-922 L -90,-872 L -89.9606,-871.373 L -89.8429,-870.757 L -89.6489,-870.159
 L -89.3815,-869.591 L -89.0451,-869.061 L -88.6448,-868.577 L -88.1871,-868.147 L -87.6791,-867.778 L -87.1289,-867.476
 L -86.5451,-867.245 L -85.9369,-867.089 L -85.3139,-867.01 L 85.3139,-867.01 z
M -85.0482,-867.509 L -85.6401,-867.584 L -86.2178,-867.732 L -86.7724,-867.952 L -87.2952,-868.239 L -87.7778,-868.59
 L -88.2126,-868.998 L -88.5928,-869.458 L -88.9125,-869.962 L -89.1664,-870.501 L -89.3508,-871.069 L -89.4625,-871.655
 L -89.5,-872.25 L -89.5,-921.75 L -89.4625,-922.345 L -89.3508,-922.931 L -89.1664,-923.499 L -88.9125,-924.038
 L -88.5928,-924.542 L -88.2126,-925.002 L -87.7778,-925.41 L -87.2952,-925.761 L -86.7724,-926.048 L -86.2178,-926.268
 L -85.6401,-926.416 L -85.0482,-926.491 L 85.0482,-926.491 L 85.6401,-926.416 L 86.2178,-926.268 L 86.7724,-926.048
 L 87.2952,-925.761 L 87.7778,-925.41 L 88.2126,-925.002 L 88.5928,-924.542 L 88.9125,-924.038 L 89.1664,-923.499
 L 89.3508,-922.931 L 89.4625,-922.345 L 89.5,-921.75 L 89.5,-872.25 L 89.4625,-871.655 L 89.3508,-871.069
 L 89.1664,-870.501 L 88.9125,-869.962 L 88.5928,-869.458 L 88.2126,-868.998 L 87.7778,-868.59 L 87.2952,-868.239
 L 86.7724,-867.952 L 86.2178,-867.732 L 85.6401,-867.584 L 85.0482,-867.509 z
M 85.9369,-798.089 L 86.5451,-798.245 L 87.1289,-798.476 L 87.6791,-798.778 L 88.1871,-799.147 L 88.6448,-799.577
 L 89.0451,-800.061 L 89.3815,-800.591 L 89.6489,-801.159 L 89.8429,-801.757 L 89.9606,-802.373 L 90,-803
 L 90,-853 L 89.9606,-853.627 L 89.8429,-854.243 L 89.6489,-854.841 L 89.3815,-855.409 L 89.0451,-855.939
 L 88.6448,-856.423 L 88.1871,-856.853 L 87.6791,-857.222 L 87.1289,-857.524 L 86.5451,-857.755 L 85.9369,-857.911
 L 85.3139,-857.99 L -85.3139,-857.99 L -85.9369,-857.911 L -86.5451,-857.755 L -87.1289,-857.524 L -87.6791,-857.222
 L -88.1871,-856.853 L -88.6448,-856.423 L -89.0451,-855.939 L -89.3815,-855.409 L -89.6489,-854.841 L -89.8429,-854.243
 L -89.9606,-853.627 L -90,-853 L -90,-803 L -89.9606,-802.373 L -89.8429,-801.757 L -89.6489,-801.159
 L -89.3815,-800.591 L -89.0451,-800.061 L -88.6448,-799.577 L -88.1871,-799.147 L -87.6791,-798.778 L -87.1289,-798.476
 L -86.5451,-798.245 L -85.9369,-798.089 L -85.3139,-798.01 L 85.3139,-798.01 z
M -85.0482,-798.509 L -85.6401,-798.584 L -86.2178,-798.732 L -86.7724,-798.952 L -87.2952,-799.239 L -87.7778,-799.59
 L -88.2126,-799.998 L -88.5928,-800.458 L -88.9125,-800.962 L -89.1664,-801.501 L -89.3508,-802.069 L -89.4625,-802.655
 L -89.5,-803.25 L -89.5,-852.75 L -89.4625,-853.345 L -89.3508,-853.931 L -89.1664,-854.499 L -88.9125,-855.038
 L -88.5928,-855.542 L -88.2126,-856.002 L -87.7778,-856.41 L -87.2952,-856.761 L -86.7724,-857.048 L -86.2178,-857.268
 L -85.6401,-857.416 L -85.0482,-857.491 L 85.0482,-857.491 L 85.6401,-857.416 L 86.2178,-857.268 L 86.7724,-857.048
 L 87.2952,-856.761 L 87.7778,-856.41 L 88.2126,-856.002 L 88.5928,-855.542 L 88.9125,-855.038 L 89.1664,-854.499
 L 89.3508,-853.931 L 89.4625,-853.345 L 89.5,-852.75 L 89.5,-803.25 L 89.4625,-802.655 L 89.3508,-802.069
 L 89.1664,-801.501 L 88.9125,-800.962 L 88.5928,-800.458 L 88.2126,-799.998 L 87.7778,-799.59 L 87.2952,-799.239
 L 86.7724,-798.952 L 86.2178,-798.732 L 85.6401,-798.584 L 85.0482,-798.509 z
M 85.9369,-729.089 L 86.5451,-729.245 L 87.1289,-729.476 L 87.6791,-729.778 L 88.1871,-730.147 L 88.6448,-730.577
 L 89.0451,-731.061 L 89.3815,-731.591 L 89.6489,-732.159 L 89.8429,-732.757 L 89.9606,-733.373 L 90,-734
 L 90,-784 L 89.9606,-784.627 L 89.8429,-785.243 L 89.6489,-785.841 L 89.3815,-786.409 L 89.0451,-786.939
 L 88.6448,-787.423 L 88.1871,-787.853 L 87.6791,-788.222 L 87.1289,-788.524 L 86.5451,-788.755 L 85.9369,-788.911
 L 85.3139,-788.99 L -85.3139,-788.99 L -85.9369,-788.911 L -86.5451,-788.755 L -87.1289,-788.524 L -87.6791,-788.222
 L -88.1871,-787.853 L -88.6448,-787.423 L -89.0451,-786.939 L -89.3815,-786.409 L -89.6489,-785.841 L -89.8429,-785.243
 L -89.9606,-784.627 L -90,-784 L -90,-734 L -89.9606,-733.373 L -89.8429,-732.757 L -89.6489,-732.159
 L -89.3815,-731.591 L -89.0451,-731.061 L -88.6448,-730.577 L -88.1871,-730.147 L -87.6791,-729.778 L -87.1289,-729.476
 L -86.5451,-729.245 L -85.9369,-729.089 L -85.3139,-729.01 L 85.3139,-729.01 z
M -85.0375,-729.681 L -85.6079,-729.753 L -86.1648,-729.896 L -86.6994,-730.107 L -87.2032,-730.384 L -87.6684,-730.722
 L -88.0875,-731.116 L -88.454,-731.559 L -88.7621,-732.044 L -89.0069,-732.565 L -89.1846,-733.111 L -89.2923,-733.676
 L -89.3284,-734.25 L -89.3284,-783.75 L -89.2923,-784.324 L -89.1846,-784.889 L -89.0069,-785.435 L -88.7621,-785.956
 L -88.454,-786.441 L -88.0875,-786.884 L -87.6684,-787.278 L -87.2032,-787.616 L -86.6994,-787.893 L -86.1648,-788.104
 L -85.6079,-788.247 L -85.0375,-788.319 L 85.0375,-788.319 L 85.6079,-788.247 L 86.1648,-788.104 L 86.6994,-787.893
 L 87.2032,-787.616 L 87.6684,-787.278 L 88.0875,-786.884 L 88.454,-786.441 L 88.7621,-785.956 L 89.0069,-785.435
 L 89.1846,-784.889 L 89.2923,-784.324 L 89.3284,-783.75 L 89.3284,-734.25 L 89.2923,-733.676 L 89.1846,-733.111
 L 89.0069,-732.565 L 88.7621,-732.044 L 88.454,-731.559 L 88.0875,-731.116 L 87.6684,-730.722 L 87.2032,-730.384
 L 86.6994,-730.107 L 86.1648,-729.896 L 85.6079,-729.753 L 85.0375,-729.681 z
M 85.9369,-660.089 L 86.5451,-660.245 L 87.1289,-660.476 L 87.6791,-660.778 L 88.1871,-661.147 L 88.6448,-661.577
 L 89.0451,-662.061 L 89.3815,-662.591 L 89.6489,-663.159 L 89.8429,-663.757 L 89.9606,-664.373 L 90,-665
 L 90,-715 L 89.9606,-715.627 L 89.8429,-716.243 L 89.6489,-716.841 L 89.3815,-717.409 L 89.0451,-717.939
 L 88.6448,-718.423 L 88.1871,-718.853 L 87.6791,-719.222 L 87.1289,-719.524 L 86.5451,-719.755 L 85.9369,-719.911
 L 85.3139,-719.99 L -85.3139,-719.99 L -85.9369,-719.911 L -86.5451,-719.755 L -87.1289,-719.524 L -87.6791,-719.222
 L -88.1871,-718.853 L -88.6448,-718.423 L -89.0451,-717.939 L -89.3815,-717.409 L -89.6489,-716.841 L -89.8429,-716.243
 L -89.9606,-715.627 L -90,-715 L -90,-665 L -89.9606,-664.373 L -89.8429,-663.757 L -89.6489,-663.159
 L -89.3815,-662.591 L -89.0451,-662.061 L -88.6448,-661.577 L -88.1871,-661.147 L -87.6791,-660.778 L -87.1289,-660.476
 L -86.5451,-660.245 L -85.9369,-660.089 L -85.3139,-660.01 L 85.3139,-660.01 z
M -84.8825,-663.145 L -85.1453,-663.178 L -85.4019,-663.244 L -85.6482,-663.341 L -85.8804,-663.469 L -86.0947,-663.625
 L -86.2879,-663.806 L -86.4567,-664.01 L -86.5987,-664.234 L -86.7115,-664.473 L -86.7934,-664.725 L -86.843,-664.986
 L -86.8596,-665.25 L -86.8596,-714.75 L -86.843,-715.014 L -86.7934,-715.275 L -86.7115,-715.527 L -86.5987,-715.766
 L -86.4567,-715.99 L -86.2879,-716.194 L -86.0947,-716.375 L -85.8804,-716.531 L -85.6482,-716.659 L -85.4019,-716.756
 L -85.1453,-716.822 L -84.8825,-716.855 L 84.8825,-716.855 L 85.1453,-716.822 L 85.4019,-716.756 L 85.6482,-716.659
 L 85.8804,-716.531 L 86.0947,-716.375 L 86.2879,-716.194 L 86.4567,-715.99 L 86.5987,-715.766 L 86.7115,-715.527
 L 86.7934,-715.275 L 86.843,-715.014 L 86.8596,-714.75 L 86.8596,-665.25 L 86.843,-664.986 L 86.7934,-664.725
 L 86.7115,-664.473 L 86.5987,-664.234 L 86.4567,-664.01 L 86.2879,-663.806 L 86.0947,-663.625 L 85.8804,-663.469
 L 85.6482,-663.341 L 85.4019,-663.244 L 85.1453,-663.178 L 84.8825,-663.145 z
" stroke="black" fill="lightgray" stroke-width="0.5"/>
</svg>
