<?xml version="1.0" standalone="no"?>
<!DOCTYPE svg PUBLIC "-//W3C//DTD SVG 1.1//EN" "http://www.w3.org/Graphics/SVG/1.1/DTD/svg11.dtd">
<svg width="22mm" height="132mm" viewBox="-11 -121 22 132" xmlns="http://www.w3.org/2000/svg" version="1.1">
<title>OpenSCAD Model</title>
<path d="
M 2.01373,-99.4436 L 3.32091,-99.7793 L 4.57573,-100.276 L 5.75838,-100.926 L 6.85022,-101.72 L 7.83401,-102.643
 L 8.69427,-103.683 L 9.41742,-104.823 L 9.99205,-106.044 L 10.4091,-107.327 L 10.662,-108.653 L 10.7467,-110
 L 10.662,-111.347 L 10.4091,-112.673 L 9.99205,-113.956 L 9.41742,-115.177 L 8.69427,-116.317 L 7.83401,-117.357
 L 6.85022,-118.28 L 5.75838,-119.074 L 4.57573,-119.724 L 3.32091,-120.221 L 2.01373,-120.556 L 0.674789,-120.726
 L -0.674789,-120.726 L -2.01373,-120.556 L -3.32091,-120.221 L -4.57573,-119.724 L -5.75838,-119.074 L -6.85022,-118.28
 L -7.83401,-117.357 L -8.69427,-116.317 L -9.41742,-115.177 L -9.99205,-113.956 L -10.4091,-112.673 L -10.662,-111.347
 L -10.7467,-110 L -10.662,-108.653 L -10.4091,-107.327 L -9.99205,-106.044 L -9.41742,-104.823 L -8.69427,-103.683
 L -7.83401,-102.643 L -6.85022,-101.72 L -5.75838,-100.926 L -4.57573,-100.276 L -3.32091,-99.7793 L -2.01373,-99.4436
 L -0.674789,-99.2745 L 0.674789,-99.2745 z
M -0.18837,-107.006 L -0.562134,-107.053 L -0.927048,-107.147 L -1.27733,-107.286 L -1.60747,-107.467 L -1.91226,-107.688
 L -2.1869,-107.946 L -2.42705,-108.237 L -2.62891,-108.555 L -2.78932,-108.896 L -2.90575,-109.254 L -2.97633,-109.624
 L -3,-110 L -2.97633,-110.376 L -2.90575,-110.746 L -2.78932,-111.104 L -2.62891,-111.445 L -2.42705,-111.763
 L -2.1869,-112.054 L -1.91226,-112.312 L -1.60747,-112.533 L -1.27733,-112.714 L -0.927048,-112.853 L -0.562134,-112.947
 L -0.18837,-112.994 L 0.18837,-112.994 L 0.562134,-112.947 L 0.927048,-112.853 L 1.27733,-112.714 L 1.60747,-112.533
 L 1.91226,-112.312 L 2.1869,-112.054 L 2.42705,-111.763 L 2.62891,-111.445 L 2.78932,-111.104 L 2.90575,-110.746
 L 2.97633,-110.376 L 3,-110 L 2.97633,-109.624 L 2.90575,-109.254 L 2.78932,-108.896 L 2.62891,-108.555
 L 2.42705,-108.237 L 2.1869,-107.946 L 1.91226,-107.688 L 1.60747,-107.467 L 1.27733,-107.286 L 0.927048,-107.147
 L 0.562134,-107.053 L 0.18837,-107.006 z
M 2.00063,10.4877 L 3.2993,10.1542 L 4.54596,9.66064 L 5.7209,9.01471 L 6.80565,8.22661 L 7.78305,7.30876
 L 8.63771,6.27567 L 9.35614,5.14359 L 9.92703,3.93039 L 10.3414,2.6552 L 10.5926,1.33815 L 10.6768,-0
 L 10.5926,-1.33815 L 10.3414,-2.6552 L 9.92703,-3.93039 L 9.35614,-5.14359 L 8.63771,-6.27567 L 7.78305,-7.30876
 L 6.80565,-8.22661 L 5.7209,-9.01471 L 4.54596,-9.66064 L 3.2993,-10.1542 L 2.00063,-10.4877 L 0.670395,-10.6557
 L -0.670395,-10.6557 L -2.00063,-10.4877 L -3.2993,-10.1542 L -4.54596,-9.66064 L -5.7209,-9.01471 L -6.80565,-8.22661
 L -7.78305,-7.30876 L -8.63771,-6.27567 L -9.35614,-5.14359 L -9.92703,-3.93039 L -10.3414,-2.6552 L -10.5926,-1.33815
 L -10.6768,-0 L -10.5926,1.33815 L -10.3414,2.6552 L -9.92703,3.93039 L -9.35614,5.14359 L -8.63771,6.27567
 L -7.78305,7.30876 L -6.80565,8.22661 L -5.7209,9.01471 L -4.54596,9.66064 L -3.2993,10.1542 L -2.00063,10.4877
 L -0.670395,10.6557 L 0.670395,10.6557 z
M -0.18837,2.99408 L -0.562134,2.94685 L -0.927048,2.85316 L -1.27733,2.71448 L -1.60747,2.53297 L -1.91226,2.31154
 L -2.1869,2.05363 L -2.42705,1.76335 L -2.62891,1.44525 L -2.78932,1.10437 L -2.90575,0.746063 L -2.97633,0.375992
 L -3,-0 L -2.97633,-0.375992 L -2.90575,-0.746063 L -2.78932,-1.10437 L -2.62891,-1.44525 L -2.42705,-1.76335
 L -2.1869,-2.05363 L -1.91226,-2.31154 L -1.60747,-2.53297 L -1.27733,-2.71448 L -0.927048,-2.85316 L -0.562134,-2.94685
 L -0.18837,-2.99408 L 0.18837,-2.99408 L 0.562134,-2.94685 L 0.927048,-2.85316 L 1.27733,-2.71448 L 1.60747,-2.53297
 L 1.91226,-2.31154 L 2.1869,-2.05363 L 2.42705,-1.76335 L 2.62891,-1.44525 L 2.78932,-1.10437 L 2.90575,-0.746063
 L 2.97633,-0.375992 L 3,-0 L 2.97633,0.375992 L 2.90575,0.746063 L 2.78932,1.10437 L 2.62891,1.44525
 L 2.42705,1.76335 L 2.1869,2.05363 L 1.91226,2.31154 L 1.60747,2.53297 L 1.27733,2.71448 L 0.927048,2.85316
 L 0.562134,2.94685 L 0.18837,2.99408 z
" stroke="black" fill="lightgray" stroke-width="0.5"/>
</svg>
