solid OpenSCAD_Model
  facet normal 0 0 -1
    outer loop
      vertex 10 0 2
      vertex 11.25 0 2
      vertex 11.1613 -1.41 2
    endloop
  endfacet
  facet normal 0 0 -1
    outer loop
      vertex 9.92115 -1.25333 2
      vertex 11.1613 -1.41 2
      vertex 10.8966 -2.79776 2
    endloop
  endfacet
  facet normal 0 0 -1
    outer loop
      vertex 11.25 0 2
      vertex 10 0 2
      vertex 11.1613 1.41 2
    endloop
  endfacet
  facet normal 0 0 -1
    outer loop
      vertex 9.68583 -2.4869 2
      vertex 10.8966 -2.79776 2
      vertex 10.46 -4.1414 2
    endloop
  endfacet
  facet normal 0 0 -1
    outer loop
      vertex 9.92115 1.25333 2
      vertex 11.1613 1.41 2
      vertex 10 0 2
    endloop
  endfacet
  facet normal -0 0 -1
    outer loop
      vertex 11.1613 1.41 2
      vertex 9.92115 1.25333 2
      vertex 10.8966 2.79776 2
    endloop
  endfacet
  facet normal 0 0 -1
    outer loop
      vertex 11.1613 -1.41 2
      vertex 9.92115 -1.25333 2
      vertex 10 0 2
    endloop
  endfacet
  facet normal 0 0 -1
    outer loop
      vertex 9.29776 -3.68124 2
      vertex 10.46 -4.1414 2
      vertex 9.85845 -5.41973 2
    endloop
  endfacet
  facet normal 0 0 -1
    outer loop
      vertex 10.8966 -2.79776 2
      vertex 9.68583 -2.4869 2
      vertex 9.92115 -1.25333 2
    endloop
  endfacet
  facet normal 0 0 -1
    outer loop
      vertex 10.46 -4.1414 2
      vertex 9.29776 -3.68124 2
      vertex 9.68583 -2.4869 2
    endloop
  endfacet
  facet normal 0 0 -1
    outer loop
      vertex 8.76307 -4.81754 2
      vertex 9.85845 -5.41973 2
      vertex 9.10144 -6.61258 2
    endloop
  endfacet
  facet normal 0 0 -1
    outer loop
      vertex 9.85845 -5.41973 2
      vertex 8.76307 -4.81754 2
      vertex 9.29776 -3.68124 2
    endloop
  endfacet
  facet normal 0 0 -1
    outer loop
      vertex 8.09017 -5.87785 2
      vertex 9.10144 -6.61258 2
      vertex 8.2009 -7.70115 2
    endloop
  endfacet
  facet normal 0 0 -1
    outer loop
      vertex 9.10144 -6.61258 2
      vertex 8.09017 -5.87785 2
      vertex 8.76307 -4.81754 2
    endloop
  endfacet
  facet normal 0 0 -1
    outer loop
      vertex 8.2009 -7.70115 2
      vertex 7.28969 -6.84547 2
      vertex 8.09017 -5.87785 2
    endloop
  endfacet
  facet normal 0 0 -1
    outer loop
      vertex 7.17102 -8.66827 2
      vertex 7.28969 -6.84547 2
      vertex 8.2009 -7.70115 2
    endloop
  endfacet
  facet normal 0 0 -1
    outer loop
      vertex 7.17102 -8.66827 2
      vertex 6.37424 -7.70513 2
      vertex 7.28969 -6.84547 2
    endloop
  endfacet
  facet normal 0 0 -1
    outer loop
      vertex 6.02805 -9.49869 2
      vertex 6.37424 -7.70513 2
      vertex 7.17102 -8.66827 2
    endloop
  endfacet
  facet normal 0 0 -1
    outer loop
      vertex 6.02805 -9.49869 2
      vertex 5.35827 -8.44328 2
      vertex 6.37424 -7.70513 2
    endloop
  endfacet
  facet normal 0 0 -1
    outer loop
      vertex 4.79002 -10.1793 2
      vertex 5.35827 -8.44328 2
      vertex 6.02805 -9.49869 2
    endloop
  endfacet
  facet normal 0 0 -1
    outer loop
      vertex 4.79002 -10.1793 2
      vertex 4.25779 -9.04827 2
      vertex 5.35827 -8.44328 2
    endloop
  endfacet
  facet normal 0 0 -1
    outer loop
      vertex 3.47644 -10.6994 2
      vertex 4.25779 -9.04827 2
      vertex 4.79002 -10.1793 2
    endloop
  endfacet
  facet normal 0 0 -1
    outer loop
      vertex 3.47644 -10.6994 2
      vertex 3.09017 -9.51056 2
      vertex 4.25779 -9.04827 2
    endloop
  endfacet
  facet normal 0 0 -1
    outer loop
      vertex 2.10804 -11.0507 2
      vertex 3.09017 -9.51056 2
      vertex 3.47644 -10.6994 2
    endloop
  endfacet
  facet normal 0 0 -1
    outer loop
      vertex 2.10804 -11.0507 2
      vertex 1.87381 -9.82287 2
      vertex 3.09017 -9.51056 2
    endloop
  endfacet
  facet normal 0 0 -1
    outer loop
      vertex 0.706393 -11.2278 2
      vertex 1.87381 -9.82287 2
      vertex 2.10804 -11.0507 2
    endloop
  endfacet
  facet normal 0 0 -1
    outer loop
      vertex 0.706393 -11.2278 2
      vertex 0.627905 -9.98027 2
      vertex 1.87381 -9.82287 2
    endloop
  endfacet
  facet normal 0 0 -1
    outer loop
      vertex 0.706393 -11.2278 2
      vertex -0.627905 -9.98027 2
      vertex 0.627905 -9.98027 2
    endloop
  endfacet
  facet normal 0 0 -1
    outer loop
      vertex -0.706393 -11.2278 2
      vertex -0.627905 -9.98027 2
      vertex 0.706393 -11.2278 2
    endloop
  endfacet
  facet normal 0 0 -1
    outer loop
      vertex -0.706393 -11.2278 2
      vertex -1.87381 -9.82287 2
      vertex -0.627905 -9.98027 2
    endloop
  endfacet
  facet normal 0 0 -1
    outer loop
      vertex -2.10804 -11.0507 2
      vertex -1.87381 -9.82287 2
      vertex -0.706393 -11.2278 2
    endloop
  endfacet
  facet normal 0 0 -1
    outer loop
      vertex -2.10804 -11.0507 2
      vertex -3.09017 -9.51056 2
      vertex -1.87381 -9.82287 2
    endloop
  endfacet
  facet normal 0 0 -1
    outer loop
      vertex -3.47644 -10.6994 2
      vertex -3.09017 -9.51056 2
      vertex -2.10804 -11.0507 2
    endloop
  endfacet
  facet normal 0 0 -1
    outer loop
      vertex -3.47644 -10.6994 2
      vertex -4.25779 -9.04827 2
      vertex -3.09017 -9.51056 2
    endloop
  endfacet
  facet normal 0 0 -1
    outer loop
      vertex -4.79002 -10.1793 2
      vertex -4.25779 -9.04827 2
      vertex -3.47644 -10.6994 2
    endloop
  endfacet
  facet normal 0 0 -1
    outer loop
      vertex -4.79002 -10.1793 2
      vertex -5.35827 -8.44328 2
      vertex -4.25779 -9.04827 2
    endloop
  endfacet
  facet normal 0 0 -1
    outer loop
      vertex -6.02805 -9.49869 2
      vertex -5.35827 -8.44328 2
      vertex -4.79002 -10.1793 2
    endloop
  endfacet
  facet normal 0 0 -1
    outer loop
      vertex -6.02805 -9.49869 2
      vertex -6.37424 -7.70513 2
      vertex -5.35827 -8.44328 2
    endloop
  endfacet
  facet normal 0 0 -1
    outer loop
      vertex -7.17102 -8.66827 2
      vertex -6.37424 -7.70513 2
      vertex -6.02805 -9.49869 2
    endloop
  endfacet
  facet normal 0 0 -1
    outer loop
      vertex -7.17102 -8.66827 2
      vertex -7.28969 -6.84547 2
      vertex -6.37424 -7.70513 2
    endloop
  endfacet
  facet normal 0 0 -1
    outer loop
      vertex -8.2009 -7.70115 2
      vertex -7.28969 -6.84547 2
      vertex -7.17102 -8.66827 2
    endloop
  endfacet
  facet normal -0 0 -1
    outer loop
      vertex -7.28969 -6.84547 2
      vertex -8.2009 -7.70115 2
      vertex -8.09017 -5.87785 2
    endloop
  endfacet
  facet normal 0 0 -1
    outer loop
      vertex -9.10144 -6.61258 2
      vertex -8.09017 -5.87785 2
      vertex -8.2009 -7.70115 2
    endloop
  endfacet
  facet normal -0 0 -1
    outer loop
      vertex -8.09017 -5.87785 2
      vertex -9.10144 -6.61258 2
      vertex -8.76307 -4.81754 2
    endloop
  endfacet
  facet normal 0 0 -1
    outer loop
      vertex -9.85845 -5.41973 2
      vertex -8.76307 -4.81754 2
      vertex -9.10144 -6.61258 2
    endloop
  endfacet
  facet normal -0 0 -1
    outer loop
      vertex -8.76307 -4.81754 2
      vertex -9.85845 -5.41973 2
      vertex -9.29776 -3.68124 2
    endloop
  endfacet
  facet normal 0 0 -1
    outer loop
      vertex -10.46 -4.1414 2
      vertex -9.29776 -3.68124 2
      vertex -9.85845 -5.41973 2
    endloop
  endfacet
  facet normal -0 0 -1
    outer loop
      vertex -9.29776 -3.68124 2
      vertex -10.46 -4.1414 2
      vertex -9.68583 -2.4869 2
    endloop
  endfacet
  facet normal 0 0 -1
    outer loop
      vertex -10.8966 -2.79776 2
      vertex -9.68583 -2.4869 2
      vertex -10.46 -4.1414 2
    endloop
  endfacet
  facet normal -0 0 -1
    outer loop
      vertex -9.68583 -2.4869 2
      vertex -10.8966 -2.79776 2
      vertex -9.92115 -1.25333 2
    endloop
  endfacet
  facet normal 0 0 -1
    outer loop
      vertex 9.68583 2.4869 2
      vertex 10.8966 2.79776 2
      vertex 9.92115 1.25333 2
    endloop
  endfacet
  facet normal -0 0 -1
    outer loop
      vertex 10.8966 2.79776 2
      vertex 9.68583 2.4869 2
      vertex 10.46 4.1414 2
    endloop
  endfacet
  facet normal 0 0 -1
    outer loop
      vertex 9.29776 3.68124 2
      vertex 10.46 4.1414 2
      vertex 9.68583 2.4869 2
    endloop
  endfacet
  facet normal -0 0 -1
    outer loop
      vertex 10.46 4.1414 2
      vertex 9.29776 3.68124 2
      vertex 9.85845 5.41973 2
    endloop
  endfacet
  facet normal 0 0 -1
    outer loop
      vertex 8.76307 4.81754 2
      vertex 9.85845 5.41973 2
      vertex 9.29776 3.68124 2
    endloop
  endfacet
  facet normal -0 0 -1
    outer loop
      vertex 9.85845 5.41973 2
      vertex 8.76307 4.81754 2
      vertex 9.10144 6.61258 2
    endloop
  endfacet
  facet normal 0 0 -1
    outer loop
      vertex 8.09017 5.87785 2
      vertex 9.10144 6.61258 2
      vertex 8.76307 4.81754 2
    endloop
  endfacet
  facet normal -0 0 -1
    outer loop
      vertex 9.10144 6.61258 2
      vertex 8.09017 5.87785 2
      vertex 8.2009 7.70115 2
    endloop
  endfacet
  facet normal 0 0 -1
    outer loop
      vertex 7.28969 6.84547 2
      vertex 8.2009 7.70115 2
      vertex 8.09017 5.87785 2
    endloop
  endfacet
  facet normal 0 0 -1
    outer loop
      vertex 7.28969 6.84547 2
      vertex 7.17102 8.66827 2
      vertex 8.2009 7.70115 2
    endloop
  endfacet
  facet normal 0 0 -1
    outer loop
      vertex 6.37424 7.70513 2
      vertex 7.17102 8.66827 2
      vertex 7.28969 6.84547 2
    endloop
  endfacet
  facet normal 0 0 -1
    outer loop
      vertex 6.37424 7.70513 2
      vertex 6.02805 9.49869 2
      vertex 7.17102 8.66827 2
    endloop
  endfacet
  facet normal 0 0 -1
    outer loop
      vertex 5.35827 8.44328 2
      vertex 6.02805 9.49869 2
      vertex 6.37424 7.70513 2
    endloop
  endfacet
  facet normal 0 0 -1
    outer loop
      vertex 5.35827 8.44328 2
      vertex 4.79002 10.1793 2
      vertex 6.02805 9.49869 2
    endloop
  endfacet
  facet normal 0 0 -1
    outer loop
      vertex 4.25779 9.04827 2
      vertex 4.79002 10.1793 2
      vertex 5.35827 8.44328 2
    endloop
  endfacet
  facet normal 0 0 -1
    outer loop
      vertex 4.25779 9.04827 2
      vertex 3.47644 10.6994 2
      vertex 4.79002 10.1793 2
    endloop
  endfacet
  facet normal 0 0 -1
    outer loop
      vertex 3.09017 9.51056 2
      vertex 3.47644 10.6994 2
      vertex 4.25779 9.04827 2
    endloop
  endfacet
  facet normal 0 0 -1
    outer loop
      vertex 3.09017 9.51056 2
      vertex 2.10804 11.0507 2
      vertex 3.47644 10.6994 2
    endloop
  endfacet
  facet normal 0 0 -1
    outer loop
      vertex 1.87381 9.82287 2
      vertex 2.10804 11.0507 2
      vertex 3.09017 9.51056 2
    endloop
  endfacet
  facet normal 0 0 -1
    outer loop
      vertex 1.87381 9.82287 2
      vertex 0.706393 11.2278 2
      vertex 2.10804 11.0507 2
    endloop
  endfacet
  facet normal 0 0 -1
    outer loop
      vertex 0.627905 9.98027 2
      vertex 0.706393 11.2278 2
      vertex 1.87381 9.82287 2
    endloop
  endfacet
  facet normal 0 0 -1
    outer loop
      vertex -0.627905 9.98027 2
      vertex 0.706393 11.2278 2
      vertex 0.627905 9.98027 2
    endloop
  endfacet
  facet normal 0 0 -1
    outer loop
      vertex -0.627905 9.98027 2
      vertex -0.706393 11.2278 2
      vertex 0.706393 11.2278 2
    endloop
  endfacet
  facet normal 0 0 -1
    outer loop
      vertex -1.87381 9.82287 2
      vertex -0.706393 11.2278 2
      vertex -0.627905 9.98027 2
    endloop
  endfacet
  facet normal 0 0 -1
    outer loop
      vertex -1.87381 9.82287 2
      vertex -2.10804 11.0507 2
      vertex -0.706393 11.2278 2
    endloop
  endfacet
  facet normal 0 0 -1
    outer loop
      vertex -3.09017 9.51056 2
      vertex -2.10804 11.0507 2
      vertex -1.87381 9.82287 2
    endloop
  endfacet
  facet normal 0 0 -1
    outer loop
      vertex -3.09017 9.51056 2
      vertex -3.47644 10.6994 2
      vertex -2.10804 11.0507 2
    endloop
  endfacet
  facet normal 0 0 -1
    outer loop
      vertex -4.25779 9.04827 2
      vertex -3.47644 10.6994 2
      vertex -3.09017 9.51056 2
    endloop
  endfacet
  facet normal 0 0 -1
    outer loop
      vertex -4.25779 9.04827 2
      vertex -4.79002 10.1793 2
      vertex -3.47644 10.6994 2
    endloop
  endfacet
  facet normal 0 0 -1
    outer loop
      vertex -5.35827 8.44328 2
      vertex -4.79002 10.1793 2
      vertex -4.25779 9.04827 2
    endloop
  endfacet
  facet normal 0 0 -1
    outer loop
      vertex -5.35827 8.44328 2
      vertex -6.02805 9.49869 2
      vertex -4.79002 10.1793 2
    endloop
  endfacet
  facet normal 0 0 -1
    outer loop
      vertex -6.37424 7.70513 2
      vertex -6.02805 9.49869 2
      vertex -5.35827 8.44328 2
    endloop
  endfacet
  facet normal 0 0 -1
    outer loop
      vertex -6.37424 7.70513 2
      vertex -7.17102 8.66827 2
      vertex -6.02805 9.49869 2
    endloop
  endfacet
  facet normal 0 0 -1
    outer loop
      vertex -7.28969 6.84547 2
      vertex -7.17102 8.66827 2
      vertex -6.37424 7.70513 2
    endloop
  endfacet
  facet normal 0 0 -1
    outer loop
      vertex -8.2009 7.70115 2
      vertex -7.28969 6.84547 2
      vertex -8.09017 5.87785 2
    endloop
  endfacet
  facet normal 0 0 -1
    outer loop
      vertex -7.28969 6.84547 2
      vertex -8.2009 7.70115 2
      vertex -7.17102 8.66827 2
    endloop
  endfacet
  facet normal 0 0 -1
    outer loop
      vertex -9.10144 6.61258 2
      vertex -8.09017 5.87785 2
      vertex -8.76307 4.81754 2
    endloop
  endfacet
  facet normal 0 0 -1
    outer loop
      vertex -8.09017 5.87785 2
      vertex -9.10144 6.61258 2
      vertex -8.2009 7.70115 2
    endloop
  endfacet
  facet normal 0 0 -1
    outer loop
      vertex -9.85845 5.41973 2
      vertex -8.76307 4.81754 2
      vertex -9.29776 3.68124 2
    endloop
  endfacet
  facet normal 0 0 -1
    outer loop
      vertex -10.46 4.1414 2
      vertex -9.29776 3.68124 2
      vertex -9.68583 2.4869 2
    endloop
  endfacet
  facet normal 0 0 -1
    outer loop
      vertex -8.76307 4.81754 2
      vertex -9.85845 5.41973 2
      vertex -9.10144 6.61258 2
    endloop
  endfacet
  facet normal 0 0 -1
    outer loop
      vertex -10.8966 2.79776 2
      vertex -9.68583 2.4869 2
      vertex -9.92115 1.25333 2
    endloop
  endfacet
  facet normal 0 0 -1
    outer loop
      vertex -11.1613 1.41 2
      vertex -9.92115 1.25333 2
      vertex -10 0 2
    endloop
  endfacet
  facet normal 0 0 -1
    outer loop
      vertex -11.1613 -1.41 2
      vertex -9.92115 -1.25333 2
      vertex -10.8966 -2.79776 2
    endloop
  endfacet
  facet normal 0 0 -1
    outer loop
      vertex -9.29776 3.68124 2
      vertex -10.46 4.1414 2
      vertex -9.85845 5.41973 2
    endloop
  endfacet
  facet normal -0 0 -1
    outer loop
      vertex -9.92115 -1.25333 2
      vertex -11.1613 -1.41 2
      vertex -10 0 2
    endloop
  endfacet
  facet normal 0 0 -1
    outer loop
      vertex -9.68583 2.4869 2
      vertex -10.8966 2.79776 2
      vertex -10.46 4.1414 2
    endloop
  endfacet
  facet normal 0 0 -1
    outer loop
      vertex -11.25 0 2
      vertex -10 0 2
      vertex -11.1613 -1.41 2
    endloop
  endfacet
  facet normal 0 0 -1
    outer loop
      vertex -9.92115 1.25333 2
      vertex -11.1613 1.41 2
      vertex -10.8966 2.79776 2
    endloop
  endfacet
  facet normal 0 0 -1
    outer loop
      vertex -10 0 2
      vertex -11.25 0 2
      vertex -11.1613 1.41 2
    endloop
  endfacet
  facet normal 0.998027 0.0627883 0
    outer loop
      vertex 10 0 2
      vertex 9.92115 1.25333 0
      vertex 9.92115 1.25333 2
    endloop
  endfacet
  facet normal 0.998027 0.0627883 0
    outer loop
      vertex 9.92115 1.25333 0
      vertex 10 0 2
      vertex 10 0 0
    endloop
  endfacet
  facet normal -0.998027 0.0627883 0
    outer loop
      vertex -10 0 0
      vertex -9.92115 1.25333 2
      vertex -9.92115 1.25333 0
    endloop
  endfacet
  facet normal -0.998027 0.0627883 0
    outer loop
      vertex -9.92115 1.25333 2
      vertex -10 0 0
      vertex -10 0 2
    endloop
  endfacet
  facet normal 0 1 -0
    outer loop
      vertex 0.627905 9.98027 0
      vertex -0.627905 9.98027 2
      vertex 0.627905 9.98027 2
    endloop
  endfacet
  facet normal 0 1 0
    outer loop
      vertex -0.627905 9.98027 2
      vertex 0.627905 9.98027 0
      vertex -0.627905 9.98027 0
    endloop
  endfacet
  facet normal 0 -1 0
    outer loop
      vertex -0.627905 -9.98027 0
      vertex 0.627905 -9.98027 2
      vertex -0.627905 -9.98027 2
    endloop
  endfacet
  facet normal 0 -1 -0
    outer loop
      vertex 0.627905 -9.98027 2
      vertex -0.627905 -9.98027 0
      vertex 0.627905 -9.98027 0
    endloop
  endfacet
  facet normal 0.684545 0.728971 -0
    outer loop
      vertex 7.28969 6.84547 0
      vertex 6.37424 7.70513 2
      vertex 7.28969 6.84547 2
    endloop
  endfacet
  facet normal 0.684545 0.728971 0
    outer loop
      vertex 6.37424 7.70513 2
      vertex 7.28969 6.84547 0
      vertex 6.37424 7.70513 0
    endloop
  endfacet
  facet normal -0.684545 0.728971 0
    outer loop
      vertex -6.37424 7.70513 0
      vertex -7.28969 6.84547 2
      vertex -6.37424 7.70513 2
    endloop
  endfacet
  facet normal -0.684545 0.728971 0
    outer loop
      vertex -7.28969 6.84547 2
      vertex -6.37424 7.70513 0
      vertex -7.28969 6.84547 0
    endloop
  endfacet
  facet normal -0.368122 0.929777 0
    outer loop
      vertex -3.09017 9.51056 0
      vertex -4.25779 9.04827 2
      vertex -3.09017 9.51056 2
    endloop
  endfacet
  facet normal -0.368122 0.929777 0
    outer loop
      vertex -4.25779 9.04827 2
      vertex -3.09017 9.51056 0
      vertex -4.25779 9.04827 0
    endloop
  endfacet
  facet normal 0.904831 0.425771 0
    outer loop
      vertex 9.29776 3.68124 2
      vertex 8.76307 4.81754 0
      vertex 8.76307 4.81754 2
    endloop
  endfacet
  facet normal 0.904831 0.425771 0
    outer loop
      vertex 8.76307 4.81754 0
      vertex 9.29776 3.68124 2
      vertex 9.29776 3.68124 0
    endloop
  endfacet
  facet normal 0.844325 0.535831 0
    outer loop
      vertex 8.76307 4.81754 2
      vertex 8.09017 5.87785 0
      vertex 8.09017 5.87785 2
    endloop
  endfacet
  facet normal 0.844325 0.535831 0
    outer loop
      vertex 8.09017 5.87785 0
      vertex 8.76307 4.81754 2
      vertex 8.76307 4.81754 0
    endloop
  endfacet
  facet normal 0.368122 0.929777 -0
    outer loop
      vertex 4.25779 9.04827 0
      vertex 3.09017 9.51056 2
      vertex 4.25779 9.04827 2
    endloop
  endfacet
  facet normal 0.368122 0.929777 0
    outer loop
      vertex 3.09017 9.51056 2
      vertex 4.25779 9.04827 0
      vertex 3.09017 9.51056 0
    endloop
  endfacet
  facet normal 0.248691 0.968583 -0
    outer loop
      vertex 3.09017 9.51056 0
      vertex 1.87381 9.82287 2
      vertex 3.09017 9.51056 2
    endloop
  endfacet
  facet normal 0.248691 0.968583 0
    outer loop
      vertex 1.87381 9.82287 2
      vertex 3.09017 9.51056 0
      vertex 1.87381 9.82287 0
    endloop
  endfacet
  facet normal 0.481751 0.876308 -0
    outer loop
      vertex 5.35827 8.44328 0
      vertex 4.25779 9.04827 2
      vertex 5.35827 8.44328 2
    endloop
  endfacet
  facet normal 0.481751 0.876308 0
    outer loop
      vertex 4.25779 9.04827 2
      vertex 5.35827 8.44328 0
      vertex 4.25779 9.04827 0
    endloop
  endfacet
  facet normal -0.904831 0.425771 0
    outer loop
      vertex -9.29776 3.68124 0
      vertex -8.76307 4.81754 2
      vertex -8.76307 4.81754 0
    endloop
  endfacet
  facet normal -0.904831 0.425771 0
    outer loop
      vertex -8.76307 4.81754 2
      vertex -9.29776 3.68124 0
      vertex -9.29776 3.68124 2
    endloop
  endfacet
  facet normal -0.770515 0.637422 0
    outer loop
      vertex -8.09017 5.87785 0
      vertex -7.28969 6.84547 2
      vertex -7.28969 6.84547 0
    endloop
  endfacet
  facet normal -0.770515 0.637422 0
    outer loop
      vertex -7.28969 6.84547 2
      vertex -8.09017 5.87785 0
      vertex -8.09017 5.87785 2
    endloop
  endfacet
  facet normal -0.951055 0.309021 0
    outer loop
      vertex -9.68583 2.4869 0
      vertex -9.29776 3.68124 2
      vertex -9.29776 3.68124 0
    endloop
  endfacet
  facet normal -0.951055 0.309021 0
    outer loop
      vertex -9.29776 3.68124 2
      vertex -9.68583 2.4869 0
      vertex -9.68583 2.4869 2
    endloop
  endfacet
  facet normal -0.481751 0.876308 0
    outer loop
      vertex -4.25779 9.04827 0
      vertex -5.35827 8.44328 2
      vertex -4.25779 9.04827 2
    endloop
  endfacet
  facet normal -0.481751 0.876308 0
    outer loop
      vertex -5.35827 8.44328 2
      vertex -4.25779 9.04827 0
      vertex -5.35827 8.44328 0
    endloop
  endfacet
  facet normal -0.125338 0.992114 0
    outer loop
      vertex -0.627905 9.98027 0
      vertex -1.87381 9.82287 2
      vertex -0.627905 9.98027 2
    endloop
  endfacet
  facet normal -0.125338 0.992114 0
    outer loop
      vertex -1.87381 9.82287 2
      vertex -0.627905 9.98027 0
      vertex -1.87381 9.82287 0
    endloop
  endfacet
  facet normal 0.125338 -0.992114 0
    outer loop
      vertex 0.627905 -9.98027 0
      vertex 1.87381 -9.82287 2
      vertex 0.627905 -9.98027 2
    endloop
  endfacet
  facet normal 0.125338 -0.992114 0
    outer loop
      vertex 1.87381 -9.82287 2
      vertex 0.627905 -9.98027 0
      vertex 1.87381 -9.82287 0
    endloop
  endfacet
  facet normal 0.368122 -0.929777 0
    outer loop
      vertex 3.09017 -9.51056 0
      vertex 4.25779 -9.04827 2
      vertex 3.09017 -9.51056 2
    endloop
  endfacet
  facet normal 0.368122 -0.929777 0
    outer loop
      vertex 4.25779 -9.04827 2
      vertex 3.09017 -9.51056 0
      vertex 4.25779 -9.04827 0
    endloop
  endfacet
  facet normal 0.951055 0.309021 0
    outer loop
      vertex 9.68583 2.4869 2
      vertex 9.29776 3.68124 0
      vertex 9.29776 3.68124 2
    endloop
  endfacet
  facet normal 0.951055 0.309021 0
    outer loop
      vertex 9.29776 3.68124 0
      vertex 9.68583 2.4869 2
      vertex 9.68583 2.4869 0
    endloop
  endfacet
  facet normal 0.982287 0.187384 0
    outer loop
      vertex 9.92115 1.25333 2
      vertex 9.68583 2.4869 0
      vertex 9.68583 2.4869 2
    endloop
  endfacet
  facet normal 0.982287 0.187384 0
    outer loop
      vertex 9.68583 2.4869 0
      vertex 9.92115 1.25333 2
      vertex 9.92115 1.25333 0
    endloop
  endfacet
  facet normal 0.770515 0.637422 0
    outer loop
      vertex 8.09017 5.87785 2
      vertex 7.28969 6.84547 0
      vertex 7.28969 6.84547 2
    endloop
  endfacet
  facet normal 0.770515 0.637422 0
    outer loop
      vertex 7.28969 6.84547 0
      vertex 8.09017 5.87785 2
      vertex 8.09017 5.87785 0
    endloop
  endfacet
  facet normal 0.125338 0.992114 -0
    outer loop
      vertex 1.87381 9.82287 0
      vertex 0.627905 9.98027 2
      vertex 1.87381 9.82287 2
    endloop
  endfacet
  facet normal 0.125338 0.992114 0
    outer loop
      vertex 0.627905 9.98027 2
      vertex 1.87381 9.82287 0
      vertex 0.627905 9.98027 0
    endloop
  endfacet
  facet normal 0.587788 0.809015 -0
    outer loop
      vertex 6.37424 7.70513 0
      vertex 5.35827 8.44328 2
      vertex 6.37424 7.70513 2
    endloop
  endfacet
  facet normal 0.587788 0.809015 0
    outer loop
      vertex 5.35827 8.44328 2
      vertex 6.37424 7.70513 0
      vertex 5.35827 8.44328 0
    endloop
  endfacet
  facet normal -0.844325 0.535831 0
    outer loop
      vertex -8.76307 4.81754 0
      vertex -8.09017 5.87785 2
      vertex -8.09017 5.87785 0
    endloop
  endfacet
  facet normal -0.844325 0.535831 0
    outer loop
      vertex -8.09017 5.87785 2
      vertex -8.76307 4.81754 0
      vertex -8.76307 4.81754 2
    endloop
  endfacet
  facet normal -0.982287 0.187384 0
    outer loop
      vertex -9.92115 1.25333 0
      vertex -9.68583 2.4869 2
      vertex -9.68583 2.4869 0
    endloop
  endfacet
  facet normal -0.982287 0.187384 0
    outer loop
      vertex -9.68583 2.4869 2
      vertex -9.92115 1.25333 0
      vertex -9.92115 1.25333 2
    endloop
  endfacet
  facet normal -0.587788 0.809015 0
    outer loop
      vertex -5.35827 8.44328 0
      vertex -6.37424 7.70513 2
      vertex -5.35827 8.44328 2
    endloop
  endfacet
  facet normal -0.587788 0.809015 0
    outer loop
      vertex -6.37424 7.70513 2
      vertex -5.35827 8.44328 0
      vertex -6.37424 7.70513 0
    endloop
  endfacet
  facet normal -0.248691 0.968583 0
    outer loop
      vertex -1.87381 9.82287 0
      vertex -3.09017 9.51056 2
      vertex -1.87381 9.82287 2
    endloop
  endfacet
  facet normal -0.248691 0.968583 0
    outer loop
      vertex -3.09017 9.51056 2
      vertex -1.87381 9.82287 0
      vertex -3.09017 9.51056 0
    endloop
  endfacet
  facet normal 0.998027 -0.0627883 0
    outer loop
      vertex 9.92115 -1.25333 2
      vertex 10 0 0
      vertex 10 0 2
    endloop
  endfacet
  facet normal 0.998027 -0.0627883 0
    outer loop
      vertex 10 0 0
      vertex 9.92115 -1.25333 2
      vertex 9.92115 -1.25333 0
    endloop
  endfacet
  facet normal 0.770515 -0.637422 0
    outer loop
      vertex 7.28969 -6.84547 2
      vertex 8.09017 -5.87785 0
      vertex 8.09017 -5.87785 2
    endloop
  endfacet
  facet normal 0.770515 -0.637422 0
    outer loop
      vertex 8.09017 -5.87785 0
      vertex 7.28969 -6.84547 2
      vertex 7.28969 -6.84547 0
    endloop
  endfacet
  facet normal 0.951055 -0.309021 0
    outer loop
      vertex 9.29776 -3.68124 2
      vertex 9.68583 -2.4869 0
      vertex 9.68583 -2.4869 2
    endloop
  endfacet
  facet normal 0.951055 -0.309021 0
    outer loop
      vertex 9.68583 -2.4869 0
      vertex 9.29776 -3.68124 2
      vertex 9.29776 -3.68124 0
    endloop
  endfacet
  facet normal 0.982287 -0.187384 0
    outer loop
      vertex 9.68583 -2.4869 2
      vertex 9.92115 -1.25333 0
      vertex 9.92115 -1.25333 2
    endloop
  endfacet
  facet normal 0.982287 -0.187384 0
    outer loop
      vertex 9.92115 -1.25333 0
      vertex 9.68583 -2.4869 2
      vertex 9.68583 -2.4869 0
    endloop
  endfacet
  facet normal -0.770515 -0.637422 0
    outer loop
      vertex -7.28969 -6.84547 0
      vertex -8.09017 -5.87785 2
      vertex -8.09017 -5.87785 0
    endloop
  endfacet
  facet normal -0.770515 -0.637422 0
    outer loop
      vertex -8.09017 -5.87785 2
      vertex -7.28969 -6.84547 0
      vertex -7.28969 -6.84547 2
    endloop
  endfacet
  facet normal 0.844325 -0.535831 0
    outer loop
      vertex 8.09017 -5.87785 2
      vertex 8.76307 -4.81754 0
      vertex 8.76307 -4.81754 2
    endloop
  endfacet
  facet normal 0.844325 -0.535831 0
    outer loop
      vertex 8.76307 -4.81754 0
      vertex 8.09017 -5.87785 2
      vertex 8.09017 -5.87785 0
    endloop
  endfacet
  facet normal -0.951055 -0.309021 0
    outer loop
      vertex -9.29776 -3.68124 0
      vertex -9.68583 -2.4869 2
      vertex -9.68583 -2.4869 0
    endloop
  endfacet
  facet normal -0.951055 -0.309021 0
    outer loop
      vertex -9.68583 -2.4869 2
      vertex -9.29776 -3.68124 0
      vertex -9.29776 -3.68124 2
    endloop
  endfacet
  facet normal 0.248691 -0.968583 0
    outer loop
      vertex 1.87381 -9.82287 0
      vertex 3.09017 -9.51056 2
      vertex 1.87381 -9.82287 2
    endloop
  endfacet
  facet normal 0.248691 -0.968583 0
    outer loop
      vertex 3.09017 -9.51056 2
      vertex 1.87381 -9.82287 0
      vertex 3.09017 -9.51056 0
    endloop
  endfacet
  facet normal 0.684545 -0.728971 0
    outer loop
      vertex 6.37424 -7.70513 0
      vertex 7.28969 -6.84547 2
      vertex 6.37424 -7.70513 2
    endloop
  endfacet
  facet normal 0.684545 -0.728971 0
    outer loop
      vertex 7.28969 -6.84547 2
      vertex 6.37424 -7.70513 0
      vertex 7.28969 -6.84547 0
    endloop
  endfacet
  facet normal 0.587788 -0.809015 0
    outer loop
      vertex 5.35827 -8.44328 0
      vertex 6.37424 -7.70513 2
      vertex 5.35827 -8.44328 2
    endloop
  endfacet
  facet normal 0.587788 -0.809015 0
    outer loop
      vertex 6.37424 -7.70513 2
      vertex 5.35827 -8.44328 0
      vertex 6.37424 -7.70513 0
    endloop
  endfacet
  facet normal 0.481751 -0.876308 0
    outer loop
      vertex 4.25779 -9.04827 0
      vertex 5.35827 -8.44328 2
      vertex 4.25779 -9.04827 2
    endloop
  endfacet
  facet normal 0.481751 -0.876308 0
    outer loop
      vertex 5.35827 -8.44328 2
      vertex 4.25779 -9.04827 0
      vertex 5.35827 -8.44328 0
    endloop
  endfacet
  facet normal 0.904831 -0.425771 0
    outer loop
      vertex 8.76307 -4.81754 2
      vertex 9.29776 -3.68124 0
      vertex 9.29776 -3.68124 2
    endloop
  endfacet
  facet normal 0.904831 -0.425771 0
    outer loop
      vertex 9.29776 -3.68124 0
      vertex 8.76307 -4.81754 2
      vertex 8.76307 -4.81754 0
    endloop
  endfacet
  facet normal -0.125338 -0.992114 0
    outer loop
      vertex -1.87381 -9.82287 0
      vertex -0.627905 -9.98027 2
      vertex -1.87381 -9.82287 2
    endloop
  endfacet
  facet normal -0.125338 -0.992114 -0
    outer loop
      vertex -0.627905 -9.98027 2
      vertex -1.87381 -9.82287 0
      vertex -0.627905 -9.98027 0
    endloop
  endfacet
  facet normal -0.248691 -0.968583 0
    outer loop
      vertex -3.09017 -9.51056 0
      vertex -1.87381 -9.82287 2
      vertex -3.09017 -9.51056 2
    endloop
  endfacet
  facet normal -0.248691 -0.968583 -0
    outer loop
      vertex -1.87381 -9.82287 2
      vertex -3.09017 -9.51056 0
      vertex -1.87381 -9.82287 0
    endloop
  endfacet
  facet normal -0.844325 -0.535831 0
    outer loop
      vertex -8.09017 -5.87785 0
      vertex -8.76307 -4.81754 2
      vertex -8.76307 -4.81754 0
    endloop
  endfacet
  facet normal -0.844325 -0.535831 0
    outer loop
      vertex -8.76307 -4.81754 2
      vertex -8.09017 -5.87785 0
      vertex -8.09017 -5.87785 2
    endloop
  endfacet
  facet normal -0.904831 -0.425771 0
    outer loop
      vertex -8.76307 -4.81754 0
      vertex -9.29776 -3.68124 2
      vertex -9.29776 -3.68124 0
    endloop
  endfacet
  facet normal -0.904831 -0.425771 0
    outer loop
      vertex -9.29776 -3.68124 2
      vertex -8.76307 -4.81754 0
      vertex -8.76307 -4.81754 2
    endloop
  endfacet
  facet normal -0.982287 -0.187384 0
    outer loop
      vertex -9.68583 -2.4869 0
      vertex -9.92115 -1.25333 2
      vertex -9.92115 -1.25333 0
    endloop
  endfacet
  facet normal -0.982287 -0.187384 0
    outer loop
      vertex -9.92115 -1.25333 2
      vertex -9.68583 -2.4869 0
      vertex -9.68583 -2.4869 2
    endloop
  endfacet
  facet normal -0.998027 -0.0627883 0
    outer loop
      vertex -9.92115 -1.25333 0
      vertex -10 0 2
      vertex -10 0 0
    endloop
  endfacet
  facet normal -0.998027 -0.0627883 0
    outer loop
      vertex -10 0 2
      vertex -9.92115 -1.25333 0
      vertex -9.92115 -1.25333 2
    endloop
  endfacet
  facet normal -0.684545 -0.728971 0
    outer loop
      vertex -7.28969 -6.84547 0
      vertex -6.37424 -7.70513 2
      vertex -7.28969 -6.84547 2
    endloop
  endfacet
  facet normal -0.684545 -0.728971 -0
    outer loop
      vertex -6.37424 -7.70513 2
      vertex -7.28969 -6.84547 0
      vertex -6.37424 -7.70513 0
    endloop
  endfacet
  facet normal -0.587788 -0.809015 0
    outer loop
      vertex -6.37424 -7.70513 0
      vertex -5.35827 -8.44328 2
      vertex -6.37424 -7.70513 2
    endloop
  endfacet
  facet normal -0.587788 -0.809015 -0
    outer loop
      vertex -5.35827 -8.44328 2
      vertex -6.37424 -7.70513 0
      vertex -5.35827 -8.44328 0
    endloop
  endfacet
  facet normal -0.368122 -0.929777 0
    outer loop
      vertex -4.25779 -9.04827 0
      vertex -3.09017 -9.51056 2
      vertex -4.25779 -9.04827 2
    endloop
  endfacet
  facet normal -0.368122 -0.929777 -0
    outer loop
      vertex -3.09017 -9.51056 2
      vertex -4.25779 -9.04827 0
      vertex -3.09017 -9.51056 0
    endloop
  endfacet
  facet normal -0.481751 -0.876308 0
    outer loop
      vertex -5.35827 -8.44328 0
      vertex -4.25779 -9.04827 2
      vertex -5.35827 -8.44328 2
    endloop
  endfacet
  facet normal -0.481751 -0.876308 -0
    outer loop
      vertex -4.25779 -9.04827 2
      vertex -5.35827 -8.44328 0
      vertex -4.25779 -9.04827 0
    endloop
  endfacet
  facet normal 0.998027 0.0627837 0
    outer loop
      vertex 11.25 0 6
      vertex 11.1613 1.41 2
      vertex 11.1613 1.41 6
    endloop
  endfacet
  facet normal 0.998027 0.0627837 0
    outer loop
      vertex 11.1613 1.41 2
      vertex 11.25 0 6
      vertex 11.25 0 2
    endloop
  endfacet
  facet normal -0.998027 0.0627837 0
    outer loop
      vertex -11.25 0 2
      vertex -11.1613 1.41 6
      vertex -11.1613 1.41 2
    endloop
  endfacet
  facet normal -0.998027 0.0627837 0
    outer loop
      vertex -11.1613 1.41 6
      vertex -11.25 0 2
      vertex -11.25 0 6
    endloop
  endfacet
  facet normal 0 1 -0
    outer loop
      vertex 0.706393 11.2278 2
      vertex -0.706393 11.2278 6
      vertex 0.706393 11.2278 6
    endloop
  endfacet
  facet normal 0 1 0
    outer loop
      vertex -0.706393 11.2278 6
      vertex 0.706393 11.2278 2
      vertex -0.706393 11.2278 2
    endloop
  endfacet
  facet normal 0 -1 0
    outer loop
      vertex -0.706393 -11.2278 2
      vertex 0.706393 -11.2278 6
      vertex -0.706393 -11.2278 6
    endloop
  endfacet
  facet normal 0 -1 -0
    outer loop
      vertex 0.706393 -11.2278 6
      vertex -0.706393 -11.2278 2
      vertex 0.706393 -11.2278 2
    endloop
  endfacet
  facet normal 0.684546 0.728969 -0
    outer loop
      vertex 8.2009 7.70115 2
      vertex 7.17102 8.66827 6
      vertex 8.2009 7.70115 6
    endloop
  endfacet
  facet normal 0.684546 0.728969 0
    outer loop
      vertex 7.17102 8.66827 6
      vertex 8.2009 7.70115 2
      vertex 7.17102 8.66827 2
    endloop
  endfacet
  facet normal -0.684546 0.728969 0
    outer loop
      vertex -7.17102 8.66827 2
      vertex -8.2009 7.70115 6
      vertex -7.17102 8.66827 6
    endloop
  endfacet
  facet normal -0.684546 0.728969 0
    outer loop
      vertex -8.2009 7.70115 6
      vertex -7.17102 8.66827 2
      vertex -8.2009 7.70115 2
    endloop
  endfacet
  facet normal -0.368135 0.929772 0
    outer loop
      vertex -3.47644 10.6994 2
      vertex -4.79002 10.1793 6
      vertex -3.47644 10.6994 6
    endloop
  endfacet
  facet normal -0.368135 0.929772 0
    outer loop
      vertex -4.79002 10.1793 6
      vertex -3.47644 10.6994 2
      vertex -4.79002 10.1793 2
    endloop
  endfacet
  facet normal 0.904823 0.425787 0
    outer loop
      vertex 10.46 4.1414 6
      vertex 9.85845 5.41973 2
      vertex 9.85845 5.41973 6
    endloop
  endfacet
  facet normal 0.904823 0.425787 0
    outer loop
      vertex 9.85845 5.41973 2
      vertex 10.46 4.1414 6
      vertex 10.46 4.1414 2
    endloop
  endfacet
  facet normal 0.982291 0.187361 0
    outer loop
      vertex 11.1613 1.41 6
      vertex 10.8966 2.79776 2
      vertex 10.8966 2.79776 6
    endloop
  endfacet
  facet normal 0.982291 0.187361 0
    outer loop
      vertex 10.8966 2.79776 2
      vertex 11.1613 1.41 6
      vertex 11.1613 1.41 2
    endloop
  endfacet
  facet normal 0.368135 0.929772 -0
    outer loop
      vertex 4.79002 10.1793 2
      vertex 3.47644 10.6994 6
      vertex 4.79002 10.1793 6
    endloop
  endfacet
  facet normal 0.368135 0.929772 0
    outer loop
      vertex 3.47644 10.6994 6
      vertex 4.79002 10.1793 2
      vertex 3.47644 10.6994 2
    endloop
  endfacet
  facet normal 0.587787 0.809016 -0
    outer loop
      vertex 7.17102 8.66827 2
      vertex 6.02805 9.49869 6
      vertex 7.17102 8.66827 6
    endloop
  endfacet
  facet normal 0.587787 0.809016 0
    outer loop
      vertex 6.02805 9.49869 6
      vertex 7.17102 8.66827 2
      vertex 6.02805 9.49869 2
    endloop
  endfacet
  facet normal -0.904823 0.425787 0
    outer loop
      vertex -10.46 4.1414 2
      vertex -9.85845 5.41973 6
      vertex -9.85845 5.41973 2
    endloop
  endfacet
  facet normal -0.904823 0.425787 0
    outer loop
      vertex -9.85845 5.41973 6
      vertex -10.46 4.1414 2
      vertex -10.46 4.1414 6
    endloop
  endfacet
  facet normal -0.844327 0.535829 0
    outer loop
      vertex -9.85845 5.41973 2
      vertex -9.10144 6.61258 6
      vertex -9.10144 6.61258 2
    endloop
  endfacet
  facet normal -0.844327 0.535829 0
    outer loop
      vertex -9.10144 6.61258 6
      vertex -9.85845 5.41973 2
      vertex -9.85845 5.41973 6
    endloop
  endfacet
  facet normal -0.587787 0.809016 0
    outer loop
      vertex -6.02805 9.49869 2
      vertex -7.17102 8.66827 6
      vertex -6.02805 9.49869 6
    endloop
  endfacet
  facet normal -0.587787 0.809016 0
    outer loop
      vertex -7.17102 8.66827 6
      vertex -6.02805 9.49869 2
      vertex -7.17102 8.66827 2
    endloop
  endfacet
  facet normal -0.24866 0.968591 0
    outer loop
      vertex -2.10804 11.0507 2
      vertex -3.47644 10.6994 6
      vertex -2.10804 11.0507 6
    endloop
  endfacet
  facet normal -0.24866 0.968591 0
    outer loop
      vertex -3.47644 10.6994 6
      vertex -2.10804 11.0507 2
      vertex -3.47644 10.6994 2
    endloop
  endfacet
  facet normal 0.125355 -0.992112 0
    outer loop
      vertex 0.706393 -11.2278 2
      vertex 2.10804 -11.0507 6
      vertex 0.706393 -11.2278 6
    endloop
  endfacet
  facet normal 0.125355 -0.992112 0
    outer loop
      vertex 2.10804 -11.0507 6
      vertex 0.706393 -11.2278 2
      vertex 2.10804 -11.0507 2
    endloop
  endfacet
  facet normal 0.951051 0.309033 0
    outer loop
      vertex 10.8966 2.79776 6
      vertex 10.46 4.1414 2
      vertex 10.46 4.1414 6
    endloop
  endfacet
  facet normal 0.951051 0.309033 0
    outer loop
      vertex 10.46 4.1414 2
      vertex 10.8966 2.79776 6
      vertex 10.8966 2.79776 2
    endloop
  endfacet
  facet normal 0.770514 0.637423 0
    outer loop
      vertex 9.10144 6.61258 6
      vertex 8.2009 7.70115 2
      vertex 8.2009 7.70115 6
    endloop
  endfacet
  facet normal 0.770514 0.637423 0
    outer loop
      vertex 8.2009 7.70115 2
      vertex 9.10144 6.61258 6
      vertex 9.10144 6.61258 2
    endloop
  endfacet
  facet normal 0.844327 0.535829 0
    outer loop
      vertex 9.85845 5.41973 6
      vertex 9.10144 6.61258 2
      vertex 9.10144 6.61258 6
    endloop
  endfacet
  facet normal 0.844327 0.535829 0
    outer loop
      vertex 9.10144 6.61258 2
      vertex 9.85845 5.41973 6
      vertex 9.85845 5.41973 2
    endloop
  endfacet
  facet normal 0.24866 0.968591 -0
    outer loop
      vertex 3.47644 10.6994 2
      vertex 2.10804 11.0507 6
      vertex 3.47644 10.6994 6
    endloop
  endfacet
  facet normal 0.24866 0.968591 0
    outer loop
      vertex 2.10804 11.0507 6
      vertex 3.47644 10.6994 2
      vertex 2.10804 11.0507 2
    endloop
  endfacet
  facet normal 0.125355 0.992112 -0
    outer loop
      vertex 2.10804 11.0507 2
      vertex 0.706393 11.2278 6
      vertex 2.10804 11.0507 6
    endloop
  endfacet
  facet normal 0.125355 0.992112 0
    outer loop
      vertex 0.706393 11.2278 6
      vertex 2.10804 11.0507 2
      vertex 0.706393 11.2278 2
    endloop
  endfacet
  facet normal -0.770514 0.637423 0
    outer loop
      vertex -9.10144 6.61258 2
      vertex -8.2009 7.70115 6
      vertex -8.2009 7.70115 2
    endloop
  endfacet
  facet normal -0.770514 0.637423 0
    outer loop
      vertex -8.2009 7.70115 6
      vertex -9.10144 6.61258 2
      vertex -9.10144 6.61258 6
    endloop
  endfacet
  facet normal -0.982291 0.187361 0
    outer loop
      vertex -11.1613 1.41 2
      vertex -10.8966 2.79776 6
      vertex -10.8966 2.79776 2
    endloop
  endfacet
  facet normal -0.982291 0.187361 0
    outer loop
      vertex -10.8966 2.79776 6
      vertex -11.1613 1.41 2
      vertex -11.1613 1.41 6
    endloop
  endfacet
  facet normal -0.481752 0.876308 0
    outer loop
      vertex -4.79002 10.1793 2
      vertex -6.02805 9.49869 6
      vertex -4.79002 10.1793 6
    endloop
  endfacet
  facet normal -0.481752 0.876308 0
    outer loop
      vertex -6.02805 9.49869 6
      vertex -4.79002 10.1793 2
      vertex -6.02805 9.49869 2
    endloop
  endfacet
  facet normal -0.125355 0.992112 0
    outer loop
      vertex -0.706393 11.2278 2
      vertex -2.10804 11.0507 6
      vertex -0.706393 11.2278 6
    endloop
  endfacet
  facet normal -0.125355 0.992112 0
    outer loop
      vertex -2.10804 11.0507 6
      vertex -0.706393 11.2278 2
      vertex -2.10804 11.0507 2
    endloop
  endfacet
  facet normal 0.684546 -0.728969 0
    outer loop
      vertex 7.17102 -8.66827 2
      vertex 8.2009 -7.70115 6
      vertex 7.17102 -8.66827 6
    endloop
  endfacet
  facet normal 0.684546 -0.728969 0
    outer loop
      vertex 8.2009 -7.70115 6
      vertex 7.17102 -8.66827 2
      vertex 8.2009 -7.70115 2
    endloop
  endfacet
  facet normal 0.904823 -0.425787 0
    outer loop
      vertex 9.85845 -5.41973 6
      vertex 10.46 -4.1414 2
      vertex 10.46 -4.1414 6
    endloop
  endfacet
  facet normal 0.904823 -0.425787 0
    outer loop
      vertex 10.46 -4.1414 2
      vertex 9.85845 -5.41973 6
      vertex 9.85845 -5.41973 2
    endloop
  endfacet
  facet normal -0.904823 -0.425787 0
    outer loop
      vertex -9.85845 -5.41973 2
      vertex -10.46 -4.1414 6
      vertex -10.46 -4.1414 2
    endloop
  endfacet
  facet normal -0.904823 -0.425787 0
    outer loop
      vertex -10.46 -4.1414 6
      vertex -9.85845 -5.41973 2
      vertex -9.85845 -5.41973 6
    endloop
  endfacet
  facet normal 0.368135 -0.929772 0
    outer loop
      vertex 3.47644 -10.6994 2
      vertex 4.79002 -10.1793 6
      vertex 3.47644 -10.6994 6
    endloop
  endfacet
  facet normal 0.368135 -0.929772 0
    outer loop
      vertex 4.79002 -10.1793 6
      vertex 3.47644 -10.6994 2
      vertex 4.79002 -10.1793 2
    endloop
  endfacet
  facet normal 0.481752 0.876308 -0
    outer loop
      vertex 6.02805 9.49869 2
      vertex 4.79002 10.1793 6
      vertex 6.02805 9.49869 6
    endloop
  endfacet
  facet normal 0.481752 0.876308 0
    outer loop
      vertex 4.79002 10.1793 6
      vertex 6.02805 9.49869 2
      vertex 4.79002 10.1793 2
    endloop
  endfacet
  facet normal -0.951051 0.309033 0
    outer loop
      vertex -10.8966 2.79776 2
      vertex -10.46 4.1414 6
      vertex -10.46 4.1414 2
    endloop
  endfacet
  facet normal -0.951051 0.309033 0
    outer loop
      vertex -10.46 4.1414 6
      vertex -10.8966 2.79776 2
      vertex -10.8966 2.79776 6
    endloop
  endfacet
  facet normal 0.481752 -0.876308 0
    outer loop
      vertex 4.79002 -10.1793 2
      vertex 6.02805 -9.49869 6
      vertex 4.79002 -10.1793 6
    endloop
  endfacet
  facet normal 0.481752 -0.876308 0
    outer loop
      vertex 6.02805 -9.49869 6
      vertex 4.79002 -10.1793 2
      vertex 6.02805 -9.49869 2
    endloop
  endfacet
  facet normal 0.770514 -0.637423 0
    outer loop
      vertex 8.2009 -7.70115 6
      vertex 9.10144 -6.61258 2
      vertex 9.10144 -6.61258 6
    endloop
  endfacet
  facet normal 0.770514 -0.637423 0
    outer loop
      vertex 9.10144 -6.61258 2
      vertex 8.2009 -7.70115 6
      vertex 8.2009 -7.70115 2
    endloop
  endfacet
  facet normal 0.951051 -0.309033 0
    outer loop
      vertex 10.46 -4.1414 6
      vertex 10.8966 -2.79776 2
      vertex 10.8966 -2.79776 6
    endloop
  endfacet
  facet normal 0.951051 -0.309033 0
    outer loop
      vertex 10.8966 -2.79776 2
      vertex 10.46 -4.1414 6
      vertex 10.46 -4.1414 2
    endloop
  endfacet
  facet normal 0.982291 -0.187361 0
    outer loop
      vertex 10.8966 -2.79776 6
      vertex 11.1613 -1.41 2
      vertex 11.1613 -1.41 6
    endloop
  endfacet
  facet normal 0.982291 -0.187361 0
    outer loop
      vertex 11.1613 -1.41 2
      vertex 10.8966 -2.79776 6
      vertex 10.8966 -2.79776 2
    endloop
  endfacet
  facet normal 0.998027 -0.0627837 0
    outer loop
      vertex 11.1613 -1.41 6
      vertex 11.25 0 2
      vertex 11.25 0 6
    endloop
  endfacet
  facet normal 0.998027 -0.0627837 0
    outer loop
      vertex 11.25 0 2
      vertex 11.1613 -1.41 6
      vertex 11.1613 -1.41 2
    endloop
  endfacet
  facet normal -0.368135 -0.929772 0
    outer loop
      vertex -4.79002 -10.1793 2
      vertex -3.47644 -10.6994 6
      vertex -4.79002 -10.1793 6
    endloop
  endfacet
  facet normal -0.368135 -0.929772 -0
    outer loop
      vertex -3.47644 -10.6994 6
      vertex -4.79002 -10.1793 2
      vertex -3.47644 -10.6994 2
    endloop
  endfacet
  facet normal -0.684546 -0.728969 0
    outer loop
      vertex -8.2009 -7.70115 2
      vertex -7.17102 -8.66827 6
      vertex -8.2009 -7.70115 6
    endloop
  endfacet
  facet normal -0.684546 -0.728969 -0
    outer loop
      vertex -7.17102 -8.66827 6
      vertex -8.2009 -7.70115 2
      vertex -7.17102 -8.66827 2
    endloop
  endfacet
  facet normal 0.24866 -0.968591 0
    outer loop
      vertex 2.10804 -11.0507 2
      vertex 3.47644 -10.6994 6
      vertex 2.10804 -11.0507 6
    endloop
  endfacet
  facet normal 0.24866 -0.968591 0
    outer loop
      vertex 3.47644 -10.6994 6
      vertex 2.10804 -11.0507 2
      vertex 3.47644 -10.6994 2
    endloop
  endfacet
  facet normal 0.587787 -0.809016 0
    outer loop
      vertex 6.02805 -9.49869 2
      vertex 7.17102 -8.66827 6
      vertex 6.02805 -9.49869 6
    endloop
  endfacet
  facet normal 0.587787 -0.809016 0
    outer loop
      vertex 7.17102 -8.66827 6
      vertex 6.02805 -9.49869 2
      vertex 7.17102 -8.66827 2
    endloop
  endfacet
  facet normal 0.844327 -0.535829 0
    outer loop
      vertex 9.10144 -6.61258 6
      vertex 9.85845 -5.41973 2
      vertex 9.85845 -5.41973 6
    endloop
  endfacet
  facet normal 0.844327 -0.535829 0
    outer loop
      vertex 9.85845 -5.41973 2
      vertex 9.10144 -6.61258 6
      vertex 9.10144 -6.61258 2
    endloop
  endfacet
  facet normal -0.125355 -0.992112 0
    outer loop
      vertex -2.10804 -11.0507 2
      vertex -0.706393 -11.2278 6
      vertex -2.10804 -11.0507 6
    endloop
  endfacet
  facet normal -0.125355 -0.992112 -0
    outer loop
      vertex -0.706393 -11.2278 6
      vertex -2.10804 -11.0507 2
      vertex -0.706393 -11.2278 2
    endloop
  endfacet
  facet normal -0.587787 -0.809016 0
    outer loop
      vertex -7.17102 -8.66827 2
      vertex -6.02805 -9.49869 6
      vertex -7.17102 -8.66827 6
    endloop
  endfacet
  facet normal -0.587787 -0.809016 -0
    outer loop
      vertex -6.02805 -9.49869 6
      vertex -7.17102 -8.66827 2
      vertex -6.02805 -9.49869 2
    endloop
  endfacet
  facet normal -0.24866 -0.968591 0
    outer loop
      vertex -3.47644 -10.6994 2
      vertex -2.10804 -11.0507 6
      vertex -3.47644 -10.6994 6
    endloop
  endfacet
  facet normal -0.24866 -0.968591 -0
    outer loop
      vertex -2.10804 -11.0507 6
      vertex -3.47644 -10.6994 2
      vertex -2.10804 -11.0507 2
    endloop
  endfacet
  facet normal -0.844327 -0.535829 0
    outer loop
      vertex -9.10144 -6.61258 2
      vertex -9.85845 -5.41973 6
      vertex -9.85845 -5.41973 2
    endloop
  endfacet
  facet normal -0.844327 -0.535829 0
    outer loop
      vertex -9.85845 -5.41973 6
      vertex -9.10144 -6.61258 2
      vertex -9.10144 -6.61258 6
    endloop
  endfacet
  facet normal -0.951051 -0.309033 0
    outer loop
      vertex -10.46 -4.1414 2
      vertex -10.8966 -2.79776 6
      vertex -10.8966 -2.79776 2
    endloop
  endfacet
  facet normal -0.951051 -0.309033 0
    outer loop
      vertex -10.8966 -2.79776 6
      vertex -10.46 -4.1414 2
      vertex -10.46 -4.1414 6
    endloop
  endfacet
  facet normal -0.982291 -0.187361 0
    outer loop
      vertex -10.8966 -2.79776 2
      vertex -11.1613 -1.41 6
      vertex -11.1613 -1.41 2
    endloop
  endfacet
  facet normal -0.982291 -0.187361 0
    outer loop
      vertex -11.1613 -1.41 6
      vertex -10.8966 -2.79776 2
      vertex -10.8966 -2.79776 6
    endloop
  endfacet
  facet normal -0.998027 -0.0627837 0
    outer loop
      vertex -11.1613 -1.41 2
      vertex -11.25 0 6
      vertex -11.25 0 2
    endloop
  endfacet
  facet normal -0.998027 -0.0627837 0
    outer loop
      vertex -11.25 0 6
      vertex -11.1613 -1.41 2
      vertex -11.1613 -1.41 6
    endloop
  endfacet
  facet normal -0.481752 -0.876308 0
    outer loop
      vertex -6.02805 -9.49869 2
      vertex -4.79002 -10.1793 6
      vertex -6.02805 -9.49869 6
    endloop
  endfacet
  facet normal -0.481752 -0.876308 -0
    outer loop
      vertex -4.79002 -10.1793 6
      vertex -6.02805 -9.49869 2
      vertex -4.79002 -10.1793 2
    endloop
  endfacet
  facet normal -0.770514 -0.637423 0
    outer loop
      vertex -8.2009 -7.70115 2
      vertex -9.10144 -6.61258 6
      vertex -9.10144 -6.61258 2
    endloop
  endfacet
  facet normal -0.770514 -0.637423 0
    outer loop
      vertex -9.10144 -6.61258 6
      vertex -8.2009 -7.70115 2
      vertex -8.2009 -7.70115 6
    endloop
  endfacet
  facet normal -0.998027 -0.0627905 0
    outer loop
      vertex 0.95 0 0
      vertex 0.942509 0.119066 6
      vertex 0.942509 0.119066 0
    endloop
  endfacet
  facet normal -0.998027 -0.0627905 0
    outer loop
      vertex 0.942509 0.119066 6
      vertex 0.95 0 0
      vertex 0.95 0 6
    endloop
  endfacet
  facet normal -0.904827 -0.425779 0
    outer loop
      vertex 0.883287 0.349718 0
      vertex 0.832491 0.457665 6
      vertex 0.832491 0.457665 0
    endloop
  endfacet
  facet normal -0.904827 -0.425779 0
    outer loop
      vertex 0.832491 0.457665 6
      vertex 0.883287 0.349718 0
      vertex 0.883287 0.349718 6
    endloop
  endfacet
  facet normal -0.844329 -0.535826 0
    outer loop
      vertex 0.832491 0.457665 0
      vertex 0.768566 0.558395 6
      vertex 0.768566 0.558395 0
    endloop
  endfacet
  facet normal -0.844329 -0.535826 0
    outer loop
      vertex 0.768566 0.558395 6
      vertex 0.832491 0.457665 0
      vertex 0.832491 0.457665 6
    endloop
  endfacet
  facet normal -0.368125 -0.929776 0
    outer loop
      vertex 0.293566 0.903503 0
      vertex 0.40449 0.859585 6
      vertex 0.293566 0.903503 6
    endloop
  endfacet
  facet normal -0.368125 -0.929776 -0
    outer loop
      vertex 0.40449 0.859585 6
      vertex 0.293566 0.903503 0
      vertex 0.40449 0.859585 0
    endloop
  endfacet
  facet normal 0.368125 -0.929776 0
    outer loop
      vertex -0.40449 0.859585 0
      vertex -0.293566 0.903503 6
      vertex -0.40449 0.859585 6
    endloop
  endfacet
  facet normal 0.368125 -0.929776 0
    outer loop
      vertex -0.293566 0.903503 6
      vertex -0.40449 0.859585 0
      vertex -0.293566 0.903503 0
    endloop
  endfacet
  facet normal 0.904827 -0.425779 0
    outer loop
      vertex -0.883287 0.349718 6
      vertex -0.832491 0.457665 0
      vertex -0.832491 0.457665 6
    endloop
  endfacet
  facet normal 0.904827 -0.425779 0
    outer loop
      vertex -0.832491 0.457665 0
      vertex -0.883287 0.349718 6
      vertex -0.883287 0.349718 0
    endloop
  endfacet
  facet normal 0 -1 0
    outer loop
      vertex -0.0596504 0.948125 0
      vertex 0.0596504 0.948125 6
      vertex -0.0596504 0.948125 6
    endloop
  endfacet
  facet normal 0 -1 -0
    outer loop
      vertex 0.0596504 0.948125 6
      vertex -0.0596504 0.948125 0
      vertex 0.0596504 0.948125 0
    endloop
  endfacet
  facet normal -0.587783 -0.809019 0
    outer loop
      vertex 0.509035 0.802111 0
      vertex 0.605553 0.731987 6
      vertex 0.509035 0.802111 6
    endloop
  endfacet
  facet normal -0.587783 -0.809019 -0
    outer loop
      vertex 0.605553 0.731987 6
      vertex 0.509035 0.802111 0
      vertex 0.605553 0.731987 0
    endloop
  endfacet
  facet normal 0.998027 -0.0627905 0
    outer loop
      vertex -0.95 0 6
      vertex -0.942509 0.119066 0
      vertex -0.942509 0.119066 6
    endloop
  endfacet
  facet normal 0.998027 -0.0627905 0
    outer loop
      vertex -0.942509 0.119066 0
      vertex -0.95 0 6
      vertex -0.95 0 0
    endloop
  endfacet
  facet normal 0.770514 -0.637423 0
    outer loop
      vertex -0.768566 0.558395 6
      vertex -0.69252 0.650319 0
      vertex -0.69252 0.650319 6
    endloop
  endfacet
  facet normal 0.770514 -0.637423 0
    outer loop
      vertex -0.69252 0.650319 0
      vertex -0.768566 0.558395 6
      vertex -0.768566 0.558395 0
    endloop
  endfacet
  facet normal 0.248688 -0.968584 0
    outer loop
      vertex -0.293566 0.903503 0
      vertex -0.178012 0.933172 6
      vertex -0.293566 0.903503 6
    endloop
  endfacet
  facet normal 0.248688 -0.968584 0
    outer loop
      vertex -0.178012 0.933172 6
      vertex -0.293566 0.903503 0
      vertex -0.178012 0.933172 0
    endloop
  endfacet
  facet normal 0.68455 -0.728966 0
    outer loop
      vertex -0.69252 0.650319 0
      vertex -0.605553 0.731987 6
      vertex -0.69252 0.650319 6
    endloop
  endfacet
  facet normal 0.68455 -0.728966 0
    outer loop
      vertex -0.605553 0.731987 6
      vertex -0.69252 0.650319 0
      vertex -0.605553 0.731987 0
    endloop
  endfacet
  facet normal -0.481753 0.876307 0
    outer loop
      vertex 0.509035 -0.802111 0
      vertex 0.40449 -0.859585 6
      vertex 0.509035 -0.802111 6
    endloop
  endfacet
  facet normal -0.481753 0.876307 0
    outer loop
      vertex 0.40449 -0.859585 6
      vertex 0.509035 -0.802111 0
      vertex 0.40449 -0.859585 0
    endloop
  endfacet
  facet normal -0.904827 0.425779 0
    outer loop
      vertex 0.832491 -0.457665 0
      vertex 0.883287 -0.349718 6
      vertex 0.883287 -0.349718 0
    endloop
  endfacet
  facet normal -0.904827 0.425779 0
    outer loop
      vertex 0.883287 -0.349718 6
      vertex 0.832491 -0.457665 0
      vertex 0.832491 -0.457665 6
    endloop
  endfacet
  facet normal 0.68455 0.728966 -0
    outer loop
      vertex -0.605553 -0.731987 0
      vertex -0.69252 -0.650319 6
      vertex -0.605553 -0.731987 6
    endloop
  endfacet
  facet normal 0.68455 0.728966 0
    outer loop
      vertex -0.69252 -0.650319 6
      vertex -0.605553 -0.731987 0
      vertex -0.69252 -0.650319 0
    endloop
  endfacet
  facet normal 0.904827 0.425779 0
    outer loop
      vertex -0.832491 -0.457665 6
      vertex -0.883287 -0.349718 0
      vertex -0.883287 -0.349718 6
    endloop
  endfacet
  facet normal 0.904827 0.425779 0
    outer loop
      vertex -0.883287 -0.349718 0
      vertex -0.832491 -0.457665 6
      vertex -0.832491 -0.457665 0
    endloop
  endfacet
  facet normal -0.982287 -0.187381 0
    outer loop
      vertex 0.942509 0.119066 0
      vertex 0.920154 0.236255 6
      vertex 0.920154 0.236255 0
    endloop
  endfacet
  facet normal -0.982287 -0.187381 0
    outer loop
      vertex 0.920154 0.236255 6
      vertex 0.942509 0.119066 0
      vertex 0.942509 0.119066 6
    endloop
  endfacet
  facet normal -0.951055 -0.309022 0
    outer loop
      vertex 0.920154 0.236255 0
      vertex 0.883287 0.349718 6
      vertex 0.883287 0.349718 0
    endloop
  endfacet
  facet normal -0.951055 -0.309022 0
    outer loop
      vertex 0.883287 0.349718 6
      vertex 0.920154 0.236255 0
      vertex 0.920154 0.236255 6
    endloop
  endfacet
  facet normal -0.770514 -0.637423 0
    outer loop
      vertex 0.768566 0.558395 0
      vertex 0.69252 0.650319 6
      vertex 0.69252 0.650319 0
    endloop
  endfacet
  facet normal -0.770514 -0.637423 0
    outer loop
      vertex 0.69252 0.650319 6
      vertex 0.768566 0.558395 0
      vertex 0.768566 0.558395 6
    endloop
  endfacet
  facet normal -0.68455 -0.728966 0
    outer loop
      vertex 0.605553 0.731987 0
      vertex 0.69252 0.650319 6
      vertex 0.605553 0.731987 6
    endloop
  endfacet
  facet normal -0.68455 -0.728966 -0
    outer loop
      vertex 0.69252 0.650319 6
      vertex 0.605553 0.731987 0
      vertex 0.69252 0.650319 0
    endloop
  endfacet
  facet normal -0.248688 -0.968584 0
    outer loop
      vertex 0.178012 0.933172 0
      vertex 0.293566 0.903503 6
      vertex 0.178012 0.933172 6
    endloop
  endfacet
  facet normal -0.248688 -0.968584 -0
    outer loop
      vertex 0.293566 0.903503 6
      vertex 0.178012 0.933172 0
      vertex 0.293566 0.903503 0
    endloop
  endfacet
  facet normal 0.951055 -0.309022 0
    outer loop
      vertex -0.920154 0.236255 6
      vertex -0.883287 0.349718 0
      vertex -0.883287 0.349718 6
    endloop
  endfacet
  facet normal 0.951055 -0.309022 0
    outer loop
      vertex -0.883287 0.349718 0
      vertex -0.920154 0.236255 6
      vertex -0.920154 0.236255 0
    endloop
  endfacet
  facet normal 0.982287 -0.187381 0
    outer loop
      vertex -0.942509 0.119066 6
      vertex -0.920154 0.236255 0
      vertex -0.920154 0.236255 6
    endloop
  endfacet
  facet normal 0.982287 -0.187381 0
    outer loop
      vertex -0.920154 0.236255 0
      vertex -0.942509 0.119066 6
      vertex -0.942509 0.119066 0
    endloop
  endfacet
  facet normal 0.481753 -0.876307 0
    outer loop
      vertex -0.509035 0.802111 0
      vertex -0.40449 0.859585 6
      vertex -0.509035 0.802111 6
    endloop
  endfacet
  facet normal 0.481753 -0.876307 0
    outer loop
      vertex -0.40449 0.859585 6
      vertex -0.509035 0.802111 0
      vertex -0.40449 0.859585 0
    endloop
  endfacet
  facet normal -0.998027 0.0627905 0
    outer loop
      vertex 0.942509 -0.119066 0
      vertex 0.95 0 6
      vertex 0.95 0 0
    endloop
  endfacet
  facet normal -0.998027 0.0627905 0
    outer loop
      vertex 0.95 0 6
      vertex 0.942509 -0.119066 0
      vertex 0.942509 -0.119066 6
    endloop
  endfacet
  facet normal -0.951055 0.309022 0
    outer loop
      vertex 0.883287 -0.349718 0
      vertex 0.920154 -0.236255 6
      vertex 0.920154 -0.236255 0
    endloop
  endfacet
  facet normal -0.951055 0.309022 0
    outer loop
      vertex 0.920154 -0.236255 6
      vertex 0.883287 -0.349718 0
      vertex 0.883287 -0.349718 6
    endloop
  endfacet
  facet normal -0.770514 0.637423 0
    outer loop
      vertex 0.69252 -0.650319 0
      vertex 0.768566 -0.558395 6
      vertex 0.768566 -0.558395 0
    endloop
  endfacet
  facet normal -0.770514 0.637423 0
    outer loop
      vertex 0.768566 -0.558395 6
      vertex 0.69252 -0.650319 0
      vertex 0.69252 -0.650319 6
    endloop
  endfacet
  facet normal 0.998027 0.0627905 0
    outer loop
      vertex -0.942509 -0.119066 6
      vertex -0.95 0 0
      vertex -0.95 0 6
    endloop
  endfacet
  facet normal 0.998027 0.0627905 0
    outer loop
      vertex -0.95 0 0
      vertex -0.942509 -0.119066 6
      vertex -0.942509 -0.119066 0
    endloop
  endfacet
  facet normal 0.770514 0.637423 0
    outer loop
      vertex -0.69252 -0.650319 6
      vertex -0.768566 -0.558395 0
      vertex -0.768566 -0.558395 6
    endloop
  endfacet
  facet normal 0.770514 0.637423 0
    outer loop
      vertex -0.768566 -0.558395 0
      vertex -0.69252 -0.650319 6
      vertex -0.69252 -0.650319 0
    endloop
  endfacet
  facet normal -0.125337 0.992114 0
    outer loop
      vertex 0.178012 -0.933172 0
      vertex 0.0596504 -0.948125 6
      vertex 0.178012 -0.933172 6
    endloop
  endfacet
  facet normal -0.125337 0.992114 0
    outer loop
      vertex 0.0596504 -0.948125 6
      vertex 0.178012 -0.933172 0
      vertex 0.0596504 -0.948125 0
    endloop
  endfacet
  facet normal -0.368125 0.929776 0
    outer loop
      vertex 0.40449 -0.859585 0
      vertex 0.293566 -0.903503 6
      vertex 0.40449 -0.859585 6
    endloop
  endfacet
  facet normal -0.368125 0.929776 0
    outer loop
      vertex 0.293566 -0.903503 6
      vertex 0.40449 -0.859585 0
      vertex 0.293566 -0.903503 0
    endloop
  endfacet
  facet normal -0.125337 -0.992114 0
    outer loop
      vertex 0.0596504 0.948125 0
      vertex 0.178012 0.933172 6
      vertex 0.0596504 0.948125 6
    endloop
  endfacet
  facet normal -0.125337 -0.992114 -0
    outer loop
      vertex 0.178012 0.933172 6
      vertex 0.0596504 0.948125 0
      vertex 0.178012 0.933172 0
    endloop
  endfacet
  facet normal -0.481753 -0.876307 0
    outer loop
      vertex 0.40449 0.859585 0
      vertex 0.509035 0.802111 6
      vertex 0.40449 0.859585 6
    endloop
  endfacet
  facet normal -0.481753 -0.876307 -0
    outer loop
      vertex 0.509035 0.802111 6
      vertex 0.40449 0.859585 0
      vertex 0.509035 0.802111 0
    endloop
  endfacet
  facet normal 0.844329 -0.535826 0
    outer loop
      vertex -0.832491 0.457665 6
      vertex -0.768566 0.558395 0
      vertex -0.768566 0.558395 6
    endloop
  endfacet
  facet normal 0.844329 -0.535826 0
    outer loop
      vertex -0.768566 0.558395 0
      vertex -0.832491 0.457665 6
      vertex -0.832491 0.457665 0
    endloop
  endfacet
  facet normal 0.125337 -0.992114 0
    outer loop
      vertex -0.178012 0.933172 0
      vertex -0.0596504 0.948125 6
      vertex -0.178012 0.933172 6
    endloop
  endfacet
  facet normal 0.125337 -0.992114 0
    outer loop
      vertex -0.0596504 0.948125 6
      vertex -0.178012 0.933172 0
      vertex -0.0596504 0.948125 0
    endloop
  endfacet
  facet normal 0.587783 -0.809019 0
    outer loop
      vertex -0.605553 0.731987 0
      vertex -0.509035 0.802111 6
      vertex -0.605553 0.731987 6
    endloop
  endfacet
  facet normal 0.587783 -0.809019 0
    outer loop
      vertex -0.509035 0.802111 6
      vertex -0.605553 0.731987 0
      vertex -0.509035 0.802111 0
    endloop
  endfacet
  facet normal -0.982287 0.187381 0
    outer loop
      vertex 0.920154 -0.236255 0
      vertex 0.942509 -0.119066 6
      vertex 0.942509 -0.119066 0
    endloop
  endfacet
  facet normal -0.982287 0.187381 0
    outer loop
      vertex 0.942509 -0.119066 6
      vertex 0.920154 -0.236255 0
      vertex 0.920154 -0.236255 6
    endloop
  endfacet
  facet normal -0.844329 0.535826 0
    outer loop
      vertex 0.768566 -0.558395 0
      vertex 0.832491 -0.457665 6
      vertex 0.832491 -0.457665 0
    endloop
  endfacet
  facet normal -0.844329 0.535826 0
    outer loop
      vertex 0.832491 -0.457665 6
      vertex 0.768566 -0.558395 0
      vertex 0.768566 -0.558395 6
    endloop
  endfacet
  facet normal -0.68455 0.728966 0
    outer loop
      vertex 0.69252 -0.650319 0
      vertex 0.605553 -0.731987 6
      vertex 0.69252 -0.650319 6
    endloop
  endfacet
  facet normal -0.68455 0.728966 0
    outer loop
      vertex 0.605553 -0.731987 6
      vertex 0.69252 -0.650319 0
      vertex 0.605553 -0.731987 0
    endloop
  endfacet
  facet normal 0.368125 0.929776 -0
    outer loop
      vertex -0.293566 -0.903503 0
      vertex -0.40449 -0.859585 6
      vertex -0.293566 -0.903503 6
    endloop
  endfacet
  facet normal 0.368125 0.929776 0
    outer loop
      vertex -0.40449 -0.859585 6
      vertex -0.293566 -0.903503 0
      vertex -0.40449 -0.859585 0
    endloop
  endfacet
  facet normal 0 1 -0
    outer loop
      vertex 0.0596504 -0.948125 0
      vertex -0.0596504 -0.948125 6
      vertex 0.0596504 -0.948125 6
    endloop
  endfacet
  facet normal 0 1 0
    outer loop
      vertex -0.0596504 -0.948125 6
      vertex 0.0596504 -0.948125 0
      vertex -0.0596504 -0.948125 0
    endloop
  endfacet
  facet normal 0.125337 0.992114 -0
    outer loop
      vertex -0.0596504 -0.948125 0
      vertex -0.178012 -0.933172 6
      vertex -0.0596504 -0.948125 6
    endloop
  endfacet
  facet normal 0.125337 0.992114 0
    outer loop
      vertex -0.178012 -0.933172 6
      vertex -0.0596504 -0.948125 0
      vertex -0.178012 -0.933172 0
    endloop
  endfacet
  facet normal 0.951055 0.309022 0
    outer loop
      vertex -0.883287 -0.349718 6
      vertex -0.920154 -0.236255 0
      vertex -0.920154 -0.236255 6
    endloop
  endfacet
  facet normal 0.951055 0.309022 0
    outer loop
      vertex -0.920154 -0.236255 0
      vertex -0.883287 -0.349718 6
      vertex -0.883287 -0.349718 0
    endloop
  endfacet
  facet normal -0.248688 0.968584 0
    outer loop
      vertex 0.293566 -0.903503 0
      vertex 0.178012 -0.933172 6
      vertex 0.293566 -0.903503 6
    endloop
  endfacet
  facet normal -0.248688 0.968584 0
    outer loop
      vertex 0.178012 -0.933172 6
      vertex 0.293566 -0.903503 0
      vertex 0.178012 -0.933172 0
    endloop
  endfacet
  facet normal -0.587783 0.809019 0
    outer loop
      vertex 0.605553 -0.731987 0
      vertex 0.509035 -0.802111 6
      vertex 0.605553 -0.731987 6
    endloop
  endfacet
  facet normal -0.587783 0.809019 0
    outer loop
      vertex 0.509035 -0.802111 6
      vertex 0.605553 -0.731987 0
      vertex 0.509035 -0.802111 0
    endloop
  endfacet
  facet normal 0.587783 0.809019 -0
    outer loop
      vertex -0.509035 -0.802111 0
      vertex -0.605553 -0.731987 6
      vertex -0.509035 -0.802111 6
    endloop
  endfacet
  facet normal 0.587783 0.809019 0
    outer loop
      vertex -0.605553 -0.731987 6
      vertex -0.509035 -0.802111 0
      vertex -0.605553 -0.731987 0
    endloop
  endfacet
  facet normal 0.248688 0.968584 -0
    outer loop
      vertex -0.178012 -0.933172 0
      vertex -0.293566 -0.903503 6
      vertex -0.178012 -0.933172 6
    endloop
  endfacet
  facet normal 0.248688 0.968584 0
    outer loop
      vertex -0.293566 -0.903503 6
      vertex -0.178012 -0.933172 0
      vertex -0.293566 -0.903503 0
    endloop
  endfacet
  facet normal 0.982287 0.187381 0
    outer loop
      vertex -0.920154 -0.236255 6
      vertex -0.942509 -0.119066 0
      vertex -0.942509 -0.119066 6
    endloop
  endfacet
  facet normal 0.982287 0.187381 0
    outer loop
      vertex -0.942509 -0.119066 0
      vertex -0.920154 -0.236255 6
      vertex -0.920154 -0.236255 0
    endloop
  endfacet
  facet normal 0.844329 0.535826 0
    outer loop
      vertex -0.768566 -0.558395 6
      vertex -0.832491 -0.457665 0
      vertex -0.832491 -0.457665 6
    endloop
  endfacet
  facet normal 0.844329 0.535826 0
    outer loop
      vertex -0.832491 -0.457665 0
      vertex -0.768566 -0.558395 6
      vertex -0.768566 -0.558395 0
    endloop
  endfacet
  facet normal 0.481753 0.876307 -0
    outer loop
      vertex -0.40449 -0.859585 0
      vertex -0.509035 -0.802111 6
      vertex -0.40449 -0.859585 6
    endloop
  endfacet
  facet normal 0.481753 0.876307 0
    outer loop
      vertex -0.509035 -0.802111 6
      vertex -0.40449 -0.859585 0
      vertex -0.509035 -0.802111 0
    endloop
  endfacet
  facet normal 0 0 -1
    outer loop
      vertex 0.95 0 0
      vertex 10 0 0
      vertex 9.92115 -1.25333 0
    endloop
  endfacet
  facet normal 0 0 -1
    outer loop
      vertex 0.942509 -0.119066 0
      vertex 9.92115 -1.25333 0
      vertex 9.68583 -2.4869 0
    endloop
  endfacet
  facet normal 0 0 -1
    outer loop
      vertex 10 0 0
      vertex 0.95 0 0
      vertex 9.92115 1.25333 0
    endloop
  endfacet
  facet normal 0 0 -1
    outer loop
      vertex 0.920154 -0.236255 0
      vertex 9.68583 -2.4869 0
      vertex 9.29776 -3.68124 0
    endloop
  endfacet
  facet normal 0 0 -1
    outer loop
      vertex 0.942509 0.119066 0
      vertex 9.92115 1.25333 0
      vertex 0.95 0 0
    endloop
  endfacet
  facet normal 0 0 -1
    outer loop
      vertex 0.883287 -0.349718 0
      vertex 9.29776 -3.68124 0
      vertex 8.76307 -4.81754 0
    endloop
  endfacet
  facet normal -0 0 -1
    outer loop
      vertex 9.92115 1.25333 0
      vertex 0.942509 0.119066 0
      vertex 9.68583 2.4869 0
    endloop
  endfacet
  facet normal 0 0 -1
    outer loop
      vertex 0.832491 -0.457665 0
      vertex 8.76307 -4.81754 0
      vertex 8.09017 -5.87785 0
    endloop
  endfacet
  facet normal 0 0 -1
    outer loop
      vertex 0.920154 0.236255 0
      vertex 9.68583 2.4869 0
      vertex 0.942509 0.119066 0
    endloop
  endfacet
  facet normal 0 0 -1
    outer loop
      vertex 0.768566 -0.558395 0
      vertex 8.09017 -5.87785 0
      vertex 7.28969 -6.84547 0
    endloop
  endfacet
  facet normal -0 0 -1
    outer loop
      vertex 9.68583 2.4869 0
      vertex 0.920154 0.236255 0
      vertex 9.29776 3.68124 0
    endloop
  endfacet
  facet normal 0 0 -1
    outer loop
      vertex 0.69252 -0.650319 0
      vertex 7.28969 -6.84547 0
      vertex 6.37424 -7.70513 0
    endloop
  endfacet
  facet normal 0 0 -1
    outer loop
      vertex 0.883287 0.349718 0
      vertex 9.29776 3.68124 0
      vertex 0.920154 0.236255 0
    endloop
  endfacet
  facet normal 0 0 -1
    outer loop
      vertex 0.605553 -0.731987 0
      vertex 6.37424 -7.70513 0
      vertex 5.35827 -8.44328 0
    endloop
  endfacet
  facet normal -0 0 -1
    outer loop
      vertex 9.29776 3.68124 0
      vertex 0.883287 0.349718 0
      vertex 8.76307 4.81754 0
    endloop
  endfacet
  facet normal 0 0 -1
    outer loop
      vertex 0.509035 -0.802111 0
      vertex 5.35827 -8.44328 0
      vertex 4.25779 -9.04827 0
    endloop
  endfacet
  facet normal 0 0 -1
    outer loop
      vertex 0.832491 0.457665 0
      vertex 8.76307 4.81754 0
      vertex 0.883287 0.349718 0
    endloop
  endfacet
  facet normal 0 0 -1
    outer loop
      vertex 0.40449 -0.859585 0
      vertex 4.25779 -9.04827 0
      vertex 3.09017 -9.51056 0
    endloop
  endfacet
  facet normal -0 0 -1
    outer loop
      vertex 8.76307 4.81754 0
      vertex 0.832491 0.457665 0
      vertex 8.09017 5.87785 0
    endloop
  endfacet
  facet normal 0 0 -1
    outer loop
      vertex 0.293566 -0.903503 0
      vertex 3.09017 -9.51056 0
      vertex 1.87381 -9.82287 0
    endloop
  endfacet
  facet normal 0 0 -1
    outer loop
      vertex 0.768566 0.558395 0
      vertex 8.09017 5.87785 0
      vertex 0.832491 0.457665 0
    endloop
  endfacet
  facet normal -0 0 -1
    outer loop
      vertex 8.09017 5.87785 0
      vertex 0.768566 0.558395 0
      vertex 7.28969 6.84547 0
    endloop
  endfacet
  facet normal 0 0 -1
    outer loop
      vertex 9.92115 -1.25333 0
      vertex 0.942509 -0.119066 0
      vertex 0.95 0 0
    endloop
  endfacet
  facet normal 0 0 -1
    outer loop
      vertex 9.68583 -2.4869 0
      vertex 0.920154 -0.236255 0
      vertex 0.942509 -0.119066 0
    endloop
  endfacet
  facet normal 0 0 -1
    outer loop
      vertex 9.29776 -3.68124 0
      vertex 0.883287 -0.349718 0
      vertex 0.920154 -0.236255 0
    endloop
  endfacet
  facet normal 0 0 -1
    outer loop
      vertex 8.76307 -4.81754 0
      vertex 0.832491 -0.457665 0
      vertex 0.883287 -0.349718 0
    endloop
  endfacet
  facet normal 0 0 -1
    outer loop
      vertex 8.09017 -5.87785 0
      vertex 0.768566 -0.558395 0
      vertex 0.832491 -0.457665 0
    endloop
  endfacet
  facet normal 0 0 -1
    outer loop
      vertex 7.28969 -6.84547 0
      vertex 0.69252 -0.650319 0
      vertex 0.768566 -0.558395 0
    endloop
  endfacet
  facet normal 0 0 -1
    outer loop
      vertex 0.178012 -0.933172 0
      vertex 1.87381 -9.82287 0
      vertex 0.627905 -9.98027 0
    endloop
  endfacet
  facet normal 0 0 -1
    outer loop
      vertex 6.37424 -7.70513 0
      vertex 0.605553 -0.731987 0
      vertex 0.69252 -0.650319 0
    endloop
  endfacet
  facet normal 0 0 -1
    outer loop
      vertex 5.35827 -8.44328 0
      vertex 0.509035 -0.802111 0
      vertex 0.605553 -0.731987 0
    endloop
  endfacet
  facet normal 0 0 -1
    outer loop
      vertex 4.25779 -9.04827 0
      vertex 0.40449 -0.859585 0
      vertex 0.509035 -0.802111 0
    endloop
  endfacet
  facet normal 0 0 -1
    outer loop
      vertex 3.09017 -9.51056 0
      vertex 0.293566 -0.903503 0
      vertex 0.40449 -0.859585 0
    endloop
  endfacet
  facet normal 0 0 -1
    outer loop
      vertex 1.87381 -9.82287 0
      vertex 0.178012 -0.933172 0
      vertex 0.293566 -0.903503 0
    endloop
  endfacet
  facet normal 0 0 -1
    outer loop
      vertex 0.627905 -9.98027 0
      vertex 0.0596504 -0.948125 0
      vertex 0.178012 -0.933172 0
    endloop
  endfacet
  facet normal 0 0 -1
    outer loop
      vertex 0.627905 -9.98027 0
      vertex -0.0596504 -0.948125 0
      vertex 0.0596504 -0.948125 0
    endloop
  endfacet
  facet normal 0 0 -1
    outer loop
      vertex -0.627905 -9.98027 0
      vertex -0.0596504 -0.948125 0
      vertex 0.627905 -9.98027 0
    endloop
  endfacet
  facet normal -0 0 -1
    outer loop
      vertex -0.0596504 -0.948125 0
      vertex -0.627905 -9.98027 0
      vertex -0.178012 -0.933172 0
    endloop
  endfacet
  facet normal 0 0 -1
    outer loop
      vertex -1.87381 -9.82287 0
      vertex -0.178012 -0.933172 0
      vertex -0.627905 -9.98027 0
    endloop
  endfacet
  facet normal -0 0 -1
    outer loop
      vertex -0.178012 -0.933172 0
      vertex -1.87381 -9.82287 0
      vertex -0.293566 -0.903503 0
    endloop
  endfacet
  facet normal 0 0 -1
    outer loop
      vertex -3.09017 -9.51056 0
      vertex -0.293566 -0.903503 0
      vertex -1.87381 -9.82287 0
    endloop
  endfacet
  facet normal -0 0 -1
    outer loop
      vertex -0.293566 -0.903503 0
      vertex -3.09017 -9.51056 0
      vertex -0.40449 -0.859585 0
    endloop
  endfacet
  facet normal 0 0 -1
    outer loop
      vertex -4.25779 -9.04827 0
      vertex -0.40449 -0.859585 0
      vertex -3.09017 -9.51056 0
    endloop
  endfacet
  facet normal -0 0 -1
    outer loop
      vertex -0.40449 -0.859585 0
      vertex -4.25779 -9.04827 0
      vertex -0.509035 -0.802111 0
    endloop
  endfacet
  facet normal 0 0 -1
    outer loop
      vertex -5.35827 -8.44328 0
      vertex -0.509035 -0.802111 0
      vertex -4.25779 -9.04827 0
    endloop
  endfacet
  facet normal -0 0 -1
    outer loop
      vertex -0.509035 -0.802111 0
      vertex -5.35827 -8.44328 0
      vertex -0.605553 -0.731987 0
    endloop
  endfacet
  facet normal 0 0 -1
    outer loop
      vertex -6.37424 -7.70513 0
      vertex -0.605553 -0.731987 0
      vertex -5.35827 -8.44328 0
    endloop
  endfacet
  facet normal -0 0 -1
    outer loop
      vertex -0.605553 -0.731987 0
      vertex -6.37424 -7.70513 0
      vertex -0.69252 -0.650319 0
    endloop
  endfacet
  facet normal 0 0 -1
    outer loop
      vertex -7.28969 -6.84547 0
      vertex -0.69252 -0.650319 0
      vertex -6.37424 -7.70513 0
    endloop
  endfacet
  facet normal -0 0 -1
    outer loop
      vertex -0.69252 -0.650319 0
      vertex -7.28969 -6.84547 0
      vertex -0.768566 -0.558395 0
    endloop
  endfacet
  facet normal 0 0 -1
    outer loop
      vertex 0.69252 0.650319 0
      vertex 7.28969 6.84547 0
      vertex 0.768566 0.558395 0
    endloop
  endfacet
  facet normal -0 0 -1
    outer loop
      vertex 7.28969 6.84547 0
      vertex 0.69252 0.650319 0
      vertex 6.37424 7.70513 0
    endloop
  endfacet
  facet normal 0 0 -1
    outer loop
      vertex 0.605553 0.731987 0
      vertex 6.37424 7.70513 0
      vertex 0.69252 0.650319 0
    endloop
  endfacet
  facet normal -0 0 -1
    outer loop
      vertex 6.37424 7.70513 0
      vertex 0.605553 0.731987 0
      vertex 5.35827 8.44328 0
    endloop
  endfacet
  facet normal 0 0 -1
    outer loop
      vertex 0.509035 0.802111 0
      vertex 5.35827 8.44328 0
      vertex 0.605553 0.731987 0
    endloop
  endfacet
  facet normal -0 0 -1
    outer loop
      vertex 5.35827 8.44328 0
      vertex 0.509035 0.802111 0
      vertex 4.25779 9.04827 0
    endloop
  endfacet
  facet normal 0 0 -1
    outer loop
      vertex 0.40449 0.859585 0
      vertex 4.25779 9.04827 0
      vertex 0.509035 0.802111 0
    endloop
  endfacet
  facet normal -0 0 -1
    outer loop
      vertex 4.25779 9.04827 0
      vertex 0.40449 0.859585 0
      vertex 3.09017 9.51056 0
    endloop
  endfacet
  facet normal 0 0 -1
    outer loop
      vertex 0.293566 0.903503 0
      vertex 3.09017 9.51056 0
      vertex 0.40449 0.859585 0
    endloop
  endfacet
  facet normal -0 0 -1
    outer loop
      vertex 3.09017 9.51056 0
      vertex 0.293566 0.903503 0
      vertex 1.87381 9.82287 0
    endloop
  endfacet
  facet normal 0 0 -1
    outer loop
      vertex 0.178012 0.933172 0
      vertex 1.87381 9.82287 0
      vertex 0.293566 0.903503 0
    endloop
  endfacet
  facet normal -0 0 -1
    outer loop
      vertex 1.87381 9.82287 0
      vertex 0.178012 0.933172 0
      vertex 0.627905 9.98027 0
    endloop
  endfacet
  facet normal 0 0 -1
    outer loop
      vertex 0.0596504 0.948125 0
      vertex 0.627905 9.98027 0
      vertex 0.178012 0.933172 0
    endloop
  endfacet
  facet normal 0 0 -1
    outer loop
      vertex -0.0596504 0.948125 0
      vertex 0.627905 9.98027 0
      vertex 0.0596504 0.948125 0
    endloop
  endfacet
  facet normal 0 0 -1
    outer loop
      vertex -0.627905 9.98027 0
      vertex -0.0596504 0.948125 0
      vertex -0.178012 0.933172 0
    endloop
  endfacet
  facet normal 0 0 -1
    outer loop
      vertex -1.87381 9.82287 0
      vertex -0.178012 0.933172 0
      vertex -0.293566 0.903503 0
    endloop
  endfacet
  facet normal 0 0 -1
    outer loop
      vertex -3.09017 9.51056 0
      vertex -0.293566 0.903503 0
      vertex -0.40449 0.859585 0
    endloop
  endfacet
  facet normal 0 0 -1
    outer loop
      vertex -4.25779 9.04827 0
      vertex -0.40449 0.859585 0
      vertex -0.509035 0.802111 0
    endloop
  endfacet
  facet normal 0 0 -1
    outer loop
      vertex -5.35827 8.44328 0
      vertex -0.509035 0.802111 0
      vertex -0.605553 0.731987 0
    endloop
  endfacet
  facet normal 0 0 -1
    outer loop
      vertex -0.0596504 0.948125 0
      vertex -0.627905 9.98027 0
      vertex 0.627905 9.98027 0
    endloop
  endfacet
  facet normal 0 0 -1
    outer loop
      vertex -6.37424 7.70513 0
      vertex -0.605553 0.731987 0
      vertex -0.69252 0.650319 0
    endloop
  endfacet
  facet normal 0 0 -1
    outer loop
      vertex -7.28969 6.84547 0
      vertex -0.69252 0.650319 0
      vertex -0.768566 0.558395 0
    endloop
  endfacet
  facet normal 0 0 -1
    outer loop
      vertex -8.09017 5.87785 0
      vertex -0.768566 0.558395 0
      vertex -0.832491 0.457665 0
    endloop
  endfacet
  facet normal 0 0 -1
    outer loop
      vertex -8.76307 4.81754 0
      vertex -0.832491 0.457665 0
      vertex -0.883287 0.349718 0
    endloop
  endfacet
  facet normal 0 0 -1
    outer loop
      vertex -9.29776 3.68124 0
      vertex -0.883287 0.349718 0
      vertex -0.920154 0.236255 0
    endloop
  endfacet
  facet normal 0 0 -1
    outer loop
      vertex -9.68583 2.4869 0
      vertex -0.920154 0.236255 0
      vertex -0.942509 0.119066 0
    endloop
  endfacet
  facet normal 0 0 -1
    outer loop
      vertex -9.92115 1.25333 0
      vertex -0.942509 0.119066 0
      vertex -0.95 0 0
    endloop
  endfacet
  facet normal 0 0 -1
    outer loop
      vertex -8.09017 -5.87785 0
      vertex -0.768566 -0.558395 0
      vertex -7.28969 -6.84547 0
    endloop
  endfacet
  facet normal 0 0 -1
    outer loop
      vertex -0.178012 0.933172 0
      vertex -1.87381 9.82287 0
      vertex -0.627905 9.98027 0
    endloop
  endfacet
  facet normal -0 0 -1
    outer loop
      vertex -0.768566 -0.558395 0
      vertex -8.09017 -5.87785 0
      vertex -0.832491 -0.457665 0
    endloop
  endfacet
  facet normal 0 0 -1
    outer loop
      vertex -0.293566 0.903503 0
      vertex -3.09017 9.51056 0
      vertex -1.87381 9.82287 0
    endloop
  endfacet
  facet normal 0 0 -1
    outer loop
      vertex -8.76307 -4.81754 0
      vertex -0.832491 -0.457665 0
      vertex -8.09017 -5.87785 0
    endloop
  endfacet
  facet normal 0 0 -1
    outer loop
      vertex -0.40449 0.859585 0
      vertex -4.25779 9.04827 0
      vertex -3.09017 9.51056 0
    endloop
  endfacet
  facet normal -0 0 -1
    outer loop
      vertex -0.832491 -0.457665 0
      vertex -8.76307 -4.81754 0
      vertex -0.883287 -0.349718 0
    endloop
  endfacet
  facet normal 0 0 -1
    outer loop
      vertex -0.509035 0.802111 0
      vertex -5.35827 8.44328 0
      vertex -4.25779 9.04827 0
    endloop
  endfacet
  facet normal 0 0 -1
    outer loop
      vertex -9.29776 -3.68124 0
      vertex -0.883287 -0.349718 0
      vertex -8.76307 -4.81754 0
    endloop
  endfacet
  facet normal 0 0 -1
    outer loop
      vertex -0.605553 0.731987 0
      vertex -6.37424 7.70513 0
      vertex -5.35827 8.44328 0
    endloop
  endfacet
  facet normal -0 0 -1
    outer loop
      vertex -0.883287 -0.349718 0
      vertex -9.29776 -3.68124 0
      vertex -0.920154 -0.236255 0
    endloop
  endfacet
  facet normal 0 0 -1
    outer loop
      vertex -0.69252 0.650319 0
      vertex -7.28969 6.84547 0
      vertex -6.37424 7.70513 0
    endloop
  endfacet
  facet normal 0 0 -1
    outer loop
      vertex -9.68583 -2.4869 0
      vertex -0.920154 -0.236255 0
      vertex -9.29776 -3.68124 0
    endloop
  endfacet
  facet normal 0 0 -1
    outer loop
      vertex -0.768566 0.558395 0
      vertex -8.09017 5.87785 0
      vertex -7.28969 6.84547 0
    endloop
  endfacet
  facet normal -0 0 -1
    outer loop
      vertex -0.920154 -0.236255 0
      vertex -9.68583 -2.4869 0
      vertex -0.942509 -0.119066 0
    endloop
  endfacet
  facet normal 0 0 -1
    outer loop
      vertex -0.832491 0.457665 0
      vertex -8.76307 4.81754 0
      vertex -8.09017 5.87785 0
    endloop
  endfacet
  facet normal 0 0 -1
    outer loop
      vertex -9.92115 -1.25333 0
      vertex -0.942509 -0.119066 0
      vertex -9.68583 -2.4869 0
    endloop
  endfacet
  facet normal 0 0 -1
    outer loop
      vertex -0.883287 0.349718 0
      vertex -9.29776 3.68124 0
      vertex -8.76307 4.81754 0
    endloop
  endfacet
  facet normal -0 0 -1
    outer loop
      vertex -0.942509 -0.119066 0
      vertex -9.92115 -1.25333 0
      vertex -0.95 0 0
    endloop
  endfacet
  facet normal 0 0 -1
    outer loop
      vertex -0.920154 0.236255 0
      vertex -9.68583 2.4869 0
      vertex -9.29776 3.68124 0
    endloop
  endfacet
  facet normal 0 0 -1
    outer loop
      vertex -10 0 0
      vertex -0.95 0 0
      vertex -9.92115 -1.25333 0
    endloop
  endfacet
  facet normal 0 0 -1
    outer loop
      vertex -0.942509 0.119066 0
      vertex -9.92115 1.25333 0
      vertex -9.68583 2.4869 0
    endloop
  endfacet
  facet normal 0 0 -1
    outer loop
      vertex -0.95 0 0
      vertex -10 0 0
      vertex -9.92115 1.25333 0
    endloop
  endfacet
  facet normal 0 0 1
    outer loop
      vertex 0.95 0 6
      vertex 11.25 0 6
      vertex 11.1613 1.41 6
    endloop
  endfacet
  facet normal 0 0 1
    outer loop
      vertex 0.942509 0.119066 6
      vertex 11.1613 1.41 6
      vertex 10.8966 2.79776 6
    endloop
  endfacet
  facet normal 0 0 1
    outer loop
      vertex 11.25 0 6
      vertex 0.95 0 6
      vertex 11.1613 -1.41 6
    endloop
  endfacet
  facet normal 0 0 1
    outer loop
      vertex 0.920154 0.236255 6
      vertex 10.8966 2.79776 6
      vertex 10.46 4.1414 6
    endloop
  endfacet
  facet normal -0 0 1
    outer loop
      vertex 0.942509 -0.119066 6
      vertex 11.1613 -1.41 6
      vertex 0.95 0 6
    endloop
  endfacet
  facet normal 0 0 1
    outer loop
      vertex 0.883287 0.349718 6
      vertex 10.46 4.1414 6
      vertex 9.85845 5.41973 6
    endloop
  endfacet
  facet normal 0 0 1
    outer loop
      vertex 11.1613 -1.41 6
      vertex 0.942509 -0.119066 6
      vertex 10.8966 -2.79776 6
    endloop
  endfacet
  facet normal 0 0 1
    outer loop
      vertex 0.832491 0.457665 6
      vertex 9.85845 5.41973 6
      vertex 9.10144 6.61258 6
    endloop
  endfacet
  facet normal -0 0 1
    outer loop
      vertex 0.920154 -0.236255 6
      vertex 10.8966 -2.79776 6
      vertex 0.942509 -0.119066 6
    endloop
  endfacet
  facet normal 0 0 1
    outer loop
      vertex 0.768566 0.558395 6
      vertex 9.10144 6.61258 6
      vertex 8.2009 7.70115 6
    endloop
  endfacet
  facet normal 0 0 1
    outer loop
      vertex 10.8966 -2.79776 6
      vertex 0.920154 -0.236255 6
      vertex 10.46 -4.1414 6
    endloop
  endfacet
  facet normal 0 0 1
    outer loop
      vertex 0.69252 0.650319 6
      vertex 8.2009 7.70115 6
      vertex 7.17102 8.66827 6
    endloop
  endfacet
  facet normal -0 0 1
    outer loop
      vertex 0.883287 -0.349718 6
      vertex 10.46 -4.1414 6
      vertex 0.920154 -0.236255 6
    endloop
  endfacet
  facet normal 0 0 1
    outer loop
      vertex 0.605553 0.731987 6
      vertex 7.17102 8.66827 6
      vertex 6.02805 9.49869 6
    endloop
  endfacet
  facet normal 0 0 1
    outer loop
      vertex 10.46 -4.1414 6
      vertex 0.883287 -0.349718 6
      vertex 9.85845 -5.41973 6
    endloop
  endfacet
  facet normal 0 0 1
    outer loop
      vertex 0.509035 0.802111 6
      vertex 6.02805 9.49869 6
      vertex 4.79002 10.1793 6
    endloop
  endfacet
  facet normal -0 0 1
    outer loop
      vertex 0.832491 -0.457665 6
      vertex 9.85845 -5.41973 6
      vertex 0.883287 -0.349718 6
    endloop
  endfacet
  facet normal 0 0 1
    outer loop
      vertex 0.40449 0.859585 6
      vertex 4.79002 10.1793 6
      vertex 3.47644 10.6994 6
    endloop
  endfacet
  facet normal 0 0 1
    outer loop
      vertex 9.85845 -5.41973 6
      vertex 0.832491 -0.457665 6
      vertex 9.10144 -6.61258 6
    endloop
  endfacet
  facet normal 0 0 1
    outer loop
      vertex 0.293566 0.903503 6
      vertex 3.47644 10.6994 6
      vertex 2.10804 11.0507 6
    endloop
  endfacet
  facet normal -0 0 1
    outer loop
      vertex 0.768566 -0.558395 6
      vertex 9.10144 -6.61258 6
      vertex 0.832491 -0.457665 6
    endloop
  endfacet
  facet normal 0 0 1
    outer loop
      vertex 9.10144 -6.61258 6
      vertex 0.768566 -0.558395 6
      vertex 8.2009 -7.70115 6
    endloop
  endfacet
  facet normal 0 0 1
    outer loop
      vertex 11.1613 1.41 6
      vertex 0.942509 0.119066 6
      vertex 0.95 0 6
    endloop
  endfacet
  facet normal 0 0 1
    outer loop
      vertex 10.8966 2.79776 6
      vertex 0.920154 0.236255 6
      vertex 0.942509 0.119066 6
    endloop
  endfacet
  facet normal 0 0 1
    outer loop
      vertex 10.46 4.1414 6
      vertex 0.883287 0.349718 6
      vertex 0.920154 0.236255 6
    endloop
  endfacet
  facet normal 0 0 1
    outer loop
      vertex 9.85845 5.41973 6
      vertex 0.832491 0.457665 6
      vertex 0.883287 0.349718 6
    endloop
  endfacet
  facet normal 0 0 1
    outer loop
      vertex 9.10144 6.61258 6
      vertex 0.768566 0.558395 6
      vertex 0.832491 0.457665 6
    endloop
  endfacet
  facet normal 0 0 1
    outer loop
      vertex 0.178012 0.933172 6
      vertex 2.10804 11.0507 6
      vertex 0.706393 11.2278 6
    endloop
  endfacet
  facet normal 0 0 1
    outer loop
      vertex 8.2009 7.70115 6
      vertex 0.69252 0.650319 6
      vertex 0.768566 0.558395 6
    endloop
  endfacet
  facet normal 0 0 1
    outer loop
      vertex 7.17102 8.66827 6
      vertex 0.605553 0.731987 6
      vertex 0.69252 0.650319 6
    endloop
  endfacet
  facet normal 0 0 1
    outer loop
      vertex 6.02805 9.49869 6
      vertex 0.509035 0.802111 6
      vertex 0.605553 0.731987 6
    endloop
  endfacet
  facet normal 0 0 1
    outer loop
      vertex 4.79002 10.1793 6
      vertex 0.40449 0.859585 6
      vertex 0.509035 0.802111 6
    endloop
  endfacet
  facet normal 0 0 1
    outer loop
      vertex 3.47644 10.6994 6
      vertex 0.293566 0.903503 6
      vertex 0.40449 0.859585 6
    endloop
  endfacet
  facet normal 0 0 1
    outer loop
      vertex 2.10804 11.0507 6
      vertex 0.178012 0.933172 6
      vertex 0.293566 0.903503 6
    endloop
  endfacet
  facet normal 0 0 1
    outer loop
      vertex 0.706393 11.2278 6
      vertex 0.0596504 0.948125 6
      vertex 0.178012 0.933172 6
    endloop
  endfacet
  facet normal 0 0 1
    outer loop
      vertex 0.706393 11.2278 6
      vertex -0.0596504 0.948125 6
      vertex 0.0596504 0.948125 6
    endloop
  endfacet
  facet normal -0 0 1
    outer loop
      vertex -0.706393 11.2278 6
      vertex -0.0596504 0.948125 6
      vertex 0.706393 11.2278 6
    endloop
  endfacet
  facet normal 0 0 1
    outer loop
      vertex -0.0596504 0.948125 6
      vertex -0.706393 11.2278 6
      vertex -0.178012 0.933172 6
    endloop
  endfacet
  facet normal -0 0 1
    outer loop
      vertex -2.10804 11.0507 6
      vertex -0.178012 0.933172 6
      vertex -0.706393 11.2278 6
    endloop
  endfacet
  facet normal 0 0 1
    outer loop
      vertex -0.178012 0.933172 6
      vertex -2.10804 11.0507 6
      vertex -0.293566 0.903503 6
    endloop
  endfacet
  facet normal -0 0 1
    outer loop
      vertex -3.47644 10.6994 6
      vertex -0.293566 0.903503 6
      vertex -2.10804 11.0507 6
    endloop
  endfacet
  facet normal 0 0 1
    outer loop
      vertex -0.293566 0.903503 6
      vertex -3.47644 10.6994 6
      vertex -0.40449 0.859585 6
    endloop
  endfacet
  facet normal -0 0 1
    outer loop
      vertex -4.79002 10.1793 6
      vertex -0.40449 0.859585 6
      vertex -3.47644 10.6994 6
    endloop
  endfacet
  facet normal 0 0 1
    outer loop
      vertex -0.40449 0.859585 6
      vertex -4.79002 10.1793 6
      vertex -0.509035 0.802111 6
    endloop
  endfacet
  facet normal -0 0 1
    outer loop
      vertex -6.02805 9.49869 6
      vertex -0.509035 0.802111 6
      vertex -4.79002 10.1793 6
    endloop
  endfacet
  facet normal 0 0 1
    outer loop
      vertex -0.509035 0.802111 6
      vertex -6.02805 9.49869 6
      vertex -0.605553 0.731987 6
    endloop
  endfacet
  facet normal -0 0 1
    outer loop
      vertex -7.17102 8.66827 6
      vertex -0.605553 0.731987 6
      vertex -6.02805 9.49869 6
    endloop
  endfacet
  facet normal 0 0 1
    outer loop
      vertex -0.605553 0.731987 6
      vertex -7.17102 8.66827 6
      vertex -0.69252 0.650319 6
    endloop
  endfacet
  facet normal -0 0 1
    outer loop
      vertex -8.2009 7.70115 6
      vertex -0.69252 0.650319 6
      vertex -7.17102 8.66827 6
    endloop
  endfacet
  facet normal 0 0 1
    outer loop
      vertex -0.69252 0.650319 6
      vertex -8.2009 7.70115 6
      vertex -0.768566 0.558395 6
    endloop
  endfacet
  facet normal -0 0 1
    outer loop
      vertex 0.69252 -0.650319 6
      vertex 8.2009 -7.70115 6
      vertex 0.768566 -0.558395 6
    endloop
  endfacet
  facet normal 0 0 1
    outer loop
      vertex 8.2009 -7.70115 6
      vertex 0.69252 -0.650319 6
      vertex 7.17102 -8.66827 6
    endloop
  endfacet
  facet normal -0 0 1
    outer loop
      vertex 0.605553 -0.731987 6
      vertex 7.17102 -8.66827 6
      vertex 0.69252 -0.650319 6
    endloop
  endfacet
  facet normal 0 0 1
    outer loop
      vertex 7.17102 -8.66827 6
      vertex 0.605553 -0.731987 6
      vertex 6.02805 -9.49869 6
    endloop
  endfacet
  facet normal -0 0 1
    outer loop
      vertex 0.509035 -0.802111 6
      vertex 6.02805 -9.49869 6
      vertex 0.605553 -0.731987 6
    endloop
  endfacet
  facet normal 0 0 1
    outer loop
      vertex 6.02805 -9.49869 6
      vertex 0.509035 -0.802111 6
      vertex 4.79002 -10.1793 6
    endloop
  endfacet
  facet normal -0 0 1
    outer loop
      vertex 0.40449 -0.859585 6
      vertex 4.79002 -10.1793 6
      vertex 0.509035 -0.802111 6
    endloop
  endfacet
  facet normal 0 0 1
    outer loop
      vertex 4.79002 -10.1793 6
      vertex 0.40449 -0.859585 6
      vertex 3.47644 -10.6994 6
    endloop
  endfacet
  facet normal -0 0 1
    outer loop
      vertex 0.293566 -0.903503 6
      vertex 3.47644 -10.6994 6
      vertex 0.40449 -0.859585 6
    endloop
  endfacet
  facet normal 0 0 1
    outer loop
      vertex 3.47644 -10.6994 6
      vertex 0.293566 -0.903503 6
      vertex 2.10804 -11.0507 6
    endloop
  endfacet
  facet normal -0 0 1
    outer loop
      vertex 0.178012 -0.933172 6
      vertex 2.10804 -11.0507 6
      vertex 0.293566 -0.903503 6
    endloop
  endfacet
  facet normal 0 0 1
    outer loop
      vertex 2.10804 -11.0507 6
      vertex 0.178012 -0.933172 6
      vertex 0.706393 -11.2278 6
    endloop
  endfacet
  facet normal -0 0 1
    outer loop
      vertex 0.0596504 -0.948125 6
      vertex 0.706393 -11.2278 6
      vertex 0.178012 -0.933172 6
    endloop
  endfacet
  facet normal -0 0 1
    outer loop
      vertex -0.0596504 -0.948125 6
      vertex 0.706393 -11.2278 6
      vertex 0.0596504 -0.948125 6
    endloop
  endfacet
  facet normal 0 0 1
    outer loop
      vertex -0.706393 -11.2278 6
      vertex -0.0596504 -0.948125 6
      vertex -0.178012 -0.933172 6
    endloop
  endfacet
  facet normal 0 0 1
    outer loop
      vertex -2.10804 -11.0507 6
      vertex -0.178012 -0.933172 6
      vertex -0.293566 -0.903503 6
    endloop
  endfacet
  facet normal 0 0 1
    outer loop
      vertex -3.47644 -10.6994 6
      vertex -0.293566 -0.903503 6
      vertex -0.40449 -0.859585 6
    endloop
  endfacet
  facet normal 0 0 1
    outer loop
      vertex -4.79002 -10.1793 6
      vertex -0.40449 -0.859585 6
      vertex -0.509035 -0.802111 6
    endloop
  endfacet
  facet normal 0 0 1
    outer loop
      vertex -6.02805 -9.49869 6
      vertex -0.509035 -0.802111 6
      vertex -0.605553 -0.731987 6
    endloop
  endfacet
  facet normal 0 0 1
    outer loop
      vertex -7.17102 -8.66827 6
      vertex -0.605553 -0.731987 6
      vertex -0.69252 -0.650319 6
    endloop
  endfacet
  facet normal 0 0 1
    outer loop
      vertex -0.0596504 -0.948125 6
      vertex -0.706393 -11.2278 6
      vertex 0.706393 -11.2278 6
    endloop
  endfacet
  facet normal 0 0 1
    outer loop
      vertex -8.2009 -7.70115 6
      vertex -0.69252 -0.650319 6
      vertex -0.768566 -0.558395 6
    endloop
  endfacet
  facet normal 0 0 1
    outer loop
      vertex -9.10144 -6.61258 6
      vertex -0.768566 -0.558395 6
      vertex -0.832491 -0.457665 6
    endloop
  endfacet
  facet normal 0 0 1
    outer loop
      vertex -9.85845 -5.41973 6
      vertex -0.832491 -0.457665 6
      vertex -0.883287 -0.349718 6
    endloop
  endfacet
  facet normal 0 0 1
    outer loop
      vertex -10.46 -4.1414 6
      vertex -0.883287 -0.349718 6
      vertex -0.920154 -0.236255 6
    endloop
  endfacet
  facet normal 0 0 1
    outer loop
      vertex -10.8966 -2.79776 6
      vertex -0.920154 -0.236255 6
      vertex -0.942509 -0.119066 6
    endloop
  endfacet
  facet normal 0 0 1
    outer loop
      vertex -11.1613 -1.41 6
      vertex -0.942509 -0.119066 6
      vertex -0.95 0 6
    endloop
  endfacet
  facet normal -0 0 1
    outer loop
      vertex -9.10144 6.61258 6
      vertex -0.768566 0.558395 6
      vertex -8.2009 7.70115 6
    endloop
  endfacet
  facet normal 0 0 1
    outer loop
      vertex -0.178012 -0.933172 6
      vertex -2.10804 -11.0507 6
      vertex -0.706393 -11.2278 6
    endloop
  endfacet
  facet normal 0 0 1
    outer loop
      vertex -0.768566 0.558395 6
      vertex -9.10144 6.61258 6
      vertex -0.832491 0.457665 6
    endloop
  endfacet
  facet normal 0 0 1
    outer loop
      vertex -0.293566 -0.903503 6
      vertex -3.47644 -10.6994 6
      vertex -2.10804 -11.0507 6
    endloop
  endfacet
  facet normal -0 0 1
    outer loop
      vertex -9.85845 5.41973 6
      vertex -0.832491 0.457665 6
      vertex -9.10144 6.61258 6
    endloop
  endfacet
  facet normal 0 0 1
    outer loop
      vertex -0.40449 -0.859585 6
      vertex -4.79002 -10.1793 6
      vertex -3.47644 -10.6994 6
    endloop
  endfacet
  facet normal 0 0 1
    outer loop
      vertex -0.832491 0.457665 6
      vertex -9.85845 5.41973 6
      vertex -0.883287 0.349718 6
    endloop
  endfacet
  facet normal 0 0 1
    outer loop
      vertex -0.509035 -0.802111 6
      vertex -6.02805 -9.49869 6
      vertex -4.79002 -10.1793 6
    endloop
  endfacet
  facet normal -0 0 1
    outer loop
      vertex -10.46 4.1414 6
      vertex -0.883287 0.349718 6
      vertex -9.85845 5.41973 6
    endloop
  endfacet
  facet normal 0 0 1
    outer loop
      vertex -0.605553 -0.731987 6
      vertex -7.17102 -8.66827 6
      vertex -6.02805 -9.49869 6
    endloop
  endfacet
  facet normal 0 0 1
    outer loop
      vertex -0.883287 0.349718 6
      vertex -10.46 4.1414 6
      vertex -0.920154 0.236255 6
    endloop
  endfacet
  facet normal 0 0 1
    outer loop
      vertex -0.69252 -0.650319 6
      vertex -8.2009 -7.70115 6
      vertex -7.17102 -8.66827 6
    endloop
  endfacet
  facet normal -0 0 1
    outer loop
      vertex -10.8966 2.79776 6
      vertex -0.920154 0.236255 6
      vertex -10.46 4.1414 6
    endloop
  endfacet
  facet normal 0 0 1
    outer loop
      vertex -0.768566 -0.558395 6
      vertex -9.10144 -6.61258 6
      vertex -8.2009 -7.70115 6
    endloop
  endfacet
  facet normal 0 0 1
    outer loop
      vertex -0.920154 0.236255 6
      vertex -10.8966 2.79776 6
      vertex -0.942509 0.119066 6
    endloop
  endfacet
  facet normal 0 0 1
    outer loop
      vertex -0.832491 -0.457665 6
      vertex -9.85845 -5.41973 6
      vertex -9.10144 -6.61258 6
    endloop
  endfacet
  facet normal -0 0 1
    outer loop
      vertex -11.1613 1.41 6
      vertex -0.942509 0.119066 6
      vertex -10.8966 2.79776 6
    endloop
  endfacet
  facet normal 0 0 1
    outer loop
      vertex -0.883287 -0.349718 6
      vertex -10.46 -4.1414 6
      vertex -9.85845 -5.41973 6
    endloop
  endfacet
  facet normal 0 0 1
    outer loop
      vertex -0.942509 0.119066 6
      vertex -11.1613 1.41 6
      vertex -0.95 0 6
    endloop
  endfacet
  facet normal 0 0 1
    outer loop
      vertex -0.920154 -0.236255 6
      vertex -10.8966 -2.79776 6
      vertex -10.46 -4.1414 6
    endloop
  endfacet
  facet normal 0 0 1
    outer loop
      vertex -11.25 0 6
      vertex -0.95 0 6
      vertex -11.1613 1.41 6
    endloop
  endfacet
  facet normal 0 0 1
    outer loop
      vertex -0.942509 -0.119066 6
      vertex -11.1613 -1.41 6
      vertex -10.8966 -2.79776 6
    endloop
  endfacet
  facet normal 0 0 1
    outer loop
      vertex -0.95 0 6
      vertex -11.25 0 6
      vertex -11.1613 -1.41 6
    endloop
  endfacet
endsolid OpenSCAD_Model
