<?xml version="1.0" standalone="no"?>
<!DOCTYPE svg PUBLIC "-//W3C//DTD SVG 1.1//EN" "http://www.w3.org/Graphics/SVG/1.1/DTD/svg11.dtd">
<svg width="46mm" height="507mm" viewBox="-23 -834 46 507" xmlns="http://www.w3.org/2000/svg" version="1.1">
<title>OpenSCAD Model</title>
<path d="
M 18.4369,-714.089 L 19.0451,-714.245 L 19.6289,-714.476 L 20.1791,-714.778 L 20.6871,-715.147 L 21.1448,-715.577
 L 21.5451,-716.061 L 21.8815,-716.591 L 22.1489,-717.159 L 22.3429,-717.757 L 22.4606,-718.373 L 22.5,-719
 L 22.5,-829 L 22.4606,-829.627 L 22.3429,-830.243 L 22.1489,-830.841 L 21.8815,-831.409 L 21.5451,-831.939
 L 21.1448,-832.423 L 20.6871,-832.853 L 20.1791,-833.222 L 19.6289,-833.524 L 19.0451,-833.755 L 18.4369,-833.911
 L 17.8139,-833.99 L -17.8139,-833.99 L -18.4369,-833.911 L -19.0451,-833.755 L -19.5,-833.575 L -19.5,-833.615
 L -22.5,-833.615 L -22.5,-714.385 L -19.5,-714.385 L -19.5,-714.425 L -19.0451,-714.245 L -18.4369,-714.089
 L -17.8139,-714.01 L 17.8139,-714.01 z
M -17.2512,-715.508 L -17.7495,-715.571 L -18.2361,-715.696 L -18.7031,-715.881 L -19.1433,-716.123 L -19.5497,-716.418
 L -19.9159,-716.762 L -20.2361,-717.149 L -20.5052,-717.573 L -20.7191,-718.028 L -20.8743,-718.505 L -20.9684,-718.999
 L -21,-719.5 L -21,-828.5 L -20.9684,-829.001 L -20.8743,-829.495 L -20.7191,-829.972 L -20.5052,-830.427
 L -20.2361,-830.851 L -19.9159,-831.238 L -19.5497,-831.582 L -19.1433,-831.877 L -18.7031,-832.119 L -18.2361,-832.304
 L -17.7495,-832.429 L -17.2512,-832.492 L 17.2512,-832.492 L 17.7495,-832.429 L 18.2361,-832.304 L 18.7031,-832.119
 L 19.1433,-831.877 L 19.5497,-831.582 L 19.9159,-831.238 L 20.2361,-830.851 L 20.5052,-830.427 L 20.7191,-829.972
 L 20.8743,-829.495 L 20.9684,-829.001 L 21,-828.5 L 21,-719.5 L 20.9684,-718.999 L 20.8743,-718.505
 L 20.7191,-718.028 L 20.5052,-717.573 L 20.2361,-717.149 L 19.9159,-716.762 L 19.5497,-716.418 L 19.1433,-716.123
 L 18.7031,-715.881 L 18.2361,-715.696 L 17.7495,-715.571 L 17.2512,-715.508 z
M 18.4369,-585.089 L 19.0451,-585.245 L 19.6289,-585.476 L 20.1791,-585.778 L 20.6871,-586.147 L 21.1448,-586.577
 L 21.5451,-587.061 L 21.8815,-587.591 L 22.1489,-588.159 L 22.3429,-588.757 L 22.4606,-589.373 L 22.5,-590
 L 22.5,-700 L 22.4606,-700.627 L 22.3429,-701.243 L 22.1489,-701.841 L 21.8815,-702.409 L 21.5451,-702.939
 L 21.1448,-703.423 L 20.6871,-703.853 L 20.1791,-704.222 L 19.6289,-704.524 L 19.0451,-704.755 L 18.4369,-704.911
 L 17.8139,-704.99 L -17.8139,-704.99 L -18.4369,-704.911 L -19.0451,-704.755 L -19.6289,-704.524 L -20.1791,-704.222
 L -20.6871,-703.853 L -21.1448,-703.423 L -21.5451,-702.939 L -21.8815,-702.409 L -22.1489,-701.841 L -22.3429,-701.243
 L -22.4,-700.944 L -22.5,-700.944 L -22.5,-589.056 L -22.4,-589.056 L -22.3429,-588.757 L -22.1489,-588.159
 L -21.8815,-587.591 L -21.5451,-587.061 L -21.1448,-586.577 L -20.6871,-586.147 L -20.1791,-585.778 L -19.6289,-585.476
 L -19.0451,-585.245 L -18.4369,-585.089 L -17.8139,-585.01 L 17.8139,-585.01 z
M -17.2432,-586.635 L -17.7256,-586.696 L -18.1967,-586.817 L -18.6489,-586.996 L -19.0751,-587.23 L -19.4685,-587.516
 L -19.823,-587.849 L -20.133,-588.224 L -20.3936,-588.634 L -20.6007,-589.074 L -20.751,-589.537 L -20.8421,-590.015
 L -20.8726,-590.5 L -20.8726,-699.5 L -20.8421,-699.985 L -20.751,-700.463 L -20.6007,-700.926 L -20.3936,-701.366
 L -20.133,-701.776 L -19.823,-702.151 L -19.4685,-702.484 L -19.0751,-702.77 L -18.6489,-703.004 L -18.1967,-703.183
 L -17.7256,-703.304 L -17.2432,-703.365 L 17.2432,-703.365 L 17.7256,-703.304 L 18.1967,-703.183 L 18.6489,-703.004
 L 19.0751,-702.77 L 19.4685,-702.484 L 19.823,-702.151 L 20.133,-701.776 L 20.3936,-701.366 L 20.6007,-700.926
 L 20.751,-700.463 L 20.8421,-699.985 L 20.8726,-699.5 L 20.8726,-590.5 L 20.8421,-590.015 L 20.751,-589.537
 L 20.6007,-589.074 L 20.3936,-588.634 L 20.133,-588.224 L 19.823,-587.849 L 19.4685,-587.516 L 19.0751,-587.23
 L 18.6489,-586.996 L 18.1967,-586.817 L 17.7256,-586.696 L 17.2432,-586.635 z
M 18.4369,-456.089 L 19.0451,-456.245 L 19.6289,-456.476 L 20.1791,-456.778 L 20.6871,-457.147 L 21.1448,-457.577
 L 21.5451,-458.061 L 21.8815,-458.591 L 22.1489,-459.159 L 22.3429,-459.757 L 22.4606,-460.373 L 22.5,-461
 L 22.5,-571 L 22.4606,-571.627 L 22.3429,-572.243 L 22.1489,-572.841 L 21.8815,-573.409 L 21.5451,-573.939
 L 21.1448,-574.423 L 20.6871,-574.853 L 20.1791,-575.222 L 19.6289,-575.524 L 19.0451,-575.755 L 18.4369,-575.911
 L 17.8139,-575.99 L -17.8139,-575.99 L -18.4369,-575.911 L -19.0451,-575.755 L -19.6289,-575.524 L -20.1791,-575.222
 L -20.6871,-574.853 L -21.1448,-574.423 L -21.5451,-573.939 L -21.8815,-573.409 L -22.1489,-572.841 L -22.3429,-572.243
 L -22.4606,-571.627 L -22.5,-571 L -22.5,-461 L -22.4606,-460.373 L -22.3429,-459.757 L -22.1489,-459.159
 L -21.8815,-458.591 L -21.5451,-458.061 L -21.1448,-457.577 L -20.6871,-457.147 L -20.1791,-456.778 L -19.6289,-456.476
 L -19.0451,-456.245 L -18.4369,-456.089 L -17.8139,-456.01 L 17.8139,-456.01 z
M 14.8493,-566.105 L 14.5503,-566.143 L 14.2583,-566.217 L 13.9781,-566.328 L 13.714,-566.474 L 13.4702,-566.651
 L 13.2505,-566.857 L 13.0583,-567.089 L 12.8969,-567.344 L 12.7685,-567.617 L 12.6754,-567.903 L 12.6189,-568.199
 L 12.6,-568.5 L 12.6189,-568.801 L 12.6754,-569.097 L 12.7685,-569.383 L 12.8969,-569.656 L 13.0583,-569.911
 L 13.2505,-570.143 L 13.4702,-570.349 L 13.714,-570.526 L 13.9781,-570.672 L 14.2583,-570.783 L 14.5503,-570.857
 L 14.8493,-570.895 L 15.1507,-570.895 L 15.4497,-570.857 L 15.7416,-570.783 L 16.0219,-570.672 L 16.286,-570.526
 L 16.5298,-570.349 L 16.7495,-570.143 L 16.9416,-569.911 L 17.1031,-569.656 L 17.2315,-569.383 L 17.3246,-569.097
 L 17.3811,-568.801 L 17.4,-568.5 L 17.3811,-568.199 L 17.3246,-567.903 L 17.2315,-567.617 L 17.1031,-567.344
 L 16.9416,-567.089 L 16.7495,-566.857 L 16.5298,-566.651 L 16.286,-566.474 L 16.0219,-566.328 L 15.7416,-566.217
 L 15.4497,-566.143 L 15.1507,-566.105 z
M -15.1507,-566.105 L -15.4497,-566.143 L -15.7416,-566.217 L -16.0219,-566.328 L -16.286,-566.474 L -16.5298,-566.651
 L -16.7495,-566.857 L -16.9416,-567.089 L -17.1031,-567.344 L -17.2315,-567.617 L -17.3246,-567.903 L -17.3811,-568.199
 L -17.4,-568.5 L -17.3811,-568.801 L -17.3246,-569.097 L -17.2315,-569.383 L -17.1031,-569.656 L -16.9416,-569.911
 L -16.7495,-570.143 L -16.5298,-570.349 L -16.286,-570.526 L -16.0219,-570.672 L -15.7416,-570.783 L -15.4497,-570.857
 L -15.1507,-570.895 L -14.8493,-570.895 L -14.5503,-570.857 L -14.2583,-570.783 L -13.9781,-570.672 L -13.714,-570.526
 L -13.4702,-570.349 L -13.2505,-570.143 L -13.0583,-569.911 L -12.8969,-569.656 L -12.7685,-569.383 L -12.6754,-569.097
 L -12.6189,-568.801 L -12.6,-568.5 L -12.6189,-568.199 L -12.6754,-567.903 L -12.7685,-567.617 L -12.8969,-567.344
 L -13.0583,-567.089 L -13.2505,-566.857 L -13.4702,-566.651 L -13.714,-566.474 L -13.9781,-566.328 L -14.2583,-566.217
 L -14.5503,-566.143 L -14.8493,-566.105 z
M 14.8493,-461.105 L 14.5503,-461.143 L 14.2583,-461.217 L 13.9781,-461.328 L 13.714,-461.474 L 13.4702,-461.651
 L 13.2505,-461.857 L 13.0583,-462.089 L 12.8969,-462.344 L 12.7685,-462.617 L 12.6754,-462.903 L 12.6189,-463.199
 L 12.6,-463.5 L 12.6189,-463.801 L 12.6754,-464.097 L 12.7685,-464.383 L 12.8969,-464.656 L 13.0583,-464.911
 L 13.2505,-465.143 L 13.4702,-465.349 L 13.714,-465.526 L 13.9781,-465.672 L 14.2583,-465.783 L 14.5503,-465.857
 L 14.8493,-465.895 L 15.1507,-465.895 L 15.4497,-465.857 L 15.7416,-465.783 L 16.0219,-465.672 L 16.286,-465.526
 L 16.5298,-465.349 L 16.7495,-465.143 L 16.9416,-464.911 L 17.1031,-464.656 L 17.2315,-464.383 L 17.3246,-464.097
 L 17.3811,-463.801 L 17.4,-463.5 L 17.3811,-463.199 L 17.3246,-462.903 L 17.2315,-462.617 L 17.1031,-462.344
 L 16.9416,-462.089 L 16.7495,-461.857 L 16.5298,-461.651 L 16.286,-461.474 L 16.0219,-461.328 L 15.7416,-461.217
 L 15.4497,-461.143 L 15.1507,-461.105 z
M -15.1507,-461.105 L -15.4497,-461.143 L -15.7416,-461.217 L -16.0219,-461.328 L -16.286,-461.474 L -16.5298,-461.651
 L -16.7495,-461.857 L -16.9416,-462.089 L -17.1031,-462.344 L -17.2315,-462.617 L -17.3246,-462.903 L -17.3811,-463.199
 L -17.4,-463.5 L -17.3811,-463.801 L -17.3246,-464.097 L -17.2315,-464.383 L -17.1031,-464.656 L -16.9416,-464.911
 L -16.7495,-465.143 L -16.5298,-465.349 L -16.286,-465.526 L -16.0219,-465.672 L -15.7416,-465.783 L -15.4497,-465.857
 L -15.1507,-465.895 L -14.8493,-465.895 L -14.5503,-465.857 L -14.2583,-465.783 L -13.9781,-465.672 L -13.714,-465.526
 L -13.4702,-465.349 L -13.2505,-465.143 L -13.0583,-464.911 L -12.8969,-464.656 L -12.7685,-464.383 L -12.6754,-464.097
 L -12.6189,-463.801 L -12.6,-463.5 L -12.6189,-463.199 L -12.6754,-462.903 L -12.7685,-462.617 L -12.8969,-462.344
 L -13.0583,-462.089 L -13.2505,-461.857 L -13.4702,-461.651 L -13.714,-461.474 L -13.9781,-461.328 L -14.2583,-461.217
 L -14.5503,-461.143 L -14.8493,-461.105 z
M 18.4369,-327.089 L 19.0451,-327.245 L 19.6289,-327.476 L 20.1791,-327.778 L 20.6871,-328.147 L 21.1448,-328.577
 L 21.5451,-329.061 L 21.8815,-329.591 L 22.1489,-330.159 L 22.3429,-330.757 L 22.4606,-331.373 L 22.5,-332
 L 22.5,-442 L 22.4606,-442.627 L 22.3429,-443.243 L 22.1489,-443.841 L 21.8815,-444.409 L 21.5451,-444.939
 L 21.1448,-445.423 L 20.6871,-445.853 L 20.1791,-446.222 L 19.6289,-446.524 L 19.0451,-446.755 L 18.4369,-446.911
 L 17.8139,-446.99 L -17.8139,-446.99 L -18.4369,-446.911 L -19.0451,-446.755 L -19.6289,-446.524 L -20.1791,-446.222
 L -20.6871,-445.853 L -21.1448,-445.423 L -21.5451,-444.939 L -21.8815,-444.409 L -22.1489,-443.841 L -22.3429,-443.243
 L -22.4606,-442.627 L -22.5,-442 L -22.5,-332 L -22.4606,-331.373 L -22.3429,-330.757 L -22.1489,-330.159
 L -21.8815,-329.591 L -21.5451,-329.061 L -21.1448,-328.577 L -20.6871,-328.147 L -20.1791,-327.778 L -19.6289,-327.476
 L -19.0451,-327.245 L -18.4369,-327.089 L -17.8139,-327.01 L 17.8139,-327.01 z
M 14.887,-437.704 L 14.6627,-437.732 L 14.4438,-437.788 L 14.2336,-437.871 L 14.0355,-437.98 L 13.8526,-438.113
 L 13.6879,-438.268 L 13.5438,-438.442 L 13.4226,-438.633 L 13.3264,-438.837 L 13.2565,-439.052 L 13.2142,-439.274
 L 13.2,-439.5 L 13.2142,-439.726 L 13.2565,-439.948 L 13.3264,-440.163 L 13.4226,-440.367 L 13.5438,-440.558
 L 13.6879,-440.732 L 13.8526,-440.887 L 14.0355,-441.02 L 14.2336,-441.129 L 14.4438,-441.212 L 14.6627,-441.268
 L 14.887,-441.296 L 15.113,-441.296 L 15.3373,-441.268 L 15.5562,-441.212 L 15.7664,-441.129 L 15.9645,-441.02
 L 16.1474,-440.887 L 16.3121,-440.732 L 16.4562,-440.558 L 16.5773,-440.367 L 16.6736,-440.163 L 16.7434,-439.948
 L 16.7858,-439.726 L 16.8,-439.5 L 16.7858,-439.274 L 16.7434,-439.052 L 16.6736,-438.837 L 16.5773,-438.633
 L 16.4562,-438.442 L 16.3121,-438.268 L 16.1474,-438.113 L 15.9645,-437.98 L 15.7664,-437.871 L 15.5562,-437.788
 L 15.3373,-437.732 L 15.113,-437.704 z
M -15.113,-437.704 L -15.3373,-437.732 L -15.5562,-437.788 L -15.7664,-437.871 L -15.9645,-437.98 L -16.1474,-438.113
 L -16.3121,-438.268 L -16.4562,-438.442 L -16.5773,-438.633 L -16.6736,-438.837 L -16.7434,-439.052 L -16.7858,-439.274
 L -16.8,-439.5 L -16.7858,-439.726 L -16.7434,-439.948 L -16.6736,-440.163 L -16.5773,-440.367 L -16.4562,-440.558
 L -16.3121,-440.732 L -16.1474,-440.887 L -15.9645,-441.02 L -15.7664,-441.129 L -15.5562,-441.212 L -15.3373,-441.268
 L -15.113,-441.296 L -14.887,-441.296 L -14.6627,-441.268 L -14.4438,-441.212 L -14.2336,-441.129 L -14.0355,-441.02
 L -13.8526,-440.887 L -13.6879,-440.732 L -13.5438,-440.558 L -13.4226,-440.367 L -13.3264,-440.163 L -13.2565,-439.948
 L -13.2142,-439.726 L -13.2,-439.5 L -13.2142,-439.274 L -13.2565,-439.052 L -13.3264,-438.837 L -13.4226,-438.633
 L -13.5438,-438.442 L -13.6879,-438.268 L -13.8526,-438.113 L -14.0355,-437.98 L -14.2336,-437.871 L -14.4438,-437.788
 L -14.6627,-437.732 L -14.887,-437.704 z
M -15.113,-332.704 L -15.3373,-332.732 L -15.5562,-332.788 L -15.7664,-332.871 L -15.9645,-332.98 L -16.1474,-333.113
 L -16.3121,-333.268 L -16.4562,-333.442 L -16.5773,-333.633 L -16.6736,-333.837 L -16.7434,-334.052 L -16.7858,-334.274
 L -16.8,-334.5 L -16.7858,-334.726 L -16.7434,-334.948 L -16.6736,-335.163 L -16.5773,-335.367 L -16.4562,-335.558
 L -16.3121,-335.732 L -16.1474,-335.887 L -15.9645,-336.02 L -15.7664,-336.129 L -15.5562,-336.212 L -15.3373,-336.268
 L -15.113,-336.296 L -14.887,-336.296 L -14.6627,-336.268 L -14.4438,-336.212 L -14.2336,-336.129 L -14.0355,-336.02
 L -13.8526,-335.887 L -13.6879,-335.732 L -13.5438,-335.558 L -13.4226,-335.367 L -13.3264,-335.163 L -13.2565,-334.948
 L -13.2142,-334.726 L -13.2,-334.5 L -13.2142,-334.274 L -13.2565,-334.052 L -13.3264,-333.837 L -13.4226,-333.633
 L -13.5438,-333.442 L -13.6879,-333.268 L -13.8526,-333.113 L -14.0355,-332.98 L -14.2336,-332.871 L -14.4438,-332.788
 L -14.6627,-332.732 L -14.887,-332.704 z
M 14.887,-332.704 L 14.6627,-332.732 L 14.4438,-332.788 L 14.2336,-332.871 L 14.0355,-332.98 L 13.8526,-333.113
 L 13.6879,-333.268 L 13.5438,-333.442 L 13.4226,-333.633 L 13.3264,-333.837 L 13.2565,-334.052 L 13.2142,-334.274
 L 13.2,-334.5 L 13.2142,-334.726 L 13.2565,-334.948 L 13.3264,-335.163 L 13.4226,-335.367 L 13.5438,-335.558
 L 13.6879,-335.732 L 13.8526,-335.887 L 14.0355,-336.02 L 14.2336,-336.129 L 14.4438,-336.212 L 14.6627,-336.268
 L 14.887,-336.296 L 15.113,-336.296 L 15.3373,-336.268 L 15.5562,-336.212 L 15.7664,-336.129 L 15.9645,-336.02
 L 16.1474,-335.887 L 16.3121,-335.732 L 16.4562,-335.558 L 16.5773,-335.367 L 16.6736,-335.163 L 16.7434,-334.948
 L 16.7858,-334.726 L 16.8,-334.5 L 16.7858,-334.274 L 16.7434,-334.052 L 16.6736,-333.837 L 16.5773,-333.633
 L 16.4562,-333.442 L 16.3121,-333.268 L 16.1474,-333.113 L 15.9645,-332.98 L 15.7664,-332.871 L 15.5562,-332.788
 L 15.3373,-332.732 L 15.113,-332.704 z
" stroke="black" fill="lightgray" stroke-width="0.5"/>
</svg>
