<?xml version="1.0" standalone="no"?>
<!DOCTYPE svg PUBLIC "-//W3C//DTD SVG 1.1//EN" "http://www.w3.org/Graphics/SVG/1.1/DTD/svg11.dtd">
<svg width="44mm" height="30mm" viewBox="-22 -7 44 30" xmlns="http://www.w3.org/2000/svg" version="1.1">
<title>OpenSCAD Model</title>
<path d="
M 1.04414,22.5113 L 1.8423,22.4285 L 2.58603,22.2904 L 3.27533,22.0972 L 3.91019,21.8487 L 4.49062,21.545
 L 5.0166,21.1861 L 5.47981,20.7774 L 5.87175,20.3246 L 6.19243,19.8276 L 6.44183,19.2864 L 6.62,18.7011
 L 6.72688,18.0716 L 6.76251,17.3979 L 6.73885,16.9381 L 6.66786,16.5012 L 6.54953,16.0872 L 6.38388,15.6961
 L 6.1709,15.3278 L 5.91058,14.9825 L 5.60295,14.66 L 5.25401,14.3664 L 4.86986,14.1078 L 4.45045,13.8842
 L 3.9958,13.6955 L 3.50592,13.5419 L 2.9808,13.4232 L 2.42044,13.3395 L 2.42044,13.2878 L 2.93661,13.1705
 L 3.41756,13.0249 L 3.86324,12.8509 L 4.2737,12.6484 L 4.64891,12.4175 L 4.98889,12.1583 L 5.29362,11.8706
 L 5.56029,11.5579 L 5.78592,11.2237 L 5.97054,10.8679 L 6.11412,10.4906 L 6.21667,10.0917 L 6.27821,9.67122
 L 6.29872,9.2292 L 6.2836,8.84201 L 6.23824,8.46825 L 6.16263,8.10788 L 6.05676,7.76094 L 5.92067,7.42741
 L 5.75432,7.10732 L 5.6792,6.99013 L 17.3139,6.99013 L 17.9369,6.91142 L 18.5451,6.75528 L 19.1289,6.52412
 L 19.6791,6.22163 L 20.1871,5.85255 L 20.6448,5.42273 L 21.0451,4.93892 L 21.3815,4.40877 L 21.6489,3.84062
 L 21.8429,3.24344 L 21.9606,2.62666 L 22,2 L 22,-2 L 21.9606,-2.62666 L 21.8429,-3.24344
 L 21.6489,-3.84062 L 21.3815,-4.40877 L 21.0451,-4.93892 L 20.6448,-5.42273 L 20.1871,-5.85255 L 19.6791,-6.22163
 L 19.1289,-6.52412 L 18.5451,-6.75528 L 17.9369,-6.91142 L 17.3139,-6.99013 L -17.3139,-6.99013 L -17.9369,-6.91142
 L -18.5451,-6.75528 L -19.1289,-6.52412 L -19.6791,-6.22163 L -20.1871,-5.85255 L -20.6448,-5.42273 L -21.0451,-4.93892
 L -21.3815,-4.40877 L -21.6489,-3.84062 L -21.8429,-3.24344 L -21.9606,-2.62666 L -22,-2 L -22,2
 L -21.9606,2.62666 L -21.8429,3.24344 L -21.6489,3.84062 L -21.3815,4.40877 L -21.0451,4.93892 L -20.6448,5.42273
 L -20.1871,5.85255 L -19.6791,6.22163 L -19.1289,6.52412 L -18.5451,6.75528 L -17.9369,6.91142 L -17.3139,6.99013
 L -5.36516,6.99013 L -5.44873,7.10596 L -5.72757,7.61397 L -5.94987,8.1651 L -6.11566,8.75937 L -6.22491,9.39679
 L -2.60448,9.65442 L -2.56238,9.34299 L -2.49504,9.05653 L -2.40248,8.79506 L -2.28468,8.55856 L -2.14165,8.34705
 L -1.97337,8.16051 L -1.77988,7.99895 L -1.56581,7.86047 L -1.33597,7.74332 L -1.09036,7.64745 L -0.828964,7.57289
 L -0.551804,7.51962 L -0.258881,7.48767 L 0.0498199,7.47702 L 0.375214,7.48964 L 0.681412,7.52751 L 0.968399,7.59062
 L 1.23619,7.67897 L 1.48479,7.79256 L 1.71417,7.9314 L 1.92436,8.09547 L 2.11066,8.27927 L 2.26831,8.47726
 L 2.39729,8.68947 L 2.4976,8.91586 L 2.56927,9.15646 L 2.61226,9.41127 L 2.6266,9.68027 L 2.60938,9.9762
 L 2.55769,10.2529 L 2.47157,10.5105 L 2.35101,10.7489 L 2.196,10.968 L 2.00653,11.168 L 1.78261,11.3488
 L 1.52667,11.5078 L 1.24101,11.6423 L 0.925644,11.7523 L 0.580536,11.8379 L 0.205734,11.899 L -0.198776,11.9357
 L -0.633026,11.9479 L -1.81844,11.9479 L -1.81844,14.8726 L -0.555695,14.8726 L -0.0751953,14.8847 L 0.372421,14.921
 L 0.787186,14.9815 L 1.16908,15.0661 L 1.51811,15.175 L 1.83429,15.3081 L 2.11758,15.4654 L 2.36545,15.6455
 L 2.57516,15.8472 L 2.74677,16.0704 L 2.88022,16.3152 L 2.97556,16.5816 L 3.03275,16.8695 L 3.05182,17.179
 L 3.0363,17.4896 L 2.98976,17.7811 L 2.91219,18.0533 L 2.80359,18.3064 L 2.66396,18.5403 L 2.4933,18.755
 L 2.29163,18.9505 L 2.06233,19.1232 L 1.80885,19.2692 L 1.53119,19.3887 L 1.22932,19.4816 L 0.90329,19.548
 L 0.553055,19.5878 L 0.178635,19.6011 L -0.545792,19.5517 L -1.17293,19.4034 L -1.70277,19.1562 L -2.13531,18.8102
 L -2.47057,18.3653 L -2.70853,17.8216 L -2.8492,17.179 L -6.53406,17.501 L -6.42009,18.1769 L -6.2475,18.8058
 L -6.01625,19.3875 L -5.72636,19.9222 L -5.37784,20.4099 L -4.97067,20.8505 L -4.50485,21.244 L -3.9846,21.5876
 L -3.41412,21.8783 L -2.79343,22.1161 L -2.12251,22.3011 L -1.40137,22.4332 L -0.63002,22.5125 L 0.191559,22.5389
 z
M 14.8116,2.99408 L 14.4379,2.94685 L 14.0729,2.85316 L 13.7227,2.71448 L 13.3925,2.53297 L 13.0877,2.31154
 L 12.8131,2.05363 L 12.5729,1.76335 L 12.3711,1.44525 L 12.2107,1.10437 L 12.0942,0.746063 L 12.0237,0.375992
 L 12,-0 L 12.0237,-0.375992 L 12.0942,-0.746063 L 12.2107,-1.10437 L 12.3711,-1.44525 L 12.5729,-1.76335
 L 12.8131,-2.05363 L 13.0877,-2.31154 L 13.3925,-2.53297 L 13.7227,-2.71448 L 14.0729,-2.85316 L 14.4379,-2.94685
 L 14.8116,-2.99408 L 15.1884,-2.99408 L 15.5621,-2.94685 L 15.927,-2.85316 L 16.2773,-2.71448 L 16.6075,-2.53297
 L 16.9123,-2.31154 L 17.1869,-2.05363 L 17.427,-1.76335 L 17.6289,-1.44525 L 17.7893,-1.10437 L 17.9057,-0.746063
 L 17.9763,-0.375992 L 18,-0 L 17.9763,0.375992 L 17.9057,0.746063 L 17.7893,1.10437 L 17.6289,1.44525
 L 17.427,1.76335 L 17.1869,2.05363 L 16.9123,2.31154 L 16.6075,2.53297 L 16.2773,2.71448 L 15.927,2.85316
 L 15.5621,2.94685 L 15.1884,2.99408 z
M 6.04712,-0.373032 L 6.10533,-0.552185 L 6.18553,-0.722626 L 6.28647,-0.881668 L 6.40654,-1.02681 L 6.54385,-1.15576
 L 6.69626,-1.26648 L 6.86133,-1.35724 L 7.03647,-1.42657 L 7.21892,-1.47342 L 7.40581,-1.49704 L 7.59418,-1.49704
 L 7.78107,-1.47342 L 7.96352,-1.42657 L 8.13866,-1.35724 L 8.30373,-1.26648 L 8.45613,-1.15576 L 8.59344,-1.02681
 L 8.71352,-0.881668 L 8.81445,-0.722626 L 8.89465,-0.552185 L 8.95287,-0.373032 L 8.98816,-0.187988 L 9,-0
 L 8.98816,0.187988 L 8.95287,0.373032 L 8.89465,0.552185 L 8.81445,0.722626 L 8.71352,0.881668 L 8.59344,1.02681
 L 8.45613,1.15576 L 8.30373,1.26648 L 8.13866,1.35724 L 7.96352,1.42657 L 7.78107,1.47342 L 7.59418,1.49704
 L 7.40581,1.49704 L 7.21892,1.47342 L 7.03647,1.42657 L 6.86133,1.35724 L 6.69626,1.26648 L 6.54385,1.15576
 L 6.40654,1.02681 L 6.28647,0.881668 L 6.18553,0.722626 L 6.10533,0.552185 L 6.04712,0.373032 L 6.01183,0.187988
 L 6,-0 L 6.01183,-0.187988 z
M -15.1884,2.99408 L -15.5621,2.94685 L -15.927,2.85316 L -16.2773,2.71448 L -16.6075,2.53297 L -16.9123,2.31154
 L -17.1869,2.05363 L -17.427,1.76335 L -17.6289,1.44525 L -17.7893,1.10437 L -17.9057,0.746063 L -17.9763,0.375992
 L -18,-0 L -17.9763,-0.375992 L -17.9057,-0.746063 L -17.7893,-1.10437 L -17.6289,-1.44525 L -17.427,-1.76335
 L -17.1869,-2.05363 L -16.9123,-2.31154 L -16.6075,-2.53297 L -16.2773,-2.71448 L -15.927,-2.85316 L -15.5621,-2.94685
 L -15.1884,-2.99408 L -14.8116,-2.99408 L -14.4379,-2.94685 L -14.0729,-2.85316 L -13.7227,-2.71448 L -13.3925,-2.53297
 L -13.0877,-2.31154 L -12.8131,-2.05363 L -12.5729,-1.76335 L -12.3711,-1.44525 L -12.2107,-1.10437 L -12.0942,-0.746063
 L -12.0237,-0.375992 L -12,-0 L -12.0237,0.375992 L -12.0942,0.746063 L -12.2107,1.10437 L -12.3711,1.44525
 L -12.5729,1.76335 L -12.8131,2.05363 L -13.0877,2.31154 L -13.3925,2.53297 L -13.7227,2.71448 L -14.0729,2.85316
 L -14.4379,2.94685 L -14.8116,2.99408 z
M -7.59418,1.49704 L -7.78107,1.47342 L -7.96352,1.42657 L -8.13866,1.35724 L -8.30373,1.26648 L -8.45613,1.15576
 L -8.59344,1.02681 L -8.71352,0.881668 L -8.81445,0.722626 L -8.89465,0.552185 L -8.95287,0.373032 L -8.98816,0.187988
 L -9,-0 L -8.98816,-0.187988 L -8.95287,-0.373032 L -8.89465,-0.552185 L -8.81445,-0.722626 L -8.71352,-0.881668
 L -8.59344,-1.02681 L -8.45613,-1.15576 L -8.30373,-1.26648 L -8.13866,-1.35724 L -7.96352,-1.42657 L -7.78107,-1.47342
 L -7.59418,-1.49704 L -7.40581,-1.49704 L -7.21892,-1.47342 L -7.03647,-1.42657 L -6.86133,-1.35724 L -6.69626,-1.26648
 L -6.54385,-1.15576 L -6.40654,-1.02681 L -6.28647,-0.881668 L -6.18553,-0.722626 L -6.10533,-0.552185 L -6.04712,-0.373032
 L -6.01183,-0.187988 L -6,-0 L -6.01183,0.187988 L -6.04712,0.373032 L -6.10533,0.552185 L -6.18553,0.722626
 L -6.28647,0.881668 L -6.40654,1.02681 L -6.54385,1.15576 L -6.69626,1.26648 L -6.86133,1.35724 L -7.03647,1.42657
 L -7.21892,1.47342 L -7.40581,1.49704 z
M 2.90575,0.746063 L 2.78932,1.10437 L 2.62891,1.44525 L 2.42705,1.76335 L 2.1869,2.05363 L 1.91226,2.31154
 L 1.60747,2.53297 L 1.27733,2.71448 L 0.927048,2.85316 L 0.562134,2.94685 L 0.18837,2.99408 L -0.18837,2.99408
 L -0.562134,2.94685 L -0.927048,2.85316 L -1.27733,2.71448 L -1.60747,2.53297 L -1.91226,2.31154 L -2.1869,2.05363
 L -2.42705,1.76335 L -2.62891,1.44525 L -2.78932,1.10437 L -2.90575,0.746063 L -2.97633,0.375992 L -3,-0
 L -2.97633,-0.375992 L -2.90575,-0.746063 L -2.78932,-1.10437 L -2.62891,-1.44525 L -2.42705,-1.76335 L -2.1869,-2.05363
 L -1.91226,-2.31154 L -1.60747,-2.53297 L -1.27733,-2.71448 L -0.927048,-2.85316 L -0.562134,-2.94685 L -0.18837,-2.99408
 L 0.18837,-2.99408 L 0.562134,-2.94685 L 0.927048,-2.85316 L 1.27733,-2.71448 L 1.60747,-2.53297 L 1.91226,-2.31154
 L 2.1869,-2.05363 L 2.42705,-1.76335 L 2.62891,-1.44525 L 2.78932,-1.10437 L 2.90575,-0.746063 L 2.97633,-0.375992
 L 3,-0 L 2.97633,0.375992 z
" stroke="black" fill="lightgray" stroke-width="0.5"/>
</svg>
