<?xml version="1.0" standalone="no"?>
<!DOCTYPE svg PUBLIC "-//W3C//DTD SVG 1.1//EN" "http://www.w3.org/Graphics/SVG/1.1/DTD/svg11.dtd">
<svg width="120mm" height="189mm" viewBox="-60 -342 120 189" xmlns="http://www.w3.org/2000/svg" version="1.1">
<title>OpenSCAD Model</title>
<path d="
M 55.9369,-252.089 L 56.5451,-252.245 L 57.1289,-252.476 L 57.6791,-252.778 L 58.1871,-253.147 L 58.6448,-253.577
 L 59.0451,-254.061 L 59.3815,-254.591 L 59.6489,-255.159 L 59.8429,-255.757 L 59.9606,-256.373 L 60,-257
 L 60,-337 L 59.9606,-337.627 L 59.8429,-338.243 L 59.6489,-338.841 L 59.3815,-339.409 L 59.0451,-339.939
 L 58.6448,-340.423 L 58.1871,-340.853 L 57.6791,-341.222 L 57.1289,-341.524 L 56.5451,-341.755 L 55.9369,-341.911
 L 55.3139,-341.99 L -55.3139,-341.99 L -55.9369,-341.911 L -56.5451,-341.755 L -57.1289,-341.524 L -57.6791,-341.222
 L -58.1871,-340.853 L -58.6448,-340.423 L -59.0451,-339.939 L -59.3815,-339.409 L -59.6489,-338.841 L -59.8429,-338.243
 L -59.9606,-337.627 L -60,-337 L -60,-257 L -59.9606,-256.373 L -59.8429,-255.757 L -59.6489,-255.159
 L -59.3815,-254.591 L -59.0451,-254.061 L -58.6448,-253.577 L -58.1871,-253.147 L -57.6791,-252.778 L -57.1289,-252.476
 L -56.5451,-252.245 L -55.9369,-252.089 L -55.3139,-252.01 L 55.3139,-252.01 z
M -55.0375,-252.681 L -55.6079,-252.753 L -56.1648,-252.896 L -56.6994,-253.107 L -57.2032,-253.384 L -57.6684,-253.722
 L -58.0875,-254.116 L -58.454,-254.559 L -58.7621,-255.044 L -59.0069,-255.565 L -59.1846,-256.111 L -59.2923,-256.676
 L -59.3284,-257.25 L -59.3284,-336.75 L -59.2923,-337.324 L -59.1846,-337.889 L -59.0069,-338.435 L -58.7621,-338.956
 L -58.454,-339.441 L -58.0875,-339.884 L -57.6684,-340.278 L -57.2032,-340.616 L -56.6994,-340.893 L -56.1648,-341.104
 L -55.6079,-341.247 L -55.0375,-341.319 L 55.0375,-341.319 L 55.6079,-341.247 L 56.1648,-341.104 L 56.6994,-340.893
 L 57.2032,-340.616 L 57.6684,-340.278 L 58.0875,-339.884 L 58.454,-339.441 L 58.7621,-338.956 L 59.0069,-338.435
 L 59.1846,-337.889 L 59.2923,-337.324 L 59.3284,-336.75 L 59.3284,-257.25 L 59.2923,-256.676 L 59.1846,-256.111
 L 59.0069,-255.565 L 58.7621,-255.044 L 58.454,-254.559 L 58.0875,-254.116 L 57.6684,-253.722 L 57.2032,-253.384
 L 56.6994,-253.107 L 56.1648,-252.896 L 55.6079,-252.753 L 55.0375,-252.681 z
M 55.9369,-153.089 L 56.5451,-153.245 L 57.1289,-153.476 L 57.6791,-153.778 L 58.1871,-154.147 L 58.6448,-154.577
 L 59.0451,-155.061 L 59.3815,-155.591 L 59.6489,-156.159 L 59.8429,-156.757 L 59.9606,-157.373 L 60,-158
 L 60,-238 L 59.9606,-238.627 L 59.8429,-239.243 L 59.6489,-239.841 L 59.3815,-240.409 L 59.0451,-240.939
 L 58.6448,-241.423 L 58.1871,-241.853 L 57.6791,-242.222 L 57.1289,-242.524 L 56.5451,-242.755 L 55.9369,-242.911
 L 55.3139,-242.99 L -55.3139,-242.99 L -55.9369,-242.911 L -56.5451,-242.755 L -57.1289,-242.524 L -57.6791,-242.222
 L -58.1871,-241.853 L -58.6448,-241.423 L -59.0451,-240.939 L -59.3815,-240.409 L -59.6489,-239.841 L -59.8429,-239.243
 L -59.9606,-238.627 L -60,-238 L -60,-158 L -59.9606,-157.373 L -59.8429,-156.757 L -59.6489,-156.159
 L -59.3815,-155.591 L -59.0451,-155.061 L -58.6448,-154.577 L -58.1871,-154.147 L -57.6791,-153.778 L -57.1289,-153.476
 L -56.5451,-153.245 L -55.9369,-153.089 L -55.3139,-153.01 L 55.3139,-153.01 z
M -54.8825,-156.145 L -55.1453,-156.178 L -55.4019,-156.244 L -55.6482,-156.341 L -55.8804,-156.469 L -56.0947,-156.625
 L -56.2879,-156.806 L -56.4567,-157.01 L -56.5987,-157.234 L -56.7115,-157.473 L -56.7934,-157.725 L -56.843,-157.986
 L -56.8596,-158.25 L -56.8596,-237.75 L -56.843,-238.014 L -56.7934,-238.275 L -56.7115,-238.527 L -56.5987,-238.766
 L -56.4567,-238.99 L -56.2879,-239.194 L -56.0947,-239.375 L -55.8804,-239.531 L -55.6482,-239.659 L -55.4019,-239.756
 L -55.1453,-239.822 L -54.8825,-239.855 L 54.8825,-239.855 L 55.1453,-239.822 L 55.4019,-239.756 L 55.6482,-239.659
 L 55.8804,-239.531 L 56.0947,-239.375 L 56.2879,-239.194 L 56.4567,-238.99 L 56.5987,-238.766 L 56.7115,-238.527
 L 56.7934,-238.275 L 56.843,-238.014 L 56.8596,-237.75 L 56.8596,-158.25 L 56.843,-157.986 L 56.7934,-157.725
 L 56.7115,-157.473 L 56.5987,-157.234 L 56.4567,-157.01 L 56.2879,-156.806 L 56.0947,-156.625 L 55.8804,-156.469
 L 55.6482,-156.341 L 55.4019,-156.244 L 55.1453,-156.178 L 54.8825,-156.145 z
" stroke="black" fill="lightgray" stroke-width="0.5"/>
</svg>
