<?xml version="1.0" standalone="no"?>
<!DOCTYPE svg PUBLIC "-//W3C//DTD SVG 1.1//EN" "http://www.w3.org/Graphics/SVG/1.1/DTD/svg11.dtd">
<svg width="180mm" height="874mm" viewBox="-90 -1613 180 874" xmlns="http://www.w3.org/2000/svg" version="1.1">
<title>OpenSCAD Model</title>
<path d="
M 85.9369,-1327.59 L 86.5451,-1327.74 L 87.1289,-1327.98 L 87.6791,-1328.28 L 88.1871,-1328.65 L 88.6448,-1329.08
 L 89.0451,-1329.56 L 89.3815,-1330.09 L 89.6489,-1330.66 L 89.8429,-1331.26 L 89.9606,-1331.87 L 90,-1332.5
 L 90,-1607.5 L 89.9606,-1608.13 L 89.8429,-1608.74 L 89.6489,-1609.34 L 89.3815,-1609.91 L 89.0451,-1610.44
 L 88.6448,-1610.92 L 88.1871,-1611.35 L 87.6791,-1611.72 L 87.1289,-1612.02 L 86.5451,-1612.26 L 85.9369,-1612.41
 L 85.3139,-1612.49 L -85.3139,-1612.49 L -85.9369,-1612.41 L -86.5451,-1612.26 L -87.1289,-1612.02 L -87.6791,-1611.72
 L -88.1871,-1611.35 L -88.6448,-1610.92 L -89.0451,-1610.44 L -89.3815,-1609.91 L -89.6489,-1609.34 L -89.8429,-1608.74
 L -89.9606,-1608.13 L -90,-1607.5 L -90,-1332.5 L -89.9606,-1331.87 L -89.8429,-1331.26 L -89.6489,-1330.66
 L -89.3815,-1330.09 L -89.0451,-1329.56 L -88.6448,-1329.08 L -88.1871,-1328.65 L -87.6791,-1328.28 L -87.1289,-1327.98
 L -86.5451,-1327.74 L -85.9369,-1327.59 L -85.3139,-1327.51 L 85.3139,-1327.51 z
M -84.7512,-1329.01 L -85.2495,-1329.07 L -85.7361,-1329.2 L -86.2031,-1329.38 L -86.6433,-1329.62 L -87.0497,-1329.92
 L -87.4159,-1330.26 L -87.7361,-1330.65 L -88.0052,-1331.07 L -88.2191,-1331.53 L -88.3743,-1332.01 L -88.4685,-1332.5
 L -88.5,-1333 L -88.5,-1607 L -88.4685,-1607.5 L -88.3743,-1607.99 L -88.2191,-1608.47 L -88.0052,-1608.93
 L -87.7361,-1609.35 L -87.4159,-1609.74 L -87.0497,-1610.08 L -86.6433,-1610.38 L -86.2031,-1610.62 L -85.7361,-1610.8
 L -85.2495,-1610.93 L -84.7512,-1610.99 L 84.7512,-1610.99 L 85.2495,-1610.93 L 85.7361,-1610.8 L 86.2031,-1610.62
 L 86.6433,-1610.38 L 87.0497,-1610.08 L 87.4159,-1609.74 L 87.7361,-1609.35 L 88.0052,-1608.93 L 88.2191,-1608.47
 L 88.3743,-1607.99 L 88.4685,-1607.5 L 88.5,-1607 L 88.5,-1333 L 88.4685,-1332.5 L 88.3743,-1332.01
 L 88.2191,-1331.53 L 88.0052,-1331.07 L 87.7361,-1330.65 L 87.4159,-1330.26 L 87.0497,-1329.92 L 86.6433,-1329.62
 L 86.2031,-1329.38 L 85.7361,-1329.2 L 85.2495,-1329.07 L 84.7512,-1329.01 z
M 85.9369,-1033.59 L 86.5451,-1033.74 L 87.1289,-1033.98 L 87.6791,-1034.28 L 88.1871,-1034.65 L 88.6448,-1035.08
 L 89.0451,-1035.56 L 89.3815,-1036.09 L 89.6489,-1036.66 L 89.8429,-1037.26 L 89.9606,-1037.87 L 90,-1038.5
 L 90,-1313.5 L 89.9606,-1314.13 L 89.8429,-1314.74 L 89.6489,-1315.34 L 89.3815,-1315.91 L 89.0451,-1316.44
 L 88.6448,-1316.92 L 88.1871,-1317.35 L 87.6791,-1317.72 L 87.1289,-1318.02 L 86.5451,-1318.26 L 85.9369,-1318.41
 L 85.3139,-1318.49 L -85.3139,-1318.49 L -85.9369,-1318.41 L -86.5451,-1318.26 L -87.1289,-1318.02 L -87.6791,-1317.72
 L -88.1871,-1317.35 L -88.6448,-1316.92 L -89.0451,-1316.44 L -89.3815,-1315.91 L -89.6489,-1315.34 L -89.8429,-1314.74
 L -89.9606,-1314.13 L -90,-1313.5 L -90,-1038.5 L -89.9606,-1037.87 L -89.8429,-1037.26 L -89.6489,-1036.66
 L -89.3815,-1036.09 L -89.0451,-1035.56 L -88.6448,-1035.08 L -88.1871,-1034.65 L -87.6791,-1034.28 L -87.1289,-1033.98
 L -86.5451,-1033.74 L -85.9369,-1033.59 L -85.3139,-1033.51 L 85.3139,-1033.51 z
M -84.6955,-1035.89 L -85.0833,-1035.94 L -85.4619,-1036.04 L -85.8254,-1036.18 L -86.168,-1036.37 L -86.4843,-1036.6
 L -86.7692,-1036.87 L -87.0184,-1037.17 L -87.2279,-1037.5 L -87.3943,-1037.85 L -87.5151,-1038.23 L -87.5884,-1038.61
 L -87.6129,-1039 L -87.6129,-1313 L -87.5884,-1313.39 L -87.5151,-1313.77 L -87.3943,-1314.15 L -87.2279,-1314.5
 L -87.0184,-1314.83 L -86.7692,-1315.13 L -86.4843,-1315.4 L -86.168,-1315.63 L -85.8254,-1315.82 L -85.4619,-1315.96
 L -85.0833,-1316.06 L -84.6955,-1316.11 L 84.6955,-1316.11 L 85.0833,-1316.06 L 85.4619,-1315.96 L 85.8254,-1315.82
 L 86.168,-1315.63 L 86.4843,-1315.4 L 86.7692,-1315.13 L 87.0184,-1314.83 L 87.2279,-1314.5 L 87.3943,-1314.15
 L 87.5151,-1313.77 L 87.5884,-1313.39 L 87.6129,-1313 L 87.6129,-1039 L 87.5884,-1038.61 L 87.5151,-1038.23
 L 87.3943,-1037.85 L 87.2279,-1037.5 L 87.0184,-1037.17 L 86.7692,-1036.87 L 86.4843,-1036.6 L 86.168,-1036.37
 L 85.8254,-1036.18 L 85.4619,-1036.04 L 85.0833,-1035.94 L 84.6955,-1035.89 z
M 85.9369,-739.589 L 86.5451,-739.745 L 87.1289,-739.976 L 87.6791,-740.278 L 88.1871,-740.647 L 88.6448,-741.077
 L 89.0451,-741.561 L 89.3815,-742.091 L 89.6489,-742.659 L 89.8429,-743.257 L 89.9606,-743.873 L 90,-744.5
 L 90,-1019.5 L 89.9606,-1020.13 L 89.8429,-1020.74 L 89.6489,-1021.34 L 89.3815,-1021.91 L 89.0451,-1022.44
 L 88.6448,-1022.92 L 88.1871,-1023.35 L 87.6791,-1023.72 L 87.1289,-1024.02 L 86.5451,-1024.26 L 85.9369,-1024.41
 L 85.3139,-1024.49 L -85.3139,-1024.49 L -85.9369,-1024.41 L -86.5451,-1024.26 L -87.1289,-1024.02 L -87.6791,-1023.72
 L -88.1871,-1023.35 L -88.6448,-1022.92 L -89.0451,-1022.44 L -89.3815,-1021.91 L -89.6489,-1021.34 L -89.8429,-1020.74
 L -89.9606,-1020.13 L -90,-1019.5 L -90,-744.5 L -89.9606,-743.873 L -89.8429,-743.257 L -89.6489,-742.659
 L -89.3815,-742.091 L -89.0451,-741.561 L -88.6448,-741.077 L -88.1871,-740.647 L -87.6791,-740.278 L -87.1289,-739.976
 L -86.5451,-739.745 L -85.9369,-739.589 L -85.3139,-739.51 L 85.3139,-739.51 z
M 82.3659,-1014.87 L 82.0999,-1014.9 L 81.8401,-1014.97 L 81.5908,-1015.07 L 81.3559,-1015.2 L 81.1389,-1015.35
 L 80.9434,-1015.54 L 80.7725,-1015.74 L 80.6288,-1015.97 L 80.5146,-1016.21 L 80.4318,-1016.47 L 80.3815,-1016.73
 L 80.3647,-1017 L 80.3815,-1017.27 L 80.4318,-1017.53 L 80.5146,-1017.79 L 80.6288,-1018.03 L 80.7725,-1018.26
 L 80.9434,-1018.46 L 81.1389,-1018.65 L 81.3559,-1018.8 L 81.5908,-1018.93 L 81.8401,-1019.03 L 82.0999,-1019.1
 L 82.3659,-1019.13 L 82.6341,-1019.13 L 82.9001,-1019.1 L 83.1598,-1019.03 L 83.4092,-1018.93 L 83.6441,-1018.8
 L 83.8611,-1018.65 L 84.0566,-1018.46 L 84.2275,-1018.26 L 84.3712,-1018.03 L 84.4853,-1017.79 L 84.5682,-1017.53
 L 84.6185,-1017.27 L 84.6353,-1017 L 84.6185,-1016.73 L 84.5682,-1016.47 L 84.4853,-1016.21 L 84.3712,-1015.97
 L 84.2275,-1015.74 L 84.0566,-1015.54 L 83.8611,-1015.35 L 83.6441,-1015.2 L 83.4092,-1015.07 L 83.1598,-1014.97
 L 82.9001,-1014.9 L 82.6341,-1014.87 z
M -82.6341,-1014.87 L -82.9001,-1014.9 L -83.1598,-1014.97 L -83.4092,-1015.07 L -83.6441,-1015.2 L -83.8611,-1015.35
 L -84.0566,-1015.54 L -84.2275,-1015.74 L -84.3712,-1015.97 L -84.4853,-1016.21 L -84.5682,-1016.47 L -84.6185,-1016.73
 L -84.6353,-1017 L -84.6185,-1017.27 L -84.5682,-1017.53 L -84.4853,-1017.79 L -84.3712,-1018.03 L -84.2275,-1018.26
 L -84.0566,-1018.46 L -83.8611,-1018.65 L -83.6441,-1018.8 L -83.4092,-1018.93 L -83.1598,-1019.03 L -82.9001,-1019.1
 L -82.6341,-1019.13 L -82.3659,-1019.13 L -82.0999,-1019.1 L -81.8401,-1019.03 L -81.5908,-1018.93 L -81.3559,-1018.8
 L -81.1389,-1018.65 L -80.9434,-1018.46 L -80.7725,-1018.26 L -80.6288,-1018.03 L -80.5146,-1017.79 L -80.4318,-1017.53
 L -80.3815,-1017.27 L -80.3647,-1017 L -80.3815,-1016.73 L -80.4318,-1016.47 L -80.5146,-1016.21 L -80.6288,-1015.97
 L -80.7725,-1015.74 L -80.9434,-1015.54 L -81.1389,-1015.35 L -81.3559,-1015.2 L -81.5908,-1015.07 L -81.8401,-1014.97
 L -82.0999,-1014.9 L -82.3659,-1014.87 z
M 82.3659,-744.869 L 82.0999,-744.903 L 81.8401,-744.969 L 81.5908,-745.068 L 81.3559,-745.197 L 81.1389,-745.355
 L 80.9434,-745.538 L 80.7725,-745.745 L 80.6288,-745.971 L 80.5146,-746.214 L 80.4318,-746.469 L 80.3815,-746.732
 L 80.3647,-747 L 80.3815,-747.268 L 80.4318,-747.531 L 80.5146,-747.786 L 80.6288,-748.029 L 80.7725,-748.255
 L 80.9434,-748.462 L 81.1389,-748.645 L 81.3559,-748.803 L 81.5908,-748.932 L 81.8401,-749.031 L 82.0999,-749.097
 L 82.3659,-749.131 L 82.6341,-749.131 L 82.9001,-749.097 L 83.1598,-749.031 L 83.4092,-748.932 L 83.6441,-748.803
 L 83.8611,-748.645 L 84.0566,-748.462 L 84.2275,-748.255 L 84.3712,-748.029 L 84.4853,-747.786 L 84.5682,-747.531
 L 84.6185,-747.268 L 84.6353,-747 L 84.6185,-746.732 L 84.5682,-746.469 L 84.4853,-746.214 L 84.3712,-745.971
 L 84.2275,-745.745 L 84.0566,-745.538 L 83.8611,-745.355 L 83.6441,-745.197 L 83.4092,-745.068 L 83.1598,-744.969
 L 82.9001,-744.903 L 82.6341,-744.869 z
M -82.6341,-744.869 L -82.9001,-744.903 L -83.1598,-744.969 L -83.4092,-745.068 L -83.6441,-745.197 L -83.8611,-745.355
 L -84.0566,-745.538 L -84.2275,-745.745 L -84.3712,-745.971 L -84.4853,-746.214 L -84.5682,-746.469 L -84.6185,-746.732
 L -84.6353,-747 L -84.6185,-747.268 L -84.5682,-747.531 L -84.4853,-747.786 L -84.3712,-748.029 L -84.2275,-748.255
 L -84.0566,-748.462 L -83.8611,-748.645 L -83.6441,-748.803 L -83.4092,-748.932 L -83.1598,-749.031 L -82.9001,-749.097
 L -82.6341,-749.131 L -82.3659,-749.131 L -82.0999,-749.097 L -81.8401,-749.031 L -81.5908,-748.932 L -81.3559,-748.803
 L -81.1389,-748.645 L -80.9434,-748.462 L -80.7725,-748.255 L -80.6288,-748.029 L -80.5146,-747.786 L -80.4318,-747.531
 L -80.3815,-747.268 L -80.3647,-747 L -80.3815,-746.732 L -80.4318,-746.469 L -80.5146,-746.214 L -80.6288,-745.971
 L -80.7725,-745.745 L -80.9434,-745.538 L -81.1389,-745.355 L -81.3559,-745.197 L -81.5908,-745.068 L -81.8401,-744.969
 L -82.0999,-744.903 L -82.3659,-744.869 z
" stroke="black" fill="lightgray" stroke-width="0.5"/>
</svg>
