<?xml version="1.0" standalone="no"?>
<!DOCTYPE svg PUBLIC "-//W3C//DTD SVG 1.1//EN" "http://www.w3.org/Graphics/SVG/1.1/DTD/svg11.dtd">
<svg width="210mm" height="336mm" viewBox="-105 -582 210 336" xmlns="http://www.w3.org/2000/svg" version="1.1">
<title>OpenSCAD Model</title>
<path d="
M 100.937,-522.089 L 101.545,-522.245 L 102.129,-522.476 L 102.679,-522.778 L 103.187,-523.147 L 103.645,-523.577
 L 104.045,-524.061 L 104.382,-524.591 L 104.649,-525.159 L 104.843,-525.757 L 104.961,-526.373 L 105,-527
 L 105,-577 L 104.961,-577.627 L 104.843,-578.243 L 104.649,-578.841 L 104.382,-579.409 L 104.045,-579.939
 L 103.645,-580.423 L 103.187,-580.853 L 102.679,-581.222 L 102.129,-581.524 L 101.545,-581.755 L 100.937,-581.911
 L 100.314,-581.99 L -100.314,-581.99 L -100.937,-581.911 L -101.545,-581.755 L -102.129,-581.524 L -102.679,-581.222
 L -103.187,-580.853 L -103.645,-580.423 L -104.045,-579.939 L -104.382,-579.409 L -104.649,-578.841 L -104.843,-578.243
 L -104.961,-577.627 L -105,-577 L -105,-527 L -104.961,-526.373 L -104.843,-525.757 L -104.649,-525.159
 L -104.382,-524.591 L -104.045,-524.061 L -103.645,-523.577 L -103.187,-523.147 L -102.679,-522.778 L -102.129,-522.476
 L -101.545,-522.245 L -100.937,-522.089 L -100.314,-522.01 L 100.314,-522.01 z
M -100.048,-522.509 L -100.64,-522.584 L -101.218,-522.732 L -101.772,-522.952 L -102.295,-523.239 L -102.778,-523.59
 L -103.213,-523.998 L -103.593,-524.458 L -103.912,-524.962 L -104.166,-525.501 L -104.351,-526.069 L -104.463,-526.655
 L -104.5,-527.25 L -104.5,-576.75 L -104.463,-577.345 L -104.351,-577.931 L -104.166,-578.499 L -103.912,-579.038
 L -103.593,-579.542 L -103.213,-580.002 L -102.778,-580.41 L -102.295,-580.761 L -101.772,-581.048 L -101.218,-581.268
 L -100.64,-581.416 L -100.048,-581.491 L 100.048,-581.491 L 100.64,-581.416 L 101.218,-581.268 L 101.772,-581.048
 L 102.295,-580.761 L 102.778,-580.41 L 103.213,-580.002 L 103.593,-579.542 L 103.912,-579.038 L 104.166,-578.499
 L 104.351,-577.931 L 104.463,-577.345 L 104.5,-576.75 L 104.5,-527.25 L 104.463,-526.655 L 104.351,-526.069
 L 104.166,-525.501 L 103.912,-524.962 L 103.593,-524.458 L 103.213,-523.998 L 102.778,-523.59 L 102.295,-523.239
 L 101.772,-522.952 L 101.218,-522.732 L 100.64,-522.584 L 100.048,-522.509 z
M 100.937,-453.089 L 101.545,-453.245 L 102.129,-453.476 L 102.679,-453.778 L 103.187,-454.147 L 103.645,-454.577
 L 104.045,-455.061 L 104.382,-455.591 L 104.649,-456.159 L 104.843,-456.757 L 104.961,-457.373 L 105,-458
 L 105,-508 L 104.961,-508.627 L 104.843,-509.243 L 104.649,-509.841 L 104.382,-510.409 L 104.045,-510.939
 L 103.645,-511.423 L 103.187,-511.853 L 102.679,-512.222 L 102.129,-512.524 L 101.545,-512.755 L 100.937,-512.911
 L 100.314,-512.99 L -100.314,-512.99 L -100.937,-512.911 L -101.545,-512.755 L -102.129,-512.524 L -102.679,-512.222
 L -103.187,-511.853 L -103.645,-511.423 L -104.045,-510.939 L -104.382,-510.409 L -104.649,-509.841 L -104.843,-509.243
 L -104.961,-508.627 L -105,-508 L -105,-458 L -104.961,-457.373 L -104.843,-456.757 L -104.649,-456.159
 L -104.382,-455.591 L -104.045,-455.061 L -103.645,-454.577 L -103.187,-454.147 L -102.679,-453.778 L -102.129,-453.476
 L -101.545,-453.245 L -100.937,-453.089 L -100.314,-453.01 L 100.314,-453.01 z
M -100.048,-453.509 L -100.64,-453.584 L -101.218,-453.732 L -101.772,-453.952 L -102.295,-454.239 L -102.778,-454.59
 L -103.213,-454.998 L -103.593,-455.458 L -103.912,-455.962 L -104.166,-456.501 L -104.351,-457.069 L -104.463,-457.655
 L -104.5,-458.25 L -104.5,-507.75 L -104.463,-508.345 L -104.351,-508.931 L -104.166,-509.499 L -103.912,-510.038
 L -103.593,-510.542 L -103.213,-511.002 L -102.778,-511.41 L -102.295,-511.761 L -101.772,-512.048 L -101.218,-512.268
 L -100.64,-512.416 L -100.048,-512.491 L 100.048,-512.491 L 100.64,-512.416 L 101.218,-512.268 L 101.772,-512.048
 L 102.295,-511.761 L 102.778,-511.41 L 103.213,-511.002 L 103.593,-510.542 L 103.912,-510.038 L 104.166,-509.499
 L 104.351,-508.931 L 104.463,-508.345 L 104.5,-507.75 L 104.5,-458.25 L 104.463,-457.655 L 104.351,-457.069
 L 104.166,-456.501 L 103.912,-455.962 L 103.593,-455.458 L 103.213,-454.998 L 102.778,-454.59 L 102.295,-454.239
 L 101.772,-453.952 L 101.218,-453.732 L 100.64,-453.584 L 100.048,-453.509 z
M 100.937,-384.089 L 101.545,-384.245 L 102.129,-384.476 L 102.679,-384.778 L 103.187,-385.147 L 103.645,-385.577
 L 104.045,-386.061 L 104.382,-386.591 L 104.649,-387.159 L 104.843,-387.757 L 104.961,-388.373 L 105,-389
 L 105,-439 L 104.961,-439.627 L 104.843,-440.243 L 104.649,-440.841 L 104.382,-441.409 L 104.045,-441.939
 L 103.645,-442.423 L 103.187,-442.853 L 102.679,-443.222 L 102.129,-443.524 L 101.545,-443.755 L 100.937,-443.911
 L 100.314,-443.99 L -100.314,-443.99 L -100.937,-443.911 L -101.545,-443.755 L -102.129,-443.524 L -102.679,-443.222
 L -103.187,-442.853 L -103.645,-442.423 L -104.045,-441.939 L -104.382,-441.409 L -104.649,-440.841 L -104.843,-440.243
 L -104.961,-439.627 L -105,-439 L -105,-389 L -104.961,-388.373 L -104.843,-387.757 L -104.649,-387.159
 L -104.382,-386.591 L -104.045,-386.061 L -103.645,-385.577 L -103.187,-385.147 L -102.679,-384.778 L -102.129,-384.476
 L -101.545,-384.245 L -100.937,-384.089 L -100.314,-384.01 L 100.314,-384.01 z
M -100.048,-384.509 L -100.64,-384.584 L -101.218,-384.732 L -101.772,-384.952 L -102.295,-385.239 L -102.778,-385.59
 L -103.213,-385.998 L -103.593,-386.458 L -103.912,-386.962 L -104.166,-387.501 L -104.351,-388.069 L -104.463,-388.655
 L -104.5,-389.25 L -104.5,-438.75 L -104.463,-439.345 L -104.351,-439.931 L -104.166,-440.499 L -103.912,-441.038
 L -103.593,-441.542 L -103.213,-442.002 L -102.778,-442.41 L -102.295,-442.761 L -101.772,-443.048 L -101.218,-443.268
 L -100.64,-443.416 L -100.048,-443.491 L 100.048,-443.491 L 100.64,-443.416 L 101.218,-443.268 L 101.772,-443.048
 L 102.295,-442.761 L 102.778,-442.41 L 103.213,-442.002 L 103.593,-441.542 L 103.912,-441.038 L 104.166,-440.499
 L 104.351,-439.931 L 104.463,-439.345 L 104.5,-438.75 L 104.5,-389.25 L 104.463,-388.655 L 104.351,-388.069
 L 104.166,-387.501 L 103.912,-386.962 L 103.593,-386.458 L 103.213,-385.998 L 102.778,-385.59 L 102.295,-385.239
 L 101.772,-384.952 L 101.218,-384.732 L 100.64,-384.584 L 100.048,-384.509 z
M 100.937,-315.089 L 101.545,-315.245 L 102.129,-315.476 L 102.679,-315.778 L 103.187,-316.147 L 103.645,-316.577
 L 104.045,-317.061 L 104.382,-317.591 L 104.649,-318.159 L 104.843,-318.757 L 104.961,-319.373 L 105,-320
 L 105,-370 L 104.961,-370.627 L 104.843,-371.243 L 104.649,-371.841 L 104.382,-372.409 L 104.045,-372.939
 L 103.645,-373.423 L 103.187,-373.853 L 102.679,-374.222 L 102.129,-374.524 L 101.545,-374.755 L 100.937,-374.911
 L 100.314,-374.99 L -100.314,-374.99 L -100.937,-374.911 L -101.545,-374.755 L -102.129,-374.524 L -102.679,-374.222
 L -103.187,-373.853 L -103.645,-373.423 L -104.045,-372.939 L -104.382,-372.409 L -104.649,-371.841 L -104.843,-371.243
 L -104.961,-370.627 L -105,-370 L -105,-320 L -104.961,-319.373 L -104.843,-318.757 L -104.649,-318.159
 L -104.382,-317.591 L -104.045,-317.061 L -103.645,-316.577 L -103.187,-316.147 L -102.679,-315.778 L -102.129,-315.476
 L -101.545,-315.245 L -100.937,-315.089 L -100.314,-315.01 L 100.314,-315.01 z
M -99.993,-316.388 L -100.475,-316.449 L -100.946,-316.57 L -101.398,-316.749 L -101.823,-316.983 L -102.216,-317.269
 L -102.571,-317.601 L -102.88,-317.976 L -103.141,-318.386 L -103.348,-318.826 L -103.498,-319.288 L -103.589,-319.765
 L -103.619,-320.25 L -103.619,-369.75 L -103.589,-370.235 L -103.498,-370.712 L -103.348,-371.174 L -103.141,-371.614
 L -102.88,-372.024 L -102.571,-372.399 L -102.216,-372.731 L -101.823,-373.017 L -101.398,-373.251 L -100.946,-373.43
 L -100.475,-373.551 L -99.993,-373.612 L 99.993,-373.612 L 100.475,-373.551 L 100.946,-373.43 L 101.398,-373.251
 L 101.823,-373.017 L 102.216,-372.731 L 102.571,-372.399 L 102.88,-372.024 L 103.141,-371.614 L 103.348,-371.174
 L 103.498,-370.712 L 103.589,-370.235 L 103.619,-369.75 L 103.619,-320.25 L 103.589,-319.765 L 103.498,-319.288
 L 103.348,-318.826 L 103.141,-318.386 L 102.88,-317.976 L 102.571,-317.601 L 102.216,-317.269 L 101.823,-316.983
 L 101.398,-316.749 L 100.946,-316.57 L 100.475,-316.449 L 99.993,-316.388 z
M 100.937,-246.089 L 101.545,-246.245 L 102.129,-246.476 L 102.679,-246.778 L 103.187,-247.147 L 103.645,-247.577
 L 104.045,-248.061 L 104.382,-248.591 L 104.649,-249.159 L 104.843,-249.757 L 104.961,-250.373 L 105,-251
 L 105,-301 L 104.961,-301.627 L 104.843,-302.243 L 104.649,-302.841 L 104.382,-303.409 L 104.045,-303.939
 L 103.645,-304.423 L 103.187,-304.853 L 102.679,-305.222 L 102.129,-305.524 L 101.545,-305.755 L 100.937,-305.911
 L 100.314,-305.99 L -100.314,-305.99 L -100.937,-305.911 L -101.545,-305.755 L -102.129,-305.524 L -102.679,-305.222
 L -103.187,-304.853 L -103.645,-304.423 L -104.045,-303.939 L -104.382,-303.409 L -104.649,-302.841 L -104.843,-302.243
 L -104.961,-301.627 L -105,-301 L -105,-251 L -104.961,-250.373 L -104.843,-249.757 L -104.649,-249.159
 L -104.382,-248.591 L -104.045,-248.061 L -103.645,-247.577 L -103.187,-247.147 L -102.679,-246.778 L -102.129,-246.476
 L -101.545,-246.245 L -100.937,-246.089 L -100.314,-246.01 L 100.314,-246.01 z
M -97.613,-296.704 L -97.8373,-296.732 L -98.0562,-296.788 L -98.2664,-296.871 L -98.4645,-296.98 L -98.6474,-297.113
 L -98.8121,-297.268 L -98.9562,-297.442 L -99.0773,-297.633 L -99.1736,-297.837 L -99.2434,-298.052 L -99.2858,-298.274
 L -99.3,-298.5 L -99.2858,-298.726 L -99.2434,-298.948 L -99.1736,-299.163 L -99.0773,-299.367 L -98.9562,-299.558
 L -98.8121,-299.732 L -98.6474,-299.887 L -98.4645,-300.02 L -98.2664,-300.129 L -98.0562,-300.212 L -97.8373,-300.268
 L -97.613,-300.296 L -97.387,-300.296 L -97.1627,-300.268 L -96.9438,-300.212 L -96.7336,-300.129 L -96.5355,-300.02
 L -96.3526,-299.887 L -96.1879,-299.732 L -96.0438,-299.558 L -95.9226,-299.367 L -95.8264,-299.163 L -95.7565,-298.948
 L -95.7142,-298.726 L -95.7,-298.5 L -95.7142,-298.274 L -95.7565,-298.052 L -95.8264,-297.837 L -95.9226,-297.633
 L -96.0438,-297.442 L -96.1879,-297.268 L -96.3526,-297.113 L -96.5355,-296.98 L -96.7336,-296.871 L -96.9438,-296.788
 L -97.1627,-296.732 L -97.387,-296.704 z
M 97.387,-296.704 L 97.1627,-296.732 L 96.9438,-296.788 L 96.7336,-296.871 L 96.5355,-296.98 L 96.3526,-297.113
 L 96.1879,-297.268 L 96.0438,-297.442 L 95.9226,-297.633 L 95.8264,-297.837 L 95.7565,-298.052 L 95.7142,-298.274
 L 95.7,-298.5 L 95.7142,-298.726 L 95.7565,-298.948 L 95.8264,-299.163 L 95.9226,-299.367 L 96.0438,-299.558
 L 96.1879,-299.732 L 96.3526,-299.887 L 96.5355,-300.02 L 96.7336,-300.129 L 96.9438,-300.212 L 97.1627,-300.268
 L 97.387,-300.296 L 97.613,-300.296 L 97.8373,-300.268 L 98.0562,-300.212 L 98.2664,-300.129 L 98.4645,-300.02
 L 98.6474,-299.887 L 98.8121,-299.732 L 98.9562,-299.558 L 99.0773,-299.367 L 99.1736,-299.163 L 99.2434,-298.948
 L 99.2858,-298.726 L 99.3,-298.5 L 99.2858,-298.274 L 99.2434,-298.052 L 99.1736,-297.837 L 99.0773,-297.633
 L 98.9562,-297.442 L 98.8121,-297.268 L 98.6474,-297.113 L 98.4645,-296.98 L 98.2664,-296.871 L 98.0562,-296.788
 L 97.8373,-296.732 L 97.613,-296.704 z
M 97.387,-251.704 L 97.1627,-251.732 L 96.9438,-251.788 L 96.7336,-251.871 L 96.5355,-251.98 L 96.3526,-252.113
 L 96.1879,-252.268 L 96.0438,-252.442 L 95.9226,-252.633 L 95.8264,-252.837 L 95.7565,-253.052 L 95.7142,-253.274
 L 95.7,-253.5 L 95.7142,-253.726 L 95.7565,-253.948 L 95.8264,-254.163 L 95.9226,-254.367 L 96.0438,-254.558
 L 96.1879,-254.732 L 96.3526,-254.887 L 96.5355,-255.02 L 96.7336,-255.129 L 96.9438,-255.212 L 97.1627,-255.268
 L 97.387,-255.296 L 97.613,-255.296 L 97.8373,-255.268 L 98.0562,-255.212 L 98.2664,-255.129 L 98.4645,-255.02
 L 98.6474,-254.887 L 98.8121,-254.732 L 98.9562,-254.558 L 99.0773,-254.367 L 99.1736,-254.163 L 99.2434,-253.948
 L 99.2858,-253.726 L 99.3,-253.5 L 99.2858,-253.274 L 99.2434,-253.052 L 99.1736,-252.837 L 99.0773,-252.633
 L 98.9562,-252.442 L 98.8121,-252.268 L 98.6474,-252.113 L 98.4645,-251.98 L 98.2664,-251.871 L 98.0562,-251.788
 L 97.8373,-251.732 L 97.613,-251.704 z
M -97.613,-251.704 L -97.8373,-251.732 L -98.0562,-251.788 L -98.2664,-251.871 L -98.4645,-251.98 L -98.6474,-252.113
 L -98.8121,-252.268 L -98.9562,-252.442 L -99.0773,-252.633 L -99.1736,-252.837 L -99.2434,-253.052 L -99.2858,-253.274
 L -99.3,-253.5 L -99.2858,-253.726 L -99.2434,-253.948 L -99.1736,-254.163 L -99.0773,-254.367 L -98.9562,-254.558
 L -98.8121,-254.732 L -98.6474,-254.887 L -98.4645,-255.02 L -98.2664,-255.129 L -98.0562,-255.212 L -97.8373,-255.268
 L -97.613,-255.296 L -97.387,-255.296 L -97.1627,-255.268 L -96.9438,-255.212 L -96.7336,-255.129 L -96.5355,-255.02
 L -96.3526,-254.887 L -96.1879,-254.732 L -96.0438,-254.558 L -95.9226,-254.367 L -95.8264,-254.163 L -95.7565,-253.948
 L -95.7142,-253.726 L -95.7,-253.5 L -95.7142,-253.274 L -95.7565,-253.052 L -95.8264,-252.837 L -95.9226,-252.633
 L -96.0438,-252.442 L -96.1879,-252.268 L -96.3526,-252.113 L -96.5355,-251.98 L -96.7336,-251.871 L -96.9438,-251.788
 L -97.1627,-251.732 L -97.387,-251.704 z
" stroke="black" fill="lightgray" stroke-width="0.5"/>
</svg>
