  0
SECTION
  2
BLOCKS
  0
ENDSEC
  0
SECTION
  2
ENTITIES
  0
LINE
  8
0
 10
7.1869
 20
2013.09
 11
7.79507
 21
2013.24
  0
LINE
  8
0
 10
7.79507
 20
2013.24
 11
8.37889
 21
2013.48
  0
LINE
  8
0
 10
8.37889
 20
2013.48
 11
8.92912
 21
2013.78
  0
LINE
  8
0
 10
8.92912
 20
2013.78
 11
9.43712
 21
2014.15
  0
LINE
  8
0
 10
9.43712
 20
2014.15
 11
9.89484
 21
2014.58
  0
LINE
  8
0
 10
9.89484
 20
2014.58
 11
10.2951
 21
2015.06
  0
LINE
  8
0
 10
10.2951
 20
2015.06
 11
10.6315
 21
2015.59
  0
LINE
  8
0
 10
10.6315
 20
2015.59
 11
10.8989
 21
2016.16
  0
LINE
  8
0
 10
10.8989
 20
2016.16
 11
11.0929
 21
2016.76
  0
LINE
  8
0
 10
11.0929
 20
2016.76
 11
11.2106
 21
2017.37
  0
LINE
  8
0
 10
11.2106
 20
2017.37
 11
11.25
 21
2018
  0
LINE
  8
0
 10
11.25
 20
2018
 11
11.25
 21
2308
  0
LINE
  8
0
 10
11.25
 20
2308
 11
11.2106
 21
2308.63
  0
LINE
  8
0
 10
11.2106
 20
2308.63
 11
11.0929
 21
2309.24
  0
LINE
  8
0
 10
11.0929
 20
2309.24
 11
10.8989
 21
2309.84
  0
LINE
  8
0
 10
10.8989
 20
2309.84
 11
10.6315
 21
2310.41
  0
LINE
  8
0
 10
10.6315
 20
2310.41
 11
10.2951
 21
2310.94
  0
LINE
  8
0
 10
10.2951
 20
2310.94
 11
9.89484
 21
2311.42
  0
LINE
  8
0
 10
9.89484
 20
2311.42
 11
9.43712
 21
2311.85
  0
LINE
  8
0
 10
9.43712
 20
2311.85
 11
8.92912
 21
2312.22
  0
LINE
  8
0
 10
8.92912
 20
2312.22
 11
8.37889
 21
2312.52
  0
LINE
  8
0
 10
8.37889
 20
2312.52
 11
7.79507
 21
2312.76
  0
LINE
  8
0
 10
7.79507
 20
2312.76
 11
7.1869
 21
2312.91
  0
LINE
  8
0
 10
7.1869
 20
2312.91
 11
6.56395
 21
2312.99
  0
LINE
  8
0
 10
6.56395
 20
2312.99
 11
-6.56395
 21
2312.99
  0
LINE
  8
0
 10
-6.56395
 20
2312.99
 11
-7.1869
 21
2312.91
  0
LINE
  8
0
 10
-7.1869
 20
2312.91
 11
-7.79507
 21
2312.76
  0
LINE
  8
0
 10
-7.79507
 20
2312.76
 11
-8.37889
 21
2312.52
  0
LINE
  8
0
 10
-8.37889
 20
2312.52
 11
-8.92912
 21
2312.22
  0
LINE
  8
0
 10
-8.92912
 20
2312.22
 11
-9.43712
 21
2311.85
  0
LINE
  8
0
 10
-9.43712
 20
2311.85
 11
-9.89484
 21
2311.42
  0
LINE
  8
0
 10
-9.89484
 20
2311.42
 11
-10.2951
 21
2310.94
  0
LINE
  8
0
 10
-10.2951
 20
2310.94
 11
-10.6315
 21
2310.41
  0
LINE
  8
0
 10
-10.6315
 20
2310.41
 11
-10.8989
 21
2309.84
  0
LINE
  8
0
 10
-10.8989
 20
2309.84
 11
-11.0929
 21
2309.24
  0
LINE
  8
0
 10
-11.0929
 20
2309.24
 11
-11.2106
 21
2308.63
  0
LINE
  8
0
 10
-11.2106
 20
2308.63
 11
-11.25
 21
2308
  0
LINE
  8
0
 10
-11.25
 20
2308
 11
-11.25
 21
2018
  0
LINE
  8
0
 10
-11.25
 20
2018
 11
-11.2106
 21
2017.37
  0
LINE
  8
0
 10
-11.2106
 20
2017.37
 11
-11.0929
 21
2016.76
  0
LINE
  8
0
 10
-11.0929
 20
2016.76
 11
-10.8989
 21
2016.16
  0
LINE
  8
0
 10
-10.8989
 20
2016.16
 11
-10.6315
 21
2015.59
  0
LINE
  8
0
 10
-10.6315
 20
2015.59
 11
-10.2951
 21
2015.06
  0
LINE
  8
0
 10
-10.2951
 20
2015.06
 11
-9.89484
 21
2014.58
  0
LINE
  8
0
 10
-9.89484
 20
2014.58
 11
-9.43712
 21
2014.15
  0
LINE
  8
0
 10
-9.43712
 20
2014.15
 11
-8.92912
 21
2013.78
  0
LINE
  8
0
 10
-8.92912
 20
2013.78
 11
-8.37889
 21
2013.48
  0
LINE
  8
0
 10
-8.37889
 20
2013.48
 11
-7.79507
 21
2013.24
  0
LINE
  8
0
 10
-7.79507
 20
2013.24
 11
-7.1869
 21
2013.09
  0
LINE
  8
0
 10
-7.1869
 20
2013.09
 11
-6.56395
 21
2013.01
  0
LINE
  8
0
 10
-6.56395
 20
2013.01
 11
6.56395
 21
2013.01
  0
LINE
  8
0
 10
6.56395
 20
2013.01
 11
7.1869
 21
2013.09
  0
LINE
  8
0
 10
-6.00116
 20
2014.51
 11
-6.49951
 21
2014.57
  0
LINE
  8
0
 10
-6.49951
 20
2014.57
 11
-6.98605
 21
2014.7
  0
LINE
  8
0
 10
-6.98605
 20
2014.7
 11
-7.45311
 21
2014.88
  0
LINE
  8
0
 10
-7.45311
 20
2014.88
 11
-7.8933
 21
2015.12
  0
LINE
  8
0
 10
-7.8933
 20
2015.12
 11
-8.29968
 21
2015.42
  0
LINE
  8
0
 10
-8.29968
 20
2015.42
 11
-8.66586
 21
2015.76
  0
LINE
  8
0
 10
-8.66586
 20
2015.76
 11
-8.98605
 21
2016.15
  0
LINE
  8
0
 10
-8.98605
 20
2016.15
 11
-9.25522
 21
2016.57
  0
LINE
  8
0
 10
-9.25522
 20
2016.57
 11
-9.4691
 21
2017.03
  0
LINE
  8
0
 10
-9.4691
 20
2017.03
 11
-9.62433
 21
2017.51
  0
LINE
  8
0
 10
-9.62433
 20
2017.51
 11
-9.71844
 21
2018
  0
LINE
  8
0
 10
-9.71844
 20
2018
 11
-9.75
 21
2018.5
  0
LINE
  8
0
 10
-9.75
 20
2018.5
 11
-9.75
 21
2307.5
  0
LINE
  8
0
 10
-9.75
 20
2307.5
 11
-9.71844
 21
2308
  0
LINE
  8
0
 10
-9.71844
 20
2308
 11
-9.62433
 21
2308.49
  0
LINE
  8
0
 10
-9.62433
 20
2308.49
 11
-9.4691
 21
2308.97
  0
LINE
  8
0
 10
-9.4691
 20
2308.97
 11
-9.25522
 21
2309.43
  0
LINE
  8
0
 10
-9.25522
 20
2309.43
 11
-8.98605
 21
2309.85
  0
LINE
  8
0
 10
-8.98605
 20
2309.85
 11
-8.66586
 21
2310.24
  0
LINE
  8
0
 10
-8.66586
 20
2310.24
 11
-8.29968
 21
2310.58
  0
LINE
  8
0
 10
-8.29968
 20
2310.58
 11
-7.8933
 21
2310.88
  0
LINE
  8
0
 10
-7.8933
 20
2310.88
 11
-7.45311
 21
2311.12
  0
LINE
  8
0
 10
-7.45311
 20
2311.12
 11
-6.98605
 21
2311.3
  0
LINE
  8
0
 10
-6.98605
 20
2311.3
 11
-6.49951
 21
2311.43
  0
LINE
  8
0
 10
-6.49951
 20
2311.43
 11
-6.00116
 21
2311.49
  0
LINE
  8
0
 10
-6.00116
 20
2311.49
 11
6.00116
 21
2311.49
  0
LINE
  8
0
 10
6.00116
 20
2311.49
 11
6.49951
 21
2311.43
  0
LINE
  8
0
 10
6.49951
 20
2311.43
 11
6.98605
 21
2311.3
  0
LINE
  8
0
 10
6.98605
 20
2311.3
 11
7.45311
 21
2311.12
  0
LINE
  8
0
 10
7.45311
 20
2311.12
 11
7.8933
 21
2310.88
  0
LINE
  8
0
 10
7.8933
 20
2310.88
 11
8.29968
 21
2310.58
  0
LINE
  8
0
 10
8.29968
 20
2310.58
 11
8.66586
 21
2310.24
  0
LINE
  8
0
 10
8.66586
 20
2310.24
 11
8.98605
 21
2309.85
  0
LINE
  8
0
 10
8.98605
 20
2309.85
 11
9.25522
 21
2309.43
  0
LINE
  8
0
 10
9.25522
 20
2309.43
 11
9.4691
 21
2308.97
  0
LINE
  8
0
 10
9.4691
 20
2308.97
 11
9.62433
 21
2308.49
  0
LINE
  8
0
 10
9.62433
 20
2308.49
 11
9.71844
 21
2308
  0
LINE
  8
0
 10
9.71844
 20
2308
 11
9.75
 21
2307.5
  0
LINE
  8
0
 10
9.75
 20
2307.5
 11
9.75
 21
2018.5
  0
LINE
  8
0
 10
9.75
 20
2018.5
 11
9.71844
 21
2018
  0
LINE
  8
0
 10
9.71844
 20
2018
 11
9.62433
 21
2017.51
  0
LINE
  8
0
 10
9.62433
 20
2017.51
 11
9.4691
 21
2017.03
  0
LINE
  8
0
 10
9.4691
 20
2017.03
 11
9.25522
 21
2016.57
  0
LINE
  8
0
 10
9.25522
 20
2016.57
 11
8.98605
 21
2016.15
  0
LINE
  8
0
 10
8.98605
 20
2016.15
 11
8.66586
 21
2015.76
  0
LINE
  8
0
 10
8.66586
 20
2015.76
 11
8.29968
 21
2015.42
  0
LINE
  8
0
 10
8.29968
 20
2015.42
 11
7.8933
 21
2015.12
  0
LINE
  8
0
 10
7.8933
 20
2015.12
 11
7.45311
 21
2014.88
  0
LINE
  8
0
 10
7.45311
 20
2014.88
 11
6.98605
 21
2014.7
  0
LINE
  8
0
 10
6.98605
 20
2014.7
 11
6.49951
 21
2014.57
  0
LINE
  8
0
 10
6.49951
 20
2014.57
 11
6.00116
 21
2014.51
  0
LINE
  8
0
 10
6.00116
 20
2014.51
 11
-6.00116
 21
2014.51
  0
LINE
  8
0
 10
7.1869
 20
1704.09
 11
7.79507
 21
1704.24
  0
LINE
  8
0
 10
7.79507
 20
1704.24
 11
8.37889
 21
1704.48
  0
LINE
  8
0
 10
8.37889
 20
1704.48
 11
8.92912
 21
1704.78
  0
LINE
  8
0
 10
8.92912
 20
1704.78
 11
9.43712
 21
1705.15
  0
LINE
  8
0
 10
9.43712
 20
1705.15
 11
9.89484
 21
1705.58
  0
LINE
  8
0
 10
9.89484
 20
1705.58
 11
10.2951
 21
1706.06
  0
LINE
  8
0
 10
10.2951
 20
1706.06
 11
10.6315
 21
1706.59
  0
LINE
  8
0
 10
10.6315
 20
1706.59
 11
10.8989
 21
1707.16
  0
LINE
  8
0
 10
10.8989
 20
1707.16
 11
11.0929
 21
1707.76
  0
LINE
  8
0
 10
11.0929
 20
1707.76
 11
11.2106
 21
1708.37
  0
LINE
  8
0
 10
11.2106
 20
1708.37
 11
11.25
 21
1709
  0
LINE
  8
0
 10
11.25
 20
1709
 11
11.25
 21
1999
  0
LINE
  8
0
 10
11.25
 20
1999
 11
11.2106
 21
1999.63
  0
LINE
  8
0
 10
11.2106
 20
1999.63
 11
11.0929
 21
2000.24
  0
LINE
  8
0
 10
11.0929
 20
2000.24
 11
10.8989
 21
2000.84
  0
LINE
  8
0
 10
10.8989
 20
2000.84
 11
10.6315
 21
2001.41
  0
LINE
  8
0
 10
10.6315
 20
2001.41
 11
10.2951
 21
2001.94
  0
LINE
  8
0
 10
10.2951
 20
2001.94
 11
9.89484
 21
2002.42
  0
LINE
  8
0
 10
9.89484
 20
2002.42
 11
9.43712
 21
2002.85
  0
LINE
  8
0
 10
9.43712
 20
2002.85
 11
8.92912
 21
2003.22
  0
LINE
  8
0
 10
8.92912
 20
2003.22
 11
8.37889
 21
2003.52
  0
LINE
  8
0
 10
8.37889
 20
2003.52
 11
7.79507
 21
2003.76
  0
LINE
  8
0
 10
7.79507
 20
2003.76
 11
7.1869
 21
2003.91
  0
LINE
  8
0
 10
7.1869
 20
2003.91
 11
6.56395
 21
2003.99
  0
LINE
  8
0
 10
6.56395
 20
2003.99
 11
-6.56395
 21
2003.99
  0
LINE
  8
0
 10
-6.56395
 20
2003.99
 11
-7.1869
 21
2003.91
  0
LINE
  8
0
 10
-7.1869
 20
2003.91
 11
-7.79507
 21
2003.76
  0
LINE
  8
0
 10
-7.79507
 20
2003.76
 11
-8.37889
 21
2003.52
  0
LINE
  8
0
 10
-8.37889
 20
2003.52
 11
-8.92912
 21
2003.22
  0
LINE
  8
0
 10
-8.92912
 20
2003.22
 11
-9.43712
 21
2002.85
  0
LINE
  8
0
 10
-9.43712
 20
2002.85
 11
-9.89484
 21
2002.42
  0
LINE
  8
0
 10
-9.89484
 20
2002.42
 11
-10.2951
 21
2001.94
  0
LINE
  8
0
 10
-10.2951
 20
2001.94
 11
-10.6315
 21
2001.41
  0
LINE
  8
0
 10
-10.6315
 20
2001.41
 11
-10.8989
 21
2000.84
  0
LINE
  8
0
 10
-10.8989
 20
2000.84
 11
-11.0929
 21
2000.24
  0
LINE
  8
0
 10
-11.0929
 20
2000.24
 11
-11.2106
 21
1999.63
  0
LINE
  8
0
 10
-11.2106
 20
1999.63
 11
-11.25
 21
1999
  0
LINE
  8
0
 10
-11.25
 20
1999
 11
-11.25
 21
1709
  0
LINE
  8
0
 10
-11.25
 20
1709
 11
-11.2106
 21
1708.37
  0
LINE
  8
0
 10
-11.2106
 20
1708.37
 11
-11.0929
 21
1707.76
  0
LINE
  8
0
 10
-11.0929
 20
1707.76
 11
-10.8989
 21
1707.16
  0
LINE
  8
0
 10
-10.8989
 20
1707.16
 11
-10.6315
 21
1706.59
  0
LINE
  8
0
 10
-10.6315
 20
1706.59
 11
-10.2951
 21
1706.06
  0
LINE
  8
0
 10
-10.2951
 20
1706.06
 11
-9.89484
 21
1705.58
  0
LINE
  8
0
 10
-9.89484
 20
1705.58
 11
-9.43712
 21
1705.15
  0
LINE
  8
0
 10
-9.43712
 20
1705.15
 11
-8.92912
 21
1704.78
  0
LINE
  8
0
 10
-8.92912
 20
1704.78
 11
-8.37889
 21
1704.48
  0
LINE
  8
0
 10
-8.37889
 20
1704.48
 11
-7.79507
 21
1704.24
  0
LINE
  8
0
 10
-7.79507
 20
1704.24
 11
-7.1869
 21
1704.09
  0
LINE
  8
0
 10
-7.1869
 20
1704.09
 11
-6.56395
 21
1704.01
  0
LINE
  8
0
 10
-6.56395
 20
1704.01
 11
6.56395
 21
1704.01
  0
LINE
  8
0
 10
6.56395
 20
1704.01
 11
7.1869
 21
1704.09
  0
LINE
  8
0
 10
-6.00116
 20
1705.51
 11
-6.49951
 21
1705.57
  0
LINE
  8
0
 10
-6.49951
 20
1705.57
 11
-6.98605
 21
1705.7
  0
LINE
  8
0
 10
-6.98605
 20
1705.7
 11
-7.45311
 21
1705.88
  0
LINE
  8
0
 10
-7.45311
 20
1705.88
 11
-7.8933
 21
1706.12
  0
LINE
  8
0
 10
-7.8933
 20
1706.12
 11
-8.29968
 21
1706.42
  0
LINE
  8
0
 10
-8.29968
 20
1706.42
 11
-8.66586
 21
1706.76
  0
LINE
  8
0
 10
-8.66586
 20
1706.76
 11
-8.98605
 21
1707.15
  0
LINE
  8
0
 10
-8.98605
 20
1707.15
 11
-9.25522
 21
1707.57
  0
LINE
  8
0
 10
-9.25522
 20
1707.57
 11
-9.4691
 21
1708.03
  0
LINE
  8
0
 10
-9.4691
 20
1708.03
 11
-9.62433
 21
1708.51
  0
LINE
  8
0
 10
-9.62433
 20
1708.51
 11
-9.71844
 21
1709
  0
LINE
  8
0
 10
-9.71844
 20
1709
 11
-9.75
 21
1709.5
  0
LINE
  8
0
 10
-9.75
 20
1709.5
 11
-9.75
 21
1998.5
  0
LINE
  8
0
 10
-9.75
 20
1998.5
 11
-9.71844
 21
1999
  0
LINE
  8
0
 10
-9.71844
 20
1999
 11
-9.62433
 21
1999.49
  0
LINE
  8
0
 10
-9.62433
 20
1999.49
 11
-9.4691
 21
1999.97
  0
LINE
  8
0
 10
-9.4691
 20
1999.97
 11
-9.25522
 21
2000.43
  0
LINE
  8
0
 10
-9.25522
 20
2000.43
 11
-8.98605
 21
2000.85
  0
LINE
  8
0
 10
-8.98605
 20
2000.85
 11
-8.66586
 21
2001.24
  0
LINE
  8
0
 10
-8.66586
 20
2001.24
 11
-8.29968
 21
2001.58
  0
LINE
  8
0
 10
-8.29968
 20
2001.58
 11
-7.8933
 21
2001.88
  0
LINE
  8
0
 10
-7.8933
 20
2001.88
 11
-7.45311
 21
2002.12
  0
LINE
  8
0
 10
-7.45311
 20
2002.12
 11
-6.98605
 21
2002.3
  0
LINE
  8
0
 10
-6.98605
 20
2002.3
 11
-6.49951
 21
2002.43
  0
LINE
  8
0
 10
-6.49951
 20
2002.43
 11
-6.00116
 21
2002.49
  0
LINE
  8
0
 10
-6.00116
 20
2002.49
 11
6.00116
 21
2002.49
  0
LINE
  8
0
 10
6.00116
 20
2002.49
 11
6.49951
 21
2002.43
  0
LINE
  8
0
 10
6.49951
 20
2002.43
 11
6.98605
 21
2002.3
  0
LINE
  8
0
 10
6.98605
 20
2002.3
 11
7.45311
 21
2002.12
  0
LINE
  8
0
 10
7.45311
 20
2002.12
 11
7.8933
 21
2001.88
  0
LINE
  8
0
 10
7.8933
 20
2001.88
 11
8.29968
 21
2001.58
  0
LINE
  8
0
 10
8.29968
 20
2001.58
 11
8.66586
 21
2001.24
  0
LINE
  8
0
 10
8.66586
 20
2001.24
 11
8.98605
 21
2000.85
  0
LINE
  8
0
 10
8.98605
 20
2000.85
 11
9.25522
 21
2000.43
  0
LINE
  8
0
 10
9.25522
 20
2000.43
 11
9.4691
 21
1999.97
  0
LINE
  8
0
 10
9.4691
 20
1999.97
 11
9.62433
 21
1999.49
  0
LINE
  8
0
 10
9.62433
 20
1999.49
 11
9.71844
 21
1999
  0
LINE
  8
0
 10
9.71844
 20
1999
 11
9.75
 21
1998.5
  0
LINE
  8
0
 10
9.75
 20
1998.5
 11
9.75
 21
1709.5
  0
LINE
  8
0
 10
9.75
 20
1709.5
 11
9.71844
 21
1709
  0
LINE
  8
0
 10
9.71844
 20
1709
 11
9.62433
 21
1708.51
  0
LINE
  8
0
 10
9.62433
 20
1708.51
 11
9.4691
 21
1708.03
  0
LINE
  8
0
 10
9.4691
 20
1708.03
 11
9.25522
 21
1707.57
  0
LINE
  8
0
 10
9.25522
 20
1707.57
 11
8.98605
 21
1707.15
  0
LINE
  8
0
 10
8.98605
 20
1707.15
 11
8.66586
 21
1706.76
  0
LINE
  8
0
 10
8.66586
 20
1706.76
 11
8.29968
 21
1706.42
  0
LINE
  8
0
 10
8.29968
 20
1706.42
 11
7.8933
 21
1706.12
  0
LINE
  8
0
 10
7.8933
 20
1706.12
 11
7.45311
 21
1705.88
  0
LINE
  8
0
 10
7.45311
 20
1705.88
 11
6.98605
 21
1705.7
  0
LINE
  8
0
 10
6.98605
 20
1705.7
 11
6.49951
 21
1705.57
  0
LINE
  8
0
 10
6.49951
 20
1705.57
 11
6.00116
 21
1705.51
  0
LINE
  8
0
 10
6.00116
 20
1705.51
 11
-6.00116
 21
1705.51
  0
LINE
  8
0
 10
7.1869
 20
1395.09
 11
7.79507
 21
1395.24
  0
LINE
  8
0
 10
7.79507
 20
1395.24
 11
8.37889
 21
1395.48
  0
LINE
  8
0
 10
8.37889
 20
1395.48
 11
8.92912
 21
1395.78
  0
LINE
  8
0
 10
8.92912
 20
1395.78
 11
9.43712
 21
1396.15
  0
LINE
  8
0
 10
9.43712
 20
1396.15
 11
9.89484
 21
1396.58
  0
LINE
  8
0
 10
9.89484
 20
1396.58
 11
10.2951
 21
1397.06
  0
LINE
  8
0
 10
10.2951
 20
1397.06
 11
10.6315
 21
1397.59
  0
LINE
  8
0
 10
10.6315
 20
1397.59
 11
10.8989
 21
1398.16
  0
LINE
  8
0
 10
10.8989
 20
1398.16
 11
11.0929
 21
1398.76
  0
LINE
  8
0
 10
11.0929
 20
1398.76
 11
11.2106
 21
1399.37
  0
LINE
  8
0
 10
11.2106
 20
1399.37
 11
11.25
 21
1400
  0
LINE
  8
0
 10
11.25
 20
1400
 11
11.25
 21
1690
  0
LINE
  8
0
 10
11.25
 20
1690
 11
11.2106
 21
1690.63
  0
LINE
  8
0
 10
11.2106
 20
1690.63
 11
11.0929
 21
1691.24
  0
LINE
  8
0
 10
11.0929
 20
1691.24
 11
10.8989
 21
1691.84
  0
LINE
  8
0
 10
10.8989
 20
1691.84
 11
10.6315
 21
1692.41
  0
LINE
  8
0
 10
10.6315
 20
1692.41
 11
10.2951
 21
1692.94
  0
LINE
  8
0
 10
10.2951
 20
1692.94
 11
9.89484
 21
1693.42
  0
LINE
  8
0
 10
9.89484
 20
1693.42
 11
9.43712
 21
1693.85
  0
LINE
  8
0
 10
9.43712
 20
1693.85
 11
8.92912
 21
1694.22
  0
LINE
  8
0
 10
8.92912
 20
1694.22
 11
8.37889
 21
1694.52
  0
LINE
  8
0
 10
8.37889
 20
1694.52
 11
7.79507
 21
1694.76
  0
LINE
  8
0
 10
7.79507
 20
1694.76
 11
7.1869
 21
1694.91
  0
LINE
  8
0
 10
7.1869
 20
1694.91
 11
6.56395
 21
1694.99
  0
LINE
  8
0
 10
6.56395
 20
1694.99
 11
-6.56395
 21
1694.99
  0
LINE
  8
0
 10
-6.56395
 20
1694.99
 11
-7.1869
 21
1694.91
  0
LINE
  8
0
 10
-7.1869
 20
1694.91
 11
-7.79507
 21
1694.76
  0
LINE
  8
0
 10
-7.79507
 20
1694.76
 11
-8.37889
 21
1694.52
  0
LINE
  8
0
 10
-8.37889
 20
1694.52
 11
-8.92912
 21
1694.22
  0
LINE
  8
0
 10
-8.92912
 20
1694.22
 11
-9.43712
 21
1693.85
  0
LINE
  8
0
 10
-9.43712
 20
1693.85
 11
-9.89484
 21
1693.42
  0
LINE
  8
0
 10
-9.89484
 20
1693.42
 11
-10.2951
 21
1692.94
  0
LINE
  8
0
 10
-10.2951
 20
1692.94
 11
-10.6315
 21
1692.41
  0
LINE
  8
0
 10
-10.6315
 20
1692.41
 11
-10.8989
 21
1691.84
  0
LINE
  8
0
 10
-10.8989
 20
1691.84
 11
-11.0929
 21
1691.24
  0
LINE
  8
0
 10
-11.0929
 20
1691.24
 11
-11.2106
 21
1690.63
  0
LINE
  8
0
 10
-11.2106
 20
1690.63
 11
-11.25
 21
1690
  0
LINE
  8
0
 10
-11.25
 20
1690
 11
-11.25
 21
1400
  0
LINE
  8
0
 10
-11.25
 20
1400
 11
-11.2106
 21
1399.37
  0
LINE
  8
0
 10
-11.2106
 20
1399.37
 11
-11.0929
 21
1398.76
  0
LINE
  8
0
 10
-11.0929
 20
1398.76
 11
-10.8989
 21
1398.16
  0
LINE
  8
0
 10
-10.8989
 20
1398.16
 11
-10.6315
 21
1397.59
  0
LINE
  8
0
 10
-10.6315
 20
1397.59
 11
-10.2951
 21
1397.06
  0
LINE
  8
0
 10
-10.2951
 20
1397.06
 11
-9.89484
 21
1396.58
  0
LINE
  8
0
 10
-9.89484
 20
1396.58
 11
-9.43712
 21
1396.15
  0
LINE
  8
0
 10
-9.43712
 20
1396.15
 11
-8.92912
 21
1395.78
  0
LINE
  8
0
 10
-8.92912
 20
1395.78
 11
-8.37889
 21
1395.48
  0
LINE
  8
0
 10
-8.37889
 20
1395.48
 11
-7.79507
 21
1395.24
  0
LINE
  8
0
 10
-7.79507
 20
1395.24
 11
-7.1869
 21
1395.09
  0
LINE
  8
0
 10
-7.1869
 20
1395.09
 11
-6.56395
 21
1395.01
  0
LINE
  8
0
 10
-6.56395
 20
1395.01
 11
6.56395
 21
1395.01
  0
LINE
  8
0
 10
6.56395
 20
1395.01
 11
7.1869
 21
1395.09
  0
LINE
  8
0
 10
-5.94545
 20
1397.39
 11
-6.3333
 21
1397.44
  0
LINE
  8
0
 10
-6.3333
 20
1397.44
 11
-6.71194
 21
1397.54
  0
LINE
  8
0
 10
-6.71194
 20
1397.54
 11
-7.07541
 21
1397.68
  0
LINE
  8
0
 10
-7.07541
 20
1397.68
 11
-7.41798
 21
1397.87
  0
LINE
  8
0
 10
-7.41798
 20
1397.87
 11
-7.73424
 21
1398.1
  0
LINE
  8
0
 10
-7.73424
 20
1398.1
 11
-8.01921
 21
1398.37
  0
LINE
  8
0
 10
-8.01921
 20
1398.37
 11
-8.2684
 21
1398.67
  0
LINE
  8
0
 10
-8.2684
 20
1398.67
 11
-8.47786
 21
1399
  0
LINE
  8
0
 10
-8.47786
 20
1399
 11
-8.64432
 21
1399.35
  0
LINE
  8
0
 10
-8.64432
 20
1399.35
 11
-8.76512
 21
1399.73
  0
LINE
  8
0
 10
-8.76512
 20
1399.73
 11
-8.83836
 21
1400.11
  0
LINE
  8
0
 10
-8.83836
 20
1400.11
 11
-8.86292
 21
1400.5
  0
LINE
  8
0
 10
-8.86292
 20
1400.5
 11
-8.86292
 21
1689.5
  0
LINE
  8
0
 10
-8.86292
 20
1689.5
 11
-8.83836
 21
1689.89
  0
LINE
  8
0
 10
-8.83836
 20
1689.89
 11
-8.76512
 21
1690.27
  0
LINE
  8
0
 10
-8.76512
 20
1690.27
 11
-8.64432
 21
1690.65
  0
LINE
  8
0
 10
-8.64432
 20
1690.65
 11
-8.47786
 21
1691
  0
LINE
  8
0
 10
-8.47786
 20
1691
 11
-8.2684
 21
1691.33
  0
LINE
  8
0
 10
-8.2684
 20
1691.33
 11
-8.01921
 21
1691.63
  0
LINE
  8
0
 10
-8.01921
 20
1691.63
 11
-7.73424
 21
1691.9
  0
LINE
  8
0
 10
-7.73424
 20
1691.9
 11
-7.41798
 21
1692.13
  0
LINE
  8
0
 10
-7.41798
 20
1692.13
 11
-7.07541
 21
1692.32
  0
LINE
  8
0
 10
-7.07541
 20
1692.32
 11
-6.71194
 21
1692.46
  0
LINE
  8
0
 10
-6.71194
 20
1692.46
 11
-6.3333
 21
1692.56
  0
LINE
  8
0
 10
-6.3333
 20
1692.56
 11
-5.94545
 21
1692.61
  0
LINE
  8
0
 10
-5.94545
 20
1692.61
 11
5.94545
 21
1692.61
  0
LINE
  8
0
 10
5.94545
 20
1692.61
 11
6.3333
 21
1692.56
  0
LINE
  8
0
 10
6.3333
 20
1692.56
 11
6.71194
 21
1692.46
  0
LINE
  8
0
 10
6.71194
 20
1692.46
 11
7.07541
 21
1692.32
  0
LINE
  8
0
 10
7.07541
 20
1692.32
 11
7.41798
 21
1692.13
  0
LINE
  8
0
 10
7.41798
 20
1692.13
 11
7.73424
 21
1691.9
  0
LINE
  8
0
 10
7.73424
 20
1691.9
 11
8.01921
 21
1691.63
  0
LINE
  8
0
 10
8.01921
 20
1691.63
 11
8.2684
 21
1691.33
  0
LINE
  8
0
 10
8.2684
 20
1691.33
 11
8.47786
 21
1691
  0
LINE
  8
0
 10
8.47786
 20
1691
 11
8.64432
 21
1690.65
  0
LINE
  8
0
 10
8.64432
 20
1690.65
 11
8.76512
 21
1690.27
  0
LINE
  8
0
 10
8.76512
 20
1690.27
 11
8.83836
 21
1689.89
  0
LINE
  8
0
 10
8.83836
 20
1689.89
 11
8.86292
 21
1689.5
  0
LINE
  8
0
 10
8.86292
 20
1689.5
 11
8.86292
 21
1400.5
  0
LINE
  8
0
 10
8.86292
 20
1400.5
 11
8.83836
 21
1400.11
  0
LINE
  8
0
 10
8.83836
 20
1400.11
 11
8.76512
 21
1399.73
  0
LINE
  8
0
 10
8.76512
 20
1399.73
 11
8.64432
 21
1399.35
  0
LINE
  8
0
 10
8.64432
 20
1399.35
 11
8.47786
 21
1399
  0
LINE
  8
0
 10
8.47786
 20
1399
 11
8.2684
 21
1398.67
  0
LINE
  8
0
 10
8.2684
 20
1398.67
 11
8.01921
 21
1398.37
  0
LINE
  8
0
 10
8.01921
 20
1398.37
 11
7.73424
 21
1398.1
  0
LINE
  8
0
 10
7.73424
 20
1398.1
 11
7.41798
 21
1397.87
  0
LINE
  8
0
 10
7.41798
 20
1397.87
 11
7.07541
 21
1397.68
  0
LINE
  8
0
 10
7.07541
 20
1397.68
 11
6.71194
 21
1397.54
  0
LINE
  8
0
 10
6.71194
 20
1397.54
 11
6.3333
 21
1397.44
  0
LINE
  8
0
 10
6.3333
 20
1397.44
 11
5.94545
 21
1397.39
  0
LINE
  8
0
 10
5.94545
 20
1397.39
 11
-5.94545
 21
1397.39
  0
LINE
  8
0
 10
7.1869
 20
1086.09
 11
7.79507
 21
1086.24
  0
LINE
  8
0
 10
7.79507
 20
1086.24
 11
8.37889
 21
1086.48
  0
LINE
  8
0
 10
8.37889
 20
1086.48
 11
8.92912
 21
1086.78
  0
LINE
  8
0
 10
8.92912
 20
1086.78
 11
9.43712
 21
1087.15
  0
LINE
  8
0
 10
9.43712
 20
1087.15
 11
9.89484
 21
1087.58
  0
LINE
  8
0
 10
9.89484
 20
1087.58
 11
10.2951
 21
1088.06
  0
LINE
  8
0
 10
10.2951
 20
1088.06
 11
10.6315
 21
1088.59
  0
LINE
  8
0
 10
10.6315
 20
1088.59
 11
10.8989
 21
1089.16
  0
LINE
  8
0
 10
10.8989
 20
1089.16
 11
11.0929
 21
1089.76
  0
LINE
  8
0
 10
11.0929
 20
1089.76
 11
11.2106
 21
1090.37
  0
LINE
  8
0
 10
11.2106
 20
1090.37
 11
11.25
 21
1091
  0
LINE
  8
0
 10
11.25
 20
1091
 11
11.25
 21
1381
  0
LINE
  8
0
 10
11.25
 20
1381
 11
11.2106
 21
1381.63
  0
LINE
  8
0
 10
11.2106
 20
1381.63
 11
11.0929
 21
1382.24
  0
LINE
  8
0
 10
11.0929
 20
1382.24
 11
10.8989
 21
1382.84
  0
LINE
  8
0
 10
10.8989
 20
1382.84
 11
10.6315
 21
1383.41
  0
LINE
  8
0
 10
10.6315
 20
1383.41
 11
10.2951
 21
1383.94
  0
LINE
  8
0
 10
10.2951
 20
1383.94
 11
9.89484
 21
1384.42
  0
LINE
  8
0
 10
9.89484
 20
1384.42
 11
9.43712
 21
1384.85
  0
LINE
  8
0
 10
9.43712
 20
1384.85
 11
8.92912
 21
1385.22
  0
LINE
  8
0
 10
8.92912
 20
1385.22
 11
8.37889
 21
1385.52
  0
LINE
  8
0
 10
8.37889
 20
1385.52
 11
7.79507
 21
1385.76
  0
LINE
  8
0
 10
7.79507
 20
1385.76
 11
7.1869
 21
1385.91
  0
LINE
  8
0
 10
7.1869
 20
1385.91
 11
6.56395
 21
1385.99
  0
LINE
  8
0
 10
6.56395
 20
1385.99
 11
-6.56395
 21
1385.99
  0
LINE
  8
0
 10
-6.56395
 20
1385.99
 11
-7.1869
 21
1385.91
  0
LINE
  8
0
 10
-7.1869
 20
1385.91
 11
-7.79507
 21
1385.76
  0
LINE
  8
0
 10
-7.79507
 20
1385.76
 11
-8.37889
 21
1385.52
  0
LINE
  8
0
 10
-8.37889
 20
1385.52
 11
-8.92912
 21
1385.22
  0
LINE
  8
0
 10
-8.92912
 20
1385.22
 11
-9.43712
 21
1384.85
  0
LINE
  8
0
 10
-9.43712
 20
1384.85
 11
-9.89484
 21
1384.42
  0
LINE
  8
0
 10
-9.89484
 20
1384.42
 11
-10.2951
 21
1383.94
  0
LINE
  8
0
 10
-10.2951
 20
1383.94
 11
-10.6315
 21
1383.41
  0
LINE
  8
0
 10
-10.6315
 20
1383.41
 11
-10.8989
 21
1382.84
  0
LINE
  8
0
 10
-10.8989
 20
1382.84
 11
-11.0929
 21
1382.24
  0
LINE
  8
0
 10
-11.0929
 20
1382.24
 11
-11.2106
 21
1381.63
  0
LINE
  8
0
 10
-11.2106
 20
1381.63
 11
-11.25
 21
1381
  0
LINE
  8
0
 10
-11.25
 20
1381
 11
-11.25
 21
1091
  0
LINE
  8
0
 10
-11.25
 20
1091
 11
-11.2106
 21
1090.37
  0
LINE
  8
0
 10
-11.2106
 20
1090.37
 11
-11.0929
 21
1089.76
  0
LINE
  8
0
 10
-11.0929
 20
1089.76
 11
-10.8989
 21
1089.16
  0
LINE
  8
0
 10
-10.8989
 20
1089.16
 11
-10.6315
 21
1088.59
  0
LINE
  8
0
 10
-10.6315
 20
1088.59
 11
-10.2951
 21
1088.06
  0
LINE
  8
0
 10
-10.2951
 20
1088.06
 11
-9.89484
 21
1087.58
  0
LINE
  8
0
 10
-9.89484
 20
1087.58
 11
-9.43712
 21
1087.15
  0
LINE
  8
0
 10
-9.43712
 20
1087.15
 11
-8.92912
 21
1086.78
  0
LINE
  8
0
 10
-8.92912
 20
1086.78
 11
-8.37889
 21
1086.48
  0
LINE
  8
0
 10
-8.37889
 20
1086.48
 11
-7.79507
 21
1086.24
  0
LINE
  8
0
 10
-7.79507
 20
1086.24
 11
-7.1869
 21
1086.09
  0
LINE
  8
0
 10
-7.1869
 20
1086.09
 11
-6.56395
 21
1086.01
  0
LINE
  8
0
 10
-6.56395
 20
1086.01
 11
6.56395
 21
1086.01
  0
LINE
  8
0
 10
6.56395
 20
1086.01
 11
7.1869
 21
1086.09
  0
LINE
  8
0
 10
3.61592
 20
1376.37
 11
3.34988
 21
1376.4
  0
LINE
  8
0
 10
3.34988
 20
1376.4
 11
3.09015
 21
1376.47
  0
LINE
  8
0
 10
3.09015
 20
1376.47
 11
2.84084
 21
1376.57
  0
LINE
  8
0
 10
2.84084
 20
1376.57
 11
2.60585
 21
1376.7
  0
LINE
  8
0
 10
2.60585
 20
1376.7
 11
2.3889
 21
1376.85
  0
LINE
  8
0
 10
2.3889
 20
1376.85
 11
2.19344
 21
1377.04
  0
LINE
  8
0
 10
2.19344
 20
1377.04
 11
2.02251
 21
1377.24
  0
LINE
  8
0
 10
2.02251
 20
1377.24
 11
1.87881
 21
1377.47
  0
LINE
  8
0
 10
1.87881
 20
1377.47
 11
1.76465
 21
1377.71
  0
LINE
  8
0
 10
1.76465
 20
1377.71
 11
1.68178
 21
1377.97
  0
LINE
  8
0
 10
1.68178
 20
1377.97
 11
1.63153
 21
1378.23
  0
LINE
  8
0
 10
1.63153
 20
1378.23
 11
1.6147
 21
1378.5
  0
LINE
  8
0
 10
1.6147
 20
1378.5
 11
1.63153
 21
1378.77
  0
LINE
  8
0
 10
1.63153
 20
1378.77
 11
1.68178
 21
1379.03
  0
LINE
  8
0
 10
1.68178
 20
1379.03
 11
1.76465
 21
1379.29
  0
LINE
  8
0
 10
1.76465
 20
1379.29
 11
1.87881
 21
1379.53
  0
LINE
  8
0
 10
1.87881
 20
1379.53
 11
2.02251
 21
1379.76
  0
LINE
  8
0
 10
2.02251
 20
1379.76
 11
2.19344
 21
1379.96
  0
LINE
  8
0
 10
2.19344
 20
1379.96
 11
2.3889
 21
1380.15
  0
LINE
  8
0
 10
2.3889
 20
1380.15
 11
2.60585
 21
1380.3
  0
LINE
  8
0
 10
2.60585
 20
1380.3
 11
2.84084
 21
1380.43
  0
LINE
  8
0
 10
2.84084
 20
1380.43
 11
3.09015
 21
1380.53
  0
LINE
  8
0
 10
3.09015
 20
1380.53
 11
3.34988
 21
1380.6
  0
LINE
  8
0
 10
3.34988
 20
1380.6
 11
3.61592
 21
1380.63
  0
LINE
  8
0
 10
3.61592
 20
1380.63
 11
3.88406
 21
1380.63
  0
LINE
  8
0
 10
3.88406
 20
1380.63
 11
4.1501
 21
1380.6
  0
LINE
  8
0
 10
4.1501
 20
1380.6
 11
4.40984
 21
1380.53
  0
LINE
  8
0
 10
4.40984
 20
1380.53
 11
4.65915
 21
1380.43
  0
LINE
  8
0
 10
4.65915
 20
1380.43
 11
4.89413
 21
1380.3
  0
LINE
  8
0
 10
4.89413
 20
1380.3
 11
5.11108
 21
1380.15
  0
LINE
  8
0
 10
5.11108
 20
1380.15
 11
5.30655
 21
1379.96
  0
LINE
  8
0
 10
5.30655
 20
1379.96
 11
5.47748
 21
1379.76
  0
LINE
  8
0
 10
5.47748
 20
1379.76
 11
5.62117
 21
1379.53
  0
LINE
  8
0
 10
5.62117
 20
1379.53
 11
5.73534
 21
1379.29
  0
LINE
  8
0
 10
5.73534
 20
1379.29
 11
5.81821
 21
1379.03
  0
LINE
  8
0
 10
5.81821
 20
1379.03
 11
5.86845
 21
1378.77
  0
LINE
  8
0
 10
5.86845
 20
1378.77
 11
5.88528
 21
1378.5
  0
LINE
  8
0
 10
5.88528
 20
1378.5
 11
5.86845
 21
1378.23
  0
LINE
  8
0
 10
5.86845
 20
1378.23
 11
5.81821
 21
1377.97
  0
LINE
  8
0
 10
5.81821
 20
1377.97
 11
5.73534
 21
1377.71
  0
LINE
  8
0
 10
5.73534
 20
1377.71
 11
5.62117
 21
1377.47
  0
LINE
  8
0
 10
5.62117
 20
1377.47
 11
5.47748
 21
1377.24
  0
LINE
  8
0
 10
5.47748
 20
1377.24
 11
5.30655
 21
1377.04
  0
LINE
  8
0
 10
5.30655
 20
1377.04
 11
5.11108
 21
1376.85
  0
LINE
  8
0
 10
5.11108
 20
1376.85
 11
4.89413
 21
1376.7
  0
LINE
  8
0
 10
4.89413
 20
1376.7
 11
4.65915
 21
1376.57
  0
LINE
  8
0
 10
4.65915
 20
1376.57
 11
4.40984
 21
1376.47
  0
LINE
  8
0
 10
4.40984
 20
1376.47
 11
4.1501
 21
1376.4
  0
LINE
  8
0
 10
4.1501
 20
1376.4
 11
3.88406
 21
1376.37
  0
LINE
  8
0
 10
3.88406
 20
1376.37
 11
3.61592
 21
1376.37
  0
LINE
  8
0
 10
-3.88406
 20
1376.37
 11
-4.1501
 21
1376.4
  0
LINE
  8
0
 10
-4.1501
 20
1376.4
 11
-4.40984
 21
1376.47
  0
LINE
  8
0
 10
-4.40984
 20
1376.47
 11
-4.65915
 21
1376.57
  0
LINE
  8
0
 10
-4.65915
 20
1376.57
 11
-4.89413
 21
1376.7
  0
LINE
  8
0
 10
-4.89413
 20
1376.7
 11
-5.11108
 21
1376.85
  0
LINE
  8
0
 10
-5.11108
 20
1376.85
 11
-5.30655
 21
1377.04
  0
LINE
  8
0
 10
-5.30655
 20
1377.04
 11
-5.47748
 21
1377.24
  0
LINE
  8
0
 10
-5.47748
 20
1377.24
 11
-5.62117
 21
1377.47
  0
LINE
  8
0
 10
-5.62117
 20
1377.47
 11
-5.73534
 21
1377.71
  0
LINE
  8
0
 10
-5.73534
 20
1377.71
 11
-5.81821
 21
1377.97
  0
LINE
  8
0
 10
-5.81821
 20
1377.97
 11
-5.86845
 21
1378.23
  0
LINE
  8
0
 10
-5.86845
 20
1378.23
 11
-5.88528
 21
1378.5
  0
LINE
  8
0
 10
-5.88528
 20
1378.5
 11
-5.86845
 21
1378.77
  0
LINE
  8
0
 10
-5.86845
 20
1378.77
 11
-5.81821
 21
1379.03
  0
LINE
  8
0
 10
-5.81821
 20
1379.03
 11
-5.73534
 21
1379.29
  0
LINE
  8
0
 10
-5.73534
 20
1379.29
 11
-5.62117
 21
1379.53
  0
LINE
  8
0
 10
-5.62117
 20
1379.53
 11
-5.47748
 21
1379.76
  0
LINE
  8
0
 10
-5.47748
 20
1379.76
 11
-5.30655
 21
1379.96
  0
LINE
  8
0
 10
-5.30655
 20
1379.96
 11
-5.11108
 21
1380.15
  0
LINE
  8
0
 10
-5.11108
 20
1380.15
 11
-4.89413
 21
1380.3
  0
LINE
  8
0
 10
-4.89413
 20
1380.3
 11
-4.65915
 21
1380.43
  0
LINE
  8
0
 10
-4.65915
 20
1380.43
 11
-4.40984
 21
1380.53
  0
LINE
  8
0
 10
-4.40984
 20
1380.53
 11
-4.1501
 21
1380.6
  0
LINE
  8
0
 10
-4.1501
 20
1380.6
 11
-3.88406
 21
1380.63
  0
LINE
  8
0
 10
-3.88406
 20
1380.63
 11
-3.61592
 21
1380.63
  0
LINE
  8
0
 10
-3.61592
 20
1380.63
 11
-3.34988
 21
1380.6
  0
LINE
  8
0
 10
-3.34988
 20
1380.6
 11
-3.09015
 21
1380.53
  0
LINE
  8
0
 10
-3.09015
 20
1380.53
 11
-2.84084
 21
1380.43
  0
LINE
  8
0
 10
-2.84084
 20
1380.43
 11
-2.60585
 21
1380.3
  0
LINE
  8
0
 10
-2.60585
 20
1380.3
 11
-2.3889
 21
1380.15
  0
LINE
  8
0
 10
-2.3889
 20
1380.15
 11
-2.19344
 21
1379.96
  0
LINE
  8
0
 10
-2.19344
 20
1379.96
 11
-2.02251
 21
1379.76
  0
LINE
  8
0
 10
-2.02251
 20
1379.76
 11
-1.87881
 21
1379.53
  0
LINE
  8
0
 10
-1.87881
 20
1379.53
 11
-1.76465
 21
1379.29
  0
LINE
  8
0
 10
-1.76465
 20
1379.29
 11
-1.68178
 21
1379.03
  0
LINE
  8
0
 10
-1.68178
 20
1379.03
 11
-1.63153
 21
1378.77
  0
LINE
  8
0
 10
-1.63153
 20
1378.77
 11
-1.6147
 21
1378.5
  0
LINE
  8
0
 10
-1.6147
 20
1378.5
 11
-1.63153
 21
1378.23
  0
LINE
  8
0
 10
-1.63153
 20
1378.23
 11
-1.68178
 21
1377.97
  0
LINE
  8
0
 10
-1.68178
 20
1377.97
 11
-1.76465
 21
1377.71
  0
LINE
  8
0
 10
-1.76465
 20
1377.71
 11
-1.87881
 21
1377.47
  0
LINE
  8
0
 10
-1.87881
 20
1377.47
 11
-2.02251
 21
1377.24
  0
LINE
  8
0
 10
-2.02251
 20
1377.24
 11
-2.19344
 21
1377.04
  0
LINE
  8
0
 10
-2.19344
 20
1377.04
 11
-2.3889
 21
1376.85
  0
LINE
  8
0
 10
-2.3889
 20
1376.85
 11
-2.60585
 21
1376.7
  0
LINE
  8
0
 10
-2.60585
 20
1376.7
 11
-2.84084
 21
1376.57
  0
LINE
  8
0
 10
-2.84084
 20
1376.57
 11
-3.09015
 21
1376.47
  0
LINE
  8
0
 10
-3.09015
 20
1376.47
 11
-3.34988
 21
1376.4
  0
LINE
  8
0
 10
-3.34988
 20
1376.4
 11
-3.61592
 21
1376.37
  0
LINE
  8
0
 10
-3.61592
 20
1376.37
 11
-3.88406
 21
1376.37
  0
LINE
  8
0
 10
3.61592
 20
1091.37
 11
3.34988
 21
1091.4
  0
LINE
  8
0
 10
3.34988
 20
1091.4
 11
3.09015
 21
1091.47
  0
LINE
  8
0
 10
3.09015
 20
1091.47
 11
2.84084
 21
1091.57
  0
LINE
  8
0
 10
2.84084
 20
1091.57
 11
2.60585
 21
1091.7
  0
LINE
  8
0
 10
2.60585
 20
1091.7
 11
2.3889
 21
1091.85
  0
LINE
  8
0
 10
2.3889
 20
1091.85
 11
2.19344
 21
1092.04
  0
LINE
  8
0
 10
2.19344
 20
1092.04
 11
2.02251
 21
1092.24
  0
LINE
  8
0
 10
2.02251
 20
1092.24
 11
1.87881
 21
1092.47
  0
LINE
  8
0
 10
1.87881
 20
1092.47
 11
1.76465
 21
1092.71
  0
LINE
  8
0
 10
1.76465
 20
1092.71
 11
1.68178
 21
1092.97
  0
LINE
  8
0
 10
1.68178
 20
1092.97
 11
1.63153
 21
1093.23
  0
LINE
  8
0
 10
1.63153
 20
1093.23
 11
1.6147
 21
1093.5
  0
LINE
  8
0
 10
1.6147
 20
1093.5
 11
1.63153
 21
1093.77
  0
LINE
  8
0
 10
1.63153
 20
1093.77
 11
1.68178
 21
1094.03
  0
LINE
  8
0
 10
1.68178
 20
1094.03
 11
1.76465
 21
1094.29
  0
LINE
  8
0
 10
1.76465
 20
1094.29
 11
1.87881
 21
1094.53
  0
LINE
  8
0
 10
1.87881
 20
1094.53
 11
2.02251
 21
1094.76
  0
LINE
  8
0
 10
2.02251
 20
1094.76
 11
2.19344
 21
1094.96
  0
LINE
  8
0
 10
2.19344
 20
1094.96
 11
2.3889
 21
1095.15
  0
LINE
  8
0
 10
2.3889
 20
1095.15
 11
2.60585
 21
1095.3
  0
LINE
  8
0
 10
2.60585
 20
1095.3
 11
2.84084
 21
1095.43
  0
LINE
  8
0
 10
2.84084
 20
1095.43
 11
3.09015
 21
1095.53
  0
LINE
  8
0
 10
3.09015
 20
1095.53
 11
3.34988
 21
1095.6
  0
LINE
  8
0
 10
3.34988
 20
1095.6
 11
3.61592
 21
1095.63
  0
LINE
  8
0
 10
3.61592
 20
1095.63
 11
3.88406
 21
1095.63
  0
LINE
  8
0
 10
3.88406
 20
1095.63
 11
4.1501
 21
1095.6
  0
LINE
  8
0
 10
4.1501
 20
1095.6
 11
4.40984
 21
1095.53
  0
LINE
  8
0
 10
4.40984
 20
1095.53
 11
4.65915
 21
1095.43
  0
LINE
  8
0
 10
4.65915
 20
1095.43
 11
4.89413
 21
1095.3
  0
LINE
  8
0
 10
4.89413
 20
1095.3
 11
5.11108
 21
1095.15
  0
LINE
  8
0
 10
5.11108
 20
1095.15
 11
5.30655
 21
1094.96
  0
LINE
  8
0
 10
5.30655
 20
1094.96
 11
5.47748
 21
1094.76
  0
LINE
  8
0
 10
5.47748
 20
1094.76
 11
5.62117
 21
1094.53
  0
LINE
  8
0
 10
5.62117
 20
1094.53
 11
5.73534
 21
1094.29
  0
LINE
  8
0
 10
5.73534
 20
1094.29
 11
5.81821
 21
1094.03
  0
LINE
  8
0
 10
5.81821
 20
1094.03
 11
5.86845
 21
1093.77
  0
LINE
  8
0
 10
5.86845
 20
1093.77
 11
5.88528
 21
1093.5
  0
LINE
  8
0
 10
5.88528
 20
1093.5
 11
5.86845
 21
1093.23
  0
LINE
  8
0
 10
5.86845
 20
1093.23
 11
5.81821
 21
1092.97
  0
LINE
  8
0
 10
5.81821
 20
1092.97
 11
5.73534
 21
1092.71
  0
LINE
  8
0
 10
5.73534
 20
1092.71
 11
5.62117
 21
1092.47
  0
LINE
  8
0
 10
5.62117
 20
1092.47
 11
5.47748
 21
1092.24
  0
LINE
  8
0
 10
5.47748
 20
1092.24
 11
5.30655
 21
1092.04
  0
LINE
  8
0
 10
5.30655
 20
1092.04
 11
5.11108
 21
1091.85
  0
LINE
  8
0
 10
5.11108
 20
1091.85
 11
4.89413
 21
1091.7
  0
LINE
  8
0
 10
4.89413
 20
1091.7
 11
4.65915
 21
1091.57
  0
LINE
  8
0
 10
4.65915
 20
1091.57
 11
4.40984
 21
1091.47
  0
LINE
  8
0
 10
4.40984
 20
1091.47
 11
4.1501
 21
1091.4
  0
LINE
  8
0
 10
4.1501
 20
1091.4
 11
3.88406
 21
1091.37
  0
LINE
  8
0
 10
3.88406
 20
1091.37
 11
3.61592
 21
1091.37
  0
LINE
  8
0
 10
-3.88406
 20
1091.37
 11
-4.1501
 21
1091.4
  0
LINE
  8
0
 10
-4.1501
 20
1091.4
 11
-4.40984
 21
1091.47
  0
LINE
  8
0
 10
-4.40984
 20
1091.47
 11
-4.65915
 21
1091.57
  0
LINE
  8
0
 10
-4.65915
 20
1091.57
 11
-4.89413
 21
1091.7
  0
LINE
  8
0
 10
-4.89413
 20
1091.7
 11
-5.11108
 21
1091.85
  0
LINE
  8
0
 10
-5.11108
 20
1091.85
 11
-5.30655
 21
1092.04
  0
LINE
  8
0
 10
-5.30655
 20
1092.04
 11
-5.47748
 21
1092.24
  0
LINE
  8
0
 10
-5.47748
 20
1092.24
 11
-5.62117
 21
1092.47
  0
LINE
  8
0
 10
-5.62117
 20
1092.47
 11
-5.73534
 21
1092.71
  0
LINE
  8
0
 10
-5.73534
 20
1092.71
 11
-5.81821
 21
1092.97
  0
LINE
  8
0
 10
-5.81821
 20
1092.97
 11
-5.86845
 21
1093.23
  0
LINE
  8
0
 10
-5.86845
 20
1093.23
 11
-5.88528
 21
1093.5
  0
LINE
  8
0
 10
-5.88528
 20
1093.5
 11
-5.86845
 21
1093.77
  0
LINE
  8
0
 10
-5.86845
 20
1093.77
 11
-5.81821
 21
1094.03
  0
LINE
  8
0
 10
-5.81821
 20
1094.03
 11
-5.73534
 21
1094.29
  0
LINE
  8
0
 10
-5.73534
 20
1094.29
 11
-5.62117
 21
1094.53
  0
LINE
  8
0
 10
-5.62117
 20
1094.53
 11
-5.47748
 21
1094.76
  0
LINE
  8
0
 10
-5.47748
 20
1094.76
 11
-5.30655
 21
1094.96
  0
LINE
  8
0
 10
-5.30655
 20
1094.96
 11
-5.11108
 21
1095.15
  0
LINE
  8
0
 10
-5.11108
 20
1095.15
 11
-4.89413
 21
1095.3
  0
LINE
  8
0
 10
-4.89413
 20
1095.3
 11
-4.65915
 21
1095.43
  0
LINE
  8
0
 10
-4.65915
 20
1095.43
 11
-4.40984
 21
1095.53
  0
LINE
  8
0
 10
-4.40984
 20
1095.53
 11
-4.1501
 21
1095.6
  0
LINE
  8
0
 10
-4.1501
 20
1095.6
 11
-3.88406
 21
1095.63
  0
LINE
  8
0
 10
-3.88406
 20
1095.63
 11
-3.61592
 21
1095.63
  0
LINE
  8
0
 10
-3.61592
 20
1095.63
 11
-3.34988
 21
1095.6
  0
LINE
  8
0
 10
-3.34988
 20
1095.6
 11
-3.09015
 21
1095.53
  0
LINE
  8
0
 10
-3.09015
 20
1095.53
 11
-2.84084
 21
1095.43
  0
LINE
  8
0
 10
-2.84084
 20
1095.43
 11
-2.60585
 21
1095.3
  0
LINE
  8
0
 10
-2.60585
 20
1095.3
 11
-2.3889
 21
1095.15
  0
LINE
  8
0
 10
-2.3889
 20
1095.15
 11
-2.19344
 21
1094.96
  0
LINE
  8
0
 10
-2.19344
 20
1094.96
 11
-2.02251
 21
1094.76
  0
LINE
  8
0
 10
-2.02251
 20
1094.76
 11
-1.87881
 21
1094.53
  0
LINE
  8
0
 10
-1.87881
 20
1094.53
 11
-1.76465
 21
1094.29
  0
LINE
  8
0
 10
-1.76465
 20
1094.29
 11
-1.68178
 21
1094.03
  0
LINE
  8
0
 10
-1.68178
 20
1094.03
 11
-1.63153
 21
1093.77
  0
LINE
  8
0
 10
-1.63153
 20
1093.77
 11
-1.6147
 21
1093.5
  0
LINE
  8
0
 10
-1.6147
 20
1093.5
 11
-1.63153
 21
1093.23
  0
LINE
  8
0
 10
-1.63153
 20
1093.23
 11
-1.68178
 21
1092.97
  0
LINE
  8
0
 10
-1.68178
 20
1092.97
 11
-1.76465
 21
1092.71
  0
LINE
  8
0
 10
-1.76465
 20
1092.71
 11
-1.87881
 21
1092.47
  0
LINE
  8
0
 10
-1.87881
 20
1092.47
 11
-2.02251
 21
1092.24
  0
LINE
  8
0
 10
-2.02251
 20
1092.24
 11
-2.19344
 21
1092.04
  0
LINE
  8
0
 10
-2.19344
 20
1092.04
 11
-2.3889
 21
1091.85
  0
LINE
  8
0
 10
-2.3889
 20
1091.85
 11
-2.60585
 21
1091.7
  0
LINE
  8
0
 10
-2.60585
 20
1091.7
 11
-2.84084
 21
1091.57
  0
LINE
  8
0
 10
-2.84084
 20
1091.57
 11
-3.09015
 21
1091.47
  0
LINE
  8
0
 10
-3.09015
 20
1091.47
 11
-3.34988
 21
1091.4
  0
LINE
  8
0
 10
-3.34988
 20
1091.4
 11
-3.61592
 21
1091.37
  0
LINE
  8
0
 10
-3.61592
 20
1091.37
 11
-3.88406
 21
1091.37
  0
ENDSEC
  0
SECTION
  2
OBJECTS
  0
DICTIONARY
  0
ENDSEC
  0
EOF
