<?xml version="1.0" standalone="no"?>
<!DOCTYPE svg PUBLIC "-//W3C//DTD SVG 1.1//EN" "http://www.w3.org/Graphics/SVG/1.1/DTD/svg11.dtd">
<svg width="180mm" height="1926mm" viewBox="-90 -3801 180 1926" xmlns="http://www.w3.org/2000/svg" version="1.1">
<title>OpenSCAD Model</title>
<path d="
M 85.9369,-3681.09 L 86.5451,-3681.24 L 87.1289,-3681.48 L 87.6791,-3681.78 L 88.1871,-3682.15 L 88.6448,-3682.58
 L 89.0451,-3683.06 L 89.3815,-3683.59 L 89.6489,-3684.16 L 89.8429,-3684.76 L 89.9606,-3685.37 L 90,-3686
 L 90,-3796 L 89.9606,-3796.63 L 89.8429,-3797.24 L 89.6489,-3797.84 L 89.3815,-3798.41 L 89.0451,-3798.94
 L 88.6448,-3799.42 L 88.1871,-3799.85 L 87.6791,-3800.22 L 87.1289,-3800.52 L 86.5451,-3800.76 L 85.9369,-3800.91
 L 85.3139,-3800.99 L -85.3139,-3800.99 L -85.9369,-3800.91 L -86.5451,-3800.76 L -87.1289,-3800.52 L -87.6791,-3800.22
 L -88.1871,-3799.85 L -88.6448,-3799.42 L -89.0451,-3798.94 L -89.3815,-3798.41 L -89.6489,-3797.84 L -89.8429,-3797.24
 L -89.9606,-3796.63 L -90,-3796 L -90,-3686 L -89.9606,-3685.37 L -89.8429,-3684.76 L -89.6489,-3684.16
 L -89.3815,-3683.59 L -89.0451,-3683.06 L -88.6448,-3682.58 L -88.1871,-3682.15 L -87.6791,-3681.78 L -87.1289,-3681.48
 L -86.5451,-3681.24 L -85.9369,-3681.09 L -85.3139,-3681.01 L 85.3139,-3681.01 z
M -85.0482,-3681.51 L -85.6401,-3681.58 L -86.2178,-3681.73 L -86.7724,-3681.95 L -87.2952,-3682.24 L -87.7778,-3682.59
 L -88.2126,-3683 L -88.5928,-3683.46 L -88.9125,-3683.96 L -89.1664,-3684.5 L -89.3508,-3685.07 L -89.4625,-3685.65
 L -89.5,-3686.25 L -89.5,-3795.75 L -89.4625,-3796.35 L -89.3508,-3796.93 L -89.1664,-3797.5 L -88.9125,-3798.04
 L -88.5928,-3798.54 L -88.2126,-3799 L -87.7778,-3799.41 L -87.2952,-3799.76 L -86.7724,-3800.05 L -86.2178,-3800.27
 L -85.6401,-3800.42 L -85.0482,-3800.49 L 85.0482,-3800.49 L 85.6401,-3800.42 L 86.2178,-3800.27 L 86.7724,-3800.05
 L 87.2952,-3799.76 L 87.7778,-3799.41 L 88.2126,-3799 L 88.5928,-3798.54 L 88.9125,-3798.04 L 89.1664,-3797.5
 L 89.3508,-3796.93 L 89.4625,-3796.35 L 89.5,-3795.75 L 89.5,-3686.25 L 89.4625,-3685.65 L 89.3508,-3685.07
 L 89.1664,-3684.5 L 88.9125,-3683.96 L 88.5928,-3683.46 L 88.2126,-3683 L 87.7778,-3682.59 L 87.2952,-3682.24
 L 86.7724,-3681.95 L 86.2178,-3681.73 L 85.6401,-3681.58 L 85.0482,-3681.51 z
M 85.9369,-3552.09 L 86.5451,-3552.24 L 87.1289,-3552.48 L 87.6791,-3552.78 L 88.1871,-3553.15 L 88.6448,-3553.58
 L 89.0451,-3554.06 L 89.3815,-3554.59 L 89.6489,-3555.16 L 89.8429,-3555.76 L 89.9606,-3556.37 L 90,-3557
 L 90,-3667 L 89.9606,-3667.63 L 89.8429,-3668.24 L 89.6489,-3668.84 L 89.3815,-3669.41 L 89.0451,-3669.94
 L 88.6448,-3670.42 L 88.1871,-3670.85 L 87.6791,-3671.22 L 87.1289,-3671.52 L 86.5451,-3671.76 L 85.9369,-3671.91
 L 85.3139,-3671.99 L -85.3139,-3671.99 L -85.9369,-3671.91 L -86.5451,-3671.76 L -87.1289,-3671.52 L -87.6791,-3671.22
 L -88.1871,-3670.85 L -88.6448,-3670.42 L -89.0451,-3669.94 L -89.3815,-3669.41 L -89.6489,-3668.84 L -89.8429,-3668.24
 L -89.9606,-3667.63 L -90,-3667 L -90,-3557 L -89.9606,-3556.37 L -89.8429,-3555.76 L -89.6489,-3555.16
 L -89.3815,-3554.59 L -89.0451,-3554.06 L -88.6448,-3553.58 L -88.1871,-3553.15 L -87.6791,-3552.78 L -87.1289,-3552.48
 L -86.5451,-3552.24 L -85.9369,-3552.09 L -85.3139,-3552.01 L 85.3139,-3552.01 z
M -85.0482,-3552.51 L -85.6401,-3552.58 L -86.2178,-3552.73 L -86.7724,-3552.95 L -87.2952,-3553.24 L -87.7778,-3553.59
 L -88.2126,-3554 L -88.5928,-3554.46 L -88.9125,-3554.96 L -89.1664,-3555.5 L -89.3508,-3556.07 L -89.4625,-3556.65
 L -89.5,-3557.25 L -89.5,-3666.75 L -89.4625,-3667.35 L -89.3508,-3667.93 L -89.1664,-3668.5 L -88.9125,-3669.04
 L -88.5928,-3669.54 L -88.2126,-3670 L -87.7778,-3670.41 L -87.2952,-3670.76 L -86.7724,-3671.05 L -86.2178,-3671.27
 L -85.6401,-3671.42 L -85.0482,-3671.49 L 85.0482,-3671.49 L 85.6401,-3671.42 L 86.2178,-3671.27 L 86.7724,-3671.05
 L 87.2952,-3670.76 L 87.7778,-3670.41 L 88.2126,-3670 L 88.5928,-3669.54 L 88.9125,-3669.04 L 89.1664,-3668.5
 L 89.3508,-3667.93 L 89.4625,-3667.35 L 89.5,-3666.75 L 89.5,-3557.25 L 89.4625,-3556.65 L 89.3508,-3556.07
 L 89.1664,-3555.5 L 88.9125,-3554.96 L 88.5928,-3554.46 L 88.2126,-3554 L 87.7778,-3553.59 L 87.2952,-3553.24
 L 86.7724,-3552.95 L 86.2178,-3552.73 L 85.6401,-3552.58 L 85.0482,-3552.51 z
M 85.9369,-3423.09 L 86.5451,-3423.24 L 87.1289,-3423.48 L 87.6791,-3423.78 L 88.1871,-3424.15 L 88.6448,-3424.58
 L 89.0451,-3425.06 L 89.3815,-3425.59 L 89.6489,-3426.16 L 89.8429,-3426.76 L 89.9606,-3427.37 L 90,-3428
 L 90,-3538 L 89.9606,-3538.63 L 89.8429,-3539.24 L 89.6489,-3539.84 L 89.3815,-3540.41 L 89.0451,-3540.94
 L 88.6448,-3541.42 L 88.1871,-3541.85 L 87.6791,-3542.22 L 87.1289,-3542.52 L 86.5451,-3542.76 L 85.9369,-3542.91
 L 85.3139,-3542.99 L -85.3139,-3542.99 L -85.9369,-3542.91 L -86.5451,-3542.76 L -87.1289,-3542.52 L -87.6791,-3542.22
 L -88.1871,-3541.85 L -88.6448,-3541.42 L -89.0451,-3540.94 L -89.3815,-3540.41 L -89.6489,-3539.84 L -89.8429,-3539.24
 L -89.9606,-3538.63 L -90,-3538 L -90,-3428 L -89.9606,-3427.37 L -89.8429,-3426.76 L -89.6489,-3426.16
 L -89.3815,-3425.59 L -89.0451,-3425.06 L -88.6448,-3424.58 L -88.1871,-3424.15 L -87.6791,-3423.78 L -87.1289,-3423.48
 L -86.5451,-3423.24 L -85.9369,-3423.09 L -85.3139,-3423.01 L 85.3139,-3423.01 z
M -85.0482,-3423.51 L -85.6401,-3423.58 L -86.2178,-3423.73 L -86.7724,-3423.95 L -87.2952,-3424.24 L -87.7778,-3424.59
 L -88.2126,-3425 L -88.5928,-3425.46 L -88.9125,-3425.96 L -89.1664,-3426.5 L -89.3508,-3427.07 L -89.4625,-3427.65
 L -89.5,-3428.25 L -89.5,-3537.75 L -89.4625,-3538.35 L -89.3508,-3538.93 L -89.1664,-3539.5 L -88.9125,-3540.04
 L -88.5928,-3540.54 L -88.2126,-3541 L -87.7778,-3541.41 L -87.2952,-3541.76 L -86.7724,-3542.05 L -86.2178,-3542.27
 L -85.6401,-3542.42 L -85.0482,-3542.49 L 85.0482,-3542.49 L 85.6401,-3542.42 L 86.2178,-3542.27 L 86.7724,-3542.05
 L 87.2952,-3541.76 L 87.7778,-3541.41 L 88.2126,-3541 L 88.5928,-3540.54 L 88.9125,-3540.04 L 89.1664,-3539.5
 L 89.3508,-3538.93 L 89.4625,-3538.35 L 89.5,-3537.75 L 89.5,-3428.25 L 89.4625,-3427.65 L 89.3508,-3427.07
 L 89.1664,-3426.5 L 88.9125,-3425.96 L 88.5928,-3425.46 L 88.2126,-3425 L 87.7778,-3424.59 L 87.2952,-3424.24
 L 86.7724,-3423.95 L 86.2178,-3423.73 L 85.6401,-3423.58 L 85.0482,-3423.51 z
M 85.9369,-3294.09 L 86.5451,-3294.24 L 87.1289,-3294.48 L 87.6791,-3294.78 L 88.1871,-3295.15 L 88.6448,-3295.58
 L 89.0451,-3296.06 L 89.3815,-3296.59 L 89.6489,-3297.16 L 89.8429,-3297.76 L 89.9606,-3298.37 L 90,-3299
 L 90,-3409 L 89.9606,-3409.63 L 89.8429,-3410.24 L 89.6489,-3410.84 L 89.3815,-3411.41 L 89.0451,-3411.94
 L 88.6448,-3412.42 L 88.1871,-3412.85 L 87.6791,-3413.22 L 87.1289,-3413.52 L 86.5451,-3413.76 L 85.9369,-3413.91
 L 85.3139,-3413.99 L -85.3139,-3413.99 L -85.9369,-3413.91 L -86.5451,-3413.76 L -87.1289,-3413.52 L -87.6791,-3413.22
 L -88.1871,-3412.85 L -88.6448,-3412.42 L -89.0451,-3411.94 L -89.3815,-3411.41 L -89.6489,-3410.84 L -89.8429,-3410.24
 L -89.9606,-3409.63 L -90,-3409 L -90,-3299 L -89.9606,-3298.37 L -89.8429,-3297.76 L -89.6489,-3297.16
 L -89.3815,-3296.59 L -89.0451,-3296.06 L -88.6448,-3295.58 L -88.1871,-3295.15 L -87.6791,-3294.78 L -87.1289,-3294.48
 L -86.5451,-3294.24 L -85.9369,-3294.09 L -85.3139,-3294.01 L 85.3139,-3294.01 z
M -85.0482,-3294.51 L -85.6401,-3294.58 L -86.2178,-3294.73 L -86.7724,-3294.95 L -87.2952,-3295.24 L -87.7778,-3295.59
 L -88.2126,-3296 L -88.5928,-3296.46 L -88.9125,-3296.96 L -89.1664,-3297.5 L -89.3508,-3298.07 L -89.4625,-3298.65
 L -89.5,-3299.25 L -89.5,-3408.75 L -89.4625,-3409.35 L -89.3508,-3409.93 L -89.1664,-3410.5 L -88.9125,-3411.04
 L -88.5928,-3411.54 L -88.2126,-3412 L -87.7778,-3412.41 L -87.2952,-3412.76 L -86.7724,-3413.05 L -86.2178,-3413.27
 L -85.6401,-3413.42 L -85.0482,-3413.49 L 85.0482,-3413.49 L 85.6401,-3413.42 L 86.2178,-3413.27 L 86.7724,-3413.05
 L 87.2952,-3412.76 L 87.7778,-3412.41 L 88.2126,-3412 L 88.5928,-3411.54 L 88.9125,-3411.04 L 89.1664,-3410.5
 L 89.3508,-3409.93 L 89.4625,-3409.35 L 89.5,-3408.75 L 89.5,-3299.25 L 89.4625,-3298.65 L 89.3508,-3298.07
 L 89.1664,-3297.5 L 88.9125,-3296.96 L 88.5928,-3296.46 L 88.2126,-3296 L 87.7778,-3295.59 L 87.2952,-3295.24
 L 86.7724,-3294.95 L 86.2178,-3294.73 L 85.6401,-3294.58 L 85.0482,-3294.51 z
M 85.9369,-3165.09 L 86.5451,-3165.24 L 87.1289,-3165.48 L 87.6791,-3165.78 L 88.1871,-3166.15 L 88.6448,-3166.58
 L 89.0451,-3167.06 L 89.3815,-3167.59 L 89.6489,-3168.16 L 89.8429,-3168.76 L 89.9606,-3169.37 L 90,-3170
 L 90,-3280 L 89.9606,-3280.63 L 89.8429,-3281.24 L 89.6489,-3281.84 L 89.3815,-3282.41 L 89.0451,-3282.94
 L 88.6448,-3283.42 L 88.1871,-3283.85 L 87.6791,-3284.22 L 87.1289,-3284.52 L 86.5451,-3284.76 L 85.9369,-3284.91
 L 85.3139,-3284.99 L -85.3139,-3284.99 L -85.9369,-3284.91 L -86.5451,-3284.76 L -87.1289,-3284.52 L -87.6791,-3284.22
 L -88.1871,-3283.85 L -88.6448,-3283.42 L -89.0451,-3282.94 L -89.3815,-3282.41 L -89.6489,-3281.84 L -89.8429,-3281.24
 L -89.9606,-3280.63 L -90,-3280 L -90,-3170 L -89.9606,-3169.37 L -89.8429,-3168.76 L -89.6489,-3168.16
 L -89.3815,-3167.59 L -89.0451,-3167.06 L -88.6448,-3166.58 L -88.1871,-3166.15 L -87.6791,-3165.78 L -87.1289,-3165.48
 L -86.5451,-3165.24 L -85.9369,-3165.09 L -85.3139,-3165.01 L 85.3139,-3165.01 z
M -85.0482,-3165.51 L -85.6401,-3165.58 L -86.2178,-3165.73 L -86.7724,-3165.95 L -87.2952,-3166.24 L -87.7778,-3166.59
 L -88.2126,-3167 L -88.5928,-3167.46 L -88.9125,-3167.96 L -89.1664,-3168.5 L -89.3508,-3169.07 L -89.4625,-3169.65
 L -89.5,-3170.25 L -89.5,-3279.75 L -89.4625,-3280.35 L -89.3508,-3280.93 L -89.1664,-3281.5 L -88.9125,-3282.04
 L -88.5928,-3282.54 L -88.2126,-3283 L -87.7778,-3283.41 L -87.2952,-3283.76 L -86.7724,-3284.05 L -86.2178,-3284.27
 L -85.6401,-3284.42 L -85.0482,-3284.49 L 85.0482,-3284.49 L 85.6401,-3284.42 L 86.2178,-3284.27 L 86.7724,-3284.05
 L 87.2952,-3283.76 L 87.7778,-3283.41 L 88.2126,-3283 L 88.5928,-3282.54 L 88.9125,-3282.04 L 89.1664,-3281.5
 L 89.3508,-3280.93 L 89.4625,-3280.35 L 89.5,-3279.75 L 89.5,-3170.25 L 89.4625,-3169.65 L 89.3508,-3169.07
 L 89.1664,-3168.5 L 88.9125,-3167.96 L 88.5928,-3167.46 L 88.2126,-3167 L 87.7778,-3166.59 L 87.2952,-3166.24
 L 86.7724,-3165.95 L 86.2178,-3165.73 L 85.6401,-3165.58 L 85.0482,-3165.51 z
M 85.9369,-3036.09 L 86.5451,-3036.24 L 87.1289,-3036.48 L 87.6791,-3036.78 L 88.1871,-3037.15 L 88.6448,-3037.58
 L 89.0451,-3038.06 L 89.3815,-3038.59 L 89.6489,-3039.16 L 89.8429,-3039.76 L 89.9606,-3040.37 L 90,-3041
 L 90,-3151 L 89.9606,-3151.63 L 89.8429,-3152.24 L 89.6489,-3152.84 L 89.3815,-3153.41 L 89.0451,-3153.94
 L 88.6448,-3154.42 L 88.1871,-3154.85 L 87.6791,-3155.22 L 87.1289,-3155.52 L 86.5451,-3155.76 L 85.9369,-3155.91
 L 85.3139,-3155.99 L -85.3139,-3155.99 L -85.9369,-3155.91 L -86.5451,-3155.76 L -87.1289,-3155.52 L -87.6791,-3155.22
 L -88.1871,-3154.85 L -88.6448,-3154.42 L -89.0451,-3153.94 L -89.3815,-3153.41 L -89.6489,-3152.84 L -89.8429,-3152.24
 L -89.9606,-3151.63 L -90,-3151 L -90,-3041 L -89.9606,-3040.37 L -89.8429,-3039.76 L -89.6489,-3039.16
 L -89.3815,-3038.59 L -89.0451,-3038.06 L -88.6448,-3037.58 L -88.1871,-3037.15 L -87.6791,-3036.78 L -87.1289,-3036.48
 L -86.5451,-3036.24 L -85.9369,-3036.09 L -85.3139,-3036.01 L 85.3139,-3036.01 z
M -85.0482,-3036.51 L -85.6401,-3036.58 L -86.2178,-3036.73 L -86.7724,-3036.95 L -87.2952,-3037.24 L -87.7778,-3037.59
 L -88.2126,-3038 L -88.5928,-3038.46 L -88.9125,-3038.96 L -89.1664,-3039.5 L -89.3508,-3040.07 L -89.4625,-3040.65
 L -89.5,-3041.25 L -89.5,-3150.75 L -89.4625,-3151.35 L -89.3508,-3151.93 L -89.1664,-3152.5 L -88.9125,-3153.04
 L -88.5928,-3153.54 L -88.2126,-3154 L -87.7778,-3154.41 L -87.2952,-3154.76 L -86.7724,-3155.05 L -86.2178,-3155.27
 L -85.6401,-3155.42 L -85.0482,-3155.49 L 85.0482,-3155.49 L 85.6401,-3155.42 L 86.2178,-3155.27 L 86.7724,-3155.05
 L 87.2952,-3154.76 L 87.7778,-3154.41 L 88.2126,-3154 L 88.5928,-3153.54 L 88.9125,-3153.04 L 89.1664,-3152.5
 L 89.3508,-3151.93 L 89.4625,-3151.35 L 89.5,-3150.75 L 89.5,-3041.25 L 89.4625,-3040.65 L 89.3508,-3040.07
 L 89.1664,-3039.5 L 88.9125,-3038.96 L 88.5928,-3038.46 L 88.2126,-3038 L 87.7778,-3037.59 L 87.2952,-3037.24
 L 86.7724,-3036.95 L 86.2178,-3036.73 L 85.6401,-3036.58 L 85.0482,-3036.51 z
M 85.9369,-2907.09 L 86.5451,-2907.24 L 87.1289,-2907.48 L 87.6791,-2907.78 L 88.1871,-2908.15 L 88.6448,-2908.58
 L 89.0451,-2909.06 L 89.3815,-2909.59 L 89.6489,-2910.16 L 89.8429,-2910.76 L 89.9606,-2911.37 L 90,-2912
 L 90,-3022 L 89.9606,-3022.63 L 89.8429,-3023.24 L 89.6489,-3023.84 L 89.3815,-3024.41 L 89.0451,-3024.94
 L 88.6448,-3025.42 L 88.1871,-3025.85 L 87.6791,-3026.22 L 87.1289,-3026.52 L 86.5451,-3026.76 L 85.9369,-3026.91
 L 85.3139,-3026.99 L -85.3139,-3026.99 L -85.9369,-3026.91 L -86.5451,-3026.76 L -87.1289,-3026.52 L -87.6791,-3026.22
 L -88.1871,-3025.85 L -88.6448,-3025.42 L -89.0451,-3024.94 L -89.3815,-3024.41 L -89.6489,-3023.84 L -89.8429,-3023.24
 L -89.9606,-3022.63 L -90,-3022 L -90,-2912 L -89.9606,-2911.37 L -89.8429,-2910.76 L -89.6489,-2910.16
 L -89.3815,-2909.59 L -89.0451,-2909.06 L -88.6448,-2908.58 L -88.1871,-2908.15 L -87.6791,-2907.78 L -87.1289,-2907.48
 L -86.5451,-2907.24 L -85.9369,-2907.09 L -85.3139,-2907.01 L 85.3139,-2907.01 z
M -85.0482,-2907.51 L -85.6401,-2907.58 L -86.2178,-2907.73 L -86.7724,-2907.95 L -87.2952,-2908.24 L -87.7778,-2908.59
 L -88.2126,-2909 L -88.5928,-2909.46 L -88.9125,-2909.96 L -89.1664,-2910.5 L -89.3508,-2911.07 L -89.4625,-2911.65
 L -89.5,-2912.25 L -89.5,-3021.75 L -89.4625,-3022.35 L -89.3508,-3022.93 L -89.1664,-3023.5 L -88.9125,-3024.04
 L -88.5928,-3024.54 L -88.2126,-3025 L -87.7778,-3025.41 L -87.2952,-3025.76 L -86.7724,-3026.05 L -86.2178,-3026.27
 L -85.6401,-3026.42 L -85.0482,-3026.49 L 85.0482,-3026.49 L 85.6401,-3026.42 L 86.2178,-3026.27 L 86.7724,-3026.05
 L 87.2952,-3025.76 L 87.7778,-3025.41 L 88.2126,-3025 L 88.5928,-3024.54 L 88.9125,-3024.04 L 89.1664,-3023.5
 L 89.3508,-3022.93 L 89.4625,-3022.35 L 89.5,-3021.75 L 89.5,-2912.25 L 89.4625,-2911.65 L 89.3508,-2911.07
 L 89.1664,-2910.5 L 88.9125,-2909.96 L 88.5928,-2909.46 L 88.2126,-2909 L 87.7778,-2908.59 L 87.2952,-2908.24
 L 86.7724,-2907.95 L 86.2178,-2907.73 L 85.6401,-2907.58 L 85.0482,-2907.51 z
M 85.9369,-2778.09 L 86.5451,-2778.24 L 87.1289,-2778.48 L 87.6791,-2778.78 L 88.1871,-2779.15 L 88.6448,-2779.58
 L 89.0451,-2780.06 L 89.3815,-2780.59 L 89.6489,-2781.16 L 89.8429,-2781.76 L 89.9606,-2782.37 L 90,-2783
 L 90,-2893 L 89.9606,-2893.63 L 89.8429,-2894.24 L 89.6489,-2894.84 L 89.3815,-2895.41 L 89.0451,-2895.94
 L 88.6448,-2896.42 L 88.1871,-2896.85 L 87.6791,-2897.22 L 87.1289,-2897.52 L 86.5451,-2897.76 L 85.9369,-2897.91
 L 85.3139,-2897.99 L -85.3139,-2897.99 L -85.9369,-2897.91 L -86.5451,-2897.76 L -87.1289,-2897.52 L -87.6791,-2897.22
 L -88.1871,-2896.85 L -88.6448,-2896.42 L -89.0451,-2895.94 L -89.3815,-2895.41 L -89.6489,-2894.84 L -89.8429,-2894.24
 L -89.9606,-2893.63 L -90,-2893 L -90,-2783 L -89.9606,-2782.37 L -89.8429,-2781.76 L -89.6489,-2781.16
 L -89.3815,-2780.59 L -89.0451,-2780.06 L -88.6448,-2779.58 L -88.1871,-2779.15 L -87.6791,-2778.78 L -87.1289,-2778.48
 L -86.5451,-2778.24 L -85.9369,-2778.09 L -85.3139,-2778.01 L 85.3139,-2778.01 z
M -85.0482,-2778.51 L -85.6401,-2778.58 L -86.2178,-2778.73 L -86.7724,-2778.95 L -87.2952,-2779.24 L -87.7778,-2779.59
 L -88.2126,-2780 L -88.5928,-2780.46 L -88.9125,-2780.96 L -89.1664,-2781.5 L -89.3508,-2782.07 L -89.4625,-2782.65
 L -89.5,-2783.25 L -89.5,-2892.75 L -89.4625,-2893.35 L -89.3508,-2893.93 L -89.1664,-2894.5 L -88.9125,-2895.04
 L -88.5928,-2895.54 L -88.2126,-2896 L -87.7778,-2896.41 L -87.2952,-2896.76 L -86.7724,-2897.05 L -86.2178,-2897.27
 L -85.6401,-2897.42 L -85.0482,-2897.49 L 85.0482,-2897.49 L 85.6401,-2897.42 L 86.2178,-2897.27 L 86.7724,-2897.05
 L 87.2952,-2896.76 L 87.7778,-2896.41 L 88.2126,-2896 L 88.5928,-2895.54 L 88.9125,-2895.04 L 89.1664,-2894.5
 L 89.3508,-2893.93 L 89.4625,-2893.35 L 89.5,-2892.75 L 89.5,-2783.25 L 89.4625,-2782.65 L 89.3508,-2782.07
 L 89.1664,-2781.5 L 88.9125,-2780.96 L 88.5928,-2780.46 L 88.2126,-2780 L 87.7778,-2779.59 L 87.2952,-2779.24
 L 86.7724,-2778.95 L 86.2178,-2778.73 L 85.6401,-2778.58 L 85.0482,-2778.51 z
M 85.9369,-2649.09 L 86.5451,-2649.24 L 87.1289,-2649.48 L 87.6791,-2649.78 L 88.1871,-2650.15 L 88.6448,-2650.58
 L 89.0451,-2651.06 L 89.3815,-2651.59 L 89.6489,-2652.16 L 89.8429,-2652.76 L 89.9606,-2653.37 L 90,-2654
 L 90,-2764 L 89.9606,-2764.63 L 89.8429,-2765.24 L 89.6489,-2765.84 L 89.3815,-2766.41 L 89.0451,-2766.94
 L 88.6448,-2767.42 L 88.1871,-2767.85 L 87.6791,-2768.22 L 87.1289,-2768.52 L 86.5451,-2768.76 L 85.9369,-2768.91
 L 85.3139,-2768.99 L -85.3139,-2768.99 L -85.9369,-2768.91 L -86.5451,-2768.76 L -87.1289,-2768.52 L -87.6791,-2768.22
 L -88.1871,-2767.85 L -88.6448,-2767.42 L -89.0451,-2766.94 L -89.3815,-2766.41 L -89.6489,-2765.84 L -89.8429,-2765.24
 L -89.9606,-2764.63 L -90,-2764 L -90,-2654 L -89.9606,-2653.37 L -89.8429,-2652.76 L -89.6489,-2652.16
 L -89.3815,-2651.59 L -89.0451,-2651.06 L -88.6448,-2650.58 L -88.1871,-2650.15 L -87.6791,-2649.78 L -87.1289,-2649.48
 L -86.5451,-2649.24 L -85.9369,-2649.09 L -85.3139,-2649.01 L 85.3139,-2649.01 z
M -85.0482,-2649.51 L -85.6401,-2649.58 L -86.2178,-2649.73 L -86.7724,-2649.95 L -87.2952,-2650.24 L -87.7778,-2650.59
 L -88.2126,-2651 L -88.5928,-2651.46 L -88.9125,-2651.96 L -89.1664,-2652.5 L -89.3508,-2653.07 L -89.4625,-2653.65
 L -89.5,-2654.25 L -89.5,-2763.75 L -89.4625,-2764.35 L -89.3508,-2764.93 L -89.1664,-2765.5 L -88.9125,-2766.04
 L -88.5928,-2766.54 L -88.2126,-2767 L -87.7778,-2767.41 L -87.2952,-2767.76 L -86.7724,-2768.05 L -86.2178,-2768.27
 L -85.6401,-2768.42 L -85.0482,-2768.49 L 85.0482,-2768.49 L 85.6401,-2768.42 L 86.2178,-2768.27 L 86.7724,-2768.05
 L 87.2952,-2767.76 L 87.7778,-2767.41 L 88.2126,-2767 L 88.5928,-2766.54 L 88.9125,-2766.04 L 89.1664,-2765.5
 L 89.3508,-2764.93 L 89.4625,-2764.35 L 89.5,-2763.75 L 89.5,-2654.25 L 89.4625,-2653.65 L 89.3508,-2653.07
 L 89.1664,-2652.5 L 88.9125,-2651.96 L 88.5928,-2651.46 L 88.2126,-2651 L 87.7778,-2650.59 L 87.2952,-2650.24
 L 86.7724,-2649.95 L 86.2178,-2649.73 L 85.6401,-2649.58 L 85.0482,-2649.51 z
M 85.9369,-2520.09 L 86.5451,-2520.24 L 87.1289,-2520.48 L 87.6791,-2520.78 L 88.1871,-2521.15 L 88.6448,-2521.58
 L 89.0451,-2522.06 L 89.3815,-2522.59 L 89.6489,-2523.16 L 89.8429,-2523.76 L 89.9606,-2524.37 L 90,-2525
 L 90,-2635 L 89.9606,-2635.63 L 89.8429,-2636.24 L 89.6489,-2636.84 L 89.3815,-2637.41 L 89.0451,-2637.94
 L 88.6448,-2638.42 L 88.1871,-2638.85 L 87.6791,-2639.22 L 87.1289,-2639.52 L 86.5451,-2639.76 L 85.9369,-2639.91
 L 85.3139,-2639.99 L -85.3139,-2639.99 L -85.9369,-2639.91 L -86.5451,-2639.76 L -87.1289,-2639.52 L -87.6791,-2639.22
 L -88.1871,-2638.85 L -88.6448,-2638.42 L -89.0451,-2637.94 L -89.3815,-2637.41 L -89.6489,-2636.84 L -89.8429,-2636.24
 L -89.9606,-2635.63 L -90,-2635 L -90,-2525 L -89.9606,-2524.37 L -89.8429,-2523.76 L -89.6489,-2523.16
 L -89.3815,-2522.59 L -89.0451,-2522.06 L -88.6448,-2521.58 L -88.1871,-2521.15 L -87.6791,-2520.78 L -87.1289,-2520.48
 L -86.5451,-2520.24 L -85.9369,-2520.09 L -85.3139,-2520.01 L 85.3139,-2520.01 z
M -85.0482,-2520.51 L -85.6401,-2520.58 L -86.2178,-2520.73 L -86.7724,-2520.95 L -87.2952,-2521.24 L -87.7778,-2521.59
 L -88.2126,-2522 L -88.5928,-2522.46 L -88.9125,-2522.96 L -89.1664,-2523.5 L -89.3508,-2524.07 L -89.4625,-2524.65
 L -89.5,-2525.25 L -89.5,-2634.75 L -89.4625,-2635.35 L -89.3508,-2635.93 L -89.1664,-2636.5 L -88.9125,-2637.04
 L -88.5928,-2637.54 L -88.2126,-2638 L -87.7778,-2638.41 L -87.2952,-2638.76 L -86.7724,-2639.05 L -86.2178,-2639.27
 L -85.6401,-2639.42 L -85.0482,-2639.49 L 85.0482,-2639.49 L 85.6401,-2639.42 L 86.2178,-2639.27 L 86.7724,-2639.05
 L 87.2952,-2638.76 L 87.7778,-2638.41 L 88.2126,-2638 L 88.5928,-2637.54 L 88.9125,-2637.04 L 89.1664,-2636.5
 L 89.3508,-2635.93 L 89.4625,-2635.35 L 89.5,-2634.75 L 89.5,-2525.25 L 89.4625,-2524.65 L 89.3508,-2524.07
 L 89.1664,-2523.5 L 88.9125,-2522.96 L 88.5928,-2522.46 L 88.2126,-2522 L 87.7778,-2521.59 L 87.2952,-2521.24
 L 86.7724,-2520.95 L 86.2178,-2520.73 L 85.6401,-2520.58 L 85.0482,-2520.51 z
M 85.9369,-2391.09 L 86.5451,-2391.24 L 87.1289,-2391.48 L 87.6791,-2391.78 L 88.1871,-2392.15 L 88.6448,-2392.58
 L 89.0451,-2393.06 L 89.3815,-2393.59 L 89.6489,-2394.16 L 89.8429,-2394.76 L 89.9606,-2395.37 L 90,-2396
 L 90,-2506 L 89.9606,-2506.63 L 89.8429,-2507.24 L 89.6489,-2507.84 L 89.3815,-2508.41 L 89.0451,-2508.94
 L 88.6448,-2509.42 L 88.1871,-2509.85 L 87.6791,-2510.22 L 87.1289,-2510.52 L 86.5451,-2510.76 L 85.9369,-2510.91
 L 85.3139,-2510.99 L -85.3139,-2510.99 L -85.9369,-2510.91 L -86.5451,-2510.76 L -87.1289,-2510.52 L -87.6791,-2510.22
 L -88.1871,-2509.85 L -88.6448,-2509.42 L -89.0451,-2508.94 L -89.3815,-2508.41 L -89.6489,-2507.84 L -89.8429,-2507.24
 L -89.9606,-2506.63 L -90,-2506 L -90,-2396 L -89.9606,-2395.37 L -89.8429,-2394.76 L -89.6489,-2394.16
 L -89.3815,-2393.59 L -89.0451,-2393.06 L -88.6448,-2392.58 L -88.1871,-2392.15 L -87.6791,-2391.78 L -87.1289,-2391.48
 L -86.5451,-2391.24 L -85.9369,-2391.09 L -85.3139,-2391.01 L 85.3139,-2391.01 z
M -85.0482,-2391.51 L -85.6401,-2391.58 L -86.2178,-2391.73 L -86.7724,-2391.95 L -87.2952,-2392.24 L -87.7778,-2392.59
 L -88.2126,-2393 L -88.5928,-2393.46 L -88.9125,-2393.96 L -89.1664,-2394.5 L -89.3508,-2395.07 L -89.4625,-2395.65
 L -89.5,-2396.25 L -89.5,-2505.75 L -89.4625,-2506.35 L -89.3508,-2506.93 L -89.1664,-2507.5 L -88.9125,-2508.04
 L -88.5928,-2508.54 L -88.2126,-2509 L -87.7778,-2509.41 L -87.2952,-2509.76 L -86.7724,-2510.05 L -86.2178,-2510.27
 L -85.6401,-2510.42 L -85.0482,-2510.49 L 85.0482,-2510.49 L 85.6401,-2510.42 L 86.2178,-2510.27 L 86.7724,-2510.05
 L 87.2952,-2509.76 L 87.7778,-2509.41 L 88.2126,-2509 L 88.5928,-2508.54 L 88.9125,-2508.04 L 89.1664,-2507.5
 L 89.3508,-2506.93 L 89.4625,-2506.35 L 89.5,-2505.75 L 89.5,-2396.25 L 89.4625,-2395.65 L 89.3508,-2395.07
 L 89.1664,-2394.5 L 88.9125,-2393.96 L 88.5928,-2393.46 L 88.2126,-2393 L 87.7778,-2392.59 L 87.2952,-2392.24
 L 86.7724,-2391.95 L 86.2178,-2391.73 L 85.6401,-2391.58 L 85.0482,-2391.51 z
M 85.9369,-2262.09 L 86.5451,-2262.24 L 87.1289,-2262.48 L 87.6791,-2262.78 L 88.1871,-2263.15 L 88.6448,-2263.58
 L 89.0451,-2264.06 L 89.3815,-2264.59 L 89.6489,-2265.16 L 89.8429,-2265.76 L 89.9606,-2266.37 L 90,-2267
 L 90,-2377 L 89.9606,-2377.63 L 89.8429,-2378.24 L 89.6489,-2378.84 L 89.3815,-2379.41 L 89.0451,-2379.94
 L 88.6448,-2380.42 L 88.1871,-2380.85 L 87.6791,-2381.22 L 87.1289,-2381.52 L 86.5451,-2381.76 L 85.9369,-2381.91
 L 85.3139,-2381.99 L -85.3139,-2381.99 L -85.9369,-2381.91 L -86.5451,-2381.76 L -87.1289,-2381.52 L -87.6791,-2381.22
 L -88.1871,-2380.85 L -88.6448,-2380.42 L -89.0451,-2379.94 L -89.3815,-2379.41 L -89.6489,-2378.84 L -89.8429,-2378.24
 L -89.9606,-2377.63 L -90,-2377 L -90,-2267 L -89.9606,-2266.37 L -89.8429,-2265.76 L -89.6489,-2265.16
 L -89.3815,-2264.59 L -89.0451,-2264.06 L -88.6448,-2263.58 L -88.1871,-2263.15 L -87.6791,-2262.78 L -87.1289,-2262.48
 L -86.5451,-2262.24 L -85.9369,-2262.09 L -85.3139,-2262.01 L 85.3139,-2262.01 z
M -85.0482,-2262.51 L -85.6401,-2262.58 L -86.2178,-2262.73 L -86.7724,-2262.95 L -87.2952,-2263.24 L -87.7778,-2263.59
 L -88.2126,-2264 L -88.5928,-2264.46 L -88.9125,-2264.96 L -89.1664,-2265.5 L -89.3508,-2266.07 L -89.4625,-2266.65
 L -89.5,-2267.25 L -89.5,-2376.75 L -89.4625,-2377.35 L -89.3508,-2377.93 L -89.1664,-2378.5 L -88.9125,-2379.04
 L -88.5928,-2379.54 L -88.2126,-2380 L -87.7778,-2380.41 L -87.2952,-2380.76 L -86.7724,-2381.05 L -86.2178,-2381.27
 L -85.6401,-2381.42 L -85.0482,-2381.49 L 85.0482,-2381.49 L 85.6401,-2381.42 L 86.2178,-2381.27 L 86.7724,-2381.05
 L 87.2952,-2380.76 L 87.7778,-2380.41 L 88.2126,-2380 L 88.5928,-2379.54 L 88.9125,-2379.04 L 89.1664,-2378.5
 L 89.3508,-2377.93 L 89.4625,-2377.35 L 89.5,-2376.75 L 89.5,-2267.25 L 89.4625,-2266.65 L 89.3508,-2266.07
 L 89.1664,-2265.5 L 88.9125,-2264.96 L 88.5928,-2264.46 L 88.2126,-2264 L 87.7778,-2263.59 L 87.2952,-2263.24
 L 86.7724,-2262.95 L 86.2178,-2262.73 L 85.6401,-2262.58 L 85.0482,-2262.51 z
M 85.9369,-2133.09 L 86.5451,-2133.24 L 87.1289,-2133.48 L 87.6791,-2133.78 L 88.1871,-2134.15 L 88.6448,-2134.58
 L 89.0451,-2135.06 L 89.3815,-2135.59 L 89.6489,-2136.16 L 89.8429,-2136.76 L 89.9606,-2137.37 L 90,-2138
 L 90,-2248 L 89.9606,-2248.63 L 89.8429,-2249.24 L 89.6489,-2249.84 L 89.3815,-2250.41 L 89.0451,-2250.94
 L 88.6448,-2251.42 L 88.1871,-2251.85 L 87.6791,-2252.22 L 87.1289,-2252.52 L 86.5451,-2252.76 L 85.9369,-2252.91
 L 85.3139,-2252.99 L -85.3139,-2252.99 L -85.9369,-2252.91 L -86.5451,-2252.76 L -87.1289,-2252.52 L -87.6791,-2252.22
 L -88.1871,-2251.85 L -88.6448,-2251.42 L -89.0451,-2250.94 L -89.3815,-2250.41 L -89.6489,-2249.84 L -89.8429,-2249.24
 L -89.9606,-2248.63 L -90,-2248 L -90,-2138 L -89.9606,-2137.37 L -89.8429,-2136.76 L -89.6489,-2136.16
 L -89.3815,-2135.59 L -89.0451,-2135.06 L -88.6448,-2134.58 L -88.1871,-2134.15 L -87.6791,-2133.78 L -87.1289,-2133.48
 L -86.5451,-2133.24 L -85.9369,-2133.09 L -85.3139,-2133.01 L 85.3139,-2133.01 z
M -85.0482,-2133.51 L -85.6401,-2133.58 L -86.2178,-2133.73 L -86.7724,-2133.95 L -87.2952,-2134.24 L -87.7778,-2134.59
 L -88.2126,-2135 L -88.5928,-2135.46 L -88.9125,-2135.96 L -89.1664,-2136.5 L -89.3508,-2137.07 L -89.4625,-2137.65
 L -89.5,-2138.25 L -89.5,-2247.75 L -89.4625,-2248.35 L -89.3508,-2248.93 L -89.1664,-2249.5 L -88.9125,-2250.04
 L -88.5928,-2250.54 L -88.2126,-2251 L -87.7778,-2251.41 L -87.2952,-2251.76 L -86.7724,-2252.05 L -86.2178,-2252.27
 L -85.6401,-2252.42 L -85.0482,-2252.49 L 85.0482,-2252.49 L 85.6401,-2252.42 L 86.2178,-2252.27 L 86.7724,-2252.05
 L 87.2952,-2251.76 L 87.7778,-2251.41 L 88.2126,-2251 L 88.5928,-2250.54 L 88.9125,-2250.04 L 89.1664,-2249.5
 L 89.3508,-2248.93 L 89.4625,-2248.35 L 89.5,-2247.75 L 89.5,-2138.25 L 89.4625,-2137.65 L 89.3508,-2137.07
 L 89.1664,-2136.5 L 88.9125,-2135.96 L 88.5928,-2135.46 L 88.2126,-2135 L 87.7778,-2134.59 L 87.2952,-2134.24
 L 86.7724,-2133.95 L 86.2178,-2133.73 L 85.6401,-2133.58 L 85.0482,-2133.51 z
M 85.9369,-2004.09 L 86.5451,-2004.24 L 87.1289,-2004.48 L 87.6791,-2004.78 L 88.1871,-2005.15 L 88.6448,-2005.58
 L 89.0451,-2006.06 L 89.3815,-2006.59 L 89.6489,-2007.16 L 89.8429,-2007.76 L 89.9606,-2008.37 L 90,-2009
 L 90,-2119 L 89.9606,-2119.63 L 89.8429,-2120.24 L 89.6489,-2120.84 L 89.3815,-2121.41 L 89.0451,-2121.94
 L 88.6448,-2122.42 L 88.1871,-2122.85 L 87.6791,-2123.22 L 87.1289,-2123.52 L 86.5451,-2123.76 L 85.9369,-2123.91
 L 85.3139,-2123.99 L -85.3139,-2123.99 L -85.9369,-2123.91 L -86.5451,-2123.76 L -87.1289,-2123.52 L -87.6791,-2123.22
 L -88.1871,-2122.85 L -88.6448,-2122.42 L -89.0451,-2121.94 L -89.3815,-2121.41 L -89.6489,-2120.84 L -89.8429,-2120.24
 L -89.9606,-2119.63 L -90,-2119 L -90,-2009 L -89.9606,-2008.37 L -89.8429,-2007.76 L -89.6489,-2007.16
 L -89.3815,-2006.59 L -89.0451,-2006.06 L -88.6448,-2005.58 L -88.1871,-2005.15 L -87.6791,-2004.78 L -87.1289,-2004.48
 L -86.5451,-2004.24 L -85.9369,-2004.09 L -85.3139,-2004.01 L 85.3139,-2004.01 z
M -85.0375,-2004.68 L -85.6079,-2004.75 L -86.1648,-2004.9 L -86.6994,-2005.11 L -87.2032,-2005.38 L -87.6684,-2005.72
 L -88.0875,-2006.12 L -88.454,-2006.56 L -88.7621,-2007.04 L -89.0069,-2007.56 L -89.1846,-2008.11 L -89.2923,-2008.68
 L -89.3284,-2009.25 L -89.3284,-2118.75 L -89.2923,-2119.32 L -89.1846,-2119.89 L -89.0069,-2120.44 L -88.7621,-2120.96
 L -88.454,-2121.44 L -88.0875,-2121.88 L -87.6684,-2122.28 L -87.2032,-2122.62 L -86.6994,-2122.89 L -86.1648,-2123.1
 L -85.6079,-2123.25 L -85.0375,-2123.32 L 85.0375,-2123.32 L 85.6079,-2123.25 L 86.1648,-2123.1 L 86.6994,-2122.89
 L 87.2032,-2122.62 L 87.6684,-2122.28 L 88.0875,-2121.88 L 88.454,-2121.44 L 88.7621,-2120.96 L 89.0069,-2120.44
 L 89.1846,-2119.89 L 89.2923,-2119.32 L 89.3284,-2118.75 L 89.3284,-2009.25 L 89.2923,-2008.68 L 89.1846,-2008.11
 L 89.0069,-2007.56 L 88.7621,-2007.04 L 88.454,-2006.56 L 88.0875,-2006.12 L 87.6684,-2005.72 L 87.2032,-2005.38
 L 86.6994,-2005.11 L 86.1648,-2004.9 L 85.6079,-2004.75 L 85.0375,-2004.68 z
M 85.9369,-1875.09 L 86.5451,-1875.24 L 87.1289,-1875.48 L 87.6791,-1875.78 L 88.1871,-1876.15 L 88.6448,-1876.58
 L 89.0451,-1877.06 L 89.3815,-1877.59 L 89.6489,-1878.16 L 89.8429,-1878.76 L 89.9606,-1879.37 L 90,-1880
 L 90,-1990 L 89.9606,-1990.63 L 89.8429,-1991.24 L 89.6489,-1991.84 L 89.3815,-1992.41 L 89.0451,-1992.94
 L 88.6448,-1993.42 L 88.1871,-1993.85 L 87.6791,-1994.22 L 87.1289,-1994.52 L 86.5451,-1994.76 L 85.9369,-1994.91
 L 85.3139,-1994.99 L -85.3139,-1994.99 L -85.9369,-1994.91 L -86.5451,-1994.76 L -87.1289,-1994.52 L -87.6791,-1994.22
 L -88.1871,-1993.85 L -88.6448,-1993.42 L -89.0451,-1992.94 L -89.3815,-1992.41 L -89.6489,-1991.84 L -89.8429,-1991.24
 L -89.9606,-1990.63 L -90,-1990 L -90,-1880 L -89.9606,-1879.37 L -89.8429,-1878.76 L -89.6489,-1878.16
 L -89.3815,-1877.59 L -89.0451,-1877.06 L -88.6448,-1876.58 L -88.1871,-1876.15 L -87.6791,-1875.78 L -87.1289,-1875.48
 L -86.5451,-1875.24 L -85.9369,-1875.09 L -85.3139,-1875.01 L 85.3139,-1875.01 z
M -84.8825,-1878.14 L -85.1453,-1878.18 L -85.4019,-1878.24 L -85.6482,-1878.34 L -85.8804,-1878.47 L -86.0947,-1878.62
 L -86.2879,-1878.81 L -86.4567,-1879.01 L -86.5987,-1879.23 L -86.7115,-1879.47 L -86.7934,-1879.73 L -86.843,-1879.99
 L -86.8596,-1880.25 L -86.8596,-1989.75 L -86.843,-1990.01 L -86.7934,-1990.27 L -86.7115,-1990.53 L -86.5987,-1990.77
 L -86.4567,-1990.99 L -86.2879,-1991.19 L -86.0947,-1991.38 L -85.8804,-1991.53 L -85.6482,-1991.66 L -85.4019,-1991.76
 L -85.1453,-1991.82 L -84.8825,-1991.86 L 84.8825,-1991.86 L 85.1453,-1991.82 L 85.4019,-1991.76 L 85.6482,-1991.66
 L 85.8804,-1991.53 L 86.0947,-1991.38 L 86.2879,-1991.19 L 86.4567,-1990.99 L 86.5987,-1990.77 L 86.7115,-1990.53
 L 86.7934,-1990.27 L 86.843,-1990.01 L 86.8596,-1989.75 L 86.8596,-1880.25 L 86.843,-1879.99 L 86.7934,-1879.73
 L 86.7115,-1879.47 L 86.5987,-1879.23 L 86.4567,-1879.01 L 86.2879,-1878.81 L 86.0947,-1878.62 L 85.8804,-1878.47
 L 85.6482,-1878.34 L 85.4019,-1878.24 L 85.1453,-1878.18 L 84.8825,-1878.14 z
" stroke="black" fill="lightgray" stroke-width="0.5"/>
</svg>
