<?xml version="1.0" standalone="no"?>
<!DOCTYPE svg PUBLIC "-//W3C//DTD SVG 1.1//EN" "http://www.w3.org/Graphics/SVG/1.1/DTD/svg11.dtd">
<svg width="44mm" height="30mm" viewBox="-22 -7 44 30" xmlns="http://www.w3.org/2000/svg" version="1.1">
<title>OpenSCAD Model</title>
<path d="
M 6.55637,19.2661 L -1.86993,19.2661 L -1.74979,19.0164 L -1.61018,18.7676 L -1.45113,18.52 L -1.2726,18.2733
 L -1.07463,18.0278 L -0.857193,17.7833 L -0.6203,17.5398 L -0.340225,17.2747 L 0.00660706,16.9655 L 0.420242,16.6121
 L 0.900681,16.2145 L 1.44789,15.7727 L 2.06189,15.2868 L 2.74269,14.7567 L 3.22899,14.3637 L 3.67928,13.9726
 L 4.09352,13.5833 L 4.47176,13.1959 L 4.81398,12.8103 L 5.12016,12.4265 L 5.39034,12.0446 L 5.62448,11.6621
 L 5.8226,11.2768 L 5.98471,10.8885 L 6.11078,10.4974 L 6.20084,10.1033 L 6.25487,9.70636 L 6.27289,9.30653
 L 6.23949,8.70955 L 6.13931,8.14806 L 5.97235,7.62207 L 5.73859,7.13156 L 5.64516,6.99013 L 17.3139,6.99013
 L 17.9369,6.91142 L 18.5451,6.75528 L 19.1289,6.52412 L 19.6791,6.22163 L 20.1871,5.85255 L 20.6448,5.42273
 L 21.0451,4.93892 L 21.3815,4.40877 L 21.6489,3.84062 L 21.8429,3.24344 L 21.9606,2.62666 L 22,2
 L 22,-2 L 21.9606,-2.62666 L 21.8429,-3.24344 L 21.6489,-3.84062 L 21.3815,-4.40877 L 21.0451,-4.93892
 L 20.6448,-5.42273 L 20.1871,-5.85255 L 19.6791,-6.22163 L 19.1289,-6.52412 L 18.5451,-6.75528 L 17.9369,-6.91142
 L 17.3139,-6.99013 L -17.3139,-6.99013 L -17.9369,-6.91142 L -18.5451,-6.75528 L -19.1289,-6.52412 L -19.6791,-6.22163
 L -20.1871,-5.85255 L -20.6448,-5.42273 L -21.0451,-4.93892 L -21.3815,-4.40877 L -21.6489,-3.84062 L -21.8429,-3.24344
 L -21.9606,-2.62666 L -22,-2 L -22,2 L -21.9606,2.62666 L -21.8429,3.24344 L -21.6489,3.84062
 L -21.3815,4.40877 L -21.0451,4.93892 L -20.6448,5.42273 L -20.1871,5.85255 L -19.6791,6.22163 L -19.1289,6.52412
 L -18.5451,6.75528 L -17.9369,6.91142 L -17.3139,6.99013 L -5.04221,6.99013 L -5.2252,7.27557 L -5.49484,7.82588
 L -5.71268,8.42513 L -5.87871,9.07327 L -5.99294,9.77032 L -2.34663,9.97647 L -2.28632,9.63219 L -2.20837,9.3134
 L -2.11279,9.02011 L -1.99962,8.75232 L -1.8688,8.51003 L -1.72038,8.29323 L -1.55434,8.10193 L -1.36832,7.93614
 L -1.15993,7.79585 L -0.929199,7.68108 L -0.676117,7.5918 L -0.400696,7.52803 L -0.102905,7.48978 L 0.217209,7.47702
 L 0.540634,7.48781 L 0.840912,7.52014 L 1.11806,7.57404 L 1.37207,7.64949 L 1.60292,7.74651 L 1.81064,7.86508
 L 1.99522,8.00522 L 2.15593,8.16429 L 2.2919,8.33968 L 2.40315,8.53136 L 2.48969,8.73935 L 2.5515,8.96365
 L 2.58858,9.20427 L 2.60095,9.4612 L 2.59476,9.6154 L 2.57622,9.76884 L 2.54532,9.92148 L 2.50204,10.0733
 L 2.44643,10.2244 L 2.37843,10.3747 L 2.29808,10.5242 L 2.20695,10.674 L 2.10663,10.825 L 1.9971,10.9774
 L 1.87837,11.1311 L 1.75046,11.2861 L 1.61334,11.4424 L 1.46703,11.6 L 1.2906,11.7767 L 1.06317,11.9902
 L 0.784729,12.2406 L 0.455261,12.5277 L 0.0747833,12.8517 L -0.356674,13.2124 L -0.839188,13.61 L -1.46855,14.1313
 L -2.05348,14.635 L -2.59399,15.121 L -3.09006,15.5895 L -3.54167,16.0403 L -3.94887,16.4735 L -4.31161,16.8891
 L -4.64093,17.2957 L -4.94789,17.7021 L -5.23251,18.1082 L -5.4948,18.5141 L -5.73474,18.9197 L -5.95233,19.325
 L -6.14758,19.7301 L -6.14758,22.2425 L 6.55637,22.2425 z
M -0.18837,2.99408 L -0.562134,2.94685 L -0.927048,2.85316 L -1.27733,2.71448 L -1.60747,2.53297 L -1.91226,2.31154
 L -2.1869,2.05363 L -2.42705,1.76335 L -2.62891,1.44525 L -2.78932,1.10437 L -2.90575,0.746063 L -2.97633,0.375992
 L -3,-0 L -2.97633,-0.375992 L -2.90575,-0.746063 L -2.78932,-1.10437 L -2.62891,-1.44525 L -2.42705,-1.76335
 L -2.1869,-2.05363 L -1.91226,-2.31154 L -1.60747,-2.53297 L -1.27733,-2.71448 L -0.927048,-2.85316 L -0.562134,-2.94685
 L -0.18837,-2.99408 L 0.18837,-2.99408 L 0.562134,-2.94685 L 0.927048,-2.85316 L 1.27733,-2.71448 L 1.60747,-2.53297
 L 1.91226,-2.31154 L 2.1869,-2.05363 L 2.42705,-1.76335 L 2.62891,-1.44525 L 2.78932,-1.10437 L 2.90575,-0.746063
 L 2.97633,-0.375992 L 3,-0 L 2.97633,0.375992 L 2.90575,0.746063 L 2.78932,1.10437 L 2.62891,1.44525
 L 2.42705,1.76335 L 2.1869,2.05363 L 1.91226,2.31154 L 1.60747,2.53297 L 1.27733,2.71448 L 0.927048,2.85316
 L 0.562134,2.94685 L 0.18837,2.99408 z
M -15.1884,2.99408 L -15.5621,2.94685 L -15.927,2.85316 L -16.2773,2.71448 L -16.6075,2.53297 L -16.9123,2.31154
 L -17.1869,2.05363 L -17.427,1.76335 L -17.6289,1.44525 L -17.7893,1.10437 L -17.9057,0.746063 L -17.9763,0.375992
 L -18,-0 L -17.9763,-0.375992 L -17.9057,-0.746063 L -17.7893,-1.10437 L -17.6289,-1.44525 L -17.427,-1.76335
 L -17.1869,-2.05363 L -16.9123,-2.31154 L -16.6075,-2.53297 L -16.2773,-2.71448 L -15.927,-2.85316 L -15.5621,-2.94685
 L -15.1884,-2.99408 L -14.8116,-2.99408 L -14.4379,-2.94685 L -14.0729,-2.85316 L -13.7227,-2.71448 L -13.3925,-2.53297
 L -13.0877,-2.31154 L -12.8131,-2.05363 L -12.5729,-1.76335 L -12.3711,-1.44525 L -12.2107,-1.10437 L -12.0942,-0.746063
 L -12.0237,-0.375992 L -12,-0 L -12.0237,0.375992 L -12.0942,0.746063 L -12.2107,1.10437 L -12.3711,1.44525
 L -12.5729,1.76335 L -12.8131,2.05363 L -13.0877,2.31154 L -13.3925,2.53297 L -13.7227,2.71448 L -14.0729,2.85316
 L -14.4379,2.94685 L -14.8116,2.99408 z
M 14.8116,2.99408 L 14.4379,2.94685 L 14.0729,2.85316 L 13.7227,2.71448 L 13.3925,2.53297 L 13.0877,2.31154
 L 12.8131,2.05363 L 12.5729,1.76335 L 12.3711,1.44525 L 12.2107,1.10437 L 12.0942,0.746063 L 12.0237,0.375992
 L 12,-0 L 12.0237,-0.375992 L 12.0942,-0.746063 L 12.2107,-1.10437 L 12.3711,-1.44525 L 12.5729,-1.76335
 L 12.8131,-2.05363 L 13.0877,-2.31154 L 13.3925,-2.53297 L 13.7227,-2.71448 L 14.0729,-2.85316 L 14.4379,-2.94685
 L 14.8116,-2.99408 L 15.1884,-2.99408 L 15.5621,-2.94685 L 15.927,-2.85316 L 16.2773,-2.71448 L 16.6075,-2.53297
 L 16.9123,-2.31154 L 17.1869,-2.05363 L 17.427,-1.76335 L 17.6289,-1.44525 L 17.7893,-1.10437 L 17.9057,-0.746063
 L 17.9763,-0.375992 L 18,-0 L 17.9763,0.375992 L 17.9057,0.746063 L 17.7893,1.10437 L 17.6289,1.44525
 L 17.427,1.76335 L 17.1869,2.05363 L 16.9123,2.31154 L 16.6075,2.53297 L 16.2773,2.71448 L 15.927,2.85316
 L 15.5621,2.94685 L 15.1884,2.99408 z
M 7.40581,1.49704 L 7.21892,1.47342 L 7.03647,1.42657 L 6.86133,1.35724 L 6.69626,1.26648 L 6.54385,1.15576
 L 6.40654,1.02681 L 6.28647,0.881668 L 6.18553,0.722626 L 6.10533,0.552185 L 6.04712,0.373032 L 6.01183,0.187988
 L 6,-0 L 6.01183,-0.187988 L 6.04712,-0.373032 L 6.10533,-0.552185 L 6.18553,-0.722626 L 6.28647,-0.881668
 L 6.40654,-1.02681 L 6.54385,-1.15576 L 6.69626,-1.26648 L 6.86133,-1.35724 L 7.03647,-1.42657 L 7.21892,-1.47342
 L 7.40581,-1.49704 L 7.59418,-1.49704 L 7.78107,-1.47342 L 7.96352,-1.42657 L 8.13866,-1.35724 L 8.30373,-1.26648
 L 8.45613,-1.15576 L 8.59344,-1.02681 L 8.71352,-0.881668 L 8.81445,-0.722626 L 8.89465,-0.552185 L 8.95287,-0.373032
 L 8.98816,-0.187988 L 9,-0 L 8.98816,0.187988 L 8.95287,0.373032 L 8.89465,0.552185 L 8.81445,0.722626
 L 8.71352,0.881668 L 8.59344,1.02681 L 8.45613,1.15576 L 8.30373,1.26648 L 8.13866,1.35724 L 7.96352,1.42657
 L 7.78107,1.47342 L 7.59418,1.49704 z
M -7.59418,1.49704 L -7.78107,1.47342 L -7.96352,1.42657 L -8.13866,1.35724 L -8.30373,1.26648 L -8.45613,1.15576
 L -8.59344,1.02681 L -8.71352,0.881668 L -8.81445,0.722626 L -8.89465,0.552185 L -8.95287,0.373032 L -8.98816,0.187988
 L -9,-0 L -8.98816,-0.187988 L -8.95287,-0.373032 L -8.89465,-0.552185 L -8.81445,-0.722626 L -8.71352,-0.881668
 L -8.59344,-1.02681 L -8.45613,-1.15576 L -8.30373,-1.26648 L -8.13866,-1.35724 L -7.96352,-1.42657 L -7.78107,-1.47342
 L -7.59418,-1.49704 L -7.40581,-1.49704 L -7.21892,-1.47342 L -7.03647,-1.42657 L -6.86133,-1.35724 L -6.69626,-1.26648
 L -6.54385,-1.15576 L -6.40654,-1.02681 L -6.28647,-0.881668 L -6.18553,-0.722626 L -6.10533,-0.552185 L -6.04712,-0.373032
 L -6.01183,-0.187988 L -6,-0 L -6.01183,0.187988 L -6.04712,0.373032 L -6.10533,0.552185 L -6.18553,0.722626
 L -6.28647,0.881668 L -6.40654,1.02681 L -6.54385,1.15576 L -6.69626,1.26648 L -6.86133,1.35724 L -7.03647,1.42657
 L -7.21892,1.47342 L -7.40581,1.49704 z
" stroke="black" fill="lightgray" stroke-width="0.5"/>
</svg>
