<?xml version="1.0" standalone="no"?>
<!DOCTYPE svg PUBLIC "-//W3C//DTD SVG 1.1//EN" "http://www.w3.org/Graphics/SVG/1.1/DTD/svg11.dtd">
<svg width="226mm" height="288mm" viewBox="-113 -540 226 288" xmlns="http://www.w3.org/2000/svg" version="1.1">
<title>OpenSCAD Model</title>
<path d="
M 108.437,-450.089 L 109.045,-450.245 L 109.629,-450.476 L 110.179,-450.778 L 110.687,-451.147 L 111.145,-451.577
 L 111.545,-452.061 L 111.882,-452.591 L 112.149,-453.159 L 112.343,-453.757 L 112.461,-454.373 L 112.5,-455
 L 112.5,-535 L 112.461,-535.627 L 112.343,-536.243 L 112.149,-536.841 L 111.882,-537.409 L 111.545,-537.939
 L 111.145,-538.423 L 110.687,-538.853 L 110.179,-539.222 L 109.629,-539.524 L 109.045,-539.755 L 108.437,-539.911
 L 107.814,-539.99 L -107.814,-539.99 L -108.437,-539.911 L -109.045,-539.755 L -109.629,-539.524 L -110.179,-539.222
 L -110.687,-538.853 L -111.145,-538.423 L -111.545,-537.939 L -111.882,-537.409 L -112.149,-536.841 L -112.343,-536.243
 L -112.461,-535.627 L -112.5,-535 L -112.5,-455 L -112.461,-454.373 L -112.343,-453.757 L -112.149,-453.159
 L -111.882,-452.591 L -111.545,-452.061 L -111.145,-451.577 L -110.687,-451.147 L -110.179,-450.778 L -109.629,-450.476
 L -109.045,-450.245 L -108.437,-450.089 L -107.814,-450.01 L 107.814,-450.01 z
M -107.548,-450.509 L -108.14,-450.584 L -108.718,-450.732 L -109.272,-450.952 L -109.795,-451.239 L -110.278,-451.59
 L -110.713,-451.998 L -111.093,-452.458 L -111.412,-452.962 L -111.666,-453.501 L -111.851,-454.069 L -111.963,-454.655
 L -112,-455.25 L -112,-534.75 L -111.963,-535.345 L -111.851,-535.931 L -111.666,-536.499 L -111.412,-537.038
 L -111.093,-537.542 L -110.713,-538.002 L -110.278,-538.41 L -109.795,-538.761 L -109.272,-539.048 L -108.718,-539.268
 L -108.14,-539.416 L -107.548,-539.491 L 107.548,-539.491 L 108.14,-539.416 L 108.718,-539.268 L 109.272,-539.048
 L 109.795,-538.761 L 110.278,-538.41 L 110.713,-538.002 L 111.093,-537.542 L 111.412,-537.038 L 111.666,-536.499
 L 111.851,-535.931 L 111.963,-535.345 L 112,-534.75 L 112,-455.25 L 111.963,-454.655 L 111.851,-454.069
 L 111.666,-453.501 L 111.412,-452.962 L 111.093,-452.458 L 110.713,-451.998 L 110.278,-451.59 L 109.795,-451.239
 L 109.272,-450.952 L 108.718,-450.732 L 108.14,-450.584 L 107.548,-450.509 z
M 108.437,-351.089 L 109.045,-351.245 L 109.629,-351.476 L 110.179,-351.778 L 110.687,-352.147 L 111.145,-352.577
 L 111.545,-353.061 L 111.882,-353.591 L 112.149,-354.159 L 112.343,-354.757 L 112.461,-355.373 L 112.5,-356
 L 112.5,-436 L 112.461,-436.627 L 112.343,-437.243 L 112.149,-437.841 L 111.882,-438.409 L 111.545,-438.939
 L 111.145,-439.423 L 110.687,-439.853 L 110.179,-440.222 L 109.629,-440.524 L 109.045,-440.755 L 108.437,-440.911
 L 107.814,-440.99 L -107.814,-440.99 L -108.437,-440.911 L -109.045,-440.755 L -109.629,-440.524 L -110.179,-440.222
 L -110.687,-439.853 L -111.145,-439.423 L -111.545,-438.939 L -111.882,-438.409 L -112.149,-437.841 L -112.343,-437.243
 L -112.461,-436.627 L -112.5,-436 L -112.5,-356 L -112.461,-355.373 L -112.343,-354.757 L -112.149,-354.159
 L -111.882,-353.591 L -111.545,-353.061 L -111.145,-352.577 L -110.687,-352.147 L -110.179,-351.778 L -109.629,-351.476
 L -109.045,-351.245 L -108.437,-351.089 L -107.814,-351.01 L 107.814,-351.01 z
M -107.537,-351.681 L -108.108,-351.753 L -108.665,-351.896 L -109.199,-352.107 L -109.703,-352.384 L -110.168,-352.722
 L -110.588,-353.116 L -110.954,-353.559 L -111.262,-354.044 L -111.507,-354.565 L -111.685,-355.111 L -111.792,-355.676
 L -111.828,-356.25 L -111.828,-435.75 L -111.792,-436.324 L -111.685,-436.889 L -111.507,-437.435 L -111.262,-437.956
 L -110.954,-438.441 L -110.588,-438.884 L -110.168,-439.278 L -109.703,-439.616 L -109.199,-439.893 L -108.665,-440.104
 L -108.108,-440.247 L -107.537,-440.319 L 107.537,-440.319 L 108.108,-440.247 L 108.665,-440.104 L 109.199,-439.893
 L 109.703,-439.616 L 110.168,-439.278 L 110.588,-438.884 L 110.954,-438.441 L 111.262,-437.956 L 111.507,-437.435
 L 111.685,-436.889 L 111.792,-436.324 L 111.828,-435.75 L 111.828,-356.25 L 111.792,-355.676 L 111.685,-355.111
 L 111.507,-354.565 L 111.262,-354.044 L 110.954,-353.559 L 110.588,-353.116 L 110.168,-352.722 L 109.703,-352.384
 L 109.199,-352.107 L 108.665,-351.896 L 108.108,-351.753 L 107.537,-351.681 z
M 108.437,-252.089 L 109.045,-252.245 L 109.629,-252.476 L 110.179,-252.778 L 110.687,-253.147 L 111.145,-253.577
 L 111.545,-254.061 L 111.882,-254.591 L 112.149,-255.159 L 112.343,-255.757 L 112.461,-256.373 L 112.5,-257
 L 112.5,-337 L 112.461,-337.627 L 112.343,-338.243 L 112.149,-338.841 L 111.882,-339.409 L 111.545,-339.939
 L 111.145,-340.423 L 110.687,-340.853 L 110.179,-341.222 L 109.629,-341.524 L 109.045,-341.755 L 108.437,-341.911
 L 107.814,-341.99 L -107.814,-341.99 L -108.437,-341.911 L -109.045,-341.755 L -109.629,-341.524 L -110.179,-341.222
 L -110.687,-340.853 L -111.145,-340.423 L -111.545,-339.939 L -111.882,-339.409 L -112.149,-338.841 L -112.343,-338.243
 L -112.461,-337.627 L -112.5,-337 L -112.5,-257 L -112.461,-256.373 L -112.343,-255.757 L -112.149,-255.159
 L -111.882,-254.591 L -111.545,-254.061 L -111.145,-253.577 L -110.687,-253.147 L -110.179,-252.778 L -109.629,-252.476
 L -109.045,-252.245 L -108.437,-252.089 L -107.814,-252.01 L 107.814,-252.01 z
M -107.382,-255.145 L -107.645,-255.178 L -107.902,-255.244 L -108.148,-255.341 L -108.38,-255.469 L -108.595,-255.625
 L -108.788,-255.806 L -108.957,-256.01 L -109.099,-256.234 L -109.211,-256.473 L -109.293,-256.725 L -109.343,-256.986
 L -109.36,-257.25 L -109.36,-336.75 L -109.343,-337.014 L -109.293,-337.275 L -109.211,-337.527 L -109.099,-337.766
 L -108.957,-337.99 L -108.788,-338.194 L -108.595,-338.375 L -108.38,-338.531 L -108.148,-338.659 L -107.902,-338.756
 L -107.645,-338.822 L -107.382,-338.855 L 107.382,-338.855 L 107.645,-338.822 L 107.902,-338.756 L 108.148,-338.659
 L 108.38,-338.531 L 108.595,-338.375 L 108.788,-338.194 L 108.957,-337.99 L 109.099,-337.766 L 109.211,-337.527
 L 109.293,-337.275 L 109.343,-337.014 L 109.36,-336.75 L 109.36,-257.25 L 109.343,-256.986 L 109.293,-256.725
 L 109.211,-256.473 L 109.099,-256.234 L 108.957,-256.01 L 108.788,-255.806 L 108.595,-255.625 L 108.38,-255.469
 L 108.148,-255.341 L 107.902,-255.244 L 107.645,-255.178 L 107.382,-255.145 z
" stroke="black" fill="lightgray" stroke-width="0.5"/>
</svg>
