<?xml version="1.0" standalone="no"?>
<!DOCTYPE svg PUBLIC "-//W3C//DTD SVG 1.1//EN" "http://www.w3.org/Graphics/SVG/1.1/DTD/svg11.dtd">
<svg width="180mm" height="1048mm" viewBox="-90 -1976 180 1048" xmlns="http://www.w3.org/2000/svg" version="1.1">
<title>OpenSCAD Model</title>
<path d="
M 85.9369,-1720.59 L 86.5451,-1720.74 L 87.1289,-1720.98 L 87.6791,-1721.28 L 88.1871,-1721.65 L 88.6448,-1722.08
 L 89.0451,-1722.56 L 89.3815,-1723.09 L 89.6489,-1723.66 L 89.8429,-1724.26 L 89.9606,-1724.87 L 90,-1725.5
 L 90,-1970.5 L 89.9606,-1971.13 L 89.8429,-1971.74 L 89.6489,-1972.34 L 89.3815,-1972.91 L 89.0451,-1973.44
 L 88.6448,-1973.92 L 88.1871,-1974.35 L 87.6791,-1974.72 L 87.1289,-1975.02 L 86.5451,-1975.26 L 85.9369,-1975.41
 L 85.3139,-1975.49 L -85.3139,-1975.49 L -85.9369,-1975.41 L -86.5451,-1975.26 L -87.1289,-1975.02 L -87.6791,-1974.72
 L -88.1871,-1974.35 L -88.6448,-1973.92 L -89.0451,-1973.44 L -89.3815,-1972.91 L -89.6489,-1972.34 L -89.8429,-1971.74
 L -89.9606,-1971.13 L -90,-1970.5 L -90,-1725.5 L -89.9606,-1724.87 L -89.8429,-1724.26 L -89.6489,-1723.66
 L -89.3815,-1723.09 L -89.0451,-1722.56 L -88.6448,-1722.08 L -88.1871,-1721.65 L -87.6791,-1721.28 L -87.1289,-1720.98
 L -86.5451,-1720.74 L -85.9369,-1720.59 L -85.3139,-1720.51 L 85.3139,-1720.51 z
M -84.7512,-1722.01 L -85.2495,-1722.07 L -85.7361,-1722.2 L -86.2031,-1722.38 L -86.6433,-1722.62 L -87.0497,-1722.92
 L -87.4159,-1723.26 L -87.7361,-1723.65 L -88.0052,-1724.07 L -88.2191,-1724.53 L -88.3743,-1725.01 L -88.4685,-1725.5
 L -88.5,-1726 L -88.5,-1970 L -88.4685,-1970.5 L -88.3743,-1970.99 L -88.2191,-1971.47 L -88.0052,-1971.93
 L -87.7361,-1972.35 L -87.4159,-1972.74 L -87.0497,-1973.08 L -86.6433,-1973.38 L -86.2031,-1973.62 L -85.7361,-1973.8
 L -85.2495,-1973.93 L -84.7512,-1973.99 L 84.7512,-1973.99 L 85.2495,-1973.93 L 85.7361,-1973.8 L 86.2031,-1973.62
 L 86.6433,-1973.38 L 87.0497,-1973.08 L 87.4159,-1972.74 L 87.7361,-1972.35 L 88.0052,-1971.93 L 88.2191,-1971.47
 L 88.3743,-1970.99 L 88.4685,-1970.5 L 88.5,-1970 L 88.5,-1726 L 88.4685,-1725.5 L 88.3743,-1725.01
 L 88.2191,-1724.53 L 88.0052,-1724.07 L 87.7361,-1723.65 L 87.4159,-1723.26 L 87.0497,-1722.92 L 86.6433,-1722.62
 L 86.2031,-1722.38 L 85.7361,-1722.2 L 85.2495,-1722.07 L 84.7512,-1722.01 z
M 85.9369,-1456.59 L 86.5451,-1456.74 L 87.1289,-1456.98 L 87.6791,-1457.28 L 88.1871,-1457.65 L 88.6448,-1458.08
 L 89.0451,-1458.56 L 89.3815,-1459.09 L 89.6489,-1459.66 L 89.8429,-1460.26 L 89.9606,-1460.87 L 90,-1461.5
 L 90,-1706.5 L 89.9606,-1707.13 L 89.8429,-1707.74 L 89.6489,-1708.34 L 89.3815,-1708.91 L 89.0451,-1709.44
 L 88.6448,-1709.92 L 88.1871,-1710.35 L 87.6791,-1710.72 L 87.1289,-1711.02 L 86.5451,-1711.26 L 85.9369,-1711.41
 L 85.3139,-1711.49 L -85.3139,-1711.49 L -85.9369,-1711.41 L -86.5451,-1711.26 L -87.1289,-1711.02 L -87.6791,-1710.72
 L -88.1871,-1710.35 L -88.6448,-1709.92 L -89.0451,-1709.44 L -89.3815,-1708.91 L -89.6489,-1708.34 L -89.8429,-1707.74
 L -89.9606,-1707.13 L -90,-1706.5 L -90,-1461.5 L -89.9606,-1460.87 L -89.8429,-1460.26 L -89.6489,-1459.66
 L -89.3815,-1459.09 L -89.0451,-1458.56 L -88.6448,-1458.08 L -88.1871,-1457.65 L -87.6791,-1457.28 L -87.1289,-1456.98
 L -86.5451,-1456.74 L -85.9369,-1456.59 L -85.3139,-1456.51 L 85.3139,-1456.51 z
M -84.7512,-1458.01 L -85.2495,-1458.07 L -85.7361,-1458.2 L -86.2031,-1458.38 L -86.6433,-1458.62 L -87.0497,-1458.92
 L -87.4159,-1459.26 L -87.7361,-1459.65 L -88.0052,-1460.07 L -88.2191,-1460.53 L -88.3743,-1461.01 L -88.4685,-1461.5
 L -88.5,-1462 L -88.5,-1706 L -88.4685,-1706.5 L -88.3743,-1706.99 L -88.2191,-1707.47 L -88.0052,-1707.93
 L -87.7361,-1708.35 L -87.4159,-1708.74 L -87.0497,-1709.08 L -86.6433,-1709.38 L -86.2031,-1709.62 L -85.7361,-1709.8
 L -85.2495,-1709.93 L -84.7512,-1709.99 L 84.7512,-1709.99 L 85.2495,-1709.93 L 85.7361,-1709.8 L 86.2031,-1709.62
 L 86.6433,-1709.38 L 87.0497,-1709.08 L 87.4159,-1708.74 L 87.7361,-1708.35 L 88.0052,-1707.93 L 88.2191,-1707.47
 L 88.3743,-1706.99 L 88.4685,-1706.5 L 88.5,-1706 L 88.5,-1462 L 88.4685,-1461.5 L 88.3743,-1461.01
 L 88.2191,-1460.53 L 88.0052,-1460.07 L 87.7361,-1459.65 L 87.4159,-1459.26 L 87.0497,-1458.92 L 86.6433,-1458.62
 L 86.2031,-1458.38 L 85.7361,-1458.2 L 85.2495,-1458.07 L 84.7512,-1458.01 z
M 85.9369,-1192.59 L 86.5451,-1192.74 L 87.1289,-1192.98 L 87.6791,-1193.28 L 88.1871,-1193.65 L 88.6448,-1194.08
 L 89.0451,-1194.56 L 89.3815,-1195.09 L 89.6489,-1195.66 L 89.8429,-1196.26 L 89.9606,-1196.87 L 90,-1197.5
 L 90,-1442.5 L 89.9606,-1443.13 L 89.8429,-1443.74 L 89.6489,-1444.34 L 89.3815,-1444.91 L 89.0451,-1445.44
 L 88.6448,-1445.92 L 88.1871,-1446.35 L 87.6791,-1446.72 L 87.1289,-1447.02 L 86.5451,-1447.26 L 85.9369,-1447.41
 L 85.3139,-1447.49 L -85.3139,-1447.49 L -85.9369,-1447.41 L -86.5451,-1447.26 L -87.1289,-1447.02 L -87.6791,-1446.72
 L -88.1871,-1446.35 L -88.6448,-1445.92 L -89.0451,-1445.44 L -89.3815,-1444.91 L -89.6489,-1444.34 L -89.8429,-1443.74
 L -89.9606,-1443.13 L -90,-1442.5 L -90,-1197.5 L -89.9606,-1196.87 L -89.8429,-1196.26 L -89.6489,-1195.66
 L -89.3815,-1195.09 L -89.0451,-1194.56 L -88.6448,-1194.08 L -88.1871,-1193.65 L -87.6791,-1193.28 L -87.1289,-1192.98
 L -86.5451,-1192.74 L -85.9369,-1192.59 L -85.3139,-1192.51 L 85.3139,-1192.51 z
M -84.6955,-1194.89 L -85.0833,-1194.94 L -85.4619,-1195.04 L -85.8254,-1195.18 L -86.168,-1195.37 L -86.4843,-1195.6
 L -86.7692,-1195.87 L -87.0184,-1196.17 L -87.2279,-1196.5 L -87.3943,-1196.85 L -87.5151,-1197.23 L -87.5884,-1197.61
 L -87.6129,-1198 L -87.6129,-1442 L -87.5884,-1442.39 L -87.5151,-1442.77 L -87.3943,-1443.15 L -87.2279,-1443.5
 L -87.0184,-1443.83 L -86.7692,-1444.13 L -86.4843,-1444.4 L -86.168,-1444.63 L -85.8254,-1444.82 L -85.4619,-1444.96
 L -85.0833,-1445.06 L -84.6955,-1445.11 L 84.6955,-1445.11 L 85.0833,-1445.06 L 85.4619,-1444.96 L 85.8254,-1444.82
 L 86.168,-1444.63 L 86.4843,-1444.4 L 86.7692,-1444.13 L 87.0184,-1443.83 L 87.2279,-1443.5 L 87.3943,-1443.15
 L 87.5151,-1442.77 L 87.5884,-1442.39 L 87.6129,-1442 L 87.6129,-1198 L 87.5884,-1197.61 L 87.5151,-1197.23
 L 87.3943,-1196.85 L 87.2279,-1196.5 L 87.0184,-1196.17 L 86.7692,-1195.87 L 86.4843,-1195.6 L 86.168,-1195.37
 L 85.8254,-1195.18 L 85.4619,-1195.04 L 85.0833,-1194.94 L 84.6955,-1194.89 z
M 85.9369,-928.589 L 86.5451,-928.745 L 87.1289,-928.976 L 87.6791,-929.278 L 88.1871,-929.647 L 88.6448,-930.077
 L 89.0451,-930.561 L 89.3815,-931.091 L 89.6489,-931.659 L 89.8429,-932.257 L 89.9606,-932.873 L 90,-933.5
 L 90,-1178.5 L 89.9606,-1179.13 L 89.8429,-1179.74 L 89.6489,-1180.34 L 89.3815,-1180.91 L 89.0451,-1181.44
 L 88.6448,-1181.92 L 88.1871,-1182.35 L 87.6791,-1182.72 L 87.1289,-1183.02 L 86.5451,-1183.26 L 85.9369,-1183.41
 L 85.3139,-1183.49 L -85.3139,-1183.49 L -85.9369,-1183.41 L -86.5451,-1183.26 L -87.1289,-1183.02 L -87.6791,-1182.72
 L -88.1871,-1182.35 L -88.6448,-1181.92 L -89.0451,-1181.44 L -89.3815,-1180.91 L -89.6489,-1180.34 L -89.8429,-1179.74
 L -89.9606,-1179.13 L -90,-1178.5 L -90,-933.5 L -89.9606,-932.873 L -89.8429,-932.257 L -89.6489,-931.659
 L -89.3815,-931.091 L -89.0451,-930.561 L -88.6448,-930.077 L -88.1871,-929.647 L -87.6791,-929.278 L -87.1289,-928.976
 L -86.5451,-928.745 L -85.9369,-928.589 L -85.3139,-928.51 L 85.3139,-928.51 z
M 82.3659,-1173.87 L 82.0999,-1173.9 L 81.8401,-1173.97 L 81.5908,-1174.07 L 81.3559,-1174.2 L 81.1389,-1174.35
 L 80.9434,-1174.54 L 80.7725,-1174.74 L 80.6288,-1174.97 L 80.5146,-1175.21 L 80.4318,-1175.47 L 80.3815,-1175.73
 L 80.3647,-1176 L 80.3815,-1176.27 L 80.4318,-1176.53 L 80.5146,-1176.79 L 80.6288,-1177.03 L 80.7725,-1177.26
 L 80.9434,-1177.46 L 81.1389,-1177.65 L 81.3559,-1177.8 L 81.5908,-1177.93 L 81.8401,-1178.03 L 82.0999,-1178.1
 L 82.3659,-1178.13 L 82.6341,-1178.13 L 82.9001,-1178.1 L 83.1598,-1178.03 L 83.4092,-1177.93 L 83.6441,-1177.8
 L 83.8611,-1177.65 L 84.0566,-1177.46 L 84.2275,-1177.26 L 84.3712,-1177.03 L 84.4853,-1176.79 L 84.5682,-1176.53
 L 84.6185,-1176.27 L 84.6353,-1176 L 84.6185,-1175.73 L 84.5682,-1175.47 L 84.4853,-1175.21 L 84.3712,-1174.97
 L 84.2275,-1174.74 L 84.0566,-1174.54 L 83.8611,-1174.35 L 83.6441,-1174.2 L 83.4092,-1174.07 L 83.1598,-1173.97
 L 82.9001,-1173.9 L 82.6341,-1173.87 z
M -82.6341,-1173.87 L -82.9001,-1173.9 L -83.1598,-1173.97 L -83.4092,-1174.07 L -83.6441,-1174.2 L -83.8611,-1174.35
 L -84.0566,-1174.54 L -84.2275,-1174.74 L -84.3712,-1174.97 L -84.4853,-1175.21 L -84.5682,-1175.47 L -84.6185,-1175.73
 L -84.6353,-1176 L -84.6185,-1176.27 L -84.5682,-1176.53 L -84.4853,-1176.79 L -84.3712,-1177.03 L -84.2275,-1177.26
 L -84.0566,-1177.46 L -83.8611,-1177.65 L -83.6441,-1177.8 L -83.4092,-1177.93 L -83.1598,-1178.03 L -82.9001,-1178.1
 L -82.6341,-1178.13 L -82.3659,-1178.13 L -82.0999,-1178.1 L -81.8401,-1178.03 L -81.5908,-1177.93 L -81.3559,-1177.8
 L -81.1389,-1177.65 L -80.9434,-1177.46 L -80.7725,-1177.26 L -80.6288,-1177.03 L -80.5146,-1176.79 L -80.4318,-1176.53
 L -80.3815,-1176.27 L -80.3647,-1176 L -80.3815,-1175.73 L -80.4318,-1175.47 L -80.5146,-1175.21 L -80.6288,-1174.97
 L -80.7725,-1174.74 L -80.9434,-1174.54 L -81.1389,-1174.35 L -81.3559,-1174.2 L -81.5908,-1174.07 L -81.8401,-1173.97
 L -82.0999,-1173.9 L -82.3659,-1173.87 z
M 82.3659,-933.869 L 82.0999,-933.903 L 81.8401,-933.969 L 81.5908,-934.068 L 81.3559,-934.197 L 81.1389,-934.355
 L 80.9434,-934.538 L 80.7725,-934.745 L 80.6288,-934.971 L 80.5146,-935.214 L 80.4318,-935.469 L 80.3815,-935.732
 L 80.3647,-936 L 80.3815,-936.268 L 80.4318,-936.531 L 80.5146,-936.786 L 80.6288,-937.029 L 80.7725,-937.255
 L 80.9434,-937.462 L 81.1389,-937.645 L 81.3559,-937.803 L 81.5908,-937.932 L 81.8401,-938.031 L 82.0999,-938.097
 L 82.3659,-938.131 L 82.6341,-938.131 L 82.9001,-938.097 L 83.1598,-938.031 L 83.4092,-937.932 L 83.6441,-937.803
 L 83.8611,-937.645 L 84.0566,-937.462 L 84.2275,-937.255 L 84.3712,-937.029 L 84.4853,-936.786 L 84.5682,-936.531
 L 84.6185,-936.268 L 84.6353,-936 L 84.6185,-935.732 L 84.5682,-935.469 L 84.4853,-935.214 L 84.3712,-934.971
 L 84.2275,-934.745 L 84.0566,-934.538 L 83.8611,-934.355 L 83.6441,-934.197 L 83.4092,-934.068 L 83.1598,-933.969
 L 82.9001,-933.903 L 82.6341,-933.869 z
M -82.6341,-933.869 L -82.9001,-933.903 L -83.1598,-933.969 L -83.4092,-934.068 L -83.6441,-934.197 L -83.8611,-934.355
 L -84.0566,-934.538 L -84.2275,-934.745 L -84.3712,-934.971 L -84.4853,-935.214 L -84.5682,-935.469 L -84.6185,-935.732
 L -84.6353,-936 L -84.6185,-936.268 L -84.5682,-936.531 L -84.4853,-936.786 L -84.3712,-937.029 L -84.2275,-937.255
 L -84.0566,-937.462 L -83.8611,-937.645 L -83.6441,-937.803 L -83.4092,-937.932 L -83.1598,-938.031 L -82.9001,-938.097
 L -82.6341,-938.131 L -82.3659,-938.131 L -82.0999,-938.097 L -81.8401,-938.031 L -81.5908,-937.932 L -81.3559,-937.803
 L -81.1389,-937.645 L -80.9434,-937.462 L -80.7725,-937.255 L -80.6288,-937.029 L -80.5146,-936.786 L -80.4318,-936.531
 L -80.3815,-936.268 L -80.3647,-936 L -80.3815,-935.732 L -80.4318,-935.469 L -80.5146,-935.214 L -80.6288,-934.971
 L -80.7725,-934.745 L -80.9434,-934.538 L -81.1389,-934.355 L -81.3559,-934.197 L -81.5908,-934.068 L -81.8401,-933.969
 L -82.0999,-933.903 L -82.3659,-933.869 z
" stroke="black" fill="lightgray" stroke-width="0.5"/>
</svg>
