  0
SECTION
  2
BLOCKS
  0
ENDSEC
  0
SECTION
  2
ENTITIES
  0
LINE
  8
0
 10
10.9369
 20
7101.09
 11
11.5451
 21
7101.24
  0
LINE
  8
0
 10
11.5451
 20
7101.24
 11
12.1289
 21
7101.48
  0
LINE
  8
0
 10
12.1289
 20
7101.48
 11
12.6791
 21
7101.78
  0
LINE
  8
0
 10
12.6791
 20
7101.78
 11
13.1871
 21
7102.15
  0
LINE
  8
0
 10
13.1871
 20
7102.15
 11
13.6448
 21
7102.58
  0
LINE
  8
0
 10
13.6448
 20
7102.58
 11
14.0451
 21
7103.06
  0
LINE
  8
0
 10
14.0451
 20
7103.06
 11
14.3815
 21
7103.59
  0
LINE
  8
0
 10
14.3815
 20
7103.59
 11
14.6489
 21
7104.16
  0
LINE
  8
0
 10
14.6489
 20
7104.16
 11
14.8429
 21
7104.76
  0
LINE
  8
0
 10
14.8429
 20
7104.76
 11
14.9606
 21
7105.37
  0
LINE
  8
0
 10
14.9606
 20
7105.37
 11
15
 21
7106
  0
LINE
  8
0
 10
15
 20
7106
 11
15
 21
7336
  0
LINE
  8
0
 10
15
 20
7336
 11
14.9606
 21
7336.63
  0
LINE
  8
0
 10
14.9606
 20
7336.63
 11
14.8429
 21
7337.24
  0
LINE
  8
0
 10
14.8429
 20
7337.24
 11
14.6489
 21
7337.84
  0
LINE
  8
0
 10
14.6489
 20
7337.84
 11
14.3815
 21
7338.41
  0
LINE
  8
0
 10
14.3815
 20
7338.41
 11
14.0451
 21
7338.94
  0
LINE
  8
0
 10
14.0451
 20
7338.94
 11
13.6448
 21
7339.42
  0
LINE
  8
0
 10
13.6448
 20
7339.42
 11
13.1871
 21
7339.85
  0
LINE
  8
0
 10
13.1871
 20
7339.85
 11
12.6791
 21
7340.22
  0
LINE
  8
0
 10
12.6791
 20
7340.22
 11
12.1289
 21
7340.52
  0
LINE
  8
0
 10
12.1289
 20
7340.52
 11
11.5451
 21
7340.76
  0
LINE
  8
0
 10
11.5451
 20
7340.76
 11
10.9369
 21
7340.91
  0
LINE
  8
0
 10
10.9369
 20
7340.91
 11
10.3139
 21
7340.99
  0
LINE
  8
0
 10
10.3139
 20
7340.99
 11
-10.3139
 21
7340.99
  0
LINE
  8
0
 10
-10.3139
 20
7340.99
 11
-10.9369
 21
7340.91
  0
LINE
  8
0
 10
-10.9369
 20
7340.91
 11
-11.5451
 21
7340.76
  0
LINE
  8
0
 10
-11.5451
 20
7340.76
 11
-12.1289
 21
7340.52
  0
LINE
  8
0
 10
-12.1289
 20
7340.52
 11
-12.6791
 21
7340.22
  0
LINE
  8
0
 10
-12.6791
 20
7340.22
 11
-13.1871
 21
7339.85
  0
LINE
  8
0
 10
-13.1871
 20
7339.85
 11
-13.6448
 21
7339.42
  0
LINE
  8
0
 10
-13.6448
 20
7339.42
 11
-14.0451
 21
7338.94
  0
LINE
  8
0
 10
-14.0451
 20
7338.94
 11
-14.3815
 21
7338.41
  0
LINE
  8
0
 10
-14.3815
 20
7338.41
 11
-14.6489
 21
7337.84
  0
LINE
  8
0
 10
-14.6489
 20
7337.84
 11
-14.8429
 21
7337.24
  0
LINE
  8
0
 10
-14.8429
 20
7337.24
 11
-14.9606
 21
7336.63
  0
LINE
  8
0
 10
-14.9606
 20
7336.63
 11
-15
 21
7336
  0
LINE
  8
0
 10
-15
 20
7336
 11
-15
 21
7106
  0
LINE
  8
0
 10
-15
 20
7106
 11
-14.9606
 21
7105.37
  0
LINE
  8
0
 10
-14.9606
 20
7105.37
 11
-14.8429
 21
7104.76
  0
LINE
  8
0
 10
-14.8429
 20
7104.76
 11
-14.6489
 21
7104.16
  0
LINE
  8
0
 10
-14.6489
 20
7104.16
 11
-14.3815
 21
7103.59
  0
LINE
  8
0
 10
-14.3815
 20
7103.59
 11
-14.0451
 21
7103.06
  0
LINE
  8
0
 10
-14.0451
 20
7103.06
 11
-13.6448
 21
7102.58
  0
LINE
  8
0
 10
-13.6448
 20
7102.58
 11
-13.1871
 21
7102.15
  0
LINE
  8
0
 10
-13.1871
 20
7102.15
 11
-12.6791
 21
7101.78
  0
LINE
  8
0
 10
-12.6791
 20
7101.78
 11
-12.1289
 21
7101.48
  0
LINE
  8
0
 10
-12.1289
 20
7101.48
 11
-11.5451
 21
7101.24
  0
LINE
  8
0
 10
-11.5451
 20
7101.24
 11
-10.9369
 21
7101.09
  0
LINE
  8
0
 10
-10.9369
 20
7101.09
 11
-10.3139
 21
7101.01
  0
LINE
  8
0
 10
-10.3139
 20
7101.01
 11
10.3139
 21
7101.01
  0
LINE
  8
0
 10
10.3139
 20
7101.01
 11
10.9369
 21
7101.09
  0
LINE
  8
0
 10
-9.75116
 20
7102.51
 11
-10.2495
 21
7102.57
  0
LINE
  8
0
 10
-10.2495
 20
7102.57
 11
-10.7361
 21
7102.7
  0
LINE
  8
0
 10
-10.7361
 20
7102.7
 11
-11.2031
 21
7102.88
  0
LINE
  8
0
 10
-11.2031
 20
7102.88
 11
-11.6433
 21
7103.12
  0
LINE
  8
0
 10
-11.6433
 20
7103.12
 11
-12.0497
 21
7103.42
  0
LINE
  8
0
 10
-12.0497
 20
7103.42
 11
-12.4159
 21
7103.76
  0
LINE
  8
0
 10
-12.4159
 20
7103.76
 11
-12.7361
 21
7104.15
  0
LINE
  8
0
 10
-12.7361
 20
7104.15
 11
-13.0052
 21
7104.57
  0
LINE
  8
0
 10
-13.0052
 20
7104.57
 11
-13.2191
 21
7105.03
  0
LINE
  8
0
 10
-13.2191
 20
7105.03
 11
-13.3743
 21
7105.51
  0
LINE
  8
0
 10
-13.3743
 20
7105.51
 11
-13.4684
 21
7106
  0
LINE
  8
0
 10
-13.4684
 20
7106
 11
-13.5
 21
7106.5
  0
LINE
  8
0
 10
-13.5
 20
7106.5
 11
-13.5
 21
7335.5
  0
LINE
  8
0
 10
-13.5
 20
7335.5
 11
-13.4684
 21
7336
  0
LINE
  8
0
 10
-13.4684
 20
7336
 11
-13.3743
 21
7336.49
  0
LINE
  8
0
 10
-13.3743
 20
7336.49
 11
-13.2191
 21
7336.97
  0
LINE
  8
0
 10
-13.2191
 20
7336.97
 11
-13.0052
 21
7337.43
  0
LINE
  8
0
 10
-13.0052
 20
7337.43
 11
-12.7361
 21
7337.85
  0
LINE
  8
0
 10
-12.7361
 20
7337.85
 11
-12.4159
 21
7338.24
  0
LINE
  8
0
 10
-12.4159
 20
7338.24
 11
-12.0497
 21
7338.58
  0
LINE
  8
0
 10
-12.0497
 20
7338.58
 11
-11.6433
 21
7338.88
  0
LINE
  8
0
 10
-11.6433
 20
7338.88
 11
-11.2031
 21
7339.12
  0
LINE
  8
0
 10
-11.2031
 20
7339.12
 11
-10.7361
 21
7339.3
  0
LINE
  8
0
 10
-10.7361
 20
7339.3
 11
-10.2495
 21
7339.43
  0
LINE
  8
0
 10
-10.2495
 20
7339.43
 11
-9.75116
 21
7339.49
  0
LINE
  8
0
 10
-9.75116
 20
7339.49
 11
9.75116
 21
7339.49
  0
LINE
  8
0
 10
9.75116
 20
7339.49
 11
10.2495
 21
7339.43
  0
LINE
  8
0
 10
10.2495
 20
7339.43
 11
10.7361
 21
7339.3
  0
LINE
  8
0
 10
10.7361
 20
7339.3
 11
11.2031
 21
7339.12
  0
LINE
  8
0
 10
11.2031
 20
7339.12
 11
11.6433
 21
7338.88
  0
LINE
  8
0
 10
11.6433
 20
7338.88
 11
12.0497
 21
7338.58
  0
LINE
  8
0
 10
12.0497
 20
7338.58
 11
12.4159
 21
7338.24
  0
LINE
  8
0
 10
12.4159
 20
7338.24
 11
12.7361
 21
7337.85
  0
LINE
  8
0
 10
12.7361
 20
7337.85
 11
13.0052
 21
7337.43
  0
LINE
  8
0
 10
13.0052
 20
7337.43
 11
13.2191
 21
7336.97
  0
LINE
  8
0
 10
13.2191
 20
7336.97
 11
13.3743
 21
7336.49
  0
LINE
  8
0
 10
13.3743
 20
7336.49
 11
13.4684
 21
7336
  0
LINE
  8
0
 10
13.4684
 20
7336
 11
13.5
 21
7335.5
  0
LINE
  8
0
 10
13.5
 20
7335.5
 11
13.5
 21
7106.5
  0
LINE
  8
0
 10
13.5
 20
7106.5
 11
13.4684
 21
7106
  0
LINE
  8
0
 10
13.4684
 20
7106
 11
13.3743
 21
7105.51
  0
LINE
  8
0
 10
13.3743
 20
7105.51
 11
13.2191
 21
7105.03
  0
LINE
  8
0
 10
13.2191
 20
7105.03
 11
13.0052
 21
7104.57
  0
LINE
  8
0
 10
13.0052
 20
7104.57
 11
12.7361
 21
7104.15
  0
LINE
  8
0
 10
12.7361
 20
7104.15
 11
12.4159
 21
7103.76
  0
LINE
  8
0
 10
12.4159
 20
7103.76
 11
12.0497
 21
7103.42
  0
LINE
  8
0
 10
12.0497
 20
7103.42
 11
11.6433
 21
7103.12
  0
LINE
  8
0
 10
11.6433
 20
7103.12
 11
11.2031
 21
7102.88
  0
LINE
  8
0
 10
11.2031
 20
7102.88
 11
10.7361
 21
7102.7
  0
LINE
  8
0
 10
10.7361
 20
7102.7
 11
10.2495
 21
7102.57
  0
LINE
  8
0
 10
10.2495
 20
7102.57
 11
9.75116
 21
7102.51
  0
LINE
  8
0
 10
9.75116
 20
7102.51
 11
-9.75116
 21
7102.51
  0
LINE
  8
0
 10
10.9369
 20
6852.09
 11
11.5451
 21
6852.24
  0
LINE
  8
0
 10
11.5451
 20
6852.24
 11
12.1289
 21
6852.48
  0
LINE
  8
0
 10
12.1289
 20
6852.48
 11
12.6791
 21
6852.78
  0
LINE
  8
0
 10
12.6791
 20
6852.78
 11
13.1871
 21
6853.15
  0
LINE
  8
0
 10
13.1871
 20
6853.15
 11
13.6448
 21
6853.58
  0
LINE
  8
0
 10
13.6448
 20
6853.58
 11
14.0451
 21
6854.06
  0
LINE
  8
0
 10
14.0451
 20
6854.06
 11
14.3815
 21
6854.59
  0
LINE
  8
0
 10
14.3815
 20
6854.59
 11
14.6489
 21
6855.16
  0
LINE
  8
0
 10
14.6489
 20
6855.16
 11
14.8429
 21
6855.76
  0
LINE
  8
0
 10
14.8429
 20
6855.76
 11
14.9606
 21
6856.37
  0
LINE
  8
0
 10
14.9606
 20
6856.37
 11
15
 21
6857
  0
LINE
  8
0
 10
15
 20
6857
 11
15
 21
7087
  0
LINE
  8
0
 10
15
 20
7087
 11
14.9606
 21
7087.63
  0
LINE
  8
0
 10
14.9606
 20
7087.63
 11
14.8429
 21
7088.24
  0
LINE
  8
0
 10
14.8429
 20
7088.24
 11
14.6489
 21
7088.84
  0
LINE
  8
0
 10
14.6489
 20
7088.84
 11
14.3815
 21
7089.41
  0
LINE
  8
0
 10
14.3815
 20
7089.41
 11
14.0451
 21
7089.94
  0
LINE
  8
0
 10
14.0451
 20
7089.94
 11
13.6448
 21
7090.42
  0
LINE
  8
0
 10
13.6448
 20
7090.42
 11
13.1871
 21
7090.85
  0
LINE
  8
0
 10
13.1871
 20
7090.85
 11
12.6791
 21
7091.22
  0
LINE
  8
0
 10
12.6791
 20
7091.22
 11
12.1289
 21
7091.52
  0
LINE
  8
0
 10
12.1289
 20
7091.52
 11
11.5451
 21
7091.76
  0
LINE
  8
0
 10
11.5451
 20
7091.76
 11
10.9369
 21
7091.91
  0
LINE
  8
0
 10
10.9369
 20
7091.91
 11
10.3139
 21
7091.99
  0
LINE
  8
0
 10
10.3139
 20
7091.99
 11
-10.3139
 21
7091.99
  0
LINE
  8
0
 10
-10.3139
 20
7091.99
 11
-10.9369
 21
7091.91
  0
LINE
  8
0
 10
-10.9369
 20
7091.91
 11
-11.5451
 21
7091.76
  0
LINE
  8
0
 10
-11.5451
 20
7091.76
 11
-12.1289
 21
7091.52
  0
LINE
  8
0
 10
-12.1289
 20
7091.52
 11
-12.6791
 21
7091.22
  0
LINE
  8
0
 10
-12.6791
 20
7091.22
 11
-13.1871
 21
7090.85
  0
LINE
  8
0
 10
-13.1871
 20
7090.85
 11
-13.6448
 21
7090.42
  0
LINE
  8
0
 10
-13.6448
 20
7090.42
 11
-14.0451
 21
7089.94
  0
LINE
  8
0
 10
-14.0451
 20
7089.94
 11
-14.3815
 21
7089.41
  0
LINE
  8
0
 10
-14.3815
 20
7089.41
 11
-14.6489
 21
7088.84
  0
LINE
  8
0
 10
-14.6489
 20
7088.84
 11
-14.8429
 21
7088.24
  0
LINE
  8
0
 10
-14.8429
 20
7088.24
 11
-14.9606
 21
7087.63
  0
LINE
  8
0
 10
-14.9606
 20
7087.63
 11
-15
 21
7087
  0
LINE
  8
0
 10
-15
 20
7087
 11
-15
 21
6857
  0
LINE
  8
0
 10
-15
 20
6857
 11
-14.9606
 21
6856.37
  0
LINE
  8
0
 10
-14.9606
 20
6856.37
 11
-14.8429
 21
6855.76
  0
LINE
  8
0
 10
-14.8429
 20
6855.76
 11
-14.6489
 21
6855.16
  0
LINE
  8
0
 10
-14.6489
 20
6855.16
 11
-14.3815
 21
6854.59
  0
LINE
  8
0
 10
-14.3815
 20
6854.59
 11
-14.0451
 21
6854.06
  0
LINE
  8
0
 10
-14.0451
 20
6854.06
 11
-13.6448
 21
6853.58
  0
LINE
  8
0
 10
-13.6448
 20
6853.58
 11
-13.1871
 21
6853.15
  0
LINE
  8
0
 10
-13.1871
 20
6853.15
 11
-12.6791
 21
6852.78
  0
LINE
  8
0
 10
-12.6791
 20
6852.78
 11
-12.1289
 21
6852.48
  0
LINE
  8
0
 10
-12.1289
 20
6852.48
 11
-11.5451
 21
6852.24
  0
LINE
  8
0
 10
-11.5451
 20
6852.24
 11
-10.9369
 21
6852.09
  0
LINE
  8
0
 10
-10.9369
 20
6852.09
 11
-10.3139
 21
6852.01
  0
LINE
  8
0
 10
-10.3139
 20
6852.01
 11
10.3139
 21
6852.01
  0
LINE
  8
0
 10
10.3139
 20
6852.01
 11
10.9369
 21
6852.09
  0
LINE
  8
0
 10
-9.75116
 20
6853.51
 11
-10.2495
 21
6853.57
  0
LINE
  8
0
 10
-10.2495
 20
6853.57
 11
-10.7361
 21
6853.7
  0
LINE
  8
0
 10
-10.7361
 20
6853.7
 11
-11.2031
 21
6853.88
  0
LINE
  8
0
 10
-11.2031
 20
6853.88
 11
-11.6433
 21
6854.12
  0
LINE
  8
0
 10
-11.6433
 20
6854.12
 11
-12.0497
 21
6854.42
  0
LINE
  8
0
 10
-12.0497
 20
6854.42
 11
-12.4159
 21
6854.76
  0
LINE
  8
0
 10
-12.4159
 20
6854.76
 11
-12.7361
 21
6855.15
  0
LINE
  8
0
 10
-12.7361
 20
6855.15
 11
-13.0052
 21
6855.57
  0
LINE
  8
0
 10
-13.0052
 20
6855.57
 11
-13.2191
 21
6856.03
  0
LINE
  8
0
 10
-13.2191
 20
6856.03
 11
-13.3743
 21
6856.51
  0
LINE
  8
0
 10
-13.3743
 20
6856.51
 11
-13.4684
 21
6857
  0
LINE
  8
0
 10
-13.4684
 20
6857
 11
-13.5
 21
6857.5
  0
LINE
  8
0
 10
-13.5
 20
6857.5
 11
-13.5
 21
7086.5
  0
LINE
  8
0
 10
-13.5
 20
7086.5
 11
-13.4684
 21
7087
  0
LINE
  8
0
 10
-13.4684
 20
7087
 11
-13.3743
 21
7087.49
  0
LINE
  8
0
 10
-13.3743
 20
7087.49
 11
-13.2191
 21
7087.97
  0
LINE
  8
0
 10
-13.2191
 20
7087.97
 11
-13.0052
 21
7088.43
  0
LINE
  8
0
 10
-13.0052
 20
7088.43
 11
-12.7361
 21
7088.85
  0
LINE
  8
0
 10
-12.7361
 20
7088.85
 11
-12.4159
 21
7089.24
  0
LINE
  8
0
 10
-12.4159
 20
7089.24
 11
-12.0497
 21
7089.58
  0
LINE
  8
0
 10
-12.0497
 20
7089.58
 11
-11.6433
 21
7089.88
  0
LINE
  8
0
 10
-11.6433
 20
7089.88
 11
-11.2031
 21
7090.12
  0
LINE
  8
0
 10
-11.2031
 20
7090.12
 11
-10.7361
 21
7090.3
  0
LINE
  8
0
 10
-10.7361
 20
7090.3
 11
-10.2495
 21
7090.43
  0
LINE
  8
0
 10
-10.2495
 20
7090.43
 11
-9.75116
 21
7090.49
  0
LINE
  8
0
 10
-9.75116
 20
7090.49
 11
9.75116
 21
7090.49
  0
LINE
  8
0
 10
9.75116
 20
7090.49
 11
10.2495
 21
7090.43
  0
LINE
  8
0
 10
10.2495
 20
7090.43
 11
10.7361
 21
7090.3
  0
LINE
  8
0
 10
10.7361
 20
7090.3
 11
11.2031
 21
7090.12
  0
LINE
  8
0
 10
11.2031
 20
7090.12
 11
11.6433
 21
7089.88
  0
LINE
  8
0
 10
11.6433
 20
7089.88
 11
12.0497
 21
7089.58
  0
LINE
  8
0
 10
12.0497
 20
7089.58
 11
12.4159
 21
7089.24
  0
LINE
  8
0
 10
12.4159
 20
7089.24
 11
12.7361
 21
7088.85
  0
LINE
  8
0
 10
12.7361
 20
7088.85
 11
13.0052
 21
7088.43
  0
LINE
  8
0
 10
13.0052
 20
7088.43
 11
13.2191
 21
7087.97
  0
LINE
  8
0
 10
13.2191
 20
7087.97
 11
13.3743
 21
7087.49
  0
LINE
  8
0
 10
13.3743
 20
7087.49
 11
13.4684
 21
7087
  0
LINE
  8
0
 10
13.4684
 20
7087
 11
13.5
 21
7086.5
  0
LINE
  8
0
 10
13.5
 20
7086.5
 11
13.5
 21
6857.5
  0
LINE
  8
0
 10
13.5
 20
6857.5
 11
13.4684
 21
6857
  0
LINE
  8
0
 10
13.4684
 20
6857
 11
13.3743
 21
6856.51
  0
LINE
  8
0
 10
13.3743
 20
6856.51
 11
13.2191
 21
6856.03
  0
LINE
  8
0
 10
13.2191
 20
6856.03
 11
13.0052
 21
6855.57
  0
LINE
  8
0
 10
13.0052
 20
6855.57
 11
12.7361
 21
6855.15
  0
LINE
  8
0
 10
12.7361
 20
6855.15
 11
12.4159
 21
6854.76
  0
LINE
  8
0
 10
12.4159
 20
6854.76
 11
12.0497
 21
6854.42
  0
LINE
  8
0
 10
12.0497
 20
6854.42
 11
11.6433
 21
6854.12
  0
LINE
  8
0
 10
11.6433
 20
6854.12
 11
11.2031
 21
6853.88
  0
LINE
  8
0
 10
11.2031
 20
6853.88
 11
10.7361
 21
6853.7
  0
LINE
  8
0
 10
10.7361
 20
6853.7
 11
10.2495
 21
6853.57
  0
LINE
  8
0
 10
10.2495
 20
6853.57
 11
9.75116
 21
6853.51
  0
LINE
  8
0
 10
9.75116
 20
6853.51
 11
-9.75116
 21
6853.51
  0
LINE
  8
0
 10
10.9369
 20
6603.09
 11
11.5451
 21
6603.24
  0
LINE
  8
0
 10
11.5451
 20
6603.24
 11
12.1289
 21
6603.48
  0
LINE
  8
0
 10
12.1289
 20
6603.48
 11
12.6791
 21
6603.78
  0
LINE
  8
0
 10
12.6791
 20
6603.78
 11
13.1871
 21
6604.15
  0
LINE
  8
0
 10
13.1871
 20
6604.15
 11
13.6448
 21
6604.58
  0
LINE
  8
0
 10
13.6448
 20
6604.58
 11
14.0451
 21
6605.06
  0
LINE
  8
0
 10
14.0451
 20
6605.06
 11
14.3815
 21
6605.59
  0
LINE
  8
0
 10
14.3815
 20
6605.59
 11
14.6489
 21
6606.16
  0
LINE
  8
0
 10
14.6489
 20
6606.16
 11
14.8429
 21
6606.76
  0
LINE
  8
0
 10
14.8429
 20
6606.76
 11
14.9606
 21
6607.37
  0
LINE
  8
0
 10
14.9606
 20
6607.37
 11
15
 21
6608
  0
LINE
  8
0
 10
15
 20
6608
 11
15
 21
6838
  0
LINE
  8
0
 10
15
 20
6838
 11
14.9606
 21
6838.63
  0
LINE
  8
0
 10
14.9606
 20
6838.63
 11
14.8429
 21
6839.24
  0
LINE
  8
0
 10
14.8429
 20
6839.24
 11
14.6489
 21
6839.84
  0
LINE
  8
0
 10
14.6489
 20
6839.84
 11
14.3815
 21
6840.41
  0
LINE
  8
0
 10
14.3815
 20
6840.41
 11
14.0451
 21
6840.94
  0
LINE
  8
0
 10
14.0451
 20
6840.94
 11
13.6448
 21
6841.42
  0
LINE
  8
0
 10
13.6448
 20
6841.42
 11
13.1871
 21
6841.85
  0
LINE
  8
0
 10
13.1871
 20
6841.85
 11
12.6791
 21
6842.22
  0
LINE
  8
0
 10
12.6791
 20
6842.22
 11
12.1289
 21
6842.52
  0
LINE
  8
0
 10
12.1289
 20
6842.52
 11
11.5451
 21
6842.76
  0
LINE
  8
0
 10
11.5451
 20
6842.76
 11
10.9369
 21
6842.91
  0
LINE
  8
0
 10
10.9369
 20
6842.91
 11
10.3139
 21
6842.99
  0
LINE
  8
0
 10
10.3139
 20
6842.99
 11
-10.3139
 21
6842.99
  0
LINE
  8
0
 10
-10.3139
 20
6842.99
 11
-10.9369
 21
6842.91
  0
LINE
  8
0
 10
-10.9369
 20
6842.91
 11
-11.5451
 21
6842.76
  0
LINE
  8
0
 10
-11.5451
 20
6842.76
 11
-12.1289
 21
6842.52
  0
LINE
  8
0
 10
-12.1289
 20
6842.52
 11
-12.6791
 21
6842.22
  0
LINE
  8
0
 10
-12.6791
 20
6842.22
 11
-13.1871
 21
6841.85
  0
LINE
  8
0
 10
-13.1871
 20
6841.85
 11
-13.6448
 21
6841.42
  0
LINE
  8
0
 10
-13.6448
 20
6841.42
 11
-14.0451
 21
6840.94
  0
LINE
  8
0
 10
-14.0451
 20
6840.94
 11
-14.3815
 21
6840.41
  0
LINE
  8
0
 10
-14.3815
 20
6840.41
 11
-14.6489
 21
6839.84
  0
LINE
  8
0
 10
-14.6489
 20
6839.84
 11
-14.8429
 21
6839.24
  0
LINE
  8
0
 10
-14.8429
 20
6839.24
 11
-14.9606
 21
6838.63
  0
LINE
  8
0
 10
-14.9606
 20
6838.63
 11
-15
 21
6838
  0
LINE
  8
0
 10
-15
 20
6838
 11
-15
 21
6608
  0
LINE
  8
0
 10
-15
 20
6608
 11
-14.9606
 21
6607.37
  0
LINE
  8
0
 10
-14.9606
 20
6607.37
 11
-14.8429
 21
6606.76
  0
LINE
  8
0
 10
-14.8429
 20
6606.76
 11
-14.6489
 21
6606.16
  0
LINE
  8
0
 10
-14.6489
 20
6606.16
 11
-14.3815
 21
6605.59
  0
LINE
  8
0
 10
-14.3815
 20
6605.59
 11
-14.0451
 21
6605.06
  0
LINE
  8
0
 10
-14.0451
 20
6605.06
 11
-13.6448
 21
6604.58
  0
LINE
  8
0
 10
-13.6448
 20
6604.58
 11
-13.1871
 21
6604.15
  0
LINE
  8
0
 10
-13.1871
 20
6604.15
 11
-12.6791
 21
6603.78
  0
LINE
  8
0
 10
-12.6791
 20
6603.78
 11
-12.1289
 21
6603.48
  0
LINE
  8
0
 10
-12.1289
 20
6603.48
 11
-11.5451
 21
6603.24
  0
LINE
  8
0
 10
-11.5451
 20
6603.24
 11
-10.9369
 21
6603.09
  0
LINE
  8
0
 10
-10.9369
 20
6603.09
 11
-10.3139
 21
6603.01
  0
LINE
  8
0
 10
-10.3139
 20
6603.01
 11
10.3139
 21
6603.01
  0
LINE
  8
0
 10
10.3139
 20
6603.01
 11
10.9369
 21
6603.09
  0
LINE
  8
0
 10
-9.75116
 20
6604.51
 11
-10.2495
 21
6604.57
  0
LINE
  8
0
 10
-10.2495
 20
6604.57
 11
-10.7361
 21
6604.7
  0
LINE
  8
0
 10
-10.7361
 20
6604.7
 11
-11.2031
 21
6604.88
  0
LINE
  8
0
 10
-11.2031
 20
6604.88
 11
-11.6433
 21
6605.12
  0
LINE
  8
0
 10
-11.6433
 20
6605.12
 11
-12.0497
 21
6605.42
  0
LINE
  8
0
 10
-12.0497
 20
6605.42
 11
-12.4159
 21
6605.76
  0
LINE
  8
0
 10
-12.4159
 20
6605.76
 11
-12.7361
 21
6606.15
  0
LINE
  8
0
 10
-12.7361
 20
6606.15
 11
-13.0052
 21
6606.57
  0
LINE
  8
0
 10
-13.0052
 20
6606.57
 11
-13.2191
 21
6607.03
  0
LINE
  8
0
 10
-13.2191
 20
6607.03
 11
-13.3743
 21
6607.51
  0
LINE
  8
0
 10
-13.3743
 20
6607.51
 11
-13.4684
 21
6608
  0
LINE
  8
0
 10
-13.4684
 20
6608
 11
-13.5
 21
6608.5
  0
LINE
  8
0
 10
-13.5
 20
6608.5
 11
-13.5
 21
6837.5
  0
LINE
  8
0
 10
-13.5
 20
6837.5
 11
-13.4684
 21
6838
  0
LINE
  8
0
 10
-13.4684
 20
6838
 11
-13.3743
 21
6838.49
  0
LINE
  8
0
 10
-13.3743
 20
6838.49
 11
-13.2191
 21
6838.97
  0
LINE
  8
0
 10
-13.2191
 20
6838.97
 11
-13.0052
 21
6839.43
  0
LINE
  8
0
 10
-13.0052
 20
6839.43
 11
-12.7361
 21
6839.85
  0
LINE
  8
0
 10
-12.7361
 20
6839.85
 11
-12.4159
 21
6840.24
  0
LINE
  8
0
 10
-12.4159
 20
6840.24
 11
-12.0497
 21
6840.58
  0
LINE
  8
0
 10
-12.0497
 20
6840.58
 11
-11.6433
 21
6840.88
  0
LINE
  8
0
 10
-11.6433
 20
6840.88
 11
-11.2031
 21
6841.12
  0
LINE
  8
0
 10
-11.2031
 20
6841.12
 11
-10.7361
 21
6841.3
  0
LINE
  8
0
 10
-10.7361
 20
6841.3
 11
-10.2495
 21
6841.43
  0
LINE
  8
0
 10
-10.2495
 20
6841.43
 11
-9.75116
 21
6841.49
  0
LINE
  8
0
 10
-9.75116
 20
6841.49
 11
9.75116
 21
6841.49
  0
LINE
  8
0
 10
9.75116
 20
6841.49
 11
10.2495
 21
6841.43
  0
LINE
  8
0
 10
10.2495
 20
6841.43
 11
10.7361
 21
6841.3
  0
LINE
  8
0
 10
10.7361
 20
6841.3
 11
11.2031
 21
6841.12
  0
LINE
  8
0
 10
11.2031
 20
6841.12
 11
11.6433
 21
6840.88
  0
LINE
  8
0
 10
11.6433
 20
6840.88
 11
12.0497
 21
6840.58
  0
LINE
  8
0
 10
12.0497
 20
6840.58
 11
12.4159
 21
6840.24
  0
LINE
  8
0
 10
12.4159
 20
6840.24
 11
12.7361
 21
6839.85
  0
LINE
  8
0
 10
12.7361
 20
6839.85
 11
13.0052
 21
6839.43
  0
LINE
  8
0
 10
13.0052
 20
6839.43
 11
13.2191
 21
6838.97
  0
LINE
  8
0
 10
13.2191
 20
6838.97
 11
13.3743
 21
6838.49
  0
LINE
  8
0
 10
13.3743
 20
6838.49
 11
13.4684
 21
6838
  0
LINE
  8
0
 10
13.4684
 20
6838
 11
13.5
 21
6837.5
  0
LINE
  8
0
 10
13.5
 20
6837.5
 11
13.5
 21
6608.5
  0
LINE
  8
0
 10
13.5
 20
6608.5
 11
13.4684
 21
6608
  0
LINE
  8
0
 10
13.4684
 20
6608
 11
13.3743
 21
6607.51
  0
LINE
  8
0
 10
13.3743
 20
6607.51
 11
13.2191
 21
6607.03
  0
LINE
  8
0
 10
13.2191
 20
6607.03
 11
13.0052
 21
6606.57
  0
LINE
  8
0
 10
13.0052
 20
6606.57
 11
12.7361
 21
6606.15
  0
LINE
  8
0
 10
12.7361
 20
6606.15
 11
12.4159
 21
6605.76
  0
LINE
  8
0
 10
12.4159
 20
6605.76
 11
12.0497
 21
6605.42
  0
LINE
  8
0
 10
12.0497
 20
6605.42
 11
11.6433
 21
6605.12
  0
LINE
  8
0
 10
11.6433
 20
6605.12
 11
11.2031
 21
6604.88
  0
LINE
  8
0
 10
11.2031
 20
6604.88
 11
10.7361
 21
6604.7
  0
LINE
  8
0
 10
10.7361
 20
6604.7
 11
10.2495
 21
6604.57
  0
LINE
  8
0
 10
10.2495
 20
6604.57
 11
9.75116
 21
6604.51
  0
LINE
  8
0
 10
9.75116
 20
6604.51
 11
-9.75116
 21
6604.51
  0
LINE
  8
0
 10
10.9369
 20
6354.09
 11
11.5451
 21
6354.24
  0
LINE
  8
0
 10
11.5451
 20
6354.24
 11
12.1289
 21
6354.48
  0
LINE
  8
0
 10
12.1289
 20
6354.48
 11
12.6791
 21
6354.78
  0
LINE
  8
0
 10
12.6791
 20
6354.78
 11
13.1871
 21
6355.15
  0
LINE
  8
0
 10
13.1871
 20
6355.15
 11
13.6448
 21
6355.58
  0
LINE
  8
0
 10
13.6448
 20
6355.58
 11
14.0451
 21
6356.06
  0
LINE
  8
0
 10
14.0451
 20
6356.06
 11
14.3815
 21
6356.59
  0
LINE
  8
0
 10
14.3815
 20
6356.59
 11
14.6489
 21
6357.16
  0
LINE
  8
0
 10
14.6489
 20
6357.16
 11
14.8429
 21
6357.76
  0
LINE
  8
0
 10
14.8429
 20
6357.76
 11
14.9606
 21
6358.37
  0
LINE
  8
0
 10
14.9606
 20
6358.37
 11
15
 21
6359
  0
LINE
  8
0
 10
15
 20
6359
 11
15
 21
6589
  0
LINE
  8
0
 10
15
 20
6589
 11
14.9606
 21
6589.63
  0
LINE
  8
0
 10
14.9606
 20
6589.63
 11
14.8429
 21
6590.24
  0
LINE
  8
0
 10
14.8429
 20
6590.24
 11
14.6489
 21
6590.84
  0
LINE
  8
0
 10
14.6489
 20
6590.84
 11
14.3815
 21
6591.41
  0
LINE
  8
0
 10
14.3815
 20
6591.41
 11
14.0451
 21
6591.94
  0
LINE
  8
0
 10
14.0451
 20
6591.94
 11
13.6448
 21
6592.42
  0
LINE
  8
0
 10
13.6448
 20
6592.42
 11
13.1871
 21
6592.85
  0
LINE
  8
0
 10
13.1871
 20
6592.85
 11
12.6791
 21
6593.22
  0
LINE
  8
0
 10
12.6791
 20
6593.22
 11
12.1289
 21
6593.52
  0
LINE
  8
0
 10
12.1289
 20
6593.52
 11
11.5451
 21
6593.76
  0
LINE
  8
0
 10
11.5451
 20
6593.76
 11
10.9369
 21
6593.91
  0
LINE
  8
0
 10
10.9369
 20
6593.91
 11
10.3139
 21
6593.99
  0
LINE
  8
0
 10
10.3139
 20
6593.99
 11
-10.3139
 21
6593.99
  0
LINE
  8
0
 10
-10.3139
 20
6593.99
 11
-10.9369
 21
6593.91
  0
LINE
  8
0
 10
-10.9369
 20
6593.91
 11
-11.5451
 21
6593.76
  0
LINE
  8
0
 10
-11.5451
 20
6593.76
 11
-12.1289
 21
6593.52
  0
LINE
  8
0
 10
-12.1289
 20
6593.52
 11
-12.6791
 21
6593.22
  0
LINE
  8
0
 10
-12.6791
 20
6593.22
 11
-13.1871
 21
6592.85
  0
LINE
  8
0
 10
-13.1871
 20
6592.85
 11
-13.6448
 21
6592.42
  0
LINE
  8
0
 10
-13.6448
 20
6592.42
 11
-14.0451
 21
6591.94
  0
LINE
  8
0
 10
-14.0451
 20
6591.94
 11
-14.3815
 21
6591.41
  0
LINE
  8
0
 10
-14.3815
 20
6591.41
 11
-14.6489
 21
6590.84
  0
LINE
  8
0
 10
-14.6489
 20
6590.84
 11
-14.8429
 21
6590.24
  0
LINE
  8
0
 10
-14.8429
 20
6590.24
 11
-14.9606
 21
6589.63
  0
LINE
  8
0
 10
-14.9606
 20
6589.63
 11
-15
 21
6589
  0
LINE
  8
0
 10
-15
 20
6589
 11
-15
 21
6359
  0
LINE
  8
0
 10
-15
 20
6359
 11
-14.9606
 21
6358.37
  0
LINE
  8
0
 10
-14.9606
 20
6358.37
 11
-14.8429
 21
6357.76
  0
LINE
  8
0
 10
-14.8429
 20
6357.76
 11
-14.6489
 21
6357.16
  0
LINE
  8
0
 10
-14.6489
 20
6357.16
 11
-14.3815
 21
6356.59
  0
LINE
  8
0
 10
-14.3815
 20
6356.59
 11
-14.0451
 21
6356.06
  0
LINE
  8
0
 10
-14.0451
 20
6356.06
 11
-13.6448
 21
6355.58
  0
LINE
  8
0
 10
-13.6448
 20
6355.58
 11
-13.1871
 21
6355.15
  0
LINE
  8
0
 10
-13.1871
 20
6355.15
 11
-12.6791
 21
6354.78
  0
LINE
  8
0
 10
-12.6791
 20
6354.78
 11
-12.1289
 21
6354.48
  0
LINE
  8
0
 10
-12.1289
 20
6354.48
 11
-11.5451
 21
6354.24
  0
LINE
  8
0
 10
-11.5451
 20
6354.24
 11
-10.9369
 21
6354.09
  0
LINE
  8
0
 10
-10.9369
 20
6354.09
 11
-10.3139
 21
6354.01
  0
LINE
  8
0
 10
-10.3139
 20
6354.01
 11
10.3139
 21
6354.01
  0
LINE
  8
0
 10
10.3139
 20
6354.01
 11
10.9369
 21
6354.09
  0
LINE
  8
0
 10
-9.75116
 20
6355.51
 11
-10.2495
 21
6355.57
  0
LINE
  8
0
 10
-10.2495
 20
6355.57
 11
-10.7361
 21
6355.7
  0
LINE
  8
0
 10
-10.7361
 20
6355.7
 11
-11.2031
 21
6355.88
  0
LINE
  8
0
 10
-11.2031
 20
6355.88
 11
-11.6433
 21
6356.12
  0
LINE
  8
0
 10
-11.6433
 20
6356.12
 11
-12.0497
 21
6356.42
  0
LINE
  8
0
 10
-12.0497
 20
6356.42
 11
-12.4159
 21
6356.76
  0
LINE
  8
0
 10
-12.4159
 20
6356.76
 11
-12.7361
 21
6357.15
  0
LINE
  8
0
 10
-12.7361
 20
6357.15
 11
-13.0052
 21
6357.57
  0
LINE
  8
0
 10
-13.0052
 20
6357.57
 11
-13.2191
 21
6358.03
  0
LINE
  8
0
 10
-13.2191
 20
6358.03
 11
-13.3743
 21
6358.51
  0
LINE
  8
0
 10
-13.3743
 20
6358.51
 11
-13.4684
 21
6359
  0
LINE
  8
0
 10
-13.4684
 20
6359
 11
-13.5
 21
6359.5
  0
LINE
  8
0
 10
-13.5
 20
6359.5
 11
-13.5
 21
6588.5
  0
LINE
  8
0
 10
-13.5
 20
6588.5
 11
-13.4684
 21
6589
  0
LINE
  8
0
 10
-13.4684
 20
6589
 11
-13.3743
 21
6589.49
  0
LINE
  8
0
 10
-13.3743
 20
6589.49
 11
-13.2191
 21
6589.97
  0
LINE
  8
0
 10
-13.2191
 20
6589.97
 11
-13.0052
 21
6590.43
  0
LINE
  8
0
 10
-13.0052
 20
6590.43
 11
-12.7361
 21
6590.85
  0
LINE
  8
0
 10
-12.7361
 20
6590.85
 11
-12.4159
 21
6591.24
  0
LINE
  8
0
 10
-12.4159
 20
6591.24
 11
-12.0497
 21
6591.58
  0
LINE
  8
0
 10
-12.0497
 20
6591.58
 11
-11.6433
 21
6591.88
  0
LINE
  8
0
 10
-11.6433
 20
6591.88
 11
-11.2031
 21
6592.12
  0
LINE
  8
0
 10
-11.2031
 20
6592.12
 11
-10.7361
 21
6592.3
  0
LINE
  8
0
 10
-10.7361
 20
6592.3
 11
-10.2495
 21
6592.43
  0
LINE
  8
0
 10
-10.2495
 20
6592.43
 11
-9.75116
 21
6592.49
  0
LINE
  8
0
 10
-9.75116
 20
6592.49
 11
9.75116
 21
6592.49
  0
LINE
  8
0
 10
9.75116
 20
6592.49
 11
10.2495
 21
6592.43
  0
LINE
  8
0
 10
10.2495
 20
6592.43
 11
10.7361
 21
6592.3
  0
LINE
  8
0
 10
10.7361
 20
6592.3
 11
11.2031
 21
6592.12
  0
LINE
  8
0
 10
11.2031
 20
6592.12
 11
11.6433
 21
6591.88
  0
LINE
  8
0
 10
11.6433
 20
6591.88
 11
12.0497
 21
6591.58
  0
LINE
  8
0
 10
12.0497
 20
6591.58
 11
12.4159
 21
6591.24
  0
LINE
  8
0
 10
12.4159
 20
6591.24
 11
12.7361
 21
6590.85
  0
LINE
  8
0
 10
12.7361
 20
6590.85
 11
13.0052
 21
6590.43
  0
LINE
  8
0
 10
13.0052
 20
6590.43
 11
13.2191
 21
6589.97
  0
LINE
  8
0
 10
13.2191
 20
6589.97
 11
13.3743
 21
6589.49
  0
LINE
  8
0
 10
13.3743
 20
6589.49
 11
13.4684
 21
6589
  0
LINE
  8
0
 10
13.4684
 20
6589
 11
13.5
 21
6588.5
  0
LINE
  8
0
 10
13.5
 20
6588.5
 11
13.5
 21
6359.5
  0
LINE
  8
0
 10
13.5
 20
6359.5
 11
13.4684
 21
6359
  0
LINE
  8
0
 10
13.4684
 20
6359
 11
13.3743
 21
6358.51
  0
LINE
  8
0
 10
13.3743
 20
6358.51
 11
13.2191
 21
6358.03
  0
LINE
  8
0
 10
13.2191
 20
6358.03
 11
13.0052
 21
6357.57
  0
LINE
  8
0
 10
13.0052
 20
6357.57
 11
12.7361
 21
6357.15
  0
LINE
  8
0
 10
12.7361
 20
6357.15
 11
12.4159
 21
6356.76
  0
LINE
  8
0
 10
12.4159
 20
6356.76
 11
12.0497
 21
6356.42
  0
LINE
  8
0
 10
12.0497
 20
6356.42
 11
11.6433
 21
6356.12
  0
LINE
  8
0
 10
11.6433
 20
6356.12
 11
11.2031
 21
6355.88
  0
LINE
  8
0
 10
11.2031
 20
6355.88
 11
10.7361
 21
6355.7
  0
LINE
  8
0
 10
10.7361
 20
6355.7
 11
10.2495
 21
6355.57
  0
LINE
  8
0
 10
10.2495
 20
6355.57
 11
9.75116
 21
6355.51
  0
LINE
  8
0
 10
9.75116
 20
6355.51
 11
-9.75116
 21
6355.51
  0
LINE
  8
0
 10
10.9369
 20
6105.09
 11
11.5451
 21
6105.24
  0
LINE
  8
0
 10
11.5451
 20
6105.24
 11
12.1289
 21
6105.48
  0
LINE
  8
0
 10
12.1289
 20
6105.48
 11
12.6791
 21
6105.78
  0
LINE
  8
0
 10
12.6791
 20
6105.78
 11
13.1871
 21
6106.15
  0
LINE
  8
0
 10
13.1871
 20
6106.15
 11
13.6448
 21
6106.58
  0
LINE
  8
0
 10
13.6448
 20
6106.58
 11
14.0451
 21
6107.06
  0
LINE
  8
0
 10
14.0451
 20
6107.06
 11
14.3815
 21
6107.59
  0
LINE
  8
0
 10
14.3815
 20
6107.59
 11
14.6489
 21
6108.16
  0
LINE
  8
0
 10
14.6489
 20
6108.16
 11
14.8429
 21
6108.76
  0
LINE
  8
0
 10
14.8429
 20
6108.76
 11
14.9606
 21
6109.37
  0
LINE
  8
0
 10
14.9606
 20
6109.37
 11
15
 21
6110
  0
LINE
  8
0
 10
15
 20
6110
 11
15
 21
6340
  0
LINE
  8
0
 10
15
 20
6340
 11
14.9606
 21
6340.63
  0
LINE
  8
0
 10
14.9606
 20
6340.63
 11
14.8429
 21
6341.24
  0
LINE
  8
0
 10
14.8429
 20
6341.24
 11
14.6489
 21
6341.84
  0
LINE
  8
0
 10
14.6489
 20
6341.84
 11
14.3815
 21
6342.41
  0
LINE
  8
0
 10
14.3815
 20
6342.41
 11
14.0451
 21
6342.94
  0
LINE
  8
0
 10
14.0451
 20
6342.94
 11
13.6448
 21
6343.42
  0
LINE
  8
0
 10
13.6448
 20
6343.42
 11
13.1871
 21
6343.85
  0
LINE
  8
0
 10
13.1871
 20
6343.85
 11
12.6791
 21
6344.22
  0
LINE
  8
0
 10
12.6791
 20
6344.22
 11
12.1289
 21
6344.52
  0
LINE
  8
0
 10
12.1289
 20
6344.52
 11
11.5451
 21
6344.76
  0
LINE
  8
0
 10
11.5451
 20
6344.76
 11
10.9369
 21
6344.91
  0
LINE
  8
0
 10
10.9369
 20
6344.91
 11
10.3139
 21
6344.99
  0
LINE
  8
0
 10
10.3139
 20
6344.99
 11
-10.3139
 21
6344.99
  0
LINE
  8
0
 10
-10.3139
 20
6344.99
 11
-10.9369
 21
6344.91
  0
LINE
  8
0
 10
-10.9369
 20
6344.91
 11
-11.5451
 21
6344.76
  0
LINE
  8
0
 10
-11.5451
 20
6344.76
 11
-12.1289
 21
6344.52
  0
LINE
  8
0
 10
-12.1289
 20
6344.52
 11
-12.6791
 21
6344.22
  0
LINE
  8
0
 10
-12.6791
 20
6344.22
 11
-13.1871
 21
6343.85
  0
LINE
  8
0
 10
-13.1871
 20
6343.85
 11
-13.6448
 21
6343.42
  0
LINE
  8
0
 10
-13.6448
 20
6343.42
 11
-14.0451
 21
6342.94
  0
LINE
  8
0
 10
-14.0451
 20
6342.94
 11
-14.3815
 21
6342.41
  0
LINE
  8
0
 10
-14.3815
 20
6342.41
 11
-14.6489
 21
6341.84
  0
LINE
  8
0
 10
-14.6489
 20
6341.84
 11
-14.8429
 21
6341.24
  0
LINE
  8
0
 10
-14.8429
 20
6341.24
 11
-14.9606
 21
6340.63
  0
LINE
  8
0
 10
-14.9606
 20
6340.63
 11
-15
 21
6340
  0
LINE
  8
0
 10
-15
 20
6340
 11
-15
 21
6110
  0
LINE
  8
0
 10
-15
 20
6110
 11
-14.9606
 21
6109.37
  0
LINE
  8
0
 10
-14.9606
 20
6109.37
 11
-14.8429
 21
6108.76
  0
LINE
  8
0
 10
-14.8429
 20
6108.76
 11
-14.6489
 21
6108.16
  0
LINE
  8
0
 10
-14.6489
 20
6108.16
 11
-14.3815
 21
6107.59
  0
LINE
  8
0
 10
-14.3815
 20
6107.59
 11
-14.0451
 21
6107.06
  0
LINE
  8
0
 10
-14.0451
 20
6107.06
 11
-13.6448
 21
6106.58
  0
LINE
  8
0
 10
-13.6448
 20
6106.58
 11
-13.1871
 21
6106.15
  0
LINE
  8
0
 10
-13.1871
 20
6106.15
 11
-12.6791
 21
6105.78
  0
LINE
  8
0
 10
-12.6791
 20
6105.78
 11
-12.1289
 21
6105.48
  0
LINE
  8
0
 10
-12.1289
 20
6105.48
 11
-11.5451
 21
6105.24
  0
LINE
  8
0
 10
-11.5451
 20
6105.24
 11
-10.9369
 21
6105.09
  0
LINE
  8
0
 10
-10.9369
 20
6105.09
 11
-10.3139
 21
6105.01
  0
LINE
  8
0
 10
-10.3139
 20
6105.01
 11
10.3139
 21
6105.01
  0
LINE
  8
0
 10
10.3139
 20
6105.01
 11
10.9369
 21
6105.09
  0
LINE
  8
0
 10
-9.75116
 20
6106.51
 11
-10.2495
 21
6106.57
  0
LINE
  8
0
 10
-10.2495
 20
6106.57
 11
-10.7361
 21
6106.7
  0
LINE
  8
0
 10
-10.7361
 20
6106.7
 11
-11.2031
 21
6106.88
  0
LINE
  8
0
 10
-11.2031
 20
6106.88
 11
-11.6433
 21
6107.12
  0
LINE
  8
0
 10
-11.6433
 20
6107.12
 11
-12.0497
 21
6107.42
  0
LINE
  8
0
 10
-12.0497
 20
6107.42
 11
-12.4159
 21
6107.76
  0
LINE
  8
0
 10
-12.4159
 20
6107.76
 11
-12.7361
 21
6108.15
  0
LINE
  8
0
 10
-12.7361
 20
6108.15
 11
-13.0052
 21
6108.57
  0
LINE
  8
0
 10
-13.0052
 20
6108.57
 11
-13.2191
 21
6109.03
  0
LINE
  8
0
 10
-13.2191
 20
6109.03
 11
-13.3743
 21
6109.51
  0
LINE
  8
0
 10
-13.3743
 20
6109.51
 11
-13.4684
 21
6110
  0
LINE
  8
0
 10
-13.4684
 20
6110
 11
-13.5
 21
6110.5
  0
LINE
  8
0
 10
-13.5
 20
6110.5
 11
-13.5
 21
6339.5
  0
LINE
  8
0
 10
-13.5
 20
6339.5
 11
-13.4684
 21
6340
  0
LINE
  8
0
 10
-13.4684
 20
6340
 11
-13.3743
 21
6340.49
  0
LINE
  8
0
 10
-13.3743
 20
6340.49
 11
-13.2191
 21
6340.97
  0
LINE
  8
0
 10
-13.2191
 20
6340.97
 11
-13.0052
 21
6341.43
  0
LINE
  8
0
 10
-13.0052
 20
6341.43
 11
-12.7361
 21
6341.85
  0
LINE
  8
0
 10
-12.7361
 20
6341.85
 11
-12.4159
 21
6342.24
  0
LINE
  8
0
 10
-12.4159
 20
6342.24
 11
-12.0497
 21
6342.58
  0
LINE
  8
0
 10
-12.0497
 20
6342.58
 11
-11.6433
 21
6342.88
  0
LINE
  8
0
 10
-11.6433
 20
6342.88
 11
-11.2031
 21
6343.12
  0
LINE
  8
0
 10
-11.2031
 20
6343.12
 11
-10.7361
 21
6343.3
  0
LINE
  8
0
 10
-10.7361
 20
6343.3
 11
-10.2495
 21
6343.43
  0
LINE
  8
0
 10
-10.2495
 20
6343.43
 11
-9.75116
 21
6343.49
  0
LINE
  8
0
 10
-9.75116
 20
6343.49
 11
9.75116
 21
6343.49
  0
LINE
  8
0
 10
9.75116
 20
6343.49
 11
10.2495
 21
6343.43
  0
LINE
  8
0
 10
10.2495
 20
6343.43
 11
10.7361
 21
6343.3
  0
LINE
  8
0
 10
10.7361
 20
6343.3
 11
11.2031
 21
6343.12
  0
LINE
  8
0
 10
11.2031
 20
6343.12
 11
11.6433
 21
6342.88
  0
LINE
  8
0
 10
11.6433
 20
6342.88
 11
12.0497
 21
6342.58
  0
LINE
  8
0
 10
12.0497
 20
6342.58
 11
12.4159
 21
6342.24
  0
LINE
  8
0
 10
12.4159
 20
6342.24
 11
12.7361
 21
6341.85
  0
LINE
  8
0
 10
12.7361
 20
6341.85
 11
13.0052
 21
6341.43
  0
LINE
  8
0
 10
13.0052
 20
6341.43
 11
13.2191
 21
6340.97
  0
LINE
  8
0
 10
13.2191
 20
6340.97
 11
13.3743
 21
6340.49
  0
LINE
  8
0
 10
13.3743
 20
6340.49
 11
13.4684
 21
6340
  0
LINE
  8
0
 10
13.4684
 20
6340
 11
13.5
 21
6339.5
  0
LINE
  8
0
 10
13.5
 20
6339.5
 11
13.5
 21
6110.5
  0
LINE
  8
0
 10
13.5
 20
6110.5
 11
13.4684
 21
6110
  0
LINE
  8
0
 10
13.4684
 20
6110
 11
13.3743
 21
6109.51
  0
LINE
  8
0
 10
13.3743
 20
6109.51
 11
13.2191
 21
6109.03
  0
LINE
  8
0
 10
13.2191
 20
6109.03
 11
13.0052
 21
6108.57
  0
LINE
  8
0
 10
13.0052
 20
6108.57
 11
12.7361
 21
6108.15
  0
LINE
  8
0
 10
12.7361
 20
6108.15
 11
12.4159
 21
6107.76
  0
LINE
  8
0
 10
12.4159
 20
6107.76
 11
12.0497
 21
6107.42
  0
LINE
  8
0
 10
12.0497
 20
6107.42
 11
11.6433
 21
6107.12
  0
LINE
  8
0
 10
11.6433
 20
6107.12
 11
11.2031
 21
6106.88
  0
LINE
  8
0
 10
11.2031
 20
6106.88
 11
10.7361
 21
6106.7
  0
LINE
  8
0
 10
10.7361
 20
6106.7
 11
10.2495
 21
6106.57
  0
LINE
  8
0
 10
10.2495
 20
6106.57
 11
9.75116
 21
6106.51
  0
LINE
  8
0
 10
9.75116
 20
6106.51
 11
-9.75116
 21
6106.51
  0
LINE
  8
0
 10
10.9369
 20
5856.09
 11
11.5451
 21
5856.24
  0
LINE
  8
0
 10
11.5451
 20
5856.24
 11
12.1289
 21
5856.48
  0
LINE
  8
0
 10
12.1289
 20
5856.48
 11
12.6791
 21
5856.78
  0
LINE
  8
0
 10
12.6791
 20
5856.78
 11
13.1871
 21
5857.15
  0
LINE
  8
0
 10
13.1871
 20
5857.15
 11
13.6448
 21
5857.58
  0
LINE
  8
0
 10
13.6448
 20
5857.58
 11
14.0451
 21
5858.06
  0
LINE
  8
0
 10
14.0451
 20
5858.06
 11
14.3815
 21
5858.59
  0
LINE
  8
0
 10
14.3815
 20
5858.59
 11
14.6489
 21
5859.16
  0
LINE
  8
0
 10
14.6489
 20
5859.16
 11
14.8429
 21
5859.76
  0
LINE
  8
0
 10
14.8429
 20
5859.76
 11
14.9606
 21
5860.37
  0
LINE
  8
0
 10
14.9606
 20
5860.37
 11
15
 21
5861
  0
LINE
  8
0
 10
15
 20
5861
 11
15
 21
6091
  0
LINE
  8
0
 10
15
 20
6091
 11
14.9606
 21
6091.63
  0
LINE
  8
0
 10
14.9606
 20
6091.63
 11
14.8429
 21
6092.24
  0
LINE
  8
0
 10
14.8429
 20
6092.24
 11
14.6489
 21
6092.84
  0
LINE
  8
0
 10
14.6489
 20
6092.84
 11
14.3815
 21
6093.41
  0
LINE
  8
0
 10
14.3815
 20
6093.41
 11
14.0451
 21
6093.94
  0
LINE
  8
0
 10
14.0451
 20
6093.94
 11
13.6448
 21
6094.42
  0
LINE
  8
0
 10
13.6448
 20
6094.42
 11
13.1871
 21
6094.85
  0
LINE
  8
0
 10
13.1871
 20
6094.85
 11
12.6791
 21
6095.22
  0
LINE
  8
0
 10
12.6791
 20
6095.22
 11
12.1289
 21
6095.52
  0
LINE
  8
0
 10
12.1289
 20
6095.52
 11
11.5451
 21
6095.76
  0
LINE
  8
0
 10
11.5451
 20
6095.76
 11
10.9369
 21
6095.91
  0
LINE
  8
0
 10
10.9369
 20
6095.91
 11
10.3139
 21
6095.99
  0
LINE
  8
0
 10
10.3139
 20
6095.99
 11
-10.3139
 21
6095.99
  0
LINE
  8
0
 10
-10.3139
 20
6095.99
 11
-10.9369
 21
6095.91
  0
LINE
  8
0
 10
-10.9369
 20
6095.91
 11
-11.5451
 21
6095.76
  0
LINE
  8
0
 10
-11.5451
 20
6095.76
 11
-12.1289
 21
6095.52
  0
LINE
  8
0
 10
-12.1289
 20
6095.52
 11
-12.6791
 21
6095.22
  0
LINE
  8
0
 10
-12.6791
 20
6095.22
 11
-13.1871
 21
6094.85
  0
LINE
  8
0
 10
-13.1871
 20
6094.85
 11
-13.6448
 21
6094.42
  0
LINE
  8
0
 10
-13.6448
 20
6094.42
 11
-14.0451
 21
6093.94
  0
LINE
  8
0
 10
-14.0451
 20
6093.94
 11
-14.3815
 21
6093.41
  0
LINE
  8
0
 10
-14.3815
 20
6093.41
 11
-14.6489
 21
6092.84
  0
LINE
  8
0
 10
-14.6489
 20
6092.84
 11
-14.8429
 21
6092.24
  0
LINE
  8
0
 10
-14.8429
 20
6092.24
 11
-14.9606
 21
6091.63
  0
LINE
  8
0
 10
-14.9606
 20
6091.63
 11
-15
 21
6091
  0
LINE
  8
0
 10
-15
 20
6091
 11
-15
 21
5861
  0
LINE
  8
0
 10
-15
 20
5861
 11
-14.9606
 21
5860.37
  0
LINE
  8
0
 10
-14.9606
 20
5860.37
 11
-14.8429
 21
5859.76
  0
LINE
  8
0
 10
-14.8429
 20
5859.76
 11
-14.6489
 21
5859.16
  0
LINE
  8
0
 10
-14.6489
 20
5859.16
 11
-14.3815
 21
5858.59
  0
LINE
  8
0
 10
-14.3815
 20
5858.59
 11
-14.0451
 21
5858.06
  0
LINE
  8
0
 10
-14.0451
 20
5858.06
 11
-13.6448
 21
5857.58
  0
LINE
  8
0
 10
-13.6448
 20
5857.58
 11
-13.1871
 21
5857.15
  0
LINE
  8
0
 10
-13.1871
 20
5857.15
 11
-12.6791
 21
5856.78
  0
LINE
  8
0
 10
-12.6791
 20
5856.78
 11
-12.1289
 21
5856.48
  0
LINE
  8
0
 10
-12.1289
 20
5856.48
 11
-11.5451
 21
5856.24
  0
LINE
  8
0
 10
-11.5451
 20
5856.24
 11
-10.9369
 21
5856.09
  0
LINE
  8
0
 10
-10.9369
 20
5856.09
 11
-10.3139
 21
5856.01
  0
LINE
  8
0
 10
-10.3139
 20
5856.01
 11
10.3139
 21
5856.01
  0
LINE
  8
0
 10
10.3139
 20
5856.01
 11
10.9369
 21
5856.09
  0
LINE
  8
0
 10
-9.75116
 20
5857.51
 11
-10.2495
 21
5857.57
  0
LINE
  8
0
 10
-10.2495
 20
5857.57
 11
-10.7361
 21
5857.7
  0
LINE
  8
0
 10
-10.7361
 20
5857.7
 11
-11.2031
 21
5857.88
  0
LINE
  8
0
 10
-11.2031
 20
5857.88
 11
-11.6433
 21
5858.12
  0
LINE
  8
0
 10
-11.6433
 20
5858.12
 11
-12.0497
 21
5858.42
  0
LINE
  8
0
 10
-12.0497
 20
5858.42
 11
-12.4159
 21
5858.76
  0
LINE
  8
0
 10
-12.4159
 20
5858.76
 11
-12.7361
 21
5859.15
  0
LINE
  8
0
 10
-12.7361
 20
5859.15
 11
-13.0052
 21
5859.57
  0
LINE
  8
0
 10
-13.0052
 20
5859.57
 11
-13.2191
 21
5860.03
  0
LINE
  8
0
 10
-13.2191
 20
5860.03
 11
-13.3743
 21
5860.51
  0
LINE
  8
0
 10
-13.3743
 20
5860.51
 11
-13.4684
 21
5861
  0
LINE
  8
0
 10
-13.4684
 20
5861
 11
-13.5
 21
5861.5
  0
LINE
  8
0
 10
-13.5
 20
5861.5
 11
-13.5
 21
6090.5
  0
LINE
  8
0
 10
-13.5
 20
6090.5
 11
-13.4684
 21
6091
  0
LINE
  8
0
 10
-13.4684
 20
6091
 11
-13.3743
 21
6091.49
  0
LINE
  8
0
 10
-13.3743
 20
6091.49
 11
-13.2191
 21
6091.97
  0
LINE
  8
0
 10
-13.2191
 20
6091.97
 11
-13.0052
 21
6092.43
  0
LINE
  8
0
 10
-13.0052
 20
6092.43
 11
-12.7361
 21
6092.85
  0
LINE
  8
0
 10
-12.7361
 20
6092.85
 11
-12.4159
 21
6093.24
  0
LINE
  8
0
 10
-12.4159
 20
6093.24
 11
-12.0497
 21
6093.58
  0
LINE
  8
0
 10
-12.0497
 20
6093.58
 11
-11.6433
 21
6093.88
  0
LINE
  8
0
 10
-11.6433
 20
6093.88
 11
-11.2031
 21
6094.12
  0
LINE
  8
0
 10
-11.2031
 20
6094.12
 11
-10.7361
 21
6094.3
  0
LINE
  8
0
 10
-10.7361
 20
6094.3
 11
-10.2495
 21
6094.43
  0
LINE
  8
0
 10
-10.2495
 20
6094.43
 11
-9.75116
 21
6094.49
  0
LINE
  8
0
 10
-9.75116
 20
6094.49
 11
9.75116
 21
6094.49
  0
LINE
  8
0
 10
9.75116
 20
6094.49
 11
10.2495
 21
6094.43
  0
LINE
  8
0
 10
10.2495
 20
6094.43
 11
10.7361
 21
6094.3
  0
LINE
  8
0
 10
10.7361
 20
6094.3
 11
11.2031
 21
6094.12
  0
LINE
  8
0
 10
11.2031
 20
6094.12
 11
11.6433
 21
6093.88
  0
LINE
  8
0
 10
11.6433
 20
6093.88
 11
12.0497
 21
6093.58
  0
LINE
  8
0
 10
12.0497
 20
6093.58
 11
12.4159
 21
6093.24
  0
LINE
  8
0
 10
12.4159
 20
6093.24
 11
12.7361
 21
6092.85
  0
LINE
  8
0
 10
12.7361
 20
6092.85
 11
13.0052
 21
6092.43
  0
LINE
  8
0
 10
13.0052
 20
6092.43
 11
13.2191
 21
6091.97
  0
LINE
  8
0
 10
13.2191
 20
6091.97
 11
13.3743
 21
6091.49
  0
LINE
  8
0
 10
13.3743
 20
6091.49
 11
13.4684
 21
6091
  0
LINE
  8
0
 10
13.4684
 20
6091
 11
13.5
 21
6090.5
  0
LINE
  8
0
 10
13.5
 20
6090.5
 11
13.5
 21
5861.5
  0
LINE
  8
0
 10
13.5
 20
5861.5
 11
13.4684
 21
5861
  0
LINE
  8
0
 10
13.4684
 20
5861
 11
13.3743
 21
5860.51
  0
LINE
  8
0
 10
13.3743
 20
5860.51
 11
13.2191
 21
5860.03
  0
LINE
  8
0
 10
13.2191
 20
5860.03
 11
13.0052
 21
5859.57
  0
LINE
  8
0
 10
13.0052
 20
5859.57
 11
12.7361
 21
5859.15
  0
LINE
  8
0
 10
12.7361
 20
5859.15
 11
12.4159
 21
5858.76
  0
LINE
  8
0
 10
12.4159
 20
5858.76
 11
12.0497
 21
5858.42
  0
LINE
  8
0
 10
12.0497
 20
5858.42
 11
11.6433
 21
5858.12
  0
LINE
  8
0
 10
11.6433
 20
5858.12
 11
11.2031
 21
5857.88
  0
LINE
  8
0
 10
11.2031
 20
5857.88
 11
10.7361
 21
5857.7
  0
LINE
  8
0
 10
10.7361
 20
5857.7
 11
10.2495
 21
5857.57
  0
LINE
  8
0
 10
10.2495
 20
5857.57
 11
9.75116
 21
5857.51
  0
LINE
  8
0
 10
9.75116
 20
5857.51
 11
-9.75116
 21
5857.51
  0
LINE
  8
0
 10
10.9369
 20
5607.09
 11
11.5451
 21
5607.24
  0
LINE
  8
0
 10
11.5451
 20
5607.24
 11
12.1289
 21
5607.48
  0
LINE
  8
0
 10
12.1289
 20
5607.48
 11
12.6791
 21
5607.78
  0
LINE
  8
0
 10
12.6791
 20
5607.78
 11
13.1871
 21
5608.15
  0
LINE
  8
0
 10
13.1871
 20
5608.15
 11
13.6448
 21
5608.58
  0
LINE
  8
0
 10
13.6448
 20
5608.58
 11
14.0451
 21
5609.06
  0
LINE
  8
0
 10
14.0451
 20
5609.06
 11
14.3815
 21
5609.59
  0
LINE
  8
0
 10
14.3815
 20
5609.59
 11
14.6489
 21
5610.16
  0
LINE
  8
0
 10
14.6489
 20
5610.16
 11
14.8429
 21
5610.76
  0
LINE
  8
0
 10
14.8429
 20
5610.76
 11
14.9606
 21
5611.37
  0
LINE
  8
0
 10
14.9606
 20
5611.37
 11
15
 21
5612
  0
LINE
  8
0
 10
15
 20
5612
 11
15
 21
5842
  0
LINE
  8
0
 10
15
 20
5842
 11
14.9606
 21
5842.63
  0
LINE
  8
0
 10
14.9606
 20
5842.63
 11
14.8429
 21
5843.24
  0
LINE
  8
0
 10
14.8429
 20
5843.24
 11
14.6489
 21
5843.84
  0
LINE
  8
0
 10
14.6489
 20
5843.84
 11
14.3815
 21
5844.41
  0
LINE
  8
0
 10
14.3815
 20
5844.41
 11
14.0451
 21
5844.94
  0
LINE
  8
0
 10
14.0451
 20
5844.94
 11
13.6448
 21
5845.42
  0
LINE
  8
0
 10
13.6448
 20
5845.42
 11
13.1871
 21
5845.85
  0
LINE
  8
0
 10
13.1871
 20
5845.85
 11
12.6791
 21
5846.22
  0
LINE
  8
0
 10
12.6791
 20
5846.22
 11
12.1289
 21
5846.52
  0
LINE
  8
0
 10
12.1289
 20
5846.52
 11
11.5451
 21
5846.76
  0
LINE
  8
0
 10
11.5451
 20
5846.76
 11
10.9369
 21
5846.91
  0
LINE
  8
0
 10
10.9369
 20
5846.91
 11
10.3139
 21
5846.99
  0
LINE
  8
0
 10
10.3139
 20
5846.99
 11
-10.3139
 21
5846.99
  0
LINE
  8
0
 10
-10.3139
 20
5846.99
 11
-10.9369
 21
5846.91
  0
LINE
  8
0
 10
-10.9369
 20
5846.91
 11
-11.5451
 21
5846.76
  0
LINE
  8
0
 10
-11.5451
 20
5846.76
 11
-12.1289
 21
5846.52
  0
LINE
  8
0
 10
-12.1289
 20
5846.52
 11
-12.6791
 21
5846.22
  0
LINE
  8
0
 10
-12.6791
 20
5846.22
 11
-13.1871
 21
5845.85
  0
LINE
  8
0
 10
-13.1871
 20
5845.85
 11
-13.6448
 21
5845.42
  0
LINE
  8
0
 10
-13.6448
 20
5845.42
 11
-14.0451
 21
5844.94
  0
LINE
  8
0
 10
-14.0451
 20
5844.94
 11
-14.3815
 21
5844.41
  0
LINE
  8
0
 10
-14.3815
 20
5844.41
 11
-14.6489
 21
5843.84
  0
LINE
  8
0
 10
-14.6489
 20
5843.84
 11
-14.8429
 21
5843.24
  0
LINE
  8
0
 10
-14.8429
 20
5843.24
 11
-14.9606
 21
5842.63
  0
LINE
  8
0
 10
-14.9606
 20
5842.63
 11
-15
 21
5842
  0
LINE
  8
0
 10
-15
 20
5842
 11
-15
 21
5612
  0
LINE
  8
0
 10
-15
 20
5612
 11
-14.9606
 21
5611.37
  0
LINE
  8
0
 10
-14.9606
 20
5611.37
 11
-14.8429
 21
5610.76
  0
LINE
  8
0
 10
-14.8429
 20
5610.76
 11
-14.6489
 21
5610.16
  0
LINE
  8
0
 10
-14.6489
 20
5610.16
 11
-14.3815
 21
5609.59
  0
LINE
  8
0
 10
-14.3815
 20
5609.59
 11
-14.0451
 21
5609.06
  0
LINE
  8
0
 10
-14.0451
 20
5609.06
 11
-13.6448
 21
5608.58
  0
LINE
  8
0
 10
-13.6448
 20
5608.58
 11
-13.1871
 21
5608.15
  0
LINE
  8
0
 10
-13.1871
 20
5608.15
 11
-12.6791
 21
5607.78
  0
LINE
  8
0
 10
-12.6791
 20
5607.78
 11
-12.1289
 21
5607.48
  0
LINE
  8
0
 10
-12.1289
 20
5607.48
 11
-11.5451
 21
5607.24
  0
LINE
  8
0
 10
-11.5451
 20
5607.24
 11
-10.9369
 21
5607.09
  0
LINE
  8
0
 10
-10.9369
 20
5607.09
 11
-10.3139
 21
5607.01
  0
LINE
  8
0
 10
-10.3139
 20
5607.01
 11
10.3139
 21
5607.01
  0
LINE
  8
0
 10
10.3139
 20
5607.01
 11
10.9369
 21
5607.09
  0
LINE
  8
0
 10
-9.75116
 20
5608.51
 11
-10.2495
 21
5608.57
  0
LINE
  8
0
 10
-10.2495
 20
5608.57
 11
-10.7361
 21
5608.7
  0
LINE
  8
0
 10
-10.7361
 20
5608.7
 11
-11.2031
 21
5608.88
  0
LINE
  8
0
 10
-11.2031
 20
5608.88
 11
-11.6433
 21
5609.12
  0
LINE
  8
0
 10
-11.6433
 20
5609.12
 11
-12.0497
 21
5609.42
  0
LINE
  8
0
 10
-12.0497
 20
5609.42
 11
-12.4159
 21
5609.76
  0
LINE
  8
0
 10
-12.4159
 20
5609.76
 11
-12.7361
 21
5610.15
  0
LINE
  8
0
 10
-12.7361
 20
5610.15
 11
-13.0052
 21
5610.57
  0
LINE
  8
0
 10
-13.0052
 20
5610.57
 11
-13.2191
 21
5611.03
  0
LINE
  8
0
 10
-13.2191
 20
5611.03
 11
-13.3743
 21
5611.51
  0
LINE
  8
0
 10
-13.3743
 20
5611.51
 11
-13.4684
 21
5612
  0
LINE
  8
0
 10
-13.4684
 20
5612
 11
-13.5
 21
5612.5
  0
LINE
  8
0
 10
-13.5
 20
5612.5
 11
-13.5
 21
5841.5
  0
LINE
  8
0
 10
-13.5
 20
5841.5
 11
-13.4684
 21
5842
  0
LINE
  8
0
 10
-13.4684
 20
5842
 11
-13.3743
 21
5842.49
  0
LINE
  8
0
 10
-13.3743
 20
5842.49
 11
-13.2191
 21
5842.97
  0
LINE
  8
0
 10
-13.2191
 20
5842.97
 11
-13.0052
 21
5843.43
  0
LINE
  8
0
 10
-13.0052
 20
5843.43
 11
-12.7361
 21
5843.85
  0
LINE
  8
0
 10
-12.7361
 20
5843.85
 11
-12.4159
 21
5844.24
  0
LINE
  8
0
 10
-12.4159
 20
5844.24
 11
-12.0497
 21
5844.58
  0
LINE
  8
0
 10
-12.0497
 20
5844.58
 11
-11.6433
 21
5844.88
  0
LINE
  8
0
 10
-11.6433
 20
5844.88
 11
-11.2031
 21
5845.12
  0
LINE
  8
0
 10
-11.2031
 20
5845.12
 11
-10.7361
 21
5845.3
  0
LINE
  8
0
 10
-10.7361
 20
5845.3
 11
-10.2495
 21
5845.43
  0
LINE
  8
0
 10
-10.2495
 20
5845.43
 11
-9.75116
 21
5845.49
  0
LINE
  8
0
 10
-9.75116
 20
5845.49
 11
9.75116
 21
5845.49
  0
LINE
  8
0
 10
9.75116
 20
5845.49
 11
10.2495
 21
5845.43
  0
LINE
  8
0
 10
10.2495
 20
5845.43
 11
10.7361
 21
5845.3
  0
LINE
  8
0
 10
10.7361
 20
5845.3
 11
11.2031
 21
5845.12
  0
LINE
  8
0
 10
11.2031
 20
5845.12
 11
11.6433
 21
5844.88
  0
LINE
  8
0
 10
11.6433
 20
5844.88
 11
12.0497
 21
5844.58
  0
LINE
  8
0
 10
12.0497
 20
5844.58
 11
12.4159
 21
5844.24
  0
LINE
  8
0
 10
12.4159
 20
5844.24
 11
12.7361
 21
5843.85
  0
LINE
  8
0
 10
12.7361
 20
5843.85
 11
13.0052
 21
5843.43
  0
LINE
  8
0
 10
13.0052
 20
5843.43
 11
13.2191
 21
5842.97
  0
LINE
  8
0
 10
13.2191
 20
5842.97
 11
13.3743
 21
5842.49
  0
LINE
  8
0
 10
13.3743
 20
5842.49
 11
13.4684
 21
5842
  0
LINE
  8
0
 10
13.4684
 20
5842
 11
13.5
 21
5841.5
  0
LINE
  8
0
 10
13.5
 20
5841.5
 11
13.5
 21
5612.5
  0
LINE
  8
0
 10
13.5
 20
5612.5
 11
13.4684
 21
5612
  0
LINE
  8
0
 10
13.4684
 20
5612
 11
13.3743
 21
5611.51
  0
LINE
  8
0
 10
13.3743
 20
5611.51
 11
13.2191
 21
5611.03
  0
LINE
  8
0
 10
13.2191
 20
5611.03
 11
13.0052
 21
5610.57
  0
LINE
  8
0
 10
13.0052
 20
5610.57
 11
12.7361
 21
5610.15
  0
LINE
  8
0
 10
12.7361
 20
5610.15
 11
12.4159
 21
5609.76
  0
LINE
  8
0
 10
12.4159
 20
5609.76
 11
12.0497
 21
5609.42
  0
LINE
  8
0
 10
12.0497
 20
5609.42
 11
11.6433
 21
5609.12
  0
LINE
  8
0
 10
11.6433
 20
5609.12
 11
11.2031
 21
5608.88
  0
LINE
  8
0
 10
11.2031
 20
5608.88
 11
10.7361
 21
5608.7
  0
LINE
  8
0
 10
10.7361
 20
5608.7
 11
10.2495
 21
5608.57
  0
LINE
  8
0
 10
10.2495
 20
5608.57
 11
9.75116
 21
5608.51
  0
LINE
  8
0
 10
9.75116
 20
5608.51
 11
-9.75116
 21
5608.51
  0
LINE
  8
0
 10
10.9369
 20
5358.09
 11
11.5451
 21
5358.24
  0
LINE
  8
0
 10
11.5451
 20
5358.24
 11
12.1289
 21
5358.48
  0
LINE
  8
0
 10
12.1289
 20
5358.48
 11
12.6791
 21
5358.78
  0
LINE
  8
0
 10
12.6791
 20
5358.78
 11
13.1871
 21
5359.15
  0
LINE
  8
0
 10
13.1871
 20
5359.15
 11
13.6448
 21
5359.58
  0
LINE
  8
0
 10
13.6448
 20
5359.58
 11
14.0451
 21
5360.06
  0
LINE
  8
0
 10
14.0451
 20
5360.06
 11
14.3815
 21
5360.59
  0
LINE
  8
0
 10
14.3815
 20
5360.59
 11
14.6489
 21
5361.16
  0
LINE
  8
0
 10
14.6489
 20
5361.16
 11
14.8429
 21
5361.76
  0
LINE
  8
0
 10
14.8429
 20
5361.76
 11
14.9606
 21
5362.37
  0
LINE
  8
0
 10
14.9606
 20
5362.37
 11
15
 21
5363
  0
LINE
  8
0
 10
15
 20
5363
 11
15
 21
5593
  0
LINE
  8
0
 10
15
 20
5593
 11
14.9606
 21
5593.63
  0
LINE
  8
0
 10
14.9606
 20
5593.63
 11
14.8429
 21
5594.24
  0
LINE
  8
0
 10
14.8429
 20
5594.24
 11
14.6489
 21
5594.84
  0
LINE
  8
0
 10
14.6489
 20
5594.84
 11
14.3815
 21
5595.41
  0
LINE
  8
0
 10
14.3815
 20
5595.41
 11
14.0451
 21
5595.94
  0
LINE
  8
0
 10
14.0451
 20
5595.94
 11
13.6448
 21
5596.42
  0
LINE
  8
0
 10
13.6448
 20
5596.42
 11
13.1871
 21
5596.85
  0
LINE
  8
0
 10
13.1871
 20
5596.85
 11
12.6791
 21
5597.22
  0
LINE
  8
0
 10
12.6791
 20
5597.22
 11
12.1289
 21
5597.52
  0
LINE
  8
0
 10
12.1289
 20
5597.52
 11
11.5451
 21
5597.76
  0
LINE
  8
0
 10
11.5451
 20
5597.76
 11
10.9369
 21
5597.91
  0
LINE
  8
0
 10
10.9369
 20
5597.91
 11
10.3139
 21
5597.99
  0
LINE
  8
0
 10
10.3139
 20
5597.99
 11
-10.3139
 21
5597.99
  0
LINE
  8
0
 10
-10.3139
 20
5597.99
 11
-10.9369
 21
5597.91
  0
LINE
  8
0
 10
-10.9369
 20
5597.91
 11
-11.5451
 21
5597.76
  0
LINE
  8
0
 10
-11.5451
 20
5597.76
 11
-12.1289
 21
5597.52
  0
LINE
  8
0
 10
-12.1289
 20
5597.52
 11
-12.6791
 21
5597.22
  0
LINE
  8
0
 10
-12.6791
 20
5597.22
 11
-13.1871
 21
5596.85
  0
LINE
  8
0
 10
-13.1871
 20
5596.85
 11
-13.6448
 21
5596.42
  0
LINE
  8
0
 10
-13.6448
 20
5596.42
 11
-14.0451
 21
5595.94
  0
LINE
  8
0
 10
-14.0451
 20
5595.94
 11
-14.3815
 21
5595.41
  0
LINE
  8
0
 10
-14.3815
 20
5595.41
 11
-14.6489
 21
5594.84
  0
LINE
  8
0
 10
-14.6489
 20
5594.84
 11
-14.8429
 21
5594.24
  0
LINE
  8
0
 10
-14.8429
 20
5594.24
 11
-14.9606
 21
5593.63
  0
LINE
  8
0
 10
-14.9606
 20
5593.63
 11
-15
 21
5593
  0
LINE
  8
0
 10
-15
 20
5593
 11
-15
 21
5363
  0
LINE
  8
0
 10
-15
 20
5363
 11
-14.9606
 21
5362.37
  0
LINE
  8
0
 10
-14.9606
 20
5362.37
 11
-14.8429
 21
5361.76
  0
LINE
  8
0
 10
-14.8429
 20
5361.76
 11
-14.6489
 21
5361.16
  0
LINE
  8
0
 10
-14.6489
 20
5361.16
 11
-14.3815
 21
5360.59
  0
LINE
  8
0
 10
-14.3815
 20
5360.59
 11
-14.0451
 21
5360.06
  0
LINE
  8
0
 10
-14.0451
 20
5360.06
 11
-13.6448
 21
5359.58
  0
LINE
  8
0
 10
-13.6448
 20
5359.58
 11
-13.1871
 21
5359.15
  0
LINE
  8
0
 10
-13.1871
 20
5359.15
 11
-12.6791
 21
5358.78
  0
LINE
  8
0
 10
-12.6791
 20
5358.78
 11
-12.1289
 21
5358.48
  0
LINE
  8
0
 10
-12.1289
 20
5358.48
 11
-11.5451
 21
5358.24
  0
LINE
  8
0
 10
-11.5451
 20
5358.24
 11
-10.9369
 21
5358.09
  0
LINE
  8
0
 10
-10.9369
 20
5358.09
 11
-10.3139
 21
5358.01
  0
LINE
  8
0
 10
-10.3139
 20
5358.01
 11
10.3139
 21
5358.01
  0
LINE
  8
0
 10
10.3139
 20
5358.01
 11
10.9369
 21
5358.09
  0
LINE
  8
0
 10
-9.75116
 20
5359.51
 11
-10.2495
 21
5359.57
  0
LINE
  8
0
 10
-10.2495
 20
5359.57
 11
-10.7361
 21
5359.7
  0
LINE
  8
0
 10
-10.7361
 20
5359.7
 11
-11.2031
 21
5359.88
  0
LINE
  8
0
 10
-11.2031
 20
5359.88
 11
-11.6433
 21
5360.12
  0
LINE
  8
0
 10
-11.6433
 20
5360.12
 11
-12.0497
 21
5360.42
  0
LINE
  8
0
 10
-12.0497
 20
5360.42
 11
-12.4159
 21
5360.76
  0
LINE
  8
0
 10
-12.4159
 20
5360.76
 11
-12.7361
 21
5361.15
  0
LINE
  8
0
 10
-12.7361
 20
5361.15
 11
-13.0052
 21
5361.57
  0
LINE
  8
0
 10
-13.0052
 20
5361.57
 11
-13.2191
 21
5362.03
  0
LINE
  8
0
 10
-13.2191
 20
5362.03
 11
-13.3743
 21
5362.51
  0
LINE
  8
0
 10
-13.3743
 20
5362.51
 11
-13.4684
 21
5363
  0
LINE
  8
0
 10
-13.4684
 20
5363
 11
-13.5
 21
5363.5
  0
LINE
  8
0
 10
-13.5
 20
5363.5
 11
-13.5
 21
5592.5
  0
LINE
  8
0
 10
-13.5
 20
5592.5
 11
-13.4684
 21
5593
  0
LINE
  8
0
 10
-13.4684
 20
5593
 11
-13.3743
 21
5593.49
  0
LINE
  8
0
 10
-13.3743
 20
5593.49
 11
-13.2191
 21
5593.97
  0
LINE
  8
0
 10
-13.2191
 20
5593.97
 11
-13.0052
 21
5594.43
  0
LINE
  8
0
 10
-13.0052
 20
5594.43
 11
-12.7361
 21
5594.85
  0
LINE
  8
0
 10
-12.7361
 20
5594.85
 11
-12.4159
 21
5595.24
  0
LINE
  8
0
 10
-12.4159
 20
5595.24
 11
-12.0497
 21
5595.58
  0
LINE
  8
0
 10
-12.0497
 20
5595.58
 11
-11.6433
 21
5595.88
  0
LINE
  8
0
 10
-11.6433
 20
5595.88
 11
-11.2031
 21
5596.12
  0
LINE
  8
0
 10
-11.2031
 20
5596.12
 11
-10.7361
 21
5596.3
  0
LINE
  8
0
 10
-10.7361
 20
5596.3
 11
-10.2495
 21
5596.43
  0
LINE
  8
0
 10
-10.2495
 20
5596.43
 11
-9.75116
 21
5596.49
  0
LINE
  8
0
 10
-9.75116
 20
5596.49
 11
9.75116
 21
5596.49
  0
LINE
  8
0
 10
9.75116
 20
5596.49
 11
10.2495
 21
5596.43
  0
LINE
  8
0
 10
10.2495
 20
5596.43
 11
10.7361
 21
5596.3
  0
LINE
  8
0
 10
10.7361
 20
5596.3
 11
11.2031
 21
5596.12
  0
LINE
  8
0
 10
11.2031
 20
5596.12
 11
11.6433
 21
5595.88
  0
LINE
  8
0
 10
11.6433
 20
5595.88
 11
12.0497
 21
5595.58
  0
LINE
  8
0
 10
12.0497
 20
5595.58
 11
12.4159
 21
5595.24
  0
LINE
  8
0
 10
12.4159
 20
5595.24
 11
12.7361
 21
5594.85
  0
LINE
  8
0
 10
12.7361
 20
5594.85
 11
13.0052
 21
5594.43
  0
LINE
  8
0
 10
13.0052
 20
5594.43
 11
13.2191
 21
5593.97
  0
LINE
  8
0
 10
13.2191
 20
5593.97
 11
13.3743
 21
5593.49
  0
LINE
  8
0
 10
13.3743
 20
5593.49
 11
13.4684
 21
5593
  0
LINE
  8
0
 10
13.4684
 20
5593
 11
13.5
 21
5592.5
  0
LINE
  8
0
 10
13.5
 20
5592.5
 11
13.5
 21
5363.5
  0
LINE
  8
0
 10
13.5
 20
5363.5
 11
13.4684
 21
5363
  0
LINE
  8
0
 10
13.4684
 20
5363
 11
13.3743
 21
5362.51
  0
LINE
  8
0
 10
13.3743
 20
5362.51
 11
13.2191
 21
5362.03
  0
LINE
  8
0
 10
13.2191
 20
5362.03
 11
13.0052
 21
5361.57
  0
LINE
  8
0
 10
13.0052
 20
5361.57
 11
12.7361
 21
5361.15
  0
LINE
  8
0
 10
12.7361
 20
5361.15
 11
12.4159
 21
5360.76
  0
LINE
  8
0
 10
12.4159
 20
5360.76
 11
12.0497
 21
5360.42
  0
LINE
  8
0
 10
12.0497
 20
5360.42
 11
11.6433
 21
5360.12
  0
LINE
  8
0
 10
11.6433
 20
5360.12
 11
11.2031
 21
5359.88
  0
LINE
  8
0
 10
11.2031
 20
5359.88
 11
10.7361
 21
5359.7
  0
LINE
  8
0
 10
10.7361
 20
5359.7
 11
10.2495
 21
5359.57
  0
LINE
  8
0
 10
10.2495
 20
5359.57
 11
9.75116
 21
5359.51
  0
LINE
  8
0
 10
9.75116
 20
5359.51
 11
-9.75116
 21
5359.51
  0
LINE
  8
0
 10
10.9369
 20
5109.09
 11
11.5451
 21
5109.24
  0
LINE
  8
0
 10
11.5451
 20
5109.24
 11
12.1289
 21
5109.48
  0
LINE
  8
0
 10
12.1289
 20
5109.48
 11
12.6791
 21
5109.78
  0
LINE
  8
0
 10
12.6791
 20
5109.78
 11
13.1871
 21
5110.15
  0
LINE
  8
0
 10
13.1871
 20
5110.15
 11
13.6448
 21
5110.58
  0
LINE
  8
0
 10
13.6448
 20
5110.58
 11
14.0451
 21
5111.06
  0
LINE
  8
0
 10
14.0451
 20
5111.06
 11
14.3815
 21
5111.59
  0
LINE
  8
0
 10
14.3815
 20
5111.59
 11
14.6489
 21
5112.16
  0
LINE
  8
0
 10
14.6489
 20
5112.16
 11
14.8429
 21
5112.76
  0
LINE
  8
0
 10
14.8429
 20
5112.76
 11
14.9606
 21
5113.37
  0
LINE
  8
0
 10
14.9606
 20
5113.37
 11
15
 21
5114
  0
LINE
  8
0
 10
15
 20
5114
 11
15
 21
5344
  0
LINE
  8
0
 10
15
 20
5344
 11
14.9606
 21
5344.63
  0
LINE
  8
0
 10
14.9606
 20
5344.63
 11
14.8429
 21
5345.24
  0
LINE
  8
0
 10
14.8429
 20
5345.24
 11
14.6489
 21
5345.84
  0
LINE
  8
0
 10
14.6489
 20
5345.84
 11
14.3815
 21
5346.41
  0
LINE
  8
0
 10
14.3815
 20
5346.41
 11
14.0451
 21
5346.94
  0
LINE
  8
0
 10
14.0451
 20
5346.94
 11
13.6448
 21
5347.42
  0
LINE
  8
0
 10
13.6448
 20
5347.42
 11
13.1871
 21
5347.85
  0
LINE
  8
0
 10
13.1871
 20
5347.85
 11
12.6791
 21
5348.22
  0
LINE
  8
0
 10
12.6791
 20
5348.22
 11
12.1289
 21
5348.52
  0
LINE
  8
0
 10
12.1289
 20
5348.52
 11
11.5451
 21
5348.76
  0
LINE
  8
0
 10
11.5451
 20
5348.76
 11
10.9369
 21
5348.91
  0
LINE
  8
0
 10
10.9369
 20
5348.91
 11
10.3139
 21
5348.99
  0
LINE
  8
0
 10
10.3139
 20
5348.99
 11
-10.3139
 21
5348.99
  0
LINE
  8
0
 10
-10.3139
 20
5348.99
 11
-10.9369
 21
5348.91
  0
LINE
  8
0
 10
-10.9369
 20
5348.91
 11
-11.5451
 21
5348.76
  0
LINE
  8
0
 10
-11.5451
 20
5348.76
 11
-12.1289
 21
5348.52
  0
LINE
  8
0
 10
-12.1289
 20
5348.52
 11
-12.6791
 21
5348.22
  0
LINE
  8
0
 10
-12.6791
 20
5348.22
 11
-13.1871
 21
5347.85
  0
LINE
  8
0
 10
-13.1871
 20
5347.85
 11
-13.6448
 21
5347.42
  0
LINE
  8
0
 10
-13.6448
 20
5347.42
 11
-14.0451
 21
5346.94
  0
LINE
  8
0
 10
-14.0451
 20
5346.94
 11
-14.3815
 21
5346.41
  0
LINE
  8
0
 10
-14.3815
 20
5346.41
 11
-14.6489
 21
5345.84
  0
LINE
  8
0
 10
-14.6489
 20
5345.84
 11
-14.8429
 21
5345.24
  0
LINE
  8
0
 10
-14.8429
 20
5345.24
 11
-14.9606
 21
5344.63
  0
LINE
  8
0
 10
-14.9606
 20
5344.63
 11
-15
 21
5344
  0
LINE
  8
0
 10
-15
 20
5344
 11
-15
 21
5114
  0
LINE
  8
0
 10
-15
 20
5114
 11
-14.9606
 21
5113.37
  0
LINE
  8
0
 10
-14.9606
 20
5113.37
 11
-14.8429
 21
5112.76
  0
LINE
  8
0
 10
-14.8429
 20
5112.76
 11
-14.6489
 21
5112.16
  0
LINE
  8
0
 10
-14.6489
 20
5112.16
 11
-14.3815
 21
5111.59
  0
LINE
  8
0
 10
-14.3815
 20
5111.59
 11
-14.0451
 21
5111.06
  0
LINE
  8
0
 10
-14.0451
 20
5111.06
 11
-13.6448
 21
5110.58
  0
LINE
  8
0
 10
-13.6448
 20
5110.58
 11
-13.1871
 21
5110.15
  0
LINE
  8
0
 10
-13.1871
 20
5110.15
 11
-12.6791
 21
5109.78
  0
LINE
  8
0
 10
-12.6791
 20
5109.78
 11
-12.1289
 21
5109.48
  0
LINE
  8
0
 10
-12.1289
 20
5109.48
 11
-11.5451
 21
5109.24
  0
LINE
  8
0
 10
-11.5451
 20
5109.24
 11
-10.9369
 21
5109.09
  0
LINE
  8
0
 10
-10.9369
 20
5109.09
 11
-10.3139
 21
5109.01
  0
LINE
  8
0
 10
-10.3139
 20
5109.01
 11
10.3139
 21
5109.01
  0
LINE
  8
0
 10
10.3139
 20
5109.01
 11
10.9369
 21
5109.09
  0
LINE
  8
0
 10
-9.75116
 20
5110.51
 11
-10.2495
 21
5110.57
  0
LINE
  8
0
 10
-10.2495
 20
5110.57
 11
-10.7361
 21
5110.7
  0
LINE
  8
0
 10
-10.7361
 20
5110.7
 11
-11.2031
 21
5110.88
  0
LINE
  8
0
 10
-11.2031
 20
5110.88
 11
-11.6433
 21
5111.12
  0
LINE
  8
0
 10
-11.6433
 20
5111.12
 11
-12.0497
 21
5111.42
  0
LINE
  8
0
 10
-12.0497
 20
5111.42
 11
-12.4159
 21
5111.76
  0
LINE
  8
0
 10
-12.4159
 20
5111.76
 11
-12.7361
 21
5112.15
  0
LINE
  8
0
 10
-12.7361
 20
5112.15
 11
-13.0052
 21
5112.57
  0
LINE
  8
0
 10
-13.0052
 20
5112.57
 11
-13.2191
 21
5113.03
  0
LINE
  8
0
 10
-13.2191
 20
5113.03
 11
-13.3743
 21
5113.51
  0
LINE
  8
0
 10
-13.3743
 20
5113.51
 11
-13.4684
 21
5114
  0
LINE
  8
0
 10
-13.4684
 20
5114
 11
-13.5
 21
5114.5
  0
LINE
  8
0
 10
-13.5
 20
5114.5
 11
-13.5
 21
5343.5
  0
LINE
  8
0
 10
-13.5
 20
5343.5
 11
-13.4684
 21
5344
  0
LINE
  8
0
 10
-13.4684
 20
5344
 11
-13.3743
 21
5344.49
  0
LINE
  8
0
 10
-13.3743
 20
5344.49
 11
-13.2191
 21
5344.97
  0
LINE
  8
0
 10
-13.2191
 20
5344.97
 11
-13.0052
 21
5345.43
  0
LINE
  8
0
 10
-13.0052
 20
5345.43
 11
-12.7361
 21
5345.85
  0
LINE
  8
0
 10
-12.7361
 20
5345.85
 11
-12.4159
 21
5346.24
  0
LINE
  8
0
 10
-12.4159
 20
5346.24
 11
-12.0497
 21
5346.58
  0
LINE
  8
0
 10
-12.0497
 20
5346.58
 11
-11.6433
 21
5346.88
  0
LINE
  8
0
 10
-11.6433
 20
5346.88
 11
-11.2031
 21
5347.12
  0
LINE
  8
0
 10
-11.2031
 20
5347.12
 11
-10.7361
 21
5347.3
  0
LINE
  8
0
 10
-10.7361
 20
5347.3
 11
-10.2495
 21
5347.43
  0
LINE
  8
0
 10
-10.2495
 20
5347.43
 11
-9.75116
 21
5347.49
  0
LINE
  8
0
 10
-9.75116
 20
5347.49
 11
9.75116
 21
5347.49
  0
LINE
  8
0
 10
9.75116
 20
5347.49
 11
10.2495
 21
5347.43
  0
LINE
  8
0
 10
10.2495
 20
5347.43
 11
10.7361
 21
5347.3
  0
LINE
  8
0
 10
10.7361
 20
5347.3
 11
11.2031
 21
5347.12
  0
LINE
  8
0
 10
11.2031
 20
5347.12
 11
11.6433
 21
5346.88
  0
LINE
  8
0
 10
11.6433
 20
5346.88
 11
12.0497
 21
5346.58
  0
LINE
  8
0
 10
12.0497
 20
5346.58
 11
12.4159
 21
5346.24
  0
LINE
  8
0
 10
12.4159
 20
5346.24
 11
12.7361
 21
5345.85
  0
LINE
  8
0
 10
12.7361
 20
5345.85
 11
13.0052
 21
5345.43
  0
LINE
  8
0
 10
13.0052
 20
5345.43
 11
13.2191
 21
5344.97
  0
LINE
  8
0
 10
13.2191
 20
5344.97
 11
13.3743
 21
5344.49
  0
LINE
  8
0
 10
13.3743
 20
5344.49
 11
13.4684
 21
5344
  0
LINE
  8
0
 10
13.4684
 20
5344
 11
13.5
 21
5343.5
  0
LINE
  8
0
 10
13.5
 20
5343.5
 11
13.5
 21
5114.5
  0
LINE
  8
0
 10
13.5
 20
5114.5
 11
13.4684
 21
5114
  0
LINE
  8
0
 10
13.4684
 20
5114
 11
13.3743
 21
5113.51
  0
LINE
  8
0
 10
13.3743
 20
5113.51
 11
13.2191
 21
5113.03
  0
LINE
  8
0
 10
13.2191
 20
5113.03
 11
13.0052
 21
5112.57
  0
LINE
  8
0
 10
13.0052
 20
5112.57
 11
12.7361
 21
5112.15
  0
LINE
  8
0
 10
12.7361
 20
5112.15
 11
12.4159
 21
5111.76
  0
LINE
  8
0
 10
12.4159
 20
5111.76
 11
12.0497
 21
5111.42
  0
LINE
  8
0
 10
12.0497
 20
5111.42
 11
11.6433
 21
5111.12
  0
LINE
  8
0
 10
11.6433
 20
5111.12
 11
11.2031
 21
5110.88
  0
LINE
  8
0
 10
11.2031
 20
5110.88
 11
10.7361
 21
5110.7
  0
LINE
  8
0
 10
10.7361
 20
5110.7
 11
10.2495
 21
5110.57
  0
LINE
  8
0
 10
10.2495
 20
5110.57
 11
9.75116
 21
5110.51
  0
LINE
  8
0
 10
9.75116
 20
5110.51
 11
-9.75116
 21
5110.51
  0
LINE
  8
0
 10
10.9369
 20
4860.09
 11
11.5451
 21
4860.24
  0
LINE
  8
0
 10
11.5451
 20
4860.24
 11
12.1289
 21
4860.48
  0
LINE
  8
0
 10
12.1289
 20
4860.48
 11
12.6791
 21
4860.78
  0
LINE
  8
0
 10
12.6791
 20
4860.78
 11
13.1871
 21
4861.15
  0
LINE
  8
0
 10
13.1871
 20
4861.15
 11
13.6448
 21
4861.58
  0
LINE
  8
0
 10
13.6448
 20
4861.58
 11
14.0451
 21
4862.06
  0
LINE
  8
0
 10
14.0451
 20
4862.06
 11
14.3815
 21
4862.59
  0
LINE
  8
0
 10
14.3815
 20
4862.59
 11
14.6489
 21
4863.16
  0
LINE
  8
0
 10
14.6489
 20
4863.16
 11
14.8429
 21
4863.76
  0
LINE
  8
0
 10
14.8429
 20
4863.76
 11
14.9606
 21
4864.37
  0
LINE
  8
0
 10
14.9606
 20
4864.37
 11
15
 21
4865
  0
LINE
  8
0
 10
15
 20
4865
 11
15
 21
5095
  0
LINE
  8
0
 10
15
 20
5095
 11
14.9606
 21
5095.63
  0
LINE
  8
0
 10
14.9606
 20
5095.63
 11
14.8429
 21
5096.24
  0
LINE
  8
0
 10
14.8429
 20
5096.24
 11
14.6489
 21
5096.84
  0
LINE
  8
0
 10
14.6489
 20
5096.84
 11
14.3815
 21
5097.41
  0
LINE
  8
0
 10
14.3815
 20
5097.41
 11
14.0451
 21
5097.94
  0
LINE
  8
0
 10
14.0451
 20
5097.94
 11
13.6448
 21
5098.42
  0
LINE
  8
0
 10
13.6448
 20
5098.42
 11
13.1871
 21
5098.85
  0
LINE
  8
0
 10
13.1871
 20
5098.85
 11
12.6791
 21
5099.22
  0
LINE
  8
0
 10
12.6791
 20
5099.22
 11
12.1289
 21
5099.52
  0
LINE
  8
0
 10
12.1289
 20
5099.52
 11
11.5451
 21
5099.76
  0
LINE
  8
0
 10
11.5451
 20
5099.76
 11
10.9369
 21
5099.91
  0
LINE
  8
0
 10
10.9369
 20
5099.91
 11
10.3139
 21
5099.99
  0
LINE
  8
0
 10
10.3139
 20
5099.99
 11
-10.3139
 21
5099.99
  0
LINE
  8
0
 10
-10.3139
 20
5099.99
 11
-10.9369
 21
5099.91
  0
LINE
  8
0
 10
-10.9369
 20
5099.91
 11
-11.5451
 21
5099.76
  0
LINE
  8
0
 10
-11.5451
 20
5099.76
 11
-12.1289
 21
5099.52
  0
LINE
  8
0
 10
-12.1289
 20
5099.52
 11
-12.6791
 21
5099.22
  0
LINE
  8
0
 10
-12.6791
 20
5099.22
 11
-13.1871
 21
5098.85
  0
LINE
  8
0
 10
-13.1871
 20
5098.85
 11
-13.6448
 21
5098.42
  0
LINE
  8
0
 10
-13.6448
 20
5098.42
 11
-14.0451
 21
5097.94
  0
LINE
  8
0
 10
-14.0451
 20
5097.94
 11
-14.3815
 21
5097.41
  0
LINE
  8
0
 10
-14.3815
 20
5097.41
 11
-14.6489
 21
5096.84
  0
LINE
  8
0
 10
-14.6489
 20
5096.84
 11
-14.8429
 21
5096.24
  0
LINE
  8
0
 10
-14.8429
 20
5096.24
 11
-14.9606
 21
5095.63
  0
LINE
  8
0
 10
-14.9606
 20
5095.63
 11
-15
 21
5095
  0
LINE
  8
0
 10
-15
 20
5095
 11
-15
 21
4865
  0
LINE
  8
0
 10
-15
 20
4865
 11
-14.9606
 21
4864.37
  0
LINE
  8
0
 10
-14.9606
 20
4864.37
 11
-14.8429
 21
4863.76
  0
LINE
  8
0
 10
-14.8429
 20
4863.76
 11
-14.6489
 21
4863.16
  0
LINE
  8
0
 10
-14.6489
 20
4863.16
 11
-14.3815
 21
4862.59
  0
LINE
  8
0
 10
-14.3815
 20
4862.59
 11
-14.0451
 21
4862.06
  0
LINE
  8
0
 10
-14.0451
 20
4862.06
 11
-13.6448
 21
4861.58
  0
LINE
  8
0
 10
-13.6448
 20
4861.58
 11
-13.1871
 21
4861.15
  0
LINE
  8
0
 10
-13.1871
 20
4861.15
 11
-12.6791
 21
4860.78
  0
LINE
  8
0
 10
-12.6791
 20
4860.78
 11
-12.1289
 21
4860.48
  0
LINE
  8
0
 10
-12.1289
 20
4860.48
 11
-11.5451
 21
4860.24
  0
LINE
  8
0
 10
-11.5451
 20
4860.24
 11
-10.9369
 21
4860.09
  0
LINE
  8
0
 10
-10.9369
 20
4860.09
 11
-10.3139
 21
4860.01
  0
LINE
  8
0
 10
-10.3139
 20
4860.01
 11
10.3139
 21
4860.01
  0
LINE
  8
0
 10
10.3139
 20
4860.01
 11
10.9369
 21
4860.09
  0
LINE
  8
0
 10
-9.75116
 20
4861.51
 11
-10.2495
 21
4861.57
  0
LINE
  8
0
 10
-10.2495
 20
4861.57
 11
-10.7361
 21
4861.7
  0
LINE
  8
0
 10
-10.7361
 20
4861.7
 11
-11.2031
 21
4861.88
  0
LINE
  8
0
 10
-11.2031
 20
4861.88
 11
-11.6433
 21
4862.12
  0
LINE
  8
0
 10
-11.6433
 20
4862.12
 11
-12.0497
 21
4862.42
  0
LINE
  8
0
 10
-12.0497
 20
4862.42
 11
-12.4159
 21
4862.76
  0
LINE
  8
0
 10
-12.4159
 20
4862.76
 11
-12.7361
 21
4863.15
  0
LINE
  8
0
 10
-12.7361
 20
4863.15
 11
-13.0052
 21
4863.57
  0
LINE
  8
0
 10
-13.0052
 20
4863.57
 11
-13.2191
 21
4864.03
  0
LINE
  8
0
 10
-13.2191
 20
4864.03
 11
-13.3743
 21
4864.51
  0
LINE
  8
0
 10
-13.3743
 20
4864.51
 11
-13.4684
 21
4865
  0
LINE
  8
0
 10
-13.4684
 20
4865
 11
-13.5
 21
4865.5
  0
LINE
  8
0
 10
-13.5
 20
4865.5
 11
-13.5
 21
5094.5
  0
LINE
  8
0
 10
-13.5
 20
5094.5
 11
-13.4684
 21
5095
  0
LINE
  8
0
 10
-13.4684
 20
5095
 11
-13.3743
 21
5095.49
  0
LINE
  8
0
 10
-13.3743
 20
5095.49
 11
-13.2191
 21
5095.97
  0
LINE
  8
0
 10
-13.2191
 20
5095.97
 11
-13.0052
 21
5096.43
  0
LINE
  8
0
 10
-13.0052
 20
5096.43
 11
-12.7361
 21
5096.85
  0
LINE
  8
0
 10
-12.7361
 20
5096.85
 11
-12.4159
 21
5097.24
  0
LINE
  8
0
 10
-12.4159
 20
5097.24
 11
-12.0497
 21
5097.58
  0
LINE
  8
0
 10
-12.0497
 20
5097.58
 11
-11.6433
 21
5097.88
  0
LINE
  8
0
 10
-11.6433
 20
5097.88
 11
-11.2031
 21
5098.12
  0
LINE
  8
0
 10
-11.2031
 20
5098.12
 11
-10.7361
 21
5098.3
  0
LINE
  8
0
 10
-10.7361
 20
5098.3
 11
-10.2495
 21
5098.43
  0
LINE
  8
0
 10
-10.2495
 20
5098.43
 11
-9.75116
 21
5098.49
  0
LINE
  8
0
 10
-9.75116
 20
5098.49
 11
9.75116
 21
5098.49
  0
LINE
  8
0
 10
9.75116
 20
5098.49
 11
10.2495
 21
5098.43
  0
LINE
  8
0
 10
10.2495
 20
5098.43
 11
10.7361
 21
5098.3
  0
LINE
  8
0
 10
10.7361
 20
5098.3
 11
11.2031
 21
5098.12
  0
LINE
  8
0
 10
11.2031
 20
5098.12
 11
11.6433
 21
5097.88
  0
LINE
  8
0
 10
11.6433
 20
5097.88
 11
12.0497
 21
5097.58
  0
LINE
  8
0
 10
12.0497
 20
5097.58
 11
12.4159
 21
5097.24
  0
LINE
  8
0
 10
12.4159
 20
5097.24
 11
12.7361
 21
5096.85
  0
LINE
  8
0
 10
12.7361
 20
5096.85
 11
13.0052
 21
5096.43
  0
LINE
  8
0
 10
13.0052
 20
5096.43
 11
13.2191
 21
5095.97
  0
LINE
  8
0
 10
13.2191
 20
5095.97
 11
13.3743
 21
5095.49
  0
LINE
  8
0
 10
13.3743
 20
5095.49
 11
13.4684
 21
5095
  0
LINE
  8
0
 10
13.4684
 20
5095
 11
13.5
 21
5094.5
  0
LINE
  8
0
 10
13.5
 20
5094.5
 11
13.5
 21
4865.5
  0
LINE
  8
0
 10
13.5
 20
4865.5
 11
13.4684
 21
4865
  0
LINE
  8
0
 10
13.4684
 20
4865
 11
13.3743
 21
4864.51
  0
LINE
  8
0
 10
13.3743
 20
4864.51
 11
13.2191
 21
4864.03
  0
LINE
  8
0
 10
13.2191
 20
4864.03
 11
13.0052
 21
4863.57
  0
LINE
  8
0
 10
13.0052
 20
4863.57
 11
12.7361
 21
4863.15
  0
LINE
  8
0
 10
12.7361
 20
4863.15
 11
12.4159
 21
4862.76
  0
LINE
  8
0
 10
12.4159
 20
4862.76
 11
12.0497
 21
4862.42
  0
LINE
  8
0
 10
12.0497
 20
4862.42
 11
11.6433
 21
4862.12
  0
LINE
  8
0
 10
11.6433
 20
4862.12
 11
11.2031
 21
4861.88
  0
LINE
  8
0
 10
11.2031
 20
4861.88
 11
10.7361
 21
4861.7
  0
LINE
  8
0
 10
10.7361
 20
4861.7
 11
10.2495
 21
4861.57
  0
LINE
  8
0
 10
10.2495
 20
4861.57
 11
9.75116
 21
4861.51
  0
LINE
  8
0
 10
9.75116
 20
4861.51
 11
-9.75116
 21
4861.51
  0
LINE
  8
0
 10
10.9369
 20
4611.09
 11
11.5451
 21
4611.24
  0
LINE
  8
0
 10
11.5451
 20
4611.24
 11
12.1289
 21
4611.48
  0
LINE
  8
0
 10
12.1289
 20
4611.48
 11
12.6791
 21
4611.78
  0
LINE
  8
0
 10
12.6791
 20
4611.78
 11
13.1871
 21
4612.15
  0
LINE
  8
0
 10
13.1871
 20
4612.15
 11
13.6448
 21
4612.58
  0
LINE
  8
0
 10
13.6448
 20
4612.58
 11
14.0451
 21
4613.06
  0
LINE
  8
0
 10
14.0451
 20
4613.06
 11
14.3815
 21
4613.59
  0
LINE
  8
0
 10
14.3815
 20
4613.59
 11
14.6489
 21
4614.16
  0
LINE
  8
0
 10
14.6489
 20
4614.16
 11
14.8429
 21
4614.76
  0
LINE
  8
0
 10
14.8429
 20
4614.76
 11
14.9606
 21
4615.37
  0
LINE
  8
0
 10
14.9606
 20
4615.37
 11
15
 21
4616
  0
LINE
  8
0
 10
15
 20
4616
 11
15
 21
4846
  0
LINE
  8
0
 10
15
 20
4846
 11
14.9606
 21
4846.63
  0
LINE
  8
0
 10
14.9606
 20
4846.63
 11
14.8429
 21
4847.24
  0
LINE
  8
0
 10
14.8429
 20
4847.24
 11
14.6489
 21
4847.84
  0
LINE
  8
0
 10
14.6489
 20
4847.84
 11
14.3815
 21
4848.41
  0
LINE
  8
0
 10
14.3815
 20
4848.41
 11
14.0451
 21
4848.94
  0
LINE
  8
0
 10
14.0451
 20
4848.94
 11
13.6448
 21
4849.42
  0
LINE
  8
0
 10
13.6448
 20
4849.42
 11
13.1871
 21
4849.85
  0
LINE
  8
0
 10
13.1871
 20
4849.85
 11
12.6791
 21
4850.22
  0
LINE
  8
0
 10
12.6791
 20
4850.22
 11
12.1289
 21
4850.52
  0
LINE
  8
0
 10
12.1289
 20
4850.52
 11
11.5451
 21
4850.76
  0
LINE
  8
0
 10
11.5451
 20
4850.76
 11
10.9369
 21
4850.91
  0
LINE
  8
0
 10
10.9369
 20
4850.91
 11
10.3139
 21
4850.99
  0
LINE
  8
0
 10
10.3139
 20
4850.99
 11
-10.3139
 21
4850.99
  0
LINE
  8
0
 10
-10.3139
 20
4850.99
 11
-10.9369
 21
4850.91
  0
LINE
  8
0
 10
-10.9369
 20
4850.91
 11
-11.5451
 21
4850.76
  0
LINE
  8
0
 10
-11.5451
 20
4850.76
 11
-12.1289
 21
4850.52
  0
LINE
  8
0
 10
-12.1289
 20
4850.52
 11
-12.6791
 21
4850.22
  0
LINE
  8
0
 10
-12.6791
 20
4850.22
 11
-13.1871
 21
4849.85
  0
LINE
  8
0
 10
-13.1871
 20
4849.85
 11
-13.6448
 21
4849.42
  0
LINE
  8
0
 10
-13.6448
 20
4849.42
 11
-14.0451
 21
4848.94
  0
LINE
  8
0
 10
-14.0451
 20
4848.94
 11
-14.3815
 21
4848.41
  0
LINE
  8
0
 10
-14.3815
 20
4848.41
 11
-14.6489
 21
4847.84
  0
LINE
  8
0
 10
-14.6489
 20
4847.84
 11
-14.8429
 21
4847.24
  0
LINE
  8
0
 10
-14.8429
 20
4847.24
 11
-14.9606
 21
4846.63
  0
LINE
  8
0
 10
-14.9606
 20
4846.63
 11
-15
 21
4846
  0
LINE
  8
0
 10
-15
 20
4846
 11
-15
 21
4616
  0
LINE
  8
0
 10
-15
 20
4616
 11
-14.9606
 21
4615.37
  0
LINE
  8
0
 10
-14.9606
 20
4615.37
 11
-14.8429
 21
4614.76
  0
LINE
  8
0
 10
-14.8429
 20
4614.76
 11
-14.6489
 21
4614.16
  0
LINE
  8
0
 10
-14.6489
 20
4614.16
 11
-14.3815
 21
4613.59
  0
LINE
  8
0
 10
-14.3815
 20
4613.59
 11
-14.0451
 21
4613.06
  0
LINE
  8
0
 10
-14.0451
 20
4613.06
 11
-13.6448
 21
4612.58
  0
LINE
  8
0
 10
-13.6448
 20
4612.58
 11
-13.1871
 21
4612.15
  0
LINE
  8
0
 10
-13.1871
 20
4612.15
 11
-12.6791
 21
4611.78
  0
LINE
  8
0
 10
-12.6791
 20
4611.78
 11
-12.1289
 21
4611.48
  0
LINE
  8
0
 10
-12.1289
 20
4611.48
 11
-11.5451
 21
4611.24
  0
LINE
  8
0
 10
-11.5451
 20
4611.24
 11
-10.9369
 21
4611.09
  0
LINE
  8
0
 10
-10.9369
 20
4611.09
 11
-10.3139
 21
4611.01
  0
LINE
  8
0
 10
-10.3139
 20
4611.01
 11
10.3139
 21
4611.01
  0
LINE
  8
0
 10
10.3139
 20
4611.01
 11
10.9369
 21
4611.09
  0
LINE
  8
0
 10
-9.75116
 20
4612.51
 11
-10.2495
 21
4612.57
  0
LINE
  8
0
 10
-10.2495
 20
4612.57
 11
-10.7361
 21
4612.7
  0
LINE
  8
0
 10
-10.7361
 20
4612.7
 11
-11.2031
 21
4612.88
  0
LINE
  8
0
 10
-11.2031
 20
4612.88
 11
-11.6433
 21
4613.12
  0
LINE
  8
0
 10
-11.6433
 20
4613.12
 11
-12.0497
 21
4613.42
  0
LINE
  8
0
 10
-12.0497
 20
4613.42
 11
-12.4159
 21
4613.76
  0
LINE
  8
0
 10
-12.4159
 20
4613.76
 11
-12.7361
 21
4614.15
  0
LINE
  8
0
 10
-12.7361
 20
4614.15
 11
-13.0052
 21
4614.57
  0
LINE
  8
0
 10
-13.0052
 20
4614.57
 11
-13.2191
 21
4615.03
  0
LINE
  8
0
 10
-13.2191
 20
4615.03
 11
-13.3743
 21
4615.51
  0
LINE
  8
0
 10
-13.3743
 20
4615.51
 11
-13.4684
 21
4616
  0
LINE
  8
0
 10
-13.4684
 20
4616
 11
-13.5
 21
4616.5
  0
LINE
  8
0
 10
-13.5
 20
4616.5
 11
-13.5
 21
4845.5
  0
LINE
  8
0
 10
-13.5
 20
4845.5
 11
-13.4684
 21
4846
  0
LINE
  8
0
 10
-13.4684
 20
4846
 11
-13.3743
 21
4846.49
  0
LINE
  8
0
 10
-13.3743
 20
4846.49
 11
-13.2191
 21
4846.97
  0
LINE
  8
0
 10
-13.2191
 20
4846.97
 11
-13.0052
 21
4847.43
  0
LINE
  8
0
 10
-13.0052
 20
4847.43
 11
-12.7361
 21
4847.85
  0
LINE
  8
0
 10
-12.7361
 20
4847.85
 11
-12.4159
 21
4848.24
  0
LINE
  8
0
 10
-12.4159
 20
4848.24
 11
-12.0497
 21
4848.58
  0
LINE
  8
0
 10
-12.0497
 20
4848.58
 11
-11.6433
 21
4848.88
  0
LINE
  8
0
 10
-11.6433
 20
4848.88
 11
-11.2031
 21
4849.12
  0
LINE
  8
0
 10
-11.2031
 20
4849.12
 11
-10.7361
 21
4849.3
  0
LINE
  8
0
 10
-10.7361
 20
4849.3
 11
-10.2495
 21
4849.43
  0
LINE
  8
0
 10
-10.2495
 20
4849.43
 11
-9.75116
 21
4849.49
  0
LINE
  8
0
 10
-9.75116
 20
4849.49
 11
9.75116
 21
4849.49
  0
LINE
  8
0
 10
9.75116
 20
4849.49
 11
10.2495
 21
4849.43
  0
LINE
  8
0
 10
10.2495
 20
4849.43
 11
10.7361
 21
4849.3
  0
LINE
  8
0
 10
10.7361
 20
4849.3
 11
11.2031
 21
4849.12
  0
LINE
  8
0
 10
11.2031
 20
4849.12
 11
11.6433
 21
4848.88
  0
LINE
  8
0
 10
11.6433
 20
4848.88
 11
12.0497
 21
4848.58
  0
LINE
  8
0
 10
12.0497
 20
4848.58
 11
12.4159
 21
4848.24
  0
LINE
  8
0
 10
12.4159
 20
4848.24
 11
12.7361
 21
4847.85
  0
LINE
  8
0
 10
12.7361
 20
4847.85
 11
13.0052
 21
4847.43
  0
LINE
  8
0
 10
13.0052
 20
4847.43
 11
13.2191
 21
4846.97
  0
LINE
  8
0
 10
13.2191
 20
4846.97
 11
13.3743
 21
4846.49
  0
LINE
  8
0
 10
13.3743
 20
4846.49
 11
13.4684
 21
4846
  0
LINE
  8
0
 10
13.4684
 20
4846
 11
13.5
 21
4845.5
  0
LINE
  8
0
 10
13.5
 20
4845.5
 11
13.5
 21
4616.5
  0
LINE
  8
0
 10
13.5
 20
4616.5
 11
13.4684
 21
4616
  0
LINE
  8
0
 10
13.4684
 20
4616
 11
13.3743
 21
4615.51
  0
LINE
  8
0
 10
13.3743
 20
4615.51
 11
13.2191
 21
4615.03
  0
LINE
  8
0
 10
13.2191
 20
4615.03
 11
13.0052
 21
4614.57
  0
LINE
  8
0
 10
13.0052
 20
4614.57
 11
12.7361
 21
4614.15
  0
LINE
  8
0
 10
12.7361
 20
4614.15
 11
12.4159
 21
4613.76
  0
LINE
  8
0
 10
12.4159
 20
4613.76
 11
12.0497
 21
4613.42
  0
LINE
  8
0
 10
12.0497
 20
4613.42
 11
11.6433
 21
4613.12
  0
LINE
  8
0
 10
11.6433
 20
4613.12
 11
11.2031
 21
4612.88
  0
LINE
  8
0
 10
11.2031
 20
4612.88
 11
10.7361
 21
4612.7
  0
LINE
  8
0
 10
10.7361
 20
4612.7
 11
10.2495
 21
4612.57
  0
LINE
  8
0
 10
10.2495
 20
4612.57
 11
9.75116
 21
4612.51
  0
LINE
  8
0
 10
9.75116
 20
4612.51
 11
-9.75116
 21
4612.51
  0
LINE
  8
0
 10
10.9369
 20
4362.09
 11
11.5451
 21
4362.24
  0
LINE
  8
0
 10
11.5451
 20
4362.24
 11
12.1289
 21
4362.48
  0
LINE
  8
0
 10
12.1289
 20
4362.48
 11
12.6791
 21
4362.78
  0
LINE
  8
0
 10
12.6791
 20
4362.78
 11
13.1871
 21
4363.15
  0
LINE
  8
0
 10
13.1871
 20
4363.15
 11
13.6448
 21
4363.58
  0
LINE
  8
0
 10
13.6448
 20
4363.58
 11
14.0451
 21
4364.06
  0
LINE
  8
0
 10
14.0451
 20
4364.06
 11
14.3815
 21
4364.59
  0
LINE
  8
0
 10
14.3815
 20
4364.59
 11
14.6489
 21
4365.16
  0
LINE
  8
0
 10
14.6489
 20
4365.16
 11
14.8429
 21
4365.76
  0
LINE
  8
0
 10
14.8429
 20
4365.76
 11
14.9606
 21
4366.37
  0
LINE
  8
0
 10
14.9606
 20
4366.37
 11
15
 21
4367
  0
LINE
  8
0
 10
15
 20
4367
 11
15
 21
4597
  0
LINE
  8
0
 10
15
 20
4597
 11
14.9606
 21
4597.63
  0
LINE
  8
0
 10
14.9606
 20
4597.63
 11
14.8429
 21
4598.24
  0
LINE
  8
0
 10
14.8429
 20
4598.24
 11
14.6489
 21
4598.84
  0
LINE
  8
0
 10
14.6489
 20
4598.84
 11
14.3815
 21
4599.41
  0
LINE
  8
0
 10
14.3815
 20
4599.41
 11
14.0451
 21
4599.94
  0
LINE
  8
0
 10
14.0451
 20
4599.94
 11
13.6448
 21
4600.42
  0
LINE
  8
0
 10
13.6448
 20
4600.42
 11
13.1871
 21
4600.85
  0
LINE
  8
0
 10
13.1871
 20
4600.85
 11
12.6791
 21
4601.22
  0
LINE
  8
0
 10
12.6791
 20
4601.22
 11
12.1289
 21
4601.52
  0
LINE
  8
0
 10
12.1289
 20
4601.52
 11
11.5451
 21
4601.76
  0
LINE
  8
0
 10
11.5451
 20
4601.76
 11
10.9369
 21
4601.91
  0
LINE
  8
0
 10
10.9369
 20
4601.91
 11
10.3139
 21
4601.99
  0
LINE
  8
0
 10
10.3139
 20
4601.99
 11
-10.3139
 21
4601.99
  0
LINE
  8
0
 10
-10.3139
 20
4601.99
 11
-10.9369
 21
4601.91
  0
LINE
  8
0
 10
-10.9369
 20
4601.91
 11
-11.5451
 21
4601.76
  0
LINE
  8
0
 10
-11.5451
 20
4601.76
 11
-12.1289
 21
4601.52
  0
LINE
  8
0
 10
-12.1289
 20
4601.52
 11
-12.6791
 21
4601.22
  0
LINE
  8
0
 10
-12.6791
 20
4601.22
 11
-13.1871
 21
4600.85
  0
LINE
  8
0
 10
-13.1871
 20
4600.85
 11
-13.6448
 21
4600.42
  0
LINE
  8
0
 10
-13.6448
 20
4600.42
 11
-14.0451
 21
4599.94
  0
LINE
  8
0
 10
-14.0451
 20
4599.94
 11
-14.3815
 21
4599.41
  0
LINE
  8
0
 10
-14.3815
 20
4599.41
 11
-14.6489
 21
4598.84
  0
LINE
  8
0
 10
-14.6489
 20
4598.84
 11
-14.8429
 21
4598.24
  0
LINE
  8
0
 10
-14.8429
 20
4598.24
 11
-14.9606
 21
4597.63
  0
LINE
  8
0
 10
-14.9606
 20
4597.63
 11
-15
 21
4597
  0
LINE
  8
0
 10
-15
 20
4597
 11
-15
 21
4367
  0
LINE
  8
0
 10
-15
 20
4367
 11
-14.9606
 21
4366.37
  0
LINE
  8
0
 10
-14.9606
 20
4366.37
 11
-14.8429
 21
4365.76
  0
LINE
  8
0
 10
-14.8429
 20
4365.76
 11
-14.6489
 21
4365.16
  0
LINE
  8
0
 10
-14.6489
 20
4365.16
 11
-14.3815
 21
4364.59
  0
LINE
  8
0
 10
-14.3815
 20
4364.59
 11
-14.0451
 21
4364.06
  0
LINE
  8
0
 10
-14.0451
 20
4364.06
 11
-13.6448
 21
4363.58
  0
LINE
  8
0
 10
-13.6448
 20
4363.58
 11
-13.1871
 21
4363.15
  0
LINE
  8
0
 10
-13.1871
 20
4363.15
 11
-12.6791
 21
4362.78
  0
LINE
  8
0
 10
-12.6791
 20
4362.78
 11
-12.1289
 21
4362.48
  0
LINE
  8
0
 10
-12.1289
 20
4362.48
 11
-11.5451
 21
4362.24
  0
LINE
  8
0
 10
-11.5451
 20
4362.24
 11
-10.9369
 21
4362.09
  0
LINE
  8
0
 10
-10.9369
 20
4362.09
 11
-10.3139
 21
4362.01
  0
LINE
  8
0
 10
-10.3139
 20
4362.01
 11
10.3139
 21
4362.01
  0
LINE
  8
0
 10
10.3139
 20
4362.01
 11
10.9369
 21
4362.09
  0
LINE
  8
0
 10
-9.75116
 20
4363.51
 11
-10.2495
 21
4363.57
  0
LINE
  8
0
 10
-10.2495
 20
4363.57
 11
-10.7361
 21
4363.7
  0
LINE
  8
0
 10
-10.7361
 20
4363.7
 11
-11.2031
 21
4363.88
  0
LINE
  8
0
 10
-11.2031
 20
4363.88
 11
-11.6433
 21
4364.12
  0
LINE
  8
0
 10
-11.6433
 20
4364.12
 11
-12.0497
 21
4364.42
  0
LINE
  8
0
 10
-12.0497
 20
4364.42
 11
-12.4159
 21
4364.76
  0
LINE
  8
0
 10
-12.4159
 20
4364.76
 11
-12.7361
 21
4365.15
  0
LINE
  8
0
 10
-12.7361
 20
4365.15
 11
-13.0052
 21
4365.57
  0
LINE
  8
0
 10
-13.0052
 20
4365.57
 11
-13.2191
 21
4366.03
  0
LINE
  8
0
 10
-13.2191
 20
4366.03
 11
-13.3743
 21
4366.51
  0
LINE
  8
0
 10
-13.3743
 20
4366.51
 11
-13.4684
 21
4367
  0
LINE
  8
0
 10
-13.4684
 20
4367
 11
-13.5
 21
4367.5
  0
LINE
  8
0
 10
-13.5
 20
4367.5
 11
-13.5
 21
4596.5
  0
LINE
  8
0
 10
-13.5
 20
4596.5
 11
-13.4684
 21
4597
  0
LINE
  8
0
 10
-13.4684
 20
4597
 11
-13.3743
 21
4597.49
  0
LINE
  8
0
 10
-13.3743
 20
4597.49
 11
-13.2191
 21
4597.97
  0
LINE
  8
0
 10
-13.2191
 20
4597.97
 11
-13.0052
 21
4598.43
  0
LINE
  8
0
 10
-13.0052
 20
4598.43
 11
-12.7361
 21
4598.85
  0
LINE
  8
0
 10
-12.7361
 20
4598.85
 11
-12.4159
 21
4599.24
  0
LINE
  8
0
 10
-12.4159
 20
4599.24
 11
-12.0497
 21
4599.58
  0
LINE
  8
0
 10
-12.0497
 20
4599.58
 11
-11.6433
 21
4599.88
  0
LINE
  8
0
 10
-11.6433
 20
4599.88
 11
-11.2031
 21
4600.12
  0
LINE
  8
0
 10
-11.2031
 20
4600.12
 11
-10.7361
 21
4600.3
  0
LINE
  8
0
 10
-10.7361
 20
4600.3
 11
-10.2495
 21
4600.43
  0
LINE
  8
0
 10
-10.2495
 20
4600.43
 11
-9.75116
 21
4600.49
  0
LINE
  8
0
 10
-9.75116
 20
4600.49
 11
9.75116
 21
4600.49
  0
LINE
  8
0
 10
9.75116
 20
4600.49
 11
10.2495
 21
4600.43
  0
LINE
  8
0
 10
10.2495
 20
4600.43
 11
10.7361
 21
4600.3
  0
LINE
  8
0
 10
10.7361
 20
4600.3
 11
11.2031
 21
4600.12
  0
LINE
  8
0
 10
11.2031
 20
4600.12
 11
11.6433
 21
4599.88
  0
LINE
  8
0
 10
11.6433
 20
4599.88
 11
12.0497
 21
4599.58
  0
LINE
  8
0
 10
12.0497
 20
4599.58
 11
12.4159
 21
4599.24
  0
LINE
  8
0
 10
12.4159
 20
4599.24
 11
12.7361
 21
4598.85
  0
LINE
  8
0
 10
12.7361
 20
4598.85
 11
13.0052
 21
4598.43
  0
LINE
  8
0
 10
13.0052
 20
4598.43
 11
13.2191
 21
4597.97
  0
LINE
  8
0
 10
13.2191
 20
4597.97
 11
13.3743
 21
4597.49
  0
LINE
  8
0
 10
13.3743
 20
4597.49
 11
13.4684
 21
4597
  0
LINE
  8
0
 10
13.4684
 20
4597
 11
13.5
 21
4596.5
  0
LINE
  8
0
 10
13.5
 20
4596.5
 11
13.5
 21
4367.5
  0
LINE
  8
0
 10
13.5
 20
4367.5
 11
13.4684
 21
4367
  0
LINE
  8
0
 10
13.4684
 20
4367
 11
13.3743
 21
4366.51
  0
LINE
  8
0
 10
13.3743
 20
4366.51
 11
13.2191
 21
4366.03
  0
LINE
  8
0
 10
13.2191
 20
4366.03
 11
13.0052
 21
4365.57
  0
LINE
  8
0
 10
13.0052
 20
4365.57
 11
12.7361
 21
4365.15
  0
LINE
  8
0
 10
12.7361
 20
4365.15
 11
12.4159
 21
4364.76
  0
LINE
  8
0
 10
12.4159
 20
4364.76
 11
12.0497
 21
4364.42
  0
LINE
  8
0
 10
12.0497
 20
4364.42
 11
11.6433
 21
4364.12
  0
LINE
  8
0
 10
11.6433
 20
4364.12
 11
11.2031
 21
4363.88
  0
LINE
  8
0
 10
11.2031
 20
4363.88
 11
10.7361
 21
4363.7
  0
LINE
  8
0
 10
10.7361
 20
4363.7
 11
10.2495
 21
4363.57
  0
LINE
  8
0
 10
10.2495
 20
4363.57
 11
9.75116
 21
4363.51
  0
LINE
  8
0
 10
9.75116
 20
4363.51
 11
-9.75116
 21
4363.51
  0
LINE
  8
0
 10
10.9369
 20
4113.09
 11
11.5451
 21
4113.24
  0
LINE
  8
0
 10
11.5451
 20
4113.24
 11
12.1289
 21
4113.48
  0
LINE
  8
0
 10
12.1289
 20
4113.48
 11
12.6791
 21
4113.78
  0
LINE
  8
0
 10
12.6791
 20
4113.78
 11
13.1871
 21
4114.15
  0
LINE
  8
0
 10
13.1871
 20
4114.15
 11
13.6448
 21
4114.58
  0
LINE
  8
0
 10
13.6448
 20
4114.58
 11
14.0451
 21
4115.06
  0
LINE
  8
0
 10
14.0451
 20
4115.06
 11
14.3815
 21
4115.59
  0
LINE
  8
0
 10
14.3815
 20
4115.59
 11
14.6489
 21
4116.16
  0
LINE
  8
0
 10
14.6489
 20
4116.16
 11
14.8429
 21
4116.76
  0
LINE
  8
0
 10
14.8429
 20
4116.76
 11
14.9606
 21
4117.37
  0
LINE
  8
0
 10
14.9606
 20
4117.37
 11
15
 21
4118
  0
LINE
  8
0
 10
15
 20
4118
 11
15
 21
4348
  0
LINE
  8
0
 10
15
 20
4348
 11
14.9606
 21
4348.63
  0
LINE
  8
0
 10
14.9606
 20
4348.63
 11
14.8429
 21
4349.24
  0
LINE
  8
0
 10
14.8429
 20
4349.24
 11
14.6489
 21
4349.84
  0
LINE
  8
0
 10
14.6489
 20
4349.84
 11
14.3815
 21
4350.41
  0
LINE
  8
0
 10
14.3815
 20
4350.41
 11
14.0451
 21
4350.94
  0
LINE
  8
0
 10
14.0451
 20
4350.94
 11
13.6448
 21
4351.42
  0
LINE
  8
0
 10
13.6448
 20
4351.42
 11
13.1871
 21
4351.85
  0
LINE
  8
0
 10
13.1871
 20
4351.85
 11
12.6791
 21
4352.22
  0
LINE
  8
0
 10
12.6791
 20
4352.22
 11
12.1289
 21
4352.52
  0
LINE
  8
0
 10
12.1289
 20
4352.52
 11
11.5451
 21
4352.76
  0
LINE
  8
0
 10
11.5451
 20
4352.76
 11
10.9369
 21
4352.91
  0
LINE
  8
0
 10
10.9369
 20
4352.91
 11
10.3139
 21
4352.99
  0
LINE
  8
0
 10
10.3139
 20
4352.99
 11
-10.3139
 21
4352.99
  0
LINE
  8
0
 10
-10.3139
 20
4352.99
 11
-10.9369
 21
4352.91
  0
LINE
  8
0
 10
-10.9369
 20
4352.91
 11
-11.5451
 21
4352.76
  0
LINE
  8
0
 10
-11.5451
 20
4352.76
 11
-12.1289
 21
4352.52
  0
LINE
  8
0
 10
-12.1289
 20
4352.52
 11
-12.6791
 21
4352.22
  0
LINE
  8
0
 10
-12.6791
 20
4352.22
 11
-13.1871
 21
4351.85
  0
LINE
  8
0
 10
-13.1871
 20
4351.85
 11
-13.6448
 21
4351.42
  0
LINE
  8
0
 10
-13.6448
 20
4351.42
 11
-14.0451
 21
4350.94
  0
LINE
  8
0
 10
-14.0451
 20
4350.94
 11
-14.3815
 21
4350.41
  0
LINE
  8
0
 10
-14.3815
 20
4350.41
 11
-14.6489
 21
4349.84
  0
LINE
  8
0
 10
-14.6489
 20
4349.84
 11
-14.8429
 21
4349.24
  0
LINE
  8
0
 10
-14.8429
 20
4349.24
 11
-14.9606
 21
4348.63
  0
LINE
  8
0
 10
-14.9606
 20
4348.63
 11
-15
 21
4348
  0
LINE
  8
0
 10
-15
 20
4348
 11
-15
 21
4118
  0
LINE
  8
0
 10
-15
 20
4118
 11
-14.9606
 21
4117.37
  0
LINE
  8
0
 10
-14.9606
 20
4117.37
 11
-14.8429
 21
4116.76
  0
LINE
  8
0
 10
-14.8429
 20
4116.76
 11
-14.6489
 21
4116.16
  0
LINE
  8
0
 10
-14.6489
 20
4116.16
 11
-14.3815
 21
4115.59
  0
LINE
  8
0
 10
-14.3815
 20
4115.59
 11
-14.0451
 21
4115.06
  0
LINE
  8
0
 10
-14.0451
 20
4115.06
 11
-13.6448
 21
4114.58
  0
LINE
  8
0
 10
-13.6448
 20
4114.58
 11
-13.1871
 21
4114.15
  0
LINE
  8
0
 10
-13.1871
 20
4114.15
 11
-12.6791
 21
4113.78
  0
LINE
  8
0
 10
-12.6791
 20
4113.78
 11
-12.1289
 21
4113.48
  0
LINE
  8
0
 10
-12.1289
 20
4113.48
 11
-11.5451
 21
4113.24
  0
LINE
  8
0
 10
-11.5451
 20
4113.24
 11
-10.9369
 21
4113.09
  0
LINE
  8
0
 10
-10.9369
 20
4113.09
 11
-10.3139
 21
4113.01
  0
LINE
  8
0
 10
-10.3139
 20
4113.01
 11
10.3139
 21
4113.01
  0
LINE
  8
0
 10
10.3139
 20
4113.01
 11
10.9369
 21
4113.09
  0
LINE
  8
0
 10
-9.75116
 20
4114.51
 11
-10.2495
 21
4114.57
  0
LINE
  8
0
 10
-10.2495
 20
4114.57
 11
-10.7361
 21
4114.7
  0
LINE
  8
0
 10
-10.7361
 20
4114.7
 11
-11.2031
 21
4114.88
  0
LINE
  8
0
 10
-11.2031
 20
4114.88
 11
-11.6433
 21
4115.12
  0
LINE
  8
0
 10
-11.6433
 20
4115.12
 11
-12.0497
 21
4115.42
  0
LINE
  8
0
 10
-12.0497
 20
4115.42
 11
-12.4159
 21
4115.76
  0
LINE
  8
0
 10
-12.4159
 20
4115.76
 11
-12.7361
 21
4116.15
  0
LINE
  8
0
 10
-12.7361
 20
4116.15
 11
-13.0052
 21
4116.57
  0
LINE
  8
0
 10
-13.0052
 20
4116.57
 11
-13.2191
 21
4117.03
  0
LINE
  8
0
 10
-13.2191
 20
4117.03
 11
-13.3743
 21
4117.51
  0
LINE
  8
0
 10
-13.3743
 20
4117.51
 11
-13.4684
 21
4118
  0
LINE
  8
0
 10
-13.4684
 20
4118
 11
-13.5
 21
4118.5
  0
LINE
  8
0
 10
-13.5
 20
4118.5
 11
-13.5
 21
4347.5
  0
LINE
  8
0
 10
-13.5
 20
4347.5
 11
-13.4684
 21
4348
  0
LINE
  8
0
 10
-13.4684
 20
4348
 11
-13.3743
 21
4348.49
  0
LINE
  8
0
 10
-13.3743
 20
4348.49
 11
-13.2191
 21
4348.97
  0
LINE
  8
0
 10
-13.2191
 20
4348.97
 11
-13.0052
 21
4349.43
  0
LINE
  8
0
 10
-13.0052
 20
4349.43
 11
-12.7361
 21
4349.85
  0
LINE
  8
0
 10
-12.7361
 20
4349.85
 11
-12.4159
 21
4350.24
  0
LINE
  8
0
 10
-12.4159
 20
4350.24
 11
-12.0497
 21
4350.58
  0
LINE
  8
0
 10
-12.0497
 20
4350.58
 11
-11.6433
 21
4350.88
  0
LINE
  8
0
 10
-11.6433
 20
4350.88
 11
-11.2031
 21
4351.12
  0
LINE
  8
0
 10
-11.2031
 20
4351.12
 11
-10.7361
 21
4351.3
  0
LINE
  8
0
 10
-10.7361
 20
4351.3
 11
-10.2495
 21
4351.43
  0
LINE
  8
0
 10
-10.2495
 20
4351.43
 11
-9.75116
 21
4351.49
  0
LINE
  8
0
 10
-9.75116
 20
4351.49
 11
9.75116
 21
4351.49
  0
LINE
  8
0
 10
9.75116
 20
4351.49
 11
10.2495
 21
4351.43
  0
LINE
  8
0
 10
10.2495
 20
4351.43
 11
10.7361
 21
4351.3
  0
LINE
  8
0
 10
10.7361
 20
4351.3
 11
11.2031
 21
4351.12
  0
LINE
  8
0
 10
11.2031
 20
4351.12
 11
11.6433
 21
4350.88
  0
LINE
  8
0
 10
11.6433
 20
4350.88
 11
12.0497
 21
4350.58
  0
LINE
  8
0
 10
12.0497
 20
4350.58
 11
12.4159
 21
4350.24
  0
LINE
  8
0
 10
12.4159
 20
4350.24
 11
12.7361
 21
4349.85
  0
LINE
  8
0
 10
12.7361
 20
4349.85
 11
13.0052
 21
4349.43
  0
LINE
  8
0
 10
13.0052
 20
4349.43
 11
13.2191
 21
4348.97
  0
LINE
  8
0
 10
13.2191
 20
4348.97
 11
13.3743
 21
4348.49
  0
LINE
  8
0
 10
13.3743
 20
4348.49
 11
13.4684
 21
4348
  0
LINE
  8
0
 10
13.4684
 20
4348
 11
13.5
 21
4347.5
  0
LINE
  8
0
 10
13.5
 20
4347.5
 11
13.5
 21
4118.5
  0
LINE
  8
0
 10
13.5
 20
4118.5
 11
13.4684
 21
4118
  0
LINE
  8
0
 10
13.4684
 20
4118
 11
13.3743
 21
4117.51
  0
LINE
  8
0
 10
13.3743
 20
4117.51
 11
13.2191
 21
4117.03
  0
LINE
  8
0
 10
13.2191
 20
4117.03
 11
13.0052
 21
4116.57
  0
LINE
  8
0
 10
13.0052
 20
4116.57
 11
12.7361
 21
4116.15
  0
LINE
  8
0
 10
12.7361
 20
4116.15
 11
12.4159
 21
4115.76
  0
LINE
  8
0
 10
12.4159
 20
4115.76
 11
12.0497
 21
4115.42
  0
LINE
  8
0
 10
12.0497
 20
4115.42
 11
11.6433
 21
4115.12
  0
LINE
  8
0
 10
11.6433
 20
4115.12
 11
11.2031
 21
4114.88
  0
LINE
  8
0
 10
11.2031
 20
4114.88
 11
10.7361
 21
4114.7
  0
LINE
  8
0
 10
10.7361
 20
4114.7
 11
10.2495
 21
4114.57
  0
LINE
  8
0
 10
10.2495
 20
4114.57
 11
9.75116
 21
4114.51
  0
LINE
  8
0
 10
9.75116
 20
4114.51
 11
-9.75116
 21
4114.51
  0
LINE
  8
0
 10
10.9369
 20
3864.09
 11
11.5451
 21
3864.24
  0
LINE
  8
0
 10
11.5451
 20
3864.24
 11
12.1289
 21
3864.48
  0
LINE
  8
0
 10
12.1289
 20
3864.48
 11
12.6791
 21
3864.78
  0
LINE
  8
0
 10
12.6791
 20
3864.78
 11
13.1871
 21
3865.15
  0
LINE
  8
0
 10
13.1871
 20
3865.15
 11
13.6448
 21
3865.58
  0
LINE
  8
0
 10
13.6448
 20
3865.58
 11
14.0451
 21
3866.06
  0
LINE
  8
0
 10
14.0451
 20
3866.06
 11
14.3815
 21
3866.59
  0
LINE
  8
0
 10
14.3815
 20
3866.59
 11
14.6489
 21
3867.16
  0
LINE
  8
0
 10
14.6489
 20
3867.16
 11
14.8429
 21
3867.76
  0
LINE
  8
0
 10
14.8429
 20
3867.76
 11
14.9606
 21
3868.37
  0
LINE
  8
0
 10
14.9606
 20
3868.37
 11
15
 21
3869
  0
LINE
  8
0
 10
15
 20
3869
 11
15
 21
4099
  0
LINE
  8
0
 10
15
 20
4099
 11
14.9606
 21
4099.63
  0
LINE
  8
0
 10
14.9606
 20
4099.63
 11
14.8429
 21
4100.24
  0
LINE
  8
0
 10
14.8429
 20
4100.24
 11
14.6489
 21
4100.84
  0
LINE
  8
0
 10
14.6489
 20
4100.84
 11
14.3815
 21
4101.41
  0
LINE
  8
0
 10
14.3815
 20
4101.41
 11
14.0451
 21
4101.94
  0
LINE
  8
0
 10
14.0451
 20
4101.94
 11
13.6448
 21
4102.42
  0
LINE
  8
0
 10
13.6448
 20
4102.42
 11
13.1871
 21
4102.85
  0
LINE
  8
0
 10
13.1871
 20
4102.85
 11
12.6791
 21
4103.22
  0
LINE
  8
0
 10
12.6791
 20
4103.22
 11
12.1289
 21
4103.52
  0
LINE
  8
0
 10
12.1289
 20
4103.52
 11
11.5451
 21
4103.76
  0
LINE
  8
0
 10
11.5451
 20
4103.76
 11
10.9369
 21
4103.91
  0
LINE
  8
0
 10
10.9369
 20
4103.91
 11
10.3139
 21
4103.99
  0
LINE
  8
0
 10
10.3139
 20
4103.99
 11
-10.3139
 21
4103.99
  0
LINE
  8
0
 10
-10.3139
 20
4103.99
 11
-10.9369
 21
4103.91
  0
LINE
  8
0
 10
-10.9369
 20
4103.91
 11
-11.5451
 21
4103.76
  0
LINE
  8
0
 10
-11.5451
 20
4103.76
 11
-12.1289
 21
4103.52
  0
LINE
  8
0
 10
-12.1289
 20
4103.52
 11
-12.6791
 21
4103.22
  0
LINE
  8
0
 10
-12.6791
 20
4103.22
 11
-13.1871
 21
4102.85
  0
LINE
  8
0
 10
-13.1871
 20
4102.85
 11
-13.6448
 21
4102.42
  0
LINE
  8
0
 10
-13.6448
 20
4102.42
 11
-14.0451
 21
4101.94
  0
LINE
  8
0
 10
-14.0451
 20
4101.94
 11
-14.3815
 21
4101.41
  0
LINE
  8
0
 10
-14.3815
 20
4101.41
 11
-14.6489
 21
4100.84
  0
LINE
  8
0
 10
-14.6489
 20
4100.84
 11
-14.8429
 21
4100.24
  0
LINE
  8
0
 10
-14.8429
 20
4100.24
 11
-14.9606
 21
4099.63
  0
LINE
  8
0
 10
-14.9606
 20
4099.63
 11
-15
 21
4099
  0
LINE
  8
0
 10
-15
 20
4099
 11
-15
 21
3869
  0
LINE
  8
0
 10
-15
 20
3869
 11
-14.9606
 21
3868.37
  0
LINE
  8
0
 10
-14.9606
 20
3868.37
 11
-14.8429
 21
3867.76
  0
LINE
  8
0
 10
-14.8429
 20
3867.76
 11
-14.6489
 21
3867.16
  0
LINE
  8
0
 10
-14.6489
 20
3867.16
 11
-14.3815
 21
3866.59
  0
LINE
  8
0
 10
-14.3815
 20
3866.59
 11
-14.0451
 21
3866.06
  0
LINE
  8
0
 10
-14.0451
 20
3866.06
 11
-13.6448
 21
3865.58
  0
LINE
  8
0
 10
-13.6448
 20
3865.58
 11
-13.1871
 21
3865.15
  0
LINE
  8
0
 10
-13.1871
 20
3865.15
 11
-12.6791
 21
3864.78
  0
LINE
  8
0
 10
-12.6791
 20
3864.78
 11
-12.1289
 21
3864.48
  0
LINE
  8
0
 10
-12.1289
 20
3864.48
 11
-11.5451
 21
3864.24
  0
LINE
  8
0
 10
-11.5451
 20
3864.24
 11
-10.9369
 21
3864.09
  0
LINE
  8
0
 10
-10.9369
 20
3864.09
 11
-10.3139
 21
3864.01
  0
LINE
  8
0
 10
-10.3139
 20
3864.01
 11
10.3139
 21
3864.01
  0
LINE
  8
0
 10
10.3139
 20
3864.01
 11
10.9369
 21
3864.09
  0
LINE
  8
0
 10
-9.69545
 20
3866.39
 11
-10.0833
 21
3866.44
  0
LINE
  8
0
 10
-10.0833
 20
3866.44
 11
-10.4619
 21
3866.54
  0
LINE
  8
0
 10
-10.4619
 20
3866.54
 11
-10.8254
 21
3866.68
  0
LINE
  8
0
 10
-10.8254
 20
3866.68
 11
-11.168
 21
3866.87
  0
LINE
  8
0
 10
-11.168
 20
3866.87
 11
-11.4842
 21
3867.1
  0
LINE
  8
0
 10
-11.4842
 20
3867.1
 11
-11.7692
 21
3867.37
  0
LINE
  8
0
 10
-11.7692
 20
3867.37
 11
-12.0184
 21
3867.67
  0
LINE
  8
0
 10
-12.0184
 20
3867.67
 11
-12.2279
 21
3868
  0
LINE
  8
0
 10
-12.2279
 20
3868
 11
-12.3943
 21
3868.35
  0
LINE
  8
0
 10
-12.3943
 20
3868.35
 11
-12.5151
 21
3868.73
  0
LINE
  8
0
 10
-12.5151
 20
3868.73
 11
-12.5884
 21
3869.11
  0
LINE
  8
0
 10
-12.5884
 20
3869.11
 11
-12.6129
 21
3869.5
  0
LINE
  8
0
 10
-12.6129
 20
3869.5
 11
-12.6129
 21
4098.5
  0
LINE
  8
0
 10
-12.6129
 20
4098.5
 11
-12.5884
 21
4098.89
  0
LINE
  8
0
 10
-12.5884
 20
4098.89
 11
-12.5151
 21
4099.27
  0
LINE
  8
0
 10
-12.5151
 20
4099.27
 11
-12.3943
 21
4099.65
  0
LINE
  8
0
 10
-12.3943
 20
4099.65
 11
-12.2279
 21
4100
  0
LINE
  8
0
 10
-12.2279
 20
4100
 11
-12.0184
 21
4100.33
  0
LINE
  8
0
 10
-12.0184
 20
4100.33
 11
-11.7692
 21
4100.63
  0
LINE
  8
0
 10
-11.7692
 20
4100.63
 11
-11.4842
 21
4100.9
  0
LINE
  8
0
 10
-11.4842
 20
4100.9
 11
-11.168
 21
4101.13
  0
LINE
  8
0
 10
-11.168
 20
4101.13
 11
-10.8254
 21
4101.32
  0
LINE
  8
0
 10
-10.8254
 20
4101.32
 11
-10.4619
 21
4101.46
  0
LINE
  8
0
 10
-10.4619
 20
4101.46
 11
-10.0833
 21
4101.56
  0
LINE
  8
0
 10
-10.0833
 20
4101.56
 11
-9.69545
 21
4101.61
  0
LINE
  8
0
 10
-9.69545
 20
4101.61
 11
9.69545
 21
4101.61
  0
LINE
  8
0
 10
9.69545
 20
4101.61
 11
10.0833
 21
4101.56
  0
LINE
  8
0
 10
10.0833
 20
4101.56
 11
10.4619
 21
4101.46
  0
LINE
  8
0
 10
10.4619
 20
4101.46
 11
10.8254
 21
4101.32
  0
LINE
  8
0
 10
10.8254
 20
4101.32
 11
11.168
 21
4101.13
  0
LINE
  8
0
 10
11.168
 20
4101.13
 11
11.4842
 21
4100.9
  0
LINE
  8
0
 10
11.4842
 20
4100.9
 11
11.7692
 21
4100.63
  0
LINE
  8
0
 10
11.7692
 20
4100.63
 11
12.0184
 21
4100.33
  0
LINE
  8
0
 10
12.0184
 20
4100.33
 11
12.2279
 21
4100
  0
LINE
  8
0
 10
12.2279
 20
4100
 11
12.3943
 21
4099.65
  0
LINE
  8
0
 10
12.3943
 20
4099.65
 11
12.5151
 21
4099.27
  0
LINE
  8
0
 10
12.5151
 20
4099.27
 11
12.5884
 21
4098.89
  0
LINE
  8
0
 10
12.5884
 20
4098.89
 11
12.6129
 21
4098.5
  0
LINE
  8
0
 10
12.6129
 20
4098.5
 11
12.6129
 21
3869.5
  0
LINE
  8
0
 10
12.6129
 20
3869.5
 11
12.5884
 21
3869.11
  0
LINE
  8
0
 10
12.5884
 20
3869.11
 11
12.5151
 21
3868.73
  0
LINE
  8
0
 10
12.5151
 20
3868.73
 11
12.3943
 21
3868.35
  0
LINE
  8
0
 10
12.3943
 20
3868.35
 11
12.2279
 21
3868
  0
LINE
  8
0
 10
12.2279
 20
3868
 11
12.0184
 21
3867.67
  0
LINE
  8
0
 10
12.0184
 20
3867.67
 11
11.7692
 21
3867.37
  0
LINE
  8
0
 10
11.7692
 20
3867.37
 11
11.4842
 21
3867.1
  0
LINE
  8
0
 10
11.4842
 20
3867.1
 11
11.168
 21
3866.87
  0
LINE
  8
0
 10
11.168
 20
3866.87
 11
10.8254
 21
3866.68
  0
LINE
  8
0
 10
10.8254
 20
3866.68
 11
10.4619
 21
3866.54
  0
LINE
  8
0
 10
10.4619
 20
3866.54
 11
10.0833
 21
3866.44
  0
LINE
  8
0
 10
10.0833
 20
3866.44
 11
9.69545
 21
3866.39
  0
LINE
  8
0
 10
9.69545
 20
3866.39
 11
-9.69545
 21
3866.39
  0
LINE
  8
0
 10
10.9369
 20
3615.09
 11
11.5451
 21
3615.24
  0
LINE
  8
0
 10
11.5451
 20
3615.24
 11
12.1289
 21
3615.48
  0
LINE
  8
0
 10
12.1289
 20
3615.48
 11
12.6791
 21
3615.78
  0
LINE
  8
0
 10
12.6791
 20
3615.78
 11
13.1871
 21
3616.15
  0
LINE
  8
0
 10
13.1871
 20
3616.15
 11
13.6448
 21
3616.58
  0
LINE
  8
0
 10
13.6448
 20
3616.58
 11
14.0451
 21
3617.06
  0
LINE
  8
0
 10
14.0451
 20
3617.06
 11
14.3815
 21
3617.59
  0
LINE
  8
0
 10
14.3815
 20
3617.59
 11
14.6489
 21
3618.16
  0
LINE
  8
0
 10
14.6489
 20
3618.16
 11
14.8429
 21
3618.76
  0
LINE
  8
0
 10
14.8429
 20
3618.76
 11
14.9606
 21
3619.37
  0
LINE
  8
0
 10
14.9606
 20
3619.37
 11
15
 21
3620
  0
LINE
  8
0
 10
15
 20
3620
 11
15
 21
3850
  0
LINE
  8
0
 10
15
 20
3850
 11
14.9606
 21
3850.63
  0
LINE
  8
0
 10
14.9606
 20
3850.63
 11
14.8429
 21
3851.24
  0
LINE
  8
0
 10
14.8429
 20
3851.24
 11
14.6489
 21
3851.84
  0
LINE
  8
0
 10
14.6489
 20
3851.84
 11
14.3815
 21
3852.41
  0
LINE
  8
0
 10
14.3815
 20
3852.41
 11
14.0451
 21
3852.94
  0
LINE
  8
0
 10
14.0451
 20
3852.94
 11
13.6448
 21
3853.42
  0
LINE
  8
0
 10
13.6448
 20
3853.42
 11
13.1871
 21
3853.85
  0
LINE
  8
0
 10
13.1871
 20
3853.85
 11
12.6791
 21
3854.22
  0
LINE
  8
0
 10
12.6791
 20
3854.22
 11
12.1289
 21
3854.52
  0
LINE
  8
0
 10
12.1289
 20
3854.52
 11
11.5451
 21
3854.76
  0
LINE
  8
0
 10
11.5451
 20
3854.76
 11
10.9369
 21
3854.91
  0
LINE
  8
0
 10
10.9369
 20
3854.91
 11
10.3139
 21
3854.99
  0
LINE
  8
0
 10
10.3139
 20
3854.99
 11
-10.3139
 21
3854.99
  0
LINE
  8
0
 10
-10.3139
 20
3854.99
 11
-10.9369
 21
3854.91
  0
LINE
  8
0
 10
-10.9369
 20
3854.91
 11
-11.5451
 21
3854.76
  0
LINE
  8
0
 10
-11.5451
 20
3854.76
 11
-12.1289
 21
3854.52
  0
LINE
  8
0
 10
-12.1289
 20
3854.52
 11
-12.6791
 21
3854.22
  0
LINE
  8
0
 10
-12.6791
 20
3854.22
 11
-13.1871
 21
3853.85
  0
LINE
  8
0
 10
-13.1871
 20
3853.85
 11
-13.6448
 21
3853.42
  0
LINE
  8
0
 10
-13.6448
 20
3853.42
 11
-14.0451
 21
3852.94
  0
LINE
  8
0
 10
-14.0451
 20
3852.94
 11
-14.3815
 21
3852.41
  0
LINE
  8
0
 10
-14.3815
 20
3852.41
 11
-14.6489
 21
3851.84
  0
LINE
  8
0
 10
-14.6489
 20
3851.84
 11
-14.8429
 21
3851.24
  0
LINE
  8
0
 10
-14.8429
 20
3851.24
 11
-14.9606
 21
3850.63
  0
LINE
  8
0
 10
-14.9606
 20
3850.63
 11
-15
 21
3850
  0
LINE
  8
0
 10
-15
 20
3850
 11
-15
 21
3620
  0
LINE
  8
0
 10
-15
 20
3620
 11
-14.9606
 21
3619.37
  0
LINE
  8
0
 10
-14.9606
 20
3619.37
 11
-14.8429
 21
3618.76
  0
LINE
  8
0
 10
-14.8429
 20
3618.76
 11
-14.6489
 21
3618.16
  0
LINE
  8
0
 10
-14.6489
 20
3618.16
 11
-14.3815
 21
3617.59
  0
LINE
  8
0
 10
-14.3815
 20
3617.59
 11
-14.0451
 21
3617.06
  0
LINE
  8
0
 10
-14.0451
 20
3617.06
 11
-13.6448
 21
3616.58
  0
LINE
  8
0
 10
-13.6448
 20
3616.58
 11
-13.1871
 21
3616.15
  0
LINE
  8
0
 10
-13.1871
 20
3616.15
 11
-12.6791
 21
3615.78
  0
LINE
  8
0
 10
-12.6791
 20
3615.78
 11
-12.1289
 21
3615.48
  0
LINE
  8
0
 10
-12.1289
 20
3615.48
 11
-11.5451
 21
3615.24
  0
LINE
  8
0
 10
-11.5451
 20
3615.24
 11
-10.9369
 21
3615.09
  0
LINE
  8
0
 10
-10.9369
 20
3615.09
 11
-10.3139
 21
3615.01
  0
LINE
  8
0
 10
-10.3139
 20
3615.01
 11
10.3139
 21
3615.01
  0
LINE
  8
0
 10
10.3139
 20
3615.01
 11
10.9369
 21
3615.09
  0
LINE
  8
0
 10
-7.63406
 20
3845.37
 11
-7.9001
 21
3845.4
  0
LINE
  8
0
 10
-7.9001
 20
3845.4
 11
-8.15984
 21
3845.47
  0
LINE
  8
0
 10
-8.15984
 20
3845.47
 11
-8.40915
 21
3845.57
  0
LINE
  8
0
 10
-8.40915
 20
3845.57
 11
-8.64413
 21
3845.7
  0
LINE
  8
0
 10
-8.64413
 20
3845.7
 11
-8.86108
 21
3845.85
  0
LINE
  8
0
 10
-8.86108
 20
3845.85
 11
-9.05655
 21
3846.04
  0
LINE
  8
0
 10
-9.05655
 20
3846.04
 11
-9.22748
 21
3846.24
  0
LINE
  8
0
 10
-9.22748
 20
3846.24
 11
-9.37117
 21
3846.47
  0
LINE
  8
0
 10
-9.37117
 20
3846.47
 11
-9.48534
 21
3846.71
  0
LINE
  8
0
 10
-9.48534
 20
3846.71
 11
-9.56821
 21
3846.97
  0
LINE
  8
0
 10
-9.56821
 20
3846.97
 11
-9.61845
 21
3847.23
  0
LINE
  8
0
 10
-9.61845
 20
3847.23
 11
-9.63528
 21
3847.5
  0
LINE
  8
0
 10
-9.63528
 20
3847.5
 11
-9.61845
 21
3847.77
  0
LINE
  8
0
 10
-9.61845
 20
3847.77
 11
-9.56821
 21
3848.03
  0
LINE
  8
0
 10
-9.56821
 20
3848.03
 11
-9.48534
 21
3848.29
  0
LINE
  8
0
 10
-9.48534
 20
3848.29
 11
-9.37117
 21
3848.53
  0
LINE
  8
0
 10
-9.37117
 20
3848.53
 11
-9.22748
 21
3848.76
  0
LINE
  8
0
 10
-9.22748
 20
3848.76
 11
-9.05655
 21
3848.96
  0
LINE
  8
0
 10
-9.05655
 20
3848.96
 11
-8.86108
 21
3849.15
  0
LINE
  8
0
 10
-8.86108
 20
3849.15
 11
-8.64413
 21
3849.3
  0
LINE
  8
0
 10
-8.64413
 20
3849.3
 11
-8.40915
 21
3849.43
  0
LINE
  8
0
 10
-8.40915
 20
3849.43
 11
-8.15984
 21
3849.53
  0
LINE
  8
0
 10
-8.15984
 20
3849.53
 11
-7.9001
 21
3849.6
  0
LINE
  8
0
 10
-7.9001
 20
3849.6
 11
-7.63406
 21
3849.63
  0
LINE
  8
0
 10
-7.63406
 20
3849.63
 11
-7.36592
 21
3849.63
  0
LINE
  8
0
 10
-7.36592
 20
3849.63
 11
-7.09988
 21
3849.6
  0
LINE
  8
0
 10
-7.09988
 20
3849.6
 11
-6.84015
 21
3849.53
  0
LINE
  8
0
 10
-6.84015
 20
3849.53
 11
-6.59084
 21
3849.43
  0
LINE
  8
0
 10
-6.59084
 20
3849.43
 11
-6.35585
 21
3849.3
  0
LINE
  8
0
 10
-6.35585
 20
3849.3
 11
-6.1389
 21
3849.15
  0
LINE
  8
0
 10
-6.1389
 20
3849.15
 11
-5.94344
 21
3848.96
  0
LINE
  8
0
 10
-5.94344
 20
3848.96
 11
-5.77251
 21
3848.76
  0
LINE
  8
0
 10
-5.77251
 20
3848.76
 11
-5.62881
 21
3848.53
  0
LINE
  8
0
 10
-5.62881
 20
3848.53
 11
-5.51465
 21
3848.29
  0
LINE
  8
0
 10
-5.51465
 20
3848.29
 11
-5.43178
 21
3848.03
  0
LINE
  8
0
 10
-5.43178
 20
3848.03
 11
-5.38153
 21
3847.77
  0
LINE
  8
0
 10
-5.38153
 20
3847.77
 11
-5.3647
 21
3847.5
  0
LINE
  8
0
 10
-5.3647
 20
3847.5
 11
-5.38153
 21
3847.23
  0
LINE
  8
0
 10
-5.38153
 20
3847.23
 11
-5.43178
 21
3846.97
  0
LINE
  8
0
 10
-5.43178
 20
3846.97
 11
-5.51465
 21
3846.71
  0
LINE
  8
0
 10
-5.51465
 20
3846.71
 11
-5.62881
 21
3846.47
  0
LINE
  8
0
 10
-5.62881
 20
3846.47
 11
-5.77251
 21
3846.24
  0
LINE
  8
0
 10
-5.77251
 20
3846.24
 11
-5.94344
 21
3846.04
  0
LINE
  8
0
 10
-5.94344
 20
3846.04
 11
-6.1389
 21
3845.85
  0
LINE
  8
0
 10
-6.1389
 20
3845.85
 11
-6.35585
 21
3845.7
  0
LINE
  8
0
 10
-6.35585
 20
3845.7
 11
-6.59084
 21
3845.57
  0
LINE
  8
0
 10
-6.59084
 20
3845.57
 11
-6.84015
 21
3845.47
  0
LINE
  8
0
 10
-6.84015
 20
3845.47
 11
-7.09988
 21
3845.4
  0
LINE
  8
0
 10
-7.09988
 20
3845.4
 11
-7.36592
 21
3845.37
  0
LINE
  8
0
 10
-7.36592
 20
3845.37
 11
-7.63406
 21
3845.37
  0
LINE
  8
0
 10
7.36592
 20
3845.37
 11
7.09988
 21
3845.4
  0
LINE
  8
0
 10
7.09988
 20
3845.4
 11
6.84015
 21
3845.47
  0
LINE
  8
0
 10
6.84015
 20
3845.47
 11
6.59084
 21
3845.57
  0
LINE
  8
0
 10
6.59084
 20
3845.57
 11
6.35585
 21
3845.7
  0
LINE
  8
0
 10
6.35585
 20
3845.7
 11
6.1389
 21
3845.85
  0
LINE
  8
0
 10
6.1389
 20
3845.85
 11
5.94344
 21
3846.04
  0
LINE
  8
0
 10
5.94344
 20
3846.04
 11
5.77251
 21
3846.24
  0
LINE
  8
0
 10
5.77251
 20
3846.24
 11
5.62881
 21
3846.47
  0
LINE
  8
0
 10
5.62881
 20
3846.47
 11
5.51465
 21
3846.71
  0
LINE
  8
0
 10
5.51465
 20
3846.71
 11
5.43178
 21
3846.97
  0
LINE
  8
0
 10
5.43178
 20
3846.97
 11
5.38153
 21
3847.23
  0
LINE
  8
0
 10
5.38153
 20
3847.23
 11
5.3647
 21
3847.5
  0
LINE
  8
0
 10
5.3647
 20
3847.5
 11
5.38153
 21
3847.77
  0
LINE
  8
0
 10
5.38153
 20
3847.77
 11
5.43178
 21
3848.03
  0
LINE
  8
0
 10
5.43178
 20
3848.03
 11
5.51465
 21
3848.29
  0
LINE
  8
0
 10
5.51465
 20
3848.29
 11
5.62881
 21
3848.53
  0
LINE
  8
0
 10
5.62881
 20
3848.53
 11
5.77251
 21
3848.76
  0
LINE
  8
0
 10
5.77251
 20
3848.76
 11
5.94344
 21
3848.96
  0
LINE
  8
0
 10
5.94344
 20
3848.96
 11
6.1389
 21
3849.15
  0
LINE
  8
0
 10
6.1389
 20
3849.15
 11
6.35585
 21
3849.3
  0
LINE
  8
0
 10
6.35585
 20
3849.3
 11
6.59084
 21
3849.43
  0
LINE
  8
0
 10
6.59084
 20
3849.43
 11
6.84015
 21
3849.53
  0
LINE
  8
0
 10
6.84015
 20
3849.53
 11
7.09988
 21
3849.6
  0
LINE
  8
0
 10
7.09988
 20
3849.6
 11
7.36592
 21
3849.63
  0
LINE
  8
0
 10
7.36592
 20
3849.63
 11
7.63406
 21
3849.63
  0
LINE
  8
0
 10
7.63406
 20
3849.63
 11
7.9001
 21
3849.6
  0
LINE
  8
0
 10
7.9001
 20
3849.6
 11
8.15984
 21
3849.53
  0
LINE
  8
0
 10
8.15984
 20
3849.53
 11
8.40915
 21
3849.43
  0
LINE
  8
0
 10
8.40915
 20
3849.43
 11
8.64413
 21
3849.3
  0
LINE
  8
0
 10
8.64413
 20
3849.3
 11
8.86108
 21
3849.15
  0
LINE
  8
0
 10
8.86108
 20
3849.15
 11
9.05655
 21
3848.96
  0
LINE
  8
0
 10
9.05655
 20
3848.96
 11
9.22748
 21
3848.76
  0
LINE
  8
0
 10
9.22748
 20
3848.76
 11
9.37117
 21
3848.53
  0
LINE
  8
0
 10
9.37117
 20
3848.53
 11
9.48534
 21
3848.29
  0
LINE
  8
0
 10
9.48534
 20
3848.29
 11
9.56821
 21
3848.03
  0
LINE
  8
0
 10
9.56821
 20
3848.03
 11
9.61845
 21
3847.77
  0
LINE
  8
0
 10
9.61845
 20
3847.77
 11
9.63528
 21
3847.5
  0
LINE
  8
0
 10
9.63528
 20
3847.5
 11
9.61845
 21
3847.23
  0
LINE
  8
0
 10
9.61845
 20
3847.23
 11
9.56821
 21
3846.97
  0
LINE
  8
0
 10
9.56821
 20
3846.97
 11
9.48534
 21
3846.71
  0
LINE
  8
0
 10
9.48534
 20
3846.71
 11
9.37117
 21
3846.47
  0
LINE
  8
0
 10
9.37117
 20
3846.47
 11
9.22748
 21
3846.24
  0
LINE
  8
0
 10
9.22748
 20
3846.24
 11
9.05655
 21
3846.04
  0
LINE
  8
0
 10
9.05655
 20
3846.04
 11
8.86108
 21
3845.85
  0
LINE
  8
0
 10
8.86108
 20
3845.85
 11
8.64413
 21
3845.7
  0
LINE
  8
0
 10
8.64413
 20
3845.7
 11
8.40915
 21
3845.57
  0
LINE
  8
0
 10
8.40915
 20
3845.57
 11
8.15984
 21
3845.47
  0
LINE
  8
0
 10
8.15984
 20
3845.47
 11
7.9001
 21
3845.4
  0
LINE
  8
0
 10
7.9001
 20
3845.4
 11
7.63406
 21
3845.37
  0
LINE
  8
0
 10
7.63406
 20
3845.37
 11
7.36592
 21
3845.37
  0
LINE
  8
0
 10
-7.63406
 20
3620.37
 11
-7.9001
 21
3620.4
  0
LINE
  8
0
 10
-7.9001
 20
3620.4
 11
-8.15984
 21
3620.47
  0
LINE
  8
0
 10
-8.15984
 20
3620.47
 11
-8.40915
 21
3620.57
  0
LINE
  8
0
 10
-8.40915
 20
3620.57
 11
-8.64413
 21
3620.7
  0
LINE
  8
0
 10
-8.64413
 20
3620.7
 11
-8.86108
 21
3620.85
  0
LINE
  8
0
 10
-8.86108
 20
3620.85
 11
-9.05655
 21
3621.04
  0
LINE
  8
0
 10
-9.05655
 20
3621.04
 11
-9.22748
 21
3621.24
  0
LINE
  8
0
 10
-9.22748
 20
3621.24
 11
-9.37117
 21
3621.47
  0
LINE
  8
0
 10
-9.37117
 20
3621.47
 11
-9.48534
 21
3621.71
  0
LINE
  8
0
 10
-9.48534
 20
3621.71
 11
-9.56821
 21
3621.97
  0
LINE
  8
0
 10
-9.56821
 20
3621.97
 11
-9.61845
 21
3622.23
  0
LINE
  8
0
 10
-9.61845
 20
3622.23
 11
-9.63528
 21
3622.5
  0
LINE
  8
0
 10
-9.63528
 20
3622.5
 11
-9.61845
 21
3622.77
  0
LINE
  8
0
 10
-9.61845
 20
3622.77
 11
-9.56821
 21
3623.03
  0
LINE
  8
0
 10
-9.56821
 20
3623.03
 11
-9.48534
 21
3623.29
  0
LINE
  8
0
 10
-9.48534
 20
3623.29
 11
-9.37117
 21
3623.53
  0
LINE
  8
0
 10
-9.37117
 20
3623.53
 11
-9.22748
 21
3623.76
  0
LINE
  8
0
 10
-9.22748
 20
3623.76
 11
-9.05655
 21
3623.96
  0
LINE
  8
0
 10
-9.05655
 20
3623.96
 11
-8.86108
 21
3624.15
  0
LINE
  8
0
 10
-8.86108
 20
3624.15
 11
-8.64413
 21
3624.3
  0
LINE
  8
0
 10
-8.64413
 20
3624.3
 11
-8.40915
 21
3624.43
  0
LINE
  8
0
 10
-8.40915
 20
3624.43
 11
-8.15984
 21
3624.53
  0
LINE
  8
0
 10
-8.15984
 20
3624.53
 11
-7.9001
 21
3624.6
  0
LINE
  8
0
 10
-7.9001
 20
3624.6
 11
-7.63406
 21
3624.63
  0
LINE
  8
0
 10
-7.63406
 20
3624.63
 11
-7.36592
 21
3624.63
  0
LINE
  8
0
 10
-7.36592
 20
3624.63
 11
-7.09988
 21
3624.6
  0
LINE
  8
0
 10
-7.09988
 20
3624.6
 11
-6.84015
 21
3624.53
  0
LINE
  8
0
 10
-6.84015
 20
3624.53
 11
-6.59084
 21
3624.43
  0
LINE
  8
0
 10
-6.59084
 20
3624.43
 11
-6.35585
 21
3624.3
  0
LINE
  8
0
 10
-6.35585
 20
3624.3
 11
-6.1389
 21
3624.15
  0
LINE
  8
0
 10
-6.1389
 20
3624.15
 11
-5.94344
 21
3623.96
  0
LINE
  8
0
 10
-5.94344
 20
3623.96
 11
-5.77251
 21
3623.76
  0
LINE
  8
0
 10
-5.77251
 20
3623.76
 11
-5.62881
 21
3623.53
  0
LINE
  8
0
 10
-5.62881
 20
3623.53
 11
-5.51465
 21
3623.29
  0
LINE
  8
0
 10
-5.51465
 20
3623.29
 11
-5.43178
 21
3623.03
  0
LINE
  8
0
 10
-5.43178
 20
3623.03
 11
-5.38153
 21
3622.77
  0
LINE
  8
0
 10
-5.38153
 20
3622.77
 11
-5.3647
 21
3622.5
  0
LINE
  8
0
 10
-5.3647
 20
3622.5
 11
-5.38153
 21
3622.23
  0
LINE
  8
0
 10
-5.38153
 20
3622.23
 11
-5.43178
 21
3621.97
  0
LINE
  8
0
 10
-5.43178
 20
3621.97
 11
-5.51465
 21
3621.71
  0
LINE
  8
0
 10
-5.51465
 20
3621.71
 11
-5.62881
 21
3621.47
  0
LINE
  8
0
 10
-5.62881
 20
3621.47
 11
-5.77251
 21
3621.24
  0
LINE
  8
0
 10
-5.77251
 20
3621.24
 11
-5.94344
 21
3621.04
  0
LINE
  8
0
 10
-5.94344
 20
3621.04
 11
-6.1389
 21
3620.85
  0
LINE
  8
0
 10
-6.1389
 20
3620.85
 11
-6.35585
 21
3620.7
  0
LINE
  8
0
 10
-6.35585
 20
3620.7
 11
-6.59084
 21
3620.57
  0
LINE
  8
0
 10
-6.59084
 20
3620.57
 11
-6.84015
 21
3620.47
  0
LINE
  8
0
 10
-6.84015
 20
3620.47
 11
-7.09988
 21
3620.4
  0
LINE
  8
0
 10
-7.09988
 20
3620.4
 11
-7.36592
 21
3620.37
  0
LINE
  8
0
 10
-7.36592
 20
3620.37
 11
-7.63406
 21
3620.37
  0
LINE
  8
0
 10
7.36592
 20
3620.37
 11
7.09988
 21
3620.4
  0
LINE
  8
0
 10
7.09988
 20
3620.4
 11
6.84015
 21
3620.47
  0
LINE
  8
0
 10
6.84015
 20
3620.47
 11
6.59084
 21
3620.57
  0
LINE
  8
0
 10
6.59084
 20
3620.57
 11
6.35585
 21
3620.7
  0
LINE
  8
0
 10
6.35585
 20
3620.7
 11
6.1389
 21
3620.85
  0
LINE
  8
0
 10
6.1389
 20
3620.85
 11
5.94344
 21
3621.04
  0
LINE
  8
0
 10
5.94344
 20
3621.04
 11
5.77251
 21
3621.24
  0
LINE
  8
0
 10
5.77251
 20
3621.24
 11
5.62881
 21
3621.47
  0
LINE
  8
0
 10
5.62881
 20
3621.47
 11
5.51465
 21
3621.71
  0
LINE
  8
0
 10
5.51465
 20
3621.71
 11
5.43178
 21
3621.97
  0
LINE
  8
0
 10
5.43178
 20
3621.97
 11
5.38153
 21
3622.23
  0
LINE
  8
0
 10
5.38153
 20
3622.23
 11
5.3647
 21
3622.5
  0
LINE
  8
0
 10
5.3647
 20
3622.5
 11
5.38153
 21
3622.77
  0
LINE
  8
0
 10
5.38153
 20
3622.77
 11
5.43178
 21
3623.03
  0
LINE
  8
0
 10
5.43178
 20
3623.03
 11
5.51465
 21
3623.29
  0
LINE
  8
0
 10
5.51465
 20
3623.29
 11
5.62881
 21
3623.53
  0
LINE
  8
0
 10
5.62881
 20
3623.53
 11
5.77251
 21
3623.76
  0
LINE
  8
0
 10
5.77251
 20
3623.76
 11
5.94344
 21
3623.96
  0
LINE
  8
0
 10
5.94344
 20
3623.96
 11
6.1389
 21
3624.15
  0
LINE
  8
0
 10
6.1389
 20
3624.15
 11
6.35585
 21
3624.3
  0
LINE
  8
0
 10
6.35585
 20
3624.3
 11
6.59084
 21
3624.43
  0
LINE
  8
0
 10
6.59084
 20
3624.43
 11
6.84015
 21
3624.53
  0
LINE
  8
0
 10
6.84015
 20
3624.53
 11
7.09988
 21
3624.6
  0
LINE
  8
0
 10
7.09988
 20
3624.6
 11
7.36592
 21
3624.63
  0
LINE
  8
0
 10
7.36592
 20
3624.63
 11
7.63406
 21
3624.63
  0
LINE
  8
0
 10
7.63406
 20
3624.63
 11
7.9001
 21
3624.6
  0
LINE
  8
0
 10
7.9001
 20
3624.6
 11
8.15984
 21
3624.53
  0
LINE
  8
0
 10
8.15984
 20
3624.53
 11
8.40915
 21
3624.43
  0
LINE
  8
0
 10
8.40915
 20
3624.43
 11
8.64413
 21
3624.3
  0
LINE
  8
0
 10
8.64413
 20
3624.3
 11
8.86108
 21
3624.15
  0
LINE
  8
0
 10
8.86108
 20
3624.15
 11
9.05655
 21
3623.96
  0
LINE
  8
0
 10
9.05655
 20
3623.96
 11
9.22748
 21
3623.76
  0
LINE
  8
0
 10
9.22748
 20
3623.76
 11
9.37117
 21
3623.53
  0
LINE
  8
0
 10
9.37117
 20
3623.53
 11
9.48534
 21
3623.29
  0
LINE
  8
0
 10
9.48534
 20
3623.29
 11
9.56821
 21
3623.03
  0
LINE
  8
0
 10
9.56821
 20
3623.03
 11
9.61845
 21
3622.77
  0
LINE
  8
0
 10
9.61845
 20
3622.77
 11
9.63528
 21
3622.5
  0
LINE
  8
0
 10
9.63528
 20
3622.5
 11
9.61845
 21
3622.23
  0
LINE
  8
0
 10
9.61845
 20
3622.23
 11
9.56821
 21
3621.97
  0
LINE
  8
0
 10
9.56821
 20
3621.97
 11
9.48534
 21
3621.71
  0
LINE
  8
0
 10
9.48534
 20
3621.71
 11
9.37117
 21
3621.47
  0
LINE
  8
0
 10
9.37117
 20
3621.47
 11
9.22748
 21
3621.24
  0
LINE
  8
0
 10
9.22748
 20
3621.24
 11
9.05655
 21
3621.04
  0
LINE
  8
0
 10
9.05655
 20
3621.04
 11
8.86108
 21
3620.85
  0
LINE
  8
0
 10
8.86108
 20
3620.85
 11
8.64413
 21
3620.7
  0
LINE
  8
0
 10
8.64413
 20
3620.7
 11
8.40915
 21
3620.57
  0
LINE
  8
0
 10
8.40915
 20
3620.57
 11
8.15984
 21
3620.47
  0
LINE
  8
0
 10
8.15984
 20
3620.47
 11
7.9001
 21
3620.4
  0
LINE
  8
0
 10
7.9001
 20
3620.4
 11
7.63406
 21
3620.37
  0
LINE
  8
0
 10
7.63406
 20
3620.37
 11
7.36592
 21
3620.37
  0
ENDSEC
  0
SECTION
  2
OBJECTS
  0
DICTIONARY
  0
ENDSEC
  0
EOF
