<?xml version="1.0" standalone="no"?>
<!DOCTYPE svg PUBLIC "-//W3C//DTD SVG 1.1//EN" "http://www.w3.org/Graphics/SVG/1.1/DTD/svg11.dtd">
<svg width="210mm" height="14mm" viewBox="-105 -7 210 14" xmlns="http://www.w3.org/2000/svg" version="1.1">
<title>OpenSCAD Model</title>
<path d="
M 100.437,6.91142 L 101.045,6.75528 L 101.629,6.52412 L 102.179,6.22163 L 102.687,5.85255 L 103.145,5.42273
 L 103.545,4.93892 L 103.882,4.40877 L 104.149,3.84062 L 104.343,3.24344 L 104.461,2.62666 L 104.5,2
 L 104.5,-2 L 104.461,-2.62666 L 104.343,-3.24344 L 104.149,-3.84062 L 103.882,-4.40877 L 103.545,-4.93892
 L 103.145,-5.42273 L 102.687,-5.85255 L 102.179,-6.22163 L 101.629,-6.52412 L 101.045,-6.75528 L 100.437,-6.91142
 L 99.8139,-6.99013 L -99.8139,-6.99013 L -100.437,-6.91142 L -101.045,-6.75528 L -101.629,-6.52412 L -102.179,-6.22163
 L -102.687,-5.85255 L -103.145,-5.42273 L -103.545,-4.93892 L -103.882,-4.40877 L -104.149,-3.84062 L -104.343,-3.24344
 L -104.461,-2.62666 L -104.5,-2 L -104.5,2 L -104.461,2.62666 L -104.343,3.24344 L -104.149,3.84062
 L -103.882,4.40877 L -103.545,4.93892 L -103.145,5.42273 L -102.687,5.85255 L -102.179,6.22163 L -101.629,6.52412
 L -101.045,6.75528 L -100.437,6.91142 L -99.8139,6.99013 L 99.8139,6.99013 z
M -97.6884,2.99408 L -98.0621,2.94685 L -98.427,2.85316 L -98.7773,2.71448 L -99.1075,2.53297 L -99.4123,2.31154
 L -99.6869,2.05363 L -99.927,1.76335 L -100.129,1.44525 L -100.289,1.10437 L -100.406,0.746063 L -100.476,0.375992
 L -100.5,-0 L -100.476,-0.375992 L -100.406,-0.746063 L -100.289,-1.10437 L -100.129,-1.44525 L -99.927,-1.76335
 L -99.6869,-2.05363 L -99.4123,-2.31154 L -99.1075,-2.53297 L -98.7773,-2.71448 L -98.427,-2.85316 L -98.0621,-2.94685
 L -97.6884,-2.99408 L -97.3116,-2.99408 L -96.9379,-2.94685 L -96.573,-2.85316 L -96.2227,-2.71448 L -95.8925,-2.53297
 L -95.5877,-2.31154 L -95.3131,-2.05363 L -95.073,-1.76335 L -94.8711,-1.44525 L -94.7107,-1.10437 L -94.5943,-0.746063
 L -94.5237,-0.375992 L -94.5,-0 L -94.5237,0.375992 L -94.5943,0.746063 L -94.7107,1.10437 L -94.8711,1.44525
 L -95.073,1.76335 L -95.3131,2.05363 L -95.5877,2.31154 L -95.8925,2.53297 L -96.2227,2.71448 L -96.573,2.85316
 L -96.9379,2.94685 L -97.3116,2.99408 z
M -7.68837,2.99408 L -8.06213,2.94685 L -8.42705,2.85316 L -8.77733,2.71448 L -9.10747,2.53297 L -9.41226,2.31154
 L -9.6869,2.05363 L -9.92705,1.76335 L -10.1289,1.44525 L -10.2893,1.10437 L -10.4057,0.746063 L -10.4763,0.375992
 L -10.5,-0 L -10.4763,-0.375992 L -10.4057,-0.746063 L -10.2893,-1.10437 L -10.1289,-1.44525 L -9.92705,-1.76335
 L -9.6869,-2.05363 L -9.41226,-2.31154 L -9.10747,-2.53297 L -8.77733,-2.71448 L -8.42705,-2.85316 L -8.06213,-2.94685
 L -7.68837,-2.99408 L -7.31161,-2.99408 L -6.93785,-2.94685 L -6.57294,-2.85316 L -6.22266,-2.71448 L -5.89252,-2.53297
 L -5.58772,-2.31154 L -5.31308,-2.05363 L -5.07294,-1.76335 L -4.87108,-1.44525 L -4.71066,-1.10437 L -4.59424,-0.746063
 L -4.52365,-0.375992 L -4.5,-0 L -4.52365,0.375992 L -4.59424,0.746063 L -4.71066,1.10437 L -4.87108,1.44525
 L -5.07294,1.76335 L -5.31308,2.05363 L -5.58772,2.31154 L -5.89252,2.53297 L -6.22266,2.71448 L -6.57294,2.85316
 L -6.93785,2.94685 L -7.31161,2.99408 z
M 7.31161,2.99408 L 6.93785,2.94685 L 6.57294,2.85316 L 6.22266,2.71448 L 5.89252,2.53297 L 5.58772,2.31154
 L 5.31308,2.05363 L 5.07294,1.76335 L 4.87108,1.44525 L 4.71066,1.10437 L 4.59424,0.746063 L 4.52365,0.375992
 L 4.5,-0 L 4.52365,-0.375992 L 4.59424,-0.746063 L 4.71066,-1.10437 L 4.87108,-1.44525 L 5.07294,-1.76335
 L 5.31308,-2.05363 L 5.58772,-2.31154 L 5.89252,-2.53297 L 6.22266,-2.71448 L 6.57294,-2.85316 L 6.93785,-2.94685
 L 7.31161,-2.99408 L 7.68837,-2.99408 L 8.06213,-2.94685 L 8.42705,-2.85316 L 8.77733,-2.71448 L 9.10747,-2.53297
 L 9.41226,-2.31154 L 9.6869,-2.05363 L 9.92705,-1.76335 L 10.1289,-1.44525 L 10.2893,-1.10437 L 10.4057,-0.746063
 L 10.4763,-0.375992 L 10.5,-0 L 10.4763,0.375992 L 10.4057,0.746063 L 10.2893,1.10437 L 10.1289,1.44525
 L 9.92705,1.76335 L 9.6869,2.05363 L 9.41226,2.31154 L 9.10747,2.53297 L 8.77733,2.71448 L 8.42705,2.85316
 L 8.06213,2.94685 L 7.68837,2.99408 z
M -52.6884,2.99408 L -53.0621,2.94685 L -53.427,2.85316 L -53.7773,2.71448 L -54.1075,2.53297 L -54.4123,2.31154
 L -54.6869,2.05363 L -54.927,1.76335 L -55.1289,1.44525 L -55.2893,1.10437 L -55.4057,0.746063 L -55.4763,0.375992
 L -55.5,-0 L -55.4763,-0.375992 L -55.4057,-0.746063 L -55.2893,-1.10437 L -55.1289,-1.44525 L -54.927,-1.76335
 L -54.6869,-2.05363 L -54.4123,-2.31154 L -54.1075,-2.53297 L -53.7773,-2.71448 L -53.427,-2.85316 L -53.0621,-2.94685
 L -52.6884,-2.99408 L -52.3116,-2.99408 L -51.9379,-2.94685 L -51.5729,-2.85316 L -51.2227,-2.71448 L -50.8925,-2.53297
 L -50.5877,-2.31154 L -50.3131,-2.05363 L -50.0729,-1.76335 L -49.8711,-1.44525 L -49.7107,-1.10437 L -49.5942,-0.746063
 L -49.5237,-0.375992 L -49.5,-0 L -49.5237,0.375992 L -49.5942,0.746063 L -49.7107,1.10437 L -49.8711,1.44525
 L -50.0729,1.76335 L -50.3131,2.05363 L -50.5877,2.31154 L -50.8925,2.53297 L -51.2227,2.71448 L -51.5729,2.85316
 L -51.9379,2.94685 L -52.3116,2.99408 z
M 52.3116,2.99408 L 51.9379,2.94685 L 51.5729,2.85316 L 51.2227,2.71448 L 50.8925,2.53297 L 50.5877,2.31154
 L 50.3131,2.05363 L 50.0729,1.76335 L 49.8711,1.44525 L 49.7107,1.10437 L 49.5942,0.746063 L 49.5237,0.375992
 L 49.5,-0 L 49.5237,-0.375992 L 49.5942,-0.746063 L 49.7107,-1.10437 L 49.8711,-1.44525 L 50.0729,-1.76335
 L 50.3131,-2.05363 L 50.5877,-2.31154 L 50.8925,-2.53297 L 51.2227,-2.71448 L 51.5729,-2.85316 L 51.9379,-2.94685
 L 52.3116,-2.99408 L 52.6884,-2.99408 L 53.0621,-2.94685 L 53.427,-2.85316 L 53.7773,-2.71448 L 54.1075,-2.53297
 L 54.4123,-2.31154 L 54.6869,-2.05363 L 54.927,-1.76335 L 55.1289,-1.44525 L 55.2893,-1.10437 L 55.4057,-0.746063
 L 55.4763,-0.375992 L 55.5,-0 L 55.4763,0.375992 L 55.4057,0.746063 L 55.2893,1.10437 L 55.1289,1.44525
 L 54.927,1.76335 L 54.6869,2.05363 L 54.4123,2.31154 L 54.1075,2.53297 L 53.7773,2.71448 L 53.427,2.85316
 L 53.0621,2.94685 L 52.6884,2.99408 z
M -37.6884,2.99408 L -38.0621,2.94685 L -38.427,2.85316 L -38.7773,2.71448 L -39.1075,2.53297 L -39.4123,2.31154
 L -39.6869,2.05363 L -39.927,1.76335 L -40.1289,1.44525 L -40.2893,1.10437 L -40.4057,0.746063 L -40.4763,0.375992
 L -40.5,-0 L -40.4763,-0.375992 L -40.4057,-0.746063 L -40.2893,-1.10437 L -40.1289,-1.44525 L -39.927,-1.76335
 L -39.6869,-2.05363 L -39.4123,-2.31154 L -39.1075,-2.53297 L -38.7773,-2.71448 L -38.427,-2.85316 L -38.0621,-2.94685
 L -37.6884,-2.99408 L -37.3116,-2.99408 L -36.9379,-2.94685 L -36.5729,-2.85316 L -36.2227,-2.71448 L -35.8925,-2.53297
 L -35.5877,-2.31154 L -35.3131,-2.05363 L -35.0729,-1.76335 L -34.8711,-1.44525 L -34.7107,-1.10437 L -34.5942,-0.746063
 L -34.5237,-0.375992 L -34.5,-0 L -34.5237,0.375992 L -34.5942,0.746063 L -34.7107,1.10437 L -34.8711,1.44525
 L -35.0729,1.76335 L -35.3131,2.05363 L -35.5877,2.31154 L -35.8925,2.53297 L -36.2227,2.71448 L -36.5729,2.85316
 L -36.9379,2.94685 L -37.3116,2.99408 z
M 22.3116,2.99408 L 21.9379,2.94685 L 21.5729,2.85316 L 21.2227,2.71448 L 20.8925,2.53297 L 20.5877,2.31154
 L 20.3131,2.05363 L 20.0729,1.76335 L 19.8711,1.44525 L 19.7107,1.10437 L 19.5942,0.746063 L 19.5237,0.375992
 L 19.5,-0 L 19.5237,-0.375992 L 19.5942,-0.746063 L 19.7107,-1.10437 L 19.8711,-1.44525 L 20.0729,-1.76335
 L 20.3131,-2.05363 L 20.5877,-2.31154 L 20.8925,-2.53297 L 21.2227,-2.71448 L 21.5729,-2.85316 L 21.9379,-2.94685
 L 22.3116,-2.99408 L 22.6884,-2.99408 L 23.0621,-2.94685 L 23.427,-2.85316 L 23.7773,-2.71448 L 24.1075,-2.53297
 L 24.4123,-2.31154 L 24.6869,-2.05363 L 24.927,-1.76335 L 25.1289,-1.44525 L 25.2893,-1.10437 L 25.4057,-0.746063
 L 25.4763,-0.375992 L 25.5,-0 L 25.4763,0.375992 L 25.4057,0.746063 L 25.2893,1.10437 L 25.1289,1.44525
 L 24.927,1.76335 L 24.6869,2.05363 L 24.4123,2.31154 L 24.1075,2.53297 L 23.7773,2.71448 L 23.427,2.85316
 L 23.0621,2.94685 L 22.6884,2.99408 z
M -67.6884,2.99408 L -68.0621,2.94685 L -68.427,2.85316 L -68.7773,2.71448 L -69.1075,2.53297 L -69.4123,2.31154
 L -69.6869,2.05363 L -69.927,1.76335 L -70.1289,1.44525 L -70.2893,1.10437 L -70.4057,0.746063 L -70.4763,0.375992
 L -70.5,-0 L -70.4763,-0.375992 L -70.4057,-0.746063 L -70.2893,-1.10437 L -70.1289,-1.44525 L -69.927,-1.76335
 L -69.6869,-2.05363 L -69.4123,-2.31154 L -69.1075,-2.53297 L -68.7773,-2.71448 L -68.427,-2.85316 L -68.0621,-2.94685
 L -67.6884,-2.99408 L -67.3116,-2.99408 L -66.9379,-2.94685 L -66.573,-2.85316 L -66.2227,-2.71448 L -65.8925,-2.53297
 L -65.5877,-2.31154 L -65.3131,-2.05363 L -65.073,-1.76335 L -64.8711,-1.44525 L -64.7107,-1.10437 L -64.5943,-0.746063
 L -64.5237,-0.375992 L -64.5,-0 L -64.5237,0.375992 L -64.5943,0.746063 L -64.7107,1.10437 L -64.8711,1.44525
 L -65.073,1.76335 L -65.3131,2.05363 L -65.5877,2.31154 L -65.8925,2.53297 L -66.2227,2.71448 L -66.573,2.85316
 L -66.9379,2.94685 L -67.3116,2.99408 z
M 67.3116,2.99408 L 66.9379,2.94685 L 66.573,2.85316 L 66.2227,2.71448 L 65.8925,2.53297 L 65.5877,2.31154
 L 65.3131,2.05363 L 65.073,1.76335 L 64.8711,1.44525 L 64.7107,1.10437 L 64.5943,0.746063 L 64.5237,0.375992
 L 64.5,-0 L 64.5237,-0.375992 L 64.5943,-0.746063 L 64.7107,-1.10437 L 64.8711,-1.44525 L 65.073,-1.76335
 L 65.3131,-2.05363 L 65.5877,-2.31154 L 65.8925,-2.53297 L 66.2227,-2.71448 L 66.573,-2.85316 L 66.9379,-2.94685
 L 67.3116,-2.99408 L 67.6884,-2.99408 L 68.0621,-2.94685 L 68.427,-2.85316 L 68.7773,-2.71448 L 69.1075,-2.53297
 L 69.4123,-2.31154 L 69.6869,-2.05363 L 69.927,-1.76335 L 70.1289,-1.44525 L 70.2893,-1.10437 L 70.4057,-0.746063
 L 70.4763,-0.375992 L 70.5,-0 L 70.4763,0.375992 L 70.4057,0.746063 L 70.2893,1.10437 L 70.1289,1.44525
 L 69.927,1.76335 L 69.6869,2.05363 L 69.4123,2.31154 L 69.1075,2.53297 L 68.7773,2.71448 L 68.427,2.85316
 L 68.0621,2.94685 L 67.6884,2.99408 z
M -82.6884,2.99408 L -83.0621,2.94685 L -83.427,2.85316 L -83.7773,2.71448 L -84.1075,2.53297 L -84.4123,2.31154
 L -84.6869,2.05363 L -84.927,1.76335 L -85.1289,1.44525 L -85.2893,1.10437 L -85.4057,0.746063 L -85.4763,0.375992
 L -85.5,-0 L -85.4763,-0.375992 L -85.4057,-0.746063 L -85.2893,-1.10437 L -85.1289,-1.44525 L -84.927,-1.76335
 L -84.6869,-2.05363 L -84.4123,-2.31154 L -84.1075,-2.53297 L -83.7773,-2.71448 L -83.427,-2.85316 L -83.0621,-2.94685
 L -82.6884,-2.99408 L -82.3116,-2.99408 L -81.9379,-2.94685 L -81.573,-2.85316 L -81.2227,-2.71448 L -80.8925,-2.53297
 L -80.5877,-2.31154 L -80.3131,-2.05363 L -80.073,-1.76335 L -79.8711,-1.44525 L -79.7107,-1.10437 L -79.5943,-0.746063
 L -79.5237,-0.375992 L -79.5,-0 L -79.5237,0.375992 L -79.5943,0.746063 L -79.7107,1.10437 L -79.8711,1.44525
 L -80.073,1.76335 L -80.3131,2.05363 L -80.5877,2.31154 L -80.8925,2.53297 L -81.2227,2.71448 L -81.573,2.85316
 L -81.9379,2.94685 L -82.3116,2.99408 z
M 97.3116,2.99408 L 96.9379,2.94685 L 96.573,2.85316 L 96.2227,2.71448 L 95.8925,2.53297 L 95.5877,2.31154
 L 95.3131,2.05363 L 95.073,1.76335 L 94.8711,1.44525 L 94.7107,1.10437 L 94.5943,0.746063 L 94.5237,0.375992
 L 94.5,-0 L 94.5237,-0.375992 L 94.5943,-0.746063 L 94.7107,-1.10437 L 94.8711,-1.44525 L 95.073,-1.76335
 L 95.3131,-2.05363 L 95.5877,-2.31154 L 95.8925,-2.53297 L 96.2227,-2.71448 L 96.573,-2.85316 L 96.9379,-2.94685
 L 97.3116,-2.99408 L 97.6884,-2.99408 L 98.0621,-2.94685 L 98.427,-2.85316 L 98.7773,-2.71448 L 99.1075,-2.53297
 L 99.4123,-2.31154 L 99.6869,-2.05363 L 99.927,-1.76335 L 100.129,-1.44525 L 100.289,-1.10437 L 100.406,-0.746063
 L 100.476,-0.375992 L 100.5,-0 L 100.476,0.375992 L 100.406,0.746063 L 100.289,1.10437 L 100.129,1.44525
 L 99.927,1.76335 L 99.6869,2.05363 L 99.4123,2.31154 L 99.1075,2.53297 L 98.7773,2.71448 L 98.427,2.85316
 L 98.0621,2.94685 L 97.6884,2.99408 z
M -22.6884,2.99408 L -23.0621,2.94685 L -23.427,2.85316 L -23.7773,2.71448 L -24.1075,2.53297 L -24.4123,2.31154
 L -24.6869,2.05363 L -24.927,1.76335 L -25.1289,1.44525 L -25.2893,1.10437 L -25.4057,0.746063 L -25.4763,0.375992
 L -25.5,-0 L -25.4763,-0.375992 L -25.4057,-0.746063 L -25.2893,-1.10437 L -25.1289,-1.44525 L -24.927,-1.76335
 L -24.6869,-2.05363 L -24.4123,-2.31154 L -24.1075,-2.53297 L -23.7773,-2.71448 L -23.427,-2.85316 L -23.0621,-2.94685
 L -22.6884,-2.99408 L -22.3116,-2.99408 L -21.9379,-2.94685 L -21.5729,-2.85316 L -21.2227,-2.71448 L -20.8925,-2.53297
 L -20.5877,-2.31154 L -20.3131,-2.05363 L -20.0729,-1.76335 L -19.8711,-1.44525 L -19.7107,-1.10437 L -19.5942,-0.746063
 L -19.5237,-0.375992 L -19.5,-0 L -19.5237,0.375992 L -19.5942,0.746063 L -19.7107,1.10437 L -19.8711,1.44525
 L -20.0729,1.76335 L -20.3131,2.05363 L -20.5877,2.31154 L -20.8925,2.53297 L -21.2227,2.71448 L -21.5729,2.85316
 L -21.9379,2.94685 L -22.3116,2.99408 z
M 37.3116,2.99408 L 36.9379,2.94685 L 36.5729,2.85316 L 36.2227,2.71448 L 35.8925,2.53297 L 35.5877,2.31154
 L 35.3131,2.05363 L 35.0729,1.76335 L 34.8711,1.44525 L 34.7107,1.10437 L 34.5942,0.746063 L 34.5237,0.375992
 L 34.5,-0 L 34.5237,-0.375992 L 34.5942,-0.746063 L 34.7107,-1.10437 L 34.8711,-1.44525 L 35.0729,-1.76335
 L 35.3131,-2.05363 L 35.5877,-2.31154 L 35.8925,-2.53297 L 36.2227,-2.71448 L 36.5729,-2.85316 L 36.9379,-2.94685
 L 37.3116,-2.99408 L 37.6884,-2.99408 L 38.0621,-2.94685 L 38.427,-2.85316 L 38.7773,-2.71448 L 39.1075,-2.53297
 L 39.4123,-2.31154 L 39.6869,-2.05363 L 39.927,-1.76335 L 40.1289,-1.44525 L 40.2893,-1.10437 L 40.4057,-0.746063
 L 40.4763,-0.375992 L 40.5,-0 L 40.4763,0.375992 L 40.4057,0.746063 L 40.2893,1.10437 L 40.1289,1.44525
 L 39.927,1.76335 L 39.6869,2.05363 L 39.4123,2.31154 L 39.1075,2.53297 L 38.7773,2.71448 L 38.427,2.85316
 L 38.0621,2.94685 L 37.6884,2.99408 z
M 82.3116,2.99408 L 81.9379,2.94685 L 81.573,2.85316 L 81.2227,2.71448 L 80.8925,2.53297 L 80.5877,2.31154
 L 80.3131,2.05363 L 80.073,1.76335 L 79.8711,1.44525 L 79.7107,1.10437 L 79.5943,0.746063 L 79.5237,0.375992
 L 79.5,-0 L 79.5237,-0.375992 L 79.5943,-0.746063 L 79.7107,-1.10437 L 79.8711,-1.44525 L 80.073,-1.76335
 L 80.3131,-2.05363 L 80.5877,-2.31154 L 80.8925,-2.53297 L 81.2227,-2.71448 L 81.573,-2.85316 L 81.9379,-2.94685
 L 82.3116,-2.99408 L 82.6884,-2.99408 L 83.0621,-2.94685 L 83.427,-2.85316 L 83.7773,-2.71448 L 84.1075,-2.53297
 L 84.4123,-2.31154 L 84.6869,-2.05363 L 84.927,-1.76335 L 85.1289,-1.44525 L 85.2893,-1.10437 L 85.4057,-0.746063
 L 85.4763,-0.375992 L 85.5,-0 L 85.4763,0.375992 L 85.4057,0.746063 L 85.2893,1.10437 L 85.1289,1.44525
 L 84.927,1.76335 L 84.6869,2.05363 L 84.4123,2.31154 L 84.1075,2.53297 L 83.7773,2.71448 L 83.427,2.85316
 L 83.0621,2.94685 L 82.6884,2.99408 z
M -90.0942,1.49704 L -90.2811,1.47342 L -90.4635,1.42657 L -90.6387,1.35724 L -90.8037,1.26648 L -90.9561,1.15576
 L -91.0934,1.02681 L -91.2135,0.881668 L -91.3145,0.722626 L -91.3947,0.552185 L -91.4529,0.373032 L -91.4882,0.187988
 L -91.5,-0 L -91.4882,-0.187988 L -91.4529,-0.373032 L -91.3947,-0.552185 L -91.3145,-0.722626 L -91.2135,-0.881668
 L -91.0934,-1.02681 L -90.9561,-1.15576 L -90.8037,-1.26648 L -90.6387,-1.35724 L -90.4635,-1.42657 L -90.2811,-1.47342
 L -90.0942,-1.49704 L -89.9058,-1.49704 L -89.7189,-1.47342 L -89.5365,-1.42657 L -89.3613,-1.35724 L -89.1963,-1.26648
 L -89.0439,-1.15576 L -88.9065,-1.02681 L -88.7865,-0.881668 L -88.6855,-0.722626 L -88.6053,-0.552185 L -88.5471,-0.373032
 L -88.5118,-0.187988 L -88.5,-0 L -88.5118,0.187988 L -88.5471,0.373032 L -88.6053,0.552185 L -88.6855,0.722626
 L -88.7865,0.881668 L -88.9065,1.02681 L -89.0439,1.15576 L -89.1963,1.26648 L -89.3613,1.35724 L -89.5365,1.42657
 L -89.7189,1.47342 L -89.9058,1.49704 z
M 29.9058,1.49704 L 29.7189,1.47342 L 29.5365,1.42657 L 29.3613,1.35724 L 29.1963,1.26648 L 29.0439,1.15576
 L 28.9065,1.02681 L 28.7865,0.881668 L 28.6855,0.722626 L 28.6053,0.552185 L 28.5471,0.373032 L 28.5118,0.187988
 L 28.5,-0 L 28.5118,-0.187988 L 28.5471,-0.373032 L 28.6053,-0.552185 L 28.6855,-0.722626 L 28.7865,-0.881668
 L 28.9065,-1.02681 L 29.0439,-1.15576 L 29.1963,-1.26648 L 29.3613,-1.35724 L 29.5365,-1.42657 L 29.7189,-1.47342
 L 29.9058,-1.49704 L 30.0942,-1.49704 L 30.2811,-1.47342 L 30.4635,-1.42657 L 30.6387,-1.35724 L 30.8037,-1.26648
 L 30.9561,-1.15576 L 31.0934,-1.02681 L 31.2135,-0.881668 L 31.3145,-0.722626 L 31.3947,-0.552185 L 31.4529,-0.373032
 L 31.4882,-0.187988 L 31.5,-0 L 31.4882,0.187988 L 31.4529,0.373032 L 31.3947,0.552185 L 31.3145,0.722626
 L 31.2135,0.881668 L 31.0934,1.02681 L 30.9561,1.15576 L 30.8037,1.26648 L 30.6387,1.35724 L 30.4635,1.42657
 L 30.2811,1.47342 L 30.0942,1.49704 z
M -75.0942,1.49704 L -75.2811,1.47342 L -75.4635,1.42657 L -75.6387,1.35724 L -75.8037,1.26648 L -75.9561,1.15576
 L -76.0934,1.02681 L -76.2135,0.881668 L -76.3145,0.722626 L -76.3947,0.552185 L -76.4529,0.373032 L -76.4882,0.187988
 L -76.5,-0 L -76.4882,-0.187988 L -76.4529,-0.373032 L -76.3947,-0.552185 L -76.3145,-0.722626 L -76.2135,-0.881668
 L -76.0934,-1.02681 L -75.9561,-1.15576 L -75.8037,-1.26648 L -75.6387,-1.35724 L -75.4635,-1.42657 L -75.2811,-1.47342
 L -75.0942,-1.49704 L -74.9058,-1.49704 L -74.7189,-1.47342 L -74.5365,-1.42657 L -74.3613,-1.35724 L -74.1963,-1.26648
 L -74.0439,-1.15576 L -73.9065,-1.02681 L -73.7865,-0.881668 L -73.6855,-0.722626 L -73.6053,-0.552185 L -73.5471,-0.373032
 L -73.5118,-0.187988 L -73.5,-0 L -73.5118,0.187988 L -73.5471,0.373032 L -73.6053,0.552185 L -73.6855,0.722626
 L -73.7865,0.881668 L -73.9065,1.02681 L -74.0439,1.15576 L -74.1963,1.26648 L -74.3613,1.35724 L -74.5365,1.42657
 L -74.7189,1.47342 L -74.9058,1.49704 z
M -30.0942,1.49704 L -30.2811,1.47342 L -30.4635,1.42657 L -30.6387,1.35724 L -30.8037,1.26648 L -30.9561,1.15576
 L -31.0934,1.02681 L -31.2135,0.881668 L -31.3145,0.722626 L -31.3947,0.552185 L -31.4529,0.373032 L -31.4882,0.187988
 L -31.5,-0 L -31.4882,-0.187988 L -31.4529,-0.373032 L -31.3947,-0.552185 L -31.3145,-0.722626 L -31.2135,-0.881668
 L -31.0934,-1.02681 L -30.9561,-1.15576 L -30.8037,-1.26648 L -30.6387,-1.35724 L -30.4635,-1.42657 L -30.2811,-1.47342
 L -30.0942,-1.49704 L -29.9058,-1.49704 L -29.7189,-1.47342 L -29.5365,-1.42657 L -29.3613,-1.35724 L -29.1963,-1.26648
 L -29.0439,-1.15576 L -28.9065,-1.02681 L -28.7865,-0.881668 L -28.6855,-0.722626 L -28.6053,-0.552185 L -28.5471,-0.373032
 L -28.5118,-0.187988 L -28.5,-0 L -28.5118,0.187988 L -28.5471,0.373032 L -28.6053,0.552185 L -28.6855,0.722626
 L -28.7865,0.881668 L -28.9065,1.02681 L -29.0439,1.15576 L -29.1963,1.26648 L -29.3613,1.35724 L -29.5365,1.42657
 L -29.7189,1.47342 L -29.9058,1.49704 z
M 59.9058,1.49704 L 59.7189,1.47342 L 59.5365,1.42657 L 59.3613,1.35724 L 59.1963,1.26648 L 59.0439,1.15576
 L 58.9065,1.02681 L 58.7865,0.881668 L 58.6855,0.722626 L 58.6053,0.552185 L 58.5471,0.373032 L 58.5118,0.187988
 L 58.5,-0 L 58.5118,-0.187988 L 58.5471,-0.373032 L 58.6053,-0.552185 L 58.6855,-0.722626 L 58.7865,-0.881668
 L 58.9065,-1.02681 L 59.0439,-1.15576 L 59.1963,-1.26648 L 59.3613,-1.35724 L 59.5365,-1.42657 L 59.7189,-1.47342
 L 59.9058,-1.49704 L 60.0942,-1.49704 L 60.2811,-1.47342 L 60.4635,-1.42657 L 60.6387,-1.35724 L 60.8037,-1.26648
 L 60.9561,-1.15576 L 61.0934,-1.02681 L 61.2135,-0.881668 L 61.3145,-0.722626 L 61.3947,-0.552185 L 61.4529,-0.373032
 L 61.4882,-0.187988 L 61.5,-0 L 61.4882,0.187988 L 61.4529,0.373032 L 61.3947,0.552185 L 61.3145,0.722626
 L 61.2135,0.881668 L 61.0934,1.02681 L 60.9561,1.15576 L 60.8037,1.26648 L 60.6387,1.35724 L 60.4635,1.42657
 L 60.2811,1.47342 L 60.0942,1.49704 z
M 44.9058,1.49704 L 44.7189,1.47342 L 44.5365,1.42657 L 44.3613,1.35724 L 44.1963,1.26648 L 44.0439,1.15576
 L 43.9065,1.02681 L 43.7865,0.881668 L 43.6855,0.722626 L 43.6053,0.552185 L 43.5471,0.373032 L 43.5118,0.187988
 L 43.5,-0 L 43.5118,-0.187988 L 43.5471,-0.373032 L 43.6053,-0.552185 L 43.6855,-0.722626 L 43.7865,-0.881668
 L 43.9065,-1.02681 L 44.0439,-1.15576 L 44.1963,-1.26648 L 44.3613,-1.35724 L 44.5365,-1.42657 L 44.7189,-1.47342
 L 44.9058,-1.49704 L 45.0942,-1.49704 L 45.2811,-1.47342 L 45.4635,-1.42657 L 45.6387,-1.35724 L 45.8037,-1.26648
 L 45.9561,-1.15576 L 46.0934,-1.02681 L 46.2135,-0.881668 L 46.3145,-0.722626 L 46.3947,-0.552185 L 46.4529,-0.373032
 L 46.4882,-0.187988 L 46.5,-0 L 46.4882,0.187988 L 46.4529,0.373032 L 46.3947,0.552185 L 46.3145,0.722626
 L 46.2135,0.881668 L 46.0934,1.02681 L 45.9561,1.15576 L 45.8037,1.26648 L 45.6387,1.35724 L 45.4635,1.42657
 L 45.2811,1.47342 L 45.0942,1.49704 z
M 89.9058,1.49704 L 89.7189,1.47342 L 89.5365,1.42657 L 89.3613,1.35724 L 89.1963,1.26648 L 89.0439,1.15576
 L 88.9065,1.02681 L 88.7865,0.881668 L 88.6855,0.722626 L 88.6053,0.552185 L 88.5471,0.373032 L 88.5118,0.187988
 L 88.5,-0 L 88.5118,-0.187988 L 88.5471,-0.373032 L 88.6053,-0.552185 L 88.6855,-0.722626 L 88.7865,-0.881668
 L 88.9065,-1.02681 L 89.0439,-1.15576 L 89.1963,-1.26648 L 89.3613,-1.35724 L 89.5365,-1.42657 L 89.7189,-1.47342
 L 89.9058,-1.49704 L 90.0942,-1.49704 L 90.2811,-1.47342 L 90.4635,-1.42657 L 90.6387,-1.35724 L 90.8037,-1.26648
 L 90.9561,-1.15576 L 91.0934,-1.02681 L 91.2135,-0.881668 L 91.3145,-0.722626 L 91.3947,-0.552185 L 91.4529,-0.373032
 L 91.4882,-0.187988 L 91.5,-0 L 91.4882,0.187988 L 91.4529,0.373032 L 91.3947,0.552185 L 91.3145,0.722626
 L 91.2135,0.881668 L 91.0934,1.02681 L 90.9561,1.15576 L 90.8037,1.26648 L 90.6387,1.35724 L 90.4635,1.42657
 L 90.2811,1.47342 L 90.0942,1.49704 z
M -45.0942,1.49704 L -45.2811,1.47342 L -45.4635,1.42657 L -45.6387,1.35724 L -45.8037,1.26648 L -45.9561,1.15576
 L -46.0934,1.02681 L -46.2135,0.881668 L -46.3145,0.722626 L -46.3947,0.552185 L -46.4529,0.373032 L -46.4882,0.187988
 L -46.5,-0 L -46.4882,-0.187988 L -46.4529,-0.373032 L -46.3947,-0.552185 L -46.3145,-0.722626 L -46.2135,-0.881668
 L -46.0934,-1.02681 L -45.9561,-1.15576 L -45.8037,-1.26648 L -45.6387,-1.35724 L -45.4635,-1.42657 L -45.2811,-1.47342
 L -45.0942,-1.49704 L -44.9058,-1.49704 L -44.7189,-1.47342 L -44.5365,-1.42657 L -44.3613,-1.35724 L -44.1963,-1.26648
 L -44.0439,-1.15576 L -43.9065,-1.02681 L -43.7865,-0.881668 L -43.6855,-0.722626 L -43.6053,-0.552185 L -43.5471,-0.373032
 L -43.5118,-0.187988 L -43.5,-0 L -43.5118,0.187988 L -43.5471,0.373032 L -43.6053,0.552185 L -43.6855,0.722626
 L -43.7865,0.881668 L -43.9065,1.02681 L -44.0439,1.15576 L -44.1963,1.26648 L -44.3613,1.35724 L -44.5365,1.42657
 L -44.7189,1.47342 L -44.9058,1.49704 z
M 74.9058,1.49704 L 74.7189,1.47342 L 74.5365,1.42657 L 74.3613,1.35724 L 74.1963,1.26648 L 74.0439,1.15576
 L 73.9065,1.02681 L 73.7865,0.881668 L 73.6855,0.722626 L 73.6053,0.552185 L 73.5471,0.373032 L 73.5118,0.187988
 L 73.5,-0 L 73.5118,-0.187988 L 73.5471,-0.373032 L 73.6053,-0.552185 L 73.6855,-0.722626 L 73.7865,-0.881668
 L 73.9065,-1.02681 L 74.0439,-1.15576 L 74.1963,-1.26648 L 74.3613,-1.35724 L 74.5365,-1.42657 L 74.7189,-1.47342
 L 74.9058,-1.49704 L 75.0942,-1.49704 L 75.2811,-1.47342 L 75.4635,-1.42657 L 75.6387,-1.35724 L 75.8037,-1.26648
 L 75.9561,-1.15576 L 76.0934,-1.02681 L 76.2135,-0.881668 L 76.3145,-0.722626 L 76.3947,-0.552185 L 76.4529,-0.373032
 L 76.4882,-0.187988 L 76.5,-0 L 76.4882,0.187988 L 76.4529,0.373032 L 76.3947,0.552185 L 76.3145,0.722626
 L 76.2135,0.881668 L 76.0934,1.02681 L 75.9561,1.15576 L 75.8037,1.26648 L 75.6387,1.35724 L 75.4635,1.42657
 L 75.2811,1.47342 L 75.0942,1.49704 z
M -15.0942,1.49704 L -15.2811,1.47342 L -15.4635,1.42657 L -15.6387,1.35724 L -15.8037,1.26648 L -15.9561,1.15576
 L -16.0934,1.02681 L -16.2135,0.881668 L -16.3145,0.722626 L -16.3947,0.552185 L -16.4529,0.373032 L -16.4882,0.187988
 L -16.5,-0 L -16.4882,-0.187988 L -16.4529,-0.373032 L -16.3947,-0.552185 L -16.3145,-0.722626 L -16.2135,-0.881668
 L -16.0934,-1.02681 L -15.9561,-1.15576 L -15.8037,-1.26648 L -15.6387,-1.35724 L -15.4635,-1.42657 L -15.2811,-1.47342
 L -15.0942,-1.49704 L -14.9058,-1.49704 L -14.7189,-1.47342 L -14.5365,-1.42657 L -14.3613,-1.35724 L -14.1963,-1.26648
 L -14.0439,-1.15576 L -13.9065,-1.02681 L -13.7865,-0.881668 L -13.6855,-0.722626 L -13.6053,-0.552185 L -13.5471,-0.373032
 L -13.5118,-0.187988 L -13.5,-0 L -13.5118,0.187988 L -13.5471,0.373032 L -13.6053,0.552185 L -13.6855,0.722626
 L -13.7865,0.881668 L -13.9065,1.02681 L -14.0439,1.15576 L -14.1963,1.26648 L -14.3613,1.35724 L -14.5365,1.42657
 L -14.7189,1.47342 L -14.9058,1.49704 z
M 14.9058,1.49704 L 14.7189,1.47342 L 14.5365,1.42657 L 14.3613,1.35724 L 14.1963,1.26648 L 14.0439,1.15576
 L 13.9065,1.02681 L 13.7865,0.881668 L 13.6855,0.722626 L 13.6053,0.552185 L 13.5471,0.373032 L 13.5118,0.187988
 L 13.5,-0 L 13.5118,-0.187988 L 13.5471,-0.373032 L 13.6053,-0.552185 L 13.6855,-0.722626 L 13.7865,-0.881668
 L 13.9065,-1.02681 L 14.0439,-1.15576 L 14.1963,-1.26648 L 14.3613,-1.35724 L 14.5365,-1.42657 L 14.7189,-1.47342
 L 14.9058,-1.49704 L 15.0942,-1.49704 L 15.2811,-1.47342 L 15.4635,-1.42657 L 15.6387,-1.35724 L 15.8037,-1.26648
 L 15.9561,-1.15576 L 16.0934,-1.02681 L 16.2135,-0.881668 L 16.3145,-0.722626 L 16.3947,-0.552185 L 16.4529,-0.373032
 L 16.4882,-0.187988 L 16.5,-0 L 16.4882,0.187988 L 16.4529,0.373032 L 16.3947,0.552185 L 16.3145,0.722626
 L 16.2135,0.881668 L 16.0934,1.02681 L 15.9561,1.15576 L 15.8037,1.26648 L 15.6387,1.35724 L 15.4635,1.42657
 L 15.2811,1.47342 L 15.0942,1.49704 z
M -0.0941772,1.49704 L -0.281067,1.47342 L -0.463516,1.42657 L -0.638657,1.35724 L -0.803726,1.26648 L -0.956131,1.15576
 L -1.09344,1.02681 L -1.21352,0.881668 L -1.31445,0.722626 L -1.39465,0.552185 L -1.45287,0.373032 L -1.48816,0.187988
 L -1.5,-0 L -1.48816,-0.187988 L -1.45287,-0.373032 L -1.39465,-0.552185 L -1.31445,-0.722626 L -1.21352,-0.881668
 L -1.09344,-1.02681 L -0.956131,-1.15576 L -0.803726,-1.26648 L -0.638657,-1.35724 L -0.463516,-1.42657 L -0.281067,-1.47342
 L -0.0941772,-1.49704 L 0.0941772,-1.49704 L 0.281067,-1.47342 L 0.463516,-1.42657 L 0.638657,-1.35724 L 0.803726,-1.26648
 L 0.956131,-1.15576 L 1.09344,-1.02681 L 1.21352,-0.881668 L 1.31445,-0.722626 L 1.39465,-0.552185 L 1.45287,-0.373032
 L 1.48816,-0.187988 L 1.5,-0 L 1.48816,0.187988 L 1.45287,0.373032 L 1.39465,0.552185 L 1.31445,0.722626
 L 1.21352,0.881668 L 1.09344,1.02681 L 0.956131,1.15576 L 0.803726,1.26648 L 0.638657,1.35724 L 0.463516,1.42657
 L 0.281067,1.47342 L 0.0941772,1.49704 z
M -60.0942,1.49704 L -60.2811,1.47342 L -60.4635,1.42657 L -60.6387,1.35724 L -60.8037,1.26648 L -60.9561,1.15576
 L -61.0934,1.02681 L -61.2135,0.881668 L -61.3145,0.722626 L -61.3947,0.552185 L -61.4529,0.373032 L -61.4882,0.187988
 L -61.5,-0 L -61.4882,-0.187988 L -61.4529,-0.373032 L -61.3947,-0.552185 L -61.3145,-0.722626 L -61.2135,-0.881668
 L -61.0934,-1.02681 L -60.9561,-1.15576 L -60.8037,-1.26648 L -60.6387,-1.35724 L -60.4635,-1.42657 L -60.2811,-1.47342
 L -60.0942,-1.49704 L -59.9058,-1.49704 L -59.7189,-1.47342 L -59.5365,-1.42657 L -59.3613,-1.35724 L -59.1963,-1.26648
 L -59.0439,-1.15576 L -58.9065,-1.02681 L -58.7865,-0.881668 L -58.6855,-0.722626 L -58.6053,-0.552185 L -58.5471,-0.373032
 L -58.5118,-0.187988 L -58.5,-0 L -58.5118,0.187988 L -58.5471,0.373032 L -58.6053,0.552185 L -58.6855,0.722626
 L -58.7865,0.881668 L -58.9065,1.02681 L -59.0439,1.15576 L -59.1963,1.26648 L -59.3613,1.35724 L -59.5365,1.42657
 L -59.7189,1.47342 L -59.9058,1.49704 z
" stroke="black" fill="lightgray" stroke-width="0.5"/>
</svg>
