<?xml version="1.0" standalone="no"?>
<!DOCTYPE svg PUBLIC "-//W3C//DTD SVG 1.1//EN" "http://www.w3.org/Graphics/SVG/1.1/DTD/svg11.dtd">
<svg width="60mm" height="147mm" viewBox="-30 -249 60 147" xmlns="http://www.w3.org/2000/svg" version="1.1">
<title>OpenSCAD Model</title>
<path d="
M 25.9369,-219.089 L 26.5451,-219.245 L 27.1289,-219.476 L 27.6791,-219.778 L 28.1871,-220.147 L 28.6448,-220.577
 L 29.0451,-221.061 L 29.3815,-221.591 L 29.6489,-222.159 L 29.8429,-222.757 L 29.9606,-223.373 L 30,-224
 L 30,-244 L 29.9606,-244.627 L 29.8429,-245.243 L 29.6489,-245.841 L 29.3815,-246.409 L 29.0451,-246.939
 L 28.6448,-247.423 L 28.1871,-247.853 L 27.6791,-248.222 L 27.1289,-248.524 L 26.5451,-248.755 L 25.9369,-248.911
 L 25.3139,-248.99 L -25.3139,-248.99 L -25.9369,-248.911 L -26.5451,-248.755 L -27.1289,-248.524 L -27.6791,-248.222
 L -28.1871,-247.853 L -28.6448,-247.423 L -29.0451,-246.939 L -29.3815,-246.409 L -29.6489,-245.841 L -29.8429,-245.243
 L -29.9606,-244.627 L -30,-244 L -30,-224 L -29.9606,-223.373 L -29.8429,-222.757 L -29.6489,-222.159
 L -29.3815,-221.591 L -29.0451,-221.061 L -28.6448,-220.577 L -28.1871,-220.147 L -27.6791,-219.778 L -27.1289,-219.476
 L -26.5451,-219.245 L -25.9369,-219.089 L -25.3139,-219.01 L 25.3139,-219.01 z
M -25.0482,-219.509 L -25.6401,-219.584 L -26.2178,-219.732 L -26.7724,-219.952 L -27.2952,-220.239 L -27.7778,-220.59
 L -28.2126,-220.998 L -28.5928,-221.458 L -28.9124,-221.962 L -29.1664,-222.501 L -29.3508,-223.069 L -29.4625,-223.655
 L -29.5,-224.25 L -29.5,-243.75 L -29.4625,-244.345 L -29.3508,-244.931 L -29.1664,-245.499 L -28.9124,-246.038
 L -28.5928,-246.542 L -28.2126,-247.002 L -27.7778,-247.41 L -27.2952,-247.761 L -26.7724,-248.048 L -26.2178,-248.268
 L -25.6401,-248.416 L -25.0482,-248.491 L 25.0482,-248.491 L 25.6401,-248.416 L 26.2178,-248.268 L 26.7724,-248.048
 L 27.2952,-247.761 L 27.7778,-247.41 L 28.2126,-247.002 L 28.5928,-246.542 L 28.9124,-246.038 L 29.1664,-245.499
 L 29.3508,-244.931 L 29.4625,-244.345 L 29.5,-243.75 L 29.5,-224.25 L 29.4625,-223.655 L 29.3508,-223.069
 L 29.1664,-222.501 L 28.9124,-221.962 L 28.5928,-221.458 L 28.2126,-220.998 L 27.7778,-220.59 L 27.2952,-220.239
 L 26.7724,-219.952 L 26.2178,-219.732 L 25.6401,-219.584 L 25.0482,-219.509 z
M 25.9369,-180.089 L 26.5451,-180.245 L 27.1289,-180.476 L 27.6791,-180.778 L 28.1871,-181.147 L 28.6448,-181.577
 L 29.0451,-182.061 L 29.3815,-182.591 L 29.6489,-183.159 L 29.8429,-183.757 L 29.9606,-184.373 L 30,-185
 L 30,-205 L 29.9606,-205.627 L 29.8429,-206.243 L 29.6489,-206.841 L 29.3815,-207.409 L 29.0451,-207.939
 L 28.6448,-208.423 L 28.1871,-208.853 L 27.6791,-209.222 L 27.1289,-209.524 L 26.5451,-209.755 L 25.9369,-209.911
 L 25.3139,-209.99 L -25.3139,-209.99 L -25.9369,-209.911 L -26.5451,-209.755 L -27.1289,-209.524 L -27.6791,-209.222
 L -28.1871,-208.853 L -28.6448,-208.423 L -29.0451,-207.939 L -29.3815,-207.409 L -29.6489,-206.841 L -29.8429,-206.243
 L -29.9606,-205.627 L -30,-205 L -30,-185 L -29.9606,-184.373 L -29.8429,-183.757 L -29.6489,-183.159
 L -29.3815,-182.591 L -29.0451,-182.061 L -28.6448,-181.577 L -28.1871,-181.147 L -27.6791,-180.778 L -27.1289,-180.476
 L -26.5451,-180.245 L -25.9369,-180.089 L -25.3139,-180.01 L 25.3139,-180.01 z
M -25.0482,-180.509 L -25.6401,-180.584 L -26.2178,-180.732 L -26.7724,-180.952 L -27.2952,-181.239 L -27.7778,-181.59
 L -28.2126,-181.998 L -28.5928,-182.458 L -28.9124,-182.962 L -29.1664,-183.501 L -29.3508,-184.069 L -29.4625,-184.655
 L -29.5,-185.25 L -29.5,-204.75 L -29.4625,-205.345 L -29.3508,-205.931 L -29.1664,-206.499 L -28.9124,-207.038
 L -28.5928,-207.542 L -28.2126,-208.002 L -27.7778,-208.41 L -27.2952,-208.761 L -26.7724,-209.048 L -26.2178,-209.268
 L -25.6401,-209.416 L -25.0482,-209.491 L 25.0482,-209.491 L 25.6401,-209.416 L 26.2178,-209.268 L 26.7724,-209.048
 L 27.2952,-208.761 L 27.7778,-208.41 L 28.2126,-208.002 L 28.5928,-207.542 L 28.9124,-207.038 L 29.1664,-206.499
 L 29.3508,-205.931 L 29.4625,-205.345 L 29.5,-204.75 L 29.5,-185.25 L 29.4625,-184.655 L 29.3508,-184.069
 L 29.1664,-183.501 L 28.9124,-182.962 L 28.5928,-182.458 L 28.2126,-181.998 L 27.7778,-181.59 L 27.2952,-181.239
 L 26.7724,-180.952 L 26.2178,-180.732 L 25.6401,-180.584 L 25.0482,-180.509 z
M 25.9369,-141.089 L 26.5451,-141.245 L 27.1289,-141.476 L 27.6791,-141.778 L 28.1871,-142.147 L 28.6448,-142.577
 L 29.0451,-143.061 L 29.3815,-143.591 L 29.6489,-144.159 L 29.8429,-144.757 L 29.9606,-145.373 L 30,-146
 L 30,-166 L 29.9606,-166.627 L 29.8429,-167.243 L 29.6489,-167.841 L 29.3815,-168.409 L 29.0451,-168.939
 L 28.6448,-169.423 L 28.1871,-169.853 L 27.6791,-170.222 L 27.1289,-170.524 L 26.5451,-170.755 L 25.9369,-170.911
 L 25.3139,-170.99 L -25.3139,-170.99 L -25.9369,-170.911 L -26.5451,-170.755 L -27.1289,-170.524 L -27.6791,-170.222
 L -28.1871,-169.853 L -28.6448,-169.423 L -29.0451,-168.939 L -29.3815,-168.409 L -29.6489,-167.841 L -29.8429,-167.243
 L -29.9606,-166.627 L -30,-166 L -30,-146 L -29.9606,-145.373 L -29.8429,-144.757 L -29.6489,-144.159
 L -29.3815,-143.591 L -29.0451,-143.061 L -28.6448,-142.577 L -28.1871,-142.147 L -27.6791,-141.778 L -27.1289,-141.476
 L -26.5451,-141.245 L -25.9369,-141.089 L -25.3139,-141.01 L 25.3139,-141.01 z
M -24.993,-142.388 L -25.4751,-142.449 L -25.9457,-142.57 L -26.3975,-142.749 L -26.8234,-142.983 L -27.2165,-143.269
 L -27.5707,-143.601 L -27.8805,-143.976 L -28.1408,-144.386 L -28.3477,-144.826 L -28.4979,-145.288 L -28.589,-145.765
 L -28.6195,-146.25 L -28.6195,-165.75 L -28.589,-166.235 L -28.4979,-166.712 L -28.3477,-167.174 L -28.1408,-167.614
 L -27.8805,-168.024 L -27.5707,-168.399 L -27.2165,-168.731 L -26.8234,-169.017 L -26.3975,-169.251 L -25.9457,-169.43
 L -25.4751,-169.551 L -24.993,-169.612 L 24.993,-169.612 L 25.4751,-169.551 L 25.9457,-169.43 L 26.3975,-169.251
 L 26.8234,-169.017 L 27.2165,-168.731 L 27.5707,-168.399 L 27.8805,-168.024 L 28.1408,-167.614 L 28.3477,-167.174
 L 28.4979,-166.712 L 28.589,-166.235 L 28.6195,-165.75 L 28.6195,-146.25 L 28.589,-145.765 L 28.4979,-145.288
 L 28.3477,-144.826 L 28.1408,-144.386 L 27.8805,-143.976 L 27.5707,-143.601 L 27.2165,-143.269 L 26.8234,-142.983
 L 26.3975,-142.749 L 25.9457,-142.57 L 25.4751,-142.449 L 24.993,-142.388 z
M 25.9369,-102.089 L 26.5451,-102.245 L 27.1289,-102.476 L 27.6791,-102.778 L 28.1871,-103.147 L 28.6448,-103.577
 L 29.0451,-104.061 L 29.3815,-104.591 L 29.6489,-105.159 L 29.8429,-105.757 L 29.9606,-106.373 L 30,-107
 L 30,-127 L 29.9606,-127.627 L 29.8429,-128.243 L 29.6489,-128.841 L 29.3815,-129.409 L 29.0451,-129.939
 L 28.6448,-130.423 L 28.1871,-130.853 L 27.6791,-131.222 L 27.1289,-131.524 L 26.5451,-131.755 L 25.9369,-131.911
 L 25.3139,-131.99 L -25.3139,-131.99 L -25.9369,-131.911 L -26.5451,-131.755 L -27.1289,-131.524 L -27.6791,-131.222
 L -28.1871,-130.853 L -28.6448,-130.423 L -29.0451,-129.939 L -29.3815,-129.409 L -29.6489,-128.841 L -29.8429,-128.243
 L -29.9606,-127.627 L -30,-127 L -30,-107 L -29.9606,-106.373 L -29.8429,-105.757 L -29.6489,-105.159
 L -29.3815,-104.591 L -29.0451,-104.061 L -28.6448,-103.577 L -28.1871,-103.147 L -27.6791,-102.778 L -27.1289,-102.476
 L -26.5451,-102.245 L -25.9369,-102.089 L -25.3139,-102.01 L 25.3139,-102.01 z
M 22.387,-122.704 L 22.1627,-122.732 L 21.9438,-122.788 L 21.7336,-122.871 L 21.5355,-122.98 L 21.3526,-123.113
 L 21.1879,-123.268 L 21.0438,-123.442 L 20.9226,-123.633 L 20.8264,-123.837 L 20.7565,-124.052 L 20.7142,-124.274
 L 20.7,-124.5 L 20.7142,-124.726 L 20.7565,-124.948 L 20.8264,-125.163 L 20.9226,-125.367 L 21.0438,-125.558
 L 21.1879,-125.732 L 21.3526,-125.887 L 21.5355,-126.02 L 21.7336,-126.129 L 21.9438,-126.212 L 22.1627,-126.268
 L 22.387,-126.296 L 22.613,-126.296 L 22.8373,-126.268 L 23.0562,-126.212 L 23.2664,-126.129 L 23.4645,-126.02
 L 23.6474,-125.887 L 23.8121,-125.732 L 23.9562,-125.558 L 24.0773,-125.367 L 24.1736,-125.163 L 24.2434,-124.948
 L 24.2858,-124.726 L 24.3,-124.5 L 24.2858,-124.274 L 24.2434,-124.052 L 24.1736,-123.837 L 24.0773,-123.633
 L 23.9562,-123.442 L 23.8121,-123.268 L 23.6474,-123.113 L 23.4645,-122.98 L 23.2664,-122.871 L 23.0562,-122.788
 L 22.8373,-122.732 L 22.613,-122.704 z
M -22.613,-122.704 L -22.8373,-122.732 L -23.0562,-122.788 L -23.2664,-122.871 L -23.4645,-122.98 L -23.6474,-123.113
 L -23.8121,-123.268 L -23.9562,-123.442 L -24.0773,-123.633 L -24.1736,-123.837 L -24.2434,-124.052 L -24.2858,-124.274
 L -24.3,-124.5 L -24.2858,-124.726 L -24.2434,-124.948 L -24.1736,-125.163 L -24.0773,-125.367 L -23.9562,-125.558
 L -23.8121,-125.732 L -23.6474,-125.887 L -23.4645,-126.02 L -23.2664,-126.129 L -23.0562,-126.212 L -22.8373,-126.268
 L -22.613,-126.296 L -22.387,-126.296 L -22.1627,-126.268 L -21.9438,-126.212 L -21.7336,-126.129 L -21.5355,-126.02
 L -21.3526,-125.887 L -21.1879,-125.732 L -21.0438,-125.558 L -20.9226,-125.367 L -20.8264,-125.163 L -20.7565,-124.948
 L -20.7142,-124.726 L -20.7,-124.5 L -20.7142,-124.274 L -20.7565,-124.052 L -20.8264,-123.837 L -20.9226,-123.633
 L -21.0438,-123.442 L -21.1879,-123.268 L -21.3526,-123.113 L -21.5355,-122.98 L -21.7336,-122.871 L -21.9438,-122.788
 L -22.1627,-122.732 L -22.387,-122.704 z
M 22.387,-107.704 L 22.1627,-107.732 L 21.9438,-107.788 L 21.7336,-107.871 L 21.5355,-107.98 L 21.3526,-108.113
 L 21.1879,-108.268 L 21.0438,-108.442 L 20.9226,-108.633 L 20.8264,-108.837 L 20.7565,-109.052 L 20.7142,-109.274
 L 20.7,-109.5 L 20.7142,-109.726 L 20.7565,-109.948 L 20.8264,-110.163 L 20.9226,-110.367 L 21.0438,-110.558
 L 21.1879,-110.732 L 21.3526,-110.887 L 21.5355,-111.02 L 21.7336,-111.129 L 21.9438,-111.212 L 22.1627,-111.268
 L 22.387,-111.296 L 22.613,-111.296 L 22.8373,-111.268 L 23.0562,-111.212 L 23.2664,-111.129 L 23.4645,-111.02
 L 23.6474,-110.887 L 23.8121,-110.732 L 23.9562,-110.558 L 24.0773,-110.367 L 24.1736,-110.163 L 24.2434,-109.948
 L 24.2858,-109.726 L 24.3,-109.5 L 24.2858,-109.274 L 24.2434,-109.052 L 24.1736,-108.837 L 24.0773,-108.633
 L 23.9562,-108.442 L 23.8121,-108.268 L 23.6474,-108.113 L 23.4645,-107.98 L 23.2664,-107.871 L 23.0562,-107.788
 L 22.8373,-107.732 L 22.613,-107.704 z
M -22.613,-107.704 L -22.8373,-107.732 L -23.0562,-107.788 L -23.2664,-107.871 L -23.4645,-107.98 L -23.6474,-108.113
 L -23.8121,-108.268 L -23.9562,-108.442 L -24.0773,-108.633 L -24.1736,-108.837 L -24.2434,-109.052 L -24.2858,-109.274
 L -24.3,-109.5 L -24.2858,-109.726 L -24.2434,-109.948 L -24.1736,-110.163 L -24.0773,-110.367 L -23.9562,-110.558
 L -23.8121,-110.732 L -23.6474,-110.887 L -23.4645,-111.02 L -23.2664,-111.129 L -23.0562,-111.212 L -22.8373,-111.268
 L -22.613,-111.296 L -22.387,-111.296 L -22.1627,-111.268 L -21.9438,-111.212 L -21.7336,-111.129 L -21.5355,-111.02
 L -21.3526,-110.887 L -21.1879,-110.732 L -21.0438,-110.558 L -20.9226,-110.367 L -20.8264,-110.163 L -20.7565,-109.948
 L -20.7142,-109.726 L -20.7,-109.5 L -20.7142,-109.274 L -20.7565,-109.052 L -20.8264,-108.837 L -20.9226,-108.633
 L -21.0438,-108.442 L -21.1879,-108.268 L -21.3526,-108.113 L -21.5355,-107.98 L -21.7336,-107.871 L -21.9438,-107.788
 L -22.1627,-107.732 L -22.387,-107.704 z
" stroke="black" fill="lightgray" stroke-width="0.5"/>
</svg>
