solid OpenSCAD_Model
  facet normal 0 0 -1
    outer loop
      vertex 1 0 0
      vertex 2.5 0 0
      vertex 2.48029 -0.313333 0
    endloop
  endfacet
  facet normal 0 0 -1
    outer loop
      vertex 0.992114 -0.125333 0
      vertex 2.48029 -0.313333 0
      vertex 2.42146 -0.621724 0
    endloop
  endfacet
  facet normal 0 0 -1
    outer loop
      vertex 2.5 0 0
      vertex 1 0 0
      vertex 2.48029 0.313333 0
    endloop
  endfacet
  facet normal 0 0 -1
    outer loop
      vertex 0.968583 -0.24869 0
      vertex 2.42146 -0.621724 0
      vertex 2.32444 -0.920311 0
    endloop
  endfacet
  facet normal 0 0 -1
    outer loop
      vertex 0.992114 0.125333 0
      vertex 2.48029 0.313333 0
      vertex 1 0 0
    endloop
  endfacet
  facet normal 0 0 -1
    outer loop
      vertex 0.929776 -0.368124 0
      vertex 2.32444 -0.920311 0
      vertex 2.19077 -1.20438 0
    endloop
  endfacet
  facet normal -0 0 -1
    outer loop
      vertex 2.48029 0.313333 0
      vertex 0.992114 0.125333 0
      vertex 2.42146 0.621724 0
    endloop
  endfacet
  facet normal 0 0 -1
    outer loop
      vertex 0.876307 -0.481753 0
      vertex 2.19077 -1.20438 0
      vertex 2.02254 -1.46946 0
    endloop
  endfacet
  facet normal 0 0 -1
    outer loop
      vertex 0.968583 0.24869 0
      vertex 2.42146 0.621724 0
      vertex 0.992114 0.125333 0
    endloop
  endfacet
  facet normal 0 0 -1
    outer loop
      vertex 0.809016 -0.587785 0
      vertex 2.02254 -1.46946 0
      vertex 1.82242 -1.71137 0
    endloop
  endfacet
  facet normal -0 0 -1
    outer loop
      vertex 2.42146 0.621724 0
      vertex 0.968583 0.24869 0
      vertex 2.32444 0.920311 0
    endloop
  endfacet
  facet normal 0 0 -1
    outer loop
      vertex 0.728969 -0.684546 0
      vertex 1.82242 -1.71137 0
      vertex 1.59356 -1.92628 0
    endloop
  endfacet
  facet normal 0 0 -1
    outer loop
      vertex 0.929776 0.368124 0
      vertex 2.32444 0.920311 0
      vertex 0.968583 0.24869 0
    endloop
  endfacet
  facet normal 0 0 -1
    outer loop
      vertex 0.637424 -0.770513 0
      vertex 1.59356 -1.92628 0
      vertex 1.33957 -2.11082 0
    endloop
  endfacet
  facet normal -0 0 -1
    outer loop
      vertex 2.32444 0.920311 0
      vertex 0.929776 0.368124 0
      vertex 2.19077 1.20438 0
    endloop
  endfacet
  facet normal 0 0 -1
    outer loop
      vertex 0.535827 -0.844327 0
      vertex 1.33957 -2.11082 0
      vertex 1.06445 -2.26207 0
    endloop
  endfacet
  facet normal 0 0 -1
    outer loop
      vertex 0.876307 0.481753 0
      vertex 2.19077 1.20438 0
      vertex 0.929776 0.368124 0
    endloop
  endfacet
  facet normal -0 0 -1
    outer loop
      vertex 2.19077 1.20438 0
      vertex 0.876307 0.481753 0
      vertex 2.02254 1.46946 0
    endloop
  endfacet
  facet normal 0 0 -1
    outer loop
      vertex 2.48029 -0.313333 0
      vertex 0.992114 -0.125333 0
      vertex 1 0 0
    endloop
  endfacet
  facet normal 0 0 -1
    outer loop
      vertex 2.42146 -0.621724 0
      vertex 0.968583 -0.24869 0
      vertex 0.992114 -0.125333 0
    endloop
  endfacet
  facet normal 0 0 -1
    outer loop
      vertex 2.32444 -0.920311 0
      vertex 0.929776 -0.368124 0
      vertex 0.968583 -0.24869 0
    endloop
  endfacet
  facet normal 0 0 -1
    outer loop
      vertex 2.19077 -1.20438 0
      vertex 0.876307 -0.481753 0
      vertex 0.929776 -0.368124 0
    endloop
  endfacet
  facet normal 0 0 -1
    outer loop
      vertex 2.02254 -1.46946 0
      vertex 0.809016 -0.587785 0
      vertex 0.876307 -0.481753 0
    endloop
  endfacet
  facet normal 0 0 -1
    outer loop
      vertex 0.425778 -0.904826 0
      vertex 1.06445 -2.26207 0
      vertex 0.772542 -2.37764 0
    endloop
  endfacet
  facet normal 0 0 -1
    outer loop
      vertex 1.82242 -1.71137 0
      vertex 0.728969 -0.684546 0
      vertex 0.809016 -0.587785 0
    endloop
  endfacet
  facet normal 0 0 -1
    outer loop
      vertex 1.59356 -1.92628 0
      vertex 0.637424 -0.770513 0
      vertex 0.728969 -0.684546 0
    endloop
  endfacet
  facet normal 0 0 -1
    outer loop
      vertex 1.33957 -2.11082 0
      vertex 0.535827 -0.844327 0
      vertex 0.637424 -0.770513 0
    endloop
  endfacet
  facet normal 0 0 -1
    outer loop
      vertex 0.309016 -0.951056 0
      vertex 0.772542 -2.37764 0
      vertex 0.468452 -2.45572 0
    endloop
  endfacet
  facet normal 0 0 -1
    outer loop
      vertex 1.06445 -2.26207 0
      vertex 0.425778 -0.904826 0
      vertex 0.535827 -0.844327 0
    endloop
  endfacet
  facet normal 0 0 -1
    outer loop
      vertex 0.772542 -2.37764 0
      vertex 0.309016 -0.951056 0
      vertex 0.425778 -0.904826 0
    endloop
  endfacet
  facet normal 0 0 -1
    outer loop
      vertex 0.468452 -2.45572 0
      vertex 0.187381 -0.982286 0
      vertex 0.309016 -0.951056 0
    endloop
  endfacet
  facet normal 0 0 -1
    outer loop
      vertex 0.156976 -2.49507 0
      vertex 0.187381 -0.982286 0
      vertex 0.468452 -2.45572 0
    endloop
  endfacet
  facet normal 0 0 -1
    outer loop
      vertex 0.156976 -2.49507 0
      vertex 0.0627899 -0.998026 0
      vertex 0.187381 -0.982286 0
    endloop
  endfacet
  facet normal 0 0 -1
    outer loop
      vertex 0.156976 -2.49507 0
      vertex -0.0627899 -0.998026 0
      vertex 0.0627899 -0.998026 0
    endloop
  endfacet
  facet normal 0 0 -1
    outer loop
      vertex -0.156976 -2.49507 0
      vertex -0.0627899 -0.998026 0
      vertex 0.156976 -2.49507 0
    endloop
  endfacet
  facet normal 0 0 -1
    outer loop
      vertex -0.156976 -2.49507 0
      vertex -0.187381 -0.982286 0
      vertex -0.0627899 -0.998026 0
    endloop
  endfacet
  facet normal 0 0 -1
    outer loop
      vertex -0.468452 -2.45572 0
      vertex -0.187381 -0.982286 0
      vertex -0.156976 -2.49507 0
    endloop
  endfacet
  facet normal -0 0 -1
    outer loop
      vertex -0.187381 -0.982286 0
      vertex -0.468452 -2.45572 0
      vertex -0.309016 -0.951056 0
    endloop
  endfacet
  facet normal 0 0 -1
    outer loop
      vertex -0.772542 -2.37764 0
      vertex -0.309016 -0.951056 0
      vertex -0.468452 -2.45572 0
    endloop
  endfacet
  facet normal -0 0 -1
    outer loop
      vertex -0.309016 -0.951056 0
      vertex -0.772542 -2.37764 0
      vertex -0.425778 -0.904826 0
    endloop
  endfacet
  facet normal 0 0 -1
    outer loop
      vertex -1.06445 -2.26207 0
      vertex -0.425778 -0.904826 0
      vertex -0.772542 -2.37764 0
    endloop
  endfacet
  facet normal -0 0 -1
    outer loop
      vertex -0.425778 -0.904826 0
      vertex -1.06445 -2.26207 0
      vertex -0.535827 -0.844327 0
    endloop
  endfacet
  facet normal 0 0 -1
    outer loop
      vertex -1.33957 -2.11082 0
      vertex -0.535827 -0.844327 0
      vertex -1.06445 -2.26207 0
    endloop
  endfacet
  facet normal -0 0 -1
    outer loop
      vertex -0.535827 -0.844327 0
      vertex -1.33957 -2.11082 0
      vertex -0.637424 -0.770513 0
    endloop
  endfacet
  facet normal 0 0 -1
    outer loop
      vertex -1.59356 -1.92628 0
      vertex -0.637424 -0.770513 0
      vertex -1.33957 -2.11082 0
    endloop
  endfacet
  facet normal -0 0 -1
    outer loop
      vertex -0.637424 -0.770513 0
      vertex -1.59356 -1.92628 0
      vertex -0.728969 -0.684546 0
    endloop
  endfacet
  facet normal 0 0 -1
    outer loop
      vertex -1.82242 -1.71137 0
      vertex -0.728969 -0.684546 0
      vertex -1.59356 -1.92628 0
    endloop
  endfacet
  facet normal -0 0 -1
    outer loop
      vertex -0.728969 -0.684546 0
      vertex -1.82242 -1.71137 0
      vertex -0.809016 -0.587785 0
    endloop
  endfacet
  facet normal -0 0 -1
    outer loop
      vertex -0.809016 -0.587785 0
      vertex -2.02254 -1.46946 0
      vertex -0.876307 -0.481753 0
    endloop
  endfacet
  facet normal 0 0 -1
    outer loop
      vertex -2.02254 -1.46946 0
      vertex -0.809016 -0.587785 0
      vertex -1.82242 -1.71137 0
    endloop
  endfacet
  facet normal 0 0 -1
    outer loop
      vertex 0.809016 0.587785 0
      vertex 2.02254 1.46946 0
      vertex 0.876307 0.481753 0
    endloop
  endfacet
  facet normal -0 0 -1
    outer loop
      vertex 2.02254 1.46946 0
      vertex 0.809016 0.587785 0
      vertex 1.82242 1.71137 0
    endloop
  endfacet
  facet normal 0 0 -1
    outer loop
      vertex 0.728969 0.684546 0
      vertex 1.82242 1.71137 0
      vertex 0.809016 0.587785 0
    endloop
  endfacet
  facet normal -0 0 -1
    outer loop
      vertex 1.82242 1.71137 0
      vertex 0.728969 0.684546 0
      vertex 1.59356 1.92628 0
    endloop
  endfacet
  facet normal 0 0 -1
    outer loop
      vertex 0.637424 0.770513 0
      vertex 1.59356 1.92628 0
      vertex 0.728969 0.684546 0
    endloop
  endfacet
  facet normal -0 0 -1
    outer loop
      vertex 1.59356 1.92628 0
      vertex 0.637424 0.770513 0
      vertex 1.33957 2.11082 0
    endloop
  endfacet
  facet normal 0 0 -1
    outer loop
      vertex 0.535827 0.844327 0
      vertex 1.33957 2.11082 0
      vertex 0.637424 0.770513 0
    endloop
  endfacet
  facet normal -0 0 -1
    outer loop
      vertex 1.33957 2.11082 0
      vertex 0.535827 0.844327 0
      vertex 1.06445 2.26207 0
    endloop
  endfacet
  facet normal 0 0 -1
    outer loop
      vertex 0.425778 0.904826 0
      vertex 1.06445 2.26207 0
      vertex 0.535827 0.844327 0
    endloop
  endfacet
  facet normal -0 0 -1
    outer loop
      vertex 1.06445 2.26207 0
      vertex 0.425778 0.904826 0
      vertex 0.772542 2.37764 0
    endloop
  endfacet
  facet normal 0 0 -1
    outer loop
      vertex 0.309016 0.951056 0
      vertex 0.772542 2.37764 0
      vertex 0.425778 0.904826 0
    endloop
  endfacet
  facet normal -0 0 -1
    outer loop
      vertex 0.772542 2.37764 0
      vertex 0.309016 0.951056 0
      vertex 0.468452 2.45572 0
    endloop
  endfacet
  facet normal 0 0 -1
    outer loop
      vertex 0.187381 0.982286 0
      vertex 0.468452 2.45572 0
      vertex 0.309016 0.951056 0
    endloop
  endfacet
  facet normal 0 0 -1
    outer loop
      vertex 0.187381 0.982286 0
      vertex 0.156976 2.49507 0
      vertex 0.468452 2.45572 0
    endloop
  endfacet
  facet normal 0 0 -1
    outer loop
      vertex 0.0627899 0.998026 0
      vertex 0.156976 2.49507 0
      vertex 0.187381 0.982286 0
    endloop
  endfacet
  facet normal 0 0 -1
    outer loop
      vertex -0.0627899 0.998026 0
      vertex 0.156976 2.49507 0
      vertex 0.0627899 0.998026 0
    endloop
  endfacet
  facet normal 0 0 -1
    outer loop
      vertex -0.0627899 0.998026 0
      vertex -0.156976 2.49507 0
      vertex 0.156976 2.49507 0
    endloop
  endfacet
  facet normal 0 0 -1
    outer loop
      vertex -0.187381 0.982286 0
      vertex -0.156976 2.49507 0
      vertex -0.0627899 0.998026 0
    endloop
  endfacet
  facet normal 0 0 -1
    outer loop
      vertex -0.468452 2.45572 0
      vertex -0.187381 0.982286 0
      vertex -0.309016 0.951056 0
    endloop
  endfacet
  facet normal 0 0 -1
    outer loop
      vertex -0.772542 2.37764 0
      vertex -0.309016 0.951056 0
      vertex -0.425778 0.904826 0
    endloop
  endfacet
  facet normal 0 0 -1
    outer loop
      vertex -0.187381 0.982286 0
      vertex -0.468452 2.45572 0
      vertex -0.156976 2.49507 0
    endloop
  endfacet
  facet normal 0 0 -1
    outer loop
      vertex -1.06445 2.26207 0
      vertex -0.425778 0.904826 0
      vertex -0.535827 0.844327 0
    endloop
  endfacet
  facet normal 0 0 -1
    outer loop
      vertex -1.33957 2.11082 0
      vertex -0.535827 0.844327 0
      vertex -0.637424 0.770513 0
    endloop
  endfacet
  facet normal 0 0 -1
    outer loop
      vertex -1.59356 1.92628 0
      vertex -0.637424 0.770513 0
      vertex -0.728969 0.684546 0
    endloop
  endfacet
  facet normal 0 0 -1
    outer loop
      vertex -0.309016 0.951056 0
      vertex -0.772542 2.37764 0
      vertex -0.468452 2.45572 0
    endloop
  endfacet
  facet normal 0 0 -1
    outer loop
      vertex -1.82242 1.71137 0
      vertex -0.728969 0.684546 0
      vertex -0.809016 0.587785 0
    endloop
  endfacet
  facet normal 0 0 -1
    outer loop
      vertex -2.02254 1.46946 0
      vertex -0.809016 0.587785 0
      vertex -0.876307 0.481753 0
    endloop
  endfacet
  facet normal 0 0 -1
    outer loop
      vertex -2.19077 1.20438 0
      vertex -0.876307 0.481753 0
      vertex -0.929776 0.368124 0
    endloop
  endfacet
  facet normal 0 0 -1
    outer loop
      vertex -2.32444 0.920311 0
      vertex -0.929776 0.368124 0
      vertex -0.968583 0.24869 0
    endloop
  endfacet
  facet normal 0 0 -1
    outer loop
      vertex -2.42146 0.621724 0
      vertex -0.968583 0.24869 0
      vertex -0.992114 0.125333 0
    endloop
  endfacet
  facet normal 0 0 -1
    outer loop
      vertex -0.425778 0.904826 0
      vertex -1.06445 2.26207 0
      vertex -0.772542 2.37764 0
    endloop
  endfacet
  facet normal 0 0 -1
    outer loop
      vertex -2.48029 0.313333 0
      vertex -0.992114 0.125333 0
      vertex -1 0 0
    endloop
  endfacet
  facet normal 0 0 -1
    outer loop
      vertex -2.19077 -1.20438 0
      vertex -0.876307 -0.481753 0
      vertex -2.02254 -1.46946 0
    endloop
  endfacet
  facet normal -0 0 -1
    outer loop
      vertex -0.876307 -0.481753 0
      vertex -2.19077 -1.20438 0
      vertex -0.929776 -0.368124 0
    endloop
  endfacet
  facet normal 0 0 -1
    outer loop
      vertex -0.535827 0.844327 0
      vertex -1.33957 2.11082 0
      vertex -1.06445 2.26207 0
    endloop
  endfacet
  facet normal 0 0 -1
    outer loop
      vertex -2.32444 -0.920311 0
      vertex -0.929776 -0.368124 0
      vertex -2.19077 -1.20438 0
    endloop
  endfacet
  facet normal 0 0 -1
    outer loop
      vertex -0.637424 0.770513 0
      vertex -1.59356 1.92628 0
      vertex -1.33957 2.11082 0
    endloop
  endfacet
  facet normal -0 0 -1
    outer loop
      vertex -0.929776 -0.368124 0
      vertex -2.32444 -0.920311 0
      vertex -0.968583 -0.24869 0
    endloop
  endfacet
  facet normal 0 0 -1
    outer loop
      vertex -0.728969 0.684546 0
      vertex -1.82242 1.71137 0
      vertex -1.59356 1.92628 0
    endloop
  endfacet
  facet normal 0 0 -1
    outer loop
      vertex -2.42146 -0.621724 0
      vertex -0.968583 -0.24869 0
      vertex -2.32444 -0.920311 0
    endloop
  endfacet
  facet normal 0 0 -1
    outer loop
      vertex -0.809016 0.587785 0
      vertex -2.02254 1.46946 0
      vertex -1.82242 1.71137 0
    endloop
  endfacet
  facet normal -0 0 -1
    outer loop
      vertex -0.968583 -0.24869 0
      vertex -2.42146 -0.621724 0
      vertex -0.992114 -0.125333 0
    endloop
  endfacet
  facet normal 0 0 -1
    outer loop
      vertex -0.876307 0.481753 0
      vertex -2.19077 1.20438 0
      vertex -2.02254 1.46946 0
    endloop
  endfacet
  facet normal 0 0 -1
    outer loop
      vertex -2.48029 -0.313333 0
      vertex -0.992114 -0.125333 0
      vertex -2.42146 -0.621724 0
    endloop
  endfacet
  facet normal 0 0 -1
    outer loop
      vertex -0.929776 0.368124 0
      vertex -2.32444 0.920311 0
      vertex -2.19077 1.20438 0
    endloop
  endfacet
  facet normal -0 0 -1
    outer loop
      vertex -0.992114 -0.125333 0
      vertex -2.48029 -0.313333 0
      vertex -1 0 0
    endloop
  endfacet
  facet normal 0 0 -1
    outer loop
      vertex -0.968583 0.24869 0
      vertex -2.42146 0.621724 0
      vertex -2.32444 0.920311 0
    endloop
  endfacet
  facet normal 0 0 -1
    outer loop
      vertex -2.5 0 0
      vertex -1 0 0
      vertex -2.48029 -0.313333 0
    endloop
  endfacet
  facet normal 0 0 -1
    outer loop
      vertex -0.992114 0.125333 0
      vertex -2.48029 0.313333 0
      vertex -2.42146 0.621724 0
    endloop
  endfacet
  facet normal 0 0 -1
    outer loop
      vertex -1 0 0
      vertex -2.5 0 0
      vertex -2.48029 0.313333 0
    endloop
  endfacet
  facet normal 0 0 -1
    outer loop
      vertex 0.992114 -0.125333 -8
      vertex 0.992114 0.125333 -8
      vertex 1 0 -8
    endloop
  endfacet
  facet normal 0 0 -1
    outer loop
      vertex 0.968583 -0.24869 -8
      vertex 0.992114 0.125333 -8
      vertex 0.992114 -0.125333 -8
    endloop
  endfacet
  facet normal 0 0 -1
    outer loop
      vertex 0.968583 -0.24869 -8
      vertex 0.968583 0.24869 -8
      vertex 0.992114 0.125333 -8
    endloop
  endfacet
  facet normal 0 0 -1
    outer loop
      vertex 0.929776 -0.368124 -8
      vertex 0.968583 0.24869 -8
      vertex 0.968583 -0.24869 -8
    endloop
  endfacet
  facet normal 0 0 -1
    outer loop
      vertex 0.929776 -0.368124 -8
      vertex 0.929776 0.368124 -8
      vertex 0.968583 0.24869 -8
    endloop
  endfacet
  facet normal 0 0 -1
    outer loop
      vertex 0.876307 -0.481753 -8
      vertex 0.929776 0.368124 -8
      vertex 0.929776 -0.368124 -8
    endloop
  endfacet
  facet normal 0 0 -1
    outer loop
      vertex 0.876307 -0.481753 -8
      vertex 0.876307 0.481753 -8
      vertex 0.929776 0.368124 -8
    endloop
  endfacet
  facet normal 0 0 -1
    outer loop
      vertex 0.809016 -0.587785 -8
      vertex 0.876307 0.481753 -8
      vertex 0.876307 -0.481753 -8
    endloop
  endfacet
  facet normal 0 0 -1
    outer loop
      vertex 0.809016 -0.587785 -8
      vertex 0.809016 0.587785 -8
      vertex 0.876307 0.481753 -8
    endloop
  endfacet
  facet normal 0 0 -1
    outer loop
      vertex 0.728969 -0.684546 -8
      vertex 0.809016 0.587785 -8
      vertex 0.809016 -0.587785 -8
    endloop
  endfacet
  facet normal 0 0 -1
    outer loop
      vertex 0.728969 -0.684546 -8
      vertex 0.728969 0.684546 -8
      vertex 0.809016 0.587785 -8
    endloop
  endfacet
  facet normal 0 0 -1
    outer loop
      vertex 0.637424 -0.770513 -8
      vertex 0.728969 0.684546 -8
      vertex 0.728969 -0.684546 -8
    endloop
  endfacet
  facet normal 0 0 -1
    outer loop
      vertex 0.637424 -0.770513 -8
      vertex 0.637424 0.770513 -8
      vertex 0.728969 0.684546 -8
    endloop
  endfacet
  facet normal 0 0 -1
    outer loop
      vertex 0.535827 -0.844327 -8
      vertex 0.637424 0.770513 -8
      vertex 0.637424 -0.770513 -8
    endloop
  endfacet
  facet normal 0 0 -1
    outer loop
      vertex 0.535827 -0.844327 -8
      vertex 0.535827 0.844327 -8
      vertex 0.637424 0.770513 -8
    endloop
  endfacet
  facet normal 0 0 -1
    outer loop
      vertex 0.425778 -0.904826 -8
      vertex 0.535827 0.844327 -8
      vertex 0.535827 -0.844327 -8
    endloop
  endfacet
  facet normal 0 0 -1
    outer loop
      vertex 0.425778 -0.904826 -8
      vertex 0.425778 0.904826 -8
      vertex 0.535827 0.844327 -8
    endloop
  endfacet
  facet normal 0 0 -1
    outer loop
      vertex 0.309016 -0.951056 -8
      vertex 0.425778 0.904826 -8
      vertex 0.425778 -0.904826 -8
    endloop
  endfacet
  facet normal 0 0 -1
    outer loop
      vertex 0.309016 -0.951056 -8
      vertex 0.309016 0.951056 -8
      vertex 0.425778 0.904826 -8
    endloop
  endfacet
  facet normal 0 0 -1
    outer loop
      vertex 0.187381 -0.982286 -8
      vertex 0.309016 0.951056 -8
      vertex 0.309016 -0.951056 -8
    endloop
  endfacet
  facet normal 0 0 -1
    outer loop
      vertex 0.187381 -0.982286 -8
      vertex 0.187381 0.982286 -8
      vertex 0.309016 0.951056 -8
    endloop
  endfacet
  facet normal 0 0 -1
    outer loop
      vertex 0.0627899 -0.998026 -8
      vertex 0.187381 0.982286 -8
      vertex 0.187381 -0.982286 -8
    endloop
  endfacet
  facet normal 0 0 -1
    outer loop
      vertex 0.0627899 -0.998026 -8
      vertex 0.0627899 0.998026 -8
      vertex 0.187381 0.982286 -8
    endloop
  endfacet
  facet normal 0 0 -1
    outer loop
      vertex -0.0627899 -0.998026 -8
      vertex 0.0627899 0.998026 -8
      vertex 0.0627899 -0.998026 -8
    endloop
  endfacet
  facet normal 0 0 -1
    outer loop
      vertex -0.0627899 -0.998026 -8
      vertex -0.0627899 0.998026 -8
      vertex 0.0627899 0.998026 -8
    endloop
  endfacet
  facet normal 0 0 -1
    outer loop
      vertex -0.187381 -0.982286 -8
      vertex -0.0627899 0.998026 -8
      vertex -0.0627899 -0.998026 -8
    endloop
  endfacet
  facet normal 0 0 -1
    outer loop
      vertex -0.187381 -0.982286 -8
      vertex -0.187381 0.982286 -8
      vertex -0.0627899 0.998026 -8
    endloop
  endfacet
  facet normal 0 0 -1
    outer loop
      vertex -0.309016 -0.951056 -8
      vertex -0.187381 0.982286 -8
      vertex -0.187381 -0.982286 -8
    endloop
  endfacet
  facet normal 0 0 -1
    outer loop
      vertex -0.309016 -0.951056 -8
      vertex -0.309016 0.951056 -8
      vertex -0.187381 0.982286 -8
    endloop
  endfacet
  facet normal 0 0 -1
    outer loop
      vertex -0.425778 -0.904826 -8
      vertex -0.309016 0.951056 -8
      vertex -0.309016 -0.951056 -8
    endloop
  endfacet
  facet normal 0 0 -1
    outer loop
      vertex -0.425778 -0.904826 -8
      vertex -0.425778 0.904826 -8
      vertex -0.309016 0.951056 -8
    endloop
  endfacet
  facet normal 0 0 -1
    outer loop
      vertex -0.535827 -0.844327 -8
      vertex -0.425778 0.904826 -8
      vertex -0.425778 -0.904826 -8
    endloop
  endfacet
  facet normal 0 0 -1
    outer loop
      vertex -0.535827 -0.844327 -8
      vertex -0.535827 0.844327 -8
      vertex -0.425778 0.904826 -8
    endloop
  endfacet
  facet normal 0 0 -1
    outer loop
      vertex -0.637424 -0.770513 -8
      vertex -0.535827 0.844327 -8
      vertex -0.535827 -0.844327 -8
    endloop
  endfacet
  facet normal 0 0 -1
    outer loop
      vertex -0.637424 -0.770513 -8
      vertex -0.637424 0.770513 -8
      vertex -0.535827 0.844327 -8
    endloop
  endfacet
  facet normal 0 0 -1
    outer loop
      vertex -0.728969 -0.684546 -8
      vertex -0.637424 0.770513 -8
      vertex -0.637424 -0.770513 -8
    endloop
  endfacet
  facet normal 0 0 -1
    outer loop
      vertex -0.728969 -0.684546 -8
      vertex -0.728969 0.684546 -8
      vertex -0.637424 0.770513 -8
    endloop
  endfacet
  facet normal 0 0 -1
    outer loop
      vertex -0.809016 -0.587785 -8
      vertex -0.728969 0.684546 -8
      vertex -0.728969 -0.684546 -8
    endloop
  endfacet
  facet normal 0 0 -1
    outer loop
      vertex -0.809016 -0.587785 -8
      vertex -0.809016 0.587785 -8
      vertex -0.728969 0.684546 -8
    endloop
  endfacet
  facet normal 0 0 -1
    outer loop
      vertex -0.876307 -0.481753 -8
      vertex -0.809016 0.587785 -8
      vertex -0.809016 -0.587785 -8
    endloop
  endfacet
  facet normal 0 0 -1
    outer loop
      vertex -0.876307 -0.481753 -8
      vertex -0.876307 0.481753 -8
      vertex -0.809016 0.587785 -8
    endloop
  endfacet
  facet normal 0 0 -1
    outer loop
      vertex -0.929776 -0.368124 -8
      vertex -0.876307 0.481753 -8
      vertex -0.876307 -0.481753 -8
    endloop
  endfacet
  facet normal 0 0 -1
    outer loop
      vertex -0.929776 -0.368124 -8
      vertex -0.929776 0.368124 -8
      vertex -0.876307 0.481753 -8
    endloop
  endfacet
  facet normal 0 0 -1
    outer loop
      vertex -0.968583 -0.24869 -8
      vertex -0.929776 0.368124 -8
      vertex -0.929776 -0.368124 -8
    endloop
  endfacet
  facet normal 0 0 -1
    outer loop
      vertex -0.968583 -0.24869 -8
      vertex -0.968583 0.24869 -8
      vertex -0.929776 0.368124 -8
    endloop
  endfacet
  facet normal 0 0 -1
    outer loop
      vertex -0.992114 -0.125333 -8
      vertex -0.968583 0.24869 -8
      vertex -0.968583 -0.24869 -8
    endloop
  endfacet
  facet normal 0 0 -1
    outer loop
      vertex -0.992114 -0.125333 -8
      vertex -0.992114 0.125333 -8
      vertex -0.968583 0.24869 -8
    endloop
  endfacet
  facet normal 0 -0 -1
    outer loop
      vertex -0.992114 0.125333 -8
      vertex -0.992114 -0.125333 -8
      vertex -1 0 -8
    endloop
  endfacet
  facet normal 0.998026 0.0627962 0
    outer loop
      vertex 1 0 0
      vertex 0.992114 0.125333 -8
      vertex 0.992114 0.125333 0
    endloop
  endfacet
  facet normal 0.998026 0.0627962 0
    outer loop
      vertex 0.992114 0.125333 -8
      vertex 1 0 0
      vertex 1 0 -8
    endloop
  endfacet
  facet normal -0.998026 0.0627962 0
    outer loop
      vertex -1 0 -8
      vertex -0.992114 0.125333 0
      vertex -0.992114 0.125333 -8
    endloop
  endfacet
  facet normal -0.998026 0.0627962 0
    outer loop
      vertex -0.992114 0.125333 0
      vertex -1 0 -8
      vertex -1 0 0
    endloop
  endfacet
  facet normal 0 1 -0
    outer loop
      vertex 0.0627899 0.998026 -8
      vertex -0.0627899 0.998026 0
      vertex 0.0627899 0.998026 0
    endloop
  endfacet
  facet normal 0 1 0
    outer loop
      vertex -0.0627899 0.998026 0
      vertex 0.0627899 0.998026 -8
      vertex -0.0627899 0.998026 -8
    endloop
  endfacet
  facet normal 0.684549 0.728967 -0
    outer loop
      vertex 0.728969 0.684546 -8
      vertex 0.637424 0.770513 0
      vertex 0.728969 0.684546 0
    endloop
  endfacet
  facet normal 0.684549 0.728967 0
    outer loop
      vertex 0.637424 0.770513 0
      vertex 0.728969 0.684546 -8
      vertex 0.637424 0.770513 -8
    endloop
  endfacet
  facet normal -0.684549 0.728967 0
    outer loop
      vertex -0.637424 0.770513 -8
      vertex -0.728969 0.684546 0
      vertex -0.637424 0.770513 0
    endloop
  endfacet
  facet normal -0.684549 0.728967 0
    outer loop
      vertex -0.728969 0.684546 0
      vertex -0.637424 0.770513 -8
      vertex -0.728969 0.684546 -8
    endloop
  endfacet
  facet normal -0.368129 0.929775 0
    outer loop
      vertex -0.309016 0.951056 -8
      vertex -0.425778 0.904826 0
      vertex -0.309016 0.951056 0
    endloop
  endfacet
  facet normal -0.368129 0.929775 0
    outer loop
      vertex -0.425778 0.904826 0
      vertex -0.309016 0.951056 -8
      vertex -0.425778 0.904826 -8
    endloop
  endfacet
  facet normal 0.770516 -0.637421 0
    outer loop
      vertex 0.728969 -0.684546 0
      vertex 0.809016 -0.587785 -8
      vertex 0.809016 -0.587785 0
    endloop
  endfacet
  facet normal 0.770516 -0.637421 0
    outer loop
      vertex 0.809016 -0.587785 -8
      vertex 0.728969 -0.684546 0
      vertex 0.728969 -0.684546 -8
    endloop
  endfacet
  facet normal 0.904829 0.425774 0
    outer loop
      vertex 0.929776 0.368124 0
      vertex 0.876307 0.481753 -8
      vertex 0.876307 0.481753 0
    endloop
  endfacet
  facet normal 0.904829 0.425774 0
    outer loop
      vertex 0.876307 0.481753 -8
      vertex 0.929776 0.368124 0
      vertex 0.929776 0.368124 -8
    endloop
  endfacet
  facet normal 0.982288 0.187377 0
    outer loop
      vertex 0.992114 0.125333 0
      vertex 0.968583 0.24869 -8
      vertex 0.968583 0.24869 0
    endloop
  endfacet
  facet normal 0.982288 0.187377 0
    outer loop
      vertex 0.968583 0.24869 -8
      vertex 0.992114 0.125333 0
      vertex 0.992114 0.125333 -8
    endloop
  endfacet
  facet normal 0.368129 0.929775 -0
    outer loop
      vertex 0.425778 0.904826 -8
      vertex 0.309016 0.951056 0
      vertex 0.425778 0.904826 0
    endloop
  endfacet
  facet normal 0.368129 0.929775 0
    outer loop
      vertex 0.309016 0.951056 0
      vertex 0.425778 0.904826 -8
      vertex 0.309016 0.951056 -8
    endloop
  endfacet
  facet normal 0.587782 0.809019 -0
    outer loop
      vertex 0.637424 0.770513 -8
      vertex 0.535827 0.844327 0
      vertex 0.637424 0.770513 0
    endloop
  endfacet
  facet normal 0.587782 0.809019 0
    outer loop
      vertex 0.535827 0.844327 0
      vertex 0.637424 0.770513 -8
      vertex 0.535827 0.844327 -8
    endloop
  endfacet
  facet normal -0.904829 0.425774 0
    outer loop
      vertex -0.929776 0.368124 -8
      vertex -0.876307 0.481753 0
      vertex -0.876307 0.481753 -8
    endloop
  endfacet
  facet normal -0.904829 0.425774 0
    outer loop
      vertex -0.876307 0.481753 0
      vertex -0.929776 0.368124 -8
      vertex -0.929776 0.368124 0
    endloop
  endfacet
  facet normal -0.844324 0.535833 0
    outer loop
      vertex -0.876307 0.481753 -8
      vertex -0.809016 0.587785 0
      vertex -0.809016 0.587785 -8
    endloop
  endfacet
  facet normal -0.844324 0.535833 0
    outer loop
      vertex -0.809016 0.587785 0
      vertex -0.876307 0.481753 -8
      vertex -0.876307 0.481753 0
    endloop
  endfacet
  facet normal -0.951055 0.309021 0
    outer loop
      vertex -0.968583 0.24869 -8
      vertex -0.929776 0.368124 0
      vertex -0.929776 0.368124 -8
    endloop
  endfacet
  facet normal -0.951055 0.309021 0
    outer loop
      vertex -0.929776 0.368124 0
      vertex -0.968583 0.24869 -8
      vertex -0.968583 0.24869 0
    endloop
  endfacet
  facet normal -0.481748 0.87631 0
    outer loop
      vertex -0.425778 0.904826 -8
      vertex -0.535827 0.844327 0
      vertex -0.425778 0.904826 0
    endloop
  endfacet
  facet normal -0.481748 0.87631 0
    outer loop
      vertex -0.535827 0.844327 0
      vertex -0.425778 0.904826 -8
      vertex -0.535827 0.844327 -8
    endloop
  endfacet
  facet normal -0.125337 0.992114 0
    outer loop
      vertex -0.0627899 0.998026 -8
      vertex -0.187381 0.982286 0
      vertex -0.0627899 0.998026 0
    endloop
  endfacet
  facet normal -0.125337 0.992114 0
    outer loop
      vertex -0.187381 0.982286 0
      vertex -0.0627899 0.998026 -8
      vertex -0.187381 0.982286 -8
    endloop
  endfacet
  facet normal 0.998026 -0.0627962 0
    outer loop
      vertex 0.992114 -0.125333 0
      vertex 1 0 -8
      vertex 1 0 0
    endloop
  endfacet
  facet normal 0.998026 -0.0627962 0
    outer loop
      vertex 1 0 -8
      vertex 0.992114 -0.125333 0
      vertex 0.992114 -0.125333 -8
    endloop
  endfacet
  facet normal -0.248686 -0.968584 0
    outer loop
      vertex -0.309016 -0.951056 -8
      vertex -0.187381 -0.982286 0
      vertex -0.309016 -0.951056 0
    endloop
  endfacet
  facet normal -0.248686 -0.968584 -0
    outer loop
      vertex -0.187381 -0.982286 0
      vertex -0.309016 -0.951056 -8
      vertex -0.187381 -0.982286 -8
    endloop
  endfacet
  facet normal 0.125337 -0.992114 0
    outer loop
      vertex 0.0627899 -0.998026 -8
      vertex 0.187381 -0.982286 0
      vertex 0.0627899 -0.998026 0
    endloop
  endfacet
  facet normal 0.125337 -0.992114 0
    outer loop
      vertex 0.187381 -0.982286 0
      vertex 0.0627899 -0.998026 -8
      vertex 0.187381 -0.982286 -8
    endloop
  endfacet
  facet normal 0.951055 0.309021 0
    outer loop
      vertex 0.968583 0.24869 0
      vertex 0.929776 0.368124 -8
      vertex 0.929776 0.368124 0
    endloop
  endfacet
  facet normal 0.951055 0.309021 0
    outer loop
      vertex 0.929776 0.368124 -8
      vertex 0.968583 0.24869 0
      vertex 0.968583 0.24869 -8
    endloop
  endfacet
  facet normal 0.770516 0.637421 0
    outer loop
      vertex 0.809016 0.587785 0
      vertex 0.728969 0.684546 -8
      vertex 0.728969 0.684546 0
    endloop
  endfacet
  facet normal 0.770516 0.637421 0
    outer loop
      vertex 0.728969 0.684546 -8
      vertex 0.809016 0.587785 0
      vertex 0.809016 0.587785 -8
    endloop
  endfacet
  facet normal 0.844324 0.535833 0
    outer loop
      vertex 0.876307 0.481753 0
      vertex 0.809016 0.587785 -8
      vertex 0.809016 0.587785 0
    endloop
  endfacet
  facet normal 0.844324 0.535833 0
    outer loop
      vertex 0.809016 0.587785 -8
      vertex 0.876307 0.481753 0
      vertex 0.876307 0.481753 -8
    endloop
  endfacet
  facet normal 0.248686 0.968584 -0
    outer loop
      vertex 0.309016 0.951056 -8
      vertex 0.187381 0.982286 0
      vertex 0.309016 0.951056 0
    endloop
  endfacet
  facet normal 0.248686 0.968584 0
    outer loop
      vertex 0.187381 0.982286 0
      vertex 0.309016 0.951056 -8
      vertex 0.187381 0.982286 -8
    endloop
  endfacet
  facet normal 0.125337 0.992114 -0
    outer loop
      vertex 0.187381 0.982286 -8
      vertex 0.0627899 0.998026 0
      vertex 0.187381 0.982286 0
    endloop
  endfacet
  facet normal 0.125337 0.992114 0
    outer loop
      vertex 0.0627899 0.998026 0
      vertex 0.187381 0.982286 -8
      vertex 0.0627899 0.998026 -8
    endloop
  endfacet
  facet normal 0.481748 0.87631 -0
    outer loop
      vertex 0.535827 0.844327 -8
      vertex 0.425778 0.904826 0
      vertex 0.535827 0.844327 0
    endloop
  endfacet
  facet normal 0.481748 0.87631 0
    outer loop
      vertex 0.425778 0.904826 0
      vertex 0.535827 0.844327 -8
      vertex 0.425778 0.904826 -8
    endloop
  endfacet
  facet normal -0.982288 0.187377 0
    outer loop
      vertex -0.992114 0.125333 -8
      vertex -0.968583 0.24869 0
      vertex -0.968583 0.24869 -8
    endloop
  endfacet
  facet normal -0.982288 0.187377 0
    outer loop
      vertex -0.968583 0.24869 0
      vertex -0.992114 0.125333 -8
      vertex -0.992114 0.125333 0
    endloop
  endfacet
  facet normal -0.587782 0.809019 0
    outer loop
      vertex -0.535827 0.844327 -8
      vertex -0.637424 0.770513 0
      vertex -0.535827 0.844327 0
    endloop
  endfacet
  facet normal -0.587782 0.809019 0
    outer loop
      vertex -0.637424 0.770513 0
      vertex -0.535827 0.844327 -8
      vertex -0.637424 0.770513 -8
    endloop
  endfacet
  facet normal -0.248686 0.968584 0
    outer loop
      vertex -0.187381 0.982286 -8
      vertex -0.309016 0.951056 0
      vertex -0.187381 0.982286 0
    endloop
  endfacet
  facet normal -0.248686 0.968584 0
    outer loop
      vertex -0.309016 0.951056 0
      vertex -0.187381 0.982286 -8
      vertex -0.309016 0.951056 -8
    endloop
  endfacet
  facet normal 0.481748 -0.87631 0
    outer loop
      vertex 0.425778 -0.904826 -8
      vertex 0.535827 -0.844327 0
      vertex 0.425778 -0.904826 0
    endloop
  endfacet
  facet normal 0.481748 -0.87631 0
    outer loop
      vertex 0.535827 -0.844327 0
      vertex 0.425778 -0.904826 -8
      vertex 0.535827 -0.844327 -8
    endloop
  endfacet
  facet normal 0.844324 -0.535833 0
    outer loop
      vertex 0.809016 -0.587785 0
      vertex 0.876307 -0.481753 -8
      vertex 0.876307 -0.481753 0
    endloop
  endfacet
  facet normal 0.844324 -0.535833 0
    outer loop
      vertex 0.876307 -0.481753 -8
      vertex 0.809016 -0.587785 0
      vertex 0.809016 -0.587785 -8
    endloop
  endfacet
  facet normal 0.951055 -0.309021 0
    outer loop
      vertex 0.929776 -0.368124 0
      vertex 0.968583 -0.24869 -8
      vertex 0.968583 -0.24869 0
    endloop
  endfacet
  facet normal 0.951055 -0.309021 0
    outer loop
      vertex 0.968583 -0.24869 -8
      vertex 0.929776 -0.368124 0
      vertex 0.929776 -0.368124 -8
    endloop
  endfacet
  facet normal 0.982288 -0.187377 0
    outer loop
      vertex 0.968583 -0.24869 0
      vertex 0.992114 -0.125333 -8
      vertex 0.992114 -0.125333 0
    endloop
  endfacet
  facet normal 0.982288 -0.187377 0
    outer loop
      vertex 0.992114 -0.125333 -8
      vertex 0.968583 -0.24869 0
      vertex 0.968583 -0.24869 -8
    endloop
  endfacet
  facet normal -0.844324 -0.535833 0
    outer loop
      vertex -0.809016 -0.587785 -8
      vertex -0.876307 -0.481753 0
      vertex -0.876307 -0.481753 -8
    endloop
  endfacet
  facet normal -0.844324 -0.535833 0
    outer loop
      vertex -0.876307 -0.481753 0
      vertex -0.809016 -0.587785 -8
      vertex -0.809016 -0.587785 0
    endloop
  endfacet
  facet normal -0.904829 -0.425774 0
    outer loop
      vertex -0.876307 -0.481753 -8
      vertex -0.929776 -0.368124 0
      vertex -0.929776 -0.368124 -8
    endloop
  endfacet
  facet normal -0.904829 -0.425774 0
    outer loop
      vertex -0.929776 -0.368124 0
      vertex -0.876307 -0.481753 -8
      vertex -0.876307 -0.481753 0
    endloop
  endfacet
  facet normal -0.951055 -0.309021 0
    outer loop
      vertex -0.929776 -0.368124 -8
      vertex -0.968583 -0.24869 0
      vertex -0.968583 -0.24869 -8
    endloop
  endfacet
  facet normal -0.951055 -0.309021 0
    outer loop
      vertex -0.968583 -0.24869 0
      vertex -0.929776 -0.368124 -8
      vertex -0.929776 -0.368124 0
    endloop
  endfacet
  facet normal 0.368129 -0.929775 0
    outer loop
      vertex 0.309016 -0.951056 -8
      vertex 0.425778 -0.904826 0
      vertex 0.309016 -0.951056 0
    endloop
  endfacet
  facet normal 0.368129 -0.929775 0
    outer loop
      vertex 0.425778 -0.904826 0
      vertex 0.309016 -0.951056 -8
      vertex 0.425778 -0.904826 -8
    endloop
  endfacet
  facet normal 0.248686 -0.968584 0
    outer loop
      vertex 0.187381 -0.982286 -8
      vertex 0.309016 -0.951056 0
      vertex 0.187381 -0.982286 0
    endloop
  endfacet
  facet normal 0.248686 -0.968584 0
    outer loop
      vertex 0.309016 -0.951056 0
      vertex 0.187381 -0.982286 -8
      vertex 0.309016 -0.951056 -8
    endloop
  endfacet
  facet normal -0.770516 0.637421 0
    outer loop
      vertex -0.809016 0.587785 -8
      vertex -0.728969 0.684546 0
      vertex -0.728969 0.684546 -8
    endloop
  endfacet
  facet normal -0.770516 0.637421 0
    outer loop
      vertex -0.728969 0.684546 0
      vertex -0.809016 0.587785 -8
      vertex -0.809016 0.587785 0
    endloop
  endfacet
  facet normal 0.904829 -0.425774 0
    outer loop
      vertex 0.876307 -0.481753 0
      vertex 0.929776 -0.368124 -8
      vertex 0.929776 -0.368124 0
    endloop
  endfacet
  facet normal 0.904829 -0.425774 0
    outer loop
      vertex 0.929776 -0.368124 -8
      vertex 0.876307 -0.481753 0
      vertex 0.876307 -0.481753 -8
    endloop
  endfacet
  facet normal 0 -1 0
    outer loop
      vertex -0.0627899 -0.998026 -8
      vertex 0.0627899 -0.998026 0
      vertex -0.0627899 -0.998026 0
    endloop
  endfacet
  facet normal 0 -1 -0
    outer loop
      vertex 0.0627899 -0.998026 0
      vertex -0.0627899 -0.998026 -8
      vertex 0.0627899 -0.998026 -8
    endloop
  endfacet
  facet normal -0.368129 -0.929775 0
    outer loop
      vertex -0.425778 -0.904826 -8
      vertex -0.309016 -0.951056 0
      vertex -0.425778 -0.904826 0
    endloop
  endfacet
  facet normal -0.368129 -0.929775 -0
    outer loop
      vertex -0.309016 -0.951056 0
      vertex -0.425778 -0.904826 -8
      vertex -0.309016 -0.951056 -8
    endloop
  endfacet
  facet normal -0.998026 -0.0627962 0
    outer loop
      vertex -0.992114 -0.125333 -8
      vertex -1 0 0
      vertex -1 0 -8
    endloop
  endfacet
  facet normal -0.998026 -0.0627962 0
    outer loop
      vertex -1 0 0
      vertex -0.992114 -0.125333 -8
      vertex -0.992114 -0.125333 0
    endloop
  endfacet
  facet normal 0.587782 -0.809019 0
    outer loop
      vertex 0.535827 -0.844327 -8
      vertex 0.637424 -0.770513 0
      vertex 0.535827 -0.844327 0
    endloop
  endfacet
  facet normal 0.587782 -0.809019 0
    outer loop
      vertex 0.637424 -0.770513 0
      vertex 0.535827 -0.844327 -8
      vertex 0.637424 -0.770513 -8
    endloop
  endfacet
  facet normal 0.684549 -0.728967 0
    outer loop
      vertex 0.637424 -0.770513 -8
      vertex 0.728969 -0.684546 0
      vertex 0.637424 -0.770513 0
    endloop
  endfacet
  facet normal 0.684549 -0.728967 0
    outer loop
      vertex 0.728969 -0.684546 0
      vertex 0.637424 -0.770513 -8
      vertex 0.728969 -0.684546 -8
    endloop
  endfacet
  facet normal -0.125337 -0.992114 0
    outer loop
      vertex -0.187381 -0.982286 -8
      vertex -0.0627899 -0.998026 0
      vertex -0.187381 -0.982286 0
    endloop
  endfacet
  facet normal -0.125337 -0.992114 -0
    outer loop
      vertex -0.0627899 -0.998026 0
      vertex -0.187381 -0.982286 -8
      vertex -0.0627899 -0.998026 -8
    endloop
  endfacet
  facet normal -0.481748 -0.87631 0
    outer loop
      vertex -0.535827 -0.844327 -8
      vertex -0.425778 -0.904826 0
      vertex -0.535827 -0.844327 0
    endloop
  endfacet
  facet normal -0.481748 -0.87631 -0
    outer loop
      vertex -0.425778 -0.904826 0
      vertex -0.535827 -0.844327 -8
      vertex -0.425778 -0.904826 -8
    endloop
  endfacet
  facet normal -0.770516 -0.637421 0
    outer loop
      vertex -0.728969 -0.684546 -8
      vertex -0.809016 -0.587785 0
      vertex -0.809016 -0.587785 -8
    endloop
  endfacet
  facet normal -0.770516 -0.637421 0
    outer loop
      vertex -0.809016 -0.587785 0
      vertex -0.728969 -0.684546 -8
      vertex -0.728969 -0.684546 0
    endloop
  endfacet
  facet normal -0.982288 -0.187377 0
    outer loop
      vertex -0.968583 -0.24869 -8
      vertex -0.992114 -0.125333 0
      vertex -0.992114 -0.125333 -8
    endloop
  endfacet
  facet normal -0.982288 -0.187377 0
    outer loop
      vertex -0.992114 -0.125333 0
      vertex -0.968583 -0.24869 -8
      vertex -0.968583 -0.24869 0
    endloop
  endfacet
  facet normal -0.684549 -0.728967 0
    outer loop
      vertex -0.728969 -0.684546 -8
      vertex -0.637424 -0.770513 0
      vertex -0.728969 -0.684546 0
    endloop
  endfacet
  facet normal -0.684549 -0.728967 -0
    outer loop
      vertex -0.637424 -0.770513 0
      vertex -0.728969 -0.684546 -8
      vertex -0.637424 -0.770513 -8
    endloop
  endfacet
  facet normal -0.587782 -0.809019 0
    outer loop
      vertex -0.637424 -0.770513 -8
      vertex -0.535827 -0.844327 0
      vertex -0.637424 -0.770513 0
    endloop
  endfacet
  facet normal -0.587782 -0.809019 -0
    outer loop
      vertex -0.535827 -0.844327 0
      vertex -0.637424 -0.770513 -8
      vertex -0.535827 -0.844327 -8
    endloop
  endfacet
  facet normal 0.90483 0.425772 0
    outer loop
      vertex 2.32444 0.920311 1.3
      vertex 2.19077 1.20438 0
      vertex 2.19077 1.20438 1.3
    endloop
  endfacet
  facet normal 0.90483 0.425772 0
    outer loop
      vertex 2.19077 1.20438 0
      vertex 2.32444 0.920311 1.3
      vertex 2.32444 0.920311 0
    endloop
  endfacet
  facet normal 0.844321 0.535838 0
    outer loop
      vertex 2.19077 1.20438 1.3
      vertex 2.02254 1.46946 0
      vertex 2.02254 1.46946 1.3
    endloop
  endfacet
  facet normal 0.844321 0.535838 0
    outer loop
      vertex 2.02254 1.46946 0
      vertex 2.19077 1.20438 1.3
      vertex 2.19077 1.20438 0
    endloop
  endfacet
  facet normal 0.368112 0.929781 -0
    outer loop
      vertex 1.06445 2.26207 0
      vertex 0.772542 2.37764 1.3
      vertex 1.06445 2.26207 1.3
    endloop
  endfacet
  facet normal 0.368112 0.929781 0
    outer loop
      vertex 0.772542 2.37764 1.3
      vertex 1.06445 2.26207 0
      vertex 0.772542 2.37764 0
    endloop
  endfacet
  facet normal -0.368112 0.929781 0
    outer loop
      vertex -0.772542 2.37764 0
      vertex -1.06445 2.26207 1.3
      vertex -0.772542 2.37764 1.3
    endloop
  endfacet
  facet normal -0.368112 0.929781 0
    outer loop
      vertex -1.06445 2.26207 1.3
      vertex -0.772542 2.37764 0
      vertex -1.06445 2.26207 0
    endloop
  endfacet
  facet normal -0.90483 0.425772 0
    outer loop
      vertex -2.32444 0.920311 0
      vertex -2.19077 1.20438 1.3
      vertex -2.19077 1.20438 0
    endloop
  endfacet
  facet normal -0.90483 0.425772 0
    outer loop
      vertex -2.19077 1.20438 1.3
      vertex -2.32444 0.920311 0
      vertex -2.32444 0.920311 1.3
    endloop
  endfacet
  facet normal 0.998027 -0.0627802 0
    outer loop
      vertex 2.48029 -0.313333 1.3
      vertex 2.5 0 0
      vertex 2.5 0 1.3
    endloop
  endfacet
  facet normal 0.998027 -0.0627802 0
    outer loop
      vertex 2.5 0 0
      vertex 2.48029 -0.313333 1.3
      vertex 2.48029 -0.313333 0
    endloop
  endfacet
  facet normal 0.684541 0.728975 -0
    outer loop
      vertex 1.82242 1.71137 0
      vertex 1.59356 1.92628 1.3
      vertex 1.82242 1.71137 1.3
    endloop
  endfacet
  facet normal 0.684541 0.728975 0
    outer loop
      vertex 1.59356 1.92628 1.3
      vertex 1.82242 1.71137 0
      vertex 1.59356 1.92628 0
    endloop
  endfacet
  facet normal 0.125338 0.992114 -0
    outer loop
      vertex 0.468452 2.45572 0
      vertex 0.156976 2.49507 1.3
      vertex 0.468452 2.45572 1.3
    endloop
  endfacet
  facet normal 0.125338 0.992114 0
    outer loop
      vertex 0.156976 2.49507 1.3
      vertex 0.468452 2.45572 0
      vertex 0.156976 2.49507 0
    endloop
  endfacet
  facet normal 0.481757 0.876305 -0
    outer loop
      vertex 1.33957 2.11082 0
      vertex 1.06445 2.26207 1.3
      vertex 1.33957 2.11082 1.3
    endloop
  endfacet
  facet normal 0.481757 0.876305 0
    outer loop
      vertex 1.06445 2.26207 1.3
      vertex 1.33957 2.11082 0
      vertex 1.06445 2.26207 0
    endloop
  endfacet
  facet normal -0.998027 0.0627802 0
    outer loop
      vertex -2.5 0 0
      vertex -2.48029 0.313333 1.3
      vertex -2.48029 0.313333 0
    endloop
  endfacet
  facet normal -0.998027 0.0627802 0
    outer loop
      vertex -2.48029 0.313333 1.3
      vertex -2.5 0 0
      vertex -2.5 0 1.3
    endloop
  endfacet
  facet normal -0.770522 0.637414 0
    outer loop
      vertex -2.02254 1.46946 0
      vertex -1.82242 1.71137 1.3
      vertex -1.82242 1.71137 0
    endloop
  endfacet
  facet normal -0.770522 0.637414 0
    outer loop
      vertex -1.82242 1.71137 1.3
      vertex -2.02254 1.46946 0
      vertex -2.02254 1.46946 1.3
    endloop
  endfacet
  facet normal -0.125338 0.992114 0
    outer loop
      vertex -0.156976 2.49507 0
      vertex -0.468452 2.45572 1.3
      vertex -0.156976 2.49507 1.3
    endloop
  endfacet
  facet normal -0.125338 0.992114 0
    outer loop
      vertex -0.468452 2.45572 1.3
      vertex -0.156976 2.49507 0
      vertex -0.468452 2.45572 0
    endloop
  endfacet
  facet normal -0.684541 0.728975 0
    outer loop
      vertex -1.59356 1.92628 0
      vertex -1.82242 1.71137 1.3
      vertex -1.59356 1.92628 1.3
    endloop
  endfacet
  facet normal -0.684541 0.728975 0
    outer loop
      vertex -1.82242 1.71137 1.3
      vertex -1.59356 1.92628 0
      vertex -1.82242 1.71137 0
    endloop
  endfacet
  facet normal 0.90483 -0.425772 0
    outer loop
      vertex 2.19077 -1.20438 1.3
      vertex 2.32444 -0.920311 0
      vertex 2.32444 -0.920311 1.3
    endloop
  endfacet
  facet normal 0.90483 -0.425772 0
    outer loop
      vertex 2.32444 -0.920311 0
      vertex 2.19077 -1.20438 1.3
      vertex 2.19077 -1.20438 0
    endloop
  endfacet
  facet normal -0.684541 -0.728975 0
    outer loop
      vertex -1.82242 -1.71137 0
      vertex -1.59356 -1.92628 1.3
      vertex -1.82242 -1.71137 1.3
    endloop
  endfacet
  facet normal -0.684541 -0.728975 -0
    outer loop
      vertex -1.59356 -1.92628 1.3
      vertex -1.82242 -1.71137 0
      vertex -1.59356 -1.92628 0
    endloop
  endfacet
  facet normal -0.90483 -0.425772 0
    outer loop
      vertex -2.19077 -1.20438 0
      vertex -2.32444 -0.920311 1.3
      vertex -2.32444 -0.920311 0
    endloop
  endfacet
  facet normal -0.90483 -0.425772 0
    outer loop
      vertex -2.32444 -0.920311 1.3
      vertex -2.19077 -1.20438 0
      vertex -2.19077 -1.20438 1.3
    endloop
  endfacet
  facet normal 0.481757 -0.876305 0
    outer loop
      vertex 1.06445 -2.26207 0
      vertex 1.33957 -2.11082 1.3
      vertex 1.06445 -2.26207 1.3
    endloop
  endfacet
  facet normal 0.481757 -0.876305 0
    outer loop
      vertex 1.33957 -2.11082 1.3
      vertex 1.06445 -2.26207 0
      vertex 1.33957 -2.11082 0
    endloop
  endfacet
  facet normal 0.982287 0.187385 0
    outer loop
      vertex 2.48029 0.313333 1.3
      vertex 2.42146 0.621724 0
      vertex 2.42146 0.621724 1.3
    endloop
  endfacet
  facet normal 0.982287 0.187385 0
    outer loop
      vertex 2.42146 0.621724 0
      vertex 2.48029 0.313333 1.3
      vertex 2.48029 0.313333 0
    endloop
  endfacet
  facet normal 0.951054 0.309026 0
    outer loop
      vertex 2.42146 0.621724 1.3
      vertex 2.32444 0.920311 0
      vertex 2.32444 0.920311 1.3
    endloop
  endfacet
  facet normal 0.951054 0.309026 0
    outer loop
      vertex 2.32444 0.920311 0
      vertex 2.42146 0.621724 1.3
      vertex 2.42146 0.621724 0
    endloop
  endfacet
  facet normal 0.770522 0.637414 0
    outer loop
      vertex 2.02254 1.46946 1.3
      vertex 1.82242 1.71137 0
      vertex 1.82242 1.71137 1.3
    endloop
  endfacet
  facet normal 0.770522 0.637414 0
    outer loop
      vertex 1.82242 1.71137 0
      vertex 2.02254 1.46946 1.3
      vertex 2.02254 1.46946 0
    endloop
  endfacet
  facet normal 0 1 -0
    outer loop
      vertex 0.156976 2.49507 0
      vertex -0.156976 2.49507 1.3
      vertex 0.156976 2.49507 1.3
    endloop
  endfacet
  facet normal 0 1 0
    outer loop
      vertex -0.156976 2.49507 1.3
      vertex 0.156976 2.49507 0
      vertex -0.156976 2.49507 0
    endloop
  endfacet
  facet normal 0.248699 0.968581 -0
    outer loop
      vertex 0.772542 2.37764 0
      vertex 0.468452 2.45572 1.3
      vertex 0.772542 2.37764 1.3
    endloop
  endfacet
  facet normal 0.248699 0.968581 0
    outer loop
      vertex 0.468452 2.45572 1.3
      vertex 0.772542 2.37764 0
      vertex 0.468452 2.45572 0
    endloop
  endfacet
  facet normal 0.587797 0.809009 -0
    outer loop
      vertex 1.59356 1.92628 0
      vertex 1.33957 2.11082 1.3
      vertex 1.59356 1.92628 1.3
    endloop
  endfacet
  facet normal 0.587797 0.809009 0
    outer loop
      vertex 1.33957 2.11082 1.3
      vertex 1.59356 1.92628 0
      vertex 1.33957 2.11082 0
    endloop
  endfacet
  facet normal 0 0 1
    outer loop
      vertex 2.48029 0.313333 1.3
      vertex 2.48029 -0.313333 1.3
      vertex 2.5 0 1.3
    endloop
  endfacet
  facet normal 0 0 1
    outer loop
      vertex 2.42146 0.621724 1.3
      vertex 2.48029 -0.313333 1.3
      vertex 2.48029 0.313333 1.3
    endloop
  endfacet
  facet normal 0 0 1
    outer loop
      vertex 2.42146 0.621724 1.3
      vertex 2.42146 -0.621724 1.3
      vertex 2.48029 -0.313333 1.3
    endloop
  endfacet
  facet normal 0 0 1
    outer loop
      vertex 2.32444 0.920311 1.3
      vertex 2.42146 -0.621724 1.3
      vertex 2.42146 0.621724 1.3
    endloop
  endfacet
  facet normal 0 0 1
    outer loop
      vertex 2.32444 0.920311 1.3
      vertex 2.32444 -0.920311 1.3
      vertex 2.42146 -0.621724 1.3
    endloop
  endfacet
  facet normal 0 0 1
    outer loop
      vertex 2.19077 1.20438 1.3
      vertex 2.32444 -0.920311 1.3
      vertex 2.32444 0.920311 1.3
    endloop
  endfacet
  facet normal 0 0 1
    outer loop
      vertex 2.19077 1.20438 1.3
      vertex 2.19077 -1.20438 1.3
      vertex 2.32444 -0.920311 1.3
    endloop
  endfacet
  facet normal 0 0 1
    outer loop
      vertex 2.02254 1.46946 1.3
      vertex 2.19077 -1.20438 1.3
      vertex 2.19077 1.20438 1.3
    endloop
  endfacet
  facet normal 0 0 1
    outer loop
      vertex 2.02254 1.46946 1.3
      vertex 2.02254 -1.46946 1.3
      vertex 2.19077 -1.20438 1.3
    endloop
  endfacet
  facet normal 0 0 1
    outer loop
      vertex 1.82242 1.71137 1.3
      vertex 2.02254 -1.46946 1.3
      vertex 2.02254 1.46946 1.3
    endloop
  endfacet
  facet normal 0 0 1
    outer loop
      vertex 1.82242 1.71137 1.3
      vertex 1.82242 -1.71137 1.3
      vertex 2.02254 -1.46946 1.3
    endloop
  endfacet
  facet normal 0 0 1
    outer loop
      vertex 1.59356 1.92628 1.3
      vertex 1.82242 -1.71137 1.3
      vertex 1.82242 1.71137 1.3
    endloop
  endfacet
  facet normal 0 0 1
    outer loop
      vertex 1.59356 1.92628 1.3
      vertex 1.59356 -1.92628 1.3
      vertex 1.82242 -1.71137 1.3
    endloop
  endfacet
  facet normal 0 0 1
    outer loop
      vertex 1.33957 2.11082 1.3
      vertex 1.59356 -1.92628 1.3
      vertex 1.59356 1.92628 1.3
    endloop
  endfacet
  facet normal 0 0 1
    outer loop
      vertex 1.33957 2.11082 1.3
      vertex 1.33957 -2.11082 1.3
      vertex 1.59356 -1.92628 1.3
    endloop
  endfacet
  facet normal 0 0 1
    outer loop
      vertex 1.06445 2.26207 1.3
      vertex 1.33957 -2.11082 1.3
      vertex 1.33957 2.11082 1.3
    endloop
  endfacet
  facet normal 0 0 1
    outer loop
      vertex 1.06445 2.26207 1.3
      vertex 1.06445 -2.26207 1.3
      vertex 1.33957 -2.11082 1.3
    endloop
  endfacet
  facet normal 0 0 1
    outer loop
      vertex 0.772542 2.37764 1.3
      vertex 1.06445 -2.26207 1.3
      vertex 1.06445 2.26207 1.3
    endloop
  endfacet
  facet normal 0 0 1
    outer loop
      vertex 0.772542 2.37764 1.3
      vertex 0.772542 -2.37764 1.3
      vertex 1.06445 -2.26207 1.3
    endloop
  endfacet
  facet normal 0 0 1
    outer loop
      vertex 0.468452 2.45572 1.3
      vertex 0.772542 -2.37764 1.3
      vertex 0.772542 2.37764 1.3
    endloop
  endfacet
  facet normal 0 0 1
    outer loop
      vertex 0.468452 2.45572 1.3
      vertex 0.468452 -2.45572 1.3
      vertex 0.772542 -2.37764 1.3
    endloop
  endfacet
  facet normal 0 0 1
    outer loop
      vertex 0.156976 2.49507 1.3
      vertex 0.468452 -2.45572 1.3
      vertex 0.468452 2.45572 1.3
    endloop
  endfacet
  facet normal 0 0 1
    outer loop
      vertex 0.156976 2.49507 1.3
      vertex 0.156976 -2.49507 1.3
      vertex 0.468452 -2.45572 1.3
    endloop
  endfacet
  facet normal -0 0 1
    outer loop
      vertex -0.156976 2.49507 1.3
      vertex 0.156976 -2.49507 1.3
      vertex 0.156976 2.49507 1.3
    endloop
  endfacet
  facet normal 0 0 1
    outer loop
      vertex -0.156976 2.49507 1.3
      vertex -0.156976 -2.49507 1.3
      vertex 0.156976 -2.49507 1.3
    endloop
  endfacet
  facet normal -0 0 1
    outer loop
      vertex -0.468452 2.45572 1.3
      vertex -0.156976 -2.49507 1.3
      vertex -0.156976 2.49507 1.3
    endloop
  endfacet
  facet normal 0 0 1
    outer loop
      vertex -0.468452 2.45572 1.3
      vertex -0.468452 -2.45572 1.3
      vertex -0.156976 -2.49507 1.3
    endloop
  endfacet
  facet normal -0 0 1
    outer loop
      vertex -0.772542 2.37764 1.3
      vertex -0.468452 -2.45572 1.3
      vertex -0.468452 2.45572 1.3
    endloop
  endfacet
  facet normal 0 0 1
    outer loop
      vertex -0.772542 2.37764 1.3
      vertex -0.772542 -2.37764 1.3
      vertex -0.468452 -2.45572 1.3
    endloop
  endfacet
  facet normal -0 0 1
    outer loop
      vertex -1.06445 2.26207 1.3
      vertex -0.772542 -2.37764 1.3
      vertex -0.772542 2.37764 1.3
    endloop
  endfacet
  facet normal 0 0 1
    outer loop
      vertex -1.06445 2.26207 1.3
      vertex -1.06445 -2.26207 1.3
      vertex -0.772542 -2.37764 1.3
    endloop
  endfacet
  facet normal -0 0 1
    outer loop
      vertex -1.33957 2.11082 1.3
      vertex -1.06445 -2.26207 1.3
      vertex -1.06445 2.26207 1.3
    endloop
  endfacet
  facet normal 0 0 1
    outer loop
      vertex -1.33957 2.11082 1.3
      vertex -1.33957 -2.11082 1.3
      vertex -1.06445 -2.26207 1.3
    endloop
  endfacet
  facet normal -0 0 1
    outer loop
      vertex -1.59356 1.92628 1.3
      vertex -1.33957 -2.11082 1.3
      vertex -1.33957 2.11082 1.3
    endloop
  endfacet
  facet normal 0 0 1
    outer loop
      vertex -1.59356 1.92628 1.3
      vertex -1.59356 -1.92628 1.3
      vertex -1.33957 -2.11082 1.3
    endloop
  endfacet
  facet normal -0 0 1
    outer loop
      vertex -1.82242 1.71137 1.3
      vertex -1.59356 -1.92628 1.3
      vertex -1.59356 1.92628 1.3
    endloop
  endfacet
  facet normal 0 0 1
    outer loop
      vertex -1.82242 1.71137 1.3
      vertex -1.82242 -1.71137 1.3
      vertex -1.59356 -1.92628 1.3
    endloop
  endfacet
  facet normal -0 0 1
    outer loop
      vertex -2.02254 1.46946 1.3
      vertex -1.82242 -1.71137 1.3
      vertex -1.82242 1.71137 1.3
    endloop
  endfacet
  facet normal 0 0 1
    outer loop
      vertex -2.02254 1.46946 1.3
      vertex -2.02254 -1.46946 1.3
      vertex -1.82242 -1.71137 1.3
    endloop
  endfacet
  facet normal -0 0 1
    outer loop
      vertex -2.19077 1.20438 1.3
      vertex -2.02254 -1.46946 1.3
      vertex -2.02254 1.46946 1.3
    endloop
  endfacet
  facet normal 0 0 1
    outer loop
      vertex -2.19077 1.20438 1.3
      vertex -2.19077 -1.20438 1.3
      vertex -2.02254 -1.46946 1.3
    endloop
  endfacet
  facet normal -0 0 1
    outer loop
      vertex -2.32444 0.920311 1.3
      vertex -2.19077 -1.20438 1.3
      vertex -2.19077 1.20438 1.3
    endloop
  endfacet
  facet normal 0 0 1
    outer loop
      vertex -2.32444 0.920311 1.3
      vertex -2.32444 -0.920311 1.3
      vertex -2.19077 -1.20438 1.3
    endloop
  endfacet
  facet normal -0 0 1
    outer loop
      vertex -2.42146 0.621724 1.3
      vertex -2.32444 -0.920311 1.3
      vertex -2.32444 0.920311 1.3
    endloop
  endfacet
  facet normal 0 0 1
    outer loop
      vertex -2.42146 0.621724 1.3
      vertex -2.42146 -0.621724 1.3
      vertex -2.32444 -0.920311 1.3
    endloop
  endfacet
  facet normal -0 0 1
    outer loop
      vertex -2.48029 0.313333 1.3
      vertex -2.42146 -0.621724 1.3
      vertex -2.42146 0.621724 1.3
    endloop
  endfacet
  facet normal 0 0 1
    outer loop
      vertex -2.48029 0.313333 1.3
      vertex -2.48029 -0.313333 1.3
      vertex -2.42146 -0.621724 1.3
    endloop
  endfacet
  facet normal 0 -0 1
    outer loop
      vertex -2.48029 -0.313333 1.3
      vertex -2.48029 0.313333 1.3
      vertex -2.5 0 1.3
    endloop
  endfacet
  facet normal -0.951054 0.309026 0
    outer loop
      vertex -2.42146 0.621724 0
      vertex -2.32444 0.920311 1.3
      vertex -2.32444 0.920311 0
    endloop
  endfacet
  facet normal -0.951054 0.309026 0
    outer loop
      vertex -2.32444 0.920311 1.3
      vertex -2.42146 0.621724 0
      vertex -2.42146 0.621724 1.3
    endloop
  endfacet
  facet normal -0.982287 0.187385 0
    outer loop
      vertex -2.48029 0.313333 0
      vertex -2.42146 0.621724 1.3
      vertex -2.42146 0.621724 0
    endloop
  endfacet
  facet normal -0.982287 0.187385 0
    outer loop
      vertex -2.42146 0.621724 1.3
      vertex -2.48029 0.313333 0
      vertex -2.48029 0.313333 1.3
    endloop
  endfacet
  facet normal -0.844321 0.535838 0
    outer loop
      vertex -2.19077 1.20438 0
      vertex -2.02254 1.46946 1.3
      vertex -2.02254 1.46946 0
    endloop
  endfacet
  facet normal -0.844321 0.535838 0
    outer loop
      vertex -2.02254 1.46946 1.3
      vertex -2.19077 1.20438 0
      vertex -2.19077 1.20438 1.3
    endloop
  endfacet
  facet normal -0.248699 0.968581 0
    outer loop
      vertex -0.468452 2.45572 0
      vertex -0.772542 2.37764 1.3
      vertex -0.468452 2.45572 1.3
    endloop
  endfacet
  facet normal -0.248699 0.968581 0
    outer loop
      vertex -0.772542 2.37764 1.3
      vertex -0.468452 2.45572 0
      vertex -0.772542 2.37764 0
    endloop
  endfacet
  facet normal -0.587797 0.809009 0
    outer loop
      vertex -1.33957 2.11082 0
      vertex -1.59356 1.92628 1.3
      vertex -1.33957 2.11082 1.3
    endloop
  endfacet
  facet normal -0.587797 0.809009 0
    outer loop
      vertex -1.59356 1.92628 1.3
      vertex -1.33957 2.11082 0
      vertex -1.59356 1.92628 0
    endloop
  endfacet
  facet normal -0.481757 0.876305 0
    outer loop
      vertex -1.06445 2.26207 0
      vertex -1.33957 2.11082 1.3
      vertex -1.06445 2.26207 1.3
    endloop
  endfacet
  facet normal -0.481757 0.876305 0
    outer loop
      vertex -1.33957 2.11082 1.3
      vertex -1.06445 2.26207 0
      vertex -1.33957 2.11082 0
    endloop
  endfacet
  facet normal 0.998027 0.0627802 0
    outer loop
      vertex 2.5 0 1.3
      vertex 2.48029 0.313333 0
      vertex 2.48029 0.313333 1.3
    endloop
  endfacet
  facet normal 0.998027 0.0627802 0
    outer loop
      vertex 2.48029 0.313333 0
      vertex 2.5 0 1.3
      vertex 2.5 0 0
    endloop
  endfacet
  facet normal 0.951054 -0.309026 0
    outer loop
      vertex 2.32444 -0.920311 1.3
      vertex 2.42146 -0.621724 0
      vertex 2.42146 -0.621724 1.3
    endloop
  endfacet
  facet normal 0.951054 -0.309026 0
    outer loop
      vertex 2.42146 -0.621724 0
      vertex 2.32444 -0.920311 1.3
      vertex 2.32444 -0.920311 0
    endloop
  endfacet
  facet normal 0 -1 0
    outer loop
      vertex -0.156976 -2.49507 0
      vertex 0.156976 -2.49507 1.3
      vertex -0.156976 -2.49507 1.3
    endloop
  endfacet
  facet normal 0 -1 -0
    outer loop
      vertex 0.156976 -2.49507 1.3
      vertex -0.156976 -2.49507 0
      vertex 0.156976 -2.49507 0
    endloop
  endfacet
  facet normal -0.844321 -0.535838 0
    outer loop
      vertex -2.02254 -1.46946 0
      vertex -2.19077 -1.20438 1.3
      vertex -2.19077 -1.20438 0
    endloop
  endfacet
  facet normal -0.844321 -0.535838 0
    outer loop
      vertex -2.19077 -1.20438 1.3
      vertex -2.02254 -1.46946 0
      vertex -2.02254 -1.46946 1.3
    endloop
  endfacet
  facet normal 0.125338 -0.992114 0
    outer loop
      vertex 0.156976 -2.49507 0
      vertex 0.468452 -2.45572 1.3
      vertex 0.156976 -2.49507 1.3
    endloop
  endfacet
  facet normal 0.125338 -0.992114 0
    outer loop
      vertex 0.468452 -2.45572 1.3
      vertex 0.156976 -2.49507 0
      vertex 0.468452 -2.45572 0
    endloop
  endfacet
  facet normal 0.982287 -0.187385 0
    outer loop
      vertex 2.42146 -0.621724 1.3
      vertex 2.48029 -0.313333 0
      vertex 2.48029 -0.313333 1.3
    endloop
  endfacet
  facet normal 0.982287 -0.187385 0
    outer loop
      vertex 2.48029 -0.313333 0
      vertex 2.42146 -0.621724 1.3
      vertex 2.42146 -0.621724 0
    endloop
  endfacet
  facet normal -0.481757 -0.876305 0
    outer loop
      vertex -1.33957 -2.11082 0
      vertex -1.06445 -2.26207 1.3
      vertex -1.33957 -2.11082 1.3
    endloop
  endfacet
  facet normal -0.481757 -0.876305 -0
    outer loop
      vertex -1.06445 -2.26207 1.3
      vertex -1.33957 -2.11082 0
      vertex -1.06445 -2.26207 0
    endloop
  endfacet
  facet normal -0.248699 -0.968581 0
    outer loop
      vertex -0.772542 -2.37764 0
      vertex -0.468452 -2.45572 1.3
      vertex -0.772542 -2.37764 1.3
    endloop
  endfacet
  facet normal -0.248699 -0.968581 -0
    outer loop
      vertex -0.468452 -2.45572 1.3
      vertex -0.772542 -2.37764 0
      vertex -0.468452 -2.45572 0
    endloop
  endfacet
  facet normal -0.951054 -0.309026 0
    outer loop
      vertex -2.32444 -0.920311 0
      vertex -2.42146 -0.621724 1.3
      vertex -2.42146 -0.621724 0
    endloop
  endfacet
  facet normal -0.951054 -0.309026 0
    outer loop
      vertex -2.42146 -0.621724 1.3
      vertex -2.32444 -0.920311 0
      vertex -2.32444 -0.920311 1.3
    endloop
  endfacet
  facet normal -0.982287 -0.187385 0
    outer loop
      vertex -2.42146 -0.621724 0
      vertex -2.48029 -0.313333 1.3
      vertex -2.48029 -0.313333 0
    endloop
  endfacet
  facet normal -0.982287 -0.187385 0
    outer loop
      vertex -2.48029 -0.313333 1.3
      vertex -2.42146 -0.621724 0
      vertex -2.42146 -0.621724 1.3
    endloop
  endfacet
  facet normal -0.998027 -0.0627802 0
    outer loop
      vertex -2.48029 -0.313333 0
      vertex -2.5 0 1.3
      vertex -2.5 0 0
    endloop
  endfacet
  facet normal -0.998027 -0.0627802 0
    outer loop
      vertex -2.5 0 1.3
      vertex -2.48029 -0.313333 0
      vertex -2.48029 -0.313333 1.3
    endloop
  endfacet
  facet normal -0.770522 -0.637414 0
    outer loop
      vertex -1.82242 -1.71137 0
      vertex -2.02254 -1.46946 1.3
      vertex -2.02254 -1.46946 0
    endloop
  endfacet
  facet normal -0.770522 -0.637414 0
    outer loop
      vertex -2.02254 -1.46946 1.3
      vertex -1.82242 -1.71137 0
      vertex -1.82242 -1.71137 1.3
    endloop
  endfacet
  facet normal 0.368112 -0.929781 0
    outer loop
      vertex 0.772542 -2.37764 0
      vertex 1.06445 -2.26207 1.3
      vertex 0.772542 -2.37764 1.3
    endloop
  endfacet
  facet normal 0.368112 -0.929781 0
    outer loop
      vertex 1.06445 -2.26207 1.3
      vertex 0.772542 -2.37764 0
      vertex 1.06445 -2.26207 0
    endloop
  endfacet
  facet normal 0.248699 -0.968581 0
    outer loop
      vertex 0.468452 -2.45572 0
      vertex 0.772542 -2.37764 1.3
      vertex 0.468452 -2.45572 1.3
    endloop
  endfacet
  facet normal 0.248699 -0.968581 0
    outer loop
      vertex 0.772542 -2.37764 1.3
      vertex 0.468452 -2.45572 0
      vertex 0.772542 -2.37764 0
    endloop
  endfacet
  facet normal 0.684541 -0.728975 0
    outer loop
      vertex 1.59356 -1.92628 0
      vertex 1.82242 -1.71137 1.3
      vertex 1.59356 -1.92628 1.3
    endloop
  endfacet
  facet normal 0.684541 -0.728975 0
    outer loop
      vertex 1.82242 -1.71137 1.3
      vertex 1.59356 -1.92628 0
      vertex 1.82242 -1.71137 0
    endloop
  endfacet
  facet normal 0.844321 -0.535838 0
    outer loop
      vertex 2.02254 -1.46946 1.3
      vertex 2.19077 -1.20438 0
      vertex 2.19077 -1.20438 1.3
    endloop
  endfacet
  facet normal 0.844321 -0.535838 0
    outer loop
      vertex 2.19077 -1.20438 0
      vertex 2.02254 -1.46946 1.3
      vertex 2.02254 -1.46946 0
    endloop
  endfacet
  facet normal 0.770522 -0.637414 0
    outer loop
      vertex 1.82242 -1.71137 1.3
      vertex 2.02254 -1.46946 0
      vertex 2.02254 -1.46946 1.3
    endloop
  endfacet
  facet normal 0.770522 -0.637414 0
    outer loop
      vertex 2.02254 -1.46946 0
      vertex 1.82242 -1.71137 1.3
      vertex 1.82242 -1.71137 0
    endloop
  endfacet
  facet normal -0.125338 -0.992114 0
    outer loop
      vertex -0.468452 -2.45572 0
      vertex -0.156976 -2.49507 1.3
      vertex -0.468452 -2.45572 1.3
    endloop
  endfacet
  facet normal -0.125338 -0.992114 -0
    outer loop
      vertex -0.156976 -2.49507 1.3
      vertex -0.468452 -2.45572 0
      vertex -0.156976 -2.49507 0
    endloop
  endfacet
  facet normal 0.587797 -0.809009 0
    outer loop
      vertex 1.33957 -2.11082 0
      vertex 1.59356 -1.92628 1.3
      vertex 1.33957 -2.11082 1.3
    endloop
  endfacet
  facet normal 0.587797 -0.809009 0
    outer loop
      vertex 1.59356 -1.92628 1.3
      vertex 1.33957 -2.11082 0
      vertex 1.59356 -1.92628 0
    endloop
  endfacet
  facet normal -0.587797 -0.809009 0
    outer loop
      vertex -1.59356 -1.92628 0
      vertex -1.33957 -2.11082 1.3
      vertex -1.59356 -1.92628 1.3
    endloop
  endfacet
  facet normal -0.587797 -0.809009 -0
    outer loop
      vertex -1.33957 -2.11082 1.3
      vertex -1.59356 -1.92628 0
      vertex -1.33957 -2.11082 0
    endloop
  endfacet
  facet normal -0.368112 -0.929781 0
    outer loop
      vertex -1.06445 -2.26207 0
      vertex -0.772542 -2.37764 1.3
      vertex -1.06445 -2.26207 1.3
    endloop
  endfacet
  facet normal -0.368112 -0.929781 -0
    outer loop
      vertex -0.772542 -2.37764 1.3
      vertex -1.06445 -2.26207 0
      vertex -0.772542 -2.37764 0
    endloop
  endfacet
endsolid OpenSCAD_Model
