<?xml version="1.0" standalone="no"?>
<!DOCTYPE svg PUBLIC "-//W3C//DTD SVG 1.1//EN" "http://www.w3.org/Graphics/SVG/1.1/DTD/svg11.dtd">
<svg width="196mm" height="412mm" viewBox="-98 -710 196 412" xmlns="http://www.w3.org/2000/svg" version="1.1">
<title>OpenSCAD Model</title>
<path d="
M 93.4369,-634.589 L 94.0451,-634.745 L 94.6289,-634.976 L 95.1791,-635.278 L 95.6871,-635.647 L 96.1448,-636.077
 L 96.5451,-636.561 L 96.8815,-637.091 L 97.1489,-637.659 L 97.3429,-638.257 L 97.4606,-638.873 L 97.5,-639.5
 L 97.5,-704.5 L 97.4606,-705.127 L 97.3429,-705.743 L 97.1489,-706.341 L 96.8815,-706.909 L 96.5451,-707.439
 L 96.1448,-707.923 L 95.6871,-708.353 L 95.1791,-708.722 L 94.6289,-709.024 L 94.0451,-709.255 L 93.4369,-709.411
 L 92.8139,-709.49 L -92.8139,-709.49 L -93.4369,-709.411 L -94.0451,-709.255 L -94.6289,-709.024 L -95.1791,-708.722
 L -95.6871,-708.353 L -96.1448,-707.923 L -96.5451,-707.439 L -96.8815,-706.909 L -97.1489,-706.341 L -97.3429,-705.743
 L -97.4606,-705.127 L -97.5,-704.5 L -97.5,-639.5 L -97.4606,-638.873 L -97.3429,-638.257 L -97.1489,-637.659
 L -96.8815,-637.091 L -96.5451,-636.561 L -96.1448,-636.077 L -95.6871,-635.647 L -95.1791,-635.278 L -94.6289,-634.976
 L -94.0451,-634.745 L -93.4369,-634.589 L -92.8139,-634.51 L 92.8139,-634.51 z
M -92.5482,-635.009 L -93.1401,-635.084 L -93.7178,-635.232 L -94.2724,-635.452 L -94.7952,-635.739 L -95.2778,-636.09
 L -95.7126,-636.498 L -96.0928,-636.958 L -96.4125,-637.462 L -96.6664,-638.001 L -96.8508,-638.569 L -96.9625,-639.155
 L -97,-639.75 L -97,-704.25 L -96.9625,-704.845 L -96.8508,-705.431 L -96.6664,-705.999 L -96.4125,-706.538
 L -96.0928,-707.042 L -95.7126,-707.502 L -95.2778,-707.91 L -94.7952,-708.261 L -94.2724,-708.548 L -93.7178,-708.768
 L -93.1401,-708.916 L -92.5482,-708.991 L 92.5482,-708.991 L 93.1401,-708.916 L 93.7178,-708.768 L 94.2724,-708.548
 L 94.7952,-708.261 L 95.2778,-707.91 L 95.7126,-707.502 L 96.0928,-707.042 L 96.4125,-706.538 L 96.6664,-705.999
 L 96.8508,-705.431 L 96.9625,-704.845 L 97,-704.25 L 97,-639.75 L 96.9625,-639.155 L 96.8508,-638.569
 L 96.6664,-638.001 L 96.4125,-637.462 L 96.0928,-636.958 L 95.7126,-636.498 L 95.2778,-636.09 L 94.7952,-635.739
 L 94.2724,-635.452 L 93.7178,-635.232 L 93.1401,-635.084 L 92.5482,-635.009 z
M 93.4369,-550.589 L 94.0451,-550.745 L 94.6289,-550.976 L 95.1791,-551.278 L 95.6871,-551.647 L 96.1448,-552.077
 L 96.5451,-552.561 L 96.8815,-553.091 L 97.1489,-553.659 L 97.3429,-554.257 L 97.4606,-554.873 L 97.5,-555.5
 L 97.5,-620.5 L 97.4606,-621.127 L 97.3429,-621.743 L 97.1489,-622.341 L 96.8815,-622.909 L 96.5451,-623.439
 L 96.1448,-623.923 L 95.6871,-624.353 L 95.1791,-624.722 L 94.6289,-625.024 L 94.0451,-625.255 L 93.4369,-625.411
 L 92.8139,-625.49 L -92.8139,-625.49 L -93.4369,-625.411 L -94.0451,-625.255 L -94.6289,-625.024 L -95.1791,-624.722
 L -95.6871,-624.353 L -96.1448,-623.923 L -96.5451,-623.439 L -96.8815,-622.909 L -97.1489,-622.341 L -97.3429,-621.743
 L -97.4606,-621.127 L -97.5,-620.5 L -97.5,-555.5 L -97.4606,-554.873 L -97.3429,-554.257 L -97.1489,-553.659
 L -96.8815,-553.091 L -96.5451,-552.561 L -96.1448,-552.077 L -95.6871,-551.647 L -95.1791,-551.278 L -94.6289,-550.976
 L -94.0451,-550.745 L -93.4369,-550.589 L -92.8139,-550.51 L 92.8139,-550.51 z
M -92.5482,-551.009 L -93.1401,-551.084 L -93.7178,-551.232 L -94.2724,-551.452 L -94.7952,-551.739 L -95.2778,-552.09
 L -95.7126,-552.498 L -96.0928,-552.958 L -96.4125,-553.462 L -96.6664,-554.001 L -96.8508,-554.569 L -96.9625,-555.155
 L -97,-555.75 L -97,-620.25 L -96.9625,-620.845 L -96.8508,-621.431 L -96.6664,-621.999 L -96.4125,-622.538
 L -96.0928,-623.042 L -95.7126,-623.502 L -95.2778,-623.91 L -94.7952,-624.261 L -94.2724,-624.548 L -93.7178,-624.768
 L -93.1401,-624.916 L -92.5482,-624.991 L 92.5482,-624.991 L 93.1401,-624.916 L 93.7178,-624.768 L 94.2724,-624.548
 L 94.7952,-624.261 L 95.2778,-623.91 L 95.7126,-623.502 L 96.0928,-623.042 L 96.4125,-622.538 L 96.6664,-621.999
 L 96.8508,-621.431 L 96.9625,-620.845 L 97,-620.25 L 97,-555.75 L 96.9625,-555.155 L 96.8508,-554.569
 L 96.6664,-554.001 L 96.4125,-553.462 L 96.0928,-552.958 L 95.7126,-552.498 L 95.2778,-552.09 L 94.7952,-551.739
 L 94.2724,-551.452 L 93.7178,-551.232 L 93.1401,-551.084 L 92.5482,-551.009 z
M 93.4369,-466.589 L 94.0451,-466.745 L 94.6289,-466.976 L 95.1791,-467.278 L 95.6871,-467.647 L 96.1448,-468.077
 L 96.5451,-468.561 L 96.8815,-469.091 L 97.1489,-469.659 L 97.3429,-470.257 L 97.4606,-470.873 L 97.5,-471.5
 L 97.5,-536.5 L 97.4606,-537.127 L 97.3429,-537.743 L 97.1489,-538.341 L 96.8815,-538.909 L 96.5451,-539.439
 L 96.1448,-539.923 L 95.6871,-540.353 L 95.1791,-540.722 L 94.6289,-541.024 L 94.0451,-541.255 L 93.4369,-541.411
 L 92.8139,-541.49 L -92.8139,-541.49 L -93.4369,-541.411 L -94.0451,-541.255 L -94.6289,-541.024 L -95.1791,-540.722
 L -95.6871,-540.353 L -96.1448,-539.923 L -96.5451,-539.439 L -96.8815,-538.909 L -97.1489,-538.341 L -97.3429,-537.743
 L -97.4606,-537.127 L -97.5,-536.5 L -97.5,-471.5 L -97.4606,-470.873 L -97.3429,-470.257 L -97.1489,-469.659
 L -96.8815,-469.091 L -96.5451,-468.561 L -96.1448,-468.077 L -95.6871,-467.647 L -95.1791,-467.278 L -94.6289,-466.976
 L -94.0451,-466.745 L -93.4369,-466.589 L -92.8139,-466.51 L 92.8139,-466.51 z
M -92.5482,-467.009 L -93.1401,-467.084 L -93.7178,-467.232 L -94.2724,-467.452 L -94.7952,-467.739 L -95.2778,-468.09
 L -95.7126,-468.498 L -96.0928,-468.958 L -96.4125,-469.462 L -96.6664,-470.001 L -96.8508,-470.569 L -96.9625,-471.155
 L -97,-471.75 L -97,-536.25 L -96.9625,-536.845 L -96.8508,-537.431 L -96.6664,-537.999 L -96.4125,-538.538
 L -96.0928,-539.042 L -95.7126,-539.502 L -95.2778,-539.91 L -94.7952,-540.261 L -94.2724,-540.548 L -93.7178,-540.768
 L -93.1401,-540.916 L -92.5482,-540.991 L 92.5482,-540.991 L 93.1401,-540.916 L 93.7178,-540.768 L 94.2724,-540.548
 L 94.7952,-540.261 L 95.2778,-539.91 L 95.7126,-539.502 L 96.0928,-539.042 L 96.4125,-538.538 L 96.6664,-537.999
 L 96.8508,-537.431 L 96.9625,-536.845 L 97,-536.25 L 97,-471.75 L 96.9625,-471.155 L 96.8508,-470.569
 L 96.6664,-470.001 L 96.4125,-469.462 L 96.0928,-468.958 L 95.7126,-468.498 L 95.2778,-468.09 L 94.7952,-467.739
 L 94.2724,-467.452 L 93.7178,-467.232 L 93.1401,-467.084 L 92.5482,-467.009 z
M 93.4369,-382.589 L 94.0451,-382.745 L 94.6289,-382.976 L 95.1791,-383.278 L 95.6871,-383.647 L 96.1448,-384.077
 L 96.5451,-384.561 L 96.8815,-385.091 L 97.1489,-385.659 L 97.3429,-386.257 L 97.4606,-386.873 L 97.5,-387.5
 L 97.5,-452.5 L 97.4606,-453.127 L 97.3429,-453.743 L 97.1489,-454.341 L 96.8815,-454.909 L 96.5451,-455.439
 L 96.1448,-455.923 L 95.6871,-456.353 L 95.1791,-456.722 L 94.6289,-457.024 L 94.0451,-457.255 L 93.4369,-457.411
 L 92.8139,-457.49 L -92.8139,-457.49 L -93.4369,-457.411 L -94.0451,-457.255 L -94.6289,-457.024 L -95.1791,-456.722
 L -95.6871,-456.353 L -96.1448,-455.923 L -96.5451,-455.439 L -96.8815,-454.909 L -97.1489,-454.341 L -97.3429,-453.743
 L -97.4606,-453.127 L -97.5,-452.5 L -97.5,-387.5 L -97.4606,-386.873 L -97.3429,-386.257 L -97.1489,-385.659
 L -96.8815,-385.091 L -96.5451,-384.561 L -96.1448,-384.077 L -95.6871,-383.647 L -95.1791,-383.278 L -94.6289,-382.976
 L -94.0451,-382.745 L -93.4369,-382.589 L -92.8139,-382.51 L 92.8139,-382.51 z
M -92.493,-383.888 L -92.9751,-383.949 L -93.4457,-384.07 L -93.8975,-384.249 L -94.3234,-384.483 L -94.7165,-384.769
 L -95.0707,-385.101 L -95.3805,-385.476 L -95.6408,-385.886 L -95.8477,-386.326 L -95.9979,-386.788 L -96.089,-387.265
 L -96.1195,-387.75 L -96.1195,-452.25 L -96.089,-452.735 L -95.9979,-453.212 L -95.8477,-453.674 L -95.6408,-454.114
 L -95.3805,-454.524 L -95.0707,-454.899 L -94.7165,-455.231 L -94.3234,-455.517 L -93.8975,-455.751 L -93.4457,-455.93
 L -92.9751,-456.051 L -92.493,-456.112 L 92.493,-456.112 L 92.9751,-456.051 L 93.4457,-455.93 L 93.8975,-455.751
 L 94.3234,-455.517 L 94.7165,-455.231 L 95.0707,-454.899 L 95.3805,-454.524 L 95.6408,-454.114 L 95.8477,-453.674
 L 95.9979,-453.212 L 96.089,-452.735 L 96.1195,-452.25 L 96.1195,-387.75 L 96.089,-387.265 L 95.9979,-386.788
 L 95.8477,-386.326 L 95.6408,-385.886 L 95.3805,-385.476 L 95.0707,-385.101 L 94.7165,-384.769 L 94.3234,-384.483
 L 93.8975,-384.249 L 93.4457,-384.07 L 92.9751,-383.949 L 92.493,-383.888 z
M 93.4369,-298.589 L 94.0451,-298.745 L 94.6289,-298.976 L 95.1791,-299.278 L 95.6871,-299.647 L 96.1448,-300.077
 L 96.5451,-300.561 L 96.8815,-301.091 L 97.1489,-301.659 L 97.3429,-302.257 L 97.4606,-302.873 L 97.5,-303.5
 L 97.5,-368.5 L 97.4606,-369.127 L 97.3429,-369.743 L 97.1489,-370.341 L 96.8815,-370.909 L 96.5451,-371.439
 L 96.1448,-371.923 L 95.6871,-372.353 L 95.1791,-372.722 L 94.6289,-373.024 L 94.0451,-373.255 L 93.4369,-373.411
 L 92.8139,-373.49 L -92.8139,-373.49 L -93.4369,-373.411 L -94.0451,-373.255 L -94.6289,-373.024 L -95.1791,-372.722
 L -95.6871,-372.353 L -96.1448,-371.923 L -96.5451,-371.439 L -96.8815,-370.909 L -97.1489,-370.341 L -97.3429,-369.743
 L -97.4606,-369.127 L -97.5,-368.5 L -97.5,-303.5 L -97.4606,-302.873 L -97.3429,-302.257 L -97.1489,-301.659
 L -96.8815,-301.091 L -96.5451,-300.561 L -96.1448,-300.077 L -95.6871,-299.647 L -95.1791,-299.278 L -94.6289,-298.976
 L -94.0451,-298.745 L -93.4369,-298.589 L -92.8139,-298.51 L 92.8139,-298.51 z
M -90.113,-364.204 L -90.3373,-364.232 L -90.5562,-364.288 L -90.7664,-364.371 L -90.9645,-364.48 L -91.1474,-364.613
 L -91.3121,-364.768 L -91.4562,-364.942 L -91.5773,-365.133 L -91.6736,-365.337 L -91.7434,-365.552 L -91.7858,-365.774
 L -91.8,-366 L -91.7858,-366.226 L -91.7434,-366.448 L -91.6736,-366.663 L -91.5773,-366.867 L -91.4562,-367.058
 L -91.3121,-367.232 L -91.1474,-367.387 L -90.9645,-367.52 L -90.7664,-367.629 L -90.5562,-367.712 L -90.3373,-367.768
 L -90.113,-367.796 L -89.887,-367.796 L -89.6627,-367.768 L -89.4438,-367.712 L -89.2336,-367.629 L -89.0355,-367.52
 L -88.8526,-367.387 L -88.6879,-367.232 L -88.5438,-367.058 L -88.4226,-366.867 L -88.3264,-366.663 L -88.2565,-366.448
 L -88.2142,-366.226 L -88.2,-366 L -88.2142,-365.774 L -88.2565,-365.552 L -88.3264,-365.337 L -88.4226,-365.133
 L -88.5438,-364.942 L -88.6879,-364.768 L -88.8526,-364.613 L -89.0355,-364.48 L -89.2336,-364.371 L -89.4438,-364.288
 L -89.6627,-364.232 L -89.887,-364.204 z
M 89.887,-364.204 L 89.6627,-364.232 L 89.4438,-364.288 L 89.2336,-364.371 L 89.0355,-364.48 L 88.8526,-364.613
 L 88.6879,-364.768 L 88.5438,-364.942 L 88.4226,-365.133 L 88.3264,-365.337 L 88.2565,-365.552 L 88.2142,-365.774
 L 88.2,-366 L 88.2142,-366.226 L 88.2565,-366.448 L 88.3264,-366.663 L 88.4226,-366.867 L 88.5438,-367.058
 L 88.6879,-367.232 L 88.8526,-367.387 L 89.0355,-367.52 L 89.2336,-367.629 L 89.4438,-367.712 L 89.6627,-367.768
 L 89.887,-367.796 L 90.113,-367.796 L 90.3373,-367.768 L 90.5562,-367.712 L 90.7664,-367.629 L 90.9645,-367.52
 L 91.1474,-367.387 L 91.3121,-367.232 L 91.4562,-367.058 L 91.5773,-366.867 L 91.6736,-366.663 L 91.7434,-366.448
 L 91.7858,-366.226 L 91.8,-366 L 91.7858,-365.774 L 91.7434,-365.552 L 91.6736,-365.337 L 91.5773,-365.133
 L 91.4562,-364.942 L 91.3121,-364.768 L 91.1474,-364.613 L 90.9645,-364.48 L 90.7664,-364.371 L 90.5562,-364.288
 L 90.3373,-364.232 L 90.113,-364.204 z
M 89.887,-304.204 L 89.6627,-304.232 L 89.4438,-304.288 L 89.2336,-304.371 L 89.0355,-304.48 L 88.8526,-304.613
 L 88.6879,-304.768 L 88.5438,-304.942 L 88.4226,-305.133 L 88.3264,-305.337 L 88.2565,-305.552 L 88.2142,-305.774
 L 88.2,-306 L 88.2142,-306.226 L 88.2565,-306.448 L 88.3264,-306.663 L 88.4226,-306.867 L 88.5438,-307.058
 L 88.6879,-307.232 L 88.8526,-307.387 L 89.0355,-307.52 L 89.2336,-307.629 L 89.4438,-307.712 L 89.6627,-307.768
 L 89.887,-307.796 L 90.113,-307.796 L 90.3373,-307.768 L 90.5562,-307.712 L 90.7664,-307.629 L 90.9645,-307.52
 L 91.1474,-307.387 L 91.3121,-307.232 L 91.4562,-307.058 L 91.5773,-306.867 L 91.6736,-306.663 L 91.7434,-306.448
 L 91.7858,-306.226 L 91.8,-306 L 91.7858,-305.774 L 91.7434,-305.552 L 91.6736,-305.337 L 91.5773,-305.133
 L 91.4562,-304.942 L 91.3121,-304.768 L 91.1474,-304.613 L 90.9645,-304.48 L 90.7664,-304.371 L 90.5562,-304.288
 L 90.3373,-304.232 L 90.113,-304.204 z
M -90.113,-304.204 L -90.3373,-304.232 L -90.5562,-304.288 L -90.7664,-304.371 L -90.9645,-304.48 L -91.1474,-304.613
 L -91.3121,-304.768 L -91.4562,-304.942 L -91.5773,-305.133 L -91.6736,-305.337 L -91.7434,-305.552 L -91.7858,-305.774
 L -91.8,-306 L -91.7858,-306.226 L -91.7434,-306.448 L -91.6736,-306.663 L -91.5773,-306.867 L -91.4562,-307.058
 L -91.3121,-307.232 L -91.1474,-307.387 L -90.9645,-307.52 L -90.7664,-307.629 L -90.5562,-307.712 L -90.3373,-307.768
 L -90.113,-307.796 L -89.887,-307.796 L -89.6627,-307.768 L -89.4438,-307.712 L -89.2336,-307.629 L -89.0355,-307.52
 L -88.8526,-307.387 L -88.6879,-307.232 L -88.5438,-307.058 L -88.4226,-306.867 L -88.3264,-306.663 L -88.2565,-306.448
 L -88.2142,-306.226 L -88.2,-306 L -88.2142,-305.774 L -88.2565,-305.552 L -88.3264,-305.337 L -88.4226,-305.133
 L -88.5438,-304.942 L -88.6879,-304.768 L -88.8526,-304.613 L -89.0355,-304.48 L -89.2336,-304.371 L -89.4438,-304.288
 L -89.6627,-304.232 L -89.887,-304.204 z
" stroke="black" fill="lightgray" stroke-width="0.5"/>
</svg>
