<?xml version="1.0" standalone="no"?>
<!DOCTYPE svg PUBLIC "-//W3C//DTD SVG 1.1//EN" "http://www.w3.org/Graphics/SVG/1.1/DTD/svg11.dtd">
<svg width="44mm" height="29mm" viewBox="-22 -7 44 29" xmlns="http://www.w3.org/2000/svg" version="1.1">
<title>OpenSCAD Model</title>
<path d="
M 2.31265,21.9544 L 3.04391,21.874 L 3.72522,21.7399 L 4.35655,21.5521 L 4.93794,21.3107 L 5.46936,21.0157
 L 5.95084,20.667 L 6.37471,20.2708 L 6.73338,19.8329 L 7.02684,19.3536 L 7.25508,18.8327 L 7.41812,18.2702
 L 7.51595,17.6663 L 7.54854,17.0207 L 7.52501,16.5269 L 7.45439,16.0615 L 7.33672,15.6245 L 7.17195,15.2159
 L 6.96013,14.8357 L 6.70122,14.4839 L 6.39525,14.1605 L 6.04436,13.8686 L 5.6506,13.6115 L 5.21399,13.389
 L 4.73451,13.2012 L 4.21216,13.0482 L 3.64696,12.9299 L 3.03889,12.8462 L 3.52458,12.7264 L 3.97293,12.5806
 L 4.38393,12.4088 L 4.75758,12.2109 L 5.09389,11.987 L 5.39284,11.7371 L 5.65443,11.4611 L 5.88007,11.1626
 L 6.07098,10.8448 L 6.22717,10.5078 L 6.34868,10.1517 L 6.43546,9.77629 L 6.48752,9.38173 L 6.50487,8.96796
 L 6.4753,8.38435 L 6.38655,7.841 L 6.23863,7.33788 L 6.08308,6.99013 L 17.3139,6.99013 L 17.9369,6.91142
 L 18.5451,6.75528 L 19.1289,6.52412 L 19.6791,6.22163 L 20.1871,5.85255 L 20.6448,5.42273 L 21.0451,4.93892
 L 21.3815,4.40877 L 21.6489,3.84062 L 21.8429,3.24344 L 21.9606,2.62666 L 22,2 L 22,-2
 L 21.9606,-2.62666 L 21.8429,-3.24344 L 21.6489,-3.84062 L 21.3815,-4.40877 L 21.0451,-4.93892 L 20.6448,-5.42273
 L 20.1871,-5.85255 L 19.6791,-6.22163 L 19.1289,-6.52412 L 18.5451,-6.75528 L 17.9369,-6.91142 L 17.3139,-6.99013
 L -17.3139,-6.99013 L -17.9369,-6.91142 L -18.5451,-6.75528 L -19.1289,-6.52412 L -19.6791,-6.22163 L -20.1871,-5.85255
 L -20.6448,-5.42273 L -21.0451,-4.93892 L -21.3815,-4.40877 L -21.6489,-3.84062 L -21.8429,-3.24344 L -21.9606,-2.62666
 L -22,-2 L -22,2 L -21.9606,2.62666 L -21.8429,3.24344 L -21.6489,3.84062 L -21.3815,4.40877
 L -21.0451,4.93892 L -20.6448,5.42273 L -20.1871,5.85255 L -19.6791,6.22163 L -19.1289,6.52412 L -18.5451,6.75528
 L -17.9369,6.91142 L -17.3139,6.99013 L -5.96729,6.99013 L -5.96729,21.9812 L 1.53143,21.9812 z
M -15.1884,2.99408 L -15.5621,2.94685 L -15.927,2.85316 L -16.2773,2.71448 L -16.6075,2.53297 L -16.9123,2.31154
 L -17.1869,2.05363 L -17.427,1.76335 L -17.6289,1.44525 L -17.7893,1.10437 L -17.9057,0.746063 L -17.9763,0.375992
 L -18,-0 L -17.9763,-0.375992 L -17.9057,-0.746063 L -17.7893,-1.10437 L -17.6289,-1.44525 L -17.427,-1.76335
 L -17.1869,-2.05363 L -16.9123,-2.31154 L -16.6075,-2.53297 L -16.2773,-2.71448 L -15.927,-2.85316 L -15.5621,-2.94685
 L -15.1884,-2.99408 L -14.8116,-2.99408 L -14.4379,-2.94685 L -14.0729,-2.85316 L -13.7227,-2.71448 L -13.3925,-2.53297
 L -13.0877,-2.31154 L -12.8131,-2.05363 L -12.5729,-1.76335 L -12.3711,-1.44525 L -12.2107,-1.10437 L -12.0942,-0.746063
 L -12.0237,-0.375992 L -12,-0 L -12.0237,0.375992 L -12.0942,0.746063 L -12.2107,1.10437 L -12.3711,1.44525
 L -12.5729,1.76335 L -12.8131,2.05363 L -13.0877,2.31154 L -13.3925,2.53297 L -13.7227,2.71448 L -14.0729,2.85316
 L -14.4379,2.94685 L -14.8116,2.99408 z
M 14.8116,2.99408 L 14.4379,2.94685 L 14.0729,2.85316 L 13.7227,2.71448 L 13.3925,2.53297 L 13.0877,2.31154
 L 12.8131,2.05363 L 12.5729,1.76335 L 12.3711,1.44525 L 12.2107,1.10437 L 12.0942,0.746063 L 12.0237,0.375992
 L 12,-0 L 12.0237,-0.375992 L 12.0942,-0.746063 L 12.2107,-1.10437 L 12.3711,-1.44525 L 12.5729,-1.76335
 L 12.8131,-2.05363 L 13.0877,-2.31154 L 13.3925,-2.53297 L 13.7227,-2.71448 L 14.0729,-2.85316 L 14.4379,-2.94685
 L 14.8116,-2.99408 L 15.1884,-2.99408 L 15.5621,-2.94685 L 15.927,-2.85316 L 16.2773,-2.71448 L 16.6075,-2.53297
 L 16.9123,-2.31154 L 17.1869,-2.05363 L 17.427,-1.76335 L 17.6289,-1.44525 L 17.7893,-1.10437 L 17.9057,-0.746063
 L 17.9763,-0.375992 L 18,-0 L 17.9763,0.375992 L 17.9057,0.746063 L 17.7893,1.10437 L 17.6289,1.44525
 L 17.427,1.76335 L 17.1869,2.05363 L 16.9123,2.31154 L 16.6075,2.53297 L 16.2773,2.71448 L 15.927,2.85316
 L 15.5621,2.94685 L 15.1884,2.99408 z
M -0.18837,2.99408 L -0.562134,2.94685 L -0.927048,2.85316 L -1.27733,2.71448 L -1.60747,2.53297 L -1.91226,2.31154
 L -2.1869,2.05363 L -2.42705,1.76335 L -2.62891,1.44525 L -2.78932,1.10437 L -2.90575,0.746063 L -2.97633,0.375992
 L -3,-0 L -2.97633,-0.375992 L -2.90575,-0.746063 L -2.78932,-1.10437 L -2.62891,-1.44525 L -2.42705,-1.76335
 L -2.1869,-2.05363 L -1.91226,-2.31154 L -1.60747,-2.53297 L -1.27733,-2.71448 L -0.927048,-2.85316 L -0.562134,-2.94685
 L -0.18837,-2.99408 L 0.18837,-2.99408 L 0.562134,-2.94685 L 0.927048,-2.85316 L 1.27733,-2.71448 L 1.60747,-2.53297
 L 1.91226,-2.31154 L 2.1869,-2.05363 L 2.42705,-1.76335 L 2.62891,-1.44525 L 2.78932,-1.10437 L 2.90575,-0.746063
 L 2.97633,-0.375992 L 3,-0 L 2.97633,0.375992 L 2.90575,0.746063 L 2.78932,1.10437 L 2.62891,1.44525
 L 2.42705,1.76335 L 2.1869,2.05363 L 1.91226,2.31154 L 1.60747,2.53297 L 1.27733,2.71448 L 0.927048,2.85316
 L 0.562134,2.94685 L 0.18837,2.99408 z
M -7.59418,1.49704 L -7.78107,1.47342 L -7.96352,1.42657 L -8.13866,1.35724 L -8.30373,1.26648 L -8.45613,1.15576
 L -8.59344,1.02681 L -8.71352,0.881668 L -8.81445,0.722626 L -8.89465,0.552185 L -8.95287,0.373032 L -8.98816,0.187988
 L -9,-0 L -8.98816,-0.187988 L -8.95287,-0.373032 L -8.89465,-0.552185 L -8.81445,-0.722626 L -8.71352,-0.881668
 L -8.59344,-1.02681 L -8.45613,-1.15576 L -8.30373,-1.26648 L -8.13866,-1.35724 L -7.96352,-1.42657 L -7.78107,-1.47342
 L -7.59418,-1.49704 L -7.40581,-1.49704 L -7.21892,-1.47342 L -7.03647,-1.42657 L -6.86133,-1.35724 L -6.69626,-1.26648
 L -6.54385,-1.15576 L -6.40654,-1.02681 L -6.28647,-0.881668 L -6.18553,-0.722626 L -6.10533,-0.552185 L -6.04712,-0.373032
 L -6.01183,-0.187988 L -6,-0 L -6.01183,0.187988 L -6.04712,0.373032 L -6.10533,0.552185 L -6.18553,0.722626
 L -6.28647,0.881668 L -6.40654,1.02681 L -6.54385,1.15576 L -6.69626,1.26648 L -6.86133,1.35724 L -7.03647,1.42657
 L -7.21892,1.47342 L -7.40581,1.49704 z
M 7.40581,1.49704 L 7.21892,1.47342 L 7.03647,1.42657 L 6.86133,1.35724 L 6.69626,1.26648 L 6.54385,1.15576
 L 6.40654,1.02681 L 6.28647,0.881668 L 6.18553,0.722626 L 6.10533,0.552185 L 6.04712,0.373032 L 6.01183,0.187988
 L 6,-0 L 6.01183,-0.187988 L 6.04712,-0.373032 L 6.10533,-0.552185 L 6.18553,-0.722626 L 6.28647,-0.881668
 L 6.40654,-1.02681 L 6.54385,-1.15576 L 6.69626,-1.26648 L 6.86133,-1.35724 L 7.03647,-1.42657 L 7.21892,-1.47342
 L 7.40581,-1.49704 L 7.59418,-1.49704 L 7.78107,-1.47342 L 7.96352,-1.42657 L 8.13866,-1.35724 L 8.30373,-1.26648
 L 8.45613,-1.15576 L 8.59344,-1.02681 L 8.71352,-0.881668 L 8.81445,-0.722626 L 8.89465,-0.552185 L 8.95287,-0.373032
 L 8.98816,-0.187988 L 9,-0 L 8.98816,0.187988 L 8.95287,0.373032 L 8.89465,0.552185 L 8.81445,0.722626
 L 8.71352,0.881668 L 8.59344,1.02681 L 8.45613,1.15576 L 8.30373,1.26648 L 8.13866,1.35724 L 7.96352,1.42657
 L 7.78107,1.47342 L 7.59418,1.49704 z
M -2.16634,11.532 L -2.16634,7.42192 L 0.52652,7.42192 L 1.0974,7.46399 L 1.58044,7.59021 L 1.97566,7.80057
 L 2.28305,8.09506 L 2.50262,8.47371 L 2.63437,8.93649 L 2.67827,9.48343 L 2.63489,10.0269 L 2.50471,10.4868
 L 2.28777,10.8631 L 1.98404,11.1557 L 1.59354,11.3648 L 1.11624,11.4902 L 0.55217,11.532 z
M -2.16634,19.1595 L -2.16634,14.3408 L 1.05472,14.3408 L 1.41391,14.3533 L 1.74785,14.3907 L 2.05653,14.4532
 L 2.34,14.5406 L 2.59821,14.653 L 2.83118,14.7904 L 3.03889,14.9528 L 3.22006,15.1383 L 3.37335,15.3451
 L 3.49878,15.5732 L 3.59633,15.8226 L 3.66602,16.0933 L 3.70782,16.3853 L 3.72176,16.6987 L 3.66917,17.3516
 L 3.5114,17.904 L 3.24847,18.356 L 2.88036,18.7076 L 2.40707,18.9587 L 1.82861,19.1093 L 1.14497,19.1595
 z
" stroke="black" fill="lightgray" stroke-width="0.5"/>
</svg>
