<?xml version="1.0" standalone="no"?>
<!DOCTYPE svg PUBLIC "-//W3C//DTD SVG 1.1//EN" "http://www.w3.org/Graphics/SVG/1.1/DTD/svg11.dtd">
<svg width="226mm" height="412mm" viewBox="-113 -710 226 412" xmlns="http://www.w3.org/2000/svg" version="1.1">
<title>OpenSCAD Model</title>
<path d="
M 108.437,-634.589 L 109.045,-634.745 L 109.629,-634.976 L 110.179,-635.278 L 110.687,-635.647 L 111.145,-636.077
 L 111.545,-636.561 L 111.882,-637.091 L 112.149,-637.659 L 112.343,-638.257 L 112.461,-638.873 L 112.5,-639.5
 L 112.5,-704.5 L 112.461,-705.127 L 112.343,-705.743 L 112.149,-706.341 L 111.882,-706.909 L 111.545,-707.439
 L 111.145,-707.923 L 110.687,-708.353 L 110.179,-708.722 L 109.629,-709.024 L 109.045,-709.255 L 108.437,-709.411
 L 107.814,-709.49 L -107.814,-709.49 L -108.437,-709.411 L -109.045,-709.255 L -109.629,-709.024 L -110.179,-708.722
 L -110.687,-708.353 L -111.145,-707.923 L -111.545,-707.439 L -111.882,-706.909 L -112.149,-706.341 L -112.343,-705.743
 L -112.4,-705.444 L -112.5,-705.444 L -112.5,-638.556 L -112.4,-638.556 L -112.343,-638.257 L -112.149,-637.659
 L -111.882,-637.091 L -111.545,-636.561 L -111.145,-636.077 L -110.687,-635.647 L -110.179,-635.278 L -109.629,-634.976
 L -109.045,-634.745 L -108.437,-634.589 L -107.814,-634.51 L 107.814,-634.51 z
M -107.251,-636.008 L -107.75,-636.071 L -108.236,-636.196 L -108.703,-636.381 L -109.143,-636.623 L -109.55,-636.918
 L -109.916,-637.262 L -110.236,-637.649 L -110.505,-638.073 L -110.719,-638.528 L -110.874,-639.005 L -110.968,-639.499
 L -111,-640 L -111,-704 L -110.968,-704.501 L -110.874,-704.995 L -110.719,-705.472 L -110.505,-705.927
 L -110.236,-706.351 L -109.916,-706.738 L -109.55,-707.082 L -109.143,-707.377 L -108.703,-707.619 L -108.236,-707.804
 L -107.75,-707.929 L -107.251,-707.992 L 107.251,-707.992 L 107.75,-707.929 L 108.236,-707.804 L 108.703,-707.619
 L 109.143,-707.377 L 109.55,-707.082 L 109.916,-706.738 L 110.236,-706.351 L 110.505,-705.927 L 110.719,-705.472
 L 110.874,-704.995 L 110.968,-704.501 L 111,-704 L 111,-640 L 110.968,-639.499 L 110.874,-639.005
 L 110.719,-638.528 L 110.505,-638.073 L 110.236,-637.649 L 109.916,-637.262 L 109.55,-636.918 L 109.143,-636.623
 L 108.703,-636.381 L 108.236,-636.196 L 107.75,-636.071 L 107.251,-636.008 z
M 108.437,-550.589 L 109.045,-550.745 L 109.629,-550.976 L 110.179,-551.278 L 110.687,-551.647 L 111.145,-552.077
 L 111.545,-552.561 L 111.882,-553.091 L 112.149,-553.659 L 112.343,-554.257 L 112.461,-554.873 L 112.5,-555.5
 L 112.5,-620.5 L 112.461,-621.127 L 112.343,-621.743 L 112.149,-622.341 L 111.882,-622.909 L 111.545,-623.439
 L 111.145,-623.923 L 110.687,-624.353 L 110.179,-624.722 L 109.629,-625.024 L 109.045,-625.255 L 108.437,-625.411
 L 107.814,-625.49 L -107.814,-625.49 L -108.437,-625.411 L -109.045,-625.255 L -109.629,-625.024 L -110.179,-624.722
 L -110.687,-624.353 L -111.145,-623.923 L -111.545,-623.439 L -111.882,-622.909 L -112.149,-622.341 L -112.343,-621.743
 L -112.461,-621.127 L -112.5,-620.5 L -112.5,-555.5 L -112.461,-554.873 L -112.343,-554.257 L -112.149,-553.659
 L -111.882,-553.091 L -111.545,-552.561 L -111.145,-552.077 L -110.687,-551.647 L -110.179,-551.278 L -109.629,-550.976
 L -109.045,-550.745 L -108.437,-550.589 L -107.814,-550.51 L 107.814,-550.51 z
M -107.251,-552.008 L -107.75,-552.071 L -108.236,-552.196 L -108.703,-552.381 L -109.143,-552.623 L -109.55,-552.918
 L -109.916,-553.262 L -110.236,-553.649 L -110.505,-554.073 L -110.719,-554.528 L -110.874,-555.005 L -110.968,-555.499
 L -111,-556 L -111,-620 L -110.968,-620.501 L -110.874,-620.995 L -110.719,-621.472 L -110.505,-621.927
 L -110.236,-622.351 L -109.916,-622.738 L -109.55,-623.082 L -109.143,-623.377 L -108.703,-623.619 L -108.236,-623.804
 L -107.75,-623.929 L -107.251,-623.992 L 107.251,-623.992 L 107.75,-623.929 L 108.236,-623.804 L 108.703,-623.619
 L 109.143,-623.377 L 109.55,-623.082 L 109.916,-622.738 L 110.236,-622.351 L 110.505,-621.927 L 110.719,-621.472
 L 110.874,-620.995 L 110.968,-620.501 L 111,-620 L 111,-556 L 110.968,-555.499 L 110.874,-555.005
 L 110.719,-554.528 L 110.505,-554.073 L 110.236,-553.649 L 109.916,-553.262 L 109.55,-552.918 L 109.143,-552.623
 L 108.703,-552.381 L 108.236,-552.196 L 107.75,-552.071 L 107.251,-552.008 z
M 108.437,-466.589 L 109.045,-466.745 L 109.629,-466.976 L 110.179,-467.278 L 110.687,-467.647 L 111.145,-468.077
 L 111.545,-468.561 L 111.882,-469.091 L 112.149,-469.659 L 112.343,-470.257 L 112.461,-470.873 L 112.5,-471.5
 L 112.5,-536.5 L 112.461,-537.127 L 112.343,-537.743 L 112.149,-538.341 L 111.882,-538.909 L 111.545,-539.439
 L 111.145,-539.923 L 110.687,-540.353 L 110.179,-540.722 L 109.629,-541.024 L 109.045,-541.255 L 108.437,-541.411
 L 107.814,-541.49 L -107.814,-541.49 L -108.437,-541.411 L -109.045,-541.255 L -109.629,-541.024 L -110.179,-540.722
 L -110.687,-540.353 L -111.145,-539.923 L -111.545,-539.439 L -111.882,-538.909 L -112.149,-538.341 L -112.343,-537.743
 L -112.461,-537.127 L -112.5,-536.5 L -112.5,-471.5 L -112.461,-470.873 L -112.343,-470.257 L -112.149,-469.659
 L -111.882,-469.091 L -111.545,-468.561 L -111.145,-468.077 L -110.687,-467.647 L -110.179,-467.278 L -109.629,-466.976
 L -109.045,-466.745 L -108.437,-466.589 L -107.814,-466.51 L 107.814,-466.51 z
M -107.243,-468.135 L -107.726,-468.196 L -108.197,-468.317 L -108.649,-468.496 L -109.075,-468.73 L -109.469,-469.016
 L -109.823,-469.349 L -110.133,-469.724 L -110.394,-470.134 L -110.601,-470.574 L -110.751,-471.037 L -110.842,-471.515
 L -110.873,-472 L -110.873,-536 L -110.842,-536.485 L -110.751,-536.963 L -110.601,-537.426 L -110.394,-537.866
 L -110.133,-538.276 L -109.823,-538.651 L -109.469,-538.984 L -109.075,-539.27 L -108.649,-539.504 L -108.197,-539.683
 L -107.726,-539.804 L -107.243,-539.865 L 107.243,-539.865 L 107.726,-539.804 L 108.197,-539.683 L 108.649,-539.504
 L 109.075,-539.27 L 109.469,-538.984 L 109.823,-538.651 L 110.133,-538.276 L 110.394,-537.866 L 110.601,-537.426
 L 110.751,-536.963 L 110.842,-536.485 L 110.873,-536 L 110.873,-472 L 110.842,-471.515 L 110.751,-471.037
 L 110.601,-470.574 L 110.394,-470.134 L 110.133,-469.724 L 109.823,-469.349 L 109.469,-469.016 L 109.075,-468.73
 L 108.649,-468.496 L 108.197,-468.317 L 107.726,-468.196 L 107.243,-468.135 z
M 108.437,-382.589 L 109.045,-382.745 L 109.629,-382.976 L 110.179,-383.278 L 110.687,-383.647 L 111.145,-384.077
 L 111.545,-384.561 L 111.882,-385.091 L 112.149,-385.659 L 112.343,-386.257 L 112.461,-386.873 L 112.5,-387.5
 L 112.5,-452.5 L 112.461,-453.127 L 112.343,-453.743 L 112.149,-454.341 L 111.882,-454.909 L 111.545,-455.439
 L 111.145,-455.923 L 110.687,-456.353 L 110.179,-456.722 L 109.629,-457.024 L 109.045,-457.255 L 108.437,-457.411
 L 107.814,-457.49 L -107.814,-457.49 L -108.437,-457.411 L -109.045,-457.255 L -109.629,-457.024 L -110.179,-456.722
 L -110.687,-456.353 L -111.145,-455.923 L -111.545,-455.439 L -111.882,-454.909 L -112.149,-454.341 L -112.343,-453.743
 L -112.461,-453.127 L -112.5,-452.5 L -112.5,-387.5 L -112.461,-386.873 L -112.343,-386.257 L -112.149,-385.659
 L -111.882,-385.091 L -111.545,-384.561 L -111.145,-384.077 L -110.687,-383.647 L -110.179,-383.278 L -109.629,-382.976
 L -109.045,-382.745 L -108.437,-382.589 L -107.814,-382.51 L 107.814,-382.51 z
M -105.151,-447.605 L -105.45,-447.643 L -105.742,-447.717 L -106.022,-447.828 L -106.286,-447.974 L -106.53,-448.151
 L -106.75,-448.357 L -106.942,-448.589 L -107.103,-448.844 L -107.231,-449.117 L -107.325,-449.403 L -107.381,-449.699
 L -107.4,-450 L -107.381,-450.301 L -107.325,-450.597 L -107.231,-450.883 L -107.103,-451.156 L -106.942,-451.411
 L -106.75,-451.643 L -106.53,-451.849 L -106.286,-452.026 L -106.022,-452.172 L -105.742,-452.283 L -105.45,-452.357
 L -105.151,-452.395 L -104.849,-452.395 L -104.55,-452.357 L -104.258,-452.283 L -103.978,-452.172 L -103.714,-452.026
 L -103.47,-451.849 L -103.25,-451.643 L -103.058,-451.411 L -102.897,-451.156 L -102.769,-450.883 L -102.675,-450.597
 L -102.619,-450.301 L -102.6,-450 L -102.619,-449.699 L -102.675,-449.403 L -102.769,-449.117 L -102.897,-448.844
 L -103.058,-448.589 L -103.25,-448.357 L -103.47,-448.151 L -103.714,-447.974 L -103.978,-447.828 L -104.258,-447.717
 L -104.55,-447.643 L -104.849,-447.605 z
M 104.849,-447.605 L 104.55,-447.643 L 104.258,-447.717 L 103.978,-447.828 L 103.714,-447.974 L 103.47,-448.151
 L 103.25,-448.357 L 103.058,-448.589 L 102.897,-448.844 L 102.769,-449.117 L 102.675,-449.403 L 102.619,-449.699
 L 102.6,-450 L 102.619,-450.301 L 102.675,-450.597 L 102.769,-450.883 L 102.897,-451.156 L 103.058,-451.411
 L 103.25,-451.643 L 103.47,-451.849 L 103.714,-452.026 L 103.978,-452.172 L 104.258,-452.283 L 104.55,-452.357
 L 104.849,-452.395 L 105.151,-452.395 L 105.45,-452.357 L 105.742,-452.283 L 106.022,-452.172 L 106.286,-452.026
 L 106.53,-451.849 L 106.75,-451.643 L 106.942,-451.411 L 107.103,-451.156 L 107.231,-450.883 L 107.325,-450.597
 L 107.381,-450.301 L 107.4,-450 L 107.381,-449.699 L 107.325,-449.403 L 107.231,-449.117 L 107.103,-448.844
 L 106.942,-448.589 L 106.75,-448.357 L 106.53,-448.151 L 106.286,-447.974 L 106.022,-447.828 L 105.742,-447.717
 L 105.45,-447.643 L 105.151,-447.605 z
M 104.849,-387.605 L 104.55,-387.643 L 104.258,-387.717 L 103.978,-387.828 L 103.714,-387.974 L 103.47,-388.151
 L 103.25,-388.357 L 103.058,-388.589 L 102.897,-388.844 L 102.769,-389.117 L 102.675,-389.403 L 102.619,-389.699
 L 102.6,-390 L 102.619,-390.301 L 102.675,-390.597 L 102.769,-390.883 L 102.897,-391.156 L 103.058,-391.411
 L 103.25,-391.643 L 103.47,-391.849 L 103.714,-392.026 L 103.978,-392.172 L 104.258,-392.283 L 104.55,-392.357
 L 104.849,-392.395 L 105.151,-392.395 L 105.45,-392.357 L 105.742,-392.283 L 106.022,-392.172 L 106.286,-392.026
 L 106.53,-391.849 L 106.75,-391.643 L 106.942,-391.411 L 107.103,-391.156 L 107.231,-390.883 L 107.325,-390.597
 L 107.381,-390.301 L 107.4,-390 L 107.381,-389.699 L 107.325,-389.403 L 107.231,-389.117 L 107.103,-388.844
 L 106.942,-388.589 L 106.75,-388.357 L 106.53,-388.151 L 106.286,-387.974 L 106.022,-387.828 L 105.742,-387.717
 L 105.45,-387.643 L 105.151,-387.605 z
M -105.151,-387.605 L -105.45,-387.643 L -105.742,-387.717 L -106.022,-387.828 L -106.286,-387.974 L -106.53,-388.151
 L -106.75,-388.357 L -106.942,-388.589 L -107.103,-388.844 L -107.231,-389.117 L -107.325,-389.403 L -107.381,-389.699
 L -107.4,-390 L -107.381,-390.301 L -107.325,-390.597 L -107.231,-390.883 L -107.103,-391.156 L -106.942,-391.411
 L -106.75,-391.643 L -106.53,-391.849 L -106.286,-392.026 L -106.022,-392.172 L -105.742,-392.283 L -105.45,-392.357
 L -105.151,-392.395 L -104.849,-392.395 L -104.55,-392.357 L -104.258,-392.283 L -103.978,-392.172 L -103.714,-392.026
 L -103.47,-391.849 L -103.25,-391.643 L -103.058,-391.411 L -102.897,-391.156 L -102.769,-390.883 L -102.675,-390.597
 L -102.619,-390.301 L -102.6,-390 L -102.619,-389.699 L -102.675,-389.403 L -102.769,-389.117 L -102.897,-388.844
 L -103.058,-388.589 L -103.25,-388.357 L -103.47,-388.151 L -103.714,-387.974 L -103.978,-387.828 L -104.258,-387.717
 L -104.55,-387.643 L -104.849,-387.605 z
M 108.437,-298.589 L 109.045,-298.745 L 109.629,-298.976 L 110.179,-299.278 L 110.687,-299.647 L 111.145,-300.077
 L 111.545,-300.561 L 111.882,-301.091 L 112.149,-301.659 L 112.343,-302.257 L 112.461,-302.873 L 112.5,-303.5
 L 112.5,-368.5 L 112.461,-369.127 L 112.343,-369.743 L 112.149,-370.341 L 111.882,-370.909 L 111.545,-371.439
 L 111.145,-371.923 L 110.687,-372.353 L 110.179,-372.722 L 109.629,-373.024 L 109.045,-373.255 L 108.437,-373.411
 L 107.814,-373.49 L -107.814,-373.49 L -108.437,-373.411 L -109.045,-373.255 L -109.629,-373.024 L -110.179,-372.722
 L -110.687,-372.353 L -111.145,-371.923 L -111.545,-371.439 L -111.882,-370.909 L -112.149,-370.341 L -112.343,-369.743
 L -112.461,-369.127 L -112.5,-368.5 L -112.5,-303.5 L -112.461,-302.873 L -112.343,-302.257 L -112.149,-301.659
 L -111.882,-301.091 L -111.545,-300.561 L -111.145,-300.077 L -110.687,-299.647 L -110.179,-299.278 L -109.629,-298.976
 L -109.045,-298.745 L -108.437,-298.589 L -107.814,-298.51 L 107.814,-298.51 z
M -105.113,-364.204 L -105.337,-364.232 L -105.556,-364.288 L -105.766,-364.371 L -105.964,-364.48 L -106.147,-364.613
 L -106.312,-364.768 L -106.456,-364.942 L -106.577,-365.133 L -106.674,-365.337 L -106.743,-365.552 L -106.786,-365.774
 L -106.8,-366 L -106.786,-366.226 L -106.743,-366.448 L -106.674,-366.663 L -106.577,-366.867 L -106.456,-367.058
 L -106.312,-367.232 L -106.147,-367.387 L -105.964,-367.52 L -105.766,-367.629 L -105.556,-367.712 L -105.337,-367.768
 L -105.113,-367.796 L -104.887,-367.796 L -104.663,-367.768 L -104.444,-367.712 L -104.234,-367.629 L -104.036,-367.52
 L -103.853,-367.387 L -103.688,-367.232 L -103.544,-367.058 L -103.423,-366.867 L -103.326,-366.663 L -103.257,-366.448
 L -103.214,-366.226 L -103.2,-366 L -103.214,-365.774 L -103.257,-365.552 L -103.326,-365.337 L -103.423,-365.133
 L -103.544,-364.942 L -103.688,-364.768 L -103.853,-364.613 L -104.036,-364.48 L -104.234,-364.371 L -104.444,-364.288
 L -104.663,-364.232 L -104.887,-364.204 z
M 104.887,-364.204 L 104.663,-364.232 L 104.444,-364.288 L 104.234,-364.371 L 104.036,-364.48 L 103.853,-364.613
 L 103.688,-364.768 L 103.544,-364.942 L 103.423,-365.133 L 103.326,-365.337 L 103.257,-365.552 L 103.214,-365.774
 L 103.2,-366 L 103.214,-366.226 L 103.257,-366.448 L 103.326,-366.663 L 103.423,-366.867 L 103.544,-367.058
 L 103.688,-367.232 L 103.853,-367.387 L 104.036,-367.52 L 104.234,-367.629 L 104.444,-367.712 L 104.663,-367.768
 L 104.887,-367.796 L 105.113,-367.796 L 105.337,-367.768 L 105.556,-367.712 L 105.766,-367.629 L 105.964,-367.52
 L 106.147,-367.387 L 106.312,-367.232 L 106.456,-367.058 L 106.577,-366.867 L 106.674,-366.663 L 106.743,-366.448
 L 106.786,-366.226 L 106.8,-366 L 106.786,-365.774 L 106.743,-365.552 L 106.674,-365.337 L 106.577,-365.133
 L 106.456,-364.942 L 106.312,-364.768 L 106.147,-364.613 L 105.964,-364.48 L 105.766,-364.371 L 105.556,-364.288
 L 105.337,-364.232 L 105.113,-364.204 z
M 104.887,-304.204 L 104.663,-304.232 L 104.444,-304.288 L 104.234,-304.371 L 104.036,-304.48 L 103.853,-304.613
 L 103.688,-304.768 L 103.544,-304.942 L 103.423,-305.133 L 103.326,-305.337 L 103.257,-305.552 L 103.214,-305.774
 L 103.2,-306 L 103.214,-306.226 L 103.257,-306.448 L 103.326,-306.663 L 103.423,-306.867 L 103.544,-307.058
 L 103.688,-307.232 L 103.853,-307.387 L 104.036,-307.52 L 104.234,-307.629 L 104.444,-307.712 L 104.663,-307.768
 L 104.887,-307.796 L 105.113,-307.796 L 105.337,-307.768 L 105.556,-307.712 L 105.766,-307.629 L 105.964,-307.52
 L 106.147,-307.387 L 106.312,-307.232 L 106.456,-307.058 L 106.577,-306.867 L 106.674,-306.663 L 106.743,-306.448
 L 106.786,-306.226 L 106.8,-306 L 106.786,-305.774 L 106.743,-305.552 L 106.674,-305.337 L 106.577,-305.133
 L 106.456,-304.942 L 106.312,-304.768 L 106.147,-304.613 L 105.964,-304.48 L 105.766,-304.371 L 105.556,-304.288
 L 105.337,-304.232 L 105.113,-304.204 z
M -105.113,-304.204 L -105.337,-304.232 L -105.556,-304.288 L -105.766,-304.371 L -105.964,-304.48 L -106.147,-304.613
 L -106.312,-304.768 L -106.456,-304.942 L -106.577,-305.133 L -106.674,-305.337 L -106.743,-305.552 L -106.786,-305.774
 L -106.8,-306 L -106.786,-306.226 L -106.743,-306.448 L -106.674,-306.663 L -106.577,-306.867 L -106.456,-307.058
 L -106.312,-307.232 L -106.147,-307.387 L -105.964,-307.52 L -105.766,-307.629 L -105.556,-307.712 L -105.337,-307.768
 L -105.113,-307.796 L -104.887,-307.796 L -104.663,-307.768 L -104.444,-307.712 L -104.234,-307.629 L -104.036,-307.52
 L -103.853,-307.387 L -103.688,-307.232 L -103.544,-307.058 L -103.423,-306.867 L -103.326,-306.663 L -103.257,-306.448
 L -103.214,-306.226 L -103.2,-306 L -103.214,-305.774 L -103.257,-305.552 L -103.326,-305.337 L -103.423,-305.133
 L -103.544,-304.942 L -103.688,-304.768 L -103.853,-304.613 L -104.036,-304.48 L -104.234,-304.371 L -104.444,-304.288
 L -104.663,-304.232 L -104.887,-304.204 z
" stroke="black" fill="lightgray" stroke-width="0.5"/>
</svg>
