  0
SECTION
  2
BLOCKS
  0
ENDSEC
  0
SECTION
  2
ENTITIES
  0
LINE
  8
0
 10
0.29425
 20
-22.2063
 11
1.00578
 21
-22.1085
  0
LINE
  8
0
 10
1.00578
 20
-22.1085
 11
1.66893
 21
-21.9455
  0
LINE
  8
0
 10
1.66893
 20
-21.9455
 11
2.28368
 21
-21.7172
  0
LINE
  8
0
 10
2.28368
 20
-21.7172
 11
2.85005
 21
-21.4238
  0
LINE
  8
0
 10
2.85005
 20
-21.4238
 11
3.36804
 21
-21.0652
  0
LINE
  8
0
 10
3.36804
 20
-21.0652
 11
3.83766
 21
-20.6414
  0
LINE
  8
0
 10
3.83766
 20
-20.6414
 11
4.2513
 21
-20.1602
  0
LINE
  8
0
 10
4.2513
 20
-20.1602
 11
4.60132
 21
-19.6295
  0
LINE
  8
0
 10
4.60132
 20
-19.6295
 11
4.8877
 21
-19.0495
  0
LINE
  8
0
 10
4.8877
 20
-19.0495
 11
5.11043
 21
-18.42
  0
LINE
  8
0
 10
5.11043
 20
-18.42
 11
5.26952
 21
-17.741
  0
LINE
  8
0
 10
5.26952
 20
-17.741
 11
5.36497
 21
-17.0127
  0
LINE
  8
0
 10
5.36497
 20
-17.0127
 11
5.39679
 21
-16.2349
  0
LINE
  8
0
 10
5.39679
 20
-16.2349
 11
5.39679
 21
-6.99013
  0
LINE
  8
0
 10
5.39679
 20
-6.99013
 11
17.3139
 21
-6.99013
  0
LINE
  8
0
 10
17.3139
 20
-6.99013
 11
17.9369
 21
-6.91142
  0
LINE
  8
0
 10
17.9369
 20
-6.91142
 11
18.5451
 21
-6.75528
  0
LINE
  8
0
 10
18.5451
 20
-6.75528
 11
19.1289
 21
-6.52412
  0
LINE
  8
0
 10
19.1289
 20
-6.52412
 11
19.6791
 21
-6.22163
  0
LINE
  8
0
 10
19.6791
 20
-6.22163
 11
20.1871
 21
-5.85255
  0
LINE
  8
0
 10
20.1871
 20
-5.85255
 11
20.6448
 21
-5.42273
  0
LINE
  8
0
 10
20.6448
 20
-5.42273
 11
21.0451
 21
-4.93892
  0
LINE
  8
0
 10
21.0451
 20
-4.93892
 11
21.3815
 21
-4.40877
  0
LINE
  8
0
 10
21.3815
 20
-4.40877
 11
21.6489
 21
-3.84062
  0
LINE
  8
0
 10
21.6489
 20
-3.84062
 11
21.8429
 21
-3.24344
  0
LINE
  8
0
 10
21.8429
 20
-3.24344
 11
21.9606
 21
-2.62666
  0
LINE
  8
0
 10
21.9606
 20
-2.62666
 11
22
 21
-2
  0
LINE
  8
0
 10
22
 20
-2
 11
22
 21
2
  0
LINE
  8
0
 10
22
 20
2
 11
21.9606
 21
2.62666
  0
LINE
  8
0
 10
21.9606
 20
2.62666
 11
21.8429
 21
3.24344
  0
LINE
  8
0
 10
21.8429
 20
3.24344
 11
21.6489
 21
3.84062
  0
LINE
  8
0
 10
21.6489
 20
3.84062
 11
21.3815
 21
4.40877
  0
LINE
  8
0
 10
21.3815
 20
4.40877
 11
21.0451
 21
4.93892
  0
LINE
  8
0
 10
21.0451
 20
4.93892
 11
20.6448
 21
5.42273
  0
LINE
  8
0
 10
20.6448
 20
5.42273
 11
20.1871
 21
5.85255
  0
LINE
  8
0
 10
20.1871
 20
5.85255
 11
19.6791
 21
6.22163
  0
LINE
  8
0
 10
19.6791
 20
6.22163
 11
19.1289
 21
6.52412
  0
LINE
  8
0
 10
19.1289
 20
6.52412
 11
18.5451
 21
6.75528
  0
LINE
  8
0
 10
18.5451
 20
6.75528
 11
17.9369
 21
6.91142
  0
LINE
  8
0
 10
17.9369
 20
6.91142
 11
17.3139
 21
6.99013
  0
LINE
  8
0
 10
17.3139
 20
6.99013
 11
-17.3139
 21
6.99013
  0
LINE
  8
0
 10
-17.3139
 20
6.99013
 11
-17.9369
 21
6.91142
  0
LINE
  8
0
 10
-17.9369
 20
6.91142
 11
-18.5451
 21
6.75528
  0
LINE
  8
0
 10
-18.5451
 20
6.75528
 11
-19.1289
 21
6.52412
  0
LINE
  8
0
 10
-19.1289
 20
6.52412
 11
-19.6791
 21
6.22163
  0
LINE
  8
0
 10
-19.6791
 20
6.22163
 11
-20.1871
 21
5.85255
  0
LINE
  8
0
 10
-20.1871
 20
5.85255
 11
-20.6448
 21
5.42273
  0
LINE
  8
0
 10
-20.6448
 20
5.42273
 11
-21.0451
 21
4.93892
  0
LINE
  8
0
 10
-21.0451
 20
4.93892
 11
-21.3815
 21
4.40877
  0
LINE
  8
0
 10
-21.3815
 20
4.40877
 11
-21.6489
 21
3.84062
  0
LINE
  8
0
 10
-21.6489
 20
3.84062
 11
-21.8429
 21
3.24344
  0
LINE
  8
0
 10
-21.8429
 20
3.24344
 11
-21.9606
 21
2.62666
  0
LINE
  8
0
 10
-21.9606
 20
2.62666
 11
-22
 21
2
  0
LINE
  8
0
 10
-22
 20
2
 11
-22
 21
-2
  0
LINE
  8
0
 10
-22
 20
-2
 11
-21.9606
 21
-2.62666
  0
LINE
  8
0
 10
-21.9606
 20
-2.62666
 11
-21.8429
 21
-3.24344
  0
LINE
  8
0
 10
-21.8429
 20
-3.24344
 11
-21.6489
 21
-3.84062
  0
LINE
  8
0
 10
-21.6489
 20
-3.84062
 11
-21.3815
 21
-4.40877
  0
LINE
  8
0
 10
-21.3815
 20
-4.40877
 11
-21.0451
 21
-4.93892
  0
LINE
  8
0
 10
-21.0451
 20
-4.93892
 11
-20.6448
 21
-5.42273
  0
LINE
  8
0
 10
-20.6448
 20
-5.42273
 11
-20.1871
 21
-5.85255
  0
LINE
  8
0
 10
-20.1871
 20
-5.85255
 11
-19.6791
 21
-6.22163
  0
LINE
  8
0
 10
-19.6791
 20
-6.22163
 11
-19.1289
 21
-6.52412
  0
LINE
  8
0
 10
-19.1289
 20
-6.52412
 11
-18.5451
 21
-6.75528
  0
LINE
  8
0
 10
-18.5451
 20
-6.75528
 11
-17.9369
 21
-6.91142
  0
LINE
  8
0
 10
-17.9369
 20
-6.91142
 11
-17.3139
 21
-6.99013
  0
LINE
  8
0
 10
-17.3139
 20
-6.99013
 11
-2.26932
 21
-6.99013
  0
LINE
  8
0
 10
-2.26932
 20
-6.99013
 11
-2.26932
 21
-7.57658
  0
LINE
  8
0
 10
-2.26932
 20
-7.57658
 11
1.60876
 21
-7.57658
  0
LINE
  8
0
 10
1.60876
 20
-7.57658
 11
1.60876
 21
-16.3249
  0
LINE
  8
0
 10
1.60876
 20
-16.3249
 11
1.59746
 21
-16.7165
  0
LINE
  8
0
 10
1.59746
 20
-16.7165
 11
1.56354
 21
-17.0812
  0
LINE
  8
0
 10
1.56354
 20
-17.0812
 11
1.507
 21
-17.4191
  0
LINE
  8
0
 10
1.507
 20
-17.4191
 11
1.42786
 21
-17.7302
  0
LINE
  8
0
 10
1.42786
 20
-17.7302
 11
1.3261
 21
-18.0145
  0
LINE
  8
0
 10
1.3261
 20
-18.0145
 11
1.20172
 21
-18.2719
  0
LINE
  8
0
 10
1.20172
 20
-18.2719
 11
1.05472
 21
-18.5025
  0
LINE
  8
0
 10
1.05472
 20
-18.5025
 11
0.888535
 21
-18.7042
  0
LINE
  8
0
 10
0.888535
 20
-18.7042
 11
0.706589
 21
-18.8749
  0
LINE
  8
0
 10
0.706589
 20
-18.8749
 11
0.50885
 21
-19.0145
  0
LINE
  8
0
 10
0.50885
 20
-19.0145
 11
0.295349
 21
-19.1231
  0
LINE
  8
0
 10
0.295349
 20
-19.1231
 11
0.0660706
 21
-19.2007
  0
LINE
  8
0
 10
0.0660706
 20
-19.2007
 11
-0.17897
 21
-19.2472
  0
LINE
  8
0
 10
-0.17897
 20
-19.2472
 11
-0.439804
 21
-19.2627
  0
LINE
  8
0
 10
-0.439804
 20
-19.2627
 11
-0.666977
 21
-19.2475
  0
LINE
  8
0
 10
-0.666977
 20
-19.2475
 11
-0.884689
 21
-19.2017
  0
LINE
  8
0
 10
-0.884689
 20
-19.2017
 11
-1.09296
 21
-19.1255
  0
LINE
  8
0
 10
-1.09296
 20
-19.1255
 11
-1.29175
 21
-19.0187
  0
LINE
  8
0
 10
-1.29175
 20
-19.0187
 11
-1.48108
 21
-18.8815
  0
LINE
  8
0
 10
-1.48108
 20
-18.8815
 11
-1.66095
 21
-18.7137
  0
LINE
  8
0
 10
-1.66095
 20
-18.7137
 11
-1.83136
 21
-18.5155
  0
LINE
  8
0
 10
-1.83136
 20
-18.5155
 11
-1.99042
 21
-18.2861
  0
LINE
  8
0
 10
-1.99042
 20
-18.2861
 11
-2.13634
 21
-18.0252
  0
LINE
  8
0
 10
-2.13634
 20
-18.0252
 11
-2.26912
 21
-17.7328
  0
LINE
  8
0
 10
-2.26912
 20
-17.7328
 11
-2.38876
 21
-17.4088
  0
LINE
  8
0
 10
-2.38876
 20
-17.4088
 11
-2.49527
 21
-17.0533
  0
LINE
  8
0
 10
-2.49527
 20
-17.0533
 11
-2.58864
 21
-16.6662
  0
LINE
  8
0
 10
-2.58864
 20
-16.6662
 11
-2.66888
 21
-16.2476
  0
LINE
  8
0
 10
-2.66888
 20
-16.2476
 11
-6.41815
 21
-16.8017
  0
LINE
  8
0
 10
-6.41815
 20
-16.8017
 11
-6.28459
 21
-17.5277
  0
LINE
  8
0
 10
-6.28459
 20
-17.5277
 11
-6.10475
 21
-18.2037
  0
LINE
  8
0
 10
-6.10475
 20
-18.2037
 11
-5.87863
 21
-18.8298
  0
LINE
  8
0
 10
-5.87863
 20
-18.8298
 11
-5.60622
 21
-19.4059
  0
LINE
  8
0
 10
-5.60622
 20
-19.4059
 11
-5.28754
 21
-19.9321
  0
LINE
  8
0
 10
-5.28754
 20
-19.9321
 11
-4.92256
 21
-20.4083
  0
LINE
  8
0
 10
-4.92256
 20
-20.4083
 11
-4.51131
 21
-20.8346
  0
LINE
  8
0
 10
-4.51131
 20
-20.8346
 11
-4.05641
 21
-21.2072
  0
LINE
  8
0
 10
-4.05641
 20
-21.2072
 11
-3.56049
 21
-21.5224
  0
LINE
  8
0
 10
-3.56049
 20
-21.5224
 11
-3.02354
 21
-21.7803
  0
LINE
  8
0
 10
-3.02354
 20
-21.7803
 11
-2.4456
 21
-21.981
  0
LINE
  8
0
 10
-2.4456
 20
-21.981
 11
-1.82663
 21
-22.1243
  0
LINE
  8
0
 10
-1.82663
 20
-22.1243
 11
-1.16664
 21
-22.2102
  0
LINE
  8
0
 10
-1.16664
 20
-22.2102
 11
-0.465637
 21
-22.2389
  0
LINE
  8
0
 10
-0.465637
 20
-22.2389
 11
0.29425
 21
-22.2063
  0
LINE
  8
0
 10
14.8116
 20
-2.99408
 11
14.4379
 21
-2.94685
  0
LINE
  8
0
 10
14.4379
 20
-2.94685
 11
14.0729
 21
-2.85316
  0
LINE
  8
0
 10
14.0729
 20
-2.85316
 11
13.7227
 21
-2.71448
  0
LINE
  8
0
 10
13.7227
 20
-2.71448
 11
13.3925
 21
-2.53297
  0
LINE
  8
0
 10
13.3925
 20
-2.53297
 11
13.0877
 21
-2.31154
  0
LINE
  8
0
 10
13.0877
 20
-2.31154
 11
12.8131
 21
-2.05363
  0
LINE
  8
0
 10
12.8131
 20
-2.05363
 11
12.5729
 21
-1.76335
  0
LINE
  8
0
 10
12.5729
 20
-1.76335
 11
12.3711
 21
-1.44525
  0
LINE
  8
0
 10
12.3711
 20
-1.44525
 11
12.2107
 21
-1.10437
  0
LINE
  8
0
 10
12.2107
 20
-1.10437
 11
12.0942
 21
-0.746063
  0
LINE
  8
0
 10
12.0942
 20
-0.746063
 11
12.0237
 21
-0.375992
  0
LINE
  8
0
 10
12.0237
 20
-0.375992
 11
12
 21
0
  0
LINE
  8
0
 10
12
 20
0
 11
12.0237
 21
0.375992
  0
LINE
  8
0
 10
12.0237
 20
0.375992
 11
12.0942
 21
0.746063
  0
LINE
  8
0
 10
12.0942
 20
0.746063
 11
12.2107
 21
1.10437
  0
LINE
  8
0
 10
12.2107
 20
1.10437
 11
12.3711
 21
1.44525
  0
LINE
  8
0
 10
12.3711
 20
1.44525
 11
12.5729
 21
1.76335
  0
LINE
  8
0
 10
12.5729
 20
1.76335
 11
12.8131
 21
2.05363
  0
LINE
  8
0
 10
12.8131
 20
2.05363
 11
13.0877
 21
2.31154
  0
LINE
  8
0
 10
13.0877
 20
2.31154
 11
13.3925
 21
2.53297
  0
LINE
  8
0
 10
13.3925
 20
2.53297
 11
13.7227
 21
2.71448
  0
LINE
  8
0
 10
13.7227
 20
2.71448
 11
14.0729
 21
2.85316
  0
LINE
  8
0
 10
14.0729
 20
2.85316
 11
14.4379
 21
2.94685
  0
LINE
  8
0
 10
14.4379
 20
2.94685
 11
14.8116
 21
2.99408
  0
LINE
  8
0
 10
14.8116
 20
2.99408
 11
15.1884
 21
2.99408
  0
LINE
  8
0
 10
15.1884
 20
2.99408
 11
15.5621
 21
2.94685
  0
LINE
  8
0
 10
15.5621
 20
2.94685
 11
15.927
 21
2.85316
  0
LINE
  8
0
 10
15.927
 20
2.85316
 11
16.2773
 21
2.71448
  0
LINE
  8
0
 10
16.2773
 20
2.71448
 11
16.6075
 21
2.53297
  0
LINE
  8
0
 10
16.6075
 20
2.53297
 11
16.9123
 21
2.31154
  0
LINE
  8
0
 10
16.9123
 20
2.31154
 11
17.1869
 21
2.05363
  0
LINE
  8
0
 10
17.1869
 20
2.05363
 11
17.427
 21
1.76335
  0
LINE
  8
0
 10
17.427
 20
1.76335
 11
17.6289
 21
1.44525
  0
LINE
  8
0
 10
17.6289
 20
1.44525
 11
17.7893
 21
1.10437
  0
LINE
  8
0
 10
17.7893
 20
1.10437
 11
17.9057
 21
0.746063
  0
LINE
  8
0
 10
17.9057
 20
0.746063
 11
17.9763
 21
0.375992
  0
LINE
  8
0
 10
17.9763
 20
0.375992
 11
18
 21
0
  0
LINE
  8
0
 10
18
 20
0
 11
17.9763
 21
-0.375992
  0
LINE
  8
0
 10
17.9763
 20
-0.375992
 11
17.9057
 21
-0.746063
  0
LINE
  8
0
 10
17.9057
 20
-0.746063
 11
17.7893
 21
-1.10437
  0
LINE
  8
0
 10
17.7893
 20
-1.10437
 11
17.6289
 21
-1.44525
  0
LINE
  8
0
 10
17.6289
 20
-1.44525
 11
17.427
 21
-1.76335
  0
LINE
  8
0
 10
17.427
 20
-1.76335
 11
17.1869
 21
-2.05363
  0
LINE
  8
0
 10
17.1869
 20
-2.05363
 11
16.9123
 21
-2.31154
  0
LINE
  8
0
 10
16.9123
 20
-2.31154
 11
16.6075
 21
-2.53297
  0
LINE
  8
0
 10
16.6075
 20
-2.53297
 11
16.2773
 21
-2.71448
  0
LINE
  8
0
 10
16.2773
 20
-2.71448
 11
15.927
 21
-2.85316
  0
LINE
  8
0
 10
15.927
 20
-2.85316
 11
15.5621
 21
-2.94685
  0
LINE
  8
0
 10
15.5621
 20
-2.94685
 11
15.1884
 21
-2.99408
  0
LINE
  8
0
 10
15.1884
 20
-2.99408
 11
14.8116
 21
-2.99408
  0
LINE
  8
0
 10
-15.1884
 20
-2.99408
 11
-15.5621
 21
-2.94685
  0
LINE
  8
0
 10
-15.5621
 20
-2.94685
 11
-15.927
 21
-2.85316
  0
LINE
  8
0
 10
-15.927
 20
-2.85316
 11
-16.2773
 21
-2.71448
  0
LINE
  8
0
 10
-16.2773
 20
-2.71448
 11
-16.6075
 21
-2.53297
  0
LINE
  8
0
 10
-16.6075
 20
-2.53297
 11
-16.9123
 21
-2.31154
  0
LINE
  8
0
 10
-16.9123
 20
-2.31154
 11
-17.1869
 21
-2.05363
  0
LINE
  8
0
 10
-17.1869
 20
-2.05363
 11
-17.427
 21
-1.76335
  0
LINE
  8
0
 10
-17.427
 20
-1.76335
 11
-17.6289
 21
-1.44525
  0
LINE
  8
0
 10
-17.6289
 20
-1.44525
 11
-17.7893
 21
-1.10437
  0
LINE
  8
0
 10
-17.7893
 20
-1.10437
 11
-17.9057
 21
-0.746063
  0
LINE
  8
0
 10
-17.9057
 20
-0.746063
 11
-17.9763
 21
-0.375992
  0
LINE
  8
0
 10
-17.9763
 20
-0.375992
 11
-18
 21
0
  0
LINE
  8
0
 10
-18
 20
0
 11
-17.9763
 21
0.375992
  0
LINE
  8
0
 10
-17.9763
 20
0.375992
 11
-17.9057
 21
0.746063
  0
LINE
  8
0
 10
-17.9057
 20
0.746063
 11
-17.7893
 21
1.10437
  0
LINE
  8
0
 10
-17.7893
 20
1.10437
 11
-17.6289
 21
1.44525
  0
LINE
  8
0
 10
-17.6289
 20
1.44525
 11
-17.427
 21
1.76335
  0
LINE
  8
0
 10
-17.427
 20
1.76335
 11
-17.1869
 21
2.05363
  0
LINE
  8
0
 10
-17.1869
 20
2.05363
 11
-16.9123
 21
2.31154
  0
LINE
  8
0
 10
-16.9123
 20
2.31154
 11
-16.6075
 21
2.53297
  0
LINE
  8
0
 10
-16.6075
 20
2.53297
 11
-16.2773
 21
2.71448
  0
LINE
  8
0
 10
-16.2773
 20
2.71448
 11
-15.927
 21
2.85316
  0
LINE
  8
0
 10
-15.927
 20
2.85316
 11
-15.5621
 21
2.94685
  0
LINE
  8
0
 10
-15.5621
 20
2.94685
 11
-15.1884
 21
2.99408
  0
LINE
  8
0
 10
-15.1884
 20
2.99408
 11
-14.8116
 21
2.99408
  0
LINE
  8
0
 10
-14.8116
 20
2.99408
 11
-14.4379
 21
2.94685
  0
LINE
  8
0
 10
-14.4379
 20
2.94685
 11
-14.0729
 21
2.85316
  0
LINE
  8
0
 10
-14.0729
 20
2.85316
 11
-13.7227
 21
2.71448
  0
LINE
  8
0
 10
-13.7227
 20
2.71448
 11
-13.3925
 21
2.53297
  0
LINE
  8
0
 10
-13.3925
 20
2.53297
 11
-13.0877
 21
2.31154
  0
LINE
  8
0
 10
-13.0877
 20
2.31154
 11
-12.8131
 21
2.05363
  0
LINE
  8
0
 10
-12.8131
 20
2.05363
 11
-12.5729
 21
1.76335
  0
LINE
  8
0
 10
-12.5729
 20
1.76335
 11
-12.3711
 21
1.44525
  0
LINE
  8
0
 10
-12.3711
 20
1.44525
 11
-12.2107
 21
1.10437
  0
LINE
  8
0
 10
-12.2107
 20
1.10437
 11
-12.0942
 21
0.746063
  0
LINE
  8
0
 10
-12.0942
 20
0.746063
 11
-12.0237
 21
0.375992
  0
LINE
  8
0
 10
-12.0237
 20
0.375992
 11
-12
 21
0
  0
LINE
  8
0
 10
-12
 20
0
 11
-12.0237
 21
-0.375992
  0
LINE
  8
0
 10
-12.0237
 20
-0.375992
 11
-12.0942
 21
-0.746063
  0
LINE
  8
0
 10
-12.0942
 20
-0.746063
 11
-12.2107
 21
-1.10437
  0
LINE
  8
0
 10
-12.2107
 20
-1.10437
 11
-12.3711
 21
-1.44525
  0
LINE
  8
0
 10
-12.3711
 20
-1.44525
 11
-12.5729
 21
-1.76335
  0
LINE
  8
0
 10
-12.5729
 20
-1.76335
 11
-12.8131
 21
-2.05363
  0
LINE
  8
0
 10
-12.8131
 20
-2.05363
 11
-13.0877
 21
-2.31154
  0
LINE
  8
0
 10
-13.0877
 20
-2.31154
 11
-13.3925
 21
-2.53297
  0
LINE
  8
0
 10
-13.3925
 20
-2.53297
 11
-13.7227
 21
-2.71448
  0
LINE
  8
0
 10
-13.7227
 20
-2.71448
 11
-14.0729
 21
-2.85316
  0
LINE
  8
0
 10
-14.0729
 20
-2.85316
 11
-14.4379
 21
-2.94685
  0
LINE
  8
0
 10
-14.4379
 20
-2.94685
 11
-14.8116
 21
-2.99408
  0
LINE
  8
0
 10
-14.8116
 20
-2.99408
 11
-15.1884
 21
-2.99408
  0
LINE
  8
0
 10
6.04712
 20
0.373032
 11
6.10533
 21
0.552185
  0
LINE
  8
0
 10
6.10533
 20
0.552185
 11
6.18553
 21
0.722626
  0
LINE
  8
0
 10
6.18553
 20
0.722626
 11
6.28647
 21
0.881668
  0
LINE
  8
0
 10
6.28647
 20
0.881668
 11
6.40654
 21
1.02681
  0
LINE
  8
0
 10
6.40654
 20
1.02681
 11
6.54385
 21
1.15576
  0
LINE
  8
0
 10
6.54385
 20
1.15576
 11
6.69626
 21
1.26648
  0
LINE
  8
0
 10
6.69626
 20
1.26648
 11
6.86133
 21
1.35724
  0
LINE
  8
0
 10
6.86133
 20
1.35724
 11
7.03647
 21
1.42657
  0
LINE
  8
0
 10
7.03647
 20
1.42657
 11
7.21892
 21
1.47342
  0
LINE
  8
0
 10
7.21892
 20
1.47342
 11
7.40581
 21
1.49704
  0
LINE
  8
0
 10
7.40581
 20
1.49704
 11
7.59418
 21
1.49704
  0
LINE
  8
0
 10
7.59418
 20
1.49704
 11
7.78107
 21
1.47342
  0
LINE
  8
0
 10
7.78107
 20
1.47342
 11
7.96352
 21
1.42657
  0
LINE
  8
0
 10
7.96352
 20
1.42657
 11
8.13866
 21
1.35724
  0
LINE
  8
0
 10
8.13866
 20
1.35724
 11
8.30373
 21
1.26648
  0
LINE
  8
0
 10
8.30373
 20
1.26648
 11
8.45613
 21
1.15576
  0
LINE
  8
0
 10
8.45613
 20
1.15576
 11
8.59344
 21
1.02681
  0
LINE
  8
0
 10
8.59344
 20
1.02681
 11
8.71352
 21
0.881668
  0
LINE
  8
0
 10
8.71352
 20
0.881668
 11
8.81445
 21
0.722626
  0
LINE
  8
0
 10
8.81445
 20
0.722626
 11
8.89465
 21
0.552185
  0
LINE
  8
0
 10
8.89465
 20
0.552185
 11
8.95287
 21
0.373032
  0
LINE
  8
0
 10
8.95287
 20
0.373032
 11
8.98816
 21
0.187988
  0
LINE
  8
0
 10
8.98816
 20
0.187988
 11
9
 21
0
  0
LINE
  8
0
 10
9
 20
0
 11
8.98816
 21
-0.187988
  0
LINE
  8
0
 10
8.98816
 20
-0.187988
 11
8.95287
 21
-0.373032
  0
LINE
  8
0
 10
8.95287
 20
-0.373032
 11
8.89465
 21
-0.552185
  0
LINE
  8
0
 10
8.89465
 20
-0.552185
 11
8.81445
 21
-0.722626
  0
LINE
  8
0
 10
8.81445
 20
-0.722626
 11
8.71352
 21
-0.881668
  0
LINE
  8
0
 10
8.71352
 20
-0.881668
 11
8.59344
 21
-1.02681
  0
LINE
  8
0
 10
8.59344
 20
-1.02681
 11
8.45613
 21
-1.15576
  0
LINE
  8
0
 10
8.45613
 20
-1.15576
 11
8.30373
 21
-1.26648
  0
LINE
  8
0
 10
8.30373
 20
-1.26648
 11
8.13866
 21
-1.35724
  0
LINE
  8
0
 10
8.13866
 20
-1.35724
 11
7.96352
 21
-1.42657
  0
LINE
  8
0
 10
7.96352
 20
-1.42657
 11
7.78107
 21
-1.47342
  0
LINE
  8
0
 10
7.78107
 20
-1.47342
 11
7.59418
 21
-1.49704
  0
LINE
  8
0
 10
7.59418
 20
-1.49704
 11
7.40581
 21
-1.49704
  0
LINE
  8
0
 10
7.40581
 20
-1.49704
 11
7.21892
 21
-1.47342
  0
LINE
  8
0
 10
7.21892
 20
-1.47342
 11
7.03647
 21
-1.42657
  0
LINE
  8
0
 10
7.03647
 20
-1.42657
 11
6.86133
 21
-1.35724
  0
LINE
  8
0
 10
6.86133
 20
-1.35724
 11
6.69626
 21
-1.26648
  0
LINE
  8
0
 10
6.69626
 20
-1.26648
 11
6.54385
 21
-1.15576
  0
LINE
  8
0
 10
6.54385
 20
-1.15576
 11
6.40654
 21
-1.02681
  0
LINE
  8
0
 10
6.40654
 20
-1.02681
 11
6.28647
 21
-0.881668
  0
LINE
  8
0
 10
6.28647
 20
-0.881668
 11
6.18553
 21
-0.722626
  0
LINE
  8
0
 10
6.18553
 20
-0.722626
 11
6.10533
 21
-0.552185
  0
LINE
  8
0
 10
6.10533
 20
-0.552185
 11
6.04712
 21
-0.373032
  0
LINE
  8
0
 10
6.04712
 20
-0.373032
 11
6.01183
 21
-0.187988
  0
LINE
  8
0
 10
6.01183
 20
-0.187988
 11
6
 21
0
  0
LINE
  8
0
 10
6
 20
0
 11
6.01183
 21
0.187988
  0
LINE
  8
0
 10
6.01183
 20
0.187988
 11
6.04712
 21
0.373032
  0
LINE
  8
0
 10
-7.59418
 20
-1.49704
 11
-7.78107
 21
-1.47342
  0
LINE
  8
0
 10
-7.78107
 20
-1.47342
 11
-7.96352
 21
-1.42657
  0
LINE
  8
0
 10
-7.96352
 20
-1.42657
 11
-8.13866
 21
-1.35724
  0
LINE
  8
0
 10
-8.13866
 20
-1.35724
 11
-8.30373
 21
-1.26648
  0
LINE
  8
0
 10
-8.30373
 20
-1.26648
 11
-8.45613
 21
-1.15576
  0
LINE
  8
0
 10
-8.45613
 20
-1.15576
 11
-8.59344
 21
-1.02681
  0
LINE
  8
0
 10
-8.59344
 20
-1.02681
 11
-8.71352
 21
-0.881668
  0
LINE
  8
0
 10
-8.71352
 20
-0.881668
 11
-8.81445
 21
-0.722626
  0
LINE
  8
0
 10
-8.81445
 20
-0.722626
 11
-8.89465
 21
-0.552185
  0
LINE
  8
0
 10
-8.89465
 20
-0.552185
 11
-8.95287
 21
-0.373032
  0
LINE
  8
0
 10
-8.95287
 20
-0.373032
 11
-8.98816
 21
-0.187988
  0
LINE
  8
0
 10
-8.98816
 20
-0.187988
 11
-9
 21
0
  0
LINE
  8
0
 10
-9
 20
0
 11
-8.98816
 21
0.187988
  0
LINE
  8
0
 10
-8.98816
 20
0.187988
 11
-8.95287
 21
0.373032
  0
LINE
  8
0
 10
-8.95287
 20
0.373032
 11
-8.89465
 21
0.552185
  0
LINE
  8
0
 10
-8.89465
 20
0.552185
 11
-8.81445
 21
0.722626
  0
LINE
  8
0
 10
-8.81445
 20
0.722626
 11
-8.71352
 21
0.881668
  0
LINE
  8
0
 10
-8.71352
 20
0.881668
 11
-8.59344
 21
1.02681
  0
LINE
  8
0
 10
-8.59344
 20
1.02681
 11
-8.45613
 21
1.15576
  0
LINE
  8
0
 10
-8.45613
 20
1.15576
 11
-8.30373
 21
1.26648
  0
LINE
  8
0
 10
-8.30373
 20
1.26648
 11
-8.13866
 21
1.35724
  0
LINE
  8
0
 10
-8.13866
 20
1.35724
 11
-7.96352
 21
1.42657
  0
LINE
  8
0
 10
-7.96352
 20
1.42657
 11
-7.78107
 21
1.47342
  0
LINE
  8
0
 10
-7.78107
 20
1.47342
 11
-7.59418
 21
1.49704
  0
LINE
  8
0
 10
-7.59418
 20
1.49704
 11
-7.40581
 21
1.49704
  0
LINE
  8
0
 10
-7.40581
 20
1.49704
 11
-7.21892
 21
1.47342
  0
LINE
  8
0
 10
-7.21892
 20
1.47342
 11
-7.03647
 21
1.42657
  0
LINE
  8
0
 10
-7.03647
 20
1.42657
 11
-6.86133
 21
1.35724
  0
LINE
  8
0
 10
-6.86133
 20
1.35724
 11
-6.69626
 21
1.26648
  0
LINE
  8
0
 10
-6.69626
 20
1.26648
 11
-6.54385
 21
1.15576
  0
LINE
  8
0
 10
-6.54385
 20
1.15576
 11
-6.40654
 21
1.02681
  0
LINE
  8
0
 10
-6.40654
 20
1.02681
 11
-6.28647
 21
0.881668
  0
LINE
  8
0
 10
-6.28647
 20
0.881668
 11
-6.18553
 21
0.722626
  0
LINE
  8
0
 10
-6.18553
 20
0.722626
 11
-6.10533
 21
0.552185
  0
LINE
  8
0
 10
-6.10533
 20
0.552185
 11
-6.04712
 21
0.373032
  0
LINE
  8
0
 10
-6.04712
 20
0.373032
 11
-6.01183
 21
0.187988
  0
LINE
  8
0
 10
-6.01183
 20
0.187988
 11
-6
 21
0
  0
LINE
  8
0
 10
-6
 20
0
 11
-6.01183
 21
-0.187988
  0
LINE
  8
0
 10
-6.01183
 20
-0.187988
 11
-6.04712
 21
-0.373032
  0
LINE
  8
0
 10
-6.04712
 20
-0.373032
 11
-6.10533
 21
-0.552185
  0
LINE
  8
0
 10
-6.10533
 20
-0.552185
 11
-6.18553
 21
-0.722626
  0
LINE
  8
0
 10
-6.18553
 20
-0.722626
 11
-6.28647
 21
-0.881668
  0
LINE
  8
0
 10
-6.28647
 20
-0.881668
 11
-6.40654
 21
-1.02681
  0
LINE
  8
0
 10
-6.40654
 20
-1.02681
 11
-6.54385
 21
-1.15576
  0
LINE
  8
0
 10
-6.54385
 20
-1.15576
 11
-6.69626
 21
-1.26648
  0
LINE
  8
0
 10
-6.69626
 20
-1.26648
 11
-6.86133
 21
-1.35724
  0
LINE
  8
0
 10
-6.86133
 20
-1.35724
 11
-7.03647
 21
-1.42657
  0
LINE
  8
0
 10
-7.03647
 20
-1.42657
 11
-7.21892
 21
-1.47342
  0
LINE
  8
0
 10
-7.21892
 20
-1.47342
 11
-7.40581
 21
-1.49704
  0
LINE
  8
0
 10
-7.40581
 20
-1.49704
 11
-7.59418
 21
-1.49704
  0
LINE
  8
0
 10
2.90575
 20
-0.746063
 11
2.78932
 21
-1.10437
  0
LINE
  8
0
 10
2.78932
 20
-1.10437
 11
2.62891
 21
-1.44525
  0
LINE
  8
0
 10
2.62891
 20
-1.44525
 11
2.42705
 21
-1.76335
  0
LINE
  8
0
 10
2.42705
 20
-1.76335
 11
2.1869
 21
-2.05363
  0
LINE
  8
0
 10
2.1869
 20
-2.05363
 11
1.91226
 21
-2.31154
  0
LINE
  8
0
 10
1.91226
 20
-2.31154
 11
1.60747
 21
-2.53297
  0
LINE
  8
0
 10
1.60747
 20
-2.53297
 11
1.27733
 21
-2.71448
  0
LINE
  8
0
 10
1.27733
 20
-2.71448
 11
0.927048
 21
-2.85316
  0
LINE
  8
0
 10
0.927048
 20
-2.85316
 11
0.562134
 21
-2.94685
  0
LINE
  8
0
 10
0.562134
 20
-2.94685
 11
0.18837
 21
-2.99408
  0
LINE
  8
0
 10
0.18837
 20
-2.99408
 11
-0.18837
 21
-2.99408
  0
LINE
  8
0
 10
-0.18837
 20
-2.99408
 11
-0.562134
 21
-2.94685
  0
LINE
  8
0
 10
-0.562134
 20
-2.94685
 11
-0.927048
 21
-2.85316
  0
LINE
  8
0
 10
-0.927048
 20
-2.85316
 11
-1.27733
 21
-2.71448
  0
LINE
  8
0
 10
-1.27733
 20
-2.71448
 11
-1.60747
 21
-2.53297
  0
LINE
  8
0
 10
-1.60747
 20
-2.53297
 11
-1.91226
 21
-2.31154
  0
LINE
  8
0
 10
-1.91226
 20
-2.31154
 11
-2.1869
 21
-2.05363
  0
LINE
  8
0
 10
-2.1869
 20
-2.05363
 11
-2.42705
 21
-1.76335
  0
LINE
  8
0
 10
-2.42705
 20
-1.76335
 11
-2.62891
 21
-1.44525
  0
LINE
  8
0
 10
-2.62891
 20
-1.44525
 11
-2.78932
 21
-1.10437
  0
LINE
  8
0
 10
-2.78932
 20
-1.10437
 11
-2.90575
 21
-0.746063
  0
LINE
  8
0
 10
-2.90575
 20
-0.746063
 11
-2.97633
 21
-0.375992
  0
LINE
  8
0
 10
-2.97633
 20
-0.375992
 11
-3
 21
0
  0
LINE
  8
0
 10
-3
 20
0
 11
-2.97633
 21
0.375992
  0
LINE
  8
0
 10
-2.97633
 20
0.375992
 11
-2.90575
 21
0.746063
  0
LINE
  8
0
 10
-2.90575
 20
0.746063
 11
-2.78932
 21
1.10437
  0
LINE
  8
0
 10
-2.78932
 20
1.10437
 11
-2.62891
 21
1.44525
  0
LINE
  8
0
 10
-2.62891
 20
1.44525
 11
-2.42705
 21
1.76335
  0
LINE
  8
0
 10
-2.42705
 20
1.76335
 11
-2.1869
 21
2.05363
  0
LINE
  8
0
 10
-2.1869
 20
2.05363
 11
-1.91226
 21
2.31154
  0
LINE
  8
0
 10
-1.91226
 20
2.31154
 11
-1.60747
 21
2.53297
  0
LINE
  8
0
 10
-1.60747
 20
2.53297
 11
-1.27733
 21
2.71448
  0
LINE
  8
0
 10
-1.27733
 20
2.71448
 11
-0.927048
 21
2.85316
  0
LINE
  8
0
 10
-0.927048
 20
2.85316
 11
-0.562134
 21
2.94685
  0
LINE
  8
0
 10
-0.562134
 20
2.94685
 11
-0.18837
 21
2.99408
  0
LINE
  8
0
 10
-0.18837
 20
2.99408
 11
0.18837
 21
2.99408
  0
LINE
  8
0
 10
0.18837
 20
2.99408
 11
0.562134
 21
2.94685
  0
LINE
  8
0
 10
0.562134
 20
2.94685
 11
0.927048
 21
2.85316
  0
LINE
  8
0
 10
0.927048
 20
2.85316
 11
1.27733
 21
2.71448
  0
LINE
  8
0
 10
1.27733
 20
2.71448
 11
1.60747
 21
2.53297
  0
LINE
  8
0
 10
1.60747
 20
2.53297
 11
1.91226
 21
2.31154
  0
LINE
  8
0
 10
1.91226
 20
2.31154
 11
2.1869
 21
2.05363
  0
LINE
  8
0
 10
2.1869
 20
2.05363
 11
2.42705
 21
1.76335
  0
LINE
  8
0
 10
2.42705
 20
1.76335
 11
2.62891
 21
1.44525
  0
LINE
  8
0
 10
2.62891
 20
1.44525
 11
2.78932
 21
1.10437
  0
LINE
  8
0
 10
2.78932
 20
1.10437
 11
2.90575
 21
0.746063
  0
LINE
  8
0
 10
2.90575
 20
0.746063
 11
2.97633
 21
0.375992
  0
LINE
  8
0
 10
2.97633
 20
0.375992
 11
3
 21
0
  0
LINE
  8
0
 10
3
 20
0
 11
2.97633
 21
-0.375992
  0
LINE
  8
0
 10
2.97633
 20
-0.375992
 11
2.90575
 21
-0.746063
  0
ENDSEC
  0
SECTION
  2
OBJECTS
  0
DICTIONARY
  0
ENDSEC
  0
EOF
