  0
SECTION
  2
BLOCKS
  0
ENDSEC
  0
SECTION
  2
ENTITIES
  0
LINE
  8
0
 10
7.1869
 20
247.589
 11
7.79507
 21
247.745
  0
LINE
  8
0
 10
7.79507
 20
247.745
 11
8.37889
 21
247.976
  0
LINE
  8
0
 10
8.37889
 20
247.976
 11
8.92912
 21
248.278
  0
LINE
  8
0
 10
8.92912
 20
248.278
 11
9.43712
 21
248.647
  0
LINE
  8
0
 10
9.43712
 20
248.647
 11
9.89484
 21
249.077
  0
LINE
  8
0
 10
9.89484
 20
249.077
 11
10.2951
 21
249.561
  0
LINE
  8
0
 10
10.2951
 20
249.561
 11
10.6315
 21
250.091
  0
LINE
  8
0
 10
10.6315
 20
250.091
 11
10.8989
 21
250.659
  0
LINE
  8
0
 10
10.8989
 20
250.659
 11
11.0929
 21
251.257
  0
LINE
  8
0
 10
11.0929
 20
251.257
 11
11.2106
 21
251.873
  0
LINE
  8
0
 10
11.2106
 20
251.873
 11
11.25
 21
252.5
  0
LINE
  8
0
 10
11.25
 20
252.5
 11
11.25
 21
287.5
  0
LINE
  8
0
 10
11.25
 20
287.5
 11
11.2106
 21
288.127
  0
LINE
  8
0
 10
11.2106
 20
288.127
 11
11.0929
 21
288.743
  0
LINE
  8
0
 10
11.0929
 20
288.743
 11
10.8989
 21
289.341
  0
LINE
  8
0
 10
10.8989
 20
289.341
 11
10.6315
 21
289.909
  0
LINE
  8
0
 10
10.6315
 20
289.909
 11
10.2951
 21
290.439
  0
LINE
  8
0
 10
10.2951
 20
290.439
 11
9.89484
 21
290.923
  0
LINE
  8
0
 10
9.89484
 20
290.923
 11
9.43712
 21
291.353
  0
LINE
  8
0
 10
9.43712
 20
291.353
 11
8.92912
 21
291.722
  0
LINE
  8
0
 10
8.92912
 20
291.722
 11
8.37889
 21
292.024
  0
LINE
  8
0
 10
8.37889
 20
292.024
 11
7.79507
 21
292.255
  0
LINE
  8
0
 10
7.79507
 20
292.255
 11
7.1869
 21
292.411
  0
LINE
  8
0
 10
7.1869
 20
292.411
 11
6.56395
 21
292.49
  0
LINE
  8
0
 10
6.56395
 20
292.49
 11
-6.56395
 21
292.49
  0
LINE
  8
0
 10
-6.56395
 20
292.49
 11
-7.1869
 21
292.411
  0
LINE
  8
0
 10
-7.1869
 20
292.411
 11
-7.79507
 21
292.255
  0
LINE
  8
0
 10
-7.79507
 20
292.255
 11
-8.37889
 21
292.024
  0
LINE
  8
0
 10
-8.37889
 20
292.024
 11
-8.92912
 21
291.722
  0
LINE
  8
0
 10
-8.92912
 20
291.722
 11
-9.43712
 21
291.353
  0
LINE
  8
0
 10
-9.43712
 20
291.353
 11
-9.89484
 21
290.923
  0
LINE
  8
0
 10
-9.89484
 20
290.923
 11
-10.2951
 21
290.439
  0
LINE
  8
0
 10
-10.2951
 20
290.439
 11
-10.6315
 21
289.909
  0
LINE
  8
0
 10
-10.6315
 20
289.909
 11
-10.8989
 21
289.341
  0
LINE
  8
0
 10
-10.8989
 20
289.341
 11
-11.0929
 21
288.743
  0
LINE
  8
0
 10
-11.0929
 20
288.743
 11
-11.2106
 21
288.127
  0
LINE
  8
0
 10
-11.2106
 20
288.127
 11
-11.25
 21
287.5
  0
LINE
  8
0
 10
-11.25
 20
287.5
 11
-11.25
 21
252.5
  0
LINE
  8
0
 10
-11.25
 20
252.5
 11
-11.2106
 21
251.873
  0
LINE
  8
0
 10
-11.2106
 20
251.873
 11
-11.0929
 21
251.257
  0
LINE
  8
0
 10
-11.0929
 20
251.257
 11
-10.8989
 21
250.659
  0
LINE
  8
0
 10
-10.8989
 20
250.659
 11
-10.6315
 21
250.091
  0
LINE
  8
0
 10
-10.6315
 20
250.091
 11
-10.2951
 21
249.561
  0
LINE
  8
0
 10
-10.2951
 20
249.561
 11
-9.89484
 21
249.077
  0
LINE
  8
0
 10
-9.89484
 20
249.077
 11
-9.43712
 21
248.647
  0
LINE
  8
0
 10
-9.43712
 20
248.647
 11
-8.92912
 21
248.278
  0
LINE
  8
0
 10
-8.92912
 20
248.278
 11
-8.37889
 21
247.976
  0
LINE
  8
0
 10
-8.37889
 20
247.976
 11
-7.79507
 21
247.745
  0
LINE
  8
0
 10
-7.79507
 20
247.745
 11
-7.1869
 21
247.589
  0
LINE
  8
0
 10
-7.1869
 20
247.589
 11
-6.56395
 21
247.51
  0
LINE
  8
0
 10
-6.56395
 20
247.51
 11
6.56395
 21
247.51
  0
LINE
  8
0
 10
6.56395
 20
247.51
 11
7.1869
 21
247.589
  0
LINE
  8
0
 10
-6.29825
 20
248.009
 11
-6.89006
 21
248.084
  0
LINE
  8
0
 10
-6.89006
 20
248.084
 11
-7.46782
 21
248.232
  0
LINE
  8
0
 10
-7.46782
 20
248.232
 11
-8.02245
 21
248.452
  0
LINE
  8
0
 10
-8.02245
 20
248.452
 11
-8.54517
 21
248.739
  0
LINE
  8
0
 10
-8.54517
 20
248.739
 11
-9.02776
 21
249.09
  0
LINE
  8
0
 10
-9.02776
 20
249.09
 11
-9.4626
 21
249.498
  0
LINE
  8
0
 10
-9.4626
 20
249.498
 11
-9.84282
 21
249.958
  0
LINE
  8
0
 10
-9.84282
 20
249.958
 11
-10.1624
 21
250.462
  0
LINE
  8
0
 10
-10.1624
 20
250.462
 11
-10.4164
 21
251.001
  0
LINE
  8
0
 10
-10.4164
 20
251.001
 11
-10.6008
 21
251.569
  0
LINE
  8
0
 10
-10.6008
 20
251.569
 11
-10.7125
 21
252.155
  0
LINE
  8
0
 10
-10.7125
 20
252.155
 11
-10.75
 21
252.75
  0
LINE
  8
0
 10
-10.75
 20
252.75
 11
-10.75
 21
287.25
  0
LINE
  8
0
 10
-10.75
 20
287.25
 11
-10.7125
 21
287.845
  0
LINE
  8
0
 10
-10.7125
 20
287.845
 11
-10.6008
 21
288.431
  0
LINE
  8
0
 10
-10.6008
 20
288.431
 11
-10.4164
 21
288.999
  0
LINE
  8
0
 10
-10.4164
 20
288.999
 11
-10.1624
 21
289.538
  0
LINE
  8
0
 10
-10.1624
 20
289.538
 11
-9.84282
 21
290.042
  0
LINE
  8
0
 10
-9.84282
 20
290.042
 11
-9.4626
 21
290.502
  0
LINE
  8
0
 10
-9.4626
 20
290.502
 11
-9.02776
 21
290.91
  0
LINE
  8
0
 10
-9.02776
 20
290.91
 11
-8.54517
 21
291.261
  0
LINE
  8
0
 10
-8.54517
 20
291.261
 11
-8.02245
 21
291.548
  0
LINE
  8
0
 10
-8.02245
 20
291.548
 11
-7.46782
 21
291.768
  0
LINE
  8
0
 10
-7.46782
 20
291.768
 11
-6.89006
 21
291.916
  0
LINE
  8
0
 10
-6.89006
 20
291.916
 11
-6.29825
 21
291.991
  0
LINE
  8
0
 10
-6.29825
 20
291.991
 11
6.29825
 21
291.991
  0
LINE
  8
0
 10
6.29825
 20
291.991
 11
6.89006
 21
291.916
  0
LINE
  8
0
 10
6.89006
 20
291.916
 11
7.46782
 21
291.768
  0
LINE
  8
0
 10
7.46782
 20
291.768
 11
8.02245
 21
291.548
  0
LINE
  8
0
 10
8.02245
 20
291.548
 11
8.54517
 21
291.261
  0
LINE
  8
0
 10
8.54517
 20
291.261
 11
9.02776
 21
290.91
  0
LINE
  8
0
 10
9.02776
 20
290.91
 11
9.4626
 21
290.502
  0
LINE
  8
0
 10
9.4626
 20
290.502
 11
9.84282
 21
290.042
  0
LINE
  8
0
 10
9.84282
 20
290.042
 11
10.1624
 21
289.538
  0
LINE
  8
0
 10
10.1624
 20
289.538
 11
10.4164
 21
288.999
  0
LINE
  8
0
 10
10.4164
 20
288.999
 11
10.6008
 21
288.431
  0
LINE
  8
0
 10
10.6008
 20
288.431
 11
10.7125
 21
287.845
  0
LINE
  8
0
 10
10.7125
 20
287.845
 11
10.75
 21
287.25
  0
LINE
  8
0
 10
10.75
 20
287.25
 11
10.75
 21
252.75
  0
LINE
  8
0
 10
10.75
 20
252.75
 11
10.7125
 21
252.155
  0
LINE
  8
0
 10
10.7125
 20
252.155
 11
10.6008
 21
251.569
  0
LINE
  8
0
 10
10.6008
 20
251.569
 11
10.4164
 21
251.001
  0
LINE
  8
0
 10
10.4164
 20
251.001
 11
10.1624
 21
250.462
  0
LINE
  8
0
 10
10.1624
 20
250.462
 11
9.84282
 21
249.958
  0
LINE
  8
0
 10
9.84282
 20
249.958
 11
9.4626
 21
249.498
  0
LINE
  8
0
 10
9.4626
 20
249.498
 11
9.02776
 21
249.09
  0
LINE
  8
0
 10
9.02776
 20
249.09
 11
8.54517
 21
248.739
  0
LINE
  8
0
 10
8.54517
 20
248.739
 11
8.02245
 21
248.452
  0
LINE
  8
0
 10
8.02245
 20
248.452
 11
7.46782
 21
248.232
  0
LINE
  8
0
 10
7.46782
 20
248.232
 11
6.89006
 21
248.084
  0
LINE
  8
0
 10
6.89006
 20
248.084
 11
6.29825
 21
248.009
  0
LINE
  8
0
 10
6.29825
 20
248.009
 11
-6.29825
 21
248.009
  0
LINE
  8
0
 10
7.1869
 20
193.589
 11
7.79507
 21
193.745
  0
LINE
  8
0
 10
7.79507
 20
193.745
 11
8.37889
 21
193.976
  0
LINE
  8
0
 10
8.37889
 20
193.976
 11
8.92912
 21
194.278
  0
LINE
  8
0
 10
8.92912
 20
194.278
 11
9.43712
 21
194.647
  0
LINE
  8
0
 10
9.43712
 20
194.647
 11
9.89484
 21
195.077
  0
LINE
  8
0
 10
9.89484
 20
195.077
 11
10.2951
 21
195.561
  0
LINE
  8
0
 10
10.2951
 20
195.561
 11
10.6315
 21
196.091
  0
LINE
  8
0
 10
10.6315
 20
196.091
 11
10.8989
 21
196.659
  0
LINE
  8
0
 10
10.8989
 20
196.659
 11
11.0929
 21
197.257
  0
LINE
  8
0
 10
11.0929
 20
197.257
 11
11.2106
 21
197.873
  0
LINE
  8
0
 10
11.2106
 20
197.873
 11
11.25
 21
198.5
  0
LINE
  8
0
 10
11.25
 20
198.5
 11
11.25
 21
233.5
  0
LINE
  8
0
 10
11.25
 20
233.5
 11
11.2106
 21
234.127
  0
LINE
  8
0
 10
11.2106
 20
234.127
 11
11.0929
 21
234.743
  0
LINE
  8
0
 10
11.0929
 20
234.743
 11
10.8989
 21
235.341
  0
LINE
  8
0
 10
10.8989
 20
235.341
 11
10.6315
 21
235.909
  0
LINE
  8
0
 10
10.6315
 20
235.909
 11
10.2951
 21
236.439
  0
LINE
  8
0
 10
10.2951
 20
236.439
 11
9.89484
 21
236.923
  0
LINE
  8
0
 10
9.89484
 20
236.923
 11
9.43712
 21
237.353
  0
LINE
  8
0
 10
9.43712
 20
237.353
 11
8.92912
 21
237.722
  0
LINE
  8
0
 10
8.92912
 20
237.722
 11
8.37889
 21
238.024
  0
LINE
  8
0
 10
8.37889
 20
238.024
 11
7.79507
 21
238.255
  0
LINE
  8
0
 10
7.79507
 20
238.255
 11
7.1869
 21
238.411
  0
LINE
  8
0
 10
7.1869
 20
238.411
 11
6.56395
 21
238.49
  0
LINE
  8
0
 10
6.56395
 20
238.49
 11
-6.56395
 21
238.49
  0
LINE
  8
0
 10
-6.56395
 20
238.49
 11
-7.1869
 21
238.411
  0
LINE
  8
0
 10
-7.1869
 20
238.411
 11
-7.79507
 21
238.255
  0
LINE
  8
0
 10
-7.79507
 20
238.255
 11
-8.37889
 21
238.024
  0
LINE
  8
0
 10
-8.37889
 20
238.024
 11
-8.92912
 21
237.722
  0
LINE
  8
0
 10
-8.92912
 20
237.722
 11
-9.43712
 21
237.353
  0
LINE
  8
0
 10
-9.43712
 20
237.353
 11
-9.89484
 21
236.923
  0
LINE
  8
0
 10
-9.89484
 20
236.923
 11
-10.2951
 21
236.439
  0
LINE
  8
0
 10
-10.2951
 20
236.439
 11
-10.6315
 21
235.909
  0
LINE
  8
0
 10
-10.6315
 20
235.909
 11
-10.8989
 21
235.341
  0
LINE
  8
0
 10
-10.8989
 20
235.341
 11
-11.0929
 21
234.743
  0
LINE
  8
0
 10
-11.0929
 20
234.743
 11
-11.2106
 21
234.127
  0
LINE
  8
0
 10
-11.2106
 20
234.127
 11
-11.25
 21
233.5
  0
LINE
  8
0
 10
-11.25
 20
233.5
 11
-11.25
 21
198.5
  0
LINE
  8
0
 10
-11.25
 20
198.5
 11
-11.2106
 21
197.873
  0
LINE
  8
0
 10
-11.2106
 20
197.873
 11
-11.0929
 21
197.257
  0
LINE
  8
0
 10
-11.0929
 20
197.257
 11
-10.8989
 21
196.659
  0
LINE
  8
0
 10
-10.8989
 20
196.659
 11
-10.6315
 21
196.091
  0
LINE
  8
0
 10
-10.6315
 20
196.091
 11
-10.2951
 21
195.561
  0
LINE
  8
0
 10
-10.2951
 20
195.561
 11
-9.89484
 21
195.077
  0
LINE
  8
0
 10
-9.89484
 20
195.077
 11
-9.43712
 21
194.647
  0
LINE
  8
0
 10
-9.43712
 20
194.647
 11
-8.92912
 21
194.278
  0
LINE
  8
0
 10
-8.92912
 20
194.278
 11
-8.37889
 21
193.976
  0
LINE
  8
0
 10
-8.37889
 20
193.976
 11
-7.79507
 21
193.745
  0
LINE
  8
0
 10
-7.79507
 20
193.745
 11
-7.1869
 21
193.589
  0
LINE
  8
0
 10
-7.1869
 20
193.589
 11
-6.56395
 21
193.51
  0
LINE
  8
0
 10
-6.56395
 20
193.51
 11
6.56395
 21
193.51
  0
LINE
  8
0
 10
6.56395
 20
193.51
 11
7.1869
 21
193.589
  0
LINE
  8
0
 10
-6.28748
 20
194.181
 11
-6.85791
 21
194.253
  0
LINE
  8
0
 10
-6.85791
 20
194.253
 11
-7.41481
 21
194.396
  0
LINE
  8
0
 10
-7.41481
 20
194.396
 11
-7.9494
 21
194.607
  0
LINE
  8
0
 10
-7.9494
 20
194.607
 11
-8.45325
 21
194.884
  0
LINE
  8
0
 10
-8.45325
 20
194.884
 11
-8.9184
 21
195.222
  0
LINE
  8
0
 10
-8.9184
 20
195.222
 11
-9.33754
 21
195.616
  0
LINE
  8
0
 10
-9.33754
 20
195.616
 11
-9.70403
 21
196.059
  0
LINE
  8
0
 10
-9.70403
 20
196.059
 11
-10.0121
 21
196.544
  0
LINE
  8
0
 10
-10.0121
 20
196.544
 11
-10.2569
 21
197.065
  0
LINE
  8
0
 10
-10.2569
 20
197.065
 11
-10.4346
 21
197.611
  0
LINE
  8
0
 10
-10.4346
 20
197.611
 11
-10.5423
 21
198.176
  0
LINE
  8
0
 10
-10.5423
 20
198.176
 11
-10.5784
 21
198.75
  0
LINE
  8
0
 10
-10.5784
 20
198.75
 11
-10.5784
 21
233.25
  0
LINE
  8
0
 10
-10.5784
 20
233.25
 11
-10.5423
 21
233.824
  0
LINE
  8
0
 10
-10.5423
 20
233.824
 11
-10.4346
 21
234.389
  0
LINE
  8
0
 10
-10.4346
 20
234.389
 11
-10.2569
 21
234.935
  0
LINE
  8
0
 10
-10.2569
 20
234.935
 11
-10.0121
 21
235.456
  0
LINE
  8
0
 10
-10.0121
 20
235.456
 11
-9.70403
 21
235.941
  0
LINE
  8
0
 10
-9.70403
 20
235.941
 11
-9.33754
 21
236.384
  0
LINE
  8
0
 10
-9.33754
 20
236.384
 11
-8.9184
 21
236.778
  0
LINE
  8
0
 10
-8.9184
 20
236.778
 11
-8.45325
 21
237.116
  0
LINE
  8
0
 10
-8.45325
 20
237.116
 11
-7.9494
 21
237.393
  0
LINE
  8
0
 10
-7.9494
 20
237.393
 11
-7.41481
 21
237.604
  0
LINE
  8
0
 10
-7.41481
 20
237.604
 11
-6.85791
 21
237.747
  0
LINE
  8
0
 10
-6.85791
 20
237.747
 11
-6.28748
 21
237.819
  0
LINE
  8
0
 10
-6.28748
 20
237.819
 11
6.28748
 21
237.819
  0
LINE
  8
0
 10
6.28748
 20
237.819
 11
6.85791
 21
237.747
  0
LINE
  8
0
 10
6.85791
 20
237.747
 11
7.41481
 21
237.604
  0
LINE
  8
0
 10
7.41481
 20
237.604
 11
7.9494
 21
237.393
  0
LINE
  8
0
 10
7.9494
 20
237.393
 11
8.45325
 21
237.116
  0
LINE
  8
0
 10
8.45325
 20
237.116
 11
8.9184
 21
236.778
  0
LINE
  8
0
 10
8.9184
 20
236.778
 11
9.33754
 21
236.384
  0
LINE
  8
0
 10
9.33754
 20
236.384
 11
9.70403
 21
235.941
  0
LINE
  8
0
 10
9.70403
 20
235.941
 11
10.0121
 21
235.456
  0
LINE
  8
0
 10
10.0121
 20
235.456
 11
10.2569
 21
234.935
  0
LINE
  8
0
 10
10.2569
 20
234.935
 11
10.4346
 21
234.389
  0
LINE
  8
0
 10
10.4346
 20
234.389
 11
10.5423
 21
233.824
  0
LINE
  8
0
 10
10.5423
 20
233.824
 11
10.5784
 21
233.25
  0
LINE
  8
0
 10
10.5784
 20
233.25
 11
10.5784
 21
198.75
  0
LINE
  8
0
 10
10.5784
 20
198.75
 11
10.5423
 21
198.176
  0
LINE
  8
0
 10
10.5423
 20
198.176
 11
10.4346
 21
197.611
  0
LINE
  8
0
 10
10.4346
 20
197.611
 11
10.2569
 21
197.065
  0
LINE
  8
0
 10
10.2569
 20
197.065
 11
10.0121
 21
196.544
  0
LINE
  8
0
 10
10.0121
 20
196.544
 11
9.70403
 21
196.059
  0
LINE
  8
0
 10
9.70403
 20
196.059
 11
9.33754
 21
195.616
  0
LINE
  8
0
 10
9.33754
 20
195.616
 11
8.9184
 21
195.222
  0
LINE
  8
0
 10
8.9184
 20
195.222
 11
8.45325
 21
194.884
  0
LINE
  8
0
 10
8.45325
 20
194.884
 11
7.9494
 21
194.607
  0
LINE
  8
0
 10
7.9494
 20
194.607
 11
7.41481
 21
194.396
  0
LINE
  8
0
 10
7.41481
 20
194.396
 11
6.85791
 21
194.253
  0
LINE
  8
0
 10
6.85791
 20
194.253
 11
6.28748
 21
194.181
  0
LINE
  8
0
 10
6.28748
 20
194.181
 11
-6.28748
 21
194.181
  0
LINE
  8
0
 10
7.1869
 20
139.589
 11
7.79507
 21
139.745
  0
LINE
  8
0
 10
7.79507
 20
139.745
 11
8.37889
 21
139.976
  0
LINE
  8
0
 10
8.37889
 20
139.976
 11
8.92912
 21
140.278
  0
LINE
  8
0
 10
8.92912
 20
140.278
 11
9.43712
 21
140.647
  0
LINE
  8
0
 10
9.43712
 20
140.647
 11
9.89484
 21
141.077
  0
LINE
  8
0
 10
9.89484
 20
141.077
 11
10.2951
 21
141.561
  0
LINE
  8
0
 10
10.2951
 20
141.561
 11
10.6315
 21
142.091
  0
LINE
  8
0
 10
10.6315
 20
142.091
 11
10.8989
 21
142.659
  0
LINE
  8
0
 10
10.8989
 20
142.659
 11
11.0929
 21
143.257
  0
LINE
  8
0
 10
11.0929
 20
143.257
 11
11.2106
 21
143.873
  0
LINE
  8
0
 10
11.2106
 20
143.873
 11
11.25
 21
144.5
  0
LINE
  8
0
 10
11.25
 20
144.5
 11
11.25
 21
179.5
  0
LINE
  8
0
 10
11.25
 20
179.5
 11
11.2106
 21
180.127
  0
LINE
  8
0
 10
11.2106
 20
180.127
 11
11.0929
 21
180.743
  0
LINE
  8
0
 10
11.0929
 20
180.743
 11
10.8989
 21
181.341
  0
LINE
  8
0
 10
10.8989
 20
181.341
 11
10.6315
 21
181.909
  0
LINE
  8
0
 10
10.6315
 20
181.909
 11
10.2951
 21
182.439
  0
LINE
  8
0
 10
10.2951
 20
182.439
 11
9.89484
 21
182.923
  0
LINE
  8
0
 10
9.89484
 20
182.923
 11
9.43712
 21
183.353
  0
LINE
  8
0
 10
9.43712
 20
183.353
 11
8.92912
 21
183.722
  0
LINE
  8
0
 10
8.92912
 20
183.722
 11
8.37889
 21
184.024
  0
LINE
  8
0
 10
8.37889
 20
184.024
 11
7.79507
 21
184.255
  0
LINE
  8
0
 10
7.79507
 20
184.255
 11
7.1869
 21
184.411
  0
LINE
  8
0
 10
7.1869
 20
184.411
 11
6.56395
 21
184.49
  0
LINE
  8
0
 10
6.56395
 20
184.49
 11
-6.56395
 21
184.49
  0
LINE
  8
0
 10
-6.56395
 20
184.49
 11
-7.1869
 21
184.411
  0
LINE
  8
0
 10
-7.1869
 20
184.411
 11
-7.79507
 21
184.255
  0
LINE
  8
0
 10
-7.79507
 20
184.255
 11
-8.37889
 21
184.024
  0
LINE
  8
0
 10
-8.37889
 20
184.024
 11
-8.92912
 21
183.722
  0
LINE
  8
0
 10
-8.92912
 20
183.722
 11
-9.43712
 21
183.353
  0
LINE
  8
0
 10
-9.43712
 20
183.353
 11
-9.89484
 21
182.923
  0
LINE
  8
0
 10
-9.89484
 20
182.923
 11
-10.2951
 21
182.439
  0
LINE
  8
0
 10
-10.2951
 20
182.439
 11
-10.6315
 21
181.909
  0
LINE
  8
0
 10
-10.6315
 20
181.909
 11
-10.8989
 21
181.341
  0
LINE
  8
0
 10
-10.8989
 20
181.341
 11
-11.0929
 21
180.743
  0
LINE
  8
0
 10
-11.0929
 20
180.743
 11
-11.2106
 21
180.127
  0
LINE
  8
0
 10
-11.2106
 20
180.127
 11
-11.25
 21
179.5
  0
LINE
  8
0
 10
-11.25
 20
179.5
 11
-11.25
 21
144.5
  0
LINE
  8
0
 10
-11.25
 20
144.5
 11
-11.2106
 21
143.873
  0
LINE
  8
0
 10
-11.2106
 20
143.873
 11
-11.0929
 21
143.257
  0
LINE
  8
0
 10
-11.0929
 20
143.257
 11
-10.8989
 21
142.659
  0
LINE
  8
0
 10
-10.8989
 20
142.659
 11
-10.6315
 21
142.091
  0
LINE
  8
0
 10
-10.6315
 20
142.091
 11
-10.2951
 21
141.561
  0
LINE
  8
0
 10
-10.2951
 20
141.561
 11
-9.89484
 21
141.077
  0
LINE
  8
0
 10
-9.89484
 20
141.077
 11
-9.43712
 21
140.647
  0
LINE
  8
0
 10
-9.43712
 20
140.647
 11
-8.92912
 21
140.278
  0
LINE
  8
0
 10
-8.92912
 20
140.278
 11
-8.37889
 21
139.976
  0
LINE
  8
0
 10
-8.37889
 20
139.976
 11
-7.79507
 21
139.745
  0
LINE
  8
0
 10
-7.79507
 20
139.745
 11
-7.1869
 21
139.589
  0
LINE
  8
0
 10
-7.1869
 20
139.589
 11
-6.56395
 21
139.51
  0
LINE
  8
0
 10
-6.56395
 20
139.51
 11
6.56395
 21
139.51
  0
LINE
  8
0
 10
6.56395
 20
139.51
 11
7.1869
 21
139.589
  0
LINE
  8
0
 10
-6.13246
 20
142.645
 11
-6.39529
 21
142.678
  0
LINE
  8
0
 10
-6.39529
 20
142.678
 11
-6.6519
 21
142.744
  0
LINE
  8
0
 10
-6.6519
 20
142.744
 11
-6.89822
 21
142.841
  0
LINE
  8
0
 10
-6.89822
 20
142.841
 11
-7.13039
 21
142.969
  0
LINE
  8
0
 10
-7.13039
 20
142.969
 11
-7.34473
 21
143.125
  0
LINE
  8
0
 10
-7.34473
 20
143.125
 11
-7.53784
 21
143.306
  0
LINE
  8
0
 10
-7.53784
 20
143.306
 11
-7.70673
 21
143.51
  0
LINE
  8
0
 10
-7.70673
 20
143.51
 11
-7.84868
 21
143.734
  0
LINE
  8
0
 10
-7.84868
 20
143.734
 11
-7.96149
 21
143.973
  0
LINE
  8
0
 10
-7.96149
 20
143.973
 11
-8.04335
 21
144.225
  0
LINE
  8
0
 10
-8.04335
 20
144.225
 11
-8.09299
 21
144.486
  0
LINE
  8
0
 10
-8.09299
 20
144.486
 11
-8.10962
 21
144.75
  0
LINE
  8
0
 10
-8.10962
 20
144.75
 11
-8.10962
 21
179.25
  0
LINE
  8
0
 10
-8.10962
 20
179.25
 11
-8.09299
 21
179.514
  0
LINE
  8
0
 10
-8.09299
 20
179.514
 11
-8.04335
 21
179.775
  0
LINE
  8
0
 10
-8.04335
 20
179.775
 11
-7.96149
 21
180.027
  0
LINE
  8
0
 10
-7.96149
 20
180.027
 11
-7.84868
 21
180.266
  0
LINE
  8
0
 10
-7.84868
 20
180.266
 11
-7.70673
 21
180.49
  0
LINE
  8
0
 10
-7.70673
 20
180.49
 11
-7.53784
 21
180.694
  0
LINE
  8
0
 10
-7.53784
 20
180.694
 11
-7.34473
 21
180.875
  0
LINE
  8
0
 10
-7.34473
 20
180.875
 11
-7.13039
 21
181.031
  0
LINE
  8
0
 10
-7.13039
 20
181.031
 11
-6.89822
 21
181.159
  0
LINE
  8
0
 10
-6.89822
 20
181.159
 11
-6.6519
 21
181.256
  0
LINE
  8
0
 10
-6.6519
 20
181.256
 11
-6.39529
 21
181.322
  0
LINE
  8
0
 10
-6.39529
 20
181.322
 11
-6.13246
 21
181.355
  0
LINE
  8
0
 10
-6.13246
 20
181.355
 11
6.13246
 21
181.355
  0
LINE
  8
0
 10
6.13246
 20
181.355
 11
6.39529
 21
181.322
  0
LINE
  8
0
 10
6.39529
 20
181.322
 11
6.6519
 21
181.256
  0
LINE
  8
0
 10
6.6519
 20
181.256
 11
6.89822
 21
181.159
  0
LINE
  8
0
 10
6.89822
 20
181.159
 11
7.13039
 21
181.031
  0
LINE
  8
0
 10
7.13039
 20
181.031
 11
7.34473
 21
180.875
  0
LINE
  8
0
 10
7.34473
 20
180.875
 11
7.53784
 21
180.694
  0
LINE
  8
0
 10
7.53784
 20
180.694
 11
7.70673
 21
180.49
  0
LINE
  8
0
 10
7.70673
 20
180.49
 11
7.84868
 21
180.266
  0
LINE
  8
0
 10
7.84868
 20
180.266
 11
7.96149
 21
180.027
  0
LINE
  8
0
 10
7.96149
 20
180.027
 11
8.04335
 21
179.775
  0
LINE
  8
0
 10
8.04335
 20
179.775
 11
8.09299
 21
179.514
  0
LINE
  8
0
 10
8.09299
 20
179.514
 11
8.10962
 21
179.25
  0
LINE
  8
0
 10
8.10962
 20
179.25
 11
8.10962
 21
144.75
  0
LINE
  8
0
 10
8.10962
 20
144.75
 11
8.09299
 21
144.486
  0
LINE
  8
0
 10
8.09299
 20
144.486
 11
8.04335
 21
144.225
  0
LINE
  8
0
 10
8.04335
 20
144.225
 11
7.96149
 21
143.973
  0
LINE
  8
0
 10
7.96149
 20
143.973
 11
7.84868
 21
143.734
  0
LINE
  8
0
 10
7.84868
 20
143.734
 11
7.70673
 21
143.51
  0
LINE
  8
0
 10
7.70673
 20
143.51
 11
7.53784
 21
143.306
  0
LINE
  8
0
 10
7.53784
 20
143.306
 11
7.34473
 21
143.125
  0
LINE
  8
0
 10
7.34473
 20
143.125
 11
7.13039
 21
142.969
  0
LINE
  8
0
 10
7.13039
 20
142.969
 11
6.89822
 21
142.841
  0
LINE
  8
0
 10
6.89822
 20
142.841
 11
6.6519
 21
142.744
  0
LINE
  8
0
 10
6.6519
 20
142.744
 11
6.39529
 21
142.678
  0
LINE
  8
0
 10
6.39529
 20
142.678
 11
6.13246
 21
142.645
  0
LINE
  8
0
 10
6.13246
 20
142.645
 11
-6.13246
 21
142.645
  0
ENDSEC
  0
SECTION
  2
OBJECTS
  0
DICTIONARY
  0
ENDSEC
  0
EOF
