  0
SECTION
  2
BLOCKS
  0
ENDSEC
  0
SECTION
  2
ENTITIES
  0
LINE
  8
0
 10
55.9369
 20
301.589
 11
56.5451
 21
301.745
  0
LINE
  8
0
 10
56.5451
 20
301.745
 11
57.1289
 21
301.976
  0
LINE
  8
0
 10
57.1289
 20
301.976
 11
57.6791
 21
302.278
  0
LINE
  8
0
 10
57.6791
 20
302.278
 11
58.1871
 21
302.647
  0
LINE
  8
0
 10
58.1871
 20
302.647
 11
58.6448
 21
303.077
  0
LINE
  8
0
 10
58.6448
 20
303.077
 11
59.0451
 21
303.561
  0
LINE
  8
0
 10
59.0451
 20
303.561
 11
59.3815
 21
304.091
  0
LINE
  8
0
 10
59.3815
 20
304.091
 11
59.6489
 21
304.659
  0
LINE
  8
0
 10
59.6489
 20
304.659
 11
59.8429
 21
305.257
  0
LINE
  8
0
 10
59.8429
 20
305.257
 11
59.9606
 21
305.873
  0
LINE
  8
0
 10
59.9606
 20
305.873
 11
60
 21
306.5
  0
LINE
  8
0
 10
60
 20
306.5
 11
60
 21
341.5
  0
LINE
  8
0
 10
60
 20
341.5
 11
59.9606
 21
342.127
  0
LINE
  8
0
 10
59.9606
 20
342.127
 11
59.8429
 21
342.743
  0
LINE
  8
0
 10
59.8429
 20
342.743
 11
59.6489
 21
343.341
  0
LINE
  8
0
 10
59.6489
 20
343.341
 11
59.3815
 21
343.909
  0
LINE
  8
0
 10
59.3815
 20
343.909
 11
59.0451
 21
344.439
  0
LINE
  8
0
 10
59.0451
 20
344.439
 11
58.6448
 21
344.923
  0
LINE
  8
0
 10
58.6448
 20
344.923
 11
58.1871
 21
345.353
  0
LINE
  8
0
 10
58.1871
 20
345.353
 11
57.6791
 21
345.722
  0
LINE
  8
0
 10
57.6791
 20
345.722
 11
57.1289
 21
346.024
  0
LINE
  8
0
 10
57.1289
 20
346.024
 11
56.5451
 21
346.255
  0
LINE
  8
0
 10
56.5451
 20
346.255
 11
55.9369
 21
346.411
  0
LINE
  8
0
 10
55.9369
 20
346.411
 11
55.3139
 21
346.49
  0
LINE
  8
0
 10
55.3139
 20
346.49
 11
-55.3139
 21
346.49
  0
LINE
  8
0
 10
-55.3139
 20
346.49
 11
-55.9369
 21
346.411
  0
LINE
  8
0
 10
-55.9369
 20
346.411
 11
-56.5451
 21
346.255
  0
LINE
  8
0
 10
-56.5451
 20
346.255
 11
-57
 21
346.075
  0
LINE
  8
0
 10
-57
 20
346.075
 11
-57
 21
346.115
  0
LINE
  8
0
 10
-57
 20
346.115
 11
-60
 21
346.115
  0
LINE
  8
0
 10
-60
 20
346.115
 11
-60
 21
301.885
  0
LINE
  8
0
 10
-60
 20
301.885
 11
-57
 21
301.885
  0
LINE
  8
0
 10
-57
 20
301.885
 11
-57
 21
301.925
  0
LINE
  8
0
 10
-57
 20
301.925
 11
-56.5451
 21
301.745
  0
LINE
  8
0
 10
-56.5451
 20
301.745
 11
-55.9369
 21
301.589
  0
LINE
  8
0
 10
-55.9369
 20
301.589
 11
-55.3139
 21
301.51
  0
LINE
  8
0
 10
-55.3139
 20
301.51
 11
55.3139
 21
301.51
  0
LINE
  8
0
 10
55.3139
 20
301.51
 11
55.9369
 21
301.589
  0
LINE
  8
0
 10
-54.7512
 20
303.008
 11
-55.2495
 21
303.071
  0
LINE
  8
0
 10
-55.2495
 20
303.071
 11
-55.7361
 21
303.196
  0
LINE
  8
0
 10
-55.7361
 20
303.196
 11
-56.2031
 21
303.381
  0
LINE
  8
0
 10
-56.2031
 20
303.381
 11
-56.6433
 21
303.623
  0
LINE
  8
0
 10
-56.6433
 20
303.623
 11
-57.0497
 21
303.918
  0
LINE
  8
0
 10
-57.0497
 20
303.918
 11
-57.4159
 21
304.262
  0
LINE
  8
0
 10
-57.4159
 20
304.262
 11
-57.7361
 21
304.649
  0
LINE
  8
0
 10
-57.7361
 20
304.649
 11
-58.0052
 21
305.073
  0
LINE
  8
0
 10
-58.0052
 20
305.073
 11
-58.2191
 21
305.528
  0
LINE
  8
0
 10
-58.2191
 20
305.528
 11
-58.3743
 21
306.005
  0
LINE
  8
0
 10
-58.3743
 20
306.005
 11
-58.4685
 21
306.499
  0
LINE
  8
0
 10
-58.4685
 20
306.499
 11
-58.5
 21
307
  0
LINE
  8
0
 10
-58.5
 20
307
 11
-58.5
 21
341
  0
LINE
  8
0
 10
-58.5
 20
341
 11
-58.4685
 21
341.501
  0
LINE
  8
0
 10
-58.4685
 20
341.501
 11
-58.3743
 21
341.995
  0
LINE
  8
0
 10
-58.3743
 20
341.995
 11
-58.2191
 21
342.472
  0
LINE
  8
0
 10
-58.2191
 20
342.472
 11
-58.0052
 21
342.927
  0
LINE
  8
0
 10
-58.0052
 20
342.927
 11
-57.7361
 21
343.351
  0
LINE
  8
0
 10
-57.7361
 20
343.351
 11
-57.4159
 21
343.738
  0
LINE
  8
0
 10
-57.4159
 20
343.738
 11
-57.0497
 21
344.082
  0
LINE
  8
0
 10
-57.0497
 20
344.082
 11
-56.6433
 21
344.377
  0
LINE
  8
0
 10
-56.6433
 20
344.377
 11
-56.2031
 21
344.619
  0
LINE
  8
0
 10
-56.2031
 20
344.619
 11
-55.7361
 21
344.804
  0
LINE
  8
0
 10
-55.7361
 20
344.804
 11
-55.2495
 21
344.929
  0
LINE
  8
0
 10
-55.2495
 20
344.929
 11
-54.7512
 21
344.992
  0
LINE
  8
0
 10
-54.7512
 20
344.992
 11
54.7512
 21
344.992
  0
LINE
  8
0
 10
54.7512
 20
344.992
 11
55.2495
 21
344.929
  0
LINE
  8
0
 10
55.2495
 20
344.929
 11
55.7361
 21
344.804
  0
LINE
  8
0
 10
55.7361
 20
344.804
 11
56.2031
 21
344.619
  0
LINE
  8
0
 10
56.2031
 20
344.619
 11
56.6433
 21
344.377
  0
LINE
  8
0
 10
56.6433
 20
344.377
 11
57.0497
 21
344.082
  0
LINE
  8
0
 10
57.0497
 20
344.082
 11
57.4159
 21
343.738
  0
LINE
  8
0
 10
57.4159
 20
343.738
 11
57.7361
 21
343.351
  0
LINE
  8
0
 10
57.7361
 20
343.351
 11
58.0052
 21
342.927
  0
LINE
  8
0
 10
58.0052
 20
342.927
 11
58.2191
 21
342.472
  0
LINE
  8
0
 10
58.2191
 20
342.472
 11
58.3743
 21
341.995
  0
LINE
  8
0
 10
58.3743
 20
341.995
 11
58.4685
 21
341.501
  0
LINE
  8
0
 10
58.4685
 20
341.501
 11
58.5
 21
341
  0
LINE
  8
0
 10
58.5
 20
341
 11
58.5
 21
307
  0
LINE
  8
0
 10
58.5
 20
307
 11
58.4685
 21
306.499
  0
LINE
  8
0
 10
58.4685
 20
306.499
 11
58.3743
 21
306.005
  0
LINE
  8
0
 10
58.3743
 20
306.005
 11
58.2191
 21
305.528
  0
LINE
  8
0
 10
58.2191
 20
305.528
 11
58.0052
 21
305.073
  0
LINE
  8
0
 10
58.0052
 20
305.073
 11
57.7361
 21
304.649
  0
LINE
  8
0
 10
57.7361
 20
304.649
 11
57.4159
 21
304.262
  0
LINE
  8
0
 10
57.4159
 20
304.262
 11
57.0497
 21
303.918
  0
LINE
  8
0
 10
57.0497
 20
303.918
 11
56.6433
 21
303.623
  0
LINE
  8
0
 10
56.6433
 20
303.623
 11
56.2031
 21
303.381
  0
LINE
  8
0
 10
56.2031
 20
303.381
 11
55.7361
 21
303.196
  0
LINE
  8
0
 10
55.7361
 20
303.196
 11
55.2495
 21
303.071
  0
LINE
  8
0
 10
55.2495
 20
303.071
 11
54.7512
 21
303.008
  0
LINE
  8
0
 10
54.7512
 20
303.008
 11
-54.7512
 21
303.008
  0
LINE
  8
0
 10
55.9369
 20
247.589
 11
56.5451
 21
247.745
  0
LINE
  8
0
 10
56.5451
 20
247.745
 11
57.1289
 21
247.976
  0
LINE
  8
0
 10
57.1289
 20
247.976
 11
57.6791
 21
248.278
  0
LINE
  8
0
 10
57.6791
 20
248.278
 11
58.1871
 21
248.647
  0
LINE
  8
0
 10
58.1871
 20
248.647
 11
58.6448
 21
249.077
  0
LINE
  8
0
 10
58.6448
 20
249.077
 11
59.0451
 21
249.561
  0
LINE
  8
0
 10
59.0451
 20
249.561
 11
59.3815
 21
250.091
  0
LINE
  8
0
 10
59.3815
 20
250.091
 11
59.6489
 21
250.659
  0
LINE
  8
0
 10
59.6489
 20
250.659
 11
59.8429
 21
251.257
  0
LINE
  8
0
 10
59.8429
 20
251.257
 11
59.9606
 21
251.873
  0
LINE
  8
0
 10
59.9606
 20
251.873
 11
60
 21
252.5
  0
LINE
  8
0
 10
60
 20
252.5
 11
60
 21
287.5
  0
LINE
  8
0
 10
60
 20
287.5
 11
59.9606
 21
288.127
  0
LINE
  8
0
 10
59.9606
 20
288.127
 11
59.8429
 21
288.743
  0
LINE
  8
0
 10
59.8429
 20
288.743
 11
59.6489
 21
289.341
  0
LINE
  8
0
 10
59.6489
 20
289.341
 11
59.3815
 21
289.909
  0
LINE
  8
0
 10
59.3815
 20
289.909
 11
59.0451
 21
290.439
  0
LINE
  8
0
 10
59.0451
 20
290.439
 11
58.6448
 21
290.923
  0
LINE
  8
0
 10
58.6448
 20
290.923
 11
58.1871
 21
291.353
  0
LINE
  8
0
 10
58.1871
 20
291.353
 11
57.6791
 21
291.722
  0
LINE
  8
0
 10
57.6791
 20
291.722
 11
57.1289
 21
292.024
  0
LINE
  8
0
 10
57.1289
 20
292.024
 11
56.5451
 21
292.255
  0
LINE
  8
0
 10
56.5451
 20
292.255
 11
55.9369
 21
292.411
  0
LINE
  8
0
 10
55.9369
 20
292.411
 11
55.3139
 21
292.49
  0
LINE
  8
0
 10
55.3139
 20
292.49
 11
-55.3139
 21
292.49
  0
LINE
  8
0
 10
-55.3139
 20
292.49
 11
-55.9369
 21
292.411
  0
LINE
  8
0
 10
-55.9369
 20
292.411
 11
-56.5451
 21
292.255
  0
LINE
  8
0
 10
-56.5451
 20
292.255
 11
-57.1289
 21
292.024
  0
LINE
  8
0
 10
-57.1289
 20
292.024
 11
-57.6791
 21
291.722
  0
LINE
  8
0
 10
-57.6791
 20
291.722
 11
-58.1871
 21
291.353
  0
LINE
  8
0
 10
-58.1871
 20
291.353
 11
-58.6448
 21
290.923
  0
LINE
  8
0
 10
-58.6448
 20
290.923
 11
-59.0451
 21
290.439
  0
LINE
  8
0
 10
-59.0451
 20
290.439
 11
-59.3815
 21
289.909
  0
LINE
  8
0
 10
-59.3815
 20
289.909
 11
-59.6489
 21
289.341
  0
LINE
  8
0
 10
-59.6489
 20
289.341
 11
-59.8429
 21
288.743
  0
LINE
  8
0
 10
-59.8429
 20
288.743
 11
-59.9
 21
288.444
  0
LINE
  8
0
 10
-59.9
 20
288.444
 11
-60
 21
288.444
  0
LINE
  8
0
 10
-60
 20
288.444
 11
-60
 21
251.556
  0
LINE
  8
0
 10
-60
 20
251.556
 11
-59.9
 21
251.556
  0
LINE
  8
0
 10
-59.9
 20
251.556
 11
-59.8429
 21
251.257
  0
LINE
  8
0
 10
-59.8429
 20
251.257
 11
-59.6489
 21
250.659
  0
LINE
  8
0
 10
-59.6489
 20
250.659
 11
-59.3815
 21
250.091
  0
LINE
  8
0
 10
-59.3815
 20
250.091
 11
-59.0451
 21
249.561
  0
LINE
  8
0
 10
-59.0451
 20
249.561
 11
-58.6448
 21
249.077
  0
LINE
  8
0
 10
-58.6448
 20
249.077
 11
-58.1871
 21
248.647
  0
LINE
  8
0
 10
-58.1871
 20
248.647
 11
-57.6791
 21
248.278
  0
LINE
  8
0
 10
-57.6791
 20
248.278
 11
-57.1289
 21
247.976
  0
LINE
  8
0
 10
-57.1289
 20
247.976
 11
-56.5451
 21
247.745
  0
LINE
  8
0
 10
-56.5451
 20
247.745
 11
-55.9369
 21
247.589
  0
LINE
  8
0
 10
-55.9369
 20
247.589
 11
-55.3139
 21
247.51
  0
LINE
  8
0
 10
-55.3139
 20
247.51
 11
55.3139
 21
247.51
  0
LINE
  8
0
 10
55.3139
 20
247.51
 11
55.9369
 21
247.589
  0
LINE
  8
0
 10
-54.7432
 20
249.135
 11
-55.2256
 21
249.196
  0
LINE
  8
0
 10
-55.2256
 20
249.196
 11
-55.6967
 21
249.317
  0
LINE
  8
0
 10
-55.6967
 20
249.317
 11
-56.1489
 21
249.496
  0
LINE
  8
0
 10
-56.1489
 20
249.496
 11
-56.5751
 21
249.73
  0
LINE
  8
0
 10
-56.5751
 20
249.73
 11
-56.9685
 21
250.016
  0
LINE
  8
0
 10
-56.9685
 20
250.016
 11
-57.323
 21
250.349
  0
LINE
  8
0
 10
-57.323
 20
250.349
 11
-57.633
 21
250.724
  0
LINE
  8
0
 10
-57.633
 20
250.724
 11
-57.8936
 21
251.134
  0
LINE
  8
0
 10
-57.8936
 20
251.134
 11
-58.1007
 21
251.574
  0
LINE
  8
0
 10
-58.1007
 20
251.574
 11
-58.251
 21
252.037
  0
LINE
  8
0
 10
-58.251
 20
252.037
 11
-58.3421
 21
252.515
  0
LINE
  8
0
 10
-58.3421
 20
252.515
 11
-58.3726
 21
253
  0
LINE
  8
0
 10
-58.3726
 20
253
 11
-58.3726
 21
287
  0
LINE
  8
0
 10
-58.3726
 20
287
 11
-58.3421
 21
287.485
  0
LINE
  8
0
 10
-58.3421
 20
287.485
 11
-58.251
 21
287.963
  0
LINE
  8
0
 10
-58.251
 20
287.963
 11
-58.1007
 21
288.426
  0
LINE
  8
0
 10
-58.1007
 20
288.426
 11
-57.8936
 21
288.866
  0
LINE
  8
0
 10
-57.8936
 20
288.866
 11
-57.633
 21
289.276
  0
LINE
  8
0
 10
-57.633
 20
289.276
 11
-57.323
 21
289.651
  0
LINE
  8
0
 10
-57.323
 20
289.651
 11
-56.9685
 21
289.984
  0
LINE
  8
0
 10
-56.9685
 20
289.984
 11
-56.5751
 21
290.27
  0
LINE
  8
0
 10
-56.5751
 20
290.27
 11
-56.1489
 21
290.504
  0
LINE
  8
0
 10
-56.1489
 20
290.504
 11
-55.6967
 21
290.683
  0
LINE
  8
0
 10
-55.6967
 20
290.683
 11
-55.2256
 21
290.804
  0
LINE
  8
0
 10
-55.2256
 20
290.804
 11
-54.7432
 21
290.865
  0
LINE
  8
0
 10
-54.7432
 20
290.865
 11
54.7432
 21
290.865
  0
LINE
  8
0
 10
54.7432
 20
290.865
 11
55.2256
 21
290.804
  0
LINE
  8
0
 10
55.2256
 20
290.804
 11
55.6967
 21
290.683
  0
LINE
  8
0
 10
55.6967
 20
290.683
 11
56.1489
 21
290.504
  0
LINE
  8
0
 10
56.1489
 20
290.504
 11
56.5751
 21
290.27
  0
LINE
  8
0
 10
56.5751
 20
290.27
 11
56.9685
 21
289.984
  0
LINE
  8
0
 10
56.9685
 20
289.984
 11
57.323
 21
289.651
  0
LINE
  8
0
 10
57.323
 20
289.651
 11
57.633
 21
289.276
  0
LINE
  8
0
 10
57.633
 20
289.276
 11
57.8936
 21
288.866
  0
LINE
  8
0
 10
57.8936
 20
288.866
 11
58.1007
 21
288.426
  0
LINE
  8
0
 10
58.1007
 20
288.426
 11
58.251
 21
287.963
  0
LINE
  8
0
 10
58.251
 20
287.963
 11
58.3421
 21
287.485
  0
LINE
  8
0
 10
58.3421
 20
287.485
 11
58.3726
 21
287
  0
LINE
  8
0
 10
58.3726
 20
287
 11
58.3726
 21
253
  0
LINE
  8
0
 10
58.3726
 20
253
 11
58.3421
 21
252.515
  0
LINE
  8
0
 10
58.3421
 20
252.515
 11
58.251
 21
252.037
  0
LINE
  8
0
 10
58.251
 20
252.037
 11
58.1007
 21
251.574
  0
LINE
  8
0
 10
58.1007
 20
251.574
 11
57.8936
 21
251.134
  0
LINE
  8
0
 10
57.8936
 20
251.134
 11
57.633
 21
250.724
  0
LINE
  8
0
 10
57.633
 20
250.724
 11
57.323
 21
250.349
  0
LINE
  8
0
 10
57.323
 20
250.349
 11
56.9685
 21
250.016
  0
LINE
  8
0
 10
56.9685
 20
250.016
 11
56.5751
 21
249.73
  0
LINE
  8
0
 10
56.5751
 20
249.73
 11
56.1489
 21
249.496
  0
LINE
  8
0
 10
56.1489
 20
249.496
 11
55.6967
 21
249.317
  0
LINE
  8
0
 10
55.6967
 20
249.317
 11
55.2256
 21
249.196
  0
LINE
  8
0
 10
55.2256
 20
249.196
 11
54.7432
 21
249.135
  0
LINE
  8
0
 10
54.7432
 20
249.135
 11
-54.7432
 21
249.135
  0
LINE
  8
0
 10
55.9369
 20
193.589
 11
56.5451
 21
193.745
  0
LINE
  8
0
 10
56.5451
 20
193.745
 11
57.1289
 21
193.976
  0
LINE
  8
0
 10
57.1289
 20
193.976
 11
57.6791
 21
194.278
  0
LINE
  8
0
 10
57.6791
 20
194.278
 11
58.1871
 21
194.647
  0
LINE
  8
0
 10
58.1871
 20
194.647
 11
58.6448
 21
195.077
  0
LINE
  8
0
 10
58.6448
 20
195.077
 11
59.0451
 21
195.561
  0
LINE
  8
0
 10
59.0451
 20
195.561
 11
59.3815
 21
196.091
  0
LINE
  8
0
 10
59.3815
 20
196.091
 11
59.6489
 21
196.659
  0
LINE
  8
0
 10
59.6489
 20
196.659
 11
59.8429
 21
197.257
  0
LINE
  8
0
 10
59.8429
 20
197.257
 11
59.9606
 21
197.873
  0
LINE
  8
0
 10
59.9606
 20
197.873
 11
60
 21
198.5
  0
LINE
  8
0
 10
60
 20
198.5
 11
60
 21
233.5
  0
LINE
  8
0
 10
60
 20
233.5
 11
59.9606
 21
234.127
  0
LINE
  8
0
 10
59.9606
 20
234.127
 11
59.8429
 21
234.743
  0
LINE
  8
0
 10
59.8429
 20
234.743
 11
59.6489
 21
235.341
  0
LINE
  8
0
 10
59.6489
 20
235.341
 11
59.3815
 21
235.909
  0
LINE
  8
0
 10
59.3815
 20
235.909
 11
59.0451
 21
236.439
  0
LINE
  8
0
 10
59.0451
 20
236.439
 11
58.6448
 21
236.923
  0
LINE
  8
0
 10
58.6448
 20
236.923
 11
58.1871
 21
237.353
  0
LINE
  8
0
 10
58.1871
 20
237.353
 11
57.6791
 21
237.722
  0
LINE
  8
0
 10
57.6791
 20
237.722
 11
57.1289
 21
238.024
  0
LINE
  8
0
 10
57.1289
 20
238.024
 11
56.5451
 21
238.255
  0
LINE
  8
0
 10
56.5451
 20
238.255
 11
55.9369
 21
238.411
  0
LINE
  8
0
 10
55.9369
 20
238.411
 11
55.3139
 21
238.49
  0
LINE
  8
0
 10
55.3139
 20
238.49
 11
-55.3139
 21
238.49
  0
LINE
  8
0
 10
-55.3139
 20
238.49
 11
-55.9369
 21
238.411
  0
LINE
  8
0
 10
-55.9369
 20
238.411
 11
-56.5451
 21
238.255
  0
LINE
  8
0
 10
-56.5451
 20
238.255
 11
-57.1289
 21
238.024
  0
LINE
  8
0
 10
-57.1289
 20
238.024
 11
-57.6791
 21
237.722
  0
LINE
  8
0
 10
-57.6791
 20
237.722
 11
-58.1871
 21
237.353
  0
LINE
  8
0
 10
-58.1871
 20
237.353
 11
-58.6448
 21
236.923
  0
LINE
  8
0
 10
-58.6448
 20
236.923
 11
-59.0451
 21
236.439
  0
LINE
  8
0
 10
-59.0451
 20
236.439
 11
-59.3815
 21
235.909
  0
LINE
  8
0
 10
-59.3815
 20
235.909
 11
-59.6489
 21
235.341
  0
LINE
  8
0
 10
-59.6489
 20
235.341
 11
-59.8429
 21
234.743
  0
LINE
  8
0
 10
-59.8429
 20
234.743
 11
-59.9606
 21
234.127
  0
LINE
  8
0
 10
-59.9606
 20
234.127
 11
-60
 21
233.5
  0
LINE
  8
0
 10
-60
 20
233.5
 11
-60
 21
198.5
  0
LINE
  8
0
 10
-60
 20
198.5
 11
-59.9606
 21
197.873
  0
LINE
  8
0
 10
-59.9606
 20
197.873
 11
-59.8429
 21
197.257
  0
LINE
  8
0
 10
-59.8429
 20
197.257
 11
-59.6489
 21
196.659
  0
LINE
  8
0
 10
-59.6489
 20
196.659
 11
-59.3815
 21
196.091
  0
LINE
  8
0
 10
-59.3815
 20
196.091
 11
-59.0451
 21
195.561
  0
LINE
  8
0
 10
-59.0451
 20
195.561
 11
-58.6448
 21
195.077
  0
LINE
  8
0
 10
-58.6448
 20
195.077
 11
-58.1871
 21
194.647
  0
LINE
  8
0
 10
-58.1871
 20
194.647
 11
-57.6791
 21
194.278
  0
LINE
  8
0
 10
-57.6791
 20
194.278
 11
-57.1289
 21
193.976
  0
LINE
  8
0
 10
-57.1289
 20
193.976
 11
-56.5451
 21
193.745
  0
LINE
  8
0
 10
-56.5451
 20
193.745
 11
-55.9369
 21
193.589
  0
LINE
  8
0
 10
-55.9369
 20
193.589
 11
-55.3139
 21
193.51
  0
LINE
  8
0
 10
-55.3139
 20
193.51
 11
55.3139
 21
193.51
  0
LINE
  8
0
 10
55.3139
 20
193.51
 11
55.9369
 21
193.589
  0
LINE
  8
0
 10
-52.6507
 20
228.605
 11
-52.9497
 21
228.643
  0
LINE
  8
0
 10
-52.9497
 20
228.643
 11
-53.2416
 21
228.717
  0
LINE
  8
0
 10
-53.2416
 20
228.717
 11
-53.5219
 21
228.828
  0
LINE
  8
0
 10
-53.5219
 20
228.828
 11
-53.786
 21
228.974
  0
LINE
  8
0
 10
-53.786
 20
228.974
 11
-54.0298
 21
229.151
  0
LINE
  8
0
 10
-54.0298
 20
229.151
 11
-54.2495
 21
229.357
  0
LINE
  8
0
 10
-54.2495
 20
229.357
 11
-54.4416
 21
229.589
  0
LINE
  8
0
 10
-54.4416
 20
229.589
 11
-54.6031
 21
229.844
  0
LINE
  8
0
 10
-54.6031
 20
229.844
 11
-54.7315
 21
230.117
  0
LINE
  8
0
 10
-54.7315
 20
230.117
 11
-54.8246
 21
230.403
  0
LINE
  8
0
 10
-54.8246
 20
230.403
 11
-54.8811
 21
230.699
  0
LINE
  8
0
 10
-54.8811
 20
230.699
 11
-54.9
 21
231
  0
LINE
  8
0
 10
-54.9
 20
231
 11
-54.8811
 21
231.301
  0
LINE
  8
0
 10
-54.8811
 20
231.301
 11
-54.8246
 21
231.597
  0
LINE
  8
0
 10
-54.8246
 20
231.597
 11
-54.7315
 21
231.883
  0
LINE
  8
0
 10
-54.7315
 20
231.883
 11
-54.6031
 21
232.156
  0
LINE
  8
0
 10
-54.6031
 20
232.156
 11
-54.4416
 21
232.411
  0
LINE
  8
0
 10
-54.4416
 20
232.411
 11
-54.2495
 21
232.643
  0
LINE
  8
0
 10
-54.2495
 20
232.643
 11
-54.0298
 21
232.849
  0
LINE
  8
0
 10
-54.0298
 20
232.849
 11
-53.786
 21
233.026
  0
LINE
  8
0
 10
-53.786
 20
233.026
 11
-53.5219
 21
233.172
  0
LINE
  8
0
 10
-53.5219
 20
233.172
 11
-53.2416
 21
233.283
  0
LINE
  8
0
 10
-53.2416
 20
233.283
 11
-52.9497
 21
233.357
  0
LINE
  8
0
 10
-52.9497
 20
233.357
 11
-52.6507
 21
233.395
  0
LINE
  8
0
 10
-52.6507
 20
233.395
 11
-52.3493
 21
233.395
  0
LINE
  8
0
 10
-52.3493
 20
233.395
 11
-52.0503
 21
233.357
  0
LINE
  8
0
 10
-52.0503
 20
233.357
 11
-51.7584
 21
233.283
  0
LINE
  8
0
 10
-51.7584
 20
233.283
 11
-51.4781
 21
233.172
  0
LINE
  8
0
 10
-51.4781
 20
233.172
 11
-51.214
 21
233.026
  0
LINE
  8
0
 10
-51.214
 20
233.026
 11
-50.9702
 21
232.849
  0
LINE
  8
0
 10
-50.9702
 20
232.849
 11
-50.7505
 21
232.643
  0
LINE
  8
0
 10
-50.7505
 20
232.643
 11
-50.5583
 21
232.411
  0
LINE
  8
0
 10
-50.5583
 20
232.411
 11
-50.3969
 21
232.156
  0
LINE
  8
0
 10
-50.3969
 20
232.156
 11
-50.2685
 21
231.883
  0
LINE
  8
0
 10
-50.2685
 20
231.883
 11
-50.1754
 21
231.597
  0
LINE
  8
0
 10
-50.1754
 20
231.597
 11
-50.1189
 21
231.301
  0
LINE
  8
0
 10
-50.1189
 20
231.301
 11
-50.1
 21
231
  0
LINE
  8
0
 10
-50.1
 20
231
 11
-50.1189
 21
230.699
  0
LINE
  8
0
 10
-50.1189
 20
230.699
 11
-50.1754
 21
230.403
  0
LINE
  8
0
 10
-50.1754
 20
230.403
 11
-50.2685
 21
230.117
  0
LINE
  8
0
 10
-50.2685
 20
230.117
 11
-50.3969
 21
229.844
  0
LINE
  8
0
 10
-50.3969
 20
229.844
 11
-50.5583
 21
229.589
  0
LINE
  8
0
 10
-50.5583
 20
229.589
 11
-50.7505
 21
229.357
  0
LINE
  8
0
 10
-50.7505
 20
229.357
 11
-50.9702
 21
229.151
  0
LINE
  8
0
 10
-50.9702
 20
229.151
 11
-51.214
 21
228.974
  0
LINE
  8
0
 10
-51.214
 20
228.974
 11
-51.4781
 21
228.828
  0
LINE
  8
0
 10
-51.4781
 20
228.828
 11
-51.7584
 21
228.717
  0
LINE
  8
0
 10
-51.7584
 20
228.717
 11
-52.0503
 21
228.643
  0
LINE
  8
0
 10
-52.0503
 20
228.643
 11
-52.3493
 21
228.605
  0
LINE
  8
0
 10
-52.3493
 20
228.605
 11
-52.6507
 21
228.605
  0
LINE
  8
0
 10
52.3493
 20
228.605
 11
52.0503
 21
228.643
  0
LINE
  8
0
 10
52.0503
 20
228.643
 11
51.7584
 21
228.717
  0
LINE
  8
0
 10
51.7584
 20
228.717
 11
51.4781
 21
228.828
  0
LINE
  8
0
 10
51.4781
 20
228.828
 11
51.214
 21
228.974
  0
LINE
  8
0
 10
51.214
 20
228.974
 11
50.9702
 21
229.151
  0
LINE
  8
0
 10
50.9702
 20
229.151
 11
50.7505
 21
229.357
  0
LINE
  8
0
 10
50.7505
 20
229.357
 11
50.5583
 21
229.589
  0
LINE
  8
0
 10
50.5583
 20
229.589
 11
50.3969
 21
229.844
  0
LINE
  8
0
 10
50.3969
 20
229.844
 11
50.2685
 21
230.117
  0
LINE
  8
0
 10
50.2685
 20
230.117
 11
50.1754
 21
230.403
  0
LINE
  8
0
 10
50.1754
 20
230.403
 11
50.1189
 21
230.699
  0
LINE
  8
0
 10
50.1189
 20
230.699
 11
50.1
 21
231
  0
LINE
  8
0
 10
50.1
 20
231
 11
50.1189
 21
231.301
  0
LINE
  8
0
 10
50.1189
 20
231.301
 11
50.1754
 21
231.597
  0
LINE
  8
0
 10
50.1754
 20
231.597
 11
50.2685
 21
231.883
  0
LINE
  8
0
 10
50.2685
 20
231.883
 11
50.3969
 21
232.156
  0
LINE
  8
0
 10
50.3969
 20
232.156
 11
50.5583
 21
232.411
  0
LINE
  8
0
 10
50.5583
 20
232.411
 11
50.7505
 21
232.643
  0
LINE
  8
0
 10
50.7505
 20
232.643
 11
50.9702
 21
232.849
  0
LINE
  8
0
 10
50.9702
 20
232.849
 11
51.214
 21
233.026
  0
LINE
  8
0
 10
51.214
 20
233.026
 11
51.4781
 21
233.172
  0
LINE
  8
0
 10
51.4781
 20
233.172
 11
51.7584
 21
233.283
  0
LINE
  8
0
 10
51.7584
 20
233.283
 11
52.0503
 21
233.357
  0
LINE
  8
0
 10
52.0503
 20
233.357
 11
52.3493
 21
233.395
  0
LINE
  8
0
 10
52.3493
 20
233.395
 11
52.6507
 21
233.395
  0
LINE
  8
0
 10
52.6507
 20
233.395
 11
52.9497
 21
233.357
  0
LINE
  8
0
 10
52.9497
 20
233.357
 11
53.2416
 21
233.283
  0
LINE
  8
0
 10
53.2416
 20
233.283
 11
53.5219
 21
233.172
  0
LINE
  8
0
 10
53.5219
 20
233.172
 11
53.786
 21
233.026
  0
LINE
  8
0
 10
53.786
 20
233.026
 11
54.0298
 21
232.849
  0
LINE
  8
0
 10
54.0298
 20
232.849
 11
54.2495
 21
232.643
  0
LINE
  8
0
 10
54.2495
 20
232.643
 11
54.4416
 21
232.411
  0
LINE
  8
0
 10
54.4416
 20
232.411
 11
54.6031
 21
232.156
  0
LINE
  8
0
 10
54.6031
 20
232.156
 11
54.7315
 21
231.883
  0
LINE
  8
0
 10
54.7315
 20
231.883
 11
54.8246
 21
231.597
  0
LINE
  8
0
 10
54.8246
 20
231.597
 11
54.8811
 21
231.301
  0
LINE
  8
0
 10
54.8811
 20
231.301
 11
54.9
 21
231
  0
LINE
  8
0
 10
54.9
 20
231
 11
54.8811
 21
230.699
  0
LINE
  8
0
 10
54.8811
 20
230.699
 11
54.8246
 21
230.403
  0
LINE
  8
0
 10
54.8246
 20
230.403
 11
54.7315
 21
230.117
  0
LINE
  8
0
 10
54.7315
 20
230.117
 11
54.6031
 21
229.844
  0
LINE
  8
0
 10
54.6031
 20
229.844
 11
54.4416
 21
229.589
  0
LINE
  8
0
 10
54.4416
 20
229.589
 11
54.2495
 21
229.357
  0
LINE
  8
0
 10
54.2495
 20
229.357
 11
54.0298
 21
229.151
  0
LINE
  8
0
 10
54.0298
 20
229.151
 11
53.786
 21
228.974
  0
LINE
  8
0
 10
53.786
 20
228.974
 11
53.5219
 21
228.828
  0
LINE
  8
0
 10
53.5219
 20
228.828
 11
53.2416
 21
228.717
  0
LINE
  8
0
 10
53.2416
 20
228.717
 11
52.9497
 21
228.643
  0
LINE
  8
0
 10
52.9497
 20
228.643
 11
52.6507
 21
228.605
  0
LINE
  8
0
 10
52.6507
 20
228.605
 11
52.3493
 21
228.605
  0
LINE
  8
0
 10
52.3493
 20
198.605
 11
52.0503
 21
198.643
  0
LINE
  8
0
 10
52.0503
 20
198.643
 11
51.7584
 21
198.717
  0
LINE
  8
0
 10
51.7584
 20
198.717
 11
51.4781
 21
198.828
  0
LINE
  8
0
 10
51.4781
 20
198.828
 11
51.214
 21
198.974
  0
LINE
  8
0
 10
51.214
 20
198.974
 11
50.9702
 21
199.151
  0
LINE
  8
0
 10
50.9702
 20
199.151
 11
50.7505
 21
199.357
  0
LINE
  8
0
 10
50.7505
 20
199.357
 11
50.5583
 21
199.589
  0
LINE
  8
0
 10
50.5583
 20
199.589
 11
50.3969
 21
199.844
  0
LINE
  8
0
 10
50.3969
 20
199.844
 11
50.2685
 21
200.117
  0
LINE
  8
0
 10
50.2685
 20
200.117
 11
50.1754
 21
200.403
  0
LINE
  8
0
 10
50.1754
 20
200.403
 11
50.1189
 21
200.699
  0
LINE
  8
0
 10
50.1189
 20
200.699
 11
50.1
 21
201
  0
LINE
  8
0
 10
50.1
 20
201
 11
50.1189
 21
201.301
  0
LINE
  8
0
 10
50.1189
 20
201.301
 11
50.1754
 21
201.597
  0
LINE
  8
0
 10
50.1754
 20
201.597
 11
50.2685
 21
201.883
  0
LINE
  8
0
 10
50.2685
 20
201.883
 11
50.3969
 21
202.156
  0
LINE
  8
0
 10
50.3969
 20
202.156
 11
50.5583
 21
202.411
  0
LINE
  8
0
 10
50.5583
 20
202.411
 11
50.7505
 21
202.643
  0
LINE
  8
0
 10
50.7505
 20
202.643
 11
50.9702
 21
202.849
  0
LINE
  8
0
 10
50.9702
 20
202.849
 11
51.214
 21
203.026
  0
LINE
  8
0
 10
51.214
 20
203.026
 11
51.4781
 21
203.172
  0
LINE
  8
0
 10
51.4781
 20
203.172
 11
51.7584
 21
203.283
  0
LINE
  8
0
 10
51.7584
 20
203.283
 11
52.0503
 21
203.357
  0
LINE
  8
0
 10
52.0503
 20
203.357
 11
52.3493
 21
203.395
  0
LINE
  8
0
 10
52.3493
 20
203.395
 11
52.6507
 21
203.395
  0
LINE
  8
0
 10
52.6507
 20
203.395
 11
52.9497
 21
203.357
  0
LINE
  8
0
 10
52.9497
 20
203.357
 11
53.2416
 21
203.283
  0
LINE
  8
0
 10
53.2416
 20
203.283
 11
53.5219
 21
203.172
  0
LINE
  8
0
 10
53.5219
 20
203.172
 11
53.786
 21
203.026
  0
LINE
  8
0
 10
53.786
 20
203.026
 11
54.0298
 21
202.849
  0
LINE
  8
0
 10
54.0298
 20
202.849
 11
54.2495
 21
202.643
  0
LINE
  8
0
 10
54.2495
 20
202.643
 11
54.4416
 21
202.411
  0
LINE
  8
0
 10
54.4416
 20
202.411
 11
54.6031
 21
202.156
  0
LINE
  8
0
 10
54.6031
 20
202.156
 11
54.7315
 21
201.883
  0
LINE
  8
0
 10
54.7315
 20
201.883
 11
54.8246
 21
201.597
  0
LINE
  8
0
 10
54.8246
 20
201.597
 11
54.8811
 21
201.301
  0
LINE
  8
0
 10
54.8811
 20
201.301
 11
54.9
 21
201
  0
LINE
  8
0
 10
54.9
 20
201
 11
54.8811
 21
200.699
  0
LINE
  8
0
 10
54.8811
 20
200.699
 11
54.8246
 21
200.403
  0
LINE
  8
0
 10
54.8246
 20
200.403
 11
54.7315
 21
200.117
  0
LINE
  8
0
 10
54.7315
 20
200.117
 11
54.6031
 21
199.844
  0
LINE
  8
0
 10
54.6031
 20
199.844
 11
54.4416
 21
199.589
  0
LINE
  8
0
 10
54.4416
 20
199.589
 11
54.2495
 21
199.357
  0
LINE
  8
0
 10
54.2495
 20
199.357
 11
54.0298
 21
199.151
  0
LINE
  8
0
 10
54.0298
 20
199.151
 11
53.786
 21
198.974
  0
LINE
  8
0
 10
53.786
 20
198.974
 11
53.5219
 21
198.828
  0
LINE
  8
0
 10
53.5219
 20
198.828
 11
53.2416
 21
198.717
  0
LINE
  8
0
 10
53.2416
 20
198.717
 11
52.9497
 21
198.643
  0
LINE
  8
0
 10
52.9497
 20
198.643
 11
52.6507
 21
198.605
  0
LINE
  8
0
 10
52.6507
 20
198.605
 11
52.3493
 21
198.605
  0
LINE
  8
0
 10
-52.6507
 20
198.605
 11
-52.9497
 21
198.643
  0
LINE
  8
0
 10
-52.9497
 20
198.643
 11
-53.2416
 21
198.717
  0
LINE
  8
0
 10
-53.2416
 20
198.717
 11
-53.5219
 21
198.828
  0
LINE
  8
0
 10
-53.5219
 20
198.828
 11
-53.786
 21
198.974
  0
LINE
  8
0
 10
-53.786
 20
198.974
 11
-54.0298
 21
199.151
  0
LINE
  8
0
 10
-54.0298
 20
199.151
 11
-54.2495
 21
199.357
  0
LINE
  8
0
 10
-54.2495
 20
199.357
 11
-54.4416
 21
199.589
  0
LINE
  8
0
 10
-54.4416
 20
199.589
 11
-54.6031
 21
199.844
  0
LINE
  8
0
 10
-54.6031
 20
199.844
 11
-54.7315
 21
200.117
  0
LINE
  8
0
 10
-54.7315
 20
200.117
 11
-54.8246
 21
200.403
  0
LINE
  8
0
 10
-54.8246
 20
200.403
 11
-54.8811
 21
200.699
  0
LINE
  8
0
 10
-54.8811
 20
200.699
 11
-54.9
 21
201
  0
LINE
  8
0
 10
-54.9
 20
201
 11
-54.8811
 21
201.301
  0
LINE
  8
0
 10
-54.8811
 20
201.301
 11
-54.8246
 21
201.597
  0
LINE
  8
0
 10
-54.8246
 20
201.597
 11
-54.7315
 21
201.883
  0
LINE
  8
0
 10
-54.7315
 20
201.883
 11
-54.6031
 21
202.156
  0
LINE
  8
0
 10
-54.6031
 20
202.156
 11
-54.4416
 21
202.411
  0
LINE
  8
0
 10
-54.4416
 20
202.411
 11
-54.2495
 21
202.643
  0
LINE
  8
0
 10
-54.2495
 20
202.643
 11
-54.0298
 21
202.849
  0
LINE
  8
0
 10
-54.0298
 20
202.849
 11
-53.786
 21
203.026
  0
LINE
  8
0
 10
-53.786
 20
203.026
 11
-53.5219
 21
203.172
  0
LINE
  8
0
 10
-53.5219
 20
203.172
 11
-53.2416
 21
203.283
  0
LINE
  8
0
 10
-53.2416
 20
203.283
 11
-52.9497
 21
203.357
  0
LINE
  8
0
 10
-52.9497
 20
203.357
 11
-52.6507
 21
203.395
  0
LINE
  8
0
 10
-52.6507
 20
203.395
 11
-52.3493
 21
203.395
  0
LINE
  8
0
 10
-52.3493
 20
203.395
 11
-52.0503
 21
203.357
  0
LINE
  8
0
 10
-52.0503
 20
203.357
 11
-51.7584
 21
203.283
  0
LINE
  8
0
 10
-51.7584
 20
203.283
 11
-51.4781
 21
203.172
  0
LINE
  8
0
 10
-51.4781
 20
203.172
 11
-51.214
 21
203.026
  0
LINE
  8
0
 10
-51.214
 20
203.026
 11
-50.9702
 21
202.849
  0
LINE
  8
0
 10
-50.9702
 20
202.849
 11
-50.7505
 21
202.643
  0
LINE
  8
0
 10
-50.7505
 20
202.643
 11
-50.5583
 21
202.411
  0
LINE
  8
0
 10
-50.5583
 20
202.411
 11
-50.3969
 21
202.156
  0
LINE
  8
0
 10
-50.3969
 20
202.156
 11
-50.2685
 21
201.883
  0
LINE
  8
0
 10
-50.2685
 20
201.883
 11
-50.1754
 21
201.597
  0
LINE
  8
0
 10
-50.1754
 20
201.597
 11
-50.1189
 21
201.301
  0
LINE
  8
0
 10
-50.1189
 20
201.301
 11
-50.1
 21
201
  0
LINE
  8
0
 10
-50.1
 20
201
 11
-50.1189
 21
200.699
  0
LINE
  8
0
 10
-50.1189
 20
200.699
 11
-50.1754
 21
200.403
  0
LINE
  8
0
 10
-50.1754
 20
200.403
 11
-50.2685
 21
200.117
  0
LINE
  8
0
 10
-50.2685
 20
200.117
 11
-50.3969
 21
199.844
  0
LINE
  8
0
 10
-50.3969
 20
199.844
 11
-50.5583
 21
199.589
  0
LINE
  8
0
 10
-50.5583
 20
199.589
 11
-50.7505
 21
199.357
  0
LINE
  8
0
 10
-50.7505
 20
199.357
 11
-50.9702
 21
199.151
  0
LINE
  8
0
 10
-50.9702
 20
199.151
 11
-51.214
 21
198.974
  0
LINE
  8
0
 10
-51.214
 20
198.974
 11
-51.4781
 21
198.828
  0
LINE
  8
0
 10
-51.4781
 20
198.828
 11
-51.7584
 21
198.717
  0
LINE
  8
0
 10
-51.7584
 20
198.717
 11
-52.0503
 21
198.643
  0
LINE
  8
0
 10
-52.0503
 20
198.643
 11
-52.3493
 21
198.605
  0
LINE
  8
0
 10
-52.3493
 20
198.605
 11
-52.6507
 21
198.605
  0
LINE
  8
0
 10
55.9369
 20
139.589
 11
56.5451
 21
139.745
  0
LINE
  8
0
 10
56.5451
 20
139.745
 11
57.1289
 21
139.976
  0
LINE
  8
0
 10
57.1289
 20
139.976
 11
57.6791
 21
140.278
  0
LINE
  8
0
 10
57.6791
 20
140.278
 11
58.1871
 21
140.647
  0
LINE
  8
0
 10
58.1871
 20
140.647
 11
58.6448
 21
141.077
  0
LINE
  8
0
 10
58.6448
 20
141.077
 11
59.0451
 21
141.561
  0
LINE
  8
0
 10
59.0451
 20
141.561
 11
59.3815
 21
142.091
  0
LINE
  8
0
 10
59.3815
 20
142.091
 11
59.6489
 21
142.659
  0
LINE
  8
0
 10
59.6489
 20
142.659
 11
59.8429
 21
143.257
  0
LINE
  8
0
 10
59.8429
 20
143.257
 11
59.9606
 21
143.873
  0
LINE
  8
0
 10
59.9606
 20
143.873
 11
60
 21
144.5
  0
LINE
  8
0
 10
60
 20
144.5
 11
60
 21
179.5
  0
LINE
  8
0
 10
60
 20
179.5
 11
59.9606
 21
180.127
  0
LINE
  8
0
 10
59.9606
 20
180.127
 11
59.8429
 21
180.743
  0
LINE
  8
0
 10
59.8429
 20
180.743
 11
59.6489
 21
181.341
  0
LINE
  8
0
 10
59.6489
 20
181.341
 11
59.3815
 21
181.909
  0
LINE
  8
0
 10
59.3815
 20
181.909
 11
59.0451
 21
182.439
  0
LINE
  8
0
 10
59.0451
 20
182.439
 11
58.6448
 21
182.923
  0
LINE
  8
0
 10
58.6448
 20
182.923
 11
58.1871
 21
183.353
  0
LINE
  8
0
 10
58.1871
 20
183.353
 11
57.6791
 21
183.722
  0
LINE
  8
0
 10
57.6791
 20
183.722
 11
57.1289
 21
184.024
  0
LINE
  8
0
 10
57.1289
 20
184.024
 11
56.5451
 21
184.255
  0
LINE
  8
0
 10
56.5451
 20
184.255
 11
55.9369
 21
184.411
  0
LINE
  8
0
 10
55.9369
 20
184.411
 11
55.3139
 21
184.49
  0
LINE
  8
0
 10
55.3139
 20
184.49
 11
-55.3139
 21
184.49
  0
LINE
  8
0
 10
-55.3139
 20
184.49
 11
-55.9369
 21
184.411
  0
LINE
  8
0
 10
-55.9369
 20
184.411
 11
-56.5451
 21
184.255
  0
LINE
  8
0
 10
-56.5451
 20
184.255
 11
-57.1289
 21
184.024
  0
LINE
  8
0
 10
-57.1289
 20
184.024
 11
-57.6791
 21
183.722
  0
LINE
  8
0
 10
-57.6791
 20
183.722
 11
-58.1871
 21
183.353
  0
LINE
  8
0
 10
-58.1871
 20
183.353
 11
-58.6448
 21
182.923
  0
LINE
  8
0
 10
-58.6448
 20
182.923
 11
-59.0451
 21
182.439
  0
LINE
  8
0
 10
-59.0451
 20
182.439
 11
-59.3815
 21
181.909
  0
LINE
  8
0
 10
-59.3815
 20
181.909
 11
-59.6489
 21
181.341
  0
LINE
  8
0
 10
-59.6489
 20
181.341
 11
-59.8429
 21
180.743
  0
LINE
  8
0
 10
-59.8429
 20
180.743
 11
-59.9606
 21
180.127
  0
LINE
  8
0
 10
-59.9606
 20
180.127
 11
-60
 21
179.5
  0
LINE
  8
0
 10
-60
 20
179.5
 11
-60
 21
144.5
  0
LINE
  8
0
 10
-60
 20
144.5
 11
-59.9606
 21
143.873
  0
LINE
  8
0
 10
-59.9606
 20
143.873
 11
-59.8429
 21
143.257
  0
LINE
  8
0
 10
-59.8429
 20
143.257
 11
-59.6489
 21
142.659
  0
LINE
  8
0
 10
-59.6489
 20
142.659
 11
-59.3815
 21
142.091
  0
LINE
  8
0
 10
-59.3815
 20
142.091
 11
-59.0451
 21
141.561
  0
LINE
  8
0
 10
-59.0451
 20
141.561
 11
-58.6448
 21
141.077
  0
LINE
  8
0
 10
-58.6448
 20
141.077
 11
-58.1871
 21
140.647
  0
LINE
  8
0
 10
-58.1871
 20
140.647
 11
-57.6791
 21
140.278
  0
LINE
  8
0
 10
-57.6791
 20
140.278
 11
-57.1289
 21
139.976
  0
LINE
  8
0
 10
-57.1289
 20
139.976
 11
-56.5451
 21
139.745
  0
LINE
  8
0
 10
-56.5451
 20
139.745
 11
-55.9369
 21
139.589
  0
LINE
  8
0
 10
-55.9369
 20
139.589
 11
-55.3139
 21
139.51
  0
LINE
  8
0
 10
-55.3139
 20
139.51
 11
55.3139
 21
139.51
  0
LINE
  8
0
 10
55.3139
 20
139.51
 11
55.9369
 21
139.589
  0
LINE
  8
0
 10
-52.613
 20
175.204
 11
-52.8373
 21
175.232
  0
LINE
  8
0
 10
-52.8373
 20
175.232
 11
-53.0562
 21
175.288
  0
LINE
  8
0
 10
-53.0562
 20
175.288
 11
-53.2664
 21
175.371
  0
LINE
  8
0
 10
-53.2664
 20
175.371
 11
-53.4645
 21
175.48
  0
LINE
  8
0
 10
-53.4645
 20
175.48
 11
-53.6474
 21
175.613
  0
LINE
  8
0
 10
-53.6474
 20
175.613
 11
-53.8121
 21
175.768
  0
LINE
  8
0
 10
-53.8121
 20
175.768
 11
-53.9562
 21
175.942
  0
LINE
  8
0
 10
-53.9562
 20
175.942
 11
-54.0773
 21
176.133
  0
LINE
  8
0
 10
-54.0773
 20
176.133
 11
-54.1736
 21
176.337
  0
LINE
  8
0
 10
-54.1736
 20
176.337
 11
-54.2434
 21
176.552
  0
LINE
  8
0
 10
-54.2434
 20
176.552
 11
-54.2858
 21
176.774
  0
LINE
  8
0
 10
-54.2858
 20
176.774
 11
-54.3
 21
177
  0
LINE
  8
0
 10
-54.3
 20
177
 11
-54.2858
 21
177.226
  0
LINE
  8
0
 10
-54.2858
 20
177.226
 11
-54.2434
 21
177.448
  0
LINE
  8
0
 10
-54.2434
 20
177.448
 11
-54.1736
 21
177.663
  0
LINE
  8
0
 10
-54.1736
 20
177.663
 11
-54.0773
 21
177.867
  0
LINE
  8
0
 10
-54.0773
 20
177.867
 11
-53.9562
 21
178.058
  0
LINE
  8
0
 10
-53.9562
 20
178.058
 11
-53.8121
 21
178.232
  0
LINE
  8
0
 10
-53.8121
 20
178.232
 11
-53.6474
 21
178.387
  0
LINE
  8
0
 10
-53.6474
 20
178.387
 11
-53.4645
 21
178.52
  0
LINE
  8
0
 10
-53.4645
 20
178.52
 11
-53.2664
 21
178.629
  0
LINE
  8
0
 10
-53.2664
 20
178.629
 11
-53.0562
 21
178.712
  0
LINE
  8
0
 10
-53.0562
 20
178.712
 11
-52.8373
 21
178.768
  0
LINE
  8
0
 10
-52.8373
 20
178.768
 11
-52.613
 21
178.796
  0
LINE
  8
0
 10
-52.613
 20
178.796
 11
-52.387
 21
178.796
  0
LINE
  8
0
 10
-52.387
 20
178.796
 11
-52.1627
 21
178.768
  0
LINE
  8
0
 10
-52.1627
 20
178.768
 11
-51.9438
 21
178.712
  0
LINE
  8
0
 10
-51.9438
 20
178.712
 11
-51.7336
 21
178.629
  0
LINE
  8
0
 10
-51.7336
 20
178.629
 11
-51.5355
 21
178.52
  0
LINE
  8
0
 10
-51.5355
 20
178.52
 11
-51.3526
 21
178.387
  0
LINE
  8
0
 10
-51.3526
 20
178.387
 11
-51.1879
 21
178.232
  0
LINE
  8
0
 10
-51.1879
 20
178.232
 11
-51.0438
 21
178.058
  0
LINE
  8
0
 10
-51.0438
 20
178.058
 11
-50.9226
 21
177.867
  0
LINE
  8
0
 10
-50.9226
 20
177.867
 11
-50.8264
 21
177.663
  0
LINE
  8
0
 10
-50.8264
 20
177.663
 11
-50.7565
 21
177.448
  0
LINE
  8
0
 10
-50.7565
 20
177.448
 11
-50.7142
 21
177.226
  0
LINE
  8
0
 10
-50.7142
 20
177.226
 11
-50.7
 21
177
  0
LINE
  8
0
 10
-50.7
 20
177
 11
-50.7142
 21
176.774
  0
LINE
  8
0
 10
-50.7142
 20
176.774
 11
-50.7565
 21
176.552
  0
LINE
  8
0
 10
-50.7565
 20
176.552
 11
-50.8264
 21
176.337
  0
LINE
  8
0
 10
-50.8264
 20
176.337
 11
-50.9226
 21
176.133
  0
LINE
  8
0
 10
-50.9226
 20
176.133
 11
-51.0438
 21
175.942
  0
LINE
  8
0
 10
-51.0438
 20
175.942
 11
-51.1879
 21
175.768
  0
LINE
  8
0
 10
-51.1879
 20
175.768
 11
-51.3526
 21
175.613
  0
LINE
  8
0
 10
-51.3526
 20
175.613
 11
-51.5355
 21
175.48
  0
LINE
  8
0
 10
-51.5355
 20
175.48
 11
-51.7336
 21
175.371
  0
LINE
  8
0
 10
-51.7336
 20
175.371
 11
-51.9438
 21
175.288
  0
LINE
  8
0
 10
-51.9438
 20
175.288
 11
-52.1627
 21
175.232
  0
LINE
  8
0
 10
-52.1627
 20
175.232
 11
-52.387
 21
175.204
  0
LINE
  8
0
 10
-52.387
 20
175.204
 11
-52.613
 21
175.204
  0
LINE
  8
0
 10
52.387
 20
175.204
 11
52.1627
 21
175.232
  0
LINE
  8
0
 10
52.1627
 20
175.232
 11
51.9438
 21
175.288
  0
LINE
  8
0
 10
51.9438
 20
175.288
 11
51.7336
 21
175.371
  0
LINE
  8
0
 10
51.7336
 20
175.371
 11
51.5355
 21
175.48
  0
LINE
  8
0
 10
51.5355
 20
175.48
 11
51.3526
 21
175.613
  0
LINE
  8
0
 10
51.3526
 20
175.613
 11
51.1879
 21
175.768
  0
LINE
  8
0
 10
51.1879
 20
175.768
 11
51.0438
 21
175.942
  0
LINE
  8
0
 10
51.0438
 20
175.942
 11
50.9226
 21
176.133
  0
LINE
  8
0
 10
50.9226
 20
176.133
 11
50.8264
 21
176.337
  0
LINE
  8
0
 10
50.8264
 20
176.337
 11
50.7565
 21
176.552
  0
LINE
  8
0
 10
50.7565
 20
176.552
 11
50.7142
 21
176.774
  0
LINE
  8
0
 10
50.7142
 20
176.774
 11
50.7
 21
177
  0
LINE
  8
0
 10
50.7
 20
177
 11
50.7142
 21
177.226
  0
LINE
  8
0
 10
50.7142
 20
177.226
 11
50.7565
 21
177.448
  0
LINE
  8
0
 10
50.7565
 20
177.448
 11
50.8264
 21
177.663
  0
LINE
  8
0
 10
50.8264
 20
177.663
 11
50.9226
 21
177.867
  0
LINE
  8
0
 10
50.9226
 20
177.867
 11
51.0438
 21
178.058
  0
LINE
  8
0
 10
51.0438
 20
178.058
 11
51.1879
 21
178.232
  0
LINE
  8
0
 10
51.1879
 20
178.232
 11
51.3526
 21
178.387
  0
LINE
  8
0
 10
51.3526
 20
178.387
 11
51.5355
 21
178.52
  0
LINE
  8
0
 10
51.5355
 20
178.52
 11
51.7336
 21
178.629
  0
LINE
  8
0
 10
51.7336
 20
178.629
 11
51.9438
 21
178.712
  0
LINE
  8
0
 10
51.9438
 20
178.712
 11
52.1627
 21
178.768
  0
LINE
  8
0
 10
52.1627
 20
178.768
 11
52.387
 21
178.796
  0
LINE
  8
0
 10
52.387
 20
178.796
 11
52.613
 21
178.796
  0
LINE
  8
0
 10
52.613
 20
178.796
 11
52.8373
 21
178.768
  0
LINE
  8
0
 10
52.8373
 20
178.768
 11
53.0562
 21
178.712
  0
LINE
  8
0
 10
53.0562
 20
178.712
 11
53.2664
 21
178.629
  0
LINE
  8
0
 10
53.2664
 20
178.629
 11
53.4645
 21
178.52
  0
LINE
  8
0
 10
53.4645
 20
178.52
 11
53.6474
 21
178.387
  0
LINE
  8
0
 10
53.6474
 20
178.387
 11
53.8121
 21
178.232
  0
LINE
  8
0
 10
53.8121
 20
178.232
 11
53.9562
 21
178.058
  0
LINE
  8
0
 10
53.9562
 20
178.058
 11
54.0773
 21
177.867
  0
LINE
  8
0
 10
54.0773
 20
177.867
 11
54.1736
 21
177.663
  0
LINE
  8
0
 10
54.1736
 20
177.663
 11
54.2434
 21
177.448
  0
LINE
  8
0
 10
54.2434
 20
177.448
 11
54.2858
 21
177.226
  0
LINE
  8
0
 10
54.2858
 20
177.226
 11
54.3
 21
177
  0
LINE
  8
0
 10
54.3
 20
177
 11
54.2858
 21
176.774
  0
LINE
  8
0
 10
54.2858
 20
176.774
 11
54.2434
 21
176.552
  0
LINE
  8
0
 10
54.2434
 20
176.552
 11
54.1736
 21
176.337
  0
LINE
  8
0
 10
54.1736
 20
176.337
 11
54.0773
 21
176.133
  0
LINE
  8
0
 10
54.0773
 20
176.133
 11
53.9562
 21
175.942
  0
LINE
  8
0
 10
53.9562
 20
175.942
 11
53.8121
 21
175.768
  0
LINE
  8
0
 10
53.8121
 20
175.768
 11
53.6474
 21
175.613
  0
LINE
  8
0
 10
53.6474
 20
175.613
 11
53.4645
 21
175.48
  0
LINE
  8
0
 10
53.4645
 20
175.48
 11
53.2664
 21
175.371
  0
LINE
  8
0
 10
53.2664
 20
175.371
 11
53.0562
 21
175.288
  0
LINE
  8
0
 10
53.0562
 20
175.288
 11
52.8373
 21
175.232
  0
LINE
  8
0
 10
52.8373
 20
175.232
 11
52.613
 21
175.204
  0
LINE
  8
0
 10
52.613
 20
175.204
 11
52.387
 21
175.204
  0
LINE
  8
0
 10
52.387
 20
145.204
 11
52.1627
 21
145.232
  0
LINE
  8
0
 10
52.1627
 20
145.232
 11
51.9438
 21
145.288
  0
LINE
  8
0
 10
51.9438
 20
145.288
 11
51.7336
 21
145.371
  0
LINE
  8
0
 10
51.7336
 20
145.371
 11
51.5355
 21
145.48
  0
LINE
  8
0
 10
51.5355
 20
145.48
 11
51.3526
 21
145.613
  0
LINE
  8
0
 10
51.3526
 20
145.613
 11
51.1879
 21
145.768
  0
LINE
  8
0
 10
51.1879
 20
145.768
 11
51.0438
 21
145.942
  0
LINE
  8
0
 10
51.0438
 20
145.942
 11
50.9226
 21
146.133
  0
LINE
  8
0
 10
50.9226
 20
146.133
 11
50.8264
 21
146.337
  0
LINE
  8
0
 10
50.8264
 20
146.337
 11
50.7565
 21
146.552
  0
LINE
  8
0
 10
50.7565
 20
146.552
 11
50.7142
 21
146.774
  0
LINE
  8
0
 10
50.7142
 20
146.774
 11
50.7
 21
147
  0
LINE
  8
0
 10
50.7
 20
147
 11
50.7142
 21
147.226
  0
LINE
  8
0
 10
50.7142
 20
147.226
 11
50.7565
 21
147.448
  0
LINE
  8
0
 10
50.7565
 20
147.448
 11
50.8264
 21
147.663
  0
LINE
  8
0
 10
50.8264
 20
147.663
 11
50.9226
 21
147.867
  0
LINE
  8
0
 10
50.9226
 20
147.867
 11
51.0438
 21
148.058
  0
LINE
  8
0
 10
51.0438
 20
148.058
 11
51.1879
 21
148.232
  0
LINE
  8
0
 10
51.1879
 20
148.232
 11
51.3526
 21
148.387
  0
LINE
  8
0
 10
51.3526
 20
148.387
 11
51.5355
 21
148.52
  0
LINE
  8
0
 10
51.5355
 20
148.52
 11
51.7336
 21
148.629
  0
LINE
  8
0
 10
51.7336
 20
148.629
 11
51.9438
 21
148.712
  0
LINE
  8
0
 10
51.9438
 20
148.712
 11
52.1627
 21
148.768
  0
LINE
  8
0
 10
52.1627
 20
148.768
 11
52.387
 21
148.796
  0
LINE
  8
0
 10
52.387
 20
148.796
 11
52.613
 21
148.796
  0
LINE
  8
0
 10
52.613
 20
148.796
 11
52.8373
 21
148.768
  0
LINE
  8
0
 10
52.8373
 20
148.768
 11
53.0562
 21
148.712
  0
LINE
  8
0
 10
53.0562
 20
148.712
 11
53.2664
 21
148.629
  0
LINE
  8
0
 10
53.2664
 20
148.629
 11
53.4645
 21
148.52
  0
LINE
  8
0
 10
53.4645
 20
148.52
 11
53.6474
 21
148.387
  0
LINE
  8
0
 10
53.6474
 20
148.387
 11
53.8121
 21
148.232
  0
LINE
  8
0
 10
53.8121
 20
148.232
 11
53.9562
 21
148.058
  0
LINE
  8
0
 10
53.9562
 20
148.058
 11
54.0773
 21
147.867
  0
LINE
  8
0
 10
54.0773
 20
147.867
 11
54.1736
 21
147.663
  0
LINE
  8
0
 10
54.1736
 20
147.663
 11
54.2434
 21
147.448
  0
LINE
  8
0
 10
54.2434
 20
147.448
 11
54.2858
 21
147.226
  0
LINE
  8
0
 10
54.2858
 20
147.226
 11
54.3
 21
147
  0
LINE
  8
0
 10
54.3
 20
147
 11
54.2858
 21
146.774
  0
LINE
  8
0
 10
54.2858
 20
146.774
 11
54.2434
 21
146.552
  0
LINE
  8
0
 10
54.2434
 20
146.552
 11
54.1736
 21
146.337
  0
LINE
  8
0
 10
54.1736
 20
146.337
 11
54.0773
 21
146.133
  0
LINE
  8
0
 10
54.0773
 20
146.133
 11
53.9562
 21
145.942
  0
LINE
  8
0
 10
53.9562
 20
145.942
 11
53.8121
 21
145.768
  0
LINE
  8
0
 10
53.8121
 20
145.768
 11
53.6474
 21
145.613
  0
LINE
  8
0
 10
53.6474
 20
145.613
 11
53.4645
 21
145.48
  0
LINE
  8
0
 10
53.4645
 20
145.48
 11
53.2664
 21
145.371
  0
LINE
  8
0
 10
53.2664
 20
145.371
 11
53.0562
 21
145.288
  0
LINE
  8
0
 10
53.0562
 20
145.288
 11
52.8373
 21
145.232
  0
LINE
  8
0
 10
52.8373
 20
145.232
 11
52.613
 21
145.204
  0
LINE
  8
0
 10
52.613
 20
145.204
 11
52.387
 21
145.204
  0
LINE
  8
0
 10
-52.613
 20
145.204
 11
-52.8373
 21
145.232
  0
LINE
  8
0
 10
-52.8373
 20
145.232
 11
-53.0562
 21
145.288
  0
LINE
  8
0
 10
-53.0562
 20
145.288
 11
-53.2664
 21
145.371
  0
LINE
  8
0
 10
-53.2664
 20
145.371
 11
-53.4645
 21
145.48
  0
LINE
  8
0
 10
-53.4645
 20
145.48
 11
-53.6474
 21
145.613
  0
LINE
  8
0
 10
-53.6474
 20
145.613
 11
-53.8121
 21
145.768
  0
LINE
  8
0
 10
-53.8121
 20
145.768
 11
-53.9562
 21
145.942
  0
LINE
  8
0
 10
-53.9562
 20
145.942
 11
-54.0773
 21
146.133
  0
LINE
  8
0
 10
-54.0773
 20
146.133
 11
-54.1736
 21
146.337
  0
LINE
  8
0
 10
-54.1736
 20
146.337
 11
-54.2434
 21
146.552
  0
LINE
  8
0
 10
-54.2434
 20
146.552
 11
-54.2858
 21
146.774
  0
LINE
  8
0
 10
-54.2858
 20
146.774
 11
-54.3
 21
147
  0
LINE
  8
0
 10
-54.3
 20
147
 11
-54.2858
 21
147.226
  0
LINE
  8
0
 10
-54.2858
 20
147.226
 11
-54.2434
 21
147.448
  0
LINE
  8
0
 10
-54.2434
 20
147.448
 11
-54.1736
 21
147.663
  0
LINE
  8
0
 10
-54.1736
 20
147.663
 11
-54.0773
 21
147.867
  0
LINE
  8
0
 10
-54.0773
 20
147.867
 11
-53.9562
 21
148.058
  0
LINE
  8
0
 10
-53.9562
 20
148.058
 11
-53.8121
 21
148.232
  0
LINE
  8
0
 10
-53.8121
 20
148.232
 11
-53.6474
 21
148.387
  0
LINE
  8
0
 10
-53.6474
 20
148.387
 11
-53.4645
 21
148.52
  0
LINE
  8
0
 10
-53.4645
 20
148.52
 11
-53.2664
 21
148.629
  0
LINE
  8
0
 10
-53.2664
 20
148.629
 11
-53.0562
 21
148.712
  0
LINE
  8
0
 10
-53.0562
 20
148.712
 11
-52.8373
 21
148.768
  0
LINE
  8
0
 10
-52.8373
 20
148.768
 11
-52.613
 21
148.796
  0
LINE
  8
0
 10
-52.613
 20
148.796
 11
-52.387
 21
148.796
  0
LINE
  8
0
 10
-52.387
 20
148.796
 11
-52.1627
 21
148.768
  0
LINE
  8
0
 10
-52.1627
 20
148.768
 11
-51.9438
 21
148.712
  0
LINE
  8
0
 10
-51.9438
 20
148.712
 11
-51.7336
 21
148.629
  0
LINE
  8
0
 10
-51.7336
 20
148.629
 11
-51.5355
 21
148.52
  0
LINE
  8
0
 10
-51.5355
 20
148.52
 11
-51.3526
 21
148.387
  0
LINE
  8
0
 10
-51.3526
 20
148.387
 11
-51.1879
 21
148.232
  0
LINE
  8
0
 10
-51.1879
 20
148.232
 11
-51.0438
 21
148.058
  0
LINE
  8
0
 10
-51.0438
 20
148.058
 11
-50.9226
 21
147.867
  0
LINE
  8
0
 10
-50.9226
 20
147.867
 11
-50.8264
 21
147.663
  0
LINE
  8
0
 10
-50.8264
 20
147.663
 11
-50.7565
 21
147.448
  0
LINE
  8
0
 10
-50.7565
 20
147.448
 11
-50.7142
 21
147.226
  0
LINE
  8
0
 10
-50.7142
 20
147.226
 11
-50.7
 21
147
  0
LINE
  8
0
 10
-50.7
 20
147
 11
-50.7142
 21
146.774
  0
LINE
  8
0
 10
-50.7142
 20
146.774
 11
-50.7565
 21
146.552
  0
LINE
  8
0
 10
-50.7565
 20
146.552
 11
-50.8264
 21
146.337
  0
LINE
  8
0
 10
-50.8264
 20
146.337
 11
-50.9226
 21
146.133
  0
LINE
  8
0
 10
-50.9226
 20
146.133
 11
-51.0438
 21
145.942
  0
LINE
  8
0
 10
-51.0438
 20
145.942
 11
-51.1879
 21
145.768
  0
LINE
  8
0
 10
-51.1879
 20
145.768
 11
-51.3526
 21
145.613
  0
LINE
  8
0
 10
-51.3526
 20
145.613
 11
-51.5355
 21
145.48
  0
LINE
  8
0
 10
-51.5355
 20
145.48
 11
-51.7336
 21
145.371
  0
LINE
  8
0
 10
-51.7336
 20
145.371
 11
-51.9438
 21
145.288
  0
LINE
  8
0
 10
-51.9438
 20
145.288
 11
-52.1627
 21
145.232
  0
LINE
  8
0
 10
-52.1627
 20
145.232
 11
-52.387
 21
145.204
  0
LINE
  8
0
 10
-52.387
 20
145.204
 11
-52.613
 21
145.204
  0
ENDSEC
  0
SECTION
  2
OBJECTS
  0
DICTIONARY
  0
ENDSEC
  0
EOF
