solid OpenSCAD_Model
  facet normal 0 -1 0
    outer loop
      vertex -5.48149 -9.49423 0
      vertex 5.48149 -9.49423 10
      vertex -5.48149 -9.49423 10
    endloop
  endfacet
  facet normal 0 -1 -0
    outer loop
      vertex 5.48149 -9.49423 10
      vertex -5.48149 -9.49423 0
      vertex 5.48149 -9.49423 0
    endloop
  endfacet
  facet normal -0 0 -1
    outer loop
      vertex 10.963 0 0
      vertex 5.95269 -0.751999 0
      vertex 6 0 0
    endloop
  endfacet
  facet normal 0 0 -1
    outer loop
      vertex 10.963 0 0
      vertex 5.8115 -1.49214 0
      vertex 5.95269 -0.751999 0
    endloop
  endfacet
  facet normal 0 0 -1
    outer loop
      vertex 10.963 0 0
      vertex 5.57866 -2.20875 0
      vertex 5.8115 -1.49214 0
    endloop
  endfacet
  facet normal 0 0 -1
    outer loop
      vertex 5.25784 -2.89052 0
      vertex 10.963 0 0
      vertex 5.48149 -9.49423 0
    endloop
  endfacet
  facet normal 0 0 -1
    outer loop
      vertex 10.963 0 0
      vertex 5.25784 -2.89052 0
      vertex 5.57866 -2.20875 0
    endloop
  endfacet
  facet normal 0 0 -1
    outer loop
      vertex 5.48149 -9.49423 0
      vertex 4.8541 -3.52671 0
      vertex 5.25784 -2.89052 0
    endloop
  endfacet
  facet normal 0 0 -1
    outer loop
      vertex 5.48149 -9.49423 0
      vertex 4.37381 -4.10728 0
      vertex 4.8541 -3.52671 0
    endloop
  endfacet
  facet normal 0 0 -1
    outer loop
      vertex 5.48149 -9.49423 0
      vertex 3.82454 -4.62308 0
      vertex 4.37381 -4.10728 0
    endloop
  endfacet
  facet normal 0 0 -1
    outer loop
      vertex 5.48149 -9.49423 0
      vertex 3.21496 -5.06597 0
      vertex 3.82454 -4.62308 0
    endloop
  endfacet
  facet normal 0 0 -1
    outer loop
      vertex 5.48149 -9.49423 0
      vertex 2.55468 -5.42896 0
      vertex 3.21496 -5.06597 0
    endloop
  endfacet
  facet normal 0 0 -1
    outer loop
      vertex 5.48149 -9.49423 0
      vertex 1.8541 -5.70634 0
      vertex 2.55468 -5.42896 0
    endloop
  endfacet
  facet normal 0 0 -1
    outer loop
      vertex 5.48149 -9.49423 0
      vertex 1.12429 -5.89372 0
      vertex 1.8541 -5.70634 0
    endloop
  endfacet
  facet normal 0 0 -1
    outer loop
      vertex 5.48149 -9.49423 0
      vertex 0.376742 -5.98816 0
      vertex 1.12429 -5.89372 0
    endloop
  endfacet
  facet normal 0 0 -1
    outer loop
      vertex 5.48149 -9.49423 0
      vertex -0.376742 -5.98816 0
      vertex 0.376742 -5.98816 0
    endloop
  endfacet
  facet normal 0 0 -1
    outer loop
      vertex -5.48149 -9.49423 0
      vertex -0.376742 -5.98816 0
      vertex 5.48149 -9.49423 0
    endloop
  endfacet
  facet normal -0 0 -1
    outer loop
      vertex -0.376742 -5.98816 0
      vertex -5.48149 -9.49423 0
      vertex -1.12429 -5.89372 0
    endloop
  endfacet
  facet normal -0 0 -1
    outer loop
      vertex -1.12429 -5.89372 0
      vertex -5.48149 -9.49423 0
      vertex -1.8541 -5.70634 0
    endloop
  endfacet
  facet normal -0 0 -1
    outer loop
      vertex -1.8541 -5.70634 0
      vertex -5.48149 -9.49423 0
      vertex -2.55468 -5.42896 0
    endloop
  endfacet
  facet normal 0 0 -1
    outer loop
      vertex -5.48149 -9.49423 0
      vertex -3.21496 -5.06597 0
      vertex -2.55468 -5.42896 0
    endloop
  endfacet
  facet normal 0 0 -1
    outer loop
      vertex -5.48149 -9.49423 0
      vertex -3.82454 -4.62308 0
      vertex -3.21496 -5.06597 0
    endloop
  endfacet
  facet normal 0 0 -1
    outer loop
      vertex -5.48149 -9.49423 0
      vertex -4.37381 -4.10728 0
      vertex -3.82454 -4.62308 0
    endloop
  endfacet
  facet normal 0 0 -1
    outer loop
      vertex -5.48149 -9.49423 0
      vertex -4.8541 -3.52671 0
      vertex -4.37381 -4.10728 0
    endloop
  endfacet
  facet normal 0 0 -1
    outer loop
      vertex -5.48149 -9.49423 0
      vertex -5.25784 -2.89052 0
      vertex -4.8541 -3.52671 0
    endloop
  endfacet
  facet normal 0 0 -1
    outer loop
      vertex -10.963 0 0
      vertex -5.25784 -2.89052 0
      vertex -5.48149 -9.49423 0
    endloop
  endfacet
  facet normal 0 0 -1
    outer loop
      vertex -5.25784 -2.89052 0
      vertex -10.963 0 0
      vertex -5.57866 -2.20875 0
    endloop
  endfacet
  facet normal 0 0 -1
    outer loop
      vertex -5.57866 -2.20875 0
      vertex -10.963 0 0
      vertex -5.8115 -1.49214 0
    endloop
  endfacet
  facet normal 0 0 -1
    outer loop
      vertex -5.8115 -1.49214 0
      vertex -10.963 0 0
      vertex -5.95269 -0.751999 0
    endloop
  endfacet
  facet normal 0 0 -1
    outer loop
      vertex -5.95269 -0.751999 0
      vertex -10.963 0 0
      vertex -6 0 0
    endloop
  endfacet
  facet normal 0 0 -1
    outer loop
      vertex 5.95269 0.751999 0
      vertex 10.963 0 0
      vertex 6 0 0
    endloop
  endfacet
  facet normal 0 0 -1
    outer loop
      vertex 5.8115 1.49214 0
      vertex 10.963 0 0
      vertex 5.95269 0.751999 0
    endloop
  endfacet
  facet normal 0 0 -1
    outer loop
      vertex 5.57866 2.20875 0
      vertex 10.963 0 0
      vertex 5.8115 1.49214 0
    endloop
  endfacet
  facet normal 0 0 -1
    outer loop
      vertex 5.25784 2.89052 0
      vertex 10.963 0 0
      vertex 5.57866 2.20875 0
    endloop
  endfacet
  facet normal 0 0 -1
    outer loop
      vertex 10.963 0 0
      vertex 5.25784 2.89052 0
      vertex 5.48149 9.49423 0
    endloop
  endfacet
  facet normal 0 0 -1
    outer loop
      vertex 4.8541 3.52671 0
      vertex 5.48149 9.49423 0
      vertex 5.25784 2.89052 0
    endloop
  endfacet
  facet normal 0 0 -1
    outer loop
      vertex 4.37381 4.10728 0
      vertex 5.48149 9.49423 0
      vertex 4.8541 3.52671 0
    endloop
  endfacet
  facet normal 0 0 -1
    outer loop
      vertex 3.82454 4.62308 0
      vertex 5.48149 9.49423 0
      vertex 4.37381 4.10728 0
    endloop
  endfacet
  facet normal 0 0 -1
    outer loop
      vertex 3.21496 5.06597 0
      vertex 5.48149 9.49423 0
      vertex 3.82454 4.62308 0
    endloop
  endfacet
  facet normal 0 0 -1
    outer loop
      vertex 2.55468 5.42896 0
      vertex 5.48149 9.49423 0
      vertex 3.21496 5.06597 0
    endloop
  endfacet
  facet normal 0 0 -1
    outer loop
      vertex 1.8541 5.70634 0
      vertex 5.48149 9.49423 0
      vertex 2.55468 5.42896 0
    endloop
  endfacet
  facet normal 0 0 -1
    outer loop
      vertex 1.12429 5.89372 0
      vertex 5.48149 9.49423 0
      vertex 1.8541 5.70634 0
    endloop
  endfacet
  facet normal 0 0 -1
    outer loop
      vertex 0.376742 5.98816 0
      vertex 5.48149 9.49423 0
      vertex 1.12429 5.89372 0
    endloop
  endfacet
  facet normal 0 0 -1
    outer loop
      vertex -0.376742 5.98816 0
      vertex 5.48149 9.49423 0
      vertex 0.376742 5.98816 0
    endloop
  endfacet
  facet normal 0 0 -1
    outer loop
      vertex -5.48149 9.49423 0
      vertex -0.376742 5.98816 0
      vertex -1.12429 5.89372 0
    endloop
  endfacet
  facet normal 0 0 -1
    outer loop
      vertex -5.48149 9.49423 0
      vertex -1.12429 5.89372 0
      vertex -1.8541 5.70634 0
    endloop
  endfacet
  facet normal 0 0 -1
    outer loop
      vertex -5.48149 9.49423 0
      vertex -1.8541 5.70634 0
      vertex -2.55468 5.42896 0
    endloop
  endfacet
  facet normal 0 0 -1
    outer loop
      vertex -0.376742 5.98816 0
      vertex -5.48149 9.49423 0
      vertex 5.48149 9.49423 0
    endloop
  endfacet
  facet normal 0 0 -1
    outer loop
      vertex -3.21496 5.06597 0
      vertex -5.48149 9.49423 0
      vertex -2.55468 5.42896 0
    endloop
  endfacet
  facet normal 0 0 -1
    outer loop
      vertex -3.82454 4.62308 0
      vertex -5.48149 9.49423 0
      vertex -3.21496 5.06597 0
    endloop
  endfacet
  facet normal 0 0 -1
    outer loop
      vertex -4.37381 4.10728 0
      vertex -5.48149 9.49423 0
      vertex -3.82454 4.62308 0
    endloop
  endfacet
  facet normal 0 0 -1
    outer loop
      vertex -4.8541 3.52671 0
      vertex -5.48149 9.49423 0
      vertex -4.37381 4.10728 0
    endloop
  endfacet
  facet normal 0 0 -1
    outer loop
      vertex -5.25784 2.89052 0
      vertex -5.48149 9.49423 0
      vertex -4.8541 3.52671 0
    endloop
  endfacet
  facet normal 0 0 -1
    outer loop
      vertex -10.963 0 0
      vertex -5.25784 2.89052 0
      vertex -5.57866 2.20875 0
    endloop
  endfacet
  facet normal 0 0 -1
    outer loop
      vertex -10.963 0 0
      vertex -5.57866 2.20875 0
      vertex -5.8115 1.49214 0
    endloop
  endfacet
  facet normal 0 0 -1
    outer loop
      vertex -10.963 0 0
      vertex -5.8115 1.49214 0
      vertex -5.95269 0.751999 0
    endloop
  endfacet
  facet normal 0 0 -1
    outer loop
      vertex -10.963 0 0
      vertex -5.95269 0.751999 0
      vertex -6 0 0
    endloop
  endfacet
  facet normal -0 0 -1
    outer loop
      vertex -5.25784 2.89052 0
      vertex -10.963 0 0
      vertex -5.48149 9.49423 0
    endloop
  endfacet
  facet normal 0.866025 -0.500001 9.74724e-18
    outer loop
      vertex 5.48149 -9.49423 10
      vertex 10.963 0 0
      vertex 10.963 0 10
    endloop
  endfacet
  facet normal 0.866025 -0.500001 9.74724e-18
    outer loop
      vertex 10.963 0 0
      vertex 5.48149 -9.49423 10
      vertex 5.48149 -9.49423 0
    endloop
  endfacet
  facet normal 0.866025 0.500001 -9.74724e-18
    outer loop
      vertex 10.963 0 10
      vertex 5.48149 9.49423 0
      vertex 5.48149 9.49423 10
    endloop
  endfacet
  facet normal 0.866025 0.500001 -9.74724e-18
    outer loop
      vertex 5.48149 9.49423 0
      vertex 10.963 0 10
      vertex 10.963 0 0
    endloop
  endfacet
  facet normal -0.866025 0.500001 9.74724e-18
    outer loop
      vertex -10.963 0 0
      vertex -5.48149 9.49423 10
      vertex -5.48149 9.49423 0
    endloop
  endfacet
  facet normal -0.866025 0.500001 9.74724e-18
    outer loop
      vertex -5.48149 9.49423 10
      vertex -10.963 0 0
      vertex -10.963 0 10
    endloop
  endfacet
  facet normal 0 0 1
    outer loop
      vertex 10.963 0 10
      vertex 5.95269 0.751999 10
      vertex 6 0 10
    endloop
  endfacet
  facet normal 0 0 1
    outer loop
      vertex 10.963 0 10
      vertex 5.8115 1.49214 10
      vertex 5.95269 0.751999 10
    endloop
  endfacet
  facet normal 0 0 1
    outer loop
      vertex 10.963 0 10
      vertex 5.57866 2.20875 10
      vertex 5.8115 1.49214 10
    endloop
  endfacet
  facet normal -0 0 1
    outer loop
      vertex 5.25784 2.89052 10
      vertex 10.963 0 10
      vertex 5.48149 9.49423 10
    endloop
  endfacet
  facet normal 0 0 1
    outer loop
      vertex 10.963 0 10
      vertex 5.25784 2.89052 10
      vertex 5.57866 2.20875 10
    endloop
  endfacet
  facet normal 0 0 1
    outer loop
      vertex 5.48149 9.49423 10
      vertex 4.8541 3.52671 10
      vertex 5.25784 2.89052 10
    endloop
  endfacet
  facet normal 0 0 1
    outer loop
      vertex 5.48149 9.49423 10
      vertex 4.37381 4.10728 10
      vertex 4.8541 3.52671 10
    endloop
  endfacet
  facet normal 0 0 1
    outer loop
      vertex 5.48149 9.49423 10
      vertex 3.82454 4.62308 10
      vertex 4.37381 4.10728 10
    endloop
  endfacet
  facet normal 0 0 1
    outer loop
      vertex 5.48149 9.49423 10
      vertex 3.21496 5.06597 10
      vertex 3.82454 4.62308 10
    endloop
  endfacet
  facet normal 0 0 1
    outer loop
      vertex 5.48149 9.49423 10
      vertex 2.55468 5.42896 10
      vertex 3.21496 5.06597 10
    endloop
  endfacet
  facet normal 0 0 1
    outer loop
      vertex 5.48149 9.49423 10
      vertex 1.8541 5.70634 10
      vertex 2.55468 5.42896 10
    endloop
  endfacet
  facet normal 0 0 1
    outer loop
      vertex 5.48149 9.49423 10
      vertex 1.12429 5.89372 10
      vertex 1.8541 5.70634 10
    endloop
  endfacet
  facet normal 0 0 1
    outer loop
      vertex 5.48149 9.49423 10
      vertex 0.376742 5.98816 10
      vertex 1.12429 5.89372 10
    endloop
  endfacet
  facet normal 0 0 1
    outer loop
      vertex 5.48149 9.49423 10
      vertex -0.376742 5.98816 10
      vertex 0.376742 5.98816 10
    endloop
  endfacet
  facet normal -0 0 1
    outer loop
      vertex -5.48149 9.49423 10
      vertex -0.376742 5.98816 10
      vertex 5.48149 9.49423 10
    endloop
  endfacet
  facet normal 0 0 1
    outer loop
      vertex -0.376742 5.98816 10
      vertex -5.48149 9.49423 10
      vertex -1.12429 5.89372 10
    endloop
  endfacet
  facet normal 0 0 1
    outer loop
      vertex -1.12429 5.89372 10
      vertex -5.48149 9.49423 10
      vertex -1.8541 5.70634 10
    endloop
  endfacet
  facet normal 0 0 1
    outer loop
      vertex -1.8541 5.70634 10
      vertex -5.48149 9.49423 10
      vertex -2.55468 5.42896 10
    endloop
  endfacet
  facet normal 0 0 1
    outer loop
      vertex -5.48149 9.49423 10
      vertex -3.21496 5.06597 10
      vertex -2.55468 5.42896 10
    endloop
  endfacet
  facet normal 0 0 1
    outer loop
      vertex -5.48149 9.49423 10
      vertex -3.82454 4.62308 10
      vertex -3.21496 5.06597 10
    endloop
  endfacet
  facet normal 0 0 1
    outer loop
      vertex -5.48149 9.49423 10
      vertex -4.37381 4.10728 10
      vertex -3.82454 4.62308 10
    endloop
  endfacet
  facet normal 0 0 1
    outer loop
      vertex -5.48149 9.49423 10
      vertex -4.8541 3.52671 10
      vertex -4.37381 4.10728 10
    endloop
  endfacet
  facet normal 0 0 1
    outer loop
      vertex -5.48149 9.49423 10
      vertex -5.25784 2.89052 10
      vertex -4.8541 3.52671 10
    endloop
  endfacet
  facet normal 0 0 1
    outer loop
      vertex -10.963 0 10
      vertex -5.25784 2.89052 10
      vertex -5.48149 9.49423 10
    endloop
  endfacet
  facet normal 0 0 1
    outer loop
      vertex -5.25784 2.89052 10
      vertex -10.963 0 10
      vertex -5.57866 2.20875 10
    endloop
  endfacet
  facet normal 0 0 1
    outer loop
      vertex -5.57866 2.20875 10
      vertex -10.963 0 10
      vertex -5.8115 1.49214 10
    endloop
  endfacet
  facet normal 0 0 1
    outer loop
      vertex -5.8115 1.49214 10
      vertex -10.963 0 10
      vertex -5.95269 0.751999 10
    endloop
  endfacet
  facet normal 0 0 1
    outer loop
      vertex -5.95269 0.751999 10
      vertex -10.963 0 10
      vertex -6 0 10
    endloop
  endfacet
  facet normal 0 0 1
    outer loop
      vertex 5.95269 -0.751999 10
      vertex 10.963 0 10
      vertex 6 0 10
    endloop
  endfacet
  facet normal 0 0 1
    outer loop
      vertex 5.8115 -1.49214 10
      vertex 10.963 0 10
      vertex 5.95269 -0.751999 10
    endloop
  endfacet
  facet normal 0 0 1
    outer loop
      vertex 5.57866 -2.20875 10
      vertex 10.963 0 10
      vertex 5.8115 -1.49214 10
    endloop
  endfacet
  facet normal 0 0 1
    outer loop
      vertex 5.25784 -2.89052 10
      vertex 10.963 0 10
      vertex 5.57866 -2.20875 10
    endloop
  endfacet
  facet normal 0 0 1
    outer loop
      vertex 10.963 0 10
      vertex 5.25784 -2.89052 10
      vertex 5.48149 -9.49423 10
    endloop
  endfacet
  facet normal -0 0 1
    outer loop
      vertex 4.8541 -3.52671 10
      vertex 5.48149 -9.49423 10
      vertex 5.25784 -2.89052 10
    endloop
  endfacet
  facet normal -0 0 1
    outer loop
      vertex 4.37381 -4.10728 10
      vertex 5.48149 -9.49423 10
      vertex 4.8541 -3.52671 10
    endloop
  endfacet
  facet normal -0 0 1
    outer loop
      vertex 3.82454 -4.62308 10
      vertex 5.48149 -9.49423 10
      vertex 4.37381 -4.10728 10
    endloop
  endfacet
  facet normal -0 0 1
    outer loop
      vertex 3.21496 -5.06597 10
      vertex 5.48149 -9.49423 10
      vertex 3.82454 -4.62308 10
    endloop
  endfacet
  facet normal -0 0 1
    outer loop
      vertex 2.55468 -5.42896 10
      vertex 5.48149 -9.49423 10
      vertex 3.21496 -5.06597 10
    endloop
  endfacet
  facet normal -0 0 1
    outer loop
      vertex 1.8541 -5.70634 10
      vertex 5.48149 -9.49423 10
      vertex 2.55468 -5.42896 10
    endloop
  endfacet
  facet normal -0 0 1
    outer loop
      vertex 1.12429 -5.89372 10
      vertex 5.48149 -9.49423 10
      vertex 1.8541 -5.70634 10
    endloop
  endfacet
  facet normal -0 0 1
    outer loop
      vertex 0.376742 -5.98816 10
      vertex 5.48149 -9.49423 10
      vertex 1.12429 -5.89372 10
    endloop
  endfacet
  facet normal -0 0 1
    outer loop
      vertex -0.376742 -5.98816 10
      vertex 5.48149 -9.49423 10
      vertex 0.376742 -5.98816 10
    endloop
  endfacet
  facet normal 0 0 1
    outer loop
      vertex -5.48149 -9.49423 10
      vertex -0.376742 -5.98816 10
      vertex -1.12429 -5.89372 10
    endloop
  endfacet
  facet normal 0 0 1
    outer loop
      vertex -5.48149 -9.49423 10
      vertex -1.12429 -5.89372 10
      vertex -1.8541 -5.70634 10
    endloop
  endfacet
  facet normal 0 0 1
    outer loop
      vertex -5.48149 -9.49423 10
      vertex -1.8541 -5.70634 10
      vertex -2.55468 -5.42896 10
    endloop
  endfacet
  facet normal 0 0 1
    outer loop
      vertex -0.376742 -5.98816 10
      vertex -5.48149 -9.49423 10
      vertex 5.48149 -9.49423 10
    endloop
  endfacet
  facet normal 0 0 1
    outer loop
      vertex -3.21496 -5.06597 10
      vertex -5.48149 -9.49423 10
      vertex -2.55468 -5.42896 10
    endloop
  endfacet
  facet normal 0 0 1
    outer loop
      vertex -3.82454 -4.62308 10
      vertex -5.48149 -9.49423 10
      vertex -3.21496 -5.06597 10
    endloop
  endfacet
  facet normal 0 0 1
    outer loop
      vertex -4.37381 -4.10728 10
      vertex -5.48149 -9.49423 10
      vertex -3.82454 -4.62308 10
    endloop
  endfacet
  facet normal 0 0 1
    outer loop
      vertex -4.8541 -3.52671 10
      vertex -5.48149 -9.49423 10
      vertex -4.37381 -4.10728 10
    endloop
  endfacet
  facet normal 0 0 1
    outer loop
      vertex -5.25784 -2.89052 10
      vertex -5.48149 -9.49423 10
      vertex -4.8541 -3.52671 10
    endloop
  endfacet
  facet normal 0 0 1
    outer loop
      vertex -10.963 0 10
      vertex -5.25784 -2.89052 10
      vertex -5.57866 -2.20875 10
    endloop
  endfacet
  facet normal 0 0 1
    outer loop
      vertex -10.963 0 10
      vertex -5.57866 -2.20875 10
      vertex -5.8115 -1.49214 10
    endloop
  endfacet
  facet normal 0 0 1
    outer loop
      vertex -10.963 0 10
      vertex -5.8115 -1.49214 10
      vertex -5.95269 -0.751999 10
    endloop
  endfacet
  facet normal -0 0 1
    outer loop
      vertex -10.963 0 10
      vertex -5.95269 -0.751999 10
      vertex -6 0 10
    endloop
  endfacet
  facet normal 0 0 1
    outer loop
      vertex -5.25784 -2.89052 10
      vertex -10.963 0 10
      vertex -5.48149 -9.49423 10
    endloop
  endfacet
  facet normal 0 1 -0
    outer loop
      vertex 5.48149 9.49423 0
      vertex -5.48149 9.49423 10
      vertex 5.48149 9.49423 10
    endloop
  endfacet
  facet normal 0 1 0
    outer loop
      vertex -5.48149 9.49423 10
      vertex 5.48149 9.49423 0
      vertex -5.48149 9.49423 0
    endloop
  endfacet
  facet normal -0.866025 -0.500001 -9.74724e-18
    outer loop
      vertex -5.48149 -9.49423 0
      vertex -10.963 0 10
      vertex -10.963 0 0
    endloop
  endfacet
  facet normal -0.866025 -0.500001 -9.74724e-18
    outer loop
      vertex -10.963 0 10
      vertex -5.48149 -9.49423 0
      vertex -5.48149 -9.49423 10
    endloop
  endfacet
  facet normal 0.951057 -0.309016 -4.55056e-19
    outer loop
      vertex -5.8115 1.49214 10
      vertex -5.57866 2.20875 0
      vertex -5.57866 2.20875 10
    endloop
  endfacet
  facet normal 0.951057 -0.309016 -4.55056e-19
    outer loop
      vertex -5.57866 2.20875 0
      vertex -5.8115 1.49214 10
      vertex -5.8115 1.49214 0
    endloop
  endfacet
  facet normal -0.844327 -0.535828 -3.48936e-18
    outer loop
      vertex 5.25784 2.89052 0
      vertex 4.8541 3.52671 10
      vertex 4.8541 3.52671 0
    endloop
  endfacet
  facet normal -0.844327 -0.535828 -3.48936e-18
    outer loop
      vertex 4.8541 3.52671 10
      vertex 5.25784 2.89052 0
      vertex 5.25784 2.89052 10
    endloop
  endfacet
  facet normal -0.368125 -0.929776 0
    outer loop
      vertex 1.8541 5.70634 0
      vertex 2.55468 5.42896 10
      vertex 1.8541 5.70634 10
    endloop
  endfacet
  facet normal -0.368125 -0.929776 -0
    outer loop
      vertex 2.55468 5.42896 10
      vertex 1.8541 5.70634 0
      vertex 2.55468 5.42896 0
    endloop
  endfacet
  facet normal 0.368125 -0.929776 0
    outer loop
      vertex -2.55468 5.42896 0
      vertex -1.8541 5.70634 10
      vertex -2.55468 5.42896 10
    endloop
  endfacet
  facet normal 0.368125 -0.929776 0
    outer loop
      vertex -1.8541 5.70634 10
      vertex -2.55468 5.42896 0
      vertex -1.8541 5.70634 0
    endloop
  endfacet
  facet normal 0.904825 -0.425783 1.54144e-18
    outer loop
      vertex -5.57866 2.20875 10
      vertex -5.25784 2.89052 0
      vertex -5.25784 2.89052 10
    endloop
  endfacet
  facet normal 0.904825 -0.425783 1.54144e-18
    outer loop
      vertex -5.25784 2.89052 0
      vertex -5.57866 2.20875 10
      vertex -5.57866 2.20875 0
    endloop
  endfacet
  facet normal -0.982287 0.187382 -7.69818e-19
    outer loop
      vertex 5.8115 -1.49214 0
      vertex 5.95269 -0.751999 10
      vertex 5.95269 -0.751999 0
    endloop
  endfacet
  facet normal -0.982287 0.187382 -7.69818e-19
    outer loop
      vertex 5.95269 -0.751999 10
      vertex 5.8115 -1.49214 0
      vertex 5.8115 -1.49214 10
    endloop
  endfacet
  facet normal -0.684548 -0.728968 0
    outer loop
      vertex 3.82454 4.62308 0
      vertex 4.37381 4.10728 10
      vertex 3.82454 4.62308 10
    endloop
  endfacet
  facet normal -0.684548 -0.728968 -0
    outer loop
      vertex 4.37381 4.10728 10
      vertex 3.82454 4.62308 0
      vertex 4.37381 4.10728 0
    endloop
  endfacet
  facet normal -0.481752 -0.876308 0
    outer loop
      vertex 2.55468 5.42896 0
      vertex 3.21496 5.06597 10
      vertex 2.55468 5.42896 10
    endloop
  endfacet
  facet normal -0.481752 -0.876308 -0
    outer loop
      vertex 3.21496 5.06597 10
      vertex 2.55468 5.42896 0
      vertex 3.21496 5.06597 0
    endloop
  endfacet
  facet normal 0.982287 -0.187382 -7.69818e-19
    outer loop
      vertex -5.95269 0.751999 10
      vertex -5.8115 1.49214 0
      vertex -5.8115 1.49214 10
    endloop
  endfacet
  facet normal 0.982287 -0.187382 -7.69818e-19
    outer loop
      vertex -5.8115 1.49214 0
      vertex -5.95269 0.751999 10
      vertex -5.95269 0.751999 0
    endloop
  endfacet
  facet normal 0.770513 -0.637425 -2.90301e-18
    outer loop
      vertex -4.8541 3.52671 10
      vertex -4.37381 4.10728 0
      vertex -4.37381 4.10728 10
    endloop
  endfacet
  facet normal 0.770513 -0.637425 -2.90301e-18
    outer loop
      vertex -4.37381 4.10728 0
      vertex -4.8541 3.52671 10
      vertex -4.8541 3.52671 0
    endloop
  endfacet
  facet normal 0.125337 -0.992114 0
    outer loop
      vertex -1.12429 5.89372 0
      vertex -0.376742 5.98816 10
      vertex -1.12429 5.89372 10
    endloop
  endfacet
  facet normal 0.125337 -0.992114 0
    outer loop
      vertex -0.376742 5.98816 10
      vertex -1.12429 5.89372 0
      vertex -0.376742 5.98816 0
    endloop
  endfacet
  facet normal 0.684548 -0.728968 0
    outer loop
      vertex -4.37381 4.10728 0
      vertex -3.82454 4.62308 10
      vertex -4.37381 4.10728 10
    endloop
  endfacet
  facet normal 0.684548 -0.728968 0
    outer loop
      vertex -3.82454 4.62308 10
      vertex -4.37381 4.10728 0
      vertex -3.82454 4.62308 0
    endloop
  endfacet
  facet normal -0.998027 -0.0627882 -4.16836e-19
    outer loop
      vertex 6 0 0
      vertex 5.95269 0.751999 10
      vertex 5.95269 0.751999 0
    endloop
  endfacet
  facet normal -0.998027 -0.0627882 -4.16836e-19
    outer loop
      vertex 5.95269 0.751999 10
      vertex 6 0 0
      vertex 6 0 10
    endloop
  endfacet
  facet normal -0.481752 0.876308 0
    outer loop
      vertex 3.21496 -5.06597 0
      vertex 2.55468 -5.42896 10
      vertex 3.21496 -5.06597 10
    endloop
  endfacet
  facet normal -0.481752 0.876308 0
    outer loop
      vertex 2.55468 -5.42896 10
      vertex 3.21496 -5.06597 0
      vertex 2.55468 -5.42896 0
    endloop
  endfacet
  facet normal 0.684548 0.728968 -0
    outer loop
      vertex -3.82454 -4.62308 0
      vertex -4.37381 -4.10728 10
      vertex -3.82454 -4.62308 10
    endloop
  endfacet
  facet normal 0.684548 0.728968 0
    outer loop
      vertex -4.37381 -4.10728 10
      vertex -3.82454 -4.62308 0
      vertex -4.37381 -4.10728 0
    endloop
  endfacet
  facet normal 0.904825 0.425783 -1.54144e-18
    outer loop
      vertex -5.25784 -2.89052 10
      vertex -5.57866 -2.20875 0
      vertex -5.57866 -2.20875 10
    endloop
  endfacet
  facet normal 0.904825 0.425783 -1.54144e-18
    outer loop
      vertex -5.57866 -2.20875 0
      vertex -5.25784 -2.89052 10
      vertex -5.25784 -2.89052 0
    endloop
  endfacet
  facet normal -0.770513 -0.637425 2.90301e-18
    outer loop
      vertex 4.8541 3.52671 0
      vertex 4.37381 4.10728 10
      vertex 4.37381 4.10728 0
    endloop
  endfacet
  facet normal -0.770513 -0.637425 2.90301e-18
    outer loop
      vertex 4.37381 4.10728 10
      vertex 4.8541 3.52671 0
      vertex 4.8541 3.52671 10
    endloop
  endfacet
  facet normal 0 -1 0
    outer loop
      vertex -0.376742 5.98816 0
      vertex 0.376742 5.98816 10
      vertex -0.376742 5.98816 10
    endloop
  endfacet
  facet normal 0 -1 -0
    outer loop
      vertex 0.376742 5.98816 10
      vertex -0.376742 5.98816 0
      vertex 0.376742 5.98816 0
    endloop
  endfacet
  facet normal -0.248686 -0.968584 0
    outer loop
      vertex 1.12429 5.89372 0
      vertex 1.8541 5.70634 10
      vertex 1.12429 5.89372 10
    endloop
  endfacet
  facet normal -0.248686 -0.968584 -0
    outer loop
      vertex 1.8541 5.70634 10
      vertex 1.12429 5.89372 0
      vertex 1.8541 5.70634 0
    endloop
  endfacet
  facet normal -0.587789 -0.809014 0
    outer loop
      vertex 3.21496 5.06597 0
      vertex 3.82454 4.62308 10
      vertex 3.21496 5.06597 10
    endloop
  endfacet
  facet normal -0.587789 -0.809014 -0
    outer loop
      vertex 3.82454 4.62308 10
      vertex 3.21496 5.06597 0
      vertex 3.82454 4.62308 0
    endloop
  endfacet
  facet normal 0.998027 -0.0627882 4.16836e-19
    outer loop
      vertex -6 0 10
      vertex -5.95269 0.751999 0
      vertex -5.95269 0.751999 10
    endloop
  endfacet
  facet normal 0.998027 -0.0627882 4.16836e-19
    outer loop
      vertex -5.95269 0.751999 0
      vertex -6 0 10
      vertex -6 0 0
    endloop
  endfacet
  facet normal 0.844327 -0.535828 3.48936e-18
    outer loop
      vertex -5.25784 2.89052 10
      vertex -4.8541 3.52671 0
      vertex -4.8541 3.52671 10
    endloop
  endfacet
  facet normal 0.844327 -0.535828 3.48936e-18
    outer loop
      vertex -4.8541 3.52671 0
      vertex -5.25784 2.89052 10
      vertex -5.25784 2.89052 0
    endloop
  endfacet
  facet normal 0.248686 -0.968584 0
    outer loop
      vertex -1.8541 5.70634 0
      vertex -1.12429 5.89372 10
      vertex -1.8541 5.70634 10
    endloop
  endfacet
  facet normal 0.248686 -0.968584 0
    outer loop
      vertex -1.12429 5.89372 10
      vertex -1.8541 5.70634 0
      vertex -1.12429 5.89372 0
    endloop
  endfacet
  facet normal 0.587789 -0.809014 0
    outer loop
      vertex -3.82454 4.62308 0
      vertex -3.21496 5.06597 10
      vertex -3.82454 4.62308 10
    endloop
  endfacet
  facet normal 0.587789 -0.809014 0
    outer loop
      vertex -3.21496 5.06597 10
      vertex -3.82454 4.62308 0
      vertex -3.21496 5.06597 0
    endloop
  endfacet
  facet normal 0.481752 -0.876308 0
    outer loop
      vertex -3.21496 5.06597 0
      vertex -2.55468 5.42896 10
      vertex -3.21496 5.06597 10
    endloop
  endfacet
  facet normal 0.481752 -0.876308 0
    outer loop
      vertex -2.55468 5.42896 10
      vertex -3.21496 5.06597 0
      vertex -2.55468 5.42896 0
    endloop
  endfacet
  facet normal 0 1 -0
    outer loop
      vertex 0.376742 -5.98816 0
      vertex -0.376742 -5.98816 10
      vertex 0.376742 -5.98816 10
    endloop
  endfacet
  facet normal 0 1 0
    outer loop
      vertex -0.376742 -5.98816 10
      vertex 0.376742 -5.98816 0
      vertex -0.376742 -5.98816 0
    endloop
  endfacet
  facet normal 0.951057 0.309016 4.55056e-19
    outer loop
      vertex -5.57866 -2.20875 10
      vertex -5.8115 -1.49214 0
      vertex -5.8115 -1.49214 10
    endloop
  endfacet
  facet normal 0.951057 0.309016 4.55056e-19
    outer loop
      vertex -5.8115 -1.49214 0
      vertex -5.57866 -2.20875 10
      vertex -5.57866 -2.20875 0
    endloop
  endfacet
  facet normal 0.844327 0.535828 -3.48936e-18
    outer loop
      vertex -4.8541 -3.52671 10
      vertex -5.25784 -2.89052 0
      vertex -5.25784 -2.89052 10
    endloop
  endfacet
  facet normal 0.844327 0.535828 -3.48936e-18
    outer loop
      vertex -5.25784 -2.89052 0
      vertex -4.8541 -3.52671 10
      vertex -4.8541 -3.52671 0
    endloop
  endfacet
  facet normal -0.125337 0.992114 0
    outer loop
      vertex 1.12429 -5.89372 0
      vertex 0.376742 -5.98816 10
      vertex 1.12429 -5.89372 10
    endloop
  endfacet
  facet normal -0.125337 0.992114 0
    outer loop
      vertex 0.376742 -5.98816 10
      vertex 1.12429 -5.89372 0
      vertex 0.376742 -5.98816 0
    endloop
  endfacet
  facet normal -0.368125 0.929776 0
    outer loop
      vertex 2.55468 -5.42896 0
      vertex 1.8541 -5.70634 10
      vertex 2.55468 -5.42896 10
    endloop
  endfacet
  facet normal -0.368125 0.929776 0
    outer loop
      vertex 1.8541 -5.70634 10
      vertex 2.55468 -5.42896 0
      vertex 1.8541 -5.70634 0
    endloop
  endfacet
  facet normal -0.904825 -0.425783 -1.54144e-18
    outer loop
      vertex 5.57866 2.20875 0
      vertex 5.25784 2.89052 10
      vertex 5.25784 2.89052 0
    endloop
  endfacet
  facet normal -0.904825 -0.425783 -1.54144e-18
    outer loop
      vertex 5.25784 2.89052 10
      vertex 5.57866 2.20875 0
      vertex 5.57866 2.20875 10
    endloop
  endfacet
  facet normal -0.951057 -0.309016 4.55056e-19
    outer loop
      vertex 5.8115 1.49214 0
      vertex 5.57866 2.20875 10
      vertex 5.57866 2.20875 0
    endloop
  endfacet
  facet normal -0.951057 -0.309016 4.55056e-19
    outer loop
      vertex 5.57866 2.20875 10
      vertex 5.8115 1.49214 0
      vertex 5.8115 1.49214 10
    endloop
  endfacet
  facet normal -0.982287 -0.187382 7.69818e-19
    outer loop
      vertex 5.95269 0.751999 0
      vertex 5.8115 1.49214 10
      vertex 5.8115 1.49214 0
    endloop
  endfacet
  facet normal -0.982287 -0.187382 7.69818e-19
    outer loop
      vertex 5.8115 1.49214 10
      vertex 5.95269 0.751999 0
      vertex 5.95269 0.751999 10
    endloop
  endfacet
  facet normal -0.125337 -0.992114 0
    outer loop
      vertex 0.376742 5.98816 0
      vertex 1.12429 5.89372 10
      vertex 0.376742 5.98816 10
    endloop
  endfacet
  facet normal -0.125337 -0.992114 -0
    outer loop
      vertex 1.12429 5.89372 10
      vertex 0.376742 5.98816 0
      vertex 1.12429 5.89372 0
    endloop
  endfacet
  facet normal -0.998027 0.0627882 4.16836e-19
    outer loop
      vertex 5.95269 -0.751999 0
      vertex 6 0 10
      vertex 6 0 0
    endloop
  endfacet
  facet normal -0.998027 0.0627882 4.16836e-19
    outer loop
      vertex 6 0 10
      vertex 5.95269 -0.751999 0
      vertex 5.95269 -0.751999 10
    endloop
  endfacet
  facet normal -0.904825 0.425783 1.54144e-18
    outer loop
      vertex 5.25784 -2.89052 0
      vertex 5.57866 -2.20875 10
      vertex 5.57866 -2.20875 0
    endloop
  endfacet
  facet normal -0.904825 0.425783 1.54144e-18
    outer loop
      vertex 5.57866 -2.20875 10
      vertex 5.25784 -2.89052 0
      vertex 5.25784 -2.89052 10
    endloop
  endfacet
  facet normal -0.951057 0.309016 -4.55056e-19
    outer loop
      vertex 5.57866 -2.20875 0
      vertex 5.8115 -1.49214 10
      vertex 5.8115 -1.49214 0
    endloop
  endfacet
  facet normal -0.951057 0.309016 -4.55056e-19
    outer loop
      vertex 5.8115 -1.49214 10
      vertex 5.57866 -2.20875 0
      vertex 5.57866 -2.20875 10
    endloop
  endfacet
  facet normal -0.684548 0.728968 0
    outer loop
      vertex 4.37381 -4.10728 0
      vertex 3.82454 -4.62308 10
      vertex 4.37381 -4.10728 10
    endloop
  endfacet
  facet normal -0.684548 0.728968 0
    outer loop
      vertex 3.82454 -4.62308 10
      vertex 4.37381 -4.10728 0
      vertex 3.82454 -4.62308 0
    endloop
  endfacet
  facet normal -0.770513 0.637425 -2.90301e-18
    outer loop
      vertex 4.37381 -4.10728 0
      vertex 4.8541 -3.52671 10
      vertex 4.8541 -3.52671 0
    endloop
  endfacet
  facet normal -0.770513 0.637425 -2.90301e-18
    outer loop
      vertex 4.8541 -3.52671 10
      vertex 4.37381 -4.10728 0
      vertex 4.37381 -4.10728 10
    endloop
  endfacet
  facet normal 0.248686 0.968584 -0
    outer loop
      vertex -1.12429 -5.89372 0
      vertex -1.8541 -5.70634 10
      vertex -1.12429 -5.89372 10
    endloop
  endfacet
  facet normal 0.248686 0.968584 0
    outer loop
      vertex -1.8541 -5.70634 10
      vertex -1.12429 -5.89372 0
      vertex -1.8541 -5.70634 0
    endloop
  endfacet
  facet normal 0.770513 0.637425 2.90301e-18
    outer loop
      vertex -4.37381 -4.10728 10
      vertex -4.8541 -3.52671 0
      vertex -4.8541 -3.52671 10
    endloop
  endfacet
  facet normal 0.770513 0.637425 2.90301e-18
    outer loop
      vertex -4.8541 -3.52671 0
      vertex -4.37381 -4.10728 10
      vertex -4.37381 -4.10728 0
    endloop
  endfacet
  facet normal -0.248686 0.968584 0
    outer loop
      vertex 1.8541 -5.70634 0
      vertex 1.12429 -5.89372 10
      vertex 1.8541 -5.70634 10
    endloop
  endfacet
  facet normal -0.248686 0.968584 0
    outer loop
      vertex 1.12429 -5.89372 10
      vertex 1.8541 -5.70634 0
      vertex 1.12429 -5.89372 0
    endloop
  endfacet
  facet normal -0.587789 0.809014 0
    outer loop
      vertex 3.82454 -4.62308 0
      vertex 3.21496 -5.06597 10
      vertex 3.82454 -4.62308 10
    endloop
  endfacet
  facet normal -0.587789 0.809014 0
    outer loop
      vertex 3.21496 -5.06597 10
      vertex 3.82454 -4.62308 0
      vertex 3.21496 -5.06597 0
    endloop
  endfacet
  facet normal -0.844327 0.535828 3.48936e-18
    outer loop
      vertex 4.8541 -3.52671 0
      vertex 5.25784 -2.89052 10
      vertex 5.25784 -2.89052 0
    endloop
  endfacet
  facet normal -0.844327 0.535828 3.48936e-18
    outer loop
      vertex 5.25784 -2.89052 10
      vertex 4.8541 -3.52671 0
      vertex 4.8541 -3.52671 10
    endloop
  endfacet
  facet normal 0.125337 0.992114 -0
    outer loop
      vertex -0.376742 -5.98816 0
      vertex -1.12429 -5.89372 10
      vertex -0.376742 -5.98816 10
    endloop
  endfacet
  facet normal 0.125337 0.992114 0
    outer loop
      vertex -1.12429 -5.89372 10
      vertex -0.376742 -5.98816 0
      vertex -1.12429 -5.89372 0
    endloop
  endfacet
  facet normal 0.481752 0.876308 -0
    outer loop
      vertex -2.55468 -5.42896 0
      vertex -3.21496 -5.06597 10
      vertex -2.55468 -5.42896 10
    endloop
  endfacet
  facet normal 0.481752 0.876308 0
    outer loop
      vertex -3.21496 -5.06597 10
      vertex -2.55468 -5.42896 0
      vertex -3.21496 -5.06597 0
    endloop
  endfacet
  facet normal 0.982287 0.187382 7.69818e-19
    outer loop
      vertex -5.8115 -1.49214 10
      vertex -5.95269 -0.751999 0
      vertex -5.95269 -0.751999 10
    endloop
  endfacet
  facet normal 0.982287 0.187382 7.69818e-19
    outer loop
      vertex -5.95269 -0.751999 0
      vertex -5.8115 -1.49214 10
      vertex -5.8115 -1.49214 0
    endloop
  endfacet
  facet normal 0.998027 0.0627882 -4.16836e-19
    outer loop
      vertex -5.95269 -0.751999 10
      vertex -6 0 0
      vertex -6 0 10
    endloop
  endfacet
  facet normal 0.998027 0.0627882 -4.16836e-19
    outer loop
      vertex -6 0 0
      vertex -5.95269 -0.751999 10
      vertex -5.95269 -0.751999 0
    endloop
  endfacet
  facet normal 0.587789 0.809014 -0
    outer loop
      vertex -3.21496 -5.06597 0
      vertex -3.82454 -4.62308 10
      vertex -3.21496 -5.06597 10
    endloop
  endfacet
  facet normal 0.587789 0.809014 0
    outer loop
      vertex -3.82454 -4.62308 10
      vertex -3.21496 -5.06597 0
      vertex -3.82454 -4.62308 0
    endloop
  endfacet
  facet normal 0.368125 0.929776 -0
    outer loop
      vertex -1.8541 -5.70634 0
      vertex -2.55468 -5.42896 10
      vertex -1.8541 -5.70634 10
    endloop
  endfacet
  facet normal 0.368125 0.929776 0
    outer loop
      vertex -2.55468 -5.42896 10
      vertex -1.8541 -5.70634 0
      vertex -2.55468 -5.42896 0
    endloop
  endfacet
endsolid OpenSCAD_Model
