solid OpenSCAD_Model
  facet normal 0.998027 0.0627917 0
    outer loop
      vertex 55 0 13
      vertex 54.5663 6.89333 0
      vertex 54.5663 6.89333 13
    endloop
  endfacet
  facet normal 0.998027 0.0627917 0
    outer loop
      vertex 54.5663 6.89333 0
      vertex 55 0 13
      vertex 55 0 0
    endloop
  endfacet
  facet normal -0.998027 0.0627917 0
    outer loop
      vertex -55 0 0
      vertex -54.5663 6.89333 13
      vertex -54.5663 6.89333 0
    endloop
  endfacet
  facet normal -0.998027 0.0627917 0
    outer loop
      vertex -54.5663 6.89333 13
      vertex -55 0 0
      vertex -55 0 13
    endloop
  endfacet
  facet normal 0 1 -0
    outer loop
      vertex 3.45348 54.8915 0
      vertex -3.45348 54.8915 13
      vertex 3.45348 54.8915 13
    endloop
  endfacet
  facet normal 0 1 0
    outer loop
      vertex -3.45348 54.8915 13
      vertex 3.45348 54.8915 0
      vertex -3.45348 54.8915 0
    endloop
  endfacet
  facet normal 0 -1 0
    outer loop
      vertex -3.45348 -54.8915 0
      vertex 3.45348 -54.8915 13
      vertex -3.45348 -54.8915 13
    endloop
  endfacet
  facet normal 0 -1 -0
    outer loop
      vertex 3.45348 -54.8915 13
      vertex -3.45348 -54.8915 0
      vertex 3.45348 -54.8915 0
    endloop
  endfacet
  facet normal 0.684541 0.728974 -0
    outer loop
      vertex 40.0933 37.6501 0
      vertex 35.0583 42.3782 13
      vertex 40.0933 37.6501 13
    endloop
  endfacet
  facet normal 0.684541 0.728974 0
    outer loop
      vertex 35.0583 42.3782 13
      vertex 40.0933 37.6501 0
      vertex 35.0583 42.3782 0
    endloop
  endfacet
  facet normal -0.684541 0.728974 0
    outer loop
      vertex -35.0583 42.3782 0
      vertex -40.0933 37.6501 13
      vertex -35.0583 42.3782 13
    endloop
  endfacet
  facet normal -0.684541 0.728974 0
    outer loop
      vertex -40.0933 37.6501 13
      vertex -35.0583 42.3782 0
      vertex -40.0933 37.6501 0
    endloop
  endfacet
  facet normal -0.368118 0.929779 0
    outer loop
      vertex -16.9959 52.3081 0
      vertex -23.4179 49.7655 13
      vertex -16.9959 52.3081 13
    endloop
  endfacet
  facet normal -0.368118 0.929779 0
    outer loop
      vertex -23.4179 49.7655 13
      vertex -16.9959 52.3081 0
      vertex -23.4179 49.7655 0
    endloop
  endfacet
  facet normal 0.904832 0.425769 0
    outer loop
      vertex 51.1377 20.2468 13
      vertex 48.1969 26.4965 0
      vertex 48.1969 26.4965 13
    endloop
  endfacet
  facet normal 0.904832 0.425769 0
    outer loop
      vertex 48.1969 26.4965 0
      vertex 51.1377 20.2468 13
      vertex 51.1377 20.2468 0
    endloop
  endfacet
  facet normal 0.982288 0.187378 0
    outer loop
      vertex 54.5663 6.89333 13
      vertex 53.2721 13.6779 0
      vertex 53.2721 13.6779 13
    endloop
  endfacet
  facet normal 0.982288 0.187378 0
    outer loop
      vertex 53.2721 13.6779 0
      vertex 54.5663 6.89333 13
      vertex 54.5663 6.89333 0
    endloop
  endfacet
  facet normal 0.844322 0.535836 0
    outer loop
      vertex 48.1969 26.4965 13
      vertex 44.4959 32.3282 0
      vertex 44.4959 32.3282 13
    endloop
  endfacet
  facet normal 0.844322 0.535836 0
    outer loop
      vertex 44.4959 32.3282 0
      vertex 48.1969 26.4965 13
      vertex 48.1969 26.4965 0
    endloop
  endfacet
  facet normal 0.368118 0.929779 -0
    outer loop
      vertex 23.4179 49.7655 0
      vertex 16.9959 52.3081 13
      vertex 23.4179 49.7655 13
    endloop
  endfacet
  facet normal 0.368118 0.929779 0
    outer loop
      vertex 16.9959 52.3081 13
      vertex 23.4179 49.7655 0
      vertex 16.9959 52.3081 0
    endloop
  endfacet
  facet normal 0.48176 0.876303 -0
    outer loop
      vertex 29.4705 46.438 0
      vertex 23.4179 49.7655 13
      vertex 29.4705 46.438 13
    endloop
  endfacet
  facet normal 0.48176 0.876303 0
    outer loop
      vertex 23.4179 49.7655 13
      vertex 29.4705 46.438 0
      vertex 23.4179 49.7655 0
    endloop
  endfacet
  facet normal -0.904832 0.425769 0
    outer loop
      vertex -51.1377 20.2468 0
      vertex -48.1969 26.4965 13
      vertex -48.1969 26.4965 0
    endloop
  endfacet
  facet normal -0.904832 0.425769 0
    outer loop
      vertex -48.1969 26.4965 13
      vertex -51.1377 20.2468 0
      vertex -51.1377 20.2468 13
    endloop
  endfacet
  facet normal -0.951055 0.309022 0
    outer loop
      vertex -53.2721 13.6779 0
      vertex -51.1377 20.2468 13
      vertex -51.1377 20.2468 0
    endloop
  endfacet
  facet normal -0.951055 0.309022 0
    outer loop
      vertex -51.1377 20.2468 13
      vertex -53.2721 13.6779 0
      vertex -53.2721 13.6779 13
    endloop
  endfacet
  facet normal -0.248693 0.968582 0
    outer loop
      vertex -10.306 54.0258 0
      vertex -16.9959 52.3081 13
      vertex -10.306 54.0258 13
    endloop
  endfacet
  facet normal -0.248693 0.968582 0
    outer loop
      vertex -16.9959 52.3081 13
      vertex -10.306 54.0258 0
      vertex -16.9959 52.3081 0
    endloop
  endfacet
  facet normal 0.368118 -0.929779 0
    outer loop
      vertex 16.9959 -52.3081 0
      vertex 23.4179 -49.7655 13
      vertex 16.9959 -52.3081 13
    endloop
  endfacet
  facet normal 0.368118 -0.929779 0
    outer loop
      vertex 23.4179 -49.7655 13
      vertex 16.9959 -52.3081 0
      vertex 23.4179 -49.7655 0
    endloop
  endfacet
  facet normal 0.951055 0.309022 0
    outer loop
      vertex 53.2721 13.6779 13
      vertex 51.1377 20.2468 0
      vertex 51.1377 20.2468 13
    endloop
  endfacet
  facet normal 0.951055 0.309022 0
    outer loop
      vertex 51.1377 20.2468 0
      vertex 53.2721 13.6779 13
      vertex 53.2721 13.6779 0
    endloop
  endfacet
  facet normal 0.770517 0.637419 0
    outer loop
      vertex 44.4959 32.3282 13
      vertex 40.0933 37.6501 0
      vertex 40.0933 37.6501 13
    endloop
  endfacet
  facet normal 0.770517 0.637419 0
    outer loop
      vertex 40.0933 37.6501 0
      vertex 44.4959 32.3282 13
      vertex 44.4959 32.3282 0
    endloop
  endfacet
  facet normal 0.248693 0.968582 -0
    outer loop
      vertex 16.9959 52.3081 0
      vertex 10.306 54.0258 13
      vertex 16.9959 52.3081 13
    endloop
  endfacet
  facet normal 0.248693 0.968582 0
    outer loop
      vertex 10.306 54.0258 13
      vertex 16.9959 52.3081 0
      vertex 10.306 54.0258 0
    endloop
  endfacet
  facet normal 0.125337 0.992114 -0
    outer loop
      vertex 10.306 54.0258 0
      vertex 3.45348 54.8915 13
      vertex 10.306 54.0258 13
    endloop
  endfacet
  facet normal 0.125337 0.992114 0
    outer loop
      vertex 3.45348 54.8915 13
      vertex 10.306 54.0258 0
      vertex 3.45348 54.8915 0
    endloop
  endfacet
  facet normal 0.587788 0.809015 -0
    outer loop
      vertex 35.0583 42.3782 0
      vertex 29.4705 46.438 13
      vertex 35.0583 42.3782 13
    endloop
  endfacet
  facet normal 0.587788 0.809015 0
    outer loop
      vertex 29.4705 46.438 13
      vertex 35.0583 42.3782 0
      vertex 29.4705 46.438 0
    endloop
  endfacet
  facet normal -0.844322 0.535836 0
    outer loop
      vertex -48.1969 26.4965 0
      vertex -44.4959 32.3282 13
      vertex -44.4959 32.3282 0
    endloop
  endfacet
  facet normal -0.844322 0.535836 0
    outer loop
      vertex -44.4959 32.3282 13
      vertex -48.1969 26.4965 0
      vertex -48.1969 26.4965 13
    endloop
  endfacet
  facet normal -0.770517 0.637419 0
    outer loop
      vertex -44.4959 32.3282 0
      vertex -40.0933 37.6501 13
      vertex -40.0933 37.6501 0
    endloop
  endfacet
  facet normal -0.770517 0.637419 0
    outer loop
      vertex -40.0933 37.6501 13
      vertex -44.4959 32.3282 0
      vertex -44.4959 32.3282 13
    endloop
  endfacet
  facet normal -0.982288 0.187378 0
    outer loop
      vertex -54.5663 6.89333 0
      vertex -53.2721 13.6779 13
      vertex -53.2721 13.6779 0
    endloop
  endfacet
  facet normal -0.982288 0.187378 0
    outer loop
      vertex -53.2721 13.6779 13
      vertex -54.5663 6.89333 0
      vertex -54.5663 6.89333 13
    endloop
  endfacet
  facet normal 0 0 1
    outer loop
      vertex 42.5 0 13
      vertex 55 0 13
      vertex 54.5663 6.89333 13
    endloop
  endfacet
  facet normal 0 0 1
    outer loop
      vertex 42.1649 5.32666 13
      vertex 54.5663 6.89333 13
      vertex 53.2721 13.6779 13
    endloop
  endfacet
  facet normal 0 0 1
    outer loop
      vertex 55 0 13
      vertex 42.5 0 13
      vertex 54.5663 -6.89333 13
    endloop
  endfacet
  facet normal 0 0 1
    outer loop
      vertex 41.1648 10.5693 13
      vertex 53.2721 13.6779 13
      vertex 51.1377 20.2468 13
    endloop
  endfacet
  facet normal -0 0 1
    outer loop
      vertex 42.1649 -5.32666 13
      vertex 54.5663 -6.89333 13
      vertex 42.5 0 13
    endloop
  endfacet
  facet normal 0 0 1
    outer loop
      vertex 39.5155 15.6453 13
      vertex 51.1377 20.2468 13
      vertex 48.1969 26.4965 13
    endloop
  endfacet
  facet normal 0 0 1
    outer loop
      vertex 54.5663 -6.89333 13
      vertex 42.1649 -5.32666 13
      vertex 53.2721 -13.6779 13
    endloop
  endfacet
  facet normal 0 0 1
    outer loop
      vertex 37.243 20.4745 13
      vertex 48.1969 26.4965 13
      vertex 44.4959 32.3282 13
    endloop
  endfacet
  facet normal -0 0 1
    outer loop
      vertex 41.1648 -10.5693 13
      vertex 53.2721 -13.6779 13
      vertex 42.1649 -5.32666 13
    endloop
  endfacet
  facet normal 0 0 1
    outer loop
      vertex 53.2721 -13.6779 13
      vertex 41.1648 -10.5693 13
      vertex 51.1377 -20.2468 13
    endloop
  endfacet
  facet normal 0 0 1
    outer loop
      vertex 54.5663 6.89333 13
      vertex 42.1649 5.32666 13
      vertex 42.5 0 13
    endloop
  endfacet
  facet normal 0 0 1
    outer loop
      vertex 53.2721 13.6779 13
      vertex 41.1648 10.5693 13
      vertex 42.1649 5.32666 13
    endloop
  endfacet
  facet normal 0 0 1
    outer loop
      vertex 34.3832 24.9809 13
      vertex 44.4959 32.3282 13
      vertex 40.0933 37.6501 13
    endloop
  endfacet
  facet normal 0 0 1
    outer loop
      vertex 51.1377 20.2468 13
      vertex 39.5155 15.6453 13
      vertex 41.1648 10.5693 13
    endloop
  endfacet
  facet normal 0 0 1
    outer loop
      vertex 48.1969 26.4965 13
      vertex 37.243 20.4745 13
      vertex 39.5155 15.6453 13
    endloop
  endfacet
  facet normal 0 0 1
    outer loop
      vertex 30.9812 29.0933 13
      vertex 40.0933 37.6501 13
      vertex 35.0583 42.3782 13
    endloop
  endfacet
  facet normal 0 0 1
    outer loop
      vertex 44.4959 32.3282 13
      vertex 34.3832 24.9809 13
      vertex 37.243 20.4745 13
    endloop
  endfacet
  facet normal 0 0 1
    outer loop
      vertex 40.0933 37.6501 13
      vertex 30.9812 29.0933 13
      vertex 34.3832 24.9809 13
    endloop
  endfacet
  facet normal 0 0 1
    outer loop
      vertex 27.0905 32.7468 13
      vertex 35.0583 42.3782 13
      vertex 29.4705 46.438 13
    endloop
  endfacet
  facet normal 0 0 1
    outer loop
      vertex 35.0583 42.3782 13
      vertex 27.0905 32.7468 13
      vertex 30.9812 29.0933 13
    endloop
  endfacet
  facet normal 0 0 1
    outer loop
      vertex 22.7726 35.8839 13
      vertex 29.4705 46.438 13
      vertex 23.4179 49.7655 13
    endloop
  endfacet
  facet normal 0 0 1
    outer loop
      vertex 29.4705 46.438 13
      vertex 22.7726 35.8839 13
      vertex 27.0905 32.7468 13
    endloop
  endfacet
  facet normal 0 0 1
    outer loop
      vertex 23.4179 49.7655 13
      vertex 18.0956 38.4552 13
      vertex 22.7726 35.8839 13
    endloop
  endfacet
  facet normal 0 0 1
    outer loop
      vertex 16.9959 52.3081 13
      vertex 18.0956 38.4552 13
      vertex 23.4179 49.7655 13
    endloop
  endfacet
  facet normal 0 0 1
    outer loop
      vertex 16.9959 52.3081 13
      vertex 13.1332 40.4199 13
      vertex 18.0956 38.4552 13
    endloop
  endfacet
  facet normal 0 0 1
    outer loop
      vertex 10.306 54.0258 13
      vertex 13.1332 40.4199 13
      vertex 16.9959 52.3081 13
    endloop
  endfacet
  facet normal 0 0 1
    outer loop
      vertex 10.306 54.0258 13
      vertex 7.96371 41.7472 13
      vertex 13.1332 40.4199 13
    endloop
  endfacet
  facet normal 0 0 1
    outer loop
      vertex 3.45348 54.8915 13
      vertex 7.96371 41.7472 13
      vertex 10.306 54.0258 13
    endloop
  endfacet
  facet normal 0 0 1
    outer loop
      vertex 3.45348 54.8915 13
      vertex 2.6686 42.4161 13
      vertex 7.96371 41.7472 13
    endloop
  endfacet
  facet normal 0 0 1
    outer loop
      vertex 3.45348 54.8915 13
      vertex -2.6686 42.4161 13
      vertex 2.6686 42.4161 13
    endloop
  endfacet
  facet normal -0 0 1
    outer loop
      vertex -3.45348 54.8915 13
      vertex -2.6686 42.4161 13
      vertex 3.45348 54.8915 13
    endloop
  endfacet
  facet normal 0 0 1
    outer loop
      vertex -3.45348 54.8915 13
      vertex -7.96371 41.7472 13
      vertex -2.6686 42.4161 13
    endloop
  endfacet
  facet normal -0 0 1
    outer loop
      vertex -10.306 54.0258 13
      vertex -7.96371 41.7472 13
      vertex -3.45348 54.8915 13
    endloop
  endfacet
  facet normal 0 0 1
    outer loop
      vertex -10.306 54.0258 13
      vertex -13.1332 40.4199 13
      vertex -7.96371 41.7472 13
    endloop
  endfacet
  facet normal -0 0 1
    outer loop
      vertex -16.9959 52.3081 13
      vertex -13.1332 40.4199 13
      vertex -10.306 54.0258 13
    endloop
  endfacet
  facet normal 0 0 1
    outer loop
      vertex -16.9959 52.3081 13
      vertex -18.0956 38.4552 13
      vertex -13.1332 40.4199 13
    endloop
  endfacet
  facet normal -0 0 1
    outer loop
      vertex -23.4179 49.7655 13
      vertex -18.0956 38.4552 13
      vertex -16.9959 52.3081 13
    endloop
  endfacet
  facet normal 0 0 1
    outer loop
      vertex -18.0956 38.4552 13
      vertex -23.4179 49.7655 13
      vertex -22.7726 35.8839 13
    endloop
  endfacet
  facet normal -0 0 1
    outer loop
      vertex -29.4705 46.438 13
      vertex -22.7726 35.8839 13
      vertex -23.4179 49.7655 13
    endloop
  endfacet
  facet normal 0 0 1
    outer loop
      vertex -22.7726 35.8839 13
      vertex -29.4705 46.438 13
      vertex -27.0905 32.7468 13
    endloop
  endfacet
  facet normal -0 0 1
    outer loop
      vertex -35.0583 42.3782 13
      vertex -27.0905 32.7468 13
      vertex -29.4705 46.438 13
    endloop
  endfacet
  facet normal 0 0 1
    outer loop
      vertex -27.0905 32.7468 13
      vertex -35.0583 42.3782 13
      vertex -30.9812 29.0933 13
    endloop
  endfacet
  facet normal -0 0 1
    outer loop
      vertex -40.0933 37.6501 13
      vertex -30.9812 29.0933 13
      vertex -35.0583 42.3782 13
    endloop
  endfacet
  facet normal 0 0 1
    outer loop
      vertex -30.9812 29.0933 13
      vertex -40.0933 37.6501 13
      vertex -34.3832 24.9809 13
    endloop
  endfacet
  facet normal -0 0 1
    outer loop
      vertex -44.4959 32.3282 13
      vertex -34.3832 24.9809 13
      vertex -40.0933 37.6501 13
    endloop
  endfacet
  facet normal 0 0 1
    outer loop
      vertex -34.3832 24.9809 13
      vertex -44.4959 32.3282 13
      vertex -37.243 20.4745 13
    endloop
  endfacet
  facet normal -0 0 1
    outer loop
      vertex -48.1969 26.4965 13
      vertex -37.243 20.4745 13
      vertex -44.4959 32.3282 13
    endloop
  endfacet
  facet normal 0 0 1
    outer loop
      vertex -37.243 20.4745 13
      vertex -48.1969 26.4965 13
      vertex -39.5155 15.6453 13
    endloop
  endfacet
  facet normal 0 0 1
    outer loop
      vertex -39.5155 15.6453 13
      vertex -51.1377 20.2468 13
      vertex -41.1648 10.5693 13
    endloop
  endfacet
  facet normal -0 0 1
    outer loop
      vertex -51.1377 20.2468 13
      vertex -39.5155 15.6453 13
      vertex -48.1969 26.4965 13
    endloop
  endfacet
  facet normal -0 0 1
    outer loop
      vertex 39.5155 -15.6453 13
      vertex 51.1377 -20.2468 13
      vertex 41.1648 -10.5693 13
    endloop
  endfacet
  facet normal 0 0 1
    outer loop
      vertex 51.1377 -20.2468 13
      vertex 39.5155 -15.6453 13
      vertex 48.1969 -26.4965 13
    endloop
  endfacet
  facet normal -0 0 1
    outer loop
      vertex 37.243 -20.4745 13
      vertex 48.1969 -26.4965 13
      vertex 39.5155 -15.6453 13
    endloop
  endfacet
  facet normal 0 0 1
    outer loop
      vertex 48.1969 -26.4965 13
      vertex 37.243 -20.4745 13
      vertex 44.4959 -32.3282 13
    endloop
  endfacet
  facet normal -0 0 1
    outer loop
      vertex 34.3832 -24.9809 13
      vertex 44.4959 -32.3282 13
      vertex 37.243 -20.4745 13
    endloop
  endfacet
  facet normal 0 0 1
    outer loop
      vertex 44.4959 -32.3282 13
      vertex 34.3832 -24.9809 13
      vertex 40.0933 -37.6501 13
    endloop
  endfacet
  facet normal -0 0 1
    outer loop
      vertex 30.9812 -29.0933 13
      vertex 40.0933 -37.6501 13
      vertex 34.3832 -24.9809 13
    endloop
  endfacet
  facet normal 0 0 1
    outer loop
      vertex 40.0933 -37.6501 13
      vertex 30.9812 -29.0933 13
      vertex 35.0583 -42.3782 13
    endloop
  endfacet
  facet normal -0 0 1
    outer loop
      vertex 27.0905 -32.7468 13
      vertex 35.0583 -42.3782 13
      vertex 30.9812 -29.0933 13
    endloop
  endfacet
  facet normal 0 0 1
    outer loop
      vertex 35.0583 -42.3782 13
      vertex 27.0905 -32.7468 13
      vertex 29.4705 -46.438 13
    endloop
  endfacet
  facet normal -0 0 1
    outer loop
      vertex 22.7726 -35.8839 13
      vertex 29.4705 -46.438 13
      vertex 27.0905 -32.7468 13
    endloop
  endfacet
  facet normal 0 0 1
    outer loop
      vertex 29.4705 -46.438 13
      vertex 22.7726 -35.8839 13
      vertex 23.4179 -49.7655 13
    endloop
  endfacet
  facet normal -0 0 1
    outer loop
      vertex 18.0956 -38.4552 13
      vertex 23.4179 -49.7655 13
      vertex 22.7726 -35.8839 13
    endloop
  endfacet
  facet normal 0 0 1
    outer loop
      vertex 18.0956 -38.4552 13
      vertex 16.9959 -52.3081 13
      vertex 23.4179 -49.7655 13
    endloop
  endfacet
  facet normal -0 0 1
    outer loop
      vertex 13.1332 -40.4199 13
      vertex 16.9959 -52.3081 13
      vertex 18.0956 -38.4552 13
    endloop
  endfacet
  facet normal 0 0 1
    outer loop
      vertex 13.1332 -40.4199 13
      vertex 10.306 -54.0258 13
      vertex 16.9959 -52.3081 13
    endloop
  endfacet
  facet normal -0 0 1
    outer loop
      vertex 7.96371 -41.7472 13
      vertex 10.306 -54.0258 13
      vertex 13.1332 -40.4199 13
    endloop
  endfacet
  facet normal 0 0 1
    outer loop
      vertex 7.96371 -41.7472 13
      vertex 3.45348 -54.8915 13
      vertex 10.306 -54.0258 13
    endloop
  endfacet
  facet normal -0 0 1
    outer loop
      vertex 2.6686 -42.4161 13
      vertex 3.45348 -54.8915 13
      vertex 7.96371 -41.7472 13
    endloop
  endfacet
  facet normal -0 0 1
    outer loop
      vertex -2.6686 -42.4161 13
      vertex 3.45348 -54.8915 13
      vertex 2.6686 -42.4161 13
    endloop
  endfacet
  facet normal 0 0 1
    outer loop
      vertex -2.6686 -42.4161 13
      vertex -3.45348 -54.8915 13
      vertex 3.45348 -54.8915 13
    endloop
  endfacet
  facet normal 0 0 1
    outer loop
      vertex -7.96371 -41.7472 13
      vertex -3.45348 -54.8915 13
      vertex -2.6686 -42.4161 13
    endloop
  endfacet
  facet normal 0 0 1
    outer loop
      vertex -7.96371 -41.7472 13
      vertex -10.306 -54.0258 13
      vertex -3.45348 -54.8915 13
    endloop
  endfacet
  facet normal 0 0 1
    outer loop
      vertex -13.1332 -40.4199 13
      vertex -10.306 -54.0258 13
      vertex -7.96371 -41.7472 13
    endloop
  endfacet
  facet normal 0 0 1
    outer loop
      vertex -13.1332 -40.4199 13
      vertex -16.9959 -52.3081 13
      vertex -10.306 -54.0258 13
    endloop
  endfacet
  facet normal 0 0 1
    outer loop
      vertex -18.0956 -38.4552 13
      vertex -16.9959 -52.3081 13
      vertex -13.1332 -40.4199 13
    endloop
  endfacet
  facet normal 0 0 1
    outer loop
      vertex -23.4179 -49.7655 13
      vertex -18.0956 -38.4552 13
      vertex -22.7726 -35.8839 13
    endloop
  endfacet
  facet normal 0 0 1
    outer loop
      vertex -18.0956 -38.4552 13
      vertex -23.4179 -49.7655 13
      vertex -16.9959 -52.3081 13
    endloop
  endfacet
  facet normal 0 0 1
    outer loop
      vertex -29.4705 -46.438 13
      vertex -22.7726 -35.8839 13
      vertex -27.0905 -32.7468 13
    endloop
  endfacet
  facet normal 0 0 1
    outer loop
      vertex -22.7726 -35.8839 13
      vertex -29.4705 -46.438 13
      vertex -23.4179 -49.7655 13
    endloop
  endfacet
  facet normal 0 0 1
    outer loop
      vertex -35.0583 -42.3782 13
      vertex -27.0905 -32.7468 13
      vertex -30.9812 -29.0933 13
    endloop
  endfacet
  facet normal 0 0 1
    outer loop
      vertex -40.0933 -37.6501 13
      vertex -30.9812 -29.0933 13
      vertex -34.3832 -24.9809 13
    endloop
  endfacet
  facet normal 0 0 1
    outer loop
      vertex -27.0905 -32.7468 13
      vertex -35.0583 -42.3782 13
      vertex -29.4705 -46.438 13
    endloop
  endfacet
  facet normal 0 0 1
    outer loop
      vertex -44.4959 -32.3282 13
      vertex -34.3832 -24.9809 13
      vertex -37.243 -20.4745 13
    endloop
  endfacet
  facet normal 0 0 1
    outer loop
      vertex -48.1969 -26.4965 13
      vertex -37.243 -20.4745 13
      vertex -39.5155 -15.6453 13
    endloop
  endfacet
  facet normal 0 0 1
    outer loop
      vertex -30.9812 -29.0933 13
      vertex -40.0933 -37.6501 13
      vertex -35.0583 -42.3782 13
    endloop
  endfacet
  facet normal 0 0 1
    outer loop
      vertex -51.1377 -20.2468 13
      vertex -39.5155 -15.6453 13
      vertex -41.1648 -10.5693 13
    endloop
  endfacet
  facet normal 0 0 1
    outer loop
      vertex -53.2721 -13.6779 13
      vertex -41.1648 -10.5693 13
      vertex -42.1649 -5.32666 13
    endloop
  endfacet
  facet normal 0 0 1
    outer loop
      vertex -34.3832 -24.9809 13
      vertex -44.4959 -32.3282 13
      vertex -40.0933 -37.6501 13
    endloop
  endfacet
  facet normal 0 0 1
    outer loop
      vertex -54.5663 -6.89333 13
      vertex -42.1649 -5.32666 13
      vertex -42.5 0 13
    endloop
  endfacet
  facet normal -0 0 1
    outer loop
      vertex -53.2721 13.6779 13
      vertex -41.1648 10.5693 13
      vertex -51.1377 20.2468 13
    endloop
  endfacet
  facet normal 0 0 1
    outer loop
      vertex -41.1648 10.5693 13
      vertex -53.2721 13.6779 13
      vertex -42.1649 5.32666 13
    endloop
  endfacet
  facet normal 0 0 1
    outer loop
      vertex -37.243 -20.4745 13
      vertex -48.1969 -26.4965 13
      vertex -44.4959 -32.3282 13
    endloop
  endfacet
  facet normal -0 0 1
    outer loop
      vertex -54.5663 6.89333 13
      vertex -42.1649 5.32666 13
      vertex -53.2721 13.6779 13
    endloop
  endfacet
  facet normal 0 0 1
    outer loop
      vertex -39.5155 -15.6453 13
      vertex -51.1377 -20.2468 13
      vertex -48.1969 -26.4965 13
    endloop
  endfacet
  facet normal 0 0 1
    outer loop
      vertex -42.1649 5.32666 13
      vertex -54.5663 6.89333 13
      vertex -42.5 0 13
    endloop
  endfacet
  facet normal 0 0 1
    outer loop
      vertex -41.1648 -10.5693 13
      vertex -53.2721 -13.6779 13
      vertex -51.1377 -20.2468 13
    endloop
  endfacet
  facet normal 0 0 1
    outer loop
      vertex -55 0 13
      vertex -42.5 0 13
      vertex -54.5663 6.89333 13
    endloop
  endfacet
  facet normal 0 0 1
    outer loop
      vertex -42.1649 -5.32666 13
      vertex -54.5663 -6.89333 13
      vertex -53.2721 -13.6779 13
    endloop
  endfacet
  facet normal 0 0 1
    outer loop
      vertex -42.5 0 13
      vertex -55 0 13
      vertex -54.5663 -6.89333 13
    endloop
  endfacet
  facet normal -0.48176 0.876303 0
    outer loop
      vertex -23.4179 49.7655 0
      vertex -29.4705 46.438 13
      vertex -23.4179 49.7655 13
    endloop
  endfacet
  facet normal -0.48176 0.876303 0
    outer loop
      vertex -29.4705 46.438 13
      vertex -23.4179 49.7655 0
      vertex -29.4705 46.438 0
    endloop
  endfacet
  facet normal -0.587788 0.809015 0
    outer loop
      vertex -29.4705 46.438 0
      vertex -35.0583 42.3782 13
      vertex -29.4705 46.438 13
    endloop
  endfacet
  facet normal -0.587788 0.809015 0
    outer loop
      vertex -35.0583 42.3782 13
      vertex -29.4705 46.438 0
      vertex -35.0583 42.3782 0
    endloop
  endfacet
  facet normal -0.125337 0.992114 0
    outer loop
      vertex -3.45348 54.8915 0
      vertex -10.306 54.0258 13
      vertex -3.45348 54.8915 13
    endloop
  endfacet
  facet normal -0.125337 0.992114 0
    outer loop
      vertex -10.306 54.0258 13
      vertex -3.45348 54.8915 0
      vertex -10.306 54.0258 0
    endloop
  endfacet
  facet normal 0.998027 -0.0627917 0
    outer loop
      vertex 54.5663 -6.89333 13
      vertex 55 0 0
      vertex 55 0 13
    endloop
  endfacet
  facet normal 0.998027 -0.0627917 0
    outer loop
      vertex 55 0 0
      vertex 54.5663 -6.89333 13
      vertex 54.5663 -6.89333 0
    endloop
  endfacet
  facet normal 0.48176 -0.876303 0
    outer loop
      vertex 23.4179 -49.7655 0
      vertex 29.4705 -46.438 13
      vertex 23.4179 -49.7655 13
    endloop
  endfacet
  facet normal 0.48176 -0.876303 0
    outer loop
      vertex 29.4705 -46.438 13
      vertex 23.4179 -49.7655 0
      vertex 29.4705 -46.438 0
    endloop
  endfacet
  facet normal 0.684541 -0.728974 0
    outer loop
      vertex 35.0583 -42.3782 0
      vertex 40.0933 -37.6501 13
      vertex 35.0583 -42.3782 13
    endloop
  endfacet
  facet normal 0.684541 -0.728974 0
    outer loop
      vertex 40.0933 -37.6501 13
      vertex 35.0583 -42.3782 0
      vertex 40.0933 -37.6501 0
    endloop
  endfacet
  facet normal 0.982288 -0.187378 0
    outer loop
      vertex 53.2721 -13.6779 13
      vertex 54.5663 -6.89333 0
      vertex 54.5663 -6.89333 13
    endloop
  endfacet
  facet normal 0.982288 -0.187378 0
    outer loop
      vertex 54.5663 -6.89333 0
      vertex 53.2721 -13.6779 13
      vertex 53.2721 -13.6779 0
    endloop
  endfacet
  facet normal 0 0 -1
    outer loop
      vertex 42.5 0 0
      vertex 55 0 0
      vertex 54.5663 -6.89333 0
    endloop
  endfacet
  facet normal 0 0 -1
    outer loop
      vertex 42.1649 -5.32666 0
      vertex 54.5663 -6.89333 0
      vertex 53.2721 -13.6779 0
    endloop
  endfacet
  facet normal 0 0 -1
    outer loop
      vertex 55 0 0
      vertex 42.5 0 0
      vertex 54.5663 6.89333 0
    endloop
  endfacet
  facet normal 0 0 -1
    outer loop
      vertex 41.1648 -10.5693 0
      vertex 53.2721 -13.6779 0
      vertex 51.1377 -20.2468 0
    endloop
  endfacet
  facet normal 0 0 -1
    outer loop
      vertex 42.1649 5.32666 0
      vertex 54.5663 6.89333 0
      vertex 42.5 0 0
    endloop
  endfacet
  facet normal 0 0 -1
    outer loop
      vertex 39.5155 -15.6453 0
      vertex 51.1377 -20.2468 0
      vertex 48.1969 -26.4965 0
    endloop
  endfacet
  facet normal -0 0 -1
    outer loop
      vertex 54.5663 6.89333 0
      vertex 42.1649 5.32666 0
      vertex 53.2721 13.6779 0
    endloop
  endfacet
  facet normal 0 0 -1
    outer loop
      vertex 37.243 -20.4745 0
      vertex 48.1969 -26.4965 0
      vertex 44.4959 -32.3282 0
    endloop
  endfacet
  facet normal 0 0 -1
    outer loop
      vertex 41.1648 10.5693 0
      vertex 53.2721 13.6779 0
      vertex 42.1649 5.32666 0
    endloop
  endfacet
  facet normal -0 0 -1
    outer loop
      vertex 53.2721 13.6779 0
      vertex 41.1648 10.5693 0
      vertex 51.1377 20.2468 0
    endloop
  endfacet
  facet normal 0 0 -1
    outer loop
      vertex 54.5663 -6.89333 0
      vertex 42.1649 -5.32666 0
      vertex 42.5 0 0
    endloop
  endfacet
  facet normal 0 0 -1
    outer loop
      vertex 53.2721 -13.6779 0
      vertex 41.1648 -10.5693 0
      vertex 42.1649 -5.32666 0
    endloop
  endfacet
  facet normal 0 0 -1
    outer loop
      vertex 34.3832 -24.9809 0
      vertex 44.4959 -32.3282 0
      vertex 40.0933 -37.6501 0
    endloop
  endfacet
  facet normal 0 0 -1
    outer loop
      vertex 51.1377 -20.2468 0
      vertex 39.5155 -15.6453 0
      vertex 41.1648 -10.5693 0
    endloop
  endfacet
  facet normal 0 0 -1
    outer loop
      vertex 48.1969 -26.4965 0
      vertex 37.243 -20.4745 0
      vertex 39.5155 -15.6453 0
    endloop
  endfacet
  facet normal 0 0 -1
    outer loop
      vertex 30.9812 -29.0933 0
      vertex 40.0933 -37.6501 0
      vertex 35.0583 -42.3782 0
    endloop
  endfacet
  facet normal 0 0 -1
    outer loop
      vertex 44.4959 -32.3282 0
      vertex 34.3832 -24.9809 0
      vertex 37.243 -20.4745 0
    endloop
  endfacet
  facet normal 0 0 -1
    outer loop
      vertex 40.0933 -37.6501 0
      vertex 30.9812 -29.0933 0
      vertex 34.3832 -24.9809 0
    endloop
  endfacet
  facet normal 0 0 -1
    outer loop
      vertex 27.0905 -32.7468 0
      vertex 35.0583 -42.3782 0
      vertex 29.4705 -46.438 0
    endloop
  endfacet
  facet normal 0 0 -1
    outer loop
      vertex 35.0583 -42.3782 0
      vertex 27.0905 -32.7468 0
      vertex 30.9812 -29.0933 0
    endloop
  endfacet
  facet normal 0 0 -1
    outer loop
      vertex 22.7726 -35.8839 0
      vertex 29.4705 -46.438 0
      vertex 23.4179 -49.7655 0
    endloop
  endfacet
  facet normal 0 0 -1
    outer loop
      vertex 29.4705 -46.438 0
      vertex 22.7726 -35.8839 0
      vertex 27.0905 -32.7468 0
    endloop
  endfacet
  facet normal 0 0 -1
    outer loop
      vertex 23.4179 -49.7655 0
      vertex 18.0956 -38.4552 0
      vertex 22.7726 -35.8839 0
    endloop
  endfacet
  facet normal 0 0 -1
    outer loop
      vertex 16.9959 -52.3081 0
      vertex 18.0956 -38.4552 0
      vertex 23.4179 -49.7655 0
    endloop
  endfacet
  facet normal 0 0 -1
    outer loop
      vertex 16.9959 -52.3081 0
      vertex 13.1332 -40.4199 0
      vertex 18.0956 -38.4552 0
    endloop
  endfacet
  facet normal 0 0 -1
    outer loop
      vertex 10.306 -54.0258 0
      vertex 13.1332 -40.4199 0
      vertex 16.9959 -52.3081 0
    endloop
  endfacet
  facet normal 0 0 -1
    outer loop
      vertex 10.306 -54.0258 0
      vertex 7.96371 -41.7472 0
      vertex 13.1332 -40.4199 0
    endloop
  endfacet
  facet normal 0 0 -1
    outer loop
      vertex 3.45348 -54.8915 0
      vertex 7.96371 -41.7472 0
      vertex 10.306 -54.0258 0
    endloop
  endfacet
  facet normal 0 0 -1
    outer loop
      vertex 3.45348 -54.8915 0
      vertex 2.6686 -42.4161 0
      vertex 7.96371 -41.7472 0
    endloop
  endfacet
  facet normal 0 0 -1
    outer loop
      vertex 3.45348 -54.8915 0
      vertex -2.6686 -42.4161 0
      vertex 2.6686 -42.4161 0
    endloop
  endfacet
  facet normal 0 0 -1
    outer loop
      vertex -3.45348 -54.8915 0
      vertex -2.6686 -42.4161 0
      vertex 3.45348 -54.8915 0
    endloop
  endfacet
  facet normal 0 0 -1
    outer loop
      vertex -3.45348 -54.8915 0
      vertex -7.96371 -41.7472 0
      vertex -2.6686 -42.4161 0
    endloop
  endfacet
  facet normal 0 0 -1
    outer loop
      vertex -10.306 -54.0258 0
      vertex -7.96371 -41.7472 0
      vertex -3.45348 -54.8915 0
    endloop
  endfacet
  facet normal 0 0 -1
    outer loop
      vertex -10.306 -54.0258 0
      vertex -13.1332 -40.4199 0
      vertex -7.96371 -41.7472 0
    endloop
  endfacet
  facet normal 0 0 -1
    outer loop
      vertex -16.9959 -52.3081 0
      vertex -13.1332 -40.4199 0
      vertex -10.306 -54.0258 0
    endloop
  endfacet
  facet normal 0 0 -1
    outer loop
      vertex -16.9959 -52.3081 0
      vertex -18.0956 -38.4552 0
      vertex -13.1332 -40.4199 0
    endloop
  endfacet
  facet normal 0 0 -1
    outer loop
      vertex -23.4179 -49.7655 0
      vertex -18.0956 -38.4552 0
      vertex -16.9959 -52.3081 0
    endloop
  endfacet
  facet normal -0 0 -1
    outer loop
      vertex -18.0956 -38.4552 0
      vertex -23.4179 -49.7655 0
      vertex -22.7726 -35.8839 0
    endloop
  endfacet
  facet normal 0 0 -1
    outer loop
      vertex -29.4705 -46.438 0
      vertex -22.7726 -35.8839 0
      vertex -23.4179 -49.7655 0
    endloop
  endfacet
  facet normal -0 0 -1
    outer loop
      vertex -22.7726 -35.8839 0
      vertex -29.4705 -46.438 0
      vertex -27.0905 -32.7468 0
    endloop
  endfacet
  facet normal 0 0 -1
    outer loop
      vertex -35.0583 -42.3782 0
      vertex -27.0905 -32.7468 0
      vertex -29.4705 -46.438 0
    endloop
  endfacet
  facet normal -0 0 -1
    outer loop
      vertex -27.0905 -32.7468 0
      vertex -35.0583 -42.3782 0
      vertex -30.9812 -29.0933 0
    endloop
  endfacet
  facet normal 0 0 -1
    outer loop
      vertex -40.0933 -37.6501 0
      vertex -30.9812 -29.0933 0
      vertex -35.0583 -42.3782 0
    endloop
  endfacet
  facet normal -0 0 -1
    outer loop
      vertex -30.9812 -29.0933 0
      vertex -40.0933 -37.6501 0
      vertex -34.3832 -24.9809 0
    endloop
  endfacet
  facet normal 0 0 -1
    outer loop
      vertex -44.4959 -32.3282 0
      vertex -34.3832 -24.9809 0
      vertex -40.0933 -37.6501 0
    endloop
  endfacet
  facet normal -0 0 -1
    outer loop
      vertex -34.3832 -24.9809 0
      vertex -44.4959 -32.3282 0
      vertex -37.243 -20.4745 0
    endloop
  endfacet
  facet normal 0 0 -1
    outer loop
      vertex -48.1969 -26.4965 0
      vertex -37.243 -20.4745 0
      vertex -44.4959 -32.3282 0
    endloop
  endfacet
  facet normal -0 0 -1
    outer loop
      vertex -37.243 -20.4745 0
      vertex -48.1969 -26.4965 0
      vertex -39.5155 -15.6453 0
    endloop
  endfacet
  facet normal -0 0 -1
    outer loop
      vertex -39.5155 -15.6453 0
      vertex -51.1377 -20.2468 0
      vertex -41.1648 -10.5693 0
    endloop
  endfacet
  facet normal 0 0 -1
    outer loop
      vertex -51.1377 -20.2468 0
      vertex -39.5155 -15.6453 0
      vertex -48.1969 -26.4965 0
    endloop
  endfacet
  facet normal 0 0 -1
    outer loop
      vertex 39.5155 15.6453 0
      vertex 51.1377 20.2468 0
      vertex 41.1648 10.5693 0
    endloop
  endfacet
  facet normal -0 0 -1
    outer loop
      vertex 51.1377 20.2468 0
      vertex 39.5155 15.6453 0
      vertex 48.1969 26.4965 0
    endloop
  endfacet
  facet normal 0 0 -1
    outer loop
      vertex 37.243 20.4745 0
      vertex 48.1969 26.4965 0
      vertex 39.5155 15.6453 0
    endloop
  endfacet
  facet normal -0 0 -1
    outer loop
      vertex 48.1969 26.4965 0
      vertex 37.243 20.4745 0
      vertex 44.4959 32.3282 0
    endloop
  endfacet
  facet normal 0 0 -1
    outer loop
      vertex 34.3832 24.9809 0
      vertex 44.4959 32.3282 0
      vertex 37.243 20.4745 0
    endloop
  endfacet
  facet normal -0 0 -1
    outer loop
      vertex 44.4959 32.3282 0
      vertex 34.3832 24.9809 0
      vertex 40.0933 37.6501 0
    endloop
  endfacet
  facet normal 0 0 -1
    outer loop
      vertex 30.9812 29.0933 0
      vertex 40.0933 37.6501 0
      vertex 34.3832 24.9809 0
    endloop
  endfacet
  facet normal -0 0 -1
    outer loop
      vertex 40.0933 37.6501 0
      vertex 30.9812 29.0933 0
      vertex 35.0583 42.3782 0
    endloop
  endfacet
  facet normal 0 0 -1
    outer loop
      vertex 27.0905 32.7468 0
      vertex 35.0583 42.3782 0
      vertex 30.9812 29.0933 0
    endloop
  endfacet
  facet normal -0 0 -1
    outer loop
      vertex 35.0583 42.3782 0
      vertex 27.0905 32.7468 0
      vertex 29.4705 46.438 0
    endloop
  endfacet
  facet normal 0 0 -1
    outer loop
      vertex 22.7726 35.8839 0
      vertex 29.4705 46.438 0
      vertex 27.0905 32.7468 0
    endloop
  endfacet
  facet normal -0 0 -1
    outer loop
      vertex 29.4705 46.438 0
      vertex 22.7726 35.8839 0
      vertex 23.4179 49.7655 0
    endloop
  endfacet
  facet normal 0 0 -1
    outer loop
      vertex 18.0956 38.4552 0
      vertex 23.4179 49.7655 0
      vertex 22.7726 35.8839 0
    endloop
  endfacet
  facet normal 0 0 -1
    outer loop
      vertex 18.0956 38.4552 0
      vertex 16.9959 52.3081 0
      vertex 23.4179 49.7655 0
    endloop
  endfacet
  facet normal 0 0 -1
    outer loop
      vertex 13.1332 40.4199 0
      vertex 16.9959 52.3081 0
      vertex 18.0956 38.4552 0
    endloop
  endfacet
  facet normal 0 0 -1
    outer loop
      vertex 13.1332 40.4199 0
      vertex 10.306 54.0258 0
      vertex 16.9959 52.3081 0
    endloop
  endfacet
  facet normal 0 0 -1
    outer loop
      vertex 7.96371 41.7472 0
      vertex 10.306 54.0258 0
      vertex 13.1332 40.4199 0
    endloop
  endfacet
  facet normal 0 0 -1
    outer loop
      vertex 7.96371 41.7472 0
      vertex 3.45348 54.8915 0
      vertex 10.306 54.0258 0
    endloop
  endfacet
  facet normal 0 0 -1
    outer loop
      vertex 2.6686 42.4161 0
      vertex 3.45348 54.8915 0
      vertex 7.96371 41.7472 0
    endloop
  endfacet
  facet normal 0 0 -1
    outer loop
      vertex -2.6686 42.4161 0
      vertex 3.45348 54.8915 0
      vertex 2.6686 42.4161 0
    endloop
  endfacet
  facet normal 0 0 -1
    outer loop
      vertex -2.6686 42.4161 0
      vertex -3.45348 54.8915 0
      vertex 3.45348 54.8915 0
    endloop
  endfacet
  facet normal 0 0 -1
    outer loop
      vertex -7.96371 41.7472 0
      vertex -3.45348 54.8915 0
      vertex -2.6686 42.4161 0
    endloop
  endfacet
  facet normal 0 0 -1
    outer loop
      vertex -7.96371 41.7472 0
      vertex -10.306 54.0258 0
      vertex -3.45348 54.8915 0
    endloop
  endfacet
  facet normal 0 0 -1
    outer loop
      vertex -13.1332 40.4199 0
      vertex -10.306 54.0258 0
      vertex -7.96371 41.7472 0
    endloop
  endfacet
  facet normal 0 0 -1
    outer loop
      vertex -13.1332 40.4199 0
      vertex -16.9959 52.3081 0
      vertex -10.306 54.0258 0
    endloop
  endfacet
  facet normal 0 0 -1
    outer loop
      vertex -18.0956 38.4552 0
      vertex -16.9959 52.3081 0
      vertex -13.1332 40.4199 0
    endloop
  endfacet
  facet normal 0 0 -1
    outer loop
      vertex -23.4179 49.7655 0
      vertex -18.0956 38.4552 0
      vertex -22.7726 35.8839 0
    endloop
  endfacet
  facet normal 0 0 -1
    outer loop
      vertex -18.0956 38.4552 0
      vertex -23.4179 49.7655 0
      vertex -16.9959 52.3081 0
    endloop
  endfacet
  facet normal 0 0 -1
    outer loop
      vertex -29.4705 46.438 0
      vertex -22.7726 35.8839 0
      vertex -27.0905 32.7468 0
    endloop
  endfacet
  facet normal 0 0 -1
    outer loop
      vertex -22.7726 35.8839 0
      vertex -29.4705 46.438 0
      vertex -23.4179 49.7655 0
    endloop
  endfacet
  facet normal 0 0 -1
    outer loop
      vertex -35.0583 42.3782 0
      vertex -27.0905 32.7468 0
      vertex -30.9812 29.0933 0
    endloop
  endfacet
  facet normal 0 0 -1
    outer loop
      vertex -40.0933 37.6501 0
      vertex -30.9812 29.0933 0
      vertex -34.3832 24.9809 0
    endloop
  endfacet
  facet normal 0 0 -1
    outer loop
      vertex -27.0905 32.7468 0
      vertex -35.0583 42.3782 0
      vertex -29.4705 46.438 0
    endloop
  endfacet
  facet normal 0 0 -1
    outer loop
      vertex -44.4959 32.3282 0
      vertex -34.3832 24.9809 0
      vertex -37.243 20.4745 0
    endloop
  endfacet
  facet normal 0 0 -1
    outer loop
      vertex -48.1969 26.4965 0
      vertex -37.243 20.4745 0
      vertex -39.5155 15.6453 0
    endloop
  endfacet
  facet normal 0 0 -1
    outer loop
      vertex -30.9812 29.0933 0
      vertex -40.0933 37.6501 0
      vertex -35.0583 42.3782 0
    endloop
  endfacet
  facet normal 0 0 -1
    outer loop
      vertex -51.1377 20.2468 0
      vertex -39.5155 15.6453 0
      vertex -41.1648 10.5693 0
    endloop
  endfacet
  facet normal 0 0 -1
    outer loop
      vertex -53.2721 13.6779 0
      vertex -41.1648 10.5693 0
      vertex -42.1649 5.32666 0
    endloop
  endfacet
  facet normal 0 0 -1
    outer loop
      vertex -34.3832 24.9809 0
      vertex -44.4959 32.3282 0
      vertex -40.0933 37.6501 0
    endloop
  endfacet
  facet normal 0 0 -1
    outer loop
      vertex -54.5663 6.89333 0
      vertex -42.1649 5.32666 0
      vertex -42.5 0 0
    endloop
  endfacet
  facet normal 0 0 -1
    outer loop
      vertex -53.2721 -13.6779 0
      vertex -41.1648 -10.5693 0
      vertex -51.1377 -20.2468 0
    endloop
  endfacet
  facet normal -0 0 -1
    outer loop
      vertex -41.1648 -10.5693 0
      vertex -53.2721 -13.6779 0
      vertex -42.1649 -5.32666 0
    endloop
  endfacet
  facet normal 0 0 -1
    outer loop
      vertex -37.243 20.4745 0
      vertex -48.1969 26.4965 0
      vertex -44.4959 32.3282 0
    endloop
  endfacet
  facet normal 0 0 -1
    outer loop
      vertex -54.5663 -6.89333 0
      vertex -42.1649 -5.32666 0
      vertex -53.2721 -13.6779 0
    endloop
  endfacet
  facet normal 0 0 -1
    outer loop
      vertex -39.5155 15.6453 0
      vertex -51.1377 20.2468 0
      vertex -48.1969 26.4965 0
    endloop
  endfacet
  facet normal -0 0 -1
    outer loop
      vertex -42.1649 -5.32666 0
      vertex -54.5663 -6.89333 0
      vertex -42.5 0 0
    endloop
  endfacet
  facet normal 0 0 -1
    outer loop
      vertex -41.1648 10.5693 0
      vertex -53.2721 13.6779 0
      vertex -51.1377 20.2468 0
    endloop
  endfacet
  facet normal 0 0 -1
    outer loop
      vertex -55 0 0
      vertex -42.5 0 0
      vertex -54.5663 -6.89333 0
    endloop
  endfacet
  facet normal 0 0 -1
    outer loop
      vertex -42.1649 5.32666 0
      vertex -54.5663 6.89333 0
      vertex -53.2721 13.6779 0
    endloop
  endfacet
  facet normal 0 0 -1
    outer loop
      vertex -42.5 0 0
      vertex -55 0 0
      vertex -54.5663 6.89333 0
    endloop
  endfacet
  facet normal 0.770517 -0.637419 0
    outer loop
      vertex 40.0933 -37.6501 13
      vertex 44.4959 -32.3282 0
      vertex 44.4959 -32.3282 13
    endloop
  endfacet
  facet normal 0.770517 -0.637419 0
    outer loop
      vertex 44.4959 -32.3282 0
      vertex 40.0933 -37.6501 13
      vertex 40.0933 -37.6501 0
    endloop
  endfacet
  facet normal 0.904832 -0.425769 0
    outer loop
      vertex 48.1969 -26.4965 13
      vertex 51.1377 -20.2468 0
      vertex 51.1377 -20.2468 13
    endloop
  endfacet
  facet normal 0.904832 -0.425769 0
    outer loop
      vertex 51.1377 -20.2468 0
      vertex 48.1969 -26.4965 13
      vertex 48.1969 -26.4965 0
    endloop
  endfacet
  facet normal -0.770517 -0.637419 0
    outer loop
      vertex -40.0933 -37.6501 0
      vertex -44.4959 -32.3282 13
      vertex -44.4959 -32.3282 0
    endloop
  endfacet
  facet normal -0.770517 -0.637419 0
    outer loop
      vertex -44.4959 -32.3282 13
      vertex -40.0933 -37.6501 0
      vertex -40.0933 -37.6501 13
    endloop
  endfacet
  facet normal -0.844322 -0.535836 0
    outer loop
      vertex -44.4959 -32.3282 0
      vertex -48.1969 -26.4965 13
      vertex -48.1969 -26.4965 0
    endloop
  endfacet
  facet normal -0.844322 -0.535836 0
    outer loop
      vertex -48.1969 -26.4965 13
      vertex -44.4959 -32.3282 0
      vertex -44.4959 -32.3282 13
    endloop
  endfacet
  facet normal -0.951055 -0.309022 0
    outer loop
      vertex -51.1377 -20.2468 0
      vertex -53.2721 -13.6779 13
      vertex -53.2721 -13.6779 0
    endloop
  endfacet
  facet normal -0.951055 -0.309022 0
    outer loop
      vertex -53.2721 -13.6779 13
      vertex -51.1377 -20.2468 0
      vertex -51.1377 -20.2468 13
    endloop
  endfacet
  facet normal 0.248693 -0.968582 0
    outer loop
      vertex 10.306 -54.0258 0
      vertex 16.9959 -52.3081 13
      vertex 10.306 -54.0258 13
    endloop
  endfacet
  facet normal 0.248693 -0.968582 0
    outer loop
      vertex 16.9959 -52.3081 13
      vertex 10.306 -54.0258 0
      vertex 16.9959 -52.3081 0
    endloop
  endfacet
  facet normal 0.125337 -0.992114 0
    outer loop
      vertex 3.45348 -54.8915 0
      vertex 10.306 -54.0258 13
      vertex 3.45348 -54.8915 13
    endloop
  endfacet
  facet normal 0.125337 -0.992114 0
    outer loop
      vertex 10.306 -54.0258 13
      vertex 3.45348 -54.8915 0
      vertex 10.306 -54.0258 0
    endloop
  endfacet
  facet normal 0.844322 -0.535836 0
    outer loop
      vertex 44.4959 -32.3282 13
      vertex 48.1969 -26.4965 0
      vertex 48.1969 -26.4965 13
    endloop
  endfacet
  facet normal 0.844322 -0.535836 0
    outer loop
      vertex 48.1969 -26.4965 0
      vertex 44.4959 -32.3282 13
      vertex 44.4959 -32.3282 0
    endloop
  endfacet
  facet normal 0.587788 -0.809015 0
    outer loop
      vertex 29.4705 -46.438 0
      vertex 35.0583 -42.3782 13
      vertex 29.4705 -46.438 13
    endloop
  endfacet
  facet normal 0.587788 -0.809015 0
    outer loop
      vertex 35.0583 -42.3782 13
      vertex 29.4705 -46.438 0
      vertex 35.0583 -42.3782 0
    endloop
  endfacet
  facet normal 0.951055 -0.309022 0
    outer loop
      vertex 51.1377 -20.2468 13
      vertex 53.2721 -13.6779 0
      vertex 53.2721 -13.6779 13
    endloop
  endfacet
  facet normal 0.951055 -0.309022 0
    outer loop
      vertex 53.2721 -13.6779 0
      vertex 51.1377 -20.2468 13
      vertex 51.1377 -20.2468 0
    endloop
  endfacet
  facet normal -0.125337 -0.992114 0
    outer loop
      vertex -10.306 -54.0258 0
      vertex -3.45348 -54.8915 13
      vertex -10.306 -54.0258 13
    endloop
  endfacet
  facet normal -0.125337 -0.992114 -0
    outer loop
      vertex -3.45348 -54.8915 13
      vertex -10.306 -54.0258 0
      vertex -3.45348 -54.8915 0
    endloop
  endfacet
  facet normal -0.368118 -0.929779 0
    outer loop
      vertex -23.4179 -49.7655 0
      vertex -16.9959 -52.3081 13
      vertex -23.4179 -49.7655 13
    endloop
  endfacet
  facet normal -0.368118 -0.929779 -0
    outer loop
      vertex -16.9959 -52.3081 13
      vertex -23.4179 -49.7655 0
      vertex -16.9959 -52.3081 0
    endloop
  endfacet
  facet normal -0.248693 -0.968582 0
    outer loop
      vertex -16.9959 -52.3081 0
      vertex -10.306 -54.0258 13
      vertex -16.9959 -52.3081 13
    endloop
  endfacet
  facet normal -0.248693 -0.968582 -0
    outer loop
      vertex -10.306 -54.0258 13
      vertex -16.9959 -52.3081 0
      vertex -10.306 -54.0258 0
    endloop
  endfacet
  facet normal -0.684541 -0.728974 0
    outer loop
      vertex -40.0933 -37.6501 0
      vertex -35.0583 -42.3782 13
      vertex -40.0933 -37.6501 13
    endloop
  endfacet
  facet normal -0.684541 -0.728974 -0
    outer loop
      vertex -35.0583 -42.3782 13
      vertex -40.0933 -37.6501 0
      vertex -35.0583 -42.3782 0
    endloop
  endfacet
  facet normal -0.904832 -0.425769 0
    outer loop
      vertex -48.1969 -26.4965 0
      vertex -51.1377 -20.2468 13
      vertex -51.1377 -20.2468 0
    endloop
  endfacet
  facet normal -0.904832 -0.425769 0
    outer loop
      vertex -51.1377 -20.2468 13
      vertex -48.1969 -26.4965 0
      vertex -48.1969 -26.4965 13
    endloop
  endfacet
  facet normal -0.982288 -0.187378 0
    outer loop
      vertex -53.2721 -13.6779 0
      vertex -54.5663 -6.89333 13
      vertex -54.5663 -6.89333 0
    endloop
  endfacet
  facet normal -0.982288 -0.187378 0
    outer loop
      vertex -54.5663 -6.89333 13
      vertex -53.2721 -13.6779 0
      vertex -53.2721 -13.6779 13
    endloop
  endfacet
  facet normal -0.998027 -0.0627917 0
    outer loop
      vertex -54.5663 -6.89333 0
      vertex -55 0 13
      vertex -55 0 0
    endloop
  endfacet
  facet normal -0.998027 -0.0627917 0
    outer loop
      vertex -55 0 13
      vertex -54.5663 -6.89333 0
      vertex -54.5663 -6.89333 13
    endloop
  endfacet
  facet normal -0.48176 -0.876303 0
    outer loop
      vertex -29.4705 -46.438 0
      vertex -23.4179 -49.7655 13
      vertex -29.4705 -46.438 13
    endloop
  endfacet
  facet normal -0.48176 -0.876303 -0
    outer loop
      vertex -23.4179 -49.7655 13
      vertex -29.4705 -46.438 0
      vertex -23.4179 -49.7655 0
    endloop
  endfacet
  facet normal -0.587788 -0.809015 0
    outer loop
      vertex -35.0583 -42.3782 0
      vertex -29.4705 -46.438 13
      vertex -35.0583 -42.3782 13
    endloop
  endfacet
  facet normal -0.587788 -0.809015 -0
    outer loop
      vertex -29.4705 -46.438 13
      vertex -35.0583 -42.3782 0
      vertex -29.4705 -46.438 0
    endloop
  endfacet
  facet normal -0.904823 -0.425787 0
    outer loop
      vertex 39.5155 15.6453 0
      vertex 37.243 20.4745 13
      vertex 37.243 20.4745 0
    endloop
  endfacet
  facet normal -0.904823 -0.425787 0
    outer loop
      vertex 37.243 20.4745 13
      vertex 39.5155 15.6453 0
      vertex 39.5155 15.6453 13
    endloop
  endfacet
  facet normal 0.951056 -0.309018 0
    outer loop
      vertex -41.1648 10.5693 13
      vertex -39.5155 15.6453 0
      vertex -39.5155 15.6453 13
    endloop
  endfacet
  facet normal 0.951056 -0.309018 0
    outer loop
      vertex -39.5155 15.6453 0
      vertex -41.1648 10.5693 13
      vertex -41.1648 10.5693 0
    endloop
  endfacet
  facet normal -0.844332 -0.53582 0
    outer loop
      vertex 37.243 20.4745 0
      vertex 34.3832 24.9809 13
      vertex 34.3832 24.9809 0
    endloop
  endfacet
  facet normal -0.844332 -0.53582 0
    outer loop
      vertex 34.3832 24.9809 13
      vertex 37.243 20.4745 0
      vertex 37.243 20.4745 13
    endloop
  endfacet
  facet normal -0.368116 -0.92978 0
    outer loop
      vertex 13.1332 40.4199 0
      vertex 18.0956 38.4552 13
      vertex 13.1332 40.4199 13
    endloop
  endfacet
  facet normal -0.368116 -0.92978 -0
    outer loop
      vertex 18.0956 38.4552 13
      vertex 13.1332 40.4199 0
      vertex 18.0956 38.4552 0
    endloop
  endfacet
  facet normal 0.368116 -0.92978 0
    outer loop
      vertex -18.0956 38.4552 0
      vertex -13.1332 40.4199 13
      vertex -18.0956 38.4552 13
    endloop
  endfacet
  facet normal 0.368116 -0.92978 0
    outer loop
      vertex -13.1332 40.4199 13
      vertex -18.0956 38.4552 0
      vertex -13.1332 40.4199 0
    endloop
  endfacet
  facet normal 0.904823 -0.425787 0
    outer loop
      vertex -39.5155 15.6453 13
      vertex -37.243 20.4745 0
      vertex -37.243 20.4745 13
    endloop
  endfacet
  facet normal 0.904823 -0.425787 0
    outer loop
      vertex -37.243 20.4745 0
      vertex -39.5155 15.6453 13
      vertex -39.5155 15.6453 0
    endloop
  endfacet
  facet normal -0.998027 0.0627858 0
    outer loop
      vertex 42.1649 -5.32666 0
      vertex 42.5 0 13
      vertex 42.5 0 0
    endloop
  endfacet
  facet normal -0.998027 0.0627858 0
    outer loop
      vertex 42.5 0 13
      vertex 42.1649 -5.32666 0
      vertex 42.1649 -5.32666 13
    endloop
  endfacet
  facet normal -0.368116 0.92978 0
    outer loop
      vertex 18.0956 -38.4552 0
      vertex 13.1332 -40.4199 13
      vertex 18.0956 -38.4552 13
    endloop
  endfacet
  facet normal -0.368116 0.92978 0
    outer loop
      vertex 13.1332 -40.4199 13
      vertex 18.0956 -38.4552 0
      vertex 13.1332 -40.4199 0
    endloop
  endfacet
  facet normal 0 -1 0
    outer loop
      vertex -2.6686 42.4161 0
      vertex 2.6686 42.4161 13
      vertex -2.6686 42.4161 13
    endloop
  endfacet
  facet normal 0 -1 -0
    outer loop
      vertex 2.6686 42.4161 13
      vertex -2.6686 42.4161 0
      vertex 2.6686 42.4161 0
    endloop
  endfacet
  facet normal 0.77052 -0.637416 0
    outer loop
      vertex -34.3832 24.9809 13
      vertex -30.9812 29.0933 0
      vertex -30.9812 29.0933 13
    endloop
  endfacet
  facet normal 0.77052 -0.637416 0
    outer loop
      vertex -30.9812 29.0933 0
      vertex -34.3832 24.9809 13
      vertex -34.3832 24.9809 0
    endloop
  endfacet
  facet normal 0.684536 -0.728979 0
    outer loop
      vertex -30.9812 29.0933 0
      vertex -27.0905 32.7468 13
      vertex -30.9812 29.0933 13
    endloop
  endfacet
  facet normal 0.684536 -0.728979 0
    outer loop
      vertex -27.0905 32.7468 13
      vertex -30.9812 29.0933 0
      vertex -27.0905 32.7468 0
    endloop
  endfacet
  facet normal -0.998027 -0.0627858 0
    outer loop
      vertex 42.5 0 0
      vertex 42.1649 5.32666 13
      vertex 42.1649 5.32666 0
    endloop
  endfacet
  facet normal -0.998027 -0.0627858 0
    outer loop
      vertex 42.1649 5.32666 13
      vertex 42.5 0 0
      vertex 42.5 0 13
    endloop
  endfacet
  facet normal -0.951056 0.309018 0
    outer loop
      vertex 39.5155 -15.6453 0
      vertex 41.1648 -10.5693 13
      vertex 41.1648 -10.5693 0
    endloop
  endfacet
  facet normal -0.951056 0.309018 0
    outer loop
      vertex 41.1648 -10.5693 13
      vertex 39.5155 -15.6453 0
      vertex 39.5155 -15.6453 13
    endloop
  endfacet
  facet normal 0.125328 0.992115 -0
    outer loop
      vertex -2.6686 -42.4161 0
      vertex -7.96371 -41.7472 13
      vertex -2.6686 -42.4161 13
    endloop
  endfacet
  facet normal 0.125328 0.992115 0
    outer loop
      vertex -7.96371 -41.7472 13
      vertex -2.6686 -42.4161 0
      vertex -7.96371 -41.7472 0
    endloop
  endfacet
  facet normal -0.24869 0.968583 0
    outer loop
      vertex 13.1332 -40.4199 0
      vertex 7.96371 -41.7472 13
      vertex 13.1332 -40.4199 13
    endloop
  endfacet
  facet normal -0.24869 0.968583 0
    outer loop
      vertex 7.96371 -41.7472 13
      vertex 13.1332 -40.4199 0
      vertex 7.96371 -41.7472 0
    endloop
  endfacet
  facet normal -0.982287 -0.187384 0
    outer loop
      vertex 42.1649 5.32666 0
      vertex 41.1648 10.5693 13
      vertex 41.1648 10.5693 0
    endloop
  endfacet
  facet normal -0.982287 -0.187384 0
    outer loop
      vertex 41.1648 10.5693 13
      vertex 42.1649 5.32666 0
      vertex 42.1649 5.32666 13
    endloop
  endfacet
  facet normal -0.951056 -0.309018 0
    outer loop
      vertex 41.1648 10.5693 0
      vertex 39.5155 15.6453 13
      vertex 39.5155 15.6453 0
    endloop
  endfacet
  facet normal -0.951056 -0.309018 0
    outer loop
      vertex 39.5155 15.6453 13
      vertex 41.1648 10.5693 0
      vertex 41.1648 10.5693 13
    endloop
  endfacet
  facet normal -0.684536 -0.728979 0
    outer loop
      vertex 27.0905 32.7468 0
      vertex 30.9812 29.0933 13
      vertex 27.0905 32.7468 13
    endloop
  endfacet
  facet normal -0.684536 -0.728979 -0
    outer loop
      vertex 30.9812 29.0933 13
      vertex 27.0905 32.7468 0
      vertex 30.9812 29.0933 0
    endloop
  endfacet
  facet normal -0.77052 -0.637416 0
    outer loop
      vertex 34.3832 24.9809 0
      vertex 30.9812 29.0933 13
      vertex 30.9812 29.0933 0
    endloop
  endfacet
  facet normal -0.77052 -0.637416 0
    outer loop
      vertex 30.9812 29.0933 13
      vertex 34.3832 24.9809 0
      vertex 34.3832 24.9809 13
    endloop
  endfacet
  facet normal -0.24869 -0.968583 0
    outer loop
      vertex 7.96371 41.7472 0
      vertex 13.1332 40.4199 13
      vertex 7.96371 41.7472 13
    endloop
  endfacet
  facet normal -0.24869 -0.968583 -0
    outer loop
      vertex 13.1332 40.4199 13
      vertex 7.96371 41.7472 0
      vertex 13.1332 40.4199 0
    endloop
  endfacet
  facet normal -0.125328 -0.992115 0
    outer loop
      vertex 2.6686 42.4161 0
      vertex 7.96371 41.7472 13
      vertex 2.6686 42.4161 13
    endloop
  endfacet
  facet normal -0.125328 -0.992115 -0
    outer loop
      vertex 7.96371 41.7472 13
      vertex 2.6686 42.4161 0
      vertex 7.96371 41.7472 0
    endloop
  endfacet
  facet normal -0.587781 -0.80902 0
    outer loop
      vertex 22.7726 35.8839 0
      vertex 27.0905 32.7468 13
      vertex 22.7726 35.8839 13
    endloop
  endfacet
  facet normal -0.587781 -0.80902 -0
    outer loop
      vertex 27.0905 32.7468 13
      vertex 22.7726 35.8839 0
      vertex 27.0905 32.7468 0
    endloop
  endfacet
  facet normal -0.481768 -0.876299 0
    outer loop
      vertex 18.0956 38.4552 0
      vertex 22.7726 35.8839 13
      vertex 18.0956 38.4552 13
    endloop
  endfacet
  facet normal -0.481768 -0.876299 -0
    outer loop
      vertex 22.7726 35.8839 13
      vertex 18.0956 38.4552 0
      vertex 22.7726 35.8839 0
    endloop
  endfacet
  facet normal 0.998027 -0.0627858 0
    outer loop
      vertex -42.5 0 13
      vertex -42.1649 5.32666 0
      vertex -42.1649 5.32666 13
    endloop
  endfacet
  facet normal 0.998027 -0.0627858 0
    outer loop
      vertex -42.1649 5.32666 0
      vertex -42.5 0 13
      vertex -42.5 0 0
    endloop
  endfacet
  facet normal 0.982287 -0.187384 0
    outer loop
      vertex -42.1649 5.32666 13
      vertex -41.1648 10.5693 0
      vertex -41.1648 10.5693 13
    endloop
  endfacet
  facet normal 0.982287 -0.187384 0
    outer loop
      vertex -41.1648 10.5693 0
      vertex -42.1649 5.32666 13
      vertex -42.1649 5.32666 0
    endloop
  endfacet
  facet normal 0.844332 -0.53582 0
    outer loop
      vertex -37.243 20.4745 13
      vertex -34.3832 24.9809 0
      vertex -34.3832 24.9809 13
    endloop
  endfacet
  facet normal 0.844332 -0.53582 0
    outer loop
      vertex -34.3832 24.9809 0
      vertex -37.243 20.4745 13
      vertex -37.243 20.4745 0
    endloop
  endfacet
  facet normal 0.125328 -0.992115 0
    outer loop
      vertex -7.96371 41.7472 0
      vertex -2.6686 42.4161 13
      vertex -7.96371 41.7472 13
    endloop
  endfacet
  facet normal 0.125328 -0.992115 0
    outer loop
      vertex -2.6686 42.4161 13
      vertex -7.96371 41.7472 0
      vertex -2.6686 42.4161 0
    endloop
  endfacet
  facet normal 0.24869 -0.968583 0
    outer loop
      vertex -13.1332 40.4199 0
      vertex -7.96371 41.7472 13
      vertex -13.1332 40.4199 13
    endloop
  endfacet
  facet normal 0.24869 -0.968583 0
    outer loop
      vertex -7.96371 41.7472 13
      vertex -13.1332 40.4199 0
      vertex -7.96371 41.7472 0
    endloop
  endfacet
  facet normal 0.481768 -0.876299 0
    outer loop
      vertex -22.7726 35.8839 0
      vertex -18.0956 38.4552 13
      vertex -22.7726 35.8839 13
    endloop
  endfacet
  facet normal 0.481768 -0.876299 0
    outer loop
      vertex -18.0956 38.4552 13
      vertex -22.7726 35.8839 0
      vertex -18.0956 38.4552 0
    endloop
  endfacet
  facet normal 0.587781 -0.80902 0
    outer loop
      vertex -27.0905 32.7468 0
      vertex -22.7726 35.8839 13
      vertex -27.0905 32.7468 13
    endloop
  endfacet
  facet normal 0.587781 -0.80902 0
    outer loop
      vertex -22.7726 35.8839 13
      vertex -27.0905 32.7468 0
      vertex -22.7726 35.8839 0
    endloop
  endfacet
  facet normal -0.982287 0.187384 0
    outer loop
      vertex 41.1648 -10.5693 0
      vertex 42.1649 -5.32666 13
      vertex 42.1649 -5.32666 0
    endloop
  endfacet
  facet normal -0.982287 0.187384 0
    outer loop
      vertex 42.1649 -5.32666 13
      vertex 41.1648 -10.5693 0
      vertex 41.1648 -10.5693 13
    endloop
  endfacet
  facet normal -0.125328 0.992115 0
    outer loop
      vertex 7.96371 -41.7472 0
      vertex 2.6686 -42.4161 13
      vertex 7.96371 -41.7472 13
    endloop
  endfacet
  facet normal -0.125328 0.992115 0
    outer loop
      vertex 2.6686 -42.4161 13
      vertex 7.96371 -41.7472 0
      vertex 2.6686 -42.4161 0
    endloop
  endfacet
  facet normal -0.684536 0.728979 0
    outer loop
      vertex 30.9812 -29.0933 0
      vertex 27.0905 -32.7468 13
      vertex 30.9812 -29.0933 13
    endloop
  endfacet
  facet normal -0.684536 0.728979 0
    outer loop
      vertex 27.0905 -32.7468 13
      vertex 30.9812 -29.0933 0
      vertex 27.0905 -32.7468 0
    endloop
  endfacet
  facet normal -0.844332 0.53582 0
    outer loop
      vertex 34.3832 -24.9809 0
      vertex 37.243 -20.4745 13
      vertex 37.243 -20.4745 0
    endloop
  endfacet
  facet normal -0.844332 0.53582 0
    outer loop
      vertex 37.243 -20.4745 13
      vertex 34.3832 -24.9809 0
      vertex 34.3832 -24.9809 13
    endloop
  endfacet
  facet normal 0.684536 0.728979 -0
    outer loop
      vertex -27.0905 -32.7468 0
      vertex -30.9812 -29.0933 13
      vertex -27.0905 -32.7468 13
    endloop
  endfacet
  facet normal 0.684536 0.728979 0
    outer loop
      vertex -30.9812 -29.0933 13
      vertex -27.0905 -32.7468 0
      vertex -30.9812 -29.0933 0
    endloop
  endfacet
  facet normal 0.481768 0.876299 -0
    outer loop
      vertex -18.0956 -38.4552 0
      vertex -22.7726 -35.8839 13
      vertex -18.0956 -38.4552 13
    endloop
  endfacet
  facet normal 0.481768 0.876299 0
    outer loop
      vertex -22.7726 -35.8839 13
      vertex -18.0956 -38.4552 0
      vertex -22.7726 -35.8839 0
    endloop
  endfacet
  facet normal 0.998027 0.0627858 0
    outer loop
      vertex -42.1649 -5.32666 13
      vertex -42.5 0 0
      vertex -42.5 0 13
    endloop
  endfacet
  facet normal 0.998027 0.0627858 0
    outer loop
      vertex -42.5 0 0
      vertex -42.1649 -5.32666 13
      vertex -42.1649 -5.32666 0
    endloop
  endfacet
  facet normal 0.951056 0.309018 0
    outer loop
      vertex -39.5155 -15.6453 13
      vertex -41.1648 -10.5693 0
      vertex -41.1648 -10.5693 13
    endloop
  endfacet
  facet normal 0.951056 0.309018 0
    outer loop
      vertex -41.1648 -10.5693 0
      vertex -39.5155 -15.6453 13
      vertex -39.5155 -15.6453 0
    endloop
  endfacet
  facet normal 0.77052 0.637416 0
    outer loop
      vertex -30.9812 -29.0933 13
      vertex -34.3832 -24.9809 0
      vertex -34.3832 -24.9809 13
    endloop
  endfacet
  facet normal 0.77052 0.637416 0
    outer loop
      vertex -34.3832 -24.9809 0
      vertex -30.9812 -29.0933 13
      vertex -30.9812 -29.0933 0
    endloop
  endfacet
  facet normal 0.904823 0.425787 0
    outer loop
      vertex -37.243 -20.4745 13
      vertex -39.5155 -15.6453 0
      vertex -39.5155 -15.6453 13
    endloop
  endfacet
  facet normal 0.904823 0.425787 0
    outer loop
      vertex -39.5155 -15.6453 0
      vertex -37.243 -20.4745 13
      vertex -37.243 -20.4745 0
    endloop
  endfacet
  facet normal -0.481768 0.876299 0
    outer loop
      vertex 22.7726 -35.8839 0
      vertex 18.0956 -38.4552 13
      vertex 22.7726 -35.8839 13
    endloop
  endfacet
  facet normal -0.481768 0.876299 0
    outer loop
      vertex 18.0956 -38.4552 13
      vertex 22.7726 -35.8839 0
      vertex 18.0956 -38.4552 0
    endloop
  endfacet
  facet normal -0.904823 0.425787 0
    outer loop
      vertex 37.243 -20.4745 0
      vertex 39.5155 -15.6453 13
      vertex 39.5155 -15.6453 0
    endloop
  endfacet
  facet normal -0.904823 0.425787 0
    outer loop
      vertex 39.5155 -15.6453 13
      vertex 37.243 -20.4745 0
      vertex 37.243 -20.4745 13
    endloop
  endfacet
  facet normal 0 1 -0
    outer loop
      vertex 2.6686 -42.4161 0
      vertex -2.6686 -42.4161 13
      vertex 2.6686 -42.4161 13
    endloop
  endfacet
  facet normal 0 1 0
    outer loop
      vertex -2.6686 -42.4161 13
      vertex 2.6686 -42.4161 0
      vertex -2.6686 -42.4161 0
    endloop
  endfacet
  facet normal 0.368116 0.92978 -0
    outer loop
      vertex -13.1332 -40.4199 0
      vertex -18.0956 -38.4552 13
      vertex -13.1332 -40.4199 13
    endloop
  endfacet
  facet normal 0.368116 0.92978 0
    outer loop
      vertex -18.0956 -38.4552 13
      vertex -13.1332 -40.4199 0
      vertex -18.0956 -38.4552 0
    endloop
  endfacet
  facet normal 0.587781 0.80902 -0
    outer loop
      vertex -22.7726 -35.8839 0
      vertex -27.0905 -32.7468 13
      vertex -22.7726 -35.8839 13
    endloop
  endfacet
  facet normal 0.587781 0.80902 0
    outer loop
      vertex -27.0905 -32.7468 13
      vertex -22.7726 -35.8839 0
      vertex -27.0905 -32.7468 0
    endloop
  endfacet
  facet normal 0.982287 0.187384 0
    outer loop
      vertex -41.1648 -10.5693 13
      vertex -42.1649 -5.32666 0
      vertex -42.1649 -5.32666 13
    endloop
  endfacet
  facet normal 0.982287 0.187384 0
    outer loop
      vertex -42.1649 -5.32666 0
      vertex -41.1648 -10.5693 13
      vertex -41.1648 -10.5693 0
    endloop
  endfacet
  facet normal 0.844332 0.53582 0
    outer loop
      vertex -34.3832 -24.9809 13
      vertex -37.243 -20.4745 0
      vertex -37.243 -20.4745 13
    endloop
  endfacet
  facet normal 0.844332 0.53582 0
    outer loop
      vertex -37.243 -20.4745 0
      vertex -34.3832 -24.9809 13
      vertex -34.3832 -24.9809 0
    endloop
  endfacet
  facet normal -0.587781 0.80902 0
    outer loop
      vertex 27.0905 -32.7468 0
      vertex 22.7726 -35.8839 13
      vertex 27.0905 -32.7468 13
    endloop
  endfacet
  facet normal -0.587781 0.80902 0
    outer loop
      vertex 22.7726 -35.8839 13
      vertex 27.0905 -32.7468 0
      vertex 22.7726 -35.8839 0
    endloop
  endfacet
  facet normal -0.77052 0.637416 0
    outer loop
      vertex 30.9812 -29.0933 0
      vertex 34.3832 -24.9809 13
      vertex 34.3832 -24.9809 0
    endloop
  endfacet
  facet normal -0.77052 0.637416 0
    outer loop
      vertex 34.3832 -24.9809 13
      vertex 30.9812 -29.0933 0
      vertex 30.9812 -29.0933 13
    endloop
  endfacet
  facet normal 0.24869 0.968583 -0
    outer loop
      vertex -7.96371 -41.7472 0
      vertex -13.1332 -40.4199 13
      vertex -7.96371 -41.7472 13
    endloop
  endfacet
  facet normal 0.24869 0.968583 0
    outer loop
      vertex -13.1332 -40.4199 13
      vertex -7.96371 -41.7472 0
      vertex -13.1332 -40.4199 0
    endloop
  endfacet
endsolid OpenSCAD_Model
