<?xml version="1.0" standalone="no"?>
<!DOCTYPE svg PUBLIC "-//W3C//DTD SVG 1.1//EN" "http://www.w3.org/Graphics/SVG/1.1/DTD/svg11.dtd">
<svg width="76mm" height="747mm" viewBox="-38 -1224 76 747" xmlns="http://www.w3.org/2000/svg" version="1.1">
<title>OpenSCAD Model</title>
<path d="
M 33.4369,-1044.09 L 34.0451,-1044.24 L 34.6289,-1044.48 L 35.1791,-1044.78 L 35.6871,-1045.15 L 36.1448,-1045.58
 L 36.5451,-1046.06 L 36.8815,-1046.59 L 37.1489,-1047.16 L 37.3429,-1047.76 L 37.4606,-1048.37 L 37.5,-1049
 L 37.5,-1219 L 37.4606,-1219.63 L 37.3429,-1220.24 L 37.1489,-1220.84 L 36.8815,-1221.41 L 36.5451,-1221.94
 L 36.1448,-1222.42 L 35.6871,-1222.85 L 35.1791,-1223.22 L 34.6289,-1223.52 L 34.0451,-1223.76 L 33.4369,-1223.91
 L 32.8139,-1223.99 L -32.8139,-1223.99 L -33.4369,-1223.91 L -34.0451,-1223.76 L -34.6289,-1223.52 L -35.1791,-1223.22
 L -35.6871,-1222.85 L -36.1448,-1222.42 L -36.5451,-1221.94 L -36.8815,-1221.41 L -37.1489,-1220.84 L -37.3429,-1220.24
 L -37.4606,-1219.63 L -37.5,-1219 L -37.5,-1049 L -37.4606,-1048.37 L -37.3429,-1047.76 L -37.1489,-1047.16
 L -36.8815,-1046.59 L -36.5451,-1046.06 L -36.1448,-1045.58 L -35.6871,-1045.15 L -35.1791,-1044.78 L -34.6289,-1044.48
 L -34.0451,-1044.24 L -33.4369,-1044.09 L -32.8139,-1044.01 L 32.8139,-1044.01 z
M -32.2512,-1045.51 L -32.7495,-1045.57 L -33.2361,-1045.7 L -33.7031,-1045.88 L -34.1433,-1046.12 L -34.5497,-1046.42
 L -34.9159,-1046.76 L -35.2361,-1047.15 L -35.5052,-1047.57 L -35.7191,-1048.03 L -35.8743,-1048.51 L -35.9685,-1049
 L -36,-1049.5 L -36,-1218.5 L -35.9685,-1219 L -35.8743,-1219.49 L -35.7191,-1219.97 L -35.5052,-1220.43
 L -35.2361,-1220.85 L -34.9159,-1221.24 L -34.5497,-1221.58 L -34.1433,-1221.88 L -33.7031,-1222.12 L -33.2361,-1222.3
 L -32.7495,-1222.43 L -32.2512,-1222.49 L 32.2512,-1222.49 L 32.7495,-1222.43 L 33.2361,-1222.3 L 33.7031,-1222.12
 L 34.1433,-1221.88 L 34.5497,-1221.58 L 34.9159,-1221.24 L 35.2361,-1220.85 L 35.5052,-1220.43 L 35.7191,-1219.97
 L 35.8743,-1219.49 L 35.9685,-1219 L 36,-1218.5 L 36,-1049.5 L 35.9685,-1049 L 35.8743,-1048.51
 L 35.7191,-1048.03 L 35.5052,-1047.57 L 35.2361,-1047.15 L 34.9159,-1046.76 L 34.5497,-1046.42 L 34.1433,-1046.12
 L 33.7031,-1045.88 L 33.2361,-1045.7 L 32.7495,-1045.57 L 32.2512,-1045.51 z
M 33.4369,-855.089 L 34.0451,-855.245 L 34.6289,-855.476 L 35.1791,-855.778 L 35.6871,-856.147 L 36.1448,-856.577
 L 36.5451,-857.061 L 36.8815,-857.591 L 37.1489,-858.159 L 37.3429,-858.757 L 37.4606,-859.373 L 37.5,-860
 L 37.5,-1030 L 37.4606,-1030.63 L 37.3429,-1031.24 L 37.1489,-1031.84 L 36.8815,-1032.41 L 36.5451,-1032.94
 L 36.1448,-1033.42 L 35.6871,-1033.85 L 35.1791,-1034.22 L 34.6289,-1034.52 L 34.0451,-1034.76 L 33.4369,-1034.91
 L 32.8139,-1034.99 L -32.8139,-1034.99 L -33.4369,-1034.91 L -34.0451,-1034.76 L -34.6289,-1034.52 L -35.1791,-1034.22
 L -35.6871,-1033.85 L -36.1448,-1033.42 L -36.5451,-1032.94 L -36.8815,-1032.41 L -37.1489,-1031.84 L -37.3429,-1031.24
 L -37.4606,-1030.63 L -37.5,-1030 L -37.5,-860 L -37.4606,-859.373 L -37.3429,-858.757 L -37.1489,-858.159
 L -36.8815,-857.591 L -36.5451,-857.061 L -36.1448,-856.577 L -35.6871,-856.147 L -35.1791,-855.778 L -34.6289,-855.476
 L -34.0451,-855.245 L -33.4369,-855.089 L -32.8139,-855.01 L 32.8139,-855.01 z
M -32.2432,-856.635 L -32.7256,-856.696 L -33.1967,-856.817 L -33.6489,-856.996 L -34.0751,-857.23 L -34.4685,-857.516
 L -34.823,-857.849 L -35.133,-858.224 L -35.3936,-858.634 L -35.6007,-859.074 L -35.751,-859.537 L -35.8421,-860.015
 L -35.8726,-860.5 L -35.8726,-1029.5 L -35.8421,-1029.99 L -35.751,-1030.46 L -35.6007,-1030.93 L -35.3936,-1031.37
 L -35.133,-1031.78 L -34.823,-1032.15 L -34.4685,-1032.48 L -34.0751,-1032.77 L -33.6489,-1033 L -33.1967,-1033.18
 L -32.7256,-1033.3 L -32.2432,-1033.36 L 32.2432,-1033.36 L 32.7256,-1033.3 L 33.1967,-1033.18 L 33.6489,-1033
 L 34.0751,-1032.77 L 34.4685,-1032.48 L 34.823,-1032.15 L 35.133,-1031.78 L 35.3936,-1031.37 L 35.6007,-1030.93
 L 35.751,-1030.46 L 35.8421,-1029.99 L 35.8726,-1029.5 L 35.8726,-860.5 L 35.8421,-860.015 L 35.751,-859.537
 L 35.6007,-859.074 L 35.3936,-858.634 L 35.133,-858.224 L 34.823,-857.849 L 34.4685,-857.516 L 34.0751,-857.23
 L 33.6489,-856.996 L 33.1967,-856.817 L 32.7256,-856.696 L 32.2432,-856.635 z
M 33.4369,-666.089 L 34.0451,-666.245 L 34.6289,-666.476 L 35.1791,-666.778 L 35.6871,-667.147 L 36.1448,-667.577
 L 36.5451,-668.061 L 36.8815,-668.591 L 37.1489,-669.159 L 37.3429,-669.757 L 37.4606,-670.373 L 37.5,-671
 L 37.5,-841 L 37.4606,-841.627 L 37.3429,-842.243 L 37.1489,-842.841 L 36.8815,-843.409 L 36.5451,-843.939
 L 36.1448,-844.423 L 35.6871,-844.853 L 35.1791,-845.222 L 34.6289,-845.524 L 34.0451,-845.755 L 33.4369,-845.911
 L 32.8139,-845.99 L -32.8139,-845.99 L -33.4369,-845.911 L -34.0451,-845.755 L -34.6289,-845.524 L -35.1791,-845.222
 L -35.6871,-844.853 L -36.1448,-844.423 L -36.5451,-843.939 L -36.8815,-843.409 L -37.1489,-842.841 L -37.3429,-842.243
 L -37.4606,-841.627 L -37.5,-841 L -37.5,-671 L -37.4606,-670.373 L -37.3429,-669.757 L -37.1489,-669.159
 L -36.8815,-668.591 L -36.5451,-668.061 L -36.1448,-667.577 L -35.6871,-667.147 L -35.1791,-666.778 L -34.6289,-666.476
 L -34.0451,-666.245 L -33.4369,-666.089 L -32.8139,-666.01 L 32.8139,-666.01 z
M 29.8493,-836.105 L 29.5503,-836.143 L 29.2583,-836.217 L 28.9781,-836.328 L 28.714,-836.474 L 28.4702,-836.651
 L 28.2505,-836.857 L 28.0583,-837.089 L 27.8969,-837.344 L 27.7685,-837.617 L 27.6754,-837.903 L 27.6189,-838.199
 L 27.6,-838.5 L 27.6189,-838.801 L 27.6754,-839.097 L 27.7685,-839.383 L 27.8969,-839.656 L 28.0583,-839.911
 L 28.2505,-840.143 L 28.4702,-840.349 L 28.714,-840.526 L 28.9781,-840.672 L 29.2583,-840.783 L 29.5503,-840.857
 L 29.8493,-840.895 L 30.1507,-840.895 L 30.4497,-840.857 L 30.7416,-840.783 L 31.0219,-840.672 L 31.286,-840.526
 L 31.5298,-840.349 L 31.7495,-840.143 L 31.9416,-839.911 L 32.1031,-839.656 L 32.2315,-839.383 L 32.3246,-839.097
 L 32.3811,-838.801 L 32.4,-838.5 L 32.3811,-838.199 L 32.3246,-837.903 L 32.2315,-837.617 L 32.1031,-837.344
 L 31.9416,-837.089 L 31.7495,-836.857 L 31.5298,-836.651 L 31.286,-836.474 L 31.0219,-836.328 L 30.7416,-836.217
 L 30.4497,-836.143 L 30.1507,-836.105 z
M -30.1507,-836.105 L -30.4497,-836.143 L -30.7416,-836.217 L -31.0219,-836.328 L -31.286,-836.474 L -31.5298,-836.651
 L -31.7495,-836.857 L -31.9416,-837.089 L -32.1031,-837.344 L -32.2315,-837.617 L -32.3246,-837.903 L -32.3811,-838.199
 L -32.4,-838.5 L -32.3811,-838.801 L -32.3246,-839.097 L -32.2315,-839.383 L -32.1031,-839.656 L -31.9416,-839.911
 L -31.7495,-840.143 L -31.5298,-840.349 L -31.286,-840.526 L -31.0219,-840.672 L -30.7416,-840.783 L -30.4497,-840.857
 L -30.1507,-840.895 L -29.8493,-840.895 L -29.5503,-840.857 L -29.2583,-840.783 L -28.9781,-840.672 L -28.714,-840.526
 L -28.4702,-840.349 L -28.2505,-840.143 L -28.0583,-839.911 L -27.8969,-839.656 L -27.7685,-839.383 L -27.6754,-839.097
 L -27.6189,-838.801 L -27.6,-838.5 L -27.6189,-838.199 L -27.6754,-837.903 L -27.7685,-837.617 L -27.8969,-837.344
 L -28.0583,-837.089 L -28.2505,-836.857 L -28.4702,-836.651 L -28.714,-836.474 L -28.9781,-836.328 L -29.2583,-836.217
 L -29.5503,-836.143 L -29.8493,-836.105 z
M 29.8493,-671.105 L 29.5503,-671.143 L 29.2583,-671.217 L 28.9781,-671.328 L 28.714,-671.474 L 28.4702,-671.651
 L 28.2505,-671.857 L 28.0583,-672.089 L 27.8969,-672.344 L 27.7685,-672.617 L 27.6754,-672.903 L 27.6189,-673.199
 L 27.6,-673.5 L 27.6189,-673.801 L 27.6754,-674.097 L 27.7685,-674.383 L 27.8969,-674.656 L 28.0583,-674.911
 L 28.2505,-675.143 L 28.4702,-675.349 L 28.714,-675.526 L 28.9781,-675.672 L 29.2583,-675.783 L 29.5503,-675.857
 L 29.8493,-675.895 L 30.1507,-675.895 L 30.4497,-675.857 L 30.7416,-675.783 L 31.0219,-675.672 L 31.286,-675.526
 L 31.5298,-675.349 L 31.7495,-675.143 L 31.9416,-674.911 L 32.1031,-674.656 L 32.2315,-674.383 L 32.3246,-674.097
 L 32.3811,-673.801 L 32.4,-673.5 L 32.3811,-673.199 L 32.3246,-672.903 L 32.2315,-672.617 L 32.1031,-672.344
 L 31.9416,-672.089 L 31.7495,-671.857 L 31.5298,-671.651 L 31.286,-671.474 L 31.0219,-671.328 L 30.7416,-671.217
 L 30.4497,-671.143 L 30.1507,-671.105 z
M -30.1507,-671.105 L -30.4497,-671.143 L -30.7416,-671.217 L -31.0219,-671.328 L -31.286,-671.474 L -31.5298,-671.651
 L -31.7495,-671.857 L -31.9416,-672.089 L -32.1031,-672.344 L -32.2315,-672.617 L -32.3246,-672.903 L -32.3811,-673.199
 L -32.4,-673.5 L -32.3811,-673.801 L -32.3246,-674.097 L -32.2315,-674.383 L -32.1031,-674.656 L -31.9416,-674.911
 L -31.7495,-675.143 L -31.5298,-675.349 L -31.286,-675.526 L -31.0219,-675.672 L -30.7416,-675.783 L -30.4497,-675.857
 L -30.1507,-675.895 L -29.8493,-675.895 L -29.5503,-675.857 L -29.2583,-675.783 L -28.9781,-675.672 L -28.714,-675.526
 L -28.4702,-675.349 L -28.2505,-675.143 L -28.0583,-674.911 L -27.8969,-674.656 L -27.7685,-674.383 L -27.6754,-674.097
 L -27.6189,-673.801 L -27.6,-673.5 L -27.6189,-673.199 L -27.6754,-672.903 L -27.7685,-672.617 L -27.8969,-672.344
 L -28.0583,-672.089 L -28.2505,-671.857 L -28.4702,-671.651 L -28.714,-671.474 L -28.9781,-671.328 L -29.2583,-671.217
 L -29.5503,-671.143 L -29.8493,-671.105 z
M 33.4369,-477.089 L 34.0451,-477.245 L 34.6289,-477.476 L 35.1791,-477.778 L 35.6871,-478.147 L 36.1448,-478.577
 L 36.5451,-479.061 L 36.8815,-479.591 L 37.1489,-480.159 L 37.3429,-480.757 L 37.4606,-481.373 L 37.5,-482
 L 37.5,-652 L 37.4606,-652.627 L 37.3429,-653.243 L 37.1489,-653.841 L 36.8815,-654.409 L 36.5451,-654.939
 L 36.1448,-655.423 L 35.6871,-655.853 L 35.1791,-656.222 L 34.6289,-656.524 L 34.0451,-656.755 L 33.4369,-656.911
 L 32.8139,-656.99 L -32.8139,-656.99 L -33.4369,-656.911 L -34.0451,-656.755 L -34.6289,-656.524 L -35.1791,-656.222
 L -35.6871,-655.853 L -36.1448,-655.423 L -36.5451,-654.939 L -36.8815,-654.409 L -37.1489,-653.841 L -37.3429,-653.243
 L -37.4606,-652.627 L -37.5,-652 L -37.5,-482 L -37.4606,-481.373 L -37.3429,-480.757 L -37.1489,-480.159
 L -36.8815,-479.591 L -36.5451,-479.061 L -36.1448,-478.577 L -35.6871,-478.147 L -35.1791,-477.778 L -34.6289,-477.476
 L -34.0451,-477.245 L -33.4369,-477.089 L -32.8139,-477.01 L 32.8139,-477.01 z
M 29.887,-647.704 L 29.6627,-647.732 L 29.4438,-647.788 L 29.2336,-647.871 L 29.0355,-647.98 L 28.8526,-648.113
 L 28.6879,-648.268 L 28.5438,-648.442 L 28.4226,-648.633 L 28.3264,-648.837 L 28.2565,-649.052 L 28.2142,-649.274
 L 28.2,-649.5 L 28.2142,-649.726 L 28.2565,-649.948 L 28.3264,-650.163 L 28.4226,-650.367 L 28.5438,-650.558
 L 28.6879,-650.732 L 28.8526,-650.887 L 29.0355,-651.02 L 29.2336,-651.129 L 29.4438,-651.212 L 29.6627,-651.268
 L 29.887,-651.296 L 30.113,-651.296 L 30.3373,-651.268 L 30.5562,-651.212 L 30.7664,-651.129 L 30.9645,-651.02
 L 31.1474,-650.887 L 31.3121,-650.732 L 31.4562,-650.558 L 31.5773,-650.367 L 31.6736,-650.163 L 31.7434,-649.948
 L 31.7858,-649.726 L 31.8,-649.5 L 31.7858,-649.274 L 31.7434,-649.052 L 31.6736,-648.837 L 31.5773,-648.633
 L 31.4562,-648.442 L 31.3121,-648.268 L 31.1474,-648.113 L 30.9645,-647.98 L 30.7664,-647.871 L 30.5562,-647.788
 L 30.3373,-647.732 L 30.113,-647.704 z
M -30.113,-647.704 L -30.3373,-647.732 L -30.5562,-647.788 L -30.7664,-647.871 L -30.9645,-647.98 L -31.1474,-648.113
 L -31.3121,-648.268 L -31.4562,-648.442 L -31.5773,-648.633 L -31.6736,-648.837 L -31.7434,-649.052 L -31.7858,-649.274
 L -31.8,-649.5 L -31.7858,-649.726 L -31.7434,-649.948 L -31.6736,-650.163 L -31.5773,-650.367 L -31.4562,-650.558
 L -31.3121,-650.732 L -31.1474,-650.887 L -30.9645,-651.02 L -30.7664,-651.129 L -30.5562,-651.212 L -30.3373,-651.268
 L -30.113,-651.296 L -29.887,-651.296 L -29.6627,-651.268 L -29.4438,-651.212 L -29.2336,-651.129 L -29.0355,-651.02
 L -28.8526,-650.887 L -28.6879,-650.732 L -28.5438,-650.558 L -28.4226,-650.367 L -28.3264,-650.163 L -28.2565,-649.948
 L -28.2142,-649.726 L -28.2,-649.5 L -28.2142,-649.274 L -28.2565,-649.052 L -28.3264,-648.837 L -28.4226,-648.633
 L -28.5438,-648.442 L -28.6879,-648.268 L -28.8526,-648.113 L -29.0355,-647.98 L -29.2336,-647.871 L -29.4438,-647.788
 L -29.6627,-647.732 L -29.887,-647.704 z
M -30.113,-482.704 L -30.3373,-482.732 L -30.5562,-482.788 L -30.7664,-482.871 L -30.9645,-482.98 L -31.1474,-483.113
 L -31.3121,-483.268 L -31.4562,-483.442 L -31.5773,-483.633 L -31.6736,-483.837 L -31.7434,-484.052 L -31.7858,-484.274
 L -31.8,-484.5 L -31.7858,-484.726 L -31.7434,-484.948 L -31.6736,-485.163 L -31.5773,-485.367 L -31.4562,-485.558
 L -31.3121,-485.732 L -31.1474,-485.887 L -30.9645,-486.02 L -30.7664,-486.129 L -30.5562,-486.212 L -30.3373,-486.268
 L -30.113,-486.296 L -29.887,-486.296 L -29.6627,-486.268 L -29.4438,-486.212 L -29.2336,-486.129 L -29.0355,-486.02
 L -28.8526,-485.887 L -28.6879,-485.732 L -28.5438,-485.558 L -28.4226,-485.367 L -28.3264,-485.163 L -28.2565,-484.948
 L -28.2142,-484.726 L -28.2,-484.5 L -28.2142,-484.274 L -28.2565,-484.052 L -28.3264,-483.837 L -28.4226,-483.633
 L -28.5438,-483.442 L -28.6879,-483.268 L -28.8526,-483.113 L -29.0355,-482.98 L -29.2336,-482.871 L -29.4438,-482.788
 L -29.6627,-482.732 L -29.887,-482.704 z
M 29.887,-482.704 L 29.6627,-482.732 L 29.4438,-482.788 L 29.2336,-482.871 L 29.0355,-482.98 L 28.8526,-483.113
 L 28.6879,-483.268 L 28.5438,-483.442 L 28.4226,-483.633 L 28.3264,-483.837 L 28.2565,-484.052 L 28.2142,-484.274
 L 28.2,-484.5 L 28.2142,-484.726 L 28.2565,-484.948 L 28.3264,-485.163 L 28.4226,-485.367 L 28.5438,-485.558
 L 28.6879,-485.732 L 28.8526,-485.887 L 29.0355,-486.02 L 29.2336,-486.129 L 29.4438,-486.212 L 29.6627,-486.268
 L 29.887,-486.296 L 30.113,-486.296 L 30.3373,-486.268 L 30.5562,-486.212 L 30.7664,-486.129 L 30.9645,-486.02
 L 31.1474,-485.887 L 31.3121,-485.732 L 31.4562,-485.558 L 31.5773,-485.367 L 31.6736,-485.163 L 31.7434,-484.948
 L 31.7858,-484.726 L 31.8,-484.5 L 31.7858,-484.274 L 31.7434,-484.052 L 31.6736,-483.837 L 31.5773,-483.633
 L 31.4562,-483.442 L 31.3121,-483.268 L 31.1474,-483.113 L 30.9645,-482.98 L 30.7664,-482.871 L 30.5562,-482.788
 L 30.3373,-482.732 L 30.113,-482.704 z
" stroke="black" fill="lightgray" stroke-width="0.5"/>
</svg>
