  0
SECTION
  2
BLOCKS
  0
ENDSEC
  0
SECTION
  2
ENTITIES
  0
LINE
  8
0
 10
33.4369
 20
3501.09
 11
34.0451
 21
3501.24
  0
LINE
  8
0
 10
34.0451
 20
3501.24
 11
34.6289
 21
3501.48
  0
LINE
  8
0
 10
34.6289
 20
3501.48
 11
35.1791
 21
3501.78
  0
LINE
  8
0
 10
35.1791
 20
3501.78
 11
35.6871
 21
3502.15
  0
LINE
  8
0
 10
35.6871
 20
3502.15
 11
36.1448
 21
3502.58
  0
LINE
  8
0
 10
36.1448
 20
3502.58
 11
36.5451
 21
3503.06
  0
LINE
  8
0
 10
36.5451
 20
3503.06
 11
36.8815
 21
3503.59
  0
LINE
  8
0
 10
36.8815
 20
3503.59
 11
37.1489
 21
3504.16
  0
LINE
  8
0
 10
37.1489
 20
3504.16
 11
37.3429
 21
3504.76
  0
LINE
  8
0
 10
37.3429
 20
3504.76
 11
37.4606
 21
3505.37
  0
LINE
  8
0
 10
37.4606
 20
3505.37
 11
37.5
 21
3506
  0
LINE
  8
0
 10
37.5
 20
3506
 11
37.5
 21
3676
  0
LINE
  8
0
 10
37.5
 20
3676
 11
37.4606
 21
3676.63
  0
LINE
  8
0
 10
37.4606
 20
3676.63
 11
37.3429
 21
3677.24
  0
LINE
  8
0
 10
37.3429
 20
3677.24
 11
37.1489
 21
3677.84
  0
LINE
  8
0
 10
37.1489
 20
3677.84
 11
36.8815
 21
3678.41
  0
LINE
  8
0
 10
36.8815
 20
3678.41
 11
36.5451
 21
3678.94
  0
LINE
  8
0
 10
36.5451
 20
3678.94
 11
36.1448
 21
3679.42
  0
LINE
  8
0
 10
36.1448
 20
3679.42
 11
35.6871
 21
3679.85
  0
LINE
  8
0
 10
35.6871
 20
3679.85
 11
35.1791
 21
3680.22
  0
LINE
  8
0
 10
35.1791
 20
3680.22
 11
34.6289
 21
3680.52
  0
LINE
  8
0
 10
34.6289
 20
3680.52
 11
34.0451
 21
3680.76
  0
LINE
  8
0
 10
34.0451
 20
3680.76
 11
33.4369
 21
3680.91
  0
LINE
  8
0
 10
33.4369
 20
3680.91
 11
32.8139
 21
3680.99
  0
LINE
  8
0
 10
32.8139
 20
3680.99
 11
-32.8139
 21
3680.99
  0
LINE
  8
0
 10
-32.8139
 20
3680.99
 11
-33.4369
 21
3680.91
  0
LINE
  8
0
 10
-33.4369
 20
3680.91
 11
-34.0451
 21
3680.76
  0
LINE
  8
0
 10
-34.0451
 20
3680.76
 11
-34.6289
 21
3680.52
  0
LINE
  8
0
 10
-34.6289
 20
3680.52
 11
-35.1791
 21
3680.22
  0
LINE
  8
0
 10
-35.1791
 20
3680.22
 11
-35.6871
 21
3679.85
  0
LINE
  8
0
 10
-35.6871
 20
3679.85
 11
-36.1448
 21
3679.42
  0
LINE
  8
0
 10
-36.1448
 20
3679.42
 11
-36.5451
 21
3678.94
  0
LINE
  8
0
 10
-36.5451
 20
3678.94
 11
-36.8815
 21
3678.41
  0
LINE
  8
0
 10
-36.8815
 20
3678.41
 11
-37.1489
 21
3677.84
  0
LINE
  8
0
 10
-37.1489
 20
3677.84
 11
-37.3429
 21
3677.24
  0
LINE
  8
0
 10
-37.3429
 20
3677.24
 11
-37.4606
 21
3676.63
  0
LINE
  8
0
 10
-37.4606
 20
3676.63
 11
-37.5
 21
3676
  0
LINE
  8
0
 10
-37.5
 20
3676
 11
-37.5
 21
3506
  0
LINE
  8
0
 10
-37.5
 20
3506
 11
-37.4606
 21
3505.37
  0
LINE
  8
0
 10
-37.4606
 20
3505.37
 11
-37.3429
 21
3504.76
  0
LINE
  8
0
 10
-37.3429
 20
3504.76
 11
-37.1489
 21
3504.16
  0
LINE
  8
0
 10
-37.1489
 20
3504.16
 11
-36.8815
 21
3503.59
  0
LINE
  8
0
 10
-36.8815
 20
3503.59
 11
-36.5451
 21
3503.06
  0
LINE
  8
0
 10
-36.5451
 20
3503.06
 11
-36.1448
 21
3502.58
  0
LINE
  8
0
 10
-36.1448
 20
3502.58
 11
-35.6871
 21
3502.15
  0
LINE
  8
0
 10
-35.6871
 20
3502.15
 11
-35.1791
 21
3501.78
  0
LINE
  8
0
 10
-35.1791
 20
3501.78
 11
-34.6289
 21
3501.48
  0
LINE
  8
0
 10
-34.6289
 20
3501.48
 11
-34.0451
 21
3501.24
  0
LINE
  8
0
 10
-34.0451
 20
3501.24
 11
-33.4369
 21
3501.09
  0
LINE
  8
0
 10
-33.4369
 20
3501.09
 11
-32.8139
 21
3501.01
  0
LINE
  8
0
 10
-32.8139
 20
3501.01
 11
32.8139
 21
3501.01
  0
LINE
  8
0
 10
32.8139
 20
3501.01
 11
33.4369
 21
3501.09
  0
LINE
  8
0
 10
-32.2512
 20
3502.51
 11
-32.7495
 21
3502.57
  0
LINE
  8
0
 10
-32.7495
 20
3502.57
 11
-33.2361
 21
3502.7
  0
LINE
  8
0
 10
-33.2361
 20
3502.7
 11
-33.7031
 21
3502.88
  0
LINE
  8
0
 10
-33.7031
 20
3502.88
 11
-34.1433
 21
3503.12
  0
LINE
  8
0
 10
-34.1433
 20
3503.12
 11
-34.5497
 21
3503.42
  0
LINE
  8
0
 10
-34.5497
 20
3503.42
 11
-34.9159
 21
3503.76
  0
LINE
  8
0
 10
-34.9159
 20
3503.76
 11
-35.2361
 21
3504.15
  0
LINE
  8
0
 10
-35.2361
 20
3504.15
 11
-35.5052
 21
3504.57
  0
LINE
  8
0
 10
-35.5052
 20
3504.57
 11
-35.7191
 21
3505.03
  0
LINE
  8
0
 10
-35.7191
 20
3505.03
 11
-35.8743
 21
3505.51
  0
LINE
  8
0
 10
-35.8743
 20
3505.51
 11
-35.9685
 21
3506
  0
LINE
  8
0
 10
-35.9685
 20
3506
 11
-36
 21
3506.5
  0
LINE
  8
0
 10
-36
 20
3506.5
 11
-36
 21
3675.5
  0
LINE
  8
0
 10
-36
 20
3675.5
 11
-35.9685
 21
3676
  0
LINE
  8
0
 10
-35.9685
 20
3676
 11
-35.8743
 21
3676.49
  0
LINE
  8
0
 10
-35.8743
 20
3676.49
 11
-35.7191
 21
3676.97
  0
LINE
  8
0
 10
-35.7191
 20
3676.97
 11
-35.5052
 21
3677.43
  0
LINE
  8
0
 10
-35.5052
 20
3677.43
 11
-35.2361
 21
3677.85
  0
LINE
  8
0
 10
-35.2361
 20
3677.85
 11
-34.9159
 21
3678.24
  0
LINE
  8
0
 10
-34.9159
 20
3678.24
 11
-34.5497
 21
3678.58
  0
LINE
  8
0
 10
-34.5497
 20
3678.58
 11
-34.1433
 21
3678.88
  0
LINE
  8
0
 10
-34.1433
 20
3678.88
 11
-33.7031
 21
3679.12
  0
LINE
  8
0
 10
-33.7031
 20
3679.12
 11
-33.2361
 21
3679.3
  0
LINE
  8
0
 10
-33.2361
 20
3679.3
 11
-32.7495
 21
3679.43
  0
LINE
  8
0
 10
-32.7495
 20
3679.43
 11
-32.2512
 21
3679.49
  0
LINE
  8
0
 10
-32.2512
 20
3679.49
 11
32.2512
 21
3679.49
  0
LINE
  8
0
 10
32.2512
 20
3679.49
 11
32.7495
 21
3679.43
  0
LINE
  8
0
 10
32.7495
 20
3679.43
 11
33.2361
 21
3679.3
  0
LINE
  8
0
 10
33.2361
 20
3679.3
 11
33.7031
 21
3679.12
  0
LINE
  8
0
 10
33.7031
 20
3679.12
 11
34.1433
 21
3678.88
  0
LINE
  8
0
 10
34.1433
 20
3678.88
 11
34.5497
 21
3678.58
  0
LINE
  8
0
 10
34.5497
 20
3678.58
 11
34.9159
 21
3678.24
  0
LINE
  8
0
 10
34.9159
 20
3678.24
 11
35.2361
 21
3677.85
  0
LINE
  8
0
 10
35.2361
 20
3677.85
 11
35.5052
 21
3677.43
  0
LINE
  8
0
 10
35.5052
 20
3677.43
 11
35.7191
 21
3676.97
  0
LINE
  8
0
 10
35.7191
 20
3676.97
 11
35.8743
 21
3676.49
  0
LINE
  8
0
 10
35.8743
 20
3676.49
 11
35.9685
 21
3676
  0
LINE
  8
0
 10
35.9685
 20
3676
 11
36
 21
3675.5
  0
LINE
  8
0
 10
36
 20
3675.5
 11
36
 21
3506.5
  0
LINE
  8
0
 10
36
 20
3506.5
 11
35.9685
 21
3506
  0
LINE
  8
0
 10
35.9685
 20
3506
 11
35.8743
 21
3505.51
  0
LINE
  8
0
 10
35.8743
 20
3505.51
 11
35.7191
 21
3505.03
  0
LINE
  8
0
 10
35.7191
 20
3505.03
 11
35.5052
 21
3504.57
  0
LINE
  8
0
 10
35.5052
 20
3504.57
 11
35.2361
 21
3504.15
  0
LINE
  8
0
 10
35.2361
 20
3504.15
 11
34.9159
 21
3503.76
  0
LINE
  8
0
 10
34.9159
 20
3503.76
 11
34.5497
 21
3503.42
  0
LINE
  8
0
 10
34.5497
 20
3503.42
 11
34.1433
 21
3503.12
  0
LINE
  8
0
 10
34.1433
 20
3503.12
 11
33.7031
 21
3502.88
  0
LINE
  8
0
 10
33.7031
 20
3502.88
 11
33.2361
 21
3502.7
  0
LINE
  8
0
 10
33.2361
 20
3502.7
 11
32.7495
 21
3502.57
  0
LINE
  8
0
 10
32.7495
 20
3502.57
 11
32.2512
 21
3502.51
  0
LINE
  8
0
 10
32.2512
 20
3502.51
 11
-32.2512
 21
3502.51
  0
LINE
  8
0
 10
33.4369
 20
3312.09
 11
34.0451
 21
3312.24
  0
LINE
  8
0
 10
34.0451
 20
3312.24
 11
34.6289
 21
3312.48
  0
LINE
  8
0
 10
34.6289
 20
3312.48
 11
35.1791
 21
3312.78
  0
LINE
  8
0
 10
35.1791
 20
3312.78
 11
35.6871
 21
3313.15
  0
LINE
  8
0
 10
35.6871
 20
3313.15
 11
36.1448
 21
3313.58
  0
LINE
  8
0
 10
36.1448
 20
3313.58
 11
36.5451
 21
3314.06
  0
LINE
  8
0
 10
36.5451
 20
3314.06
 11
36.8815
 21
3314.59
  0
LINE
  8
0
 10
36.8815
 20
3314.59
 11
37.1489
 21
3315.16
  0
LINE
  8
0
 10
37.1489
 20
3315.16
 11
37.3429
 21
3315.76
  0
LINE
  8
0
 10
37.3429
 20
3315.76
 11
37.4606
 21
3316.37
  0
LINE
  8
0
 10
37.4606
 20
3316.37
 11
37.5
 21
3317
  0
LINE
  8
0
 10
37.5
 20
3317
 11
37.5
 21
3487
  0
LINE
  8
0
 10
37.5
 20
3487
 11
37.4606
 21
3487.63
  0
LINE
  8
0
 10
37.4606
 20
3487.63
 11
37.3429
 21
3488.24
  0
LINE
  8
0
 10
37.3429
 20
3488.24
 11
37.1489
 21
3488.84
  0
LINE
  8
0
 10
37.1489
 20
3488.84
 11
36.8815
 21
3489.41
  0
LINE
  8
0
 10
36.8815
 20
3489.41
 11
36.5451
 21
3489.94
  0
LINE
  8
0
 10
36.5451
 20
3489.94
 11
36.1448
 21
3490.42
  0
LINE
  8
0
 10
36.1448
 20
3490.42
 11
35.6871
 21
3490.85
  0
LINE
  8
0
 10
35.6871
 20
3490.85
 11
35.1791
 21
3491.22
  0
LINE
  8
0
 10
35.1791
 20
3491.22
 11
34.6289
 21
3491.52
  0
LINE
  8
0
 10
34.6289
 20
3491.52
 11
34.0451
 21
3491.76
  0
LINE
  8
0
 10
34.0451
 20
3491.76
 11
33.4369
 21
3491.91
  0
LINE
  8
0
 10
33.4369
 20
3491.91
 11
32.8139
 21
3491.99
  0
LINE
  8
0
 10
32.8139
 20
3491.99
 11
-32.8139
 21
3491.99
  0
LINE
  8
0
 10
-32.8139
 20
3491.99
 11
-33.4369
 21
3491.91
  0
LINE
  8
0
 10
-33.4369
 20
3491.91
 11
-34.0451
 21
3491.76
  0
LINE
  8
0
 10
-34.0451
 20
3491.76
 11
-34.6289
 21
3491.52
  0
LINE
  8
0
 10
-34.6289
 20
3491.52
 11
-35.1791
 21
3491.22
  0
LINE
  8
0
 10
-35.1791
 20
3491.22
 11
-35.6871
 21
3490.85
  0
LINE
  8
0
 10
-35.6871
 20
3490.85
 11
-36.1448
 21
3490.42
  0
LINE
  8
0
 10
-36.1448
 20
3490.42
 11
-36.5451
 21
3489.94
  0
LINE
  8
0
 10
-36.5451
 20
3489.94
 11
-36.8815
 21
3489.41
  0
LINE
  8
0
 10
-36.8815
 20
3489.41
 11
-37.1489
 21
3488.84
  0
LINE
  8
0
 10
-37.1489
 20
3488.84
 11
-37.3429
 21
3488.24
  0
LINE
  8
0
 10
-37.3429
 20
3488.24
 11
-37.4606
 21
3487.63
  0
LINE
  8
0
 10
-37.4606
 20
3487.63
 11
-37.5
 21
3487
  0
LINE
  8
0
 10
-37.5
 20
3487
 11
-37.5
 21
3317
  0
LINE
  8
0
 10
-37.5
 20
3317
 11
-37.4606
 21
3316.37
  0
LINE
  8
0
 10
-37.4606
 20
3316.37
 11
-37.3429
 21
3315.76
  0
LINE
  8
0
 10
-37.3429
 20
3315.76
 11
-37.1489
 21
3315.16
  0
LINE
  8
0
 10
-37.1489
 20
3315.16
 11
-36.8815
 21
3314.59
  0
LINE
  8
0
 10
-36.8815
 20
3314.59
 11
-36.5451
 21
3314.06
  0
LINE
  8
0
 10
-36.5451
 20
3314.06
 11
-36.1448
 21
3313.58
  0
LINE
  8
0
 10
-36.1448
 20
3313.58
 11
-35.6871
 21
3313.15
  0
LINE
  8
0
 10
-35.6871
 20
3313.15
 11
-35.1791
 21
3312.78
  0
LINE
  8
0
 10
-35.1791
 20
3312.78
 11
-34.6289
 21
3312.48
  0
LINE
  8
0
 10
-34.6289
 20
3312.48
 11
-34.0451
 21
3312.24
  0
LINE
  8
0
 10
-34.0451
 20
3312.24
 11
-33.4369
 21
3312.09
  0
LINE
  8
0
 10
-33.4369
 20
3312.09
 11
-32.8139
 21
3312.01
  0
LINE
  8
0
 10
-32.8139
 20
3312.01
 11
32.8139
 21
3312.01
  0
LINE
  8
0
 10
32.8139
 20
3312.01
 11
33.4369
 21
3312.09
  0
LINE
  8
0
 10
-32.2512
 20
3313.51
 11
-32.7495
 21
3313.57
  0
LINE
  8
0
 10
-32.7495
 20
3313.57
 11
-33.2361
 21
3313.7
  0
LINE
  8
0
 10
-33.2361
 20
3313.7
 11
-33.7031
 21
3313.88
  0
LINE
  8
0
 10
-33.7031
 20
3313.88
 11
-34.1433
 21
3314.12
  0
LINE
  8
0
 10
-34.1433
 20
3314.12
 11
-34.5497
 21
3314.42
  0
LINE
  8
0
 10
-34.5497
 20
3314.42
 11
-34.9159
 21
3314.76
  0
LINE
  8
0
 10
-34.9159
 20
3314.76
 11
-35.2361
 21
3315.15
  0
LINE
  8
0
 10
-35.2361
 20
3315.15
 11
-35.5052
 21
3315.57
  0
LINE
  8
0
 10
-35.5052
 20
3315.57
 11
-35.7191
 21
3316.03
  0
LINE
  8
0
 10
-35.7191
 20
3316.03
 11
-35.8743
 21
3316.51
  0
LINE
  8
0
 10
-35.8743
 20
3316.51
 11
-35.9685
 21
3317
  0
LINE
  8
0
 10
-35.9685
 20
3317
 11
-36
 21
3317.5
  0
LINE
  8
0
 10
-36
 20
3317.5
 11
-36
 21
3486.5
  0
LINE
  8
0
 10
-36
 20
3486.5
 11
-35.9685
 21
3487
  0
LINE
  8
0
 10
-35.9685
 20
3487
 11
-35.8743
 21
3487.49
  0
LINE
  8
0
 10
-35.8743
 20
3487.49
 11
-35.7191
 21
3487.97
  0
LINE
  8
0
 10
-35.7191
 20
3487.97
 11
-35.5052
 21
3488.43
  0
LINE
  8
0
 10
-35.5052
 20
3488.43
 11
-35.2361
 21
3488.85
  0
LINE
  8
0
 10
-35.2361
 20
3488.85
 11
-34.9159
 21
3489.24
  0
LINE
  8
0
 10
-34.9159
 20
3489.24
 11
-34.5497
 21
3489.58
  0
LINE
  8
0
 10
-34.5497
 20
3489.58
 11
-34.1433
 21
3489.88
  0
LINE
  8
0
 10
-34.1433
 20
3489.88
 11
-33.7031
 21
3490.12
  0
LINE
  8
0
 10
-33.7031
 20
3490.12
 11
-33.2361
 21
3490.3
  0
LINE
  8
0
 10
-33.2361
 20
3490.3
 11
-32.7495
 21
3490.43
  0
LINE
  8
0
 10
-32.7495
 20
3490.43
 11
-32.2512
 21
3490.49
  0
LINE
  8
0
 10
-32.2512
 20
3490.49
 11
32.2512
 21
3490.49
  0
LINE
  8
0
 10
32.2512
 20
3490.49
 11
32.7495
 21
3490.43
  0
LINE
  8
0
 10
32.7495
 20
3490.43
 11
33.2361
 21
3490.3
  0
LINE
  8
0
 10
33.2361
 20
3490.3
 11
33.7031
 21
3490.12
  0
LINE
  8
0
 10
33.7031
 20
3490.12
 11
34.1433
 21
3489.88
  0
LINE
  8
0
 10
34.1433
 20
3489.88
 11
34.5497
 21
3489.58
  0
LINE
  8
0
 10
34.5497
 20
3489.58
 11
34.9159
 21
3489.24
  0
LINE
  8
0
 10
34.9159
 20
3489.24
 11
35.2361
 21
3488.85
  0
LINE
  8
0
 10
35.2361
 20
3488.85
 11
35.5052
 21
3488.43
  0
LINE
  8
0
 10
35.5052
 20
3488.43
 11
35.7191
 21
3487.97
  0
LINE
  8
0
 10
35.7191
 20
3487.97
 11
35.8743
 21
3487.49
  0
LINE
  8
0
 10
35.8743
 20
3487.49
 11
35.9685
 21
3487
  0
LINE
  8
0
 10
35.9685
 20
3487
 11
36
 21
3486.5
  0
LINE
  8
0
 10
36
 20
3486.5
 11
36
 21
3317.5
  0
LINE
  8
0
 10
36
 20
3317.5
 11
35.9685
 21
3317
  0
LINE
  8
0
 10
35.9685
 20
3317
 11
35.8743
 21
3316.51
  0
LINE
  8
0
 10
35.8743
 20
3316.51
 11
35.7191
 21
3316.03
  0
LINE
  8
0
 10
35.7191
 20
3316.03
 11
35.5052
 21
3315.57
  0
LINE
  8
0
 10
35.5052
 20
3315.57
 11
35.2361
 21
3315.15
  0
LINE
  8
0
 10
35.2361
 20
3315.15
 11
34.9159
 21
3314.76
  0
LINE
  8
0
 10
34.9159
 20
3314.76
 11
34.5497
 21
3314.42
  0
LINE
  8
0
 10
34.5497
 20
3314.42
 11
34.1433
 21
3314.12
  0
LINE
  8
0
 10
34.1433
 20
3314.12
 11
33.7031
 21
3313.88
  0
LINE
  8
0
 10
33.7031
 20
3313.88
 11
33.2361
 21
3313.7
  0
LINE
  8
0
 10
33.2361
 20
3313.7
 11
32.7495
 21
3313.57
  0
LINE
  8
0
 10
32.7495
 20
3313.57
 11
32.2512
 21
3313.51
  0
LINE
  8
0
 10
32.2512
 20
3313.51
 11
-32.2512
 21
3313.51
  0
LINE
  8
0
 10
33.4369
 20
3123.09
 11
34.0451
 21
3123.24
  0
LINE
  8
0
 10
34.0451
 20
3123.24
 11
34.6289
 21
3123.48
  0
LINE
  8
0
 10
34.6289
 20
3123.48
 11
35.1791
 21
3123.78
  0
LINE
  8
0
 10
35.1791
 20
3123.78
 11
35.6871
 21
3124.15
  0
LINE
  8
0
 10
35.6871
 20
3124.15
 11
36.1448
 21
3124.58
  0
LINE
  8
0
 10
36.1448
 20
3124.58
 11
36.5451
 21
3125.06
  0
LINE
  8
0
 10
36.5451
 20
3125.06
 11
36.8815
 21
3125.59
  0
LINE
  8
0
 10
36.8815
 20
3125.59
 11
37.1489
 21
3126.16
  0
LINE
  8
0
 10
37.1489
 20
3126.16
 11
37.3429
 21
3126.76
  0
LINE
  8
0
 10
37.3429
 20
3126.76
 11
37.4606
 21
3127.37
  0
LINE
  8
0
 10
37.4606
 20
3127.37
 11
37.5
 21
3128
  0
LINE
  8
0
 10
37.5
 20
3128
 11
37.5
 21
3298
  0
LINE
  8
0
 10
37.5
 20
3298
 11
37.4606
 21
3298.63
  0
LINE
  8
0
 10
37.4606
 20
3298.63
 11
37.3429
 21
3299.24
  0
LINE
  8
0
 10
37.3429
 20
3299.24
 11
37.1489
 21
3299.84
  0
LINE
  8
0
 10
37.1489
 20
3299.84
 11
36.8815
 21
3300.41
  0
LINE
  8
0
 10
36.8815
 20
3300.41
 11
36.5451
 21
3300.94
  0
LINE
  8
0
 10
36.5451
 20
3300.94
 11
36.1448
 21
3301.42
  0
LINE
  8
0
 10
36.1448
 20
3301.42
 11
35.6871
 21
3301.85
  0
LINE
  8
0
 10
35.6871
 20
3301.85
 11
35.1791
 21
3302.22
  0
LINE
  8
0
 10
35.1791
 20
3302.22
 11
34.6289
 21
3302.52
  0
LINE
  8
0
 10
34.6289
 20
3302.52
 11
34.0451
 21
3302.76
  0
LINE
  8
0
 10
34.0451
 20
3302.76
 11
33.4369
 21
3302.91
  0
LINE
  8
0
 10
33.4369
 20
3302.91
 11
32.8139
 21
3302.99
  0
LINE
  8
0
 10
32.8139
 20
3302.99
 11
-32.8139
 21
3302.99
  0
LINE
  8
0
 10
-32.8139
 20
3302.99
 11
-33.4369
 21
3302.91
  0
LINE
  8
0
 10
-33.4369
 20
3302.91
 11
-34.0451
 21
3302.76
  0
LINE
  8
0
 10
-34.0451
 20
3302.76
 11
-34.6289
 21
3302.52
  0
LINE
  8
0
 10
-34.6289
 20
3302.52
 11
-35.1791
 21
3302.22
  0
LINE
  8
0
 10
-35.1791
 20
3302.22
 11
-35.6871
 21
3301.85
  0
LINE
  8
0
 10
-35.6871
 20
3301.85
 11
-36.1448
 21
3301.42
  0
LINE
  8
0
 10
-36.1448
 20
3301.42
 11
-36.5451
 21
3300.94
  0
LINE
  8
0
 10
-36.5451
 20
3300.94
 11
-36.8815
 21
3300.41
  0
LINE
  8
0
 10
-36.8815
 20
3300.41
 11
-37.1489
 21
3299.84
  0
LINE
  8
0
 10
-37.1489
 20
3299.84
 11
-37.3429
 21
3299.24
  0
LINE
  8
0
 10
-37.3429
 20
3299.24
 11
-37.4606
 21
3298.63
  0
LINE
  8
0
 10
-37.4606
 20
3298.63
 11
-37.5
 21
3298
  0
LINE
  8
0
 10
-37.5
 20
3298
 11
-37.5
 21
3128
  0
LINE
  8
0
 10
-37.5
 20
3128
 11
-37.4606
 21
3127.37
  0
LINE
  8
0
 10
-37.4606
 20
3127.37
 11
-37.3429
 21
3126.76
  0
LINE
  8
0
 10
-37.3429
 20
3126.76
 11
-37.1489
 21
3126.16
  0
LINE
  8
0
 10
-37.1489
 20
3126.16
 11
-36.8815
 21
3125.59
  0
LINE
  8
0
 10
-36.8815
 20
3125.59
 11
-36.5451
 21
3125.06
  0
LINE
  8
0
 10
-36.5451
 20
3125.06
 11
-36.1448
 21
3124.58
  0
LINE
  8
0
 10
-36.1448
 20
3124.58
 11
-35.6871
 21
3124.15
  0
LINE
  8
0
 10
-35.6871
 20
3124.15
 11
-35.1791
 21
3123.78
  0
LINE
  8
0
 10
-35.1791
 20
3123.78
 11
-34.6289
 21
3123.48
  0
LINE
  8
0
 10
-34.6289
 20
3123.48
 11
-34.0451
 21
3123.24
  0
LINE
  8
0
 10
-34.0451
 20
3123.24
 11
-33.4369
 21
3123.09
  0
LINE
  8
0
 10
-33.4369
 20
3123.09
 11
-32.8139
 21
3123.01
  0
LINE
  8
0
 10
-32.8139
 20
3123.01
 11
32.8139
 21
3123.01
  0
LINE
  8
0
 10
32.8139
 20
3123.01
 11
33.4369
 21
3123.09
  0
LINE
  8
0
 10
-32.2512
 20
3124.51
 11
-32.7495
 21
3124.57
  0
LINE
  8
0
 10
-32.7495
 20
3124.57
 11
-33.2361
 21
3124.7
  0
LINE
  8
0
 10
-33.2361
 20
3124.7
 11
-33.7031
 21
3124.88
  0
LINE
  8
0
 10
-33.7031
 20
3124.88
 11
-34.1433
 21
3125.12
  0
LINE
  8
0
 10
-34.1433
 20
3125.12
 11
-34.5497
 21
3125.42
  0
LINE
  8
0
 10
-34.5497
 20
3125.42
 11
-34.9159
 21
3125.76
  0
LINE
  8
0
 10
-34.9159
 20
3125.76
 11
-35.2361
 21
3126.15
  0
LINE
  8
0
 10
-35.2361
 20
3126.15
 11
-35.5052
 21
3126.57
  0
LINE
  8
0
 10
-35.5052
 20
3126.57
 11
-35.7191
 21
3127.03
  0
LINE
  8
0
 10
-35.7191
 20
3127.03
 11
-35.8743
 21
3127.51
  0
LINE
  8
0
 10
-35.8743
 20
3127.51
 11
-35.9685
 21
3128
  0
LINE
  8
0
 10
-35.9685
 20
3128
 11
-36
 21
3128.5
  0
LINE
  8
0
 10
-36
 20
3128.5
 11
-36
 21
3297.5
  0
LINE
  8
0
 10
-36
 20
3297.5
 11
-35.9685
 21
3298
  0
LINE
  8
0
 10
-35.9685
 20
3298
 11
-35.8743
 21
3298.49
  0
LINE
  8
0
 10
-35.8743
 20
3298.49
 11
-35.7191
 21
3298.97
  0
LINE
  8
0
 10
-35.7191
 20
3298.97
 11
-35.5052
 21
3299.43
  0
LINE
  8
0
 10
-35.5052
 20
3299.43
 11
-35.2361
 21
3299.85
  0
LINE
  8
0
 10
-35.2361
 20
3299.85
 11
-34.9159
 21
3300.24
  0
LINE
  8
0
 10
-34.9159
 20
3300.24
 11
-34.5497
 21
3300.58
  0
LINE
  8
0
 10
-34.5497
 20
3300.58
 11
-34.1433
 21
3300.88
  0
LINE
  8
0
 10
-34.1433
 20
3300.88
 11
-33.7031
 21
3301.12
  0
LINE
  8
0
 10
-33.7031
 20
3301.12
 11
-33.2361
 21
3301.3
  0
LINE
  8
0
 10
-33.2361
 20
3301.3
 11
-32.7495
 21
3301.43
  0
LINE
  8
0
 10
-32.7495
 20
3301.43
 11
-32.2512
 21
3301.49
  0
LINE
  8
0
 10
-32.2512
 20
3301.49
 11
32.2512
 21
3301.49
  0
LINE
  8
0
 10
32.2512
 20
3301.49
 11
32.7495
 21
3301.43
  0
LINE
  8
0
 10
32.7495
 20
3301.43
 11
33.2361
 21
3301.3
  0
LINE
  8
0
 10
33.2361
 20
3301.3
 11
33.7031
 21
3301.12
  0
LINE
  8
0
 10
33.7031
 20
3301.12
 11
34.1433
 21
3300.88
  0
LINE
  8
0
 10
34.1433
 20
3300.88
 11
34.5497
 21
3300.58
  0
LINE
  8
0
 10
34.5497
 20
3300.58
 11
34.9159
 21
3300.24
  0
LINE
  8
0
 10
34.9159
 20
3300.24
 11
35.2361
 21
3299.85
  0
LINE
  8
0
 10
35.2361
 20
3299.85
 11
35.5052
 21
3299.43
  0
LINE
  8
0
 10
35.5052
 20
3299.43
 11
35.7191
 21
3298.97
  0
LINE
  8
0
 10
35.7191
 20
3298.97
 11
35.8743
 21
3298.49
  0
LINE
  8
0
 10
35.8743
 20
3298.49
 11
35.9685
 21
3298
  0
LINE
  8
0
 10
35.9685
 20
3298
 11
36
 21
3297.5
  0
LINE
  8
0
 10
36
 20
3297.5
 11
36
 21
3128.5
  0
LINE
  8
0
 10
36
 20
3128.5
 11
35.9685
 21
3128
  0
LINE
  8
0
 10
35.9685
 20
3128
 11
35.8743
 21
3127.51
  0
LINE
  8
0
 10
35.8743
 20
3127.51
 11
35.7191
 21
3127.03
  0
LINE
  8
0
 10
35.7191
 20
3127.03
 11
35.5052
 21
3126.57
  0
LINE
  8
0
 10
35.5052
 20
3126.57
 11
35.2361
 21
3126.15
  0
LINE
  8
0
 10
35.2361
 20
3126.15
 11
34.9159
 21
3125.76
  0
LINE
  8
0
 10
34.9159
 20
3125.76
 11
34.5497
 21
3125.42
  0
LINE
  8
0
 10
34.5497
 20
3125.42
 11
34.1433
 21
3125.12
  0
LINE
  8
0
 10
34.1433
 20
3125.12
 11
33.7031
 21
3124.88
  0
LINE
  8
0
 10
33.7031
 20
3124.88
 11
33.2361
 21
3124.7
  0
LINE
  8
0
 10
33.2361
 20
3124.7
 11
32.7495
 21
3124.57
  0
LINE
  8
0
 10
32.7495
 20
3124.57
 11
32.2512
 21
3124.51
  0
LINE
  8
0
 10
32.2512
 20
3124.51
 11
-32.2512
 21
3124.51
  0
LINE
  8
0
 10
33.4369
 20
2934.09
 11
34.0451
 21
2934.24
  0
LINE
  8
0
 10
34.0451
 20
2934.24
 11
34.6289
 21
2934.48
  0
LINE
  8
0
 10
34.6289
 20
2934.48
 11
35.1791
 21
2934.78
  0
LINE
  8
0
 10
35.1791
 20
2934.78
 11
35.6871
 21
2935.15
  0
LINE
  8
0
 10
35.6871
 20
2935.15
 11
36.1448
 21
2935.58
  0
LINE
  8
0
 10
36.1448
 20
2935.58
 11
36.5451
 21
2936.06
  0
LINE
  8
0
 10
36.5451
 20
2936.06
 11
36.8815
 21
2936.59
  0
LINE
  8
0
 10
36.8815
 20
2936.59
 11
37.1489
 21
2937.16
  0
LINE
  8
0
 10
37.1489
 20
2937.16
 11
37.3429
 21
2937.76
  0
LINE
  8
0
 10
37.3429
 20
2937.76
 11
37.4606
 21
2938.37
  0
LINE
  8
0
 10
37.4606
 20
2938.37
 11
37.5
 21
2939
  0
LINE
  8
0
 10
37.5
 20
2939
 11
37.5
 21
3109
  0
LINE
  8
0
 10
37.5
 20
3109
 11
37.4606
 21
3109.63
  0
LINE
  8
0
 10
37.4606
 20
3109.63
 11
37.3429
 21
3110.24
  0
LINE
  8
0
 10
37.3429
 20
3110.24
 11
37.1489
 21
3110.84
  0
LINE
  8
0
 10
37.1489
 20
3110.84
 11
36.8815
 21
3111.41
  0
LINE
  8
0
 10
36.8815
 20
3111.41
 11
36.5451
 21
3111.94
  0
LINE
  8
0
 10
36.5451
 20
3111.94
 11
36.1448
 21
3112.42
  0
LINE
  8
0
 10
36.1448
 20
3112.42
 11
35.6871
 21
3112.85
  0
LINE
  8
0
 10
35.6871
 20
3112.85
 11
35.1791
 21
3113.22
  0
LINE
  8
0
 10
35.1791
 20
3113.22
 11
34.6289
 21
3113.52
  0
LINE
  8
0
 10
34.6289
 20
3113.52
 11
34.0451
 21
3113.76
  0
LINE
  8
0
 10
34.0451
 20
3113.76
 11
33.4369
 21
3113.91
  0
LINE
  8
0
 10
33.4369
 20
3113.91
 11
32.8139
 21
3113.99
  0
LINE
  8
0
 10
32.8139
 20
3113.99
 11
-32.8139
 21
3113.99
  0
LINE
  8
0
 10
-32.8139
 20
3113.99
 11
-33.4369
 21
3113.91
  0
LINE
  8
0
 10
-33.4369
 20
3113.91
 11
-34.0451
 21
3113.76
  0
LINE
  8
0
 10
-34.0451
 20
3113.76
 11
-34.6289
 21
3113.52
  0
LINE
  8
0
 10
-34.6289
 20
3113.52
 11
-35.1791
 21
3113.22
  0
LINE
  8
0
 10
-35.1791
 20
3113.22
 11
-35.6871
 21
3112.85
  0
LINE
  8
0
 10
-35.6871
 20
3112.85
 11
-36.1448
 21
3112.42
  0
LINE
  8
0
 10
-36.1448
 20
3112.42
 11
-36.5451
 21
3111.94
  0
LINE
  8
0
 10
-36.5451
 20
3111.94
 11
-36.8815
 21
3111.41
  0
LINE
  8
0
 10
-36.8815
 20
3111.41
 11
-37.1489
 21
3110.84
  0
LINE
  8
0
 10
-37.1489
 20
3110.84
 11
-37.3429
 21
3110.24
  0
LINE
  8
0
 10
-37.3429
 20
3110.24
 11
-37.4606
 21
3109.63
  0
LINE
  8
0
 10
-37.4606
 20
3109.63
 11
-37.5
 21
3109
  0
LINE
  8
0
 10
-37.5
 20
3109
 11
-37.5
 21
2939
  0
LINE
  8
0
 10
-37.5
 20
2939
 11
-37.4606
 21
2938.37
  0
LINE
  8
0
 10
-37.4606
 20
2938.37
 11
-37.3429
 21
2937.76
  0
LINE
  8
0
 10
-37.3429
 20
2937.76
 11
-37.1489
 21
2937.16
  0
LINE
  8
0
 10
-37.1489
 20
2937.16
 11
-36.8815
 21
2936.59
  0
LINE
  8
0
 10
-36.8815
 20
2936.59
 11
-36.5451
 21
2936.06
  0
LINE
  8
0
 10
-36.5451
 20
2936.06
 11
-36.1448
 21
2935.58
  0
LINE
  8
0
 10
-36.1448
 20
2935.58
 11
-35.6871
 21
2935.15
  0
LINE
  8
0
 10
-35.6871
 20
2935.15
 11
-35.1791
 21
2934.78
  0
LINE
  8
0
 10
-35.1791
 20
2934.78
 11
-34.6289
 21
2934.48
  0
LINE
  8
0
 10
-34.6289
 20
2934.48
 11
-34.0451
 21
2934.24
  0
LINE
  8
0
 10
-34.0451
 20
2934.24
 11
-33.4369
 21
2934.09
  0
LINE
  8
0
 10
-33.4369
 20
2934.09
 11
-32.8139
 21
2934.01
  0
LINE
  8
0
 10
-32.8139
 20
2934.01
 11
32.8139
 21
2934.01
  0
LINE
  8
0
 10
32.8139
 20
2934.01
 11
33.4369
 21
2934.09
  0
LINE
  8
0
 10
-32.2512
 20
2935.51
 11
-32.7495
 21
2935.57
  0
LINE
  8
0
 10
-32.7495
 20
2935.57
 11
-33.2361
 21
2935.7
  0
LINE
  8
0
 10
-33.2361
 20
2935.7
 11
-33.7031
 21
2935.88
  0
LINE
  8
0
 10
-33.7031
 20
2935.88
 11
-34.1433
 21
2936.12
  0
LINE
  8
0
 10
-34.1433
 20
2936.12
 11
-34.5497
 21
2936.42
  0
LINE
  8
0
 10
-34.5497
 20
2936.42
 11
-34.9159
 21
2936.76
  0
LINE
  8
0
 10
-34.9159
 20
2936.76
 11
-35.2361
 21
2937.15
  0
LINE
  8
0
 10
-35.2361
 20
2937.15
 11
-35.5052
 21
2937.57
  0
LINE
  8
0
 10
-35.5052
 20
2937.57
 11
-35.7191
 21
2938.03
  0
LINE
  8
0
 10
-35.7191
 20
2938.03
 11
-35.8743
 21
2938.51
  0
LINE
  8
0
 10
-35.8743
 20
2938.51
 11
-35.9685
 21
2939
  0
LINE
  8
0
 10
-35.9685
 20
2939
 11
-36
 21
2939.5
  0
LINE
  8
0
 10
-36
 20
2939.5
 11
-36
 21
3108.5
  0
LINE
  8
0
 10
-36
 20
3108.5
 11
-35.9685
 21
3109
  0
LINE
  8
0
 10
-35.9685
 20
3109
 11
-35.8743
 21
3109.49
  0
LINE
  8
0
 10
-35.8743
 20
3109.49
 11
-35.7191
 21
3109.97
  0
LINE
  8
0
 10
-35.7191
 20
3109.97
 11
-35.5052
 21
3110.43
  0
LINE
  8
0
 10
-35.5052
 20
3110.43
 11
-35.2361
 21
3110.85
  0
LINE
  8
0
 10
-35.2361
 20
3110.85
 11
-34.9159
 21
3111.24
  0
LINE
  8
0
 10
-34.9159
 20
3111.24
 11
-34.5497
 21
3111.58
  0
LINE
  8
0
 10
-34.5497
 20
3111.58
 11
-34.1433
 21
3111.88
  0
LINE
  8
0
 10
-34.1433
 20
3111.88
 11
-33.7031
 21
3112.12
  0
LINE
  8
0
 10
-33.7031
 20
3112.12
 11
-33.2361
 21
3112.3
  0
LINE
  8
0
 10
-33.2361
 20
3112.3
 11
-32.7495
 21
3112.43
  0
LINE
  8
0
 10
-32.7495
 20
3112.43
 11
-32.2512
 21
3112.49
  0
LINE
  8
0
 10
-32.2512
 20
3112.49
 11
32.2512
 21
3112.49
  0
LINE
  8
0
 10
32.2512
 20
3112.49
 11
32.7495
 21
3112.43
  0
LINE
  8
0
 10
32.7495
 20
3112.43
 11
33.2361
 21
3112.3
  0
LINE
  8
0
 10
33.2361
 20
3112.3
 11
33.7031
 21
3112.12
  0
LINE
  8
0
 10
33.7031
 20
3112.12
 11
34.1433
 21
3111.88
  0
LINE
  8
0
 10
34.1433
 20
3111.88
 11
34.5497
 21
3111.58
  0
LINE
  8
0
 10
34.5497
 20
3111.58
 11
34.9159
 21
3111.24
  0
LINE
  8
0
 10
34.9159
 20
3111.24
 11
35.2361
 21
3110.85
  0
LINE
  8
0
 10
35.2361
 20
3110.85
 11
35.5052
 21
3110.43
  0
LINE
  8
0
 10
35.5052
 20
3110.43
 11
35.7191
 21
3109.97
  0
LINE
  8
0
 10
35.7191
 20
3109.97
 11
35.8743
 21
3109.49
  0
LINE
  8
0
 10
35.8743
 20
3109.49
 11
35.9685
 21
3109
  0
LINE
  8
0
 10
35.9685
 20
3109
 11
36
 21
3108.5
  0
LINE
  8
0
 10
36
 20
3108.5
 11
36
 21
2939.5
  0
LINE
  8
0
 10
36
 20
2939.5
 11
35.9685
 21
2939
  0
LINE
  8
0
 10
35.9685
 20
2939
 11
35.8743
 21
2938.51
  0
LINE
  8
0
 10
35.8743
 20
2938.51
 11
35.7191
 21
2938.03
  0
LINE
  8
0
 10
35.7191
 20
2938.03
 11
35.5052
 21
2937.57
  0
LINE
  8
0
 10
35.5052
 20
2937.57
 11
35.2361
 21
2937.15
  0
LINE
  8
0
 10
35.2361
 20
2937.15
 11
34.9159
 21
2936.76
  0
LINE
  8
0
 10
34.9159
 20
2936.76
 11
34.5497
 21
2936.42
  0
LINE
  8
0
 10
34.5497
 20
2936.42
 11
34.1433
 21
2936.12
  0
LINE
  8
0
 10
34.1433
 20
2936.12
 11
33.7031
 21
2935.88
  0
LINE
  8
0
 10
33.7031
 20
2935.88
 11
33.2361
 21
2935.7
  0
LINE
  8
0
 10
33.2361
 20
2935.7
 11
32.7495
 21
2935.57
  0
LINE
  8
0
 10
32.7495
 20
2935.57
 11
32.2512
 21
2935.51
  0
LINE
  8
0
 10
32.2512
 20
2935.51
 11
-32.2512
 21
2935.51
  0
LINE
  8
0
 10
33.4369
 20
2745.09
 11
34.0451
 21
2745.24
  0
LINE
  8
0
 10
34.0451
 20
2745.24
 11
34.6289
 21
2745.48
  0
LINE
  8
0
 10
34.6289
 20
2745.48
 11
35.1791
 21
2745.78
  0
LINE
  8
0
 10
35.1791
 20
2745.78
 11
35.6871
 21
2746.15
  0
LINE
  8
0
 10
35.6871
 20
2746.15
 11
36.1448
 21
2746.58
  0
LINE
  8
0
 10
36.1448
 20
2746.58
 11
36.5451
 21
2747.06
  0
LINE
  8
0
 10
36.5451
 20
2747.06
 11
36.8815
 21
2747.59
  0
LINE
  8
0
 10
36.8815
 20
2747.59
 11
37.1489
 21
2748.16
  0
LINE
  8
0
 10
37.1489
 20
2748.16
 11
37.3429
 21
2748.76
  0
LINE
  8
0
 10
37.3429
 20
2748.76
 11
37.4606
 21
2749.37
  0
LINE
  8
0
 10
37.4606
 20
2749.37
 11
37.5
 21
2750
  0
LINE
  8
0
 10
37.5
 20
2750
 11
37.5
 21
2920
  0
LINE
  8
0
 10
37.5
 20
2920
 11
37.4606
 21
2920.63
  0
LINE
  8
0
 10
37.4606
 20
2920.63
 11
37.3429
 21
2921.24
  0
LINE
  8
0
 10
37.3429
 20
2921.24
 11
37.1489
 21
2921.84
  0
LINE
  8
0
 10
37.1489
 20
2921.84
 11
36.8815
 21
2922.41
  0
LINE
  8
0
 10
36.8815
 20
2922.41
 11
36.5451
 21
2922.94
  0
LINE
  8
0
 10
36.5451
 20
2922.94
 11
36.1448
 21
2923.42
  0
LINE
  8
0
 10
36.1448
 20
2923.42
 11
35.6871
 21
2923.85
  0
LINE
  8
0
 10
35.6871
 20
2923.85
 11
35.1791
 21
2924.22
  0
LINE
  8
0
 10
35.1791
 20
2924.22
 11
34.6289
 21
2924.52
  0
LINE
  8
0
 10
34.6289
 20
2924.52
 11
34.0451
 21
2924.76
  0
LINE
  8
0
 10
34.0451
 20
2924.76
 11
33.4369
 21
2924.91
  0
LINE
  8
0
 10
33.4369
 20
2924.91
 11
32.8139
 21
2924.99
  0
LINE
  8
0
 10
32.8139
 20
2924.99
 11
-32.8139
 21
2924.99
  0
LINE
  8
0
 10
-32.8139
 20
2924.99
 11
-33.4369
 21
2924.91
  0
LINE
  8
0
 10
-33.4369
 20
2924.91
 11
-34.0451
 21
2924.76
  0
LINE
  8
0
 10
-34.0451
 20
2924.76
 11
-34.6289
 21
2924.52
  0
LINE
  8
0
 10
-34.6289
 20
2924.52
 11
-35.1791
 21
2924.22
  0
LINE
  8
0
 10
-35.1791
 20
2924.22
 11
-35.6871
 21
2923.85
  0
LINE
  8
0
 10
-35.6871
 20
2923.85
 11
-36.1448
 21
2923.42
  0
LINE
  8
0
 10
-36.1448
 20
2923.42
 11
-36.5451
 21
2922.94
  0
LINE
  8
0
 10
-36.5451
 20
2922.94
 11
-36.8815
 21
2922.41
  0
LINE
  8
0
 10
-36.8815
 20
2922.41
 11
-37.1489
 21
2921.84
  0
LINE
  8
0
 10
-37.1489
 20
2921.84
 11
-37.3429
 21
2921.24
  0
LINE
  8
0
 10
-37.3429
 20
2921.24
 11
-37.4606
 21
2920.63
  0
LINE
  8
0
 10
-37.4606
 20
2920.63
 11
-37.5
 21
2920
  0
LINE
  8
0
 10
-37.5
 20
2920
 11
-37.5
 21
2750
  0
LINE
  8
0
 10
-37.5
 20
2750
 11
-37.4606
 21
2749.37
  0
LINE
  8
0
 10
-37.4606
 20
2749.37
 11
-37.3429
 21
2748.76
  0
LINE
  8
0
 10
-37.3429
 20
2748.76
 11
-37.1489
 21
2748.16
  0
LINE
  8
0
 10
-37.1489
 20
2748.16
 11
-36.8815
 21
2747.59
  0
LINE
  8
0
 10
-36.8815
 20
2747.59
 11
-36.5451
 21
2747.06
  0
LINE
  8
0
 10
-36.5451
 20
2747.06
 11
-36.1448
 21
2746.58
  0
LINE
  8
0
 10
-36.1448
 20
2746.58
 11
-35.6871
 21
2746.15
  0
LINE
  8
0
 10
-35.6871
 20
2746.15
 11
-35.1791
 21
2745.78
  0
LINE
  8
0
 10
-35.1791
 20
2745.78
 11
-34.6289
 21
2745.48
  0
LINE
  8
0
 10
-34.6289
 20
2745.48
 11
-34.0451
 21
2745.24
  0
LINE
  8
0
 10
-34.0451
 20
2745.24
 11
-33.4369
 21
2745.09
  0
LINE
  8
0
 10
-33.4369
 20
2745.09
 11
-32.8139
 21
2745.01
  0
LINE
  8
0
 10
-32.8139
 20
2745.01
 11
32.8139
 21
2745.01
  0
LINE
  8
0
 10
32.8139
 20
2745.01
 11
33.4369
 21
2745.09
  0
LINE
  8
0
 10
-32.2512
 20
2746.51
 11
-32.7495
 21
2746.57
  0
LINE
  8
0
 10
-32.7495
 20
2746.57
 11
-33.2361
 21
2746.7
  0
LINE
  8
0
 10
-33.2361
 20
2746.7
 11
-33.7031
 21
2746.88
  0
LINE
  8
0
 10
-33.7031
 20
2746.88
 11
-34.1433
 21
2747.12
  0
LINE
  8
0
 10
-34.1433
 20
2747.12
 11
-34.5497
 21
2747.42
  0
LINE
  8
0
 10
-34.5497
 20
2747.42
 11
-34.9159
 21
2747.76
  0
LINE
  8
0
 10
-34.9159
 20
2747.76
 11
-35.2361
 21
2748.15
  0
LINE
  8
0
 10
-35.2361
 20
2748.15
 11
-35.5052
 21
2748.57
  0
LINE
  8
0
 10
-35.5052
 20
2748.57
 11
-35.7191
 21
2749.03
  0
LINE
  8
0
 10
-35.7191
 20
2749.03
 11
-35.8743
 21
2749.51
  0
LINE
  8
0
 10
-35.8743
 20
2749.51
 11
-35.9685
 21
2750
  0
LINE
  8
0
 10
-35.9685
 20
2750
 11
-36
 21
2750.5
  0
LINE
  8
0
 10
-36
 20
2750.5
 11
-36
 21
2919.5
  0
LINE
  8
0
 10
-36
 20
2919.5
 11
-35.9685
 21
2920
  0
LINE
  8
0
 10
-35.9685
 20
2920
 11
-35.8743
 21
2920.49
  0
LINE
  8
0
 10
-35.8743
 20
2920.49
 11
-35.7191
 21
2920.97
  0
LINE
  8
0
 10
-35.7191
 20
2920.97
 11
-35.5052
 21
2921.43
  0
LINE
  8
0
 10
-35.5052
 20
2921.43
 11
-35.2361
 21
2921.85
  0
LINE
  8
0
 10
-35.2361
 20
2921.85
 11
-34.9159
 21
2922.24
  0
LINE
  8
0
 10
-34.9159
 20
2922.24
 11
-34.5497
 21
2922.58
  0
LINE
  8
0
 10
-34.5497
 20
2922.58
 11
-34.1433
 21
2922.88
  0
LINE
  8
0
 10
-34.1433
 20
2922.88
 11
-33.7031
 21
2923.12
  0
LINE
  8
0
 10
-33.7031
 20
2923.12
 11
-33.2361
 21
2923.3
  0
LINE
  8
0
 10
-33.2361
 20
2923.3
 11
-32.7495
 21
2923.43
  0
LINE
  8
0
 10
-32.7495
 20
2923.43
 11
-32.2512
 21
2923.49
  0
LINE
  8
0
 10
-32.2512
 20
2923.49
 11
32.2512
 21
2923.49
  0
LINE
  8
0
 10
32.2512
 20
2923.49
 11
32.7495
 21
2923.43
  0
LINE
  8
0
 10
32.7495
 20
2923.43
 11
33.2361
 21
2923.3
  0
LINE
  8
0
 10
33.2361
 20
2923.3
 11
33.7031
 21
2923.12
  0
LINE
  8
0
 10
33.7031
 20
2923.12
 11
34.1433
 21
2922.88
  0
LINE
  8
0
 10
34.1433
 20
2922.88
 11
34.5497
 21
2922.58
  0
LINE
  8
0
 10
34.5497
 20
2922.58
 11
34.9159
 21
2922.24
  0
LINE
  8
0
 10
34.9159
 20
2922.24
 11
35.2361
 21
2921.85
  0
LINE
  8
0
 10
35.2361
 20
2921.85
 11
35.5052
 21
2921.43
  0
LINE
  8
0
 10
35.5052
 20
2921.43
 11
35.7191
 21
2920.97
  0
LINE
  8
0
 10
35.7191
 20
2920.97
 11
35.8743
 21
2920.49
  0
LINE
  8
0
 10
35.8743
 20
2920.49
 11
35.9685
 21
2920
  0
LINE
  8
0
 10
35.9685
 20
2920
 11
36
 21
2919.5
  0
LINE
  8
0
 10
36
 20
2919.5
 11
36
 21
2750.5
  0
LINE
  8
0
 10
36
 20
2750.5
 11
35.9685
 21
2750
  0
LINE
  8
0
 10
35.9685
 20
2750
 11
35.8743
 21
2749.51
  0
LINE
  8
0
 10
35.8743
 20
2749.51
 11
35.7191
 21
2749.03
  0
LINE
  8
0
 10
35.7191
 20
2749.03
 11
35.5052
 21
2748.57
  0
LINE
  8
0
 10
35.5052
 20
2748.57
 11
35.2361
 21
2748.15
  0
LINE
  8
0
 10
35.2361
 20
2748.15
 11
34.9159
 21
2747.76
  0
LINE
  8
0
 10
34.9159
 20
2747.76
 11
34.5497
 21
2747.42
  0
LINE
  8
0
 10
34.5497
 20
2747.42
 11
34.1433
 21
2747.12
  0
LINE
  8
0
 10
34.1433
 20
2747.12
 11
33.7031
 21
2746.88
  0
LINE
  8
0
 10
33.7031
 20
2746.88
 11
33.2361
 21
2746.7
  0
LINE
  8
0
 10
33.2361
 20
2746.7
 11
32.7495
 21
2746.57
  0
LINE
  8
0
 10
32.7495
 20
2746.57
 11
32.2512
 21
2746.51
  0
LINE
  8
0
 10
32.2512
 20
2746.51
 11
-32.2512
 21
2746.51
  0
LINE
  8
0
 10
33.4369
 20
2556.09
 11
34.0451
 21
2556.24
  0
LINE
  8
0
 10
34.0451
 20
2556.24
 11
34.6289
 21
2556.48
  0
LINE
  8
0
 10
34.6289
 20
2556.48
 11
35.1791
 21
2556.78
  0
LINE
  8
0
 10
35.1791
 20
2556.78
 11
35.6871
 21
2557.15
  0
LINE
  8
0
 10
35.6871
 20
2557.15
 11
36.1448
 21
2557.58
  0
LINE
  8
0
 10
36.1448
 20
2557.58
 11
36.5451
 21
2558.06
  0
LINE
  8
0
 10
36.5451
 20
2558.06
 11
36.8815
 21
2558.59
  0
LINE
  8
0
 10
36.8815
 20
2558.59
 11
37.1489
 21
2559.16
  0
LINE
  8
0
 10
37.1489
 20
2559.16
 11
37.3429
 21
2559.76
  0
LINE
  8
0
 10
37.3429
 20
2559.76
 11
37.4606
 21
2560.37
  0
LINE
  8
0
 10
37.4606
 20
2560.37
 11
37.5
 21
2561
  0
LINE
  8
0
 10
37.5
 20
2561
 11
37.5
 21
2731
  0
LINE
  8
0
 10
37.5
 20
2731
 11
37.4606
 21
2731.63
  0
LINE
  8
0
 10
37.4606
 20
2731.63
 11
37.3429
 21
2732.24
  0
LINE
  8
0
 10
37.3429
 20
2732.24
 11
37.1489
 21
2732.84
  0
LINE
  8
0
 10
37.1489
 20
2732.84
 11
36.8815
 21
2733.41
  0
LINE
  8
0
 10
36.8815
 20
2733.41
 11
36.5451
 21
2733.94
  0
LINE
  8
0
 10
36.5451
 20
2733.94
 11
36.1448
 21
2734.42
  0
LINE
  8
0
 10
36.1448
 20
2734.42
 11
35.6871
 21
2734.85
  0
LINE
  8
0
 10
35.6871
 20
2734.85
 11
35.1791
 21
2735.22
  0
LINE
  8
0
 10
35.1791
 20
2735.22
 11
34.6289
 21
2735.52
  0
LINE
  8
0
 10
34.6289
 20
2735.52
 11
34.0451
 21
2735.76
  0
LINE
  8
0
 10
34.0451
 20
2735.76
 11
33.4369
 21
2735.91
  0
LINE
  8
0
 10
33.4369
 20
2735.91
 11
32.8139
 21
2735.99
  0
LINE
  8
0
 10
32.8139
 20
2735.99
 11
-32.8139
 21
2735.99
  0
LINE
  8
0
 10
-32.8139
 20
2735.99
 11
-33.4369
 21
2735.91
  0
LINE
  8
0
 10
-33.4369
 20
2735.91
 11
-34.0451
 21
2735.76
  0
LINE
  8
0
 10
-34.0451
 20
2735.76
 11
-34.6289
 21
2735.52
  0
LINE
  8
0
 10
-34.6289
 20
2735.52
 11
-35.1791
 21
2735.22
  0
LINE
  8
0
 10
-35.1791
 20
2735.22
 11
-35.6871
 21
2734.85
  0
LINE
  8
0
 10
-35.6871
 20
2734.85
 11
-36.1448
 21
2734.42
  0
LINE
  8
0
 10
-36.1448
 20
2734.42
 11
-36.5451
 21
2733.94
  0
LINE
  8
0
 10
-36.5451
 20
2733.94
 11
-36.8815
 21
2733.41
  0
LINE
  8
0
 10
-36.8815
 20
2733.41
 11
-37.1489
 21
2732.84
  0
LINE
  8
0
 10
-37.1489
 20
2732.84
 11
-37.3429
 21
2732.24
  0
LINE
  8
0
 10
-37.3429
 20
2732.24
 11
-37.4606
 21
2731.63
  0
LINE
  8
0
 10
-37.4606
 20
2731.63
 11
-37.5
 21
2731
  0
LINE
  8
0
 10
-37.5
 20
2731
 11
-37.5
 21
2561
  0
LINE
  8
0
 10
-37.5
 20
2561
 11
-37.4606
 21
2560.37
  0
LINE
  8
0
 10
-37.4606
 20
2560.37
 11
-37.3429
 21
2559.76
  0
LINE
  8
0
 10
-37.3429
 20
2559.76
 11
-37.1489
 21
2559.16
  0
LINE
  8
0
 10
-37.1489
 20
2559.16
 11
-36.8815
 21
2558.59
  0
LINE
  8
0
 10
-36.8815
 20
2558.59
 11
-36.5451
 21
2558.06
  0
LINE
  8
0
 10
-36.5451
 20
2558.06
 11
-36.1448
 21
2557.58
  0
LINE
  8
0
 10
-36.1448
 20
2557.58
 11
-35.6871
 21
2557.15
  0
LINE
  8
0
 10
-35.6871
 20
2557.15
 11
-35.1791
 21
2556.78
  0
LINE
  8
0
 10
-35.1791
 20
2556.78
 11
-34.6289
 21
2556.48
  0
LINE
  8
0
 10
-34.6289
 20
2556.48
 11
-34.0451
 21
2556.24
  0
LINE
  8
0
 10
-34.0451
 20
2556.24
 11
-33.4369
 21
2556.09
  0
LINE
  8
0
 10
-33.4369
 20
2556.09
 11
-32.8139
 21
2556.01
  0
LINE
  8
0
 10
-32.8139
 20
2556.01
 11
32.8139
 21
2556.01
  0
LINE
  8
0
 10
32.8139
 20
2556.01
 11
33.4369
 21
2556.09
  0
LINE
  8
0
 10
-32.2512
 20
2557.51
 11
-32.7495
 21
2557.57
  0
LINE
  8
0
 10
-32.7495
 20
2557.57
 11
-33.2361
 21
2557.7
  0
LINE
  8
0
 10
-33.2361
 20
2557.7
 11
-33.7031
 21
2557.88
  0
LINE
  8
0
 10
-33.7031
 20
2557.88
 11
-34.1433
 21
2558.12
  0
LINE
  8
0
 10
-34.1433
 20
2558.12
 11
-34.5497
 21
2558.42
  0
LINE
  8
0
 10
-34.5497
 20
2558.42
 11
-34.9159
 21
2558.76
  0
LINE
  8
0
 10
-34.9159
 20
2558.76
 11
-35.2361
 21
2559.15
  0
LINE
  8
0
 10
-35.2361
 20
2559.15
 11
-35.5052
 21
2559.57
  0
LINE
  8
0
 10
-35.5052
 20
2559.57
 11
-35.7191
 21
2560.03
  0
LINE
  8
0
 10
-35.7191
 20
2560.03
 11
-35.8743
 21
2560.51
  0
LINE
  8
0
 10
-35.8743
 20
2560.51
 11
-35.9685
 21
2561
  0
LINE
  8
0
 10
-35.9685
 20
2561
 11
-36
 21
2561.5
  0
LINE
  8
0
 10
-36
 20
2561.5
 11
-36
 21
2730.5
  0
LINE
  8
0
 10
-36
 20
2730.5
 11
-35.9685
 21
2731
  0
LINE
  8
0
 10
-35.9685
 20
2731
 11
-35.8743
 21
2731.49
  0
LINE
  8
0
 10
-35.8743
 20
2731.49
 11
-35.7191
 21
2731.97
  0
LINE
  8
0
 10
-35.7191
 20
2731.97
 11
-35.5052
 21
2732.43
  0
LINE
  8
0
 10
-35.5052
 20
2732.43
 11
-35.2361
 21
2732.85
  0
LINE
  8
0
 10
-35.2361
 20
2732.85
 11
-34.9159
 21
2733.24
  0
LINE
  8
0
 10
-34.9159
 20
2733.24
 11
-34.5497
 21
2733.58
  0
LINE
  8
0
 10
-34.5497
 20
2733.58
 11
-34.1433
 21
2733.88
  0
LINE
  8
0
 10
-34.1433
 20
2733.88
 11
-33.7031
 21
2734.12
  0
LINE
  8
0
 10
-33.7031
 20
2734.12
 11
-33.2361
 21
2734.3
  0
LINE
  8
0
 10
-33.2361
 20
2734.3
 11
-32.7495
 21
2734.43
  0
LINE
  8
0
 10
-32.7495
 20
2734.43
 11
-32.2512
 21
2734.49
  0
LINE
  8
0
 10
-32.2512
 20
2734.49
 11
32.2512
 21
2734.49
  0
LINE
  8
0
 10
32.2512
 20
2734.49
 11
32.7495
 21
2734.43
  0
LINE
  8
0
 10
32.7495
 20
2734.43
 11
33.2361
 21
2734.3
  0
LINE
  8
0
 10
33.2361
 20
2734.3
 11
33.7031
 21
2734.12
  0
LINE
  8
0
 10
33.7031
 20
2734.12
 11
34.1433
 21
2733.88
  0
LINE
  8
0
 10
34.1433
 20
2733.88
 11
34.5497
 21
2733.58
  0
LINE
  8
0
 10
34.5497
 20
2733.58
 11
34.9159
 21
2733.24
  0
LINE
  8
0
 10
34.9159
 20
2733.24
 11
35.2361
 21
2732.85
  0
LINE
  8
0
 10
35.2361
 20
2732.85
 11
35.5052
 21
2732.43
  0
LINE
  8
0
 10
35.5052
 20
2732.43
 11
35.7191
 21
2731.97
  0
LINE
  8
0
 10
35.7191
 20
2731.97
 11
35.8743
 21
2731.49
  0
LINE
  8
0
 10
35.8743
 20
2731.49
 11
35.9685
 21
2731
  0
LINE
  8
0
 10
35.9685
 20
2731
 11
36
 21
2730.5
  0
LINE
  8
0
 10
36
 20
2730.5
 11
36
 21
2561.5
  0
LINE
  8
0
 10
36
 20
2561.5
 11
35.9685
 21
2561
  0
LINE
  8
0
 10
35.9685
 20
2561
 11
35.8743
 21
2560.51
  0
LINE
  8
0
 10
35.8743
 20
2560.51
 11
35.7191
 21
2560.03
  0
LINE
  8
0
 10
35.7191
 20
2560.03
 11
35.5052
 21
2559.57
  0
LINE
  8
0
 10
35.5052
 20
2559.57
 11
35.2361
 21
2559.15
  0
LINE
  8
0
 10
35.2361
 20
2559.15
 11
34.9159
 21
2558.76
  0
LINE
  8
0
 10
34.9159
 20
2558.76
 11
34.5497
 21
2558.42
  0
LINE
  8
0
 10
34.5497
 20
2558.42
 11
34.1433
 21
2558.12
  0
LINE
  8
0
 10
34.1433
 20
2558.12
 11
33.7031
 21
2557.88
  0
LINE
  8
0
 10
33.7031
 20
2557.88
 11
33.2361
 21
2557.7
  0
LINE
  8
0
 10
33.2361
 20
2557.7
 11
32.7495
 21
2557.57
  0
LINE
  8
0
 10
32.7495
 20
2557.57
 11
32.2512
 21
2557.51
  0
LINE
  8
0
 10
32.2512
 20
2557.51
 11
-32.2512
 21
2557.51
  0
LINE
  8
0
 10
33.4369
 20
2367.09
 11
34.0451
 21
2367.24
  0
LINE
  8
0
 10
34.0451
 20
2367.24
 11
34.6289
 21
2367.48
  0
LINE
  8
0
 10
34.6289
 20
2367.48
 11
35.1791
 21
2367.78
  0
LINE
  8
0
 10
35.1791
 20
2367.78
 11
35.6871
 21
2368.15
  0
LINE
  8
0
 10
35.6871
 20
2368.15
 11
36.1448
 21
2368.58
  0
LINE
  8
0
 10
36.1448
 20
2368.58
 11
36.5451
 21
2369.06
  0
LINE
  8
0
 10
36.5451
 20
2369.06
 11
36.8815
 21
2369.59
  0
LINE
  8
0
 10
36.8815
 20
2369.59
 11
37.1489
 21
2370.16
  0
LINE
  8
0
 10
37.1489
 20
2370.16
 11
37.3429
 21
2370.76
  0
LINE
  8
0
 10
37.3429
 20
2370.76
 11
37.4606
 21
2371.37
  0
LINE
  8
0
 10
37.4606
 20
2371.37
 11
37.5
 21
2372
  0
LINE
  8
0
 10
37.5
 20
2372
 11
37.5
 21
2542
  0
LINE
  8
0
 10
37.5
 20
2542
 11
37.4606
 21
2542.63
  0
LINE
  8
0
 10
37.4606
 20
2542.63
 11
37.3429
 21
2543.24
  0
LINE
  8
0
 10
37.3429
 20
2543.24
 11
37.1489
 21
2543.84
  0
LINE
  8
0
 10
37.1489
 20
2543.84
 11
36.8815
 21
2544.41
  0
LINE
  8
0
 10
36.8815
 20
2544.41
 11
36.5451
 21
2544.94
  0
LINE
  8
0
 10
36.5451
 20
2544.94
 11
36.1448
 21
2545.42
  0
LINE
  8
0
 10
36.1448
 20
2545.42
 11
35.6871
 21
2545.85
  0
LINE
  8
0
 10
35.6871
 20
2545.85
 11
35.1791
 21
2546.22
  0
LINE
  8
0
 10
35.1791
 20
2546.22
 11
34.6289
 21
2546.52
  0
LINE
  8
0
 10
34.6289
 20
2546.52
 11
34.0451
 21
2546.76
  0
LINE
  8
0
 10
34.0451
 20
2546.76
 11
33.4369
 21
2546.91
  0
LINE
  8
0
 10
33.4369
 20
2546.91
 11
32.8139
 21
2546.99
  0
LINE
  8
0
 10
32.8139
 20
2546.99
 11
-32.8139
 21
2546.99
  0
LINE
  8
0
 10
-32.8139
 20
2546.99
 11
-33.4369
 21
2546.91
  0
LINE
  8
0
 10
-33.4369
 20
2546.91
 11
-34.0451
 21
2546.76
  0
LINE
  8
0
 10
-34.0451
 20
2546.76
 11
-34.6289
 21
2546.52
  0
LINE
  8
0
 10
-34.6289
 20
2546.52
 11
-35.1791
 21
2546.22
  0
LINE
  8
0
 10
-35.1791
 20
2546.22
 11
-35.6871
 21
2545.85
  0
LINE
  8
0
 10
-35.6871
 20
2545.85
 11
-36.1448
 21
2545.42
  0
LINE
  8
0
 10
-36.1448
 20
2545.42
 11
-36.5451
 21
2544.94
  0
LINE
  8
0
 10
-36.5451
 20
2544.94
 11
-36.8815
 21
2544.41
  0
LINE
  8
0
 10
-36.8815
 20
2544.41
 11
-37.1489
 21
2543.84
  0
LINE
  8
0
 10
-37.1489
 20
2543.84
 11
-37.3429
 21
2543.24
  0
LINE
  8
0
 10
-37.3429
 20
2543.24
 11
-37.4606
 21
2542.63
  0
LINE
  8
0
 10
-37.4606
 20
2542.63
 11
-37.5
 21
2542
  0
LINE
  8
0
 10
-37.5
 20
2542
 11
-37.5
 21
2372
  0
LINE
  8
0
 10
-37.5
 20
2372
 11
-37.4606
 21
2371.37
  0
LINE
  8
0
 10
-37.4606
 20
2371.37
 11
-37.3429
 21
2370.76
  0
LINE
  8
0
 10
-37.3429
 20
2370.76
 11
-37.1489
 21
2370.16
  0
LINE
  8
0
 10
-37.1489
 20
2370.16
 11
-36.8815
 21
2369.59
  0
LINE
  8
0
 10
-36.8815
 20
2369.59
 11
-36.5451
 21
2369.06
  0
LINE
  8
0
 10
-36.5451
 20
2369.06
 11
-36.1448
 21
2368.58
  0
LINE
  8
0
 10
-36.1448
 20
2368.58
 11
-35.6871
 21
2368.15
  0
LINE
  8
0
 10
-35.6871
 20
2368.15
 11
-35.1791
 21
2367.78
  0
LINE
  8
0
 10
-35.1791
 20
2367.78
 11
-34.6289
 21
2367.48
  0
LINE
  8
0
 10
-34.6289
 20
2367.48
 11
-34.0451
 21
2367.24
  0
LINE
  8
0
 10
-34.0451
 20
2367.24
 11
-33.4369
 21
2367.09
  0
LINE
  8
0
 10
-33.4369
 20
2367.09
 11
-32.8139
 21
2367.01
  0
LINE
  8
0
 10
-32.8139
 20
2367.01
 11
32.8139
 21
2367.01
  0
LINE
  8
0
 10
32.8139
 20
2367.01
 11
33.4369
 21
2367.09
  0
LINE
  8
0
 10
-32.2512
 20
2368.51
 11
-32.7495
 21
2368.57
  0
LINE
  8
0
 10
-32.7495
 20
2368.57
 11
-33.2361
 21
2368.7
  0
LINE
  8
0
 10
-33.2361
 20
2368.7
 11
-33.7031
 21
2368.88
  0
LINE
  8
0
 10
-33.7031
 20
2368.88
 11
-34.1433
 21
2369.12
  0
LINE
  8
0
 10
-34.1433
 20
2369.12
 11
-34.5497
 21
2369.42
  0
LINE
  8
0
 10
-34.5497
 20
2369.42
 11
-34.9159
 21
2369.76
  0
LINE
  8
0
 10
-34.9159
 20
2369.76
 11
-35.2361
 21
2370.15
  0
LINE
  8
0
 10
-35.2361
 20
2370.15
 11
-35.5052
 21
2370.57
  0
LINE
  8
0
 10
-35.5052
 20
2370.57
 11
-35.7191
 21
2371.03
  0
LINE
  8
0
 10
-35.7191
 20
2371.03
 11
-35.8743
 21
2371.51
  0
LINE
  8
0
 10
-35.8743
 20
2371.51
 11
-35.9685
 21
2372
  0
LINE
  8
0
 10
-35.9685
 20
2372
 11
-36
 21
2372.5
  0
LINE
  8
0
 10
-36
 20
2372.5
 11
-36
 21
2541.5
  0
LINE
  8
0
 10
-36
 20
2541.5
 11
-35.9685
 21
2542
  0
LINE
  8
0
 10
-35.9685
 20
2542
 11
-35.8743
 21
2542.49
  0
LINE
  8
0
 10
-35.8743
 20
2542.49
 11
-35.7191
 21
2542.97
  0
LINE
  8
0
 10
-35.7191
 20
2542.97
 11
-35.5052
 21
2543.43
  0
LINE
  8
0
 10
-35.5052
 20
2543.43
 11
-35.2361
 21
2543.85
  0
LINE
  8
0
 10
-35.2361
 20
2543.85
 11
-34.9159
 21
2544.24
  0
LINE
  8
0
 10
-34.9159
 20
2544.24
 11
-34.5497
 21
2544.58
  0
LINE
  8
0
 10
-34.5497
 20
2544.58
 11
-34.1433
 21
2544.88
  0
LINE
  8
0
 10
-34.1433
 20
2544.88
 11
-33.7031
 21
2545.12
  0
LINE
  8
0
 10
-33.7031
 20
2545.12
 11
-33.2361
 21
2545.3
  0
LINE
  8
0
 10
-33.2361
 20
2545.3
 11
-32.7495
 21
2545.43
  0
LINE
  8
0
 10
-32.7495
 20
2545.43
 11
-32.2512
 21
2545.49
  0
LINE
  8
0
 10
-32.2512
 20
2545.49
 11
32.2512
 21
2545.49
  0
LINE
  8
0
 10
32.2512
 20
2545.49
 11
32.7495
 21
2545.43
  0
LINE
  8
0
 10
32.7495
 20
2545.43
 11
33.2361
 21
2545.3
  0
LINE
  8
0
 10
33.2361
 20
2545.3
 11
33.7031
 21
2545.12
  0
LINE
  8
0
 10
33.7031
 20
2545.12
 11
34.1433
 21
2544.88
  0
LINE
  8
0
 10
34.1433
 20
2544.88
 11
34.5497
 21
2544.58
  0
LINE
  8
0
 10
34.5497
 20
2544.58
 11
34.9159
 21
2544.24
  0
LINE
  8
0
 10
34.9159
 20
2544.24
 11
35.2361
 21
2543.85
  0
LINE
  8
0
 10
35.2361
 20
2543.85
 11
35.5052
 21
2543.43
  0
LINE
  8
0
 10
35.5052
 20
2543.43
 11
35.7191
 21
2542.97
  0
LINE
  8
0
 10
35.7191
 20
2542.97
 11
35.8743
 21
2542.49
  0
LINE
  8
0
 10
35.8743
 20
2542.49
 11
35.9685
 21
2542
  0
LINE
  8
0
 10
35.9685
 20
2542
 11
36
 21
2541.5
  0
LINE
  8
0
 10
36
 20
2541.5
 11
36
 21
2372.5
  0
LINE
  8
0
 10
36
 20
2372.5
 11
35.9685
 21
2372
  0
LINE
  8
0
 10
35.9685
 20
2372
 11
35.8743
 21
2371.51
  0
LINE
  8
0
 10
35.8743
 20
2371.51
 11
35.7191
 21
2371.03
  0
LINE
  8
0
 10
35.7191
 20
2371.03
 11
35.5052
 21
2370.57
  0
LINE
  8
0
 10
35.5052
 20
2370.57
 11
35.2361
 21
2370.15
  0
LINE
  8
0
 10
35.2361
 20
2370.15
 11
34.9159
 21
2369.76
  0
LINE
  8
0
 10
34.9159
 20
2369.76
 11
34.5497
 21
2369.42
  0
LINE
  8
0
 10
34.5497
 20
2369.42
 11
34.1433
 21
2369.12
  0
LINE
  8
0
 10
34.1433
 20
2369.12
 11
33.7031
 21
2368.88
  0
LINE
  8
0
 10
33.7031
 20
2368.88
 11
33.2361
 21
2368.7
  0
LINE
  8
0
 10
33.2361
 20
2368.7
 11
32.7495
 21
2368.57
  0
LINE
  8
0
 10
32.7495
 20
2368.57
 11
32.2512
 21
2368.51
  0
LINE
  8
0
 10
32.2512
 20
2368.51
 11
-32.2512
 21
2368.51
  0
LINE
  8
0
 10
33.4369
 20
2178.09
 11
34.0451
 21
2178.24
  0
LINE
  8
0
 10
34.0451
 20
2178.24
 11
34.6289
 21
2178.48
  0
LINE
  8
0
 10
34.6289
 20
2178.48
 11
35.1791
 21
2178.78
  0
LINE
  8
0
 10
35.1791
 20
2178.78
 11
35.6871
 21
2179.15
  0
LINE
  8
0
 10
35.6871
 20
2179.15
 11
36.1448
 21
2179.58
  0
LINE
  8
0
 10
36.1448
 20
2179.58
 11
36.5451
 21
2180.06
  0
LINE
  8
0
 10
36.5451
 20
2180.06
 11
36.8815
 21
2180.59
  0
LINE
  8
0
 10
36.8815
 20
2180.59
 11
37.1489
 21
2181.16
  0
LINE
  8
0
 10
37.1489
 20
2181.16
 11
37.3429
 21
2181.76
  0
LINE
  8
0
 10
37.3429
 20
2181.76
 11
37.4606
 21
2182.37
  0
LINE
  8
0
 10
37.4606
 20
2182.37
 11
37.5
 21
2183
  0
LINE
  8
0
 10
37.5
 20
2183
 11
37.5
 21
2353
  0
LINE
  8
0
 10
37.5
 20
2353
 11
37.4606
 21
2353.63
  0
LINE
  8
0
 10
37.4606
 20
2353.63
 11
37.3429
 21
2354.24
  0
LINE
  8
0
 10
37.3429
 20
2354.24
 11
37.1489
 21
2354.84
  0
LINE
  8
0
 10
37.1489
 20
2354.84
 11
36.8815
 21
2355.41
  0
LINE
  8
0
 10
36.8815
 20
2355.41
 11
36.5451
 21
2355.94
  0
LINE
  8
0
 10
36.5451
 20
2355.94
 11
36.1448
 21
2356.42
  0
LINE
  8
0
 10
36.1448
 20
2356.42
 11
35.6871
 21
2356.85
  0
LINE
  8
0
 10
35.6871
 20
2356.85
 11
35.1791
 21
2357.22
  0
LINE
  8
0
 10
35.1791
 20
2357.22
 11
34.6289
 21
2357.52
  0
LINE
  8
0
 10
34.6289
 20
2357.52
 11
34.0451
 21
2357.76
  0
LINE
  8
0
 10
34.0451
 20
2357.76
 11
33.4369
 21
2357.91
  0
LINE
  8
0
 10
33.4369
 20
2357.91
 11
32.8139
 21
2357.99
  0
LINE
  8
0
 10
32.8139
 20
2357.99
 11
-32.8139
 21
2357.99
  0
LINE
  8
0
 10
-32.8139
 20
2357.99
 11
-33.4369
 21
2357.91
  0
LINE
  8
0
 10
-33.4369
 20
2357.91
 11
-34.0451
 21
2357.76
  0
LINE
  8
0
 10
-34.0451
 20
2357.76
 11
-34.6289
 21
2357.52
  0
LINE
  8
0
 10
-34.6289
 20
2357.52
 11
-35.1791
 21
2357.22
  0
LINE
  8
0
 10
-35.1791
 20
2357.22
 11
-35.6871
 21
2356.85
  0
LINE
  8
0
 10
-35.6871
 20
2356.85
 11
-36.1448
 21
2356.42
  0
LINE
  8
0
 10
-36.1448
 20
2356.42
 11
-36.5451
 21
2355.94
  0
LINE
  8
0
 10
-36.5451
 20
2355.94
 11
-36.8815
 21
2355.41
  0
LINE
  8
0
 10
-36.8815
 20
2355.41
 11
-37.1489
 21
2354.84
  0
LINE
  8
0
 10
-37.1489
 20
2354.84
 11
-37.3429
 21
2354.24
  0
LINE
  8
0
 10
-37.3429
 20
2354.24
 11
-37.4606
 21
2353.63
  0
LINE
  8
0
 10
-37.4606
 20
2353.63
 11
-37.5
 21
2353
  0
LINE
  8
0
 10
-37.5
 20
2353
 11
-37.5
 21
2183
  0
LINE
  8
0
 10
-37.5
 20
2183
 11
-37.4606
 21
2182.37
  0
LINE
  8
0
 10
-37.4606
 20
2182.37
 11
-37.3429
 21
2181.76
  0
LINE
  8
0
 10
-37.3429
 20
2181.76
 11
-37.1489
 21
2181.16
  0
LINE
  8
0
 10
-37.1489
 20
2181.16
 11
-36.8815
 21
2180.59
  0
LINE
  8
0
 10
-36.8815
 20
2180.59
 11
-36.5451
 21
2180.06
  0
LINE
  8
0
 10
-36.5451
 20
2180.06
 11
-36.1448
 21
2179.58
  0
LINE
  8
0
 10
-36.1448
 20
2179.58
 11
-35.6871
 21
2179.15
  0
LINE
  8
0
 10
-35.6871
 20
2179.15
 11
-35.1791
 21
2178.78
  0
LINE
  8
0
 10
-35.1791
 20
2178.78
 11
-34.6289
 21
2178.48
  0
LINE
  8
0
 10
-34.6289
 20
2178.48
 11
-34.0451
 21
2178.24
  0
LINE
  8
0
 10
-34.0451
 20
2178.24
 11
-33.4369
 21
2178.09
  0
LINE
  8
0
 10
-33.4369
 20
2178.09
 11
-32.8139
 21
2178.01
  0
LINE
  8
0
 10
-32.8139
 20
2178.01
 11
32.8139
 21
2178.01
  0
LINE
  8
0
 10
32.8139
 20
2178.01
 11
33.4369
 21
2178.09
  0
LINE
  8
0
 10
-32.2512
 20
2179.51
 11
-32.7495
 21
2179.57
  0
LINE
  8
0
 10
-32.7495
 20
2179.57
 11
-33.2361
 21
2179.7
  0
LINE
  8
0
 10
-33.2361
 20
2179.7
 11
-33.7031
 21
2179.88
  0
LINE
  8
0
 10
-33.7031
 20
2179.88
 11
-34.1433
 21
2180.12
  0
LINE
  8
0
 10
-34.1433
 20
2180.12
 11
-34.5497
 21
2180.42
  0
LINE
  8
0
 10
-34.5497
 20
2180.42
 11
-34.9159
 21
2180.76
  0
LINE
  8
0
 10
-34.9159
 20
2180.76
 11
-35.2361
 21
2181.15
  0
LINE
  8
0
 10
-35.2361
 20
2181.15
 11
-35.5052
 21
2181.57
  0
LINE
  8
0
 10
-35.5052
 20
2181.57
 11
-35.7191
 21
2182.03
  0
LINE
  8
0
 10
-35.7191
 20
2182.03
 11
-35.8743
 21
2182.51
  0
LINE
  8
0
 10
-35.8743
 20
2182.51
 11
-35.9685
 21
2183
  0
LINE
  8
0
 10
-35.9685
 20
2183
 11
-36
 21
2183.5
  0
LINE
  8
0
 10
-36
 20
2183.5
 11
-36
 21
2352.5
  0
LINE
  8
0
 10
-36
 20
2352.5
 11
-35.9685
 21
2353
  0
LINE
  8
0
 10
-35.9685
 20
2353
 11
-35.8743
 21
2353.49
  0
LINE
  8
0
 10
-35.8743
 20
2353.49
 11
-35.7191
 21
2353.97
  0
LINE
  8
0
 10
-35.7191
 20
2353.97
 11
-35.5052
 21
2354.43
  0
LINE
  8
0
 10
-35.5052
 20
2354.43
 11
-35.2361
 21
2354.85
  0
LINE
  8
0
 10
-35.2361
 20
2354.85
 11
-34.9159
 21
2355.24
  0
LINE
  8
0
 10
-34.9159
 20
2355.24
 11
-34.5497
 21
2355.58
  0
LINE
  8
0
 10
-34.5497
 20
2355.58
 11
-34.1433
 21
2355.88
  0
LINE
  8
0
 10
-34.1433
 20
2355.88
 11
-33.7031
 21
2356.12
  0
LINE
  8
0
 10
-33.7031
 20
2356.12
 11
-33.2361
 21
2356.3
  0
LINE
  8
0
 10
-33.2361
 20
2356.3
 11
-32.7495
 21
2356.43
  0
LINE
  8
0
 10
-32.7495
 20
2356.43
 11
-32.2512
 21
2356.49
  0
LINE
  8
0
 10
-32.2512
 20
2356.49
 11
32.2512
 21
2356.49
  0
LINE
  8
0
 10
32.2512
 20
2356.49
 11
32.7495
 21
2356.43
  0
LINE
  8
0
 10
32.7495
 20
2356.43
 11
33.2361
 21
2356.3
  0
LINE
  8
0
 10
33.2361
 20
2356.3
 11
33.7031
 21
2356.12
  0
LINE
  8
0
 10
33.7031
 20
2356.12
 11
34.1433
 21
2355.88
  0
LINE
  8
0
 10
34.1433
 20
2355.88
 11
34.5497
 21
2355.58
  0
LINE
  8
0
 10
34.5497
 20
2355.58
 11
34.9159
 21
2355.24
  0
LINE
  8
0
 10
34.9159
 20
2355.24
 11
35.2361
 21
2354.85
  0
LINE
  8
0
 10
35.2361
 20
2354.85
 11
35.5052
 21
2354.43
  0
LINE
  8
0
 10
35.5052
 20
2354.43
 11
35.7191
 21
2353.97
  0
LINE
  8
0
 10
35.7191
 20
2353.97
 11
35.8743
 21
2353.49
  0
LINE
  8
0
 10
35.8743
 20
2353.49
 11
35.9685
 21
2353
  0
LINE
  8
0
 10
35.9685
 20
2353
 11
36
 21
2352.5
  0
LINE
  8
0
 10
36
 20
2352.5
 11
36
 21
2183.5
  0
LINE
  8
0
 10
36
 20
2183.5
 11
35.9685
 21
2183
  0
LINE
  8
0
 10
35.9685
 20
2183
 11
35.8743
 21
2182.51
  0
LINE
  8
0
 10
35.8743
 20
2182.51
 11
35.7191
 21
2182.03
  0
LINE
  8
0
 10
35.7191
 20
2182.03
 11
35.5052
 21
2181.57
  0
LINE
  8
0
 10
35.5052
 20
2181.57
 11
35.2361
 21
2181.15
  0
LINE
  8
0
 10
35.2361
 20
2181.15
 11
34.9159
 21
2180.76
  0
LINE
  8
0
 10
34.9159
 20
2180.76
 11
34.5497
 21
2180.42
  0
LINE
  8
0
 10
34.5497
 20
2180.42
 11
34.1433
 21
2180.12
  0
LINE
  8
0
 10
34.1433
 20
2180.12
 11
33.7031
 21
2179.88
  0
LINE
  8
0
 10
33.7031
 20
2179.88
 11
33.2361
 21
2179.7
  0
LINE
  8
0
 10
33.2361
 20
2179.7
 11
32.7495
 21
2179.57
  0
LINE
  8
0
 10
32.7495
 20
2179.57
 11
32.2512
 21
2179.51
  0
LINE
  8
0
 10
32.2512
 20
2179.51
 11
-32.2512
 21
2179.51
  0
LINE
  8
0
 10
33.4369
 20
1989.09
 11
34.0451
 21
1989.24
  0
LINE
  8
0
 10
34.0451
 20
1989.24
 11
34.6289
 21
1989.48
  0
LINE
  8
0
 10
34.6289
 20
1989.48
 11
35.1791
 21
1989.78
  0
LINE
  8
0
 10
35.1791
 20
1989.78
 11
35.6871
 21
1990.15
  0
LINE
  8
0
 10
35.6871
 20
1990.15
 11
36.1448
 21
1990.58
  0
LINE
  8
0
 10
36.1448
 20
1990.58
 11
36.5451
 21
1991.06
  0
LINE
  8
0
 10
36.5451
 20
1991.06
 11
36.8815
 21
1991.59
  0
LINE
  8
0
 10
36.8815
 20
1991.59
 11
37.1489
 21
1992.16
  0
LINE
  8
0
 10
37.1489
 20
1992.16
 11
37.3429
 21
1992.76
  0
LINE
  8
0
 10
37.3429
 20
1992.76
 11
37.4606
 21
1993.37
  0
LINE
  8
0
 10
37.4606
 20
1993.37
 11
37.5
 21
1994
  0
LINE
  8
0
 10
37.5
 20
1994
 11
37.5
 21
2164
  0
LINE
  8
0
 10
37.5
 20
2164
 11
37.4606
 21
2164.63
  0
LINE
  8
0
 10
37.4606
 20
2164.63
 11
37.3429
 21
2165.24
  0
LINE
  8
0
 10
37.3429
 20
2165.24
 11
37.1489
 21
2165.84
  0
LINE
  8
0
 10
37.1489
 20
2165.84
 11
36.8815
 21
2166.41
  0
LINE
  8
0
 10
36.8815
 20
2166.41
 11
36.5451
 21
2166.94
  0
LINE
  8
0
 10
36.5451
 20
2166.94
 11
36.1448
 21
2167.42
  0
LINE
  8
0
 10
36.1448
 20
2167.42
 11
35.6871
 21
2167.85
  0
LINE
  8
0
 10
35.6871
 20
2167.85
 11
35.1791
 21
2168.22
  0
LINE
  8
0
 10
35.1791
 20
2168.22
 11
34.6289
 21
2168.52
  0
LINE
  8
0
 10
34.6289
 20
2168.52
 11
34.0451
 21
2168.76
  0
LINE
  8
0
 10
34.0451
 20
2168.76
 11
33.4369
 21
2168.91
  0
LINE
  8
0
 10
33.4369
 20
2168.91
 11
32.8139
 21
2168.99
  0
LINE
  8
0
 10
32.8139
 20
2168.99
 11
-32.8139
 21
2168.99
  0
LINE
  8
0
 10
-32.8139
 20
2168.99
 11
-33.4369
 21
2168.91
  0
LINE
  8
0
 10
-33.4369
 20
2168.91
 11
-34.0451
 21
2168.76
  0
LINE
  8
0
 10
-34.0451
 20
2168.76
 11
-34.6289
 21
2168.52
  0
LINE
  8
0
 10
-34.6289
 20
2168.52
 11
-35.1791
 21
2168.22
  0
LINE
  8
0
 10
-35.1791
 20
2168.22
 11
-35.6871
 21
2167.85
  0
LINE
  8
0
 10
-35.6871
 20
2167.85
 11
-36.1448
 21
2167.42
  0
LINE
  8
0
 10
-36.1448
 20
2167.42
 11
-36.5451
 21
2166.94
  0
LINE
  8
0
 10
-36.5451
 20
2166.94
 11
-36.8815
 21
2166.41
  0
LINE
  8
0
 10
-36.8815
 20
2166.41
 11
-37.1489
 21
2165.84
  0
LINE
  8
0
 10
-37.1489
 20
2165.84
 11
-37.3429
 21
2165.24
  0
LINE
  8
0
 10
-37.3429
 20
2165.24
 11
-37.4606
 21
2164.63
  0
LINE
  8
0
 10
-37.4606
 20
2164.63
 11
-37.5
 21
2164
  0
LINE
  8
0
 10
-37.5
 20
2164
 11
-37.5
 21
1994
  0
LINE
  8
0
 10
-37.5
 20
1994
 11
-37.4606
 21
1993.37
  0
LINE
  8
0
 10
-37.4606
 20
1993.37
 11
-37.3429
 21
1992.76
  0
LINE
  8
0
 10
-37.3429
 20
1992.76
 11
-37.1489
 21
1992.16
  0
LINE
  8
0
 10
-37.1489
 20
1992.16
 11
-36.8815
 21
1991.59
  0
LINE
  8
0
 10
-36.8815
 20
1991.59
 11
-36.5451
 21
1991.06
  0
LINE
  8
0
 10
-36.5451
 20
1991.06
 11
-36.1448
 21
1990.58
  0
LINE
  8
0
 10
-36.1448
 20
1990.58
 11
-35.6871
 21
1990.15
  0
LINE
  8
0
 10
-35.6871
 20
1990.15
 11
-35.1791
 21
1989.78
  0
LINE
  8
0
 10
-35.1791
 20
1989.78
 11
-34.6289
 21
1989.48
  0
LINE
  8
0
 10
-34.6289
 20
1989.48
 11
-34.0451
 21
1989.24
  0
LINE
  8
0
 10
-34.0451
 20
1989.24
 11
-33.4369
 21
1989.09
  0
LINE
  8
0
 10
-33.4369
 20
1989.09
 11
-32.8139
 21
1989.01
  0
LINE
  8
0
 10
-32.8139
 20
1989.01
 11
32.8139
 21
1989.01
  0
LINE
  8
0
 10
32.8139
 20
1989.01
 11
33.4369
 21
1989.09
  0
LINE
  8
0
 10
-32.1954
 20
1991.39
 11
-32.5833
 21
1991.44
  0
LINE
  8
0
 10
-32.5833
 20
1991.44
 11
-32.9619
 21
1991.54
  0
LINE
  8
0
 10
-32.9619
 20
1991.54
 11
-33.3254
 21
1991.68
  0
LINE
  8
0
 10
-33.3254
 20
1991.68
 11
-33.668
 21
1991.87
  0
LINE
  8
0
 10
-33.668
 20
1991.87
 11
-33.9842
 21
1992.1
  0
LINE
  8
0
 10
-33.9842
 20
1992.1
 11
-34.2692
 21
1992.37
  0
LINE
  8
0
 10
-34.2692
 20
1992.37
 11
-34.5184
 21
1992.67
  0
LINE
  8
0
 10
-34.5184
 20
1992.67
 11
-34.7279
 21
1993
  0
LINE
  8
0
 10
-34.7279
 20
1993
 11
-34.8943
 21
1993.35
  0
LINE
  8
0
 10
-34.8943
 20
1993.35
 11
-35.0151
 21
1993.73
  0
LINE
  8
0
 10
-35.0151
 20
1993.73
 11
-35.0884
 21
1994.11
  0
LINE
  8
0
 10
-35.0884
 20
1994.11
 11
-35.1129
 21
1994.5
  0
LINE
  8
0
 10
-35.1129
 20
1994.5
 11
-35.1129
 21
2163.5
  0
LINE
  8
0
 10
-35.1129
 20
2163.5
 11
-35.0884
 21
2163.89
  0
LINE
  8
0
 10
-35.0884
 20
2163.89
 11
-35.0151
 21
2164.27
  0
LINE
  8
0
 10
-35.0151
 20
2164.27
 11
-34.8943
 21
2164.65
  0
LINE
  8
0
 10
-34.8943
 20
2164.65
 11
-34.7279
 21
2165
  0
LINE
  8
0
 10
-34.7279
 20
2165
 11
-34.5184
 21
2165.33
  0
LINE
  8
0
 10
-34.5184
 20
2165.33
 11
-34.2692
 21
2165.63
  0
LINE
  8
0
 10
-34.2692
 20
2165.63
 11
-33.9842
 21
2165.9
  0
LINE
  8
0
 10
-33.9842
 20
2165.9
 11
-33.668
 21
2166.13
  0
LINE
  8
0
 10
-33.668
 20
2166.13
 11
-33.3254
 21
2166.32
  0
LINE
  8
0
 10
-33.3254
 20
2166.32
 11
-32.9619
 21
2166.46
  0
LINE
  8
0
 10
-32.9619
 20
2166.46
 11
-32.5833
 21
2166.56
  0
LINE
  8
0
 10
-32.5833
 20
2166.56
 11
-32.1954
 21
2166.61
  0
LINE
  8
0
 10
-32.1954
 20
2166.61
 11
32.1954
 21
2166.61
  0
LINE
  8
0
 10
32.1954
 20
2166.61
 11
32.5833
 21
2166.56
  0
LINE
  8
0
 10
32.5833
 20
2166.56
 11
32.9619
 21
2166.46
  0
LINE
  8
0
 10
32.9619
 20
2166.46
 11
33.3254
 21
2166.32
  0
LINE
  8
0
 10
33.3254
 20
2166.32
 11
33.668
 21
2166.13
  0
LINE
  8
0
 10
33.668
 20
2166.13
 11
33.9842
 21
2165.9
  0
LINE
  8
0
 10
33.9842
 20
2165.9
 11
34.2692
 21
2165.63
  0
LINE
  8
0
 10
34.2692
 20
2165.63
 11
34.5184
 21
2165.33
  0
LINE
  8
0
 10
34.5184
 20
2165.33
 11
34.7279
 21
2165
  0
LINE
  8
0
 10
34.7279
 20
2165
 11
34.8943
 21
2164.65
  0
LINE
  8
0
 10
34.8943
 20
2164.65
 11
35.0151
 21
2164.27
  0
LINE
  8
0
 10
35.0151
 20
2164.27
 11
35.0884
 21
2163.89
  0
LINE
  8
0
 10
35.0884
 20
2163.89
 11
35.1129
 21
2163.5
  0
LINE
  8
0
 10
35.1129
 20
2163.5
 11
35.1129
 21
1994.5
  0
LINE
  8
0
 10
35.1129
 20
1994.5
 11
35.0884
 21
1994.11
  0
LINE
  8
0
 10
35.0884
 20
1994.11
 11
35.0151
 21
1993.73
  0
LINE
  8
0
 10
35.0151
 20
1993.73
 11
34.8943
 21
1993.35
  0
LINE
  8
0
 10
34.8943
 20
1993.35
 11
34.7279
 21
1993
  0
LINE
  8
0
 10
34.7279
 20
1993
 11
34.5184
 21
1992.67
  0
LINE
  8
0
 10
34.5184
 20
1992.67
 11
34.2692
 21
1992.37
  0
LINE
  8
0
 10
34.2692
 20
1992.37
 11
33.9842
 21
1992.1
  0
LINE
  8
0
 10
33.9842
 20
1992.1
 11
33.668
 21
1991.87
  0
LINE
  8
0
 10
33.668
 20
1991.87
 11
33.3254
 21
1991.68
  0
LINE
  8
0
 10
33.3254
 20
1991.68
 11
32.9619
 21
1991.54
  0
LINE
  8
0
 10
32.9619
 20
1991.54
 11
32.5833
 21
1991.44
  0
LINE
  8
0
 10
32.5833
 20
1991.44
 11
32.1954
 21
1991.39
  0
LINE
  8
0
 10
32.1954
 20
1991.39
 11
-32.1954
 21
1991.39
  0
LINE
  8
0
 10
33.4369
 20
1800.09
 11
34.0451
 21
1800.24
  0
LINE
  8
0
 10
34.0451
 20
1800.24
 11
34.6289
 21
1800.48
  0
LINE
  8
0
 10
34.6289
 20
1800.48
 11
35.1791
 21
1800.78
  0
LINE
  8
0
 10
35.1791
 20
1800.78
 11
35.6871
 21
1801.15
  0
LINE
  8
0
 10
35.6871
 20
1801.15
 11
36.1448
 21
1801.58
  0
LINE
  8
0
 10
36.1448
 20
1801.58
 11
36.5451
 21
1802.06
  0
LINE
  8
0
 10
36.5451
 20
1802.06
 11
36.8815
 21
1802.59
  0
LINE
  8
0
 10
36.8815
 20
1802.59
 11
37.1489
 21
1803.16
  0
LINE
  8
0
 10
37.1489
 20
1803.16
 11
37.3429
 21
1803.76
  0
LINE
  8
0
 10
37.3429
 20
1803.76
 11
37.4606
 21
1804.37
  0
LINE
  8
0
 10
37.4606
 20
1804.37
 11
37.5
 21
1805
  0
LINE
  8
0
 10
37.5
 20
1805
 11
37.5
 21
1975
  0
LINE
  8
0
 10
37.5
 20
1975
 11
37.4606
 21
1975.63
  0
LINE
  8
0
 10
37.4606
 20
1975.63
 11
37.3429
 21
1976.24
  0
LINE
  8
0
 10
37.3429
 20
1976.24
 11
37.1489
 21
1976.84
  0
LINE
  8
0
 10
37.1489
 20
1976.84
 11
36.8815
 21
1977.41
  0
LINE
  8
0
 10
36.8815
 20
1977.41
 11
36.5451
 21
1977.94
  0
LINE
  8
0
 10
36.5451
 20
1977.94
 11
36.1448
 21
1978.42
  0
LINE
  8
0
 10
36.1448
 20
1978.42
 11
35.6871
 21
1978.85
  0
LINE
  8
0
 10
35.6871
 20
1978.85
 11
35.1791
 21
1979.22
  0
LINE
  8
0
 10
35.1791
 20
1979.22
 11
34.6289
 21
1979.52
  0
LINE
  8
0
 10
34.6289
 20
1979.52
 11
34.0451
 21
1979.76
  0
LINE
  8
0
 10
34.0451
 20
1979.76
 11
33.4369
 21
1979.91
  0
LINE
  8
0
 10
33.4369
 20
1979.91
 11
32.8139
 21
1979.99
  0
LINE
  8
0
 10
32.8139
 20
1979.99
 11
-32.8139
 21
1979.99
  0
LINE
  8
0
 10
-32.8139
 20
1979.99
 11
-33.4369
 21
1979.91
  0
LINE
  8
0
 10
-33.4369
 20
1979.91
 11
-34.0451
 21
1979.76
  0
LINE
  8
0
 10
-34.0451
 20
1979.76
 11
-34.6289
 21
1979.52
  0
LINE
  8
0
 10
-34.6289
 20
1979.52
 11
-35.1791
 21
1979.22
  0
LINE
  8
0
 10
-35.1791
 20
1979.22
 11
-35.6871
 21
1978.85
  0
LINE
  8
0
 10
-35.6871
 20
1978.85
 11
-36.1448
 21
1978.42
  0
LINE
  8
0
 10
-36.1448
 20
1978.42
 11
-36.5451
 21
1977.94
  0
LINE
  8
0
 10
-36.5451
 20
1977.94
 11
-36.8815
 21
1977.41
  0
LINE
  8
0
 10
-36.8815
 20
1977.41
 11
-37.1489
 21
1976.84
  0
LINE
  8
0
 10
-37.1489
 20
1976.84
 11
-37.3429
 21
1976.24
  0
LINE
  8
0
 10
-37.3429
 20
1976.24
 11
-37.4606
 21
1975.63
  0
LINE
  8
0
 10
-37.4606
 20
1975.63
 11
-37.5
 21
1975
  0
LINE
  8
0
 10
-37.5
 20
1975
 11
-37.5
 21
1805
  0
LINE
  8
0
 10
-37.5
 20
1805
 11
-37.4606
 21
1804.37
  0
LINE
  8
0
 10
-37.4606
 20
1804.37
 11
-37.3429
 21
1803.76
  0
LINE
  8
0
 10
-37.3429
 20
1803.76
 11
-37.1489
 21
1803.16
  0
LINE
  8
0
 10
-37.1489
 20
1803.16
 11
-36.8815
 21
1802.59
  0
LINE
  8
0
 10
-36.8815
 20
1802.59
 11
-36.5451
 21
1802.06
  0
LINE
  8
0
 10
-36.5451
 20
1802.06
 11
-36.1448
 21
1801.58
  0
LINE
  8
0
 10
-36.1448
 20
1801.58
 11
-35.6871
 21
1801.15
  0
LINE
  8
0
 10
-35.6871
 20
1801.15
 11
-35.1791
 21
1800.78
  0
LINE
  8
0
 10
-35.1791
 20
1800.78
 11
-34.6289
 21
1800.48
  0
LINE
  8
0
 10
-34.6289
 20
1800.48
 11
-34.0451
 21
1800.24
  0
LINE
  8
0
 10
-34.0451
 20
1800.24
 11
-33.4369
 21
1800.09
  0
LINE
  8
0
 10
-33.4369
 20
1800.09
 11
-32.8139
 21
1800.01
  0
LINE
  8
0
 10
-32.8139
 20
1800.01
 11
32.8139
 21
1800.01
  0
LINE
  8
0
 10
32.8139
 20
1800.01
 11
33.4369
 21
1800.09
  0
LINE
  8
0
 10
-30.1341
 20
1970.37
 11
-30.4001
 21
1970.4
  0
LINE
  8
0
 10
-30.4001
 20
1970.4
 11
-30.6598
 21
1970.47
  0
LINE
  8
0
 10
-30.6598
 20
1970.47
 11
-30.9091
 21
1970.57
  0
LINE
  8
0
 10
-30.9091
 20
1970.57
 11
-31.1441
 21
1970.7
  0
LINE
  8
0
 10
-31.1441
 20
1970.7
 11
-31.3611
 21
1970.85
  0
LINE
  8
0
 10
-31.3611
 20
1970.85
 11
-31.5565
 21
1971.04
  0
LINE
  8
0
 10
-31.5565
 20
1971.04
 11
-31.7275
 21
1971.24
  0
LINE
  8
0
 10
-31.7275
 20
1971.24
 11
-31.8712
 21
1971.47
  0
LINE
  8
0
 10
-31.8712
 20
1971.47
 11
-31.9853
 21
1971.71
  0
LINE
  8
0
 10
-31.9853
 20
1971.71
 11
-32.0682
 21
1971.97
  0
LINE
  8
0
 10
-32.0682
 20
1971.97
 11
-32.1185
 21
1972.23
  0
LINE
  8
0
 10
-32.1185
 20
1972.23
 11
-32.1353
 21
1972.5
  0
LINE
  8
0
 10
-32.1353
 20
1972.5
 11
-32.1185
 21
1972.77
  0
LINE
  8
0
 10
-32.1185
 20
1972.77
 11
-32.0682
 21
1973.03
  0
LINE
  8
0
 10
-32.0682
 20
1973.03
 11
-31.9853
 21
1973.29
  0
LINE
  8
0
 10
-31.9853
 20
1973.29
 11
-31.8712
 21
1973.53
  0
LINE
  8
0
 10
-31.8712
 20
1973.53
 11
-31.7275
 21
1973.76
  0
LINE
  8
0
 10
-31.7275
 20
1973.76
 11
-31.5565
 21
1973.96
  0
LINE
  8
0
 10
-31.5565
 20
1973.96
 11
-31.3611
 21
1974.15
  0
LINE
  8
0
 10
-31.3611
 20
1974.15
 11
-31.1441
 21
1974.3
  0
LINE
  8
0
 10
-31.1441
 20
1974.3
 11
-30.9091
 21
1974.43
  0
LINE
  8
0
 10
-30.9091
 20
1974.43
 11
-30.6598
 21
1974.53
  0
LINE
  8
0
 10
-30.6598
 20
1974.53
 11
-30.4001
 21
1974.6
  0
LINE
  8
0
 10
-30.4001
 20
1974.6
 11
-30.1341
 21
1974.63
  0
LINE
  8
0
 10
-30.1341
 20
1974.63
 11
-29.8659
 21
1974.63
  0
LINE
  8
0
 10
-29.8659
 20
1974.63
 11
-29.5999
 21
1974.6
  0
LINE
  8
0
 10
-29.5999
 20
1974.6
 11
-29.3401
 21
1974.53
  0
LINE
  8
0
 10
-29.3401
 20
1974.53
 11
-29.0908
 21
1974.43
  0
LINE
  8
0
 10
-29.0908
 20
1974.43
 11
-28.8559
 21
1974.3
  0
LINE
  8
0
 10
-28.8559
 20
1974.3
 11
-28.6389
 21
1974.15
  0
LINE
  8
0
 10
-28.6389
 20
1974.15
 11
-28.4434
 21
1973.96
  0
LINE
  8
0
 10
-28.4434
 20
1973.96
 11
-28.2725
 21
1973.76
  0
LINE
  8
0
 10
-28.2725
 20
1973.76
 11
-28.1288
 21
1973.53
  0
LINE
  8
0
 10
-28.1288
 20
1973.53
 11
-28.0146
 21
1973.29
  0
LINE
  8
0
 10
-28.0146
 20
1973.29
 11
-27.9318
 21
1973.03
  0
LINE
  8
0
 10
-27.9318
 20
1973.03
 11
-27.8815
 21
1972.77
  0
LINE
  8
0
 10
-27.8815
 20
1972.77
 11
-27.8647
 21
1972.5
  0
LINE
  8
0
 10
-27.8647
 20
1972.5
 11
-27.8815
 21
1972.23
  0
LINE
  8
0
 10
-27.8815
 20
1972.23
 11
-27.9318
 21
1971.97
  0
LINE
  8
0
 10
-27.9318
 20
1971.97
 11
-28.0146
 21
1971.71
  0
LINE
  8
0
 10
-28.0146
 20
1971.71
 11
-28.1288
 21
1971.47
  0
LINE
  8
0
 10
-28.1288
 20
1971.47
 11
-28.2725
 21
1971.24
  0
LINE
  8
0
 10
-28.2725
 20
1971.24
 11
-28.4434
 21
1971.04
  0
LINE
  8
0
 10
-28.4434
 20
1971.04
 11
-28.6389
 21
1970.85
  0
LINE
  8
0
 10
-28.6389
 20
1970.85
 11
-28.8559
 21
1970.7
  0
LINE
  8
0
 10
-28.8559
 20
1970.7
 11
-29.0908
 21
1970.57
  0
LINE
  8
0
 10
-29.0908
 20
1970.57
 11
-29.3401
 21
1970.47
  0
LINE
  8
0
 10
-29.3401
 20
1970.47
 11
-29.5999
 21
1970.4
  0
LINE
  8
0
 10
-29.5999
 20
1970.4
 11
-29.8659
 21
1970.37
  0
LINE
  8
0
 10
-29.8659
 20
1970.37
 11
-30.1341
 21
1970.37
  0
LINE
  8
0
 10
29.8659
 20
1970.37
 11
29.5999
 21
1970.4
  0
LINE
  8
0
 10
29.5999
 20
1970.4
 11
29.3401
 21
1970.47
  0
LINE
  8
0
 10
29.3401
 20
1970.47
 11
29.0908
 21
1970.57
  0
LINE
  8
0
 10
29.0908
 20
1970.57
 11
28.8559
 21
1970.7
  0
LINE
  8
0
 10
28.8559
 20
1970.7
 11
28.6389
 21
1970.85
  0
LINE
  8
0
 10
28.6389
 20
1970.85
 11
28.4434
 21
1971.04
  0
LINE
  8
0
 10
28.4434
 20
1971.04
 11
28.2725
 21
1971.24
  0
LINE
  8
0
 10
28.2725
 20
1971.24
 11
28.1288
 21
1971.47
  0
LINE
  8
0
 10
28.1288
 20
1971.47
 11
28.0146
 21
1971.71
  0
LINE
  8
0
 10
28.0146
 20
1971.71
 11
27.9318
 21
1971.97
  0
LINE
  8
0
 10
27.9318
 20
1971.97
 11
27.8815
 21
1972.23
  0
LINE
  8
0
 10
27.8815
 20
1972.23
 11
27.8647
 21
1972.5
  0
LINE
  8
0
 10
27.8647
 20
1972.5
 11
27.8815
 21
1972.77
  0
LINE
  8
0
 10
27.8815
 20
1972.77
 11
27.9318
 21
1973.03
  0
LINE
  8
0
 10
27.9318
 20
1973.03
 11
28.0146
 21
1973.29
  0
LINE
  8
0
 10
28.0146
 20
1973.29
 11
28.1288
 21
1973.53
  0
LINE
  8
0
 10
28.1288
 20
1973.53
 11
28.2725
 21
1973.76
  0
LINE
  8
0
 10
28.2725
 20
1973.76
 11
28.4434
 21
1973.96
  0
LINE
  8
0
 10
28.4434
 20
1973.96
 11
28.6389
 21
1974.15
  0
LINE
  8
0
 10
28.6389
 20
1974.15
 11
28.8559
 21
1974.3
  0
LINE
  8
0
 10
28.8559
 20
1974.3
 11
29.0908
 21
1974.43
  0
LINE
  8
0
 10
29.0908
 20
1974.43
 11
29.3401
 21
1974.53
  0
LINE
  8
0
 10
29.3401
 20
1974.53
 11
29.5999
 21
1974.6
  0
LINE
  8
0
 10
29.5999
 20
1974.6
 11
29.8659
 21
1974.63
  0
LINE
  8
0
 10
29.8659
 20
1974.63
 11
30.1341
 21
1974.63
  0
LINE
  8
0
 10
30.1341
 20
1974.63
 11
30.4001
 21
1974.6
  0
LINE
  8
0
 10
30.4001
 20
1974.6
 11
30.6598
 21
1974.53
  0
LINE
  8
0
 10
30.6598
 20
1974.53
 11
30.9091
 21
1974.43
  0
LINE
  8
0
 10
30.9091
 20
1974.43
 11
31.1441
 21
1974.3
  0
LINE
  8
0
 10
31.1441
 20
1974.3
 11
31.3611
 21
1974.15
  0
LINE
  8
0
 10
31.3611
 20
1974.15
 11
31.5565
 21
1973.96
  0
LINE
  8
0
 10
31.5565
 20
1973.96
 11
31.7275
 21
1973.76
  0
LINE
  8
0
 10
31.7275
 20
1973.76
 11
31.8712
 21
1973.53
  0
LINE
  8
0
 10
31.8712
 20
1973.53
 11
31.9853
 21
1973.29
  0
LINE
  8
0
 10
31.9853
 20
1973.29
 11
32.0682
 21
1973.03
  0
LINE
  8
0
 10
32.0682
 20
1973.03
 11
32.1185
 21
1972.77
  0
LINE
  8
0
 10
32.1185
 20
1972.77
 11
32.1353
 21
1972.5
  0
LINE
  8
0
 10
32.1353
 20
1972.5
 11
32.1185
 21
1972.23
  0
LINE
  8
0
 10
32.1185
 20
1972.23
 11
32.0682
 21
1971.97
  0
LINE
  8
0
 10
32.0682
 20
1971.97
 11
31.9853
 21
1971.71
  0
LINE
  8
0
 10
31.9853
 20
1971.71
 11
31.8712
 21
1971.47
  0
LINE
  8
0
 10
31.8712
 20
1971.47
 11
31.7275
 21
1971.24
  0
LINE
  8
0
 10
31.7275
 20
1971.24
 11
31.5565
 21
1971.04
  0
LINE
  8
0
 10
31.5565
 20
1971.04
 11
31.3611
 21
1970.85
  0
LINE
  8
0
 10
31.3611
 20
1970.85
 11
31.1441
 21
1970.7
  0
LINE
  8
0
 10
31.1441
 20
1970.7
 11
30.9091
 21
1970.57
  0
LINE
  8
0
 10
30.9091
 20
1970.57
 11
30.6598
 21
1970.47
  0
LINE
  8
0
 10
30.6598
 20
1970.47
 11
30.4001
 21
1970.4
  0
LINE
  8
0
 10
30.4001
 20
1970.4
 11
30.1341
 21
1970.37
  0
LINE
  8
0
 10
30.1341
 20
1970.37
 11
29.8659
 21
1970.37
  0
LINE
  8
0
 10
-30.1341
 20
1805.37
 11
-30.4001
 21
1805.4
  0
LINE
  8
0
 10
-30.4001
 20
1805.4
 11
-30.6598
 21
1805.47
  0
LINE
  8
0
 10
-30.6598
 20
1805.47
 11
-30.9091
 21
1805.57
  0
LINE
  8
0
 10
-30.9091
 20
1805.57
 11
-31.1441
 21
1805.7
  0
LINE
  8
0
 10
-31.1441
 20
1805.7
 11
-31.3611
 21
1805.85
  0
LINE
  8
0
 10
-31.3611
 20
1805.85
 11
-31.5565
 21
1806.04
  0
LINE
  8
0
 10
-31.5565
 20
1806.04
 11
-31.7275
 21
1806.24
  0
LINE
  8
0
 10
-31.7275
 20
1806.24
 11
-31.8712
 21
1806.47
  0
LINE
  8
0
 10
-31.8712
 20
1806.47
 11
-31.9853
 21
1806.71
  0
LINE
  8
0
 10
-31.9853
 20
1806.71
 11
-32.0682
 21
1806.97
  0
LINE
  8
0
 10
-32.0682
 20
1806.97
 11
-32.1185
 21
1807.23
  0
LINE
  8
0
 10
-32.1185
 20
1807.23
 11
-32.1353
 21
1807.5
  0
LINE
  8
0
 10
-32.1353
 20
1807.5
 11
-32.1185
 21
1807.77
  0
LINE
  8
0
 10
-32.1185
 20
1807.77
 11
-32.0682
 21
1808.03
  0
LINE
  8
0
 10
-32.0682
 20
1808.03
 11
-31.9853
 21
1808.29
  0
LINE
  8
0
 10
-31.9853
 20
1808.29
 11
-31.8712
 21
1808.53
  0
LINE
  8
0
 10
-31.8712
 20
1808.53
 11
-31.7275
 21
1808.76
  0
LINE
  8
0
 10
-31.7275
 20
1808.76
 11
-31.5565
 21
1808.96
  0
LINE
  8
0
 10
-31.5565
 20
1808.96
 11
-31.3611
 21
1809.15
  0
LINE
  8
0
 10
-31.3611
 20
1809.15
 11
-31.1441
 21
1809.3
  0
LINE
  8
0
 10
-31.1441
 20
1809.3
 11
-30.9091
 21
1809.43
  0
LINE
  8
0
 10
-30.9091
 20
1809.43
 11
-30.6598
 21
1809.53
  0
LINE
  8
0
 10
-30.6598
 20
1809.53
 11
-30.4001
 21
1809.6
  0
LINE
  8
0
 10
-30.4001
 20
1809.6
 11
-30.1341
 21
1809.63
  0
LINE
  8
0
 10
-30.1341
 20
1809.63
 11
-29.8659
 21
1809.63
  0
LINE
  8
0
 10
-29.8659
 20
1809.63
 11
-29.5999
 21
1809.6
  0
LINE
  8
0
 10
-29.5999
 20
1809.6
 11
-29.3401
 21
1809.53
  0
LINE
  8
0
 10
-29.3401
 20
1809.53
 11
-29.0908
 21
1809.43
  0
LINE
  8
0
 10
-29.0908
 20
1809.43
 11
-28.8559
 21
1809.3
  0
LINE
  8
0
 10
-28.8559
 20
1809.3
 11
-28.6389
 21
1809.15
  0
LINE
  8
0
 10
-28.6389
 20
1809.15
 11
-28.4434
 21
1808.96
  0
LINE
  8
0
 10
-28.4434
 20
1808.96
 11
-28.2725
 21
1808.76
  0
LINE
  8
0
 10
-28.2725
 20
1808.76
 11
-28.1288
 21
1808.53
  0
LINE
  8
0
 10
-28.1288
 20
1808.53
 11
-28.0146
 21
1808.29
  0
LINE
  8
0
 10
-28.0146
 20
1808.29
 11
-27.9318
 21
1808.03
  0
LINE
  8
0
 10
-27.9318
 20
1808.03
 11
-27.8815
 21
1807.77
  0
LINE
  8
0
 10
-27.8815
 20
1807.77
 11
-27.8647
 21
1807.5
  0
LINE
  8
0
 10
-27.8647
 20
1807.5
 11
-27.8815
 21
1807.23
  0
LINE
  8
0
 10
-27.8815
 20
1807.23
 11
-27.9318
 21
1806.97
  0
LINE
  8
0
 10
-27.9318
 20
1806.97
 11
-28.0146
 21
1806.71
  0
LINE
  8
0
 10
-28.0146
 20
1806.71
 11
-28.1288
 21
1806.47
  0
LINE
  8
0
 10
-28.1288
 20
1806.47
 11
-28.2725
 21
1806.24
  0
LINE
  8
0
 10
-28.2725
 20
1806.24
 11
-28.4434
 21
1806.04
  0
LINE
  8
0
 10
-28.4434
 20
1806.04
 11
-28.6389
 21
1805.85
  0
LINE
  8
0
 10
-28.6389
 20
1805.85
 11
-28.8559
 21
1805.7
  0
LINE
  8
0
 10
-28.8559
 20
1805.7
 11
-29.0908
 21
1805.57
  0
LINE
  8
0
 10
-29.0908
 20
1805.57
 11
-29.3401
 21
1805.47
  0
LINE
  8
0
 10
-29.3401
 20
1805.47
 11
-29.5999
 21
1805.4
  0
LINE
  8
0
 10
-29.5999
 20
1805.4
 11
-29.8659
 21
1805.37
  0
LINE
  8
0
 10
-29.8659
 20
1805.37
 11
-30.1341
 21
1805.37
  0
LINE
  8
0
 10
29.8659
 20
1805.37
 11
29.5999
 21
1805.4
  0
LINE
  8
0
 10
29.5999
 20
1805.4
 11
29.3401
 21
1805.47
  0
LINE
  8
0
 10
29.3401
 20
1805.47
 11
29.0908
 21
1805.57
  0
LINE
  8
0
 10
29.0908
 20
1805.57
 11
28.8559
 21
1805.7
  0
LINE
  8
0
 10
28.8559
 20
1805.7
 11
28.6389
 21
1805.85
  0
LINE
  8
0
 10
28.6389
 20
1805.85
 11
28.4434
 21
1806.04
  0
LINE
  8
0
 10
28.4434
 20
1806.04
 11
28.2725
 21
1806.24
  0
LINE
  8
0
 10
28.2725
 20
1806.24
 11
28.1288
 21
1806.47
  0
LINE
  8
0
 10
28.1288
 20
1806.47
 11
28.0146
 21
1806.71
  0
LINE
  8
0
 10
28.0146
 20
1806.71
 11
27.9318
 21
1806.97
  0
LINE
  8
0
 10
27.9318
 20
1806.97
 11
27.8815
 21
1807.23
  0
LINE
  8
0
 10
27.8815
 20
1807.23
 11
27.8647
 21
1807.5
  0
LINE
  8
0
 10
27.8647
 20
1807.5
 11
27.8815
 21
1807.77
  0
LINE
  8
0
 10
27.8815
 20
1807.77
 11
27.9318
 21
1808.03
  0
LINE
  8
0
 10
27.9318
 20
1808.03
 11
28.0146
 21
1808.29
  0
LINE
  8
0
 10
28.0146
 20
1808.29
 11
28.1288
 21
1808.53
  0
LINE
  8
0
 10
28.1288
 20
1808.53
 11
28.2725
 21
1808.76
  0
LINE
  8
0
 10
28.2725
 20
1808.76
 11
28.4434
 21
1808.96
  0
LINE
  8
0
 10
28.4434
 20
1808.96
 11
28.6389
 21
1809.15
  0
LINE
  8
0
 10
28.6389
 20
1809.15
 11
28.8559
 21
1809.3
  0
LINE
  8
0
 10
28.8559
 20
1809.3
 11
29.0908
 21
1809.43
  0
LINE
  8
0
 10
29.0908
 20
1809.43
 11
29.3401
 21
1809.53
  0
LINE
  8
0
 10
29.3401
 20
1809.53
 11
29.5999
 21
1809.6
  0
LINE
  8
0
 10
29.5999
 20
1809.6
 11
29.8659
 21
1809.63
  0
LINE
  8
0
 10
29.8659
 20
1809.63
 11
30.1341
 21
1809.63
  0
LINE
  8
0
 10
30.1341
 20
1809.63
 11
30.4001
 21
1809.6
  0
LINE
  8
0
 10
30.4001
 20
1809.6
 11
30.6598
 21
1809.53
  0
LINE
  8
0
 10
30.6598
 20
1809.53
 11
30.9091
 21
1809.43
  0
LINE
  8
0
 10
30.9091
 20
1809.43
 11
31.1441
 21
1809.3
  0
LINE
  8
0
 10
31.1441
 20
1809.3
 11
31.3611
 21
1809.15
  0
LINE
  8
0
 10
31.3611
 20
1809.15
 11
31.5565
 21
1808.96
  0
LINE
  8
0
 10
31.5565
 20
1808.96
 11
31.7275
 21
1808.76
  0
LINE
  8
0
 10
31.7275
 20
1808.76
 11
31.8712
 21
1808.53
  0
LINE
  8
0
 10
31.8712
 20
1808.53
 11
31.9853
 21
1808.29
  0
LINE
  8
0
 10
31.9853
 20
1808.29
 11
32.0682
 21
1808.03
  0
LINE
  8
0
 10
32.0682
 20
1808.03
 11
32.1185
 21
1807.77
  0
LINE
  8
0
 10
32.1185
 20
1807.77
 11
32.1353
 21
1807.5
  0
LINE
  8
0
 10
32.1353
 20
1807.5
 11
32.1185
 21
1807.23
  0
LINE
  8
0
 10
32.1185
 20
1807.23
 11
32.0682
 21
1806.97
  0
LINE
  8
0
 10
32.0682
 20
1806.97
 11
31.9853
 21
1806.71
  0
LINE
  8
0
 10
31.9853
 20
1806.71
 11
31.8712
 21
1806.47
  0
LINE
  8
0
 10
31.8712
 20
1806.47
 11
31.7275
 21
1806.24
  0
LINE
  8
0
 10
31.7275
 20
1806.24
 11
31.5565
 21
1806.04
  0
LINE
  8
0
 10
31.5565
 20
1806.04
 11
31.3611
 21
1805.85
  0
LINE
  8
0
 10
31.3611
 20
1805.85
 11
31.1441
 21
1805.7
  0
LINE
  8
0
 10
31.1441
 20
1805.7
 11
30.9091
 21
1805.57
  0
LINE
  8
0
 10
30.9091
 20
1805.57
 11
30.6598
 21
1805.47
  0
LINE
  8
0
 10
30.6598
 20
1805.47
 11
30.4001
 21
1805.4
  0
LINE
  8
0
 10
30.4001
 20
1805.4
 11
30.1341
 21
1805.37
  0
LINE
  8
0
 10
30.1341
 20
1805.37
 11
29.8659
 21
1805.37
  0
ENDSEC
  0
SECTION
  2
OBJECTS
  0
DICTIONARY
  0
ENDSEC
  0
EOF
