<?xml version="1.0" standalone="no"?>
<!DOCTYPE svg PUBLIC "-//W3C//DTD SVG 1.1//EN" "http://www.w3.org/Graphics/SVG/1.1/DTD/svg11.dtd">
<svg width="24mm" height="874mm" viewBox="-12 -1319 24 874" xmlns="http://www.w3.org/2000/svg" version="1.1">
<title>OpenSCAD Model</title>
<path d="
M 7.1869,-1033.59 L 7.79507,-1033.74 L 8.37889,-1033.98 L 8.92912,-1034.28 L 9.43712,-1034.65 L 9.89484,-1035.08
 L 10.2951,-1035.56 L 10.6315,-1036.09 L 10.8989,-1036.66 L 11.0929,-1037.26 L 11.2106,-1037.87 L 11.25,-1038.5
 L 11.25,-1313.5 L 11.2106,-1314.13 L 11.0929,-1314.74 L 10.8989,-1315.34 L 10.6315,-1315.91 L 10.2951,-1316.44
 L 9.89484,-1316.92 L 9.43712,-1317.35 L 8.92912,-1317.72 L 8.37889,-1318.02 L 7.79507,-1318.26 L 7.1869,-1318.41
 L 6.56395,-1318.49 L -6.56395,-1318.49 L -7.1869,-1318.41 L -7.79507,-1318.26 L -8.37889,-1318.02 L -8.92912,-1317.72
 L -9.43712,-1317.35 L -9.89484,-1316.92 L -10.2951,-1316.44 L -10.6315,-1315.91 L -10.8989,-1315.34 L -11.0929,-1314.74
 L -11.2106,-1314.13 L -11.25,-1313.5 L -11.25,-1038.5 L -11.2106,-1037.87 L -11.0929,-1037.26 L -10.8989,-1036.66
 L -10.6315,-1036.09 L -10.2951,-1035.56 L -9.89484,-1035.08 L -9.43712,-1034.65 L -8.92912,-1034.28 L -8.37889,-1033.98
 L -7.79507,-1033.74 L -7.1869,-1033.59 L -6.56395,-1033.51 L 6.56395,-1033.51 z
M -5.99316,-1035.14 L -6.47565,-1035.2 L -6.9467,-1035.32 L -7.39888,-1035.5 L -7.82506,-1035.73 L -8.21851,-1036.02
 L -8.57301,-1036.35 L -8.88301,-1036.72 L -9.1436,-1037.13 L -9.35068,-1037.57 L -9.50096,-1038.04 L -9.59209,-1038.51
 L -9.62262,-1039 L -9.62262,-1313 L -9.59209,-1313.49 L -9.50096,-1313.96 L -9.35068,-1314.43 L -9.1436,-1314.87
 L -8.88301,-1315.28 L -8.57301,-1315.65 L -8.21851,-1315.98 L -7.82506,-1316.27 L -7.39888,-1316.5 L -6.9467,-1316.68
 L -6.47565,-1316.8 L -5.99316,-1316.86 L 5.99316,-1316.86 L 6.47565,-1316.8 L 6.9467,-1316.68 L 7.39888,-1316.5
 L 7.82506,-1316.27 L 8.21851,-1315.98 L 8.57301,-1315.65 L 8.88301,-1315.28 L 9.1436,-1314.87 L 9.35068,-1314.43
 L 9.50096,-1313.96 L 9.59209,-1313.49 L 9.62262,-1313 L 9.62262,-1039 L 9.59209,-1038.51 L 9.50096,-1038.04
 L 9.35068,-1037.57 L 9.1436,-1037.13 L 8.88301,-1036.72 L 8.57301,-1036.35 L 8.21851,-1036.02 L 7.82506,-1035.73
 L 7.39888,-1035.5 L 6.9467,-1035.32 L 6.47565,-1035.2 L 5.99316,-1035.14 z
M 7.1869,-739.589 L 7.79507,-739.745 L 8.37889,-739.976 L 8.92912,-740.278 L 9.43712,-740.647 L 9.89484,-741.077
 L 10.2951,-741.561 L 10.6315,-742.091 L 10.8989,-742.659 L 11.0929,-743.257 L 11.2106,-743.873 L 11.25,-744.5
 L 11.25,-1019.5 L 11.2106,-1020.13 L 11.0929,-1020.74 L 10.8989,-1021.34 L 10.6315,-1021.91 L 10.2951,-1022.44
 L 9.89484,-1022.92 L 9.43712,-1023.35 L 8.92912,-1023.72 L 8.37889,-1024.02 L 7.79507,-1024.26 L 7.1869,-1024.41
 L 6.56395,-1024.49 L -6.56395,-1024.49 L -7.1869,-1024.41 L -7.79507,-1024.26 L -8.37889,-1024.02 L -8.92912,-1023.72
 L -9.43712,-1023.35 L -9.89484,-1022.92 L -10.2951,-1022.44 L -10.6315,-1021.91 L -10.8989,-1021.34 L -11.0929,-1020.74
 L -11.2106,-1020.13 L -11.25,-1019.5 L -11.25,-744.5 L -11.2106,-743.873 L -11.0929,-743.257 L -10.8989,-742.659
 L -10.6315,-742.091 L -10.2951,-741.561 L -9.89484,-741.077 L -9.43712,-740.647 L -8.92912,-740.278 L -8.37889,-739.976
 L -7.79507,-739.745 L -7.1869,-739.589 L -6.56395,-739.51 L 6.56395,-739.51 z
M 3.59929,-1014.6 L 3.30028,-1014.64 L 3.00835,-1014.72 L 2.72812,-1014.83 L 2.464,-1014.97 L 2.22017,-1015.15
 L 2.00047,-1015.36 L 1.80835,-1015.59 L 1.64685,-1015.84 L 1.51852,-1016.12 L 1.4254,-1016.4 L 1.36891,-1016.7
 L 1.34999,-1017 L 1.36891,-1017.3 L 1.4254,-1017.6 L 1.51852,-1017.88 L 1.64685,-1018.16 L 1.80835,-1018.41
 L 2.00047,-1018.64 L 2.22017,-1018.85 L 2.464,-1019.03 L 2.72812,-1019.17 L 3.00835,-1019.28 L 3.30028,-1019.36
 L 3.59929,-1019.4 L 3.9007,-1019.4 L 4.19971,-1019.36 L 4.49164,-1019.28 L 4.77187,-1019.17 L 5.03598,-1019.03
 L 5.27982,-1018.85 L 5.49951,-1018.64 L 5.69164,-1018.41 L 5.85313,-1018.16 L 5.98146,-1017.88 L 6.07458,-1017.6
 L 6.13107,-1017.3 L 6.14999,-1017 L 6.13107,-1016.7 L 6.07458,-1016.4 L 5.98146,-1016.12 L 5.85313,-1015.84
 L 5.69164,-1015.59 L 5.49951,-1015.36 L 5.27982,-1015.15 L 5.03598,-1014.97 L 4.77187,-1014.83 L 4.49164,-1014.72
 L 4.19971,-1014.64 L 3.9007,-1014.6 z
M -3.9007,-1014.6 L -4.19971,-1014.64 L -4.49164,-1014.72 L -4.77187,-1014.83 L -5.03598,-1014.97 L -5.27982,-1015.15
 L -5.49951,-1015.36 L -5.69164,-1015.59 L -5.85313,-1015.84 L -5.98146,-1016.12 L -6.07458,-1016.4 L -6.13107,-1016.7
 L -6.14999,-1017 L -6.13107,-1017.3 L -6.07458,-1017.6 L -5.98146,-1017.88 L -5.85313,-1018.16 L -5.69164,-1018.41
 L -5.49951,-1018.64 L -5.27982,-1018.85 L -5.03598,-1019.03 L -4.77187,-1019.17 L -4.49164,-1019.28 L -4.19971,-1019.36
 L -3.9007,-1019.4 L -3.59929,-1019.4 L -3.30028,-1019.36 L -3.00835,-1019.28 L -2.72812,-1019.17 L -2.464,-1019.03
 L -2.22017,-1018.85 L -2.00047,-1018.64 L -1.80835,-1018.41 L -1.64685,-1018.16 L -1.51852,-1017.88 L -1.4254,-1017.6
 L -1.36891,-1017.3 L -1.34999,-1017 L -1.36891,-1016.7 L -1.4254,-1016.4 L -1.51852,-1016.12 L -1.64685,-1015.84
 L -1.80835,-1015.59 L -2.00047,-1015.36 L -2.22017,-1015.15 L -2.464,-1014.97 L -2.72812,-1014.83 L -3.00835,-1014.72
 L -3.30028,-1014.64 L -3.59929,-1014.6 z
M 3.59929,-744.605 L 3.30028,-744.643 L 3.00835,-744.717 L 2.72812,-744.828 L 2.464,-744.974 L 2.22017,-745.151
 L 2.00047,-745.357 L 1.80835,-745.589 L 1.64685,-745.844 L 1.51852,-746.117 L 1.4254,-746.403 L 1.36891,-746.699
 L 1.34999,-747 L 1.36891,-747.301 L 1.4254,-747.597 L 1.51852,-747.883 L 1.64685,-748.156 L 1.80835,-748.411
 L 2.00047,-748.643 L 2.22017,-748.849 L 2.464,-749.026 L 2.72812,-749.172 L 3.00835,-749.283 L 3.30028,-749.357
 L 3.59929,-749.395 L 3.9007,-749.395 L 4.19971,-749.357 L 4.49164,-749.283 L 4.77187,-749.172 L 5.03598,-749.026
 L 5.27982,-748.849 L 5.49951,-748.643 L 5.69164,-748.411 L 5.85313,-748.156 L 5.98146,-747.883 L 6.07458,-747.597
 L 6.13107,-747.301 L 6.14999,-747 L 6.13107,-746.699 L 6.07458,-746.403 L 5.98146,-746.117 L 5.85313,-745.844
 L 5.69164,-745.589 L 5.49951,-745.357 L 5.27982,-745.151 L 5.03598,-744.974 L 4.77187,-744.828 L 4.49164,-744.717
 L 4.19971,-744.643 L 3.9007,-744.605 z
M -3.9007,-744.605 L -4.19971,-744.643 L -4.49164,-744.717 L -4.77187,-744.828 L -5.03598,-744.974 L -5.27982,-745.151
 L -5.49951,-745.357 L -5.69164,-745.589 L -5.85313,-745.844 L -5.98146,-746.117 L -6.07458,-746.403 L -6.13107,-746.699
 L -6.14999,-747 L -6.13107,-747.301 L -6.07458,-747.597 L -5.98146,-747.883 L -5.85313,-748.156 L -5.69164,-748.411
 L -5.49951,-748.643 L -5.27982,-748.849 L -5.03598,-749.026 L -4.77187,-749.172 L -4.49164,-749.283 L -4.19971,-749.357
 L -3.9007,-749.395 L -3.59929,-749.395 L -3.30028,-749.357 L -3.00835,-749.283 L -2.72812,-749.172 L -2.464,-749.026
 L -2.22017,-748.849 L -2.00047,-748.643 L -1.80835,-748.411 L -1.64685,-748.156 L -1.51852,-747.883 L -1.4254,-747.597
 L -1.36891,-747.301 L -1.34999,-747 L -1.36891,-746.699 L -1.4254,-746.403 L -1.51852,-746.117 L -1.64685,-745.844
 L -1.80835,-745.589 L -2.00047,-745.357 L -2.22017,-745.151 L -2.464,-744.974 L -2.72812,-744.828 L -3.00835,-744.717
 L -3.30028,-744.643 L -3.59929,-744.605 z
M 7.1869,-445.589 L 7.79507,-445.745 L 8.37889,-445.976 L 8.92912,-446.278 L 9.43712,-446.647 L 9.89484,-447.077
 L 10.2951,-447.561 L 10.6315,-448.091 L 10.8989,-448.659 L 11.0929,-449.257 L 11.2106,-449.873 L 11.25,-450.5
 L 11.25,-725.5 L 11.2106,-726.127 L 11.0929,-726.743 L 10.8989,-727.341 L 10.6315,-727.909 L 10.2951,-728.439
 L 9.89484,-728.923 L 9.43712,-729.353 L 8.92912,-729.722 L 8.37889,-730.024 L 7.79507,-730.255 L 7.1869,-730.411
 L 6.56395,-730.49 L -6.56395,-730.49 L -7.1869,-730.411 L -7.79507,-730.255 L -8.37889,-730.024 L -8.92912,-729.722
 L -9.43712,-729.353 L -9.89484,-728.923 L -10.2951,-728.439 L -10.6315,-727.909 L -10.8989,-727.341 L -11.0929,-726.743
 L -11.2106,-726.127 L -11.25,-725.5 L -11.25,-450.5 L -11.2106,-449.873 L -11.0929,-449.257 L -10.8989,-448.659
 L -10.6315,-448.091 L -10.2951,-447.561 L -9.89484,-447.077 L -9.43712,-446.647 L -8.92912,-446.278 L -8.37889,-445.976
 L -7.79507,-445.745 L -7.1869,-445.589 L -6.56395,-445.51 L 6.56395,-445.51 z
M 3.63696,-721.204 L 3.4127,-721.232 L 3.19376,-721.288 L 2.9836,-721.371 L 2.78551,-721.48 L 2.60263,-721.613
 L 2.43785,-721.768 L 2.29376,-721.942 L 2.17264,-722.133 L 2.0764,-722.337 L 2.00655,-722.552 L 1.96419,-722.774
 L 1.95,-723 L 1.96419,-723.226 L 2.00655,-723.448 L 2.0764,-723.663 L 2.17264,-723.867 L 2.29376,-724.058
 L 2.43785,-724.232 L 2.60263,-724.387 L 2.78551,-724.52 L 2.9836,-724.629 L 3.19376,-724.712 L 3.4127,-724.768
 L 3.63696,-724.796 L 3.86302,-724.796 L 4.08728,-724.768 L 4.30623,-724.712 L 4.51639,-724.629 L 4.71448,-724.52
 L 4.89735,-724.387 L 5.06213,-724.232 L 5.20622,-724.058 L 5.32735,-723.867 L 5.42358,-723.663 L 5.49344,-723.448
 L 5.5358,-723.226 L 5.54999,-723 L 5.5358,-722.774 L 5.49344,-722.552 L 5.42358,-722.337 L 5.32735,-722.133
 L 5.20622,-721.942 L 5.06213,-721.768 L 4.89735,-721.613 L 4.71448,-721.48 L 4.51639,-721.371 L 4.30623,-721.288
 L 4.08728,-721.232 L 3.86302,-721.204 z
M -3.86302,-721.204 L -4.08728,-721.232 L -4.30623,-721.288 L -4.51639,-721.371 L -4.71448,-721.48 L -4.89735,-721.613
 L -5.06213,-721.768 L -5.20622,-721.942 L -5.32735,-722.133 L -5.42358,-722.337 L -5.49344,-722.552 L -5.5358,-722.774
 L -5.54999,-723 L -5.5358,-723.226 L -5.49344,-723.448 L -5.42358,-723.663 L -5.32735,-723.867 L -5.20622,-724.058
 L -5.06213,-724.232 L -4.89735,-724.387 L -4.71448,-724.52 L -4.51639,-724.629 L -4.30623,-724.712 L -4.08728,-724.768
 L -3.86302,-724.796 L -3.63696,-724.796 L -3.4127,-724.768 L -3.19376,-724.712 L -2.9836,-724.629 L -2.78551,-724.52
 L -2.60263,-724.387 L -2.43785,-724.232 L -2.29376,-724.058 L -2.17264,-723.867 L -2.0764,-723.663 L -2.00655,-723.448
 L -1.96419,-723.226 L -1.95,-723 L -1.96419,-722.774 L -2.00655,-722.552 L -2.0764,-722.337 L -2.17264,-722.133
 L -2.29376,-721.942 L -2.43785,-721.768 L -2.60263,-721.613 L -2.78551,-721.48 L -2.9836,-721.371 L -3.19376,-721.288
 L -3.4127,-721.232 L -3.63696,-721.204 z
M -3.86302,-451.204 L -4.08728,-451.232 L -4.30623,-451.288 L -4.51639,-451.371 L -4.71448,-451.48 L -4.89735,-451.613
 L -5.06213,-451.768 L -5.20622,-451.942 L -5.32735,-452.133 L -5.42358,-452.337 L -5.49344,-452.552 L -5.5358,-452.774
 L -5.54999,-453 L -5.5358,-453.226 L -5.49344,-453.448 L -5.42358,-453.663 L -5.32735,-453.867 L -5.20622,-454.058
 L -5.06213,-454.232 L -4.89735,-454.387 L -4.71448,-454.52 L -4.51639,-454.629 L -4.30623,-454.712 L -4.08728,-454.768
 L -3.86302,-454.796 L -3.63696,-454.796 L -3.4127,-454.768 L -3.19376,-454.712 L -2.9836,-454.629 L -2.78551,-454.52
 L -2.60263,-454.387 L -2.43785,-454.232 L -2.29376,-454.058 L -2.17264,-453.867 L -2.0764,-453.663 L -2.00655,-453.448
 L -1.96419,-453.226 L -1.95,-453 L -1.96419,-452.774 L -2.00655,-452.552 L -2.0764,-452.337 L -2.17264,-452.133
 L -2.29376,-451.942 L -2.43785,-451.768 L -2.60263,-451.613 L -2.78551,-451.48 L -2.9836,-451.371 L -3.19376,-451.288
 L -3.4127,-451.232 L -3.63696,-451.204 z
M 3.63696,-451.204 L 3.4127,-451.232 L 3.19376,-451.288 L 2.9836,-451.371 L 2.78551,-451.48 L 2.60263,-451.613
 L 2.43785,-451.768 L 2.29376,-451.942 L 2.17264,-452.133 L 2.0764,-452.337 L 2.00655,-452.552 L 1.96419,-452.774
 L 1.95,-453 L 1.96419,-453.226 L 2.00655,-453.448 L 2.0764,-453.663 L 2.17264,-453.867 L 2.29376,-454.058
 L 2.43785,-454.232 L 2.60263,-454.387 L 2.78551,-454.52 L 2.9836,-454.629 L 3.19376,-454.712 L 3.4127,-454.768
 L 3.63696,-454.796 L 3.86302,-454.796 L 4.08728,-454.768 L 4.30623,-454.712 L 4.51639,-454.629 L 4.71448,-454.52
 L 4.89735,-454.387 L 5.06213,-454.232 L 5.20622,-454.058 L 5.32735,-453.867 L 5.42358,-453.663 L 5.49344,-453.448
 L 5.5358,-453.226 L 5.54999,-453 L 5.5358,-452.774 L 5.49344,-452.552 L 5.42358,-452.337 L 5.32735,-452.133
 L 5.20622,-451.942 L 5.06213,-451.768 L 4.89735,-451.613 L 4.71448,-451.48 L 4.51639,-451.371 L 4.30623,-451.288
 L 4.08728,-451.232 L 3.86302,-451.204 z
" stroke="black" fill="lightgray" stroke-width="0.5"/>
</svg>
