<?xml version="1.0" standalone="no"?>
<!DOCTYPE svg PUBLIC "-//W3C//DTD SVG 1.1//EN" "http://www.w3.org/Graphics/SVG/1.1/DTD/svg11.dtd">
<svg width="16mm" height="828mm" viewBox="-8 -1251 16 828" xmlns="http://www.w3.org/2000/svg" version="1.1">
<title>OpenSCAD Model</title>
<path d="
M 3.4369,-981.089 L 4.04507,-981.245 L 4.62889,-981.476 L 5.17912,-981.778 L 5.68712,-982.147 L 6.14484,-982.577
 L 6.54507,-983.061 L 6.88153,-983.591 L 7.14888,-984.159 L 7.34291,-984.757 L 7.46057,-985.373 L 7.5,-986
 L 7.5,-1246 L 7.46057,-1246.63 L 7.34291,-1247.24 L 7.14888,-1247.84 L 6.88153,-1248.41 L 6.54507,-1248.94
 L 6.14484,-1249.42 L 5.68712,-1249.85 L 5.17912,-1250.22 L 4.62889,-1250.52 L 4.04507,-1250.76 L 3.4369,-1250.91
 L 2.81395,-1250.99 L -2.81395,-1250.99 L -3.4369,-1250.91 L -4.04507,-1250.76 L -4.62889,-1250.52 L -5.17912,-1250.22
 L -5.68712,-1249.85 L -6.14484,-1249.42 L -6.54507,-1248.94 L -6.88153,-1248.41 L -7.14888,-1247.84 L -7.34291,-1247.24
 L -7.46057,-1246.63 L -7.5,-1246 L -7.5,-986 L -7.46057,-985.373 L -7.34291,-984.757 L -7.14888,-984.159
 L -6.88153,-983.591 L -6.54507,-983.061 L -6.14484,-982.577 L -5.68712,-982.147 L -5.17912,-981.778 L -4.62889,-981.476
 L -4.04507,-981.245 L -3.4369,-981.089 L -2.81395,-981.01 L 2.81395,-981.01 z
M -2.24316,-982.635 L -2.72565,-982.696 L -3.1967,-982.817 L -3.64888,-982.996 L -4.07506,-983.23 L -4.46851,-983.516
 L -4.82301,-983.849 L -5.13301,-984.224 L -5.3936,-984.634 L -5.60068,-985.074 L -5.75096,-985.537 L -5.84209,-986.015
 L -5.87262,-986.5 L -5.87262,-1245.5 L -5.84209,-1245.99 L -5.75096,-1246.46 L -5.60068,-1246.93 L -5.3936,-1247.37
 L -5.13301,-1247.78 L -4.82301,-1248.15 L -4.46851,-1248.48 L -4.07506,-1248.77 L -3.64888,-1249 L -3.1967,-1249.18
 L -2.72565,-1249.3 L -2.24316,-1249.36 L 2.24316,-1249.36 L 2.72565,-1249.3 L 3.1967,-1249.18 L 3.64888,-1249
 L 4.07506,-1248.77 L 4.46851,-1248.48 L 4.82301,-1248.15 L 5.13301,-1247.78 L 5.3936,-1247.37 L 5.60068,-1246.93
 L 5.75096,-1246.46 L 5.84209,-1245.99 L 5.87262,-1245.5 L 5.87262,-986.5 L 5.84209,-986.015 L 5.75096,-985.537
 L 5.60068,-985.074 L 5.3936,-984.634 L 5.13301,-984.224 L 4.82301,-983.849 L 4.46851,-983.516 L 4.07506,-983.23
 L 3.64888,-982.996 L 3.1967,-982.817 L 2.72565,-982.696 L 2.24316,-982.635 z
M 3.4369,-702.089 L 4.04507,-702.245 L 4.62889,-702.476 L 5.17912,-702.778 L 5.68712,-703.147 L 6.14484,-703.577
 L 6.54507,-704.061 L 6.88153,-704.591 L 7.14888,-705.159 L 7.34291,-705.757 L 7.46057,-706.373 L 7.5,-707
 L 7.5,-967 L 7.46057,-967.627 L 7.34291,-968.243 L 7.14888,-968.841 L 6.88153,-969.409 L 6.54507,-969.939
 L 6.14484,-970.423 L 5.68712,-970.853 L 5.17912,-971.222 L 4.62889,-971.524 L 4.04507,-971.755 L 3.4369,-971.911
 L 2.81395,-971.99 L -2.81395,-971.99 L -3.4369,-971.911 L -4.04507,-971.755 L -4.62889,-971.524 L -5.17912,-971.222
 L -5.68712,-970.853 L -6.14484,-970.423 L -6.54507,-969.939 L -6.88153,-969.409 L -7.14888,-968.841 L -7.34291,-968.243
 L -7.46057,-967.627 L -7.5,-967 L -7.5,-707 L -7.46057,-706.373 L -7.34291,-705.757 L -7.14888,-705.159
 L -6.88153,-704.591 L -6.54507,-704.061 L -6.14484,-703.577 L -5.68712,-703.147 L -5.17912,-702.778 L -4.62889,-702.476
 L -4.04507,-702.245 L -3.4369,-702.089 L -2.81395,-702.01 L 2.81395,-702.01 z
M -0.150696,-962.105 L -0.449707,-962.143 L -0.741638,-962.217 L -1.02187,-962.328 L -1.28598,-962.474 L -1.52982,-962.651
 L -1.74951,-962.857 L -1.94164,-963.089 L -2.10313,-963.344 L -2.23146,-963.617 L -2.32458,-963.903 L -2.38107,-964.199
 L -2.39999,-964.5 L -2.38107,-964.801 L -2.32458,-965.097 L -2.23146,-965.383 L -2.10313,-965.656 L -1.94164,-965.911
 L -1.74951,-966.143 L -1.52982,-966.349 L -1.28598,-966.526 L -1.02187,-966.672 L -0.741638,-966.783 L -0.449707,-966.857
 L -0.150696,-966.895 L 0.150696,-966.895 L 0.449707,-966.857 L 0.741638,-966.783 L 1.02187,-966.672 L 1.28598,-966.526
 L 1.52982,-966.349 L 1.74951,-966.143 L 1.94164,-965.911 L 2.10313,-965.656 L 2.23146,-965.383 L 2.32458,-965.097
 L 2.38107,-964.801 L 2.39999,-964.5 L 2.38107,-964.199 L 2.32458,-963.903 L 2.23146,-963.617 L 2.10313,-963.344
 L 1.94164,-963.089 L 1.74951,-962.857 L 1.52982,-962.651 L 1.28598,-962.474 L 1.02187,-962.328 L 0.741638,-962.217
 L 0.449707,-962.143 L 0.150696,-962.105 z
M -0.150696,-707.105 L -0.449707,-707.143 L -0.741638,-707.217 L -1.02187,-707.328 L -1.28598,-707.474 L -1.52982,-707.651
 L -1.74951,-707.857 L -1.94164,-708.089 L -2.10313,-708.344 L -2.23146,-708.617 L -2.32458,-708.903 L -2.38107,-709.199
 L -2.39999,-709.5 L -2.38107,-709.801 L -2.32458,-710.097 L -2.23146,-710.383 L -2.10313,-710.656 L -1.94164,-710.911
 L -1.74951,-711.143 L -1.52982,-711.349 L -1.28598,-711.526 L -1.02187,-711.672 L -0.741638,-711.783 L -0.449707,-711.857
 L -0.150696,-711.895 L 0.150696,-711.895 L 0.449707,-711.857 L 0.741638,-711.783 L 1.02187,-711.672 L 1.28598,-711.526
 L 1.52982,-711.349 L 1.74951,-711.143 L 1.94164,-710.911 L 2.10313,-710.656 L 2.23146,-710.383 L 2.32458,-710.097
 L 2.38107,-709.801 L 2.39999,-709.5 L 2.38107,-709.199 L 2.32458,-708.903 L 2.23146,-708.617 L 2.10313,-708.344
 L 1.94164,-708.089 L 1.74951,-707.857 L 1.52982,-707.651 L 1.28598,-707.474 L 1.02187,-707.328 L 0.741638,-707.217
 L 0.449707,-707.143 L 0.150696,-707.105 z
M 3.4369,-423.089 L 4.04507,-423.245 L 4.62889,-423.476 L 5.17912,-423.778 L 5.68712,-424.147 L 6.14484,-424.577
 L 6.54507,-425.061 L 6.88153,-425.591 L 7.14888,-426.159 L 7.34291,-426.757 L 7.46057,-427.373 L 7.5,-428
 L 7.5,-688 L 7.46057,-688.627 L 7.34291,-689.243 L 7.14888,-689.841 L 6.88153,-690.409 L 6.54507,-690.939
 L 6.14484,-691.423 L 5.68712,-691.853 L 5.17912,-692.222 L 4.62889,-692.524 L 4.04507,-692.755 L 3.4369,-692.911
 L 2.81395,-692.99 L -2.81395,-692.99 L -3.4369,-692.911 L -4.04507,-692.755 L -4.62889,-692.524 L -5.17912,-692.222
 L -5.68712,-691.853 L -6.14484,-691.423 L -6.54507,-690.939 L -6.88153,-690.409 L -7.14888,-689.841 L -7.34291,-689.243
 L -7.46057,-688.627 L -7.5,-688 L -7.5,-428 L -7.46057,-427.373 L -7.34291,-426.757 L -7.14888,-426.159
 L -6.88153,-425.591 L -6.54507,-425.061 L -6.14484,-424.577 L -5.68712,-424.147 L -5.17912,-423.778 L -4.62889,-423.476
 L -4.04507,-423.245 L -3.4369,-423.089 L -2.81395,-423.01 L 2.81395,-423.01 z
M -0.113022,-683.704 L -0.33728,-683.732 L -0.556229,-683.788 L -0.766388,-683.871 L -0.964478,-683.98 L -1.14735,-684.113
 L -1.31213,-684.268 L -1.45622,-684.442 L -1.57735,-684.633 L -1.67358,-684.837 L -1.74344,-685.052 L -1.7858,-685.274
 L -1.79999,-685.5 L -1.7858,-685.726 L -1.74344,-685.948 L -1.67358,-686.163 L -1.57735,-686.367 L -1.45622,-686.558
 L -1.31213,-686.732 L -1.14735,-686.887 L -0.964478,-687.02 L -0.766388,-687.129 L -0.556229,-687.212 L -0.33728,-687.268
 L -0.113022,-687.296 L 0.113022,-687.296 L 0.33728,-687.268 L 0.556229,-687.212 L 0.766388,-687.129 L 0.964478,-687.02
 L 1.14735,-686.887 L 1.31213,-686.732 L 1.45622,-686.558 L 1.57735,-686.367 L 1.67358,-686.163 L 1.74344,-685.948
 L 1.7858,-685.726 L 1.79999,-685.5 L 1.7858,-685.274 L 1.74344,-685.052 L 1.67358,-684.837 L 1.57735,-684.633
 L 1.45622,-684.442 L 1.31213,-684.268 L 1.14735,-684.113 L 0.964478,-683.98 L 0.766388,-683.871 L 0.556229,-683.788
 L 0.33728,-683.732 L 0.113022,-683.704 z
M -0.113022,-428.704 L -0.33728,-428.732 L -0.556229,-428.788 L -0.766388,-428.871 L -0.964478,-428.98 L -1.14735,-429.113
 L -1.31213,-429.268 L -1.45622,-429.442 L -1.57735,-429.633 L -1.67358,-429.837 L -1.74344,-430.052 L -1.7858,-430.274
 L -1.79999,-430.5 L -1.7858,-430.726 L -1.74344,-430.948 L -1.67358,-431.163 L -1.57735,-431.367 L -1.45622,-431.558
 L -1.31213,-431.732 L -1.14735,-431.887 L -0.964478,-432.02 L -0.766388,-432.129 L -0.556229,-432.212 L -0.33728,-432.268
 L -0.113022,-432.296 L 0.113022,-432.296 L 0.33728,-432.268 L 0.556229,-432.212 L 0.766388,-432.129 L 0.964478,-432.02
 L 1.14735,-431.887 L 1.31213,-431.732 L 1.45622,-431.558 L 1.57735,-431.367 L 1.67358,-431.163 L 1.74344,-430.948
 L 1.7858,-430.726 L 1.79999,-430.5 L 1.7858,-430.274 L 1.74344,-430.052 L 1.67358,-429.837 L 1.57735,-429.633
 L 1.45622,-429.442 L 1.31213,-429.268 L 1.14735,-429.113 L 0.964478,-428.98 L 0.766388,-428.871 L 0.556229,-428.788
 L 0.33728,-428.732 L 0.113022,-428.704 z
" stroke="black" fill="lightgray" stroke-width="0.5"/>
</svg>
