  0
SECTION
  2
BLOCKS
  0
ENDSEC
  0
SECTION
  2
ENTITIES
  0
LINE
  8
0
 10
10.9369
 20
219.089
 11
11.5451
 21
219.245
  0
LINE
  8
0
 10
11.5451
 20
219.245
 11
12.1289
 21
219.476
  0
LINE
  8
0
 10
12.1289
 20
219.476
 11
12.6791
 21
219.778
  0
LINE
  8
0
 10
12.6791
 20
219.778
 11
13.1871
 21
220.147
  0
LINE
  8
0
 10
13.1871
 20
220.147
 11
13.6448
 21
220.577
  0
LINE
  8
0
 10
13.6448
 20
220.577
 11
14.0451
 21
221.061
  0
LINE
  8
0
 10
14.0451
 20
221.061
 11
14.3815
 21
221.591
  0
LINE
  8
0
 10
14.3815
 20
221.591
 11
14.6489
 21
222.159
  0
LINE
  8
0
 10
14.6489
 20
222.159
 11
14.8429
 21
222.757
  0
LINE
  8
0
 10
14.8429
 20
222.757
 11
14.9606
 21
223.373
  0
LINE
  8
0
 10
14.9606
 20
223.373
 11
15
 21
224
  0
LINE
  8
0
 10
15
 20
224
 11
15
 21
244
  0
LINE
  8
0
 10
15
 20
244
 11
14.9606
 21
244.627
  0
LINE
  8
0
 10
14.9606
 20
244.627
 11
14.8429
 21
245.243
  0
LINE
  8
0
 10
14.8429
 20
245.243
 11
14.6489
 21
245.841
  0
LINE
  8
0
 10
14.6489
 20
245.841
 11
14.3815
 21
246.409
  0
LINE
  8
0
 10
14.3815
 20
246.409
 11
14.0451
 21
246.939
  0
LINE
  8
0
 10
14.0451
 20
246.939
 11
13.6448
 21
247.423
  0
LINE
  8
0
 10
13.6448
 20
247.423
 11
13.1871
 21
247.853
  0
LINE
  8
0
 10
13.1871
 20
247.853
 11
12.6791
 21
248.222
  0
LINE
  8
0
 10
12.6791
 20
248.222
 11
12.1289
 21
248.524
  0
LINE
  8
0
 10
12.1289
 20
248.524
 11
11.5451
 21
248.755
  0
LINE
  8
0
 10
11.5451
 20
248.755
 11
10.9369
 21
248.911
  0
LINE
  8
0
 10
10.9369
 20
248.911
 11
10.3139
 21
248.99
  0
LINE
  8
0
 10
10.3139
 20
248.99
 11
-10.3139
 21
248.99
  0
LINE
  8
0
 10
-10.3139
 20
248.99
 11
-10.9369
 21
248.911
  0
LINE
  8
0
 10
-10.9369
 20
248.911
 11
-11.5451
 21
248.755
  0
LINE
  8
0
 10
-11.5451
 20
248.755
 11
-12
 21
248.575
  0
LINE
  8
0
 10
-12
 20
248.575
 11
-12
 21
248.615
  0
LINE
  8
0
 10
-12
 20
248.615
 11
-15
 21
248.615
  0
LINE
  8
0
 10
-15
 20
248.615
 11
-15
 21
219.385
  0
LINE
  8
0
 10
-15
 20
219.385
 11
-12
 21
219.385
  0
LINE
  8
0
 10
-12
 20
219.385
 11
-12
 21
219.425
  0
LINE
  8
0
 10
-12
 20
219.425
 11
-11.5451
 21
219.245
  0
LINE
  8
0
 10
-11.5451
 20
219.245
 11
-10.9369
 21
219.089
  0
LINE
  8
0
 10
-10.9369
 20
219.089
 11
-10.3139
 21
219.01
  0
LINE
  8
0
 10
-10.3139
 20
219.01
 11
10.3139
 21
219.01
  0
LINE
  8
0
 10
10.3139
 20
219.01
 11
10.9369
 21
219.089
  0
LINE
  8
0
 10
-9.75116
 20
220.508
 11
-10.2495
 21
220.571
  0
LINE
  8
0
 10
-10.2495
 20
220.571
 11
-10.7361
 21
220.696
  0
LINE
  8
0
 10
-10.7361
 20
220.696
 11
-11.2031
 21
220.881
  0
LINE
  8
0
 10
-11.2031
 20
220.881
 11
-11.6433
 21
221.123
  0
LINE
  8
0
 10
-11.6433
 20
221.123
 11
-12.0497
 21
221.418
  0
LINE
  8
0
 10
-12.0497
 20
221.418
 11
-12.4159
 21
221.762
  0
LINE
  8
0
 10
-12.4159
 20
221.762
 11
-12.7361
 21
222.149
  0
LINE
  8
0
 10
-12.7361
 20
222.149
 11
-13.0052
 21
222.573
  0
LINE
  8
0
 10
-13.0052
 20
222.573
 11
-13.2191
 21
223.028
  0
LINE
  8
0
 10
-13.2191
 20
223.028
 11
-13.3743
 21
223.505
  0
LINE
  8
0
 10
-13.3743
 20
223.505
 11
-13.4684
 21
223.999
  0
LINE
  8
0
 10
-13.4684
 20
223.999
 11
-13.5
 21
224.5
  0
LINE
  8
0
 10
-13.5
 20
224.5
 11
-13.5
 21
243.5
  0
LINE
  8
0
 10
-13.5
 20
243.5
 11
-13.4684
 21
244.001
  0
LINE
  8
0
 10
-13.4684
 20
244.001
 11
-13.3743
 21
244.495
  0
LINE
  8
0
 10
-13.3743
 20
244.495
 11
-13.2191
 21
244.972
  0
LINE
  8
0
 10
-13.2191
 20
244.972
 11
-13.0052
 21
245.427
  0
LINE
  8
0
 10
-13.0052
 20
245.427
 11
-12.7361
 21
245.851
  0
LINE
  8
0
 10
-12.7361
 20
245.851
 11
-12.4159
 21
246.238
  0
LINE
  8
0
 10
-12.4159
 20
246.238
 11
-12.0497
 21
246.582
  0
LINE
  8
0
 10
-12.0497
 20
246.582
 11
-11.6433
 21
246.877
  0
LINE
  8
0
 10
-11.6433
 20
246.877
 11
-11.2031
 21
247.119
  0
LINE
  8
0
 10
-11.2031
 20
247.119
 11
-10.7361
 21
247.304
  0
LINE
  8
0
 10
-10.7361
 20
247.304
 11
-10.2495
 21
247.429
  0
LINE
  8
0
 10
-10.2495
 20
247.429
 11
-9.75116
 21
247.492
  0
LINE
  8
0
 10
-9.75116
 20
247.492
 11
9.75116
 21
247.492
  0
LINE
  8
0
 10
9.75116
 20
247.492
 11
10.2495
 21
247.429
  0
LINE
  8
0
 10
10.2495
 20
247.429
 11
10.7361
 21
247.304
  0
LINE
  8
0
 10
10.7361
 20
247.304
 11
11.2031
 21
247.119
  0
LINE
  8
0
 10
11.2031
 20
247.119
 11
11.6433
 21
246.877
  0
LINE
  8
0
 10
11.6433
 20
246.877
 11
12.0497
 21
246.582
  0
LINE
  8
0
 10
12.0497
 20
246.582
 11
12.4159
 21
246.238
  0
LINE
  8
0
 10
12.4159
 20
246.238
 11
12.7361
 21
245.851
  0
LINE
  8
0
 10
12.7361
 20
245.851
 11
13.0052
 21
245.427
  0
LINE
  8
0
 10
13.0052
 20
245.427
 11
13.2191
 21
244.972
  0
LINE
  8
0
 10
13.2191
 20
244.972
 11
13.3743
 21
244.495
  0
LINE
  8
0
 10
13.3743
 20
244.495
 11
13.4684
 21
244.001
  0
LINE
  8
0
 10
13.4684
 20
244.001
 11
13.5
 21
243.5
  0
LINE
  8
0
 10
13.5
 20
243.5
 11
13.5
 21
224.5
  0
LINE
  8
0
 10
13.5
 20
224.5
 11
13.4684
 21
223.999
  0
LINE
  8
0
 10
13.4684
 20
223.999
 11
13.3743
 21
223.505
  0
LINE
  8
0
 10
13.3743
 20
223.505
 11
13.2191
 21
223.028
  0
LINE
  8
0
 10
13.2191
 20
223.028
 11
13.0052
 21
222.573
  0
LINE
  8
0
 10
13.0052
 20
222.573
 11
12.7361
 21
222.149
  0
LINE
  8
0
 10
12.7361
 20
222.149
 11
12.4159
 21
221.762
  0
LINE
  8
0
 10
12.4159
 20
221.762
 11
12.0497
 21
221.418
  0
LINE
  8
0
 10
12.0497
 20
221.418
 11
11.6433
 21
221.123
  0
LINE
  8
0
 10
11.6433
 20
221.123
 11
11.2031
 21
220.881
  0
LINE
  8
0
 10
11.2031
 20
220.881
 11
10.7361
 21
220.696
  0
LINE
  8
0
 10
10.7361
 20
220.696
 11
10.2495
 21
220.571
  0
LINE
  8
0
 10
10.2495
 20
220.571
 11
9.75116
 21
220.508
  0
LINE
  8
0
 10
9.75116
 20
220.508
 11
-9.75116
 21
220.508
  0
LINE
  8
0
 10
10.9369
 20
180.089
 11
11.5451
 21
180.245
  0
LINE
  8
0
 10
11.5451
 20
180.245
 11
12.1289
 21
180.476
  0
LINE
  8
0
 10
12.1289
 20
180.476
 11
12.6791
 21
180.778
  0
LINE
  8
0
 10
12.6791
 20
180.778
 11
13.1871
 21
181.147
  0
LINE
  8
0
 10
13.1871
 20
181.147
 11
13.6448
 21
181.577
  0
LINE
  8
0
 10
13.6448
 20
181.577
 11
14.0451
 21
182.061
  0
LINE
  8
0
 10
14.0451
 20
182.061
 11
14.3815
 21
182.591
  0
LINE
  8
0
 10
14.3815
 20
182.591
 11
14.6489
 21
183.159
  0
LINE
  8
0
 10
14.6489
 20
183.159
 11
14.8429
 21
183.757
  0
LINE
  8
0
 10
14.8429
 20
183.757
 11
14.9606
 21
184.373
  0
LINE
  8
0
 10
14.9606
 20
184.373
 11
15
 21
185
  0
LINE
  8
0
 10
15
 20
185
 11
15
 21
205
  0
LINE
  8
0
 10
15
 20
205
 11
14.9606
 21
205.627
  0
LINE
  8
0
 10
14.9606
 20
205.627
 11
14.8429
 21
206.243
  0
LINE
  8
0
 10
14.8429
 20
206.243
 11
14.6489
 21
206.841
  0
LINE
  8
0
 10
14.6489
 20
206.841
 11
14.3815
 21
207.409
  0
LINE
  8
0
 10
14.3815
 20
207.409
 11
14.0451
 21
207.939
  0
LINE
  8
0
 10
14.0451
 20
207.939
 11
13.6448
 21
208.423
  0
LINE
  8
0
 10
13.6448
 20
208.423
 11
13.1871
 21
208.853
  0
LINE
  8
0
 10
13.1871
 20
208.853
 11
12.6791
 21
209.222
  0
LINE
  8
0
 10
12.6791
 20
209.222
 11
12.1289
 21
209.524
  0
LINE
  8
0
 10
12.1289
 20
209.524
 11
11.5451
 21
209.755
  0
LINE
  8
0
 10
11.5451
 20
209.755
 11
10.9369
 21
209.911
  0
LINE
  8
0
 10
10.9369
 20
209.911
 11
10.3139
 21
209.99
  0
LINE
  8
0
 10
10.3139
 20
209.99
 11
-10.3139
 21
209.99
  0
LINE
  8
0
 10
-10.3139
 20
209.99
 11
-10.9369
 21
209.911
  0
LINE
  8
0
 10
-10.9369
 20
209.911
 11
-11.5451
 21
209.755
  0
LINE
  8
0
 10
-11.5451
 20
209.755
 11
-12.1289
 21
209.524
  0
LINE
  8
0
 10
-12.1289
 20
209.524
 11
-12.6791
 21
209.222
  0
LINE
  8
0
 10
-12.6791
 20
209.222
 11
-13.1871
 21
208.853
  0
LINE
  8
0
 10
-13.1871
 20
208.853
 11
-13.6448
 21
208.423
  0
LINE
  8
0
 10
-13.6448
 20
208.423
 11
-14.0451
 21
207.939
  0
LINE
  8
0
 10
-14.0451
 20
207.939
 11
-14.3815
 21
207.409
  0
LINE
  8
0
 10
-14.3815
 20
207.409
 11
-14.6489
 21
206.841
  0
LINE
  8
0
 10
-14.6489
 20
206.841
 11
-14.8429
 21
206.243
  0
LINE
  8
0
 10
-14.8429
 20
206.243
 11
-14.9
 21
205.944
  0
LINE
  8
0
 10
-14.9
 20
205.944
 11
-15
 21
205.944
  0
LINE
  8
0
 10
-15
 20
205.944
 11
-15
 21
184.056
  0
LINE
  8
0
 10
-15
 20
184.056
 11
-14.9
 21
184.056
  0
LINE
  8
0
 10
-14.9
 20
184.056
 11
-14.8429
 21
183.757
  0
LINE
  8
0
 10
-14.8429
 20
183.757
 11
-14.6489
 21
183.159
  0
LINE
  8
0
 10
-14.6489
 20
183.159
 11
-14.3815
 21
182.591
  0
LINE
  8
0
 10
-14.3815
 20
182.591
 11
-14.0451
 21
182.061
  0
LINE
  8
0
 10
-14.0451
 20
182.061
 11
-13.6448
 21
181.577
  0
LINE
  8
0
 10
-13.6448
 20
181.577
 11
-13.1871
 21
181.147
  0
LINE
  8
0
 10
-13.1871
 20
181.147
 11
-12.6791
 21
180.778
  0
LINE
  8
0
 10
-12.6791
 20
180.778
 11
-12.1289
 21
180.476
  0
LINE
  8
0
 10
-12.1289
 20
180.476
 11
-11.5451
 21
180.245
  0
LINE
  8
0
 10
-11.5451
 20
180.245
 11
-10.9369
 21
180.089
  0
LINE
  8
0
 10
-10.9369
 20
180.089
 11
-10.3139
 21
180.01
  0
LINE
  8
0
 10
-10.3139
 20
180.01
 11
10.3139
 21
180.01
  0
LINE
  8
0
 10
10.3139
 20
180.01
 11
10.9369
 21
180.089
  0
LINE
  8
0
 10
-9.74316
 20
181.635
 11
-10.2256
 21
181.696
  0
LINE
  8
0
 10
-10.2256
 20
181.696
 11
-10.6967
 21
181.817
  0
LINE
  8
0
 10
-10.6967
 20
181.817
 11
-11.1489
 21
181.996
  0
LINE
  8
0
 10
-11.1489
 20
181.996
 11
-11.5751
 21
182.23
  0
LINE
  8
0
 10
-11.5751
 20
182.23
 11
-11.9685
 21
182.516
  0
LINE
  8
0
 10
-11.9685
 20
182.516
 11
-12.323
 21
182.849
  0
LINE
  8
0
 10
-12.323
 20
182.849
 11
-12.633
 21
183.224
  0
LINE
  8
0
 10
-12.633
 20
183.224
 11
-12.8936
 21
183.634
  0
LINE
  8
0
 10
-12.8936
 20
183.634
 11
-13.1007
 21
184.074
  0
LINE
  8
0
 10
-13.1007
 20
184.074
 11
-13.251
 21
184.537
  0
LINE
  8
0
 10
-13.251
 20
184.537
 11
-13.3421
 21
185.015
  0
LINE
  8
0
 10
-13.3421
 20
185.015
 11
-13.3726
 21
185.5
  0
LINE
  8
0
 10
-13.3726
 20
185.5
 11
-13.3726
 21
204.5
  0
LINE
  8
0
 10
-13.3726
 20
204.5
 11
-13.3421
 21
204.985
  0
LINE
  8
0
 10
-13.3421
 20
204.985
 11
-13.251
 21
205.463
  0
LINE
  8
0
 10
-13.251
 20
205.463
 11
-13.1007
 21
205.926
  0
LINE
  8
0
 10
-13.1007
 20
205.926
 11
-12.8936
 21
206.366
  0
LINE
  8
0
 10
-12.8936
 20
206.366
 11
-12.633
 21
206.776
  0
LINE
  8
0
 10
-12.633
 20
206.776
 11
-12.323
 21
207.151
  0
LINE
  8
0
 10
-12.323
 20
207.151
 11
-11.9685
 21
207.484
  0
LINE
  8
0
 10
-11.9685
 20
207.484
 11
-11.5751
 21
207.77
  0
LINE
  8
0
 10
-11.5751
 20
207.77
 11
-11.1489
 21
208.004
  0
LINE
  8
0
 10
-11.1489
 20
208.004
 11
-10.6967
 21
208.183
  0
LINE
  8
0
 10
-10.6967
 20
208.183
 11
-10.2256
 21
208.304
  0
LINE
  8
0
 10
-10.2256
 20
208.304
 11
-9.74316
 21
208.365
  0
LINE
  8
0
 10
-9.74316
 20
208.365
 11
9.74316
 21
208.365
  0
LINE
  8
0
 10
9.74316
 20
208.365
 11
10.2256
 21
208.304
  0
LINE
  8
0
 10
10.2256
 20
208.304
 11
10.6967
 21
208.183
  0
LINE
  8
0
 10
10.6967
 20
208.183
 11
11.1489
 21
208.004
  0
LINE
  8
0
 10
11.1489
 20
208.004
 11
11.5751
 21
207.77
  0
LINE
  8
0
 10
11.5751
 20
207.77
 11
11.9685
 21
207.484
  0
LINE
  8
0
 10
11.9685
 20
207.484
 11
12.323
 21
207.151
  0
LINE
  8
0
 10
12.323
 20
207.151
 11
12.633
 21
206.776
  0
LINE
  8
0
 10
12.633
 20
206.776
 11
12.8936
 21
206.366
  0
LINE
  8
0
 10
12.8936
 20
206.366
 11
13.1007
 21
205.926
  0
LINE
  8
0
 10
13.1007
 20
205.926
 11
13.251
 21
205.463
  0
LINE
  8
0
 10
13.251
 20
205.463
 11
13.3421
 21
204.985
  0
LINE
  8
0
 10
13.3421
 20
204.985
 11
13.3726
 21
204.5
  0
LINE
  8
0
 10
13.3726
 20
204.5
 11
13.3726
 21
185.5
  0
LINE
  8
0
 10
13.3726
 20
185.5
 11
13.3421
 21
185.015
  0
LINE
  8
0
 10
13.3421
 20
185.015
 11
13.251
 21
184.537
  0
LINE
  8
0
 10
13.251
 20
184.537
 11
13.1007
 21
184.074
  0
LINE
  8
0
 10
13.1007
 20
184.074
 11
12.8936
 21
183.634
  0
LINE
  8
0
 10
12.8936
 20
183.634
 11
12.633
 21
183.224
  0
LINE
  8
0
 10
12.633
 20
183.224
 11
12.323
 21
182.849
  0
LINE
  8
0
 10
12.323
 20
182.849
 11
11.9685
 21
182.516
  0
LINE
  8
0
 10
11.9685
 20
182.516
 11
11.5751
 21
182.23
  0
LINE
  8
0
 10
11.5751
 20
182.23
 11
11.1489
 21
181.996
  0
LINE
  8
0
 10
11.1489
 20
181.996
 11
10.6967
 21
181.817
  0
LINE
  8
0
 10
10.6967
 20
181.817
 11
10.2256
 21
181.696
  0
LINE
  8
0
 10
10.2256
 20
181.696
 11
9.74316
 21
181.635
  0
LINE
  8
0
 10
9.74316
 20
181.635
 11
-9.74316
 21
181.635
  0
LINE
  8
0
 10
10.9369
 20
141.089
 11
11.5451
 21
141.245
  0
LINE
  8
0
 10
11.5451
 20
141.245
 11
12.1289
 21
141.476
  0
LINE
  8
0
 10
12.1289
 20
141.476
 11
12.6791
 21
141.778
  0
LINE
  8
0
 10
12.6791
 20
141.778
 11
13.1871
 21
142.147
  0
LINE
  8
0
 10
13.1871
 20
142.147
 11
13.6448
 21
142.577
  0
LINE
  8
0
 10
13.6448
 20
142.577
 11
14.0451
 21
143.061
  0
LINE
  8
0
 10
14.0451
 20
143.061
 11
14.3815
 21
143.591
  0
LINE
  8
0
 10
14.3815
 20
143.591
 11
14.6489
 21
144.159
  0
LINE
  8
0
 10
14.6489
 20
144.159
 11
14.8429
 21
144.757
  0
LINE
  8
0
 10
14.8429
 20
144.757
 11
14.9606
 21
145.373
  0
LINE
  8
0
 10
14.9606
 20
145.373
 11
15
 21
146
  0
LINE
  8
0
 10
15
 20
146
 11
15
 21
166
  0
LINE
  8
0
 10
15
 20
166
 11
14.9606
 21
166.627
  0
LINE
  8
0
 10
14.9606
 20
166.627
 11
14.8429
 21
167.243
  0
LINE
  8
0
 10
14.8429
 20
167.243
 11
14.6489
 21
167.841
  0
LINE
  8
0
 10
14.6489
 20
167.841
 11
14.3815
 21
168.409
  0
LINE
  8
0
 10
14.3815
 20
168.409
 11
14.0451
 21
168.939
  0
LINE
  8
0
 10
14.0451
 20
168.939
 11
13.6448
 21
169.423
  0
LINE
  8
0
 10
13.6448
 20
169.423
 11
13.1871
 21
169.853
  0
LINE
  8
0
 10
13.1871
 20
169.853
 11
12.6791
 21
170.222
  0
LINE
  8
0
 10
12.6791
 20
170.222
 11
12.1289
 21
170.524
  0
LINE
  8
0
 10
12.1289
 20
170.524
 11
11.5451
 21
170.755
  0
LINE
  8
0
 10
11.5451
 20
170.755
 11
10.9369
 21
170.911
  0
LINE
  8
0
 10
10.9369
 20
170.911
 11
10.3139
 21
170.99
  0
LINE
  8
0
 10
10.3139
 20
170.99
 11
-10.3139
 21
170.99
  0
LINE
  8
0
 10
-10.3139
 20
170.99
 11
-10.9369
 21
170.911
  0
LINE
  8
0
 10
-10.9369
 20
170.911
 11
-11.5451
 21
170.755
  0
LINE
  8
0
 10
-11.5451
 20
170.755
 11
-12.1289
 21
170.524
  0
LINE
  8
0
 10
-12.1289
 20
170.524
 11
-12.6791
 21
170.222
  0
LINE
  8
0
 10
-12.6791
 20
170.222
 11
-13.1871
 21
169.853
  0
LINE
  8
0
 10
-13.1871
 20
169.853
 11
-13.6448
 21
169.423
  0
LINE
  8
0
 10
-13.6448
 20
169.423
 11
-14.0451
 21
168.939
  0
LINE
  8
0
 10
-14.0451
 20
168.939
 11
-14.3815
 21
168.409
  0
LINE
  8
0
 10
-14.3815
 20
168.409
 11
-14.6489
 21
167.841
  0
LINE
  8
0
 10
-14.6489
 20
167.841
 11
-14.8429
 21
167.243
  0
LINE
  8
0
 10
-14.8429
 20
167.243
 11
-14.9606
 21
166.627
  0
LINE
  8
0
 10
-14.9606
 20
166.627
 11
-15
 21
166
  0
LINE
  8
0
 10
-15
 20
166
 11
-15
 21
146
  0
LINE
  8
0
 10
-15
 20
146
 11
-14.9606
 21
145.373
  0
LINE
  8
0
 10
-14.9606
 20
145.373
 11
-14.8429
 21
144.757
  0
LINE
  8
0
 10
-14.8429
 20
144.757
 11
-14.6489
 21
144.159
  0
LINE
  8
0
 10
-14.6489
 20
144.159
 11
-14.3815
 21
143.591
  0
LINE
  8
0
 10
-14.3815
 20
143.591
 11
-14.0451
 21
143.061
  0
LINE
  8
0
 10
-14.0451
 20
143.061
 11
-13.6448
 21
142.577
  0
LINE
  8
0
 10
-13.6448
 20
142.577
 11
-13.1871
 21
142.147
  0
LINE
  8
0
 10
-13.1871
 20
142.147
 11
-12.6791
 21
141.778
  0
LINE
  8
0
 10
-12.6791
 20
141.778
 11
-12.1289
 21
141.476
  0
LINE
  8
0
 10
-12.1289
 20
141.476
 11
-11.5451
 21
141.245
  0
LINE
  8
0
 10
-11.5451
 20
141.245
 11
-10.9369
 21
141.089
  0
LINE
  8
0
 10
-10.9369
 20
141.089
 11
-10.3139
 21
141.01
  0
LINE
  8
0
 10
-10.3139
 20
141.01
 11
10.3139
 21
141.01
  0
LINE
  8
0
 10
10.3139
 20
141.01
 11
10.9369
 21
141.089
  0
LINE
  8
0
 10
-7.6507
 20
161.105
 11
-7.94971
 21
161.143
  0
LINE
  8
0
 10
-7.94971
 20
161.143
 11
-8.24164
 21
161.217
  0
LINE
  8
0
 10
-8.24164
 20
161.217
 11
-8.52187
 21
161.328
  0
LINE
  8
0
 10
-8.52187
 20
161.328
 11
-8.78598
 21
161.474
  0
LINE
  8
0
 10
-8.78598
 20
161.474
 11
-9.02982
 21
161.651
  0
LINE
  8
0
 10
-9.02982
 20
161.651
 11
-9.24951
 21
161.857
  0
LINE
  8
0
 10
-9.24951
 20
161.857
 11
-9.44164
 21
162.089
  0
LINE
  8
0
 10
-9.44164
 20
162.089
 11
-9.60313
 21
162.344
  0
LINE
  8
0
 10
-9.60313
 20
162.344
 11
-9.73146
 21
162.617
  0
LINE
  8
0
 10
-9.73146
 20
162.617
 11
-9.82458
 21
162.903
  0
LINE
  8
0
 10
-9.82458
 20
162.903
 11
-9.88107
 21
163.199
  0
LINE
  8
0
 10
-9.88107
 20
163.199
 11
-9.89999
 21
163.5
  0
LINE
  8
0
 10
-9.89999
 20
163.5
 11
-9.88107
 21
163.801
  0
LINE
  8
0
 10
-9.88107
 20
163.801
 11
-9.82458
 21
164.097
  0
LINE
  8
0
 10
-9.82458
 20
164.097
 11
-9.73146
 21
164.383
  0
LINE
  8
0
 10
-9.73146
 20
164.383
 11
-9.60313
 21
164.656
  0
LINE
  8
0
 10
-9.60313
 20
164.656
 11
-9.44164
 21
164.911
  0
LINE
  8
0
 10
-9.44164
 20
164.911
 11
-9.24951
 21
165.143
  0
LINE
  8
0
 10
-9.24951
 20
165.143
 11
-9.02982
 21
165.349
  0
LINE
  8
0
 10
-9.02982
 20
165.349
 11
-8.78598
 21
165.526
  0
LINE
  8
0
 10
-8.78598
 20
165.526
 11
-8.52187
 21
165.672
  0
LINE
  8
0
 10
-8.52187
 20
165.672
 11
-8.24164
 21
165.783
  0
LINE
  8
0
 10
-8.24164
 20
165.783
 11
-7.94971
 21
165.857
  0
LINE
  8
0
 10
-7.94971
 20
165.857
 11
-7.6507
 21
165.895
  0
LINE
  8
0
 10
-7.6507
 20
165.895
 11
-7.34929
 21
165.895
  0
LINE
  8
0
 10
-7.34929
 20
165.895
 11
-7.05028
 21
165.857
  0
LINE
  8
0
 10
-7.05028
 20
165.857
 11
-6.75835
 21
165.783
  0
LINE
  8
0
 10
-6.75835
 20
165.783
 11
-6.47812
 21
165.672
  0
LINE
  8
0
 10
-6.47812
 20
165.672
 11
-6.214
 21
165.526
  0
LINE
  8
0
 10
-6.214
 20
165.526
 11
-5.97017
 21
165.349
  0
LINE
  8
0
 10
-5.97017
 20
165.349
 11
-5.75047
 21
165.143
  0
LINE
  8
0
 10
-5.75047
 20
165.143
 11
-5.55835
 21
164.911
  0
LINE
  8
0
 10
-5.55835
 20
164.911
 11
-5.39685
 21
164.656
  0
LINE
  8
0
 10
-5.39685
 20
164.656
 11
-5.26852
 21
164.383
  0
LINE
  8
0
 10
-5.26852
 20
164.383
 11
-5.1754
 21
164.097
  0
LINE
  8
0
 10
-5.1754
 20
164.097
 11
-5.11891
 21
163.801
  0
LINE
  8
0
 10
-5.11891
 20
163.801
 11
-5.09999
 21
163.5
  0
LINE
  8
0
 10
-5.09999
 20
163.5
 11
-5.11891
 21
163.199
  0
LINE
  8
0
 10
-5.11891
 20
163.199
 11
-5.1754
 21
162.903
  0
LINE
  8
0
 10
-5.1754
 20
162.903
 11
-5.26852
 21
162.617
  0
LINE
  8
0
 10
-5.26852
 20
162.617
 11
-5.39685
 21
162.344
  0
LINE
  8
0
 10
-5.39685
 20
162.344
 11
-5.55835
 21
162.089
  0
LINE
  8
0
 10
-5.55835
 20
162.089
 11
-5.75047
 21
161.857
  0
LINE
  8
0
 10
-5.75047
 20
161.857
 11
-5.97017
 21
161.651
  0
LINE
  8
0
 10
-5.97017
 20
161.651
 11
-6.214
 21
161.474
  0
LINE
  8
0
 10
-6.214
 20
161.474
 11
-6.47812
 21
161.328
  0
LINE
  8
0
 10
-6.47812
 20
161.328
 11
-6.75835
 21
161.217
  0
LINE
  8
0
 10
-6.75835
 20
161.217
 11
-7.05028
 21
161.143
  0
LINE
  8
0
 10
-7.05028
 20
161.143
 11
-7.34929
 21
161.105
  0
LINE
  8
0
 10
-7.34929
 20
161.105
 11
-7.6507
 21
161.105
  0
LINE
  8
0
 10
7.34929
 20
161.105
 11
7.05028
 21
161.143
  0
LINE
  8
0
 10
7.05028
 20
161.143
 11
6.75835
 21
161.217
  0
LINE
  8
0
 10
6.75835
 20
161.217
 11
6.47812
 21
161.328
  0
LINE
  8
0
 10
6.47812
 20
161.328
 11
6.214
 21
161.474
  0
LINE
  8
0
 10
6.214
 20
161.474
 11
5.97017
 21
161.651
  0
LINE
  8
0
 10
5.97017
 20
161.651
 11
5.75047
 21
161.857
  0
LINE
  8
0
 10
5.75047
 20
161.857
 11
5.55835
 21
162.089
  0
LINE
  8
0
 10
5.55835
 20
162.089
 11
5.39685
 21
162.344
  0
LINE
  8
0
 10
5.39685
 20
162.344
 11
5.26852
 21
162.617
  0
LINE
  8
0
 10
5.26852
 20
162.617
 11
5.1754
 21
162.903
  0
LINE
  8
0
 10
5.1754
 20
162.903
 11
5.11891
 21
163.199
  0
LINE
  8
0
 10
5.11891
 20
163.199
 11
5.09999
 21
163.5
  0
LINE
  8
0
 10
5.09999
 20
163.5
 11
5.11891
 21
163.801
  0
LINE
  8
0
 10
5.11891
 20
163.801
 11
5.1754
 21
164.097
  0
LINE
  8
0
 10
5.1754
 20
164.097
 11
5.26852
 21
164.383
  0
LINE
  8
0
 10
5.26852
 20
164.383
 11
5.39685
 21
164.656
  0
LINE
  8
0
 10
5.39685
 20
164.656
 11
5.55835
 21
164.911
  0
LINE
  8
0
 10
5.55835
 20
164.911
 11
5.75047
 21
165.143
  0
LINE
  8
0
 10
5.75047
 20
165.143
 11
5.97017
 21
165.349
  0
LINE
  8
0
 10
5.97017
 20
165.349
 11
6.214
 21
165.526
  0
LINE
  8
0
 10
6.214
 20
165.526
 11
6.47812
 21
165.672
  0
LINE
  8
0
 10
6.47812
 20
165.672
 11
6.75835
 21
165.783
  0
LINE
  8
0
 10
6.75835
 20
165.783
 11
7.05028
 21
165.857
  0
LINE
  8
0
 10
7.05028
 20
165.857
 11
7.34929
 21
165.895
  0
LINE
  8
0
 10
7.34929
 20
165.895
 11
7.6507
 21
165.895
  0
LINE
  8
0
 10
7.6507
 20
165.895
 11
7.94971
 21
165.857
  0
LINE
  8
0
 10
7.94971
 20
165.857
 11
8.24164
 21
165.783
  0
LINE
  8
0
 10
8.24164
 20
165.783
 11
8.52187
 21
165.672
  0
LINE
  8
0
 10
8.52187
 20
165.672
 11
8.78598
 21
165.526
  0
LINE
  8
0
 10
8.78598
 20
165.526
 11
9.02982
 21
165.349
  0
LINE
  8
0
 10
9.02982
 20
165.349
 11
9.24951
 21
165.143
  0
LINE
  8
0
 10
9.24951
 20
165.143
 11
9.44164
 21
164.911
  0
LINE
  8
0
 10
9.44164
 20
164.911
 11
9.60313
 21
164.656
  0
LINE
  8
0
 10
9.60313
 20
164.656
 11
9.73146
 21
164.383
  0
LINE
  8
0
 10
9.73146
 20
164.383
 11
9.82458
 21
164.097
  0
LINE
  8
0
 10
9.82458
 20
164.097
 11
9.88107
 21
163.801
  0
LINE
  8
0
 10
9.88107
 20
163.801
 11
9.89999
 21
163.5
  0
LINE
  8
0
 10
9.89999
 20
163.5
 11
9.88107
 21
163.199
  0
LINE
  8
0
 10
9.88107
 20
163.199
 11
9.82458
 21
162.903
  0
LINE
  8
0
 10
9.82458
 20
162.903
 11
9.73146
 21
162.617
  0
LINE
  8
0
 10
9.73146
 20
162.617
 11
9.60313
 21
162.344
  0
LINE
  8
0
 10
9.60313
 20
162.344
 11
9.44164
 21
162.089
  0
LINE
  8
0
 10
9.44164
 20
162.089
 11
9.24951
 21
161.857
  0
LINE
  8
0
 10
9.24951
 20
161.857
 11
9.02982
 21
161.651
  0
LINE
  8
0
 10
9.02982
 20
161.651
 11
8.78598
 21
161.474
  0
LINE
  8
0
 10
8.78598
 20
161.474
 11
8.52187
 21
161.328
  0
LINE
  8
0
 10
8.52187
 20
161.328
 11
8.24164
 21
161.217
  0
LINE
  8
0
 10
8.24164
 20
161.217
 11
7.94971
 21
161.143
  0
LINE
  8
0
 10
7.94971
 20
161.143
 11
7.6507
 21
161.105
  0
LINE
  8
0
 10
7.6507
 20
161.105
 11
7.34929
 21
161.105
  0
LINE
  8
0
 10
7.34929
 20
146.105
 11
7.05028
 21
146.143
  0
LINE
  8
0
 10
7.05028
 20
146.143
 11
6.75835
 21
146.217
  0
LINE
  8
0
 10
6.75835
 20
146.217
 11
6.47812
 21
146.328
  0
LINE
  8
0
 10
6.47812
 20
146.328
 11
6.214
 21
146.474
  0
LINE
  8
0
 10
6.214
 20
146.474
 11
5.97017
 21
146.651
  0
LINE
  8
0
 10
5.97017
 20
146.651
 11
5.75047
 21
146.857
  0
LINE
  8
0
 10
5.75047
 20
146.857
 11
5.55835
 21
147.089
  0
LINE
  8
0
 10
5.55835
 20
147.089
 11
5.39685
 21
147.344
  0
LINE
  8
0
 10
5.39685
 20
147.344
 11
5.26852
 21
147.617
  0
LINE
  8
0
 10
5.26852
 20
147.617
 11
5.1754
 21
147.903
  0
LINE
  8
0
 10
5.1754
 20
147.903
 11
5.11891
 21
148.199
  0
LINE
  8
0
 10
5.11891
 20
148.199
 11
5.09999
 21
148.5
  0
LINE
  8
0
 10
5.09999
 20
148.5
 11
5.11891
 21
148.801
  0
LINE
  8
0
 10
5.11891
 20
148.801
 11
5.1754
 21
149.097
  0
LINE
  8
0
 10
5.1754
 20
149.097
 11
5.26852
 21
149.383
  0
LINE
  8
0
 10
5.26852
 20
149.383
 11
5.39685
 21
149.656
  0
LINE
  8
0
 10
5.39685
 20
149.656
 11
5.55835
 21
149.911
  0
LINE
  8
0
 10
5.55835
 20
149.911
 11
5.75047
 21
150.143
  0
LINE
  8
0
 10
5.75047
 20
150.143
 11
5.97017
 21
150.349
  0
LINE
  8
0
 10
5.97017
 20
150.349
 11
6.214
 21
150.526
  0
LINE
  8
0
 10
6.214
 20
150.526
 11
6.47812
 21
150.672
  0
LINE
  8
0
 10
6.47812
 20
150.672
 11
6.75835
 21
150.783
  0
LINE
  8
0
 10
6.75835
 20
150.783
 11
7.05028
 21
150.857
  0
LINE
  8
0
 10
7.05028
 20
150.857
 11
7.34929
 21
150.895
  0
LINE
  8
0
 10
7.34929
 20
150.895
 11
7.6507
 21
150.895
  0
LINE
  8
0
 10
7.6507
 20
150.895
 11
7.94971
 21
150.857
  0
LINE
  8
0
 10
7.94971
 20
150.857
 11
8.24164
 21
150.783
  0
LINE
  8
0
 10
8.24164
 20
150.783
 11
8.52187
 21
150.672
  0
LINE
  8
0
 10
8.52187
 20
150.672
 11
8.78598
 21
150.526
  0
LINE
  8
0
 10
8.78598
 20
150.526
 11
9.02982
 21
150.349
  0
LINE
  8
0
 10
9.02982
 20
150.349
 11
9.24951
 21
150.143
  0
LINE
  8
0
 10
9.24951
 20
150.143
 11
9.44164
 21
149.911
  0
LINE
  8
0
 10
9.44164
 20
149.911
 11
9.60313
 21
149.656
  0
LINE
  8
0
 10
9.60313
 20
149.656
 11
9.73146
 21
149.383
  0
LINE
  8
0
 10
9.73146
 20
149.383
 11
9.82458
 21
149.097
  0
LINE
  8
0
 10
9.82458
 20
149.097
 11
9.88107
 21
148.801
  0
LINE
  8
0
 10
9.88107
 20
148.801
 11
9.89999
 21
148.5
  0
LINE
  8
0
 10
9.89999
 20
148.5
 11
9.88107
 21
148.199
  0
LINE
  8
0
 10
9.88107
 20
148.199
 11
9.82458
 21
147.903
  0
LINE
  8
0
 10
9.82458
 20
147.903
 11
9.73146
 21
147.617
  0
LINE
  8
0
 10
9.73146
 20
147.617
 11
9.60313
 21
147.344
  0
LINE
  8
0
 10
9.60313
 20
147.344
 11
9.44164
 21
147.089
  0
LINE
  8
0
 10
9.44164
 20
147.089
 11
9.24951
 21
146.857
  0
LINE
  8
0
 10
9.24951
 20
146.857
 11
9.02982
 21
146.651
  0
LINE
  8
0
 10
9.02982
 20
146.651
 11
8.78598
 21
146.474
  0
LINE
  8
0
 10
8.78598
 20
146.474
 11
8.52187
 21
146.328
  0
LINE
  8
0
 10
8.52187
 20
146.328
 11
8.24164
 21
146.217
  0
LINE
  8
0
 10
8.24164
 20
146.217
 11
7.94971
 21
146.143
  0
LINE
  8
0
 10
7.94971
 20
146.143
 11
7.6507
 21
146.105
  0
LINE
  8
0
 10
7.6507
 20
146.105
 11
7.34929
 21
146.105
  0
LINE
  8
0
 10
-7.6507
 20
146.105
 11
-7.94971
 21
146.143
  0
LINE
  8
0
 10
-7.94971
 20
146.143
 11
-8.24164
 21
146.217
  0
LINE
  8
0
 10
-8.24164
 20
146.217
 11
-8.52187
 21
146.328
  0
LINE
  8
0
 10
-8.52187
 20
146.328
 11
-8.78598
 21
146.474
  0
LINE
  8
0
 10
-8.78598
 20
146.474
 11
-9.02982
 21
146.651
  0
LINE
  8
0
 10
-9.02982
 20
146.651
 11
-9.24951
 21
146.857
  0
LINE
  8
0
 10
-9.24951
 20
146.857
 11
-9.44164
 21
147.089
  0
LINE
  8
0
 10
-9.44164
 20
147.089
 11
-9.60313
 21
147.344
  0
LINE
  8
0
 10
-9.60313
 20
147.344
 11
-9.73146
 21
147.617
  0
LINE
  8
0
 10
-9.73146
 20
147.617
 11
-9.82458
 21
147.903
  0
LINE
  8
0
 10
-9.82458
 20
147.903
 11
-9.88107
 21
148.199
  0
LINE
  8
0
 10
-9.88107
 20
148.199
 11
-9.89999
 21
148.5
  0
LINE
  8
0
 10
-9.89999
 20
148.5
 11
-9.88107
 21
148.801
  0
LINE
  8
0
 10
-9.88107
 20
148.801
 11
-9.82458
 21
149.097
  0
LINE
  8
0
 10
-9.82458
 20
149.097
 11
-9.73146
 21
149.383
  0
LINE
  8
0
 10
-9.73146
 20
149.383
 11
-9.60313
 21
149.656
  0
LINE
  8
0
 10
-9.60313
 20
149.656
 11
-9.44164
 21
149.911
  0
LINE
  8
0
 10
-9.44164
 20
149.911
 11
-9.24951
 21
150.143
  0
LINE
  8
0
 10
-9.24951
 20
150.143
 11
-9.02982
 21
150.349
  0
LINE
  8
0
 10
-9.02982
 20
150.349
 11
-8.78598
 21
150.526
  0
LINE
  8
0
 10
-8.78598
 20
150.526
 11
-8.52187
 21
150.672
  0
LINE
  8
0
 10
-8.52187
 20
150.672
 11
-8.24164
 21
150.783
  0
LINE
  8
0
 10
-8.24164
 20
150.783
 11
-7.94971
 21
150.857
  0
LINE
  8
0
 10
-7.94971
 20
150.857
 11
-7.6507
 21
150.895
  0
LINE
  8
0
 10
-7.6507
 20
150.895
 11
-7.34929
 21
150.895
  0
LINE
  8
0
 10
-7.34929
 20
150.895
 11
-7.05028
 21
150.857
  0
LINE
  8
0
 10
-7.05028
 20
150.857
 11
-6.75835
 21
150.783
  0
LINE
  8
0
 10
-6.75835
 20
150.783
 11
-6.47812
 21
150.672
  0
LINE
  8
0
 10
-6.47812
 20
150.672
 11
-6.214
 21
150.526
  0
LINE
  8
0
 10
-6.214
 20
150.526
 11
-5.97017
 21
150.349
  0
LINE
  8
0
 10
-5.97017
 20
150.349
 11
-5.75047
 21
150.143
  0
LINE
  8
0
 10
-5.75047
 20
150.143
 11
-5.55835
 21
149.911
  0
LINE
  8
0
 10
-5.55835
 20
149.911
 11
-5.39685
 21
149.656
  0
LINE
  8
0
 10
-5.39685
 20
149.656
 11
-5.26852
 21
149.383
  0
LINE
  8
0
 10
-5.26852
 20
149.383
 11
-5.1754
 21
149.097
  0
LINE
  8
0
 10
-5.1754
 20
149.097
 11
-5.11891
 21
148.801
  0
LINE
  8
0
 10
-5.11891
 20
148.801
 11
-5.09999
 21
148.5
  0
LINE
  8
0
 10
-5.09999
 20
148.5
 11
-5.11891
 21
148.199
  0
LINE
  8
0
 10
-5.11891
 20
148.199
 11
-5.1754
 21
147.903
  0
LINE
  8
0
 10
-5.1754
 20
147.903
 11
-5.26852
 21
147.617
  0
LINE
  8
0
 10
-5.26852
 20
147.617
 11
-5.39685
 21
147.344
  0
LINE
  8
0
 10
-5.39685
 20
147.344
 11
-5.55835
 21
147.089
  0
LINE
  8
0
 10
-5.55835
 20
147.089
 11
-5.75047
 21
146.857
  0
LINE
  8
0
 10
-5.75047
 20
146.857
 11
-5.97017
 21
146.651
  0
LINE
  8
0
 10
-5.97017
 20
146.651
 11
-6.214
 21
146.474
  0
LINE
  8
0
 10
-6.214
 20
146.474
 11
-6.47812
 21
146.328
  0
LINE
  8
0
 10
-6.47812
 20
146.328
 11
-6.75835
 21
146.217
  0
LINE
  8
0
 10
-6.75835
 20
146.217
 11
-7.05028
 21
146.143
  0
LINE
  8
0
 10
-7.05028
 20
146.143
 11
-7.34929
 21
146.105
  0
LINE
  8
0
 10
-7.34929
 20
146.105
 11
-7.6507
 21
146.105
  0
LINE
  8
0
 10
10.9369
 20
102.089
 11
11.5451
 21
102.245
  0
LINE
  8
0
 10
11.5451
 20
102.245
 11
12.1289
 21
102.476
  0
LINE
  8
0
 10
12.1289
 20
102.476
 11
12.6791
 21
102.778
  0
LINE
  8
0
 10
12.6791
 20
102.778
 11
13.1871
 21
103.147
  0
LINE
  8
0
 10
13.1871
 20
103.147
 11
13.6448
 21
103.577
  0
LINE
  8
0
 10
13.6448
 20
103.577
 11
14.0451
 21
104.061
  0
LINE
  8
0
 10
14.0451
 20
104.061
 11
14.3815
 21
104.591
  0
LINE
  8
0
 10
14.3815
 20
104.591
 11
14.6489
 21
105.159
  0
LINE
  8
0
 10
14.6489
 20
105.159
 11
14.8429
 21
105.757
  0
LINE
  8
0
 10
14.8429
 20
105.757
 11
14.9606
 21
106.373
  0
LINE
  8
0
 10
14.9606
 20
106.373
 11
15
 21
107
  0
LINE
  8
0
 10
15
 20
107
 11
15
 21
127
  0
LINE
  8
0
 10
15
 20
127
 11
14.9606
 21
127.627
  0
LINE
  8
0
 10
14.9606
 20
127.627
 11
14.8429
 21
128.243
  0
LINE
  8
0
 10
14.8429
 20
128.243
 11
14.6489
 21
128.841
  0
LINE
  8
0
 10
14.6489
 20
128.841
 11
14.3815
 21
129.409
  0
LINE
  8
0
 10
14.3815
 20
129.409
 11
14.0451
 21
129.939
  0
LINE
  8
0
 10
14.0451
 20
129.939
 11
13.6448
 21
130.423
  0
LINE
  8
0
 10
13.6448
 20
130.423
 11
13.1871
 21
130.853
  0
LINE
  8
0
 10
13.1871
 20
130.853
 11
12.6791
 21
131.222
  0
LINE
  8
0
 10
12.6791
 20
131.222
 11
12.1289
 21
131.524
  0
LINE
  8
0
 10
12.1289
 20
131.524
 11
11.5451
 21
131.755
  0
LINE
  8
0
 10
11.5451
 20
131.755
 11
10.9369
 21
131.911
  0
LINE
  8
0
 10
10.9369
 20
131.911
 11
10.3139
 21
131.99
  0
LINE
  8
0
 10
10.3139
 20
131.99
 11
-10.3139
 21
131.99
  0
LINE
  8
0
 10
-10.3139
 20
131.99
 11
-10.9369
 21
131.911
  0
LINE
  8
0
 10
-10.9369
 20
131.911
 11
-11.5451
 21
131.755
  0
LINE
  8
0
 10
-11.5451
 20
131.755
 11
-12.1289
 21
131.524
  0
LINE
  8
0
 10
-12.1289
 20
131.524
 11
-12.6791
 21
131.222
  0
LINE
  8
0
 10
-12.6791
 20
131.222
 11
-13.1871
 21
130.853
  0
LINE
  8
0
 10
-13.1871
 20
130.853
 11
-13.6448
 21
130.423
  0
LINE
  8
0
 10
-13.6448
 20
130.423
 11
-14.0451
 21
129.939
  0
LINE
  8
0
 10
-14.0451
 20
129.939
 11
-14.3815
 21
129.409
  0
LINE
  8
0
 10
-14.3815
 20
129.409
 11
-14.6489
 21
128.841
  0
LINE
  8
0
 10
-14.6489
 20
128.841
 11
-14.8429
 21
128.243
  0
LINE
  8
0
 10
-14.8429
 20
128.243
 11
-14.9606
 21
127.627
  0
LINE
  8
0
 10
-14.9606
 20
127.627
 11
-15
 21
127
  0
LINE
  8
0
 10
-15
 20
127
 11
-15
 21
107
  0
LINE
  8
0
 10
-15
 20
107
 11
-14.9606
 21
106.373
  0
LINE
  8
0
 10
-14.9606
 20
106.373
 11
-14.8429
 21
105.757
  0
LINE
  8
0
 10
-14.8429
 20
105.757
 11
-14.6489
 21
105.159
  0
LINE
  8
0
 10
-14.6489
 20
105.159
 11
-14.3815
 21
104.591
  0
LINE
  8
0
 10
-14.3815
 20
104.591
 11
-14.0451
 21
104.061
  0
LINE
  8
0
 10
-14.0451
 20
104.061
 11
-13.6448
 21
103.577
  0
LINE
  8
0
 10
-13.6448
 20
103.577
 11
-13.1871
 21
103.147
  0
LINE
  8
0
 10
-13.1871
 20
103.147
 11
-12.6791
 21
102.778
  0
LINE
  8
0
 10
-12.6791
 20
102.778
 11
-12.1289
 21
102.476
  0
LINE
  8
0
 10
-12.1289
 20
102.476
 11
-11.5451
 21
102.245
  0
LINE
  8
0
 10
-11.5451
 20
102.245
 11
-10.9369
 21
102.089
  0
LINE
  8
0
 10
-10.9369
 20
102.089
 11
-10.3139
 21
102.01
  0
LINE
  8
0
 10
-10.3139
 20
102.01
 11
10.3139
 21
102.01
  0
LINE
  8
0
 10
10.3139
 20
102.01
 11
10.9369
 21
102.089
  0
LINE
  8
0
 10
7.38696
 20
122.704
 11
7.1627
 21
122.732
  0
LINE
  8
0
 10
7.1627
 20
122.732
 11
6.94376
 21
122.788
  0
LINE
  8
0
 10
6.94376
 20
122.788
 11
6.7336
 21
122.871
  0
LINE
  8
0
 10
6.7336
 20
122.871
 11
6.53551
 21
122.98
  0
LINE
  8
0
 10
6.53551
 20
122.98
 11
6.35263
 21
123.113
  0
LINE
  8
0
 10
6.35263
 20
123.113
 11
6.18785
 21
123.268
  0
LINE
  8
0
 10
6.18785
 20
123.268
 11
6.04376
 21
123.442
  0
LINE
  8
0
 10
6.04376
 20
123.442
 11
5.92264
 21
123.633
  0
LINE
  8
0
 10
5.92264
 20
123.633
 11
5.8264
 21
123.837
  0
LINE
  8
0
 10
5.8264
 20
123.837
 11
5.75655
 21
124.052
  0
LINE
  8
0
 10
5.75655
 20
124.052
 11
5.71419
 21
124.274
  0
LINE
  8
0
 10
5.71419
 20
124.274
 11
5.7
 21
124.5
  0
LINE
  8
0
 10
5.7
 20
124.5
 11
5.71419
 21
124.726
  0
LINE
  8
0
 10
5.71419
 20
124.726
 11
5.75655
 21
124.948
  0
LINE
  8
0
 10
5.75655
 20
124.948
 11
5.8264
 21
125.163
  0
LINE
  8
0
 10
5.8264
 20
125.163
 11
5.92264
 21
125.367
  0
LINE
  8
0
 10
5.92264
 20
125.367
 11
6.04376
 21
125.558
  0
LINE
  8
0
 10
6.04376
 20
125.558
 11
6.18785
 21
125.732
  0
LINE
  8
0
 10
6.18785
 20
125.732
 11
6.35263
 21
125.887
  0
LINE
  8
0
 10
6.35263
 20
125.887
 11
6.53551
 21
126.02
  0
LINE
  8
0
 10
6.53551
 20
126.02
 11
6.7336
 21
126.129
  0
LINE
  8
0
 10
6.7336
 20
126.129
 11
6.94376
 21
126.212
  0
LINE
  8
0
 10
6.94376
 20
126.212
 11
7.1627
 21
126.268
  0
LINE
  8
0
 10
7.1627
 20
126.268
 11
7.38696
 21
126.296
  0
LINE
  8
0
 10
7.38696
 20
126.296
 11
7.61302
 21
126.296
  0
LINE
  8
0
 10
7.61302
 20
126.296
 11
7.83728
 21
126.268
  0
LINE
  8
0
 10
7.83728
 20
126.268
 11
8.05623
 21
126.212
  0
LINE
  8
0
 10
8.05623
 20
126.212
 11
8.26639
 21
126.129
  0
LINE
  8
0
 10
8.26639
 20
126.129
 11
8.46448
 21
126.02
  0
LINE
  8
0
 10
8.46448
 20
126.02
 11
8.64735
 21
125.887
  0
LINE
  8
0
 10
8.64735
 20
125.887
 11
8.81213
 21
125.732
  0
LINE
  8
0
 10
8.81213
 20
125.732
 11
8.95622
 21
125.558
  0
LINE
  8
0
 10
8.95622
 20
125.558
 11
9.07735
 21
125.367
  0
LINE
  8
0
 10
9.07735
 20
125.367
 11
9.17358
 21
125.163
  0
LINE
  8
0
 10
9.17358
 20
125.163
 11
9.24344
 21
124.948
  0
LINE
  8
0
 10
9.24344
 20
124.948
 11
9.2858
 21
124.726
  0
LINE
  8
0
 10
9.2858
 20
124.726
 11
9.29999
 21
124.5
  0
LINE
  8
0
 10
9.29999
 20
124.5
 11
9.2858
 21
124.274
  0
LINE
  8
0
 10
9.2858
 20
124.274
 11
9.24344
 21
124.052
  0
LINE
  8
0
 10
9.24344
 20
124.052
 11
9.17358
 21
123.837
  0
LINE
  8
0
 10
9.17358
 20
123.837
 11
9.07735
 21
123.633
  0
LINE
  8
0
 10
9.07735
 20
123.633
 11
8.95622
 21
123.442
  0
LINE
  8
0
 10
8.95622
 20
123.442
 11
8.81213
 21
123.268
  0
LINE
  8
0
 10
8.81213
 20
123.268
 11
8.64735
 21
123.113
  0
LINE
  8
0
 10
8.64735
 20
123.113
 11
8.46448
 21
122.98
  0
LINE
  8
0
 10
8.46448
 20
122.98
 11
8.26639
 21
122.871
  0
LINE
  8
0
 10
8.26639
 20
122.871
 11
8.05623
 21
122.788
  0
LINE
  8
0
 10
8.05623
 20
122.788
 11
7.83728
 21
122.732
  0
LINE
  8
0
 10
7.83728
 20
122.732
 11
7.61302
 21
122.704
  0
LINE
  8
0
 10
7.61302
 20
122.704
 11
7.38696
 21
122.704
  0
LINE
  8
0
 10
-7.61302
 20
122.704
 11
-7.83728
 21
122.732
  0
LINE
  8
0
 10
-7.83728
 20
122.732
 11
-8.05623
 21
122.788
  0
LINE
  8
0
 10
-8.05623
 20
122.788
 11
-8.26639
 21
122.871
  0
LINE
  8
0
 10
-8.26639
 20
122.871
 11
-8.46448
 21
122.98
  0
LINE
  8
0
 10
-8.46448
 20
122.98
 11
-8.64735
 21
123.113
  0
LINE
  8
0
 10
-8.64735
 20
123.113
 11
-8.81213
 21
123.268
  0
LINE
  8
0
 10
-8.81213
 20
123.268
 11
-8.95622
 21
123.442
  0
LINE
  8
0
 10
-8.95622
 20
123.442
 11
-9.07735
 21
123.633
  0
LINE
  8
0
 10
-9.07735
 20
123.633
 11
-9.17358
 21
123.837
  0
LINE
  8
0
 10
-9.17358
 20
123.837
 11
-9.24344
 21
124.052
  0
LINE
  8
0
 10
-9.24344
 20
124.052
 11
-9.2858
 21
124.274
  0
LINE
  8
0
 10
-9.2858
 20
124.274
 11
-9.29999
 21
124.5
  0
LINE
  8
0
 10
-9.29999
 20
124.5
 11
-9.2858
 21
124.726
  0
LINE
  8
0
 10
-9.2858
 20
124.726
 11
-9.24344
 21
124.948
  0
LINE
  8
0
 10
-9.24344
 20
124.948
 11
-9.17358
 21
125.163
  0
LINE
  8
0
 10
-9.17358
 20
125.163
 11
-9.07735
 21
125.367
  0
LINE
  8
0
 10
-9.07735
 20
125.367
 11
-8.95622
 21
125.558
  0
LINE
  8
0
 10
-8.95622
 20
125.558
 11
-8.81213
 21
125.732
  0
LINE
  8
0
 10
-8.81213
 20
125.732
 11
-8.64735
 21
125.887
  0
LINE
  8
0
 10
-8.64735
 20
125.887
 11
-8.46448
 21
126.02
  0
LINE
  8
0
 10
-8.46448
 20
126.02
 11
-8.26639
 21
126.129
  0
LINE
  8
0
 10
-8.26639
 20
126.129
 11
-8.05623
 21
126.212
  0
LINE
  8
0
 10
-8.05623
 20
126.212
 11
-7.83728
 21
126.268
  0
LINE
  8
0
 10
-7.83728
 20
126.268
 11
-7.61302
 21
126.296
  0
LINE
  8
0
 10
-7.61302
 20
126.296
 11
-7.38696
 21
126.296
  0
LINE
  8
0
 10
-7.38696
 20
126.296
 11
-7.1627
 21
126.268
  0
LINE
  8
0
 10
-7.1627
 20
126.268
 11
-6.94376
 21
126.212
  0
LINE
  8
0
 10
-6.94376
 20
126.212
 11
-6.7336
 21
126.129
  0
LINE
  8
0
 10
-6.7336
 20
126.129
 11
-6.53551
 21
126.02
  0
LINE
  8
0
 10
-6.53551
 20
126.02
 11
-6.35263
 21
125.887
  0
LINE
  8
0
 10
-6.35263
 20
125.887
 11
-6.18785
 21
125.732
  0
LINE
  8
0
 10
-6.18785
 20
125.732
 11
-6.04376
 21
125.558
  0
LINE
  8
0
 10
-6.04376
 20
125.558
 11
-5.92264
 21
125.367
  0
LINE
  8
0
 10
-5.92264
 20
125.367
 11
-5.8264
 21
125.163
  0
LINE
  8
0
 10
-5.8264
 20
125.163
 11
-5.75655
 21
124.948
  0
LINE
  8
0
 10
-5.75655
 20
124.948
 11
-5.71419
 21
124.726
  0
LINE
  8
0
 10
-5.71419
 20
124.726
 11
-5.7
 21
124.5
  0
LINE
  8
0
 10
-5.7
 20
124.5
 11
-5.71419
 21
124.274
  0
LINE
  8
0
 10
-5.71419
 20
124.274
 11
-5.75655
 21
124.052
  0
LINE
  8
0
 10
-5.75655
 20
124.052
 11
-5.8264
 21
123.837
  0
LINE
  8
0
 10
-5.8264
 20
123.837
 11
-5.92264
 21
123.633
  0
LINE
  8
0
 10
-5.92264
 20
123.633
 11
-6.04376
 21
123.442
  0
LINE
  8
0
 10
-6.04376
 20
123.442
 11
-6.18785
 21
123.268
  0
LINE
  8
0
 10
-6.18785
 20
123.268
 11
-6.35263
 21
123.113
  0
LINE
  8
0
 10
-6.35263
 20
123.113
 11
-6.53551
 21
122.98
  0
LINE
  8
0
 10
-6.53551
 20
122.98
 11
-6.7336
 21
122.871
  0
LINE
  8
0
 10
-6.7336
 20
122.871
 11
-6.94376
 21
122.788
  0
LINE
  8
0
 10
-6.94376
 20
122.788
 11
-7.1627
 21
122.732
  0
LINE
  8
0
 10
-7.1627
 20
122.732
 11
-7.38696
 21
122.704
  0
LINE
  8
0
 10
-7.38696
 20
122.704
 11
-7.61302
 21
122.704
  0
LINE
  8
0
 10
7.38696
 20
107.704
 11
7.1627
 21
107.732
  0
LINE
  8
0
 10
7.1627
 20
107.732
 11
6.94376
 21
107.788
  0
LINE
  8
0
 10
6.94376
 20
107.788
 11
6.7336
 21
107.871
  0
LINE
  8
0
 10
6.7336
 20
107.871
 11
6.53551
 21
107.98
  0
LINE
  8
0
 10
6.53551
 20
107.98
 11
6.35263
 21
108.113
  0
LINE
  8
0
 10
6.35263
 20
108.113
 11
6.18785
 21
108.268
  0
LINE
  8
0
 10
6.18785
 20
108.268
 11
6.04376
 21
108.442
  0
LINE
  8
0
 10
6.04376
 20
108.442
 11
5.92264
 21
108.633
  0
LINE
  8
0
 10
5.92264
 20
108.633
 11
5.8264
 21
108.837
  0
LINE
  8
0
 10
5.8264
 20
108.837
 11
5.75655
 21
109.052
  0
LINE
  8
0
 10
5.75655
 20
109.052
 11
5.71419
 21
109.274
  0
LINE
  8
0
 10
5.71419
 20
109.274
 11
5.7
 21
109.5
  0
LINE
  8
0
 10
5.7
 20
109.5
 11
5.71419
 21
109.726
  0
LINE
  8
0
 10
5.71419
 20
109.726
 11
5.75655
 21
109.948
  0
LINE
  8
0
 10
5.75655
 20
109.948
 11
5.8264
 21
110.163
  0
LINE
  8
0
 10
5.8264
 20
110.163
 11
5.92264
 21
110.367
  0
LINE
  8
0
 10
5.92264
 20
110.367
 11
6.04376
 21
110.558
  0
LINE
  8
0
 10
6.04376
 20
110.558
 11
6.18785
 21
110.732
  0
LINE
  8
0
 10
6.18785
 20
110.732
 11
6.35263
 21
110.887
  0
LINE
  8
0
 10
6.35263
 20
110.887
 11
6.53551
 21
111.02
  0
LINE
  8
0
 10
6.53551
 20
111.02
 11
6.7336
 21
111.129
  0
LINE
  8
0
 10
6.7336
 20
111.129
 11
6.94376
 21
111.212
  0
LINE
  8
0
 10
6.94376
 20
111.212
 11
7.1627
 21
111.268
  0
LINE
  8
0
 10
7.1627
 20
111.268
 11
7.38696
 21
111.296
  0
LINE
  8
0
 10
7.38696
 20
111.296
 11
7.61302
 21
111.296
  0
LINE
  8
0
 10
7.61302
 20
111.296
 11
7.83728
 21
111.268
  0
LINE
  8
0
 10
7.83728
 20
111.268
 11
8.05623
 21
111.212
  0
LINE
  8
0
 10
8.05623
 20
111.212
 11
8.26639
 21
111.129
  0
LINE
  8
0
 10
8.26639
 20
111.129
 11
8.46448
 21
111.02
  0
LINE
  8
0
 10
8.46448
 20
111.02
 11
8.64735
 21
110.887
  0
LINE
  8
0
 10
8.64735
 20
110.887
 11
8.81213
 21
110.732
  0
LINE
  8
0
 10
8.81213
 20
110.732
 11
8.95622
 21
110.558
  0
LINE
  8
0
 10
8.95622
 20
110.558
 11
9.07735
 21
110.367
  0
LINE
  8
0
 10
9.07735
 20
110.367
 11
9.17358
 21
110.163
  0
LINE
  8
0
 10
9.17358
 20
110.163
 11
9.24344
 21
109.948
  0
LINE
  8
0
 10
9.24344
 20
109.948
 11
9.2858
 21
109.726
  0
LINE
  8
0
 10
9.2858
 20
109.726
 11
9.29999
 21
109.5
  0
LINE
  8
0
 10
9.29999
 20
109.5
 11
9.2858
 21
109.274
  0
LINE
  8
0
 10
9.2858
 20
109.274
 11
9.24344
 21
109.052
  0
LINE
  8
0
 10
9.24344
 20
109.052
 11
9.17358
 21
108.837
  0
LINE
  8
0
 10
9.17358
 20
108.837
 11
9.07735
 21
108.633
  0
LINE
  8
0
 10
9.07735
 20
108.633
 11
8.95622
 21
108.442
  0
LINE
  8
0
 10
8.95622
 20
108.442
 11
8.81213
 21
108.268
  0
LINE
  8
0
 10
8.81213
 20
108.268
 11
8.64735
 21
108.113
  0
LINE
  8
0
 10
8.64735
 20
108.113
 11
8.46448
 21
107.98
  0
LINE
  8
0
 10
8.46448
 20
107.98
 11
8.26639
 21
107.871
  0
LINE
  8
0
 10
8.26639
 20
107.871
 11
8.05623
 21
107.788
  0
LINE
  8
0
 10
8.05623
 20
107.788
 11
7.83728
 21
107.732
  0
LINE
  8
0
 10
7.83728
 20
107.732
 11
7.61302
 21
107.704
  0
LINE
  8
0
 10
7.61302
 20
107.704
 11
7.38696
 21
107.704
  0
LINE
  8
0
 10
-7.61302
 20
107.704
 11
-7.83728
 21
107.732
  0
LINE
  8
0
 10
-7.83728
 20
107.732
 11
-8.05623
 21
107.788
  0
LINE
  8
0
 10
-8.05623
 20
107.788
 11
-8.26639
 21
107.871
  0
LINE
  8
0
 10
-8.26639
 20
107.871
 11
-8.46448
 21
107.98
  0
LINE
  8
0
 10
-8.46448
 20
107.98
 11
-8.64735
 21
108.113
  0
LINE
  8
0
 10
-8.64735
 20
108.113
 11
-8.81213
 21
108.268
  0
LINE
  8
0
 10
-8.81213
 20
108.268
 11
-8.95622
 21
108.442
  0
LINE
  8
0
 10
-8.95622
 20
108.442
 11
-9.07735
 21
108.633
  0
LINE
  8
0
 10
-9.07735
 20
108.633
 11
-9.17358
 21
108.837
  0
LINE
  8
0
 10
-9.17358
 20
108.837
 11
-9.24344
 21
109.052
  0
LINE
  8
0
 10
-9.24344
 20
109.052
 11
-9.2858
 21
109.274
  0
LINE
  8
0
 10
-9.2858
 20
109.274
 11
-9.29999
 21
109.5
  0
LINE
  8
0
 10
-9.29999
 20
109.5
 11
-9.2858
 21
109.726
  0
LINE
  8
0
 10
-9.2858
 20
109.726
 11
-9.24344
 21
109.948
  0
LINE
  8
0
 10
-9.24344
 20
109.948
 11
-9.17358
 21
110.163
  0
LINE
  8
0
 10
-9.17358
 20
110.163
 11
-9.07735
 21
110.367
  0
LINE
  8
0
 10
-9.07735
 20
110.367
 11
-8.95622
 21
110.558
  0
LINE
  8
0
 10
-8.95622
 20
110.558
 11
-8.81213
 21
110.732
  0
LINE
  8
0
 10
-8.81213
 20
110.732
 11
-8.64735
 21
110.887
  0
LINE
  8
0
 10
-8.64735
 20
110.887
 11
-8.46448
 21
111.02
  0
LINE
  8
0
 10
-8.46448
 20
111.02
 11
-8.26639
 21
111.129
  0
LINE
  8
0
 10
-8.26639
 20
111.129
 11
-8.05623
 21
111.212
  0
LINE
  8
0
 10
-8.05623
 20
111.212
 11
-7.83728
 21
111.268
  0
LINE
  8
0
 10
-7.83728
 20
111.268
 11
-7.61302
 21
111.296
  0
LINE
  8
0
 10
-7.61302
 20
111.296
 11
-7.38696
 21
111.296
  0
LINE
  8
0
 10
-7.38696
 20
111.296
 11
-7.1627
 21
111.268
  0
LINE
  8
0
 10
-7.1627
 20
111.268
 11
-6.94376
 21
111.212
  0
LINE
  8
0
 10
-6.94376
 20
111.212
 11
-6.7336
 21
111.129
  0
LINE
  8
0
 10
-6.7336
 20
111.129
 11
-6.53551
 21
111.02
  0
LINE
  8
0
 10
-6.53551
 20
111.02
 11
-6.35263
 21
110.887
  0
LINE
  8
0
 10
-6.35263
 20
110.887
 11
-6.18785
 21
110.732
  0
LINE
  8
0
 10
-6.18785
 20
110.732
 11
-6.04376
 21
110.558
  0
LINE
  8
0
 10
-6.04376
 20
110.558
 11
-5.92264
 21
110.367
  0
LINE
  8
0
 10
-5.92264
 20
110.367
 11
-5.8264
 21
110.163
  0
LINE
  8
0
 10
-5.8264
 20
110.163
 11
-5.75655
 21
109.948
  0
LINE
  8
0
 10
-5.75655
 20
109.948
 11
-5.71419
 21
109.726
  0
LINE
  8
0
 10
-5.71419
 20
109.726
 11
-5.7
 21
109.5
  0
LINE
  8
0
 10
-5.7
 20
109.5
 11
-5.71419
 21
109.274
  0
LINE
  8
0
 10
-5.71419
 20
109.274
 11
-5.75655
 21
109.052
  0
LINE
  8
0
 10
-5.75655
 20
109.052
 11
-5.8264
 21
108.837
  0
LINE
  8
0
 10
-5.8264
 20
108.837
 11
-5.92264
 21
108.633
  0
LINE
  8
0
 10
-5.92264
 20
108.633
 11
-6.04376
 21
108.442
  0
LINE
  8
0
 10
-6.04376
 20
108.442
 11
-6.18785
 21
108.268
  0
LINE
  8
0
 10
-6.18785
 20
108.268
 11
-6.35263
 21
108.113
  0
LINE
  8
0
 10
-6.35263
 20
108.113
 11
-6.53551
 21
107.98
  0
LINE
  8
0
 10
-6.53551
 20
107.98
 11
-6.7336
 21
107.871
  0
LINE
  8
0
 10
-6.7336
 20
107.871
 11
-6.94376
 21
107.788
  0
LINE
  8
0
 10
-6.94376
 20
107.788
 11
-7.1627
 21
107.732
  0
LINE
  8
0
 10
-7.1627
 20
107.732
 11
-7.38696
 21
107.704
  0
LINE
  8
0
 10
-7.38696
 20
107.704
 11
-7.61302
 21
107.704
  0
ENDSEC
  0
SECTION
  2
OBJECTS
  0
DICTIONARY
  0
ENDSEC
  0
EOF
