<?xml version="1.0" standalone="no"?>
<!DOCTYPE svg PUBLIC "-//W3C//DTD SVG 1.1//EN" "http://www.w3.org/Graphics/SVG/1.1/DTD/svg11.dtd">
<svg width="90mm" height="334mm" viewBox="-45 -623 90 334" xmlns="http://www.w3.org/2000/svg" version="1.1">
<title>OpenSCAD Model</title>
<path d="
M 40.9369,-517.589 L 41.5451,-517.745 L 42.1289,-517.976 L 42.6791,-518.278 L 43.1871,-518.647 L 43.6448,-519.077
 L 44.0451,-519.561 L 44.3815,-520.091 L 44.6489,-520.659 L 44.8429,-521.257 L 44.9606,-521.873 L 45,-522.5
 L 45,-617.5 L 44.9606,-618.127 L 44.8429,-618.743 L 44.6489,-619.341 L 44.3815,-619.909 L 44.0451,-620.439
 L 43.6448,-620.923 L 43.1871,-621.353 L 42.6791,-621.722 L 42.1289,-622.024 L 41.5451,-622.255 L 40.9369,-622.411
 L 40.3139,-622.49 L -40.3139,-622.49 L -40.9369,-622.411 L -41.5451,-622.255 L -42.1289,-622.024 L -42.6791,-621.722
 L -43.1871,-621.353 L -43.6448,-620.923 L -44.0451,-620.439 L -44.3815,-619.909 L -44.6489,-619.341 L -44.8429,-618.743
 L -44.9606,-618.127 L -45,-617.5 L -45,-522.5 L -44.9606,-521.873 L -44.8429,-521.257 L -44.6489,-520.659
 L -44.3815,-520.091 L -44.0451,-519.561 L -43.6448,-519.077 L -43.1871,-518.647 L -42.6791,-518.278 L -42.1289,-517.976
 L -41.5451,-517.745 L -40.9369,-517.589 L -40.3139,-517.51 L 40.3139,-517.51 z
M -39.7512,-519.008 L -40.2495,-519.071 L -40.7361,-519.196 L -41.2031,-519.381 L -41.6433,-519.623 L -42.0497,-519.918
 L -42.4159,-520.262 L -42.7361,-520.649 L -43.0052,-521.073 L -43.2191,-521.528 L -43.3743,-522.005 L -43.4685,-522.499
 L -43.5,-523 L -43.5,-617 L -43.4685,-617.501 L -43.3743,-617.995 L -43.2191,-618.472 L -43.0052,-618.927
 L -42.7361,-619.351 L -42.4159,-619.738 L -42.0497,-620.082 L -41.6433,-620.377 L -41.2031,-620.619 L -40.7361,-620.804
 L -40.2495,-620.929 L -39.7512,-620.992 L 39.7512,-620.992 L 40.2495,-620.929 L 40.7361,-620.804 L 41.2031,-620.619
 L 41.6433,-620.377 L 42.0497,-620.082 L 42.4159,-619.738 L 42.7361,-619.351 L 43.0052,-618.927 L 43.2191,-618.472
 L 43.3743,-617.995 L 43.4685,-617.501 L 43.5,-617 L 43.5,-523 L 43.4685,-522.499 L 43.3743,-522.005
 L 43.2191,-521.528 L 43.0052,-521.073 L 42.7361,-520.649 L 42.4159,-520.262 L 42.0497,-519.918 L 41.6433,-519.623
 L 41.2031,-519.381 L 40.7361,-519.196 L 40.2495,-519.071 L 39.7512,-519.008 z
M 40.9369,-403.589 L 41.5451,-403.745 L 42.1289,-403.976 L 42.6791,-404.278 L 43.1871,-404.647 L 43.6448,-405.077
 L 44.0451,-405.561 L 44.3815,-406.091 L 44.6489,-406.659 L 44.8429,-407.257 L 44.9606,-407.873 L 45,-408.5
 L 45,-503.5 L 44.9606,-504.127 L 44.8429,-504.743 L 44.6489,-505.341 L 44.3815,-505.909 L 44.0451,-506.439
 L 43.6448,-506.923 L 43.1871,-507.353 L 42.6791,-507.722 L 42.1289,-508.024 L 41.5451,-508.255 L 40.9369,-508.411
 L 40.3139,-508.49 L -40.3139,-508.49 L -40.9369,-508.411 L -41.5451,-508.255 L -42.1289,-508.024 L -42.6791,-507.722
 L -43.1871,-507.353 L -43.6448,-506.923 L -44.0451,-506.439 L -44.3815,-505.909 L -44.6489,-505.341 L -44.8429,-504.743
 L -44.9606,-504.127 L -45,-503.5 L -45,-408.5 L -44.9606,-407.873 L -44.8429,-407.257 L -44.6489,-406.659
 L -44.3815,-406.091 L -44.0451,-405.561 L -43.6448,-405.077 L -43.1871,-404.647 L -42.6791,-404.278 L -42.1289,-403.976
 L -41.5451,-403.745 L -40.9369,-403.589 L -40.3139,-403.51 L 40.3139,-403.51 z
M -39.6954,-405.893 L -40.0833,-405.942 L -40.4619,-406.039 L -40.8254,-406.183 L -41.168,-406.372 L -41.4842,-406.601
 L -41.7692,-406.869 L -42.0184,-407.17 L -42.2279,-407.5 L -42.3943,-407.854 L -42.5151,-408.226 L -42.5884,-408.61
 L -42.6129,-409 L -42.6129,-503 L -42.5884,-503.39 L -42.5151,-503.774 L -42.3943,-504.146 L -42.2279,-504.5
 L -42.0184,-504.83 L -41.7692,-505.131 L -41.4842,-505.399 L -41.168,-505.628 L -40.8254,-505.817 L -40.4619,-505.961
 L -40.0833,-506.058 L -39.6954,-506.107 L 39.6954,-506.107 L 40.0833,-506.058 L 40.4619,-505.961 L 40.8254,-505.817
 L 41.168,-505.628 L 41.4842,-505.399 L 41.7692,-505.131 L 42.0184,-504.83 L 42.2279,-504.5 L 42.3943,-504.146
 L 42.5151,-503.774 L 42.5884,-503.39 L 42.6129,-503 L 42.6129,-409 L 42.5884,-408.61 L 42.5151,-408.226
 L 42.3943,-407.854 L 42.2279,-407.5 L 42.0184,-407.17 L 41.7692,-406.869 L 41.4842,-406.601 L 41.168,-406.372
 L 40.8254,-406.183 L 40.4619,-406.039 L 40.0833,-405.942 L 39.6954,-405.893 z
M 40.9369,-289.589 L 41.5451,-289.745 L 42.1289,-289.976 L 42.6791,-290.278 L 43.1871,-290.647 L 43.6448,-291.077
 L 44.0451,-291.561 L 44.3815,-292.091 L 44.6489,-292.659 L 44.8429,-293.257 L 44.9606,-293.873 L 45,-294.5
 L 45,-389.5 L 44.9606,-390.127 L 44.8429,-390.743 L 44.6489,-391.341 L 44.3815,-391.909 L 44.0451,-392.439
 L 43.6448,-392.923 L 43.1871,-393.353 L 42.6791,-393.722 L 42.1289,-394.024 L 41.5451,-394.255 L 40.9369,-394.411
 L 40.3139,-394.49 L -40.3139,-394.49 L -40.9369,-394.411 L -41.5451,-394.255 L -42.1289,-394.024 L -42.6791,-393.722
 L -43.1871,-393.353 L -43.6448,-392.923 L -44.0451,-392.439 L -44.3815,-391.909 L -44.6489,-391.341 L -44.8429,-390.743
 L -44.9606,-390.127 L -45,-389.5 L -45,-294.5 L -44.9606,-293.873 L -44.8429,-293.257 L -44.6489,-292.659
 L -44.3815,-292.091 L -44.0451,-291.561 L -43.6448,-291.077 L -43.1871,-290.647 L -42.6791,-290.278 L -42.1289,-289.976
 L -41.5451,-289.745 L -40.9369,-289.589 L -40.3139,-289.51 L 40.3139,-289.51 z
M 37.3659,-384.869 L 37.0999,-384.903 L 36.8401,-384.969 L 36.5908,-385.068 L 36.3559,-385.197 L 36.1389,-385.355
 L 35.9434,-385.538 L 35.7725,-385.745 L 35.6288,-385.971 L 35.5146,-386.214 L 35.4318,-386.469 L 35.3815,-386.732
 L 35.3647,-387 L 35.3815,-387.268 L 35.4318,-387.531 L 35.5146,-387.786 L 35.6288,-388.029 L 35.7725,-388.255
 L 35.9434,-388.462 L 36.1389,-388.645 L 36.3559,-388.803 L 36.5908,-388.932 L 36.8401,-389.031 L 37.0999,-389.097
 L 37.3659,-389.131 L 37.6341,-389.131 L 37.9001,-389.097 L 38.1598,-389.031 L 38.4092,-388.932 L 38.6441,-388.803
 L 38.8611,-388.645 L 39.0565,-388.462 L 39.2275,-388.255 L 39.3712,-388.029 L 39.4853,-387.786 L 39.5682,-387.531
 L 39.6185,-387.268 L 39.6353,-387 L 39.6185,-386.732 L 39.5682,-386.469 L 39.4853,-386.214 L 39.3712,-385.971
 L 39.2275,-385.745 L 39.0565,-385.538 L 38.8611,-385.355 L 38.6441,-385.197 L 38.4092,-385.068 L 38.1598,-384.969
 L 37.9001,-384.903 L 37.6341,-384.869 z
M -37.6341,-384.869 L -37.9001,-384.903 L -38.1598,-384.969 L -38.4092,-385.068 L -38.6441,-385.197 L -38.8611,-385.355
 L -39.0565,-385.538 L -39.2275,-385.745 L -39.3712,-385.971 L -39.4853,-386.214 L -39.5682,-386.469 L -39.6185,-386.732
 L -39.6353,-387 L -39.6185,-387.268 L -39.5682,-387.531 L -39.4853,-387.786 L -39.3712,-388.029 L -39.2275,-388.255
 L -39.0565,-388.462 L -38.8611,-388.645 L -38.6441,-388.803 L -38.4092,-388.932 L -38.1598,-389.031 L -37.9001,-389.097
 L -37.6341,-389.131 L -37.3659,-389.131 L -37.0999,-389.097 L -36.8401,-389.031 L -36.5908,-388.932 L -36.3559,-388.803
 L -36.1389,-388.645 L -35.9434,-388.462 L -35.7725,-388.255 L -35.6288,-388.029 L -35.5146,-387.786 L -35.4318,-387.531
 L -35.3815,-387.268 L -35.3647,-387 L -35.3815,-386.732 L -35.4318,-386.469 L -35.5146,-386.214 L -35.6288,-385.971
 L -35.7725,-385.745 L -35.9434,-385.538 L -36.1389,-385.355 L -36.3559,-385.197 L -36.5908,-385.068 L -36.8401,-384.969
 L -37.0999,-384.903 L -37.3659,-384.869 z
M 37.3659,-294.869 L 37.0999,-294.903 L 36.8401,-294.969 L 36.5908,-295.068 L 36.3559,-295.197 L 36.1389,-295.355
 L 35.9434,-295.538 L 35.7725,-295.745 L 35.6288,-295.971 L 35.5146,-296.214 L 35.4318,-296.469 L 35.3815,-296.732
 L 35.3647,-297 L 35.3815,-297.268 L 35.4318,-297.531 L 35.5146,-297.786 L 35.6288,-298.029 L 35.7725,-298.255
 L 35.9434,-298.462 L 36.1389,-298.645 L 36.3559,-298.803 L 36.5908,-298.932 L 36.8401,-299.031 L 37.0999,-299.097
 L 37.3659,-299.131 L 37.6341,-299.131 L 37.9001,-299.097 L 38.1598,-299.031 L 38.4092,-298.932 L 38.6441,-298.803
 L 38.8611,-298.645 L 39.0565,-298.462 L 39.2275,-298.255 L 39.3712,-298.029 L 39.4853,-297.786 L 39.5682,-297.531
 L 39.6185,-297.268 L 39.6353,-297 L 39.6185,-296.732 L 39.5682,-296.469 L 39.4853,-296.214 L 39.3712,-295.971
 L 39.2275,-295.745 L 39.0565,-295.538 L 38.8611,-295.355 L 38.6441,-295.197 L 38.4092,-295.068 L 38.1598,-294.969
 L 37.9001,-294.903 L 37.6341,-294.869 z
M -37.6341,-294.869 L -37.9001,-294.903 L -38.1598,-294.969 L -38.4092,-295.068 L -38.6441,-295.197 L -38.8611,-295.355
 L -39.0565,-295.538 L -39.2275,-295.745 L -39.3712,-295.971 L -39.4853,-296.214 L -39.5682,-296.469 L -39.6185,-296.732
 L -39.6353,-297 L -39.6185,-297.268 L -39.5682,-297.531 L -39.4853,-297.786 L -39.3712,-298.029 L -39.2275,-298.255
 L -39.0565,-298.462 L -38.8611,-298.645 L -38.6441,-298.803 L -38.4092,-298.932 L -38.1598,-299.031 L -37.9001,-299.097
 L -37.6341,-299.131 L -37.3659,-299.131 L -37.0999,-299.097 L -36.8401,-299.031 L -36.5908,-298.932 L -36.3559,-298.803
 L -36.1389,-298.645 L -35.9434,-298.462 L -35.7725,-298.255 L -35.6288,-298.029 L -35.5146,-297.786 L -35.4318,-297.531
 L -35.3815,-297.268 L -35.3647,-297 L -35.3815,-296.732 L -35.4318,-296.469 L -35.5146,-296.214 L -35.6288,-295.971
 L -35.7725,-295.745 L -35.9434,-295.538 L -36.1389,-295.355 L -36.3559,-295.197 L -36.5908,-295.068 L -36.8401,-294.969
 L -37.0999,-294.903 L -37.3659,-294.869 z
" stroke="black" fill="lightgray" stroke-width="0.5"/>
</svg>
