solid OpenSCAD_Model
  facet normal 0 0 -1
    outer loop
      vertex 1.5 0 -1.5
      vertex 3 0 -1.5
      vertex 2.97634 -0.375999 -1.5
    endloop
  endfacet
  facet normal 0 0 -1
    outer loop
      vertex 1.48817 -0.188 -1.5
      vertex 2.97634 -0.375999 -1.5
      vertex 2.90575 -0.746069 -1.5
    endloop
  endfacet
  facet normal 0 0 -1
    outer loop
      vertex 3 0 -1.5
      vertex 1.5 0 -1.5
      vertex 2.97634 0.375999 -1.5
    endloop
  endfacet
  facet normal 0 0 -1
    outer loop
      vertex 1.45287 -0.373034 -1.5
      vertex 2.90575 -0.746069 -1.5
      vertex 2.78933 -1.10437 -1.5
    endloop
  endfacet
  facet normal 0 0 -1
    outer loop
      vertex 1.48817 0.188 -1.5
      vertex 2.97634 0.375999 -1.5
      vertex 1.5 0 -1.5
    endloop
  endfacet
  facet normal 0 0 -1
    outer loop
      vertex 1.39466 -0.552186 -1.5
      vertex 2.78933 -1.10437 -1.5
      vertex 2.62892 -1.44526 -1.5
    endloop
  endfacet
  facet normal -0 0 -1
    outer loop
      vertex 2.97634 0.375999 -1.5
      vertex 1.48817 0.188 -1.5
      vertex 2.90575 0.746069 -1.5
    endloop
  endfacet
  facet normal 0 0 -1
    outer loop
      vertex 1.31446 -0.722631 -1.5
      vertex 2.62892 -1.44526 -1.5
      vertex 2.42705 -1.76336 -1.5
    endloop
  endfacet
  facet normal 0 0 -1
    outer loop
      vertex 1.45287 0.373034 -1.5
      vertex 2.90575 0.746069 -1.5
      vertex 1.48817 0.188 -1.5
    endloop
  endfacet
  facet normal 0 0 -1
    outer loop
      vertex 1.21352 -0.881678 -1.5
      vertex 2.42705 -1.76336 -1.5
      vertex 2.18691 -2.05364 -1.5
    endloop
  endfacet
  facet normal -0 0 -1
    outer loop
      vertex 2.90575 0.746069 -1.5
      vertex 1.45287 0.373034 -1.5
      vertex 2.78933 1.10437 -1.5
    endloop
  endfacet
  facet normal 0 0 -1
    outer loop
      vertex 1.09345 -1.02682 -1.5
      vertex 2.18691 -2.05364 -1.5
      vertex 1.91227 -2.31154 -1.5
    endloop
  endfacet
  facet normal 0 0 -1
    outer loop
      vertex 1.39466 0.552186 -1.5
      vertex 2.78933 1.10437 -1.5
      vertex 1.45287 0.373034 -1.5
    endloop
  endfacet
  facet normal 0 0 -1
    outer loop
      vertex 0.956136 -1.15577 -1.5
      vertex 1.91227 -2.31154 -1.5
      vertex 1.60748 -2.53298 -1.5
    endloop
  endfacet
  facet normal -0 0 -1
    outer loop
      vertex 2.78933 1.10437 -1.5
      vertex 1.39466 0.552186 -1.5
      vertex 2.62892 1.44526 -1.5
    endloop
  endfacet
  facet normal 0 0 -1
    outer loop
      vertex 1.31446 0.722631 -1.5
      vertex 2.62892 1.44526 -1.5
      vertex 1.39466 0.552186 -1.5
    endloop
  endfacet
  facet normal 0 0 -1
    outer loop
      vertex 2.97634 -0.375999 -1.5
      vertex 1.48817 -0.188 -1.5
      vertex 1.5 0 -1.5
    endloop
  endfacet
  facet normal 0 0 -1
    outer loop
      vertex 2.90575 -0.746069 -1.5
      vertex 1.45287 -0.373034 -1.5
      vertex 1.48817 -0.188 -1.5
    endloop
  endfacet
  facet normal 0 0 -1
    outer loop
      vertex 2.78933 -1.10437 -1.5
      vertex 1.39466 -0.552186 -1.5
      vertex 1.45287 -0.373034 -1.5
    endloop
  endfacet
  facet normal 0 0 -1
    outer loop
      vertex 2.62892 -1.44526 -1.5
      vertex 1.31446 -0.722631 -1.5
      vertex 1.39466 -0.552186 -1.5
    endloop
  endfacet
  facet normal 0 0 -1
    outer loop
      vertex 0.80374 -1.26649 -1.5
      vertex 1.60748 -2.53298 -1.5
      vertex 1.27734 -2.71448 -1.5
    endloop
  endfacet
  facet normal 0 0 -1
    outer loop
      vertex 2.42705 -1.76336 -1.5
      vertex 1.21352 -0.881678 -1.5
      vertex 1.31446 -0.722631 -1.5
    endloop
  endfacet
  facet normal 0 0 -1
    outer loop
      vertex 2.18691 -2.05364 -1.5
      vertex 1.09345 -1.02682 -1.5
      vertex 1.21352 -0.881678 -1.5
    endloop
  endfacet
  facet normal 0 0 -1
    outer loop
      vertex 1.91227 -2.31154 -1.5
      vertex 0.956136 -1.15577 -1.5
      vertex 1.09345 -1.02682 -1.5
    endloop
  endfacet
  facet normal 0 0 -1
    outer loop
      vertex 0.638668 -1.35724 -1.5
      vertex 1.27734 -2.71448 -1.5
      vertex 0.927051 -2.85317 -1.5
    endloop
  endfacet
  facet normal 0 0 -1
    outer loop
      vertex 1.60748 -2.53298 -1.5
      vertex 0.80374 -1.26649 -1.5
      vertex 0.956136 -1.15577 -1.5
    endloop
  endfacet
  facet normal 0 0 -1
    outer loop
      vertex 1.27734 -2.71448 -1.5
      vertex 0.638668 -1.35724 -1.5
      vertex 0.80374 -1.26649 -1.5
    endloop
  endfacet
  facet normal 0 0 -1
    outer loop
      vertex 0.463525 -1.42658 -1.5
      vertex 0.927051 -2.85317 -1.5
      vertex 0.562143 -2.94686 -1.5
    endloop
  endfacet
  facet normal 0 0 -1
    outer loop
      vertex 0.927051 -2.85317 -1.5
      vertex 0.463525 -1.42658 -1.5
      vertex 0.638668 -1.35724 -1.5
    endloop
  endfacet
  facet normal 0 0 -1
    outer loop
      vertex 0.562143 -2.94686 -1.5
      vertex 0.281072 -1.47343 -1.5
      vertex 0.463525 -1.42658 -1.5
    endloop
  endfacet
  facet normal 0 0 -1
    outer loop
      vertex 0.188371 -2.99408 -1.5
      vertex 0.281072 -1.47343 -1.5
      vertex 0.562143 -2.94686 -1.5
    endloop
  endfacet
  facet normal 0 0 -1
    outer loop
      vertex 0.188371 -2.99408 -1.5
      vertex 0.0941849 -1.49704 -1.5
      vertex 0.281072 -1.47343 -1.5
    endloop
  endfacet
  facet normal 0 0 -1
    outer loop
      vertex 0.188371 -2.99408 -1.5
      vertex -0.0941849 -1.49704 -1.5
      vertex 0.0941849 -1.49704 -1.5
    endloop
  endfacet
  facet normal 0 0 -1
    outer loop
      vertex -0.188371 -2.99408 -1.5
      vertex -0.0941849 -1.49704 -1.5
      vertex 0.188371 -2.99408 -1.5
    endloop
  endfacet
  facet normal 0 0 -1
    outer loop
      vertex -0.188371 -2.99408 -1.5
      vertex -0.281072 -1.47343 -1.5
      vertex -0.0941849 -1.49704 -1.5
    endloop
  endfacet
  facet normal 0 0 -1
    outer loop
      vertex -0.562143 -2.94686 -1.5
      vertex -0.281072 -1.47343 -1.5
      vertex -0.188371 -2.99408 -1.5
    endloop
  endfacet
  facet normal -0 0 -1
    outer loop
      vertex -0.281072 -1.47343 -1.5
      vertex -0.562143 -2.94686 -1.5
      vertex -0.463525 -1.42658 -1.5
    endloop
  endfacet
  facet normal 0 0 -1
    outer loop
      vertex -0.927051 -2.85317 -1.5
      vertex -0.463525 -1.42658 -1.5
      vertex -0.562143 -2.94686 -1.5
    endloop
  endfacet
  facet normal -0 0 -1
    outer loop
      vertex -0.463525 -1.42658 -1.5
      vertex -0.927051 -2.85317 -1.5
      vertex -0.638668 -1.35724 -1.5
    endloop
  endfacet
  facet normal 0 0 -1
    outer loop
      vertex -1.27734 -2.71448 -1.5
      vertex -0.638668 -1.35724 -1.5
      vertex -0.927051 -2.85317 -1.5
    endloop
  endfacet
  facet normal -0 0 -1
    outer loop
      vertex -0.638668 -1.35724 -1.5
      vertex -1.27734 -2.71448 -1.5
      vertex -0.80374 -1.26649 -1.5
    endloop
  endfacet
  facet normal 0 0 -1
    outer loop
      vertex -1.60748 -2.53298 -1.5
      vertex -0.80374 -1.26649 -1.5
      vertex -1.27734 -2.71448 -1.5
    endloop
  endfacet
  facet normal -0 0 -1
    outer loop
      vertex -0.80374 -1.26649 -1.5
      vertex -1.60748 -2.53298 -1.5
      vertex -0.956136 -1.15577 -1.5
    endloop
  endfacet
  facet normal 0 0 -1
    outer loop
      vertex -1.91227 -2.31154 -1.5
      vertex -0.956136 -1.15577 -1.5
      vertex -1.60748 -2.53298 -1.5
    endloop
  endfacet
  facet normal -0 0 -1
    outer loop
      vertex -0.956136 -1.15577 -1.5
      vertex -1.91227 -2.31154 -1.5
      vertex -1.09345 -1.02682 -1.5
    endloop
  endfacet
  facet normal 0 0 -1
    outer loop
      vertex -2.18691 -2.05364 -1.5
      vertex -1.09345 -1.02682 -1.5
      vertex -1.91227 -2.31154 -1.5
    endloop
  endfacet
  facet normal -0 0 -1
    outer loop
      vertex -1.09345 -1.02682 -1.5
      vertex -2.18691 -2.05364 -1.5
      vertex -1.21352 -0.881678 -1.5
    endloop
  endfacet
  facet normal 0 0 -1
    outer loop
      vertex -2.42705 -1.76336 -1.5
      vertex -1.21352 -0.881678 -1.5
      vertex -2.18691 -2.05364 -1.5
    endloop
  endfacet
  facet normal 0 0 -1
    outer loop
      vertex -2.62892 -1.44526 -1.5
      vertex -1.31446 -0.722631 -1.5
      vertex -2.42705 -1.76336 -1.5
    endloop
  endfacet
  facet normal -0 0 -1
    outer loop
      vertex -1.21352 -0.881678 -1.5
      vertex -2.42705 -1.76336 -1.5
      vertex -1.31446 -0.722631 -1.5
    endloop
  endfacet
  facet normal -0 0 -1
    outer loop
      vertex 2.62892 1.44526 -1.5
      vertex 1.31446 0.722631 -1.5
      vertex 2.42705 1.76336 -1.5
    endloop
  endfacet
  facet normal 0 0 -1
    outer loop
      vertex 1.21352 0.881678 -1.5
      vertex 2.42705 1.76336 -1.5
      vertex 1.31446 0.722631 -1.5
    endloop
  endfacet
  facet normal -0 0 -1
    outer loop
      vertex 2.42705 1.76336 -1.5
      vertex 1.21352 0.881678 -1.5
      vertex 2.18691 2.05364 -1.5
    endloop
  endfacet
  facet normal 0 0 -1
    outer loop
      vertex 1.09345 1.02682 -1.5
      vertex 2.18691 2.05364 -1.5
      vertex 1.21352 0.881678 -1.5
    endloop
  endfacet
  facet normal -0 0 -1
    outer loop
      vertex 2.18691 2.05364 -1.5
      vertex 1.09345 1.02682 -1.5
      vertex 1.91227 2.31154 -1.5
    endloop
  endfacet
  facet normal 0 0 -1
    outer loop
      vertex 0.956136 1.15577 -1.5
      vertex 1.91227 2.31154 -1.5
      vertex 1.09345 1.02682 -1.5
    endloop
  endfacet
  facet normal -0 0 -1
    outer loop
      vertex 1.91227 2.31154 -1.5
      vertex 0.956136 1.15577 -1.5
      vertex 1.60748 2.53298 -1.5
    endloop
  endfacet
  facet normal 0 0 -1
    outer loop
      vertex 0.80374 1.26649 -1.5
      vertex 1.60748 2.53298 -1.5
      vertex 0.956136 1.15577 -1.5
    endloop
  endfacet
  facet normal -0 0 -1
    outer loop
      vertex 1.60748 2.53298 -1.5
      vertex 0.80374 1.26649 -1.5
      vertex 1.27734 2.71448 -1.5
    endloop
  endfacet
  facet normal 0 0 -1
    outer loop
      vertex 0.638668 1.35724 -1.5
      vertex 1.27734 2.71448 -1.5
      vertex 0.80374 1.26649 -1.5
    endloop
  endfacet
  facet normal -0 0 -1
    outer loop
      vertex 1.27734 2.71448 -1.5
      vertex 0.638668 1.35724 -1.5
      vertex 0.927051 2.85317 -1.5
    endloop
  endfacet
  facet normal 0 0 -1
    outer loop
      vertex 0.463525 1.42658 -1.5
      vertex 0.927051 2.85317 -1.5
      vertex 0.638668 1.35724 -1.5
    endloop
  endfacet
  facet normal -0 0 -1
    outer loop
      vertex 0.927051 2.85317 -1.5
      vertex 0.463525 1.42658 -1.5
      vertex 0.562143 2.94686 -1.5
    endloop
  endfacet
  facet normal 0 0 -1
    outer loop
      vertex 0.281072 1.47343 -1.5
      vertex 0.562143 2.94686 -1.5
      vertex 0.463525 1.42658 -1.5
    endloop
  endfacet
  facet normal 0 0 -1
    outer loop
      vertex 0.281072 1.47343 -1.5
      vertex 0.188371 2.99408 -1.5
      vertex 0.562143 2.94686 -1.5
    endloop
  endfacet
  facet normal 0 0 -1
    outer loop
      vertex 0.0941849 1.49704 -1.5
      vertex 0.188371 2.99408 -1.5
      vertex 0.281072 1.47343 -1.5
    endloop
  endfacet
  facet normal 0 0 -1
    outer loop
      vertex -0.0941849 1.49704 -1.5
      vertex 0.188371 2.99408 -1.5
      vertex 0.0941849 1.49704 -1.5
    endloop
  endfacet
  facet normal 0 0 -1
    outer loop
      vertex -0.0941849 1.49704 -1.5
      vertex -0.188371 2.99408 -1.5
      vertex 0.188371 2.99408 -1.5
    endloop
  endfacet
  facet normal 0 0 -1
    outer loop
      vertex -0.281072 1.47343 -1.5
      vertex -0.188371 2.99408 -1.5
      vertex -0.0941849 1.49704 -1.5
    endloop
  endfacet
  facet normal 0 0 -1
    outer loop
      vertex -0.562143 2.94686 -1.5
      vertex -0.281072 1.47343 -1.5
      vertex -0.463525 1.42658 -1.5
    endloop
  endfacet
  facet normal 0 0 -1
    outer loop
      vertex -0.281072 1.47343 -1.5
      vertex -0.562143 2.94686 -1.5
      vertex -0.188371 2.99408 -1.5
    endloop
  endfacet
  facet normal 0 0 -1
    outer loop
      vertex -0.927051 2.85317 -1.5
      vertex -0.463525 1.42658 -1.5
      vertex -0.638668 1.35724 -1.5
    endloop
  endfacet
  facet normal 0 0 -1
    outer loop
      vertex -1.27734 2.71448 -1.5
      vertex -0.638668 1.35724 -1.5
      vertex -0.80374 1.26649 -1.5
    endloop
  endfacet
  facet normal 0 0 -1
    outer loop
      vertex -0.463525 1.42658 -1.5
      vertex -0.927051 2.85317 -1.5
      vertex -0.562143 2.94686 -1.5
    endloop
  endfacet
  facet normal 0 0 -1
    outer loop
      vertex -1.60748 2.53298 -1.5
      vertex -0.80374 1.26649 -1.5
      vertex -0.956136 1.15577 -1.5
    endloop
  endfacet
  facet normal 0 0 -1
    outer loop
      vertex -1.91227 2.31154 -1.5
      vertex -0.956136 1.15577 -1.5
      vertex -1.09345 1.02682 -1.5
    endloop
  endfacet
  facet normal 0 0 -1
    outer loop
      vertex -2.18691 2.05364 -1.5
      vertex -1.09345 1.02682 -1.5
      vertex -1.21352 0.881678 -1.5
    endloop
  endfacet
  facet normal 0 0 -1
    outer loop
      vertex -0.638668 1.35724 -1.5
      vertex -1.27734 2.71448 -1.5
      vertex -0.927051 2.85317 -1.5
    endloop
  endfacet
  facet normal 0 0 -1
    outer loop
      vertex -2.42705 1.76336 -1.5
      vertex -1.21352 0.881678 -1.5
      vertex -1.31446 0.722631 -1.5
    endloop
  endfacet
  facet normal 0 0 -1
    outer loop
      vertex -2.62892 1.44526 -1.5
      vertex -1.31446 0.722631 -1.5
      vertex -1.39466 0.552186 -1.5
    endloop
  endfacet
  facet normal 0 0 -1
    outer loop
      vertex -2.78933 1.10437 -1.5
      vertex -1.39466 0.552186 -1.5
      vertex -1.45287 0.373034 -1.5
    endloop
  endfacet
  facet normal 0 0 -1
    outer loop
      vertex -2.90575 0.746069 -1.5
      vertex -1.45287 0.373034 -1.5
      vertex -1.48817 0.188 -1.5
    endloop
  endfacet
  facet normal 0 0 -1
    outer loop
      vertex -0.80374 1.26649 -1.5
      vertex -1.60748 2.53298 -1.5
      vertex -1.27734 2.71448 -1.5
    endloop
  endfacet
  facet normal 0 0 -1
    outer loop
      vertex -2.97634 0.375999 -1.5
      vertex -1.48817 0.188 -1.5
      vertex -1.5 0 -1.5
    endloop
  endfacet
  facet normal -0 0 -1
    outer loop
      vertex -1.31446 -0.722631 -1.5
      vertex -2.62892 -1.44526 -1.5
      vertex -1.39466 -0.552186 -1.5
    endloop
  endfacet
  facet normal 0 0 -1
    outer loop
      vertex -2.78933 -1.10437 -1.5
      vertex -1.39466 -0.552186 -1.5
      vertex -2.62892 -1.44526 -1.5
    endloop
  endfacet
  facet normal 0 0 -1
    outer loop
      vertex -0.956136 1.15577 -1.5
      vertex -1.91227 2.31154 -1.5
      vertex -1.60748 2.53298 -1.5
    endloop
  endfacet
  facet normal -0 0 -1
    outer loop
      vertex -1.39466 -0.552186 -1.5
      vertex -2.78933 -1.10437 -1.5
      vertex -1.45287 -0.373034 -1.5
    endloop
  endfacet
  facet normal 0 0 -1
    outer loop
      vertex -1.09345 1.02682 -1.5
      vertex -2.18691 2.05364 -1.5
      vertex -1.91227 2.31154 -1.5
    endloop
  endfacet
  facet normal 0 0 -1
    outer loop
      vertex -2.90575 -0.746069 -1.5
      vertex -1.45287 -0.373034 -1.5
      vertex -2.78933 -1.10437 -1.5
    endloop
  endfacet
  facet normal 0 0 -1
    outer loop
      vertex -1.21352 0.881678 -1.5
      vertex -2.42705 1.76336 -1.5
      vertex -2.18691 2.05364 -1.5
    endloop
  endfacet
  facet normal -0 0 -1
    outer loop
      vertex -1.45287 -0.373034 -1.5
      vertex -2.90575 -0.746069 -1.5
      vertex -1.48817 -0.188 -1.5
    endloop
  endfacet
  facet normal 0 0 -1
    outer loop
      vertex -1.31446 0.722631 -1.5
      vertex -2.62892 1.44526 -1.5
      vertex -2.42705 1.76336 -1.5
    endloop
  endfacet
  facet normal 0 0 -1
    outer loop
      vertex -2.97634 -0.375999 -1.5
      vertex -1.48817 -0.188 -1.5
      vertex -2.90575 -0.746069 -1.5
    endloop
  endfacet
  facet normal 0 0 -1
    outer loop
      vertex -1.39466 0.552186 -1.5
      vertex -2.78933 1.10437 -1.5
      vertex -2.62892 1.44526 -1.5
    endloop
  endfacet
  facet normal -0 0 -1
    outer loop
      vertex -1.48817 -0.188 -1.5
      vertex -2.97634 -0.375999 -1.5
      vertex -1.5 0 -1.5
    endloop
  endfacet
  facet normal 0 0 -1
    outer loop
      vertex -1.45287 0.373034 -1.5
      vertex -2.90575 0.746069 -1.5
      vertex -2.78933 1.10437 -1.5
    endloop
  endfacet
  facet normal 0 0 -1
    outer loop
      vertex -3 0 -1.5
      vertex -1.5 0 -1.5
      vertex -2.97634 -0.375999 -1.5
    endloop
  endfacet
  facet normal 0 0 -1
    outer loop
      vertex -1.48817 0.188 -1.5
      vertex -2.97634 0.375999 -1.5
      vertex -2.90575 0.746069 -1.5
    endloop
  endfacet
  facet normal 0 0 -1
    outer loop
      vertex -1.5 0 -1.5
      vertex -3 0 -1.5
      vertex -2.97634 0.375999 -1.5
    endloop
  endfacet
  facet normal 0.998026 0.0628015 -3.49237e-20
    outer loop
      vertex 3 0 13.5
      vertex 2.97634 0.375999 -1.5
      vertex 2.97634 0.375999 13.5
    endloop
  endfacet
  facet normal 0.998026 0.0628015 -3.49237e-20
    outer loop
      vertex 2.97634 0.375999 -1.5
      vertex 3 0 13.5
      vertex 3 0 -1.5
    endloop
  endfacet
  facet normal -0.998026 0.0628015 3.49237e-20
    outer loop
      vertex -3 0 -1.5
      vertex -2.97634 0.375999 13.5
      vertex -2.97634 0.375999 -1.5
    endloop
  endfacet
  facet normal -0.998026 0.0628015 3.49237e-20
    outer loop
      vertex -2.97634 0.375999 13.5
      vertex -3 0 -1.5
      vertex -3 0 13.5
    endloop
  endfacet
  facet normal 0 1 -0
    outer loop
      vertex 0.188371 2.99408 -1.5
      vertex -0.188371 2.99408 13.5
      vertex 0.188371 2.99408 13.5
    endloop
  endfacet
  facet normal 0 1 0
    outer loop
      vertex -0.188371 2.99408 13.5
      vertex 0.188371 2.99408 -1.5
      vertex -0.188371 2.99408 -1.5
    endloop
  endfacet
  facet normal 0.684541 0.728974 -0
    outer loop
      vertex 2.18691 2.05364 -1.5
      vertex 1.91227 2.31154 13.5
      vertex 2.18691 2.05364 13.5
    endloop
  endfacet
  facet normal 0.684541 0.728974 0
    outer loop
      vertex 1.91227 2.31154 13.5
      vertex 2.18691 2.05364 -1.5
      vertex 1.91227 2.31154 -1.5
    endloop
  endfacet
  facet normal -0.684541 0.728974 0
    outer loop
      vertex -1.91227 2.31154 -1.5
      vertex -2.18691 2.05364 13.5
      vertex -1.91227 2.31154 13.5
    endloop
  endfacet
  facet normal -0.684541 0.728974 0
    outer loop
      vertex -2.18691 2.05364 13.5
      vertex -1.91227 2.31154 -1.5
      vertex -2.18691 2.05364 -1.5
    endloop
  endfacet
  facet normal -0.368126 0.929776 0
    outer loop
      vertex -0.927051 2.85317 -1.5
      vertex -1.27734 2.71448 13.5
      vertex -0.927051 2.85317 13.5
    endloop
  endfacet
  facet normal -0.368126 0.929776 0
    outer loop
      vertex -1.27734 2.71448 13.5
      vertex -0.927051 2.85317 -1.5
      vertex -1.27734 2.71448 -1.5
    endloop
  endfacet
  facet normal 0.904828 0.425778 -5.16806e-19
    outer loop
      vertex 2.78933 1.10437 13.5
      vertex 2.62892 1.44526 -1.5
      vertex 2.62892 1.44526 13.5
    endloop
  endfacet
  facet normal 0.904828 0.425778 -5.16806e-19
    outer loop
      vertex 2.62892 1.44526 -1.5
      vertex 2.78933 1.10437 13.5
      vertex 2.78933 1.10437 -1.5
    endloop
  endfacet
  facet normal 0.98229 0.187369 -2.14039e-19
    outer loop
      vertex 2.97634 0.375999 13.5
      vertex 2.90575 0.746069 -1.5
      vertex 2.90575 0.746069 13.5
    endloop
  endfacet
  facet normal 0.98229 0.187369 -2.14039e-19
    outer loop
      vertex 2.90575 0.746069 -1.5
      vertex 2.97634 0.375999 13.5
      vertex 2.97634 0.375999 -1.5
    endloop
  endfacet
  facet normal 0.368126 0.929776 -0
    outer loop
      vertex 1.27734 2.71448 -1.5
      vertex 0.927051 2.85317 13.5
      vertex 1.27734 2.71448 13.5
    endloop
  endfacet
  facet normal 0.368126 0.929776 0
    outer loop
      vertex 0.927051 2.85317 13.5
      vertex 1.27734 2.71448 -1.5
      vertex 0.927051 2.85317 -1.5
    endloop
  endfacet
  facet normal 0.248684 0.968585 -0
    outer loop
      vertex 0.927051 2.85317 -1.5
      vertex 0.562143 2.94686 13.5
      vertex 0.927051 2.85317 13.5
    endloop
  endfacet
  facet normal 0.248684 0.968585 0
    outer loop
      vertex 0.562143 2.94686 13.5
      vertex 0.927051 2.85317 -1.5
      vertex 0.562143 2.94686 -1.5
    endloop
  endfacet
  facet normal 0.58778 0.809021 -0
    outer loop
      vertex 1.91227 2.31154 -1.5
      vertex 1.60748 2.53298 13.5
      vertex 1.91227 2.31154 13.5
    endloop
  endfacet
  facet normal 0.58778 0.809021 0
    outer loop
      vertex 1.60748 2.53298 13.5
      vertex 1.91227 2.31154 -1.5
      vertex 1.60748 2.53298 -1.5
    endloop
  endfacet
  facet normal -0.904828 0.425778 5.16806e-19
    outer loop
      vertex -2.78933 1.10437 -1.5
      vertex -2.62892 1.44526 13.5
      vertex -2.62892 1.44526 -1.5
    endloop
  endfacet
  facet normal -0.904828 0.425778 5.16806e-19
    outer loop
      vertex -2.62892 1.44526 13.5
      vertex -2.78933 1.10437 -1.5
      vertex -2.78933 1.10437 13.5
    endloop
  endfacet
  facet normal -0.844331 0.535822 -4.5565e-19
    outer loop
      vertex -2.62892 1.44526 -1.5
      vertex -2.42705 1.76336 13.5
      vertex -2.42705 1.76336 -1.5
    endloop
  endfacet
  facet normal -0.844331 0.535822 -4.5565e-19
    outer loop
      vertex -2.42705 1.76336 13.5
      vertex -2.62892 1.44526 -1.5
      vertex -2.62892 1.44526 13.5
    endloop
  endfacet
  facet normal -0.951056 0.309019 1.33101e-19
    outer loop
      vertex -2.90575 0.746069 -1.5
      vertex -2.78933 1.10437 13.5
      vertex -2.78933 1.10437 -1.5
    endloop
  endfacet
  facet normal -0.951056 0.309019 1.33101e-19
    outer loop
      vertex -2.78933 1.10437 13.5
      vertex -2.90575 0.746069 -1.5
      vertex -2.90575 0.746069 13.5
    endloop
  endfacet
  facet normal -0.58778 0.809021 0
    outer loop
      vertex -1.60748 2.53298 -1.5
      vertex -1.91227 2.31154 13.5
      vertex -1.60748 2.53298 13.5
    endloop
  endfacet
  facet normal -0.58778 0.809021 0
    outer loop
      vertex -1.91227 2.31154 13.5
      vertex -1.60748 2.53298 -1.5
      vertex -1.91227 2.31154 -1.5
    endloop
  endfacet
  facet normal -0.125337 0.992114 0
    outer loop
      vertex -0.188371 2.99408 -1.5
      vertex -0.562143 2.94686 13.5
      vertex -0.188371 2.99408 13.5
    endloop
  endfacet
  facet normal -0.125337 0.992114 0
    outer loop
      vertex -0.562143 2.94686 13.5
      vertex -0.188371 2.99408 -1.5
      vertex -0.562143 2.94686 -1.5
    endloop
  endfacet
  facet normal 0.998026 -0.0628015 3.49237e-20
    outer loop
      vertex 2.97634 -0.375999 13.5
      vertex 3 0 -1.5
      vertex 3 0 13.5
    endloop
  endfacet
  facet normal 0.998026 -0.0628015 3.49237e-20
    outer loop
      vertex 3 0 -1.5
      vertex 2.97634 -0.375999 13.5
      vertex 2.97634 -0.375999 -1.5
    endloop
  endfacet
  facet normal -0.904828 -0.425778 -5.16806e-19
    outer loop
      vertex -2.62892 -1.44526 -1.5
      vertex -2.78933 -1.10437 13.5
      vertex -2.78933 -1.10437 -1.5
    endloop
  endfacet
  facet normal -0.904828 -0.425778 -5.16806e-19
    outer loop
      vertex -2.78933 -1.10437 13.5
      vertex -2.62892 -1.44526 -1.5
      vertex -2.62892 -1.44526 13.5
    endloop
  endfacet
  facet normal 0.125337 -0.992114 0
    outer loop
      vertex 0.188371 -2.99408 -1.5
      vertex 0.562143 -2.94686 13.5
      vertex 0.188371 -2.99408 13.5
    endloop
  endfacet
  facet normal 0.125337 -0.992114 0
    outer loop
      vertex 0.562143 -2.94686 13.5
      vertex 0.188371 -2.99408 -1.5
      vertex 0.562143 -2.94686 -1.5
    endloop
  endfacet
  facet normal 0.951056 0.309019 -1.33101e-19
    outer loop
      vertex 2.90575 0.746069 13.5
      vertex 2.78933 1.10437 -1.5
      vertex 2.78933 1.10437 13.5
    endloop
  endfacet
  facet normal 0.951056 0.309019 -1.33101e-19
    outer loop
      vertex 2.78933 1.10437 -1.5
      vertex 2.90575 0.746069 13.5
      vertex 2.90575 0.746069 -1.5
    endloop
  endfacet
  facet normal 0.770514 0.637423 -8.39384e-19
    outer loop
      vertex 2.42705 1.76336 13.5
      vertex 2.18691 2.05364 -1.5
      vertex 2.18691 2.05364 13.5
    endloop
  endfacet
  facet normal 0.770514 0.637423 -8.39384e-19
    outer loop
      vertex 2.18691 2.05364 -1.5
      vertex 2.42705 1.76336 13.5
      vertex 2.42705 1.76336 -1.5
    endloop
  endfacet
  facet normal 0.844331 0.535822 4.5565e-19
    outer loop
      vertex 2.62892 1.44526 13.5
      vertex 2.42705 1.76336 -1.5
      vertex 2.42705 1.76336 13.5
    endloop
  endfacet
  facet normal 0.844331 0.535822 4.5565e-19
    outer loop
      vertex 2.42705 1.76336 -1.5
      vertex 2.62892 1.44526 13.5
      vertex 2.62892 1.44526 -1.5
    endloop
  endfacet
  facet normal 0.125337 0.992114 -0
    outer loop
      vertex 0.562143 2.94686 -1.5
      vertex 0.188371 2.99408 13.5
      vertex 0.562143 2.94686 13.5
    endloop
  endfacet
  facet normal 0.125337 0.992114 0
    outer loop
      vertex 0.188371 2.99408 13.5
      vertex 0.562143 2.94686 -1.5
      vertex 0.188371 2.99408 -1.5
    endloop
  endfacet
  facet normal 0.481762 0.876302 -0
    outer loop
      vertex 1.60748 2.53298 -1.5
      vertex 1.27734 2.71448 13.5
      vertex 1.60748 2.53298 13.5
    endloop
  endfacet
  facet normal 0.481762 0.876302 0
    outer loop
      vertex 1.27734 2.71448 13.5
      vertex 1.60748 2.53298 -1.5
      vertex 1.27734 2.71448 -1.5
    endloop
  endfacet
  facet normal -0.770514 0.637423 8.39384e-19
    outer loop
      vertex -2.42705 1.76336 -1.5
      vertex -2.18691 2.05364 13.5
      vertex -2.18691 2.05364 -1.5
    endloop
  endfacet
  facet normal -0.770514 0.637423 8.39384e-19
    outer loop
      vertex -2.18691 2.05364 13.5
      vertex -2.42705 1.76336 -1.5
      vertex -2.42705 1.76336 13.5
    endloop
  endfacet
  facet normal -0.98229 0.187369 2.14039e-19
    outer loop
      vertex -2.97634 0.375999 -1.5
      vertex -2.90575 0.746069 13.5
      vertex -2.90575 0.746069 -1.5
    endloop
  endfacet
  facet normal -0.98229 0.187369 2.14039e-19
    outer loop
      vertex -2.90575 0.746069 13.5
      vertex -2.97634 0.375999 -1.5
      vertex -2.97634 0.375999 13.5
    endloop
  endfacet
  facet normal -0.481762 0.876302 0
    outer loop
      vertex -1.27734 2.71448 -1.5
      vertex -1.60748 2.53298 13.5
      vertex -1.27734 2.71448 13.5
    endloop
  endfacet
  facet normal -0.481762 0.876302 0
    outer loop
      vertex -1.60748 2.53298 13.5
      vertex -1.27734 2.71448 -1.5
      vertex -1.60748 2.53298 -1.5
    endloop
  endfacet
  facet normal -0.248684 0.968585 0
    outer loop
      vertex -0.562143 2.94686 -1.5
      vertex -0.927051 2.85317 13.5
      vertex -0.562143 2.94686 13.5
    endloop
  endfacet
  facet normal -0.248684 0.968585 0
    outer loop
      vertex -0.927051 2.85317 13.5
      vertex -0.562143 2.94686 -1.5
      vertex -0.927051 2.85317 -1.5
    endloop
  endfacet
  facet normal 0.98229 -0.187369 2.14039e-19
    outer loop
      vertex 2.90575 -0.746069 13.5
      vertex 2.97634 -0.375999 -1.5
      vertex 2.97634 -0.375999 13.5
    endloop
  endfacet
  facet normal 0.98229 -0.187369 2.14039e-19
    outer loop
      vertex 2.97634 -0.375999 -1.5
      vertex 2.90575 -0.746069 13.5
      vertex 2.90575 -0.746069 -1.5
    endloop
  endfacet
  facet normal -0.951056 -0.309019 -1.33101e-19
    outer loop
      vertex -2.78933 -1.10437 -1.5
      vertex -2.90575 -0.746069 13.5
      vertex -2.90575 -0.746069 -1.5
    endloop
  endfacet
  facet normal -0.951056 -0.309019 -1.33101e-19
    outer loop
      vertex -2.90575 -0.746069 13.5
      vertex -2.78933 -1.10437 -1.5
      vertex -2.78933 -1.10437 13.5
    endloop
  endfacet
  facet normal 0.368126 -0.929776 0
    outer loop
      vertex 0.927051 -2.85317 -1.5
      vertex 1.27734 -2.71448 13.5
      vertex 0.927051 -2.85317 13.5
    endloop
  endfacet
  facet normal 0.368126 -0.929776 0
    outer loop
      vertex 1.27734 -2.71448 13.5
      vertex 0.927051 -2.85317 -1.5
      vertex 1.27734 -2.71448 -1.5
    endloop
  endfacet
  facet normal 0.248684 -0.968585 0
    outer loop
      vertex 0.562143 -2.94686 -1.5
      vertex 0.927051 -2.85317 13.5
      vertex 0.562143 -2.94686 13.5
    endloop
  endfacet
  facet normal 0.248684 -0.968585 0
    outer loop
      vertex 0.927051 -2.85317 13.5
      vertex 0.562143 -2.94686 -1.5
      vertex 0.927051 -2.85317 -1.5
    endloop
  endfacet
  facet normal 0 0 1
    outer loop
      vertex 1.5 0 13.5
      vertex 3 0 13.5
      vertex 2.97634 0.375999 13.5
    endloop
  endfacet
  facet normal 0 0 1
    outer loop
      vertex 1.48817 0.188 13.5
      vertex 2.97634 0.375999 13.5
      vertex 2.90575 0.746069 13.5
    endloop
  endfacet
  facet normal 0 0 1
    outer loop
      vertex 3 0 13.5
      vertex 1.5 0 13.5
      vertex 2.97634 -0.375999 13.5
    endloop
  endfacet
  facet normal 0 0 1
    outer loop
      vertex 1.45287 0.373034 13.5
      vertex 2.90575 0.746069 13.5
      vertex 2.78933 1.10437 13.5
    endloop
  endfacet
  facet normal -0 0 1
    outer loop
      vertex 1.48817 -0.188 13.5
      vertex 2.97634 -0.375999 13.5
      vertex 1.5 0 13.5
    endloop
  endfacet
  facet normal 0 0 1
    outer loop
      vertex 1.39466 0.552186 13.5
      vertex 2.78933 1.10437 13.5
      vertex 2.62892 1.44526 13.5
    endloop
  endfacet
  facet normal 0 0 1
    outer loop
      vertex 2.97634 -0.375999 13.5
      vertex 1.48817 -0.188 13.5
      vertex 2.90575 -0.746069 13.5
    endloop
  endfacet
  facet normal 0 0 1
    outer loop
      vertex 1.31446 0.722631 13.5
      vertex 2.62892 1.44526 13.5
      vertex 2.42705 1.76336 13.5
    endloop
  endfacet
  facet normal -0 0 1
    outer loop
      vertex 1.45287 -0.373034 13.5
      vertex 2.90575 -0.746069 13.5
      vertex 1.48817 -0.188 13.5
    endloop
  endfacet
  facet normal 0 0 1
    outer loop
      vertex 1.21352 0.881678 13.5
      vertex 2.42705 1.76336 13.5
      vertex 2.18691 2.05364 13.5
    endloop
  endfacet
  facet normal 0 0 1
    outer loop
      vertex 2.90575 -0.746069 13.5
      vertex 1.45287 -0.373034 13.5
      vertex 2.78933 -1.10437 13.5
    endloop
  endfacet
  facet normal 0 0 1
    outer loop
      vertex 1.09345 1.02682 13.5
      vertex 2.18691 2.05364 13.5
      vertex 1.91227 2.31154 13.5
    endloop
  endfacet
  facet normal -0 0 1
    outer loop
      vertex 1.39466 -0.552186 13.5
      vertex 2.78933 -1.10437 13.5
      vertex 1.45287 -0.373034 13.5
    endloop
  endfacet
  facet normal 0 0 1
    outer loop
      vertex 0.956136 1.15577 13.5
      vertex 1.91227 2.31154 13.5
      vertex 1.60748 2.53298 13.5
    endloop
  endfacet
  facet normal 0 0 1
    outer loop
      vertex 2.78933 -1.10437 13.5
      vertex 1.39466 -0.552186 13.5
      vertex 2.62892 -1.44526 13.5
    endloop
  endfacet
  facet normal -0 0 1
    outer loop
      vertex 1.31446 -0.722631 13.5
      vertex 2.62892 -1.44526 13.5
      vertex 1.39466 -0.552186 13.5
    endloop
  endfacet
  facet normal 0 0 1
    outer loop
      vertex 2.97634 0.375999 13.5
      vertex 1.48817 0.188 13.5
      vertex 1.5 0 13.5
    endloop
  endfacet
  facet normal 0 0 1
    outer loop
      vertex 2.90575 0.746069 13.5
      vertex 1.45287 0.373034 13.5
      vertex 1.48817 0.188 13.5
    endloop
  endfacet
  facet normal 0 0 1
    outer loop
      vertex 2.78933 1.10437 13.5
      vertex 1.39466 0.552186 13.5
      vertex 1.45287 0.373034 13.5
    endloop
  endfacet
  facet normal 0 0 1
    outer loop
      vertex 2.62892 1.44526 13.5
      vertex 1.31446 0.722631 13.5
      vertex 1.39466 0.552186 13.5
    endloop
  endfacet
  facet normal 0 0 1
    outer loop
      vertex 0.80374 1.26649 13.5
      vertex 1.60748 2.53298 13.5
      vertex 1.27734 2.71448 13.5
    endloop
  endfacet
  facet normal 0 0 1
    outer loop
      vertex 2.42705 1.76336 13.5
      vertex 1.21352 0.881678 13.5
      vertex 1.31446 0.722631 13.5
    endloop
  endfacet
  facet normal 0 0 1
    outer loop
      vertex 2.18691 2.05364 13.5
      vertex 1.09345 1.02682 13.5
      vertex 1.21352 0.881678 13.5
    endloop
  endfacet
  facet normal 0 0 1
    outer loop
      vertex 1.91227 2.31154 13.5
      vertex 0.956136 1.15577 13.5
      vertex 1.09345 1.02682 13.5
    endloop
  endfacet
  facet normal 0 0 1
    outer loop
      vertex 0.638668 1.35724 13.5
      vertex 1.27734 2.71448 13.5
      vertex 0.927051 2.85317 13.5
    endloop
  endfacet
  facet normal 0 0 1
    outer loop
      vertex 1.60748 2.53298 13.5
      vertex 0.80374 1.26649 13.5
      vertex 0.956136 1.15577 13.5
    endloop
  endfacet
  facet normal 0 0 1
    outer loop
      vertex 1.27734 2.71448 13.5
      vertex 0.638668 1.35724 13.5
      vertex 0.80374 1.26649 13.5
    endloop
  endfacet
  facet normal 0 0 1
    outer loop
      vertex 0.463525 1.42658 13.5
      vertex 0.927051 2.85317 13.5
      vertex 0.562143 2.94686 13.5
    endloop
  endfacet
  facet normal 0 0 1
    outer loop
      vertex 0.927051 2.85317 13.5
      vertex 0.463525 1.42658 13.5
      vertex 0.638668 1.35724 13.5
    endloop
  endfacet
  facet normal 0 0 1
    outer loop
      vertex 0.562143 2.94686 13.5
      vertex 0.281072 1.47343 13.5
      vertex 0.463525 1.42658 13.5
    endloop
  endfacet
  facet normal 0 0 1
    outer loop
      vertex 0.188371 2.99408 13.5
      vertex 0.281072 1.47343 13.5
      vertex 0.562143 2.94686 13.5
    endloop
  endfacet
  facet normal 0 0 1
    outer loop
      vertex 0.188371 2.99408 13.5
      vertex 0.0941849 1.49704 13.5
      vertex 0.281072 1.47343 13.5
    endloop
  endfacet
  facet normal 0 0 1
    outer loop
      vertex 0.188371 2.99408 13.5
      vertex -0.0941849 1.49704 13.5
      vertex 0.0941849 1.49704 13.5
    endloop
  endfacet
  facet normal -0 0 1
    outer loop
      vertex -0.188371 2.99408 13.5
      vertex -0.0941849 1.49704 13.5
      vertex 0.188371 2.99408 13.5
    endloop
  endfacet
  facet normal 0 0 1
    outer loop
      vertex -0.188371 2.99408 13.5
      vertex -0.281072 1.47343 13.5
      vertex -0.0941849 1.49704 13.5
    endloop
  endfacet
  facet normal -0 0 1
    outer loop
      vertex -0.562143 2.94686 13.5
      vertex -0.281072 1.47343 13.5
      vertex -0.188371 2.99408 13.5
    endloop
  endfacet
  facet normal 0 0 1
    outer loop
      vertex -0.281072 1.47343 13.5
      vertex -0.562143 2.94686 13.5
      vertex -0.463525 1.42658 13.5
    endloop
  endfacet
  facet normal -0 0 1
    outer loop
      vertex -0.927051 2.85317 13.5
      vertex -0.463525 1.42658 13.5
      vertex -0.562143 2.94686 13.5
    endloop
  endfacet
  facet normal 0 0 1
    outer loop
      vertex -0.463525 1.42658 13.5
      vertex -0.927051 2.85317 13.5
      vertex -0.638668 1.35724 13.5
    endloop
  endfacet
  facet normal -0 0 1
    outer loop
      vertex -1.27734 2.71448 13.5
      vertex -0.638668 1.35724 13.5
      vertex -0.927051 2.85317 13.5
    endloop
  endfacet
  facet normal 0 0 1
    outer loop
      vertex -0.638668 1.35724 13.5
      vertex -1.27734 2.71448 13.5
      vertex -0.80374 1.26649 13.5
    endloop
  endfacet
  facet normal -0 0 1
    outer loop
      vertex -1.60748 2.53298 13.5
      vertex -0.80374 1.26649 13.5
      vertex -1.27734 2.71448 13.5
    endloop
  endfacet
  facet normal 0 0 1
    outer loop
      vertex -0.80374 1.26649 13.5
      vertex -1.60748 2.53298 13.5
      vertex -0.956136 1.15577 13.5
    endloop
  endfacet
  facet normal -0 0 1
    outer loop
      vertex -1.91227 2.31154 13.5
      vertex -0.956136 1.15577 13.5
      vertex -1.60748 2.53298 13.5
    endloop
  endfacet
  facet normal 0 0 1
    outer loop
      vertex -0.956136 1.15577 13.5
      vertex -1.91227 2.31154 13.5
      vertex -1.09345 1.02682 13.5
    endloop
  endfacet
  facet normal -0 0 1
    outer loop
      vertex -2.18691 2.05364 13.5
      vertex -1.09345 1.02682 13.5
      vertex -1.91227 2.31154 13.5
    endloop
  endfacet
  facet normal 0 0 1
    outer loop
      vertex -1.09345 1.02682 13.5
      vertex -2.18691 2.05364 13.5
      vertex -1.21352 0.881678 13.5
    endloop
  endfacet
  facet normal -0 0 1
    outer loop
      vertex -2.42705 1.76336 13.5
      vertex -1.21352 0.881678 13.5
      vertex -2.18691 2.05364 13.5
    endloop
  endfacet
  facet normal -0 0 1
    outer loop
      vertex -2.62892 1.44526 13.5
      vertex -1.31446 0.722631 13.5
      vertex -2.42705 1.76336 13.5
    endloop
  endfacet
  facet normal 0 0 1
    outer loop
      vertex -1.21352 0.881678 13.5
      vertex -2.42705 1.76336 13.5
      vertex -1.31446 0.722631 13.5
    endloop
  endfacet
  facet normal 0 0 1
    outer loop
      vertex 2.62892 -1.44526 13.5
      vertex 1.31446 -0.722631 13.5
      vertex 2.42705 -1.76336 13.5
    endloop
  endfacet
  facet normal -0 0 1
    outer loop
      vertex 1.21352 -0.881678 13.5
      vertex 2.42705 -1.76336 13.5
      vertex 1.31446 -0.722631 13.5
    endloop
  endfacet
  facet normal 0 0 1
    outer loop
      vertex 2.42705 -1.76336 13.5
      vertex 1.21352 -0.881678 13.5
      vertex 2.18691 -2.05364 13.5
    endloop
  endfacet
  facet normal -0 0 1
    outer loop
      vertex 1.09345 -1.02682 13.5
      vertex 2.18691 -2.05364 13.5
      vertex 1.21352 -0.881678 13.5
    endloop
  endfacet
  facet normal 0 0 1
    outer loop
      vertex 2.18691 -2.05364 13.5
      vertex 1.09345 -1.02682 13.5
      vertex 1.91227 -2.31154 13.5
    endloop
  endfacet
  facet normal -0 0 1
    outer loop
      vertex 0.956136 -1.15577 13.5
      vertex 1.91227 -2.31154 13.5
      vertex 1.09345 -1.02682 13.5
    endloop
  endfacet
  facet normal 0 0 1
    outer loop
      vertex 1.91227 -2.31154 13.5
      vertex 0.956136 -1.15577 13.5
      vertex 1.60748 -2.53298 13.5
    endloop
  endfacet
  facet normal -0 0 1
    outer loop
      vertex 0.80374 -1.26649 13.5
      vertex 1.60748 -2.53298 13.5
      vertex 0.956136 -1.15577 13.5
    endloop
  endfacet
  facet normal 0 0 1
    outer loop
      vertex 1.60748 -2.53298 13.5
      vertex 0.80374 -1.26649 13.5
      vertex 1.27734 -2.71448 13.5
    endloop
  endfacet
  facet normal -0 0 1
    outer loop
      vertex 0.638668 -1.35724 13.5
      vertex 1.27734 -2.71448 13.5
      vertex 0.80374 -1.26649 13.5
    endloop
  endfacet
  facet normal 0 0 1
    outer loop
      vertex 1.27734 -2.71448 13.5
      vertex 0.638668 -1.35724 13.5
      vertex 0.927051 -2.85317 13.5
    endloop
  endfacet
  facet normal -0 0 1
    outer loop
      vertex 0.463525 -1.42658 13.5
      vertex 0.927051 -2.85317 13.5
      vertex 0.638668 -1.35724 13.5
    endloop
  endfacet
  facet normal 0 0 1
    outer loop
      vertex 0.927051 -2.85317 13.5
      vertex 0.463525 -1.42658 13.5
      vertex 0.562143 -2.94686 13.5
    endloop
  endfacet
  facet normal -0 0 1
    outer loop
      vertex 0.281072 -1.47343 13.5
      vertex 0.562143 -2.94686 13.5
      vertex 0.463525 -1.42658 13.5
    endloop
  endfacet
  facet normal 0 0 1
    outer loop
      vertex 0.281072 -1.47343 13.5
      vertex 0.188371 -2.99408 13.5
      vertex 0.562143 -2.94686 13.5
    endloop
  endfacet
  facet normal -0 0 1
    outer loop
      vertex 0.0941849 -1.49704 13.5
      vertex 0.188371 -2.99408 13.5
      vertex 0.281072 -1.47343 13.5
    endloop
  endfacet
  facet normal -0 0 1
    outer loop
      vertex -0.0941849 -1.49704 13.5
      vertex 0.188371 -2.99408 13.5
      vertex 0.0941849 -1.49704 13.5
    endloop
  endfacet
  facet normal 0 0 1
    outer loop
      vertex -0.0941849 -1.49704 13.5
      vertex -0.188371 -2.99408 13.5
      vertex 0.188371 -2.99408 13.5
    endloop
  endfacet
  facet normal 0 0 1
    outer loop
      vertex -0.281072 -1.47343 13.5
      vertex -0.188371 -2.99408 13.5
      vertex -0.0941849 -1.49704 13.5
    endloop
  endfacet
  facet normal 0 0 1
    outer loop
      vertex -0.562143 -2.94686 13.5
      vertex -0.281072 -1.47343 13.5
      vertex -0.463525 -1.42658 13.5
    endloop
  endfacet
  facet normal 0 0 1
    outer loop
      vertex -0.281072 -1.47343 13.5
      vertex -0.562143 -2.94686 13.5
      vertex -0.188371 -2.99408 13.5
    endloop
  endfacet
  facet normal 0 0 1
    outer loop
      vertex -0.927051 -2.85317 13.5
      vertex -0.463525 -1.42658 13.5
      vertex -0.638668 -1.35724 13.5
    endloop
  endfacet
  facet normal 0 0 1
    outer loop
      vertex -1.27734 -2.71448 13.5
      vertex -0.638668 -1.35724 13.5
      vertex -0.80374 -1.26649 13.5
    endloop
  endfacet
  facet normal 0 0 1
    outer loop
      vertex -0.463525 -1.42658 13.5
      vertex -0.927051 -2.85317 13.5
      vertex -0.562143 -2.94686 13.5
    endloop
  endfacet
  facet normal 0 0 1
    outer loop
      vertex -1.60748 -2.53298 13.5
      vertex -0.80374 -1.26649 13.5
      vertex -0.956136 -1.15577 13.5
    endloop
  endfacet
  facet normal 0 0 1
    outer loop
      vertex -1.91227 -2.31154 13.5
      vertex -0.956136 -1.15577 13.5
      vertex -1.09345 -1.02682 13.5
    endloop
  endfacet
  facet normal 0 0 1
    outer loop
      vertex -2.18691 -2.05364 13.5
      vertex -1.09345 -1.02682 13.5
      vertex -1.21352 -0.881678 13.5
    endloop
  endfacet
  facet normal 0 0 1
    outer loop
      vertex -0.638668 -1.35724 13.5
      vertex -1.27734 -2.71448 13.5
      vertex -0.927051 -2.85317 13.5
    endloop
  endfacet
  facet normal 0 0 1
    outer loop
      vertex -2.42705 -1.76336 13.5
      vertex -1.21352 -0.881678 13.5
      vertex -1.31446 -0.722631 13.5
    endloop
  endfacet
  facet normal 0 0 1
    outer loop
      vertex -2.62892 -1.44526 13.5
      vertex -1.31446 -0.722631 13.5
      vertex -1.39466 -0.552186 13.5
    endloop
  endfacet
  facet normal 0 0 1
    outer loop
      vertex -2.78933 -1.10437 13.5
      vertex -1.39466 -0.552186 13.5
      vertex -1.45287 -0.373034 13.5
    endloop
  endfacet
  facet normal 0 0 1
    outer loop
      vertex -2.90575 -0.746069 13.5
      vertex -1.45287 -0.373034 13.5
      vertex -1.48817 -0.188 13.5
    endloop
  endfacet
  facet normal 0 0 1
    outer loop
      vertex -0.80374 -1.26649 13.5
      vertex -1.60748 -2.53298 13.5
      vertex -1.27734 -2.71448 13.5
    endloop
  endfacet
  facet normal 0 0 1
    outer loop
      vertex -2.97634 -0.375999 13.5
      vertex -1.48817 -0.188 13.5
      vertex -1.5 0 13.5
    endloop
  endfacet
  facet normal 0 0 1
    outer loop
      vertex -1.31446 0.722631 13.5
      vertex -2.62892 1.44526 13.5
      vertex -1.39466 0.552186 13.5
    endloop
  endfacet
  facet normal -0 0 1
    outer loop
      vertex -2.78933 1.10437 13.5
      vertex -1.39466 0.552186 13.5
      vertex -2.62892 1.44526 13.5
    endloop
  endfacet
  facet normal 0 0 1
    outer loop
      vertex -0.956136 -1.15577 13.5
      vertex -1.91227 -2.31154 13.5
      vertex -1.60748 -2.53298 13.5
    endloop
  endfacet
  facet normal 0 0 1
    outer loop
      vertex -1.39466 0.552186 13.5
      vertex -2.78933 1.10437 13.5
      vertex -1.45287 0.373034 13.5
    endloop
  endfacet
  facet normal 0 0 1
    outer loop
      vertex -1.09345 -1.02682 13.5
      vertex -2.18691 -2.05364 13.5
      vertex -1.91227 -2.31154 13.5
    endloop
  endfacet
  facet normal -0 0 1
    outer loop
      vertex -2.90575 0.746069 13.5
      vertex -1.45287 0.373034 13.5
      vertex -2.78933 1.10437 13.5
    endloop
  endfacet
  facet normal 0 0 1
    outer loop
      vertex -1.21352 -0.881678 13.5
      vertex -2.42705 -1.76336 13.5
      vertex -2.18691 -2.05364 13.5
    endloop
  endfacet
  facet normal 0 0 1
    outer loop
      vertex -1.45287 0.373034 13.5
      vertex -2.90575 0.746069 13.5
      vertex -1.48817 0.188 13.5
    endloop
  endfacet
  facet normal 0 0 1
    outer loop
      vertex -1.31446 -0.722631 13.5
      vertex -2.62892 -1.44526 13.5
      vertex -2.42705 -1.76336 13.5
    endloop
  endfacet
  facet normal -0 0 1
    outer loop
      vertex -2.97634 0.375999 13.5
      vertex -1.48817 0.188 13.5
      vertex -2.90575 0.746069 13.5
    endloop
  endfacet
  facet normal 0 0 1
    outer loop
      vertex -1.39466 -0.552186 13.5
      vertex -2.78933 -1.10437 13.5
      vertex -2.62892 -1.44526 13.5
    endloop
  endfacet
  facet normal 0 0 1
    outer loop
      vertex -1.48817 0.188 13.5
      vertex -2.97634 0.375999 13.5
      vertex -1.5 0 13.5
    endloop
  endfacet
  facet normal 0 0 1
    outer loop
      vertex -1.45287 -0.373034 13.5
      vertex -2.90575 -0.746069 13.5
      vertex -2.78933 -1.10437 13.5
    endloop
  endfacet
  facet normal 0 0 1
    outer loop
      vertex -3 0 13.5
      vertex -1.5 0 13.5
      vertex -2.97634 0.375999 13.5
    endloop
  endfacet
  facet normal 0 0 1
    outer loop
      vertex -1.48817 -0.188 13.5
      vertex -2.97634 -0.375999 13.5
      vertex -2.90575 -0.746069 13.5
    endloop
  endfacet
  facet normal 0 0 1
    outer loop
      vertex -1.5 0 13.5
      vertex -3 0 13.5
      vertex -2.97634 -0.375999 13.5
    endloop
  endfacet
  facet normal 0.481762 -0.876302 0
    outer loop
      vertex 1.27734 -2.71448 -1.5
      vertex 1.60748 -2.53298 13.5
      vertex 1.27734 -2.71448 13.5
    endloop
  endfacet
  facet normal 0.481762 -0.876302 0
    outer loop
      vertex 1.60748 -2.53298 13.5
      vertex 1.27734 -2.71448 -1.5
      vertex 1.60748 -2.53298 -1.5
    endloop
  endfacet
  facet normal 0.684541 -0.728974 0
    outer loop
      vertex 1.91227 -2.31154 -1.5
      vertex 2.18691 -2.05364 13.5
      vertex 1.91227 -2.31154 13.5
    endloop
  endfacet
  facet normal 0.684541 -0.728974 0
    outer loop
      vertex 2.18691 -2.05364 13.5
      vertex 1.91227 -2.31154 -1.5
      vertex 2.18691 -2.05364 -1.5
    endloop
  endfacet
  facet normal 0.904828 -0.425778 5.16806e-19
    outer loop
      vertex 2.62892 -1.44526 13.5
      vertex 2.78933 -1.10437 -1.5
      vertex 2.78933 -1.10437 13.5
    endloop
  endfacet
  facet normal 0.904828 -0.425778 5.16806e-19
    outer loop
      vertex 2.78933 -1.10437 -1.5
      vertex 2.62892 -1.44526 13.5
      vertex 2.62892 -1.44526 -1.5
    endloop
  endfacet
  facet normal 0.770514 -0.637423 8.39384e-19
    outer loop
      vertex 2.18691 -2.05364 13.5
      vertex 2.42705 -1.76336 -1.5
      vertex 2.42705 -1.76336 13.5
    endloop
  endfacet
  facet normal 0.770514 -0.637423 8.39384e-19
    outer loop
      vertex 2.42705 -1.76336 -1.5
      vertex 2.18691 -2.05364 13.5
      vertex 2.18691 -2.05364 -1.5
    endloop
  endfacet
  facet normal -0.248684 -0.968585 0
    outer loop
      vertex -0.927051 -2.85317 -1.5
      vertex -0.562143 -2.94686 13.5
      vertex -0.927051 -2.85317 13.5
    endloop
  endfacet
  facet normal -0.248684 -0.968585 -0
    outer loop
      vertex -0.562143 -2.94686 13.5
      vertex -0.927051 -2.85317 -1.5
      vertex -0.562143 -2.94686 -1.5
    endloop
  endfacet
  facet normal -0.58778 -0.809021 0
    outer loop
      vertex -1.91227 -2.31154 -1.5
      vertex -1.60748 -2.53298 13.5
      vertex -1.91227 -2.31154 13.5
    endloop
  endfacet
  facet normal -0.58778 -0.809021 -0
    outer loop
      vertex -1.60748 -2.53298 13.5
      vertex -1.91227 -2.31154 -1.5
      vertex -1.60748 -2.53298 -1.5
    endloop
  endfacet
  facet normal -0.684541 -0.728974 0
    outer loop
      vertex -2.18691 -2.05364 -1.5
      vertex -1.91227 -2.31154 13.5
      vertex -2.18691 -2.05364 13.5
    endloop
  endfacet
  facet normal -0.684541 -0.728974 -0
    outer loop
      vertex -1.91227 -2.31154 13.5
      vertex -2.18691 -2.05364 -1.5
      vertex -1.91227 -2.31154 -1.5
    endloop
  endfacet
  facet normal -0.998026 -0.0628015 -3.49237e-20
    outer loop
      vertex -2.97634 -0.375999 -1.5
      vertex -3 0 13.5
      vertex -3 0 -1.5
    endloop
  endfacet
  facet normal -0.998026 -0.0628015 -3.49237e-20
    outer loop
      vertex -3 0 13.5
      vertex -2.97634 -0.375999 -1.5
      vertex -2.97634 -0.375999 13.5
    endloop
  endfacet
  facet normal -0.98229 -0.187369 -2.14039e-19
    outer loop
      vertex -2.90575 -0.746069 -1.5
      vertex -2.97634 -0.375999 13.5
      vertex -2.97634 -0.375999 -1.5
    endloop
  endfacet
  facet normal -0.98229 -0.187369 -2.14039e-19
    outer loop
      vertex -2.97634 -0.375999 13.5
      vertex -2.90575 -0.746069 -1.5
      vertex -2.90575 -0.746069 13.5
    endloop
  endfacet
  facet normal 0.58778 -0.809021 0
    outer loop
      vertex 1.60748 -2.53298 -1.5
      vertex 1.91227 -2.31154 13.5
      vertex 1.60748 -2.53298 13.5
    endloop
  endfacet
  facet normal 0.58778 -0.809021 0
    outer loop
      vertex 1.91227 -2.31154 13.5
      vertex 1.60748 -2.53298 -1.5
      vertex 1.91227 -2.31154 -1.5
    endloop
  endfacet
  facet normal 0.951056 -0.309019 1.33101e-19
    outer loop
      vertex 2.78933 -1.10437 13.5
      vertex 2.90575 -0.746069 -1.5
      vertex 2.90575 -0.746069 13.5
    endloop
  endfacet
  facet normal 0.951056 -0.309019 1.33101e-19
    outer loop
      vertex 2.90575 -0.746069 -1.5
      vertex 2.78933 -1.10437 13.5
      vertex 2.78933 -1.10437 -1.5
    endloop
  endfacet
  facet normal 0.844331 -0.535822 -4.5565e-19
    outer loop
      vertex 2.42705 -1.76336 13.5
      vertex 2.62892 -1.44526 -1.5
      vertex 2.62892 -1.44526 13.5
    endloop
  endfacet
  facet normal 0.844331 -0.535822 -4.5565e-19
    outer loop
      vertex 2.62892 -1.44526 -1.5
      vertex 2.42705 -1.76336 13.5
      vertex 2.42705 -1.76336 -1.5
    endloop
  endfacet
  facet normal 0 -1 0
    outer loop
      vertex -0.188371 -2.99408 -1.5
      vertex 0.188371 -2.99408 13.5
      vertex -0.188371 -2.99408 13.5
    endloop
  endfacet
  facet normal 0 -1 -0
    outer loop
      vertex 0.188371 -2.99408 13.5
      vertex -0.188371 -2.99408 -1.5
      vertex 0.188371 -2.99408 -1.5
    endloop
  endfacet
  facet normal -0.125337 -0.992114 0
    outer loop
      vertex -0.562143 -2.94686 -1.5
      vertex -0.188371 -2.99408 13.5
      vertex -0.562143 -2.94686 13.5
    endloop
  endfacet
  facet normal -0.125337 -0.992114 -0
    outer loop
      vertex -0.188371 -2.99408 13.5
      vertex -0.562143 -2.94686 -1.5
      vertex -0.188371 -2.99408 -1.5
    endloop
  endfacet
  facet normal -0.770514 -0.637423 -8.39384e-19
    outer loop
      vertex -2.18691 -2.05364 -1.5
      vertex -2.42705 -1.76336 13.5
      vertex -2.42705 -1.76336 -1.5
    endloop
  endfacet
  facet normal -0.770514 -0.637423 -8.39384e-19
    outer loop
      vertex -2.42705 -1.76336 13.5
      vertex -2.18691 -2.05364 -1.5
      vertex -2.18691 -2.05364 13.5
    endloop
  endfacet
  facet normal -0.844331 -0.535822 4.5565e-19
    outer loop
      vertex -2.42705 -1.76336 -1.5
      vertex -2.62892 -1.44526 13.5
      vertex -2.62892 -1.44526 -1.5
    endloop
  endfacet
  facet normal -0.844331 -0.535822 4.5565e-19
    outer loop
      vertex -2.62892 -1.44526 13.5
      vertex -2.42705 -1.76336 -1.5
      vertex -2.42705 -1.76336 13.5
    endloop
  endfacet
  facet normal -0.368126 -0.929776 0
    outer loop
      vertex -1.27734 -2.71448 -1.5
      vertex -0.927051 -2.85317 13.5
      vertex -1.27734 -2.71448 13.5
    endloop
  endfacet
  facet normal -0.368126 -0.929776 -0
    outer loop
      vertex -0.927051 -2.85317 13.5
      vertex -1.27734 -2.71448 -1.5
      vertex -0.927051 -2.85317 -1.5
    endloop
  endfacet
  facet normal -0.481762 -0.876302 0
    outer loop
      vertex -1.60748 -2.53298 -1.5
      vertex -1.27734 -2.71448 13.5
      vertex -1.60748 -2.53298 13.5
    endloop
  endfacet
  facet normal -0.481762 -0.876302 -0
    outer loop
      vertex -1.27734 -2.71448 13.5
      vertex -1.60748 -2.53298 -1.5
      vertex -1.27734 -2.71448 -1.5
    endloop
  endfacet
  facet normal -0.998026 -0.0628013 3.07268e-21
    outer loop
      vertex 1.5 0 -1.5
      vertex 1.48817 0.188 13.5
      vertex 1.48817 0.188 -1.5
    endloop
  endfacet
  facet normal -0.998026 -0.0628013 3.07268e-21
    outer loop
      vertex 1.48817 0.188 13.5
      vertex 1.5 0 -1.5
      vertex 1.5 0 13.5
    endloop
  endfacet
  facet normal 0.998026 -0.0628013 -3.07268e-21
    outer loop
      vertex -1.5 0 13.5
      vertex -1.48817 0.188 -1.5
      vertex -1.48817 0.188 13.5
    endloop
  endfacet
  facet normal 0.998026 -0.0628013 -3.07268e-21
    outer loop
      vertex -1.48817 0.188 -1.5
      vertex -1.5 0 13.5
      vertex -1.5 0 -1.5
    endloop
  endfacet
  facet normal 0 -1 0
    outer loop
      vertex -0.0941849 1.49704 -1.5
      vertex 0.0941849 1.49704 13.5
      vertex -0.0941849 1.49704 13.5
    endloop
  endfacet
  facet normal 0 -1 -0
    outer loop
      vertex 0.0941849 1.49704 13.5
      vertex -0.0941849 1.49704 -1.5
      vertex 0.0941849 1.49704 -1.5
    endloop
  endfacet
  facet normal -0.684557 -0.728959 0
    outer loop
      vertex 0.956136 1.15577 -1.5
      vertex 1.09345 1.02682 13.5
      vertex 0.956136 1.15577 13.5
    endloop
  endfacet
  facet normal -0.684557 -0.728959 -0
    outer loop
      vertex 1.09345 1.02682 13.5
      vertex 0.956136 1.15577 -1.5
      vertex 1.09345 1.02682 -1.5
    endloop
  endfacet
  facet normal 0.684557 -0.728959 0
    outer loop
      vertex -1.09345 1.02682 -1.5
      vertex -0.956136 1.15577 13.5
      vertex -1.09345 1.02682 13.5
    endloop
  endfacet
  facet normal 0.684557 -0.728959 0
    outer loop
      vertex -0.956136 1.15577 13.5
      vertex -1.09345 1.02682 -1.5
      vertex -0.956136 1.15577 -1.5
    endloop
  endfacet
  facet normal 0.368106 -0.929784 0
    outer loop
      vertex -0.638668 1.35724 -1.5
      vertex -0.463525 1.42658 13.5
      vertex -0.638668 1.35724 13.5
    endloop
  endfacet
  facet normal 0.368106 -0.929784 0
    outer loop
      vertex -0.463525 1.42658 13.5
      vertex -0.638668 1.35724 -1.5
      vertex -0.463525 1.42658 -1.5
    endloop
  endfacet
  facet normal -0.904838 -0.425756 -1.78966e-19
    outer loop
      vertex 1.39466 0.552186 -1.5
      vertex 1.31446 0.722631 13.5
      vertex 1.31446 0.722631 -1.5
    endloop
  endfacet
  facet normal -0.904838 -0.425756 -1.78966e-19
    outer loop
      vertex 1.31446 0.722631 13.5
      vertex 1.39466 0.552186 -1.5
      vertex 1.39466 0.552186 13.5
    endloop
  endfacet
  facet normal -0.982284 -0.187396 7.59929e-20
    outer loop
      vertex 1.48817 0.188 -1.5
      vertex 1.45287 0.373034 13.5
      vertex 1.45287 0.373034 -1.5
    endloop
  endfacet
  facet normal -0.982284 -0.187396 7.59929e-20
    outer loop
      vertex 1.45287 0.373034 13.5
      vertex 1.48817 0.188 -1.5
      vertex 1.48817 0.188 13.5
    endloop
  endfacet
  facet normal -0.368106 -0.929784 0
    outer loop
      vertex 0.463525 1.42658 -1.5
      vertex 0.638668 1.35724 13.5
      vertex 0.463525 1.42658 13.5
    endloop
  endfacet
  facet normal -0.368106 -0.929784 -0
    outer loop
      vertex 0.638668 1.35724 13.5
      vertex 0.463525 1.42658 -1.5
      vertex 0.638668 1.35724 -1.5
    endloop
  endfacet
  facet normal -0.24871 -0.968578 0
    outer loop
      vertex 0.281072 1.47343 -1.5
      vertex 0.463525 1.42658 13.5
      vertex 0.281072 1.47343 13.5
    endloop
  endfacet
  facet normal -0.24871 -0.968578 -0
    outer loop
      vertex 0.463525 1.42658 13.5
      vertex 0.281072 1.47343 -1.5
      vertex 0.463525 1.42658 -1.5
    endloop
  endfacet
  facet normal -0.587778 -0.809022 0
    outer loop
      vertex 0.80374 1.26649 -1.5
      vertex 0.956136 1.15577 13.5
      vertex 0.80374 1.26649 13.5
    endloop
  endfacet
  facet normal -0.587778 -0.809022 -0
    outer loop
      vertex 0.956136 1.15577 13.5
      vertex 0.80374 1.26649 -1.5
      vertex 0.956136 1.15577 -1.5
    endloop
  endfacet
  facet normal 0.904838 -0.425756 1.78966e-19
    outer loop
      vertex -1.39466 0.552186 13.5
      vertex -1.31446 0.722631 -1.5
      vertex -1.31446 0.722631 13.5
    endloop
  endfacet
  facet normal 0.904838 -0.425756 1.78966e-19
    outer loop
      vertex -1.31446 0.722631 -1.5
      vertex -1.39466 0.552186 13.5
      vertex -1.39466 0.552186 -1.5
    endloop
  endfacet
  facet normal 0.844314 -0.535848 5.3419e-19
    outer loop
      vertex -1.31446 0.722631 13.5
      vertex -1.21352 0.881678 -1.5
      vertex -1.21352 0.881678 13.5
    endloop
  endfacet
  facet normal 0.844314 -0.535848 5.3419e-19
    outer loop
      vertex -1.21352 0.881678 -1.5
      vertex -1.31446 0.722631 13.5
      vertex -1.31446 0.722631 -1.5
    endloop
  endfacet
  facet normal 0.951057 -0.309017 5.00622e-20
    outer loop
      vertex -1.45287 0.373034 13.5
      vertex -1.39466 0.552186 -1.5
      vertex -1.39466 0.552186 13.5
    endloop
  endfacet
  facet normal 0.951057 -0.309017 5.00622e-20
    outer loop
      vertex -1.39466 0.552186 -1.5
      vertex -1.45287 0.373034 13.5
      vertex -1.45287 0.373034 -1.5
    endloop
  endfacet
  facet normal 0.587778 -0.809022 0
    outer loop
      vertex -0.956136 1.15577 -1.5
      vertex -0.80374 1.26649 13.5
      vertex -0.956136 1.15577 13.5
    endloop
  endfacet
  facet normal 0.587778 -0.809022 0
    outer loop
      vertex -0.80374 1.26649 13.5
      vertex -0.956136 1.15577 -1.5
      vertex -0.80374 1.26649 -1.5
    endloop
  endfacet
  facet normal 0.125337 -0.992114 0
    outer loop
      vertex -0.281072 1.47343 -1.5
      vertex -0.0941849 1.49704 13.5
      vertex -0.281072 1.47343 13.5
    endloop
  endfacet
  facet normal 0.125337 -0.992114 0
    outer loop
      vertex -0.0941849 1.49704 13.5
      vertex -0.281072 1.47343 -1.5
      vertex -0.0941849 1.49704 -1.5
    endloop
  endfacet
  facet normal -0.998026 0.0628013 -3.07268e-21
    outer loop
      vertex 1.48817 -0.188 -1.5
      vertex 1.5 0 13.5
      vertex 1.5 0 -1.5
    endloop
  endfacet
  facet normal -0.998026 0.0628013 -3.07268e-21
    outer loop
      vertex 1.5 0 13.5
      vertex 1.48817 -0.188 -1.5
      vertex 1.48817 -0.188 13.5
    endloop
  endfacet
  facet normal 0.24871 0.968578 -0
    outer loop
      vertex -0.281072 -1.47343 -1.5
      vertex -0.463525 -1.42658 13.5
      vertex -0.281072 -1.47343 13.5
    endloop
  endfacet
  facet normal 0.24871 0.968578 0
    outer loop
      vertex -0.463525 -1.42658 13.5
      vertex -0.281072 -1.47343 -1.5
      vertex -0.463525 -1.42658 -1.5
    endloop
  endfacet
  facet normal 0.904838 0.425756 -1.78966e-19
    outer loop
      vertex -1.31446 -0.722631 13.5
      vertex -1.39466 -0.552186 -1.5
      vertex -1.39466 -0.552186 13.5
    endloop
  endfacet
  facet normal 0.904838 0.425756 -1.78966e-19
    outer loop
      vertex -1.39466 -0.552186 -1.5
      vertex -1.31446 -0.722631 13.5
      vertex -1.31446 -0.722631 -1.5
    endloop
  endfacet
  facet normal -0.125337 0.992114 0
    outer loop
      vertex 0.281072 -1.47343 -1.5
      vertex 0.0941849 -1.49704 13.5
      vertex 0.281072 -1.47343 13.5
    endloop
  endfacet
  facet normal -0.125337 0.992114 0
    outer loop
      vertex 0.0941849 -1.49704 13.5
      vertex 0.281072 -1.47343 -1.5
      vertex 0.0941849 -1.49704 -1.5
    endloop
  endfacet
  facet normal -0.951057 -0.309017 -5.00622e-20
    outer loop
      vertex 1.45287 0.373034 -1.5
      vertex 1.39466 0.552186 13.5
      vertex 1.39466 0.552186 -1.5
    endloop
  endfacet
  facet normal -0.951057 -0.309017 -5.00622e-20
    outer loop
      vertex 1.39466 0.552186 13.5
      vertex 1.45287 0.373034 -1.5
      vertex 1.45287 0.373034 13.5
    endloop
  endfacet
  facet normal -0.770518 -0.637418 -3.43545e-19
    outer loop
      vertex 1.21352 0.881678 -1.5
      vertex 1.09345 1.02682 13.5
      vertex 1.09345 1.02682 -1.5
    endloop
  endfacet
  facet normal -0.770518 -0.637418 -3.43545e-19
    outer loop
      vertex 1.09345 1.02682 13.5
      vertex 1.21352 0.881678 -1.5
      vertex 1.21352 0.881678 13.5
    endloop
  endfacet
  facet normal -0.844314 -0.535848 -5.3419e-19
    outer loop
      vertex 1.31446 0.722631 -1.5
      vertex 1.21352 0.881678 13.5
      vertex 1.21352 0.881678 -1.5
    endloop
  endfacet
  facet normal -0.844314 -0.535848 -5.3419e-19
    outer loop
      vertex 1.21352 0.881678 13.5
      vertex 1.31446 0.722631 -1.5
      vertex 1.31446 0.722631 13.5
    endloop
  endfacet
  facet normal -0.125337 -0.992114 0
    outer loop
      vertex 0.0941849 1.49704 -1.5
      vertex 0.281072 1.47343 13.5
      vertex 0.0941849 1.49704 13.5
    endloop
  endfacet
  facet normal -0.125337 -0.992114 -0
    outer loop
      vertex 0.281072 1.47343 13.5
      vertex 0.0941849 1.49704 -1.5
      vertex 0.281072 1.47343 -1.5
    endloop
  endfacet
  facet normal -0.481757 -0.876305 0
    outer loop
      vertex 0.638668 1.35724 -1.5
      vertex 0.80374 1.26649 13.5
      vertex 0.638668 1.35724 13.5
    endloop
  endfacet
  facet normal -0.481757 -0.876305 -0
    outer loop
      vertex 0.80374 1.26649 13.5
      vertex 0.638668 1.35724 -1.5
      vertex 0.80374 1.26649 -1.5
    endloop
  endfacet
  facet normal 0.770518 -0.637418 3.43545e-19
    outer loop
      vertex -1.21352 0.881678 13.5
      vertex -1.09345 1.02682 -1.5
      vertex -1.09345 1.02682 13.5
    endloop
  endfacet
  facet normal 0.770518 -0.637418 3.43545e-19
    outer loop
      vertex -1.09345 1.02682 -1.5
      vertex -1.21352 0.881678 13.5
      vertex -1.21352 0.881678 -1.5
    endloop
  endfacet
  facet normal -0.982284 0.187396 -7.59929e-20
    outer loop
      vertex 1.45287 -0.373034 -1.5
      vertex 1.48817 -0.188 13.5
      vertex 1.48817 -0.188 -1.5
    endloop
  endfacet
  facet normal -0.982284 0.187396 -7.59929e-20
    outer loop
      vertex 1.48817 -0.188 13.5
      vertex 1.45287 -0.373034 -1.5
      vertex 1.45287 -0.373034 13.5
    endloop
  endfacet
  facet normal 0.951057 0.309017 -5.00622e-20
    outer loop
      vertex -1.39466 -0.552186 13.5
      vertex -1.45287 -0.373034 -1.5
      vertex -1.45287 -0.373034 13.5
    endloop
  endfacet
  facet normal 0.951057 0.309017 -5.00622e-20
    outer loop
      vertex -1.45287 -0.373034 -1.5
      vertex -1.39466 -0.552186 13.5
      vertex -1.39466 -0.552186 -1.5
    endloop
  endfacet
  facet normal -0.368106 0.929784 0
    outer loop
      vertex 0.638668 -1.35724 -1.5
      vertex 0.463525 -1.42658 13.5
      vertex 0.638668 -1.35724 13.5
    endloop
  endfacet
  facet normal -0.368106 0.929784 0
    outer loop
      vertex 0.463525 -1.42658 13.5
      vertex 0.638668 -1.35724 -1.5
      vertex 0.463525 -1.42658 -1.5
    endloop
  endfacet
  facet normal -0.24871 0.968578 0
    outer loop
      vertex 0.463525 -1.42658 -1.5
      vertex 0.281072 -1.47343 13.5
      vertex 0.463525 -1.42658 13.5
    endloop
  endfacet
  facet normal -0.24871 0.968578 0
    outer loop
      vertex 0.281072 -1.47343 13.5
      vertex 0.463525 -1.42658 -1.5
      vertex 0.281072 -1.47343 -1.5
    endloop
  endfacet
  facet normal 0.982284 -0.187396 -7.59929e-20
    outer loop
      vertex -1.48817 0.188 13.5
      vertex -1.45287 0.373034 -1.5
      vertex -1.45287 0.373034 13.5
    endloop
  endfacet
  facet normal 0.982284 -0.187396 -7.59929e-20
    outer loop
      vertex -1.45287 0.373034 -1.5
      vertex -1.48817 0.188 13.5
      vertex -1.48817 0.188 -1.5
    endloop
  endfacet
  facet normal 0.481757 -0.876305 0
    outer loop
      vertex -0.80374 1.26649 -1.5
      vertex -0.638668 1.35724 13.5
      vertex -0.80374 1.26649 13.5
    endloop
  endfacet
  facet normal 0.481757 -0.876305 0
    outer loop
      vertex -0.638668 1.35724 13.5
      vertex -0.80374 1.26649 -1.5
      vertex -0.638668 1.35724 -1.5
    endloop
  endfacet
  facet normal 0.24871 -0.968578 0
    outer loop
      vertex -0.463525 1.42658 -1.5
      vertex -0.281072 1.47343 13.5
      vertex -0.463525 1.42658 13.5
    endloop
  endfacet
  facet normal 0.24871 -0.968578 0
    outer loop
      vertex -0.281072 1.47343 13.5
      vertex -0.463525 1.42658 -1.5
      vertex -0.281072 1.47343 -1.5
    endloop
  endfacet
  facet normal -0.481757 0.876305 0
    outer loop
      vertex 0.80374 -1.26649 -1.5
      vertex 0.638668 -1.35724 13.5
      vertex 0.80374 -1.26649 13.5
    endloop
  endfacet
  facet normal -0.481757 0.876305 0
    outer loop
      vertex 0.638668 -1.35724 13.5
      vertex 0.80374 -1.26649 -1.5
      vertex 0.638668 -1.35724 -1.5
    endloop
  endfacet
  facet normal -0.684557 0.728959 0
    outer loop
      vertex 1.09345 -1.02682 -1.5
      vertex 0.956136 -1.15577 13.5
      vertex 1.09345 -1.02682 13.5
    endloop
  endfacet
  facet normal -0.684557 0.728959 0
    outer loop
      vertex 0.956136 -1.15577 13.5
      vertex 1.09345 -1.02682 -1.5
      vertex 0.956136 -1.15577 -1.5
    endloop
  endfacet
  facet normal -0.904838 0.425756 1.78966e-19
    outer loop
      vertex 1.31446 -0.722631 -1.5
      vertex 1.39466 -0.552186 13.5
      vertex 1.39466 -0.552186 -1.5
    endloop
  endfacet
  facet normal -0.904838 0.425756 1.78966e-19
    outer loop
      vertex 1.39466 -0.552186 13.5
      vertex 1.31446 -0.722631 -1.5
      vertex 1.31446 -0.722631 13.5
    endloop
  endfacet
  facet normal -0.770518 0.637418 3.43545e-19
    outer loop
      vertex 1.09345 -1.02682 -1.5
      vertex 1.21352 -0.881678 13.5
      vertex 1.21352 -0.881678 -1.5
    endloop
  endfacet
  facet normal -0.770518 0.637418 3.43545e-19
    outer loop
      vertex 1.21352 -0.881678 13.5
      vertex 1.09345 -1.02682 -1.5
      vertex 1.09345 -1.02682 13.5
    endloop
  endfacet
  facet normal 0.368106 0.929784 -0
    outer loop
      vertex -0.463525 -1.42658 -1.5
      vertex -0.638668 -1.35724 13.5
      vertex -0.463525 -1.42658 13.5
    endloop
  endfacet
  facet normal 0.368106 0.929784 0
    outer loop
      vertex -0.638668 -1.35724 13.5
      vertex -0.463525 -1.42658 -1.5
      vertex -0.638668 -1.35724 -1.5
    endloop
  endfacet
  facet normal 0.684557 0.728959 -0
    outer loop
      vertex -0.956136 -1.15577 -1.5
      vertex -1.09345 -1.02682 13.5
      vertex -0.956136 -1.15577 13.5
    endloop
  endfacet
  facet normal 0.684557 0.728959 0
    outer loop
      vertex -1.09345 -1.02682 13.5
      vertex -0.956136 -1.15577 -1.5
      vertex -1.09345 -1.02682 -1.5
    endloop
  endfacet
  facet normal 0.998026 0.0628013 3.07268e-21
    outer loop
      vertex -1.48817 -0.188 13.5
      vertex -1.5 0 -1.5
      vertex -1.5 0 13.5
    endloop
  endfacet
  facet normal 0.998026 0.0628013 3.07268e-21
    outer loop
      vertex -1.5 0 -1.5
      vertex -1.48817 -0.188 13.5
      vertex -1.48817 -0.188 -1.5
    endloop
  endfacet
  facet normal 0.982284 0.187396 7.59929e-20
    outer loop
      vertex -1.45287 -0.373034 13.5
      vertex -1.48817 -0.188 -1.5
      vertex -1.48817 -0.188 13.5
    endloop
  endfacet
  facet normal 0.982284 0.187396 7.59929e-20
    outer loop
      vertex -1.48817 -0.188 -1.5
      vertex -1.45287 -0.373034 13.5
      vertex -1.45287 -0.373034 -1.5
    endloop
  endfacet
  facet normal -0.587778 0.809022 0
    outer loop
      vertex 0.956136 -1.15577 -1.5
      vertex 0.80374 -1.26649 13.5
      vertex 0.956136 -1.15577 13.5
    endloop
  endfacet
  facet normal -0.587778 0.809022 0
    outer loop
      vertex 0.80374 -1.26649 13.5
      vertex 0.956136 -1.15577 -1.5
      vertex 0.80374 -1.26649 -1.5
    endloop
  endfacet
  facet normal -0.951057 0.309017 5.00622e-20
    outer loop
      vertex 1.39466 -0.552186 -1.5
      vertex 1.45287 -0.373034 13.5
      vertex 1.45287 -0.373034 -1.5
    endloop
  endfacet
  facet normal -0.951057 0.309017 5.00622e-20
    outer loop
      vertex 1.45287 -0.373034 13.5
      vertex 1.39466 -0.552186 -1.5
      vertex 1.39466 -0.552186 13.5
    endloop
  endfacet
  facet normal -0.844314 0.535848 5.3419e-19
    outer loop
      vertex 1.21352 -0.881678 -1.5
      vertex 1.31446 -0.722631 13.5
      vertex 1.31446 -0.722631 -1.5
    endloop
  endfacet
  facet normal -0.844314 0.535848 5.3419e-19
    outer loop
      vertex 1.31446 -0.722631 13.5
      vertex 1.21352 -0.881678 -1.5
      vertex 1.21352 -0.881678 13.5
    endloop
  endfacet
  facet normal 0 1 -0
    outer loop
      vertex 0.0941849 -1.49704 -1.5
      vertex -0.0941849 -1.49704 13.5
      vertex 0.0941849 -1.49704 13.5
    endloop
  endfacet
  facet normal 0 1 0
    outer loop
      vertex -0.0941849 -1.49704 13.5
      vertex 0.0941849 -1.49704 -1.5
      vertex -0.0941849 -1.49704 -1.5
    endloop
  endfacet
  facet normal 0.587778 0.809022 -0
    outer loop
      vertex -0.80374 -1.26649 -1.5
      vertex -0.956136 -1.15577 13.5
      vertex -0.80374 -1.26649 13.5
    endloop
  endfacet
  facet normal 0.587778 0.809022 0
    outer loop
      vertex -0.956136 -1.15577 13.5
      vertex -0.80374 -1.26649 -1.5
      vertex -0.956136 -1.15577 -1.5
    endloop
  endfacet
  facet normal 0.481757 0.876305 -0
    outer loop
      vertex -0.638668 -1.35724 -1.5
      vertex -0.80374 -1.26649 13.5
      vertex -0.638668 -1.35724 13.5
    endloop
  endfacet
  facet normal 0.481757 0.876305 0
    outer loop
      vertex -0.80374 -1.26649 13.5
      vertex -0.638668 -1.35724 -1.5
      vertex -0.80374 -1.26649 -1.5
    endloop
  endfacet
  facet normal 0.770518 0.637418 -3.43545e-19
    outer loop
      vertex -1.09345 -1.02682 13.5
      vertex -1.21352 -0.881678 -1.5
      vertex -1.21352 -0.881678 13.5
    endloop
  endfacet
  facet normal 0.770518 0.637418 -3.43545e-19
    outer loop
      vertex -1.21352 -0.881678 -1.5
      vertex -1.09345 -1.02682 13.5
      vertex -1.09345 -1.02682 -1.5
    endloop
  endfacet
  facet normal 0.844314 0.535848 -5.3419e-19
    outer loop
      vertex -1.21352 -0.881678 13.5
      vertex -1.31446 -0.722631 -1.5
      vertex -1.31446 -0.722631 13.5
    endloop
  endfacet
  facet normal 0.844314 0.535848 -5.3419e-19
    outer loop
      vertex -1.31446 -0.722631 -1.5
      vertex -1.21352 -0.881678 13.5
      vertex -1.21352 -0.881678 -1.5
    endloop
  endfacet
  facet normal 0.125337 0.992114 -0
    outer loop
      vertex -0.0941849 -1.49704 -1.5
      vertex -0.281072 -1.47343 13.5
      vertex -0.0941849 -1.49704 13.5
    endloop
  endfacet
  facet normal 0.125337 0.992114 0
    outer loop
      vertex -0.281072 -1.47343 13.5
      vertex -0.0941849 -1.49704 -1.5
      vertex -0.281072 -1.47343 -1.5
    endloop
  endfacet
endsolid OpenSCAD_Model
