<?xml version="1.0" standalone="no"?>
<!DOCTYPE svg PUBLIC "-//W3C//DTD SVG 1.1//EN" "http://www.w3.org/Graphics/SVG/1.1/DTD/svg11.dtd">
<svg width="44mm" height="44mm" viewBox="-22 -132 44 44" xmlns="http://www.w3.org/2000/svg" version="1.1">
<title>OpenSCAD Model</title>
<path d="
M 4.12238,-88.3897 L 6.79837,-89.0768 L 9.36714,-90.0938 L 11.7882,-91.4248 L 14.0233,-93.0487 L 16.0373,-94.94
 L 17.7984,-97.0687 L 19.2787,-99.4014 L 20.4551,-101.901 L 21.3088,-104.529 L 21.8265,-107.243 L 22,-110
 L 21.8265,-112.757 L 21.3088,-115.471 L 20.4551,-118.099 L 19.2787,-120.599 L 17.7984,-122.931 L 16.0373,-125.06
 L 14.0233,-126.951 L 11.7882,-128.575 L 9.36714,-129.906 L 6.79837,-130.923 L 4.12238,-131.61 L 1.38138,-131.957
 L -1.38138,-131.957 L -4.12238,-131.61 L -6.79837,-130.923 L -9.36714,-129.906 L -11.7882,-128.575 L -14.0233,-126.951
 L -16.0373,-125.06 L -17.7984,-122.931 L -19.2787,-120.599 L -20.4551,-118.099 L -21.3088,-115.471 L -21.8265,-112.757
 L -22,-110 L -21.8265,-107.243 L -21.3088,-104.529 L -20.4551,-101.901 L -19.2787,-99.4014 L -17.7984,-97.0687
 L -16.0373,-94.94 L -14.0233,-93.0487 L -11.7882,-91.4248 L -9.36714,-90.0938 L -6.79837,-89.0768 L -4.12238,-88.3897
 L -1.38138,-88.0434 L 1.38138,-88.0434 z
M -0.18837,-122.006 L -0.562134,-122.053 L -0.927048,-122.147 L -1.27733,-122.286 L -1.60747,-122.467 L -1.91226,-122.688
 L -2.1869,-122.946 L -2.42705,-123.237 L -2.62891,-123.555 L -2.78932,-123.896 L -2.90575,-124.254 L -2.97633,-124.624
 L -3,-125 L -2.97633,-125.376 L -2.90575,-125.746 L -2.78932,-126.104 L -2.62891,-126.445 L -2.42705,-126.763
 L -2.1869,-127.054 L -1.91226,-127.312 L -1.60747,-127.533 L -1.27733,-127.714 L -0.927048,-127.853 L -0.562134,-127.947
 L -0.18837,-127.994 L 0.18837,-127.994 L 0.562134,-127.947 L 0.927048,-127.853 L 1.27733,-127.714 L 1.60747,-127.533
 L 1.91226,-127.312 L 2.1869,-127.054 L 2.42705,-126.763 L 2.62891,-126.445 L 2.78932,-126.104 L 2.90575,-125.746
 L 2.97633,-125.376 L 3,-125 L 2.97633,-124.624 L 2.90575,-124.254 L 2.78932,-123.896 L 2.62891,-123.555
 L 2.42705,-123.237 L 2.1869,-122.946 L 1.91226,-122.688 L 1.60747,-122.467 L 1.27733,-122.286 L 0.927048,-122.147
 L 0.562134,-122.053 L 0.18837,-122.006 z
M 7.40581,-123.503 L 7.21892,-123.527 L 7.03647,-123.573 L 6.86133,-123.643 L 6.69626,-123.734 L 6.54385,-123.844
 L 6.40654,-123.973 L 6.28647,-124.118 L 6.18553,-124.277 L 6.10533,-124.448 L 6.04712,-124.627 L 6.01183,-124.812
 L 6,-125 L 6.01183,-125.188 L 6.04712,-125.373 L 6.10533,-125.552 L 6.18553,-125.723 L 6.28647,-125.882
 L 6.40654,-126.027 L 6.54385,-126.156 L 6.69626,-126.266 L 6.86133,-126.357 L 7.03647,-126.427 L 7.21892,-126.473
 L 7.40581,-126.497 L 7.59418,-126.497 L 7.78107,-126.473 L 7.96352,-126.427 L 8.13866,-126.357 L 8.30373,-126.266
 L 8.45613,-126.156 L 8.59344,-126.027 L 8.71352,-125.882 L 8.81445,-125.723 L 8.89465,-125.552 L 8.95287,-125.373
 L 8.98816,-125.188 L 9,-125 L 8.98816,-124.812 L 8.95287,-124.627 L 8.89465,-124.448 L 8.81445,-124.277
 L 8.71352,-124.118 L 8.59344,-123.973 L 8.45613,-123.844 L 8.30373,-123.734 L 8.13866,-123.643 L 7.96352,-123.573
 L 7.78107,-123.527 L 7.59418,-123.503 z
M -7.59418,-123.503 L -7.78107,-123.527 L -7.96352,-123.573 L -8.13866,-123.643 L -8.30373,-123.734 L -8.45613,-123.844
 L -8.59344,-123.973 L -8.71352,-124.118 L -8.81445,-124.277 L -8.89465,-124.448 L -8.95287,-124.627 L -8.98816,-124.812
 L -9,-125 L -8.98816,-125.188 L -8.95287,-125.373 L -8.89465,-125.552 L -8.81445,-125.723 L -8.71352,-125.882
 L -8.59344,-126.027 L -8.45613,-126.156 L -8.30373,-126.266 L -8.13866,-126.357 L -7.96352,-126.427 L -7.78107,-126.473
 L -7.59418,-126.497 L -7.40581,-126.497 L -7.21892,-126.473 L -7.03647,-126.427 L -6.86133,-126.357 L -6.69626,-126.266
 L -6.54385,-126.156 L -6.40654,-126.027 L -6.28647,-125.882 L -6.18553,-125.723 L -6.10533,-125.552 L -6.04712,-125.373
 L -6.01183,-125.188 L -6,-125 L -6.01183,-124.812 L -6.04712,-124.627 L -6.10533,-124.448 L -6.18553,-124.277
 L -6.28647,-124.118 L -6.40654,-123.973 L -6.54385,-123.844 L -6.69626,-123.734 L -6.86133,-123.643 L -7.03647,-123.573
 L -7.21892,-123.527 L -7.40581,-123.503 z
M -0.0941772,-116.003 L -0.281067,-116.027 L -0.463516,-116.073 L -0.638657,-116.143 L -0.803726,-116.234 L -0.956131,-116.344
 L -1.09344,-116.473 L -1.21352,-116.618 L -1.31445,-116.777 L -1.39465,-116.948 L -1.45287,-117.127 L -1.48816,-117.312
 L -1.5,-117.5 L -1.48816,-117.688 L -1.45287,-117.873 L -1.39465,-118.052 L -1.31445,-118.223 L -1.21352,-118.382
 L -1.09344,-118.527 L -0.956131,-118.656 L -0.803726,-118.766 L -0.638657,-118.857 L -0.463516,-118.927 L -0.281067,-118.973
 L -0.0941772,-118.997 L 0.0941772,-118.997 L 0.281067,-118.973 L 0.463516,-118.927 L 0.638657,-118.857 L 0.803726,-118.766
 L 0.956131,-118.656 L 1.09344,-118.527 L 1.21352,-118.382 L 1.31445,-118.223 L 1.39465,-118.052 L 1.45287,-117.873
 L 1.48816,-117.688 L 1.5,-117.5 L 1.48816,-117.312 L 1.45287,-117.127 L 1.39465,-116.948 L 1.31445,-116.777
 L 1.21352,-116.618 L 1.09344,-116.473 L 0.956131,-116.344 L 0.803726,-116.234 L 0.638657,-116.143 L 0.463516,-116.073
 L 0.281067,-116.027 L 0.0941772,-116.003 z
M 14.9058,-116.003 L 14.7189,-116.027 L 14.5365,-116.073 L 14.3613,-116.143 L 14.1963,-116.234 L 14.0439,-116.344
 L 13.9065,-116.473 L 13.7865,-116.618 L 13.6855,-116.777 L 13.6053,-116.948 L 13.5471,-117.127 L 13.5118,-117.312
 L 13.5,-117.5 L 13.5118,-117.688 L 13.5471,-117.873 L 13.6053,-118.052 L 13.6855,-118.223 L 13.7865,-118.382
 L 13.9065,-118.527 L 14.0439,-118.656 L 14.1963,-118.766 L 14.3613,-118.857 L 14.5365,-118.927 L 14.7189,-118.973
 L 14.9058,-118.997 L 15.0942,-118.997 L 15.2811,-118.973 L 15.4635,-118.927 L 15.6387,-118.857 L 15.8037,-118.766
 L 15.9561,-118.656 L 16.0934,-118.527 L 16.2135,-118.382 L 16.3145,-118.223 L 16.3947,-118.052 L 16.4529,-117.873
 L 16.4882,-117.688 L 16.5,-117.5 L 16.4882,-117.312 L 16.4529,-117.127 L 16.3947,-116.948 L 16.3145,-116.777
 L 16.2135,-116.618 L 16.0934,-116.473 L 15.9561,-116.344 L 15.8037,-116.234 L 15.6387,-116.143 L 15.4635,-116.073
 L 15.2811,-116.027 L 15.0942,-116.003 z
M -15.0942,-116.003 L -15.2811,-116.027 L -15.4635,-116.073 L -15.6387,-116.143 L -15.8037,-116.234 L -15.9561,-116.344
 L -16.0934,-116.473 L -16.2135,-116.618 L -16.3145,-116.777 L -16.3947,-116.948 L -16.4529,-117.127 L -16.4882,-117.312
 L -16.5,-117.5 L -16.4882,-117.688 L -16.4529,-117.873 L -16.3947,-118.052 L -16.3145,-118.223 L -16.2135,-118.382
 L -16.0934,-118.527 L -15.9561,-118.656 L -15.8037,-118.766 L -15.6387,-118.857 L -15.4635,-118.927 L -15.2811,-118.973
 L -15.0942,-118.997 L -14.9058,-118.997 L -14.7189,-118.973 L -14.5365,-118.927 L -14.3613,-118.857 L -14.1963,-118.766
 L -14.0439,-118.656 L -13.9065,-118.527 L -13.7865,-118.382 L -13.6855,-118.223 L -13.6053,-118.052 L -13.5471,-117.873
 L -13.5118,-117.688 L -13.5,-117.5 L -13.5118,-117.312 L -13.5471,-117.127 L -13.6053,-116.948 L -13.6855,-116.777
 L -13.7865,-116.618 L -13.9065,-116.473 L -14.0439,-116.344 L -14.1963,-116.234 L -14.3613,-116.143 L -14.5365,-116.073
 L -14.7189,-116.027 L -14.9058,-116.003 z
M 7.40581,-116.003 L 7.21892,-116.027 L 7.03647,-116.073 L 6.86133,-116.143 L 6.69626,-116.234 L 6.54385,-116.344
 L 6.40654,-116.473 L 6.28647,-116.618 L 6.18553,-116.777 L 6.10533,-116.948 L 6.04712,-117.127 L 6.01183,-117.312
 L 6,-117.5 L 6.01183,-117.688 L 6.04712,-117.873 L 6.10533,-118.052 L 6.18553,-118.223 L 6.28647,-118.382
 L 6.40654,-118.527 L 6.54385,-118.656 L 6.69626,-118.766 L 6.86133,-118.857 L 7.03647,-118.927 L 7.21892,-118.973
 L 7.40581,-118.997 L 7.59418,-118.997 L 7.78107,-118.973 L 7.96352,-118.927 L 8.13866,-118.857 L 8.30373,-118.766
 L 8.45613,-118.656 L 8.59344,-118.527 L 8.71352,-118.382 L 8.81445,-118.223 L 8.89465,-118.052 L 8.95287,-117.873
 L 8.98816,-117.688 L 9,-117.5 L 8.98816,-117.312 L 8.95287,-117.127 L 8.89465,-116.948 L 8.81445,-116.777
 L 8.71352,-116.618 L 8.59344,-116.473 L 8.45613,-116.344 L 8.30373,-116.234 L 8.13866,-116.143 L 7.96352,-116.073
 L 7.78107,-116.027 L 7.59418,-116.003 z
M -7.59418,-116.003 L -7.78107,-116.027 L -7.96352,-116.073 L -8.13866,-116.143 L -8.30373,-116.234 L -8.45613,-116.344
 L -8.59344,-116.473 L -8.71352,-116.618 L -8.81445,-116.777 L -8.89465,-116.948 L -8.95287,-117.127 L -8.98816,-117.312
 L -9,-117.5 L -8.98816,-117.688 L -8.95287,-117.873 L -8.89465,-118.052 L -8.81445,-118.223 L -8.71352,-118.382
 L -8.59344,-118.527 L -8.45613,-118.656 L -8.30373,-118.766 L -8.13866,-118.857 L -7.96352,-118.927 L -7.78107,-118.973
 L -7.59418,-118.997 L -7.40581,-118.997 L -7.21892,-118.973 L -7.03647,-118.927 L -6.86133,-118.857 L -6.69626,-118.766
 L -6.54385,-118.656 L -6.40654,-118.527 L -6.28647,-118.382 L -6.18553,-118.223 L -6.10533,-118.052 L -6.04712,-117.873
 L -6.01183,-117.688 L -6,-117.5 L -6.01183,-117.312 L -6.04712,-117.127 L -6.10533,-116.948 L -6.18553,-116.777
 L -6.28647,-116.618 L -6.40654,-116.473 L -6.54385,-116.344 L -6.69626,-116.234 L -6.86133,-116.143 L -7.03647,-116.073
 L -7.21892,-116.027 L -7.40581,-116.003 z
M 14.8116,-107.006 L 14.4379,-107.053 L 14.0729,-107.147 L 13.7227,-107.286 L 13.3925,-107.467 L 13.0877,-107.688
 L 12.8131,-107.946 L 12.5729,-108.237 L 12.3711,-108.555 L 12.2107,-108.896 L 12.0942,-109.254 L 12.0237,-109.624
 L 12,-110 L 12.0237,-110.376 L 12.0942,-110.746 L 12.2107,-111.104 L 12.3711,-111.445 L 12.5729,-111.763
 L 12.8131,-112.054 L 13.0877,-112.312 L 13.3925,-112.533 L 13.7227,-112.714 L 14.0729,-112.853 L 14.4379,-112.947
 L 14.8116,-112.994 L 15.1884,-112.994 L 15.5621,-112.947 L 15.927,-112.853 L 16.2773,-112.714 L 16.6075,-112.533
 L 16.9123,-112.312 L 17.1869,-112.054 L 17.427,-111.763 L 17.6289,-111.445 L 17.7893,-111.104 L 17.9057,-110.746
 L 17.9763,-110.376 L 18,-110 L 17.9763,-109.624 L 17.9057,-109.254 L 17.7893,-108.896 L 17.6289,-108.555
 L 17.427,-108.237 L 17.1869,-107.946 L 16.9123,-107.688 L 16.6075,-107.467 L 16.2773,-107.286 L 15.927,-107.147
 L 15.5621,-107.053 L 15.1884,-107.006 z
M -0.18837,-107.006 L -0.562134,-107.053 L -0.927048,-107.147 L -1.27733,-107.286 L -1.60747,-107.467 L -1.91226,-107.688
 L -2.1869,-107.946 L -2.42705,-108.237 L -2.62891,-108.555 L -2.78932,-108.896 L -2.90575,-109.254 L -2.97633,-109.624
 L -3,-110 L -2.97633,-110.376 L -2.90575,-110.746 L -2.78932,-111.104 L -2.62891,-111.445 L -2.42705,-111.763
 L -2.1869,-112.054 L -1.91226,-112.312 L -1.60747,-112.533 L -1.27733,-112.714 L -0.927048,-112.853 L -0.562134,-112.947
 L -0.18837,-112.994 L 0.18837,-112.994 L 0.562134,-112.947 L 0.927048,-112.853 L 1.27733,-112.714 L 1.60747,-112.533
 L 1.91226,-112.312 L 2.1869,-112.054 L 2.42705,-111.763 L 2.62891,-111.445 L 2.78932,-111.104 L 2.90575,-110.746
 L 2.97633,-110.376 L 3,-110 L 2.97633,-109.624 L 2.90575,-109.254 L 2.78932,-108.896 L 2.62891,-108.555
 L 2.42705,-108.237 L 2.1869,-107.946 L 1.91226,-107.688 L 1.60747,-107.467 L 1.27733,-107.286 L 0.927048,-107.147
 L 0.562134,-107.053 L 0.18837,-107.006 z
M -15.1884,-107.006 L -15.5621,-107.053 L -15.927,-107.147 L -16.2773,-107.286 L -16.6075,-107.467 L -16.9123,-107.688
 L -17.1869,-107.946 L -17.427,-108.237 L -17.6289,-108.555 L -17.7893,-108.896 L -17.9057,-109.254 L -17.9763,-109.624
 L -18,-110 L -17.9763,-110.376 L -17.9057,-110.746 L -17.7893,-111.104 L -17.6289,-111.445 L -17.427,-111.763
 L -17.1869,-112.054 L -16.9123,-112.312 L -16.6075,-112.533 L -16.2773,-112.714 L -15.927,-112.853 L -15.5621,-112.947
 L -15.1884,-112.994 L -14.8116,-112.994 L -14.4379,-112.947 L -14.0729,-112.853 L -13.7227,-112.714 L -13.3925,-112.533
 L -13.0877,-112.312 L -12.8131,-112.054 L -12.5729,-111.763 L -12.3711,-111.445 L -12.2107,-111.104 L -12.0942,-110.746
 L -12.0237,-110.376 L -12,-110 L -12.0237,-109.624 L -12.0942,-109.254 L -12.2107,-108.896 L -12.3711,-108.555
 L -12.5729,-108.237 L -12.8131,-107.946 L -13.0877,-107.688 L -13.3925,-107.467 L -13.7227,-107.286 L -14.0729,-107.147
 L -14.4379,-107.053 L -14.8116,-107.006 z
M -7.59418,-108.503 L -7.78107,-108.527 L -7.96352,-108.573 L -8.13866,-108.643 L -8.30373,-108.734 L -8.45613,-108.844
 L -8.59344,-108.973 L -8.71352,-109.118 L -8.81445,-109.277 L -8.89465,-109.448 L -8.95287,-109.627 L -8.98816,-109.812
 L -9,-110 L -8.98816,-110.188 L -8.95287,-110.373 L -8.89465,-110.552 L -8.81445,-110.723 L -8.71352,-110.882
 L -8.59344,-111.027 L -8.45613,-111.156 L -8.30373,-111.266 L -8.13866,-111.357 L -7.96352,-111.427 L -7.78107,-111.473
 L -7.59418,-111.497 L -7.40581,-111.497 L -7.21892,-111.473 L -7.03647,-111.427 L -6.86133,-111.357 L -6.69626,-111.266
 L -6.54385,-111.156 L -6.40654,-111.027 L -6.28647,-110.882 L -6.18553,-110.723 L -6.10533,-110.552 L -6.04712,-110.373
 L -6.01183,-110.188 L -6,-110 L -6.01183,-109.812 L -6.04712,-109.627 L -6.10533,-109.448 L -6.18553,-109.277
 L -6.28647,-109.118 L -6.40654,-108.973 L -6.54385,-108.844 L -6.69626,-108.734 L -6.86133,-108.643 L -7.03647,-108.573
 L -7.21892,-108.527 L -7.40581,-108.503 z
M 7.40581,-108.503 L 7.21892,-108.527 L 7.03647,-108.573 L 6.86133,-108.643 L 6.69626,-108.734 L 6.54385,-108.844
 L 6.40654,-108.973 L 6.28647,-109.118 L 6.18553,-109.277 L 6.10533,-109.448 L 6.04712,-109.627 L 6.01183,-109.812
 L 6,-110 L 6.01183,-110.188 L 6.04712,-110.373 L 6.10533,-110.552 L 6.18553,-110.723 L 6.28647,-110.882
 L 6.40654,-111.027 L 6.54385,-111.156 L 6.69626,-111.266 L 6.86133,-111.357 L 7.03647,-111.427 L 7.21892,-111.473
 L 7.40581,-111.497 L 7.59418,-111.497 L 7.78107,-111.473 L 7.96352,-111.427 L 8.13866,-111.357 L 8.30373,-111.266
 L 8.45613,-111.156 L 8.59344,-111.027 L 8.71352,-110.882 L 8.81445,-110.723 L 8.89465,-110.552 L 8.95287,-110.373
 L 8.98816,-110.188 L 9,-110 L 8.98816,-109.812 L 8.95287,-109.627 L 8.89465,-109.448 L 8.81445,-109.277
 L 8.71352,-109.118 L 8.59344,-108.973 L 8.45613,-108.844 L 8.30373,-108.734 L 8.13866,-108.643 L 7.96352,-108.573
 L 7.78107,-108.527 L 7.59418,-108.503 z
M 14.9058,-101.003 L 14.7189,-101.027 L 14.5365,-101.073 L 14.3613,-101.143 L 14.1963,-101.234 L 14.0439,-101.344
 L 13.9065,-101.473 L 13.7865,-101.618 L 13.6855,-101.777 L 13.6053,-101.948 L 13.5471,-102.127 L 13.5118,-102.312
 L 13.5,-102.5 L 13.5118,-102.688 L 13.5471,-102.873 L 13.6053,-103.052 L 13.6855,-103.223 L 13.7865,-103.382
 L 13.9065,-103.527 L 14.0439,-103.656 L 14.1963,-103.766 L 14.3613,-103.857 L 14.5365,-103.927 L 14.7189,-103.973
 L 14.9058,-103.997 L 15.0942,-103.997 L 15.2811,-103.973 L 15.4635,-103.927 L 15.6387,-103.857 L 15.8037,-103.766
 L 15.9561,-103.656 L 16.0934,-103.527 L 16.2135,-103.382 L 16.3145,-103.223 L 16.3947,-103.052 L 16.4529,-102.873
 L 16.4882,-102.688 L 16.5,-102.5 L 16.4882,-102.312 L 16.4529,-102.127 L 16.3947,-101.948 L 16.3145,-101.777
 L 16.2135,-101.618 L 16.0934,-101.473 L 15.9561,-101.344 L 15.8037,-101.234 L 15.6387,-101.143 L 15.4635,-101.073
 L 15.2811,-101.027 L 15.0942,-101.003 z
M 7.40581,-101.003 L 7.21892,-101.027 L 7.03647,-101.073 L 6.86133,-101.143 L 6.69626,-101.234 L 6.54385,-101.344
 L 6.40654,-101.473 L 6.28647,-101.618 L 6.18553,-101.777 L 6.10533,-101.948 L 6.04712,-102.127 L 6.01183,-102.312
 L 6,-102.5 L 6.01183,-102.688 L 6.04712,-102.873 L 6.10533,-103.052 L 6.18553,-103.223 L 6.28647,-103.382
 L 6.40654,-103.527 L 6.54385,-103.656 L 6.69626,-103.766 L 6.86133,-103.857 L 7.03647,-103.927 L 7.21892,-103.973
 L 7.40581,-103.997 L 7.59418,-103.997 L 7.78107,-103.973 L 7.96352,-103.927 L 8.13866,-103.857 L 8.30373,-103.766
 L 8.45613,-103.656 L 8.59344,-103.527 L 8.71352,-103.382 L 8.81445,-103.223 L 8.89465,-103.052 L 8.95287,-102.873
 L 8.98816,-102.688 L 9,-102.5 L 8.98816,-102.312 L 8.95287,-102.127 L 8.89465,-101.948 L 8.81445,-101.777
 L 8.71352,-101.618 L 8.59344,-101.473 L 8.45613,-101.344 L 8.30373,-101.234 L 8.13866,-101.143 L 7.96352,-101.073
 L 7.78107,-101.027 L 7.59418,-101.003 z
M -7.59418,-101.003 L -7.78107,-101.027 L -7.96352,-101.073 L -8.13866,-101.143 L -8.30373,-101.234 L -8.45613,-101.344
 L -8.59344,-101.473 L -8.71352,-101.618 L -8.81445,-101.777 L -8.89465,-101.948 L -8.95287,-102.127 L -8.98816,-102.312
 L -9,-102.5 L -8.98816,-102.688 L -8.95287,-102.873 L -8.89465,-103.052 L -8.81445,-103.223 L -8.71352,-103.382
 L -8.59344,-103.527 L -8.45613,-103.656 L -8.30373,-103.766 L -8.13866,-103.857 L -7.96352,-103.927 L -7.78107,-103.973
 L -7.59418,-103.997 L -7.40581,-103.997 L -7.21892,-103.973 L -7.03647,-103.927 L -6.86133,-103.857 L -6.69626,-103.766
 L -6.54385,-103.656 L -6.40654,-103.527 L -6.28647,-103.382 L -6.18553,-103.223 L -6.10533,-103.052 L -6.04712,-102.873
 L -6.01183,-102.688 L -6,-102.5 L -6.01183,-102.312 L -6.04712,-102.127 L -6.10533,-101.948 L -6.18553,-101.777
 L -6.28647,-101.618 L -6.40654,-101.473 L -6.54385,-101.344 L -6.69626,-101.234 L -6.86133,-101.143 L -7.03647,-101.073
 L -7.21892,-101.027 L -7.40581,-101.003 z
M -0.0941772,-101.003 L -0.281067,-101.027 L -0.463516,-101.073 L -0.638657,-101.143 L -0.803726,-101.234 L -0.956131,-101.344
 L -1.09344,-101.473 L -1.21352,-101.618 L -1.31445,-101.777 L -1.39465,-101.948 L -1.45287,-102.127 L -1.48816,-102.312
 L -1.5,-102.5 L -1.48816,-102.688 L -1.45287,-102.873 L -1.39465,-103.052 L -1.31445,-103.223 L -1.21352,-103.382
 L -1.09344,-103.527 L -0.956131,-103.656 L -0.803726,-103.766 L -0.638657,-103.857 L -0.463516,-103.927 L -0.281067,-103.973
 L -0.0941772,-103.997 L 0.0941772,-103.997 L 0.281067,-103.973 L 0.463516,-103.927 L 0.638657,-103.857 L 0.803726,-103.766
 L 0.956131,-103.656 L 1.09344,-103.527 L 1.21352,-103.382 L 1.31445,-103.223 L 1.39465,-103.052 L 1.45287,-102.873
 L 1.48816,-102.688 L 1.5,-102.5 L 1.48816,-102.312 L 1.45287,-102.127 L 1.39465,-101.948 L 1.31445,-101.777
 L 1.21352,-101.618 L 1.09344,-101.473 L 0.956131,-101.344 L 0.803726,-101.234 L 0.638657,-101.143 L 0.463516,-101.073
 L 0.281067,-101.027 L 0.0941772,-101.003 z
M -15.0942,-101.003 L -15.2811,-101.027 L -15.4635,-101.073 L -15.6387,-101.143 L -15.8037,-101.234 L -15.9561,-101.344
 L -16.0934,-101.473 L -16.2135,-101.618 L -16.3145,-101.777 L -16.3947,-101.948 L -16.4529,-102.127 L -16.4882,-102.312
 L -16.5,-102.5 L -16.4882,-102.688 L -16.4529,-102.873 L -16.3947,-103.052 L -16.3145,-103.223 L -16.2135,-103.382
 L -16.0934,-103.527 L -15.9561,-103.656 L -15.8037,-103.766 L -15.6387,-103.857 L -15.4635,-103.927 L -15.2811,-103.973
 L -15.0942,-103.997 L -14.9058,-103.997 L -14.7189,-103.973 L -14.5365,-103.927 L -14.3613,-103.857 L -14.1963,-103.766
 L -14.0439,-103.656 L -13.9065,-103.527 L -13.7865,-103.382 L -13.6855,-103.223 L -13.6053,-103.052 L -13.5471,-102.873
 L -13.5118,-102.688 L -13.5,-102.5 L -13.5118,-102.312 L -13.5471,-102.127 L -13.6053,-101.948 L -13.6855,-101.777
 L -13.7865,-101.618 L -13.9065,-101.473 L -14.0439,-101.344 L -14.1963,-101.234 L -14.3613,-101.143 L -14.5365,-101.073
 L -14.7189,-101.027 L -14.9058,-101.003 z
M -0.18837,-92.0059 L -0.562134,-92.0531 L -0.927048,-92.1468 L -1.27733,-92.2855 L -1.60747,-92.467 L -1.91226,-92.6885
 L -2.1869,-92.9464 L -2.42705,-93.2366 L -2.62891,-93.5547 L -2.78932,-93.8956 L -2.90575,-94.2539 L -2.97633,-94.624
 L -3,-95 L -2.97633,-95.376 L -2.90575,-95.7461 L -2.78932,-96.1044 L -2.62891,-96.4453 L -2.42705,-96.7634
 L -2.1869,-97.0536 L -1.91226,-97.3116 L -1.60747,-97.533 L -1.27733,-97.7145 L -0.927048,-97.8532 L -0.562134,-97.9469
 L -0.18837,-97.9941 L 0.18837,-97.9941 L 0.562134,-97.9469 L 0.927048,-97.8532 L 1.27733,-97.7145 L 1.60747,-97.533
 L 1.91226,-97.3116 L 2.1869,-97.0536 L 2.42705,-96.7634 L 2.62891,-96.4453 L 2.78932,-96.1044 L 2.90575,-95.7461
 L 2.97633,-95.376 L 3,-95 L 2.97633,-94.624 L 2.90575,-94.2539 L 2.78932,-93.8956 L 2.62891,-93.5547
 L 2.42705,-93.2366 L 2.1869,-92.9464 L 1.91226,-92.6885 L 1.60747,-92.467 L 1.27733,-92.2855 L 0.927048,-92.1468
 L 0.562134,-92.0531 L 0.18837,-92.0059 z
M 7.40581,-93.503 L 7.21892,-93.5266 L 7.03647,-93.5734 L 6.86133,-93.6428 L 6.69626,-93.7335 L 6.54385,-93.8442
 L 6.40654,-93.9732 L 6.28647,-94.1183 L 6.18553,-94.2774 L 6.10533,-94.4478 L 6.04712,-94.627 L 6.01183,-94.812
 L 6,-95 L 6.01183,-95.188 L 6.04712,-95.373 L 6.10533,-95.5522 L 6.18553,-95.7226 L 6.28647,-95.8817
 L 6.40654,-96.0268 L 6.54385,-96.1558 L 6.69626,-96.2665 L 6.86133,-96.3573 L 7.03647,-96.4266 L 7.21892,-96.4734
 L 7.40581,-96.4971 L 7.59418,-96.4971 L 7.78107,-96.4734 L 7.96352,-96.4266 L 8.13866,-96.3573 L 8.30373,-96.2665
 L 8.45613,-96.1558 L 8.59344,-96.0268 L 8.71352,-95.8817 L 8.81445,-95.7226 L 8.89465,-95.5522 L 8.95287,-95.373
 L 8.98816,-95.188 L 9,-95 L 8.98816,-94.812 L 8.95287,-94.627 L 8.89465,-94.4478 L 8.81445,-94.2774
 L 8.71352,-94.1183 L 8.59344,-93.9732 L 8.45613,-93.8442 L 8.30373,-93.7335 L 8.13866,-93.6428 L 7.96352,-93.5734
 L 7.78107,-93.5266 L 7.59418,-93.503 z
M -7.59418,-93.503 L -7.78107,-93.5266 L -7.96352,-93.5734 L -8.13866,-93.6428 L -8.30373,-93.7335 L -8.45613,-93.8442
 L -8.59344,-93.9732 L -8.71352,-94.1183 L -8.81445,-94.2774 L -8.89465,-94.4478 L -8.95287,-94.627 L -8.98816,-94.812
 L -9,-95 L -8.98816,-95.188 L -8.95287,-95.373 L -8.89465,-95.5522 L -8.81445,-95.7226 L -8.71352,-95.8817
 L -8.59344,-96.0268 L -8.45613,-96.1558 L -8.30373,-96.2665 L -8.13866,-96.3573 L -7.96352,-96.4266 L -7.78107,-96.4734
 L -7.59418,-96.4971 L -7.40581,-96.4971 L -7.21892,-96.4734 L -7.03647,-96.4266 L -6.86133,-96.3573 L -6.69626,-96.2665
 L -6.54385,-96.1558 L -6.40654,-96.0268 L -6.28647,-95.8817 L -6.18553,-95.7226 L -6.10533,-95.5522 L -6.04712,-95.373
 L -6.01183,-95.188 L -6,-95 L -6.01183,-94.812 L -6.04712,-94.627 L -6.10533,-94.4478 L -6.18553,-94.2774
 L -6.28647,-94.1183 L -6.40654,-93.9732 L -6.54385,-93.8442 L -6.69626,-93.7335 L -6.86133,-93.6428 L -7.03647,-93.5734
 L -7.21892,-93.5266 L -7.40581,-93.503 z
" stroke="black" fill="lightgray" stroke-width="0.5"/>
</svg>
