<?xml version="1.0" standalone="no"?>
<!DOCTYPE svg PUBLIC "-//W3C//DTD SVG 1.1//EN" "http://www.w3.org/Graphics/SVG/1.1/DTD/svg11.dtd">
<svg width="136mm" height="558mm" viewBox="-68 -846 136 558" xmlns="http://www.w3.org/2000/svg" version="1.1">
<title>OpenSCAD Model</title>
<path d="
M -64.5,-666.425 L -64.0451,-666.245 L -63.4369,-666.089 L -62.8139,-666.01 L 62.8139,-666.01 L 63.4369,-666.089
 L 64.0451,-666.245 L 64.6289,-666.476 L 65.1791,-666.778 L 65.6871,-667.147 L 66.1448,-667.577 L 66.5451,-668.061
 L 66.8815,-668.591 L 67.1489,-669.159 L 67.3429,-669.757 L 67.4606,-670.373 L 67.5,-671 L 67.5,-841
 L 67.4606,-841.627 L 67.3429,-842.243 L 67.1489,-842.841 L 66.8815,-843.409 L 66.5451,-843.939 L 66.1448,-844.423
 L 65.6871,-844.853 L 65.1791,-845.222 L 64.6289,-845.524 L 64.0451,-845.755 L 63.4369,-845.911 L 62.8139,-845.99
 L -62.8139,-845.99 L -63.4369,-845.911 L -64.0451,-845.755 L -64.5,-845.575 L -64.5,-845.99 L -67.5,-845.99
 L -67.5,-666.01 L -64.5,-666.01 z
M -62.2432,-667.635 L -62.7256,-667.696 L -63.1967,-667.817 L -63.6489,-667.996 L -64.0751,-668.23 L -64.4685,-668.516
 L -64.823,-668.849 L -65.133,-669.224 L -65.3936,-669.634 L -65.6007,-670.074 L -65.751,-670.537 L -65.8421,-671.015
 L -65.8726,-671.5 L -65.8726,-840.5 L -65.8421,-840.985 L -65.751,-841.463 L -65.6007,-841.926 L -65.3936,-842.366
 L -65.133,-842.776 L -64.823,-843.151 L -64.4685,-843.484 L -64.0751,-843.77 L -63.6489,-844.004 L -63.1967,-844.183
 L -62.7256,-844.304 L -62.2432,-844.365 L 62.2432,-844.365 L 62.7256,-844.304 L 63.1967,-844.183 L 63.6489,-844.004
 L 64.0751,-843.77 L 64.4685,-843.484 L 64.823,-843.151 L 65.133,-842.776 L 65.3936,-842.366 L 65.6007,-841.926
 L 65.751,-841.463 L 65.8421,-840.985 L 65.8726,-840.5 L 65.8726,-671.5 L 65.8421,-671.015 L 65.751,-670.537
 L 65.6007,-670.074 L 65.3936,-669.634 L 65.133,-669.224 L 64.823,-668.849 L 64.4685,-668.516 L 64.0751,-668.23
 L 63.6489,-667.996 L 63.1967,-667.817 L 62.7256,-667.696 L 62.2432,-667.635 z
M 63.4369,-477.089 L 64.0451,-477.245 L 64.6289,-477.476 L 65.1791,-477.778 L 65.6871,-478.147 L 66.1448,-478.577
 L 66.5451,-479.061 L 66.8815,-479.591 L 67.1489,-480.159 L 67.3429,-480.757 L 67.4606,-481.373 L 67.5,-482
 L 67.5,-652 L 67.4606,-652.627 L 67.3429,-653.243 L 67.1489,-653.841 L 66.8815,-654.409 L 66.5451,-654.939
 L 66.1448,-655.423 L 65.6871,-655.853 L 65.1791,-656.222 L 64.6289,-656.524 L 64.0451,-656.755 L 63.4369,-656.911
 L 62.8139,-656.99 L -62.8139,-656.99 L -63.4369,-656.911 L -64.0451,-656.755 L -64.5,-656.575 L -64.5,-656.615
 L -67.5,-656.615 L -67.5,-477.385 L -64.5,-477.385 L -64.5,-477.425 L -64.0451,-477.245 L -63.4369,-477.089
 L -62.8139,-477.01 L 62.8139,-477.01 z
M -60.1507,-647.105 L -60.4497,-647.143 L -60.7416,-647.217 L -61.0219,-647.328 L -61.286,-647.474 L -61.5298,-647.651
 L -61.7495,-647.857 L -61.9416,-648.089 L -62.1031,-648.344 L -62.2315,-648.617 L -62.3246,-648.903 L -62.3811,-649.199
 L -62.4,-649.5 L -62.3811,-649.801 L -62.3246,-650.097 L -62.2315,-650.383 L -62.1031,-650.656 L -61.9416,-650.911
 L -61.7495,-651.143 L -61.5298,-651.349 L -61.286,-651.526 L -61.0219,-651.672 L -60.7416,-651.783 L -60.4497,-651.857
 L -60.1507,-651.895 L -59.8493,-651.895 L -59.5503,-651.857 L -59.2584,-651.783 L -58.9781,-651.672 L -58.714,-651.526
 L -58.4702,-651.349 L -58.2505,-651.143 L -58.0583,-650.911 L -57.8969,-650.656 L -57.7685,-650.383 L -57.6754,-650.097
 L -57.6189,-649.801 L -57.6,-649.5 L -57.6189,-649.199 L -57.6754,-648.903 L -57.7685,-648.617 L -57.8969,-648.344
 L -58.0583,-648.089 L -58.2505,-647.857 L -58.4702,-647.651 L -58.714,-647.474 L -58.9781,-647.328 L -59.2584,-647.217
 L -59.5503,-647.143 L -59.8493,-647.105 z
M 59.8493,-647.105 L 59.5503,-647.143 L 59.2584,-647.217 L 58.9781,-647.328 L 58.714,-647.474 L 58.4702,-647.651
 L 58.2505,-647.857 L 58.0583,-648.089 L 57.8969,-648.344 L 57.7685,-648.617 L 57.6754,-648.903 L 57.6189,-649.199
 L 57.6,-649.5 L 57.6189,-649.801 L 57.6754,-650.097 L 57.7685,-650.383 L 57.8969,-650.656 L 58.0583,-650.911
 L 58.2505,-651.143 L 58.4702,-651.349 L 58.714,-651.526 L 58.9781,-651.672 L 59.2584,-651.783 L 59.5503,-651.857
 L 59.8493,-651.895 L 60.1507,-651.895 L 60.4497,-651.857 L 60.7416,-651.783 L 61.0219,-651.672 L 61.286,-651.526
 L 61.5298,-651.349 L 61.7495,-651.143 L 61.9416,-650.911 L 62.1031,-650.656 L 62.2315,-650.383 L 62.3246,-650.097
 L 62.3811,-649.801 L 62.4,-649.5 L 62.3811,-649.199 L 62.3246,-648.903 L 62.2315,-648.617 L 62.1031,-648.344
 L 61.9416,-648.089 L 61.7495,-647.857 L 61.5298,-647.651 L 61.286,-647.474 L 61.0219,-647.328 L 60.7416,-647.217
 L 60.4497,-647.143 L 60.1507,-647.105 z
M 59.8493,-482.105 L 59.5503,-482.143 L 59.2584,-482.217 L 58.9781,-482.328 L 58.714,-482.474 L 58.4702,-482.651
 L 58.2505,-482.857 L 58.0583,-483.089 L 57.8969,-483.344 L 57.7685,-483.617 L 57.6754,-483.903 L 57.6189,-484.199
 L 57.6,-484.5 L 57.6189,-484.801 L 57.6754,-485.097 L 57.7685,-485.383 L 57.8969,-485.656 L 58.0583,-485.911
 L 58.2505,-486.143 L 58.4702,-486.349 L 58.714,-486.526 L 58.9781,-486.672 L 59.2584,-486.783 L 59.5503,-486.857
 L 59.8493,-486.895 L 60.1507,-486.895 L 60.4497,-486.857 L 60.7416,-486.783 L 61.0219,-486.672 L 61.286,-486.526
 L 61.5298,-486.349 L 61.7495,-486.143 L 61.9416,-485.911 L 62.1031,-485.656 L 62.2315,-485.383 L 62.3246,-485.097
 L 62.3811,-484.801 L 62.4,-484.5 L 62.3811,-484.199 L 62.3246,-483.903 L 62.2315,-483.617 L 62.1031,-483.344
 L 61.9416,-483.089 L 61.7495,-482.857 L 61.5298,-482.651 L 61.286,-482.474 L 61.0219,-482.328 L 60.7416,-482.217
 L 60.4497,-482.143 L 60.1507,-482.105 z
M -60.1507,-482.105 L -60.4497,-482.143 L -60.7416,-482.217 L -61.0219,-482.328 L -61.286,-482.474 L -61.5298,-482.651
 L -61.7495,-482.857 L -61.9416,-483.089 L -62.1031,-483.344 L -62.2315,-483.617 L -62.3246,-483.903 L -62.3811,-484.199
 L -62.4,-484.5 L -62.3811,-484.801 L -62.3246,-485.097 L -62.2315,-485.383 L -62.1031,-485.656 L -61.9416,-485.911
 L -61.7495,-486.143 L -61.5298,-486.349 L -61.286,-486.526 L -61.0219,-486.672 L -60.7416,-486.783 L -60.4497,-486.857
 L -60.1507,-486.895 L -59.8493,-486.895 L -59.5503,-486.857 L -59.2584,-486.783 L -58.9781,-486.672 L -58.714,-486.526
 L -58.4702,-486.349 L -58.2505,-486.143 L -58.0583,-485.911 L -57.8969,-485.656 L -57.7685,-485.383 L -57.6754,-485.097
 L -57.6189,-484.801 L -57.6,-484.5 L -57.6189,-484.199 L -57.6754,-483.903 L -57.7685,-483.617 L -57.8969,-483.344
 L -58.0583,-483.089 L -58.2505,-482.857 L -58.4702,-482.651 L -58.714,-482.474 L -58.9781,-482.328 L -59.2584,-482.217
 L -59.5503,-482.143 L -59.8493,-482.105 z
M 63.4369,-288.089 L 64.0451,-288.245 L 64.6289,-288.476 L 65.1791,-288.778 L 65.6871,-289.147 L 66.1448,-289.577
 L 66.5451,-290.061 L 66.8815,-290.591 L 67.1489,-291.159 L 67.3429,-291.757 L 67.4606,-292.373 L 67.5,-293
 L 67.5,-463 L 67.4606,-463.627 L 67.3429,-464.243 L 67.1489,-464.841 L 66.8815,-465.409 L 66.5451,-465.939
 L 66.1448,-466.423 L 65.6871,-466.853 L 65.1791,-467.222 L 64.6289,-467.524 L 64.0451,-467.755 L 63.4369,-467.911
 L 62.8139,-467.99 L -62.8139,-467.99 L -63.4369,-467.911 L -64.0451,-467.755 L -64.6289,-467.524 L -65.1791,-467.222
 L -65.6871,-466.853 L -66.1448,-466.423 L -66.5451,-465.939 L -66.8815,-465.409 L -67.1489,-464.841 L -67.3429,-464.243
 L -67.4,-463.944 L -67.5,-463.944 L -67.5,-292.056 L -67.4,-292.056 L -67.3429,-291.757 L -67.1489,-291.159
 L -66.8815,-290.591 L -66.5451,-290.061 L -66.1448,-289.577 L -65.6871,-289.147 L -65.1791,-288.778 L -64.6289,-288.476
 L -64.0451,-288.245 L -63.4369,-288.089 L -62.8139,-288.01 L 62.8139,-288.01 z
M -60.113,-458.704 L -60.3373,-458.732 L -60.5562,-458.788 L -60.7664,-458.871 L -60.9645,-458.98 L -61.1474,-459.113
 L -61.3121,-459.268 L -61.4562,-459.442 L -61.5773,-459.633 L -61.6736,-459.837 L -61.7434,-460.052 L -61.7858,-460.274
 L -61.8,-460.5 L -61.7858,-460.726 L -61.7434,-460.948 L -61.6736,-461.163 L -61.5773,-461.367 L -61.4562,-461.558
 L -61.3121,-461.732 L -61.1474,-461.887 L -60.9645,-462.02 L -60.7664,-462.129 L -60.5562,-462.212 L -60.3373,-462.268
 L -60.113,-462.296 L -59.887,-462.296 L -59.6627,-462.268 L -59.4438,-462.212 L -59.2336,-462.129 L -59.0355,-462.02
 L -58.8526,-461.887 L -58.6879,-461.732 L -58.5438,-461.558 L -58.4226,-461.367 L -58.3264,-461.163 L -58.2565,-460.948
 L -58.2142,-460.726 L -58.2,-460.5 L -58.2142,-460.274 L -58.2565,-460.052 L -58.3264,-459.837 L -58.4226,-459.633
 L -58.5438,-459.442 L -58.6879,-459.268 L -58.8526,-459.113 L -59.0355,-458.98 L -59.2336,-458.871 L -59.4438,-458.788
 L -59.6627,-458.732 L -59.887,-458.704 z
M 59.887,-458.704 L 59.6627,-458.732 L 59.4438,-458.788 L 59.2336,-458.871 L 59.0355,-458.98 L 58.8526,-459.113
 L 58.6879,-459.268 L 58.5438,-459.442 L 58.4226,-459.633 L 58.3264,-459.837 L 58.2565,-460.052 L 58.2142,-460.274
 L 58.2,-460.5 L 58.2142,-460.726 L 58.2565,-460.948 L 58.3264,-461.163 L 58.4226,-461.367 L 58.5438,-461.558
 L 58.6879,-461.732 L 58.8526,-461.887 L 59.0355,-462.02 L 59.2336,-462.129 L 59.4438,-462.212 L 59.6627,-462.268
 L 59.887,-462.296 L 60.113,-462.296 L 60.3373,-462.268 L 60.5562,-462.212 L 60.7664,-462.129 L 60.9645,-462.02
 L 61.1474,-461.887 L 61.3121,-461.732 L 61.4562,-461.558 L 61.5773,-461.367 L 61.6736,-461.163 L 61.7434,-460.948
 L 61.7858,-460.726 L 61.8,-460.5 L 61.7858,-460.274 L 61.7434,-460.052 L 61.6736,-459.837 L 61.5773,-459.633
 L 61.4562,-459.442 L 61.3121,-459.268 L 61.1474,-459.113 L 60.9645,-458.98 L 60.7664,-458.871 L 60.5562,-458.788
 L 60.3373,-458.732 L 60.113,-458.704 z
M 59.887,-293.704 L 59.6627,-293.732 L 59.4438,-293.788 L 59.2336,-293.871 L 59.0355,-293.98 L 58.8526,-294.113
 L 58.6879,-294.268 L 58.5438,-294.442 L 58.4226,-294.633 L 58.3264,-294.837 L 58.2565,-295.052 L 58.2142,-295.274
 L 58.2,-295.5 L 58.2142,-295.726 L 58.2565,-295.948 L 58.3264,-296.163 L 58.4226,-296.367 L 58.5438,-296.558
 L 58.6879,-296.732 L 58.8526,-296.887 L 59.0355,-297.02 L 59.2336,-297.129 L 59.4438,-297.212 L 59.6627,-297.268
 L 59.887,-297.296 L 60.113,-297.296 L 60.3373,-297.268 L 60.5562,-297.212 L 60.7664,-297.129 L 60.9645,-297.02
 L 61.1474,-296.887 L 61.3121,-296.732 L 61.4562,-296.558 L 61.5773,-296.367 L 61.6736,-296.163 L 61.7434,-295.948
 L 61.7858,-295.726 L 61.8,-295.5 L 61.7858,-295.274 L 61.7434,-295.052 L 61.6736,-294.837 L 61.5773,-294.633
 L 61.4562,-294.442 L 61.3121,-294.268 L 61.1474,-294.113 L 60.9645,-293.98 L 60.7664,-293.871 L 60.5562,-293.788
 L 60.3373,-293.732 L 60.113,-293.704 z
M -60.113,-293.704 L -60.3373,-293.732 L -60.5562,-293.788 L -60.7664,-293.871 L -60.9645,-293.98 L -61.1474,-294.113
 L -61.3121,-294.268 L -61.4562,-294.442 L -61.5773,-294.633 L -61.6736,-294.837 L -61.7434,-295.052 L -61.7858,-295.274
 L -61.8,-295.5 L -61.7858,-295.726 L -61.7434,-295.948 L -61.6736,-296.163 L -61.5773,-296.367 L -61.4562,-296.558
 L -61.3121,-296.732 L -61.1474,-296.887 L -60.9645,-297.02 L -60.7664,-297.129 L -60.5562,-297.212 L -60.3373,-297.268
 L -60.113,-297.296 L -59.887,-297.296 L -59.6627,-297.268 L -59.4438,-297.212 L -59.2336,-297.129 L -59.0355,-297.02
 L -58.8526,-296.887 L -58.6879,-296.732 L -58.5438,-296.558 L -58.4226,-296.367 L -58.3264,-296.163 L -58.2565,-295.948
 L -58.2142,-295.726 L -58.2,-295.5 L -58.2142,-295.274 L -58.2565,-295.052 L -58.3264,-294.837 L -58.4226,-294.633
 L -58.5438,-294.442 L -58.6879,-294.268 L -58.8526,-294.113 L -59.0355,-293.98 L -59.2336,-293.871 L -59.4438,-293.788
 L -59.6627,-293.732 L -59.887,-293.704 z
" stroke="black" fill="lightgray" stroke-width="0.5"/>
</svg>
