<?xml version="1.0" standalone="no"?>
<!DOCTYPE svg PUBLIC "-//W3C//DTD SVG 1.1//EN" "http://www.w3.org/Graphics/SVG/1.1/DTD/svg11.dtd">
<svg width="60mm" height="412mm" viewBox="-30 -710 60 412" xmlns="http://www.w3.org/2000/svg" version="1.1">
<title>OpenSCAD Model</title>
<path d="
M 25.9369,-634.589 L 26.5451,-634.745 L 27.1289,-634.976 L 27.6791,-635.278 L 28.1871,-635.647 L 28.6448,-636.077
 L 29.0451,-636.561 L 29.3815,-637.091 L 29.6489,-637.659 L 29.8429,-638.257 L 29.9606,-638.873 L 30,-639.5
 L 30,-704.5 L 29.9606,-705.127 L 29.8429,-705.743 L 29.6489,-706.341 L 29.3815,-706.909 L 29.0451,-707.439
 L 28.6448,-707.923 L 28.1871,-708.353 L 27.6791,-708.722 L 27.1289,-709.024 L 26.5451,-709.255 L 25.9369,-709.411
 L 25.3139,-709.49 L -25.3139,-709.49 L -25.9369,-709.411 L -26.5451,-709.255 L -27.1289,-709.024 L -27.6791,-708.722
 L -28.1871,-708.353 L -28.6448,-707.923 L -29.0451,-707.439 L -29.3815,-706.909 L -29.6489,-706.341 L -29.8429,-705.743
 L -29.9606,-705.127 L -30,-704.5 L -30,-639.5 L -29.9606,-638.873 L -29.8429,-638.257 L -29.6489,-637.659
 L -29.3815,-637.091 L -29.0451,-636.561 L -28.6448,-636.077 L -28.1871,-635.647 L -27.6791,-635.278 L -27.1289,-634.976
 L -26.5451,-634.745 L -25.9369,-634.589 L -25.3139,-634.51 L 25.3139,-634.51 z
M -24.7512,-636.008 L -25.2495,-636.071 L -25.7361,-636.196 L -26.2031,-636.381 L -26.6433,-636.623 L -27.0497,-636.918
 L -27.4159,-637.262 L -27.7361,-637.649 L -28.0052,-638.073 L -28.2191,-638.528 L -28.3743,-639.005 L -28.4684,-639.499
 L -28.5,-640 L -28.5,-704 L -28.4684,-704.501 L -28.3743,-704.995 L -28.2191,-705.472 L -28.0052,-705.927
 L -27.7361,-706.351 L -27.4159,-706.738 L -27.0497,-707.082 L -26.6433,-707.377 L -26.2031,-707.619 L -25.7361,-707.804
 L -25.2495,-707.929 L -24.7512,-707.992 L 24.7512,-707.992 L 25.2495,-707.929 L 25.7361,-707.804 L 26.2031,-707.619
 L 26.6433,-707.377 L 27.0497,-707.082 L 27.4159,-706.738 L 27.7361,-706.351 L 28.0052,-705.927 L 28.2191,-705.472
 L 28.3743,-704.995 L 28.4684,-704.501 L 28.5,-704 L 28.5,-640 L 28.4684,-639.499 L 28.3743,-639.005
 L 28.2191,-638.528 L 28.0052,-638.073 L 27.7361,-637.649 L 27.4159,-637.262 L 27.0497,-636.918 L 26.6433,-636.623
 L 26.2031,-636.381 L 25.7361,-636.196 L 25.2495,-636.071 L 24.7512,-636.008 z
M 25.9369,-550.589 L 26.5451,-550.745 L 27.1289,-550.976 L 27.6791,-551.278 L 28.1871,-551.647 L 28.6448,-552.077
 L 29.0451,-552.561 L 29.3815,-553.091 L 29.6489,-553.659 L 29.8429,-554.257 L 29.9606,-554.873 L 30,-555.5
 L 30,-620.5 L 29.9606,-621.127 L 29.8429,-621.743 L 29.6489,-622.341 L 29.3815,-622.909 L 29.0451,-623.439
 L 28.6448,-623.923 L 28.1871,-624.353 L 27.6791,-624.722 L 27.1289,-625.024 L 26.5451,-625.255 L 25.9369,-625.411
 L 25.3139,-625.49 L -25.3139,-625.49 L -25.9369,-625.411 L -26.5451,-625.255 L -27.1289,-625.024 L -27.6791,-624.722
 L -28.1871,-624.353 L -28.6448,-623.923 L -29.0451,-623.439 L -29.3815,-622.909 L -29.6489,-622.341 L -29.8429,-621.743
 L -29.9606,-621.127 L -30,-620.5 L -30,-555.5 L -29.9606,-554.873 L -29.8429,-554.257 L -29.6489,-553.659
 L -29.3815,-553.091 L -29.0451,-552.561 L -28.6448,-552.077 L -28.1871,-551.647 L -27.6791,-551.278 L -27.1289,-550.976
 L -26.5451,-550.745 L -25.9369,-550.589 L -25.3139,-550.51 L 25.3139,-550.51 z
M -24.7512,-552.008 L -25.2495,-552.071 L -25.7361,-552.196 L -26.2031,-552.381 L -26.6433,-552.623 L -27.0497,-552.918
 L -27.4159,-553.262 L -27.7361,-553.649 L -28.0052,-554.073 L -28.2191,-554.528 L -28.3743,-555.005 L -28.4684,-555.499
 L -28.5,-556 L -28.5,-620 L -28.4684,-620.501 L -28.3743,-620.995 L -28.2191,-621.472 L -28.0052,-621.927
 L -27.7361,-622.351 L -27.4159,-622.738 L -27.0497,-623.082 L -26.6433,-623.377 L -26.2031,-623.619 L -25.7361,-623.804
 L -25.2495,-623.929 L -24.7512,-623.992 L 24.7512,-623.992 L 25.2495,-623.929 L 25.7361,-623.804 L 26.2031,-623.619
 L 26.6433,-623.377 L 27.0497,-623.082 L 27.4159,-622.738 L 27.7361,-622.351 L 28.0052,-621.927 L 28.2191,-621.472
 L 28.3743,-620.995 L 28.4684,-620.501 L 28.5,-620 L 28.5,-556 L 28.4684,-555.499 L 28.3743,-555.005
 L 28.2191,-554.528 L 28.0052,-554.073 L 27.7361,-553.649 L 27.4159,-553.262 L 27.0497,-552.918 L 26.6433,-552.623
 L 26.2031,-552.381 L 25.7361,-552.196 L 25.2495,-552.071 L 24.7512,-552.008 z
M 25.9369,-466.589 L 26.5451,-466.745 L 27.1289,-466.976 L 27.6791,-467.278 L 28.1871,-467.647 L 28.6448,-468.077
 L 29.0451,-468.561 L 29.3815,-469.091 L 29.6489,-469.659 L 29.8429,-470.257 L 29.9606,-470.873 L 30,-471.5
 L 30,-536.5 L 29.9606,-537.127 L 29.8429,-537.743 L 29.6489,-538.341 L 29.3815,-538.909 L 29.0451,-539.439
 L 28.6448,-539.923 L 28.1871,-540.353 L 27.6791,-540.722 L 27.1289,-541.024 L 26.5451,-541.255 L 25.9369,-541.411
 L 25.3139,-541.49 L -25.3139,-541.49 L -25.9369,-541.411 L -26.5451,-541.255 L -27.1289,-541.024 L -27.6791,-540.722
 L -28.1871,-540.353 L -28.6448,-539.923 L -29.0451,-539.439 L -29.3815,-538.909 L -29.6489,-538.341 L -29.8429,-537.743
 L -29.9606,-537.127 L -30,-536.5 L -30,-471.5 L -29.9606,-470.873 L -29.8429,-470.257 L -29.6489,-469.659
 L -29.3815,-469.091 L -29.0451,-468.561 L -28.6448,-468.077 L -28.1871,-467.647 L -27.6791,-467.278 L -27.1289,-466.976
 L -26.5451,-466.745 L -25.9369,-466.589 L -25.3139,-466.51 L 25.3139,-466.51 z
M -24.7432,-468.135 L -25.2256,-468.196 L -25.6967,-468.317 L -26.1489,-468.496 L -26.5751,-468.73 L -26.9685,-469.016
 L -27.323,-469.349 L -27.633,-469.724 L -27.8936,-470.134 L -28.1007,-470.574 L -28.251,-471.037 L -28.3421,-471.515
 L -28.3726,-472 L -28.3726,-536 L -28.3421,-536.485 L -28.251,-536.963 L -28.1007,-537.426 L -27.8936,-537.866
 L -27.633,-538.276 L -27.323,-538.651 L -26.9685,-538.984 L -26.5751,-539.27 L -26.1489,-539.504 L -25.6967,-539.683
 L -25.2256,-539.804 L -24.7432,-539.865 L 24.7432,-539.865 L 25.2256,-539.804 L 25.6967,-539.683 L 26.1489,-539.504
 L 26.5751,-539.27 L 26.9685,-538.984 L 27.323,-538.651 L 27.633,-538.276 L 27.8936,-537.866 L 28.1007,-537.426
 L 28.251,-536.963 L 28.3421,-536.485 L 28.3726,-536 L 28.3726,-472 L 28.3421,-471.515 L 28.251,-471.037
 L 28.1007,-470.574 L 27.8936,-470.134 L 27.633,-469.724 L 27.323,-469.349 L 26.9685,-469.016 L 26.5751,-468.73
 L 26.1489,-468.496 L 25.6967,-468.317 L 25.2256,-468.196 L 24.7432,-468.135 z
M 25.9369,-382.589 L 26.5451,-382.745 L 27.1289,-382.976 L 27.6791,-383.278 L 28.1871,-383.647 L 28.6448,-384.077
 L 29.0451,-384.561 L 29.3815,-385.091 L 29.6489,-385.659 L 29.8429,-386.257 L 29.9606,-386.873 L 30,-387.5
 L 30,-452.5 L 29.9606,-453.127 L 29.8429,-453.743 L 29.6489,-454.341 L 29.3815,-454.909 L 29.0451,-455.439
 L 28.6448,-455.923 L 28.1871,-456.353 L 27.6791,-456.722 L 27.1289,-457.024 L 26.5451,-457.255 L 25.9369,-457.411
 L 25.3139,-457.49 L -25.3139,-457.49 L -25.9369,-457.411 L -26.5451,-457.255 L -27.1289,-457.024 L -27.6791,-456.722
 L -28.1871,-456.353 L -28.6448,-455.923 L -29.0451,-455.439 L -29.3815,-454.909 L -29.6489,-454.341 L -29.8429,-453.743
 L -29.9606,-453.127 L -30,-452.5 L -30,-387.5 L -29.9606,-386.873 L -29.8429,-386.257 L -29.6489,-385.659
 L -29.3815,-385.091 L -29.0451,-384.561 L -28.6448,-384.077 L -28.1871,-383.647 L -27.6791,-383.278 L -27.1289,-382.976
 L -26.5451,-382.745 L -25.9369,-382.589 L -25.3139,-382.51 L 25.3139,-382.51 z
M -22.6507,-447.605 L -22.9497,-447.643 L -23.2416,-447.717 L -23.5219,-447.828 L -23.786,-447.974 L -24.0298,-448.151
 L -24.2495,-448.357 L -24.4416,-448.589 L -24.6031,-448.844 L -24.7315,-449.117 L -24.8246,-449.403 L -24.8811,-449.699
 L -24.9,-450 L -24.8811,-450.301 L -24.8246,-450.597 L -24.7315,-450.883 L -24.6031,-451.156 L -24.4416,-451.411
 L -24.2495,-451.643 L -24.0298,-451.849 L -23.786,-452.026 L -23.5219,-452.172 L -23.2416,-452.283 L -22.9497,-452.357
 L -22.6507,-452.395 L -22.3493,-452.395 L -22.0503,-452.357 L -21.7583,-452.283 L -21.4781,-452.172 L -21.214,-452.026
 L -20.9702,-451.849 L -20.7505,-451.643 L -20.5583,-451.411 L -20.3969,-451.156 L -20.2685,-450.883 L -20.1754,-450.597
 L -20.1189,-450.301 L -20.1,-450 L -20.1189,-449.699 L -20.1754,-449.403 L -20.2685,-449.117 L -20.3969,-448.844
 L -20.5583,-448.589 L -20.7505,-448.357 L -20.9702,-448.151 L -21.214,-447.974 L -21.4781,-447.828 L -21.7583,-447.717
 L -22.0503,-447.643 L -22.3493,-447.605 z
M 22.3493,-447.605 L 22.0503,-447.643 L 21.7583,-447.717 L 21.4781,-447.828 L 21.214,-447.974 L 20.9702,-448.151
 L 20.7505,-448.357 L 20.5583,-448.589 L 20.3969,-448.844 L 20.2685,-449.117 L 20.1754,-449.403 L 20.1189,-449.699
 L 20.1,-450 L 20.1189,-450.301 L 20.1754,-450.597 L 20.2685,-450.883 L 20.3969,-451.156 L 20.5583,-451.411
 L 20.7505,-451.643 L 20.9702,-451.849 L 21.214,-452.026 L 21.4781,-452.172 L 21.7583,-452.283 L 22.0503,-452.357
 L 22.3493,-452.395 L 22.6507,-452.395 L 22.9497,-452.357 L 23.2416,-452.283 L 23.5219,-452.172 L 23.786,-452.026
 L 24.0298,-451.849 L 24.2495,-451.643 L 24.4416,-451.411 L 24.6031,-451.156 L 24.7315,-450.883 L 24.8246,-450.597
 L 24.8811,-450.301 L 24.9,-450 L 24.8811,-449.699 L 24.8246,-449.403 L 24.7315,-449.117 L 24.6031,-448.844
 L 24.4416,-448.589 L 24.2495,-448.357 L 24.0298,-448.151 L 23.786,-447.974 L 23.5219,-447.828 L 23.2416,-447.717
 L 22.9497,-447.643 L 22.6507,-447.605 z
M 22.3493,-387.605 L 22.0503,-387.643 L 21.7583,-387.717 L 21.4781,-387.828 L 21.214,-387.974 L 20.9702,-388.151
 L 20.7505,-388.357 L 20.5583,-388.589 L 20.3969,-388.844 L 20.2685,-389.117 L 20.1754,-389.403 L 20.1189,-389.699
 L 20.1,-390 L 20.1189,-390.301 L 20.1754,-390.597 L 20.2685,-390.883 L 20.3969,-391.156 L 20.5583,-391.411
 L 20.7505,-391.643 L 20.9702,-391.849 L 21.214,-392.026 L 21.4781,-392.172 L 21.7583,-392.283 L 22.0503,-392.357
 L 22.3493,-392.395 L 22.6507,-392.395 L 22.9497,-392.357 L 23.2416,-392.283 L 23.5219,-392.172 L 23.786,-392.026
 L 24.0298,-391.849 L 24.2495,-391.643 L 24.4416,-391.411 L 24.6031,-391.156 L 24.7315,-390.883 L 24.8246,-390.597
 L 24.8811,-390.301 L 24.9,-390 L 24.8811,-389.699 L 24.8246,-389.403 L 24.7315,-389.117 L 24.6031,-388.844
 L 24.4416,-388.589 L 24.2495,-388.357 L 24.0298,-388.151 L 23.786,-387.974 L 23.5219,-387.828 L 23.2416,-387.717
 L 22.9497,-387.643 L 22.6507,-387.605 z
M -22.6507,-387.605 L -22.9497,-387.643 L -23.2416,-387.717 L -23.5219,-387.828 L -23.786,-387.974 L -24.0298,-388.151
 L -24.2495,-388.357 L -24.4416,-388.589 L -24.6031,-388.844 L -24.7315,-389.117 L -24.8246,-389.403 L -24.8811,-389.699
 L -24.9,-390 L -24.8811,-390.301 L -24.8246,-390.597 L -24.7315,-390.883 L -24.6031,-391.156 L -24.4416,-391.411
 L -24.2495,-391.643 L -24.0298,-391.849 L -23.786,-392.026 L -23.5219,-392.172 L -23.2416,-392.283 L -22.9497,-392.357
 L -22.6507,-392.395 L -22.3493,-392.395 L -22.0503,-392.357 L -21.7583,-392.283 L -21.4781,-392.172 L -21.214,-392.026
 L -20.9702,-391.849 L -20.7505,-391.643 L -20.5583,-391.411 L -20.3969,-391.156 L -20.2685,-390.883 L -20.1754,-390.597
 L -20.1189,-390.301 L -20.1,-390 L -20.1189,-389.699 L -20.1754,-389.403 L -20.2685,-389.117 L -20.3969,-388.844
 L -20.5583,-388.589 L -20.7505,-388.357 L -20.9702,-388.151 L -21.214,-387.974 L -21.4781,-387.828 L -21.7583,-387.717
 L -22.0503,-387.643 L -22.3493,-387.605 z
M 25.9369,-298.589 L 26.5451,-298.745 L 27.1289,-298.976 L 27.6791,-299.278 L 28.1871,-299.647 L 28.6448,-300.077
 L 29.0451,-300.561 L 29.3815,-301.091 L 29.6489,-301.659 L 29.8429,-302.257 L 29.9606,-302.873 L 30,-303.5
 L 30,-368.5 L 29.9606,-369.127 L 29.8429,-369.743 L 29.6489,-370.341 L 29.3815,-370.909 L 29.0451,-371.439
 L 28.6448,-371.923 L 28.1871,-372.353 L 27.6791,-372.722 L 27.1289,-373.024 L 26.5451,-373.255 L 25.9369,-373.411
 L 25.3139,-373.49 L -25.3139,-373.49 L -25.9369,-373.411 L -26.5451,-373.255 L -27.1289,-373.024 L -27.6791,-372.722
 L -28.1871,-372.353 L -28.6448,-371.923 L -29.0451,-371.439 L -29.3815,-370.909 L -29.6489,-370.341 L -29.8429,-369.743
 L -29.9606,-369.127 L -30,-368.5 L -30,-303.5 L -29.9606,-302.873 L -29.8429,-302.257 L -29.6489,-301.659
 L -29.3815,-301.091 L -29.0451,-300.561 L -28.6448,-300.077 L -28.1871,-299.647 L -27.6791,-299.278 L -27.1289,-298.976
 L -26.5451,-298.745 L -25.9369,-298.589 L -25.3139,-298.51 L 25.3139,-298.51 z
M 22.387,-364.204 L 22.1627,-364.232 L 21.9438,-364.288 L 21.7336,-364.371 L 21.5355,-364.48 L 21.3526,-364.613
 L 21.1879,-364.768 L 21.0438,-364.942 L 20.9226,-365.133 L 20.8264,-365.337 L 20.7565,-365.552 L 20.7142,-365.774
 L 20.7,-366 L 20.7142,-366.226 L 20.7565,-366.448 L 20.8264,-366.663 L 20.9226,-366.867 L 21.0438,-367.058
 L 21.1879,-367.232 L 21.3526,-367.387 L 21.5355,-367.52 L 21.7336,-367.629 L 21.9438,-367.712 L 22.1627,-367.768
 L 22.387,-367.796 L 22.613,-367.796 L 22.8373,-367.768 L 23.0562,-367.712 L 23.2664,-367.629 L 23.4645,-367.52
 L 23.6474,-367.387 L 23.8121,-367.232 L 23.9562,-367.058 L 24.0773,-366.867 L 24.1736,-366.663 L 24.2434,-366.448
 L 24.2858,-366.226 L 24.3,-366 L 24.2858,-365.774 L 24.2434,-365.552 L 24.1736,-365.337 L 24.0773,-365.133
 L 23.9562,-364.942 L 23.8121,-364.768 L 23.6474,-364.613 L 23.4645,-364.48 L 23.2664,-364.371 L 23.0562,-364.288
 L 22.8373,-364.232 L 22.613,-364.204 z
M -22.613,-364.204 L -22.8373,-364.232 L -23.0562,-364.288 L -23.2664,-364.371 L -23.4645,-364.48 L -23.6474,-364.613
 L -23.8121,-364.768 L -23.9562,-364.942 L -24.0773,-365.133 L -24.1736,-365.337 L -24.2434,-365.552 L -24.2858,-365.774
 L -24.3,-366 L -24.2858,-366.226 L -24.2434,-366.448 L -24.1736,-366.663 L -24.0773,-366.867 L -23.9562,-367.058
 L -23.8121,-367.232 L -23.6474,-367.387 L -23.4645,-367.52 L -23.2664,-367.629 L -23.0562,-367.712 L -22.8373,-367.768
 L -22.613,-367.796 L -22.387,-367.796 L -22.1627,-367.768 L -21.9438,-367.712 L -21.7336,-367.629 L -21.5355,-367.52
 L -21.3526,-367.387 L -21.1879,-367.232 L -21.0438,-367.058 L -20.9226,-366.867 L -20.8264,-366.663 L -20.7565,-366.448
 L -20.7142,-366.226 L -20.7,-366 L -20.7142,-365.774 L -20.7565,-365.552 L -20.8264,-365.337 L -20.9226,-365.133
 L -21.0438,-364.942 L -21.1879,-364.768 L -21.3526,-364.613 L -21.5355,-364.48 L -21.7336,-364.371 L -21.9438,-364.288
 L -22.1627,-364.232 L -22.387,-364.204 z
M -22.613,-304.204 L -22.8373,-304.232 L -23.0562,-304.288 L -23.2664,-304.371 L -23.4645,-304.48 L -23.6474,-304.613
 L -23.8121,-304.768 L -23.9562,-304.942 L -24.0773,-305.133 L -24.1736,-305.337 L -24.2434,-305.552 L -24.2858,-305.774
 L -24.3,-306 L -24.2858,-306.226 L -24.2434,-306.448 L -24.1736,-306.663 L -24.0773,-306.867 L -23.9562,-307.058
 L -23.8121,-307.232 L -23.6474,-307.387 L -23.4645,-307.52 L -23.2664,-307.629 L -23.0562,-307.712 L -22.8373,-307.768
 L -22.613,-307.796 L -22.387,-307.796 L -22.1627,-307.768 L -21.9438,-307.712 L -21.7336,-307.629 L -21.5355,-307.52
 L -21.3526,-307.387 L -21.1879,-307.232 L -21.0438,-307.058 L -20.9226,-306.867 L -20.8264,-306.663 L -20.7565,-306.448
 L -20.7142,-306.226 L -20.7,-306 L -20.7142,-305.774 L -20.7565,-305.552 L -20.8264,-305.337 L -20.9226,-305.133
 L -21.0438,-304.942 L -21.1879,-304.768 L -21.3526,-304.613 L -21.5355,-304.48 L -21.7336,-304.371 L -21.9438,-304.288
 L -22.1627,-304.232 L -22.387,-304.204 z
M 22.387,-304.204 L 22.1627,-304.232 L 21.9438,-304.288 L 21.7336,-304.371 L 21.5355,-304.48 L 21.3526,-304.613
 L 21.1879,-304.768 L 21.0438,-304.942 L 20.9226,-305.133 L 20.8264,-305.337 L 20.7565,-305.552 L 20.7142,-305.774
 L 20.7,-306 L 20.7142,-306.226 L 20.7565,-306.448 L 20.8264,-306.663 L 20.9226,-306.867 L 21.0438,-307.058
 L 21.1879,-307.232 L 21.3526,-307.387 L 21.5355,-307.52 L 21.7336,-307.629 L 21.9438,-307.712 L 22.1627,-307.768
 L 22.387,-307.796 L 22.613,-307.796 L 22.8373,-307.768 L 23.0562,-307.712 L 23.2664,-307.629 L 23.4645,-307.52
 L 23.6474,-307.387 L 23.8121,-307.232 L 23.9562,-307.058 L 24.0773,-306.867 L 24.1736,-306.663 L 24.2434,-306.448
 L 24.2858,-306.226 L 24.3,-306 L 24.2858,-305.774 L 24.2434,-305.552 L 24.1736,-305.337 L 24.0773,-305.133
 L 23.9562,-304.942 L 23.8121,-304.768 L 23.6474,-304.613 L 23.4645,-304.48 L 23.2664,-304.371 L 23.0562,-304.288
 L 22.8373,-304.232 L 22.613,-304.204 z
" stroke="black" fill="lightgray" stroke-width="0.5"/>
</svg>
