<?xml version="1.0" standalone="no"?>
<!DOCTYPE svg PUBLIC "-//W3C//DTD SVG 1.1//EN" "http://www.w3.org/Graphics/SVG/1.1/DTD/svg11.dtd">
<svg width="24mm" height="576mm" viewBox="-12 -1146 24 576" xmlns="http://www.w3.org/2000/svg" version="1.1">
<title>OpenSCAD Model</title>
<path d="
M 7.1869,-1116.09 L 7.79507,-1116.24 L 8.37889,-1116.48 L 8.92912,-1116.78 L 9.43712,-1117.15 L 9.89484,-1117.58
 L 10.2951,-1118.06 L 10.6315,-1118.59 L 10.8989,-1119.16 L 11.0929,-1119.76 L 11.2106,-1120.37 L 11.25,-1121
 L 11.25,-1141 L 11.2106,-1141.63 L 11.0929,-1142.24 L 10.8989,-1142.84 L 10.6315,-1143.41 L 10.2951,-1143.94
 L 9.89484,-1144.42 L 9.43712,-1144.85 L 8.92912,-1145.22 L 8.37889,-1145.52 L 7.79507,-1145.76 L 7.1869,-1145.91
 L 6.56395,-1145.99 L -6.56395,-1145.99 L -7.1869,-1145.91 L -7.79507,-1145.76 L -8.37889,-1145.52 L -8.92912,-1145.22
 L -9.43712,-1144.85 L -9.89484,-1144.42 L -10.2951,-1143.94 L -10.6315,-1143.41 L -10.8989,-1142.84 L -11.0929,-1142.24
 L -11.2106,-1141.63 L -11.25,-1141 L -11.25,-1121 L -11.2106,-1120.37 L -11.0929,-1119.76 L -10.8989,-1119.16
 L -10.6315,-1118.59 L -10.2951,-1118.06 L -9.89484,-1117.58 L -9.43712,-1117.15 L -8.92912,-1116.78 L -8.37889,-1116.48
 L -7.79507,-1116.24 L -7.1869,-1116.09 L -6.56395,-1116.01 L 6.56395,-1116.01 z
M -6.00116,-1117.51 L -6.49951,-1117.57 L -6.98605,-1117.7 L -7.45311,-1117.88 L -7.8933,-1118.12 L -8.29968,-1118.42
 L -8.66586,-1118.76 L -8.98605,-1119.15 L -9.25522,-1119.57 L -9.4691,-1120.03 L -9.62433,-1120.51 L -9.71844,-1121
 L -9.75,-1121.5 L -9.75,-1140.5 L -9.71844,-1141 L -9.62433,-1141.49 L -9.4691,-1141.97 L -9.25522,-1142.43
 L -8.98605,-1142.85 L -8.66586,-1143.24 L -8.29968,-1143.58 L -7.8933,-1143.88 L -7.45311,-1144.12 L -6.98605,-1144.3
 L -6.49951,-1144.43 L -6.00116,-1144.49 L 6.00116,-1144.49 L 6.49951,-1144.43 L 6.98605,-1144.3 L 7.45311,-1144.12
 L 7.8933,-1143.88 L 8.29968,-1143.58 L 8.66586,-1143.24 L 8.98605,-1142.85 L 9.25522,-1142.43 L 9.4691,-1141.97
 L 9.62433,-1141.49 L 9.71844,-1141 L 9.75,-1140.5 L 9.75,-1121.5 L 9.71844,-1121 L 9.62433,-1120.51
 L 9.4691,-1120.03 L 9.25522,-1119.57 L 8.98605,-1119.15 L 8.66586,-1118.76 L 8.29968,-1118.42 L 7.8933,-1118.12
 L 7.45311,-1117.88 L 6.98605,-1117.7 L 6.49951,-1117.57 L 6.00116,-1117.51 z
M 7.1869,-1077.09 L 7.79507,-1077.24 L 8.37889,-1077.48 L 8.92912,-1077.78 L 9.43712,-1078.15 L 9.89484,-1078.58
 L 10.2951,-1079.06 L 10.6315,-1079.59 L 10.8989,-1080.16 L 11.0929,-1080.76 L 11.2106,-1081.37 L 11.25,-1082
 L 11.25,-1102 L 11.2106,-1102.63 L 11.0929,-1103.24 L 10.8989,-1103.84 L 10.6315,-1104.41 L 10.2951,-1104.94
 L 9.89484,-1105.42 L 9.43712,-1105.85 L 8.92912,-1106.22 L 8.37889,-1106.52 L 7.79507,-1106.76 L 7.1869,-1106.91
 L 6.56395,-1106.99 L -6.56395,-1106.99 L -7.1869,-1106.91 L -7.79507,-1106.76 L -8.37889,-1106.52 L -8.92912,-1106.22
 L -9.43712,-1105.85 L -9.89484,-1105.42 L -10.2951,-1104.94 L -10.6315,-1104.41 L -10.8989,-1103.84 L -11.0929,-1103.24
 L -11.2106,-1102.63 L -11.25,-1102 L -11.25,-1082 L -11.2106,-1081.37 L -11.0929,-1080.76 L -10.8989,-1080.16
 L -10.6315,-1079.59 L -10.2951,-1079.06 L -9.89484,-1078.58 L -9.43712,-1078.15 L -8.92912,-1077.78 L -8.37889,-1077.48
 L -7.79507,-1077.24 L -7.1869,-1077.09 L -6.56395,-1077.01 L 6.56395,-1077.01 z
M -6.00116,-1078.51 L -6.49951,-1078.57 L -6.98605,-1078.7 L -7.45311,-1078.88 L -7.8933,-1079.12 L -8.29968,-1079.42
 L -8.66586,-1079.76 L -8.98605,-1080.15 L -9.25522,-1080.57 L -9.4691,-1081.03 L -9.62433,-1081.51 L -9.71844,-1082
 L -9.75,-1082.5 L -9.75,-1101.5 L -9.71844,-1102 L -9.62433,-1102.49 L -9.4691,-1102.97 L -9.25522,-1103.43
 L -8.98605,-1103.85 L -8.66586,-1104.24 L -8.29968,-1104.58 L -7.8933,-1104.88 L -7.45311,-1105.12 L -6.98605,-1105.3
 L -6.49951,-1105.43 L -6.00116,-1105.49 L 6.00116,-1105.49 L 6.49951,-1105.43 L 6.98605,-1105.3 L 7.45311,-1105.12
 L 7.8933,-1104.88 L 8.29968,-1104.58 L 8.66586,-1104.24 L 8.98605,-1103.85 L 9.25522,-1103.43 L 9.4691,-1102.97
 L 9.62433,-1102.49 L 9.71844,-1102 L 9.75,-1101.5 L 9.75,-1082.5 L 9.71844,-1082 L 9.62433,-1081.51
 L 9.4691,-1081.03 L 9.25522,-1080.57 L 8.98605,-1080.15 L 8.66586,-1079.76 L 8.29968,-1079.42 L 7.8933,-1079.12
 L 7.45311,-1078.88 L 6.98605,-1078.7 L 6.49951,-1078.57 L 6.00116,-1078.51 z
M 7.1869,-1038.09 L 7.79507,-1038.24 L 8.37889,-1038.48 L 8.92912,-1038.78 L 9.43712,-1039.15 L 9.89484,-1039.58
 L 10.2951,-1040.06 L 10.6315,-1040.59 L 10.8989,-1041.16 L 11.0929,-1041.76 L 11.2106,-1042.37 L 11.25,-1043
 L 11.25,-1063 L 11.2106,-1063.63 L 11.0929,-1064.24 L 10.8989,-1064.84 L 10.6315,-1065.41 L 10.2951,-1065.94
 L 9.89484,-1066.42 L 9.43712,-1066.85 L 8.92912,-1067.22 L 8.37889,-1067.52 L 7.79507,-1067.76 L 7.1869,-1067.91
 L 6.56395,-1067.99 L -6.56395,-1067.99 L -7.1869,-1067.91 L -7.79507,-1067.76 L -8.37889,-1067.52 L -8.92912,-1067.22
 L -9.43712,-1066.85 L -9.89484,-1066.42 L -10.2951,-1065.94 L -10.6315,-1065.41 L -10.8989,-1064.84 L -11.0929,-1064.24
 L -11.2106,-1063.63 L -11.25,-1063 L -11.25,-1043 L -11.2106,-1042.37 L -11.0929,-1041.76 L -10.8989,-1041.16
 L -10.6315,-1040.59 L -10.2951,-1040.06 L -9.89484,-1039.58 L -9.43712,-1039.15 L -8.92912,-1038.78 L -8.37889,-1038.48
 L -7.79507,-1038.24 L -7.1869,-1038.09 L -6.56395,-1038.01 L 6.56395,-1038.01 z
M -6.00116,-1039.51 L -6.49951,-1039.57 L -6.98605,-1039.7 L -7.45311,-1039.88 L -7.8933,-1040.12 L -8.29968,-1040.42
 L -8.66586,-1040.76 L -8.98605,-1041.15 L -9.25522,-1041.57 L -9.4691,-1042.03 L -9.62433,-1042.51 L -9.71844,-1043
 L -9.75,-1043.5 L -9.75,-1062.5 L -9.71844,-1063 L -9.62433,-1063.49 L -9.4691,-1063.97 L -9.25522,-1064.43
 L -8.98605,-1064.85 L -8.66586,-1065.24 L -8.29968,-1065.58 L -7.8933,-1065.88 L -7.45311,-1066.12 L -6.98605,-1066.3
 L -6.49951,-1066.43 L -6.00116,-1066.49 L 6.00116,-1066.49 L 6.49951,-1066.43 L 6.98605,-1066.3 L 7.45311,-1066.12
 L 7.8933,-1065.88 L 8.29968,-1065.58 L 8.66586,-1065.24 L 8.98605,-1064.85 L 9.25522,-1064.43 L 9.4691,-1063.97
 L 9.62433,-1063.49 L 9.71844,-1063 L 9.75,-1062.5 L 9.75,-1043.5 L 9.71844,-1043 L 9.62433,-1042.51
 L 9.4691,-1042.03 L 9.25522,-1041.57 L 8.98605,-1041.15 L 8.66586,-1040.76 L 8.29968,-1040.42 L 7.8933,-1040.12
 L 7.45311,-1039.88 L 6.98605,-1039.7 L 6.49951,-1039.57 L 6.00116,-1039.51 z
M 7.1869,-999.089 L 7.79507,-999.245 L 8.37889,-999.476 L 8.92912,-999.778 L 9.43712,-1000.15 L 9.89484,-1000.58
 L 10.2951,-1001.06 L 10.6315,-1001.59 L 10.8989,-1002.16 L 11.0929,-1002.76 L 11.2106,-1003.37 L 11.25,-1004
 L 11.25,-1024 L 11.2106,-1024.63 L 11.0929,-1025.24 L 10.8989,-1025.84 L 10.6315,-1026.41 L 10.2951,-1026.94
 L 9.89484,-1027.42 L 9.43712,-1027.85 L 8.92912,-1028.22 L 8.37889,-1028.52 L 7.79507,-1028.76 L 7.1869,-1028.91
 L 6.56395,-1028.99 L -6.56395,-1028.99 L -7.1869,-1028.91 L -7.79507,-1028.76 L -8.37889,-1028.52 L -8.92912,-1028.22
 L -9.43712,-1027.85 L -9.89484,-1027.42 L -10.2951,-1026.94 L -10.6315,-1026.41 L -10.8989,-1025.84 L -11.0929,-1025.24
 L -11.2106,-1024.63 L -11.25,-1024 L -11.25,-1004 L -11.2106,-1003.37 L -11.0929,-1002.76 L -10.8989,-1002.16
 L -10.6315,-1001.59 L -10.2951,-1001.06 L -9.89484,-1000.58 L -9.43712,-1000.15 L -8.92912,-999.778 L -8.37889,-999.476
 L -7.79507,-999.245 L -7.1869,-999.089 L -6.56395,-999.01 L 6.56395,-999.01 z
M -6.00116,-1000.51 L -6.49951,-1000.57 L -6.98605,-1000.7 L -7.45311,-1000.88 L -7.8933,-1001.12 L -8.29968,-1001.42
 L -8.66586,-1001.76 L -8.98605,-1002.15 L -9.25522,-1002.57 L -9.4691,-1003.03 L -9.62433,-1003.51 L -9.71844,-1004
 L -9.75,-1004.5 L -9.75,-1023.5 L -9.71844,-1024 L -9.62433,-1024.49 L -9.4691,-1024.97 L -9.25522,-1025.43
 L -8.98605,-1025.85 L -8.66586,-1026.24 L -8.29968,-1026.58 L -7.8933,-1026.88 L -7.45311,-1027.12 L -6.98605,-1027.3
 L -6.49951,-1027.43 L -6.00116,-1027.49 L 6.00116,-1027.49 L 6.49951,-1027.43 L 6.98605,-1027.3 L 7.45311,-1027.12
 L 7.8933,-1026.88 L 8.29968,-1026.58 L 8.66586,-1026.24 L 8.98605,-1025.85 L 9.25522,-1025.43 L 9.4691,-1024.97
 L 9.62433,-1024.49 L 9.71844,-1024 L 9.75,-1023.5 L 9.75,-1004.5 L 9.71844,-1004 L 9.62433,-1003.51
 L 9.4691,-1003.03 L 9.25522,-1002.57 L 8.98605,-1002.15 L 8.66586,-1001.76 L 8.29968,-1001.42 L 7.8933,-1001.12
 L 7.45311,-1000.88 L 6.98605,-1000.7 L 6.49951,-1000.57 L 6.00116,-1000.51 z
M 7.1869,-960.089 L 7.79507,-960.245 L 8.37889,-960.476 L 8.92912,-960.778 L 9.43712,-961.147 L 9.89484,-961.577
 L 10.2951,-962.061 L 10.6315,-962.591 L 10.8989,-963.159 L 11.0929,-963.757 L 11.2106,-964.373 L 11.25,-965
 L 11.25,-985 L 11.2106,-985.627 L 11.0929,-986.243 L 10.8989,-986.841 L 10.6315,-987.409 L 10.2951,-987.939
 L 9.89484,-988.423 L 9.43712,-988.853 L 8.92912,-989.222 L 8.37889,-989.524 L 7.79507,-989.755 L 7.1869,-989.911
 L 6.56395,-989.99 L -6.56395,-989.99 L -7.1869,-989.911 L -7.79507,-989.755 L -8.37889,-989.524 L -8.92912,-989.222
 L -9.43712,-988.853 L -9.89484,-988.423 L -10.2951,-987.939 L -10.6315,-987.409 L -10.8989,-986.841 L -11.0929,-986.243
 L -11.2106,-985.627 L -11.25,-985 L -11.25,-965 L -11.2106,-964.373 L -11.0929,-963.757 L -10.8989,-963.159
 L -10.6315,-962.591 L -10.2951,-962.061 L -9.89484,-961.577 L -9.43712,-961.147 L -8.92912,-960.778 L -8.37889,-960.476
 L -7.79507,-960.245 L -7.1869,-960.089 L -6.56395,-960.01 L 6.56395,-960.01 z
M -6.00116,-961.508 L -6.49951,-961.571 L -6.98605,-961.696 L -7.45311,-961.881 L -7.8933,-962.123 L -8.29968,-962.418
 L -8.66586,-962.762 L -8.98605,-963.149 L -9.25522,-963.573 L -9.4691,-964.028 L -9.62433,-964.505 L -9.71844,-964.999
 L -9.75,-965.5 L -9.75,-984.5 L -9.71844,-985.001 L -9.62433,-985.495 L -9.4691,-985.972 L -9.25522,-986.427
 L -8.98605,-986.851 L -8.66586,-987.238 L -8.29968,-987.582 L -7.8933,-987.877 L -7.45311,-988.119 L -6.98605,-988.304
 L -6.49951,-988.429 L -6.00116,-988.492 L 6.00116,-988.492 L 6.49951,-988.429 L 6.98605,-988.304 L 7.45311,-988.119
 L 7.8933,-987.877 L 8.29968,-987.582 L 8.66586,-987.238 L 8.98605,-986.851 L 9.25522,-986.427 L 9.4691,-985.972
 L 9.62433,-985.495 L 9.71844,-985.001 L 9.75,-984.5 L 9.75,-965.5 L 9.71844,-964.999 L 9.62433,-964.505
 L 9.4691,-964.028 L 9.25522,-963.573 L 8.98605,-963.149 L 8.66586,-962.762 L 8.29968,-962.418 L 7.8933,-962.123
 L 7.45311,-961.881 L 6.98605,-961.696 L 6.49951,-961.571 L 6.00116,-961.508 z
M 7.1869,-921.089 L 7.79507,-921.245 L 8.37889,-921.476 L 8.92912,-921.778 L 9.43712,-922.147 L 9.89484,-922.577
 L 10.2951,-923.061 L 10.6315,-923.591 L 10.8989,-924.159 L 11.0929,-924.757 L 11.2106,-925.373 L 11.25,-926
 L 11.25,-946 L 11.2106,-946.627 L 11.0929,-947.243 L 10.8989,-947.841 L 10.6315,-948.409 L 10.2951,-948.939
 L 9.89484,-949.423 L 9.43712,-949.853 L 8.92912,-950.222 L 8.37889,-950.524 L 7.79507,-950.755 L 7.1869,-950.911
 L 6.56395,-950.99 L -6.56395,-950.99 L -7.1869,-950.911 L -7.79507,-950.755 L -8.37889,-950.524 L -8.92912,-950.222
 L -9.43712,-949.853 L -9.89484,-949.423 L -10.2951,-948.939 L -10.6315,-948.409 L -10.8989,-947.841 L -11.0929,-947.243
 L -11.2106,-946.627 L -11.25,-946 L -11.25,-926 L -11.2106,-925.373 L -11.0929,-924.757 L -10.8989,-924.159
 L -10.6315,-923.591 L -10.2951,-923.061 L -9.89484,-922.577 L -9.43712,-922.147 L -8.92912,-921.778 L -8.37889,-921.476
 L -7.79507,-921.245 L -7.1869,-921.089 L -6.56395,-921.01 L 6.56395,-921.01 z
M -6.00116,-922.508 L -6.49951,-922.571 L -6.98605,-922.696 L -7.45311,-922.881 L -7.8933,-923.123 L -8.29968,-923.418
 L -8.66586,-923.762 L -8.98605,-924.149 L -9.25522,-924.573 L -9.4691,-925.028 L -9.62433,-925.505 L -9.71844,-925.999
 L -9.75,-926.5 L -9.75,-945.5 L -9.71844,-946.001 L -9.62433,-946.495 L -9.4691,-946.972 L -9.25522,-947.427
 L -8.98605,-947.851 L -8.66586,-948.238 L -8.29968,-948.582 L -7.8933,-948.877 L -7.45311,-949.119 L -6.98605,-949.304
 L -6.49951,-949.429 L -6.00116,-949.492 L 6.00116,-949.492 L 6.49951,-949.429 L 6.98605,-949.304 L 7.45311,-949.119
 L 7.8933,-948.877 L 8.29968,-948.582 L 8.66586,-948.238 L 8.98605,-947.851 L 9.25522,-947.427 L 9.4691,-946.972
 L 9.62433,-946.495 L 9.71844,-946.001 L 9.75,-945.5 L 9.75,-926.5 L 9.71844,-925.999 L 9.62433,-925.505
 L 9.4691,-925.028 L 9.25522,-924.573 L 8.98605,-924.149 L 8.66586,-923.762 L 8.29968,-923.418 L 7.8933,-923.123
 L 7.45311,-922.881 L 6.98605,-922.696 L 6.49951,-922.571 L 6.00116,-922.508 z
M 7.1869,-882.089 L 7.79507,-882.245 L 8.37889,-882.476 L 8.92912,-882.778 L 9.43712,-883.147 L 9.89484,-883.577
 L 10.2951,-884.061 L 10.6315,-884.591 L 10.8989,-885.159 L 11.0929,-885.757 L 11.2106,-886.373 L 11.25,-887
 L 11.25,-907 L 11.2106,-907.627 L 11.0929,-908.243 L 10.8989,-908.841 L 10.6315,-909.409 L 10.2951,-909.939
 L 9.89484,-910.423 L 9.43712,-910.853 L 8.92912,-911.222 L 8.37889,-911.524 L 7.79507,-911.755 L 7.1869,-911.911
 L 6.56395,-911.99 L -6.56395,-911.99 L -7.1869,-911.911 L -7.79507,-911.755 L -8.37889,-911.524 L -8.92912,-911.222
 L -9.43712,-910.853 L -9.89484,-910.423 L -10.2951,-909.939 L -10.6315,-909.409 L -10.8989,-908.841 L -11.0929,-908.243
 L -11.2106,-907.627 L -11.25,-907 L -11.25,-887 L -11.2106,-886.373 L -11.0929,-885.757 L -10.8989,-885.159
 L -10.6315,-884.591 L -10.2951,-884.061 L -9.89484,-883.577 L -9.43712,-883.147 L -8.92912,-882.778 L -8.37889,-882.476
 L -7.79507,-882.245 L -7.1869,-882.089 L -6.56395,-882.01 L 6.56395,-882.01 z
M -6.00116,-883.508 L -6.49951,-883.571 L -6.98605,-883.696 L -7.45311,-883.881 L -7.8933,-884.123 L -8.29968,-884.418
 L -8.66586,-884.762 L -8.98605,-885.149 L -9.25522,-885.573 L -9.4691,-886.028 L -9.62433,-886.505 L -9.71844,-886.999
 L -9.75,-887.5 L -9.75,-906.5 L -9.71844,-907.001 L -9.62433,-907.495 L -9.4691,-907.972 L -9.25522,-908.427
 L -8.98605,-908.851 L -8.66586,-909.238 L -8.29968,-909.582 L -7.8933,-909.877 L -7.45311,-910.119 L -6.98605,-910.304
 L -6.49951,-910.429 L -6.00116,-910.492 L 6.00116,-910.492 L 6.49951,-910.429 L 6.98605,-910.304 L 7.45311,-910.119
 L 7.8933,-909.877 L 8.29968,-909.582 L 8.66586,-909.238 L 8.98605,-908.851 L 9.25522,-908.427 L 9.4691,-907.972
 L 9.62433,-907.495 L 9.71844,-907.001 L 9.75,-906.5 L 9.75,-887.5 L 9.71844,-886.999 L 9.62433,-886.505
 L 9.4691,-886.028 L 9.25522,-885.573 L 8.98605,-885.149 L 8.66586,-884.762 L 8.29968,-884.418 L 7.8933,-884.123
 L 7.45311,-883.881 L 6.98605,-883.696 L 6.49951,-883.571 L 6.00116,-883.508 z
M 7.1869,-843.089 L 7.79507,-843.245 L 8.37889,-843.476 L 8.92912,-843.778 L 9.43712,-844.147 L 9.89484,-844.577
 L 10.2951,-845.061 L 10.6315,-845.591 L 10.8989,-846.159 L 11.0929,-846.757 L 11.2106,-847.373 L 11.25,-848
 L 11.25,-868 L 11.2106,-868.627 L 11.0929,-869.243 L 10.8989,-869.841 L 10.6315,-870.409 L 10.2951,-870.939
 L 9.89484,-871.423 L 9.43712,-871.853 L 8.92912,-872.222 L 8.37889,-872.524 L 7.79507,-872.755 L 7.1869,-872.911
 L 6.56395,-872.99 L -6.56395,-872.99 L -7.1869,-872.911 L -7.79507,-872.755 L -8.37889,-872.524 L -8.92912,-872.222
 L -9.43712,-871.853 L -9.89484,-871.423 L -10.2951,-870.939 L -10.6315,-870.409 L -10.8989,-869.841 L -11.0929,-869.243
 L -11.2106,-868.627 L -11.25,-868 L -11.25,-848 L -11.2106,-847.373 L -11.0929,-846.757 L -10.8989,-846.159
 L -10.6315,-845.591 L -10.2951,-845.061 L -9.89484,-844.577 L -9.43712,-844.147 L -8.92912,-843.778 L -8.37889,-843.476
 L -7.79507,-843.245 L -7.1869,-843.089 L -6.56395,-843.01 L 6.56395,-843.01 z
M -6.00116,-844.508 L -6.49951,-844.571 L -6.98605,-844.696 L -7.45311,-844.881 L -7.8933,-845.123 L -8.29968,-845.418
 L -8.66586,-845.762 L -8.98605,-846.149 L -9.25522,-846.573 L -9.4691,-847.028 L -9.62433,-847.505 L -9.71844,-847.999
 L -9.75,-848.5 L -9.75,-867.5 L -9.71844,-868.001 L -9.62433,-868.495 L -9.4691,-868.972 L -9.25522,-869.427
 L -8.98605,-869.851 L -8.66586,-870.238 L -8.29968,-870.582 L -7.8933,-870.877 L -7.45311,-871.119 L -6.98605,-871.304
 L -6.49951,-871.429 L -6.00116,-871.492 L 6.00116,-871.492 L 6.49951,-871.429 L 6.98605,-871.304 L 7.45311,-871.119
 L 7.8933,-870.877 L 8.29968,-870.582 L 8.66586,-870.238 L 8.98605,-869.851 L 9.25522,-869.427 L 9.4691,-868.972
 L 9.62433,-868.495 L 9.71844,-868.001 L 9.75,-867.5 L 9.75,-848.5 L 9.71844,-847.999 L 9.62433,-847.505
 L 9.4691,-847.028 L 9.25522,-846.573 L 8.98605,-846.149 L 8.66586,-845.762 L 8.29968,-845.418 L 7.8933,-845.123
 L 7.45311,-844.881 L 6.98605,-844.696 L 6.49951,-844.571 L 6.00116,-844.508 z
M 7.1869,-804.089 L 7.79507,-804.245 L 8.37889,-804.476 L 8.92912,-804.778 L 9.43712,-805.147 L 9.89484,-805.577
 L 10.2951,-806.061 L 10.6315,-806.591 L 10.8989,-807.159 L 11.0929,-807.757 L 11.2106,-808.373 L 11.25,-809
 L 11.25,-829 L 11.2106,-829.627 L 11.0929,-830.243 L 10.8989,-830.841 L 10.6315,-831.409 L 10.2951,-831.939
 L 9.89484,-832.423 L 9.43712,-832.853 L 8.92912,-833.222 L 8.37889,-833.524 L 7.79507,-833.755 L 7.1869,-833.911
 L 6.56395,-833.99 L -6.56395,-833.99 L -7.1869,-833.911 L -7.79507,-833.755 L -8.37889,-833.524 L -8.92912,-833.222
 L -9.43712,-832.853 L -9.89484,-832.423 L -10.2951,-831.939 L -10.6315,-831.409 L -10.8989,-830.841 L -11.0929,-830.243
 L -11.2106,-829.627 L -11.25,-829 L -11.25,-809 L -11.2106,-808.373 L -11.0929,-807.757 L -10.8989,-807.159
 L -10.6315,-806.591 L -10.2951,-806.061 L -9.89484,-805.577 L -9.43712,-805.147 L -8.92912,-804.778 L -8.37889,-804.476
 L -7.79507,-804.245 L -7.1869,-804.089 L -6.56395,-804.01 L 6.56395,-804.01 z
M -6.00116,-805.508 L -6.49951,-805.571 L -6.98605,-805.696 L -7.45311,-805.881 L -7.8933,-806.123 L -8.29968,-806.418
 L -8.66586,-806.762 L -8.98605,-807.149 L -9.25522,-807.573 L -9.4691,-808.028 L -9.62433,-808.505 L -9.71844,-808.999
 L -9.75,-809.5 L -9.75,-828.5 L -9.71844,-829.001 L -9.62433,-829.495 L -9.4691,-829.972 L -9.25522,-830.427
 L -8.98605,-830.851 L -8.66586,-831.238 L -8.29968,-831.582 L -7.8933,-831.877 L -7.45311,-832.119 L -6.98605,-832.304
 L -6.49951,-832.429 L -6.00116,-832.492 L 6.00116,-832.492 L 6.49951,-832.429 L 6.98605,-832.304 L 7.45311,-832.119
 L 7.8933,-831.877 L 8.29968,-831.582 L 8.66586,-831.238 L 8.98605,-830.851 L 9.25522,-830.427 L 9.4691,-829.972
 L 9.62433,-829.495 L 9.71844,-829.001 L 9.75,-828.5 L 9.75,-809.5 L 9.71844,-808.999 L 9.62433,-808.505
 L 9.4691,-808.028 L 9.25522,-807.573 L 8.98605,-807.149 L 8.66586,-806.762 L 8.29968,-806.418 L 7.8933,-806.123
 L 7.45311,-805.881 L 6.98605,-805.696 L 6.49951,-805.571 L 6.00116,-805.508 z
M 7.1869,-765.089 L 7.79507,-765.245 L 8.37889,-765.476 L 8.92912,-765.778 L 9.43712,-766.147 L 9.89484,-766.577
 L 10.2951,-767.061 L 10.6315,-767.591 L 10.8989,-768.159 L 11.0929,-768.757 L 11.2106,-769.373 L 11.25,-770
 L 11.25,-790 L 11.2106,-790.627 L 11.0929,-791.243 L 10.8989,-791.841 L 10.6315,-792.409 L 10.2951,-792.939
 L 9.89484,-793.423 L 9.43712,-793.853 L 8.92912,-794.222 L 8.37889,-794.524 L 7.79507,-794.755 L 7.1869,-794.911
 L 6.56395,-794.99 L -6.56395,-794.99 L -7.1869,-794.911 L -7.79507,-794.755 L -8.37889,-794.524 L -8.92912,-794.222
 L -9.43712,-793.853 L -9.89484,-793.423 L -10.2951,-792.939 L -10.6315,-792.409 L -10.8989,-791.841 L -11.0929,-791.243
 L -11.2106,-790.627 L -11.25,-790 L -11.25,-770 L -11.2106,-769.373 L -11.0929,-768.757 L -10.8989,-768.159
 L -10.6315,-767.591 L -10.2951,-767.061 L -9.89484,-766.577 L -9.43712,-766.147 L -8.92912,-765.778 L -8.37889,-765.476
 L -7.79507,-765.245 L -7.1869,-765.089 L -6.56395,-765.01 L 6.56395,-765.01 z
M -6.00116,-766.508 L -6.49951,-766.571 L -6.98605,-766.696 L -7.45311,-766.881 L -7.8933,-767.123 L -8.29968,-767.418
 L -8.66586,-767.762 L -8.98605,-768.149 L -9.25522,-768.573 L -9.4691,-769.028 L -9.62433,-769.505 L -9.71844,-769.999
 L -9.75,-770.5 L -9.75,-789.5 L -9.71844,-790.001 L -9.62433,-790.495 L -9.4691,-790.972 L -9.25522,-791.427
 L -8.98605,-791.851 L -8.66586,-792.238 L -8.29968,-792.582 L -7.8933,-792.877 L -7.45311,-793.119 L -6.98605,-793.304
 L -6.49951,-793.429 L -6.00116,-793.492 L 6.00116,-793.492 L 6.49951,-793.429 L 6.98605,-793.304 L 7.45311,-793.119
 L 7.8933,-792.877 L 8.29968,-792.582 L 8.66586,-792.238 L 8.98605,-791.851 L 9.25522,-791.427 L 9.4691,-790.972
 L 9.62433,-790.495 L 9.71844,-790.001 L 9.75,-789.5 L 9.75,-770.5 L 9.71844,-769.999 L 9.62433,-769.505
 L 9.4691,-769.028 L 9.25522,-768.573 L 8.98605,-768.149 L 8.66586,-767.762 L 8.29968,-767.418 L 7.8933,-767.123
 L 7.45311,-766.881 L 6.98605,-766.696 L 6.49951,-766.571 L 6.00116,-766.508 z
M 7.1869,-726.089 L 7.79507,-726.245 L 8.37889,-726.476 L 8.92912,-726.778 L 9.43712,-727.147 L 9.89484,-727.577
 L 10.2951,-728.061 L 10.6315,-728.591 L 10.8989,-729.159 L 11.0929,-729.757 L 11.2106,-730.373 L 11.25,-731
 L 11.25,-751 L 11.2106,-751.627 L 11.0929,-752.243 L 10.8989,-752.841 L 10.6315,-753.409 L 10.2951,-753.939
 L 9.89484,-754.423 L 9.43712,-754.853 L 8.92912,-755.222 L 8.37889,-755.524 L 7.79507,-755.755 L 7.1869,-755.911
 L 6.56395,-755.99 L -6.56395,-755.99 L -7.1869,-755.911 L -7.79507,-755.755 L -8.37889,-755.524 L -8.92912,-755.222
 L -9.43712,-754.853 L -9.89484,-754.423 L -10.2951,-753.939 L -10.6315,-753.409 L -10.8989,-752.841 L -11.0929,-752.243
 L -11.2106,-751.627 L -11.25,-751 L -11.25,-731 L -11.2106,-730.373 L -11.0929,-729.757 L -10.8989,-729.159
 L -10.6315,-728.591 L -10.2951,-728.061 L -9.89484,-727.577 L -9.43712,-727.147 L -8.92912,-726.778 L -8.37889,-726.476
 L -7.79507,-726.245 L -7.1869,-726.089 L -6.56395,-726.01 L 6.56395,-726.01 z
M -6.00116,-727.508 L -6.49951,-727.571 L -6.98605,-727.696 L -7.45311,-727.881 L -7.8933,-728.123 L -8.29968,-728.418
 L -8.66586,-728.762 L -8.98605,-729.149 L -9.25522,-729.573 L -9.4691,-730.028 L -9.62433,-730.505 L -9.71844,-730.999
 L -9.75,-731.5 L -9.75,-750.5 L -9.71844,-751.001 L -9.62433,-751.495 L -9.4691,-751.972 L -9.25522,-752.427
 L -8.98605,-752.851 L -8.66586,-753.238 L -8.29968,-753.582 L -7.8933,-753.877 L -7.45311,-754.119 L -6.98605,-754.304
 L -6.49951,-754.429 L -6.00116,-754.492 L 6.00116,-754.492 L 6.49951,-754.429 L 6.98605,-754.304 L 7.45311,-754.119
 L 7.8933,-753.877 L 8.29968,-753.582 L 8.66586,-753.238 L 8.98605,-752.851 L 9.25522,-752.427 L 9.4691,-751.972
 L 9.62433,-751.495 L 9.71844,-751.001 L 9.75,-750.5 L 9.75,-731.5 L 9.71844,-730.999 L 9.62433,-730.505
 L 9.4691,-730.028 L 9.25522,-729.573 L 8.98605,-729.149 L 8.66586,-728.762 L 8.29968,-728.418 L 7.8933,-728.123
 L 7.45311,-727.881 L 6.98605,-727.696 L 6.49951,-727.571 L 6.00116,-727.508 z
M 7.1869,-687.089 L 7.79507,-687.245 L 8.37889,-687.476 L 8.92912,-687.778 L 9.43712,-688.147 L 9.89484,-688.577
 L 10.2951,-689.061 L 10.6315,-689.591 L 10.8989,-690.159 L 11.0929,-690.757 L 11.2106,-691.373 L 11.25,-692
 L 11.25,-712 L 11.2106,-712.627 L 11.0929,-713.243 L 10.8989,-713.841 L 10.6315,-714.409 L 10.2951,-714.939
 L 9.89484,-715.423 L 9.43712,-715.853 L 8.92912,-716.222 L 8.37889,-716.524 L 7.79507,-716.755 L 7.1869,-716.911
 L 6.56395,-716.99 L -6.56395,-716.99 L -7.1869,-716.911 L -7.79507,-716.755 L -8.37889,-716.524 L -8.92912,-716.222
 L -9.43712,-715.853 L -9.89484,-715.423 L -10.2951,-714.939 L -10.6315,-714.409 L -10.8989,-713.841 L -11.0929,-713.243
 L -11.2106,-712.627 L -11.25,-712 L -11.25,-692 L -11.2106,-691.373 L -11.0929,-690.757 L -10.8989,-690.159
 L -10.6315,-689.591 L -10.2951,-689.061 L -9.89484,-688.577 L -9.43712,-688.147 L -8.92912,-687.778 L -8.37889,-687.476
 L -7.79507,-687.245 L -7.1869,-687.089 L -6.56395,-687.01 L 6.56395,-687.01 z
M -6.00116,-688.508 L -6.49951,-688.571 L -6.98605,-688.696 L -7.45311,-688.881 L -7.8933,-689.123 L -8.29968,-689.418
 L -8.66586,-689.762 L -8.98605,-690.149 L -9.25522,-690.573 L -9.4691,-691.028 L -9.62433,-691.505 L -9.71844,-691.999
 L -9.75,-692.5 L -9.75,-711.5 L -9.71844,-712.001 L -9.62433,-712.495 L -9.4691,-712.972 L -9.25522,-713.427
 L -8.98605,-713.851 L -8.66586,-714.238 L -8.29968,-714.582 L -7.8933,-714.877 L -7.45311,-715.119 L -6.98605,-715.304
 L -6.49951,-715.429 L -6.00116,-715.492 L 6.00116,-715.492 L 6.49951,-715.429 L 6.98605,-715.304 L 7.45311,-715.119
 L 7.8933,-714.877 L 8.29968,-714.582 L 8.66586,-714.238 L 8.98605,-713.851 L 9.25522,-713.427 L 9.4691,-712.972
 L 9.62433,-712.495 L 9.71844,-712.001 L 9.75,-711.5 L 9.75,-692.5 L 9.71844,-691.999 L 9.62433,-691.505
 L 9.4691,-691.028 L 9.25522,-690.573 L 8.98605,-690.149 L 8.66586,-689.762 L 8.29968,-689.418 L 7.8933,-689.123
 L 7.45311,-688.881 L 6.98605,-688.696 L 6.49951,-688.571 L 6.00116,-688.508 z
M 7.1869,-648.089 L 7.79507,-648.245 L 8.37889,-648.476 L 8.92912,-648.778 L 9.43712,-649.147 L 9.89484,-649.577
 L 10.2951,-650.061 L 10.6315,-650.591 L 10.8989,-651.159 L 11.0929,-651.757 L 11.2106,-652.373 L 11.25,-653
 L 11.25,-673 L 11.2106,-673.627 L 11.0929,-674.243 L 10.8989,-674.841 L 10.6315,-675.409 L 10.2951,-675.939
 L 9.89484,-676.423 L 9.43712,-676.853 L 8.92912,-677.222 L 8.37889,-677.524 L 7.79507,-677.755 L 7.1869,-677.911
 L 6.56395,-677.99 L -6.56395,-677.99 L -7.1869,-677.911 L -7.79507,-677.755 L -8.37889,-677.524 L -8.92912,-677.222
 L -9.43712,-676.853 L -9.89484,-676.423 L -10.2951,-675.939 L -10.6315,-675.409 L -10.8989,-674.841 L -11.0929,-674.243
 L -11.2106,-673.627 L -11.25,-673 L -11.25,-653 L -11.2106,-652.373 L -11.0929,-651.757 L -10.8989,-651.159
 L -10.6315,-650.591 L -10.2951,-650.061 L -9.89484,-649.577 L -9.43712,-649.147 L -8.92912,-648.778 L -8.37889,-648.476
 L -7.79507,-648.245 L -7.1869,-648.089 L -6.56395,-648.01 L 6.56395,-648.01 z
M -6.00116,-649.508 L -6.49951,-649.571 L -6.98605,-649.696 L -7.45311,-649.881 L -7.8933,-650.123 L -8.29968,-650.418
 L -8.66586,-650.762 L -8.98605,-651.149 L -9.25522,-651.573 L -9.4691,-652.028 L -9.62433,-652.505 L -9.71844,-652.999
 L -9.75,-653.5 L -9.75,-672.5 L -9.71844,-673.001 L -9.62433,-673.495 L -9.4691,-673.972 L -9.25522,-674.427
 L -8.98605,-674.851 L -8.66586,-675.238 L -8.29968,-675.582 L -7.8933,-675.877 L -7.45311,-676.119 L -6.98605,-676.304
 L -6.49951,-676.429 L -6.00116,-676.492 L 6.00116,-676.492 L 6.49951,-676.429 L 6.98605,-676.304 L 7.45311,-676.119
 L 7.8933,-675.877 L 8.29968,-675.582 L 8.66586,-675.238 L 8.98605,-674.851 L 9.25522,-674.427 L 9.4691,-673.972
 L 9.62433,-673.495 L 9.71844,-673.001 L 9.75,-672.5 L 9.75,-653.5 L 9.71844,-652.999 L 9.62433,-652.505
 L 9.4691,-652.028 L 9.25522,-651.573 L 8.98605,-651.149 L 8.66586,-650.762 L 8.29968,-650.418 L 7.8933,-650.123
 L 7.45311,-649.881 L 6.98605,-649.696 L 6.49951,-649.571 L 6.00116,-649.508 z
M 7.1869,-609.089 L 7.79507,-609.245 L 8.37889,-609.476 L 8.92912,-609.778 L 9.43712,-610.147 L 9.89484,-610.577
 L 10.2951,-611.061 L 10.6315,-611.591 L 10.8989,-612.159 L 11.0929,-612.757 L 11.2106,-613.373 L 11.25,-614
 L 11.25,-634 L 11.2106,-634.627 L 11.0929,-635.243 L 10.8989,-635.841 L 10.6315,-636.409 L 10.2951,-636.939
 L 9.89484,-637.423 L 9.43712,-637.853 L 8.92912,-638.222 L 8.37889,-638.524 L 7.79507,-638.755 L 7.1869,-638.911
 L 6.56395,-638.99 L -6.56395,-638.99 L -7.1869,-638.911 L -7.79507,-638.755 L -8.37889,-638.524 L -8.92912,-638.222
 L -9.43712,-637.853 L -9.89484,-637.423 L -10.2951,-636.939 L -10.6315,-636.409 L -10.8989,-635.841 L -11.0929,-635.243
 L -11.2106,-634.627 L -11.25,-634 L -11.25,-614 L -11.2106,-613.373 L -11.0929,-612.757 L -10.8989,-612.159
 L -10.6315,-611.591 L -10.2951,-611.061 L -9.89484,-610.577 L -9.43712,-610.147 L -8.92912,-609.778 L -8.37889,-609.476
 L -7.79507,-609.245 L -7.1869,-609.089 L -6.56395,-609.01 L 6.56395,-609.01 z
M -5.94545,-611.393 L -6.3333,-611.442 L -6.71194,-611.539 L -7.07541,-611.683 L -7.41798,-611.872 L -7.73424,-612.101
 L -8.01921,-612.369 L -8.2684,-612.67 L -8.47786,-613 L -8.64432,-613.354 L -8.76512,-613.726 L -8.83836,-614.11
 L -8.86292,-614.5 L -8.86292,-633.5 L -8.83836,-633.89 L -8.76512,-634.274 L -8.64432,-634.646 L -8.47786,-635
 L -8.2684,-635.33 L -8.01921,-635.631 L -7.73424,-635.899 L -7.41798,-636.128 L -7.07541,-636.317 L -6.71194,-636.461
 L -6.3333,-636.558 L -5.94545,-636.607 L 5.94545,-636.607 L 6.3333,-636.558 L 6.71194,-636.461 L 7.07541,-636.317
 L 7.41798,-636.128 L 7.73424,-635.899 L 8.01921,-635.631 L 8.2684,-635.33 L 8.47786,-635 L 8.64432,-634.646
 L 8.76512,-634.274 L 8.83836,-633.89 L 8.86292,-633.5 L 8.86292,-614.5 L 8.83836,-614.11 L 8.76512,-613.726
 L 8.64432,-613.354 L 8.47786,-613 L 8.2684,-612.67 L 8.01921,-612.369 L 7.73424,-612.101 L 7.41798,-611.872
 L 7.07541,-611.683 L 6.71194,-611.539 L 6.3333,-611.442 L 5.94545,-611.393 z
M 7.1869,-570.089 L 7.79507,-570.245 L 8.37889,-570.476 L 8.92912,-570.778 L 9.43712,-571.147 L 9.89484,-571.577
 L 10.2951,-572.061 L 10.6315,-572.591 L 10.8989,-573.159 L 11.0929,-573.757 L 11.2106,-574.373 L 11.25,-575
 L 11.25,-595 L 11.2106,-595.627 L 11.0929,-596.243 L 10.8989,-596.841 L 10.6315,-597.409 L 10.2951,-597.939
 L 9.89484,-598.423 L 9.43712,-598.853 L 8.92912,-599.222 L 8.37889,-599.524 L 7.79507,-599.755 L 7.1869,-599.911
 L 6.56395,-599.99 L -6.56395,-599.99 L -7.1869,-599.911 L -7.79507,-599.755 L -8.37889,-599.524 L -8.92912,-599.222
 L -9.43712,-598.853 L -9.89484,-598.423 L -10.2951,-597.939 L -10.6315,-597.409 L -10.8989,-596.841 L -11.0929,-596.243
 L -11.2106,-595.627 L -11.25,-595 L -11.25,-575 L -11.2106,-574.373 L -11.0929,-573.757 L -10.8989,-573.159
 L -10.6315,-572.591 L -10.2951,-572.061 L -9.89484,-571.577 L -9.43712,-571.147 L -8.92912,-570.778 L -8.37889,-570.476
 L -7.79507,-570.245 L -7.1869,-570.089 L -6.56395,-570.01 L 6.56395,-570.01 z
M -3.88406,-590.369 L -4.1501,-590.403 L -4.40984,-590.469 L -4.65915,-590.568 L -4.89413,-590.697 L -5.11108,-590.855
 L -5.30655,-591.038 L -5.47748,-591.245 L -5.62117,-591.471 L -5.73534,-591.714 L -5.81821,-591.969 L -5.86845,-592.232
 L -5.88528,-592.5 L -5.86845,-592.768 L -5.81821,-593.031 L -5.73534,-593.286 L -5.62117,-593.529 L -5.47748,-593.755
 L -5.30655,-593.962 L -5.11108,-594.145 L -4.89413,-594.303 L -4.65915,-594.432 L -4.40984,-594.531 L -4.1501,-594.597
 L -3.88406,-594.631 L -3.61592,-594.631 L -3.34988,-594.597 L -3.09015,-594.531 L -2.84084,-594.432 L -2.60585,-594.303
 L -2.3889,-594.145 L -2.19344,-593.962 L -2.02251,-593.755 L -1.87881,-593.529 L -1.76465,-593.286 L -1.68178,-593.031
 L -1.63153,-592.768 L -1.6147,-592.5 L -1.63153,-592.232 L -1.68178,-591.969 L -1.76465,-591.714 L -1.87881,-591.471
 L -2.02251,-591.245 L -2.19344,-591.038 L -2.3889,-590.855 L -2.60585,-590.697 L -2.84084,-590.568 L -3.09015,-590.469
 L -3.34988,-590.403 L -3.61592,-590.369 z
M 3.61592,-590.369 L 3.34988,-590.403 L 3.09015,-590.469 L 2.84084,-590.568 L 2.60585,-590.697 L 2.3889,-590.855
 L 2.19344,-591.038 L 2.02251,-591.245 L 1.87881,-591.471 L 1.76465,-591.714 L 1.68178,-591.969 L 1.63153,-592.232
 L 1.6147,-592.5 L 1.63153,-592.768 L 1.68178,-593.031 L 1.76465,-593.286 L 1.87881,-593.529 L 2.02251,-593.755
 L 2.19344,-593.962 L 2.3889,-594.145 L 2.60585,-594.303 L 2.84084,-594.432 L 3.09015,-594.531 L 3.34988,-594.597
 L 3.61592,-594.631 L 3.88406,-594.631 L 4.1501,-594.597 L 4.40984,-594.531 L 4.65915,-594.432 L 4.89413,-594.303
 L 5.11108,-594.145 L 5.30655,-593.962 L 5.47748,-593.755 L 5.62117,-593.529 L 5.73534,-593.286 L 5.81821,-593.031
 L 5.86845,-592.768 L 5.88528,-592.5 L 5.86845,-592.232 L 5.81821,-591.969 L 5.73534,-591.714 L 5.62117,-591.471
 L 5.47748,-591.245 L 5.30655,-591.038 L 5.11108,-590.855 L 4.89413,-590.697 L 4.65915,-590.568 L 4.40984,-590.469
 L 4.1501,-590.403 L 3.88406,-590.369 z
M -3.88406,-575.369 L -4.1501,-575.403 L -4.40984,-575.469 L -4.65915,-575.568 L -4.89413,-575.697 L -5.11108,-575.855
 L -5.30655,-576.038 L -5.47748,-576.245 L -5.62117,-576.471 L -5.73534,-576.714 L -5.81821,-576.969 L -5.86845,-577.232
 L -5.88528,-577.5 L -5.86845,-577.768 L -5.81821,-578.031 L -5.73534,-578.286 L -5.62117,-578.529 L -5.47748,-578.755
 L -5.30655,-578.962 L -5.11108,-579.145 L -4.89413,-579.303 L -4.65915,-579.432 L -4.40984,-579.531 L -4.1501,-579.597
 L -3.88406,-579.631 L -3.61592,-579.631 L -3.34988,-579.597 L -3.09015,-579.531 L -2.84084,-579.432 L -2.60585,-579.303
 L -2.3889,-579.145 L -2.19344,-578.962 L -2.02251,-578.755 L -1.87881,-578.529 L -1.76465,-578.286 L -1.68178,-578.031
 L -1.63153,-577.768 L -1.6147,-577.5 L -1.63153,-577.232 L -1.68178,-576.969 L -1.76465,-576.714 L -1.87881,-576.471
 L -2.02251,-576.245 L -2.19344,-576.038 L -2.3889,-575.855 L -2.60585,-575.697 L -2.84084,-575.568 L -3.09015,-575.469
 L -3.34988,-575.403 L -3.61592,-575.369 z
M 3.61592,-575.369 L 3.34988,-575.403 L 3.09015,-575.469 L 2.84084,-575.568 L 2.60585,-575.697 L 2.3889,-575.855
 L 2.19344,-576.038 L 2.02251,-576.245 L 1.87881,-576.471 L 1.76465,-576.714 L 1.68178,-576.969 L 1.63153,-577.232
 L 1.6147,-577.5 L 1.63153,-577.768 L 1.68178,-578.031 L 1.76465,-578.286 L 1.87881,-578.529 L 2.02251,-578.755
 L 2.19344,-578.962 L 2.3889,-579.145 L 2.60585,-579.303 L 2.84084,-579.432 L 3.09015,-579.531 L 3.34988,-579.597
 L 3.61592,-579.631 L 3.88406,-579.631 L 4.1501,-579.597 L 4.40984,-579.531 L 4.65915,-579.432 L 4.89413,-579.303
 L 5.11108,-579.145 L 5.30655,-578.962 L 5.47748,-578.755 L 5.62117,-578.529 L 5.73534,-578.286 L 5.81821,-578.031
 L 5.86845,-577.768 L 5.88528,-577.5 L 5.86845,-577.232 L 5.81821,-576.969 L 5.73534,-576.714 L 5.62117,-576.471
 L 5.47748,-576.245 L 5.30655,-576.038 L 5.11108,-575.855 L 4.89413,-575.697 L 4.65915,-575.568 L 4.40984,-575.469
 L 4.1501,-575.403 L 3.88406,-575.369 z
" stroke="black" fill="lightgray" stroke-width="0.5"/>
</svg>
