<?xml version="1.0" standalone="no"?>
<!DOCTYPE svg PUBLIC "-//W3C//DTD SVG 1.1//EN" "http://www.w3.org/Graphics/SVG/1.1/DTD/svg11.dtd">
<svg width="22mm" height="22mm" viewBox="-11 -121 22 22" xmlns="http://www.w3.org/2000/svg" version="1.1">
<title>OpenSCAD Model</title>
<path d="
M 2.01434,-99.4404 L 3.32193,-99.7762 L 4.57712,-100.273 L 5.76013,-100.923 L 6.85229,-101.717 L 7.83641,-102.641
 L 8.69693,-103.681 L 9.42029,-104.821 L 9.99509,-106.043 L 10.4123,-107.327 L 10.6652,-108.653 L 10.75,-110
 L 10.6652,-111.347 L 10.4123,-112.673 L 9.99509,-113.957 L 9.42029,-115.179 L 8.69693,-116.319 L 7.83641,-117.359
 L 6.85229,-118.283 L 5.76013,-119.077 L 4.57712,-119.727 L 3.32193,-120.224 L 2.01434,-120.56 L 0.674988,-120.729
 L -0.674988,-120.729 L -2.01434,-120.56 L -3.32193,-120.224 L -4.57712,-119.727 L -5.76013,-119.077 L -6.85229,-118.283
 L -7.83641,-117.359 L -8.69693,-116.319 L -9.42029,-115.179 L -9.99509,-113.957 L -10.4123,-112.673 L -10.6652,-111.347
 L -10.75,-110 L -10.6652,-108.653 L -10.4123,-107.327 L -9.99509,-106.043 L -9.42029,-104.821 L -8.69693,-103.681
 L -7.83641,-102.641 L -6.85229,-101.717 L -5.76013,-100.923 L -4.57712,-100.273 L -3.32193,-99.7762 L -2.01434,-99.4404
 L -0.674988,-99.2712 L 0.674988,-99.2712 z
M -0.18837,-107.006 L -0.562134,-107.053 L -0.927048,-107.147 L -1.27733,-107.286 L -1.60747,-107.467 L -1.91226,-107.688
 L -2.1869,-107.946 L -2.42705,-108.237 L -2.62891,-108.555 L -2.78932,-108.896 L -2.90575,-109.254 L -2.97633,-109.624
 L -3,-110 L -2.97633,-110.376 L -2.90575,-110.746 L -2.78932,-111.104 L -2.62891,-111.445 L -2.42705,-111.763
 L -2.1869,-112.054 L -1.91226,-112.312 L -1.60747,-112.533 L -1.27733,-112.714 L -0.927048,-112.853 L -0.562134,-112.947
 L -0.18837,-112.994 L 0.18837,-112.994 L 0.562134,-112.947 L 0.927048,-112.853 L 1.27733,-112.714 L 1.60747,-112.533
 L 1.91226,-112.312 L 2.1869,-112.054 L 2.42705,-111.763 L 2.62891,-111.445 L 2.78932,-111.104 L 2.90575,-110.746
 L 2.97633,-110.376 L 3,-110 L 2.97633,-109.624 L 2.90575,-109.254 L 2.78932,-108.896 L 2.62891,-108.555
 L 2.42705,-108.237 L 2.1869,-107.946 L 1.91226,-107.688 L 1.60747,-107.467 L 1.27733,-107.286 L 0.927048,-107.147
 L 0.562134,-107.053 L 0.18837,-107.006 z
" stroke="black" fill="lightgray" stroke-width="0.5"/>
</svg>
