  0
SECTION
  2
BLOCKS
  0
ENDSEC
  0
SECTION
  2
ENTITIES
  0
LINE
  8
0
 10
1.92584
 20
99.9043
 11
3.17598
 21
100.225
  0
LINE
  8
0
 10
3.17598
 20
100.225
 11
4.37602
 21
100.7
  0
LINE
  8
0
 10
4.37602
 20
100.7
 11
5.50706
 21
101.322
  0
LINE
  8
0
 10
5.50706
 20
101.322
 11
6.55125
 21
102.081
  0
LINE
  8
0
 10
6.55125
 20
102.081
 11
7.49213
 21
102.964
  0
LINE
  8
0
 10
7.49213
 20
102.964
 11
8.31483
 21
103.959
  0
LINE
  8
0
 10
8.31483
 20
103.959
 11
9.00642
 21
105.049
  0
LINE
  8
0
 10
9.00642
 20
105.049
 11
9.55597
 21
106.217
  0
LINE
  8
0
 10
9.55597
 20
106.217
 11
9.95482
 21
107.444
  0
LINE
  8
0
 10
9.95482
 20
107.444
 11
10.1967
 21
108.712
  0
LINE
  8
0
 10
10.1967
 20
108.712
 11
10.2777
 21
110
  0
LINE
  8
0
 10
10.2777
 20
110
 11
10.1967
 21
111.288
  0
LINE
  8
0
 10
10.1967
 20
111.288
 11
9.95482
 21
112.556
  0
LINE
  8
0
 10
9.95482
 20
112.556
 11
9.55597
 21
113.783
  0
LINE
  8
0
 10
9.55597
 20
113.783
 11
9.00642
 21
114.951
  0
LINE
  8
0
 10
9.00642
 20
114.951
 11
8.31483
 21
116.041
  0
LINE
  8
0
 10
8.31483
 20
116.041
 11
7.49213
 21
117.036
  0
LINE
  8
0
 10
7.49213
 20
117.036
 11
6.55125
 21
117.919
  0
LINE
  8
0
 10
6.55125
 20
117.919
 11
5.50706
 21
118.678
  0
LINE
  8
0
 10
5.50706
 20
118.678
 11
4.37602
 21
119.3
  0
LINE
  8
0
 10
4.37602
 20
119.3
 11
3.17598
 21
119.775
  0
LINE
  8
0
 10
3.17598
 20
119.775
 11
1.92584
 21
120.096
  0
LINE
  8
0
 10
1.92584
 20
120.096
 11
0.64534
 21
120.257
  0
LINE
  8
0
 10
0.64534
 20
120.257
 11
-0.64534
 21
120.257
  0
LINE
  8
0
 10
-0.64534
 20
120.257
 11
-1.92584
 21
120.096
  0
LINE
  8
0
 10
-1.92584
 20
120.096
 11
-3.17598
 21
119.775
  0
LINE
  8
0
 10
-3.17598
 20
119.775
 11
-4.37602
 21
119.3
  0
LINE
  8
0
 10
-4.37602
 20
119.3
 11
-5.50706
 21
118.678
  0
LINE
  8
0
 10
-5.50706
 20
118.678
 11
-6.55125
 21
117.919
  0
LINE
  8
0
 10
-6.55125
 20
117.919
 11
-7.49213
 21
117.036
  0
LINE
  8
0
 10
-7.49213
 20
117.036
 11
-8.31483
 21
116.041
  0
LINE
  8
0
 10
-8.31483
 20
116.041
 11
-9.00642
 21
114.951
  0
LINE
  8
0
 10
-9.00642
 20
114.951
 11
-9.55597
 21
113.783
  0
LINE
  8
0
 10
-9.55597
 20
113.783
 11
-9.95482
 21
112.556
  0
LINE
  8
0
 10
-9.95482
 20
112.556
 11
-10.1967
 21
111.288
  0
LINE
  8
0
 10
-10.1967
 20
111.288
 11
-10.2777
 21
110
  0
LINE
  8
0
 10
-10.2777
 20
110
 11
-10.1967
 21
108.712
  0
LINE
  8
0
 10
-10.1967
 20
108.712
 11
-9.95482
 21
107.444
  0
LINE
  8
0
 10
-9.95482
 20
107.444
 11
-9.55597
 21
106.217
  0
LINE
  8
0
 10
-9.55597
 20
106.217
 11
-9.00642
 21
105.049
  0
LINE
  8
0
 10
-9.00642
 20
105.049
 11
-8.31483
 21
103.959
  0
LINE
  8
0
 10
-8.31483
 20
103.959
 11
-7.49213
 21
102.964
  0
LINE
  8
0
 10
-7.49213
 20
102.964
 11
-6.55125
 21
102.081
  0
LINE
  8
0
 10
-6.55125
 20
102.081
 11
-5.50706
 21
101.322
  0
LINE
  8
0
 10
-5.50706
 20
101.322
 11
-4.37602
 21
100.7
  0
LINE
  8
0
 10
-4.37602
 20
100.7
 11
-3.17598
 21
100.225
  0
LINE
  8
0
 10
-3.17598
 20
100.225
 11
-1.92584
 21
99.9043
  0
LINE
  8
0
 10
-1.92584
 20
99.9043
 11
-0.64534
 21
99.7426
  0
LINE
  8
0
 10
-0.64534
 20
99.7426
 11
0.64534
 21
99.7426
  0
LINE
  8
0
 10
0.64534
 20
99.7426
 11
1.92584
 21
99.9043
  0
LINE
  8
0
 10
-0.533707
 20
101.517
 11
-1.59273
 21
101.651
  0
LINE
  8
0
 10
-1.59273
 20
101.651
 11
-2.62663
 21
101.916
  0
LINE
  8
0
 10
-2.62663
 20
101.916
 11
-3.61911
 21
102.309
  0
LINE
  8
0
 10
-3.61911
 20
102.309
 11
-4.55452
 21
102.823
  0
LINE
  8
0
 10
-4.55452
 20
102.823
 11
-5.41809
 21
103.451
  0
LINE
  8
0
 10
-5.41809
 20
103.451
 11
-6.19623
 21
104.181
  0
LINE
  8
0
 10
-6.19623
 20
104.181
 11
-6.87663
 21
105.004
  0
LINE
  8
0
 10
-6.87663
 20
105.004
 11
-7.44859
 21
105.905
  0
LINE
  8
0
 10
-7.44859
 20
105.905
 11
-7.90309
 21
106.871
  0
LINE
  8
0
 10
-7.90309
 20
106.871
 11
-8.23296
 21
107.886
  0
LINE
  8
0
 10
-8.23296
 20
107.886
 11
-8.43297
 21
108.935
  0
LINE
  8
0
 10
-8.43297
 20
108.935
 11
-8.5
 21
110
  0
LINE
  8
0
 10
-8.5
 20
110
 11
-8.43297
 21
111.065
  0
LINE
  8
0
 10
-8.43297
 20
111.065
 11
-8.23296
 21
112.114
  0
LINE
  8
0
 10
-8.23296
 20
112.114
 11
-7.90309
 21
113.129
  0
LINE
  8
0
 10
-7.90309
 20
113.129
 11
-7.44859
 21
114.095
  0
LINE
  8
0
 10
-7.44859
 20
114.095
 11
-6.87663
 21
114.996
  0
LINE
  8
0
 10
-6.87663
 20
114.996
 11
-6.19623
 21
115.819
  0
LINE
  8
0
 10
-6.19623
 20
115.819
 11
-5.41809
 21
116.549
  0
LINE
  8
0
 10
-5.41809
 20
116.549
 11
-4.55452
 21
117.177
  0
LINE
  8
0
 10
-4.55452
 20
117.177
 11
-3.61911
 21
117.691
  0
LINE
  8
0
 10
-3.61911
 20
117.691
 11
-2.62663
 21
118.084
  0
LINE
  8
0
 10
-2.62663
 20
118.084
 11
-1.59273
 21
118.349
  0
LINE
  8
0
 10
-1.59273
 20
118.349
 11
-0.533707
 21
118.483
  0
LINE
  8
0
 10
-0.533707
 20
118.483
 11
0.533707
 21
118.483
  0
LINE
  8
0
 10
0.533707
 20
118.483
 11
1.59273
 21
118.349
  0
LINE
  8
0
 10
1.59273
 20
118.349
 11
2.62663
 21
118.084
  0
LINE
  8
0
 10
2.62663
 20
118.084
 11
3.61911
 21
117.691
  0
LINE
  8
0
 10
3.61911
 20
117.691
 11
4.55452
 21
117.177
  0
LINE
  8
0
 10
4.55452
 20
117.177
 11
5.41809
 21
116.549
  0
LINE
  8
0
 10
5.41809
 20
116.549
 11
6.19623
 21
115.819
  0
LINE
  8
0
 10
6.19623
 20
115.819
 11
6.87663
 21
114.996
  0
LINE
  8
0
 10
6.87663
 20
114.996
 11
7.44859
 21
114.095
  0
LINE
  8
0
 10
7.44859
 20
114.095
 11
7.90309
 21
113.129
  0
LINE
  8
0
 10
7.90309
 20
113.129
 11
8.23296
 21
112.114
  0
LINE
  8
0
 10
8.23296
 20
112.114
 11
8.43297
 21
111.065
  0
LINE
  8
0
 10
8.43297
 20
111.065
 11
8.5
 21
110
  0
LINE
  8
0
 10
8.5
 20
110
 11
8.43297
 21
108.935
  0
LINE
  8
0
 10
8.43297
 20
108.935
 11
8.23296
 21
107.886
  0
LINE
  8
0
 10
8.23296
 20
107.886
 11
7.90309
 21
106.871
  0
LINE
  8
0
 10
7.90309
 20
106.871
 11
7.44859
 21
105.905
  0
LINE
  8
0
 10
7.44859
 20
105.905
 11
6.87663
 21
105.004
  0
LINE
  8
0
 10
6.87663
 20
105.004
 11
6.19623
 21
104.181
  0
LINE
  8
0
 10
6.19623
 20
104.181
 11
5.41809
 21
103.451
  0
LINE
  8
0
 10
5.41809
 20
103.451
 11
4.55452
 21
102.823
  0
LINE
  8
0
 10
4.55452
 20
102.823
 11
3.61911
 21
102.309
  0
LINE
  8
0
 10
3.61911
 20
102.309
 11
2.62663
 21
101.916
  0
LINE
  8
0
 10
2.62663
 20
101.916
 11
1.59273
 21
101.651
  0
LINE
  8
0
 10
1.59273
 20
101.651
 11
0.533707
 21
101.517
  0
LINE
  8
0
 10
0.533707
 20
101.517
 11
-0.533707
 21
101.517
  0
LINE
  8
0
 10
2.16211
 20
-11.3342
 11
3.56561
 21
-10.9739
  0
LINE
  8
0
 10
3.56561
 20
-10.9739
 11
4.91289
 21
-10.4404
  0
LINE
  8
0
 10
4.91289
 20
-10.4404
 11
6.18268
 21
-9.74236
  0
LINE
  8
0
 10
6.18268
 20
-9.74236
 11
7.35498
 21
-8.89064
  0
LINE
  8
0
 10
7.35498
 20
-8.89064
 11
8.41127
 21
-7.89871
  0
LINE
  8
0
 10
8.41127
 20
-7.89871
 11
9.33492
 21
-6.78221
  0
LINE
  8
0
 10
9.33492
 20
-6.78221
 11
10.1113
 21
-5.55876
  0
LINE
  8
0
 10
10.1113
 20
-5.55876
 11
10.7283
 21
-4.24763
  0
LINE
  8
0
 10
10.7283
 20
-4.24763
 11
11.1761
 21
-2.86952
  0
LINE
  8
0
 10
11.1761
 20
-2.86952
 11
11.4476
 21
-1.44617
  0
LINE
  8
0
 10
11.4476
 20
-1.44617
 11
11.5386
 21
0
  0
LINE
  8
0
 10
11.5386
 20
0
 11
11.4476
 21
1.44617
  0
LINE
  8
0
 10
11.4476
 20
1.44617
 11
11.1761
 21
2.86952
  0
LINE
  8
0
 10
11.1761
 20
2.86952
 11
10.7283
 21
4.24763
  0
LINE
  8
0
 10
10.7283
 20
4.24763
 11
10.1113
 21
5.55876
  0
LINE
  8
0
 10
10.1113
 20
5.55876
 11
9.33492
 21
6.78221
  0
LINE
  8
0
 10
9.33492
 20
6.78221
 11
8.41127
 21
7.89871
  0
LINE
  8
0
 10
8.41127
 20
7.89871
 11
7.35498
 21
8.89064
  0
LINE
  8
0
 10
7.35498
 20
8.89064
 11
6.18268
 21
9.74236
  0
LINE
  8
0
 10
6.18268
 20
9.74236
 11
4.91289
 21
10.4404
  0
LINE
  8
0
 10
4.91289
 20
10.4404
 11
3.56561
 21
10.9739
  0
LINE
  8
0
 10
3.56561
 20
10.9739
 11
2.16211
 21
11.3342
  0
LINE
  8
0
 10
2.16211
 20
11.3342
 11
0.724503
 21
11.5158
  0
LINE
  8
0
 10
0.724503
 20
11.5158
 11
-0.724503
 21
11.5158
  0
LINE
  8
0
 10
-0.724503
 20
11.5158
 11
-2.16211
 21
11.3342
  0
LINE
  8
0
 10
-2.16211
 20
11.3342
 11
-3.56561
 21
10.9739
  0
LINE
  8
0
 10
-3.56561
 20
10.9739
 11
-4.91289
 21
10.4404
  0
LINE
  8
0
 10
-4.91289
 20
10.4404
 11
-6.18268
 21
9.74236
  0
LINE
  8
0
 10
-6.18268
 20
9.74236
 11
-7.35498
 21
8.89064
  0
LINE
  8
0
 10
-7.35498
 20
8.89064
 11
-8.41127
 21
7.89871
  0
LINE
  8
0
 10
-8.41127
 20
7.89871
 11
-9.33492
 21
6.78221
  0
LINE
  8
0
 10
-9.33492
 20
6.78221
 11
-10.1113
 21
5.55876
  0
LINE
  8
0
 10
-10.1113
 20
5.55876
 11
-10.7283
 21
4.24763
  0
LINE
  8
0
 10
-10.7283
 20
4.24763
 11
-11.1761
 21
2.86952
  0
LINE
  8
0
 10
-11.1761
 20
2.86952
 11
-11.4476
 21
1.44617
  0
LINE
  8
0
 10
-11.4476
 20
1.44617
 11
-11.5386
 21
0
  0
LINE
  8
0
 10
-11.5386
 20
0
 11
-11.4476
 21
-1.44617
  0
LINE
  8
0
 10
-11.4476
 20
-1.44617
 11
-11.1761
 21
-2.86952
  0
LINE
  8
0
 10
-11.1761
 20
-2.86952
 11
-10.7283
 21
-4.24763
  0
LINE
  8
0
 10
-10.7283
 20
-4.24763
 11
-10.1113
 21
-5.55876
  0
LINE
  8
0
 10
-10.1113
 20
-5.55876
 11
-9.33492
 21
-6.78221
  0
LINE
  8
0
 10
-9.33492
 20
-6.78221
 11
-8.41127
 21
-7.89871
  0
LINE
  8
0
 10
-8.41127
 20
-7.89871
 11
-7.35498
 21
-8.89064
  0
LINE
  8
0
 10
-7.35498
 20
-8.89064
 11
-6.18268
 21
-9.74236
  0
LINE
  8
0
 10
-6.18268
 20
-9.74236
 11
-4.91289
 21
-10.4404
  0
LINE
  8
0
 10
-4.91289
 20
-10.4404
 11
-3.56561
 21
-10.9739
  0
LINE
  8
0
 10
-3.56561
 20
-10.9739
 11
-2.16211
 21
-11.3342
  0
LINE
  8
0
 10
-2.16211
 20
-11.3342
 11
-0.724503
 21
-11.5158
  0
LINE
  8
0
 10
-0.724503
 20
-11.5158
 11
0.724503
 21
-11.5158
  0
LINE
  8
0
 10
0.724503
 20
-11.5158
 11
2.16211
 21
-11.3342
  0
LINE
  8
0
 10
-0.533707
 20
-8.48322
 11
-1.59273
 21
-8.34944
  0
LINE
  8
0
 10
-1.59273
 20
-8.34944
 11
-2.62663
 21
-8.08397
  0
LINE
  8
0
 10
-2.62663
 20
-8.08397
 11
-3.61911
 21
-7.69102
  0
LINE
  8
0
 10
-3.61911
 20
-7.69102
 11
-4.55452
 21
-7.17677
  0
LINE
  8
0
 10
-4.55452
 20
-7.17677
 11
-5.41809
 21
-6.54936
  0
LINE
  8
0
 10
-5.41809
 20
-6.54936
 11
-6.19623
 21
-5.81865
  0
LINE
  8
0
 10
-6.19623
 20
-5.81865
 11
-6.87663
 21
-4.99617
  0
LINE
  8
0
 10
-6.87663
 20
-4.99617
 11
-7.44859
 21
-4.09489
  0
LINE
  8
0
 10
-7.44859
 20
-4.09489
 11
-7.90309
 21
-3.12904
  0
LINE
  8
0
 10
-7.90309
 20
-3.12904
 11
-8.23296
 21
-2.11386
  0
LINE
  8
0
 10
-8.23296
 20
-2.11386
 11
-8.43297
 21
-1.06532
  0
LINE
  8
0
 10
-8.43297
 20
-1.06532
 11
-8.5
 21
0
  0
LINE
  8
0
 10
-8.5
 20
0
 11
-8.43297
 21
1.06532
  0
LINE
  8
0
 10
-8.43297
 20
1.06532
 11
-8.23296
 21
2.11386
  0
LINE
  8
0
 10
-8.23296
 20
2.11386
 11
-7.90309
 21
3.12904
  0
LINE
  8
0
 10
-7.90309
 20
3.12904
 11
-7.44859
 21
4.09489
  0
LINE
  8
0
 10
-7.44859
 20
4.09489
 11
-6.87663
 21
4.99617
  0
LINE
  8
0
 10
-6.87663
 20
4.99617
 11
-6.19623
 21
5.81865
  0
LINE
  8
0
 10
-6.19623
 20
5.81865
 11
-5.41809
 21
6.54936
  0
LINE
  8
0
 10
-5.41809
 20
6.54936
 11
-4.55452
 21
7.17677
  0
LINE
  8
0
 10
-4.55452
 20
7.17677
 11
-3.61911
 21
7.69102
  0
LINE
  8
0
 10
-3.61911
 20
7.69102
 11
-2.62663
 21
8.08397
  0
LINE
  8
0
 10
-2.62663
 20
8.08397
 11
-1.59273
 21
8.34944
  0
LINE
  8
0
 10
-1.59273
 20
8.34944
 11
-0.533707
 21
8.48322
  0
LINE
  8
0
 10
-0.533707
 20
8.48322
 11
0.533707
 21
8.48322
  0
LINE
  8
0
 10
0.533707
 20
8.48322
 11
1.59273
 21
8.34944
  0
LINE
  8
0
 10
1.59273
 20
8.34944
 11
2.62663
 21
8.08397
  0
LINE
  8
0
 10
2.62663
 20
8.08397
 11
3.61911
 21
7.69102
  0
LINE
  8
0
 10
3.61911
 20
7.69102
 11
4.55452
 21
7.17677
  0
LINE
  8
0
 10
4.55452
 20
7.17677
 11
5.41809
 21
6.54936
  0
LINE
  8
0
 10
5.41809
 20
6.54936
 11
6.19623
 21
5.81865
  0
LINE
  8
0
 10
6.19623
 20
5.81865
 11
6.87663
 21
4.99617
  0
LINE
  8
0
 10
6.87663
 20
4.99617
 11
7.44859
 21
4.09489
  0
LINE
  8
0
 10
7.44859
 20
4.09489
 11
7.90309
 21
3.12904
  0
LINE
  8
0
 10
7.90309
 20
3.12904
 11
8.23296
 21
2.11386
  0
LINE
  8
0
 10
8.23296
 20
2.11386
 11
8.43297
 21
1.06532
  0
LINE
  8
0
 10
8.43297
 20
1.06532
 11
8.5
 21
0
  0
LINE
  8
0
 10
8.5
 20
0
 11
8.43297
 21
-1.06532
  0
LINE
  8
0
 10
8.43297
 20
-1.06532
 11
8.23296
 21
-2.11386
  0
LINE
  8
0
 10
8.23296
 20
-2.11386
 11
7.90309
 21
-3.12904
  0
LINE
  8
0
 10
7.90309
 20
-3.12904
 11
7.44859
 21
-4.09489
  0
LINE
  8
0
 10
7.44859
 20
-4.09489
 11
6.87663
 21
-4.99617
  0
LINE
  8
0
 10
6.87663
 20
-4.99617
 11
6.19623
 21
-5.81865
  0
LINE
  8
0
 10
6.19623
 20
-5.81865
 11
5.41809
 21
-6.54936
  0
LINE
  8
0
 10
5.41809
 20
-6.54936
 11
4.55452
 21
-7.17677
  0
LINE
  8
0
 10
4.55452
 20
-7.17677
 11
3.61911
 21
-7.69102
  0
LINE
  8
0
 10
3.61911
 20
-7.69102
 11
2.62663
 21
-8.08397
  0
LINE
  8
0
 10
2.62663
 20
-8.08397
 11
1.59273
 21
-8.34944
  0
LINE
  8
0
 10
1.59273
 20
-8.34944
 11
0.533707
 21
-8.48322
  0
LINE
  8
0
 10
0.533707
 20
-8.48322
 11
-0.533707
 21
-8.48322
  0
ENDSEC
  0
SECTION
  2
OBJECTS
  0
DICTIONARY
  0
ENDSEC
  0
EOF
