  0
SECTION
  2
BLOCKS
  0
ENDSEC
  0
SECTION
  2
ENTITIES
  0
LINE
  8
0
 10
4.96844
 20
213.544
 11
5.27254
 21
213.622
  0
LINE
  8
0
 10
5.27254
 20
213.622
 11
5.56444
 21
213.738
  0
LINE
  8
0
 10
5.56444
 20
213.738
 11
5.83955
 21
213.889
  0
LINE
  8
0
 10
5.83955
 20
213.889
 11
6.09355
 21
214.074
  0
LINE
  8
0
 10
6.09355
 20
214.074
 11
6.32242
 21
214.289
  0
LINE
  8
0
 10
6.32242
 20
214.289
 11
6.52254
 21
214.531
  0
LINE
  8
0
 10
6.52254
 20
214.531
 11
6.69077
 21
214.796
  0
LINE
  8
0
 10
6.69077
 20
214.796
 11
6.82443
 21
215.08
  0
LINE
  8
0
 10
6.82443
 20
215.08
 11
6.92145
 21
215.378
  0
LINE
  8
0
 10
6.92145
 20
215.378
 11
6.98029
 21
215.687
  0
LINE
  8
0
 10
6.98029
 20
215.687
 11
7
 21
216
  0
LINE
  8
0
 10
7
 20
216
 11
7
 21
288
  0
LINE
  8
0
 10
7
 20
288
 11
6.98029
 21
288.313
  0
LINE
  8
0
 10
6.98029
 20
288.313
 11
6.92145
 21
288.622
  0
LINE
  8
0
 10
6.92145
 20
288.622
 11
6.82443
 21
288.92
  0
LINE
  8
0
 10
6.82443
 20
288.92
 11
6.69077
 21
289.204
  0
LINE
  8
0
 10
6.69077
 20
289.204
 11
6.52254
 21
289.469
  0
LINE
  8
0
 10
6.52254
 20
289.469
 11
6.32242
 21
289.711
  0
LINE
  8
0
 10
6.32242
 20
289.711
 11
6.09355
 21
289.926
  0
LINE
  8
0
 10
6.09355
 20
289.926
 11
5.83955
 21
290.111
  0
LINE
  8
0
 10
5.83955
 20
290.111
 11
5.56444
 21
290.262
  0
LINE
  8
0
 10
5.56444
 20
290.262
 11
5.27254
 21
290.378
  0
LINE
  8
0
 10
5.27254
 20
290.378
 11
4.96844
 21
290.456
  0
LINE
  8
0
 10
4.96844
 20
290.456
 11
4.65697
 21
290.495
  0
LINE
  8
0
 10
4.65697
 20
290.495
 11
-4.65697
 21
290.495
  0
LINE
  8
0
 10
-4.65697
 20
290.495
 11
-4.96844
 21
290.456
  0
LINE
  8
0
 10
-4.96844
 20
290.456
 11
-5.27254
 21
290.378
  0
LINE
  8
0
 10
-5.27254
 20
290.378
 11
-5.56444
 21
290.262
  0
LINE
  8
0
 10
-5.56444
 20
290.262
 11
-5.83955
 21
290.111
  0
LINE
  8
0
 10
-5.83955
 20
290.111
 11
-6.09355
 21
289.926
  0
LINE
  8
0
 10
-6.09355
 20
289.926
 11
-6.32242
 21
289.711
  0
LINE
  8
0
 10
-6.32242
 20
289.711
 11
-6.52254
 21
289.469
  0
LINE
  8
0
 10
-6.52254
 20
289.469
 11
-6.69077
 21
289.204
  0
LINE
  8
0
 10
-6.69077
 20
289.204
 11
-6.82443
 21
288.92
  0
LINE
  8
0
 10
-6.82443
 20
288.92
 11
-6.92145
 21
288.622
  0
LINE
  8
0
 10
-6.92145
 20
288.622
 11
-6.98029
 21
288.313
  0
LINE
  8
0
 10
-6.98029
 20
288.313
 11
-7
 21
288
  0
LINE
  8
0
 10
-7
 20
288
 11
-7
 21
285.242
  0
LINE
  8
0
 10
-7
 20
285.242
 11
0
 21
285.242
  0
LINE
  8
0
 10
0
 20
285.242
 11
0
 21
278.758
  0
LINE
  8
0
 10
0
 20
278.758
 11
-7
 21
278.758
  0
LINE
  8
0
 10
-7
 20
278.758
 11
-7
 21
216
  0
LINE
  8
0
 10
-7
 20
216
 11
-6.98029
 21
215.687
  0
LINE
  8
0
 10
-6.98029
 20
215.687
 11
-6.92145
 21
215.378
  0
LINE
  8
0
 10
-6.92145
 20
215.378
 11
-6.82443
 21
215.08
  0
LINE
  8
0
 10
-6.82443
 20
215.08
 11
-6.69077
 21
214.796
  0
LINE
  8
0
 10
-6.69077
 20
214.796
 11
-6.52254
 21
214.531
  0
LINE
  8
0
 10
-6.52254
 20
214.531
 11
-6.32242
 21
214.289
  0
LINE
  8
0
 10
-6.32242
 20
214.289
 11
-6.09355
 21
214.074
  0
LINE
  8
0
 10
-6.09355
 20
214.074
 11
-5.83955
 21
213.889
  0
LINE
  8
0
 10
-5.83955
 20
213.889
 11
-5.56444
 21
213.738
  0
LINE
  8
0
 10
-5.56444
 20
213.738
 11
-5.27254
 21
213.622
  0
LINE
  8
0
 10
-5.27254
 20
213.622
 11
-4.96844
 21
213.544
  0
LINE
  8
0
 10
-4.96844
 20
213.544
 11
-4.65697
 21
213.505
  0
LINE
  8
0
 10
-4.65697
 20
213.505
 11
4.65697
 21
213.505
  0
LINE
  8
0
 10
4.65697
 20
213.505
 11
4.96844
 21
213.544
  0
LINE
  8
0
 10
-0.18837
 20
264.006
 11
-0.562134
 21
264.053
  0
LINE
  8
0
 10
-0.562134
 20
264.053
 11
-0.927048
 21
264.147
  0
LINE
  8
0
 10
-0.927048
 20
264.147
 11
-1.27733
 21
264.286
  0
LINE
  8
0
 10
-1.27733
 20
264.286
 11
-1.60747
 21
264.467
  0
LINE
  8
0
 10
-1.60747
 20
264.467
 11
-1.91226
 21
264.688
  0
LINE
  8
0
 10
-1.91226
 20
264.688
 11
-2.1869
 21
264.946
  0
LINE
  8
0
 10
-2.1869
 20
264.946
 11
-2.42705
 21
265.237
  0
LINE
  8
0
 10
-2.42705
 20
265.237
 11
-2.62891
 21
265.555
  0
LINE
  8
0
 10
-2.62891
 20
265.555
 11
-2.78932
 21
265.896
  0
LINE
  8
0
 10
-2.78932
 20
265.896
 11
-2.90575
 21
266.254
  0
LINE
  8
0
 10
-2.90575
 20
266.254
 11
-2.97633
 21
266.624
  0
LINE
  8
0
 10
-2.97633
 20
266.624
 11
-3
 21
267
  0
LINE
  8
0
 10
-3
 20
267
 11
-2.97633
 21
267.376
  0
LINE
  8
0
 10
-2.97633
 20
267.376
 11
-2.90575
 21
267.746
  0
LINE
  8
0
 10
-2.90575
 20
267.746
 11
-2.78932
 21
268.104
  0
LINE
  8
0
 10
-2.78932
 20
268.104
 11
-2.62891
 21
268.445
  0
LINE
  8
0
 10
-2.62891
 20
268.445
 11
-2.42705
 21
268.763
  0
LINE
  8
0
 10
-2.42705
 20
268.763
 11
-2.1869
 21
269.054
  0
LINE
  8
0
 10
-2.1869
 20
269.054
 11
-1.91226
 21
269.312
  0
LINE
  8
0
 10
-1.91226
 20
269.312
 11
-1.60747
 21
269.533
  0
LINE
  8
0
 10
-1.60747
 20
269.533
 11
-1.27733
 21
269.714
  0
LINE
  8
0
 10
-1.27733
 20
269.714
 11
-0.927048
 21
269.853
  0
LINE
  8
0
 10
-0.927048
 20
269.853
 11
-0.562134
 21
269.947
  0
LINE
  8
0
 10
-0.562134
 20
269.947
 11
-0.18837
 21
269.994
  0
LINE
  8
0
 10
-0.18837
 20
269.994
 11
0.18837
 21
269.994
  0
LINE
  8
0
 10
0.18837
 20
269.994
 11
0.562134
 21
269.947
  0
LINE
  8
0
 10
0.562134
 20
269.947
 11
0.927048
 21
269.853
  0
LINE
  8
0
 10
0.927048
 20
269.853
 11
1.27733
 21
269.714
  0
LINE
  8
0
 10
1.27733
 20
269.714
 11
1.60747
 21
269.533
  0
LINE
  8
0
 10
1.60747
 20
269.533
 11
1.91226
 21
269.312
  0
LINE
  8
0
 10
1.91226
 20
269.312
 11
2.1869
 21
269.054
  0
LINE
  8
0
 10
2.1869
 20
269.054
 11
2.42705
 21
268.763
  0
LINE
  8
0
 10
2.42705
 20
268.763
 11
2.62891
 21
268.445
  0
LINE
  8
0
 10
2.62891
 20
268.445
 11
2.78932
 21
268.104
  0
LINE
  8
0
 10
2.78932
 20
268.104
 11
2.90575
 21
267.746
  0
LINE
  8
0
 10
2.90575
 20
267.746
 11
2.97633
 21
267.376
  0
LINE
  8
0
 10
2.97633
 20
267.376
 11
3
 21
267
  0
LINE
  8
0
 10
3
 20
267
 11
2.97633
 21
266.624
  0
LINE
  8
0
 10
2.97633
 20
266.624
 11
2.90575
 21
266.254
  0
LINE
  8
0
 10
2.90575
 20
266.254
 11
2.78932
 21
265.896
  0
LINE
  8
0
 10
2.78932
 20
265.896
 11
2.62891
 21
265.555
  0
LINE
  8
0
 10
2.62891
 20
265.555
 11
2.42705
 21
265.237
  0
LINE
  8
0
 10
2.42705
 20
265.237
 11
2.1869
 21
264.946
  0
LINE
  8
0
 10
2.1869
 20
264.946
 11
1.91226
 21
264.688
  0
LINE
  8
0
 10
1.91226
 20
264.688
 11
1.60747
 21
264.467
  0
LINE
  8
0
 10
1.60747
 20
264.467
 11
1.27733
 21
264.286
  0
LINE
  8
0
 10
1.27733
 20
264.286
 11
0.927048
 21
264.147
  0
LINE
  8
0
 10
0.927048
 20
264.147
 11
0.562134
 21
264.053
  0
LINE
  8
0
 10
0.562134
 20
264.053
 11
0.18837
 21
264.006
  0
LINE
  8
0
 10
0.18837
 20
264.006
 11
-0.18837
 21
264.006
  0
LINE
  8
0
 10
-0.18837
 20
249.006
 11
-0.562134
 21
249.053
  0
LINE
  8
0
 10
-0.562134
 20
249.053
 11
-0.927048
 21
249.147
  0
LINE
  8
0
 10
-0.927048
 20
249.147
 11
-1.27733
 21
249.286
  0
LINE
  8
0
 10
-1.27733
 20
249.286
 11
-1.60747
 21
249.467
  0
LINE
  8
0
 10
-1.60747
 20
249.467
 11
-1.91226
 21
249.688
  0
LINE
  8
0
 10
-1.91226
 20
249.688
 11
-2.1869
 21
249.946
  0
LINE
  8
0
 10
-2.1869
 20
249.946
 11
-2.42705
 21
250.237
  0
LINE
  8
0
 10
-2.42705
 20
250.237
 11
-2.62891
 21
250.555
  0
LINE
  8
0
 10
-2.62891
 20
250.555
 11
-2.78932
 21
250.896
  0
LINE
  8
0
 10
-2.78932
 20
250.896
 11
-2.90575
 21
251.254
  0
LINE
  8
0
 10
-2.90575
 20
251.254
 11
-2.97633
 21
251.624
  0
LINE
  8
0
 10
-2.97633
 20
251.624
 11
-3
 21
252
  0
LINE
  8
0
 10
-3
 20
252
 11
-2.97633
 21
252.376
  0
LINE
  8
0
 10
-2.97633
 20
252.376
 11
-2.90575
 21
252.746
  0
LINE
  8
0
 10
-2.90575
 20
252.746
 11
-2.78932
 21
253.104
  0
LINE
  8
0
 10
-2.78932
 20
253.104
 11
-2.62891
 21
253.445
  0
LINE
  8
0
 10
-2.62891
 20
253.445
 11
-2.42705
 21
253.763
  0
LINE
  8
0
 10
-2.42705
 20
253.763
 11
-2.1869
 21
254.054
  0
LINE
  8
0
 10
-2.1869
 20
254.054
 11
-1.91226
 21
254.312
  0
LINE
  8
0
 10
-1.91226
 20
254.312
 11
-1.60747
 21
254.533
  0
LINE
  8
0
 10
-1.60747
 20
254.533
 11
-1.27733
 21
254.714
  0
LINE
  8
0
 10
-1.27733
 20
254.714
 11
-0.927048
 21
254.853
  0
LINE
  8
0
 10
-0.927048
 20
254.853
 11
-0.562134
 21
254.947
  0
LINE
  8
0
 10
-0.562134
 20
254.947
 11
-0.18837
 21
254.994
  0
LINE
  8
0
 10
-0.18837
 20
254.994
 11
0.18837
 21
254.994
  0
LINE
  8
0
 10
0.18837
 20
254.994
 11
0.562134
 21
254.947
  0
LINE
  8
0
 10
0.562134
 20
254.947
 11
0.927048
 21
254.853
  0
LINE
  8
0
 10
0.927048
 20
254.853
 11
1.27733
 21
254.714
  0
LINE
  8
0
 10
1.27733
 20
254.714
 11
1.60747
 21
254.533
  0
LINE
  8
0
 10
1.60747
 20
254.533
 11
1.91226
 21
254.312
  0
LINE
  8
0
 10
1.91226
 20
254.312
 11
2.1869
 21
254.054
  0
LINE
  8
0
 10
2.1869
 20
254.054
 11
2.42705
 21
253.763
  0
LINE
  8
0
 10
2.42705
 20
253.763
 11
2.62891
 21
253.445
  0
LINE
  8
0
 10
2.62891
 20
253.445
 11
2.78932
 21
253.104
  0
LINE
  8
0
 10
2.78932
 20
253.104
 11
2.90575
 21
252.746
  0
LINE
  8
0
 10
2.90575
 20
252.746
 11
2.97633
 21
252.376
  0
LINE
  8
0
 10
2.97633
 20
252.376
 11
3
 21
252
  0
LINE
  8
0
 10
3
 20
252
 11
2.97633
 21
251.624
  0
LINE
  8
0
 10
2.97633
 20
251.624
 11
2.90575
 21
251.254
  0
LINE
  8
0
 10
2.90575
 20
251.254
 11
2.78932
 21
250.896
  0
LINE
  8
0
 10
2.78932
 20
250.896
 11
2.62891
 21
250.555
  0
LINE
  8
0
 10
2.62891
 20
250.555
 11
2.42705
 21
250.237
  0
LINE
  8
0
 10
2.42705
 20
250.237
 11
2.1869
 21
249.946
  0
LINE
  8
0
 10
2.1869
 20
249.946
 11
1.91226
 21
249.688
  0
LINE
  8
0
 10
1.91226
 20
249.688
 11
1.60747
 21
249.467
  0
LINE
  8
0
 10
1.60747
 20
249.467
 11
1.27733
 21
249.286
  0
LINE
  8
0
 10
1.27733
 20
249.286
 11
0.927048
 21
249.147
  0
LINE
  8
0
 10
0.927048
 20
249.147
 11
0.562134
 21
249.053
  0
LINE
  8
0
 10
0.562134
 20
249.053
 11
0.18837
 21
249.006
  0
LINE
  8
0
 10
0.18837
 20
249.006
 11
-0.18837
 21
249.006
  0
LINE
  8
0
 10
-0.18837
 20
234.006
 11
-0.562134
 21
234.053
  0
LINE
  8
0
 10
-0.562134
 20
234.053
 11
-0.927048
 21
234.147
  0
LINE
  8
0
 10
-0.927048
 20
234.147
 11
-1.27733
 21
234.286
  0
LINE
  8
0
 10
-1.27733
 20
234.286
 11
-1.60747
 21
234.467
  0
LINE
  8
0
 10
-1.60747
 20
234.467
 11
-1.91226
 21
234.688
  0
LINE
  8
0
 10
-1.91226
 20
234.688
 11
-2.1869
 21
234.946
  0
LINE
  8
0
 10
-2.1869
 20
234.946
 11
-2.42705
 21
235.237
  0
LINE
  8
0
 10
-2.42705
 20
235.237
 11
-2.62891
 21
235.555
  0
LINE
  8
0
 10
-2.62891
 20
235.555
 11
-2.78932
 21
235.896
  0
LINE
  8
0
 10
-2.78932
 20
235.896
 11
-2.90575
 21
236.254
  0
LINE
  8
0
 10
-2.90575
 20
236.254
 11
-2.97633
 21
236.624
  0
LINE
  8
0
 10
-2.97633
 20
236.624
 11
-3
 21
237
  0
LINE
  8
0
 10
-3
 20
237
 11
-2.97633
 21
237.376
  0
LINE
  8
0
 10
-2.97633
 20
237.376
 11
-2.90575
 21
237.746
  0
LINE
  8
0
 10
-2.90575
 20
237.746
 11
-2.78932
 21
238.104
  0
LINE
  8
0
 10
-2.78932
 20
238.104
 11
-2.62891
 21
238.445
  0
LINE
  8
0
 10
-2.62891
 20
238.445
 11
-2.42705
 21
238.763
  0
LINE
  8
0
 10
-2.42705
 20
238.763
 11
-2.1869
 21
239.054
  0
LINE
  8
0
 10
-2.1869
 20
239.054
 11
-1.91226
 21
239.312
  0
LINE
  8
0
 10
-1.91226
 20
239.312
 11
-1.60747
 21
239.533
  0
LINE
  8
0
 10
-1.60747
 20
239.533
 11
-1.27733
 21
239.714
  0
LINE
  8
0
 10
-1.27733
 20
239.714
 11
-0.927048
 21
239.853
  0
LINE
  8
0
 10
-0.927048
 20
239.853
 11
-0.562134
 21
239.947
  0
LINE
  8
0
 10
-0.562134
 20
239.947
 11
-0.18837
 21
239.994
  0
LINE
  8
0
 10
-0.18837
 20
239.994
 11
0.18837
 21
239.994
  0
LINE
  8
0
 10
0.18837
 20
239.994
 11
0.562134
 21
239.947
  0
LINE
  8
0
 10
0.562134
 20
239.947
 11
0.927048
 21
239.853
  0
LINE
  8
0
 10
0.927048
 20
239.853
 11
1.27733
 21
239.714
  0
LINE
  8
0
 10
1.27733
 20
239.714
 11
1.60747
 21
239.533
  0
LINE
  8
0
 10
1.60747
 20
239.533
 11
1.91226
 21
239.312
  0
LINE
  8
0
 10
1.91226
 20
239.312
 11
2.1869
 21
239.054
  0
LINE
  8
0
 10
2.1869
 20
239.054
 11
2.42705
 21
238.763
  0
LINE
  8
0
 10
2.42705
 20
238.763
 11
2.62891
 21
238.445
  0
LINE
  8
0
 10
2.62891
 20
238.445
 11
2.78932
 21
238.104
  0
LINE
  8
0
 10
2.78932
 20
238.104
 11
2.90575
 21
237.746
  0
LINE
  8
0
 10
2.90575
 20
237.746
 11
2.97633
 21
237.376
  0
LINE
  8
0
 10
2.97633
 20
237.376
 11
3
 21
237
  0
LINE
  8
0
 10
3
 20
237
 11
2.97633
 21
236.624
  0
LINE
  8
0
 10
2.97633
 20
236.624
 11
2.90575
 21
236.254
  0
LINE
  8
0
 10
2.90575
 20
236.254
 11
2.78932
 21
235.896
  0
LINE
  8
0
 10
2.78932
 20
235.896
 11
2.62891
 21
235.555
  0
LINE
  8
0
 10
2.62891
 20
235.555
 11
2.42705
 21
235.237
  0
LINE
  8
0
 10
2.42705
 20
235.237
 11
2.1869
 21
234.946
  0
LINE
  8
0
 10
2.1869
 20
234.946
 11
1.91226
 21
234.688
  0
LINE
  8
0
 10
1.91226
 20
234.688
 11
1.60747
 21
234.467
  0
LINE
  8
0
 10
1.60747
 20
234.467
 11
1.27733
 21
234.286
  0
LINE
  8
0
 10
1.27733
 20
234.286
 11
0.927048
 21
234.147
  0
LINE
  8
0
 10
0.927048
 20
234.147
 11
0.562134
 21
234.053
  0
LINE
  8
0
 10
0.562134
 20
234.053
 11
0.18837
 21
234.006
  0
LINE
  8
0
 10
0.18837
 20
234.006
 11
-0.18837
 21
234.006
  0
LINE
  8
0
 10
-0.18837
 20
219.006
 11
-0.562134
 21
219.053
  0
LINE
  8
0
 10
-0.562134
 20
219.053
 11
-0.927048
 21
219.147
  0
LINE
  8
0
 10
-0.927048
 20
219.147
 11
-1.27733
 21
219.286
  0
LINE
  8
0
 10
-1.27733
 20
219.286
 11
-1.60747
 21
219.467
  0
LINE
  8
0
 10
-1.60747
 20
219.467
 11
-1.91226
 21
219.688
  0
LINE
  8
0
 10
-1.91226
 20
219.688
 11
-2.1869
 21
219.946
  0
LINE
  8
0
 10
-2.1869
 20
219.946
 11
-2.42705
 21
220.237
  0
LINE
  8
0
 10
-2.42705
 20
220.237
 11
-2.62891
 21
220.555
  0
LINE
  8
0
 10
-2.62891
 20
220.555
 11
-2.78932
 21
220.896
  0
LINE
  8
0
 10
-2.78932
 20
220.896
 11
-2.90575
 21
221.254
  0
LINE
  8
0
 10
-2.90575
 20
221.254
 11
-2.97633
 21
221.624
  0
LINE
  8
0
 10
-2.97633
 20
221.624
 11
-3
 21
222
  0
LINE
  8
0
 10
-3
 20
222
 11
-2.97633
 21
222.376
  0
LINE
  8
0
 10
-2.97633
 20
222.376
 11
-2.90575
 21
222.746
  0
LINE
  8
0
 10
-2.90575
 20
222.746
 11
-2.78932
 21
223.104
  0
LINE
  8
0
 10
-2.78932
 20
223.104
 11
-2.62891
 21
223.445
  0
LINE
  8
0
 10
-2.62891
 20
223.445
 11
-2.42705
 21
223.763
  0
LINE
  8
0
 10
-2.42705
 20
223.763
 11
-2.1869
 21
224.054
  0
LINE
  8
0
 10
-2.1869
 20
224.054
 11
-1.91226
 21
224.312
  0
LINE
  8
0
 10
-1.91226
 20
224.312
 11
-1.60747
 21
224.533
  0
LINE
  8
0
 10
-1.60747
 20
224.533
 11
-1.27733
 21
224.714
  0
LINE
  8
0
 10
-1.27733
 20
224.714
 11
-0.927048
 21
224.853
  0
LINE
  8
0
 10
-0.927048
 20
224.853
 11
-0.562134
 21
224.947
  0
LINE
  8
0
 10
-0.562134
 20
224.947
 11
-0.18837
 21
224.994
  0
LINE
  8
0
 10
-0.18837
 20
224.994
 11
0.18837
 21
224.994
  0
LINE
  8
0
 10
0.18837
 20
224.994
 11
0.562134
 21
224.947
  0
LINE
  8
0
 10
0.562134
 20
224.947
 11
0.927048
 21
224.853
  0
LINE
  8
0
 10
0.927048
 20
224.853
 11
1.27733
 21
224.714
  0
LINE
  8
0
 10
1.27733
 20
224.714
 11
1.60747
 21
224.533
  0
LINE
  8
0
 10
1.60747
 20
224.533
 11
1.91226
 21
224.312
  0
LINE
  8
0
 10
1.91226
 20
224.312
 11
2.1869
 21
224.054
  0
LINE
  8
0
 10
2.1869
 20
224.054
 11
2.42705
 21
223.763
  0
LINE
  8
0
 10
2.42705
 20
223.763
 11
2.62891
 21
223.445
  0
LINE
  8
0
 10
2.62891
 20
223.445
 11
2.78932
 21
223.104
  0
LINE
  8
0
 10
2.78932
 20
223.104
 11
2.90575
 21
222.746
  0
LINE
  8
0
 10
2.90575
 20
222.746
 11
2.97633
 21
222.376
  0
LINE
  8
0
 10
2.97633
 20
222.376
 11
3
 21
222
  0
LINE
  8
0
 10
3
 20
222
 11
2.97633
 21
221.624
  0
LINE
  8
0
 10
2.97633
 20
221.624
 11
2.90575
 21
221.254
  0
LINE
  8
0
 10
2.90575
 20
221.254
 11
2.78932
 21
220.896
  0
LINE
  8
0
 10
2.78932
 20
220.896
 11
2.62891
 21
220.555
  0
LINE
  8
0
 10
2.62891
 20
220.555
 11
2.42705
 21
220.237
  0
LINE
  8
0
 10
2.42705
 20
220.237
 11
2.1869
 21
219.946
  0
LINE
  8
0
 10
2.1869
 20
219.946
 11
1.91226
 21
219.688
  0
LINE
  8
0
 10
1.91226
 20
219.688
 11
1.60747
 21
219.467
  0
LINE
  8
0
 10
1.60747
 20
219.467
 11
1.27733
 21
219.286
  0
LINE
  8
0
 10
1.27733
 20
219.286
 11
0.927048
 21
219.147
  0
LINE
  8
0
 10
0.927048
 20
219.147
 11
0.562134
 21
219.053
  0
LINE
  8
0
 10
0.562134
 20
219.053
 11
0.18837
 21
219.006
  0
LINE
  8
0
 10
0.18837
 20
219.006
 11
-0.18837
 21
219.006
  0
LINE
  8
0
 10
7
 20
204
 11
6.98029
 21
204.313
  0
LINE
  8
0
 10
6.98029
 20
204.313
 11
6.92145
 21
204.622
  0
LINE
  8
0
 10
6.92145
 20
204.622
 11
6.82443
 21
204.92
  0
LINE
  8
0
 10
6.82443
 20
204.92
 11
6.69077
 21
205.204
  0
LINE
  8
0
 10
6.69077
 20
205.204
 11
6.52254
 21
205.469
  0
LINE
  8
0
 10
6.52254
 20
205.469
 11
6.32242
 21
205.711
  0
LINE
  8
0
 10
6.32242
 20
205.711
 11
6.09355
 21
205.926
  0
LINE
  8
0
 10
6.09355
 20
205.926
 11
5.83955
 21
206.111
  0
LINE
  8
0
 10
5.83955
 20
206.111
 11
5.56444
 21
206.262
  0
LINE
  8
0
 10
5.56444
 20
206.262
 11
5.27254
 21
206.378
  0
LINE
  8
0
 10
5.27254
 20
206.378
 11
4.96844
 21
206.456
  0
LINE
  8
0
 10
4.96844
 20
206.456
 11
4.65697
 21
206.495
  0
LINE
  8
0
 10
4.65697
 20
206.495
 11
-4.65697
 21
206.495
  0
LINE
  8
0
 10
-4.65697
 20
206.495
 11
-4.96844
 21
206.456
  0
LINE
  8
0
 10
-4.96844
 20
206.456
 11
-5.27254
 21
206.378
  0
LINE
  8
0
 10
-5.27254
 20
206.378
 11
-5.56444
 21
206.262
  0
LINE
  8
0
 10
-5.56444
 20
206.262
 11
-5.83955
 21
206.111
  0
LINE
  8
0
 10
-5.83955
 20
206.111
 11
-6.09355
 21
205.926
  0
LINE
  8
0
 10
-6.09355
 20
205.926
 11
-6.32242
 21
205.711
  0
LINE
  8
0
 10
-6.32242
 20
205.711
 11
-6.52254
 21
205.469
  0
LINE
  8
0
 10
-6.52254
 20
205.469
 11
-6.69077
 21
205.204
  0
LINE
  8
0
 10
-6.69077
 20
205.204
 11
-6.82443
 21
204.92
  0
LINE
  8
0
 10
-6.82443
 20
204.92
 11
-6.92145
 21
204.622
  0
LINE
  8
0
 10
-6.92145
 20
204.622
 11
-6.98029
 21
204.313
  0
LINE
  8
0
 10
-6.98029
 20
204.313
 11
-7
 21
204
  0
LINE
  8
0
 10
-7
 20
204
 11
-7
 21
202.803
  0
LINE
  8
0
 10
-7
 20
202.803
 11
0
 21
202.803
  0
LINE
  8
0
 10
0
 20
202.803
 11
0
 21
199.373
  0
LINE
  8
0
 10
0
 20
199.373
 11
7
 21
199.373
  0
LINE
  8
0
 10
7
 20
199.373
 11
7
 21
204
  0
LINE
  8
0
 10
4.96844
 20
129.544
 11
5.27254
 21
129.622
  0
LINE
  8
0
 10
5.27254
 20
129.622
 11
5.56444
 21
129.738
  0
LINE
  8
0
 10
5.56444
 20
129.738
 11
5.83955
 21
129.889
  0
LINE
  8
0
 10
5.83955
 20
129.889
 11
6.09355
 21
130.074
  0
LINE
  8
0
 10
6.09355
 20
130.074
 11
6.32242
 21
130.289
  0
LINE
  8
0
 10
6.32242
 20
130.289
 11
6.52254
 21
130.531
  0
LINE
  8
0
 10
6.52254
 20
130.531
 11
6.69077
 21
130.796
  0
LINE
  8
0
 10
6.69077
 20
130.796
 11
6.82443
 21
131.08
  0
LINE
  8
0
 10
6.82443
 20
131.08
 11
6.92145
 21
131.378
  0
LINE
  8
0
 10
6.92145
 20
131.378
 11
6.98029
 21
131.687
  0
LINE
  8
0
 10
6.98029
 20
131.687
 11
7
 21
132
  0
LINE
  8
0
 10
7
 20
132
 11
7
 21
196.627
  0
LINE
  8
0
 10
7
 20
196.627
 11
0
 21
196.627
  0
LINE
  8
0
 10
0
 20
196.627
 11
0
 21
193.197
  0
LINE
  8
0
 10
0
 20
193.197
 11
-7
 21
193.197
  0
LINE
  8
0
 10
-7
 20
193.197
 11
-7
 21
132
  0
LINE
  8
0
 10
-7
 20
132
 11
-6.98029
 21
131.687
  0
LINE
  8
0
 10
-6.98029
 20
131.687
 11
-6.92145
 21
131.378
  0
LINE
  8
0
 10
-6.92145
 20
131.378
 11
-6.82443
 21
131.08
  0
LINE
  8
0
 10
-6.82443
 20
131.08
 11
-6.69077
 21
130.796
  0
LINE
  8
0
 10
-6.69077
 20
130.796
 11
-6.52254
 21
130.531
  0
LINE
  8
0
 10
-6.52254
 20
130.531
 11
-6.32242
 21
130.289
  0
LINE
  8
0
 10
-6.32242
 20
130.289
 11
-6.09355
 21
130.074
  0
LINE
  8
0
 10
-6.09355
 20
130.074
 11
-5.83955
 21
129.889
  0
LINE
  8
0
 10
-5.83955
 20
129.889
 11
-5.56444
 21
129.738
  0
LINE
  8
0
 10
-5.56444
 20
129.738
 11
-5.27254
 21
129.622
  0
LINE
  8
0
 10
-5.27254
 20
129.622
 11
-4.96844
 21
129.544
  0
LINE
  8
0
 10
-4.96844
 20
129.544
 11
-4.65697
 21
129.505
  0
LINE
  8
0
 10
-4.65697
 20
129.505
 11
4.65697
 21
129.505
  0
LINE
  8
0
 10
4.65697
 20
129.505
 11
4.96844
 21
129.544
  0
LINE
  8
0
 10
-0.18837
 20
180.006
 11
-0.562134
 21
180.053
  0
LINE
  8
0
 10
-0.562134
 20
180.053
 11
-0.927048
 21
180.147
  0
LINE
  8
0
 10
-0.927048
 20
180.147
 11
-1.27733
 21
180.286
  0
LINE
  8
0
 10
-1.27733
 20
180.286
 11
-1.60747
 21
180.467
  0
LINE
  8
0
 10
-1.60747
 20
180.467
 11
-1.91226
 21
180.688
  0
LINE
  8
0
 10
-1.91226
 20
180.688
 11
-2.1869
 21
180.946
  0
LINE
  8
0
 10
-2.1869
 20
180.946
 11
-2.42705
 21
181.237
  0
LINE
  8
0
 10
-2.42705
 20
181.237
 11
-2.62891
 21
181.555
  0
LINE
  8
0
 10
-2.62891
 20
181.555
 11
-2.78932
 21
181.896
  0
LINE
  8
0
 10
-2.78932
 20
181.896
 11
-2.90575
 21
182.254
  0
LINE
  8
0
 10
-2.90575
 20
182.254
 11
-2.97633
 21
182.624
  0
LINE
  8
0
 10
-2.97633
 20
182.624
 11
-3
 21
183
  0
LINE
  8
0
 10
-3
 20
183
 11
-2.97633
 21
183.376
  0
LINE
  8
0
 10
-2.97633
 20
183.376
 11
-2.90575
 21
183.746
  0
LINE
  8
0
 10
-2.90575
 20
183.746
 11
-2.78932
 21
184.104
  0
LINE
  8
0
 10
-2.78932
 20
184.104
 11
-2.62891
 21
184.445
  0
LINE
  8
0
 10
-2.62891
 20
184.445
 11
-2.42705
 21
184.763
  0
LINE
  8
0
 10
-2.42705
 20
184.763
 11
-2.1869
 21
185.054
  0
LINE
  8
0
 10
-2.1869
 20
185.054
 11
-1.91226
 21
185.312
  0
LINE
  8
0
 10
-1.91226
 20
185.312
 11
-1.60747
 21
185.533
  0
LINE
  8
0
 10
-1.60747
 20
185.533
 11
-1.27733
 21
185.714
  0
LINE
  8
0
 10
-1.27733
 20
185.714
 11
-0.927048
 21
185.853
  0
LINE
  8
0
 10
-0.927048
 20
185.853
 11
-0.562134
 21
185.947
  0
LINE
  8
0
 10
-0.562134
 20
185.947
 11
-0.18837
 21
185.994
  0
LINE
  8
0
 10
-0.18837
 20
185.994
 11
0.18837
 21
185.994
  0
LINE
  8
0
 10
0.18837
 20
185.994
 11
0.562134
 21
185.947
  0
LINE
  8
0
 10
0.562134
 20
185.947
 11
0.927048
 21
185.853
  0
LINE
  8
0
 10
0.927048
 20
185.853
 11
1.27733
 21
185.714
  0
LINE
  8
0
 10
1.27733
 20
185.714
 11
1.60747
 21
185.533
  0
LINE
  8
0
 10
1.60747
 20
185.533
 11
1.91226
 21
185.312
  0
LINE
  8
0
 10
1.91226
 20
185.312
 11
2.1869
 21
185.054
  0
LINE
  8
0
 10
2.1869
 20
185.054
 11
2.42705
 21
184.763
  0
LINE
  8
0
 10
2.42705
 20
184.763
 11
2.62891
 21
184.445
  0
LINE
  8
0
 10
2.62891
 20
184.445
 11
2.78932
 21
184.104
  0
LINE
  8
0
 10
2.78932
 20
184.104
 11
2.90575
 21
183.746
  0
LINE
  8
0
 10
2.90575
 20
183.746
 11
2.97633
 21
183.376
  0
LINE
  8
0
 10
2.97633
 20
183.376
 11
3
 21
183
  0
LINE
  8
0
 10
3
 20
183
 11
2.97633
 21
182.624
  0
LINE
  8
0
 10
2.97633
 20
182.624
 11
2.90575
 21
182.254
  0
LINE
  8
0
 10
2.90575
 20
182.254
 11
2.78932
 21
181.896
  0
LINE
  8
0
 10
2.78932
 20
181.896
 11
2.62891
 21
181.555
  0
LINE
  8
0
 10
2.62891
 20
181.555
 11
2.42705
 21
181.237
  0
LINE
  8
0
 10
2.42705
 20
181.237
 11
2.1869
 21
180.946
  0
LINE
  8
0
 10
2.1869
 20
180.946
 11
1.91226
 21
180.688
  0
LINE
  8
0
 10
1.91226
 20
180.688
 11
1.60747
 21
180.467
  0
LINE
  8
0
 10
1.60747
 20
180.467
 11
1.27733
 21
180.286
  0
LINE
  8
0
 10
1.27733
 20
180.286
 11
0.927048
 21
180.147
  0
LINE
  8
0
 10
0.927048
 20
180.147
 11
0.562134
 21
180.053
  0
LINE
  8
0
 10
0.562134
 20
180.053
 11
0.18837
 21
180.006
  0
LINE
  8
0
 10
0.18837
 20
180.006
 11
-0.18837
 21
180.006
  0
LINE
  8
0
 10
-0.18837
 20
165.006
 11
-0.562134
 21
165.053
  0
LINE
  8
0
 10
-0.562134
 20
165.053
 11
-0.927048
 21
165.147
  0
LINE
  8
0
 10
-0.927048
 20
165.147
 11
-1.27733
 21
165.286
  0
LINE
  8
0
 10
-1.27733
 20
165.286
 11
-1.60747
 21
165.467
  0
LINE
  8
0
 10
-1.60747
 20
165.467
 11
-1.91226
 21
165.688
  0
LINE
  8
0
 10
-1.91226
 20
165.688
 11
-2.1869
 21
165.946
  0
LINE
  8
0
 10
-2.1869
 20
165.946
 11
-2.42705
 21
166.237
  0
LINE
  8
0
 10
-2.42705
 20
166.237
 11
-2.62891
 21
166.555
  0
LINE
  8
0
 10
-2.62891
 20
166.555
 11
-2.78932
 21
166.896
  0
LINE
  8
0
 10
-2.78932
 20
166.896
 11
-2.90575
 21
167.254
  0
LINE
  8
0
 10
-2.90575
 20
167.254
 11
-2.97633
 21
167.624
  0
LINE
  8
0
 10
-2.97633
 20
167.624
 11
-3
 21
168
  0
LINE
  8
0
 10
-3
 20
168
 11
-2.97633
 21
168.376
  0
LINE
  8
0
 10
-2.97633
 20
168.376
 11
-2.90575
 21
168.746
  0
LINE
  8
0
 10
-2.90575
 20
168.746
 11
-2.78932
 21
169.104
  0
LINE
  8
0
 10
-2.78932
 20
169.104
 11
-2.62891
 21
169.445
  0
LINE
  8
0
 10
-2.62891
 20
169.445
 11
-2.42705
 21
169.763
  0
LINE
  8
0
 10
-2.42705
 20
169.763
 11
-2.1869
 21
170.054
  0
LINE
  8
0
 10
-2.1869
 20
170.054
 11
-1.91226
 21
170.312
  0
LINE
  8
0
 10
-1.91226
 20
170.312
 11
-1.60747
 21
170.533
  0
LINE
  8
0
 10
-1.60747
 20
170.533
 11
-1.27733
 21
170.714
  0
LINE
  8
0
 10
-1.27733
 20
170.714
 11
-0.927048
 21
170.853
  0
LINE
  8
0
 10
-0.927048
 20
170.853
 11
-0.562134
 21
170.947
  0
LINE
  8
0
 10
-0.562134
 20
170.947
 11
-0.18837
 21
170.994
  0
LINE
  8
0
 10
-0.18837
 20
170.994
 11
0.18837
 21
170.994
  0
LINE
  8
0
 10
0.18837
 20
170.994
 11
0.562134
 21
170.947
  0
LINE
  8
0
 10
0.562134
 20
170.947
 11
0.927048
 21
170.853
  0
LINE
  8
0
 10
0.927048
 20
170.853
 11
1.27733
 21
170.714
  0
LINE
  8
0
 10
1.27733
 20
170.714
 11
1.60747
 21
170.533
  0
LINE
  8
0
 10
1.60747
 20
170.533
 11
1.91226
 21
170.312
  0
LINE
  8
0
 10
1.91226
 20
170.312
 11
2.1869
 21
170.054
  0
LINE
  8
0
 10
2.1869
 20
170.054
 11
2.42705
 21
169.763
  0
LINE
  8
0
 10
2.42705
 20
169.763
 11
2.62891
 21
169.445
  0
LINE
  8
0
 10
2.62891
 20
169.445
 11
2.78932
 21
169.104
  0
LINE
  8
0
 10
2.78932
 20
169.104
 11
2.90575
 21
168.746
  0
LINE
  8
0
 10
2.90575
 20
168.746
 11
2.97633
 21
168.376
  0
LINE
  8
0
 10
2.97633
 20
168.376
 11
3
 21
168
  0
LINE
  8
0
 10
3
 20
168
 11
2.97633
 21
167.624
  0
LINE
  8
0
 10
2.97633
 20
167.624
 11
2.90575
 21
167.254
  0
LINE
  8
0
 10
2.90575
 20
167.254
 11
2.78932
 21
166.896
  0
LINE
  8
0
 10
2.78932
 20
166.896
 11
2.62891
 21
166.555
  0
LINE
  8
0
 10
2.62891
 20
166.555
 11
2.42705
 21
166.237
  0
LINE
  8
0
 10
2.42705
 20
166.237
 11
2.1869
 21
165.946
  0
LINE
  8
0
 10
2.1869
 20
165.946
 11
1.91226
 21
165.688
  0
LINE
  8
0
 10
1.91226
 20
165.688
 11
1.60747
 21
165.467
  0
LINE
  8
0
 10
1.60747
 20
165.467
 11
1.27733
 21
165.286
  0
LINE
  8
0
 10
1.27733
 20
165.286
 11
0.927048
 21
165.147
  0
LINE
  8
0
 10
0.927048
 20
165.147
 11
0.562134
 21
165.053
  0
LINE
  8
0
 10
0.562134
 20
165.053
 11
0.18837
 21
165.006
  0
LINE
  8
0
 10
0.18837
 20
165.006
 11
-0.18837
 21
165.006
  0
LINE
  8
0
 10
-0.18837
 20
150.006
 11
-0.562134
 21
150.053
  0
LINE
  8
0
 10
-0.562134
 20
150.053
 11
-0.927048
 21
150.147
  0
LINE
  8
0
 10
-0.927048
 20
150.147
 11
-1.27733
 21
150.286
  0
LINE
  8
0
 10
-1.27733
 20
150.286
 11
-1.60747
 21
150.467
  0
LINE
  8
0
 10
-1.60747
 20
150.467
 11
-1.91226
 21
150.688
  0
LINE
  8
0
 10
-1.91226
 20
150.688
 11
-2.1869
 21
150.946
  0
LINE
  8
0
 10
-2.1869
 20
150.946
 11
-2.42705
 21
151.237
  0
LINE
  8
0
 10
-2.42705
 20
151.237
 11
-2.62891
 21
151.555
  0
LINE
  8
0
 10
-2.62891
 20
151.555
 11
-2.78932
 21
151.896
  0
LINE
  8
0
 10
-2.78932
 20
151.896
 11
-2.90575
 21
152.254
  0
LINE
  8
0
 10
-2.90575
 20
152.254
 11
-2.97633
 21
152.624
  0
LINE
  8
0
 10
-2.97633
 20
152.624
 11
-3
 21
153
  0
LINE
  8
0
 10
-3
 20
153
 11
-2.97633
 21
153.376
  0
LINE
  8
0
 10
-2.97633
 20
153.376
 11
-2.90575
 21
153.746
  0
LINE
  8
0
 10
-2.90575
 20
153.746
 11
-2.78932
 21
154.104
  0
LINE
  8
0
 10
-2.78932
 20
154.104
 11
-2.62891
 21
154.445
  0
LINE
  8
0
 10
-2.62891
 20
154.445
 11
-2.42705
 21
154.763
  0
LINE
  8
0
 10
-2.42705
 20
154.763
 11
-2.1869
 21
155.054
  0
LINE
  8
0
 10
-2.1869
 20
155.054
 11
-1.91226
 21
155.312
  0
LINE
  8
0
 10
-1.91226
 20
155.312
 11
-1.60747
 21
155.533
  0
LINE
  8
0
 10
-1.60747
 20
155.533
 11
-1.27733
 21
155.714
  0
LINE
  8
0
 10
-1.27733
 20
155.714
 11
-0.927048
 21
155.853
  0
LINE
  8
0
 10
-0.927048
 20
155.853
 11
-0.562134
 21
155.947
  0
LINE
  8
0
 10
-0.562134
 20
155.947
 11
-0.18837
 21
155.994
  0
LINE
  8
0
 10
-0.18837
 20
155.994
 11
0.18837
 21
155.994
  0
LINE
  8
0
 10
0.18837
 20
155.994
 11
0.562134
 21
155.947
  0
LINE
  8
0
 10
0.562134
 20
155.947
 11
0.927048
 21
155.853
  0
LINE
  8
0
 10
0.927048
 20
155.853
 11
1.27733
 21
155.714
  0
LINE
  8
0
 10
1.27733
 20
155.714
 11
1.60747
 21
155.533
  0
LINE
  8
0
 10
1.60747
 20
155.533
 11
1.91226
 21
155.312
  0
LINE
  8
0
 10
1.91226
 20
155.312
 11
2.1869
 21
155.054
  0
LINE
  8
0
 10
2.1869
 20
155.054
 11
2.42705
 21
154.763
  0
LINE
  8
0
 10
2.42705
 20
154.763
 11
2.62891
 21
154.445
  0
LINE
  8
0
 10
2.62891
 20
154.445
 11
2.78932
 21
154.104
  0
LINE
  8
0
 10
2.78932
 20
154.104
 11
2.90575
 21
153.746
  0
LINE
  8
0
 10
2.90575
 20
153.746
 11
2.97633
 21
153.376
  0
LINE
  8
0
 10
2.97633
 20
153.376
 11
3
 21
153
  0
LINE
  8
0
 10
3
 20
153
 11
2.97633
 21
152.624
  0
LINE
  8
0
 10
2.97633
 20
152.624
 11
2.90575
 21
152.254
  0
LINE
  8
0
 10
2.90575
 20
152.254
 11
2.78932
 21
151.896
  0
LINE
  8
0
 10
2.78932
 20
151.896
 11
2.62891
 21
151.555
  0
LINE
  8
0
 10
2.62891
 20
151.555
 11
2.42705
 21
151.237
  0
LINE
  8
0
 10
2.42705
 20
151.237
 11
2.1869
 21
150.946
  0
LINE
  8
0
 10
2.1869
 20
150.946
 11
1.91226
 21
150.688
  0
LINE
  8
0
 10
1.91226
 20
150.688
 11
1.60747
 21
150.467
  0
LINE
  8
0
 10
1.60747
 20
150.467
 11
1.27733
 21
150.286
  0
LINE
  8
0
 10
1.27733
 20
150.286
 11
0.927048
 21
150.147
  0
LINE
  8
0
 10
0.927048
 20
150.147
 11
0.562134
 21
150.053
  0
LINE
  8
0
 10
0.562134
 20
150.053
 11
0.18837
 21
150.006
  0
LINE
  8
0
 10
0.18837
 20
150.006
 11
-0.18837
 21
150.006
  0
LINE
  8
0
 10
-0.18837
 20
135.006
 11
-0.562134
 21
135.053
  0
LINE
  8
0
 10
-0.562134
 20
135.053
 11
-0.927048
 21
135.147
  0
LINE
  8
0
 10
-0.927048
 20
135.147
 11
-1.27733
 21
135.286
  0
LINE
  8
0
 10
-1.27733
 20
135.286
 11
-1.60747
 21
135.467
  0
LINE
  8
0
 10
-1.60747
 20
135.467
 11
-1.91226
 21
135.688
  0
LINE
  8
0
 10
-1.91226
 20
135.688
 11
-2.1869
 21
135.946
  0
LINE
  8
0
 10
-2.1869
 20
135.946
 11
-2.42705
 21
136.237
  0
LINE
  8
0
 10
-2.42705
 20
136.237
 11
-2.62891
 21
136.555
  0
LINE
  8
0
 10
-2.62891
 20
136.555
 11
-2.78932
 21
136.896
  0
LINE
  8
0
 10
-2.78932
 20
136.896
 11
-2.90575
 21
137.254
  0
LINE
  8
0
 10
-2.90575
 20
137.254
 11
-2.97633
 21
137.624
  0
LINE
  8
0
 10
-2.97633
 20
137.624
 11
-3
 21
138
  0
LINE
  8
0
 10
-3
 20
138
 11
-2.97633
 21
138.376
  0
LINE
  8
0
 10
-2.97633
 20
138.376
 11
-2.90575
 21
138.746
  0
LINE
  8
0
 10
-2.90575
 20
138.746
 11
-2.78932
 21
139.104
  0
LINE
  8
0
 10
-2.78932
 20
139.104
 11
-2.62891
 21
139.445
  0
LINE
  8
0
 10
-2.62891
 20
139.445
 11
-2.42705
 21
139.763
  0
LINE
  8
0
 10
-2.42705
 20
139.763
 11
-2.1869
 21
140.054
  0
LINE
  8
0
 10
-2.1869
 20
140.054
 11
-1.91226
 21
140.312
  0
LINE
  8
0
 10
-1.91226
 20
140.312
 11
-1.60747
 21
140.533
  0
LINE
  8
0
 10
-1.60747
 20
140.533
 11
-1.27733
 21
140.714
  0
LINE
  8
0
 10
-1.27733
 20
140.714
 11
-0.927048
 21
140.853
  0
LINE
  8
0
 10
-0.927048
 20
140.853
 11
-0.562134
 21
140.947
  0
LINE
  8
0
 10
-0.562134
 20
140.947
 11
-0.18837
 21
140.994
  0
LINE
  8
0
 10
-0.18837
 20
140.994
 11
0.18837
 21
140.994
  0
LINE
  8
0
 10
0.18837
 20
140.994
 11
0.562134
 21
140.947
  0
LINE
  8
0
 10
0.562134
 20
140.947
 11
0.927048
 21
140.853
  0
LINE
  8
0
 10
0.927048
 20
140.853
 11
1.27733
 21
140.714
  0
LINE
  8
0
 10
1.27733
 20
140.714
 11
1.60747
 21
140.533
  0
LINE
  8
0
 10
1.60747
 20
140.533
 11
1.91226
 21
140.312
  0
LINE
  8
0
 10
1.91226
 20
140.312
 11
2.1869
 21
140.054
  0
LINE
  8
0
 10
2.1869
 20
140.054
 11
2.42705
 21
139.763
  0
LINE
  8
0
 10
2.42705
 20
139.763
 11
2.62891
 21
139.445
  0
LINE
  8
0
 10
2.62891
 20
139.445
 11
2.78932
 21
139.104
  0
LINE
  8
0
 10
2.78932
 20
139.104
 11
2.90575
 21
138.746
  0
LINE
  8
0
 10
2.90575
 20
138.746
 11
2.97633
 21
138.376
  0
LINE
  8
0
 10
2.97633
 20
138.376
 11
3
 21
138
  0
LINE
  8
0
 10
3
 20
138
 11
2.97633
 21
137.624
  0
LINE
  8
0
 10
2.97633
 20
137.624
 11
2.90575
 21
137.254
  0
LINE
  8
0
 10
2.90575
 20
137.254
 11
2.78932
 21
136.896
  0
LINE
  8
0
 10
2.78932
 20
136.896
 11
2.62891
 21
136.555
  0
LINE
  8
0
 10
2.62891
 20
136.555
 11
2.42705
 21
136.237
  0
LINE
  8
0
 10
2.42705
 20
136.237
 11
2.1869
 21
135.946
  0
LINE
  8
0
 10
2.1869
 20
135.946
 11
1.91226
 21
135.688
  0
LINE
  8
0
 10
1.91226
 20
135.688
 11
1.60747
 21
135.467
  0
LINE
  8
0
 10
1.60747
 20
135.467
 11
1.27733
 21
135.286
  0
LINE
  8
0
 10
1.27733
 20
135.286
 11
0.927048
 21
135.147
  0
LINE
  8
0
 10
0.927048
 20
135.147
 11
0.562134
 21
135.053
  0
LINE
  8
0
 10
0.562134
 20
135.053
 11
0.18837
 21
135.006
  0
LINE
  8
0
 10
0.18837
 20
135.006
 11
-0.18837
 21
135.006
  0
LINE
  8
0
 10
4.96844
 20
45.5443
 11
5.27254
 21
45.6224
  0
LINE
  8
0
 10
5.27254
 20
45.6224
 11
5.56444
 21
45.7379
  0
LINE
  8
0
 10
5.56444
 20
45.7379
 11
5.83955
 21
45.8892
  0
LINE
  8
0
 10
5.83955
 20
45.8892
 11
6.09355
 21
46.0737
  0
LINE
  8
0
 10
6.09355
 20
46.0737
 11
6.32242
 21
46.2886
  0
LINE
  8
0
 10
6.32242
 20
46.2886
 11
6.52254
 21
46.5305
  0
LINE
  8
0
 10
6.52254
 20
46.5305
 11
6.69077
 21
46.7956
  0
LINE
  8
0
 10
6.69077
 20
46.7956
 11
6.82443
 21
47.0797
  0
LINE
  8
0
 10
6.82443
 20
47.0797
 11
6.92145
 21
47.3783
  0
LINE
  8
0
 10
6.92145
 20
47.3783
 11
6.98029
 21
47.6867
  0
LINE
  8
0
 10
6.98029
 20
47.6867
 11
7
 21
48
  0
LINE
  8
0
 10
7
 20
48
 11
7
 21
120
  0
LINE
  8
0
 10
7
 20
120
 11
6.98029
 21
120.313
  0
LINE
  8
0
 10
6.98029
 20
120.313
 11
6.92145
 21
120.622
  0
LINE
  8
0
 10
6.92145
 20
120.622
 11
6.82443
 21
120.92
  0
LINE
  8
0
 10
6.82443
 20
120.92
 11
6.69077
 21
121.204
  0
LINE
  8
0
 10
6.69077
 20
121.204
 11
6.52254
 21
121.469
  0
LINE
  8
0
 10
6.52254
 20
121.469
 11
6.32242
 21
121.711
  0
LINE
  8
0
 10
6.32242
 20
121.711
 11
6.09355
 21
121.926
  0
LINE
  8
0
 10
6.09355
 20
121.926
 11
5.83955
 21
122.111
  0
LINE
  8
0
 10
5.83955
 20
122.111
 11
5.56444
 21
122.262
  0
LINE
  8
0
 10
5.56444
 20
122.262
 11
5.27254
 21
122.378
  0
LINE
  8
0
 10
5.27254
 20
122.378
 11
4.96844
 21
122.456
  0
LINE
  8
0
 10
4.96844
 20
122.456
 11
4.65697
 21
122.495
  0
LINE
  8
0
 10
4.65697
 20
122.495
 11
-4.65697
 21
122.495
  0
LINE
  8
0
 10
-4.65697
 20
122.495
 11
-4.96844
 21
122.456
  0
LINE
  8
0
 10
-4.96844
 20
122.456
 11
-5.27254
 21
122.378
  0
LINE
  8
0
 10
-5.27254
 20
122.378
 11
-5.56444
 21
122.262
  0
LINE
  8
0
 10
-5.56444
 20
122.262
 11
-5.83955
 21
122.111
  0
LINE
  8
0
 10
-5.83955
 20
122.111
 11
-6.09355
 21
121.926
  0
LINE
  8
0
 10
-6.09355
 20
121.926
 11
-6.32242
 21
121.711
  0
LINE
  8
0
 10
-6.32242
 20
121.711
 11
-6.52254
 21
121.469
  0
LINE
  8
0
 10
-6.52254
 20
121.469
 11
-6.69077
 21
121.204
  0
LINE
  8
0
 10
-6.69077
 20
121.204
 11
-6.82443
 21
120.92
  0
LINE
  8
0
 10
-6.82443
 20
120.92
 11
-6.92145
 21
120.622
  0
LINE
  8
0
 10
-6.92145
 20
120.622
 11
-6.98029
 21
120.313
  0
LINE
  8
0
 10
-6.98029
 20
120.313
 11
-7
 21
120
  0
LINE
  8
0
 10
-7
 20
120
 11
-7
 21
118.149
  0
LINE
  8
0
 10
-7
 20
118.149
 11
0
 21
118.149
  0
LINE
  8
0
 10
0
 20
118.149
 11
0
 21
109.851
  0
LINE
  8
0
 10
0
 20
109.851
 11
-7
 21
109.851
  0
LINE
  8
0
 10
-7
 20
109.851
 11
-7
 21
48
  0
LINE
  8
0
 10
-7
 20
48
 11
-6.98029
 21
47.6867
  0
LINE
  8
0
 10
-6.98029
 20
47.6867
 11
-6.92145
 21
47.3783
  0
LINE
  8
0
 10
-6.92145
 20
47.3783
 11
-6.82443
 21
47.0797
  0
LINE
  8
0
 10
-6.82443
 20
47.0797
 11
-6.69077
 21
46.7956
  0
LINE
  8
0
 10
-6.69077
 20
46.7956
 11
-6.52254
 21
46.5305
  0
LINE
  8
0
 10
-6.52254
 20
46.5305
 11
-6.32242
 21
46.2886
  0
LINE
  8
0
 10
-6.32242
 20
46.2886
 11
-6.09355
 21
46.0737
  0
LINE
  8
0
 10
-6.09355
 20
46.0737
 11
-5.83955
 21
45.8892
  0
LINE
  8
0
 10
-5.83955
 20
45.8892
 11
-5.56444
 21
45.7379
  0
LINE
  8
0
 10
-5.56444
 20
45.7379
 11
-5.27254
 21
45.6224
  0
LINE
  8
0
 10
-5.27254
 20
45.6224
 11
-4.96844
 21
45.5443
  0
LINE
  8
0
 10
-4.96844
 20
45.5443
 11
-4.65697
 21
45.5049
  0
LINE
  8
0
 10
-4.65697
 20
45.5049
 11
4.65697
 21
45.5049
  0
LINE
  8
0
 10
4.65697
 20
45.5049
 11
4.96844
 21
45.5443
  0
LINE
  8
0
 10
-0.18837
 20
96.0059
 11
-0.562134
 21
96.0531
  0
LINE
  8
0
 10
-0.562134
 20
96.0531
 11
-0.927048
 21
96.1468
  0
LINE
  8
0
 10
-0.927048
 20
96.1468
 11
-1.27733
 21
96.2855
  0
LINE
  8
0
 10
-1.27733
 20
96.2855
 11
-1.60747
 21
96.467
  0
LINE
  8
0
 10
-1.60747
 20
96.467
 11
-1.91226
 21
96.6884
  0
LINE
  8
0
 10
-1.91226
 20
96.6884
 11
-2.1869
 21
96.9464
  0
LINE
  8
0
 10
-2.1869
 20
96.9464
 11
-2.42705
 21
97.2366
  0
LINE
  8
0
 10
-2.42705
 20
97.2366
 11
-2.62891
 21
97.5547
  0
LINE
  8
0
 10
-2.62891
 20
97.5547
 11
-2.78932
 21
97.8956
  0
LINE
  8
0
 10
-2.78932
 20
97.8956
 11
-2.90575
 21
98.2539
  0
LINE
  8
0
 10
-2.90575
 20
98.2539
 11
-2.97633
 21
98.624
  0
LINE
  8
0
 10
-2.97633
 20
98.624
 11
-3
 21
99
  0
LINE
  8
0
 10
-3
 20
99
 11
-2.97633
 21
99.376
  0
LINE
  8
0
 10
-2.97633
 20
99.376
 11
-2.90575
 21
99.7461
  0
LINE
  8
0
 10
-2.90575
 20
99.7461
 11
-2.78932
 21
100.104
  0
LINE
  8
0
 10
-2.78932
 20
100.104
 11
-2.62891
 21
100.445
  0
LINE
  8
0
 10
-2.62891
 20
100.445
 11
-2.42705
 21
100.763
  0
LINE
  8
0
 10
-2.42705
 20
100.763
 11
-2.1869
 21
101.054
  0
LINE
  8
0
 10
-2.1869
 20
101.054
 11
-1.91226
 21
101.312
  0
LINE
  8
0
 10
-1.91226
 20
101.312
 11
-1.60747
 21
101.533
  0
LINE
  8
0
 10
-1.60747
 20
101.533
 11
-1.27733
 21
101.714
  0
LINE
  8
0
 10
-1.27733
 20
101.714
 11
-0.927048
 21
101.853
  0
LINE
  8
0
 10
-0.927048
 20
101.853
 11
-0.562134
 21
101.947
  0
LINE
  8
0
 10
-0.562134
 20
101.947
 11
-0.18837
 21
101.994
  0
LINE
  8
0
 10
-0.18837
 20
101.994
 11
0.18837
 21
101.994
  0
LINE
  8
0
 10
0.18837
 20
101.994
 11
0.562134
 21
101.947
  0
LINE
  8
0
 10
0.562134
 20
101.947
 11
0.927048
 21
101.853
  0
LINE
  8
0
 10
0.927048
 20
101.853
 11
1.27733
 21
101.714
  0
LINE
  8
0
 10
1.27733
 20
101.714
 11
1.60747
 21
101.533
  0
LINE
  8
0
 10
1.60747
 20
101.533
 11
1.91226
 21
101.312
  0
LINE
  8
0
 10
1.91226
 20
101.312
 11
2.1869
 21
101.054
  0
LINE
  8
0
 10
2.1869
 20
101.054
 11
2.42705
 21
100.763
  0
LINE
  8
0
 10
2.42705
 20
100.763
 11
2.62891
 21
100.445
  0
LINE
  8
0
 10
2.62891
 20
100.445
 11
2.78932
 21
100.104
  0
LINE
  8
0
 10
2.78932
 20
100.104
 11
2.90575
 21
99.7461
  0
LINE
  8
0
 10
2.90575
 20
99.7461
 11
2.97633
 21
99.376
  0
LINE
  8
0
 10
2.97633
 20
99.376
 11
3
 21
99
  0
LINE
  8
0
 10
3
 20
99
 11
2.97633
 21
98.624
  0
LINE
  8
0
 10
2.97633
 20
98.624
 11
2.90575
 21
98.2539
  0
LINE
  8
0
 10
2.90575
 20
98.2539
 11
2.78932
 21
97.8956
  0
LINE
  8
0
 10
2.78932
 20
97.8956
 11
2.62891
 21
97.5547
  0
LINE
  8
0
 10
2.62891
 20
97.5547
 11
2.42705
 21
97.2366
  0
LINE
  8
0
 10
2.42705
 20
97.2366
 11
2.1869
 21
96.9464
  0
LINE
  8
0
 10
2.1869
 20
96.9464
 11
1.91226
 21
96.6884
  0
LINE
  8
0
 10
1.91226
 20
96.6884
 11
1.60747
 21
96.467
  0
LINE
  8
0
 10
1.60747
 20
96.467
 11
1.27733
 21
96.2855
  0
LINE
  8
0
 10
1.27733
 20
96.2855
 11
0.927048
 21
96.1468
  0
LINE
  8
0
 10
0.927048
 20
96.1468
 11
0.562134
 21
96.0531
  0
LINE
  8
0
 10
0.562134
 20
96.0531
 11
0.18837
 21
96.0059
  0
LINE
  8
0
 10
0.18837
 20
96.0059
 11
-0.18837
 21
96.0059
  0
LINE
  8
0
 10
-0.18837
 20
81.0059
 11
-0.562134
 21
81.0531
  0
LINE
  8
0
 10
-0.562134
 20
81.0531
 11
-0.927048
 21
81.1468
  0
LINE
  8
0
 10
-0.927048
 20
81.1468
 11
-1.27733
 21
81.2855
  0
LINE
  8
0
 10
-1.27733
 20
81.2855
 11
-1.60747
 21
81.467
  0
LINE
  8
0
 10
-1.60747
 20
81.467
 11
-1.91226
 21
81.6885
  0
LINE
  8
0
 10
-1.91226
 20
81.6885
 11
-2.1869
 21
81.9464
  0
LINE
  8
0
 10
-2.1869
 20
81.9464
 11
-2.42705
 21
82.2366
  0
LINE
  8
0
 10
-2.42705
 20
82.2366
 11
-2.62891
 21
82.5547
  0
LINE
  8
0
 10
-2.62891
 20
82.5547
 11
-2.78932
 21
82.8956
  0
LINE
  8
0
 10
-2.78932
 20
82.8956
 11
-2.90575
 21
83.2539
  0
LINE
  8
0
 10
-2.90575
 20
83.2539
 11
-2.97633
 21
83.624
  0
LINE
  8
0
 10
-2.97633
 20
83.624
 11
-3
 21
84
  0
LINE
  8
0
 10
-3
 20
84
 11
-2.97633
 21
84.376
  0
LINE
  8
0
 10
-2.97633
 20
84.376
 11
-2.90575
 21
84.7461
  0
LINE
  8
0
 10
-2.90575
 20
84.7461
 11
-2.78932
 21
85.1044
  0
LINE
  8
0
 10
-2.78932
 20
85.1044
 11
-2.62891
 21
85.4453
  0
LINE
  8
0
 10
-2.62891
 20
85.4453
 11
-2.42705
 21
85.7634
  0
LINE
  8
0
 10
-2.42705
 20
85.7634
 11
-2.1869
 21
86.0536
  0
LINE
  8
0
 10
-2.1869
 20
86.0536
 11
-1.91226
 21
86.3115
  0
LINE
  8
0
 10
-1.91226
 20
86.3115
 11
-1.60747
 21
86.533
  0
LINE
  8
0
 10
-1.60747
 20
86.533
 11
-1.27733
 21
86.7145
  0
LINE
  8
0
 10
-1.27733
 20
86.7145
 11
-0.927048
 21
86.8532
  0
LINE
  8
0
 10
-0.927048
 20
86.8532
 11
-0.562134
 21
86.9469
  0
LINE
  8
0
 10
-0.562134
 20
86.9469
 11
-0.18837
 21
86.9941
  0
LINE
  8
0
 10
-0.18837
 20
86.9941
 11
0.18837
 21
86.9941
  0
LINE
  8
0
 10
0.18837
 20
86.9941
 11
0.562134
 21
86.9469
  0
LINE
  8
0
 10
0.562134
 20
86.9469
 11
0.927048
 21
86.8532
  0
LINE
  8
0
 10
0.927048
 20
86.8532
 11
1.27733
 21
86.7145
  0
LINE
  8
0
 10
1.27733
 20
86.7145
 11
1.60747
 21
86.533
  0
LINE
  8
0
 10
1.60747
 20
86.533
 11
1.91226
 21
86.3115
  0
LINE
  8
0
 10
1.91226
 20
86.3115
 11
2.1869
 21
86.0536
  0
LINE
  8
0
 10
2.1869
 20
86.0536
 11
2.42705
 21
85.7634
  0
LINE
  8
0
 10
2.42705
 20
85.7634
 11
2.62891
 21
85.4453
  0
LINE
  8
0
 10
2.62891
 20
85.4453
 11
2.78932
 21
85.1044
  0
LINE
  8
0
 10
2.78932
 20
85.1044
 11
2.90575
 21
84.7461
  0
LINE
  8
0
 10
2.90575
 20
84.7461
 11
2.97633
 21
84.376
  0
LINE
  8
0
 10
2.97633
 20
84.376
 11
3
 21
84
  0
LINE
  8
0
 10
3
 20
84
 11
2.97633
 21
83.624
  0
LINE
  8
0
 10
2.97633
 20
83.624
 11
2.90575
 21
83.2539
  0
LINE
  8
0
 10
2.90575
 20
83.2539
 11
2.78932
 21
82.8956
  0
LINE
  8
0
 10
2.78932
 20
82.8956
 11
2.62891
 21
82.5547
  0
LINE
  8
0
 10
2.62891
 20
82.5547
 11
2.42705
 21
82.2366
  0
LINE
  8
0
 10
2.42705
 20
82.2366
 11
2.1869
 21
81.9464
  0
LINE
  8
0
 10
2.1869
 20
81.9464
 11
1.91226
 21
81.6885
  0
LINE
  8
0
 10
1.91226
 20
81.6885
 11
1.60747
 21
81.467
  0
LINE
  8
0
 10
1.60747
 20
81.467
 11
1.27733
 21
81.2855
  0
LINE
  8
0
 10
1.27733
 20
81.2855
 11
0.927048
 21
81.1468
  0
LINE
  8
0
 10
0.927048
 20
81.1468
 11
0.562134
 21
81.0531
  0
LINE
  8
0
 10
0.562134
 20
81.0531
 11
0.18837
 21
81.0059
  0
LINE
  8
0
 10
0.18837
 20
81.0059
 11
-0.18837
 21
81.0059
  0
LINE
  8
0
 10
-0.18837
 20
66.0059
 11
-0.562134
 21
66.0531
  0
LINE
  8
0
 10
-0.562134
 20
66.0531
 11
-0.927048
 21
66.1468
  0
LINE
  8
0
 10
-0.927048
 20
66.1468
 11
-1.27733
 21
66.2855
  0
LINE
  8
0
 10
-1.27733
 20
66.2855
 11
-1.60747
 21
66.467
  0
LINE
  8
0
 10
-1.60747
 20
66.467
 11
-1.91226
 21
66.6885
  0
LINE
  8
0
 10
-1.91226
 20
66.6885
 11
-2.1869
 21
66.9464
  0
LINE
  8
0
 10
-2.1869
 20
66.9464
 11
-2.42705
 21
67.2366
  0
LINE
  8
0
 10
-2.42705
 20
67.2366
 11
-2.62891
 21
67.5547
  0
LINE
  8
0
 10
-2.62891
 20
67.5547
 11
-2.78932
 21
67.8956
  0
LINE
  8
0
 10
-2.78932
 20
67.8956
 11
-2.90575
 21
68.2539
  0
LINE
  8
0
 10
-2.90575
 20
68.2539
 11
-2.97633
 21
68.624
  0
LINE
  8
0
 10
-2.97633
 20
68.624
 11
-3
 21
69
  0
LINE
  8
0
 10
-3
 20
69
 11
-2.97633
 21
69.376
  0
LINE
  8
0
 10
-2.97633
 20
69.376
 11
-2.90575
 21
69.7461
  0
LINE
  8
0
 10
-2.90575
 20
69.7461
 11
-2.78932
 21
70.1044
  0
LINE
  8
0
 10
-2.78932
 20
70.1044
 11
-2.62891
 21
70.4453
  0
LINE
  8
0
 10
-2.62891
 20
70.4453
 11
-2.42705
 21
70.7634
  0
LINE
  8
0
 10
-2.42705
 20
70.7634
 11
-2.1869
 21
71.0536
  0
LINE
  8
0
 10
-2.1869
 20
71.0536
 11
-1.91226
 21
71.3116
  0
LINE
  8
0
 10
-1.91226
 20
71.3116
 11
-1.60747
 21
71.533
  0
LINE
  8
0
 10
-1.60747
 20
71.533
 11
-1.27733
 21
71.7145
  0
LINE
  8
0
 10
-1.27733
 20
71.7145
 11
-0.927048
 21
71.8532
  0
LINE
  8
0
 10
-0.927048
 20
71.8532
 11
-0.562134
 21
71.9469
  0
LINE
  8
0
 10
-0.562134
 20
71.9469
 11
-0.18837
 21
71.9941
  0
LINE
  8
0
 10
-0.18837
 20
71.9941
 11
0.18837
 21
71.9941
  0
LINE
  8
0
 10
0.18837
 20
71.9941
 11
0.562134
 21
71.9469
  0
LINE
  8
0
 10
0.562134
 20
71.9469
 11
0.927048
 21
71.8532
  0
LINE
  8
0
 10
0.927048
 20
71.8532
 11
1.27733
 21
71.7145
  0
LINE
  8
0
 10
1.27733
 20
71.7145
 11
1.60747
 21
71.533
  0
LINE
  8
0
 10
1.60747
 20
71.533
 11
1.91226
 21
71.3116
  0
LINE
  8
0
 10
1.91226
 20
71.3116
 11
2.1869
 21
71.0536
  0
LINE
  8
0
 10
2.1869
 20
71.0536
 11
2.42705
 21
70.7634
  0
LINE
  8
0
 10
2.42705
 20
70.7634
 11
2.62891
 21
70.4453
  0
LINE
  8
0
 10
2.62891
 20
70.4453
 11
2.78932
 21
70.1044
  0
LINE
  8
0
 10
2.78932
 20
70.1044
 11
2.90575
 21
69.7461
  0
LINE
  8
0
 10
2.90575
 20
69.7461
 11
2.97633
 21
69.376
  0
LINE
  8
0
 10
2.97633
 20
69.376
 11
3
 21
69
  0
LINE
  8
0
 10
3
 20
69
 11
2.97633
 21
68.624
  0
LINE
  8
0
 10
2.97633
 20
68.624
 11
2.90575
 21
68.2539
  0
LINE
  8
0
 10
2.90575
 20
68.2539
 11
2.78932
 21
67.8956
  0
LINE
  8
0
 10
2.78932
 20
67.8956
 11
2.62891
 21
67.5547
  0
LINE
  8
0
 10
2.62891
 20
67.5547
 11
2.42705
 21
67.2366
  0
LINE
  8
0
 10
2.42705
 20
67.2366
 11
2.1869
 21
66.9464
  0
LINE
  8
0
 10
2.1869
 20
66.9464
 11
1.91226
 21
66.6885
  0
LINE
  8
0
 10
1.91226
 20
66.6885
 11
1.60747
 21
66.467
  0
LINE
  8
0
 10
1.60747
 20
66.467
 11
1.27733
 21
66.2855
  0
LINE
  8
0
 10
1.27733
 20
66.2855
 11
0.927048
 21
66.1468
  0
LINE
  8
0
 10
0.927048
 20
66.1468
 11
0.562134
 21
66.0531
  0
LINE
  8
0
 10
0.562134
 20
66.0531
 11
0.18837
 21
66.0059
  0
LINE
  8
0
 10
0.18837
 20
66.0059
 11
-0.18837
 21
66.0059
  0
LINE
  8
0
 10
-0.18837
 20
51.0059
 11
-0.562134
 21
51.0531
  0
LINE
  8
0
 10
-0.562134
 20
51.0531
 11
-0.927048
 21
51.1468
  0
LINE
  8
0
 10
-0.927048
 20
51.1468
 11
-1.27733
 21
51.2855
  0
LINE
  8
0
 10
-1.27733
 20
51.2855
 11
-1.60747
 21
51.467
  0
LINE
  8
0
 10
-1.60747
 20
51.467
 11
-1.91226
 21
51.6885
  0
LINE
  8
0
 10
-1.91226
 20
51.6885
 11
-2.1869
 21
51.9464
  0
LINE
  8
0
 10
-2.1869
 20
51.9464
 11
-2.42705
 21
52.2366
  0
LINE
  8
0
 10
-2.42705
 20
52.2366
 11
-2.62891
 21
52.5547
  0
LINE
  8
0
 10
-2.62891
 20
52.5547
 11
-2.78932
 21
52.8956
  0
LINE
  8
0
 10
-2.78932
 20
52.8956
 11
-2.90575
 21
53.2539
  0
LINE
  8
0
 10
-2.90575
 20
53.2539
 11
-2.97633
 21
53.624
  0
LINE
  8
0
 10
-2.97633
 20
53.624
 11
-3
 21
54
  0
LINE
  8
0
 10
-3
 20
54
 11
-2.97633
 21
54.376
  0
LINE
  8
0
 10
-2.97633
 20
54.376
 11
-2.90575
 21
54.7461
  0
LINE
  8
0
 10
-2.90575
 20
54.7461
 11
-2.78932
 21
55.1044
  0
LINE
  8
0
 10
-2.78932
 20
55.1044
 11
-2.62891
 21
55.4453
  0
LINE
  8
0
 10
-2.62891
 20
55.4453
 11
-2.42705
 21
55.7634
  0
LINE
  8
0
 10
-2.42705
 20
55.7634
 11
-2.1869
 21
56.0536
  0
LINE
  8
0
 10
-2.1869
 20
56.0536
 11
-1.91226
 21
56.3116
  0
LINE
  8
0
 10
-1.91226
 20
56.3116
 11
-1.60747
 21
56.533
  0
LINE
  8
0
 10
-1.60747
 20
56.533
 11
-1.27733
 21
56.7145
  0
LINE
  8
0
 10
-1.27733
 20
56.7145
 11
-0.927048
 21
56.8532
  0
LINE
  8
0
 10
-0.927048
 20
56.8532
 11
-0.562134
 21
56.9469
  0
LINE
  8
0
 10
-0.562134
 20
56.9469
 11
-0.18837
 21
56.9941
  0
LINE
  8
0
 10
-0.18837
 20
56.9941
 11
0.18837
 21
56.9941
  0
LINE
  8
0
 10
0.18837
 20
56.9941
 11
0.562134
 21
56.9469
  0
LINE
  8
0
 10
0.562134
 20
56.9469
 11
0.927048
 21
56.8532
  0
LINE
  8
0
 10
0.927048
 20
56.8532
 11
1.27733
 21
56.7145
  0
LINE
  8
0
 10
1.27733
 20
56.7145
 11
1.60747
 21
56.533
  0
LINE
  8
0
 10
1.60747
 20
56.533
 11
1.91226
 21
56.3116
  0
LINE
  8
0
 10
1.91226
 20
56.3116
 11
2.1869
 21
56.0536
  0
LINE
  8
0
 10
2.1869
 20
56.0536
 11
2.42705
 21
55.7634
  0
LINE
  8
0
 10
2.42705
 20
55.7634
 11
2.62891
 21
55.4453
  0
LINE
  8
0
 10
2.62891
 20
55.4453
 11
2.78932
 21
55.1044
  0
LINE
  8
0
 10
2.78932
 20
55.1044
 11
2.90575
 21
54.7461
  0
LINE
  8
0
 10
2.90575
 20
54.7461
 11
2.97633
 21
54.376
  0
LINE
  8
0
 10
2.97633
 20
54.376
 11
3
 21
54
  0
LINE
  8
0
 10
3
 20
54
 11
2.97633
 21
53.624
  0
LINE
  8
0
 10
2.97633
 20
53.624
 11
2.90575
 21
53.2539
  0
LINE
  8
0
 10
2.90575
 20
53.2539
 11
2.78932
 21
52.8956
  0
LINE
  8
0
 10
2.78932
 20
52.8956
 11
2.62891
 21
52.5547
  0
LINE
  8
0
 10
2.62891
 20
52.5547
 11
2.42705
 21
52.2366
  0
LINE
  8
0
 10
2.42705
 20
52.2366
 11
2.1869
 21
51.9464
  0
LINE
  8
0
 10
2.1869
 20
51.9464
 11
1.91226
 21
51.6885
  0
LINE
  8
0
 10
1.91226
 20
51.6885
 11
1.60747
 21
51.467
  0
LINE
  8
0
 10
1.60747
 20
51.467
 11
1.27733
 21
51.2855
  0
LINE
  8
0
 10
1.27733
 20
51.2855
 11
0.927048
 21
51.1468
  0
LINE
  8
0
 10
0.927048
 20
51.1468
 11
0.562134
 21
51.0531
  0
LINE
  8
0
 10
0.562134
 20
51.0531
 11
0.18837
 21
51.0059
  0
LINE
  8
0
 10
0.18837
 20
51.0059
 11
-0.18837
 21
51.0059
  0
LINE
  8
0
 10
4.96844
 20
-38.4557
 11
5.27254
 21
-38.3776
  0
LINE
  8
0
 10
5.27254
 20
-38.3776
 11
5.56444
 21
-38.2621
  0
LINE
  8
0
 10
5.56444
 20
-38.2621
 11
5.83955
 21
-38.1108
  0
LINE
  8
0
 10
5.83955
 20
-38.1108
 11
6.09355
 21
-37.9263
  0
LINE
  8
0
 10
6.09355
 20
-37.9263
 11
6.32242
 21
-37.7114
  0
LINE
  8
0
 10
6.32242
 20
-37.7114
 11
6.52254
 21
-37.4695
  0
LINE
  8
0
 10
6.52254
 20
-37.4695
 11
6.69077
 21
-37.2044
  0
LINE
  8
0
 10
6.69077
 20
-37.2044
 11
6.82443
 21
-36.9203
  0
LINE
  8
0
 10
6.82443
 20
-36.9203
 11
6.92145
 21
-36.6217
  0
LINE
  8
0
 10
6.92145
 20
-36.6217
 11
6.98029
 21
-36.3133
  0
LINE
  8
0
 10
6.98029
 20
-36.3133
 11
7
 21
-36
  0
LINE
  8
0
 10
7
 20
-36
 11
7
 21
36
  0
LINE
  8
0
 10
7
 20
36
 11
6.98029
 21
36.3133
  0
LINE
  8
0
 10
6.98029
 20
36.3133
 11
6.92145
 21
36.6217
  0
LINE
  8
0
 10
6.92145
 20
36.6217
 11
6.82443
 21
36.9203
  0
LINE
  8
0
 10
6.82443
 20
36.9203
 11
6.69077
 21
37.2044
  0
LINE
  8
0
 10
6.69077
 20
37.2044
 11
6.52254
 21
37.4695
  0
LINE
  8
0
 10
6.52254
 20
37.4695
 11
6.32242
 21
37.7114
  0
LINE
  8
0
 10
6.32242
 20
37.7114
 11
6.09355
 21
37.9263
  0
LINE
  8
0
 10
6.09355
 20
37.9263
 11
5.83955
 21
38.1108
  0
LINE
  8
0
 10
5.83955
 20
38.1108
 11
5.56444
 21
38.2621
  0
LINE
  8
0
 10
5.56444
 20
38.2621
 11
5.27254
 21
38.3776
  0
LINE
  8
0
 10
5.27254
 20
38.3776
 11
4.96844
 21
38.4557
  0
LINE
  8
0
 10
4.96844
 20
38.4557
 11
4.65697
 21
38.4951
  0
LINE
  8
0
 10
4.65697
 20
38.4951
 11
-4.65697
 21
38.4951
  0
LINE
  8
0
 10
-4.65697
 20
38.4951
 11
-4.96844
 21
38.4557
  0
LINE
  8
0
 10
-4.96844
 20
38.4557
 11
-5.27254
 21
38.3776
  0
LINE
  8
0
 10
-5.27254
 20
38.3776
 11
-5.56444
 21
38.2621
  0
LINE
  8
0
 10
-5.56444
 20
38.2621
 11
-5.83955
 21
38.1108
  0
LINE
  8
0
 10
-5.83955
 20
38.1108
 11
-6.09355
 21
37.9263
  0
LINE
  8
0
 10
-6.09355
 20
37.9263
 11
-6.32242
 21
37.7114
  0
LINE
  8
0
 10
-6.32242
 20
37.7114
 11
-6.52254
 21
37.4695
  0
LINE
  8
0
 10
-6.52254
 20
37.4695
 11
-6.69077
 21
37.2044
  0
LINE
  8
0
 10
-6.69077
 20
37.2044
 11
-6.82443
 21
36.9203
  0
LINE
  8
0
 10
-6.82443
 20
36.9203
 11
-6.92145
 21
36.6217
  0
LINE
  8
0
 10
-6.92145
 20
36.6217
 11
-6.98029
 21
36.3133
  0
LINE
  8
0
 10
-6.98029
 20
36.3133
 11
-7
 21
36
  0
LINE
  8
0
 10
-7
 20
36
 11
-7
 21
-36
  0
LINE
  8
0
 10
-7
 20
-36
 11
-6.98029
 21
-36.3133
  0
LINE
  8
0
 10
-6.98029
 20
-36.3133
 11
-6.92145
 21
-36.6217
  0
LINE
  8
0
 10
-6.92145
 20
-36.6217
 11
-6.82443
 21
-36.9203
  0
LINE
  8
0
 10
-6.82443
 20
-36.9203
 11
-6.69077
 21
-37.2044
  0
LINE
  8
0
 10
-6.69077
 20
-37.2044
 11
-6.52254
 21
-37.4695
  0
LINE
  8
0
 10
-6.52254
 20
-37.4695
 11
-6.32242
 21
-37.7114
  0
LINE
  8
0
 10
-6.32242
 20
-37.7114
 11
-6.09355
 21
-37.9263
  0
LINE
  8
0
 10
-6.09355
 20
-37.9263
 11
-5.83955
 21
-38.1108
  0
LINE
  8
0
 10
-5.83955
 20
-38.1108
 11
-5.56444
 21
-38.2621
  0
LINE
  8
0
 10
-5.56444
 20
-38.2621
 11
-5.27254
 21
-38.3776
  0
LINE
  8
0
 10
-5.27254
 20
-38.3776
 11
-4.96844
 21
-38.4557
  0
LINE
  8
0
 10
-4.96844
 20
-38.4557
 11
-4.65697
 21
-38.4951
  0
LINE
  8
0
 10
-4.65697
 20
-38.4951
 11
4.65697
 21
-38.4951
  0
LINE
  8
0
 10
4.65697
 20
-38.4951
 11
4.96844
 21
-38.4557
  0
LINE
  8
0
 10
-0.18837
 20
12.0059
 11
-0.562134
 21
12.0531
  0
LINE
  8
0
 10
-0.562134
 20
12.0531
 11
-0.927048
 21
12.1468
  0
LINE
  8
0
 10
-0.927048
 20
12.1468
 11
-1.27733
 21
12.2855
  0
LINE
  8
0
 10
-1.27733
 20
12.2855
 11
-1.60747
 21
12.467
  0
LINE
  8
0
 10
-1.60747
 20
12.467
 11
-1.91226
 21
12.6884
  0
LINE
  8
0
 10
-1.91226
 20
12.6884
 11
-2.1869
 21
12.9464
  0
LINE
  8
0
 10
-2.1869
 20
12.9464
 11
-2.42705
 21
13.2366
  0
LINE
  8
0
 10
-2.42705
 20
13.2366
 11
-2.62891
 21
13.5547
  0
LINE
  8
0
 10
-2.62891
 20
13.5547
 11
-2.78932
 21
13.8956
  0
LINE
  8
0
 10
-2.78932
 20
13.8956
 11
-2.90575
 21
14.2539
  0
LINE
  8
0
 10
-2.90575
 20
14.2539
 11
-2.97633
 21
14.624
  0
LINE
  8
0
 10
-2.97633
 20
14.624
 11
-3
 21
15
  0
LINE
  8
0
 10
-3
 20
15
 11
-2.97633
 21
15.376
  0
LINE
  8
0
 10
-2.97633
 20
15.376
 11
-2.90575
 21
15.7461
  0
LINE
  8
0
 10
-2.90575
 20
15.7461
 11
-2.78932
 21
16.1044
  0
LINE
  8
0
 10
-2.78932
 20
16.1044
 11
-2.62891
 21
16.4453
  0
LINE
  8
0
 10
-2.62891
 20
16.4453
 11
-2.42705
 21
16.7634
  0
LINE
  8
0
 10
-2.42705
 20
16.7634
 11
-2.1869
 21
17.0536
  0
LINE
  8
0
 10
-2.1869
 20
17.0536
 11
-1.91226
 21
17.3115
  0
LINE
  8
0
 10
-1.91226
 20
17.3115
 11
-1.60747
 21
17.533
  0
LINE
  8
0
 10
-1.60747
 20
17.533
 11
-1.27733
 21
17.7145
  0
LINE
  8
0
 10
-1.27733
 20
17.7145
 11
-0.927048
 21
17.8532
  0
LINE
  8
0
 10
-0.927048
 20
17.8532
 11
-0.562134
 21
17.9469
  0
LINE
  8
0
 10
-0.562134
 20
17.9469
 11
-0.18837
 21
17.9941
  0
LINE
  8
0
 10
-0.18837
 20
17.9941
 11
0.18837
 21
17.9941
  0
LINE
  8
0
 10
0.18837
 20
17.9941
 11
0.562134
 21
17.9469
  0
LINE
  8
0
 10
0.562134
 20
17.9469
 11
0.927048
 21
17.8532
  0
LINE
  8
0
 10
0.927048
 20
17.8532
 11
1.27733
 21
17.7145
  0
LINE
  8
0
 10
1.27733
 20
17.7145
 11
1.60747
 21
17.533
  0
LINE
  8
0
 10
1.60747
 20
17.533
 11
1.91226
 21
17.3115
  0
LINE
  8
0
 10
1.91226
 20
17.3115
 11
2.1869
 21
17.0536
  0
LINE
  8
0
 10
2.1869
 20
17.0536
 11
2.42705
 21
16.7634
  0
LINE
  8
0
 10
2.42705
 20
16.7634
 11
2.62891
 21
16.4453
  0
LINE
  8
0
 10
2.62891
 20
16.4453
 11
2.78932
 21
16.1044
  0
LINE
  8
0
 10
2.78932
 20
16.1044
 11
2.90575
 21
15.7461
  0
LINE
  8
0
 10
2.90575
 20
15.7461
 11
2.97633
 21
15.376
  0
LINE
  8
0
 10
2.97633
 20
15.376
 11
3
 21
15
  0
LINE
  8
0
 10
3
 20
15
 11
2.97633
 21
14.624
  0
LINE
  8
0
 10
2.97633
 20
14.624
 11
2.90575
 21
14.2539
  0
LINE
  8
0
 10
2.90575
 20
14.2539
 11
2.78932
 21
13.8956
  0
LINE
  8
0
 10
2.78932
 20
13.8956
 11
2.62891
 21
13.5547
  0
LINE
  8
0
 10
2.62891
 20
13.5547
 11
2.42705
 21
13.2366
  0
LINE
  8
0
 10
2.42705
 20
13.2366
 11
2.1869
 21
12.9464
  0
LINE
  8
0
 10
2.1869
 20
12.9464
 11
1.91226
 21
12.6884
  0
LINE
  8
0
 10
1.91226
 20
12.6884
 11
1.60747
 21
12.467
  0
LINE
  8
0
 10
1.60747
 20
12.467
 11
1.27733
 21
12.2855
  0
LINE
  8
0
 10
1.27733
 20
12.2855
 11
0.927048
 21
12.1468
  0
LINE
  8
0
 10
0.927048
 20
12.1468
 11
0.562134
 21
12.0531
  0
LINE
  8
0
 10
0.562134
 20
12.0531
 11
0.18837
 21
12.0059
  0
LINE
  8
0
 10
0.18837
 20
12.0059
 11
-0.18837
 21
12.0059
  0
LINE
  8
0
 10
-0.18837
 20
-2.99408
 11
-0.562134
 21
-2.94685
  0
LINE
  8
0
 10
-0.562134
 20
-2.94685
 11
-0.927048
 21
-2.85316
  0
LINE
  8
0
 10
-0.927048
 20
-2.85316
 11
-1.27733
 21
-2.71448
  0
LINE
  8
0
 10
-1.27733
 20
-2.71448
 11
-1.60747
 21
-2.53297
  0
LINE
  8
0
 10
-1.60747
 20
-2.53297
 11
-1.91226
 21
-2.31154
  0
LINE
  8
0
 10
-1.91226
 20
-2.31154
 11
-2.1869
 21
-2.05363
  0
LINE
  8
0
 10
-2.1869
 20
-2.05363
 11
-2.42705
 21
-1.76335
  0
LINE
  8
0
 10
-2.42705
 20
-1.76335
 11
-2.62891
 21
-1.44525
  0
LINE
  8
0
 10
-2.62891
 20
-1.44525
 11
-2.78932
 21
-1.10437
  0
LINE
  8
0
 10
-2.78932
 20
-1.10437
 11
-2.90575
 21
-0.746063
  0
LINE
  8
0
 10
-2.90575
 20
-0.746063
 11
-2.97633
 21
-0.375992
  0
LINE
  8
0
 10
-2.97633
 20
-0.375992
 11
-3
 21
0
  0
LINE
  8
0
 10
-3
 20
0
 11
-2.97633
 21
0.375992
  0
LINE
  8
0
 10
-2.97633
 20
0.375992
 11
-2.90575
 21
0.746063
  0
LINE
  8
0
 10
-2.90575
 20
0.746063
 11
-2.78932
 21
1.10437
  0
LINE
  8
0
 10
-2.78932
 20
1.10437
 11
-2.62891
 21
1.44525
  0
LINE
  8
0
 10
-2.62891
 20
1.44525
 11
-2.42705
 21
1.76335
  0
LINE
  8
0
 10
-2.42705
 20
1.76335
 11
-2.1869
 21
2.05363
  0
LINE
  8
0
 10
-2.1869
 20
2.05363
 11
-1.91226
 21
2.31154
  0
LINE
  8
0
 10
-1.91226
 20
2.31154
 11
-1.60747
 21
2.53297
  0
LINE
  8
0
 10
-1.60747
 20
2.53297
 11
-1.27733
 21
2.71448
  0
LINE
  8
0
 10
-1.27733
 20
2.71448
 11
-0.927048
 21
2.85316
  0
LINE
  8
0
 10
-0.927048
 20
2.85316
 11
-0.562134
 21
2.94685
  0
LINE
  8
0
 10
-0.562134
 20
2.94685
 11
-0.18837
 21
2.99408
  0
LINE
  8
0
 10
-0.18837
 20
2.99408
 11
0.18837
 21
2.99408
  0
LINE
  8
0
 10
0.18837
 20
2.99408
 11
0.562134
 21
2.94685
  0
LINE
  8
0
 10
0.562134
 20
2.94685
 11
0.927048
 21
2.85316
  0
LINE
  8
0
 10
0.927048
 20
2.85316
 11
1.27733
 21
2.71448
  0
LINE
  8
0
 10
1.27733
 20
2.71448
 11
1.60747
 21
2.53297
  0
LINE
  8
0
 10
1.60747
 20
2.53297
 11
1.91226
 21
2.31154
  0
LINE
  8
0
 10
1.91226
 20
2.31154
 11
2.1869
 21
2.05363
  0
LINE
  8
0
 10
2.1869
 20
2.05363
 11
2.42705
 21
1.76335
  0
LINE
  8
0
 10
2.42705
 20
1.76335
 11
2.62891
 21
1.44525
  0
LINE
  8
0
 10
2.62891
 20
1.44525
 11
2.78932
 21
1.10437
  0
LINE
  8
0
 10
2.78932
 20
1.10437
 11
2.90575
 21
0.746063
  0
LINE
  8
0
 10
2.90575
 20
0.746063
 11
2.97633
 21
0.375992
  0
LINE
  8
0
 10
2.97633
 20
0.375992
 11
3
 21
0
  0
LINE
  8
0
 10
3
 20
0
 11
2.97633
 21
-0.375992
  0
LINE
  8
0
 10
2.97633
 20
-0.375992
 11
2.90575
 21
-0.746063
  0
LINE
  8
0
 10
2.90575
 20
-0.746063
 11
2.78932
 21
-1.10437
  0
LINE
  8
0
 10
2.78932
 20
-1.10437
 11
2.62891
 21
-1.44525
  0
LINE
  8
0
 10
2.62891
 20
-1.44525
 11
2.42705
 21
-1.76335
  0
LINE
  8
0
 10
2.42705
 20
-1.76335
 11
2.1869
 21
-2.05363
  0
LINE
  8
0
 10
2.1869
 20
-2.05363
 11
1.91226
 21
-2.31154
  0
LINE
  8
0
 10
1.91226
 20
-2.31154
 11
1.60747
 21
-2.53297
  0
LINE
  8
0
 10
1.60747
 20
-2.53297
 11
1.27733
 21
-2.71448
  0
LINE
  8
0
 10
1.27733
 20
-2.71448
 11
0.927048
 21
-2.85316
  0
LINE
  8
0
 10
0.927048
 20
-2.85316
 11
0.562134
 21
-2.94685
  0
LINE
  8
0
 10
0.562134
 20
-2.94685
 11
0.18837
 21
-2.99408
  0
LINE
  8
0
 10
0.18837
 20
-2.99408
 11
-0.18837
 21
-2.99408
  0
LINE
  8
0
 10
-0.18837
 20
-17.9941
 11
-0.562134
 21
-17.9469
  0
LINE
  8
0
 10
-0.562134
 20
-17.9469
 11
-0.927048
 21
-17.8532
  0
LINE
  8
0
 10
-0.927048
 20
-17.8532
 11
-1.27733
 21
-17.7145
  0
LINE
  8
0
 10
-1.27733
 20
-17.7145
 11
-1.60747
 21
-17.533
  0
LINE
  8
0
 10
-1.60747
 20
-17.533
 11
-1.91226
 21
-17.3115
  0
LINE
  8
0
 10
-1.91226
 20
-17.3115
 11
-2.1869
 21
-17.0536
  0
LINE
  8
0
 10
-2.1869
 20
-17.0536
 11
-2.42705
 21
-16.7634
  0
LINE
  8
0
 10
-2.42705
 20
-16.7634
 11
-2.62891
 21
-16.4453
  0
LINE
  8
0
 10
-2.62891
 20
-16.4453
 11
-2.78932
 21
-16.1044
  0
LINE
  8
0
 10
-2.78932
 20
-16.1044
 11
-2.90575
 21
-15.7461
  0
LINE
  8
0
 10
-2.90575
 20
-15.7461
 11
-2.97633
 21
-15.376
  0
LINE
  8
0
 10
-2.97633
 20
-15.376
 11
-3
 21
-15
  0
LINE
  8
0
 10
-3
 20
-15
 11
-2.97633
 21
-14.624
  0
LINE
  8
0
 10
-2.97633
 20
-14.624
 11
-2.90575
 21
-14.2539
  0
LINE
  8
0
 10
-2.90575
 20
-14.2539
 11
-2.78932
 21
-13.8956
  0
LINE
  8
0
 10
-2.78932
 20
-13.8956
 11
-2.62891
 21
-13.5547
  0
LINE
  8
0
 10
-2.62891
 20
-13.5547
 11
-2.42705
 21
-13.2366
  0
LINE
  8
0
 10
-2.42705
 20
-13.2366
 11
-2.1869
 21
-12.9464
  0
LINE
  8
0
 10
-2.1869
 20
-12.9464
 11
-1.91226
 21
-12.6884
  0
LINE
  8
0
 10
-1.91226
 20
-12.6884
 11
-1.60747
 21
-12.467
  0
LINE
  8
0
 10
-1.60747
 20
-12.467
 11
-1.27733
 21
-12.2855
  0
LINE
  8
0
 10
-1.27733
 20
-12.2855
 11
-0.927048
 21
-12.1468
  0
LINE
  8
0
 10
-0.927048
 20
-12.1468
 11
-0.562134
 21
-12.0531
  0
LINE
  8
0
 10
-0.562134
 20
-12.0531
 11
-0.18837
 21
-12.0059
  0
LINE
  8
0
 10
-0.18837
 20
-12.0059
 11
0.18837
 21
-12.0059
  0
LINE
  8
0
 10
0.18837
 20
-12.0059
 11
0.562134
 21
-12.0531
  0
LINE
  8
0
 10
0.562134
 20
-12.0531
 11
0.927048
 21
-12.1468
  0
LINE
  8
0
 10
0.927048
 20
-12.1468
 11
1.27733
 21
-12.2855
  0
LINE
  8
0
 10
1.27733
 20
-12.2855
 11
1.60747
 21
-12.467
  0
LINE
  8
0
 10
1.60747
 20
-12.467
 11
1.91226
 21
-12.6884
  0
LINE
  8
0
 10
1.91226
 20
-12.6884
 11
2.1869
 21
-12.9464
  0
LINE
  8
0
 10
2.1869
 20
-12.9464
 11
2.42705
 21
-13.2366
  0
LINE
  8
0
 10
2.42705
 20
-13.2366
 11
2.62891
 21
-13.5547
  0
LINE
  8
0
 10
2.62891
 20
-13.5547
 11
2.78932
 21
-13.8956
  0
LINE
  8
0
 10
2.78932
 20
-13.8956
 11
2.90575
 21
-14.2539
  0
LINE
  8
0
 10
2.90575
 20
-14.2539
 11
2.97633
 21
-14.624
  0
LINE
  8
0
 10
2.97633
 20
-14.624
 11
3
 21
-15
  0
LINE
  8
0
 10
3
 20
-15
 11
2.97633
 21
-15.376
  0
LINE
  8
0
 10
2.97633
 20
-15.376
 11
2.90575
 21
-15.7461
  0
LINE
  8
0
 10
2.90575
 20
-15.7461
 11
2.78932
 21
-16.1044
  0
LINE
  8
0
 10
2.78932
 20
-16.1044
 11
2.62891
 21
-16.4453
  0
LINE
  8
0
 10
2.62891
 20
-16.4453
 11
2.42705
 21
-16.7634
  0
LINE
  8
0
 10
2.42705
 20
-16.7634
 11
2.1869
 21
-17.0536
  0
LINE
  8
0
 10
2.1869
 20
-17.0536
 11
1.91226
 21
-17.3115
  0
LINE
  8
0
 10
1.91226
 20
-17.3115
 11
1.60747
 21
-17.533
  0
LINE
  8
0
 10
1.60747
 20
-17.533
 11
1.27733
 21
-17.7145
  0
LINE
  8
0
 10
1.27733
 20
-17.7145
 11
0.927048
 21
-17.8532
  0
LINE
  8
0
 10
0.927048
 20
-17.8532
 11
0.562134
 21
-17.9469
  0
LINE
  8
0
 10
0.562134
 20
-17.9469
 11
0.18837
 21
-17.9941
  0
LINE
  8
0
 10
0.18837
 20
-17.9941
 11
-0.18837
 21
-17.9941
  0
LINE
  8
0
 10
-0.18837
 20
-32.9941
 11
-0.562134
 21
-32.9469
  0
LINE
  8
0
 10
-0.562134
 20
-32.9469
 11
-0.927048
 21
-32.8532
  0
LINE
  8
0
 10
-0.927048
 20
-32.8532
 11
-1.27733
 21
-32.7145
  0
LINE
  8
0
 10
-1.27733
 20
-32.7145
 11
-1.60747
 21
-32.533
  0
LINE
  8
0
 10
-1.60747
 20
-32.533
 11
-1.91226
 21
-32.3115
  0
LINE
  8
0
 10
-1.91226
 20
-32.3115
 11
-2.1869
 21
-32.0536
  0
LINE
  8
0
 10
-2.1869
 20
-32.0536
 11
-2.42705
 21
-31.7634
  0
LINE
  8
0
 10
-2.42705
 20
-31.7634
 11
-2.62891
 21
-31.4453
  0
LINE
  8
0
 10
-2.62891
 20
-31.4453
 11
-2.78932
 21
-31.1044
  0
LINE
  8
0
 10
-2.78932
 20
-31.1044
 11
-2.90575
 21
-30.7461
  0
LINE
  8
0
 10
-2.90575
 20
-30.7461
 11
-2.97633
 21
-30.376
  0
LINE
  8
0
 10
-2.97633
 20
-30.376
 11
-3
 21
-30
  0
LINE
  8
0
 10
-3
 20
-30
 11
-2.97633
 21
-29.624
  0
LINE
  8
0
 10
-2.97633
 20
-29.624
 11
-2.90575
 21
-29.2539
  0
LINE
  8
0
 10
-2.90575
 20
-29.2539
 11
-2.78932
 21
-28.8956
  0
LINE
  8
0
 10
-2.78932
 20
-28.8956
 11
-2.62891
 21
-28.5547
  0
LINE
  8
0
 10
-2.62891
 20
-28.5547
 11
-2.42705
 21
-28.2366
  0
LINE
  8
0
 10
-2.42705
 20
-28.2366
 11
-2.1869
 21
-27.9464
  0
LINE
  8
0
 10
-2.1869
 20
-27.9464
 11
-1.91226
 21
-27.6884
  0
LINE
  8
0
 10
-1.91226
 20
-27.6884
 11
-1.60747
 21
-27.467
  0
LINE
  8
0
 10
-1.60747
 20
-27.467
 11
-1.27733
 21
-27.2855
  0
LINE
  8
0
 10
-1.27733
 20
-27.2855
 11
-0.927048
 21
-27.1468
  0
LINE
  8
0
 10
-0.927048
 20
-27.1468
 11
-0.562134
 21
-27.0531
  0
LINE
  8
0
 10
-0.562134
 20
-27.0531
 11
-0.18837
 21
-27.0059
  0
LINE
  8
0
 10
-0.18837
 20
-27.0059
 11
0.18837
 21
-27.0059
  0
LINE
  8
0
 10
0.18837
 20
-27.0059
 11
0.562134
 21
-27.0531
  0
LINE
  8
0
 10
0.562134
 20
-27.0531
 11
0.927048
 21
-27.1468
  0
LINE
  8
0
 10
0.927048
 20
-27.1468
 11
1.27733
 21
-27.2855
  0
LINE
  8
0
 10
1.27733
 20
-27.2855
 11
1.60747
 21
-27.467
  0
LINE
  8
0
 10
1.60747
 20
-27.467
 11
1.91226
 21
-27.6884
  0
LINE
  8
0
 10
1.91226
 20
-27.6884
 11
2.1869
 21
-27.9464
  0
LINE
  8
0
 10
2.1869
 20
-27.9464
 11
2.42705
 21
-28.2366
  0
LINE
  8
0
 10
2.42705
 20
-28.2366
 11
2.62891
 21
-28.5547
  0
LINE
  8
0
 10
2.62891
 20
-28.5547
 11
2.78932
 21
-28.8956
  0
LINE
  8
0
 10
2.78932
 20
-28.8956
 11
2.90575
 21
-29.2539
  0
LINE
  8
0
 10
2.90575
 20
-29.2539
 11
2.97633
 21
-29.624
  0
LINE
  8
0
 10
2.97633
 20
-29.624
 11
3
 21
-30
  0
LINE
  8
0
 10
3
 20
-30
 11
2.97633
 21
-30.376
  0
LINE
  8
0
 10
2.97633
 20
-30.376
 11
2.90575
 21
-30.7461
  0
LINE
  8
0
 10
2.90575
 20
-30.7461
 11
2.78932
 21
-31.1044
  0
LINE
  8
0
 10
2.78932
 20
-31.1044
 11
2.62891
 21
-31.4453
  0
LINE
  8
0
 10
2.62891
 20
-31.4453
 11
2.42705
 21
-31.7634
  0
LINE
  8
0
 10
2.42705
 20
-31.7634
 11
2.1869
 21
-32.0536
  0
LINE
  8
0
 10
2.1869
 20
-32.0536
 11
1.91226
 21
-32.3115
  0
LINE
  8
0
 10
1.91226
 20
-32.3115
 11
1.60747
 21
-32.533
  0
LINE
  8
0
 10
1.60747
 20
-32.533
 11
1.27733
 21
-32.7145
  0
LINE
  8
0
 10
1.27733
 20
-32.7145
 11
0.927048
 21
-32.8532
  0
LINE
  8
0
 10
0.927048
 20
-32.8532
 11
0.562134
 21
-32.9469
  0
LINE
  8
0
 10
0.562134
 20
-32.9469
 11
0.18837
 21
-32.9941
  0
LINE
  8
0
 10
0.18837
 20
-32.9941
 11
-0.18837
 21
-32.9941
  0
ENDSEC
  0
SECTION
  2
OBJECTS
  0
DICTIONARY
  0
ENDSEC
  0
EOF
