<?xml version="1.0" standalone="no"?>
<!DOCTYPE svg PUBLIC "-//W3C//DTD SVG 1.1//EN" "http://www.w3.org/Graphics/SVG/1.1/DTD/svg11.dtd">
<svg width="136mm" height="424mm" viewBox="-68 -644 136 424" xmlns="http://www.w3.org/2000/svg" version="1.1">
<title>OpenSCAD Model</title>
<path d="
M 63.4369,-508.589 L 64.0451,-508.745 L 64.6289,-508.976 L 65.1791,-509.278 L 65.6871,-509.647 L 66.1448,-510.077
 L 66.5451,-510.561 L 66.8815,-511.091 L 67.1489,-511.659 L 67.3429,-512.257 L 67.4606,-512.873 L 67.5,-513.5
 L 67.5,-638.5 L 67.4606,-639.127 L 67.3429,-639.743 L 67.1489,-640.341 L 66.8815,-640.909 L 66.5451,-641.439
 L 66.1448,-641.923 L 65.6871,-642.353 L 65.1791,-642.722 L 64.6289,-643.024 L 64.0451,-643.255 L 63.4369,-643.411
 L 62.8139,-643.49 L -62.8139,-643.49 L -63.4369,-643.411 L -64.0451,-643.255 L -64.6289,-643.024 L -65.1791,-642.722
 L -65.6871,-642.353 L -66.1448,-641.923 L -66.5451,-641.439 L -66.8815,-640.909 L -67.1489,-640.341 L -67.3429,-639.743
 L -67.4606,-639.127 L -67.5,-638.5 L -67.5,-513.5 L -67.4606,-512.873 L -67.3429,-512.257 L -67.1489,-511.659
 L -66.8815,-511.091 L -66.5451,-510.561 L -66.1448,-510.077 L -65.6871,-509.647 L -65.1791,-509.278 L -64.6289,-508.976
 L -64.0451,-508.745 L -63.4369,-508.589 L -62.8139,-508.51 L 62.8139,-508.51 z
M -62.5482,-509.009 L -63.1401,-509.084 L -63.7178,-509.232 L -64.2724,-509.452 L -64.7952,-509.739 L -65.2778,-510.09
 L -65.7126,-510.498 L -66.0928,-510.958 L -66.4125,-511.462 L -66.6664,-512.001 L -66.8508,-512.569 L -66.9625,-513.155
 L -67,-513.75 L -67,-638.25 L -66.9625,-638.845 L -66.8508,-639.431 L -66.6664,-639.999 L -66.4125,-640.538
 L -66.0928,-641.042 L -65.7126,-641.502 L -65.2778,-641.91 L -64.7952,-642.261 L -64.2724,-642.548 L -63.7178,-642.768
 L -63.1401,-642.916 L -62.5482,-642.991 L 62.5482,-642.991 L 63.1401,-642.916 L 63.7178,-642.768 L 64.2724,-642.548
 L 64.7952,-642.261 L 65.2778,-641.91 L 65.7126,-641.502 L 66.0928,-641.042 L 66.4125,-640.538 L 66.6664,-639.999
 L 66.8508,-639.431 L 66.9625,-638.845 L 67,-638.25 L 67,-513.75 L 66.9625,-513.155 L 66.8508,-512.569
 L 66.6664,-512.001 L 66.4125,-511.462 L 66.0928,-510.958 L 65.7126,-510.498 L 65.2778,-510.09 L 64.7952,-509.739
 L 64.2724,-509.452 L 63.7178,-509.232 L 63.1401,-509.084 L 62.5482,-509.009 z
M 63.4369,-364.589 L 64.0451,-364.745 L 64.6289,-364.976 L 65.1791,-365.278 L 65.6871,-365.647 L 66.1448,-366.077
 L 66.5451,-366.561 L 66.8815,-367.091 L 67.1489,-367.659 L 67.3429,-368.257 L 67.4606,-368.873 L 67.5,-369.5
 L 67.5,-494.5 L 67.4606,-495.127 L 67.3429,-495.743 L 67.1489,-496.341 L 66.8815,-496.909 L 66.5451,-497.439
 L 66.1448,-497.923 L 65.6871,-498.353 L 65.1791,-498.722 L 64.6289,-499.024 L 64.0451,-499.255 L 63.4369,-499.411
 L 62.8139,-499.49 L -62.8139,-499.49 L -63.4369,-499.411 L -64.0451,-499.255 L -64.6289,-499.024 L -65.1791,-498.722
 L -65.6871,-498.353 L -66.1448,-497.923 L -66.5451,-497.439 L -66.8815,-496.909 L -67.1489,-496.341 L -67.3429,-495.743
 L -67.4606,-495.127 L -67.5,-494.5 L -67.5,-369.5 L -67.4606,-368.873 L -67.3429,-368.257 L -67.1489,-367.659
 L -66.8815,-367.091 L -66.5451,-366.561 L -66.1448,-366.077 L -65.6871,-365.647 L -65.1791,-365.278 L -64.6289,-364.976
 L -64.0451,-364.745 L -63.4369,-364.589 L -62.8139,-364.51 L 62.8139,-364.51 z
M -62.493,-365.888 L -62.9751,-365.949 L -63.4457,-366.07 L -63.8975,-366.249 L -64.3234,-366.483 L -64.7165,-366.769
 L -65.0707,-367.101 L -65.3805,-367.476 L -65.6408,-367.886 L -65.8477,-368.326 L -65.9979,-368.788 L -66.089,-369.265
 L -66.1195,-369.75 L -66.1195,-494.25 L -66.089,-494.735 L -65.9979,-495.212 L -65.8477,-495.674 L -65.6408,-496.114
 L -65.3805,-496.524 L -65.0707,-496.899 L -64.7165,-497.231 L -64.3234,-497.517 L -63.8975,-497.751 L -63.4457,-497.93
 L -62.9751,-498.051 L -62.493,-498.112 L 62.493,-498.112 L 62.9751,-498.051 L 63.4457,-497.93 L 63.8975,-497.751
 L 64.3234,-497.517 L 64.7165,-497.231 L 65.0707,-496.899 L 65.3805,-496.524 L 65.6408,-496.114 L 65.8477,-495.674
 L 65.9979,-495.212 L 66.089,-494.735 L 66.1195,-494.25 L 66.1195,-369.75 L 66.089,-369.265 L 65.9979,-368.788
 L 65.8477,-368.326 L 65.6408,-367.886 L 65.3805,-367.476 L 65.0707,-367.101 L 64.7165,-366.769 L 64.3234,-366.483
 L 63.8975,-366.249 L 63.4457,-366.07 L 62.9751,-365.949 L 62.493,-365.888 z
M 63.4369,-220.589 L 64.0451,-220.745 L 64.6289,-220.976 L 65.1791,-221.278 L 65.6871,-221.647 L 66.1448,-222.077
 L 66.5451,-222.561 L 66.8815,-223.091 L 67.1489,-223.659 L 67.3429,-224.257 L 67.4606,-224.873 L 67.5,-225.5
 L 67.5,-350.5 L 67.4606,-351.127 L 67.3429,-351.743 L 67.1489,-352.341 L 66.8815,-352.909 L 66.5451,-353.439
 L 66.1448,-353.923 L 65.6871,-354.353 L 65.1791,-354.722 L 64.6289,-355.024 L 64.0451,-355.255 L 63.4369,-355.411
 L 62.8139,-355.49 L -62.8139,-355.49 L -63.4369,-355.411 L -64.0451,-355.255 L -64.6289,-355.024 L -65.1791,-354.722
 L -65.6871,-354.353 L -66.1448,-353.923 L -66.5451,-353.439 L -66.8815,-352.909 L -67.1489,-352.341 L -67.3429,-351.743
 L -67.4606,-351.127 L -67.5,-350.5 L -67.5,-225.5 L -67.4606,-224.873 L -67.3429,-224.257 L -67.1489,-223.659
 L -66.8815,-223.091 L -66.5451,-222.561 L -66.1448,-222.077 L -65.6871,-221.647 L -65.1791,-221.278 L -64.6289,-220.976
 L -64.0451,-220.745 L -63.4369,-220.589 L -62.8139,-220.51 L 62.8139,-220.51 z
M 59.887,-346.204 L 59.6627,-346.232 L 59.4438,-346.288 L 59.2336,-346.371 L 59.0355,-346.48 L 58.8526,-346.613
 L 58.6879,-346.768 L 58.5438,-346.942 L 58.4226,-347.133 L 58.3264,-347.337 L 58.2565,-347.552 L 58.2142,-347.774
 L 58.2,-348 L 58.2142,-348.226 L 58.2565,-348.448 L 58.3264,-348.663 L 58.4226,-348.867 L 58.5438,-349.058
 L 58.6879,-349.232 L 58.8526,-349.387 L 59.0355,-349.52 L 59.2336,-349.629 L 59.4438,-349.712 L 59.6627,-349.768
 L 59.887,-349.796 L 60.113,-349.796 L 60.3373,-349.768 L 60.5562,-349.712 L 60.7664,-349.629 L 60.9645,-349.52
 L 61.1474,-349.387 L 61.3121,-349.232 L 61.4562,-349.058 L 61.5773,-348.867 L 61.6736,-348.663 L 61.7434,-348.448
 L 61.7858,-348.226 L 61.8,-348 L 61.7858,-347.774 L 61.7434,-347.552 L 61.6736,-347.337 L 61.5773,-347.133
 L 61.4562,-346.942 L 61.3121,-346.768 L 61.1474,-346.613 L 60.9645,-346.48 L 60.7664,-346.371 L 60.5562,-346.288
 L 60.3373,-346.232 L 60.113,-346.204 z
M -60.113,-346.204 L -60.3373,-346.232 L -60.5562,-346.288 L -60.7664,-346.371 L -60.9645,-346.48 L -61.1474,-346.613
 L -61.3121,-346.768 L -61.4562,-346.942 L -61.5773,-347.133 L -61.6736,-347.337 L -61.7434,-347.552 L -61.7858,-347.774
 L -61.8,-348 L -61.7858,-348.226 L -61.7434,-348.448 L -61.6736,-348.663 L -61.5773,-348.867 L -61.4562,-349.058
 L -61.3121,-349.232 L -61.1474,-349.387 L -60.9645,-349.52 L -60.7664,-349.629 L -60.5562,-349.712 L -60.3373,-349.768
 L -60.113,-349.796 L -59.887,-349.796 L -59.6627,-349.768 L -59.4438,-349.712 L -59.2336,-349.629 L -59.0355,-349.52
 L -58.8526,-349.387 L -58.6879,-349.232 L -58.5438,-349.058 L -58.4226,-348.867 L -58.3264,-348.663 L -58.2565,-348.448
 L -58.2142,-348.226 L -58.2,-348 L -58.2142,-347.774 L -58.2565,-347.552 L -58.3264,-347.337 L -58.4226,-347.133
 L -58.5438,-346.942 L -58.6879,-346.768 L -58.8526,-346.613 L -59.0355,-346.48 L -59.2336,-346.371 L -59.4438,-346.288
 L -59.6627,-346.232 L -59.887,-346.204 z
M -60.113,-226.204 L -60.3373,-226.232 L -60.5562,-226.288 L -60.7664,-226.371 L -60.9645,-226.48 L -61.1474,-226.613
 L -61.3121,-226.768 L -61.4562,-226.942 L -61.5773,-227.133 L -61.6736,-227.337 L -61.7434,-227.552 L -61.7858,-227.774
 L -61.8,-228 L -61.7858,-228.226 L -61.7434,-228.448 L -61.6736,-228.663 L -61.5773,-228.867 L -61.4562,-229.058
 L -61.3121,-229.232 L -61.1474,-229.387 L -60.9645,-229.52 L -60.7664,-229.629 L -60.5562,-229.712 L -60.3373,-229.768
 L -60.113,-229.796 L -59.887,-229.796 L -59.6627,-229.768 L -59.4438,-229.712 L -59.2336,-229.629 L -59.0355,-229.52
 L -58.8526,-229.387 L -58.6879,-229.232 L -58.5438,-229.058 L -58.4226,-228.867 L -58.3264,-228.663 L -58.2565,-228.448
 L -58.2142,-228.226 L -58.2,-228 L -58.2142,-227.774 L -58.2565,-227.552 L -58.3264,-227.337 L -58.4226,-227.133
 L -58.5438,-226.942 L -58.6879,-226.768 L -58.8526,-226.613 L -59.0355,-226.48 L -59.2336,-226.371 L -59.4438,-226.288
 L -59.6627,-226.232 L -59.887,-226.204 z
M 59.887,-226.204 L 59.6627,-226.232 L 59.4438,-226.288 L 59.2336,-226.371 L 59.0355,-226.48 L 58.8526,-226.613
 L 58.6879,-226.768 L 58.5438,-226.942 L 58.4226,-227.133 L 58.3264,-227.337 L 58.2565,-227.552 L 58.2142,-227.774
 L 58.2,-228 L 58.2142,-228.226 L 58.2565,-228.448 L 58.3264,-228.663 L 58.4226,-228.867 L 58.5438,-229.058
 L 58.6879,-229.232 L 58.8526,-229.387 L 59.0355,-229.52 L 59.2336,-229.629 L 59.4438,-229.712 L 59.6627,-229.768
 L 59.887,-229.796 L 60.113,-229.796 L 60.3373,-229.768 L 60.5562,-229.712 L 60.7664,-229.629 L 60.9645,-229.52
 L 61.1474,-229.387 L 61.3121,-229.232 L 61.4562,-229.058 L 61.5773,-228.867 L 61.6736,-228.663 L 61.7434,-228.448
 L 61.7858,-228.226 L 61.8,-228 L 61.7858,-227.774 L 61.7434,-227.552 L 61.6736,-227.337 L 61.5773,-227.133
 L 61.4562,-226.942 L 61.3121,-226.768 L 61.1474,-226.613 L 60.9645,-226.48 L 60.7664,-226.371 L 60.5562,-226.288
 L 60.3373,-226.232 L 60.113,-226.204 z
" stroke="black" fill="lightgray" stroke-width="0.5"/>
</svg>
