<?xml version="1.0" standalone="no"?>
<!DOCTYPE svg PUBLIC "-//W3C//DTD SVG 1.1//EN" "http://www.w3.org/Graphics/SVG/1.1/DTD/svg11.dtd">
<svg width="210mm" height="486mm" viewBox="-105 -936 210 486" xmlns="http://www.w3.org/2000/svg" version="1.1">
<title>OpenSCAD Model</title>
<path d="
M 100.937,-846.089 L 101.545,-846.245 L 102.129,-846.476 L 102.679,-846.778 L 103.187,-847.147 L 103.645,-847.577
 L 104.045,-848.061 L 104.382,-848.591 L 104.649,-849.159 L 104.843,-849.757 L 104.961,-850.373 L 105,-851
 L 105,-931 L 104.961,-931.627 L 104.843,-932.243 L 104.649,-932.841 L 104.382,-933.409 L 104.045,-933.939
 L 103.645,-934.423 L 103.187,-934.853 L 102.679,-935.222 L 102.129,-935.524 L 101.545,-935.755 L 100.937,-935.911
 L 100.314,-935.99 L -100.314,-935.99 L -100.937,-935.911 L -101.545,-935.755 L -102.129,-935.524 L -102.679,-935.222
 L -103.187,-934.853 L -103.645,-934.423 L -104.045,-933.939 L -104.382,-933.409 L -104.649,-932.841 L -104.843,-932.243
 L -104.961,-931.627 L -105,-931 L -105,-851 L -104.961,-850.373 L -104.843,-849.757 L -104.649,-849.159
 L -104.382,-848.591 L -104.045,-848.061 L -103.645,-847.577 L -103.187,-847.147 L -102.679,-846.778 L -102.129,-846.476
 L -101.545,-846.245 L -100.937,-846.089 L -100.314,-846.01 L 100.314,-846.01 z
M -99.7512,-847.508 L -100.25,-847.571 L -100.736,-847.696 L -101.203,-847.881 L -101.643,-848.123 L -102.05,-848.418
 L -102.416,-848.762 L -102.736,-849.149 L -103.005,-849.573 L -103.219,-850.028 L -103.374,-850.505 L -103.468,-850.999
 L -103.5,-851.5 L -103.5,-930.5 L -103.468,-931.001 L -103.374,-931.495 L -103.219,-931.972 L -103.005,-932.427
 L -102.736,-932.851 L -102.416,-933.238 L -102.05,-933.582 L -101.643,-933.877 L -101.203,-934.119 L -100.736,-934.304
 L -100.25,-934.429 L -99.7512,-934.492 L 99.7512,-934.492 L 100.25,-934.429 L 100.736,-934.304 L 101.203,-934.119
 L 101.643,-933.877 L 102.05,-933.582 L 102.416,-933.238 L 102.736,-932.851 L 103.005,-932.427 L 103.219,-931.972
 L 103.374,-931.495 L 103.468,-931.001 L 103.5,-930.5 L 103.5,-851.5 L 103.468,-850.999 L 103.374,-850.505
 L 103.219,-850.028 L 103.005,-849.573 L 102.736,-849.149 L 102.416,-848.762 L 102.05,-848.418 L 101.643,-848.123
 L 101.203,-847.881 L 100.736,-847.696 L 100.25,-847.571 L 99.7512,-847.508 z
M 100.937,-747.089 L 101.545,-747.245 L 102.129,-747.476 L 102.679,-747.778 L 103.187,-748.147 L 103.645,-748.577
 L 104.045,-749.061 L 104.382,-749.591 L 104.649,-750.159 L 104.843,-750.757 L 104.961,-751.373 L 105,-752
 L 105,-832 L 104.961,-832.627 L 104.843,-833.243 L 104.649,-833.841 L 104.382,-834.409 L 104.045,-834.939
 L 103.645,-835.423 L 103.187,-835.853 L 102.679,-836.222 L 102.129,-836.524 L 101.545,-836.755 L 100.937,-836.911
 L 100.314,-836.99 L -100.314,-836.99 L -100.937,-836.911 L -101.545,-836.755 L -102.129,-836.524 L -102.679,-836.222
 L -103.187,-835.853 L -103.645,-835.423 L -104.045,-834.939 L -104.382,-834.409 L -104.649,-833.841 L -104.843,-833.243
 L -104.961,-832.627 L -105,-832 L -105,-752 L -104.961,-751.373 L -104.843,-750.757 L -104.649,-750.159
 L -104.382,-749.591 L -104.045,-749.061 L -103.645,-748.577 L -103.187,-748.147 L -102.679,-747.778 L -102.129,-747.476
 L -101.545,-747.245 L -100.937,-747.089 L -100.314,-747.01 L 100.314,-747.01 z
M -99.7512,-748.508 L -100.25,-748.571 L -100.736,-748.696 L -101.203,-748.881 L -101.643,-749.123 L -102.05,-749.418
 L -102.416,-749.762 L -102.736,-750.149 L -103.005,-750.573 L -103.219,-751.028 L -103.374,-751.505 L -103.468,-751.999
 L -103.5,-752.5 L -103.5,-831.5 L -103.468,-832.001 L -103.374,-832.495 L -103.219,-832.972 L -103.005,-833.427
 L -102.736,-833.851 L -102.416,-834.238 L -102.05,-834.582 L -101.643,-834.877 L -101.203,-835.119 L -100.736,-835.304
 L -100.25,-835.429 L -99.7512,-835.492 L 99.7512,-835.492 L 100.25,-835.429 L 100.736,-835.304 L 101.203,-835.119
 L 101.643,-834.877 L 102.05,-834.582 L 102.416,-834.238 L 102.736,-833.851 L 103.005,-833.427 L 103.219,-832.972
 L 103.374,-832.495 L 103.468,-832.001 L 103.5,-831.5 L 103.5,-752.5 L 103.468,-751.999 L 103.374,-751.505
 L 103.219,-751.028 L 103.005,-750.573 L 102.736,-750.149 L 102.416,-749.762 L 102.05,-749.418 L 101.643,-749.123
 L 101.203,-748.881 L 100.736,-748.696 L 100.25,-748.571 L 99.7512,-748.508 z
M 100.937,-648.089 L 101.545,-648.245 L 102.129,-648.476 L 102.679,-648.778 L 103.187,-649.147 L 103.645,-649.577
 L 104.045,-650.061 L 104.382,-650.591 L 104.649,-651.159 L 104.843,-651.757 L 104.961,-652.373 L 105,-653
 L 105,-733 L 104.961,-733.627 L 104.843,-734.243 L 104.649,-734.841 L 104.382,-735.409 L 104.045,-735.939
 L 103.645,-736.423 L 103.187,-736.853 L 102.679,-737.222 L 102.129,-737.524 L 101.545,-737.755 L 100.937,-737.911
 L 100.314,-737.99 L -100.314,-737.99 L -100.937,-737.911 L -101.545,-737.755 L -102.129,-737.524 L -102.679,-737.222
 L -103.187,-736.853 L -103.645,-736.423 L -104.045,-735.939 L -104.382,-735.409 L -104.649,-734.841 L -104.843,-734.243
 L -104.961,-733.627 L -105,-733 L -105,-653 L -104.961,-652.373 L -104.843,-651.757 L -104.649,-651.159
 L -104.382,-650.591 L -104.045,-650.061 L -103.645,-649.577 L -103.187,-649.147 L -102.679,-648.778 L -102.129,-648.476
 L -101.545,-648.245 L -100.937,-648.089 L -100.314,-648.01 L 100.314,-648.01 z
M -99.7512,-649.508 L -100.25,-649.571 L -100.736,-649.696 L -101.203,-649.881 L -101.643,-650.123 L -102.05,-650.418
 L -102.416,-650.762 L -102.736,-651.149 L -103.005,-651.573 L -103.219,-652.028 L -103.374,-652.505 L -103.468,-652.999
 L -103.5,-653.5 L -103.5,-732.5 L -103.468,-733.001 L -103.374,-733.495 L -103.219,-733.972 L -103.005,-734.427
 L -102.736,-734.851 L -102.416,-735.238 L -102.05,-735.582 L -101.643,-735.877 L -101.203,-736.119 L -100.736,-736.304
 L -100.25,-736.429 L -99.7512,-736.492 L 99.7512,-736.492 L 100.25,-736.429 L 100.736,-736.304 L 101.203,-736.119
 L 101.643,-735.877 L 102.05,-735.582 L 102.416,-735.238 L 102.736,-734.851 L 103.005,-734.427 L 103.219,-733.972
 L 103.374,-733.495 L 103.468,-733.001 L 103.5,-732.5 L 103.5,-653.5 L 103.468,-652.999 L 103.374,-652.505
 L 103.219,-652.028 L 103.005,-651.573 L 102.736,-651.149 L 102.416,-650.762 L 102.05,-650.418 L 101.643,-650.123
 L 101.203,-649.881 L 100.736,-649.696 L 100.25,-649.571 L 99.7512,-649.508 z
M 100.937,-549.089 L 101.545,-549.245 L 102.129,-549.476 L 102.679,-549.778 L 103.187,-550.147 L 103.645,-550.577
 L 104.045,-551.061 L 104.382,-551.591 L 104.649,-552.159 L 104.843,-552.757 L 104.961,-553.373 L 105,-554
 L 105,-634 L 104.961,-634.627 L 104.843,-635.243 L 104.649,-635.841 L 104.382,-636.409 L 104.045,-636.939
 L 103.645,-637.423 L 103.187,-637.853 L 102.679,-638.222 L 102.129,-638.524 L 101.545,-638.755 L 100.937,-638.911
 L 100.314,-638.99 L -100.314,-638.99 L -100.937,-638.911 L -101.545,-638.755 L -102.129,-638.524 L -102.679,-638.222
 L -103.187,-637.853 L -103.645,-637.423 L -104.045,-636.939 L -104.382,-636.409 L -104.649,-635.841 L -104.843,-635.243
 L -104.961,-634.627 L -105,-634 L -105,-554 L -104.961,-553.373 L -104.843,-552.757 L -104.649,-552.159
 L -104.382,-551.591 L -104.045,-551.061 L -103.645,-550.577 L -103.187,-550.147 L -102.679,-549.778 L -102.129,-549.476
 L -101.545,-549.245 L -100.937,-549.089 L -100.314,-549.01 L 100.314,-549.01 z
M -99.6955,-551.393 L -100.083,-551.442 L -100.462,-551.539 L -100.825,-551.683 L -101.168,-551.872 L -101.484,-552.101
 L -101.769,-552.369 L -102.018,-552.67 L -102.228,-553 L -102.394,-553.354 L -102.515,-553.726 L -102.588,-554.11
 L -102.613,-554.5 L -102.613,-633.5 L -102.588,-633.89 L -102.515,-634.274 L -102.394,-634.646 L -102.228,-635
 L -102.018,-635.33 L -101.769,-635.631 L -101.484,-635.899 L -101.168,-636.128 L -100.825,-636.317 L -100.462,-636.461
 L -100.083,-636.558 L -99.6955,-636.607 L 99.6955,-636.607 L 100.083,-636.558 L 100.462,-636.461 L 100.825,-636.317
 L 101.168,-636.128 L 101.484,-635.899 L 101.769,-635.631 L 102.018,-635.33 L 102.228,-635 L 102.394,-634.646
 L 102.515,-634.274 L 102.588,-633.89 L 102.613,-633.5 L 102.613,-554.5 L 102.588,-554.11 L 102.515,-553.726
 L 102.394,-553.354 L 102.228,-553 L 102.018,-552.67 L 101.769,-552.369 L 101.484,-552.101 L 101.168,-551.872
 L 100.825,-551.683 L 100.462,-551.539 L 100.083,-551.442 L 99.6955,-551.393 z
M 100.937,-450.089 L 101.545,-450.245 L 102.129,-450.476 L 102.679,-450.778 L 103.187,-451.147 L 103.645,-451.577
 L 104.045,-452.061 L 104.382,-452.591 L 104.649,-453.159 L 104.843,-453.757 L 104.961,-454.373 L 105,-455
 L 105,-535 L 104.961,-535.627 L 104.843,-536.243 L 104.649,-536.841 L 104.382,-537.409 L 104.045,-537.939
 L 103.645,-538.423 L 103.187,-538.853 L 102.679,-539.222 L 102.129,-539.524 L 101.545,-539.755 L 100.937,-539.911
 L 100.314,-539.99 L -100.314,-539.99 L -100.937,-539.911 L -101.545,-539.755 L -102.129,-539.524 L -102.679,-539.222
 L -103.187,-538.853 L -103.645,-538.423 L -104.045,-537.939 L -104.382,-537.409 L -104.649,-536.841 L -104.843,-536.243
 L -104.961,-535.627 L -105,-535 L -105,-455 L -104.961,-454.373 L -104.843,-453.757 L -104.649,-453.159
 L -104.382,-452.591 L -104.045,-452.061 L -103.645,-451.577 L -103.187,-451.147 L -102.679,-450.778 L -102.129,-450.476
 L -101.545,-450.245 L -100.937,-450.089 L -100.314,-450.01 L 100.314,-450.01 z
M 97.3659,-530.369 L 97.0999,-530.403 L 96.8401,-530.469 L 96.5908,-530.568 L 96.3559,-530.697 L 96.1389,-530.855
 L 95.9434,-531.038 L 95.7725,-531.245 L 95.6288,-531.471 L 95.5146,-531.714 L 95.4318,-531.969 L 95.3815,-532.232
 L 95.3647,-532.5 L 95.3815,-532.768 L 95.4318,-533.031 L 95.5146,-533.286 L 95.6288,-533.529 L 95.7725,-533.755
 L 95.9434,-533.962 L 96.1389,-534.145 L 96.3559,-534.303 L 96.5908,-534.432 L 96.8401,-534.531 L 97.0999,-534.597
 L 97.3659,-534.631 L 97.6341,-534.631 L 97.9001,-534.597 L 98.1598,-534.531 L 98.4092,-534.432 L 98.6441,-534.303
 L 98.8611,-534.145 L 99.0566,-533.962 L 99.2275,-533.755 L 99.3712,-533.529 L 99.4853,-533.286 L 99.5682,-533.031
 L 99.6185,-532.768 L 99.6353,-532.5 L 99.6185,-532.232 L 99.5682,-531.969 L 99.4853,-531.714 L 99.3712,-531.471
 L 99.2275,-531.245 L 99.0566,-531.038 L 98.8611,-530.855 L 98.6441,-530.697 L 98.4092,-530.568 L 98.1598,-530.469
 L 97.9001,-530.403 L 97.6341,-530.369 z
M -97.6341,-530.369 L -97.9001,-530.403 L -98.1598,-530.469 L -98.4092,-530.568 L -98.6441,-530.697 L -98.8611,-530.855
 L -99.0566,-531.038 L -99.2275,-531.245 L -99.3712,-531.471 L -99.4853,-531.714 L -99.5682,-531.969 L -99.6185,-532.232
 L -99.6353,-532.5 L -99.6185,-532.768 L -99.5682,-533.031 L -99.4853,-533.286 L -99.3712,-533.529 L -99.2275,-533.755
 L -99.0566,-533.962 L -98.8611,-534.145 L -98.6441,-534.303 L -98.4092,-534.432 L -98.1598,-534.531 L -97.9001,-534.597
 L -97.6341,-534.631 L -97.3659,-534.631 L -97.0999,-534.597 L -96.8401,-534.531 L -96.5908,-534.432 L -96.3559,-534.303
 L -96.1389,-534.145 L -95.9434,-533.962 L -95.7725,-533.755 L -95.6288,-533.529 L -95.5146,-533.286 L -95.4318,-533.031
 L -95.3815,-532.768 L -95.3647,-532.5 L -95.3815,-532.232 L -95.4318,-531.969 L -95.5146,-531.714 L -95.6288,-531.471
 L -95.7725,-531.245 L -95.9434,-531.038 L -96.1389,-530.855 L -96.3559,-530.697 L -96.5908,-530.568 L -96.8401,-530.469
 L -97.0999,-530.403 L -97.3659,-530.369 z
M 97.3659,-455.369 L 97.0999,-455.403 L 96.8401,-455.469 L 96.5908,-455.568 L 96.3559,-455.697 L 96.1389,-455.855
 L 95.9434,-456.038 L 95.7725,-456.245 L 95.6288,-456.471 L 95.5146,-456.714 L 95.4318,-456.969 L 95.3815,-457.232
 L 95.3647,-457.5 L 95.3815,-457.768 L 95.4318,-458.031 L 95.5146,-458.286 L 95.6288,-458.529 L 95.7725,-458.755
 L 95.9434,-458.962 L 96.1389,-459.145 L 96.3559,-459.303 L 96.5908,-459.432 L 96.8401,-459.531 L 97.0999,-459.597
 L 97.3659,-459.631 L 97.6341,-459.631 L 97.9001,-459.597 L 98.1598,-459.531 L 98.4092,-459.432 L 98.6441,-459.303
 L 98.8611,-459.145 L 99.0566,-458.962 L 99.2275,-458.755 L 99.3712,-458.529 L 99.4853,-458.286 L 99.5682,-458.031
 L 99.6185,-457.768 L 99.6353,-457.5 L 99.6185,-457.232 L 99.5682,-456.969 L 99.4853,-456.714 L 99.3712,-456.471
 L 99.2275,-456.245 L 99.0566,-456.038 L 98.8611,-455.855 L 98.6441,-455.697 L 98.4092,-455.568 L 98.1598,-455.469
 L 97.9001,-455.403 L 97.6341,-455.369 z
M -97.6341,-455.369 L -97.9001,-455.403 L -98.1598,-455.469 L -98.4092,-455.568 L -98.6441,-455.697 L -98.8611,-455.855
 L -99.0566,-456.038 L -99.2275,-456.245 L -99.3712,-456.471 L -99.4853,-456.714 L -99.5682,-456.969 L -99.6185,-457.232
 L -99.6353,-457.5 L -99.6185,-457.768 L -99.5682,-458.031 L -99.4853,-458.286 L -99.3712,-458.529 L -99.2275,-458.755
 L -99.0566,-458.962 L -98.8611,-459.145 L -98.6441,-459.303 L -98.4092,-459.432 L -98.1598,-459.531 L -97.9001,-459.597
 L -97.6341,-459.631 L -97.3659,-459.631 L -97.0999,-459.597 L -96.8401,-459.531 L -96.5908,-459.432 L -96.3559,-459.303
 L -96.1389,-459.145 L -95.9434,-458.962 L -95.7725,-458.755 L -95.6288,-458.529 L -95.5146,-458.286 L -95.4318,-458.031
 L -95.3815,-457.768 L -95.3647,-457.5 L -95.3815,-457.232 L -95.4318,-456.969 L -95.5146,-456.714 L -95.6288,-456.471
 L -95.7725,-456.245 L -95.9434,-456.038 L -96.1389,-455.855 L -96.3559,-455.697 L -96.5908,-455.568 L -96.8401,-455.469
 L -97.0999,-455.403 L -97.3659,-455.369 z
" stroke="black" fill="lightgray" stroke-width="0.5"/>
</svg>
