<?xml version="1.0" standalone="no"?>
<!DOCTYPE svg PUBLIC "-//W3C//DTD SVG 1.1//EN" "http://www.w3.org/Graphics/SVG/1.1/DTD/svg11.dtd">
<svg width="46mm" height="1107mm" viewBox="-23 -1809 46 1107" xmlns="http://www.w3.org/2000/svg" version="1.1">
<title>OpenSCAD Model</title>
<path d="
M 18.4369,-1539.09 L 19.0451,-1539.24 L 19.6289,-1539.48 L 20.1791,-1539.78 L 20.6871,-1540.15 L 21.1448,-1540.58
 L 21.5451,-1541.06 L 21.8815,-1541.59 L 22.1489,-1542.16 L 22.3429,-1542.76 L 22.4606,-1543.37 L 22.5,-1544
 L 22.5,-1804 L 22.4606,-1804.63 L 22.3429,-1805.24 L 22.1489,-1805.84 L 21.8815,-1806.41 L 21.5451,-1806.94
 L 21.1448,-1807.42 L 20.6871,-1807.85 L 20.1791,-1808.22 L 19.6289,-1808.52 L 19.0451,-1808.76 L 18.4369,-1808.91
 L 17.8139,-1808.99 L -17.8139,-1808.99 L -18.4369,-1808.91 L -19.0451,-1808.76 L -19.6289,-1808.52 L -20.1791,-1808.22
 L -20.6871,-1807.85 L -21.1448,-1807.42 L -21.5451,-1806.94 L -21.8815,-1806.41 L -22.1489,-1805.84 L -22.3429,-1805.24
 L -22.4606,-1804.63 L -22.5,-1804 L -22.5,-1544 L -22.4606,-1543.37 L -22.3429,-1542.76 L -22.1489,-1542.16
 L -21.8815,-1541.59 L -21.5451,-1541.06 L -21.1448,-1540.58 L -20.6871,-1540.15 L -20.1791,-1539.78 L -19.6289,-1539.48
 L -19.0451,-1539.24 L -18.4369,-1539.09 L -17.8139,-1539.01 L 17.8139,-1539.01 z
M -17.2512,-1540.51 L -17.7495,-1540.57 L -18.2361,-1540.7 L -18.7031,-1540.88 L -19.1433,-1541.12 L -19.5497,-1541.42
 L -19.9159,-1541.76 L -20.2361,-1542.15 L -20.5052,-1542.57 L -20.7191,-1543.03 L -20.8743,-1543.51 L -20.9684,-1544
 L -21,-1544.5 L -21,-1803.5 L -20.9684,-1804 L -20.8743,-1804.49 L -20.7191,-1804.97 L -20.5052,-1805.43
 L -20.2361,-1805.85 L -19.9159,-1806.24 L -19.5497,-1806.58 L -19.1433,-1806.88 L -18.7031,-1807.12 L -18.2361,-1807.3
 L -17.7495,-1807.43 L -17.2512,-1807.49 L 17.2512,-1807.49 L 17.7495,-1807.43 L 18.2361,-1807.3 L 18.7031,-1807.12
 L 19.1433,-1806.88 L 19.5497,-1806.58 L 19.9159,-1806.24 L 20.2361,-1805.85 L 20.5052,-1805.43 L 20.7191,-1804.97
 L 20.8743,-1804.49 L 20.9684,-1804 L 21,-1803.5 L 21,-1544.5 L 20.9684,-1544 L 20.8743,-1543.51
 L 20.7191,-1543.03 L 20.5052,-1542.57 L 20.2361,-1542.15 L 19.9159,-1541.76 L 19.5497,-1541.42 L 19.1433,-1541.12
 L 18.7031,-1540.88 L 18.2361,-1540.7 L 17.7495,-1540.57 L 17.2512,-1540.51 z
M 18.4369,-1260.09 L 19.0451,-1260.24 L 19.6289,-1260.48 L 20.1791,-1260.78 L 20.6871,-1261.15 L 21.1448,-1261.58
 L 21.5451,-1262.06 L 21.8815,-1262.59 L 22.1489,-1263.16 L 22.3429,-1263.76 L 22.4606,-1264.37 L 22.5,-1265
 L 22.5,-1525 L 22.4606,-1525.63 L 22.3429,-1526.24 L 22.1489,-1526.84 L 21.8815,-1527.41 L 21.5451,-1527.94
 L 21.1448,-1528.42 L 20.6871,-1528.85 L 20.1791,-1529.22 L 19.6289,-1529.52 L 19.0451,-1529.76 L 18.4369,-1529.91
 L 17.8139,-1529.99 L -17.8139,-1529.99 L -18.4369,-1529.91 L -19.0451,-1529.76 L -19.6289,-1529.52 L -20.1791,-1529.22
 L -20.6871,-1528.85 L -21.1448,-1528.42 L -21.5451,-1527.94 L -21.8815,-1527.41 L -22.1489,-1526.84 L -22.3429,-1526.24
 L -22.4606,-1525.63 L -22.5,-1525 L -22.5,-1265 L -22.4606,-1264.37 L -22.3429,-1263.76 L -22.1489,-1263.16
 L -21.8815,-1262.59 L -21.5451,-1262.06 L -21.1448,-1261.58 L -20.6871,-1261.15 L -20.1791,-1260.78 L -19.6289,-1260.48
 L -19.0451,-1260.24 L -18.4369,-1260.09 L -17.8139,-1260.01 L 17.8139,-1260.01 z
M -17.2432,-1261.64 L -17.7256,-1261.7 L -18.1967,-1261.82 L -18.6489,-1262 L -19.0751,-1262.23 L -19.4685,-1262.52
 L -19.823,-1262.85 L -20.133,-1263.22 L -20.3936,-1263.63 L -20.6007,-1264.07 L -20.751,-1264.54 L -20.8421,-1265.01
 L -20.8726,-1265.5 L -20.8726,-1524.5 L -20.8421,-1524.99 L -20.751,-1525.46 L -20.6007,-1525.93 L -20.3936,-1526.37
 L -20.133,-1526.78 L -19.823,-1527.15 L -19.4685,-1527.48 L -19.0751,-1527.77 L -18.6489,-1528 L -18.1967,-1528.18
 L -17.7256,-1528.3 L -17.2432,-1528.36 L 17.2432,-1528.36 L 17.7256,-1528.3 L 18.1967,-1528.18 L 18.6489,-1528
 L 19.0751,-1527.77 L 19.4685,-1527.48 L 19.823,-1527.15 L 20.133,-1526.78 L 20.3936,-1526.37 L 20.6007,-1525.93
 L 20.751,-1525.46 L 20.8421,-1524.99 L 20.8726,-1524.5 L 20.8726,-1265.5 L 20.8421,-1265.01 L 20.751,-1264.54
 L 20.6007,-1264.07 L 20.3936,-1263.63 L 20.133,-1263.22 L 19.823,-1262.85 L 19.4685,-1262.52 L 19.0751,-1262.23
 L 18.6489,-1262 L 18.1967,-1261.82 L 17.7256,-1261.7 L 17.2432,-1261.64 z
M 18.4369,-981.089 L 19.0451,-981.245 L 19.6289,-981.476 L 20.1791,-981.778 L 20.6871,-982.147 L 21.1448,-982.577
 L 21.5451,-983.061 L 21.8815,-983.591 L 22.1489,-984.159 L 22.3429,-984.757 L 22.4606,-985.373 L 22.5,-986
 L 22.5,-1246 L 22.4606,-1246.63 L 22.3429,-1247.24 L 22.1489,-1247.84 L 21.8815,-1248.41 L 21.5451,-1248.94
 L 21.1448,-1249.42 L 20.6871,-1249.85 L 20.1791,-1250.22 L 19.6289,-1250.52 L 19.0451,-1250.76 L 18.4369,-1250.91
 L 17.8139,-1250.99 L -17.8139,-1250.99 L -18.4369,-1250.91 L -19.0451,-1250.76 L -19.6289,-1250.52 L -20.1791,-1250.22
 L -20.6871,-1249.85 L -21.1448,-1249.42 L -21.5451,-1248.94 L -21.8815,-1248.41 L -22.1489,-1247.84 L -22.3429,-1247.24
 L -22.4606,-1246.63 L -22.5,-1246 L -22.5,-986 L -22.4606,-985.373 L -22.3429,-984.757 L -22.1489,-984.159
 L -21.8815,-983.591 L -21.5451,-983.061 L -21.1448,-982.577 L -20.6871,-982.147 L -20.1791,-981.778 L -19.6289,-981.476
 L -19.0451,-981.245 L -18.4369,-981.089 L -17.8139,-981.01 L 17.8139,-981.01 z
M 14.8493,-1241.1 L 14.5503,-1241.14 L 14.2583,-1241.22 L 13.9781,-1241.33 L 13.714,-1241.47 L 13.4702,-1241.65
 L 13.2505,-1241.86 L 13.0583,-1242.09 L 12.8969,-1242.34 L 12.7685,-1242.62 L 12.6754,-1242.9 L 12.6189,-1243.2
 L 12.6,-1243.5 L 12.6189,-1243.8 L 12.6754,-1244.1 L 12.7685,-1244.38 L 12.8969,-1244.66 L 13.0583,-1244.91
 L 13.2505,-1245.14 L 13.4702,-1245.35 L 13.714,-1245.53 L 13.9781,-1245.67 L 14.2583,-1245.78 L 14.5503,-1245.86
 L 14.8493,-1245.9 L 15.1507,-1245.9 L 15.4497,-1245.86 L 15.7416,-1245.78 L 16.0219,-1245.67 L 16.286,-1245.53
 L 16.5298,-1245.35 L 16.7495,-1245.14 L 16.9416,-1244.91 L 17.1031,-1244.66 L 17.2315,-1244.38 L 17.3246,-1244.1
 L 17.3811,-1243.8 L 17.4,-1243.5 L 17.3811,-1243.2 L 17.3246,-1242.9 L 17.2315,-1242.62 L 17.1031,-1242.34
 L 16.9416,-1242.09 L 16.7495,-1241.86 L 16.5298,-1241.65 L 16.286,-1241.47 L 16.0219,-1241.33 L 15.7416,-1241.22
 L 15.4497,-1241.14 L 15.1507,-1241.1 z
M -15.1507,-1241.1 L -15.4497,-1241.14 L -15.7416,-1241.22 L -16.0219,-1241.33 L -16.286,-1241.47 L -16.5298,-1241.65
 L -16.7495,-1241.86 L -16.9416,-1242.09 L -17.1031,-1242.34 L -17.2315,-1242.62 L -17.3246,-1242.9 L -17.3811,-1243.2
 L -17.4,-1243.5 L -17.3811,-1243.8 L -17.3246,-1244.1 L -17.2315,-1244.38 L -17.1031,-1244.66 L -16.9416,-1244.91
 L -16.7495,-1245.14 L -16.5298,-1245.35 L -16.286,-1245.53 L -16.0219,-1245.67 L -15.7416,-1245.78 L -15.4497,-1245.86
 L -15.1507,-1245.9 L -14.8493,-1245.9 L -14.5503,-1245.86 L -14.2583,-1245.78 L -13.9781,-1245.67 L -13.714,-1245.53
 L -13.4702,-1245.35 L -13.2505,-1245.14 L -13.0583,-1244.91 L -12.8969,-1244.66 L -12.7685,-1244.38 L -12.6754,-1244.1
 L -12.6189,-1243.8 L -12.6,-1243.5 L -12.6189,-1243.2 L -12.6754,-1242.9 L -12.7685,-1242.62 L -12.8969,-1242.34
 L -13.0583,-1242.09 L -13.2505,-1241.86 L -13.4702,-1241.65 L -13.714,-1241.47 L -13.9781,-1241.33 L -14.2583,-1241.22
 L -14.5503,-1241.14 L -14.8493,-1241.1 z
M 14.8493,-986.105 L 14.5503,-986.143 L 14.2583,-986.217 L 13.9781,-986.328 L 13.714,-986.474 L 13.4702,-986.651
 L 13.2505,-986.857 L 13.0583,-987.089 L 12.8969,-987.344 L 12.7685,-987.617 L 12.6754,-987.903 L 12.6189,-988.199
 L 12.6,-988.5 L 12.6189,-988.801 L 12.6754,-989.097 L 12.7685,-989.383 L 12.8969,-989.656 L 13.0583,-989.911
 L 13.2505,-990.143 L 13.4702,-990.349 L 13.714,-990.526 L 13.9781,-990.672 L 14.2583,-990.783 L 14.5503,-990.857
 L 14.8493,-990.895 L 15.1507,-990.895 L 15.4497,-990.857 L 15.7416,-990.783 L 16.0219,-990.672 L 16.286,-990.526
 L 16.5298,-990.349 L 16.7495,-990.143 L 16.9416,-989.911 L 17.1031,-989.656 L 17.2315,-989.383 L 17.3246,-989.097
 L 17.3811,-988.801 L 17.4,-988.5 L 17.3811,-988.199 L 17.3246,-987.903 L 17.2315,-987.617 L 17.1031,-987.344
 L 16.9416,-987.089 L 16.7495,-986.857 L 16.5298,-986.651 L 16.286,-986.474 L 16.0219,-986.328 L 15.7416,-986.217
 L 15.4497,-986.143 L 15.1507,-986.105 z
M -15.1507,-986.105 L -15.4497,-986.143 L -15.7416,-986.217 L -16.0219,-986.328 L -16.286,-986.474 L -16.5298,-986.651
 L -16.7495,-986.857 L -16.9416,-987.089 L -17.1031,-987.344 L -17.2315,-987.617 L -17.3246,-987.903 L -17.3811,-988.199
 L -17.4,-988.5 L -17.3811,-988.801 L -17.3246,-989.097 L -17.2315,-989.383 L -17.1031,-989.656 L -16.9416,-989.911
 L -16.7495,-990.143 L -16.5298,-990.349 L -16.286,-990.526 L -16.0219,-990.672 L -15.7416,-990.783 L -15.4497,-990.857
 L -15.1507,-990.895 L -14.8493,-990.895 L -14.5503,-990.857 L -14.2583,-990.783 L -13.9781,-990.672 L -13.714,-990.526
 L -13.4702,-990.349 L -13.2505,-990.143 L -13.0583,-989.911 L -12.8969,-989.656 L -12.7685,-989.383 L -12.6754,-989.097
 L -12.6189,-988.801 L -12.6,-988.5 L -12.6189,-988.199 L -12.6754,-987.903 L -12.7685,-987.617 L -12.8969,-987.344
 L -13.0583,-987.089 L -13.2505,-986.857 L -13.4702,-986.651 L -13.714,-986.474 L -13.9781,-986.328 L -14.2583,-986.217
 L -14.5503,-986.143 L -14.8493,-986.105 z
M 18.4369,-702.089 L 19.0451,-702.245 L 19.6289,-702.476 L 20.1791,-702.778 L 20.6871,-703.147 L 21.1448,-703.577
 L 21.5451,-704.061 L 21.8815,-704.591 L 22.1489,-705.159 L 22.3429,-705.757 L 22.4606,-706.373 L 22.5,-707
 L 22.5,-967 L 22.4606,-967.627 L 22.3429,-968.243 L 22.1489,-968.841 L 21.8815,-969.409 L 21.5451,-969.939
 L 21.1448,-970.423 L 20.6871,-970.853 L 20.1791,-971.222 L 19.6289,-971.524 L 19.0451,-971.755 L 18.4369,-971.911
 L 17.8139,-971.99 L -17.8139,-971.99 L -18.4369,-971.911 L -19.0451,-971.755 L -19.6289,-971.524 L -20.1791,-971.222
 L -20.6871,-970.853 L -21.1448,-970.423 L -21.5451,-969.939 L -21.8815,-969.409 L -22.1489,-968.841 L -22.3429,-968.243
 L -22.4606,-967.627 L -22.5,-967 L -22.5,-707 L -22.4606,-706.373 L -22.3429,-705.757 L -22.1489,-705.159
 L -21.8815,-704.591 L -21.5451,-704.061 L -21.1448,-703.577 L -20.6871,-703.147 L -20.1791,-702.778 L -19.6289,-702.476
 L -19.0451,-702.245 L -18.4369,-702.089 L -17.8139,-702.01 L 17.8139,-702.01 z
M -15.113,-962.704 L -15.3373,-962.732 L -15.5562,-962.788 L -15.7664,-962.871 L -15.9645,-962.98 L -16.1474,-963.113
 L -16.3121,-963.268 L -16.4562,-963.442 L -16.5773,-963.633 L -16.6736,-963.837 L -16.7434,-964.052 L -16.7858,-964.274
 L -16.8,-964.5 L -16.7858,-964.726 L -16.7434,-964.948 L -16.6736,-965.163 L -16.5773,-965.367 L -16.4562,-965.558
 L -16.3121,-965.732 L -16.1474,-965.887 L -15.9645,-966.02 L -15.7664,-966.129 L -15.5562,-966.212 L -15.3373,-966.268
 L -15.113,-966.296 L -14.887,-966.296 L -14.6627,-966.268 L -14.4438,-966.212 L -14.2336,-966.129 L -14.0355,-966.02
 L -13.8526,-965.887 L -13.6879,-965.732 L -13.5438,-965.558 L -13.4226,-965.367 L -13.3264,-965.163 L -13.2565,-964.948
 L -13.2142,-964.726 L -13.2,-964.5 L -13.2142,-964.274 L -13.2565,-964.052 L -13.3264,-963.837 L -13.4226,-963.633
 L -13.5438,-963.442 L -13.6879,-963.268 L -13.8526,-963.113 L -14.0355,-962.98 L -14.2336,-962.871 L -14.4438,-962.788
 L -14.6627,-962.732 L -14.887,-962.704 z
M 14.887,-962.704 L 14.6627,-962.732 L 14.4438,-962.788 L 14.2336,-962.871 L 14.0355,-962.98 L 13.8526,-963.113
 L 13.6879,-963.268 L 13.5438,-963.442 L 13.4226,-963.633 L 13.3264,-963.837 L 13.2565,-964.052 L 13.2142,-964.274
 L 13.2,-964.5 L 13.2142,-964.726 L 13.2565,-964.948 L 13.3264,-965.163 L 13.4226,-965.367 L 13.5438,-965.558
 L 13.6879,-965.732 L 13.8526,-965.887 L 14.0355,-966.02 L 14.2336,-966.129 L 14.4438,-966.212 L 14.6627,-966.268
 L 14.887,-966.296 L 15.113,-966.296 L 15.3373,-966.268 L 15.5562,-966.212 L 15.7664,-966.129 L 15.9645,-966.02
 L 16.1474,-965.887 L 16.3121,-965.732 L 16.4562,-965.558 L 16.5773,-965.367 L 16.6736,-965.163 L 16.7434,-964.948
 L 16.7858,-964.726 L 16.8,-964.5 L 16.7858,-964.274 L 16.7434,-964.052 L 16.6736,-963.837 L 16.5773,-963.633
 L 16.4562,-963.442 L 16.3121,-963.268 L 16.1474,-963.113 L 15.9645,-962.98 L 15.7664,-962.871 L 15.5562,-962.788
 L 15.3373,-962.732 L 15.113,-962.704 z
M -15.113,-707.704 L -15.3373,-707.732 L -15.5562,-707.788 L -15.7664,-707.871 L -15.9645,-707.98 L -16.1474,-708.113
 L -16.3121,-708.268 L -16.4562,-708.442 L -16.5773,-708.633 L -16.6736,-708.837 L -16.7434,-709.052 L -16.7858,-709.274
 L -16.8,-709.5 L -16.7858,-709.726 L -16.7434,-709.948 L -16.6736,-710.163 L -16.5773,-710.367 L -16.4562,-710.558
 L -16.3121,-710.732 L -16.1474,-710.887 L -15.9645,-711.02 L -15.7664,-711.129 L -15.5562,-711.212 L -15.3373,-711.268
 L -15.113,-711.296 L -14.887,-711.296 L -14.6627,-711.268 L -14.4438,-711.212 L -14.2336,-711.129 L -14.0355,-711.02
 L -13.8526,-710.887 L -13.6879,-710.732 L -13.5438,-710.558 L -13.4226,-710.367 L -13.3264,-710.163 L -13.2565,-709.948
 L -13.2142,-709.726 L -13.2,-709.5 L -13.2142,-709.274 L -13.2565,-709.052 L -13.3264,-708.837 L -13.4226,-708.633
 L -13.5438,-708.442 L -13.6879,-708.268 L -13.8526,-708.113 L -14.0355,-707.98 L -14.2336,-707.871 L -14.4438,-707.788
 L -14.6627,-707.732 L -14.887,-707.704 z
M 14.887,-707.704 L 14.6627,-707.732 L 14.4438,-707.788 L 14.2336,-707.871 L 14.0355,-707.98 L 13.8526,-708.113
 L 13.6879,-708.268 L 13.5438,-708.442 L 13.4226,-708.633 L 13.3264,-708.837 L 13.2565,-709.052 L 13.2142,-709.274
 L 13.2,-709.5 L 13.2142,-709.726 L 13.2565,-709.948 L 13.3264,-710.163 L 13.4226,-710.367 L 13.5438,-710.558
 L 13.6879,-710.732 L 13.8526,-710.887 L 14.0355,-711.02 L 14.2336,-711.129 L 14.4438,-711.212 L 14.6627,-711.268
 L 14.887,-711.296 L 15.113,-711.296 L 15.3373,-711.268 L 15.5562,-711.212 L 15.7664,-711.129 L 15.9645,-711.02
 L 16.1474,-710.887 L 16.3121,-710.732 L 16.4562,-710.558 L 16.5773,-710.367 L 16.6736,-710.163 L 16.7434,-709.948
 L 16.7858,-709.726 L 16.8,-709.5 L 16.7858,-709.274 L 16.7434,-709.052 L 16.6736,-708.837 L 16.5773,-708.633
 L 16.4562,-708.442 L 16.3121,-708.268 L 16.1474,-708.113 L 15.9645,-707.98 L 15.7664,-707.871 L 15.5562,-707.788
 L 15.3373,-707.732 L 15.113,-707.704 z
" stroke="black" fill="lightgray" stroke-width="0.5"/>
</svg>
