<?xml version="1.0" standalone="no"?>
<!DOCTYPE svg PUBLIC "-//W3C//DTD SVG 1.1//EN" "http://www.w3.org/Graphics/SVG/1.1/DTD/svg11.dtd">
<svg width="136mm" height="747mm" viewBox="-68 -1413 136 747" xmlns="http://www.w3.org/2000/svg" version="1.1">
<title>OpenSCAD Model</title>
<path d="
M 63.4369,-1233.09 L 64.0451,-1233.24 L 64.6289,-1233.48 L 65.1791,-1233.78 L 65.6871,-1234.15 L 66.1448,-1234.58
 L 66.5451,-1235.06 L 66.8815,-1235.59 L 67.1489,-1236.16 L 67.3429,-1236.76 L 67.4606,-1237.37 L 67.5,-1238
 L 67.5,-1408 L 67.4606,-1408.63 L 67.3429,-1409.24 L 67.1489,-1409.84 L 66.8815,-1410.41 L 66.5451,-1410.94
 L 66.1448,-1411.42 L 65.6871,-1411.85 L 65.1791,-1412.22 L 64.6289,-1412.52 L 64.0451,-1412.76 L 63.4369,-1412.91
 L 62.8139,-1412.99 L -62.8139,-1412.99 L -63.4369,-1412.91 L -64.0451,-1412.76 L -64.6289,-1412.52 L -65.1791,-1412.22
 L -65.6871,-1411.85 L -66.1448,-1411.42 L -66.5451,-1410.94 L -66.8815,-1410.41 L -67.1489,-1409.84 L -67.3429,-1409.24
 L -67.4606,-1408.63 L -67.5,-1408 L -67.5,-1238 L -67.4606,-1237.37 L -67.3429,-1236.76 L -67.1489,-1236.16
 L -66.8815,-1235.59 L -66.5451,-1235.06 L -66.1448,-1234.58 L -65.6871,-1234.15 L -65.1791,-1233.78 L -64.6289,-1233.48
 L -64.0451,-1233.24 L -63.4369,-1233.09 L -62.8139,-1233.01 L 62.8139,-1233.01 z
M -62.2512,-1234.51 L -62.7495,-1234.57 L -63.2361,-1234.7 L -63.7031,-1234.88 L -64.1433,-1235.12 L -64.5497,-1235.42
 L -64.9159,-1235.76 L -65.2361,-1236.15 L -65.5052,-1236.57 L -65.7191,-1237.03 L -65.8743,-1237.51 L -65.9685,-1238
 L -66,-1238.5 L -66,-1407.5 L -65.9685,-1408 L -65.8743,-1408.49 L -65.7191,-1408.97 L -65.5052,-1409.43
 L -65.2361,-1409.85 L -64.9159,-1410.24 L -64.5497,-1410.58 L -64.1433,-1410.88 L -63.7031,-1411.12 L -63.2361,-1411.3
 L -62.7495,-1411.43 L -62.2512,-1411.49 L 62.2512,-1411.49 L 62.7495,-1411.43 L 63.2361,-1411.3 L 63.7031,-1411.12
 L 64.1433,-1410.88 L 64.5497,-1410.58 L 64.9159,-1410.24 L 65.2361,-1409.85 L 65.5052,-1409.43 L 65.7191,-1408.97
 L 65.8743,-1408.49 L 65.9685,-1408 L 66,-1407.5 L 66,-1238.5 L 65.9685,-1238 L 65.8743,-1237.51
 L 65.7191,-1237.03 L 65.5052,-1236.57 L 65.2361,-1236.15 L 64.9159,-1235.76 L 64.5497,-1235.42 L 64.1433,-1235.12
 L 63.7031,-1234.88 L 63.2361,-1234.7 L 62.7495,-1234.57 L 62.2512,-1234.51 z
M 63.4369,-1044.09 L 64.0451,-1044.24 L 64.6289,-1044.48 L 65.1791,-1044.78 L 65.6871,-1045.15 L 66.1448,-1045.58
 L 66.5451,-1046.06 L 66.8815,-1046.59 L 67.1489,-1047.16 L 67.3429,-1047.76 L 67.4606,-1048.37 L 67.5,-1049
 L 67.5,-1219 L 67.4606,-1219.63 L 67.3429,-1220.24 L 67.1489,-1220.84 L 66.8815,-1221.41 L 66.5451,-1221.94
 L 66.1448,-1222.42 L 65.6871,-1222.85 L 65.1791,-1223.22 L 64.6289,-1223.52 L 64.0451,-1223.76 L 63.4369,-1223.91
 L 62.8139,-1223.99 L -62.8139,-1223.99 L -63.4369,-1223.91 L -64.0451,-1223.76 L -64.6289,-1223.52 L -65.1791,-1223.22
 L -65.6871,-1222.85 L -66.1448,-1222.42 L -66.5451,-1221.94 L -66.8815,-1221.41 L -67.1489,-1220.84 L -67.3429,-1220.24
 L -67.4606,-1219.63 L -67.5,-1219 L -67.5,-1049 L -67.4606,-1048.37 L -67.3429,-1047.76 L -67.1489,-1047.16
 L -66.8815,-1046.59 L -66.5451,-1046.06 L -66.1448,-1045.58 L -65.6871,-1045.15 L -65.1791,-1044.78 L -64.6289,-1044.48
 L -64.0451,-1044.24 L -63.4369,-1044.09 L -62.8139,-1044.01 L 62.8139,-1044.01 z
M -62.2512,-1045.51 L -62.7495,-1045.57 L -63.2361,-1045.7 L -63.7031,-1045.88 L -64.1433,-1046.12 L -64.5497,-1046.42
 L -64.9159,-1046.76 L -65.2361,-1047.15 L -65.5052,-1047.57 L -65.7191,-1048.03 L -65.8743,-1048.51 L -65.9685,-1049
 L -66,-1049.5 L -66,-1218.5 L -65.9685,-1219 L -65.8743,-1219.49 L -65.7191,-1219.97 L -65.5052,-1220.43
 L -65.2361,-1220.85 L -64.9159,-1221.24 L -64.5497,-1221.58 L -64.1433,-1221.88 L -63.7031,-1222.12 L -63.2361,-1222.3
 L -62.7495,-1222.43 L -62.2512,-1222.49 L 62.2512,-1222.49 L 62.7495,-1222.43 L 63.2361,-1222.3 L 63.7031,-1222.12
 L 64.1433,-1221.88 L 64.5497,-1221.58 L 64.9159,-1221.24 L 65.2361,-1220.85 L 65.5052,-1220.43 L 65.7191,-1219.97
 L 65.8743,-1219.49 L 65.9685,-1219 L 66,-1218.5 L 66,-1049.5 L 65.9685,-1049 L 65.8743,-1048.51
 L 65.7191,-1048.03 L 65.5052,-1047.57 L 65.2361,-1047.15 L 64.9159,-1046.76 L 64.5497,-1046.42 L 64.1433,-1046.12
 L 63.7031,-1045.88 L 63.2361,-1045.7 L 62.7495,-1045.57 L 62.2512,-1045.51 z
M 63.4369,-855.089 L 64.0451,-855.245 L 64.6289,-855.476 L 65.1791,-855.778 L 65.6871,-856.147 L 66.1448,-856.577
 L 66.5451,-857.061 L 66.8815,-857.591 L 67.1489,-858.159 L 67.3429,-858.757 L 67.4606,-859.373 L 67.5,-860
 L 67.5,-1030 L 67.4606,-1030.63 L 67.3429,-1031.24 L 67.1489,-1031.84 L 66.8815,-1032.41 L 66.5451,-1032.94
 L 66.1448,-1033.42 L 65.6871,-1033.85 L 65.1791,-1034.22 L 64.6289,-1034.52 L 64.0451,-1034.76 L 63.4369,-1034.91
 L 62.8139,-1034.99 L -62.8139,-1034.99 L -63.4369,-1034.91 L -64.0451,-1034.76 L -64.6289,-1034.52 L -65.1791,-1034.22
 L -65.6871,-1033.85 L -66.1448,-1033.42 L -66.5451,-1032.94 L -66.8815,-1032.41 L -67.1489,-1031.84 L -67.3429,-1031.24
 L -67.4606,-1030.63 L -67.5,-1030 L -67.5,-860 L -67.4606,-859.373 L -67.3429,-858.757 L -67.1489,-858.159
 L -66.8815,-857.591 L -66.5451,-857.061 L -66.1448,-856.577 L -65.6871,-856.147 L -65.1791,-855.778 L -64.6289,-855.476
 L -64.0451,-855.245 L -63.4369,-855.089 L -62.8139,-855.01 L 62.8139,-855.01 z
M -62.1954,-857.393 L -62.5833,-857.442 L -62.9619,-857.539 L -63.3254,-857.683 L -63.668,-857.872 L -63.9842,-858.101
 L -64.2692,-858.369 L -64.5184,-858.67 L -64.7279,-859 L -64.8943,-859.354 L -65.0151,-859.726 L -65.0884,-860.11
 L -65.1129,-860.5 L -65.1129,-1029.5 L -65.0884,-1029.89 L -65.0151,-1030.27 L -64.8943,-1030.65 L -64.7279,-1031
 L -64.5184,-1031.33 L -64.2692,-1031.63 L -63.9842,-1031.9 L -63.668,-1032.13 L -63.3254,-1032.32 L -62.9619,-1032.46
 L -62.5833,-1032.56 L -62.1954,-1032.61 L 62.1954,-1032.61 L 62.5833,-1032.56 L 62.9619,-1032.46 L 63.3254,-1032.32
 L 63.668,-1032.13 L 63.9842,-1031.9 L 64.2692,-1031.63 L 64.5184,-1031.33 L 64.7279,-1031 L 64.8943,-1030.65
 L 65.0151,-1030.27 L 65.0884,-1029.89 L 65.1129,-1029.5 L 65.1129,-860.5 L 65.0884,-860.11 L 65.0151,-859.726
 L 64.8943,-859.354 L 64.7279,-859 L 64.5184,-858.67 L 64.2692,-858.369 L 63.9842,-858.101 L 63.668,-857.872
 L 63.3254,-857.683 L 62.9619,-857.539 L 62.5833,-857.442 L 62.1954,-857.393 z
M 63.4369,-666.089 L 64.0451,-666.245 L 64.6289,-666.476 L 65.1791,-666.778 L 65.6871,-667.147 L 66.1448,-667.577
 L 66.5451,-668.061 L 66.8815,-668.591 L 67.1489,-669.159 L 67.3429,-669.757 L 67.4606,-670.373 L 67.5,-671
 L 67.5,-841 L 67.4606,-841.627 L 67.3429,-842.243 L 67.1489,-842.841 L 66.8815,-843.409 L 66.5451,-843.939
 L 66.1448,-844.423 L 65.6871,-844.853 L 65.1791,-845.222 L 64.6289,-845.524 L 64.0451,-845.755 L 63.4369,-845.911
 L 62.8139,-845.99 L -62.8139,-845.99 L -63.4369,-845.911 L -64.0451,-845.755 L -64.6289,-845.524 L -65.1791,-845.222
 L -65.6871,-844.853 L -66.1448,-844.423 L -66.5451,-843.939 L -66.8815,-843.409 L -67.1489,-842.841 L -67.3429,-842.243
 L -67.4606,-841.627 L -67.5,-841 L -67.5,-671 L -67.4606,-670.373 L -67.3429,-669.757 L -67.1489,-669.159
 L -66.8815,-668.591 L -66.5451,-668.061 L -66.1448,-667.577 L -65.6871,-667.147 L -65.1791,-666.778 L -64.6289,-666.476
 L -64.0451,-666.245 L -63.4369,-666.089 L -62.8139,-666.01 L 62.8139,-666.01 z
M 59.8659,-836.369 L 59.5999,-836.403 L 59.3401,-836.469 L 59.0908,-836.568 L 58.8559,-836.697 L 58.6389,-836.855
 L 58.4434,-837.038 L 58.2725,-837.245 L 58.1288,-837.471 L 58.0146,-837.714 L 57.9318,-837.969 L 57.8815,-838.232
 L 57.8647,-838.5 L 57.8815,-838.768 L 57.9318,-839.031 L 58.0146,-839.286 L 58.1288,-839.529 L 58.2725,-839.755
 L 58.4434,-839.962 L 58.6389,-840.145 L 58.8559,-840.303 L 59.0908,-840.432 L 59.3401,-840.531 L 59.5999,-840.597
 L 59.8659,-840.631 L 60.1341,-840.631 L 60.4001,-840.597 L 60.6598,-840.531 L 60.9092,-840.432 L 61.1441,-840.303
 L 61.3611,-840.145 L 61.5565,-839.962 L 61.7275,-839.755 L 61.8712,-839.529 L 61.9853,-839.286 L 62.0682,-839.031
 L 62.1185,-838.768 L 62.1353,-838.5 L 62.1185,-838.232 L 62.0682,-837.969 L 61.9853,-837.714 L 61.8712,-837.471
 L 61.7275,-837.245 L 61.5565,-837.038 L 61.3611,-836.855 L 61.1441,-836.697 L 60.9092,-836.568 L 60.6598,-836.469
 L 60.4001,-836.403 L 60.1341,-836.369 z
M -60.1341,-836.369 L -60.4001,-836.403 L -60.6598,-836.469 L -60.9092,-836.568 L -61.1441,-836.697 L -61.3611,-836.855
 L -61.5565,-837.038 L -61.7275,-837.245 L -61.8712,-837.471 L -61.9853,-837.714 L -62.0682,-837.969 L -62.1185,-838.232
 L -62.1353,-838.5 L -62.1185,-838.768 L -62.0682,-839.031 L -61.9853,-839.286 L -61.8712,-839.529 L -61.7275,-839.755
 L -61.5565,-839.962 L -61.3611,-840.145 L -61.1441,-840.303 L -60.9092,-840.432 L -60.6598,-840.531 L -60.4001,-840.597
 L -60.1341,-840.631 L -59.8659,-840.631 L -59.5999,-840.597 L -59.3401,-840.531 L -59.0908,-840.432 L -58.8559,-840.303
 L -58.6389,-840.145 L -58.4434,-839.962 L -58.2725,-839.755 L -58.1288,-839.529 L -58.0146,-839.286 L -57.9318,-839.031
 L -57.8815,-838.768 L -57.8647,-838.5 L -57.8815,-838.232 L -57.9318,-837.969 L -58.0146,-837.714 L -58.1288,-837.471
 L -58.2725,-837.245 L -58.4434,-837.038 L -58.6389,-836.855 L -58.8559,-836.697 L -59.0908,-836.568 L -59.3401,-836.469
 L -59.5999,-836.403 L -59.8659,-836.369 z
M 59.8659,-671.369 L 59.5999,-671.403 L 59.3401,-671.469 L 59.0908,-671.568 L 58.8559,-671.697 L 58.6389,-671.855
 L 58.4434,-672.038 L 58.2725,-672.245 L 58.1288,-672.471 L 58.0146,-672.714 L 57.9318,-672.969 L 57.8815,-673.232
 L 57.8647,-673.5 L 57.8815,-673.768 L 57.9318,-674.031 L 58.0146,-674.286 L 58.1288,-674.529 L 58.2725,-674.755
 L 58.4434,-674.962 L 58.6389,-675.145 L 58.8559,-675.303 L 59.0908,-675.432 L 59.3401,-675.531 L 59.5999,-675.597
 L 59.8659,-675.631 L 60.1341,-675.631 L 60.4001,-675.597 L 60.6598,-675.531 L 60.9092,-675.432 L 61.1441,-675.303
 L 61.3611,-675.145 L 61.5565,-674.962 L 61.7275,-674.755 L 61.8712,-674.529 L 61.9853,-674.286 L 62.0682,-674.031
 L 62.1185,-673.768 L 62.1353,-673.5 L 62.1185,-673.232 L 62.0682,-672.969 L 61.9853,-672.714 L 61.8712,-672.471
 L 61.7275,-672.245 L 61.5565,-672.038 L 61.3611,-671.855 L 61.1441,-671.697 L 60.9092,-671.568 L 60.6598,-671.469
 L 60.4001,-671.403 L 60.1341,-671.369 z
M -60.1341,-671.369 L -60.4001,-671.403 L -60.6598,-671.469 L -60.9092,-671.568 L -61.1441,-671.697 L -61.3611,-671.855
 L -61.5565,-672.038 L -61.7275,-672.245 L -61.8712,-672.471 L -61.9853,-672.714 L -62.0682,-672.969 L -62.1185,-673.232
 L -62.1353,-673.5 L -62.1185,-673.768 L -62.0682,-674.031 L -61.9853,-674.286 L -61.8712,-674.529 L -61.7275,-674.755
 L -61.5565,-674.962 L -61.3611,-675.145 L -61.1441,-675.303 L -60.9092,-675.432 L -60.6598,-675.531 L -60.4001,-675.597
 L -60.1341,-675.631 L -59.8659,-675.631 L -59.5999,-675.597 L -59.3401,-675.531 L -59.0908,-675.432 L -58.8559,-675.303
 L -58.6389,-675.145 L -58.4434,-674.962 L -58.2725,-674.755 L -58.1288,-674.529 L -58.0146,-674.286 L -57.9318,-674.031
 L -57.8815,-673.768 L -57.8647,-673.5 L -57.8815,-673.232 L -57.9318,-672.969 L -58.0146,-672.714 L -58.1288,-672.471
 L -58.2725,-672.245 L -58.4434,-672.038 L -58.6389,-671.855 L -58.8559,-671.697 L -59.0908,-671.568 L -59.3401,-671.469
 L -59.5999,-671.403 L -59.8659,-671.369 z
" stroke="black" fill="lightgray" stroke-width="0.5"/>
</svg>
