<?xml version="1.0" standalone="no"?>
<!DOCTYPE svg PUBLIC "-//W3C//DTD SVG 1.1//EN" "http://www.w3.org/Graphics/SVG/1.1/DTD/svg11.dtd">
<svg width="166mm" height="3726mm" viewBox="-83 -7341 166 3726" xmlns="http://www.w3.org/2000/svg" version="1.1">
<title>OpenSCAD Model</title>
<path d="
M 78.4369,-7101.09 L 79.0451,-7101.24 L 79.6289,-7101.48 L 80.1791,-7101.78 L 80.6871,-7102.15 L 81.1448,-7102.58
 L 81.5451,-7103.06 L 81.8815,-7103.59 L 82.1489,-7104.16 L 82.3429,-7104.76 L 82.4606,-7105.37 L 82.5,-7106
 L 82.5,-7336 L 82.4606,-7336.63 L 82.3429,-7337.24 L 82.1489,-7337.84 L 81.8815,-7338.41 L 81.5451,-7338.94
 L 81.1448,-7339.42 L 80.6871,-7339.85 L 80.1791,-7340.22 L 79.6289,-7340.52 L 79.0451,-7340.76 L 78.4369,-7340.91
 L 77.8139,-7340.99 L -77.8139,-7340.99 L -78.4369,-7340.91 L -79.0451,-7340.76 L -79.6289,-7340.52 L -80.1791,-7340.22
 L -80.6871,-7339.85 L -81.1448,-7339.42 L -81.5451,-7338.94 L -81.8815,-7338.41 L -82.1489,-7337.84 L -82.3429,-7337.24
 L -82.4606,-7336.63 L -82.5,-7336 L -82.5,-7106 L -82.4606,-7105.37 L -82.3429,-7104.76 L -82.1489,-7104.16
 L -81.8815,-7103.59 L -81.5451,-7103.06 L -81.1448,-7102.58 L -80.6871,-7102.15 L -80.1791,-7101.78 L -79.6289,-7101.48
 L -79.0451,-7101.24 L -78.4369,-7101.09 L -77.8139,-7101.01 L 77.8139,-7101.01 z
M -77.2512,-7102.51 L -77.7495,-7102.57 L -78.2361,-7102.7 L -78.7031,-7102.88 L -79.1433,-7103.12 L -79.5497,-7103.42
 L -79.9159,-7103.76 L -80.2361,-7104.15 L -80.5052,-7104.57 L -80.7191,-7105.03 L -80.8743,-7105.51 L -80.9685,-7106
 L -81,-7106.5 L -81,-7335.5 L -80.9685,-7336 L -80.8743,-7336.49 L -80.7191,-7336.97 L -80.5052,-7337.43
 L -80.2361,-7337.85 L -79.9159,-7338.24 L -79.5497,-7338.58 L -79.1433,-7338.88 L -78.7031,-7339.12 L -78.2361,-7339.3
 L -77.7495,-7339.43 L -77.2512,-7339.49 L 77.2512,-7339.49 L 77.7495,-7339.43 L 78.2361,-7339.3 L 78.7031,-7339.12
 L 79.1433,-7338.88 L 79.5497,-7338.58 L 79.9159,-7338.24 L 80.2361,-7337.85 L 80.5052,-7337.43 L 80.7191,-7336.97
 L 80.8743,-7336.49 L 80.9685,-7336 L 81,-7335.5 L 81,-7106.5 L 80.9685,-7106 L 80.8743,-7105.51
 L 80.7191,-7105.03 L 80.5052,-7104.57 L 80.2361,-7104.15 L 79.9159,-7103.76 L 79.5497,-7103.42 L 79.1433,-7103.12
 L 78.7031,-7102.88 L 78.2361,-7102.7 L 77.7495,-7102.57 L 77.2512,-7102.51 z
M 78.4369,-6852.09 L 79.0451,-6852.24 L 79.6289,-6852.48 L 80.1791,-6852.78 L 80.6871,-6853.15 L 81.1448,-6853.58
 L 81.5451,-6854.06 L 81.8815,-6854.59 L 82.1489,-6855.16 L 82.3429,-6855.76 L 82.4606,-6856.37 L 82.5,-6857
 L 82.5,-7087 L 82.4606,-7087.63 L 82.3429,-7088.24 L 82.1489,-7088.84 L 81.8815,-7089.41 L 81.5451,-7089.94
 L 81.1448,-7090.42 L 80.6871,-7090.85 L 80.1791,-7091.22 L 79.6289,-7091.52 L 79.0451,-7091.76 L 78.4369,-7091.91
 L 77.8139,-7091.99 L -77.8139,-7091.99 L -78.4369,-7091.91 L -79.0451,-7091.76 L -79.6289,-7091.52 L -80.1791,-7091.22
 L -80.6871,-7090.85 L -81.1448,-7090.42 L -81.5451,-7089.94 L -81.8815,-7089.41 L -82.1489,-7088.84 L -82.3429,-7088.24
 L -82.4606,-7087.63 L -82.5,-7087 L -82.5,-6857 L -82.4606,-6856.37 L -82.3429,-6855.76 L -82.1489,-6855.16
 L -81.8815,-6854.59 L -81.5451,-6854.06 L -81.1448,-6853.58 L -80.6871,-6853.15 L -80.1791,-6852.78 L -79.6289,-6852.48
 L -79.0451,-6852.24 L -78.4369,-6852.09 L -77.8139,-6852.01 L 77.8139,-6852.01 z
M -77.2512,-6853.51 L -77.7495,-6853.57 L -78.2361,-6853.7 L -78.7031,-6853.88 L -79.1433,-6854.12 L -79.5497,-6854.42
 L -79.9159,-6854.76 L -80.2361,-6855.15 L -80.5052,-6855.57 L -80.7191,-6856.03 L -80.8743,-6856.51 L -80.9685,-6857
 L -81,-6857.5 L -81,-7086.5 L -80.9685,-7087 L -80.8743,-7087.49 L -80.7191,-7087.97 L -80.5052,-7088.43
 L -80.2361,-7088.85 L -79.9159,-7089.24 L -79.5497,-7089.58 L -79.1433,-7089.88 L -78.7031,-7090.12 L -78.2361,-7090.3
 L -77.7495,-7090.43 L -77.2512,-7090.49 L 77.2512,-7090.49 L 77.7495,-7090.43 L 78.2361,-7090.3 L 78.7031,-7090.12
 L 79.1433,-7089.88 L 79.5497,-7089.58 L 79.9159,-7089.24 L 80.2361,-7088.85 L 80.5052,-7088.43 L 80.7191,-7087.97
 L 80.8743,-7087.49 L 80.9685,-7087 L 81,-7086.5 L 81,-6857.5 L 80.9685,-6857 L 80.8743,-6856.51
 L 80.7191,-6856.03 L 80.5052,-6855.57 L 80.2361,-6855.15 L 79.9159,-6854.76 L 79.5497,-6854.42 L 79.1433,-6854.12
 L 78.7031,-6853.88 L 78.2361,-6853.7 L 77.7495,-6853.57 L 77.2512,-6853.51 z
M 78.4369,-6603.09 L 79.0451,-6603.24 L 79.6289,-6603.48 L 80.1791,-6603.78 L 80.6871,-6604.15 L 81.1448,-6604.58
 L 81.5451,-6605.06 L 81.8815,-6605.59 L 82.1489,-6606.16 L 82.3429,-6606.76 L 82.4606,-6607.37 L 82.5,-6608
 L 82.5,-6838 L 82.4606,-6838.63 L 82.3429,-6839.24 L 82.1489,-6839.84 L 81.8815,-6840.41 L 81.5451,-6840.94
 L 81.1448,-6841.42 L 80.6871,-6841.85 L 80.1791,-6842.22 L 79.6289,-6842.52 L 79.0451,-6842.76 L 78.4369,-6842.91
 L 77.8139,-6842.99 L -77.8139,-6842.99 L -78.4369,-6842.91 L -79.0451,-6842.76 L -79.6289,-6842.52 L -80.1791,-6842.22
 L -80.6871,-6841.85 L -81.1448,-6841.42 L -81.5451,-6840.94 L -81.8815,-6840.41 L -82.1489,-6839.84 L -82.3429,-6839.24
 L -82.4606,-6838.63 L -82.5,-6838 L -82.5,-6608 L -82.4606,-6607.37 L -82.3429,-6606.76 L -82.1489,-6606.16
 L -81.8815,-6605.59 L -81.5451,-6605.06 L -81.1448,-6604.58 L -80.6871,-6604.15 L -80.1791,-6603.78 L -79.6289,-6603.48
 L -79.0451,-6603.24 L -78.4369,-6603.09 L -77.8139,-6603.01 L 77.8139,-6603.01 z
M -77.2512,-6604.51 L -77.7495,-6604.57 L -78.2361,-6604.7 L -78.7031,-6604.88 L -79.1433,-6605.12 L -79.5497,-6605.42
 L -79.9159,-6605.76 L -80.2361,-6606.15 L -80.5052,-6606.57 L -80.7191,-6607.03 L -80.8743,-6607.51 L -80.9685,-6608
 L -81,-6608.5 L -81,-6837.5 L -80.9685,-6838 L -80.8743,-6838.49 L -80.7191,-6838.97 L -80.5052,-6839.43
 L -80.2361,-6839.85 L -79.9159,-6840.24 L -79.5497,-6840.58 L -79.1433,-6840.88 L -78.7031,-6841.12 L -78.2361,-6841.3
 L -77.7495,-6841.43 L -77.2512,-6841.49 L 77.2512,-6841.49 L 77.7495,-6841.43 L 78.2361,-6841.3 L 78.7031,-6841.12
 L 79.1433,-6840.88 L 79.5497,-6840.58 L 79.9159,-6840.24 L 80.2361,-6839.85 L 80.5052,-6839.43 L 80.7191,-6838.97
 L 80.8743,-6838.49 L 80.9685,-6838 L 81,-6837.5 L 81,-6608.5 L 80.9685,-6608 L 80.8743,-6607.51
 L 80.7191,-6607.03 L 80.5052,-6606.57 L 80.2361,-6606.15 L 79.9159,-6605.76 L 79.5497,-6605.42 L 79.1433,-6605.12
 L 78.7031,-6604.88 L 78.2361,-6604.7 L 77.7495,-6604.57 L 77.2512,-6604.51 z
M 78.4369,-6354.09 L 79.0451,-6354.24 L 79.6289,-6354.48 L 80.1791,-6354.78 L 80.6871,-6355.15 L 81.1448,-6355.58
 L 81.5451,-6356.06 L 81.8815,-6356.59 L 82.1489,-6357.16 L 82.3429,-6357.76 L 82.4606,-6358.37 L 82.5,-6359
 L 82.5,-6589 L 82.4606,-6589.63 L 82.3429,-6590.24 L 82.1489,-6590.84 L 81.8815,-6591.41 L 81.5451,-6591.94
 L 81.1448,-6592.42 L 80.6871,-6592.85 L 80.1791,-6593.22 L 79.6289,-6593.52 L 79.0451,-6593.76 L 78.4369,-6593.91
 L 77.8139,-6593.99 L -77.8139,-6593.99 L -78.4369,-6593.91 L -79.0451,-6593.76 L -79.6289,-6593.52 L -80.1791,-6593.22
 L -80.6871,-6592.85 L -81.1448,-6592.42 L -81.5451,-6591.94 L -81.8815,-6591.41 L -82.1489,-6590.84 L -82.3429,-6590.24
 L -82.4606,-6589.63 L -82.5,-6589 L -82.5,-6359 L -82.4606,-6358.37 L -82.3429,-6357.76 L -82.1489,-6357.16
 L -81.8815,-6356.59 L -81.5451,-6356.06 L -81.1448,-6355.58 L -80.6871,-6355.15 L -80.1791,-6354.78 L -79.6289,-6354.48
 L -79.0451,-6354.24 L -78.4369,-6354.09 L -77.8139,-6354.01 L 77.8139,-6354.01 z
M -77.2512,-6355.51 L -77.7495,-6355.57 L -78.2361,-6355.7 L -78.7031,-6355.88 L -79.1433,-6356.12 L -79.5497,-6356.42
 L -79.9159,-6356.76 L -80.2361,-6357.15 L -80.5052,-6357.57 L -80.7191,-6358.03 L -80.8743,-6358.51 L -80.9685,-6359
 L -81,-6359.5 L -81,-6588.5 L -80.9685,-6589 L -80.8743,-6589.49 L -80.7191,-6589.97 L -80.5052,-6590.43
 L -80.2361,-6590.85 L -79.9159,-6591.24 L -79.5497,-6591.58 L -79.1433,-6591.88 L -78.7031,-6592.12 L -78.2361,-6592.3
 L -77.7495,-6592.43 L -77.2512,-6592.49 L 77.2512,-6592.49 L 77.7495,-6592.43 L 78.2361,-6592.3 L 78.7031,-6592.12
 L 79.1433,-6591.88 L 79.5497,-6591.58 L 79.9159,-6591.24 L 80.2361,-6590.85 L 80.5052,-6590.43 L 80.7191,-6589.97
 L 80.8743,-6589.49 L 80.9685,-6589 L 81,-6588.5 L 81,-6359.5 L 80.9685,-6359 L 80.8743,-6358.51
 L 80.7191,-6358.03 L 80.5052,-6357.57 L 80.2361,-6357.15 L 79.9159,-6356.76 L 79.5497,-6356.42 L 79.1433,-6356.12
 L 78.7031,-6355.88 L 78.2361,-6355.7 L 77.7495,-6355.57 L 77.2512,-6355.51 z
M 78.4369,-6105.09 L 79.0451,-6105.24 L 79.6289,-6105.48 L 80.1791,-6105.78 L 80.6871,-6106.15 L 81.1448,-6106.58
 L 81.5451,-6107.06 L 81.8815,-6107.59 L 82.1489,-6108.16 L 82.3429,-6108.76 L 82.4606,-6109.37 L 82.5,-6110
 L 82.5,-6340 L 82.4606,-6340.63 L 82.3429,-6341.24 L 82.1489,-6341.84 L 81.8815,-6342.41 L 81.5451,-6342.94
 L 81.1448,-6343.42 L 80.6871,-6343.85 L 80.1791,-6344.22 L 79.6289,-6344.52 L 79.0451,-6344.76 L 78.4369,-6344.91
 L 77.8139,-6344.99 L -77.8139,-6344.99 L -78.4369,-6344.91 L -79.0451,-6344.76 L -79.6289,-6344.52 L -80.1791,-6344.22
 L -80.6871,-6343.85 L -81.1448,-6343.42 L -81.5451,-6342.94 L -81.8815,-6342.41 L -82.1489,-6341.84 L -82.3429,-6341.24
 L -82.4606,-6340.63 L -82.5,-6340 L -82.5,-6110 L -82.4606,-6109.37 L -82.3429,-6108.76 L -82.1489,-6108.16
 L -81.8815,-6107.59 L -81.5451,-6107.06 L -81.1448,-6106.58 L -80.6871,-6106.15 L -80.1791,-6105.78 L -79.6289,-6105.48
 L -79.0451,-6105.24 L -78.4369,-6105.09 L -77.8139,-6105.01 L 77.8139,-6105.01 z
M -77.2512,-6106.51 L -77.7495,-6106.57 L -78.2361,-6106.7 L -78.7031,-6106.88 L -79.1433,-6107.12 L -79.5497,-6107.42
 L -79.9159,-6107.76 L -80.2361,-6108.15 L -80.5052,-6108.57 L -80.7191,-6109.03 L -80.8743,-6109.51 L -80.9685,-6110
 L -81,-6110.5 L -81,-6339.5 L -80.9685,-6340 L -80.8743,-6340.49 L -80.7191,-6340.97 L -80.5052,-6341.43
 L -80.2361,-6341.85 L -79.9159,-6342.24 L -79.5497,-6342.58 L -79.1433,-6342.88 L -78.7031,-6343.12 L -78.2361,-6343.3
 L -77.7495,-6343.43 L -77.2512,-6343.49 L 77.2512,-6343.49 L 77.7495,-6343.43 L 78.2361,-6343.3 L 78.7031,-6343.12
 L 79.1433,-6342.88 L 79.5497,-6342.58 L 79.9159,-6342.24 L 80.2361,-6341.85 L 80.5052,-6341.43 L 80.7191,-6340.97
 L 80.8743,-6340.49 L 80.9685,-6340 L 81,-6339.5 L 81,-6110.5 L 80.9685,-6110 L 80.8743,-6109.51
 L 80.7191,-6109.03 L 80.5052,-6108.57 L 80.2361,-6108.15 L 79.9159,-6107.76 L 79.5497,-6107.42 L 79.1433,-6107.12
 L 78.7031,-6106.88 L 78.2361,-6106.7 L 77.7495,-6106.57 L 77.2512,-6106.51 z
M 78.4369,-5856.09 L 79.0451,-5856.24 L 79.6289,-5856.48 L 80.1791,-5856.78 L 80.6871,-5857.15 L 81.1448,-5857.58
 L 81.5451,-5858.06 L 81.8815,-5858.59 L 82.1489,-5859.16 L 82.3429,-5859.76 L 82.4606,-5860.37 L 82.5,-5861
 L 82.5,-6091 L 82.4606,-6091.63 L 82.3429,-6092.24 L 82.1489,-6092.84 L 81.8815,-6093.41 L 81.5451,-6093.94
 L 81.1448,-6094.42 L 80.6871,-6094.85 L 80.1791,-6095.22 L 79.6289,-6095.52 L 79.0451,-6095.76 L 78.4369,-6095.91
 L 77.8139,-6095.99 L -77.8139,-6095.99 L -78.4369,-6095.91 L -79.0451,-6095.76 L -79.6289,-6095.52 L -80.1791,-6095.22
 L -80.6871,-6094.85 L -81.1448,-6094.42 L -81.5451,-6093.94 L -81.8815,-6093.41 L -82.1489,-6092.84 L -82.3429,-6092.24
 L -82.4606,-6091.63 L -82.5,-6091 L -82.5,-5861 L -82.4606,-5860.37 L -82.3429,-5859.76 L -82.1489,-5859.16
 L -81.8815,-5858.59 L -81.5451,-5858.06 L -81.1448,-5857.58 L -80.6871,-5857.15 L -80.1791,-5856.78 L -79.6289,-5856.48
 L -79.0451,-5856.24 L -78.4369,-5856.09 L -77.8139,-5856.01 L 77.8139,-5856.01 z
M -77.2512,-5857.51 L -77.7495,-5857.57 L -78.2361,-5857.7 L -78.7031,-5857.88 L -79.1433,-5858.12 L -79.5497,-5858.42
 L -79.9159,-5858.76 L -80.2361,-5859.15 L -80.5052,-5859.57 L -80.7191,-5860.03 L -80.8743,-5860.51 L -80.9685,-5861
 L -81,-5861.5 L -81,-6090.5 L -80.9685,-6091 L -80.8743,-6091.49 L -80.7191,-6091.97 L -80.5052,-6092.43
 L -80.2361,-6092.85 L -79.9159,-6093.24 L -79.5497,-6093.58 L -79.1433,-6093.88 L -78.7031,-6094.12 L -78.2361,-6094.3
 L -77.7495,-6094.43 L -77.2512,-6094.49 L 77.2512,-6094.49 L 77.7495,-6094.43 L 78.2361,-6094.3 L 78.7031,-6094.12
 L 79.1433,-6093.88 L 79.5497,-6093.58 L 79.9159,-6093.24 L 80.2361,-6092.85 L 80.5052,-6092.43 L 80.7191,-6091.97
 L 80.8743,-6091.49 L 80.9685,-6091 L 81,-6090.5 L 81,-5861.5 L 80.9685,-5861 L 80.8743,-5860.51
 L 80.7191,-5860.03 L 80.5052,-5859.57 L 80.2361,-5859.15 L 79.9159,-5858.76 L 79.5497,-5858.42 L 79.1433,-5858.12
 L 78.7031,-5857.88 L 78.2361,-5857.7 L 77.7495,-5857.57 L 77.2512,-5857.51 z
M 78.4369,-5607.09 L 79.0451,-5607.24 L 79.6289,-5607.48 L 80.1791,-5607.78 L 80.6871,-5608.15 L 81.1448,-5608.58
 L 81.5451,-5609.06 L 81.8815,-5609.59 L 82.1489,-5610.16 L 82.3429,-5610.76 L 82.4606,-5611.37 L 82.5,-5612
 L 82.5,-5842 L 82.4606,-5842.63 L 82.3429,-5843.24 L 82.1489,-5843.84 L 81.8815,-5844.41 L 81.5451,-5844.94
 L 81.1448,-5845.42 L 80.6871,-5845.85 L 80.1791,-5846.22 L 79.6289,-5846.52 L 79.0451,-5846.76 L 78.4369,-5846.91
 L 77.8139,-5846.99 L -77.8139,-5846.99 L -78.4369,-5846.91 L -79.0451,-5846.76 L -79.6289,-5846.52 L -80.1791,-5846.22
 L -80.6871,-5845.85 L -81.1448,-5845.42 L -81.5451,-5844.94 L -81.8815,-5844.41 L -82.1489,-5843.84 L -82.3429,-5843.24
 L -82.4606,-5842.63 L -82.5,-5842 L -82.5,-5612 L -82.4606,-5611.37 L -82.3429,-5610.76 L -82.1489,-5610.16
 L -81.8815,-5609.59 L -81.5451,-5609.06 L -81.1448,-5608.58 L -80.6871,-5608.15 L -80.1791,-5607.78 L -79.6289,-5607.48
 L -79.0451,-5607.24 L -78.4369,-5607.09 L -77.8139,-5607.01 L 77.8139,-5607.01 z
M -77.2512,-5608.51 L -77.7495,-5608.57 L -78.2361,-5608.7 L -78.7031,-5608.88 L -79.1433,-5609.12 L -79.5497,-5609.42
 L -79.9159,-5609.76 L -80.2361,-5610.15 L -80.5052,-5610.57 L -80.7191,-5611.03 L -80.8743,-5611.51 L -80.9685,-5612
 L -81,-5612.5 L -81,-5841.5 L -80.9685,-5842 L -80.8743,-5842.49 L -80.7191,-5842.97 L -80.5052,-5843.43
 L -80.2361,-5843.85 L -79.9159,-5844.24 L -79.5497,-5844.58 L -79.1433,-5844.88 L -78.7031,-5845.12 L -78.2361,-5845.3
 L -77.7495,-5845.43 L -77.2512,-5845.49 L 77.2512,-5845.49 L 77.7495,-5845.43 L 78.2361,-5845.3 L 78.7031,-5845.12
 L 79.1433,-5844.88 L 79.5497,-5844.58 L 79.9159,-5844.24 L 80.2361,-5843.85 L 80.5052,-5843.43 L 80.7191,-5842.97
 L 80.8743,-5842.49 L 80.9685,-5842 L 81,-5841.5 L 81,-5612.5 L 80.9685,-5612 L 80.8743,-5611.51
 L 80.7191,-5611.03 L 80.5052,-5610.57 L 80.2361,-5610.15 L 79.9159,-5609.76 L 79.5497,-5609.42 L 79.1433,-5609.12
 L 78.7031,-5608.88 L 78.2361,-5608.7 L 77.7495,-5608.57 L 77.2512,-5608.51 z
M 78.4369,-5358.09 L 79.0451,-5358.24 L 79.6289,-5358.48 L 80.1791,-5358.78 L 80.6871,-5359.15 L 81.1448,-5359.58
 L 81.5451,-5360.06 L 81.8815,-5360.59 L 82.1489,-5361.16 L 82.3429,-5361.76 L 82.4606,-5362.37 L 82.5,-5363
 L 82.5,-5593 L 82.4606,-5593.63 L 82.3429,-5594.24 L 82.1489,-5594.84 L 81.8815,-5595.41 L 81.5451,-5595.94
 L 81.1448,-5596.42 L 80.6871,-5596.85 L 80.1791,-5597.22 L 79.6289,-5597.52 L 79.0451,-5597.76 L 78.4369,-5597.91
 L 77.8139,-5597.99 L -77.8139,-5597.99 L -78.4369,-5597.91 L -79.0451,-5597.76 L -79.6289,-5597.52 L -80.1791,-5597.22
 L -80.6871,-5596.85 L -81.1448,-5596.42 L -81.5451,-5595.94 L -81.8815,-5595.41 L -82.1489,-5594.84 L -82.3429,-5594.24
 L -82.4606,-5593.63 L -82.5,-5593 L -82.5,-5363 L -82.4606,-5362.37 L -82.3429,-5361.76 L -82.1489,-5361.16
 L -81.8815,-5360.59 L -81.5451,-5360.06 L -81.1448,-5359.58 L -80.6871,-5359.15 L -80.1791,-5358.78 L -79.6289,-5358.48
 L -79.0451,-5358.24 L -78.4369,-5358.09 L -77.8139,-5358.01 L 77.8139,-5358.01 z
M -77.2512,-5359.51 L -77.7495,-5359.57 L -78.2361,-5359.7 L -78.7031,-5359.88 L -79.1433,-5360.12 L -79.5497,-5360.42
 L -79.9159,-5360.76 L -80.2361,-5361.15 L -80.5052,-5361.57 L -80.7191,-5362.03 L -80.8743,-5362.51 L -80.9685,-5363
 L -81,-5363.5 L -81,-5592.5 L -80.9685,-5593 L -80.8743,-5593.49 L -80.7191,-5593.97 L -80.5052,-5594.43
 L -80.2361,-5594.85 L -79.9159,-5595.24 L -79.5497,-5595.58 L -79.1433,-5595.88 L -78.7031,-5596.12 L -78.2361,-5596.3
 L -77.7495,-5596.43 L -77.2512,-5596.49 L 77.2512,-5596.49 L 77.7495,-5596.43 L 78.2361,-5596.3 L 78.7031,-5596.12
 L 79.1433,-5595.88 L 79.5497,-5595.58 L 79.9159,-5595.24 L 80.2361,-5594.85 L 80.5052,-5594.43 L 80.7191,-5593.97
 L 80.8743,-5593.49 L 80.9685,-5593 L 81,-5592.5 L 81,-5363.5 L 80.9685,-5363 L 80.8743,-5362.51
 L 80.7191,-5362.03 L 80.5052,-5361.57 L 80.2361,-5361.15 L 79.9159,-5360.76 L 79.5497,-5360.42 L 79.1433,-5360.12
 L 78.7031,-5359.88 L 78.2361,-5359.7 L 77.7495,-5359.57 L 77.2512,-5359.51 z
M 78.4369,-5109.09 L 79.0451,-5109.24 L 79.6289,-5109.48 L 80.1791,-5109.78 L 80.6871,-5110.15 L 81.1448,-5110.58
 L 81.5451,-5111.06 L 81.8815,-5111.59 L 82.1489,-5112.16 L 82.3429,-5112.76 L 82.4606,-5113.37 L 82.5,-5114
 L 82.5,-5344 L 82.4606,-5344.63 L 82.3429,-5345.24 L 82.1489,-5345.84 L 81.8815,-5346.41 L 81.5451,-5346.94
 L 81.1448,-5347.42 L 80.6871,-5347.85 L 80.1791,-5348.22 L 79.6289,-5348.52 L 79.0451,-5348.76 L 78.4369,-5348.91
 L 77.8139,-5348.99 L -77.8139,-5348.99 L -78.4369,-5348.91 L -79.0451,-5348.76 L -79.6289,-5348.52 L -80.1791,-5348.22
 L -80.6871,-5347.85 L -81.1448,-5347.42 L -81.5451,-5346.94 L -81.8815,-5346.41 L -82.1489,-5345.84 L -82.3429,-5345.24
 L -82.4606,-5344.63 L -82.5,-5344 L -82.5,-5114 L -82.4606,-5113.37 L -82.3429,-5112.76 L -82.1489,-5112.16
 L -81.8815,-5111.59 L -81.5451,-5111.06 L -81.1448,-5110.58 L -80.6871,-5110.15 L -80.1791,-5109.78 L -79.6289,-5109.48
 L -79.0451,-5109.24 L -78.4369,-5109.09 L -77.8139,-5109.01 L 77.8139,-5109.01 z
M -77.2512,-5110.51 L -77.7495,-5110.57 L -78.2361,-5110.7 L -78.7031,-5110.88 L -79.1433,-5111.12 L -79.5497,-5111.42
 L -79.9159,-5111.76 L -80.2361,-5112.15 L -80.5052,-5112.57 L -80.7191,-5113.03 L -80.8743,-5113.51 L -80.9685,-5114
 L -81,-5114.5 L -81,-5343.5 L -80.9685,-5344 L -80.8743,-5344.49 L -80.7191,-5344.97 L -80.5052,-5345.43
 L -80.2361,-5345.85 L -79.9159,-5346.24 L -79.5497,-5346.58 L -79.1433,-5346.88 L -78.7031,-5347.12 L -78.2361,-5347.3
 L -77.7495,-5347.43 L -77.2512,-5347.49 L 77.2512,-5347.49 L 77.7495,-5347.43 L 78.2361,-5347.3 L 78.7031,-5347.12
 L 79.1433,-5346.88 L 79.5497,-5346.58 L 79.9159,-5346.24 L 80.2361,-5345.85 L 80.5052,-5345.43 L 80.7191,-5344.97
 L 80.8743,-5344.49 L 80.9685,-5344 L 81,-5343.5 L 81,-5114.5 L 80.9685,-5114 L 80.8743,-5113.51
 L 80.7191,-5113.03 L 80.5052,-5112.57 L 80.2361,-5112.15 L 79.9159,-5111.76 L 79.5497,-5111.42 L 79.1433,-5111.12
 L 78.7031,-5110.88 L 78.2361,-5110.7 L 77.7495,-5110.57 L 77.2512,-5110.51 z
M 78.4369,-4860.09 L 79.0451,-4860.24 L 79.6289,-4860.48 L 80.1791,-4860.78 L 80.6871,-4861.15 L 81.1448,-4861.58
 L 81.5451,-4862.06 L 81.8815,-4862.59 L 82.1489,-4863.16 L 82.3429,-4863.76 L 82.4606,-4864.37 L 82.5,-4865
 L 82.5,-5095 L 82.4606,-5095.63 L 82.3429,-5096.24 L 82.1489,-5096.84 L 81.8815,-5097.41 L 81.5451,-5097.94
 L 81.1448,-5098.42 L 80.6871,-5098.85 L 80.1791,-5099.22 L 79.6289,-5099.52 L 79.0451,-5099.76 L 78.4369,-5099.91
 L 77.8139,-5099.99 L -77.8139,-5099.99 L -78.4369,-5099.91 L -79.0451,-5099.76 L -79.6289,-5099.52 L -80.1791,-5099.22
 L -80.6871,-5098.85 L -81.1448,-5098.42 L -81.5451,-5097.94 L -81.8815,-5097.41 L -82.1489,-5096.84 L -82.3429,-5096.24
 L -82.4606,-5095.63 L -82.5,-5095 L -82.5,-4865 L -82.4606,-4864.37 L -82.3429,-4863.76 L -82.1489,-4863.16
 L -81.8815,-4862.59 L -81.5451,-4862.06 L -81.1448,-4861.58 L -80.6871,-4861.15 L -80.1791,-4860.78 L -79.6289,-4860.48
 L -79.0451,-4860.24 L -78.4369,-4860.09 L -77.8139,-4860.01 L 77.8139,-4860.01 z
M -77.2512,-4861.51 L -77.7495,-4861.57 L -78.2361,-4861.7 L -78.7031,-4861.88 L -79.1433,-4862.12 L -79.5497,-4862.42
 L -79.9159,-4862.76 L -80.2361,-4863.15 L -80.5052,-4863.57 L -80.7191,-4864.03 L -80.8743,-4864.51 L -80.9685,-4865
 L -81,-4865.5 L -81,-5094.5 L -80.9685,-5095 L -80.8743,-5095.49 L -80.7191,-5095.97 L -80.5052,-5096.43
 L -80.2361,-5096.85 L -79.9159,-5097.24 L -79.5497,-5097.58 L -79.1433,-5097.88 L -78.7031,-5098.12 L -78.2361,-5098.3
 L -77.7495,-5098.43 L -77.2512,-5098.49 L 77.2512,-5098.49 L 77.7495,-5098.43 L 78.2361,-5098.3 L 78.7031,-5098.12
 L 79.1433,-5097.88 L 79.5497,-5097.58 L 79.9159,-5097.24 L 80.2361,-5096.85 L 80.5052,-5096.43 L 80.7191,-5095.97
 L 80.8743,-5095.49 L 80.9685,-5095 L 81,-5094.5 L 81,-4865.5 L 80.9685,-4865 L 80.8743,-4864.51
 L 80.7191,-4864.03 L 80.5052,-4863.57 L 80.2361,-4863.15 L 79.9159,-4862.76 L 79.5497,-4862.42 L 79.1433,-4862.12
 L 78.7031,-4861.88 L 78.2361,-4861.7 L 77.7495,-4861.57 L 77.2512,-4861.51 z
M 78.4369,-4611.09 L 79.0451,-4611.24 L 79.6289,-4611.48 L 80.1791,-4611.78 L 80.6871,-4612.15 L 81.1448,-4612.58
 L 81.5451,-4613.06 L 81.8815,-4613.59 L 82.1489,-4614.16 L 82.3429,-4614.76 L 82.4606,-4615.37 L 82.5,-4616
 L 82.5,-4846 L 82.4606,-4846.63 L 82.3429,-4847.24 L 82.1489,-4847.84 L 81.8815,-4848.41 L 81.5451,-4848.94
 L 81.1448,-4849.42 L 80.6871,-4849.85 L 80.1791,-4850.22 L 79.6289,-4850.52 L 79.0451,-4850.76 L 78.4369,-4850.91
 L 77.8139,-4850.99 L -77.8139,-4850.99 L -78.4369,-4850.91 L -79.0451,-4850.76 L -79.6289,-4850.52 L -80.1791,-4850.22
 L -80.6871,-4849.85 L -81.1448,-4849.42 L -81.5451,-4848.94 L -81.8815,-4848.41 L -82.1489,-4847.84 L -82.3429,-4847.24
 L -82.4606,-4846.63 L -82.5,-4846 L -82.5,-4616 L -82.4606,-4615.37 L -82.3429,-4614.76 L -82.1489,-4614.16
 L -81.8815,-4613.59 L -81.5451,-4613.06 L -81.1448,-4612.58 L -80.6871,-4612.15 L -80.1791,-4611.78 L -79.6289,-4611.48
 L -79.0451,-4611.24 L -78.4369,-4611.09 L -77.8139,-4611.01 L 77.8139,-4611.01 z
M -77.2512,-4612.51 L -77.7495,-4612.57 L -78.2361,-4612.7 L -78.7031,-4612.88 L -79.1433,-4613.12 L -79.5497,-4613.42
 L -79.9159,-4613.76 L -80.2361,-4614.15 L -80.5052,-4614.57 L -80.7191,-4615.03 L -80.8743,-4615.51 L -80.9685,-4616
 L -81,-4616.5 L -81,-4845.5 L -80.9685,-4846 L -80.8743,-4846.49 L -80.7191,-4846.97 L -80.5052,-4847.43
 L -80.2361,-4847.85 L -79.9159,-4848.24 L -79.5497,-4848.58 L -79.1433,-4848.88 L -78.7031,-4849.12 L -78.2361,-4849.3
 L -77.7495,-4849.43 L -77.2512,-4849.49 L 77.2512,-4849.49 L 77.7495,-4849.43 L 78.2361,-4849.3 L 78.7031,-4849.12
 L 79.1433,-4848.88 L 79.5497,-4848.58 L 79.9159,-4848.24 L 80.2361,-4847.85 L 80.5052,-4847.43 L 80.7191,-4846.97
 L 80.8743,-4846.49 L 80.9685,-4846 L 81,-4845.5 L 81,-4616.5 L 80.9685,-4616 L 80.8743,-4615.51
 L 80.7191,-4615.03 L 80.5052,-4614.57 L 80.2361,-4614.15 L 79.9159,-4613.76 L 79.5497,-4613.42 L 79.1433,-4613.12
 L 78.7031,-4612.88 L 78.2361,-4612.7 L 77.7495,-4612.57 L 77.2512,-4612.51 z
M 78.4369,-4362.09 L 79.0451,-4362.24 L 79.6289,-4362.48 L 80.1791,-4362.78 L 80.6871,-4363.15 L 81.1448,-4363.58
 L 81.5451,-4364.06 L 81.8815,-4364.59 L 82.1489,-4365.16 L 82.3429,-4365.76 L 82.4606,-4366.37 L 82.5,-4367
 L 82.5,-4597 L 82.4606,-4597.63 L 82.3429,-4598.24 L 82.1489,-4598.84 L 81.8815,-4599.41 L 81.5451,-4599.94
 L 81.1448,-4600.42 L 80.6871,-4600.85 L 80.1791,-4601.22 L 79.6289,-4601.52 L 79.0451,-4601.76 L 78.4369,-4601.91
 L 77.8139,-4601.99 L -77.8139,-4601.99 L -78.4369,-4601.91 L -79.0451,-4601.76 L -79.6289,-4601.52 L -80.1791,-4601.22
 L -80.6871,-4600.85 L -81.1448,-4600.42 L -81.5451,-4599.94 L -81.8815,-4599.41 L -82.1489,-4598.84 L -82.3429,-4598.24
 L -82.4606,-4597.63 L -82.5,-4597 L -82.5,-4367 L -82.4606,-4366.37 L -82.3429,-4365.76 L -82.1489,-4365.16
 L -81.8815,-4364.59 L -81.5451,-4364.06 L -81.1448,-4363.58 L -80.6871,-4363.15 L -80.1791,-4362.78 L -79.6289,-4362.48
 L -79.0451,-4362.24 L -78.4369,-4362.09 L -77.8139,-4362.01 L 77.8139,-4362.01 z
M -77.2512,-4363.51 L -77.7495,-4363.57 L -78.2361,-4363.7 L -78.7031,-4363.88 L -79.1433,-4364.12 L -79.5497,-4364.42
 L -79.9159,-4364.76 L -80.2361,-4365.15 L -80.5052,-4365.57 L -80.7191,-4366.03 L -80.8743,-4366.51 L -80.9685,-4367
 L -81,-4367.5 L -81,-4596.5 L -80.9685,-4597 L -80.8743,-4597.49 L -80.7191,-4597.97 L -80.5052,-4598.43
 L -80.2361,-4598.85 L -79.9159,-4599.24 L -79.5497,-4599.58 L -79.1433,-4599.88 L -78.7031,-4600.12 L -78.2361,-4600.3
 L -77.7495,-4600.43 L -77.2512,-4600.49 L 77.2512,-4600.49 L 77.7495,-4600.43 L 78.2361,-4600.3 L 78.7031,-4600.12
 L 79.1433,-4599.88 L 79.5497,-4599.58 L 79.9159,-4599.24 L 80.2361,-4598.85 L 80.5052,-4598.43 L 80.7191,-4597.97
 L 80.8743,-4597.49 L 80.9685,-4597 L 81,-4596.5 L 81,-4367.5 L 80.9685,-4367 L 80.8743,-4366.51
 L 80.7191,-4366.03 L 80.5052,-4365.57 L 80.2361,-4365.15 L 79.9159,-4364.76 L 79.5497,-4364.42 L 79.1433,-4364.12
 L 78.7031,-4363.88 L 78.2361,-4363.7 L 77.7495,-4363.57 L 77.2512,-4363.51 z
M 78.4369,-4113.09 L 79.0451,-4113.24 L 79.6289,-4113.48 L 80.1791,-4113.78 L 80.6871,-4114.15 L 81.1448,-4114.58
 L 81.5451,-4115.06 L 81.8815,-4115.59 L 82.1489,-4116.16 L 82.3429,-4116.76 L 82.4606,-4117.37 L 82.5,-4118
 L 82.5,-4348 L 82.4606,-4348.63 L 82.3429,-4349.24 L 82.1489,-4349.84 L 81.8815,-4350.41 L 81.5451,-4350.94
 L 81.1448,-4351.42 L 80.6871,-4351.85 L 80.1791,-4352.22 L 79.6289,-4352.52 L 79.0451,-4352.76 L 78.4369,-4352.91
 L 77.8139,-4352.99 L -77.8139,-4352.99 L -78.4369,-4352.91 L -79.0451,-4352.76 L -79.6289,-4352.52 L -80.1791,-4352.22
 L -80.6871,-4351.85 L -81.1448,-4351.42 L -81.5451,-4350.94 L -81.8815,-4350.41 L -82.1489,-4349.84 L -82.3429,-4349.24
 L -82.4606,-4348.63 L -82.5,-4348 L -82.5,-4118 L -82.4606,-4117.37 L -82.3429,-4116.76 L -82.1489,-4116.16
 L -81.8815,-4115.59 L -81.5451,-4115.06 L -81.1448,-4114.58 L -80.6871,-4114.15 L -80.1791,-4113.78 L -79.6289,-4113.48
 L -79.0451,-4113.24 L -78.4369,-4113.09 L -77.8139,-4113.01 L 77.8139,-4113.01 z
M -77.2512,-4114.51 L -77.7495,-4114.57 L -78.2361,-4114.7 L -78.7031,-4114.88 L -79.1433,-4115.12 L -79.5497,-4115.42
 L -79.9159,-4115.76 L -80.2361,-4116.15 L -80.5052,-4116.57 L -80.7191,-4117.03 L -80.8743,-4117.51 L -80.9685,-4118
 L -81,-4118.5 L -81,-4347.5 L -80.9685,-4348 L -80.8743,-4348.49 L -80.7191,-4348.97 L -80.5052,-4349.43
 L -80.2361,-4349.85 L -79.9159,-4350.24 L -79.5497,-4350.58 L -79.1433,-4350.88 L -78.7031,-4351.12 L -78.2361,-4351.3
 L -77.7495,-4351.43 L -77.2512,-4351.49 L 77.2512,-4351.49 L 77.7495,-4351.43 L 78.2361,-4351.3 L 78.7031,-4351.12
 L 79.1433,-4350.88 L 79.5497,-4350.58 L 79.9159,-4350.24 L 80.2361,-4349.85 L 80.5052,-4349.43 L 80.7191,-4348.97
 L 80.8743,-4348.49 L 80.9685,-4348 L 81,-4347.5 L 81,-4118.5 L 80.9685,-4118 L 80.8743,-4117.51
 L 80.7191,-4117.03 L 80.5052,-4116.57 L 80.2361,-4116.15 L 79.9159,-4115.76 L 79.5497,-4115.42 L 79.1433,-4115.12
 L 78.7031,-4114.88 L 78.2361,-4114.7 L 77.7495,-4114.57 L 77.2512,-4114.51 z
M 78.4369,-3864.09 L 79.0451,-3864.24 L 79.6289,-3864.48 L 80.1791,-3864.78 L 80.6871,-3865.15 L 81.1448,-3865.58
 L 81.5451,-3866.06 L 81.8815,-3866.59 L 82.1489,-3867.16 L 82.3429,-3867.76 L 82.4606,-3868.37 L 82.5,-3869
 L 82.5,-4099 L 82.4606,-4099.63 L 82.3429,-4100.24 L 82.1489,-4100.84 L 81.8815,-4101.41 L 81.5451,-4101.94
 L 81.1448,-4102.42 L 80.6871,-4102.85 L 80.1791,-4103.22 L 79.6289,-4103.52 L 79.0451,-4103.76 L 78.4369,-4103.91
 L 77.8139,-4103.99 L -77.8139,-4103.99 L -78.4369,-4103.91 L -79.0451,-4103.76 L -79.6289,-4103.52 L -80.1791,-4103.22
 L -80.6871,-4102.85 L -81.1448,-4102.42 L -81.5451,-4101.94 L -81.8815,-4101.41 L -82.1489,-4100.84 L -82.3429,-4100.24
 L -82.4606,-4099.63 L -82.5,-4099 L -82.5,-3869 L -82.4606,-3868.37 L -82.3429,-3867.76 L -82.1489,-3867.16
 L -81.8815,-3866.59 L -81.5451,-3866.06 L -81.1448,-3865.58 L -80.6871,-3865.15 L -80.1791,-3864.78 L -79.6289,-3864.48
 L -79.0451,-3864.24 L -78.4369,-3864.09 L -77.8139,-3864.01 L 77.8139,-3864.01 z
M -77.1955,-3866.39 L -77.5833,-3866.44 L -77.9619,-3866.54 L -78.3254,-3866.68 L -78.668,-3866.87 L -78.9843,-3867.1
 L -79.2692,-3867.37 L -79.5184,-3867.67 L -79.7279,-3868 L -79.8943,-3868.35 L -80.0151,-3868.73 L -80.0884,-3869.11
 L -80.1129,-3869.5 L -80.1129,-4098.5 L -80.0884,-4098.89 L -80.0151,-4099.27 L -79.8943,-4099.65 L -79.7279,-4100
 L -79.5184,-4100.33 L -79.2692,-4100.63 L -78.9843,-4100.9 L -78.668,-4101.13 L -78.3254,-4101.32 L -77.9619,-4101.46
 L -77.5833,-4101.56 L -77.1955,-4101.61 L 77.1955,-4101.61 L 77.5833,-4101.56 L 77.9619,-4101.46 L 78.3254,-4101.32
 L 78.668,-4101.13 L 78.9843,-4100.9 L 79.2692,-4100.63 L 79.5184,-4100.33 L 79.7279,-4100 L 79.8943,-4099.65
 L 80.0151,-4099.27 L 80.0884,-4098.89 L 80.1129,-4098.5 L 80.1129,-3869.5 L 80.0884,-3869.11 L 80.0151,-3868.73
 L 79.8943,-3868.35 L 79.7279,-3868 L 79.5184,-3867.67 L 79.2692,-3867.37 L 78.9843,-3867.1 L 78.668,-3866.87
 L 78.3254,-3866.68 L 77.9619,-3866.54 L 77.5833,-3866.44 L 77.1955,-3866.39 z
M 78.4369,-3615.09 L 79.0451,-3615.24 L 79.6289,-3615.48 L 80.1791,-3615.78 L 80.6871,-3616.15 L 81.1448,-3616.58
 L 81.5451,-3617.06 L 81.8815,-3617.59 L 82.1489,-3618.16 L 82.3429,-3618.76 L 82.4606,-3619.37 L 82.5,-3620
 L 82.5,-3850 L 82.4606,-3850.63 L 82.3429,-3851.24 L 82.1489,-3851.84 L 81.8815,-3852.41 L 81.5451,-3852.94
 L 81.1448,-3853.42 L 80.6871,-3853.85 L 80.1791,-3854.22 L 79.6289,-3854.52 L 79.0451,-3854.76 L 78.4369,-3854.91
 L 77.8139,-3854.99 L -77.8139,-3854.99 L -78.4369,-3854.91 L -79.0451,-3854.76 L -79.6289,-3854.52 L -80.1791,-3854.22
 L -80.6871,-3853.85 L -81.1448,-3853.42 L -81.5451,-3852.94 L -81.8815,-3852.41 L -82.1489,-3851.84 L -82.3429,-3851.24
 L -82.4606,-3850.63 L -82.5,-3850 L -82.5,-3620 L -82.4606,-3619.37 L -82.3429,-3618.76 L -82.1489,-3618.16
 L -81.8815,-3617.59 L -81.5451,-3617.06 L -81.1448,-3616.58 L -80.6871,-3616.15 L -80.1791,-3615.78 L -79.6289,-3615.48
 L -79.0451,-3615.24 L -78.4369,-3615.09 L -77.8139,-3615.01 L 77.8139,-3615.01 z
M -75.1341,-3845.37 L -75.4001,-3845.4 L -75.6598,-3845.47 L -75.9092,-3845.57 L -76.1441,-3845.7 L -76.3611,-3845.85
 L -76.5566,-3846.04 L -76.7275,-3846.24 L -76.8712,-3846.47 L -76.9853,-3846.71 L -77.0682,-3846.97 L -77.1185,-3847.23
 L -77.1353,-3847.5 L -77.1185,-3847.77 L -77.0682,-3848.03 L -76.9853,-3848.29 L -76.8712,-3848.53 L -76.7275,-3848.76
 L -76.5566,-3848.96 L -76.3611,-3849.15 L -76.1441,-3849.3 L -75.9092,-3849.43 L -75.6598,-3849.53 L -75.4001,-3849.6
 L -75.1341,-3849.63 L -74.8659,-3849.63 L -74.5999,-3849.6 L -74.3401,-3849.53 L -74.0908,-3849.43 L -73.8559,-3849.3
 L -73.6389,-3849.15 L -73.4434,-3848.96 L -73.2725,-3848.76 L -73.1288,-3848.53 L -73.0146,-3848.29 L -72.9318,-3848.03
 L -72.8815,-3847.77 L -72.8647,-3847.5 L -72.8815,-3847.23 L -72.9318,-3846.97 L -73.0146,-3846.71 L -73.1288,-3846.47
 L -73.2725,-3846.24 L -73.4434,-3846.04 L -73.6389,-3845.85 L -73.8559,-3845.7 L -74.0908,-3845.57 L -74.3401,-3845.47
 L -74.5999,-3845.4 L -74.8659,-3845.37 z
M 74.8659,-3845.37 L 74.5999,-3845.4 L 74.3401,-3845.47 L 74.0908,-3845.57 L 73.8559,-3845.7 L 73.6389,-3845.85
 L 73.4434,-3846.04 L 73.2725,-3846.24 L 73.1288,-3846.47 L 73.0146,-3846.71 L 72.9318,-3846.97 L 72.8815,-3847.23
 L 72.8647,-3847.5 L 72.8815,-3847.77 L 72.9318,-3848.03 L 73.0146,-3848.29 L 73.1288,-3848.53 L 73.2725,-3848.76
 L 73.4434,-3848.96 L 73.6389,-3849.15 L 73.8559,-3849.3 L 74.0908,-3849.43 L 74.3401,-3849.53 L 74.5999,-3849.6
 L 74.8659,-3849.63 L 75.1341,-3849.63 L 75.4001,-3849.6 L 75.6598,-3849.53 L 75.9092,-3849.43 L 76.1441,-3849.3
 L 76.3611,-3849.15 L 76.5566,-3848.96 L 76.7275,-3848.76 L 76.8712,-3848.53 L 76.9853,-3848.29 L 77.0682,-3848.03
 L 77.1185,-3847.77 L 77.1353,-3847.5 L 77.1185,-3847.23 L 77.0682,-3846.97 L 76.9853,-3846.71 L 76.8712,-3846.47
 L 76.7275,-3846.24 L 76.5566,-3846.04 L 76.3611,-3845.85 L 76.1441,-3845.7 L 75.9092,-3845.57 L 75.6598,-3845.47
 L 75.4001,-3845.4 L 75.1341,-3845.37 z
M -75.1341,-3620.37 L -75.4001,-3620.4 L -75.6598,-3620.47 L -75.9092,-3620.57 L -76.1441,-3620.7 L -76.3611,-3620.85
 L -76.5566,-3621.04 L -76.7275,-3621.24 L -76.8712,-3621.47 L -76.9853,-3621.71 L -77.0682,-3621.97 L -77.1185,-3622.23
 L -77.1353,-3622.5 L -77.1185,-3622.77 L -77.0682,-3623.03 L -76.9853,-3623.29 L -76.8712,-3623.53 L -76.7275,-3623.76
 L -76.5566,-3623.96 L -76.3611,-3624.15 L -76.1441,-3624.3 L -75.9092,-3624.43 L -75.6598,-3624.53 L -75.4001,-3624.6
 L -75.1341,-3624.63 L -74.8659,-3624.63 L -74.5999,-3624.6 L -74.3401,-3624.53 L -74.0908,-3624.43 L -73.8559,-3624.3
 L -73.6389,-3624.15 L -73.4434,-3623.96 L -73.2725,-3623.76 L -73.1288,-3623.53 L -73.0146,-3623.29 L -72.9318,-3623.03
 L -72.8815,-3622.77 L -72.8647,-3622.5 L -72.8815,-3622.23 L -72.9318,-3621.97 L -73.0146,-3621.71 L -73.1288,-3621.47
 L -73.2725,-3621.24 L -73.4434,-3621.04 L -73.6389,-3620.85 L -73.8559,-3620.7 L -74.0908,-3620.57 L -74.3401,-3620.47
 L -74.5999,-3620.4 L -74.8659,-3620.37 z
M 74.8659,-3620.37 L 74.5999,-3620.4 L 74.3401,-3620.47 L 74.0908,-3620.57 L 73.8559,-3620.7 L 73.6389,-3620.85
 L 73.4434,-3621.04 L 73.2725,-3621.24 L 73.1288,-3621.47 L 73.0146,-3621.71 L 72.9318,-3621.97 L 72.8815,-3622.23
 L 72.8647,-3622.5 L 72.8815,-3622.77 L 72.9318,-3623.03 L 73.0146,-3623.29 L 73.1288,-3623.53 L 73.2725,-3623.76
 L 73.4434,-3623.96 L 73.6389,-3624.15 L 73.8559,-3624.3 L 74.0908,-3624.43 L 74.3401,-3624.53 L 74.5999,-3624.6
 L 74.8659,-3624.63 L 75.1341,-3624.63 L 75.4001,-3624.6 L 75.6598,-3624.53 L 75.9092,-3624.43 L 76.1441,-3624.3
 L 76.3611,-3624.15 L 76.5566,-3623.96 L 76.7275,-3623.76 L 76.8712,-3623.53 L 76.9853,-3623.29 L 77.0682,-3623.03
 L 77.1185,-3622.77 L 77.1353,-3622.5 L 77.1185,-3622.23 L 77.0682,-3621.97 L 76.9853,-3621.71 L 76.8712,-3621.47
 L 76.7275,-3621.24 L 76.5566,-3621.04 L 76.3611,-3620.85 L 76.1441,-3620.7 L 75.9092,-3620.57 L 75.6598,-3620.47
 L 75.4001,-3620.4 L 75.1341,-3620.37 z
" stroke="black" fill="lightgray" stroke-width="0.5"/>
</svg>
