  0
SECTION
  2
BLOCKS
  0
ENDSEC
  0
SECTION
  2
ENTITIES
  0
LINE
  8
0
 10
23.1408
 20
-112.137
 11
25.3155
 21
-112.027
  0
LINE
  8
0
 10
25.3155
 20
-112.027
 11
27.5165
 21
-111.843
  0
LINE
  8
0
 10
27.5165
 20
-111.843
 11
29.7437
 21
-111.585
  0
LINE
  8
0
 10
29.7437
 20
-111.585
 11
31.9971
 21
-111.254
  0
LINE
  8
0
 10
31.9971
 20
-111.254
 11
34.2768
 21
-110.849
  0
LINE
  8
0
 10
34.2768
 20
-110.849
 11
36.5828
 21
-110.371
  0
LINE
  8
0
 10
36.5828
 20
-110.371
 11
36.5828
 21
-97.3579
  0
LINE
  8
0
 10
36.5828
 20
-97.3579
 11
35.1906
 21
-97.5799
  0
LINE
  8
0
 10
35.1906
 20
-97.5799
 11
33.8851
 21
-97.7678
  0
LINE
  8
0
 10
33.8851
 20
-97.7678
 11
32.6664
 21
-97.9216
  0
LINE
  8
0
 10
32.6664
 20
-97.9216
 11
31.5344
 21
-98.0411
  0
LINE
  8
0
 10
31.5344
 20
-98.0411
 11
30.4891
 21
-98.1265
  0
LINE
  8
0
 10
30.4891
 20
-98.1265
 11
29.5306
 21
-98.1778
  0
LINE
  8
0
 10
29.5306
 20
-98.1778
 11
28.6589
 21
-98.1948
  0
LINE
  8
0
 10
28.6589
 20
-98.1948
 11
26.7815
 21
-98.1363
  0
LINE
  8
0
 10
26.7815
 20
-98.1363
 11
25.0145
 21
-97.9608
  0
LINE
  8
0
 10
25.0145
 20
-97.9608
 11
23.3579
 21
-97.6682
  0
LINE
  8
0
 10
23.3579
 20
-97.6682
 11
21.8117
 21
-97.2587
  0
LINE
  8
0
 10
21.8117
 20
-97.2587
 11
20.3759
 21
-96.732
  0
LINE
  8
0
 10
20.3759
 20
-96.732
 11
19.0505
 21
-96.0884
  0
LINE
  8
0
 10
19.0505
 20
-96.0884
 11
17.8355
 21
-95.3277
  0
LINE
  8
0
 10
17.8355
 20
-95.3277
 11
16.7128
 21
-94.4398
  0
LINE
  8
0
 10
16.7128
 20
-94.4398
 11
15.6637
 21
-93.4138
  0
LINE
  8
0
 10
15.6637
 20
-93.4138
 11
14.6882
 21
-92.2497
  0
LINE
  8
0
 10
14.6882
 20
-92.2497
 11
13.7864
 21
-90.9475
  0
LINE
  8
0
 10
13.7864
 20
-90.9475
 11
12.9582
 21
-89.5072
  0
LINE
  8
0
 10
12.9582
 20
-89.5072
 11
12.2037
 21
-87.9289
  0
LINE
  8
0
 10
12.2037
 20
-87.9289
 11
11.5228
 21
-86.2125
  0
LINE
  8
0
 10
11.5228
 20
-86.2125
 11
14.8115
 21
-85.1174
  0
LINE
  8
0
 10
14.8115
 20
-85.1174
 11
17.8675
 21
-83.7095
  0
LINE
  8
0
 10
17.8675
 20
-83.7095
 11
20.6909
 21
-81.9886
  0
LINE
  8
0
 10
20.6909
 20
-81.9886
 11
23.2815
 21
-79.9547
  0
LINE
  8
0
 10
23.2815
 20
-79.9547
 11
25.6395
 21
-77.608
  0
LINE
  8
0
 10
25.6395
 20
-77.608
 11
27.7647
 21
-74.9484
  0
LINE
  8
0
 10
27.7647
 20
-74.9484
 11
29.6573
 21
-71.9758
  0
LINE
  8
0
 10
29.6573
 20
-71.9758
 11
31.3067
 21
-68.6914
  0
LINE
  8
0
 10
31.3067
 20
-68.6914
 11
32.7023
 21
-65.0967
  0
LINE
  8
0
 10
32.7023
 20
-65.0967
 11
33.8441
 21
-61.1918
  0
LINE
  8
0
 10
33.8441
 20
-61.1918
 11
34.7322
 21
-56.9767
  0
LINE
  8
0
 10
34.7322
 20
-56.9767
 11
35.3666
 21
-52.4513
  0
LINE
  8
0
 10
35.3666
 20
-52.4513
 11
35.7472
 21
-47.6156
  0
LINE
  8
0
 10
35.7472
 20
-47.6156
 11
35.8741
 21
-42.4697
  0
LINE
  8
0
 10
35.8741
 20
-42.4697
 11
35.69
 21
-36.3458
  0
LINE
  8
0
 10
35.69
 20
-36.3458
 11
35.1378
 21
-30.6741
  0
LINE
  8
0
 10
35.1378
 20
-30.6741
 11
34.2175
 21
-25.4548
  0
LINE
  8
0
 10
34.2175
 20
-25.4548
 11
32.929
 21
-20.6877
  0
LINE
  8
0
 10
32.929
 20
-20.6877
 11
31.2724
 21
-16.3728
  0
LINE
  8
0
 10
31.2724
 20
-16.3728
 11
29.2477
 21
-12.5103
  0
LINE
  8
0
 10
29.2477
 20
-12.5103
 11
26.8548
 21
-9.10004
  0
LINE
  8
0
 10
26.8548
 20
-9.10004
 11
24.9018
 21
-6.99013
  0
LINE
  8
0
 10
24.9018
 20
-6.99013
 11
47.3139
 21
-6.99013
  0
LINE
  8
0
 10
47.3139
 20
-6.99013
 11
47.9369
 21
-6.91142
  0
LINE
  8
0
 10
47.9369
 20
-6.91142
 11
48.5451
 21
-6.75528
  0
LINE
  8
0
 10
48.5451
 20
-6.75528
 11
49.1289
 21
-6.52412
  0
LINE
  8
0
 10
49.1289
 20
-6.52412
 11
49.6791
 21
-6.22163
  0
LINE
  8
0
 10
49.6791
 20
-6.22163
 11
50.1871
 21
-5.85255
  0
LINE
  8
0
 10
50.1871
 20
-5.85255
 11
50.6448
 21
-5.42273
  0
LINE
  8
0
 10
50.6448
 20
-5.42273
 11
51.0451
 21
-4.93892
  0
LINE
  8
0
 10
51.0451
 20
-4.93892
 11
51.3815
 21
-4.40877
  0
LINE
  8
0
 10
51.3815
 20
-4.40877
 11
51.6489
 21
-3.84062
  0
LINE
  8
0
 10
51.6489
 20
-3.84062
 11
51.8429
 21
-3.24344
  0
LINE
  8
0
 10
51.8429
 20
-3.24344
 11
51.9606
 21
-2.62666
  0
LINE
  8
0
 10
51.9606
 20
-2.62666
 11
52
 21
-2
  0
LINE
  8
0
 10
52
 20
-2
 11
52
 21
2
  0
LINE
  8
0
 10
52
 20
2
 11
51.9606
 21
2.62666
  0
LINE
  8
0
 10
51.9606
 20
2.62666
 11
51.8429
 21
3.24344
  0
LINE
  8
0
 10
51.8429
 20
3.24344
 11
51.6489
 21
3.84062
  0
LINE
  8
0
 10
51.6489
 20
3.84062
 11
51.3815
 21
4.40877
  0
LINE
  8
0
 10
51.3815
 20
4.40877
 11
51.0451
 21
4.93892
  0
LINE
  8
0
 10
51.0451
 20
4.93892
 11
50.6448
 21
5.42273
  0
LINE
  8
0
 10
50.6448
 20
5.42273
 11
50.1871
 21
5.85255
  0
LINE
  8
0
 10
50.1871
 20
5.85255
 11
49.6791
 21
6.22163
  0
LINE
  8
0
 10
49.6791
 20
6.22163
 11
49.1289
 21
6.52412
  0
LINE
  8
0
 10
49.1289
 20
6.52412
 11
48.5451
 21
6.75528
  0
LINE
  8
0
 10
48.5451
 20
6.75528
 11
47.9369
 21
6.91142
  0
LINE
  8
0
 10
47.9369
 20
6.91142
 11
47.3139
 21
6.99013
  0
LINE
  8
0
 10
47.3139
 20
6.99013
 11
-47.3139
 21
6.99013
  0
LINE
  8
0
 10
-47.3139
 20
6.99013
 11
-47.9369
 21
6.91142
  0
LINE
  8
0
 10
-47.9369
 20
6.91142
 11
-48.5451
 21
6.75528
  0
LINE
  8
0
 10
-48.5451
 20
6.75528
 11
-49.1289
 21
6.52412
  0
LINE
  8
0
 10
-49.1289
 20
6.52412
 11
-49.6791
 21
6.22163
  0
LINE
  8
0
 10
-49.6791
 20
6.22163
 11
-50.1871
 21
5.85255
  0
LINE
  8
0
 10
-50.1871
 20
5.85255
 11
-50.6448
 21
5.42273
  0
LINE
  8
0
 10
-50.6448
 20
5.42273
 11
-51.0451
 21
4.93892
  0
LINE
  8
0
 10
-51.0451
 20
4.93892
 11
-51.3815
 21
4.40877
  0
LINE
  8
0
 10
-51.3815
 20
4.40877
 11
-51.6489
 21
3.84062
  0
LINE
  8
0
 10
-51.6489
 20
3.84062
 11
-51.8429
 21
3.24344
  0
LINE
  8
0
 10
-51.8429
 20
3.24344
 11
-51.9606
 21
2.62666
  0
LINE
  8
0
 10
-51.9606
 20
2.62666
 11
-52
 21
2
  0
LINE
  8
0
 10
-52
 20
2
 11
-52
 21
-2
  0
LINE
  8
0
 10
-52
 20
-2
 11
-51.9606
 21
-2.62666
  0
LINE
  8
0
 10
-51.9606
 20
-2.62666
 11
-51.8429
 21
-3.24344
  0
LINE
  8
0
 10
-51.8429
 20
-3.24344
 11
-51.6489
 21
-3.84062
  0
LINE
  8
0
 10
-51.6489
 20
-3.84062
 11
-51.3815
 21
-4.40877
  0
LINE
  8
0
 10
-51.3815
 20
-4.40877
 11
-51.0451
 21
-4.93892
  0
LINE
  8
0
 10
-51.0451
 20
-4.93892
 11
-50.6448
 21
-5.42273
  0
LINE
  8
0
 10
-50.6448
 20
-5.42273
 11
-50.1871
 21
-5.85255
  0
LINE
  8
0
 10
-50.1871
 20
-5.85255
 11
-49.6791
 21
-6.22163
  0
LINE
  8
0
 10
-49.6791
 20
-6.22163
 11
-49.1289
 21
-6.52412
  0
LINE
  8
0
 10
-49.1289
 20
-6.52412
 11
-48.5451
 21
-6.75528
  0
LINE
  8
0
 10
-48.5451
 20
-6.75528
 11
-47.9369
 21
-6.91142
  0
LINE
  8
0
 10
-47.9369
 20
-6.91142
 11
-47.3139
 21
-6.99013
  0
LINE
  8
0
 10
-47.3139
 20
-6.99013
 11
-23.0131
 21
-6.99013
  0
LINE
  8
0
 10
-23.0131
 20
-6.99013
 11
-24.9724
 21
-9.10004
  0
LINE
  8
0
 10
-24.9724
 20
-9.10004
 11
-27.3736
 21
-12.5103
  0
LINE
  8
0
 10
-27.3736
 20
-12.5103
 11
-29.4054
 21
-16.3728
  0
LINE
  8
0
 10
-29.4054
 20
-16.3728
 11
-31.0678
 21
-20.6877
  0
LINE
  8
0
 10
-31.0678
 20
-20.6877
 11
-32.3607
 21
-25.4548
  0
LINE
  8
0
 10
-32.3607
 20
-25.4548
 11
-33.2843
 21
-30.6741
  0
LINE
  8
0
 10
-33.2843
 20
-30.6741
 11
-33.8384
 21
-36.3458
  0
LINE
  8
0
 10
-33.8384
 20
-36.3458
 11
-34.0231
 21
-42.4697
  0
LINE
  8
0
 10
-34.0231
 20
-42.4697
 11
-33.885
 21
-47.8234
  0
LINE
  8
0
 10
-33.885
 20
-47.8234
 11
-33.4709
 21
-52.8405
  0
LINE
  8
0
 10
-33.4709
 20
-52.8405
 11
-32.7807
 21
-57.521
  0
LINE
  8
0
 10
-32.7807
 20
-57.521
 11
-31.8144
 21
-61.8649
  0
LINE
  8
0
 10
-31.8144
 20
-61.8649
 11
-30.5721
 21
-65.8723
  0
LINE
  8
0
 10
-30.5721
 20
-65.8723
 11
-29.0536
 21
-69.5431
  0
LINE
  8
0
 10
-29.0536
 20
-69.5431
 11
-27.2591
 21
-72.8773
  0
LINE
  8
0
 10
-27.2591
 20
-72.8773
 11
-25.2016
 21
-75.8724
  0
LINE
  8
0
 10
-25.2016
 20
-75.8724
 11
-22.8943
 21
-78.5255
  0
LINE
  8
0
 10
-22.8943
 20
-78.5255
 11
-20.3371
 21
-80.8369
  0
LINE
  8
0
 10
-20.3371
 20
-80.8369
 11
-17.5302
 21
-82.8064
  0
LINE
  8
0
 10
-17.5302
 20
-82.8064
 11
-14.4733
 21
-84.434
  0
LINE
  8
0
 10
-14.4733
 20
-84.434
 11
-11.1667
 21
-85.7198
  0
LINE
  8
0
 10
-11.1667
 20
-85.7198
 11
-7.61023
 21
-86.6637
  0
LINE
  8
0
 10
-7.61023
 20
-86.6637
 11
-6.34167
 21
-90.3915
  0
LINE
  8
0
 10
-6.34167
 20
-90.3915
 11
-4.96527
 21
-93.8077
  0
LINE
  8
0
 10
-4.96527
 20
-93.8077
 11
-3.48105
 21
-96.9123
  0
LINE
  8
0
 10
-3.48105
 20
-96.9123
 11
-1.88898
 21
-99.7053
  0
LINE
  8
0
 10
-1.88898
 20
-99.7053
 11
-0.189087
 21
-102.187
  0
LINE
  8
0
 10
-0.189087
 20
-102.187
 11
1.61864
 21
-104.357
  0
LINE
  8
0
 10
1.61864
 20
-104.357
 11
3.53421
 21
-106.215
  0
LINE
  8
0
 10
3.53421
 20
-106.215
 11
5.57863
 21
-107.796
  0
LINE
  8
0
 10
5.57863
 20
-107.796
 11
7.7729
 21
-109.134
  0
LINE
  8
0
 10
7.7729
 20
-109.134
 11
10.1171
 21
-110.228
  0
LINE
  8
0
 10
10.1171
 20
-110.228
 11
12.6111
 21
-111.08
  0
LINE
  8
0
 10
12.6111
 20
-111.08
 11
15.255
 21
-111.688
  0
LINE
  8
0
 10
15.255
 20
-111.688
 11
18.0487
 21
-112.052
  0
LINE
  8
0
 10
18.0487
 20
-112.052
 11
20.9924
 21
-112.174
  0
LINE
  8
0
 10
20.9924
 20
-112.174
 11
23.1408
 21
-112.137
  0
LINE
  8
0
 10
-15.1884
 20
-2.99408
 11
-15.5621
 21
-2.94685
  0
LINE
  8
0
 10
-15.5621
 20
-2.94685
 11
-15.927
 21
-2.85316
  0
LINE
  8
0
 10
-15.927
 20
-2.85316
 11
-16.2773
 21
-2.71448
  0
LINE
  8
0
 10
-16.2773
 20
-2.71448
 11
-16.6075
 21
-2.53297
  0
LINE
  8
0
 10
-16.6075
 20
-2.53297
 11
-16.9123
 21
-2.31154
  0
LINE
  8
0
 10
-16.9123
 20
-2.31154
 11
-17.1869
 21
-2.05363
  0
LINE
  8
0
 10
-17.1869
 20
-2.05363
 11
-17.427
 21
-1.76335
  0
LINE
  8
0
 10
-17.427
 20
-1.76335
 11
-17.6289
 21
-1.44525
  0
LINE
  8
0
 10
-17.6289
 20
-1.44525
 11
-17.7893
 21
-1.10437
  0
LINE
  8
0
 10
-17.7893
 20
-1.10437
 11
-17.9057
 21
-0.746063
  0
LINE
  8
0
 10
-17.9057
 20
-0.746063
 11
-17.9763
 21
-0.375992
  0
LINE
  8
0
 10
-17.9763
 20
-0.375992
 11
-18
 21
0
  0
LINE
  8
0
 10
-18
 20
0
 11
-17.9763
 21
0.375992
  0
LINE
  8
0
 10
-17.9763
 20
0.375992
 11
-17.9057
 21
0.746063
  0
LINE
  8
0
 10
-17.9057
 20
0.746063
 11
-17.7893
 21
1.10437
  0
LINE
  8
0
 10
-17.7893
 20
1.10437
 11
-17.6289
 21
1.44525
  0
LINE
  8
0
 10
-17.6289
 20
1.44525
 11
-17.427
 21
1.76335
  0
LINE
  8
0
 10
-17.427
 20
1.76335
 11
-17.1869
 21
2.05363
  0
LINE
  8
0
 10
-17.1869
 20
2.05363
 11
-16.9123
 21
2.31154
  0
LINE
  8
0
 10
-16.9123
 20
2.31154
 11
-16.6075
 21
2.53297
  0
LINE
  8
0
 10
-16.6075
 20
2.53297
 11
-16.2773
 21
2.71448
  0
LINE
  8
0
 10
-16.2773
 20
2.71448
 11
-15.927
 21
2.85316
  0
LINE
  8
0
 10
-15.927
 20
2.85316
 11
-15.5621
 21
2.94685
  0
LINE
  8
0
 10
-15.5621
 20
2.94685
 11
-15.1884
 21
2.99408
  0
LINE
  8
0
 10
-15.1884
 20
2.99408
 11
-14.8116
 21
2.99408
  0
LINE
  8
0
 10
-14.8116
 20
2.99408
 11
-14.4379
 21
2.94685
  0
LINE
  8
0
 10
-14.4379
 20
2.94685
 11
-14.0729
 21
2.85316
  0
LINE
  8
0
 10
-14.0729
 20
2.85316
 11
-13.7227
 21
2.71448
  0
LINE
  8
0
 10
-13.7227
 20
2.71448
 11
-13.3925
 21
2.53297
  0
LINE
  8
0
 10
-13.3925
 20
2.53297
 11
-13.0877
 21
2.31154
  0
LINE
  8
0
 10
-13.0877
 20
2.31154
 11
-12.8131
 21
2.05363
  0
LINE
  8
0
 10
-12.8131
 20
2.05363
 11
-12.5729
 21
1.76335
  0
LINE
  8
0
 10
-12.5729
 20
1.76335
 11
-12.3711
 21
1.44525
  0
LINE
  8
0
 10
-12.3711
 20
1.44525
 11
-12.2107
 21
1.10437
  0
LINE
  8
0
 10
-12.2107
 20
1.10437
 11
-12.0942
 21
0.746063
  0
LINE
  8
0
 10
-12.0942
 20
0.746063
 11
-12.0237
 21
0.375992
  0
LINE
  8
0
 10
-12.0237
 20
0.375992
 11
-12
 21
0
  0
LINE
  8
0
 10
-12
 20
0
 11
-12.0237
 21
-0.375992
  0
LINE
  8
0
 10
-12.0237
 20
-0.375992
 11
-12.0942
 21
-0.746063
  0
LINE
  8
0
 10
-12.0942
 20
-0.746063
 11
-12.2107
 21
-1.10437
  0
LINE
  8
0
 10
-12.2107
 20
-1.10437
 11
-12.3711
 21
-1.44525
  0
LINE
  8
0
 10
-12.3711
 20
-1.44525
 11
-12.5729
 21
-1.76335
  0
LINE
  8
0
 10
-12.5729
 20
-1.76335
 11
-12.8131
 21
-2.05363
  0
LINE
  8
0
 10
-12.8131
 20
-2.05363
 11
-13.0877
 21
-2.31154
  0
LINE
  8
0
 10
-13.0877
 20
-2.31154
 11
-13.3925
 21
-2.53297
  0
LINE
  8
0
 10
-13.3925
 20
-2.53297
 11
-13.7227
 21
-2.71448
  0
LINE
  8
0
 10
-13.7227
 20
-2.71448
 11
-14.0729
 21
-2.85316
  0
LINE
  8
0
 10
-14.0729
 20
-2.85316
 11
-14.4379
 21
-2.94685
  0
LINE
  8
0
 10
-14.4379
 20
-2.94685
 11
-14.8116
 21
-2.99408
  0
LINE
  8
0
 10
-14.8116
 20
-2.99408
 11
-15.1884
 21
-2.99408
  0
LINE
  8
0
 10
-45.1884
 20
-2.99408
 11
-45.5621
 21
-2.94685
  0
LINE
  8
0
 10
-45.5621
 20
-2.94685
 11
-45.927
 21
-2.85316
  0
LINE
  8
0
 10
-45.927
 20
-2.85316
 11
-46.2773
 21
-2.71448
  0
LINE
  8
0
 10
-46.2773
 20
-2.71448
 11
-46.6075
 21
-2.53297
  0
LINE
  8
0
 10
-46.6075
 20
-2.53297
 11
-46.9123
 21
-2.31154
  0
LINE
  8
0
 10
-46.9123
 20
-2.31154
 11
-47.1869
 21
-2.05363
  0
LINE
  8
0
 10
-47.1869
 20
-2.05363
 11
-47.427
 21
-1.76335
  0
LINE
  8
0
 10
-47.427
 20
-1.76335
 11
-47.6289
 21
-1.44525
  0
LINE
  8
0
 10
-47.6289
 20
-1.44525
 11
-47.7893
 21
-1.10437
  0
LINE
  8
0
 10
-47.7893
 20
-1.10437
 11
-47.9057
 21
-0.746063
  0
LINE
  8
0
 10
-47.9057
 20
-0.746063
 11
-47.9763
 21
-0.375992
  0
LINE
  8
0
 10
-47.9763
 20
-0.375992
 11
-48
 21
0
  0
LINE
  8
0
 10
-48
 20
0
 11
-47.9763
 21
0.375992
  0
LINE
  8
0
 10
-47.9763
 20
0.375992
 11
-47.9057
 21
0.746063
  0
LINE
  8
0
 10
-47.9057
 20
0.746063
 11
-47.7893
 21
1.10437
  0
LINE
  8
0
 10
-47.7893
 20
1.10437
 11
-47.6289
 21
1.44525
  0
LINE
  8
0
 10
-47.6289
 20
1.44525
 11
-47.427
 21
1.76335
  0
LINE
  8
0
 10
-47.427
 20
1.76335
 11
-47.1869
 21
2.05363
  0
LINE
  8
0
 10
-47.1869
 20
2.05363
 11
-46.9123
 21
2.31154
  0
LINE
  8
0
 10
-46.9123
 20
2.31154
 11
-46.6075
 21
2.53297
  0
LINE
  8
0
 10
-46.6075
 20
2.53297
 11
-46.2773
 21
2.71448
  0
LINE
  8
0
 10
-46.2773
 20
2.71448
 11
-45.927
 21
2.85316
  0
LINE
  8
0
 10
-45.927
 20
2.85316
 11
-45.5621
 21
2.94685
  0
LINE
  8
0
 10
-45.5621
 20
2.94685
 11
-45.1884
 21
2.99408
  0
LINE
  8
0
 10
-45.1884
 20
2.99408
 11
-44.8116
 21
2.99408
  0
LINE
  8
0
 10
-44.8116
 20
2.99408
 11
-44.4379
 21
2.94685
  0
LINE
  8
0
 10
-44.4379
 20
2.94685
 11
-44.0729
 21
2.85316
  0
LINE
  8
0
 10
-44.0729
 20
2.85316
 11
-43.7227
 21
2.71448
  0
LINE
  8
0
 10
-43.7227
 20
2.71448
 11
-43.3925
 21
2.53297
  0
LINE
  8
0
 10
-43.3925
 20
2.53297
 11
-43.0877
 21
2.31154
  0
LINE
  8
0
 10
-43.0877
 20
2.31154
 11
-42.8131
 21
2.05363
  0
LINE
  8
0
 10
-42.8131
 20
2.05363
 11
-42.5729
 21
1.76335
  0
LINE
  8
0
 10
-42.5729
 20
1.76335
 11
-42.3711
 21
1.44525
  0
LINE
  8
0
 10
-42.3711
 20
1.44525
 11
-42.2107
 21
1.10437
  0
LINE
  8
0
 10
-42.2107
 20
1.10437
 11
-42.0942
 21
0.746063
  0
LINE
  8
0
 10
-42.0942
 20
0.746063
 11
-42.0237
 21
0.375992
  0
LINE
  8
0
 10
-42.0237
 20
0.375992
 11
-42
 21
0
  0
LINE
  8
0
 10
-42
 20
0
 11
-42.0237
 21
-0.375992
  0
LINE
  8
0
 10
-42.0237
 20
-0.375992
 11
-42.0942
 21
-0.746063
  0
LINE
  8
0
 10
-42.0942
 20
-0.746063
 11
-42.2107
 21
-1.10437
  0
LINE
  8
0
 10
-42.2107
 20
-1.10437
 11
-42.3711
 21
-1.44525
  0
LINE
  8
0
 10
-42.3711
 20
-1.44525
 11
-42.5729
 21
-1.76335
  0
LINE
  8
0
 10
-42.5729
 20
-1.76335
 11
-42.8131
 21
-2.05363
  0
LINE
  8
0
 10
-42.8131
 20
-2.05363
 11
-43.0877
 21
-2.31154
  0
LINE
  8
0
 10
-43.0877
 20
-2.31154
 11
-43.3925
 21
-2.53297
  0
LINE
  8
0
 10
-43.3925
 20
-2.53297
 11
-43.7227
 21
-2.71448
  0
LINE
  8
0
 10
-43.7227
 20
-2.71448
 11
-44.0729
 21
-2.85316
  0
LINE
  8
0
 10
-44.0729
 20
-2.85316
 11
-44.4379
 21
-2.94685
  0
LINE
  8
0
 10
-44.4379
 20
-2.94685
 11
-44.8116
 21
-2.99408
  0
LINE
  8
0
 10
-44.8116
 20
-2.99408
 11
-45.1884
 21
-2.99408
  0
LINE
  8
0
 10
29.8116
 20
-2.99408
 11
29.4379
 21
-2.94685
  0
LINE
  8
0
 10
29.4379
 20
-2.94685
 11
29.0729
 21
-2.85316
  0
LINE
  8
0
 10
29.0729
 20
-2.85316
 11
28.7227
 21
-2.71448
  0
LINE
  8
0
 10
28.7227
 20
-2.71448
 11
28.3925
 21
-2.53297
  0
LINE
  8
0
 10
28.3925
 20
-2.53297
 11
28.0877
 21
-2.31154
  0
LINE
  8
0
 10
28.0877
 20
-2.31154
 11
27.8131
 21
-2.05363
  0
LINE
  8
0
 10
27.8131
 20
-2.05363
 11
27.5729
 21
-1.76335
  0
LINE
  8
0
 10
27.5729
 20
-1.76335
 11
27.3711
 21
-1.44525
  0
LINE
  8
0
 10
27.3711
 20
-1.44525
 11
27.2107
 21
-1.10437
  0
LINE
  8
0
 10
27.2107
 20
-1.10437
 11
27.0942
 21
-0.746063
  0
LINE
  8
0
 10
27.0942
 20
-0.746063
 11
27.0237
 21
-0.375992
  0
LINE
  8
0
 10
27.0237
 20
-0.375992
 11
27
 21
0
  0
LINE
  8
0
 10
27
 20
0
 11
27.0237
 21
0.375992
  0
LINE
  8
0
 10
27.0237
 20
0.375992
 11
27.0942
 21
0.746063
  0
LINE
  8
0
 10
27.0942
 20
0.746063
 11
27.2107
 21
1.10437
  0
LINE
  8
0
 10
27.2107
 20
1.10437
 11
27.3711
 21
1.44525
  0
LINE
  8
0
 10
27.3711
 20
1.44525
 11
27.5729
 21
1.76335
  0
LINE
  8
0
 10
27.5729
 20
1.76335
 11
27.8131
 21
2.05363
  0
LINE
  8
0
 10
27.8131
 20
2.05363
 11
28.0877
 21
2.31154
  0
LINE
  8
0
 10
28.0877
 20
2.31154
 11
28.3925
 21
2.53297
  0
LINE
  8
0
 10
28.3925
 20
2.53297
 11
28.7227
 21
2.71448
  0
LINE
  8
0
 10
28.7227
 20
2.71448
 11
29.0729
 21
2.85316
  0
LINE
  8
0
 10
29.0729
 20
2.85316
 11
29.4379
 21
2.94685
  0
LINE
  8
0
 10
29.4379
 20
2.94685
 11
29.8116
 21
2.99408
  0
LINE
  8
0
 10
29.8116
 20
2.99408
 11
30.1884
 21
2.99408
  0
LINE
  8
0
 10
30.1884
 20
2.99408
 11
30.5621
 21
2.94685
  0
LINE
  8
0
 10
30.5621
 20
2.94685
 11
30.927
 21
2.85316
  0
LINE
  8
0
 10
30.927
 20
2.85316
 11
31.2773
 21
2.71448
  0
LINE
  8
0
 10
31.2773
 20
2.71448
 11
31.6075
 21
2.53297
  0
LINE
  8
0
 10
31.6075
 20
2.53297
 11
31.9123
 21
2.31154
  0
LINE
  8
0
 10
31.9123
 20
2.31154
 11
32.1869
 21
2.05363
  0
LINE
  8
0
 10
32.1869
 20
2.05363
 11
32.427
 21
1.76335
  0
LINE
  8
0
 10
32.427
 20
1.76335
 11
32.6289
 21
1.44525
  0
LINE
  8
0
 10
32.6289
 20
1.44525
 11
32.7893
 21
1.10437
  0
LINE
  8
0
 10
32.7893
 20
1.10437
 11
32.9057
 21
0.746063
  0
LINE
  8
0
 10
32.9057
 20
0.746063
 11
32.9763
 21
0.375992
  0
LINE
  8
0
 10
32.9763
 20
0.375992
 11
33
 21
0
  0
LINE
  8
0
 10
33
 20
0
 11
32.9763
 21
-0.375992
  0
LINE
  8
0
 10
32.9763
 20
-0.375992
 11
32.9057
 21
-0.746063
  0
LINE
  8
0
 10
32.9057
 20
-0.746063
 11
32.7893
 21
-1.10437
  0
LINE
  8
0
 10
32.7893
 20
-1.10437
 11
32.6289
 21
-1.44525
  0
LINE
  8
0
 10
32.6289
 20
-1.44525
 11
32.427
 21
-1.76335
  0
LINE
  8
0
 10
32.427
 20
-1.76335
 11
32.1869
 21
-2.05363
  0
LINE
  8
0
 10
32.1869
 20
-2.05363
 11
31.9123
 21
-2.31154
  0
LINE
  8
0
 10
31.9123
 20
-2.31154
 11
31.6075
 21
-2.53297
  0
LINE
  8
0
 10
31.6075
 20
-2.53297
 11
31.2773
 21
-2.71448
  0
LINE
  8
0
 10
31.2773
 20
-2.71448
 11
30.927
 21
-2.85316
  0
LINE
  8
0
 10
30.927
 20
-2.85316
 11
30.5621
 21
-2.94685
  0
LINE
  8
0
 10
30.5621
 20
-2.94685
 11
30.1884
 21
-2.99408
  0
LINE
  8
0
 10
30.1884
 20
-2.99408
 11
29.8116
 21
-2.99408
  0
LINE
  8
0
 10
44.8116
 20
-2.99408
 11
44.4379
 21
-2.94685
  0
LINE
  8
0
 10
44.4379
 20
-2.94685
 11
44.0729
 21
-2.85316
  0
LINE
  8
0
 10
44.0729
 20
-2.85316
 11
43.7227
 21
-2.71448
  0
LINE
  8
0
 10
43.7227
 20
-2.71448
 11
43.3925
 21
-2.53297
  0
LINE
  8
0
 10
43.3925
 20
-2.53297
 11
43.0877
 21
-2.31154
  0
LINE
  8
0
 10
43.0877
 20
-2.31154
 11
42.8131
 21
-2.05363
  0
LINE
  8
0
 10
42.8131
 20
-2.05363
 11
42.5729
 21
-1.76335
  0
LINE
  8
0
 10
42.5729
 20
-1.76335
 11
42.3711
 21
-1.44525
  0
LINE
  8
0
 10
42.3711
 20
-1.44525
 11
42.2107
 21
-1.10437
  0
LINE
  8
0
 10
42.2107
 20
-1.10437
 11
42.0942
 21
-0.746063
  0
LINE
  8
0
 10
42.0942
 20
-0.746063
 11
42.0237
 21
-0.375992
  0
LINE
  8
0
 10
42.0237
 20
-0.375992
 11
42
 21
0
  0
LINE
  8
0
 10
42
 20
0
 11
42.0237
 21
0.375992
  0
LINE
  8
0
 10
42.0237
 20
0.375992
 11
42.0942
 21
0.746063
  0
LINE
  8
0
 10
42.0942
 20
0.746063
 11
42.2107
 21
1.10437
  0
LINE
  8
0
 10
42.2107
 20
1.10437
 11
42.3711
 21
1.44525
  0
LINE
  8
0
 10
42.3711
 20
1.44525
 11
42.5729
 21
1.76335
  0
LINE
  8
0
 10
42.5729
 20
1.76335
 11
42.8131
 21
2.05363
  0
LINE
  8
0
 10
42.8131
 20
2.05363
 11
43.0877
 21
2.31154
  0
LINE
  8
0
 10
43.0877
 20
2.31154
 11
43.3925
 21
2.53297
  0
LINE
  8
0
 10
43.3925
 20
2.53297
 11
43.7227
 21
2.71448
  0
LINE
  8
0
 10
43.7227
 20
2.71448
 11
44.0729
 21
2.85316
  0
LINE
  8
0
 10
44.0729
 20
2.85316
 11
44.4379
 21
2.94685
  0
LINE
  8
0
 10
44.4379
 20
2.94685
 11
44.8116
 21
2.99408
  0
LINE
  8
0
 10
44.8116
 20
2.99408
 11
45.1884
 21
2.99408
  0
LINE
  8
0
 10
45.1884
 20
2.99408
 11
45.5621
 21
2.94685
  0
LINE
  8
0
 10
45.5621
 20
2.94685
 11
45.927
 21
2.85316
  0
LINE
  8
0
 10
45.927
 20
2.85316
 11
46.2773
 21
2.71448
  0
LINE
  8
0
 10
46.2773
 20
2.71448
 11
46.6075
 21
2.53297
  0
LINE
  8
0
 10
46.6075
 20
2.53297
 11
46.9123
 21
2.31154
  0
LINE
  8
0
 10
46.9123
 20
2.31154
 11
47.1869
 21
2.05363
  0
LINE
  8
0
 10
47.1869
 20
2.05363
 11
47.427
 21
1.76335
  0
LINE
  8
0
 10
47.427
 20
1.76335
 11
47.6289
 21
1.44525
  0
LINE
  8
0
 10
47.6289
 20
1.44525
 11
47.7893
 21
1.10437
  0
LINE
  8
0
 10
47.7893
 20
1.10437
 11
47.9057
 21
0.746063
  0
LINE
  8
0
 10
47.9057
 20
0.746063
 11
47.9763
 21
0.375992
  0
LINE
  8
0
 10
47.9763
 20
0.375992
 11
48
 21
0
  0
LINE
  8
0
 10
48
 20
0
 11
47.9763
 21
-0.375992
  0
LINE
  8
0
 10
47.9763
 20
-0.375992
 11
47.9057
 21
-0.746063
  0
LINE
  8
0
 10
47.9057
 20
-0.746063
 11
47.7893
 21
-1.10437
  0
LINE
  8
0
 10
47.7893
 20
-1.10437
 11
47.6289
 21
-1.44525
  0
LINE
  8
0
 10
47.6289
 20
-1.44525
 11
47.427
 21
-1.76335
  0
LINE
  8
0
 10
47.427
 20
-1.76335
 11
47.1869
 21
-2.05363
  0
LINE
  8
0
 10
47.1869
 20
-2.05363
 11
46.9123
 21
-2.31154
  0
LINE
  8
0
 10
46.9123
 20
-2.31154
 11
46.6075
 21
-2.53297
  0
LINE
  8
0
 10
46.6075
 20
-2.53297
 11
46.2773
 21
-2.71448
  0
LINE
  8
0
 10
46.2773
 20
-2.71448
 11
45.927
 21
-2.85316
  0
LINE
  8
0
 10
45.927
 20
-2.85316
 11
45.5621
 21
-2.94685
  0
LINE
  8
0
 10
45.5621
 20
-2.94685
 11
45.1884
 21
-2.99408
  0
LINE
  8
0
 10
45.1884
 20
-2.99408
 11
44.8116
 21
-2.99408
  0
LINE
  8
0
 10
-0.18837
 20
-2.99408
 11
-0.562134
 21
-2.94685
  0
LINE
  8
0
 10
-0.562134
 20
-2.94685
 11
-0.927048
 21
-2.85316
  0
LINE
  8
0
 10
-0.927048
 20
-2.85316
 11
-1.27733
 21
-2.71448
  0
LINE
  8
0
 10
-1.27733
 20
-2.71448
 11
-1.60747
 21
-2.53297
  0
LINE
  8
0
 10
-1.60747
 20
-2.53297
 11
-1.91226
 21
-2.31154
  0
LINE
  8
0
 10
-1.91226
 20
-2.31154
 11
-2.1869
 21
-2.05363
  0
LINE
  8
0
 10
-2.1869
 20
-2.05363
 11
-2.42705
 21
-1.76335
  0
LINE
  8
0
 10
-2.42705
 20
-1.76335
 11
-2.62891
 21
-1.44525
  0
LINE
  8
0
 10
-2.62891
 20
-1.44525
 11
-2.78932
 21
-1.10437
  0
LINE
  8
0
 10
-2.78932
 20
-1.10437
 11
-2.90575
 21
-0.746063
  0
LINE
  8
0
 10
-2.90575
 20
-0.746063
 11
-2.97633
 21
-0.375992
  0
LINE
  8
0
 10
-2.97633
 20
-0.375992
 11
-3
 21
0
  0
LINE
  8
0
 10
-3
 20
0
 11
-2.97633
 21
0.375992
  0
LINE
  8
0
 10
-2.97633
 20
0.375992
 11
-2.90575
 21
0.746063
  0
LINE
  8
0
 10
-2.90575
 20
0.746063
 11
-2.78932
 21
1.10437
  0
LINE
  8
0
 10
-2.78932
 20
1.10437
 11
-2.62891
 21
1.44525
  0
LINE
  8
0
 10
-2.62891
 20
1.44525
 11
-2.42705
 21
1.76335
  0
LINE
  8
0
 10
-2.42705
 20
1.76335
 11
-2.1869
 21
2.05363
  0
LINE
  8
0
 10
-2.1869
 20
2.05363
 11
-1.91226
 21
2.31154
  0
LINE
  8
0
 10
-1.91226
 20
2.31154
 11
-1.60747
 21
2.53297
  0
LINE
  8
0
 10
-1.60747
 20
2.53297
 11
-1.27733
 21
2.71448
  0
LINE
  8
0
 10
-1.27733
 20
2.71448
 11
-0.927048
 21
2.85316
  0
LINE
  8
0
 10
-0.927048
 20
2.85316
 11
-0.562134
 21
2.94685
  0
LINE
  8
0
 10
-0.562134
 20
2.94685
 11
-0.18837
 21
2.99408
  0
LINE
  8
0
 10
-0.18837
 20
2.99408
 11
0.18837
 21
2.99408
  0
LINE
  8
0
 10
0.18837
 20
2.99408
 11
0.562134
 21
2.94685
  0
LINE
  8
0
 10
0.562134
 20
2.94685
 11
0.927048
 21
2.85316
  0
LINE
  8
0
 10
0.927048
 20
2.85316
 11
1.27733
 21
2.71448
  0
LINE
  8
0
 10
1.27733
 20
2.71448
 11
1.60747
 21
2.53297
  0
LINE
  8
0
 10
1.60747
 20
2.53297
 11
1.91226
 21
2.31154
  0
LINE
  8
0
 10
1.91226
 20
2.31154
 11
2.1869
 21
2.05363
  0
LINE
  8
0
 10
2.1869
 20
2.05363
 11
2.42705
 21
1.76335
  0
LINE
  8
0
 10
2.42705
 20
1.76335
 11
2.62891
 21
1.44525
  0
LINE
  8
0
 10
2.62891
 20
1.44525
 11
2.78932
 21
1.10437
  0
LINE
  8
0
 10
2.78932
 20
1.10437
 11
2.90575
 21
0.746063
  0
LINE
  8
0
 10
2.90575
 20
0.746063
 11
2.97633
 21
0.375992
  0
LINE
  8
0
 10
2.97633
 20
0.375992
 11
3
 21
0
  0
LINE
  8
0
 10
3
 20
0
 11
2.97633
 21
-0.375992
  0
LINE
  8
0
 10
2.97633
 20
-0.375992
 11
2.90575
 21
-0.746063
  0
LINE
  8
0
 10
2.90575
 20
-0.746063
 11
2.78932
 21
-1.10437
  0
LINE
  8
0
 10
2.78932
 20
-1.10437
 11
2.62891
 21
-1.44525
  0
LINE
  8
0
 10
2.62891
 20
-1.44525
 11
2.42705
 21
-1.76335
  0
LINE
  8
0
 10
2.42705
 20
-1.76335
 11
2.1869
 21
-2.05363
  0
LINE
  8
0
 10
2.1869
 20
-2.05363
 11
1.91226
 21
-2.31154
  0
LINE
  8
0
 10
1.91226
 20
-2.31154
 11
1.60747
 21
-2.53297
  0
LINE
  8
0
 10
1.60747
 20
-2.53297
 11
1.27733
 21
-2.71448
  0
LINE
  8
0
 10
1.27733
 20
-2.71448
 11
0.927048
 21
-2.85316
  0
LINE
  8
0
 10
0.927048
 20
-2.85316
 11
0.562134
 21
-2.94685
  0
LINE
  8
0
 10
0.562134
 20
-2.94685
 11
0.18837
 21
-2.99408
  0
LINE
  8
0
 10
0.18837
 20
-2.99408
 11
-0.18837
 21
-2.99408
  0
LINE
  8
0
 10
-30.1884
 20
-2.99408
 11
-30.5621
 21
-2.94685
  0
LINE
  8
0
 10
-30.5621
 20
-2.94685
 11
-30.927
 21
-2.85316
  0
LINE
  8
0
 10
-30.927
 20
-2.85316
 11
-31.2773
 21
-2.71448
  0
LINE
  8
0
 10
-31.2773
 20
-2.71448
 11
-31.6075
 21
-2.53297
  0
LINE
  8
0
 10
-31.6075
 20
-2.53297
 11
-31.9123
 21
-2.31154
  0
LINE
  8
0
 10
-31.9123
 20
-2.31154
 11
-32.1869
 21
-2.05363
  0
LINE
  8
0
 10
-32.1869
 20
-2.05363
 11
-32.427
 21
-1.76335
  0
LINE
  8
0
 10
-32.427
 20
-1.76335
 11
-32.6289
 21
-1.44525
  0
LINE
  8
0
 10
-32.6289
 20
-1.44525
 11
-32.7893
 21
-1.10437
  0
LINE
  8
0
 10
-32.7893
 20
-1.10437
 11
-32.9057
 21
-0.746063
  0
LINE
  8
0
 10
-32.9057
 20
-0.746063
 11
-32.9763
 21
-0.375992
  0
LINE
  8
0
 10
-32.9763
 20
-0.375992
 11
-33
 21
0
  0
LINE
  8
0
 10
-33
 20
0
 11
-32.9763
 21
0.375992
  0
LINE
  8
0
 10
-32.9763
 20
0.375992
 11
-32.9057
 21
0.746063
  0
LINE
  8
0
 10
-32.9057
 20
0.746063
 11
-32.7893
 21
1.10437
  0
LINE
  8
0
 10
-32.7893
 20
1.10437
 11
-32.6289
 21
1.44525
  0
LINE
  8
0
 10
-32.6289
 20
1.44525
 11
-32.427
 21
1.76335
  0
LINE
  8
0
 10
-32.427
 20
1.76335
 11
-32.1869
 21
2.05363
  0
LINE
  8
0
 10
-32.1869
 20
2.05363
 11
-31.9123
 21
2.31154
  0
LINE
  8
0
 10
-31.9123
 20
2.31154
 11
-31.6075
 21
2.53297
  0
LINE
  8
0
 10
-31.6075
 20
2.53297
 11
-31.2773
 21
2.71448
  0
LINE
  8
0
 10
-31.2773
 20
2.71448
 11
-30.927
 21
2.85316
  0
LINE
  8
0
 10
-30.927
 20
2.85316
 11
-30.5621
 21
2.94685
  0
LINE
  8
0
 10
-30.5621
 20
2.94685
 11
-30.1884
 21
2.99408
  0
LINE
  8
0
 10
-30.1884
 20
2.99408
 11
-29.8116
 21
2.99408
  0
LINE
  8
0
 10
-29.8116
 20
2.99408
 11
-29.4379
 21
2.94685
  0
LINE
  8
0
 10
-29.4379
 20
2.94685
 11
-29.0729
 21
2.85316
  0
LINE
  8
0
 10
-29.0729
 20
2.85316
 11
-28.7227
 21
2.71448
  0
LINE
  8
0
 10
-28.7227
 20
2.71448
 11
-28.3925
 21
2.53297
  0
LINE
  8
0
 10
-28.3925
 20
2.53297
 11
-28.0877
 21
2.31154
  0
LINE
  8
0
 10
-28.0877
 20
2.31154
 11
-27.8131
 21
2.05363
  0
LINE
  8
0
 10
-27.8131
 20
2.05363
 11
-27.5729
 21
1.76335
  0
LINE
  8
0
 10
-27.5729
 20
1.76335
 11
-27.3711
 21
1.44525
  0
LINE
  8
0
 10
-27.3711
 20
1.44525
 11
-27.2107
 21
1.10437
  0
LINE
  8
0
 10
-27.2107
 20
1.10437
 11
-27.0942
 21
0.746063
  0
LINE
  8
0
 10
-27.0942
 20
0.746063
 11
-27.0237
 21
0.375992
  0
LINE
  8
0
 10
-27.0237
 20
0.375992
 11
-27
 21
0
  0
LINE
  8
0
 10
-27
 20
0
 11
-27.0237
 21
-0.375992
  0
LINE
  8
0
 10
-27.0237
 20
-0.375992
 11
-27.0942
 21
-0.746063
  0
LINE
  8
0
 10
-27.0942
 20
-0.746063
 11
-27.2107
 21
-1.10437
  0
LINE
  8
0
 10
-27.2107
 20
-1.10437
 11
-27.3711
 21
-1.44525
  0
LINE
  8
0
 10
-27.3711
 20
-1.44525
 11
-27.5729
 21
-1.76335
  0
LINE
  8
0
 10
-27.5729
 20
-1.76335
 11
-27.8131
 21
-2.05363
  0
LINE
  8
0
 10
-27.8131
 20
-2.05363
 11
-28.0877
 21
-2.31154
  0
LINE
  8
0
 10
-28.0877
 20
-2.31154
 11
-28.3925
 21
-2.53297
  0
LINE
  8
0
 10
-28.3925
 20
-2.53297
 11
-28.7227
 21
-2.71448
  0
LINE
  8
0
 10
-28.7227
 20
-2.71448
 11
-29.0729
 21
-2.85316
  0
LINE
  8
0
 10
-29.0729
 20
-2.85316
 11
-29.4379
 21
-2.94685
  0
LINE
  8
0
 10
-29.4379
 20
-2.94685
 11
-29.8116
 21
-2.99408
  0
LINE
  8
0
 10
-29.8116
 20
-2.99408
 11
-30.1884
 21
-2.99408
  0
LINE
  8
0
 10
14.8116
 20
-2.99408
 11
14.4379
 21
-2.94685
  0
LINE
  8
0
 10
14.4379
 20
-2.94685
 11
14.0729
 21
-2.85316
  0
LINE
  8
0
 10
14.0729
 20
-2.85316
 11
13.7227
 21
-2.71448
  0
LINE
  8
0
 10
13.7227
 20
-2.71448
 11
13.3925
 21
-2.53297
  0
LINE
  8
0
 10
13.3925
 20
-2.53297
 11
13.0877
 21
-2.31154
  0
LINE
  8
0
 10
13.0877
 20
-2.31154
 11
12.8131
 21
-2.05363
  0
LINE
  8
0
 10
12.8131
 20
-2.05363
 11
12.5729
 21
-1.76335
  0
LINE
  8
0
 10
12.5729
 20
-1.76335
 11
12.3711
 21
-1.44525
  0
LINE
  8
0
 10
12.3711
 20
-1.44525
 11
12.2107
 21
-1.10437
  0
LINE
  8
0
 10
12.2107
 20
-1.10437
 11
12.0942
 21
-0.746063
  0
LINE
  8
0
 10
12.0942
 20
-0.746063
 11
12.0237
 21
-0.375992
  0
LINE
  8
0
 10
12.0237
 20
-0.375992
 11
12
 21
0
  0
LINE
  8
0
 10
12
 20
0
 11
12.0237
 21
0.375992
  0
LINE
  8
0
 10
12.0237
 20
0.375992
 11
12.0942
 21
0.746063
  0
LINE
  8
0
 10
12.0942
 20
0.746063
 11
12.2107
 21
1.10437
  0
LINE
  8
0
 10
12.2107
 20
1.10437
 11
12.3711
 21
1.44525
  0
LINE
  8
0
 10
12.3711
 20
1.44525
 11
12.5729
 21
1.76335
  0
LINE
  8
0
 10
12.5729
 20
1.76335
 11
12.8131
 21
2.05363
  0
LINE
  8
0
 10
12.8131
 20
2.05363
 11
13.0877
 21
2.31154
  0
LINE
  8
0
 10
13.0877
 20
2.31154
 11
13.3925
 21
2.53297
  0
LINE
  8
0
 10
13.3925
 20
2.53297
 11
13.7227
 21
2.71448
  0
LINE
  8
0
 10
13.7227
 20
2.71448
 11
14.0729
 21
2.85316
  0
LINE
  8
0
 10
14.0729
 20
2.85316
 11
14.4379
 21
2.94685
  0
LINE
  8
0
 10
14.4379
 20
2.94685
 11
14.8116
 21
2.99408
  0
LINE
  8
0
 10
14.8116
 20
2.99408
 11
15.1884
 21
2.99408
  0
LINE
  8
0
 10
15.1884
 20
2.99408
 11
15.5621
 21
2.94685
  0
LINE
  8
0
 10
15.5621
 20
2.94685
 11
15.927
 21
2.85316
  0
LINE
  8
0
 10
15.927
 20
2.85316
 11
16.2773
 21
2.71448
  0
LINE
  8
0
 10
16.2773
 20
2.71448
 11
16.6075
 21
2.53297
  0
LINE
  8
0
 10
16.6075
 20
2.53297
 11
16.9123
 21
2.31154
  0
LINE
  8
0
 10
16.9123
 20
2.31154
 11
17.1869
 21
2.05363
  0
LINE
  8
0
 10
17.1869
 20
2.05363
 11
17.427
 21
1.76335
  0
LINE
  8
0
 10
17.427
 20
1.76335
 11
17.6289
 21
1.44525
  0
LINE
  8
0
 10
17.6289
 20
1.44525
 11
17.7893
 21
1.10437
  0
LINE
  8
0
 10
17.7893
 20
1.10437
 11
17.9057
 21
0.746063
  0
LINE
  8
0
 10
17.9057
 20
0.746063
 11
17.9763
 21
0.375992
  0
LINE
  8
0
 10
17.9763
 20
0.375992
 11
18
 21
0
  0
LINE
  8
0
 10
18
 20
0
 11
17.9763
 21
-0.375992
  0
LINE
  8
0
 10
17.9763
 20
-0.375992
 11
17.9057
 21
-0.746063
  0
LINE
  8
0
 10
17.9057
 20
-0.746063
 11
17.7893
 21
-1.10437
  0
LINE
  8
0
 10
17.7893
 20
-1.10437
 11
17.6289
 21
-1.44525
  0
LINE
  8
0
 10
17.6289
 20
-1.44525
 11
17.427
 21
-1.76335
  0
LINE
  8
0
 10
17.427
 20
-1.76335
 11
17.1869
 21
-2.05363
  0
LINE
  8
0
 10
17.1869
 20
-2.05363
 11
16.9123
 21
-2.31154
  0
LINE
  8
0
 10
16.9123
 20
-2.31154
 11
16.6075
 21
-2.53297
  0
LINE
  8
0
 10
16.6075
 20
-2.53297
 11
16.2773
 21
-2.71448
  0
LINE
  8
0
 10
16.2773
 20
-2.71448
 11
15.927
 21
-2.85316
  0
LINE
  8
0
 10
15.927
 20
-2.85316
 11
15.5621
 21
-2.94685
  0
LINE
  8
0
 10
15.5621
 20
-2.94685
 11
15.1884
 21
-2.99408
  0
LINE
  8
0
 10
15.1884
 20
-2.99408
 11
14.8116
 21
-2.99408
  0
LINE
  8
0
 10
-37.5942
 20
-1.49704
 11
-37.7811
 21
-1.47342
  0
LINE
  8
0
 10
-37.7811
 20
-1.47342
 11
-37.9635
 21
-1.42657
  0
LINE
  8
0
 10
-37.9635
 20
-1.42657
 11
-38.1387
 21
-1.35724
  0
LINE
  8
0
 10
-38.1387
 20
-1.35724
 11
-38.3037
 21
-1.26648
  0
LINE
  8
0
 10
-38.3037
 20
-1.26648
 11
-38.4561
 21
-1.15576
  0
LINE
  8
0
 10
-38.4561
 20
-1.15576
 11
-38.5934
 21
-1.02681
  0
LINE
  8
0
 10
-38.5934
 20
-1.02681
 11
-38.7135
 21
-0.881668
  0
LINE
  8
0
 10
-38.7135
 20
-0.881668
 11
-38.8145
 21
-0.722626
  0
LINE
  8
0
 10
-38.8145
 20
-0.722626
 11
-38.8947
 21
-0.552185
  0
LINE
  8
0
 10
-38.8947
 20
-0.552185
 11
-38.9529
 21
-0.373032
  0
LINE
  8
0
 10
-38.9529
 20
-0.373032
 11
-38.9882
 21
-0.187988
  0
LINE
  8
0
 10
-38.9882
 20
-0.187988
 11
-39
 21
0
  0
LINE
  8
0
 10
-39
 20
0
 11
-38.9882
 21
0.187988
  0
LINE
  8
0
 10
-38.9882
 20
0.187988
 11
-38.9529
 21
0.373032
  0
LINE
  8
0
 10
-38.9529
 20
0.373032
 11
-38.8947
 21
0.552185
  0
LINE
  8
0
 10
-38.8947
 20
0.552185
 11
-38.8145
 21
0.722626
  0
LINE
  8
0
 10
-38.8145
 20
0.722626
 11
-38.7135
 21
0.881668
  0
LINE
  8
0
 10
-38.7135
 20
0.881668
 11
-38.5934
 21
1.02681
  0
LINE
  8
0
 10
-38.5934
 20
1.02681
 11
-38.4561
 21
1.15576
  0
LINE
  8
0
 10
-38.4561
 20
1.15576
 11
-38.3037
 21
1.26648
  0
LINE
  8
0
 10
-38.3037
 20
1.26648
 11
-38.1387
 21
1.35724
  0
LINE
  8
0
 10
-38.1387
 20
1.35724
 11
-37.9635
 21
1.42657
  0
LINE
  8
0
 10
-37.9635
 20
1.42657
 11
-37.7811
 21
1.47342
  0
LINE
  8
0
 10
-37.7811
 20
1.47342
 11
-37.5942
 21
1.49704
  0
LINE
  8
0
 10
-37.5942
 20
1.49704
 11
-37.4058
 21
1.49704
  0
LINE
  8
0
 10
-37.4058
 20
1.49704
 11
-37.2189
 21
1.47342
  0
LINE
  8
0
 10
-37.2189
 20
1.47342
 11
-37.0365
 21
1.42657
  0
LINE
  8
0
 10
-37.0365
 20
1.42657
 11
-36.8613
 21
1.35724
  0
LINE
  8
0
 10
-36.8613
 20
1.35724
 11
-36.6963
 21
1.26648
  0
LINE
  8
0
 10
-36.6963
 20
1.26648
 11
-36.5439
 21
1.15576
  0
LINE
  8
0
 10
-36.5439
 20
1.15576
 11
-36.4065
 21
1.02681
  0
LINE
  8
0
 10
-36.4065
 20
1.02681
 11
-36.2865
 21
0.881668
  0
LINE
  8
0
 10
-36.2865
 20
0.881668
 11
-36.1855
 21
0.722626
  0
LINE
  8
0
 10
-36.1855
 20
0.722626
 11
-36.1053
 21
0.552185
  0
LINE
  8
0
 10
-36.1053
 20
0.552185
 11
-36.0471
 21
0.373032
  0
LINE
  8
0
 10
-36.0471
 20
0.373032
 11
-36.0118
 21
0.187988
  0
LINE
  8
0
 10
-36.0118
 20
0.187988
 11
-36
 21
0
  0
LINE
  8
0
 10
-36
 20
0
 11
-36.0118
 21
-0.187988
  0
LINE
  8
0
 10
-36.0118
 20
-0.187988
 11
-36.0471
 21
-0.373032
  0
LINE
  8
0
 10
-36.0471
 20
-0.373032
 11
-36.1053
 21
-0.552185
  0
LINE
  8
0
 10
-36.1053
 20
-0.552185
 11
-36.1855
 21
-0.722626
  0
LINE
  8
0
 10
-36.1855
 20
-0.722626
 11
-36.2865
 21
-0.881668
  0
LINE
  8
0
 10
-36.2865
 20
-0.881668
 11
-36.4065
 21
-1.02681
  0
LINE
  8
0
 10
-36.4065
 20
-1.02681
 11
-36.5439
 21
-1.15576
  0
LINE
  8
0
 10
-36.5439
 20
-1.15576
 11
-36.6963
 21
-1.26648
  0
LINE
  8
0
 10
-36.6963
 20
-1.26648
 11
-36.8613
 21
-1.35724
  0
LINE
  8
0
 10
-36.8613
 20
-1.35724
 11
-37.0365
 21
-1.42657
  0
LINE
  8
0
 10
-37.0365
 20
-1.42657
 11
-37.2189
 21
-1.47342
  0
LINE
  8
0
 10
-37.2189
 20
-1.47342
 11
-37.4058
 21
-1.49704
  0
LINE
  8
0
 10
-37.4058
 20
-1.49704
 11
-37.5942
 21
-1.49704
  0
LINE
  8
0
 10
-22.5942
 20
-1.49704
 11
-22.7811
 21
-1.47342
  0
LINE
  8
0
 10
-22.7811
 20
-1.47342
 11
-22.9635
 21
-1.42657
  0
LINE
  8
0
 10
-22.9635
 20
-1.42657
 11
-23.1387
 21
-1.35724
  0
LINE
  8
0
 10
-23.1387
 20
-1.35724
 11
-23.3037
 21
-1.26648
  0
LINE
  8
0
 10
-23.3037
 20
-1.26648
 11
-23.4561
 21
-1.15576
  0
LINE
  8
0
 10
-23.4561
 20
-1.15576
 11
-23.5934
 21
-1.02681
  0
LINE
  8
0
 10
-23.5934
 20
-1.02681
 11
-23.7135
 21
-0.881668
  0
LINE
  8
0
 10
-23.7135
 20
-0.881668
 11
-23.8145
 21
-0.722626
  0
LINE
  8
0
 10
-23.8145
 20
-0.722626
 11
-23.8947
 21
-0.552185
  0
LINE
  8
0
 10
-23.8947
 20
-0.552185
 11
-23.9529
 21
-0.373032
  0
LINE
  8
0
 10
-23.9529
 20
-0.373032
 11
-23.9882
 21
-0.187988
  0
LINE
  8
0
 10
-23.9882
 20
-0.187988
 11
-24
 21
0
  0
LINE
  8
0
 10
-24
 20
0
 11
-23.9882
 21
0.187988
  0
LINE
  8
0
 10
-23.9882
 20
0.187988
 11
-23.9529
 21
0.373032
  0
LINE
  8
0
 10
-23.9529
 20
0.373032
 11
-23.8947
 21
0.552185
  0
LINE
  8
0
 10
-23.8947
 20
0.552185
 11
-23.8145
 21
0.722626
  0
LINE
  8
0
 10
-23.8145
 20
0.722626
 11
-23.7135
 21
0.881668
  0
LINE
  8
0
 10
-23.7135
 20
0.881668
 11
-23.5934
 21
1.02681
  0
LINE
  8
0
 10
-23.5934
 20
1.02681
 11
-23.4561
 21
1.15576
  0
LINE
  8
0
 10
-23.4561
 20
1.15576
 11
-23.3037
 21
1.26648
  0
LINE
  8
0
 10
-23.3037
 20
1.26648
 11
-23.1387
 21
1.35724
  0
LINE
  8
0
 10
-23.1387
 20
1.35724
 11
-22.9635
 21
1.42657
  0
LINE
  8
0
 10
-22.9635
 20
1.42657
 11
-22.7811
 21
1.47342
  0
LINE
  8
0
 10
-22.7811
 20
1.47342
 11
-22.5942
 21
1.49704
  0
LINE
  8
0
 10
-22.5942
 20
1.49704
 11
-22.4058
 21
1.49704
  0
LINE
  8
0
 10
-22.4058
 20
1.49704
 11
-22.2189
 21
1.47342
  0
LINE
  8
0
 10
-22.2189
 20
1.47342
 11
-22.0365
 21
1.42657
  0
LINE
  8
0
 10
-22.0365
 20
1.42657
 11
-21.8613
 21
1.35724
  0
LINE
  8
0
 10
-21.8613
 20
1.35724
 11
-21.6963
 21
1.26648
  0
LINE
  8
0
 10
-21.6963
 20
1.26648
 11
-21.5439
 21
1.15576
  0
LINE
  8
0
 10
-21.5439
 20
1.15576
 11
-21.4065
 21
1.02681
  0
LINE
  8
0
 10
-21.4065
 20
1.02681
 11
-21.2865
 21
0.881668
  0
LINE
  8
0
 10
-21.2865
 20
0.881668
 11
-21.1855
 21
0.722626
  0
LINE
  8
0
 10
-21.1855
 20
0.722626
 11
-21.1053
 21
0.552185
  0
LINE
  8
0
 10
-21.1053
 20
0.552185
 11
-21.0471
 21
0.373032
  0
LINE
  8
0
 10
-21.0471
 20
0.373032
 11
-21.0118
 21
0.187988
  0
LINE
  8
0
 10
-21.0118
 20
0.187988
 11
-21
 21
0
  0
LINE
  8
0
 10
-21
 20
0
 11
-21.0118
 21
-0.187988
  0
LINE
  8
0
 10
-21.0118
 20
-0.187988
 11
-21.0471
 21
-0.373032
  0
LINE
  8
0
 10
-21.0471
 20
-0.373032
 11
-21.1053
 21
-0.552185
  0
LINE
  8
0
 10
-21.1053
 20
-0.552185
 11
-21.1855
 21
-0.722626
  0
LINE
  8
0
 10
-21.1855
 20
-0.722626
 11
-21.2865
 21
-0.881668
  0
LINE
  8
0
 10
-21.2865
 20
-0.881668
 11
-21.4065
 21
-1.02681
  0
LINE
  8
0
 10
-21.4065
 20
-1.02681
 11
-21.5439
 21
-1.15576
  0
LINE
  8
0
 10
-21.5439
 20
-1.15576
 11
-21.6963
 21
-1.26648
  0
LINE
  8
0
 10
-21.6963
 20
-1.26648
 11
-21.8613
 21
-1.35724
  0
LINE
  8
0
 10
-21.8613
 20
-1.35724
 11
-22.0365
 21
-1.42657
  0
LINE
  8
0
 10
-22.0365
 20
-1.42657
 11
-22.2189
 21
-1.47342
  0
LINE
  8
0
 10
-22.2189
 20
-1.47342
 11
-22.4058
 21
-1.49704
  0
LINE
  8
0
 10
-22.4058
 20
-1.49704
 11
-22.5942
 21
-1.49704
  0
LINE
  8
0
 10
37.4058
 20
-1.49704
 11
37.2189
 21
-1.47342
  0
LINE
  8
0
 10
37.2189
 20
-1.47342
 11
37.0365
 21
-1.42657
  0
LINE
  8
0
 10
37.0365
 20
-1.42657
 11
36.8613
 21
-1.35724
  0
LINE
  8
0
 10
36.8613
 20
-1.35724
 11
36.6963
 21
-1.26648
  0
LINE
  8
0
 10
36.6963
 20
-1.26648
 11
36.5439
 21
-1.15576
  0
LINE
  8
0
 10
36.5439
 20
-1.15576
 11
36.4065
 21
-1.02681
  0
LINE
  8
0
 10
36.4065
 20
-1.02681
 11
36.2865
 21
-0.881668
  0
LINE
  8
0
 10
36.2865
 20
-0.881668
 11
36.1855
 21
-0.722626
  0
LINE
  8
0
 10
36.1855
 20
-0.722626
 11
36.1053
 21
-0.552185
  0
LINE
  8
0
 10
36.1053
 20
-0.552185
 11
36.0471
 21
-0.373032
  0
LINE
  8
0
 10
36.0471
 20
-0.373032
 11
36.0118
 21
-0.187988
  0
LINE
  8
0
 10
36.0118
 20
-0.187988
 11
36
 21
0
  0
LINE
  8
0
 10
36
 20
0
 11
36.0118
 21
0.187988
  0
LINE
  8
0
 10
36.0118
 20
0.187988
 11
36.0471
 21
0.373032
  0
LINE
  8
0
 10
36.0471
 20
0.373032
 11
36.1053
 21
0.552185
  0
LINE
  8
0
 10
36.1053
 20
0.552185
 11
36.1855
 21
0.722626
  0
LINE
  8
0
 10
36.1855
 20
0.722626
 11
36.2865
 21
0.881668
  0
LINE
  8
0
 10
36.2865
 20
0.881668
 11
36.4065
 21
1.02681
  0
LINE
  8
0
 10
36.4065
 20
1.02681
 11
36.5439
 21
1.15576
  0
LINE
  8
0
 10
36.5439
 20
1.15576
 11
36.6963
 21
1.26648
  0
LINE
  8
0
 10
36.6963
 20
1.26648
 11
36.8613
 21
1.35724
  0
LINE
  8
0
 10
36.8613
 20
1.35724
 11
37.0365
 21
1.42657
  0
LINE
  8
0
 10
37.0365
 20
1.42657
 11
37.2189
 21
1.47342
  0
LINE
  8
0
 10
37.2189
 20
1.47342
 11
37.4058
 21
1.49704
  0
LINE
  8
0
 10
37.4058
 20
1.49704
 11
37.5942
 21
1.49704
  0
LINE
  8
0
 10
37.5942
 20
1.49704
 11
37.7811
 21
1.47342
  0
LINE
  8
0
 10
37.7811
 20
1.47342
 11
37.9635
 21
1.42657
  0
LINE
  8
0
 10
37.9635
 20
1.42657
 11
38.1387
 21
1.35724
  0
LINE
  8
0
 10
38.1387
 20
1.35724
 11
38.3037
 21
1.26648
  0
LINE
  8
0
 10
38.3037
 20
1.26648
 11
38.4561
 21
1.15576
  0
LINE
  8
0
 10
38.4561
 20
1.15576
 11
38.5934
 21
1.02681
  0
LINE
  8
0
 10
38.5934
 20
1.02681
 11
38.7135
 21
0.881668
  0
LINE
  8
0
 10
38.7135
 20
0.881668
 11
38.8145
 21
0.722626
  0
LINE
  8
0
 10
38.8145
 20
0.722626
 11
38.8947
 21
0.552185
  0
LINE
  8
0
 10
38.8947
 20
0.552185
 11
38.9529
 21
0.373032
  0
LINE
  8
0
 10
38.9529
 20
0.373032
 11
38.9882
 21
0.187988
  0
LINE
  8
0
 10
38.9882
 20
0.187988
 11
39
 21
0
  0
LINE
  8
0
 10
39
 20
0
 11
38.9882
 21
-0.187988
  0
LINE
  8
0
 10
38.9882
 20
-0.187988
 11
38.9529
 21
-0.373032
  0
LINE
  8
0
 10
38.9529
 20
-0.373032
 11
38.8947
 21
-0.552185
  0
LINE
  8
0
 10
38.8947
 20
-0.552185
 11
38.8145
 21
-0.722626
  0
LINE
  8
0
 10
38.8145
 20
-0.722626
 11
38.7135
 21
-0.881668
  0
LINE
  8
0
 10
38.7135
 20
-0.881668
 11
38.5934
 21
-1.02681
  0
LINE
  8
0
 10
38.5934
 20
-1.02681
 11
38.4561
 21
-1.15576
  0
LINE
  8
0
 10
38.4561
 20
-1.15576
 11
38.3037
 21
-1.26648
  0
LINE
  8
0
 10
38.3037
 20
-1.26648
 11
38.1387
 21
-1.35724
  0
LINE
  8
0
 10
38.1387
 20
-1.35724
 11
37.9635
 21
-1.42657
  0
LINE
  8
0
 10
37.9635
 20
-1.42657
 11
37.7811
 21
-1.47342
  0
LINE
  8
0
 10
37.7811
 20
-1.47342
 11
37.5942
 21
-1.49704
  0
LINE
  8
0
 10
37.5942
 20
-1.49704
 11
37.4058
 21
-1.49704
  0
LINE
  8
0
 10
22.4058
 20
-1.49704
 11
22.2189
 21
-1.47342
  0
LINE
  8
0
 10
22.2189
 20
-1.47342
 11
22.0365
 21
-1.42657
  0
LINE
  8
0
 10
22.0365
 20
-1.42657
 11
21.8613
 21
-1.35724
  0
LINE
  8
0
 10
21.8613
 20
-1.35724
 11
21.6963
 21
-1.26648
  0
LINE
  8
0
 10
21.6963
 20
-1.26648
 11
21.5439
 21
-1.15576
  0
LINE
  8
0
 10
21.5439
 20
-1.15576
 11
21.4065
 21
-1.02681
  0
LINE
  8
0
 10
21.4065
 20
-1.02681
 11
21.2865
 21
-0.881668
  0
LINE
  8
0
 10
21.2865
 20
-0.881668
 11
21.1855
 21
-0.722626
  0
LINE
  8
0
 10
21.1855
 20
-0.722626
 11
21.1053
 21
-0.552185
  0
LINE
  8
0
 10
21.1053
 20
-0.552185
 11
21.0471
 21
-0.373032
  0
LINE
  8
0
 10
21.0471
 20
-0.373032
 11
21.0118
 21
-0.187988
  0
LINE
  8
0
 10
21.0118
 20
-0.187988
 11
21
 21
0
  0
LINE
  8
0
 10
21
 20
0
 11
21.0118
 21
0.187988
  0
LINE
  8
0
 10
21.0118
 20
0.187988
 11
21.0471
 21
0.373032
  0
LINE
  8
0
 10
21.0471
 20
0.373032
 11
21.1053
 21
0.552185
  0
LINE
  8
0
 10
21.1053
 20
0.552185
 11
21.1855
 21
0.722626
  0
LINE
  8
0
 10
21.1855
 20
0.722626
 11
21.2865
 21
0.881668
  0
LINE
  8
0
 10
21.2865
 20
0.881668
 11
21.4065
 21
1.02681
  0
LINE
  8
0
 10
21.4065
 20
1.02681
 11
21.5439
 21
1.15576
  0
LINE
  8
0
 10
21.5439
 20
1.15576
 11
21.6963
 21
1.26648
  0
LINE
  8
0
 10
21.6963
 20
1.26648
 11
21.8613
 21
1.35724
  0
LINE
  8
0
 10
21.8613
 20
1.35724
 11
22.0365
 21
1.42657
  0
LINE
  8
0
 10
22.0365
 20
1.42657
 11
22.2189
 21
1.47342
  0
LINE
  8
0
 10
22.2189
 20
1.47342
 11
22.4058
 21
1.49704
  0
LINE
  8
0
 10
22.4058
 20
1.49704
 11
22.5942
 21
1.49704
  0
LINE
  8
0
 10
22.5942
 20
1.49704
 11
22.7811
 21
1.47342
  0
LINE
  8
0
 10
22.7811
 20
1.47342
 11
22.9635
 21
1.42657
  0
LINE
  8
0
 10
22.9635
 20
1.42657
 11
23.1387
 21
1.35724
  0
LINE
  8
0
 10
23.1387
 20
1.35724
 11
23.3037
 21
1.26648
  0
LINE
  8
0
 10
23.3037
 20
1.26648
 11
23.4561
 21
1.15576
  0
LINE
  8
0
 10
23.4561
 20
1.15576
 11
23.5934
 21
1.02681
  0
LINE
  8
0
 10
23.5934
 20
1.02681
 11
23.7135
 21
0.881668
  0
LINE
  8
0
 10
23.7135
 20
0.881668
 11
23.8145
 21
0.722626
  0
LINE
  8
0
 10
23.8145
 20
0.722626
 11
23.8947
 21
0.552185
  0
LINE
  8
0
 10
23.8947
 20
0.552185
 11
23.9529
 21
0.373032
  0
LINE
  8
0
 10
23.9529
 20
0.373032
 11
23.9882
 21
0.187988
  0
LINE
  8
0
 10
23.9882
 20
0.187988
 11
24
 21
0
  0
LINE
  8
0
 10
24
 20
0
 11
23.9882
 21
-0.187988
  0
LINE
  8
0
 10
23.9882
 20
-0.187988
 11
23.9529
 21
-0.373032
  0
LINE
  8
0
 10
23.9529
 20
-0.373032
 11
23.8947
 21
-0.552185
  0
LINE
  8
0
 10
23.8947
 20
-0.552185
 11
23.8145
 21
-0.722626
  0
LINE
  8
0
 10
23.8145
 20
-0.722626
 11
23.7135
 21
-0.881668
  0
LINE
  8
0
 10
23.7135
 20
-0.881668
 11
23.5934
 21
-1.02681
  0
LINE
  8
0
 10
23.5934
 20
-1.02681
 11
23.4561
 21
-1.15576
  0
LINE
  8
0
 10
23.4561
 20
-1.15576
 11
23.3037
 21
-1.26648
  0
LINE
  8
0
 10
23.3037
 20
-1.26648
 11
23.1387
 21
-1.35724
  0
LINE
  8
0
 10
23.1387
 20
-1.35724
 11
22.9635
 21
-1.42657
  0
LINE
  8
0
 10
22.9635
 20
-1.42657
 11
22.7811
 21
-1.47342
  0
LINE
  8
0
 10
22.7811
 20
-1.47342
 11
22.5942
 21
-1.49704
  0
LINE
  8
0
 10
22.5942
 20
-1.49704
 11
22.4058
 21
-1.49704
  0
LINE
  8
0
 10
-7.59418
 20
-1.49704
 11
-7.78107
 21
-1.47342
  0
LINE
  8
0
 10
-7.78107
 20
-1.47342
 11
-7.96352
 21
-1.42657
  0
LINE
  8
0
 10
-7.96352
 20
-1.42657
 11
-8.13866
 21
-1.35724
  0
LINE
  8
0
 10
-8.13866
 20
-1.35724
 11
-8.30373
 21
-1.26648
  0
LINE
  8
0
 10
-8.30373
 20
-1.26648
 11
-8.45613
 21
-1.15576
  0
LINE
  8
0
 10
-8.45613
 20
-1.15576
 11
-8.59344
 21
-1.02681
  0
LINE
  8
0
 10
-8.59344
 20
-1.02681
 11
-8.71352
 21
-0.881668
  0
LINE
  8
0
 10
-8.71352
 20
-0.881668
 11
-8.81445
 21
-0.722626
  0
LINE
  8
0
 10
-8.81445
 20
-0.722626
 11
-8.89465
 21
-0.552185
  0
LINE
  8
0
 10
-8.89465
 20
-0.552185
 11
-8.95287
 21
-0.373032
  0
LINE
  8
0
 10
-8.95287
 20
-0.373032
 11
-8.98816
 21
-0.187988
  0
LINE
  8
0
 10
-8.98816
 20
-0.187988
 11
-9
 21
0
  0
LINE
  8
0
 10
-9
 20
0
 11
-8.98816
 21
0.187988
  0
LINE
  8
0
 10
-8.98816
 20
0.187988
 11
-8.95287
 21
0.373032
  0
LINE
  8
0
 10
-8.95287
 20
0.373032
 11
-8.89465
 21
0.552185
  0
LINE
  8
0
 10
-8.89465
 20
0.552185
 11
-8.81445
 21
0.722626
  0
LINE
  8
0
 10
-8.81445
 20
0.722626
 11
-8.71352
 21
0.881668
  0
LINE
  8
0
 10
-8.71352
 20
0.881668
 11
-8.59344
 21
1.02681
  0
LINE
  8
0
 10
-8.59344
 20
1.02681
 11
-8.45613
 21
1.15576
  0
LINE
  8
0
 10
-8.45613
 20
1.15576
 11
-8.30373
 21
1.26648
  0
LINE
  8
0
 10
-8.30373
 20
1.26648
 11
-8.13866
 21
1.35724
  0
LINE
  8
0
 10
-8.13866
 20
1.35724
 11
-7.96352
 21
1.42657
  0
LINE
  8
0
 10
-7.96352
 20
1.42657
 11
-7.78107
 21
1.47342
  0
LINE
  8
0
 10
-7.78107
 20
1.47342
 11
-7.59418
 21
1.49704
  0
LINE
  8
0
 10
-7.59418
 20
1.49704
 11
-7.40581
 21
1.49704
  0
LINE
  8
0
 10
-7.40581
 20
1.49704
 11
-7.21892
 21
1.47342
  0
LINE
  8
0
 10
-7.21892
 20
1.47342
 11
-7.03647
 21
1.42657
  0
LINE
  8
0
 10
-7.03647
 20
1.42657
 11
-6.86133
 21
1.35724
  0
LINE
  8
0
 10
-6.86133
 20
1.35724
 11
-6.69626
 21
1.26648
  0
LINE
  8
0
 10
-6.69626
 20
1.26648
 11
-6.54385
 21
1.15576
  0
LINE
  8
0
 10
-6.54385
 20
1.15576
 11
-6.40654
 21
1.02681
  0
LINE
  8
0
 10
-6.40654
 20
1.02681
 11
-6.28647
 21
0.881668
  0
LINE
  8
0
 10
-6.28647
 20
0.881668
 11
-6.18553
 21
0.722626
  0
LINE
  8
0
 10
-6.18553
 20
0.722626
 11
-6.10533
 21
0.552185
  0
LINE
  8
0
 10
-6.10533
 20
0.552185
 11
-6.04712
 21
0.373032
  0
LINE
  8
0
 10
-6.04712
 20
0.373032
 11
-6.01183
 21
0.187988
  0
LINE
  8
0
 10
-6.01183
 20
0.187988
 11
-6
 21
0
  0
LINE
  8
0
 10
-6
 20
0
 11
-6.01183
 21
-0.187988
  0
LINE
  8
0
 10
-6.01183
 20
-0.187988
 11
-6.04712
 21
-0.373032
  0
LINE
  8
0
 10
-6.04712
 20
-0.373032
 11
-6.10533
 21
-0.552185
  0
LINE
  8
0
 10
-6.10533
 20
-0.552185
 11
-6.18553
 21
-0.722626
  0
LINE
  8
0
 10
-6.18553
 20
-0.722626
 11
-6.28647
 21
-0.881668
  0
LINE
  8
0
 10
-6.28647
 20
-0.881668
 11
-6.40654
 21
-1.02681
  0
LINE
  8
0
 10
-6.40654
 20
-1.02681
 11
-6.54385
 21
-1.15576
  0
LINE
  8
0
 10
-6.54385
 20
-1.15576
 11
-6.69626
 21
-1.26648
  0
LINE
  8
0
 10
-6.69626
 20
-1.26648
 11
-6.86133
 21
-1.35724
  0
LINE
  8
0
 10
-6.86133
 20
-1.35724
 11
-7.03647
 21
-1.42657
  0
LINE
  8
0
 10
-7.03647
 20
-1.42657
 11
-7.21892
 21
-1.47342
  0
LINE
  8
0
 10
-7.21892
 20
-1.47342
 11
-7.40581
 21
-1.49704
  0
LINE
  8
0
 10
-7.40581
 20
-1.49704
 11
-7.59418
 21
-1.49704
  0
LINE
  8
0
 10
7.40581
 20
-1.49704
 11
7.21892
 21
-1.47342
  0
LINE
  8
0
 10
7.21892
 20
-1.47342
 11
7.03647
 21
-1.42657
  0
LINE
  8
0
 10
7.03647
 20
-1.42657
 11
6.86133
 21
-1.35724
  0
LINE
  8
0
 10
6.86133
 20
-1.35724
 11
6.69626
 21
-1.26648
  0
LINE
  8
0
 10
6.69626
 20
-1.26648
 11
6.54385
 21
-1.15576
  0
LINE
  8
0
 10
6.54385
 20
-1.15576
 11
6.40654
 21
-1.02681
  0
LINE
  8
0
 10
6.40654
 20
-1.02681
 11
6.28647
 21
-0.881668
  0
LINE
  8
0
 10
6.28647
 20
-0.881668
 11
6.18553
 21
-0.722626
  0
LINE
  8
0
 10
6.18553
 20
-0.722626
 11
6.10533
 21
-0.552185
  0
LINE
  8
0
 10
6.10533
 20
-0.552185
 11
6.04712
 21
-0.373032
  0
LINE
  8
0
 10
6.04712
 20
-0.373032
 11
6.01183
 21
-0.187988
  0
LINE
  8
0
 10
6.01183
 20
-0.187988
 11
6
 21
0
  0
LINE
  8
0
 10
6
 20
0
 11
6.01183
 21
0.187988
  0
LINE
  8
0
 10
6.01183
 20
0.187988
 11
6.04712
 21
0.373032
  0
LINE
  8
0
 10
6.04712
 20
0.373032
 11
6.10533
 21
0.552185
  0
LINE
  8
0
 10
6.10533
 20
0.552185
 11
6.18553
 21
0.722626
  0
LINE
  8
0
 10
6.18553
 20
0.722626
 11
6.28647
 21
0.881668
  0
LINE
  8
0
 10
6.28647
 20
0.881668
 11
6.40654
 21
1.02681
  0
LINE
  8
0
 10
6.40654
 20
1.02681
 11
6.54385
 21
1.15576
  0
LINE
  8
0
 10
6.54385
 20
1.15576
 11
6.69626
 21
1.26648
  0
LINE
  8
0
 10
6.69626
 20
1.26648
 11
6.86133
 21
1.35724
  0
LINE
  8
0
 10
6.86133
 20
1.35724
 11
7.03647
 21
1.42657
  0
LINE
  8
0
 10
7.03647
 20
1.42657
 11
7.21892
 21
1.47342
  0
LINE
  8
0
 10
7.21892
 20
1.47342
 11
7.40581
 21
1.49704
  0
LINE
  8
0
 10
7.40581
 20
1.49704
 11
7.59418
 21
1.49704
  0
LINE
  8
0
 10
7.59418
 20
1.49704
 11
7.78107
 21
1.47342
  0
LINE
  8
0
 10
7.78107
 20
1.47342
 11
7.96352
 21
1.42657
  0
LINE
  8
0
 10
7.96352
 20
1.42657
 11
8.13866
 21
1.35724
  0
LINE
  8
0
 10
8.13866
 20
1.35724
 11
8.30373
 21
1.26648
  0
LINE
  8
0
 10
8.30373
 20
1.26648
 11
8.45613
 21
1.15576
  0
LINE
  8
0
 10
8.45613
 20
1.15576
 11
8.59344
 21
1.02681
  0
LINE
  8
0
 10
8.59344
 20
1.02681
 11
8.71352
 21
0.881668
  0
LINE
  8
0
 10
8.71352
 20
0.881668
 11
8.81445
 21
0.722626
  0
LINE
  8
0
 10
8.81445
 20
0.722626
 11
8.89465
 21
0.552185
  0
LINE
  8
0
 10
8.89465
 20
0.552185
 11
8.95287
 21
0.373032
  0
LINE
  8
0
 10
8.95287
 20
0.373032
 11
8.98816
 21
0.187988
  0
LINE
  8
0
 10
8.98816
 20
0.187988
 11
9
 21
0
  0
LINE
  8
0
 10
9
 20
0
 11
8.98816
 21
-0.187988
  0
LINE
  8
0
 10
8.98816
 20
-0.187988
 11
8.95287
 21
-0.373032
  0
LINE
  8
0
 10
8.95287
 20
-0.373032
 11
8.89465
 21
-0.552185
  0
LINE
  8
0
 10
8.89465
 20
-0.552185
 11
8.81445
 21
-0.722626
  0
LINE
  8
0
 10
8.81445
 20
-0.722626
 11
8.71352
 21
-0.881668
  0
LINE
  8
0
 10
8.71352
 20
-0.881668
 11
8.59344
 21
-1.02681
  0
LINE
  8
0
 10
8.59344
 20
-1.02681
 11
8.45613
 21
-1.15576
  0
LINE
  8
0
 10
8.45613
 20
-1.15576
 11
8.30373
 21
-1.26648
  0
LINE
  8
0
 10
8.30373
 20
-1.26648
 11
8.13866
 21
-1.35724
  0
LINE
  8
0
 10
8.13866
 20
-1.35724
 11
7.96352
 21
-1.42657
  0
LINE
  8
0
 10
7.96352
 20
-1.42657
 11
7.78107
 21
-1.47342
  0
LINE
  8
0
 10
7.78107
 20
-1.47342
 11
7.59418
 21
-1.49704
  0
LINE
  8
0
 10
7.59418
 20
-1.49704
 11
7.40581
 21
-1.49704
  0
LINE
  8
0
 10
-1.1913
 20
-72.3995
 11
-3.18394
 21
-71.9321
  0
LINE
  8
0
 10
-3.18394
 20
-71.9321
 11
-5.02014
 21
-71.1531
  0
LINE
  8
0
 10
-5.02014
 20
-71.1531
 11
-6.69987
 21
-70.0625
  0
LINE
  8
0
 10
-6.69987
 20
-70.0625
 11
-8.22316
 21
-68.6603
  0
LINE
  8
0
 10
-8.22316
 20
-68.6603
 11
-9.58997
 21
-66.9465
  0
LINE
  8
0
 10
-9.58997
 20
-66.9465
 11
-10.8003
 21
-64.9211
  0
LINE
  8
0
 10
-10.8003
 20
-64.9211
 11
-11.8513
 21
-62.5933
  0
LINE
  8
0
 10
-11.8513
 20
-62.5933
 11
-12.7407
 21
-59.9723
  0
LINE
  8
0
 10
-12.7407
 20
-59.9723
 11
-13.4683
 21
-57.0582
  0
LINE
  8
0
 10
-13.4683
 20
-57.0582
 11
-14.0342
 21
-53.8508
  0
LINE
  8
0
 10
-14.0342
 20
-53.8508
 11
-14.4384
 21
-50.3503
  0
LINE
  8
0
 10
-14.4384
 20
-50.3503
 11
-14.681
 21
-46.5566
  0
LINE
  8
0
 10
-14.681
 20
-46.5566
 11
-14.7618
 21
-42.4697
  0
LINE
  8
0
 10
-14.7618
 20
-42.4697
 11
-14.441
 21
-34.6247
  0
LINE
  8
0
 10
-14.441
 20
-34.6247
 11
-13.4786
 21
-27.9866
  0
LINE
  8
0
 10
-13.4786
 20
-27.9866
 11
-11.8745
 21
-22.5555
  0
LINE
  8
0
 10
-11.8745
 20
-22.5555
 11
-9.62889
 21
-18.3312
  0
LINE
  8
0
 10
-9.62889
 20
-18.3312
 11
-6.74161
 21
-15.3139
  0
LINE
  8
0
 10
-6.74161
 20
-15.3139
 11
-3.21271
 21
-13.5035
  0
LINE
  8
0
 10
-3.21271
 20
-13.5035
 11
0.957809
 21
-12.9
  0
LINE
  8
0
 10
0.957809
 20
-12.9
 11
5.11093
 21
-13.5035
  0
LINE
  8
0
 10
5.11093
 20
-13.5035
 11
8.62512
 21
-15.3139
  0
LINE
  8
0
 10
8.62512
 20
-15.3139
 11
11.5004
 21
-18.3312
  0
LINE
  8
0
 10
11.5004
 20
-18.3312
 11
13.7367
 21
-22.5555
  0
LINE
  8
0
 10
13.7367
 20
-22.5555
 11
15.334
 21
-27.9866
  0
LINE
  8
0
 10
15.334
 20
-27.9866
 11
16.2924
 21
-34.6247
  0
LINE
  8
0
 10
16.2924
 20
-34.6247
 11
16.6119
 21
-42.4697
  0
LINE
  8
0
 10
16.6119
 20
-42.4697
 11
16.5317
 21
-46.5566
  0
LINE
  8
0
 10
16.5317
 20
-46.5566
 11
16.2911
 21
-50.3503
  0
LINE
  8
0
 10
16.2911
 20
-50.3503
 11
15.89
 21
-53.8508
  0
LINE
  8
0
 10
15.89
 20
-53.8508
 11
15.3286
 21
-57.0582
  0
LINE
  8
0
 10
15.3286
 20
-57.0582
 11
14.6067
 21
-59.9723
  0
LINE
  8
0
 10
14.6067
 20
-59.9723
 11
13.7244
 21
-62.5933
  0
LINE
  8
0
 10
13.7244
 20
-62.5933
 11
12.6817
 21
-64.9211
  0
LINE
  8
0
 10
12.6817
 20
-64.9211
 11
11.4802
 21
-66.9465
  0
LINE
  8
0
 10
11.4802
 20
-66.9465
 11
10.1209
 21
-68.6603
  0
LINE
  8
0
 10
10.1209
 20
-68.6603
 11
8.60387
 21
-70.0625
  0
LINE
  8
0
 10
8.60387
 20
-70.0625
 11
6.92902
 21
-71.1531
  0
LINE
  8
0
 10
6.92902
 20
-71.1531
 11
5.09639
 21
-71.9321
  0
LINE
  8
0
 10
5.09639
 20
-71.9321
 11
3.10599
 21
-72.3995
  0
LINE
  8
0
 10
3.10599
 20
-72.3995
 11
0.957809
 21
-72.5553
  0
LINE
  8
0
 10
0.957809
 20
-72.5553
 11
-1.1913
 21
-72.3995
  0
ENDSEC
  0
SECTION
  2
OBJECTS
  0
DICTIONARY
  0
ENDSEC
  0
EOF
