  0
SECTION
  2
BLOCKS
  0
ENDSEC
  0
SECTION
  2
ENTITIES
  0
LINE
  8
0
 10
25.9369
 20
981.089
 11
26.5451
 21
981.245
  0
LINE
  8
0
 10
26.5451
 20
981.245
 11
27.1289
 21
981.476
  0
LINE
  8
0
 10
27.1289
 20
981.476
 11
27.6791
 21
981.778
  0
LINE
  8
0
 10
27.6791
 20
981.778
 11
28.1871
 21
982.147
  0
LINE
  8
0
 10
28.1871
 20
982.147
 11
28.6448
 21
982.577
  0
LINE
  8
0
 10
28.6448
 20
982.577
 11
29.0451
 21
983.061
  0
LINE
  8
0
 10
29.0451
 20
983.061
 11
29.3815
 21
983.591
  0
LINE
  8
0
 10
29.3815
 20
983.591
 11
29.6489
 21
984.159
  0
LINE
  8
0
 10
29.6489
 20
984.159
 11
29.8429
 21
984.757
  0
LINE
  8
0
 10
29.8429
 20
984.757
 11
29.9606
 21
985.373
  0
LINE
  8
0
 10
29.9606
 20
985.373
 11
30
 21
986
  0
LINE
  8
0
 10
30
 20
986
 11
30
 21
1246
  0
LINE
  8
0
 10
30
 20
1246
 11
29.9606
 21
1246.63
  0
LINE
  8
0
 10
29.9606
 20
1246.63
 11
29.8429
 21
1247.24
  0
LINE
  8
0
 10
29.8429
 20
1247.24
 11
29.6489
 21
1247.84
  0
LINE
  8
0
 10
29.6489
 20
1247.84
 11
29.3815
 21
1248.41
  0
LINE
  8
0
 10
29.3815
 20
1248.41
 11
29.0451
 21
1248.94
  0
LINE
  8
0
 10
29.0451
 20
1248.94
 11
28.6448
 21
1249.42
  0
LINE
  8
0
 10
28.6448
 20
1249.42
 11
28.1871
 21
1249.85
  0
LINE
  8
0
 10
28.1871
 20
1249.85
 11
27.6791
 21
1250.22
  0
LINE
  8
0
 10
27.6791
 20
1250.22
 11
27.1289
 21
1250.52
  0
LINE
  8
0
 10
27.1289
 20
1250.52
 11
26.5451
 21
1250.76
  0
LINE
  8
0
 10
26.5451
 20
1250.76
 11
25.9369
 21
1250.91
  0
LINE
  8
0
 10
25.9369
 20
1250.91
 11
25.3139
 21
1250.99
  0
LINE
  8
0
 10
25.3139
 20
1250.99
 11
-25.3139
 21
1250.99
  0
LINE
  8
0
 10
-25.3139
 20
1250.99
 11
-25.9369
 21
1250.91
  0
LINE
  8
0
 10
-25.9369
 20
1250.91
 11
-26.5451
 21
1250.76
  0
LINE
  8
0
 10
-26.5451
 20
1250.76
 11
-27.1289
 21
1250.52
  0
LINE
  8
0
 10
-27.1289
 20
1250.52
 11
-27.6791
 21
1250.22
  0
LINE
  8
0
 10
-27.6791
 20
1250.22
 11
-28.1871
 21
1249.85
  0
LINE
  8
0
 10
-28.1871
 20
1249.85
 11
-28.6448
 21
1249.42
  0
LINE
  8
0
 10
-28.6448
 20
1249.42
 11
-29.0451
 21
1248.94
  0
LINE
  8
0
 10
-29.0451
 20
1248.94
 11
-29.3815
 21
1248.41
  0
LINE
  8
0
 10
-29.3815
 20
1248.41
 11
-29.6489
 21
1247.84
  0
LINE
  8
0
 10
-29.6489
 20
1247.84
 11
-29.8429
 21
1247.24
  0
LINE
  8
0
 10
-29.8429
 20
1247.24
 11
-29.9606
 21
1246.63
  0
LINE
  8
0
 10
-29.9606
 20
1246.63
 11
-30
 21
1246
  0
LINE
  8
0
 10
-30
 20
1246
 11
-30
 21
986
  0
LINE
  8
0
 10
-30
 20
986
 11
-29.9606
 21
985.373
  0
LINE
  8
0
 10
-29.9606
 20
985.373
 11
-29.8429
 21
984.757
  0
LINE
  8
0
 10
-29.8429
 20
984.757
 11
-29.6489
 21
984.159
  0
LINE
  8
0
 10
-29.6489
 20
984.159
 11
-29.3815
 21
983.591
  0
LINE
  8
0
 10
-29.3815
 20
983.591
 11
-29.0451
 21
983.061
  0
LINE
  8
0
 10
-29.0451
 20
983.061
 11
-28.6448
 21
982.577
  0
LINE
  8
0
 10
-28.6448
 20
982.577
 11
-28.1871
 21
982.147
  0
LINE
  8
0
 10
-28.1871
 20
982.147
 11
-27.6791
 21
981.778
  0
LINE
  8
0
 10
-27.6791
 20
981.778
 11
-27.1289
 21
981.476
  0
LINE
  8
0
 10
-27.1289
 20
981.476
 11
-26.5451
 21
981.245
  0
LINE
  8
0
 10
-26.5451
 20
981.245
 11
-25.9369
 21
981.089
  0
LINE
  8
0
 10
-25.9369
 20
981.089
 11
-25.3139
 21
981.01
  0
LINE
  8
0
 10
-25.3139
 20
981.01
 11
25.3139
 21
981.01
  0
LINE
  8
0
 10
25.3139
 20
981.01
 11
25.9369
 21
981.089
  0
LINE
  8
0
 10
-24.7432
 20
982.635
 11
-25.2256
 21
982.696
  0
LINE
  8
0
 10
-25.2256
 20
982.696
 11
-25.6967
 21
982.817
  0
LINE
  8
0
 10
-25.6967
 20
982.817
 11
-26.1489
 21
982.996
  0
LINE
  8
0
 10
-26.1489
 20
982.996
 11
-26.5751
 21
983.23
  0
LINE
  8
0
 10
-26.5751
 20
983.23
 11
-26.9685
 21
983.516
  0
LINE
  8
0
 10
-26.9685
 20
983.516
 11
-27.323
 21
983.849
  0
LINE
  8
0
 10
-27.323
 20
983.849
 11
-27.633
 21
984.224
  0
LINE
  8
0
 10
-27.633
 20
984.224
 11
-27.8936
 21
984.634
  0
LINE
  8
0
 10
-27.8936
 20
984.634
 11
-28.1007
 21
985.074
  0
LINE
  8
0
 10
-28.1007
 20
985.074
 11
-28.251
 21
985.537
  0
LINE
  8
0
 10
-28.251
 20
985.537
 11
-28.3421
 21
986.015
  0
LINE
  8
0
 10
-28.3421
 20
986.015
 11
-28.3726
 21
986.5
  0
LINE
  8
0
 10
-28.3726
 20
986.5
 11
-28.3726
 21
1245.5
  0
LINE
  8
0
 10
-28.3726
 20
1245.5
 11
-28.3421
 21
1245.99
  0
LINE
  8
0
 10
-28.3421
 20
1245.99
 11
-28.251
 21
1246.46
  0
LINE
  8
0
 10
-28.251
 20
1246.46
 11
-28.1007
 21
1246.93
  0
LINE
  8
0
 10
-28.1007
 20
1246.93
 11
-27.8936
 21
1247.37
  0
LINE
  8
0
 10
-27.8936
 20
1247.37
 11
-27.633
 21
1247.78
  0
LINE
  8
0
 10
-27.633
 20
1247.78
 11
-27.323
 21
1248.15
  0
LINE
  8
0
 10
-27.323
 20
1248.15
 11
-26.9685
 21
1248.48
  0
LINE
  8
0
 10
-26.9685
 20
1248.48
 11
-26.5751
 21
1248.77
  0
LINE
  8
0
 10
-26.5751
 20
1248.77
 11
-26.1489
 21
1249
  0
LINE
  8
0
 10
-26.1489
 20
1249
 11
-25.6967
 21
1249.18
  0
LINE
  8
0
 10
-25.6967
 20
1249.18
 11
-25.2256
 21
1249.3
  0
LINE
  8
0
 10
-25.2256
 20
1249.3
 11
-24.7432
 21
1249.36
  0
LINE
  8
0
 10
-24.7432
 20
1249.36
 11
24.7432
 21
1249.36
  0
LINE
  8
0
 10
24.7432
 20
1249.36
 11
25.2256
 21
1249.3
  0
LINE
  8
0
 10
25.2256
 20
1249.3
 11
25.6967
 21
1249.18
  0
LINE
  8
0
 10
25.6967
 20
1249.18
 11
26.1489
 21
1249
  0
LINE
  8
0
 10
26.1489
 20
1249
 11
26.5751
 21
1248.77
  0
LINE
  8
0
 10
26.5751
 20
1248.77
 11
26.9685
 21
1248.48
  0
LINE
  8
0
 10
26.9685
 20
1248.48
 11
27.323
 21
1248.15
  0
LINE
  8
0
 10
27.323
 20
1248.15
 11
27.633
 21
1247.78
  0
LINE
  8
0
 10
27.633
 20
1247.78
 11
27.8936
 21
1247.37
  0
LINE
  8
0
 10
27.8936
 20
1247.37
 11
28.1007
 21
1246.93
  0
LINE
  8
0
 10
28.1007
 20
1246.93
 11
28.251
 21
1246.46
  0
LINE
  8
0
 10
28.251
 20
1246.46
 11
28.3421
 21
1245.99
  0
LINE
  8
0
 10
28.3421
 20
1245.99
 11
28.3726
 21
1245.5
  0
LINE
  8
0
 10
28.3726
 20
1245.5
 11
28.3726
 21
986.5
  0
LINE
  8
0
 10
28.3726
 20
986.5
 11
28.3421
 21
986.015
  0
LINE
  8
0
 10
28.3421
 20
986.015
 11
28.251
 21
985.537
  0
LINE
  8
0
 10
28.251
 20
985.537
 11
28.1007
 21
985.074
  0
LINE
  8
0
 10
28.1007
 20
985.074
 11
27.8936
 21
984.634
  0
LINE
  8
0
 10
27.8936
 20
984.634
 11
27.633
 21
984.224
  0
LINE
  8
0
 10
27.633
 20
984.224
 11
27.323
 21
983.849
  0
LINE
  8
0
 10
27.323
 20
983.849
 11
26.9685
 21
983.516
  0
LINE
  8
0
 10
26.9685
 20
983.516
 11
26.5751
 21
983.23
  0
LINE
  8
0
 10
26.5751
 20
983.23
 11
26.1489
 21
982.996
  0
LINE
  8
0
 10
26.1489
 20
982.996
 11
25.6967
 21
982.817
  0
LINE
  8
0
 10
25.6967
 20
982.817
 11
25.2256
 21
982.696
  0
LINE
  8
0
 10
25.2256
 20
982.696
 11
24.7432
 21
982.635
  0
LINE
  8
0
 10
24.7432
 20
982.635
 11
-24.7432
 21
982.635
  0
LINE
  8
0
 10
25.9369
 20
702.089
 11
26.5451
 21
702.245
  0
LINE
  8
0
 10
26.5451
 20
702.245
 11
27.1289
 21
702.476
  0
LINE
  8
0
 10
27.1289
 20
702.476
 11
27.6791
 21
702.778
  0
LINE
  8
0
 10
27.6791
 20
702.778
 11
28.1871
 21
703.147
  0
LINE
  8
0
 10
28.1871
 20
703.147
 11
28.6448
 21
703.577
  0
LINE
  8
0
 10
28.6448
 20
703.577
 11
29.0451
 21
704.061
  0
LINE
  8
0
 10
29.0451
 20
704.061
 11
29.3815
 21
704.591
  0
LINE
  8
0
 10
29.3815
 20
704.591
 11
29.6489
 21
705.159
  0
LINE
  8
0
 10
29.6489
 20
705.159
 11
29.8429
 21
705.757
  0
LINE
  8
0
 10
29.8429
 20
705.757
 11
29.9606
 21
706.373
  0
LINE
  8
0
 10
29.9606
 20
706.373
 11
30
 21
707
  0
LINE
  8
0
 10
30
 20
707
 11
30
 21
967
  0
LINE
  8
0
 10
30
 20
967
 11
29.9606
 21
967.627
  0
LINE
  8
0
 10
29.9606
 20
967.627
 11
29.8429
 21
968.243
  0
LINE
  8
0
 10
29.8429
 20
968.243
 11
29.6489
 21
968.841
  0
LINE
  8
0
 10
29.6489
 20
968.841
 11
29.3815
 21
969.409
  0
LINE
  8
0
 10
29.3815
 20
969.409
 11
29.0451
 21
969.939
  0
LINE
  8
0
 10
29.0451
 20
969.939
 11
28.6448
 21
970.423
  0
LINE
  8
0
 10
28.6448
 20
970.423
 11
28.1871
 21
970.853
  0
LINE
  8
0
 10
28.1871
 20
970.853
 11
27.6791
 21
971.222
  0
LINE
  8
0
 10
27.6791
 20
971.222
 11
27.1289
 21
971.524
  0
LINE
  8
0
 10
27.1289
 20
971.524
 11
26.5451
 21
971.755
  0
LINE
  8
0
 10
26.5451
 20
971.755
 11
25.9369
 21
971.911
  0
LINE
  8
0
 10
25.9369
 20
971.911
 11
25.3139
 21
971.99
  0
LINE
  8
0
 10
25.3139
 20
971.99
 11
-25.3139
 21
971.99
  0
LINE
  8
0
 10
-25.3139
 20
971.99
 11
-25.9369
 21
971.911
  0
LINE
  8
0
 10
-25.9369
 20
971.911
 11
-26.5451
 21
971.755
  0
LINE
  8
0
 10
-26.5451
 20
971.755
 11
-27.1289
 21
971.524
  0
LINE
  8
0
 10
-27.1289
 20
971.524
 11
-27.6791
 21
971.222
  0
LINE
  8
0
 10
-27.6791
 20
971.222
 11
-28.1871
 21
970.853
  0
LINE
  8
0
 10
-28.1871
 20
970.853
 11
-28.6448
 21
970.423
  0
LINE
  8
0
 10
-28.6448
 20
970.423
 11
-29.0451
 21
969.939
  0
LINE
  8
0
 10
-29.0451
 20
969.939
 11
-29.3815
 21
969.409
  0
LINE
  8
0
 10
-29.3815
 20
969.409
 11
-29.6489
 21
968.841
  0
LINE
  8
0
 10
-29.6489
 20
968.841
 11
-29.8429
 21
968.243
  0
LINE
  8
0
 10
-29.8429
 20
968.243
 11
-29.9606
 21
967.627
  0
LINE
  8
0
 10
-29.9606
 20
967.627
 11
-30
 21
967
  0
LINE
  8
0
 10
-30
 20
967
 11
-30
 21
707
  0
LINE
  8
0
 10
-30
 20
707
 11
-29.9606
 21
706.373
  0
LINE
  8
0
 10
-29.9606
 20
706.373
 11
-29.8429
 21
705.757
  0
LINE
  8
0
 10
-29.8429
 20
705.757
 11
-29.6489
 21
705.159
  0
LINE
  8
0
 10
-29.6489
 20
705.159
 11
-29.3815
 21
704.591
  0
LINE
  8
0
 10
-29.3815
 20
704.591
 11
-29.0451
 21
704.061
  0
LINE
  8
0
 10
-29.0451
 20
704.061
 11
-28.6448
 21
703.577
  0
LINE
  8
0
 10
-28.6448
 20
703.577
 11
-28.1871
 21
703.147
  0
LINE
  8
0
 10
-28.1871
 20
703.147
 11
-27.6791
 21
702.778
  0
LINE
  8
0
 10
-27.6791
 20
702.778
 11
-27.1289
 21
702.476
  0
LINE
  8
0
 10
-27.1289
 20
702.476
 11
-26.5451
 21
702.245
  0
LINE
  8
0
 10
-26.5451
 20
702.245
 11
-25.9369
 21
702.089
  0
LINE
  8
0
 10
-25.9369
 20
702.089
 11
-25.3139
 21
702.01
  0
LINE
  8
0
 10
-25.3139
 20
702.01
 11
25.3139
 21
702.01
  0
LINE
  8
0
 10
25.3139
 20
702.01
 11
25.9369
 21
702.089
  0
LINE
  8
0
 10
22.3493
 20
962.105
 11
22.0503
 21
962.143
  0
LINE
  8
0
 10
22.0503
 20
962.143
 11
21.7583
 21
962.217
  0
LINE
  8
0
 10
21.7583
 20
962.217
 11
21.4781
 21
962.328
  0
LINE
  8
0
 10
21.4781
 20
962.328
 11
21.214
 21
962.474
  0
LINE
  8
0
 10
21.214
 20
962.474
 11
20.9702
 21
962.651
  0
LINE
  8
0
 10
20.9702
 20
962.651
 11
20.7505
 21
962.857
  0
LINE
  8
0
 10
20.7505
 20
962.857
 11
20.5583
 21
963.089
  0
LINE
  8
0
 10
20.5583
 20
963.089
 11
20.3969
 21
963.344
  0
LINE
  8
0
 10
20.3969
 20
963.344
 11
20.2685
 21
963.617
  0
LINE
  8
0
 10
20.2685
 20
963.617
 11
20.1754
 21
963.903
  0
LINE
  8
0
 10
20.1754
 20
963.903
 11
20.1189
 21
964.199
  0
LINE
  8
0
 10
20.1189
 20
964.199
 11
20.1
 21
964.5
  0
LINE
  8
0
 10
20.1
 20
964.5
 11
20.1189
 21
964.801
  0
LINE
  8
0
 10
20.1189
 20
964.801
 11
20.1754
 21
965.097
  0
LINE
  8
0
 10
20.1754
 20
965.097
 11
20.2685
 21
965.383
  0
LINE
  8
0
 10
20.2685
 20
965.383
 11
20.3969
 21
965.656
  0
LINE
  8
0
 10
20.3969
 20
965.656
 11
20.5583
 21
965.911
  0
LINE
  8
0
 10
20.5583
 20
965.911
 11
20.7505
 21
966.143
  0
LINE
  8
0
 10
20.7505
 20
966.143
 11
20.9702
 21
966.349
  0
LINE
  8
0
 10
20.9702
 20
966.349
 11
21.214
 21
966.526
  0
LINE
  8
0
 10
21.214
 20
966.526
 11
21.4781
 21
966.672
  0
LINE
  8
0
 10
21.4781
 20
966.672
 11
21.7583
 21
966.783
  0
LINE
  8
0
 10
21.7583
 20
966.783
 11
22.0503
 21
966.857
  0
LINE
  8
0
 10
22.0503
 20
966.857
 11
22.3493
 21
966.895
  0
LINE
  8
0
 10
22.3493
 20
966.895
 11
22.6507
 21
966.895
  0
LINE
  8
0
 10
22.6507
 20
966.895
 11
22.9497
 21
966.857
  0
LINE
  8
0
 10
22.9497
 20
966.857
 11
23.2416
 21
966.783
  0
LINE
  8
0
 10
23.2416
 20
966.783
 11
23.5219
 21
966.672
  0
LINE
  8
0
 10
23.5219
 20
966.672
 11
23.786
 21
966.526
  0
LINE
  8
0
 10
23.786
 20
966.526
 11
24.0298
 21
966.349
  0
LINE
  8
0
 10
24.0298
 20
966.349
 11
24.2495
 21
966.143
  0
LINE
  8
0
 10
24.2495
 20
966.143
 11
24.4416
 21
965.911
  0
LINE
  8
0
 10
24.4416
 20
965.911
 11
24.6031
 21
965.656
  0
LINE
  8
0
 10
24.6031
 20
965.656
 11
24.7315
 21
965.383
  0
LINE
  8
0
 10
24.7315
 20
965.383
 11
24.8246
 21
965.097
  0
LINE
  8
0
 10
24.8246
 20
965.097
 11
24.8811
 21
964.801
  0
LINE
  8
0
 10
24.8811
 20
964.801
 11
24.9
 21
964.5
  0
LINE
  8
0
 10
24.9
 20
964.5
 11
24.8811
 21
964.199
  0
LINE
  8
0
 10
24.8811
 20
964.199
 11
24.8246
 21
963.903
  0
LINE
  8
0
 10
24.8246
 20
963.903
 11
24.7315
 21
963.617
  0
LINE
  8
0
 10
24.7315
 20
963.617
 11
24.6031
 21
963.344
  0
LINE
  8
0
 10
24.6031
 20
963.344
 11
24.4416
 21
963.089
  0
LINE
  8
0
 10
24.4416
 20
963.089
 11
24.2495
 21
962.857
  0
LINE
  8
0
 10
24.2495
 20
962.857
 11
24.0298
 21
962.651
  0
LINE
  8
0
 10
24.0298
 20
962.651
 11
23.786
 21
962.474
  0
LINE
  8
0
 10
23.786
 20
962.474
 11
23.5219
 21
962.328
  0
LINE
  8
0
 10
23.5219
 20
962.328
 11
23.2416
 21
962.217
  0
LINE
  8
0
 10
23.2416
 20
962.217
 11
22.9497
 21
962.143
  0
LINE
  8
0
 10
22.9497
 20
962.143
 11
22.6507
 21
962.105
  0
LINE
  8
0
 10
22.6507
 20
962.105
 11
22.3493
 21
962.105
  0
LINE
  8
0
 10
-22.6507
 20
962.105
 11
-22.9497
 21
962.143
  0
LINE
  8
0
 10
-22.9497
 20
962.143
 11
-23.2416
 21
962.217
  0
LINE
  8
0
 10
-23.2416
 20
962.217
 11
-23.5219
 21
962.328
  0
LINE
  8
0
 10
-23.5219
 20
962.328
 11
-23.786
 21
962.474
  0
LINE
  8
0
 10
-23.786
 20
962.474
 11
-24.0298
 21
962.651
  0
LINE
  8
0
 10
-24.0298
 20
962.651
 11
-24.2495
 21
962.857
  0
LINE
  8
0
 10
-24.2495
 20
962.857
 11
-24.4416
 21
963.089
  0
LINE
  8
0
 10
-24.4416
 20
963.089
 11
-24.6031
 21
963.344
  0
LINE
  8
0
 10
-24.6031
 20
963.344
 11
-24.7315
 21
963.617
  0
LINE
  8
0
 10
-24.7315
 20
963.617
 11
-24.8246
 21
963.903
  0
LINE
  8
0
 10
-24.8246
 20
963.903
 11
-24.8811
 21
964.199
  0
LINE
  8
0
 10
-24.8811
 20
964.199
 11
-24.9
 21
964.5
  0
LINE
  8
0
 10
-24.9
 20
964.5
 11
-24.8811
 21
964.801
  0
LINE
  8
0
 10
-24.8811
 20
964.801
 11
-24.8246
 21
965.097
  0
LINE
  8
0
 10
-24.8246
 20
965.097
 11
-24.7315
 21
965.383
  0
LINE
  8
0
 10
-24.7315
 20
965.383
 11
-24.6031
 21
965.656
  0
LINE
  8
0
 10
-24.6031
 20
965.656
 11
-24.4416
 21
965.911
  0
LINE
  8
0
 10
-24.4416
 20
965.911
 11
-24.2495
 21
966.143
  0
LINE
  8
0
 10
-24.2495
 20
966.143
 11
-24.0298
 21
966.349
  0
LINE
  8
0
 10
-24.0298
 20
966.349
 11
-23.786
 21
966.526
  0
LINE
  8
0
 10
-23.786
 20
966.526
 11
-23.5219
 21
966.672
  0
LINE
  8
0
 10
-23.5219
 20
966.672
 11
-23.2416
 21
966.783
  0
LINE
  8
0
 10
-23.2416
 20
966.783
 11
-22.9497
 21
966.857
  0
LINE
  8
0
 10
-22.9497
 20
966.857
 11
-22.6507
 21
966.895
  0
LINE
  8
0
 10
-22.6507
 20
966.895
 11
-22.3493
 21
966.895
  0
LINE
  8
0
 10
-22.3493
 20
966.895
 11
-22.0503
 21
966.857
  0
LINE
  8
0
 10
-22.0503
 20
966.857
 11
-21.7583
 21
966.783
  0
LINE
  8
0
 10
-21.7583
 20
966.783
 11
-21.4781
 21
966.672
  0
LINE
  8
0
 10
-21.4781
 20
966.672
 11
-21.214
 21
966.526
  0
LINE
  8
0
 10
-21.214
 20
966.526
 11
-20.9702
 21
966.349
  0
LINE
  8
0
 10
-20.9702
 20
966.349
 11
-20.7505
 21
966.143
  0
LINE
  8
0
 10
-20.7505
 20
966.143
 11
-20.5583
 21
965.911
  0
LINE
  8
0
 10
-20.5583
 20
965.911
 11
-20.3969
 21
965.656
  0
LINE
  8
0
 10
-20.3969
 20
965.656
 11
-20.2685
 21
965.383
  0
LINE
  8
0
 10
-20.2685
 20
965.383
 11
-20.1754
 21
965.097
  0
LINE
  8
0
 10
-20.1754
 20
965.097
 11
-20.1189
 21
964.801
  0
LINE
  8
0
 10
-20.1189
 20
964.801
 11
-20.1
 21
964.5
  0
LINE
  8
0
 10
-20.1
 20
964.5
 11
-20.1189
 21
964.199
  0
LINE
  8
0
 10
-20.1189
 20
964.199
 11
-20.1754
 21
963.903
  0
LINE
  8
0
 10
-20.1754
 20
963.903
 11
-20.2685
 21
963.617
  0
LINE
  8
0
 10
-20.2685
 20
963.617
 11
-20.3969
 21
963.344
  0
LINE
  8
0
 10
-20.3969
 20
963.344
 11
-20.5583
 21
963.089
  0
LINE
  8
0
 10
-20.5583
 20
963.089
 11
-20.7505
 21
962.857
  0
LINE
  8
0
 10
-20.7505
 20
962.857
 11
-20.9702
 21
962.651
  0
LINE
  8
0
 10
-20.9702
 20
962.651
 11
-21.214
 21
962.474
  0
LINE
  8
0
 10
-21.214
 20
962.474
 11
-21.4781
 21
962.328
  0
LINE
  8
0
 10
-21.4781
 20
962.328
 11
-21.7583
 21
962.217
  0
LINE
  8
0
 10
-21.7583
 20
962.217
 11
-22.0503
 21
962.143
  0
LINE
  8
0
 10
-22.0503
 20
962.143
 11
-22.3493
 21
962.105
  0
LINE
  8
0
 10
-22.3493
 20
962.105
 11
-22.6507
 21
962.105
  0
LINE
  8
0
 10
22.3493
 20
707.105
 11
22.0503
 21
707.143
  0
LINE
  8
0
 10
22.0503
 20
707.143
 11
21.7583
 21
707.217
  0
LINE
  8
0
 10
21.7583
 20
707.217
 11
21.4781
 21
707.328
  0
LINE
  8
0
 10
21.4781
 20
707.328
 11
21.214
 21
707.474
  0
LINE
  8
0
 10
21.214
 20
707.474
 11
20.9702
 21
707.651
  0
LINE
  8
0
 10
20.9702
 20
707.651
 11
20.7505
 21
707.857
  0
LINE
  8
0
 10
20.7505
 20
707.857
 11
20.5583
 21
708.089
  0
LINE
  8
0
 10
20.5583
 20
708.089
 11
20.3969
 21
708.344
  0
LINE
  8
0
 10
20.3969
 20
708.344
 11
20.2685
 21
708.617
  0
LINE
  8
0
 10
20.2685
 20
708.617
 11
20.1754
 21
708.903
  0
LINE
  8
0
 10
20.1754
 20
708.903
 11
20.1189
 21
709.199
  0
LINE
  8
0
 10
20.1189
 20
709.199
 11
20.1
 21
709.5
  0
LINE
  8
0
 10
20.1
 20
709.5
 11
20.1189
 21
709.801
  0
LINE
  8
0
 10
20.1189
 20
709.801
 11
20.1754
 21
710.097
  0
LINE
  8
0
 10
20.1754
 20
710.097
 11
20.2685
 21
710.383
  0
LINE
  8
0
 10
20.2685
 20
710.383
 11
20.3969
 21
710.656
  0
LINE
  8
0
 10
20.3969
 20
710.656
 11
20.5583
 21
710.911
  0
LINE
  8
0
 10
20.5583
 20
710.911
 11
20.7505
 21
711.143
  0
LINE
  8
0
 10
20.7505
 20
711.143
 11
20.9702
 21
711.349
  0
LINE
  8
0
 10
20.9702
 20
711.349
 11
21.214
 21
711.526
  0
LINE
  8
0
 10
21.214
 20
711.526
 11
21.4781
 21
711.672
  0
LINE
  8
0
 10
21.4781
 20
711.672
 11
21.7583
 21
711.783
  0
LINE
  8
0
 10
21.7583
 20
711.783
 11
22.0503
 21
711.857
  0
LINE
  8
0
 10
22.0503
 20
711.857
 11
22.3493
 21
711.895
  0
LINE
  8
0
 10
22.3493
 20
711.895
 11
22.6507
 21
711.895
  0
LINE
  8
0
 10
22.6507
 20
711.895
 11
22.9497
 21
711.857
  0
LINE
  8
0
 10
22.9497
 20
711.857
 11
23.2416
 21
711.783
  0
LINE
  8
0
 10
23.2416
 20
711.783
 11
23.5219
 21
711.672
  0
LINE
  8
0
 10
23.5219
 20
711.672
 11
23.786
 21
711.526
  0
LINE
  8
0
 10
23.786
 20
711.526
 11
24.0298
 21
711.349
  0
LINE
  8
0
 10
24.0298
 20
711.349
 11
24.2495
 21
711.143
  0
LINE
  8
0
 10
24.2495
 20
711.143
 11
24.4416
 21
710.911
  0
LINE
  8
0
 10
24.4416
 20
710.911
 11
24.6031
 21
710.656
  0
LINE
  8
0
 10
24.6031
 20
710.656
 11
24.7315
 21
710.383
  0
LINE
  8
0
 10
24.7315
 20
710.383
 11
24.8246
 21
710.097
  0
LINE
  8
0
 10
24.8246
 20
710.097
 11
24.8811
 21
709.801
  0
LINE
  8
0
 10
24.8811
 20
709.801
 11
24.9
 21
709.5
  0
LINE
  8
0
 10
24.9
 20
709.5
 11
24.8811
 21
709.199
  0
LINE
  8
0
 10
24.8811
 20
709.199
 11
24.8246
 21
708.903
  0
LINE
  8
0
 10
24.8246
 20
708.903
 11
24.7315
 21
708.617
  0
LINE
  8
0
 10
24.7315
 20
708.617
 11
24.6031
 21
708.344
  0
LINE
  8
0
 10
24.6031
 20
708.344
 11
24.4416
 21
708.089
  0
LINE
  8
0
 10
24.4416
 20
708.089
 11
24.2495
 21
707.857
  0
LINE
  8
0
 10
24.2495
 20
707.857
 11
24.0298
 21
707.651
  0
LINE
  8
0
 10
24.0298
 20
707.651
 11
23.786
 21
707.474
  0
LINE
  8
0
 10
23.786
 20
707.474
 11
23.5219
 21
707.328
  0
LINE
  8
0
 10
23.5219
 20
707.328
 11
23.2416
 21
707.217
  0
LINE
  8
0
 10
23.2416
 20
707.217
 11
22.9497
 21
707.143
  0
LINE
  8
0
 10
22.9497
 20
707.143
 11
22.6507
 21
707.105
  0
LINE
  8
0
 10
22.6507
 20
707.105
 11
22.3493
 21
707.105
  0
LINE
  8
0
 10
-22.6507
 20
707.105
 11
-22.9497
 21
707.143
  0
LINE
  8
0
 10
-22.9497
 20
707.143
 11
-23.2416
 21
707.217
  0
LINE
  8
0
 10
-23.2416
 20
707.217
 11
-23.5219
 21
707.328
  0
LINE
  8
0
 10
-23.5219
 20
707.328
 11
-23.786
 21
707.474
  0
LINE
  8
0
 10
-23.786
 20
707.474
 11
-24.0298
 21
707.651
  0
LINE
  8
0
 10
-24.0298
 20
707.651
 11
-24.2495
 21
707.857
  0
LINE
  8
0
 10
-24.2495
 20
707.857
 11
-24.4416
 21
708.089
  0
LINE
  8
0
 10
-24.4416
 20
708.089
 11
-24.6031
 21
708.344
  0
LINE
  8
0
 10
-24.6031
 20
708.344
 11
-24.7315
 21
708.617
  0
LINE
  8
0
 10
-24.7315
 20
708.617
 11
-24.8246
 21
708.903
  0
LINE
  8
0
 10
-24.8246
 20
708.903
 11
-24.8811
 21
709.199
  0
LINE
  8
0
 10
-24.8811
 20
709.199
 11
-24.9
 21
709.5
  0
LINE
  8
0
 10
-24.9
 20
709.5
 11
-24.8811
 21
709.801
  0
LINE
  8
0
 10
-24.8811
 20
709.801
 11
-24.8246
 21
710.097
  0
LINE
  8
0
 10
-24.8246
 20
710.097
 11
-24.7315
 21
710.383
  0
LINE
  8
0
 10
-24.7315
 20
710.383
 11
-24.6031
 21
710.656
  0
LINE
  8
0
 10
-24.6031
 20
710.656
 11
-24.4416
 21
710.911
  0
LINE
  8
0
 10
-24.4416
 20
710.911
 11
-24.2495
 21
711.143
  0
LINE
  8
0
 10
-24.2495
 20
711.143
 11
-24.0298
 21
711.349
  0
LINE
  8
0
 10
-24.0298
 20
711.349
 11
-23.786
 21
711.526
  0
LINE
  8
0
 10
-23.786
 20
711.526
 11
-23.5219
 21
711.672
  0
LINE
  8
0
 10
-23.5219
 20
711.672
 11
-23.2416
 21
711.783
  0
LINE
  8
0
 10
-23.2416
 20
711.783
 11
-22.9497
 21
711.857
  0
LINE
  8
0
 10
-22.9497
 20
711.857
 11
-22.6507
 21
711.895
  0
LINE
  8
0
 10
-22.6507
 20
711.895
 11
-22.3493
 21
711.895
  0
LINE
  8
0
 10
-22.3493
 20
711.895
 11
-22.0503
 21
711.857
  0
LINE
  8
0
 10
-22.0503
 20
711.857
 11
-21.7583
 21
711.783
  0
LINE
  8
0
 10
-21.7583
 20
711.783
 11
-21.4781
 21
711.672
  0
LINE
  8
0
 10
-21.4781
 20
711.672
 11
-21.214
 21
711.526
  0
LINE
  8
0
 10
-21.214
 20
711.526
 11
-20.9702
 21
711.349
  0
LINE
  8
0
 10
-20.9702
 20
711.349
 11
-20.7505
 21
711.143
  0
LINE
  8
0
 10
-20.7505
 20
711.143
 11
-20.5583
 21
710.911
  0
LINE
  8
0
 10
-20.5583
 20
710.911
 11
-20.3969
 21
710.656
  0
LINE
  8
0
 10
-20.3969
 20
710.656
 11
-20.2685
 21
710.383
  0
LINE
  8
0
 10
-20.2685
 20
710.383
 11
-20.1754
 21
710.097
  0
LINE
  8
0
 10
-20.1754
 20
710.097
 11
-20.1189
 21
709.801
  0
LINE
  8
0
 10
-20.1189
 20
709.801
 11
-20.1
 21
709.5
  0
LINE
  8
0
 10
-20.1
 20
709.5
 11
-20.1189
 21
709.199
  0
LINE
  8
0
 10
-20.1189
 20
709.199
 11
-20.1754
 21
708.903
  0
LINE
  8
0
 10
-20.1754
 20
708.903
 11
-20.2685
 21
708.617
  0
LINE
  8
0
 10
-20.2685
 20
708.617
 11
-20.3969
 21
708.344
  0
LINE
  8
0
 10
-20.3969
 20
708.344
 11
-20.5583
 21
708.089
  0
LINE
  8
0
 10
-20.5583
 20
708.089
 11
-20.7505
 21
707.857
  0
LINE
  8
0
 10
-20.7505
 20
707.857
 11
-20.9702
 21
707.651
  0
LINE
  8
0
 10
-20.9702
 20
707.651
 11
-21.214
 21
707.474
  0
LINE
  8
0
 10
-21.214
 20
707.474
 11
-21.4781
 21
707.328
  0
LINE
  8
0
 10
-21.4781
 20
707.328
 11
-21.7583
 21
707.217
  0
LINE
  8
0
 10
-21.7583
 20
707.217
 11
-22.0503
 21
707.143
  0
LINE
  8
0
 10
-22.0503
 20
707.143
 11
-22.3493
 21
707.105
  0
LINE
  8
0
 10
-22.3493
 20
707.105
 11
-22.6507
 21
707.105
  0
LINE
  8
0
 10
25.9369
 20
423.089
 11
26.5451
 21
423.245
  0
LINE
  8
0
 10
26.5451
 20
423.245
 11
27.1289
 21
423.476
  0
LINE
  8
0
 10
27.1289
 20
423.476
 11
27.6791
 21
423.778
  0
LINE
  8
0
 10
27.6791
 20
423.778
 11
28.1871
 21
424.147
  0
LINE
  8
0
 10
28.1871
 20
424.147
 11
28.6448
 21
424.577
  0
LINE
  8
0
 10
28.6448
 20
424.577
 11
29.0451
 21
425.061
  0
LINE
  8
0
 10
29.0451
 20
425.061
 11
29.3815
 21
425.591
  0
LINE
  8
0
 10
29.3815
 20
425.591
 11
29.6489
 21
426.159
  0
LINE
  8
0
 10
29.6489
 20
426.159
 11
29.8429
 21
426.757
  0
LINE
  8
0
 10
29.8429
 20
426.757
 11
29.9606
 21
427.373
  0
LINE
  8
0
 10
29.9606
 20
427.373
 11
30
 21
428
  0
LINE
  8
0
 10
30
 20
428
 11
30
 21
688
  0
LINE
  8
0
 10
30
 20
688
 11
29.9606
 21
688.627
  0
LINE
  8
0
 10
29.9606
 20
688.627
 11
29.8429
 21
689.243
  0
LINE
  8
0
 10
29.8429
 20
689.243
 11
29.6489
 21
689.841
  0
LINE
  8
0
 10
29.6489
 20
689.841
 11
29.3815
 21
690.409
  0
LINE
  8
0
 10
29.3815
 20
690.409
 11
29.0451
 21
690.939
  0
LINE
  8
0
 10
29.0451
 20
690.939
 11
28.6448
 21
691.423
  0
LINE
  8
0
 10
28.6448
 20
691.423
 11
28.1871
 21
691.853
  0
LINE
  8
0
 10
28.1871
 20
691.853
 11
27.6791
 21
692.222
  0
LINE
  8
0
 10
27.6791
 20
692.222
 11
27.1289
 21
692.524
  0
LINE
  8
0
 10
27.1289
 20
692.524
 11
26.5451
 21
692.755
  0
LINE
  8
0
 10
26.5451
 20
692.755
 11
25.9369
 21
692.911
  0
LINE
  8
0
 10
25.9369
 20
692.911
 11
25.3139
 21
692.99
  0
LINE
  8
0
 10
25.3139
 20
692.99
 11
-25.3139
 21
692.99
  0
LINE
  8
0
 10
-25.3139
 20
692.99
 11
-25.9369
 21
692.911
  0
LINE
  8
0
 10
-25.9369
 20
692.911
 11
-26.5451
 21
692.755
  0
LINE
  8
0
 10
-26.5451
 20
692.755
 11
-27.1289
 21
692.524
  0
LINE
  8
0
 10
-27.1289
 20
692.524
 11
-27.6791
 21
692.222
  0
LINE
  8
0
 10
-27.6791
 20
692.222
 11
-28.1871
 21
691.853
  0
LINE
  8
0
 10
-28.1871
 20
691.853
 11
-28.6448
 21
691.423
  0
LINE
  8
0
 10
-28.6448
 20
691.423
 11
-29.0451
 21
690.939
  0
LINE
  8
0
 10
-29.0451
 20
690.939
 11
-29.3815
 21
690.409
  0
LINE
  8
0
 10
-29.3815
 20
690.409
 11
-29.6489
 21
689.841
  0
LINE
  8
0
 10
-29.6489
 20
689.841
 11
-29.8429
 21
689.243
  0
LINE
  8
0
 10
-29.8429
 20
689.243
 11
-29.9606
 21
688.627
  0
LINE
  8
0
 10
-29.9606
 20
688.627
 11
-30
 21
688
  0
LINE
  8
0
 10
-30
 20
688
 11
-30
 21
428
  0
LINE
  8
0
 10
-30
 20
428
 11
-29.9606
 21
427.373
  0
LINE
  8
0
 10
-29.9606
 20
427.373
 11
-29.8429
 21
426.757
  0
LINE
  8
0
 10
-29.8429
 20
426.757
 11
-29.6489
 21
426.159
  0
LINE
  8
0
 10
-29.6489
 20
426.159
 11
-29.3815
 21
425.591
  0
LINE
  8
0
 10
-29.3815
 20
425.591
 11
-29.0451
 21
425.061
  0
LINE
  8
0
 10
-29.0451
 20
425.061
 11
-28.6448
 21
424.577
  0
LINE
  8
0
 10
-28.6448
 20
424.577
 11
-28.1871
 21
424.147
  0
LINE
  8
0
 10
-28.1871
 20
424.147
 11
-27.6791
 21
423.778
  0
LINE
  8
0
 10
-27.6791
 20
423.778
 11
-27.1289
 21
423.476
  0
LINE
  8
0
 10
-27.1289
 20
423.476
 11
-26.5451
 21
423.245
  0
LINE
  8
0
 10
-26.5451
 20
423.245
 11
-25.9369
 21
423.089
  0
LINE
  8
0
 10
-25.9369
 20
423.089
 11
-25.3139
 21
423.01
  0
LINE
  8
0
 10
-25.3139
 20
423.01
 11
25.3139
 21
423.01
  0
LINE
  8
0
 10
25.3139
 20
423.01
 11
25.9369
 21
423.089
  0
LINE
  8
0
 10
-22.613
 20
683.704
 11
-22.8373
 21
683.732
  0
LINE
  8
0
 10
-22.8373
 20
683.732
 11
-23.0562
 21
683.788
  0
LINE
  8
0
 10
-23.0562
 20
683.788
 11
-23.2664
 21
683.871
  0
LINE
  8
0
 10
-23.2664
 20
683.871
 11
-23.4645
 21
683.98
  0
LINE
  8
0
 10
-23.4645
 20
683.98
 11
-23.6474
 21
684.113
  0
LINE
  8
0
 10
-23.6474
 20
684.113
 11
-23.8121
 21
684.268
  0
LINE
  8
0
 10
-23.8121
 20
684.268
 11
-23.9562
 21
684.442
  0
LINE
  8
0
 10
-23.9562
 20
684.442
 11
-24.0773
 21
684.633
  0
LINE
  8
0
 10
-24.0773
 20
684.633
 11
-24.1736
 21
684.837
  0
LINE
  8
0
 10
-24.1736
 20
684.837
 11
-24.2434
 21
685.052
  0
LINE
  8
0
 10
-24.2434
 20
685.052
 11
-24.2858
 21
685.274
  0
LINE
  8
0
 10
-24.2858
 20
685.274
 11
-24.3
 21
685.5
  0
LINE
  8
0
 10
-24.3
 20
685.5
 11
-24.2858
 21
685.726
  0
LINE
  8
0
 10
-24.2858
 20
685.726
 11
-24.2434
 21
685.948
  0
LINE
  8
0
 10
-24.2434
 20
685.948
 11
-24.1736
 21
686.163
  0
LINE
  8
0
 10
-24.1736
 20
686.163
 11
-24.0773
 21
686.367
  0
LINE
  8
0
 10
-24.0773
 20
686.367
 11
-23.9562
 21
686.558
  0
LINE
  8
0
 10
-23.9562
 20
686.558
 11
-23.8121
 21
686.732
  0
LINE
  8
0
 10
-23.8121
 20
686.732
 11
-23.6474
 21
686.887
  0
LINE
  8
0
 10
-23.6474
 20
686.887
 11
-23.4645
 21
687.02
  0
LINE
  8
0
 10
-23.4645
 20
687.02
 11
-23.2664
 21
687.129
  0
LINE
  8
0
 10
-23.2664
 20
687.129
 11
-23.0562
 21
687.212
  0
LINE
  8
0
 10
-23.0562
 20
687.212
 11
-22.8373
 21
687.268
  0
LINE
  8
0
 10
-22.8373
 20
687.268
 11
-22.613
 21
687.296
  0
LINE
  8
0
 10
-22.613
 20
687.296
 11
-22.387
 21
687.296
  0
LINE
  8
0
 10
-22.387
 20
687.296
 11
-22.1627
 21
687.268
  0
LINE
  8
0
 10
-22.1627
 20
687.268
 11
-21.9438
 21
687.212
  0
LINE
  8
0
 10
-21.9438
 20
687.212
 11
-21.7336
 21
687.129
  0
LINE
  8
0
 10
-21.7336
 20
687.129
 11
-21.5355
 21
687.02
  0
LINE
  8
0
 10
-21.5355
 20
687.02
 11
-21.3526
 21
686.887
  0
LINE
  8
0
 10
-21.3526
 20
686.887
 11
-21.1879
 21
686.732
  0
LINE
  8
0
 10
-21.1879
 20
686.732
 11
-21.0438
 21
686.558
  0
LINE
  8
0
 10
-21.0438
 20
686.558
 11
-20.9226
 21
686.367
  0
LINE
  8
0
 10
-20.9226
 20
686.367
 11
-20.8264
 21
686.163
  0
LINE
  8
0
 10
-20.8264
 20
686.163
 11
-20.7565
 21
685.948
  0
LINE
  8
0
 10
-20.7565
 20
685.948
 11
-20.7142
 21
685.726
  0
LINE
  8
0
 10
-20.7142
 20
685.726
 11
-20.7
 21
685.5
  0
LINE
  8
0
 10
-20.7
 20
685.5
 11
-20.7142
 21
685.274
  0
LINE
  8
0
 10
-20.7142
 20
685.274
 11
-20.7565
 21
685.052
  0
LINE
  8
0
 10
-20.7565
 20
685.052
 11
-20.8264
 21
684.837
  0
LINE
  8
0
 10
-20.8264
 20
684.837
 11
-20.9226
 21
684.633
  0
LINE
  8
0
 10
-20.9226
 20
684.633
 11
-21.0438
 21
684.442
  0
LINE
  8
0
 10
-21.0438
 20
684.442
 11
-21.1879
 21
684.268
  0
LINE
  8
0
 10
-21.1879
 20
684.268
 11
-21.3526
 21
684.113
  0
LINE
  8
0
 10
-21.3526
 20
684.113
 11
-21.5355
 21
683.98
  0
LINE
  8
0
 10
-21.5355
 20
683.98
 11
-21.7336
 21
683.871
  0
LINE
  8
0
 10
-21.7336
 20
683.871
 11
-21.9438
 21
683.788
  0
LINE
  8
0
 10
-21.9438
 20
683.788
 11
-22.1627
 21
683.732
  0
LINE
  8
0
 10
-22.1627
 20
683.732
 11
-22.387
 21
683.704
  0
LINE
  8
0
 10
-22.387
 20
683.704
 11
-22.613
 21
683.704
  0
LINE
  8
0
 10
22.387
 20
683.704
 11
22.1627
 21
683.732
  0
LINE
  8
0
 10
22.1627
 20
683.732
 11
21.9438
 21
683.788
  0
LINE
  8
0
 10
21.9438
 20
683.788
 11
21.7336
 21
683.871
  0
LINE
  8
0
 10
21.7336
 20
683.871
 11
21.5355
 21
683.98
  0
LINE
  8
0
 10
21.5355
 20
683.98
 11
21.3526
 21
684.113
  0
LINE
  8
0
 10
21.3526
 20
684.113
 11
21.1879
 21
684.268
  0
LINE
  8
0
 10
21.1879
 20
684.268
 11
21.0438
 21
684.442
  0
LINE
  8
0
 10
21.0438
 20
684.442
 11
20.9226
 21
684.633
  0
LINE
  8
0
 10
20.9226
 20
684.633
 11
20.8264
 21
684.837
  0
LINE
  8
0
 10
20.8264
 20
684.837
 11
20.7565
 21
685.052
  0
LINE
  8
0
 10
20.7565
 20
685.052
 11
20.7142
 21
685.274
  0
LINE
  8
0
 10
20.7142
 20
685.274
 11
20.7
 21
685.5
  0
LINE
  8
0
 10
20.7
 20
685.5
 11
20.7142
 21
685.726
  0
LINE
  8
0
 10
20.7142
 20
685.726
 11
20.7565
 21
685.948
  0
LINE
  8
0
 10
20.7565
 20
685.948
 11
20.8264
 21
686.163
  0
LINE
  8
0
 10
20.8264
 20
686.163
 11
20.9226
 21
686.367
  0
LINE
  8
0
 10
20.9226
 20
686.367
 11
21.0438
 21
686.558
  0
LINE
  8
0
 10
21.0438
 20
686.558
 11
21.1879
 21
686.732
  0
LINE
  8
0
 10
21.1879
 20
686.732
 11
21.3526
 21
686.887
  0
LINE
  8
0
 10
21.3526
 20
686.887
 11
21.5355
 21
687.02
  0
LINE
  8
0
 10
21.5355
 20
687.02
 11
21.7336
 21
687.129
  0
LINE
  8
0
 10
21.7336
 20
687.129
 11
21.9438
 21
687.212
  0
LINE
  8
0
 10
21.9438
 20
687.212
 11
22.1627
 21
687.268
  0
LINE
  8
0
 10
22.1627
 20
687.268
 11
22.387
 21
687.296
  0
LINE
  8
0
 10
22.387
 20
687.296
 11
22.613
 21
687.296
  0
LINE
  8
0
 10
22.613
 20
687.296
 11
22.8373
 21
687.268
  0
LINE
  8
0
 10
22.8373
 20
687.268
 11
23.0562
 21
687.212
  0
LINE
  8
0
 10
23.0562
 20
687.212
 11
23.2664
 21
687.129
  0
LINE
  8
0
 10
23.2664
 20
687.129
 11
23.4645
 21
687.02
  0
LINE
  8
0
 10
23.4645
 20
687.02
 11
23.6474
 21
686.887
  0
LINE
  8
0
 10
23.6474
 20
686.887
 11
23.8121
 21
686.732
  0
LINE
  8
0
 10
23.8121
 20
686.732
 11
23.9562
 21
686.558
  0
LINE
  8
0
 10
23.9562
 20
686.558
 11
24.0773
 21
686.367
  0
LINE
  8
0
 10
24.0773
 20
686.367
 11
24.1736
 21
686.163
  0
LINE
  8
0
 10
24.1736
 20
686.163
 11
24.2434
 21
685.948
  0
LINE
  8
0
 10
24.2434
 20
685.948
 11
24.2858
 21
685.726
  0
LINE
  8
0
 10
24.2858
 20
685.726
 11
24.3
 21
685.5
  0
LINE
  8
0
 10
24.3
 20
685.5
 11
24.2858
 21
685.274
  0
LINE
  8
0
 10
24.2858
 20
685.274
 11
24.2434
 21
685.052
  0
LINE
  8
0
 10
24.2434
 20
685.052
 11
24.1736
 21
684.837
  0
LINE
  8
0
 10
24.1736
 20
684.837
 11
24.0773
 21
684.633
  0
LINE
  8
0
 10
24.0773
 20
684.633
 11
23.9562
 21
684.442
  0
LINE
  8
0
 10
23.9562
 20
684.442
 11
23.8121
 21
684.268
  0
LINE
  8
0
 10
23.8121
 20
684.268
 11
23.6474
 21
684.113
  0
LINE
  8
0
 10
23.6474
 20
684.113
 11
23.4645
 21
683.98
  0
LINE
  8
0
 10
23.4645
 20
683.98
 11
23.2664
 21
683.871
  0
LINE
  8
0
 10
23.2664
 20
683.871
 11
23.0562
 21
683.788
  0
LINE
  8
0
 10
23.0562
 20
683.788
 11
22.8373
 21
683.732
  0
LINE
  8
0
 10
22.8373
 20
683.732
 11
22.613
 21
683.704
  0
LINE
  8
0
 10
22.613
 20
683.704
 11
22.387
 21
683.704
  0
LINE
  8
0
 10
-22.613
 20
428.704
 11
-22.8373
 21
428.732
  0
LINE
  8
0
 10
-22.8373
 20
428.732
 11
-23.0562
 21
428.788
  0
LINE
  8
0
 10
-23.0562
 20
428.788
 11
-23.2664
 21
428.871
  0
LINE
  8
0
 10
-23.2664
 20
428.871
 11
-23.4645
 21
428.98
  0
LINE
  8
0
 10
-23.4645
 20
428.98
 11
-23.6474
 21
429.113
  0
LINE
  8
0
 10
-23.6474
 20
429.113
 11
-23.8121
 21
429.268
  0
LINE
  8
0
 10
-23.8121
 20
429.268
 11
-23.9562
 21
429.442
  0
LINE
  8
0
 10
-23.9562
 20
429.442
 11
-24.0773
 21
429.633
  0
LINE
  8
0
 10
-24.0773
 20
429.633
 11
-24.1736
 21
429.837
  0
LINE
  8
0
 10
-24.1736
 20
429.837
 11
-24.2434
 21
430.052
  0
LINE
  8
0
 10
-24.2434
 20
430.052
 11
-24.2858
 21
430.274
  0
LINE
  8
0
 10
-24.2858
 20
430.274
 11
-24.3
 21
430.5
  0
LINE
  8
0
 10
-24.3
 20
430.5
 11
-24.2858
 21
430.726
  0
LINE
  8
0
 10
-24.2858
 20
430.726
 11
-24.2434
 21
430.948
  0
LINE
  8
0
 10
-24.2434
 20
430.948
 11
-24.1736
 21
431.163
  0
LINE
  8
0
 10
-24.1736
 20
431.163
 11
-24.0773
 21
431.367
  0
LINE
  8
0
 10
-24.0773
 20
431.367
 11
-23.9562
 21
431.558
  0
LINE
  8
0
 10
-23.9562
 20
431.558
 11
-23.8121
 21
431.732
  0
LINE
  8
0
 10
-23.8121
 20
431.732
 11
-23.6474
 21
431.887
  0
LINE
  8
0
 10
-23.6474
 20
431.887
 11
-23.4645
 21
432.02
  0
LINE
  8
0
 10
-23.4645
 20
432.02
 11
-23.2664
 21
432.129
  0
LINE
  8
0
 10
-23.2664
 20
432.129
 11
-23.0562
 21
432.212
  0
LINE
  8
0
 10
-23.0562
 20
432.212
 11
-22.8373
 21
432.268
  0
LINE
  8
0
 10
-22.8373
 20
432.268
 11
-22.613
 21
432.296
  0
LINE
  8
0
 10
-22.613
 20
432.296
 11
-22.387
 21
432.296
  0
LINE
  8
0
 10
-22.387
 20
432.296
 11
-22.1627
 21
432.268
  0
LINE
  8
0
 10
-22.1627
 20
432.268
 11
-21.9438
 21
432.212
  0
LINE
  8
0
 10
-21.9438
 20
432.212
 11
-21.7336
 21
432.129
  0
LINE
  8
0
 10
-21.7336
 20
432.129
 11
-21.5355
 21
432.02
  0
LINE
  8
0
 10
-21.5355
 20
432.02
 11
-21.3526
 21
431.887
  0
LINE
  8
0
 10
-21.3526
 20
431.887
 11
-21.1879
 21
431.732
  0
LINE
  8
0
 10
-21.1879
 20
431.732
 11
-21.0438
 21
431.558
  0
LINE
  8
0
 10
-21.0438
 20
431.558
 11
-20.9226
 21
431.367
  0
LINE
  8
0
 10
-20.9226
 20
431.367
 11
-20.8264
 21
431.163
  0
LINE
  8
0
 10
-20.8264
 20
431.163
 11
-20.7565
 21
430.948
  0
LINE
  8
0
 10
-20.7565
 20
430.948
 11
-20.7142
 21
430.726
  0
LINE
  8
0
 10
-20.7142
 20
430.726
 11
-20.7
 21
430.5
  0
LINE
  8
0
 10
-20.7
 20
430.5
 11
-20.7142
 21
430.274
  0
LINE
  8
0
 10
-20.7142
 20
430.274
 11
-20.7565
 21
430.052
  0
LINE
  8
0
 10
-20.7565
 20
430.052
 11
-20.8264
 21
429.837
  0
LINE
  8
0
 10
-20.8264
 20
429.837
 11
-20.9226
 21
429.633
  0
LINE
  8
0
 10
-20.9226
 20
429.633
 11
-21.0438
 21
429.442
  0
LINE
  8
0
 10
-21.0438
 20
429.442
 11
-21.1879
 21
429.268
  0
LINE
  8
0
 10
-21.1879
 20
429.268
 11
-21.3526
 21
429.113
  0
LINE
  8
0
 10
-21.3526
 20
429.113
 11
-21.5355
 21
428.98
  0
LINE
  8
0
 10
-21.5355
 20
428.98
 11
-21.7336
 21
428.871
  0
LINE
  8
0
 10
-21.7336
 20
428.871
 11
-21.9438
 21
428.788
  0
LINE
  8
0
 10
-21.9438
 20
428.788
 11
-22.1627
 21
428.732
  0
LINE
  8
0
 10
-22.1627
 20
428.732
 11
-22.387
 21
428.704
  0
LINE
  8
0
 10
-22.387
 20
428.704
 11
-22.613
 21
428.704
  0
LINE
  8
0
 10
22.387
 20
428.704
 11
22.1627
 21
428.732
  0
LINE
  8
0
 10
22.1627
 20
428.732
 11
21.9438
 21
428.788
  0
LINE
  8
0
 10
21.9438
 20
428.788
 11
21.7336
 21
428.871
  0
LINE
  8
0
 10
21.7336
 20
428.871
 11
21.5355
 21
428.98
  0
LINE
  8
0
 10
21.5355
 20
428.98
 11
21.3526
 21
429.113
  0
LINE
  8
0
 10
21.3526
 20
429.113
 11
21.1879
 21
429.268
  0
LINE
  8
0
 10
21.1879
 20
429.268
 11
21.0438
 21
429.442
  0
LINE
  8
0
 10
21.0438
 20
429.442
 11
20.9226
 21
429.633
  0
LINE
  8
0
 10
20.9226
 20
429.633
 11
20.8264
 21
429.837
  0
LINE
  8
0
 10
20.8264
 20
429.837
 11
20.7565
 21
430.052
  0
LINE
  8
0
 10
20.7565
 20
430.052
 11
20.7142
 21
430.274
  0
LINE
  8
0
 10
20.7142
 20
430.274
 11
20.7
 21
430.5
  0
LINE
  8
0
 10
20.7
 20
430.5
 11
20.7142
 21
430.726
  0
LINE
  8
0
 10
20.7142
 20
430.726
 11
20.7565
 21
430.948
  0
LINE
  8
0
 10
20.7565
 20
430.948
 11
20.8264
 21
431.163
  0
LINE
  8
0
 10
20.8264
 20
431.163
 11
20.9226
 21
431.367
  0
LINE
  8
0
 10
20.9226
 20
431.367
 11
21.0438
 21
431.558
  0
LINE
  8
0
 10
21.0438
 20
431.558
 11
21.1879
 21
431.732
  0
LINE
  8
0
 10
21.1879
 20
431.732
 11
21.3526
 21
431.887
  0
LINE
  8
0
 10
21.3526
 20
431.887
 11
21.5355
 21
432.02
  0
LINE
  8
0
 10
21.5355
 20
432.02
 11
21.7336
 21
432.129
  0
LINE
  8
0
 10
21.7336
 20
432.129
 11
21.9438
 21
432.212
  0
LINE
  8
0
 10
21.9438
 20
432.212
 11
22.1627
 21
432.268
  0
LINE
  8
0
 10
22.1627
 20
432.268
 11
22.387
 21
432.296
  0
LINE
  8
0
 10
22.387
 20
432.296
 11
22.613
 21
432.296
  0
LINE
  8
0
 10
22.613
 20
432.296
 11
22.8373
 21
432.268
  0
LINE
  8
0
 10
22.8373
 20
432.268
 11
23.0562
 21
432.212
  0
LINE
  8
0
 10
23.0562
 20
432.212
 11
23.2664
 21
432.129
  0
LINE
  8
0
 10
23.2664
 20
432.129
 11
23.4645
 21
432.02
  0
LINE
  8
0
 10
23.4645
 20
432.02
 11
23.6474
 21
431.887
  0
LINE
  8
0
 10
23.6474
 20
431.887
 11
23.8121
 21
431.732
  0
LINE
  8
0
 10
23.8121
 20
431.732
 11
23.9562
 21
431.558
  0
LINE
  8
0
 10
23.9562
 20
431.558
 11
24.0773
 21
431.367
  0
LINE
  8
0
 10
24.0773
 20
431.367
 11
24.1736
 21
431.163
  0
LINE
  8
0
 10
24.1736
 20
431.163
 11
24.2434
 21
430.948
  0
LINE
  8
0
 10
24.2434
 20
430.948
 11
24.2858
 21
430.726
  0
LINE
  8
0
 10
24.2858
 20
430.726
 11
24.3
 21
430.5
  0
LINE
  8
0
 10
24.3
 20
430.5
 11
24.2858
 21
430.274
  0
LINE
  8
0
 10
24.2858
 20
430.274
 11
24.2434
 21
430.052
  0
LINE
  8
0
 10
24.2434
 20
430.052
 11
24.1736
 21
429.837
  0
LINE
  8
0
 10
24.1736
 20
429.837
 11
24.0773
 21
429.633
  0
LINE
  8
0
 10
24.0773
 20
429.633
 11
23.9562
 21
429.442
  0
LINE
  8
0
 10
23.9562
 20
429.442
 11
23.8121
 21
429.268
  0
LINE
  8
0
 10
23.8121
 20
429.268
 11
23.6474
 21
429.113
  0
LINE
  8
0
 10
23.6474
 20
429.113
 11
23.4645
 21
428.98
  0
LINE
  8
0
 10
23.4645
 20
428.98
 11
23.2664
 21
428.871
  0
LINE
  8
0
 10
23.2664
 20
428.871
 11
23.0562
 21
428.788
  0
LINE
  8
0
 10
23.0562
 20
428.788
 11
22.8373
 21
428.732
  0
LINE
  8
0
 10
22.8373
 20
428.732
 11
22.613
 21
428.704
  0
LINE
  8
0
 10
22.613
 20
428.704
 11
22.387
 21
428.704
  0
ENDSEC
  0
SECTION
  2
OBJECTS
  0
DICTIONARY
  0
ENDSEC
  0
EOF
