<?xml version="1.0" standalone="no"?>
<!DOCTYPE svg PUBLIC "-//W3C//DTD SVG 1.1//EN" "http://www.w3.org/Graphics/SVG/1.1/DTD/svg11.dtd">
<svg width="106mm" height="424mm" viewBox="-53 -788 106 424" xmlns="http://www.w3.org/2000/svg" version="1.1">
<title>OpenSCAD Model</title>
<path d="
M 48.4369,-652.589 L 49.0451,-652.745 L 49.6289,-652.976 L 50.1791,-653.278 L 50.6871,-653.647 L 51.1448,-654.077
 L 51.5451,-654.561 L 51.8815,-655.091 L 52.1489,-655.659 L 52.3429,-656.257 L 52.4606,-656.873 L 52.5,-657.5
 L 52.5,-782.5 L 52.4606,-783.127 L 52.3429,-783.743 L 52.1489,-784.341 L 51.8815,-784.909 L 51.5451,-785.439
 L 51.1448,-785.923 L 50.6871,-786.353 L 50.1791,-786.722 L 49.6289,-787.024 L 49.0451,-787.255 L 48.4369,-787.411
 L 47.8139,-787.49 L -47.8139,-787.49 L -48.4369,-787.411 L -49.0451,-787.255 L -49.6289,-787.024 L -50.1791,-786.722
 L -50.6871,-786.353 L -51.1448,-785.923 L -51.5451,-785.439 L -51.8815,-784.909 L -52.1489,-784.341 L -52.3429,-783.743
 L -52.4606,-783.127 L -52.5,-782.5 L -52.5,-657.5 L -52.4606,-656.873 L -52.3429,-656.257 L -52.1489,-655.659
 L -51.8815,-655.091 L -51.5451,-654.561 L -51.1448,-654.077 L -50.6871,-653.647 L -50.1791,-653.278 L -49.6289,-652.976
 L -49.0451,-652.745 L -48.4369,-652.589 L -47.8139,-652.51 L 47.8139,-652.51 z
M -47.2512,-654.008 L -47.7495,-654.071 L -48.2361,-654.196 L -48.7031,-654.381 L -49.1433,-654.623 L -49.5497,-654.918
 L -49.9159,-655.262 L -50.2361,-655.649 L -50.5052,-656.073 L -50.7191,-656.528 L -50.8743,-657.005 L -50.9685,-657.499
 L -51,-658 L -51,-782 L -50.9685,-782.501 L -50.8743,-782.995 L -50.7191,-783.472 L -50.5052,-783.927
 L -50.2361,-784.351 L -49.9159,-784.738 L -49.5497,-785.082 L -49.1433,-785.377 L -48.7031,-785.619 L -48.2361,-785.804
 L -47.7495,-785.929 L -47.2512,-785.992 L 47.2512,-785.992 L 47.7495,-785.929 L 48.2361,-785.804 L 48.7031,-785.619
 L 49.1433,-785.377 L 49.5497,-785.082 L 49.9159,-784.738 L 50.2361,-784.351 L 50.5052,-783.927 L 50.7191,-783.472
 L 50.8743,-782.995 L 50.9685,-782.501 L 51,-782 L 51,-658 L 50.9685,-657.499 L 50.8743,-657.005
 L 50.7191,-656.528 L 50.5052,-656.073 L 50.2361,-655.649 L 49.9159,-655.262 L 49.5497,-654.918 L 49.1433,-654.623
 L 48.7031,-654.381 L 48.2361,-654.196 L 47.7495,-654.071 L 47.2512,-654.008 z
M 48.4369,-508.589 L 49.0451,-508.745 L 49.6289,-508.976 L 50.1791,-509.278 L 50.6871,-509.647 L 51.1448,-510.077
 L 51.5451,-510.561 L 51.8815,-511.091 L 52.1489,-511.659 L 52.3429,-512.257 L 52.4606,-512.873 L 52.5,-513.5
 L 52.5,-638.5 L 52.4606,-639.127 L 52.3429,-639.743 L 52.1489,-640.341 L 51.8815,-640.909 L 51.5451,-641.439
 L 51.1448,-641.923 L 50.6871,-642.353 L 50.1791,-642.722 L 49.6289,-643.024 L 49.0451,-643.255 L 48.4369,-643.411
 L 47.8139,-643.49 L -47.8139,-643.49 L -48.4369,-643.411 L -49.0451,-643.255 L -49.6289,-643.024 L -50.1791,-642.722
 L -50.6871,-642.353 L -51.1448,-641.923 L -51.5451,-641.439 L -51.8815,-640.909 L -52.1489,-640.341 L -52.3429,-639.743
 L -52.4606,-639.127 L -52.5,-638.5 L -52.5,-513.5 L -52.4606,-512.873 L -52.3429,-512.257 L -52.1489,-511.659
 L -51.8815,-511.091 L -51.5451,-510.561 L -51.1448,-510.077 L -50.6871,-509.647 L -50.1791,-509.278 L -49.6289,-508.976
 L -49.0451,-508.745 L -48.4369,-508.589 L -47.8139,-508.51 L 47.8139,-508.51 z
M -47.1954,-510.893 L -47.5833,-510.942 L -47.9619,-511.039 L -48.3254,-511.183 L -48.668,-511.372 L -48.9842,-511.601
 L -49.2692,-511.869 L -49.5184,-512.17 L -49.7279,-512.5 L -49.8943,-512.854 L -50.0151,-513.226 L -50.0884,-513.61
 L -50.1129,-514 L -50.1129,-638 L -50.0884,-638.39 L -50.0151,-638.774 L -49.8943,-639.146 L -49.7279,-639.5
 L -49.5184,-639.83 L -49.2692,-640.131 L -48.9842,-640.399 L -48.668,-640.628 L -48.3254,-640.817 L -47.9619,-640.961
 L -47.5833,-641.058 L -47.1954,-641.107 L 47.1954,-641.107 L 47.5833,-641.058 L 47.9619,-640.961 L 48.3254,-640.817
 L 48.668,-640.628 L 48.9842,-640.399 L 49.2692,-640.131 L 49.5184,-639.83 L 49.7279,-639.5 L 49.8943,-639.146
 L 50.0151,-638.774 L 50.0884,-638.39 L 50.1129,-638 L 50.1129,-514 L 50.0884,-513.61 L 50.0151,-513.226
 L 49.8943,-512.854 L 49.7279,-512.5 L 49.5184,-512.17 L 49.2692,-511.869 L 48.9842,-511.601 L 48.668,-511.372
 L 48.3254,-511.183 L 47.9619,-511.039 L 47.5833,-510.942 L 47.1954,-510.893 z
M 48.4369,-364.589 L 49.0451,-364.745 L 49.6289,-364.976 L 50.1791,-365.278 L 50.6871,-365.647 L 51.1448,-366.077
 L 51.5451,-366.561 L 51.8815,-367.091 L 52.1489,-367.659 L 52.3429,-368.257 L 52.4606,-368.873 L 52.5,-369.5
 L 52.5,-494.5 L 52.4606,-495.127 L 52.3429,-495.743 L 52.1489,-496.341 L 51.8815,-496.909 L 51.5451,-497.439
 L 51.1448,-497.923 L 50.6871,-498.353 L 50.1791,-498.722 L 49.6289,-499.024 L 49.0451,-499.255 L 48.4369,-499.411
 L 47.8139,-499.49 L -47.8139,-499.49 L -48.4369,-499.411 L -49.0451,-499.255 L -49.6289,-499.024 L -50.1791,-498.722
 L -50.6871,-498.353 L -51.1448,-497.923 L -51.5451,-497.439 L -51.8815,-496.909 L -52.1489,-496.341 L -52.3429,-495.743
 L -52.4606,-495.127 L -52.5,-494.5 L -52.5,-369.5 L -52.4606,-368.873 L -52.3429,-368.257 L -52.1489,-367.659
 L -51.8815,-367.091 L -51.5451,-366.561 L -51.1448,-366.077 L -50.6871,-365.647 L -50.1791,-365.278 L -49.6289,-364.976
 L -49.0451,-364.745 L -48.4369,-364.589 L -47.8139,-364.51 L 47.8139,-364.51 z
M 44.8659,-489.869 L 44.5999,-489.903 L 44.3401,-489.969 L 44.0908,-490.068 L 43.8559,-490.197 L 43.6389,-490.355
 L 43.4434,-490.538 L 43.2725,-490.745 L 43.1288,-490.971 L 43.0146,-491.214 L 42.9318,-491.469 L 42.8815,-491.732
 L 42.8647,-492 L 42.8815,-492.268 L 42.9318,-492.531 L 43.0146,-492.786 L 43.1288,-493.029 L 43.2725,-493.255
 L 43.4434,-493.462 L 43.6389,-493.645 L 43.8559,-493.803 L 44.0908,-493.932 L 44.3401,-494.031 L 44.5999,-494.097
 L 44.8659,-494.131 L 45.1341,-494.131 L 45.4001,-494.097 L 45.6598,-494.031 L 45.9092,-493.932 L 46.1441,-493.803
 L 46.3611,-493.645 L 46.5565,-493.462 L 46.7275,-493.255 L 46.8712,-493.029 L 46.9853,-492.786 L 47.0682,-492.531
 L 47.1185,-492.268 L 47.1353,-492 L 47.1185,-491.732 L 47.0682,-491.469 L 46.9853,-491.214 L 46.8712,-490.971
 L 46.7275,-490.745 L 46.5565,-490.538 L 46.3611,-490.355 L 46.1441,-490.197 L 45.9092,-490.068 L 45.6598,-489.969
 L 45.4001,-489.903 L 45.1341,-489.869 z
M -45.1341,-489.869 L -45.4001,-489.903 L -45.6598,-489.969 L -45.9092,-490.068 L -46.1441,-490.197 L -46.3611,-490.355
 L -46.5565,-490.538 L -46.7275,-490.745 L -46.8712,-490.971 L -46.9853,-491.214 L -47.0682,-491.469 L -47.1185,-491.732
 L -47.1353,-492 L -47.1185,-492.268 L -47.0682,-492.531 L -46.9853,-492.786 L -46.8712,-493.029 L -46.7275,-493.255
 L -46.5565,-493.462 L -46.3611,-493.645 L -46.1441,-493.803 L -45.9092,-493.932 L -45.6598,-494.031 L -45.4001,-494.097
 L -45.1341,-494.131 L -44.8659,-494.131 L -44.5999,-494.097 L -44.3401,-494.031 L -44.0908,-493.932 L -43.8559,-493.803
 L -43.6389,-493.645 L -43.4434,-493.462 L -43.2725,-493.255 L -43.1288,-493.029 L -43.0146,-492.786 L -42.9318,-492.531
 L -42.8815,-492.268 L -42.8647,-492 L -42.8815,-491.732 L -42.9318,-491.469 L -43.0146,-491.214 L -43.1288,-490.971
 L -43.2725,-490.745 L -43.4434,-490.538 L -43.6389,-490.355 L -43.8559,-490.197 L -44.0908,-490.068 L -44.3401,-489.969
 L -44.5999,-489.903 L -44.8659,-489.869 z
M 44.8659,-369.869 L 44.5999,-369.903 L 44.3401,-369.969 L 44.0908,-370.068 L 43.8559,-370.197 L 43.6389,-370.355
 L 43.4434,-370.538 L 43.2725,-370.745 L 43.1288,-370.971 L 43.0146,-371.214 L 42.9318,-371.469 L 42.8815,-371.732
 L 42.8647,-372 L 42.8815,-372.268 L 42.9318,-372.531 L 43.0146,-372.786 L 43.1288,-373.029 L 43.2725,-373.255
 L 43.4434,-373.462 L 43.6389,-373.645 L 43.8559,-373.803 L 44.0908,-373.932 L 44.3401,-374.031 L 44.5999,-374.097
 L 44.8659,-374.131 L 45.1341,-374.131 L 45.4001,-374.097 L 45.6598,-374.031 L 45.9092,-373.932 L 46.1441,-373.803
 L 46.3611,-373.645 L 46.5565,-373.462 L 46.7275,-373.255 L 46.8712,-373.029 L 46.9853,-372.786 L 47.0682,-372.531
 L 47.1185,-372.268 L 47.1353,-372 L 47.1185,-371.732 L 47.0682,-371.469 L 46.9853,-371.214 L 46.8712,-370.971
 L 46.7275,-370.745 L 46.5565,-370.538 L 46.3611,-370.355 L 46.1441,-370.197 L 45.9092,-370.068 L 45.6598,-369.969
 L 45.4001,-369.903 L 45.1341,-369.869 z
M -45.1341,-369.869 L -45.4001,-369.903 L -45.6598,-369.969 L -45.9092,-370.068 L -46.1441,-370.197 L -46.3611,-370.355
 L -46.5565,-370.538 L -46.7275,-370.745 L -46.8712,-370.971 L -46.9853,-371.214 L -47.0682,-371.469 L -47.1185,-371.732
 L -47.1353,-372 L -47.1185,-372.268 L -47.0682,-372.531 L -46.9853,-372.786 L -46.8712,-373.029 L -46.7275,-373.255
 L -46.5565,-373.462 L -46.3611,-373.645 L -46.1441,-373.803 L -45.9092,-373.932 L -45.6598,-374.031 L -45.4001,-374.097
 L -45.1341,-374.131 L -44.8659,-374.131 L -44.5999,-374.097 L -44.3401,-374.031 L -44.0908,-373.932 L -43.8559,-373.803
 L -43.6389,-373.645 L -43.4434,-373.462 L -43.2725,-373.255 L -43.1288,-373.029 L -43.0146,-372.786 L -42.9318,-372.531
 L -42.8815,-372.268 L -42.8647,-372 L -42.8815,-371.732 L -42.9318,-371.469 L -43.0146,-371.214 L -43.1288,-370.971
 L -43.2725,-370.745 L -43.4434,-370.538 L -43.6389,-370.355 L -43.8559,-370.197 L -44.0908,-370.068 L -44.3401,-369.969
 L -44.5999,-369.903 L -44.8659,-369.869 z
" stroke="black" fill="lightgray" stroke-width="0.5"/>
</svg>
