<?xml version="1.0" standalone="no"?>
<!DOCTYPE svg PUBLIC "-//W3C//DTD SVG 1.1//EN" "http://www.w3.org/Graphics/SVG/1.1/DTD/svg11.dtd">
<svg width="120mm" height="424mm" viewBox="-60 -644 120 424" xmlns="http://www.w3.org/2000/svg" version="1.1">
<title>OpenSCAD Model</title>
<path d="
M 55.9369,-508.589 L 56.5451,-508.745 L 57.1289,-508.976 L 57.6791,-509.278 L 58.1871,-509.647 L 58.6448,-510.077
 L 59.0451,-510.561 L 59.3815,-511.091 L 59.6489,-511.659 L 59.8429,-512.257 L 59.9606,-512.873 L 60,-513.5
 L 60,-638.5 L 59.9606,-639.127 L 59.8429,-639.743 L 59.6489,-640.341 L 59.3815,-640.909 L 59.0451,-641.439
 L 58.6448,-641.923 L 58.1871,-642.353 L 57.6791,-642.722 L 57.1289,-643.024 L 56.5451,-643.255 L 55.9369,-643.411
 L 55.3139,-643.49 L -55.3139,-643.49 L -55.9369,-643.411 L -56.5451,-643.255 L -57.1289,-643.024 L -57.6791,-642.722
 L -58.1871,-642.353 L -58.6448,-641.923 L -59.0451,-641.439 L -59.3815,-640.909 L -59.6489,-640.341 L -59.8429,-639.743
 L -59.9606,-639.127 L -60,-638.5 L -60,-513.5 L -59.9606,-512.873 L -59.8429,-512.257 L -59.6489,-511.659
 L -59.3815,-511.091 L -59.0451,-510.561 L -58.6448,-510.077 L -58.1871,-509.647 L -57.6791,-509.278 L -57.1289,-508.976
 L -56.5451,-508.745 L -55.9369,-508.589 L -55.3139,-508.51 L 55.3139,-508.51 z
M -54.7432,-510.135 L -55.2256,-510.196 L -55.6967,-510.317 L -56.1489,-510.496 L -56.5751,-510.73 L -56.9685,-511.016
 L -57.323,-511.349 L -57.633,-511.724 L -57.8936,-512.134 L -58.1007,-512.574 L -58.251,-513.037 L -58.3421,-513.515
 L -58.3726,-514 L -58.3726,-638 L -58.3421,-638.485 L -58.251,-638.963 L -58.1007,-639.426 L -57.8936,-639.866
 L -57.633,-640.276 L -57.323,-640.651 L -56.9685,-640.984 L -56.5751,-641.27 L -56.1489,-641.504 L -55.6967,-641.683
 L -55.2256,-641.804 L -54.7432,-641.865 L 54.7432,-641.865 L 55.2256,-641.804 L 55.6967,-641.683 L 56.1489,-641.504
 L 56.5751,-641.27 L 56.9685,-640.984 L 57.323,-640.651 L 57.633,-640.276 L 57.8936,-639.866 L 58.1007,-639.426
 L 58.251,-638.963 L 58.3421,-638.485 L 58.3726,-638 L 58.3726,-514 L 58.3421,-513.515 L 58.251,-513.037
 L 58.1007,-512.574 L 57.8936,-512.134 L 57.633,-511.724 L 57.323,-511.349 L 56.9685,-511.016 L 56.5751,-510.73
 L 56.1489,-510.496 L 55.6967,-510.317 L 55.2256,-510.196 L 54.7432,-510.135 z
M 55.9369,-364.589 L 56.5451,-364.745 L 57.1289,-364.976 L 57.6791,-365.278 L 58.1871,-365.647 L 58.6448,-366.077
 L 59.0451,-366.561 L 59.3815,-367.091 L 59.6489,-367.659 L 59.8429,-368.257 L 59.9606,-368.873 L 60,-369.5
 L 60,-494.5 L 59.9606,-495.127 L 59.8429,-495.743 L 59.6489,-496.341 L 59.3815,-496.909 L 59.0451,-497.439
 L 58.6448,-497.923 L 58.1871,-498.353 L 57.6791,-498.722 L 57.1289,-499.024 L 56.5451,-499.255 L 55.9369,-499.411
 L 55.3139,-499.49 L -55.3139,-499.49 L -55.9369,-499.411 L -56.5451,-499.255 L -57.1289,-499.024 L -57.6791,-498.722
 L -58.1871,-498.353 L -58.6448,-497.923 L -59.0451,-497.439 L -59.3815,-496.909 L -59.6489,-496.341 L -59.8429,-495.743
 L -59.9606,-495.127 L -60,-494.5 L -60,-369.5 L -59.9606,-368.873 L -59.8429,-368.257 L -59.6489,-367.659
 L -59.3815,-367.091 L -59.0451,-366.561 L -58.6448,-366.077 L -58.1871,-365.647 L -57.6791,-365.278 L -57.1289,-364.976
 L -56.5451,-364.745 L -55.9369,-364.589 L -55.3139,-364.51 L 55.3139,-364.51 z
M -52.6507,-489.605 L -52.9497,-489.643 L -53.2416,-489.717 L -53.5219,-489.828 L -53.786,-489.974 L -54.0298,-490.151
 L -54.2495,-490.357 L -54.4416,-490.589 L -54.6031,-490.844 L -54.7315,-491.117 L -54.8246,-491.403 L -54.8811,-491.699
 L -54.9,-492 L -54.8811,-492.301 L -54.8246,-492.597 L -54.7315,-492.883 L -54.6031,-493.156 L -54.4416,-493.411
 L -54.2495,-493.643 L -54.0298,-493.849 L -53.786,-494.026 L -53.5219,-494.172 L -53.2416,-494.283 L -52.9497,-494.357
 L -52.6507,-494.395 L -52.3493,-494.395 L -52.0503,-494.357 L -51.7584,-494.283 L -51.4781,-494.172 L -51.214,-494.026
 L -50.9702,-493.849 L -50.7505,-493.643 L -50.5583,-493.411 L -50.3969,-493.156 L -50.2685,-492.883 L -50.1754,-492.597
 L -50.1189,-492.301 L -50.1,-492 L -50.1189,-491.699 L -50.1754,-491.403 L -50.2685,-491.117 L -50.3969,-490.844
 L -50.5583,-490.589 L -50.7505,-490.357 L -50.9702,-490.151 L -51.214,-489.974 L -51.4781,-489.828 L -51.7584,-489.717
 L -52.0503,-489.643 L -52.3493,-489.605 z
M 52.3493,-489.605 L 52.0503,-489.643 L 51.7584,-489.717 L 51.4781,-489.828 L 51.214,-489.974 L 50.9702,-490.151
 L 50.7505,-490.357 L 50.5583,-490.589 L 50.3969,-490.844 L 50.2685,-491.117 L 50.1754,-491.403 L 50.1189,-491.699
 L 50.1,-492 L 50.1189,-492.301 L 50.1754,-492.597 L 50.2685,-492.883 L 50.3969,-493.156 L 50.5583,-493.411
 L 50.7505,-493.643 L 50.9702,-493.849 L 51.214,-494.026 L 51.4781,-494.172 L 51.7584,-494.283 L 52.0503,-494.357
 L 52.3493,-494.395 L 52.6507,-494.395 L 52.9497,-494.357 L 53.2416,-494.283 L 53.5219,-494.172 L 53.786,-494.026
 L 54.0298,-493.849 L 54.2495,-493.643 L 54.4416,-493.411 L 54.6031,-493.156 L 54.7315,-492.883 L 54.8246,-492.597
 L 54.8811,-492.301 L 54.9,-492 L 54.8811,-491.699 L 54.8246,-491.403 L 54.7315,-491.117 L 54.6031,-490.844
 L 54.4416,-490.589 L 54.2495,-490.357 L 54.0298,-490.151 L 53.786,-489.974 L 53.5219,-489.828 L 53.2416,-489.717
 L 52.9497,-489.643 L 52.6507,-489.605 z
M 52.3493,-369.605 L 52.0503,-369.643 L 51.7584,-369.717 L 51.4781,-369.828 L 51.214,-369.974 L 50.9702,-370.151
 L 50.7505,-370.357 L 50.5583,-370.589 L 50.3969,-370.844 L 50.2685,-371.117 L 50.1754,-371.403 L 50.1189,-371.699
 L 50.1,-372 L 50.1189,-372.301 L 50.1754,-372.597 L 50.2685,-372.883 L 50.3969,-373.156 L 50.5583,-373.411
 L 50.7505,-373.643 L 50.9702,-373.849 L 51.214,-374.026 L 51.4781,-374.172 L 51.7584,-374.283 L 52.0503,-374.357
 L 52.3493,-374.395 L 52.6507,-374.395 L 52.9497,-374.357 L 53.2416,-374.283 L 53.5219,-374.172 L 53.786,-374.026
 L 54.0298,-373.849 L 54.2495,-373.643 L 54.4416,-373.411 L 54.6031,-373.156 L 54.7315,-372.883 L 54.8246,-372.597
 L 54.8811,-372.301 L 54.9,-372 L 54.8811,-371.699 L 54.8246,-371.403 L 54.7315,-371.117 L 54.6031,-370.844
 L 54.4416,-370.589 L 54.2495,-370.357 L 54.0298,-370.151 L 53.786,-369.974 L 53.5219,-369.828 L 53.2416,-369.717
 L 52.9497,-369.643 L 52.6507,-369.605 z
M -52.6507,-369.605 L -52.9497,-369.643 L -53.2416,-369.717 L -53.5219,-369.828 L -53.786,-369.974 L -54.0298,-370.151
 L -54.2495,-370.357 L -54.4416,-370.589 L -54.6031,-370.844 L -54.7315,-371.117 L -54.8246,-371.403 L -54.8811,-371.699
 L -54.9,-372 L -54.8811,-372.301 L -54.8246,-372.597 L -54.7315,-372.883 L -54.6031,-373.156 L -54.4416,-373.411
 L -54.2495,-373.643 L -54.0298,-373.849 L -53.786,-374.026 L -53.5219,-374.172 L -53.2416,-374.283 L -52.9497,-374.357
 L -52.6507,-374.395 L -52.3493,-374.395 L -52.0503,-374.357 L -51.7584,-374.283 L -51.4781,-374.172 L -51.214,-374.026
 L -50.9702,-373.849 L -50.7505,-373.643 L -50.5583,-373.411 L -50.3969,-373.156 L -50.2685,-372.883 L -50.1754,-372.597
 L -50.1189,-372.301 L -50.1,-372 L -50.1189,-371.699 L -50.1754,-371.403 L -50.2685,-371.117 L -50.3969,-370.844
 L -50.5583,-370.589 L -50.7505,-370.357 L -50.9702,-370.151 L -51.214,-369.974 L -51.4781,-369.828 L -51.7584,-369.717
 L -52.0503,-369.643 L -52.3493,-369.605 z
M 55.9369,-220.589 L 56.5451,-220.745 L 57.1289,-220.976 L 57.6791,-221.278 L 58.1871,-221.647 L 58.6448,-222.077
 L 59.0451,-222.561 L 59.3815,-223.091 L 59.6489,-223.659 L 59.8429,-224.257 L 59.9606,-224.873 L 60,-225.5
 L 60,-350.5 L 59.9606,-351.127 L 59.8429,-351.743 L 59.6489,-352.341 L 59.3815,-352.909 L 59.0451,-353.439
 L 58.6448,-353.923 L 58.1871,-354.353 L 57.6791,-354.722 L 57.1289,-355.024 L 56.5451,-355.255 L 55.9369,-355.411
 L 55.3139,-355.49 L -55.3139,-355.49 L -55.9369,-355.411 L -56.5451,-355.255 L -57.1289,-355.024 L -57.6791,-354.722
 L -58.1871,-354.353 L -58.6448,-353.923 L -59.0451,-353.439 L -59.3815,-352.909 L -59.6489,-352.341 L -59.8429,-351.743
 L -59.9606,-351.127 L -60,-350.5 L -60,-225.5 L -59.9606,-224.873 L -59.8429,-224.257 L -59.6489,-223.659
 L -59.3815,-223.091 L -59.0451,-222.561 L -58.6448,-222.077 L -58.1871,-221.647 L -57.6791,-221.278 L -57.1289,-220.976
 L -56.5451,-220.745 L -55.9369,-220.589 L -55.3139,-220.51 L 55.3139,-220.51 z
M 52.387,-346.204 L 52.1627,-346.232 L 51.9438,-346.288 L 51.7336,-346.371 L 51.5355,-346.48 L 51.3526,-346.613
 L 51.1879,-346.768 L 51.0438,-346.942 L 50.9226,-347.133 L 50.8264,-347.337 L 50.7565,-347.552 L 50.7142,-347.774
 L 50.7,-348 L 50.7142,-348.226 L 50.7565,-348.448 L 50.8264,-348.663 L 50.9226,-348.867 L 51.0438,-349.058
 L 51.1879,-349.232 L 51.3526,-349.387 L 51.5355,-349.52 L 51.7336,-349.629 L 51.9438,-349.712 L 52.1627,-349.768
 L 52.387,-349.796 L 52.613,-349.796 L 52.8373,-349.768 L 53.0562,-349.712 L 53.2664,-349.629 L 53.4645,-349.52
 L 53.6474,-349.387 L 53.8121,-349.232 L 53.9562,-349.058 L 54.0773,-348.867 L 54.1736,-348.663 L 54.2434,-348.448
 L 54.2858,-348.226 L 54.3,-348 L 54.2858,-347.774 L 54.2434,-347.552 L 54.1736,-347.337 L 54.0773,-347.133
 L 53.9562,-346.942 L 53.8121,-346.768 L 53.6474,-346.613 L 53.4645,-346.48 L 53.2664,-346.371 L 53.0562,-346.288
 L 52.8373,-346.232 L 52.613,-346.204 z
M -52.613,-346.204 L -52.8373,-346.232 L -53.0562,-346.288 L -53.2664,-346.371 L -53.4645,-346.48 L -53.6474,-346.613
 L -53.8121,-346.768 L -53.9562,-346.942 L -54.0773,-347.133 L -54.1736,-347.337 L -54.2434,-347.552 L -54.2858,-347.774
 L -54.3,-348 L -54.2858,-348.226 L -54.2434,-348.448 L -54.1736,-348.663 L -54.0773,-348.867 L -53.9562,-349.058
 L -53.8121,-349.232 L -53.6474,-349.387 L -53.4645,-349.52 L -53.2664,-349.629 L -53.0562,-349.712 L -52.8373,-349.768
 L -52.613,-349.796 L -52.387,-349.796 L -52.1627,-349.768 L -51.9438,-349.712 L -51.7336,-349.629 L -51.5355,-349.52
 L -51.3526,-349.387 L -51.1879,-349.232 L -51.0438,-349.058 L -50.9226,-348.867 L -50.8264,-348.663 L -50.7565,-348.448
 L -50.7142,-348.226 L -50.7,-348 L -50.7142,-347.774 L -50.7565,-347.552 L -50.8264,-347.337 L -50.9226,-347.133
 L -51.0438,-346.942 L -51.1879,-346.768 L -51.3526,-346.613 L -51.5355,-346.48 L -51.7336,-346.371 L -51.9438,-346.288
 L -52.1627,-346.232 L -52.387,-346.204 z
M -52.613,-226.204 L -52.8373,-226.232 L -53.0562,-226.288 L -53.2664,-226.371 L -53.4645,-226.48 L -53.6474,-226.613
 L -53.8121,-226.768 L -53.9562,-226.942 L -54.0773,-227.133 L -54.1736,-227.337 L -54.2434,-227.552 L -54.2858,-227.774
 L -54.3,-228 L -54.2858,-228.226 L -54.2434,-228.448 L -54.1736,-228.663 L -54.0773,-228.867 L -53.9562,-229.058
 L -53.8121,-229.232 L -53.6474,-229.387 L -53.4645,-229.52 L -53.2664,-229.629 L -53.0562,-229.712 L -52.8373,-229.768
 L -52.613,-229.796 L -52.387,-229.796 L -52.1627,-229.768 L -51.9438,-229.712 L -51.7336,-229.629 L -51.5355,-229.52
 L -51.3526,-229.387 L -51.1879,-229.232 L -51.0438,-229.058 L -50.9226,-228.867 L -50.8264,-228.663 L -50.7565,-228.448
 L -50.7142,-228.226 L -50.7,-228 L -50.7142,-227.774 L -50.7565,-227.552 L -50.8264,-227.337 L -50.9226,-227.133
 L -51.0438,-226.942 L -51.1879,-226.768 L -51.3526,-226.613 L -51.5355,-226.48 L -51.7336,-226.371 L -51.9438,-226.288
 L -52.1627,-226.232 L -52.387,-226.204 z
M 52.387,-226.204 L 52.1627,-226.232 L 51.9438,-226.288 L 51.7336,-226.371 L 51.5355,-226.48 L 51.3526,-226.613
 L 51.1879,-226.768 L 51.0438,-226.942 L 50.9226,-227.133 L 50.8264,-227.337 L 50.7565,-227.552 L 50.7142,-227.774
 L 50.7,-228 L 50.7142,-228.226 L 50.7565,-228.448 L 50.8264,-228.663 L 50.9226,-228.867 L 51.0438,-229.058
 L 51.1879,-229.232 L 51.3526,-229.387 L 51.5355,-229.52 L 51.7336,-229.629 L 51.9438,-229.712 L 52.1627,-229.768
 L 52.387,-229.796 L 52.613,-229.796 L 52.8373,-229.768 L 53.0562,-229.712 L 53.2664,-229.629 L 53.4645,-229.52
 L 53.6474,-229.387 L 53.8121,-229.232 L 53.9562,-229.058 L 54.0773,-228.867 L 54.1736,-228.663 L 54.2434,-228.448
 L 54.2858,-228.226 L 54.3,-228 L 54.2858,-227.774 L 54.2434,-227.552 L 54.1736,-227.337 L 54.0773,-227.133
 L 53.9562,-226.942 L 53.8121,-226.768 L 53.6474,-226.613 L 53.4645,-226.48 L 53.2664,-226.371 L 53.0562,-226.288
 L 52.8373,-226.232 L 52.613,-226.204 z
" stroke="black" fill="lightgray" stroke-width="0.5"/>
</svg>
