<?xml version="1.0" standalone="no"?>
<!DOCTYPE svg PUBLIC "-//W3C//DTD SVG 1.1//EN" "http://www.w3.org/Graphics/SVG/1.1/DTD/svg11.dtd">
<svg width="210mm" height="1168mm" viewBox="-105 -1907 210 1168" xmlns="http://www.w3.org/2000/svg" version="1.1">
<title>OpenSCAD Model</title>
<path d="
M 100.937,-1621.59 L 101.545,-1621.74 L 102.129,-1621.98 L 102.679,-1622.28 L 103.187,-1622.65 L 103.645,-1623.08
 L 104.045,-1623.56 L 104.382,-1624.09 L 104.649,-1624.66 L 104.843,-1625.26 L 104.961,-1625.87 L 105,-1626.5
 L 105,-1901.5 L 104.961,-1902.13 L 104.843,-1902.74 L 104.649,-1903.34 L 104.382,-1903.91 L 104.045,-1904.44
 L 103.645,-1904.92 L 103.187,-1905.35 L 102.679,-1905.72 L 102.129,-1906.02 L 101.545,-1906.26 L 100.937,-1906.41
 L 100.314,-1906.49 L -100.314,-1906.49 L -100.937,-1906.41 L -101.545,-1906.26 L -102.129,-1906.02 L -102.679,-1905.72
 L -103.187,-1905.35 L -103.645,-1904.92 L -104.045,-1904.44 L -104.382,-1903.91 L -104.649,-1903.34 L -104.843,-1902.74
 L -104.961,-1902.13 L -105,-1901.5 L -105,-1626.5 L -104.961,-1625.87 L -104.843,-1625.26 L -104.649,-1624.66
 L -104.382,-1624.09 L -104.045,-1623.56 L -103.645,-1623.08 L -103.187,-1622.65 L -102.679,-1622.28 L -102.129,-1621.98
 L -101.545,-1621.74 L -100.937,-1621.59 L -100.314,-1621.51 L 100.314,-1621.51 z
M -99.7512,-1623.01 L -100.25,-1623.07 L -100.736,-1623.2 L -101.203,-1623.38 L -101.643,-1623.62 L -102.05,-1623.92
 L -102.416,-1624.26 L -102.736,-1624.65 L -103.005,-1625.07 L -103.219,-1625.53 L -103.374,-1626.01 L -103.468,-1626.5
 L -103.5,-1627 L -103.5,-1901 L -103.468,-1901.5 L -103.374,-1901.99 L -103.219,-1902.47 L -103.005,-1902.93
 L -102.736,-1903.35 L -102.416,-1903.74 L -102.05,-1904.08 L -101.643,-1904.38 L -101.203,-1904.62 L -100.736,-1904.8
 L -100.25,-1904.93 L -99.7512,-1904.99 L 99.7512,-1904.99 L 100.25,-1904.93 L 100.736,-1904.8 L 101.203,-1904.62
 L 101.643,-1904.38 L 102.05,-1904.08 L 102.416,-1903.74 L 102.736,-1903.35 L 103.005,-1902.93 L 103.219,-1902.47
 L 103.374,-1901.99 L 103.468,-1901.5 L 103.5,-1901 L 103.5,-1627 L 103.468,-1626.5 L 103.374,-1626.01
 L 103.219,-1625.53 L 103.005,-1625.07 L 102.736,-1624.65 L 102.416,-1624.26 L 102.05,-1623.92 L 101.643,-1623.62
 L 101.203,-1623.38 L 100.736,-1623.2 L 100.25,-1623.07 L 99.7512,-1623.01 z
M 100.937,-1327.59 L 101.545,-1327.74 L 102.129,-1327.98 L 102.679,-1328.28 L 103.187,-1328.65 L 103.645,-1329.08
 L 104.045,-1329.56 L 104.382,-1330.09 L 104.649,-1330.66 L 104.843,-1331.26 L 104.961,-1331.87 L 105,-1332.5
 L 105,-1607.5 L 104.961,-1608.13 L 104.843,-1608.74 L 104.649,-1609.34 L 104.382,-1609.91 L 104.045,-1610.44
 L 103.645,-1610.92 L 103.187,-1611.35 L 102.679,-1611.72 L 102.129,-1612.02 L 101.545,-1612.26 L 100.937,-1612.41
 L 100.314,-1612.49 L -100.314,-1612.49 L -100.937,-1612.41 L -101.545,-1612.26 L -102.129,-1612.02 L -102.679,-1611.72
 L -103.187,-1611.35 L -103.645,-1610.92 L -104.045,-1610.44 L -104.382,-1609.91 L -104.649,-1609.34 L -104.843,-1608.74
 L -104.961,-1608.13 L -105,-1607.5 L -105,-1332.5 L -104.961,-1331.87 L -104.843,-1331.26 L -104.649,-1330.66
 L -104.382,-1330.09 L -104.045,-1329.56 L -103.645,-1329.08 L -103.187,-1328.65 L -102.679,-1328.28 L -102.129,-1327.98
 L -101.545,-1327.74 L -100.937,-1327.59 L -100.314,-1327.51 L 100.314,-1327.51 z
M -99.7432,-1329.14 L -100.226,-1329.2 L -100.697,-1329.32 L -101.149,-1329.5 L -101.575,-1329.73 L -101.969,-1330.02
 L -102.323,-1330.35 L -102.633,-1330.72 L -102.894,-1331.13 L -103.101,-1331.57 L -103.251,-1332.04 L -103.342,-1332.51
 L -103.373,-1333 L -103.373,-1607 L -103.342,-1607.49 L -103.251,-1607.96 L -103.101,-1608.43 L -102.894,-1608.87
 L -102.633,-1609.28 L -102.323,-1609.65 L -101.969,-1609.98 L -101.575,-1610.27 L -101.149,-1610.5 L -100.697,-1610.68
 L -100.226,-1610.8 L -99.7432,-1610.86 L 99.7432,-1610.86 L 100.226,-1610.8 L 100.697,-1610.68 L 101.149,-1610.5
 L 101.575,-1610.27 L 101.969,-1609.98 L 102.323,-1609.65 L 102.633,-1609.28 L 102.894,-1608.87 L 103.101,-1608.43
 L 103.251,-1607.96 L 103.342,-1607.49 L 103.373,-1607 L 103.373,-1333 L 103.342,-1332.51 L 103.251,-1332.04
 L 103.101,-1331.57 L 102.894,-1331.13 L 102.633,-1330.72 L 102.323,-1330.35 L 101.969,-1330.02 L 101.575,-1329.73
 L 101.149,-1329.5 L 100.697,-1329.32 L 100.226,-1329.2 L 99.7432,-1329.14 z
M 100.937,-1033.59 L 101.545,-1033.74 L 102.129,-1033.98 L 102.679,-1034.28 L 103.187,-1034.65 L 103.645,-1035.08
 L 104.045,-1035.56 L 104.382,-1036.09 L 104.649,-1036.66 L 104.843,-1037.26 L 104.961,-1037.87 L 105,-1038.5
 L 105,-1313.5 L 104.961,-1314.13 L 104.843,-1314.74 L 104.649,-1315.34 L 104.382,-1315.91 L 104.045,-1316.44
 L 103.645,-1316.92 L 103.187,-1317.35 L 102.679,-1317.72 L 102.129,-1318.02 L 101.545,-1318.26 L 100.937,-1318.41
 L 100.314,-1318.49 L -100.314,-1318.49 L -100.937,-1318.41 L -101.545,-1318.26 L -102.129,-1318.02 L -102.679,-1317.72
 L -103.187,-1317.35 L -103.645,-1316.92 L -104.045,-1316.44 L -104.382,-1315.91 L -104.649,-1315.34 L -104.843,-1314.74
 L -104.961,-1314.13 L -105,-1313.5 L -105,-1038.5 L -104.961,-1037.87 L -104.843,-1037.26 L -104.649,-1036.66
 L -104.382,-1036.09 L -104.045,-1035.56 L -103.645,-1035.08 L -103.187,-1034.65 L -102.679,-1034.28 L -102.129,-1033.98
 L -101.545,-1033.74 L -100.937,-1033.59 L -100.314,-1033.51 L 100.314,-1033.51 z
M -97.6507,-1308.6 L -97.9497,-1308.64 L -98.2416,-1308.72 L -98.5219,-1308.83 L -98.786,-1308.97 L -99.0298,-1309.15
 L -99.2495,-1309.36 L -99.4416,-1309.59 L -99.6031,-1309.84 L -99.7315,-1310.12 L -99.8246,-1310.4 L -99.8811,-1310.7
 L -99.9,-1311 L -99.8811,-1311.3 L -99.8246,-1311.6 L -99.7315,-1311.88 L -99.6031,-1312.16 L -99.4416,-1312.41
 L -99.2495,-1312.64 L -99.0298,-1312.85 L -98.786,-1313.03 L -98.5219,-1313.17 L -98.2416,-1313.28 L -97.9497,-1313.36
 L -97.6507,-1313.4 L -97.3493,-1313.4 L -97.0503,-1313.36 L -96.7584,-1313.28 L -96.4781,-1313.17 L -96.214,-1313.03
 L -95.9702,-1312.85 L -95.7505,-1312.64 L -95.5583,-1312.41 L -95.3969,-1312.16 L -95.2685,-1311.88 L -95.1754,-1311.6
 L -95.1189,-1311.3 L -95.1,-1311 L -95.1189,-1310.7 L -95.1754,-1310.4 L -95.2685,-1310.12 L -95.3969,-1309.84
 L -95.5583,-1309.59 L -95.7505,-1309.36 L -95.9702,-1309.15 L -96.214,-1308.97 L -96.4781,-1308.83 L -96.7584,-1308.72
 L -97.0503,-1308.64 L -97.3493,-1308.6 z
M 97.3493,-1308.6 L 97.0503,-1308.64 L 96.7584,-1308.72 L 96.4781,-1308.83 L 96.214,-1308.97 L 95.9702,-1309.15
 L 95.7505,-1309.36 L 95.5583,-1309.59 L 95.3969,-1309.84 L 95.2685,-1310.12 L 95.1754,-1310.4 L 95.1189,-1310.7
 L 95.1,-1311 L 95.1189,-1311.3 L 95.1754,-1311.6 L 95.2685,-1311.88 L 95.3969,-1312.16 L 95.5583,-1312.41
 L 95.7505,-1312.64 L 95.9702,-1312.85 L 96.214,-1313.03 L 96.4781,-1313.17 L 96.7584,-1313.28 L 97.0503,-1313.36
 L 97.3493,-1313.4 L 97.6507,-1313.4 L 97.9497,-1313.36 L 98.2416,-1313.28 L 98.5219,-1313.17 L 98.786,-1313.03
 L 99.0298,-1312.85 L 99.2495,-1312.64 L 99.4416,-1312.41 L 99.6031,-1312.16 L 99.7315,-1311.88 L 99.8246,-1311.6
 L 99.8811,-1311.3 L 99.9,-1311 L 99.8811,-1310.7 L 99.8246,-1310.4 L 99.7315,-1310.12 L 99.6031,-1309.84
 L 99.4416,-1309.59 L 99.2495,-1309.36 L 99.0298,-1309.15 L 98.786,-1308.97 L 98.5219,-1308.83 L 98.2416,-1308.72
 L 97.9497,-1308.64 L 97.6507,-1308.6 z
M 97.3493,-1038.6 L 97.0503,-1038.64 L 96.7584,-1038.72 L 96.4781,-1038.83 L 96.214,-1038.97 L 95.9702,-1039.15
 L 95.7505,-1039.36 L 95.5583,-1039.59 L 95.3969,-1039.84 L 95.2685,-1040.12 L 95.1754,-1040.4 L 95.1189,-1040.7
 L 95.1,-1041 L 95.1189,-1041.3 L 95.1754,-1041.6 L 95.2685,-1041.88 L 95.3969,-1042.16 L 95.5583,-1042.41
 L 95.7505,-1042.64 L 95.9702,-1042.85 L 96.214,-1043.03 L 96.4781,-1043.17 L 96.7584,-1043.28 L 97.0503,-1043.36
 L 97.3493,-1043.4 L 97.6507,-1043.4 L 97.9497,-1043.36 L 98.2416,-1043.28 L 98.5219,-1043.17 L 98.786,-1043.03
 L 99.0298,-1042.85 L 99.2495,-1042.64 L 99.4416,-1042.41 L 99.6031,-1042.16 L 99.7315,-1041.88 L 99.8246,-1041.6
 L 99.8811,-1041.3 L 99.9,-1041 L 99.8811,-1040.7 L 99.8246,-1040.4 L 99.7315,-1040.12 L 99.6031,-1039.84
 L 99.4416,-1039.59 L 99.2495,-1039.36 L 99.0298,-1039.15 L 98.786,-1038.97 L 98.5219,-1038.83 L 98.2416,-1038.72
 L 97.9497,-1038.64 L 97.6507,-1038.6 z
M -97.6507,-1038.6 L -97.9497,-1038.64 L -98.2416,-1038.72 L -98.5219,-1038.83 L -98.786,-1038.97 L -99.0298,-1039.15
 L -99.2495,-1039.36 L -99.4416,-1039.59 L -99.6031,-1039.84 L -99.7315,-1040.12 L -99.8246,-1040.4 L -99.8811,-1040.7
 L -99.9,-1041 L -99.8811,-1041.3 L -99.8246,-1041.6 L -99.7315,-1041.88 L -99.6031,-1042.16 L -99.4416,-1042.41
 L -99.2495,-1042.64 L -99.0298,-1042.85 L -98.786,-1043.03 L -98.5219,-1043.17 L -98.2416,-1043.28 L -97.9497,-1043.36
 L -97.6507,-1043.4 L -97.3493,-1043.4 L -97.0503,-1043.36 L -96.7584,-1043.28 L -96.4781,-1043.17 L -96.214,-1043.03
 L -95.9702,-1042.85 L -95.7505,-1042.64 L -95.5583,-1042.41 L -95.3969,-1042.16 L -95.2685,-1041.88 L -95.1754,-1041.6
 L -95.1189,-1041.3 L -95.1,-1041 L -95.1189,-1040.7 L -95.1754,-1040.4 L -95.2685,-1040.12 L -95.3969,-1039.84
 L -95.5583,-1039.59 L -95.7505,-1039.36 L -95.9702,-1039.15 L -96.214,-1038.97 L -96.4781,-1038.83 L -96.7584,-1038.72
 L -97.0503,-1038.64 L -97.3493,-1038.6 z
M 100.937,-739.589 L 101.545,-739.745 L 102.129,-739.976 L 102.679,-740.278 L 103.187,-740.647 L 103.645,-741.077
 L 104.045,-741.561 L 104.382,-742.091 L 104.649,-742.659 L 104.843,-743.257 L 104.961,-743.873 L 105,-744.5
 L 105,-1019.5 L 104.961,-1020.13 L 104.843,-1020.74 L 104.649,-1021.34 L 104.382,-1021.91 L 104.045,-1022.44
 L 103.645,-1022.92 L 103.187,-1023.35 L 102.679,-1023.72 L 102.129,-1024.02 L 101.545,-1024.26 L 100.937,-1024.41
 L 100.314,-1024.49 L -100.314,-1024.49 L -100.937,-1024.41 L -101.545,-1024.26 L -102.129,-1024.02 L -102.679,-1023.72
 L -103.187,-1023.35 L -103.645,-1022.92 L -104.045,-1022.44 L -104.382,-1021.91 L -104.649,-1021.34 L -104.843,-1020.74
 L -104.961,-1020.13 L -105,-1019.5 L -105,-744.5 L -104.961,-743.873 L -104.843,-743.257 L -104.649,-742.659
 L -104.382,-742.091 L -104.045,-741.561 L -103.645,-741.077 L -103.187,-740.647 L -102.679,-740.278 L -102.129,-739.976
 L -101.545,-739.745 L -100.937,-739.589 L -100.314,-739.51 L 100.314,-739.51 z
M 97.387,-1015.2 L 97.1627,-1015.23 L 96.9438,-1015.29 L 96.7336,-1015.37 L 96.5355,-1015.48 L 96.3526,-1015.61
 L 96.1879,-1015.77 L 96.0438,-1015.94 L 95.9226,-1016.13 L 95.8264,-1016.34 L 95.7565,-1016.55 L 95.7142,-1016.77
 L 95.7,-1017 L 95.7142,-1017.23 L 95.7565,-1017.45 L 95.8264,-1017.66 L 95.9226,-1017.87 L 96.0438,-1018.06
 L 96.1879,-1018.23 L 96.3526,-1018.39 L 96.5355,-1018.52 L 96.7336,-1018.63 L 96.9438,-1018.71 L 97.1627,-1018.77
 L 97.387,-1018.8 L 97.613,-1018.8 L 97.8373,-1018.77 L 98.0562,-1018.71 L 98.2664,-1018.63 L 98.4645,-1018.52
 L 98.6474,-1018.39 L 98.8121,-1018.23 L 98.9562,-1018.06 L 99.0773,-1017.87 L 99.1736,-1017.66 L 99.2434,-1017.45
 L 99.2858,-1017.23 L 99.3,-1017 L 99.2858,-1016.77 L 99.2434,-1016.55 L 99.1736,-1016.34 L 99.0773,-1016.13
 L 98.9562,-1015.94 L 98.8121,-1015.77 L 98.6474,-1015.61 L 98.4645,-1015.48 L 98.2664,-1015.37 L 98.0562,-1015.29
 L 97.8373,-1015.23 L 97.613,-1015.2 z
M -97.613,-1015.2 L -97.8373,-1015.23 L -98.0562,-1015.29 L -98.2664,-1015.37 L -98.4645,-1015.48 L -98.6474,-1015.61
 L -98.8121,-1015.77 L -98.9562,-1015.94 L -99.0773,-1016.13 L -99.1736,-1016.34 L -99.2434,-1016.55 L -99.2858,-1016.77
 L -99.3,-1017 L -99.2858,-1017.23 L -99.2434,-1017.45 L -99.1736,-1017.66 L -99.0773,-1017.87 L -98.9562,-1018.06
 L -98.8121,-1018.23 L -98.6474,-1018.39 L -98.4645,-1018.52 L -98.2664,-1018.63 L -98.0562,-1018.71 L -97.8373,-1018.77
 L -97.613,-1018.8 L -97.387,-1018.8 L -97.1627,-1018.77 L -96.9438,-1018.71 L -96.7336,-1018.63 L -96.5355,-1018.52
 L -96.3526,-1018.39 L -96.1879,-1018.23 L -96.0438,-1018.06 L -95.9226,-1017.87 L -95.8264,-1017.66 L -95.7565,-1017.45
 L -95.7142,-1017.23 L -95.7,-1017 L -95.7142,-1016.77 L -95.7565,-1016.55 L -95.8264,-1016.34 L -95.9226,-1016.13
 L -96.0438,-1015.94 L -96.1879,-1015.77 L -96.3526,-1015.61 L -96.5355,-1015.48 L -96.7336,-1015.37 L -96.9438,-1015.29
 L -97.1627,-1015.23 L -97.387,-1015.2 z
M -97.613,-745.204 L -97.8373,-745.232 L -98.0562,-745.288 L -98.2664,-745.371 L -98.4645,-745.48 L -98.6474,-745.613
 L -98.8121,-745.768 L -98.9562,-745.942 L -99.0773,-746.133 L -99.1736,-746.337 L -99.2434,-746.552 L -99.2858,-746.774
 L -99.3,-747 L -99.2858,-747.226 L -99.2434,-747.448 L -99.1736,-747.663 L -99.0773,-747.867 L -98.9562,-748.058
 L -98.8121,-748.232 L -98.6474,-748.387 L -98.4645,-748.52 L -98.2664,-748.629 L -98.0562,-748.712 L -97.8373,-748.768
 L -97.613,-748.796 L -97.387,-748.796 L -97.1627,-748.768 L -96.9438,-748.712 L -96.7336,-748.629 L -96.5355,-748.52
 L -96.3526,-748.387 L -96.1879,-748.232 L -96.0438,-748.058 L -95.9226,-747.867 L -95.8264,-747.663 L -95.7565,-747.448
 L -95.7142,-747.226 L -95.7,-747 L -95.7142,-746.774 L -95.7565,-746.552 L -95.8264,-746.337 L -95.9226,-746.133
 L -96.0438,-745.942 L -96.1879,-745.768 L -96.3526,-745.613 L -96.5355,-745.48 L -96.7336,-745.371 L -96.9438,-745.288
 L -97.1627,-745.232 L -97.387,-745.204 z
M 97.387,-745.204 L 97.1627,-745.232 L 96.9438,-745.288 L 96.7336,-745.371 L 96.5355,-745.48 L 96.3526,-745.613
 L 96.1879,-745.768 L 96.0438,-745.942 L 95.9226,-746.133 L 95.8264,-746.337 L 95.7565,-746.552 L 95.7142,-746.774
 L 95.7,-747 L 95.7142,-747.226 L 95.7565,-747.448 L 95.8264,-747.663 L 95.9226,-747.867 L 96.0438,-748.058
 L 96.1879,-748.232 L 96.3526,-748.387 L 96.5355,-748.52 L 96.7336,-748.629 L 96.9438,-748.712 L 97.1627,-748.768
 L 97.387,-748.796 L 97.613,-748.796 L 97.8373,-748.768 L 98.0562,-748.712 L 98.2664,-748.629 L 98.4645,-748.52
 L 98.6474,-748.387 L 98.8121,-748.232 L 98.9562,-748.058 L 99.0773,-747.867 L 99.1736,-747.663 L 99.2434,-747.448
 L 99.2858,-747.226 L 99.3,-747 L 99.2858,-746.774 L 99.2434,-746.552 L 99.1736,-746.337 L 99.0773,-746.133
 L 98.9562,-745.942 L 98.8121,-745.768 L 98.6474,-745.613 L 98.4645,-745.48 L 98.2664,-745.371 L 98.0562,-745.288
 L 97.8373,-745.232 L 97.613,-745.204 z
" stroke="black" fill="lightgray" stroke-width="0.5"/>
</svg>
