  0
SECTION
  2
BLOCKS
  0
ENDSEC
  0
SECTION
  2
ENTITIES
  0
LINE
  8
0
 10
48.4369
 20
378.089
 11
49.0451
 21
378.245
  0
LINE
  8
0
 10
49.0451
 20
378.245
 11
49.6289
 21
378.476
  0
LINE
  8
0
 10
49.6289
 20
378.476
 11
50.1791
 21
378.778
  0
LINE
  8
0
 10
50.1791
 20
378.778
 11
50.6871
 21
379.147
  0
LINE
  8
0
 10
50.6871
 20
379.147
 11
51.1448
 21
379.577
  0
LINE
  8
0
 10
51.1448
 20
379.577
 11
51.5451
 21
380.061
  0
LINE
  8
0
 10
51.5451
 20
380.061
 11
51.8815
 21
380.591
  0
LINE
  8
0
 10
51.8815
 20
380.591
 11
52.1489
 21
381.159
  0
LINE
  8
0
 10
52.1489
 20
381.159
 11
52.3429
 21
381.757
  0
LINE
  8
0
 10
52.3429
 20
381.757
 11
52.4606
 21
382.373
  0
LINE
  8
0
 10
52.4606
 20
382.373
 11
52.5
 21
383
  0
LINE
  8
0
 10
52.5
 20
383
 11
52.5
 21
613
  0
LINE
  8
0
 10
52.5
 20
613
 11
52.4606
 21
613.627
  0
LINE
  8
0
 10
52.4606
 20
613.627
 11
52.3429
 21
614.243
  0
LINE
  8
0
 10
52.3429
 20
614.243
 11
52.1489
 21
614.841
  0
LINE
  8
0
 10
52.1489
 20
614.841
 11
51.8815
 21
615.409
  0
LINE
  8
0
 10
51.8815
 20
615.409
 11
51.5451
 21
615.939
  0
LINE
  8
0
 10
51.5451
 20
615.939
 11
51.1448
 21
616.423
  0
LINE
  8
0
 10
51.1448
 20
616.423
 11
50.6871
 21
616.853
  0
LINE
  8
0
 10
50.6871
 20
616.853
 11
50.1791
 21
617.222
  0
LINE
  8
0
 10
50.1791
 20
617.222
 11
49.6289
 21
617.524
  0
LINE
  8
0
 10
49.6289
 20
617.524
 11
49.0451
 21
617.755
  0
LINE
  8
0
 10
49.0451
 20
617.755
 11
48.4369
 21
617.911
  0
LINE
  8
0
 10
48.4369
 20
617.911
 11
47.8139
 21
617.99
  0
LINE
  8
0
 10
47.8139
 20
617.99
 11
-47.8139
 21
617.99
  0
LINE
  8
0
 10
-47.8139
 20
617.99
 11
-48.4369
 21
617.911
  0
LINE
  8
0
 10
-48.4369
 20
617.911
 11
-49.0451
 21
617.755
  0
LINE
  8
0
 10
-49.0451
 20
617.755
 11
-49.6289
 21
617.524
  0
LINE
  8
0
 10
-49.6289
 20
617.524
 11
-50.1791
 21
617.222
  0
LINE
  8
0
 10
-50.1791
 20
617.222
 11
-50.6871
 21
616.853
  0
LINE
  8
0
 10
-50.6871
 20
616.853
 11
-51.1448
 21
616.423
  0
LINE
  8
0
 10
-51.1448
 20
616.423
 11
-51.5451
 21
615.939
  0
LINE
  8
0
 10
-51.5451
 20
615.939
 11
-51.8815
 21
615.409
  0
LINE
  8
0
 10
-51.8815
 20
615.409
 11
-52.1489
 21
614.841
  0
LINE
  8
0
 10
-52.1489
 20
614.841
 11
-52.3429
 21
614.243
  0
LINE
  8
0
 10
-52.3429
 20
614.243
 11
-52.4606
 21
613.627
  0
LINE
  8
0
 10
-52.4606
 20
613.627
 11
-52.5
 21
613
  0
LINE
  8
0
 10
-52.5
 20
613
 11
-52.5
 21
383
  0
LINE
  8
0
 10
-52.5
 20
383
 11
-52.4606
 21
382.373
  0
LINE
  8
0
 10
-52.4606
 20
382.373
 11
-52.3429
 21
381.757
  0
LINE
  8
0
 10
-52.3429
 20
381.757
 11
-52.1489
 21
381.159
  0
LINE
  8
0
 10
-52.1489
 20
381.159
 11
-51.8815
 21
380.591
  0
LINE
  8
0
 10
-51.8815
 20
380.591
 11
-51.5451
 21
380.061
  0
LINE
  8
0
 10
-51.5451
 20
380.061
 11
-51.1448
 21
379.577
  0
LINE
  8
0
 10
-51.1448
 20
379.577
 11
-50.6871
 21
379.147
  0
LINE
  8
0
 10
-50.6871
 20
379.147
 11
-50.1791
 21
378.778
  0
LINE
  8
0
 10
-50.1791
 20
378.778
 11
-49.6289
 21
378.476
  0
LINE
  8
0
 10
-49.6289
 20
378.476
 11
-49.0451
 21
378.245
  0
LINE
  8
0
 10
-49.0451
 20
378.245
 11
-48.4369
 21
378.089
  0
LINE
  8
0
 10
-48.4369
 20
378.089
 11
-47.8139
 21
378.01
  0
LINE
  8
0
 10
-47.8139
 20
378.01
 11
47.8139
 21
378.01
  0
LINE
  8
0
 10
47.8139
 20
378.01
 11
48.4369
 21
378.089
  0
LINE
  8
0
 10
44.8493
 20
608.105
 11
44.5503
 21
608.143
  0
LINE
  8
0
 10
44.5503
 20
608.143
 11
44.2584
 21
608.217
  0
LINE
  8
0
 10
44.2584
 20
608.217
 11
43.9781
 21
608.328
  0
LINE
  8
0
 10
43.9781
 20
608.328
 11
43.714
 21
608.474
  0
LINE
  8
0
 10
43.714
 20
608.474
 11
43.4702
 21
608.651
  0
LINE
  8
0
 10
43.4702
 20
608.651
 11
43.2505
 21
608.857
  0
LINE
  8
0
 10
43.2505
 20
608.857
 11
43.0583
 21
609.089
  0
LINE
  8
0
 10
43.0583
 20
609.089
 11
42.8969
 21
609.344
  0
LINE
  8
0
 10
42.8969
 20
609.344
 11
42.7685
 21
609.617
  0
LINE
  8
0
 10
42.7685
 20
609.617
 11
42.6754
 21
609.903
  0
LINE
  8
0
 10
42.6754
 20
609.903
 11
42.6189
 21
610.199
  0
LINE
  8
0
 10
42.6189
 20
610.199
 11
42.6
 21
610.5
  0
LINE
  8
0
 10
42.6
 20
610.5
 11
42.6189
 21
610.801
  0
LINE
  8
0
 10
42.6189
 20
610.801
 11
42.6754
 21
611.097
  0
LINE
  8
0
 10
42.6754
 20
611.097
 11
42.7685
 21
611.383
  0
LINE
  8
0
 10
42.7685
 20
611.383
 11
42.8969
 21
611.656
  0
LINE
  8
0
 10
42.8969
 20
611.656
 11
43.0583
 21
611.911
  0
LINE
  8
0
 10
43.0583
 20
611.911
 11
43.2505
 21
612.143
  0
LINE
  8
0
 10
43.2505
 20
612.143
 11
43.4702
 21
612.349
  0
LINE
  8
0
 10
43.4702
 20
612.349
 11
43.714
 21
612.526
  0
LINE
  8
0
 10
43.714
 20
612.526
 11
43.9781
 21
612.672
  0
LINE
  8
0
 10
43.9781
 20
612.672
 11
44.2584
 21
612.783
  0
LINE
  8
0
 10
44.2584
 20
612.783
 11
44.5503
 21
612.857
  0
LINE
  8
0
 10
44.5503
 20
612.857
 11
44.8493
 21
612.895
  0
LINE
  8
0
 10
44.8493
 20
612.895
 11
45.1507
 21
612.895
  0
LINE
  8
0
 10
45.1507
 20
612.895
 11
45.4497
 21
612.857
  0
LINE
  8
0
 10
45.4497
 20
612.857
 11
45.7416
 21
612.783
  0
LINE
  8
0
 10
45.7416
 20
612.783
 11
46.0219
 21
612.672
  0
LINE
  8
0
 10
46.0219
 20
612.672
 11
46.286
 21
612.526
  0
LINE
  8
0
 10
46.286
 20
612.526
 11
46.5298
 21
612.349
  0
LINE
  8
0
 10
46.5298
 20
612.349
 11
46.7495
 21
612.143
  0
LINE
  8
0
 10
46.7495
 20
612.143
 11
46.9416
 21
611.911
  0
LINE
  8
0
 10
46.9416
 20
611.911
 11
47.1031
 21
611.656
  0
LINE
  8
0
 10
47.1031
 20
611.656
 11
47.2315
 21
611.383
  0
LINE
  8
0
 10
47.2315
 20
611.383
 11
47.3246
 21
611.097
  0
LINE
  8
0
 10
47.3246
 20
611.097
 11
47.3811
 21
610.801
  0
LINE
  8
0
 10
47.3811
 20
610.801
 11
47.4
 21
610.5
  0
LINE
  8
0
 10
47.4
 20
610.5
 11
47.3811
 21
610.199
  0
LINE
  8
0
 10
47.3811
 20
610.199
 11
47.3246
 21
609.903
  0
LINE
  8
0
 10
47.3246
 20
609.903
 11
47.2315
 21
609.617
  0
LINE
  8
0
 10
47.2315
 20
609.617
 11
47.1031
 21
609.344
  0
LINE
  8
0
 10
47.1031
 20
609.344
 11
46.9416
 21
609.089
  0
LINE
  8
0
 10
46.9416
 20
609.089
 11
46.7495
 21
608.857
  0
LINE
  8
0
 10
46.7495
 20
608.857
 11
46.5298
 21
608.651
  0
LINE
  8
0
 10
46.5298
 20
608.651
 11
46.286
 21
608.474
  0
LINE
  8
0
 10
46.286
 20
608.474
 11
46.0219
 21
608.328
  0
LINE
  8
0
 10
46.0219
 20
608.328
 11
45.7416
 21
608.217
  0
LINE
  8
0
 10
45.7416
 20
608.217
 11
45.4497
 21
608.143
  0
LINE
  8
0
 10
45.4497
 20
608.143
 11
45.1507
 21
608.105
  0
LINE
  8
0
 10
45.1507
 20
608.105
 11
44.8493
 21
608.105
  0
LINE
  8
0
 10
-45.1507
 20
608.105
 11
-45.4497
 21
608.143
  0
LINE
  8
0
 10
-45.4497
 20
608.143
 11
-45.7416
 21
608.217
  0
LINE
  8
0
 10
-45.7416
 20
608.217
 11
-46.0219
 21
608.328
  0
LINE
  8
0
 10
-46.0219
 20
608.328
 11
-46.286
 21
608.474
  0
LINE
  8
0
 10
-46.286
 20
608.474
 11
-46.5298
 21
608.651
  0
LINE
  8
0
 10
-46.5298
 20
608.651
 11
-46.7495
 21
608.857
  0
LINE
  8
0
 10
-46.7495
 20
608.857
 11
-46.9416
 21
609.089
  0
LINE
  8
0
 10
-46.9416
 20
609.089
 11
-47.1031
 21
609.344
  0
LINE
  8
0
 10
-47.1031
 20
609.344
 11
-47.2315
 21
609.617
  0
LINE
  8
0
 10
-47.2315
 20
609.617
 11
-47.3246
 21
609.903
  0
LINE
  8
0
 10
-47.3246
 20
609.903
 11
-47.3811
 21
610.199
  0
LINE
  8
0
 10
-47.3811
 20
610.199
 11
-47.4
 21
610.5
  0
LINE
  8
0
 10
-47.4
 20
610.5
 11
-47.3811
 21
610.801
  0
LINE
  8
0
 10
-47.3811
 20
610.801
 11
-47.3246
 21
611.097
  0
LINE
  8
0
 10
-47.3246
 20
611.097
 11
-47.2315
 21
611.383
  0
LINE
  8
0
 10
-47.2315
 20
611.383
 11
-47.1031
 21
611.656
  0
LINE
  8
0
 10
-47.1031
 20
611.656
 11
-46.9416
 21
611.911
  0
LINE
  8
0
 10
-46.9416
 20
611.911
 11
-46.7495
 21
612.143
  0
LINE
  8
0
 10
-46.7495
 20
612.143
 11
-46.5298
 21
612.349
  0
LINE
  8
0
 10
-46.5298
 20
612.349
 11
-46.286
 21
612.526
  0
LINE
  8
0
 10
-46.286
 20
612.526
 11
-46.0219
 21
612.672
  0
LINE
  8
0
 10
-46.0219
 20
612.672
 11
-45.7416
 21
612.783
  0
LINE
  8
0
 10
-45.7416
 20
612.783
 11
-45.4497
 21
612.857
  0
LINE
  8
0
 10
-45.4497
 20
612.857
 11
-45.1507
 21
612.895
  0
LINE
  8
0
 10
-45.1507
 20
612.895
 11
-44.8493
 21
612.895
  0
LINE
  8
0
 10
-44.8493
 20
612.895
 11
-44.5503
 21
612.857
  0
LINE
  8
0
 10
-44.5503
 20
612.857
 11
-44.2584
 21
612.783
  0
LINE
  8
0
 10
-44.2584
 20
612.783
 11
-43.9781
 21
612.672
  0
LINE
  8
0
 10
-43.9781
 20
612.672
 11
-43.714
 21
612.526
  0
LINE
  8
0
 10
-43.714
 20
612.526
 11
-43.4702
 21
612.349
  0
LINE
  8
0
 10
-43.4702
 20
612.349
 11
-43.2505
 21
612.143
  0
LINE
  8
0
 10
-43.2505
 20
612.143
 11
-43.0583
 21
611.911
  0
LINE
  8
0
 10
-43.0583
 20
611.911
 11
-42.8969
 21
611.656
  0
LINE
  8
0
 10
-42.8969
 20
611.656
 11
-42.7685
 21
611.383
  0
LINE
  8
0
 10
-42.7685
 20
611.383
 11
-42.6754
 21
611.097
  0
LINE
  8
0
 10
-42.6754
 20
611.097
 11
-42.6189
 21
610.801
  0
LINE
  8
0
 10
-42.6189
 20
610.801
 11
-42.6
 21
610.5
  0
LINE
  8
0
 10
-42.6
 20
610.5
 11
-42.6189
 21
610.199
  0
LINE
  8
0
 10
-42.6189
 20
610.199
 11
-42.6754
 21
609.903
  0
LINE
  8
0
 10
-42.6754
 20
609.903
 11
-42.7685
 21
609.617
  0
LINE
  8
0
 10
-42.7685
 20
609.617
 11
-42.8969
 21
609.344
  0
LINE
  8
0
 10
-42.8969
 20
609.344
 11
-43.0583
 21
609.089
  0
LINE
  8
0
 10
-43.0583
 20
609.089
 11
-43.2505
 21
608.857
  0
LINE
  8
0
 10
-43.2505
 20
608.857
 11
-43.4702
 21
608.651
  0
LINE
  8
0
 10
-43.4702
 20
608.651
 11
-43.714
 21
608.474
  0
LINE
  8
0
 10
-43.714
 20
608.474
 11
-43.9781
 21
608.328
  0
LINE
  8
0
 10
-43.9781
 20
608.328
 11
-44.2584
 21
608.217
  0
LINE
  8
0
 10
-44.2584
 20
608.217
 11
-44.5503
 21
608.143
  0
LINE
  8
0
 10
-44.5503
 20
608.143
 11
-44.8493
 21
608.105
  0
LINE
  8
0
 10
-44.8493
 20
608.105
 11
-45.1507
 21
608.105
  0
LINE
  8
0
 10
44.8493
 20
383.105
 11
44.5503
 21
383.143
  0
LINE
  8
0
 10
44.5503
 20
383.143
 11
44.2584
 21
383.217
  0
LINE
  8
0
 10
44.2584
 20
383.217
 11
43.9781
 21
383.328
  0
LINE
  8
0
 10
43.9781
 20
383.328
 11
43.714
 21
383.474
  0
LINE
  8
0
 10
43.714
 20
383.474
 11
43.4702
 21
383.651
  0
LINE
  8
0
 10
43.4702
 20
383.651
 11
43.2505
 21
383.857
  0
LINE
  8
0
 10
43.2505
 20
383.857
 11
43.0583
 21
384.089
  0
LINE
  8
0
 10
43.0583
 20
384.089
 11
42.8969
 21
384.344
  0
LINE
  8
0
 10
42.8969
 20
384.344
 11
42.7685
 21
384.617
  0
LINE
  8
0
 10
42.7685
 20
384.617
 11
42.6754
 21
384.903
  0
LINE
  8
0
 10
42.6754
 20
384.903
 11
42.6189
 21
385.199
  0
LINE
  8
0
 10
42.6189
 20
385.199
 11
42.6
 21
385.5
  0
LINE
  8
0
 10
42.6
 20
385.5
 11
42.6189
 21
385.801
  0
LINE
  8
0
 10
42.6189
 20
385.801
 11
42.6754
 21
386.097
  0
LINE
  8
0
 10
42.6754
 20
386.097
 11
42.7685
 21
386.383
  0
LINE
  8
0
 10
42.7685
 20
386.383
 11
42.8969
 21
386.656
  0
LINE
  8
0
 10
42.8969
 20
386.656
 11
43.0583
 21
386.911
  0
LINE
  8
0
 10
43.0583
 20
386.911
 11
43.2505
 21
387.143
  0
LINE
  8
0
 10
43.2505
 20
387.143
 11
43.4702
 21
387.349
  0
LINE
  8
0
 10
43.4702
 20
387.349
 11
43.714
 21
387.526
  0
LINE
  8
0
 10
43.714
 20
387.526
 11
43.9781
 21
387.672
  0
LINE
  8
0
 10
43.9781
 20
387.672
 11
44.2584
 21
387.783
  0
LINE
  8
0
 10
44.2584
 20
387.783
 11
44.5503
 21
387.857
  0
LINE
  8
0
 10
44.5503
 20
387.857
 11
44.8493
 21
387.895
  0
LINE
  8
0
 10
44.8493
 20
387.895
 11
45.1507
 21
387.895
  0
LINE
  8
0
 10
45.1507
 20
387.895
 11
45.4497
 21
387.857
  0
LINE
  8
0
 10
45.4497
 20
387.857
 11
45.7416
 21
387.783
  0
LINE
  8
0
 10
45.7416
 20
387.783
 11
46.0219
 21
387.672
  0
LINE
  8
0
 10
46.0219
 20
387.672
 11
46.286
 21
387.526
  0
LINE
  8
0
 10
46.286
 20
387.526
 11
46.5298
 21
387.349
  0
LINE
  8
0
 10
46.5298
 20
387.349
 11
46.7495
 21
387.143
  0
LINE
  8
0
 10
46.7495
 20
387.143
 11
46.9416
 21
386.911
  0
LINE
  8
0
 10
46.9416
 20
386.911
 11
47.1031
 21
386.656
  0
LINE
  8
0
 10
47.1031
 20
386.656
 11
47.2315
 21
386.383
  0
LINE
  8
0
 10
47.2315
 20
386.383
 11
47.3246
 21
386.097
  0
LINE
  8
0
 10
47.3246
 20
386.097
 11
47.3811
 21
385.801
  0
LINE
  8
0
 10
47.3811
 20
385.801
 11
47.4
 21
385.5
  0
LINE
  8
0
 10
47.4
 20
385.5
 11
47.3811
 21
385.199
  0
LINE
  8
0
 10
47.3811
 20
385.199
 11
47.3246
 21
384.903
  0
LINE
  8
0
 10
47.3246
 20
384.903
 11
47.2315
 21
384.617
  0
LINE
  8
0
 10
47.2315
 20
384.617
 11
47.1031
 21
384.344
  0
LINE
  8
0
 10
47.1031
 20
384.344
 11
46.9416
 21
384.089
  0
LINE
  8
0
 10
46.9416
 20
384.089
 11
46.7495
 21
383.857
  0
LINE
  8
0
 10
46.7495
 20
383.857
 11
46.5298
 21
383.651
  0
LINE
  8
0
 10
46.5298
 20
383.651
 11
46.286
 21
383.474
  0
LINE
  8
0
 10
46.286
 20
383.474
 11
46.0219
 21
383.328
  0
LINE
  8
0
 10
46.0219
 20
383.328
 11
45.7416
 21
383.217
  0
LINE
  8
0
 10
45.7416
 20
383.217
 11
45.4497
 21
383.143
  0
LINE
  8
0
 10
45.4497
 20
383.143
 11
45.1507
 21
383.105
  0
LINE
  8
0
 10
45.1507
 20
383.105
 11
44.8493
 21
383.105
  0
LINE
  8
0
 10
-45.1507
 20
383.105
 11
-45.4497
 21
383.143
  0
LINE
  8
0
 10
-45.4497
 20
383.143
 11
-45.7416
 21
383.217
  0
LINE
  8
0
 10
-45.7416
 20
383.217
 11
-46.0219
 21
383.328
  0
LINE
  8
0
 10
-46.0219
 20
383.328
 11
-46.286
 21
383.474
  0
LINE
  8
0
 10
-46.286
 20
383.474
 11
-46.5298
 21
383.651
  0
LINE
  8
0
 10
-46.5298
 20
383.651
 11
-46.7495
 21
383.857
  0
LINE
  8
0
 10
-46.7495
 20
383.857
 11
-46.9416
 21
384.089
  0
LINE
  8
0
 10
-46.9416
 20
384.089
 11
-47.1031
 21
384.344
  0
LINE
  8
0
 10
-47.1031
 20
384.344
 11
-47.2315
 21
384.617
  0
LINE
  8
0
 10
-47.2315
 20
384.617
 11
-47.3246
 21
384.903
  0
LINE
  8
0
 10
-47.3246
 20
384.903
 11
-47.3811
 21
385.199
  0
LINE
  8
0
 10
-47.3811
 20
385.199
 11
-47.4
 21
385.5
  0
LINE
  8
0
 10
-47.4
 20
385.5
 11
-47.3811
 21
385.801
  0
LINE
  8
0
 10
-47.3811
 20
385.801
 11
-47.3246
 21
386.097
  0
LINE
  8
0
 10
-47.3246
 20
386.097
 11
-47.2315
 21
386.383
  0
LINE
  8
0
 10
-47.2315
 20
386.383
 11
-47.1031
 21
386.656
  0
LINE
  8
0
 10
-47.1031
 20
386.656
 11
-46.9416
 21
386.911
  0
LINE
  8
0
 10
-46.9416
 20
386.911
 11
-46.7495
 21
387.143
  0
LINE
  8
0
 10
-46.7495
 20
387.143
 11
-46.5298
 21
387.349
  0
LINE
  8
0
 10
-46.5298
 20
387.349
 11
-46.286
 21
387.526
  0
LINE
  8
0
 10
-46.286
 20
387.526
 11
-46.0219
 21
387.672
  0
LINE
  8
0
 10
-46.0219
 20
387.672
 11
-45.7416
 21
387.783
  0
LINE
  8
0
 10
-45.7416
 20
387.783
 11
-45.4497
 21
387.857
  0
LINE
  8
0
 10
-45.4497
 20
387.857
 11
-45.1507
 21
387.895
  0
LINE
  8
0
 10
-45.1507
 20
387.895
 11
-44.8493
 21
387.895
  0
LINE
  8
0
 10
-44.8493
 20
387.895
 11
-44.5503
 21
387.857
  0
LINE
  8
0
 10
-44.5503
 20
387.857
 11
-44.2584
 21
387.783
  0
LINE
  8
0
 10
-44.2584
 20
387.783
 11
-43.9781
 21
387.672
  0
LINE
  8
0
 10
-43.9781
 20
387.672
 11
-43.714
 21
387.526
  0
LINE
  8
0
 10
-43.714
 20
387.526
 11
-43.4702
 21
387.349
  0
LINE
  8
0
 10
-43.4702
 20
387.349
 11
-43.2505
 21
387.143
  0
LINE
  8
0
 10
-43.2505
 20
387.143
 11
-43.0583
 21
386.911
  0
LINE
  8
0
 10
-43.0583
 20
386.911
 11
-42.8969
 21
386.656
  0
LINE
  8
0
 10
-42.8969
 20
386.656
 11
-42.7685
 21
386.383
  0
LINE
  8
0
 10
-42.7685
 20
386.383
 11
-42.6754
 21
386.097
  0
LINE
  8
0
 10
-42.6754
 20
386.097
 11
-42.6189
 21
385.801
  0
LINE
  8
0
 10
-42.6189
 20
385.801
 11
-42.6
 21
385.5
  0
LINE
  8
0
 10
-42.6
 20
385.5
 11
-42.6189
 21
385.199
  0
LINE
  8
0
 10
-42.6189
 20
385.199
 11
-42.6754
 21
384.903
  0
LINE
  8
0
 10
-42.6754
 20
384.903
 11
-42.7685
 21
384.617
  0
LINE
  8
0
 10
-42.7685
 20
384.617
 11
-42.8969
 21
384.344
  0
LINE
  8
0
 10
-42.8969
 20
384.344
 11
-43.0583
 21
384.089
  0
LINE
  8
0
 10
-43.0583
 20
384.089
 11
-43.2505
 21
383.857
  0
LINE
  8
0
 10
-43.2505
 20
383.857
 11
-43.4702
 21
383.651
  0
LINE
  8
0
 10
-43.4702
 20
383.651
 11
-43.714
 21
383.474
  0
LINE
  8
0
 10
-43.714
 20
383.474
 11
-43.9781
 21
383.328
  0
LINE
  8
0
 10
-43.9781
 20
383.328
 11
-44.2584
 21
383.217
  0
LINE
  8
0
 10
-44.2584
 20
383.217
 11
-44.5503
 21
383.143
  0
LINE
  8
0
 10
-44.5503
 20
383.143
 11
-44.8493
 21
383.105
  0
LINE
  8
0
 10
-44.8493
 20
383.105
 11
-45.1507
 21
383.105
  0
LINE
  8
0
 10
48.4369
 20
129.089
 11
49.0451
 21
129.245
  0
LINE
  8
0
 10
49.0451
 20
129.245
 11
49.6289
 21
129.476
  0
LINE
  8
0
 10
49.6289
 20
129.476
 11
50.1791
 21
129.778
  0
LINE
  8
0
 10
50.1791
 20
129.778
 11
50.6871
 21
130.147
  0
LINE
  8
0
 10
50.6871
 20
130.147
 11
51.1448
 21
130.577
  0
LINE
  8
0
 10
51.1448
 20
130.577
 11
51.5451
 21
131.061
  0
LINE
  8
0
 10
51.5451
 20
131.061
 11
51.8815
 21
131.591
  0
LINE
  8
0
 10
51.8815
 20
131.591
 11
52.1489
 21
132.159
  0
LINE
  8
0
 10
52.1489
 20
132.159
 11
52.3429
 21
132.757
  0
LINE
  8
0
 10
52.3429
 20
132.757
 11
52.4606
 21
133.373
  0
LINE
  8
0
 10
52.4606
 20
133.373
 11
52.5
 21
134
  0
LINE
  8
0
 10
52.5
 20
134
 11
52.5
 21
364
  0
LINE
  8
0
 10
52.5
 20
364
 11
52.4606
 21
364.627
  0
LINE
  8
0
 10
52.4606
 20
364.627
 11
52.3429
 21
365.243
  0
LINE
  8
0
 10
52.3429
 20
365.243
 11
52.1489
 21
365.841
  0
LINE
  8
0
 10
52.1489
 20
365.841
 11
51.8815
 21
366.409
  0
LINE
  8
0
 10
51.8815
 20
366.409
 11
51.5451
 21
366.939
  0
LINE
  8
0
 10
51.5451
 20
366.939
 11
51.1448
 21
367.423
  0
LINE
  8
0
 10
51.1448
 20
367.423
 11
50.6871
 21
367.853
  0
LINE
  8
0
 10
50.6871
 20
367.853
 11
50.1791
 21
368.222
  0
LINE
  8
0
 10
50.1791
 20
368.222
 11
49.6289
 21
368.524
  0
LINE
  8
0
 10
49.6289
 20
368.524
 11
49.0451
 21
368.755
  0
LINE
  8
0
 10
49.0451
 20
368.755
 11
48.4369
 21
368.911
  0
LINE
  8
0
 10
48.4369
 20
368.911
 11
47.8139
 21
368.99
  0
LINE
  8
0
 10
47.8139
 20
368.99
 11
-47.8139
 21
368.99
  0
LINE
  8
0
 10
-47.8139
 20
368.99
 11
-48.4369
 21
368.911
  0
LINE
  8
0
 10
-48.4369
 20
368.911
 11
-49.0451
 21
368.755
  0
LINE
  8
0
 10
-49.0451
 20
368.755
 11
-49.6289
 21
368.524
  0
LINE
  8
0
 10
-49.6289
 20
368.524
 11
-50.1791
 21
368.222
  0
LINE
  8
0
 10
-50.1791
 20
368.222
 11
-50.6871
 21
367.853
  0
LINE
  8
0
 10
-50.6871
 20
367.853
 11
-51.1448
 21
367.423
  0
LINE
  8
0
 10
-51.1448
 20
367.423
 11
-51.5451
 21
366.939
  0
LINE
  8
0
 10
-51.5451
 20
366.939
 11
-51.8815
 21
366.409
  0
LINE
  8
0
 10
-51.8815
 20
366.409
 11
-52.1489
 21
365.841
  0
LINE
  8
0
 10
-52.1489
 20
365.841
 11
-52.3429
 21
365.243
  0
LINE
  8
0
 10
-52.3429
 20
365.243
 11
-52.4606
 21
364.627
  0
LINE
  8
0
 10
-52.4606
 20
364.627
 11
-52.5
 21
364
  0
LINE
  8
0
 10
-52.5
 20
364
 11
-52.5
 21
134
  0
LINE
  8
0
 10
-52.5
 20
134
 11
-52.4606
 21
133.373
  0
LINE
  8
0
 10
-52.4606
 20
133.373
 11
-52.3429
 21
132.757
  0
LINE
  8
0
 10
-52.3429
 20
132.757
 11
-52.1489
 21
132.159
  0
LINE
  8
0
 10
-52.1489
 20
132.159
 11
-51.8815
 21
131.591
  0
LINE
  8
0
 10
-51.8815
 20
131.591
 11
-51.5451
 21
131.061
  0
LINE
  8
0
 10
-51.5451
 20
131.061
 11
-51.1448
 21
130.577
  0
LINE
  8
0
 10
-51.1448
 20
130.577
 11
-50.6871
 21
130.147
  0
LINE
  8
0
 10
-50.6871
 20
130.147
 11
-50.1791
 21
129.778
  0
LINE
  8
0
 10
-50.1791
 20
129.778
 11
-49.6289
 21
129.476
  0
LINE
  8
0
 10
-49.6289
 20
129.476
 11
-49.0451
 21
129.245
  0
LINE
  8
0
 10
-49.0451
 20
129.245
 11
-48.4369
 21
129.089
  0
LINE
  8
0
 10
-48.4369
 20
129.089
 11
-47.8139
 21
129.01
  0
LINE
  8
0
 10
-47.8139
 20
129.01
 11
47.8139
 21
129.01
  0
LINE
  8
0
 10
47.8139
 20
129.01
 11
48.4369
 21
129.089
  0
LINE
  8
0
 10
-45.113
 20
359.704
 11
-45.3373
 21
359.732
  0
LINE
  8
0
 10
-45.3373
 20
359.732
 11
-45.5562
 21
359.788
  0
LINE
  8
0
 10
-45.5562
 20
359.788
 11
-45.7664
 21
359.871
  0
LINE
  8
0
 10
-45.7664
 20
359.871
 11
-45.9645
 21
359.98
  0
LINE
  8
0
 10
-45.9645
 20
359.98
 11
-46.1474
 21
360.113
  0
LINE
  8
0
 10
-46.1474
 20
360.113
 11
-46.3121
 21
360.268
  0
LINE
  8
0
 10
-46.3121
 20
360.268
 11
-46.4562
 21
360.442
  0
LINE
  8
0
 10
-46.4562
 20
360.442
 11
-46.5773
 21
360.633
  0
LINE
  8
0
 10
-46.5773
 20
360.633
 11
-46.6736
 21
360.837
  0
LINE
  8
0
 10
-46.6736
 20
360.837
 11
-46.7434
 21
361.052
  0
LINE
  8
0
 10
-46.7434
 20
361.052
 11
-46.7858
 21
361.274
  0
LINE
  8
0
 10
-46.7858
 20
361.274
 11
-46.8
 21
361.5
  0
LINE
  8
0
 10
-46.8
 20
361.5
 11
-46.7858
 21
361.726
  0
LINE
  8
0
 10
-46.7858
 20
361.726
 11
-46.7434
 21
361.948
  0
LINE
  8
0
 10
-46.7434
 20
361.948
 11
-46.6736
 21
362.163
  0
LINE
  8
0
 10
-46.6736
 20
362.163
 11
-46.5773
 21
362.367
  0
LINE
  8
0
 10
-46.5773
 20
362.367
 11
-46.4562
 21
362.558
  0
LINE
  8
0
 10
-46.4562
 20
362.558
 11
-46.3121
 21
362.732
  0
LINE
  8
0
 10
-46.3121
 20
362.732
 11
-46.1474
 21
362.887
  0
LINE
  8
0
 10
-46.1474
 20
362.887
 11
-45.9645
 21
363.02
  0
LINE
  8
0
 10
-45.9645
 20
363.02
 11
-45.7664
 21
363.129
  0
LINE
  8
0
 10
-45.7664
 20
363.129
 11
-45.5562
 21
363.212
  0
LINE
  8
0
 10
-45.5562
 20
363.212
 11
-45.3373
 21
363.268
  0
LINE
  8
0
 10
-45.3373
 20
363.268
 11
-45.113
 21
363.296
  0
LINE
  8
0
 10
-45.113
 20
363.296
 11
-44.887
 21
363.296
  0
LINE
  8
0
 10
-44.887
 20
363.296
 11
-44.6627
 21
363.268
  0
LINE
  8
0
 10
-44.6627
 20
363.268
 11
-44.4438
 21
363.212
  0
LINE
  8
0
 10
-44.4438
 20
363.212
 11
-44.2336
 21
363.129
  0
LINE
  8
0
 10
-44.2336
 20
363.129
 11
-44.0355
 21
363.02
  0
LINE
  8
0
 10
-44.0355
 20
363.02
 11
-43.8526
 21
362.887
  0
LINE
  8
0
 10
-43.8526
 20
362.887
 11
-43.6879
 21
362.732
  0
LINE
  8
0
 10
-43.6879
 20
362.732
 11
-43.5438
 21
362.558
  0
LINE
  8
0
 10
-43.5438
 20
362.558
 11
-43.4226
 21
362.367
  0
LINE
  8
0
 10
-43.4226
 20
362.367
 11
-43.3264
 21
362.163
  0
LINE
  8
0
 10
-43.3264
 20
362.163
 11
-43.2565
 21
361.948
  0
LINE
  8
0
 10
-43.2565
 20
361.948
 11
-43.2142
 21
361.726
  0
LINE
  8
0
 10
-43.2142
 20
361.726
 11
-43.2
 21
361.5
  0
LINE
  8
0
 10
-43.2
 20
361.5
 11
-43.2142
 21
361.274
  0
LINE
  8
0
 10
-43.2142
 20
361.274
 11
-43.2565
 21
361.052
  0
LINE
  8
0
 10
-43.2565
 20
361.052
 11
-43.3264
 21
360.837
  0
LINE
  8
0
 10
-43.3264
 20
360.837
 11
-43.4226
 21
360.633
  0
LINE
  8
0
 10
-43.4226
 20
360.633
 11
-43.5438
 21
360.442
  0
LINE
  8
0
 10
-43.5438
 20
360.442
 11
-43.6879
 21
360.268
  0
LINE
  8
0
 10
-43.6879
 20
360.268
 11
-43.8526
 21
360.113
  0
LINE
  8
0
 10
-43.8526
 20
360.113
 11
-44.0355
 21
359.98
  0
LINE
  8
0
 10
-44.0355
 20
359.98
 11
-44.2336
 21
359.871
  0
LINE
  8
0
 10
-44.2336
 20
359.871
 11
-44.4438
 21
359.788
  0
LINE
  8
0
 10
-44.4438
 20
359.788
 11
-44.6627
 21
359.732
  0
LINE
  8
0
 10
-44.6627
 20
359.732
 11
-44.887
 21
359.704
  0
LINE
  8
0
 10
-44.887
 20
359.704
 11
-45.113
 21
359.704
  0
LINE
  8
0
 10
44.887
 20
359.704
 11
44.6627
 21
359.732
  0
LINE
  8
0
 10
44.6627
 20
359.732
 11
44.4438
 21
359.788
  0
LINE
  8
0
 10
44.4438
 20
359.788
 11
44.2336
 21
359.871
  0
LINE
  8
0
 10
44.2336
 20
359.871
 11
44.0355
 21
359.98
  0
LINE
  8
0
 10
44.0355
 20
359.98
 11
43.8526
 21
360.113
  0
LINE
  8
0
 10
43.8526
 20
360.113
 11
43.6879
 21
360.268
  0
LINE
  8
0
 10
43.6879
 20
360.268
 11
43.5438
 21
360.442
  0
LINE
  8
0
 10
43.5438
 20
360.442
 11
43.4226
 21
360.633
  0
LINE
  8
0
 10
43.4226
 20
360.633
 11
43.3264
 21
360.837
  0
LINE
  8
0
 10
43.3264
 20
360.837
 11
43.2565
 21
361.052
  0
LINE
  8
0
 10
43.2565
 20
361.052
 11
43.2142
 21
361.274
  0
LINE
  8
0
 10
43.2142
 20
361.274
 11
43.2
 21
361.5
  0
LINE
  8
0
 10
43.2
 20
361.5
 11
43.2142
 21
361.726
  0
LINE
  8
0
 10
43.2142
 20
361.726
 11
43.2565
 21
361.948
  0
LINE
  8
0
 10
43.2565
 20
361.948
 11
43.3264
 21
362.163
  0
LINE
  8
0
 10
43.3264
 20
362.163
 11
43.4226
 21
362.367
  0
LINE
  8
0
 10
43.4226
 20
362.367
 11
43.5438
 21
362.558
  0
LINE
  8
0
 10
43.5438
 20
362.558
 11
43.6879
 21
362.732
  0
LINE
  8
0
 10
43.6879
 20
362.732
 11
43.8526
 21
362.887
  0
LINE
  8
0
 10
43.8526
 20
362.887
 11
44.0355
 21
363.02
  0
LINE
  8
0
 10
44.0355
 20
363.02
 11
44.2336
 21
363.129
  0
LINE
  8
0
 10
44.2336
 20
363.129
 11
44.4438
 21
363.212
  0
LINE
  8
0
 10
44.4438
 20
363.212
 11
44.6627
 21
363.268
  0
LINE
  8
0
 10
44.6627
 20
363.268
 11
44.887
 21
363.296
  0
LINE
  8
0
 10
44.887
 20
363.296
 11
45.113
 21
363.296
  0
LINE
  8
0
 10
45.113
 20
363.296
 11
45.3373
 21
363.268
  0
LINE
  8
0
 10
45.3373
 20
363.268
 11
45.5562
 21
363.212
  0
LINE
  8
0
 10
45.5562
 20
363.212
 11
45.7664
 21
363.129
  0
LINE
  8
0
 10
45.7664
 20
363.129
 11
45.9645
 21
363.02
  0
LINE
  8
0
 10
45.9645
 20
363.02
 11
46.1474
 21
362.887
  0
LINE
  8
0
 10
46.1474
 20
362.887
 11
46.3121
 21
362.732
  0
LINE
  8
0
 10
46.3121
 20
362.732
 11
46.4562
 21
362.558
  0
LINE
  8
0
 10
46.4562
 20
362.558
 11
46.5773
 21
362.367
  0
LINE
  8
0
 10
46.5773
 20
362.367
 11
46.6736
 21
362.163
  0
LINE
  8
0
 10
46.6736
 20
362.163
 11
46.7434
 21
361.948
  0
LINE
  8
0
 10
46.7434
 20
361.948
 11
46.7858
 21
361.726
  0
LINE
  8
0
 10
46.7858
 20
361.726
 11
46.8
 21
361.5
  0
LINE
  8
0
 10
46.8
 20
361.5
 11
46.7858
 21
361.274
  0
LINE
  8
0
 10
46.7858
 20
361.274
 11
46.7434
 21
361.052
  0
LINE
  8
0
 10
46.7434
 20
361.052
 11
46.6736
 21
360.837
  0
LINE
  8
0
 10
46.6736
 20
360.837
 11
46.5773
 21
360.633
  0
LINE
  8
0
 10
46.5773
 20
360.633
 11
46.4562
 21
360.442
  0
LINE
  8
0
 10
46.4562
 20
360.442
 11
46.3121
 21
360.268
  0
LINE
  8
0
 10
46.3121
 20
360.268
 11
46.1474
 21
360.113
  0
LINE
  8
0
 10
46.1474
 20
360.113
 11
45.9645
 21
359.98
  0
LINE
  8
0
 10
45.9645
 20
359.98
 11
45.7664
 21
359.871
  0
LINE
  8
0
 10
45.7664
 20
359.871
 11
45.5562
 21
359.788
  0
LINE
  8
0
 10
45.5562
 20
359.788
 11
45.3373
 21
359.732
  0
LINE
  8
0
 10
45.3373
 20
359.732
 11
45.113
 21
359.704
  0
LINE
  8
0
 10
45.113
 20
359.704
 11
44.887
 21
359.704
  0
LINE
  8
0
 10
-45.113
 20
134.704
 11
-45.3373
 21
134.732
  0
LINE
  8
0
 10
-45.3373
 20
134.732
 11
-45.5562
 21
134.788
  0
LINE
  8
0
 10
-45.5562
 20
134.788
 11
-45.7664
 21
134.871
  0
LINE
  8
0
 10
-45.7664
 20
134.871
 11
-45.9645
 21
134.98
  0
LINE
  8
0
 10
-45.9645
 20
134.98
 11
-46.1474
 21
135.113
  0
LINE
  8
0
 10
-46.1474
 20
135.113
 11
-46.3121
 21
135.268
  0
LINE
  8
0
 10
-46.3121
 20
135.268
 11
-46.4562
 21
135.442
  0
LINE
  8
0
 10
-46.4562
 20
135.442
 11
-46.5773
 21
135.633
  0
LINE
  8
0
 10
-46.5773
 20
135.633
 11
-46.6736
 21
135.837
  0
LINE
  8
0
 10
-46.6736
 20
135.837
 11
-46.7434
 21
136.052
  0
LINE
  8
0
 10
-46.7434
 20
136.052
 11
-46.7858
 21
136.274
  0
LINE
  8
0
 10
-46.7858
 20
136.274
 11
-46.8
 21
136.5
  0
LINE
  8
0
 10
-46.8
 20
136.5
 11
-46.7858
 21
136.726
  0
LINE
  8
0
 10
-46.7858
 20
136.726
 11
-46.7434
 21
136.948
  0
LINE
  8
0
 10
-46.7434
 20
136.948
 11
-46.6736
 21
137.163
  0
LINE
  8
0
 10
-46.6736
 20
137.163
 11
-46.5773
 21
137.367
  0
LINE
  8
0
 10
-46.5773
 20
137.367
 11
-46.4562
 21
137.558
  0
LINE
  8
0
 10
-46.4562
 20
137.558
 11
-46.3121
 21
137.732
  0
LINE
  8
0
 10
-46.3121
 20
137.732
 11
-46.1474
 21
137.887
  0
LINE
  8
0
 10
-46.1474
 20
137.887
 11
-45.9645
 21
138.02
  0
LINE
  8
0
 10
-45.9645
 20
138.02
 11
-45.7664
 21
138.129
  0
LINE
  8
0
 10
-45.7664
 20
138.129
 11
-45.5562
 21
138.212
  0
LINE
  8
0
 10
-45.5562
 20
138.212
 11
-45.3373
 21
138.268
  0
LINE
  8
0
 10
-45.3373
 20
138.268
 11
-45.113
 21
138.296
  0
LINE
  8
0
 10
-45.113
 20
138.296
 11
-44.887
 21
138.296
  0
LINE
  8
0
 10
-44.887
 20
138.296
 11
-44.6627
 21
138.268
  0
LINE
  8
0
 10
-44.6627
 20
138.268
 11
-44.4438
 21
138.212
  0
LINE
  8
0
 10
-44.4438
 20
138.212
 11
-44.2336
 21
138.129
  0
LINE
  8
0
 10
-44.2336
 20
138.129
 11
-44.0355
 21
138.02
  0
LINE
  8
0
 10
-44.0355
 20
138.02
 11
-43.8526
 21
137.887
  0
LINE
  8
0
 10
-43.8526
 20
137.887
 11
-43.6879
 21
137.732
  0
LINE
  8
0
 10
-43.6879
 20
137.732
 11
-43.5438
 21
137.558
  0
LINE
  8
0
 10
-43.5438
 20
137.558
 11
-43.4226
 21
137.367
  0
LINE
  8
0
 10
-43.4226
 20
137.367
 11
-43.3264
 21
137.163
  0
LINE
  8
0
 10
-43.3264
 20
137.163
 11
-43.2565
 21
136.948
  0
LINE
  8
0
 10
-43.2565
 20
136.948
 11
-43.2142
 21
136.726
  0
LINE
  8
0
 10
-43.2142
 20
136.726
 11
-43.2
 21
136.5
  0
LINE
  8
0
 10
-43.2
 20
136.5
 11
-43.2142
 21
136.274
  0
LINE
  8
0
 10
-43.2142
 20
136.274
 11
-43.2565
 21
136.052
  0
LINE
  8
0
 10
-43.2565
 20
136.052
 11
-43.3264
 21
135.837
  0
LINE
  8
0
 10
-43.3264
 20
135.837
 11
-43.4226
 21
135.633
  0
LINE
  8
0
 10
-43.4226
 20
135.633
 11
-43.5438
 21
135.442
  0
LINE
  8
0
 10
-43.5438
 20
135.442
 11
-43.6879
 21
135.268
  0
LINE
  8
0
 10
-43.6879
 20
135.268
 11
-43.8526
 21
135.113
  0
LINE
  8
0
 10
-43.8526
 20
135.113
 11
-44.0355
 21
134.98
  0
LINE
  8
0
 10
-44.0355
 20
134.98
 11
-44.2336
 21
134.871
  0
LINE
  8
0
 10
-44.2336
 20
134.871
 11
-44.4438
 21
134.788
  0
LINE
  8
0
 10
-44.4438
 20
134.788
 11
-44.6627
 21
134.732
  0
LINE
  8
0
 10
-44.6627
 20
134.732
 11
-44.887
 21
134.704
  0
LINE
  8
0
 10
-44.887
 20
134.704
 11
-45.113
 21
134.704
  0
LINE
  8
0
 10
44.887
 20
134.704
 11
44.6627
 21
134.732
  0
LINE
  8
0
 10
44.6627
 20
134.732
 11
44.4438
 21
134.788
  0
LINE
  8
0
 10
44.4438
 20
134.788
 11
44.2336
 21
134.871
  0
LINE
  8
0
 10
44.2336
 20
134.871
 11
44.0355
 21
134.98
  0
LINE
  8
0
 10
44.0355
 20
134.98
 11
43.8526
 21
135.113
  0
LINE
  8
0
 10
43.8526
 20
135.113
 11
43.6879
 21
135.268
  0
LINE
  8
0
 10
43.6879
 20
135.268
 11
43.5438
 21
135.442
  0
LINE
  8
0
 10
43.5438
 20
135.442
 11
43.4226
 21
135.633
  0
LINE
  8
0
 10
43.4226
 20
135.633
 11
43.3264
 21
135.837
  0
LINE
  8
0
 10
43.3264
 20
135.837
 11
43.2565
 21
136.052
  0
LINE
  8
0
 10
43.2565
 20
136.052
 11
43.2142
 21
136.274
  0
LINE
  8
0
 10
43.2142
 20
136.274
 11
43.2
 21
136.5
  0
LINE
  8
0
 10
43.2
 20
136.5
 11
43.2142
 21
136.726
  0
LINE
  8
0
 10
43.2142
 20
136.726
 11
43.2565
 21
136.948
  0
LINE
  8
0
 10
43.2565
 20
136.948
 11
43.3264
 21
137.163
  0
LINE
  8
0
 10
43.3264
 20
137.163
 11
43.4226
 21
137.367
  0
LINE
  8
0
 10
43.4226
 20
137.367
 11
43.5438
 21
137.558
  0
LINE
  8
0
 10
43.5438
 20
137.558
 11
43.6879
 21
137.732
  0
LINE
  8
0
 10
43.6879
 20
137.732
 11
43.8526
 21
137.887
  0
LINE
  8
0
 10
43.8526
 20
137.887
 11
44.0355
 21
138.02
  0
LINE
  8
0
 10
44.0355
 20
138.02
 11
44.2336
 21
138.129
  0
LINE
  8
0
 10
44.2336
 20
138.129
 11
44.4438
 21
138.212
  0
LINE
  8
0
 10
44.4438
 20
138.212
 11
44.6627
 21
138.268
  0
LINE
  8
0
 10
44.6627
 20
138.268
 11
44.887
 21
138.296
  0
LINE
  8
0
 10
44.887
 20
138.296
 11
45.113
 21
138.296
  0
LINE
  8
0
 10
45.113
 20
138.296
 11
45.3373
 21
138.268
  0
LINE
  8
0
 10
45.3373
 20
138.268
 11
45.5562
 21
138.212
  0
LINE
  8
0
 10
45.5562
 20
138.212
 11
45.7664
 21
138.129
  0
LINE
  8
0
 10
45.7664
 20
138.129
 11
45.9645
 21
138.02
  0
LINE
  8
0
 10
45.9645
 20
138.02
 11
46.1474
 21
137.887
  0
LINE
  8
0
 10
46.1474
 20
137.887
 11
46.3121
 21
137.732
  0
LINE
  8
0
 10
46.3121
 20
137.732
 11
46.4562
 21
137.558
  0
LINE
  8
0
 10
46.4562
 20
137.558
 11
46.5773
 21
137.367
  0
LINE
  8
0
 10
46.5773
 20
137.367
 11
46.6736
 21
137.163
  0
LINE
  8
0
 10
46.6736
 20
137.163
 11
46.7434
 21
136.948
  0
LINE
  8
0
 10
46.7434
 20
136.948
 11
46.7858
 21
136.726
  0
LINE
  8
0
 10
46.7858
 20
136.726
 11
46.8
 21
136.5
  0
LINE
  8
0
 10
46.8
 20
136.5
 11
46.7858
 21
136.274
  0
LINE
  8
0
 10
46.7858
 20
136.274
 11
46.7434
 21
136.052
  0
LINE
  8
0
 10
46.7434
 20
136.052
 11
46.6736
 21
135.837
  0
LINE
  8
0
 10
46.6736
 20
135.837
 11
46.5773
 21
135.633
  0
LINE
  8
0
 10
46.5773
 20
135.633
 11
46.4562
 21
135.442
  0
LINE
  8
0
 10
46.4562
 20
135.442
 11
46.3121
 21
135.268
  0
LINE
  8
0
 10
46.3121
 20
135.268
 11
46.1474
 21
135.113
  0
LINE
  8
0
 10
46.1474
 20
135.113
 11
45.9645
 21
134.98
  0
LINE
  8
0
 10
45.9645
 20
134.98
 11
45.7664
 21
134.871
  0
LINE
  8
0
 10
45.7664
 20
134.871
 11
45.5562
 21
134.788
  0
LINE
  8
0
 10
45.5562
 20
134.788
 11
45.3373
 21
134.732
  0
LINE
  8
0
 10
45.3373
 20
134.732
 11
45.113
 21
134.704
  0
LINE
  8
0
 10
45.113
 20
134.704
 11
44.887
 21
134.704
  0
ENDSEC
  0
SECTION
  2
OBJECTS
  0
DICTIONARY
  0
ENDSEC
  0
EOF
