  0
SECTION
  2
BLOCKS
  0
ENDSEC
  0
SECTION
  2
ENTITIES
  0
LINE
  8
0
 10
17.9369
 20
101.089
 11
18.5451
 21
101.245
  0
LINE
  8
0
 10
18.5451
 20
101.245
 11
19.1289
 21
101.476
  0
LINE
  8
0
 10
19.1289
 20
101.476
 11
19.6791
 21
101.778
  0
LINE
  8
0
 10
19.6791
 20
101.778
 11
20.1871
 21
102.147
  0
LINE
  8
0
 10
20.1871
 20
102.147
 11
20.6448
 21
102.577
  0
LINE
  8
0
 10
20.6448
 20
102.577
 11
21.0451
 21
103.061
  0
LINE
  8
0
 10
21.0451
 20
103.061
 11
21.3815
 21
103.591
  0
LINE
  8
0
 10
21.3815
 20
103.591
 11
21.6489
 21
104.159
  0
LINE
  8
0
 10
21.6489
 20
104.159
 11
21.8429
 21
104.757
  0
LINE
  8
0
 10
21.8429
 20
104.757
 11
21.9606
 21
105.373
  0
LINE
  8
0
 10
21.9606
 20
105.373
 11
22
 21
106
  0
LINE
  8
0
 10
22
 20
106
 11
22
 21
140
  0
LINE
  8
0
 10
22
 20
140
 11
21.9606
 21
140.627
  0
LINE
  8
0
 10
21.9606
 20
140.627
 11
21.8429
 21
141.243
  0
LINE
  8
0
 10
21.8429
 20
141.243
 11
21.6489
 21
141.841
  0
LINE
  8
0
 10
21.6489
 20
141.841
 11
21.3815
 21
142.409
  0
LINE
  8
0
 10
21.3815
 20
142.409
 11
21.0451
 21
142.939
  0
LINE
  8
0
 10
21.0451
 20
142.939
 11
20.6448
 21
143.423
  0
LINE
  8
0
 10
20.6448
 20
143.423
 11
20.1871
 21
143.853
  0
LINE
  8
0
 10
20.1871
 20
143.853
 11
19.6791
 21
144.222
  0
LINE
  8
0
 10
19.6791
 20
144.222
 11
19.1289
 21
144.524
  0
LINE
  8
0
 10
19.1289
 20
144.524
 11
18.5451
 21
144.755
  0
LINE
  8
0
 10
18.5451
 20
144.755
 11
17.9369
 21
144.911
  0
LINE
  8
0
 10
17.9369
 20
144.911
 11
17.3139
 21
144.99
  0
LINE
  8
0
 10
17.3139
 20
144.99
 11
12.686
 21
144.99
  0
LINE
  8
0
 10
12.686
 20
144.99
 11
12.0631
 21
144.911
  0
LINE
  8
0
 10
12.0631
 20
144.911
 11
11.4549
 21
144.755
  0
LINE
  8
0
 10
11.4549
 20
144.755
 11
10.8711
 21
144.524
  0
LINE
  8
0
 10
10.8711
 20
144.524
 11
10.3209
 21
144.222
  0
LINE
  8
0
 10
10.3209
 20
144.222
 11
9.81287
 21
143.853
  0
LINE
  8
0
 10
9.81287
 20
143.853
 11
9.35515
 21
143.423
  0
LINE
  8
0
 10
9.35515
 20
143.423
 11
8.95491
 21
142.939
  0
LINE
  8
0
 10
8.95491
 20
142.939
 11
8.61845
 21
142.409
  0
LINE
  8
0
 10
8.61845
 20
142.409
 11
8.3511
 21
141.841
  0
LINE
  8
0
 10
8.3511
 20
141.841
 11
8.15707
 21
141.243
  0
LINE
  8
0
 10
8.15707
 20
141.243
 11
8.03941
 21
140.627
  0
LINE
  8
0
 10
8.03941
 20
140.627
 11
8
 21
140
  0
LINE
  8
0
 10
8
 20
140
 11
8
 21
114.99
  0
LINE
  8
0
 10
8
 20
114.99
 11
-8
 21
114.99
  0
LINE
  8
0
 10
-8
 20
114.99
 11
-8
 21
140
  0
LINE
  8
0
 10
-8
 20
140
 11
-8.03941
 21
140.627
  0
LINE
  8
0
 10
-8.03941
 20
140.627
 11
-8.15707
 21
141.243
  0
LINE
  8
0
 10
-8.15707
 20
141.243
 11
-8.3511
 21
141.841
  0
LINE
  8
0
 10
-8.3511
 20
141.841
 11
-8.61845
 21
142.409
  0
LINE
  8
0
 10
-8.61845
 20
142.409
 11
-8.95491
 21
142.939
  0
LINE
  8
0
 10
-8.95491
 20
142.939
 11
-9.35515
 21
143.423
  0
LINE
  8
0
 10
-9.35515
 20
143.423
 11
-9.81287
 21
143.853
  0
LINE
  8
0
 10
-9.81287
 20
143.853
 11
-10.3209
 21
144.222
  0
LINE
  8
0
 10
-10.3209
 20
144.222
 11
-10.8711
 21
144.524
  0
LINE
  8
0
 10
-10.8711
 20
144.524
 11
-11.4549
 21
144.755
  0
LINE
  8
0
 10
-11.4549
 20
144.755
 11
-12.0631
 21
144.911
  0
LINE
  8
0
 10
-12.0631
 20
144.911
 11
-12.686
 21
144.99
  0
LINE
  8
0
 10
-12.686
 20
144.99
 11
-17.3139
 21
144.99
  0
LINE
  8
0
 10
-17.3139
 20
144.99
 11
-17.9369
 21
144.911
  0
LINE
  8
0
 10
-17.9369
 20
144.911
 11
-18.5451
 21
144.755
  0
LINE
  8
0
 10
-18.5451
 20
144.755
 11
-19.1289
 21
144.524
  0
LINE
  8
0
 10
-19.1289
 20
144.524
 11
-19.6791
 21
144.222
  0
LINE
  8
0
 10
-19.6791
 20
144.222
 11
-20.1871
 21
143.853
  0
LINE
  8
0
 10
-20.1871
 20
143.853
 11
-20.6448
 21
143.423
  0
LINE
  8
0
 10
-20.6448
 20
143.423
 11
-21.0451
 21
142.939
  0
LINE
  8
0
 10
-21.0451
 20
142.939
 11
-21.3815
 21
142.409
  0
LINE
  8
0
 10
-21.3815
 20
142.409
 11
-21.6489
 21
141.841
  0
LINE
  8
0
 10
-21.6489
 20
141.841
 11
-21.8429
 21
141.243
  0
LINE
  8
0
 10
-21.8429
 20
141.243
 11
-21.9606
 21
140.627
  0
LINE
  8
0
 10
-21.9606
 20
140.627
 11
-22
 21
140
  0
LINE
  8
0
 10
-22
 20
140
 11
-22
 21
106
  0
LINE
  8
0
 10
-22
 20
106
 11
-21.9606
 21
105.373
  0
LINE
  8
0
 10
-21.9606
 20
105.373
 11
-21.8429
 21
104.757
  0
LINE
  8
0
 10
-21.8429
 20
104.757
 11
-21.6489
 21
104.159
  0
LINE
  8
0
 10
-21.6489
 20
104.159
 11
-21.3815
 21
103.591
  0
LINE
  8
0
 10
-21.3815
 20
103.591
 11
-21.0451
 21
103.061
  0
LINE
  8
0
 10
-21.0451
 20
103.061
 11
-20.6448
 21
102.577
  0
LINE
  8
0
 10
-20.6448
 20
102.577
 11
-20.1871
 21
102.147
  0
LINE
  8
0
 10
-20.1871
 20
102.147
 11
-19.6791
 21
101.778
  0
LINE
  8
0
 10
-19.6791
 20
101.778
 11
-19.1289
 21
101.476
  0
LINE
  8
0
 10
-19.1289
 20
101.476
 11
-18.5451
 21
101.245
  0
LINE
  8
0
 10
-18.5451
 20
101.245
 11
-17.9369
 21
101.089
  0
LINE
  8
0
 10
-17.9369
 20
101.089
 11
-17.3139
 21
101.01
  0
LINE
  8
0
 10
-17.3139
 20
101.01
 11
17.3139
 21
101.01
  0
LINE
  8
0
 10
17.3139
 20
101.01
 11
17.9369
 21
101.089
  0
LINE
  8
0
 10
14.8116
 20
135.006
 11
14.4379
 21
135.053
  0
LINE
  8
0
 10
14.4379
 20
135.053
 11
14.0729
 21
135.147
  0
LINE
  8
0
 10
14.0729
 20
135.147
 11
13.7227
 21
135.286
  0
LINE
  8
0
 10
13.7227
 20
135.286
 11
13.3925
 21
135.467
  0
LINE
  8
0
 10
13.3925
 20
135.467
 11
13.0877
 21
135.688
  0
LINE
  8
0
 10
13.0877
 20
135.688
 11
12.8131
 21
135.946
  0
LINE
  8
0
 10
12.8131
 20
135.946
 11
12.5729
 21
136.237
  0
LINE
  8
0
 10
12.5729
 20
136.237
 11
12.3711
 21
136.555
  0
LINE
  8
0
 10
12.3711
 20
136.555
 11
12.2107
 21
136.896
  0
LINE
  8
0
 10
12.2107
 20
136.896
 11
12.0942
 21
137.254
  0
LINE
  8
0
 10
12.0942
 20
137.254
 11
12.0237
 21
137.624
  0
LINE
  8
0
 10
12.0237
 20
137.624
 11
12
 21
138
  0
LINE
  8
0
 10
12
 20
138
 11
12.0237
 21
138.376
  0
LINE
  8
0
 10
12.0237
 20
138.376
 11
12.0942
 21
138.746
  0
LINE
  8
0
 10
12.0942
 20
138.746
 11
12.2107
 21
139.104
  0
LINE
  8
0
 10
12.2107
 20
139.104
 11
12.3711
 21
139.445
  0
LINE
  8
0
 10
12.3711
 20
139.445
 11
12.5729
 21
139.763
  0
LINE
  8
0
 10
12.5729
 20
139.763
 11
12.8131
 21
140.054
  0
LINE
  8
0
 10
12.8131
 20
140.054
 11
13.0877
 21
140.312
  0
LINE
  8
0
 10
13.0877
 20
140.312
 11
13.3925
 21
140.533
  0
LINE
  8
0
 10
13.3925
 20
140.533
 11
13.7227
 21
140.714
  0
LINE
  8
0
 10
13.7227
 20
140.714
 11
14.0729
 21
140.853
  0
LINE
  8
0
 10
14.0729
 20
140.853
 11
14.4379
 21
140.947
  0
LINE
  8
0
 10
14.4379
 20
140.947
 11
14.8116
 21
140.994
  0
LINE
  8
0
 10
14.8116
 20
140.994
 11
15.1884
 21
140.994
  0
LINE
  8
0
 10
15.1884
 20
140.994
 11
15.5621
 21
140.947
  0
LINE
  8
0
 10
15.5621
 20
140.947
 11
15.927
 21
140.853
  0
LINE
  8
0
 10
15.927
 20
140.853
 11
16.2773
 21
140.714
  0
LINE
  8
0
 10
16.2773
 20
140.714
 11
16.6075
 21
140.533
  0
LINE
  8
0
 10
16.6075
 20
140.533
 11
16.9123
 21
140.312
  0
LINE
  8
0
 10
16.9123
 20
140.312
 11
17.1869
 21
140.054
  0
LINE
  8
0
 10
17.1869
 20
140.054
 11
17.427
 21
139.763
  0
LINE
  8
0
 10
17.427
 20
139.763
 11
17.6289
 21
139.445
  0
LINE
  8
0
 10
17.6289
 20
139.445
 11
17.7893
 21
139.104
  0
LINE
  8
0
 10
17.7893
 20
139.104
 11
17.9057
 21
138.746
  0
LINE
  8
0
 10
17.9057
 20
138.746
 11
17.9763
 21
138.376
  0
LINE
  8
0
 10
17.9763
 20
138.376
 11
18
 21
138
  0
LINE
  8
0
 10
18
 20
138
 11
17.9763
 21
137.624
  0
LINE
  8
0
 10
17.9763
 20
137.624
 11
17.9057
 21
137.254
  0
LINE
  8
0
 10
17.9057
 20
137.254
 11
17.7893
 21
136.896
  0
LINE
  8
0
 10
17.7893
 20
136.896
 11
17.6289
 21
136.555
  0
LINE
  8
0
 10
17.6289
 20
136.555
 11
17.427
 21
136.237
  0
LINE
  8
0
 10
17.427
 20
136.237
 11
17.1869
 21
135.946
  0
LINE
  8
0
 10
17.1869
 20
135.946
 11
16.9123
 21
135.688
  0
LINE
  8
0
 10
16.9123
 20
135.688
 11
16.6075
 21
135.467
  0
LINE
  8
0
 10
16.6075
 20
135.467
 11
16.2773
 21
135.286
  0
LINE
  8
0
 10
16.2773
 20
135.286
 11
15.927
 21
135.147
  0
LINE
  8
0
 10
15.927
 20
135.147
 11
15.5621
 21
135.053
  0
LINE
  8
0
 10
15.5621
 20
135.053
 11
15.1884
 21
135.006
  0
LINE
  8
0
 10
15.1884
 20
135.006
 11
14.8116
 21
135.006
  0
LINE
  8
0
 10
-15.1884
 20
135.006
 11
-15.5621
 21
135.053
  0
LINE
  8
0
 10
-15.5621
 20
135.053
 11
-15.927
 21
135.147
  0
LINE
  8
0
 10
-15.927
 20
135.147
 11
-16.2773
 21
135.286
  0
LINE
  8
0
 10
-16.2773
 20
135.286
 11
-16.6075
 21
135.467
  0
LINE
  8
0
 10
-16.6075
 20
135.467
 11
-16.9123
 21
135.688
  0
LINE
  8
0
 10
-16.9123
 20
135.688
 11
-17.1869
 21
135.946
  0
LINE
  8
0
 10
-17.1869
 20
135.946
 11
-17.427
 21
136.237
  0
LINE
  8
0
 10
-17.427
 20
136.237
 11
-17.6289
 21
136.555
  0
LINE
  8
0
 10
-17.6289
 20
136.555
 11
-17.7893
 21
136.896
  0
LINE
  8
0
 10
-17.7893
 20
136.896
 11
-17.9057
 21
137.254
  0
LINE
  8
0
 10
-17.9057
 20
137.254
 11
-17.9763
 21
137.624
  0
LINE
  8
0
 10
-17.9763
 20
137.624
 11
-18
 21
138
  0
LINE
  8
0
 10
-18
 20
138
 11
-17.9763
 21
138.376
  0
LINE
  8
0
 10
-17.9763
 20
138.376
 11
-17.9057
 21
138.746
  0
LINE
  8
0
 10
-17.9057
 20
138.746
 11
-17.7893
 21
139.104
  0
LINE
  8
0
 10
-17.7893
 20
139.104
 11
-17.6289
 21
139.445
  0
LINE
  8
0
 10
-17.6289
 20
139.445
 11
-17.427
 21
139.763
  0
LINE
  8
0
 10
-17.427
 20
139.763
 11
-17.1869
 21
140.054
  0
LINE
  8
0
 10
-17.1869
 20
140.054
 11
-16.9123
 21
140.312
  0
LINE
  8
0
 10
-16.9123
 20
140.312
 11
-16.6075
 21
140.533
  0
LINE
  8
0
 10
-16.6075
 20
140.533
 11
-16.2773
 21
140.714
  0
LINE
  8
0
 10
-16.2773
 20
140.714
 11
-15.927
 21
140.853
  0
LINE
  8
0
 10
-15.927
 20
140.853
 11
-15.5621
 21
140.947
  0
LINE
  8
0
 10
-15.5621
 20
140.947
 11
-15.1884
 21
140.994
  0
LINE
  8
0
 10
-15.1884
 20
140.994
 11
-14.8116
 21
140.994
  0
LINE
  8
0
 10
-14.8116
 20
140.994
 11
-14.4379
 21
140.947
  0
LINE
  8
0
 10
-14.4379
 20
140.947
 11
-14.0729
 21
140.853
  0
LINE
  8
0
 10
-14.0729
 20
140.853
 11
-13.7227
 21
140.714
  0
LINE
  8
0
 10
-13.7227
 20
140.714
 11
-13.3925
 21
140.533
  0
LINE
  8
0
 10
-13.3925
 20
140.533
 11
-13.0877
 21
140.312
  0
LINE
  8
0
 10
-13.0877
 20
140.312
 11
-12.8131
 21
140.054
  0
LINE
  8
0
 10
-12.8131
 20
140.054
 11
-12.5729
 21
139.763
  0
LINE
  8
0
 10
-12.5729
 20
139.763
 11
-12.3711
 21
139.445
  0
LINE
  8
0
 10
-12.3711
 20
139.445
 11
-12.2107
 21
139.104
  0
LINE
  8
0
 10
-12.2107
 20
139.104
 11
-12.0942
 21
138.746
  0
LINE
  8
0
 10
-12.0942
 20
138.746
 11
-12.0237
 21
138.376
  0
LINE
  8
0
 10
-12.0237
 20
138.376
 11
-12
 21
138
  0
LINE
  8
0
 10
-12
 20
138
 11
-12.0237
 21
137.624
  0
LINE
  8
0
 10
-12.0237
 20
137.624
 11
-12.0942
 21
137.254
  0
LINE
  8
0
 10
-12.0942
 20
137.254
 11
-12.2107
 21
136.896
  0
LINE
  8
0
 10
-12.2107
 20
136.896
 11
-12.3711
 21
136.555
  0
LINE
  8
0
 10
-12.3711
 20
136.555
 11
-12.5729
 21
136.237
  0
LINE
  8
0
 10
-12.5729
 20
136.237
 11
-12.8131
 21
135.946
  0
LINE
  8
0
 10
-12.8131
 20
135.946
 11
-13.0877
 21
135.688
  0
LINE
  8
0
 10
-13.0877
 20
135.688
 11
-13.3925
 21
135.467
  0
LINE
  8
0
 10
-13.3925
 20
135.467
 11
-13.7227
 21
135.286
  0
LINE
  8
0
 10
-13.7227
 20
135.286
 11
-14.0729
 21
135.147
  0
LINE
  8
0
 10
-14.0729
 20
135.147
 11
-14.4379
 21
135.053
  0
LINE
  8
0
 10
-14.4379
 20
135.053
 11
-14.8116
 21
135.006
  0
LINE
  8
0
 10
-14.8116
 20
135.006
 11
-15.1884
 21
135.006
  0
LINE
  8
0
 10
14.9058
 20
129.003
 11
14.7189
 21
129.027
  0
LINE
  8
0
 10
14.7189
 20
129.027
 11
14.5365
 21
129.073
  0
LINE
  8
0
 10
14.5365
 20
129.073
 11
14.3613
 21
129.143
  0
LINE
  8
0
 10
14.3613
 20
129.143
 11
14.1963
 21
129.234
  0
LINE
  8
0
 10
14.1963
 20
129.234
 11
14.0439
 21
129.344
  0
LINE
  8
0
 10
14.0439
 20
129.344
 11
13.9065
 21
129.473
  0
LINE
  8
0
 10
13.9065
 20
129.473
 11
13.7865
 21
129.618
  0
LINE
  8
0
 10
13.7865
 20
129.618
 11
13.6855
 21
129.777
  0
LINE
  8
0
 10
13.6855
 20
129.777
 11
13.6053
 21
129.948
  0
LINE
  8
0
 10
13.6053
 20
129.948
 11
13.5471
 21
130.127
  0
LINE
  8
0
 10
13.5471
 20
130.127
 11
13.5118
 21
130.312
  0
LINE
  8
0
 10
13.5118
 20
130.312
 11
13.5
 21
130.5
  0
LINE
  8
0
 10
13.5
 20
130.5
 11
13.5118
 21
130.688
  0
LINE
  8
0
 10
13.5118
 20
130.688
 11
13.5471
 21
130.873
  0
LINE
  8
0
 10
13.5471
 20
130.873
 11
13.6053
 21
131.052
  0
LINE
  8
0
 10
13.6053
 20
131.052
 11
13.6855
 21
131.223
  0
LINE
  8
0
 10
13.6855
 20
131.223
 11
13.7865
 21
131.382
  0
LINE
  8
0
 10
13.7865
 20
131.382
 11
13.9065
 21
131.527
  0
LINE
  8
0
 10
13.9065
 20
131.527
 11
14.0439
 21
131.656
  0
LINE
  8
0
 10
14.0439
 20
131.656
 11
14.1963
 21
131.766
  0
LINE
  8
0
 10
14.1963
 20
131.766
 11
14.3613
 21
131.857
  0
LINE
  8
0
 10
14.3613
 20
131.857
 11
14.5365
 21
131.927
  0
LINE
  8
0
 10
14.5365
 20
131.927
 11
14.7189
 21
131.973
  0
LINE
  8
0
 10
14.7189
 20
131.973
 11
14.9058
 21
131.997
  0
LINE
  8
0
 10
14.9058
 20
131.997
 11
15.0942
 21
131.997
  0
LINE
  8
0
 10
15.0942
 20
131.997
 11
15.2811
 21
131.973
  0
LINE
  8
0
 10
15.2811
 20
131.973
 11
15.4635
 21
131.927
  0
LINE
  8
0
 10
15.4635
 20
131.927
 11
15.6387
 21
131.857
  0
LINE
  8
0
 10
15.6387
 20
131.857
 11
15.8037
 21
131.766
  0
LINE
  8
0
 10
15.8037
 20
131.766
 11
15.9561
 21
131.656
  0
LINE
  8
0
 10
15.9561
 20
131.656
 11
16.0934
 21
131.527
  0
LINE
  8
0
 10
16.0934
 20
131.527
 11
16.2135
 21
131.382
  0
LINE
  8
0
 10
16.2135
 20
131.382
 11
16.3145
 21
131.223
  0
LINE
  8
0
 10
16.3145
 20
131.223
 11
16.3947
 21
131.052
  0
LINE
  8
0
 10
16.3947
 20
131.052
 11
16.4529
 21
130.873
  0
LINE
  8
0
 10
16.4529
 20
130.873
 11
16.4882
 21
130.688
  0
LINE
  8
0
 10
16.4882
 20
130.688
 11
16.5
 21
130.5
  0
LINE
  8
0
 10
16.5
 20
130.5
 11
16.4882
 21
130.312
  0
LINE
  8
0
 10
16.4882
 20
130.312
 11
16.4529
 21
130.127
  0
LINE
  8
0
 10
16.4529
 20
130.127
 11
16.3947
 21
129.948
  0
LINE
  8
0
 10
16.3947
 20
129.948
 11
16.3145
 21
129.777
  0
LINE
  8
0
 10
16.3145
 20
129.777
 11
16.2135
 21
129.618
  0
LINE
  8
0
 10
16.2135
 20
129.618
 11
16.0934
 21
129.473
  0
LINE
  8
0
 10
16.0934
 20
129.473
 11
15.9561
 21
129.344
  0
LINE
  8
0
 10
15.9561
 20
129.344
 11
15.8037
 21
129.234
  0
LINE
  8
0
 10
15.8037
 20
129.234
 11
15.6387
 21
129.143
  0
LINE
  8
0
 10
15.6387
 20
129.143
 11
15.4635
 21
129.073
  0
LINE
  8
0
 10
15.4635
 20
129.073
 11
15.2811
 21
129.027
  0
LINE
  8
0
 10
15.2811
 20
129.027
 11
15.0942
 21
129.003
  0
LINE
  8
0
 10
15.0942
 20
129.003
 11
14.9058
 21
129.003
  0
LINE
  8
0
 10
-15.0942
 20
129.003
 11
-15.2811
 21
129.027
  0
LINE
  8
0
 10
-15.2811
 20
129.027
 11
-15.4635
 21
129.073
  0
LINE
  8
0
 10
-15.4635
 20
129.073
 11
-15.6387
 21
129.143
  0
LINE
  8
0
 10
-15.6387
 20
129.143
 11
-15.8037
 21
129.234
  0
LINE
  8
0
 10
-15.8037
 20
129.234
 11
-15.9561
 21
129.344
  0
LINE
  8
0
 10
-15.9561
 20
129.344
 11
-16.0934
 21
129.473
  0
LINE
  8
0
 10
-16.0934
 20
129.473
 11
-16.2135
 21
129.618
  0
LINE
  8
0
 10
-16.2135
 20
129.618
 11
-16.3145
 21
129.777
  0
LINE
  8
0
 10
-16.3145
 20
129.777
 11
-16.3947
 21
129.948
  0
LINE
  8
0
 10
-16.3947
 20
129.948
 11
-16.4529
 21
130.127
  0
LINE
  8
0
 10
-16.4529
 20
130.127
 11
-16.4882
 21
130.312
  0
LINE
  8
0
 10
-16.4882
 20
130.312
 11
-16.5
 21
130.5
  0
LINE
  8
0
 10
-16.5
 20
130.5
 11
-16.4882
 21
130.688
  0
LINE
  8
0
 10
-16.4882
 20
130.688
 11
-16.4529
 21
130.873
  0
LINE
  8
0
 10
-16.4529
 20
130.873
 11
-16.3947
 21
131.052
  0
LINE
  8
0
 10
-16.3947
 20
131.052
 11
-16.3145
 21
131.223
  0
LINE
  8
0
 10
-16.3145
 20
131.223
 11
-16.2135
 21
131.382
  0
LINE
  8
0
 10
-16.2135
 20
131.382
 11
-16.0934
 21
131.527
  0
LINE
  8
0
 10
-16.0934
 20
131.527
 11
-15.9561
 21
131.656
  0
LINE
  8
0
 10
-15.9561
 20
131.656
 11
-15.8037
 21
131.766
  0
LINE
  8
0
 10
-15.8037
 20
131.766
 11
-15.6387
 21
131.857
  0
LINE
  8
0
 10
-15.6387
 20
131.857
 11
-15.4635
 21
131.927
  0
LINE
  8
0
 10
-15.4635
 20
131.927
 11
-15.2811
 21
131.973
  0
LINE
  8
0
 10
-15.2811
 20
131.973
 11
-15.0942
 21
131.997
  0
LINE
  8
0
 10
-15.0942
 20
131.997
 11
-14.9058
 21
131.997
  0
LINE
  8
0
 10
-14.9058
 20
131.997
 11
-14.7189
 21
131.973
  0
LINE
  8
0
 10
-14.7189
 20
131.973
 11
-14.5365
 21
131.927
  0
LINE
  8
0
 10
-14.5365
 20
131.927
 11
-14.3613
 21
131.857
  0
LINE
  8
0
 10
-14.3613
 20
131.857
 11
-14.1963
 21
131.766
  0
LINE
  8
0
 10
-14.1963
 20
131.766
 11
-14.0439
 21
131.656
  0
LINE
  8
0
 10
-14.0439
 20
131.656
 11
-13.9065
 21
131.527
  0
LINE
  8
0
 10
-13.9065
 20
131.527
 11
-13.7865
 21
131.382
  0
LINE
  8
0
 10
-13.7865
 20
131.382
 11
-13.6855
 21
131.223
  0
LINE
  8
0
 10
-13.6855
 20
131.223
 11
-13.6053
 21
131.052
  0
LINE
  8
0
 10
-13.6053
 20
131.052
 11
-13.5471
 21
130.873
  0
LINE
  8
0
 10
-13.5471
 20
130.873
 11
-13.5118
 21
130.688
  0
LINE
  8
0
 10
-13.5118
 20
130.688
 11
-13.5
 21
130.5
  0
LINE
  8
0
 10
-13.5
 20
130.5
 11
-13.5118
 21
130.312
  0
LINE
  8
0
 10
-13.5118
 20
130.312
 11
-13.5471
 21
130.127
  0
LINE
  8
0
 10
-13.5471
 20
130.127
 11
-13.6053
 21
129.948
  0
LINE
  8
0
 10
-13.6053
 20
129.948
 11
-13.6855
 21
129.777
  0
LINE
  8
0
 10
-13.6855
 20
129.777
 11
-13.7865
 21
129.618
  0
LINE
  8
0
 10
-13.7865
 20
129.618
 11
-13.9065
 21
129.473
  0
LINE
  8
0
 10
-13.9065
 20
129.473
 11
-14.0439
 21
129.344
  0
LINE
  8
0
 10
-14.0439
 20
129.344
 11
-14.1963
 21
129.234
  0
LINE
  8
0
 10
-14.1963
 20
129.234
 11
-14.3613
 21
129.143
  0
LINE
  8
0
 10
-14.3613
 20
129.143
 11
-14.5365
 21
129.073
  0
LINE
  8
0
 10
-14.5365
 20
129.073
 11
-14.7189
 21
129.027
  0
LINE
  8
0
 10
-14.7189
 20
129.027
 11
-14.9058
 21
129.003
  0
LINE
  8
0
 10
-14.9058
 20
129.003
 11
-15.0942
 21
129.003
  0
LINE
  8
0
 10
-15.1884
 20
120.006
 11
-15.5621
 21
120.053
  0
LINE
  8
0
 10
-15.5621
 20
120.053
 11
-15.927
 21
120.147
  0
LINE
  8
0
 10
-15.927
 20
120.147
 11
-16.2773
 21
120.286
  0
LINE
  8
0
 10
-16.2773
 20
120.286
 11
-16.6075
 21
120.467
  0
LINE
  8
0
 10
-16.6075
 20
120.467
 11
-16.9123
 21
120.688
  0
LINE
  8
0
 10
-16.9123
 20
120.688
 11
-17.1869
 21
120.946
  0
LINE
  8
0
 10
-17.1869
 20
120.946
 11
-17.427
 21
121.237
  0
LINE
  8
0
 10
-17.427
 20
121.237
 11
-17.6289
 21
121.555
  0
LINE
  8
0
 10
-17.6289
 20
121.555
 11
-17.7893
 21
121.896
  0
LINE
  8
0
 10
-17.7893
 20
121.896
 11
-17.9057
 21
122.254
  0
LINE
  8
0
 10
-17.9057
 20
122.254
 11
-17.9763
 21
122.624
  0
LINE
  8
0
 10
-17.9763
 20
122.624
 11
-18
 21
123
  0
LINE
  8
0
 10
-18
 20
123
 11
-17.9763
 21
123.376
  0
LINE
  8
0
 10
-17.9763
 20
123.376
 11
-17.9057
 21
123.746
  0
LINE
  8
0
 10
-17.9057
 20
123.746
 11
-17.7893
 21
124.104
  0
LINE
  8
0
 10
-17.7893
 20
124.104
 11
-17.6289
 21
124.445
  0
LINE
  8
0
 10
-17.6289
 20
124.445
 11
-17.427
 21
124.763
  0
LINE
  8
0
 10
-17.427
 20
124.763
 11
-17.1869
 21
125.054
  0
LINE
  8
0
 10
-17.1869
 20
125.054
 11
-16.9123
 21
125.312
  0
LINE
  8
0
 10
-16.9123
 20
125.312
 11
-16.6075
 21
125.533
  0
LINE
  8
0
 10
-16.6075
 20
125.533
 11
-16.2773
 21
125.714
  0
LINE
  8
0
 10
-16.2773
 20
125.714
 11
-15.927
 21
125.853
  0
LINE
  8
0
 10
-15.927
 20
125.853
 11
-15.5621
 21
125.947
  0
LINE
  8
0
 10
-15.5621
 20
125.947
 11
-15.1884
 21
125.994
  0
LINE
  8
0
 10
-15.1884
 20
125.994
 11
-14.8116
 21
125.994
  0
LINE
  8
0
 10
-14.8116
 20
125.994
 11
-14.4379
 21
125.947
  0
LINE
  8
0
 10
-14.4379
 20
125.947
 11
-14.0729
 21
125.853
  0
LINE
  8
0
 10
-14.0729
 20
125.853
 11
-13.7227
 21
125.714
  0
LINE
  8
0
 10
-13.7227
 20
125.714
 11
-13.3925
 21
125.533
  0
LINE
  8
0
 10
-13.3925
 20
125.533
 11
-13.0877
 21
125.312
  0
LINE
  8
0
 10
-13.0877
 20
125.312
 11
-12.8131
 21
125.054
  0
LINE
  8
0
 10
-12.8131
 20
125.054
 11
-12.5729
 21
124.763
  0
LINE
  8
0
 10
-12.5729
 20
124.763
 11
-12.3711
 21
124.445
  0
LINE
  8
0
 10
-12.3711
 20
124.445
 11
-12.2107
 21
124.104
  0
LINE
  8
0
 10
-12.2107
 20
124.104
 11
-12.0942
 21
123.746
  0
LINE
  8
0
 10
-12.0942
 20
123.746
 11
-12.0237
 21
123.376
  0
LINE
  8
0
 10
-12.0237
 20
123.376
 11
-12
 21
123
  0
LINE
  8
0
 10
-12
 20
123
 11
-12.0237
 21
122.624
  0
LINE
  8
0
 10
-12.0237
 20
122.624
 11
-12.0942
 21
122.254
  0
LINE
  8
0
 10
-12.0942
 20
122.254
 11
-12.2107
 21
121.896
  0
LINE
  8
0
 10
-12.2107
 20
121.896
 11
-12.3711
 21
121.555
  0
LINE
  8
0
 10
-12.3711
 20
121.555
 11
-12.5729
 21
121.237
  0
LINE
  8
0
 10
-12.5729
 20
121.237
 11
-12.8131
 21
120.946
  0
LINE
  8
0
 10
-12.8131
 20
120.946
 11
-13.0877
 21
120.688
  0
LINE
  8
0
 10
-13.0877
 20
120.688
 11
-13.3925
 21
120.467
  0
LINE
  8
0
 10
-13.3925
 20
120.467
 11
-13.7227
 21
120.286
  0
LINE
  8
0
 10
-13.7227
 20
120.286
 11
-14.0729
 21
120.147
  0
LINE
  8
0
 10
-14.0729
 20
120.147
 11
-14.4379
 21
120.053
  0
LINE
  8
0
 10
-14.4379
 20
120.053
 11
-14.8116
 21
120.006
  0
LINE
  8
0
 10
-14.8116
 20
120.006
 11
-15.1884
 21
120.006
  0
LINE
  8
0
 10
14.8116
 20
120.006
 11
14.4379
 21
120.053
  0
LINE
  8
0
 10
14.4379
 20
120.053
 11
14.0729
 21
120.147
  0
LINE
  8
0
 10
14.0729
 20
120.147
 11
13.7227
 21
120.286
  0
LINE
  8
0
 10
13.7227
 20
120.286
 11
13.3925
 21
120.467
  0
LINE
  8
0
 10
13.3925
 20
120.467
 11
13.0877
 21
120.688
  0
LINE
  8
0
 10
13.0877
 20
120.688
 11
12.8131
 21
120.946
  0
LINE
  8
0
 10
12.8131
 20
120.946
 11
12.5729
 21
121.237
  0
LINE
  8
0
 10
12.5729
 20
121.237
 11
12.3711
 21
121.555
  0
LINE
  8
0
 10
12.3711
 20
121.555
 11
12.2107
 21
121.896
  0
LINE
  8
0
 10
12.2107
 20
121.896
 11
12.0942
 21
122.254
  0
LINE
  8
0
 10
12.0942
 20
122.254
 11
12.0237
 21
122.624
  0
LINE
  8
0
 10
12.0237
 20
122.624
 11
12
 21
123
  0
LINE
  8
0
 10
12
 20
123
 11
12.0237
 21
123.376
  0
LINE
  8
0
 10
12.0237
 20
123.376
 11
12.0942
 21
123.746
  0
LINE
  8
0
 10
12.0942
 20
123.746
 11
12.2107
 21
124.104
  0
LINE
  8
0
 10
12.2107
 20
124.104
 11
12.3711
 21
124.445
  0
LINE
  8
0
 10
12.3711
 20
124.445
 11
12.5729
 21
124.763
  0
LINE
  8
0
 10
12.5729
 20
124.763
 11
12.8131
 21
125.054
  0
LINE
  8
0
 10
12.8131
 20
125.054
 11
13.0877
 21
125.312
  0
LINE
  8
0
 10
13.0877
 20
125.312
 11
13.3925
 21
125.533
  0
LINE
  8
0
 10
13.3925
 20
125.533
 11
13.7227
 21
125.714
  0
LINE
  8
0
 10
13.7227
 20
125.714
 11
14.0729
 21
125.853
  0
LINE
  8
0
 10
14.0729
 20
125.853
 11
14.4379
 21
125.947
  0
LINE
  8
0
 10
14.4379
 20
125.947
 11
14.8116
 21
125.994
  0
LINE
  8
0
 10
14.8116
 20
125.994
 11
15.1884
 21
125.994
  0
LINE
  8
0
 10
15.1884
 20
125.994
 11
15.5621
 21
125.947
  0
LINE
  8
0
 10
15.5621
 20
125.947
 11
15.927
 21
125.853
  0
LINE
  8
0
 10
15.927
 20
125.853
 11
16.2773
 21
125.714
  0
LINE
  8
0
 10
16.2773
 20
125.714
 11
16.6075
 21
125.533
  0
LINE
  8
0
 10
16.6075
 20
125.533
 11
16.9123
 21
125.312
  0
LINE
  8
0
 10
16.9123
 20
125.312
 11
17.1869
 21
125.054
  0
LINE
  8
0
 10
17.1869
 20
125.054
 11
17.427
 21
124.763
  0
LINE
  8
0
 10
17.427
 20
124.763
 11
17.6289
 21
124.445
  0
LINE
  8
0
 10
17.6289
 20
124.445
 11
17.7893
 21
124.104
  0
LINE
  8
0
 10
17.7893
 20
124.104
 11
17.9057
 21
123.746
  0
LINE
  8
0
 10
17.9057
 20
123.746
 11
17.9763
 21
123.376
  0
LINE
  8
0
 10
17.9763
 20
123.376
 11
18
 21
123
  0
LINE
  8
0
 10
18
 20
123
 11
17.9763
 21
122.624
  0
LINE
  8
0
 10
17.9763
 20
122.624
 11
17.9057
 21
122.254
  0
LINE
  8
0
 10
17.9057
 20
122.254
 11
17.7893
 21
121.896
  0
LINE
  8
0
 10
17.7893
 20
121.896
 11
17.6289
 21
121.555
  0
LINE
  8
0
 10
17.6289
 20
121.555
 11
17.427
 21
121.237
  0
LINE
  8
0
 10
17.427
 20
121.237
 11
17.1869
 21
120.946
  0
LINE
  8
0
 10
17.1869
 20
120.946
 11
16.9123
 21
120.688
  0
LINE
  8
0
 10
16.9123
 20
120.688
 11
16.6075
 21
120.467
  0
LINE
  8
0
 10
16.6075
 20
120.467
 11
16.2773
 21
120.286
  0
LINE
  8
0
 10
16.2773
 20
120.286
 11
15.927
 21
120.147
  0
LINE
  8
0
 10
15.927
 20
120.147
 11
15.5621
 21
120.053
  0
LINE
  8
0
 10
15.5621
 20
120.053
 11
15.1884
 21
120.006
  0
LINE
  8
0
 10
15.1884
 20
120.006
 11
14.8116
 21
120.006
  0
LINE
  8
0
 10
14.9058
 20
114.003
 11
14.7189
 21
114.027
  0
LINE
  8
0
 10
14.7189
 20
114.027
 11
14.5365
 21
114.073
  0
LINE
  8
0
 10
14.5365
 20
114.073
 11
14.3613
 21
114.143
  0
LINE
  8
0
 10
14.3613
 20
114.143
 11
14.1963
 21
114.234
  0
LINE
  8
0
 10
14.1963
 20
114.234
 11
14.0439
 21
114.344
  0
LINE
  8
0
 10
14.0439
 20
114.344
 11
13.9065
 21
114.473
  0
LINE
  8
0
 10
13.9065
 20
114.473
 11
13.7865
 21
114.618
  0
LINE
  8
0
 10
13.7865
 20
114.618
 11
13.6855
 21
114.777
  0
LINE
  8
0
 10
13.6855
 20
114.777
 11
13.6053
 21
114.948
  0
LINE
  8
0
 10
13.6053
 20
114.948
 11
13.5471
 21
115.127
  0
LINE
  8
0
 10
13.5471
 20
115.127
 11
13.5118
 21
115.312
  0
LINE
  8
0
 10
13.5118
 20
115.312
 11
13.5
 21
115.5
  0
LINE
  8
0
 10
13.5
 20
115.5
 11
13.5118
 21
115.688
  0
LINE
  8
0
 10
13.5118
 20
115.688
 11
13.5471
 21
115.873
  0
LINE
  8
0
 10
13.5471
 20
115.873
 11
13.6053
 21
116.052
  0
LINE
  8
0
 10
13.6053
 20
116.052
 11
13.6855
 21
116.223
  0
LINE
  8
0
 10
13.6855
 20
116.223
 11
13.7865
 21
116.382
  0
LINE
  8
0
 10
13.7865
 20
116.382
 11
13.9065
 21
116.527
  0
LINE
  8
0
 10
13.9065
 20
116.527
 11
14.0439
 21
116.656
  0
LINE
  8
0
 10
14.0439
 20
116.656
 11
14.1963
 21
116.766
  0
LINE
  8
0
 10
14.1963
 20
116.766
 11
14.3613
 21
116.857
  0
LINE
  8
0
 10
14.3613
 20
116.857
 11
14.5365
 21
116.927
  0
LINE
  8
0
 10
14.5365
 20
116.927
 11
14.7189
 21
116.973
  0
LINE
  8
0
 10
14.7189
 20
116.973
 11
14.9058
 21
116.997
  0
LINE
  8
0
 10
14.9058
 20
116.997
 11
15.0942
 21
116.997
  0
LINE
  8
0
 10
15.0942
 20
116.997
 11
15.2811
 21
116.973
  0
LINE
  8
0
 10
15.2811
 20
116.973
 11
15.4635
 21
116.927
  0
LINE
  8
0
 10
15.4635
 20
116.927
 11
15.6387
 21
116.857
  0
LINE
  8
0
 10
15.6387
 20
116.857
 11
15.8037
 21
116.766
  0
LINE
  8
0
 10
15.8037
 20
116.766
 11
15.9561
 21
116.656
  0
LINE
  8
0
 10
15.9561
 20
116.656
 11
16.0934
 21
116.527
  0
LINE
  8
0
 10
16.0934
 20
116.527
 11
16.2135
 21
116.382
  0
LINE
  8
0
 10
16.2135
 20
116.382
 11
16.3145
 21
116.223
  0
LINE
  8
0
 10
16.3145
 20
116.223
 11
16.3947
 21
116.052
  0
LINE
  8
0
 10
16.3947
 20
116.052
 11
16.4529
 21
115.873
  0
LINE
  8
0
 10
16.4529
 20
115.873
 11
16.4882
 21
115.688
  0
LINE
  8
0
 10
16.4882
 20
115.688
 11
16.5
 21
115.5
  0
LINE
  8
0
 10
16.5
 20
115.5
 11
16.4882
 21
115.312
  0
LINE
  8
0
 10
16.4882
 20
115.312
 11
16.4529
 21
115.127
  0
LINE
  8
0
 10
16.4529
 20
115.127
 11
16.3947
 21
114.948
  0
LINE
  8
0
 10
16.3947
 20
114.948
 11
16.3145
 21
114.777
  0
LINE
  8
0
 10
16.3145
 20
114.777
 11
16.2135
 21
114.618
  0
LINE
  8
0
 10
16.2135
 20
114.618
 11
16.0934
 21
114.473
  0
LINE
  8
0
 10
16.0934
 20
114.473
 11
15.9561
 21
114.344
  0
LINE
  8
0
 10
15.9561
 20
114.344
 11
15.8037
 21
114.234
  0
LINE
  8
0
 10
15.8037
 20
114.234
 11
15.6387
 21
114.143
  0
LINE
  8
0
 10
15.6387
 20
114.143
 11
15.4635
 21
114.073
  0
LINE
  8
0
 10
15.4635
 20
114.073
 11
15.2811
 21
114.027
  0
LINE
  8
0
 10
15.2811
 20
114.027
 11
15.0942
 21
114.003
  0
LINE
  8
0
 10
15.0942
 20
114.003
 11
14.9058
 21
114.003
  0
LINE
  8
0
 10
-15.0942
 20
114.003
 11
-15.2811
 21
114.027
  0
LINE
  8
0
 10
-15.2811
 20
114.027
 11
-15.4635
 21
114.073
  0
LINE
  8
0
 10
-15.4635
 20
114.073
 11
-15.6387
 21
114.143
  0
LINE
  8
0
 10
-15.6387
 20
114.143
 11
-15.8037
 21
114.234
  0
LINE
  8
0
 10
-15.8037
 20
114.234
 11
-15.9561
 21
114.344
  0
LINE
  8
0
 10
-15.9561
 20
114.344
 11
-16.0934
 21
114.473
  0
LINE
  8
0
 10
-16.0934
 20
114.473
 11
-16.2135
 21
114.618
  0
LINE
  8
0
 10
-16.2135
 20
114.618
 11
-16.3145
 21
114.777
  0
LINE
  8
0
 10
-16.3145
 20
114.777
 11
-16.3947
 21
114.948
  0
LINE
  8
0
 10
-16.3947
 20
114.948
 11
-16.4529
 21
115.127
  0
LINE
  8
0
 10
-16.4529
 20
115.127
 11
-16.4882
 21
115.312
  0
LINE
  8
0
 10
-16.4882
 20
115.312
 11
-16.5
 21
115.5
  0
LINE
  8
0
 10
-16.5
 20
115.5
 11
-16.4882
 21
115.688
  0
LINE
  8
0
 10
-16.4882
 20
115.688
 11
-16.4529
 21
115.873
  0
LINE
  8
0
 10
-16.4529
 20
115.873
 11
-16.3947
 21
116.052
  0
LINE
  8
0
 10
-16.3947
 20
116.052
 11
-16.3145
 21
116.223
  0
LINE
  8
0
 10
-16.3145
 20
116.223
 11
-16.2135
 21
116.382
  0
LINE
  8
0
 10
-16.2135
 20
116.382
 11
-16.0934
 21
116.527
  0
LINE
  8
0
 10
-16.0934
 20
116.527
 11
-15.9561
 21
116.656
  0
LINE
  8
0
 10
-15.9561
 20
116.656
 11
-15.8037
 21
116.766
  0
LINE
  8
0
 10
-15.8037
 20
116.766
 11
-15.6387
 21
116.857
  0
LINE
  8
0
 10
-15.6387
 20
116.857
 11
-15.4635
 21
116.927
  0
LINE
  8
0
 10
-15.4635
 20
116.927
 11
-15.2811
 21
116.973
  0
LINE
  8
0
 10
-15.2811
 20
116.973
 11
-15.0942
 21
116.997
  0
LINE
  8
0
 10
-15.0942
 20
116.997
 11
-14.9058
 21
116.997
  0
LINE
  8
0
 10
-14.9058
 20
116.997
 11
-14.7189
 21
116.973
  0
LINE
  8
0
 10
-14.7189
 20
116.973
 11
-14.5365
 21
116.927
  0
LINE
  8
0
 10
-14.5365
 20
116.927
 11
-14.3613
 21
116.857
  0
LINE
  8
0
 10
-14.3613
 20
116.857
 11
-14.1963
 21
116.766
  0
LINE
  8
0
 10
-14.1963
 20
116.766
 11
-14.0439
 21
116.656
  0
LINE
  8
0
 10
-14.0439
 20
116.656
 11
-13.9065
 21
116.527
  0
LINE
  8
0
 10
-13.9065
 20
116.527
 11
-13.7865
 21
116.382
  0
LINE
  8
0
 10
-13.7865
 20
116.382
 11
-13.6855
 21
116.223
  0
LINE
  8
0
 10
-13.6855
 20
116.223
 11
-13.6053
 21
116.052
  0
LINE
  8
0
 10
-13.6053
 20
116.052
 11
-13.5471
 21
115.873
  0
LINE
  8
0
 10
-13.5471
 20
115.873
 11
-13.5118
 21
115.688
  0
LINE
  8
0
 10
-13.5118
 20
115.688
 11
-13.5
 21
115.5
  0
LINE
  8
0
 10
-13.5
 20
115.5
 11
-13.5118
 21
115.312
  0
LINE
  8
0
 10
-13.5118
 20
115.312
 11
-13.5471
 21
115.127
  0
LINE
  8
0
 10
-13.5471
 20
115.127
 11
-13.6053
 21
114.948
  0
LINE
  8
0
 10
-13.6053
 20
114.948
 11
-13.6855
 21
114.777
  0
LINE
  8
0
 10
-13.6855
 20
114.777
 11
-13.7865
 21
114.618
  0
LINE
  8
0
 10
-13.7865
 20
114.618
 11
-13.9065
 21
114.473
  0
LINE
  8
0
 10
-13.9065
 20
114.473
 11
-14.0439
 21
114.344
  0
LINE
  8
0
 10
-14.0439
 20
114.344
 11
-14.1963
 21
114.234
  0
LINE
  8
0
 10
-14.1963
 20
114.234
 11
-14.3613
 21
114.143
  0
LINE
  8
0
 10
-14.3613
 20
114.143
 11
-14.5365
 21
114.073
  0
LINE
  8
0
 10
-14.5365
 20
114.073
 11
-14.7189
 21
114.027
  0
LINE
  8
0
 10
-14.7189
 20
114.027
 11
-14.9058
 21
114.003
  0
LINE
  8
0
 10
-14.9058
 20
114.003
 11
-15.0942
 21
114.003
  0
LINE
  8
0
 10
14.8116
 20
105.006
 11
14.4379
 21
105.053
  0
LINE
  8
0
 10
14.4379
 20
105.053
 11
14.0729
 21
105.147
  0
LINE
  8
0
 10
14.0729
 20
105.147
 11
13.7227
 21
105.286
  0
LINE
  8
0
 10
13.7227
 20
105.286
 11
13.3925
 21
105.467
  0
LINE
  8
0
 10
13.3925
 20
105.467
 11
13.0877
 21
105.688
  0
LINE
  8
0
 10
13.0877
 20
105.688
 11
12.8131
 21
105.946
  0
LINE
  8
0
 10
12.8131
 20
105.946
 11
12.5729
 21
106.237
  0
LINE
  8
0
 10
12.5729
 20
106.237
 11
12.3711
 21
106.555
  0
LINE
  8
0
 10
12.3711
 20
106.555
 11
12.2107
 21
106.896
  0
LINE
  8
0
 10
12.2107
 20
106.896
 11
12.0942
 21
107.254
  0
LINE
  8
0
 10
12.0942
 20
107.254
 11
12.0237
 21
107.624
  0
LINE
  8
0
 10
12.0237
 20
107.624
 11
12
 21
108
  0
LINE
  8
0
 10
12
 20
108
 11
12.0237
 21
108.376
  0
LINE
  8
0
 10
12.0237
 20
108.376
 11
12.0942
 21
108.746
  0
LINE
  8
0
 10
12.0942
 20
108.746
 11
12.2107
 21
109.104
  0
LINE
  8
0
 10
12.2107
 20
109.104
 11
12.3711
 21
109.445
  0
LINE
  8
0
 10
12.3711
 20
109.445
 11
12.5729
 21
109.763
  0
LINE
  8
0
 10
12.5729
 20
109.763
 11
12.8131
 21
110.054
  0
LINE
  8
0
 10
12.8131
 20
110.054
 11
13.0877
 21
110.312
  0
LINE
  8
0
 10
13.0877
 20
110.312
 11
13.3925
 21
110.533
  0
LINE
  8
0
 10
13.3925
 20
110.533
 11
13.7227
 21
110.714
  0
LINE
  8
0
 10
13.7227
 20
110.714
 11
14.0729
 21
110.853
  0
LINE
  8
0
 10
14.0729
 20
110.853
 11
14.4379
 21
110.947
  0
LINE
  8
0
 10
14.4379
 20
110.947
 11
14.8116
 21
110.994
  0
LINE
  8
0
 10
14.8116
 20
110.994
 11
15.1884
 21
110.994
  0
LINE
  8
0
 10
15.1884
 20
110.994
 11
15.5621
 21
110.947
  0
LINE
  8
0
 10
15.5621
 20
110.947
 11
15.927
 21
110.853
  0
LINE
  8
0
 10
15.927
 20
110.853
 11
16.2773
 21
110.714
  0
LINE
  8
0
 10
16.2773
 20
110.714
 11
16.6075
 21
110.533
  0
LINE
  8
0
 10
16.6075
 20
110.533
 11
16.9123
 21
110.312
  0
LINE
  8
0
 10
16.9123
 20
110.312
 11
17.1869
 21
110.054
  0
LINE
  8
0
 10
17.1869
 20
110.054
 11
17.427
 21
109.763
  0
LINE
  8
0
 10
17.427
 20
109.763
 11
17.6289
 21
109.445
  0
LINE
  8
0
 10
17.6289
 20
109.445
 11
17.7893
 21
109.104
  0
LINE
  8
0
 10
17.7893
 20
109.104
 11
17.9057
 21
108.746
  0
LINE
  8
0
 10
17.9057
 20
108.746
 11
17.9763
 21
108.376
  0
LINE
  8
0
 10
17.9763
 20
108.376
 11
18
 21
108
  0
LINE
  8
0
 10
18
 20
108
 11
17.9763
 21
107.624
  0
LINE
  8
0
 10
17.9763
 20
107.624
 11
17.9057
 21
107.254
  0
LINE
  8
0
 10
17.9057
 20
107.254
 11
17.7893
 21
106.896
  0
LINE
  8
0
 10
17.7893
 20
106.896
 11
17.6289
 21
106.555
  0
LINE
  8
0
 10
17.6289
 20
106.555
 11
17.427
 21
106.237
  0
LINE
  8
0
 10
17.427
 20
106.237
 11
17.1869
 21
105.946
  0
LINE
  8
0
 10
17.1869
 20
105.946
 11
16.9123
 21
105.688
  0
LINE
  8
0
 10
16.9123
 20
105.688
 11
16.6075
 21
105.467
  0
LINE
  8
0
 10
16.6075
 20
105.467
 11
16.2773
 21
105.286
  0
LINE
  8
0
 10
16.2773
 20
105.286
 11
15.927
 21
105.147
  0
LINE
  8
0
 10
15.927
 20
105.147
 11
15.5621
 21
105.053
  0
LINE
  8
0
 10
15.5621
 20
105.053
 11
15.1884
 21
105.006
  0
LINE
  8
0
 10
15.1884
 20
105.006
 11
14.8116
 21
105.006
  0
LINE
  8
0
 10
-0.18837
 20
105.006
 11
-0.562134
 21
105.053
  0
LINE
  8
0
 10
-0.562134
 20
105.053
 11
-0.927048
 21
105.147
  0
LINE
  8
0
 10
-0.927048
 20
105.147
 11
-1.27733
 21
105.286
  0
LINE
  8
0
 10
-1.27733
 20
105.286
 11
-1.60747
 21
105.467
  0
LINE
  8
0
 10
-1.60747
 20
105.467
 11
-1.91226
 21
105.688
  0
LINE
  8
0
 10
-1.91226
 20
105.688
 11
-2.1869
 21
105.946
  0
LINE
  8
0
 10
-2.1869
 20
105.946
 11
-2.42705
 21
106.237
  0
LINE
  8
0
 10
-2.42705
 20
106.237
 11
-2.62891
 21
106.555
  0
LINE
  8
0
 10
-2.62891
 20
106.555
 11
-2.78932
 21
106.896
  0
LINE
  8
0
 10
-2.78932
 20
106.896
 11
-2.90575
 21
107.254
  0
LINE
  8
0
 10
-2.90575
 20
107.254
 11
-2.97633
 21
107.624
  0
LINE
  8
0
 10
-2.97633
 20
107.624
 11
-3
 21
108
  0
LINE
  8
0
 10
-3
 20
108
 11
-2.97633
 21
108.376
  0
LINE
  8
0
 10
-2.97633
 20
108.376
 11
-2.90575
 21
108.746
  0
LINE
  8
0
 10
-2.90575
 20
108.746
 11
-2.78932
 21
109.104
  0
LINE
  8
0
 10
-2.78932
 20
109.104
 11
-2.62891
 21
109.445
  0
LINE
  8
0
 10
-2.62891
 20
109.445
 11
-2.42705
 21
109.763
  0
LINE
  8
0
 10
-2.42705
 20
109.763
 11
-2.1869
 21
110.054
  0
LINE
  8
0
 10
-2.1869
 20
110.054
 11
-1.91226
 21
110.312
  0
LINE
  8
0
 10
-1.91226
 20
110.312
 11
-1.60747
 21
110.533
  0
LINE
  8
0
 10
-1.60747
 20
110.533
 11
-1.27733
 21
110.714
  0
LINE
  8
0
 10
-1.27733
 20
110.714
 11
-0.927048
 21
110.853
  0
LINE
  8
0
 10
-0.927048
 20
110.853
 11
-0.562134
 21
110.947
  0
LINE
  8
0
 10
-0.562134
 20
110.947
 11
-0.18837
 21
110.994
  0
LINE
  8
0
 10
-0.18837
 20
110.994
 11
0.18837
 21
110.994
  0
LINE
  8
0
 10
0.18837
 20
110.994
 11
0.562134
 21
110.947
  0
LINE
  8
0
 10
0.562134
 20
110.947
 11
0.927048
 21
110.853
  0
LINE
  8
0
 10
0.927048
 20
110.853
 11
1.27733
 21
110.714
  0
LINE
  8
0
 10
1.27733
 20
110.714
 11
1.60747
 21
110.533
  0
LINE
  8
0
 10
1.60747
 20
110.533
 11
1.91226
 21
110.312
  0
LINE
  8
0
 10
1.91226
 20
110.312
 11
2.1869
 21
110.054
  0
LINE
  8
0
 10
2.1869
 20
110.054
 11
2.42705
 21
109.763
  0
LINE
  8
0
 10
2.42705
 20
109.763
 11
2.62891
 21
109.445
  0
LINE
  8
0
 10
2.62891
 20
109.445
 11
2.78932
 21
109.104
  0
LINE
  8
0
 10
2.78932
 20
109.104
 11
2.90575
 21
108.746
  0
LINE
  8
0
 10
2.90575
 20
108.746
 11
2.97633
 21
108.376
  0
LINE
  8
0
 10
2.97633
 20
108.376
 11
3
 21
108
  0
LINE
  8
0
 10
3
 20
108
 11
2.97633
 21
107.624
  0
LINE
  8
0
 10
2.97633
 20
107.624
 11
2.90575
 21
107.254
  0
LINE
  8
0
 10
2.90575
 20
107.254
 11
2.78932
 21
106.896
  0
LINE
  8
0
 10
2.78932
 20
106.896
 11
2.62891
 21
106.555
  0
LINE
  8
0
 10
2.62891
 20
106.555
 11
2.42705
 21
106.237
  0
LINE
  8
0
 10
2.42705
 20
106.237
 11
2.1869
 21
105.946
  0
LINE
  8
0
 10
2.1869
 20
105.946
 11
1.91226
 21
105.688
  0
LINE
  8
0
 10
1.91226
 20
105.688
 11
1.60747
 21
105.467
  0
LINE
  8
0
 10
1.60747
 20
105.467
 11
1.27733
 21
105.286
  0
LINE
  8
0
 10
1.27733
 20
105.286
 11
0.927048
 21
105.147
  0
LINE
  8
0
 10
0.927048
 20
105.147
 11
0.562134
 21
105.053
  0
LINE
  8
0
 10
0.562134
 20
105.053
 11
0.18837
 21
105.006
  0
LINE
  8
0
 10
0.18837
 20
105.006
 11
-0.18837
 21
105.006
  0
LINE
  8
0
 10
-15.1884
 20
105.006
 11
-15.5621
 21
105.053
  0
LINE
  8
0
 10
-15.5621
 20
105.053
 11
-15.927
 21
105.147
  0
LINE
  8
0
 10
-15.927
 20
105.147
 11
-16.2773
 21
105.286
  0
LINE
  8
0
 10
-16.2773
 20
105.286
 11
-16.6075
 21
105.467
  0
LINE
  8
0
 10
-16.6075
 20
105.467
 11
-16.9123
 21
105.688
  0
LINE
  8
0
 10
-16.9123
 20
105.688
 11
-17.1869
 21
105.946
  0
LINE
  8
0
 10
-17.1869
 20
105.946
 11
-17.427
 21
106.237
  0
LINE
  8
0
 10
-17.427
 20
106.237
 11
-17.6289
 21
106.555
  0
LINE
  8
0
 10
-17.6289
 20
106.555
 11
-17.7893
 21
106.896
  0
LINE
  8
0
 10
-17.7893
 20
106.896
 11
-17.9057
 21
107.254
  0
LINE
  8
0
 10
-17.9057
 20
107.254
 11
-17.9763
 21
107.624
  0
LINE
  8
0
 10
-17.9763
 20
107.624
 11
-18
 21
108
  0
LINE
  8
0
 10
-18
 20
108
 11
-17.9763
 21
108.376
  0
LINE
  8
0
 10
-17.9763
 20
108.376
 11
-17.9057
 21
108.746
  0
LINE
  8
0
 10
-17.9057
 20
108.746
 11
-17.7893
 21
109.104
  0
LINE
  8
0
 10
-17.7893
 20
109.104
 11
-17.6289
 21
109.445
  0
LINE
  8
0
 10
-17.6289
 20
109.445
 11
-17.427
 21
109.763
  0
LINE
  8
0
 10
-17.427
 20
109.763
 11
-17.1869
 21
110.054
  0
LINE
  8
0
 10
-17.1869
 20
110.054
 11
-16.9123
 21
110.312
  0
LINE
  8
0
 10
-16.9123
 20
110.312
 11
-16.6075
 21
110.533
  0
LINE
  8
0
 10
-16.6075
 20
110.533
 11
-16.2773
 21
110.714
  0
LINE
  8
0
 10
-16.2773
 20
110.714
 11
-15.927
 21
110.853
  0
LINE
  8
0
 10
-15.927
 20
110.853
 11
-15.5621
 21
110.947
  0
LINE
  8
0
 10
-15.5621
 20
110.947
 11
-15.1884
 21
110.994
  0
LINE
  8
0
 10
-15.1884
 20
110.994
 11
-14.8116
 21
110.994
  0
LINE
  8
0
 10
-14.8116
 20
110.994
 11
-14.4379
 21
110.947
  0
LINE
  8
0
 10
-14.4379
 20
110.947
 11
-14.0729
 21
110.853
  0
LINE
  8
0
 10
-14.0729
 20
110.853
 11
-13.7227
 21
110.714
  0
LINE
  8
0
 10
-13.7227
 20
110.714
 11
-13.3925
 21
110.533
  0
LINE
  8
0
 10
-13.3925
 20
110.533
 11
-13.0877
 21
110.312
  0
LINE
  8
0
 10
-13.0877
 20
110.312
 11
-12.8131
 21
110.054
  0
LINE
  8
0
 10
-12.8131
 20
110.054
 11
-12.5729
 21
109.763
  0
LINE
  8
0
 10
-12.5729
 20
109.763
 11
-12.3711
 21
109.445
  0
LINE
  8
0
 10
-12.3711
 20
109.445
 11
-12.2107
 21
109.104
  0
LINE
  8
0
 10
-12.2107
 20
109.104
 11
-12.0942
 21
108.746
  0
LINE
  8
0
 10
-12.0942
 20
108.746
 11
-12.0237
 21
108.376
  0
LINE
  8
0
 10
-12.0237
 20
108.376
 11
-12
 21
108
  0
LINE
  8
0
 10
-12
 20
108
 11
-12.0237
 21
107.624
  0
LINE
  8
0
 10
-12.0237
 20
107.624
 11
-12.0942
 21
107.254
  0
LINE
  8
0
 10
-12.0942
 20
107.254
 11
-12.2107
 21
106.896
  0
LINE
  8
0
 10
-12.2107
 20
106.896
 11
-12.3711
 21
106.555
  0
LINE
  8
0
 10
-12.3711
 20
106.555
 11
-12.5729
 21
106.237
  0
LINE
  8
0
 10
-12.5729
 20
106.237
 11
-12.8131
 21
105.946
  0
LINE
  8
0
 10
-12.8131
 20
105.946
 11
-13.0877
 21
105.688
  0
LINE
  8
0
 10
-13.0877
 20
105.688
 11
-13.3925
 21
105.467
  0
LINE
  8
0
 10
-13.3925
 20
105.467
 11
-13.7227
 21
105.286
  0
LINE
  8
0
 10
-13.7227
 20
105.286
 11
-14.0729
 21
105.147
  0
LINE
  8
0
 10
-14.0729
 20
105.147
 11
-14.4379
 21
105.053
  0
LINE
  8
0
 10
-14.4379
 20
105.053
 11
-14.8116
 21
105.006
  0
LINE
  8
0
 10
-14.8116
 20
105.006
 11
-15.1884
 21
105.006
  0
LINE
  8
0
 10
-7.59418
 20
106.503
 11
-7.78107
 21
106.527
  0
LINE
  8
0
 10
-7.78107
 20
106.527
 11
-7.96352
 21
106.573
  0
LINE
  8
0
 10
-7.96352
 20
106.573
 11
-8.13866
 21
106.643
  0
LINE
  8
0
 10
-8.13866
 20
106.643
 11
-8.30373
 21
106.734
  0
LINE
  8
0
 10
-8.30373
 20
106.734
 11
-8.45613
 21
106.844
  0
LINE
  8
0
 10
-8.45613
 20
106.844
 11
-8.59344
 21
106.973
  0
LINE
  8
0
 10
-8.59344
 20
106.973
 11
-8.71352
 21
107.118
  0
LINE
  8
0
 10
-8.71352
 20
107.118
 11
-8.81445
 21
107.277
  0
LINE
  8
0
 10
-8.81445
 20
107.277
 11
-8.89465
 21
107.448
  0
LINE
  8
0
 10
-8.89465
 20
107.448
 11
-8.95287
 21
107.627
  0
LINE
  8
0
 10
-8.95287
 20
107.627
 11
-8.98816
 21
107.812
  0
LINE
  8
0
 10
-8.98816
 20
107.812
 11
-9
 21
108
  0
LINE
  8
0
 10
-9
 20
108
 11
-8.98816
 21
108.188
  0
LINE
  8
0
 10
-8.98816
 20
108.188
 11
-8.95287
 21
108.373
  0
LINE
  8
0
 10
-8.95287
 20
108.373
 11
-8.89465
 21
108.552
  0
LINE
  8
0
 10
-8.89465
 20
108.552
 11
-8.81445
 21
108.723
  0
LINE
  8
0
 10
-8.81445
 20
108.723
 11
-8.71352
 21
108.882
  0
LINE
  8
0
 10
-8.71352
 20
108.882
 11
-8.59344
 21
109.027
  0
LINE
  8
0
 10
-8.59344
 20
109.027
 11
-8.45613
 21
109.156
  0
LINE
  8
0
 10
-8.45613
 20
109.156
 11
-8.30373
 21
109.266
  0
LINE
  8
0
 10
-8.30373
 20
109.266
 11
-8.13866
 21
109.357
  0
LINE
  8
0
 10
-8.13866
 20
109.357
 11
-7.96352
 21
109.427
  0
LINE
  8
0
 10
-7.96352
 20
109.427
 11
-7.78107
 21
109.473
  0
LINE
  8
0
 10
-7.78107
 20
109.473
 11
-7.59418
 21
109.497
  0
LINE
  8
0
 10
-7.59418
 20
109.497
 11
-7.40581
 21
109.497
  0
LINE
  8
0
 10
-7.40581
 20
109.497
 11
-7.21892
 21
109.473
  0
LINE
  8
0
 10
-7.21892
 20
109.473
 11
-7.03647
 21
109.427
  0
LINE
  8
0
 10
-7.03647
 20
109.427
 11
-6.86133
 21
109.357
  0
LINE
  8
0
 10
-6.86133
 20
109.357
 11
-6.69626
 21
109.266
  0
LINE
  8
0
 10
-6.69626
 20
109.266
 11
-6.54385
 21
109.156
  0
LINE
  8
0
 10
-6.54385
 20
109.156
 11
-6.40654
 21
109.027
  0
LINE
  8
0
 10
-6.40654
 20
109.027
 11
-6.28647
 21
108.882
  0
LINE
  8
0
 10
-6.28647
 20
108.882
 11
-6.18553
 21
108.723
  0
LINE
  8
0
 10
-6.18553
 20
108.723
 11
-6.10533
 21
108.552
  0
LINE
  8
0
 10
-6.10533
 20
108.552
 11
-6.04712
 21
108.373
  0
LINE
  8
0
 10
-6.04712
 20
108.373
 11
-6.01183
 21
108.188
  0
LINE
  8
0
 10
-6.01183
 20
108.188
 11
-6
 21
108
  0
LINE
  8
0
 10
-6
 20
108
 11
-6.01183
 21
107.812
  0
LINE
  8
0
 10
-6.01183
 20
107.812
 11
-6.04712
 21
107.627
  0
LINE
  8
0
 10
-6.04712
 20
107.627
 11
-6.10533
 21
107.448
  0
LINE
  8
0
 10
-6.10533
 20
107.448
 11
-6.18553
 21
107.277
  0
LINE
  8
0
 10
-6.18553
 20
107.277
 11
-6.28647
 21
107.118
  0
LINE
  8
0
 10
-6.28647
 20
107.118
 11
-6.40654
 21
106.973
  0
LINE
  8
0
 10
-6.40654
 20
106.973
 11
-6.54385
 21
106.844
  0
LINE
  8
0
 10
-6.54385
 20
106.844
 11
-6.69626
 21
106.734
  0
LINE
  8
0
 10
-6.69626
 20
106.734
 11
-6.86133
 21
106.643
  0
LINE
  8
0
 10
-6.86133
 20
106.643
 11
-7.03647
 21
106.573
  0
LINE
  8
0
 10
-7.03647
 20
106.573
 11
-7.21892
 21
106.527
  0
LINE
  8
0
 10
-7.21892
 20
106.527
 11
-7.40581
 21
106.503
  0
LINE
  8
0
 10
-7.40581
 20
106.503
 11
-7.59418
 21
106.503
  0
LINE
  8
0
 10
7.40581
 20
106.503
 11
7.21892
 21
106.527
  0
LINE
  8
0
 10
7.21892
 20
106.527
 11
7.03647
 21
106.573
  0
LINE
  8
0
 10
7.03647
 20
106.573
 11
6.86133
 21
106.643
  0
LINE
  8
0
 10
6.86133
 20
106.643
 11
6.69626
 21
106.734
  0
LINE
  8
0
 10
6.69626
 20
106.734
 11
6.54385
 21
106.844
  0
LINE
  8
0
 10
6.54385
 20
106.844
 11
6.40654
 21
106.973
  0
LINE
  8
0
 10
6.40654
 20
106.973
 11
6.28647
 21
107.118
  0
LINE
  8
0
 10
6.28647
 20
107.118
 11
6.18553
 21
107.277
  0
LINE
  8
0
 10
6.18553
 20
107.277
 11
6.10533
 21
107.448
  0
LINE
  8
0
 10
6.10533
 20
107.448
 11
6.04712
 21
107.627
  0
LINE
  8
0
 10
6.04712
 20
107.627
 11
6.01183
 21
107.812
  0
LINE
  8
0
 10
6.01183
 20
107.812
 11
6
 21
108
  0
LINE
  8
0
 10
6
 20
108
 11
6.01183
 21
108.188
  0
LINE
  8
0
 10
6.01183
 20
108.188
 11
6.04712
 21
108.373
  0
LINE
  8
0
 10
6.04712
 20
108.373
 11
6.10533
 21
108.552
  0
LINE
  8
0
 10
6.10533
 20
108.552
 11
6.18553
 21
108.723
  0
LINE
  8
0
 10
6.18553
 20
108.723
 11
6.28647
 21
108.882
  0
LINE
  8
0
 10
6.28647
 20
108.882
 11
6.40654
 21
109.027
  0
LINE
  8
0
 10
6.40654
 20
109.027
 11
6.54385
 21
109.156
  0
LINE
  8
0
 10
6.54385
 20
109.156
 11
6.69626
 21
109.266
  0
LINE
  8
0
 10
6.69626
 20
109.266
 11
6.86133
 21
109.357
  0
LINE
  8
0
 10
6.86133
 20
109.357
 11
7.03647
 21
109.427
  0
LINE
  8
0
 10
7.03647
 20
109.427
 11
7.21892
 21
109.473
  0
LINE
  8
0
 10
7.21892
 20
109.473
 11
7.40581
 21
109.497
  0
LINE
  8
0
 10
7.40581
 20
109.497
 11
7.59418
 21
109.497
  0
LINE
  8
0
 10
7.59418
 20
109.497
 11
7.78107
 21
109.473
  0
LINE
  8
0
 10
7.78107
 20
109.473
 11
7.96352
 21
109.427
  0
LINE
  8
0
 10
7.96352
 20
109.427
 11
8.13866
 21
109.357
  0
LINE
  8
0
 10
8.13866
 20
109.357
 11
8.30373
 21
109.266
  0
LINE
  8
0
 10
8.30373
 20
109.266
 11
8.45613
 21
109.156
  0
LINE
  8
0
 10
8.45613
 20
109.156
 11
8.59344
 21
109.027
  0
LINE
  8
0
 10
8.59344
 20
109.027
 11
8.71352
 21
108.882
  0
LINE
  8
0
 10
8.71352
 20
108.882
 11
8.81445
 21
108.723
  0
LINE
  8
0
 10
8.81445
 20
108.723
 11
8.89465
 21
108.552
  0
LINE
  8
0
 10
8.89465
 20
108.552
 11
8.95287
 21
108.373
  0
LINE
  8
0
 10
8.95287
 20
108.373
 11
8.98816
 21
108.188
  0
LINE
  8
0
 10
8.98816
 20
108.188
 11
9
 21
108
  0
LINE
  8
0
 10
9
 20
108
 11
8.98816
 21
107.812
  0
LINE
  8
0
 10
8.98816
 20
107.812
 11
8.95287
 21
107.627
  0
LINE
  8
0
 10
8.95287
 20
107.627
 11
8.89465
 21
107.448
  0
LINE
  8
0
 10
8.89465
 20
107.448
 11
8.81445
 21
107.277
  0
LINE
  8
0
 10
8.81445
 20
107.277
 11
8.71352
 21
107.118
  0
LINE
  8
0
 10
8.71352
 20
107.118
 11
8.59344
 21
106.973
  0
LINE
  8
0
 10
8.59344
 20
106.973
 11
8.45613
 21
106.844
  0
LINE
  8
0
 10
8.45613
 20
106.844
 11
8.30373
 21
106.734
  0
LINE
  8
0
 10
8.30373
 20
106.734
 11
8.13866
 21
106.643
  0
LINE
  8
0
 10
8.13866
 20
106.643
 11
7.96352
 21
106.573
  0
LINE
  8
0
 10
7.96352
 20
106.573
 11
7.78107
 21
106.527
  0
LINE
  8
0
 10
7.78107
 20
106.527
 11
7.59418
 21
106.503
  0
LINE
  8
0
 10
7.59418
 20
106.503
 11
7.40581
 21
106.503
  0
LINE
  8
0
 10
17.9369
 20
47.0886
 11
18.5451
 21
47.2447
  0
LINE
  8
0
 10
18.5451
 20
47.2447
 11
19.1289
 21
47.4759
  0
LINE
  8
0
 10
19.1289
 20
47.4759
 11
19.6791
 21
47.7784
  0
LINE
  8
0
 10
19.6791
 20
47.7784
 11
20.1871
 21
48.1474
  0
LINE
  8
0
 10
20.1871
 20
48.1474
 11
20.6448
 21
48.5773
  0
LINE
  8
0
 10
20.6448
 20
48.5773
 11
21.0451
 21
49.0611
  0
LINE
  8
0
 10
21.0451
 20
49.0611
 11
21.3815
 21
49.5912
  0
LINE
  8
0
 10
21.3815
 20
49.5912
 11
21.6489
 21
50.1594
  0
LINE
  8
0
 10
21.6489
 20
50.1594
 11
21.8429
 21
50.7566
  0
LINE
  8
0
 10
21.8429
 20
50.7566
 11
21.9606
 21
51.3733
  0
LINE
  8
0
 10
21.9606
 20
51.3733
 11
22
 21
52
  0
LINE
  8
0
 10
22
 20
52
 11
22
 21
86
  0
LINE
  8
0
 10
22
 20
86
 11
21.9606
 21
86.6267
  0
LINE
  8
0
 10
21.9606
 20
86.6267
 11
21.8429
 21
87.2434
  0
LINE
  8
0
 10
21.8429
 20
87.2434
 11
21.6489
 21
87.8406
  0
LINE
  8
0
 10
21.6489
 20
87.8406
 11
21.3815
 21
88.4088
  0
LINE
  8
0
 10
21.3815
 20
88.4088
 11
21.0451
 21
88.9389
  0
LINE
  8
0
 10
21.0451
 20
88.9389
 11
20.6448
 21
89.4227
  0
LINE
  8
0
 10
20.6448
 20
89.4227
 11
20.1871
 21
89.8526
  0
LINE
  8
0
 10
20.1871
 20
89.8526
 11
19.6791
 21
90.2216
  0
LINE
  8
0
 10
19.6791
 20
90.2216
 11
19.1289
 21
90.5241
  0
LINE
  8
0
 10
19.1289
 20
90.5241
 11
18.5451
 21
90.7553
  0
LINE
  8
0
 10
18.5451
 20
90.7553
 11
17.9369
 21
90.9114
  0
LINE
  8
0
 10
17.9369
 20
90.9114
 11
17.3139
 21
90.9901
  0
LINE
  8
0
 10
17.3139
 20
90.9901
 11
12.686
 21
90.9901
  0
LINE
  8
0
 10
12.686
 20
90.9901
 11
12.0631
 21
90.9114
  0
LINE
  8
0
 10
12.0631
 20
90.9114
 11
11.4549
 21
90.7553
  0
LINE
  8
0
 10
11.4549
 20
90.7553
 11
10.8711
 21
90.5241
  0
LINE
  8
0
 10
10.8711
 20
90.5241
 11
10.3209
 21
90.2216
  0
LINE
  8
0
 10
10.3209
 20
90.2216
 11
9.81287
 21
89.8526
  0
LINE
  8
0
 10
9.81287
 20
89.8526
 11
9.35515
 21
89.4227
  0
LINE
  8
0
 10
9.35515
 20
89.4227
 11
8.95491
 21
88.9389
  0
LINE
  8
0
 10
8.95491
 20
88.9389
 11
8.61845
 21
88.4088
  0
LINE
  8
0
 10
8.61845
 20
88.4088
 11
8.3511
 21
87.8406
  0
LINE
  8
0
 10
8.3511
 20
87.8406
 11
8.15707
 21
87.2434
  0
LINE
  8
0
 10
8.15707
 20
87.2434
 11
8.03941
 21
86.6267
  0
LINE
  8
0
 10
8.03941
 20
86.6267
 11
8
 21
86
  0
LINE
  8
0
 10
8
 20
86
 11
8
 21
60.9901
  0
LINE
  8
0
 10
8
 20
60.9901
 11
-8
 21
60.9901
  0
LINE
  8
0
 10
-8
 20
60.9901
 11
-8
 21
86
  0
LINE
  8
0
 10
-8
 20
86
 11
-8.03941
 21
86.6267
  0
LINE
  8
0
 10
-8.03941
 20
86.6267
 11
-8.15707
 21
87.2434
  0
LINE
  8
0
 10
-8.15707
 20
87.2434
 11
-8.3511
 21
87.8406
  0
LINE
  8
0
 10
-8.3511
 20
87.8406
 11
-8.61845
 21
88.4088
  0
LINE
  8
0
 10
-8.61845
 20
88.4088
 11
-8.95491
 21
88.9389
  0
LINE
  8
0
 10
-8.95491
 20
88.9389
 11
-9.35515
 21
89.4227
  0
LINE
  8
0
 10
-9.35515
 20
89.4227
 11
-9.81287
 21
89.8526
  0
LINE
  8
0
 10
-9.81287
 20
89.8526
 11
-10.3209
 21
90.2216
  0
LINE
  8
0
 10
-10.3209
 20
90.2216
 11
-10.8711
 21
90.5241
  0
LINE
  8
0
 10
-10.8711
 20
90.5241
 11
-11.4549
 21
90.7553
  0
LINE
  8
0
 10
-11.4549
 20
90.7553
 11
-12.0631
 21
90.9114
  0
LINE
  8
0
 10
-12.0631
 20
90.9114
 11
-12.686
 21
90.9901
  0
LINE
  8
0
 10
-12.686
 20
90.9901
 11
-17.3139
 21
90.9901
  0
LINE
  8
0
 10
-17.3139
 20
90.9901
 11
-17.9369
 21
90.9114
  0
LINE
  8
0
 10
-17.9369
 20
90.9114
 11
-18.5451
 21
90.7553
  0
LINE
  8
0
 10
-18.5451
 20
90.7553
 11
-19.1289
 21
90.5241
  0
LINE
  8
0
 10
-19.1289
 20
90.5241
 11
-19.6791
 21
90.2216
  0
LINE
  8
0
 10
-19.6791
 20
90.2216
 11
-20.1871
 21
89.8526
  0
LINE
  8
0
 10
-20.1871
 20
89.8526
 11
-20.6448
 21
89.4227
  0
LINE
  8
0
 10
-20.6448
 20
89.4227
 11
-21.0451
 21
88.9389
  0
LINE
  8
0
 10
-21.0451
 20
88.9389
 11
-21.3815
 21
88.4088
  0
LINE
  8
0
 10
-21.3815
 20
88.4088
 11
-21.6489
 21
87.8406
  0
LINE
  8
0
 10
-21.6489
 20
87.8406
 11
-21.8429
 21
87.2434
  0
LINE
  8
0
 10
-21.8429
 20
87.2434
 11
-21.9606
 21
86.6267
  0
LINE
  8
0
 10
-21.9606
 20
86.6267
 11
-22
 21
86
  0
LINE
  8
0
 10
-22
 20
86
 11
-22
 21
52
  0
LINE
  8
0
 10
-22
 20
52
 11
-21.9606
 21
51.3733
  0
LINE
  8
0
 10
-21.9606
 20
51.3733
 11
-21.8429
 21
50.7566
  0
LINE
  8
0
 10
-21.8429
 20
50.7566
 11
-21.6489
 21
50.1594
  0
LINE
  8
0
 10
-21.6489
 20
50.1594
 11
-21.3815
 21
49.5912
  0
LINE
  8
0
 10
-21.3815
 20
49.5912
 11
-21.0451
 21
49.0611
  0
LINE
  8
0
 10
-21.0451
 20
49.0611
 11
-20.6448
 21
48.5773
  0
LINE
  8
0
 10
-20.6448
 20
48.5773
 11
-20.1871
 21
48.1474
  0
LINE
  8
0
 10
-20.1871
 20
48.1474
 11
-19.6791
 21
47.7784
  0
LINE
  8
0
 10
-19.6791
 20
47.7784
 11
-19.1289
 21
47.4759
  0
LINE
  8
0
 10
-19.1289
 20
47.4759
 11
-18.5451
 21
47.2447
  0
LINE
  8
0
 10
-18.5451
 20
47.2447
 11
-17.9369
 21
47.0886
  0
LINE
  8
0
 10
-17.9369
 20
47.0886
 11
-17.3139
 21
47.0099
  0
LINE
  8
0
 10
-17.3139
 20
47.0099
 11
17.3139
 21
47.0099
  0
LINE
  8
0
 10
17.3139
 20
47.0099
 11
17.9369
 21
47.0886
  0
LINE
  8
0
 10
14.8116
 20
81.0059
 11
14.4379
 21
81.0531
  0
LINE
  8
0
 10
14.4379
 20
81.0531
 11
14.0729
 21
81.1468
  0
LINE
  8
0
 10
14.0729
 20
81.1468
 11
13.7227
 21
81.2855
  0
LINE
  8
0
 10
13.7227
 20
81.2855
 11
13.3925
 21
81.467
  0
LINE
  8
0
 10
13.3925
 20
81.467
 11
13.0877
 21
81.6884
  0
LINE
  8
0
 10
13.0877
 20
81.6884
 11
12.8131
 21
81.9464
  0
LINE
  8
0
 10
12.8131
 20
81.9464
 11
12.5729
 21
82.2366
  0
LINE
  8
0
 10
12.5729
 20
82.2366
 11
12.3711
 21
82.5547
  0
LINE
  8
0
 10
12.3711
 20
82.5547
 11
12.2107
 21
82.8956
  0
LINE
  8
0
 10
12.2107
 20
82.8956
 11
12.0942
 21
83.2539
  0
LINE
  8
0
 10
12.0942
 20
83.2539
 11
12.0237
 21
83.624
  0
LINE
  8
0
 10
12.0237
 20
83.624
 11
12
 21
84
  0
LINE
  8
0
 10
12
 20
84
 11
12.0237
 21
84.376
  0
LINE
  8
0
 10
12.0237
 20
84.376
 11
12.0942
 21
84.7461
  0
LINE
  8
0
 10
12.0942
 20
84.7461
 11
12.2107
 21
85.1044
  0
LINE
  8
0
 10
12.2107
 20
85.1044
 11
12.3711
 21
85.4453
  0
LINE
  8
0
 10
12.3711
 20
85.4453
 11
12.5729
 21
85.7634
  0
LINE
  8
0
 10
12.5729
 20
85.7634
 11
12.8131
 21
86.0536
  0
LINE
  8
0
 10
12.8131
 20
86.0536
 11
13.0877
 21
86.3115
  0
LINE
  8
0
 10
13.0877
 20
86.3115
 11
13.3925
 21
86.533
  0
LINE
  8
0
 10
13.3925
 20
86.533
 11
13.7227
 21
86.7145
  0
LINE
  8
0
 10
13.7227
 20
86.7145
 11
14.0729
 21
86.8532
  0
LINE
  8
0
 10
14.0729
 20
86.8532
 11
14.4379
 21
86.9469
  0
LINE
  8
0
 10
14.4379
 20
86.9469
 11
14.8116
 21
86.9941
  0
LINE
  8
0
 10
14.8116
 20
86.9941
 11
15.1884
 21
86.9941
  0
LINE
  8
0
 10
15.1884
 20
86.9941
 11
15.5621
 21
86.9469
  0
LINE
  8
0
 10
15.5621
 20
86.9469
 11
15.927
 21
86.8532
  0
LINE
  8
0
 10
15.927
 20
86.8532
 11
16.2773
 21
86.7145
  0
LINE
  8
0
 10
16.2773
 20
86.7145
 11
16.6075
 21
86.533
  0
LINE
  8
0
 10
16.6075
 20
86.533
 11
16.9123
 21
86.3115
  0
LINE
  8
0
 10
16.9123
 20
86.3115
 11
17.1869
 21
86.0536
  0
LINE
  8
0
 10
17.1869
 20
86.0536
 11
17.427
 21
85.7634
  0
LINE
  8
0
 10
17.427
 20
85.7634
 11
17.6289
 21
85.4453
  0
LINE
  8
0
 10
17.6289
 20
85.4453
 11
17.7893
 21
85.1044
  0
LINE
  8
0
 10
17.7893
 20
85.1044
 11
17.9057
 21
84.7461
  0
LINE
  8
0
 10
17.9057
 20
84.7461
 11
17.9763
 21
84.376
  0
LINE
  8
0
 10
17.9763
 20
84.376
 11
18
 21
84
  0
LINE
  8
0
 10
18
 20
84
 11
17.9763
 21
83.624
  0
LINE
  8
0
 10
17.9763
 20
83.624
 11
17.9057
 21
83.2539
  0
LINE
  8
0
 10
17.9057
 20
83.2539
 11
17.7893
 21
82.8956
  0
LINE
  8
0
 10
17.7893
 20
82.8956
 11
17.6289
 21
82.5547
  0
LINE
  8
0
 10
17.6289
 20
82.5547
 11
17.427
 21
82.2366
  0
LINE
  8
0
 10
17.427
 20
82.2366
 11
17.1869
 21
81.9464
  0
LINE
  8
0
 10
17.1869
 20
81.9464
 11
16.9123
 21
81.6884
  0
LINE
  8
0
 10
16.9123
 20
81.6884
 11
16.6075
 21
81.467
  0
LINE
  8
0
 10
16.6075
 20
81.467
 11
16.2773
 21
81.2855
  0
LINE
  8
0
 10
16.2773
 20
81.2855
 11
15.927
 21
81.1468
  0
LINE
  8
0
 10
15.927
 20
81.1468
 11
15.5621
 21
81.0531
  0
LINE
  8
0
 10
15.5621
 20
81.0531
 11
15.1884
 21
81.0059
  0
LINE
  8
0
 10
15.1884
 20
81.0059
 11
14.8116
 21
81.0059
  0
LINE
  8
0
 10
-15.1884
 20
81.0059
 11
-15.5621
 21
81.0531
  0
LINE
  8
0
 10
-15.5621
 20
81.0531
 11
-15.927
 21
81.1468
  0
LINE
  8
0
 10
-15.927
 20
81.1468
 11
-16.2773
 21
81.2855
  0
LINE
  8
0
 10
-16.2773
 20
81.2855
 11
-16.6075
 21
81.467
  0
LINE
  8
0
 10
-16.6075
 20
81.467
 11
-16.9123
 21
81.6884
  0
LINE
  8
0
 10
-16.9123
 20
81.6884
 11
-17.1869
 21
81.9464
  0
LINE
  8
0
 10
-17.1869
 20
81.9464
 11
-17.427
 21
82.2366
  0
LINE
  8
0
 10
-17.427
 20
82.2366
 11
-17.6289
 21
82.5547
  0
LINE
  8
0
 10
-17.6289
 20
82.5547
 11
-17.7893
 21
82.8956
  0
LINE
  8
0
 10
-17.7893
 20
82.8956
 11
-17.9057
 21
83.2539
  0
LINE
  8
0
 10
-17.9057
 20
83.2539
 11
-17.9763
 21
83.624
  0
LINE
  8
0
 10
-17.9763
 20
83.624
 11
-18
 21
84
  0
LINE
  8
0
 10
-18
 20
84
 11
-17.9763
 21
84.376
  0
LINE
  8
0
 10
-17.9763
 20
84.376
 11
-17.9057
 21
84.7461
  0
LINE
  8
0
 10
-17.9057
 20
84.7461
 11
-17.7893
 21
85.1044
  0
LINE
  8
0
 10
-17.7893
 20
85.1044
 11
-17.6289
 21
85.4453
  0
LINE
  8
0
 10
-17.6289
 20
85.4453
 11
-17.427
 21
85.7634
  0
LINE
  8
0
 10
-17.427
 20
85.7634
 11
-17.1869
 21
86.0536
  0
LINE
  8
0
 10
-17.1869
 20
86.0536
 11
-16.9123
 21
86.3115
  0
LINE
  8
0
 10
-16.9123
 20
86.3115
 11
-16.6075
 21
86.533
  0
LINE
  8
0
 10
-16.6075
 20
86.533
 11
-16.2773
 21
86.7145
  0
LINE
  8
0
 10
-16.2773
 20
86.7145
 11
-15.927
 21
86.8532
  0
LINE
  8
0
 10
-15.927
 20
86.8532
 11
-15.5621
 21
86.9469
  0
LINE
  8
0
 10
-15.5621
 20
86.9469
 11
-15.1884
 21
86.9941
  0
LINE
  8
0
 10
-15.1884
 20
86.9941
 11
-14.8116
 21
86.9941
  0
LINE
  8
0
 10
-14.8116
 20
86.9941
 11
-14.4379
 21
86.9469
  0
LINE
  8
0
 10
-14.4379
 20
86.9469
 11
-14.0729
 21
86.8532
  0
LINE
  8
0
 10
-14.0729
 20
86.8532
 11
-13.7227
 21
86.7145
  0
LINE
  8
0
 10
-13.7227
 20
86.7145
 11
-13.3925
 21
86.533
  0
LINE
  8
0
 10
-13.3925
 20
86.533
 11
-13.0877
 21
86.3115
  0
LINE
  8
0
 10
-13.0877
 20
86.3115
 11
-12.8131
 21
86.0536
  0
LINE
  8
0
 10
-12.8131
 20
86.0536
 11
-12.5729
 21
85.7634
  0
LINE
  8
0
 10
-12.5729
 20
85.7634
 11
-12.3711
 21
85.4453
  0
LINE
  8
0
 10
-12.3711
 20
85.4453
 11
-12.2107
 21
85.1044
  0
LINE
  8
0
 10
-12.2107
 20
85.1044
 11
-12.0942
 21
84.7461
  0
LINE
  8
0
 10
-12.0942
 20
84.7461
 11
-12.0237
 21
84.376
  0
LINE
  8
0
 10
-12.0237
 20
84.376
 11
-12
 21
84
  0
LINE
  8
0
 10
-12
 20
84
 11
-12.0237
 21
83.624
  0
LINE
  8
0
 10
-12.0237
 20
83.624
 11
-12.0942
 21
83.2539
  0
LINE
  8
0
 10
-12.0942
 20
83.2539
 11
-12.2107
 21
82.8956
  0
LINE
  8
0
 10
-12.2107
 20
82.8956
 11
-12.3711
 21
82.5547
  0
LINE
  8
0
 10
-12.3711
 20
82.5547
 11
-12.5729
 21
82.2366
  0
LINE
  8
0
 10
-12.5729
 20
82.2366
 11
-12.8131
 21
81.9464
  0
LINE
  8
0
 10
-12.8131
 20
81.9464
 11
-13.0877
 21
81.6884
  0
LINE
  8
0
 10
-13.0877
 20
81.6884
 11
-13.3925
 21
81.467
  0
LINE
  8
0
 10
-13.3925
 20
81.467
 11
-13.7227
 21
81.2855
  0
LINE
  8
0
 10
-13.7227
 20
81.2855
 11
-14.0729
 21
81.1468
  0
LINE
  8
0
 10
-14.0729
 20
81.1468
 11
-14.4379
 21
81.0531
  0
LINE
  8
0
 10
-14.4379
 20
81.0531
 11
-14.8116
 21
81.0059
  0
LINE
  8
0
 10
-14.8116
 20
81.0059
 11
-15.1884
 21
81.0059
  0
LINE
  8
0
 10
14.9058
 20
75.003
 11
14.7189
 21
75.0266
  0
LINE
  8
0
 10
14.7189
 20
75.0266
 11
14.5365
 21
75.0734
  0
LINE
  8
0
 10
14.5365
 20
75.0734
 11
14.3613
 21
75.1427
  0
LINE
  8
0
 10
14.3613
 20
75.1427
 11
14.1963
 21
75.2335
  0
LINE
  8
0
 10
14.1963
 20
75.2335
 11
14.0439
 21
75.3442
  0
LINE
  8
0
 10
14.0439
 20
75.3442
 11
13.9065
 21
75.4732
  0
LINE
  8
0
 10
13.9065
 20
75.4732
 11
13.7865
 21
75.6183
  0
LINE
  8
0
 10
13.7865
 20
75.6183
 11
13.6855
 21
75.7774
  0
LINE
  8
0
 10
13.6855
 20
75.7774
 11
13.6053
 21
75.9478
  0
LINE
  8
0
 10
13.6053
 20
75.9478
 11
13.5471
 21
76.127
  0
LINE
  8
0
 10
13.5471
 20
76.127
 11
13.5118
 21
76.312
  0
LINE
  8
0
 10
13.5118
 20
76.312
 11
13.5
 21
76.5
  0
LINE
  8
0
 10
13.5
 20
76.5
 11
13.5118
 21
76.688
  0
LINE
  8
0
 10
13.5118
 20
76.688
 11
13.5471
 21
76.873
  0
LINE
  8
0
 10
13.5471
 20
76.873
 11
13.6053
 21
77.0522
  0
LINE
  8
0
 10
13.6053
 20
77.0522
 11
13.6855
 21
77.2226
  0
LINE
  8
0
 10
13.6855
 20
77.2226
 11
13.7865
 21
77.3817
  0
LINE
  8
0
 10
13.7865
 20
77.3817
 11
13.9065
 21
77.5268
  0
LINE
  8
0
 10
13.9065
 20
77.5268
 11
14.0439
 21
77.6558
  0
LINE
  8
0
 10
14.0439
 20
77.6558
 11
14.1963
 21
77.7665
  0
LINE
  8
0
 10
14.1963
 20
77.7665
 11
14.3613
 21
77.8572
  0
LINE
  8
0
 10
14.3613
 20
77.8572
 11
14.5365
 21
77.9266
  0
LINE
  8
0
 10
14.5365
 20
77.9266
 11
14.7189
 21
77.9734
  0
LINE
  8
0
 10
14.7189
 20
77.9734
 11
14.9058
 21
77.997
  0
LINE
  8
0
 10
14.9058
 20
77.997
 11
15.0942
 21
77.997
  0
LINE
  8
0
 10
15.0942
 20
77.997
 11
15.2811
 21
77.9734
  0
LINE
  8
0
 10
15.2811
 20
77.9734
 11
15.4635
 21
77.9266
  0
LINE
  8
0
 10
15.4635
 20
77.9266
 11
15.6387
 21
77.8572
  0
LINE
  8
0
 10
15.6387
 20
77.8572
 11
15.8037
 21
77.7665
  0
LINE
  8
0
 10
15.8037
 20
77.7665
 11
15.9561
 21
77.6558
  0
LINE
  8
0
 10
15.9561
 20
77.6558
 11
16.0934
 21
77.5268
  0
LINE
  8
0
 10
16.0934
 20
77.5268
 11
16.2135
 21
77.3817
  0
LINE
  8
0
 10
16.2135
 20
77.3817
 11
16.3145
 21
77.2226
  0
LINE
  8
0
 10
16.3145
 20
77.2226
 11
16.3947
 21
77.0522
  0
LINE
  8
0
 10
16.3947
 20
77.0522
 11
16.4529
 21
76.873
  0
LINE
  8
0
 10
16.4529
 20
76.873
 11
16.4882
 21
76.688
  0
LINE
  8
0
 10
16.4882
 20
76.688
 11
16.5
 21
76.5
  0
LINE
  8
0
 10
16.5
 20
76.5
 11
16.4882
 21
76.312
  0
LINE
  8
0
 10
16.4882
 20
76.312
 11
16.4529
 21
76.127
  0
LINE
  8
0
 10
16.4529
 20
76.127
 11
16.3947
 21
75.9478
  0
LINE
  8
0
 10
16.3947
 20
75.9478
 11
16.3145
 21
75.7774
  0
LINE
  8
0
 10
16.3145
 20
75.7774
 11
16.2135
 21
75.6183
  0
LINE
  8
0
 10
16.2135
 20
75.6183
 11
16.0934
 21
75.4732
  0
LINE
  8
0
 10
16.0934
 20
75.4732
 11
15.9561
 21
75.3442
  0
LINE
  8
0
 10
15.9561
 20
75.3442
 11
15.8037
 21
75.2335
  0
LINE
  8
0
 10
15.8037
 20
75.2335
 11
15.6387
 21
75.1427
  0
LINE
  8
0
 10
15.6387
 20
75.1427
 11
15.4635
 21
75.0734
  0
LINE
  8
0
 10
15.4635
 20
75.0734
 11
15.2811
 21
75.0266
  0
LINE
  8
0
 10
15.2811
 20
75.0266
 11
15.0942
 21
75.003
  0
LINE
  8
0
 10
15.0942
 20
75.003
 11
14.9058
 21
75.003
  0
LINE
  8
0
 10
-15.0942
 20
75.003
 11
-15.2811
 21
75.0266
  0
LINE
  8
0
 10
-15.2811
 20
75.0266
 11
-15.4635
 21
75.0734
  0
LINE
  8
0
 10
-15.4635
 20
75.0734
 11
-15.6387
 21
75.1427
  0
LINE
  8
0
 10
-15.6387
 20
75.1427
 11
-15.8037
 21
75.2335
  0
LINE
  8
0
 10
-15.8037
 20
75.2335
 11
-15.9561
 21
75.3442
  0
LINE
  8
0
 10
-15.9561
 20
75.3442
 11
-16.0934
 21
75.4732
  0
LINE
  8
0
 10
-16.0934
 20
75.4732
 11
-16.2135
 21
75.6183
  0
LINE
  8
0
 10
-16.2135
 20
75.6183
 11
-16.3145
 21
75.7774
  0
LINE
  8
0
 10
-16.3145
 20
75.7774
 11
-16.3947
 21
75.9478
  0
LINE
  8
0
 10
-16.3947
 20
75.9478
 11
-16.4529
 21
76.127
  0
LINE
  8
0
 10
-16.4529
 20
76.127
 11
-16.4882
 21
76.312
  0
LINE
  8
0
 10
-16.4882
 20
76.312
 11
-16.5
 21
76.5
  0
LINE
  8
0
 10
-16.5
 20
76.5
 11
-16.4882
 21
76.688
  0
LINE
  8
0
 10
-16.4882
 20
76.688
 11
-16.4529
 21
76.873
  0
LINE
  8
0
 10
-16.4529
 20
76.873
 11
-16.3947
 21
77.0522
  0
LINE
  8
0
 10
-16.3947
 20
77.0522
 11
-16.3145
 21
77.2226
  0
LINE
  8
0
 10
-16.3145
 20
77.2226
 11
-16.2135
 21
77.3817
  0
LINE
  8
0
 10
-16.2135
 20
77.3817
 11
-16.0934
 21
77.5268
  0
LINE
  8
0
 10
-16.0934
 20
77.5268
 11
-15.9561
 21
77.6558
  0
LINE
  8
0
 10
-15.9561
 20
77.6558
 11
-15.8037
 21
77.7665
  0
LINE
  8
0
 10
-15.8037
 20
77.7665
 11
-15.6387
 21
77.8572
  0
LINE
  8
0
 10
-15.6387
 20
77.8572
 11
-15.4635
 21
77.9266
  0
LINE
  8
0
 10
-15.4635
 20
77.9266
 11
-15.2811
 21
77.9734
  0
LINE
  8
0
 10
-15.2811
 20
77.9734
 11
-15.0942
 21
77.997
  0
LINE
  8
0
 10
-15.0942
 20
77.997
 11
-14.9058
 21
77.997
  0
LINE
  8
0
 10
-14.9058
 20
77.997
 11
-14.7189
 21
77.9734
  0
LINE
  8
0
 10
-14.7189
 20
77.9734
 11
-14.5365
 21
77.9266
  0
LINE
  8
0
 10
-14.5365
 20
77.9266
 11
-14.3613
 21
77.8572
  0
LINE
  8
0
 10
-14.3613
 20
77.8572
 11
-14.1963
 21
77.7665
  0
LINE
  8
0
 10
-14.1963
 20
77.7665
 11
-14.0439
 21
77.6558
  0
LINE
  8
0
 10
-14.0439
 20
77.6558
 11
-13.9065
 21
77.5268
  0
LINE
  8
0
 10
-13.9065
 20
77.5268
 11
-13.7865
 21
77.3817
  0
LINE
  8
0
 10
-13.7865
 20
77.3817
 11
-13.6855
 21
77.2226
  0
LINE
  8
0
 10
-13.6855
 20
77.2226
 11
-13.6053
 21
77.0522
  0
LINE
  8
0
 10
-13.6053
 20
77.0522
 11
-13.5471
 21
76.873
  0
LINE
  8
0
 10
-13.5471
 20
76.873
 11
-13.5118
 21
76.688
  0
LINE
  8
0
 10
-13.5118
 20
76.688
 11
-13.5
 21
76.5
  0
LINE
  8
0
 10
-13.5
 20
76.5
 11
-13.5118
 21
76.312
  0
LINE
  8
0
 10
-13.5118
 20
76.312
 11
-13.5471
 21
76.127
  0
LINE
  8
0
 10
-13.5471
 20
76.127
 11
-13.6053
 21
75.9478
  0
LINE
  8
0
 10
-13.6053
 20
75.9478
 11
-13.6855
 21
75.7774
  0
LINE
  8
0
 10
-13.6855
 20
75.7774
 11
-13.7865
 21
75.6183
  0
LINE
  8
0
 10
-13.7865
 20
75.6183
 11
-13.9065
 21
75.4732
  0
LINE
  8
0
 10
-13.9065
 20
75.4732
 11
-14.0439
 21
75.3442
  0
LINE
  8
0
 10
-14.0439
 20
75.3442
 11
-14.1963
 21
75.2335
  0
LINE
  8
0
 10
-14.1963
 20
75.2335
 11
-14.3613
 21
75.1427
  0
LINE
  8
0
 10
-14.3613
 20
75.1427
 11
-14.5365
 21
75.0734
  0
LINE
  8
0
 10
-14.5365
 20
75.0734
 11
-14.7189
 21
75.0266
  0
LINE
  8
0
 10
-14.7189
 20
75.0266
 11
-14.9058
 21
75.003
  0
LINE
  8
0
 10
-14.9058
 20
75.003
 11
-15.0942
 21
75.003
  0
LINE
  8
0
 10
14.8116
 20
66.0059
 11
14.4379
 21
66.0531
  0
LINE
  8
0
 10
14.4379
 20
66.0531
 11
14.0729
 21
66.1468
  0
LINE
  8
0
 10
14.0729
 20
66.1468
 11
13.7227
 21
66.2855
  0
LINE
  8
0
 10
13.7227
 20
66.2855
 11
13.3925
 21
66.467
  0
LINE
  8
0
 10
13.3925
 20
66.467
 11
13.0877
 21
66.6884
  0
LINE
  8
0
 10
13.0877
 20
66.6884
 11
12.8131
 21
66.9464
  0
LINE
  8
0
 10
12.8131
 20
66.9464
 11
12.5729
 21
67.2366
  0
LINE
  8
0
 10
12.5729
 20
67.2366
 11
12.3711
 21
67.5547
  0
LINE
  8
0
 10
12.3711
 20
67.5547
 11
12.2107
 21
67.8956
  0
LINE
  8
0
 10
12.2107
 20
67.8956
 11
12.0942
 21
68.2539
  0
LINE
  8
0
 10
12.0942
 20
68.2539
 11
12.0237
 21
68.624
  0
LINE
  8
0
 10
12.0237
 20
68.624
 11
12
 21
69
  0
LINE
  8
0
 10
12
 20
69
 11
12.0237
 21
69.376
  0
LINE
  8
0
 10
12.0237
 20
69.376
 11
12.0942
 21
69.7461
  0
LINE
  8
0
 10
12.0942
 20
69.7461
 11
12.2107
 21
70.1044
  0
LINE
  8
0
 10
12.2107
 20
70.1044
 11
12.3711
 21
70.4453
  0
LINE
  8
0
 10
12.3711
 20
70.4453
 11
12.5729
 21
70.7634
  0
LINE
  8
0
 10
12.5729
 20
70.7634
 11
12.8131
 21
71.0536
  0
LINE
  8
0
 10
12.8131
 20
71.0536
 11
13.0877
 21
71.3115
  0
LINE
  8
0
 10
13.0877
 20
71.3115
 11
13.3925
 21
71.533
  0
LINE
  8
0
 10
13.3925
 20
71.533
 11
13.7227
 21
71.7145
  0
LINE
  8
0
 10
13.7227
 20
71.7145
 11
14.0729
 21
71.8532
  0
LINE
  8
0
 10
14.0729
 20
71.8532
 11
14.4379
 21
71.9469
  0
LINE
  8
0
 10
14.4379
 20
71.9469
 11
14.8116
 21
71.9941
  0
LINE
  8
0
 10
14.8116
 20
71.9941
 11
15.1884
 21
71.9941
  0
LINE
  8
0
 10
15.1884
 20
71.9941
 11
15.5621
 21
71.9469
  0
LINE
  8
0
 10
15.5621
 20
71.9469
 11
15.927
 21
71.8532
  0
LINE
  8
0
 10
15.927
 20
71.8532
 11
16.2773
 21
71.7145
  0
LINE
  8
0
 10
16.2773
 20
71.7145
 11
16.6075
 21
71.533
  0
LINE
  8
0
 10
16.6075
 20
71.533
 11
16.9123
 21
71.3115
  0
LINE
  8
0
 10
16.9123
 20
71.3115
 11
17.1869
 21
71.0536
  0
LINE
  8
0
 10
17.1869
 20
71.0536
 11
17.427
 21
70.7634
  0
LINE
  8
0
 10
17.427
 20
70.7634
 11
17.6289
 21
70.4453
  0
LINE
  8
0
 10
17.6289
 20
70.4453
 11
17.7893
 21
70.1044
  0
LINE
  8
0
 10
17.7893
 20
70.1044
 11
17.9057
 21
69.7461
  0
LINE
  8
0
 10
17.9057
 20
69.7461
 11
17.9763
 21
69.376
  0
LINE
  8
0
 10
17.9763
 20
69.376
 11
18
 21
69
  0
LINE
  8
0
 10
18
 20
69
 11
17.9763
 21
68.624
  0
LINE
  8
0
 10
17.9763
 20
68.624
 11
17.9057
 21
68.2539
  0
LINE
  8
0
 10
17.9057
 20
68.2539
 11
17.7893
 21
67.8956
  0
LINE
  8
0
 10
17.7893
 20
67.8956
 11
17.6289
 21
67.5547
  0
LINE
  8
0
 10
17.6289
 20
67.5547
 11
17.427
 21
67.2366
  0
LINE
  8
0
 10
17.427
 20
67.2366
 11
17.1869
 21
66.9464
  0
LINE
  8
0
 10
17.1869
 20
66.9464
 11
16.9123
 21
66.6884
  0
LINE
  8
0
 10
16.9123
 20
66.6884
 11
16.6075
 21
66.467
  0
LINE
  8
0
 10
16.6075
 20
66.467
 11
16.2773
 21
66.2855
  0
LINE
  8
0
 10
16.2773
 20
66.2855
 11
15.927
 21
66.1468
  0
LINE
  8
0
 10
15.927
 20
66.1468
 11
15.5621
 21
66.0531
  0
LINE
  8
0
 10
15.5621
 20
66.0531
 11
15.1884
 21
66.0059
  0
LINE
  8
0
 10
15.1884
 20
66.0059
 11
14.8116
 21
66.0059
  0
LINE
  8
0
 10
-15.1884
 20
66.0059
 11
-15.5621
 21
66.0531
  0
LINE
  8
0
 10
-15.5621
 20
66.0531
 11
-15.927
 21
66.1468
  0
LINE
  8
0
 10
-15.927
 20
66.1468
 11
-16.2773
 21
66.2855
  0
LINE
  8
0
 10
-16.2773
 20
66.2855
 11
-16.6075
 21
66.467
  0
LINE
  8
0
 10
-16.6075
 20
66.467
 11
-16.9123
 21
66.6884
  0
LINE
  8
0
 10
-16.9123
 20
66.6884
 11
-17.1869
 21
66.9464
  0
LINE
  8
0
 10
-17.1869
 20
66.9464
 11
-17.427
 21
67.2366
  0
LINE
  8
0
 10
-17.427
 20
67.2366
 11
-17.6289
 21
67.5547
  0
LINE
  8
0
 10
-17.6289
 20
67.5547
 11
-17.7893
 21
67.8956
  0
LINE
  8
0
 10
-17.7893
 20
67.8956
 11
-17.9057
 21
68.2539
  0
LINE
  8
0
 10
-17.9057
 20
68.2539
 11
-17.9763
 21
68.624
  0
LINE
  8
0
 10
-17.9763
 20
68.624
 11
-18
 21
69
  0
LINE
  8
0
 10
-18
 20
69
 11
-17.9763
 21
69.376
  0
LINE
  8
0
 10
-17.9763
 20
69.376
 11
-17.9057
 21
69.7461
  0
LINE
  8
0
 10
-17.9057
 20
69.7461
 11
-17.7893
 21
70.1044
  0
LINE
  8
0
 10
-17.7893
 20
70.1044
 11
-17.6289
 21
70.4453
  0
LINE
  8
0
 10
-17.6289
 20
70.4453
 11
-17.427
 21
70.7634
  0
LINE
  8
0
 10
-17.427
 20
70.7634
 11
-17.1869
 21
71.0536
  0
LINE
  8
0
 10
-17.1869
 20
71.0536
 11
-16.9123
 21
71.3115
  0
LINE
  8
0
 10
-16.9123
 20
71.3115
 11
-16.6075
 21
71.533
  0
LINE
  8
0
 10
-16.6075
 20
71.533
 11
-16.2773
 21
71.7145
  0
LINE
  8
0
 10
-16.2773
 20
71.7145
 11
-15.927
 21
71.8532
  0
LINE
  8
0
 10
-15.927
 20
71.8532
 11
-15.5621
 21
71.9469
  0
LINE
  8
0
 10
-15.5621
 20
71.9469
 11
-15.1884
 21
71.9941
  0
LINE
  8
0
 10
-15.1884
 20
71.9941
 11
-14.8116
 21
71.9941
  0
LINE
  8
0
 10
-14.8116
 20
71.9941
 11
-14.4379
 21
71.9469
  0
LINE
  8
0
 10
-14.4379
 20
71.9469
 11
-14.0729
 21
71.8532
  0
LINE
  8
0
 10
-14.0729
 20
71.8532
 11
-13.7227
 21
71.7145
  0
LINE
  8
0
 10
-13.7227
 20
71.7145
 11
-13.3925
 21
71.533
  0
LINE
  8
0
 10
-13.3925
 20
71.533
 11
-13.0877
 21
71.3115
  0
LINE
  8
0
 10
-13.0877
 20
71.3115
 11
-12.8131
 21
71.0536
  0
LINE
  8
0
 10
-12.8131
 20
71.0536
 11
-12.5729
 21
70.7634
  0
LINE
  8
0
 10
-12.5729
 20
70.7634
 11
-12.3711
 21
70.4453
  0
LINE
  8
0
 10
-12.3711
 20
70.4453
 11
-12.2107
 21
70.1044
  0
LINE
  8
0
 10
-12.2107
 20
70.1044
 11
-12.0942
 21
69.7461
  0
LINE
  8
0
 10
-12.0942
 20
69.7461
 11
-12.0237
 21
69.376
  0
LINE
  8
0
 10
-12.0237
 20
69.376
 11
-12
 21
69
  0
LINE
  8
0
 10
-12
 20
69
 11
-12.0237
 21
68.624
  0
LINE
  8
0
 10
-12.0237
 20
68.624
 11
-12.0942
 21
68.2539
  0
LINE
  8
0
 10
-12.0942
 20
68.2539
 11
-12.2107
 21
67.8956
  0
LINE
  8
0
 10
-12.2107
 20
67.8956
 11
-12.3711
 21
67.5547
  0
LINE
  8
0
 10
-12.3711
 20
67.5547
 11
-12.5729
 21
67.2366
  0
LINE
  8
0
 10
-12.5729
 20
67.2366
 11
-12.8131
 21
66.9464
  0
LINE
  8
0
 10
-12.8131
 20
66.9464
 11
-13.0877
 21
66.6884
  0
LINE
  8
0
 10
-13.0877
 20
66.6884
 11
-13.3925
 21
66.467
  0
LINE
  8
0
 10
-13.3925
 20
66.467
 11
-13.7227
 21
66.2855
  0
LINE
  8
0
 10
-13.7227
 20
66.2855
 11
-14.0729
 21
66.1468
  0
LINE
  8
0
 10
-14.0729
 20
66.1468
 11
-14.4379
 21
66.0531
  0
LINE
  8
0
 10
-14.4379
 20
66.0531
 11
-14.8116
 21
66.0059
  0
LINE
  8
0
 10
-14.8116
 20
66.0059
 11
-15.1884
 21
66.0059
  0
LINE
  8
0
 10
-15.0942
 20
60.0029
 11
-15.2811
 21
60.0266
  0
LINE
  8
0
 10
-15.2811
 20
60.0266
 11
-15.4635
 21
60.0734
  0
LINE
  8
0
 10
-15.4635
 20
60.0734
 11
-15.6387
 21
60.1427
  0
LINE
  8
0
 10
-15.6387
 20
60.1427
 11
-15.8037
 21
60.2335
  0
LINE
  8
0
 10
-15.8037
 20
60.2335
 11
-15.9561
 21
60.3442
  0
LINE
  8
0
 10
-15.9561
 20
60.3442
 11
-16.0934
 21
60.4732
  0
LINE
  8
0
 10
-16.0934
 20
60.4732
 11
-16.2135
 21
60.6183
  0
LINE
  8
0
 10
-16.2135
 20
60.6183
 11
-16.3145
 21
60.7774
  0
LINE
  8
0
 10
-16.3145
 20
60.7774
 11
-16.3947
 21
60.9478
  0
LINE
  8
0
 10
-16.3947
 20
60.9478
 11
-16.4529
 21
61.127
  0
LINE
  8
0
 10
-16.4529
 20
61.127
 11
-16.4882
 21
61.312
  0
LINE
  8
0
 10
-16.4882
 20
61.312
 11
-16.5
 21
61.5
  0
LINE
  8
0
 10
-16.5
 20
61.5
 11
-16.4882
 21
61.688
  0
LINE
  8
0
 10
-16.4882
 20
61.688
 11
-16.4529
 21
61.873
  0
LINE
  8
0
 10
-16.4529
 20
61.873
 11
-16.3947
 21
62.0522
  0
LINE
  8
0
 10
-16.3947
 20
62.0522
 11
-16.3145
 21
62.2226
  0
LINE
  8
0
 10
-16.3145
 20
62.2226
 11
-16.2135
 21
62.3817
  0
LINE
  8
0
 10
-16.2135
 20
62.3817
 11
-16.0934
 21
62.5268
  0
LINE
  8
0
 10
-16.0934
 20
62.5268
 11
-15.9561
 21
62.6558
  0
LINE
  8
0
 10
-15.9561
 20
62.6558
 11
-15.8037
 21
62.7665
  0
LINE
  8
0
 10
-15.8037
 20
62.7665
 11
-15.6387
 21
62.8572
  0
LINE
  8
0
 10
-15.6387
 20
62.8572
 11
-15.4635
 21
62.9266
  0
LINE
  8
0
 10
-15.4635
 20
62.9266
 11
-15.2811
 21
62.9734
  0
LINE
  8
0
 10
-15.2811
 20
62.9734
 11
-15.0942
 21
62.997
  0
LINE
  8
0
 10
-15.0942
 20
62.997
 11
-14.9058
 21
62.997
  0
LINE
  8
0
 10
-14.9058
 20
62.997
 11
-14.7189
 21
62.9734
  0
LINE
  8
0
 10
-14.7189
 20
62.9734
 11
-14.5365
 21
62.9266
  0
LINE
  8
0
 10
-14.5365
 20
62.9266
 11
-14.3613
 21
62.8572
  0
LINE
  8
0
 10
-14.3613
 20
62.8572
 11
-14.1963
 21
62.7665
  0
LINE
  8
0
 10
-14.1963
 20
62.7665
 11
-14.0439
 21
62.6558
  0
LINE
  8
0
 10
-14.0439
 20
62.6558
 11
-13.9065
 21
62.5268
  0
LINE
  8
0
 10
-13.9065
 20
62.5268
 11
-13.7865
 21
62.3817
  0
LINE
  8
0
 10
-13.7865
 20
62.3817
 11
-13.6855
 21
62.2226
  0
LINE
  8
0
 10
-13.6855
 20
62.2226
 11
-13.6053
 21
62.0522
  0
LINE
  8
0
 10
-13.6053
 20
62.0522
 11
-13.5471
 21
61.873
  0
LINE
  8
0
 10
-13.5471
 20
61.873
 11
-13.5118
 21
61.688
  0
LINE
  8
0
 10
-13.5118
 20
61.688
 11
-13.5
 21
61.5
  0
LINE
  8
0
 10
-13.5
 20
61.5
 11
-13.5118
 21
61.312
  0
LINE
  8
0
 10
-13.5118
 20
61.312
 11
-13.5471
 21
61.127
  0
LINE
  8
0
 10
-13.5471
 20
61.127
 11
-13.6053
 21
60.9478
  0
LINE
  8
0
 10
-13.6053
 20
60.9478
 11
-13.6855
 21
60.7774
  0
LINE
  8
0
 10
-13.6855
 20
60.7774
 11
-13.7865
 21
60.6183
  0
LINE
  8
0
 10
-13.7865
 20
60.6183
 11
-13.9065
 21
60.4732
  0
LINE
  8
0
 10
-13.9065
 20
60.4732
 11
-14.0439
 21
60.3442
  0
LINE
  8
0
 10
-14.0439
 20
60.3442
 11
-14.1963
 21
60.2335
  0
LINE
  8
0
 10
-14.1963
 20
60.2335
 11
-14.3613
 21
60.1427
  0
LINE
  8
0
 10
-14.3613
 20
60.1427
 11
-14.5365
 21
60.0734
  0
LINE
  8
0
 10
-14.5365
 20
60.0734
 11
-14.7189
 21
60.0266
  0
LINE
  8
0
 10
-14.7189
 20
60.0266
 11
-14.9058
 21
60.0029
  0
LINE
  8
0
 10
-14.9058
 20
60.0029
 11
-15.0942
 21
60.0029
  0
LINE
  8
0
 10
14.9058
 20
60.0029
 11
14.7189
 21
60.0266
  0
LINE
  8
0
 10
14.7189
 20
60.0266
 11
14.5365
 21
60.0734
  0
LINE
  8
0
 10
14.5365
 20
60.0734
 11
14.3613
 21
60.1427
  0
LINE
  8
0
 10
14.3613
 20
60.1427
 11
14.1963
 21
60.2335
  0
LINE
  8
0
 10
14.1963
 20
60.2335
 11
14.0439
 21
60.3442
  0
LINE
  8
0
 10
14.0439
 20
60.3442
 11
13.9065
 21
60.4732
  0
LINE
  8
0
 10
13.9065
 20
60.4732
 11
13.7865
 21
60.6183
  0
LINE
  8
0
 10
13.7865
 20
60.6183
 11
13.6855
 21
60.7774
  0
LINE
  8
0
 10
13.6855
 20
60.7774
 11
13.6053
 21
60.9478
  0
LINE
  8
0
 10
13.6053
 20
60.9478
 11
13.5471
 21
61.127
  0
LINE
  8
0
 10
13.5471
 20
61.127
 11
13.5118
 21
61.312
  0
LINE
  8
0
 10
13.5118
 20
61.312
 11
13.5
 21
61.5
  0
LINE
  8
0
 10
13.5
 20
61.5
 11
13.5118
 21
61.688
  0
LINE
  8
0
 10
13.5118
 20
61.688
 11
13.5471
 21
61.873
  0
LINE
  8
0
 10
13.5471
 20
61.873
 11
13.6053
 21
62.0522
  0
LINE
  8
0
 10
13.6053
 20
62.0522
 11
13.6855
 21
62.2226
  0
LINE
  8
0
 10
13.6855
 20
62.2226
 11
13.7865
 21
62.3817
  0
LINE
  8
0
 10
13.7865
 20
62.3817
 11
13.9065
 21
62.5268
  0
LINE
  8
0
 10
13.9065
 20
62.5268
 11
14.0439
 21
62.6558
  0
LINE
  8
0
 10
14.0439
 20
62.6558
 11
14.1963
 21
62.7665
  0
LINE
  8
0
 10
14.1963
 20
62.7665
 11
14.3613
 21
62.8572
  0
LINE
  8
0
 10
14.3613
 20
62.8572
 11
14.5365
 21
62.9266
  0
LINE
  8
0
 10
14.5365
 20
62.9266
 11
14.7189
 21
62.9734
  0
LINE
  8
0
 10
14.7189
 20
62.9734
 11
14.9058
 21
62.997
  0
LINE
  8
0
 10
14.9058
 20
62.997
 11
15.0942
 21
62.997
  0
LINE
  8
0
 10
15.0942
 20
62.997
 11
15.2811
 21
62.9734
  0
LINE
  8
0
 10
15.2811
 20
62.9734
 11
15.4635
 21
62.9266
  0
LINE
  8
0
 10
15.4635
 20
62.9266
 11
15.6387
 21
62.8572
  0
LINE
  8
0
 10
15.6387
 20
62.8572
 11
15.8037
 21
62.7665
  0
LINE
  8
0
 10
15.8037
 20
62.7665
 11
15.9561
 21
62.6558
  0
LINE
  8
0
 10
15.9561
 20
62.6558
 11
16.0934
 21
62.5268
  0
LINE
  8
0
 10
16.0934
 20
62.5268
 11
16.2135
 21
62.3817
  0
LINE
  8
0
 10
16.2135
 20
62.3817
 11
16.3145
 21
62.2226
  0
LINE
  8
0
 10
16.3145
 20
62.2226
 11
16.3947
 21
62.0522
  0
LINE
  8
0
 10
16.3947
 20
62.0522
 11
16.4529
 21
61.873
  0
LINE
  8
0
 10
16.4529
 20
61.873
 11
16.4882
 21
61.688
  0
LINE
  8
0
 10
16.4882
 20
61.688
 11
16.5
 21
61.5
  0
LINE
  8
0
 10
16.5
 20
61.5
 11
16.4882
 21
61.312
  0
LINE
  8
0
 10
16.4882
 20
61.312
 11
16.4529
 21
61.127
  0
LINE
  8
0
 10
16.4529
 20
61.127
 11
16.3947
 21
60.9478
  0
LINE
  8
0
 10
16.3947
 20
60.9478
 11
16.3145
 21
60.7774
  0
LINE
  8
0
 10
16.3145
 20
60.7774
 11
16.2135
 21
60.6183
  0
LINE
  8
0
 10
16.2135
 20
60.6183
 11
16.0934
 21
60.4732
  0
LINE
  8
0
 10
16.0934
 20
60.4732
 11
15.9561
 21
60.3442
  0
LINE
  8
0
 10
15.9561
 20
60.3442
 11
15.8037
 21
60.2335
  0
LINE
  8
0
 10
15.8037
 20
60.2335
 11
15.6387
 21
60.1427
  0
LINE
  8
0
 10
15.6387
 20
60.1427
 11
15.4635
 21
60.0734
  0
LINE
  8
0
 10
15.4635
 20
60.0734
 11
15.2811
 21
60.0266
  0
LINE
  8
0
 10
15.2811
 20
60.0266
 11
15.0942
 21
60.0029
  0
LINE
  8
0
 10
15.0942
 20
60.0029
 11
14.9058
 21
60.0029
  0
LINE
  8
0
 10
14.8116
 20
51.0059
 11
14.4379
 21
51.0531
  0
LINE
  8
0
 10
14.4379
 20
51.0531
 11
14.0729
 21
51.1468
  0
LINE
  8
0
 10
14.0729
 20
51.1468
 11
13.7227
 21
51.2855
  0
LINE
  8
0
 10
13.7227
 20
51.2855
 11
13.3925
 21
51.467
  0
LINE
  8
0
 10
13.3925
 20
51.467
 11
13.0877
 21
51.6885
  0
LINE
  8
0
 10
13.0877
 20
51.6885
 11
12.8131
 21
51.9464
  0
LINE
  8
0
 10
12.8131
 20
51.9464
 11
12.5729
 21
52.2366
  0
LINE
  8
0
 10
12.5729
 20
52.2366
 11
12.3711
 21
52.5547
  0
LINE
  8
0
 10
12.3711
 20
52.5547
 11
12.2107
 21
52.8956
  0
LINE
  8
0
 10
12.2107
 20
52.8956
 11
12.0942
 21
53.2539
  0
LINE
  8
0
 10
12.0942
 20
53.2539
 11
12.0237
 21
53.624
  0
LINE
  8
0
 10
12.0237
 20
53.624
 11
12
 21
54
  0
LINE
  8
0
 10
12
 20
54
 11
12.0237
 21
54.376
  0
LINE
  8
0
 10
12.0237
 20
54.376
 11
12.0942
 21
54.7461
  0
LINE
  8
0
 10
12.0942
 20
54.7461
 11
12.2107
 21
55.1044
  0
LINE
  8
0
 10
12.2107
 20
55.1044
 11
12.3711
 21
55.4453
  0
LINE
  8
0
 10
12.3711
 20
55.4453
 11
12.5729
 21
55.7634
  0
LINE
  8
0
 10
12.5729
 20
55.7634
 11
12.8131
 21
56.0536
  0
LINE
  8
0
 10
12.8131
 20
56.0536
 11
13.0877
 21
56.3115
  0
LINE
  8
0
 10
13.0877
 20
56.3115
 11
13.3925
 21
56.533
  0
LINE
  8
0
 10
13.3925
 20
56.533
 11
13.7227
 21
56.7145
  0
LINE
  8
0
 10
13.7227
 20
56.7145
 11
14.0729
 21
56.8532
  0
LINE
  8
0
 10
14.0729
 20
56.8532
 11
14.4379
 21
56.9469
  0
LINE
  8
0
 10
14.4379
 20
56.9469
 11
14.8116
 21
56.9941
  0
LINE
  8
0
 10
14.8116
 20
56.9941
 11
15.1884
 21
56.9941
  0
LINE
  8
0
 10
15.1884
 20
56.9941
 11
15.5621
 21
56.9469
  0
LINE
  8
0
 10
15.5621
 20
56.9469
 11
15.927
 21
56.8532
  0
LINE
  8
0
 10
15.927
 20
56.8532
 11
16.2773
 21
56.7145
  0
LINE
  8
0
 10
16.2773
 20
56.7145
 11
16.6075
 21
56.533
  0
LINE
  8
0
 10
16.6075
 20
56.533
 11
16.9123
 21
56.3115
  0
LINE
  8
0
 10
16.9123
 20
56.3115
 11
17.1869
 21
56.0536
  0
LINE
  8
0
 10
17.1869
 20
56.0536
 11
17.427
 21
55.7634
  0
LINE
  8
0
 10
17.427
 20
55.7634
 11
17.6289
 21
55.4453
  0
LINE
  8
0
 10
17.6289
 20
55.4453
 11
17.7893
 21
55.1044
  0
LINE
  8
0
 10
17.7893
 20
55.1044
 11
17.9057
 21
54.7461
  0
LINE
  8
0
 10
17.9057
 20
54.7461
 11
17.9763
 21
54.376
  0
LINE
  8
0
 10
17.9763
 20
54.376
 11
18
 21
54
  0
LINE
  8
0
 10
18
 20
54
 11
17.9763
 21
53.624
  0
LINE
  8
0
 10
17.9763
 20
53.624
 11
17.9057
 21
53.2539
  0
LINE
  8
0
 10
17.9057
 20
53.2539
 11
17.7893
 21
52.8956
  0
LINE
  8
0
 10
17.7893
 20
52.8956
 11
17.6289
 21
52.5547
  0
LINE
  8
0
 10
17.6289
 20
52.5547
 11
17.427
 21
52.2366
  0
LINE
  8
0
 10
17.427
 20
52.2366
 11
17.1869
 21
51.9464
  0
LINE
  8
0
 10
17.1869
 20
51.9464
 11
16.9123
 21
51.6885
  0
LINE
  8
0
 10
16.9123
 20
51.6885
 11
16.6075
 21
51.467
  0
LINE
  8
0
 10
16.6075
 20
51.467
 11
16.2773
 21
51.2855
  0
LINE
  8
0
 10
16.2773
 20
51.2855
 11
15.927
 21
51.1468
  0
LINE
  8
0
 10
15.927
 20
51.1468
 11
15.5621
 21
51.0531
  0
LINE
  8
0
 10
15.5621
 20
51.0531
 11
15.1884
 21
51.0059
  0
LINE
  8
0
 10
15.1884
 20
51.0059
 11
14.8116
 21
51.0059
  0
LINE
  8
0
 10
-0.18837
 20
51.0059
 11
-0.562134
 21
51.0531
  0
LINE
  8
0
 10
-0.562134
 20
51.0531
 11
-0.927048
 21
51.1468
  0
LINE
  8
0
 10
-0.927048
 20
51.1468
 11
-1.27733
 21
51.2855
  0
LINE
  8
0
 10
-1.27733
 20
51.2855
 11
-1.60747
 21
51.467
  0
LINE
  8
0
 10
-1.60747
 20
51.467
 11
-1.91226
 21
51.6885
  0
LINE
  8
0
 10
-1.91226
 20
51.6885
 11
-2.1869
 21
51.9464
  0
LINE
  8
0
 10
-2.1869
 20
51.9464
 11
-2.42705
 21
52.2366
  0
LINE
  8
0
 10
-2.42705
 20
52.2366
 11
-2.62891
 21
52.5547
  0
LINE
  8
0
 10
-2.62891
 20
52.5547
 11
-2.78932
 21
52.8956
  0
LINE
  8
0
 10
-2.78932
 20
52.8956
 11
-2.90575
 21
53.2539
  0
LINE
  8
0
 10
-2.90575
 20
53.2539
 11
-2.97633
 21
53.624
  0
LINE
  8
0
 10
-2.97633
 20
53.624
 11
-3
 21
54
  0
LINE
  8
0
 10
-3
 20
54
 11
-2.97633
 21
54.376
  0
LINE
  8
0
 10
-2.97633
 20
54.376
 11
-2.90575
 21
54.7461
  0
LINE
  8
0
 10
-2.90575
 20
54.7461
 11
-2.78932
 21
55.1044
  0
LINE
  8
0
 10
-2.78932
 20
55.1044
 11
-2.62891
 21
55.4453
  0
LINE
  8
0
 10
-2.62891
 20
55.4453
 11
-2.42705
 21
55.7634
  0
LINE
  8
0
 10
-2.42705
 20
55.7634
 11
-2.1869
 21
56.0536
  0
LINE
  8
0
 10
-2.1869
 20
56.0536
 11
-1.91226
 21
56.3115
  0
LINE
  8
0
 10
-1.91226
 20
56.3115
 11
-1.60747
 21
56.533
  0
LINE
  8
0
 10
-1.60747
 20
56.533
 11
-1.27733
 21
56.7145
  0
LINE
  8
0
 10
-1.27733
 20
56.7145
 11
-0.927048
 21
56.8532
  0
LINE
  8
0
 10
-0.927048
 20
56.8532
 11
-0.562134
 21
56.9469
  0
LINE
  8
0
 10
-0.562134
 20
56.9469
 11
-0.18837
 21
56.9941
  0
LINE
  8
0
 10
-0.18837
 20
56.9941
 11
0.18837
 21
56.9941
  0
LINE
  8
0
 10
0.18837
 20
56.9941
 11
0.562134
 21
56.9469
  0
LINE
  8
0
 10
0.562134
 20
56.9469
 11
0.927048
 21
56.8532
  0
LINE
  8
0
 10
0.927048
 20
56.8532
 11
1.27733
 21
56.7145
  0
LINE
  8
0
 10
1.27733
 20
56.7145
 11
1.60747
 21
56.533
  0
LINE
  8
0
 10
1.60747
 20
56.533
 11
1.91226
 21
56.3115
  0
LINE
  8
0
 10
1.91226
 20
56.3115
 11
2.1869
 21
56.0536
  0
LINE
  8
0
 10
2.1869
 20
56.0536
 11
2.42705
 21
55.7634
  0
LINE
  8
0
 10
2.42705
 20
55.7634
 11
2.62891
 21
55.4453
  0
LINE
  8
0
 10
2.62891
 20
55.4453
 11
2.78932
 21
55.1044
  0
LINE
  8
0
 10
2.78932
 20
55.1044
 11
2.90575
 21
54.7461
  0
LINE
  8
0
 10
2.90575
 20
54.7461
 11
2.97633
 21
54.376
  0
LINE
  8
0
 10
2.97633
 20
54.376
 11
3
 21
54
  0
LINE
  8
0
 10
3
 20
54
 11
2.97633
 21
53.624
  0
LINE
  8
0
 10
2.97633
 20
53.624
 11
2.90575
 21
53.2539
  0
LINE
  8
0
 10
2.90575
 20
53.2539
 11
2.78932
 21
52.8956
  0
LINE
  8
0
 10
2.78932
 20
52.8956
 11
2.62891
 21
52.5547
  0
LINE
  8
0
 10
2.62891
 20
52.5547
 11
2.42705
 21
52.2366
  0
LINE
  8
0
 10
2.42705
 20
52.2366
 11
2.1869
 21
51.9464
  0
LINE
  8
0
 10
2.1869
 20
51.9464
 11
1.91226
 21
51.6885
  0
LINE
  8
0
 10
1.91226
 20
51.6885
 11
1.60747
 21
51.467
  0
LINE
  8
0
 10
1.60747
 20
51.467
 11
1.27733
 21
51.2855
  0
LINE
  8
0
 10
1.27733
 20
51.2855
 11
0.927048
 21
51.1468
  0
LINE
  8
0
 10
0.927048
 20
51.1468
 11
0.562134
 21
51.0531
  0
LINE
  8
0
 10
0.562134
 20
51.0531
 11
0.18837
 21
51.0059
  0
LINE
  8
0
 10
0.18837
 20
51.0059
 11
-0.18837
 21
51.0059
  0
LINE
  8
0
 10
-15.1884
 20
51.0059
 11
-15.5621
 21
51.0531
  0
LINE
  8
0
 10
-15.5621
 20
51.0531
 11
-15.927
 21
51.1468
  0
LINE
  8
0
 10
-15.927
 20
51.1468
 11
-16.2773
 21
51.2855
  0
LINE
  8
0
 10
-16.2773
 20
51.2855
 11
-16.6075
 21
51.467
  0
LINE
  8
0
 10
-16.6075
 20
51.467
 11
-16.9123
 21
51.6885
  0
LINE
  8
0
 10
-16.9123
 20
51.6885
 11
-17.1869
 21
51.9464
  0
LINE
  8
0
 10
-17.1869
 20
51.9464
 11
-17.427
 21
52.2366
  0
LINE
  8
0
 10
-17.427
 20
52.2366
 11
-17.6289
 21
52.5547
  0
LINE
  8
0
 10
-17.6289
 20
52.5547
 11
-17.7893
 21
52.8956
  0
LINE
  8
0
 10
-17.7893
 20
52.8956
 11
-17.9057
 21
53.2539
  0
LINE
  8
0
 10
-17.9057
 20
53.2539
 11
-17.9763
 21
53.624
  0
LINE
  8
0
 10
-17.9763
 20
53.624
 11
-18
 21
54
  0
LINE
  8
0
 10
-18
 20
54
 11
-17.9763
 21
54.376
  0
LINE
  8
0
 10
-17.9763
 20
54.376
 11
-17.9057
 21
54.7461
  0
LINE
  8
0
 10
-17.9057
 20
54.7461
 11
-17.7893
 21
55.1044
  0
LINE
  8
0
 10
-17.7893
 20
55.1044
 11
-17.6289
 21
55.4453
  0
LINE
  8
0
 10
-17.6289
 20
55.4453
 11
-17.427
 21
55.7634
  0
LINE
  8
0
 10
-17.427
 20
55.7634
 11
-17.1869
 21
56.0536
  0
LINE
  8
0
 10
-17.1869
 20
56.0536
 11
-16.9123
 21
56.3115
  0
LINE
  8
0
 10
-16.9123
 20
56.3115
 11
-16.6075
 21
56.533
  0
LINE
  8
0
 10
-16.6075
 20
56.533
 11
-16.2773
 21
56.7145
  0
LINE
  8
0
 10
-16.2773
 20
56.7145
 11
-15.927
 21
56.8532
  0
LINE
  8
0
 10
-15.927
 20
56.8532
 11
-15.5621
 21
56.9469
  0
LINE
  8
0
 10
-15.5621
 20
56.9469
 11
-15.1884
 21
56.9941
  0
LINE
  8
0
 10
-15.1884
 20
56.9941
 11
-14.8116
 21
56.9941
  0
LINE
  8
0
 10
-14.8116
 20
56.9941
 11
-14.4379
 21
56.9469
  0
LINE
  8
0
 10
-14.4379
 20
56.9469
 11
-14.0729
 21
56.8532
  0
LINE
  8
0
 10
-14.0729
 20
56.8532
 11
-13.7227
 21
56.7145
  0
LINE
  8
0
 10
-13.7227
 20
56.7145
 11
-13.3925
 21
56.533
  0
LINE
  8
0
 10
-13.3925
 20
56.533
 11
-13.0877
 21
56.3115
  0
LINE
  8
0
 10
-13.0877
 20
56.3115
 11
-12.8131
 21
56.0536
  0
LINE
  8
0
 10
-12.8131
 20
56.0536
 11
-12.5729
 21
55.7634
  0
LINE
  8
0
 10
-12.5729
 20
55.7634
 11
-12.3711
 21
55.4453
  0
LINE
  8
0
 10
-12.3711
 20
55.4453
 11
-12.2107
 21
55.1044
  0
LINE
  8
0
 10
-12.2107
 20
55.1044
 11
-12.0942
 21
54.7461
  0
LINE
  8
0
 10
-12.0942
 20
54.7461
 11
-12.0237
 21
54.376
  0
LINE
  8
0
 10
-12.0237
 20
54.376
 11
-12
 21
54
  0
LINE
  8
0
 10
-12
 20
54
 11
-12.0237
 21
53.624
  0
LINE
  8
0
 10
-12.0237
 20
53.624
 11
-12.0942
 21
53.2539
  0
LINE
  8
0
 10
-12.0942
 20
53.2539
 11
-12.2107
 21
52.8956
  0
LINE
  8
0
 10
-12.2107
 20
52.8956
 11
-12.3711
 21
52.5547
  0
LINE
  8
0
 10
-12.3711
 20
52.5547
 11
-12.5729
 21
52.2366
  0
LINE
  8
0
 10
-12.5729
 20
52.2366
 11
-12.8131
 21
51.9464
  0
LINE
  8
0
 10
-12.8131
 20
51.9464
 11
-13.0877
 21
51.6885
  0
LINE
  8
0
 10
-13.0877
 20
51.6885
 11
-13.3925
 21
51.467
  0
LINE
  8
0
 10
-13.3925
 20
51.467
 11
-13.7227
 21
51.2855
  0
LINE
  8
0
 10
-13.7227
 20
51.2855
 11
-14.0729
 21
51.1468
  0
LINE
  8
0
 10
-14.0729
 20
51.1468
 11
-14.4379
 21
51.0531
  0
LINE
  8
0
 10
-14.4379
 20
51.0531
 11
-14.8116
 21
51.0059
  0
LINE
  8
0
 10
-14.8116
 20
51.0059
 11
-15.1884
 21
51.0059
  0
LINE
  8
0
 10
-7.59418
 20
52.503
 11
-7.78107
 21
52.5266
  0
LINE
  8
0
 10
-7.78107
 20
52.5266
 11
-7.96352
 21
52.5734
  0
LINE
  8
0
 10
-7.96352
 20
52.5734
 11
-8.13866
 21
52.6428
  0
LINE
  8
0
 10
-8.13866
 20
52.6428
 11
-8.30373
 21
52.7335
  0
LINE
  8
0
 10
-8.30373
 20
52.7335
 11
-8.45613
 21
52.8442
  0
LINE
  8
0
 10
-8.45613
 20
52.8442
 11
-8.59344
 21
52.9732
  0
LINE
  8
0
 10
-8.59344
 20
52.9732
 11
-8.71352
 21
53.1183
  0
LINE
  8
0
 10
-8.71352
 20
53.1183
 11
-8.81445
 21
53.2774
  0
LINE
  8
0
 10
-8.81445
 20
53.2774
 11
-8.89465
 21
53.4478
  0
LINE
  8
0
 10
-8.89465
 20
53.4478
 11
-8.95287
 21
53.627
  0
LINE
  8
0
 10
-8.95287
 20
53.627
 11
-8.98816
 21
53.812
  0
LINE
  8
0
 10
-8.98816
 20
53.812
 11
-9
 21
54
  0
LINE
  8
0
 10
-9
 20
54
 11
-8.98816
 21
54.188
  0
LINE
  8
0
 10
-8.98816
 20
54.188
 11
-8.95287
 21
54.373
  0
LINE
  8
0
 10
-8.95287
 20
54.373
 11
-8.89465
 21
54.5522
  0
LINE
  8
0
 10
-8.89465
 20
54.5522
 11
-8.81445
 21
54.7226
  0
LINE
  8
0
 10
-8.81445
 20
54.7226
 11
-8.71352
 21
54.8817
  0
LINE
  8
0
 10
-8.71352
 20
54.8817
 11
-8.59344
 21
55.0268
  0
LINE
  8
0
 10
-8.59344
 20
55.0268
 11
-8.45613
 21
55.1558
  0
LINE
  8
0
 10
-8.45613
 20
55.1558
 11
-8.30373
 21
55.2665
  0
LINE
  8
0
 10
-8.30373
 20
55.2665
 11
-8.13866
 21
55.3572
  0
LINE
  8
0
 10
-8.13866
 20
55.3572
 11
-7.96352
 21
55.4266
  0
LINE
  8
0
 10
-7.96352
 20
55.4266
 11
-7.78107
 21
55.4734
  0
LINE
  8
0
 10
-7.78107
 20
55.4734
 11
-7.59418
 21
55.497
  0
LINE
  8
0
 10
-7.59418
 20
55.497
 11
-7.40581
 21
55.497
  0
LINE
  8
0
 10
-7.40581
 20
55.497
 11
-7.21892
 21
55.4734
  0
LINE
  8
0
 10
-7.21892
 20
55.4734
 11
-7.03647
 21
55.4266
  0
LINE
  8
0
 10
-7.03647
 20
55.4266
 11
-6.86133
 21
55.3572
  0
LINE
  8
0
 10
-6.86133
 20
55.3572
 11
-6.69626
 21
55.2665
  0
LINE
  8
0
 10
-6.69626
 20
55.2665
 11
-6.54385
 21
55.1558
  0
LINE
  8
0
 10
-6.54385
 20
55.1558
 11
-6.40654
 21
55.0268
  0
LINE
  8
0
 10
-6.40654
 20
55.0268
 11
-6.28647
 21
54.8817
  0
LINE
  8
0
 10
-6.28647
 20
54.8817
 11
-6.18553
 21
54.7226
  0
LINE
  8
0
 10
-6.18553
 20
54.7226
 11
-6.10533
 21
54.5522
  0
LINE
  8
0
 10
-6.10533
 20
54.5522
 11
-6.04712
 21
54.373
  0
LINE
  8
0
 10
-6.04712
 20
54.373
 11
-6.01183
 21
54.188
  0
LINE
  8
0
 10
-6.01183
 20
54.188
 11
-6
 21
54
  0
LINE
  8
0
 10
-6
 20
54
 11
-6.01183
 21
53.812
  0
LINE
  8
0
 10
-6.01183
 20
53.812
 11
-6.04712
 21
53.627
  0
LINE
  8
0
 10
-6.04712
 20
53.627
 11
-6.10533
 21
53.4478
  0
LINE
  8
0
 10
-6.10533
 20
53.4478
 11
-6.18553
 21
53.2774
  0
LINE
  8
0
 10
-6.18553
 20
53.2774
 11
-6.28647
 21
53.1183
  0
LINE
  8
0
 10
-6.28647
 20
53.1183
 11
-6.40654
 21
52.9732
  0
LINE
  8
0
 10
-6.40654
 20
52.9732
 11
-6.54385
 21
52.8442
  0
LINE
  8
0
 10
-6.54385
 20
52.8442
 11
-6.69626
 21
52.7335
  0
LINE
  8
0
 10
-6.69626
 20
52.7335
 11
-6.86133
 21
52.6428
  0
LINE
  8
0
 10
-6.86133
 20
52.6428
 11
-7.03647
 21
52.5734
  0
LINE
  8
0
 10
-7.03647
 20
52.5734
 11
-7.21892
 21
52.5266
  0
LINE
  8
0
 10
-7.21892
 20
52.5266
 11
-7.40581
 21
52.503
  0
LINE
  8
0
 10
-7.40581
 20
52.503
 11
-7.59418
 21
52.503
  0
LINE
  8
0
 10
7.40581
 20
52.503
 11
7.21892
 21
52.5266
  0
LINE
  8
0
 10
7.21892
 20
52.5266
 11
7.03647
 21
52.5734
  0
LINE
  8
0
 10
7.03647
 20
52.5734
 11
6.86133
 21
52.6428
  0
LINE
  8
0
 10
6.86133
 20
52.6428
 11
6.69626
 21
52.7335
  0
LINE
  8
0
 10
6.69626
 20
52.7335
 11
6.54385
 21
52.8442
  0
LINE
  8
0
 10
6.54385
 20
52.8442
 11
6.40654
 21
52.9732
  0
LINE
  8
0
 10
6.40654
 20
52.9732
 11
6.28647
 21
53.1183
  0
LINE
  8
0
 10
6.28647
 20
53.1183
 11
6.18553
 21
53.2774
  0
LINE
  8
0
 10
6.18553
 20
53.2774
 11
6.10533
 21
53.4478
  0
LINE
  8
0
 10
6.10533
 20
53.4478
 11
6.04712
 21
53.627
  0
LINE
  8
0
 10
6.04712
 20
53.627
 11
6.01183
 21
53.812
  0
LINE
  8
0
 10
6.01183
 20
53.812
 11
6
 21
54
  0
LINE
  8
0
 10
6
 20
54
 11
6.01183
 21
54.188
  0
LINE
  8
0
 10
6.01183
 20
54.188
 11
6.04712
 21
54.373
  0
LINE
  8
0
 10
6.04712
 20
54.373
 11
6.10533
 21
54.5522
  0
LINE
  8
0
 10
6.10533
 20
54.5522
 11
6.18553
 21
54.7226
  0
LINE
  8
0
 10
6.18553
 20
54.7226
 11
6.28647
 21
54.8817
  0
LINE
  8
0
 10
6.28647
 20
54.8817
 11
6.40654
 21
55.0268
  0
LINE
  8
0
 10
6.40654
 20
55.0268
 11
6.54385
 21
55.1558
  0
LINE
  8
0
 10
6.54385
 20
55.1558
 11
6.69626
 21
55.2665
  0
LINE
  8
0
 10
6.69626
 20
55.2665
 11
6.86133
 21
55.3572
  0
LINE
  8
0
 10
6.86133
 20
55.3572
 11
7.03647
 21
55.4266
  0
LINE
  8
0
 10
7.03647
 20
55.4266
 11
7.21892
 21
55.4734
  0
LINE
  8
0
 10
7.21892
 20
55.4734
 11
7.40581
 21
55.497
  0
LINE
  8
0
 10
7.40581
 20
55.497
 11
7.59418
 21
55.497
  0
LINE
  8
0
 10
7.59418
 20
55.497
 11
7.78107
 21
55.4734
  0
LINE
  8
0
 10
7.78107
 20
55.4734
 11
7.96352
 21
55.4266
  0
LINE
  8
0
 10
7.96352
 20
55.4266
 11
8.13866
 21
55.3572
  0
LINE
  8
0
 10
8.13866
 20
55.3572
 11
8.30373
 21
55.2665
  0
LINE
  8
0
 10
8.30373
 20
55.2665
 11
8.45613
 21
55.1558
  0
LINE
  8
0
 10
8.45613
 20
55.1558
 11
8.59344
 21
55.0268
  0
LINE
  8
0
 10
8.59344
 20
55.0268
 11
8.71352
 21
54.8817
  0
LINE
  8
0
 10
8.71352
 20
54.8817
 11
8.81445
 21
54.7226
  0
LINE
  8
0
 10
8.81445
 20
54.7226
 11
8.89465
 21
54.5522
  0
LINE
  8
0
 10
8.89465
 20
54.5522
 11
8.95287
 21
54.373
  0
LINE
  8
0
 10
8.95287
 20
54.373
 11
8.98816
 21
54.188
  0
LINE
  8
0
 10
8.98816
 20
54.188
 11
9
 21
54
  0
LINE
  8
0
 10
9
 20
54
 11
8.98816
 21
53.812
  0
LINE
  8
0
 10
8.98816
 20
53.812
 11
8.95287
 21
53.627
  0
LINE
  8
0
 10
8.95287
 20
53.627
 11
8.89465
 21
53.4478
  0
LINE
  8
0
 10
8.89465
 20
53.4478
 11
8.81445
 21
53.2774
  0
LINE
  8
0
 10
8.81445
 20
53.2774
 11
8.71352
 21
53.1183
  0
LINE
  8
0
 10
8.71352
 20
53.1183
 11
8.59344
 21
52.9732
  0
LINE
  8
0
 10
8.59344
 20
52.9732
 11
8.45613
 21
52.8442
  0
LINE
  8
0
 10
8.45613
 20
52.8442
 11
8.30373
 21
52.7335
  0
LINE
  8
0
 10
8.30373
 20
52.7335
 11
8.13866
 21
52.6428
  0
LINE
  8
0
 10
8.13866
 20
52.6428
 11
7.96352
 21
52.5734
  0
LINE
  8
0
 10
7.96352
 20
52.5734
 11
7.78107
 21
52.5266
  0
LINE
  8
0
 10
7.78107
 20
52.5266
 11
7.59418
 21
52.503
  0
LINE
  8
0
 10
7.59418
 20
52.503
 11
7.40581
 21
52.503
  0
ENDSEC
  0
SECTION
  2
OBJECTS
  0
DICTIONARY
  0
ENDSEC
  0
EOF
