<?xml version="1.0" standalone="no"?>
<!DOCTYPE svg PUBLIC "-//W3C//DTD SVG 1.1//EN" "http://www.w3.org/Graphics/SVG/1.1/DTD/svg11.dtd">
<svg width="120mm" height="424mm" viewBox="-60 -788 120 424" xmlns="http://www.w3.org/2000/svg" version="1.1">
<title>OpenSCAD Model</title>
<path d="
M 55.9369,-652.589 L 56.5451,-652.745 L 57.1289,-652.976 L 57.6791,-653.278 L 58.1871,-653.647 L 58.6448,-654.077
 L 59.0451,-654.561 L 59.3815,-655.091 L 59.6489,-655.659 L 59.8429,-656.257 L 59.9606,-656.873 L 60,-657.5
 L 60,-782.5 L 59.9606,-783.127 L 59.8429,-783.743 L 59.6489,-784.341 L 59.3815,-784.909 L 59.0451,-785.439
 L 58.6448,-785.923 L 58.1871,-786.353 L 57.6791,-786.722 L 57.1289,-787.024 L 56.5451,-787.255 L 55.9369,-787.411
 L 55.3139,-787.49 L -55.3139,-787.49 L -55.9369,-787.411 L -56.5451,-787.255 L -57,-787.075 L -57,-787.479
 L -60,-787.479 L -60,-652.521 L -57,-652.521 L -57,-652.925 L -56.5451,-652.745 L -55.9369,-652.589
 L -55.3139,-652.51 L 55.3139,-652.51 z
M -54.7512,-654.008 L -55.2495,-654.071 L -55.7361,-654.196 L -56.2031,-654.381 L -56.6433,-654.623 L -57.0497,-654.918
 L -57.4159,-655.262 L -57.7361,-655.649 L -58.0052,-656.073 L -58.2191,-656.528 L -58.3743,-657.005 L -58.4685,-657.499
 L -58.5,-658 L -58.5,-782 L -58.4685,-782.501 L -58.3743,-782.995 L -58.2191,-783.472 L -58.0052,-783.927
 L -57.7361,-784.351 L -57.4159,-784.738 L -57.0497,-785.082 L -56.6433,-785.377 L -56.2031,-785.619 L -55.7361,-785.804
 L -55.2495,-785.929 L -54.7512,-785.992 L 54.7512,-785.992 L 55.2495,-785.929 L 55.7361,-785.804 L 56.2031,-785.619
 L 56.6433,-785.377 L 57.0497,-785.082 L 57.4159,-784.738 L 57.7361,-784.351 L 58.0052,-783.927 L 58.2191,-783.472
 L 58.3743,-782.995 L 58.4685,-782.501 L 58.5,-782 L 58.5,-658 L 58.4685,-657.499 L 58.3743,-657.005
 L 58.2191,-656.528 L 58.0052,-656.073 L 57.7361,-655.649 L 57.4159,-655.262 L 57.0497,-654.918 L 56.6433,-654.623
 L 56.2031,-654.381 L 55.7361,-654.196 L 55.2495,-654.071 L 54.7512,-654.008 z
M 55.9369,-508.589 L 56.5451,-508.745 L 57.1289,-508.976 L 57.6791,-509.278 L 58.1871,-509.647 L 58.6448,-510.077
 L 59.0451,-510.561 L 59.3815,-511.091 L 59.6489,-511.659 L 59.8429,-512.257 L 59.9606,-512.873 L 60,-513.5
 L 60,-638.5 L 59.9606,-639.127 L 59.8429,-639.743 L 59.6489,-640.341 L 59.3815,-640.909 L 59.0451,-641.439
 L 58.6448,-641.923 L 58.1871,-642.353 L 57.6791,-642.722 L 57.1289,-643.024 L 56.5451,-643.255 L 55.9369,-643.411
 L 55.3139,-643.49 L -55.3139,-643.49 L -55.9369,-643.411 L -56.5451,-643.255 L -57.1289,-643.024 L -57.6791,-642.722
 L -58.1871,-642.353 L -58.4,-642.153 L -60,-642.153 L -60,-509.847 L -58.4,-509.847 L -58.1871,-509.647
 L -57.6791,-509.278 L -57.1289,-508.976 L -56.5451,-508.745 L -55.9369,-508.589 L -55.3139,-508.51 L 55.3139,-508.51
 z
M -54.6954,-510.893 L -55.0833,-510.942 L -55.4619,-511.039 L -55.8254,-511.183 L -56.168,-511.372 L -56.4842,-511.601
 L -56.7692,-511.869 L -57.0184,-512.17 L -57.2279,-512.5 L -57.3943,-512.854 L -57.5151,-513.226 L -57.5884,-513.61
 L -57.6129,-514 L -57.6129,-638 L -57.5884,-638.39 L -57.5151,-638.774 L -57.3943,-639.146 L -57.2279,-639.5
 L -57.0184,-639.83 L -56.7692,-640.131 L -56.4842,-640.399 L -56.168,-640.628 L -55.8254,-640.817 L -55.4619,-640.961
 L -55.0833,-641.058 L -54.6954,-641.107 L 54.6954,-641.107 L 55.0833,-641.058 L 55.4619,-640.961 L 55.8254,-640.817
 L 56.168,-640.628 L 56.4842,-640.399 L 56.7692,-640.131 L 57.0184,-639.83 L 57.2279,-639.5 L 57.3943,-639.146
 L 57.5151,-638.774 L 57.5884,-638.39 L 57.6129,-638 L 57.6129,-514 L 57.5884,-513.61 L 57.5151,-513.226
 L 57.3943,-512.854 L 57.2279,-512.5 L 57.0184,-512.17 L 56.7692,-511.869 L 56.4842,-511.601 L 56.168,-511.372
 L 55.8254,-511.183 L 55.4619,-511.039 L 55.0833,-510.942 L 54.6954,-510.893 z
M 55.9369,-364.589 L 56.5451,-364.745 L 57.1289,-364.976 L 57.6791,-365.278 L 58.1871,-365.647 L 58.6448,-366.077
 L 59.0451,-366.561 L 59.3815,-367.091 L 59.6489,-367.659 L 59.8429,-368.257 L 59.9606,-368.873 L 60,-369.5
 L 60,-494.5 L 59.9606,-495.127 L 59.8429,-495.743 L 59.6489,-496.341 L 59.3815,-496.909 L 59.0451,-497.439
 L 58.6448,-497.923 L 58.1871,-498.353 L 57.6791,-498.722 L 57.1289,-499.024 L 56.5451,-499.255 L 55.9369,-499.411
 L 55.3139,-499.49 L -55.3139,-499.49 L -55.9369,-499.411 L -56.5451,-499.255 L -57.1289,-499.024 L -57.6791,-498.722
 L -58.1871,-498.353 L -58.6448,-497.923 L -59.0451,-497.439 L -59.3815,-496.909 L -59.6489,-496.341 L -59.8429,-495.743
 L -59.9606,-495.127 L -60,-494.5 L -60,-369.5 L -59.9606,-368.873 L -59.8429,-368.257 L -59.6489,-367.659
 L -59.3815,-367.091 L -59.0451,-366.561 L -58.6448,-366.077 L -58.1871,-365.647 L -57.6791,-365.278 L -57.1289,-364.976
 L -56.5451,-364.745 L -55.9369,-364.589 L -55.3139,-364.51 L 55.3139,-364.51 z
M 52.3659,-489.869 L 52.0999,-489.903 L 51.8401,-489.969 L 51.5908,-490.068 L 51.3559,-490.197 L 51.1389,-490.355
 L 50.9434,-490.538 L 50.7725,-490.745 L 50.6288,-490.971 L 50.5146,-491.214 L 50.4318,-491.469 L 50.3815,-491.732
 L 50.3647,-492 L 50.3815,-492.268 L 50.4318,-492.531 L 50.5146,-492.786 L 50.6288,-493.029 L 50.7725,-493.255
 L 50.9434,-493.462 L 51.1389,-493.645 L 51.3559,-493.803 L 51.5908,-493.932 L 51.8401,-494.031 L 52.0999,-494.097
 L 52.3659,-494.131 L 52.6341,-494.131 L 52.9001,-494.097 L 53.1598,-494.031 L 53.4092,-493.932 L 53.6441,-493.803
 L 53.8611,-493.645 L 54.0565,-493.462 L 54.2275,-493.255 L 54.3712,-493.029 L 54.4853,-492.786 L 54.5682,-492.531
 L 54.6185,-492.268 L 54.6353,-492 L 54.6185,-491.732 L 54.5682,-491.469 L 54.4853,-491.214 L 54.3712,-490.971
 L 54.2275,-490.745 L 54.0565,-490.538 L 53.8611,-490.355 L 53.6441,-490.197 L 53.4092,-490.068 L 53.1598,-489.969
 L 52.9001,-489.903 L 52.6341,-489.869 z
M -52.6341,-489.869 L -52.9001,-489.903 L -53.1598,-489.969 L -53.4092,-490.068 L -53.6441,-490.197 L -53.8611,-490.355
 L -54.0565,-490.538 L -54.2275,-490.745 L -54.3712,-490.971 L -54.4853,-491.214 L -54.5682,-491.469 L -54.6185,-491.732
 L -54.6353,-492 L -54.6185,-492.268 L -54.5682,-492.531 L -54.4853,-492.786 L -54.3712,-493.029 L -54.2275,-493.255
 L -54.0565,-493.462 L -53.8611,-493.645 L -53.6441,-493.803 L -53.4092,-493.932 L -53.1598,-494.031 L -52.9001,-494.097
 L -52.6341,-494.131 L -52.3659,-494.131 L -52.0999,-494.097 L -51.8401,-494.031 L -51.5908,-493.932 L -51.3559,-493.803
 L -51.1389,-493.645 L -50.9434,-493.462 L -50.7725,-493.255 L -50.6288,-493.029 L -50.5146,-492.786 L -50.4318,-492.531
 L -50.3815,-492.268 L -50.3647,-492 L -50.3815,-491.732 L -50.4318,-491.469 L -50.5146,-491.214 L -50.6288,-490.971
 L -50.7725,-490.745 L -50.9434,-490.538 L -51.1389,-490.355 L -51.3559,-490.197 L -51.5908,-490.068 L -51.8401,-489.969
 L -52.0999,-489.903 L -52.3659,-489.869 z
M 52.3659,-369.869 L 52.0999,-369.903 L 51.8401,-369.969 L 51.5908,-370.068 L 51.3559,-370.197 L 51.1389,-370.355
 L 50.9434,-370.538 L 50.7725,-370.745 L 50.6288,-370.971 L 50.5146,-371.214 L 50.4318,-371.469 L 50.3815,-371.732
 L 50.3647,-372 L 50.3815,-372.268 L 50.4318,-372.531 L 50.5146,-372.786 L 50.6288,-373.029 L 50.7725,-373.255
 L 50.9434,-373.462 L 51.1389,-373.645 L 51.3559,-373.803 L 51.5908,-373.932 L 51.8401,-374.031 L 52.0999,-374.097
 L 52.3659,-374.131 L 52.6341,-374.131 L 52.9001,-374.097 L 53.1598,-374.031 L 53.4092,-373.932 L 53.6441,-373.803
 L 53.8611,-373.645 L 54.0565,-373.462 L 54.2275,-373.255 L 54.3712,-373.029 L 54.4853,-372.786 L 54.5682,-372.531
 L 54.6185,-372.268 L 54.6353,-372 L 54.6185,-371.732 L 54.5682,-371.469 L 54.4853,-371.214 L 54.3712,-370.971
 L 54.2275,-370.745 L 54.0565,-370.538 L 53.8611,-370.355 L 53.6441,-370.197 L 53.4092,-370.068 L 53.1598,-369.969
 L 52.9001,-369.903 L 52.6341,-369.869 z
M -52.6341,-369.869 L -52.9001,-369.903 L -53.1598,-369.969 L -53.4092,-370.068 L -53.6441,-370.197 L -53.8611,-370.355
 L -54.0565,-370.538 L -54.2275,-370.745 L -54.3712,-370.971 L -54.4853,-371.214 L -54.5682,-371.469 L -54.6185,-371.732
 L -54.6353,-372 L -54.6185,-372.268 L -54.5682,-372.531 L -54.4853,-372.786 L -54.3712,-373.029 L -54.2275,-373.255
 L -54.0565,-373.462 L -53.8611,-373.645 L -53.6441,-373.803 L -53.4092,-373.932 L -53.1598,-374.031 L -52.9001,-374.097
 L -52.6341,-374.131 L -52.3659,-374.131 L -52.0999,-374.097 L -51.8401,-374.031 L -51.5908,-373.932 L -51.3559,-373.803
 L -51.1389,-373.645 L -50.9434,-373.462 L -50.7725,-373.255 L -50.6288,-373.029 L -50.5146,-372.786 L -50.4318,-372.531
 L -50.3815,-372.268 L -50.3647,-372 L -50.3815,-371.732 L -50.4318,-371.469 L -50.5146,-371.214 L -50.6288,-370.971
 L -50.7725,-370.745 L -50.9434,-370.538 L -51.1389,-370.355 L -51.3559,-370.197 L -51.5908,-370.068 L -51.8401,-369.969
 L -52.0999,-369.903 L -52.3659,-369.869 z
" stroke="black" fill="lightgray" stroke-width="0.5"/>
</svg>
