<?xml version="1.0" standalone="no"?>
<!DOCTYPE svg PUBLIC "-//W3C//DTD SVG 1.1//EN" "http://www.w3.org/Graphics/SVG/1.1/DTD/svg11.dtd">
<svg width="30mm" height="464mm" viewBox="-15 -925 30 464" xmlns="http://www.w3.org/2000/svg" version="1.1">
<title>OpenSCAD Model</title>
<path d="
M 10.9369,-902.339 L 11.5451,-902.495 L 12.1289,-902.726 L 12.6791,-903.028 L 13.1871,-903.397 L 13.6448,-903.827
 L 14.0451,-904.311 L 14.3815,-904.841 L 14.6489,-905.409 L 14.8429,-906.007 L 14.9606,-906.623 L 15,-907.25
 L 15,-919.75 L 14.9606,-920.377 L 14.8429,-920.993 L 14.6489,-921.591 L 14.3815,-922.159 L 14.0451,-922.689
 L 13.6448,-923.173 L 13.1871,-923.603 L 12.6791,-923.972 L 12.1289,-924.274 L 11.5451,-924.505 L 10.9369,-924.661
 L 10.3139,-924.74 L -10.3139,-924.74 L -10.9369,-924.661 L -11.5451,-924.505 L -12.1289,-924.274 L -12.6791,-923.972
 L -13.1871,-923.603 L -13.6448,-923.173 L -14.0451,-922.689 L -14.3815,-922.159 L -14.6489,-921.591 L -14.8429,-920.993
 L -14.9606,-920.377 L -15,-919.75 L -15,-907.25 L -14.9606,-906.623 L -14.8429,-906.007 L -14.6489,-905.409
 L -14.3815,-904.841 L -14.0451,-904.311 L -13.6448,-903.827 L -13.1871,-903.397 L -12.6791,-903.028 L -12.1289,-902.726
 L -11.5451,-902.495 L -10.9369,-902.339 L -10.3139,-902.26 L 10.3139,-902.26 z
M -9.75116,-903.758 L -10.2495,-903.821 L -10.7361,-903.946 L -11.2031,-904.131 L -11.6433,-904.373 L -12.0497,-904.668
 L -12.4159,-905.012 L -12.7361,-905.399 L -13.0052,-905.823 L -13.2191,-906.278 L -13.3743,-906.755 L -13.4684,-907.249
 L -13.5,-907.75 L -13.5,-919.25 L -13.4684,-919.751 L -13.3743,-920.245 L -13.2191,-920.722 L -13.0052,-921.177
 L -12.7361,-921.601 L -12.4159,-921.988 L -12.0497,-922.332 L -11.6433,-922.627 L -11.2031,-922.869 L -10.7361,-923.054
 L -10.2495,-923.179 L -9.75116,-923.242 L 9.75116,-923.242 L 10.2495,-923.179 L 10.7361,-923.054 L 11.2031,-922.869
 L 11.6433,-922.627 L 12.0497,-922.332 L 12.4159,-921.988 L 12.7361,-921.601 L 13.0052,-921.177 L 13.2191,-920.722
 L 13.3743,-920.245 L 13.4684,-919.751 L 13.5,-919.25 L 13.5,-907.75 L 13.4684,-907.249 L 13.3743,-906.755
 L 13.2191,-906.278 L 13.0052,-905.823 L 12.7361,-905.399 L 12.4159,-905.012 L 12.0497,-904.668 L 11.6433,-904.373
 L 11.2031,-904.131 L 10.7361,-903.946 L 10.2495,-903.821 L 9.75116,-903.758 z
M 10.9369,-870.839 L 11.5451,-870.995 L 12.1289,-871.226 L 12.6791,-871.528 L 13.1871,-871.897 L 13.6448,-872.327
 L 14.0451,-872.811 L 14.3815,-873.341 L 14.6489,-873.909 L 14.8429,-874.507 L 14.9606,-875.123 L 15,-875.75
 L 15,-888.25 L 14.9606,-888.877 L 14.8429,-889.493 L 14.6489,-890.091 L 14.3815,-890.659 L 14.0451,-891.189
 L 13.6448,-891.673 L 13.1871,-892.103 L 12.6791,-892.472 L 12.1289,-892.774 L 11.5451,-893.005 L 10.9369,-893.161
 L 10.3139,-893.24 L -10.3139,-893.24 L -10.9369,-893.161 L -11.5451,-893.005 L -12.1289,-892.774 L -12.6791,-892.472
 L -13.1871,-892.103 L -13.6448,-891.673 L -14.0451,-891.189 L -14.3815,-890.659 L -14.6489,-890.091 L -14.8429,-889.493
 L -14.9606,-888.877 L -15,-888.25 L -15,-875.75 L -14.9606,-875.123 L -14.8429,-874.507 L -14.6489,-873.909
 L -14.3815,-873.341 L -14.0451,-872.811 L -13.6448,-872.327 L -13.1871,-871.897 L -12.6791,-871.528 L -12.1289,-871.226
 L -11.5451,-870.995 L -10.9369,-870.839 L -10.3139,-870.76 L 10.3139,-870.76 z
M -9.75116,-872.258 L -10.2495,-872.321 L -10.7361,-872.446 L -11.2031,-872.631 L -11.6433,-872.873 L -12.0497,-873.168
 L -12.4159,-873.512 L -12.7361,-873.899 L -13.0052,-874.323 L -13.2191,-874.778 L -13.3743,-875.255 L -13.4684,-875.749
 L -13.5,-876.25 L -13.5,-887.75 L -13.4684,-888.251 L -13.3743,-888.745 L -13.2191,-889.222 L -13.0052,-889.677
 L -12.7361,-890.101 L -12.4159,-890.488 L -12.0497,-890.832 L -11.6433,-891.127 L -11.2031,-891.369 L -10.7361,-891.554
 L -10.2495,-891.679 L -9.75116,-891.742 L 9.75116,-891.742 L 10.2495,-891.679 L 10.7361,-891.554 L 11.2031,-891.369
 L 11.6433,-891.127 L 12.0497,-890.832 L 12.4159,-890.488 L 12.7361,-890.101 L 13.0052,-889.677 L 13.2191,-889.222
 L 13.3743,-888.745 L 13.4684,-888.251 L 13.5,-887.75 L 13.5,-876.25 L 13.4684,-875.749 L 13.3743,-875.255
 L 13.2191,-874.778 L 13.0052,-874.323 L 12.7361,-873.899 L 12.4159,-873.512 L 12.0497,-873.168 L 11.6433,-872.873
 L 11.2031,-872.631 L 10.7361,-872.446 L 10.2495,-872.321 L 9.75116,-872.258 z
M 10.9369,-839.339 L 11.5451,-839.495 L 12.1289,-839.726 L 12.6791,-840.028 L 13.1871,-840.397 L 13.6448,-840.827
 L 14.0451,-841.311 L 14.3815,-841.841 L 14.6489,-842.409 L 14.8429,-843.007 L 14.9606,-843.623 L 15,-844.25
 L 15,-856.75 L 14.9606,-857.377 L 14.8429,-857.993 L 14.6489,-858.591 L 14.3815,-859.159 L 14.0451,-859.689
 L 13.6448,-860.173 L 13.1871,-860.603 L 12.6791,-860.972 L 12.1289,-861.274 L 11.5451,-861.505 L 10.9369,-861.661
 L 10.3139,-861.74 L -10.3139,-861.74 L -10.9369,-861.661 L -11.5451,-861.505 L -12.1289,-861.274 L -12.6791,-860.972
 L -13.1871,-860.603 L -13.6448,-860.173 L -14.0451,-859.689 L -14.3815,-859.159 L -14.6489,-858.591 L -14.8429,-857.993
 L -14.9606,-857.377 L -15,-856.75 L -15,-844.25 L -14.9606,-843.623 L -14.8429,-843.007 L -14.6489,-842.409
 L -14.3815,-841.841 L -14.0451,-841.311 L -13.6448,-840.827 L -13.1871,-840.397 L -12.6791,-840.028 L -12.1289,-839.726
 L -11.5451,-839.495 L -10.9369,-839.339 L -10.3139,-839.26 L 10.3139,-839.26 z
M -9.75116,-840.758 L -10.2495,-840.821 L -10.7361,-840.946 L -11.2031,-841.131 L -11.6433,-841.373 L -12.0497,-841.668
 L -12.4159,-842.012 L -12.7361,-842.399 L -13.0052,-842.823 L -13.2191,-843.278 L -13.3743,-843.755 L -13.4684,-844.249
 L -13.5,-844.75 L -13.5,-856.25 L -13.4684,-856.751 L -13.3743,-857.245 L -13.2191,-857.722 L -13.0052,-858.177
 L -12.7361,-858.601 L -12.4159,-858.988 L -12.0497,-859.332 L -11.6433,-859.627 L -11.2031,-859.869 L -10.7361,-860.054
 L -10.2495,-860.179 L -9.75116,-860.242 L 9.75116,-860.242 L 10.2495,-860.179 L 10.7361,-860.054 L 11.2031,-859.869
 L 11.6433,-859.627 L 12.0497,-859.332 L 12.4159,-858.988 L 12.7361,-858.601 L 13.0052,-858.177 L 13.2191,-857.722
 L 13.3743,-857.245 L 13.4684,-856.751 L 13.5,-856.25 L 13.5,-844.75 L 13.4684,-844.249 L 13.3743,-843.755
 L 13.2191,-843.278 L 13.0052,-842.823 L 12.7361,-842.399 L 12.4159,-842.012 L 12.0497,-841.668 L 11.6433,-841.373
 L 11.2031,-841.131 L 10.7361,-840.946 L 10.2495,-840.821 L 9.75116,-840.758 z
M 10.9369,-807.839 L 11.5451,-807.995 L 12.1289,-808.226 L 12.6791,-808.528 L 13.1871,-808.897 L 13.6448,-809.327
 L 14.0451,-809.811 L 14.3815,-810.341 L 14.6489,-810.909 L 14.8429,-811.507 L 14.9606,-812.123 L 15,-812.75
 L 15,-825.25 L 14.9606,-825.877 L 14.8429,-826.493 L 14.6489,-827.091 L 14.3815,-827.659 L 14.0451,-828.189
 L 13.6448,-828.673 L 13.1871,-829.103 L 12.6791,-829.472 L 12.1289,-829.774 L 11.5451,-830.005 L 10.9369,-830.161
 L 10.3139,-830.24 L -10.3139,-830.24 L -10.9369,-830.161 L -11.5451,-830.005 L -12.1289,-829.774 L -12.6791,-829.472
 L -13.1871,-829.103 L -13.6448,-828.673 L -14.0451,-828.189 L -14.3815,-827.659 L -14.6489,-827.091 L -14.8429,-826.493
 L -14.9606,-825.877 L -15,-825.25 L -15,-812.75 L -14.9606,-812.123 L -14.8429,-811.507 L -14.6489,-810.909
 L -14.3815,-810.341 L -14.0451,-809.811 L -13.6448,-809.327 L -13.1871,-808.897 L -12.6791,-808.528 L -12.1289,-808.226
 L -11.5451,-807.995 L -10.9369,-807.839 L -10.3139,-807.76 L 10.3139,-807.76 z
M -9.75116,-809.258 L -10.2495,-809.321 L -10.7361,-809.446 L -11.2031,-809.631 L -11.6433,-809.873 L -12.0497,-810.168
 L -12.4159,-810.512 L -12.7361,-810.899 L -13.0052,-811.323 L -13.2191,-811.778 L -13.3743,-812.255 L -13.4684,-812.749
 L -13.5,-813.25 L -13.5,-824.75 L -13.4684,-825.251 L -13.3743,-825.745 L -13.2191,-826.222 L -13.0052,-826.677
 L -12.7361,-827.101 L -12.4159,-827.488 L -12.0497,-827.832 L -11.6433,-828.127 L -11.2031,-828.369 L -10.7361,-828.554
 L -10.2495,-828.679 L -9.75116,-828.742 L 9.75116,-828.742 L 10.2495,-828.679 L 10.7361,-828.554 L 11.2031,-828.369
 L 11.6433,-828.127 L 12.0497,-827.832 L 12.4159,-827.488 L 12.7361,-827.101 L 13.0052,-826.677 L 13.2191,-826.222
 L 13.3743,-825.745 L 13.4684,-825.251 L 13.5,-824.75 L 13.5,-813.25 L 13.4684,-812.749 L 13.3743,-812.255
 L 13.2191,-811.778 L 13.0052,-811.323 L 12.7361,-810.899 L 12.4159,-810.512 L 12.0497,-810.168 L 11.6433,-809.873
 L 11.2031,-809.631 L 10.7361,-809.446 L 10.2495,-809.321 L 9.75116,-809.258 z
M 10.9369,-776.339 L 11.5451,-776.495 L 12.1289,-776.726 L 12.6791,-777.028 L 13.1871,-777.397 L 13.6448,-777.827
 L 14.0451,-778.311 L 14.3815,-778.841 L 14.6489,-779.409 L 14.8429,-780.007 L 14.9606,-780.623 L 15,-781.25
 L 15,-793.75 L 14.9606,-794.377 L 14.8429,-794.993 L 14.6489,-795.591 L 14.3815,-796.159 L 14.0451,-796.689
 L 13.6448,-797.173 L 13.1871,-797.603 L 12.6791,-797.972 L 12.1289,-798.274 L 11.5451,-798.505 L 10.9369,-798.661
 L 10.3139,-798.74 L -10.3139,-798.74 L -10.9369,-798.661 L -11.5451,-798.505 L -12.1289,-798.274 L -12.6791,-797.972
 L -13.1871,-797.603 L -13.6448,-797.173 L -14.0451,-796.689 L -14.3815,-796.159 L -14.6489,-795.591 L -14.8429,-794.993
 L -14.9606,-794.377 L -15,-793.75 L -15,-781.25 L -14.9606,-780.623 L -14.8429,-780.007 L -14.6489,-779.409
 L -14.3815,-778.841 L -14.0451,-778.311 L -13.6448,-777.827 L -13.1871,-777.397 L -12.6791,-777.028 L -12.1289,-776.726
 L -11.5451,-776.495 L -10.9369,-776.339 L -10.3139,-776.26 L 10.3139,-776.26 z
M -9.75116,-777.758 L -10.2495,-777.821 L -10.7361,-777.946 L -11.2031,-778.131 L -11.6433,-778.373 L -12.0497,-778.668
 L -12.4159,-779.012 L -12.7361,-779.399 L -13.0052,-779.823 L -13.2191,-780.278 L -13.3743,-780.755 L -13.4684,-781.249
 L -13.5,-781.75 L -13.5,-793.25 L -13.4684,-793.751 L -13.3743,-794.245 L -13.2191,-794.722 L -13.0052,-795.177
 L -12.7361,-795.601 L -12.4159,-795.988 L -12.0497,-796.332 L -11.6433,-796.627 L -11.2031,-796.869 L -10.7361,-797.054
 L -10.2495,-797.179 L -9.75116,-797.242 L 9.75116,-797.242 L 10.2495,-797.179 L 10.7361,-797.054 L 11.2031,-796.869
 L 11.6433,-796.627 L 12.0497,-796.332 L 12.4159,-795.988 L 12.7361,-795.601 L 13.0052,-795.177 L 13.2191,-794.722
 L 13.3743,-794.245 L 13.4684,-793.751 L 13.5,-793.25 L 13.5,-781.75 L 13.4684,-781.249 L 13.3743,-780.755
 L 13.2191,-780.278 L 13.0052,-779.823 L 12.7361,-779.399 L 12.4159,-779.012 L 12.0497,-778.668 L 11.6433,-778.373
 L 11.2031,-778.131 L 10.7361,-777.946 L 10.2495,-777.821 L 9.75116,-777.758 z
M 10.9369,-744.839 L 11.5451,-744.995 L 12.1289,-745.226 L 12.6791,-745.528 L 13.1871,-745.897 L 13.6448,-746.327
 L 14.0451,-746.811 L 14.3815,-747.341 L 14.6489,-747.909 L 14.8429,-748.507 L 14.9606,-749.123 L 15,-749.75
 L 15,-762.25 L 14.9606,-762.877 L 14.8429,-763.493 L 14.6489,-764.091 L 14.3815,-764.659 L 14.0451,-765.189
 L 13.6448,-765.673 L 13.1871,-766.103 L 12.6791,-766.472 L 12.1289,-766.774 L 11.5451,-767.005 L 10.9369,-767.161
 L 10.3139,-767.24 L -10.3139,-767.24 L -10.9369,-767.161 L -11.5451,-767.005 L -12.1289,-766.774 L -12.6791,-766.472
 L -13.1871,-766.103 L -13.6448,-765.673 L -14.0451,-765.189 L -14.3815,-764.659 L -14.6489,-764.091 L -14.8429,-763.493
 L -14.9606,-762.877 L -15,-762.25 L -15,-749.75 L -14.9606,-749.123 L -14.8429,-748.507 L -14.6489,-747.909
 L -14.3815,-747.341 L -14.0451,-746.811 L -13.6448,-746.327 L -13.1871,-745.897 L -12.6791,-745.528 L -12.1289,-745.226
 L -11.5451,-744.995 L -10.9369,-744.839 L -10.3139,-744.76 L 10.3139,-744.76 z
M -9.75116,-746.258 L -10.2495,-746.321 L -10.7361,-746.446 L -11.2031,-746.631 L -11.6433,-746.873 L -12.0497,-747.168
 L -12.4159,-747.512 L -12.7361,-747.899 L -13.0052,-748.323 L -13.2191,-748.778 L -13.3743,-749.255 L -13.4684,-749.749
 L -13.5,-750.25 L -13.5,-761.75 L -13.4684,-762.251 L -13.3743,-762.745 L -13.2191,-763.222 L -13.0052,-763.677
 L -12.7361,-764.101 L -12.4159,-764.488 L -12.0497,-764.832 L -11.6433,-765.127 L -11.2031,-765.369 L -10.7361,-765.554
 L -10.2495,-765.679 L -9.75116,-765.742 L 9.75116,-765.742 L 10.2495,-765.679 L 10.7361,-765.554 L 11.2031,-765.369
 L 11.6433,-765.127 L 12.0497,-764.832 L 12.4159,-764.488 L 12.7361,-764.101 L 13.0052,-763.677 L 13.2191,-763.222
 L 13.3743,-762.745 L 13.4684,-762.251 L 13.5,-761.75 L 13.5,-750.25 L 13.4684,-749.749 L 13.3743,-749.255
 L 13.2191,-748.778 L 13.0052,-748.323 L 12.7361,-747.899 L 12.4159,-747.512 L 12.0497,-747.168 L 11.6433,-746.873
 L 11.2031,-746.631 L 10.7361,-746.446 L 10.2495,-746.321 L 9.75116,-746.258 z
M 10.9369,-713.339 L 11.5451,-713.495 L 12.1289,-713.726 L 12.6791,-714.028 L 13.1871,-714.397 L 13.6448,-714.827
 L 14.0451,-715.311 L 14.3815,-715.841 L 14.6489,-716.409 L 14.8429,-717.007 L 14.9606,-717.623 L 15,-718.25
 L 15,-730.75 L 14.9606,-731.377 L 14.8429,-731.993 L 14.6489,-732.591 L 14.3815,-733.159 L 14.0451,-733.689
 L 13.6448,-734.173 L 13.1871,-734.603 L 12.6791,-734.972 L 12.1289,-735.274 L 11.5451,-735.505 L 10.9369,-735.661
 L 10.3139,-735.74 L -10.3139,-735.74 L -10.9369,-735.661 L -11.5451,-735.505 L -12.1289,-735.274 L -12.6791,-734.972
 L -13.1871,-734.603 L -13.6448,-734.173 L -14.0451,-733.689 L -14.3815,-733.159 L -14.6489,-732.591 L -14.8429,-731.993
 L -14.9606,-731.377 L -15,-730.75 L -15,-718.25 L -14.9606,-717.623 L -14.8429,-717.007 L -14.6489,-716.409
 L -14.3815,-715.841 L -14.0451,-715.311 L -13.6448,-714.827 L -13.1871,-714.397 L -12.6791,-714.028 L -12.1289,-713.726
 L -11.5451,-713.495 L -10.9369,-713.339 L -10.3139,-713.26 L 10.3139,-713.26 z
M -9.75116,-714.758 L -10.2495,-714.821 L -10.7361,-714.946 L -11.2031,-715.131 L -11.6433,-715.373 L -12.0497,-715.668
 L -12.4159,-716.012 L -12.7361,-716.399 L -13.0052,-716.823 L -13.2191,-717.278 L -13.3743,-717.755 L -13.4684,-718.249
 L -13.5,-718.75 L -13.5,-730.25 L -13.4684,-730.751 L -13.3743,-731.245 L -13.2191,-731.722 L -13.0052,-732.177
 L -12.7361,-732.601 L -12.4159,-732.988 L -12.0497,-733.332 L -11.6433,-733.627 L -11.2031,-733.869 L -10.7361,-734.054
 L -10.2495,-734.179 L -9.75116,-734.242 L 9.75116,-734.242 L 10.2495,-734.179 L 10.7361,-734.054 L 11.2031,-733.869
 L 11.6433,-733.627 L 12.0497,-733.332 L 12.4159,-732.988 L 12.7361,-732.601 L 13.0052,-732.177 L 13.2191,-731.722
 L 13.3743,-731.245 L 13.4684,-730.751 L 13.5,-730.25 L 13.5,-718.75 L 13.4684,-718.249 L 13.3743,-717.755
 L 13.2191,-717.278 L 13.0052,-716.823 L 12.7361,-716.399 L 12.4159,-716.012 L 12.0497,-715.668 L 11.6433,-715.373
 L 11.2031,-715.131 L 10.7361,-714.946 L 10.2495,-714.821 L 9.75116,-714.758 z
M 10.9369,-681.839 L 11.5451,-681.995 L 12.1289,-682.226 L 12.6791,-682.528 L 13.1871,-682.897 L 13.6448,-683.327
 L 14.0451,-683.811 L 14.3815,-684.341 L 14.6489,-684.909 L 14.8429,-685.507 L 14.9606,-686.123 L 15,-686.75
 L 15,-699.25 L 14.9606,-699.877 L 14.8429,-700.493 L 14.6489,-701.091 L 14.3815,-701.659 L 14.0451,-702.189
 L 13.6448,-702.673 L 13.1871,-703.103 L 12.6791,-703.472 L 12.1289,-703.774 L 11.5451,-704.005 L 10.9369,-704.161
 L 10.3139,-704.24 L -10.3139,-704.24 L -10.9369,-704.161 L -11.5451,-704.005 L -12.1289,-703.774 L -12.6791,-703.472
 L -13.1871,-703.103 L -13.6448,-702.673 L -14.0451,-702.189 L -14.3815,-701.659 L -14.6489,-701.091 L -14.8429,-700.493
 L -14.9606,-699.877 L -15,-699.25 L -15,-686.75 L -14.9606,-686.123 L -14.8429,-685.507 L -14.6489,-684.909
 L -14.3815,-684.341 L -14.0451,-683.811 L -13.6448,-683.327 L -13.1871,-682.897 L -12.6791,-682.528 L -12.1289,-682.226
 L -11.5451,-681.995 L -10.9369,-681.839 L -10.3139,-681.76 L 10.3139,-681.76 z
M -9.75116,-683.258 L -10.2495,-683.321 L -10.7361,-683.446 L -11.2031,-683.631 L -11.6433,-683.873 L -12.0497,-684.168
 L -12.4159,-684.512 L -12.7361,-684.899 L -13.0052,-685.323 L -13.2191,-685.778 L -13.3743,-686.255 L -13.4684,-686.749
 L -13.5,-687.25 L -13.5,-698.75 L -13.4684,-699.251 L -13.3743,-699.745 L -13.2191,-700.222 L -13.0052,-700.677
 L -12.7361,-701.101 L -12.4159,-701.488 L -12.0497,-701.832 L -11.6433,-702.127 L -11.2031,-702.369 L -10.7361,-702.554
 L -10.2495,-702.679 L -9.75116,-702.742 L 9.75116,-702.742 L 10.2495,-702.679 L 10.7361,-702.554 L 11.2031,-702.369
 L 11.6433,-702.127 L 12.0497,-701.832 L 12.4159,-701.488 L 12.7361,-701.101 L 13.0052,-700.677 L 13.2191,-700.222
 L 13.3743,-699.745 L 13.4684,-699.251 L 13.5,-698.75 L 13.5,-687.25 L 13.4684,-686.749 L 13.3743,-686.255
 L 13.2191,-685.778 L 13.0052,-685.323 L 12.7361,-684.899 L 12.4159,-684.512 L 12.0497,-684.168 L 11.6433,-683.873
 L 11.2031,-683.631 L 10.7361,-683.446 L 10.2495,-683.321 L 9.75116,-683.258 z
M 10.9369,-650.339 L 11.5451,-650.495 L 12.1289,-650.726 L 12.6791,-651.028 L 13.1871,-651.397 L 13.6448,-651.827
 L 14.0451,-652.311 L 14.3815,-652.841 L 14.6489,-653.409 L 14.8429,-654.007 L 14.9606,-654.623 L 15,-655.25
 L 15,-667.75 L 14.9606,-668.377 L 14.8429,-668.993 L 14.6489,-669.591 L 14.3815,-670.159 L 14.0451,-670.689
 L 13.6448,-671.173 L 13.1871,-671.603 L 12.6791,-671.972 L 12.1289,-672.274 L 11.5451,-672.505 L 10.9369,-672.661
 L 10.3139,-672.74 L -10.3139,-672.74 L -10.9369,-672.661 L -11.5451,-672.505 L -12.1289,-672.274 L -12.6791,-671.972
 L -13.1871,-671.603 L -13.6448,-671.173 L -14.0451,-670.689 L -14.3815,-670.159 L -14.6489,-669.591 L -14.8429,-668.993
 L -14.9606,-668.377 L -15,-667.75 L -15,-655.25 L -14.9606,-654.623 L -14.8429,-654.007 L -14.6489,-653.409
 L -14.3815,-652.841 L -14.0451,-652.311 L -13.6448,-651.827 L -13.1871,-651.397 L -12.6791,-651.028 L -12.1289,-650.726
 L -11.5451,-650.495 L -10.9369,-650.339 L -10.3139,-650.26 L 10.3139,-650.26 z
M -9.75116,-651.758 L -10.2495,-651.821 L -10.7361,-651.946 L -11.2031,-652.131 L -11.6433,-652.373 L -12.0497,-652.668
 L -12.4159,-653.012 L -12.7361,-653.399 L -13.0052,-653.823 L -13.2191,-654.278 L -13.3743,-654.755 L -13.4684,-655.249
 L -13.5,-655.75 L -13.5,-667.25 L -13.4684,-667.751 L -13.3743,-668.245 L -13.2191,-668.722 L -13.0052,-669.177
 L -12.7361,-669.601 L -12.4159,-669.988 L -12.0497,-670.332 L -11.6433,-670.627 L -11.2031,-670.869 L -10.7361,-671.054
 L -10.2495,-671.179 L -9.75116,-671.242 L 9.75116,-671.242 L 10.2495,-671.179 L 10.7361,-671.054 L 11.2031,-670.869
 L 11.6433,-670.627 L 12.0497,-670.332 L 12.4159,-669.988 L 12.7361,-669.601 L 13.0052,-669.177 L 13.2191,-668.722
 L 13.3743,-668.245 L 13.4684,-667.751 L 13.5,-667.25 L 13.5,-655.75 L 13.4684,-655.249 L 13.3743,-654.755
 L 13.2191,-654.278 L 13.0052,-653.823 L 12.7361,-653.399 L 12.4159,-653.012 L 12.0497,-652.668 L 11.6433,-652.373
 L 11.2031,-652.131 L 10.7361,-651.946 L 10.2495,-651.821 L 9.75116,-651.758 z
M 10.9369,-618.839 L 11.5451,-618.995 L 12.1289,-619.226 L 12.6791,-619.528 L 13.1871,-619.897 L 13.6448,-620.327
 L 14.0451,-620.811 L 14.3815,-621.341 L 14.6489,-621.909 L 14.8429,-622.507 L 14.9606,-623.123 L 15,-623.75
 L 15,-636.25 L 14.9606,-636.877 L 14.8429,-637.493 L 14.6489,-638.091 L 14.3815,-638.659 L 14.0451,-639.189
 L 13.6448,-639.673 L 13.1871,-640.103 L 12.6791,-640.472 L 12.1289,-640.774 L 11.5451,-641.005 L 10.9369,-641.161
 L 10.3139,-641.24 L -10.3139,-641.24 L -10.9369,-641.161 L -11.5451,-641.005 L -12.1289,-640.774 L -12.6791,-640.472
 L -13.1871,-640.103 L -13.6448,-639.673 L -14.0451,-639.189 L -14.3815,-638.659 L -14.6489,-638.091 L -14.8429,-637.493
 L -14.9606,-636.877 L -15,-636.25 L -15,-623.75 L -14.9606,-623.123 L -14.8429,-622.507 L -14.6489,-621.909
 L -14.3815,-621.341 L -14.0451,-620.811 L -13.6448,-620.327 L -13.1871,-619.897 L -12.6791,-619.528 L -12.1289,-619.226
 L -11.5451,-618.995 L -10.9369,-618.839 L -10.3139,-618.76 L 10.3139,-618.76 z
M -9.75116,-620.258 L -10.2495,-620.321 L -10.7361,-620.446 L -11.2031,-620.631 L -11.6433,-620.873 L -12.0497,-621.168
 L -12.4159,-621.512 L -12.7361,-621.899 L -13.0052,-622.323 L -13.2191,-622.778 L -13.3743,-623.255 L -13.4684,-623.749
 L -13.5,-624.25 L -13.5,-635.75 L -13.4684,-636.251 L -13.3743,-636.745 L -13.2191,-637.222 L -13.0052,-637.677
 L -12.7361,-638.101 L -12.4159,-638.488 L -12.0497,-638.832 L -11.6433,-639.127 L -11.2031,-639.369 L -10.7361,-639.554
 L -10.2495,-639.679 L -9.75116,-639.742 L 9.75116,-639.742 L 10.2495,-639.679 L 10.7361,-639.554 L 11.2031,-639.369
 L 11.6433,-639.127 L 12.0497,-638.832 L 12.4159,-638.488 L 12.7361,-638.101 L 13.0052,-637.677 L 13.2191,-637.222
 L 13.3743,-636.745 L 13.4684,-636.251 L 13.5,-635.75 L 13.5,-624.25 L 13.4684,-623.749 L 13.3743,-623.255
 L 13.2191,-622.778 L 13.0052,-622.323 L 12.7361,-621.899 L 12.4159,-621.512 L 12.0497,-621.168 L 11.6433,-620.873
 L 11.2031,-620.631 L 10.7361,-620.446 L 10.2495,-620.321 L 9.75116,-620.258 z
M 10.9369,-587.339 L 11.5451,-587.495 L 12.1289,-587.726 L 12.6791,-588.028 L 13.1871,-588.397 L 13.6448,-588.827
 L 14.0451,-589.311 L 14.3815,-589.841 L 14.6489,-590.409 L 14.8429,-591.007 L 14.9606,-591.623 L 15,-592.25
 L 15,-604.75 L 14.9606,-605.377 L 14.8429,-605.993 L 14.6489,-606.591 L 14.3815,-607.159 L 14.0451,-607.689
 L 13.6448,-608.173 L 13.1871,-608.603 L 12.6791,-608.972 L 12.1289,-609.274 L 11.5451,-609.505 L 10.9369,-609.661
 L 10.3139,-609.74 L -10.3139,-609.74 L -10.9369,-609.661 L -11.5451,-609.505 L -12.1289,-609.274 L -12.6791,-608.972
 L -13.1871,-608.603 L -13.6448,-608.173 L -14.0451,-607.689 L -14.3815,-607.159 L -14.6489,-606.591 L -14.8429,-605.993
 L -14.9606,-605.377 L -15,-604.75 L -15,-592.25 L -14.9606,-591.623 L -14.8429,-591.007 L -14.6489,-590.409
 L -14.3815,-589.841 L -14.0451,-589.311 L -13.6448,-588.827 L -13.1871,-588.397 L -12.6791,-588.028 L -12.1289,-587.726
 L -11.5451,-587.495 L -10.9369,-587.339 L -10.3139,-587.26 L 10.3139,-587.26 z
M -9.75116,-588.758 L -10.2495,-588.821 L -10.7361,-588.946 L -11.2031,-589.131 L -11.6433,-589.373 L -12.0497,-589.668
 L -12.4159,-590.012 L -12.7361,-590.399 L -13.0052,-590.823 L -13.2191,-591.278 L -13.3743,-591.755 L -13.4684,-592.249
 L -13.5,-592.75 L -13.5,-604.25 L -13.4684,-604.751 L -13.3743,-605.245 L -13.2191,-605.722 L -13.0052,-606.177
 L -12.7361,-606.601 L -12.4159,-606.988 L -12.0497,-607.332 L -11.6433,-607.627 L -11.2031,-607.869 L -10.7361,-608.054
 L -10.2495,-608.179 L -9.75116,-608.242 L 9.75116,-608.242 L 10.2495,-608.179 L 10.7361,-608.054 L 11.2031,-607.869
 L 11.6433,-607.627 L 12.0497,-607.332 L 12.4159,-606.988 L 12.7361,-606.601 L 13.0052,-606.177 L 13.2191,-605.722
 L 13.3743,-605.245 L 13.4684,-604.751 L 13.5,-604.25 L 13.5,-592.75 L 13.4684,-592.249 L 13.3743,-591.755
 L 13.2191,-591.278 L 13.0052,-590.823 L 12.7361,-590.399 L 12.4159,-590.012 L 12.0497,-589.668 L 11.6433,-589.373
 L 11.2031,-589.131 L 10.7361,-588.946 L 10.2495,-588.821 L 9.75116,-588.758 z
M 10.9369,-555.839 L 11.5451,-555.995 L 12.1289,-556.226 L 12.6791,-556.528 L 13.1871,-556.897 L 13.6448,-557.327
 L 14.0451,-557.811 L 14.3815,-558.341 L 14.6489,-558.909 L 14.8429,-559.507 L 14.9606,-560.123 L 15,-560.75
 L 15,-573.25 L 14.9606,-573.877 L 14.8429,-574.493 L 14.6489,-575.091 L 14.3815,-575.659 L 14.0451,-576.189
 L 13.6448,-576.673 L 13.1871,-577.103 L 12.6791,-577.472 L 12.1289,-577.774 L 11.5451,-578.005 L 10.9369,-578.161
 L 10.3139,-578.24 L -10.3139,-578.24 L -10.9369,-578.161 L -11.5451,-578.005 L -12.1289,-577.774 L -12.6791,-577.472
 L -13.1871,-577.103 L -13.6448,-576.673 L -14.0451,-576.189 L -14.3815,-575.659 L -14.6489,-575.091 L -14.8429,-574.493
 L -14.9606,-573.877 L -15,-573.25 L -15,-560.75 L -14.9606,-560.123 L -14.8429,-559.507 L -14.6489,-558.909
 L -14.3815,-558.341 L -14.0451,-557.811 L -13.6448,-557.327 L -13.1871,-556.897 L -12.6791,-556.528 L -12.1289,-556.226
 L -11.5451,-555.995 L -10.9369,-555.839 L -10.3139,-555.76 L 10.3139,-555.76 z
M -9.75116,-557.258 L -10.2495,-557.321 L -10.7361,-557.446 L -11.2031,-557.631 L -11.6433,-557.873 L -12.0497,-558.168
 L -12.4159,-558.512 L -12.7361,-558.899 L -13.0052,-559.323 L -13.2191,-559.778 L -13.3743,-560.255 L -13.4684,-560.749
 L -13.5,-561.25 L -13.5,-572.75 L -13.4684,-573.251 L -13.3743,-573.745 L -13.2191,-574.222 L -13.0052,-574.677
 L -12.7361,-575.101 L -12.4159,-575.488 L -12.0497,-575.832 L -11.6433,-576.127 L -11.2031,-576.369 L -10.7361,-576.554
 L -10.2495,-576.679 L -9.75116,-576.742 L 9.75116,-576.742 L 10.2495,-576.679 L 10.7361,-576.554 L 11.2031,-576.369
 L 11.6433,-576.127 L 12.0497,-575.832 L 12.4159,-575.488 L 12.7361,-575.101 L 13.0052,-574.677 L 13.2191,-574.222
 L 13.3743,-573.745 L 13.4684,-573.251 L 13.5,-572.75 L 13.5,-561.25 L 13.4684,-560.749 L 13.3743,-560.255
 L 13.2191,-559.778 L 13.0052,-559.323 L 12.7361,-558.899 L 12.4159,-558.512 L 12.0497,-558.168 L 11.6433,-557.873
 L 11.2031,-557.631 L 10.7361,-557.446 L 10.2495,-557.321 L 9.75116,-557.258 z
M 10.9369,-524.339 L 11.5451,-524.495 L 12.1289,-524.726 L 12.6791,-525.028 L 13.1871,-525.397 L 13.6448,-525.827
 L 14.0451,-526.311 L 14.3815,-526.841 L 14.6489,-527.409 L 14.8429,-528.007 L 14.9606,-528.623 L 15,-529.25
 L 15,-541.75 L 14.9606,-542.377 L 14.8429,-542.993 L 14.6489,-543.591 L 14.3815,-544.159 L 14.0451,-544.689
 L 13.6448,-545.173 L 13.1871,-545.603 L 12.6791,-545.972 L 12.1289,-546.274 L 11.5451,-546.505 L 10.9369,-546.661
 L 10.3139,-546.74 L -10.3139,-546.74 L -10.9369,-546.661 L -11.5451,-546.505 L -12.1289,-546.274 L -12.6791,-545.972
 L -13.1871,-545.603 L -13.6448,-545.173 L -14.0451,-544.689 L -14.3815,-544.159 L -14.6489,-543.591 L -14.8429,-542.993
 L -14.9606,-542.377 L -15,-541.75 L -15,-529.25 L -14.9606,-528.623 L -14.8429,-528.007 L -14.6489,-527.409
 L -14.3815,-526.841 L -14.0451,-526.311 L -13.6448,-525.827 L -13.1871,-525.397 L -12.6791,-525.028 L -12.1289,-524.726
 L -11.5451,-524.495 L -10.9369,-524.339 L -10.3139,-524.26 L 10.3139,-524.26 z
M -9.75116,-525.758 L -10.2495,-525.821 L -10.7361,-525.946 L -11.2031,-526.131 L -11.6433,-526.373 L -12.0497,-526.668
 L -12.4159,-527.012 L -12.7361,-527.399 L -13.0052,-527.823 L -13.2191,-528.278 L -13.3743,-528.755 L -13.4684,-529.249
 L -13.5,-529.75 L -13.5,-541.25 L -13.4684,-541.751 L -13.3743,-542.245 L -13.2191,-542.722 L -13.0052,-543.177
 L -12.7361,-543.601 L -12.4159,-543.988 L -12.0497,-544.332 L -11.6433,-544.627 L -11.2031,-544.869 L -10.7361,-545.054
 L -10.2495,-545.179 L -9.75116,-545.242 L 9.75116,-545.242 L 10.2495,-545.179 L 10.7361,-545.054 L 11.2031,-544.869
 L 11.6433,-544.627 L 12.0497,-544.332 L 12.4159,-543.988 L 12.7361,-543.601 L 13.0052,-543.177 L 13.2191,-542.722
 L 13.3743,-542.245 L 13.4684,-541.751 L 13.5,-541.25 L 13.5,-529.75 L 13.4684,-529.249 L 13.3743,-528.755
 L 13.2191,-528.278 L 13.0052,-527.823 L 12.7361,-527.399 L 12.4159,-527.012 L 12.0497,-526.668 L 11.6433,-526.373
 L 11.2031,-526.131 L 10.7361,-525.946 L 10.2495,-525.821 L 9.75116,-525.758 z
M 10.9369,-492.839 L 11.5451,-492.995 L 12.1289,-493.226 L 12.6791,-493.528 L 13.1871,-493.897 L 13.6448,-494.327
 L 14.0451,-494.811 L 14.3815,-495.341 L 14.6489,-495.909 L 14.8429,-496.507 L 14.9606,-497.123 L 15,-497.75
 L 15,-510.25 L 14.9606,-510.877 L 14.8429,-511.493 L 14.6489,-512.091 L 14.3815,-512.659 L 14.0451,-513.189
 L 13.6448,-513.673 L 13.1871,-514.103 L 12.6791,-514.472 L 12.1289,-514.774 L 11.5451,-515.005 L 10.9369,-515.161
 L 10.3139,-515.24 L -10.3139,-515.24 L -10.9369,-515.161 L -11.5451,-515.005 L -12.1289,-514.774 L -12.6791,-514.472
 L -13.1871,-514.103 L -13.6448,-513.673 L -14.0451,-513.189 L -14.3815,-512.659 L -14.6489,-512.091 L -14.8429,-511.493
 L -14.9606,-510.877 L -15,-510.25 L -15,-497.75 L -14.9606,-497.123 L -14.8429,-496.507 L -14.6489,-495.909
 L -14.3815,-495.341 L -14.0451,-494.811 L -13.6448,-494.327 L -13.1871,-493.897 L -12.6791,-493.528 L -12.1289,-493.226
 L -11.5451,-492.995 L -10.9369,-492.839 L -10.3139,-492.76 L 10.3139,-492.76 z
M -9.69545,-495.143 L -10.0833,-495.192 L -10.4619,-495.289 L -10.8254,-495.433 L -11.168,-495.622 L -11.4842,-495.851
 L -11.7692,-496.119 L -12.0184,-496.42 L -12.2279,-496.75 L -12.3943,-497.104 L -12.5151,-497.476 L -12.5884,-497.86
 L -12.6129,-498.25 L -12.6129,-509.75 L -12.5884,-510.14 L -12.5151,-510.524 L -12.3943,-510.896 L -12.2279,-511.25
 L -12.0184,-511.58 L -11.7692,-511.881 L -11.4842,-512.149 L -11.168,-512.378 L -10.8254,-512.567 L -10.4619,-512.711
 L -10.0833,-512.808 L -9.69545,-512.857 L 9.69545,-512.857 L 10.0833,-512.808 L 10.4619,-512.711 L 10.8254,-512.567
 L 11.168,-512.378 L 11.4842,-512.149 L 11.7692,-511.881 L 12.0184,-511.58 L 12.2279,-511.25 L 12.3943,-510.896
 L 12.5151,-510.524 L 12.5884,-510.14 L 12.6129,-509.75 L 12.6129,-498.25 L 12.5884,-497.86 L 12.5151,-497.476
 L 12.3943,-497.104 L 12.2279,-496.75 L 12.0184,-496.42 L 11.7692,-496.119 L 11.4842,-495.851 L 11.168,-495.622
 L 10.8254,-495.433 L 10.4619,-495.289 L 10.0833,-495.192 L 9.69545,-495.143 z
M 10.9369,-461.339 L 11.5451,-461.495 L 12.1289,-461.726 L 12.6791,-462.028 L 13.1871,-462.397 L 13.6448,-462.827
 L 14.0451,-463.311 L 14.3815,-463.841 L 14.6489,-464.409 L 14.8429,-465.007 L 14.9606,-465.623 L 15,-466.25
 L 15,-478.75 L 14.9606,-479.377 L 14.8429,-479.993 L 14.6489,-480.591 L 14.3815,-481.159 L 14.0451,-481.689
 L 13.6448,-482.173 L 13.1871,-482.603 L 12.6791,-482.972 L 12.1289,-483.274 L 11.5451,-483.505 L 10.9369,-483.661
 L 10.3139,-483.74 L -10.3139,-483.74 L -10.9369,-483.661 L -11.5451,-483.505 L -12.1289,-483.274 L -12.6791,-482.972
 L -13.1871,-482.603 L -13.6448,-482.173 L -14.0451,-481.689 L -14.3815,-481.159 L -14.6489,-480.591 L -14.8429,-479.993
 L -14.9606,-479.377 L -15,-478.75 L -15,-466.25 L -14.9606,-465.623 L -14.8429,-465.007 L -14.6489,-464.409
 L -14.3815,-463.841 L -14.0451,-463.311 L -13.6448,-462.827 L -13.1871,-462.397 L -12.6791,-462.028 L -12.1289,-461.726
 L -11.5451,-461.495 L -10.9369,-461.339 L -10.3139,-461.26 L 10.3139,-461.26 z
M -7.63406,-474.119 L -7.9001,-474.153 L -8.15984,-474.219 L -8.40915,-474.318 L -8.64413,-474.447 L -8.86108,-474.605
 L -9.05655,-474.788 L -9.22748,-474.995 L -9.37117,-475.221 L -9.48534,-475.464 L -9.56821,-475.719 L -9.61845,-475.982
 L -9.63528,-476.25 L -9.61845,-476.518 L -9.56821,-476.781 L -9.48534,-477.036 L -9.37117,-477.279 L -9.22748,-477.505
 L -9.05655,-477.712 L -8.86108,-477.895 L -8.64413,-478.053 L -8.40915,-478.182 L -8.15984,-478.281 L -7.9001,-478.347
 L -7.63406,-478.381 L -7.36592,-478.381 L -7.09988,-478.347 L -6.84015,-478.281 L -6.59084,-478.182 L -6.35585,-478.053
 L -6.1389,-477.895 L -5.94344,-477.712 L -5.77251,-477.505 L -5.62881,-477.279 L -5.51465,-477.036 L -5.43178,-476.781
 L -5.38153,-476.518 L -5.3647,-476.25 L -5.38153,-475.982 L -5.43178,-475.719 L -5.51465,-475.464 L -5.62881,-475.221
 L -5.77251,-474.995 L -5.94344,-474.788 L -6.1389,-474.605 L -6.35585,-474.447 L -6.59084,-474.318 L -6.84015,-474.219
 L -7.09988,-474.153 L -7.36592,-474.119 z
M 7.36592,-474.119 L 7.09988,-474.153 L 6.84015,-474.219 L 6.59084,-474.318 L 6.35585,-474.447 L 6.1389,-474.605
 L 5.94344,-474.788 L 5.77251,-474.995 L 5.62881,-475.221 L 5.51465,-475.464 L 5.43178,-475.719 L 5.38153,-475.982
 L 5.3647,-476.25 L 5.38153,-476.518 L 5.43178,-476.781 L 5.51465,-477.036 L 5.62881,-477.279 L 5.77251,-477.505
 L 5.94344,-477.712 L 6.1389,-477.895 L 6.35585,-478.053 L 6.59084,-478.182 L 6.84015,-478.281 L 7.09988,-478.347
 L 7.36592,-478.381 L 7.63406,-478.381 L 7.9001,-478.347 L 8.15984,-478.281 L 8.40915,-478.182 L 8.64413,-478.053
 L 8.86108,-477.895 L 9.05655,-477.712 L 9.22748,-477.505 L 9.37117,-477.279 L 9.48534,-477.036 L 9.56821,-476.781
 L 9.61845,-476.518 L 9.63528,-476.25 L 9.61845,-475.982 L 9.56821,-475.719 L 9.48534,-475.464 L 9.37117,-475.221
 L 9.22748,-474.995 L 9.05655,-474.788 L 8.86108,-474.605 L 8.64413,-474.447 L 8.40915,-474.318 L 8.15984,-474.219
 L 7.9001,-474.153 L 7.63406,-474.119 z
M -7.63406,-466.619 L -7.9001,-466.653 L -8.15984,-466.719 L -8.40915,-466.818 L -8.64413,-466.947 L -8.86108,-467.105
 L -9.05655,-467.288 L -9.22748,-467.495 L -9.37117,-467.721 L -9.48534,-467.964 L -9.56821,-468.219 L -9.61845,-468.482
 L -9.63528,-468.75 L -9.61845,-469.018 L -9.56821,-469.281 L -9.48534,-469.536 L -9.37117,-469.779 L -9.22748,-470.005
 L -9.05655,-470.212 L -8.86108,-470.395 L -8.64413,-470.553 L -8.40915,-470.682 L -8.15984,-470.781 L -7.9001,-470.847
 L -7.63406,-470.881 L -7.36592,-470.881 L -7.09988,-470.847 L -6.84015,-470.781 L -6.59084,-470.682 L -6.35585,-470.553
 L -6.1389,-470.395 L -5.94344,-470.212 L -5.77251,-470.005 L -5.62881,-469.779 L -5.51465,-469.536 L -5.43178,-469.281
 L -5.38153,-469.018 L -5.3647,-468.75 L -5.38153,-468.482 L -5.43178,-468.219 L -5.51465,-467.964 L -5.62881,-467.721
 L -5.77251,-467.495 L -5.94344,-467.288 L -6.1389,-467.105 L -6.35585,-466.947 L -6.59084,-466.818 L -6.84015,-466.719
 L -7.09988,-466.653 L -7.36592,-466.619 z
M 7.36592,-466.619 L 7.09988,-466.653 L 6.84015,-466.719 L 6.59084,-466.818 L 6.35585,-466.947 L 6.1389,-467.105
 L 5.94344,-467.288 L 5.77251,-467.495 L 5.62881,-467.721 L 5.51465,-467.964 L 5.43178,-468.219 L 5.38153,-468.482
 L 5.3647,-468.75 L 5.38153,-469.018 L 5.43178,-469.281 L 5.51465,-469.536 L 5.62881,-469.779 L 5.77251,-470.005
 L 5.94344,-470.212 L 6.1389,-470.395 L 6.35585,-470.553 L 6.59084,-470.682 L 6.84015,-470.781 L 7.09988,-470.847
 L 7.36592,-470.881 L 7.63406,-470.881 L 7.9001,-470.847 L 8.15984,-470.781 L 8.40915,-470.682 L 8.64413,-470.553
 L 8.86108,-470.395 L 9.05655,-470.212 L 9.22748,-470.005 L 9.37117,-469.779 L 9.48534,-469.536 L 9.56821,-469.281
 L 9.61845,-469.018 L 9.63528,-468.75 L 9.61845,-468.482 L 9.56821,-468.219 L 9.48534,-467.964 L 9.37117,-467.721
 L 9.22748,-467.495 L 9.05655,-467.288 L 8.86108,-467.105 L 8.64413,-466.947 L 8.40915,-466.818 L 8.15984,-466.719
 L 7.9001,-466.653 L 7.63406,-466.619 z
" stroke="black" fill="lightgray" stroke-width="0.5"/>
</svg>
