  0
SECTION
  2
BLOCKS
  0
ENDSEC
  0
SECTION
  2
ENTITIES
  0
LINE
  8
0
 10
-109.5
 20
115.175
 11
-109.045
 21
114.995
  0
LINE
  8
0
 10
-109.045
 20
114.995
 11
-108.437
 21
114.839
  0
LINE
  8
0
 10
-108.437
 20
114.839
 11
-107.814
 21
114.76
  0
LINE
  8
0
 10
-107.814
 20
114.76
 11
107.814
 21
114.76
  0
LINE
  8
0
 10
107.814
 20
114.76
 11
108.437
 21
114.839
  0
LINE
  8
0
 10
108.437
 20
114.839
 11
109.045
 21
114.995
  0
LINE
  8
0
 10
109.045
 20
114.995
 11
109.629
 21
115.226
  0
LINE
  8
0
 10
109.629
 20
115.226
 11
110.179
 21
115.528
  0
LINE
  8
0
 10
110.179
 20
115.528
 11
110.687
 21
115.897
  0
LINE
  8
0
 10
110.687
 20
115.897
 11
111.145
 21
116.327
  0
LINE
  8
0
 10
111.145
 20
116.327
 11
111.545
 21
116.811
  0
LINE
  8
0
 10
111.545
 20
116.811
 11
111.882
 21
117.341
  0
LINE
  8
0
 10
111.882
 20
117.341
 11
112.149
 21
117.909
  0
LINE
  8
0
 10
112.149
 20
117.909
 11
112.343
 21
118.507
  0
LINE
  8
0
 10
112.343
 20
118.507
 11
112.461
 21
119.123
  0
LINE
  8
0
 10
112.461
 20
119.123
 11
112.5
 21
119.75
  0
LINE
  8
0
 10
112.5
 20
119.75
 11
112.5
 21
132.25
  0
LINE
  8
0
 10
112.5
 20
132.25
 11
112.461
 21
132.877
  0
LINE
  8
0
 10
112.461
 20
132.877
 11
112.343
 21
133.493
  0
LINE
  8
0
 10
112.343
 20
133.493
 11
112.149
 21
134.091
  0
LINE
  8
0
 10
112.149
 20
134.091
 11
111.882
 21
134.659
  0
LINE
  8
0
 10
111.882
 20
134.659
 11
111.545
 21
135.189
  0
LINE
  8
0
 10
111.545
 20
135.189
 11
111.145
 21
135.673
  0
LINE
  8
0
 10
111.145
 20
135.673
 11
110.687
 21
136.103
  0
LINE
  8
0
 10
110.687
 20
136.103
 11
110.179
 21
136.472
  0
LINE
  8
0
 10
110.179
 20
136.472
 11
109.629
 21
136.774
  0
LINE
  8
0
 10
109.629
 20
136.774
 11
109.045
 21
137.005
  0
LINE
  8
0
 10
109.045
 20
137.005
 11
108.437
 21
137.161
  0
LINE
  8
0
 10
108.437
 20
137.161
 11
107.814
 21
137.24
  0
LINE
  8
0
 10
107.814
 20
137.24
 11
-107.814
 21
137.24
  0
LINE
  8
0
 10
-107.814
 20
137.24
 11
-108.437
 21
137.161
  0
LINE
  8
0
 10
-108.437
 20
137.161
 11
-109.045
 21
137.005
  0
LINE
  8
0
 10
-109.045
 20
137.005
 11
-109.5
 21
136.825
  0
LINE
  8
0
 10
-109.5
 20
136.825
 11
-109.5
 21
137.24
  0
LINE
  8
0
 10
-109.5
 20
137.24
 11
-112.5
 21
137.24
  0
LINE
  8
0
 10
-112.5
 20
137.24
 11
-112.5
 21
114.76
  0
LINE
  8
0
 10
-112.5
 20
114.76
 11
-109.5
 21
114.76
  0
LINE
  8
0
 10
-109.5
 20
114.76
 11
-109.5
 21
115.175
  0
LINE
  8
0
 10
-107.243
 20
116.385
 11
-107.726
 21
116.446
  0
LINE
  8
0
 10
-107.726
 20
116.446
 11
-108.197
 21
116.567
  0
LINE
  8
0
 10
-108.197
 20
116.567
 11
-108.649
 21
116.746
  0
LINE
  8
0
 10
-108.649
 20
116.746
 11
-109.075
 21
116.98
  0
LINE
  8
0
 10
-109.075
 20
116.98
 11
-109.469
 21
117.266
  0
LINE
  8
0
 10
-109.469
 20
117.266
 11
-109.823
 21
117.599
  0
LINE
  8
0
 10
-109.823
 20
117.599
 11
-110.133
 21
117.974
  0
LINE
  8
0
 10
-110.133
 20
117.974
 11
-110.394
 21
118.384
  0
LINE
  8
0
 10
-110.394
 20
118.384
 11
-110.601
 21
118.824
  0
LINE
  8
0
 10
-110.601
 20
118.824
 11
-110.751
 21
119.287
  0
LINE
  8
0
 10
-110.751
 20
119.287
 11
-110.842
 21
119.765
  0
LINE
  8
0
 10
-110.842
 20
119.765
 11
-110.873
 21
120.25
  0
LINE
  8
0
 10
-110.873
 20
120.25
 11
-110.873
 21
131.75
  0
LINE
  8
0
 10
-110.873
 20
131.75
 11
-110.842
 21
132.235
  0
LINE
  8
0
 10
-110.842
 20
132.235
 11
-110.751
 21
132.713
  0
LINE
  8
0
 10
-110.751
 20
132.713
 11
-110.601
 21
133.176
  0
LINE
  8
0
 10
-110.601
 20
133.176
 11
-110.394
 21
133.616
  0
LINE
  8
0
 10
-110.394
 20
133.616
 11
-110.133
 21
134.026
  0
LINE
  8
0
 10
-110.133
 20
134.026
 11
-109.823
 21
134.401
  0
LINE
  8
0
 10
-109.823
 20
134.401
 11
-109.469
 21
134.734
  0
LINE
  8
0
 10
-109.469
 20
134.734
 11
-109.075
 21
135.02
  0
LINE
  8
0
 10
-109.075
 20
135.02
 11
-108.649
 21
135.254
  0
LINE
  8
0
 10
-108.649
 20
135.254
 11
-108.197
 21
135.433
  0
LINE
  8
0
 10
-108.197
 20
135.433
 11
-107.726
 21
135.554
  0
LINE
  8
0
 10
-107.726
 20
135.554
 11
-107.243
 21
135.615
  0
LINE
  8
0
 10
-107.243
 20
135.615
 11
107.243
 21
135.615
  0
LINE
  8
0
 10
107.243
 20
135.615
 11
107.726
 21
135.554
  0
LINE
  8
0
 10
107.726
 20
135.554
 11
108.197
 21
135.433
  0
LINE
  8
0
 10
108.197
 20
135.433
 11
108.649
 21
135.254
  0
LINE
  8
0
 10
108.649
 20
135.254
 11
109.075
 21
135.02
  0
LINE
  8
0
 10
109.075
 20
135.02
 11
109.469
 21
134.734
  0
LINE
  8
0
 10
109.469
 20
134.734
 11
109.823
 21
134.401
  0
LINE
  8
0
 10
109.823
 20
134.401
 11
110.133
 21
134.026
  0
LINE
  8
0
 10
110.133
 20
134.026
 11
110.394
 21
133.616
  0
LINE
  8
0
 10
110.394
 20
133.616
 11
110.601
 21
133.176
  0
LINE
  8
0
 10
110.601
 20
133.176
 11
110.751
 21
132.713
  0
LINE
  8
0
 10
110.751
 20
132.713
 11
110.842
 21
132.235
  0
LINE
  8
0
 10
110.842
 20
132.235
 11
110.873
 21
131.75
  0
LINE
  8
0
 10
110.873
 20
131.75
 11
110.873
 21
120.25
  0
LINE
  8
0
 10
110.873
 20
120.25
 11
110.842
 21
119.765
  0
LINE
  8
0
 10
110.842
 20
119.765
 11
110.751
 21
119.287
  0
LINE
  8
0
 10
110.751
 20
119.287
 11
110.601
 21
118.824
  0
LINE
  8
0
 10
110.601
 20
118.824
 11
110.394
 21
118.384
  0
LINE
  8
0
 10
110.394
 20
118.384
 11
110.133
 21
117.974
  0
LINE
  8
0
 10
110.133
 20
117.974
 11
109.823
 21
117.599
  0
LINE
  8
0
 10
109.823
 20
117.599
 11
109.469
 21
117.266
  0
LINE
  8
0
 10
109.469
 20
117.266
 11
109.075
 21
116.98
  0
LINE
  8
0
 10
109.075
 20
116.98
 11
108.649
 21
116.746
  0
LINE
  8
0
 10
108.649
 20
116.746
 11
108.197
 21
116.567
  0
LINE
  8
0
 10
108.197
 20
116.567
 11
107.726
 21
116.446
  0
LINE
  8
0
 10
107.726
 20
116.446
 11
107.243
 21
116.385
  0
LINE
  8
0
 10
107.243
 20
116.385
 11
-107.243
 21
116.385
  0
LINE
  8
0
 10
108.437
 20
83.3386
 11
109.045
 21
83.4947
  0
LINE
  8
0
 10
109.045
 20
83.4947
 11
109.629
 21
83.7259
  0
LINE
  8
0
 10
109.629
 20
83.7259
 11
110.179
 21
84.0284
  0
LINE
  8
0
 10
110.179
 20
84.0284
 11
110.687
 21
84.3974
  0
LINE
  8
0
 10
110.687
 20
84.3974
 11
111.145
 21
84.8273
  0
LINE
  8
0
 10
111.145
 20
84.8273
 11
111.545
 21
85.3111
  0
LINE
  8
0
 10
111.545
 20
85.3111
 11
111.882
 21
85.8412
  0
LINE
  8
0
 10
111.882
 20
85.8412
 11
112.149
 21
86.4094
  0
LINE
  8
0
 10
112.149
 20
86.4094
 11
112.343
 21
87.0066
  0
LINE
  8
0
 10
112.343
 20
87.0066
 11
112.461
 21
87.6233
  0
LINE
  8
0
 10
112.461
 20
87.6233
 11
112.5
 21
88.25
  0
LINE
  8
0
 10
112.5
 20
88.25
 11
112.5
 21
100.75
  0
LINE
  8
0
 10
112.5
 20
100.75
 11
112.461
 21
101.377
  0
LINE
  8
0
 10
112.461
 20
101.377
 11
112.343
 21
101.993
  0
LINE
  8
0
 10
112.343
 20
101.993
 11
112.149
 21
102.591
  0
LINE
  8
0
 10
112.149
 20
102.591
 11
111.882
 21
103.159
  0
LINE
  8
0
 10
111.882
 20
103.159
 11
111.545
 21
103.689
  0
LINE
  8
0
 10
111.545
 20
103.689
 11
111.145
 21
104.173
  0
LINE
  8
0
 10
111.145
 20
104.173
 11
110.687
 21
104.603
  0
LINE
  8
0
 10
110.687
 20
104.603
 11
110.179
 21
104.972
  0
LINE
  8
0
 10
110.179
 20
104.972
 11
109.629
 21
105.274
  0
LINE
  8
0
 10
109.629
 20
105.274
 11
109.045
 21
105.505
  0
LINE
  8
0
 10
109.045
 20
105.505
 11
108.437
 21
105.661
  0
LINE
  8
0
 10
108.437
 20
105.661
 11
107.814
 21
105.74
  0
LINE
  8
0
 10
107.814
 20
105.74
 11
-107.814
 21
105.74
  0
LINE
  8
0
 10
-107.814
 20
105.74
 11
-108.437
 21
105.661
  0
LINE
  8
0
 10
-108.437
 20
105.661
 11
-109.045
 21
105.505
  0
LINE
  8
0
 10
-109.045
 20
105.505
 11
-109.5
 21
105.325
  0
LINE
  8
0
 10
-109.5
 20
105.325
 11
-109.5
 21
105.365
  0
LINE
  8
0
 10
-109.5
 20
105.365
 11
-112.5
 21
105.365
  0
LINE
  8
0
 10
-112.5
 20
105.365
 11
-112.5
 21
83.6352
  0
LINE
  8
0
 10
-112.5
 20
83.6352
 11
-109.5
 21
83.6352
  0
LINE
  8
0
 10
-109.5
 20
83.6352
 11
-109.5
 21
83.6748
  0
LINE
  8
0
 10
-109.5
 20
83.6748
 11
-109.045
 21
83.4947
  0
LINE
  8
0
 10
-109.045
 20
83.4947
 11
-108.437
 21
83.3386
  0
LINE
  8
0
 10
-108.437
 20
83.3386
 11
-107.814
 21
83.2599
  0
LINE
  8
0
 10
-107.814
 20
83.2599
 11
107.814
 21
83.2599
  0
LINE
  8
0
 10
107.814
 20
83.2599
 11
108.437
 21
83.3386
  0
LINE
  8
0
 10
-105.151
 20
95.8547
 11
-105.45
 21
95.8925
  0
LINE
  8
0
 10
-105.45
 20
95.8925
 11
-105.742
 21
95.9675
  0
LINE
  8
0
 10
-105.742
 20
95.9675
 11
-106.022
 21
96.0784
  0
LINE
  8
0
 10
-106.022
 20
96.0784
 11
-106.286
 21
96.2236
  0
LINE
  8
0
 10
-106.286
 20
96.2236
 11
-106.53
 21
96.4008
  0
LINE
  8
0
 10
-106.53
 20
96.4008
 11
-106.75
 21
96.6071
  0
LINE
  8
0
 10
-106.75
 20
96.6071
 11
-106.942
 21
96.8393
  0
LINE
  8
0
 10
-106.942
 20
96.8393
 11
-107.103
 21
97.0938
  0
LINE
  8
0
 10
-107.103
 20
97.0938
 11
-107.231
 21
97.3665
  0
LINE
  8
0
 10
-107.231
 20
97.3665
 11
-107.325
 21
97.6531
  0
LINE
  8
0
 10
-107.325
 20
97.6531
 11
-107.381
 21
97.9492
  0
LINE
  8
0
 10
-107.381
 20
97.9492
 11
-107.4
 21
98.25
  0
LINE
  8
0
 10
-107.4
 20
98.25
 11
-107.381
 21
98.5508
  0
LINE
  8
0
 10
-107.381
 20
98.5508
 11
-107.325
 21
98.8468
  0
LINE
  8
0
 10
-107.325
 20
98.8468
 11
-107.231
 21
99.1335
  0
LINE
  8
0
 10
-107.231
 20
99.1335
 11
-107.103
 21
99.4062
  0
LINE
  8
0
 10
-107.103
 20
99.4062
 11
-106.942
 21
99.6607
  0
LINE
  8
0
 10
-106.942
 20
99.6607
 11
-106.75
 21
99.8929
  0
LINE
  8
0
 10
-106.75
 20
99.8929
 11
-106.53
 21
100.099
  0
LINE
  8
0
 10
-106.53
 20
100.099
 11
-106.286
 21
100.276
  0
LINE
  8
0
 10
-106.286
 20
100.276
 11
-106.022
 21
100.422
  0
LINE
  8
0
 10
-106.022
 20
100.422
 11
-105.742
 21
100.533
  0
LINE
  8
0
 10
-105.742
 20
100.533
 11
-105.45
 21
100.607
  0
LINE
  8
0
 10
-105.45
 20
100.607
 11
-105.151
 21
100.645
  0
LINE
  8
0
 10
-105.151
 20
100.645
 11
-104.849
 21
100.645
  0
LINE
  8
0
 10
-104.849
 20
100.645
 11
-104.55
 21
100.607
  0
LINE
  8
0
 10
-104.55
 20
100.607
 11
-104.258
 21
100.533
  0
LINE
  8
0
 10
-104.258
 20
100.533
 11
-103.978
 21
100.422
  0
LINE
  8
0
 10
-103.978
 20
100.422
 11
-103.714
 21
100.276
  0
LINE
  8
0
 10
-103.714
 20
100.276
 11
-103.47
 21
100.099
  0
LINE
  8
0
 10
-103.47
 20
100.099
 11
-103.25
 21
99.8929
  0
LINE
  8
0
 10
-103.25
 20
99.8929
 11
-103.058
 21
99.6607
  0
LINE
  8
0
 10
-103.058
 20
99.6607
 11
-102.897
 21
99.4062
  0
LINE
  8
0
 10
-102.897
 20
99.4062
 11
-102.769
 21
99.1335
  0
LINE
  8
0
 10
-102.769
 20
99.1335
 11
-102.675
 21
98.8468
  0
LINE
  8
0
 10
-102.675
 20
98.8468
 11
-102.619
 21
98.5508
  0
LINE
  8
0
 10
-102.619
 20
98.5508
 11
-102.6
 21
98.25
  0
LINE
  8
0
 10
-102.6
 20
98.25
 11
-102.619
 21
97.9492
  0
LINE
  8
0
 10
-102.619
 20
97.9492
 11
-102.675
 21
97.6531
  0
LINE
  8
0
 10
-102.675
 20
97.6531
 11
-102.769
 21
97.3665
  0
LINE
  8
0
 10
-102.769
 20
97.3665
 11
-102.897
 21
97.0938
  0
LINE
  8
0
 10
-102.897
 20
97.0938
 11
-103.058
 21
96.8393
  0
LINE
  8
0
 10
-103.058
 20
96.8393
 11
-103.25
 21
96.6071
  0
LINE
  8
0
 10
-103.25
 20
96.6071
 11
-103.47
 21
96.4008
  0
LINE
  8
0
 10
-103.47
 20
96.4008
 11
-103.714
 21
96.2236
  0
LINE
  8
0
 10
-103.714
 20
96.2236
 11
-103.978
 21
96.0784
  0
LINE
  8
0
 10
-103.978
 20
96.0784
 11
-104.258
 21
95.9675
  0
LINE
  8
0
 10
-104.258
 20
95.9675
 11
-104.55
 21
95.8925
  0
LINE
  8
0
 10
-104.55
 20
95.8925
 11
-104.849
 21
95.8547
  0
LINE
  8
0
 10
-104.849
 20
95.8547
 11
-105.151
 21
95.8547
  0
LINE
  8
0
 10
104.849
 20
95.8547
 11
104.55
 21
95.8925
  0
LINE
  8
0
 10
104.55
 20
95.8925
 11
104.258
 21
95.9675
  0
LINE
  8
0
 10
104.258
 20
95.9675
 11
103.978
 21
96.0784
  0
LINE
  8
0
 10
103.978
 20
96.0784
 11
103.714
 21
96.2236
  0
LINE
  8
0
 10
103.714
 20
96.2236
 11
103.47
 21
96.4008
  0
LINE
  8
0
 10
103.47
 20
96.4008
 11
103.25
 21
96.6071
  0
LINE
  8
0
 10
103.25
 20
96.6071
 11
103.058
 21
96.8393
  0
LINE
  8
0
 10
103.058
 20
96.8393
 11
102.897
 21
97.0938
  0
LINE
  8
0
 10
102.897
 20
97.0938
 11
102.769
 21
97.3665
  0
LINE
  8
0
 10
102.769
 20
97.3665
 11
102.675
 21
97.6531
  0
LINE
  8
0
 10
102.675
 20
97.6531
 11
102.619
 21
97.9492
  0
LINE
  8
0
 10
102.619
 20
97.9492
 11
102.6
 21
98.25
  0
LINE
  8
0
 10
102.6
 20
98.25
 11
102.619
 21
98.5508
  0
LINE
  8
0
 10
102.619
 20
98.5508
 11
102.675
 21
98.8468
  0
LINE
  8
0
 10
102.675
 20
98.8468
 11
102.769
 21
99.1335
  0
LINE
  8
0
 10
102.769
 20
99.1335
 11
102.897
 21
99.4062
  0
LINE
  8
0
 10
102.897
 20
99.4062
 11
103.058
 21
99.6607
  0
LINE
  8
0
 10
103.058
 20
99.6607
 11
103.25
 21
99.8929
  0
LINE
  8
0
 10
103.25
 20
99.8929
 11
103.47
 21
100.099
  0
LINE
  8
0
 10
103.47
 20
100.099
 11
103.714
 21
100.276
  0
LINE
  8
0
 10
103.714
 20
100.276
 11
103.978
 21
100.422
  0
LINE
  8
0
 10
103.978
 20
100.422
 11
104.258
 21
100.533
  0
LINE
  8
0
 10
104.258
 20
100.533
 11
104.55
 21
100.607
  0
LINE
  8
0
 10
104.55
 20
100.607
 11
104.849
 21
100.645
  0
LINE
  8
0
 10
104.849
 20
100.645
 11
105.151
 21
100.645
  0
LINE
  8
0
 10
105.151
 20
100.645
 11
105.45
 21
100.607
  0
LINE
  8
0
 10
105.45
 20
100.607
 11
105.742
 21
100.533
  0
LINE
  8
0
 10
105.742
 20
100.533
 11
106.022
 21
100.422
  0
LINE
  8
0
 10
106.022
 20
100.422
 11
106.286
 21
100.276
  0
LINE
  8
0
 10
106.286
 20
100.276
 11
106.53
 21
100.099
  0
LINE
  8
0
 10
106.53
 20
100.099
 11
106.75
 21
99.8929
  0
LINE
  8
0
 10
106.75
 20
99.8929
 11
106.942
 21
99.6607
  0
LINE
  8
0
 10
106.942
 20
99.6607
 11
107.103
 21
99.4062
  0
LINE
  8
0
 10
107.103
 20
99.4062
 11
107.231
 21
99.1335
  0
LINE
  8
0
 10
107.231
 20
99.1335
 11
107.325
 21
98.8468
  0
LINE
  8
0
 10
107.325
 20
98.8468
 11
107.381
 21
98.5508
  0
LINE
  8
0
 10
107.381
 20
98.5508
 11
107.4
 21
98.25
  0
LINE
  8
0
 10
107.4
 20
98.25
 11
107.381
 21
97.9492
  0
LINE
  8
0
 10
107.381
 20
97.9492
 11
107.325
 21
97.6531
  0
LINE
  8
0
 10
107.325
 20
97.6531
 11
107.231
 21
97.3665
  0
LINE
  8
0
 10
107.231
 20
97.3665
 11
107.103
 21
97.0938
  0
LINE
  8
0
 10
107.103
 20
97.0938
 11
106.942
 21
96.8393
  0
LINE
  8
0
 10
106.942
 20
96.8393
 11
106.75
 21
96.6071
  0
LINE
  8
0
 10
106.75
 20
96.6071
 11
106.53
 21
96.4008
  0
LINE
  8
0
 10
106.53
 20
96.4008
 11
106.286
 21
96.2236
  0
LINE
  8
0
 10
106.286
 20
96.2236
 11
106.022
 21
96.0784
  0
LINE
  8
0
 10
106.022
 20
96.0784
 11
105.742
 21
95.9675
  0
LINE
  8
0
 10
105.742
 20
95.9675
 11
105.45
 21
95.8925
  0
LINE
  8
0
 10
105.45
 20
95.8925
 11
105.151
 21
95.8547
  0
LINE
  8
0
 10
105.151
 20
95.8547
 11
104.849
 21
95.8547
  0
LINE
  8
0
 10
104.849
 20
88.3547
 11
104.55
 21
88.3925
  0
LINE
  8
0
 10
104.55
 20
88.3925
 11
104.258
 21
88.4675
  0
LINE
  8
0
 10
104.258
 20
88.4675
 11
103.978
 21
88.5784
  0
LINE
  8
0
 10
103.978
 20
88.5784
 11
103.714
 21
88.7236
  0
LINE
  8
0
 10
103.714
 20
88.7236
 11
103.47
 21
88.9008
  0
LINE
  8
0
 10
103.47
 20
88.9008
 11
103.25
 21
89.1071
  0
LINE
  8
0
 10
103.25
 20
89.1071
 11
103.058
 21
89.3393
  0
LINE
  8
0
 10
103.058
 20
89.3393
 11
102.897
 21
89.5938
  0
LINE
  8
0
 10
102.897
 20
89.5938
 11
102.769
 21
89.8665
  0
LINE
  8
0
 10
102.769
 20
89.8665
 11
102.675
 21
90.1532
  0
LINE
  8
0
 10
102.675
 20
90.1532
 11
102.619
 21
90.4492
  0
LINE
  8
0
 10
102.619
 20
90.4492
 11
102.6
 21
90.75
  0
LINE
  8
0
 10
102.6
 20
90.75
 11
102.619
 21
91.0508
  0
LINE
  8
0
 10
102.619
 20
91.0508
 11
102.675
 21
91.3469
  0
LINE
  8
0
 10
102.675
 20
91.3469
 11
102.769
 21
91.6335
  0
LINE
  8
0
 10
102.769
 20
91.6335
 11
102.897
 21
91.9062
  0
LINE
  8
0
 10
102.897
 20
91.9062
 11
103.058
 21
92.1607
  0
LINE
  8
0
 10
103.058
 20
92.1607
 11
103.25
 21
92.3929
  0
LINE
  8
0
 10
103.25
 20
92.3929
 11
103.47
 21
92.5992
  0
LINE
  8
0
 10
103.47
 20
92.5992
 11
103.714
 21
92.7764
  0
LINE
  8
0
 10
103.714
 20
92.7764
 11
103.978
 21
92.9216
  0
LINE
  8
0
 10
103.978
 20
92.9216
 11
104.258
 21
93.0325
  0
LINE
  8
0
 10
104.258
 20
93.0325
 11
104.55
 21
93.1075
  0
LINE
  8
0
 10
104.55
 20
93.1075
 11
104.849
 21
93.1453
  0
LINE
  8
0
 10
104.849
 20
93.1453
 11
105.151
 21
93.1453
  0
LINE
  8
0
 10
105.151
 20
93.1453
 11
105.45
 21
93.1075
  0
LINE
  8
0
 10
105.45
 20
93.1075
 11
105.742
 21
93.0325
  0
LINE
  8
0
 10
105.742
 20
93.0325
 11
106.022
 21
92.9216
  0
LINE
  8
0
 10
106.022
 20
92.9216
 11
106.286
 21
92.7764
  0
LINE
  8
0
 10
106.286
 20
92.7764
 11
106.53
 21
92.5992
  0
LINE
  8
0
 10
106.53
 20
92.5992
 11
106.75
 21
92.3929
  0
LINE
  8
0
 10
106.75
 20
92.3929
 11
106.942
 21
92.1607
  0
LINE
  8
0
 10
106.942
 20
92.1607
 11
107.103
 21
91.9062
  0
LINE
  8
0
 10
107.103
 20
91.9062
 11
107.231
 21
91.6335
  0
LINE
  8
0
 10
107.231
 20
91.6335
 11
107.325
 21
91.3469
  0
LINE
  8
0
 10
107.325
 20
91.3469
 11
107.381
 21
91.0508
  0
LINE
  8
0
 10
107.381
 20
91.0508
 11
107.4
 21
90.75
  0
LINE
  8
0
 10
107.4
 20
90.75
 11
107.381
 21
90.4492
  0
LINE
  8
0
 10
107.381
 20
90.4492
 11
107.325
 21
90.1532
  0
LINE
  8
0
 10
107.325
 20
90.1532
 11
107.231
 21
89.8665
  0
LINE
  8
0
 10
107.231
 20
89.8665
 11
107.103
 21
89.5938
  0
LINE
  8
0
 10
107.103
 20
89.5938
 11
106.942
 21
89.3393
  0
LINE
  8
0
 10
106.942
 20
89.3393
 11
106.75
 21
89.1071
  0
LINE
  8
0
 10
106.75
 20
89.1071
 11
106.53
 21
88.9008
  0
LINE
  8
0
 10
106.53
 20
88.9008
 11
106.286
 21
88.7236
  0
LINE
  8
0
 10
106.286
 20
88.7236
 11
106.022
 21
88.5784
  0
LINE
  8
0
 10
106.022
 20
88.5784
 11
105.742
 21
88.4675
  0
LINE
  8
0
 10
105.742
 20
88.4675
 11
105.45
 21
88.3925
  0
LINE
  8
0
 10
105.45
 20
88.3925
 11
105.151
 21
88.3547
  0
LINE
  8
0
 10
105.151
 20
88.3547
 11
104.849
 21
88.3547
  0
LINE
  8
0
 10
-105.151
 20
88.3547
 11
-105.45
 21
88.3925
  0
LINE
  8
0
 10
-105.45
 20
88.3925
 11
-105.742
 21
88.4675
  0
LINE
  8
0
 10
-105.742
 20
88.4675
 11
-106.022
 21
88.5784
  0
LINE
  8
0
 10
-106.022
 20
88.5784
 11
-106.286
 21
88.7236
  0
LINE
  8
0
 10
-106.286
 20
88.7236
 11
-106.53
 21
88.9008
  0
LINE
  8
0
 10
-106.53
 20
88.9008
 11
-106.75
 21
89.1071
  0
LINE
  8
0
 10
-106.75
 20
89.1071
 11
-106.942
 21
89.3393
  0
LINE
  8
0
 10
-106.942
 20
89.3393
 11
-107.103
 21
89.5938
  0
LINE
  8
0
 10
-107.103
 20
89.5938
 11
-107.231
 21
89.8665
  0
LINE
  8
0
 10
-107.231
 20
89.8665
 11
-107.325
 21
90.1532
  0
LINE
  8
0
 10
-107.325
 20
90.1532
 11
-107.381
 21
90.4492
  0
LINE
  8
0
 10
-107.381
 20
90.4492
 11
-107.4
 21
90.75
  0
LINE
  8
0
 10
-107.4
 20
90.75
 11
-107.381
 21
91.0508
  0
LINE
  8
0
 10
-107.381
 20
91.0508
 11
-107.325
 21
91.3469
  0
LINE
  8
0
 10
-107.325
 20
91.3469
 11
-107.231
 21
91.6335
  0
LINE
  8
0
 10
-107.231
 20
91.6335
 11
-107.103
 21
91.9062
  0
LINE
  8
0
 10
-107.103
 20
91.9062
 11
-106.942
 21
92.1607
  0
LINE
  8
0
 10
-106.942
 20
92.1607
 11
-106.75
 21
92.3929
  0
LINE
  8
0
 10
-106.75
 20
92.3929
 11
-106.53
 21
92.5992
  0
LINE
  8
0
 10
-106.53
 20
92.5992
 11
-106.286
 21
92.7764
  0
LINE
  8
0
 10
-106.286
 20
92.7764
 11
-106.022
 21
92.9216
  0
LINE
  8
0
 10
-106.022
 20
92.9216
 11
-105.742
 21
93.0325
  0
LINE
  8
0
 10
-105.742
 20
93.0325
 11
-105.45
 21
93.1075
  0
LINE
  8
0
 10
-105.45
 20
93.1075
 11
-105.151
 21
93.1453
  0
LINE
  8
0
 10
-105.151
 20
93.1453
 11
-104.849
 21
93.1453
  0
LINE
  8
0
 10
-104.849
 20
93.1453
 11
-104.55
 21
93.1075
  0
LINE
  8
0
 10
-104.55
 20
93.1075
 11
-104.258
 21
93.0325
  0
LINE
  8
0
 10
-104.258
 20
93.0325
 11
-103.978
 21
92.9216
  0
LINE
  8
0
 10
-103.978
 20
92.9216
 11
-103.714
 21
92.7764
  0
LINE
  8
0
 10
-103.714
 20
92.7764
 11
-103.47
 21
92.5992
  0
LINE
  8
0
 10
-103.47
 20
92.5992
 11
-103.25
 21
92.3929
  0
LINE
  8
0
 10
-103.25
 20
92.3929
 11
-103.058
 21
92.1607
  0
LINE
  8
0
 10
-103.058
 20
92.1607
 11
-102.897
 21
91.9062
  0
LINE
  8
0
 10
-102.897
 20
91.9062
 11
-102.769
 21
91.6335
  0
LINE
  8
0
 10
-102.769
 20
91.6335
 11
-102.675
 21
91.3469
  0
LINE
  8
0
 10
-102.675
 20
91.3469
 11
-102.619
 21
91.0508
  0
LINE
  8
0
 10
-102.619
 20
91.0508
 11
-102.6
 21
90.75
  0
LINE
  8
0
 10
-102.6
 20
90.75
 11
-102.619
 21
90.4492
  0
LINE
  8
0
 10
-102.619
 20
90.4492
 11
-102.675
 21
90.1532
  0
LINE
  8
0
 10
-102.675
 20
90.1532
 11
-102.769
 21
89.8665
  0
LINE
  8
0
 10
-102.769
 20
89.8665
 11
-102.897
 21
89.5938
  0
LINE
  8
0
 10
-102.897
 20
89.5938
 11
-103.058
 21
89.3393
  0
LINE
  8
0
 10
-103.058
 20
89.3393
 11
-103.25
 21
89.1071
  0
LINE
  8
0
 10
-103.25
 20
89.1071
 11
-103.47
 21
88.9008
  0
LINE
  8
0
 10
-103.47
 20
88.9008
 11
-103.714
 21
88.7236
  0
LINE
  8
0
 10
-103.714
 20
88.7236
 11
-103.978
 21
88.5784
  0
LINE
  8
0
 10
-103.978
 20
88.5784
 11
-104.258
 21
88.4675
  0
LINE
  8
0
 10
-104.258
 20
88.4675
 11
-104.55
 21
88.3925
  0
LINE
  8
0
 10
-104.55
 20
88.3925
 11
-104.849
 21
88.3547
  0
LINE
  8
0
 10
-104.849
 20
88.3547
 11
-105.151
 21
88.3547
  0
LINE
  8
0
 10
108.437
 20
51.8386
 11
109.045
 21
51.9947
  0
LINE
  8
0
 10
109.045
 20
51.9947
 11
109.629
 21
52.2259
  0
LINE
  8
0
 10
109.629
 20
52.2259
 11
110.179
 21
52.5284
  0
LINE
  8
0
 10
110.179
 20
52.5284
 11
110.687
 21
52.8974
  0
LINE
  8
0
 10
110.687
 20
52.8974
 11
111.145
 21
53.3273
  0
LINE
  8
0
 10
111.145
 20
53.3273
 11
111.545
 21
53.8111
  0
LINE
  8
0
 10
111.545
 20
53.8111
 11
111.882
 21
54.3412
  0
LINE
  8
0
 10
111.882
 20
54.3412
 11
112.149
 21
54.9094
  0
LINE
  8
0
 10
112.149
 20
54.9094
 11
112.343
 21
55.5066
  0
LINE
  8
0
 10
112.343
 20
55.5066
 11
112.461
 21
56.1233
  0
LINE
  8
0
 10
112.461
 20
56.1233
 11
112.5
 21
56.75
  0
LINE
  8
0
 10
112.5
 20
56.75
 11
112.5
 21
69.25
  0
LINE
  8
0
 10
112.5
 20
69.25
 11
112.461
 21
69.8767
  0
LINE
  8
0
 10
112.461
 20
69.8767
 11
112.343
 21
70.4934
  0
LINE
  8
0
 10
112.343
 20
70.4934
 11
112.149
 21
71.0906
  0
LINE
  8
0
 10
112.149
 20
71.0906
 11
111.882
 21
71.6588
  0
LINE
  8
0
 10
111.882
 20
71.6588
 11
111.545
 21
72.1889
  0
LINE
  8
0
 10
111.545
 20
72.1889
 11
111.145
 21
72.6727
  0
LINE
  8
0
 10
111.145
 20
72.6727
 11
110.687
 21
73.1026
  0
LINE
  8
0
 10
110.687
 20
73.1026
 11
110.179
 21
73.4716
  0
LINE
  8
0
 10
110.179
 20
73.4716
 11
109.629
 21
73.7741
  0
LINE
  8
0
 10
109.629
 20
73.7741
 11
109.045
 21
74.0053
  0
LINE
  8
0
 10
109.045
 20
74.0053
 11
108.437
 21
74.1614
  0
LINE
  8
0
 10
108.437
 20
74.1614
 11
107.814
 21
74.2401
  0
LINE
  8
0
 10
107.814
 20
74.2401
 11
-107.814
 21
74.2401
  0
LINE
  8
0
 10
-107.814
 20
74.2401
 11
-108.437
 21
74.1614
  0
LINE
  8
0
 10
-108.437
 20
74.1614
 11
-109.045
 21
74.0053
  0
LINE
  8
0
 10
-109.045
 20
74.0053
 11
-109.629
 21
73.7741
  0
LINE
  8
0
 10
-109.629
 20
73.7741
 11
-110.179
 21
73.4716
  0
LINE
  8
0
 10
-110.179
 20
73.4716
 11
-110.687
 21
73.1026
  0
LINE
  8
0
 10
-110.687
 20
73.1026
 11
-111.145
 21
72.6727
  0
LINE
  8
0
 10
-111.145
 20
72.6727
 11
-111.545
 21
72.1889
  0
LINE
  8
0
 10
-111.545
 20
72.1889
 11
-111.882
 21
71.6588
  0
LINE
  8
0
 10
-111.882
 20
71.6588
 11
-112.149
 21
71.0906
  0
LINE
  8
0
 10
-112.149
 20
71.0906
 11
-112.343
 21
70.4934
  0
LINE
  8
0
 10
-112.343
 20
70.4934
 11
-112.4
 21
70.1942
  0
LINE
  8
0
 10
-112.4
 20
70.1942
 11
-112.5
 21
70.1942
  0
LINE
  8
0
 10
-112.5
 20
70.1942
 11
-112.5
 21
55.8058
  0
LINE
  8
0
 10
-112.5
 20
55.8058
 11
-112.4
 21
55.8058
  0
LINE
  8
0
 10
-112.4
 20
55.8058
 11
-112.343
 21
55.5066
  0
LINE
  8
0
 10
-112.343
 20
55.5066
 11
-112.149
 21
54.9094
  0
LINE
  8
0
 10
-112.149
 20
54.9094
 11
-111.882
 21
54.3412
  0
LINE
  8
0
 10
-111.882
 20
54.3412
 11
-111.545
 21
53.8111
  0
LINE
  8
0
 10
-111.545
 20
53.8111
 11
-111.145
 21
53.3273
  0
LINE
  8
0
 10
-111.145
 20
53.3273
 11
-110.687
 21
52.8974
  0
LINE
  8
0
 10
-110.687
 20
52.8974
 11
-110.179
 21
52.5284
  0
LINE
  8
0
 10
-110.179
 20
52.5284
 11
-109.629
 21
52.2259
  0
LINE
  8
0
 10
-109.629
 20
52.2259
 11
-109.045
 21
51.9947
  0
LINE
  8
0
 10
-109.045
 20
51.9947
 11
-108.437
 21
51.8386
  0
LINE
  8
0
 10
-108.437
 20
51.8386
 11
-107.814
 21
51.7599
  0
LINE
  8
0
 10
-107.814
 20
51.7599
 11
107.814
 21
51.7599
  0
LINE
  8
0
 10
107.814
 20
51.7599
 11
108.437
 21
51.8386
  0
LINE
  8
0
 10
104.887
 20
64.9536
 11
104.663
 21
64.9819
  0
LINE
  8
0
 10
104.663
 20
64.9819
 11
104.444
 21
65.0381
  0
LINE
  8
0
 10
104.444
 20
65.0381
 11
104.234
 21
65.1213
  0
LINE
  8
0
 10
104.234
 20
65.1213
 11
104.036
 21
65.2302
  0
LINE
  8
0
 10
104.036
 20
65.2302
 11
103.853
 21
65.3631
  0
LINE
  8
0
 10
103.853
 20
65.3631
 11
103.688
 21
65.5178
  0
LINE
  8
0
 10
103.688
 20
65.5178
 11
103.544
 21
65.692
  0
LINE
  8
0
 10
103.544
 20
65.692
 11
103.423
 21
65.8828
  0
LINE
  8
0
 10
103.423
 20
65.8828
 11
103.326
 21
66.0874
  0
LINE
  8
0
 10
103.326
 20
66.0874
 11
103.257
 21
66.3024
  0
LINE
  8
0
 10
103.257
 20
66.3024
 11
103.214
 21
66.5244
  0
LINE
  8
0
 10
103.214
 20
66.5244
 11
103.2
 21
66.75
  0
LINE
  8
0
 10
103.2
 20
66.75
 11
103.214
 21
66.9756
  0
LINE
  8
0
 10
103.214
 20
66.9756
 11
103.257
 21
67.1976
  0
LINE
  8
0
 10
103.257
 20
67.1976
 11
103.326
 21
67.4126
  0
LINE
  8
0
 10
103.326
 20
67.4126
 11
103.423
 21
67.6171
  0
LINE
  8
0
 10
103.423
 20
67.6171
 11
103.544
 21
67.808
  0
LINE
  8
0
 10
103.544
 20
67.808
 11
103.688
 21
67.9822
  0
LINE
  8
0
 10
103.688
 20
67.9822
 11
103.853
 21
68.1369
  0
LINE
  8
0
 10
103.853
 20
68.1369
 11
104.036
 21
68.2698
  0
LINE
  8
0
 10
104.036
 20
68.2698
 11
104.234
 21
68.3787
  0
LINE
  8
0
 10
104.234
 20
68.3787
 11
104.444
 21
68.4619
  0
LINE
  8
0
 10
104.444
 20
68.4619
 11
104.663
 21
68.5181
  0
LINE
  8
0
 10
104.663
 20
68.5181
 11
104.887
 21
68.5464
  0
LINE
  8
0
 10
104.887
 20
68.5464
 11
105.113
 21
68.5464
  0
LINE
  8
0
 10
105.113
 20
68.5464
 11
105.337
 21
68.5181
  0
LINE
  8
0
 10
105.337
 20
68.5181
 11
105.556
 21
68.4619
  0
LINE
  8
0
 10
105.556
 20
68.4619
 11
105.766
 21
68.3787
  0
LINE
  8
0
 10
105.766
 20
68.3787
 11
105.964
 21
68.2698
  0
LINE
  8
0
 10
105.964
 20
68.2698
 11
106.147
 21
68.1369
  0
LINE
  8
0
 10
106.147
 20
68.1369
 11
106.312
 21
67.9822
  0
LINE
  8
0
 10
106.312
 20
67.9822
 11
106.456
 21
67.808
  0
LINE
  8
0
 10
106.456
 20
67.808
 11
106.577
 21
67.6171
  0
LINE
  8
0
 10
106.577
 20
67.6171
 11
106.674
 21
67.4126
  0
LINE
  8
0
 10
106.674
 20
67.4126
 11
106.743
 21
67.1976
  0
LINE
  8
0
 10
106.743
 20
67.1976
 11
106.786
 21
66.9756
  0
LINE
  8
0
 10
106.786
 20
66.9756
 11
106.8
 21
66.75
  0
LINE
  8
0
 10
106.8
 20
66.75
 11
106.786
 21
66.5244
  0
LINE
  8
0
 10
106.786
 20
66.5244
 11
106.743
 21
66.3024
  0
LINE
  8
0
 10
106.743
 20
66.3024
 11
106.674
 21
66.0874
  0
LINE
  8
0
 10
106.674
 20
66.0874
 11
106.577
 21
65.8828
  0
LINE
  8
0
 10
106.577
 20
65.8828
 11
106.456
 21
65.692
  0
LINE
  8
0
 10
106.456
 20
65.692
 11
106.312
 21
65.5178
  0
LINE
  8
0
 10
106.312
 20
65.5178
 11
106.147
 21
65.3631
  0
LINE
  8
0
 10
106.147
 20
65.3631
 11
105.964
 21
65.2302
  0
LINE
  8
0
 10
105.964
 20
65.2302
 11
105.766
 21
65.1213
  0
LINE
  8
0
 10
105.766
 20
65.1213
 11
105.556
 21
65.0381
  0
LINE
  8
0
 10
105.556
 20
65.0381
 11
105.337
 21
64.9819
  0
LINE
  8
0
 10
105.337
 20
64.9819
 11
105.113
 21
64.9536
  0
LINE
  8
0
 10
105.113
 20
64.9536
 11
104.887
 21
64.9536
  0
LINE
  8
0
 10
-105.113
 20
64.9536
 11
-105.337
 21
64.9819
  0
LINE
  8
0
 10
-105.337
 20
64.9819
 11
-105.556
 21
65.0381
  0
LINE
  8
0
 10
-105.556
 20
65.0381
 11
-105.766
 21
65.1213
  0
LINE
  8
0
 10
-105.766
 20
65.1213
 11
-105.964
 21
65.2302
  0
LINE
  8
0
 10
-105.964
 20
65.2302
 11
-106.147
 21
65.3631
  0
LINE
  8
0
 10
-106.147
 20
65.3631
 11
-106.312
 21
65.5178
  0
LINE
  8
0
 10
-106.312
 20
65.5178
 11
-106.456
 21
65.692
  0
LINE
  8
0
 10
-106.456
 20
65.692
 11
-106.577
 21
65.8828
  0
LINE
  8
0
 10
-106.577
 20
65.8828
 11
-106.674
 21
66.0874
  0
LINE
  8
0
 10
-106.674
 20
66.0874
 11
-106.743
 21
66.3024
  0
LINE
  8
0
 10
-106.743
 20
66.3024
 11
-106.786
 21
66.5244
  0
LINE
  8
0
 10
-106.786
 20
66.5244
 11
-106.8
 21
66.75
  0
LINE
  8
0
 10
-106.8
 20
66.75
 11
-106.786
 21
66.9756
  0
LINE
  8
0
 10
-106.786
 20
66.9756
 11
-106.743
 21
67.1976
  0
LINE
  8
0
 10
-106.743
 20
67.1976
 11
-106.674
 21
67.4126
  0
LINE
  8
0
 10
-106.674
 20
67.4126
 11
-106.577
 21
67.6171
  0
LINE
  8
0
 10
-106.577
 20
67.6171
 11
-106.456
 21
67.808
  0
LINE
  8
0
 10
-106.456
 20
67.808
 11
-106.312
 21
67.9822
  0
LINE
  8
0
 10
-106.312
 20
67.9822
 11
-106.147
 21
68.1369
  0
LINE
  8
0
 10
-106.147
 20
68.1369
 11
-105.964
 21
68.2698
  0
LINE
  8
0
 10
-105.964
 20
68.2698
 11
-105.766
 21
68.3787
  0
LINE
  8
0
 10
-105.766
 20
68.3787
 11
-105.556
 21
68.4619
  0
LINE
  8
0
 10
-105.556
 20
68.4619
 11
-105.337
 21
68.5181
  0
LINE
  8
0
 10
-105.337
 20
68.5181
 11
-105.113
 21
68.5464
  0
LINE
  8
0
 10
-105.113
 20
68.5464
 11
-104.887
 21
68.5464
  0
LINE
  8
0
 10
-104.887
 20
68.5464
 11
-104.663
 21
68.5181
  0
LINE
  8
0
 10
-104.663
 20
68.5181
 11
-104.444
 21
68.4619
  0
LINE
  8
0
 10
-104.444
 20
68.4619
 11
-104.234
 21
68.3787
  0
LINE
  8
0
 10
-104.234
 20
68.3787
 11
-104.036
 21
68.2698
  0
LINE
  8
0
 10
-104.036
 20
68.2698
 11
-103.853
 21
68.1369
  0
LINE
  8
0
 10
-103.853
 20
68.1369
 11
-103.688
 21
67.9822
  0
LINE
  8
0
 10
-103.688
 20
67.9822
 11
-103.544
 21
67.808
  0
LINE
  8
0
 10
-103.544
 20
67.808
 11
-103.423
 21
67.6171
  0
LINE
  8
0
 10
-103.423
 20
67.6171
 11
-103.326
 21
67.4126
  0
LINE
  8
0
 10
-103.326
 20
67.4126
 11
-103.257
 21
67.1976
  0
LINE
  8
0
 10
-103.257
 20
67.1976
 11
-103.214
 21
66.9756
  0
LINE
  8
0
 10
-103.214
 20
66.9756
 11
-103.2
 21
66.75
  0
LINE
  8
0
 10
-103.2
 20
66.75
 11
-103.214
 21
66.5244
  0
LINE
  8
0
 10
-103.214
 20
66.5244
 11
-103.257
 21
66.3024
  0
LINE
  8
0
 10
-103.257
 20
66.3024
 11
-103.326
 21
66.0874
  0
LINE
  8
0
 10
-103.326
 20
66.0874
 11
-103.423
 21
65.8828
  0
LINE
  8
0
 10
-103.423
 20
65.8828
 11
-103.544
 21
65.692
  0
LINE
  8
0
 10
-103.544
 20
65.692
 11
-103.688
 21
65.5178
  0
LINE
  8
0
 10
-103.688
 20
65.5178
 11
-103.853
 21
65.3631
  0
LINE
  8
0
 10
-103.853
 20
65.3631
 11
-104.036
 21
65.2302
  0
LINE
  8
0
 10
-104.036
 20
65.2302
 11
-104.234
 21
65.1213
  0
LINE
  8
0
 10
-104.234
 20
65.1213
 11
-104.444
 21
65.0381
  0
LINE
  8
0
 10
-104.444
 20
65.0381
 11
-104.663
 21
64.9819
  0
LINE
  8
0
 10
-104.663
 20
64.9819
 11
-104.887
 21
64.9536
  0
LINE
  8
0
 10
-104.887
 20
64.9536
 11
-105.113
 21
64.9536
  0
LINE
  8
0
 10
104.887
 20
57.4536
 11
104.663
 21
57.4819
  0
LINE
  8
0
 10
104.663
 20
57.4819
 11
104.444
 21
57.5381
  0
LINE
  8
0
 10
104.444
 20
57.5381
 11
104.234
 21
57.6213
  0
LINE
  8
0
 10
104.234
 20
57.6213
 11
104.036
 21
57.7302
  0
LINE
  8
0
 10
104.036
 20
57.7302
 11
103.853
 21
57.8631
  0
LINE
  8
0
 10
103.853
 20
57.8631
 11
103.688
 21
58.0178
  0
LINE
  8
0
 10
103.688
 20
58.0178
 11
103.544
 21
58.192
  0
LINE
  8
0
 10
103.544
 20
58.192
 11
103.423
 21
58.3829
  0
LINE
  8
0
 10
103.423
 20
58.3829
 11
103.326
 21
58.5874
  0
LINE
  8
0
 10
103.326
 20
58.5874
 11
103.257
 21
58.8024
  0
LINE
  8
0
 10
103.257
 20
58.8024
 11
103.214
 21
59.0244
  0
LINE
  8
0
 10
103.214
 20
59.0244
 11
103.2
 21
59.25
  0
LINE
  8
0
 10
103.2
 20
59.25
 11
103.214
 21
59.4756
  0
LINE
  8
0
 10
103.214
 20
59.4756
 11
103.257
 21
59.6976
  0
LINE
  8
0
 10
103.257
 20
59.6976
 11
103.326
 21
59.9126
  0
LINE
  8
0
 10
103.326
 20
59.9126
 11
103.423
 21
60.1172
  0
LINE
  8
0
 10
103.423
 20
60.1172
 11
103.544
 21
60.308
  0
LINE
  8
0
 10
103.544
 20
60.308
 11
103.688
 21
60.4822
  0
LINE
  8
0
 10
103.688
 20
60.4822
 11
103.853
 21
60.6369
  0
LINE
  8
0
 10
103.853
 20
60.6369
 11
104.036
 21
60.7698
  0
LINE
  8
0
 10
104.036
 20
60.7698
 11
104.234
 21
60.8787
  0
LINE
  8
0
 10
104.234
 20
60.8787
 11
104.444
 21
60.9619
  0
LINE
  8
0
 10
104.444
 20
60.9619
 11
104.663
 21
61.0181
  0
LINE
  8
0
 10
104.663
 20
61.0181
 11
104.887
 21
61.0464
  0
LINE
  8
0
 10
104.887
 20
61.0464
 11
105.113
 21
61.0464
  0
LINE
  8
0
 10
105.113
 20
61.0464
 11
105.337
 21
61.0181
  0
LINE
  8
0
 10
105.337
 20
61.0181
 11
105.556
 21
60.9619
  0
LINE
  8
0
 10
105.556
 20
60.9619
 11
105.766
 21
60.8787
  0
LINE
  8
0
 10
105.766
 20
60.8787
 11
105.964
 21
60.7698
  0
LINE
  8
0
 10
105.964
 20
60.7698
 11
106.147
 21
60.6369
  0
LINE
  8
0
 10
106.147
 20
60.6369
 11
106.312
 21
60.4822
  0
LINE
  8
0
 10
106.312
 20
60.4822
 11
106.456
 21
60.308
  0
LINE
  8
0
 10
106.456
 20
60.308
 11
106.577
 21
60.1172
  0
LINE
  8
0
 10
106.577
 20
60.1172
 11
106.674
 21
59.9126
  0
LINE
  8
0
 10
106.674
 20
59.9126
 11
106.743
 21
59.6976
  0
LINE
  8
0
 10
106.743
 20
59.6976
 11
106.786
 21
59.4756
  0
LINE
  8
0
 10
106.786
 20
59.4756
 11
106.8
 21
59.25
  0
LINE
  8
0
 10
106.8
 20
59.25
 11
106.786
 21
59.0244
  0
LINE
  8
0
 10
106.786
 20
59.0244
 11
106.743
 21
58.8024
  0
LINE
  8
0
 10
106.743
 20
58.8024
 11
106.674
 21
58.5874
  0
LINE
  8
0
 10
106.674
 20
58.5874
 11
106.577
 21
58.3829
  0
LINE
  8
0
 10
106.577
 20
58.3829
 11
106.456
 21
58.192
  0
LINE
  8
0
 10
106.456
 20
58.192
 11
106.312
 21
58.0178
  0
LINE
  8
0
 10
106.312
 20
58.0178
 11
106.147
 21
57.8631
  0
LINE
  8
0
 10
106.147
 20
57.8631
 11
105.964
 21
57.7302
  0
LINE
  8
0
 10
105.964
 20
57.7302
 11
105.766
 21
57.6213
  0
LINE
  8
0
 10
105.766
 20
57.6213
 11
105.556
 21
57.5381
  0
LINE
  8
0
 10
105.556
 20
57.5381
 11
105.337
 21
57.4819
  0
LINE
  8
0
 10
105.337
 20
57.4819
 11
105.113
 21
57.4536
  0
LINE
  8
0
 10
105.113
 20
57.4536
 11
104.887
 21
57.4536
  0
LINE
  8
0
 10
-105.113
 20
57.4536
 11
-105.337
 21
57.4819
  0
LINE
  8
0
 10
-105.337
 20
57.4819
 11
-105.556
 21
57.5381
  0
LINE
  8
0
 10
-105.556
 20
57.5381
 11
-105.766
 21
57.6213
  0
LINE
  8
0
 10
-105.766
 20
57.6213
 11
-105.964
 21
57.7302
  0
LINE
  8
0
 10
-105.964
 20
57.7302
 11
-106.147
 21
57.8631
  0
LINE
  8
0
 10
-106.147
 20
57.8631
 11
-106.312
 21
58.0178
  0
LINE
  8
0
 10
-106.312
 20
58.0178
 11
-106.456
 21
58.192
  0
LINE
  8
0
 10
-106.456
 20
58.192
 11
-106.577
 21
58.3829
  0
LINE
  8
0
 10
-106.577
 20
58.3829
 11
-106.674
 21
58.5874
  0
LINE
  8
0
 10
-106.674
 20
58.5874
 11
-106.743
 21
58.8024
  0
LINE
  8
0
 10
-106.743
 20
58.8024
 11
-106.786
 21
59.0244
  0
LINE
  8
0
 10
-106.786
 20
59.0244
 11
-106.8
 21
59.25
  0
LINE
  8
0
 10
-106.8
 20
59.25
 11
-106.786
 21
59.4756
  0
LINE
  8
0
 10
-106.786
 20
59.4756
 11
-106.743
 21
59.6976
  0
LINE
  8
0
 10
-106.743
 20
59.6976
 11
-106.674
 21
59.9126
  0
LINE
  8
0
 10
-106.674
 20
59.9126
 11
-106.577
 21
60.1172
  0
LINE
  8
0
 10
-106.577
 20
60.1172
 11
-106.456
 21
60.308
  0
LINE
  8
0
 10
-106.456
 20
60.308
 11
-106.312
 21
60.4822
  0
LINE
  8
0
 10
-106.312
 20
60.4822
 11
-106.147
 21
60.6369
  0
LINE
  8
0
 10
-106.147
 20
60.6369
 11
-105.964
 21
60.7698
  0
LINE
  8
0
 10
-105.964
 20
60.7698
 11
-105.766
 21
60.8787
  0
LINE
  8
0
 10
-105.766
 20
60.8787
 11
-105.556
 21
60.9619
  0
LINE
  8
0
 10
-105.556
 20
60.9619
 11
-105.337
 21
61.0181
  0
LINE
  8
0
 10
-105.337
 20
61.0181
 11
-105.113
 21
61.0464
  0
LINE
  8
0
 10
-105.113
 20
61.0464
 11
-104.887
 21
61.0464
  0
LINE
  8
0
 10
-104.887
 20
61.0464
 11
-104.663
 21
61.0181
  0
LINE
  8
0
 10
-104.663
 20
61.0181
 11
-104.444
 21
60.9619
  0
LINE
  8
0
 10
-104.444
 20
60.9619
 11
-104.234
 21
60.8787
  0
LINE
  8
0
 10
-104.234
 20
60.8787
 11
-104.036
 21
60.7698
  0
LINE
  8
0
 10
-104.036
 20
60.7698
 11
-103.853
 21
60.6369
  0
LINE
  8
0
 10
-103.853
 20
60.6369
 11
-103.688
 21
60.4822
  0
LINE
  8
0
 10
-103.688
 20
60.4822
 11
-103.544
 21
60.308
  0
LINE
  8
0
 10
-103.544
 20
60.308
 11
-103.423
 21
60.1172
  0
LINE
  8
0
 10
-103.423
 20
60.1172
 11
-103.326
 21
59.9126
  0
LINE
  8
0
 10
-103.326
 20
59.9126
 11
-103.257
 21
59.6976
  0
LINE
  8
0
 10
-103.257
 20
59.6976
 11
-103.214
 21
59.4756
  0
LINE
  8
0
 10
-103.214
 20
59.4756
 11
-103.2
 21
59.25
  0
LINE
  8
0
 10
-103.2
 20
59.25
 11
-103.214
 21
59.0244
  0
LINE
  8
0
 10
-103.214
 20
59.0244
 11
-103.257
 21
58.8024
  0
LINE
  8
0
 10
-103.257
 20
58.8024
 11
-103.326
 21
58.5874
  0
LINE
  8
0
 10
-103.326
 20
58.5874
 11
-103.423
 21
58.3829
  0
LINE
  8
0
 10
-103.423
 20
58.3829
 11
-103.544
 21
58.192
  0
LINE
  8
0
 10
-103.544
 20
58.192
 11
-103.688
 21
58.0178
  0
LINE
  8
0
 10
-103.688
 20
58.0178
 11
-103.853
 21
57.8631
  0
LINE
  8
0
 10
-103.853
 20
57.8631
 11
-104.036
 21
57.7302
  0
LINE
  8
0
 10
-104.036
 20
57.7302
 11
-104.234
 21
57.6213
  0
LINE
  8
0
 10
-104.234
 20
57.6213
 11
-104.444
 21
57.5381
  0
LINE
  8
0
 10
-104.444
 20
57.5381
 11
-104.663
 21
57.4819
  0
LINE
  8
0
 10
-104.663
 20
57.4819
 11
-104.887
 21
57.4536
  0
LINE
  8
0
 10
-104.887
 20
57.4536
 11
-105.113
 21
57.4536
  0
ENDSEC
  0
SECTION
  2
OBJECTS
  0
DICTIONARY
  0
ENDSEC
  0
EOF
