<?xml version="1.0" standalone="no"?>
<!DOCTYPE svg PUBLIC "-//W3C//DTD SVG 1.1//EN" "http://www.w3.org/Graphics/SVG/1.1/DTD/svg11.dtd">
<svg width="46mm" height="808mm" viewBox="-23 -1526 46 808" xmlns="http://www.w3.org/2000/svg" version="1.1">
<title>OpenSCAD Model</title>
<path d="
M 18.4369,-1330.59 L 19.0451,-1330.74 L 19.6289,-1330.98 L 20.1791,-1331.28 L 20.6871,-1331.65 L 21.1448,-1332.08
 L 21.5451,-1332.56 L 21.8815,-1333.09 L 22.1489,-1333.66 L 22.3429,-1334.26 L 22.4606,-1334.87 L 22.5,-1335.5
 L 22.5,-1520.5 L 22.4606,-1521.13 L 22.3429,-1521.74 L 22.1489,-1522.34 L 21.8815,-1522.91 L 21.5451,-1523.44
 L 21.1448,-1523.92 L 20.6871,-1524.35 L 20.1791,-1524.72 L 19.6289,-1525.02 L 19.0451,-1525.26 L 18.4369,-1525.41
 L 17.8139,-1525.49 L -17.8139,-1525.49 L -18.4369,-1525.41 L -19.0451,-1525.26 L -19.6289,-1525.02 L -20.1791,-1524.72
 L -20.6871,-1524.35 L -20.9,-1524.15 L -22.5,-1524.15 L -22.5,-1331.85 L -20.9,-1331.85 L -20.6871,-1331.65
 L -20.1791,-1331.28 L -19.6289,-1330.98 L -19.0451,-1330.74 L -18.4369,-1330.59 L -17.8139,-1330.51 L 17.8139,-1330.51
 z
M -17.2512,-1332.01 L -17.7495,-1332.07 L -18.2361,-1332.2 L -18.7031,-1332.38 L -19.1433,-1332.62 L -19.5497,-1332.92
 L -19.9159,-1333.26 L -20.2361,-1333.65 L -20.5052,-1334.07 L -20.7191,-1334.53 L -20.8743,-1335.01 L -20.9684,-1335.5
 L -21,-1336 L -21,-1520 L -20.9684,-1520.5 L -20.8743,-1520.99 L -20.7191,-1521.47 L -20.5052,-1521.93
 L -20.2361,-1522.35 L -19.9159,-1522.74 L -19.5497,-1523.08 L -19.1433,-1523.38 L -18.7031,-1523.62 L -18.2361,-1523.8
 L -17.7495,-1523.93 L -17.2512,-1523.99 L 17.2512,-1523.99 L 17.7495,-1523.93 L 18.2361,-1523.8 L 18.7031,-1523.62
 L 19.1433,-1523.38 L 19.5497,-1523.08 L 19.9159,-1522.74 L 20.2361,-1522.35 L 20.5052,-1521.93 L 20.7191,-1521.47
 L 20.8743,-1520.99 L 20.9684,-1520.5 L 21,-1520 L 21,-1336 L 20.9684,-1335.5 L 20.8743,-1335.01
 L 20.7191,-1334.53 L 20.5052,-1334.07 L 20.2361,-1333.65 L 19.9159,-1333.26 L 19.5497,-1332.92 L 19.1433,-1332.62
 L 18.7031,-1332.38 L 18.2361,-1332.2 L 17.7495,-1332.07 L 17.2512,-1332.01 z
M 18.4369,-1126.59 L 19.0451,-1126.74 L 19.6289,-1126.98 L 20.1791,-1127.28 L 20.6871,-1127.65 L 21.1448,-1128.08
 L 21.5451,-1128.56 L 21.8815,-1129.09 L 22.1489,-1129.66 L 22.3429,-1130.26 L 22.4606,-1130.87 L 22.5,-1131.5
 L 22.5,-1316.5 L 22.4606,-1317.13 L 22.3429,-1317.74 L 22.1489,-1318.34 L 21.8815,-1318.91 L 21.5451,-1319.44
 L 21.1448,-1319.92 L 20.6871,-1320.35 L 20.1791,-1320.72 L 19.6289,-1321.02 L 19.0451,-1321.26 L 18.4369,-1321.41
 L 17.8139,-1321.49 L -17.8139,-1321.49 L -18.4369,-1321.41 L -19.0451,-1321.26 L -19.6289,-1321.02 L -20.1791,-1320.72
 L -20.6871,-1320.35 L -21.1448,-1319.92 L -21.5451,-1319.44 L -21.8815,-1318.91 L -22.1489,-1318.34 L -22.3429,-1317.74
 L -22.4606,-1317.13 L -22.5,-1316.5 L -22.5,-1131.5 L -22.4606,-1130.87 L -22.3429,-1130.26 L -22.1489,-1129.66
 L -21.8815,-1129.09 L -21.5451,-1128.56 L -21.1448,-1128.08 L -20.6871,-1127.65 L -20.1791,-1127.28 L -19.6289,-1126.98
 L -19.0451,-1126.74 L -18.4369,-1126.59 L -17.8139,-1126.51 L 17.8139,-1126.51 z
M -17.2512,-1128.01 L -17.7495,-1128.07 L -18.2361,-1128.2 L -18.7031,-1128.38 L -19.1433,-1128.62 L -19.5497,-1128.92
 L -19.9159,-1129.26 L -20.2361,-1129.65 L -20.5052,-1130.07 L -20.7191,-1130.53 L -20.8743,-1131.01 L -20.9684,-1131.5
 L -21,-1132 L -21,-1316 L -20.9684,-1316.5 L -20.8743,-1316.99 L -20.7191,-1317.47 L -20.5052,-1317.93
 L -20.2361,-1318.35 L -19.9159,-1318.74 L -19.5497,-1319.08 L -19.1433,-1319.38 L -18.7031,-1319.62 L -18.2361,-1319.8
 L -17.7495,-1319.93 L -17.2512,-1319.99 L 17.2512,-1319.99 L 17.7495,-1319.93 L 18.2361,-1319.8 L 18.7031,-1319.62
 L 19.1433,-1319.38 L 19.5497,-1319.08 L 19.9159,-1318.74 L 20.2361,-1318.35 L 20.5052,-1317.93 L 20.7191,-1317.47
 L 20.8743,-1316.99 L 20.9684,-1316.5 L 21,-1316 L 21,-1132 L 20.9684,-1131.5 L 20.8743,-1131.01
 L 20.7191,-1130.53 L 20.5052,-1130.07 L 20.2361,-1129.65 L 19.9159,-1129.26 L 19.5497,-1128.92 L 19.1433,-1128.62
 L 18.7031,-1128.38 L 18.2361,-1128.2 L 17.7495,-1128.07 L 17.2512,-1128.01 z
M 18.4369,-922.589 L 19.0451,-922.745 L 19.6289,-922.976 L 20.1791,-923.278 L 20.6871,-923.647 L 21.1448,-924.077
 L 21.5451,-924.561 L 21.8815,-925.091 L 22.1489,-925.659 L 22.3429,-926.257 L 22.4606,-926.873 L 22.5,-927.5
 L 22.5,-1112.5 L 22.4606,-1113.13 L 22.3429,-1113.74 L 22.1489,-1114.34 L 21.8815,-1114.91 L 21.5451,-1115.44
 L 21.1448,-1115.92 L 20.6871,-1116.35 L 20.1791,-1116.72 L 19.6289,-1117.02 L 19.0451,-1117.26 L 18.4369,-1117.41
 L 17.8139,-1117.49 L -17.8139,-1117.49 L -18.4369,-1117.41 L -19.0451,-1117.26 L -19.6289,-1117.02 L -20.1791,-1116.72
 L -20.6871,-1116.35 L -21.1448,-1115.92 L -21.5451,-1115.44 L -21.8815,-1114.91 L -22.1489,-1114.34 L -22.3429,-1113.74
 L -22.4606,-1113.13 L -22.5,-1112.5 L -22.5,-927.5 L -22.4606,-926.873 L -22.3429,-926.257 L -22.1489,-925.659
 L -21.8815,-925.091 L -21.5451,-924.561 L -21.1448,-924.077 L -20.6871,-923.647 L -20.1791,-923.278 L -19.6289,-922.976
 L -19.0451,-922.745 L -18.4369,-922.589 L -17.8139,-922.51 L 17.8139,-922.51 z
M -17.1954,-924.893 L -17.5833,-924.942 L -17.9619,-925.039 L -18.3254,-925.183 L -18.668,-925.372 L -18.9842,-925.601
 L -19.2692,-925.869 L -19.5184,-926.17 L -19.7279,-926.5 L -19.8943,-926.854 L -20.0151,-927.226 L -20.0884,-927.61
 L -20.1129,-928 L -20.1129,-1112 L -20.0884,-1112.39 L -20.0151,-1112.77 L -19.8943,-1113.15 L -19.7279,-1113.5
 L -19.5184,-1113.83 L -19.2692,-1114.13 L -18.9842,-1114.4 L -18.668,-1114.63 L -18.3254,-1114.82 L -17.9619,-1114.96
 L -17.5833,-1115.06 L -17.1954,-1115.11 L 17.1954,-1115.11 L 17.5833,-1115.06 L 17.9619,-1114.96 L 18.3254,-1114.82
 L 18.668,-1114.63 L 18.9842,-1114.4 L 19.2692,-1114.13 L 19.5184,-1113.83 L 19.7279,-1113.5 L 19.8943,-1113.15
 L 20.0151,-1112.77 L 20.0884,-1112.39 L 20.1129,-1112 L 20.1129,-928 L 20.0884,-927.61 L 20.0151,-927.226
 L 19.8943,-926.854 L 19.7279,-926.5 L 19.5184,-926.17 L 19.2692,-925.869 L 18.9842,-925.601 L 18.668,-925.372
 L 18.3254,-925.183 L 17.9619,-925.039 L 17.5833,-924.942 L 17.1954,-924.893 z
M 18.4369,-718.589 L 19.0451,-718.745 L 19.6289,-718.976 L 20.1791,-719.278 L 20.6871,-719.647 L 21.1448,-720.077
 L 21.5451,-720.561 L 21.8815,-721.091 L 22.1489,-721.659 L 22.3429,-722.257 L 22.4606,-722.873 L 22.5,-723.5
 L 22.5,-908.5 L 22.4606,-909.127 L 22.3429,-909.743 L 22.1489,-910.341 L 21.8815,-910.909 L 21.5451,-911.439
 L 21.1448,-911.923 L 20.6871,-912.353 L 20.1791,-912.722 L 19.6289,-913.024 L 19.0451,-913.255 L 18.4369,-913.411
 L 17.8139,-913.49 L -17.8139,-913.49 L -18.4369,-913.411 L -19.0451,-913.255 L -19.6289,-913.024 L -20.1791,-912.722
 L -20.6871,-912.353 L -21.1448,-911.923 L -21.5451,-911.439 L -21.8815,-910.909 L -22.1489,-910.341 L -22.3429,-909.743
 L -22.4606,-909.127 L -22.5,-908.5 L -22.5,-723.5 L -22.4606,-722.873 L -22.3429,-722.257 L -22.1489,-721.659
 L -21.8815,-721.091 L -21.5451,-720.561 L -21.1448,-720.077 L -20.6871,-719.647 L -20.1791,-719.278 L -19.6289,-718.976
 L -19.0451,-718.745 L -18.4369,-718.589 L -17.8139,-718.51 L 17.8139,-718.51 z
M 14.8659,-903.869 L 14.5999,-903.903 L 14.3401,-903.969 L 14.0908,-904.068 L 13.8559,-904.197 L 13.6389,-904.355
 L 13.4434,-904.538 L 13.2725,-904.745 L 13.1288,-904.971 L 13.0146,-905.214 L 12.9318,-905.469 L 12.8815,-905.732
 L 12.8647,-906 L 12.8815,-906.268 L 12.9318,-906.531 L 13.0146,-906.786 L 13.1288,-907.029 L 13.2725,-907.255
 L 13.4434,-907.462 L 13.6389,-907.645 L 13.8559,-907.803 L 14.0908,-907.932 L 14.3401,-908.031 L 14.5999,-908.097
 L 14.8659,-908.131 L 15.1341,-908.131 L 15.4001,-908.097 L 15.6598,-908.031 L 15.9091,-907.932 L 16.1441,-907.803
 L 16.3611,-907.645 L 16.5565,-907.462 L 16.7275,-907.255 L 16.8712,-907.029 L 16.9853,-906.786 L 17.0682,-906.531
 L 17.1185,-906.268 L 17.1353,-906 L 17.1185,-905.732 L 17.0682,-905.469 L 16.9853,-905.214 L 16.8712,-904.971
 L 16.7275,-904.745 L 16.5565,-904.538 L 16.3611,-904.355 L 16.1441,-904.197 L 15.9091,-904.068 L 15.6598,-903.969
 L 15.4001,-903.903 L 15.1341,-903.869 z
M -15.1341,-903.869 L -15.4001,-903.903 L -15.6598,-903.969 L -15.9091,-904.068 L -16.1441,-904.197 L -16.3611,-904.355
 L -16.5565,-904.538 L -16.7275,-904.745 L -16.8712,-904.971 L -16.9853,-905.214 L -17.0682,-905.469 L -17.1185,-905.732
 L -17.1353,-906 L -17.1185,-906.268 L -17.0682,-906.531 L -16.9853,-906.786 L -16.8712,-907.029 L -16.7275,-907.255
 L -16.5565,-907.462 L -16.3611,-907.645 L -16.1441,-907.803 L -15.9091,-907.932 L -15.6598,-908.031 L -15.4001,-908.097
 L -15.1341,-908.131 L -14.8659,-908.131 L -14.5999,-908.097 L -14.3401,-908.031 L -14.0908,-907.932 L -13.8559,-907.803
 L -13.6389,-907.645 L -13.4434,-907.462 L -13.2725,-907.255 L -13.1288,-907.029 L -13.0146,-906.786 L -12.9318,-906.531
 L -12.8815,-906.268 L -12.8647,-906 L -12.8815,-905.732 L -12.9318,-905.469 L -13.0146,-905.214 L -13.1288,-904.971
 L -13.2725,-904.745 L -13.4434,-904.538 L -13.6389,-904.355 L -13.8559,-904.197 L -14.0908,-904.068 L -14.3401,-903.969
 L -14.5999,-903.903 L -14.8659,-903.869 z
M 14.8659,-723.869 L 14.5999,-723.903 L 14.3401,-723.969 L 14.0908,-724.068 L 13.8559,-724.197 L 13.6389,-724.355
 L 13.4434,-724.538 L 13.2725,-724.745 L 13.1288,-724.971 L 13.0146,-725.214 L 12.9318,-725.469 L 12.8815,-725.732
 L 12.8647,-726 L 12.8815,-726.268 L 12.9318,-726.531 L 13.0146,-726.786 L 13.1288,-727.029 L 13.2725,-727.255
 L 13.4434,-727.462 L 13.6389,-727.645 L 13.8559,-727.803 L 14.0908,-727.932 L 14.3401,-728.031 L 14.5999,-728.097
 L 14.8659,-728.131 L 15.1341,-728.131 L 15.4001,-728.097 L 15.6598,-728.031 L 15.9091,-727.932 L 16.1441,-727.803
 L 16.3611,-727.645 L 16.5565,-727.462 L 16.7275,-727.255 L 16.8712,-727.029 L 16.9853,-726.786 L 17.0682,-726.531
 L 17.1185,-726.268 L 17.1353,-726 L 17.1185,-725.732 L 17.0682,-725.469 L 16.9853,-725.214 L 16.8712,-724.971
 L 16.7275,-724.745 L 16.5565,-724.538 L 16.3611,-724.355 L 16.1441,-724.197 L 15.9091,-724.068 L 15.6598,-723.969
 L 15.4001,-723.903 L 15.1341,-723.869 z
M -15.1341,-723.869 L -15.4001,-723.903 L -15.6598,-723.969 L -15.9091,-724.068 L -16.1441,-724.197 L -16.3611,-724.355
 L -16.5565,-724.538 L -16.7275,-724.745 L -16.8712,-724.971 L -16.9853,-725.214 L -17.0682,-725.469 L -17.1185,-725.732
 L -17.1353,-726 L -17.1185,-726.268 L -17.0682,-726.531 L -16.9853,-726.786 L -16.8712,-727.029 L -16.7275,-727.255
 L -16.5565,-727.462 L -16.3611,-727.645 L -16.1441,-727.803 L -15.9091,-727.932 L -15.6598,-728.031 L -15.4001,-728.097
 L -15.1341,-728.131 L -14.8659,-728.131 L -14.5999,-728.097 L -14.3401,-728.031 L -14.0908,-727.932 L -13.8559,-727.803
 L -13.6389,-727.645 L -13.4434,-727.462 L -13.2725,-727.255 L -13.1288,-727.029 L -13.0146,-726.786 L -12.9318,-726.531
 L -12.8815,-726.268 L -12.8647,-726 L -12.8815,-725.732 L -12.9318,-725.469 L -13.0146,-725.214 L -13.1288,-724.971
 L -13.2725,-724.745 L -13.4434,-724.538 L -13.6389,-724.355 L -13.8559,-724.197 L -14.0908,-724.068 L -14.3401,-723.969
 L -14.5999,-723.903 L -14.8659,-723.869 z
" stroke="black" fill="lightgray" stroke-width="0.5"/>
</svg>
