<?xml version="1.0" standalone="no"?>
<!DOCTYPE svg PUBLIC "-//W3C//DTD SVG 1.1//EN" "http://www.w3.org/Graphics/SVG/1.1/DTD/svg11.dtd">
<svg width="60mm" height="353mm" viewBox="-30 -375 60 353" xmlns="http://www.w3.org/2000/svg" version="1.1">
<title>OpenSCAD Model</title>
<path d="
M 25.4369,-315.589 L 26.0451,-315.745 L 26.6289,-315.976 L 27.1791,-316.278 L 27.6871,-316.647 L 28.1448,-317.077
 L 28.5451,-317.561 L 28.8815,-318.091 L 29.1489,-318.659 L 29.3429,-319.257 L 29.4606,-319.873 L 29.5,-320.5
 L 29.5,-369.5 L 12.561,-369.5 L 12.561,-369.498 L 11.7482,-369.498 L 11.6236,-369.482 L 11.502,-369.451
 L 11.3852,-369.405 L 11.2752,-369.344 L 11.1736,-369.271 L 11.082,-369.185 L 11.002,-369.088 L 10.9347,-368.982
 L 10.8812,-368.868 L 10.8424,-368.749 L 10.8189,-368.625 L 10.811,-368.5 L 10.8189,-368.375 L 10.8424,-368.251
 L 10.8812,-368.132 L 10.9347,-368.018 L 11.002,-367.912 L 11.082,-367.815 L 11.1736,-367.729 L 11.2752,-367.656
 L 11.3852,-367.595 L 11.502,-367.549 L 11.6236,-367.518 L 11.7482,-367.502 L 13.9679,-367.502 L 14.1994,-367.375
 L 16.8917,-365.419 L 19.3177,-363.14 L 21.4389,-360.576 L 23.2221,-357.766 L 24.6391,-354.755 L 25.6674,-351.59
 L 26.291,-348.321 L 26.5,-345 L 26.291,-341.679 L 25.6674,-338.41 L 24.6391,-335.245 L 23.2221,-332.234
 L 21.4389,-329.424 L 19.3177,-326.86 L 16.8917,-324.581 L 14.1994,-322.625 L 11.2831,-321.022 L 8.18895,-319.797
 L 4.96559,-318.969 L 1.66394,-318.552 L -1.66394,-318.552 L -4.96559,-318.969 L -8.18895,-319.797 L -11.2831,-321.022
 L -14.1994,-322.625 L -16.8917,-324.581 L -19.3177,-326.86 L -21.4389,-329.424 L -23.2221,-332.234 L -24.6391,-335.245
 L -25.6674,-338.41 L -26.291,-341.679 L -26.5,-345 L -26.291,-348.321 L -25.6674,-351.59 L -24.6391,-354.755
 L -23.2221,-357.766 L -21.4389,-360.576 L -19.3177,-363.14 L -16.8917,-365.419 L -14.1994,-367.375 L -11.2831,-368.978
 L -8.18895,-370.203 L -4.96559,-371.031 L -1.66394,-371.448 L 0,-371.448 L 0,-371.5 L 9.49998,-371.5
 L 6.50986,-374.49 L 3.5,-374.49 L 3.5,-373.5 L -28.5,-373.5 L -28.5,-374.5 L -29.5,-374.5
 L -29.5,-320.5 L -29.4606,-319.873 L -29.3429,-319.257 L -29.1489,-318.659 L -28.8815,-318.091 L -28.5451,-317.561
 L -28.1448,-317.077 L -27.6871,-316.647 L -27.1791,-316.278 L -26.6289,-315.976 L -26.0451,-315.745 L -25.4369,-315.589
 L -24.8139,-315.51 L 24.8139,-315.51 z
M 22.3116,-319.506 L 21.9379,-319.553 L 21.5729,-319.647 L 21.2227,-319.786 L 20.8925,-319.967 L 20.5877,-320.188
 L 20.3131,-320.446 L 20.0729,-320.737 L 19.8711,-321.055 L 19.7107,-321.396 L 19.5942,-321.754 L 19.5237,-322.124
 L 19.5,-322.5 L 19.5237,-322.876 L 19.5942,-323.246 L 19.7107,-323.604 L 19.8711,-323.945 L 20.0729,-324.263
 L 20.3131,-324.554 L 20.5877,-324.812 L 20.8925,-325.033 L 21.2227,-325.214 L 21.5729,-325.353 L 21.9379,-325.447
 L 22.3116,-325.494 L 22.6884,-325.494 L 23.0621,-325.447 L 23.427,-325.353 L 23.7773,-325.214 L 24.1075,-325.033
 L 24.4123,-324.812 L 24.6869,-324.554 L 24.927,-324.263 L 25.1289,-323.945 L 25.2893,-323.604 L 25.4057,-323.246
 L 25.4763,-322.876 L 25.5,-322.5 L 25.4763,-322.124 L 25.4057,-321.754 L 25.2893,-321.396 L 25.1289,-321.055
 L 24.927,-320.737 L 24.6869,-320.446 L 24.4123,-320.188 L 24.1075,-319.967 L 23.7773,-319.786 L 23.427,-319.647
 L 23.0621,-319.553 L 22.6884,-319.506 z
M 19.5,-374.49 L 8.63118,-374.49 L 11.6213,-371.5 L 19.5,-371.5 z
M 25.4369,-246.589 L 26.0451,-246.745 L 26.6289,-246.976 L 27.1791,-247.278 L 27.6871,-247.647 L 28.1448,-248.077
 L 28.5451,-248.561 L 28.8815,-249.091 L 29.1489,-249.659 L 29.3429,-250.257 L 29.4606,-250.873 L 29.5,-251.5
 L 29.5,-300.5 L 12.561,-300.5 L 12.561,-300.498 L 11.7482,-300.498 L 11.6236,-300.482 L 11.502,-300.451
 L 11.3852,-300.405 L 11.2752,-300.344 L 11.1736,-300.271 L 11.082,-300.185 L 11.002,-300.088 L 10.9347,-299.982
 L 10.8812,-299.868 L 10.8424,-299.749 L 10.8189,-299.625 L 10.811,-299.5 L 10.8189,-299.375 L 10.8424,-299.251
 L 10.8812,-299.132 L 10.9347,-299.018 L 11.002,-298.912 L 11.082,-298.815 L 11.1736,-298.729 L 11.2752,-298.656
 L 11.3852,-298.595 L 11.502,-298.549 L 11.6236,-298.518 L 11.7482,-298.502 L 13.9679,-298.502 L 14.1994,-298.375
 L 16.8917,-296.419 L 19.3177,-294.14 L 21.4389,-291.576 L 23.2221,-288.766 L 24.6391,-285.755 L 25.6674,-282.59
 L 26.291,-279.321 L 26.5,-276 L 26.291,-272.679 L 25.6674,-269.41 L 24.6391,-266.245 L 23.2221,-263.234
 L 21.4389,-260.424 L 19.3177,-257.86 L 16.8917,-255.581 L 14.1994,-253.625 L 11.2831,-252.022 L 8.18895,-250.797
 L 4.96559,-249.969 L 1.66394,-249.552 L -1.66394,-249.552 L -4.96559,-249.969 L -8.18895,-250.797 L -11.2831,-252.022
 L -14.1994,-253.625 L -16.8917,-255.581 L -19.3177,-257.86 L -21.4389,-260.424 L -23.2221,-263.234 L -24.6391,-266.245
 L -25.6674,-269.41 L -26.291,-272.679 L -26.5,-276 L -26.291,-279.321 L -25.6674,-282.59 L -24.6391,-285.755
 L -23.2221,-288.766 L -21.4389,-291.576 L -19.3177,-294.14 L -16.8917,-296.419 L -14.1994,-298.375 L -11.2831,-299.978
 L -8.18895,-301.203 L -4.96559,-302.031 L -1.66394,-302.448 L 0,-302.448 L 0,-302.5 L 9.49998,-302.5
 L 6.50986,-305.49 L 3.5,-305.49 L 3.5,-304.5 L -28.5,-304.5 L -28.5,-305.5 L -29.5,-305.5
 L -29.5,-251.5 L -29.4606,-250.873 L -29.3429,-250.257 L -29.1489,-249.659 L -28.8815,-249.091 L -28.5451,-248.561
 L -28.1448,-248.077 L -27.6871,-247.647 L -27.1791,-247.278 L -26.6289,-246.976 L -26.0451,-246.745 L -25.4369,-246.589
 L -24.8139,-246.51 L 24.8139,-246.51 z
M 22.3116,-250.506 L 21.9379,-250.553 L 21.5729,-250.647 L 21.2227,-250.786 L 20.8925,-250.967 L 20.5877,-251.188
 L 20.3131,-251.446 L 20.0729,-251.737 L 19.8711,-252.055 L 19.7107,-252.396 L 19.5942,-252.754 L 19.5237,-253.124
 L 19.5,-253.5 L 19.5237,-253.876 L 19.5942,-254.246 L 19.7107,-254.604 L 19.8711,-254.945 L 20.0729,-255.263
 L 20.3131,-255.554 L 20.5877,-255.812 L 20.8925,-256.033 L 21.2227,-256.214 L 21.5729,-256.353 L 21.9379,-256.447
 L 22.3116,-256.494 L 22.6884,-256.494 L 23.0621,-256.447 L 23.427,-256.353 L 23.7773,-256.214 L 24.1075,-256.033
 L 24.4123,-255.812 L 24.6869,-255.554 L 24.927,-255.263 L 25.1289,-254.945 L 25.2893,-254.604 L 25.4057,-254.246
 L 25.4763,-253.876 L 25.5,-253.5 L 25.4763,-253.124 L 25.4057,-252.754 L 25.2893,-252.396 L 25.1289,-252.055
 L 24.927,-251.737 L 24.6869,-251.446 L 24.4123,-251.188 L 24.1075,-250.967 L 23.7773,-250.786 L 23.427,-250.647
 L 23.0621,-250.553 L 22.6884,-250.506 z
M 19.5,-305.49 L 8.63118,-305.49 L 11.6213,-302.5 L 19.5,-302.5 z
M 25.4369,-177.589 L 26.0451,-177.745 L 26.6289,-177.976 L 27.1791,-178.278 L 27.6871,-178.647 L 28.1448,-179.077
 L 28.5451,-179.561 L 28.8815,-180.091 L 29.1489,-180.659 L 29.3429,-181.257 L 29.4606,-181.873 L 29.5,-182.5
 L 29.5,-231.5 L 12.561,-231.5 L 12.561,-231.498 L 11.7482,-231.498 L 11.6236,-231.482 L 11.502,-231.451
 L 11.3852,-231.405 L 11.2752,-231.344 L 11.1736,-231.271 L 11.082,-231.185 L 11.002,-231.088 L 10.9347,-230.982
 L 10.8812,-230.868 L 10.8424,-230.749 L 10.8189,-230.625 L 10.811,-230.5 L 10.8189,-230.375 L 10.8424,-230.251
 L 10.8812,-230.132 L 10.9347,-230.018 L 11.002,-229.912 L 11.082,-229.815 L 11.1736,-229.729 L 11.2752,-229.656
 L 11.3852,-229.595 L 11.502,-229.549 L 11.6236,-229.518 L 11.7482,-229.502 L 13.9679,-229.502 L 14.1994,-229.375
 L 16.8917,-227.419 L 19.3177,-225.14 L 21.4389,-222.576 L 23.2221,-219.766 L 24.6391,-216.755 L 25.6674,-213.59
 L 26.291,-210.321 L 26.5,-207 L 26.291,-203.679 L 25.6674,-200.41 L 24.6391,-197.245 L 23.2221,-194.234
 L 21.4389,-191.424 L 19.3177,-188.86 L 16.8917,-186.581 L 14.1994,-184.625 L 11.2831,-183.022 L 8.18895,-181.797
 L 4.96559,-180.969 L 1.66394,-180.552 L -1.66394,-180.552 L -4.96559,-180.969 L -8.18895,-181.797 L -11.2831,-183.022
 L -14.1994,-184.625 L -16.8917,-186.581 L -19.3177,-188.86 L -21.4389,-191.424 L -23.2221,-194.234 L -24.6391,-197.245
 L -25.6674,-200.41 L -26.291,-203.679 L -26.5,-207 L -26.291,-210.321 L -25.6674,-213.59 L -24.6391,-216.755
 L -23.2221,-219.766 L -21.4389,-222.576 L -19.3177,-225.14 L -16.8917,-227.419 L -14.1994,-229.375 L -11.2831,-230.978
 L -8.18895,-232.203 L -4.96559,-233.031 L -1.66394,-233.448 L 0,-233.448 L 0,-233.5 L 9.49998,-233.5
 L 6.50986,-236.49 L 3.5,-236.49 L 3.5,-235.5 L -28.5,-235.5 L -28.5,-236.5 L -29.5,-236.5
 L -29.5,-182.5 L -29.4606,-181.873 L -29.3429,-181.257 L -29.1489,-180.659 L -28.8815,-180.091 L -28.5451,-179.561
 L -28.1448,-179.077 L -27.6871,-178.647 L -27.1791,-178.278 L -26.6289,-177.976 L -26.0451,-177.745 L -25.4369,-177.589
 L -24.8139,-177.51 L 24.8139,-177.51 z
M 22.3116,-181.506 L 21.9379,-181.553 L 21.5729,-181.647 L 21.2227,-181.786 L 20.8925,-181.967 L 20.5877,-182.188
 L 20.3131,-182.446 L 20.0729,-182.737 L 19.8711,-183.055 L 19.7107,-183.396 L 19.5942,-183.754 L 19.5237,-184.124
 L 19.5,-184.5 L 19.5237,-184.876 L 19.5942,-185.246 L 19.7107,-185.604 L 19.8711,-185.945 L 20.0729,-186.263
 L 20.3131,-186.554 L 20.5877,-186.812 L 20.8925,-187.033 L 21.2227,-187.214 L 21.5729,-187.353 L 21.9379,-187.447
 L 22.3116,-187.494 L 22.6884,-187.494 L 23.0621,-187.447 L 23.427,-187.353 L 23.7773,-187.214 L 24.1075,-187.033
 L 24.4123,-186.812 L 24.6869,-186.554 L 24.927,-186.263 L 25.1289,-185.945 L 25.2893,-185.604 L 25.4057,-185.246
 L 25.4763,-184.876 L 25.5,-184.5 L 25.4763,-184.124 L 25.4057,-183.754 L 25.2893,-183.396 L 25.1289,-183.055
 L 24.927,-182.737 L 24.6869,-182.446 L 24.4123,-182.188 L 24.1075,-181.967 L 23.7773,-181.786 L 23.427,-181.647
 L 23.0621,-181.553 L 22.6884,-181.506 z
M 19.5,-236.49 L 8.63118,-236.49 L 11.6213,-233.5 L 19.5,-233.5 z
M 16.9984,-160.518 L 17.12,-160.549 L 17.2368,-160.595 L 17.3468,-160.656 L 17.4484,-160.729 L 17.54,-160.815
 L 17.62,-160.912 L 17.6873,-161.018 L 17.7408,-161.132 L 17.7796,-161.251 L 17.8031,-161.375 L 17.811,-161.5
 L 17.8031,-161.625 L 17.7796,-161.749 L 17.7408,-161.868 L 17.6873,-161.982 L 17.62,-162.088 L 17.54,-162.185
 L 17.4484,-162.271 L 17.3468,-162.344 L 17.2368,-162.405 L 17.12,-162.451 L 16.9984,-162.482 L 16.8738,-162.498
 L 11.7482,-162.498 L 11.6236,-162.482 L 11.502,-162.451 L 11.3852,-162.405 L 11.2752,-162.344 L 11.1736,-162.271
 L 11.082,-162.185 L 11.002,-162.088 L 10.9347,-161.982 L 10.8812,-161.868 L 10.8424,-161.749 L 10.8189,-161.625
 L 10.811,-161.5 L 10.8189,-161.375 L 10.8424,-161.251 L 10.8812,-161.132 L 10.9347,-161.018 L 11.002,-160.912
 L 11.082,-160.815 L 11.1736,-160.729 L 11.2752,-160.656 L 11.3852,-160.595 L 11.502,-160.549 L 11.6236,-160.518
 L 11.7482,-160.502 L 16.8738,-160.502 z
M 16.9984,-91.5177 L 17.12,-91.5489 L 17.2368,-91.5952 L 17.3468,-91.6557 L 17.4484,-91.7295 L 17.54,-91.8154
 L 17.62,-91.9122 L 17.6873,-92.0182 L 17.7408,-92.1319 L 17.7796,-92.2513 L 17.8031,-92.3747 L 17.811,-92.5
 L 17.8031,-92.6253 L 17.7796,-92.7487 L 17.7408,-92.8681 L 17.6873,-92.9818 L 17.62,-93.0878 L 17.54,-93.1845
 L 17.4484,-93.2705 L 17.3468,-93.3443 L 17.2368,-93.4048 L 17.12,-93.451 L 16.9984,-93.4823 L 16.8738,-93.498
 L 11.7482,-93.498 L 11.6236,-93.4823 L 11.502,-93.451 L 11.3852,-93.4048 L 11.2752,-93.3443 L 11.1736,-93.2705
 L 11.082,-93.1845 L 11.002,-93.0878 L 10.9347,-92.9818 L 10.8812,-92.8681 L 10.8424,-92.7487 L 10.8189,-92.6253
 L 10.811,-92.5 L 10.8189,-92.3747 L 10.8424,-92.2513 L 10.8812,-92.1319 L 10.9347,-92.0182 L 11.002,-91.9122
 L 11.082,-91.8154 L 11.1736,-91.7295 L 11.2752,-91.6557 L 11.3852,-91.5952 L 11.502,-91.5489 L 11.6236,-91.5177
 L 11.7482,-91.502 L 16.8738,-91.502 z
M 16.9984,-22.5177 L 17.12,-22.5489 L 17.2368,-22.5952 L 17.3468,-22.6557 L 17.4484,-22.7295 L 17.54,-22.8154
 L 17.62,-22.9122 L 17.6873,-23.0182 L 17.7408,-23.1319 L 17.7796,-23.2513 L 17.8031,-23.3747 L 17.811,-23.5
 L 17.8031,-23.6253 L 17.7796,-23.7487 L 17.7408,-23.8681 L 17.6873,-23.9818 L 17.62,-24.0878 L 17.54,-24.1845
 L 17.4484,-24.2705 L 17.3468,-24.3443 L 17.2368,-24.4048 L 17.12,-24.451 L 16.9984,-24.4823 L 16.8738,-24.498
 L 11.7482,-24.498 L 11.6236,-24.4823 L 11.502,-24.451 L 11.3852,-24.4048 L 11.2752,-24.3443 L 11.1736,-24.2705
 L 11.082,-24.1845 L 11.002,-24.0878 L 10.9347,-23.9818 L 10.8812,-23.8681 L 10.8424,-23.7487 L 10.8189,-23.6253
 L 10.811,-23.5 L 10.8189,-23.3747 L 10.8424,-23.2513 L 10.8812,-23.1319 L 10.9347,-23.0182 L 11.002,-22.9122
 L 11.082,-22.8154 L 11.1736,-22.7295 L 11.2752,-22.6557 L 11.3852,-22.5952 L 11.502,-22.5489 L 11.6236,-22.5177
 L 11.7482,-22.502 L 16.8738,-22.502 z
" stroke="black" fill="lightgray" stroke-width="0.5"/>
</svg>
