<?xml version="1.0" standalone="no"?>
<!DOCTYPE svg PUBLIC "-//W3C//DTD SVG 1.1//EN" "http://www.w3.org/Graphics/SVG/1.1/DTD/svg11.dtd">
<svg width="60mm" height="381mm" viewBox="-30 -756 60 381" xmlns="http://www.w3.org/2000/svg" version="1.1">
<title>OpenSCAD Model</title>
<path d="
M 25.9369,-726.089 L 26.5451,-726.245 L 27.1289,-726.476 L 27.6791,-726.778 L 28.1871,-727.147 L 28.6448,-727.577
 L 29.0451,-728.061 L 29.3815,-728.591 L 29.6489,-729.159 L 29.8429,-729.757 L 29.9606,-730.373 L 30,-731
 L 30,-751 L 29.9606,-751.627 L 29.8429,-752.243 L 29.6489,-752.841 L 29.3815,-753.409 L 29.0451,-753.939
 L 28.6448,-754.423 L 28.1871,-754.853 L 27.6791,-755.222 L 27.1289,-755.524 L 26.5451,-755.755 L 25.9369,-755.911
 L 25.3139,-755.99 L -25.3139,-755.99 L -25.9369,-755.911 L -26.5451,-755.755 L -27.1289,-755.524 L -27.6791,-755.222
 L -28.1871,-754.853 L -28.6448,-754.423 L -29.0451,-753.939 L -29.3815,-753.409 L -29.6489,-752.841 L -29.8429,-752.243
 L -29.9606,-751.627 L -30,-751 L -30,-731 L -29.9606,-730.373 L -29.8429,-729.757 L -29.6489,-729.159
 L -29.3815,-728.591 L -29.0451,-728.061 L -28.6448,-727.577 L -28.1871,-727.147 L -27.6791,-726.778 L -27.1289,-726.476
 L -26.5451,-726.245 L -25.9369,-726.089 L -25.3139,-726.01 L 25.3139,-726.01 z
M -24.7512,-727.508 L -25.2495,-727.571 L -25.7361,-727.696 L -26.2031,-727.881 L -26.6433,-728.123 L -27.0497,-728.418
 L -27.4159,-728.762 L -27.7361,-729.149 L -28.0052,-729.573 L -28.2191,-730.028 L -28.3743,-730.505 L -28.4684,-730.999
 L -28.5,-731.5 L -28.5,-750.5 L -28.4684,-751.001 L -28.3743,-751.495 L -28.2191,-751.972 L -28.0052,-752.427
 L -27.7361,-752.851 L -27.4159,-753.238 L -27.0497,-753.582 L -26.6433,-753.877 L -26.2031,-754.119 L -25.7361,-754.304
 L -25.2495,-754.429 L -24.7512,-754.492 L 24.7512,-754.492 L 25.2495,-754.429 L 25.7361,-754.304 L 26.2031,-754.119
 L 26.6433,-753.877 L 27.0497,-753.582 L 27.4159,-753.238 L 27.7361,-752.851 L 28.0052,-752.427 L 28.2191,-751.972
 L 28.3743,-751.495 L 28.4684,-751.001 L 28.5,-750.5 L 28.5,-731.5 L 28.4684,-730.999 L 28.3743,-730.505
 L 28.2191,-730.028 L 28.0052,-729.573 L 27.7361,-729.149 L 27.4159,-728.762 L 27.0497,-728.418 L 26.6433,-728.123
 L 26.2031,-727.881 L 25.7361,-727.696 L 25.2495,-727.571 L 24.7512,-727.508 z
M 25.9369,-687.089 L 26.5451,-687.245 L 27.1289,-687.476 L 27.6791,-687.778 L 28.1871,-688.147 L 28.6448,-688.577
 L 29.0451,-689.061 L 29.3815,-689.591 L 29.6489,-690.159 L 29.8429,-690.757 L 29.9606,-691.373 L 30,-692
 L 30,-712 L 29.9606,-712.627 L 29.8429,-713.243 L 29.6489,-713.841 L 29.3815,-714.409 L 29.0451,-714.939
 L 28.6448,-715.423 L 28.1871,-715.853 L 27.6791,-716.222 L 27.1289,-716.524 L 26.5451,-716.755 L 25.9369,-716.911
 L 25.3139,-716.99 L -25.3139,-716.99 L -25.9369,-716.911 L -26.5451,-716.755 L -27.1289,-716.524 L -27.6791,-716.222
 L -28.1871,-715.853 L -28.6448,-715.423 L -29.0451,-714.939 L -29.3815,-714.409 L -29.6489,-713.841 L -29.8429,-713.243
 L -29.9606,-712.627 L -30,-712 L -30,-692 L -29.9606,-691.373 L -29.8429,-690.757 L -29.6489,-690.159
 L -29.3815,-689.591 L -29.0451,-689.061 L -28.6448,-688.577 L -28.1871,-688.147 L -27.6791,-687.778 L -27.1289,-687.476
 L -26.5451,-687.245 L -25.9369,-687.089 L -25.3139,-687.01 L 25.3139,-687.01 z
M -24.7512,-688.508 L -25.2495,-688.571 L -25.7361,-688.696 L -26.2031,-688.881 L -26.6433,-689.123 L -27.0497,-689.418
 L -27.4159,-689.762 L -27.7361,-690.149 L -28.0052,-690.573 L -28.2191,-691.028 L -28.3743,-691.505 L -28.4684,-691.999
 L -28.5,-692.5 L -28.5,-711.5 L -28.4684,-712.001 L -28.3743,-712.495 L -28.2191,-712.972 L -28.0052,-713.427
 L -27.7361,-713.851 L -27.4159,-714.238 L -27.0497,-714.582 L -26.6433,-714.877 L -26.2031,-715.119 L -25.7361,-715.304
 L -25.2495,-715.429 L -24.7512,-715.492 L 24.7512,-715.492 L 25.2495,-715.429 L 25.7361,-715.304 L 26.2031,-715.119
 L 26.6433,-714.877 L 27.0497,-714.582 L 27.4159,-714.238 L 27.7361,-713.851 L 28.0052,-713.427 L 28.2191,-712.972
 L 28.3743,-712.495 L 28.4684,-712.001 L 28.5,-711.5 L 28.5,-692.5 L 28.4684,-691.999 L 28.3743,-691.505
 L 28.2191,-691.028 L 28.0052,-690.573 L 27.7361,-690.149 L 27.4159,-689.762 L 27.0497,-689.418 L 26.6433,-689.123
 L 26.2031,-688.881 L 25.7361,-688.696 L 25.2495,-688.571 L 24.7512,-688.508 z
M 25.9369,-648.089 L 26.5451,-648.245 L 27.1289,-648.476 L 27.6791,-648.778 L 28.1871,-649.147 L 28.6448,-649.577
 L 29.0451,-650.061 L 29.3815,-650.591 L 29.6489,-651.159 L 29.8429,-651.757 L 29.9606,-652.373 L 30,-653
 L 30,-673 L 29.9606,-673.627 L 29.8429,-674.243 L 29.6489,-674.841 L 29.3815,-675.409 L 29.0451,-675.939
 L 28.6448,-676.423 L 28.1871,-676.853 L 27.6791,-677.222 L 27.1289,-677.524 L 26.5451,-677.755 L 25.9369,-677.911
 L 25.3139,-677.99 L -25.3139,-677.99 L -25.9369,-677.911 L -26.5451,-677.755 L -27.1289,-677.524 L -27.6791,-677.222
 L -28.1871,-676.853 L -28.6448,-676.423 L -29.0451,-675.939 L -29.3815,-675.409 L -29.6489,-674.841 L -29.8429,-674.243
 L -29.9606,-673.627 L -30,-673 L -30,-653 L -29.9606,-652.373 L -29.8429,-651.757 L -29.6489,-651.159
 L -29.3815,-650.591 L -29.0451,-650.061 L -28.6448,-649.577 L -28.1871,-649.147 L -27.6791,-648.778 L -27.1289,-648.476
 L -26.5451,-648.245 L -25.9369,-648.089 L -25.3139,-648.01 L 25.3139,-648.01 z
M -24.7512,-649.508 L -25.2495,-649.571 L -25.7361,-649.696 L -26.2031,-649.881 L -26.6433,-650.123 L -27.0497,-650.418
 L -27.4159,-650.762 L -27.7361,-651.149 L -28.0052,-651.573 L -28.2191,-652.028 L -28.3743,-652.505 L -28.4684,-652.999
 L -28.5,-653.5 L -28.5,-672.5 L -28.4684,-673.001 L -28.3743,-673.495 L -28.2191,-673.972 L -28.0052,-674.427
 L -27.7361,-674.851 L -27.4159,-675.238 L -27.0497,-675.582 L -26.6433,-675.877 L -26.2031,-676.119 L -25.7361,-676.304
 L -25.2495,-676.429 L -24.7512,-676.492 L 24.7512,-676.492 L 25.2495,-676.429 L 25.7361,-676.304 L 26.2031,-676.119
 L 26.6433,-675.877 L 27.0497,-675.582 L 27.4159,-675.238 L 27.7361,-674.851 L 28.0052,-674.427 L 28.2191,-673.972
 L 28.3743,-673.495 L 28.4684,-673.001 L 28.5,-672.5 L 28.5,-653.5 L 28.4684,-652.999 L 28.3743,-652.505
 L 28.2191,-652.028 L 28.0052,-651.573 L 27.7361,-651.149 L 27.4159,-650.762 L 27.0497,-650.418 L 26.6433,-650.123
 L 26.2031,-649.881 L 25.7361,-649.696 L 25.2495,-649.571 L 24.7512,-649.508 z
M 25.9369,-609.089 L 26.5451,-609.245 L 27.1289,-609.476 L 27.6791,-609.778 L 28.1871,-610.147 L 28.6448,-610.577
 L 29.0451,-611.061 L 29.3815,-611.591 L 29.6489,-612.159 L 29.8429,-612.757 L 29.9606,-613.373 L 30,-614
 L 30,-634 L 29.9606,-634.627 L 29.8429,-635.243 L 29.6489,-635.841 L 29.3815,-636.409 L 29.0451,-636.939
 L 28.6448,-637.423 L 28.1871,-637.853 L 27.6791,-638.222 L 27.1289,-638.524 L 26.5451,-638.755 L 25.9369,-638.911
 L 25.3139,-638.99 L -25.3139,-638.99 L -25.9369,-638.911 L -26.5451,-638.755 L -27.1289,-638.524 L -27.6791,-638.222
 L -28.1871,-637.853 L -28.6448,-637.423 L -29.0451,-636.939 L -29.3815,-636.409 L -29.6489,-635.841 L -29.8429,-635.243
 L -29.9606,-634.627 L -30,-634 L -30,-614 L -29.9606,-613.373 L -29.8429,-612.757 L -29.6489,-612.159
 L -29.3815,-611.591 L -29.0451,-611.061 L -28.6448,-610.577 L -28.1871,-610.147 L -27.6791,-609.778 L -27.1289,-609.476
 L -26.5451,-609.245 L -25.9369,-609.089 L -25.3139,-609.01 L 25.3139,-609.01 z
M -24.7512,-610.508 L -25.2495,-610.571 L -25.7361,-610.696 L -26.2031,-610.881 L -26.6433,-611.123 L -27.0497,-611.418
 L -27.4159,-611.762 L -27.7361,-612.149 L -28.0052,-612.573 L -28.2191,-613.028 L -28.3743,-613.505 L -28.4684,-613.999
 L -28.5,-614.5 L -28.5,-633.5 L -28.4684,-634.001 L -28.3743,-634.495 L -28.2191,-634.972 L -28.0052,-635.427
 L -27.7361,-635.851 L -27.4159,-636.238 L -27.0497,-636.582 L -26.6433,-636.877 L -26.2031,-637.119 L -25.7361,-637.304
 L -25.2495,-637.429 L -24.7512,-637.492 L 24.7512,-637.492 L 25.2495,-637.429 L 25.7361,-637.304 L 26.2031,-637.119
 L 26.6433,-636.877 L 27.0497,-636.582 L 27.4159,-636.238 L 27.7361,-635.851 L 28.0052,-635.427 L 28.2191,-634.972
 L 28.3743,-634.495 L 28.4684,-634.001 L 28.5,-633.5 L 28.5,-614.5 L 28.4684,-613.999 L 28.3743,-613.505
 L 28.2191,-613.028 L 28.0052,-612.573 L 27.7361,-612.149 L 27.4159,-611.762 L 27.0497,-611.418 L 26.6433,-611.123
 L 26.2031,-610.881 L 25.7361,-610.696 L 25.2495,-610.571 L 24.7512,-610.508 z
M 25.9369,-570.089 L 26.5451,-570.245 L 27.1289,-570.476 L 27.6791,-570.778 L 28.1871,-571.147 L 28.6448,-571.577
 L 29.0451,-572.061 L 29.3815,-572.591 L 29.6489,-573.159 L 29.8429,-573.757 L 29.9606,-574.373 L 30,-575
 L 30,-595 L 29.9606,-595.627 L 29.8429,-596.243 L 29.6489,-596.841 L 29.3815,-597.409 L 29.0451,-597.939
 L 28.6448,-598.423 L 28.1871,-598.853 L 27.6791,-599.222 L 27.1289,-599.524 L 26.5451,-599.755 L 25.9369,-599.911
 L 25.3139,-599.99 L -25.3139,-599.99 L -25.9369,-599.911 L -26.5451,-599.755 L -27.1289,-599.524 L -27.6791,-599.222
 L -28.1871,-598.853 L -28.6448,-598.423 L -29.0451,-597.939 L -29.3815,-597.409 L -29.6489,-596.841 L -29.8429,-596.243
 L -29.9606,-595.627 L -30,-595 L -30,-575 L -29.9606,-574.373 L -29.8429,-573.757 L -29.6489,-573.159
 L -29.3815,-572.591 L -29.0451,-572.061 L -28.6448,-571.577 L -28.1871,-571.147 L -27.6791,-570.778 L -27.1289,-570.476
 L -26.5451,-570.245 L -25.9369,-570.089 L -25.3139,-570.01 L 25.3139,-570.01 z
M -24.7512,-571.508 L -25.2495,-571.571 L -25.7361,-571.696 L -26.2031,-571.881 L -26.6433,-572.123 L -27.0497,-572.418
 L -27.4159,-572.762 L -27.7361,-573.149 L -28.0052,-573.573 L -28.2191,-574.028 L -28.3743,-574.505 L -28.4684,-574.999
 L -28.5,-575.5 L -28.5,-594.5 L -28.4684,-595.001 L -28.3743,-595.495 L -28.2191,-595.972 L -28.0052,-596.427
 L -27.7361,-596.851 L -27.4159,-597.238 L -27.0497,-597.582 L -26.6433,-597.877 L -26.2031,-598.119 L -25.7361,-598.304
 L -25.2495,-598.429 L -24.7512,-598.492 L 24.7512,-598.492 L 25.2495,-598.429 L 25.7361,-598.304 L 26.2031,-598.119
 L 26.6433,-597.877 L 27.0497,-597.582 L 27.4159,-597.238 L 27.7361,-596.851 L 28.0052,-596.427 L 28.2191,-595.972
 L 28.3743,-595.495 L 28.4684,-595.001 L 28.5,-594.5 L 28.5,-575.5 L 28.4684,-574.999 L 28.3743,-574.505
 L 28.2191,-574.028 L 28.0052,-573.573 L 27.7361,-573.149 L 27.4159,-572.762 L 27.0497,-572.418 L 26.6433,-572.123
 L 26.2031,-571.881 L 25.7361,-571.696 L 25.2495,-571.571 L 24.7512,-571.508 z
M 25.9369,-531.089 L 26.5451,-531.245 L 27.1289,-531.476 L 27.6791,-531.778 L 28.1871,-532.147 L 28.6448,-532.577
 L 29.0451,-533.061 L 29.3815,-533.591 L 29.6489,-534.159 L 29.8429,-534.757 L 29.9606,-535.373 L 30,-536
 L 30,-556 L 29.9606,-556.627 L 29.8429,-557.243 L 29.6489,-557.841 L 29.3815,-558.409 L 29.0451,-558.939
 L 28.6448,-559.423 L 28.1871,-559.853 L 27.6791,-560.222 L 27.1289,-560.524 L 26.5451,-560.755 L 25.9369,-560.911
 L 25.3139,-560.99 L -25.3139,-560.99 L -25.9369,-560.911 L -26.5451,-560.755 L -27.1289,-560.524 L -27.6791,-560.222
 L -28.1871,-559.853 L -28.6448,-559.423 L -29.0451,-558.939 L -29.3815,-558.409 L -29.6489,-557.841 L -29.8429,-557.243
 L -29.9606,-556.627 L -30,-556 L -30,-536 L -29.9606,-535.373 L -29.8429,-534.757 L -29.6489,-534.159
 L -29.3815,-533.591 L -29.0451,-533.061 L -28.6448,-532.577 L -28.1871,-532.147 L -27.6791,-531.778 L -27.1289,-531.476
 L -26.5451,-531.245 L -25.9369,-531.089 L -25.3139,-531.01 L 25.3139,-531.01 z
M -24.7512,-532.508 L -25.2495,-532.571 L -25.7361,-532.696 L -26.2031,-532.881 L -26.6433,-533.123 L -27.0497,-533.418
 L -27.4159,-533.762 L -27.7361,-534.149 L -28.0052,-534.573 L -28.2191,-535.028 L -28.3743,-535.505 L -28.4684,-535.999
 L -28.5,-536.5 L -28.5,-555.5 L -28.4684,-556.001 L -28.3743,-556.495 L -28.2191,-556.972 L -28.0052,-557.427
 L -27.7361,-557.851 L -27.4159,-558.238 L -27.0497,-558.582 L -26.6433,-558.877 L -26.2031,-559.119 L -25.7361,-559.304
 L -25.2495,-559.429 L -24.7512,-559.492 L 24.7512,-559.492 L 25.2495,-559.429 L 25.7361,-559.304 L 26.2031,-559.119
 L 26.6433,-558.877 L 27.0497,-558.582 L 27.4159,-558.238 L 27.7361,-557.851 L 28.0052,-557.427 L 28.2191,-556.972
 L 28.3743,-556.495 L 28.4684,-556.001 L 28.5,-555.5 L 28.5,-536.5 L 28.4684,-535.999 L 28.3743,-535.505
 L 28.2191,-535.028 L 28.0052,-534.573 L 27.7361,-534.149 L 27.4159,-533.762 L 27.0497,-533.418 L 26.6433,-533.123
 L 26.2031,-532.881 L 25.7361,-532.696 L 25.2495,-532.571 L 24.7512,-532.508 z
M 25.9369,-492.089 L 26.5451,-492.245 L 27.1289,-492.476 L 27.6791,-492.778 L 28.1871,-493.147 L 28.6448,-493.577
 L 29.0451,-494.061 L 29.3815,-494.591 L 29.6489,-495.159 L 29.8429,-495.757 L 29.9606,-496.373 L 30,-497
 L 30,-517 L 29.9606,-517.627 L 29.8429,-518.243 L 29.6489,-518.841 L 29.3815,-519.409 L 29.0451,-519.939
 L 28.6448,-520.423 L 28.1871,-520.853 L 27.6791,-521.222 L 27.1289,-521.524 L 26.5451,-521.755 L 25.9369,-521.911
 L 25.3139,-521.99 L -25.3139,-521.99 L -25.9369,-521.911 L -26.5451,-521.755 L -27.1289,-521.524 L -27.6791,-521.222
 L -28.1871,-520.853 L -28.6448,-520.423 L -29.0451,-519.939 L -29.3815,-519.409 L -29.6489,-518.841 L -29.8429,-518.243
 L -29.9606,-517.627 L -30,-517 L -30,-497 L -29.9606,-496.373 L -29.8429,-495.757 L -29.6489,-495.159
 L -29.3815,-494.591 L -29.0451,-494.061 L -28.6448,-493.577 L -28.1871,-493.147 L -27.6791,-492.778 L -27.1289,-492.476
 L -26.5451,-492.245 L -25.9369,-492.089 L -25.3139,-492.01 L 25.3139,-492.01 z
M -24.7512,-493.508 L -25.2495,-493.571 L -25.7361,-493.696 L -26.2031,-493.881 L -26.6433,-494.123 L -27.0497,-494.418
 L -27.4159,-494.762 L -27.7361,-495.149 L -28.0052,-495.573 L -28.2191,-496.028 L -28.3743,-496.505 L -28.4684,-496.999
 L -28.5,-497.5 L -28.5,-516.5 L -28.4684,-517.001 L -28.3743,-517.495 L -28.2191,-517.972 L -28.0052,-518.427
 L -27.7361,-518.851 L -27.4159,-519.238 L -27.0497,-519.582 L -26.6433,-519.877 L -26.2031,-520.119 L -25.7361,-520.304
 L -25.2495,-520.429 L -24.7512,-520.492 L 24.7512,-520.492 L 25.2495,-520.429 L 25.7361,-520.304 L 26.2031,-520.119
 L 26.6433,-519.877 L 27.0497,-519.582 L 27.4159,-519.238 L 27.7361,-518.851 L 28.0052,-518.427 L 28.2191,-517.972
 L 28.3743,-517.495 L 28.4684,-517.001 L 28.5,-516.5 L 28.5,-497.5 L 28.4684,-496.999 L 28.3743,-496.505
 L 28.2191,-496.028 L 28.0052,-495.573 L 27.7361,-495.149 L 27.4159,-494.762 L 27.0497,-494.418 L 26.6433,-494.123
 L 26.2031,-493.881 L 25.7361,-493.696 L 25.2495,-493.571 L 24.7512,-493.508 z
M 25.9369,-453.089 L 26.5451,-453.245 L 27.1289,-453.476 L 27.6791,-453.778 L 28.1871,-454.147 L 28.6448,-454.577
 L 29.0451,-455.061 L 29.3815,-455.591 L 29.6489,-456.159 L 29.8429,-456.757 L 29.9606,-457.373 L 30,-458
 L 30,-478 L 29.9606,-478.627 L 29.8429,-479.243 L 29.6489,-479.841 L 29.3815,-480.409 L 29.0451,-480.939
 L 28.6448,-481.423 L 28.1871,-481.853 L 27.6791,-482.222 L 27.1289,-482.524 L 26.5451,-482.755 L 25.9369,-482.911
 L 25.3139,-482.99 L -25.3139,-482.99 L -25.9369,-482.911 L -26.5451,-482.755 L -27.1289,-482.524 L -27.6791,-482.222
 L -28.1871,-481.853 L -28.6448,-481.423 L -29.0451,-480.939 L -29.3815,-480.409 L -29.6489,-479.841 L -29.8429,-479.243
 L -29.9606,-478.627 L -30,-478 L -30,-458 L -29.9606,-457.373 L -29.8429,-456.757 L -29.6489,-456.159
 L -29.3815,-455.591 L -29.0451,-455.061 L -28.6448,-454.577 L -28.1871,-454.147 L -27.6791,-453.778 L -27.1289,-453.476
 L -26.5451,-453.245 L -25.9369,-453.089 L -25.3139,-453.01 L 25.3139,-453.01 z
M -24.7512,-454.508 L -25.2495,-454.571 L -25.7361,-454.696 L -26.2031,-454.881 L -26.6433,-455.123 L -27.0497,-455.418
 L -27.4159,-455.762 L -27.7361,-456.149 L -28.0052,-456.573 L -28.2191,-457.028 L -28.3743,-457.505 L -28.4684,-457.999
 L -28.5,-458.5 L -28.5,-477.5 L -28.4684,-478.001 L -28.3743,-478.495 L -28.2191,-478.972 L -28.0052,-479.427
 L -27.7361,-479.851 L -27.4159,-480.238 L -27.0497,-480.582 L -26.6433,-480.877 L -26.2031,-481.119 L -25.7361,-481.304
 L -25.2495,-481.429 L -24.7512,-481.492 L 24.7512,-481.492 L 25.2495,-481.429 L 25.7361,-481.304 L 26.2031,-481.119
 L 26.6433,-480.877 L 27.0497,-480.582 L 27.4159,-480.238 L 27.7361,-479.851 L 28.0052,-479.427 L 28.2191,-478.972
 L 28.3743,-478.495 L 28.4684,-478.001 L 28.5,-477.5 L 28.5,-458.5 L 28.4684,-457.999 L 28.3743,-457.505
 L 28.2191,-457.028 L 28.0052,-456.573 L 27.7361,-456.149 L 27.4159,-455.762 L 27.0497,-455.418 L 26.6433,-455.123
 L 26.2031,-454.881 L 25.7361,-454.696 L 25.2495,-454.571 L 24.7512,-454.508 z
M 25.9369,-414.089 L 26.5451,-414.245 L 27.1289,-414.476 L 27.6791,-414.778 L 28.1871,-415.147 L 28.6448,-415.577
 L 29.0451,-416.061 L 29.3815,-416.591 L 29.6489,-417.159 L 29.8429,-417.757 L 29.9606,-418.373 L 30,-419
 L 30,-439 L 29.9606,-439.627 L 29.8429,-440.243 L 29.6489,-440.841 L 29.3815,-441.409 L 29.0451,-441.939
 L 28.6448,-442.423 L 28.1871,-442.853 L 27.6791,-443.222 L 27.1289,-443.524 L 26.5451,-443.755 L 25.9369,-443.911
 L 25.3139,-443.99 L -25.3139,-443.99 L -25.9369,-443.911 L -26.5451,-443.755 L -27.1289,-443.524 L -27.6791,-443.222
 L -28.1871,-442.853 L -28.6448,-442.423 L -29.0451,-441.939 L -29.3815,-441.409 L -29.6489,-440.841 L -29.8429,-440.243
 L -29.9606,-439.627 L -30,-439 L -30,-419 L -29.9606,-418.373 L -29.8429,-417.757 L -29.6489,-417.159
 L -29.3815,-416.591 L -29.0451,-416.061 L -28.6448,-415.577 L -28.1871,-415.147 L -27.6791,-414.778 L -27.1289,-414.476
 L -26.5451,-414.245 L -25.9369,-414.089 L -25.3139,-414.01 L 25.3139,-414.01 z
M -24.6954,-416.393 L -25.0833,-416.442 L -25.4619,-416.539 L -25.8254,-416.683 L -26.168,-416.872 L -26.4842,-417.101
 L -26.7692,-417.369 L -27.0184,-417.67 L -27.2279,-418 L -27.3943,-418.354 L -27.5151,-418.726 L -27.5884,-419.11
 L -27.6129,-419.5 L -27.6129,-438.5 L -27.5884,-438.89 L -27.5151,-439.274 L -27.3943,-439.646 L -27.2279,-440
 L -27.0184,-440.33 L -26.7692,-440.631 L -26.4842,-440.899 L -26.168,-441.128 L -25.8254,-441.317 L -25.4619,-441.461
 L -25.0833,-441.558 L -24.6954,-441.607 L 24.6954,-441.607 L 25.0833,-441.558 L 25.4619,-441.461 L 25.8254,-441.317
 L 26.168,-441.128 L 26.4842,-440.899 L 26.7692,-440.631 L 27.0184,-440.33 L 27.2279,-440 L 27.3943,-439.646
 L 27.5151,-439.274 L 27.5884,-438.89 L 27.6129,-438.5 L 27.6129,-419.5 L 27.5884,-419.11 L 27.5151,-418.726
 L 27.3943,-418.354 L 27.2279,-418 L 27.0184,-417.67 L 26.7692,-417.369 L 26.4842,-417.101 L 26.168,-416.872
 L 25.8254,-416.683 L 25.4619,-416.539 L 25.0833,-416.442 L 24.6954,-416.393 z
M 25.9369,-375.089 L 26.5451,-375.245 L 27.1289,-375.476 L 27.6791,-375.778 L 28.1871,-376.147 L 28.6448,-376.577
 L 29.0451,-377.061 L 29.3815,-377.591 L 29.6489,-378.159 L 29.8429,-378.757 L 29.9606,-379.373 L 30,-380
 L 30,-400 L 29.9606,-400.627 L 29.8429,-401.243 L 29.6489,-401.841 L 29.3815,-402.409 L 29.0451,-402.939
 L 28.6448,-403.423 L 28.1871,-403.853 L 27.6791,-404.222 L 27.1289,-404.524 L 26.5451,-404.755 L 25.9369,-404.911
 L 25.3139,-404.99 L -25.3139,-404.99 L -25.9369,-404.911 L -26.5451,-404.755 L -27.1289,-404.524 L -27.6791,-404.222
 L -28.1871,-403.853 L -28.6448,-403.423 L -29.0451,-402.939 L -29.3815,-402.409 L -29.6489,-401.841 L -29.8429,-401.243
 L -29.9606,-400.627 L -30,-400 L -30,-380 L -29.9606,-379.373 L -29.8429,-378.757 L -29.6489,-378.159
 L -29.3815,-377.591 L -29.0451,-377.061 L -28.6448,-376.577 L -28.1871,-376.147 L -27.6791,-375.778 L -27.1289,-375.476
 L -26.5451,-375.245 L -25.9369,-375.089 L -25.3139,-375.01 L 25.3139,-375.01 z
M -22.6341,-395.369 L -22.9001,-395.403 L -23.1598,-395.469 L -23.4091,-395.568 L -23.6441,-395.697 L -23.8611,-395.855
 L -24.0565,-396.038 L -24.2275,-396.245 L -24.3712,-396.471 L -24.4853,-396.714 L -24.5682,-396.969 L -24.6185,-397.232
 L -24.6353,-397.5 L -24.6185,-397.768 L -24.5682,-398.031 L -24.4853,-398.286 L -24.3712,-398.529 L -24.2275,-398.755
 L -24.0565,-398.962 L -23.8611,-399.145 L -23.6441,-399.303 L -23.4091,-399.432 L -23.1598,-399.531 L -22.9001,-399.597
 L -22.6341,-399.631 L -22.3659,-399.631 L -22.0999,-399.597 L -21.8401,-399.531 L -21.5908,-399.432 L -21.3559,-399.303
 L -21.1389,-399.145 L -20.9434,-398.962 L -20.7725,-398.755 L -20.6288,-398.529 L -20.5146,-398.286 L -20.4318,-398.031
 L -20.3815,-397.768 L -20.3647,-397.5 L -20.3815,-397.232 L -20.4318,-396.969 L -20.5146,-396.714 L -20.6288,-396.471
 L -20.7725,-396.245 L -20.9434,-396.038 L -21.1389,-395.855 L -21.3559,-395.697 L -21.5908,-395.568 L -21.8401,-395.469
 L -22.0999,-395.403 L -22.3659,-395.369 z
M 22.3659,-395.369 L 22.0999,-395.403 L 21.8401,-395.469 L 21.5908,-395.568 L 21.3559,-395.697 L 21.1389,-395.855
 L 20.9434,-396.038 L 20.7725,-396.245 L 20.6288,-396.471 L 20.5146,-396.714 L 20.4318,-396.969 L 20.3815,-397.232
 L 20.3647,-397.5 L 20.3815,-397.768 L 20.4318,-398.031 L 20.5146,-398.286 L 20.6288,-398.529 L 20.7725,-398.755
 L 20.9434,-398.962 L 21.1389,-399.145 L 21.3559,-399.303 L 21.5908,-399.432 L 21.8401,-399.531 L 22.0999,-399.597
 L 22.3659,-399.631 L 22.6341,-399.631 L 22.9001,-399.597 L 23.1598,-399.531 L 23.4091,-399.432 L 23.6441,-399.303
 L 23.8611,-399.145 L 24.0565,-398.962 L 24.2275,-398.755 L 24.3712,-398.529 L 24.4853,-398.286 L 24.5682,-398.031
 L 24.6185,-397.768 L 24.6353,-397.5 L 24.6185,-397.232 L 24.5682,-396.969 L 24.4853,-396.714 L 24.3712,-396.471
 L 24.2275,-396.245 L 24.0565,-396.038 L 23.8611,-395.855 L 23.6441,-395.697 L 23.4091,-395.568 L 23.1598,-395.469
 L 22.9001,-395.403 L 22.6341,-395.369 z
M -22.6341,-380.369 L -22.9001,-380.403 L -23.1598,-380.469 L -23.4091,-380.568 L -23.6441,-380.697 L -23.8611,-380.855
 L -24.0565,-381.038 L -24.2275,-381.245 L -24.3712,-381.471 L -24.4853,-381.714 L -24.5682,-381.969 L -24.6185,-382.232
 L -24.6353,-382.5 L -24.6185,-382.768 L -24.5682,-383.031 L -24.4853,-383.286 L -24.3712,-383.529 L -24.2275,-383.755
 L -24.0565,-383.962 L -23.8611,-384.145 L -23.6441,-384.303 L -23.4091,-384.432 L -23.1598,-384.531 L -22.9001,-384.597
 L -22.6341,-384.631 L -22.3659,-384.631 L -22.0999,-384.597 L -21.8401,-384.531 L -21.5908,-384.432 L -21.3559,-384.303
 L -21.1389,-384.145 L -20.9434,-383.962 L -20.7725,-383.755 L -20.6288,-383.529 L -20.5146,-383.286 L -20.4318,-383.031
 L -20.3815,-382.768 L -20.3647,-382.5 L -20.3815,-382.232 L -20.4318,-381.969 L -20.5146,-381.714 L -20.6288,-381.471
 L -20.7725,-381.245 L -20.9434,-381.038 L -21.1389,-380.855 L -21.3559,-380.697 L -21.5908,-380.568 L -21.8401,-380.469
 L -22.0999,-380.403 L -22.3659,-380.369 z
M 22.3659,-380.369 L 22.0999,-380.403 L 21.8401,-380.469 L 21.5908,-380.568 L 21.3559,-380.697 L 21.1389,-380.855
 L 20.9434,-381.038 L 20.7725,-381.245 L 20.6288,-381.471 L 20.5146,-381.714 L 20.4318,-381.969 L 20.3815,-382.232
 L 20.3647,-382.5 L 20.3815,-382.768 L 20.4318,-383.031 L 20.5146,-383.286 L 20.6288,-383.529 L 20.7725,-383.755
 L 20.9434,-383.962 L 21.1389,-384.145 L 21.3559,-384.303 L 21.5908,-384.432 L 21.8401,-384.531 L 22.0999,-384.597
 L 22.3659,-384.631 L 22.6341,-384.631 L 22.9001,-384.597 L 23.1598,-384.531 L 23.4091,-384.432 L 23.6441,-384.303
 L 23.8611,-384.145 L 24.0565,-383.962 L 24.2275,-383.755 L 24.3712,-383.529 L 24.4853,-383.286 L 24.5682,-383.031
 L 24.6185,-382.768 L 24.6353,-382.5 L 24.6185,-382.232 L 24.5682,-381.969 L 24.4853,-381.714 L 24.3712,-381.471
 L 24.2275,-381.245 L 24.0565,-381.038 L 23.8611,-380.855 L 23.6441,-380.697 L 23.4091,-380.568 L 23.1598,-380.469
 L 22.9001,-380.403 L 22.6341,-380.369 z
" stroke="black" fill="lightgray" stroke-width="0.5"/>
</svg>
