<?xml version="1.0" standalone="no"?>
<!DOCTYPE svg PUBLIC "-//W3C//DTD SVG 1.1//EN" "http://www.w3.org/Graphics/SVG/1.1/DTD/svg11.dtd">
<svg width="226mm" height="88mm" viewBox="-113 -176 226 88" xmlns="http://www.w3.org/2000/svg" version="1.1">
<title>OpenSCAD Model</title>
<path d="
M 108.437,-160.589 L 109.045,-160.745 L 109.629,-160.976 L 110.179,-161.278 L 110.687,-161.647 L 111.145,-162.077
 L 111.545,-162.561 L 111.882,-163.091 L 112.149,-163.659 L 112.343,-164.257 L 112.461,-164.873 L 112.5,-165.5
 L 112.5,-170.5 L 112.461,-171.127 L 112.343,-171.743 L 112.149,-172.341 L 111.882,-172.909 L 111.545,-173.439
 L 111.145,-173.923 L 110.687,-174.353 L 110.179,-174.722 L 109.629,-175.024 L 109.045,-175.255 L 108.437,-175.411
 L 107.814,-175.49 L -107.814,-175.49 L -108.437,-175.411 L -109.045,-175.255 L -109.629,-175.024 L -110.179,-174.722
 L -110.687,-174.353 L -110.9,-174.153 L -112.5,-174.153 L -112.5,-161.847 L -110.9,-161.847 L -110.687,-161.647
 L -110.179,-161.278 L -109.629,-160.976 L -109.045,-160.745 L -108.437,-160.589 L -107.814,-160.51 L 107.814,-160.51
 z
M -107.251,-162.008 L -107.75,-162.071 L -108.236,-162.196 L -108.703,-162.381 L -109.143,-162.623 L -109.55,-162.918
 L -109.916,-163.262 L -110.236,-163.649 L -110.505,-164.073 L -110.719,-164.528 L -110.874,-165.005 L -110.968,-165.499
 L -111,-166 L -111,-170 L -110.968,-170.501 L -110.874,-170.995 L -110.719,-171.472 L -110.505,-171.927
 L -110.236,-172.351 L -109.916,-172.738 L -109.55,-173.082 L -109.143,-173.377 L -108.703,-173.619 L -108.236,-173.804
 L -107.75,-173.929 L -107.251,-173.992 L 107.251,-173.992 L 107.75,-173.929 L 108.236,-173.804 L 108.703,-173.619
 L 109.143,-173.377 L 109.55,-173.082 L 109.916,-172.738 L 110.236,-172.351 L 110.505,-171.927 L 110.719,-171.472
 L 110.874,-170.995 L 110.968,-170.501 L 111,-170 L 111,-166 L 110.968,-165.499 L 110.874,-165.005
 L 110.719,-164.528 L 110.505,-164.073 L 110.236,-163.649 L 109.916,-163.262 L 109.55,-162.918 L 109.143,-162.623
 L 108.703,-162.381 L 108.236,-162.196 L 107.75,-162.071 L 107.251,-162.008 z
M 108.437,-136.589 L 109.045,-136.745 L 109.629,-136.976 L 110.179,-137.278 L 110.687,-137.647 L 111.145,-138.077
 L 111.545,-138.561 L 111.882,-139.091 L 112.149,-139.659 L 112.343,-140.257 L 112.461,-140.873 L 112.5,-141.5
 L 112.5,-146.5 L 112.461,-147.127 L 112.343,-147.743 L 112.149,-148.341 L 111.882,-148.909 L 111.545,-149.439
 L 111.145,-149.923 L 110.687,-150.353 L 110.179,-150.722 L 109.629,-151.024 L 109.045,-151.255 L 108.437,-151.411
 L 107.814,-151.49 L -107.814,-151.49 L -108.437,-151.411 L -109.045,-151.255 L -109.629,-151.024 L -110.179,-150.722
 L -110.687,-150.353 L -111.145,-149.923 L -111.545,-149.439 L -111.882,-148.909 L -112.149,-148.341 L -112.343,-147.743
 L -112.461,-147.127 L -112.5,-146.5 L -112.5,-141.5 L -112.461,-140.873 L -112.343,-140.257 L -112.149,-139.659
 L -111.882,-139.091 L -111.545,-138.561 L -111.145,-138.077 L -110.687,-137.647 L -110.179,-137.278 L -109.629,-136.976
 L -109.045,-136.745 L -108.437,-136.589 L -107.814,-136.51 L 107.814,-136.51 z
M -107.251,-138.008 L -107.75,-138.071 L -108.236,-138.196 L -108.703,-138.381 L -109.143,-138.623 L -109.55,-138.918
 L -109.916,-139.262 L -110.236,-139.649 L -110.505,-140.073 L -110.719,-140.528 L -110.874,-141.005 L -110.968,-141.499
 L -111,-142 L -111,-146 L -110.968,-146.501 L -110.874,-146.995 L -110.719,-147.472 L -110.505,-147.927
 L -110.236,-148.351 L -109.916,-148.738 L -109.55,-149.082 L -109.143,-149.377 L -108.703,-149.619 L -108.236,-149.804
 L -107.75,-149.929 L -107.251,-149.992 L 107.251,-149.992 L 107.75,-149.929 L 108.236,-149.804 L 108.703,-149.619
 L 109.143,-149.377 L 109.55,-149.082 L 109.916,-148.738 L 110.236,-148.351 L 110.505,-147.927 L 110.719,-147.472
 L 110.874,-146.995 L 110.968,-146.501 L 111,-146 L 111,-142 L 110.968,-141.499 L 110.874,-141.005
 L 110.719,-140.528 L 110.505,-140.073 L 110.236,-139.649 L 109.916,-139.262 L 109.55,-138.918 L 109.143,-138.623
 L 108.703,-138.381 L 108.236,-138.196 L 107.75,-138.071 L 107.251,-138.008 z
M 108.437,-112.589 L 109.045,-112.745 L 109.629,-112.976 L 110.179,-113.278 L 110.687,-113.647 L 111.145,-114.077
 L 111.545,-114.561 L 111.882,-115.091 L 112.149,-115.659 L 112.343,-116.257 L 112.461,-116.873 L 112.5,-117.5
 L 112.5,-122.5 L 112.461,-123.127 L 112.343,-123.743 L 112.149,-124.341 L 111.882,-124.909 L 111.545,-125.439
 L 111.145,-125.923 L 110.687,-126.353 L 110.179,-126.722 L 109.629,-127.024 L 109.045,-127.255 L 108.437,-127.411
 L 107.814,-127.49 L -107.814,-127.49 L -108.437,-127.411 L -109.045,-127.255 L -109.629,-127.024 L -110.179,-126.722
 L -110.687,-126.353 L -111.145,-125.923 L -111.545,-125.439 L -111.882,-124.909 L -112.149,-124.341 L -112.343,-123.743
 L -112.461,-123.127 L -112.5,-122.5 L -112.5,-117.5 L -112.461,-116.873 L -112.343,-116.257 L -112.149,-115.659
 L -111.882,-115.091 L -111.545,-114.561 L -111.145,-114.077 L -110.687,-113.647 L -110.179,-113.278 L -109.629,-112.976
 L -109.045,-112.745 L -108.437,-112.589 L -107.814,-112.51 L 107.814,-112.51 z
M -107.195,-114.893 L -107.583,-114.942 L -107.962,-115.039 L -108.325,-115.183 L -108.668,-115.372 L -108.984,-115.601
 L -109.269,-115.869 L -109.518,-116.17 L -109.728,-116.5 L -109.894,-116.854 L -110.015,-117.226 L -110.088,-117.61
 L -110.113,-118 L -110.113,-122 L -110.088,-122.39 L -110.015,-122.774 L -109.894,-123.146 L -109.728,-123.5
 L -109.518,-123.83 L -109.269,-124.131 L -108.984,-124.399 L -108.668,-124.628 L -108.325,-124.817 L -107.962,-124.961
 L -107.583,-125.058 L -107.195,-125.107 L 107.195,-125.107 L 107.583,-125.058 L 107.962,-124.961 L 108.325,-124.817
 L 108.668,-124.628 L 108.984,-124.399 L 109.269,-124.131 L 109.518,-123.83 L 109.728,-123.5 L 109.894,-123.146
 L 110.015,-122.774 L 110.088,-122.39 L 110.113,-122 L 110.113,-118 L 110.088,-117.61 L 110.015,-117.226
 L 109.894,-116.854 L 109.728,-116.5 L 109.518,-116.17 L 109.269,-115.869 L 108.984,-115.601 L 108.668,-115.372
 L 108.325,-115.183 L 107.962,-115.039 L 107.583,-114.942 L 107.195,-114.893 z
M 108.437,-88.5886 L 109.045,-88.7447 L 109.629,-88.9759 L 110.179,-89.2784 L 110.687,-89.6474 L 111.145,-90.0773
 L 111.545,-90.5611 L 111.882,-91.0912 L 112.149,-91.6594 L 112.343,-92.2566 L 112.461,-92.8733 L 112.5,-93.5
 L 112.5,-98.5 L 112.461,-99.1267 L 112.343,-99.7434 L 112.149,-100.341 L 111.882,-100.909 L 111.545,-101.439
 L 111.145,-101.923 L 110.687,-102.353 L 110.179,-102.722 L 109.629,-103.024 L 109.045,-103.255 L 108.437,-103.411
 L 107.814,-103.49 L -107.814,-103.49 L -108.437,-103.411 L -109.045,-103.255 L -109.629,-103.024 L -110.179,-102.722
 L -110.687,-102.353 L -111.145,-101.923 L -111.545,-101.439 L -111.882,-100.909 L -112.149,-100.341 L -112.343,-99.7434
 L -112.461,-99.1267 L -112.5,-98.5 L -112.5,-93.5 L -112.461,-92.8733 L -112.343,-92.2566 L -112.149,-91.6594
 L -111.882,-91.0912 L -111.545,-90.5611 L -111.145,-90.0773 L -110.687,-89.6474 L -110.179,-89.2784 L -109.629,-88.9759
 L -109.045,-88.7447 L -108.437,-88.5886 L -107.814,-88.5099 L 107.814,-88.5099 z
M 104.866,-93.8689 L 104.6,-93.9025 L 104.34,-93.9692 L 104.091,-94.0679 L 103.856,-94.1971 L 103.639,-94.3547
 L 103.443,-94.5383 L 103.273,-94.7449 L 103.129,-94.9713 L 103.015,-95.214 L 102.932,-95.469 L 102.882,-95.7324
 L 102.865,-96 L 102.882,-96.2676 L 102.932,-96.531 L 103.015,-96.786 L 103.129,-97.0287 L 103.273,-97.2551
 L 103.443,-97.4617 L 103.639,-97.6453 L 103.856,-97.8029 L 104.091,-97.9321 L 104.34,-98.0308 L 104.6,-98.0975
 L 104.866,-98.1311 L 105.134,-98.1311 L 105.4,-98.0975 L 105.66,-98.0308 L 105.909,-97.9321 L 106.144,-97.8029
 L 106.361,-97.6453 L 106.557,-97.4617 L 106.727,-97.2551 L 106.871,-97.0287 L 106.985,-96.786 L 107.068,-96.531
 L 107.118,-96.2676 L 107.135,-96 L 107.118,-95.7324 L 107.068,-95.469 L 106.985,-95.214 L 106.871,-94.9713
 L 106.727,-94.7449 L 106.557,-94.5383 L 106.361,-94.3547 L 106.144,-94.1971 L 105.909,-94.0679 L 105.66,-93.9692
 L 105.4,-93.9025 L 105.134,-93.8689 z
M -105.134,-93.8689 L -105.4,-93.9025 L -105.66,-93.9692 L -105.909,-94.0679 L -106.144,-94.1971 L -106.361,-94.3547
 L -106.557,-94.5383 L -106.727,-94.7449 L -106.871,-94.9713 L -106.985,-95.214 L -107.068,-95.469 L -107.118,-95.7324
 L -107.135,-96 L -107.118,-96.2676 L -107.068,-96.531 L -106.985,-96.786 L -106.871,-97.0287 L -106.727,-97.2551
 L -106.557,-97.4617 L -106.361,-97.6453 L -106.144,-97.8029 L -105.909,-97.9321 L -105.66,-98.0308 L -105.4,-98.0975
 L -105.134,-98.1311 L -104.866,-98.1311 L -104.6,-98.0975 L -104.34,-98.0308 L -104.091,-97.9321 L -103.856,-97.8029
 L -103.639,-97.6453 L -103.443,-97.4617 L -103.273,-97.2551 L -103.129,-97.0287 L -103.015,-96.786 L -102.932,-96.531
 L -102.882,-96.2676 L -102.865,-96 L -102.882,-95.7324 L -102.932,-95.469 L -103.015,-95.214 L -103.129,-94.9713
 L -103.273,-94.7449 L -103.443,-94.5383 L -103.639,-94.3547 L -103.856,-94.1971 L -104.091,-94.0679 L -104.34,-93.9692
 L -104.6,-93.9025 L -104.866,-93.8689 z
" stroke="black" fill="lightgray" stroke-width="0.5"/>
</svg>
