<?xml version="1.0" standalone="no"?>
<!DOCTYPE svg PUBLIC "-//W3C//DTD SVG 1.1//EN" "http://www.w3.org/Graphics/SVG/1.1/DTD/svg11.dtd">
<svg width="120mm" height="1012mm" viewBox="-60 -1730 120 1012" xmlns="http://www.w3.org/2000/svg" version="1.1">
<title>OpenSCAD Model</title>
<path d="
M 55.9369,-1534.59 L 56.5451,-1534.74 L 57.1289,-1534.98 L 57.6791,-1535.28 L 58.1871,-1535.65 L 58.6448,-1536.08
 L 59.0451,-1536.56 L 59.3815,-1537.09 L 59.6489,-1537.66 L 59.8429,-1538.26 L 59.9606,-1538.87 L 60,-1539.5
 L 60,-1724.5 L 59.9606,-1725.13 L 59.8429,-1725.74 L 59.6489,-1726.34 L 59.3815,-1726.91 L 59.0451,-1727.44
 L 58.6448,-1727.92 L 58.1871,-1728.35 L 57.6791,-1728.72 L 57.1289,-1729.02 L 56.5451,-1729.26 L 55.9369,-1729.41
 L 55.3139,-1729.49 L -55.3139,-1729.49 L -55.9369,-1729.41 L -56.5451,-1729.26 L -57.1289,-1729.02 L -57.6791,-1728.72
 L -58.1871,-1728.35 L -58.6448,-1727.92 L -59.0451,-1727.44 L -59.3815,-1726.91 L -59.6489,-1726.34 L -59.8429,-1725.74
 L -59.9606,-1725.13 L -60,-1724.5 L -60,-1539.5 L -59.9606,-1538.87 L -59.8429,-1538.26 L -59.6489,-1537.66
 L -59.3815,-1537.09 L -59.0451,-1536.56 L -58.6448,-1536.08 L -58.1871,-1535.65 L -57.6791,-1535.28 L -57.1289,-1534.98
 L -56.5451,-1534.74 L -55.9369,-1534.59 L -55.3139,-1534.51 L 55.3139,-1534.51 z
M -54.7512,-1536.01 L -55.2495,-1536.07 L -55.7361,-1536.2 L -56.2031,-1536.38 L -56.6433,-1536.62 L -57.0497,-1536.92
 L -57.4159,-1537.26 L -57.7361,-1537.65 L -58.0052,-1538.07 L -58.2191,-1538.53 L -58.3743,-1539.01 L -58.4685,-1539.5
 L -58.5,-1540 L -58.5,-1724 L -58.4685,-1724.5 L -58.3743,-1724.99 L -58.2191,-1725.47 L -58.0052,-1725.93
 L -57.7361,-1726.35 L -57.4159,-1726.74 L -57.0497,-1727.08 L -56.6433,-1727.38 L -56.2031,-1727.62 L -55.7361,-1727.8
 L -55.2495,-1727.93 L -54.7512,-1727.99 L 54.7512,-1727.99 L 55.2495,-1727.93 L 55.7361,-1727.8 L 56.2031,-1727.62
 L 56.6433,-1727.38 L 57.0497,-1727.08 L 57.4159,-1726.74 L 57.7361,-1726.35 L 58.0052,-1725.93 L 58.2191,-1725.47
 L 58.3743,-1724.99 L 58.4685,-1724.5 L 58.5,-1724 L 58.5,-1540 L 58.4685,-1539.5 L 58.3743,-1539.01
 L 58.2191,-1538.53 L 58.0052,-1538.07 L 57.7361,-1537.65 L 57.4159,-1537.26 L 57.0497,-1536.92 L 56.6433,-1536.62
 L 56.2031,-1536.38 L 55.7361,-1536.2 L 55.2495,-1536.07 L 54.7512,-1536.01 z
M 55.9369,-1330.59 L 56.5451,-1330.74 L 57.1289,-1330.98 L 57.6791,-1331.28 L 58.1871,-1331.65 L 58.6448,-1332.08
 L 59.0451,-1332.56 L 59.3815,-1333.09 L 59.6489,-1333.66 L 59.8429,-1334.26 L 59.9606,-1334.87 L 60,-1335.5
 L 60,-1520.5 L 59.9606,-1521.13 L 59.8429,-1521.74 L 59.6489,-1522.34 L 59.3815,-1522.91 L 59.0451,-1523.44
 L 58.6448,-1523.92 L 58.1871,-1524.35 L 57.6791,-1524.72 L 57.1289,-1525.02 L 56.5451,-1525.26 L 55.9369,-1525.41
 L 55.3139,-1525.49 L -55.3139,-1525.49 L -55.9369,-1525.41 L -56.5451,-1525.26 L -57.1289,-1525.02 L -57.6791,-1524.72
 L -58.1871,-1524.35 L -58.6448,-1523.92 L -59.0451,-1523.44 L -59.3815,-1522.91 L -59.6489,-1522.34 L -59.8429,-1521.74
 L -59.9606,-1521.13 L -60,-1520.5 L -60,-1335.5 L -59.9606,-1334.87 L -59.8429,-1334.26 L -59.6489,-1333.66
 L -59.3815,-1333.09 L -59.0451,-1332.56 L -58.6448,-1332.08 L -58.1871,-1331.65 L -57.6791,-1331.28 L -57.1289,-1330.98
 L -56.5451,-1330.74 L -55.9369,-1330.59 L -55.3139,-1330.51 L 55.3139,-1330.51 z
M -54.7512,-1332.01 L -55.2495,-1332.07 L -55.7361,-1332.2 L -56.2031,-1332.38 L -56.6433,-1332.62 L -57.0497,-1332.92
 L -57.4159,-1333.26 L -57.7361,-1333.65 L -58.0052,-1334.07 L -58.2191,-1334.53 L -58.3743,-1335.01 L -58.4685,-1335.5
 L -58.5,-1336 L -58.5,-1520 L -58.4685,-1520.5 L -58.3743,-1520.99 L -58.2191,-1521.47 L -58.0052,-1521.93
 L -57.7361,-1522.35 L -57.4159,-1522.74 L -57.0497,-1523.08 L -56.6433,-1523.38 L -56.2031,-1523.62 L -55.7361,-1523.8
 L -55.2495,-1523.93 L -54.7512,-1523.99 L 54.7512,-1523.99 L 55.2495,-1523.93 L 55.7361,-1523.8 L 56.2031,-1523.62
 L 56.6433,-1523.38 L 57.0497,-1523.08 L 57.4159,-1522.74 L 57.7361,-1522.35 L 58.0052,-1521.93 L 58.2191,-1521.47
 L 58.3743,-1520.99 L 58.4685,-1520.5 L 58.5,-1520 L 58.5,-1336 L 58.4685,-1335.5 L 58.3743,-1335.01
 L 58.2191,-1334.53 L 58.0052,-1334.07 L 57.7361,-1333.65 L 57.4159,-1333.26 L 57.0497,-1332.92 L 56.6433,-1332.62
 L 56.2031,-1332.38 L 55.7361,-1332.2 L 55.2495,-1332.07 L 54.7512,-1332.01 z
M 55.9369,-1126.59 L 56.5451,-1126.74 L 57.1289,-1126.98 L 57.6791,-1127.28 L 58.1871,-1127.65 L 58.6448,-1128.08
 L 59.0451,-1128.56 L 59.3815,-1129.09 L 59.6489,-1129.66 L 59.8429,-1130.26 L 59.9606,-1130.87 L 60,-1131.5
 L 60,-1316.5 L 59.9606,-1317.13 L 59.8429,-1317.74 L 59.6489,-1318.34 L 59.3815,-1318.91 L 59.0451,-1319.44
 L 58.6448,-1319.92 L 58.1871,-1320.35 L 57.6791,-1320.72 L 57.1289,-1321.02 L 56.5451,-1321.26 L 55.9369,-1321.41
 L 55.3139,-1321.49 L -55.3139,-1321.49 L -55.9369,-1321.41 L -56.5451,-1321.26 L -57.1289,-1321.02 L -57.6791,-1320.72
 L -58.1871,-1320.35 L -58.6448,-1319.92 L -59.0451,-1319.44 L -59.3815,-1318.91 L -59.6489,-1318.34 L -59.8429,-1317.74
 L -59.9606,-1317.13 L -60,-1316.5 L -60,-1131.5 L -59.9606,-1130.87 L -59.8429,-1130.26 L -59.6489,-1129.66
 L -59.3815,-1129.09 L -59.0451,-1128.56 L -58.6448,-1128.08 L -58.1871,-1127.65 L -57.6791,-1127.28 L -57.1289,-1126.98
 L -56.5451,-1126.74 L -55.9369,-1126.59 L -55.3139,-1126.51 L 55.3139,-1126.51 z
M -54.7432,-1128.14 L -55.2256,-1128.2 L -55.6967,-1128.32 L -56.1489,-1128.5 L -56.5751,-1128.73 L -56.9685,-1129.02
 L -57.323,-1129.35 L -57.633,-1129.72 L -57.8936,-1130.13 L -58.1007,-1130.57 L -58.251,-1131.04 L -58.3421,-1131.51
 L -58.3726,-1132 L -58.3726,-1316 L -58.3421,-1316.49 L -58.251,-1316.96 L -58.1007,-1317.43 L -57.8936,-1317.87
 L -57.633,-1318.28 L -57.323,-1318.65 L -56.9685,-1318.98 L -56.5751,-1319.27 L -56.1489,-1319.5 L -55.6967,-1319.68
 L -55.2256,-1319.8 L -54.7432,-1319.86 L 54.7432,-1319.86 L 55.2256,-1319.8 L 55.6967,-1319.68 L 56.1489,-1319.5
 L 56.5751,-1319.27 L 56.9685,-1318.98 L 57.323,-1318.65 L 57.633,-1318.28 L 57.8936,-1317.87 L 58.1007,-1317.43
 L 58.251,-1316.96 L 58.3421,-1316.49 L 58.3726,-1316 L 58.3726,-1132 L 58.3421,-1131.51 L 58.251,-1131.04
 L 58.1007,-1130.57 L 57.8936,-1130.13 L 57.633,-1129.72 L 57.323,-1129.35 L 56.9685,-1129.02 L 56.5751,-1128.73
 L 56.1489,-1128.5 L 55.6967,-1128.32 L 55.2256,-1128.2 L 54.7432,-1128.14 z
M 55.9369,-922.589 L 56.5451,-922.745 L 57.1289,-922.976 L 57.6791,-923.278 L 58.1871,-923.647 L 58.6448,-924.077
 L 59.0451,-924.561 L 59.3815,-925.091 L 59.6489,-925.659 L 59.8429,-926.257 L 59.9606,-926.873 L 60,-927.5
 L 60,-1112.5 L 59.9606,-1113.13 L 59.8429,-1113.74 L 59.6489,-1114.34 L 59.3815,-1114.91 L 59.0451,-1115.44
 L 58.6448,-1115.92 L 58.1871,-1116.35 L 57.6791,-1116.72 L 57.1289,-1117.02 L 56.5451,-1117.26 L 55.9369,-1117.41
 L 55.3139,-1117.49 L -55.3139,-1117.49 L -55.9369,-1117.41 L -56.5451,-1117.26 L -57.1289,-1117.02 L -57.6791,-1116.72
 L -58.1871,-1116.35 L -58.6448,-1115.92 L -59.0451,-1115.44 L -59.3815,-1114.91 L -59.6489,-1114.34 L -59.8429,-1113.74
 L -59.9606,-1113.13 L -60,-1112.5 L -60,-927.5 L -59.9606,-926.873 L -59.8429,-926.257 L -59.6489,-925.659
 L -59.3815,-925.091 L -59.0451,-924.561 L -58.6448,-924.077 L -58.1871,-923.647 L -57.6791,-923.278 L -57.1289,-922.976
 L -56.5451,-922.745 L -55.9369,-922.589 L -55.3139,-922.51 L 55.3139,-922.51 z
M -52.6507,-1107.6 L -52.9497,-1107.64 L -53.2416,-1107.72 L -53.5219,-1107.83 L -53.786,-1107.97 L -54.0298,-1108.15
 L -54.2495,-1108.36 L -54.4416,-1108.59 L -54.6031,-1108.84 L -54.7315,-1109.12 L -54.8246,-1109.4 L -54.8811,-1109.7
 L -54.9,-1110 L -54.8811,-1110.3 L -54.8246,-1110.6 L -54.7315,-1110.88 L -54.6031,-1111.16 L -54.4416,-1111.41
 L -54.2495,-1111.64 L -54.0298,-1111.85 L -53.786,-1112.03 L -53.5219,-1112.17 L -53.2416,-1112.28 L -52.9497,-1112.36
 L -52.6507,-1112.4 L -52.3493,-1112.4 L -52.0503,-1112.36 L -51.7584,-1112.28 L -51.4781,-1112.17 L -51.214,-1112.03
 L -50.9702,-1111.85 L -50.7505,-1111.64 L -50.5583,-1111.41 L -50.3969,-1111.16 L -50.2685,-1110.88 L -50.1754,-1110.6
 L -50.1189,-1110.3 L -50.1,-1110 L -50.1189,-1109.7 L -50.1754,-1109.4 L -50.2685,-1109.12 L -50.3969,-1108.84
 L -50.5583,-1108.59 L -50.7505,-1108.36 L -50.9702,-1108.15 L -51.214,-1107.97 L -51.4781,-1107.83 L -51.7584,-1107.72
 L -52.0503,-1107.64 L -52.3493,-1107.6 z
M 52.3493,-1107.6 L 52.0503,-1107.64 L 51.7584,-1107.72 L 51.4781,-1107.83 L 51.214,-1107.97 L 50.9702,-1108.15
 L 50.7505,-1108.36 L 50.5583,-1108.59 L 50.3969,-1108.84 L 50.2685,-1109.12 L 50.1754,-1109.4 L 50.1189,-1109.7
 L 50.1,-1110 L 50.1189,-1110.3 L 50.1754,-1110.6 L 50.2685,-1110.88 L 50.3969,-1111.16 L 50.5583,-1111.41
 L 50.7505,-1111.64 L 50.9702,-1111.85 L 51.214,-1112.03 L 51.4781,-1112.17 L 51.7584,-1112.28 L 52.0503,-1112.36
 L 52.3493,-1112.4 L 52.6507,-1112.4 L 52.9497,-1112.36 L 53.2416,-1112.28 L 53.5219,-1112.17 L 53.786,-1112.03
 L 54.0298,-1111.85 L 54.2495,-1111.64 L 54.4416,-1111.41 L 54.6031,-1111.16 L 54.7315,-1110.88 L 54.8246,-1110.6
 L 54.8811,-1110.3 L 54.9,-1110 L 54.8811,-1109.7 L 54.8246,-1109.4 L 54.7315,-1109.12 L 54.6031,-1108.84
 L 54.4416,-1108.59 L 54.2495,-1108.36 L 54.0298,-1108.15 L 53.786,-1107.97 L 53.5219,-1107.83 L 53.2416,-1107.72
 L 52.9497,-1107.64 L 52.6507,-1107.6 z
M 52.3493,-927.605 L 52.0503,-927.643 L 51.7584,-927.717 L 51.4781,-927.828 L 51.214,-927.974 L 50.9702,-928.151
 L 50.7505,-928.357 L 50.5583,-928.589 L 50.3969,-928.844 L 50.2685,-929.117 L 50.1754,-929.403 L 50.1189,-929.699
 L 50.1,-930 L 50.1189,-930.301 L 50.1754,-930.597 L 50.2685,-930.883 L 50.3969,-931.156 L 50.5583,-931.411
 L 50.7505,-931.643 L 50.9702,-931.849 L 51.214,-932.026 L 51.4781,-932.172 L 51.7584,-932.283 L 52.0503,-932.357
 L 52.3493,-932.395 L 52.6507,-932.395 L 52.9497,-932.357 L 53.2416,-932.283 L 53.5219,-932.172 L 53.786,-932.026
 L 54.0298,-931.849 L 54.2495,-931.643 L 54.4416,-931.411 L 54.6031,-931.156 L 54.7315,-930.883 L 54.8246,-930.597
 L 54.8811,-930.301 L 54.9,-930 L 54.8811,-929.699 L 54.8246,-929.403 L 54.7315,-929.117 L 54.6031,-928.844
 L 54.4416,-928.589 L 54.2495,-928.357 L 54.0298,-928.151 L 53.786,-927.974 L 53.5219,-927.828 L 53.2416,-927.717
 L 52.9497,-927.643 L 52.6507,-927.605 z
M -52.6507,-927.605 L -52.9497,-927.643 L -53.2416,-927.717 L -53.5219,-927.828 L -53.786,-927.974 L -54.0298,-928.151
 L -54.2495,-928.357 L -54.4416,-928.589 L -54.6031,-928.844 L -54.7315,-929.117 L -54.8246,-929.403 L -54.8811,-929.699
 L -54.9,-930 L -54.8811,-930.301 L -54.8246,-930.597 L -54.7315,-930.883 L -54.6031,-931.156 L -54.4416,-931.411
 L -54.2495,-931.643 L -54.0298,-931.849 L -53.786,-932.026 L -53.5219,-932.172 L -53.2416,-932.283 L -52.9497,-932.357
 L -52.6507,-932.395 L -52.3493,-932.395 L -52.0503,-932.357 L -51.7584,-932.283 L -51.4781,-932.172 L -51.214,-932.026
 L -50.9702,-931.849 L -50.7505,-931.643 L -50.5583,-931.411 L -50.3969,-931.156 L -50.2685,-930.883 L -50.1754,-930.597
 L -50.1189,-930.301 L -50.1,-930 L -50.1189,-929.699 L -50.1754,-929.403 L -50.2685,-929.117 L -50.3969,-928.844
 L -50.5583,-928.589 L -50.7505,-928.357 L -50.9702,-928.151 L -51.214,-927.974 L -51.4781,-927.828 L -51.7584,-927.717
 L -52.0503,-927.643 L -52.3493,-927.605 z
M 55.9369,-718.589 L 56.5451,-718.745 L 57.1289,-718.976 L 57.6791,-719.278 L 58.1871,-719.647 L 58.6448,-720.077
 L 59.0451,-720.561 L 59.3815,-721.091 L 59.6489,-721.659 L 59.8429,-722.257 L 59.9606,-722.873 L 60,-723.5
 L 60,-908.5 L 59.9606,-909.127 L 59.8429,-909.743 L 59.6489,-910.341 L 59.3815,-910.909 L 59.0451,-911.439
 L 58.6448,-911.923 L 58.1871,-912.353 L 57.6791,-912.722 L 57.1289,-913.024 L 56.5451,-913.255 L 55.9369,-913.411
 L 55.3139,-913.49 L -55.3139,-913.49 L -55.9369,-913.411 L -56.5451,-913.255 L -57.1289,-913.024 L -57.6791,-912.722
 L -58.1871,-912.353 L -58.6448,-911.923 L -59.0451,-911.439 L -59.3815,-910.909 L -59.6489,-910.341 L -59.8429,-909.743
 L -59.9606,-909.127 L -60,-908.5 L -60,-723.5 L -59.9606,-722.873 L -59.8429,-722.257 L -59.6489,-721.659
 L -59.3815,-721.091 L -59.0451,-720.561 L -58.6448,-720.077 L -58.1871,-719.647 L -57.6791,-719.278 L -57.1289,-718.976
 L -56.5451,-718.745 L -55.9369,-718.589 L -55.3139,-718.51 L 55.3139,-718.51 z
M 52.387,-904.204 L 52.1627,-904.232 L 51.9438,-904.288 L 51.7336,-904.371 L 51.5355,-904.48 L 51.3526,-904.613
 L 51.1879,-904.768 L 51.0438,-904.942 L 50.9226,-905.133 L 50.8264,-905.337 L 50.7565,-905.552 L 50.7142,-905.774
 L 50.7,-906 L 50.7142,-906.226 L 50.7565,-906.448 L 50.8264,-906.663 L 50.9226,-906.867 L 51.0438,-907.058
 L 51.1879,-907.232 L 51.3526,-907.387 L 51.5355,-907.52 L 51.7336,-907.629 L 51.9438,-907.712 L 52.1627,-907.768
 L 52.387,-907.796 L 52.613,-907.796 L 52.8373,-907.768 L 53.0562,-907.712 L 53.2664,-907.629 L 53.4645,-907.52
 L 53.6474,-907.387 L 53.8121,-907.232 L 53.9562,-907.058 L 54.0773,-906.867 L 54.1736,-906.663 L 54.2434,-906.448
 L 54.2858,-906.226 L 54.3,-906 L 54.2858,-905.774 L 54.2434,-905.552 L 54.1736,-905.337 L 54.0773,-905.133
 L 53.9562,-904.942 L 53.8121,-904.768 L 53.6474,-904.613 L 53.4645,-904.48 L 53.2664,-904.371 L 53.0562,-904.288
 L 52.8373,-904.232 L 52.613,-904.204 z
M -52.613,-904.204 L -52.8373,-904.232 L -53.0562,-904.288 L -53.2664,-904.371 L -53.4645,-904.48 L -53.6474,-904.613
 L -53.8121,-904.768 L -53.9562,-904.942 L -54.0773,-905.133 L -54.1736,-905.337 L -54.2434,-905.552 L -54.2858,-905.774
 L -54.3,-906 L -54.2858,-906.226 L -54.2434,-906.448 L -54.1736,-906.663 L -54.0773,-906.867 L -53.9562,-907.058
 L -53.8121,-907.232 L -53.6474,-907.387 L -53.4645,-907.52 L -53.2664,-907.629 L -53.0562,-907.712 L -52.8373,-907.768
 L -52.613,-907.796 L -52.387,-907.796 L -52.1627,-907.768 L -51.9438,-907.712 L -51.7336,-907.629 L -51.5355,-907.52
 L -51.3526,-907.387 L -51.1879,-907.232 L -51.0438,-907.058 L -50.9226,-906.867 L -50.8264,-906.663 L -50.7565,-906.448
 L -50.7142,-906.226 L -50.7,-906 L -50.7142,-905.774 L -50.7565,-905.552 L -50.8264,-905.337 L -50.9226,-905.133
 L -51.0438,-904.942 L -51.1879,-904.768 L -51.3526,-904.613 L -51.5355,-904.48 L -51.7336,-904.371 L -51.9438,-904.288
 L -52.1627,-904.232 L -52.387,-904.204 z
M -52.613,-724.204 L -52.8373,-724.232 L -53.0562,-724.288 L -53.2664,-724.371 L -53.4645,-724.48 L -53.6474,-724.613
 L -53.8121,-724.768 L -53.9562,-724.942 L -54.0773,-725.133 L -54.1736,-725.337 L -54.2434,-725.552 L -54.2858,-725.774
 L -54.3,-726 L -54.2858,-726.226 L -54.2434,-726.448 L -54.1736,-726.663 L -54.0773,-726.867 L -53.9562,-727.058
 L -53.8121,-727.232 L -53.6474,-727.387 L -53.4645,-727.52 L -53.2664,-727.629 L -53.0562,-727.712 L -52.8373,-727.768
 L -52.613,-727.796 L -52.387,-727.796 L -52.1627,-727.768 L -51.9438,-727.712 L -51.7336,-727.629 L -51.5355,-727.52
 L -51.3526,-727.387 L -51.1879,-727.232 L -51.0438,-727.058 L -50.9226,-726.867 L -50.8264,-726.663 L -50.7565,-726.448
 L -50.7142,-726.226 L -50.7,-726 L -50.7142,-725.774 L -50.7565,-725.552 L -50.8264,-725.337 L -50.9226,-725.133
 L -51.0438,-724.942 L -51.1879,-724.768 L -51.3526,-724.613 L -51.5355,-724.48 L -51.7336,-724.371 L -51.9438,-724.288
 L -52.1627,-724.232 L -52.387,-724.204 z
M 52.387,-724.204 L 52.1627,-724.232 L 51.9438,-724.288 L 51.7336,-724.371 L 51.5355,-724.48 L 51.3526,-724.613
 L 51.1879,-724.768 L 51.0438,-724.942 L 50.9226,-725.133 L 50.8264,-725.337 L 50.7565,-725.552 L 50.7142,-725.774
 L 50.7,-726 L 50.7142,-726.226 L 50.7565,-726.448 L 50.8264,-726.663 L 50.9226,-726.867 L 51.0438,-727.058
 L 51.1879,-727.232 L 51.3526,-727.387 L 51.5355,-727.52 L 51.7336,-727.629 L 51.9438,-727.712 L 52.1627,-727.768
 L 52.387,-727.796 L 52.613,-727.796 L 52.8373,-727.768 L 53.0562,-727.712 L 53.2664,-727.629 L 53.4645,-727.52
 L 53.6474,-727.387 L 53.8121,-727.232 L 53.9562,-727.058 L 54.0773,-726.867 L 54.1736,-726.663 L 54.2434,-726.448
 L 54.2858,-726.226 L 54.3,-726 L 54.2858,-725.774 L 54.2434,-725.552 L 54.1736,-725.337 L 54.0773,-725.133
 L 53.9562,-724.942 L 53.8121,-724.768 L 53.6474,-724.613 L 53.4645,-724.48 L 53.2664,-724.371 L 53.0562,-724.288
 L 52.8373,-724.232 L 52.613,-724.204 z
" stroke="black" fill="lightgray" stroke-width="0.5"/>
</svg>
