  0
SECTION
  2
BLOCKS
  0
ENDSEC
  0
SECTION
  2
ENTITIES
  0
LINE
  8
0
 10
70.9369
 20
2248.59
 11
71.5451
 21
2248.74
  0
LINE
  8
0
 10
71.5451
 20
2248.74
 11
72.1289
 21
2248.98
  0
LINE
  8
0
 10
72.1289
 20
2248.98
 11
72.6791
 21
2249.28
  0
LINE
  8
0
 10
72.6791
 20
2249.28
 11
73.1871
 21
2249.65
  0
LINE
  8
0
 10
73.1871
 20
2249.65
 11
73.6448
 21
2250.08
  0
LINE
  8
0
 10
73.6448
 20
2250.08
 11
74.0451
 21
2250.56
  0
LINE
  8
0
 10
74.0451
 20
2250.56
 11
74.3815
 21
2251.09
  0
LINE
  8
0
 10
74.3815
 20
2251.09
 11
74.6489
 21
2251.66
  0
LINE
  8
0
 10
74.6489
 20
2251.66
 11
74.8429
 21
2252.26
  0
LINE
  8
0
 10
74.8429
 20
2252.26
 11
74.9606
 21
2252.87
  0
LINE
  8
0
 10
74.9606
 20
2252.87
 11
75
 21
2253.5
  0
LINE
  8
0
 10
75
 20
2253.5
 11
75
 21
2498.5
  0
LINE
  8
0
 10
75
 20
2498.5
 11
74.9606
 21
2499.13
  0
LINE
  8
0
 10
74.9606
 20
2499.13
 11
74.8429
 21
2499.74
  0
LINE
  8
0
 10
74.8429
 20
2499.74
 11
74.6489
 21
2500.34
  0
LINE
  8
0
 10
74.6489
 20
2500.34
 11
74.3815
 21
2500.91
  0
LINE
  8
0
 10
74.3815
 20
2500.91
 11
74.0451
 21
2501.44
  0
LINE
  8
0
 10
74.0451
 20
2501.44
 11
73.6448
 21
2501.92
  0
LINE
  8
0
 10
73.6448
 20
2501.92
 11
73.1871
 21
2502.35
  0
LINE
  8
0
 10
73.1871
 20
2502.35
 11
72.6791
 21
2502.72
  0
LINE
  8
0
 10
72.6791
 20
2502.72
 11
72.1289
 21
2503.02
  0
LINE
  8
0
 10
72.1289
 20
2503.02
 11
71.5451
 21
2503.26
  0
LINE
  8
0
 10
71.5451
 20
2503.26
 11
70.9369
 21
2503.41
  0
LINE
  8
0
 10
70.9369
 20
2503.41
 11
70.3139
 21
2503.49
  0
LINE
  8
0
 10
70.3139
 20
2503.49
 11
-70.3139
 21
2503.49
  0
LINE
  8
0
 10
-70.3139
 20
2503.49
 11
-70.9369
 21
2503.41
  0
LINE
  8
0
 10
-70.9369
 20
2503.41
 11
-71.5451
 21
2503.26
  0
LINE
  8
0
 10
-71.5451
 20
2503.26
 11
-72.1289
 21
2503.02
  0
LINE
  8
0
 10
-72.1289
 20
2503.02
 11
-72.6791
 21
2502.72
  0
LINE
  8
0
 10
-72.6791
 20
2502.72
 11
-73.1871
 21
2502.35
  0
LINE
  8
0
 10
-73.1871
 20
2502.35
 11
-73.6448
 21
2501.92
  0
LINE
  8
0
 10
-73.6448
 20
2501.92
 11
-74.0451
 21
2501.44
  0
LINE
  8
0
 10
-74.0451
 20
2501.44
 11
-74.3815
 21
2500.91
  0
LINE
  8
0
 10
-74.3815
 20
2500.91
 11
-74.6489
 21
2500.34
  0
LINE
  8
0
 10
-74.6489
 20
2500.34
 11
-74.8429
 21
2499.74
  0
LINE
  8
0
 10
-74.8429
 20
2499.74
 11
-74.9606
 21
2499.13
  0
LINE
  8
0
 10
-74.9606
 20
2499.13
 11
-75
 21
2498.5
  0
LINE
  8
0
 10
-75
 20
2498.5
 11
-75
 21
2253.5
  0
LINE
  8
0
 10
-75
 20
2253.5
 11
-74.9606
 21
2252.87
  0
LINE
  8
0
 10
-74.9606
 20
2252.87
 11
-74.8429
 21
2252.26
  0
LINE
  8
0
 10
-74.8429
 20
2252.26
 11
-74.6489
 21
2251.66
  0
LINE
  8
0
 10
-74.6489
 20
2251.66
 11
-74.3815
 21
2251.09
  0
LINE
  8
0
 10
-74.3815
 20
2251.09
 11
-74.0451
 21
2250.56
  0
LINE
  8
0
 10
-74.0451
 20
2250.56
 11
-73.6448
 21
2250.08
  0
LINE
  8
0
 10
-73.6448
 20
2250.08
 11
-73.1871
 21
2249.65
  0
LINE
  8
0
 10
-73.1871
 20
2249.65
 11
-72.6791
 21
2249.28
  0
LINE
  8
0
 10
-72.6791
 20
2249.28
 11
-72.1289
 21
2248.98
  0
LINE
  8
0
 10
-72.1289
 20
2248.98
 11
-71.5451
 21
2248.74
  0
LINE
  8
0
 10
-71.5451
 20
2248.74
 11
-70.9369
 21
2248.59
  0
LINE
  8
0
 10
-70.9369
 20
2248.59
 11
-70.3139
 21
2248.51
  0
LINE
  8
0
 10
-70.3139
 20
2248.51
 11
70.3139
 21
2248.51
  0
LINE
  8
0
 10
70.3139
 20
2248.51
 11
70.9369
 21
2248.59
  0
LINE
  8
0
 10
-69.7512
 20
2250.01
 11
-70.2495
 21
2250.07
  0
LINE
  8
0
 10
-70.2495
 20
2250.07
 11
-70.7361
 21
2250.2
  0
LINE
  8
0
 10
-70.7361
 20
2250.2
 11
-71.2031
 21
2250.38
  0
LINE
  8
0
 10
-71.2031
 20
2250.38
 11
-71.6433
 21
2250.62
  0
LINE
  8
0
 10
-71.6433
 20
2250.62
 11
-72.0497
 21
2250.92
  0
LINE
  8
0
 10
-72.0497
 20
2250.92
 11
-72.4159
 21
2251.26
  0
LINE
  8
0
 10
-72.4159
 20
2251.26
 11
-72.7361
 21
2251.65
  0
LINE
  8
0
 10
-72.7361
 20
2251.65
 11
-73.0052
 21
2252.07
  0
LINE
  8
0
 10
-73.0052
 20
2252.07
 11
-73.2191
 21
2252.53
  0
LINE
  8
0
 10
-73.2191
 20
2252.53
 11
-73.3743
 21
2253.01
  0
LINE
  8
0
 10
-73.3743
 20
2253.01
 11
-73.4685
 21
2253.5
  0
LINE
  8
0
 10
-73.4685
 20
2253.5
 11
-73.5
 21
2254
  0
LINE
  8
0
 10
-73.5
 20
2254
 11
-73.5
 21
2498
  0
LINE
  8
0
 10
-73.5
 20
2498
 11
-73.4685
 21
2498.5
  0
LINE
  8
0
 10
-73.4685
 20
2498.5
 11
-73.3743
 21
2498.99
  0
LINE
  8
0
 10
-73.3743
 20
2498.99
 11
-73.2191
 21
2499.47
  0
LINE
  8
0
 10
-73.2191
 20
2499.47
 11
-73.0052
 21
2499.93
  0
LINE
  8
0
 10
-73.0052
 20
2499.93
 11
-72.7361
 21
2500.35
  0
LINE
  8
0
 10
-72.7361
 20
2500.35
 11
-72.4159
 21
2500.74
  0
LINE
  8
0
 10
-72.4159
 20
2500.74
 11
-72.0497
 21
2501.08
  0
LINE
  8
0
 10
-72.0497
 20
2501.08
 11
-71.6433
 21
2501.38
  0
LINE
  8
0
 10
-71.6433
 20
2501.38
 11
-71.2031
 21
2501.62
  0
LINE
  8
0
 10
-71.2031
 20
2501.62
 11
-70.7361
 21
2501.8
  0
LINE
  8
0
 10
-70.7361
 20
2501.8
 11
-70.2495
 21
2501.93
  0
LINE
  8
0
 10
-70.2495
 20
2501.93
 11
-69.7512
 21
2501.99
  0
LINE
  8
0
 10
-69.7512
 20
2501.99
 11
69.7512
 21
2501.99
  0
LINE
  8
0
 10
69.7512
 20
2501.99
 11
70.2495
 21
2501.93
  0
LINE
  8
0
 10
70.2495
 20
2501.93
 11
70.7361
 21
2501.8
  0
LINE
  8
0
 10
70.7361
 20
2501.8
 11
71.2031
 21
2501.62
  0
LINE
  8
0
 10
71.2031
 20
2501.62
 11
71.6433
 21
2501.38
  0
LINE
  8
0
 10
71.6433
 20
2501.38
 11
72.0497
 21
2501.08
  0
LINE
  8
0
 10
72.0497
 20
2501.08
 11
72.4159
 21
2500.74
  0
LINE
  8
0
 10
72.4159
 20
2500.74
 11
72.7361
 21
2500.35
  0
LINE
  8
0
 10
72.7361
 20
2500.35
 11
73.0052
 21
2499.93
  0
LINE
  8
0
 10
73.0052
 20
2499.93
 11
73.2191
 21
2499.47
  0
LINE
  8
0
 10
73.2191
 20
2499.47
 11
73.3743
 21
2498.99
  0
LINE
  8
0
 10
73.3743
 20
2498.99
 11
73.4685
 21
2498.5
  0
LINE
  8
0
 10
73.4685
 20
2498.5
 11
73.5
 21
2498
  0
LINE
  8
0
 10
73.5
 20
2498
 11
73.5
 21
2254
  0
LINE
  8
0
 10
73.5
 20
2254
 11
73.4685
 21
2253.5
  0
LINE
  8
0
 10
73.4685
 20
2253.5
 11
73.3743
 21
2253.01
  0
LINE
  8
0
 10
73.3743
 20
2253.01
 11
73.2191
 21
2252.53
  0
LINE
  8
0
 10
73.2191
 20
2252.53
 11
73.0052
 21
2252.07
  0
LINE
  8
0
 10
73.0052
 20
2252.07
 11
72.7361
 21
2251.65
  0
LINE
  8
0
 10
72.7361
 20
2251.65
 11
72.4159
 21
2251.26
  0
LINE
  8
0
 10
72.4159
 20
2251.26
 11
72.0497
 21
2250.92
  0
LINE
  8
0
 10
72.0497
 20
2250.92
 11
71.6433
 21
2250.62
  0
LINE
  8
0
 10
71.6433
 20
2250.62
 11
71.2031
 21
2250.38
  0
LINE
  8
0
 10
71.2031
 20
2250.38
 11
70.7361
 21
2250.2
  0
LINE
  8
0
 10
70.7361
 20
2250.2
 11
70.2495
 21
2250.07
  0
LINE
  8
0
 10
70.2495
 20
2250.07
 11
69.7512
 21
2250.01
  0
LINE
  8
0
 10
69.7512
 20
2250.01
 11
-69.7512
 21
2250.01
  0
LINE
  8
0
 10
70.9369
 20
1984.59
 11
71.5451
 21
1984.74
  0
LINE
  8
0
 10
71.5451
 20
1984.74
 11
72.1289
 21
1984.98
  0
LINE
  8
0
 10
72.1289
 20
1984.98
 11
72.6791
 21
1985.28
  0
LINE
  8
0
 10
72.6791
 20
1985.28
 11
73.1871
 21
1985.65
  0
LINE
  8
0
 10
73.1871
 20
1985.65
 11
73.6448
 21
1986.08
  0
LINE
  8
0
 10
73.6448
 20
1986.08
 11
74.0451
 21
1986.56
  0
LINE
  8
0
 10
74.0451
 20
1986.56
 11
74.3815
 21
1987.09
  0
LINE
  8
0
 10
74.3815
 20
1987.09
 11
74.6489
 21
1987.66
  0
LINE
  8
0
 10
74.6489
 20
1987.66
 11
74.8429
 21
1988.26
  0
LINE
  8
0
 10
74.8429
 20
1988.26
 11
74.9606
 21
1988.87
  0
LINE
  8
0
 10
74.9606
 20
1988.87
 11
75
 21
1989.5
  0
LINE
  8
0
 10
75
 20
1989.5
 11
75
 21
2234.5
  0
LINE
  8
0
 10
75
 20
2234.5
 11
74.9606
 21
2235.13
  0
LINE
  8
0
 10
74.9606
 20
2235.13
 11
74.8429
 21
2235.74
  0
LINE
  8
0
 10
74.8429
 20
2235.74
 11
74.6489
 21
2236.34
  0
LINE
  8
0
 10
74.6489
 20
2236.34
 11
74.3815
 21
2236.91
  0
LINE
  8
0
 10
74.3815
 20
2236.91
 11
74.0451
 21
2237.44
  0
LINE
  8
0
 10
74.0451
 20
2237.44
 11
73.6448
 21
2237.92
  0
LINE
  8
0
 10
73.6448
 20
2237.92
 11
73.1871
 21
2238.35
  0
LINE
  8
0
 10
73.1871
 20
2238.35
 11
72.6791
 21
2238.72
  0
LINE
  8
0
 10
72.6791
 20
2238.72
 11
72.1289
 21
2239.02
  0
LINE
  8
0
 10
72.1289
 20
2239.02
 11
71.5451
 21
2239.26
  0
LINE
  8
0
 10
71.5451
 20
2239.26
 11
70.9369
 21
2239.41
  0
LINE
  8
0
 10
70.9369
 20
2239.41
 11
70.3139
 21
2239.49
  0
LINE
  8
0
 10
70.3139
 20
2239.49
 11
-70.3139
 21
2239.49
  0
LINE
  8
0
 10
-70.3139
 20
2239.49
 11
-70.9369
 21
2239.41
  0
LINE
  8
0
 10
-70.9369
 20
2239.41
 11
-71.5451
 21
2239.26
  0
LINE
  8
0
 10
-71.5451
 20
2239.26
 11
-72.1289
 21
2239.02
  0
LINE
  8
0
 10
-72.1289
 20
2239.02
 11
-72.6791
 21
2238.72
  0
LINE
  8
0
 10
-72.6791
 20
2238.72
 11
-73.1871
 21
2238.35
  0
LINE
  8
0
 10
-73.1871
 20
2238.35
 11
-73.6448
 21
2237.92
  0
LINE
  8
0
 10
-73.6448
 20
2237.92
 11
-74.0451
 21
2237.44
  0
LINE
  8
0
 10
-74.0451
 20
2237.44
 11
-74.3815
 21
2236.91
  0
LINE
  8
0
 10
-74.3815
 20
2236.91
 11
-74.6489
 21
2236.34
  0
LINE
  8
0
 10
-74.6489
 20
2236.34
 11
-74.8429
 21
2235.74
  0
LINE
  8
0
 10
-74.8429
 20
2235.74
 11
-74.9606
 21
2235.13
  0
LINE
  8
0
 10
-74.9606
 20
2235.13
 11
-75
 21
2234.5
  0
LINE
  8
0
 10
-75
 20
2234.5
 11
-75
 21
1989.5
  0
LINE
  8
0
 10
-75
 20
1989.5
 11
-74.9606
 21
1988.87
  0
LINE
  8
0
 10
-74.9606
 20
1988.87
 11
-74.8429
 21
1988.26
  0
LINE
  8
0
 10
-74.8429
 20
1988.26
 11
-74.6489
 21
1987.66
  0
LINE
  8
0
 10
-74.6489
 20
1987.66
 11
-74.3815
 21
1987.09
  0
LINE
  8
0
 10
-74.3815
 20
1987.09
 11
-74.0451
 21
1986.56
  0
LINE
  8
0
 10
-74.0451
 20
1986.56
 11
-73.6448
 21
1986.08
  0
LINE
  8
0
 10
-73.6448
 20
1986.08
 11
-73.1871
 21
1985.65
  0
LINE
  8
0
 10
-73.1871
 20
1985.65
 11
-72.6791
 21
1985.28
  0
LINE
  8
0
 10
-72.6791
 20
1985.28
 11
-72.1289
 21
1984.98
  0
LINE
  8
0
 10
-72.1289
 20
1984.98
 11
-71.5451
 21
1984.74
  0
LINE
  8
0
 10
-71.5451
 20
1984.74
 11
-70.9369
 21
1984.59
  0
LINE
  8
0
 10
-70.9369
 20
1984.59
 11
-70.3139
 21
1984.51
  0
LINE
  8
0
 10
-70.3139
 20
1984.51
 11
70.3139
 21
1984.51
  0
LINE
  8
0
 10
70.3139
 20
1984.51
 11
70.9369
 21
1984.59
  0
LINE
  8
0
 10
-69.7512
 20
1986.01
 11
-70.2495
 21
1986.07
  0
LINE
  8
0
 10
-70.2495
 20
1986.07
 11
-70.7361
 21
1986.2
  0
LINE
  8
0
 10
-70.7361
 20
1986.2
 11
-71.2031
 21
1986.38
  0
LINE
  8
0
 10
-71.2031
 20
1986.38
 11
-71.6433
 21
1986.62
  0
LINE
  8
0
 10
-71.6433
 20
1986.62
 11
-72.0497
 21
1986.92
  0
LINE
  8
0
 10
-72.0497
 20
1986.92
 11
-72.4159
 21
1987.26
  0
LINE
  8
0
 10
-72.4159
 20
1987.26
 11
-72.7361
 21
1987.65
  0
LINE
  8
0
 10
-72.7361
 20
1987.65
 11
-73.0052
 21
1988.07
  0
LINE
  8
0
 10
-73.0052
 20
1988.07
 11
-73.2191
 21
1988.53
  0
LINE
  8
0
 10
-73.2191
 20
1988.53
 11
-73.3743
 21
1989.01
  0
LINE
  8
0
 10
-73.3743
 20
1989.01
 11
-73.4685
 21
1989.5
  0
LINE
  8
0
 10
-73.4685
 20
1989.5
 11
-73.5
 21
1990
  0
LINE
  8
0
 10
-73.5
 20
1990
 11
-73.5
 21
2234
  0
LINE
  8
0
 10
-73.5
 20
2234
 11
-73.4685
 21
2234.5
  0
LINE
  8
0
 10
-73.4685
 20
2234.5
 11
-73.3743
 21
2234.99
  0
LINE
  8
0
 10
-73.3743
 20
2234.99
 11
-73.2191
 21
2235.47
  0
LINE
  8
0
 10
-73.2191
 20
2235.47
 11
-73.0052
 21
2235.93
  0
LINE
  8
0
 10
-73.0052
 20
2235.93
 11
-72.7361
 21
2236.35
  0
LINE
  8
0
 10
-72.7361
 20
2236.35
 11
-72.4159
 21
2236.74
  0
LINE
  8
0
 10
-72.4159
 20
2236.74
 11
-72.0497
 21
2237.08
  0
LINE
  8
0
 10
-72.0497
 20
2237.08
 11
-71.6433
 21
2237.38
  0
LINE
  8
0
 10
-71.6433
 20
2237.38
 11
-71.2031
 21
2237.62
  0
LINE
  8
0
 10
-71.2031
 20
2237.62
 11
-70.7361
 21
2237.8
  0
LINE
  8
0
 10
-70.7361
 20
2237.8
 11
-70.2495
 21
2237.93
  0
LINE
  8
0
 10
-70.2495
 20
2237.93
 11
-69.7512
 21
2237.99
  0
LINE
  8
0
 10
-69.7512
 20
2237.99
 11
69.7512
 21
2237.99
  0
LINE
  8
0
 10
69.7512
 20
2237.99
 11
70.2495
 21
2237.93
  0
LINE
  8
0
 10
70.2495
 20
2237.93
 11
70.7361
 21
2237.8
  0
LINE
  8
0
 10
70.7361
 20
2237.8
 11
71.2031
 21
2237.62
  0
LINE
  8
0
 10
71.2031
 20
2237.62
 11
71.6433
 21
2237.38
  0
LINE
  8
0
 10
71.6433
 20
2237.38
 11
72.0497
 21
2237.08
  0
LINE
  8
0
 10
72.0497
 20
2237.08
 11
72.4159
 21
2236.74
  0
LINE
  8
0
 10
72.4159
 20
2236.74
 11
72.7361
 21
2236.35
  0
LINE
  8
0
 10
72.7361
 20
2236.35
 11
73.0052
 21
2235.93
  0
LINE
  8
0
 10
73.0052
 20
2235.93
 11
73.2191
 21
2235.47
  0
LINE
  8
0
 10
73.2191
 20
2235.47
 11
73.3743
 21
2234.99
  0
LINE
  8
0
 10
73.3743
 20
2234.99
 11
73.4685
 21
2234.5
  0
LINE
  8
0
 10
73.4685
 20
2234.5
 11
73.5
 21
2234
  0
LINE
  8
0
 10
73.5
 20
2234
 11
73.5
 21
1990
  0
LINE
  8
0
 10
73.5
 20
1990
 11
73.4685
 21
1989.5
  0
LINE
  8
0
 10
73.4685
 20
1989.5
 11
73.3743
 21
1989.01
  0
LINE
  8
0
 10
73.3743
 20
1989.01
 11
73.2191
 21
1988.53
  0
LINE
  8
0
 10
73.2191
 20
1988.53
 11
73.0052
 21
1988.07
  0
LINE
  8
0
 10
73.0052
 20
1988.07
 11
72.7361
 21
1987.65
  0
LINE
  8
0
 10
72.7361
 20
1987.65
 11
72.4159
 21
1987.26
  0
LINE
  8
0
 10
72.4159
 20
1987.26
 11
72.0497
 21
1986.92
  0
LINE
  8
0
 10
72.0497
 20
1986.92
 11
71.6433
 21
1986.62
  0
LINE
  8
0
 10
71.6433
 20
1986.62
 11
71.2031
 21
1986.38
  0
LINE
  8
0
 10
71.2031
 20
1986.38
 11
70.7361
 21
1986.2
  0
LINE
  8
0
 10
70.7361
 20
1986.2
 11
70.2495
 21
1986.07
  0
LINE
  8
0
 10
70.2495
 20
1986.07
 11
69.7512
 21
1986.01
  0
LINE
  8
0
 10
69.7512
 20
1986.01
 11
-69.7512
 21
1986.01
  0
LINE
  8
0
 10
70.9369
 20
1720.59
 11
71.5451
 21
1720.74
  0
LINE
  8
0
 10
71.5451
 20
1720.74
 11
72.1289
 21
1720.98
  0
LINE
  8
0
 10
72.1289
 20
1720.98
 11
72.6791
 21
1721.28
  0
LINE
  8
0
 10
72.6791
 20
1721.28
 11
73.1871
 21
1721.65
  0
LINE
  8
0
 10
73.1871
 20
1721.65
 11
73.6448
 21
1722.08
  0
LINE
  8
0
 10
73.6448
 20
1722.08
 11
74.0451
 21
1722.56
  0
LINE
  8
0
 10
74.0451
 20
1722.56
 11
74.3815
 21
1723.09
  0
LINE
  8
0
 10
74.3815
 20
1723.09
 11
74.6489
 21
1723.66
  0
LINE
  8
0
 10
74.6489
 20
1723.66
 11
74.8429
 21
1724.26
  0
LINE
  8
0
 10
74.8429
 20
1724.26
 11
74.9606
 21
1724.87
  0
LINE
  8
0
 10
74.9606
 20
1724.87
 11
75
 21
1725.5
  0
LINE
  8
0
 10
75
 20
1725.5
 11
75
 21
1970.5
  0
LINE
  8
0
 10
75
 20
1970.5
 11
74.9606
 21
1971.13
  0
LINE
  8
0
 10
74.9606
 20
1971.13
 11
74.8429
 21
1971.74
  0
LINE
  8
0
 10
74.8429
 20
1971.74
 11
74.6489
 21
1972.34
  0
LINE
  8
0
 10
74.6489
 20
1972.34
 11
74.3815
 21
1972.91
  0
LINE
  8
0
 10
74.3815
 20
1972.91
 11
74.0451
 21
1973.44
  0
LINE
  8
0
 10
74.0451
 20
1973.44
 11
73.6448
 21
1973.92
  0
LINE
  8
0
 10
73.6448
 20
1973.92
 11
73.1871
 21
1974.35
  0
LINE
  8
0
 10
73.1871
 20
1974.35
 11
72.6791
 21
1974.72
  0
LINE
  8
0
 10
72.6791
 20
1974.72
 11
72.1289
 21
1975.02
  0
LINE
  8
0
 10
72.1289
 20
1975.02
 11
71.5451
 21
1975.26
  0
LINE
  8
0
 10
71.5451
 20
1975.26
 11
70.9369
 21
1975.41
  0
LINE
  8
0
 10
70.9369
 20
1975.41
 11
70.3139
 21
1975.49
  0
LINE
  8
0
 10
70.3139
 20
1975.49
 11
-70.3139
 21
1975.49
  0
LINE
  8
0
 10
-70.3139
 20
1975.49
 11
-70.9369
 21
1975.41
  0
LINE
  8
0
 10
-70.9369
 20
1975.41
 11
-71.5451
 21
1975.26
  0
LINE
  8
0
 10
-71.5451
 20
1975.26
 11
-72.1289
 21
1975.02
  0
LINE
  8
0
 10
-72.1289
 20
1975.02
 11
-72.6791
 21
1974.72
  0
LINE
  8
0
 10
-72.6791
 20
1974.72
 11
-73.1871
 21
1974.35
  0
LINE
  8
0
 10
-73.1871
 20
1974.35
 11
-73.6448
 21
1973.92
  0
LINE
  8
0
 10
-73.6448
 20
1973.92
 11
-74.0451
 21
1973.44
  0
LINE
  8
0
 10
-74.0451
 20
1973.44
 11
-74.3815
 21
1972.91
  0
LINE
  8
0
 10
-74.3815
 20
1972.91
 11
-74.6489
 21
1972.34
  0
LINE
  8
0
 10
-74.6489
 20
1972.34
 11
-74.8429
 21
1971.74
  0
LINE
  8
0
 10
-74.8429
 20
1971.74
 11
-74.9606
 21
1971.13
  0
LINE
  8
0
 10
-74.9606
 20
1971.13
 11
-75
 21
1970.5
  0
LINE
  8
0
 10
-75
 20
1970.5
 11
-75
 21
1725.5
  0
LINE
  8
0
 10
-75
 20
1725.5
 11
-74.9606
 21
1724.87
  0
LINE
  8
0
 10
-74.9606
 20
1724.87
 11
-74.8429
 21
1724.26
  0
LINE
  8
0
 10
-74.8429
 20
1724.26
 11
-74.6489
 21
1723.66
  0
LINE
  8
0
 10
-74.6489
 20
1723.66
 11
-74.3815
 21
1723.09
  0
LINE
  8
0
 10
-74.3815
 20
1723.09
 11
-74.0451
 21
1722.56
  0
LINE
  8
0
 10
-74.0451
 20
1722.56
 11
-73.6448
 21
1722.08
  0
LINE
  8
0
 10
-73.6448
 20
1722.08
 11
-73.1871
 21
1721.65
  0
LINE
  8
0
 10
-73.1871
 20
1721.65
 11
-72.6791
 21
1721.28
  0
LINE
  8
0
 10
-72.6791
 20
1721.28
 11
-72.1289
 21
1720.98
  0
LINE
  8
0
 10
-72.1289
 20
1720.98
 11
-71.5451
 21
1720.74
  0
LINE
  8
0
 10
-71.5451
 20
1720.74
 11
-70.9369
 21
1720.59
  0
LINE
  8
0
 10
-70.9369
 20
1720.59
 11
-70.3139
 21
1720.51
  0
LINE
  8
0
 10
-70.3139
 20
1720.51
 11
70.3139
 21
1720.51
  0
LINE
  8
0
 10
70.3139
 20
1720.51
 11
70.9369
 21
1720.59
  0
LINE
  8
0
 10
-69.7512
 20
1722.01
 11
-70.2495
 21
1722.07
  0
LINE
  8
0
 10
-70.2495
 20
1722.07
 11
-70.7361
 21
1722.2
  0
LINE
  8
0
 10
-70.7361
 20
1722.2
 11
-71.2031
 21
1722.38
  0
LINE
  8
0
 10
-71.2031
 20
1722.38
 11
-71.6433
 21
1722.62
  0
LINE
  8
0
 10
-71.6433
 20
1722.62
 11
-72.0497
 21
1722.92
  0
LINE
  8
0
 10
-72.0497
 20
1722.92
 11
-72.4159
 21
1723.26
  0
LINE
  8
0
 10
-72.4159
 20
1723.26
 11
-72.7361
 21
1723.65
  0
LINE
  8
0
 10
-72.7361
 20
1723.65
 11
-73.0052
 21
1724.07
  0
LINE
  8
0
 10
-73.0052
 20
1724.07
 11
-73.2191
 21
1724.53
  0
LINE
  8
0
 10
-73.2191
 20
1724.53
 11
-73.3743
 21
1725.01
  0
LINE
  8
0
 10
-73.3743
 20
1725.01
 11
-73.4685
 21
1725.5
  0
LINE
  8
0
 10
-73.4685
 20
1725.5
 11
-73.5
 21
1726
  0
LINE
  8
0
 10
-73.5
 20
1726
 11
-73.5
 21
1970
  0
LINE
  8
0
 10
-73.5
 20
1970
 11
-73.4685
 21
1970.5
  0
LINE
  8
0
 10
-73.4685
 20
1970.5
 11
-73.3743
 21
1970.99
  0
LINE
  8
0
 10
-73.3743
 20
1970.99
 11
-73.2191
 21
1971.47
  0
LINE
  8
0
 10
-73.2191
 20
1971.47
 11
-73.0052
 21
1971.93
  0
LINE
  8
0
 10
-73.0052
 20
1971.93
 11
-72.7361
 21
1972.35
  0
LINE
  8
0
 10
-72.7361
 20
1972.35
 11
-72.4159
 21
1972.74
  0
LINE
  8
0
 10
-72.4159
 20
1972.74
 11
-72.0497
 21
1973.08
  0
LINE
  8
0
 10
-72.0497
 20
1973.08
 11
-71.6433
 21
1973.38
  0
LINE
  8
0
 10
-71.6433
 20
1973.38
 11
-71.2031
 21
1973.62
  0
LINE
  8
0
 10
-71.2031
 20
1973.62
 11
-70.7361
 21
1973.8
  0
LINE
  8
0
 10
-70.7361
 20
1973.8
 11
-70.2495
 21
1973.93
  0
LINE
  8
0
 10
-70.2495
 20
1973.93
 11
-69.7512
 21
1973.99
  0
LINE
  8
0
 10
-69.7512
 20
1973.99
 11
69.7512
 21
1973.99
  0
LINE
  8
0
 10
69.7512
 20
1973.99
 11
70.2495
 21
1973.93
  0
LINE
  8
0
 10
70.2495
 20
1973.93
 11
70.7361
 21
1973.8
  0
LINE
  8
0
 10
70.7361
 20
1973.8
 11
71.2031
 21
1973.62
  0
LINE
  8
0
 10
71.2031
 20
1973.62
 11
71.6433
 21
1973.38
  0
LINE
  8
0
 10
71.6433
 20
1973.38
 11
72.0497
 21
1973.08
  0
LINE
  8
0
 10
72.0497
 20
1973.08
 11
72.4159
 21
1972.74
  0
LINE
  8
0
 10
72.4159
 20
1972.74
 11
72.7361
 21
1972.35
  0
LINE
  8
0
 10
72.7361
 20
1972.35
 11
73.0052
 21
1971.93
  0
LINE
  8
0
 10
73.0052
 20
1971.93
 11
73.2191
 21
1971.47
  0
LINE
  8
0
 10
73.2191
 20
1971.47
 11
73.3743
 21
1970.99
  0
LINE
  8
0
 10
73.3743
 20
1970.99
 11
73.4685
 21
1970.5
  0
LINE
  8
0
 10
73.4685
 20
1970.5
 11
73.5
 21
1970
  0
LINE
  8
0
 10
73.5
 20
1970
 11
73.5
 21
1726
  0
LINE
  8
0
 10
73.5
 20
1726
 11
73.4685
 21
1725.5
  0
LINE
  8
0
 10
73.4685
 20
1725.5
 11
73.3743
 21
1725.01
  0
LINE
  8
0
 10
73.3743
 20
1725.01
 11
73.2191
 21
1724.53
  0
LINE
  8
0
 10
73.2191
 20
1724.53
 11
73.0052
 21
1724.07
  0
LINE
  8
0
 10
73.0052
 20
1724.07
 11
72.7361
 21
1723.65
  0
LINE
  8
0
 10
72.7361
 20
1723.65
 11
72.4159
 21
1723.26
  0
LINE
  8
0
 10
72.4159
 20
1723.26
 11
72.0497
 21
1722.92
  0
LINE
  8
0
 10
72.0497
 20
1722.92
 11
71.6433
 21
1722.62
  0
LINE
  8
0
 10
71.6433
 20
1722.62
 11
71.2031
 21
1722.38
  0
LINE
  8
0
 10
71.2031
 20
1722.38
 11
70.7361
 21
1722.2
  0
LINE
  8
0
 10
70.7361
 20
1722.2
 11
70.2495
 21
1722.07
  0
LINE
  8
0
 10
70.2495
 20
1722.07
 11
69.7512
 21
1722.01
  0
LINE
  8
0
 10
69.7512
 20
1722.01
 11
-69.7512
 21
1722.01
  0
LINE
  8
0
 10
70.9369
 20
1456.59
 11
71.5451
 21
1456.74
  0
LINE
  8
0
 10
71.5451
 20
1456.74
 11
72.1289
 21
1456.98
  0
LINE
  8
0
 10
72.1289
 20
1456.98
 11
72.6791
 21
1457.28
  0
LINE
  8
0
 10
72.6791
 20
1457.28
 11
73.1871
 21
1457.65
  0
LINE
  8
0
 10
73.1871
 20
1457.65
 11
73.6448
 21
1458.08
  0
LINE
  8
0
 10
73.6448
 20
1458.08
 11
74.0451
 21
1458.56
  0
LINE
  8
0
 10
74.0451
 20
1458.56
 11
74.3815
 21
1459.09
  0
LINE
  8
0
 10
74.3815
 20
1459.09
 11
74.6489
 21
1459.66
  0
LINE
  8
0
 10
74.6489
 20
1459.66
 11
74.8429
 21
1460.26
  0
LINE
  8
0
 10
74.8429
 20
1460.26
 11
74.9606
 21
1460.87
  0
LINE
  8
0
 10
74.9606
 20
1460.87
 11
75
 21
1461.5
  0
LINE
  8
0
 10
75
 20
1461.5
 11
75
 21
1706.5
  0
LINE
  8
0
 10
75
 20
1706.5
 11
74.9606
 21
1707.13
  0
LINE
  8
0
 10
74.9606
 20
1707.13
 11
74.8429
 21
1707.74
  0
LINE
  8
0
 10
74.8429
 20
1707.74
 11
74.6489
 21
1708.34
  0
LINE
  8
0
 10
74.6489
 20
1708.34
 11
74.3815
 21
1708.91
  0
LINE
  8
0
 10
74.3815
 20
1708.91
 11
74.0451
 21
1709.44
  0
LINE
  8
0
 10
74.0451
 20
1709.44
 11
73.6448
 21
1709.92
  0
LINE
  8
0
 10
73.6448
 20
1709.92
 11
73.1871
 21
1710.35
  0
LINE
  8
0
 10
73.1871
 20
1710.35
 11
72.6791
 21
1710.72
  0
LINE
  8
0
 10
72.6791
 20
1710.72
 11
72.1289
 21
1711.02
  0
LINE
  8
0
 10
72.1289
 20
1711.02
 11
71.5451
 21
1711.26
  0
LINE
  8
0
 10
71.5451
 20
1711.26
 11
70.9369
 21
1711.41
  0
LINE
  8
0
 10
70.9369
 20
1711.41
 11
70.3139
 21
1711.49
  0
LINE
  8
0
 10
70.3139
 20
1711.49
 11
-70.3139
 21
1711.49
  0
LINE
  8
0
 10
-70.3139
 20
1711.49
 11
-70.9369
 21
1711.41
  0
LINE
  8
0
 10
-70.9369
 20
1711.41
 11
-71.5451
 21
1711.26
  0
LINE
  8
0
 10
-71.5451
 20
1711.26
 11
-72.1289
 21
1711.02
  0
LINE
  8
0
 10
-72.1289
 20
1711.02
 11
-72.6791
 21
1710.72
  0
LINE
  8
0
 10
-72.6791
 20
1710.72
 11
-73.1871
 21
1710.35
  0
LINE
  8
0
 10
-73.1871
 20
1710.35
 11
-73.6448
 21
1709.92
  0
LINE
  8
0
 10
-73.6448
 20
1709.92
 11
-74.0451
 21
1709.44
  0
LINE
  8
0
 10
-74.0451
 20
1709.44
 11
-74.3815
 21
1708.91
  0
LINE
  8
0
 10
-74.3815
 20
1708.91
 11
-74.6489
 21
1708.34
  0
LINE
  8
0
 10
-74.6489
 20
1708.34
 11
-74.8429
 21
1707.74
  0
LINE
  8
0
 10
-74.8429
 20
1707.74
 11
-74.9606
 21
1707.13
  0
LINE
  8
0
 10
-74.9606
 20
1707.13
 11
-75
 21
1706.5
  0
LINE
  8
0
 10
-75
 20
1706.5
 11
-75
 21
1461.5
  0
LINE
  8
0
 10
-75
 20
1461.5
 11
-74.9606
 21
1460.87
  0
LINE
  8
0
 10
-74.9606
 20
1460.87
 11
-74.8429
 21
1460.26
  0
LINE
  8
0
 10
-74.8429
 20
1460.26
 11
-74.6489
 21
1459.66
  0
LINE
  8
0
 10
-74.6489
 20
1459.66
 11
-74.3815
 21
1459.09
  0
LINE
  8
0
 10
-74.3815
 20
1459.09
 11
-74.0451
 21
1458.56
  0
LINE
  8
0
 10
-74.0451
 20
1458.56
 11
-73.6448
 21
1458.08
  0
LINE
  8
0
 10
-73.6448
 20
1458.08
 11
-73.1871
 21
1457.65
  0
LINE
  8
0
 10
-73.1871
 20
1457.65
 11
-72.6791
 21
1457.28
  0
LINE
  8
0
 10
-72.6791
 20
1457.28
 11
-72.1289
 21
1456.98
  0
LINE
  8
0
 10
-72.1289
 20
1456.98
 11
-71.5451
 21
1456.74
  0
LINE
  8
0
 10
-71.5451
 20
1456.74
 11
-70.9369
 21
1456.59
  0
LINE
  8
0
 10
-70.9369
 20
1456.59
 11
-70.3139
 21
1456.51
  0
LINE
  8
0
 10
-70.3139
 20
1456.51
 11
70.3139
 21
1456.51
  0
LINE
  8
0
 10
70.3139
 20
1456.51
 11
70.9369
 21
1456.59
  0
LINE
  8
0
 10
-69.6955
 20
1458.89
 11
-70.0833
 21
1458.94
  0
LINE
  8
0
 10
-70.0833
 20
1458.94
 11
-70.4619
 21
1459.04
  0
LINE
  8
0
 10
-70.4619
 20
1459.04
 11
-70.8254
 21
1459.18
  0
LINE
  8
0
 10
-70.8254
 20
1459.18
 11
-71.168
 21
1459.37
  0
LINE
  8
0
 10
-71.168
 20
1459.37
 11
-71.4843
 21
1459.6
  0
LINE
  8
0
 10
-71.4843
 20
1459.6
 11
-71.7692
 21
1459.87
  0
LINE
  8
0
 10
-71.7692
 20
1459.87
 11
-72.0184
 21
1460.17
  0
LINE
  8
0
 10
-72.0184
 20
1460.17
 11
-72.2279
 21
1460.5
  0
LINE
  8
0
 10
-72.2279
 20
1460.5
 11
-72.3943
 21
1460.85
  0
LINE
  8
0
 10
-72.3943
 20
1460.85
 11
-72.5151
 21
1461.23
  0
LINE
  8
0
 10
-72.5151
 20
1461.23
 11
-72.5884
 21
1461.61
  0
LINE
  8
0
 10
-72.5884
 20
1461.61
 11
-72.6129
 21
1462
  0
LINE
  8
0
 10
-72.6129
 20
1462
 11
-72.6129
 21
1706
  0
LINE
  8
0
 10
-72.6129
 20
1706
 11
-72.5884
 21
1706.39
  0
LINE
  8
0
 10
-72.5884
 20
1706.39
 11
-72.5151
 21
1706.77
  0
LINE
  8
0
 10
-72.5151
 20
1706.77
 11
-72.3943
 21
1707.15
  0
LINE
  8
0
 10
-72.3943
 20
1707.15
 11
-72.2279
 21
1707.5
  0
LINE
  8
0
 10
-72.2279
 20
1707.5
 11
-72.0184
 21
1707.83
  0
LINE
  8
0
 10
-72.0184
 20
1707.83
 11
-71.7692
 21
1708.13
  0
LINE
  8
0
 10
-71.7692
 20
1708.13
 11
-71.4843
 21
1708.4
  0
LINE
  8
0
 10
-71.4843
 20
1708.4
 11
-71.168
 21
1708.63
  0
LINE
  8
0
 10
-71.168
 20
1708.63
 11
-70.8254
 21
1708.82
  0
LINE
  8
0
 10
-70.8254
 20
1708.82
 11
-70.4619
 21
1708.96
  0
LINE
  8
0
 10
-70.4619
 20
1708.96
 11
-70.0833
 21
1709.06
  0
LINE
  8
0
 10
-70.0833
 20
1709.06
 11
-69.6955
 21
1709.11
  0
LINE
  8
0
 10
-69.6955
 20
1709.11
 11
69.6955
 21
1709.11
  0
LINE
  8
0
 10
69.6955
 20
1709.11
 11
70.0833
 21
1709.06
  0
LINE
  8
0
 10
70.0833
 20
1709.06
 11
70.4619
 21
1708.96
  0
LINE
  8
0
 10
70.4619
 20
1708.96
 11
70.8254
 21
1708.82
  0
LINE
  8
0
 10
70.8254
 20
1708.82
 11
71.168
 21
1708.63
  0
LINE
  8
0
 10
71.168
 20
1708.63
 11
71.4843
 21
1708.4
  0
LINE
  8
0
 10
71.4843
 20
1708.4
 11
71.7692
 21
1708.13
  0
LINE
  8
0
 10
71.7692
 20
1708.13
 11
72.0184
 21
1707.83
  0
LINE
  8
0
 10
72.0184
 20
1707.83
 11
72.2279
 21
1707.5
  0
LINE
  8
0
 10
72.2279
 20
1707.5
 11
72.3943
 21
1707.15
  0
LINE
  8
0
 10
72.3943
 20
1707.15
 11
72.5151
 21
1706.77
  0
LINE
  8
0
 10
72.5151
 20
1706.77
 11
72.5884
 21
1706.39
  0
LINE
  8
0
 10
72.5884
 20
1706.39
 11
72.6129
 21
1706
  0
LINE
  8
0
 10
72.6129
 20
1706
 11
72.6129
 21
1462
  0
LINE
  8
0
 10
72.6129
 20
1462
 11
72.5884
 21
1461.61
  0
LINE
  8
0
 10
72.5884
 20
1461.61
 11
72.5151
 21
1461.23
  0
LINE
  8
0
 10
72.5151
 20
1461.23
 11
72.3943
 21
1460.85
  0
LINE
  8
0
 10
72.3943
 20
1460.85
 11
72.2279
 21
1460.5
  0
LINE
  8
0
 10
72.2279
 20
1460.5
 11
72.0184
 21
1460.17
  0
LINE
  8
0
 10
72.0184
 20
1460.17
 11
71.7692
 21
1459.87
  0
LINE
  8
0
 10
71.7692
 20
1459.87
 11
71.4843
 21
1459.6
  0
LINE
  8
0
 10
71.4843
 20
1459.6
 11
71.168
 21
1459.37
  0
LINE
  8
0
 10
71.168
 20
1459.37
 11
70.8254
 21
1459.18
  0
LINE
  8
0
 10
70.8254
 20
1459.18
 11
70.4619
 21
1459.04
  0
LINE
  8
0
 10
70.4619
 20
1459.04
 11
70.0833
 21
1458.94
  0
LINE
  8
0
 10
70.0833
 20
1458.94
 11
69.6955
 21
1458.89
  0
LINE
  8
0
 10
69.6955
 20
1458.89
 11
-69.6955
 21
1458.89
  0
LINE
  8
0
 10
70.9369
 20
1192.59
 11
71.5451
 21
1192.74
  0
LINE
  8
0
 10
71.5451
 20
1192.74
 11
72.1289
 21
1192.98
  0
LINE
  8
0
 10
72.1289
 20
1192.98
 11
72.6791
 21
1193.28
  0
LINE
  8
0
 10
72.6791
 20
1193.28
 11
73.1871
 21
1193.65
  0
LINE
  8
0
 10
73.1871
 20
1193.65
 11
73.6448
 21
1194.08
  0
LINE
  8
0
 10
73.6448
 20
1194.08
 11
74.0451
 21
1194.56
  0
LINE
  8
0
 10
74.0451
 20
1194.56
 11
74.3815
 21
1195.09
  0
LINE
  8
0
 10
74.3815
 20
1195.09
 11
74.6489
 21
1195.66
  0
LINE
  8
0
 10
74.6489
 20
1195.66
 11
74.8429
 21
1196.26
  0
LINE
  8
0
 10
74.8429
 20
1196.26
 11
74.9606
 21
1196.87
  0
LINE
  8
0
 10
74.9606
 20
1196.87
 11
75
 21
1197.5
  0
LINE
  8
0
 10
75
 20
1197.5
 11
75
 21
1442.5
  0
LINE
  8
0
 10
75
 20
1442.5
 11
74.9606
 21
1443.13
  0
LINE
  8
0
 10
74.9606
 20
1443.13
 11
74.8429
 21
1443.74
  0
LINE
  8
0
 10
74.8429
 20
1443.74
 11
74.6489
 21
1444.34
  0
LINE
  8
0
 10
74.6489
 20
1444.34
 11
74.3815
 21
1444.91
  0
LINE
  8
0
 10
74.3815
 20
1444.91
 11
74.0451
 21
1445.44
  0
LINE
  8
0
 10
74.0451
 20
1445.44
 11
73.6448
 21
1445.92
  0
LINE
  8
0
 10
73.6448
 20
1445.92
 11
73.1871
 21
1446.35
  0
LINE
  8
0
 10
73.1871
 20
1446.35
 11
72.6791
 21
1446.72
  0
LINE
  8
0
 10
72.6791
 20
1446.72
 11
72.1289
 21
1447.02
  0
LINE
  8
0
 10
72.1289
 20
1447.02
 11
71.5451
 21
1447.26
  0
LINE
  8
0
 10
71.5451
 20
1447.26
 11
70.9369
 21
1447.41
  0
LINE
  8
0
 10
70.9369
 20
1447.41
 11
70.3139
 21
1447.49
  0
LINE
  8
0
 10
70.3139
 20
1447.49
 11
-70.3139
 21
1447.49
  0
LINE
  8
0
 10
-70.3139
 20
1447.49
 11
-70.9369
 21
1447.41
  0
LINE
  8
0
 10
-70.9369
 20
1447.41
 11
-71.5451
 21
1447.26
  0
LINE
  8
0
 10
-71.5451
 20
1447.26
 11
-72.1289
 21
1447.02
  0
LINE
  8
0
 10
-72.1289
 20
1447.02
 11
-72.6791
 21
1446.72
  0
LINE
  8
0
 10
-72.6791
 20
1446.72
 11
-73.1871
 21
1446.35
  0
LINE
  8
0
 10
-73.1871
 20
1446.35
 11
-73.6448
 21
1445.92
  0
LINE
  8
0
 10
-73.6448
 20
1445.92
 11
-74.0451
 21
1445.44
  0
LINE
  8
0
 10
-74.0451
 20
1445.44
 11
-74.3815
 21
1444.91
  0
LINE
  8
0
 10
-74.3815
 20
1444.91
 11
-74.6489
 21
1444.34
  0
LINE
  8
0
 10
-74.6489
 20
1444.34
 11
-74.8429
 21
1443.74
  0
LINE
  8
0
 10
-74.8429
 20
1443.74
 11
-74.9606
 21
1443.13
  0
LINE
  8
0
 10
-74.9606
 20
1443.13
 11
-75
 21
1442.5
  0
LINE
  8
0
 10
-75
 20
1442.5
 11
-75
 21
1197.5
  0
LINE
  8
0
 10
-75
 20
1197.5
 11
-74.9606
 21
1196.87
  0
LINE
  8
0
 10
-74.9606
 20
1196.87
 11
-74.8429
 21
1196.26
  0
LINE
  8
0
 10
-74.8429
 20
1196.26
 11
-74.6489
 21
1195.66
  0
LINE
  8
0
 10
-74.6489
 20
1195.66
 11
-74.3815
 21
1195.09
  0
LINE
  8
0
 10
-74.3815
 20
1195.09
 11
-74.0451
 21
1194.56
  0
LINE
  8
0
 10
-74.0451
 20
1194.56
 11
-73.6448
 21
1194.08
  0
LINE
  8
0
 10
-73.6448
 20
1194.08
 11
-73.1871
 21
1193.65
  0
LINE
  8
0
 10
-73.1871
 20
1193.65
 11
-72.6791
 21
1193.28
  0
LINE
  8
0
 10
-72.6791
 20
1193.28
 11
-72.1289
 21
1192.98
  0
LINE
  8
0
 10
-72.1289
 20
1192.98
 11
-71.5451
 21
1192.74
  0
LINE
  8
0
 10
-71.5451
 20
1192.74
 11
-70.9369
 21
1192.59
  0
LINE
  8
0
 10
-70.9369
 20
1192.59
 11
-70.3139
 21
1192.51
  0
LINE
  8
0
 10
-70.3139
 20
1192.51
 11
70.3139
 21
1192.51
  0
LINE
  8
0
 10
70.3139
 20
1192.51
 11
70.9369
 21
1192.59
  0
LINE
  8
0
 10
67.3659
 20
1437.87
 11
67.0999
 21
1437.9
  0
LINE
  8
0
 10
67.0999
 20
1437.9
 11
66.8401
 21
1437.97
  0
LINE
  8
0
 10
66.8401
 20
1437.97
 11
66.5908
 21
1438.07
  0
LINE
  8
0
 10
66.5908
 20
1438.07
 11
66.3559
 21
1438.2
  0
LINE
  8
0
 10
66.3559
 20
1438.2
 11
66.1389
 21
1438.35
  0
LINE
  8
0
 10
66.1389
 20
1438.35
 11
65.9434
 21
1438.54
  0
LINE
  8
0
 10
65.9434
 20
1438.54
 11
65.7725
 21
1438.74
  0
LINE
  8
0
 10
65.7725
 20
1438.74
 11
65.6288
 21
1438.97
  0
LINE
  8
0
 10
65.6288
 20
1438.97
 11
65.5146
 21
1439.21
  0
LINE
  8
0
 10
65.5146
 20
1439.21
 11
65.4318
 21
1439.47
  0
LINE
  8
0
 10
65.4318
 20
1439.47
 11
65.3815
 21
1439.73
  0
LINE
  8
0
 10
65.3815
 20
1439.73
 11
65.3647
 21
1440
  0
LINE
  8
0
 10
65.3647
 20
1440
 11
65.3815
 21
1440.27
  0
LINE
  8
0
 10
65.3815
 20
1440.27
 11
65.4318
 21
1440.53
  0
LINE
  8
0
 10
65.4318
 20
1440.53
 11
65.5146
 21
1440.79
  0
LINE
  8
0
 10
65.5146
 20
1440.79
 11
65.6288
 21
1441.03
  0
LINE
  8
0
 10
65.6288
 20
1441.03
 11
65.7725
 21
1441.26
  0
LINE
  8
0
 10
65.7725
 20
1441.26
 11
65.9434
 21
1441.46
  0
LINE
  8
0
 10
65.9434
 20
1441.46
 11
66.1389
 21
1441.65
  0
LINE
  8
0
 10
66.1389
 20
1441.65
 11
66.3559
 21
1441.8
  0
LINE
  8
0
 10
66.3559
 20
1441.8
 11
66.5908
 21
1441.93
  0
LINE
  8
0
 10
66.5908
 20
1441.93
 11
66.8401
 21
1442.03
  0
LINE
  8
0
 10
66.8401
 20
1442.03
 11
67.0999
 21
1442.1
  0
LINE
  8
0
 10
67.0999
 20
1442.1
 11
67.3659
 21
1442.13
  0
LINE
  8
0
 10
67.3659
 20
1442.13
 11
67.6341
 21
1442.13
  0
LINE
  8
0
 10
67.6341
 20
1442.13
 11
67.9001
 21
1442.1
  0
LINE
  8
0
 10
67.9001
 20
1442.1
 11
68.1598
 21
1442.03
  0
LINE
  8
0
 10
68.1598
 20
1442.03
 11
68.4092
 21
1441.93
  0
LINE
  8
0
 10
68.4092
 20
1441.93
 11
68.6441
 21
1441.8
  0
LINE
  8
0
 10
68.6441
 20
1441.8
 11
68.8611
 21
1441.65
  0
LINE
  8
0
 10
68.8611
 20
1441.65
 11
69.0566
 21
1441.46
  0
LINE
  8
0
 10
69.0566
 20
1441.46
 11
69.2275
 21
1441.26
  0
LINE
  8
0
 10
69.2275
 20
1441.26
 11
69.3712
 21
1441.03
  0
LINE
  8
0
 10
69.3712
 20
1441.03
 11
69.4853
 21
1440.79
  0
LINE
  8
0
 10
69.4853
 20
1440.79
 11
69.5682
 21
1440.53
  0
LINE
  8
0
 10
69.5682
 20
1440.53
 11
69.6185
 21
1440.27
  0
LINE
  8
0
 10
69.6185
 20
1440.27
 11
69.6353
 21
1440
  0
LINE
  8
0
 10
69.6353
 20
1440
 11
69.6185
 21
1439.73
  0
LINE
  8
0
 10
69.6185
 20
1439.73
 11
69.5682
 21
1439.47
  0
LINE
  8
0
 10
69.5682
 20
1439.47
 11
69.4853
 21
1439.21
  0
LINE
  8
0
 10
69.4853
 20
1439.21
 11
69.3712
 21
1438.97
  0
LINE
  8
0
 10
69.3712
 20
1438.97
 11
69.2275
 21
1438.74
  0
LINE
  8
0
 10
69.2275
 20
1438.74
 11
69.0566
 21
1438.54
  0
LINE
  8
0
 10
69.0566
 20
1438.54
 11
68.8611
 21
1438.35
  0
LINE
  8
0
 10
68.8611
 20
1438.35
 11
68.6441
 21
1438.2
  0
LINE
  8
0
 10
68.6441
 20
1438.2
 11
68.4092
 21
1438.07
  0
LINE
  8
0
 10
68.4092
 20
1438.07
 11
68.1598
 21
1437.97
  0
LINE
  8
0
 10
68.1598
 20
1437.97
 11
67.9001
 21
1437.9
  0
LINE
  8
0
 10
67.9001
 20
1437.9
 11
67.6341
 21
1437.87
  0
LINE
  8
0
 10
67.6341
 20
1437.87
 11
67.3659
 21
1437.87
  0
LINE
  8
0
 10
-67.6341
 20
1437.87
 11
-67.9001
 21
1437.9
  0
LINE
  8
0
 10
-67.9001
 20
1437.9
 11
-68.1598
 21
1437.97
  0
LINE
  8
0
 10
-68.1598
 20
1437.97
 11
-68.4092
 21
1438.07
  0
LINE
  8
0
 10
-68.4092
 20
1438.07
 11
-68.6441
 21
1438.2
  0
LINE
  8
0
 10
-68.6441
 20
1438.2
 11
-68.8611
 21
1438.35
  0
LINE
  8
0
 10
-68.8611
 20
1438.35
 11
-69.0566
 21
1438.54
  0
LINE
  8
0
 10
-69.0566
 20
1438.54
 11
-69.2275
 21
1438.74
  0
LINE
  8
0
 10
-69.2275
 20
1438.74
 11
-69.3712
 21
1438.97
  0
LINE
  8
0
 10
-69.3712
 20
1438.97
 11
-69.4853
 21
1439.21
  0
LINE
  8
0
 10
-69.4853
 20
1439.21
 11
-69.5682
 21
1439.47
  0
LINE
  8
0
 10
-69.5682
 20
1439.47
 11
-69.6185
 21
1439.73
  0
LINE
  8
0
 10
-69.6185
 20
1439.73
 11
-69.6353
 21
1440
  0
LINE
  8
0
 10
-69.6353
 20
1440
 11
-69.6185
 21
1440.27
  0
LINE
  8
0
 10
-69.6185
 20
1440.27
 11
-69.5682
 21
1440.53
  0
LINE
  8
0
 10
-69.5682
 20
1440.53
 11
-69.4853
 21
1440.79
  0
LINE
  8
0
 10
-69.4853
 20
1440.79
 11
-69.3712
 21
1441.03
  0
LINE
  8
0
 10
-69.3712
 20
1441.03
 11
-69.2275
 21
1441.26
  0
LINE
  8
0
 10
-69.2275
 20
1441.26
 11
-69.0566
 21
1441.46
  0
LINE
  8
0
 10
-69.0566
 20
1441.46
 11
-68.8611
 21
1441.65
  0
LINE
  8
0
 10
-68.8611
 20
1441.65
 11
-68.6441
 21
1441.8
  0
LINE
  8
0
 10
-68.6441
 20
1441.8
 11
-68.4092
 21
1441.93
  0
LINE
  8
0
 10
-68.4092
 20
1441.93
 11
-68.1598
 21
1442.03
  0
LINE
  8
0
 10
-68.1598
 20
1442.03
 11
-67.9001
 21
1442.1
  0
LINE
  8
0
 10
-67.9001
 20
1442.1
 11
-67.6341
 21
1442.13
  0
LINE
  8
0
 10
-67.6341
 20
1442.13
 11
-67.3659
 21
1442.13
  0
LINE
  8
0
 10
-67.3659
 20
1442.13
 11
-67.0999
 21
1442.1
  0
LINE
  8
0
 10
-67.0999
 20
1442.1
 11
-66.8401
 21
1442.03
  0
LINE
  8
0
 10
-66.8401
 20
1442.03
 11
-66.5908
 21
1441.93
  0
LINE
  8
0
 10
-66.5908
 20
1441.93
 11
-66.3559
 21
1441.8
  0
LINE
  8
0
 10
-66.3559
 20
1441.8
 11
-66.1389
 21
1441.65
  0
LINE
  8
0
 10
-66.1389
 20
1441.65
 11
-65.9434
 21
1441.46
  0
LINE
  8
0
 10
-65.9434
 20
1441.46
 11
-65.7725
 21
1441.26
  0
LINE
  8
0
 10
-65.7725
 20
1441.26
 11
-65.6288
 21
1441.03
  0
LINE
  8
0
 10
-65.6288
 20
1441.03
 11
-65.5146
 21
1440.79
  0
LINE
  8
0
 10
-65.5146
 20
1440.79
 11
-65.4318
 21
1440.53
  0
LINE
  8
0
 10
-65.4318
 20
1440.53
 11
-65.3815
 21
1440.27
  0
LINE
  8
0
 10
-65.3815
 20
1440.27
 11
-65.3647
 21
1440
  0
LINE
  8
0
 10
-65.3647
 20
1440
 11
-65.3815
 21
1439.73
  0
LINE
  8
0
 10
-65.3815
 20
1439.73
 11
-65.4318
 21
1439.47
  0
LINE
  8
0
 10
-65.4318
 20
1439.47
 11
-65.5146
 21
1439.21
  0
LINE
  8
0
 10
-65.5146
 20
1439.21
 11
-65.6288
 21
1438.97
  0
LINE
  8
0
 10
-65.6288
 20
1438.97
 11
-65.7725
 21
1438.74
  0
LINE
  8
0
 10
-65.7725
 20
1438.74
 11
-65.9434
 21
1438.54
  0
LINE
  8
0
 10
-65.9434
 20
1438.54
 11
-66.1389
 21
1438.35
  0
LINE
  8
0
 10
-66.1389
 20
1438.35
 11
-66.3559
 21
1438.2
  0
LINE
  8
0
 10
-66.3559
 20
1438.2
 11
-66.5908
 21
1438.07
  0
LINE
  8
0
 10
-66.5908
 20
1438.07
 11
-66.8401
 21
1437.97
  0
LINE
  8
0
 10
-66.8401
 20
1437.97
 11
-67.0999
 21
1437.9
  0
LINE
  8
0
 10
-67.0999
 20
1437.9
 11
-67.3659
 21
1437.87
  0
LINE
  8
0
 10
-67.3659
 20
1437.87
 11
-67.6341
 21
1437.87
  0
LINE
  8
0
 10
67.3659
 20
1197.87
 11
67.0999
 21
1197.9
  0
LINE
  8
0
 10
67.0999
 20
1197.9
 11
66.8401
 21
1197.97
  0
LINE
  8
0
 10
66.8401
 20
1197.97
 11
66.5908
 21
1198.07
  0
LINE
  8
0
 10
66.5908
 20
1198.07
 11
66.3559
 21
1198.2
  0
LINE
  8
0
 10
66.3559
 20
1198.2
 11
66.1389
 21
1198.35
  0
LINE
  8
0
 10
66.1389
 20
1198.35
 11
65.9434
 21
1198.54
  0
LINE
  8
0
 10
65.9434
 20
1198.54
 11
65.7725
 21
1198.74
  0
LINE
  8
0
 10
65.7725
 20
1198.74
 11
65.6288
 21
1198.97
  0
LINE
  8
0
 10
65.6288
 20
1198.97
 11
65.5146
 21
1199.21
  0
LINE
  8
0
 10
65.5146
 20
1199.21
 11
65.4318
 21
1199.47
  0
LINE
  8
0
 10
65.4318
 20
1199.47
 11
65.3815
 21
1199.73
  0
LINE
  8
0
 10
65.3815
 20
1199.73
 11
65.3647
 21
1200
  0
LINE
  8
0
 10
65.3647
 20
1200
 11
65.3815
 21
1200.27
  0
LINE
  8
0
 10
65.3815
 20
1200.27
 11
65.4318
 21
1200.53
  0
LINE
  8
0
 10
65.4318
 20
1200.53
 11
65.5146
 21
1200.79
  0
LINE
  8
0
 10
65.5146
 20
1200.79
 11
65.6288
 21
1201.03
  0
LINE
  8
0
 10
65.6288
 20
1201.03
 11
65.7725
 21
1201.26
  0
LINE
  8
0
 10
65.7725
 20
1201.26
 11
65.9434
 21
1201.46
  0
LINE
  8
0
 10
65.9434
 20
1201.46
 11
66.1389
 21
1201.65
  0
LINE
  8
0
 10
66.1389
 20
1201.65
 11
66.3559
 21
1201.8
  0
LINE
  8
0
 10
66.3559
 20
1201.8
 11
66.5908
 21
1201.93
  0
LINE
  8
0
 10
66.5908
 20
1201.93
 11
66.8401
 21
1202.03
  0
LINE
  8
0
 10
66.8401
 20
1202.03
 11
67.0999
 21
1202.1
  0
LINE
  8
0
 10
67.0999
 20
1202.1
 11
67.3659
 21
1202.13
  0
LINE
  8
0
 10
67.3659
 20
1202.13
 11
67.6341
 21
1202.13
  0
LINE
  8
0
 10
67.6341
 20
1202.13
 11
67.9001
 21
1202.1
  0
LINE
  8
0
 10
67.9001
 20
1202.1
 11
68.1598
 21
1202.03
  0
LINE
  8
0
 10
68.1598
 20
1202.03
 11
68.4092
 21
1201.93
  0
LINE
  8
0
 10
68.4092
 20
1201.93
 11
68.6441
 21
1201.8
  0
LINE
  8
0
 10
68.6441
 20
1201.8
 11
68.8611
 21
1201.65
  0
LINE
  8
0
 10
68.8611
 20
1201.65
 11
69.0566
 21
1201.46
  0
LINE
  8
0
 10
69.0566
 20
1201.46
 11
69.2275
 21
1201.26
  0
LINE
  8
0
 10
69.2275
 20
1201.26
 11
69.3712
 21
1201.03
  0
LINE
  8
0
 10
69.3712
 20
1201.03
 11
69.4853
 21
1200.79
  0
LINE
  8
0
 10
69.4853
 20
1200.79
 11
69.5682
 21
1200.53
  0
LINE
  8
0
 10
69.5682
 20
1200.53
 11
69.6185
 21
1200.27
  0
LINE
  8
0
 10
69.6185
 20
1200.27
 11
69.6353
 21
1200
  0
LINE
  8
0
 10
69.6353
 20
1200
 11
69.6185
 21
1199.73
  0
LINE
  8
0
 10
69.6185
 20
1199.73
 11
69.5682
 21
1199.47
  0
LINE
  8
0
 10
69.5682
 20
1199.47
 11
69.4853
 21
1199.21
  0
LINE
  8
0
 10
69.4853
 20
1199.21
 11
69.3712
 21
1198.97
  0
LINE
  8
0
 10
69.3712
 20
1198.97
 11
69.2275
 21
1198.74
  0
LINE
  8
0
 10
69.2275
 20
1198.74
 11
69.0566
 21
1198.54
  0
LINE
  8
0
 10
69.0566
 20
1198.54
 11
68.8611
 21
1198.35
  0
LINE
  8
0
 10
68.8611
 20
1198.35
 11
68.6441
 21
1198.2
  0
LINE
  8
0
 10
68.6441
 20
1198.2
 11
68.4092
 21
1198.07
  0
LINE
  8
0
 10
68.4092
 20
1198.07
 11
68.1598
 21
1197.97
  0
LINE
  8
0
 10
68.1598
 20
1197.97
 11
67.9001
 21
1197.9
  0
LINE
  8
0
 10
67.9001
 20
1197.9
 11
67.6341
 21
1197.87
  0
LINE
  8
0
 10
67.6341
 20
1197.87
 11
67.3659
 21
1197.87
  0
LINE
  8
0
 10
-67.6341
 20
1197.87
 11
-67.9001
 21
1197.9
  0
LINE
  8
0
 10
-67.9001
 20
1197.9
 11
-68.1598
 21
1197.97
  0
LINE
  8
0
 10
-68.1598
 20
1197.97
 11
-68.4092
 21
1198.07
  0
LINE
  8
0
 10
-68.4092
 20
1198.07
 11
-68.6441
 21
1198.2
  0
LINE
  8
0
 10
-68.6441
 20
1198.2
 11
-68.8611
 21
1198.35
  0
LINE
  8
0
 10
-68.8611
 20
1198.35
 11
-69.0566
 21
1198.54
  0
LINE
  8
0
 10
-69.0566
 20
1198.54
 11
-69.2275
 21
1198.74
  0
LINE
  8
0
 10
-69.2275
 20
1198.74
 11
-69.3712
 21
1198.97
  0
LINE
  8
0
 10
-69.3712
 20
1198.97
 11
-69.4853
 21
1199.21
  0
LINE
  8
0
 10
-69.4853
 20
1199.21
 11
-69.5682
 21
1199.47
  0
LINE
  8
0
 10
-69.5682
 20
1199.47
 11
-69.6185
 21
1199.73
  0
LINE
  8
0
 10
-69.6185
 20
1199.73
 11
-69.6353
 21
1200
  0
LINE
  8
0
 10
-69.6353
 20
1200
 11
-69.6185
 21
1200.27
  0
LINE
  8
0
 10
-69.6185
 20
1200.27
 11
-69.5682
 21
1200.53
  0
LINE
  8
0
 10
-69.5682
 20
1200.53
 11
-69.4853
 21
1200.79
  0
LINE
  8
0
 10
-69.4853
 20
1200.79
 11
-69.3712
 21
1201.03
  0
LINE
  8
0
 10
-69.3712
 20
1201.03
 11
-69.2275
 21
1201.26
  0
LINE
  8
0
 10
-69.2275
 20
1201.26
 11
-69.0566
 21
1201.46
  0
LINE
  8
0
 10
-69.0566
 20
1201.46
 11
-68.8611
 21
1201.65
  0
LINE
  8
0
 10
-68.8611
 20
1201.65
 11
-68.6441
 21
1201.8
  0
LINE
  8
0
 10
-68.6441
 20
1201.8
 11
-68.4092
 21
1201.93
  0
LINE
  8
0
 10
-68.4092
 20
1201.93
 11
-68.1598
 21
1202.03
  0
LINE
  8
0
 10
-68.1598
 20
1202.03
 11
-67.9001
 21
1202.1
  0
LINE
  8
0
 10
-67.9001
 20
1202.1
 11
-67.6341
 21
1202.13
  0
LINE
  8
0
 10
-67.6341
 20
1202.13
 11
-67.3659
 21
1202.13
  0
LINE
  8
0
 10
-67.3659
 20
1202.13
 11
-67.0999
 21
1202.1
  0
LINE
  8
0
 10
-67.0999
 20
1202.1
 11
-66.8401
 21
1202.03
  0
LINE
  8
0
 10
-66.8401
 20
1202.03
 11
-66.5908
 21
1201.93
  0
LINE
  8
0
 10
-66.5908
 20
1201.93
 11
-66.3559
 21
1201.8
  0
LINE
  8
0
 10
-66.3559
 20
1201.8
 11
-66.1389
 21
1201.65
  0
LINE
  8
0
 10
-66.1389
 20
1201.65
 11
-65.9434
 21
1201.46
  0
LINE
  8
0
 10
-65.9434
 20
1201.46
 11
-65.7725
 21
1201.26
  0
LINE
  8
0
 10
-65.7725
 20
1201.26
 11
-65.6288
 21
1201.03
  0
LINE
  8
0
 10
-65.6288
 20
1201.03
 11
-65.5146
 21
1200.79
  0
LINE
  8
0
 10
-65.5146
 20
1200.79
 11
-65.4318
 21
1200.53
  0
LINE
  8
0
 10
-65.4318
 20
1200.53
 11
-65.3815
 21
1200.27
  0
LINE
  8
0
 10
-65.3815
 20
1200.27
 11
-65.3647
 21
1200
  0
LINE
  8
0
 10
-65.3647
 20
1200
 11
-65.3815
 21
1199.73
  0
LINE
  8
0
 10
-65.3815
 20
1199.73
 11
-65.4318
 21
1199.47
  0
LINE
  8
0
 10
-65.4318
 20
1199.47
 11
-65.5146
 21
1199.21
  0
LINE
  8
0
 10
-65.5146
 20
1199.21
 11
-65.6288
 21
1198.97
  0
LINE
  8
0
 10
-65.6288
 20
1198.97
 11
-65.7725
 21
1198.74
  0
LINE
  8
0
 10
-65.7725
 20
1198.74
 11
-65.9434
 21
1198.54
  0
LINE
  8
0
 10
-65.9434
 20
1198.54
 11
-66.1389
 21
1198.35
  0
LINE
  8
0
 10
-66.1389
 20
1198.35
 11
-66.3559
 21
1198.2
  0
LINE
  8
0
 10
-66.3559
 20
1198.2
 11
-66.5908
 21
1198.07
  0
LINE
  8
0
 10
-66.5908
 20
1198.07
 11
-66.8401
 21
1197.97
  0
LINE
  8
0
 10
-66.8401
 20
1197.97
 11
-67.0999
 21
1197.9
  0
LINE
  8
0
 10
-67.0999
 20
1197.9
 11
-67.3659
 21
1197.87
  0
LINE
  8
0
 10
-67.3659
 20
1197.87
 11
-67.6341
 21
1197.87
  0
ENDSEC
  0
SECTION
  2
OBJECTS
  0
DICTIONARY
  0
ENDSEC
  0
EOF
