<?xml version="1.0" standalone="no"?>
<!DOCTYPE svg PUBLIC "-//W3C//DTD SVG 1.1//EN" "http://www.w3.org/Graphics/SVG/1.1/DTD/svg11.dtd">
<svg width="180mm" height="160mm" viewBox="-90 -290 180 160" xmlns="http://www.w3.org/2000/svg" version="1.1">
<title>OpenSCAD Model</title>
<path d="
M 85.9369,-214.589 L 86.5451,-214.745 L 87.1289,-214.976 L 87.6791,-215.278 L 88.1871,-215.647 L 88.6448,-216.077
 L 89.0451,-216.561 L 89.3815,-217.091 L 89.6489,-217.659 L 89.8429,-218.257 L 89.9606,-218.873 L 90,-219.5
 L 90,-284.5 L 89.9606,-285.127 L 89.8429,-285.743 L 89.6489,-286.341 L 89.3815,-286.909 L 89.0451,-287.439
 L 88.6448,-287.923 L 88.1871,-288.353 L 87.6791,-288.722 L 87.1289,-289.024 L 86.5451,-289.255 L 85.9369,-289.411
 L 85.3139,-289.49 L -85.3139,-289.49 L -85.9369,-289.411 L -86.5451,-289.255 L -87.1289,-289.024 L -87.6791,-288.722
 L -88.1871,-288.353 L -88.6448,-287.923 L -89.0451,-287.439 L -89.3815,-286.909 L -89.6489,-286.341 L -89.8429,-285.743
 L -89.9606,-285.127 L -90,-284.5 L -90,-219.5 L -89.9606,-218.873 L -89.8429,-218.257 L -89.6489,-217.659
 L -89.3815,-217.091 L -89.0451,-216.561 L -88.6448,-216.077 L -88.1871,-215.647 L -87.6791,-215.278 L -87.1289,-214.976
 L -86.5451,-214.745 L -85.9369,-214.589 L -85.3139,-214.51 L 85.3139,-214.51 z
M -85.0375,-215.181 L -85.6079,-215.253 L -86.1648,-215.396 L -86.6994,-215.607 L -87.2032,-215.884 L -87.6684,-216.222
 L -88.0875,-216.616 L -88.454,-217.059 L -88.7621,-217.544 L -89.0069,-218.065 L -89.1846,-218.611 L -89.2923,-219.176
 L -89.3284,-219.75 L -89.3284,-284.25 L -89.2923,-284.824 L -89.1846,-285.389 L -89.0069,-285.935 L -88.7621,-286.456
 L -88.454,-286.941 L -88.0875,-287.384 L -87.6684,-287.778 L -87.2032,-288.116 L -86.6994,-288.393 L -86.1648,-288.604
 L -85.6079,-288.747 L -85.0375,-288.819 L 85.0375,-288.819 L 85.6079,-288.747 L 86.1648,-288.604 L 86.6994,-288.393
 L 87.2032,-288.116 L 87.6684,-287.778 L 88.0875,-287.384 L 88.454,-286.941 L 88.7621,-286.456 L 89.0069,-285.935
 L 89.1846,-285.389 L 89.2923,-284.824 L 89.3284,-284.25 L 89.3284,-219.75 L 89.2923,-219.176 L 89.1846,-218.611
 L 89.0069,-218.065 L 88.7621,-217.544 L 88.454,-217.059 L 88.0875,-216.616 L 87.6684,-216.222 L 87.2032,-215.884
 L 86.6994,-215.607 L 86.1648,-215.396 L 85.6079,-215.253 L 85.0375,-215.181 z
M 85.9369,-130.589 L 86.5451,-130.745 L 87.1289,-130.976 L 87.6791,-131.278 L 88.1871,-131.647 L 88.6448,-132.077
 L 89.0451,-132.561 L 89.3815,-133.091 L 89.6489,-133.659 L 89.8429,-134.257 L 89.9606,-134.873 L 90,-135.5
 L 90,-200.5 L 89.9606,-201.127 L 89.8429,-201.743 L 89.6489,-202.341 L 89.3815,-202.909 L 89.0451,-203.439
 L 88.6448,-203.923 L 88.1871,-204.353 L 87.6791,-204.722 L 87.1289,-205.024 L 86.5451,-205.255 L 85.9369,-205.411
 L 85.3139,-205.49 L -85.3139,-205.49 L -85.9369,-205.411 L -86.5451,-205.255 L -87.1289,-205.024 L -87.6791,-204.722
 L -88.1871,-204.353 L -88.6448,-203.923 L -89.0451,-203.439 L -89.3815,-202.909 L -89.6489,-202.341 L -89.8429,-201.743
 L -89.9606,-201.127 L -90,-200.5 L -90,-135.5 L -89.9606,-134.873 L -89.8429,-134.257 L -89.6489,-133.659
 L -89.3815,-133.091 L -89.0451,-132.561 L -88.6448,-132.077 L -88.1871,-131.647 L -87.6791,-131.278 L -87.1289,-130.976
 L -86.5451,-130.745 L -85.9369,-130.589 L -85.3139,-130.51 L 85.3139,-130.51 z
M -84.8825,-133.645 L -85.1453,-133.678 L -85.4019,-133.744 L -85.6482,-133.841 L -85.8804,-133.969 L -86.0947,-134.125
 L -86.2879,-134.306 L -86.4567,-134.51 L -86.5987,-134.734 L -86.7115,-134.973 L -86.7934,-135.225 L -86.843,-135.486
 L -86.8596,-135.75 L -86.8596,-200.25 L -86.843,-200.514 L -86.7934,-200.775 L -86.7115,-201.027 L -86.5987,-201.266
 L -86.4567,-201.49 L -86.2879,-201.694 L -86.0947,-201.875 L -85.8804,-202.031 L -85.6482,-202.159 L -85.4019,-202.256
 L -85.1453,-202.322 L -84.8825,-202.355 L 84.8825,-202.355 L 85.1453,-202.322 L 85.4019,-202.256 L 85.6482,-202.159
 L 85.8804,-202.031 L 86.0947,-201.875 L 86.2879,-201.694 L 86.4567,-201.49 L 86.5987,-201.266 L 86.7115,-201.027
 L 86.7934,-200.775 L 86.843,-200.514 L 86.8596,-200.25 L 86.8596,-135.75 L 86.843,-135.486 L 86.7934,-135.225
 L 86.7115,-134.973 L 86.5987,-134.734 L 86.4567,-134.51 L 86.2879,-134.306 L 86.0947,-134.125 L 85.8804,-133.969
 L 85.6482,-133.841 L 85.4019,-133.744 L 85.1453,-133.678 L 84.8825,-133.645 z
" stroke="black" fill="lightgray" stroke-width="0.5"/>
</svg>
