<?xml version="1.0" standalone="no"?>
<!DOCTYPE svg PUBLIC "-//W3C//DTD SVG 1.1//EN" "http://www.w3.org/Graphics/SVG/1.1/DTD/svg11.dtd">
<svg width="120mm" height="1536mm" viewBox="-60 -2622 120 1536" xmlns="http://www.w3.org/2000/svg" version="1.1">
<title>OpenSCAD Model</title>
<path d="
M 55.9369,-2322.09 L 56.5451,-2322.24 L 57.1289,-2322.48 L 57.6791,-2322.78 L 58.1871,-2323.15 L 58.6448,-2323.58
 L 59.0451,-2324.06 L 59.3815,-2324.59 L 59.6489,-2325.16 L 59.8429,-2325.76 L 59.9606,-2326.37 L 60,-2327
 L 60,-2617 L 59.9606,-2617.63 L 59.8429,-2618.24 L 59.6489,-2618.84 L 59.3815,-2619.41 L 59.0451,-2619.94
 L 58.6448,-2620.42 L 58.1871,-2620.85 L 57.6791,-2621.22 L 57.1289,-2621.52 L 56.5451,-2621.76 L 55.9369,-2621.91
 L 55.3139,-2621.99 L -55.3139,-2621.99 L -55.9369,-2621.91 L -56.5451,-2621.76 L -57.1289,-2621.52 L -57.6791,-2621.22
 L -58.1871,-2620.85 L -58.6448,-2620.42 L -59.0451,-2619.94 L -59.3815,-2619.41 L -59.6489,-2618.84 L -59.8429,-2618.24
 L -59.9606,-2617.63 L -60,-2617 L -60,-2327 L -59.9606,-2326.37 L -59.8429,-2325.76 L -59.6489,-2325.16
 L -59.3815,-2324.59 L -59.0451,-2324.06 L -58.6448,-2323.58 L -58.1871,-2323.15 L -57.6791,-2322.78 L -57.1289,-2322.48
 L -56.5451,-2322.24 L -55.9369,-2322.09 L -55.3139,-2322.01 L 55.3139,-2322.01 z
M -54.7512,-2323.51 L -55.2495,-2323.57 L -55.7361,-2323.7 L -56.2031,-2323.88 L -56.6433,-2324.12 L -57.0497,-2324.42
 L -57.4159,-2324.76 L -57.7361,-2325.15 L -58.0052,-2325.57 L -58.2191,-2326.03 L -58.3743,-2326.51 L -58.4685,-2327
 L -58.5,-2327.5 L -58.5,-2616.5 L -58.4685,-2617 L -58.3743,-2617.49 L -58.2191,-2617.97 L -58.0052,-2618.43
 L -57.7361,-2618.85 L -57.4159,-2619.24 L -57.0497,-2619.58 L -56.6433,-2619.88 L -56.2031,-2620.12 L -55.7361,-2620.3
 L -55.2495,-2620.43 L -54.7512,-2620.49 L 54.7512,-2620.49 L 55.2495,-2620.43 L 55.7361,-2620.3 L 56.2031,-2620.12
 L 56.6433,-2619.88 L 57.0497,-2619.58 L 57.4159,-2619.24 L 57.7361,-2618.85 L 58.0052,-2618.43 L 58.2191,-2617.97
 L 58.3743,-2617.49 L 58.4685,-2617 L 58.5,-2616.5 L 58.5,-2327.5 L 58.4685,-2327 L 58.3743,-2326.51
 L 58.2191,-2326.03 L 58.0052,-2325.57 L 57.7361,-2325.15 L 57.4159,-2324.76 L 57.0497,-2324.42 L 56.6433,-2324.12
 L 56.2031,-2323.88 L 55.7361,-2323.7 L 55.2495,-2323.57 L 54.7512,-2323.51 z
M 55.9369,-2013.09 L 56.5451,-2013.24 L 57.1289,-2013.48 L 57.6791,-2013.78 L 58.1871,-2014.15 L 58.6448,-2014.58
 L 59.0451,-2015.06 L 59.3815,-2015.59 L 59.6489,-2016.16 L 59.8429,-2016.76 L 59.9606,-2017.37 L 60,-2018
 L 60,-2308 L 59.9606,-2308.63 L 59.8429,-2309.24 L 59.6489,-2309.84 L 59.3815,-2310.41 L 59.0451,-2310.94
 L 58.6448,-2311.42 L 58.1871,-2311.85 L 57.6791,-2312.22 L 57.1289,-2312.52 L 56.5451,-2312.76 L 55.9369,-2312.91
 L 55.3139,-2312.99 L -55.3139,-2312.99 L -55.9369,-2312.91 L -56.5451,-2312.76 L -57.1289,-2312.52 L -57.6791,-2312.22
 L -58.1871,-2311.85 L -58.6448,-2311.42 L -59.0451,-2310.94 L -59.3815,-2310.41 L -59.6489,-2309.84 L -59.8429,-2309.24
 L -59.9606,-2308.63 L -60,-2308 L -60,-2018 L -59.9606,-2017.37 L -59.8429,-2016.76 L -59.6489,-2016.16
 L -59.3815,-2015.59 L -59.0451,-2015.06 L -58.6448,-2014.58 L -58.1871,-2014.15 L -57.6791,-2013.78 L -57.1289,-2013.48
 L -56.5451,-2013.24 L -55.9369,-2013.09 L -55.3139,-2013.01 L 55.3139,-2013.01 z
M -54.7512,-2014.51 L -55.2495,-2014.57 L -55.7361,-2014.7 L -56.2031,-2014.88 L -56.6433,-2015.12 L -57.0497,-2015.42
 L -57.4159,-2015.76 L -57.7361,-2016.15 L -58.0052,-2016.57 L -58.2191,-2017.03 L -58.3743,-2017.51 L -58.4685,-2018
 L -58.5,-2018.5 L -58.5,-2307.5 L -58.4685,-2308 L -58.3743,-2308.49 L -58.2191,-2308.97 L -58.0052,-2309.43
 L -57.7361,-2309.85 L -57.4159,-2310.24 L -57.0497,-2310.58 L -56.6433,-2310.88 L -56.2031,-2311.12 L -55.7361,-2311.3
 L -55.2495,-2311.43 L -54.7512,-2311.49 L 54.7512,-2311.49 L 55.2495,-2311.43 L 55.7361,-2311.3 L 56.2031,-2311.12
 L 56.6433,-2310.88 L 57.0497,-2310.58 L 57.4159,-2310.24 L 57.7361,-2309.85 L 58.0052,-2309.43 L 58.2191,-2308.97
 L 58.3743,-2308.49 L 58.4685,-2308 L 58.5,-2307.5 L 58.5,-2018.5 L 58.4685,-2018 L 58.3743,-2017.51
 L 58.2191,-2017.03 L 58.0052,-2016.57 L 57.7361,-2016.15 L 57.4159,-2015.76 L 57.0497,-2015.42 L 56.6433,-2015.12
 L 56.2031,-2014.88 L 55.7361,-2014.7 L 55.2495,-2014.57 L 54.7512,-2014.51 z
M 55.9369,-1704.09 L 56.5451,-1704.24 L 57.1289,-1704.48 L 57.6791,-1704.78 L 58.1871,-1705.15 L 58.6448,-1705.58
 L 59.0451,-1706.06 L 59.3815,-1706.59 L 59.6489,-1707.16 L 59.8429,-1707.76 L 59.9606,-1708.37 L 60,-1709
 L 60,-1999 L 59.9606,-1999.63 L 59.8429,-2000.24 L 59.6489,-2000.84 L 59.3815,-2001.41 L 59.0451,-2001.94
 L 58.6448,-2002.42 L 58.1871,-2002.85 L 57.6791,-2003.22 L 57.1289,-2003.52 L 56.5451,-2003.76 L 55.9369,-2003.91
 L 55.3139,-2003.99 L -55.3139,-2003.99 L -55.9369,-2003.91 L -56.5451,-2003.76 L -57.1289,-2003.52 L -57.6791,-2003.22
 L -58.1871,-2002.85 L -58.6448,-2002.42 L -59.0451,-2001.94 L -59.3815,-2001.41 L -59.6489,-2000.84 L -59.8429,-2000.24
 L -59.9606,-1999.63 L -60,-1999 L -60,-1709 L -59.9606,-1708.37 L -59.8429,-1707.76 L -59.6489,-1707.16
 L -59.3815,-1706.59 L -59.0451,-1706.06 L -58.6448,-1705.58 L -58.1871,-1705.15 L -57.6791,-1704.78 L -57.1289,-1704.48
 L -56.5451,-1704.24 L -55.9369,-1704.09 L -55.3139,-1704.01 L 55.3139,-1704.01 z
M -54.7432,-1705.64 L -55.2256,-1705.7 L -55.6967,-1705.82 L -56.1489,-1706 L -56.5751,-1706.23 L -56.9685,-1706.52
 L -57.323,-1706.85 L -57.633,-1707.22 L -57.8936,-1707.63 L -58.1007,-1708.07 L -58.251,-1708.54 L -58.3421,-1709.01
 L -58.3726,-1709.5 L -58.3726,-1998.5 L -58.3421,-1998.99 L -58.251,-1999.46 L -58.1007,-1999.93 L -57.8936,-2000.37
 L -57.633,-2000.78 L -57.323,-2001.15 L -56.9685,-2001.48 L -56.5751,-2001.77 L -56.1489,-2002 L -55.6967,-2002.18
 L -55.2256,-2002.3 L -54.7432,-2002.36 L 54.7432,-2002.36 L 55.2256,-2002.3 L 55.6967,-2002.18 L 56.1489,-2002
 L 56.5751,-2001.77 L 56.9685,-2001.48 L 57.323,-2001.15 L 57.633,-2000.78 L 57.8936,-2000.37 L 58.1007,-1999.93
 L 58.251,-1999.46 L 58.3421,-1998.99 L 58.3726,-1998.5 L 58.3726,-1709.5 L 58.3421,-1709.01 L 58.251,-1708.54
 L 58.1007,-1708.07 L 57.8936,-1707.63 L 57.633,-1707.22 L 57.323,-1706.85 L 56.9685,-1706.52 L 56.5751,-1706.23
 L 56.1489,-1706 L 55.6967,-1705.82 L 55.2256,-1705.7 L 54.7432,-1705.64 z
M 55.9369,-1395.09 L 56.5451,-1395.24 L 57.1289,-1395.48 L 57.6791,-1395.78 L 58.1871,-1396.15 L 58.6448,-1396.58
 L 59.0451,-1397.06 L 59.3815,-1397.59 L 59.6489,-1398.16 L 59.8429,-1398.76 L 59.9606,-1399.37 L 60,-1400
 L 60,-1690 L 59.9606,-1690.63 L 59.8429,-1691.24 L 59.6489,-1691.84 L 59.3815,-1692.41 L 59.0451,-1692.94
 L 58.6448,-1693.42 L 58.1871,-1693.85 L 57.6791,-1694.22 L 57.1289,-1694.52 L 56.5451,-1694.76 L 55.9369,-1694.91
 L 55.3139,-1694.99 L -55.3139,-1694.99 L -55.9369,-1694.91 L -56.5451,-1694.76 L -57.1289,-1694.52 L -57.6791,-1694.22
 L -58.1871,-1693.85 L -58.6448,-1693.42 L -59.0451,-1692.94 L -59.3815,-1692.41 L -59.6489,-1691.84 L -59.8429,-1691.24
 L -59.9606,-1690.63 L -60,-1690 L -60,-1400 L -59.9606,-1399.37 L -59.8429,-1398.76 L -59.6489,-1398.16
 L -59.3815,-1397.59 L -59.0451,-1397.06 L -58.6448,-1396.58 L -58.1871,-1396.15 L -57.6791,-1395.78 L -57.1289,-1395.48
 L -56.5451,-1395.24 L -55.9369,-1395.09 L -55.3139,-1395.01 L 55.3139,-1395.01 z
M 52.3493,-1685.1 L 52.0503,-1685.14 L 51.7584,-1685.22 L 51.4781,-1685.33 L 51.214,-1685.47 L 50.9702,-1685.65
 L 50.7505,-1685.86 L 50.5583,-1686.09 L 50.3969,-1686.34 L 50.2685,-1686.62 L 50.1754,-1686.9 L 50.1189,-1687.2
 L 50.1,-1687.5 L 50.1189,-1687.8 L 50.1754,-1688.1 L 50.2685,-1688.38 L 50.3969,-1688.66 L 50.5583,-1688.91
 L 50.7505,-1689.14 L 50.9702,-1689.35 L 51.214,-1689.53 L 51.4781,-1689.67 L 51.7584,-1689.78 L 52.0503,-1689.86
 L 52.3493,-1689.9 L 52.6507,-1689.9 L 52.9497,-1689.86 L 53.2416,-1689.78 L 53.5219,-1689.67 L 53.786,-1689.53
 L 54.0298,-1689.35 L 54.2495,-1689.14 L 54.4416,-1688.91 L 54.6031,-1688.66 L 54.7315,-1688.38 L 54.8246,-1688.1
 L 54.8811,-1687.8 L 54.9,-1687.5 L 54.8811,-1687.2 L 54.8246,-1686.9 L 54.7315,-1686.62 L 54.6031,-1686.34
 L 54.4416,-1686.09 L 54.2495,-1685.86 L 54.0298,-1685.65 L 53.786,-1685.47 L 53.5219,-1685.33 L 53.2416,-1685.22
 L 52.9497,-1685.14 L 52.6507,-1685.1 z
M -52.6507,-1685.1 L -52.9497,-1685.14 L -53.2416,-1685.22 L -53.5219,-1685.33 L -53.786,-1685.47 L -54.0298,-1685.65
 L -54.2495,-1685.86 L -54.4416,-1686.09 L -54.6031,-1686.34 L -54.7315,-1686.62 L -54.8246,-1686.9 L -54.8811,-1687.2
 L -54.9,-1687.5 L -54.8811,-1687.8 L -54.8246,-1688.1 L -54.7315,-1688.38 L -54.6031,-1688.66 L -54.4416,-1688.91
 L -54.2495,-1689.14 L -54.0298,-1689.35 L -53.786,-1689.53 L -53.5219,-1689.67 L -53.2416,-1689.78 L -52.9497,-1689.86
 L -52.6507,-1689.9 L -52.3493,-1689.9 L -52.0503,-1689.86 L -51.7584,-1689.78 L -51.4781,-1689.67 L -51.214,-1689.53
 L -50.9702,-1689.35 L -50.7505,-1689.14 L -50.5583,-1688.91 L -50.3969,-1688.66 L -50.2685,-1688.38 L -50.1754,-1688.1
 L -50.1189,-1687.8 L -50.1,-1687.5 L -50.1189,-1687.2 L -50.1754,-1686.9 L -50.2685,-1686.62 L -50.3969,-1686.34
 L -50.5583,-1686.09 L -50.7505,-1685.86 L -50.9702,-1685.65 L -51.214,-1685.47 L -51.4781,-1685.33 L -51.7584,-1685.22
 L -52.0503,-1685.14 L -52.3493,-1685.1 z
M 52.3493,-1400.1 L 52.0503,-1400.14 L 51.7584,-1400.22 L 51.4781,-1400.33 L 51.214,-1400.47 L 50.9702,-1400.65
 L 50.7505,-1400.86 L 50.5583,-1401.09 L 50.3969,-1401.34 L 50.2685,-1401.62 L 50.1754,-1401.9 L 50.1189,-1402.2
 L 50.1,-1402.5 L 50.1189,-1402.8 L 50.1754,-1403.1 L 50.2685,-1403.38 L 50.3969,-1403.66 L 50.5583,-1403.91
 L 50.7505,-1404.14 L 50.9702,-1404.35 L 51.214,-1404.53 L 51.4781,-1404.67 L 51.7584,-1404.78 L 52.0503,-1404.86
 L 52.3493,-1404.9 L 52.6507,-1404.9 L 52.9497,-1404.86 L 53.2416,-1404.78 L 53.5219,-1404.67 L 53.786,-1404.53
 L 54.0298,-1404.35 L 54.2495,-1404.14 L 54.4416,-1403.91 L 54.6031,-1403.66 L 54.7315,-1403.38 L 54.8246,-1403.1
 L 54.8811,-1402.8 L 54.9,-1402.5 L 54.8811,-1402.2 L 54.8246,-1401.9 L 54.7315,-1401.62 L 54.6031,-1401.34
 L 54.4416,-1401.09 L 54.2495,-1400.86 L 54.0298,-1400.65 L 53.786,-1400.47 L 53.5219,-1400.33 L 53.2416,-1400.22
 L 52.9497,-1400.14 L 52.6507,-1400.1 z
M -52.6507,-1400.1 L -52.9497,-1400.14 L -53.2416,-1400.22 L -53.5219,-1400.33 L -53.786,-1400.47 L -54.0298,-1400.65
 L -54.2495,-1400.86 L -54.4416,-1401.09 L -54.6031,-1401.34 L -54.7315,-1401.62 L -54.8246,-1401.9 L -54.8811,-1402.2
 L -54.9,-1402.5 L -54.8811,-1402.8 L -54.8246,-1403.1 L -54.7315,-1403.38 L -54.6031,-1403.66 L -54.4416,-1403.91
 L -54.2495,-1404.14 L -54.0298,-1404.35 L -53.786,-1404.53 L -53.5219,-1404.67 L -53.2416,-1404.78 L -52.9497,-1404.86
 L -52.6507,-1404.9 L -52.3493,-1404.9 L -52.0503,-1404.86 L -51.7584,-1404.78 L -51.4781,-1404.67 L -51.214,-1404.53
 L -50.9702,-1404.35 L -50.7505,-1404.14 L -50.5583,-1403.91 L -50.3969,-1403.66 L -50.2685,-1403.38 L -50.1754,-1403.1
 L -50.1189,-1402.8 L -50.1,-1402.5 L -50.1189,-1402.2 L -50.1754,-1401.9 L -50.2685,-1401.62 L -50.3969,-1401.34
 L -50.5583,-1401.09 L -50.7505,-1400.86 L -50.9702,-1400.65 L -51.214,-1400.47 L -51.4781,-1400.33 L -51.7584,-1400.22
 L -52.0503,-1400.14 L -52.3493,-1400.1 z
M 55.9369,-1086.09 L 56.5451,-1086.24 L 57.1289,-1086.48 L 57.6791,-1086.78 L 58.1871,-1087.15 L 58.6448,-1087.58
 L 59.0451,-1088.06 L 59.3815,-1088.59 L 59.6489,-1089.16 L 59.8429,-1089.76 L 59.9606,-1090.37 L 60,-1091
 L 60,-1381 L 59.9606,-1381.63 L 59.8429,-1382.24 L 59.6489,-1382.84 L 59.3815,-1383.41 L 59.0451,-1383.94
 L 58.6448,-1384.42 L 58.1871,-1384.85 L 57.6791,-1385.22 L 57.1289,-1385.52 L 56.5451,-1385.76 L 55.9369,-1385.91
 L 55.3139,-1385.99 L -55.3139,-1385.99 L -55.9369,-1385.91 L -56.5451,-1385.76 L -57.1289,-1385.52 L -57.6791,-1385.22
 L -58.1871,-1384.85 L -58.6448,-1384.42 L -59.0451,-1383.94 L -59.3815,-1383.41 L -59.6489,-1382.84 L -59.8429,-1382.24
 L -59.9606,-1381.63 L -60,-1381 L -60,-1091 L -59.9606,-1090.37 L -59.8429,-1089.76 L -59.6489,-1089.16
 L -59.3815,-1088.59 L -59.0451,-1088.06 L -58.6448,-1087.58 L -58.1871,-1087.15 L -57.6791,-1086.78 L -57.1289,-1086.48
 L -56.5451,-1086.24 L -55.9369,-1086.09 L -55.3139,-1086.01 L 55.3139,-1086.01 z
M 52.387,-1376.7 L 52.1627,-1376.73 L 51.9438,-1376.79 L 51.7336,-1376.87 L 51.5355,-1376.98 L 51.3526,-1377.11
 L 51.1879,-1377.27 L 51.0438,-1377.44 L 50.9226,-1377.63 L 50.8264,-1377.84 L 50.7565,-1378.05 L 50.7142,-1378.27
 L 50.7,-1378.5 L 50.7142,-1378.73 L 50.7565,-1378.95 L 50.8264,-1379.16 L 50.9226,-1379.37 L 51.0438,-1379.56
 L 51.1879,-1379.73 L 51.3526,-1379.89 L 51.5355,-1380.02 L 51.7336,-1380.13 L 51.9438,-1380.21 L 52.1627,-1380.27
 L 52.387,-1380.3 L 52.613,-1380.3 L 52.8373,-1380.27 L 53.0562,-1380.21 L 53.2664,-1380.13 L 53.4645,-1380.02
 L 53.6474,-1379.89 L 53.8121,-1379.73 L 53.9562,-1379.56 L 54.0773,-1379.37 L 54.1736,-1379.16 L 54.2434,-1378.95
 L 54.2858,-1378.73 L 54.3,-1378.5 L 54.2858,-1378.27 L 54.2434,-1378.05 L 54.1736,-1377.84 L 54.0773,-1377.63
 L 53.9562,-1377.44 L 53.8121,-1377.27 L 53.6474,-1377.11 L 53.4645,-1376.98 L 53.2664,-1376.87 L 53.0562,-1376.79
 L 52.8373,-1376.73 L 52.613,-1376.7 z
M -52.613,-1376.7 L -52.8373,-1376.73 L -53.0562,-1376.79 L -53.2664,-1376.87 L -53.4645,-1376.98 L -53.6474,-1377.11
 L -53.8121,-1377.27 L -53.9562,-1377.44 L -54.0773,-1377.63 L -54.1736,-1377.84 L -54.2434,-1378.05 L -54.2858,-1378.27
 L -54.3,-1378.5 L -54.2858,-1378.73 L -54.2434,-1378.95 L -54.1736,-1379.16 L -54.0773,-1379.37 L -53.9562,-1379.56
 L -53.8121,-1379.73 L -53.6474,-1379.89 L -53.4645,-1380.02 L -53.2664,-1380.13 L -53.0562,-1380.21 L -52.8373,-1380.27
 L -52.613,-1380.3 L -52.387,-1380.3 L -52.1627,-1380.27 L -51.9438,-1380.21 L -51.7336,-1380.13 L -51.5355,-1380.02
 L -51.3526,-1379.89 L -51.1879,-1379.73 L -51.0438,-1379.56 L -50.9226,-1379.37 L -50.8264,-1379.16 L -50.7565,-1378.95
 L -50.7142,-1378.73 L -50.7,-1378.5 L -50.7142,-1378.27 L -50.7565,-1378.05 L -50.8264,-1377.84 L -50.9226,-1377.63
 L -51.0438,-1377.44 L -51.1879,-1377.27 L -51.3526,-1377.11 L -51.5355,-1376.98 L -51.7336,-1376.87 L -51.9438,-1376.79
 L -52.1627,-1376.73 L -52.387,-1376.7 z
M 52.387,-1091.7 L 52.1627,-1091.73 L 51.9438,-1091.79 L 51.7336,-1091.87 L 51.5355,-1091.98 L 51.3526,-1092.11
 L 51.1879,-1092.27 L 51.0438,-1092.44 L 50.9226,-1092.63 L 50.8264,-1092.84 L 50.7565,-1093.05 L 50.7142,-1093.27
 L 50.7,-1093.5 L 50.7142,-1093.73 L 50.7565,-1093.95 L 50.8264,-1094.16 L 50.9226,-1094.37 L 51.0438,-1094.56
 L 51.1879,-1094.73 L 51.3526,-1094.89 L 51.5355,-1095.02 L 51.7336,-1095.13 L 51.9438,-1095.21 L 52.1627,-1095.27
 L 52.387,-1095.3 L 52.613,-1095.3 L 52.8373,-1095.27 L 53.0562,-1095.21 L 53.2664,-1095.13 L 53.4645,-1095.02
 L 53.6474,-1094.89 L 53.8121,-1094.73 L 53.9562,-1094.56 L 54.0773,-1094.37 L 54.1736,-1094.16 L 54.2434,-1093.95
 L 54.2858,-1093.73 L 54.3,-1093.5 L 54.2858,-1093.27 L 54.2434,-1093.05 L 54.1736,-1092.84 L 54.0773,-1092.63
 L 53.9562,-1092.44 L 53.8121,-1092.27 L 53.6474,-1092.11 L 53.4645,-1091.98 L 53.2664,-1091.87 L 53.0562,-1091.79
 L 52.8373,-1091.73 L 52.613,-1091.7 z
M -52.613,-1091.7 L -52.8373,-1091.73 L -53.0562,-1091.79 L -53.2664,-1091.87 L -53.4645,-1091.98 L -53.6474,-1092.11
 L -53.8121,-1092.27 L -53.9562,-1092.44 L -54.0773,-1092.63 L -54.1736,-1092.84 L -54.2434,-1093.05 L -54.2858,-1093.27
 L -54.3,-1093.5 L -54.2858,-1093.73 L -54.2434,-1093.95 L -54.1736,-1094.16 L -54.0773,-1094.37 L -53.9562,-1094.56
 L -53.8121,-1094.73 L -53.6474,-1094.89 L -53.4645,-1095.02 L -53.2664,-1095.13 L -53.0562,-1095.21 L -52.8373,-1095.27
 L -52.613,-1095.3 L -52.387,-1095.3 L -52.1627,-1095.27 L -51.9438,-1095.21 L -51.7336,-1095.13 L -51.5355,-1095.02
 L -51.3526,-1094.89 L -51.1879,-1094.73 L -51.0438,-1094.56 L -50.9226,-1094.37 L -50.8264,-1094.16 L -50.7565,-1093.95
 L -50.7142,-1093.73 L -50.7,-1093.5 L -50.7142,-1093.27 L -50.7565,-1093.05 L -50.8264,-1092.84 L -50.9226,-1092.63
 L -51.0438,-1092.44 L -51.1879,-1092.27 L -51.3526,-1092.11 L -51.5355,-1091.98 L -51.7336,-1091.87 L -51.9438,-1091.79
 L -52.1627,-1091.73 L -52.387,-1091.7 z
" stroke="black" fill="lightgray" stroke-width="0.5"/>
</svg>
