<?xml version="1.0" standalone="no"?>
<!DOCTYPE svg PUBLIC "-//W3C//DTD SVG 1.1//EN" "http://www.w3.org/Graphics/SVG/1.1/DTD/svg11.dtd">
<svg width="60mm" height="1162mm" viewBox="-30 -2219 60 1162" xmlns="http://www.w3.org/2000/svg" version="1.1">
<title>OpenSCAD Model</title>
<path d="
M 25.9369,-1993.59 L 26.5451,-1993.74 L 27.1289,-1993.98 L 27.6791,-1994.28 L 28.1871,-1994.65 L 28.6448,-1995.08
 L 29.0451,-1995.56 L 29.3815,-1996.09 L 29.6489,-1996.66 L 29.8429,-1997.26 L 29.9606,-1997.87 L 30,-1998.5
 L 30,-2213.5 L 29.9606,-2214.13 L 29.8429,-2214.74 L 29.6489,-2215.34 L 29.3815,-2215.91 L 29.0451,-2216.44
 L 28.6448,-2216.92 L 28.1871,-2217.35 L 27.6791,-2217.72 L 27.1289,-2218.02 L 26.5451,-2218.26 L 25.9369,-2218.41
 L 25.3139,-2218.49 L -25.3139,-2218.49 L -25.9369,-2218.41 L -26.5451,-2218.26 L -27.1289,-2218.02 L -27.6791,-2217.72
 L -28.1871,-2217.35 L -28.6448,-2216.92 L -29.0451,-2216.44 L -29.3815,-2215.91 L -29.6489,-2215.34 L -29.8429,-2214.74
 L -29.9606,-2214.13 L -30,-2213.5 L -30,-1998.5 L -29.9606,-1997.87 L -29.8429,-1997.26 L -29.6489,-1996.66
 L -29.3815,-1996.09 L -29.0451,-1995.56 L -28.6448,-1995.08 L -28.1871,-1994.65 L -27.6791,-1994.28 L -27.1289,-1993.98
 L -26.5451,-1993.74 L -25.9369,-1993.59 L -25.3139,-1993.51 L 25.3139,-1993.51 z
M -24.7512,-1995.01 L -25.2495,-1995.07 L -25.7361,-1995.2 L -26.2031,-1995.38 L -26.6433,-1995.62 L -27.0497,-1995.92
 L -27.4159,-1996.26 L -27.7361,-1996.65 L -28.0052,-1997.07 L -28.2191,-1997.53 L -28.3743,-1998.01 L -28.4684,-1998.5
 L -28.5,-1999 L -28.5,-2213 L -28.4684,-2213.5 L -28.3743,-2213.99 L -28.2191,-2214.47 L -28.0052,-2214.93
 L -27.7361,-2215.35 L -27.4159,-2215.74 L -27.0497,-2216.08 L -26.6433,-2216.38 L -26.2031,-2216.62 L -25.7361,-2216.8
 L -25.2495,-2216.93 L -24.7512,-2216.99 L 24.7512,-2216.99 L 25.2495,-2216.93 L 25.7361,-2216.8 L 26.2031,-2216.62
 L 26.6433,-2216.38 L 27.0497,-2216.08 L 27.4159,-2215.74 L 27.7361,-2215.35 L 28.0052,-2214.93 L 28.2191,-2214.47
 L 28.3743,-2213.99 L 28.4684,-2213.5 L 28.5,-2213 L 28.5,-1999 L 28.4684,-1998.5 L 28.3743,-1998.01
 L 28.2191,-1997.53 L 28.0052,-1997.07 L 27.7361,-1996.65 L 27.4159,-1996.26 L 27.0497,-1995.92 L 26.6433,-1995.62
 L 26.2031,-1995.38 L 25.7361,-1995.2 L 25.2495,-1995.07 L 24.7512,-1995.01 z
M 25.9369,-1759.59 L 26.5451,-1759.74 L 27.1289,-1759.98 L 27.6791,-1760.28 L 28.1871,-1760.65 L 28.6448,-1761.08
 L 29.0451,-1761.56 L 29.3815,-1762.09 L 29.6489,-1762.66 L 29.8429,-1763.26 L 29.9606,-1763.87 L 30,-1764.5
 L 30,-1979.5 L 29.9606,-1980.13 L 29.8429,-1980.74 L 29.6489,-1981.34 L 29.3815,-1981.91 L 29.0451,-1982.44
 L 28.6448,-1982.92 L 28.1871,-1983.35 L 27.6791,-1983.72 L 27.1289,-1984.02 L 26.5451,-1984.26 L 25.9369,-1984.41
 L 25.3139,-1984.49 L -25.3139,-1984.49 L -25.9369,-1984.41 L -26.5451,-1984.26 L -27.1289,-1984.02 L -27.6791,-1983.72
 L -28.1871,-1983.35 L -28.6448,-1982.92 L -29.0451,-1982.44 L -29.3815,-1981.91 L -29.6489,-1981.34 L -29.8429,-1980.74
 L -29.9606,-1980.13 L -30,-1979.5 L -30,-1764.5 L -29.9606,-1763.87 L -29.8429,-1763.26 L -29.6489,-1762.66
 L -29.3815,-1762.09 L -29.0451,-1761.56 L -28.6448,-1761.08 L -28.1871,-1760.65 L -27.6791,-1760.28 L -27.1289,-1759.98
 L -26.5451,-1759.74 L -25.9369,-1759.59 L -25.3139,-1759.51 L 25.3139,-1759.51 z
M -24.7512,-1761.01 L -25.2495,-1761.07 L -25.7361,-1761.2 L -26.2031,-1761.38 L -26.6433,-1761.62 L -27.0497,-1761.92
 L -27.4159,-1762.26 L -27.7361,-1762.65 L -28.0052,-1763.07 L -28.2191,-1763.53 L -28.3743,-1764.01 L -28.4684,-1764.5
 L -28.5,-1765 L -28.5,-1979 L -28.4684,-1979.5 L -28.3743,-1979.99 L -28.2191,-1980.47 L -28.0052,-1980.93
 L -27.7361,-1981.35 L -27.4159,-1981.74 L -27.0497,-1982.08 L -26.6433,-1982.38 L -26.2031,-1982.62 L -25.7361,-1982.8
 L -25.2495,-1982.93 L -24.7512,-1982.99 L 24.7512,-1982.99 L 25.2495,-1982.93 L 25.7361,-1982.8 L 26.2031,-1982.62
 L 26.6433,-1982.38 L 27.0497,-1982.08 L 27.4159,-1981.74 L 27.7361,-1981.35 L 28.0052,-1980.93 L 28.2191,-1980.47
 L 28.3743,-1979.99 L 28.4684,-1979.5 L 28.5,-1979 L 28.5,-1765 L 28.4684,-1764.5 L 28.3743,-1764.01
 L 28.2191,-1763.53 L 28.0052,-1763.07 L 27.7361,-1762.65 L 27.4159,-1762.26 L 27.0497,-1761.92 L 26.6433,-1761.62
 L 26.2031,-1761.38 L 25.7361,-1761.2 L 25.2495,-1761.07 L 24.7512,-1761.01 z
M 25.9369,-1525.59 L 26.5451,-1525.74 L 27.1289,-1525.98 L 27.6791,-1526.28 L 28.1871,-1526.65 L 28.6448,-1527.08
 L 29.0451,-1527.56 L 29.3815,-1528.09 L 29.6489,-1528.66 L 29.8429,-1529.26 L 29.9606,-1529.87 L 30,-1530.5
 L 30,-1745.5 L 29.9606,-1746.13 L 29.8429,-1746.74 L 29.6489,-1747.34 L 29.3815,-1747.91 L 29.0451,-1748.44
 L 28.6448,-1748.92 L 28.1871,-1749.35 L 27.6791,-1749.72 L 27.1289,-1750.02 L 26.5451,-1750.26 L 25.9369,-1750.41
 L 25.3139,-1750.49 L -25.3139,-1750.49 L -25.9369,-1750.41 L -26.5451,-1750.26 L -27.1289,-1750.02 L -27.6791,-1749.72
 L -28.1871,-1749.35 L -28.6448,-1748.92 L -29.0451,-1748.44 L -29.3815,-1747.91 L -29.6489,-1747.34 L -29.8429,-1746.74
 L -29.9606,-1746.13 L -30,-1745.5 L -30,-1530.5 L -29.9606,-1529.87 L -29.8429,-1529.26 L -29.6489,-1528.66
 L -29.3815,-1528.09 L -29.0451,-1527.56 L -28.6448,-1527.08 L -28.1871,-1526.65 L -27.6791,-1526.28 L -27.1289,-1525.98
 L -26.5451,-1525.74 L -25.9369,-1525.59 L -25.3139,-1525.51 L 25.3139,-1525.51 z
M -24.7512,-1527.01 L -25.2495,-1527.07 L -25.7361,-1527.2 L -26.2031,-1527.38 L -26.6433,-1527.62 L -27.0497,-1527.92
 L -27.4159,-1528.26 L -27.7361,-1528.65 L -28.0052,-1529.07 L -28.2191,-1529.53 L -28.3743,-1530.01 L -28.4684,-1530.5
 L -28.5,-1531 L -28.5,-1745 L -28.4684,-1745.5 L -28.3743,-1745.99 L -28.2191,-1746.47 L -28.0052,-1746.93
 L -27.7361,-1747.35 L -27.4159,-1747.74 L -27.0497,-1748.08 L -26.6433,-1748.38 L -26.2031,-1748.62 L -25.7361,-1748.8
 L -25.2495,-1748.93 L -24.7512,-1748.99 L 24.7512,-1748.99 L 25.2495,-1748.93 L 25.7361,-1748.8 L 26.2031,-1748.62
 L 26.6433,-1748.38 L 27.0497,-1748.08 L 27.4159,-1747.74 L 27.7361,-1747.35 L 28.0052,-1746.93 L 28.2191,-1746.47
 L 28.3743,-1745.99 L 28.4684,-1745.5 L 28.5,-1745 L 28.5,-1531 L 28.4684,-1530.5 L 28.3743,-1530.01
 L 28.2191,-1529.53 L 28.0052,-1529.07 L 27.7361,-1528.65 L 27.4159,-1528.26 L 27.0497,-1527.92 L 26.6433,-1527.62
 L 26.2031,-1527.38 L 25.7361,-1527.2 L 25.2495,-1527.07 L 24.7512,-1527.01 z
M 25.9369,-1291.59 L 26.5451,-1291.74 L 27.1289,-1291.98 L 27.6791,-1292.28 L 28.1871,-1292.65 L 28.6448,-1293.08
 L 29.0451,-1293.56 L 29.3815,-1294.09 L 29.6489,-1294.66 L 29.8429,-1295.26 L 29.9606,-1295.87 L 30,-1296.5
 L 30,-1511.5 L 29.9606,-1512.13 L 29.8429,-1512.74 L 29.6489,-1513.34 L 29.3815,-1513.91 L 29.0451,-1514.44
 L 28.6448,-1514.92 L 28.1871,-1515.35 L 27.6791,-1515.72 L 27.1289,-1516.02 L 26.5451,-1516.26 L 25.9369,-1516.41
 L 25.3139,-1516.49 L -25.3139,-1516.49 L -25.9369,-1516.41 L -26.5451,-1516.26 L -27.1289,-1516.02 L -27.6791,-1515.72
 L -28.1871,-1515.35 L -28.6448,-1514.92 L -29.0451,-1514.44 L -29.3815,-1513.91 L -29.6489,-1513.34 L -29.8429,-1512.74
 L -29.9606,-1512.13 L -30,-1511.5 L -30,-1296.5 L -29.9606,-1295.87 L -29.8429,-1295.26 L -29.6489,-1294.66
 L -29.3815,-1294.09 L -29.0451,-1293.56 L -28.6448,-1293.08 L -28.1871,-1292.65 L -27.6791,-1292.28 L -27.1289,-1291.98
 L -26.5451,-1291.74 L -25.9369,-1291.59 L -25.3139,-1291.51 L 25.3139,-1291.51 z
M -24.6954,-1293.89 L -25.0833,-1293.94 L -25.4619,-1294.04 L -25.8254,-1294.18 L -26.168,-1294.37 L -26.4842,-1294.6
 L -26.7692,-1294.87 L -27.0184,-1295.17 L -27.2279,-1295.5 L -27.3943,-1295.85 L -27.5151,-1296.23 L -27.5884,-1296.61
 L -27.6129,-1297 L -27.6129,-1511 L -27.5884,-1511.39 L -27.5151,-1511.77 L -27.3943,-1512.15 L -27.2279,-1512.5
 L -27.0184,-1512.83 L -26.7692,-1513.13 L -26.4842,-1513.4 L -26.168,-1513.63 L -25.8254,-1513.82 L -25.4619,-1513.96
 L -25.0833,-1514.06 L -24.6954,-1514.11 L 24.6954,-1514.11 L 25.0833,-1514.06 L 25.4619,-1513.96 L 25.8254,-1513.82
 L 26.168,-1513.63 L 26.4842,-1513.4 L 26.7692,-1513.13 L 27.0184,-1512.83 L 27.2279,-1512.5 L 27.3943,-1512.15
 L 27.5151,-1511.77 L 27.5884,-1511.39 L 27.6129,-1511 L 27.6129,-1297 L 27.5884,-1296.61 L 27.5151,-1296.23
 L 27.3943,-1295.85 L 27.2279,-1295.5 L 27.0184,-1295.17 L 26.7692,-1294.87 L 26.4842,-1294.6 L 26.168,-1294.37
 L 25.8254,-1294.18 L 25.4619,-1294.04 L 25.0833,-1293.94 L 24.6954,-1293.89 z
M 25.9369,-1057.59 L 26.5451,-1057.74 L 27.1289,-1057.98 L 27.6791,-1058.28 L 28.1871,-1058.65 L 28.6448,-1059.08
 L 29.0451,-1059.56 L 29.3815,-1060.09 L 29.6489,-1060.66 L 29.8429,-1061.26 L 29.9606,-1061.87 L 30,-1062.5
 L 30,-1277.5 L 29.9606,-1278.13 L 29.8429,-1278.74 L 29.6489,-1279.34 L 29.3815,-1279.91 L 29.0451,-1280.44
 L 28.6448,-1280.92 L 28.1871,-1281.35 L 27.6791,-1281.72 L 27.1289,-1282.02 L 26.5451,-1282.26 L 25.9369,-1282.41
 L 25.3139,-1282.49 L -25.3139,-1282.49 L -25.9369,-1282.41 L -26.5451,-1282.26 L -27.1289,-1282.02 L -27.6791,-1281.72
 L -28.1871,-1281.35 L -28.6448,-1280.92 L -29.0451,-1280.44 L -29.3815,-1279.91 L -29.6489,-1279.34 L -29.8429,-1278.74
 L -29.9606,-1278.13 L -30,-1277.5 L -30,-1062.5 L -29.9606,-1061.87 L -29.8429,-1061.26 L -29.6489,-1060.66
 L -29.3815,-1060.09 L -29.0451,-1059.56 L -28.6448,-1059.08 L -28.1871,-1058.65 L -27.6791,-1058.28 L -27.1289,-1057.98
 L -26.5451,-1057.74 L -25.9369,-1057.59 L -25.3139,-1057.51 L 25.3139,-1057.51 z
M 22.3659,-1272.87 L 22.0999,-1272.9 L 21.8401,-1272.97 L 21.5908,-1273.07 L 21.3559,-1273.2 L 21.1389,-1273.35
 L 20.9434,-1273.54 L 20.7725,-1273.74 L 20.6288,-1273.97 L 20.5146,-1274.21 L 20.4318,-1274.47 L 20.3815,-1274.73
 L 20.3647,-1275 L 20.3815,-1275.27 L 20.4318,-1275.53 L 20.5146,-1275.79 L 20.6288,-1276.03 L 20.7725,-1276.26
 L 20.9434,-1276.46 L 21.1389,-1276.65 L 21.3559,-1276.8 L 21.5908,-1276.93 L 21.8401,-1277.03 L 22.0999,-1277.1
 L 22.3659,-1277.13 L 22.6341,-1277.13 L 22.9001,-1277.1 L 23.1598,-1277.03 L 23.4091,-1276.93 L 23.6441,-1276.8
 L 23.8611,-1276.65 L 24.0565,-1276.46 L 24.2275,-1276.26 L 24.3712,-1276.03 L 24.4853,-1275.79 L 24.5682,-1275.53
 L 24.6185,-1275.27 L 24.6353,-1275 L 24.6185,-1274.73 L 24.5682,-1274.47 L 24.4853,-1274.21 L 24.3712,-1273.97
 L 24.2275,-1273.74 L 24.0565,-1273.54 L 23.8611,-1273.35 L 23.6441,-1273.2 L 23.4091,-1273.07 L 23.1598,-1272.97
 L 22.9001,-1272.9 L 22.6341,-1272.87 z
M -22.6341,-1272.87 L -22.9001,-1272.9 L -23.1598,-1272.97 L -23.4091,-1273.07 L -23.6441,-1273.2 L -23.8611,-1273.35
 L -24.0565,-1273.54 L -24.2275,-1273.74 L -24.3712,-1273.97 L -24.4853,-1274.21 L -24.5682,-1274.47 L -24.6185,-1274.73
 L -24.6353,-1275 L -24.6185,-1275.27 L -24.5682,-1275.53 L -24.4853,-1275.79 L -24.3712,-1276.03 L -24.2275,-1276.26
 L -24.0565,-1276.46 L -23.8611,-1276.65 L -23.6441,-1276.8 L -23.4091,-1276.93 L -23.1598,-1277.03 L -22.9001,-1277.1
 L -22.6341,-1277.13 L -22.3659,-1277.13 L -22.0999,-1277.1 L -21.8401,-1277.03 L -21.5908,-1276.93 L -21.3559,-1276.8
 L -21.1389,-1276.65 L -20.9434,-1276.46 L -20.7725,-1276.26 L -20.6288,-1276.03 L -20.5146,-1275.79 L -20.4318,-1275.53
 L -20.3815,-1275.27 L -20.3647,-1275 L -20.3815,-1274.73 L -20.4318,-1274.47 L -20.5146,-1274.21 L -20.6288,-1273.97
 L -20.7725,-1273.74 L -20.9434,-1273.54 L -21.1389,-1273.35 L -21.3559,-1273.2 L -21.5908,-1273.07 L -21.8401,-1272.97
 L -22.0999,-1272.9 L -22.3659,-1272.87 z
M 22.3659,-1062.87 L 22.0999,-1062.9 L 21.8401,-1062.97 L 21.5908,-1063.07 L 21.3559,-1063.2 L 21.1389,-1063.35
 L 20.9434,-1063.54 L 20.7725,-1063.74 L 20.6288,-1063.97 L 20.5146,-1064.21 L 20.4318,-1064.47 L 20.3815,-1064.73
 L 20.3647,-1065 L 20.3815,-1065.27 L 20.4318,-1065.53 L 20.5146,-1065.79 L 20.6288,-1066.03 L 20.7725,-1066.26
 L 20.9434,-1066.46 L 21.1389,-1066.65 L 21.3559,-1066.8 L 21.5908,-1066.93 L 21.8401,-1067.03 L 22.0999,-1067.1
 L 22.3659,-1067.13 L 22.6341,-1067.13 L 22.9001,-1067.1 L 23.1598,-1067.03 L 23.4091,-1066.93 L 23.6441,-1066.8
 L 23.8611,-1066.65 L 24.0565,-1066.46 L 24.2275,-1066.26 L 24.3712,-1066.03 L 24.4853,-1065.79 L 24.5682,-1065.53
 L 24.6185,-1065.27 L 24.6353,-1065 L 24.6185,-1064.73 L 24.5682,-1064.47 L 24.4853,-1064.21 L 24.3712,-1063.97
 L 24.2275,-1063.74 L 24.0565,-1063.54 L 23.8611,-1063.35 L 23.6441,-1063.2 L 23.4091,-1063.07 L 23.1598,-1062.97
 L 22.9001,-1062.9 L 22.6341,-1062.87 z
M -22.6341,-1062.87 L -22.9001,-1062.9 L -23.1598,-1062.97 L -23.4091,-1063.07 L -23.6441,-1063.2 L -23.8611,-1063.35
 L -24.0565,-1063.54 L -24.2275,-1063.74 L -24.3712,-1063.97 L -24.4853,-1064.21 L -24.5682,-1064.47 L -24.6185,-1064.73
 L -24.6353,-1065 L -24.6185,-1065.27 L -24.5682,-1065.53 L -24.4853,-1065.79 L -24.3712,-1066.03 L -24.2275,-1066.26
 L -24.0565,-1066.46 L -23.8611,-1066.65 L -23.6441,-1066.8 L -23.4091,-1066.93 L -23.1598,-1067.03 L -22.9001,-1067.1
 L -22.6341,-1067.13 L -22.3659,-1067.13 L -22.0999,-1067.1 L -21.8401,-1067.03 L -21.5908,-1066.93 L -21.3559,-1066.8
 L -21.1389,-1066.65 L -20.9434,-1066.46 L -20.7725,-1066.26 L -20.6288,-1066.03 L -20.5146,-1065.79 L -20.4318,-1065.53
 L -20.3815,-1065.27 L -20.3647,-1065 L -20.3815,-1064.73 L -20.4318,-1064.47 L -20.5146,-1064.21 L -20.6288,-1063.97
 L -20.7725,-1063.74 L -20.9434,-1063.54 L -21.1389,-1063.35 L -21.3559,-1063.2 L -21.5908,-1063.07 L -21.8401,-1062.97
 L -22.0999,-1062.9 L -22.3659,-1062.87 z
" stroke="black" fill="lightgray" stroke-width="0.5"/>
</svg>
