  0
SECTION
  2
BLOCKS
  0
ENDSEC
  0
SECTION
  2
ENTITIES
  0
LINE
  8
0
 10
100.937
 20
1228.59
 11
101.545
 21
1228.74
  0
LINE
  8
0
 10
101.545
 20
1228.74
 11
102.129
 21
1228.98
  0
LINE
  8
0
 10
102.129
 20
1228.98
 11
102.679
 21
1229.28
  0
LINE
  8
0
 10
102.679
 20
1229.28
 11
103.187
 21
1229.65
  0
LINE
  8
0
 10
103.187
 20
1229.65
 11
103.645
 21
1230.08
  0
LINE
  8
0
 10
103.645
 20
1230.08
 11
104.045
 21
1230.56
  0
LINE
  8
0
 10
104.045
 20
1230.56
 11
104.382
 21
1231.09
  0
LINE
  8
0
 10
104.382
 20
1231.09
 11
104.649
 21
1231.66
  0
LINE
  8
0
 10
104.649
 20
1231.66
 11
104.843
 21
1232.26
  0
LINE
  8
0
 10
104.843
 20
1232.26
 11
104.961
 21
1232.87
  0
LINE
  8
0
 10
104.961
 20
1232.87
 11
105
 21
1233.5
  0
LINE
  8
0
 10
105
 20
1233.5
 11
105
 21
1358.5
  0
LINE
  8
0
 10
105
 20
1358.5
 11
104.961
 21
1359.13
  0
LINE
  8
0
 10
104.961
 20
1359.13
 11
104.843
 21
1359.74
  0
LINE
  8
0
 10
104.843
 20
1359.74
 11
104.649
 21
1360.34
  0
LINE
  8
0
 10
104.649
 20
1360.34
 11
104.382
 21
1360.91
  0
LINE
  8
0
 10
104.382
 20
1360.91
 11
104.045
 21
1361.44
  0
LINE
  8
0
 10
104.045
 20
1361.44
 11
103.645
 21
1361.92
  0
LINE
  8
0
 10
103.645
 20
1361.92
 11
103.187
 21
1362.35
  0
LINE
  8
0
 10
103.187
 20
1362.35
 11
102.679
 21
1362.72
  0
LINE
  8
0
 10
102.679
 20
1362.72
 11
102.129
 21
1363.02
  0
LINE
  8
0
 10
102.129
 20
1363.02
 11
101.545
 21
1363.26
  0
LINE
  8
0
 10
101.545
 20
1363.26
 11
100.937
 21
1363.41
  0
LINE
  8
0
 10
100.937
 20
1363.41
 11
100.314
 21
1363.49
  0
LINE
  8
0
 10
100.314
 20
1363.49
 11
-100.314
 21
1363.49
  0
LINE
  8
0
 10
-100.314
 20
1363.49
 11
-100.937
 21
1363.41
  0
LINE
  8
0
 10
-100.937
 20
1363.41
 11
-101.545
 21
1363.26
  0
LINE
  8
0
 10
-101.545
 20
1363.26
 11
-102.129
 21
1363.02
  0
LINE
  8
0
 10
-102.129
 20
1363.02
 11
-102.679
 21
1362.72
  0
LINE
  8
0
 10
-102.679
 20
1362.72
 11
-103.187
 21
1362.35
  0
LINE
  8
0
 10
-103.187
 20
1362.35
 11
-103.645
 21
1361.92
  0
LINE
  8
0
 10
-103.645
 20
1361.92
 11
-104.045
 21
1361.44
  0
LINE
  8
0
 10
-104.045
 20
1361.44
 11
-104.382
 21
1360.91
  0
LINE
  8
0
 10
-104.382
 20
1360.91
 11
-104.649
 21
1360.34
  0
LINE
  8
0
 10
-104.649
 20
1360.34
 11
-104.843
 21
1359.74
  0
LINE
  8
0
 10
-104.843
 20
1359.74
 11
-104.961
 21
1359.13
  0
LINE
  8
0
 10
-104.961
 20
1359.13
 11
-105
 21
1358.5
  0
LINE
  8
0
 10
-105
 20
1358.5
 11
-105
 21
1233.5
  0
LINE
  8
0
 10
-105
 20
1233.5
 11
-104.961
 21
1232.87
  0
LINE
  8
0
 10
-104.961
 20
1232.87
 11
-104.843
 21
1232.26
  0
LINE
  8
0
 10
-104.843
 20
1232.26
 11
-104.649
 21
1231.66
  0
LINE
  8
0
 10
-104.649
 20
1231.66
 11
-104.382
 21
1231.09
  0
LINE
  8
0
 10
-104.382
 20
1231.09
 11
-104.045
 21
1230.56
  0
LINE
  8
0
 10
-104.045
 20
1230.56
 11
-103.645
 21
1230.08
  0
LINE
  8
0
 10
-103.645
 20
1230.08
 11
-103.187
 21
1229.65
  0
LINE
  8
0
 10
-103.187
 20
1229.65
 11
-102.679
 21
1229.28
  0
LINE
  8
0
 10
-102.679
 20
1229.28
 11
-102.129
 21
1228.98
  0
LINE
  8
0
 10
-102.129
 20
1228.98
 11
-101.545
 21
1228.74
  0
LINE
  8
0
 10
-101.545
 20
1228.74
 11
-100.937
 21
1228.59
  0
LINE
  8
0
 10
-100.937
 20
1228.59
 11
-100.314
 21
1228.51
  0
LINE
  8
0
 10
-100.314
 20
1228.51
 11
100.314
 21
1228.51
  0
LINE
  8
0
 10
100.314
 20
1228.51
 11
100.937
 21
1228.59
  0
LINE
  8
0
 10
-99.7512
 20
1230.01
 11
-100.25
 21
1230.07
  0
LINE
  8
0
 10
-100.25
 20
1230.07
 11
-100.736
 21
1230.2
  0
LINE
  8
0
 10
-100.736
 20
1230.2
 11
-101.203
 21
1230.38
  0
LINE
  8
0
 10
-101.203
 20
1230.38
 11
-101.643
 21
1230.62
  0
LINE
  8
0
 10
-101.643
 20
1230.62
 11
-102.05
 21
1230.92
  0
LINE
  8
0
 10
-102.05
 20
1230.92
 11
-102.416
 21
1231.26
  0
LINE
  8
0
 10
-102.416
 20
1231.26
 11
-102.736
 21
1231.65
  0
LINE
  8
0
 10
-102.736
 20
1231.65
 11
-103.005
 21
1232.07
  0
LINE
  8
0
 10
-103.005
 20
1232.07
 11
-103.219
 21
1232.53
  0
LINE
  8
0
 10
-103.219
 20
1232.53
 11
-103.374
 21
1233.01
  0
LINE
  8
0
 10
-103.374
 20
1233.01
 11
-103.468
 21
1233.5
  0
LINE
  8
0
 10
-103.468
 20
1233.5
 11
-103.5
 21
1234
  0
LINE
  8
0
 10
-103.5
 20
1234
 11
-103.5
 21
1358
  0
LINE
  8
0
 10
-103.5
 20
1358
 11
-103.468
 21
1358.5
  0
LINE
  8
0
 10
-103.468
 20
1358.5
 11
-103.374
 21
1358.99
  0
LINE
  8
0
 10
-103.374
 20
1358.99
 11
-103.219
 21
1359.47
  0
LINE
  8
0
 10
-103.219
 20
1359.47
 11
-103.005
 21
1359.93
  0
LINE
  8
0
 10
-103.005
 20
1359.93
 11
-102.736
 21
1360.35
  0
LINE
  8
0
 10
-102.736
 20
1360.35
 11
-102.416
 21
1360.74
  0
LINE
  8
0
 10
-102.416
 20
1360.74
 11
-102.05
 21
1361.08
  0
LINE
  8
0
 10
-102.05
 20
1361.08
 11
-101.643
 21
1361.38
  0
LINE
  8
0
 10
-101.643
 20
1361.38
 11
-101.203
 21
1361.62
  0
LINE
  8
0
 10
-101.203
 20
1361.62
 11
-100.736
 21
1361.8
  0
LINE
  8
0
 10
-100.736
 20
1361.8
 11
-100.25
 21
1361.93
  0
LINE
  8
0
 10
-100.25
 20
1361.93
 11
-99.7512
 21
1361.99
  0
LINE
  8
0
 10
-99.7512
 20
1361.99
 11
99.7512
 21
1361.99
  0
LINE
  8
0
 10
99.7512
 20
1361.99
 11
100.25
 21
1361.93
  0
LINE
  8
0
 10
100.25
 20
1361.93
 11
100.736
 21
1361.8
  0
LINE
  8
0
 10
100.736
 20
1361.8
 11
101.203
 21
1361.62
  0
LINE
  8
0
 10
101.203
 20
1361.62
 11
101.643
 21
1361.38
  0
LINE
  8
0
 10
101.643
 20
1361.38
 11
102.05
 21
1361.08
  0
LINE
  8
0
 10
102.05
 20
1361.08
 11
102.416
 21
1360.74
  0
LINE
  8
0
 10
102.416
 20
1360.74
 11
102.736
 21
1360.35
  0
LINE
  8
0
 10
102.736
 20
1360.35
 11
103.005
 21
1359.93
  0
LINE
  8
0
 10
103.005
 20
1359.93
 11
103.219
 21
1359.47
  0
LINE
  8
0
 10
103.219
 20
1359.47
 11
103.374
 21
1358.99
  0
LINE
  8
0
 10
103.374
 20
1358.99
 11
103.468
 21
1358.5
  0
LINE
  8
0
 10
103.468
 20
1358.5
 11
103.5
 21
1358
  0
LINE
  8
0
 10
103.5
 20
1358
 11
103.5
 21
1234
  0
LINE
  8
0
 10
103.5
 20
1234
 11
103.468
 21
1233.5
  0
LINE
  8
0
 10
103.468
 20
1233.5
 11
103.374
 21
1233.01
  0
LINE
  8
0
 10
103.374
 20
1233.01
 11
103.219
 21
1232.53
  0
LINE
  8
0
 10
103.219
 20
1232.53
 11
103.005
 21
1232.07
  0
LINE
  8
0
 10
103.005
 20
1232.07
 11
102.736
 21
1231.65
  0
LINE
  8
0
 10
102.736
 20
1231.65
 11
102.416
 21
1231.26
  0
LINE
  8
0
 10
102.416
 20
1231.26
 11
102.05
 21
1230.92
  0
LINE
  8
0
 10
102.05
 20
1230.92
 11
101.643
 21
1230.62
  0
LINE
  8
0
 10
101.643
 20
1230.62
 11
101.203
 21
1230.38
  0
LINE
  8
0
 10
101.203
 20
1230.38
 11
100.736
 21
1230.2
  0
LINE
  8
0
 10
100.736
 20
1230.2
 11
100.25
 21
1230.07
  0
LINE
  8
0
 10
100.25
 20
1230.07
 11
99.7512
 21
1230.01
  0
LINE
  8
0
 10
99.7512
 20
1230.01
 11
-99.7512
 21
1230.01
  0
LINE
  8
0
 10
100.937
 20
1084.59
 11
101.545
 21
1084.74
  0
LINE
  8
0
 10
101.545
 20
1084.74
 11
102.129
 21
1084.98
  0
LINE
  8
0
 10
102.129
 20
1084.98
 11
102.679
 21
1085.28
  0
LINE
  8
0
 10
102.679
 20
1085.28
 11
103.187
 21
1085.65
  0
LINE
  8
0
 10
103.187
 20
1085.65
 11
103.645
 21
1086.08
  0
LINE
  8
0
 10
103.645
 20
1086.08
 11
104.045
 21
1086.56
  0
LINE
  8
0
 10
104.045
 20
1086.56
 11
104.382
 21
1087.09
  0
LINE
  8
0
 10
104.382
 20
1087.09
 11
104.649
 21
1087.66
  0
LINE
  8
0
 10
104.649
 20
1087.66
 11
104.843
 21
1088.26
  0
LINE
  8
0
 10
104.843
 20
1088.26
 11
104.961
 21
1088.87
  0
LINE
  8
0
 10
104.961
 20
1088.87
 11
105
 21
1089.5
  0
LINE
  8
0
 10
105
 20
1089.5
 11
105
 21
1214.5
  0
LINE
  8
0
 10
105
 20
1214.5
 11
104.961
 21
1215.13
  0
LINE
  8
0
 10
104.961
 20
1215.13
 11
104.843
 21
1215.74
  0
LINE
  8
0
 10
104.843
 20
1215.74
 11
104.649
 21
1216.34
  0
LINE
  8
0
 10
104.649
 20
1216.34
 11
104.382
 21
1216.91
  0
LINE
  8
0
 10
104.382
 20
1216.91
 11
104.045
 21
1217.44
  0
LINE
  8
0
 10
104.045
 20
1217.44
 11
103.645
 21
1217.92
  0
LINE
  8
0
 10
103.645
 20
1217.92
 11
103.187
 21
1218.35
  0
LINE
  8
0
 10
103.187
 20
1218.35
 11
102.679
 21
1218.72
  0
LINE
  8
0
 10
102.679
 20
1218.72
 11
102.129
 21
1219.02
  0
LINE
  8
0
 10
102.129
 20
1219.02
 11
101.545
 21
1219.26
  0
LINE
  8
0
 10
101.545
 20
1219.26
 11
100.937
 21
1219.41
  0
LINE
  8
0
 10
100.937
 20
1219.41
 11
100.314
 21
1219.49
  0
LINE
  8
0
 10
100.314
 20
1219.49
 11
-100.314
 21
1219.49
  0
LINE
  8
0
 10
-100.314
 20
1219.49
 11
-100.937
 21
1219.41
  0
LINE
  8
0
 10
-100.937
 20
1219.41
 11
-101.545
 21
1219.26
  0
LINE
  8
0
 10
-101.545
 20
1219.26
 11
-102.129
 21
1219.02
  0
LINE
  8
0
 10
-102.129
 20
1219.02
 11
-102.679
 21
1218.72
  0
LINE
  8
0
 10
-102.679
 20
1218.72
 11
-103.187
 21
1218.35
  0
LINE
  8
0
 10
-103.187
 20
1218.35
 11
-103.645
 21
1217.92
  0
LINE
  8
0
 10
-103.645
 20
1217.92
 11
-104.045
 21
1217.44
  0
LINE
  8
0
 10
-104.045
 20
1217.44
 11
-104.382
 21
1216.91
  0
LINE
  8
0
 10
-104.382
 20
1216.91
 11
-104.649
 21
1216.34
  0
LINE
  8
0
 10
-104.649
 20
1216.34
 11
-104.843
 21
1215.74
  0
LINE
  8
0
 10
-104.843
 20
1215.74
 11
-104.961
 21
1215.13
  0
LINE
  8
0
 10
-104.961
 20
1215.13
 11
-105
 21
1214.5
  0
LINE
  8
0
 10
-105
 20
1214.5
 11
-105
 21
1089.5
  0
LINE
  8
0
 10
-105
 20
1089.5
 11
-104.961
 21
1088.87
  0
LINE
  8
0
 10
-104.961
 20
1088.87
 11
-104.843
 21
1088.26
  0
LINE
  8
0
 10
-104.843
 20
1088.26
 11
-104.649
 21
1087.66
  0
LINE
  8
0
 10
-104.649
 20
1087.66
 11
-104.382
 21
1087.09
  0
LINE
  8
0
 10
-104.382
 20
1087.09
 11
-104.045
 21
1086.56
  0
LINE
  8
0
 10
-104.045
 20
1086.56
 11
-103.645
 21
1086.08
  0
LINE
  8
0
 10
-103.645
 20
1086.08
 11
-103.187
 21
1085.65
  0
LINE
  8
0
 10
-103.187
 20
1085.65
 11
-102.679
 21
1085.28
  0
LINE
  8
0
 10
-102.679
 20
1085.28
 11
-102.129
 21
1084.98
  0
LINE
  8
0
 10
-102.129
 20
1084.98
 11
-101.545
 21
1084.74
  0
LINE
  8
0
 10
-101.545
 20
1084.74
 11
-100.937
 21
1084.59
  0
LINE
  8
0
 10
-100.937
 20
1084.59
 11
-100.314
 21
1084.51
  0
LINE
  8
0
 10
-100.314
 20
1084.51
 11
100.314
 21
1084.51
  0
LINE
  8
0
 10
100.314
 20
1084.51
 11
100.937
 21
1084.59
  0
LINE
  8
0
 10
-99.7512
 20
1086.01
 11
-100.25
 21
1086.07
  0
LINE
  8
0
 10
-100.25
 20
1086.07
 11
-100.736
 21
1086.2
  0
LINE
  8
0
 10
-100.736
 20
1086.2
 11
-101.203
 21
1086.38
  0
LINE
  8
0
 10
-101.203
 20
1086.38
 11
-101.643
 21
1086.62
  0
LINE
  8
0
 10
-101.643
 20
1086.62
 11
-102.05
 21
1086.92
  0
LINE
  8
0
 10
-102.05
 20
1086.92
 11
-102.416
 21
1087.26
  0
LINE
  8
0
 10
-102.416
 20
1087.26
 11
-102.736
 21
1087.65
  0
LINE
  8
0
 10
-102.736
 20
1087.65
 11
-103.005
 21
1088.07
  0
LINE
  8
0
 10
-103.005
 20
1088.07
 11
-103.219
 21
1088.53
  0
LINE
  8
0
 10
-103.219
 20
1088.53
 11
-103.374
 21
1089.01
  0
LINE
  8
0
 10
-103.374
 20
1089.01
 11
-103.468
 21
1089.5
  0
LINE
  8
0
 10
-103.468
 20
1089.5
 11
-103.5
 21
1090
  0
LINE
  8
0
 10
-103.5
 20
1090
 11
-103.5
 21
1214
  0
LINE
  8
0
 10
-103.5
 20
1214
 11
-103.468
 21
1214.5
  0
LINE
  8
0
 10
-103.468
 20
1214.5
 11
-103.374
 21
1214.99
  0
LINE
  8
0
 10
-103.374
 20
1214.99
 11
-103.219
 21
1215.47
  0
LINE
  8
0
 10
-103.219
 20
1215.47
 11
-103.005
 21
1215.93
  0
LINE
  8
0
 10
-103.005
 20
1215.93
 11
-102.736
 21
1216.35
  0
LINE
  8
0
 10
-102.736
 20
1216.35
 11
-102.416
 21
1216.74
  0
LINE
  8
0
 10
-102.416
 20
1216.74
 11
-102.05
 21
1217.08
  0
LINE
  8
0
 10
-102.05
 20
1217.08
 11
-101.643
 21
1217.38
  0
LINE
  8
0
 10
-101.643
 20
1217.38
 11
-101.203
 21
1217.62
  0
LINE
  8
0
 10
-101.203
 20
1217.62
 11
-100.736
 21
1217.8
  0
LINE
  8
0
 10
-100.736
 20
1217.8
 11
-100.25
 21
1217.93
  0
LINE
  8
0
 10
-100.25
 20
1217.93
 11
-99.7512
 21
1217.99
  0
LINE
  8
0
 10
-99.7512
 20
1217.99
 11
99.7512
 21
1217.99
  0
LINE
  8
0
 10
99.7512
 20
1217.99
 11
100.25
 21
1217.93
  0
LINE
  8
0
 10
100.25
 20
1217.93
 11
100.736
 21
1217.8
  0
LINE
  8
0
 10
100.736
 20
1217.8
 11
101.203
 21
1217.62
  0
LINE
  8
0
 10
101.203
 20
1217.62
 11
101.643
 21
1217.38
  0
LINE
  8
0
 10
101.643
 20
1217.38
 11
102.05
 21
1217.08
  0
LINE
  8
0
 10
102.05
 20
1217.08
 11
102.416
 21
1216.74
  0
LINE
  8
0
 10
102.416
 20
1216.74
 11
102.736
 21
1216.35
  0
LINE
  8
0
 10
102.736
 20
1216.35
 11
103.005
 21
1215.93
  0
LINE
  8
0
 10
103.005
 20
1215.93
 11
103.219
 21
1215.47
  0
LINE
  8
0
 10
103.219
 20
1215.47
 11
103.374
 21
1214.99
  0
LINE
  8
0
 10
103.374
 20
1214.99
 11
103.468
 21
1214.5
  0
LINE
  8
0
 10
103.468
 20
1214.5
 11
103.5
 21
1214
  0
LINE
  8
0
 10
103.5
 20
1214
 11
103.5
 21
1090
  0
LINE
  8
0
 10
103.5
 20
1090
 11
103.468
 21
1089.5
  0
LINE
  8
0
 10
103.468
 20
1089.5
 11
103.374
 21
1089.01
  0
LINE
  8
0
 10
103.374
 20
1089.01
 11
103.219
 21
1088.53
  0
LINE
  8
0
 10
103.219
 20
1088.53
 11
103.005
 21
1088.07
  0
LINE
  8
0
 10
103.005
 20
1088.07
 11
102.736
 21
1087.65
  0
LINE
  8
0
 10
102.736
 20
1087.65
 11
102.416
 21
1087.26
  0
LINE
  8
0
 10
102.416
 20
1087.26
 11
102.05
 21
1086.92
  0
LINE
  8
0
 10
102.05
 20
1086.92
 11
101.643
 21
1086.62
  0
LINE
  8
0
 10
101.643
 20
1086.62
 11
101.203
 21
1086.38
  0
LINE
  8
0
 10
101.203
 20
1086.38
 11
100.736
 21
1086.2
  0
LINE
  8
0
 10
100.736
 20
1086.2
 11
100.25
 21
1086.07
  0
LINE
  8
0
 10
100.25
 20
1086.07
 11
99.7512
 21
1086.01
  0
LINE
  8
0
 10
99.7512
 20
1086.01
 11
-99.7512
 21
1086.01
  0
LINE
  8
0
 10
100.937
 20
940.589
 11
101.545
 21
940.745
  0
LINE
  8
0
 10
101.545
 20
940.745
 11
102.129
 21
940.976
  0
LINE
  8
0
 10
102.129
 20
940.976
 11
102.679
 21
941.278
  0
LINE
  8
0
 10
102.679
 20
941.278
 11
103.187
 21
941.647
  0
LINE
  8
0
 10
103.187
 20
941.647
 11
103.645
 21
942.077
  0
LINE
  8
0
 10
103.645
 20
942.077
 11
104.045
 21
942.561
  0
LINE
  8
0
 10
104.045
 20
942.561
 11
104.382
 21
943.091
  0
LINE
  8
0
 10
104.382
 20
943.091
 11
104.649
 21
943.659
  0
LINE
  8
0
 10
104.649
 20
943.659
 11
104.843
 21
944.257
  0
LINE
  8
0
 10
104.843
 20
944.257
 11
104.961
 21
944.873
  0
LINE
  8
0
 10
104.961
 20
944.873
 11
105
 21
945.5
  0
LINE
  8
0
 10
105
 20
945.5
 11
105
 21
1070.5
  0
LINE
  8
0
 10
105
 20
1070.5
 11
104.961
 21
1071.13
  0
LINE
  8
0
 10
104.961
 20
1071.13
 11
104.843
 21
1071.74
  0
LINE
  8
0
 10
104.843
 20
1071.74
 11
104.649
 21
1072.34
  0
LINE
  8
0
 10
104.649
 20
1072.34
 11
104.382
 21
1072.91
  0
LINE
  8
0
 10
104.382
 20
1072.91
 11
104.045
 21
1073.44
  0
LINE
  8
0
 10
104.045
 20
1073.44
 11
103.645
 21
1073.92
  0
LINE
  8
0
 10
103.645
 20
1073.92
 11
103.187
 21
1074.35
  0
LINE
  8
0
 10
103.187
 20
1074.35
 11
102.679
 21
1074.72
  0
LINE
  8
0
 10
102.679
 20
1074.72
 11
102.129
 21
1075.02
  0
LINE
  8
0
 10
102.129
 20
1075.02
 11
101.545
 21
1075.26
  0
LINE
  8
0
 10
101.545
 20
1075.26
 11
100.937
 21
1075.41
  0
LINE
  8
0
 10
100.937
 20
1075.41
 11
100.314
 21
1075.49
  0
LINE
  8
0
 10
100.314
 20
1075.49
 11
-100.314
 21
1075.49
  0
LINE
  8
0
 10
-100.314
 20
1075.49
 11
-100.937
 21
1075.41
  0
LINE
  8
0
 10
-100.937
 20
1075.41
 11
-101.545
 21
1075.26
  0
LINE
  8
0
 10
-101.545
 20
1075.26
 11
-102.129
 21
1075.02
  0
LINE
  8
0
 10
-102.129
 20
1075.02
 11
-102.679
 21
1074.72
  0
LINE
  8
0
 10
-102.679
 20
1074.72
 11
-103.187
 21
1074.35
  0
LINE
  8
0
 10
-103.187
 20
1074.35
 11
-103.645
 21
1073.92
  0
LINE
  8
0
 10
-103.645
 20
1073.92
 11
-104.045
 21
1073.44
  0
LINE
  8
0
 10
-104.045
 20
1073.44
 11
-104.382
 21
1072.91
  0
LINE
  8
0
 10
-104.382
 20
1072.91
 11
-104.649
 21
1072.34
  0
LINE
  8
0
 10
-104.649
 20
1072.34
 11
-104.843
 21
1071.74
  0
LINE
  8
0
 10
-104.843
 20
1071.74
 11
-104.961
 21
1071.13
  0
LINE
  8
0
 10
-104.961
 20
1071.13
 11
-105
 21
1070.5
  0
LINE
  8
0
 10
-105
 20
1070.5
 11
-105
 21
945.5
  0
LINE
  8
0
 10
-105
 20
945.5
 11
-104.961
 21
944.873
  0
LINE
  8
0
 10
-104.961
 20
944.873
 11
-104.843
 21
944.257
  0
LINE
  8
0
 10
-104.843
 20
944.257
 11
-104.649
 21
943.659
  0
LINE
  8
0
 10
-104.649
 20
943.659
 11
-104.382
 21
943.091
  0
LINE
  8
0
 10
-104.382
 20
943.091
 11
-104.045
 21
942.561
  0
LINE
  8
0
 10
-104.045
 20
942.561
 11
-103.645
 21
942.077
  0
LINE
  8
0
 10
-103.645
 20
942.077
 11
-103.187
 21
941.647
  0
LINE
  8
0
 10
-103.187
 20
941.647
 11
-102.679
 21
941.278
  0
LINE
  8
0
 10
-102.679
 20
941.278
 11
-102.129
 21
940.976
  0
LINE
  8
0
 10
-102.129
 20
940.976
 11
-101.545
 21
940.745
  0
LINE
  8
0
 10
-101.545
 20
940.745
 11
-100.937
 21
940.589
  0
LINE
  8
0
 10
-100.937
 20
940.589
 11
-100.314
 21
940.51
  0
LINE
  8
0
 10
-100.314
 20
940.51
 11
100.314
 21
940.51
  0
LINE
  8
0
 10
100.314
 20
940.51
 11
100.937
 21
940.589
  0
LINE
  8
0
 10
-99.7512
 20
942.008
 11
-100.25
 21
942.071
  0
LINE
  8
0
 10
-100.25
 20
942.071
 11
-100.736
 21
942.196
  0
LINE
  8
0
 10
-100.736
 20
942.196
 11
-101.203
 21
942.381
  0
LINE
  8
0
 10
-101.203
 20
942.381
 11
-101.643
 21
942.623
  0
LINE
  8
0
 10
-101.643
 20
942.623
 11
-102.05
 21
942.918
  0
LINE
  8
0
 10
-102.05
 20
942.918
 11
-102.416
 21
943.262
  0
LINE
  8
0
 10
-102.416
 20
943.262
 11
-102.736
 21
943.649
  0
LINE
  8
0
 10
-102.736
 20
943.649
 11
-103.005
 21
944.073
  0
LINE
  8
0
 10
-103.005
 20
944.073
 11
-103.219
 21
944.528
  0
LINE
  8
0
 10
-103.219
 20
944.528
 11
-103.374
 21
945.005
  0
LINE
  8
0
 10
-103.374
 20
945.005
 11
-103.468
 21
945.499
  0
LINE
  8
0
 10
-103.468
 20
945.499
 11
-103.5
 21
946
  0
LINE
  8
0
 10
-103.5
 20
946
 11
-103.5
 21
1070
  0
LINE
  8
0
 10
-103.5
 20
1070
 11
-103.468
 21
1070.5
  0
LINE
  8
0
 10
-103.468
 20
1070.5
 11
-103.374
 21
1070.99
  0
LINE
  8
0
 10
-103.374
 20
1070.99
 11
-103.219
 21
1071.47
  0
LINE
  8
0
 10
-103.219
 20
1071.47
 11
-103.005
 21
1071.93
  0
LINE
  8
0
 10
-103.005
 20
1071.93
 11
-102.736
 21
1072.35
  0
LINE
  8
0
 10
-102.736
 20
1072.35
 11
-102.416
 21
1072.74
  0
LINE
  8
0
 10
-102.416
 20
1072.74
 11
-102.05
 21
1073.08
  0
LINE
  8
0
 10
-102.05
 20
1073.08
 11
-101.643
 21
1073.38
  0
LINE
  8
0
 10
-101.643
 20
1073.38
 11
-101.203
 21
1073.62
  0
LINE
  8
0
 10
-101.203
 20
1073.62
 11
-100.736
 21
1073.8
  0
LINE
  8
0
 10
-100.736
 20
1073.8
 11
-100.25
 21
1073.93
  0
LINE
  8
0
 10
-100.25
 20
1073.93
 11
-99.7512
 21
1073.99
  0
LINE
  8
0
 10
-99.7512
 20
1073.99
 11
99.7512
 21
1073.99
  0
LINE
  8
0
 10
99.7512
 20
1073.99
 11
100.25
 21
1073.93
  0
LINE
  8
0
 10
100.25
 20
1073.93
 11
100.736
 21
1073.8
  0
LINE
  8
0
 10
100.736
 20
1073.8
 11
101.203
 21
1073.62
  0
LINE
  8
0
 10
101.203
 20
1073.62
 11
101.643
 21
1073.38
  0
LINE
  8
0
 10
101.643
 20
1073.38
 11
102.05
 21
1073.08
  0
LINE
  8
0
 10
102.05
 20
1073.08
 11
102.416
 21
1072.74
  0
LINE
  8
0
 10
102.416
 20
1072.74
 11
102.736
 21
1072.35
  0
LINE
  8
0
 10
102.736
 20
1072.35
 11
103.005
 21
1071.93
  0
LINE
  8
0
 10
103.005
 20
1071.93
 11
103.219
 21
1071.47
  0
LINE
  8
0
 10
103.219
 20
1071.47
 11
103.374
 21
1070.99
  0
LINE
  8
0
 10
103.374
 20
1070.99
 11
103.468
 21
1070.5
  0
LINE
  8
0
 10
103.468
 20
1070.5
 11
103.5
 21
1070
  0
LINE
  8
0
 10
103.5
 20
1070
 11
103.5
 21
946
  0
LINE
  8
0
 10
103.5
 20
946
 11
103.468
 21
945.499
  0
LINE
  8
0
 10
103.468
 20
945.499
 11
103.374
 21
945.005
  0
LINE
  8
0
 10
103.374
 20
945.005
 11
103.219
 21
944.528
  0
LINE
  8
0
 10
103.219
 20
944.528
 11
103.005
 21
944.073
  0
LINE
  8
0
 10
103.005
 20
944.073
 11
102.736
 21
943.649
  0
LINE
  8
0
 10
102.736
 20
943.649
 11
102.416
 21
943.262
  0
LINE
  8
0
 10
102.416
 20
943.262
 11
102.05
 21
942.918
  0
LINE
  8
0
 10
102.05
 20
942.918
 11
101.643
 21
942.623
  0
LINE
  8
0
 10
101.643
 20
942.623
 11
101.203
 21
942.381
  0
LINE
  8
0
 10
101.203
 20
942.381
 11
100.736
 21
942.196
  0
LINE
  8
0
 10
100.736
 20
942.196
 11
100.25
 21
942.071
  0
LINE
  8
0
 10
100.25
 20
942.071
 11
99.7512
 21
942.008
  0
LINE
  8
0
 10
99.7512
 20
942.008
 11
-99.7512
 21
942.008
  0
LINE
  8
0
 10
100.937
 20
796.589
 11
101.545
 21
796.745
  0
LINE
  8
0
 10
101.545
 20
796.745
 11
102.129
 21
796.976
  0
LINE
  8
0
 10
102.129
 20
796.976
 11
102.679
 21
797.278
  0
LINE
  8
0
 10
102.679
 20
797.278
 11
103.187
 21
797.647
  0
LINE
  8
0
 10
103.187
 20
797.647
 11
103.645
 21
798.077
  0
LINE
  8
0
 10
103.645
 20
798.077
 11
104.045
 21
798.561
  0
LINE
  8
0
 10
104.045
 20
798.561
 11
104.382
 21
799.091
  0
LINE
  8
0
 10
104.382
 20
799.091
 11
104.649
 21
799.659
  0
LINE
  8
0
 10
104.649
 20
799.659
 11
104.843
 21
800.257
  0
LINE
  8
0
 10
104.843
 20
800.257
 11
104.961
 21
800.873
  0
LINE
  8
0
 10
104.961
 20
800.873
 11
105
 21
801.5
  0
LINE
  8
0
 10
105
 20
801.5
 11
105
 21
926.5
  0
LINE
  8
0
 10
105
 20
926.5
 11
104.961
 21
927.127
  0
LINE
  8
0
 10
104.961
 20
927.127
 11
104.843
 21
927.743
  0
LINE
  8
0
 10
104.843
 20
927.743
 11
104.649
 21
928.341
  0
LINE
  8
0
 10
104.649
 20
928.341
 11
104.382
 21
928.909
  0
LINE
  8
0
 10
104.382
 20
928.909
 11
104.045
 21
929.439
  0
LINE
  8
0
 10
104.045
 20
929.439
 11
103.645
 21
929.923
  0
LINE
  8
0
 10
103.645
 20
929.923
 11
103.187
 21
930.353
  0
LINE
  8
0
 10
103.187
 20
930.353
 11
102.679
 21
930.722
  0
LINE
  8
0
 10
102.679
 20
930.722
 11
102.129
 21
931.024
  0
LINE
  8
0
 10
102.129
 20
931.024
 11
101.545
 21
931.255
  0
LINE
  8
0
 10
101.545
 20
931.255
 11
100.937
 21
931.411
  0
LINE
  8
0
 10
100.937
 20
931.411
 11
100.314
 21
931.49
  0
LINE
  8
0
 10
100.314
 20
931.49
 11
-100.314
 21
931.49
  0
LINE
  8
0
 10
-100.314
 20
931.49
 11
-100.937
 21
931.411
  0
LINE
  8
0
 10
-100.937
 20
931.411
 11
-101.545
 21
931.255
  0
LINE
  8
0
 10
-101.545
 20
931.255
 11
-102.129
 21
931.024
  0
LINE
  8
0
 10
-102.129
 20
931.024
 11
-102.679
 21
930.722
  0
LINE
  8
0
 10
-102.679
 20
930.722
 11
-103.187
 21
930.353
  0
LINE
  8
0
 10
-103.187
 20
930.353
 11
-103.645
 21
929.923
  0
LINE
  8
0
 10
-103.645
 20
929.923
 11
-104.045
 21
929.439
  0
LINE
  8
0
 10
-104.045
 20
929.439
 11
-104.382
 21
928.909
  0
LINE
  8
0
 10
-104.382
 20
928.909
 11
-104.649
 21
928.341
  0
LINE
  8
0
 10
-104.649
 20
928.341
 11
-104.843
 21
927.743
  0
LINE
  8
0
 10
-104.843
 20
927.743
 11
-104.961
 21
927.127
  0
LINE
  8
0
 10
-104.961
 20
927.127
 11
-105
 21
926.5
  0
LINE
  8
0
 10
-105
 20
926.5
 11
-105
 21
801.5
  0
LINE
  8
0
 10
-105
 20
801.5
 11
-104.961
 21
800.873
  0
LINE
  8
0
 10
-104.961
 20
800.873
 11
-104.843
 21
800.257
  0
LINE
  8
0
 10
-104.843
 20
800.257
 11
-104.649
 21
799.659
  0
LINE
  8
0
 10
-104.649
 20
799.659
 11
-104.382
 21
799.091
  0
LINE
  8
0
 10
-104.382
 20
799.091
 11
-104.045
 21
798.561
  0
LINE
  8
0
 10
-104.045
 20
798.561
 11
-103.645
 21
798.077
  0
LINE
  8
0
 10
-103.645
 20
798.077
 11
-103.187
 21
797.647
  0
LINE
  8
0
 10
-103.187
 20
797.647
 11
-102.679
 21
797.278
  0
LINE
  8
0
 10
-102.679
 20
797.278
 11
-102.129
 21
796.976
  0
LINE
  8
0
 10
-102.129
 20
796.976
 11
-101.545
 21
796.745
  0
LINE
  8
0
 10
-101.545
 20
796.745
 11
-100.937
 21
796.589
  0
LINE
  8
0
 10
-100.937
 20
796.589
 11
-100.314
 21
796.51
  0
LINE
  8
0
 10
-100.314
 20
796.51
 11
100.314
 21
796.51
  0
LINE
  8
0
 10
100.314
 20
796.51
 11
100.937
 21
796.589
  0
LINE
  8
0
 10
-99.6955
 20
798.893
 11
-100.083
 21
798.942
  0
LINE
  8
0
 10
-100.083
 20
798.942
 11
-100.462
 21
799.039
  0
LINE
  8
0
 10
-100.462
 20
799.039
 11
-100.825
 21
799.183
  0
LINE
  8
0
 10
-100.825
 20
799.183
 11
-101.168
 21
799.372
  0
LINE
  8
0
 10
-101.168
 20
799.372
 11
-101.484
 21
799.601
  0
LINE
  8
0
 10
-101.484
 20
799.601
 11
-101.769
 21
799.869
  0
LINE
  8
0
 10
-101.769
 20
799.869
 11
-102.018
 21
800.17
  0
LINE
  8
0
 10
-102.018
 20
800.17
 11
-102.228
 21
800.5
  0
LINE
  8
0
 10
-102.228
 20
800.5
 11
-102.394
 21
800.854
  0
LINE
  8
0
 10
-102.394
 20
800.854
 11
-102.515
 21
801.226
  0
LINE
  8
0
 10
-102.515
 20
801.226
 11
-102.588
 21
801.61
  0
LINE
  8
0
 10
-102.588
 20
801.61
 11
-102.613
 21
802
  0
LINE
  8
0
 10
-102.613
 20
802
 11
-102.613
 21
926
  0
LINE
  8
0
 10
-102.613
 20
926
 11
-102.588
 21
926.39
  0
LINE
  8
0
 10
-102.588
 20
926.39
 11
-102.515
 21
926.774
  0
LINE
  8
0
 10
-102.515
 20
926.774
 11
-102.394
 21
927.146
  0
LINE
  8
0
 10
-102.394
 20
927.146
 11
-102.228
 21
927.5
  0
LINE
  8
0
 10
-102.228
 20
927.5
 11
-102.018
 21
927.83
  0
LINE
  8
0
 10
-102.018
 20
927.83
 11
-101.769
 21
928.131
  0
LINE
  8
0
 10
-101.769
 20
928.131
 11
-101.484
 21
928.399
  0
LINE
  8
0
 10
-101.484
 20
928.399
 11
-101.168
 21
928.628
  0
LINE
  8
0
 10
-101.168
 20
928.628
 11
-100.825
 21
928.817
  0
LINE
  8
0
 10
-100.825
 20
928.817
 11
-100.462
 21
928.961
  0
LINE
  8
0
 10
-100.462
 20
928.961
 11
-100.083
 21
929.058
  0
LINE
  8
0
 10
-100.083
 20
929.058
 11
-99.6955
 21
929.107
  0
LINE
  8
0
 10
-99.6955
 20
929.107
 11
99.6955
 21
929.107
  0
LINE
  8
0
 10
99.6955
 20
929.107
 11
100.083
 21
929.058
  0
LINE
  8
0
 10
100.083
 20
929.058
 11
100.462
 21
928.961
  0
LINE
  8
0
 10
100.462
 20
928.961
 11
100.825
 21
928.817
  0
LINE
  8
0
 10
100.825
 20
928.817
 11
101.168
 21
928.628
  0
LINE
  8
0
 10
101.168
 20
928.628
 11
101.484
 21
928.399
  0
LINE
  8
0
 10
101.484
 20
928.399
 11
101.769
 21
928.131
  0
LINE
  8
0
 10
101.769
 20
928.131
 11
102.018
 21
927.83
  0
LINE
  8
0
 10
102.018
 20
927.83
 11
102.228
 21
927.5
  0
LINE
  8
0
 10
102.228
 20
927.5
 11
102.394
 21
927.146
  0
LINE
  8
0
 10
102.394
 20
927.146
 11
102.515
 21
926.774
  0
LINE
  8
0
 10
102.515
 20
926.774
 11
102.588
 21
926.39
  0
LINE
  8
0
 10
102.588
 20
926.39
 11
102.613
 21
926
  0
LINE
  8
0
 10
102.613
 20
926
 11
102.613
 21
802
  0
LINE
  8
0
 10
102.613
 20
802
 11
102.588
 21
801.61
  0
LINE
  8
0
 10
102.588
 20
801.61
 11
102.515
 21
801.226
  0
LINE
  8
0
 10
102.515
 20
801.226
 11
102.394
 21
800.854
  0
LINE
  8
0
 10
102.394
 20
800.854
 11
102.228
 21
800.5
  0
LINE
  8
0
 10
102.228
 20
800.5
 11
102.018
 21
800.17
  0
LINE
  8
0
 10
102.018
 20
800.17
 11
101.769
 21
799.869
  0
LINE
  8
0
 10
101.769
 20
799.869
 11
101.484
 21
799.601
  0
LINE
  8
0
 10
101.484
 20
799.601
 11
101.168
 21
799.372
  0
LINE
  8
0
 10
101.168
 20
799.372
 11
100.825
 21
799.183
  0
LINE
  8
0
 10
100.825
 20
799.183
 11
100.462
 21
799.039
  0
LINE
  8
0
 10
100.462
 20
799.039
 11
100.083
 21
798.942
  0
LINE
  8
0
 10
100.083
 20
798.942
 11
99.6955
 21
798.893
  0
LINE
  8
0
 10
99.6955
 20
798.893
 11
-99.6955
 21
798.893
  0
LINE
  8
0
 10
100.937
 20
652.589
 11
101.545
 21
652.745
  0
LINE
  8
0
 10
101.545
 20
652.745
 11
102.129
 21
652.976
  0
LINE
  8
0
 10
102.129
 20
652.976
 11
102.679
 21
653.278
  0
LINE
  8
0
 10
102.679
 20
653.278
 11
103.187
 21
653.647
  0
LINE
  8
0
 10
103.187
 20
653.647
 11
103.645
 21
654.077
  0
LINE
  8
0
 10
103.645
 20
654.077
 11
104.045
 21
654.561
  0
LINE
  8
0
 10
104.045
 20
654.561
 11
104.382
 21
655.091
  0
LINE
  8
0
 10
104.382
 20
655.091
 11
104.649
 21
655.659
  0
LINE
  8
0
 10
104.649
 20
655.659
 11
104.843
 21
656.257
  0
LINE
  8
0
 10
104.843
 20
656.257
 11
104.961
 21
656.873
  0
LINE
  8
0
 10
104.961
 20
656.873
 11
105
 21
657.5
  0
LINE
  8
0
 10
105
 20
657.5
 11
105
 21
782.5
  0
LINE
  8
0
 10
105
 20
782.5
 11
104.961
 21
783.127
  0
LINE
  8
0
 10
104.961
 20
783.127
 11
104.843
 21
783.743
  0
LINE
  8
0
 10
104.843
 20
783.743
 11
104.649
 21
784.341
  0
LINE
  8
0
 10
104.649
 20
784.341
 11
104.382
 21
784.909
  0
LINE
  8
0
 10
104.382
 20
784.909
 11
104.045
 21
785.439
  0
LINE
  8
0
 10
104.045
 20
785.439
 11
103.645
 21
785.923
  0
LINE
  8
0
 10
103.645
 20
785.923
 11
103.187
 21
786.353
  0
LINE
  8
0
 10
103.187
 20
786.353
 11
102.679
 21
786.722
  0
LINE
  8
0
 10
102.679
 20
786.722
 11
102.129
 21
787.024
  0
LINE
  8
0
 10
102.129
 20
787.024
 11
101.545
 21
787.255
  0
LINE
  8
0
 10
101.545
 20
787.255
 11
100.937
 21
787.411
  0
LINE
  8
0
 10
100.937
 20
787.411
 11
100.314
 21
787.49
  0
LINE
  8
0
 10
100.314
 20
787.49
 11
-100.314
 21
787.49
  0
LINE
  8
0
 10
-100.314
 20
787.49
 11
-100.937
 21
787.411
  0
LINE
  8
0
 10
-100.937
 20
787.411
 11
-101.545
 21
787.255
  0
LINE
  8
0
 10
-101.545
 20
787.255
 11
-102.129
 21
787.024
  0
LINE
  8
0
 10
-102.129
 20
787.024
 11
-102.679
 21
786.722
  0
LINE
  8
0
 10
-102.679
 20
786.722
 11
-103.187
 21
786.353
  0
LINE
  8
0
 10
-103.187
 20
786.353
 11
-103.645
 21
785.923
  0
LINE
  8
0
 10
-103.645
 20
785.923
 11
-104.045
 21
785.439
  0
LINE
  8
0
 10
-104.045
 20
785.439
 11
-104.382
 21
784.909
  0
LINE
  8
0
 10
-104.382
 20
784.909
 11
-104.649
 21
784.341
  0
LINE
  8
0
 10
-104.649
 20
784.341
 11
-104.843
 21
783.743
  0
LINE
  8
0
 10
-104.843
 20
783.743
 11
-104.961
 21
783.127
  0
LINE
  8
0
 10
-104.961
 20
783.127
 11
-105
 21
782.5
  0
LINE
  8
0
 10
-105
 20
782.5
 11
-105
 21
657.5
  0
LINE
  8
0
 10
-105
 20
657.5
 11
-104.961
 21
656.873
  0
LINE
  8
0
 10
-104.961
 20
656.873
 11
-104.843
 21
656.257
  0
LINE
  8
0
 10
-104.843
 20
656.257
 11
-104.649
 21
655.659
  0
LINE
  8
0
 10
-104.649
 20
655.659
 11
-104.382
 21
655.091
  0
LINE
  8
0
 10
-104.382
 20
655.091
 11
-104.045
 21
654.561
  0
LINE
  8
0
 10
-104.045
 20
654.561
 11
-103.645
 21
654.077
  0
LINE
  8
0
 10
-103.645
 20
654.077
 11
-103.187
 21
653.647
  0
LINE
  8
0
 10
-103.187
 20
653.647
 11
-102.679
 21
653.278
  0
LINE
  8
0
 10
-102.679
 20
653.278
 11
-102.129
 21
652.976
  0
LINE
  8
0
 10
-102.129
 20
652.976
 11
-101.545
 21
652.745
  0
LINE
  8
0
 10
-101.545
 20
652.745
 11
-100.937
 21
652.589
  0
LINE
  8
0
 10
-100.937
 20
652.589
 11
-100.314
 21
652.51
  0
LINE
  8
0
 10
-100.314
 20
652.51
 11
100.314
 21
652.51
  0
LINE
  8
0
 10
100.314
 20
652.51
 11
100.937
 21
652.589
  0
LINE
  8
0
 10
97.3659
 20
777.869
 11
97.0999
 21
777.903
  0
LINE
  8
0
 10
97.0999
 20
777.903
 11
96.8401
 21
777.969
  0
LINE
  8
0
 10
96.8401
 20
777.969
 11
96.5908
 21
778.068
  0
LINE
  8
0
 10
96.5908
 20
778.068
 11
96.3559
 21
778.197
  0
LINE
  8
0
 10
96.3559
 20
778.197
 11
96.1389
 21
778.355
  0
LINE
  8
0
 10
96.1389
 20
778.355
 11
95.9434
 21
778.538
  0
LINE
  8
0
 10
95.9434
 20
778.538
 11
95.7725
 21
778.745
  0
LINE
  8
0
 10
95.7725
 20
778.745
 11
95.6288
 21
778.971
  0
LINE
  8
0
 10
95.6288
 20
778.971
 11
95.5146
 21
779.214
  0
LINE
  8
0
 10
95.5146
 20
779.214
 11
95.4318
 21
779.469
  0
LINE
  8
0
 10
95.4318
 20
779.469
 11
95.3815
 21
779.732
  0
LINE
  8
0
 10
95.3815
 20
779.732
 11
95.3647
 21
780
  0
LINE
  8
0
 10
95.3647
 20
780
 11
95.3815
 21
780.268
  0
LINE
  8
0
 10
95.3815
 20
780.268
 11
95.4318
 21
780.531
  0
LINE
  8
0
 10
95.4318
 20
780.531
 11
95.5146
 21
780.786
  0
LINE
  8
0
 10
95.5146
 20
780.786
 11
95.6288
 21
781.029
  0
LINE
  8
0
 10
95.6288
 20
781.029
 11
95.7725
 21
781.255
  0
LINE
  8
0
 10
95.7725
 20
781.255
 11
95.9434
 21
781.462
  0
LINE
  8
0
 10
95.9434
 20
781.462
 11
96.1389
 21
781.645
  0
LINE
  8
0
 10
96.1389
 20
781.645
 11
96.3559
 21
781.803
  0
LINE
  8
0
 10
96.3559
 20
781.803
 11
96.5908
 21
781.932
  0
LINE
  8
0
 10
96.5908
 20
781.932
 11
96.8401
 21
782.031
  0
LINE
  8
0
 10
96.8401
 20
782.031
 11
97.0999
 21
782.097
  0
LINE
  8
0
 10
97.0999
 20
782.097
 11
97.3659
 21
782.131
  0
LINE
  8
0
 10
97.3659
 20
782.131
 11
97.6341
 21
782.131
  0
LINE
  8
0
 10
97.6341
 20
782.131
 11
97.9001
 21
782.097
  0
LINE
  8
0
 10
97.9001
 20
782.097
 11
98.1598
 21
782.031
  0
LINE
  8
0
 10
98.1598
 20
782.031
 11
98.4092
 21
781.932
  0
LINE
  8
0
 10
98.4092
 20
781.932
 11
98.6441
 21
781.803
  0
LINE
  8
0
 10
98.6441
 20
781.803
 11
98.8611
 21
781.645
  0
LINE
  8
0
 10
98.8611
 20
781.645
 11
99.0566
 21
781.462
  0
LINE
  8
0
 10
99.0566
 20
781.462
 11
99.2275
 21
781.255
  0
LINE
  8
0
 10
99.2275
 20
781.255
 11
99.3712
 21
781.029
  0
LINE
  8
0
 10
99.3712
 20
781.029
 11
99.4853
 21
780.786
  0
LINE
  8
0
 10
99.4853
 20
780.786
 11
99.5682
 21
780.531
  0
LINE
  8
0
 10
99.5682
 20
780.531
 11
99.6185
 21
780.268
  0
LINE
  8
0
 10
99.6185
 20
780.268
 11
99.6353
 21
780
  0
LINE
  8
0
 10
99.6353
 20
780
 11
99.6185
 21
779.732
  0
LINE
  8
0
 10
99.6185
 20
779.732
 11
99.5682
 21
779.469
  0
LINE
  8
0
 10
99.5682
 20
779.469
 11
99.4853
 21
779.214
  0
LINE
  8
0
 10
99.4853
 20
779.214
 11
99.3712
 21
778.971
  0
LINE
  8
0
 10
99.3712
 20
778.971
 11
99.2275
 21
778.745
  0
LINE
  8
0
 10
99.2275
 20
778.745
 11
99.0566
 21
778.538
  0
LINE
  8
0
 10
99.0566
 20
778.538
 11
98.8611
 21
778.355
  0
LINE
  8
0
 10
98.8611
 20
778.355
 11
98.6441
 21
778.197
  0
LINE
  8
0
 10
98.6441
 20
778.197
 11
98.4092
 21
778.068
  0
LINE
  8
0
 10
98.4092
 20
778.068
 11
98.1598
 21
777.969
  0
LINE
  8
0
 10
98.1598
 20
777.969
 11
97.9001
 21
777.903
  0
LINE
  8
0
 10
97.9001
 20
777.903
 11
97.6341
 21
777.869
  0
LINE
  8
0
 10
97.6341
 20
777.869
 11
97.3659
 21
777.869
  0
LINE
  8
0
 10
-97.6341
 20
777.869
 11
-97.9001
 21
777.903
  0
LINE
  8
0
 10
-97.9001
 20
777.903
 11
-98.1598
 21
777.969
  0
LINE
  8
0
 10
-98.1598
 20
777.969
 11
-98.4092
 21
778.068
  0
LINE
  8
0
 10
-98.4092
 20
778.068
 11
-98.6441
 21
778.197
  0
LINE
  8
0
 10
-98.6441
 20
778.197
 11
-98.8611
 21
778.355
  0
LINE
  8
0
 10
-98.8611
 20
778.355
 11
-99.0566
 21
778.538
  0
LINE
  8
0
 10
-99.0566
 20
778.538
 11
-99.2275
 21
778.745
  0
LINE
  8
0
 10
-99.2275
 20
778.745
 11
-99.3712
 21
778.971
  0
LINE
  8
0
 10
-99.3712
 20
778.971
 11
-99.4853
 21
779.214
  0
LINE
  8
0
 10
-99.4853
 20
779.214
 11
-99.5682
 21
779.469
  0
LINE
  8
0
 10
-99.5682
 20
779.469
 11
-99.6185
 21
779.732
  0
LINE
  8
0
 10
-99.6185
 20
779.732
 11
-99.6353
 21
780
  0
LINE
  8
0
 10
-99.6353
 20
780
 11
-99.6185
 21
780.268
  0
LINE
  8
0
 10
-99.6185
 20
780.268
 11
-99.5682
 21
780.531
  0
LINE
  8
0
 10
-99.5682
 20
780.531
 11
-99.4853
 21
780.786
  0
LINE
  8
0
 10
-99.4853
 20
780.786
 11
-99.3712
 21
781.029
  0
LINE
  8
0
 10
-99.3712
 20
781.029
 11
-99.2275
 21
781.255
  0
LINE
  8
0
 10
-99.2275
 20
781.255
 11
-99.0566
 21
781.462
  0
LINE
  8
0
 10
-99.0566
 20
781.462
 11
-98.8611
 21
781.645
  0
LINE
  8
0
 10
-98.8611
 20
781.645
 11
-98.6441
 21
781.803
  0
LINE
  8
0
 10
-98.6441
 20
781.803
 11
-98.4092
 21
781.932
  0
LINE
  8
0
 10
-98.4092
 20
781.932
 11
-98.1598
 21
782.031
  0
LINE
  8
0
 10
-98.1598
 20
782.031
 11
-97.9001
 21
782.097
  0
LINE
  8
0
 10
-97.9001
 20
782.097
 11
-97.6341
 21
782.131
  0
LINE
  8
0
 10
-97.6341
 20
782.131
 11
-97.3659
 21
782.131
  0
LINE
  8
0
 10
-97.3659
 20
782.131
 11
-97.0999
 21
782.097
  0
LINE
  8
0
 10
-97.0999
 20
782.097
 11
-96.8401
 21
782.031
  0
LINE
  8
0
 10
-96.8401
 20
782.031
 11
-96.5908
 21
781.932
  0
LINE
  8
0
 10
-96.5908
 20
781.932
 11
-96.3559
 21
781.803
  0
LINE
  8
0
 10
-96.3559
 20
781.803
 11
-96.1389
 21
781.645
  0
LINE
  8
0
 10
-96.1389
 20
781.645
 11
-95.9434
 21
781.462
  0
LINE
  8
0
 10
-95.9434
 20
781.462
 11
-95.7725
 21
781.255
  0
LINE
  8
0
 10
-95.7725
 20
781.255
 11
-95.6288
 21
781.029
  0
LINE
  8
0
 10
-95.6288
 20
781.029
 11
-95.5146
 21
780.786
  0
LINE
  8
0
 10
-95.5146
 20
780.786
 11
-95.4318
 21
780.531
  0
LINE
  8
0
 10
-95.4318
 20
780.531
 11
-95.3815
 21
780.268
  0
LINE
  8
0
 10
-95.3815
 20
780.268
 11
-95.3647
 21
780
  0
LINE
  8
0
 10
-95.3647
 20
780
 11
-95.3815
 21
779.732
  0
LINE
  8
0
 10
-95.3815
 20
779.732
 11
-95.4318
 21
779.469
  0
LINE
  8
0
 10
-95.4318
 20
779.469
 11
-95.5146
 21
779.214
  0
LINE
  8
0
 10
-95.5146
 20
779.214
 11
-95.6288
 21
778.971
  0
LINE
  8
0
 10
-95.6288
 20
778.971
 11
-95.7725
 21
778.745
  0
LINE
  8
0
 10
-95.7725
 20
778.745
 11
-95.9434
 21
778.538
  0
LINE
  8
0
 10
-95.9434
 20
778.538
 11
-96.1389
 21
778.355
  0
LINE
  8
0
 10
-96.1389
 20
778.355
 11
-96.3559
 21
778.197
  0
LINE
  8
0
 10
-96.3559
 20
778.197
 11
-96.5908
 21
778.068
  0
LINE
  8
0
 10
-96.5908
 20
778.068
 11
-96.8401
 21
777.969
  0
LINE
  8
0
 10
-96.8401
 20
777.969
 11
-97.0999
 21
777.903
  0
LINE
  8
0
 10
-97.0999
 20
777.903
 11
-97.3659
 21
777.869
  0
LINE
  8
0
 10
-97.3659
 20
777.869
 11
-97.6341
 21
777.869
  0
LINE
  8
0
 10
97.3659
 20
657.869
 11
97.0999
 21
657.903
  0
LINE
  8
0
 10
97.0999
 20
657.903
 11
96.8401
 21
657.969
  0
LINE
  8
0
 10
96.8401
 20
657.969
 11
96.5908
 21
658.068
  0
LINE
  8
0
 10
96.5908
 20
658.068
 11
96.3559
 21
658.197
  0
LINE
  8
0
 10
96.3559
 20
658.197
 11
96.1389
 21
658.355
  0
LINE
  8
0
 10
96.1389
 20
658.355
 11
95.9434
 21
658.538
  0
LINE
  8
0
 10
95.9434
 20
658.538
 11
95.7725
 21
658.745
  0
LINE
  8
0
 10
95.7725
 20
658.745
 11
95.6288
 21
658.971
  0
LINE
  8
0
 10
95.6288
 20
658.971
 11
95.5146
 21
659.214
  0
LINE
  8
0
 10
95.5146
 20
659.214
 11
95.4318
 21
659.469
  0
LINE
  8
0
 10
95.4318
 20
659.469
 11
95.3815
 21
659.732
  0
LINE
  8
0
 10
95.3815
 20
659.732
 11
95.3647
 21
660
  0
LINE
  8
0
 10
95.3647
 20
660
 11
95.3815
 21
660.268
  0
LINE
  8
0
 10
95.3815
 20
660.268
 11
95.4318
 21
660.531
  0
LINE
  8
0
 10
95.4318
 20
660.531
 11
95.5146
 21
660.786
  0
LINE
  8
0
 10
95.5146
 20
660.786
 11
95.6288
 21
661.029
  0
LINE
  8
0
 10
95.6288
 20
661.029
 11
95.7725
 21
661.255
  0
LINE
  8
0
 10
95.7725
 20
661.255
 11
95.9434
 21
661.462
  0
LINE
  8
0
 10
95.9434
 20
661.462
 11
96.1389
 21
661.645
  0
LINE
  8
0
 10
96.1389
 20
661.645
 11
96.3559
 21
661.803
  0
LINE
  8
0
 10
96.3559
 20
661.803
 11
96.5908
 21
661.932
  0
LINE
  8
0
 10
96.5908
 20
661.932
 11
96.8401
 21
662.031
  0
LINE
  8
0
 10
96.8401
 20
662.031
 11
97.0999
 21
662.097
  0
LINE
  8
0
 10
97.0999
 20
662.097
 11
97.3659
 21
662.131
  0
LINE
  8
0
 10
97.3659
 20
662.131
 11
97.6341
 21
662.131
  0
LINE
  8
0
 10
97.6341
 20
662.131
 11
97.9001
 21
662.097
  0
LINE
  8
0
 10
97.9001
 20
662.097
 11
98.1598
 21
662.031
  0
LINE
  8
0
 10
98.1598
 20
662.031
 11
98.4092
 21
661.932
  0
LINE
  8
0
 10
98.4092
 20
661.932
 11
98.6441
 21
661.803
  0
LINE
  8
0
 10
98.6441
 20
661.803
 11
98.8611
 21
661.645
  0
LINE
  8
0
 10
98.8611
 20
661.645
 11
99.0566
 21
661.462
  0
LINE
  8
0
 10
99.0566
 20
661.462
 11
99.2275
 21
661.255
  0
LINE
  8
0
 10
99.2275
 20
661.255
 11
99.3712
 21
661.029
  0
LINE
  8
0
 10
99.3712
 20
661.029
 11
99.4853
 21
660.786
  0
LINE
  8
0
 10
99.4853
 20
660.786
 11
99.5682
 21
660.531
  0
LINE
  8
0
 10
99.5682
 20
660.531
 11
99.6185
 21
660.268
  0
LINE
  8
0
 10
99.6185
 20
660.268
 11
99.6353
 21
660
  0
LINE
  8
0
 10
99.6353
 20
660
 11
99.6185
 21
659.732
  0
LINE
  8
0
 10
99.6185
 20
659.732
 11
99.5682
 21
659.469
  0
LINE
  8
0
 10
99.5682
 20
659.469
 11
99.4853
 21
659.214
  0
LINE
  8
0
 10
99.4853
 20
659.214
 11
99.3712
 21
658.971
  0
LINE
  8
0
 10
99.3712
 20
658.971
 11
99.2275
 21
658.745
  0
LINE
  8
0
 10
99.2275
 20
658.745
 11
99.0566
 21
658.538
  0
LINE
  8
0
 10
99.0566
 20
658.538
 11
98.8611
 21
658.355
  0
LINE
  8
0
 10
98.8611
 20
658.355
 11
98.6441
 21
658.197
  0
LINE
  8
0
 10
98.6441
 20
658.197
 11
98.4092
 21
658.068
  0
LINE
  8
0
 10
98.4092
 20
658.068
 11
98.1598
 21
657.969
  0
LINE
  8
0
 10
98.1598
 20
657.969
 11
97.9001
 21
657.903
  0
LINE
  8
0
 10
97.9001
 20
657.903
 11
97.6341
 21
657.869
  0
LINE
  8
0
 10
97.6341
 20
657.869
 11
97.3659
 21
657.869
  0
LINE
  8
0
 10
-97.6341
 20
657.869
 11
-97.9001
 21
657.903
  0
LINE
  8
0
 10
-97.9001
 20
657.903
 11
-98.1598
 21
657.969
  0
LINE
  8
0
 10
-98.1598
 20
657.969
 11
-98.4092
 21
658.068
  0
LINE
  8
0
 10
-98.4092
 20
658.068
 11
-98.6441
 21
658.197
  0
LINE
  8
0
 10
-98.6441
 20
658.197
 11
-98.8611
 21
658.355
  0
LINE
  8
0
 10
-98.8611
 20
658.355
 11
-99.0566
 21
658.538
  0
LINE
  8
0
 10
-99.0566
 20
658.538
 11
-99.2275
 21
658.745
  0
LINE
  8
0
 10
-99.2275
 20
658.745
 11
-99.3712
 21
658.971
  0
LINE
  8
0
 10
-99.3712
 20
658.971
 11
-99.4853
 21
659.214
  0
LINE
  8
0
 10
-99.4853
 20
659.214
 11
-99.5682
 21
659.469
  0
LINE
  8
0
 10
-99.5682
 20
659.469
 11
-99.6185
 21
659.732
  0
LINE
  8
0
 10
-99.6185
 20
659.732
 11
-99.6353
 21
660
  0
LINE
  8
0
 10
-99.6353
 20
660
 11
-99.6185
 21
660.268
  0
LINE
  8
0
 10
-99.6185
 20
660.268
 11
-99.5682
 21
660.531
  0
LINE
  8
0
 10
-99.5682
 20
660.531
 11
-99.4853
 21
660.786
  0
LINE
  8
0
 10
-99.4853
 20
660.786
 11
-99.3712
 21
661.029
  0
LINE
  8
0
 10
-99.3712
 20
661.029
 11
-99.2275
 21
661.255
  0
LINE
  8
0
 10
-99.2275
 20
661.255
 11
-99.0566
 21
661.462
  0
LINE
  8
0
 10
-99.0566
 20
661.462
 11
-98.8611
 21
661.645
  0
LINE
  8
0
 10
-98.8611
 20
661.645
 11
-98.6441
 21
661.803
  0
LINE
  8
0
 10
-98.6441
 20
661.803
 11
-98.4092
 21
661.932
  0
LINE
  8
0
 10
-98.4092
 20
661.932
 11
-98.1598
 21
662.031
  0
LINE
  8
0
 10
-98.1598
 20
662.031
 11
-97.9001
 21
662.097
  0
LINE
  8
0
 10
-97.9001
 20
662.097
 11
-97.6341
 21
662.131
  0
LINE
  8
0
 10
-97.6341
 20
662.131
 11
-97.3659
 21
662.131
  0
LINE
  8
0
 10
-97.3659
 20
662.131
 11
-97.0999
 21
662.097
  0
LINE
  8
0
 10
-97.0999
 20
662.097
 11
-96.8401
 21
662.031
  0
LINE
  8
0
 10
-96.8401
 20
662.031
 11
-96.5908
 21
661.932
  0
LINE
  8
0
 10
-96.5908
 20
661.932
 11
-96.3559
 21
661.803
  0
LINE
  8
0
 10
-96.3559
 20
661.803
 11
-96.1389
 21
661.645
  0
LINE
  8
0
 10
-96.1389
 20
661.645
 11
-95.9434
 21
661.462
  0
LINE
  8
0
 10
-95.9434
 20
661.462
 11
-95.7725
 21
661.255
  0
LINE
  8
0
 10
-95.7725
 20
661.255
 11
-95.6288
 21
661.029
  0
LINE
  8
0
 10
-95.6288
 20
661.029
 11
-95.5146
 21
660.786
  0
LINE
  8
0
 10
-95.5146
 20
660.786
 11
-95.4318
 21
660.531
  0
LINE
  8
0
 10
-95.4318
 20
660.531
 11
-95.3815
 21
660.268
  0
LINE
  8
0
 10
-95.3815
 20
660.268
 11
-95.3647
 21
660
  0
LINE
  8
0
 10
-95.3647
 20
660
 11
-95.3815
 21
659.732
  0
LINE
  8
0
 10
-95.3815
 20
659.732
 11
-95.4318
 21
659.469
  0
LINE
  8
0
 10
-95.4318
 20
659.469
 11
-95.5146
 21
659.214
  0
LINE
  8
0
 10
-95.5146
 20
659.214
 11
-95.6288
 21
658.971
  0
LINE
  8
0
 10
-95.6288
 20
658.971
 11
-95.7725
 21
658.745
  0
LINE
  8
0
 10
-95.7725
 20
658.745
 11
-95.9434
 21
658.538
  0
LINE
  8
0
 10
-95.9434
 20
658.538
 11
-96.1389
 21
658.355
  0
LINE
  8
0
 10
-96.1389
 20
658.355
 11
-96.3559
 21
658.197
  0
LINE
  8
0
 10
-96.3559
 20
658.197
 11
-96.5908
 21
658.068
  0
LINE
  8
0
 10
-96.5908
 20
658.068
 11
-96.8401
 21
657.969
  0
LINE
  8
0
 10
-96.8401
 20
657.969
 11
-97.0999
 21
657.903
  0
LINE
  8
0
 10
-97.0999
 20
657.903
 11
-97.3659
 21
657.869
  0
LINE
  8
0
 10
-97.3659
 20
657.869
 11
-97.6341
 21
657.869
  0
ENDSEC
  0
SECTION
  2
OBJECTS
  0
DICTIONARY
  0
ENDSEC
  0
EOF
