<?xml version="1.0" standalone="no"?>
<!DOCTYPE svg PUBLIC "-//W3C//DTD SVG 1.1//EN" "http://www.w3.org/Graphics/SVG/1.1/DTD/svg11.dtd">
<svg width="90mm" height="387mm" viewBox="-45 -738 90 387" xmlns="http://www.w3.org/2000/svg" version="1.1">
<title>OpenSCAD Model</title>
<path d="
M 40.9369,-648.089 L 41.5451,-648.245 L 42.1289,-648.476 L 42.6791,-648.778 L 43.1871,-649.147 L 43.6448,-649.577
 L 44.0451,-650.061 L 44.3815,-650.591 L 44.6489,-651.159 L 44.8429,-651.757 L 44.9606,-652.373 L 45,-653
 L 45,-733 L 44.9606,-733.627 L 44.8429,-734.243 L 44.6489,-734.841 L 44.3815,-735.409 L 44.0451,-735.939
 L 43.6448,-736.423 L 43.1871,-736.853 L 42.6791,-737.222 L 42.1289,-737.524 L 41.5451,-737.755 L 40.9369,-737.911
 L 40.3139,-737.99 L -40.3139,-737.99 L -40.9369,-737.911 L -41.5451,-737.755 L -42.1289,-737.524 L -42.6791,-737.222
 L -43.1871,-736.853 L -43.6448,-736.423 L -44.0451,-735.939 L -44.3815,-735.409 L -44.6489,-734.841 L -44.8429,-734.243
 L -44.9606,-733.627 L -45,-733 L -45,-653 L -44.9606,-652.373 L -44.8429,-651.757 L -44.6489,-651.159
 L -44.3815,-650.591 L -44.0451,-650.061 L -43.6448,-649.577 L -43.1871,-649.147 L -42.6791,-648.778 L -42.1289,-648.476
 L -41.5451,-648.245 L -40.9369,-648.089 L -40.3139,-648.01 L 40.3139,-648.01 z
M -39.7512,-649.508 L -40.2495,-649.571 L -40.7361,-649.696 L -41.2031,-649.881 L -41.6433,-650.123 L -42.0497,-650.418
 L -42.4159,-650.762 L -42.7361,-651.149 L -43.0052,-651.573 L -43.2191,-652.028 L -43.3743,-652.505 L -43.4685,-652.999
 L -43.5,-653.5 L -43.5,-732.5 L -43.4685,-733.001 L -43.3743,-733.495 L -43.2191,-733.972 L -43.0052,-734.427
 L -42.7361,-734.851 L -42.4159,-735.238 L -42.0497,-735.582 L -41.6433,-735.877 L -41.2031,-736.119 L -40.7361,-736.304
 L -40.2495,-736.429 L -39.7512,-736.492 L 39.7512,-736.492 L 40.2495,-736.429 L 40.7361,-736.304 L 41.2031,-736.119
 L 41.6433,-735.877 L 42.0497,-735.582 L 42.4159,-735.238 L 42.7361,-734.851 L 43.0052,-734.427 L 43.2191,-733.972
 L 43.3743,-733.495 L 43.4685,-733.001 L 43.5,-732.5 L 43.5,-653.5 L 43.4685,-652.999 L 43.3743,-652.505
 L 43.2191,-652.028 L 43.0052,-651.573 L 42.7361,-651.149 L 42.4159,-650.762 L 42.0497,-650.418 L 41.6433,-650.123
 L 41.2031,-649.881 L 40.7361,-649.696 L 40.2495,-649.571 L 39.7512,-649.508 z
M 40.9369,-549.089 L 41.5451,-549.245 L 42.1289,-549.476 L 42.6791,-549.778 L 43.1871,-550.147 L 43.6448,-550.577
 L 44.0451,-551.061 L 44.3815,-551.591 L 44.6489,-552.159 L 44.8429,-552.757 L 44.9606,-553.373 L 45,-554
 L 45,-634 L 44.9606,-634.627 L 44.8429,-635.243 L 44.6489,-635.841 L 44.3815,-636.409 L 44.0451,-636.939
 L 43.6448,-637.423 L 43.1871,-637.853 L 42.6791,-638.222 L 42.1289,-638.524 L 41.5451,-638.755 L 40.9369,-638.911
 L 40.3139,-638.99 L -40.3139,-638.99 L -40.9369,-638.911 L -41.5451,-638.755 L -42.1289,-638.524 L -42.6791,-638.222
 L -43.1871,-637.853 L -43.6448,-637.423 L -44.0451,-636.939 L -44.3815,-636.409 L -44.6489,-635.841 L -44.8429,-635.243
 L -44.9606,-634.627 L -45,-634 L -45,-554 L -44.9606,-553.373 L -44.8429,-552.757 L -44.6489,-552.159
 L -44.3815,-551.591 L -44.0451,-551.061 L -43.6448,-550.577 L -43.1871,-550.147 L -42.6791,-549.778 L -42.1289,-549.476
 L -41.5451,-549.245 L -40.9369,-549.089 L -40.3139,-549.01 L 40.3139,-549.01 z
M -39.7512,-550.508 L -40.2495,-550.571 L -40.7361,-550.696 L -41.2031,-550.881 L -41.6433,-551.123 L -42.0497,-551.418
 L -42.4159,-551.762 L -42.7361,-552.149 L -43.0052,-552.573 L -43.2191,-553.028 L -43.3743,-553.505 L -43.4685,-553.999
 L -43.5,-554.5 L -43.5,-633.5 L -43.4685,-634.001 L -43.3743,-634.495 L -43.2191,-634.972 L -43.0052,-635.427
 L -42.7361,-635.851 L -42.4159,-636.238 L -42.0497,-636.582 L -41.6433,-636.877 L -41.2031,-637.119 L -40.7361,-637.304
 L -40.2495,-637.429 L -39.7512,-637.492 L 39.7512,-637.492 L 40.2495,-637.429 L 40.7361,-637.304 L 41.2031,-637.119
 L 41.6433,-636.877 L 42.0497,-636.582 L 42.4159,-636.238 L 42.7361,-635.851 L 43.0052,-635.427 L 43.2191,-634.972
 L 43.3743,-634.495 L 43.4685,-634.001 L 43.5,-633.5 L 43.5,-554.5 L 43.4685,-553.999 L 43.3743,-553.505
 L 43.2191,-553.028 L 43.0052,-552.573 L 42.7361,-552.149 L 42.4159,-551.762 L 42.0497,-551.418 L 41.6433,-551.123
 L 41.2031,-550.881 L 40.7361,-550.696 L 40.2495,-550.571 L 39.7512,-550.508 z
M 40.9369,-450.089 L 41.5451,-450.245 L 42.1289,-450.476 L 42.6791,-450.778 L 43.1871,-451.147 L 43.6448,-451.577
 L 44.0451,-452.061 L 44.3815,-452.591 L 44.6489,-453.159 L 44.8429,-453.757 L 44.9606,-454.373 L 45,-455
 L 45,-535 L 44.9606,-535.627 L 44.8429,-536.243 L 44.6489,-536.841 L 44.3815,-537.409 L 44.0451,-537.939
 L 43.6448,-538.423 L 43.1871,-538.853 L 42.6791,-539.222 L 42.1289,-539.524 L 41.5451,-539.755 L 40.9369,-539.911
 L 40.3139,-539.99 L -40.3139,-539.99 L -40.9369,-539.911 L -41.5451,-539.755 L -42.1289,-539.524 L -42.6791,-539.222
 L -43.1871,-538.853 L -43.6448,-538.423 L -44.0451,-537.939 L -44.3815,-537.409 L -44.6489,-536.841 L -44.8429,-536.243
 L -44.9606,-535.627 L -45,-535 L -45,-455 L -44.9606,-454.373 L -44.8429,-453.757 L -44.6489,-453.159
 L -44.3815,-452.591 L -44.0451,-452.061 L -43.6448,-451.577 L -43.1871,-451.147 L -42.6791,-450.778 L -42.1289,-450.476
 L -41.5451,-450.245 L -40.9369,-450.089 L -40.3139,-450.01 L 40.3139,-450.01 z
M -39.6954,-452.393 L -40.0833,-452.442 L -40.4619,-452.539 L -40.8254,-452.683 L -41.168,-452.872 L -41.4842,-453.101
 L -41.7692,-453.369 L -42.0184,-453.67 L -42.2279,-454 L -42.3943,-454.354 L -42.5151,-454.726 L -42.5884,-455.11
 L -42.6129,-455.5 L -42.6129,-534.5 L -42.5884,-534.89 L -42.5151,-535.274 L -42.3943,-535.646 L -42.2279,-536
 L -42.0184,-536.33 L -41.7692,-536.631 L -41.4842,-536.899 L -41.168,-537.128 L -40.8254,-537.317 L -40.4619,-537.461
 L -40.0833,-537.558 L -39.6954,-537.607 L 39.6954,-537.607 L 40.0833,-537.558 L 40.4619,-537.461 L 40.8254,-537.317
 L 41.168,-537.128 L 41.4842,-536.899 L 41.7692,-536.631 L 42.0184,-536.33 L 42.2279,-536 L 42.3943,-535.646
 L 42.5151,-535.274 L 42.5884,-534.89 L 42.6129,-534.5 L 42.6129,-455.5 L 42.5884,-455.11 L 42.5151,-454.726
 L 42.3943,-454.354 L 42.2279,-454 L 42.0184,-453.67 L 41.7692,-453.369 L 41.4842,-453.101 L 41.168,-452.872
 L 40.8254,-452.683 L 40.4619,-452.539 L 40.0833,-452.442 L 39.6954,-452.393 z
M 40.9369,-351.089 L 41.5451,-351.245 L 42.1289,-351.476 L 42.6791,-351.778 L 43.1871,-352.147 L 43.6448,-352.577
 L 44.0451,-353.061 L 44.3815,-353.591 L 44.6489,-354.159 L 44.8429,-354.757 L 44.9606,-355.373 L 45,-356
 L 45,-436 L 44.9606,-436.627 L 44.8429,-437.243 L 44.6489,-437.841 L 44.3815,-438.409 L 44.0451,-438.939
 L 43.6448,-439.423 L 43.1871,-439.853 L 42.6791,-440.222 L 42.1289,-440.524 L 41.5451,-440.755 L 40.9369,-440.911
 L 40.3139,-440.99 L -40.3139,-440.99 L -40.9369,-440.911 L -41.5451,-440.755 L -42.1289,-440.524 L -42.6791,-440.222
 L -43.1871,-439.853 L -43.6448,-439.423 L -44.0451,-438.939 L -44.3815,-438.409 L -44.6489,-437.841 L -44.8429,-437.243
 L -44.9606,-436.627 L -45,-436 L -45,-356 L -44.9606,-355.373 L -44.8429,-354.757 L -44.6489,-354.159
 L -44.3815,-353.591 L -44.0451,-353.061 L -43.6448,-352.577 L -43.1871,-352.147 L -42.6791,-351.778 L -42.1289,-351.476
 L -41.5451,-351.245 L -40.9369,-351.089 L -40.3139,-351.01 L 40.3139,-351.01 z
M 37.3659,-431.369 L 37.0999,-431.403 L 36.8401,-431.469 L 36.5908,-431.568 L 36.3559,-431.697 L 36.1389,-431.855
 L 35.9434,-432.038 L 35.7725,-432.245 L 35.6288,-432.471 L 35.5146,-432.714 L 35.4318,-432.969 L 35.3815,-433.232
 L 35.3647,-433.5 L 35.3815,-433.768 L 35.4318,-434.031 L 35.5146,-434.286 L 35.6288,-434.529 L 35.7725,-434.755
 L 35.9434,-434.962 L 36.1389,-435.145 L 36.3559,-435.303 L 36.5908,-435.432 L 36.8401,-435.531 L 37.0999,-435.597
 L 37.3659,-435.631 L 37.6341,-435.631 L 37.9001,-435.597 L 38.1598,-435.531 L 38.4092,-435.432 L 38.6441,-435.303
 L 38.8611,-435.145 L 39.0565,-434.962 L 39.2275,-434.755 L 39.3712,-434.529 L 39.4853,-434.286 L 39.5682,-434.031
 L 39.6185,-433.768 L 39.6353,-433.5 L 39.6185,-433.232 L 39.5682,-432.969 L 39.4853,-432.714 L 39.3712,-432.471
 L 39.2275,-432.245 L 39.0565,-432.038 L 38.8611,-431.855 L 38.6441,-431.697 L 38.4092,-431.568 L 38.1598,-431.469
 L 37.9001,-431.403 L 37.6341,-431.369 z
M -37.6341,-431.369 L -37.9001,-431.403 L -38.1598,-431.469 L -38.4092,-431.568 L -38.6441,-431.697 L -38.8611,-431.855
 L -39.0565,-432.038 L -39.2275,-432.245 L -39.3712,-432.471 L -39.4853,-432.714 L -39.5682,-432.969 L -39.6185,-433.232
 L -39.6353,-433.5 L -39.6185,-433.768 L -39.5682,-434.031 L -39.4853,-434.286 L -39.3712,-434.529 L -39.2275,-434.755
 L -39.0565,-434.962 L -38.8611,-435.145 L -38.6441,-435.303 L -38.4092,-435.432 L -38.1598,-435.531 L -37.9001,-435.597
 L -37.6341,-435.631 L -37.3659,-435.631 L -37.0999,-435.597 L -36.8401,-435.531 L -36.5908,-435.432 L -36.3559,-435.303
 L -36.1389,-435.145 L -35.9434,-434.962 L -35.7725,-434.755 L -35.6288,-434.529 L -35.5146,-434.286 L -35.4318,-434.031
 L -35.3815,-433.768 L -35.3647,-433.5 L -35.3815,-433.232 L -35.4318,-432.969 L -35.5146,-432.714 L -35.6288,-432.471
 L -35.7725,-432.245 L -35.9434,-432.038 L -36.1389,-431.855 L -36.3559,-431.697 L -36.5908,-431.568 L -36.8401,-431.469
 L -37.0999,-431.403 L -37.3659,-431.369 z
M 37.3659,-356.369 L 37.0999,-356.403 L 36.8401,-356.469 L 36.5908,-356.568 L 36.3559,-356.697 L 36.1389,-356.855
 L 35.9434,-357.038 L 35.7725,-357.245 L 35.6288,-357.471 L 35.5146,-357.714 L 35.4318,-357.969 L 35.3815,-358.232
 L 35.3647,-358.5 L 35.3815,-358.768 L 35.4318,-359.031 L 35.5146,-359.286 L 35.6288,-359.529 L 35.7725,-359.755
 L 35.9434,-359.962 L 36.1389,-360.145 L 36.3559,-360.303 L 36.5908,-360.432 L 36.8401,-360.531 L 37.0999,-360.597
 L 37.3659,-360.631 L 37.6341,-360.631 L 37.9001,-360.597 L 38.1598,-360.531 L 38.4092,-360.432 L 38.6441,-360.303
 L 38.8611,-360.145 L 39.0565,-359.962 L 39.2275,-359.755 L 39.3712,-359.529 L 39.4853,-359.286 L 39.5682,-359.031
 L 39.6185,-358.768 L 39.6353,-358.5 L 39.6185,-358.232 L 39.5682,-357.969 L 39.4853,-357.714 L 39.3712,-357.471
 L 39.2275,-357.245 L 39.0565,-357.038 L 38.8611,-356.855 L 38.6441,-356.697 L 38.4092,-356.568 L 38.1598,-356.469
 L 37.9001,-356.403 L 37.6341,-356.369 z
M -37.6341,-356.369 L -37.9001,-356.403 L -38.1598,-356.469 L -38.4092,-356.568 L -38.6441,-356.697 L -38.8611,-356.855
 L -39.0565,-357.038 L -39.2275,-357.245 L -39.3712,-357.471 L -39.4853,-357.714 L -39.5682,-357.969 L -39.6185,-358.232
 L -39.6353,-358.5 L -39.6185,-358.768 L -39.5682,-359.031 L -39.4853,-359.286 L -39.3712,-359.529 L -39.2275,-359.755
 L -39.0565,-359.962 L -38.8611,-360.145 L -38.6441,-360.303 L -38.4092,-360.432 L -38.1598,-360.531 L -37.9001,-360.597
 L -37.6341,-360.631 L -37.3659,-360.631 L -37.0999,-360.597 L -36.8401,-360.531 L -36.5908,-360.432 L -36.3559,-360.303
 L -36.1389,-360.145 L -35.9434,-359.962 L -35.7725,-359.755 L -35.6288,-359.529 L -35.5146,-359.286 L -35.4318,-359.031
 L -35.3815,-358.768 L -35.3647,-358.5 L -35.3815,-358.232 L -35.4318,-357.969 L -35.5146,-357.714 L -35.6288,-357.471
 L -35.7725,-357.245 L -35.9434,-357.038 L -36.1389,-356.855 L -36.3559,-356.697 L -36.5908,-356.568 L -36.8401,-356.469
 L -37.0999,-356.403 L -37.3659,-356.369 z
" stroke="black" fill="lightgray" stroke-width="0.5"/>
</svg>
