  0
SECTION
  2
BLOCKS
  0
ENDSEC
  0
SECTION
  2
ENTITIES
  0
LINE
  8
0
 10
6.48065
 20
-189.456
 11
12.5996
 21
-188.94
  0
LINE
  8
0
 10
12.5996
 20
-188.94
 11
18.4784
 21
-188.079
  0
LINE
  8
0
 10
18.4784
 20
-188.079
 11
24.1173
 21
-186.875
  0
LINE
  8
0
 10
24.1173
 20
-186.875
 11
29.516
 21
-185.326
  0
LINE
  8
0
 10
29.516
 20
-185.326
 11
34.6748
 21
-183.434
  0
LINE
  8
0
 10
34.6748
 20
-183.434
 11
39.5934
 21
-181.197
  0
LINE
  8
0
 10
39.5934
 20
-181.197
 11
44.2301
 21
-178.648
  0
LINE
  8
0
 10
44.2301
 20
-178.648
 11
48.5427
 21
-175.822
  0
LINE
  8
0
 10
48.5427
 20
-175.822
 11
52.5314
 21
-172.719
  0
LINE
  8
0
 10
52.5314
 20
-172.719
 11
56.196
 21
-169.337
  0
LINE
  8
0
 10
56.196
 20
-169.337
 11
59.5367
 21
-165.678
  0
LINE
  8
0
 10
59.5367
 20
-165.678
 11
62.5534
 21
-161.742
  0
LINE
  8
0
 10
62.5534
 20
-161.742
 11
65.2461
 21
-157.527
  0
LINE
  8
0
 10
65.2461
 20
-157.527
 11
67.596
 21
-153.08
  0
LINE
  8
0
 10
67.596
 20
-153.08
 11
69.5844
 21
-148.445
  0
LINE
  8
0
 10
69.5844
 20
-148.445
 11
71.2113
 21
-143.622
  0
LINE
  8
0
 10
71.2113
 20
-143.622
 11
72.4766
 21
-138.611
  0
LINE
  8
0
 10
72.4766
 20
-138.611
 11
73.3804
 21
-133.411
  0
LINE
  8
0
 10
73.3804
 20
-133.411
 11
73.9227
 21
-128.024
  0
LINE
  8
0
 10
73.9227
 20
-128.024
 11
74.1035
 21
-122.449
  0
LINE
  8
0
 10
74.1035
 20
-122.449
 11
73.755
 21
-114.459
  0
LINE
  8
0
 10
73.755
 20
-114.459
 11
72.7094
 21
-106.928
  0
LINE
  8
0
 10
72.7094
 20
-106.928
 11
70.9668
 21
-99.8576
  0
LINE
  8
0
 10
70.9668
 20
-99.8576
 11
68.5272
 21
-93.2469
  0
LINE
  8
0
 10
68.5272
 20
-93.2469
 11
65.3905
 21
-87.0961
  0
LINE
  8
0
 10
65.3905
 20
-87.0961
 11
61.5568
 21
-81.4052
  0
LINE
  8
0
 10
61.5568
 20
-81.4052
 11
57.0261
 21
-76.1742
  0
LINE
  8
0
 10
57.0261
 20
-76.1742
 11
51.914
 21
-71.5304
  0
LINE
  8
0
 10
51.914
 20
-71.5304
 11
46.3361
 21
-67.601
  0
LINE
  8
0
 10
46.3361
 20
-67.601
 11
40.2924
 21
-64.386
  0
LINE
  8
0
 10
40.2924
 20
-64.386
 11
33.7829
 21
-61.8855
  0
LINE
  8
0
 10
33.7829
 20
-61.8855
 11
26.8077
 21
-60.0993
  0
LINE
  8
0
 10
26.8077
 20
-60.0993
 11
19.3667
 21
-59.0277
  0
LINE
  8
0
 10
19.3667
 20
-59.0277
 11
11.4599
 21
-58.6705
  0
LINE
  8
0
 10
11.4599
 20
-58.6705
 11
5.41206
 21
-58.9308
  0
LINE
  8
0
 10
5.41206
 20
-58.9308
 11
-0.34079
 21
-59.7119
  0
LINE
  8
0
 10
-0.34079
 20
-59.7119
 11
-5.79868
 21
-61.0137
  0
LINE
  8
0
 10
-5.79868
 20
-61.0137
 11
-10.9616
 21
-62.8361
  0
LINE
  8
0
 10
-10.9616
 20
-62.8361
 11
-15.8295
 21
-65.1793
  0
LINE
  8
0
 10
-15.8295
 20
-65.1793
 11
-20.4024
 21
-68.0432
  0
LINE
  8
0
 10
-20.4024
 20
-68.0432
 11
-24.6803
 21
-71.4278
  0
LINE
  8
0
 10
-24.6803
 20
-71.4278
 11
-21.4199
 21
-25.2242
  0
LINE
  8
0
 10
-21.4199
 20
-25.2242
 11
62.4831
 21
-25.2242
  0
LINE
  8
0
 10
62.4831
 20
-25.2242
 11
62.4831
 21
-6.99013
  0
LINE
  8
0
 10
62.4831
 20
-6.99013
 11
92.3139
 21
-6.99013
  0
LINE
  8
0
 10
92.3139
 20
-6.99013
 11
92.9369
 21
-6.91142
  0
LINE
  8
0
 10
92.9369
 20
-6.91142
 11
93.5451
 21
-6.75528
  0
LINE
  8
0
 10
93.5451
 20
-6.75528
 11
94.1289
 21
-6.52412
  0
LINE
  8
0
 10
94.1289
 20
-6.52412
 11
94.6791
 21
-6.22163
  0
LINE
  8
0
 10
94.6791
 20
-6.22163
 11
95.1871
 21
-5.85255
  0
LINE
  8
0
 10
95.1871
 20
-5.85255
 11
95.6448
 21
-5.42273
  0
LINE
  8
0
 10
95.6448
 20
-5.42273
 11
96.0451
 21
-4.93892
  0
LINE
  8
0
 10
96.0451
 20
-4.93892
 11
96.3815
 21
-4.40877
  0
LINE
  8
0
 10
96.3815
 20
-4.40877
 11
96.6489
 21
-3.84062
  0
LINE
  8
0
 10
96.6489
 20
-3.84062
 11
96.8429
 21
-3.24344
  0
LINE
  8
0
 10
96.8429
 20
-3.24344
 11
96.9606
 21
-2.62666
  0
LINE
  8
0
 10
96.9606
 20
-2.62666
 11
97
 21
-2
  0
LINE
  8
0
 10
97
 20
-2
 11
97
 21
2
  0
LINE
  8
0
 10
97
 20
2
 11
96.9606
 21
2.62666
  0
LINE
  8
0
 10
96.9606
 20
2.62666
 11
96.8429
 21
3.24344
  0
LINE
  8
0
 10
96.8429
 20
3.24344
 11
96.6489
 21
3.84062
  0
LINE
  8
0
 10
96.6489
 20
3.84062
 11
96.3815
 21
4.40877
  0
LINE
  8
0
 10
96.3815
 20
4.40877
 11
96.0451
 21
4.93892
  0
LINE
  8
0
 10
96.0451
 20
4.93892
 11
95.6448
 21
5.42273
  0
LINE
  8
0
 10
95.6448
 20
5.42273
 11
95.1871
 21
5.85255
  0
LINE
  8
0
 10
95.1871
 20
5.85255
 11
94.6791
 21
6.22163
  0
LINE
  8
0
 10
94.6791
 20
6.22163
 11
94.1289
 21
6.52412
  0
LINE
  8
0
 10
94.1289
 20
6.52412
 11
93.5451
 21
6.75528
  0
LINE
  8
0
 10
93.5451
 20
6.75528
 11
92.9369
 21
6.91142
  0
LINE
  8
0
 10
92.9369
 20
6.91142
 11
92.3139
 21
6.99013
  0
LINE
  8
0
 10
92.3139
 20
6.99013
 11
-92.3139
 21
6.99013
  0
LINE
  8
0
 10
-92.3139
 20
6.99013
 11
-92.9369
 21
6.91142
  0
LINE
  8
0
 10
-92.9369
 20
6.91142
 11
-93.5451
 21
6.75528
  0
LINE
  8
0
 10
-93.5451
 20
6.75528
 11
-94.1289
 21
6.52412
  0
LINE
  8
0
 10
-94.1289
 20
6.52412
 11
-94.6791
 21
6.22163
  0
LINE
  8
0
 10
-94.6791
 20
6.22163
 11
-95.1871
 21
5.85255
  0
LINE
  8
0
 10
-95.1871
 20
5.85255
 11
-95.6448
 21
5.42273
  0
LINE
  8
0
 10
-95.6448
 20
5.42273
 11
-96.0451
 21
4.93892
  0
LINE
  8
0
 10
-96.0451
 20
4.93892
 11
-96.3815
 21
4.40877
  0
LINE
  8
0
 10
-96.3815
 20
4.40877
 11
-96.6489
 21
3.84062
  0
LINE
  8
0
 10
-96.6489
 20
3.84062
 11
-96.8429
 21
3.24344
  0
LINE
  8
0
 10
-96.8429
 20
3.24344
 11
-96.9606
 21
2.62666
  0
LINE
  8
0
 10
-96.9606
 20
2.62666
 11
-97
 21
2
  0
LINE
  8
0
 10
-97
 20
2
 11
-97
 21
-2
  0
LINE
  8
0
 10
-97
 20
-2
 11
-96.9606
 21
-2.62666
  0
LINE
  8
0
 10
-96.9606
 20
-2.62666
 11
-96.8429
 21
-3.24344
  0
LINE
  8
0
 10
-96.8429
 20
-3.24344
 11
-96.6489
 21
-3.84062
  0
LINE
  8
0
 10
-96.6489
 20
-3.84062
 11
-96.3815
 21
-4.40877
  0
LINE
  8
0
 10
-96.3815
 20
-4.40877
 11
-96.0451
 21
-4.93892
  0
LINE
  8
0
 10
-96.0451
 20
-4.93892
 11
-95.6448
 21
-5.42273
  0
LINE
  8
0
 10
-95.6448
 20
-5.42273
 11
-95.1871
 21
-5.85255
  0
LINE
  8
0
 10
-95.1871
 20
-5.85255
 11
-94.6791
 21
-6.22163
  0
LINE
  8
0
 10
-94.6791
 20
-6.22163
 11
-94.1289
 21
-6.52412
  0
LINE
  8
0
 10
-94.1289
 20
-6.52412
 11
-93.5451
 21
-6.75528
  0
LINE
  8
0
 10
-93.5451
 20
-6.75528
 11
-92.9369
 21
-6.91142
  0
LINE
  8
0
 10
-92.9369
 20
-6.91142
 11
-92.3139
 21
-6.99013
  0
LINE
  8
0
 10
-92.3139
 20
-6.99013
 11
-58.2915
 21
-6.99013
  0
LINE
  8
0
 10
-58.2915
 20
-6.99013
 11
-64.5053
 21
-103.741
  0
LINE
  8
0
 10
-64.5053
 20
-103.741
 11
-25.6731
 21
-103.741
  0
LINE
  8
0
 10
-25.6731
 20
-103.741
 11
-22.5517
 21
-100.32
  0
LINE
  8
0
 10
-22.5517
 20
-100.32
 11
-19.1816
 21
-97.4242
  0
LINE
  8
0
 10
-19.1816
 20
-97.4242
 11
-15.5629
 21
-95.0553
  0
LINE
  8
0
 10
-15.5629
 20
-95.0553
 11
-11.6955
 21
-93.2128
  0
LINE
  8
0
 10
-11.6955
 20
-93.2128
 11
-7.57945
 21
-91.8968
  0
LINE
  8
0
 10
-7.57945
 20
-91.8968
 11
-3.21472
 21
-91.1071
  0
LINE
  8
0
 10
-3.21472
 20
-91.1071
 11
1.39867
 21
-90.8439
  0
LINE
  8
0
 10
1.39867
 20
-90.8439
 11
5.55499
 21
-91.0247
  0
LINE
  8
0
 10
5.55499
 20
-91.0247
 11
9.43945
 21
-91.567
  0
LINE
  8
0
 10
9.43945
 20
-91.567
 11
13.052
 21
-92.4708
  0
LINE
  8
0
 10
13.052
 20
-92.4708
 11
16.3928
 21
-93.7361
  0
LINE
  8
0
 10
16.3928
 20
-93.7361
 11
19.4616
 21
-95.363
  0
LINE
  8
0
 10
19.4616
 20
-95.363
 11
22.2586
 21
-97.3514
  0
LINE
  8
0
 10
22.2586
 20
-97.3514
 11
24.7837
 21
-99.7014
  0
LINE
  8
0
 10
24.7837
 20
-99.7014
 11
27.0022
 21
-102.352
  0
LINE
  8
0
 10
27.0022
 20
-102.352
 11
28.8794
 21
-105.243
  0
LINE
  8
0
 10
28.8794
 20
-105.243
 11
30.4153
 21
-108.374
  0
LINE
  8
0
 10
30.4153
 20
-108.374
 11
31.6099
 21
-111.745
  0
LINE
  8
0
 10
31.6099
 20
-111.745
 11
32.4632
 21
-115.357
  0
LINE
  8
0
 10
32.4632
 20
-115.357
 11
32.9751
 21
-119.208
  0
LINE
  8
0
 10
32.9751
 20
-119.208
 11
33.1458
 21
-123.3
  0
LINE
  8
0
 10
33.1458
 20
-123.3
 11
32.9693
 21
-127.884
  0
LINE
  8
0
 10
32.9693
 20
-127.884
 11
32.4399
 21
-132.162
  0
LINE
  8
0
 10
32.4399
 20
-132.162
 11
31.5577
 21
-136.133
  0
LINE
  8
0
 10
31.5577
 20
-136.133
 11
30.3225
 21
-139.798
  0
LINE
  8
0
 10
30.3225
 20
-139.798
 11
28.7344
 21
-143.156
  0
LINE
  8
0
 10
28.7344
 20
-143.156
 11
26.7934
 21
-146.207
  0
LINE
  8
0
 10
26.7934
 20
-146.207
 11
24.4994
 21
-148.952
  0
LINE
  8
0
 10
24.4994
 20
-148.952
 11
21.8937
 21
-151.359
  0
LINE
  8
0
 10
21.8937
 20
-151.359
 11
19.016
 21
-153.395
  0
LINE
  8
0
 10
19.016
 20
-153.395
 11
15.8663
 21
-155.061
  0
LINE
  8
0
 10
15.8663
 20
-155.061
 11
12.4447
 21
-156.357
  0
LINE
  8
0
 10
12.4447
 20
-156.357
 11
8.75107
 21
-157.282
  0
LINE
  8
0
 10
8.75107
 20
-157.282
 11
4.78554
 21
-157.838
  0
LINE
  8
0
 10
4.78554
 20
-157.838
 11
0.548035
 21
-158.023
  0
LINE
  8
0
 10
0.548035
 20
-158.023
 11
-2.81003
 21
-157.904
  0
LINE
  8
0
 10
-2.81003
 20
-157.904
 11
-6.00038
 21
-157.549
  0
LINE
  8
0
 10
-6.00038
 20
-157.549
 11
-9.02304
 21
-156.956
  0
LINE
  8
0
 10
-9.02304
 20
-156.956
 11
-11.878
 21
-156.126
  0
LINE
  8
0
 10
-11.878
 20
-156.126
 11
-14.5652
 21
-155.058
  0
LINE
  8
0
 10
-14.5652
 20
-155.058
 11
-17.0847
 21
-153.754
  0
LINE
  8
0
 10
-17.0847
 20
-153.754
 11
-19.4365
 21
-152.213
  0
LINE
  8
0
 10
-19.4365
 20
-152.213
 11
-21.6056
 21
-150.41
  0
LINE
  8
0
 10
-21.6056
 20
-150.41
 11
-23.578
 21
-148.325
  0
LINE
  8
0
 10
-23.578
 20
-148.325
 11
-25.3537
 21
-145.955
  0
LINE
  8
0
 10
-25.3537
 20
-145.955
 11
-26.9329
 21
-143.303
  0
LINE
  8
0
 10
-26.9329
 20
-143.303
 11
-28.3154
 21
-140.367
  0
LINE
  8
0
 10
-28.3154
 20
-140.367
 11
-29.5013
 21
-137.148
  0
LINE
  8
0
 10
-29.5013
 20
-137.148
 11
-30.4905
 21
-133.645
  0
LINE
  8
0
 10
-30.4905
 20
-133.645
 11
-70.3155
 21
-136.905
  0
LINE
  8
0
 10
-70.3155
 20
-136.905
 11
-68.8189
 21
-143.987
  0
LINE
  8
0
 10
-68.8189
 20
-143.987
 11
-66.7582
 21
-150.575
  0
LINE
  8
0
 10
-66.7582
 20
-150.575
 11
-64.1335
 21
-156.668
  0
LINE
  8
0
 10
-64.1335
 20
-156.668
 11
-60.9448
 21
-162.266
  0
LINE
  8
0
 10
-60.9448
 20
-162.266
 11
-57.192
 21
-167.37
  0
LINE
  8
0
 10
-57.192
 20
-167.37
 11
-52.8752
 21
-171.979
  0
LINE
  8
0
 10
-52.8752
 20
-171.979
 11
-47.9943
 21
-176.093
  0
LINE
  8
0
 10
-47.9943
 20
-176.093
 11
-42.587
 21
-179.684
  0
LINE
  8
0
 10
-42.587
 20
-179.684
 11
-36.6909
 21
-182.722
  0
LINE
  8
0
 10
-36.6909
 20
-182.722
 11
-30.306
 21
-185.208
  0
LINE
  8
0
 10
-30.306
 20
-185.208
 11
-23.4323
 21
-187.142
  0
LINE
  8
0
 10
-23.4323
 20
-187.142
 11
-16.0697
 21
-188.523
  0
LINE
  8
0
 10
-16.0697
 20
-188.523
 11
-8.21843
 21
-189.352
  0
LINE
  8
0
 10
-8.21843
 20
-189.352
 11
0.121674
 21
-189.628
  0
LINE
  8
0
 10
0.121674
 20
-189.628
 11
6.48065
 21
-189.456
  0
LINE
  8
0
 10
-15.1884
 20
-2.99408
 11
-15.5621
 21
-2.94685
  0
LINE
  8
0
 10
-15.5621
 20
-2.94685
 11
-15.927
 21
-2.85316
  0
LINE
  8
0
 10
-15.927
 20
-2.85316
 11
-16.2773
 21
-2.71448
  0
LINE
  8
0
 10
-16.2773
 20
-2.71448
 11
-16.6075
 21
-2.53297
  0
LINE
  8
0
 10
-16.6075
 20
-2.53297
 11
-16.9123
 21
-2.31154
  0
LINE
  8
0
 10
-16.9123
 20
-2.31154
 11
-17.1869
 21
-2.05363
  0
LINE
  8
0
 10
-17.1869
 20
-2.05363
 11
-17.427
 21
-1.76335
  0
LINE
  8
0
 10
-17.427
 20
-1.76335
 11
-17.6289
 21
-1.44525
  0
LINE
  8
0
 10
-17.6289
 20
-1.44525
 11
-17.7893
 21
-1.10437
  0
LINE
  8
0
 10
-17.7893
 20
-1.10437
 11
-17.9057
 21
-0.746063
  0
LINE
  8
0
 10
-17.9057
 20
-0.746063
 11
-17.9763
 21
-0.375992
  0
LINE
  8
0
 10
-17.9763
 20
-0.375992
 11
-18
 21
0
  0
LINE
  8
0
 10
-18
 20
0
 11
-17.9763
 21
0.375992
  0
LINE
  8
0
 10
-17.9763
 20
0.375992
 11
-17.9057
 21
0.746063
  0
LINE
  8
0
 10
-17.9057
 20
0.746063
 11
-17.7893
 21
1.10437
  0
LINE
  8
0
 10
-17.7893
 20
1.10437
 11
-17.6289
 21
1.44525
  0
LINE
  8
0
 10
-17.6289
 20
1.44525
 11
-17.427
 21
1.76335
  0
LINE
  8
0
 10
-17.427
 20
1.76335
 11
-17.1869
 21
2.05363
  0
LINE
  8
0
 10
-17.1869
 20
2.05363
 11
-16.9123
 21
2.31154
  0
LINE
  8
0
 10
-16.9123
 20
2.31154
 11
-16.6075
 21
2.53297
  0
LINE
  8
0
 10
-16.6075
 20
2.53297
 11
-16.2773
 21
2.71448
  0
LINE
  8
0
 10
-16.2773
 20
2.71448
 11
-15.927
 21
2.85316
  0
LINE
  8
0
 10
-15.927
 20
2.85316
 11
-15.5621
 21
2.94685
  0
LINE
  8
0
 10
-15.5621
 20
2.94685
 11
-15.1884
 21
2.99408
  0
LINE
  8
0
 10
-15.1884
 20
2.99408
 11
-14.8116
 21
2.99408
  0
LINE
  8
0
 10
-14.8116
 20
2.99408
 11
-14.4379
 21
2.94685
  0
LINE
  8
0
 10
-14.4379
 20
2.94685
 11
-14.0729
 21
2.85316
  0
LINE
  8
0
 10
-14.0729
 20
2.85316
 11
-13.7227
 21
2.71448
  0
LINE
  8
0
 10
-13.7227
 20
2.71448
 11
-13.3925
 21
2.53297
  0
LINE
  8
0
 10
-13.3925
 20
2.53297
 11
-13.0877
 21
2.31154
  0
LINE
  8
0
 10
-13.0877
 20
2.31154
 11
-12.8131
 21
2.05363
  0
LINE
  8
0
 10
-12.8131
 20
2.05363
 11
-12.5729
 21
1.76335
  0
LINE
  8
0
 10
-12.5729
 20
1.76335
 11
-12.3711
 21
1.44525
  0
LINE
  8
0
 10
-12.3711
 20
1.44525
 11
-12.2107
 21
1.10437
  0
LINE
  8
0
 10
-12.2107
 20
1.10437
 11
-12.0942
 21
0.746063
  0
LINE
  8
0
 10
-12.0942
 20
0.746063
 11
-12.0237
 21
0.375992
  0
LINE
  8
0
 10
-12.0237
 20
0.375992
 11
-12
 21
0
  0
LINE
  8
0
 10
-12
 20
0
 11
-12.0237
 21
-0.375992
  0
LINE
  8
0
 10
-12.0237
 20
-0.375992
 11
-12.0942
 21
-0.746063
  0
LINE
  8
0
 10
-12.0942
 20
-0.746063
 11
-12.2107
 21
-1.10437
  0
LINE
  8
0
 10
-12.2107
 20
-1.10437
 11
-12.3711
 21
-1.44525
  0
LINE
  8
0
 10
-12.3711
 20
-1.44525
 11
-12.5729
 21
-1.76335
  0
LINE
  8
0
 10
-12.5729
 20
-1.76335
 11
-12.8131
 21
-2.05363
  0
LINE
  8
0
 10
-12.8131
 20
-2.05363
 11
-13.0877
 21
-2.31154
  0
LINE
  8
0
 10
-13.0877
 20
-2.31154
 11
-13.3925
 21
-2.53297
  0
LINE
  8
0
 10
-13.3925
 20
-2.53297
 11
-13.7227
 21
-2.71448
  0
LINE
  8
0
 10
-13.7227
 20
-2.71448
 11
-14.0729
 21
-2.85316
  0
LINE
  8
0
 10
-14.0729
 20
-2.85316
 11
-14.4379
 21
-2.94685
  0
LINE
  8
0
 10
-14.4379
 20
-2.94685
 11
-14.8116
 21
-2.99408
  0
LINE
  8
0
 10
-14.8116
 20
-2.99408
 11
-15.1884
 21
-2.99408
  0
LINE
  8
0
 10
-30.1884
 20
-2.99408
 11
-30.5621
 21
-2.94685
  0
LINE
  8
0
 10
-30.5621
 20
-2.94685
 11
-30.927
 21
-2.85316
  0
LINE
  8
0
 10
-30.927
 20
-2.85316
 11
-31.2773
 21
-2.71448
  0
LINE
  8
0
 10
-31.2773
 20
-2.71448
 11
-31.6075
 21
-2.53297
  0
LINE
  8
0
 10
-31.6075
 20
-2.53297
 11
-31.9123
 21
-2.31154
  0
LINE
  8
0
 10
-31.9123
 20
-2.31154
 11
-32.1869
 21
-2.05363
  0
LINE
  8
0
 10
-32.1869
 20
-2.05363
 11
-32.427
 21
-1.76335
  0
LINE
  8
0
 10
-32.427
 20
-1.76335
 11
-32.6289
 21
-1.44525
  0
LINE
  8
0
 10
-32.6289
 20
-1.44525
 11
-32.7893
 21
-1.10437
  0
LINE
  8
0
 10
-32.7893
 20
-1.10437
 11
-32.9057
 21
-0.746063
  0
LINE
  8
0
 10
-32.9057
 20
-0.746063
 11
-32.9763
 21
-0.375992
  0
LINE
  8
0
 10
-32.9763
 20
-0.375992
 11
-33
 21
0
  0
LINE
  8
0
 10
-33
 20
0
 11
-32.9763
 21
0.375992
  0
LINE
  8
0
 10
-32.9763
 20
0.375992
 11
-32.9057
 21
0.746063
  0
LINE
  8
0
 10
-32.9057
 20
0.746063
 11
-32.7893
 21
1.10437
  0
LINE
  8
0
 10
-32.7893
 20
1.10437
 11
-32.6289
 21
1.44525
  0
LINE
  8
0
 10
-32.6289
 20
1.44525
 11
-32.427
 21
1.76335
  0
LINE
  8
0
 10
-32.427
 20
1.76335
 11
-32.1869
 21
2.05363
  0
LINE
  8
0
 10
-32.1869
 20
2.05363
 11
-31.9123
 21
2.31154
  0
LINE
  8
0
 10
-31.9123
 20
2.31154
 11
-31.6075
 21
2.53297
  0
LINE
  8
0
 10
-31.6075
 20
2.53297
 11
-31.2773
 21
2.71448
  0
LINE
  8
0
 10
-31.2773
 20
2.71448
 11
-30.927
 21
2.85316
  0
LINE
  8
0
 10
-30.927
 20
2.85316
 11
-30.5621
 21
2.94685
  0
LINE
  8
0
 10
-30.5621
 20
2.94685
 11
-30.1884
 21
2.99408
  0
LINE
  8
0
 10
-30.1884
 20
2.99408
 11
-29.8116
 21
2.99408
  0
LINE
  8
0
 10
-29.8116
 20
2.99408
 11
-29.4379
 21
2.94685
  0
LINE
  8
0
 10
-29.4379
 20
2.94685
 11
-29.0729
 21
2.85316
  0
LINE
  8
0
 10
-29.0729
 20
2.85316
 11
-28.7227
 21
2.71448
  0
LINE
  8
0
 10
-28.7227
 20
2.71448
 11
-28.3925
 21
2.53297
  0
LINE
  8
0
 10
-28.3925
 20
2.53297
 11
-28.0877
 21
2.31154
  0
LINE
  8
0
 10
-28.0877
 20
2.31154
 11
-27.8131
 21
2.05363
  0
LINE
  8
0
 10
-27.8131
 20
2.05363
 11
-27.5729
 21
1.76335
  0
LINE
  8
0
 10
-27.5729
 20
1.76335
 11
-27.3711
 21
1.44525
  0
LINE
  8
0
 10
-27.3711
 20
1.44525
 11
-27.2107
 21
1.10437
  0
LINE
  8
0
 10
-27.2107
 20
1.10437
 11
-27.0942
 21
0.746063
  0
LINE
  8
0
 10
-27.0942
 20
0.746063
 11
-27.0237
 21
0.375992
  0
LINE
  8
0
 10
-27.0237
 20
0.375992
 11
-27
 21
0
  0
LINE
  8
0
 10
-27
 20
0
 11
-27.0237
 21
-0.375992
  0
LINE
  8
0
 10
-27.0237
 20
-0.375992
 11
-27.0942
 21
-0.746063
  0
LINE
  8
0
 10
-27.0942
 20
-0.746063
 11
-27.2107
 21
-1.10437
  0
LINE
  8
0
 10
-27.2107
 20
-1.10437
 11
-27.3711
 21
-1.44525
  0
LINE
  8
0
 10
-27.3711
 20
-1.44525
 11
-27.5729
 21
-1.76335
  0
LINE
  8
0
 10
-27.5729
 20
-1.76335
 11
-27.8131
 21
-2.05363
  0
LINE
  8
0
 10
-27.8131
 20
-2.05363
 11
-28.0877
 21
-2.31154
  0
LINE
  8
0
 10
-28.0877
 20
-2.31154
 11
-28.3925
 21
-2.53297
  0
LINE
  8
0
 10
-28.3925
 20
-2.53297
 11
-28.7227
 21
-2.71448
  0
LINE
  8
0
 10
-28.7227
 20
-2.71448
 11
-29.0729
 21
-2.85316
  0
LINE
  8
0
 10
-29.0729
 20
-2.85316
 11
-29.4379
 21
-2.94685
  0
LINE
  8
0
 10
-29.4379
 20
-2.94685
 11
-29.8116
 21
-2.99408
  0
LINE
  8
0
 10
-29.8116
 20
-2.99408
 11
-30.1884
 21
-2.99408
  0
LINE
  8
0
 10
44.8116
 20
-2.99408
 11
44.4379
 21
-2.94685
  0
LINE
  8
0
 10
44.4379
 20
-2.94685
 11
44.0729
 21
-2.85316
  0
LINE
  8
0
 10
44.0729
 20
-2.85316
 11
43.7227
 21
-2.71448
  0
LINE
  8
0
 10
43.7227
 20
-2.71448
 11
43.3925
 21
-2.53297
  0
LINE
  8
0
 10
43.3925
 20
-2.53297
 11
43.0877
 21
-2.31154
  0
LINE
  8
0
 10
43.0877
 20
-2.31154
 11
42.8131
 21
-2.05363
  0
LINE
  8
0
 10
42.8131
 20
-2.05363
 11
42.5729
 21
-1.76335
  0
LINE
  8
0
 10
42.5729
 20
-1.76335
 11
42.3711
 21
-1.44525
  0
LINE
  8
0
 10
42.3711
 20
-1.44525
 11
42.2107
 21
-1.10437
  0
LINE
  8
0
 10
42.2107
 20
-1.10437
 11
42.0942
 21
-0.746063
  0
LINE
  8
0
 10
42.0942
 20
-0.746063
 11
42.0237
 21
-0.375992
  0
LINE
  8
0
 10
42.0237
 20
-0.375992
 11
42
 21
0
  0
LINE
  8
0
 10
42
 20
0
 11
42.0237
 21
0.375992
  0
LINE
  8
0
 10
42.0237
 20
0.375992
 11
42.0942
 21
0.746063
  0
LINE
  8
0
 10
42.0942
 20
0.746063
 11
42.2107
 21
1.10437
  0
LINE
  8
0
 10
42.2107
 20
1.10437
 11
42.3711
 21
1.44525
  0
LINE
  8
0
 10
42.3711
 20
1.44525
 11
42.5729
 21
1.76335
  0
LINE
  8
0
 10
42.5729
 20
1.76335
 11
42.8131
 21
2.05363
  0
LINE
  8
0
 10
42.8131
 20
2.05363
 11
43.0877
 21
2.31154
  0
LINE
  8
0
 10
43.0877
 20
2.31154
 11
43.3925
 21
2.53297
  0
LINE
  8
0
 10
43.3925
 20
2.53297
 11
43.7227
 21
2.71448
  0
LINE
  8
0
 10
43.7227
 20
2.71448
 11
44.0729
 21
2.85316
  0
LINE
  8
0
 10
44.0729
 20
2.85316
 11
44.4379
 21
2.94685
  0
LINE
  8
0
 10
44.4379
 20
2.94685
 11
44.8116
 21
2.99408
  0
LINE
  8
0
 10
44.8116
 20
2.99408
 11
45.1884
 21
2.99408
  0
LINE
  8
0
 10
45.1884
 20
2.99408
 11
45.5621
 21
2.94685
  0
LINE
  8
0
 10
45.5621
 20
2.94685
 11
45.927
 21
2.85316
  0
LINE
  8
0
 10
45.927
 20
2.85316
 11
46.2773
 21
2.71448
  0
LINE
  8
0
 10
46.2773
 20
2.71448
 11
46.6075
 21
2.53297
  0
LINE
  8
0
 10
46.6075
 20
2.53297
 11
46.9123
 21
2.31154
  0
LINE
  8
0
 10
46.9123
 20
2.31154
 11
47.1869
 21
2.05363
  0
LINE
  8
0
 10
47.1869
 20
2.05363
 11
47.427
 21
1.76335
  0
LINE
  8
0
 10
47.427
 20
1.76335
 11
47.6289
 21
1.44525
  0
LINE
  8
0
 10
47.6289
 20
1.44525
 11
47.7893
 21
1.10437
  0
LINE
  8
0
 10
47.7893
 20
1.10437
 11
47.9057
 21
0.746063
  0
LINE
  8
0
 10
47.9057
 20
0.746063
 11
47.9763
 21
0.375992
  0
LINE
  8
0
 10
47.9763
 20
0.375992
 11
48
 21
0
  0
LINE
  8
0
 10
48
 20
0
 11
47.9763
 21
-0.375992
  0
LINE
  8
0
 10
47.9763
 20
-0.375992
 11
47.9057
 21
-0.746063
  0
LINE
  8
0
 10
47.9057
 20
-0.746063
 11
47.7893
 21
-1.10437
  0
LINE
  8
0
 10
47.7893
 20
-1.10437
 11
47.6289
 21
-1.44525
  0
LINE
  8
0
 10
47.6289
 20
-1.44525
 11
47.427
 21
-1.76335
  0
LINE
  8
0
 10
47.427
 20
-1.76335
 11
47.1869
 21
-2.05363
  0
LINE
  8
0
 10
47.1869
 20
-2.05363
 11
46.9123
 21
-2.31154
  0
LINE
  8
0
 10
46.9123
 20
-2.31154
 11
46.6075
 21
-2.53297
  0
LINE
  8
0
 10
46.6075
 20
-2.53297
 11
46.2773
 21
-2.71448
  0
LINE
  8
0
 10
46.2773
 20
-2.71448
 11
45.927
 21
-2.85316
  0
LINE
  8
0
 10
45.927
 20
-2.85316
 11
45.5621
 21
-2.94685
  0
LINE
  8
0
 10
45.5621
 20
-2.94685
 11
45.1884
 21
-2.99408
  0
LINE
  8
0
 10
45.1884
 20
-2.99408
 11
44.8116
 21
-2.99408
  0
LINE
  8
0
 10
-60.1884
 20
-2.99408
 11
-60.5621
 21
-2.94685
  0
LINE
  8
0
 10
-60.5621
 20
-2.94685
 11
-60.927
 21
-2.85316
  0
LINE
  8
0
 10
-60.927
 20
-2.85316
 11
-61.2773
 21
-2.71448
  0
LINE
  8
0
 10
-61.2773
 20
-2.71448
 11
-61.6075
 21
-2.53297
  0
LINE
  8
0
 10
-61.6075
 20
-2.53297
 11
-61.9123
 21
-2.31154
  0
LINE
  8
0
 10
-61.9123
 20
-2.31154
 11
-62.1869
 21
-2.05363
  0
LINE
  8
0
 10
-62.1869
 20
-2.05363
 11
-62.427
 21
-1.76335
  0
LINE
  8
0
 10
-62.427
 20
-1.76335
 11
-62.6289
 21
-1.44525
  0
LINE
  8
0
 10
-62.6289
 20
-1.44525
 11
-62.7893
 21
-1.10437
  0
LINE
  8
0
 10
-62.7893
 20
-1.10437
 11
-62.9057
 21
-0.746063
  0
LINE
  8
0
 10
-62.9057
 20
-0.746063
 11
-62.9763
 21
-0.375992
  0
LINE
  8
0
 10
-62.9763
 20
-0.375992
 11
-63
 21
0
  0
LINE
  8
0
 10
-63
 20
0
 11
-62.9763
 21
0.375992
  0
LINE
  8
0
 10
-62.9763
 20
0.375992
 11
-62.9057
 21
0.746063
  0
LINE
  8
0
 10
-62.9057
 20
0.746063
 11
-62.7893
 21
1.10437
  0
LINE
  8
0
 10
-62.7893
 20
1.10437
 11
-62.6289
 21
1.44525
  0
LINE
  8
0
 10
-62.6289
 20
1.44525
 11
-62.427
 21
1.76335
  0
LINE
  8
0
 10
-62.427
 20
1.76335
 11
-62.1869
 21
2.05363
  0
LINE
  8
0
 10
-62.1869
 20
2.05363
 11
-61.9123
 21
2.31154
  0
LINE
  8
0
 10
-61.9123
 20
2.31154
 11
-61.6075
 21
2.53297
  0
LINE
  8
0
 10
-61.6075
 20
2.53297
 11
-61.2773
 21
2.71448
  0
LINE
  8
0
 10
-61.2773
 20
2.71448
 11
-60.927
 21
2.85316
  0
LINE
  8
0
 10
-60.927
 20
2.85316
 11
-60.5621
 21
2.94685
  0
LINE
  8
0
 10
-60.5621
 20
2.94685
 11
-60.1884
 21
2.99408
  0
LINE
  8
0
 10
-60.1884
 20
2.99408
 11
-59.8116
 21
2.99408
  0
LINE
  8
0
 10
-59.8116
 20
2.99408
 11
-59.4379
 21
2.94685
  0
LINE
  8
0
 10
-59.4379
 20
2.94685
 11
-59.0729
 21
2.85316
  0
LINE
  8
0
 10
-59.0729
 20
2.85316
 11
-58.7227
 21
2.71448
  0
LINE
  8
0
 10
-58.7227
 20
2.71448
 11
-58.3925
 21
2.53297
  0
LINE
  8
0
 10
-58.3925
 20
2.53297
 11
-58.0877
 21
2.31154
  0
LINE
  8
0
 10
-58.0877
 20
2.31154
 11
-57.8131
 21
2.05363
  0
LINE
  8
0
 10
-57.8131
 20
2.05363
 11
-57.5729
 21
1.76335
  0
LINE
  8
0
 10
-57.5729
 20
1.76335
 11
-57.3711
 21
1.44525
  0
LINE
  8
0
 10
-57.3711
 20
1.44525
 11
-57.2107
 21
1.10437
  0
LINE
  8
0
 10
-57.2107
 20
1.10437
 11
-57.0942
 21
0.746063
  0
LINE
  8
0
 10
-57.0942
 20
0.746063
 11
-57.0237
 21
0.375992
  0
LINE
  8
0
 10
-57.0237
 20
0.375992
 11
-57
 21
0
  0
LINE
  8
0
 10
-57
 20
0
 11
-57.0237
 21
-0.375992
  0
LINE
  8
0
 10
-57.0237
 20
-0.375992
 11
-57.0942
 21
-0.746063
  0
LINE
  8
0
 10
-57.0942
 20
-0.746063
 11
-57.2107
 21
-1.10437
  0
LINE
  8
0
 10
-57.2107
 20
-1.10437
 11
-57.3711
 21
-1.44525
  0
LINE
  8
0
 10
-57.3711
 20
-1.44525
 11
-57.5729
 21
-1.76335
  0
LINE
  8
0
 10
-57.5729
 20
-1.76335
 11
-57.8131
 21
-2.05363
  0
LINE
  8
0
 10
-57.8131
 20
-2.05363
 11
-58.0877
 21
-2.31154
  0
LINE
  8
0
 10
-58.0877
 20
-2.31154
 11
-58.3925
 21
-2.53297
  0
LINE
  8
0
 10
-58.3925
 20
-2.53297
 11
-58.7227
 21
-2.71448
  0
LINE
  8
0
 10
-58.7227
 20
-2.71448
 11
-59.0729
 21
-2.85316
  0
LINE
  8
0
 10
-59.0729
 20
-2.85316
 11
-59.4379
 21
-2.94685
  0
LINE
  8
0
 10
-59.4379
 20
-2.94685
 11
-59.8116
 21
-2.99408
  0
LINE
  8
0
 10
-59.8116
 20
-2.99408
 11
-60.1884
 21
-2.99408
  0
LINE
  8
0
 10
-0.18837
 20
-2.99408
 11
-0.562134
 21
-2.94685
  0
LINE
  8
0
 10
-0.562134
 20
-2.94685
 11
-0.927048
 21
-2.85316
  0
LINE
  8
0
 10
-0.927048
 20
-2.85316
 11
-1.27733
 21
-2.71448
  0
LINE
  8
0
 10
-1.27733
 20
-2.71448
 11
-1.60747
 21
-2.53297
  0
LINE
  8
0
 10
-1.60747
 20
-2.53297
 11
-1.91226
 21
-2.31154
  0
LINE
  8
0
 10
-1.91226
 20
-2.31154
 11
-2.1869
 21
-2.05363
  0
LINE
  8
0
 10
-2.1869
 20
-2.05363
 11
-2.42705
 21
-1.76335
  0
LINE
  8
0
 10
-2.42705
 20
-1.76335
 11
-2.62891
 21
-1.44525
  0
LINE
  8
0
 10
-2.62891
 20
-1.44525
 11
-2.78932
 21
-1.10437
  0
LINE
  8
0
 10
-2.78932
 20
-1.10437
 11
-2.90575
 21
-0.746063
  0
LINE
  8
0
 10
-2.90575
 20
-0.746063
 11
-2.97633
 21
-0.375992
  0
LINE
  8
0
 10
-2.97633
 20
-0.375992
 11
-3
 21
0
  0
LINE
  8
0
 10
-3
 20
0
 11
-2.97633
 21
0.375992
  0
LINE
  8
0
 10
-2.97633
 20
0.375992
 11
-2.90575
 21
0.746063
  0
LINE
  8
0
 10
-2.90575
 20
0.746063
 11
-2.78932
 21
1.10437
  0
LINE
  8
0
 10
-2.78932
 20
1.10437
 11
-2.62891
 21
1.44525
  0
LINE
  8
0
 10
-2.62891
 20
1.44525
 11
-2.42705
 21
1.76335
  0
LINE
  8
0
 10
-2.42705
 20
1.76335
 11
-2.1869
 21
2.05363
  0
LINE
  8
0
 10
-2.1869
 20
2.05363
 11
-1.91226
 21
2.31154
  0
LINE
  8
0
 10
-1.91226
 20
2.31154
 11
-1.60747
 21
2.53297
  0
LINE
  8
0
 10
-1.60747
 20
2.53297
 11
-1.27733
 21
2.71448
  0
LINE
  8
0
 10
-1.27733
 20
2.71448
 11
-0.927048
 21
2.85316
  0
LINE
  8
0
 10
-0.927048
 20
2.85316
 11
-0.562134
 21
2.94685
  0
LINE
  8
0
 10
-0.562134
 20
2.94685
 11
-0.18837
 21
2.99408
  0
LINE
  8
0
 10
-0.18837
 20
2.99408
 11
0.18837
 21
2.99408
  0
LINE
  8
0
 10
0.18837
 20
2.99408
 11
0.562134
 21
2.94685
  0
LINE
  8
0
 10
0.562134
 20
2.94685
 11
0.927048
 21
2.85316
  0
LINE
  8
0
 10
0.927048
 20
2.85316
 11
1.27733
 21
2.71448
  0
LINE
  8
0
 10
1.27733
 20
2.71448
 11
1.60747
 21
2.53297
  0
LINE
  8
0
 10
1.60747
 20
2.53297
 11
1.91226
 21
2.31154
  0
LINE
  8
0
 10
1.91226
 20
2.31154
 11
2.1869
 21
2.05363
  0
LINE
  8
0
 10
2.1869
 20
2.05363
 11
2.42705
 21
1.76335
  0
LINE
  8
0
 10
2.42705
 20
1.76335
 11
2.62891
 21
1.44525
  0
LINE
  8
0
 10
2.62891
 20
1.44525
 11
2.78932
 21
1.10437
  0
LINE
  8
0
 10
2.78932
 20
1.10437
 11
2.90575
 21
0.746063
  0
LINE
  8
0
 10
2.90575
 20
0.746063
 11
2.97633
 21
0.375992
  0
LINE
  8
0
 10
2.97633
 20
0.375992
 11
3
 21
0
  0
LINE
  8
0
 10
3
 20
0
 11
2.97633
 21
-0.375992
  0
LINE
  8
0
 10
2.97633
 20
-0.375992
 11
2.90575
 21
-0.746063
  0
LINE
  8
0
 10
2.90575
 20
-0.746063
 11
2.78932
 21
-1.10437
  0
LINE
  8
0
 10
2.78932
 20
-1.10437
 11
2.62891
 21
-1.44525
  0
LINE
  8
0
 10
2.62891
 20
-1.44525
 11
2.42705
 21
-1.76335
  0
LINE
  8
0
 10
2.42705
 20
-1.76335
 11
2.1869
 21
-2.05363
  0
LINE
  8
0
 10
2.1869
 20
-2.05363
 11
1.91226
 21
-2.31154
  0
LINE
  8
0
 10
1.91226
 20
-2.31154
 11
1.60747
 21
-2.53297
  0
LINE
  8
0
 10
1.60747
 20
-2.53297
 11
1.27733
 21
-2.71448
  0
LINE
  8
0
 10
1.27733
 20
-2.71448
 11
0.927048
 21
-2.85316
  0
LINE
  8
0
 10
0.927048
 20
-2.85316
 11
0.562134
 21
-2.94685
  0
LINE
  8
0
 10
0.562134
 20
-2.94685
 11
0.18837
 21
-2.99408
  0
LINE
  8
0
 10
0.18837
 20
-2.99408
 11
-0.18837
 21
-2.99408
  0
LINE
  8
0
 10
-75.1884
 20
-2.99408
 11
-75.5621
 21
-2.94685
  0
LINE
  8
0
 10
-75.5621
 20
-2.94685
 11
-75.927
 21
-2.85316
  0
LINE
  8
0
 10
-75.927
 20
-2.85316
 11
-76.2773
 21
-2.71448
  0
LINE
  8
0
 10
-76.2773
 20
-2.71448
 11
-76.6075
 21
-2.53297
  0
LINE
  8
0
 10
-76.6075
 20
-2.53297
 11
-76.9123
 21
-2.31154
  0
LINE
  8
0
 10
-76.9123
 20
-2.31154
 11
-77.1869
 21
-2.05363
  0
LINE
  8
0
 10
-77.1869
 20
-2.05363
 11
-77.427
 21
-1.76335
  0
LINE
  8
0
 10
-77.427
 20
-1.76335
 11
-77.6289
 21
-1.44525
  0
LINE
  8
0
 10
-77.6289
 20
-1.44525
 11
-77.7893
 21
-1.10437
  0
LINE
  8
0
 10
-77.7893
 20
-1.10437
 11
-77.9057
 21
-0.746063
  0
LINE
  8
0
 10
-77.9057
 20
-0.746063
 11
-77.9763
 21
-0.375992
  0
LINE
  8
0
 10
-77.9763
 20
-0.375992
 11
-78
 21
0
  0
LINE
  8
0
 10
-78
 20
0
 11
-77.9763
 21
0.375992
  0
LINE
  8
0
 10
-77.9763
 20
0.375992
 11
-77.9057
 21
0.746063
  0
LINE
  8
0
 10
-77.9057
 20
0.746063
 11
-77.7893
 21
1.10437
  0
LINE
  8
0
 10
-77.7893
 20
1.10437
 11
-77.6289
 21
1.44525
  0
LINE
  8
0
 10
-77.6289
 20
1.44525
 11
-77.427
 21
1.76335
  0
LINE
  8
0
 10
-77.427
 20
1.76335
 11
-77.1869
 21
2.05363
  0
LINE
  8
0
 10
-77.1869
 20
2.05363
 11
-76.9123
 21
2.31154
  0
LINE
  8
0
 10
-76.9123
 20
2.31154
 11
-76.6075
 21
2.53297
  0
LINE
  8
0
 10
-76.6075
 20
2.53297
 11
-76.2773
 21
2.71448
  0
LINE
  8
0
 10
-76.2773
 20
2.71448
 11
-75.927
 21
2.85316
  0
LINE
  8
0
 10
-75.927
 20
2.85316
 11
-75.5621
 21
2.94685
  0
LINE
  8
0
 10
-75.5621
 20
2.94685
 11
-75.1884
 21
2.99408
  0
LINE
  8
0
 10
-75.1884
 20
2.99408
 11
-74.8116
 21
2.99408
  0
LINE
  8
0
 10
-74.8116
 20
2.99408
 11
-74.4379
 21
2.94685
  0
LINE
  8
0
 10
-74.4379
 20
2.94685
 11
-74.073
 21
2.85316
  0
LINE
  8
0
 10
-74.073
 20
2.85316
 11
-73.7227
 21
2.71448
  0
LINE
  8
0
 10
-73.7227
 20
2.71448
 11
-73.3925
 21
2.53297
  0
LINE
  8
0
 10
-73.3925
 20
2.53297
 11
-73.0877
 21
2.31154
  0
LINE
  8
0
 10
-73.0877
 20
2.31154
 11
-72.8131
 21
2.05363
  0
LINE
  8
0
 10
-72.8131
 20
2.05363
 11
-72.573
 21
1.76335
  0
LINE
  8
0
 10
-72.573
 20
1.76335
 11
-72.3711
 21
1.44525
  0
LINE
  8
0
 10
-72.3711
 20
1.44525
 11
-72.2107
 21
1.10437
  0
LINE
  8
0
 10
-72.2107
 20
1.10437
 11
-72.0943
 21
0.746063
  0
LINE
  8
0
 10
-72.0943
 20
0.746063
 11
-72.0237
 21
0.375992
  0
LINE
  8
0
 10
-72.0237
 20
0.375992
 11
-72
 21
0
  0
LINE
  8
0
 10
-72
 20
0
 11
-72.0237
 21
-0.375992
  0
LINE
  8
0
 10
-72.0237
 20
-0.375992
 11
-72.0943
 21
-0.746063
  0
LINE
  8
0
 10
-72.0943
 20
-0.746063
 11
-72.2107
 21
-1.10437
  0
LINE
  8
0
 10
-72.2107
 20
-1.10437
 11
-72.3711
 21
-1.44525
  0
LINE
  8
0
 10
-72.3711
 20
-1.44525
 11
-72.573
 21
-1.76335
  0
LINE
  8
0
 10
-72.573
 20
-1.76335
 11
-72.8131
 21
-2.05363
  0
LINE
  8
0
 10
-72.8131
 20
-2.05363
 11
-73.0877
 21
-2.31154
  0
LINE
  8
0
 10
-73.0877
 20
-2.31154
 11
-73.3925
 21
-2.53297
  0
LINE
  8
0
 10
-73.3925
 20
-2.53297
 11
-73.7227
 21
-2.71448
  0
LINE
  8
0
 10
-73.7227
 20
-2.71448
 11
-74.073
 21
-2.85316
  0
LINE
  8
0
 10
-74.073
 20
-2.85316
 11
-74.4379
 21
-2.94685
  0
LINE
  8
0
 10
-74.4379
 20
-2.94685
 11
-74.8116
 21
-2.99408
  0
LINE
  8
0
 10
-74.8116
 20
-2.99408
 11
-75.1884
 21
-2.99408
  0
LINE
  8
0
 10
-90.1884
 20
-2.99408
 11
-90.5621
 21
-2.94685
  0
LINE
  8
0
 10
-90.5621
 20
-2.94685
 11
-90.927
 21
-2.85316
  0
LINE
  8
0
 10
-90.927
 20
-2.85316
 11
-91.2773
 21
-2.71448
  0
LINE
  8
0
 10
-91.2773
 20
-2.71448
 11
-91.6075
 21
-2.53297
  0
LINE
  8
0
 10
-91.6075
 20
-2.53297
 11
-91.9123
 21
-2.31154
  0
LINE
  8
0
 10
-91.9123
 20
-2.31154
 11
-92.1869
 21
-2.05363
  0
LINE
  8
0
 10
-92.1869
 20
-2.05363
 11
-92.427
 21
-1.76335
  0
LINE
  8
0
 10
-92.427
 20
-1.76335
 11
-92.6289
 21
-1.44525
  0
LINE
  8
0
 10
-92.6289
 20
-1.44525
 11
-92.7893
 21
-1.10437
  0
LINE
  8
0
 10
-92.7893
 20
-1.10437
 11
-92.9057
 21
-0.746063
  0
LINE
  8
0
 10
-92.9057
 20
-0.746063
 11
-92.9763
 21
-0.375992
  0
LINE
  8
0
 10
-92.9763
 20
-0.375992
 11
-93
 21
0
  0
LINE
  8
0
 10
-93
 20
0
 11
-92.9763
 21
0.375992
  0
LINE
  8
0
 10
-92.9763
 20
0.375992
 11
-92.9057
 21
0.746063
  0
LINE
  8
0
 10
-92.9057
 20
0.746063
 11
-92.7893
 21
1.10437
  0
LINE
  8
0
 10
-92.7893
 20
1.10437
 11
-92.6289
 21
1.44525
  0
LINE
  8
0
 10
-92.6289
 20
1.44525
 11
-92.427
 21
1.76335
  0
LINE
  8
0
 10
-92.427
 20
1.76335
 11
-92.1869
 21
2.05363
  0
LINE
  8
0
 10
-92.1869
 20
2.05363
 11
-91.9123
 21
2.31154
  0
LINE
  8
0
 10
-91.9123
 20
2.31154
 11
-91.6075
 21
2.53297
  0
LINE
  8
0
 10
-91.6075
 20
2.53297
 11
-91.2773
 21
2.71448
  0
LINE
  8
0
 10
-91.2773
 20
2.71448
 11
-90.927
 21
2.85316
  0
LINE
  8
0
 10
-90.927
 20
2.85316
 11
-90.5621
 21
2.94685
  0
LINE
  8
0
 10
-90.5621
 20
2.94685
 11
-90.1884
 21
2.99408
  0
LINE
  8
0
 10
-90.1884
 20
2.99408
 11
-89.8116
 21
2.99408
  0
LINE
  8
0
 10
-89.8116
 20
2.99408
 11
-89.4379
 21
2.94685
  0
LINE
  8
0
 10
-89.4379
 20
2.94685
 11
-89.073
 21
2.85316
  0
LINE
  8
0
 10
-89.073
 20
2.85316
 11
-88.7227
 21
2.71448
  0
LINE
  8
0
 10
-88.7227
 20
2.71448
 11
-88.3925
 21
2.53297
  0
LINE
  8
0
 10
-88.3925
 20
2.53297
 11
-88.0877
 21
2.31154
  0
LINE
  8
0
 10
-88.0877
 20
2.31154
 11
-87.8131
 21
2.05363
  0
LINE
  8
0
 10
-87.8131
 20
2.05363
 11
-87.573
 21
1.76335
  0
LINE
  8
0
 10
-87.573
 20
1.76335
 11
-87.3711
 21
1.44525
  0
LINE
  8
0
 10
-87.3711
 20
1.44525
 11
-87.2107
 21
1.10437
  0
LINE
  8
0
 10
-87.2107
 20
1.10437
 11
-87.0943
 21
0.746063
  0
LINE
  8
0
 10
-87.0943
 20
0.746063
 11
-87.0237
 21
0.375992
  0
LINE
  8
0
 10
-87.0237
 20
0.375992
 11
-87
 21
0
  0
LINE
  8
0
 10
-87
 20
0
 11
-87.0237
 21
-0.375992
  0
LINE
  8
0
 10
-87.0237
 20
-0.375992
 11
-87.0943
 21
-0.746063
  0
LINE
  8
0
 10
-87.0943
 20
-0.746063
 11
-87.2107
 21
-1.10437
  0
LINE
  8
0
 10
-87.2107
 20
-1.10437
 11
-87.3711
 21
-1.44525
  0
LINE
  8
0
 10
-87.3711
 20
-1.44525
 11
-87.573
 21
-1.76335
  0
LINE
  8
0
 10
-87.573
 20
-1.76335
 11
-87.8131
 21
-2.05363
  0
LINE
  8
0
 10
-87.8131
 20
-2.05363
 11
-88.0877
 21
-2.31154
  0
LINE
  8
0
 10
-88.0877
 20
-2.31154
 11
-88.3925
 21
-2.53297
  0
LINE
  8
0
 10
-88.3925
 20
-2.53297
 11
-88.7227
 21
-2.71448
  0
LINE
  8
0
 10
-88.7227
 20
-2.71448
 11
-89.073
 21
-2.85316
  0
LINE
  8
0
 10
-89.073
 20
-2.85316
 11
-89.4379
 21
-2.94685
  0
LINE
  8
0
 10
-89.4379
 20
-2.94685
 11
-89.8116
 21
-2.99408
  0
LINE
  8
0
 10
-89.8116
 20
-2.99408
 11
-90.1884
 21
-2.99408
  0
LINE
  8
0
 10
59.8116
 20
-2.99408
 11
59.4379
 21
-2.94685
  0
LINE
  8
0
 10
59.4379
 20
-2.94685
 11
59.0729
 21
-2.85316
  0
LINE
  8
0
 10
59.0729
 20
-2.85316
 11
58.7227
 21
-2.71448
  0
LINE
  8
0
 10
58.7227
 20
-2.71448
 11
58.3925
 21
-2.53297
  0
LINE
  8
0
 10
58.3925
 20
-2.53297
 11
58.0877
 21
-2.31154
  0
LINE
  8
0
 10
58.0877
 20
-2.31154
 11
57.8131
 21
-2.05363
  0
LINE
  8
0
 10
57.8131
 20
-2.05363
 11
57.5729
 21
-1.76335
  0
LINE
  8
0
 10
57.5729
 20
-1.76335
 11
57.3711
 21
-1.44525
  0
LINE
  8
0
 10
57.3711
 20
-1.44525
 11
57.2107
 21
-1.10437
  0
LINE
  8
0
 10
57.2107
 20
-1.10437
 11
57.0942
 21
-0.746063
  0
LINE
  8
0
 10
57.0942
 20
-0.746063
 11
57.0237
 21
-0.375992
  0
LINE
  8
0
 10
57.0237
 20
-0.375992
 11
57
 21
0
  0
LINE
  8
0
 10
57
 20
0
 11
57.0237
 21
0.375992
  0
LINE
  8
0
 10
57.0237
 20
0.375992
 11
57.0942
 21
0.746063
  0
LINE
  8
0
 10
57.0942
 20
0.746063
 11
57.2107
 21
1.10437
  0
LINE
  8
0
 10
57.2107
 20
1.10437
 11
57.3711
 21
1.44525
  0
LINE
  8
0
 10
57.3711
 20
1.44525
 11
57.5729
 21
1.76335
  0
LINE
  8
0
 10
57.5729
 20
1.76335
 11
57.8131
 21
2.05363
  0
LINE
  8
0
 10
57.8131
 20
2.05363
 11
58.0877
 21
2.31154
  0
LINE
  8
0
 10
58.0877
 20
2.31154
 11
58.3925
 21
2.53297
  0
LINE
  8
0
 10
58.3925
 20
2.53297
 11
58.7227
 21
2.71448
  0
LINE
  8
0
 10
58.7227
 20
2.71448
 11
59.0729
 21
2.85316
  0
LINE
  8
0
 10
59.0729
 20
2.85316
 11
59.4379
 21
2.94685
  0
LINE
  8
0
 10
59.4379
 20
2.94685
 11
59.8116
 21
2.99408
  0
LINE
  8
0
 10
59.8116
 20
2.99408
 11
60.1884
 21
2.99408
  0
LINE
  8
0
 10
60.1884
 20
2.99408
 11
60.5621
 21
2.94685
  0
LINE
  8
0
 10
60.5621
 20
2.94685
 11
60.927
 21
2.85316
  0
LINE
  8
0
 10
60.927
 20
2.85316
 11
61.2773
 21
2.71448
  0
LINE
  8
0
 10
61.2773
 20
2.71448
 11
61.6075
 21
2.53297
  0
LINE
  8
0
 10
61.6075
 20
2.53297
 11
61.9123
 21
2.31154
  0
LINE
  8
0
 10
61.9123
 20
2.31154
 11
62.1869
 21
2.05363
  0
LINE
  8
0
 10
62.1869
 20
2.05363
 11
62.427
 21
1.76335
  0
LINE
  8
0
 10
62.427
 20
1.76335
 11
62.6289
 21
1.44525
  0
LINE
  8
0
 10
62.6289
 20
1.44525
 11
62.7893
 21
1.10437
  0
LINE
  8
0
 10
62.7893
 20
1.10437
 11
62.9057
 21
0.746063
  0
LINE
  8
0
 10
62.9057
 20
0.746063
 11
62.9763
 21
0.375992
  0
LINE
  8
0
 10
62.9763
 20
0.375992
 11
63
 21
0
  0
LINE
  8
0
 10
63
 20
0
 11
62.9763
 21
-0.375992
  0
LINE
  8
0
 10
62.9763
 20
-0.375992
 11
62.9057
 21
-0.746063
  0
LINE
  8
0
 10
62.9057
 20
-0.746063
 11
62.7893
 21
-1.10437
  0
LINE
  8
0
 10
62.7893
 20
-1.10437
 11
62.6289
 21
-1.44525
  0
LINE
  8
0
 10
62.6289
 20
-1.44525
 11
62.427
 21
-1.76335
  0
LINE
  8
0
 10
62.427
 20
-1.76335
 11
62.1869
 21
-2.05363
  0
LINE
  8
0
 10
62.1869
 20
-2.05363
 11
61.9123
 21
-2.31154
  0
LINE
  8
0
 10
61.9123
 20
-2.31154
 11
61.6075
 21
-2.53297
  0
LINE
  8
0
 10
61.6075
 20
-2.53297
 11
61.2773
 21
-2.71448
  0
LINE
  8
0
 10
61.2773
 20
-2.71448
 11
60.927
 21
-2.85316
  0
LINE
  8
0
 10
60.927
 20
-2.85316
 11
60.5621
 21
-2.94685
  0
LINE
  8
0
 10
60.5621
 20
-2.94685
 11
60.1884
 21
-2.99408
  0
LINE
  8
0
 10
60.1884
 20
-2.99408
 11
59.8116
 21
-2.99408
  0
LINE
  8
0
 10
29.8116
 20
-2.99408
 11
29.4379
 21
-2.94685
  0
LINE
  8
0
 10
29.4379
 20
-2.94685
 11
29.0729
 21
-2.85316
  0
LINE
  8
0
 10
29.0729
 20
-2.85316
 11
28.7227
 21
-2.71448
  0
LINE
  8
0
 10
28.7227
 20
-2.71448
 11
28.3925
 21
-2.53297
  0
LINE
  8
0
 10
28.3925
 20
-2.53297
 11
28.0877
 21
-2.31154
  0
LINE
  8
0
 10
28.0877
 20
-2.31154
 11
27.8131
 21
-2.05363
  0
LINE
  8
0
 10
27.8131
 20
-2.05363
 11
27.5729
 21
-1.76335
  0
LINE
  8
0
 10
27.5729
 20
-1.76335
 11
27.3711
 21
-1.44525
  0
LINE
  8
0
 10
27.3711
 20
-1.44525
 11
27.2107
 21
-1.10437
  0
LINE
  8
0
 10
27.2107
 20
-1.10437
 11
27.0942
 21
-0.746063
  0
LINE
  8
0
 10
27.0942
 20
-0.746063
 11
27.0237
 21
-0.375992
  0
LINE
  8
0
 10
27.0237
 20
-0.375992
 11
27
 21
0
  0
LINE
  8
0
 10
27
 20
0
 11
27.0237
 21
0.375992
  0
LINE
  8
0
 10
27.0237
 20
0.375992
 11
27.0942
 21
0.746063
  0
LINE
  8
0
 10
27.0942
 20
0.746063
 11
27.2107
 21
1.10437
  0
LINE
  8
0
 10
27.2107
 20
1.10437
 11
27.3711
 21
1.44525
  0
LINE
  8
0
 10
27.3711
 20
1.44525
 11
27.5729
 21
1.76335
  0
LINE
  8
0
 10
27.5729
 20
1.76335
 11
27.8131
 21
2.05363
  0
LINE
  8
0
 10
27.8131
 20
2.05363
 11
28.0877
 21
2.31154
  0
LINE
  8
0
 10
28.0877
 20
2.31154
 11
28.3925
 21
2.53297
  0
LINE
  8
0
 10
28.3925
 20
2.53297
 11
28.7227
 21
2.71448
  0
LINE
  8
0
 10
28.7227
 20
2.71448
 11
29.0729
 21
2.85316
  0
LINE
  8
0
 10
29.0729
 20
2.85316
 11
29.4379
 21
2.94685
  0
LINE
  8
0
 10
29.4379
 20
2.94685
 11
29.8116
 21
2.99408
  0
LINE
  8
0
 10
29.8116
 20
2.99408
 11
30.1884
 21
2.99408
  0
LINE
  8
0
 10
30.1884
 20
2.99408
 11
30.5621
 21
2.94685
  0
LINE
  8
0
 10
30.5621
 20
2.94685
 11
30.927
 21
2.85316
  0
LINE
  8
0
 10
30.927
 20
2.85316
 11
31.2773
 21
2.71448
  0
LINE
  8
0
 10
31.2773
 20
2.71448
 11
31.6075
 21
2.53297
  0
LINE
  8
0
 10
31.6075
 20
2.53297
 11
31.9123
 21
2.31154
  0
LINE
  8
0
 10
31.9123
 20
2.31154
 11
32.1869
 21
2.05363
  0
LINE
  8
0
 10
32.1869
 20
2.05363
 11
32.427
 21
1.76335
  0
LINE
  8
0
 10
32.427
 20
1.76335
 11
32.6289
 21
1.44525
  0
LINE
  8
0
 10
32.6289
 20
1.44525
 11
32.7893
 21
1.10437
  0
LINE
  8
0
 10
32.7893
 20
1.10437
 11
32.9057
 21
0.746063
  0
LINE
  8
0
 10
32.9057
 20
0.746063
 11
32.9763
 21
0.375992
  0
LINE
  8
0
 10
32.9763
 20
0.375992
 11
33
 21
0
  0
LINE
  8
0
 10
33
 20
0
 11
32.9763
 21
-0.375992
  0
LINE
  8
0
 10
32.9763
 20
-0.375992
 11
32.9057
 21
-0.746063
  0
LINE
  8
0
 10
32.9057
 20
-0.746063
 11
32.7893
 21
-1.10437
  0
LINE
  8
0
 10
32.7893
 20
-1.10437
 11
32.6289
 21
-1.44525
  0
LINE
  8
0
 10
32.6289
 20
-1.44525
 11
32.427
 21
-1.76335
  0
LINE
  8
0
 10
32.427
 20
-1.76335
 11
32.1869
 21
-2.05363
  0
LINE
  8
0
 10
32.1869
 20
-2.05363
 11
31.9123
 21
-2.31154
  0
LINE
  8
0
 10
31.9123
 20
-2.31154
 11
31.6075
 21
-2.53297
  0
LINE
  8
0
 10
31.6075
 20
-2.53297
 11
31.2773
 21
-2.71448
  0
LINE
  8
0
 10
31.2773
 20
-2.71448
 11
30.927
 21
-2.85316
  0
LINE
  8
0
 10
30.927
 20
-2.85316
 11
30.5621
 21
-2.94685
  0
LINE
  8
0
 10
30.5621
 20
-2.94685
 11
30.1884
 21
-2.99408
  0
LINE
  8
0
 10
30.1884
 20
-2.99408
 11
29.8116
 21
-2.99408
  0
LINE
  8
0
 10
74.8116
 20
-2.99408
 11
74.4379
 21
-2.94685
  0
LINE
  8
0
 10
74.4379
 20
-2.94685
 11
74.073
 21
-2.85316
  0
LINE
  8
0
 10
74.073
 20
-2.85316
 11
73.7227
 21
-2.71448
  0
LINE
  8
0
 10
73.7227
 20
-2.71448
 11
73.3925
 21
-2.53297
  0
LINE
  8
0
 10
73.3925
 20
-2.53297
 11
73.0877
 21
-2.31154
  0
LINE
  8
0
 10
73.0877
 20
-2.31154
 11
72.8131
 21
-2.05363
  0
LINE
  8
0
 10
72.8131
 20
-2.05363
 11
72.573
 21
-1.76335
  0
LINE
  8
0
 10
72.573
 20
-1.76335
 11
72.3711
 21
-1.44525
  0
LINE
  8
0
 10
72.3711
 20
-1.44525
 11
72.2107
 21
-1.10437
  0
LINE
  8
0
 10
72.2107
 20
-1.10437
 11
72.0943
 21
-0.746063
  0
LINE
  8
0
 10
72.0943
 20
-0.746063
 11
72.0237
 21
-0.375992
  0
LINE
  8
0
 10
72.0237
 20
-0.375992
 11
72
 21
0
  0
LINE
  8
0
 10
72
 20
0
 11
72.0237
 21
0.375992
  0
LINE
  8
0
 10
72.0237
 20
0.375992
 11
72.0943
 21
0.746063
  0
LINE
  8
0
 10
72.0943
 20
0.746063
 11
72.2107
 21
1.10437
  0
LINE
  8
0
 10
72.2107
 20
1.10437
 11
72.3711
 21
1.44525
  0
LINE
  8
0
 10
72.3711
 20
1.44525
 11
72.573
 21
1.76335
  0
LINE
  8
0
 10
72.573
 20
1.76335
 11
72.8131
 21
2.05363
  0
LINE
  8
0
 10
72.8131
 20
2.05363
 11
73.0877
 21
2.31154
  0
LINE
  8
0
 10
73.0877
 20
2.31154
 11
73.3925
 21
2.53297
  0
LINE
  8
0
 10
73.3925
 20
2.53297
 11
73.7227
 21
2.71448
  0
LINE
  8
0
 10
73.7227
 20
2.71448
 11
74.073
 21
2.85316
  0
LINE
  8
0
 10
74.073
 20
2.85316
 11
74.4379
 21
2.94685
  0
LINE
  8
0
 10
74.4379
 20
2.94685
 11
74.8116
 21
2.99408
  0
LINE
  8
0
 10
74.8116
 20
2.99408
 11
75.1884
 21
2.99408
  0
LINE
  8
0
 10
75.1884
 20
2.99408
 11
75.5621
 21
2.94685
  0
LINE
  8
0
 10
75.5621
 20
2.94685
 11
75.927
 21
2.85316
  0
LINE
  8
0
 10
75.927
 20
2.85316
 11
76.2773
 21
2.71448
  0
LINE
  8
0
 10
76.2773
 20
2.71448
 11
76.6075
 21
2.53297
  0
LINE
  8
0
 10
76.6075
 20
2.53297
 11
76.9123
 21
2.31154
  0
LINE
  8
0
 10
76.9123
 20
2.31154
 11
77.1869
 21
2.05363
  0
LINE
  8
0
 10
77.1869
 20
2.05363
 11
77.427
 21
1.76335
  0
LINE
  8
0
 10
77.427
 20
1.76335
 11
77.6289
 21
1.44525
  0
LINE
  8
0
 10
77.6289
 20
1.44525
 11
77.7893
 21
1.10437
  0
LINE
  8
0
 10
77.7893
 20
1.10437
 11
77.9057
 21
0.746063
  0
LINE
  8
0
 10
77.9057
 20
0.746063
 11
77.9763
 21
0.375992
  0
LINE
  8
0
 10
77.9763
 20
0.375992
 11
78
 21
0
  0
LINE
  8
0
 10
78
 20
0
 11
77.9763
 21
-0.375992
  0
LINE
  8
0
 10
77.9763
 20
-0.375992
 11
77.9057
 21
-0.746063
  0
LINE
  8
0
 10
77.9057
 20
-0.746063
 11
77.7893
 21
-1.10437
  0
LINE
  8
0
 10
77.7893
 20
-1.10437
 11
77.6289
 21
-1.44525
  0
LINE
  8
0
 10
77.6289
 20
-1.44525
 11
77.427
 21
-1.76335
  0
LINE
  8
0
 10
77.427
 20
-1.76335
 11
77.1869
 21
-2.05363
  0
LINE
  8
0
 10
77.1869
 20
-2.05363
 11
76.9123
 21
-2.31154
  0
LINE
  8
0
 10
76.9123
 20
-2.31154
 11
76.6075
 21
-2.53297
  0
LINE
  8
0
 10
76.6075
 20
-2.53297
 11
76.2773
 21
-2.71448
  0
LINE
  8
0
 10
76.2773
 20
-2.71448
 11
75.927
 21
-2.85316
  0
LINE
  8
0
 10
75.927
 20
-2.85316
 11
75.5621
 21
-2.94685
  0
LINE
  8
0
 10
75.5621
 20
-2.94685
 11
75.1884
 21
-2.99408
  0
LINE
  8
0
 10
75.1884
 20
-2.99408
 11
74.8116
 21
-2.99408
  0
LINE
  8
0
 10
89.8116
 20
-2.99408
 11
89.4379
 21
-2.94685
  0
LINE
  8
0
 10
89.4379
 20
-2.94685
 11
89.073
 21
-2.85316
  0
LINE
  8
0
 10
89.073
 20
-2.85316
 11
88.7227
 21
-2.71448
  0
LINE
  8
0
 10
88.7227
 20
-2.71448
 11
88.3925
 21
-2.53297
  0
LINE
  8
0
 10
88.3925
 20
-2.53297
 11
88.0877
 21
-2.31154
  0
LINE
  8
0
 10
88.0877
 20
-2.31154
 11
87.8131
 21
-2.05363
  0
LINE
  8
0
 10
87.8131
 20
-2.05363
 11
87.573
 21
-1.76335
  0
LINE
  8
0
 10
87.573
 20
-1.76335
 11
87.3711
 21
-1.44525
  0
LINE
  8
0
 10
87.3711
 20
-1.44525
 11
87.2107
 21
-1.10437
  0
LINE
  8
0
 10
87.2107
 20
-1.10437
 11
87.0943
 21
-0.746063
  0
LINE
  8
0
 10
87.0943
 20
-0.746063
 11
87.0237
 21
-0.375992
  0
LINE
  8
0
 10
87.0237
 20
-0.375992
 11
87
 21
0
  0
LINE
  8
0
 10
87
 20
0
 11
87.0237
 21
0.375992
  0
LINE
  8
0
 10
87.0237
 20
0.375992
 11
87.0943
 21
0.746063
  0
LINE
  8
0
 10
87.0943
 20
0.746063
 11
87.2107
 21
1.10437
  0
LINE
  8
0
 10
87.2107
 20
1.10437
 11
87.3711
 21
1.44525
  0
LINE
  8
0
 10
87.3711
 20
1.44525
 11
87.573
 21
1.76335
  0
LINE
  8
0
 10
87.573
 20
1.76335
 11
87.8131
 21
2.05363
  0
LINE
  8
0
 10
87.8131
 20
2.05363
 11
88.0877
 21
2.31154
  0
LINE
  8
0
 10
88.0877
 20
2.31154
 11
88.3925
 21
2.53297
  0
LINE
  8
0
 10
88.3925
 20
2.53297
 11
88.7227
 21
2.71448
  0
LINE
  8
0
 10
88.7227
 20
2.71448
 11
89.073
 21
2.85316
  0
LINE
  8
0
 10
89.073
 20
2.85316
 11
89.4379
 21
2.94685
  0
LINE
  8
0
 10
89.4379
 20
2.94685
 11
89.8116
 21
2.99408
  0
LINE
  8
0
 10
89.8116
 20
2.99408
 11
90.1884
 21
2.99408
  0
LINE
  8
0
 10
90.1884
 20
2.99408
 11
90.5621
 21
2.94685
  0
LINE
  8
0
 10
90.5621
 20
2.94685
 11
90.927
 21
2.85316
  0
LINE
  8
0
 10
90.927
 20
2.85316
 11
91.2773
 21
2.71448
  0
LINE
  8
0
 10
91.2773
 20
2.71448
 11
91.6075
 21
2.53297
  0
LINE
  8
0
 10
91.6075
 20
2.53297
 11
91.9123
 21
2.31154
  0
LINE
  8
0
 10
91.9123
 20
2.31154
 11
92.1869
 21
2.05363
  0
LINE
  8
0
 10
92.1869
 20
2.05363
 11
92.427
 21
1.76335
  0
LINE
  8
0
 10
92.427
 20
1.76335
 11
92.6289
 21
1.44525
  0
LINE
  8
0
 10
92.6289
 20
1.44525
 11
92.7893
 21
1.10437
  0
LINE
  8
0
 10
92.7893
 20
1.10437
 11
92.9057
 21
0.746063
  0
LINE
  8
0
 10
92.9057
 20
0.746063
 11
92.9763
 21
0.375992
  0
LINE
  8
0
 10
92.9763
 20
0.375992
 11
93
 21
0
  0
LINE
  8
0
 10
93
 20
0
 11
92.9763
 21
-0.375992
  0
LINE
  8
0
 10
92.9763
 20
-0.375992
 11
92.9057
 21
-0.746063
  0
LINE
  8
0
 10
92.9057
 20
-0.746063
 11
92.7893
 21
-1.10437
  0
LINE
  8
0
 10
92.7893
 20
-1.10437
 11
92.6289
 21
-1.44525
  0
LINE
  8
0
 10
92.6289
 20
-1.44525
 11
92.427
 21
-1.76335
  0
LINE
  8
0
 10
92.427
 20
-1.76335
 11
92.1869
 21
-2.05363
  0
LINE
  8
0
 10
92.1869
 20
-2.05363
 11
91.9123
 21
-2.31154
  0
LINE
  8
0
 10
91.9123
 20
-2.31154
 11
91.6075
 21
-2.53297
  0
LINE
  8
0
 10
91.6075
 20
-2.53297
 11
91.2773
 21
-2.71448
  0
LINE
  8
0
 10
91.2773
 20
-2.71448
 11
90.927
 21
-2.85316
  0
LINE
  8
0
 10
90.927
 20
-2.85316
 11
90.5621
 21
-2.94685
  0
LINE
  8
0
 10
90.5621
 20
-2.94685
 11
90.1884
 21
-2.99408
  0
LINE
  8
0
 10
90.1884
 20
-2.99408
 11
89.8116
 21
-2.99408
  0
LINE
  8
0
 10
-45.1884
 20
-2.99408
 11
-45.5621
 21
-2.94685
  0
LINE
  8
0
 10
-45.5621
 20
-2.94685
 11
-45.927
 21
-2.85316
  0
LINE
  8
0
 10
-45.927
 20
-2.85316
 11
-46.2773
 21
-2.71448
  0
LINE
  8
0
 10
-46.2773
 20
-2.71448
 11
-46.6075
 21
-2.53297
  0
LINE
  8
0
 10
-46.6075
 20
-2.53297
 11
-46.9123
 21
-2.31154
  0
LINE
  8
0
 10
-46.9123
 20
-2.31154
 11
-47.1869
 21
-2.05363
  0
LINE
  8
0
 10
-47.1869
 20
-2.05363
 11
-47.427
 21
-1.76335
  0
LINE
  8
0
 10
-47.427
 20
-1.76335
 11
-47.6289
 21
-1.44525
  0
LINE
  8
0
 10
-47.6289
 20
-1.44525
 11
-47.7893
 21
-1.10437
  0
LINE
  8
0
 10
-47.7893
 20
-1.10437
 11
-47.9057
 21
-0.746063
  0
LINE
  8
0
 10
-47.9057
 20
-0.746063
 11
-47.9763
 21
-0.375992
  0
LINE
  8
0
 10
-47.9763
 20
-0.375992
 11
-48
 21
0
  0
LINE
  8
0
 10
-48
 20
0
 11
-47.9763
 21
0.375992
  0
LINE
  8
0
 10
-47.9763
 20
0.375992
 11
-47.9057
 21
0.746063
  0
LINE
  8
0
 10
-47.9057
 20
0.746063
 11
-47.7893
 21
1.10437
  0
LINE
  8
0
 10
-47.7893
 20
1.10437
 11
-47.6289
 21
1.44525
  0
LINE
  8
0
 10
-47.6289
 20
1.44525
 11
-47.427
 21
1.76335
  0
LINE
  8
0
 10
-47.427
 20
1.76335
 11
-47.1869
 21
2.05363
  0
LINE
  8
0
 10
-47.1869
 20
2.05363
 11
-46.9123
 21
2.31154
  0
LINE
  8
0
 10
-46.9123
 20
2.31154
 11
-46.6075
 21
2.53297
  0
LINE
  8
0
 10
-46.6075
 20
2.53297
 11
-46.2773
 21
2.71448
  0
LINE
  8
0
 10
-46.2773
 20
2.71448
 11
-45.927
 21
2.85316
  0
LINE
  8
0
 10
-45.927
 20
2.85316
 11
-45.5621
 21
2.94685
  0
LINE
  8
0
 10
-45.5621
 20
2.94685
 11
-45.1884
 21
2.99408
  0
LINE
  8
0
 10
-45.1884
 20
2.99408
 11
-44.8116
 21
2.99408
  0
LINE
  8
0
 10
-44.8116
 20
2.99408
 11
-44.4379
 21
2.94685
  0
LINE
  8
0
 10
-44.4379
 20
2.94685
 11
-44.0729
 21
2.85316
  0
LINE
  8
0
 10
-44.0729
 20
2.85316
 11
-43.7227
 21
2.71448
  0
LINE
  8
0
 10
-43.7227
 20
2.71448
 11
-43.3925
 21
2.53297
  0
LINE
  8
0
 10
-43.3925
 20
2.53297
 11
-43.0877
 21
2.31154
  0
LINE
  8
0
 10
-43.0877
 20
2.31154
 11
-42.8131
 21
2.05363
  0
LINE
  8
0
 10
-42.8131
 20
2.05363
 11
-42.5729
 21
1.76335
  0
LINE
  8
0
 10
-42.5729
 20
1.76335
 11
-42.3711
 21
1.44525
  0
LINE
  8
0
 10
-42.3711
 20
1.44525
 11
-42.2107
 21
1.10437
  0
LINE
  8
0
 10
-42.2107
 20
1.10437
 11
-42.0942
 21
0.746063
  0
LINE
  8
0
 10
-42.0942
 20
0.746063
 11
-42.0237
 21
0.375992
  0
LINE
  8
0
 10
-42.0237
 20
0.375992
 11
-42
 21
0
  0
LINE
  8
0
 10
-42
 20
0
 11
-42.0237
 21
-0.375992
  0
LINE
  8
0
 10
-42.0237
 20
-0.375992
 11
-42.0942
 21
-0.746063
  0
LINE
  8
0
 10
-42.0942
 20
-0.746063
 11
-42.2107
 21
-1.10437
  0
LINE
  8
0
 10
-42.2107
 20
-1.10437
 11
-42.3711
 21
-1.44525
  0
LINE
  8
0
 10
-42.3711
 20
-1.44525
 11
-42.5729
 21
-1.76335
  0
LINE
  8
0
 10
-42.5729
 20
-1.76335
 11
-42.8131
 21
-2.05363
  0
LINE
  8
0
 10
-42.8131
 20
-2.05363
 11
-43.0877
 21
-2.31154
  0
LINE
  8
0
 10
-43.0877
 20
-2.31154
 11
-43.3925
 21
-2.53297
  0
LINE
  8
0
 10
-43.3925
 20
-2.53297
 11
-43.7227
 21
-2.71448
  0
LINE
  8
0
 10
-43.7227
 20
-2.71448
 11
-44.0729
 21
-2.85316
  0
LINE
  8
0
 10
-44.0729
 20
-2.85316
 11
-44.4379
 21
-2.94685
  0
LINE
  8
0
 10
-44.4379
 20
-2.94685
 11
-44.8116
 21
-2.99408
  0
LINE
  8
0
 10
-44.8116
 20
-2.99408
 11
-45.1884
 21
-2.99408
  0
LINE
  8
0
 10
14.8116
 20
-2.99408
 11
14.4379
 21
-2.94685
  0
LINE
  8
0
 10
14.4379
 20
-2.94685
 11
14.0729
 21
-2.85316
  0
LINE
  8
0
 10
14.0729
 20
-2.85316
 11
13.7227
 21
-2.71448
  0
LINE
  8
0
 10
13.7227
 20
-2.71448
 11
13.3925
 21
-2.53297
  0
LINE
  8
0
 10
13.3925
 20
-2.53297
 11
13.0877
 21
-2.31154
  0
LINE
  8
0
 10
13.0877
 20
-2.31154
 11
12.8131
 21
-2.05363
  0
LINE
  8
0
 10
12.8131
 20
-2.05363
 11
12.5729
 21
-1.76335
  0
LINE
  8
0
 10
12.5729
 20
-1.76335
 11
12.3711
 21
-1.44525
  0
LINE
  8
0
 10
12.3711
 20
-1.44525
 11
12.2107
 21
-1.10437
  0
LINE
  8
0
 10
12.2107
 20
-1.10437
 11
12.0942
 21
-0.746063
  0
LINE
  8
0
 10
12.0942
 20
-0.746063
 11
12.0237
 21
-0.375992
  0
LINE
  8
0
 10
12.0237
 20
-0.375992
 11
12
 21
0
  0
LINE
  8
0
 10
12
 20
0
 11
12.0237
 21
0.375992
  0
LINE
  8
0
 10
12.0237
 20
0.375992
 11
12.0942
 21
0.746063
  0
LINE
  8
0
 10
12.0942
 20
0.746063
 11
12.2107
 21
1.10437
  0
LINE
  8
0
 10
12.2107
 20
1.10437
 11
12.3711
 21
1.44525
  0
LINE
  8
0
 10
12.3711
 20
1.44525
 11
12.5729
 21
1.76335
  0
LINE
  8
0
 10
12.5729
 20
1.76335
 11
12.8131
 21
2.05363
  0
LINE
  8
0
 10
12.8131
 20
2.05363
 11
13.0877
 21
2.31154
  0
LINE
  8
0
 10
13.0877
 20
2.31154
 11
13.3925
 21
2.53297
  0
LINE
  8
0
 10
13.3925
 20
2.53297
 11
13.7227
 21
2.71448
  0
LINE
  8
0
 10
13.7227
 20
2.71448
 11
14.0729
 21
2.85316
  0
LINE
  8
0
 10
14.0729
 20
2.85316
 11
14.4379
 21
2.94685
  0
LINE
  8
0
 10
14.4379
 20
2.94685
 11
14.8116
 21
2.99408
  0
LINE
  8
0
 10
14.8116
 20
2.99408
 11
15.1884
 21
2.99408
  0
LINE
  8
0
 10
15.1884
 20
2.99408
 11
15.5621
 21
2.94685
  0
LINE
  8
0
 10
15.5621
 20
2.94685
 11
15.927
 21
2.85316
  0
LINE
  8
0
 10
15.927
 20
2.85316
 11
16.2773
 21
2.71448
  0
LINE
  8
0
 10
16.2773
 20
2.71448
 11
16.6075
 21
2.53297
  0
LINE
  8
0
 10
16.6075
 20
2.53297
 11
16.9123
 21
2.31154
  0
LINE
  8
0
 10
16.9123
 20
2.31154
 11
17.1869
 21
2.05363
  0
LINE
  8
0
 10
17.1869
 20
2.05363
 11
17.427
 21
1.76335
  0
LINE
  8
0
 10
17.427
 20
1.76335
 11
17.6289
 21
1.44525
  0
LINE
  8
0
 10
17.6289
 20
1.44525
 11
17.7893
 21
1.10437
  0
LINE
  8
0
 10
17.7893
 20
1.10437
 11
17.9057
 21
0.746063
  0
LINE
  8
0
 10
17.9057
 20
0.746063
 11
17.9763
 21
0.375992
  0
LINE
  8
0
 10
17.9763
 20
0.375992
 11
18
 21
0
  0
LINE
  8
0
 10
18
 20
0
 11
17.9763
 21
-0.375992
  0
LINE
  8
0
 10
17.9763
 20
-0.375992
 11
17.9057
 21
-0.746063
  0
LINE
  8
0
 10
17.9057
 20
-0.746063
 11
17.7893
 21
-1.10437
  0
LINE
  8
0
 10
17.7893
 20
-1.10437
 11
17.6289
 21
-1.44525
  0
LINE
  8
0
 10
17.6289
 20
-1.44525
 11
17.427
 21
-1.76335
  0
LINE
  8
0
 10
17.427
 20
-1.76335
 11
17.1869
 21
-2.05363
  0
LINE
  8
0
 10
17.1869
 20
-2.05363
 11
16.9123
 21
-2.31154
  0
LINE
  8
0
 10
16.9123
 20
-2.31154
 11
16.6075
 21
-2.53297
  0
LINE
  8
0
 10
16.6075
 20
-2.53297
 11
16.2773
 21
-2.71448
  0
LINE
  8
0
 10
16.2773
 20
-2.71448
 11
15.927
 21
-2.85316
  0
LINE
  8
0
 10
15.927
 20
-2.85316
 11
15.5621
 21
-2.94685
  0
LINE
  8
0
 10
15.5621
 20
-2.94685
 11
15.1884
 21
-2.99408
  0
LINE
  8
0
 10
15.1884
 20
-2.99408
 11
14.8116
 21
-2.99408
  0
LINE
  8
0
 10
82.4058
 20
-1.49704
 11
82.2189
 21
-1.47342
  0
LINE
  8
0
 10
82.2189
 20
-1.47342
 11
82.0365
 21
-1.42657
  0
LINE
  8
0
 10
82.0365
 20
-1.42657
 11
81.8613
 21
-1.35724
  0
LINE
  8
0
 10
81.8613
 20
-1.35724
 11
81.6963
 21
-1.26648
  0
LINE
  8
0
 10
81.6963
 20
-1.26648
 11
81.5439
 21
-1.15576
  0
LINE
  8
0
 10
81.5439
 20
-1.15576
 11
81.4065
 21
-1.02681
  0
LINE
  8
0
 10
81.4065
 20
-1.02681
 11
81.2865
 21
-0.881668
  0
LINE
  8
0
 10
81.2865
 20
-0.881668
 11
81.1855
 21
-0.722626
  0
LINE
  8
0
 10
81.1855
 20
-0.722626
 11
81.1053
 21
-0.552185
  0
LINE
  8
0
 10
81.1053
 20
-0.552185
 11
81.0471
 21
-0.373032
  0
LINE
  8
0
 10
81.0471
 20
-0.373032
 11
81.0118
 21
-0.187988
  0
LINE
  8
0
 10
81.0118
 20
-0.187988
 11
81
 21
0
  0
LINE
  8
0
 10
81
 20
0
 11
81.0118
 21
0.187988
  0
LINE
  8
0
 10
81.0118
 20
0.187988
 11
81.0471
 21
0.373032
  0
LINE
  8
0
 10
81.0471
 20
0.373032
 11
81.1053
 21
0.552185
  0
LINE
  8
0
 10
81.1053
 20
0.552185
 11
81.1855
 21
0.722626
  0
LINE
  8
0
 10
81.1855
 20
0.722626
 11
81.2865
 21
0.881668
  0
LINE
  8
0
 10
81.2865
 20
0.881668
 11
81.4065
 21
1.02681
  0
LINE
  8
0
 10
81.4065
 20
1.02681
 11
81.5439
 21
1.15576
  0
LINE
  8
0
 10
81.5439
 20
1.15576
 11
81.6963
 21
1.26648
  0
LINE
  8
0
 10
81.6963
 20
1.26648
 11
81.8613
 21
1.35724
  0
LINE
  8
0
 10
81.8613
 20
1.35724
 11
82.0365
 21
1.42657
  0
LINE
  8
0
 10
82.0365
 20
1.42657
 11
82.2189
 21
1.47342
  0
LINE
  8
0
 10
82.2189
 20
1.47342
 11
82.4058
 21
1.49704
  0
LINE
  8
0
 10
82.4058
 20
1.49704
 11
82.5942
 21
1.49704
  0
LINE
  8
0
 10
82.5942
 20
1.49704
 11
82.7811
 21
1.47342
  0
LINE
  8
0
 10
82.7811
 20
1.47342
 11
82.9635
 21
1.42657
  0
LINE
  8
0
 10
82.9635
 20
1.42657
 11
83.1387
 21
1.35724
  0
LINE
  8
0
 10
83.1387
 20
1.35724
 11
83.3037
 21
1.26648
  0
LINE
  8
0
 10
83.3037
 20
1.26648
 11
83.4561
 21
1.15576
  0
LINE
  8
0
 10
83.4561
 20
1.15576
 11
83.5934
 21
1.02681
  0
LINE
  8
0
 10
83.5934
 20
1.02681
 11
83.7135
 21
0.881668
  0
LINE
  8
0
 10
83.7135
 20
0.881668
 11
83.8145
 21
0.722626
  0
LINE
  8
0
 10
83.8145
 20
0.722626
 11
83.8947
 21
0.552185
  0
LINE
  8
0
 10
83.8947
 20
0.552185
 11
83.9529
 21
0.373032
  0
LINE
  8
0
 10
83.9529
 20
0.373032
 11
83.9882
 21
0.187988
  0
LINE
  8
0
 10
83.9882
 20
0.187988
 11
84
 21
0
  0
LINE
  8
0
 10
84
 20
0
 11
83.9882
 21
-0.187988
  0
LINE
  8
0
 10
83.9882
 20
-0.187988
 11
83.9529
 21
-0.373032
  0
LINE
  8
0
 10
83.9529
 20
-0.373032
 11
83.8947
 21
-0.552185
  0
LINE
  8
0
 10
83.8947
 20
-0.552185
 11
83.8145
 21
-0.722626
  0
LINE
  8
0
 10
83.8145
 20
-0.722626
 11
83.7135
 21
-0.881668
  0
LINE
  8
0
 10
83.7135
 20
-0.881668
 11
83.5934
 21
-1.02681
  0
LINE
  8
0
 10
83.5934
 20
-1.02681
 11
83.4561
 21
-1.15576
  0
LINE
  8
0
 10
83.4561
 20
-1.15576
 11
83.3037
 21
-1.26648
  0
LINE
  8
0
 10
83.3037
 20
-1.26648
 11
83.1387
 21
-1.35724
  0
LINE
  8
0
 10
83.1387
 20
-1.35724
 11
82.9635
 21
-1.42657
  0
LINE
  8
0
 10
82.9635
 20
-1.42657
 11
82.7811
 21
-1.47342
  0
LINE
  8
0
 10
82.7811
 20
-1.47342
 11
82.5942
 21
-1.49704
  0
LINE
  8
0
 10
82.5942
 20
-1.49704
 11
82.4058
 21
-1.49704
  0
LINE
  8
0
 10
-7.59418
 20
-1.49704
 11
-7.78107
 21
-1.47342
  0
LINE
  8
0
 10
-7.78107
 20
-1.47342
 11
-7.96352
 21
-1.42657
  0
LINE
  8
0
 10
-7.96352
 20
-1.42657
 11
-8.13866
 21
-1.35724
  0
LINE
  8
0
 10
-8.13866
 20
-1.35724
 11
-8.30373
 21
-1.26648
  0
LINE
  8
0
 10
-8.30373
 20
-1.26648
 11
-8.45613
 21
-1.15576
  0
LINE
  8
0
 10
-8.45613
 20
-1.15576
 11
-8.59344
 21
-1.02681
  0
LINE
  8
0
 10
-8.59344
 20
-1.02681
 11
-8.71352
 21
-0.881668
  0
LINE
  8
0
 10
-8.71352
 20
-0.881668
 11
-8.81445
 21
-0.722626
  0
LINE
  8
0
 10
-8.81445
 20
-0.722626
 11
-8.89465
 21
-0.552185
  0
LINE
  8
0
 10
-8.89465
 20
-0.552185
 11
-8.95287
 21
-0.373032
  0
LINE
  8
0
 10
-8.95287
 20
-0.373032
 11
-8.98816
 21
-0.187988
  0
LINE
  8
0
 10
-8.98816
 20
-0.187988
 11
-9
 21
0
  0
LINE
  8
0
 10
-9
 20
0
 11
-8.98816
 21
0.187988
  0
LINE
  8
0
 10
-8.98816
 20
0.187988
 11
-8.95287
 21
0.373032
  0
LINE
  8
0
 10
-8.95287
 20
0.373032
 11
-8.89465
 21
0.552185
  0
LINE
  8
0
 10
-8.89465
 20
0.552185
 11
-8.81445
 21
0.722626
  0
LINE
  8
0
 10
-8.81445
 20
0.722626
 11
-8.71352
 21
0.881668
  0
LINE
  8
0
 10
-8.71352
 20
0.881668
 11
-8.59344
 21
1.02681
  0
LINE
  8
0
 10
-8.59344
 20
1.02681
 11
-8.45613
 21
1.15576
  0
LINE
  8
0
 10
-8.45613
 20
1.15576
 11
-8.30373
 21
1.26648
  0
LINE
  8
0
 10
-8.30373
 20
1.26648
 11
-8.13866
 21
1.35724
  0
LINE
  8
0
 10
-8.13866
 20
1.35724
 11
-7.96352
 21
1.42657
  0
LINE
  8
0
 10
-7.96352
 20
1.42657
 11
-7.78107
 21
1.47342
  0
LINE
  8
0
 10
-7.78107
 20
1.47342
 11
-7.59418
 21
1.49704
  0
LINE
  8
0
 10
-7.59418
 20
1.49704
 11
-7.40581
 21
1.49704
  0
LINE
  8
0
 10
-7.40581
 20
1.49704
 11
-7.21892
 21
1.47342
  0
LINE
  8
0
 10
-7.21892
 20
1.47342
 11
-7.03647
 21
1.42657
  0
LINE
  8
0
 10
-7.03647
 20
1.42657
 11
-6.86133
 21
1.35724
  0
LINE
  8
0
 10
-6.86133
 20
1.35724
 11
-6.69626
 21
1.26648
  0
LINE
  8
0
 10
-6.69626
 20
1.26648
 11
-6.54385
 21
1.15576
  0
LINE
  8
0
 10
-6.54385
 20
1.15576
 11
-6.40654
 21
1.02681
  0
LINE
  8
0
 10
-6.40654
 20
1.02681
 11
-6.28647
 21
0.881668
  0
LINE
  8
0
 10
-6.28647
 20
0.881668
 11
-6.18553
 21
0.722626
  0
LINE
  8
0
 10
-6.18553
 20
0.722626
 11
-6.10533
 21
0.552185
  0
LINE
  8
0
 10
-6.10533
 20
0.552185
 11
-6.04712
 21
0.373032
  0
LINE
  8
0
 10
-6.04712
 20
0.373032
 11
-6.01183
 21
0.187988
  0
LINE
  8
0
 10
-6.01183
 20
0.187988
 11
-6
 21
0
  0
LINE
  8
0
 10
-6
 20
0
 11
-6.01183
 21
-0.187988
  0
LINE
  8
0
 10
-6.01183
 20
-0.187988
 11
-6.04712
 21
-0.373032
  0
LINE
  8
0
 10
-6.04712
 20
-0.373032
 11
-6.10533
 21
-0.552185
  0
LINE
  8
0
 10
-6.10533
 20
-0.552185
 11
-6.18553
 21
-0.722626
  0
LINE
  8
0
 10
-6.18553
 20
-0.722626
 11
-6.28647
 21
-0.881668
  0
LINE
  8
0
 10
-6.28647
 20
-0.881668
 11
-6.40654
 21
-1.02681
  0
LINE
  8
0
 10
-6.40654
 20
-1.02681
 11
-6.54385
 21
-1.15576
  0
LINE
  8
0
 10
-6.54385
 20
-1.15576
 11
-6.69626
 21
-1.26648
  0
LINE
  8
0
 10
-6.69626
 20
-1.26648
 11
-6.86133
 21
-1.35724
  0
LINE
  8
0
 10
-6.86133
 20
-1.35724
 11
-7.03647
 21
-1.42657
  0
LINE
  8
0
 10
-7.03647
 20
-1.42657
 11
-7.21892
 21
-1.47342
  0
LINE
  8
0
 10
-7.21892
 20
-1.47342
 11
-7.40581
 21
-1.49704
  0
LINE
  8
0
 10
-7.40581
 20
-1.49704
 11
-7.59418
 21
-1.49704
  0
LINE
  8
0
 10
-67.5942
 20
-1.49704
 11
-67.7811
 21
-1.47342
  0
LINE
  8
0
 10
-67.7811
 20
-1.47342
 11
-67.9635
 21
-1.42657
  0
LINE
  8
0
 10
-67.9635
 20
-1.42657
 11
-68.1387
 21
-1.35724
  0
LINE
  8
0
 10
-68.1387
 20
-1.35724
 11
-68.3037
 21
-1.26648
  0
LINE
  8
0
 10
-68.3037
 20
-1.26648
 11
-68.4561
 21
-1.15576
  0
LINE
  8
0
 10
-68.4561
 20
-1.15576
 11
-68.5934
 21
-1.02681
  0
LINE
  8
0
 10
-68.5934
 20
-1.02681
 11
-68.7135
 21
-0.881668
  0
LINE
  8
0
 10
-68.7135
 20
-0.881668
 11
-68.8145
 21
-0.722626
  0
LINE
  8
0
 10
-68.8145
 20
-0.722626
 11
-68.8947
 21
-0.552185
  0
LINE
  8
0
 10
-68.8947
 20
-0.552185
 11
-68.9529
 21
-0.373032
  0
LINE
  8
0
 10
-68.9529
 20
-0.373032
 11
-68.9882
 21
-0.187988
  0
LINE
  8
0
 10
-68.9882
 20
-0.187988
 11
-69
 21
0
  0
LINE
  8
0
 10
-69
 20
0
 11
-68.9882
 21
0.187988
  0
LINE
  8
0
 10
-68.9882
 20
0.187988
 11
-68.9529
 21
0.373032
  0
LINE
  8
0
 10
-68.9529
 20
0.373032
 11
-68.8947
 21
0.552185
  0
LINE
  8
0
 10
-68.8947
 20
0.552185
 11
-68.8145
 21
0.722626
  0
LINE
  8
0
 10
-68.8145
 20
0.722626
 11
-68.7135
 21
0.881668
  0
LINE
  8
0
 10
-68.7135
 20
0.881668
 11
-68.5934
 21
1.02681
  0
LINE
  8
0
 10
-68.5934
 20
1.02681
 11
-68.4561
 21
1.15576
  0
LINE
  8
0
 10
-68.4561
 20
1.15576
 11
-68.3037
 21
1.26648
  0
LINE
  8
0
 10
-68.3037
 20
1.26648
 11
-68.1387
 21
1.35724
  0
LINE
  8
0
 10
-68.1387
 20
1.35724
 11
-67.9635
 21
1.42657
  0
LINE
  8
0
 10
-67.9635
 20
1.42657
 11
-67.7811
 21
1.47342
  0
LINE
  8
0
 10
-67.7811
 20
1.47342
 11
-67.5942
 21
1.49704
  0
LINE
  8
0
 10
-67.5942
 20
1.49704
 11
-67.4058
 21
1.49704
  0
LINE
  8
0
 10
-67.4058
 20
1.49704
 11
-67.2189
 21
1.47342
  0
LINE
  8
0
 10
-67.2189
 20
1.47342
 11
-67.0365
 21
1.42657
  0
LINE
  8
0
 10
-67.0365
 20
1.42657
 11
-66.8613
 21
1.35724
  0
LINE
  8
0
 10
-66.8613
 20
1.35724
 11
-66.6963
 21
1.26648
  0
LINE
  8
0
 10
-66.6963
 20
1.26648
 11
-66.5439
 21
1.15576
  0
LINE
  8
0
 10
-66.5439
 20
1.15576
 11
-66.4065
 21
1.02681
  0
LINE
  8
0
 10
-66.4065
 20
1.02681
 11
-66.2865
 21
0.881668
  0
LINE
  8
0
 10
-66.2865
 20
0.881668
 11
-66.1855
 21
0.722626
  0
LINE
  8
0
 10
-66.1855
 20
0.722626
 11
-66.1053
 21
0.552185
  0
LINE
  8
0
 10
-66.1053
 20
0.552185
 11
-66.0471
 21
0.373032
  0
LINE
  8
0
 10
-66.0471
 20
0.373032
 11
-66.0118
 21
0.187988
  0
LINE
  8
0
 10
-66.0118
 20
0.187988
 11
-66
 21
0
  0
LINE
  8
0
 10
-66
 20
0
 11
-66.0118
 21
-0.187988
  0
LINE
  8
0
 10
-66.0118
 20
-0.187988
 11
-66.0471
 21
-0.373032
  0
LINE
  8
0
 10
-66.0471
 20
-0.373032
 11
-66.1053
 21
-0.552185
  0
LINE
  8
0
 10
-66.1053
 20
-0.552185
 11
-66.1855
 21
-0.722626
  0
LINE
  8
0
 10
-66.1855
 20
-0.722626
 11
-66.2865
 21
-0.881668
  0
LINE
  8
0
 10
-66.2865
 20
-0.881668
 11
-66.4065
 21
-1.02681
  0
LINE
  8
0
 10
-66.4065
 20
-1.02681
 11
-66.5439
 21
-1.15576
  0
LINE
  8
0
 10
-66.5439
 20
-1.15576
 11
-66.6963
 21
-1.26648
  0
LINE
  8
0
 10
-66.6963
 20
-1.26648
 11
-66.8613
 21
-1.35724
  0
LINE
  8
0
 10
-66.8613
 20
-1.35724
 11
-67.0365
 21
-1.42657
  0
LINE
  8
0
 10
-67.0365
 20
-1.42657
 11
-67.2189
 21
-1.47342
  0
LINE
  8
0
 10
-67.2189
 20
-1.47342
 11
-67.4058
 21
-1.49704
  0
LINE
  8
0
 10
-67.4058
 20
-1.49704
 11
-67.5942
 21
-1.49704
  0
LINE
  8
0
 10
7.40581
 20
-1.49704
 11
7.21892
 21
-1.47342
  0
LINE
  8
0
 10
7.21892
 20
-1.47342
 11
7.03647
 21
-1.42657
  0
LINE
  8
0
 10
7.03647
 20
-1.42657
 11
6.86133
 21
-1.35724
  0
LINE
  8
0
 10
6.86133
 20
-1.35724
 11
6.69626
 21
-1.26648
  0
LINE
  8
0
 10
6.69626
 20
-1.26648
 11
6.54385
 21
-1.15576
  0
LINE
  8
0
 10
6.54385
 20
-1.15576
 11
6.40654
 21
-1.02681
  0
LINE
  8
0
 10
6.40654
 20
-1.02681
 11
6.28647
 21
-0.881668
  0
LINE
  8
0
 10
6.28647
 20
-0.881668
 11
6.18553
 21
-0.722626
  0
LINE
  8
0
 10
6.18553
 20
-0.722626
 11
6.10533
 21
-0.552185
  0
LINE
  8
0
 10
6.10533
 20
-0.552185
 11
6.04712
 21
-0.373032
  0
LINE
  8
0
 10
6.04712
 20
-0.373032
 11
6.01183
 21
-0.187988
  0
LINE
  8
0
 10
6.01183
 20
-0.187988
 11
6
 21
0
  0
LINE
  8
0
 10
6
 20
0
 11
6.01183
 21
0.187988
  0
LINE
  8
0
 10
6.01183
 20
0.187988
 11
6.04712
 21
0.373032
  0
LINE
  8
0
 10
6.04712
 20
0.373032
 11
6.10533
 21
0.552185
  0
LINE
  8
0
 10
6.10533
 20
0.552185
 11
6.18553
 21
0.722626
  0
LINE
  8
0
 10
6.18553
 20
0.722626
 11
6.28647
 21
0.881668
  0
LINE
  8
0
 10
6.28647
 20
0.881668
 11
6.40654
 21
1.02681
  0
LINE
  8
0
 10
6.40654
 20
1.02681
 11
6.54385
 21
1.15576
  0
LINE
  8
0
 10
6.54385
 20
1.15576
 11
6.69626
 21
1.26648
  0
LINE
  8
0
 10
6.69626
 20
1.26648
 11
6.86133
 21
1.35724
  0
LINE
  8
0
 10
6.86133
 20
1.35724
 11
7.03647
 21
1.42657
  0
LINE
  8
0
 10
7.03647
 20
1.42657
 11
7.21892
 21
1.47342
  0
LINE
  8
0
 10
7.21892
 20
1.47342
 11
7.40581
 21
1.49704
  0
LINE
  8
0
 10
7.40581
 20
1.49704
 11
7.59418
 21
1.49704
  0
LINE
  8
0
 10
7.59418
 20
1.49704
 11
7.78107
 21
1.47342
  0
LINE
  8
0
 10
7.78107
 20
1.47342
 11
7.96352
 21
1.42657
  0
LINE
  8
0
 10
7.96352
 20
1.42657
 11
8.13866
 21
1.35724
  0
LINE
  8
0
 10
8.13866
 20
1.35724
 11
8.30373
 21
1.26648
  0
LINE
  8
0
 10
8.30373
 20
1.26648
 11
8.45613
 21
1.15576
  0
LINE
  8
0
 10
8.45613
 20
1.15576
 11
8.59344
 21
1.02681
  0
LINE
  8
0
 10
8.59344
 20
1.02681
 11
8.71352
 21
0.881668
  0
LINE
  8
0
 10
8.71352
 20
0.881668
 11
8.81445
 21
0.722626
  0
LINE
  8
0
 10
8.81445
 20
0.722626
 11
8.89465
 21
0.552185
  0
LINE
  8
0
 10
8.89465
 20
0.552185
 11
8.95287
 21
0.373032
  0
LINE
  8
0
 10
8.95287
 20
0.373032
 11
8.98816
 21
0.187988
  0
LINE
  8
0
 10
8.98816
 20
0.187988
 11
9
 21
0
  0
LINE
  8
0
 10
9
 20
0
 11
8.98816
 21
-0.187988
  0
LINE
  8
0
 10
8.98816
 20
-0.187988
 11
8.95287
 21
-0.373032
  0
LINE
  8
0
 10
8.95287
 20
-0.373032
 11
8.89465
 21
-0.552185
  0
LINE
  8
0
 10
8.89465
 20
-0.552185
 11
8.81445
 21
-0.722626
  0
LINE
  8
0
 10
8.81445
 20
-0.722626
 11
8.71352
 21
-0.881668
  0
LINE
  8
0
 10
8.71352
 20
-0.881668
 11
8.59344
 21
-1.02681
  0
LINE
  8
0
 10
8.59344
 20
-1.02681
 11
8.45613
 21
-1.15576
  0
LINE
  8
0
 10
8.45613
 20
-1.15576
 11
8.30373
 21
-1.26648
  0
LINE
  8
0
 10
8.30373
 20
-1.26648
 11
8.13866
 21
-1.35724
  0
LINE
  8
0
 10
8.13866
 20
-1.35724
 11
7.96352
 21
-1.42657
  0
LINE
  8
0
 10
7.96352
 20
-1.42657
 11
7.78107
 21
-1.47342
  0
LINE
  8
0
 10
7.78107
 20
-1.47342
 11
7.59418
 21
-1.49704
  0
LINE
  8
0
 10
7.59418
 20
-1.49704
 11
7.40581
 21
-1.49704
  0
LINE
  8
0
 10
-37.5942
 20
-1.49704
 11
-37.7811
 21
-1.47342
  0
LINE
  8
0
 10
-37.7811
 20
-1.47342
 11
-37.9635
 21
-1.42657
  0
LINE
  8
0
 10
-37.9635
 20
-1.42657
 11
-38.1387
 21
-1.35724
  0
LINE
  8
0
 10
-38.1387
 20
-1.35724
 11
-38.3037
 21
-1.26648
  0
LINE
  8
0
 10
-38.3037
 20
-1.26648
 11
-38.4561
 21
-1.15576
  0
LINE
  8
0
 10
-38.4561
 20
-1.15576
 11
-38.5934
 21
-1.02681
  0
LINE
  8
0
 10
-38.5934
 20
-1.02681
 11
-38.7135
 21
-0.881668
  0
LINE
  8
0
 10
-38.7135
 20
-0.881668
 11
-38.8145
 21
-0.722626
  0
LINE
  8
0
 10
-38.8145
 20
-0.722626
 11
-38.8947
 21
-0.552185
  0
LINE
  8
0
 10
-38.8947
 20
-0.552185
 11
-38.9529
 21
-0.373032
  0
LINE
  8
0
 10
-38.9529
 20
-0.373032
 11
-38.9882
 21
-0.187988
  0
LINE
  8
0
 10
-38.9882
 20
-0.187988
 11
-39
 21
0
  0
LINE
  8
0
 10
-39
 20
0
 11
-38.9882
 21
0.187988
  0
LINE
  8
0
 10
-38.9882
 20
0.187988
 11
-38.9529
 21
0.373032
  0
LINE
  8
0
 10
-38.9529
 20
0.373032
 11
-38.8947
 21
0.552185
  0
LINE
  8
0
 10
-38.8947
 20
0.552185
 11
-38.8145
 21
0.722626
  0
LINE
  8
0
 10
-38.8145
 20
0.722626
 11
-38.7135
 21
0.881668
  0
LINE
  8
0
 10
-38.7135
 20
0.881668
 11
-38.5934
 21
1.02681
  0
LINE
  8
0
 10
-38.5934
 20
1.02681
 11
-38.4561
 21
1.15576
  0
LINE
  8
0
 10
-38.4561
 20
1.15576
 11
-38.3037
 21
1.26648
  0
LINE
  8
0
 10
-38.3037
 20
1.26648
 11
-38.1387
 21
1.35724
  0
LINE
  8
0
 10
-38.1387
 20
1.35724
 11
-37.9635
 21
1.42657
  0
LINE
  8
0
 10
-37.9635
 20
1.42657
 11
-37.7811
 21
1.47342
  0
LINE
  8
0
 10
-37.7811
 20
1.47342
 11
-37.5942
 21
1.49704
  0
LINE
  8
0
 10
-37.5942
 20
1.49704
 11
-37.4058
 21
1.49704
  0
LINE
  8
0
 10
-37.4058
 20
1.49704
 11
-37.2189
 21
1.47342
  0
LINE
  8
0
 10
-37.2189
 20
1.47342
 11
-37.0365
 21
1.42657
  0
LINE
  8
0
 10
-37.0365
 20
1.42657
 11
-36.8613
 21
1.35724
  0
LINE
  8
0
 10
-36.8613
 20
1.35724
 11
-36.6963
 21
1.26648
  0
LINE
  8
0
 10
-36.6963
 20
1.26648
 11
-36.5439
 21
1.15576
  0
LINE
  8
0
 10
-36.5439
 20
1.15576
 11
-36.4065
 21
1.02681
  0
LINE
  8
0
 10
-36.4065
 20
1.02681
 11
-36.2865
 21
0.881668
  0
LINE
  8
0
 10
-36.2865
 20
0.881668
 11
-36.1855
 21
0.722626
  0
LINE
  8
0
 10
-36.1855
 20
0.722626
 11
-36.1053
 21
0.552185
  0
LINE
  8
0
 10
-36.1053
 20
0.552185
 11
-36.0471
 21
0.373032
  0
LINE
  8
0
 10
-36.0471
 20
0.373032
 11
-36.0118
 21
0.187988
  0
LINE
  8
0
 10
-36.0118
 20
0.187988
 11
-36
 21
0
  0
LINE
  8
0
 10
-36
 20
0
 11
-36.0118
 21
-0.187988
  0
LINE
  8
0
 10
-36.0118
 20
-0.187988
 11
-36.0471
 21
-0.373032
  0
LINE
  8
0
 10
-36.0471
 20
-0.373032
 11
-36.1053
 21
-0.552185
  0
LINE
  8
0
 10
-36.1053
 20
-0.552185
 11
-36.1855
 21
-0.722626
  0
LINE
  8
0
 10
-36.1855
 20
-0.722626
 11
-36.2865
 21
-0.881668
  0
LINE
  8
0
 10
-36.2865
 20
-0.881668
 11
-36.4065
 21
-1.02681
  0
LINE
  8
0
 10
-36.4065
 20
-1.02681
 11
-36.5439
 21
-1.15576
  0
LINE
  8
0
 10
-36.5439
 20
-1.15576
 11
-36.6963
 21
-1.26648
  0
LINE
  8
0
 10
-36.6963
 20
-1.26648
 11
-36.8613
 21
-1.35724
  0
LINE
  8
0
 10
-36.8613
 20
-1.35724
 11
-37.0365
 21
-1.42657
  0
LINE
  8
0
 10
-37.0365
 20
-1.42657
 11
-37.2189
 21
-1.47342
  0
LINE
  8
0
 10
-37.2189
 20
-1.47342
 11
-37.4058
 21
-1.49704
  0
LINE
  8
0
 10
-37.4058
 20
-1.49704
 11
-37.5942
 21
-1.49704
  0
LINE
  8
0
 10
67.4058
 20
-1.49704
 11
67.2189
 21
-1.47342
  0
LINE
  8
0
 10
67.2189
 20
-1.47342
 11
67.0365
 21
-1.42657
  0
LINE
  8
0
 10
67.0365
 20
-1.42657
 11
66.8613
 21
-1.35724
  0
LINE
  8
0
 10
66.8613
 20
-1.35724
 11
66.6963
 21
-1.26648
  0
LINE
  8
0
 10
66.6963
 20
-1.26648
 11
66.5439
 21
-1.15576
  0
LINE
  8
0
 10
66.5439
 20
-1.15576
 11
66.4065
 21
-1.02681
  0
LINE
  8
0
 10
66.4065
 20
-1.02681
 11
66.2865
 21
-0.881668
  0
LINE
  8
0
 10
66.2865
 20
-0.881668
 11
66.1855
 21
-0.722626
  0
LINE
  8
0
 10
66.1855
 20
-0.722626
 11
66.1053
 21
-0.552185
  0
LINE
  8
0
 10
66.1053
 20
-0.552185
 11
66.0471
 21
-0.373032
  0
LINE
  8
0
 10
66.0471
 20
-0.373032
 11
66.0118
 21
-0.187988
  0
LINE
  8
0
 10
66.0118
 20
-0.187988
 11
66
 21
0
  0
LINE
  8
0
 10
66
 20
0
 11
66.0118
 21
0.187988
  0
LINE
  8
0
 10
66.0118
 20
0.187988
 11
66.0471
 21
0.373032
  0
LINE
  8
0
 10
66.0471
 20
0.373032
 11
66.1053
 21
0.552185
  0
LINE
  8
0
 10
66.1053
 20
0.552185
 11
66.1855
 21
0.722626
  0
LINE
  8
0
 10
66.1855
 20
0.722626
 11
66.2865
 21
0.881668
  0
LINE
  8
0
 10
66.2865
 20
0.881668
 11
66.4065
 21
1.02681
  0
LINE
  8
0
 10
66.4065
 20
1.02681
 11
66.5439
 21
1.15576
  0
LINE
  8
0
 10
66.5439
 20
1.15576
 11
66.6963
 21
1.26648
  0
LINE
  8
0
 10
66.6963
 20
1.26648
 11
66.8613
 21
1.35724
  0
LINE
  8
0
 10
66.8613
 20
1.35724
 11
67.0365
 21
1.42657
  0
LINE
  8
0
 10
67.0365
 20
1.42657
 11
67.2189
 21
1.47342
  0
LINE
  8
0
 10
67.2189
 20
1.47342
 11
67.4058
 21
1.49704
  0
LINE
  8
0
 10
67.4058
 20
1.49704
 11
67.5942
 21
1.49704
  0
LINE
  8
0
 10
67.5942
 20
1.49704
 11
67.7811
 21
1.47342
  0
LINE
  8
0
 10
67.7811
 20
1.47342
 11
67.9635
 21
1.42657
  0
LINE
  8
0
 10
67.9635
 20
1.42657
 11
68.1387
 21
1.35724
  0
LINE
  8
0
 10
68.1387
 20
1.35724
 11
68.3037
 21
1.26648
  0
LINE
  8
0
 10
68.3037
 20
1.26648
 11
68.4561
 21
1.15576
  0
LINE
  8
0
 10
68.4561
 20
1.15576
 11
68.5934
 21
1.02681
  0
LINE
  8
0
 10
68.5934
 20
1.02681
 11
68.7135
 21
0.881668
  0
LINE
  8
0
 10
68.7135
 20
0.881668
 11
68.8145
 21
0.722626
  0
LINE
  8
0
 10
68.8145
 20
0.722626
 11
68.8947
 21
0.552185
  0
LINE
  8
0
 10
68.8947
 20
0.552185
 11
68.9529
 21
0.373032
  0
LINE
  8
0
 10
68.9529
 20
0.373032
 11
68.9882
 21
0.187988
  0
LINE
  8
0
 10
68.9882
 20
0.187988
 11
69
 21
0
  0
LINE
  8
0
 10
69
 20
0
 11
68.9882
 21
-0.187988
  0
LINE
  8
0
 10
68.9882
 20
-0.187988
 11
68.9529
 21
-0.373032
  0
LINE
  8
0
 10
68.9529
 20
-0.373032
 11
68.8947
 21
-0.552185
  0
LINE
  8
0
 10
68.8947
 20
-0.552185
 11
68.8145
 21
-0.722626
  0
LINE
  8
0
 10
68.8145
 20
-0.722626
 11
68.7135
 21
-0.881668
  0
LINE
  8
0
 10
68.7135
 20
-0.881668
 11
68.5934
 21
-1.02681
  0
LINE
  8
0
 10
68.5934
 20
-1.02681
 11
68.4561
 21
-1.15576
  0
LINE
  8
0
 10
68.4561
 20
-1.15576
 11
68.3037
 21
-1.26648
  0
LINE
  8
0
 10
68.3037
 20
-1.26648
 11
68.1387
 21
-1.35724
  0
LINE
  8
0
 10
68.1387
 20
-1.35724
 11
67.9635
 21
-1.42657
  0
LINE
  8
0
 10
67.9635
 20
-1.42657
 11
67.7811
 21
-1.47342
  0
LINE
  8
0
 10
67.7811
 20
-1.47342
 11
67.5942
 21
-1.49704
  0
LINE
  8
0
 10
67.5942
 20
-1.49704
 11
67.4058
 21
-1.49704
  0
LINE
  8
0
 10
52.4058
 20
-1.49704
 11
52.2189
 21
-1.47342
  0
LINE
  8
0
 10
52.2189
 20
-1.47342
 11
52.0365
 21
-1.42657
  0
LINE
  8
0
 10
52.0365
 20
-1.42657
 11
51.8613
 21
-1.35724
  0
LINE
  8
0
 10
51.8613
 20
-1.35724
 11
51.6963
 21
-1.26648
  0
LINE
  8
0
 10
51.6963
 20
-1.26648
 11
51.5439
 21
-1.15576
  0
LINE
  8
0
 10
51.5439
 20
-1.15576
 11
51.4065
 21
-1.02681
  0
LINE
  8
0
 10
51.4065
 20
-1.02681
 11
51.2865
 21
-0.881668
  0
LINE
  8
0
 10
51.2865
 20
-0.881668
 11
51.1855
 21
-0.722626
  0
LINE
  8
0
 10
51.1855
 20
-0.722626
 11
51.1053
 21
-0.552185
  0
LINE
  8
0
 10
51.1053
 20
-0.552185
 11
51.0471
 21
-0.373032
  0
LINE
  8
0
 10
51.0471
 20
-0.373032
 11
51.0118
 21
-0.187988
  0
LINE
  8
0
 10
51.0118
 20
-0.187988
 11
51
 21
0
  0
LINE
  8
0
 10
51
 20
0
 11
51.0118
 21
0.187988
  0
LINE
  8
0
 10
51.0118
 20
0.187988
 11
51.0471
 21
0.373032
  0
LINE
  8
0
 10
51.0471
 20
0.373032
 11
51.1053
 21
0.552185
  0
LINE
  8
0
 10
51.1053
 20
0.552185
 11
51.1855
 21
0.722626
  0
LINE
  8
0
 10
51.1855
 20
0.722626
 11
51.2865
 21
0.881668
  0
LINE
  8
0
 10
51.2865
 20
0.881668
 11
51.4065
 21
1.02681
  0
LINE
  8
0
 10
51.4065
 20
1.02681
 11
51.5439
 21
1.15576
  0
LINE
  8
0
 10
51.5439
 20
1.15576
 11
51.6963
 21
1.26648
  0
LINE
  8
0
 10
51.6963
 20
1.26648
 11
51.8613
 21
1.35724
  0
LINE
  8
0
 10
51.8613
 20
1.35724
 11
52.0365
 21
1.42657
  0
LINE
  8
0
 10
52.0365
 20
1.42657
 11
52.2189
 21
1.47342
  0
LINE
  8
0
 10
52.2189
 20
1.47342
 11
52.4058
 21
1.49704
  0
LINE
  8
0
 10
52.4058
 20
1.49704
 11
52.5942
 21
1.49704
  0
LINE
  8
0
 10
52.5942
 20
1.49704
 11
52.7811
 21
1.47342
  0
LINE
  8
0
 10
52.7811
 20
1.47342
 11
52.9635
 21
1.42657
  0
LINE
  8
0
 10
52.9635
 20
1.42657
 11
53.1387
 21
1.35724
  0
LINE
  8
0
 10
53.1387
 20
1.35724
 11
53.3037
 21
1.26648
  0
LINE
  8
0
 10
53.3037
 20
1.26648
 11
53.4561
 21
1.15576
  0
LINE
  8
0
 10
53.4561
 20
1.15576
 11
53.5934
 21
1.02681
  0
LINE
  8
0
 10
53.5934
 20
1.02681
 11
53.7135
 21
0.881668
  0
LINE
  8
0
 10
53.7135
 20
0.881668
 11
53.8145
 21
0.722626
  0
LINE
  8
0
 10
53.8145
 20
0.722626
 11
53.8947
 21
0.552185
  0
LINE
  8
0
 10
53.8947
 20
0.552185
 11
53.9529
 21
0.373032
  0
LINE
  8
0
 10
53.9529
 20
0.373032
 11
53.9882
 21
0.187988
  0
LINE
  8
0
 10
53.9882
 20
0.187988
 11
54
 21
0
  0
LINE
  8
0
 10
54
 20
0
 11
53.9882
 21
-0.187988
  0
LINE
  8
0
 10
53.9882
 20
-0.187988
 11
53.9529
 21
-0.373032
  0
LINE
  8
0
 10
53.9529
 20
-0.373032
 11
53.8947
 21
-0.552185
  0
LINE
  8
0
 10
53.8947
 20
-0.552185
 11
53.8145
 21
-0.722626
  0
LINE
  8
0
 10
53.8145
 20
-0.722626
 11
53.7135
 21
-0.881668
  0
LINE
  8
0
 10
53.7135
 20
-0.881668
 11
53.5934
 21
-1.02681
  0
LINE
  8
0
 10
53.5934
 20
-1.02681
 11
53.4561
 21
-1.15576
  0
LINE
  8
0
 10
53.4561
 20
-1.15576
 11
53.3037
 21
-1.26648
  0
LINE
  8
0
 10
53.3037
 20
-1.26648
 11
53.1387
 21
-1.35724
  0
LINE
  8
0
 10
53.1387
 20
-1.35724
 11
52.9635
 21
-1.42657
  0
LINE
  8
0
 10
52.9635
 20
-1.42657
 11
52.7811
 21
-1.47342
  0
LINE
  8
0
 10
52.7811
 20
-1.47342
 11
52.5942
 21
-1.49704
  0
LINE
  8
0
 10
52.5942
 20
-1.49704
 11
52.4058
 21
-1.49704
  0
LINE
  8
0
 10
-82.5942
 20
-1.49704
 11
-82.7811
 21
-1.47342
  0
LINE
  8
0
 10
-82.7811
 20
-1.47342
 11
-82.9635
 21
-1.42657
  0
LINE
  8
0
 10
-82.9635
 20
-1.42657
 11
-83.1387
 21
-1.35724
  0
LINE
  8
0
 10
-83.1387
 20
-1.35724
 11
-83.3037
 21
-1.26648
  0
LINE
  8
0
 10
-83.3037
 20
-1.26648
 11
-83.4561
 21
-1.15576
  0
LINE
  8
0
 10
-83.4561
 20
-1.15576
 11
-83.5934
 21
-1.02681
  0
LINE
  8
0
 10
-83.5934
 20
-1.02681
 11
-83.7135
 21
-0.881668
  0
LINE
  8
0
 10
-83.7135
 20
-0.881668
 11
-83.8145
 21
-0.722626
  0
LINE
  8
0
 10
-83.8145
 20
-0.722626
 11
-83.8947
 21
-0.552185
  0
LINE
  8
0
 10
-83.8947
 20
-0.552185
 11
-83.9529
 21
-0.373032
  0
LINE
  8
0
 10
-83.9529
 20
-0.373032
 11
-83.9882
 21
-0.187988
  0
LINE
  8
0
 10
-83.9882
 20
-0.187988
 11
-84
 21
0
  0
LINE
  8
0
 10
-84
 20
0
 11
-83.9882
 21
0.187988
  0
LINE
  8
0
 10
-83.9882
 20
0.187988
 11
-83.9529
 21
0.373032
  0
LINE
  8
0
 10
-83.9529
 20
0.373032
 11
-83.8947
 21
0.552185
  0
LINE
  8
0
 10
-83.8947
 20
0.552185
 11
-83.8145
 21
0.722626
  0
LINE
  8
0
 10
-83.8145
 20
0.722626
 11
-83.7135
 21
0.881668
  0
LINE
  8
0
 10
-83.7135
 20
0.881668
 11
-83.5934
 21
1.02681
  0
LINE
  8
0
 10
-83.5934
 20
1.02681
 11
-83.4561
 21
1.15576
  0
LINE
  8
0
 10
-83.4561
 20
1.15576
 11
-83.3037
 21
1.26648
  0
LINE
  8
0
 10
-83.3037
 20
1.26648
 11
-83.1387
 21
1.35724
  0
LINE
  8
0
 10
-83.1387
 20
1.35724
 11
-82.9635
 21
1.42657
  0
LINE
  8
0
 10
-82.9635
 20
1.42657
 11
-82.7811
 21
1.47342
  0
LINE
  8
0
 10
-82.7811
 20
1.47342
 11
-82.5942
 21
1.49704
  0
LINE
  8
0
 10
-82.5942
 20
1.49704
 11
-82.4058
 21
1.49704
  0
LINE
  8
0
 10
-82.4058
 20
1.49704
 11
-82.2189
 21
1.47342
  0
LINE
  8
0
 10
-82.2189
 20
1.47342
 11
-82.0365
 21
1.42657
  0
LINE
  8
0
 10
-82.0365
 20
1.42657
 11
-81.8613
 21
1.35724
  0
LINE
  8
0
 10
-81.8613
 20
1.35724
 11
-81.6963
 21
1.26648
  0
LINE
  8
0
 10
-81.6963
 20
1.26648
 11
-81.5439
 21
1.15576
  0
LINE
  8
0
 10
-81.5439
 20
1.15576
 11
-81.4065
 21
1.02681
  0
LINE
  8
0
 10
-81.4065
 20
1.02681
 11
-81.2865
 21
0.881668
  0
LINE
  8
0
 10
-81.2865
 20
0.881668
 11
-81.1855
 21
0.722626
  0
LINE
  8
0
 10
-81.1855
 20
0.722626
 11
-81.1053
 21
0.552185
  0
LINE
  8
0
 10
-81.1053
 20
0.552185
 11
-81.0471
 21
0.373032
  0
LINE
  8
0
 10
-81.0471
 20
0.373032
 11
-81.0118
 21
0.187988
  0
LINE
  8
0
 10
-81.0118
 20
0.187988
 11
-81
 21
0
  0
LINE
  8
0
 10
-81
 20
0
 11
-81.0118
 21
-0.187988
  0
LINE
  8
0
 10
-81.0118
 20
-0.187988
 11
-81.0471
 21
-0.373032
  0
LINE
  8
0
 10
-81.0471
 20
-0.373032
 11
-81.1053
 21
-0.552185
  0
LINE
  8
0
 10
-81.1053
 20
-0.552185
 11
-81.1855
 21
-0.722626
  0
LINE
  8
0
 10
-81.1855
 20
-0.722626
 11
-81.2865
 21
-0.881668
  0
LINE
  8
0
 10
-81.2865
 20
-0.881668
 11
-81.4065
 21
-1.02681
  0
LINE
  8
0
 10
-81.4065
 20
-1.02681
 11
-81.5439
 21
-1.15576
  0
LINE
  8
0
 10
-81.5439
 20
-1.15576
 11
-81.6963
 21
-1.26648
  0
LINE
  8
0
 10
-81.6963
 20
-1.26648
 11
-81.8613
 21
-1.35724
  0
LINE
  8
0
 10
-81.8613
 20
-1.35724
 11
-82.0365
 21
-1.42657
  0
LINE
  8
0
 10
-82.0365
 20
-1.42657
 11
-82.2189
 21
-1.47342
  0
LINE
  8
0
 10
-82.2189
 20
-1.47342
 11
-82.4058
 21
-1.49704
  0
LINE
  8
0
 10
-82.4058
 20
-1.49704
 11
-82.5942
 21
-1.49704
  0
LINE
  8
0
 10
37.4058
 20
-1.49704
 11
37.2189
 21
-1.47342
  0
LINE
  8
0
 10
37.2189
 20
-1.47342
 11
37.0365
 21
-1.42657
  0
LINE
  8
0
 10
37.0365
 20
-1.42657
 11
36.8613
 21
-1.35724
  0
LINE
  8
0
 10
36.8613
 20
-1.35724
 11
36.6963
 21
-1.26648
  0
LINE
  8
0
 10
36.6963
 20
-1.26648
 11
36.5439
 21
-1.15576
  0
LINE
  8
0
 10
36.5439
 20
-1.15576
 11
36.4065
 21
-1.02681
  0
LINE
  8
0
 10
36.4065
 20
-1.02681
 11
36.2865
 21
-0.881668
  0
LINE
  8
0
 10
36.2865
 20
-0.881668
 11
36.1855
 21
-0.722626
  0
LINE
  8
0
 10
36.1855
 20
-0.722626
 11
36.1053
 21
-0.552185
  0
LINE
  8
0
 10
36.1053
 20
-0.552185
 11
36.0471
 21
-0.373032
  0
LINE
  8
0
 10
36.0471
 20
-0.373032
 11
36.0118
 21
-0.187988
  0
LINE
  8
0
 10
36.0118
 20
-0.187988
 11
36
 21
0
  0
LINE
  8
0
 10
36
 20
0
 11
36.0118
 21
0.187988
  0
LINE
  8
0
 10
36.0118
 20
0.187988
 11
36.0471
 21
0.373032
  0
LINE
  8
0
 10
36.0471
 20
0.373032
 11
36.1053
 21
0.552185
  0
LINE
  8
0
 10
36.1053
 20
0.552185
 11
36.1855
 21
0.722626
  0
LINE
  8
0
 10
36.1855
 20
0.722626
 11
36.2865
 21
0.881668
  0
LINE
  8
0
 10
36.2865
 20
0.881668
 11
36.4065
 21
1.02681
  0
LINE
  8
0
 10
36.4065
 20
1.02681
 11
36.5439
 21
1.15576
  0
LINE
  8
0
 10
36.5439
 20
1.15576
 11
36.6963
 21
1.26648
  0
LINE
  8
0
 10
36.6963
 20
1.26648
 11
36.8613
 21
1.35724
  0
LINE
  8
0
 10
36.8613
 20
1.35724
 11
37.0365
 21
1.42657
  0
LINE
  8
0
 10
37.0365
 20
1.42657
 11
37.2189
 21
1.47342
  0
LINE
  8
0
 10
37.2189
 20
1.47342
 11
37.4058
 21
1.49704
  0
LINE
  8
0
 10
37.4058
 20
1.49704
 11
37.5942
 21
1.49704
  0
LINE
  8
0
 10
37.5942
 20
1.49704
 11
37.7811
 21
1.47342
  0
LINE
  8
0
 10
37.7811
 20
1.47342
 11
37.9635
 21
1.42657
  0
LINE
  8
0
 10
37.9635
 20
1.42657
 11
38.1387
 21
1.35724
  0
LINE
  8
0
 10
38.1387
 20
1.35724
 11
38.3037
 21
1.26648
  0
LINE
  8
0
 10
38.3037
 20
1.26648
 11
38.4561
 21
1.15576
  0
LINE
  8
0
 10
38.4561
 20
1.15576
 11
38.5934
 21
1.02681
  0
LINE
  8
0
 10
38.5934
 20
1.02681
 11
38.7135
 21
0.881668
  0
LINE
  8
0
 10
38.7135
 20
0.881668
 11
38.8145
 21
0.722626
  0
LINE
  8
0
 10
38.8145
 20
0.722626
 11
38.8947
 21
0.552185
  0
LINE
  8
0
 10
38.8947
 20
0.552185
 11
38.9529
 21
0.373032
  0
LINE
  8
0
 10
38.9529
 20
0.373032
 11
38.9882
 21
0.187988
  0
LINE
  8
0
 10
38.9882
 20
0.187988
 11
39
 21
0
  0
LINE
  8
0
 10
39
 20
0
 11
38.9882
 21
-0.187988
  0
LINE
  8
0
 10
38.9882
 20
-0.187988
 11
38.9529
 21
-0.373032
  0
LINE
  8
0
 10
38.9529
 20
-0.373032
 11
38.8947
 21
-0.552185
  0
LINE
  8
0
 10
38.8947
 20
-0.552185
 11
38.8145
 21
-0.722626
  0
LINE
  8
0
 10
38.8145
 20
-0.722626
 11
38.7135
 21
-0.881668
  0
LINE
  8
0
 10
38.7135
 20
-0.881668
 11
38.5934
 21
-1.02681
  0
LINE
  8
0
 10
38.5934
 20
-1.02681
 11
38.4561
 21
-1.15576
  0
LINE
  8
0
 10
38.4561
 20
-1.15576
 11
38.3037
 21
-1.26648
  0
LINE
  8
0
 10
38.3037
 20
-1.26648
 11
38.1387
 21
-1.35724
  0
LINE
  8
0
 10
38.1387
 20
-1.35724
 11
37.9635
 21
-1.42657
  0
LINE
  8
0
 10
37.9635
 20
-1.42657
 11
37.7811
 21
-1.47342
  0
LINE
  8
0
 10
37.7811
 20
-1.47342
 11
37.5942
 21
-1.49704
  0
LINE
  8
0
 10
37.5942
 20
-1.49704
 11
37.4058
 21
-1.49704
  0
LINE
  8
0
 10
-52.5942
 20
-1.49704
 11
-52.7811
 21
-1.47342
  0
LINE
  8
0
 10
-52.7811
 20
-1.47342
 11
-52.9635
 21
-1.42657
  0
LINE
  8
0
 10
-52.9635
 20
-1.42657
 11
-53.1387
 21
-1.35724
  0
LINE
  8
0
 10
-53.1387
 20
-1.35724
 11
-53.3037
 21
-1.26648
  0
LINE
  8
0
 10
-53.3037
 20
-1.26648
 11
-53.4561
 21
-1.15576
  0
LINE
  8
0
 10
-53.4561
 20
-1.15576
 11
-53.5934
 21
-1.02681
  0
LINE
  8
0
 10
-53.5934
 20
-1.02681
 11
-53.7135
 21
-0.881668
  0
LINE
  8
0
 10
-53.7135
 20
-0.881668
 11
-53.8145
 21
-0.722626
  0
LINE
  8
0
 10
-53.8145
 20
-0.722626
 11
-53.8947
 21
-0.552185
  0
LINE
  8
0
 10
-53.8947
 20
-0.552185
 11
-53.9529
 21
-0.373032
  0
LINE
  8
0
 10
-53.9529
 20
-0.373032
 11
-53.9882
 21
-0.187988
  0
LINE
  8
0
 10
-53.9882
 20
-0.187988
 11
-54
 21
0
  0
LINE
  8
0
 10
-54
 20
0
 11
-53.9882
 21
0.187988
  0
LINE
  8
0
 10
-53.9882
 20
0.187988
 11
-53.9529
 21
0.373032
  0
LINE
  8
0
 10
-53.9529
 20
0.373032
 11
-53.8947
 21
0.552185
  0
LINE
  8
0
 10
-53.8947
 20
0.552185
 11
-53.8145
 21
0.722626
  0
LINE
  8
0
 10
-53.8145
 20
0.722626
 11
-53.7135
 21
0.881668
  0
LINE
  8
0
 10
-53.7135
 20
0.881668
 11
-53.5934
 21
1.02681
  0
LINE
  8
0
 10
-53.5934
 20
1.02681
 11
-53.4561
 21
1.15576
  0
LINE
  8
0
 10
-53.4561
 20
1.15576
 11
-53.3037
 21
1.26648
  0
LINE
  8
0
 10
-53.3037
 20
1.26648
 11
-53.1387
 21
1.35724
  0
LINE
  8
0
 10
-53.1387
 20
1.35724
 11
-52.9635
 21
1.42657
  0
LINE
  8
0
 10
-52.9635
 20
1.42657
 11
-52.7811
 21
1.47342
  0
LINE
  8
0
 10
-52.7811
 20
1.47342
 11
-52.5942
 21
1.49704
  0
LINE
  8
0
 10
-52.5942
 20
1.49704
 11
-52.4058
 21
1.49704
  0
LINE
  8
0
 10
-52.4058
 20
1.49704
 11
-52.2189
 21
1.47342
  0
LINE
  8
0
 10
-52.2189
 20
1.47342
 11
-52.0365
 21
1.42657
  0
LINE
  8
0
 10
-52.0365
 20
1.42657
 11
-51.8613
 21
1.35724
  0
LINE
  8
0
 10
-51.8613
 20
1.35724
 11
-51.6963
 21
1.26648
  0
LINE
  8
0
 10
-51.6963
 20
1.26648
 11
-51.5439
 21
1.15576
  0
LINE
  8
0
 10
-51.5439
 20
1.15576
 11
-51.4065
 21
1.02681
  0
LINE
  8
0
 10
-51.4065
 20
1.02681
 11
-51.2865
 21
0.881668
  0
LINE
  8
0
 10
-51.2865
 20
0.881668
 11
-51.1855
 21
0.722626
  0
LINE
  8
0
 10
-51.1855
 20
0.722626
 11
-51.1053
 21
0.552185
  0
LINE
  8
0
 10
-51.1053
 20
0.552185
 11
-51.0471
 21
0.373032
  0
LINE
  8
0
 10
-51.0471
 20
0.373032
 11
-51.0118
 21
0.187988
  0
LINE
  8
0
 10
-51.0118
 20
0.187988
 11
-51
 21
0
  0
LINE
  8
0
 10
-51
 20
0
 11
-51.0118
 21
-0.187988
  0
LINE
  8
0
 10
-51.0118
 20
-0.187988
 11
-51.0471
 21
-0.373032
  0
LINE
  8
0
 10
-51.0471
 20
-0.373032
 11
-51.1053
 21
-0.552185
  0
LINE
  8
0
 10
-51.1053
 20
-0.552185
 11
-51.1855
 21
-0.722626
  0
LINE
  8
0
 10
-51.1855
 20
-0.722626
 11
-51.2865
 21
-0.881668
  0
LINE
  8
0
 10
-51.2865
 20
-0.881668
 11
-51.4065
 21
-1.02681
  0
LINE
  8
0
 10
-51.4065
 20
-1.02681
 11
-51.5439
 21
-1.15576
  0
LINE
  8
0
 10
-51.5439
 20
-1.15576
 11
-51.6963
 21
-1.26648
  0
LINE
  8
0
 10
-51.6963
 20
-1.26648
 11
-51.8613
 21
-1.35724
  0
LINE
  8
0
 10
-51.8613
 20
-1.35724
 11
-52.0365
 21
-1.42657
  0
LINE
  8
0
 10
-52.0365
 20
-1.42657
 11
-52.2189
 21
-1.47342
  0
LINE
  8
0
 10
-52.2189
 20
-1.47342
 11
-52.4058
 21
-1.49704
  0
LINE
  8
0
 10
-52.4058
 20
-1.49704
 11
-52.5942
 21
-1.49704
  0
LINE
  8
0
 10
-22.5942
 20
-1.49704
 11
-22.7811
 21
-1.47342
  0
LINE
  8
0
 10
-22.7811
 20
-1.47342
 11
-22.9635
 21
-1.42657
  0
LINE
  8
0
 10
-22.9635
 20
-1.42657
 11
-23.1387
 21
-1.35724
  0
LINE
  8
0
 10
-23.1387
 20
-1.35724
 11
-23.3037
 21
-1.26648
  0
LINE
  8
0
 10
-23.3037
 20
-1.26648
 11
-23.4561
 21
-1.15576
  0
LINE
  8
0
 10
-23.4561
 20
-1.15576
 11
-23.5934
 21
-1.02681
  0
LINE
  8
0
 10
-23.5934
 20
-1.02681
 11
-23.7135
 21
-0.881668
  0
LINE
  8
0
 10
-23.7135
 20
-0.881668
 11
-23.8145
 21
-0.722626
  0
LINE
  8
0
 10
-23.8145
 20
-0.722626
 11
-23.8947
 21
-0.552185
  0
LINE
  8
0
 10
-23.8947
 20
-0.552185
 11
-23.9529
 21
-0.373032
  0
LINE
  8
0
 10
-23.9529
 20
-0.373032
 11
-23.9882
 21
-0.187988
  0
LINE
  8
0
 10
-23.9882
 20
-0.187988
 11
-24
 21
0
  0
LINE
  8
0
 10
-24
 20
0
 11
-23.9882
 21
0.187988
  0
LINE
  8
0
 10
-23.9882
 20
0.187988
 11
-23.9529
 21
0.373032
  0
LINE
  8
0
 10
-23.9529
 20
0.373032
 11
-23.8947
 21
0.552185
  0
LINE
  8
0
 10
-23.8947
 20
0.552185
 11
-23.8145
 21
0.722626
  0
LINE
  8
0
 10
-23.8145
 20
0.722626
 11
-23.7135
 21
0.881668
  0
LINE
  8
0
 10
-23.7135
 20
0.881668
 11
-23.5934
 21
1.02681
  0
LINE
  8
0
 10
-23.5934
 20
1.02681
 11
-23.4561
 21
1.15576
  0
LINE
  8
0
 10
-23.4561
 20
1.15576
 11
-23.3037
 21
1.26648
  0
LINE
  8
0
 10
-23.3037
 20
1.26648
 11
-23.1387
 21
1.35724
  0
LINE
  8
0
 10
-23.1387
 20
1.35724
 11
-22.9635
 21
1.42657
  0
LINE
  8
0
 10
-22.9635
 20
1.42657
 11
-22.7811
 21
1.47342
  0
LINE
  8
0
 10
-22.7811
 20
1.47342
 11
-22.5942
 21
1.49704
  0
LINE
  8
0
 10
-22.5942
 20
1.49704
 11
-22.4058
 21
1.49704
  0
LINE
  8
0
 10
-22.4058
 20
1.49704
 11
-22.2189
 21
1.47342
  0
LINE
  8
0
 10
-22.2189
 20
1.47342
 11
-22.0365
 21
1.42657
  0
LINE
  8
0
 10
-22.0365
 20
1.42657
 11
-21.8613
 21
1.35724
  0
LINE
  8
0
 10
-21.8613
 20
1.35724
 11
-21.6963
 21
1.26648
  0
LINE
  8
0
 10
-21.6963
 20
1.26648
 11
-21.5439
 21
1.15576
  0
LINE
  8
0
 10
-21.5439
 20
1.15576
 11
-21.4065
 21
1.02681
  0
LINE
  8
0
 10
-21.4065
 20
1.02681
 11
-21.2865
 21
0.881668
  0
LINE
  8
0
 10
-21.2865
 20
0.881668
 11
-21.1855
 21
0.722626
  0
LINE
  8
0
 10
-21.1855
 20
0.722626
 11
-21.1053
 21
0.552185
  0
LINE
  8
0
 10
-21.1053
 20
0.552185
 11
-21.0471
 21
0.373032
  0
LINE
  8
0
 10
-21.0471
 20
0.373032
 11
-21.0118
 21
0.187988
  0
LINE
  8
0
 10
-21.0118
 20
0.187988
 11
-21
 21
0
  0
LINE
  8
0
 10
-21
 20
0
 11
-21.0118
 21
-0.187988
  0
LINE
  8
0
 10
-21.0118
 20
-0.187988
 11
-21.0471
 21
-0.373032
  0
LINE
  8
0
 10
-21.0471
 20
-0.373032
 11
-21.1053
 21
-0.552185
  0
LINE
  8
0
 10
-21.1053
 20
-0.552185
 11
-21.1855
 21
-0.722626
  0
LINE
  8
0
 10
-21.1855
 20
-0.722626
 11
-21.2865
 21
-0.881668
  0
LINE
  8
0
 10
-21.2865
 20
-0.881668
 11
-21.4065
 21
-1.02681
  0
LINE
  8
0
 10
-21.4065
 20
-1.02681
 11
-21.5439
 21
-1.15576
  0
LINE
  8
0
 10
-21.5439
 20
-1.15576
 11
-21.6963
 21
-1.26648
  0
LINE
  8
0
 10
-21.6963
 20
-1.26648
 11
-21.8613
 21
-1.35724
  0
LINE
  8
0
 10
-21.8613
 20
-1.35724
 11
-22.0365
 21
-1.42657
  0
LINE
  8
0
 10
-22.0365
 20
-1.42657
 11
-22.2189
 21
-1.47342
  0
LINE
  8
0
 10
-22.2189
 20
-1.47342
 11
-22.4058
 21
-1.49704
  0
LINE
  8
0
 10
-22.4058
 20
-1.49704
 11
-22.5942
 21
-1.49704
  0
LINE
  8
0
 10
22.4058
 20
-1.49704
 11
22.2189
 21
-1.47342
  0
LINE
  8
0
 10
22.2189
 20
-1.47342
 11
22.0365
 21
-1.42657
  0
LINE
  8
0
 10
22.0365
 20
-1.42657
 11
21.8613
 21
-1.35724
  0
LINE
  8
0
 10
21.8613
 20
-1.35724
 11
21.6963
 21
-1.26648
  0
LINE
  8
0
 10
21.6963
 20
-1.26648
 11
21.5439
 21
-1.15576
  0
LINE
  8
0
 10
21.5439
 20
-1.15576
 11
21.4065
 21
-1.02681
  0
LINE
  8
0
 10
21.4065
 20
-1.02681
 11
21.2865
 21
-0.881668
  0
LINE
  8
0
 10
21.2865
 20
-0.881668
 11
21.1855
 21
-0.722626
  0
LINE
  8
0
 10
21.1855
 20
-0.722626
 11
21.1053
 21
-0.552185
  0
LINE
  8
0
 10
21.1053
 20
-0.552185
 11
21.0471
 21
-0.373032
  0
LINE
  8
0
 10
21.0471
 20
-0.373032
 11
21.0118
 21
-0.187988
  0
LINE
  8
0
 10
21.0118
 20
-0.187988
 11
21
 21
0
  0
LINE
  8
0
 10
21
 20
0
 11
21.0118
 21
0.187988
  0
LINE
  8
0
 10
21.0118
 20
0.187988
 11
21.0471
 21
0.373032
  0
LINE
  8
0
 10
21.0471
 20
0.373032
 11
21.1053
 21
0.552185
  0
LINE
  8
0
 10
21.1053
 20
0.552185
 11
21.1855
 21
0.722626
  0
LINE
  8
0
 10
21.1855
 20
0.722626
 11
21.2865
 21
0.881668
  0
LINE
  8
0
 10
21.2865
 20
0.881668
 11
21.4065
 21
1.02681
  0
LINE
  8
0
 10
21.4065
 20
1.02681
 11
21.5439
 21
1.15576
  0
LINE
  8
0
 10
21.5439
 20
1.15576
 11
21.6963
 21
1.26648
  0
LINE
  8
0
 10
21.6963
 20
1.26648
 11
21.8613
 21
1.35724
  0
LINE
  8
0
 10
21.8613
 20
1.35724
 11
22.0365
 21
1.42657
  0
LINE
  8
0
 10
22.0365
 20
1.42657
 11
22.2189
 21
1.47342
  0
LINE
  8
0
 10
22.2189
 20
1.47342
 11
22.4058
 21
1.49704
  0
LINE
  8
0
 10
22.4058
 20
1.49704
 11
22.5942
 21
1.49704
  0
LINE
  8
0
 10
22.5942
 20
1.49704
 11
22.7811
 21
1.47342
  0
LINE
  8
0
 10
22.7811
 20
1.47342
 11
22.9635
 21
1.42657
  0
LINE
  8
0
 10
22.9635
 20
1.42657
 11
23.1387
 21
1.35724
  0
LINE
  8
0
 10
23.1387
 20
1.35724
 11
23.3037
 21
1.26648
  0
LINE
  8
0
 10
23.3037
 20
1.26648
 11
23.4561
 21
1.15576
  0
LINE
  8
0
 10
23.4561
 20
1.15576
 11
23.5934
 21
1.02681
  0
LINE
  8
0
 10
23.5934
 20
1.02681
 11
23.7135
 21
0.881668
  0
LINE
  8
0
 10
23.7135
 20
0.881668
 11
23.8145
 21
0.722626
  0
LINE
  8
0
 10
23.8145
 20
0.722626
 11
23.8947
 21
0.552185
  0
LINE
  8
0
 10
23.8947
 20
0.552185
 11
23.9529
 21
0.373032
  0
LINE
  8
0
 10
23.9529
 20
0.373032
 11
23.9882
 21
0.187988
  0
LINE
  8
0
 10
23.9882
 20
0.187988
 11
24
 21
0
  0
LINE
  8
0
 10
24
 20
0
 11
23.9882
 21
-0.187988
  0
LINE
  8
0
 10
23.9882
 20
-0.187988
 11
23.9529
 21
-0.373032
  0
LINE
  8
0
 10
23.9529
 20
-0.373032
 11
23.8947
 21
-0.552185
  0
LINE
  8
0
 10
23.8947
 20
-0.552185
 11
23.8145
 21
-0.722626
  0
LINE
  8
0
 10
23.8145
 20
-0.722626
 11
23.7135
 21
-0.881668
  0
LINE
  8
0
 10
23.7135
 20
-0.881668
 11
23.5934
 21
-1.02681
  0
LINE
  8
0
 10
23.5934
 20
-1.02681
 11
23.4561
 21
-1.15576
  0
LINE
  8
0
 10
23.4561
 20
-1.15576
 11
23.3037
 21
-1.26648
  0
LINE
  8
0
 10
23.3037
 20
-1.26648
 11
23.1387
 21
-1.35724
  0
LINE
  8
0
 10
23.1387
 20
-1.35724
 11
22.9635
 21
-1.42657
  0
LINE
  8
0
 10
22.9635
 20
-1.42657
 11
22.7811
 21
-1.47342
  0
LINE
  8
0
 10
22.7811
 20
-1.47342
 11
22.5942
 21
-1.49704
  0
LINE
  8
0
 10
22.5942
 20
-1.49704
 11
22.4058
 21
-1.49704
  0
ENDSEC
  0
SECTION
  2
OBJECTS
  0
DICTIONARY
  0
ENDSEC
  0
EOF
