<?xml version="1.0" standalone="no"?>
<!DOCTYPE svg PUBLIC "-//W3C//DTD SVG 1.1//EN" "http://www.w3.org/Graphics/SVG/1.1/DTD/svg11.dtd">
<svg width="60mm" height="225mm" viewBox="-30 -438 60 225" xmlns="http://www.w3.org/2000/svg" version="1.1">
<title>OpenSCAD Model</title>
<path d="
M 25.9369,-399.839 L 26.5451,-399.995 L 27.1289,-400.226 L 27.6791,-400.528 L 28.1871,-400.897 L 28.6448,-401.327
 L 29.0451,-401.811 L 29.3815,-402.341 L 29.6489,-402.909 L 29.8429,-403.507 L 29.9606,-404.123 L 30,-404.75
 L 30,-432.25 L 29.9606,-432.877 L 29.8429,-433.493 L 29.6489,-434.091 L 29.3815,-434.659 L 29.0451,-435.189
 L 28.6448,-435.673 L 28.1871,-436.103 L 27.6791,-436.472 L 27.1289,-436.774 L 26.5451,-437.005 L 25.9369,-437.161
 L 25.3139,-437.24 L -25.3139,-437.24 L -25.9369,-437.161 L -26.5451,-437.005 L -27.1289,-436.774 L -27.6791,-436.472
 L -28.1871,-436.103 L -28.6448,-435.673 L -29.0451,-435.189 L -29.3815,-434.659 L -29.6489,-434.091 L -29.8429,-433.493
 L -29.9606,-432.877 L -30,-432.25 L -30,-404.75 L -29.9606,-404.123 L -29.8429,-403.507 L -29.6489,-402.909
 L -29.3815,-402.341 L -29.0451,-401.811 L -28.6448,-401.327 L -28.1871,-400.897 L -27.6791,-400.528 L -27.1289,-400.226
 L -26.5451,-399.995 L -25.9369,-399.839 L -25.3139,-399.76 L 25.3139,-399.76 z
M -24.7512,-401.258 L -25.2495,-401.321 L -25.7361,-401.446 L -26.2031,-401.631 L -26.6433,-401.873 L -27.0497,-402.168
 L -27.4159,-402.512 L -27.7361,-402.899 L -28.0052,-403.323 L -28.2191,-403.778 L -28.3743,-404.255 L -28.4684,-404.749
 L -28.5,-405.25 L -28.5,-431.75 L -28.4684,-432.251 L -28.3743,-432.745 L -28.2191,-433.222 L -28.0052,-433.677
 L -27.7361,-434.101 L -27.4159,-434.488 L -27.0497,-434.832 L -26.6433,-435.127 L -26.2031,-435.369 L -25.7361,-435.554
 L -25.2495,-435.679 L -24.7512,-435.742 L 24.7512,-435.742 L 25.2495,-435.679 L 25.7361,-435.554 L 26.2031,-435.369
 L 26.6433,-435.127 L 27.0497,-434.832 L 27.4159,-434.488 L 27.7361,-434.101 L 28.0052,-433.677 L 28.2191,-433.222
 L 28.3743,-432.745 L 28.4684,-432.251 L 28.5,-431.75 L 28.5,-405.25 L 28.4684,-404.749 L 28.3743,-404.255
 L 28.2191,-403.778 L 28.0052,-403.323 L 27.7361,-402.899 L 27.4159,-402.512 L 27.0497,-402.168 L 26.6433,-401.873
 L 26.2031,-401.631 L 25.7361,-401.446 L 25.2495,-401.321 L 24.7512,-401.258 z
M 25.9369,-353.339 L 26.5451,-353.495 L 27.1289,-353.726 L 27.6791,-354.028 L 28.1871,-354.397 L 28.6448,-354.827
 L 29.0451,-355.311 L 29.3815,-355.841 L 29.6489,-356.409 L 29.8429,-357.007 L 29.9606,-357.623 L 30,-358.25
 L 30,-385.75 L 29.9606,-386.377 L 29.8429,-386.993 L 29.6489,-387.591 L 29.3815,-388.159 L 29.0451,-388.689
 L 28.6448,-389.173 L 28.1871,-389.603 L 27.6791,-389.972 L 27.1289,-390.274 L 26.5451,-390.505 L 25.9369,-390.661
 L 25.3139,-390.74 L -25.3139,-390.74 L -25.9369,-390.661 L -26.5451,-390.505 L -27.1289,-390.274 L -27.6791,-389.972
 L -28.1871,-389.603 L -28.6448,-389.173 L -29.0451,-388.689 L -29.3815,-388.159 L -29.6489,-387.591 L -29.8429,-386.993
 L -29.9606,-386.377 L -30,-385.75 L -30,-358.25 L -29.9606,-357.623 L -29.8429,-357.007 L -29.6489,-356.409
 L -29.3815,-355.841 L -29.0451,-355.311 L -28.6448,-354.827 L -28.1871,-354.397 L -27.6791,-354.028 L -27.1289,-353.726
 L -26.5451,-353.495 L -25.9369,-353.339 L -25.3139,-353.26 L 25.3139,-353.26 z
M -24.7512,-354.758 L -25.2495,-354.821 L -25.7361,-354.946 L -26.2031,-355.131 L -26.6433,-355.373 L -27.0497,-355.668
 L -27.4159,-356.012 L -27.7361,-356.399 L -28.0052,-356.823 L -28.2191,-357.278 L -28.3743,-357.755 L -28.4684,-358.249
 L -28.5,-358.75 L -28.5,-385.25 L -28.4684,-385.751 L -28.3743,-386.245 L -28.2191,-386.722 L -28.0052,-387.177
 L -27.7361,-387.601 L -27.4159,-387.988 L -27.0497,-388.332 L -26.6433,-388.627 L -26.2031,-388.869 L -25.7361,-389.054
 L -25.2495,-389.179 L -24.7512,-389.242 L 24.7512,-389.242 L 25.2495,-389.179 L 25.7361,-389.054 L 26.2031,-388.869
 L 26.6433,-388.627 L 27.0497,-388.332 L 27.4159,-387.988 L 27.7361,-387.601 L 28.0052,-387.177 L 28.2191,-386.722
 L 28.3743,-386.245 L 28.4684,-385.751 L 28.5,-385.25 L 28.5,-358.75 L 28.4684,-358.249 L 28.3743,-357.755
 L 28.2191,-357.278 L 28.0052,-356.823 L 27.7361,-356.399 L 27.4159,-356.012 L 27.0497,-355.668 L 26.6433,-355.373
 L 26.2031,-355.131 L 25.7361,-354.946 L 25.2495,-354.821 L 24.7512,-354.758 z
M 25.9369,-306.839 L 26.5451,-306.995 L 27.1289,-307.226 L 27.6791,-307.528 L 28.1871,-307.897 L 28.6448,-308.327
 L 29.0451,-308.811 L 29.3815,-309.341 L 29.6489,-309.909 L 29.8429,-310.507 L 29.9606,-311.123 L 30,-311.75
 L 30,-339.25 L 29.9606,-339.877 L 29.8429,-340.493 L 29.6489,-341.091 L 29.3815,-341.659 L 29.0451,-342.189
 L 28.6448,-342.673 L 28.1871,-343.103 L 27.6791,-343.472 L 27.1289,-343.774 L 26.5451,-344.005 L 25.9369,-344.161
 L 25.3139,-344.24 L -25.3139,-344.24 L -25.9369,-344.161 L -26.5451,-344.005 L -27.1289,-343.774 L -27.6791,-343.472
 L -28.1871,-343.103 L -28.6448,-342.673 L -29.0451,-342.189 L -29.3815,-341.659 L -29.6489,-341.091 L -29.8429,-340.493
 L -29.9606,-339.877 L -30,-339.25 L -30,-311.75 L -29.9606,-311.123 L -29.8429,-310.507 L -29.6489,-309.909
 L -29.3815,-309.341 L -29.0451,-308.811 L -28.6448,-308.327 L -28.1871,-307.897 L -27.6791,-307.528 L -27.1289,-307.226
 L -26.5451,-306.995 L -25.9369,-306.839 L -25.3139,-306.76 L 25.3139,-306.76 z
M -24.7512,-308.258 L -25.2495,-308.321 L -25.7361,-308.446 L -26.2031,-308.631 L -26.6433,-308.873 L -27.0497,-309.168
 L -27.4159,-309.512 L -27.7361,-309.899 L -28.0052,-310.323 L -28.2191,-310.778 L -28.3743,-311.255 L -28.4684,-311.749
 L -28.5,-312.25 L -28.5,-338.75 L -28.4684,-339.251 L -28.3743,-339.745 L -28.2191,-340.222 L -28.0052,-340.677
 L -27.7361,-341.101 L -27.4159,-341.488 L -27.0497,-341.832 L -26.6433,-342.127 L -26.2031,-342.369 L -25.7361,-342.554
 L -25.2495,-342.679 L -24.7512,-342.742 L 24.7512,-342.742 L 25.2495,-342.679 L 25.7361,-342.554 L 26.2031,-342.369
 L 26.6433,-342.127 L 27.0497,-341.832 L 27.4159,-341.488 L 27.7361,-341.101 L 28.0052,-340.677 L 28.2191,-340.222
 L 28.3743,-339.745 L 28.4684,-339.251 L 28.5,-338.75 L 28.5,-312.25 L 28.4684,-311.749 L 28.3743,-311.255
 L 28.2191,-310.778 L 28.0052,-310.323 L 27.7361,-309.899 L 27.4159,-309.512 L 27.0497,-309.168 L 26.6433,-308.873
 L 26.2031,-308.631 L 25.7361,-308.446 L 25.2495,-308.321 L 24.7512,-308.258 z
M 25.9369,-260.339 L 26.5451,-260.495 L 27.1289,-260.726 L 27.6791,-261.028 L 28.1871,-261.397 L 28.6448,-261.827
 L 29.0451,-262.311 L 29.3815,-262.841 L 29.6489,-263.409 L 29.8429,-264.007 L 29.9606,-264.623 L 30,-265.25
 L 30,-292.75 L 29.9606,-293.377 L 29.8429,-293.993 L 29.6489,-294.591 L 29.3815,-295.159 L 29.0451,-295.689
 L 28.6448,-296.173 L 28.1871,-296.603 L 27.6791,-296.972 L 27.1289,-297.274 L 26.5451,-297.505 L 25.9369,-297.661
 L 25.3139,-297.74 L -25.3139,-297.74 L -25.9369,-297.661 L -26.5451,-297.505 L -27.1289,-297.274 L -27.6791,-296.972
 L -28.1871,-296.603 L -28.6448,-296.173 L -29.0451,-295.689 L -29.3815,-295.159 L -29.6489,-294.591 L -29.8429,-293.993
 L -29.9606,-293.377 L -30,-292.75 L -30,-265.25 L -29.9606,-264.623 L -29.8429,-264.007 L -29.6489,-263.409
 L -29.3815,-262.841 L -29.0451,-262.311 L -28.6448,-261.827 L -28.1871,-261.397 L -27.6791,-261.028 L -27.1289,-260.726
 L -26.5451,-260.495 L -25.9369,-260.339 L -25.3139,-260.26 L 25.3139,-260.26 z
M -24.6954,-262.643 L -25.0833,-262.692 L -25.4619,-262.789 L -25.8254,-262.933 L -26.168,-263.122 L -26.4842,-263.351
 L -26.7692,-263.619 L -27.0184,-263.92 L -27.2279,-264.25 L -27.3943,-264.604 L -27.5151,-264.976 L -27.5884,-265.36
 L -27.6129,-265.75 L -27.6129,-292.25 L -27.5884,-292.64 L -27.5151,-293.024 L -27.3943,-293.396 L -27.2279,-293.75
 L -27.0184,-294.08 L -26.7692,-294.381 L -26.4842,-294.649 L -26.168,-294.878 L -25.8254,-295.067 L -25.4619,-295.211
 L -25.0833,-295.308 L -24.6954,-295.357 L 24.6954,-295.357 L 25.0833,-295.308 L 25.4619,-295.211 L 25.8254,-295.067
 L 26.168,-294.878 L 26.4842,-294.649 L 26.7692,-294.381 L 27.0184,-294.08 L 27.2279,-293.75 L 27.3943,-293.396
 L 27.5151,-293.024 L 27.5884,-292.64 L 27.6129,-292.25 L 27.6129,-265.75 L 27.5884,-265.36 L 27.5151,-264.976
 L 27.3943,-264.604 L 27.2279,-264.25 L 27.0184,-263.92 L 26.7692,-263.619 L 26.4842,-263.351 L 26.168,-263.122
 L 25.8254,-262.933 L 25.4619,-262.789 L 25.0833,-262.692 L 24.6954,-262.643 z
M 25.9369,-213.839 L 26.5451,-213.995 L 27.1289,-214.226 L 27.6791,-214.528 L 28.1871,-214.897 L 28.6448,-215.327
 L 29.0451,-215.811 L 29.3815,-216.341 L 29.6489,-216.909 L 29.8429,-217.507 L 29.9606,-218.123 L 30,-218.75
 L 30,-246.25 L 29.9606,-246.877 L 29.8429,-247.493 L 29.6489,-248.091 L 29.3815,-248.659 L 29.0451,-249.189
 L 28.6448,-249.673 L 28.1871,-250.103 L 27.6791,-250.472 L 27.1289,-250.774 L 26.5451,-251.005 L 25.9369,-251.161
 L 25.3139,-251.24 L -25.3139,-251.24 L -25.9369,-251.161 L -26.5451,-251.005 L -27.1289,-250.774 L -27.6791,-250.472
 L -28.1871,-250.103 L -28.6448,-249.673 L -29.0451,-249.189 L -29.3815,-248.659 L -29.6489,-248.091 L -29.8429,-247.493
 L -29.9606,-246.877 L -30,-246.25 L -30,-218.75 L -29.9606,-218.123 L -29.8429,-217.507 L -29.6489,-216.909
 L -29.3815,-216.341 L -29.0451,-215.811 L -28.6448,-215.327 L -28.1871,-214.897 L -27.6791,-214.528 L -27.1289,-214.226
 L -26.5451,-213.995 L -25.9369,-213.839 L -25.3139,-213.76 L 25.3139,-213.76 z
M 22.3659,-241.619 L 22.0999,-241.653 L 21.8401,-241.719 L 21.5908,-241.818 L 21.3559,-241.947 L 21.1389,-242.105
 L 20.9434,-242.288 L 20.7725,-242.495 L 20.6288,-242.721 L 20.5146,-242.964 L 20.4318,-243.219 L 20.3815,-243.482
 L 20.3647,-243.75 L 20.3815,-244.018 L 20.4318,-244.281 L 20.5146,-244.536 L 20.6288,-244.779 L 20.7725,-245.005
 L 20.9434,-245.212 L 21.1389,-245.395 L 21.3559,-245.553 L 21.5908,-245.682 L 21.8401,-245.781 L 22.0999,-245.847
 L 22.3659,-245.881 L 22.6341,-245.881 L 22.9001,-245.847 L 23.1598,-245.781 L 23.4091,-245.682 L 23.6441,-245.553
 L 23.8611,-245.395 L 24.0565,-245.212 L 24.2275,-245.005 L 24.3712,-244.779 L 24.4853,-244.536 L 24.5682,-244.281
 L 24.6185,-244.018 L 24.6353,-243.75 L 24.6185,-243.482 L 24.5682,-243.219 L 24.4853,-242.964 L 24.3712,-242.721
 L 24.2275,-242.495 L 24.0565,-242.288 L 23.8611,-242.105 L 23.6441,-241.947 L 23.4091,-241.818 L 23.1598,-241.719
 L 22.9001,-241.653 L 22.6341,-241.619 z
M -22.6341,-241.619 L -22.9001,-241.653 L -23.1598,-241.719 L -23.4091,-241.818 L -23.6441,-241.947 L -23.8611,-242.105
 L -24.0565,-242.288 L -24.2275,-242.495 L -24.3712,-242.721 L -24.4853,-242.964 L -24.5682,-243.219 L -24.6185,-243.482
 L -24.6353,-243.75 L -24.6185,-244.018 L -24.5682,-244.281 L -24.4853,-244.536 L -24.3712,-244.779 L -24.2275,-245.005
 L -24.0565,-245.212 L -23.8611,-245.395 L -23.6441,-245.553 L -23.4091,-245.682 L -23.1598,-245.781 L -22.9001,-245.847
 L -22.6341,-245.881 L -22.3659,-245.881 L -22.0999,-245.847 L -21.8401,-245.781 L -21.5908,-245.682 L -21.3559,-245.553
 L -21.1389,-245.395 L -20.9434,-245.212 L -20.7725,-245.005 L -20.6288,-244.779 L -20.5146,-244.536 L -20.4318,-244.281
 L -20.3815,-244.018 L -20.3647,-243.75 L -20.3815,-243.482 L -20.4318,-243.219 L -20.5146,-242.964 L -20.6288,-242.721
 L -20.7725,-242.495 L -20.9434,-242.288 L -21.1389,-242.105 L -21.3559,-241.947 L -21.5908,-241.818 L -21.8401,-241.719
 L -22.0999,-241.653 L -22.3659,-241.619 z
M 22.3659,-219.119 L 22.0999,-219.153 L 21.8401,-219.219 L 21.5908,-219.318 L 21.3559,-219.447 L 21.1389,-219.605
 L 20.9434,-219.788 L 20.7725,-219.995 L 20.6288,-220.221 L 20.5146,-220.464 L 20.4318,-220.719 L 20.3815,-220.982
 L 20.3647,-221.25 L 20.3815,-221.518 L 20.4318,-221.781 L 20.5146,-222.036 L 20.6288,-222.279 L 20.7725,-222.505
 L 20.9434,-222.712 L 21.1389,-222.895 L 21.3559,-223.053 L 21.5908,-223.182 L 21.8401,-223.281 L 22.0999,-223.347
 L 22.3659,-223.381 L 22.6341,-223.381 L 22.9001,-223.347 L 23.1598,-223.281 L 23.4091,-223.182 L 23.6441,-223.053
 L 23.8611,-222.895 L 24.0565,-222.712 L 24.2275,-222.505 L 24.3712,-222.279 L 24.4853,-222.036 L 24.5682,-221.781
 L 24.6185,-221.518 L 24.6353,-221.25 L 24.6185,-220.982 L 24.5682,-220.719 L 24.4853,-220.464 L 24.3712,-220.221
 L 24.2275,-219.995 L 24.0565,-219.788 L 23.8611,-219.605 L 23.6441,-219.447 L 23.4091,-219.318 L 23.1598,-219.219
 L 22.9001,-219.153 L 22.6341,-219.119 z
M -22.6341,-219.119 L -22.9001,-219.153 L -23.1598,-219.219 L -23.4091,-219.318 L -23.6441,-219.447 L -23.8611,-219.605
 L -24.0565,-219.788 L -24.2275,-219.995 L -24.3712,-220.221 L -24.4853,-220.464 L -24.5682,-220.719 L -24.6185,-220.982
 L -24.6353,-221.25 L -24.6185,-221.518 L -24.5682,-221.781 L -24.4853,-222.036 L -24.3712,-222.279 L -24.2275,-222.505
 L -24.0565,-222.712 L -23.8611,-222.895 L -23.6441,-223.053 L -23.4091,-223.182 L -23.1598,-223.281 L -22.9001,-223.347
 L -22.6341,-223.381 L -22.3659,-223.381 L -22.0999,-223.347 L -21.8401,-223.281 L -21.5908,-223.182 L -21.3559,-223.053
 L -21.1389,-222.895 L -20.9434,-222.712 L -20.7725,-222.505 L -20.6288,-222.279 L -20.5146,-222.036 L -20.4318,-221.781
 L -20.3815,-221.518 L -20.3647,-221.25 L -20.3815,-220.982 L -20.4318,-220.719 L -20.5146,-220.464 L -20.6288,-220.221
 L -20.7725,-219.995 L -20.9434,-219.788 L -21.1389,-219.605 L -21.3559,-219.447 L -21.5908,-219.318 L -21.8401,-219.219
 L -22.0999,-219.153 L -22.3659,-219.119 z
" stroke="black" fill="lightgray" stroke-width="0.5"/>
</svg>
