  0
SECTION
  2
BLOCKS
  0
ENDSEC
  0
SECTION
  2
ENTITIES
  0
LINE
  8
0
 10
14.0536
 20
-73.6715
 11
23.1763
 21
-71.3292
  0
LINE
  8
0
 10
23.1763
 20
-71.3292
 11
31.9334
 21
-67.862
  0
LINE
  8
0
 10
31.9334
 20
-67.862
 11
40.187
 21
-63.3246
  0
LINE
  8
0
 10
40.187
 20
-63.3246
 11
47.8068
 21
-57.7885
  0
LINE
  8
0
 10
47.8068
 20
-57.7885
 11
54.6726
 21
-51.341
  0
LINE
  8
0
 10
54.6726
 20
-51.341
 11
60.6763
 21
-44.0839
  0
LINE
  8
0
 10
60.6763
 20
-44.0839
 11
65.723
 21
-36.1315
  0
LINE
  8
0
 10
65.723
 20
-36.1315
 11
69.7332
 21
-27.6093
  0
LINE
  8
0
 10
69.7332
 20
-27.6093
 11
72.6437
 21
-18.6517
  0
LINE
  8
0
 10
72.6437
 20
-18.6517
 11
74.4086
 21
-9.39998
  0
LINE
  8
0
 10
74.4086
 20
-9.39998
 11
75
 21
0
  0
LINE
  8
0
 10
75
 20
0
 11
74.4086
 21
9.39998
  0
LINE
  8
0
 10
74.4086
 20
9.39998
 11
72.6437
 21
18.6517
  0
LINE
  8
0
 10
72.6437
 20
18.6517
 11
69.7332
 21
27.6093
  0
LINE
  8
0
 10
69.7332
 20
27.6093
 11
65.723
 21
36.1315
  0
LINE
  8
0
 10
65.723
 20
36.1315
 11
60.6763
 21
44.0839
  0
LINE
  8
0
 10
60.6763
 20
44.0839
 11
54.6726
 21
51.341
  0
LINE
  8
0
 10
54.6726
 20
51.341
 11
47.8068
 21
57.7885
  0
LINE
  8
0
 10
47.8068
 20
57.7885
 11
40.187
 21
63.3246
  0
LINE
  8
0
 10
40.187
 20
63.3246
 11
31.9334
 21
67.862
  0
LINE
  8
0
 10
31.9334
 20
67.862
 11
23.1763
 21
71.3292
  0
LINE
  8
0
 10
23.1763
 20
71.3292
 11
14.0536
 21
73.6715
  0
LINE
  8
0
 10
14.0536
 20
73.6715
 11
4.70927
 21
74.852
  0
LINE
  8
0
 10
4.70927
 20
74.852
 11
-4.70927
 21
74.852
  0
LINE
  8
0
 10
-4.70927
 20
74.852
 11
-14.0536
 21
73.6715
  0
LINE
  8
0
 10
-14.0536
 20
73.6715
 11
-23.1763
 21
71.3292
  0
LINE
  8
0
 10
-23.1763
 20
71.3292
 11
-31.9334
 21
67.862
  0
LINE
  8
0
 10
-31.9334
 20
67.862
 11
-40.187
 21
63.3246
  0
LINE
  8
0
 10
-40.187
 20
63.3246
 11
-47.8068
 21
57.7885
  0
LINE
  8
0
 10
-47.8068
 20
57.7885
 11
-54.6726
 21
51.341
  0
LINE
  8
0
 10
-54.6726
 20
51.341
 11
-60.6763
 21
44.0839
  0
LINE
  8
0
 10
-60.6763
 20
44.0839
 11
-65.723
 21
36.1315
  0
LINE
  8
0
 10
-65.723
 20
36.1315
 11
-69.7332
 21
27.6093
  0
LINE
  8
0
 10
-69.7332
 20
27.6093
 11
-72.6437
 21
18.6517
  0
LINE
  8
0
 10
-72.6437
 20
18.6517
 11
-74.4086
 21
9.39998
  0
LINE
  8
0
 10
-74.4086
 20
9.39998
 11
-75
 21
0
  0
LINE
  8
0
 10
-75
 20
0
 11
-74.4086
 21
-9.39998
  0
LINE
  8
0
 10
-74.4086
 20
-9.39998
 11
-72.6437
 21
-18.6517
  0
LINE
  8
0
 10
-72.6437
 20
-18.6517
 11
-69.7332
 21
-27.6093
  0
LINE
  8
0
 10
-69.7332
 20
-27.6093
 11
-65.723
 21
-36.1315
  0
LINE
  8
0
 10
-65.723
 20
-36.1315
 11
-60.6763
 21
-44.0839
  0
LINE
  8
0
 10
-60.6763
 20
-44.0839
 11
-54.6726
 21
-51.341
  0
LINE
  8
0
 10
-54.6726
 20
-51.341
 11
-47.8068
 21
-57.7885
  0
LINE
  8
0
 10
-47.8068
 20
-57.7885
 11
-40.187
 21
-63.3246
  0
LINE
  8
0
 10
-40.187
 20
-63.3246
 11
-31.9334
 21
-67.862
  0
LINE
  8
0
 10
-31.9334
 20
-67.862
 11
-23.1763
 21
-71.3292
  0
LINE
  8
0
 10
-23.1763
 20
-71.3292
 11
-14.0536
 21
-73.6715
  0
LINE
  8
0
 10
-14.0536
 20
-73.6715
 11
-4.70927
 21
-74.852
  0
LINE
  8
0
 10
-4.70927
 20
-74.852
 11
4.70927
 21
-74.852
  0
LINE
  8
0
 10
4.70927
 20
-74.852
 11
14.0536
 21
-73.6715
  0
LINE
  8
0
 10
-3.76743
 20
-59.8816
 11
-11.2429
 21
-58.9372
  0
LINE
  8
0
 10
-11.2429
 20
-58.9372
 11
-18.541
 21
-57.0634
  0
LINE
  8
0
 10
-18.541
 20
-57.0634
 11
-25.5468
 21
-54.2896
  0
LINE
  8
0
 10
-25.5468
 20
-54.2896
 11
-32.1496
 21
-50.6597
  0
LINE
  8
0
 10
-32.1496
 20
-50.6597
 11
-38.2454
 21
-46.2308
  0
LINE
  8
0
 10
-38.2454
 20
-46.2308
 11
-43.7381
 21
-41.0728
  0
LINE
  8
0
 10
-43.7381
 20
-41.0728
 11
-48.541
 21
-35.2671
  0
LINE
  8
0
 10
-48.541
 20
-35.2671
 11
-52.5784
 21
-28.9052
  0
LINE
  8
0
 10
-52.5784
 20
-28.9052
 11
-55.7866
 21
-22.0875
  0
LINE
  8
0
 10
-55.7866
 20
-22.0875
 11
-58.115
 21
-14.9214
  0
LINE
  8
0
 10
-58.115
 20
-14.9214
 11
-59.5269
 21
-7.51999
  0
LINE
  8
0
 10
-59.5269
 20
-7.51999
 11
-60
 21
0
  0
LINE
  8
0
 10
-60
 20
0
 11
-59.5269
 21
7.51999
  0
LINE
  8
0
 10
-59.5269
 20
7.51999
 11
-58.115
 21
14.9214
  0
LINE
  8
0
 10
-58.115
 20
14.9214
 11
-55.7866
 21
22.0875
  0
LINE
  8
0
 10
-55.7866
 20
22.0875
 11
-52.5784
 21
28.9052
  0
LINE
  8
0
 10
-52.5784
 20
28.9052
 11
-48.541
 21
35.2671
  0
LINE
  8
0
 10
-48.541
 20
35.2671
 11
-43.7381
 21
41.0728
  0
LINE
  8
0
 10
-43.7381
 20
41.0728
 11
-38.2454
 21
46.2308
  0
LINE
  8
0
 10
-38.2454
 20
46.2308
 11
-32.1496
 21
50.6597
  0
LINE
  8
0
 10
-32.1496
 20
50.6597
 11
-25.5468
 21
54.2896
  0
LINE
  8
0
 10
-25.5468
 20
54.2896
 11
-18.541
 21
57.0634
  0
LINE
  8
0
 10
-18.541
 20
57.0634
 11
-11.2429
 21
58.9372
  0
LINE
  8
0
 10
-11.2429
 20
58.9372
 11
-3.76743
 21
59.8816
  0
LINE
  8
0
 10
-3.76743
 20
59.8816
 11
3.76743
 21
59.8816
  0
LINE
  8
0
 10
3.76743
 20
59.8816
 11
11.2429
 21
58.9372
  0
LINE
  8
0
 10
11.2429
 20
58.9372
 11
18.541
 21
57.0634
  0
LINE
  8
0
 10
18.541
 20
57.0634
 11
25.5468
 21
54.2896
  0
LINE
  8
0
 10
25.5468
 20
54.2896
 11
32.1496
 21
50.6597
  0
LINE
  8
0
 10
32.1496
 20
50.6597
 11
38.2454
 21
46.2308
  0
LINE
  8
0
 10
38.2454
 20
46.2308
 11
43.7381
 21
41.0728
  0
LINE
  8
0
 10
43.7381
 20
41.0728
 11
48.541
 21
35.2671
  0
LINE
  8
0
 10
48.541
 20
35.2671
 11
52.5784
 21
28.9052
  0
LINE
  8
0
 10
52.5784
 20
28.9052
 11
55.7866
 21
22.0875
  0
LINE
  8
0
 10
55.7866
 20
22.0875
 11
58.115
 21
14.9214
  0
LINE
  8
0
 10
58.115
 20
14.9214
 11
59.5269
 21
7.51999
  0
LINE
  8
0
 10
59.5269
 20
7.51999
 11
60
 21
0
  0
LINE
  8
0
 10
60
 20
0
 11
59.5269
 21
-7.51999
  0
LINE
  8
0
 10
59.5269
 20
-7.51999
 11
58.115
 21
-14.9214
  0
LINE
  8
0
 10
58.115
 20
-14.9214
 11
55.7866
 21
-22.0875
  0
LINE
  8
0
 10
55.7866
 20
-22.0875
 11
52.5784
 21
-28.9052
  0
LINE
  8
0
 10
52.5784
 20
-28.9052
 11
48.541
 21
-35.2671
  0
LINE
  8
0
 10
48.541
 20
-35.2671
 11
43.7381
 21
-41.0728
  0
LINE
  8
0
 10
43.7381
 20
-41.0728
 11
38.2454
 21
-46.2308
  0
LINE
  8
0
 10
38.2454
 20
-46.2308
 11
32.1496
 21
-50.6597
  0
LINE
  8
0
 10
32.1496
 20
-50.6597
 11
25.5468
 21
-54.2896
  0
LINE
  8
0
 10
25.5468
 20
-54.2896
 11
18.541
 21
-57.0634
  0
LINE
  8
0
 10
18.541
 20
-57.0634
 11
11.2429
 21
-58.9372
  0
LINE
  8
0
 10
11.2429
 20
-58.9372
 11
3.76743
 21
-59.8816
  0
LINE
  8
0
 10
3.76743
 20
-59.8816
 11
-3.76743
 21
-59.8816
  0
ENDSEC
  0
SECTION
  2
OBJECTS
  0
DICTIONARY
  0
ENDSEC
  0
EOF
