solid OpenSCAD_Model
  facet normal 0.998027 0.0627908 0
    outer loop
      vertex 75 0 16
      vertex 74.4086 9.39999 0
      vertex 74.4086 9.39999 16
    endloop
  endfacet
  facet normal 0.998027 0.0627908 0
    outer loop
      vertex 74.4086 9.39999 0
      vertex 75 0 16
      vertex 75 0 0
    endloop
  endfacet
  facet normal -0.998027 0.0627908 0
    outer loop
      vertex -75 0 0
      vertex -74.4086 9.39999 16
      vertex -74.4086 9.39999 0
    endloop
  endfacet
  facet normal -0.998027 0.0627908 0
    outer loop
      vertex -74.4086 9.39999 16
      vertex -75 0 0
      vertex -75 0 16
    endloop
  endfacet
  facet normal 0 1 -0
    outer loop
      vertex 4.70929 74.852 0
      vertex -4.70929 74.852 16
      vertex 4.70929 74.852 16
    endloop
  endfacet
  facet normal 0 1 0
    outer loop
      vertex -4.70929 74.852 16
      vertex 4.70929 74.852 0
      vertex -4.70929 74.852 0
    endloop
  endfacet
  facet normal 0 -1 0
    outer loop
      vertex -4.70929 -74.852 0
      vertex 4.70929 -74.852 16
      vertex -4.70929 -74.852 16
    endloop
  endfacet
  facet normal 0 -1 -0
    outer loop
      vertex 4.70929 -74.852 16
      vertex -4.70929 -74.852 0
      vertex 4.70929 -74.852 0
    endloop
  endfacet
  facet normal 0.684552 0.728964 -0
    outer loop
      vertex 54.6726 51.341 0
      vertex 47.8068 57.7885 16
      vertex 54.6726 51.341 16
    endloop
  endfacet
  facet normal 0.684552 0.728964 0
    outer loop
      vertex 47.8068 57.7885 16
      vertex 54.6726 51.341 0
      vertex 47.8068 57.7885 0
    endloop
  endfacet
  facet normal -0.684552 0.728964 0
    outer loop
      vertex -47.8068 57.7885 0
      vertex -54.6726 51.341 16
      vertex -47.8068 57.7885 16
    endloop
  endfacet
  facet normal -0.684552 0.728964 0
    outer loop
      vertex -54.6726 51.341 16
      vertex -47.8068 57.7885 0
      vertex -54.6726 51.341 0
    endloop
  endfacet
  facet normal -0.368126 0.929776 0
    outer loop
      vertex -23.1763 71.3292 0
      vertex -31.9334 67.862 16
      vertex -23.1763 71.3292 16
    endloop
  endfacet
  facet normal -0.368126 0.929776 0
    outer loop
      vertex -31.9334 67.862 16
      vertex -23.1763 71.3292 0
      vertex -31.9334 67.862 0
    endloop
  endfacet
  facet normal 0.904829 0.425776 0
    outer loop
      vertex 69.7332 27.6093 16
      vertex 65.723 36.1315 0
      vertex 65.723 36.1315 16
    endloop
  endfacet
  facet normal 0.904829 0.425776 0
    outer loop
      vertex 65.723 36.1315 0
      vertex 69.7332 27.6093 16
      vertex 69.7332 27.6093 0
    endloop
  endfacet
  facet normal 0.982286 0.187386 0
    outer loop
      vertex 74.4086 9.39999 16
      vertex 72.6437 18.6517 0
      vertex 72.6437 18.6517 16
    endloop
  endfacet
  facet normal 0.982286 0.187386 0
    outer loop
      vertex 72.6437 18.6517 0
      vertex 74.4086 9.39999 16
      vertex 74.4086 9.39999 0
    endloop
  endfacet
  facet normal 0.84433 0.535823 0
    outer loop
      vertex 65.723 36.1315 16
      vertex 60.6763 44.0839 0
      vertex 60.6763 44.0839 16
    endloop
  endfacet
  facet normal 0.84433 0.535823 0
    outer loop
      vertex 60.6763 44.0839 0
      vertex 65.723 36.1315 16
      vertex 65.723 36.1315 0
    endloop
  endfacet
  facet normal 0.368126 0.929776 -0
    outer loop
      vertex 31.9334 67.862 0
      vertex 23.1763 71.3292 16
      vertex 31.9334 67.862 16
    endloop
  endfacet
  facet normal 0.368126 0.929776 0
    outer loop
      vertex 23.1763 71.3292 16
      vertex 31.9334 67.862 0
      vertex 23.1763 71.3292 0
    endloop
  endfacet
  facet normal 0.248689 0.968583 -0
    outer loop
      vertex 23.1763 71.3292 0
      vertex 14.0536 73.6715 16
      vertex 23.1763 71.3292 16
    endloop
  endfacet
  facet normal 0.248689 0.968583 0
    outer loop
      vertex 14.0536 73.6715 16
      vertex 23.1763 71.3292 0
      vertex 14.0536 73.6715 0
    endloop
  endfacet
  facet normal 0.481749 0.876309 -0
    outer loop
      vertex 40.187 63.3246 0
      vertex 31.9334 67.862 16
      vertex 40.187 63.3246 16
    endloop
  endfacet
  facet normal 0.481749 0.876309 0
    outer loop
      vertex 31.9334 67.862 16
      vertex 40.187 63.3246 0
      vertex 31.9334 67.862 0
    endloop
  endfacet
  facet normal -0.904829 0.425776 0
    outer loop
      vertex -69.7332 27.6093 0
      vertex -65.723 36.1315 16
      vertex -65.723 36.1315 0
    endloop
  endfacet
  facet normal -0.904829 0.425776 0
    outer loop
      vertex -65.723 36.1315 16
      vertex -69.7332 27.6093 0
      vertex -69.7332 27.6093 16
    endloop
  endfacet
  facet normal -0.770508 0.637431 0
    outer loop
      vertex -60.6763 44.0839 0
      vertex -54.6726 51.341 16
      vertex -54.6726 51.341 0
    endloop
  endfacet
  facet normal -0.770508 0.637431 0
    outer loop
      vertex -54.6726 51.341 16
      vertex -60.6763 44.0839 0
      vertex -60.6763 44.0839 16
    endloop
  endfacet
  facet normal -0.951057 0.309017 0
    outer loop
      vertex -72.6437 18.6517 0
      vertex -69.7332 27.6093 16
      vertex -69.7332 27.6093 0
    endloop
  endfacet
  facet normal -0.951057 0.309017 0
    outer loop
      vertex -69.7332 27.6093 16
      vertex -72.6437 18.6517 0
      vertex -72.6437 18.6517 16
    endloop
  endfacet
  facet normal -0.248689 0.968583 0
    outer loop
      vertex -14.0536 73.6715 0
      vertex -23.1763 71.3292 16
      vertex -14.0536 73.6715 16
    endloop
  endfacet
  facet normal -0.248689 0.968583 0
    outer loop
      vertex -23.1763 71.3292 16
      vertex -14.0536 73.6715 0
      vertex -23.1763 71.3292 0
    endloop
  endfacet
  facet normal 0.125337 -0.992114 0
    outer loop
      vertex 4.70929 -74.852 0
      vertex 14.0536 -73.6715 16
      vertex 4.70929 -74.852 16
    endloop
  endfacet
  facet normal 0.125337 -0.992114 0
    outer loop
      vertex 14.0536 -73.6715 16
      vertex 4.70929 -74.852 0
      vertex 14.0536 -73.6715 0
    endloop
  endfacet
  facet normal 0.951057 0.309017 0
    outer loop
      vertex 72.6437 18.6517 16
      vertex 69.7332 27.6093 0
      vertex 69.7332 27.6093 16
    endloop
  endfacet
  facet normal 0.951057 0.309017 0
    outer loop
      vertex 69.7332 27.6093 0
      vertex 72.6437 18.6517 16
      vertex 72.6437 18.6517 0
    endloop
  endfacet
  facet normal 0.770508 0.637431 0
    outer loop
      vertex 60.6763 44.0839 16
      vertex 54.6726 51.341 0
      vertex 54.6726 51.341 16
    endloop
  endfacet
  facet normal 0.770508 0.637431 0
    outer loop
      vertex 54.6726 51.341 0
      vertex 60.6763 44.0839 16
      vertex 60.6763 44.0839 0
    endloop
  endfacet
  facet normal 0.125337 0.992114 -0
    outer loop
      vertex 14.0536 73.6715 0
      vertex 4.70929 74.852 16
      vertex 14.0536 73.6715 16
    endloop
  endfacet
  facet normal 0.125337 0.992114 0
    outer loop
      vertex 4.70929 74.852 16
      vertex 14.0536 73.6715 0
      vertex 4.70929 74.852 0
    endloop
  endfacet
  facet normal 0.587785 0.809017 -0
    outer loop
      vertex 47.8068 57.7885 0
      vertex 40.187 63.3246 16
      vertex 47.8068 57.7885 16
    endloop
  endfacet
  facet normal 0.587785 0.809017 0
    outer loop
      vertex 40.187 63.3246 16
      vertex 47.8068 57.7885 0
      vertex 40.187 63.3246 0
    endloop
  endfacet
  facet normal -0.84433 0.535823 0
    outer loop
      vertex -65.723 36.1315 0
      vertex -60.6763 44.0839 16
      vertex -60.6763 44.0839 0
    endloop
  endfacet
  facet normal -0.84433 0.535823 0
    outer loop
      vertex -60.6763 44.0839 16
      vertex -65.723 36.1315 0
      vertex -65.723 36.1315 16
    endloop
  endfacet
  facet normal -0.982286 0.187386 0
    outer loop
      vertex -74.4086 9.39999 0
      vertex -72.6437 18.6517 16
      vertex -72.6437 18.6517 0
    endloop
  endfacet
  facet normal -0.982286 0.187386 0
    outer loop
      vertex -72.6437 18.6517 16
      vertex -74.4086 9.39999 0
      vertex -74.4086 9.39999 16
    endloop
  endfacet
  facet normal 0 0 1
    outer loop
      vertex 60 0 16
      vertex 75 0 16
      vertex 74.4086 9.39999 16
    endloop
  endfacet
  facet normal 0 0 1
    outer loop
      vertex 59.5269 7.51999 16
      vertex 74.4086 9.39999 16
      vertex 72.6437 18.6517 16
    endloop
  endfacet
  facet normal 0 0 1
    outer loop
      vertex 75 0 16
      vertex 60 0 16
      vertex 74.4086 -9.39999 16
    endloop
  endfacet
  facet normal 0 0 1
    outer loop
      vertex 58.115 14.9214 16
      vertex 72.6437 18.6517 16
      vertex 69.7332 27.6093 16
    endloop
  endfacet
  facet normal -0 0 1
    outer loop
      vertex 59.5269 -7.51999 16
      vertex 74.4086 -9.39999 16
      vertex 60 0 16
    endloop
  endfacet
  facet normal 0 0 1
    outer loop
      vertex 55.7866 22.0875 16
      vertex 69.7332 27.6093 16
      vertex 65.723 36.1315 16
    endloop
  endfacet
  facet normal 0 0 1
    outer loop
      vertex 74.4086 -9.39999 16
      vertex 59.5269 -7.51999 16
      vertex 72.6437 -18.6517 16
    endloop
  endfacet
  facet normal 0 0 1
    outer loop
      vertex 52.5784 28.9052 16
      vertex 65.723 36.1315 16
      vertex 60.6763 44.0839 16
    endloop
  endfacet
  facet normal -0 0 1
    outer loop
      vertex 58.115 -14.9214 16
      vertex 72.6437 -18.6517 16
      vertex 59.5269 -7.51999 16
    endloop
  endfacet
  facet normal 0 0 1
    outer loop
      vertex 72.6437 -18.6517 16
      vertex 58.115 -14.9214 16
      vertex 69.7332 -27.6093 16
    endloop
  endfacet
  facet normal 0 0 1
    outer loop
      vertex 74.4086 9.39999 16
      vertex 59.5269 7.51999 16
      vertex 60 0 16
    endloop
  endfacet
  facet normal 0 0 1
    outer loop
      vertex 72.6437 18.6517 16
      vertex 58.115 14.9214 16
      vertex 59.5269 7.51999 16
    endloop
  endfacet
  facet normal 0 0 1
    outer loop
      vertex 69.7332 27.6093 16
      vertex 55.7866 22.0875 16
      vertex 58.115 14.9214 16
    endloop
  endfacet
  facet normal 0 0 1
    outer loop
      vertex 48.541 35.2671 16
      vertex 60.6763 44.0839 16
      vertex 54.6726 51.341 16
    endloop
  endfacet
  facet normal 0 0 1
    outer loop
      vertex 65.723 36.1315 16
      vertex 52.5784 28.9052 16
      vertex 55.7866 22.0875 16
    endloop
  endfacet
  facet normal 0 0 1
    outer loop
      vertex 60.6763 44.0839 16
      vertex 48.541 35.2671 16
      vertex 52.5784 28.9052 16
    endloop
  endfacet
  facet normal 0 0 1
    outer loop
      vertex 43.7381 41.0728 16
      vertex 54.6726 51.341 16
      vertex 47.8068 57.7885 16
    endloop
  endfacet
  facet normal 0 0 1
    outer loop
      vertex 54.6726 51.341 16
      vertex 43.7381 41.0728 16
      vertex 48.541 35.2671 16
    endloop
  endfacet
  facet normal 0 0 1
    outer loop
      vertex 38.2454 46.2308 16
      vertex 47.8068 57.7885 16
      vertex 40.187 63.3246 16
    endloop
  endfacet
  facet normal 0 0 1
    outer loop
      vertex 47.8068 57.7885 16
      vertex 38.2454 46.2308 16
      vertex 43.7381 41.0728 16
    endloop
  endfacet
  facet normal 0 0 1
    outer loop
      vertex 40.187 63.3246 16
      vertex 32.1496 50.6597 16
      vertex 38.2454 46.2308 16
    endloop
  endfacet
  facet normal 0 0 1
    outer loop
      vertex 31.9334 67.862 16
      vertex 32.1496 50.6597 16
      vertex 40.187 63.3246 16
    endloop
  endfacet
  facet normal 0 0 1
    outer loop
      vertex 31.9334 67.862 16
      vertex 25.5468 54.2896 16
      vertex 32.1496 50.6597 16
    endloop
  endfacet
  facet normal 0 0 1
    outer loop
      vertex 23.1763 71.3292 16
      vertex 25.5468 54.2896 16
      vertex 31.9334 67.862 16
    endloop
  endfacet
  facet normal 0 0 1
    outer loop
      vertex 23.1763 71.3292 16
      vertex 18.541 57.0634 16
      vertex 25.5468 54.2896 16
    endloop
  endfacet
  facet normal 0 0 1
    outer loop
      vertex 14.0536 73.6715 16
      vertex 18.541 57.0634 16
      vertex 23.1763 71.3292 16
    endloop
  endfacet
  facet normal 0 0 1
    outer loop
      vertex 14.0536 73.6715 16
      vertex 11.2429 58.9372 16
      vertex 18.541 57.0634 16
    endloop
  endfacet
  facet normal 0 0 1
    outer loop
      vertex 4.70929 74.852 16
      vertex 11.2429 58.9372 16
      vertex 14.0536 73.6715 16
    endloop
  endfacet
  facet normal 0 0 1
    outer loop
      vertex 4.70929 74.852 16
      vertex 3.76743 59.8816 16
      vertex 11.2429 58.9372 16
    endloop
  endfacet
  facet normal 0 0 1
    outer loop
      vertex 4.70929 74.852 16
      vertex -3.76743 59.8816 16
      vertex 3.76743 59.8816 16
    endloop
  endfacet
  facet normal -0 0 1
    outer loop
      vertex -4.70929 74.852 16
      vertex -3.76743 59.8816 16
      vertex 4.70929 74.852 16
    endloop
  endfacet
  facet normal 0 0 1
    outer loop
      vertex -4.70929 74.852 16
      vertex -11.2429 58.9372 16
      vertex -3.76743 59.8816 16
    endloop
  endfacet
  facet normal -0 0 1
    outer loop
      vertex -14.0536 73.6715 16
      vertex -11.2429 58.9372 16
      vertex -4.70929 74.852 16
    endloop
  endfacet
  facet normal 0 0 1
    outer loop
      vertex -14.0536 73.6715 16
      vertex -18.541 57.0634 16
      vertex -11.2429 58.9372 16
    endloop
  endfacet
  facet normal -0 0 1
    outer loop
      vertex -23.1763 71.3292 16
      vertex -18.541 57.0634 16
      vertex -14.0536 73.6715 16
    endloop
  endfacet
  facet normal 0 0 1
    outer loop
      vertex -23.1763 71.3292 16
      vertex -25.5468 54.2896 16
      vertex -18.541 57.0634 16
    endloop
  endfacet
  facet normal -0 0 1
    outer loop
      vertex -31.9334 67.862 16
      vertex -25.5468 54.2896 16
      vertex -23.1763 71.3292 16
    endloop
  endfacet
  facet normal 0 0 1
    outer loop
      vertex -31.9334 67.862 16
      vertex -32.1496 50.6597 16
      vertex -25.5468 54.2896 16
    endloop
  endfacet
  facet normal -0 0 1
    outer loop
      vertex -40.187 63.3246 16
      vertex -32.1496 50.6597 16
      vertex -31.9334 67.862 16
    endloop
  endfacet
  facet normal 0 0 1
    outer loop
      vertex -32.1496 50.6597 16
      vertex -40.187 63.3246 16
      vertex -38.2454 46.2308 16
    endloop
  endfacet
  facet normal -0 0 1
    outer loop
      vertex -47.8068 57.7885 16
      vertex -38.2454 46.2308 16
      vertex -40.187 63.3246 16
    endloop
  endfacet
  facet normal 0 0 1
    outer loop
      vertex -38.2454 46.2308 16
      vertex -47.8068 57.7885 16
      vertex -43.7381 41.0728 16
    endloop
  endfacet
  facet normal -0 0 1
    outer loop
      vertex -54.6726 51.341 16
      vertex -43.7381 41.0728 16
      vertex -47.8068 57.7885 16
    endloop
  endfacet
  facet normal 0 0 1
    outer loop
      vertex -43.7381 41.0728 16
      vertex -54.6726 51.341 16
      vertex -48.541 35.2671 16
    endloop
  endfacet
  facet normal -0 0 1
    outer loop
      vertex -60.6763 44.0839 16
      vertex -48.541 35.2671 16
      vertex -54.6726 51.341 16
    endloop
  endfacet
  facet normal 0 0 1
    outer loop
      vertex -48.541 35.2671 16
      vertex -60.6763 44.0839 16
      vertex -52.5784 28.9052 16
    endloop
  endfacet
  facet normal -0 0 1
    outer loop
      vertex -65.723 36.1315 16
      vertex -52.5784 28.9052 16
      vertex -60.6763 44.0839 16
    endloop
  endfacet
  facet normal 0 0 1
    outer loop
      vertex -52.5784 28.9052 16
      vertex -65.723 36.1315 16
      vertex -55.7866 22.0875 16
    endloop
  endfacet
  facet normal 0 0 1
    outer loop
      vertex -55.7866 22.0875 16
      vertex -69.7332 27.6093 16
      vertex -58.115 14.9214 16
    endloop
  endfacet
  facet normal -0 0 1
    outer loop
      vertex -69.7332 27.6093 16
      vertex -55.7866 22.0875 16
      vertex -65.723 36.1315 16
    endloop
  endfacet
  facet normal -0 0 1
    outer loop
      vertex 55.7866 -22.0875 16
      vertex 69.7332 -27.6093 16
      vertex 58.115 -14.9214 16
    endloop
  endfacet
  facet normal 0 0 1
    outer loop
      vertex 69.7332 -27.6093 16
      vertex 55.7866 -22.0875 16
      vertex 65.723 -36.1315 16
    endloop
  endfacet
  facet normal -0 0 1
    outer loop
      vertex 52.5784 -28.9052 16
      vertex 65.723 -36.1315 16
      vertex 55.7866 -22.0875 16
    endloop
  endfacet
  facet normal 0 0 1
    outer loop
      vertex 65.723 -36.1315 16
      vertex 52.5784 -28.9052 16
      vertex 60.6763 -44.0839 16
    endloop
  endfacet
  facet normal -0 0 1
    outer loop
      vertex 48.541 -35.2671 16
      vertex 60.6763 -44.0839 16
      vertex 52.5784 -28.9052 16
    endloop
  endfacet
  facet normal 0 0 1
    outer loop
      vertex 60.6763 -44.0839 16
      vertex 48.541 -35.2671 16
      vertex 54.6726 -51.341 16
    endloop
  endfacet
  facet normal -0 0 1
    outer loop
      vertex 43.7381 -41.0728 16
      vertex 54.6726 -51.341 16
      vertex 48.541 -35.2671 16
    endloop
  endfacet
  facet normal 0 0 1
    outer loop
      vertex 54.6726 -51.341 16
      vertex 43.7381 -41.0728 16
      vertex 47.8068 -57.7885 16
    endloop
  endfacet
  facet normal -0 0 1
    outer loop
      vertex 38.2454 -46.2308 16
      vertex 47.8068 -57.7885 16
      vertex 43.7381 -41.0728 16
    endloop
  endfacet
  facet normal 0 0 1
    outer loop
      vertex 47.8068 -57.7885 16
      vertex 38.2454 -46.2308 16
      vertex 40.187 -63.3246 16
    endloop
  endfacet
  facet normal -0 0 1
    outer loop
      vertex 32.1496 -50.6597 16
      vertex 40.187 -63.3246 16
      vertex 38.2454 -46.2308 16
    endloop
  endfacet
  facet normal 0 0 1
    outer loop
      vertex 32.1496 -50.6597 16
      vertex 31.9334 -67.862 16
      vertex 40.187 -63.3246 16
    endloop
  endfacet
  facet normal -0 0 1
    outer loop
      vertex 25.5468 -54.2896 16
      vertex 31.9334 -67.862 16
      vertex 32.1496 -50.6597 16
    endloop
  endfacet
  facet normal 0 0 1
    outer loop
      vertex 25.5468 -54.2896 16
      vertex 23.1763 -71.3292 16
      vertex 31.9334 -67.862 16
    endloop
  endfacet
  facet normal -0 0 1
    outer loop
      vertex 18.541 -57.0634 16
      vertex 23.1763 -71.3292 16
      vertex 25.5468 -54.2896 16
    endloop
  endfacet
  facet normal 0 0 1
    outer loop
      vertex 18.541 -57.0634 16
      vertex 14.0536 -73.6715 16
      vertex 23.1763 -71.3292 16
    endloop
  endfacet
  facet normal -0 0 1
    outer loop
      vertex 11.2429 -58.9372 16
      vertex 14.0536 -73.6715 16
      vertex 18.541 -57.0634 16
    endloop
  endfacet
  facet normal 0 0 1
    outer loop
      vertex 11.2429 -58.9372 16
      vertex 4.70929 -74.852 16
      vertex 14.0536 -73.6715 16
    endloop
  endfacet
  facet normal -0 0 1
    outer loop
      vertex 3.76743 -59.8816 16
      vertex 4.70929 -74.852 16
      vertex 11.2429 -58.9372 16
    endloop
  endfacet
  facet normal -0 0 1
    outer loop
      vertex -3.76743 -59.8816 16
      vertex 4.70929 -74.852 16
      vertex 3.76743 -59.8816 16
    endloop
  endfacet
  facet normal 0 0 1
    outer loop
      vertex -3.76743 -59.8816 16
      vertex -4.70929 -74.852 16
      vertex 4.70929 -74.852 16
    endloop
  endfacet
  facet normal 0 0 1
    outer loop
      vertex -11.2429 -58.9372 16
      vertex -4.70929 -74.852 16
      vertex -3.76743 -59.8816 16
    endloop
  endfacet
  facet normal 0 0 1
    outer loop
      vertex -11.2429 -58.9372 16
      vertex -14.0536 -73.6715 16
      vertex -4.70929 -74.852 16
    endloop
  endfacet
  facet normal 0 0 1
    outer loop
      vertex -18.541 -57.0634 16
      vertex -14.0536 -73.6715 16
      vertex -11.2429 -58.9372 16
    endloop
  endfacet
  facet normal 0 0 1
    outer loop
      vertex -18.541 -57.0634 16
      vertex -23.1763 -71.3292 16
      vertex -14.0536 -73.6715 16
    endloop
  endfacet
  facet normal 0 0 1
    outer loop
      vertex -25.5468 -54.2896 16
      vertex -23.1763 -71.3292 16
      vertex -18.541 -57.0634 16
    endloop
  endfacet
  facet normal 0 0 1
    outer loop
      vertex -25.5468 -54.2896 16
      vertex -31.9334 -67.862 16
      vertex -23.1763 -71.3292 16
    endloop
  endfacet
  facet normal 0 0 1
    outer loop
      vertex -32.1496 -50.6597 16
      vertex -31.9334 -67.862 16
      vertex -25.5468 -54.2896 16
    endloop
  endfacet
  facet normal 0 0 1
    outer loop
      vertex -40.187 -63.3246 16
      vertex -32.1496 -50.6597 16
      vertex -38.2454 -46.2308 16
    endloop
  endfacet
  facet normal 0 0 1
    outer loop
      vertex -32.1496 -50.6597 16
      vertex -40.187 -63.3246 16
      vertex -31.9334 -67.862 16
    endloop
  endfacet
  facet normal 0 0 1
    outer loop
      vertex -47.8068 -57.7885 16
      vertex -38.2454 -46.2308 16
      vertex -43.7381 -41.0728 16
    endloop
  endfacet
  facet normal 0 0 1
    outer loop
      vertex -38.2454 -46.2308 16
      vertex -47.8068 -57.7885 16
      vertex -40.187 -63.3246 16
    endloop
  endfacet
  facet normal 0 0 1
    outer loop
      vertex -54.6726 -51.341 16
      vertex -43.7381 -41.0728 16
      vertex -48.541 -35.2671 16
    endloop
  endfacet
  facet normal 0 0 1
    outer loop
      vertex -60.6763 -44.0839 16
      vertex -48.541 -35.2671 16
      vertex -52.5784 -28.9052 16
    endloop
  endfacet
  facet normal 0 0 1
    outer loop
      vertex -43.7381 -41.0728 16
      vertex -54.6726 -51.341 16
      vertex -47.8068 -57.7885 16
    endloop
  endfacet
  facet normal 0 0 1
    outer loop
      vertex -65.723 -36.1315 16
      vertex -52.5784 -28.9052 16
      vertex -55.7866 -22.0875 16
    endloop
  endfacet
  facet normal 0 0 1
    outer loop
      vertex -69.7332 -27.6093 16
      vertex -55.7866 -22.0875 16
      vertex -58.115 -14.9214 16
    endloop
  endfacet
  facet normal 0 0 1
    outer loop
      vertex -72.6437 -18.6517 16
      vertex -58.115 -14.9214 16
      vertex -59.5269 -7.51999 16
    endloop
  endfacet
  facet normal 0 0 1
    outer loop
      vertex -48.541 -35.2671 16
      vertex -60.6763 -44.0839 16
      vertex -54.6726 -51.341 16
    endloop
  endfacet
  facet normal 0 0 1
    outer loop
      vertex -74.4086 -9.39999 16
      vertex -59.5269 -7.51999 16
      vertex -60 0 16
    endloop
  endfacet
  facet normal -0 0 1
    outer loop
      vertex -72.6437 18.6517 16
      vertex -58.115 14.9214 16
      vertex -69.7332 27.6093 16
    endloop
  endfacet
  facet normal 0 0 1
    outer loop
      vertex -58.115 14.9214 16
      vertex -72.6437 18.6517 16
      vertex -59.5269 7.51999 16
    endloop
  endfacet
  facet normal 0 0 1
    outer loop
      vertex -52.5784 -28.9052 16
      vertex -65.723 -36.1315 16
      vertex -60.6763 -44.0839 16
    endloop
  endfacet
  facet normal -0 0 1
    outer loop
      vertex -74.4086 9.39999 16
      vertex -59.5269 7.51999 16
      vertex -72.6437 18.6517 16
    endloop
  endfacet
  facet normal 0 0 1
    outer loop
      vertex -55.7866 -22.0875 16
      vertex -69.7332 -27.6093 16
      vertex -65.723 -36.1315 16
    endloop
  endfacet
  facet normal 0 0 1
    outer loop
      vertex -59.5269 7.51999 16
      vertex -74.4086 9.39999 16
      vertex -60 0 16
    endloop
  endfacet
  facet normal 0 0 1
    outer loop
      vertex -58.115 -14.9214 16
      vertex -72.6437 -18.6517 16
      vertex -69.7332 -27.6093 16
    endloop
  endfacet
  facet normal 0 0 1
    outer loop
      vertex -75 0 16
      vertex -60 0 16
      vertex -74.4086 9.39999 16
    endloop
  endfacet
  facet normal 0 0 1
    outer loop
      vertex -59.5269 -7.51999 16
      vertex -74.4086 -9.39999 16
      vertex -72.6437 -18.6517 16
    endloop
  endfacet
  facet normal 0 0 1
    outer loop
      vertex -60 0 16
      vertex -75 0 16
      vertex -74.4086 -9.39999 16
    endloop
  endfacet
  facet normal -0.481749 0.876309 0
    outer loop
      vertex -31.9334 67.862 0
      vertex -40.187 63.3246 16
      vertex -31.9334 67.862 16
    endloop
  endfacet
  facet normal -0.481749 0.876309 0
    outer loop
      vertex -40.187 63.3246 16
      vertex -31.9334 67.862 0
      vertex -40.187 63.3246 0
    endloop
  endfacet
  facet normal -0.587785 0.809017 0
    outer loop
      vertex -40.187 63.3246 0
      vertex -47.8068 57.7885 16
      vertex -40.187 63.3246 16
    endloop
  endfacet
  facet normal -0.587785 0.809017 0
    outer loop
      vertex -47.8068 57.7885 16
      vertex -40.187 63.3246 0
      vertex -47.8068 57.7885 0
    endloop
  endfacet
  facet normal -0.125337 0.992114 0
    outer loop
      vertex -4.70929 74.852 0
      vertex -14.0536 73.6715 16
      vertex -4.70929 74.852 16
    endloop
  endfacet
  facet normal -0.125337 0.992114 0
    outer loop
      vertex -14.0536 73.6715 16
      vertex -4.70929 74.852 0
      vertex -14.0536 73.6715 0
    endloop
  endfacet
  facet normal 0.998027 -0.0627908 0
    outer loop
      vertex 74.4086 -9.39999 16
      vertex 75 0 0
      vertex 75 0 16
    endloop
  endfacet
  facet normal 0.998027 -0.0627908 0
    outer loop
      vertex 75 0 0
      vertex 74.4086 -9.39999 16
      vertex 74.4086 -9.39999 0
    endloop
  endfacet
  facet normal 0.770508 -0.637431 0
    outer loop
      vertex 54.6726 -51.341 16
      vertex 60.6763 -44.0839 0
      vertex 60.6763 -44.0839 16
    endloop
  endfacet
  facet normal 0.770508 -0.637431 0
    outer loop
      vertex 60.6763 -44.0839 0
      vertex 54.6726 -51.341 16
      vertex 54.6726 -51.341 0
    endloop
  endfacet
  facet normal 0.951057 -0.309017 0
    outer loop
      vertex 69.7332 -27.6093 16
      vertex 72.6437 -18.6517 0
      vertex 72.6437 -18.6517 16
    endloop
  endfacet
  facet normal 0.951057 -0.309017 0
    outer loop
      vertex 72.6437 -18.6517 0
      vertex 69.7332 -27.6093 16
      vertex 69.7332 -27.6093 0
    endloop
  endfacet
  facet normal 0.982286 -0.187386 0
    outer loop
      vertex 72.6437 -18.6517 16
      vertex 74.4086 -9.39999 0
      vertex 74.4086 -9.39999 16
    endloop
  endfacet
  facet normal 0.982286 -0.187386 0
    outer loop
      vertex 74.4086 -9.39999 0
      vertex 72.6437 -18.6517 16
      vertex 72.6437 -18.6517 0
    endloop
  endfacet
  facet normal -0.904829 -0.425776 0
    outer loop
      vertex -65.723 -36.1315 0
      vertex -69.7332 -27.6093 16
      vertex -69.7332 -27.6093 0
    endloop
  endfacet
  facet normal -0.904829 -0.425776 0
    outer loop
      vertex -69.7332 -27.6093 16
      vertex -65.723 -36.1315 0
      vertex -65.723 -36.1315 16
    endloop
  endfacet
  facet normal 0 0 -1
    outer loop
      vertex 60 0 0
      vertex 75 0 0
      vertex 74.4086 -9.39999 0
    endloop
  endfacet
  facet normal 0 0 -1
    outer loop
      vertex 59.5269 -7.51999 0
      vertex 74.4086 -9.39999 0
      vertex 72.6437 -18.6517 0
    endloop
  endfacet
  facet normal 0 0 -1
    outer loop
      vertex 75 0 0
      vertex 60 0 0
      vertex 74.4086 9.39999 0
    endloop
  endfacet
  facet normal 0 0 -1
    outer loop
      vertex 58.115 -14.9214 0
      vertex 72.6437 -18.6517 0
      vertex 69.7332 -27.6093 0
    endloop
  endfacet
  facet normal 0 0 -1
    outer loop
      vertex 59.5269 7.51999 0
      vertex 74.4086 9.39999 0
      vertex 60 0 0
    endloop
  endfacet
  facet normal 0 0 -1
    outer loop
      vertex 55.7866 -22.0875 0
      vertex 69.7332 -27.6093 0
      vertex 65.723 -36.1315 0
    endloop
  endfacet
  facet normal -0 0 -1
    outer loop
      vertex 74.4086 9.39999 0
      vertex 59.5269 7.51999 0
      vertex 72.6437 18.6517 0
    endloop
  endfacet
  facet normal 0 0 -1
    outer loop
      vertex 52.5784 -28.9052 0
      vertex 65.723 -36.1315 0
      vertex 60.6763 -44.0839 0
    endloop
  endfacet
  facet normal 0 0 -1
    outer loop
      vertex 58.115 14.9214 0
      vertex 72.6437 18.6517 0
      vertex 59.5269 7.51999 0
    endloop
  endfacet
  facet normal -0 0 -1
    outer loop
      vertex 72.6437 18.6517 0
      vertex 58.115 14.9214 0
      vertex 69.7332 27.6093 0
    endloop
  endfacet
  facet normal 0 0 -1
    outer loop
      vertex 74.4086 -9.39999 0
      vertex 59.5269 -7.51999 0
      vertex 60 0 0
    endloop
  endfacet
  facet normal 0 0 -1
    outer loop
      vertex 72.6437 -18.6517 0
      vertex 58.115 -14.9214 0
      vertex 59.5269 -7.51999 0
    endloop
  endfacet
  facet normal 0 0 -1
    outer loop
      vertex 69.7332 -27.6093 0
      vertex 55.7866 -22.0875 0
      vertex 58.115 -14.9214 0
    endloop
  endfacet
  facet normal 0 0 -1
    outer loop
      vertex 48.541 -35.2671 0
      vertex 60.6763 -44.0839 0
      vertex 54.6726 -51.341 0
    endloop
  endfacet
  facet normal 0 0 -1
    outer loop
      vertex 65.723 -36.1315 0
      vertex 52.5784 -28.9052 0
      vertex 55.7866 -22.0875 0
    endloop
  endfacet
  facet normal 0 0 -1
    outer loop
      vertex 60.6763 -44.0839 0
      vertex 48.541 -35.2671 0
      vertex 52.5784 -28.9052 0
    endloop
  endfacet
  facet normal 0 0 -1
    outer loop
      vertex 43.7381 -41.0728 0
      vertex 54.6726 -51.341 0
      vertex 47.8068 -57.7885 0
    endloop
  endfacet
  facet normal 0 0 -1
    outer loop
      vertex 54.6726 -51.341 0
      vertex 43.7381 -41.0728 0
      vertex 48.541 -35.2671 0
    endloop
  endfacet
  facet normal 0 0 -1
    outer loop
      vertex 38.2454 -46.2308 0
      vertex 47.8068 -57.7885 0
      vertex 40.187 -63.3246 0
    endloop
  endfacet
  facet normal 0 0 -1
    outer loop
      vertex 47.8068 -57.7885 0
      vertex 38.2454 -46.2308 0
      vertex 43.7381 -41.0728 0
    endloop
  endfacet
  facet normal 0 0 -1
    outer loop
      vertex 40.187 -63.3246 0
      vertex 32.1496 -50.6597 0
      vertex 38.2454 -46.2308 0
    endloop
  endfacet
  facet normal 0 0 -1
    outer loop
      vertex 31.9334 -67.862 0
      vertex 32.1496 -50.6597 0
      vertex 40.187 -63.3246 0
    endloop
  endfacet
  facet normal 0 0 -1
    outer loop
      vertex 31.9334 -67.862 0
      vertex 25.5468 -54.2896 0
      vertex 32.1496 -50.6597 0
    endloop
  endfacet
  facet normal 0 0 -1
    outer loop
      vertex 23.1763 -71.3292 0
      vertex 25.5468 -54.2896 0
      vertex 31.9334 -67.862 0
    endloop
  endfacet
  facet normal 0 0 -1
    outer loop
      vertex 23.1763 -71.3292 0
      vertex 18.541 -57.0634 0
      vertex 25.5468 -54.2896 0
    endloop
  endfacet
  facet normal 0 0 -1
    outer loop
      vertex 14.0536 -73.6715 0
      vertex 18.541 -57.0634 0
      vertex 23.1763 -71.3292 0
    endloop
  endfacet
  facet normal 0 0 -1
    outer loop
      vertex 14.0536 -73.6715 0
      vertex 11.2429 -58.9372 0
      vertex 18.541 -57.0634 0
    endloop
  endfacet
  facet normal 0 0 -1
    outer loop
      vertex 4.70929 -74.852 0
      vertex 11.2429 -58.9372 0
      vertex 14.0536 -73.6715 0
    endloop
  endfacet
  facet normal 0 0 -1
    outer loop
      vertex 4.70929 -74.852 0
      vertex 3.76743 -59.8816 0
      vertex 11.2429 -58.9372 0
    endloop
  endfacet
  facet normal 0 0 -1
    outer loop
      vertex 4.70929 -74.852 0
      vertex -3.76743 -59.8816 0
      vertex 3.76743 -59.8816 0
    endloop
  endfacet
  facet normal 0 0 -1
    outer loop
      vertex -4.70929 -74.852 0
      vertex -3.76743 -59.8816 0
      vertex 4.70929 -74.852 0
    endloop
  endfacet
  facet normal 0 0 -1
    outer loop
      vertex -4.70929 -74.852 0
      vertex -11.2429 -58.9372 0
      vertex -3.76743 -59.8816 0
    endloop
  endfacet
  facet normal 0 0 -1
    outer loop
      vertex -14.0536 -73.6715 0
      vertex -11.2429 -58.9372 0
      vertex -4.70929 -74.852 0
    endloop
  endfacet
  facet normal 0 0 -1
    outer loop
      vertex -14.0536 -73.6715 0
      vertex -18.541 -57.0634 0
      vertex -11.2429 -58.9372 0
    endloop
  endfacet
  facet normal 0 0 -1
    outer loop
      vertex -23.1763 -71.3292 0
      vertex -18.541 -57.0634 0
      vertex -14.0536 -73.6715 0
    endloop
  endfacet
  facet normal 0 0 -1
    outer loop
      vertex -23.1763 -71.3292 0
      vertex -25.5468 -54.2896 0
      vertex -18.541 -57.0634 0
    endloop
  endfacet
  facet normal 0 0 -1
    outer loop
      vertex -31.9334 -67.862 0
      vertex -25.5468 -54.2896 0
      vertex -23.1763 -71.3292 0
    endloop
  endfacet
  facet normal 0 0 -1
    outer loop
      vertex -31.9334 -67.862 0
      vertex -32.1496 -50.6597 0
      vertex -25.5468 -54.2896 0
    endloop
  endfacet
  facet normal 0 0 -1
    outer loop
      vertex -40.187 -63.3246 0
      vertex -32.1496 -50.6597 0
      vertex -31.9334 -67.862 0
    endloop
  endfacet
  facet normal -0 0 -1
    outer loop
      vertex -32.1496 -50.6597 0
      vertex -40.187 -63.3246 0
      vertex -38.2454 -46.2308 0
    endloop
  endfacet
  facet normal 0 0 -1
    outer loop
      vertex -47.8068 -57.7885 0
      vertex -38.2454 -46.2308 0
      vertex -40.187 -63.3246 0
    endloop
  endfacet
  facet normal -0 0 -1
    outer loop
      vertex -38.2454 -46.2308 0
      vertex -47.8068 -57.7885 0
      vertex -43.7381 -41.0728 0
    endloop
  endfacet
  facet normal 0 0 -1
    outer loop
      vertex -54.6726 -51.341 0
      vertex -43.7381 -41.0728 0
      vertex -47.8068 -57.7885 0
    endloop
  endfacet
  facet normal -0 0 -1
    outer loop
      vertex -43.7381 -41.0728 0
      vertex -54.6726 -51.341 0
      vertex -48.541 -35.2671 0
    endloop
  endfacet
  facet normal 0 0 -1
    outer loop
      vertex -60.6763 -44.0839 0
      vertex -48.541 -35.2671 0
      vertex -54.6726 -51.341 0
    endloop
  endfacet
  facet normal -0 0 -1
    outer loop
      vertex -48.541 -35.2671 0
      vertex -60.6763 -44.0839 0
      vertex -52.5784 -28.9052 0
    endloop
  endfacet
  facet normal 0 0 -1
    outer loop
      vertex -65.723 -36.1315 0
      vertex -52.5784 -28.9052 0
      vertex -60.6763 -44.0839 0
    endloop
  endfacet
  facet normal -0 0 -1
    outer loop
      vertex -52.5784 -28.9052 0
      vertex -65.723 -36.1315 0
      vertex -55.7866 -22.0875 0
    endloop
  endfacet
  facet normal -0 0 -1
    outer loop
      vertex -55.7866 -22.0875 0
      vertex -69.7332 -27.6093 0
      vertex -58.115 -14.9214 0
    endloop
  endfacet
  facet normal 0 0 -1
    outer loop
      vertex -69.7332 -27.6093 0
      vertex -55.7866 -22.0875 0
      vertex -65.723 -36.1315 0
    endloop
  endfacet
  facet normal 0 0 -1
    outer loop
      vertex 55.7866 22.0875 0
      vertex 69.7332 27.6093 0
      vertex 58.115 14.9214 0
    endloop
  endfacet
  facet normal -0 0 -1
    outer loop
      vertex 69.7332 27.6093 0
      vertex 55.7866 22.0875 0
      vertex 65.723 36.1315 0
    endloop
  endfacet
  facet normal 0 0 -1
    outer loop
      vertex 52.5784 28.9052 0
      vertex 65.723 36.1315 0
      vertex 55.7866 22.0875 0
    endloop
  endfacet
  facet normal -0 0 -1
    outer loop
      vertex 65.723 36.1315 0
      vertex 52.5784 28.9052 0
      vertex 60.6763 44.0839 0
    endloop
  endfacet
  facet normal 0 0 -1
    outer loop
      vertex 48.541 35.2671 0
      vertex 60.6763 44.0839 0
      vertex 52.5784 28.9052 0
    endloop
  endfacet
  facet normal -0 0 -1
    outer loop
      vertex 60.6763 44.0839 0
      vertex 48.541 35.2671 0
      vertex 54.6726 51.341 0
    endloop
  endfacet
  facet normal 0 0 -1
    outer loop
      vertex 43.7381 41.0728 0
      vertex 54.6726 51.341 0
      vertex 48.541 35.2671 0
    endloop
  endfacet
  facet normal -0 0 -1
    outer loop
      vertex 54.6726 51.341 0
      vertex 43.7381 41.0728 0
      vertex 47.8068 57.7885 0
    endloop
  endfacet
  facet normal 0 0 -1
    outer loop
      vertex 38.2454 46.2308 0
      vertex 47.8068 57.7885 0
      vertex 43.7381 41.0728 0
    endloop
  endfacet
  facet normal -0 0 -1
    outer loop
      vertex 47.8068 57.7885 0
      vertex 38.2454 46.2308 0
      vertex 40.187 63.3246 0
    endloop
  endfacet
  facet normal 0 0 -1
    outer loop
      vertex 32.1496 50.6597 0
      vertex 40.187 63.3246 0
      vertex 38.2454 46.2308 0
    endloop
  endfacet
  facet normal 0 0 -1
    outer loop
      vertex 32.1496 50.6597 0
      vertex 31.9334 67.862 0
      vertex 40.187 63.3246 0
    endloop
  endfacet
  facet normal 0 0 -1
    outer loop
      vertex 25.5468 54.2896 0
      vertex 31.9334 67.862 0
      vertex 32.1496 50.6597 0
    endloop
  endfacet
  facet normal 0 0 -1
    outer loop
      vertex 25.5468 54.2896 0
      vertex 23.1763 71.3292 0
      vertex 31.9334 67.862 0
    endloop
  endfacet
  facet normal 0 0 -1
    outer loop
      vertex 18.541 57.0634 0
      vertex 23.1763 71.3292 0
      vertex 25.5468 54.2896 0
    endloop
  endfacet
  facet normal 0 0 -1
    outer loop
      vertex 18.541 57.0634 0
      vertex 14.0536 73.6715 0
      vertex 23.1763 71.3292 0
    endloop
  endfacet
  facet normal 0 0 -1
    outer loop
      vertex 11.2429 58.9372 0
      vertex 14.0536 73.6715 0
      vertex 18.541 57.0634 0
    endloop
  endfacet
  facet normal 0 0 -1
    outer loop
      vertex 11.2429 58.9372 0
      vertex 4.70929 74.852 0
      vertex 14.0536 73.6715 0
    endloop
  endfacet
  facet normal 0 0 -1
    outer loop
      vertex 3.76743 59.8816 0
      vertex 4.70929 74.852 0
      vertex 11.2429 58.9372 0
    endloop
  endfacet
  facet normal 0 0 -1
    outer loop
      vertex -3.76743 59.8816 0
      vertex 4.70929 74.852 0
      vertex 3.76743 59.8816 0
    endloop
  endfacet
  facet normal 0 0 -1
    outer loop
      vertex -3.76743 59.8816 0
      vertex -4.70929 74.852 0
      vertex 4.70929 74.852 0
    endloop
  endfacet
  facet normal 0 0 -1
    outer loop
      vertex -11.2429 58.9372 0
      vertex -4.70929 74.852 0
      vertex -3.76743 59.8816 0
    endloop
  endfacet
  facet normal 0 0 -1
    outer loop
      vertex -11.2429 58.9372 0
      vertex -14.0536 73.6715 0
      vertex -4.70929 74.852 0
    endloop
  endfacet
  facet normal 0 0 -1
    outer loop
      vertex -18.541 57.0634 0
      vertex -14.0536 73.6715 0
      vertex -11.2429 58.9372 0
    endloop
  endfacet
  facet normal 0 0 -1
    outer loop
      vertex -18.541 57.0634 0
      vertex -23.1763 71.3292 0
      vertex -14.0536 73.6715 0
    endloop
  endfacet
  facet normal 0 0 -1
    outer loop
      vertex -25.5468 54.2896 0
      vertex -23.1763 71.3292 0
      vertex -18.541 57.0634 0
    endloop
  endfacet
  facet normal 0 0 -1
    outer loop
      vertex -25.5468 54.2896 0
      vertex -31.9334 67.862 0
      vertex -23.1763 71.3292 0
    endloop
  endfacet
  facet normal 0 0 -1
    outer loop
      vertex -32.1496 50.6597 0
      vertex -31.9334 67.862 0
      vertex -25.5468 54.2896 0
    endloop
  endfacet
  facet normal 0 0 -1
    outer loop
      vertex -40.187 63.3246 0
      vertex -32.1496 50.6597 0
      vertex -38.2454 46.2308 0
    endloop
  endfacet
  facet normal 0 0 -1
    outer loop
      vertex -32.1496 50.6597 0
      vertex -40.187 63.3246 0
      vertex -31.9334 67.862 0
    endloop
  endfacet
  facet normal 0 0 -1
    outer loop
      vertex -47.8068 57.7885 0
      vertex -38.2454 46.2308 0
      vertex -43.7381 41.0728 0
    endloop
  endfacet
  facet normal 0 0 -1
    outer loop
      vertex -38.2454 46.2308 0
      vertex -47.8068 57.7885 0
      vertex -40.187 63.3246 0
    endloop
  endfacet
  facet normal 0 0 -1
    outer loop
      vertex -54.6726 51.341 0
      vertex -43.7381 41.0728 0
      vertex -48.541 35.2671 0
    endloop
  endfacet
  facet normal 0 0 -1
    outer loop
      vertex -60.6763 44.0839 0
      vertex -48.541 35.2671 0
      vertex -52.5784 28.9052 0
    endloop
  endfacet
  facet normal 0 0 -1
    outer loop
      vertex -43.7381 41.0728 0
      vertex -54.6726 51.341 0
      vertex -47.8068 57.7885 0
    endloop
  endfacet
  facet normal 0 0 -1
    outer loop
      vertex -65.723 36.1315 0
      vertex -52.5784 28.9052 0
      vertex -55.7866 22.0875 0
    endloop
  endfacet
  facet normal 0 0 -1
    outer loop
      vertex -69.7332 27.6093 0
      vertex -55.7866 22.0875 0
      vertex -58.115 14.9214 0
    endloop
  endfacet
  facet normal 0 0 -1
    outer loop
      vertex -72.6437 18.6517 0
      vertex -58.115 14.9214 0
      vertex -59.5269 7.51999 0
    endloop
  endfacet
  facet normal 0 0 -1
    outer loop
      vertex -48.541 35.2671 0
      vertex -60.6763 44.0839 0
      vertex -54.6726 51.341 0
    endloop
  endfacet
  facet normal 0 0 -1
    outer loop
      vertex -74.4086 9.39999 0
      vertex -59.5269 7.51999 0
      vertex -60 0 0
    endloop
  endfacet
  facet normal 0 0 -1
    outer loop
      vertex -72.6437 -18.6517 0
      vertex -58.115 -14.9214 0
      vertex -69.7332 -27.6093 0
    endloop
  endfacet
  facet normal -0 0 -1
    outer loop
      vertex -58.115 -14.9214 0
      vertex -72.6437 -18.6517 0
      vertex -59.5269 -7.51999 0
    endloop
  endfacet
  facet normal 0 0 -1
    outer loop
      vertex -52.5784 28.9052 0
      vertex -65.723 36.1315 0
      vertex -60.6763 44.0839 0
    endloop
  endfacet
  facet normal 0 0 -1
    outer loop
      vertex -74.4086 -9.39999 0
      vertex -59.5269 -7.51999 0
      vertex -72.6437 -18.6517 0
    endloop
  endfacet
  facet normal 0 0 -1
    outer loop
      vertex -55.7866 22.0875 0
      vertex -69.7332 27.6093 0
      vertex -65.723 36.1315 0
    endloop
  endfacet
  facet normal -0 0 -1
    outer loop
      vertex -59.5269 -7.51999 0
      vertex -74.4086 -9.39999 0
      vertex -60 0 0
    endloop
  endfacet
  facet normal 0 0 -1
    outer loop
      vertex -58.115 14.9214 0
      vertex -72.6437 18.6517 0
      vertex -69.7332 27.6093 0
    endloop
  endfacet
  facet normal 0 0 -1
    outer loop
      vertex -75 0 0
      vertex -60 0 0
      vertex -74.4086 -9.39999 0
    endloop
  endfacet
  facet normal 0 0 -1
    outer loop
      vertex -59.5269 7.51999 0
      vertex -74.4086 9.39999 0
      vertex -72.6437 18.6517 0
    endloop
  endfacet
  facet normal 0 0 -1
    outer loop
      vertex -60 0 0
      vertex -75 0 0
      vertex -74.4086 9.39999 0
    endloop
  endfacet
  facet normal 0.481749 -0.876309 0
    outer loop
      vertex 31.9334 -67.862 0
      vertex 40.187 -63.3246 16
      vertex 31.9334 -67.862 16
    endloop
  endfacet
  facet normal 0.481749 -0.876309 0
    outer loop
      vertex 40.187 -63.3246 16
      vertex 31.9334 -67.862 0
      vertex 40.187 -63.3246 0
    endloop
  endfacet
  facet normal 0.684552 -0.728964 0
    outer loop
      vertex 47.8068 -57.7885 0
      vertex 54.6726 -51.341 16
      vertex 47.8068 -57.7885 16
    endloop
  endfacet
  facet normal 0.684552 -0.728964 0
    outer loop
      vertex 54.6726 -51.341 16
      vertex 47.8068 -57.7885 0
      vertex 54.6726 -51.341 0
    endloop
  endfacet
  facet normal 0.84433 -0.535823 0
    outer loop
      vertex 60.6763 -44.0839 16
      vertex 65.723 -36.1315 0
      vertex 65.723 -36.1315 16
    endloop
  endfacet
  facet normal 0.84433 -0.535823 0
    outer loop
      vertex 65.723 -36.1315 0
      vertex 60.6763 -44.0839 16
      vertex 60.6763 -44.0839 0
    endloop
  endfacet
  facet normal -0.248689 -0.968583 0
    outer loop
      vertex -23.1763 -71.3292 0
      vertex -14.0536 -73.6715 16
      vertex -23.1763 -71.3292 16
    endloop
  endfacet
  facet normal -0.248689 -0.968583 -0
    outer loop
      vertex -14.0536 -73.6715 16
      vertex -23.1763 -71.3292 0
      vertex -14.0536 -73.6715 0
    endloop
  endfacet
  facet normal -0.951057 -0.309017 0
    outer loop
      vertex -69.7332 -27.6093 0
      vertex -72.6437 -18.6517 16
      vertex -72.6437 -18.6517 0
    endloop
  endfacet
  facet normal -0.951057 -0.309017 0
    outer loop
      vertex -72.6437 -18.6517 16
      vertex -69.7332 -27.6093 0
      vertex -69.7332 -27.6093 16
    endloop
  endfacet
  facet normal 0.368126 -0.929776 0
    outer loop
      vertex 23.1763 -71.3292 0
      vertex 31.9334 -67.862 16
      vertex 23.1763 -71.3292 16
    endloop
  endfacet
  facet normal 0.368126 -0.929776 0
    outer loop
      vertex 31.9334 -67.862 16
      vertex 23.1763 -71.3292 0
      vertex 31.9334 -67.862 0
    endloop
  endfacet
  facet normal 0.248689 -0.968583 0
    outer loop
      vertex 14.0536 -73.6715 0
      vertex 23.1763 -71.3292 16
      vertex 14.0536 -73.6715 16
    endloop
  endfacet
  facet normal 0.248689 -0.968583 0
    outer loop
      vertex 23.1763 -71.3292 16
      vertex 14.0536 -73.6715 0
      vertex 23.1763 -71.3292 0
    endloop
  endfacet
  facet normal 0.904829 -0.425776 0
    outer loop
      vertex 65.723 -36.1315 16
      vertex 69.7332 -27.6093 0
      vertex 69.7332 -27.6093 16
    endloop
  endfacet
  facet normal 0.904829 -0.425776 0
    outer loop
      vertex 69.7332 -27.6093 0
      vertex 65.723 -36.1315 16
      vertex 65.723 -36.1315 0
    endloop
  endfacet
  facet normal -0.125337 -0.992114 0
    outer loop
      vertex -14.0536 -73.6715 0
      vertex -4.70929 -74.852 16
      vertex -14.0536 -73.6715 16
    endloop
  endfacet
  facet normal -0.125337 -0.992114 -0
    outer loop
      vertex -4.70929 -74.852 16
      vertex -14.0536 -73.6715 0
      vertex -4.70929 -74.852 0
    endloop
  endfacet
  facet normal -0.368126 -0.929776 0
    outer loop
      vertex -31.9334 -67.862 0
      vertex -23.1763 -71.3292 16
      vertex -31.9334 -67.862 16
    endloop
  endfacet
  facet normal -0.368126 -0.929776 -0
    outer loop
      vertex -23.1763 -71.3292 16
      vertex -31.9334 -67.862 0
      vertex -23.1763 -71.3292 0
    endloop
  endfacet
  facet normal -0.770508 -0.637431 0
    outer loop
      vertex -54.6726 -51.341 0
      vertex -60.6763 -44.0839 16
      vertex -60.6763 -44.0839 0
    endloop
  endfacet
  facet normal -0.770508 -0.637431 0
    outer loop
      vertex -60.6763 -44.0839 16
      vertex -54.6726 -51.341 0
      vertex -54.6726 -51.341 16
    endloop
  endfacet
  facet normal -0.684552 -0.728964 0
    outer loop
      vertex -54.6726 -51.341 0
      vertex -47.8068 -57.7885 16
      vertex -54.6726 -51.341 16
    endloop
  endfacet
  facet normal -0.684552 -0.728964 -0
    outer loop
      vertex -47.8068 -57.7885 16
      vertex -54.6726 -51.341 0
      vertex -47.8068 -57.7885 0
    endloop
  endfacet
  facet normal -0.982286 -0.187386 0
    outer loop
      vertex -72.6437 -18.6517 0
      vertex -74.4086 -9.39999 16
      vertex -74.4086 -9.39999 0
    endloop
  endfacet
  facet normal -0.982286 -0.187386 0
    outer loop
      vertex -74.4086 -9.39999 16
      vertex -72.6437 -18.6517 0
      vertex -72.6437 -18.6517 16
    endloop
  endfacet
  facet normal -0.998027 -0.0627908 0
    outer loop
      vertex -74.4086 -9.39999 0
      vertex -75 0 16
      vertex -75 0 0
    endloop
  endfacet
  facet normal -0.998027 -0.0627908 0
    outer loop
      vertex -75 0 16
      vertex -74.4086 -9.39999 0
      vertex -74.4086 -9.39999 16
    endloop
  endfacet
  facet normal 0.587785 -0.809017 0
    outer loop
      vertex 40.187 -63.3246 0
      vertex 47.8068 -57.7885 16
      vertex 40.187 -63.3246 16
    endloop
  endfacet
  facet normal 0.587785 -0.809017 0
    outer loop
      vertex 47.8068 -57.7885 16
      vertex 40.187 -63.3246 0
      vertex 47.8068 -57.7885 0
    endloop
  endfacet
  facet normal -0.84433 -0.535823 0
    outer loop
      vertex -60.6763 -44.0839 0
      vertex -65.723 -36.1315 16
      vertex -65.723 -36.1315 0
    endloop
  endfacet
  facet normal -0.84433 -0.535823 0
    outer loop
      vertex -65.723 -36.1315 16
      vertex -60.6763 -44.0839 0
      vertex -60.6763 -44.0839 16
    endloop
  endfacet
  facet normal -0.481749 -0.876309 0
    outer loop
      vertex -40.187 -63.3246 0
      vertex -31.9334 -67.862 16
      vertex -40.187 -63.3246 16
    endloop
  endfacet
  facet normal -0.481749 -0.876309 -0
    outer loop
      vertex -31.9334 -67.862 16
      vertex -40.187 -63.3246 0
      vertex -31.9334 -67.862 0
    endloop
  endfacet
  facet normal -0.587785 -0.809017 0
    outer loop
      vertex -47.8068 -57.7885 0
      vertex -40.187 -63.3246 16
      vertex -47.8068 -57.7885 16
    endloop
  endfacet
  facet normal -0.587785 -0.809017 -0
    outer loop
      vertex -40.187 -63.3246 16
      vertex -47.8068 -57.7885 0
      vertex -40.187 -63.3246 0
    endloop
  endfacet
  facet normal 0.951057 -0.309016 0
    outer loop
      vertex -58.115 14.9214 16
      vertex -55.7866 22.0875 0
      vertex -55.7866 22.0875 16
    endloop
  endfacet
  facet normal 0.951057 -0.309016 0
    outer loop
      vertex -55.7866 22.0875 0
      vertex -58.115 14.9214 16
      vertex -58.115 14.9214 0
    endloop
  endfacet
  facet normal -0.844327 -0.535828 0
    outer loop
      vertex 52.5784 28.9052 0
      vertex 48.541 35.2671 16
      vertex 48.541 35.2671 0
    endloop
  endfacet
  facet normal -0.844327 -0.535828 0
    outer loop
      vertex 48.541 35.2671 16
      vertex 52.5784 28.9052 0
      vertex 52.5784 28.9052 16
    endloop
  endfacet
  facet normal -0.248686 -0.968584 0
    outer loop
      vertex 11.2429 58.9372 0
      vertex 18.541 57.0634 16
      vertex 11.2429 58.9372 16
    endloop
  endfacet
  facet normal -0.248686 -0.968584 -0
    outer loop
      vertex 18.541 57.0634 16
      vertex 11.2429 58.9372 0
      vertex 18.541 57.0634 0
    endloop
  endfacet
  facet normal -0.368125 -0.929776 0
    outer loop
      vertex 18.541 57.0634 0
      vertex 25.5468 54.2896 16
      vertex 18.541 57.0634 16
    endloop
  endfacet
  facet normal -0.368125 -0.929776 -0
    outer loop
      vertex 25.5468 54.2896 16
      vertex 18.541 57.0634 0
      vertex 25.5468 54.2896 0
    endloop
  endfacet
  facet normal 0.368125 -0.929776 0
    outer loop
      vertex -25.5468 54.2896 0
      vertex -18.541 57.0634 16
      vertex -25.5468 54.2896 16
    endloop
  endfacet
  facet normal 0.368125 -0.929776 0
    outer loop
      vertex -18.541 57.0634 16
      vertex -25.5468 54.2896 0
      vertex -18.541 57.0634 0
    endloop
  endfacet
  facet normal 0.904825 -0.425783 0
    outer loop
      vertex -55.7866 22.0875 16
      vertex -52.5784 28.9052 0
      vertex -52.5784 28.9052 16
    endloop
  endfacet
  facet normal 0.904825 -0.425783 0
    outer loop
      vertex -52.5784 28.9052 0
      vertex -55.7866 22.0875 16
      vertex -55.7866 22.0875 0
    endloop
  endfacet
  facet normal -0.998027 0.0627882 0
    outer loop
      vertex 59.5269 -7.51999 0
      vertex 60 0 16
      vertex 60 0 0
    endloop
  endfacet
  facet normal -0.998027 0.0627882 0
    outer loop
      vertex 60 0 16
      vertex 59.5269 -7.51999 0
      vertex 59.5269 -7.51999 16
    endloop
  endfacet
  facet normal -0.481752 0.876308 0
    outer loop
      vertex 32.1496 -50.6597 0
      vertex 25.5468 -54.2896 16
      vertex 32.1496 -50.6597 16
    endloop
  endfacet
  facet normal -0.481752 0.876308 0
    outer loop
      vertex 25.5468 -54.2896 16
      vertex 32.1496 -50.6597 0
      vertex 25.5468 -54.2896 0
    endloop
  endfacet
  facet normal -0.587789 -0.809014 0
    outer loop
      vertex 32.1496 50.6597 0
      vertex 38.2454 46.2308 16
      vertex 32.1496 50.6597 16
    endloop
  endfacet
  facet normal -0.587789 -0.809014 -0
    outer loop
      vertex 38.2454 46.2308 16
      vertex 32.1496 50.6597 0
      vertex 38.2454 46.2308 0
    endloop
  endfacet
  facet normal 0.770513 -0.637425 0
    outer loop
      vertex -48.541 35.2671 16
      vertex -43.7381 41.0728 0
      vertex -43.7381 41.0728 16
    endloop
  endfacet
  facet normal 0.770513 -0.637425 0
    outer loop
      vertex -43.7381 41.0728 0
      vertex -48.541 35.2671 16
      vertex -48.541 35.2671 0
    endloop
  endfacet
  facet normal 0.481752 -0.876308 0
    outer loop
      vertex -32.1496 50.6597 0
      vertex -25.5468 54.2896 16
      vertex -32.1496 50.6597 16
    endloop
  endfacet
  facet normal 0.481752 -0.876308 0
    outer loop
      vertex -25.5468 54.2896 16
      vertex -32.1496 50.6597 0
      vertex -25.5468 54.2896 0
    endloop
  endfacet
  facet normal 0.587789 -0.809014 0
    outer loop
      vertex -38.2454 46.2308 0
      vertex -32.1496 50.6597 16
      vertex -38.2454 46.2308 16
    endloop
  endfacet
  facet normal 0.587789 -0.809014 0
    outer loop
      vertex -32.1496 50.6597 16
      vertex -38.2454 46.2308 0
      vertex -32.1496 50.6597 0
    endloop
  endfacet
  facet normal -0.998027 -0.0627882 0
    outer loop
      vertex 60 0 0
      vertex 59.5269 7.51999 16
      vertex 59.5269 7.51999 0
    endloop
  endfacet
  facet normal -0.998027 -0.0627882 0
    outer loop
      vertex 59.5269 7.51999 16
      vertex 60 0 0
      vertex 60 0 16
    endloop
  endfacet
  facet normal -0.587789 0.809014 0
    outer loop
      vertex 38.2454 -46.2308 0
      vertex 32.1496 -50.6597 16
      vertex 38.2454 -46.2308 16
    endloop
  endfacet
  facet normal -0.587789 0.809014 0
    outer loop
      vertex 32.1496 -50.6597 16
      vertex 38.2454 -46.2308 0
      vertex 32.1496 -50.6597 0
    endloop
  endfacet
  facet normal -0.844327 0.535828 0
    outer loop
      vertex 48.541 -35.2671 0
      vertex 52.5784 -28.9052 16
      vertex 52.5784 -28.9052 0
    endloop
  endfacet
  facet normal -0.844327 0.535828 0
    outer loop
      vertex 52.5784 -28.9052 16
      vertex 48.541 -35.2671 0
      vertex 48.541 -35.2671 16
    endloop
  endfacet
  facet normal 0.125337 0.992114 -0
    outer loop
      vertex -3.76743 -59.8816 0
      vertex -11.2429 -58.9372 16
      vertex -3.76743 -59.8816 16
    endloop
  endfacet
  facet normal 0.125337 0.992114 0
    outer loop
      vertex -11.2429 -58.9372 16
      vertex -3.76743 -59.8816 0
      vertex -11.2429 -58.9372 0
    endloop
  endfacet
  facet normal -0.684548 -0.728968 0
    outer loop
      vertex 38.2454 46.2308 0
      vertex 43.7381 41.0728 16
      vertex 38.2454 46.2308 16
    endloop
  endfacet
  facet normal -0.684548 -0.728968 -0
    outer loop
      vertex 43.7381 41.0728 16
      vertex 38.2454 46.2308 0
      vertex 43.7381 41.0728 0
    endloop
  endfacet
  facet normal 0 -1 0
    outer loop
      vertex -3.76743 59.8816 0
      vertex 3.76743 59.8816 16
      vertex -3.76743 59.8816 16
    endloop
  endfacet
  facet normal 0 -1 -0
    outer loop
      vertex 3.76743 59.8816 16
      vertex -3.76743 59.8816 0
      vertex 3.76743 59.8816 0
    endloop
  endfacet
  facet normal -0.481752 -0.876308 0
    outer loop
      vertex 25.5468 54.2896 0
      vertex 32.1496 50.6597 16
      vertex 25.5468 54.2896 16
    endloop
  endfacet
  facet normal -0.481752 -0.876308 -0
    outer loop
      vertex 32.1496 50.6597 16
      vertex 25.5468 54.2896 0
      vertex 32.1496 50.6597 0
    endloop
  endfacet
  facet normal 0.998027 -0.0627882 0
    outer loop
      vertex -60 0 16
      vertex -59.5269 7.51999 0
      vertex -59.5269 7.51999 16
    endloop
  endfacet
  facet normal 0.998027 -0.0627882 0
    outer loop
      vertex -59.5269 7.51999 0
      vertex -60 0 16
      vertex -60 0 0
    endloop
  endfacet
  facet normal 0.982287 -0.187382 0
    outer loop
      vertex -59.5269 7.51999 16
      vertex -58.115 14.9214 0
      vertex -58.115 14.9214 16
    endloop
  endfacet
  facet normal 0.982287 -0.187382 0
    outer loop
      vertex -58.115 14.9214 0
      vertex -59.5269 7.51999 16
      vertex -59.5269 7.51999 0
    endloop
  endfacet
  facet normal 0.844327 -0.535828 0
    outer loop
      vertex -52.5784 28.9052 16
      vertex -48.541 35.2671 0
      vertex -48.541 35.2671 16
    endloop
  endfacet
  facet normal 0.844327 -0.535828 0
    outer loop
      vertex -48.541 35.2671 0
      vertex -52.5784 28.9052 16
      vertex -52.5784 28.9052 0
    endloop
  endfacet
  facet normal 0.125337 -0.992114 0
    outer loop
      vertex -11.2429 58.9372 0
      vertex -3.76743 59.8816 16
      vertex -11.2429 58.9372 16
    endloop
  endfacet
  facet normal 0.125337 -0.992114 0
    outer loop
      vertex -3.76743 59.8816 16
      vertex -11.2429 58.9372 0
      vertex -3.76743 59.8816 0
    endloop
  endfacet
  facet normal 0.248686 -0.968584 0
    outer loop
      vertex -18.541 57.0634 0
      vertex -11.2429 58.9372 16
      vertex -18.541 57.0634 16
    endloop
  endfacet
  facet normal 0.248686 -0.968584 0
    outer loop
      vertex -11.2429 58.9372 16
      vertex -18.541 57.0634 0
      vertex -11.2429 58.9372 0
    endloop
  endfacet
  facet normal 0.684548 -0.728968 0
    outer loop
      vertex -43.7381 41.0728 0
      vertex -38.2454 46.2308 16
      vertex -43.7381 41.0728 16
    endloop
  endfacet
  facet normal 0.684548 -0.728968 0
    outer loop
      vertex -38.2454 46.2308 16
      vertex -43.7381 41.0728 0
      vertex -38.2454 46.2308 0
    endloop
  endfacet
  facet normal -0.982287 0.187382 0
    outer loop
      vertex 58.115 -14.9214 0
      vertex 59.5269 -7.51999 16
      vertex 59.5269 -7.51999 0
    endloop
  endfacet
  facet normal -0.982287 0.187382 0
    outer loop
      vertex 59.5269 -7.51999 16
      vertex 58.115 -14.9214 0
      vertex 58.115 -14.9214 16
    endloop
  endfacet
  facet normal 0.248686 0.968584 -0
    outer loop
      vertex -11.2429 -58.9372 0
      vertex -18.541 -57.0634 16
      vertex -11.2429 -58.9372 16
    endloop
  endfacet
  facet normal 0.248686 0.968584 0
    outer loop
      vertex -18.541 -57.0634 16
      vertex -11.2429 -58.9372 0
      vertex -18.541 -57.0634 0
    endloop
  endfacet
  facet normal -0.904825 -0.425783 0
    outer loop
      vertex 55.7866 22.0875 0
      vertex 52.5784 28.9052 16
      vertex 52.5784 28.9052 0
    endloop
  endfacet
  facet normal -0.904825 -0.425783 0
    outer loop
      vertex 52.5784 28.9052 16
      vertex 55.7866 22.0875 0
      vertex 55.7866 22.0875 16
    endloop
  endfacet
  facet normal -0.951057 -0.309016 0
    outer loop
      vertex 58.115 14.9214 0
      vertex 55.7866 22.0875 16
      vertex 55.7866 22.0875 0
    endloop
  endfacet
  facet normal -0.951057 -0.309016 0
    outer loop
      vertex 55.7866 22.0875 16
      vertex 58.115 14.9214 0
      vertex 58.115 14.9214 16
    endloop
  endfacet
  facet normal -0.982287 -0.187382 0
    outer loop
      vertex 59.5269 7.51999 0
      vertex 58.115 14.9214 16
      vertex 58.115 14.9214 0
    endloop
  endfacet
  facet normal -0.982287 -0.187382 0
    outer loop
      vertex 58.115 14.9214 16
      vertex 59.5269 7.51999 0
      vertex 59.5269 7.51999 16
    endloop
  endfacet
  facet normal -0.770513 -0.637425 0
    outer loop
      vertex 48.541 35.2671 0
      vertex 43.7381 41.0728 16
      vertex 43.7381 41.0728 0
    endloop
  endfacet
  facet normal -0.770513 -0.637425 0
    outer loop
      vertex 43.7381 41.0728 16
      vertex 48.541 35.2671 0
      vertex 48.541 35.2671 16
    endloop
  endfacet
  facet normal -0.125337 -0.992114 0
    outer loop
      vertex 3.76743 59.8816 0
      vertex 11.2429 58.9372 16
      vertex 3.76743 59.8816 16
    endloop
  endfacet
  facet normal -0.125337 -0.992114 -0
    outer loop
      vertex 11.2429 58.9372 16
      vertex 3.76743 59.8816 0
      vertex 11.2429 58.9372 0
    endloop
  endfacet
  facet normal -0.951057 0.309016 0
    outer loop
      vertex 55.7866 -22.0875 0
      vertex 58.115 -14.9214 16
      vertex 58.115 -14.9214 0
    endloop
  endfacet
  facet normal -0.951057 0.309016 0
    outer loop
      vertex 58.115 -14.9214 16
      vertex 55.7866 -22.0875 0
      vertex 55.7866 -22.0875 16
    endloop
  endfacet
  facet normal -0.904825 0.425783 0
    outer loop
      vertex 52.5784 -28.9052 0
      vertex 55.7866 -22.0875 16
      vertex 55.7866 -22.0875 0
    endloop
  endfacet
  facet normal -0.904825 0.425783 0
    outer loop
      vertex 55.7866 -22.0875 16
      vertex 52.5784 -28.9052 0
      vertex 52.5784 -28.9052 16
    endloop
  endfacet
  facet normal 0.998027 0.0627882 0
    outer loop
      vertex -59.5269 -7.51999 16
      vertex -60 0 0
      vertex -60 0 16
    endloop
  endfacet
  facet normal 0.998027 0.0627882 0
    outer loop
      vertex -60 0 0
      vertex -59.5269 -7.51999 16
      vertex -59.5269 -7.51999 0
    endloop
  endfacet
  facet normal 0.951057 0.309016 0
    outer loop
      vertex -55.7866 -22.0875 16
      vertex -58.115 -14.9214 0
      vertex -58.115 -14.9214 16
    endloop
  endfacet
  facet normal 0.951057 0.309016 0
    outer loop
      vertex -58.115 -14.9214 0
      vertex -55.7866 -22.0875 16
      vertex -55.7866 -22.0875 0
    endloop
  endfacet
  facet normal 0.770513 0.637425 0
    outer loop
      vertex -43.7381 -41.0728 16
      vertex -48.541 -35.2671 0
      vertex -48.541 -35.2671 16
    endloop
  endfacet
  facet normal 0.770513 0.637425 0
    outer loop
      vertex -48.541 -35.2671 0
      vertex -43.7381 -41.0728 16
      vertex -43.7381 -41.0728 0
    endloop
  endfacet
  facet normal -0.125337 0.992114 0
    outer loop
      vertex 11.2429 -58.9372 0
      vertex 3.76743 -59.8816 16
      vertex 11.2429 -58.9372 16
    endloop
  endfacet
  facet normal -0.125337 0.992114 0
    outer loop
      vertex 3.76743 -59.8816 16
      vertex 11.2429 -58.9372 0
      vertex 3.76743 -59.8816 0
    endloop
  endfacet
  facet normal -0.368125 0.929776 0
    outer loop
      vertex 25.5468 -54.2896 0
      vertex 18.541 -57.0634 16
      vertex 25.5468 -54.2896 16
    endloop
  endfacet
  facet normal -0.368125 0.929776 0
    outer loop
      vertex 18.541 -57.0634 16
      vertex 25.5468 -54.2896 0
      vertex 18.541 -57.0634 0
    endloop
  endfacet
  facet normal -0.248686 0.968584 0
    outer loop
      vertex 18.541 -57.0634 0
      vertex 11.2429 -58.9372 16
      vertex 18.541 -57.0634 16
    endloop
  endfacet
  facet normal -0.248686 0.968584 0
    outer loop
      vertex 11.2429 -58.9372 16
      vertex 18.541 -57.0634 0
      vertex 11.2429 -58.9372 0
    endloop
  endfacet
  facet normal -0.684548 0.728968 0
    outer loop
      vertex 43.7381 -41.0728 0
      vertex 38.2454 -46.2308 16
      vertex 43.7381 -41.0728 16
    endloop
  endfacet
  facet normal -0.684548 0.728968 0
    outer loop
      vertex 38.2454 -46.2308 16
      vertex 43.7381 -41.0728 0
      vertex 38.2454 -46.2308 0
    endloop
  endfacet
  facet normal -0.770513 0.637425 0
    outer loop
      vertex 43.7381 -41.0728 0
      vertex 48.541 -35.2671 16
      vertex 48.541 -35.2671 0
    endloop
  endfacet
  facet normal -0.770513 0.637425 0
    outer loop
      vertex 48.541 -35.2671 16
      vertex 43.7381 -41.0728 0
      vertex 43.7381 -41.0728 16
    endloop
  endfacet
  facet normal 0.684548 0.728968 -0
    outer loop
      vertex -38.2454 -46.2308 0
      vertex -43.7381 -41.0728 16
      vertex -38.2454 -46.2308 16
    endloop
  endfacet
  facet normal 0.684548 0.728968 0
    outer loop
      vertex -43.7381 -41.0728 16
      vertex -38.2454 -46.2308 0
      vertex -43.7381 -41.0728 0
    endloop
  endfacet
  facet normal 0 1 -0
    outer loop
      vertex 3.76743 -59.8816 0
      vertex -3.76743 -59.8816 16
      vertex 3.76743 -59.8816 16
    endloop
  endfacet
  facet normal 0 1 0
    outer loop
      vertex -3.76743 -59.8816 16
      vertex 3.76743 -59.8816 0
      vertex -3.76743 -59.8816 0
    endloop
  endfacet
  facet normal 0.587789 0.809014 -0
    outer loop
      vertex -32.1496 -50.6597 0
      vertex -38.2454 -46.2308 16
      vertex -32.1496 -50.6597 16
    endloop
  endfacet
  facet normal 0.587789 0.809014 0
    outer loop
      vertex -38.2454 -46.2308 16
      vertex -32.1496 -50.6597 0
      vertex -38.2454 -46.2308 0
    endloop
  endfacet
  facet normal 0.481752 0.876308 -0
    outer loop
      vertex -25.5468 -54.2896 0
      vertex -32.1496 -50.6597 16
      vertex -25.5468 -54.2896 16
    endloop
  endfacet
  facet normal 0.481752 0.876308 0
    outer loop
      vertex -32.1496 -50.6597 16
      vertex -25.5468 -54.2896 0
      vertex -32.1496 -50.6597 0
    endloop
  endfacet
  facet normal 0.982287 0.187382 0
    outer loop
      vertex -58.115 -14.9214 16
      vertex -59.5269 -7.51999 0
      vertex -59.5269 -7.51999 16
    endloop
  endfacet
  facet normal 0.982287 0.187382 0
    outer loop
      vertex -59.5269 -7.51999 0
      vertex -58.115 -14.9214 16
      vertex -58.115 -14.9214 0
    endloop
  endfacet
  facet normal 0.844327 0.535828 0
    outer loop
      vertex -48.541 -35.2671 16
      vertex -52.5784 -28.9052 0
      vertex -52.5784 -28.9052 16
    endloop
  endfacet
  facet normal 0.844327 0.535828 0
    outer loop
      vertex -52.5784 -28.9052 0
      vertex -48.541 -35.2671 16
      vertex -48.541 -35.2671 0
    endloop
  endfacet
  facet normal 0.904825 0.425783 0
    outer loop
      vertex -52.5784 -28.9052 16
      vertex -55.7866 -22.0875 0
      vertex -55.7866 -22.0875 16
    endloop
  endfacet
  facet normal 0.904825 0.425783 0
    outer loop
      vertex -55.7866 -22.0875 0
      vertex -52.5784 -28.9052 16
      vertex -52.5784 -28.9052 0
    endloop
  endfacet
  facet normal 0.368125 0.929776 -0
    outer loop
      vertex -18.541 -57.0634 0
      vertex -25.5468 -54.2896 16
      vertex -18.541 -57.0634 16
    endloop
  endfacet
  facet normal 0.368125 0.929776 0
    outer loop
      vertex -25.5468 -54.2896 16
      vertex -18.541 -57.0634 0
      vertex -25.5468 -54.2896 0
    endloop
  endfacet
endsolid OpenSCAD_Model
