<?xml version="1.0" standalone="no"?>
<!DOCTYPE svg PUBLIC "-//W3C//DTD SVG 1.1//EN" "http://www.w3.org/Graphics/SVG/1.1/DTD/svg11.dtd">
<svg width="136mm" height="88mm" viewBox="-68 -176 136 88" xmlns="http://www.w3.org/2000/svg" version="1.1">
<title>OpenSCAD Model</title>
<path d="
M 63.4369,-160.589 L 64.0451,-160.745 L 64.6289,-160.976 L 65.1791,-161.278 L 65.6871,-161.647 L 66.1448,-162.077
 L 66.5451,-162.561 L 66.8815,-163.091 L 67.1489,-163.659 L 67.3429,-164.257 L 67.4606,-164.873 L 67.5,-165.5
 L 67.5,-170.5 L 67.4606,-171.127 L 67.3429,-171.743 L 67.1489,-172.341 L 66.8815,-172.909 L 66.5451,-173.439
 L 66.1448,-173.923 L 65.6871,-174.353 L 65.1791,-174.722 L 64.6289,-175.024 L 64.0451,-175.255 L 63.4369,-175.411
 L 62.8139,-175.49 L -62.8139,-175.49 L -63.4369,-175.411 L -64.0451,-175.255 L -64.6289,-175.024 L -65.1791,-174.722
 L -65.6871,-174.353 L -65.9,-174.153 L -67.5,-174.153 L -67.5,-161.847 L -65.9,-161.847 L -65.6871,-161.647
 L -65.1791,-161.278 L -64.6289,-160.976 L -64.0451,-160.745 L -63.4369,-160.589 L -62.8139,-160.51 L 62.8139,-160.51
 z
M -62.2512,-162.008 L -62.7495,-162.071 L -63.2361,-162.196 L -63.7031,-162.381 L -64.1433,-162.623 L -64.5497,-162.918
 L -64.9159,-163.262 L -65.2361,-163.649 L -65.5052,-164.073 L -65.7191,-164.528 L -65.8743,-165.005 L -65.9685,-165.499
 L -66,-166 L -66,-170 L -65.9685,-170.501 L -65.8743,-170.995 L -65.7191,-171.472 L -65.5052,-171.927
 L -65.2361,-172.351 L -64.9159,-172.738 L -64.5497,-173.082 L -64.1433,-173.377 L -63.7031,-173.619 L -63.2361,-173.804
 L -62.7495,-173.929 L -62.2512,-173.992 L 62.2512,-173.992 L 62.7495,-173.929 L 63.2361,-173.804 L 63.7031,-173.619
 L 64.1433,-173.377 L 64.5497,-173.082 L 64.9159,-172.738 L 65.2361,-172.351 L 65.5052,-171.927 L 65.7191,-171.472
 L 65.8743,-170.995 L 65.9685,-170.501 L 66,-170 L 66,-166 L 65.9685,-165.499 L 65.8743,-165.005
 L 65.7191,-164.528 L 65.5052,-164.073 L 65.2361,-163.649 L 64.9159,-163.262 L 64.5497,-162.918 L 64.1433,-162.623
 L 63.7031,-162.381 L 63.2361,-162.196 L 62.7495,-162.071 L 62.2512,-162.008 z
M 63.4369,-136.589 L 64.0451,-136.745 L 64.6289,-136.976 L 65.1791,-137.278 L 65.6871,-137.647 L 66.1448,-138.077
 L 66.5451,-138.561 L 66.8815,-139.091 L 67.1489,-139.659 L 67.3429,-140.257 L 67.4606,-140.873 L 67.5,-141.5
 L 67.5,-146.5 L 67.4606,-147.127 L 67.3429,-147.743 L 67.1489,-148.341 L 66.8815,-148.909 L 66.5451,-149.439
 L 66.1448,-149.923 L 65.6871,-150.353 L 65.1791,-150.722 L 64.6289,-151.024 L 64.0451,-151.255 L 63.4369,-151.411
 L 62.8139,-151.49 L -62.8139,-151.49 L -63.4369,-151.411 L -64.0451,-151.255 L -64.6289,-151.024 L -65.1791,-150.722
 L -65.6871,-150.353 L -66.1448,-149.923 L -66.5451,-149.439 L -66.8815,-148.909 L -67.1489,-148.341 L -67.3429,-147.743
 L -67.4606,-147.127 L -67.5,-146.5 L -67.5,-141.5 L -67.4606,-140.873 L -67.3429,-140.257 L -67.1489,-139.659
 L -66.8815,-139.091 L -66.5451,-138.561 L -66.1448,-138.077 L -65.6871,-137.647 L -65.1791,-137.278 L -64.6289,-136.976
 L -64.0451,-136.745 L -63.4369,-136.589 L -62.8139,-136.51 L 62.8139,-136.51 z
M -62.2512,-138.008 L -62.7495,-138.071 L -63.2361,-138.196 L -63.7031,-138.381 L -64.1433,-138.623 L -64.5497,-138.918
 L -64.9159,-139.262 L -65.2361,-139.649 L -65.5052,-140.073 L -65.7191,-140.528 L -65.8743,-141.005 L -65.9685,-141.499
 L -66,-142 L -66,-146 L -65.9685,-146.501 L -65.8743,-146.995 L -65.7191,-147.472 L -65.5052,-147.927
 L -65.2361,-148.351 L -64.9159,-148.738 L -64.5497,-149.082 L -64.1433,-149.377 L -63.7031,-149.619 L -63.2361,-149.804
 L -62.7495,-149.929 L -62.2512,-149.992 L 62.2512,-149.992 L 62.7495,-149.929 L 63.2361,-149.804 L 63.7031,-149.619
 L 64.1433,-149.377 L 64.5497,-149.082 L 64.9159,-148.738 L 65.2361,-148.351 L 65.5052,-147.927 L 65.7191,-147.472
 L 65.8743,-146.995 L 65.9685,-146.501 L 66,-146 L 66,-142 L 65.9685,-141.499 L 65.8743,-141.005
 L 65.7191,-140.528 L 65.5052,-140.073 L 65.2361,-139.649 L 64.9159,-139.262 L 64.5497,-138.918 L 64.1433,-138.623
 L 63.7031,-138.381 L 63.2361,-138.196 L 62.7495,-138.071 L 62.2512,-138.008 z
M 63.4369,-112.589 L 64.0451,-112.745 L 64.6289,-112.976 L 65.1791,-113.278 L 65.6871,-113.647 L 66.1448,-114.077
 L 66.5451,-114.561 L 66.8815,-115.091 L 67.1489,-115.659 L 67.3429,-116.257 L 67.4606,-116.873 L 67.5,-117.5
 L 67.5,-122.5 L 67.4606,-123.127 L 67.3429,-123.743 L 67.1489,-124.341 L 66.8815,-124.909 L 66.5451,-125.439
 L 66.1448,-125.923 L 65.6871,-126.353 L 65.1791,-126.722 L 64.6289,-127.024 L 64.0451,-127.255 L 63.4369,-127.411
 L 62.8139,-127.49 L -62.8139,-127.49 L -63.4369,-127.411 L -64.0451,-127.255 L -64.6289,-127.024 L -65.1791,-126.722
 L -65.6871,-126.353 L -66.1448,-125.923 L -66.5451,-125.439 L -66.8815,-124.909 L -67.1489,-124.341 L -67.3429,-123.743
 L -67.4606,-123.127 L -67.5,-122.5 L -67.5,-117.5 L -67.4606,-116.873 L -67.3429,-116.257 L -67.1489,-115.659
 L -66.8815,-115.091 L -66.5451,-114.561 L -66.1448,-114.077 L -65.6871,-113.647 L -65.1791,-113.278 L -64.6289,-112.976
 L -64.0451,-112.745 L -63.4369,-112.589 L -62.8139,-112.51 L 62.8139,-112.51 z
M -62.1954,-114.893 L -62.5833,-114.942 L -62.9619,-115.039 L -63.3254,-115.183 L -63.668,-115.372 L -63.9842,-115.601
 L -64.2692,-115.869 L -64.5184,-116.17 L -64.7279,-116.5 L -64.8943,-116.854 L -65.0151,-117.226 L -65.0884,-117.61
 L -65.1129,-118 L -65.1129,-122 L -65.0884,-122.39 L -65.0151,-122.774 L -64.8943,-123.146 L -64.7279,-123.5
 L -64.5184,-123.83 L -64.2692,-124.131 L -63.9842,-124.399 L -63.668,-124.628 L -63.3254,-124.817 L -62.9619,-124.961
 L -62.5833,-125.058 L -62.1954,-125.107 L 62.1954,-125.107 L 62.5833,-125.058 L 62.9619,-124.961 L 63.3254,-124.817
 L 63.668,-124.628 L 63.9842,-124.399 L 64.2692,-124.131 L 64.5184,-123.83 L 64.7279,-123.5 L 64.8943,-123.146
 L 65.0151,-122.774 L 65.0884,-122.39 L 65.1129,-122 L 65.1129,-118 L 65.0884,-117.61 L 65.0151,-117.226
 L 64.8943,-116.854 L 64.7279,-116.5 L 64.5184,-116.17 L 64.2692,-115.869 L 63.9842,-115.601 L 63.668,-115.372
 L 63.3254,-115.183 L 62.9619,-115.039 L 62.5833,-114.942 L 62.1954,-114.893 z
M 63.4369,-88.5886 L 64.0451,-88.7447 L 64.6289,-88.9759 L 65.1791,-89.2784 L 65.6871,-89.6474 L 66.1448,-90.0773
 L 66.5451,-90.5611 L 66.8815,-91.0912 L 67.1489,-91.6594 L 67.3429,-92.2566 L 67.4606,-92.8733 L 67.5,-93.5
 L 67.5,-98.5 L 67.4606,-99.1267 L 67.3429,-99.7434 L 67.1489,-100.341 L 66.8815,-100.909 L 66.5451,-101.439
 L 66.1448,-101.923 L 65.6871,-102.353 L 65.1791,-102.722 L 64.6289,-103.024 L 64.0451,-103.255 L 63.4369,-103.411
 L 62.8139,-103.49 L -62.8139,-103.49 L -63.4369,-103.411 L -64.0451,-103.255 L -64.6289,-103.024 L -65.1791,-102.722
 L -65.6871,-102.353 L -66.1448,-101.923 L -66.5451,-101.439 L -66.8815,-100.909 L -67.1489,-100.341 L -67.3429,-99.7434
 L -67.4606,-99.1267 L -67.5,-98.5 L -67.5,-93.5 L -67.4606,-92.8733 L -67.3429,-92.2566 L -67.1489,-91.6594
 L -66.8815,-91.0912 L -66.5451,-90.5611 L -66.1448,-90.0773 L -65.6871,-89.6474 L -65.1791,-89.2784 L -64.6289,-88.9759
 L -64.0451,-88.7447 L -63.4369,-88.5886 L -62.8139,-88.5099 L 62.8139,-88.5099 z
M 59.8659,-93.8689 L 59.5999,-93.9025 L 59.3401,-93.9692 L 59.0908,-94.0679 L 58.8559,-94.1971 L 58.6389,-94.3547
 L 58.4434,-94.5383 L 58.2725,-94.7449 L 58.1288,-94.9713 L 58.0146,-95.214 L 57.9318,-95.469 L 57.8815,-95.7324
 L 57.8647,-96 L 57.8815,-96.2676 L 57.9318,-96.531 L 58.0146,-96.786 L 58.1288,-97.0287 L 58.2725,-97.2551
 L 58.4434,-97.4617 L 58.6389,-97.6453 L 58.8559,-97.8029 L 59.0908,-97.9321 L 59.3401,-98.0308 L 59.5999,-98.0975
 L 59.8659,-98.1311 L 60.1341,-98.1311 L 60.4001,-98.0975 L 60.6598,-98.0308 L 60.9092,-97.9321 L 61.1441,-97.8029
 L 61.3611,-97.6453 L 61.5565,-97.4617 L 61.7275,-97.2551 L 61.8712,-97.0287 L 61.9853,-96.786 L 62.0682,-96.531
 L 62.1185,-96.2676 L 62.1353,-96 L 62.1185,-95.7324 L 62.0682,-95.469 L 61.9853,-95.214 L 61.8712,-94.9713
 L 61.7275,-94.7449 L 61.5565,-94.5383 L 61.3611,-94.3547 L 61.1441,-94.1971 L 60.9092,-94.0679 L 60.6598,-93.9692
 L 60.4001,-93.9025 L 60.1341,-93.8689 z
M -60.1341,-93.8689 L -60.4001,-93.9025 L -60.6598,-93.9692 L -60.9092,-94.0679 L -61.1441,-94.1971 L -61.3611,-94.3547
 L -61.5565,-94.5383 L -61.7275,-94.7449 L -61.8712,-94.9713 L -61.9853,-95.214 L -62.0682,-95.469 L -62.1185,-95.7324
 L -62.1353,-96 L -62.1185,-96.2676 L -62.0682,-96.531 L -61.9853,-96.786 L -61.8712,-97.0287 L -61.7275,-97.2551
 L -61.5565,-97.4617 L -61.3611,-97.6453 L -61.1441,-97.8029 L -60.9092,-97.9321 L -60.6598,-98.0308 L -60.4001,-98.0975
 L -60.1341,-98.1311 L -59.8659,-98.1311 L -59.5999,-98.0975 L -59.3401,-98.0308 L -59.0908,-97.9321 L -58.8559,-97.8029
 L -58.6389,-97.6453 L -58.4434,-97.4617 L -58.2725,-97.2551 L -58.1288,-97.0287 L -58.0146,-96.786 L -57.9318,-96.531
 L -57.8815,-96.2676 L -57.8647,-96 L -57.8815,-95.7324 L -57.9318,-95.469 L -58.0146,-95.214 L -58.1288,-94.9713
 L -58.2725,-94.7449 L -58.4434,-94.5383 L -58.6389,-94.3547 L -58.8559,-94.1971 L -59.0908,-94.0679 L -59.3401,-93.9692
 L -59.5999,-93.9025 L -59.8659,-93.8689 z
" stroke="black" fill="lightgray" stroke-width="0.5"/>
</svg>
