  0
SECTION
  2
BLOCKS
  0
ENDSEC
  0
SECTION
  2
ENTITIES
  0
LINE
  8
0
 10
85.9369
 20
1611.09
 11
86.5451
 21
1611.24
  0
LINE
  8
0
 10
86.5451
 20
1611.24
 11
87.1289
 21
1611.48
  0
LINE
  8
0
 10
87.1289
 20
1611.48
 11
87.6791
 21
1611.78
  0
LINE
  8
0
 10
87.6791
 20
1611.78
 11
88.1871
 21
1612.15
  0
LINE
  8
0
 10
88.1871
 20
1612.15
 11
88.6448
 21
1612.58
  0
LINE
  8
0
 10
88.6448
 20
1612.58
 11
89.0451
 21
1613.06
  0
LINE
  8
0
 10
89.0451
 20
1613.06
 11
89.3815
 21
1613.59
  0
LINE
  8
0
 10
89.3815
 20
1613.59
 11
89.6489
 21
1614.16
  0
LINE
  8
0
 10
89.6489
 20
1614.16
 11
89.8429
 21
1614.76
  0
LINE
  8
0
 10
89.8429
 20
1614.76
 11
89.9606
 21
1615.37
  0
LINE
  8
0
 10
89.9606
 20
1615.37
 11
90
 21
1616
  0
LINE
  8
0
 10
90
 20
1616
 11
90
 21
1786
  0
LINE
  8
0
 10
90
 20
1786
 11
89.9606
 21
1786.63
  0
LINE
  8
0
 10
89.9606
 20
1786.63
 11
89.8429
 21
1787.24
  0
LINE
  8
0
 10
89.8429
 20
1787.24
 11
89.6489
 21
1787.84
  0
LINE
  8
0
 10
89.6489
 20
1787.84
 11
89.3815
 21
1788.41
  0
LINE
  8
0
 10
89.3815
 20
1788.41
 11
89.0451
 21
1788.94
  0
LINE
  8
0
 10
89.0451
 20
1788.94
 11
88.6448
 21
1789.42
  0
LINE
  8
0
 10
88.6448
 20
1789.42
 11
88.1871
 21
1789.85
  0
LINE
  8
0
 10
88.1871
 20
1789.85
 11
87.6791
 21
1790.22
  0
LINE
  8
0
 10
87.6791
 20
1790.22
 11
87.1289
 21
1790.52
  0
LINE
  8
0
 10
87.1289
 20
1790.52
 11
86.5451
 21
1790.76
  0
LINE
  8
0
 10
86.5451
 20
1790.76
 11
85.9369
 21
1790.91
  0
LINE
  8
0
 10
85.9369
 20
1790.91
 11
85.3139
 21
1790.99
  0
LINE
  8
0
 10
85.3139
 20
1790.99
 11
-85.3139
 21
1790.99
  0
LINE
  8
0
 10
-85.3139
 20
1790.99
 11
-85.9369
 21
1790.91
  0
LINE
  8
0
 10
-85.9369
 20
1790.91
 11
-86.5451
 21
1790.76
  0
LINE
  8
0
 10
-86.5451
 20
1790.76
 11
-87.1289
 21
1790.52
  0
LINE
  8
0
 10
-87.1289
 20
1790.52
 11
-87.6791
 21
1790.22
  0
LINE
  8
0
 10
-87.6791
 20
1790.22
 11
-88.1871
 21
1789.85
  0
LINE
  8
0
 10
-88.1871
 20
1789.85
 11
-88.6448
 21
1789.42
  0
LINE
  8
0
 10
-88.6448
 20
1789.42
 11
-89.0451
 21
1788.94
  0
LINE
  8
0
 10
-89.0451
 20
1788.94
 11
-89.3815
 21
1788.41
  0
LINE
  8
0
 10
-89.3815
 20
1788.41
 11
-89.6489
 21
1787.84
  0
LINE
  8
0
 10
-89.6489
 20
1787.84
 11
-89.8429
 21
1787.24
  0
LINE
  8
0
 10
-89.8429
 20
1787.24
 11
-89.9606
 21
1786.63
  0
LINE
  8
0
 10
-89.9606
 20
1786.63
 11
-90
 21
1786
  0
LINE
  8
0
 10
-90
 20
1786
 11
-90
 21
1616
  0
LINE
  8
0
 10
-90
 20
1616
 11
-89.9606
 21
1615.37
  0
LINE
  8
0
 10
-89.9606
 20
1615.37
 11
-89.8429
 21
1614.76
  0
LINE
  8
0
 10
-89.8429
 20
1614.76
 11
-89.6489
 21
1614.16
  0
LINE
  8
0
 10
-89.6489
 20
1614.16
 11
-89.3815
 21
1613.59
  0
LINE
  8
0
 10
-89.3815
 20
1613.59
 11
-89.0451
 21
1613.06
  0
LINE
  8
0
 10
-89.0451
 20
1613.06
 11
-88.6448
 21
1612.58
  0
LINE
  8
0
 10
-88.6448
 20
1612.58
 11
-88.1871
 21
1612.15
  0
LINE
  8
0
 10
-88.1871
 20
1612.15
 11
-87.6791
 21
1611.78
  0
LINE
  8
0
 10
-87.6791
 20
1611.78
 11
-87.1289
 21
1611.48
  0
LINE
  8
0
 10
-87.1289
 20
1611.48
 11
-86.5451
 21
1611.24
  0
LINE
  8
0
 10
-86.5451
 20
1611.24
 11
-85.9369
 21
1611.09
  0
LINE
  8
0
 10
-85.9369
 20
1611.09
 11
-85.3139
 21
1611.01
  0
LINE
  8
0
 10
-85.3139
 20
1611.01
 11
85.3139
 21
1611.01
  0
LINE
  8
0
 10
85.3139
 20
1611.01
 11
85.9369
 21
1611.09
  0
LINE
  8
0
 10
-84.7512
 20
1612.51
 11
-85.2495
 21
1612.57
  0
LINE
  8
0
 10
-85.2495
 20
1612.57
 11
-85.7361
 21
1612.7
  0
LINE
  8
0
 10
-85.7361
 20
1612.7
 11
-86.2031
 21
1612.88
  0
LINE
  8
0
 10
-86.2031
 20
1612.88
 11
-86.6433
 21
1613.12
  0
LINE
  8
0
 10
-86.6433
 20
1613.12
 11
-87.0497
 21
1613.42
  0
LINE
  8
0
 10
-87.0497
 20
1613.42
 11
-87.4159
 21
1613.76
  0
LINE
  8
0
 10
-87.4159
 20
1613.76
 11
-87.7361
 21
1614.15
  0
LINE
  8
0
 10
-87.7361
 20
1614.15
 11
-88.0052
 21
1614.57
  0
LINE
  8
0
 10
-88.0052
 20
1614.57
 11
-88.2191
 21
1615.03
  0
LINE
  8
0
 10
-88.2191
 20
1615.03
 11
-88.3743
 21
1615.51
  0
LINE
  8
0
 10
-88.3743
 20
1615.51
 11
-88.4685
 21
1616
  0
LINE
  8
0
 10
-88.4685
 20
1616
 11
-88.5
 21
1616.5
  0
LINE
  8
0
 10
-88.5
 20
1616.5
 11
-88.5
 21
1785.5
  0
LINE
  8
0
 10
-88.5
 20
1785.5
 11
-88.4685
 21
1786
  0
LINE
  8
0
 10
-88.4685
 20
1786
 11
-88.3743
 21
1786.49
  0
LINE
  8
0
 10
-88.3743
 20
1786.49
 11
-88.2191
 21
1786.97
  0
LINE
  8
0
 10
-88.2191
 20
1786.97
 11
-88.0052
 21
1787.43
  0
LINE
  8
0
 10
-88.0052
 20
1787.43
 11
-87.7361
 21
1787.85
  0
LINE
  8
0
 10
-87.7361
 20
1787.85
 11
-87.4159
 21
1788.24
  0
LINE
  8
0
 10
-87.4159
 20
1788.24
 11
-87.0497
 21
1788.58
  0
LINE
  8
0
 10
-87.0497
 20
1788.58
 11
-86.6433
 21
1788.88
  0
LINE
  8
0
 10
-86.6433
 20
1788.88
 11
-86.2031
 21
1789.12
  0
LINE
  8
0
 10
-86.2031
 20
1789.12
 11
-85.7361
 21
1789.3
  0
LINE
  8
0
 10
-85.7361
 20
1789.3
 11
-85.2495
 21
1789.43
  0
LINE
  8
0
 10
-85.2495
 20
1789.43
 11
-84.7512
 21
1789.49
  0
LINE
  8
0
 10
-84.7512
 20
1789.49
 11
84.7512
 21
1789.49
  0
LINE
  8
0
 10
84.7512
 20
1789.49
 11
85.2495
 21
1789.43
  0
LINE
  8
0
 10
85.2495
 20
1789.43
 11
85.7361
 21
1789.3
  0
LINE
  8
0
 10
85.7361
 20
1789.3
 11
86.2031
 21
1789.12
  0
LINE
  8
0
 10
86.2031
 20
1789.12
 11
86.6433
 21
1788.88
  0
LINE
  8
0
 10
86.6433
 20
1788.88
 11
87.0497
 21
1788.58
  0
LINE
  8
0
 10
87.0497
 20
1788.58
 11
87.4159
 21
1788.24
  0
LINE
  8
0
 10
87.4159
 20
1788.24
 11
87.7361
 21
1787.85
  0
LINE
  8
0
 10
87.7361
 20
1787.85
 11
88.0052
 21
1787.43
  0
LINE
  8
0
 10
88.0052
 20
1787.43
 11
88.2191
 21
1786.97
  0
LINE
  8
0
 10
88.2191
 20
1786.97
 11
88.3743
 21
1786.49
  0
LINE
  8
0
 10
88.3743
 20
1786.49
 11
88.4685
 21
1786
  0
LINE
  8
0
 10
88.4685
 20
1786
 11
88.5
 21
1785.5
  0
LINE
  8
0
 10
88.5
 20
1785.5
 11
88.5
 21
1616.5
  0
LINE
  8
0
 10
88.5
 20
1616.5
 11
88.4685
 21
1616
  0
LINE
  8
0
 10
88.4685
 20
1616
 11
88.3743
 21
1615.51
  0
LINE
  8
0
 10
88.3743
 20
1615.51
 11
88.2191
 21
1615.03
  0
LINE
  8
0
 10
88.2191
 20
1615.03
 11
88.0052
 21
1614.57
  0
LINE
  8
0
 10
88.0052
 20
1614.57
 11
87.7361
 21
1614.15
  0
LINE
  8
0
 10
87.7361
 20
1614.15
 11
87.4159
 21
1613.76
  0
LINE
  8
0
 10
87.4159
 20
1613.76
 11
87.0497
 21
1613.42
  0
LINE
  8
0
 10
87.0497
 20
1613.42
 11
86.6433
 21
1613.12
  0
LINE
  8
0
 10
86.6433
 20
1613.12
 11
86.2031
 21
1612.88
  0
LINE
  8
0
 10
86.2031
 20
1612.88
 11
85.7361
 21
1612.7
  0
LINE
  8
0
 10
85.7361
 20
1612.7
 11
85.2495
 21
1612.57
  0
LINE
  8
0
 10
85.2495
 20
1612.57
 11
84.7512
 21
1612.51
  0
LINE
  8
0
 10
84.7512
 20
1612.51
 11
-84.7512
 21
1612.51
  0
LINE
  8
0
 10
85.9369
 20
1422.09
 11
86.5451
 21
1422.24
  0
LINE
  8
0
 10
86.5451
 20
1422.24
 11
87.1289
 21
1422.48
  0
LINE
  8
0
 10
87.1289
 20
1422.48
 11
87.6791
 21
1422.78
  0
LINE
  8
0
 10
87.6791
 20
1422.78
 11
88.1871
 21
1423.15
  0
LINE
  8
0
 10
88.1871
 20
1423.15
 11
88.6448
 21
1423.58
  0
LINE
  8
0
 10
88.6448
 20
1423.58
 11
89.0451
 21
1424.06
  0
LINE
  8
0
 10
89.0451
 20
1424.06
 11
89.3815
 21
1424.59
  0
LINE
  8
0
 10
89.3815
 20
1424.59
 11
89.6489
 21
1425.16
  0
LINE
  8
0
 10
89.6489
 20
1425.16
 11
89.8429
 21
1425.76
  0
LINE
  8
0
 10
89.8429
 20
1425.76
 11
89.9606
 21
1426.37
  0
LINE
  8
0
 10
89.9606
 20
1426.37
 11
90
 21
1427
  0
LINE
  8
0
 10
90
 20
1427
 11
90
 21
1597
  0
LINE
  8
0
 10
90
 20
1597
 11
89.9606
 21
1597.63
  0
LINE
  8
0
 10
89.9606
 20
1597.63
 11
89.8429
 21
1598.24
  0
LINE
  8
0
 10
89.8429
 20
1598.24
 11
89.6489
 21
1598.84
  0
LINE
  8
0
 10
89.6489
 20
1598.84
 11
89.3815
 21
1599.41
  0
LINE
  8
0
 10
89.3815
 20
1599.41
 11
89.0451
 21
1599.94
  0
LINE
  8
0
 10
89.0451
 20
1599.94
 11
88.6448
 21
1600.42
  0
LINE
  8
0
 10
88.6448
 20
1600.42
 11
88.1871
 21
1600.85
  0
LINE
  8
0
 10
88.1871
 20
1600.85
 11
87.6791
 21
1601.22
  0
LINE
  8
0
 10
87.6791
 20
1601.22
 11
87.1289
 21
1601.52
  0
LINE
  8
0
 10
87.1289
 20
1601.52
 11
86.5451
 21
1601.76
  0
LINE
  8
0
 10
86.5451
 20
1601.76
 11
85.9369
 21
1601.91
  0
LINE
  8
0
 10
85.9369
 20
1601.91
 11
85.3139
 21
1601.99
  0
LINE
  8
0
 10
85.3139
 20
1601.99
 11
-85.3139
 21
1601.99
  0
LINE
  8
0
 10
-85.3139
 20
1601.99
 11
-85.9369
 21
1601.91
  0
LINE
  8
0
 10
-85.9369
 20
1601.91
 11
-86.5451
 21
1601.76
  0
LINE
  8
0
 10
-86.5451
 20
1601.76
 11
-87.1289
 21
1601.52
  0
LINE
  8
0
 10
-87.1289
 20
1601.52
 11
-87.6791
 21
1601.22
  0
LINE
  8
0
 10
-87.6791
 20
1601.22
 11
-88.1871
 21
1600.85
  0
LINE
  8
0
 10
-88.1871
 20
1600.85
 11
-88.6448
 21
1600.42
  0
LINE
  8
0
 10
-88.6448
 20
1600.42
 11
-89.0451
 21
1599.94
  0
LINE
  8
0
 10
-89.0451
 20
1599.94
 11
-89.3815
 21
1599.41
  0
LINE
  8
0
 10
-89.3815
 20
1599.41
 11
-89.6489
 21
1598.84
  0
LINE
  8
0
 10
-89.6489
 20
1598.84
 11
-89.8429
 21
1598.24
  0
LINE
  8
0
 10
-89.8429
 20
1598.24
 11
-89.9606
 21
1597.63
  0
LINE
  8
0
 10
-89.9606
 20
1597.63
 11
-90
 21
1597
  0
LINE
  8
0
 10
-90
 20
1597
 11
-90
 21
1427
  0
LINE
  8
0
 10
-90
 20
1427
 11
-89.9606
 21
1426.37
  0
LINE
  8
0
 10
-89.9606
 20
1426.37
 11
-89.8429
 21
1425.76
  0
LINE
  8
0
 10
-89.8429
 20
1425.76
 11
-89.6489
 21
1425.16
  0
LINE
  8
0
 10
-89.6489
 20
1425.16
 11
-89.3815
 21
1424.59
  0
LINE
  8
0
 10
-89.3815
 20
1424.59
 11
-89.0451
 21
1424.06
  0
LINE
  8
0
 10
-89.0451
 20
1424.06
 11
-88.6448
 21
1423.58
  0
LINE
  8
0
 10
-88.6448
 20
1423.58
 11
-88.1871
 21
1423.15
  0
LINE
  8
0
 10
-88.1871
 20
1423.15
 11
-87.6791
 21
1422.78
  0
LINE
  8
0
 10
-87.6791
 20
1422.78
 11
-87.1289
 21
1422.48
  0
LINE
  8
0
 10
-87.1289
 20
1422.48
 11
-86.5451
 21
1422.24
  0
LINE
  8
0
 10
-86.5451
 20
1422.24
 11
-85.9369
 21
1422.09
  0
LINE
  8
0
 10
-85.9369
 20
1422.09
 11
-85.3139
 21
1422.01
  0
LINE
  8
0
 10
-85.3139
 20
1422.01
 11
85.3139
 21
1422.01
  0
LINE
  8
0
 10
85.3139
 20
1422.01
 11
85.9369
 21
1422.09
  0
LINE
  8
0
 10
-84.7512
 20
1423.51
 11
-85.2495
 21
1423.57
  0
LINE
  8
0
 10
-85.2495
 20
1423.57
 11
-85.7361
 21
1423.7
  0
LINE
  8
0
 10
-85.7361
 20
1423.7
 11
-86.2031
 21
1423.88
  0
LINE
  8
0
 10
-86.2031
 20
1423.88
 11
-86.6433
 21
1424.12
  0
LINE
  8
0
 10
-86.6433
 20
1424.12
 11
-87.0497
 21
1424.42
  0
LINE
  8
0
 10
-87.0497
 20
1424.42
 11
-87.4159
 21
1424.76
  0
LINE
  8
0
 10
-87.4159
 20
1424.76
 11
-87.7361
 21
1425.15
  0
LINE
  8
0
 10
-87.7361
 20
1425.15
 11
-88.0052
 21
1425.57
  0
LINE
  8
0
 10
-88.0052
 20
1425.57
 11
-88.2191
 21
1426.03
  0
LINE
  8
0
 10
-88.2191
 20
1426.03
 11
-88.3743
 21
1426.51
  0
LINE
  8
0
 10
-88.3743
 20
1426.51
 11
-88.4685
 21
1427
  0
LINE
  8
0
 10
-88.4685
 20
1427
 11
-88.5
 21
1427.5
  0
LINE
  8
0
 10
-88.5
 20
1427.5
 11
-88.5
 21
1596.5
  0
LINE
  8
0
 10
-88.5
 20
1596.5
 11
-88.4685
 21
1597
  0
LINE
  8
0
 10
-88.4685
 20
1597
 11
-88.3743
 21
1597.49
  0
LINE
  8
0
 10
-88.3743
 20
1597.49
 11
-88.2191
 21
1597.97
  0
LINE
  8
0
 10
-88.2191
 20
1597.97
 11
-88.0052
 21
1598.43
  0
LINE
  8
0
 10
-88.0052
 20
1598.43
 11
-87.7361
 21
1598.85
  0
LINE
  8
0
 10
-87.7361
 20
1598.85
 11
-87.4159
 21
1599.24
  0
LINE
  8
0
 10
-87.4159
 20
1599.24
 11
-87.0497
 21
1599.58
  0
LINE
  8
0
 10
-87.0497
 20
1599.58
 11
-86.6433
 21
1599.88
  0
LINE
  8
0
 10
-86.6433
 20
1599.88
 11
-86.2031
 21
1600.12
  0
LINE
  8
0
 10
-86.2031
 20
1600.12
 11
-85.7361
 21
1600.3
  0
LINE
  8
0
 10
-85.7361
 20
1600.3
 11
-85.2495
 21
1600.43
  0
LINE
  8
0
 10
-85.2495
 20
1600.43
 11
-84.7512
 21
1600.49
  0
LINE
  8
0
 10
-84.7512
 20
1600.49
 11
84.7512
 21
1600.49
  0
LINE
  8
0
 10
84.7512
 20
1600.49
 11
85.2495
 21
1600.43
  0
LINE
  8
0
 10
85.2495
 20
1600.43
 11
85.7361
 21
1600.3
  0
LINE
  8
0
 10
85.7361
 20
1600.3
 11
86.2031
 21
1600.12
  0
LINE
  8
0
 10
86.2031
 20
1600.12
 11
86.6433
 21
1599.88
  0
LINE
  8
0
 10
86.6433
 20
1599.88
 11
87.0497
 21
1599.58
  0
LINE
  8
0
 10
87.0497
 20
1599.58
 11
87.4159
 21
1599.24
  0
LINE
  8
0
 10
87.4159
 20
1599.24
 11
87.7361
 21
1598.85
  0
LINE
  8
0
 10
87.7361
 20
1598.85
 11
88.0052
 21
1598.43
  0
LINE
  8
0
 10
88.0052
 20
1598.43
 11
88.2191
 21
1597.97
  0
LINE
  8
0
 10
88.2191
 20
1597.97
 11
88.3743
 21
1597.49
  0
LINE
  8
0
 10
88.3743
 20
1597.49
 11
88.4685
 21
1597
  0
LINE
  8
0
 10
88.4685
 20
1597
 11
88.5
 21
1596.5
  0
LINE
  8
0
 10
88.5
 20
1596.5
 11
88.5
 21
1427.5
  0
LINE
  8
0
 10
88.5
 20
1427.5
 11
88.4685
 21
1427
  0
LINE
  8
0
 10
88.4685
 20
1427
 11
88.3743
 21
1426.51
  0
LINE
  8
0
 10
88.3743
 20
1426.51
 11
88.2191
 21
1426.03
  0
LINE
  8
0
 10
88.2191
 20
1426.03
 11
88.0052
 21
1425.57
  0
LINE
  8
0
 10
88.0052
 20
1425.57
 11
87.7361
 21
1425.15
  0
LINE
  8
0
 10
87.7361
 20
1425.15
 11
87.4159
 21
1424.76
  0
LINE
  8
0
 10
87.4159
 20
1424.76
 11
87.0497
 21
1424.42
  0
LINE
  8
0
 10
87.0497
 20
1424.42
 11
86.6433
 21
1424.12
  0
LINE
  8
0
 10
86.6433
 20
1424.12
 11
86.2031
 21
1423.88
  0
LINE
  8
0
 10
86.2031
 20
1423.88
 11
85.7361
 21
1423.7
  0
LINE
  8
0
 10
85.7361
 20
1423.7
 11
85.2495
 21
1423.57
  0
LINE
  8
0
 10
85.2495
 20
1423.57
 11
84.7512
 21
1423.51
  0
LINE
  8
0
 10
84.7512
 20
1423.51
 11
-84.7512
 21
1423.51
  0
LINE
  8
0
 10
85.9369
 20
1233.09
 11
86.5451
 21
1233.24
  0
LINE
  8
0
 10
86.5451
 20
1233.24
 11
87.1289
 21
1233.48
  0
LINE
  8
0
 10
87.1289
 20
1233.48
 11
87.6791
 21
1233.78
  0
LINE
  8
0
 10
87.6791
 20
1233.78
 11
88.1871
 21
1234.15
  0
LINE
  8
0
 10
88.1871
 20
1234.15
 11
88.6448
 21
1234.58
  0
LINE
  8
0
 10
88.6448
 20
1234.58
 11
89.0451
 21
1235.06
  0
LINE
  8
0
 10
89.0451
 20
1235.06
 11
89.3815
 21
1235.59
  0
LINE
  8
0
 10
89.3815
 20
1235.59
 11
89.6489
 21
1236.16
  0
LINE
  8
0
 10
89.6489
 20
1236.16
 11
89.8429
 21
1236.76
  0
LINE
  8
0
 10
89.8429
 20
1236.76
 11
89.9606
 21
1237.37
  0
LINE
  8
0
 10
89.9606
 20
1237.37
 11
90
 21
1238
  0
LINE
  8
0
 10
90
 20
1238
 11
90
 21
1408
  0
LINE
  8
0
 10
90
 20
1408
 11
89.9606
 21
1408.63
  0
LINE
  8
0
 10
89.9606
 20
1408.63
 11
89.8429
 21
1409.24
  0
LINE
  8
0
 10
89.8429
 20
1409.24
 11
89.6489
 21
1409.84
  0
LINE
  8
0
 10
89.6489
 20
1409.84
 11
89.3815
 21
1410.41
  0
LINE
  8
0
 10
89.3815
 20
1410.41
 11
89.0451
 21
1410.94
  0
LINE
  8
0
 10
89.0451
 20
1410.94
 11
88.6448
 21
1411.42
  0
LINE
  8
0
 10
88.6448
 20
1411.42
 11
88.1871
 21
1411.85
  0
LINE
  8
0
 10
88.1871
 20
1411.85
 11
87.6791
 21
1412.22
  0
LINE
  8
0
 10
87.6791
 20
1412.22
 11
87.1289
 21
1412.52
  0
LINE
  8
0
 10
87.1289
 20
1412.52
 11
86.5451
 21
1412.76
  0
LINE
  8
0
 10
86.5451
 20
1412.76
 11
85.9369
 21
1412.91
  0
LINE
  8
0
 10
85.9369
 20
1412.91
 11
85.3139
 21
1412.99
  0
LINE
  8
0
 10
85.3139
 20
1412.99
 11
-85.3139
 21
1412.99
  0
LINE
  8
0
 10
-85.3139
 20
1412.99
 11
-85.9369
 21
1412.91
  0
LINE
  8
0
 10
-85.9369
 20
1412.91
 11
-86.5451
 21
1412.76
  0
LINE
  8
0
 10
-86.5451
 20
1412.76
 11
-87.1289
 21
1412.52
  0
LINE
  8
0
 10
-87.1289
 20
1412.52
 11
-87.6791
 21
1412.22
  0
LINE
  8
0
 10
-87.6791
 20
1412.22
 11
-88.1871
 21
1411.85
  0
LINE
  8
0
 10
-88.1871
 20
1411.85
 11
-88.6448
 21
1411.42
  0
LINE
  8
0
 10
-88.6448
 20
1411.42
 11
-89.0451
 21
1410.94
  0
LINE
  8
0
 10
-89.0451
 20
1410.94
 11
-89.3815
 21
1410.41
  0
LINE
  8
0
 10
-89.3815
 20
1410.41
 11
-89.6489
 21
1409.84
  0
LINE
  8
0
 10
-89.6489
 20
1409.84
 11
-89.8429
 21
1409.24
  0
LINE
  8
0
 10
-89.8429
 20
1409.24
 11
-89.9606
 21
1408.63
  0
LINE
  8
0
 10
-89.9606
 20
1408.63
 11
-90
 21
1408
  0
LINE
  8
0
 10
-90
 20
1408
 11
-90
 21
1238
  0
LINE
  8
0
 10
-90
 20
1238
 11
-89.9606
 21
1237.37
  0
LINE
  8
0
 10
-89.9606
 20
1237.37
 11
-89.8429
 21
1236.76
  0
LINE
  8
0
 10
-89.8429
 20
1236.76
 11
-89.6489
 21
1236.16
  0
LINE
  8
0
 10
-89.6489
 20
1236.16
 11
-89.3815
 21
1235.59
  0
LINE
  8
0
 10
-89.3815
 20
1235.59
 11
-89.0451
 21
1235.06
  0
LINE
  8
0
 10
-89.0451
 20
1235.06
 11
-88.6448
 21
1234.58
  0
LINE
  8
0
 10
-88.6448
 20
1234.58
 11
-88.1871
 21
1234.15
  0
LINE
  8
0
 10
-88.1871
 20
1234.15
 11
-87.6791
 21
1233.78
  0
LINE
  8
0
 10
-87.6791
 20
1233.78
 11
-87.1289
 21
1233.48
  0
LINE
  8
0
 10
-87.1289
 20
1233.48
 11
-86.5451
 21
1233.24
  0
LINE
  8
0
 10
-86.5451
 20
1233.24
 11
-85.9369
 21
1233.09
  0
LINE
  8
0
 10
-85.9369
 20
1233.09
 11
-85.3139
 21
1233.01
  0
LINE
  8
0
 10
-85.3139
 20
1233.01
 11
85.3139
 21
1233.01
  0
LINE
  8
0
 10
85.3139
 20
1233.01
 11
85.9369
 21
1233.09
  0
LINE
  8
0
 10
-84.7512
 20
1234.51
 11
-85.2495
 21
1234.57
  0
LINE
  8
0
 10
-85.2495
 20
1234.57
 11
-85.7361
 21
1234.7
  0
LINE
  8
0
 10
-85.7361
 20
1234.7
 11
-86.2031
 21
1234.88
  0
LINE
  8
0
 10
-86.2031
 20
1234.88
 11
-86.6433
 21
1235.12
  0
LINE
  8
0
 10
-86.6433
 20
1235.12
 11
-87.0497
 21
1235.42
  0
LINE
  8
0
 10
-87.0497
 20
1235.42
 11
-87.4159
 21
1235.76
  0
LINE
  8
0
 10
-87.4159
 20
1235.76
 11
-87.7361
 21
1236.15
  0
LINE
  8
0
 10
-87.7361
 20
1236.15
 11
-88.0052
 21
1236.57
  0
LINE
  8
0
 10
-88.0052
 20
1236.57
 11
-88.2191
 21
1237.03
  0
LINE
  8
0
 10
-88.2191
 20
1237.03
 11
-88.3743
 21
1237.51
  0
LINE
  8
0
 10
-88.3743
 20
1237.51
 11
-88.4685
 21
1238
  0
LINE
  8
0
 10
-88.4685
 20
1238
 11
-88.5
 21
1238.5
  0
LINE
  8
0
 10
-88.5
 20
1238.5
 11
-88.5
 21
1407.5
  0
LINE
  8
0
 10
-88.5
 20
1407.5
 11
-88.4685
 21
1408
  0
LINE
  8
0
 10
-88.4685
 20
1408
 11
-88.3743
 21
1408.49
  0
LINE
  8
0
 10
-88.3743
 20
1408.49
 11
-88.2191
 21
1408.97
  0
LINE
  8
0
 10
-88.2191
 20
1408.97
 11
-88.0052
 21
1409.43
  0
LINE
  8
0
 10
-88.0052
 20
1409.43
 11
-87.7361
 21
1409.85
  0
LINE
  8
0
 10
-87.7361
 20
1409.85
 11
-87.4159
 21
1410.24
  0
LINE
  8
0
 10
-87.4159
 20
1410.24
 11
-87.0497
 21
1410.58
  0
LINE
  8
0
 10
-87.0497
 20
1410.58
 11
-86.6433
 21
1410.88
  0
LINE
  8
0
 10
-86.6433
 20
1410.88
 11
-86.2031
 21
1411.12
  0
LINE
  8
0
 10
-86.2031
 20
1411.12
 11
-85.7361
 21
1411.3
  0
LINE
  8
0
 10
-85.7361
 20
1411.3
 11
-85.2495
 21
1411.43
  0
LINE
  8
0
 10
-85.2495
 20
1411.43
 11
-84.7512
 21
1411.49
  0
LINE
  8
0
 10
-84.7512
 20
1411.49
 11
84.7512
 21
1411.49
  0
LINE
  8
0
 10
84.7512
 20
1411.49
 11
85.2495
 21
1411.43
  0
LINE
  8
0
 10
85.2495
 20
1411.43
 11
85.7361
 21
1411.3
  0
LINE
  8
0
 10
85.7361
 20
1411.3
 11
86.2031
 21
1411.12
  0
LINE
  8
0
 10
86.2031
 20
1411.12
 11
86.6433
 21
1410.88
  0
LINE
  8
0
 10
86.6433
 20
1410.88
 11
87.0497
 21
1410.58
  0
LINE
  8
0
 10
87.0497
 20
1410.58
 11
87.4159
 21
1410.24
  0
LINE
  8
0
 10
87.4159
 20
1410.24
 11
87.7361
 21
1409.85
  0
LINE
  8
0
 10
87.7361
 20
1409.85
 11
88.0052
 21
1409.43
  0
LINE
  8
0
 10
88.0052
 20
1409.43
 11
88.2191
 21
1408.97
  0
LINE
  8
0
 10
88.2191
 20
1408.97
 11
88.3743
 21
1408.49
  0
LINE
  8
0
 10
88.3743
 20
1408.49
 11
88.4685
 21
1408
  0
LINE
  8
0
 10
88.4685
 20
1408
 11
88.5
 21
1407.5
  0
LINE
  8
0
 10
88.5
 20
1407.5
 11
88.5
 21
1238.5
  0
LINE
  8
0
 10
88.5
 20
1238.5
 11
88.4685
 21
1238
  0
LINE
  8
0
 10
88.4685
 20
1238
 11
88.3743
 21
1237.51
  0
LINE
  8
0
 10
88.3743
 20
1237.51
 11
88.2191
 21
1237.03
  0
LINE
  8
0
 10
88.2191
 20
1237.03
 11
88.0052
 21
1236.57
  0
LINE
  8
0
 10
88.0052
 20
1236.57
 11
87.7361
 21
1236.15
  0
LINE
  8
0
 10
87.7361
 20
1236.15
 11
87.4159
 21
1235.76
  0
LINE
  8
0
 10
87.4159
 20
1235.76
 11
87.0497
 21
1235.42
  0
LINE
  8
0
 10
87.0497
 20
1235.42
 11
86.6433
 21
1235.12
  0
LINE
  8
0
 10
86.6433
 20
1235.12
 11
86.2031
 21
1234.88
  0
LINE
  8
0
 10
86.2031
 20
1234.88
 11
85.7361
 21
1234.7
  0
LINE
  8
0
 10
85.7361
 20
1234.7
 11
85.2495
 21
1234.57
  0
LINE
  8
0
 10
85.2495
 20
1234.57
 11
84.7512
 21
1234.51
  0
LINE
  8
0
 10
84.7512
 20
1234.51
 11
-84.7512
 21
1234.51
  0
LINE
  8
0
 10
85.9369
 20
1044.09
 11
86.5451
 21
1044.24
  0
LINE
  8
0
 10
86.5451
 20
1044.24
 11
87.1289
 21
1044.48
  0
LINE
  8
0
 10
87.1289
 20
1044.48
 11
87.6791
 21
1044.78
  0
LINE
  8
0
 10
87.6791
 20
1044.78
 11
88.1871
 21
1045.15
  0
LINE
  8
0
 10
88.1871
 20
1045.15
 11
88.6448
 21
1045.58
  0
LINE
  8
0
 10
88.6448
 20
1045.58
 11
89.0451
 21
1046.06
  0
LINE
  8
0
 10
89.0451
 20
1046.06
 11
89.3815
 21
1046.59
  0
LINE
  8
0
 10
89.3815
 20
1046.59
 11
89.6489
 21
1047.16
  0
LINE
  8
0
 10
89.6489
 20
1047.16
 11
89.8429
 21
1047.76
  0
LINE
  8
0
 10
89.8429
 20
1047.76
 11
89.9606
 21
1048.37
  0
LINE
  8
0
 10
89.9606
 20
1048.37
 11
90
 21
1049
  0
LINE
  8
0
 10
90
 20
1049
 11
90
 21
1219
  0
LINE
  8
0
 10
90
 20
1219
 11
89.9606
 21
1219.63
  0
LINE
  8
0
 10
89.9606
 20
1219.63
 11
89.8429
 21
1220.24
  0
LINE
  8
0
 10
89.8429
 20
1220.24
 11
89.6489
 21
1220.84
  0
LINE
  8
0
 10
89.6489
 20
1220.84
 11
89.3815
 21
1221.41
  0
LINE
  8
0
 10
89.3815
 20
1221.41
 11
89.0451
 21
1221.94
  0
LINE
  8
0
 10
89.0451
 20
1221.94
 11
88.6448
 21
1222.42
  0
LINE
  8
0
 10
88.6448
 20
1222.42
 11
88.1871
 21
1222.85
  0
LINE
  8
0
 10
88.1871
 20
1222.85
 11
87.6791
 21
1223.22
  0
LINE
  8
0
 10
87.6791
 20
1223.22
 11
87.1289
 21
1223.52
  0
LINE
  8
0
 10
87.1289
 20
1223.52
 11
86.5451
 21
1223.76
  0
LINE
  8
0
 10
86.5451
 20
1223.76
 11
85.9369
 21
1223.91
  0
LINE
  8
0
 10
85.9369
 20
1223.91
 11
85.3139
 21
1223.99
  0
LINE
  8
0
 10
85.3139
 20
1223.99
 11
-85.3139
 21
1223.99
  0
LINE
  8
0
 10
-85.3139
 20
1223.99
 11
-85.9369
 21
1223.91
  0
LINE
  8
0
 10
-85.9369
 20
1223.91
 11
-86.5451
 21
1223.76
  0
LINE
  8
0
 10
-86.5451
 20
1223.76
 11
-87.1289
 21
1223.52
  0
LINE
  8
0
 10
-87.1289
 20
1223.52
 11
-87.6791
 21
1223.22
  0
LINE
  8
0
 10
-87.6791
 20
1223.22
 11
-88.1871
 21
1222.85
  0
LINE
  8
0
 10
-88.1871
 20
1222.85
 11
-88.6448
 21
1222.42
  0
LINE
  8
0
 10
-88.6448
 20
1222.42
 11
-89.0451
 21
1221.94
  0
LINE
  8
0
 10
-89.0451
 20
1221.94
 11
-89.3815
 21
1221.41
  0
LINE
  8
0
 10
-89.3815
 20
1221.41
 11
-89.6489
 21
1220.84
  0
LINE
  8
0
 10
-89.6489
 20
1220.84
 11
-89.8429
 21
1220.24
  0
LINE
  8
0
 10
-89.8429
 20
1220.24
 11
-89.9606
 21
1219.63
  0
LINE
  8
0
 10
-89.9606
 20
1219.63
 11
-90
 21
1219
  0
LINE
  8
0
 10
-90
 20
1219
 11
-90
 21
1049
  0
LINE
  8
0
 10
-90
 20
1049
 11
-89.9606
 21
1048.37
  0
LINE
  8
0
 10
-89.9606
 20
1048.37
 11
-89.8429
 21
1047.76
  0
LINE
  8
0
 10
-89.8429
 20
1047.76
 11
-89.6489
 21
1047.16
  0
LINE
  8
0
 10
-89.6489
 20
1047.16
 11
-89.3815
 21
1046.59
  0
LINE
  8
0
 10
-89.3815
 20
1046.59
 11
-89.0451
 21
1046.06
  0
LINE
  8
0
 10
-89.0451
 20
1046.06
 11
-88.6448
 21
1045.58
  0
LINE
  8
0
 10
-88.6448
 20
1045.58
 11
-88.1871
 21
1045.15
  0
LINE
  8
0
 10
-88.1871
 20
1045.15
 11
-87.6791
 21
1044.78
  0
LINE
  8
0
 10
-87.6791
 20
1044.78
 11
-87.1289
 21
1044.48
  0
LINE
  8
0
 10
-87.1289
 20
1044.48
 11
-86.5451
 21
1044.24
  0
LINE
  8
0
 10
-86.5451
 20
1044.24
 11
-85.9369
 21
1044.09
  0
LINE
  8
0
 10
-85.9369
 20
1044.09
 11
-85.3139
 21
1044.01
  0
LINE
  8
0
 10
-85.3139
 20
1044.01
 11
85.3139
 21
1044.01
  0
LINE
  8
0
 10
85.3139
 20
1044.01
 11
85.9369
 21
1044.09
  0
LINE
  8
0
 10
-84.6955
 20
1046.39
 11
-85.0833
 21
1046.44
  0
LINE
  8
0
 10
-85.0833
 20
1046.44
 11
-85.4619
 21
1046.54
  0
LINE
  8
0
 10
-85.4619
 20
1046.54
 11
-85.8254
 21
1046.68
  0
LINE
  8
0
 10
-85.8254
 20
1046.68
 11
-86.168
 21
1046.87
  0
LINE
  8
0
 10
-86.168
 20
1046.87
 11
-86.4843
 21
1047.1
  0
LINE
  8
0
 10
-86.4843
 20
1047.1
 11
-86.7692
 21
1047.37
  0
LINE
  8
0
 10
-86.7692
 20
1047.37
 11
-87.0184
 21
1047.67
  0
LINE
  8
0
 10
-87.0184
 20
1047.67
 11
-87.2279
 21
1048
  0
LINE
  8
0
 10
-87.2279
 20
1048
 11
-87.3943
 21
1048.35
  0
LINE
  8
0
 10
-87.3943
 20
1048.35
 11
-87.5151
 21
1048.73
  0
LINE
  8
0
 10
-87.5151
 20
1048.73
 11
-87.5884
 21
1049.11
  0
LINE
  8
0
 10
-87.5884
 20
1049.11
 11
-87.6129
 21
1049.5
  0
LINE
  8
0
 10
-87.6129
 20
1049.5
 11
-87.6129
 21
1218.5
  0
LINE
  8
0
 10
-87.6129
 20
1218.5
 11
-87.5884
 21
1218.89
  0
LINE
  8
0
 10
-87.5884
 20
1218.89
 11
-87.5151
 21
1219.27
  0
LINE
  8
0
 10
-87.5151
 20
1219.27
 11
-87.3943
 21
1219.65
  0
LINE
  8
0
 10
-87.3943
 20
1219.65
 11
-87.2279
 21
1220
  0
LINE
  8
0
 10
-87.2279
 20
1220
 11
-87.0184
 21
1220.33
  0
LINE
  8
0
 10
-87.0184
 20
1220.33
 11
-86.7692
 21
1220.63
  0
LINE
  8
0
 10
-86.7692
 20
1220.63
 11
-86.4843
 21
1220.9
  0
LINE
  8
0
 10
-86.4843
 20
1220.9
 11
-86.168
 21
1221.13
  0
LINE
  8
0
 10
-86.168
 20
1221.13
 11
-85.8254
 21
1221.32
  0
LINE
  8
0
 10
-85.8254
 20
1221.32
 11
-85.4619
 21
1221.46
  0
LINE
  8
0
 10
-85.4619
 20
1221.46
 11
-85.0833
 21
1221.56
  0
LINE
  8
0
 10
-85.0833
 20
1221.56
 11
-84.6955
 21
1221.61
  0
LINE
  8
0
 10
-84.6955
 20
1221.61
 11
84.6955
 21
1221.61
  0
LINE
  8
0
 10
84.6955
 20
1221.61
 11
85.0833
 21
1221.56
  0
LINE
  8
0
 10
85.0833
 20
1221.56
 11
85.4619
 21
1221.46
  0
LINE
  8
0
 10
85.4619
 20
1221.46
 11
85.8254
 21
1221.32
  0
LINE
  8
0
 10
85.8254
 20
1221.32
 11
86.168
 21
1221.13
  0
LINE
  8
0
 10
86.168
 20
1221.13
 11
86.4843
 21
1220.9
  0
LINE
  8
0
 10
86.4843
 20
1220.9
 11
86.7692
 21
1220.63
  0
LINE
  8
0
 10
86.7692
 20
1220.63
 11
87.0184
 21
1220.33
  0
LINE
  8
0
 10
87.0184
 20
1220.33
 11
87.2279
 21
1220
  0
LINE
  8
0
 10
87.2279
 20
1220
 11
87.3943
 21
1219.65
  0
LINE
  8
0
 10
87.3943
 20
1219.65
 11
87.5151
 21
1219.27
  0
LINE
  8
0
 10
87.5151
 20
1219.27
 11
87.5884
 21
1218.89
  0
LINE
  8
0
 10
87.5884
 20
1218.89
 11
87.6129
 21
1218.5
  0
LINE
  8
0
 10
87.6129
 20
1218.5
 11
87.6129
 21
1049.5
  0
LINE
  8
0
 10
87.6129
 20
1049.5
 11
87.5884
 21
1049.11
  0
LINE
  8
0
 10
87.5884
 20
1049.11
 11
87.5151
 21
1048.73
  0
LINE
  8
0
 10
87.5151
 20
1048.73
 11
87.3943
 21
1048.35
  0
LINE
  8
0
 10
87.3943
 20
1048.35
 11
87.2279
 21
1048
  0
LINE
  8
0
 10
87.2279
 20
1048
 11
87.0184
 21
1047.67
  0
LINE
  8
0
 10
87.0184
 20
1047.67
 11
86.7692
 21
1047.37
  0
LINE
  8
0
 10
86.7692
 20
1047.37
 11
86.4843
 21
1047.1
  0
LINE
  8
0
 10
86.4843
 20
1047.1
 11
86.168
 21
1046.87
  0
LINE
  8
0
 10
86.168
 20
1046.87
 11
85.8254
 21
1046.68
  0
LINE
  8
0
 10
85.8254
 20
1046.68
 11
85.4619
 21
1046.54
  0
LINE
  8
0
 10
85.4619
 20
1046.54
 11
85.0833
 21
1046.44
  0
LINE
  8
0
 10
85.0833
 20
1046.44
 11
84.6955
 21
1046.39
  0
LINE
  8
0
 10
84.6955
 20
1046.39
 11
-84.6955
 21
1046.39
  0
LINE
  8
0
 10
85.9369
 20
855.089
 11
86.5451
 21
855.245
  0
LINE
  8
0
 10
86.5451
 20
855.245
 11
87.1289
 21
855.476
  0
LINE
  8
0
 10
87.1289
 20
855.476
 11
87.6791
 21
855.778
  0
LINE
  8
0
 10
87.6791
 20
855.778
 11
88.1871
 21
856.147
  0
LINE
  8
0
 10
88.1871
 20
856.147
 11
88.6448
 21
856.577
  0
LINE
  8
0
 10
88.6448
 20
856.577
 11
89.0451
 21
857.061
  0
LINE
  8
0
 10
89.0451
 20
857.061
 11
89.3815
 21
857.591
  0
LINE
  8
0
 10
89.3815
 20
857.591
 11
89.6489
 21
858.159
  0
LINE
  8
0
 10
89.6489
 20
858.159
 11
89.8429
 21
858.757
  0
LINE
  8
0
 10
89.8429
 20
858.757
 11
89.9606
 21
859.373
  0
LINE
  8
0
 10
89.9606
 20
859.373
 11
90
 21
860
  0
LINE
  8
0
 10
90
 20
860
 11
90
 21
1030
  0
LINE
  8
0
 10
90
 20
1030
 11
89.9606
 21
1030.63
  0
LINE
  8
0
 10
89.9606
 20
1030.63
 11
89.8429
 21
1031.24
  0
LINE
  8
0
 10
89.8429
 20
1031.24
 11
89.6489
 21
1031.84
  0
LINE
  8
0
 10
89.6489
 20
1031.84
 11
89.3815
 21
1032.41
  0
LINE
  8
0
 10
89.3815
 20
1032.41
 11
89.0451
 21
1032.94
  0
LINE
  8
0
 10
89.0451
 20
1032.94
 11
88.6448
 21
1033.42
  0
LINE
  8
0
 10
88.6448
 20
1033.42
 11
88.1871
 21
1033.85
  0
LINE
  8
0
 10
88.1871
 20
1033.85
 11
87.6791
 21
1034.22
  0
LINE
  8
0
 10
87.6791
 20
1034.22
 11
87.1289
 21
1034.52
  0
LINE
  8
0
 10
87.1289
 20
1034.52
 11
86.5451
 21
1034.76
  0
LINE
  8
0
 10
86.5451
 20
1034.76
 11
85.9369
 21
1034.91
  0
LINE
  8
0
 10
85.9369
 20
1034.91
 11
85.3139
 21
1034.99
  0
LINE
  8
0
 10
85.3139
 20
1034.99
 11
-85.3139
 21
1034.99
  0
LINE
  8
0
 10
-85.3139
 20
1034.99
 11
-85.9369
 21
1034.91
  0
LINE
  8
0
 10
-85.9369
 20
1034.91
 11
-86.5451
 21
1034.76
  0
LINE
  8
0
 10
-86.5451
 20
1034.76
 11
-87.1289
 21
1034.52
  0
LINE
  8
0
 10
-87.1289
 20
1034.52
 11
-87.6791
 21
1034.22
  0
LINE
  8
0
 10
-87.6791
 20
1034.22
 11
-88.1871
 21
1033.85
  0
LINE
  8
0
 10
-88.1871
 20
1033.85
 11
-88.6448
 21
1033.42
  0
LINE
  8
0
 10
-88.6448
 20
1033.42
 11
-89.0451
 21
1032.94
  0
LINE
  8
0
 10
-89.0451
 20
1032.94
 11
-89.3815
 21
1032.41
  0
LINE
  8
0
 10
-89.3815
 20
1032.41
 11
-89.6489
 21
1031.84
  0
LINE
  8
0
 10
-89.6489
 20
1031.84
 11
-89.8429
 21
1031.24
  0
LINE
  8
0
 10
-89.8429
 20
1031.24
 11
-89.9606
 21
1030.63
  0
LINE
  8
0
 10
-89.9606
 20
1030.63
 11
-90
 21
1030
  0
LINE
  8
0
 10
-90
 20
1030
 11
-90
 21
860
  0
LINE
  8
0
 10
-90
 20
860
 11
-89.9606
 21
859.373
  0
LINE
  8
0
 10
-89.9606
 20
859.373
 11
-89.8429
 21
858.757
  0
LINE
  8
0
 10
-89.8429
 20
858.757
 11
-89.6489
 21
858.159
  0
LINE
  8
0
 10
-89.6489
 20
858.159
 11
-89.3815
 21
857.591
  0
LINE
  8
0
 10
-89.3815
 20
857.591
 11
-89.0451
 21
857.061
  0
LINE
  8
0
 10
-89.0451
 20
857.061
 11
-88.6448
 21
856.577
  0
LINE
  8
0
 10
-88.6448
 20
856.577
 11
-88.1871
 21
856.147
  0
LINE
  8
0
 10
-88.1871
 20
856.147
 11
-87.6791
 21
855.778
  0
LINE
  8
0
 10
-87.6791
 20
855.778
 11
-87.1289
 21
855.476
  0
LINE
  8
0
 10
-87.1289
 20
855.476
 11
-86.5451
 21
855.245
  0
LINE
  8
0
 10
-86.5451
 20
855.245
 11
-85.9369
 21
855.089
  0
LINE
  8
0
 10
-85.9369
 20
855.089
 11
-85.3139
 21
855.01
  0
LINE
  8
0
 10
-85.3139
 20
855.01
 11
85.3139
 21
855.01
  0
LINE
  8
0
 10
85.3139
 20
855.01
 11
85.9369
 21
855.089
  0
LINE
  8
0
 10
82.3659
 20
1025.37
 11
82.0999
 21
1025.4
  0
LINE
  8
0
 10
82.0999
 20
1025.4
 11
81.8401
 21
1025.47
  0
LINE
  8
0
 10
81.8401
 20
1025.47
 11
81.5908
 21
1025.57
  0
LINE
  8
0
 10
81.5908
 20
1025.57
 11
81.3559
 21
1025.7
  0
LINE
  8
0
 10
81.3559
 20
1025.7
 11
81.1389
 21
1025.85
  0
LINE
  8
0
 10
81.1389
 20
1025.85
 11
80.9434
 21
1026.04
  0
LINE
  8
0
 10
80.9434
 20
1026.04
 11
80.7725
 21
1026.24
  0
LINE
  8
0
 10
80.7725
 20
1026.24
 11
80.6288
 21
1026.47
  0
LINE
  8
0
 10
80.6288
 20
1026.47
 11
80.5146
 21
1026.71
  0
LINE
  8
0
 10
80.5146
 20
1026.71
 11
80.4318
 21
1026.97
  0
LINE
  8
0
 10
80.4318
 20
1026.97
 11
80.3815
 21
1027.23
  0
LINE
  8
0
 10
80.3815
 20
1027.23
 11
80.3647
 21
1027.5
  0
LINE
  8
0
 10
80.3647
 20
1027.5
 11
80.3815
 21
1027.77
  0
LINE
  8
0
 10
80.3815
 20
1027.77
 11
80.4318
 21
1028.03
  0
LINE
  8
0
 10
80.4318
 20
1028.03
 11
80.5146
 21
1028.29
  0
LINE
  8
0
 10
80.5146
 20
1028.29
 11
80.6288
 21
1028.53
  0
LINE
  8
0
 10
80.6288
 20
1028.53
 11
80.7725
 21
1028.76
  0
LINE
  8
0
 10
80.7725
 20
1028.76
 11
80.9434
 21
1028.96
  0
LINE
  8
0
 10
80.9434
 20
1028.96
 11
81.1389
 21
1029.15
  0
LINE
  8
0
 10
81.1389
 20
1029.15
 11
81.3559
 21
1029.3
  0
LINE
  8
0
 10
81.3559
 20
1029.3
 11
81.5908
 21
1029.43
  0
LINE
  8
0
 10
81.5908
 20
1029.43
 11
81.8401
 21
1029.53
  0
LINE
  8
0
 10
81.8401
 20
1029.53
 11
82.0999
 21
1029.6
  0
LINE
  8
0
 10
82.0999
 20
1029.6
 11
82.3659
 21
1029.63
  0
LINE
  8
0
 10
82.3659
 20
1029.63
 11
82.6341
 21
1029.63
  0
LINE
  8
0
 10
82.6341
 20
1029.63
 11
82.9001
 21
1029.6
  0
LINE
  8
0
 10
82.9001
 20
1029.6
 11
83.1598
 21
1029.53
  0
LINE
  8
0
 10
83.1598
 20
1029.53
 11
83.4092
 21
1029.43
  0
LINE
  8
0
 10
83.4092
 20
1029.43
 11
83.6441
 21
1029.3
  0
LINE
  8
0
 10
83.6441
 20
1029.3
 11
83.8611
 21
1029.15
  0
LINE
  8
0
 10
83.8611
 20
1029.15
 11
84.0566
 21
1028.96
  0
LINE
  8
0
 10
84.0566
 20
1028.96
 11
84.2275
 21
1028.76
  0
LINE
  8
0
 10
84.2275
 20
1028.76
 11
84.3712
 21
1028.53
  0
LINE
  8
0
 10
84.3712
 20
1028.53
 11
84.4853
 21
1028.29
  0
LINE
  8
0
 10
84.4853
 20
1028.29
 11
84.5682
 21
1028.03
  0
LINE
  8
0
 10
84.5682
 20
1028.03
 11
84.6185
 21
1027.77
  0
LINE
  8
0
 10
84.6185
 20
1027.77
 11
84.6353
 21
1027.5
  0
LINE
  8
0
 10
84.6353
 20
1027.5
 11
84.6185
 21
1027.23
  0
LINE
  8
0
 10
84.6185
 20
1027.23
 11
84.5682
 21
1026.97
  0
LINE
  8
0
 10
84.5682
 20
1026.97
 11
84.4853
 21
1026.71
  0
LINE
  8
0
 10
84.4853
 20
1026.71
 11
84.3712
 21
1026.47
  0
LINE
  8
0
 10
84.3712
 20
1026.47
 11
84.2275
 21
1026.24
  0
LINE
  8
0
 10
84.2275
 20
1026.24
 11
84.0566
 21
1026.04
  0
LINE
  8
0
 10
84.0566
 20
1026.04
 11
83.8611
 21
1025.85
  0
LINE
  8
0
 10
83.8611
 20
1025.85
 11
83.6441
 21
1025.7
  0
LINE
  8
0
 10
83.6441
 20
1025.7
 11
83.4092
 21
1025.57
  0
LINE
  8
0
 10
83.4092
 20
1025.57
 11
83.1598
 21
1025.47
  0
LINE
  8
0
 10
83.1598
 20
1025.47
 11
82.9001
 21
1025.4
  0
LINE
  8
0
 10
82.9001
 20
1025.4
 11
82.6341
 21
1025.37
  0
LINE
  8
0
 10
82.6341
 20
1025.37
 11
82.3659
 21
1025.37
  0
LINE
  8
0
 10
-82.6341
 20
1025.37
 11
-82.9001
 21
1025.4
  0
LINE
  8
0
 10
-82.9001
 20
1025.4
 11
-83.1598
 21
1025.47
  0
LINE
  8
0
 10
-83.1598
 20
1025.47
 11
-83.4092
 21
1025.57
  0
LINE
  8
0
 10
-83.4092
 20
1025.57
 11
-83.6441
 21
1025.7
  0
LINE
  8
0
 10
-83.6441
 20
1025.7
 11
-83.8611
 21
1025.85
  0
LINE
  8
0
 10
-83.8611
 20
1025.85
 11
-84.0566
 21
1026.04
  0
LINE
  8
0
 10
-84.0566
 20
1026.04
 11
-84.2275
 21
1026.24
  0
LINE
  8
0
 10
-84.2275
 20
1026.24
 11
-84.3712
 21
1026.47
  0
LINE
  8
0
 10
-84.3712
 20
1026.47
 11
-84.4853
 21
1026.71
  0
LINE
  8
0
 10
-84.4853
 20
1026.71
 11
-84.5682
 21
1026.97
  0
LINE
  8
0
 10
-84.5682
 20
1026.97
 11
-84.6185
 21
1027.23
  0
LINE
  8
0
 10
-84.6185
 20
1027.23
 11
-84.6353
 21
1027.5
  0
LINE
  8
0
 10
-84.6353
 20
1027.5
 11
-84.6185
 21
1027.77
  0
LINE
  8
0
 10
-84.6185
 20
1027.77
 11
-84.5682
 21
1028.03
  0
LINE
  8
0
 10
-84.5682
 20
1028.03
 11
-84.4853
 21
1028.29
  0
LINE
  8
0
 10
-84.4853
 20
1028.29
 11
-84.3712
 21
1028.53
  0
LINE
  8
0
 10
-84.3712
 20
1028.53
 11
-84.2275
 21
1028.76
  0
LINE
  8
0
 10
-84.2275
 20
1028.76
 11
-84.0566
 21
1028.96
  0
LINE
  8
0
 10
-84.0566
 20
1028.96
 11
-83.8611
 21
1029.15
  0
LINE
  8
0
 10
-83.8611
 20
1029.15
 11
-83.6441
 21
1029.3
  0
LINE
  8
0
 10
-83.6441
 20
1029.3
 11
-83.4092
 21
1029.43
  0
LINE
  8
0
 10
-83.4092
 20
1029.43
 11
-83.1598
 21
1029.53
  0
LINE
  8
0
 10
-83.1598
 20
1029.53
 11
-82.9001
 21
1029.6
  0
LINE
  8
0
 10
-82.9001
 20
1029.6
 11
-82.6341
 21
1029.63
  0
LINE
  8
0
 10
-82.6341
 20
1029.63
 11
-82.3659
 21
1029.63
  0
LINE
  8
0
 10
-82.3659
 20
1029.63
 11
-82.0999
 21
1029.6
  0
LINE
  8
0
 10
-82.0999
 20
1029.6
 11
-81.8401
 21
1029.53
  0
LINE
  8
0
 10
-81.8401
 20
1029.53
 11
-81.5908
 21
1029.43
  0
LINE
  8
0
 10
-81.5908
 20
1029.43
 11
-81.3559
 21
1029.3
  0
LINE
  8
0
 10
-81.3559
 20
1029.3
 11
-81.1389
 21
1029.15
  0
LINE
  8
0
 10
-81.1389
 20
1029.15
 11
-80.9434
 21
1028.96
  0
LINE
  8
0
 10
-80.9434
 20
1028.96
 11
-80.7725
 21
1028.76
  0
LINE
  8
0
 10
-80.7725
 20
1028.76
 11
-80.6288
 21
1028.53
  0
LINE
  8
0
 10
-80.6288
 20
1028.53
 11
-80.5146
 21
1028.29
  0
LINE
  8
0
 10
-80.5146
 20
1028.29
 11
-80.4318
 21
1028.03
  0
LINE
  8
0
 10
-80.4318
 20
1028.03
 11
-80.3815
 21
1027.77
  0
LINE
  8
0
 10
-80.3815
 20
1027.77
 11
-80.3647
 21
1027.5
  0
LINE
  8
0
 10
-80.3647
 20
1027.5
 11
-80.3815
 21
1027.23
  0
LINE
  8
0
 10
-80.3815
 20
1027.23
 11
-80.4318
 21
1026.97
  0
LINE
  8
0
 10
-80.4318
 20
1026.97
 11
-80.5146
 21
1026.71
  0
LINE
  8
0
 10
-80.5146
 20
1026.71
 11
-80.6288
 21
1026.47
  0
LINE
  8
0
 10
-80.6288
 20
1026.47
 11
-80.7725
 21
1026.24
  0
LINE
  8
0
 10
-80.7725
 20
1026.24
 11
-80.9434
 21
1026.04
  0
LINE
  8
0
 10
-80.9434
 20
1026.04
 11
-81.1389
 21
1025.85
  0
LINE
  8
0
 10
-81.1389
 20
1025.85
 11
-81.3559
 21
1025.7
  0
LINE
  8
0
 10
-81.3559
 20
1025.7
 11
-81.5908
 21
1025.57
  0
LINE
  8
0
 10
-81.5908
 20
1025.57
 11
-81.8401
 21
1025.47
  0
LINE
  8
0
 10
-81.8401
 20
1025.47
 11
-82.0999
 21
1025.4
  0
LINE
  8
0
 10
-82.0999
 20
1025.4
 11
-82.3659
 21
1025.37
  0
LINE
  8
0
 10
-82.3659
 20
1025.37
 11
-82.6341
 21
1025.37
  0
LINE
  8
0
 10
82.3659
 20
860.369
 11
82.0999
 21
860.403
  0
LINE
  8
0
 10
82.0999
 20
860.403
 11
81.8401
 21
860.469
  0
LINE
  8
0
 10
81.8401
 20
860.469
 11
81.5908
 21
860.568
  0
LINE
  8
0
 10
81.5908
 20
860.568
 11
81.3559
 21
860.697
  0
LINE
  8
0
 10
81.3559
 20
860.697
 11
81.1389
 21
860.855
  0
LINE
  8
0
 10
81.1389
 20
860.855
 11
80.9434
 21
861.038
  0
LINE
  8
0
 10
80.9434
 20
861.038
 11
80.7725
 21
861.245
  0
LINE
  8
0
 10
80.7725
 20
861.245
 11
80.6288
 21
861.471
  0
LINE
  8
0
 10
80.6288
 20
861.471
 11
80.5146
 21
861.714
  0
LINE
  8
0
 10
80.5146
 20
861.714
 11
80.4318
 21
861.969
  0
LINE
  8
0
 10
80.4318
 20
861.969
 11
80.3815
 21
862.232
  0
LINE
  8
0
 10
80.3815
 20
862.232
 11
80.3647
 21
862.5
  0
LINE
  8
0
 10
80.3647
 20
862.5
 11
80.3815
 21
862.768
  0
LINE
  8
0
 10
80.3815
 20
862.768
 11
80.4318
 21
863.031
  0
LINE
  8
0
 10
80.4318
 20
863.031
 11
80.5146
 21
863.286
  0
LINE
  8
0
 10
80.5146
 20
863.286
 11
80.6288
 21
863.529
  0
LINE
  8
0
 10
80.6288
 20
863.529
 11
80.7725
 21
863.755
  0
LINE
  8
0
 10
80.7725
 20
863.755
 11
80.9434
 21
863.962
  0
LINE
  8
0
 10
80.9434
 20
863.962
 11
81.1389
 21
864.145
  0
LINE
  8
0
 10
81.1389
 20
864.145
 11
81.3559
 21
864.303
  0
LINE
  8
0
 10
81.3559
 20
864.303
 11
81.5908
 21
864.432
  0
LINE
  8
0
 10
81.5908
 20
864.432
 11
81.8401
 21
864.531
  0
LINE
  8
0
 10
81.8401
 20
864.531
 11
82.0999
 21
864.597
  0
LINE
  8
0
 10
82.0999
 20
864.597
 11
82.3659
 21
864.631
  0
LINE
  8
0
 10
82.3659
 20
864.631
 11
82.6341
 21
864.631
  0
LINE
  8
0
 10
82.6341
 20
864.631
 11
82.9001
 21
864.597
  0
LINE
  8
0
 10
82.9001
 20
864.597
 11
83.1598
 21
864.531
  0
LINE
  8
0
 10
83.1598
 20
864.531
 11
83.4092
 21
864.432
  0
LINE
  8
0
 10
83.4092
 20
864.432
 11
83.6441
 21
864.303
  0
LINE
  8
0
 10
83.6441
 20
864.303
 11
83.8611
 21
864.145
  0
LINE
  8
0
 10
83.8611
 20
864.145
 11
84.0566
 21
863.962
  0
LINE
  8
0
 10
84.0566
 20
863.962
 11
84.2275
 21
863.755
  0
LINE
  8
0
 10
84.2275
 20
863.755
 11
84.3712
 21
863.529
  0
LINE
  8
0
 10
84.3712
 20
863.529
 11
84.4853
 21
863.286
  0
LINE
  8
0
 10
84.4853
 20
863.286
 11
84.5682
 21
863.031
  0
LINE
  8
0
 10
84.5682
 20
863.031
 11
84.6185
 21
862.768
  0
LINE
  8
0
 10
84.6185
 20
862.768
 11
84.6353
 21
862.5
  0
LINE
  8
0
 10
84.6353
 20
862.5
 11
84.6185
 21
862.232
  0
LINE
  8
0
 10
84.6185
 20
862.232
 11
84.5682
 21
861.969
  0
LINE
  8
0
 10
84.5682
 20
861.969
 11
84.4853
 21
861.714
  0
LINE
  8
0
 10
84.4853
 20
861.714
 11
84.3712
 21
861.471
  0
LINE
  8
0
 10
84.3712
 20
861.471
 11
84.2275
 21
861.245
  0
LINE
  8
0
 10
84.2275
 20
861.245
 11
84.0566
 21
861.038
  0
LINE
  8
0
 10
84.0566
 20
861.038
 11
83.8611
 21
860.855
  0
LINE
  8
0
 10
83.8611
 20
860.855
 11
83.6441
 21
860.697
  0
LINE
  8
0
 10
83.6441
 20
860.697
 11
83.4092
 21
860.568
  0
LINE
  8
0
 10
83.4092
 20
860.568
 11
83.1598
 21
860.469
  0
LINE
  8
0
 10
83.1598
 20
860.469
 11
82.9001
 21
860.403
  0
LINE
  8
0
 10
82.9001
 20
860.403
 11
82.6341
 21
860.369
  0
LINE
  8
0
 10
82.6341
 20
860.369
 11
82.3659
 21
860.369
  0
LINE
  8
0
 10
-82.6341
 20
860.369
 11
-82.9001
 21
860.403
  0
LINE
  8
0
 10
-82.9001
 20
860.403
 11
-83.1598
 21
860.469
  0
LINE
  8
0
 10
-83.1598
 20
860.469
 11
-83.4092
 21
860.568
  0
LINE
  8
0
 10
-83.4092
 20
860.568
 11
-83.6441
 21
860.697
  0
LINE
  8
0
 10
-83.6441
 20
860.697
 11
-83.8611
 21
860.855
  0
LINE
  8
0
 10
-83.8611
 20
860.855
 11
-84.0566
 21
861.038
  0
LINE
  8
0
 10
-84.0566
 20
861.038
 11
-84.2275
 21
861.245
  0
LINE
  8
0
 10
-84.2275
 20
861.245
 11
-84.3712
 21
861.471
  0
LINE
  8
0
 10
-84.3712
 20
861.471
 11
-84.4853
 21
861.714
  0
LINE
  8
0
 10
-84.4853
 20
861.714
 11
-84.5682
 21
861.969
  0
LINE
  8
0
 10
-84.5682
 20
861.969
 11
-84.6185
 21
862.232
  0
LINE
  8
0
 10
-84.6185
 20
862.232
 11
-84.6353
 21
862.5
  0
LINE
  8
0
 10
-84.6353
 20
862.5
 11
-84.6185
 21
862.768
  0
LINE
  8
0
 10
-84.6185
 20
862.768
 11
-84.5682
 21
863.031
  0
LINE
  8
0
 10
-84.5682
 20
863.031
 11
-84.4853
 21
863.286
  0
LINE
  8
0
 10
-84.4853
 20
863.286
 11
-84.3712
 21
863.529
  0
LINE
  8
0
 10
-84.3712
 20
863.529
 11
-84.2275
 21
863.755
  0
LINE
  8
0
 10
-84.2275
 20
863.755
 11
-84.0566
 21
863.962
  0
LINE
  8
0
 10
-84.0566
 20
863.962
 11
-83.8611
 21
864.145
  0
LINE
  8
0
 10
-83.8611
 20
864.145
 11
-83.6441
 21
864.303
  0
LINE
  8
0
 10
-83.6441
 20
864.303
 11
-83.4092
 21
864.432
  0
LINE
  8
0
 10
-83.4092
 20
864.432
 11
-83.1598
 21
864.531
  0
LINE
  8
0
 10
-83.1598
 20
864.531
 11
-82.9001
 21
864.597
  0
LINE
  8
0
 10
-82.9001
 20
864.597
 11
-82.6341
 21
864.631
  0
LINE
  8
0
 10
-82.6341
 20
864.631
 11
-82.3659
 21
864.631
  0
LINE
  8
0
 10
-82.3659
 20
864.631
 11
-82.0999
 21
864.597
  0
LINE
  8
0
 10
-82.0999
 20
864.597
 11
-81.8401
 21
864.531
  0
LINE
  8
0
 10
-81.8401
 20
864.531
 11
-81.5908
 21
864.432
  0
LINE
  8
0
 10
-81.5908
 20
864.432
 11
-81.3559
 21
864.303
  0
LINE
  8
0
 10
-81.3559
 20
864.303
 11
-81.1389
 21
864.145
  0
LINE
  8
0
 10
-81.1389
 20
864.145
 11
-80.9434
 21
863.962
  0
LINE
  8
0
 10
-80.9434
 20
863.962
 11
-80.7725
 21
863.755
  0
LINE
  8
0
 10
-80.7725
 20
863.755
 11
-80.6288
 21
863.529
  0
LINE
  8
0
 10
-80.6288
 20
863.529
 11
-80.5146
 21
863.286
  0
LINE
  8
0
 10
-80.5146
 20
863.286
 11
-80.4318
 21
863.031
  0
LINE
  8
0
 10
-80.4318
 20
863.031
 11
-80.3815
 21
862.768
  0
LINE
  8
0
 10
-80.3815
 20
862.768
 11
-80.3647
 21
862.5
  0
LINE
  8
0
 10
-80.3647
 20
862.5
 11
-80.3815
 21
862.232
  0
LINE
  8
0
 10
-80.3815
 20
862.232
 11
-80.4318
 21
861.969
  0
LINE
  8
0
 10
-80.4318
 20
861.969
 11
-80.5146
 21
861.714
  0
LINE
  8
0
 10
-80.5146
 20
861.714
 11
-80.6288
 21
861.471
  0
LINE
  8
0
 10
-80.6288
 20
861.471
 11
-80.7725
 21
861.245
  0
LINE
  8
0
 10
-80.7725
 20
861.245
 11
-80.9434
 21
861.038
  0
LINE
  8
0
 10
-80.9434
 20
861.038
 11
-81.1389
 21
860.855
  0
LINE
  8
0
 10
-81.1389
 20
860.855
 11
-81.3559
 21
860.697
  0
LINE
  8
0
 10
-81.3559
 20
860.697
 11
-81.5908
 21
860.568
  0
LINE
  8
0
 10
-81.5908
 20
860.568
 11
-81.8401
 21
860.469
  0
LINE
  8
0
 10
-81.8401
 20
860.469
 11
-82.0999
 21
860.403
  0
LINE
  8
0
 10
-82.0999
 20
860.403
 11
-82.3659
 21
860.369
  0
LINE
  8
0
 10
-82.3659
 20
860.369
 11
-82.6341
 21
860.369
  0
ENDSEC
  0
SECTION
  2
OBJECTS
  0
DICTIONARY
  0
ENDSEC
  0
EOF
