<?xml version="1.0" standalone="no"?>
<!DOCTYPE svg PUBLIC "-//W3C//DTD SVG 1.1//EN" "http://www.w3.org/Graphics/SVG/1.1/DTD/svg11.dtd">
<svg width="166mm" height="160mm" viewBox="-83 -290 166 160" xmlns="http://www.w3.org/2000/svg" version="1.1">
<title>OpenSCAD Model</title>
<path d="
M 78.4369,-214.589 L 79.0451,-214.745 L 79.6289,-214.976 L 80.1791,-215.278 L 80.6871,-215.647 L 81.1448,-216.077
 L 81.5451,-216.561 L 81.8815,-217.091 L 82.1489,-217.659 L 82.3429,-218.257 L 82.4606,-218.873 L 82.5,-219.5
 L 82.5,-284.5 L 82.4606,-285.127 L 82.3429,-285.743 L 82.1489,-286.341 L 81.8815,-286.909 L 81.5451,-287.439
 L 81.1448,-287.923 L 80.6871,-288.353 L 80.1791,-288.722 L 79.6289,-289.024 L 79.0451,-289.255 L 78.4369,-289.411
 L 77.8139,-289.49 L -77.8139,-289.49 L -78.4369,-289.411 L -79.0451,-289.255 L -79.6289,-289.024 L -80.1791,-288.722
 L -80.6871,-288.353 L -81.1448,-287.923 L -81.5451,-287.439 L -81.8815,-286.909 L -82.1489,-286.341 L -82.3429,-285.743
 L -82.4606,-285.127 L -82.5,-284.5 L -82.5,-219.5 L -82.4606,-218.873 L -82.3429,-218.257 L -82.1489,-217.659
 L -81.8815,-217.091 L -81.5451,-216.561 L -81.1448,-216.077 L -80.6871,-215.647 L -80.1791,-215.278 L -79.6289,-214.976
 L -79.0451,-214.745 L -78.4369,-214.589 L -77.8139,-214.51 L 77.8139,-214.51 z
M -77.5375,-215.181 L -78.1079,-215.253 L -78.6648,-215.396 L -79.1994,-215.607 L -79.7032,-215.884 L -80.1684,-216.222
 L -80.5875,-216.616 L -80.954,-217.059 L -81.2621,-217.544 L -81.5069,-218.065 L -81.6846,-218.611 L -81.7923,-219.176
 L -81.8284,-219.75 L -81.8284,-284.25 L -81.7923,-284.824 L -81.6846,-285.389 L -81.5069,-285.935 L -81.2621,-286.456
 L -80.954,-286.941 L -80.5875,-287.384 L -80.1684,-287.778 L -79.7032,-288.116 L -79.1994,-288.393 L -78.6648,-288.604
 L -78.1079,-288.747 L -77.5375,-288.819 L 77.5375,-288.819 L 78.1079,-288.747 L 78.6648,-288.604 L 79.1994,-288.393
 L 79.7032,-288.116 L 80.1684,-287.778 L 80.5875,-287.384 L 80.954,-286.941 L 81.2621,-286.456 L 81.5069,-285.935
 L 81.6846,-285.389 L 81.7923,-284.824 L 81.8284,-284.25 L 81.8284,-219.75 L 81.7923,-219.176 L 81.6846,-218.611
 L 81.5069,-218.065 L 81.2621,-217.544 L 80.954,-217.059 L 80.5875,-216.616 L 80.1684,-216.222 L 79.7032,-215.884
 L 79.1994,-215.607 L 78.6648,-215.396 L 78.1079,-215.253 L 77.5375,-215.181 z
M 78.4369,-130.589 L 79.0451,-130.745 L 79.6289,-130.976 L 80.1791,-131.278 L 80.6871,-131.647 L 81.1448,-132.077
 L 81.5451,-132.561 L 81.8815,-133.091 L 82.1489,-133.659 L 82.3429,-134.257 L 82.4606,-134.873 L 82.5,-135.5
 L 82.5,-200.5 L 82.4606,-201.127 L 82.3429,-201.743 L 82.1489,-202.341 L 81.8815,-202.909 L 81.5451,-203.439
 L 81.1448,-203.923 L 80.6871,-204.353 L 80.1791,-204.722 L 79.6289,-205.024 L 79.0451,-205.255 L 78.4369,-205.411
 L 77.8139,-205.49 L -77.8139,-205.49 L -78.4369,-205.411 L -79.0451,-205.255 L -79.6289,-205.024 L -80.1791,-204.722
 L -80.6871,-204.353 L -81.1448,-203.923 L -81.5451,-203.439 L -81.8815,-202.909 L -82.1489,-202.341 L -82.3429,-201.743
 L -82.4606,-201.127 L -82.5,-200.5 L -82.5,-135.5 L -82.4606,-134.873 L -82.3429,-134.257 L -82.1489,-133.659
 L -81.8815,-133.091 L -81.5451,-132.561 L -81.1448,-132.077 L -80.6871,-131.647 L -80.1791,-131.278 L -79.6289,-130.976
 L -79.0451,-130.745 L -78.4369,-130.589 L -77.8139,-130.51 L 77.8139,-130.51 z
M -77.3825,-133.645 L -77.6453,-133.678 L -77.9019,-133.744 L -78.1482,-133.841 L -78.3804,-133.969 L -78.5947,-134.125
 L -78.7879,-134.306 L -78.9567,-134.51 L -79.0987,-134.734 L -79.2115,-134.973 L -79.2934,-135.225 L -79.343,-135.486
 L -79.3596,-135.75 L -79.3596,-200.25 L -79.343,-200.514 L -79.2934,-200.775 L -79.2115,-201.027 L -79.0987,-201.266
 L -78.9567,-201.49 L -78.7879,-201.694 L -78.5947,-201.875 L -78.3804,-202.031 L -78.1482,-202.159 L -77.9019,-202.256
 L -77.6453,-202.322 L -77.3825,-202.355 L 77.3825,-202.355 L 77.6453,-202.322 L 77.9019,-202.256 L 78.1482,-202.159
 L 78.3804,-202.031 L 78.5947,-201.875 L 78.7879,-201.694 L 78.9567,-201.49 L 79.0987,-201.266 L 79.2115,-201.027
 L 79.2934,-200.775 L 79.343,-200.514 L 79.3596,-200.25 L 79.3596,-135.75 L 79.343,-135.486 L 79.2934,-135.225
 L 79.2115,-134.973 L 79.0987,-134.734 L 78.9567,-134.51 L 78.7879,-134.306 L 78.5947,-134.125 L 78.3804,-133.969
 L 78.1482,-133.841 L 77.9019,-133.744 L 77.6453,-133.678 L 77.3825,-133.645 z
" stroke="black" fill="lightgray" stroke-width="0.5"/>
</svg>
