solid OpenSCAD_Model
  facet normal 0.998027 0.0627938 2.22312e-18
    outer loop
      vertex 70 0 16
      vertex 69.448 8.77333 0
      vertex 69.448 8.77333 16
    endloop
  endfacet
  facet normal 0.998027 0.0627938 2.22312e-18
    outer loop
      vertex 69.448 8.77333 0
      vertex 70 0 16
      vertex 70 0 0
    endloop
  endfacet
  facet normal -0.998027 0.0627938 -2.22312e-18
    outer loop
      vertex -70 0 0
      vertex -69.448 8.77333 16
      vertex -69.448 8.77333 0
    endloop
  endfacet
  facet normal -0.998027 0.0627938 -2.22312e-18
    outer loop
      vertex -69.448 8.77333 16
      vertex -70 0 0
      vertex -70 0 16
    endloop
  endfacet
  facet normal 0 1 -0
    outer loop
      vertex 4.39534 69.8619 0
      vertex -4.39534 69.8619 16
      vertex 4.39534 69.8619 16
    endloop
  endfacet
  facet normal 0 1 0
    outer loop
      vertex -4.39534 69.8619 16
      vertex 4.39534 69.8619 0
      vertex -4.39534 69.8619 0
    endloop
  endfacet
  facet normal 0 -1 0
    outer loop
      vertex -4.39534 -69.8619 0
      vertex 4.39534 -69.8619 16
      vertex -4.39534 -69.8619 16
    endloop
  endfacet
  facet normal 0 -1 -0
    outer loop
      vertex 4.39534 -69.8619 16
      vertex -4.39534 -69.8619 0
      vertex 4.39534 -69.8619 0
    endloop
  endfacet
  facet normal 0.684547 0.728969 -0
    outer loop
      vertex 51.0278 47.9183 0
      vertex 44.6197 53.9359 16
      vertex 51.0278 47.9183 16
    endloop
  endfacet
  facet normal 0.684547 0.728969 0
    outer loop
      vertex 44.6197 53.9359 16
      vertex 51.0278 47.9183 0
      vertex 44.6197 53.9359 0
    endloop
  endfacet
  facet normal -0.684547 0.728969 0
    outer loop
      vertex -44.6197 53.9359 0
      vertex -51.0278 47.9183 16
      vertex -44.6197 53.9359 16
    endloop
  endfacet
  facet normal -0.684547 0.728969 0
    outer loop
      vertex -51.0278 47.9183 16
      vertex -44.6197 53.9359 0
      vertex -51.0278 47.9183 0
    endloop
  endfacet
  facet normal -0.368127 0.929776 0
    outer loop
      vertex -21.6312 66.574 0
      vertex -29.8046 63.3379 16
      vertex -21.6312 66.574 16
    endloop
  endfacet
  facet normal -0.368127 0.929776 0
    outer loop
      vertex -29.8046 63.3379 16
      vertex -21.6312 66.574 0
      vertex -29.8046 63.3379 0
    endloop
  endfacet
  facet normal 0.904828 0.425778 1.23335e-20
    outer loop
      vertex 65.0844 25.7687 16
      vertex 61.3415 33.7228 0
      vertex 61.3415 33.7228 16
    endloop
  endfacet
  facet normal 0.904828 0.425778 1.23335e-20
    outer loop
      vertex 61.3415 33.7228 0
      vertex 65.0844 25.7687 16
      vertex 65.0844 25.7687 0
    endloop
  endfacet
  facet normal 0.844326 0.535829 -2.49384e-17
    outer loop
      vertex 61.3415 33.7228 16
      vertex 56.6312 41.145 0
      vertex 56.6312 41.145 16
    endloop
  endfacet
  facet normal 0.844326 0.535829 -2.49384e-17
    outer loop
      vertex 56.6312 41.145 0
      vertex 61.3415 33.7228 16
      vertex 61.3415 33.7228 0
    endloop
  endfacet
  facet normal 0.368127 0.929776 -0
    outer loop
      vertex 29.8046 63.3379 0
      vertex 21.6312 66.574 16
      vertex 29.8046 63.3379 16
    endloop
  endfacet
  facet normal 0.368127 0.929776 0
    outer loop
      vertex 21.6312 66.574 16
      vertex 29.8046 63.3379 0
      vertex 21.6312 66.574 0
    endloop
  endfacet
  facet normal 0.481751 0.876308 -0
    outer loop
      vertex 37.5079 59.103 0
      vertex 29.8046 63.3379 16
      vertex 37.5079 59.103 16
    endloop
  endfacet
  facet normal 0.481751 0.876308 0
    outer loop
      vertex 29.8046 63.3379 16
      vertex 37.5079 59.103 0
      vertex 29.8046 63.3379 0
    endloop
  endfacet
  facet normal -0.904828 0.425778 -1.23335e-20
    outer loop
      vertex -65.0844 25.7687 0
      vertex -61.3415 33.7228 16
      vertex -61.3415 33.7228 0
    endloop
  endfacet
  facet normal -0.904828 0.425778 -1.23335e-20
    outer loop
      vertex -61.3415 33.7228 16
      vertex -65.0844 25.7687 0
      vertex -65.0844 25.7687 16
    endloop
  endfacet
  facet normal -0.770511 0.637427 1.71437e-17
    outer loop
      vertex -56.6312 41.145 0
      vertex -51.0278 47.9183 16
      vertex -51.0278 47.9183 0
    endloop
  endfacet
  facet normal -0.770511 0.637427 1.71437e-17
    outer loop
      vertex -51.0278 47.9183 16
      vertex -56.6312 41.145 0
      vertex -56.6312 41.145 16
    endloop
  endfacet
  facet normal 0 0 1
    outer loop
      vertex 55 0 16
      vertex 70 0 16
      vertex 69.448 8.77333 16
    endloop
  endfacet
  facet normal 0 0 1
    outer loop
      vertex 54.5663 6.89333 16
      vertex 69.448 8.77333 16
      vertex 67.8008 17.4083 16
    endloop
  endfacet
  facet normal 0 0 1
    outer loop
      vertex 70 0 16
      vertex 55 0 16
      vertex 69.448 -8.77333 16
    endloop
  endfacet
  facet normal 0 0 1
    outer loop
      vertex 53.2721 13.6779 16
      vertex 67.8008 17.4083 16
      vertex 65.0844 25.7687 16
    endloop
  endfacet
  facet normal -0 0 1
    outer loop
      vertex 54.5663 -6.89333 16
      vertex 69.448 -8.77333 16
      vertex 55 0 16
    endloop
  endfacet
  facet normal 0 0 1
    outer loop
      vertex 51.1377 20.2468 16
      vertex 65.0844 25.7687 16
      vertex 61.3415 33.7228 16
    endloop
  endfacet
  facet normal 0 0 1
    outer loop
      vertex 69.448 -8.77333 16
      vertex 54.5663 -6.89333 16
      vertex 67.8008 -17.4083 16
    endloop
  endfacet
  facet normal 0 0 1
    outer loop
      vertex 48.1969 26.4965 16
      vertex 61.3415 33.7228 16
      vertex 56.6312 41.145 16
    endloop
  endfacet
  facet normal -0 0 1
    outer loop
      vertex 53.2721 -13.6779 16
      vertex 67.8008 -17.4083 16
      vertex 54.5663 -6.89333 16
    endloop
  endfacet
  facet normal 0 0 1
    outer loop
      vertex 67.8008 -17.4083 16
      vertex 53.2721 -13.6779 16
      vertex 65.0844 -25.7687 16
    endloop
  endfacet
  facet normal 0 0 1
    outer loop
      vertex 69.448 8.77333 16
      vertex 54.5663 6.89333 16
      vertex 55 0 16
    endloop
  endfacet
  facet normal 0 0 1
    outer loop
      vertex 67.8008 17.4083 16
      vertex 53.2721 13.6779 16
      vertex 54.5663 6.89333 16
    endloop
  endfacet
  facet normal 0 0 1
    outer loop
      vertex 65.0844 25.7687 16
      vertex 51.1377 20.2468 16
      vertex 53.2721 13.6779 16
    endloop
  endfacet
  facet normal 0 0 1
    outer loop
      vertex 44.4959 32.3282 16
      vertex 56.6312 41.145 16
      vertex 51.0278 47.9183 16
    endloop
  endfacet
  facet normal 0 0 1
    outer loop
      vertex 61.3415 33.7228 16
      vertex 48.1969 26.4965 16
      vertex 51.1377 20.2468 16
    endloop
  endfacet
  facet normal 0 0 1
    outer loop
      vertex 40.0933 37.6501 16
      vertex 51.0278 47.9183 16
      vertex 44.6197 53.9359 16
    endloop
  endfacet
  facet normal 0 0 1
    outer loop
      vertex 56.6312 41.145 16
      vertex 44.4959 32.3282 16
      vertex 48.1969 26.4965 16
    endloop
  endfacet
  facet normal 0 0 1
    outer loop
      vertex 51.0278 47.9183 16
      vertex 40.0933 37.6501 16
      vertex 44.4959 32.3282 16
    endloop
  endfacet
  facet normal 0 0 1
    outer loop
      vertex 35.0583 42.3782 16
      vertex 44.6197 53.9359 16
      vertex 37.5079 59.103 16
    endloop
  endfacet
  facet normal 0 0 1
    outer loop
      vertex 44.6197 53.9359 16
      vertex 35.0583 42.3782 16
      vertex 40.0933 37.6501 16
    endloop
  endfacet
  facet normal 0 0 1
    outer loop
      vertex 29.4705 46.438 16
      vertex 37.5079 59.103 16
      vertex 29.8046 63.3379 16
    endloop
  endfacet
  facet normal 0 0 1
    outer loop
      vertex 37.5079 59.103 16
      vertex 29.4705 46.438 16
      vertex 35.0583 42.3782 16
    endloop
  endfacet
  facet normal 0 0 1
    outer loop
      vertex 29.8046 63.3379 16
      vertex 23.4179 49.7655 16
      vertex 29.4705 46.438 16
    endloop
  endfacet
  facet normal 0 0 1
    outer loop
      vertex 21.6312 66.574 16
      vertex 23.4179 49.7655 16
      vertex 29.8046 63.3379 16
    endloop
  endfacet
  facet normal 0 0 1
    outer loop
      vertex 21.6312 66.574 16
      vertex 16.9959 52.3081 16
      vertex 23.4179 49.7655 16
    endloop
  endfacet
  facet normal 0 0 1
    outer loop
      vertex 13.1167 68.7601 16
      vertex 16.9959 52.3081 16
      vertex 21.6312 66.574 16
    endloop
  endfacet
  facet normal 0 0 1
    outer loop
      vertex 13.1167 68.7601 16
      vertex 10.306 54.0258 16
      vertex 16.9959 52.3081 16
    endloop
  endfacet
  facet normal 0 0 1
    outer loop
      vertex 4.39534 69.8619 16
      vertex 10.306 54.0258 16
      vertex 13.1167 68.7601 16
    endloop
  endfacet
  facet normal 0 0 1
    outer loop
      vertex 4.39534 69.8619 16
      vertex 3.45348 54.8915 16
      vertex 10.306 54.0258 16
    endloop
  endfacet
  facet normal 0 0 1
    outer loop
      vertex 4.39534 69.8619 16
      vertex -3.45348 54.8915 16
      vertex 3.45348 54.8915 16
    endloop
  endfacet
  facet normal -0 0 1
    outer loop
      vertex -4.39534 69.8619 16
      vertex -3.45348 54.8915 16
      vertex 4.39534 69.8619 16
    endloop
  endfacet
  facet normal 0 0 1
    outer loop
      vertex -4.39534 69.8619 16
      vertex -10.306 54.0258 16
      vertex -3.45348 54.8915 16
    endloop
  endfacet
  facet normal -0 0 1
    outer loop
      vertex -13.1167 68.7601 16
      vertex -10.306 54.0258 16
      vertex -4.39534 69.8619 16
    endloop
  endfacet
  facet normal 0 0 1
    outer loop
      vertex -13.1167 68.7601 16
      vertex -16.9959 52.3081 16
      vertex -10.306 54.0258 16
    endloop
  endfacet
  facet normal -0 0 1
    outer loop
      vertex -21.6312 66.574 16
      vertex -16.9959 52.3081 16
      vertex -13.1167 68.7601 16
    endloop
  endfacet
  facet normal 0 0 1
    outer loop
      vertex -21.6312 66.574 16
      vertex -23.4179 49.7655 16
      vertex -16.9959 52.3081 16
    endloop
  endfacet
  facet normal -0 0 1
    outer loop
      vertex -29.8046 63.3379 16
      vertex -23.4179 49.7655 16
      vertex -21.6312 66.574 16
    endloop
  endfacet
  facet normal 0 0 1
    outer loop
      vertex -23.4179 49.7655 16
      vertex -29.8046 63.3379 16
      vertex -29.4705 46.438 16
    endloop
  endfacet
  facet normal -0 0 1
    outer loop
      vertex -37.5079 59.103 16
      vertex -29.4705 46.438 16
      vertex -29.8046 63.3379 16
    endloop
  endfacet
  facet normal 0 0 1
    outer loop
      vertex -29.4705 46.438 16
      vertex -37.5079 59.103 16
      vertex -35.0583 42.3782 16
    endloop
  endfacet
  facet normal -0 0 1
    outer loop
      vertex -44.6197 53.9359 16
      vertex -35.0583 42.3782 16
      vertex -37.5079 59.103 16
    endloop
  endfacet
  facet normal 0 0 1
    outer loop
      vertex -35.0583 42.3782 16
      vertex -44.6197 53.9359 16
      vertex -40.0933 37.6501 16
    endloop
  endfacet
  facet normal -0 0 1
    outer loop
      vertex -51.0278 47.9183 16
      vertex -40.0933 37.6501 16
      vertex -44.6197 53.9359 16
    endloop
  endfacet
  facet normal 0 0 1
    outer loop
      vertex -40.0933 37.6501 16
      vertex -51.0278 47.9183 16
      vertex -44.4959 32.3282 16
    endloop
  endfacet
  facet normal -0 0 1
    outer loop
      vertex -56.6312 41.145 16
      vertex -44.4959 32.3282 16
      vertex -51.0278 47.9183 16
    endloop
  endfacet
  facet normal 0 0 1
    outer loop
      vertex -44.4959 32.3282 16
      vertex -56.6312 41.145 16
      vertex -48.1969 26.4965 16
    endloop
  endfacet
  facet normal -0 0 1
    outer loop
      vertex -61.3415 33.7228 16
      vertex -48.1969 26.4965 16
      vertex -56.6312 41.145 16
    endloop
  endfacet
  facet normal 0 0 1
    outer loop
      vertex -48.1969 26.4965 16
      vertex -61.3415 33.7228 16
      vertex -51.1377 20.2468 16
    endloop
  endfacet
  facet normal 0 0 1
    outer loop
      vertex -51.1377 20.2468 16
      vertex -65.0844 25.7687 16
      vertex -53.2721 13.6779 16
    endloop
  endfacet
  facet normal -0 0 1
    outer loop
      vertex -65.0844 25.7687 16
      vertex -51.1377 20.2468 16
      vertex -61.3415 33.7228 16
    endloop
  endfacet
  facet normal -0 0 1
    outer loop
      vertex 51.1377 -20.2468 16
      vertex 65.0844 -25.7687 16
      vertex 53.2721 -13.6779 16
    endloop
  endfacet
  facet normal 0 0 1
    outer loop
      vertex 65.0844 -25.7687 16
      vertex 51.1377 -20.2468 16
      vertex 61.3415 -33.7228 16
    endloop
  endfacet
  facet normal -0 0 1
    outer loop
      vertex 48.1969 -26.4965 16
      vertex 61.3415 -33.7228 16
      vertex 51.1377 -20.2468 16
    endloop
  endfacet
  facet normal 0 0 1
    outer loop
      vertex 61.3415 -33.7228 16
      vertex 48.1969 -26.4965 16
      vertex 56.6312 -41.145 16
    endloop
  endfacet
  facet normal -0 0 1
    outer loop
      vertex 44.4959 -32.3282 16
      vertex 56.6312 -41.145 16
      vertex 48.1969 -26.4965 16
    endloop
  endfacet
  facet normal 0 0 1
    outer loop
      vertex 56.6312 -41.145 16
      vertex 44.4959 -32.3282 16
      vertex 51.0278 -47.9183 16
    endloop
  endfacet
  facet normal -0 0 1
    outer loop
      vertex 40.0933 -37.6501 16
      vertex 51.0278 -47.9183 16
      vertex 44.4959 -32.3282 16
    endloop
  endfacet
  facet normal 0 0 1
    outer loop
      vertex 51.0278 -47.9183 16
      vertex 40.0933 -37.6501 16
      vertex 44.6197 -53.9359 16
    endloop
  endfacet
  facet normal -0 0 1
    outer loop
      vertex 35.0583 -42.3782 16
      vertex 44.6197 -53.9359 16
      vertex 40.0933 -37.6501 16
    endloop
  endfacet
  facet normal 0 0 1
    outer loop
      vertex 44.6197 -53.9359 16
      vertex 35.0583 -42.3782 16
      vertex 37.5079 -59.103 16
    endloop
  endfacet
  facet normal -0 0 1
    outer loop
      vertex 29.4705 -46.438 16
      vertex 37.5079 -59.103 16
      vertex 35.0583 -42.3782 16
    endloop
  endfacet
  facet normal 0 0 1
    outer loop
      vertex 37.5079 -59.103 16
      vertex 29.4705 -46.438 16
      vertex 29.8046 -63.3379 16
    endloop
  endfacet
  facet normal -0 0 1
    outer loop
      vertex 23.4179 -49.7655 16
      vertex 29.8046 -63.3379 16
      vertex 29.4705 -46.438 16
    endloop
  endfacet
  facet normal 0 0 1
    outer loop
      vertex 23.4179 -49.7655 16
      vertex 21.6312 -66.574 16
      vertex 29.8046 -63.3379 16
    endloop
  endfacet
  facet normal -0 0 1
    outer loop
      vertex 16.9959 -52.3081 16
      vertex 21.6312 -66.574 16
      vertex 23.4179 -49.7655 16
    endloop
  endfacet
  facet normal 0 0 1
    outer loop
      vertex 16.9959 -52.3081 16
      vertex 13.1167 -68.7601 16
      vertex 21.6312 -66.574 16
    endloop
  endfacet
  facet normal -0 0 1
    outer loop
      vertex 10.306 -54.0258 16
      vertex 13.1167 -68.7601 16
      vertex 16.9959 -52.3081 16
    endloop
  endfacet
  facet normal 0 0 1
    outer loop
      vertex 10.306 -54.0258 16
      vertex 4.39534 -69.8619 16
      vertex 13.1167 -68.7601 16
    endloop
  endfacet
  facet normal -0 0 1
    outer loop
      vertex 3.45348 -54.8915 16
      vertex 4.39534 -69.8619 16
      vertex 10.306 -54.0258 16
    endloop
  endfacet
  facet normal -0 0 1
    outer loop
      vertex -3.45348 -54.8915 16
      vertex 4.39534 -69.8619 16
      vertex 3.45348 -54.8915 16
    endloop
  endfacet
  facet normal 0 0 1
    outer loop
      vertex -3.45348 -54.8915 16
      vertex -4.39534 -69.8619 16
      vertex 4.39534 -69.8619 16
    endloop
  endfacet
  facet normal 0 0 1
    outer loop
      vertex -10.306 -54.0258 16
      vertex -4.39534 -69.8619 16
      vertex -3.45348 -54.8915 16
    endloop
  endfacet
  facet normal 0 0 1
    outer loop
      vertex -10.306 -54.0258 16
      vertex -13.1167 -68.7601 16
      vertex -4.39534 -69.8619 16
    endloop
  endfacet
  facet normal 0 0 1
    outer loop
      vertex -16.9959 -52.3081 16
      vertex -13.1167 -68.7601 16
      vertex -10.306 -54.0258 16
    endloop
  endfacet
  facet normal 0 0 1
    outer loop
      vertex -16.9959 -52.3081 16
      vertex -21.6312 -66.574 16
      vertex -13.1167 -68.7601 16
    endloop
  endfacet
  facet normal 0 0 1
    outer loop
      vertex -23.4179 -49.7655 16
      vertex -21.6312 -66.574 16
      vertex -16.9959 -52.3081 16
    endloop
  endfacet
  facet normal 0 0 1
    outer loop
      vertex -29.8046 -63.3379 16
      vertex -23.4179 -49.7655 16
      vertex -29.4705 -46.438 16
    endloop
  endfacet
  facet normal 0 0 1
    outer loop
      vertex -23.4179 -49.7655 16
      vertex -29.8046 -63.3379 16
      vertex -21.6312 -66.574 16
    endloop
  endfacet
  facet normal 0 0 1
    outer loop
      vertex -37.5079 -59.103 16
      vertex -29.4705 -46.438 16
      vertex -35.0583 -42.3782 16
    endloop
  endfacet
  facet normal 0 0 1
    outer loop
      vertex -29.4705 -46.438 16
      vertex -37.5079 -59.103 16
      vertex -29.8046 -63.3379 16
    endloop
  endfacet
  facet normal 0 0 1
    outer loop
      vertex -44.6197 -53.9359 16
      vertex -35.0583 -42.3782 16
      vertex -40.0933 -37.6501 16
    endloop
  endfacet
  facet normal 0 0 1
    outer loop
      vertex -51.0278 -47.9183 16
      vertex -40.0933 -37.6501 16
      vertex -44.4959 -32.3282 16
    endloop
  endfacet
  facet normal 0 0 1
    outer loop
      vertex -35.0583 -42.3782 16
      vertex -44.6197 -53.9359 16
      vertex -37.5079 -59.103 16
    endloop
  endfacet
  facet normal 0 0 1
    outer loop
      vertex -56.6312 -41.145 16
      vertex -44.4959 -32.3282 16
      vertex -48.1969 -26.4965 16
    endloop
  endfacet
  facet normal 0 0 1
    outer loop
      vertex -40.0933 -37.6501 16
      vertex -51.0278 -47.9183 16
      vertex -44.6197 -53.9359 16
    endloop
  endfacet
  facet normal 0 0 1
    outer loop
      vertex -61.3415 -33.7228 16
      vertex -48.1969 -26.4965 16
      vertex -51.1377 -20.2468 16
    endloop
  endfacet
  facet normal 0 0 1
    outer loop
      vertex -65.0844 -25.7687 16
      vertex -51.1377 -20.2468 16
      vertex -53.2721 -13.6779 16
    endloop
  endfacet
  facet normal 0 0 1
    outer loop
      vertex -67.8008 -17.4083 16
      vertex -53.2721 -13.6779 16
      vertex -54.5663 -6.89333 16
    endloop
  endfacet
  facet normal 0 0 1
    outer loop
      vertex -44.4959 -32.3282 16
      vertex -56.6312 -41.145 16
      vertex -51.0278 -47.9183 16
    endloop
  endfacet
  facet normal 0 0 1
    outer loop
      vertex -69.448 -8.77333 16
      vertex -54.5663 -6.89333 16
      vertex -55 0 16
    endloop
  endfacet
  facet normal -0 0 1
    outer loop
      vertex -67.8008 17.4083 16
      vertex -53.2721 13.6779 16
      vertex -65.0844 25.7687 16
    endloop
  endfacet
  facet normal 0 0 1
    outer loop
      vertex -53.2721 13.6779 16
      vertex -67.8008 17.4083 16
      vertex -54.5663 6.89333 16
    endloop
  endfacet
  facet normal 0 0 1
    outer loop
      vertex -48.1969 -26.4965 16
      vertex -61.3415 -33.7228 16
      vertex -56.6312 -41.145 16
    endloop
  endfacet
  facet normal -0 0 1
    outer loop
      vertex -69.448 8.77333 16
      vertex -54.5663 6.89333 16
      vertex -67.8008 17.4083 16
    endloop
  endfacet
  facet normal 0 0 1
    outer loop
      vertex -51.1377 -20.2468 16
      vertex -65.0844 -25.7687 16
      vertex -61.3415 -33.7228 16
    endloop
  endfacet
  facet normal 0 0 1
    outer loop
      vertex -54.5663 6.89333 16
      vertex -69.448 8.77333 16
      vertex -55 0 16
    endloop
  endfacet
  facet normal 0 0 1
    outer loop
      vertex -53.2721 -13.6779 16
      vertex -67.8008 -17.4083 16
      vertex -65.0844 -25.7687 16
    endloop
  endfacet
  facet normal 0 0 1
    outer loop
      vertex -70 0 16
      vertex -55 0 16
      vertex -69.448 8.77333 16
    endloop
  endfacet
  facet normal 0 0 1
    outer loop
      vertex -54.5663 -6.89333 16
      vertex -69.448 -8.77333 16
      vertex -67.8008 -17.4083 16
    endloop
  endfacet
  facet normal 0 0 1
    outer loop
      vertex -55 0 16
      vertex -70 0 16
      vertex -69.448 -8.77333 16
    endloop
  endfacet
  facet normal -0.125337 0.992114 0
    outer loop
      vertex -4.39534 69.8619 0
      vertex -13.1167 68.7601 16
      vertex -4.39534 69.8619 16
    endloop
  endfacet
  facet normal -0.125337 0.992114 0
    outer loop
      vertex -13.1167 68.7601 16
      vertex -4.39534 69.8619 0
      vertex -13.1167 68.7601 0
    endloop
  endfacet
  facet normal 0.982287 -0.18738 -5.40209e-18
    outer loop
      vertex 67.8008 -17.4083 16
      vertex 69.448 -8.77333 0
      vertex 69.448 -8.77333 16
    endloop
  endfacet
  facet normal 0.982287 -0.18738 -5.40209e-18
    outer loop
      vertex 69.448 -8.77333 0
      vertex 67.8008 -17.4083 16
      vertex 67.8008 -17.4083 0
    endloop
  endfacet
  facet normal 0 0 -1
    outer loop
      vertex 55 0 0
      vertex 70 0 0
      vertex 69.448 -8.77333 0
    endloop
  endfacet
  facet normal 0 0 -1
    outer loop
      vertex 54.5663 -6.89333 0
      vertex 69.448 -8.77333 0
      vertex 67.8008 -17.4083 0
    endloop
  endfacet
  facet normal 0 0 -1
    outer loop
      vertex 70 0 0
      vertex 55 0 0
      vertex 69.448 8.77333 0
    endloop
  endfacet
  facet normal 0 0 -1
    outer loop
      vertex 53.2721 -13.6779 0
      vertex 67.8008 -17.4083 0
      vertex 65.0844 -25.7687 0
    endloop
  endfacet
  facet normal 0 0 -1
    outer loop
      vertex 54.5663 6.89333 0
      vertex 69.448 8.77333 0
      vertex 55 0 0
    endloop
  endfacet
  facet normal 0 0 -1
    outer loop
      vertex 51.1377 -20.2468 0
      vertex 65.0844 -25.7687 0
      vertex 61.3415 -33.7228 0
    endloop
  endfacet
  facet normal -0 0 -1
    outer loop
      vertex 69.448 8.77333 0
      vertex 54.5663 6.89333 0
      vertex 67.8008 17.4083 0
    endloop
  endfacet
  facet normal 0 0 -1
    outer loop
      vertex 48.1969 -26.4965 0
      vertex 61.3415 -33.7228 0
      vertex 56.6312 -41.145 0
    endloop
  endfacet
  facet normal 0 0 -1
    outer loop
      vertex 53.2721 13.6779 0
      vertex 67.8008 17.4083 0
      vertex 54.5663 6.89333 0
    endloop
  endfacet
  facet normal -0 0 -1
    outer loop
      vertex 67.8008 17.4083 0
      vertex 53.2721 13.6779 0
      vertex 65.0844 25.7687 0
    endloop
  endfacet
  facet normal 0 0 -1
    outer loop
      vertex 69.448 -8.77333 0
      vertex 54.5663 -6.89333 0
      vertex 55 0 0
    endloop
  endfacet
  facet normal 0 0 -1
    outer loop
      vertex 67.8008 -17.4083 0
      vertex 53.2721 -13.6779 0
      vertex 54.5663 -6.89333 0
    endloop
  endfacet
  facet normal 0 0 -1
    outer loop
      vertex 65.0844 -25.7687 0
      vertex 51.1377 -20.2468 0
      vertex 53.2721 -13.6779 0
    endloop
  endfacet
  facet normal 0 0 -1
    outer loop
      vertex 44.4959 -32.3282 0
      vertex 56.6312 -41.145 0
      vertex 51.0278 -47.9183 0
    endloop
  endfacet
  facet normal 0 0 -1
    outer loop
      vertex 61.3415 -33.7228 0
      vertex 48.1969 -26.4965 0
      vertex 51.1377 -20.2468 0
    endloop
  endfacet
  facet normal 0 0 -1
    outer loop
      vertex 40.0933 -37.6501 0
      vertex 51.0278 -47.9183 0
      vertex 44.6197 -53.9359 0
    endloop
  endfacet
  facet normal 0 0 -1
    outer loop
      vertex 56.6312 -41.145 0
      vertex 44.4959 -32.3282 0
      vertex 48.1969 -26.4965 0
    endloop
  endfacet
  facet normal 0 0 -1
    outer loop
      vertex 51.0278 -47.9183 0
      vertex 40.0933 -37.6501 0
      vertex 44.4959 -32.3282 0
    endloop
  endfacet
  facet normal 0 0 -1
    outer loop
      vertex 35.0583 -42.3782 0
      vertex 44.6197 -53.9359 0
      vertex 37.5079 -59.103 0
    endloop
  endfacet
  facet normal 0 0 -1
    outer loop
      vertex 44.6197 -53.9359 0
      vertex 35.0583 -42.3782 0
      vertex 40.0933 -37.6501 0
    endloop
  endfacet
  facet normal 0 0 -1
    outer loop
      vertex 29.4705 -46.438 0
      vertex 37.5079 -59.103 0
      vertex 29.8046 -63.3379 0
    endloop
  endfacet
  facet normal 0 0 -1
    outer loop
      vertex 37.5079 -59.103 0
      vertex 29.4705 -46.438 0
      vertex 35.0583 -42.3782 0
    endloop
  endfacet
  facet normal 0 0 -1
    outer loop
      vertex 29.8046 -63.3379 0
      vertex 23.4179 -49.7655 0
      vertex 29.4705 -46.438 0
    endloop
  endfacet
  facet normal 0 0 -1
    outer loop
      vertex 21.6312 -66.574 0
      vertex 23.4179 -49.7655 0
      vertex 29.8046 -63.3379 0
    endloop
  endfacet
  facet normal 0 0 -1
    outer loop
      vertex 21.6312 -66.574 0
      vertex 16.9959 -52.3081 0
      vertex 23.4179 -49.7655 0
    endloop
  endfacet
  facet normal 0 0 -1
    outer loop
      vertex 13.1167 -68.7601 0
      vertex 16.9959 -52.3081 0
      vertex 21.6312 -66.574 0
    endloop
  endfacet
  facet normal 0 0 -1
    outer loop
      vertex 13.1167 -68.7601 0
      vertex 10.306 -54.0258 0
      vertex 16.9959 -52.3081 0
    endloop
  endfacet
  facet normal 0 0 -1
    outer loop
      vertex 4.39534 -69.8619 0
      vertex 10.306 -54.0258 0
      vertex 13.1167 -68.7601 0
    endloop
  endfacet
  facet normal 0 0 -1
    outer loop
      vertex 4.39534 -69.8619 0
      vertex 3.45348 -54.8915 0
      vertex 10.306 -54.0258 0
    endloop
  endfacet
  facet normal 0 0 -1
    outer loop
      vertex 4.39534 -69.8619 0
      vertex -3.45348 -54.8915 0
      vertex 3.45348 -54.8915 0
    endloop
  endfacet
  facet normal 0 0 -1
    outer loop
      vertex -4.39534 -69.8619 0
      vertex -3.45348 -54.8915 0
      vertex 4.39534 -69.8619 0
    endloop
  endfacet
  facet normal 0 0 -1
    outer loop
      vertex -4.39534 -69.8619 0
      vertex -10.306 -54.0258 0
      vertex -3.45348 -54.8915 0
    endloop
  endfacet
  facet normal 0 0 -1
    outer loop
      vertex -13.1167 -68.7601 0
      vertex -10.306 -54.0258 0
      vertex -4.39534 -69.8619 0
    endloop
  endfacet
  facet normal 0 0 -1
    outer loop
      vertex -13.1167 -68.7601 0
      vertex -16.9959 -52.3081 0
      vertex -10.306 -54.0258 0
    endloop
  endfacet
  facet normal 0 0 -1
    outer loop
      vertex -21.6312 -66.574 0
      vertex -16.9959 -52.3081 0
      vertex -13.1167 -68.7601 0
    endloop
  endfacet
  facet normal 0 0 -1
    outer loop
      vertex -21.6312 -66.574 0
      vertex -23.4179 -49.7655 0
      vertex -16.9959 -52.3081 0
    endloop
  endfacet
  facet normal 0 0 -1
    outer loop
      vertex -29.8046 -63.3379 0
      vertex -23.4179 -49.7655 0
      vertex -21.6312 -66.574 0
    endloop
  endfacet
  facet normal -0 0 -1
    outer loop
      vertex -23.4179 -49.7655 0
      vertex -29.8046 -63.3379 0
      vertex -29.4705 -46.438 0
    endloop
  endfacet
  facet normal 0 0 -1
    outer loop
      vertex -37.5079 -59.103 0
      vertex -29.4705 -46.438 0
      vertex -29.8046 -63.3379 0
    endloop
  endfacet
  facet normal -0 0 -1
    outer loop
      vertex -29.4705 -46.438 0
      vertex -37.5079 -59.103 0
      vertex -35.0583 -42.3782 0
    endloop
  endfacet
  facet normal 0 0 -1
    outer loop
      vertex -44.6197 -53.9359 0
      vertex -35.0583 -42.3782 0
      vertex -37.5079 -59.103 0
    endloop
  endfacet
  facet normal -0 0 -1
    outer loop
      vertex -35.0583 -42.3782 0
      vertex -44.6197 -53.9359 0
      vertex -40.0933 -37.6501 0
    endloop
  endfacet
  facet normal 0 0 -1
    outer loop
      vertex -51.0278 -47.9183 0
      vertex -40.0933 -37.6501 0
      vertex -44.6197 -53.9359 0
    endloop
  endfacet
  facet normal -0 0 -1
    outer loop
      vertex -40.0933 -37.6501 0
      vertex -51.0278 -47.9183 0
      vertex -44.4959 -32.3282 0
    endloop
  endfacet
  facet normal 0 0 -1
    outer loop
      vertex -56.6312 -41.145 0
      vertex -44.4959 -32.3282 0
      vertex -51.0278 -47.9183 0
    endloop
  endfacet
  facet normal -0 0 -1
    outer loop
      vertex -44.4959 -32.3282 0
      vertex -56.6312 -41.145 0
      vertex -48.1969 -26.4965 0
    endloop
  endfacet
  facet normal 0 0 -1
    outer loop
      vertex -61.3415 -33.7228 0
      vertex -48.1969 -26.4965 0
      vertex -56.6312 -41.145 0
    endloop
  endfacet
  facet normal -0 0 -1
    outer loop
      vertex -48.1969 -26.4965 0
      vertex -61.3415 -33.7228 0
      vertex -51.1377 -20.2468 0
    endloop
  endfacet
  facet normal -0 0 -1
    outer loop
      vertex -51.1377 -20.2468 0
      vertex -65.0844 -25.7687 0
      vertex -53.2721 -13.6779 0
    endloop
  endfacet
  facet normal 0 0 -1
    outer loop
      vertex -65.0844 -25.7687 0
      vertex -51.1377 -20.2468 0
      vertex -61.3415 -33.7228 0
    endloop
  endfacet
  facet normal 0 0 -1
    outer loop
      vertex 51.1377 20.2468 0
      vertex 65.0844 25.7687 0
      vertex 53.2721 13.6779 0
    endloop
  endfacet
  facet normal -0 0 -1
    outer loop
      vertex 65.0844 25.7687 0
      vertex 51.1377 20.2468 0
      vertex 61.3415 33.7228 0
    endloop
  endfacet
  facet normal 0 0 -1
    outer loop
      vertex 48.1969 26.4965 0
      vertex 61.3415 33.7228 0
      vertex 51.1377 20.2468 0
    endloop
  endfacet
  facet normal -0 0 -1
    outer loop
      vertex 61.3415 33.7228 0
      vertex 48.1969 26.4965 0
      vertex 56.6312 41.145 0
    endloop
  endfacet
  facet normal 0 0 -1
    outer loop
      vertex 44.4959 32.3282 0
      vertex 56.6312 41.145 0
      vertex 48.1969 26.4965 0
    endloop
  endfacet
  facet normal -0 0 -1
    outer loop
      vertex 56.6312 41.145 0
      vertex 44.4959 32.3282 0
      vertex 51.0278 47.9183 0
    endloop
  endfacet
  facet normal 0 0 -1
    outer loop
      vertex 40.0933 37.6501 0
      vertex 51.0278 47.9183 0
      vertex 44.4959 32.3282 0
    endloop
  endfacet
  facet normal -0 0 -1
    outer loop
      vertex 51.0278 47.9183 0
      vertex 40.0933 37.6501 0
      vertex 44.6197 53.9359 0
    endloop
  endfacet
  facet normal 0 0 -1
    outer loop
      vertex 35.0583 42.3782 0
      vertex 44.6197 53.9359 0
      vertex 40.0933 37.6501 0
    endloop
  endfacet
  facet normal -0 0 -1
    outer loop
      vertex 44.6197 53.9359 0
      vertex 35.0583 42.3782 0
      vertex 37.5079 59.103 0
    endloop
  endfacet
  facet normal 0 0 -1
    outer loop
      vertex 29.4705 46.438 0
      vertex 37.5079 59.103 0
      vertex 35.0583 42.3782 0
    endloop
  endfacet
  facet normal -0 0 -1
    outer loop
      vertex 37.5079 59.103 0
      vertex 29.4705 46.438 0
      vertex 29.8046 63.3379 0
    endloop
  endfacet
  facet normal 0 0 -1
    outer loop
      vertex 23.4179 49.7655 0
      vertex 29.8046 63.3379 0
      vertex 29.4705 46.438 0
    endloop
  endfacet
  facet normal 0 0 -1
    outer loop
      vertex 23.4179 49.7655 0
      vertex 21.6312 66.574 0
      vertex 29.8046 63.3379 0
    endloop
  endfacet
  facet normal 0 0 -1
    outer loop
      vertex 16.9959 52.3081 0
      vertex 21.6312 66.574 0
      vertex 23.4179 49.7655 0
    endloop
  endfacet
  facet normal 0 0 -1
    outer loop
      vertex 16.9959 52.3081 0
      vertex 13.1167 68.7601 0
      vertex 21.6312 66.574 0
    endloop
  endfacet
  facet normal 0 0 -1
    outer loop
      vertex 10.306 54.0258 0
      vertex 13.1167 68.7601 0
      vertex 16.9959 52.3081 0
    endloop
  endfacet
  facet normal 0 0 -1
    outer loop
      vertex 10.306 54.0258 0
      vertex 4.39534 69.8619 0
      vertex 13.1167 68.7601 0
    endloop
  endfacet
  facet normal 0 0 -1
    outer loop
      vertex 3.45348 54.8915 0
      vertex 4.39534 69.8619 0
      vertex 10.306 54.0258 0
    endloop
  endfacet
  facet normal 0 0 -1
    outer loop
      vertex -3.45348 54.8915 0
      vertex 4.39534 69.8619 0
      vertex 3.45348 54.8915 0
    endloop
  endfacet
  facet normal 0 0 -1
    outer loop
      vertex -3.45348 54.8915 0
      vertex -4.39534 69.8619 0
      vertex 4.39534 69.8619 0
    endloop
  endfacet
  facet normal 0 0 -1
    outer loop
      vertex -10.306 54.0258 0
      vertex -4.39534 69.8619 0
      vertex -3.45348 54.8915 0
    endloop
  endfacet
  facet normal 0 0 -1
    outer loop
      vertex -10.306 54.0258 0
      vertex -13.1167 68.7601 0
      vertex -4.39534 69.8619 0
    endloop
  endfacet
  facet normal 0 0 -1
    outer loop
      vertex -16.9959 52.3081 0
      vertex -13.1167 68.7601 0
      vertex -10.306 54.0258 0
    endloop
  endfacet
  facet normal 0 0 -1
    outer loop
      vertex -16.9959 52.3081 0
      vertex -21.6312 66.574 0
      vertex -13.1167 68.7601 0
    endloop
  endfacet
  facet normal 0 0 -1
    outer loop
      vertex -23.4179 49.7655 0
      vertex -21.6312 66.574 0
      vertex -16.9959 52.3081 0
    endloop
  endfacet
  facet normal 0 0 -1
    outer loop
      vertex -29.8046 63.3379 0
      vertex -23.4179 49.7655 0
      vertex -29.4705 46.438 0
    endloop
  endfacet
  facet normal 0 0 -1
    outer loop
      vertex -23.4179 49.7655 0
      vertex -29.8046 63.3379 0
      vertex -21.6312 66.574 0
    endloop
  endfacet
  facet normal 0 0 -1
    outer loop
      vertex -37.5079 59.103 0
      vertex -29.4705 46.438 0
      vertex -35.0583 42.3782 0
    endloop
  endfacet
  facet normal 0 0 -1
    outer loop
      vertex -29.4705 46.438 0
      vertex -37.5079 59.103 0
      vertex -29.8046 63.3379 0
    endloop
  endfacet
  facet normal 0 0 -1
    outer loop
      vertex -44.6197 53.9359 0
      vertex -35.0583 42.3782 0
      vertex -40.0933 37.6501 0
    endloop
  endfacet
  facet normal 0 0 -1
    outer loop
      vertex -51.0278 47.9183 0
      vertex -40.0933 37.6501 0
      vertex -44.4959 32.3282 0
    endloop
  endfacet
  facet normal 0 0 -1
    outer loop
      vertex -35.0583 42.3782 0
      vertex -44.6197 53.9359 0
      vertex -37.5079 59.103 0
    endloop
  endfacet
  facet normal 0 0 -1
    outer loop
      vertex -56.6312 41.145 0
      vertex -44.4959 32.3282 0
      vertex -48.1969 26.4965 0
    endloop
  endfacet
  facet normal 0 0 -1
    outer loop
      vertex -40.0933 37.6501 0
      vertex -51.0278 47.9183 0
      vertex -44.6197 53.9359 0
    endloop
  endfacet
  facet normal 0 0 -1
    outer loop
      vertex -61.3415 33.7228 0
      vertex -48.1969 26.4965 0
      vertex -51.1377 20.2468 0
    endloop
  endfacet
  facet normal 0 0 -1
    outer loop
      vertex -65.0844 25.7687 0
      vertex -51.1377 20.2468 0
      vertex -53.2721 13.6779 0
    endloop
  endfacet
  facet normal 0 0 -1
    outer loop
      vertex -67.8008 17.4083 0
      vertex -53.2721 13.6779 0
      vertex -54.5663 6.89333 0
    endloop
  endfacet
  facet normal 0 0 -1
    outer loop
      vertex -44.4959 32.3282 0
      vertex -56.6312 41.145 0
      vertex -51.0278 47.9183 0
    endloop
  endfacet
  facet normal 0 0 -1
    outer loop
      vertex -69.448 8.77333 0
      vertex -54.5663 6.89333 0
      vertex -55 0 0
    endloop
  endfacet
  facet normal 0 0 -1
    outer loop
      vertex -67.8008 -17.4083 0
      vertex -53.2721 -13.6779 0
      vertex -65.0844 -25.7687 0
    endloop
  endfacet
  facet normal -0 0 -1
    outer loop
      vertex -53.2721 -13.6779 0
      vertex -67.8008 -17.4083 0
      vertex -54.5663 -6.89333 0
    endloop
  endfacet
  facet normal 0 0 -1
    outer loop
      vertex -48.1969 26.4965 0
      vertex -61.3415 33.7228 0
      vertex -56.6312 41.145 0
    endloop
  endfacet
  facet normal 0 0 -1
    outer loop
      vertex -69.448 -8.77333 0
      vertex -54.5663 -6.89333 0
      vertex -67.8008 -17.4083 0
    endloop
  endfacet
  facet normal 0 0 -1
    outer loop
      vertex -51.1377 20.2468 0
      vertex -65.0844 25.7687 0
      vertex -61.3415 33.7228 0
    endloop
  endfacet
  facet normal -0 0 -1
    outer loop
      vertex -54.5663 -6.89333 0
      vertex -69.448 -8.77333 0
      vertex -55 0 0
    endloop
  endfacet
  facet normal 0 0 -1
    outer loop
      vertex -53.2721 13.6779 0
      vertex -67.8008 17.4083 0
      vertex -65.0844 25.7687 0
    endloop
  endfacet
  facet normal 0 0 -1
    outer loop
      vertex -70 0 0
      vertex -55 0 0
      vertex -69.448 -8.77333 0
    endloop
  endfacet
  facet normal 0 0 -1
    outer loop
      vertex -54.5663 6.89333 0
      vertex -69.448 8.77333 0
      vertex -67.8008 17.4083 0
    endloop
  endfacet
  facet normal 0 0 -1
    outer loop
      vertex -55 0 0
      vertex -70 0 0
      vertex -69.448 8.77333 0
    endloop
  endfacet
  facet normal 0.125337 -0.992114 0
    outer loop
      vertex 4.39534 -69.8619 0
      vertex 13.1167 -68.7601 16
      vertex 4.39534 -69.8619 16
    endloop
  endfacet
  facet normal 0.125337 -0.992114 0
    outer loop
      vertex 13.1167 -68.7601 16
      vertex 4.39534 -69.8619 0
      vertex 13.1167 -68.7601 0
    endloop
  endfacet
  facet normal 0.951058 0.309011 5.6118e-18
    outer loop
      vertex 67.8008 17.4083 16
      vertex 65.0844 25.7687 0
      vertex 65.0844 25.7687 16
    endloop
  endfacet
  facet normal 0.951058 0.309011 5.6118e-18
    outer loop
      vertex 65.0844 25.7687 0
      vertex 67.8008 17.4083 16
      vertex 67.8008 17.4083 0
    endloop
  endfacet
  facet normal 0.982287 0.18738 5.40209e-18
    outer loop
      vertex 69.448 8.77333 16
      vertex 67.8008 17.4083 0
      vertex 67.8008 17.4083 16
    endloop
  endfacet
  facet normal 0.982287 0.18738 5.40209e-18
    outer loop
      vertex 67.8008 17.4083 0
      vertex 69.448 8.77333 16
      vertex 69.448 8.77333 0
    endloop
  endfacet
  facet normal 0.770511 0.637427 -1.71437e-17
    outer loop
      vertex 56.6312 41.145 16
      vertex 51.0278 47.9183 0
      vertex 51.0278 47.9183 16
    endloop
  endfacet
  facet normal 0.770511 0.637427 -1.71437e-17
    outer loop
      vertex 51.0278 47.9183 0
      vertex 56.6312 41.145 16
      vertex 56.6312 41.145 0
    endloop
  endfacet
  facet normal 0.248684 0.968585 -0
    outer loop
      vertex 21.6312 66.574 0
      vertex 13.1167 68.7601 16
      vertex 21.6312 66.574 16
    endloop
  endfacet
  facet normal 0.248684 0.968585 0
    outer loop
      vertex 13.1167 68.7601 16
      vertex 21.6312 66.574 0
      vertex 13.1167 68.7601 0
    endloop
  endfacet
  facet normal 0.125337 0.992114 -0
    outer loop
      vertex 13.1167 68.7601 0
      vertex 4.39534 69.8619 16
      vertex 13.1167 68.7601 16
    endloop
  endfacet
  facet normal 0.125337 0.992114 0
    outer loop
      vertex 4.39534 69.8619 16
      vertex 13.1167 68.7601 0
      vertex 4.39534 69.8619 0
    endloop
  endfacet
  facet normal 0.587791 0.809013 -0
    outer loop
      vertex 44.6197 53.9359 0
      vertex 37.5079 59.103 16
      vertex 44.6197 53.9359 16
    endloop
  endfacet
  facet normal 0.587791 0.809013 0
    outer loop
      vertex 37.5079 59.103 16
      vertex 44.6197 53.9359 0
      vertex 37.5079 59.103 0
    endloop
  endfacet
  facet normal -0.844326 0.535829 2.49384e-17
    outer loop
      vertex -61.3415 33.7228 0
      vertex -56.6312 41.145 16
      vertex -56.6312 41.145 0
    endloop
  endfacet
  facet normal -0.844326 0.535829 2.49384e-17
    outer loop
      vertex -56.6312 41.145 16
      vertex -61.3415 33.7228 0
      vertex -61.3415 33.7228 16
    endloop
  endfacet
  facet normal -0.951058 0.309011 -5.6118e-18
    outer loop
      vertex -67.8008 17.4083 0
      vertex -65.0844 25.7687 16
      vertex -65.0844 25.7687 0
    endloop
  endfacet
  facet normal -0.951058 0.309011 -5.6118e-18
    outer loop
      vertex -65.0844 25.7687 16
      vertex -67.8008 17.4083 0
      vertex -67.8008 17.4083 16
    endloop
  endfacet
  facet normal -0.982287 0.18738 -5.40209e-18
    outer loop
      vertex -69.448 8.77333 0
      vertex -67.8008 17.4083 16
      vertex -67.8008 17.4083 0
    endloop
  endfacet
  facet normal -0.982287 0.18738 -5.40209e-18
    outer loop
      vertex -67.8008 17.4083 16
      vertex -69.448 8.77333 0
      vertex -69.448 8.77333 16
    endloop
  endfacet
  facet normal -0.481751 0.876308 0
    outer loop
      vertex -29.8046 63.3379 0
      vertex -37.5079 59.103 16
      vertex -29.8046 63.3379 16
    endloop
  endfacet
  facet normal -0.481751 0.876308 0
    outer loop
      vertex -37.5079 59.103 16
      vertex -29.8046 63.3379 0
      vertex -37.5079 59.103 0
    endloop
  endfacet
  facet normal -0.587791 0.809013 0
    outer loop
      vertex -37.5079 59.103 0
      vertex -44.6197 53.9359 16
      vertex -37.5079 59.103 16
    endloop
  endfacet
  facet normal -0.587791 0.809013 0
    outer loop
      vertex -44.6197 53.9359 16
      vertex -37.5079 59.103 0
      vertex -44.6197 53.9359 0
    endloop
  endfacet
  facet normal -0.248684 0.968585 0
    outer loop
      vertex -13.1167 68.7601 0
      vertex -21.6312 66.574 16
      vertex -13.1167 68.7601 16
    endloop
  endfacet
  facet normal -0.248684 0.968585 0
    outer loop
      vertex -21.6312 66.574 16
      vertex -13.1167 68.7601 0
      vertex -21.6312 66.574 0
    endloop
  endfacet
  facet normal 0.998027 -0.0627938 -2.22312e-18
    outer loop
      vertex 69.448 -8.77333 16
      vertex 70 0 0
      vertex 70 0 16
    endloop
  endfacet
  facet normal 0.998027 -0.0627938 -2.22312e-18
    outer loop
      vertex 70 0 0
      vertex 69.448 -8.77333 16
      vertex 69.448 -8.77333 0
    endloop
  endfacet
  facet normal 0.770511 -0.637427 1.71437e-17
    outer loop
      vertex 51.0278 -47.9183 16
      vertex 56.6312 -41.145 0
      vertex 56.6312 -41.145 16
    endloop
  endfacet
  facet normal 0.770511 -0.637427 1.71437e-17
    outer loop
      vertex 56.6312 -41.145 0
      vertex 51.0278 -47.9183 16
      vertex 51.0278 -47.9183 0
    endloop
  endfacet
  facet normal 0.951058 -0.309011 -5.6118e-18
    outer loop
      vertex 65.0844 -25.7687 16
      vertex 67.8008 -17.4083 0
      vertex 67.8008 -17.4083 16
    endloop
  endfacet
  facet normal 0.951058 -0.309011 -5.6118e-18
    outer loop
      vertex 67.8008 -17.4083 0
      vertex 65.0844 -25.7687 16
      vertex 65.0844 -25.7687 0
    endloop
  endfacet
  facet normal -0.684547 -0.728969 0
    outer loop
      vertex -51.0278 -47.9183 0
      vertex -44.6197 -53.9359 16
      vertex -51.0278 -47.9183 16
    endloop
  endfacet
  facet normal -0.684547 -0.728969 -0
    outer loop
      vertex -44.6197 -53.9359 16
      vertex -51.0278 -47.9183 0
      vertex -44.6197 -53.9359 0
    endloop
  endfacet
  facet normal -0.904828 -0.425778 1.23335e-20
    outer loop
      vertex -61.3415 -33.7228 0
      vertex -65.0844 -25.7687 16
      vertex -65.0844 -25.7687 0
    endloop
  endfacet
  facet normal -0.904828 -0.425778 1.23335e-20
    outer loop
      vertex -65.0844 -25.7687 16
      vertex -61.3415 -33.7228 0
      vertex -61.3415 -33.7228 16
    endloop
  endfacet
  facet normal -0.770511 -0.637427 -1.71437e-17
    outer loop
      vertex -51.0278 -47.9183 0
      vertex -56.6312 -41.145 16
      vertex -56.6312 -41.145 0
    endloop
  endfacet
  facet normal -0.770511 -0.637427 -1.71437e-17
    outer loop
      vertex -56.6312 -41.145 16
      vertex -51.0278 -47.9183 0
      vertex -51.0278 -47.9183 16
    endloop
  endfacet
  facet normal 0.481751 -0.876308 0
    outer loop
      vertex 29.8046 -63.3379 0
      vertex 37.5079 -59.103 16
      vertex 29.8046 -63.3379 16
    endloop
  endfacet
  facet normal 0.481751 -0.876308 0
    outer loop
      vertex 37.5079 -59.103 16
      vertex 29.8046 -63.3379 0
      vertex 37.5079 -59.103 0
    endloop
  endfacet
  facet normal 0.684547 -0.728969 0
    outer loop
      vertex 44.6197 -53.9359 0
      vertex 51.0278 -47.9183 16
      vertex 44.6197 -53.9359 16
    endloop
  endfacet
  facet normal 0.684547 -0.728969 0
    outer loop
      vertex 51.0278 -47.9183 16
      vertex 44.6197 -53.9359 0
      vertex 51.0278 -47.9183 0
    endloop
  endfacet
  facet normal 0.844326 -0.535829 2.49384e-17
    outer loop
      vertex 56.6312 -41.145 16
      vertex 61.3415 -33.7228 0
      vertex 61.3415 -33.7228 16
    endloop
  endfacet
  facet normal 0.844326 -0.535829 2.49384e-17
    outer loop
      vertex 61.3415 -33.7228 0
      vertex 56.6312 -41.145 16
      vertex 56.6312 -41.145 0
    endloop
  endfacet
  facet normal -0.982287 -0.18738 5.40209e-18
    outer loop
      vertex -67.8008 -17.4083 0
      vertex -69.448 -8.77333 16
      vertex -69.448 -8.77333 0
    endloop
  endfacet
  facet normal -0.982287 -0.18738 5.40209e-18
    outer loop
      vertex -69.448 -8.77333 16
      vertex -67.8008 -17.4083 0
      vertex -67.8008 -17.4083 16
    endloop
  endfacet
  facet normal -0.998027 -0.0627938 2.22312e-18
    outer loop
      vertex -69.448 -8.77333 0
      vertex -70 0 16
      vertex -70 0 0
    endloop
  endfacet
  facet normal -0.998027 -0.0627938 2.22312e-18
    outer loop
      vertex -70 0 16
      vertex -69.448 -8.77333 0
      vertex -69.448 -8.77333 16
    endloop
  endfacet
  facet normal -0.951058 -0.309011 5.6118e-18
    outer loop
      vertex -65.0844 -25.7687 0
      vertex -67.8008 -17.4083 16
      vertex -67.8008 -17.4083 0
    endloop
  endfacet
  facet normal -0.951058 -0.309011 5.6118e-18
    outer loop
      vertex -67.8008 -17.4083 16
      vertex -65.0844 -25.7687 0
      vertex -65.0844 -25.7687 16
    endloop
  endfacet
  facet normal 0.368127 -0.929776 0
    outer loop
      vertex 21.6312 -66.574 0
      vertex 29.8046 -63.3379 16
      vertex 21.6312 -66.574 16
    endloop
  endfacet
  facet normal 0.368127 -0.929776 0
    outer loop
      vertex 29.8046 -63.3379 16
      vertex 21.6312 -66.574 0
      vertex 29.8046 -63.3379 0
    endloop
  endfacet
  facet normal 0.248684 -0.968585 0
    outer loop
      vertex 13.1167 -68.7601 0
      vertex 21.6312 -66.574 16
      vertex 13.1167 -68.7601 16
    endloop
  endfacet
  facet normal 0.248684 -0.968585 0
    outer loop
      vertex 21.6312 -66.574 16
      vertex 13.1167 -68.7601 0
      vertex 21.6312 -66.574 0
    endloop
  endfacet
  facet normal 0.904828 -0.425778 -1.23335e-20
    outer loop
      vertex 61.3415 -33.7228 16
      vertex 65.0844 -25.7687 0
      vertex 65.0844 -25.7687 16
    endloop
  endfacet
  facet normal 0.904828 -0.425778 -1.23335e-20
    outer loop
      vertex 65.0844 -25.7687 0
      vertex 61.3415 -33.7228 16
      vertex 61.3415 -33.7228 0
    endloop
  endfacet
  facet normal -0.125337 -0.992114 0
    outer loop
      vertex -13.1167 -68.7601 0
      vertex -4.39534 -69.8619 16
      vertex -13.1167 -68.7601 16
    endloop
  endfacet
  facet normal -0.125337 -0.992114 -0
    outer loop
      vertex -4.39534 -69.8619 16
      vertex -13.1167 -68.7601 0
      vertex -4.39534 -69.8619 0
    endloop
  endfacet
  facet normal -0.587791 -0.809013 0
    outer loop
      vertex -44.6197 -53.9359 0
      vertex -37.5079 -59.103 16
      vertex -44.6197 -53.9359 16
    endloop
  endfacet
  facet normal -0.587791 -0.809013 -0
    outer loop
      vertex -37.5079 -59.103 16
      vertex -44.6197 -53.9359 0
      vertex -37.5079 -59.103 0
    endloop
  endfacet
  facet normal -0.844326 -0.535829 -2.49384e-17
    outer loop
      vertex -56.6312 -41.145 0
      vertex -61.3415 -33.7228 16
      vertex -61.3415 -33.7228 0
    endloop
  endfacet
  facet normal -0.844326 -0.535829 -2.49384e-17
    outer loop
      vertex -61.3415 -33.7228 16
      vertex -56.6312 -41.145 0
      vertex -56.6312 -41.145 16
    endloop
  endfacet
  facet normal 0.587791 -0.809013 0
    outer loop
      vertex 37.5079 -59.103 0
      vertex 44.6197 -53.9359 16
      vertex 37.5079 -59.103 16
    endloop
  endfacet
  facet normal 0.587791 -0.809013 0
    outer loop
      vertex 44.6197 -53.9359 16
      vertex 37.5079 -59.103 0
      vertex 44.6197 -53.9359 0
    endloop
  endfacet
  facet normal -0.248684 -0.968585 0
    outer loop
      vertex -21.6312 -66.574 0
      vertex -13.1167 -68.7601 16
      vertex -21.6312 -66.574 16
    endloop
  endfacet
  facet normal -0.248684 -0.968585 -0
    outer loop
      vertex -13.1167 -68.7601 16
      vertex -21.6312 -66.574 0
      vertex -13.1167 -68.7601 0
    endloop
  endfacet
  facet normal -0.368127 -0.929776 0
    outer loop
      vertex -29.8046 -63.3379 0
      vertex -21.6312 -66.574 16
      vertex -29.8046 -63.3379 16
    endloop
  endfacet
  facet normal -0.368127 -0.929776 -0
    outer loop
      vertex -21.6312 -66.574 16
      vertex -29.8046 -63.3379 0
      vertex -21.6312 -66.574 0
    endloop
  endfacet
  facet normal -0.481751 -0.876308 0
    outer loop
      vertex -37.5079 -59.103 0
      vertex -29.8046 -63.3379 16
      vertex -37.5079 -59.103 16
    endloop
  endfacet
  facet normal -0.481751 -0.876308 -0
    outer loop
      vertex -29.8046 -63.3379 16
      vertex -37.5079 -59.103 0
      vertex -29.8046 -63.3379 0
    endloop
  endfacet
  facet normal -0.998027 -0.0627917 -1.94057e-18
    outer loop
      vertex 55 0 0
      vertex 54.5663 6.89333 16
      vertex 54.5663 6.89333 0
    endloop
  endfacet
  facet normal -0.998027 -0.0627917 -1.94057e-18
    outer loop
      vertex 54.5663 6.89333 16
      vertex 55 0 0
      vertex 55 0 16
    endloop
  endfacet
  facet normal 0.998027 -0.0627917 1.94057e-18
    outer loop
      vertex -55 0 16
      vertex -54.5663 6.89333 0
      vertex -54.5663 6.89333 16
    endloop
  endfacet
  facet normal 0.998027 -0.0627917 1.94057e-18
    outer loop
      vertex -54.5663 6.89333 0
      vertex -55 0 16
      vertex -55 0 0
    endloop
  endfacet
  facet normal 0 -1 0
    outer loop
      vertex -3.45348 54.8915 0
      vertex 3.45348 54.8915 16
      vertex -3.45348 54.8915 16
    endloop
  endfacet
  facet normal 0 -1 -0
    outer loop
      vertex 3.45348 54.8915 16
      vertex -3.45348 54.8915 0
      vertex 3.45348 54.8915 0
    endloop
  endfacet
  facet normal 0 1 -0
    outer loop
      vertex 3.45348 -54.8915 0
      vertex -3.45348 -54.8915 16
      vertex 3.45348 -54.8915 16
    endloop
  endfacet
  facet normal 0 1 0
    outer loop
      vertex -3.45348 -54.8915 16
      vertex 3.45348 -54.8915 0
      vertex -3.45348 -54.8915 0
    endloop
  endfacet
  facet normal -0.684541 -0.728974 0
    outer loop
      vertex 35.0583 42.3782 0
      vertex 40.0933 37.6501 16
      vertex 35.0583 42.3782 16
    endloop
  endfacet
  facet normal -0.684541 -0.728974 -0
    outer loop
      vertex 40.0933 37.6501 16
      vertex 35.0583 42.3782 0
      vertex 40.0933 37.6501 0
    endloop
  endfacet
  facet normal 0.684541 -0.728974 0
    outer loop
      vertex -40.0933 37.6501 0
      vertex -35.0583 42.3782 16
      vertex -40.0933 37.6501 16
    endloop
  endfacet
  facet normal 0.684541 -0.728974 0
    outer loop
      vertex -35.0583 42.3782 16
      vertex -40.0933 37.6501 0
      vertex -35.0583 42.3782 0
    endloop
  endfacet
  facet normal 0.368118 -0.929779 0
    outer loop
      vertex -23.4179 49.7655 0
      vertex -16.9959 52.3081 16
      vertex -23.4179 49.7655 16
    endloop
  endfacet
  facet normal 0.368118 -0.929779 0
    outer loop
      vertex -16.9959 52.3081 16
      vertex -23.4179 49.7655 0
      vertex -16.9959 52.3081 0
    endloop
  endfacet
  facet normal -0.904832 -0.425769 -4.20682e-18
    outer loop
      vertex 51.1377 20.2468 0
      vertex 48.1969 26.4965 16
      vertex 48.1969 26.4965 0
    endloop
  endfacet
  facet normal -0.904832 -0.425769 -4.20682e-18
    outer loop
      vertex 48.1969 26.4965 16
      vertex 51.1377 20.2468 0
      vertex 51.1377 20.2468 16
    endloop
  endfacet
  facet normal -0.982288 -0.187378 1.42846e-18
    outer loop
      vertex 54.5663 6.89333 0
      vertex 53.2721 13.6779 16
      vertex 53.2721 13.6779 0
    endloop
  endfacet
  facet normal -0.982288 -0.187378 1.42846e-18
    outer loop
      vertex 53.2721 13.6779 16
      vertex 54.5663 6.89333 0
      vertex 54.5663 6.89333 16
    endloop
  endfacet
  facet normal -0.844322 -0.535836 1.51949e-17
    outer loop
      vertex 48.1969 26.4965 0
      vertex 44.4959 32.3282 16
      vertex 44.4959 32.3282 0
    endloop
  endfacet
  facet normal -0.844322 -0.535836 1.51949e-17
    outer loop
      vertex 44.4959 32.3282 16
      vertex 48.1969 26.4965 0
      vertex 48.1969 26.4965 16
    endloop
  endfacet
  facet normal -0.368118 -0.929779 0
    outer loop
      vertex 16.9959 52.3081 0
      vertex 23.4179 49.7655 16
      vertex 16.9959 52.3081 16
    endloop
  endfacet
  facet normal -0.368118 -0.929779 -0
    outer loop
      vertex 23.4179 49.7655 16
      vertex 16.9959 52.3081 0
      vertex 23.4179 49.7655 0
    endloop
  endfacet
  facet normal -0.48176 -0.876303 0
    outer loop
      vertex 23.4179 49.7655 0
      vertex 29.4705 46.438 16
      vertex 23.4179 49.7655 16
    endloop
  endfacet
  facet normal -0.48176 -0.876303 -0
    outer loop
      vertex 29.4705 46.438 16
      vertex 23.4179 49.7655 0
      vertex 29.4705 46.438 0
    endloop
  endfacet
  facet normal 0.904832 -0.425769 4.20682e-18
    outer loop
      vertex -51.1377 20.2468 16
      vertex -48.1969 26.4965 0
      vertex -48.1969 26.4965 16
    endloop
  endfacet
  facet normal 0.904832 -0.425769 4.20682e-18
    outer loop
      vertex -48.1969 26.4965 0
      vertex -51.1377 20.2468 16
      vertex -51.1377 20.2468 0
    endloop
  endfacet
  facet normal 0.951055 -0.309022 7.29922e-19
    outer loop
      vertex -53.2721 13.6779 16
      vertex -51.1377 20.2468 0
      vertex -51.1377 20.2468 16
    endloop
  endfacet
  facet normal 0.951055 -0.309022 7.29922e-19
    outer loop
      vertex -51.1377 20.2468 0
      vertex -53.2721 13.6779 16
      vertex -53.2721 13.6779 0
    endloop
  endfacet
  facet normal 0.248693 -0.968582 0
    outer loop
      vertex -16.9959 52.3081 0
      vertex -10.306 54.0258 16
      vertex -16.9959 52.3081 16
    endloop
  endfacet
  facet normal 0.248693 -0.968582 0
    outer loop
      vertex -10.306 54.0258 16
      vertex -16.9959 52.3081 0
      vertex -10.306 54.0258 0
    endloop
  endfacet
  facet normal -0.951055 -0.309022 -7.29922e-19
    outer loop
      vertex 53.2721 13.6779 0
      vertex 51.1377 20.2468 16
      vertex 51.1377 20.2468 0
    endloop
  endfacet
  facet normal -0.951055 -0.309022 -7.29922e-19
    outer loop
      vertex 51.1377 20.2468 16
      vertex 53.2721 13.6779 0
      vertex 53.2721 13.6779 16
    endloop
  endfacet
  facet normal -0.770517 -0.637419 5.85511e-18
    outer loop
      vertex 44.4959 32.3282 0
      vertex 40.0933 37.6501 16
      vertex 40.0933 37.6501 0
    endloop
  endfacet
  facet normal -0.770517 -0.637419 5.85511e-18
    outer loop
      vertex 40.0933 37.6501 16
      vertex 44.4959 32.3282 0
      vertex 44.4959 32.3282 16
    endloop
  endfacet
  facet normal -0.248693 -0.968582 0
    outer loop
      vertex 10.306 54.0258 0
      vertex 16.9959 52.3081 16
      vertex 10.306 54.0258 16
    endloop
  endfacet
  facet normal -0.248693 -0.968582 -0
    outer loop
      vertex 16.9959 52.3081 16
      vertex 10.306 54.0258 0
      vertex 16.9959 52.3081 0
    endloop
  endfacet
  facet normal -0.125337 -0.992114 0
    outer loop
      vertex 3.45348 54.8915 0
      vertex 10.306 54.0258 16
      vertex 3.45348 54.8915 16
    endloop
  endfacet
  facet normal -0.125337 -0.992114 -0
    outer loop
      vertex 10.306 54.0258 16
      vertex 3.45348 54.8915 0
      vertex 10.306 54.0258 0
    endloop
  endfacet
  facet normal -0.587788 -0.809015 0
    outer loop
      vertex 29.4705 46.438 0
      vertex 35.0583 42.3782 16
      vertex 29.4705 46.438 16
    endloop
  endfacet
  facet normal -0.587788 -0.809015 -0
    outer loop
      vertex 35.0583 42.3782 16
      vertex 29.4705 46.438 0
      vertex 35.0583 42.3782 0
    endloop
  endfacet
  facet normal 0.844322 -0.535836 -1.51949e-17
    outer loop
      vertex -48.1969 26.4965 16
      vertex -44.4959 32.3282 0
      vertex -44.4959 32.3282 16
    endloop
  endfacet
  facet normal 0.844322 -0.535836 -1.51949e-17
    outer loop
      vertex -44.4959 32.3282 0
      vertex -48.1969 26.4965 16
      vertex -48.1969 26.4965 0
    endloop
  endfacet
  facet normal 0.770517 -0.637419 -5.85511e-18
    outer loop
      vertex -44.4959 32.3282 16
      vertex -40.0933 37.6501 0
      vertex -40.0933 37.6501 16
    endloop
  endfacet
  facet normal 0.770517 -0.637419 -5.85511e-18
    outer loop
      vertex -40.0933 37.6501 0
      vertex -44.4959 32.3282 16
      vertex -44.4959 32.3282 0
    endloop
  endfacet
  facet normal 0.982288 -0.187378 -1.42846e-18
    outer loop
      vertex -54.5663 6.89333 16
      vertex -53.2721 13.6779 0
      vertex -53.2721 13.6779 16
    endloop
  endfacet
  facet normal 0.982288 -0.187378 -1.42846e-18
    outer loop
      vertex -53.2721 13.6779 0
      vertex -54.5663 6.89333 16
      vertex -54.5663 6.89333 0
    endloop
  endfacet
  facet normal 0.48176 -0.876303 0
    outer loop
      vertex -29.4705 46.438 0
      vertex -23.4179 49.7655 16
      vertex -29.4705 46.438 16
    endloop
  endfacet
  facet normal 0.48176 -0.876303 0
    outer loop
      vertex -23.4179 49.7655 16
      vertex -29.4705 46.438 0
      vertex -23.4179 49.7655 0
    endloop
  endfacet
  facet normal 0.587788 -0.809015 0
    outer loop
      vertex -35.0583 42.3782 0
      vertex -29.4705 46.438 16
      vertex -35.0583 42.3782 16
    endloop
  endfacet
  facet normal 0.587788 -0.809015 0
    outer loop
      vertex -29.4705 46.438 16
      vertex -35.0583 42.3782 0
      vertex -29.4705 46.438 0
    endloop
  endfacet
  facet normal 0.125337 -0.992114 0
    outer loop
      vertex -10.306 54.0258 0
      vertex -3.45348 54.8915 16
      vertex -10.306 54.0258 16
    endloop
  endfacet
  facet normal 0.125337 -0.992114 0
    outer loop
      vertex -3.45348 54.8915 16
      vertex -10.306 54.0258 0
      vertex -3.45348 54.8915 0
    endloop
  endfacet
  facet normal -0.684541 0.728974 0
    outer loop
      vertex 40.0933 -37.6501 0
      vertex 35.0583 -42.3782 16
      vertex 40.0933 -37.6501 16
    endloop
  endfacet
  facet normal -0.684541 0.728974 0
    outer loop
      vertex 35.0583 -42.3782 16
      vertex 40.0933 -37.6501 0
      vertex 35.0583 -42.3782 0
    endloop
  endfacet
  facet normal -0.982288 0.187378 -1.42846e-18
    outer loop
      vertex 53.2721 -13.6779 0
      vertex 54.5663 -6.89333 16
      vertex 54.5663 -6.89333 0
    endloop
  endfacet
  facet normal -0.982288 0.187378 -1.42846e-18
    outer loop
      vertex 54.5663 -6.89333 16
      vertex 53.2721 -13.6779 0
      vertex 53.2721 -13.6779 16
    endloop
  endfacet
  facet normal -0.770517 0.637419 -5.85511e-18
    outer loop
      vertex 40.0933 -37.6501 0
      vertex 44.4959 -32.3282 16
      vertex 44.4959 -32.3282 0
    endloop
  endfacet
  facet normal -0.770517 0.637419 -5.85511e-18
    outer loop
      vertex 44.4959 -32.3282 16
      vertex 40.0933 -37.6501 0
      vertex 40.0933 -37.6501 16
    endloop
  endfacet
  facet normal -0.904832 0.425769 4.20682e-18
    outer loop
      vertex 48.1969 -26.4965 0
      vertex 51.1377 -20.2468 16
      vertex 51.1377 -20.2468 0
    endloop
  endfacet
  facet normal -0.904832 0.425769 4.20682e-18
    outer loop
      vertex 51.1377 -20.2468 16
      vertex 48.1969 -26.4965 0
      vertex 48.1969 -26.4965 16
    endloop
  endfacet
  facet normal -0.998027 0.0627917 1.94057e-18
    outer loop
      vertex 54.5663 -6.89333 0
      vertex 55 0 16
      vertex 55 0 0
    endloop
  endfacet
  facet normal -0.998027 0.0627917 1.94057e-18
    outer loop
      vertex 55 0 16
      vertex 54.5663 -6.89333 0
      vertex 54.5663 -6.89333 16
    endloop
  endfacet
  facet normal 0.770517 0.637419 5.85511e-18
    outer loop
      vertex -40.0933 -37.6501 16
      vertex -44.4959 -32.3282 0
      vertex -44.4959 -32.3282 16
    endloop
  endfacet
  facet normal 0.770517 0.637419 5.85511e-18
    outer loop
      vertex -44.4959 -32.3282 0
      vertex -40.0933 -37.6501 16
      vertex -40.0933 -37.6501 0
    endloop
  endfacet
  facet normal 0.844322 0.535836 1.51949e-17
    outer loop
      vertex -44.4959 -32.3282 16
      vertex -48.1969 -26.4965 0
      vertex -48.1969 -26.4965 16
    endloop
  endfacet
  facet normal 0.844322 0.535836 1.51949e-17
    outer loop
      vertex -48.1969 -26.4965 0
      vertex -44.4959 -32.3282 16
      vertex -44.4959 -32.3282 0
    endloop
  endfacet
  facet normal 0.951055 0.309022 -7.29922e-19
    outer loop
      vertex -51.1377 -20.2468 16
      vertex -53.2721 -13.6779 0
      vertex -53.2721 -13.6779 16
    endloop
  endfacet
  facet normal 0.951055 0.309022 -7.29922e-19
    outer loop
      vertex -53.2721 -13.6779 0
      vertex -51.1377 -20.2468 16
      vertex -51.1377 -20.2468 0
    endloop
  endfacet
  facet normal 0.998027 0.0627917 -1.94057e-18
    outer loop
      vertex -54.5663 -6.89333 16
      vertex -55 0 0
      vertex -55 0 16
    endloop
  endfacet
  facet normal 0.998027 0.0627917 -1.94057e-18
    outer loop
      vertex -55 0 0
      vertex -54.5663 -6.89333 16
      vertex -54.5663 -6.89333 0
    endloop
  endfacet
  facet normal -0.368118 0.929779 0
    outer loop
      vertex 23.4179 -49.7655 0
      vertex 16.9959 -52.3081 16
      vertex 23.4179 -49.7655 16
    endloop
  endfacet
  facet normal -0.368118 0.929779 0
    outer loop
      vertex 16.9959 -52.3081 16
      vertex 23.4179 -49.7655 0
      vertex 16.9959 -52.3081 0
    endloop
  endfacet
  facet normal -0.248693 0.968582 0
    outer loop
      vertex 16.9959 -52.3081 0
      vertex 10.306 -54.0258 16
      vertex 16.9959 -52.3081 16
    endloop
  endfacet
  facet normal -0.248693 0.968582 0
    outer loop
      vertex 10.306 -54.0258 16
      vertex 16.9959 -52.3081 0
      vertex 10.306 -54.0258 0
    endloop
  endfacet
  facet normal -0.125337 0.992114 0
    outer loop
      vertex 10.306 -54.0258 0
      vertex 3.45348 -54.8915 16
      vertex 10.306 -54.0258 16
    endloop
  endfacet
  facet normal -0.125337 0.992114 0
    outer loop
      vertex 3.45348 -54.8915 16
      vertex 10.306 -54.0258 0
      vertex 3.45348 -54.8915 0
    endloop
  endfacet
  facet normal -0.844322 0.535836 -1.51949e-17
    outer loop
      vertex 44.4959 -32.3282 0
      vertex 48.1969 -26.4965 16
      vertex 48.1969 -26.4965 0
    endloop
  endfacet
  facet normal -0.844322 0.535836 -1.51949e-17
    outer loop
      vertex 48.1969 -26.4965 16
      vertex 44.4959 -32.3282 0
      vertex 44.4959 -32.3282 16
    endloop
  endfacet
  facet normal -0.587788 0.809015 0
    outer loop
      vertex 35.0583 -42.3782 0
      vertex 29.4705 -46.438 16
      vertex 35.0583 -42.3782 16
    endloop
  endfacet
  facet normal -0.587788 0.809015 0
    outer loop
      vertex 29.4705 -46.438 16
      vertex 35.0583 -42.3782 0
      vertex 29.4705 -46.438 0
    endloop
  endfacet
  facet normal -0.48176 0.876303 0
    outer loop
      vertex 29.4705 -46.438 0
      vertex 23.4179 -49.7655 16
      vertex 29.4705 -46.438 16
    endloop
  endfacet
  facet normal -0.48176 0.876303 0
    outer loop
      vertex 23.4179 -49.7655 16
      vertex 29.4705 -46.438 0
      vertex 23.4179 -49.7655 0
    endloop
  endfacet
  facet normal -0.951055 0.309022 7.29922e-19
    outer loop
      vertex 51.1377 -20.2468 0
      vertex 53.2721 -13.6779 16
      vertex 53.2721 -13.6779 0
    endloop
  endfacet
  facet normal -0.951055 0.309022 7.29922e-19
    outer loop
      vertex 53.2721 -13.6779 16
      vertex 51.1377 -20.2468 0
      vertex 51.1377 -20.2468 16
    endloop
  endfacet
  facet normal 0.125337 0.992114 -0
    outer loop
      vertex -3.45348 -54.8915 0
      vertex -10.306 -54.0258 16
      vertex -3.45348 -54.8915 16
    endloop
  endfacet
  facet normal 0.125337 0.992114 0
    outer loop
      vertex -10.306 -54.0258 16
      vertex -3.45348 -54.8915 0
      vertex -10.306 -54.0258 0
    endloop
  endfacet
  facet normal 0.368118 0.929779 -0
    outer loop
      vertex -16.9959 -52.3081 0
      vertex -23.4179 -49.7655 16
      vertex -16.9959 -52.3081 16
    endloop
  endfacet
  facet normal 0.368118 0.929779 0
    outer loop
      vertex -23.4179 -49.7655 16
      vertex -16.9959 -52.3081 0
      vertex -23.4179 -49.7655 0
    endloop
  endfacet
  facet normal 0.248693 0.968582 -0
    outer loop
      vertex -10.306 -54.0258 0
      vertex -16.9959 -52.3081 16
      vertex -10.306 -54.0258 16
    endloop
  endfacet
  facet normal 0.248693 0.968582 0
    outer loop
      vertex -16.9959 -52.3081 16
      vertex -10.306 -54.0258 0
      vertex -16.9959 -52.3081 0
    endloop
  endfacet
  facet normal 0.684541 0.728974 -0
    outer loop
      vertex -35.0583 -42.3782 0
      vertex -40.0933 -37.6501 16
      vertex -35.0583 -42.3782 16
    endloop
  endfacet
  facet normal 0.684541 0.728974 0
    outer loop
      vertex -40.0933 -37.6501 16
      vertex -35.0583 -42.3782 0
      vertex -40.0933 -37.6501 0
    endloop
  endfacet
  facet normal 0.904832 0.425769 -4.20682e-18
    outer loop
      vertex -48.1969 -26.4965 16
      vertex -51.1377 -20.2468 0
      vertex -51.1377 -20.2468 16
    endloop
  endfacet
  facet normal 0.904832 0.425769 -4.20682e-18
    outer loop
      vertex -51.1377 -20.2468 0
      vertex -48.1969 -26.4965 16
      vertex -48.1969 -26.4965 0
    endloop
  endfacet
  facet normal 0.982288 0.187378 1.42846e-18
    outer loop
      vertex -53.2721 -13.6779 16
      vertex -54.5663 -6.89333 0
      vertex -54.5663 -6.89333 16
    endloop
  endfacet
  facet normal 0.982288 0.187378 1.42846e-18
    outer loop
      vertex -54.5663 -6.89333 0
      vertex -53.2721 -13.6779 16
      vertex -53.2721 -13.6779 0
    endloop
  endfacet
  facet normal 0.48176 0.876303 -0
    outer loop
      vertex -23.4179 -49.7655 0
      vertex -29.4705 -46.438 16
      vertex -23.4179 -49.7655 16
    endloop
  endfacet
  facet normal 0.48176 0.876303 0
    outer loop
      vertex -29.4705 -46.438 16
      vertex -23.4179 -49.7655 0
      vertex -29.4705 -46.438 0
    endloop
  endfacet
  facet normal 0.587788 0.809015 -0
    outer loop
      vertex -29.4705 -46.438 0
      vertex -35.0583 -42.3782 16
      vertex -29.4705 -46.438 16
    endloop
  endfacet
  facet normal 0.587788 0.809015 0
    outer loop
      vertex -35.0583 -42.3782 16
      vertex -29.4705 -46.438 0
      vertex -35.0583 -42.3782 0
    endloop
  endfacet
endsolid OpenSCAD_Model
