  0
SECTION
  2
BLOCKS
  0
ENDSEC
  0
SECTION
  2
ENTITIES
  0
LINE
  8
0
 10
10.9369
 20
514.589
 11
11.5451
 21
514.745
  0
LINE
  8
0
 10
11.5451
 20
514.745
 11
12.1289
 21
514.976
  0
LINE
  8
0
 10
12.1289
 20
514.976
 11
12.6791
 21
515.278
  0
LINE
  8
0
 10
12.6791
 20
515.278
 11
13.1871
 21
515.647
  0
LINE
  8
0
 10
13.1871
 20
515.647
 11
13.6448
 21
516.077
  0
LINE
  8
0
 10
13.6448
 20
516.077
 11
14.0451
 21
516.561
  0
LINE
  8
0
 10
14.0451
 20
516.561
 11
14.3815
 21
517.091
  0
LINE
  8
0
 10
14.3815
 20
517.091
 11
14.6489
 21
517.659
  0
LINE
  8
0
 10
14.6489
 20
517.659
 11
14.8429
 21
518.257
  0
LINE
  8
0
 10
14.8429
 20
518.257
 11
14.9606
 21
518.873
  0
LINE
  8
0
 10
14.9606
 20
518.873
 11
15
 21
519.5
  0
LINE
  8
0
 10
15
 20
519.5
 11
15
 21
704.5
  0
LINE
  8
0
 10
15
 20
704.5
 11
14.9606
 21
705.127
  0
LINE
  8
0
 10
14.9606
 20
705.127
 11
14.8429
 21
705.743
  0
LINE
  8
0
 10
14.8429
 20
705.743
 11
14.6489
 21
706.341
  0
LINE
  8
0
 10
14.6489
 20
706.341
 11
14.3815
 21
706.909
  0
LINE
  8
0
 10
14.3815
 20
706.909
 11
14.0451
 21
707.439
  0
LINE
  8
0
 10
14.0451
 20
707.439
 11
13.6448
 21
707.923
  0
LINE
  8
0
 10
13.6448
 20
707.923
 11
13.1871
 21
708.353
  0
LINE
  8
0
 10
13.1871
 20
708.353
 11
12.6791
 21
708.722
  0
LINE
  8
0
 10
12.6791
 20
708.722
 11
12.1289
 21
709.024
  0
LINE
  8
0
 10
12.1289
 20
709.024
 11
11.5451
 21
709.255
  0
LINE
  8
0
 10
11.5451
 20
709.255
 11
10.9369
 21
709.411
  0
LINE
  8
0
 10
10.9369
 20
709.411
 11
10.3139
 21
709.49
  0
LINE
  8
0
 10
10.3139
 20
709.49
 11
-10.3139
 21
709.49
  0
LINE
  8
0
 10
-10.3139
 20
709.49
 11
-10.9369
 21
709.411
  0
LINE
  8
0
 10
-10.9369
 20
709.411
 11
-11.5451
 21
709.255
  0
LINE
  8
0
 10
-11.5451
 20
709.255
 11
-12.1289
 21
709.024
  0
LINE
  8
0
 10
-12.1289
 20
709.024
 11
-12.6791
 21
708.722
  0
LINE
  8
0
 10
-12.6791
 20
708.722
 11
-13.1871
 21
708.353
  0
LINE
  8
0
 10
-13.1871
 20
708.353
 11
-13.6448
 21
707.923
  0
LINE
  8
0
 10
-13.6448
 20
707.923
 11
-14.0451
 21
707.439
  0
LINE
  8
0
 10
-14.0451
 20
707.439
 11
-14.3815
 21
706.909
  0
LINE
  8
0
 10
-14.3815
 20
706.909
 11
-14.6489
 21
706.341
  0
LINE
  8
0
 10
-14.6489
 20
706.341
 11
-14.8429
 21
705.743
  0
LINE
  8
0
 10
-14.8429
 20
705.743
 11
-14.9606
 21
705.127
  0
LINE
  8
0
 10
-14.9606
 20
705.127
 11
-15
 21
704.5
  0
LINE
  8
0
 10
-15
 20
704.5
 11
-15
 21
519.5
  0
LINE
  8
0
 10
-15
 20
519.5
 11
-14.9606
 21
518.873
  0
LINE
  8
0
 10
-14.9606
 20
518.873
 11
-14.8429
 21
518.257
  0
LINE
  8
0
 10
-14.8429
 20
518.257
 11
-14.6489
 21
517.659
  0
LINE
  8
0
 10
-14.6489
 20
517.659
 11
-14.3815
 21
517.091
  0
LINE
  8
0
 10
-14.3815
 20
517.091
 11
-14.0451
 21
516.561
  0
LINE
  8
0
 10
-14.0451
 20
516.561
 11
-13.6448
 21
516.077
  0
LINE
  8
0
 10
-13.6448
 20
516.077
 11
-13.1871
 21
515.647
  0
LINE
  8
0
 10
-13.1871
 20
515.647
 11
-12.6791
 21
515.278
  0
LINE
  8
0
 10
-12.6791
 20
515.278
 11
-12.1289
 21
514.976
  0
LINE
  8
0
 10
-12.1289
 20
514.976
 11
-11.5451
 21
514.745
  0
LINE
  8
0
 10
-11.5451
 20
514.745
 11
-10.9369
 21
514.589
  0
LINE
  8
0
 10
-10.9369
 20
514.589
 11
-10.3139
 21
514.51
  0
LINE
  8
0
 10
-10.3139
 20
514.51
 11
10.3139
 21
514.51
  0
LINE
  8
0
 10
10.3139
 20
514.51
 11
10.9369
 21
514.589
  0
LINE
  8
0
 10
-9.69545
 20
516.893
 11
-10.0833
 21
516.942
  0
LINE
  8
0
 10
-10.0833
 20
516.942
 11
-10.4619
 21
517.039
  0
LINE
  8
0
 10
-10.4619
 20
517.039
 11
-10.8254
 21
517.183
  0
LINE
  8
0
 10
-10.8254
 20
517.183
 11
-11.168
 21
517.372
  0
LINE
  8
0
 10
-11.168
 20
517.372
 11
-11.4842
 21
517.601
  0
LINE
  8
0
 10
-11.4842
 20
517.601
 11
-11.7692
 21
517.869
  0
LINE
  8
0
 10
-11.7692
 20
517.869
 11
-12.0184
 21
518.17
  0
LINE
  8
0
 10
-12.0184
 20
518.17
 11
-12.2279
 21
518.5
  0
LINE
  8
0
 10
-12.2279
 20
518.5
 11
-12.3943
 21
518.854
  0
LINE
  8
0
 10
-12.3943
 20
518.854
 11
-12.5151
 21
519.226
  0
LINE
  8
0
 10
-12.5151
 20
519.226
 11
-12.5884
 21
519.61
  0
LINE
  8
0
 10
-12.5884
 20
519.61
 11
-12.6129
 21
520
  0
LINE
  8
0
 10
-12.6129
 20
520
 11
-12.6129
 21
704
  0
LINE
  8
0
 10
-12.6129
 20
704
 11
-12.5884
 21
704.39
  0
LINE
  8
0
 10
-12.5884
 20
704.39
 11
-12.5151
 21
704.774
  0
LINE
  8
0
 10
-12.5151
 20
704.774
 11
-12.3943
 21
705.146
  0
LINE
  8
0
 10
-12.3943
 20
705.146
 11
-12.2279
 21
705.5
  0
LINE
  8
0
 10
-12.2279
 20
705.5
 11
-12.0184
 21
705.83
  0
LINE
  8
0
 10
-12.0184
 20
705.83
 11
-11.7692
 21
706.131
  0
LINE
  8
0
 10
-11.7692
 20
706.131
 11
-11.4842
 21
706.399
  0
LINE
  8
0
 10
-11.4842
 20
706.399
 11
-11.168
 21
706.628
  0
LINE
  8
0
 10
-11.168
 20
706.628
 11
-10.8254
 21
706.817
  0
LINE
  8
0
 10
-10.8254
 20
706.817
 11
-10.4619
 21
706.961
  0
LINE
  8
0
 10
-10.4619
 20
706.961
 11
-10.0833
 21
707.058
  0
LINE
  8
0
 10
-10.0833
 20
707.058
 11
-9.69545
 21
707.107
  0
LINE
  8
0
 10
-9.69545
 20
707.107
 11
9.69545
 21
707.107
  0
LINE
  8
0
 10
9.69545
 20
707.107
 11
10.0833
 21
707.058
  0
LINE
  8
0
 10
10.0833
 20
707.058
 11
10.4619
 21
706.961
  0
LINE
  8
0
 10
10.4619
 20
706.961
 11
10.8254
 21
706.817
  0
LINE
  8
0
 10
10.8254
 20
706.817
 11
11.168
 21
706.628
  0
LINE
  8
0
 10
11.168
 20
706.628
 11
11.4842
 21
706.399
  0
LINE
  8
0
 10
11.4842
 20
706.399
 11
11.7692
 21
706.131
  0
LINE
  8
0
 10
11.7692
 20
706.131
 11
12.0184
 21
705.83
  0
LINE
  8
0
 10
12.0184
 20
705.83
 11
12.2279
 21
705.5
  0
LINE
  8
0
 10
12.2279
 20
705.5
 11
12.3943
 21
705.146
  0
LINE
  8
0
 10
12.3943
 20
705.146
 11
12.5151
 21
704.774
  0
LINE
  8
0
 10
12.5151
 20
704.774
 11
12.5884
 21
704.39
  0
LINE
  8
0
 10
12.5884
 20
704.39
 11
12.6129
 21
704
  0
LINE
  8
0
 10
12.6129
 20
704
 11
12.6129
 21
520
  0
LINE
  8
0
 10
12.6129
 20
520
 11
12.5884
 21
519.61
  0
LINE
  8
0
 10
12.5884
 20
519.61
 11
12.5151
 21
519.226
  0
LINE
  8
0
 10
12.5151
 20
519.226
 11
12.3943
 21
518.854
  0
LINE
  8
0
 10
12.3943
 20
518.854
 11
12.2279
 21
518.5
  0
LINE
  8
0
 10
12.2279
 20
518.5
 11
12.0184
 21
518.17
  0
LINE
  8
0
 10
12.0184
 20
518.17
 11
11.7692
 21
517.869
  0
LINE
  8
0
 10
11.7692
 20
517.869
 11
11.4842
 21
517.601
  0
LINE
  8
0
 10
11.4842
 20
517.601
 11
11.168
 21
517.372
  0
LINE
  8
0
 10
11.168
 20
517.372
 11
10.8254
 21
517.183
  0
LINE
  8
0
 10
10.8254
 20
517.183
 11
10.4619
 21
517.039
  0
LINE
  8
0
 10
10.4619
 20
517.039
 11
10.0833
 21
516.942
  0
LINE
  8
0
 10
10.0833
 20
516.942
 11
9.69545
 21
516.893
  0
LINE
  8
0
 10
9.69545
 20
516.893
 11
-9.69545
 21
516.893
  0
LINE
  8
0
 10
10.9369
 20
310.589
 11
11.5451
 21
310.745
  0
LINE
  8
0
 10
11.5451
 20
310.745
 11
12.1289
 21
310.976
  0
LINE
  8
0
 10
12.1289
 20
310.976
 11
12.6791
 21
311.278
  0
LINE
  8
0
 10
12.6791
 20
311.278
 11
13.1871
 21
311.647
  0
LINE
  8
0
 10
13.1871
 20
311.647
 11
13.6448
 21
312.077
  0
LINE
  8
0
 10
13.6448
 20
312.077
 11
14.0451
 21
312.561
  0
LINE
  8
0
 10
14.0451
 20
312.561
 11
14.3815
 21
313.091
  0
LINE
  8
0
 10
14.3815
 20
313.091
 11
14.6489
 21
313.659
  0
LINE
  8
0
 10
14.6489
 20
313.659
 11
14.8429
 21
314.257
  0
LINE
  8
0
 10
14.8429
 20
314.257
 11
14.9606
 21
314.873
  0
LINE
  8
0
 10
14.9606
 20
314.873
 11
15
 21
315.5
  0
LINE
  8
0
 10
15
 20
315.5
 11
15
 21
500.5
  0
LINE
  8
0
 10
15
 20
500.5
 11
14.9606
 21
501.127
  0
LINE
  8
0
 10
14.9606
 20
501.127
 11
14.8429
 21
501.743
  0
LINE
  8
0
 10
14.8429
 20
501.743
 11
14.6489
 21
502.341
  0
LINE
  8
0
 10
14.6489
 20
502.341
 11
14.3815
 21
502.909
  0
LINE
  8
0
 10
14.3815
 20
502.909
 11
14.0451
 21
503.439
  0
LINE
  8
0
 10
14.0451
 20
503.439
 11
13.6448
 21
503.923
  0
LINE
  8
0
 10
13.6448
 20
503.923
 11
13.1871
 21
504.353
  0
LINE
  8
0
 10
13.1871
 20
504.353
 11
12.6791
 21
504.722
  0
LINE
  8
0
 10
12.6791
 20
504.722
 11
12.1289
 21
505.024
  0
LINE
  8
0
 10
12.1289
 20
505.024
 11
11.5451
 21
505.255
  0
LINE
  8
0
 10
11.5451
 20
505.255
 11
10.9369
 21
505.411
  0
LINE
  8
0
 10
10.9369
 20
505.411
 11
10.3139
 21
505.49
  0
LINE
  8
0
 10
10.3139
 20
505.49
 11
-10.3139
 21
505.49
  0
LINE
  8
0
 10
-10.3139
 20
505.49
 11
-10.9369
 21
505.411
  0
LINE
  8
0
 10
-10.9369
 20
505.411
 11
-11.5451
 21
505.255
  0
LINE
  8
0
 10
-11.5451
 20
505.255
 11
-12.1289
 21
505.024
  0
LINE
  8
0
 10
-12.1289
 20
505.024
 11
-12.6791
 21
504.722
  0
LINE
  8
0
 10
-12.6791
 20
504.722
 11
-13.1871
 21
504.353
  0
LINE
  8
0
 10
-13.1871
 20
504.353
 11
-13.6448
 21
503.923
  0
LINE
  8
0
 10
-13.6448
 20
503.923
 11
-14.0451
 21
503.439
  0
LINE
  8
0
 10
-14.0451
 20
503.439
 11
-14.3815
 21
502.909
  0
LINE
  8
0
 10
-14.3815
 20
502.909
 11
-14.6489
 21
502.341
  0
LINE
  8
0
 10
-14.6489
 20
502.341
 11
-14.8429
 21
501.743
  0
LINE
  8
0
 10
-14.8429
 20
501.743
 11
-14.9606
 21
501.127
  0
LINE
  8
0
 10
-14.9606
 20
501.127
 11
-15
 21
500.5
  0
LINE
  8
0
 10
-15
 20
500.5
 11
-15
 21
315.5
  0
LINE
  8
0
 10
-15
 20
315.5
 11
-14.9606
 21
314.873
  0
LINE
  8
0
 10
-14.9606
 20
314.873
 11
-14.8429
 21
314.257
  0
LINE
  8
0
 10
-14.8429
 20
314.257
 11
-14.6489
 21
313.659
  0
LINE
  8
0
 10
-14.6489
 20
313.659
 11
-14.3815
 21
313.091
  0
LINE
  8
0
 10
-14.3815
 20
313.091
 11
-14.0451
 21
312.561
  0
LINE
  8
0
 10
-14.0451
 20
312.561
 11
-13.6448
 21
312.077
  0
LINE
  8
0
 10
-13.6448
 20
312.077
 11
-13.1871
 21
311.647
  0
LINE
  8
0
 10
-13.1871
 20
311.647
 11
-12.6791
 21
311.278
  0
LINE
  8
0
 10
-12.6791
 20
311.278
 11
-12.1289
 21
310.976
  0
LINE
  8
0
 10
-12.1289
 20
310.976
 11
-11.5451
 21
310.745
  0
LINE
  8
0
 10
-11.5451
 20
310.745
 11
-10.9369
 21
310.589
  0
LINE
  8
0
 10
-10.9369
 20
310.589
 11
-10.3139
 21
310.51
  0
LINE
  8
0
 10
-10.3139
 20
310.51
 11
10.3139
 21
310.51
  0
LINE
  8
0
 10
10.3139
 20
310.51
 11
10.9369
 21
310.589
  0
LINE
  8
0
 10
7.36592
 20
495.869
 11
7.09988
 21
495.903
  0
LINE
  8
0
 10
7.09988
 20
495.903
 11
6.84015
 21
495.969
  0
LINE
  8
0
 10
6.84015
 20
495.969
 11
6.59084
 21
496.068
  0
LINE
  8
0
 10
6.59084
 20
496.068
 11
6.35585
 21
496.197
  0
LINE
  8
0
 10
6.35585
 20
496.197
 11
6.1389
 21
496.355
  0
LINE
  8
0
 10
6.1389
 20
496.355
 11
5.94344
 21
496.538
  0
LINE
  8
0
 10
5.94344
 20
496.538
 11
5.77251
 21
496.745
  0
LINE
  8
0
 10
5.77251
 20
496.745
 11
5.62881
 21
496.971
  0
LINE
  8
0
 10
5.62881
 20
496.971
 11
5.51465
 21
497.214
  0
LINE
  8
0
 10
5.51465
 20
497.214
 11
5.43178
 21
497.469
  0
LINE
  8
0
 10
5.43178
 20
497.469
 11
5.38153
 21
497.732
  0
LINE
  8
0
 10
5.38153
 20
497.732
 11
5.3647
 21
498
  0
LINE
  8
0
 10
5.3647
 20
498
 11
5.38153
 21
498.268
  0
LINE
  8
0
 10
5.38153
 20
498.268
 11
5.43178
 21
498.531
  0
LINE
  8
0
 10
5.43178
 20
498.531
 11
5.51465
 21
498.786
  0
LINE
  8
0
 10
5.51465
 20
498.786
 11
5.62881
 21
499.029
  0
LINE
  8
0
 10
5.62881
 20
499.029
 11
5.77251
 21
499.255
  0
LINE
  8
0
 10
5.77251
 20
499.255
 11
5.94344
 21
499.462
  0
LINE
  8
0
 10
5.94344
 20
499.462
 11
6.1389
 21
499.645
  0
LINE
  8
0
 10
6.1389
 20
499.645
 11
6.35585
 21
499.803
  0
LINE
  8
0
 10
6.35585
 20
499.803
 11
6.59084
 21
499.932
  0
LINE
  8
0
 10
6.59084
 20
499.932
 11
6.84015
 21
500.031
  0
LINE
  8
0
 10
6.84015
 20
500.031
 11
7.09988
 21
500.097
  0
LINE
  8
0
 10
7.09988
 20
500.097
 11
7.36592
 21
500.131
  0
LINE
  8
0
 10
7.36592
 20
500.131
 11
7.63406
 21
500.131
  0
LINE
  8
0
 10
7.63406
 20
500.131
 11
7.9001
 21
500.097
  0
LINE
  8
0
 10
7.9001
 20
500.097
 11
8.15984
 21
500.031
  0
LINE
  8
0
 10
8.15984
 20
500.031
 11
8.40915
 21
499.932
  0
LINE
  8
0
 10
8.40915
 20
499.932
 11
8.64413
 21
499.803
  0
LINE
  8
0
 10
8.64413
 20
499.803
 11
8.86108
 21
499.645
  0
LINE
  8
0
 10
8.86108
 20
499.645
 11
9.05655
 21
499.462
  0
LINE
  8
0
 10
9.05655
 20
499.462
 11
9.22748
 21
499.255
  0
LINE
  8
0
 10
9.22748
 20
499.255
 11
9.37117
 21
499.029
  0
LINE
  8
0
 10
9.37117
 20
499.029
 11
9.48534
 21
498.786
  0
LINE
  8
0
 10
9.48534
 20
498.786
 11
9.56821
 21
498.531
  0
LINE
  8
0
 10
9.56821
 20
498.531
 11
9.61845
 21
498.268
  0
LINE
  8
0
 10
9.61845
 20
498.268
 11
9.63528
 21
498
  0
LINE
  8
0
 10
9.63528
 20
498
 11
9.61845
 21
497.732
  0
LINE
  8
0
 10
9.61845
 20
497.732
 11
9.56821
 21
497.469
  0
LINE
  8
0
 10
9.56821
 20
497.469
 11
9.48534
 21
497.214
  0
LINE
  8
0
 10
9.48534
 20
497.214
 11
9.37117
 21
496.971
  0
LINE
  8
0
 10
9.37117
 20
496.971
 11
9.22748
 21
496.745
  0
LINE
  8
0
 10
9.22748
 20
496.745
 11
9.05655
 21
496.538
  0
LINE
  8
0
 10
9.05655
 20
496.538
 11
8.86108
 21
496.355
  0
LINE
  8
0
 10
8.86108
 20
496.355
 11
8.64413
 21
496.197
  0
LINE
  8
0
 10
8.64413
 20
496.197
 11
8.40915
 21
496.068
  0
LINE
  8
0
 10
8.40915
 20
496.068
 11
8.15984
 21
495.969
  0
LINE
  8
0
 10
8.15984
 20
495.969
 11
7.9001
 21
495.903
  0
LINE
  8
0
 10
7.9001
 20
495.903
 11
7.63406
 21
495.869
  0
LINE
  8
0
 10
7.63406
 20
495.869
 11
7.36592
 21
495.869
  0
LINE
  8
0
 10
-7.63406
 20
495.869
 11
-7.9001
 21
495.903
  0
LINE
  8
0
 10
-7.9001
 20
495.903
 11
-8.15984
 21
495.969
  0
LINE
  8
0
 10
-8.15984
 20
495.969
 11
-8.40915
 21
496.068
  0
LINE
  8
0
 10
-8.40915
 20
496.068
 11
-8.64413
 21
496.197
  0
LINE
  8
0
 10
-8.64413
 20
496.197
 11
-8.86108
 21
496.355
  0
LINE
  8
0
 10
-8.86108
 20
496.355
 11
-9.05655
 21
496.538
  0
LINE
  8
0
 10
-9.05655
 20
496.538
 11
-9.22748
 21
496.745
  0
LINE
  8
0
 10
-9.22748
 20
496.745
 11
-9.37117
 21
496.971
  0
LINE
  8
0
 10
-9.37117
 20
496.971
 11
-9.48534
 21
497.214
  0
LINE
  8
0
 10
-9.48534
 20
497.214
 11
-9.56821
 21
497.469
  0
LINE
  8
0
 10
-9.56821
 20
497.469
 11
-9.61845
 21
497.732
  0
LINE
  8
0
 10
-9.61845
 20
497.732
 11
-9.63528
 21
498
  0
LINE
  8
0
 10
-9.63528
 20
498
 11
-9.61845
 21
498.268
  0
LINE
  8
0
 10
-9.61845
 20
498.268
 11
-9.56821
 21
498.531
  0
LINE
  8
0
 10
-9.56821
 20
498.531
 11
-9.48534
 21
498.786
  0
LINE
  8
0
 10
-9.48534
 20
498.786
 11
-9.37117
 21
499.029
  0
LINE
  8
0
 10
-9.37117
 20
499.029
 11
-9.22748
 21
499.255
  0
LINE
  8
0
 10
-9.22748
 20
499.255
 11
-9.05655
 21
499.462
  0
LINE
  8
0
 10
-9.05655
 20
499.462
 11
-8.86108
 21
499.645
  0
LINE
  8
0
 10
-8.86108
 20
499.645
 11
-8.64413
 21
499.803
  0
LINE
  8
0
 10
-8.64413
 20
499.803
 11
-8.40915
 21
499.932
  0
LINE
  8
0
 10
-8.40915
 20
499.932
 11
-8.15984
 21
500.031
  0
LINE
  8
0
 10
-8.15984
 20
500.031
 11
-7.9001
 21
500.097
  0
LINE
  8
0
 10
-7.9001
 20
500.097
 11
-7.63406
 21
500.131
  0
LINE
  8
0
 10
-7.63406
 20
500.131
 11
-7.36592
 21
500.131
  0
LINE
  8
0
 10
-7.36592
 20
500.131
 11
-7.09988
 21
500.097
  0
LINE
  8
0
 10
-7.09988
 20
500.097
 11
-6.84015
 21
500.031
  0
LINE
  8
0
 10
-6.84015
 20
500.031
 11
-6.59084
 21
499.932
  0
LINE
  8
0
 10
-6.59084
 20
499.932
 11
-6.35585
 21
499.803
  0
LINE
  8
0
 10
-6.35585
 20
499.803
 11
-6.1389
 21
499.645
  0
LINE
  8
0
 10
-6.1389
 20
499.645
 11
-5.94344
 21
499.462
  0
LINE
  8
0
 10
-5.94344
 20
499.462
 11
-5.77251
 21
499.255
  0
LINE
  8
0
 10
-5.77251
 20
499.255
 11
-5.62881
 21
499.029
  0
LINE
  8
0
 10
-5.62881
 20
499.029
 11
-5.51465
 21
498.786
  0
LINE
  8
0
 10
-5.51465
 20
498.786
 11
-5.43178
 21
498.531
  0
LINE
  8
0
 10
-5.43178
 20
498.531
 11
-5.38153
 21
498.268
  0
LINE
  8
0
 10
-5.38153
 20
498.268
 11
-5.3647
 21
498
  0
LINE
  8
0
 10
-5.3647
 20
498
 11
-5.38153
 21
497.732
  0
LINE
  8
0
 10
-5.38153
 20
497.732
 11
-5.43178
 21
497.469
  0
LINE
  8
0
 10
-5.43178
 20
497.469
 11
-5.51465
 21
497.214
  0
LINE
  8
0
 10
-5.51465
 20
497.214
 11
-5.62881
 21
496.971
  0
LINE
  8
0
 10
-5.62881
 20
496.971
 11
-5.77251
 21
496.745
  0
LINE
  8
0
 10
-5.77251
 20
496.745
 11
-5.94344
 21
496.538
  0
LINE
  8
0
 10
-5.94344
 20
496.538
 11
-6.1389
 21
496.355
  0
LINE
  8
0
 10
-6.1389
 20
496.355
 11
-6.35585
 21
496.197
  0
LINE
  8
0
 10
-6.35585
 20
496.197
 11
-6.59084
 21
496.068
  0
LINE
  8
0
 10
-6.59084
 20
496.068
 11
-6.84015
 21
495.969
  0
LINE
  8
0
 10
-6.84015
 20
495.969
 11
-7.09988
 21
495.903
  0
LINE
  8
0
 10
-7.09988
 20
495.903
 11
-7.36592
 21
495.869
  0
LINE
  8
0
 10
-7.36592
 20
495.869
 11
-7.63406
 21
495.869
  0
LINE
  8
0
 10
7.36592
 20
315.869
 11
7.09988
 21
315.903
  0
LINE
  8
0
 10
7.09988
 20
315.903
 11
6.84015
 21
315.969
  0
LINE
  8
0
 10
6.84015
 20
315.969
 11
6.59084
 21
316.068
  0
LINE
  8
0
 10
6.59084
 20
316.068
 11
6.35585
 21
316.197
  0
LINE
  8
0
 10
6.35585
 20
316.197
 11
6.1389
 21
316.355
  0
LINE
  8
0
 10
6.1389
 20
316.355
 11
5.94344
 21
316.538
  0
LINE
  8
0
 10
5.94344
 20
316.538
 11
5.77251
 21
316.745
  0
LINE
  8
0
 10
5.77251
 20
316.745
 11
5.62881
 21
316.971
  0
LINE
  8
0
 10
5.62881
 20
316.971
 11
5.51465
 21
317.214
  0
LINE
  8
0
 10
5.51465
 20
317.214
 11
5.43178
 21
317.469
  0
LINE
  8
0
 10
5.43178
 20
317.469
 11
5.38153
 21
317.732
  0
LINE
  8
0
 10
5.38153
 20
317.732
 11
5.3647
 21
318
  0
LINE
  8
0
 10
5.3647
 20
318
 11
5.38153
 21
318.268
  0
LINE
  8
0
 10
5.38153
 20
318.268
 11
5.43178
 21
318.531
  0
LINE
  8
0
 10
5.43178
 20
318.531
 11
5.51465
 21
318.786
  0
LINE
  8
0
 10
5.51465
 20
318.786
 11
5.62881
 21
319.029
  0
LINE
  8
0
 10
5.62881
 20
319.029
 11
5.77251
 21
319.255
  0
LINE
  8
0
 10
5.77251
 20
319.255
 11
5.94344
 21
319.462
  0
LINE
  8
0
 10
5.94344
 20
319.462
 11
6.1389
 21
319.645
  0
LINE
  8
0
 10
6.1389
 20
319.645
 11
6.35585
 21
319.803
  0
LINE
  8
0
 10
6.35585
 20
319.803
 11
6.59084
 21
319.932
  0
LINE
  8
0
 10
6.59084
 20
319.932
 11
6.84015
 21
320.031
  0
LINE
  8
0
 10
6.84015
 20
320.031
 11
7.09988
 21
320.097
  0
LINE
  8
0
 10
7.09988
 20
320.097
 11
7.36592
 21
320.131
  0
LINE
  8
0
 10
7.36592
 20
320.131
 11
7.63406
 21
320.131
  0
LINE
  8
0
 10
7.63406
 20
320.131
 11
7.9001
 21
320.097
  0
LINE
  8
0
 10
7.9001
 20
320.097
 11
8.15984
 21
320.031
  0
LINE
  8
0
 10
8.15984
 20
320.031
 11
8.40915
 21
319.932
  0
LINE
  8
0
 10
8.40915
 20
319.932
 11
8.64413
 21
319.803
  0
LINE
  8
0
 10
8.64413
 20
319.803
 11
8.86108
 21
319.645
  0
LINE
  8
0
 10
8.86108
 20
319.645
 11
9.05655
 21
319.462
  0
LINE
  8
0
 10
9.05655
 20
319.462
 11
9.22748
 21
319.255
  0
LINE
  8
0
 10
9.22748
 20
319.255
 11
9.37117
 21
319.029
  0
LINE
  8
0
 10
9.37117
 20
319.029
 11
9.48534
 21
318.786
  0
LINE
  8
0
 10
9.48534
 20
318.786
 11
9.56821
 21
318.531
  0
LINE
  8
0
 10
9.56821
 20
318.531
 11
9.61845
 21
318.268
  0
LINE
  8
0
 10
9.61845
 20
318.268
 11
9.63528
 21
318
  0
LINE
  8
0
 10
9.63528
 20
318
 11
9.61845
 21
317.732
  0
LINE
  8
0
 10
9.61845
 20
317.732
 11
9.56821
 21
317.469
  0
LINE
  8
0
 10
9.56821
 20
317.469
 11
9.48534
 21
317.214
  0
LINE
  8
0
 10
9.48534
 20
317.214
 11
9.37117
 21
316.971
  0
LINE
  8
0
 10
9.37117
 20
316.971
 11
9.22748
 21
316.745
  0
LINE
  8
0
 10
9.22748
 20
316.745
 11
9.05655
 21
316.538
  0
LINE
  8
0
 10
9.05655
 20
316.538
 11
8.86108
 21
316.355
  0
LINE
  8
0
 10
8.86108
 20
316.355
 11
8.64413
 21
316.197
  0
LINE
  8
0
 10
8.64413
 20
316.197
 11
8.40915
 21
316.068
  0
LINE
  8
0
 10
8.40915
 20
316.068
 11
8.15984
 21
315.969
  0
LINE
  8
0
 10
8.15984
 20
315.969
 11
7.9001
 21
315.903
  0
LINE
  8
0
 10
7.9001
 20
315.903
 11
7.63406
 21
315.869
  0
LINE
  8
0
 10
7.63406
 20
315.869
 11
7.36592
 21
315.869
  0
LINE
  8
0
 10
-7.63406
 20
315.869
 11
-7.9001
 21
315.903
  0
LINE
  8
0
 10
-7.9001
 20
315.903
 11
-8.15984
 21
315.969
  0
LINE
  8
0
 10
-8.15984
 20
315.969
 11
-8.40915
 21
316.068
  0
LINE
  8
0
 10
-8.40915
 20
316.068
 11
-8.64413
 21
316.197
  0
LINE
  8
0
 10
-8.64413
 20
316.197
 11
-8.86108
 21
316.355
  0
LINE
  8
0
 10
-8.86108
 20
316.355
 11
-9.05655
 21
316.538
  0
LINE
  8
0
 10
-9.05655
 20
316.538
 11
-9.22748
 21
316.745
  0
LINE
  8
0
 10
-9.22748
 20
316.745
 11
-9.37117
 21
316.971
  0
LINE
  8
0
 10
-9.37117
 20
316.971
 11
-9.48534
 21
317.214
  0
LINE
  8
0
 10
-9.48534
 20
317.214
 11
-9.56821
 21
317.469
  0
LINE
  8
0
 10
-9.56821
 20
317.469
 11
-9.61845
 21
317.732
  0
LINE
  8
0
 10
-9.61845
 20
317.732
 11
-9.63528
 21
318
  0
LINE
  8
0
 10
-9.63528
 20
318
 11
-9.61845
 21
318.268
  0
LINE
  8
0
 10
-9.61845
 20
318.268
 11
-9.56821
 21
318.531
  0
LINE
  8
0
 10
-9.56821
 20
318.531
 11
-9.48534
 21
318.786
  0
LINE
  8
0
 10
-9.48534
 20
318.786
 11
-9.37117
 21
319.029
  0
LINE
  8
0
 10
-9.37117
 20
319.029
 11
-9.22748
 21
319.255
  0
LINE
  8
0
 10
-9.22748
 20
319.255
 11
-9.05655
 21
319.462
  0
LINE
  8
0
 10
-9.05655
 20
319.462
 11
-8.86108
 21
319.645
  0
LINE
  8
0
 10
-8.86108
 20
319.645
 11
-8.64413
 21
319.803
  0
LINE
  8
0
 10
-8.64413
 20
319.803
 11
-8.40915
 21
319.932
  0
LINE
  8
0
 10
-8.40915
 20
319.932
 11
-8.15984
 21
320.031
  0
LINE
  8
0
 10
-8.15984
 20
320.031
 11
-7.9001
 21
320.097
  0
LINE
  8
0
 10
-7.9001
 20
320.097
 11
-7.63406
 21
320.131
  0
LINE
  8
0
 10
-7.63406
 20
320.131
 11
-7.36592
 21
320.131
  0
LINE
  8
0
 10
-7.36592
 20
320.131
 11
-7.09988
 21
320.097
  0
LINE
  8
0
 10
-7.09988
 20
320.097
 11
-6.84015
 21
320.031
  0
LINE
  8
0
 10
-6.84015
 20
320.031
 11
-6.59084
 21
319.932
  0
LINE
  8
0
 10
-6.59084
 20
319.932
 11
-6.35585
 21
319.803
  0
LINE
  8
0
 10
-6.35585
 20
319.803
 11
-6.1389
 21
319.645
  0
LINE
  8
0
 10
-6.1389
 20
319.645
 11
-5.94344
 21
319.462
  0
LINE
  8
0
 10
-5.94344
 20
319.462
 11
-5.77251
 21
319.255
  0
LINE
  8
0
 10
-5.77251
 20
319.255
 11
-5.62881
 21
319.029
  0
LINE
  8
0
 10
-5.62881
 20
319.029
 11
-5.51465
 21
318.786
  0
LINE
  8
0
 10
-5.51465
 20
318.786
 11
-5.43178
 21
318.531
  0
LINE
  8
0
 10
-5.43178
 20
318.531
 11
-5.38153
 21
318.268
  0
LINE
  8
0
 10
-5.38153
 20
318.268
 11
-5.3647
 21
318
  0
LINE
  8
0
 10
-5.3647
 20
318
 11
-5.38153
 21
317.732
  0
LINE
  8
0
 10
-5.38153
 20
317.732
 11
-5.43178
 21
317.469
  0
LINE
  8
0
 10
-5.43178
 20
317.469
 11
-5.51465
 21
317.214
  0
LINE
  8
0
 10
-5.51465
 20
317.214
 11
-5.62881
 21
316.971
  0
LINE
  8
0
 10
-5.62881
 20
316.971
 11
-5.77251
 21
316.745
  0
LINE
  8
0
 10
-5.77251
 20
316.745
 11
-5.94344
 21
316.538
  0
LINE
  8
0
 10
-5.94344
 20
316.538
 11
-6.1389
 21
316.355
  0
LINE
  8
0
 10
-6.1389
 20
316.355
 11
-6.35585
 21
316.197
  0
LINE
  8
0
 10
-6.35585
 20
316.197
 11
-6.59084
 21
316.068
  0
LINE
  8
0
 10
-6.59084
 20
316.068
 11
-6.84015
 21
315.969
  0
LINE
  8
0
 10
-6.84015
 20
315.969
 11
-7.09988
 21
315.903
  0
LINE
  8
0
 10
-7.09988
 20
315.903
 11
-7.36592
 21
315.869
  0
LINE
  8
0
 10
-7.36592
 20
315.869
 11
-7.63406
 21
315.869
  0
ENDSEC
  0
SECTION
  2
OBJECTS
  0
DICTIONARY
  0
ENDSEC
  0
EOF
