<?xml version="1.0" standalone="no"?>
<!DOCTYPE svg PUBLIC "-//W3C//DTD SVG 1.1//EN" "http://www.w3.org/Graphics/SVG/1.1/DTD/svg11.dtd">
<svg width="196mm" height="267mm" viewBox="-98 -513 196 267" xmlns="http://www.w3.org/2000/svg" version="1.1">
<title>OpenSCAD Model</title>
<path d="
M 93.4369,-453.089 L 94.0451,-453.245 L 94.6289,-453.476 L 95.1791,-453.778 L 95.6871,-454.147 L 96.1448,-454.577
 L 96.5451,-455.061 L 96.8815,-455.591 L 97.1489,-456.159 L 97.3429,-456.757 L 97.4606,-457.373 L 97.5,-458
 L 97.5,-508 L 97.4606,-508.627 L 97.3429,-509.243 L 97.1489,-509.841 L 96.8815,-510.409 L 96.5451,-510.939
 L 96.1448,-511.423 L 95.6871,-511.853 L 95.1791,-512.222 L 94.6289,-512.524 L 94.0451,-512.755 L 93.4369,-512.911
 L 92.8139,-512.99 L -92.8139,-512.99 L -93.4369,-512.911 L -94.0451,-512.755 L -94.6289,-512.524 L -95.1791,-512.222
 L -95.6871,-511.853 L -96.1448,-511.423 L -96.5451,-510.939 L -96.8815,-510.409 L -97.1489,-509.841 L -97.3429,-509.243
 L -97.4606,-508.627 L -97.5,-508 L -97.5,-458 L -97.4606,-457.373 L -97.3429,-456.757 L -97.1489,-456.159
 L -96.8815,-455.591 L -96.5451,-455.061 L -96.1448,-454.577 L -95.6871,-454.147 L -95.1791,-453.778 L -94.6289,-453.476
 L -94.0451,-453.245 L -93.4369,-453.089 L -92.8139,-453.01 L 92.8139,-453.01 z
M -92.5482,-453.509 L -93.1401,-453.584 L -93.7178,-453.732 L -94.2724,-453.952 L -94.7952,-454.239 L -95.2778,-454.59
 L -95.7126,-454.998 L -96.0928,-455.458 L -96.4125,-455.962 L -96.6664,-456.501 L -96.8508,-457.069 L -96.9625,-457.655
 L -97,-458.25 L -97,-507.75 L -96.9625,-508.345 L -96.8508,-508.931 L -96.6664,-509.499 L -96.4125,-510.038
 L -96.0928,-510.542 L -95.7126,-511.002 L -95.2778,-511.41 L -94.7952,-511.761 L -94.2724,-512.048 L -93.7178,-512.268
 L -93.1401,-512.416 L -92.5482,-512.491 L 92.5482,-512.491 L 93.1401,-512.416 L 93.7178,-512.268 L 94.2724,-512.048
 L 94.7952,-511.761 L 95.2778,-511.41 L 95.7126,-511.002 L 96.0928,-510.542 L 96.4125,-510.038 L 96.6664,-509.499
 L 96.8508,-508.931 L 96.9625,-508.345 L 97,-507.75 L 97,-458.25 L 96.9625,-457.655 L 96.8508,-457.069
 L 96.6664,-456.501 L 96.4125,-455.962 L 96.0928,-455.458 L 95.7126,-454.998 L 95.2778,-454.59 L 94.7952,-454.239
 L 94.2724,-453.952 L 93.7178,-453.732 L 93.1401,-453.584 L 92.5482,-453.509 z
M 93.4369,-384.089 L 94.0451,-384.245 L 94.6289,-384.476 L 95.1791,-384.778 L 95.6871,-385.147 L 96.1448,-385.577
 L 96.5451,-386.061 L 96.8815,-386.591 L 97.1489,-387.159 L 97.3429,-387.757 L 97.4606,-388.373 L 97.5,-389
 L 97.5,-439 L 97.4606,-439.627 L 97.3429,-440.243 L 97.1489,-440.841 L 96.8815,-441.409 L 96.5451,-441.939
 L 96.1448,-442.423 L 95.6871,-442.853 L 95.1791,-443.222 L 94.6289,-443.524 L 94.0451,-443.755 L 93.4369,-443.911
 L 92.8139,-443.99 L -92.8139,-443.99 L -93.4369,-443.911 L -94.0451,-443.755 L -94.6289,-443.524 L -95.1791,-443.222
 L -95.6871,-442.853 L -96.1448,-442.423 L -96.5451,-441.939 L -96.8815,-441.409 L -97.1489,-440.841 L -97.3429,-440.243
 L -97.4606,-439.627 L -97.5,-439 L -97.5,-389 L -97.4606,-388.373 L -97.3429,-387.757 L -97.1489,-387.159
 L -96.8815,-386.591 L -96.5451,-386.061 L -96.1448,-385.577 L -95.6871,-385.147 L -95.1791,-384.778 L -94.6289,-384.476
 L -94.0451,-384.245 L -93.4369,-384.089 L -92.8139,-384.01 L 92.8139,-384.01 z
M -92.5482,-384.509 L -93.1401,-384.584 L -93.7178,-384.732 L -94.2724,-384.952 L -94.7952,-385.239 L -95.2778,-385.59
 L -95.7126,-385.998 L -96.0928,-386.458 L -96.4125,-386.962 L -96.6664,-387.501 L -96.8508,-388.069 L -96.9625,-388.655
 L -97,-389.25 L -97,-438.75 L -96.9625,-439.345 L -96.8508,-439.931 L -96.6664,-440.499 L -96.4125,-441.038
 L -96.0928,-441.542 L -95.7126,-442.002 L -95.2778,-442.41 L -94.7952,-442.761 L -94.2724,-443.048 L -93.7178,-443.268
 L -93.1401,-443.416 L -92.5482,-443.491 L 92.5482,-443.491 L 93.1401,-443.416 L 93.7178,-443.268 L 94.2724,-443.048
 L 94.7952,-442.761 L 95.2778,-442.41 L 95.7126,-442.002 L 96.0928,-441.542 L 96.4125,-441.038 L 96.6664,-440.499
 L 96.8508,-439.931 L 96.9625,-439.345 L 97,-438.75 L 97,-389.25 L 96.9625,-388.655 L 96.8508,-388.069
 L 96.6664,-387.501 L 96.4125,-386.962 L 96.0928,-386.458 L 95.7126,-385.998 L 95.2778,-385.59 L 94.7952,-385.239
 L 94.2724,-384.952 L 93.7178,-384.732 L 93.1401,-384.584 L 92.5482,-384.509 z
M 93.4369,-315.089 L 94.0451,-315.245 L 94.6289,-315.476 L 95.1791,-315.778 L 95.6871,-316.147 L 96.1448,-316.577
 L 96.5451,-317.061 L 96.8815,-317.591 L 97.1489,-318.159 L 97.3429,-318.757 L 97.4606,-319.373 L 97.5,-320
 L 97.5,-370 L 97.4606,-370.627 L 97.3429,-371.243 L 97.1489,-371.841 L 96.8815,-372.409 L 96.5451,-372.939
 L 96.1448,-373.423 L 95.6871,-373.853 L 95.1791,-374.222 L 94.6289,-374.524 L 94.0451,-374.755 L 93.4369,-374.911
 L 92.8139,-374.99 L -92.8139,-374.99 L -93.4369,-374.911 L -94.0451,-374.755 L -94.6289,-374.524 L -95.1791,-374.222
 L -95.6871,-373.853 L -96.1448,-373.423 L -96.5451,-372.939 L -96.8815,-372.409 L -97.1489,-371.841 L -97.3429,-371.243
 L -97.4606,-370.627 L -97.5,-370 L -97.5,-320 L -97.4606,-319.373 L -97.3429,-318.757 L -97.1489,-318.159
 L -96.8815,-317.591 L -96.5451,-317.061 L -96.1448,-316.577 L -95.6871,-316.147 L -95.1791,-315.778 L -94.6289,-315.476
 L -94.0451,-315.245 L -93.4369,-315.089 L -92.8139,-315.01 L 92.8139,-315.01 z
M -92.5375,-315.681 L -93.1079,-315.753 L -93.6648,-315.896 L -94.1994,-316.107 L -94.7032,-316.384 L -95.1684,-316.722
 L -95.5875,-317.116 L -95.954,-317.559 L -96.2621,-318.044 L -96.5069,-318.565 L -96.6846,-319.111 L -96.7923,-319.676
 L -96.8284,-320.25 L -96.8284,-369.75 L -96.7923,-370.324 L -96.6846,-370.889 L -96.5069,-371.435 L -96.2621,-371.956
 L -95.954,-372.441 L -95.5875,-372.884 L -95.1684,-373.278 L -94.7032,-373.616 L -94.1994,-373.893 L -93.6648,-374.104
 L -93.1079,-374.247 L -92.5375,-374.319 L 92.5375,-374.319 L 93.1079,-374.247 L 93.6648,-374.104 L 94.1994,-373.893
 L 94.7032,-373.616 L 95.1684,-373.278 L 95.5875,-372.884 L 95.954,-372.441 L 96.2621,-371.956 L 96.5069,-371.435
 L 96.6846,-370.889 L 96.7923,-370.324 L 96.8284,-369.75 L 96.8284,-320.25 L 96.7923,-319.676 L 96.6846,-319.111
 L 96.5069,-318.565 L 96.2621,-318.044 L 95.954,-317.559 L 95.5875,-317.116 L 95.1684,-316.722 L 94.7032,-316.384
 L 94.1994,-316.107 L 93.6648,-315.896 L 93.1079,-315.753 L 92.5375,-315.681 z
M 93.4369,-246.089 L 94.0451,-246.245 L 94.6289,-246.476 L 95.1791,-246.778 L 95.6871,-247.147 L 96.1448,-247.577
 L 96.5451,-248.061 L 96.8815,-248.591 L 97.1489,-249.159 L 97.3429,-249.757 L 97.4606,-250.373 L 97.5,-251
 L 97.5,-301 L 97.4606,-301.627 L 97.3429,-302.243 L 97.1489,-302.841 L 96.8815,-303.409 L 96.5451,-303.939
 L 96.1448,-304.423 L 95.6871,-304.853 L 95.1791,-305.222 L 94.6289,-305.524 L 94.0451,-305.755 L 93.4369,-305.911
 L 92.8139,-305.99 L -92.8139,-305.99 L -93.4369,-305.911 L -94.0451,-305.755 L -94.6289,-305.524 L -95.1791,-305.222
 L -95.6871,-304.853 L -96.1448,-304.423 L -96.5451,-303.939 L -96.8815,-303.409 L -97.1489,-302.841 L -97.3429,-302.243
 L -97.4606,-301.627 L -97.5,-301 L -97.5,-251 L -97.4606,-250.373 L -97.3429,-249.757 L -97.1489,-249.159
 L -96.8815,-248.591 L -96.5451,-248.061 L -96.1448,-247.577 L -95.6871,-247.147 L -95.1791,-246.778 L -94.6289,-246.476
 L -94.0451,-246.245 L -93.4369,-246.089 L -92.8139,-246.01 L 92.8139,-246.01 z
M -92.3825,-249.145 L -92.6453,-249.178 L -92.9019,-249.244 L -93.1482,-249.341 L -93.3804,-249.469 L -93.5947,-249.625
 L -93.7879,-249.806 L -93.9567,-250.01 L -94.0987,-250.234 L -94.2115,-250.473 L -94.2934,-250.725 L -94.343,-250.986
 L -94.3596,-251.25 L -94.3596,-300.75 L -94.343,-301.014 L -94.2934,-301.275 L -94.2115,-301.527 L -94.0987,-301.766
 L -93.9567,-301.99 L -93.7879,-302.194 L -93.5947,-302.375 L -93.3804,-302.531 L -93.1482,-302.659 L -92.9019,-302.756
 L -92.6453,-302.822 L -92.3825,-302.855 L 92.3825,-302.855 L 92.6453,-302.822 L 92.9019,-302.756 L 93.1482,-302.659
 L 93.3804,-302.531 L 93.5947,-302.375 L 93.7879,-302.194 L 93.9567,-301.99 L 94.0987,-301.766 L 94.2115,-301.527
 L 94.2934,-301.275 L 94.343,-301.014 L 94.3596,-300.75 L 94.3596,-251.25 L 94.343,-250.986 L 94.2934,-250.725
 L 94.2115,-250.473 L 94.0987,-250.234 L 93.9567,-250.01 L 93.7879,-249.806 L 93.5947,-249.625 L 93.3804,-249.469
 L 93.1482,-249.341 L 92.9019,-249.244 L 92.6453,-249.178 L 92.3825,-249.145 z
" stroke="black" fill="lightgray" stroke-width="0.5"/>
</svg>
