<?xml version="1.0" standalone="no"?>
<!DOCTYPE svg PUBLIC "-//W3C//DTD SVG 1.1//EN" "http://www.w3.org/Graphics/SVG/1.1/DTD/svg11.dtd">
<svg width="210mm" height="3081mm" viewBox="-105 -6021 210 3081" xmlns="http://www.w3.org/2000/svg" version="1.1">
<title>OpenSCAD Model</title>
<path d="
M 100.937,-5721.09 L 101.545,-5721.24 L 102.129,-5721.48 L 102.679,-5721.78 L 103.187,-5722.15 L 103.645,-5722.58
 L 104.045,-5723.06 L 104.382,-5723.59 L 104.649,-5724.16 L 104.843,-5724.76 L 104.961,-5725.37 L 105,-5726
 L 105,-6016 L 104.961,-6016.63 L 104.843,-6017.24 L 104.649,-6017.84 L 104.382,-6018.41 L 104.045,-6018.94
 L 103.645,-6019.42 L 103.187,-6019.85 L 102.679,-6020.22 L 102.129,-6020.52 L 101.545,-6020.76 L 100.937,-6020.91
 L 100.314,-6020.99 L -100.314,-6020.99 L -100.937,-6020.91 L -101.545,-6020.76 L -102.129,-6020.52 L -102.679,-6020.22
 L -103.187,-6019.85 L -103.645,-6019.42 L -104.045,-6018.94 L -104.382,-6018.41 L -104.649,-6017.84 L -104.843,-6017.24
 L -104.961,-6016.63 L -105,-6016 L -105,-5726 L -104.961,-5725.37 L -104.843,-5724.76 L -104.649,-5724.16
 L -104.382,-5723.59 L -104.045,-5723.06 L -103.645,-5722.58 L -103.187,-5722.15 L -102.679,-5721.78 L -102.129,-5721.48
 L -101.545,-5721.24 L -100.937,-5721.09 L -100.314,-5721.01 L 100.314,-5721.01 z
M -99.7512,-5722.51 L -100.25,-5722.57 L -100.736,-5722.7 L -101.203,-5722.88 L -101.643,-5723.12 L -102.05,-5723.42
 L -102.416,-5723.76 L -102.736,-5724.15 L -103.005,-5724.57 L -103.219,-5725.03 L -103.374,-5725.51 L -103.468,-5726
 L -103.5,-5726.5 L -103.5,-6015.5 L -103.468,-6016 L -103.374,-6016.49 L -103.219,-6016.97 L -103.005,-6017.43
 L -102.736,-6017.85 L -102.416,-6018.24 L -102.05,-6018.58 L -101.643,-6018.88 L -101.203,-6019.12 L -100.736,-6019.3
 L -100.25,-6019.43 L -99.7512,-6019.49 L 99.7512,-6019.49 L 100.25,-6019.43 L 100.736,-6019.3 L 101.203,-6019.12
 L 101.643,-6018.88 L 102.05,-6018.58 L 102.416,-6018.24 L 102.736,-6017.85 L 103.005,-6017.43 L 103.219,-6016.97
 L 103.374,-6016.49 L 103.468,-6016 L 103.5,-6015.5 L 103.5,-5726.5 L 103.468,-5726 L 103.374,-5725.51
 L 103.219,-5725.03 L 103.005,-5724.57 L 102.736,-5724.15 L 102.416,-5723.76 L 102.05,-5723.42 L 101.643,-5723.12
 L 101.203,-5722.88 L 100.736,-5722.7 L 100.25,-5722.57 L 99.7512,-5722.51 z
M 100.937,-5412.09 L 101.545,-5412.24 L 102.129,-5412.48 L 102.679,-5412.78 L 103.187,-5413.15 L 103.645,-5413.58
 L 104.045,-5414.06 L 104.382,-5414.59 L 104.649,-5415.16 L 104.843,-5415.76 L 104.961,-5416.37 L 105,-5417
 L 105,-5707 L 104.961,-5707.63 L 104.843,-5708.24 L 104.649,-5708.84 L 104.382,-5709.41 L 104.045,-5709.94
 L 103.645,-5710.42 L 103.187,-5710.85 L 102.679,-5711.22 L 102.129,-5711.52 L 101.545,-5711.76 L 100.937,-5711.91
 L 100.314,-5711.99 L -100.314,-5711.99 L -100.937,-5711.91 L -101.545,-5711.76 L -102.129,-5711.52 L -102.679,-5711.22
 L -103.187,-5710.85 L -103.645,-5710.42 L -104.045,-5709.94 L -104.382,-5709.41 L -104.649,-5708.84 L -104.843,-5708.24
 L -104.961,-5707.63 L -105,-5707 L -105,-5417 L -104.961,-5416.37 L -104.843,-5415.76 L -104.649,-5415.16
 L -104.382,-5414.59 L -104.045,-5414.06 L -103.645,-5413.58 L -103.187,-5413.15 L -102.679,-5412.78 L -102.129,-5412.48
 L -101.545,-5412.24 L -100.937,-5412.09 L -100.314,-5412.01 L 100.314,-5412.01 z
M -99.7512,-5413.51 L -100.25,-5413.57 L -100.736,-5413.7 L -101.203,-5413.88 L -101.643,-5414.12 L -102.05,-5414.42
 L -102.416,-5414.76 L -102.736,-5415.15 L -103.005,-5415.57 L -103.219,-5416.03 L -103.374,-5416.51 L -103.468,-5417
 L -103.5,-5417.5 L -103.5,-5706.5 L -103.468,-5707 L -103.374,-5707.49 L -103.219,-5707.97 L -103.005,-5708.43
 L -102.736,-5708.85 L -102.416,-5709.24 L -102.05,-5709.58 L -101.643,-5709.88 L -101.203,-5710.12 L -100.736,-5710.3
 L -100.25,-5710.43 L -99.7512,-5710.49 L 99.7512,-5710.49 L 100.25,-5710.43 L 100.736,-5710.3 L 101.203,-5710.12
 L 101.643,-5709.88 L 102.05,-5709.58 L 102.416,-5709.24 L 102.736,-5708.85 L 103.005,-5708.43 L 103.219,-5707.97
 L 103.374,-5707.49 L 103.468,-5707 L 103.5,-5706.5 L 103.5,-5417.5 L 103.468,-5417 L 103.374,-5416.51
 L 103.219,-5416.03 L 103.005,-5415.57 L 102.736,-5415.15 L 102.416,-5414.76 L 102.05,-5414.42 L 101.643,-5414.12
 L 101.203,-5413.88 L 100.736,-5413.7 L 100.25,-5413.57 L 99.7512,-5413.51 z
M 100.937,-5103.09 L 101.545,-5103.24 L 102.129,-5103.48 L 102.679,-5103.78 L 103.187,-5104.15 L 103.645,-5104.58
 L 104.045,-5105.06 L 104.382,-5105.59 L 104.649,-5106.16 L 104.843,-5106.76 L 104.961,-5107.37 L 105,-5108
 L 105,-5398 L 104.961,-5398.63 L 104.843,-5399.24 L 104.649,-5399.84 L 104.382,-5400.41 L 104.045,-5400.94
 L 103.645,-5401.42 L 103.187,-5401.85 L 102.679,-5402.22 L 102.129,-5402.52 L 101.545,-5402.76 L 100.937,-5402.91
 L 100.314,-5402.99 L -100.314,-5402.99 L -100.937,-5402.91 L -101.545,-5402.76 L -102.129,-5402.52 L -102.679,-5402.22
 L -103.187,-5401.85 L -103.645,-5401.42 L -104.045,-5400.94 L -104.382,-5400.41 L -104.649,-5399.84 L -104.843,-5399.24
 L -104.961,-5398.63 L -105,-5398 L -105,-5108 L -104.961,-5107.37 L -104.843,-5106.76 L -104.649,-5106.16
 L -104.382,-5105.59 L -104.045,-5105.06 L -103.645,-5104.58 L -103.187,-5104.15 L -102.679,-5103.78 L -102.129,-5103.48
 L -101.545,-5103.24 L -100.937,-5103.09 L -100.314,-5103.01 L 100.314,-5103.01 z
M -99.7512,-5104.51 L -100.25,-5104.57 L -100.736,-5104.7 L -101.203,-5104.88 L -101.643,-5105.12 L -102.05,-5105.42
 L -102.416,-5105.76 L -102.736,-5106.15 L -103.005,-5106.57 L -103.219,-5107.03 L -103.374,-5107.51 L -103.468,-5108
 L -103.5,-5108.5 L -103.5,-5397.5 L -103.468,-5398 L -103.374,-5398.49 L -103.219,-5398.97 L -103.005,-5399.43
 L -102.736,-5399.85 L -102.416,-5400.24 L -102.05,-5400.58 L -101.643,-5400.88 L -101.203,-5401.12 L -100.736,-5401.3
 L -100.25,-5401.43 L -99.7512,-5401.49 L 99.7512,-5401.49 L 100.25,-5401.43 L 100.736,-5401.3 L 101.203,-5401.12
 L 101.643,-5400.88 L 102.05,-5400.58 L 102.416,-5400.24 L 102.736,-5399.85 L 103.005,-5399.43 L 103.219,-5398.97
 L 103.374,-5398.49 L 103.468,-5398 L 103.5,-5397.5 L 103.5,-5108.5 L 103.468,-5108 L 103.374,-5107.51
 L 103.219,-5107.03 L 103.005,-5106.57 L 102.736,-5106.15 L 102.416,-5105.76 L 102.05,-5105.42 L 101.643,-5105.12
 L 101.203,-5104.88 L 100.736,-5104.7 L 100.25,-5104.57 L 99.7512,-5104.51 z
M 100.937,-4794.09 L 101.545,-4794.24 L 102.129,-4794.48 L 102.679,-4794.78 L 103.187,-4795.15 L 103.645,-4795.58
 L 104.045,-4796.06 L 104.382,-4796.59 L 104.649,-4797.16 L 104.843,-4797.76 L 104.961,-4798.37 L 105,-4799
 L 105,-5089 L 104.961,-5089.63 L 104.843,-5090.24 L 104.649,-5090.84 L 104.382,-5091.41 L 104.045,-5091.94
 L 103.645,-5092.42 L 103.187,-5092.85 L 102.679,-5093.22 L 102.129,-5093.52 L 101.545,-5093.76 L 100.937,-5093.91
 L 100.314,-5093.99 L -100.314,-5093.99 L -100.937,-5093.91 L -101.545,-5093.76 L -102.129,-5093.52 L -102.679,-5093.22
 L -103.187,-5092.85 L -103.645,-5092.42 L -104.045,-5091.94 L -104.382,-5091.41 L -104.649,-5090.84 L -104.843,-5090.24
 L -104.961,-5089.63 L -105,-5089 L -105,-4799 L -104.961,-4798.37 L -104.843,-4797.76 L -104.649,-4797.16
 L -104.382,-4796.59 L -104.045,-4796.06 L -103.645,-4795.58 L -103.187,-4795.15 L -102.679,-4794.78 L -102.129,-4794.48
 L -101.545,-4794.24 L -100.937,-4794.09 L -100.314,-4794.01 L 100.314,-4794.01 z
M -99.7512,-4795.51 L -100.25,-4795.57 L -100.736,-4795.7 L -101.203,-4795.88 L -101.643,-4796.12 L -102.05,-4796.42
 L -102.416,-4796.76 L -102.736,-4797.15 L -103.005,-4797.57 L -103.219,-4798.03 L -103.374,-4798.51 L -103.468,-4799
 L -103.5,-4799.5 L -103.5,-5088.5 L -103.468,-5089 L -103.374,-5089.49 L -103.219,-5089.97 L -103.005,-5090.43
 L -102.736,-5090.85 L -102.416,-5091.24 L -102.05,-5091.58 L -101.643,-5091.88 L -101.203,-5092.12 L -100.736,-5092.3
 L -100.25,-5092.43 L -99.7512,-5092.49 L 99.7512,-5092.49 L 100.25,-5092.43 L 100.736,-5092.3 L 101.203,-5092.12
 L 101.643,-5091.88 L 102.05,-5091.58 L 102.416,-5091.24 L 102.736,-5090.85 L 103.005,-5090.43 L 103.219,-5089.97
 L 103.374,-5089.49 L 103.468,-5089 L 103.5,-5088.5 L 103.5,-4799.5 L 103.468,-4799 L 103.374,-4798.51
 L 103.219,-4798.03 L 103.005,-4797.57 L 102.736,-4797.15 L 102.416,-4796.76 L 102.05,-4796.42 L 101.643,-4796.12
 L 101.203,-4795.88 L 100.736,-4795.7 L 100.25,-4795.57 L 99.7512,-4795.51 z
M 100.937,-4485.09 L 101.545,-4485.24 L 102.129,-4485.48 L 102.679,-4485.78 L 103.187,-4486.15 L 103.645,-4486.58
 L 104.045,-4487.06 L 104.382,-4487.59 L 104.649,-4488.16 L 104.843,-4488.76 L 104.961,-4489.37 L 105,-4490
 L 105,-4780 L 104.961,-4780.63 L 104.843,-4781.24 L 104.649,-4781.84 L 104.382,-4782.41 L 104.045,-4782.94
 L 103.645,-4783.42 L 103.187,-4783.85 L 102.679,-4784.22 L 102.129,-4784.52 L 101.545,-4784.76 L 100.937,-4784.91
 L 100.314,-4784.99 L -100.314,-4784.99 L -100.937,-4784.91 L -101.545,-4784.76 L -102.129,-4784.52 L -102.679,-4784.22
 L -103.187,-4783.85 L -103.645,-4783.42 L -104.045,-4782.94 L -104.382,-4782.41 L -104.649,-4781.84 L -104.843,-4781.24
 L -104.961,-4780.63 L -105,-4780 L -105,-4490 L -104.961,-4489.37 L -104.843,-4488.76 L -104.649,-4488.16
 L -104.382,-4487.59 L -104.045,-4487.06 L -103.645,-4486.58 L -103.187,-4486.15 L -102.679,-4485.78 L -102.129,-4485.48
 L -101.545,-4485.24 L -100.937,-4485.09 L -100.314,-4485.01 L 100.314,-4485.01 z
M -99.7512,-4486.51 L -100.25,-4486.57 L -100.736,-4486.7 L -101.203,-4486.88 L -101.643,-4487.12 L -102.05,-4487.42
 L -102.416,-4487.76 L -102.736,-4488.15 L -103.005,-4488.57 L -103.219,-4489.03 L -103.374,-4489.51 L -103.468,-4490
 L -103.5,-4490.5 L -103.5,-4779.5 L -103.468,-4780 L -103.374,-4780.49 L -103.219,-4780.97 L -103.005,-4781.43
 L -102.736,-4781.85 L -102.416,-4782.24 L -102.05,-4782.58 L -101.643,-4782.88 L -101.203,-4783.12 L -100.736,-4783.3
 L -100.25,-4783.43 L -99.7512,-4783.49 L 99.7512,-4783.49 L 100.25,-4783.43 L 100.736,-4783.3 L 101.203,-4783.12
 L 101.643,-4782.88 L 102.05,-4782.58 L 102.416,-4782.24 L 102.736,-4781.85 L 103.005,-4781.43 L 103.219,-4780.97
 L 103.374,-4780.49 L 103.468,-4780 L 103.5,-4779.5 L 103.5,-4490.5 L 103.468,-4490 L 103.374,-4489.51
 L 103.219,-4489.03 L 103.005,-4488.57 L 102.736,-4488.15 L 102.416,-4487.76 L 102.05,-4487.42 L 101.643,-4487.12
 L 101.203,-4486.88 L 100.736,-4486.7 L 100.25,-4486.57 L 99.7512,-4486.51 z
M 100.937,-4176.09 L 101.545,-4176.24 L 102.129,-4176.48 L 102.679,-4176.78 L 103.187,-4177.15 L 103.645,-4177.58
 L 104.045,-4178.06 L 104.382,-4178.59 L 104.649,-4179.16 L 104.843,-4179.76 L 104.961,-4180.37 L 105,-4181
 L 105,-4471 L 104.961,-4471.63 L 104.843,-4472.24 L 104.649,-4472.84 L 104.382,-4473.41 L 104.045,-4473.94
 L 103.645,-4474.42 L 103.187,-4474.85 L 102.679,-4475.22 L 102.129,-4475.52 L 101.545,-4475.76 L 100.937,-4475.91
 L 100.314,-4475.99 L -100.314,-4475.99 L -100.937,-4475.91 L -101.545,-4475.76 L -102.129,-4475.52 L -102.679,-4475.22
 L -103.187,-4474.85 L -103.645,-4474.42 L -104.045,-4473.94 L -104.382,-4473.41 L -104.649,-4472.84 L -104.843,-4472.24
 L -104.961,-4471.63 L -105,-4471 L -105,-4181 L -104.961,-4180.37 L -104.843,-4179.76 L -104.649,-4179.16
 L -104.382,-4178.59 L -104.045,-4178.06 L -103.645,-4177.58 L -103.187,-4177.15 L -102.679,-4176.78 L -102.129,-4176.48
 L -101.545,-4176.24 L -100.937,-4176.09 L -100.314,-4176.01 L 100.314,-4176.01 z
M -99.7512,-4177.51 L -100.25,-4177.57 L -100.736,-4177.7 L -101.203,-4177.88 L -101.643,-4178.12 L -102.05,-4178.42
 L -102.416,-4178.76 L -102.736,-4179.15 L -103.005,-4179.57 L -103.219,-4180.03 L -103.374,-4180.51 L -103.468,-4181
 L -103.5,-4181.5 L -103.5,-4470.5 L -103.468,-4471 L -103.374,-4471.49 L -103.219,-4471.97 L -103.005,-4472.43
 L -102.736,-4472.85 L -102.416,-4473.24 L -102.05,-4473.58 L -101.643,-4473.88 L -101.203,-4474.12 L -100.736,-4474.3
 L -100.25,-4474.43 L -99.7512,-4474.49 L 99.7512,-4474.49 L 100.25,-4474.43 L 100.736,-4474.3 L 101.203,-4474.12
 L 101.643,-4473.88 L 102.05,-4473.58 L 102.416,-4473.24 L 102.736,-4472.85 L 103.005,-4472.43 L 103.219,-4471.97
 L 103.374,-4471.49 L 103.468,-4471 L 103.5,-4470.5 L 103.5,-4181.5 L 103.468,-4181 L 103.374,-4180.51
 L 103.219,-4180.03 L 103.005,-4179.57 L 102.736,-4179.15 L 102.416,-4178.76 L 102.05,-4178.42 L 101.643,-4178.12
 L 101.203,-4177.88 L 100.736,-4177.7 L 100.25,-4177.57 L 99.7512,-4177.51 z
M 100.937,-3867.09 L 101.545,-3867.24 L 102.129,-3867.48 L 102.679,-3867.78 L 103.187,-3868.15 L 103.645,-3868.58
 L 104.045,-3869.06 L 104.382,-3869.59 L 104.649,-3870.16 L 104.843,-3870.76 L 104.961,-3871.37 L 105,-3872
 L 105,-4162 L 104.961,-4162.63 L 104.843,-4163.24 L 104.649,-4163.84 L 104.382,-4164.41 L 104.045,-4164.94
 L 103.645,-4165.42 L 103.187,-4165.85 L 102.679,-4166.22 L 102.129,-4166.52 L 101.545,-4166.76 L 100.937,-4166.91
 L 100.314,-4166.99 L -100.314,-4166.99 L -100.937,-4166.91 L -101.545,-4166.76 L -102.129,-4166.52 L -102.679,-4166.22
 L -103.187,-4165.85 L -103.645,-4165.42 L -104.045,-4164.94 L -104.382,-4164.41 L -104.649,-4163.84 L -104.843,-4163.24
 L -104.961,-4162.63 L -105,-4162 L -105,-3872 L -104.961,-3871.37 L -104.843,-3870.76 L -104.649,-3870.16
 L -104.382,-3869.59 L -104.045,-3869.06 L -103.645,-3868.58 L -103.187,-3868.15 L -102.679,-3867.78 L -102.129,-3867.48
 L -101.545,-3867.24 L -100.937,-3867.09 L -100.314,-3867.01 L 100.314,-3867.01 z
M -99.7512,-3868.51 L -100.25,-3868.57 L -100.736,-3868.7 L -101.203,-3868.88 L -101.643,-3869.12 L -102.05,-3869.42
 L -102.416,-3869.76 L -102.736,-3870.15 L -103.005,-3870.57 L -103.219,-3871.03 L -103.374,-3871.51 L -103.468,-3872
 L -103.5,-3872.5 L -103.5,-4161.5 L -103.468,-4162 L -103.374,-4162.49 L -103.219,-4162.97 L -103.005,-4163.43
 L -102.736,-4163.85 L -102.416,-4164.24 L -102.05,-4164.58 L -101.643,-4164.88 L -101.203,-4165.12 L -100.736,-4165.3
 L -100.25,-4165.43 L -99.7512,-4165.49 L 99.7512,-4165.49 L 100.25,-4165.43 L 100.736,-4165.3 L 101.203,-4165.12
 L 101.643,-4164.88 L 102.05,-4164.58 L 102.416,-4164.24 L 102.736,-4163.85 L 103.005,-4163.43 L 103.219,-4162.97
 L 103.374,-4162.49 L 103.468,-4162 L 103.5,-4161.5 L 103.5,-3872.5 L 103.468,-3872 L 103.374,-3871.51
 L 103.219,-3871.03 L 103.005,-3870.57 L 102.736,-3870.15 L 102.416,-3869.76 L 102.05,-3869.42 L 101.643,-3869.12
 L 101.203,-3868.88 L 100.736,-3868.7 L 100.25,-3868.57 L 99.7512,-3868.51 z
M 100.937,-3558.09 L 101.545,-3558.24 L 102.129,-3558.48 L 102.679,-3558.78 L 103.187,-3559.15 L 103.645,-3559.58
 L 104.045,-3560.06 L 104.382,-3560.59 L 104.649,-3561.16 L 104.843,-3561.76 L 104.961,-3562.37 L 105,-3563
 L 105,-3853 L 104.961,-3853.63 L 104.843,-3854.24 L 104.649,-3854.84 L 104.382,-3855.41 L 104.045,-3855.94
 L 103.645,-3856.42 L 103.187,-3856.85 L 102.679,-3857.22 L 102.129,-3857.52 L 101.545,-3857.76 L 100.937,-3857.91
 L 100.314,-3857.99 L -100.314,-3857.99 L -100.937,-3857.91 L -101.545,-3857.76 L -102.129,-3857.52 L -102.679,-3857.22
 L -103.187,-3856.85 L -103.645,-3856.42 L -104.045,-3855.94 L -104.382,-3855.41 L -104.649,-3854.84 L -104.843,-3854.24
 L -104.961,-3853.63 L -105,-3853 L -105,-3563 L -104.961,-3562.37 L -104.843,-3561.76 L -104.649,-3561.16
 L -104.382,-3560.59 L -104.045,-3560.06 L -103.645,-3559.58 L -103.187,-3559.15 L -102.679,-3558.78 L -102.129,-3558.48
 L -101.545,-3558.24 L -100.937,-3558.09 L -100.314,-3558.01 L 100.314,-3558.01 z
M -99.7512,-3559.51 L -100.25,-3559.57 L -100.736,-3559.7 L -101.203,-3559.88 L -101.643,-3560.12 L -102.05,-3560.42
 L -102.416,-3560.76 L -102.736,-3561.15 L -103.005,-3561.57 L -103.219,-3562.03 L -103.374,-3562.51 L -103.468,-3563
 L -103.5,-3563.5 L -103.5,-3852.5 L -103.468,-3853 L -103.374,-3853.49 L -103.219,-3853.97 L -103.005,-3854.43
 L -102.736,-3854.85 L -102.416,-3855.24 L -102.05,-3855.58 L -101.643,-3855.88 L -101.203,-3856.12 L -100.736,-3856.3
 L -100.25,-3856.43 L -99.7512,-3856.49 L 99.7512,-3856.49 L 100.25,-3856.43 L 100.736,-3856.3 L 101.203,-3856.12
 L 101.643,-3855.88 L 102.05,-3855.58 L 102.416,-3855.24 L 102.736,-3854.85 L 103.005,-3854.43 L 103.219,-3853.97
 L 103.374,-3853.49 L 103.468,-3853 L 103.5,-3852.5 L 103.5,-3563.5 L 103.468,-3563 L 103.374,-3562.51
 L 103.219,-3562.03 L 103.005,-3561.57 L 102.736,-3561.15 L 102.416,-3560.76 L 102.05,-3560.42 L 101.643,-3560.12
 L 101.203,-3559.88 L 100.736,-3559.7 L 100.25,-3559.57 L 99.7512,-3559.51 z
M 100.937,-3249.09 L 101.545,-3249.24 L 102.129,-3249.48 L 102.679,-3249.78 L 103.187,-3250.15 L 103.645,-3250.58
 L 104.045,-3251.06 L 104.382,-3251.59 L 104.649,-3252.16 L 104.843,-3252.76 L 104.961,-3253.37 L 105,-3254
 L 105,-3544 L 104.961,-3544.63 L 104.843,-3545.24 L 104.649,-3545.84 L 104.382,-3546.41 L 104.045,-3546.94
 L 103.645,-3547.42 L 103.187,-3547.85 L 102.679,-3548.22 L 102.129,-3548.52 L 101.545,-3548.76 L 100.937,-3548.91
 L 100.314,-3548.99 L -100.314,-3548.99 L -100.937,-3548.91 L -101.545,-3548.76 L -102.129,-3548.52 L -102.679,-3548.22
 L -103.187,-3547.85 L -103.645,-3547.42 L -104.045,-3546.94 L -104.382,-3546.41 L -104.649,-3545.84 L -104.843,-3545.24
 L -104.961,-3544.63 L -105,-3544 L -105,-3254 L -104.961,-3253.37 L -104.843,-3252.76 L -104.649,-3252.16
 L -104.382,-3251.59 L -104.045,-3251.06 L -103.645,-3250.58 L -103.187,-3250.15 L -102.679,-3249.78 L -102.129,-3249.48
 L -101.545,-3249.24 L -100.937,-3249.09 L -100.314,-3249.01 L 100.314,-3249.01 z
M -99.6955,-3251.39 L -100.083,-3251.44 L -100.462,-3251.54 L -100.825,-3251.68 L -101.168,-3251.87 L -101.484,-3252.1
 L -101.769,-3252.37 L -102.018,-3252.67 L -102.228,-3253 L -102.394,-3253.35 L -102.515,-3253.73 L -102.588,-3254.11
 L -102.613,-3254.5 L -102.613,-3543.5 L -102.588,-3543.89 L -102.515,-3544.27 L -102.394,-3544.65 L -102.228,-3545
 L -102.018,-3545.33 L -101.769,-3545.63 L -101.484,-3545.9 L -101.168,-3546.13 L -100.825,-3546.32 L -100.462,-3546.46
 L -100.083,-3546.56 L -99.6955,-3546.61 L 99.6955,-3546.61 L 100.083,-3546.56 L 100.462,-3546.46 L 100.825,-3546.32
 L 101.168,-3546.13 L 101.484,-3545.9 L 101.769,-3545.63 L 102.018,-3545.33 L 102.228,-3545 L 102.394,-3544.65
 L 102.515,-3544.27 L 102.588,-3543.89 L 102.613,-3543.5 L 102.613,-3254.5 L 102.588,-3254.11 L 102.515,-3253.73
 L 102.394,-3253.35 L 102.228,-3253 L 102.018,-3252.67 L 101.769,-3252.37 L 101.484,-3252.1 L 101.168,-3251.87
 L 100.825,-3251.68 L 100.462,-3251.54 L 100.083,-3251.44 L 99.6955,-3251.39 z
M 100.937,-2940.09 L 101.545,-2940.24 L 102.129,-2940.48 L 102.679,-2940.78 L 103.187,-2941.15 L 103.645,-2941.58
 L 104.045,-2942.06 L 104.382,-2942.59 L 104.649,-2943.16 L 104.843,-2943.76 L 104.961,-2944.37 L 105,-2945
 L 105,-3235 L 104.961,-3235.63 L 104.843,-3236.24 L 104.649,-3236.84 L 104.382,-3237.41 L 104.045,-3237.94
 L 103.645,-3238.42 L 103.187,-3238.85 L 102.679,-3239.22 L 102.129,-3239.52 L 101.545,-3239.76 L 100.937,-3239.91
 L 100.314,-3239.99 L -100.314,-3239.99 L -100.937,-3239.91 L -101.545,-3239.76 L -102.129,-3239.52 L -102.679,-3239.22
 L -103.187,-3238.85 L -103.645,-3238.42 L -104.045,-3237.94 L -104.382,-3237.41 L -104.649,-3236.84 L -104.843,-3236.24
 L -104.961,-3235.63 L -105,-3235 L -105,-2945 L -104.961,-2944.37 L -104.843,-2943.76 L -104.649,-2943.16
 L -104.382,-2942.59 L -104.045,-2942.06 L -103.645,-2941.58 L -103.187,-2941.15 L -102.679,-2940.78 L -102.129,-2940.48
 L -101.545,-2940.24 L -100.937,-2940.09 L -100.314,-2940.01 L 100.314,-2940.01 z
M -97.6341,-3230.37 L -97.9001,-3230.4 L -98.1598,-3230.47 L -98.4092,-3230.57 L -98.6441,-3230.7 L -98.8611,-3230.85
 L -99.0566,-3231.04 L -99.2275,-3231.24 L -99.3712,-3231.47 L -99.4853,-3231.71 L -99.5682,-3231.97 L -99.6185,-3232.23
 L -99.6353,-3232.5 L -99.6185,-3232.77 L -99.5682,-3233.03 L -99.4853,-3233.29 L -99.3712,-3233.53 L -99.2275,-3233.76
 L -99.0566,-3233.96 L -98.8611,-3234.15 L -98.6441,-3234.3 L -98.4092,-3234.43 L -98.1598,-3234.53 L -97.9001,-3234.6
 L -97.6341,-3234.63 L -97.3659,-3234.63 L -97.0999,-3234.6 L -96.8401,-3234.53 L -96.5908,-3234.43 L -96.3559,-3234.3
 L -96.1389,-3234.15 L -95.9434,-3233.96 L -95.7725,-3233.76 L -95.6288,-3233.53 L -95.5146,-3233.29 L -95.4318,-3233.03
 L -95.3815,-3232.77 L -95.3647,-3232.5 L -95.3815,-3232.23 L -95.4318,-3231.97 L -95.5146,-3231.71 L -95.6288,-3231.47
 L -95.7725,-3231.24 L -95.9434,-3231.04 L -96.1389,-3230.85 L -96.3559,-3230.7 L -96.5908,-3230.57 L -96.8401,-3230.47
 L -97.0999,-3230.4 L -97.3659,-3230.37 z
M 97.3659,-3230.37 L 97.0999,-3230.4 L 96.8401,-3230.47 L 96.5908,-3230.57 L 96.3559,-3230.7 L 96.1389,-3230.85
 L 95.9434,-3231.04 L 95.7725,-3231.24 L 95.6288,-3231.47 L 95.5146,-3231.71 L 95.4318,-3231.97 L 95.3815,-3232.23
 L 95.3647,-3232.5 L 95.3815,-3232.77 L 95.4318,-3233.03 L 95.5146,-3233.29 L 95.6288,-3233.53 L 95.7725,-3233.76
 L 95.9434,-3233.96 L 96.1389,-3234.15 L 96.3559,-3234.3 L 96.5908,-3234.43 L 96.8401,-3234.53 L 97.0999,-3234.6
 L 97.3659,-3234.63 L 97.6341,-3234.63 L 97.9001,-3234.6 L 98.1598,-3234.53 L 98.4092,-3234.43 L 98.6441,-3234.3
 L 98.8611,-3234.15 L 99.0566,-3233.96 L 99.2275,-3233.76 L 99.3712,-3233.53 L 99.4853,-3233.29 L 99.5682,-3233.03
 L 99.6185,-3232.77 L 99.6353,-3232.5 L 99.6185,-3232.23 L 99.5682,-3231.97 L 99.4853,-3231.71 L 99.3712,-3231.47
 L 99.2275,-3231.24 L 99.0566,-3231.04 L 98.8611,-3230.85 L 98.6441,-3230.7 L 98.4092,-3230.57 L 98.1598,-3230.47
 L 97.9001,-3230.4 L 97.6341,-3230.37 z
M -97.6341,-2945.37 L -97.9001,-2945.4 L -98.1598,-2945.47 L -98.4092,-2945.57 L -98.6441,-2945.7 L -98.8611,-2945.85
 L -99.0566,-2946.04 L -99.2275,-2946.24 L -99.3712,-2946.47 L -99.4853,-2946.71 L -99.5682,-2946.97 L -99.6185,-2947.23
 L -99.6353,-2947.5 L -99.6185,-2947.77 L -99.5682,-2948.03 L -99.4853,-2948.29 L -99.3712,-2948.53 L -99.2275,-2948.76
 L -99.0566,-2948.96 L -98.8611,-2949.15 L -98.6441,-2949.3 L -98.4092,-2949.43 L -98.1598,-2949.53 L -97.9001,-2949.6
 L -97.6341,-2949.63 L -97.3659,-2949.63 L -97.0999,-2949.6 L -96.8401,-2949.53 L -96.5908,-2949.43 L -96.3559,-2949.3
 L -96.1389,-2949.15 L -95.9434,-2948.96 L -95.7725,-2948.76 L -95.6288,-2948.53 L -95.5146,-2948.29 L -95.4318,-2948.03
 L -95.3815,-2947.77 L -95.3647,-2947.5 L -95.3815,-2947.23 L -95.4318,-2946.97 L -95.5146,-2946.71 L -95.6288,-2946.47
 L -95.7725,-2946.24 L -95.9434,-2946.04 L -96.1389,-2945.85 L -96.3559,-2945.7 L -96.5908,-2945.57 L -96.8401,-2945.47
 L -97.0999,-2945.4 L -97.3659,-2945.37 z
M 97.3659,-2945.37 L 97.0999,-2945.4 L 96.8401,-2945.47 L 96.5908,-2945.57 L 96.3559,-2945.7 L 96.1389,-2945.85
 L 95.9434,-2946.04 L 95.7725,-2946.24 L 95.6288,-2946.47 L 95.5146,-2946.71 L 95.4318,-2946.97 L 95.3815,-2947.23
 L 95.3647,-2947.5 L 95.3815,-2947.77 L 95.4318,-2948.03 L 95.5146,-2948.29 L 95.6288,-2948.53 L 95.7725,-2948.76
 L 95.9434,-2948.96 L 96.1389,-2949.15 L 96.3559,-2949.3 L 96.5908,-2949.43 L 96.8401,-2949.53 L 97.0999,-2949.6
 L 97.3659,-2949.63 L 97.6341,-2949.63 L 97.9001,-2949.6 L 98.1598,-2949.53 L 98.4092,-2949.43 L 98.6441,-2949.3
 L 98.8611,-2949.15 L 99.0566,-2948.96 L 99.2275,-2948.76 L 99.3712,-2948.53 L 99.4853,-2948.29 L 99.5682,-2948.03
 L 99.6185,-2947.77 L 99.6353,-2947.5 L 99.6185,-2947.23 L 99.5682,-2946.97 L 99.4853,-2946.71 L 99.3712,-2946.47
 L 99.2275,-2946.24 L 99.0566,-2946.04 L 98.8611,-2945.85 L 98.6441,-2945.7 L 98.4092,-2945.57 L 98.1598,-2945.47
 L 97.9001,-2945.4 L 97.6341,-2945.37 z
" stroke="black" fill="lightgray" stroke-width="0.5"/>
</svg>
