<?xml version="1.0" standalone="no"?>
<!DOCTYPE svg PUBLIC "-//W3C//DTD SVG 1.1//EN" "http://www.w3.org/Graphics/SVG/1.1/DTD/svg11.dtd">
<svg width="16mm" height="4402mm" viewBox="-8 -8669 16 4402" xmlns="http://www.w3.org/2000/svg" version="1.1">
<title>OpenSCAD Model</title>
<path d="
M 3.4369,-8383.59 L 4.04507,-8383.74 L 4.62889,-8383.98 L 5.17912,-8384.28 L 5.68712,-8384.65 L 6.14484,-8385.08
 L 6.54507,-8385.56 L 6.88153,-8386.09 L 7.14888,-8386.66 L 7.34291,-8387.26 L 7.46057,-8387.87 L 7.5,-8388.5
 L 7.5,-8663.5 L 7.46057,-8664.13 L 7.34291,-8664.74 L 7.14888,-8665.34 L 6.88153,-8665.91 L 6.54507,-8666.44
 L 6.14484,-8666.92 L 5.68712,-8667.35 L 5.17912,-8667.72 L 4.62889,-8668.02 L 4.04507,-8668.26 L 3.4369,-8668.41
 L 2.81395,-8668.49 L -2.81395,-8668.49 L -3.4369,-8668.41 L -4.04507,-8668.26 L -4.62889,-8668.02 L -5.17912,-8667.72
 L -5.68712,-8667.35 L -6.14484,-8666.92 L -6.54507,-8666.44 L -6.88153,-8665.91 L -7.14888,-8665.34 L -7.34291,-8664.74
 L -7.46057,-8664.13 L -7.5,-8663.5 L -7.5,-8388.5 L -7.46057,-8387.87 L -7.34291,-8387.26 L -7.14888,-8386.66
 L -6.88153,-8386.09 L -6.54507,-8385.56 L -6.14484,-8385.08 L -5.68712,-8384.65 L -5.17912,-8384.28 L -4.62889,-8383.98
 L -4.04507,-8383.74 L -3.4369,-8383.59 L -2.81395,-8383.51 L 2.81395,-8383.51 z
M -2.25116,-8385.01 L -2.74951,-8385.07 L -3.23605,-8385.2 L -3.70311,-8385.38 L -4.1433,-8385.62 L -4.54968,-8385.92
 L -4.91586,-8386.26 L -5.23605,-8386.65 L -5.50522,-8387.07 L -5.7191,-8387.53 L -5.87433,-8388.01 L -5.96844,-8388.5
 L -6,-8389 L -6,-8663 L -5.96844,-8663.5 L -5.87433,-8663.99 L -5.7191,-8664.47 L -5.50522,-8664.93
 L -5.23605,-8665.35 L -4.91586,-8665.74 L -4.54968,-8666.08 L -4.1433,-8666.38 L -3.70311,-8666.62 L -3.23605,-8666.8
 L -2.74951,-8666.93 L -2.25116,-8666.99 L 2.25116,-8666.99 L 2.74951,-8666.93 L 3.23605,-8666.8 L 3.70311,-8666.62
 L 4.1433,-8666.38 L 4.54968,-8666.08 L 4.91586,-8665.74 L 5.23605,-8665.35 L 5.50522,-8664.93 L 5.7191,-8664.47
 L 5.87433,-8663.99 L 5.96844,-8663.5 L 6,-8663 L 6,-8389 L 5.96844,-8388.5 L 5.87433,-8388.01
 L 5.7191,-8387.53 L 5.50522,-8387.07 L 5.23605,-8386.65 L 4.91586,-8386.26 L 4.54968,-8385.92 L 4.1433,-8385.62
 L 3.70311,-8385.38 L 3.23605,-8385.2 L 2.74951,-8385.07 L 2.25116,-8385.01 z
M 3.4369,-8089.59 L 4.04507,-8089.74 L 4.62889,-8089.98 L 5.17912,-8090.28 L 5.68712,-8090.65 L 6.14484,-8091.08
 L 6.54507,-8091.56 L 6.88153,-8092.09 L 7.14888,-8092.66 L 7.34291,-8093.26 L 7.46057,-8093.87 L 7.5,-8094.5
 L 7.5,-8369.5 L 7.46057,-8370.13 L 7.34291,-8370.74 L 7.14888,-8371.34 L 6.88153,-8371.91 L 6.54507,-8372.44
 L 6.14484,-8372.92 L 5.68712,-8373.35 L 5.17912,-8373.72 L 4.62889,-8374.02 L 4.04507,-8374.26 L 3.4369,-8374.41
 L 2.81395,-8374.49 L -2.81395,-8374.49 L -3.4369,-8374.41 L -4.04507,-8374.26 L -4.62889,-8374.02 L -5.17912,-8373.72
 L -5.68712,-8373.35 L -6.14484,-8372.92 L -6.54507,-8372.44 L -6.88153,-8371.91 L -7.14888,-8371.34 L -7.34291,-8370.74
 L -7.46057,-8370.13 L -7.5,-8369.5 L -7.5,-8094.5 L -7.46057,-8093.87 L -7.34291,-8093.26 L -7.14888,-8092.66
 L -6.88153,-8092.09 L -6.54507,-8091.56 L -6.14484,-8091.08 L -5.68712,-8090.65 L -5.17912,-8090.28 L -4.62889,-8089.98
 L -4.04507,-8089.74 L -3.4369,-8089.59 L -2.81395,-8089.51 L 2.81395,-8089.51 z
M -2.25116,-8091.01 L -2.74951,-8091.07 L -3.23605,-8091.2 L -3.70311,-8091.38 L -4.1433,-8091.62 L -4.54968,-8091.92
 L -4.91586,-8092.26 L -5.23605,-8092.65 L -5.50522,-8093.07 L -5.7191,-8093.53 L -5.87433,-8094.01 L -5.96844,-8094.5
 L -6,-8095 L -6,-8369 L -5.96844,-8369.5 L -5.87433,-8369.99 L -5.7191,-8370.47 L -5.50522,-8370.93
 L -5.23605,-8371.35 L -4.91586,-8371.74 L -4.54968,-8372.08 L -4.1433,-8372.38 L -3.70311,-8372.62 L -3.23605,-8372.8
 L -2.74951,-8372.93 L -2.25116,-8372.99 L 2.25116,-8372.99 L 2.74951,-8372.93 L 3.23605,-8372.8 L 3.70311,-8372.62
 L 4.1433,-8372.38 L 4.54968,-8372.08 L 4.91586,-8371.74 L 5.23605,-8371.35 L 5.50522,-8370.93 L 5.7191,-8370.47
 L 5.87433,-8369.99 L 5.96844,-8369.5 L 6,-8369 L 6,-8095 L 5.96844,-8094.5 L 5.87433,-8094.01
 L 5.7191,-8093.53 L 5.50522,-8093.07 L 5.23605,-8092.65 L 4.91586,-8092.26 L 4.54968,-8091.92 L 4.1433,-8091.62
 L 3.70311,-8091.38 L 3.23605,-8091.2 L 2.74951,-8091.07 L 2.25116,-8091.01 z
M 3.4369,-7795.59 L 4.04507,-7795.74 L 4.62889,-7795.98 L 5.17912,-7796.28 L 5.68712,-7796.65 L 6.14484,-7797.08
 L 6.54507,-7797.56 L 6.88153,-7798.09 L 7.14888,-7798.66 L 7.34291,-7799.26 L 7.46057,-7799.87 L 7.5,-7800.5
 L 7.5,-8075.5 L 7.46057,-8076.13 L 7.34291,-8076.74 L 7.14888,-8077.34 L 6.88153,-8077.91 L 6.54507,-8078.44
 L 6.14484,-8078.92 L 5.68712,-8079.35 L 5.17912,-8079.72 L 4.62889,-8080.02 L 4.04507,-8080.26 L 3.4369,-8080.41
 L 2.81395,-8080.49 L -2.81395,-8080.49 L -3.4369,-8080.41 L -4.04507,-8080.26 L -4.62889,-8080.02 L -5.17912,-8079.72
 L -5.68712,-8079.35 L -6.14484,-8078.92 L -6.54507,-8078.44 L -6.88153,-8077.91 L -7.14888,-8077.34 L -7.34291,-8076.74
 L -7.46057,-8076.13 L -7.5,-8075.5 L -7.5,-7800.5 L -7.46057,-7799.87 L -7.34291,-7799.26 L -7.14888,-7798.66
 L -6.88153,-7798.09 L -6.54507,-7797.56 L -6.14484,-7797.08 L -5.68712,-7796.65 L -5.17912,-7796.28 L -4.62889,-7795.98
 L -4.04507,-7795.74 L -3.4369,-7795.59 L -2.81395,-7795.51 L 2.81395,-7795.51 z
M -2.25116,-7797.01 L -2.74951,-7797.07 L -3.23605,-7797.2 L -3.70311,-7797.38 L -4.1433,-7797.62 L -4.54968,-7797.92
 L -4.91586,-7798.26 L -5.23605,-7798.65 L -5.50522,-7799.07 L -5.7191,-7799.53 L -5.87433,-7800.01 L -5.96844,-7800.5
 L -6,-7801 L -6,-8075 L -5.96844,-8075.5 L -5.87433,-8075.99 L -5.7191,-8076.47 L -5.50522,-8076.93
 L -5.23605,-8077.35 L -4.91586,-8077.74 L -4.54968,-8078.08 L -4.1433,-8078.38 L -3.70311,-8078.62 L -3.23605,-8078.8
 L -2.74951,-8078.93 L -2.25116,-8078.99 L 2.25116,-8078.99 L 2.74951,-8078.93 L 3.23605,-8078.8 L 3.70311,-8078.62
 L 4.1433,-8078.38 L 4.54968,-8078.08 L 4.91586,-8077.74 L 5.23605,-8077.35 L 5.50522,-8076.93 L 5.7191,-8076.47
 L 5.87433,-8075.99 L 5.96844,-8075.5 L 6,-8075 L 6,-7801 L 5.96844,-7800.5 L 5.87433,-7800.01
 L 5.7191,-7799.53 L 5.50522,-7799.07 L 5.23605,-7798.65 L 4.91586,-7798.26 L 4.54968,-7797.92 L 4.1433,-7797.62
 L 3.70311,-7797.38 L 3.23605,-7797.2 L 2.74951,-7797.07 L 2.25116,-7797.01 z
M 3.4369,-7501.59 L 4.04507,-7501.74 L 4.62889,-7501.98 L 5.17912,-7502.28 L 5.68712,-7502.65 L 6.14484,-7503.08
 L 6.54507,-7503.56 L 6.88153,-7504.09 L 7.14888,-7504.66 L 7.34291,-7505.26 L 7.46057,-7505.87 L 7.5,-7506.5
 L 7.5,-7781.5 L 7.46057,-7782.13 L 7.34291,-7782.74 L 7.14888,-7783.34 L 6.88153,-7783.91 L 6.54507,-7784.44
 L 6.14484,-7784.92 L 5.68712,-7785.35 L 5.17912,-7785.72 L 4.62889,-7786.02 L 4.04507,-7786.26 L 3.4369,-7786.41
 L 2.81395,-7786.49 L -2.81395,-7786.49 L -3.4369,-7786.41 L -4.04507,-7786.26 L -4.62889,-7786.02 L -5.17912,-7785.72
 L -5.68712,-7785.35 L -6.14484,-7784.92 L -6.54507,-7784.44 L -6.88153,-7783.91 L -7.14888,-7783.34 L -7.34291,-7782.74
 L -7.46057,-7782.13 L -7.5,-7781.5 L -7.5,-7506.5 L -7.46057,-7505.87 L -7.34291,-7505.26 L -7.14888,-7504.66
 L -6.88153,-7504.09 L -6.54507,-7503.56 L -6.14484,-7503.08 L -5.68712,-7502.65 L -5.17912,-7502.28 L -4.62889,-7501.98
 L -4.04507,-7501.74 L -3.4369,-7501.59 L -2.81395,-7501.51 L 2.81395,-7501.51 z
M -2.25116,-7503.01 L -2.74951,-7503.07 L -3.23605,-7503.2 L -3.70311,-7503.38 L -4.1433,-7503.62 L -4.54968,-7503.92
 L -4.91586,-7504.26 L -5.23605,-7504.65 L -5.50522,-7505.07 L -5.7191,-7505.53 L -5.87433,-7506.01 L -5.96844,-7506.5
 L -6,-7507 L -6,-7781 L -5.96844,-7781.5 L -5.87433,-7781.99 L -5.7191,-7782.47 L -5.50522,-7782.93
 L -5.23605,-7783.35 L -4.91586,-7783.74 L -4.54968,-7784.08 L -4.1433,-7784.38 L -3.70311,-7784.62 L -3.23605,-7784.8
 L -2.74951,-7784.93 L -2.25116,-7784.99 L 2.25116,-7784.99 L 2.74951,-7784.93 L 3.23605,-7784.8 L 3.70311,-7784.62
 L 4.1433,-7784.38 L 4.54968,-7784.08 L 4.91586,-7783.74 L 5.23605,-7783.35 L 5.50522,-7782.93 L 5.7191,-7782.47
 L 5.87433,-7781.99 L 5.96844,-7781.5 L 6,-7781 L 6,-7507 L 5.96844,-7506.5 L 5.87433,-7506.01
 L 5.7191,-7505.53 L 5.50522,-7505.07 L 5.23605,-7504.65 L 4.91586,-7504.26 L 4.54968,-7503.92 L 4.1433,-7503.62
 L 3.70311,-7503.38 L 3.23605,-7503.2 L 2.74951,-7503.07 L 2.25116,-7503.01 z
M 3.4369,-7207.59 L 4.04507,-7207.74 L 4.62889,-7207.98 L 5.17912,-7208.28 L 5.68712,-7208.65 L 6.14484,-7209.08
 L 6.54507,-7209.56 L 6.88153,-7210.09 L 7.14888,-7210.66 L 7.34291,-7211.26 L 7.46057,-7211.87 L 7.5,-7212.5
 L 7.5,-7487.5 L 7.46057,-7488.13 L 7.34291,-7488.74 L 7.14888,-7489.34 L 6.88153,-7489.91 L 6.54507,-7490.44
 L 6.14484,-7490.92 L 5.68712,-7491.35 L 5.17912,-7491.72 L 4.62889,-7492.02 L 4.04507,-7492.26 L 3.4369,-7492.41
 L 2.81395,-7492.49 L -2.81395,-7492.49 L -3.4369,-7492.41 L -4.04507,-7492.26 L -4.62889,-7492.02 L -5.17912,-7491.72
 L -5.68712,-7491.35 L -6.14484,-7490.92 L -6.54507,-7490.44 L -6.88153,-7489.91 L -7.14888,-7489.34 L -7.34291,-7488.74
 L -7.46057,-7488.13 L -7.5,-7487.5 L -7.5,-7212.5 L -7.46057,-7211.87 L -7.34291,-7211.26 L -7.14888,-7210.66
 L -6.88153,-7210.09 L -6.54507,-7209.56 L -6.14484,-7209.08 L -5.68712,-7208.65 L -5.17912,-7208.28 L -4.62889,-7207.98
 L -4.04507,-7207.74 L -3.4369,-7207.59 L -2.81395,-7207.51 L 2.81395,-7207.51 z
M -2.25116,-7209.01 L -2.74951,-7209.07 L -3.23605,-7209.2 L -3.70311,-7209.38 L -4.1433,-7209.62 L -4.54968,-7209.92
 L -4.91586,-7210.26 L -5.23605,-7210.65 L -5.50522,-7211.07 L -5.7191,-7211.53 L -5.87433,-7212.01 L -5.96844,-7212.5
 L -6,-7213 L -6,-7487 L -5.96844,-7487.5 L -5.87433,-7487.99 L -5.7191,-7488.47 L -5.50522,-7488.93
 L -5.23605,-7489.35 L -4.91586,-7489.74 L -4.54968,-7490.08 L -4.1433,-7490.38 L -3.70311,-7490.62 L -3.23605,-7490.8
 L -2.74951,-7490.93 L -2.25116,-7490.99 L 2.25116,-7490.99 L 2.74951,-7490.93 L 3.23605,-7490.8 L 3.70311,-7490.62
 L 4.1433,-7490.38 L 4.54968,-7490.08 L 4.91586,-7489.74 L 5.23605,-7489.35 L 5.50522,-7488.93 L 5.7191,-7488.47
 L 5.87433,-7487.99 L 5.96844,-7487.5 L 6,-7487 L 6,-7213 L 5.96844,-7212.5 L 5.87433,-7212.01
 L 5.7191,-7211.53 L 5.50522,-7211.07 L 5.23605,-7210.65 L 4.91586,-7210.26 L 4.54968,-7209.92 L 4.1433,-7209.62
 L 3.70311,-7209.38 L 3.23605,-7209.2 L 2.74951,-7209.07 L 2.25116,-7209.01 z
M 3.4369,-6913.59 L 4.04507,-6913.74 L 4.62889,-6913.98 L 5.17912,-6914.28 L 5.68712,-6914.65 L 6.14484,-6915.08
 L 6.54507,-6915.56 L 6.88153,-6916.09 L 7.14888,-6916.66 L 7.34291,-6917.26 L 7.46057,-6917.87 L 7.5,-6918.5
 L 7.5,-7193.5 L 7.46057,-7194.13 L 7.34291,-7194.74 L 7.14888,-7195.34 L 6.88153,-7195.91 L 6.54507,-7196.44
 L 6.14484,-7196.92 L 5.68712,-7197.35 L 5.17912,-7197.72 L 4.62889,-7198.02 L 4.04507,-7198.26 L 3.4369,-7198.41
 L 2.81395,-7198.49 L -2.81395,-7198.49 L -3.4369,-7198.41 L -4.04507,-7198.26 L -4.62889,-7198.02 L -5.17912,-7197.72
 L -5.68712,-7197.35 L -6.14484,-7196.92 L -6.54507,-7196.44 L -6.88153,-7195.91 L -7.14888,-7195.34 L -7.34291,-7194.74
 L -7.46057,-7194.13 L -7.5,-7193.5 L -7.5,-6918.5 L -7.46057,-6917.87 L -7.34291,-6917.26 L -7.14888,-6916.66
 L -6.88153,-6916.09 L -6.54507,-6915.56 L -6.14484,-6915.08 L -5.68712,-6914.65 L -5.17912,-6914.28 L -4.62889,-6913.98
 L -4.04507,-6913.74 L -3.4369,-6913.59 L -2.81395,-6913.51 L 2.81395,-6913.51 z
M -2.25116,-6915.01 L -2.74951,-6915.07 L -3.23605,-6915.2 L -3.70311,-6915.38 L -4.1433,-6915.62 L -4.54968,-6915.92
 L -4.91586,-6916.26 L -5.23605,-6916.65 L -5.50522,-6917.07 L -5.7191,-6917.53 L -5.87433,-6918.01 L -5.96844,-6918.5
 L -6,-6919 L -6,-7193 L -5.96844,-7193.5 L -5.87433,-7193.99 L -5.7191,-7194.47 L -5.50522,-7194.93
 L -5.23605,-7195.35 L -4.91586,-7195.74 L -4.54968,-7196.08 L -4.1433,-7196.38 L -3.70311,-7196.62 L -3.23605,-7196.8
 L -2.74951,-7196.93 L -2.25116,-7196.99 L 2.25116,-7196.99 L 2.74951,-7196.93 L 3.23605,-7196.8 L 3.70311,-7196.62
 L 4.1433,-7196.38 L 4.54968,-7196.08 L 4.91586,-7195.74 L 5.23605,-7195.35 L 5.50522,-7194.93 L 5.7191,-7194.47
 L 5.87433,-7193.99 L 5.96844,-7193.5 L 6,-7193 L 6,-6919 L 5.96844,-6918.5 L 5.87433,-6918.01
 L 5.7191,-6917.53 L 5.50522,-6917.07 L 5.23605,-6916.65 L 4.91586,-6916.26 L 4.54968,-6915.92 L 4.1433,-6915.62
 L 3.70311,-6915.38 L 3.23605,-6915.2 L 2.74951,-6915.07 L 2.25116,-6915.01 z
M 3.4369,-6619.59 L 4.04507,-6619.74 L 4.62889,-6619.98 L 5.17912,-6620.28 L 5.68712,-6620.65 L 6.14484,-6621.08
 L 6.54507,-6621.56 L 6.88153,-6622.09 L 7.14888,-6622.66 L 7.34291,-6623.26 L 7.46057,-6623.87 L 7.5,-6624.5
 L 7.5,-6899.5 L 7.46057,-6900.13 L 7.34291,-6900.74 L 7.14888,-6901.34 L 6.88153,-6901.91 L 6.54507,-6902.44
 L 6.14484,-6902.92 L 5.68712,-6903.35 L 5.17912,-6903.72 L 4.62889,-6904.02 L 4.04507,-6904.26 L 3.4369,-6904.41
 L 2.81395,-6904.49 L -2.81395,-6904.49 L -3.4369,-6904.41 L -4.04507,-6904.26 L -4.62889,-6904.02 L -5.17912,-6903.72
 L -5.68712,-6903.35 L -6.14484,-6902.92 L -6.54507,-6902.44 L -6.88153,-6901.91 L -7.14888,-6901.34 L -7.34291,-6900.74
 L -7.46057,-6900.13 L -7.5,-6899.5 L -7.5,-6624.5 L -7.46057,-6623.87 L -7.34291,-6623.26 L -7.14888,-6622.66
 L -6.88153,-6622.09 L -6.54507,-6621.56 L -6.14484,-6621.08 L -5.68712,-6620.65 L -5.17912,-6620.28 L -4.62889,-6619.98
 L -4.04507,-6619.74 L -3.4369,-6619.59 L -2.81395,-6619.51 L 2.81395,-6619.51 z
M -2.25116,-6621.01 L -2.74951,-6621.07 L -3.23605,-6621.2 L -3.70311,-6621.38 L -4.1433,-6621.62 L -4.54968,-6621.92
 L -4.91586,-6622.26 L -5.23605,-6622.65 L -5.50522,-6623.07 L -5.7191,-6623.53 L -5.87433,-6624.01 L -5.96844,-6624.5
 L -6,-6625 L -6,-6899 L -5.96844,-6899.5 L -5.87433,-6899.99 L -5.7191,-6900.47 L -5.50522,-6900.93
 L -5.23605,-6901.35 L -4.91586,-6901.74 L -4.54968,-6902.08 L -4.1433,-6902.38 L -3.70311,-6902.62 L -3.23605,-6902.8
 L -2.74951,-6902.93 L -2.25116,-6902.99 L 2.25116,-6902.99 L 2.74951,-6902.93 L 3.23605,-6902.8 L 3.70311,-6902.62
 L 4.1433,-6902.38 L 4.54968,-6902.08 L 4.91586,-6901.74 L 5.23605,-6901.35 L 5.50522,-6900.93 L 5.7191,-6900.47
 L 5.87433,-6899.99 L 5.96844,-6899.5 L 6,-6899 L 6,-6625 L 5.96844,-6624.5 L 5.87433,-6624.01
 L 5.7191,-6623.53 L 5.50522,-6623.07 L 5.23605,-6622.65 L 4.91586,-6622.26 L 4.54968,-6621.92 L 4.1433,-6621.62
 L 3.70311,-6621.38 L 3.23605,-6621.2 L 2.74951,-6621.07 L 2.25116,-6621.01 z
M 3.4369,-6325.59 L 4.04507,-6325.74 L 4.62889,-6325.98 L 5.17912,-6326.28 L 5.68712,-6326.65 L 6.14484,-6327.08
 L 6.54507,-6327.56 L 6.88153,-6328.09 L 7.14888,-6328.66 L 7.34291,-6329.26 L 7.46057,-6329.87 L 7.5,-6330.5
 L 7.5,-6605.5 L 7.46057,-6606.13 L 7.34291,-6606.74 L 7.14888,-6607.34 L 6.88153,-6607.91 L 6.54507,-6608.44
 L 6.14484,-6608.92 L 5.68712,-6609.35 L 5.17912,-6609.72 L 4.62889,-6610.02 L 4.04507,-6610.26 L 3.4369,-6610.41
 L 2.81395,-6610.49 L -2.81395,-6610.49 L -3.4369,-6610.41 L -4.04507,-6610.26 L -4.62889,-6610.02 L -5.17912,-6609.72
 L -5.68712,-6609.35 L -6.14484,-6608.92 L -6.54507,-6608.44 L -6.88153,-6607.91 L -7.14888,-6607.34 L -7.34291,-6606.74
 L -7.46057,-6606.13 L -7.5,-6605.5 L -7.5,-6330.5 L -7.46057,-6329.87 L -7.34291,-6329.26 L -7.14888,-6328.66
 L -6.88153,-6328.09 L -6.54507,-6327.56 L -6.14484,-6327.08 L -5.68712,-6326.65 L -5.17912,-6326.28 L -4.62889,-6325.98
 L -4.04507,-6325.74 L -3.4369,-6325.59 L -2.81395,-6325.51 L 2.81395,-6325.51 z
M -2.25116,-6327.01 L -2.74951,-6327.07 L -3.23605,-6327.2 L -3.70311,-6327.38 L -4.1433,-6327.62 L -4.54968,-6327.92
 L -4.91586,-6328.26 L -5.23605,-6328.65 L -5.50522,-6329.07 L -5.7191,-6329.53 L -5.87433,-6330.01 L -5.96844,-6330.5
 L -6,-6331 L -6,-6605 L -5.96844,-6605.5 L -5.87433,-6605.99 L -5.7191,-6606.47 L -5.50522,-6606.93
 L -5.23605,-6607.35 L -4.91586,-6607.74 L -4.54968,-6608.08 L -4.1433,-6608.38 L -3.70311,-6608.62 L -3.23605,-6608.8
 L -2.74951,-6608.93 L -2.25116,-6608.99 L 2.25116,-6608.99 L 2.74951,-6608.93 L 3.23605,-6608.8 L 3.70311,-6608.62
 L 4.1433,-6608.38 L 4.54968,-6608.08 L 4.91586,-6607.74 L 5.23605,-6607.35 L 5.50522,-6606.93 L 5.7191,-6606.47
 L 5.87433,-6605.99 L 5.96844,-6605.5 L 6,-6605 L 6,-6331 L 5.96844,-6330.5 L 5.87433,-6330.01
 L 5.7191,-6329.53 L 5.50522,-6329.07 L 5.23605,-6328.65 L 4.91586,-6328.26 L 4.54968,-6327.92 L 4.1433,-6327.62
 L 3.70311,-6327.38 L 3.23605,-6327.2 L 2.74951,-6327.07 L 2.25116,-6327.01 z
M 3.4369,-6031.59 L 4.04507,-6031.74 L 4.62889,-6031.98 L 5.17912,-6032.28 L 5.68712,-6032.65 L 6.14484,-6033.08
 L 6.54507,-6033.56 L 6.88153,-6034.09 L 7.14888,-6034.66 L 7.34291,-6035.26 L 7.46057,-6035.87 L 7.5,-6036.5
 L 7.5,-6311.5 L 7.46057,-6312.13 L 7.34291,-6312.74 L 7.14888,-6313.34 L 6.88153,-6313.91 L 6.54507,-6314.44
 L 6.14484,-6314.92 L 5.68712,-6315.35 L 5.17912,-6315.72 L 4.62889,-6316.02 L 4.04507,-6316.26 L 3.4369,-6316.41
 L 2.81395,-6316.49 L -2.81395,-6316.49 L -3.4369,-6316.41 L -4.04507,-6316.26 L -4.62889,-6316.02 L -5.17912,-6315.72
 L -5.68712,-6315.35 L -6.14484,-6314.92 L -6.54507,-6314.44 L -6.88153,-6313.91 L -7.14888,-6313.34 L -7.34291,-6312.74
 L -7.46057,-6312.13 L -7.5,-6311.5 L -7.5,-6036.5 L -7.46057,-6035.87 L -7.34291,-6035.26 L -7.14888,-6034.66
 L -6.88153,-6034.09 L -6.54507,-6033.56 L -6.14484,-6033.08 L -5.68712,-6032.65 L -5.17912,-6032.28 L -4.62889,-6031.98
 L -4.04507,-6031.74 L -3.4369,-6031.59 L -2.81395,-6031.51 L 2.81395,-6031.51 z
M -2.25116,-6033.01 L -2.74951,-6033.07 L -3.23605,-6033.2 L -3.70311,-6033.38 L -4.1433,-6033.62 L -4.54968,-6033.92
 L -4.91586,-6034.26 L -5.23605,-6034.65 L -5.50522,-6035.07 L -5.7191,-6035.53 L -5.87433,-6036.01 L -5.96844,-6036.5
 L -6,-6037 L -6,-6311 L -5.96844,-6311.5 L -5.87433,-6311.99 L -5.7191,-6312.47 L -5.50522,-6312.93
 L -5.23605,-6313.35 L -4.91586,-6313.74 L -4.54968,-6314.08 L -4.1433,-6314.38 L -3.70311,-6314.62 L -3.23605,-6314.8
 L -2.74951,-6314.93 L -2.25116,-6314.99 L 2.25116,-6314.99 L 2.74951,-6314.93 L 3.23605,-6314.8 L 3.70311,-6314.62
 L 4.1433,-6314.38 L 4.54968,-6314.08 L 4.91586,-6313.74 L 5.23605,-6313.35 L 5.50522,-6312.93 L 5.7191,-6312.47
 L 5.87433,-6311.99 L 5.96844,-6311.5 L 6,-6311 L 6,-6037 L 5.96844,-6036.5 L 5.87433,-6036.01
 L 5.7191,-6035.53 L 5.50522,-6035.07 L 5.23605,-6034.65 L 4.91586,-6034.26 L 4.54968,-6033.92 L 4.1433,-6033.62
 L 3.70311,-6033.38 L 3.23605,-6033.2 L 2.74951,-6033.07 L 2.25116,-6033.01 z
M 3.4369,-5737.59 L 4.04507,-5737.74 L 4.62889,-5737.98 L 5.17912,-5738.28 L 5.68712,-5738.65 L 6.14484,-5739.08
 L 6.54507,-5739.56 L 6.88153,-5740.09 L 7.14888,-5740.66 L 7.34291,-5741.26 L 7.46057,-5741.87 L 7.5,-5742.5
 L 7.5,-6017.5 L 7.46057,-6018.13 L 7.34291,-6018.74 L 7.14888,-6019.34 L 6.88153,-6019.91 L 6.54507,-6020.44
 L 6.14484,-6020.92 L 5.68712,-6021.35 L 5.17912,-6021.72 L 4.62889,-6022.02 L 4.04507,-6022.26 L 3.4369,-6022.41
 L 2.81395,-6022.49 L -2.81395,-6022.49 L -3.4369,-6022.41 L -4.04507,-6022.26 L -4.62889,-6022.02 L -5.17912,-6021.72
 L -5.68712,-6021.35 L -6.14484,-6020.92 L -6.54507,-6020.44 L -6.88153,-6019.91 L -7.14888,-6019.34 L -7.34291,-6018.74
 L -7.46057,-6018.13 L -7.5,-6017.5 L -7.5,-5742.5 L -7.46057,-5741.87 L -7.34291,-5741.26 L -7.14888,-5740.66
 L -6.88153,-5740.09 L -6.54507,-5739.56 L -6.14484,-5739.08 L -5.68712,-5738.65 L -5.17912,-5738.28 L -4.62889,-5737.98
 L -4.04507,-5737.74 L -3.4369,-5737.59 L -2.81395,-5737.51 L 2.81395,-5737.51 z
M -2.25116,-5739.01 L -2.74951,-5739.07 L -3.23605,-5739.2 L -3.70311,-5739.38 L -4.1433,-5739.62 L -4.54968,-5739.92
 L -4.91586,-5740.26 L -5.23605,-5740.65 L -5.50522,-5741.07 L -5.7191,-5741.53 L -5.87433,-5742.01 L -5.96844,-5742.5
 L -6,-5743 L -6,-6017 L -5.96844,-6017.5 L -5.87433,-6017.99 L -5.7191,-6018.47 L -5.50522,-6018.93
 L -5.23605,-6019.35 L -4.91586,-6019.74 L -4.54968,-6020.08 L -4.1433,-6020.38 L -3.70311,-6020.62 L -3.23605,-6020.8
 L -2.74951,-6020.93 L -2.25116,-6020.99 L 2.25116,-6020.99 L 2.74951,-6020.93 L 3.23605,-6020.8 L 3.70311,-6020.62
 L 4.1433,-6020.38 L 4.54968,-6020.08 L 4.91586,-6019.74 L 5.23605,-6019.35 L 5.50522,-6018.93 L 5.7191,-6018.47
 L 5.87433,-6017.99 L 5.96844,-6017.5 L 6,-6017 L 6,-5743 L 5.96844,-5742.5 L 5.87433,-5742.01
 L 5.7191,-5741.53 L 5.50522,-5741.07 L 5.23605,-5740.65 L 4.91586,-5740.26 L 4.54968,-5739.92 L 4.1433,-5739.62
 L 3.70311,-5739.38 L 3.23605,-5739.2 L 2.74951,-5739.07 L 2.25116,-5739.01 z
M 3.4369,-5443.59 L 4.04507,-5443.74 L 4.62889,-5443.98 L 5.17912,-5444.28 L 5.68712,-5444.65 L 6.14484,-5445.08
 L 6.54507,-5445.56 L 6.88153,-5446.09 L 7.14888,-5446.66 L 7.34291,-5447.26 L 7.46057,-5447.87 L 7.5,-5448.5
 L 7.5,-5723.5 L 7.46057,-5724.13 L 7.34291,-5724.74 L 7.14888,-5725.34 L 6.88153,-5725.91 L 6.54507,-5726.44
 L 6.14484,-5726.92 L 5.68712,-5727.35 L 5.17912,-5727.72 L 4.62889,-5728.02 L 4.04507,-5728.26 L 3.4369,-5728.41
 L 2.81395,-5728.49 L -2.81395,-5728.49 L -3.4369,-5728.41 L -4.04507,-5728.26 L -4.62889,-5728.02 L -5.17912,-5727.72
 L -5.68712,-5727.35 L -6.14484,-5726.92 L -6.54507,-5726.44 L -6.88153,-5725.91 L -7.14888,-5725.34 L -7.34291,-5724.74
 L -7.46057,-5724.13 L -7.5,-5723.5 L -7.5,-5448.5 L -7.46057,-5447.87 L -7.34291,-5447.26 L -7.14888,-5446.66
 L -6.88153,-5446.09 L -6.54507,-5445.56 L -6.14484,-5445.08 L -5.68712,-5444.65 L -5.17912,-5444.28 L -4.62889,-5443.98
 L -4.04507,-5443.74 L -3.4369,-5443.59 L -2.81395,-5443.51 L 2.81395,-5443.51 z
M -2.25116,-5445.01 L -2.74951,-5445.07 L -3.23605,-5445.2 L -3.70311,-5445.38 L -4.1433,-5445.62 L -4.54968,-5445.92
 L -4.91586,-5446.26 L -5.23605,-5446.65 L -5.50522,-5447.07 L -5.7191,-5447.53 L -5.87433,-5448.01 L -5.96844,-5448.5
 L -6,-5449 L -6,-5723 L -5.96844,-5723.5 L -5.87433,-5723.99 L -5.7191,-5724.47 L -5.50522,-5724.93
 L -5.23605,-5725.35 L -4.91586,-5725.74 L -4.54968,-5726.08 L -4.1433,-5726.38 L -3.70311,-5726.62 L -3.23605,-5726.8
 L -2.74951,-5726.93 L -2.25116,-5726.99 L 2.25116,-5726.99 L 2.74951,-5726.93 L 3.23605,-5726.8 L 3.70311,-5726.62
 L 4.1433,-5726.38 L 4.54968,-5726.08 L 4.91586,-5725.74 L 5.23605,-5725.35 L 5.50522,-5724.93 L 5.7191,-5724.47
 L 5.87433,-5723.99 L 5.96844,-5723.5 L 6,-5723 L 6,-5449 L 5.96844,-5448.5 L 5.87433,-5448.01
 L 5.7191,-5447.53 L 5.50522,-5447.07 L 5.23605,-5446.65 L 4.91586,-5446.26 L 4.54968,-5445.92 L 4.1433,-5445.62
 L 3.70311,-5445.38 L 3.23605,-5445.2 L 2.74951,-5445.07 L 2.25116,-5445.01 z
M 3.4369,-5149.59 L 4.04507,-5149.74 L 4.62889,-5149.98 L 5.17912,-5150.28 L 5.68712,-5150.65 L 6.14484,-5151.08
 L 6.54507,-5151.56 L 6.88153,-5152.09 L 7.14888,-5152.66 L 7.34291,-5153.26 L 7.46057,-5153.87 L 7.5,-5154.5
 L 7.5,-5429.5 L 7.46057,-5430.13 L 7.34291,-5430.74 L 7.14888,-5431.34 L 6.88153,-5431.91 L 6.54507,-5432.44
 L 6.14484,-5432.92 L 5.68712,-5433.35 L 5.17912,-5433.72 L 4.62889,-5434.02 L 4.04507,-5434.26 L 3.4369,-5434.41
 L 2.81395,-5434.49 L -2.81395,-5434.49 L -3.4369,-5434.41 L -4.04507,-5434.26 L -4.62889,-5434.02 L -5.17912,-5433.72
 L -5.68712,-5433.35 L -6.14484,-5432.92 L -6.54507,-5432.44 L -6.88153,-5431.91 L -7.14888,-5431.34 L -7.34291,-5430.74
 L -7.46057,-5430.13 L -7.5,-5429.5 L -7.5,-5154.5 L -7.46057,-5153.87 L -7.34291,-5153.26 L -7.14888,-5152.66
 L -6.88153,-5152.09 L -6.54507,-5151.56 L -6.14484,-5151.08 L -5.68712,-5150.65 L -5.17912,-5150.28 L -4.62889,-5149.98
 L -4.04507,-5149.74 L -3.4369,-5149.59 L -2.81395,-5149.51 L 2.81395,-5149.51 z
M -2.25116,-5151.01 L -2.74951,-5151.07 L -3.23605,-5151.2 L -3.70311,-5151.38 L -4.1433,-5151.62 L -4.54968,-5151.92
 L -4.91586,-5152.26 L -5.23605,-5152.65 L -5.50522,-5153.07 L -5.7191,-5153.53 L -5.87433,-5154.01 L -5.96844,-5154.5
 L -6,-5155 L -6,-5429 L -5.96844,-5429.5 L -5.87433,-5429.99 L -5.7191,-5430.47 L -5.50522,-5430.93
 L -5.23605,-5431.35 L -4.91586,-5431.74 L -4.54968,-5432.08 L -4.1433,-5432.38 L -3.70311,-5432.62 L -3.23605,-5432.8
 L -2.74951,-5432.93 L -2.25116,-5432.99 L 2.25116,-5432.99 L 2.74951,-5432.93 L 3.23605,-5432.8 L 3.70311,-5432.62
 L 4.1433,-5432.38 L 4.54968,-5432.08 L 4.91586,-5431.74 L 5.23605,-5431.35 L 5.50522,-5430.93 L 5.7191,-5430.47
 L 5.87433,-5429.99 L 5.96844,-5429.5 L 6,-5429 L 6,-5155 L 5.96844,-5154.5 L 5.87433,-5154.01
 L 5.7191,-5153.53 L 5.50522,-5153.07 L 5.23605,-5152.65 L 4.91586,-5152.26 L 4.54968,-5151.92 L 4.1433,-5151.62
 L 3.70311,-5151.38 L 3.23605,-5151.2 L 2.74951,-5151.07 L 2.25116,-5151.01 z
M 3.4369,-4855.59 L 4.04507,-4855.74 L 4.62889,-4855.98 L 5.17912,-4856.28 L 5.68712,-4856.65 L 6.14484,-4857.08
 L 6.54507,-4857.56 L 6.88153,-4858.09 L 7.14888,-4858.66 L 7.34291,-4859.26 L 7.46057,-4859.87 L 7.5,-4860.5
 L 7.5,-5135.5 L 7.46057,-5136.13 L 7.34291,-5136.74 L 7.14888,-5137.34 L 6.88153,-5137.91 L 6.54507,-5138.44
 L 6.14484,-5138.92 L 5.68712,-5139.35 L 5.17912,-5139.72 L 4.62889,-5140.02 L 4.04507,-5140.26 L 3.4369,-5140.41
 L 2.81395,-5140.49 L -2.81395,-5140.49 L -3.4369,-5140.41 L -4.04507,-5140.26 L -4.62889,-5140.02 L -5.17912,-5139.72
 L -5.68712,-5139.35 L -6.14484,-5138.92 L -6.54507,-5138.44 L -6.88153,-5137.91 L -7.14888,-5137.34 L -7.34291,-5136.74
 L -7.46057,-5136.13 L -7.5,-5135.5 L -7.5,-4860.5 L -7.46057,-4859.87 L -7.34291,-4859.26 L -7.14888,-4858.66
 L -6.88153,-4858.09 L -6.54507,-4857.56 L -6.14484,-4857.08 L -5.68712,-4856.65 L -5.17912,-4856.28 L -4.62889,-4855.98
 L -4.04507,-4855.74 L -3.4369,-4855.59 L -2.81395,-4855.51 L 2.81395,-4855.51 z
M -2.25116,-4857.01 L -2.74951,-4857.07 L -3.23605,-4857.2 L -3.70311,-4857.38 L -4.1433,-4857.62 L -4.54968,-4857.92
 L -4.91586,-4858.26 L -5.23605,-4858.65 L -5.50522,-4859.07 L -5.7191,-4859.53 L -5.87433,-4860.01 L -5.96844,-4860.5
 L -6,-4861 L -6,-5135 L -5.96844,-5135.5 L -5.87433,-5135.99 L -5.7191,-5136.47 L -5.50522,-5136.93
 L -5.23605,-5137.35 L -4.91586,-5137.74 L -4.54968,-5138.08 L -4.1433,-5138.38 L -3.70311,-5138.62 L -3.23605,-5138.8
 L -2.74951,-5138.93 L -2.25116,-5138.99 L 2.25116,-5138.99 L 2.74951,-5138.93 L 3.23605,-5138.8 L 3.70311,-5138.62
 L 4.1433,-5138.38 L 4.54968,-5138.08 L 4.91586,-5137.74 L 5.23605,-5137.35 L 5.50522,-5136.93 L 5.7191,-5136.47
 L 5.87433,-5135.99 L 5.96844,-5135.5 L 6,-5135 L 6,-4861 L 5.96844,-4860.5 L 5.87433,-4860.01
 L 5.7191,-4859.53 L 5.50522,-4859.07 L 5.23605,-4858.65 L 4.91586,-4858.26 L 4.54968,-4857.92 L 4.1433,-4857.62
 L 3.70311,-4857.38 L 3.23605,-4857.2 L 2.74951,-4857.07 L 2.25116,-4857.01 z
M 3.4369,-4561.59 L 4.04507,-4561.74 L 4.62889,-4561.98 L 5.17912,-4562.28 L 5.68712,-4562.65 L 6.14484,-4563.08
 L 6.54507,-4563.56 L 6.88153,-4564.09 L 7.14888,-4564.66 L 7.34291,-4565.26 L 7.46057,-4565.87 L 7.5,-4566.5
 L 7.5,-4841.5 L 7.46057,-4842.13 L 7.34291,-4842.74 L 7.14888,-4843.34 L 6.88153,-4843.91 L 6.54507,-4844.44
 L 6.14484,-4844.92 L 5.68712,-4845.35 L 5.17912,-4845.72 L 4.62889,-4846.02 L 4.04507,-4846.26 L 3.4369,-4846.41
 L 2.81395,-4846.49 L -2.81395,-4846.49 L -3.4369,-4846.41 L -4.04507,-4846.26 L -4.62889,-4846.02 L -5.17912,-4845.72
 L -5.68712,-4845.35 L -6.14484,-4844.92 L -6.54507,-4844.44 L -6.88153,-4843.91 L -7.14888,-4843.34 L -7.34291,-4842.74
 L -7.46057,-4842.13 L -7.5,-4841.5 L -7.5,-4566.5 L -7.46057,-4565.87 L -7.34291,-4565.26 L -7.14888,-4564.66
 L -6.88153,-4564.09 L -6.54507,-4563.56 L -6.14484,-4563.08 L -5.68712,-4562.65 L -5.17912,-4562.28 L -4.62889,-4561.98
 L -4.04507,-4561.74 L -3.4369,-4561.59 L -2.81395,-4561.51 L 2.81395,-4561.51 z
M -2.19545,-4563.89 L -2.5833,-4563.94 L -2.96194,-4564.04 L -3.32541,-4564.18 L -3.66798,-4564.37 L -3.98424,-4564.6
 L -4.26921,-4564.87 L -4.5184,-4565.17 L -4.72786,-4565.5 L -4.89432,-4565.85 L -5.01512,-4566.23 L -5.08836,-4566.61
 L -5.11292,-4567 L -5.11292,-4841 L -5.08836,-4841.39 L -5.01512,-4841.77 L -4.89432,-4842.15 L -4.72786,-4842.5
 L -4.5184,-4842.83 L -4.26921,-4843.13 L -3.98424,-4843.4 L -3.66798,-4843.63 L -3.32541,-4843.82 L -2.96194,-4843.96
 L -2.5833,-4844.06 L -2.19545,-4844.11 L 2.19545,-4844.11 L 2.5833,-4844.06 L 2.96194,-4843.96 L 3.32541,-4843.82
 L 3.66798,-4843.63 L 3.98424,-4843.4 L 4.26921,-4843.13 L 4.5184,-4842.83 L 4.72786,-4842.5 L 4.89432,-4842.15
 L 5.01512,-4841.77 L 5.08836,-4841.39 L 5.11292,-4841 L 5.11292,-4567 L 5.08836,-4566.61 L 5.01512,-4566.23
 L 4.89432,-4565.85 L 4.72786,-4565.5 L 4.5184,-4565.17 L 4.26921,-4564.87 L 3.98424,-4564.6 L 3.66798,-4564.37
 L 3.32541,-4564.18 L 2.96194,-4564.04 L 2.5833,-4563.94 L 2.19545,-4563.89 z
M 3.4369,-4267.59 L 4.04507,-4267.74 L 4.62889,-4267.98 L 5.17912,-4268.28 L 5.68712,-4268.65 L 6.14484,-4269.08
 L 6.54507,-4269.56 L 6.88153,-4270.09 L 7.14888,-4270.66 L 7.34291,-4271.26 L 7.46057,-4271.87 L 7.5,-4272.5
 L 7.5,-4547.5 L 7.46057,-4548.13 L 7.34291,-4548.74 L 7.14888,-4549.34 L 6.88153,-4549.91 L 6.54507,-4550.44
 L 6.14484,-4550.92 L 5.68712,-4551.35 L 5.17912,-4551.72 L 4.62889,-4552.02 L 4.04507,-4552.26 L 3.4369,-4552.41
 L 2.81395,-4552.49 L -2.81395,-4552.49 L -3.4369,-4552.41 L -4.04507,-4552.26 L -4.62889,-4552.02 L -5.17912,-4551.72
 L -5.68712,-4551.35 L -6.14484,-4550.92 L -6.54507,-4550.44 L -6.88153,-4549.91 L -7.14888,-4549.34 L -7.34291,-4548.74
 L -7.46057,-4548.13 L -7.5,-4547.5 L -7.5,-4272.5 L -7.46057,-4271.87 L -7.34291,-4271.26 L -7.14888,-4270.66
 L -6.88153,-4270.09 L -6.54507,-4269.56 L -6.14484,-4269.08 L -5.68712,-4268.65 L -5.17912,-4268.28 L -4.62889,-4267.98
 L -4.04507,-4267.74 L -3.4369,-4267.59 L -2.81395,-4267.51 L 2.81395,-4267.51 z
M -0.134064,-4542.87 L -0.400101,-4542.9 L -0.659836,-4542.97 L -0.909149,-4543.07 L -1.14413,-4543.2 L -1.36108,-4543.35
 L -1.55655,-4543.54 L -1.72748,-4543.74 L -1.87117,-4543.97 L -1.98534,-4544.21 L -2.06821,-4544.47 L -2.11845,-4544.73
 L -2.13528,-4545 L -2.11845,-4545.27 L -2.06821,-4545.53 L -1.98534,-4545.79 L -1.87117,-4546.03 L -1.72748,-4546.26
 L -1.55655,-4546.46 L -1.36108,-4546.65 L -1.14413,-4546.8 L -0.909149,-4546.93 L -0.659836,-4547.03 L -0.400101,-4547.1
 L -0.134064,-4547.13 L 0.134064,-4547.13 L 0.400101,-4547.1 L 0.659836,-4547.03 L 0.909149,-4546.93 L 1.14413,-4546.8
 L 1.36108,-4546.65 L 1.55655,-4546.46 L 1.72748,-4546.26 L 1.87117,-4546.03 L 1.98534,-4545.79 L 2.06821,-4545.53
 L 2.11845,-4545.27 L 2.13528,-4545 L 2.11845,-4544.73 L 2.06821,-4544.47 L 1.98534,-4544.21 L 1.87117,-4543.97
 L 1.72748,-4543.74 L 1.55655,-4543.54 L 1.36108,-4543.35 L 1.14413,-4543.2 L 0.909149,-4543.07 L 0.659836,-4542.97
 L 0.400101,-4542.9 L 0.134064,-4542.87 z
M -0.134064,-4272.87 L -0.400101,-4272.9 L -0.659836,-4272.97 L -0.909149,-4273.07 L -1.14413,-4273.2 L -1.36108,-4273.35
 L -1.55655,-4273.54 L -1.72748,-4273.74 L -1.87117,-4273.97 L -1.98534,-4274.21 L -2.06821,-4274.47 L -2.11845,-4274.73
 L -2.13528,-4275 L -2.11845,-4275.27 L -2.06821,-4275.53 L -1.98534,-4275.79 L -1.87117,-4276.03 L -1.72748,-4276.26
 L -1.55655,-4276.46 L -1.36108,-4276.65 L -1.14413,-4276.8 L -0.909149,-4276.93 L -0.659836,-4277.03 L -0.400101,-4277.1
 L -0.134064,-4277.13 L 0.134064,-4277.13 L 0.400101,-4277.1 L 0.659836,-4277.03 L 0.909149,-4276.93 L 1.14413,-4276.8
 L 1.36108,-4276.65 L 1.55655,-4276.46 L 1.72748,-4276.26 L 1.87117,-4276.03 L 1.98534,-4275.79 L 2.06821,-4275.53
 L 2.11845,-4275.27 L 2.13528,-4275 L 2.11845,-4274.73 L 2.06821,-4274.47 L 1.98534,-4274.21 L 1.87117,-4273.97
 L 1.72748,-4273.74 L 1.55655,-4273.54 L 1.36108,-4273.35 L 1.14413,-4273.2 L 0.909149,-4273.07 L 0.659836,-4272.97
 L 0.400101,-4272.9 L 0.134064,-4272.87 z
" stroke="black" fill="lightgray" stroke-width="0.5"/>
</svg>
