<?xml version="1.0" standalone="no"?>
<!DOCTYPE svg PUBLIC "-//W3C//DTD SVG 1.1//EN" "http://www.w3.org/Graphics/SVG/1.1/DTD/svg11.dtd">
<svg width="134mm" height="295mm" viewBox="-67 -355 134 295" xmlns="http://www.w3.org/2000/svg" version="1.1">
<title>OpenSCAD Model</title>
<path d="
M 62.9369,-221.089 L 63.5451,-221.245 L 64.1289,-221.476 L 64.6791,-221.778 L 65.1871,-222.147 L 65.6448,-222.577
 L 66.0451,-223.061 L 66.3815,-223.591 L 66.6489,-224.159 L 66.8429,-224.757 L 66.9606,-225.373 L 67,-226
 L 67,-350 L 19.561,-350 L 19.561,-349.998 L 18.7482,-349.998 L 18.6236,-349.982 L 18.502,-349.951
 L 18.3852,-349.905 L 18.2752,-349.844 L 18.1736,-349.771 L 18.082,-349.685 L 18.002,-349.588 L 17.9347,-349.482
 L 17.8812,-349.368 L 17.8424,-349.249 L 17.8189,-349.125 L 17.811,-349 L 17.8189,-348.875 L 17.8424,-348.751
 L 17.8812,-348.632 L 17.9347,-348.518 L 18.002,-348.412 L 18.082,-348.315 L 18.1736,-348.229 L 18.2752,-348.156
 L 18.3852,-348.095 L 18.502,-348.049 L 18.6236,-348.018 L 18.7482,-348.002 L 21.9634,-348.002 L 27.2499,-345.909
 L 34.2929,-342.037 L 40.7951,-337.313 L 46.654,-331.811 L 51.7771,-325.618 L 56.0836,-318.832 L 59.5057,-311.56
 L 61.9893,-303.916 L 63.4953,-296.021 L 64,-288 L 63.4953,-279.979 L 61.9893,-272.084 L 59.5057,-264.44
 L 56.0836,-257.168 L 51.7771,-250.382 L 46.654,-244.189 L 40.7951,-238.687 L 34.2929,-233.963 L 27.2499,-230.091
 L 19.7771,-227.132 L 11.9924,-225.134 L 4.01859,-224.126 L -4.01859,-224.126 L -11.9924,-225.134 L -19.7771,-227.132
 L -27.2499,-230.091 L -34.2929,-233.963 L -40.7951,-238.687 L -46.654,-244.189 L -51.7771,-250.382 L -56.0836,-257.168
 L -59.5057,-264.44 L -61.9893,-272.084 L -63.4953,-279.979 L -64,-288 L -63.4953,-296.021 L -61.9893,-303.916
 L -59.5057,-311.56 L -56.0836,-318.832 L -51.7771,-325.618 L -46.654,-331.811 L -40.7951,-337.313 L -34.2929,-342.037
 L -27.2499,-345.909 L -19.7771,-348.868 L -11.9924,-350.866 L -4.01859,-351.874 L 0,-351.874 L 0,-352
 L 47,-352 L 44.0099,-354.99 L -34.5,-354.99 L -34.5,-354 L -66.5,-354 L -66.5,-355
 L -67,-355 L -67,-226 L -66.9606,-225.373 L -66.8429,-224.757 L -66.6489,-224.159 L -66.3815,-223.591
 L -66.0451,-223.061 L -65.6448,-222.577 L -65.1871,-222.147 L -64.6791,-221.778 L -64.1289,-221.476 L -63.5451,-221.245
 L -62.9369,-221.089 L -62.3139,-221.01 L 62.3139,-221.01 z
M 59.8116,-225.006 L 59.4379,-225.053 L 59.0729,-225.147 L 58.7227,-225.286 L 58.3925,-225.467 L 58.0877,-225.688
 L 57.8131,-225.946 L 57.5729,-226.237 L 57.3711,-226.555 L 57.2107,-226.896 L 57.0942,-227.254 L 57.0237,-227.624
 L 57,-228 L 57.0237,-228.376 L 57.0942,-228.746 L 57.2107,-229.104 L 57.3711,-229.445 L 57.5729,-229.763
 L 57.8131,-230.054 L 58.0877,-230.312 L 58.3925,-230.533 L 58.7227,-230.714 L 59.0729,-230.853 L 59.4379,-230.947
 L 59.8116,-230.994 L 60.1884,-230.994 L 60.5621,-230.947 L 60.927,-230.853 L 61.2773,-230.714 L 61.6075,-230.533
 L 61.9123,-230.312 L 62.1869,-230.054 L 62.427,-229.763 L 62.6289,-229.445 L 62.7893,-229.104 L 62.9057,-228.746
 L 62.9763,-228.376 L 63,-228 L 62.9763,-227.624 L 62.9057,-227.254 L 62.7893,-226.896 L 62.6289,-226.555
 L 62.427,-226.237 L 62.1869,-225.946 L 61.9123,-225.688 L 61.6075,-225.467 L 61.2773,-225.286 L 60.927,-225.147
 L 60.5621,-225.053 L 60.1884,-225.006 z
M 57,-354.99 L 46.1312,-354.99 L 49.1213,-352 L 57,-352 z
M 23.9984,-204.018 L 24.12,-204.049 L 24.2368,-204.095 L 24.3468,-204.156 L 24.4484,-204.229 L 24.54,-204.315
 L 24.62,-204.412 L 24.6873,-204.518 L 24.7408,-204.632 L 24.7796,-204.751 L 24.8031,-204.875 L 24.811,-205
 L 24.8031,-205.125 L 24.7796,-205.249 L 24.7408,-205.368 L 24.6873,-205.482 L 24.62,-205.588 L 24.54,-205.685
 L 24.4484,-205.771 L 24.3468,-205.844 L 24.2368,-205.905 L 24.12,-205.951 L 23.9984,-205.982 L 23.8738,-205.998
 L 18.7482,-205.998 L 18.6236,-205.982 L 18.502,-205.951 L 18.3852,-205.905 L 18.2752,-205.844 L 18.1736,-205.771
 L 18.082,-205.685 L 18.002,-205.588 L 17.9347,-205.482 L 17.8812,-205.368 L 17.8424,-205.249 L 17.8189,-205.125
 L 17.811,-205 L 17.8189,-204.875 L 17.8424,-204.751 L 17.8812,-204.632 L 17.9347,-204.518 L 18.002,-204.412
 L 18.082,-204.315 L 18.1736,-204.229 L 18.2752,-204.156 L 18.3852,-204.095 L 18.502,-204.049 L 18.6236,-204.018
 L 18.7482,-204.002 L 23.8738,-204.002 z
M 23.9984,-60.0177 L 24.12,-60.0489 L 24.2368,-60.0952 L 24.3468,-60.1557 L 24.4484,-60.2295 L 24.54,-60.3154
 L 24.62,-60.4122 L 24.6873,-60.5182 L 24.7408,-60.6319 L 24.7796,-60.7513 L 24.8031,-60.8747 L 24.811,-61
 L 24.8031,-61.1253 L 24.7796,-61.2487 L 24.7408,-61.3681 L 24.6873,-61.4818 L 24.62,-61.5878 L 24.54,-61.6845
 L 24.4484,-61.7705 L 24.3468,-61.8443 L 24.2368,-61.9048 L 24.12,-61.951 L 23.9984,-61.9823 L 23.8738,-61.998
 L 18.7482,-61.998 L 18.6236,-61.9823 L 18.502,-61.951 L 18.3852,-61.9048 L 18.2752,-61.8443 L 18.1736,-61.7705
 L 18.082,-61.6845 L 18.002,-61.5878 L 17.9347,-61.4818 L 17.8812,-61.3681 L 17.8424,-61.2487 L 17.8189,-61.1253
 L 17.811,-61 L 17.8189,-60.8747 L 17.8424,-60.7513 L 17.8812,-60.6319 L 17.9347,-60.5182 L 18.002,-60.4122
 L 18.082,-60.3154 L 18.1736,-60.2295 L 18.2752,-60.1557 L 18.3852,-60.0952 L 18.502,-60.0489 L 18.6236,-60.0177
 L 18.7482,-60.002 L 23.8738,-60.002 z
" stroke="black" fill="lightgray" stroke-width="0.5"/>
</svg>
