  0
SECTION
  2
BLOCKS
  0
ENDSEC
  0
SECTION
  2
ENTITIES
  0
LINE
  8
0
 10
63.4369
 20
1330.59
 11
64.0451
 21
1330.74
  0
LINE
  8
0
 10
64.0451
 20
1330.74
 11
64.6289
 21
1330.98
  0
LINE
  8
0
 10
64.6289
 20
1330.98
 11
65.1791
 21
1331.28
  0
LINE
  8
0
 10
65.1791
 20
1331.28
 11
65.6871
 21
1331.65
  0
LINE
  8
0
 10
65.6871
 20
1331.65
 11
66.1448
 21
1332.08
  0
LINE
  8
0
 10
66.1448
 20
1332.08
 11
66.5451
 21
1332.56
  0
LINE
  8
0
 10
66.5451
 20
1332.56
 11
66.8815
 21
1333.09
  0
LINE
  8
0
 10
66.8815
 20
1333.09
 11
67.1489
 21
1333.66
  0
LINE
  8
0
 10
67.1489
 20
1333.66
 11
67.3429
 21
1334.26
  0
LINE
  8
0
 10
67.3429
 20
1334.26
 11
67.4606
 21
1334.87
  0
LINE
  8
0
 10
67.4606
 20
1334.87
 11
67.5
 21
1335.5
  0
LINE
  8
0
 10
67.5
 20
1335.5
 11
67.5
 21
1520.5
  0
LINE
  8
0
 10
67.5
 20
1520.5
 11
67.4606
 21
1521.13
  0
LINE
  8
0
 10
67.4606
 20
1521.13
 11
67.3429
 21
1521.74
  0
LINE
  8
0
 10
67.3429
 20
1521.74
 11
67.1489
 21
1522.34
  0
LINE
  8
0
 10
67.1489
 20
1522.34
 11
66.8815
 21
1522.91
  0
LINE
  8
0
 10
66.8815
 20
1522.91
 11
66.5451
 21
1523.44
  0
LINE
  8
0
 10
66.5451
 20
1523.44
 11
66.1448
 21
1523.92
  0
LINE
  8
0
 10
66.1448
 20
1523.92
 11
65.6871
 21
1524.35
  0
LINE
  8
0
 10
65.6871
 20
1524.35
 11
65.1791
 21
1524.72
  0
LINE
  8
0
 10
65.1791
 20
1524.72
 11
64.6289
 21
1525.02
  0
LINE
  8
0
 10
64.6289
 20
1525.02
 11
64.0451
 21
1525.26
  0
LINE
  8
0
 10
64.0451
 20
1525.26
 11
63.4369
 21
1525.41
  0
LINE
  8
0
 10
63.4369
 20
1525.41
 11
62.8139
 21
1525.49
  0
LINE
  8
0
 10
62.8139
 20
1525.49
 11
-62.8139
 21
1525.49
  0
LINE
  8
0
 10
-62.8139
 20
1525.49
 11
-63.4369
 21
1525.41
  0
LINE
  8
0
 10
-63.4369
 20
1525.41
 11
-64.0451
 21
1525.26
  0
LINE
  8
0
 10
-64.0451
 20
1525.26
 11
-64.6289
 21
1525.02
  0
LINE
  8
0
 10
-64.6289
 20
1525.02
 11
-65.1791
 21
1524.72
  0
LINE
  8
0
 10
-65.1791
 20
1524.72
 11
-65.6871
 21
1524.35
  0
LINE
  8
0
 10
-65.6871
 20
1524.35
 11
-66.1448
 21
1523.92
  0
LINE
  8
0
 10
-66.1448
 20
1523.92
 11
-66.5451
 21
1523.44
  0
LINE
  8
0
 10
-66.5451
 20
1523.44
 11
-66.8815
 21
1522.91
  0
LINE
  8
0
 10
-66.8815
 20
1522.91
 11
-67.1489
 21
1522.34
  0
LINE
  8
0
 10
-67.1489
 20
1522.34
 11
-67.3429
 21
1521.74
  0
LINE
  8
0
 10
-67.3429
 20
1521.74
 11
-67.4606
 21
1521.13
  0
LINE
  8
0
 10
-67.4606
 20
1521.13
 11
-67.5
 21
1520.5
  0
LINE
  8
0
 10
-67.5
 20
1520.5
 11
-67.5
 21
1335.5
  0
LINE
  8
0
 10
-67.5
 20
1335.5
 11
-67.4606
 21
1334.87
  0
LINE
  8
0
 10
-67.4606
 20
1334.87
 11
-67.3429
 21
1334.26
  0
LINE
  8
0
 10
-67.3429
 20
1334.26
 11
-67.1489
 21
1333.66
  0
LINE
  8
0
 10
-67.1489
 20
1333.66
 11
-66.8815
 21
1333.09
  0
LINE
  8
0
 10
-66.8815
 20
1333.09
 11
-66.5451
 21
1332.56
  0
LINE
  8
0
 10
-66.5451
 20
1332.56
 11
-66.1448
 21
1332.08
  0
LINE
  8
0
 10
-66.1448
 20
1332.08
 11
-65.6871
 21
1331.65
  0
LINE
  8
0
 10
-65.6871
 20
1331.65
 11
-65.1791
 21
1331.28
  0
LINE
  8
0
 10
-65.1791
 20
1331.28
 11
-64.6289
 21
1330.98
  0
LINE
  8
0
 10
-64.6289
 20
1330.98
 11
-64.0451
 21
1330.74
  0
LINE
  8
0
 10
-64.0451
 20
1330.74
 11
-63.4369
 21
1330.59
  0
LINE
  8
0
 10
-63.4369
 20
1330.59
 11
-62.8139
 21
1330.51
  0
LINE
  8
0
 10
-62.8139
 20
1330.51
 11
62.8139
 21
1330.51
  0
LINE
  8
0
 10
62.8139
 20
1330.51
 11
63.4369
 21
1330.59
  0
LINE
  8
0
 10
-62.2512
 20
1332.01
 11
-62.7495
 21
1332.07
  0
LINE
  8
0
 10
-62.7495
 20
1332.07
 11
-63.2361
 21
1332.2
  0
LINE
  8
0
 10
-63.2361
 20
1332.2
 11
-63.7031
 21
1332.38
  0
LINE
  8
0
 10
-63.7031
 20
1332.38
 11
-64.1433
 21
1332.62
  0
LINE
  8
0
 10
-64.1433
 20
1332.62
 11
-64.5497
 21
1332.92
  0
LINE
  8
0
 10
-64.5497
 20
1332.92
 11
-64.9159
 21
1333.26
  0
LINE
  8
0
 10
-64.9159
 20
1333.26
 11
-65.2361
 21
1333.65
  0
LINE
  8
0
 10
-65.2361
 20
1333.65
 11
-65.5052
 21
1334.07
  0
LINE
  8
0
 10
-65.5052
 20
1334.07
 11
-65.7191
 21
1334.53
  0
LINE
  8
0
 10
-65.7191
 20
1334.53
 11
-65.8743
 21
1335.01
  0
LINE
  8
0
 10
-65.8743
 20
1335.01
 11
-65.9685
 21
1335.5
  0
LINE
  8
0
 10
-65.9685
 20
1335.5
 11
-66
 21
1336
  0
LINE
  8
0
 10
-66
 20
1336
 11
-66
 21
1520
  0
LINE
  8
0
 10
-66
 20
1520
 11
-65.9685
 21
1520.5
  0
LINE
  8
0
 10
-65.9685
 20
1520.5
 11
-65.8743
 21
1520.99
  0
LINE
  8
0
 10
-65.8743
 20
1520.99
 11
-65.7191
 21
1521.47
  0
LINE
  8
0
 10
-65.7191
 20
1521.47
 11
-65.5052
 21
1521.93
  0
LINE
  8
0
 10
-65.5052
 20
1521.93
 11
-65.2361
 21
1522.35
  0
LINE
  8
0
 10
-65.2361
 20
1522.35
 11
-64.9159
 21
1522.74
  0
LINE
  8
0
 10
-64.9159
 20
1522.74
 11
-64.5497
 21
1523.08
  0
LINE
  8
0
 10
-64.5497
 20
1523.08
 11
-64.1433
 21
1523.38
  0
LINE
  8
0
 10
-64.1433
 20
1523.38
 11
-63.7031
 21
1523.62
  0
LINE
  8
0
 10
-63.7031
 20
1523.62
 11
-63.2361
 21
1523.8
  0
LINE
  8
0
 10
-63.2361
 20
1523.8
 11
-62.7495
 21
1523.93
  0
LINE
  8
0
 10
-62.7495
 20
1523.93
 11
-62.2512
 21
1523.99
  0
LINE
  8
0
 10
-62.2512
 20
1523.99
 11
62.2512
 21
1523.99
  0
LINE
  8
0
 10
62.2512
 20
1523.99
 11
62.7495
 21
1523.93
  0
LINE
  8
0
 10
62.7495
 20
1523.93
 11
63.2361
 21
1523.8
  0
LINE
  8
0
 10
63.2361
 20
1523.8
 11
63.7031
 21
1523.62
  0
LINE
  8
0
 10
63.7031
 20
1523.62
 11
64.1433
 21
1523.38
  0
LINE
  8
0
 10
64.1433
 20
1523.38
 11
64.5497
 21
1523.08
  0
LINE
  8
0
 10
64.5497
 20
1523.08
 11
64.9159
 21
1522.74
  0
LINE
  8
0
 10
64.9159
 20
1522.74
 11
65.2361
 21
1522.35
  0
LINE
  8
0
 10
65.2361
 20
1522.35
 11
65.5052
 21
1521.93
  0
LINE
  8
0
 10
65.5052
 20
1521.93
 11
65.7191
 21
1521.47
  0
LINE
  8
0
 10
65.7191
 20
1521.47
 11
65.8743
 21
1520.99
  0
LINE
  8
0
 10
65.8743
 20
1520.99
 11
65.9685
 21
1520.5
  0
LINE
  8
0
 10
65.9685
 20
1520.5
 11
66
 21
1520
  0
LINE
  8
0
 10
66
 20
1520
 11
66
 21
1336
  0
LINE
  8
0
 10
66
 20
1336
 11
65.9685
 21
1335.5
  0
LINE
  8
0
 10
65.9685
 20
1335.5
 11
65.8743
 21
1335.01
  0
LINE
  8
0
 10
65.8743
 20
1335.01
 11
65.7191
 21
1334.53
  0
LINE
  8
0
 10
65.7191
 20
1334.53
 11
65.5052
 21
1334.07
  0
LINE
  8
0
 10
65.5052
 20
1334.07
 11
65.2361
 21
1333.65
  0
LINE
  8
0
 10
65.2361
 20
1333.65
 11
64.9159
 21
1333.26
  0
LINE
  8
0
 10
64.9159
 20
1333.26
 11
64.5497
 21
1332.92
  0
LINE
  8
0
 10
64.5497
 20
1332.92
 11
64.1433
 21
1332.62
  0
LINE
  8
0
 10
64.1433
 20
1332.62
 11
63.7031
 21
1332.38
  0
LINE
  8
0
 10
63.7031
 20
1332.38
 11
63.2361
 21
1332.2
  0
LINE
  8
0
 10
63.2361
 20
1332.2
 11
62.7495
 21
1332.07
  0
LINE
  8
0
 10
62.7495
 20
1332.07
 11
62.2512
 21
1332.01
  0
LINE
  8
0
 10
62.2512
 20
1332.01
 11
-62.2512
 21
1332.01
  0
LINE
  8
0
 10
63.4369
 20
1126.59
 11
64.0451
 21
1126.74
  0
LINE
  8
0
 10
64.0451
 20
1126.74
 11
64.6289
 21
1126.98
  0
LINE
  8
0
 10
64.6289
 20
1126.98
 11
65.1791
 21
1127.28
  0
LINE
  8
0
 10
65.1791
 20
1127.28
 11
65.6871
 21
1127.65
  0
LINE
  8
0
 10
65.6871
 20
1127.65
 11
66.1448
 21
1128.08
  0
LINE
  8
0
 10
66.1448
 20
1128.08
 11
66.5451
 21
1128.56
  0
LINE
  8
0
 10
66.5451
 20
1128.56
 11
66.8815
 21
1129.09
  0
LINE
  8
0
 10
66.8815
 20
1129.09
 11
67.1489
 21
1129.66
  0
LINE
  8
0
 10
67.1489
 20
1129.66
 11
67.3429
 21
1130.26
  0
LINE
  8
0
 10
67.3429
 20
1130.26
 11
67.4606
 21
1130.87
  0
LINE
  8
0
 10
67.4606
 20
1130.87
 11
67.5
 21
1131.5
  0
LINE
  8
0
 10
67.5
 20
1131.5
 11
67.5
 21
1316.5
  0
LINE
  8
0
 10
67.5
 20
1316.5
 11
67.4606
 21
1317.13
  0
LINE
  8
0
 10
67.4606
 20
1317.13
 11
67.3429
 21
1317.74
  0
LINE
  8
0
 10
67.3429
 20
1317.74
 11
67.1489
 21
1318.34
  0
LINE
  8
0
 10
67.1489
 20
1318.34
 11
66.8815
 21
1318.91
  0
LINE
  8
0
 10
66.8815
 20
1318.91
 11
66.5451
 21
1319.44
  0
LINE
  8
0
 10
66.5451
 20
1319.44
 11
66.1448
 21
1319.92
  0
LINE
  8
0
 10
66.1448
 20
1319.92
 11
65.6871
 21
1320.35
  0
LINE
  8
0
 10
65.6871
 20
1320.35
 11
65.1791
 21
1320.72
  0
LINE
  8
0
 10
65.1791
 20
1320.72
 11
64.6289
 21
1321.02
  0
LINE
  8
0
 10
64.6289
 20
1321.02
 11
64.0451
 21
1321.26
  0
LINE
  8
0
 10
64.0451
 20
1321.26
 11
63.4369
 21
1321.41
  0
LINE
  8
0
 10
63.4369
 20
1321.41
 11
62.8139
 21
1321.49
  0
LINE
  8
0
 10
62.8139
 20
1321.49
 11
-62.8139
 21
1321.49
  0
LINE
  8
0
 10
-62.8139
 20
1321.49
 11
-63.4369
 21
1321.41
  0
LINE
  8
0
 10
-63.4369
 20
1321.41
 11
-64.0451
 21
1321.26
  0
LINE
  8
0
 10
-64.0451
 20
1321.26
 11
-64.6289
 21
1321.02
  0
LINE
  8
0
 10
-64.6289
 20
1321.02
 11
-65.1791
 21
1320.72
  0
LINE
  8
0
 10
-65.1791
 20
1320.72
 11
-65.6871
 21
1320.35
  0
LINE
  8
0
 10
-65.6871
 20
1320.35
 11
-66.1448
 21
1319.92
  0
LINE
  8
0
 10
-66.1448
 20
1319.92
 11
-66.5451
 21
1319.44
  0
LINE
  8
0
 10
-66.5451
 20
1319.44
 11
-66.8815
 21
1318.91
  0
LINE
  8
0
 10
-66.8815
 20
1318.91
 11
-67.1489
 21
1318.34
  0
LINE
  8
0
 10
-67.1489
 20
1318.34
 11
-67.3429
 21
1317.74
  0
LINE
  8
0
 10
-67.3429
 20
1317.74
 11
-67.4606
 21
1317.13
  0
LINE
  8
0
 10
-67.4606
 20
1317.13
 11
-67.5
 21
1316.5
  0
LINE
  8
0
 10
-67.5
 20
1316.5
 11
-67.5
 21
1131.5
  0
LINE
  8
0
 10
-67.5
 20
1131.5
 11
-67.4606
 21
1130.87
  0
LINE
  8
0
 10
-67.4606
 20
1130.87
 11
-67.3429
 21
1130.26
  0
LINE
  8
0
 10
-67.3429
 20
1130.26
 11
-67.1489
 21
1129.66
  0
LINE
  8
0
 10
-67.1489
 20
1129.66
 11
-66.8815
 21
1129.09
  0
LINE
  8
0
 10
-66.8815
 20
1129.09
 11
-66.5451
 21
1128.56
  0
LINE
  8
0
 10
-66.5451
 20
1128.56
 11
-66.1448
 21
1128.08
  0
LINE
  8
0
 10
-66.1448
 20
1128.08
 11
-65.6871
 21
1127.65
  0
LINE
  8
0
 10
-65.6871
 20
1127.65
 11
-65.1791
 21
1127.28
  0
LINE
  8
0
 10
-65.1791
 20
1127.28
 11
-64.6289
 21
1126.98
  0
LINE
  8
0
 10
-64.6289
 20
1126.98
 11
-64.0451
 21
1126.74
  0
LINE
  8
0
 10
-64.0451
 20
1126.74
 11
-63.4369
 21
1126.59
  0
LINE
  8
0
 10
-63.4369
 20
1126.59
 11
-62.8139
 21
1126.51
  0
LINE
  8
0
 10
-62.8139
 20
1126.51
 11
62.8139
 21
1126.51
  0
LINE
  8
0
 10
62.8139
 20
1126.51
 11
63.4369
 21
1126.59
  0
LINE
  8
0
 10
-62.2512
 20
1128.01
 11
-62.7495
 21
1128.07
  0
LINE
  8
0
 10
-62.7495
 20
1128.07
 11
-63.2361
 21
1128.2
  0
LINE
  8
0
 10
-63.2361
 20
1128.2
 11
-63.7031
 21
1128.38
  0
LINE
  8
0
 10
-63.7031
 20
1128.38
 11
-64.1433
 21
1128.62
  0
LINE
  8
0
 10
-64.1433
 20
1128.62
 11
-64.5497
 21
1128.92
  0
LINE
  8
0
 10
-64.5497
 20
1128.92
 11
-64.9159
 21
1129.26
  0
LINE
  8
0
 10
-64.9159
 20
1129.26
 11
-65.2361
 21
1129.65
  0
LINE
  8
0
 10
-65.2361
 20
1129.65
 11
-65.5052
 21
1130.07
  0
LINE
  8
0
 10
-65.5052
 20
1130.07
 11
-65.7191
 21
1130.53
  0
LINE
  8
0
 10
-65.7191
 20
1130.53
 11
-65.8743
 21
1131.01
  0
LINE
  8
0
 10
-65.8743
 20
1131.01
 11
-65.9685
 21
1131.5
  0
LINE
  8
0
 10
-65.9685
 20
1131.5
 11
-66
 21
1132
  0
LINE
  8
0
 10
-66
 20
1132
 11
-66
 21
1316
  0
LINE
  8
0
 10
-66
 20
1316
 11
-65.9685
 21
1316.5
  0
LINE
  8
0
 10
-65.9685
 20
1316.5
 11
-65.8743
 21
1316.99
  0
LINE
  8
0
 10
-65.8743
 20
1316.99
 11
-65.7191
 21
1317.47
  0
LINE
  8
0
 10
-65.7191
 20
1317.47
 11
-65.5052
 21
1317.93
  0
LINE
  8
0
 10
-65.5052
 20
1317.93
 11
-65.2361
 21
1318.35
  0
LINE
  8
0
 10
-65.2361
 20
1318.35
 11
-64.9159
 21
1318.74
  0
LINE
  8
0
 10
-64.9159
 20
1318.74
 11
-64.5497
 21
1319.08
  0
LINE
  8
0
 10
-64.5497
 20
1319.08
 11
-64.1433
 21
1319.38
  0
LINE
  8
0
 10
-64.1433
 20
1319.38
 11
-63.7031
 21
1319.62
  0
LINE
  8
0
 10
-63.7031
 20
1319.62
 11
-63.2361
 21
1319.8
  0
LINE
  8
0
 10
-63.2361
 20
1319.8
 11
-62.7495
 21
1319.93
  0
LINE
  8
0
 10
-62.7495
 20
1319.93
 11
-62.2512
 21
1319.99
  0
LINE
  8
0
 10
-62.2512
 20
1319.99
 11
62.2512
 21
1319.99
  0
LINE
  8
0
 10
62.2512
 20
1319.99
 11
62.7495
 21
1319.93
  0
LINE
  8
0
 10
62.7495
 20
1319.93
 11
63.2361
 21
1319.8
  0
LINE
  8
0
 10
63.2361
 20
1319.8
 11
63.7031
 21
1319.62
  0
LINE
  8
0
 10
63.7031
 20
1319.62
 11
64.1433
 21
1319.38
  0
LINE
  8
0
 10
64.1433
 20
1319.38
 11
64.5497
 21
1319.08
  0
LINE
  8
0
 10
64.5497
 20
1319.08
 11
64.9159
 21
1318.74
  0
LINE
  8
0
 10
64.9159
 20
1318.74
 11
65.2361
 21
1318.35
  0
LINE
  8
0
 10
65.2361
 20
1318.35
 11
65.5052
 21
1317.93
  0
LINE
  8
0
 10
65.5052
 20
1317.93
 11
65.7191
 21
1317.47
  0
LINE
  8
0
 10
65.7191
 20
1317.47
 11
65.8743
 21
1316.99
  0
LINE
  8
0
 10
65.8743
 20
1316.99
 11
65.9685
 21
1316.5
  0
LINE
  8
0
 10
65.9685
 20
1316.5
 11
66
 21
1316
  0
LINE
  8
0
 10
66
 20
1316
 11
66
 21
1132
  0
LINE
  8
0
 10
66
 20
1132
 11
65.9685
 21
1131.5
  0
LINE
  8
0
 10
65.9685
 20
1131.5
 11
65.8743
 21
1131.01
  0
LINE
  8
0
 10
65.8743
 20
1131.01
 11
65.7191
 21
1130.53
  0
LINE
  8
0
 10
65.7191
 20
1130.53
 11
65.5052
 21
1130.07
  0
LINE
  8
0
 10
65.5052
 20
1130.07
 11
65.2361
 21
1129.65
  0
LINE
  8
0
 10
65.2361
 20
1129.65
 11
64.9159
 21
1129.26
  0
LINE
  8
0
 10
64.9159
 20
1129.26
 11
64.5497
 21
1128.92
  0
LINE
  8
0
 10
64.5497
 20
1128.92
 11
64.1433
 21
1128.62
  0
LINE
  8
0
 10
64.1433
 20
1128.62
 11
63.7031
 21
1128.38
  0
LINE
  8
0
 10
63.7031
 20
1128.38
 11
63.2361
 21
1128.2
  0
LINE
  8
0
 10
63.2361
 20
1128.2
 11
62.7495
 21
1128.07
  0
LINE
  8
0
 10
62.7495
 20
1128.07
 11
62.2512
 21
1128.01
  0
LINE
  8
0
 10
62.2512
 20
1128.01
 11
-62.2512
 21
1128.01
  0
LINE
  8
0
 10
63.4369
 20
922.589
 11
64.0451
 21
922.745
  0
LINE
  8
0
 10
64.0451
 20
922.745
 11
64.6289
 21
922.976
  0
LINE
  8
0
 10
64.6289
 20
922.976
 11
65.1791
 21
923.278
  0
LINE
  8
0
 10
65.1791
 20
923.278
 11
65.6871
 21
923.647
  0
LINE
  8
0
 10
65.6871
 20
923.647
 11
66.1448
 21
924.077
  0
LINE
  8
0
 10
66.1448
 20
924.077
 11
66.5451
 21
924.561
  0
LINE
  8
0
 10
66.5451
 20
924.561
 11
66.8815
 21
925.091
  0
LINE
  8
0
 10
66.8815
 20
925.091
 11
67.1489
 21
925.659
  0
LINE
  8
0
 10
67.1489
 20
925.659
 11
67.3429
 21
926.257
  0
LINE
  8
0
 10
67.3429
 20
926.257
 11
67.4606
 21
926.873
  0
LINE
  8
0
 10
67.4606
 20
926.873
 11
67.5
 21
927.5
  0
LINE
  8
0
 10
67.5
 20
927.5
 11
67.5
 21
1112.5
  0
LINE
  8
0
 10
67.5
 20
1112.5
 11
67.4606
 21
1113.13
  0
LINE
  8
0
 10
67.4606
 20
1113.13
 11
67.3429
 21
1113.74
  0
LINE
  8
0
 10
67.3429
 20
1113.74
 11
67.1489
 21
1114.34
  0
LINE
  8
0
 10
67.1489
 20
1114.34
 11
66.8815
 21
1114.91
  0
LINE
  8
0
 10
66.8815
 20
1114.91
 11
66.5451
 21
1115.44
  0
LINE
  8
0
 10
66.5451
 20
1115.44
 11
66.1448
 21
1115.92
  0
LINE
  8
0
 10
66.1448
 20
1115.92
 11
65.6871
 21
1116.35
  0
LINE
  8
0
 10
65.6871
 20
1116.35
 11
65.1791
 21
1116.72
  0
LINE
  8
0
 10
65.1791
 20
1116.72
 11
64.6289
 21
1117.02
  0
LINE
  8
0
 10
64.6289
 20
1117.02
 11
64.0451
 21
1117.26
  0
LINE
  8
0
 10
64.0451
 20
1117.26
 11
63.4369
 21
1117.41
  0
LINE
  8
0
 10
63.4369
 20
1117.41
 11
62.8139
 21
1117.49
  0
LINE
  8
0
 10
62.8139
 20
1117.49
 11
-62.8139
 21
1117.49
  0
LINE
  8
0
 10
-62.8139
 20
1117.49
 11
-63.4369
 21
1117.41
  0
LINE
  8
0
 10
-63.4369
 20
1117.41
 11
-64.0451
 21
1117.26
  0
LINE
  8
0
 10
-64.0451
 20
1117.26
 11
-64.6289
 21
1117.02
  0
LINE
  8
0
 10
-64.6289
 20
1117.02
 11
-65.1791
 21
1116.72
  0
LINE
  8
0
 10
-65.1791
 20
1116.72
 11
-65.6871
 21
1116.35
  0
LINE
  8
0
 10
-65.6871
 20
1116.35
 11
-66.1448
 21
1115.92
  0
LINE
  8
0
 10
-66.1448
 20
1115.92
 11
-66.5451
 21
1115.44
  0
LINE
  8
0
 10
-66.5451
 20
1115.44
 11
-66.8815
 21
1114.91
  0
LINE
  8
0
 10
-66.8815
 20
1114.91
 11
-67.1489
 21
1114.34
  0
LINE
  8
0
 10
-67.1489
 20
1114.34
 11
-67.3429
 21
1113.74
  0
LINE
  8
0
 10
-67.3429
 20
1113.74
 11
-67.4606
 21
1113.13
  0
LINE
  8
0
 10
-67.4606
 20
1113.13
 11
-67.5
 21
1112.5
  0
LINE
  8
0
 10
-67.5
 20
1112.5
 11
-67.5
 21
927.5
  0
LINE
  8
0
 10
-67.5
 20
927.5
 11
-67.4606
 21
926.873
  0
LINE
  8
0
 10
-67.4606
 20
926.873
 11
-67.3429
 21
926.257
  0
LINE
  8
0
 10
-67.3429
 20
926.257
 11
-67.1489
 21
925.659
  0
LINE
  8
0
 10
-67.1489
 20
925.659
 11
-66.8815
 21
925.091
  0
LINE
  8
0
 10
-66.8815
 20
925.091
 11
-66.5451
 21
924.561
  0
LINE
  8
0
 10
-66.5451
 20
924.561
 11
-66.1448
 21
924.077
  0
LINE
  8
0
 10
-66.1448
 20
924.077
 11
-65.6871
 21
923.647
  0
LINE
  8
0
 10
-65.6871
 20
923.647
 11
-65.1791
 21
923.278
  0
LINE
  8
0
 10
-65.1791
 20
923.278
 11
-64.6289
 21
922.976
  0
LINE
  8
0
 10
-64.6289
 20
922.976
 11
-64.0451
 21
922.745
  0
LINE
  8
0
 10
-64.0451
 20
922.745
 11
-63.4369
 21
922.589
  0
LINE
  8
0
 10
-63.4369
 20
922.589
 11
-62.8139
 21
922.51
  0
LINE
  8
0
 10
-62.8139
 20
922.51
 11
62.8139
 21
922.51
  0
LINE
  8
0
 10
62.8139
 20
922.51
 11
63.4369
 21
922.589
  0
LINE
  8
0
 10
-62.1954
 20
924.893
 11
-62.5833
 21
924.942
  0
LINE
  8
0
 10
-62.5833
 20
924.942
 11
-62.9619
 21
925.039
  0
LINE
  8
0
 10
-62.9619
 20
925.039
 11
-63.3254
 21
925.183
  0
LINE
  8
0
 10
-63.3254
 20
925.183
 11
-63.668
 21
925.372
  0
LINE
  8
0
 10
-63.668
 20
925.372
 11
-63.9842
 21
925.601
  0
LINE
  8
0
 10
-63.9842
 20
925.601
 11
-64.2692
 21
925.869
  0
LINE
  8
0
 10
-64.2692
 20
925.869
 11
-64.5184
 21
926.17
  0
LINE
  8
0
 10
-64.5184
 20
926.17
 11
-64.7279
 21
926.5
  0
LINE
  8
0
 10
-64.7279
 20
926.5
 11
-64.8943
 21
926.854
  0
LINE
  8
0
 10
-64.8943
 20
926.854
 11
-65.0151
 21
927.226
  0
LINE
  8
0
 10
-65.0151
 20
927.226
 11
-65.0884
 21
927.61
  0
LINE
  8
0
 10
-65.0884
 20
927.61
 11
-65.1129
 21
928
  0
LINE
  8
0
 10
-65.1129
 20
928
 11
-65.1129
 21
1112
  0
LINE
  8
0
 10
-65.1129
 20
1112
 11
-65.0884
 21
1112.39
  0
LINE
  8
0
 10
-65.0884
 20
1112.39
 11
-65.0151
 21
1112.77
  0
LINE
  8
0
 10
-65.0151
 20
1112.77
 11
-64.8943
 21
1113.15
  0
LINE
  8
0
 10
-64.8943
 20
1113.15
 11
-64.7279
 21
1113.5
  0
LINE
  8
0
 10
-64.7279
 20
1113.5
 11
-64.5184
 21
1113.83
  0
LINE
  8
0
 10
-64.5184
 20
1113.83
 11
-64.2692
 21
1114.13
  0
LINE
  8
0
 10
-64.2692
 20
1114.13
 11
-63.9842
 21
1114.4
  0
LINE
  8
0
 10
-63.9842
 20
1114.4
 11
-63.668
 21
1114.63
  0
LINE
  8
0
 10
-63.668
 20
1114.63
 11
-63.3254
 21
1114.82
  0
LINE
  8
0
 10
-63.3254
 20
1114.82
 11
-62.9619
 21
1114.96
  0
LINE
  8
0
 10
-62.9619
 20
1114.96
 11
-62.5833
 21
1115.06
  0
LINE
  8
0
 10
-62.5833
 20
1115.06
 11
-62.1954
 21
1115.11
  0
LINE
  8
0
 10
-62.1954
 20
1115.11
 11
62.1954
 21
1115.11
  0
LINE
  8
0
 10
62.1954
 20
1115.11
 11
62.5833
 21
1115.06
  0
LINE
  8
0
 10
62.5833
 20
1115.06
 11
62.9619
 21
1114.96
  0
LINE
  8
0
 10
62.9619
 20
1114.96
 11
63.3254
 21
1114.82
  0
LINE
  8
0
 10
63.3254
 20
1114.82
 11
63.668
 21
1114.63
  0
LINE
  8
0
 10
63.668
 20
1114.63
 11
63.9842
 21
1114.4
  0
LINE
  8
0
 10
63.9842
 20
1114.4
 11
64.2692
 21
1114.13
  0
LINE
  8
0
 10
64.2692
 20
1114.13
 11
64.5184
 21
1113.83
  0
LINE
  8
0
 10
64.5184
 20
1113.83
 11
64.7279
 21
1113.5
  0
LINE
  8
0
 10
64.7279
 20
1113.5
 11
64.8943
 21
1113.15
  0
LINE
  8
0
 10
64.8943
 20
1113.15
 11
65.0151
 21
1112.77
  0
LINE
  8
0
 10
65.0151
 20
1112.77
 11
65.0884
 21
1112.39
  0
LINE
  8
0
 10
65.0884
 20
1112.39
 11
65.1129
 21
1112
  0
LINE
  8
0
 10
65.1129
 20
1112
 11
65.1129
 21
928
  0
LINE
  8
0
 10
65.1129
 20
928
 11
65.0884
 21
927.61
  0
LINE
  8
0
 10
65.0884
 20
927.61
 11
65.0151
 21
927.226
  0
LINE
  8
0
 10
65.0151
 20
927.226
 11
64.8943
 21
926.854
  0
LINE
  8
0
 10
64.8943
 20
926.854
 11
64.7279
 21
926.5
  0
LINE
  8
0
 10
64.7279
 20
926.5
 11
64.5184
 21
926.17
  0
LINE
  8
0
 10
64.5184
 20
926.17
 11
64.2692
 21
925.869
  0
LINE
  8
0
 10
64.2692
 20
925.869
 11
63.9842
 21
925.601
  0
LINE
  8
0
 10
63.9842
 20
925.601
 11
63.668
 21
925.372
  0
LINE
  8
0
 10
63.668
 20
925.372
 11
63.3254
 21
925.183
  0
LINE
  8
0
 10
63.3254
 20
925.183
 11
62.9619
 21
925.039
  0
LINE
  8
0
 10
62.9619
 20
925.039
 11
62.5833
 21
924.942
  0
LINE
  8
0
 10
62.5833
 20
924.942
 11
62.1954
 21
924.893
  0
LINE
  8
0
 10
62.1954
 20
924.893
 11
-62.1954
 21
924.893
  0
LINE
  8
0
 10
63.4369
 20
718.589
 11
64.0451
 21
718.745
  0
LINE
  8
0
 10
64.0451
 20
718.745
 11
64.6289
 21
718.976
  0
LINE
  8
0
 10
64.6289
 20
718.976
 11
65.1791
 21
719.278
  0
LINE
  8
0
 10
65.1791
 20
719.278
 11
65.6871
 21
719.647
  0
LINE
  8
0
 10
65.6871
 20
719.647
 11
66.1448
 21
720.077
  0
LINE
  8
0
 10
66.1448
 20
720.077
 11
66.5451
 21
720.561
  0
LINE
  8
0
 10
66.5451
 20
720.561
 11
66.8815
 21
721.091
  0
LINE
  8
0
 10
66.8815
 20
721.091
 11
67.1489
 21
721.659
  0
LINE
  8
0
 10
67.1489
 20
721.659
 11
67.3429
 21
722.257
  0
LINE
  8
0
 10
67.3429
 20
722.257
 11
67.4606
 21
722.873
  0
LINE
  8
0
 10
67.4606
 20
722.873
 11
67.5
 21
723.5
  0
LINE
  8
0
 10
67.5
 20
723.5
 11
67.5
 21
908.5
  0
LINE
  8
0
 10
67.5
 20
908.5
 11
67.4606
 21
909.127
  0
LINE
  8
0
 10
67.4606
 20
909.127
 11
67.3429
 21
909.743
  0
LINE
  8
0
 10
67.3429
 20
909.743
 11
67.1489
 21
910.341
  0
LINE
  8
0
 10
67.1489
 20
910.341
 11
66.8815
 21
910.909
  0
LINE
  8
0
 10
66.8815
 20
910.909
 11
66.5451
 21
911.439
  0
LINE
  8
0
 10
66.5451
 20
911.439
 11
66.1448
 21
911.923
  0
LINE
  8
0
 10
66.1448
 20
911.923
 11
65.6871
 21
912.353
  0
LINE
  8
0
 10
65.6871
 20
912.353
 11
65.1791
 21
912.722
  0
LINE
  8
0
 10
65.1791
 20
912.722
 11
64.6289
 21
913.024
  0
LINE
  8
0
 10
64.6289
 20
913.024
 11
64.0451
 21
913.255
  0
LINE
  8
0
 10
64.0451
 20
913.255
 11
63.4369
 21
913.411
  0
LINE
  8
0
 10
63.4369
 20
913.411
 11
62.8139
 21
913.49
  0
LINE
  8
0
 10
62.8139
 20
913.49
 11
-62.8139
 21
913.49
  0
LINE
  8
0
 10
-62.8139
 20
913.49
 11
-63.4369
 21
913.411
  0
LINE
  8
0
 10
-63.4369
 20
913.411
 11
-64.0451
 21
913.255
  0
LINE
  8
0
 10
-64.0451
 20
913.255
 11
-64.6289
 21
913.024
  0
LINE
  8
0
 10
-64.6289
 20
913.024
 11
-65.1791
 21
912.722
  0
LINE
  8
0
 10
-65.1791
 20
912.722
 11
-65.6871
 21
912.353
  0
LINE
  8
0
 10
-65.6871
 20
912.353
 11
-66.1448
 21
911.923
  0
LINE
  8
0
 10
-66.1448
 20
911.923
 11
-66.5451
 21
911.439
  0
LINE
  8
0
 10
-66.5451
 20
911.439
 11
-66.8815
 21
910.909
  0
LINE
  8
0
 10
-66.8815
 20
910.909
 11
-67.1489
 21
910.341
  0
LINE
  8
0
 10
-67.1489
 20
910.341
 11
-67.3429
 21
909.743
  0
LINE
  8
0
 10
-67.3429
 20
909.743
 11
-67.4606
 21
909.127
  0
LINE
  8
0
 10
-67.4606
 20
909.127
 11
-67.5
 21
908.5
  0
LINE
  8
0
 10
-67.5
 20
908.5
 11
-67.5
 21
723.5
  0
LINE
  8
0
 10
-67.5
 20
723.5
 11
-67.4606
 21
722.873
  0
LINE
  8
0
 10
-67.4606
 20
722.873
 11
-67.3429
 21
722.257
  0
LINE
  8
0
 10
-67.3429
 20
722.257
 11
-67.1489
 21
721.659
  0
LINE
  8
0
 10
-67.1489
 20
721.659
 11
-66.8815
 21
721.091
  0
LINE
  8
0
 10
-66.8815
 20
721.091
 11
-66.5451
 21
720.561
  0
LINE
  8
0
 10
-66.5451
 20
720.561
 11
-66.1448
 21
720.077
  0
LINE
  8
0
 10
-66.1448
 20
720.077
 11
-65.6871
 21
719.647
  0
LINE
  8
0
 10
-65.6871
 20
719.647
 11
-65.1791
 21
719.278
  0
LINE
  8
0
 10
-65.1791
 20
719.278
 11
-64.6289
 21
718.976
  0
LINE
  8
0
 10
-64.6289
 20
718.976
 11
-64.0451
 21
718.745
  0
LINE
  8
0
 10
-64.0451
 20
718.745
 11
-63.4369
 21
718.589
  0
LINE
  8
0
 10
-63.4369
 20
718.589
 11
-62.8139
 21
718.51
  0
LINE
  8
0
 10
-62.8139
 20
718.51
 11
62.8139
 21
718.51
  0
LINE
  8
0
 10
62.8139
 20
718.51
 11
63.4369
 21
718.589
  0
LINE
  8
0
 10
59.8659
 20
903.869
 11
59.5999
 21
903.903
  0
LINE
  8
0
 10
59.5999
 20
903.903
 11
59.3401
 21
903.969
  0
LINE
  8
0
 10
59.3401
 20
903.969
 11
59.0908
 21
904.068
  0
LINE
  8
0
 10
59.0908
 20
904.068
 11
58.8559
 21
904.197
  0
LINE
  8
0
 10
58.8559
 20
904.197
 11
58.6389
 21
904.355
  0
LINE
  8
0
 10
58.6389
 20
904.355
 11
58.4434
 21
904.538
  0
LINE
  8
0
 10
58.4434
 20
904.538
 11
58.2725
 21
904.745
  0
LINE
  8
0
 10
58.2725
 20
904.745
 11
58.1288
 21
904.971
  0
LINE
  8
0
 10
58.1288
 20
904.971
 11
58.0146
 21
905.214
  0
LINE
  8
0
 10
58.0146
 20
905.214
 11
57.9318
 21
905.469
  0
LINE
  8
0
 10
57.9318
 20
905.469
 11
57.8815
 21
905.732
  0
LINE
  8
0
 10
57.8815
 20
905.732
 11
57.8647
 21
906
  0
LINE
  8
0
 10
57.8647
 20
906
 11
57.8815
 21
906.268
  0
LINE
  8
0
 10
57.8815
 20
906.268
 11
57.9318
 21
906.531
  0
LINE
  8
0
 10
57.9318
 20
906.531
 11
58.0146
 21
906.786
  0
LINE
  8
0
 10
58.0146
 20
906.786
 11
58.1288
 21
907.029
  0
LINE
  8
0
 10
58.1288
 20
907.029
 11
58.2725
 21
907.255
  0
LINE
  8
0
 10
58.2725
 20
907.255
 11
58.4434
 21
907.462
  0
LINE
  8
0
 10
58.4434
 20
907.462
 11
58.6389
 21
907.645
  0
LINE
  8
0
 10
58.6389
 20
907.645
 11
58.8559
 21
907.803
  0
LINE
  8
0
 10
58.8559
 20
907.803
 11
59.0908
 21
907.932
  0
LINE
  8
0
 10
59.0908
 20
907.932
 11
59.3401
 21
908.031
  0
LINE
  8
0
 10
59.3401
 20
908.031
 11
59.5999
 21
908.097
  0
LINE
  8
0
 10
59.5999
 20
908.097
 11
59.8659
 21
908.131
  0
LINE
  8
0
 10
59.8659
 20
908.131
 11
60.1341
 21
908.131
  0
LINE
  8
0
 10
60.1341
 20
908.131
 11
60.4001
 21
908.097
  0
LINE
  8
0
 10
60.4001
 20
908.097
 11
60.6598
 21
908.031
  0
LINE
  8
0
 10
60.6598
 20
908.031
 11
60.9092
 21
907.932
  0
LINE
  8
0
 10
60.9092
 20
907.932
 11
61.1441
 21
907.803
  0
LINE
  8
0
 10
61.1441
 20
907.803
 11
61.3611
 21
907.645
  0
LINE
  8
0
 10
61.3611
 20
907.645
 11
61.5565
 21
907.462
  0
LINE
  8
0
 10
61.5565
 20
907.462
 11
61.7275
 21
907.255
  0
LINE
  8
0
 10
61.7275
 20
907.255
 11
61.8712
 21
907.029
  0
LINE
  8
0
 10
61.8712
 20
907.029
 11
61.9853
 21
906.786
  0
LINE
  8
0
 10
61.9853
 20
906.786
 11
62.0682
 21
906.531
  0
LINE
  8
0
 10
62.0682
 20
906.531
 11
62.1185
 21
906.268
  0
LINE
  8
0
 10
62.1185
 20
906.268
 11
62.1353
 21
906
  0
LINE
  8
0
 10
62.1353
 20
906
 11
62.1185
 21
905.732
  0
LINE
  8
0
 10
62.1185
 20
905.732
 11
62.0682
 21
905.469
  0
LINE
  8
0
 10
62.0682
 20
905.469
 11
61.9853
 21
905.214
  0
LINE
  8
0
 10
61.9853
 20
905.214
 11
61.8712
 21
904.971
  0
LINE
  8
0
 10
61.8712
 20
904.971
 11
61.7275
 21
904.745
  0
LINE
  8
0
 10
61.7275
 20
904.745
 11
61.5565
 21
904.538
  0
LINE
  8
0
 10
61.5565
 20
904.538
 11
61.3611
 21
904.355
  0
LINE
  8
0
 10
61.3611
 20
904.355
 11
61.1441
 21
904.197
  0
LINE
  8
0
 10
61.1441
 20
904.197
 11
60.9092
 21
904.068
  0
LINE
  8
0
 10
60.9092
 20
904.068
 11
60.6598
 21
903.969
  0
LINE
  8
0
 10
60.6598
 20
903.969
 11
60.4001
 21
903.903
  0
LINE
  8
0
 10
60.4001
 20
903.903
 11
60.1341
 21
903.869
  0
LINE
  8
0
 10
60.1341
 20
903.869
 11
59.8659
 21
903.869
  0
LINE
  8
0
 10
-60.1341
 20
903.869
 11
-60.4001
 21
903.903
  0
LINE
  8
0
 10
-60.4001
 20
903.903
 11
-60.6598
 21
903.969
  0
LINE
  8
0
 10
-60.6598
 20
903.969
 11
-60.9092
 21
904.068
  0
LINE
  8
0
 10
-60.9092
 20
904.068
 11
-61.1441
 21
904.197
  0
LINE
  8
0
 10
-61.1441
 20
904.197
 11
-61.3611
 21
904.355
  0
LINE
  8
0
 10
-61.3611
 20
904.355
 11
-61.5565
 21
904.538
  0
LINE
  8
0
 10
-61.5565
 20
904.538
 11
-61.7275
 21
904.745
  0
LINE
  8
0
 10
-61.7275
 20
904.745
 11
-61.8712
 21
904.971
  0
LINE
  8
0
 10
-61.8712
 20
904.971
 11
-61.9853
 21
905.214
  0
LINE
  8
0
 10
-61.9853
 20
905.214
 11
-62.0682
 21
905.469
  0
LINE
  8
0
 10
-62.0682
 20
905.469
 11
-62.1185
 21
905.732
  0
LINE
  8
0
 10
-62.1185
 20
905.732
 11
-62.1353
 21
906
  0
LINE
  8
0
 10
-62.1353
 20
906
 11
-62.1185
 21
906.268
  0
LINE
  8
0
 10
-62.1185
 20
906.268
 11
-62.0682
 21
906.531
  0
LINE
  8
0
 10
-62.0682
 20
906.531
 11
-61.9853
 21
906.786
  0
LINE
  8
0
 10
-61.9853
 20
906.786
 11
-61.8712
 21
907.029
  0
LINE
  8
0
 10
-61.8712
 20
907.029
 11
-61.7275
 21
907.255
  0
LINE
  8
0
 10
-61.7275
 20
907.255
 11
-61.5565
 21
907.462
  0
LINE
  8
0
 10
-61.5565
 20
907.462
 11
-61.3611
 21
907.645
  0
LINE
  8
0
 10
-61.3611
 20
907.645
 11
-61.1441
 21
907.803
  0
LINE
  8
0
 10
-61.1441
 20
907.803
 11
-60.9092
 21
907.932
  0
LINE
  8
0
 10
-60.9092
 20
907.932
 11
-60.6598
 21
908.031
  0
LINE
  8
0
 10
-60.6598
 20
908.031
 11
-60.4001
 21
908.097
  0
LINE
  8
0
 10
-60.4001
 20
908.097
 11
-60.1341
 21
908.131
  0
LINE
  8
0
 10
-60.1341
 20
908.131
 11
-59.8659
 21
908.131
  0
LINE
  8
0
 10
-59.8659
 20
908.131
 11
-59.5999
 21
908.097
  0
LINE
  8
0
 10
-59.5999
 20
908.097
 11
-59.3401
 21
908.031
  0
LINE
  8
0
 10
-59.3401
 20
908.031
 11
-59.0908
 21
907.932
  0
LINE
  8
0
 10
-59.0908
 20
907.932
 11
-58.8559
 21
907.803
  0
LINE
  8
0
 10
-58.8559
 20
907.803
 11
-58.6389
 21
907.645
  0
LINE
  8
0
 10
-58.6389
 20
907.645
 11
-58.4434
 21
907.462
  0
LINE
  8
0
 10
-58.4434
 20
907.462
 11
-58.2725
 21
907.255
  0
LINE
  8
0
 10
-58.2725
 20
907.255
 11
-58.1288
 21
907.029
  0
LINE
  8
0
 10
-58.1288
 20
907.029
 11
-58.0146
 21
906.786
  0
LINE
  8
0
 10
-58.0146
 20
906.786
 11
-57.9318
 21
906.531
  0
LINE
  8
0
 10
-57.9318
 20
906.531
 11
-57.8815
 21
906.268
  0
LINE
  8
0
 10
-57.8815
 20
906.268
 11
-57.8647
 21
906
  0
LINE
  8
0
 10
-57.8647
 20
906
 11
-57.8815
 21
905.732
  0
LINE
  8
0
 10
-57.8815
 20
905.732
 11
-57.9318
 21
905.469
  0
LINE
  8
0
 10
-57.9318
 20
905.469
 11
-58.0146
 21
905.214
  0
LINE
  8
0
 10
-58.0146
 20
905.214
 11
-58.1288
 21
904.971
  0
LINE
  8
0
 10
-58.1288
 20
904.971
 11
-58.2725
 21
904.745
  0
LINE
  8
0
 10
-58.2725
 20
904.745
 11
-58.4434
 21
904.538
  0
LINE
  8
0
 10
-58.4434
 20
904.538
 11
-58.6389
 21
904.355
  0
LINE
  8
0
 10
-58.6389
 20
904.355
 11
-58.8559
 21
904.197
  0
LINE
  8
0
 10
-58.8559
 20
904.197
 11
-59.0908
 21
904.068
  0
LINE
  8
0
 10
-59.0908
 20
904.068
 11
-59.3401
 21
903.969
  0
LINE
  8
0
 10
-59.3401
 20
903.969
 11
-59.5999
 21
903.903
  0
LINE
  8
0
 10
-59.5999
 20
903.903
 11
-59.8659
 21
903.869
  0
LINE
  8
0
 10
-59.8659
 20
903.869
 11
-60.1341
 21
903.869
  0
LINE
  8
0
 10
59.8659
 20
723.869
 11
59.5999
 21
723.903
  0
LINE
  8
0
 10
59.5999
 20
723.903
 11
59.3401
 21
723.969
  0
LINE
  8
0
 10
59.3401
 20
723.969
 11
59.0908
 21
724.068
  0
LINE
  8
0
 10
59.0908
 20
724.068
 11
58.8559
 21
724.197
  0
LINE
  8
0
 10
58.8559
 20
724.197
 11
58.6389
 21
724.355
  0
LINE
  8
0
 10
58.6389
 20
724.355
 11
58.4434
 21
724.538
  0
LINE
  8
0
 10
58.4434
 20
724.538
 11
58.2725
 21
724.745
  0
LINE
  8
0
 10
58.2725
 20
724.745
 11
58.1288
 21
724.971
  0
LINE
  8
0
 10
58.1288
 20
724.971
 11
58.0146
 21
725.214
  0
LINE
  8
0
 10
58.0146
 20
725.214
 11
57.9318
 21
725.469
  0
LINE
  8
0
 10
57.9318
 20
725.469
 11
57.8815
 21
725.732
  0
LINE
  8
0
 10
57.8815
 20
725.732
 11
57.8647
 21
726
  0
LINE
  8
0
 10
57.8647
 20
726
 11
57.8815
 21
726.268
  0
LINE
  8
0
 10
57.8815
 20
726.268
 11
57.9318
 21
726.531
  0
LINE
  8
0
 10
57.9318
 20
726.531
 11
58.0146
 21
726.786
  0
LINE
  8
0
 10
58.0146
 20
726.786
 11
58.1288
 21
727.029
  0
LINE
  8
0
 10
58.1288
 20
727.029
 11
58.2725
 21
727.255
  0
LINE
  8
0
 10
58.2725
 20
727.255
 11
58.4434
 21
727.462
  0
LINE
  8
0
 10
58.4434
 20
727.462
 11
58.6389
 21
727.645
  0
LINE
  8
0
 10
58.6389
 20
727.645
 11
58.8559
 21
727.803
  0
LINE
  8
0
 10
58.8559
 20
727.803
 11
59.0908
 21
727.932
  0
LINE
  8
0
 10
59.0908
 20
727.932
 11
59.3401
 21
728.031
  0
LINE
  8
0
 10
59.3401
 20
728.031
 11
59.5999
 21
728.097
  0
LINE
  8
0
 10
59.5999
 20
728.097
 11
59.8659
 21
728.131
  0
LINE
  8
0
 10
59.8659
 20
728.131
 11
60.1341
 21
728.131
  0
LINE
  8
0
 10
60.1341
 20
728.131
 11
60.4001
 21
728.097
  0
LINE
  8
0
 10
60.4001
 20
728.097
 11
60.6598
 21
728.031
  0
LINE
  8
0
 10
60.6598
 20
728.031
 11
60.9092
 21
727.932
  0
LINE
  8
0
 10
60.9092
 20
727.932
 11
61.1441
 21
727.803
  0
LINE
  8
0
 10
61.1441
 20
727.803
 11
61.3611
 21
727.645
  0
LINE
  8
0
 10
61.3611
 20
727.645
 11
61.5565
 21
727.462
  0
LINE
  8
0
 10
61.5565
 20
727.462
 11
61.7275
 21
727.255
  0
LINE
  8
0
 10
61.7275
 20
727.255
 11
61.8712
 21
727.029
  0
LINE
  8
0
 10
61.8712
 20
727.029
 11
61.9853
 21
726.786
  0
LINE
  8
0
 10
61.9853
 20
726.786
 11
62.0682
 21
726.531
  0
LINE
  8
0
 10
62.0682
 20
726.531
 11
62.1185
 21
726.268
  0
LINE
  8
0
 10
62.1185
 20
726.268
 11
62.1353
 21
726
  0
LINE
  8
0
 10
62.1353
 20
726
 11
62.1185
 21
725.732
  0
LINE
  8
0
 10
62.1185
 20
725.732
 11
62.0682
 21
725.469
  0
LINE
  8
0
 10
62.0682
 20
725.469
 11
61.9853
 21
725.214
  0
LINE
  8
0
 10
61.9853
 20
725.214
 11
61.8712
 21
724.971
  0
LINE
  8
0
 10
61.8712
 20
724.971
 11
61.7275
 21
724.745
  0
LINE
  8
0
 10
61.7275
 20
724.745
 11
61.5565
 21
724.538
  0
LINE
  8
0
 10
61.5565
 20
724.538
 11
61.3611
 21
724.355
  0
LINE
  8
0
 10
61.3611
 20
724.355
 11
61.1441
 21
724.197
  0
LINE
  8
0
 10
61.1441
 20
724.197
 11
60.9092
 21
724.068
  0
LINE
  8
0
 10
60.9092
 20
724.068
 11
60.6598
 21
723.969
  0
LINE
  8
0
 10
60.6598
 20
723.969
 11
60.4001
 21
723.903
  0
LINE
  8
0
 10
60.4001
 20
723.903
 11
60.1341
 21
723.869
  0
LINE
  8
0
 10
60.1341
 20
723.869
 11
59.8659
 21
723.869
  0
LINE
  8
0
 10
-60.1341
 20
723.869
 11
-60.4001
 21
723.903
  0
LINE
  8
0
 10
-60.4001
 20
723.903
 11
-60.6598
 21
723.969
  0
LINE
  8
0
 10
-60.6598
 20
723.969
 11
-60.9092
 21
724.068
  0
LINE
  8
0
 10
-60.9092
 20
724.068
 11
-61.1441
 21
724.197
  0
LINE
  8
0
 10
-61.1441
 20
724.197
 11
-61.3611
 21
724.355
  0
LINE
  8
0
 10
-61.3611
 20
724.355
 11
-61.5565
 21
724.538
  0
LINE
  8
0
 10
-61.5565
 20
724.538
 11
-61.7275
 21
724.745
  0
LINE
  8
0
 10
-61.7275
 20
724.745
 11
-61.8712
 21
724.971
  0
LINE
  8
0
 10
-61.8712
 20
724.971
 11
-61.9853
 21
725.214
  0
LINE
  8
0
 10
-61.9853
 20
725.214
 11
-62.0682
 21
725.469
  0
LINE
  8
0
 10
-62.0682
 20
725.469
 11
-62.1185
 21
725.732
  0
LINE
  8
0
 10
-62.1185
 20
725.732
 11
-62.1353
 21
726
  0
LINE
  8
0
 10
-62.1353
 20
726
 11
-62.1185
 21
726.268
  0
LINE
  8
0
 10
-62.1185
 20
726.268
 11
-62.0682
 21
726.531
  0
LINE
  8
0
 10
-62.0682
 20
726.531
 11
-61.9853
 21
726.786
  0
LINE
  8
0
 10
-61.9853
 20
726.786
 11
-61.8712
 21
727.029
  0
LINE
  8
0
 10
-61.8712
 20
727.029
 11
-61.7275
 21
727.255
  0
LINE
  8
0
 10
-61.7275
 20
727.255
 11
-61.5565
 21
727.462
  0
LINE
  8
0
 10
-61.5565
 20
727.462
 11
-61.3611
 21
727.645
  0
LINE
  8
0
 10
-61.3611
 20
727.645
 11
-61.1441
 21
727.803
  0
LINE
  8
0
 10
-61.1441
 20
727.803
 11
-60.9092
 21
727.932
  0
LINE
  8
0
 10
-60.9092
 20
727.932
 11
-60.6598
 21
728.031
  0
LINE
  8
0
 10
-60.6598
 20
728.031
 11
-60.4001
 21
728.097
  0
LINE
  8
0
 10
-60.4001
 20
728.097
 11
-60.1341
 21
728.131
  0
LINE
  8
0
 10
-60.1341
 20
728.131
 11
-59.8659
 21
728.131
  0
LINE
  8
0
 10
-59.8659
 20
728.131
 11
-59.5999
 21
728.097
  0
LINE
  8
0
 10
-59.5999
 20
728.097
 11
-59.3401
 21
728.031
  0
LINE
  8
0
 10
-59.3401
 20
728.031
 11
-59.0908
 21
727.932
  0
LINE
  8
0
 10
-59.0908
 20
727.932
 11
-58.8559
 21
727.803
  0
LINE
  8
0
 10
-58.8559
 20
727.803
 11
-58.6389
 21
727.645
  0
LINE
  8
0
 10
-58.6389
 20
727.645
 11
-58.4434
 21
727.462
  0
LINE
  8
0
 10
-58.4434
 20
727.462
 11
-58.2725
 21
727.255
  0
LINE
  8
0
 10
-58.2725
 20
727.255
 11
-58.1288
 21
727.029
  0
LINE
  8
0
 10
-58.1288
 20
727.029
 11
-58.0146
 21
726.786
  0
LINE
  8
0
 10
-58.0146
 20
726.786
 11
-57.9318
 21
726.531
  0
LINE
  8
0
 10
-57.9318
 20
726.531
 11
-57.8815
 21
726.268
  0
LINE
  8
0
 10
-57.8815
 20
726.268
 11
-57.8647
 21
726
  0
LINE
  8
0
 10
-57.8647
 20
726
 11
-57.8815
 21
725.732
  0
LINE
  8
0
 10
-57.8815
 20
725.732
 11
-57.9318
 21
725.469
  0
LINE
  8
0
 10
-57.9318
 20
725.469
 11
-58.0146
 21
725.214
  0
LINE
  8
0
 10
-58.0146
 20
725.214
 11
-58.1288
 21
724.971
  0
LINE
  8
0
 10
-58.1288
 20
724.971
 11
-58.2725
 21
724.745
  0
LINE
  8
0
 10
-58.2725
 20
724.745
 11
-58.4434
 21
724.538
  0
LINE
  8
0
 10
-58.4434
 20
724.538
 11
-58.6389
 21
724.355
  0
LINE
  8
0
 10
-58.6389
 20
724.355
 11
-58.8559
 21
724.197
  0
LINE
  8
0
 10
-58.8559
 20
724.197
 11
-59.0908
 21
724.068
  0
LINE
  8
0
 10
-59.0908
 20
724.068
 11
-59.3401
 21
723.969
  0
LINE
  8
0
 10
-59.3401
 20
723.969
 11
-59.5999
 21
723.903
  0
LINE
  8
0
 10
-59.5999
 20
723.903
 11
-59.8659
 21
723.869
  0
LINE
  8
0
 10
-59.8659
 20
723.869
 11
-60.1341
 21
723.869
  0
ENDSEC
  0
SECTION
  2
OBJECTS
  0
DICTIONARY
  0
ENDSEC
  0
EOF
