<?xml version="1.0" standalone="no"?>
<!DOCTYPE svg PUBLIC "-//W3C//DTD SVG 1.1//EN" "http://www.w3.org/Graphics/SVG/1.1/DTD/svg11.dtd">
<svg width="30mm" height="1732mm" viewBox="-15 -3389 30 1732" xmlns="http://www.w3.org/2000/svg" version="1.1">
<title>OpenSCAD Model</title>
<path d="
M 10.9369,-3223.59 L 11.5451,-3223.74 L 12.1289,-3223.98 L 12.6791,-3224.28 L 13.1871,-3224.65 L 13.6448,-3225.08
 L 14.0451,-3225.56 L 14.3815,-3226.09 L 14.6489,-3226.66 L 14.8429,-3227.26 L 14.9606,-3227.87 L 15,-3228.5
 L 15,-3383.5 L 14.9606,-3384.13 L 14.8429,-3384.74 L 14.6489,-3385.34 L 14.3815,-3385.91 L 14.0451,-3386.44
 L 13.6448,-3386.92 L 13.1871,-3387.35 L 12.6791,-3387.72 L 12.1289,-3388.02 L 11.5451,-3388.26 L 10.9369,-3388.41
 L 10.3139,-3388.49 L -10.3139,-3388.49 L -10.9369,-3388.41 L -11.5451,-3388.26 L -12.1289,-3388.02 L -12.6791,-3387.72
 L -13.1871,-3387.35 L -13.6448,-3386.92 L -14.0451,-3386.44 L -14.3815,-3385.91 L -14.6489,-3385.34 L -14.8429,-3384.74
 L -14.9606,-3384.13 L -15,-3383.5 L -15,-3228.5 L -14.9606,-3227.87 L -14.8429,-3227.26 L -14.6489,-3226.66
 L -14.3815,-3226.09 L -14.0451,-3225.56 L -13.6448,-3225.08 L -13.1871,-3224.65 L -12.6791,-3224.28 L -12.1289,-3223.98
 L -11.5451,-3223.74 L -10.9369,-3223.59 L -10.3139,-3223.51 L 10.3139,-3223.51 z
M -9.75116,-3225.01 L -10.2495,-3225.07 L -10.7361,-3225.2 L -11.2031,-3225.38 L -11.6433,-3225.62 L -12.0497,-3225.92
 L -12.4159,-3226.26 L -12.7361,-3226.65 L -13.0052,-3227.07 L -13.2191,-3227.53 L -13.3743,-3228.01 L -13.4684,-3228.5
 L -13.5,-3229 L -13.5,-3383 L -13.4684,-3383.5 L -13.3743,-3383.99 L -13.2191,-3384.47 L -13.0052,-3384.93
 L -12.7361,-3385.35 L -12.4159,-3385.74 L -12.0497,-3386.08 L -11.6433,-3386.38 L -11.2031,-3386.62 L -10.7361,-3386.8
 L -10.2495,-3386.93 L -9.75116,-3386.99 L 9.75116,-3386.99 L 10.2495,-3386.93 L 10.7361,-3386.8 L 11.2031,-3386.62
 L 11.6433,-3386.38 L 12.0497,-3386.08 L 12.4159,-3385.74 L 12.7361,-3385.35 L 13.0052,-3384.93 L 13.2191,-3384.47
 L 13.3743,-3383.99 L 13.4684,-3383.5 L 13.5,-3383 L 13.5,-3229 L 13.4684,-3228.5 L 13.3743,-3228.01
 L 13.2191,-3227.53 L 13.0052,-3227.07 L 12.7361,-3226.65 L 12.4159,-3226.26 L 12.0497,-3225.92 L 11.6433,-3225.62
 L 11.2031,-3225.38 L 10.7361,-3225.2 L 10.2495,-3225.07 L 9.75116,-3225.01 z
M 10.9369,-3049.59 L 11.5451,-3049.74 L 12.1289,-3049.98 L 12.6791,-3050.28 L 13.1871,-3050.65 L 13.6448,-3051.08
 L 14.0451,-3051.56 L 14.3815,-3052.09 L 14.6489,-3052.66 L 14.8429,-3053.26 L 14.9606,-3053.87 L 15,-3054.5
 L 15,-3209.5 L 14.9606,-3210.13 L 14.8429,-3210.74 L 14.6489,-3211.34 L 14.3815,-3211.91 L 14.0451,-3212.44
 L 13.6448,-3212.92 L 13.1871,-3213.35 L 12.6791,-3213.72 L 12.1289,-3214.02 L 11.5451,-3214.26 L 10.9369,-3214.41
 L 10.3139,-3214.49 L -10.3139,-3214.49 L -10.9369,-3214.41 L -11.5451,-3214.26 L -12.1289,-3214.02 L -12.6791,-3213.72
 L -13.1871,-3213.35 L -13.6448,-3212.92 L -14.0451,-3212.44 L -14.3815,-3211.91 L -14.6489,-3211.34 L -14.8429,-3210.74
 L -14.9606,-3210.13 L -15,-3209.5 L -15,-3054.5 L -14.9606,-3053.87 L -14.8429,-3053.26 L -14.6489,-3052.66
 L -14.3815,-3052.09 L -14.0451,-3051.56 L -13.6448,-3051.08 L -13.1871,-3050.65 L -12.6791,-3050.28 L -12.1289,-3049.98
 L -11.5451,-3049.74 L -10.9369,-3049.59 L -10.3139,-3049.51 L 10.3139,-3049.51 z
M -9.75116,-3051.01 L -10.2495,-3051.07 L -10.7361,-3051.2 L -11.2031,-3051.38 L -11.6433,-3051.62 L -12.0497,-3051.92
 L -12.4159,-3052.26 L -12.7361,-3052.65 L -13.0052,-3053.07 L -13.2191,-3053.53 L -13.3743,-3054.01 L -13.4684,-3054.5
 L -13.5,-3055 L -13.5,-3209 L -13.4684,-3209.5 L -13.3743,-3209.99 L -13.2191,-3210.47 L -13.0052,-3210.93
 L -12.7361,-3211.35 L -12.4159,-3211.74 L -12.0497,-3212.08 L -11.6433,-3212.38 L -11.2031,-3212.62 L -10.7361,-3212.8
 L -10.2495,-3212.93 L -9.75116,-3212.99 L 9.75116,-3212.99 L 10.2495,-3212.93 L 10.7361,-3212.8 L 11.2031,-3212.62
 L 11.6433,-3212.38 L 12.0497,-3212.08 L 12.4159,-3211.74 L 12.7361,-3211.35 L 13.0052,-3210.93 L 13.2191,-3210.47
 L 13.3743,-3209.99 L 13.4684,-3209.5 L 13.5,-3209 L 13.5,-3055 L 13.4684,-3054.5 L 13.3743,-3054.01
 L 13.2191,-3053.53 L 13.0052,-3053.07 L 12.7361,-3052.65 L 12.4159,-3052.26 L 12.0497,-3051.92 L 11.6433,-3051.62
 L 11.2031,-3051.38 L 10.7361,-3051.2 L 10.2495,-3051.07 L 9.75116,-3051.01 z
M 10.9369,-2875.59 L 11.5451,-2875.74 L 12.1289,-2875.98 L 12.6791,-2876.28 L 13.1871,-2876.65 L 13.6448,-2877.08
 L 14.0451,-2877.56 L 14.3815,-2878.09 L 14.6489,-2878.66 L 14.8429,-2879.26 L 14.9606,-2879.87 L 15,-2880.5
 L 15,-3035.5 L 14.9606,-3036.13 L 14.8429,-3036.74 L 14.6489,-3037.34 L 14.3815,-3037.91 L 14.0451,-3038.44
 L 13.6448,-3038.92 L 13.1871,-3039.35 L 12.6791,-3039.72 L 12.1289,-3040.02 L 11.5451,-3040.26 L 10.9369,-3040.41
 L 10.3139,-3040.49 L -10.3139,-3040.49 L -10.9369,-3040.41 L -11.5451,-3040.26 L -12.1289,-3040.02 L -12.6791,-3039.72
 L -13.1871,-3039.35 L -13.6448,-3038.92 L -14.0451,-3038.44 L -14.3815,-3037.91 L -14.6489,-3037.34 L -14.8429,-3036.74
 L -14.9606,-3036.13 L -15,-3035.5 L -15,-2880.5 L -14.9606,-2879.87 L -14.8429,-2879.26 L -14.6489,-2878.66
 L -14.3815,-2878.09 L -14.0451,-2877.56 L -13.6448,-2877.08 L -13.1871,-2876.65 L -12.6791,-2876.28 L -12.1289,-2875.98
 L -11.5451,-2875.74 L -10.9369,-2875.59 L -10.3139,-2875.51 L 10.3139,-2875.51 z
M -9.75116,-2877.01 L -10.2495,-2877.07 L -10.7361,-2877.2 L -11.2031,-2877.38 L -11.6433,-2877.62 L -12.0497,-2877.92
 L -12.4159,-2878.26 L -12.7361,-2878.65 L -13.0052,-2879.07 L -13.2191,-2879.53 L -13.3743,-2880.01 L -13.4684,-2880.5
 L -13.5,-2881 L -13.5,-3035 L -13.4684,-3035.5 L -13.3743,-3035.99 L -13.2191,-3036.47 L -13.0052,-3036.93
 L -12.7361,-3037.35 L -12.4159,-3037.74 L -12.0497,-3038.08 L -11.6433,-3038.38 L -11.2031,-3038.62 L -10.7361,-3038.8
 L -10.2495,-3038.93 L -9.75116,-3038.99 L 9.75116,-3038.99 L 10.2495,-3038.93 L 10.7361,-3038.8 L 11.2031,-3038.62
 L 11.6433,-3038.38 L 12.0497,-3038.08 L 12.4159,-3037.74 L 12.7361,-3037.35 L 13.0052,-3036.93 L 13.2191,-3036.47
 L 13.3743,-3035.99 L 13.4684,-3035.5 L 13.5,-3035 L 13.5,-2881 L 13.4684,-2880.5 L 13.3743,-2880.01
 L 13.2191,-2879.53 L 13.0052,-2879.07 L 12.7361,-2878.65 L 12.4159,-2878.26 L 12.0497,-2877.92 L 11.6433,-2877.62
 L 11.2031,-2877.38 L 10.7361,-2877.2 L 10.2495,-2877.07 L 9.75116,-2877.01 z
M 10.9369,-2701.59 L 11.5451,-2701.74 L 12.1289,-2701.98 L 12.6791,-2702.28 L 13.1871,-2702.65 L 13.6448,-2703.08
 L 14.0451,-2703.56 L 14.3815,-2704.09 L 14.6489,-2704.66 L 14.8429,-2705.26 L 14.9606,-2705.87 L 15,-2706.5
 L 15,-2861.5 L 14.9606,-2862.13 L 14.8429,-2862.74 L 14.6489,-2863.34 L 14.3815,-2863.91 L 14.0451,-2864.44
 L 13.6448,-2864.92 L 13.1871,-2865.35 L 12.6791,-2865.72 L 12.1289,-2866.02 L 11.5451,-2866.26 L 10.9369,-2866.41
 L 10.3139,-2866.49 L -10.3139,-2866.49 L -10.9369,-2866.41 L -11.5451,-2866.26 L -12.1289,-2866.02 L -12.6791,-2865.72
 L -13.1871,-2865.35 L -13.6448,-2864.92 L -14.0451,-2864.44 L -14.3815,-2863.91 L -14.6489,-2863.34 L -14.8429,-2862.74
 L -14.9606,-2862.13 L -15,-2861.5 L -15,-2706.5 L -14.9606,-2705.87 L -14.8429,-2705.26 L -14.6489,-2704.66
 L -14.3815,-2704.09 L -14.0451,-2703.56 L -13.6448,-2703.08 L -13.1871,-2702.65 L -12.6791,-2702.28 L -12.1289,-2701.98
 L -11.5451,-2701.74 L -10.9369,-2701.59 L -10.3139,-2701.51 L 10.3139,-2701.51 z
M -9.75116,-2703.01 L -10.2495,-2703.07 L -10.7361,-2703.2 L -11.2031,-2703.38 L -11.6433,-2703.62 L -12.0497,-2703.92
 L -12.4159,-2704.26 L -12.7361,-2704.65 L -13.0052,-2705.07 L -13.2191,-2705.53 L -13.3743,-2706.01 L -13.4684,-2706.5
 L -13.5,-2707 L -13.5,-2861 L -13.4684,-2861.5 L -13.3743,-2861.99 L -13.2191,-2862.47 L -13.0052,-2862.93
 L -12.7361,-2863.35 L -12.4159,-2863.74 L -12.0497,-2864.08 L -11.6433,-2864.38 L -11.2031,-2864.62 L -10.7361,-2864.8
 L -10.2495,-2864.93 L -9.75116,-2864.99 L 9.75116,-2864.99 L 10.2495,-2864.93 L 10.7361,-2864.8 L 11.2031,-2864.62
 L 11.6433,-2864.38 L 12.0497,-2864.08 L 12.4159,-2863.74 L 12.7361,-2863.35 L 13.0052,-2862.93 L 13.2191,-2862.47
 L 13.3743,-2861.99 L 13.4684,-2861.5 L 13.5,-2861 L 13.5,-2707 L 13.4684,-2706.5 L 13.3743,-2706.01
 L 13.2191,-2705.53 L 13.0052,-2705.07 L 12.7361,-2704.65 L 12.4159,-2704.26 L 12.0497,-2703.92 L 11.6433,-2703.62
 L 11.2031,-2703.38 L 10.7361,-2703.2 L 10.2495,-2703.07 L 9.75116,-2703.01 z
M 10.9369,-2527.59 L 11.5451,-2527.74 L 12.1289,-2527.98 L 12.6791,-2528.28 L 13.1871,-2528.65 L 13.6448,-2529.08
 L 14.0451,-2529.56 L 14.3815,-2530.09 L 14.6489,-2530.66 L 14.8429,-2531.26 L 14.9606,-2531.87 L 15,-2532.5
 L 15,-2687.5 L 14.9606,-2688.13 L 14.8429,-2688.74 L 14.6489,-2689.34 L 14.3815,-2689.91 L 14.0451,-2690.44
 L 13.6448,-2690.92 L 13.1871,-2691.35 L 12.6791,-2691.72 L 12.1289,-2692.02 L 11.5451,-2692.26 L 10.9369,-2692.41
 L 10.3139,-2692.49 L -10.3139,-2692.49 L -10.9369,-2692.41 L -11.5451,-2692.26 L -12.1289,-2692.02 L -12.6791,-2691.72
 L -13.1871,-2691.35 L -13.6448,-2690.92 L -14.0451,-2690.44 L -14.3815,-2689.91 L -14.6489,-2689.34 L -14.8429,-2688.74
 L -14.9606,-2688.13 L -15,-2687.5 L -15,-2532.5 L -14.9606,-2531.87 L -14.8429,-2531.26 L -14.6489,-2530.66
 L -14.3815,-2530.09 L -14.0451,-2529.56 L -13.6448,-2529.08 L -13.1871,-2528.65 L -12.6791,-2528.28 L -12.1289,-2527.98
 L -11.5451,-2527.74 L -10.9369,-2527.59 L -10.3139,-2527.51 L 10.3139,-2527.51 z
M -9.75116,-2529.01 L -10.2495,-2529.07 L -10.7361,-2529.2 L -11.2031,-2529.38 L -11.6433,-2529.62 L -12.0497,-2529.92
 L -12.4159,-2530.26 L -12.7361,-2530.65 L -13.0052,-2531.07 L -13.2191,-2531.53 L -13.3743,-2532.01 L -13.4684,-2532.5
 L -13.5,-2533 L -13.5,-2687 L -13.4684,-2687.5 L -13.3743,-2687.99 L -13.2191,-2688.47 L -13.0052,-2688.93
 L -12.7361,-2689.35 L -12.4159,-2689.74 L -12.0497,-2690.08 L -11.6433,-2690.38 L -11.2031,-2690.62 L -10.7361,-2690.8
 L -10.2495,-2690.93 L -9.75116,-2690.99 L 9.75116,-2690.99 L 10.2495,-2690.93 L 10.7361,-2690.8 L 11.2031,-2690.62
 L 11.6433,-2690.38 L 12.0497,-2690.08 L 12.4159,-2689.74 L 12.7361,-2689.35 L 13.0052,-2688.93 L 13.2191,-2688.47
 L 13.3743,-2687.99 L 13.4684,-2687.5 L 13.5,-2687 L 13.5,-2533 L 13.4684,-2532.5 L 13.3743,-2532.01
 L 13.2191,-2531.53 L 13.0052,-2531.07 L 12.7361,-2530.65 L 12.4159,-2530.26 L 12.0497,-2529.92 L 11.6433,-2529.62
 L 11.2031,-2529.38 L 10.7361,-2529.2 L 10.2495,-2529.07 L 9.75116,-2529.01 z
M 10.9369,-2353.59 L 11.5451,-2353.74 L 12.1289,-2353.98 L 12.6791,-2354.28 L 13.1871,-2354.65 L 13.6448,-2355.08
 L 14.0451,-2355.56 L 14.3815,-2356.09 L 14.6489,-2356.66 L 14.8429,-2357.26 L 14.9606,-2357.87 L 15,-2358.5
 L 15,-2513.5 L 14.9606,-2514.13 L 14.8429,-2514.74 L 14.6489,-2515.34 L 14.3815,-2515.91 L 14.0451,-2516.44
 L 13.6448,-2516.92 L 13.1871,-2517.35 L 12.6791,-2517.72 L 12.1289,-2518.02 L 11.5451,-2518.26 L 10.9369,-2518.41
 L 10.3139,-2518.49 L -10.3139,-2518.49 L -10.9369,-2518.41 L -11.5451,-2518.26 L -12.1289,-2518.02 L -12.6791,-2517.72
 L -13.1871,-2517.35 L -13.6448,-2516.92 L -14.0451,-2516.44 L -14.3815,-2515.91 L -14.6489,-2515.34 L -14.8429,-2514.74
 L -14.9606,-2514.13 L -15,-2513.5 L -15,-2358.5 L -14.9606,-2357.87 L -14.8429,-2357.26 L -14.6489,-2356.66
 L -14.3815,-2356.09 L -14.0451,-2355.56 L -13.6448,-2355.08 L -13.1871,-2354.65 L -12.6791,-2354.28 L -12.1289,-2353.98
 L -11.5451,-2353.74 L -10.9369,-2353.59 L -10.3139,-2353.51 L 10.3139,-2353.51 z
M -9.75116,-2355.01 L -10.2495,-2355.07 L -10.7361,-2355.2 L -11.2031,-2355.38 L -11.6433,-2355.62 L -12.0497,-2355.92
 L -12.4159,-2356.26 L -12.7361,-2356.65 L -13.0052,-2357.07 L -13.2191,-2357.53 L -13.3743,-2358.01 L -13.4684,-2358.5
 L -13.5,-2359 L -13.5,-2513 L -13.4684,-2513.5 L -13.3743,-2513.99 L -13.2191,-2514.47 L -13.0052,-2514.93
 L -12.7361,-2515.35 L -12.4159,-2515.74 L -12.0497,-2516.08 L -11.6433,-2516.38 L -11.2031,-2516.62 L -10.7361,-2516.8
 L -10.2495,-2516.93 L -9.75116,-2516.99 L 9.75116,-2516.99 L 10.2495,-2516.93 L 10.7361,-2516.8 L 11.2031,-2516.62
 L 11.6433,-2516.38 L 12.0497,-2516.08 L 12.4159,-2515.74 L 12.7361,-2515.35 L 13.0052,-2514.93 L 13.2191,-2514.47
 L 13.3743,-2513.99 L 13.4684,-2513.5 L 13.5,-2513 L 13.5,-2359 L 13.4684,-2358.5 L 13.3743,-2358.01
 L 13.2191,-2357.53 L 13.0052,-2357.07 L 12.7361,-2356.65 L 12.4159,-2356.26 L 12.0497,-2355.92 L 11.6433,-2355.62
 L 11.2031,-2355.38 L 10.7361,-2355.2 L 10.2495,-2355.07 L 9.75116,-2355.01 z
M 10.9369,-2179.59 L 11.5451,-2179.74 L 12.1289,-2179.98 L 12.6791,-2180.28 L 13.1871,-2180.65 L 13.6448,-2181.08
 L 14.0451,-2181.56 L 14.3815,-2182.09 L 14.6489,-2182.66 L 14.8429,-2183.26 L 14.9606,-2183.87 L 15,-2184.5
 L 15,-2339.5 L 14.9606,-2340.13 L 14.8429,-2340.74 L 14.6489,-2341.34 L 14.3815,-2341.91 L 14.0451,-2342.44
 L 13.6448,-2342.92 L 13.1871,-2343.35 L 12.6791,-2343.72 L 12.1289,-2344.02 L 11.5451,-2344.26 L 10.9369,-2344.41
 L 10.3139,-2344.49 L -10.3139,-2344.49 L -10.9369,-2344.41 L -11.5451,-2344.26 L -12.1289,-2344.02 L -12.6791,-2343.72
 L -13.1871,-2343.35 L -13.6448,-2342.92 L -14.0451,-2342.44 L -14.3815,-2341.91 L -14.6489,-2341.34 L -14.8429,-2340.74
 L -14.9606,-2340.13 L -15,-2339.5 L -15,-2184.5 L -14.9606,-2183.87 L -14.8429,-2183.26 L -14.6489,-2182.66
 L -14.3815,-2182.09 L -14.0451,-2181.56 L -13.6448,-2181.08 L -13.1871,-2180.65 L -12.6791,-2180.28 L -12.1289,-2179.98
 L -11.5451,-2179.74 L -10.9369,-2179.59 L -10.3139,-2179.51 L 10.3139,-2179.51 z
M -9.75116,-2181.01 L -10.2495,-2181.07 L -10.7361,-2181.2 L -11.2031,-2181.38 L -11.6433,-2181.62 L -12.0497,-2181.92
 L -12.4159,-2182.26 L -12.7361,-2182.65 L -13.0052,-2183.07 L -13.2191,-2183.53 L -13.3743,-2184.01 L -13.4684,-2184.5
 L -13.5,-2185 L -13.5,-2339 L -13.4684,-2339.5 L -13.3743,-2339.99 L -13.2191,-2340.47 L -13.0052,-2340.93
 L -12.7361,-2341.35 L -12.4159,-2341.74 L -12.0497,-2342.08 L -11.6433,-2342.38 L -11.2031,-2342.62 L -10.7361,-2342.8
 L -10.2495,-2342.93 L -9.75116,-2342.99 L 9.75116,-2342.99 L 10.2495,-2342.93 L 10.7361,-2342.8 L 11.2031,-2342.62
 L 11.6433,-2342.38 L 12.0497,-2342.08 L 12.4159,-2341.74 L 12.7361,-2341.35 L 13.0052,-2340.93 L 13.2191,-2340.47
 L 13.3743,-2339.99 L 13.4684,-2339.5 L 13.5,-2339 L 13.5,-2185 L 13.4684,-2184.5 L 13.3743,-2184.01
 L 13.2191,-2183.53 L 13.0052,-2183.07 L 12.7361,-2182.65 L 12.4159,-2182.26 L 12.0497,-2181.92 L 11.6433,-2181.62
 L 11.2031,-2181.38 L 10.7361,-2181.2 L 10.2495,-2181.07 L 9.75116,-2181.01 z
M 10.9369,-2005.59 L 11.5451,-2005.74 L 12.1289,-2005.98 L 12.6791,-2006.28 L 13.1871,-2006.65 L 13.6448,-2007.08
 L 14.0451,-2007.56 L 14.3815,-2008.09 L 14.6489,-2008.66 L 14.8429,-2009.26 L 14.9606,-2009.87 L 15,-2010.5
 L 15,-2165.5 L 14.9606,-2166.13 L 14.8429,-2166.74 L 14.6489,-2167.34 L 14.3815,-2167.91 L 14.0451,-2168.44
 L 13.6448,-2168.92 L 13.1871,-2169.35 L 12.6791,-2169.72 L 12.1289,-2170.02 L 11.5451,-2170.26 L 10.9369,-2170.41
 L 10.3139,-2170.49 L -10.3139,-2170.49 L -10.9369,-2170.41 L -11.5451,-2170.26 L -12.1289,-2170.02 L -12.6791,-2169.72
 L -13.1871,-2169.35 L -13.6448,-2168.92 L -14.0451,-2168.44 L -14.3815,-2167.91 L -14.6489,-2167.34 L -14.8429,-2166.74
 L -14.9606,-2166.13 L -15,-2165.5 L -15,-2010.5 L -14.9606,-2009.87 L -14.8429,-2009.26 L -14.6489,-2008.66
 L -14.3815,-2008.09 L -14.0451,-2007.56 L -13.6448,-2007.08 L -13.1871,-2006.65 L -12.6791,-2006.28 L -12.1289,-2005.98
 L -11.5451,-2005.74 L -10.9369,-2005.59 L -10.3139,-2005.51 L 10.3139,-2005.51 z
M -9.75116,-2007.01 L -10.2495,-2007.07 L -10.7361,-2007.2 L -11.2031,-2007.38 L -11.6433,-2007.62 L -12.0497,-2007.92
 L -12.4159,-2008.26 L -12.7361,-2008.65 L -13.0052,-2009.07 L -13.2191,-2009.53 L -13.3743,-2010.01 L -13.4684,-2010.5
 L -13.5,-2011 L -13.5,-2165 L -13.4684,-2165.5 L -13.3743,-2165.99 L -13.2191,-2166.47 L -13.0052,-2166.93
 L -12.7361,-2167.35 L -12.4159,-2167.74 L -12.0497,-2168.08 L -11.6433,-2168.38 L -11.2031,-2168.62 L -10.7361,-2168.8
 L -10.2495,-2168.93 L -9.75116,-2168.99 L 9.75116,-2168.99 L 10.2495,-2168.93 L 10.7361,-2168.8 L 11.2031,-2168.62
 L 11.6433,-2168.38 L 12.0497,-2168.08 L 12.4159,-2167.74 L 12.7361,-2167.35 L 13.0052,-2166.93 L 13.2191,-2166.47
 L 13.3743,-2165.99 L 13.4684,-2165.5 L 13.5,-2165 L 13.5,-2011 L 13.4684,-2010.5 L 13.3743,-2010.01
 L 13.2191,-2009.53 L 13.0052,-2009.07 L 12.7361,-2008.65 L 12.4159,-2008.26 L 12.0497,-2007.92 L 11.6433,-2007.62
 L 11.2031,-2007.38 L 10.7361,-2007.2 L 10.2495,-2007.07 L 9.75116,-2007.01 z
M 10.9369,-1831.59 L 11.5451,-1831.74 L 12.1289,-1831.98 L 12.6791,-1832.28 L 13.1871,-1832.65 L 13.6448,-1833.08
 L 14.0451,-1833.56 L 14.3815,-1834.09 L 14.6489,-1834.66 L 14.8429,-1835.26 L 14.9606,-1835.87 L 15,-1836.5
 L 15,-1991.5 L 14.9606,-1992.13 L 14.8429,-1992.74 L 14.6489,-1993.34 L 14.3815,-1993.91 L 14.0451,-1994.44
 L 13.6448,-1994.92 L 13.1871,-1995.35 L 12.6791,-1995.72 L 12.1289,-1996.02 L 11.5451,-1996.26 L 10.9369,-1996.41
 L 10.3139,-1996.49 L -10.3139,-1996.49 L -10.9369,-1996.41 L -11.5451,-1996.26 L -12.1289,-1996.02 L -12.6791,-1995.72
 L -13.1871,-1995.35 L -13.6448,-1994.92 L -14.0451,-1994.44 L -14.3815,-1993.91 L -14.6489,-1993.34 L -14.8429,-1992.74
 L -14.9606,-1992.13 L -15,-1991.5 L -15,-1836.5 L -14.9606,-1835.87 L -14.8429,-1835.26 L -14.6489,-1834.66
 L -14.3815,-1834.09 L -14.0451,-1833.56 L -13.6448,-1833.08 L -13.1871,-1832.65 L -12.6791,-1832.28 L -12.1289,-1831.98
 L -11.5451,-1831.74 L -10.9369,-1831.59 L -10.3139,-1831.51 L 10.3139,-1831.51 z
M -9.69545,-1833.89 L -10.0833,-1833.94 L -10.4619,-1834.04 L -10.8254,-1834.18 L -11.168,-1834.37 L -11.4842,-1834.6
 L -11.7692,-1834.87 L -12.0184,-1835.17 L -12.2279,-1835.5 L -12.3943,-1835.85 L -12.5151,-1836.23 L -12.5884,-1836.61
 L -12.6129,-1837 L -12.6129,-1991 L -12.5884,-1991.39 L -12.5151,-1991.77 L -12.3943,-1992.15 L -12.2279,-1992.5
 L -12.0184,-1992.83 L -11.7692,-1993.13 L -11.4842,-1993.4 L -11.168,-1993.63 L -10.8254,-1993.82 L -10.4619,-1993.96
 L -10.0833,-1994.06 L -9.69545,-1994.11 L 9.69545,-1994.11 L 10.0833,-1994.06 L 10.4619,-1993.96 L 10.8254,-1993.82
 L 11.168,-1993.63 L 11.4842,-1993.4 L 11.7692,-1993.13 L 12.0184,-1992.83 L 12.2279,-1992.5 L 12.3943,-1992.15
 L 12.5151,-1991.77 L 12.5884,-1991.39 L 12.6129,-1991 L 12.6129,-1837 L 12.5884,-1836.61 L 12.5151,-1836.23
 L 12.3943,-1835.85 L 12.2279,-1835.5 L 12.0184,-1835.17 L 11.7692,-1834.87 L 11.4842,-1834.6 L 11.168,-1834.37
 L 10.8254,-1834.18 L 10.4619,-1834.04 L 10.0833,-1833.94 L 9.69545,-1833.89 z
M 10.9369,-1657.59 L 11.5451,-1657.74 L 12.1289,-1657.98 L 12.6791,-1658.28 L 13.1871,-1658.65 L 13.6448,-1659.08
 L 14.0451,-1659.56 L 14.3815,-1660.09 L 14.6489,-1660.66 L 14.8429,-1661.26 L 14.9606,-1661.87 L 15,-1662.5
 L 15,-1817.5 L 14.9606,-1818.13 L 14.8429,-1818.74 L 14.6489,-1819.34 L 14.3815,-1819.91 L 14.0451,-1820.44
 L 13.6448,-1820.92 L 13.1871,-1821.35 L 12.6791,-1821.72 L 12.1289,-1822.02 L 11.5451,-1822.26 L 10.9369,-1822.41
 L 10.3139,-1822.49 L -10.3139,-1822.49 L -10.9369,-1822.41 L -11.5451,-1822.26 L -12.1289,-1822.02 L -12.6791,-1821.72
 L -13.1871,-1821.35 L -13.6448,-1820.92 L -14.0451,-1820.44 L -14.3815,-1819.91 L -14.6489,-1819.34 L -14.8429,-1818.74
 L -14.9606,-1818.13 L -15,-1817.5 L -15,-1662.5 L -14.9606,-1661.87 L -14.8429,-1661.26 L -14.6489,-1660.66
 L -14.3815,-1660.09 L -14.0451,-1659.56 L -13.6448,-1659.08 L -13.1871,-1658.65 L -12.6791,-1658.28 L -12.1289,-1657.98
 L -11.5451,-1657.74 L -10.9369,-1657.59 L -10.3139,-1657.51 L 10.3139,-1657.51 z
M -7.63406,-1812.87 L -7.9001,-1812.9 L -8.15984,-1812.97 L -8.40915,-1813.07 L -8.64413,-1813.2 L -8.86108,-1813.35
 L -9.05655,-1813.54 L -9.22748,-1813.74 L -9.37117,-1813.97 L -9.48534,-1814.21 L -9.56821,-1814.47 L -9.61845,-1814.73
 L -9.63528,-1815 L -9.61845,-1815.27 L -9.56821,-1815.53 L -9.48534,-1815.79 L -9.37117,-1816.03 L -9.22748,-1816.26
 L -9.05655,-1816.46 L -8.86108,-1816.65 L -8.64413,-1816.8 L -8.40915,-1816.93 L -8.15984,-1817.03 L -7.9001,-1817.1
 L -7.63406,-1817.13 L -7.36592,-1817.13 L -7.09988,-1817.1 L -6.84015,-1817.03 L -6.59084,-1816.93 L -6.35585,-1816.8
 L -6.1389,-1816.65 L -5.94344,-1816.46 L -5.77251,-1816.26 L -5.62881,-1816.03 L -5.51465,-1815.79 L -5.43178,-1815.53
 L -5.38153,-1815.27 L -5.3647,-1815 L -5.38153,-1814.73 L -5.43178,-1814.47 L -5.51465,-1814.21 L -5.62881,-1813.97
 L -5.77251,-1813.74 L -5.94344,-1813.54 L -6.1389,-1813.35 L -6.35585,-1813.2 L -6.59084,-1813.07 L -6.84015,-1812.97
 L -7.09988,-1812.9 L -7.36592,-1812.87 z
M 7.36592,-1812.87 L 7.09988,-1812.9 L 6.84015,-1812.97 L 6.59084,-1813.07 L 6.35585,-1813.2 L 6.1389,-1813.35
 L 5.94344,-1813.54 L 5.77251,-1813.74 L 5.62881,-1813.97 L 5.51465,-1814.21 L 5.43178,-1814.47 L 5.38153,-1814.73
 L 5.3647,-1815 L 5.38153,-1815.27 L 5.43178,-1815.53 L 5.51465,-1815.79 L 5.62881,-1816.03 L 5.77251,-1816.26
 L 5.94344,-1816.46 L 6.1389,-1816.65 L 6.35585,-1816.8 L 6.59084,-1816.93 L 6.84015,-1817.03 L 7.09988,-1817.1
 L 7.36592,-1817.13 L 7.63406,-1817.13 L 7.9001,-1817.1 L 8.15984,-1817.03 L 8.40915,-1816.93 L 8.64413,-1816.8
 L 8.86108,-1816.65 L 9.05655,-1816.46 L 9.22748,-1816.26 L 9.37117,-1816.03 L 9.48534,-1815.79 L 9.56821,-1815.53
 L 9.61845,-1815.27 L 9.63528,-1815 L 9.61845,-1814.73 L 9.56821,-1814.47 L 9.48534,-1814.21 L 9.37117,-1813.97
 L 9.22748,-1813.74 L 9.05655,-1813.54 L 8.86108,-1813.35 L 8.64413,-1813.2 L 8.40915,-1813.07 L 8.15984,-1812.97
 L 7.9001,-1812.9 L 7.63406,-1812.87 z
M -7.63406,-1662.87 L -7.9001,-1662.9 L -8.15984,-1662.97 L -8.40915,-1663.07 L -8.64413,-1663.2 L -8.86108,-1663.35
 L -9.05655,-1663.54 L -9.22748,-1663.74 L -9.37117,-1663.97 L -9.48534,-1664.21 L -9.56821,-1664.47 L -9.61845,-1664.73
 L -9.63528,-1665 L -9.61845,-1665.27 L -9.56821,-1665.53 L -9.48534,-1665.79 L -9.37117,-1666.03 L -9.22748,-1666.26
 L -9.05655,-1666.46 L -8.86108,-1666.65 L -8.64413,-1666.8 L -8.40915,-1666.93 L -8.15984,-1667.03 L -7.9001,-1667.1
 L -7.63406,-1667.13 L -7.36592,-1667.13 L -7.09988,-1667.1 L -6.84015,-1667.03 L -6.59084,-1666.93 L -6.35585,-1666.8
 L -6.1389,-1666.65 L -5.94344,-1666.46 L -5.77251,-1666.26 L -5.62881,-1666.03 L -5.51465,-1665.79 L -5.43178,-1665.53
 L -5.38153,-1665.27 L -5.3647,-1665 L -5.38153,-1664.73 L -5.43178,-1664.47 L -5.51465,-1664.21 L -5.62881,-1663.97
 L -5.77251,-1663.74 L -5.94344,-1663.54 L -6.1389,-1663.35 L -6.35585,-1663.2 L -6.59084,-1663.07 L -6.84015,-1662.97
 L -7.09988,-1662.9 L -7.36592,-1662.87 z
M 7.36592,-1662.87 L 7.09988,-1662.9 L 6.84015,-1662.97 L 6.59084,-1663.07 L 6.35585,-1663.2 L 6.1389,-1663.35
 L 5.94344,-1663.54 L 5.77251,-1663.74 L 5.62881,-1663.97 L 5.51465,-1664.21 L 5.43178,-1664.47 L 5.38153,-1664.73
 L 5.3647,-1665 L 5.38153,-1665.27 L 5.43178,-1665.53 L 5.51465,-1665.79 L 5.62881,-1666.03 L 5.77251,-1666.26
 L 5.94344,-1666.46 L 6.1389,-1666.65 L 6.35585,-1666.8 L 6.59084,-1666.93 L 6.84015,-1667.03 L 7.09988,-1667.1
 L 7.36592,-1667.13 L 7.63406,-1667.13 L 7.9001,-1667.1 L 8.15984,-1667.03 L 8.40915,-1666.93 L 8.64413,-1666.8
 L 8.86108,-1666.65 L 9.05655,-1666.46 L 9.22748,-1666.26 L 9.37117,-1666.03 L 9.48534,-1665.79 L 9.56821,-1665.53
 L 9.61845,-1665.27 L 9.63528,-1665 L 9.61845,-1664.73 L 9.56821,-1664.47 L 9.48534,-1664.21 L 9.37117,-1663.97
 L 9.22748,-1663.74 L 9.05655,-1663.54 L 8.86108,-1663.35 L 8.64413,-1663.2 L 8.40915,-1663.07 L 8.15984,-1662.97
 L 7.9001,-1662.9 L 7.63406,-1662.87 z
" stroke="black" fill="lightgray" stroke-width="0.5"/>
</svg>
