<?xml version="1.0" standalone="no"?>
<!DOCTYPE svg PUBLIC "-//W3C//DTD SVG 1.1//EN" "http://www.w3.org/Graphics/SVG/1.1/DTD/svg11.dtd">
<svg width="120mm" height="244mm" viewBox="-60 -458 120 244" xmlns="http://www.w3.org/2000/svg" version="1.1">
<title>OpenSCAD Model</title>
<path d="
M 55.9369,-382.589 L 56.5451,-382.745 L 57.1289,-382.976 L 57.6791,-383.278 L 58.1871,-383.647 L 58.6448,-384.077
 L 59.0451,-384.561 L 59.3815,-385.091 L 59.6489,-385.659 L 59.8429,-386.257 L 59.9606,-386.873 L 60,-387.5
 L 60,-452.5 L 59.9606,-453.127 L 59.8429,-453.743 L 59.6489,-454.341 L 59.3815,-454.909 L 59.0451,-455.439
 L 58.6448,-455.923 L 58.1871,-456.353 L 57.6791,-456.722 L 57.1289,-457.024 L 56.5451,-457.255 L 55.9369,-457.411
 L 55.3139,-457.49 L -55.3139,-457.49 L -55.9369,-457.411 L -56.5451,-457.255 L -57.1289,-457.024 L -57.6791,-456.722
 L -58.1871,-456.353 L -58.6448,-455.923 L -59.0451,-455.439 L -59.3815,-454.909 L -59.6489,-454.341 L -59.8429,-453.743
 L -59.9606,-453.127 L -60,-452.5 L -60,-387.5 L -59.9606,-386.873 L -59.8429,-386.257 L -59.6489,-385.659
 L -59.3815,-385.091 L -59.0451,-384.561 L -58.6448,-384.077 L -58.1871,-383.647 L -57.6791,-383.278 L -57.1289,-382.976
 L -56.5451,-382.745 L -55.9369,-382.589 L -55.3139,-382.51 L 55.3139,-382.51 z
M -55.0482,-383.009 L -55.6401,-383.084 L -56.2178,-383.232 L -56.7724,-383.452 L -57.2952,-383.739 L -57.7778,-384.09
 L -58.2126,-384.498 L -58.5928,-384.958 L -58.9124,-385.462 L -59.1664,-386.001 L -59.3508,-386.569 L -59.4625,-387.155
 L -59.5,-387.75 L -59.5,-452.25 L -59.4625,-452.845 L -59.3508,-453.431 L -59.1664,-453.999 L -58.9124,-454.538
 L -58.5928,-455.042 L -58.2126,-455.502 L -57.7778,-455.91 L -57.2952,-456.261 L -56.7724,-456.548 L -56.2178,-456.768
 L -55.6401,-456.916 L -55.0482,-456.991 L 55.0482,-456.991 L 55.6401,-456.916 L 56.2178,-456.768 L 56.7724,-456.548
 L 57.2952,-456.261 L 57.7778,-455.91 L 58.2126,-455.502 L 58.5928,-455.042 L 58.9124,-454.538 L 59.1664,-453.999
 L 59.3508,-453.431 L 59.4625,-452.845 L 59.5,-452.25 L 59.5,-387.75 L 59.4625,-387.155 L 59.3508,-386.569
 L 59.1664,-386.001 L 58.9124,-385.462 L 58.5928,-384.958 L 58.2126,-384.498 L 57.7778,-384.09 L 57.2952,-383.739
 L 56.7724,-383.452 L 56.2178,-383.232 L 55.6401,-383.084 L 55.0482,-383.009 z
M 55.9369,-298.589 L 56.5451,-298.745 L 57.1289,-298.976 L 57.6791,-299.278 L 58.1871,-299.647 L 58.6448,-300.077
 L 59.0451,-300.561 L 59.3815,-301.091 L 59.6489,-301.659 L 59.8429,-302.257 L 59.9606,-302.873 L 60,-303.5
 L 60,-368.5 L 59.9606,-369.127 L 59.8429,-369.743 L 59.6489,-370.341 L 59.3815,-370.909 L 59.0451,-371.439
 L 58.6448,-371.923 L 58.1871,-372.353 L 57.6791,-372.722 L 57.1289,-373.024 L 56.5451,-373.255 L 55.9369,-373.411
 L 55.3139,-373.49 L -55.3139,-373.49 L -55.9369,-373.411 L -56.5451,-373.255 L -57.1289,-373.024 L -57.6791,-372.722
 L -58.1871,-372.353 L -58.6448,-371.923 L -59.0451,-371.439 L -59.3815,-370.909 L -59.6489,-370.341 L -59.8429,-369.743
 L -59.9606,-369.127 L -60,-368.5 L -60,-303.5 L -59.9606,-302.873 L -59.8429,-302.257 L -59.6489,-301.659
 L -59.3815,-301.091 L -59.0451,-300.561 L -58.6448,-300.077 L -58.1871,-299.647 L -57.6791,-299.278 L -57.1289,-298.976
 L -56.5451,-298.745 L -55.9369,-298.589 L -55.3139,-298.51 L 55.3139,-298.51 z
M -55.0375,-299.181 L -55.6079,-299.253 L -56.1648,-299.396 L -56.6994,-299.607 L -57.2032,-299.884 L -57.6684,-300.222
 L -58.0875,-300.616 L -58.454,-301.059 L -58.7621,-301.544 L -59.0069,-302.065 L -59.1846,-302.611 L -59.2923,-303.176
 L -59.3284,-303.75 L -59.3284,-368.25 L -59.2923,-368.824 L -59.1846,-369.389 L -59.0069,-369.935 L -58.7621,-370.456
 L -58.454,-370.941 L -58.0875,-371.384 L -57.6684,-371.778 L -57.2032,-372.116 L -56.6994,-372.393 L -56.1648,-372.604
 L -55.6079,-372.747 L -55.0375,-372.819 L 55.0375,-372.819 L 55.6079,-372.747 L 56.1648,-372.604 L 56.6994,-372.393
 L 57.2032,-372.116 L 57.6684,-371.778 L 58.0875,-371.384 L 58.454,-370.941 L 58.7621,-370.456 L 59.0069,-369.935
 L 59.1846,-369.389 L 59.2923,-368.824 L 59.3284,-368.25 L 59.3284,-303.75 L 59.2923,-303.176 L 59.1846,-302.611
 L 59.0069,-302.065 L 58.7621,-301.544 L 58.454,-301.059 L 58.0875,-300.616 L 57.6684,-300.222 L 57.2032,-299.884
 L 56.6994,-299.607 L 56.1648,-299.396 L 55.6079,-299.253 L 55.0375,-299.181 z
M 55.9369,-214.589 L 56.5451,-214.745 L 57.1289,-214.976 L 57.6791,-215.278 L 58.1871,-215.647 L 58.6448,-216.077
 L 59.0451,-216.561 L 59.3815,-217.091 L 59.6489,-217.659 L 59.8429,-218.257 L 59.9606,-218.873 L 60,-219.5
 L 60,-284.5 L 59.9606,-285.127 L 59.8429,-285.743 L 59.6489,-286.341 L 59.3815,-286.909 L 59.0451,-287.439
 L 58.6448,-287.923 L 58.1871,-288.353 L 57.6791,-288.722 L 57.1289,-289.024 L 56.5451,-289.255 L 55.9369,-289.411
 L 55.3139,-289.49 L -55.3139,-289.49 L -55.9369,-289.411 L -56.5451,-289.255 L -57.1289,-289.024 L -57.6791,-288.722
 L -58.1871,-288.353 L -58.6448,-287.923 L -59.0451,-287.439 L -59.3815,-286.909 L -59.6489,-286.341 L -59.8429,-285.743
 L -59.9606,-285.127 L -60,-284.5 L -60,-219.5 L -59.9606,-218.873 L -59.8429,-218.257 L -59.6489,-217.659
 L -59.3815,-217.091 L -59.0451,-216.561 L -58.6448,-216.077 L -58.1871,-215.647 L -57.6791,-215.278 L -57.1289,-214.976
 L -56.5451,-214.745 L -55.9369,-214.589 L -55.3139,-214.51 L 55.3139,-214.51 z
M -54.8825,-217.645 L -55.1453,-217.678 L -55.4019,-217.744 L -55.6482,-217.841 L -55.8804,-217.969 L -56.0947,-218.125
 L -56.2879,-218.306 L -56.4567,-218.51 L -56.5987,-218.734 L -56.7115,-218.973 L -56.7934,-219.225 L -56.843,-219.486
 L -56.8596,-219.75 L -56.8596,-284.25 L -56.843,-284.514 L -56.7934,-284.775 L -56.7115,-285.027 L -56.5987,-285.266
 L -56.4567,-285.49 L -56.2879,-285.694 L -56.0947,-285.875 L -55.8804,-286.031 L -55.6482,-286.159 L -55.4019,-286.256
 L -55.1453,-286.322 L -54.8825,-286.355 L 54.8825,-286.355 L 55.1453,-286.322 L 55.4019,-286.256 L 55.6482,-286.159
 L 55.8804,-286.031 L 56.0947,-285.875 L 56.2879,-285.694 L 56.4567,-285.49 L 56.5987,-285.266 L 56.7115,-285.027
 L 56.7934,-284.775 L 56.843,-284.514 L 56.8596,-284.25 L 56.8596,-219.75 L 56.843,-219.486 L 56.7934,-219.225
 L 56.7115,-218.973 L 56.5987,-218.734 L 56.4567,-218.51 L 56.2879,-218.306 L 56.0947,-218.125 L 55.8804,-217.969
 L 55.6482,-217.841 L 55.4019,-217.744 L 55.1453,-217.678 L 54.8825,-217.645 z
" stroke="black" fill="lightgray" stroke-width="0.5"/>
</svg>
