<?xml version="1.0" standalone="no"?>
<!DOCTYPE svg PUBLIC "-//W3C//DTD SVG 1.1//EN" "http://www.w3.org/Graphics/SVG/1.1/DTD/svg11.dtd">
<svg width="194mm" height="197mm" viewBox="-97 -7 194 197" xmlns="http://www.w3.org/2000/svg" version="1.1">
<title>OpenSCAD Model</title>
<path d="
M 72.1201,156.928 L -20.5693,156.928 L -19.2477,154.18 L -17.7121,151.444 L -15.9624,148.72 L -13.9987,146.007
 L -11.821,143.306 L -9.42918,140.616 L -6.82338,137.938 L -3.74263,135.022 L 0.0727539,131.62 L 4.62282,127.733
 L 9.90753,123.359 L 15.9269,118.5 L 22.6809,113.155 L 30.1696,107.324 L 35.5189,103.001 L 40.472,98.6985
 L 45.0289,94.4163 L 49.1895,90.1545 L 52.9538,85.913 L 56.3219,81.6918 L 59.2938,77.4909 L 61.8694,73.2837
 L 64.0487,69.0446 L 65.8318,64.7737 L 67.2187,60.471 L 68.2093,56.1365 L 68.8037,51.7701 L 69.0018,47.3719
 L 68.6345,40.8051 L 67.5325,34.6287 L 65.6959,28.8428 L 63.1246,23.4473 L 59.8186,18.4423 L 55.778,13.8277
 L 51.0027,9.60355 L 47.227,6.99013 L 92.3139,6.99013 L 92.9369,6.91142 L 93.5451,6.75528 L 94.1289,6.52412
 L 94.6791,6.22163 L 95.1871,5.85255 L 95.6448,5.42273 L 96.0451,4.93892 L 96.3815,4.40877 L 96.6489,3.84062
 L 96.8429,3.24344 L 96.9606,2.62666 L 97,2 L 97,-2 L 96.9606,-2.62666 L 96.8429,-3.24344
 L 96.6489,-3.84062 L 96.3815,-4.40877 L 96.0451,-4.93892 L 95.6448,-5.42273 L 95.1871,-5.85255 L 94.6791,-6.22163
 L 94.1289,-6.52412 L 93.5451,-6.75528 L 92.9369,-6.91142 L 92.3139,-6.99013 L -92.3139,-6.99013 L -92.9369,-6.91142
 L -93.5451,-6.75528 L -94.1289,-6.52412 L -94.6791,-6.22163 L -95.1871,-5.85255 L -95.6448,-5.42273 L -96.0451,-4.93892
 L -96.3815,-4.40877 L -96.6489,-3.84062 L -96.8429,-3.24344 L -96.9606,-2.62666 L -97,-2 L -97,2
 L -96.9606,2.62666 L -96.8429,3.24344 L -96.6489,3.84062 L -96.3815,4.40877 L -96.0451,4.93892 L -95.6448,5.42273
 L -95.1871,5.85255 L -94.6791,6.22163 L -94.1289,6.52412 L -93.5451,6.75528 L -92.9369,6.91142 L -92.3139,6.99013
 L -40.9733,6.99013 L -45.1602,10.0989 L -49.8358,14.5383 L -53.9415,19.5158 L -57.4773,25.0313 L -60.4433,31.0849
 L -62.8395,37.6764 L -64.6658,44.806 L -65.9223,52.4736 L -25.8131,54.7413 L -25.1495,50.9541 L -24.2921,47.4474
 L -23.2409,44.2212 L -21.9958,41.2755 L -20.557,38.6103 L -18.9243,36.2256 L -17.0978,34.1213 L -15.0515,32.2976
 L -12.7593,30.7545 L -10.2213,29.4919 L -7.43741,28.5099 L -4.40768,27.8085 L -1.1321,27.3876 L 2.38933,27.2473
 L 5.94702,27.3659 L 9.25015,27.7216 L 12.2987,28.3145 L 15.0928,29.1445 L 17.6322,30.2117 L 19.9172,31.516
 L 21.9475,33.0575 L 23.7153,34.8073 L 25.211,36.7364 L 26.4348,38.845 L 27.3867,41.1329 L 28.0666,43.6003
 L 28.4745,46.247 L 28.6105,49.0732 L 28.5425,50.7695 L 28.3385,52.4573 L 27.9986,54.1364 L 27.5226,55.8069
 L 26.9107,57.4688 L 26.1629,59.1221 L 25.279,60.7667 L 24.2766,62.4137 L 23.173,64.0753 L 21.9682,65.7513
 L 20.6622,67.4418 L 19.2551,69.1468 L 17.7468,70.8663 L 16.1373,72.6003 L 14.1967,74.5441 L 11.6949,76.8928
 L 8.63203,79.6464 L 5.00797,82.805 L 0.822769,86.3685 L -3.92357,90.337 L -9.23106,94.7104 L -16.1542,100.445
 L -22.5885,105.985 L -28.534,111.332 L -33.9906,116.484 L -38.9585,121.443 L -43.4376,126.208 L -47.4279,130.78
 L -51.0503,135.253 L -54.4269,139.723 L -57.5578,144.19 L -60.4429,148.655 L -63.0822,153.116 L -65.4758,157.575
 L -67.6236,162.031 L -67.6236,189.667 L 72.1201,189.667 z
M -15.1884,2.99408 L -15.5621,2.94685 L -15.927,2.85316 L -16.2773,2.71448 L -16.6075,2.53297 L -16.9123,2.31154
 L -17.1869,2.05363 L -17.427,1.76335 L -17.6289,1.44525 L -17.7893,1.10437 L -17.9057,0.746063 L -17.9763,0.375992
 L -18,-0 L -17.9763,-0.375992 L -17.9057,-0.746063 L -17.7893,-1.10437 L -17.6289,-1.44525 L -17.427,-1.76335
 L -17.1869,-2.05363 L -16.9123,-2.31154 L -16.6075,-2.53297 L -16.2773,-2.71448 L -15.927,-2.85316 L -15.5621,-2.94685
 L -15.1884,-2.99408 L -14.8116,-2.99408 L -14.4379,-2.94685 L -14.0729,-2.85316 L -13.7227,-2.71448 L -13.3925,-2.53297
 L -13.0877,-2.31154 L -12.8131,-2.05363 L -12.5729,-1.76335 L -12.3711,-1.44525 L -12.2107,-1.10437 L -12.0942,-0.746063
 L -12.0237,-0.375992 L -12,-0 L -12.0237,0.375992 L -12.0942,0.746063 L -12.2107,1.10437 L -12.3711,1.44525
 L -12.5729,1.76335 L -12.8131,2.05363 L -13.0877,2.31154 L -13.3925,2.53297 L -13.7227,2.71448 L -14.0729,2.85316
 L -14.4379,2.94685 L -14.8116,2.99408 z
M -45.1884,2.99408 L -45.5621,2.94685 L -45.927,2.85316 L -46.2773,2.71448 L -46.6075,2.53297 L -46.9123,2.31154
 L -47.1869,2.05363 L -47.427,1.76335 L -47.6289,1.44525 L -47.7893,1.10437 L -47.9057,0.746063 L -47.9763,0.375992
 L -48,-0 L -47.9763,-0.375992 L -47.9057,-0.746063 L -47.7893,-1.10437 L -47.6289,-1.44525 L -47.427,-1.76335
 L -47.1869,-2.05363 L -46.9123,-2.31154 L -46.6075,-2.53297 L -46.2773,-2.71448 L -45.927,-2.85316 L -45.5621,-2.94685
 L -45.1884,-2.99408 L -44.8116,-2.99408 L -44.4379,-2.94685 L -44.0729,-2.85316 L -43.7227,-2.71448 L -43.3925,-2.53297
 L -43.0877,-2.31154 L -42.8131,-2.05363 L -42.5729,-1.76335 L -42.3711,-1.44525 L -42.2107,-1.10437 L -42.0942,-0.746063
 L -42.0237,-0.375992 L -42,-0 L -42.0237,0.375992 L -42.0942,0.746063 L -42.2107,1.10437 L -42.3711,1.44525
 L -42.5729,1.76335 L -42.8131,2.05363 L -43.0877,2.31154 L -43.3925,2.53297 L -43.7227,2.71448 L -44.0729,2.85316
 L -44.4379,2.94685 L -44.8116,2.99408 z
M 29.8116,2.99408 L 29.4379,2.94685 L 29.0729,2.85316 L 28.7227,2.71448 L 28.3925,2.53297 L 28.0877,2.31154
 L 27.8131,2.05363 L 27.5729,1.76335 L 27.3711,1.44525 L 27.2107,1.10437 L 27.0942,0.746063 L 27.0237,0.375992
 L 27,-0 L 27.0237,-0.375992 L 27.0942,-0.746063 L 27.2107,-1.10437 L 27.3711,-1.44525 L 27.5729,-1.76335
 L 27.8131,-2.05363 L 28.0877,-2.31154 L 28.3925,-2.53297 L 28.7227,-2.71448 L 29.0729,-2.85316 L 29.4379,-2.94685
 L 29.8116,-2.99408 L 30.1884,-2.99408 L 30.5621,-2.94685 L 30.927,-2.85316 L 31.2773,-2.71448 L 31.6075,-2.53297
 L 31.9123,-2.31154 L 32.1869,-2.05363 L 32.427,-1.76335 L 32.6289,-1.44525 L 32.7893,-1.10437 L 32.9057,-0.746063
 L 32.9763,-0.375992 L 33,-0 L 32.9763,0.375992 L 32.9057,0.746063 L 32.7893,1.10437 L 32.6289,1.44525
 L 32.427,1.76335 L 32.1869,2.05363 L 31.9123,2.31154 L 31.6075,2.53297 L 31.2773,2.71448 L 30.927,2.85316
 L 30.5621,2.94685 L 30.1884,2.99408 z
M -30.1884,2.99408 L -30.5621,2.94685 L -30.927,2.85316 L -31.2773,2.71448 L -31.6075,2.53297 L -31.9123,2.31154
 L -32.1869,2.05363 L -32.427,1.76335 L -32.6289,1.44525 L -32.7893,1.10437 L -32.9057,0.746063 L -32.9763,0.375992
 L -33,-0 L -32.9763,-0.375992 L -32.9057,-0.746063 L -32.7893,-1.10437 L -32.6289,-1.44525 L -32.427,-1.76335
 L -32.1869,-2.05363 L -31.9123,-2.31154 L -31.6075,-2.53297 L -31.2773,-2.71448 L -30.927,-2.85316 L -30.5621,-2.94685
 L -30.1884,-2.99408 L -29.8116,-2.99408 L -29.4379,-2.94685 L -29.0729,-2.85316 L -28.7227,-2.71448 L -28.3925,-2.53297
 L -28.0877,-2.31154 L -27.8131,-2.05363 L -27.5729,-1.76335 L -27.3711,-1.44525 L -27.2107,-1.10437 L -27.0942,-0.746063
 L -27.0237,-0.375992 L -27,-0 L -27.0237,0.375992 L -27.0942,0.746063 L -27.2107,1.10437 L -27.3711,1.44525
 L -27.5729,1.76335 L -27.8131,2.05363 L -28.0877,2.31154 L -28.3925,2.53297 L -28.7227,2.71448 L -29.0729,2.85316
 L -29.4379,2.94685 L -29.8116,2.99408 z
M 14.8116,2.99408 L 14.4379,2.94685 L 14.0729,2.85316 L 13.7227,2.71448 L 13.3925,2.53297 L 13.0877,2.31154
 L 12.8131,2.05363 L 12.5729,1.76335 L 12.3711,1.44525 L 12.2107,1.10437 L 12.0942,0.746063 L 12.0237,0.375992
 L 12,-0 L 12.0237,-0.375992 L 12.0942,-0.746063 L 12.2107,-1.10437 L 12.3711,-1.44525 L 12.5729,-1.76335
 L 12.8131,-2.05363 L 13.0877,-2.31154 L 13.3925,-2.53297 L 13.7227,-2.71448 L 14.0729,-2.85316 L 14.4379,-2.94685
 L 14.8116,-2.99408 L 15.1884,-2.99408 L 15.5621,-2.94685 L 15.927,-2.85316 L 16.2773,-2.71448 L 16.6075,-2.53297
 L 16.9123,-2.31154 L 17.1869,-2.05363 L 17.427,-1.76335 L 17.6289,-1.44525 L 17.7893,-1.10437 L 17.9057,-0.746063
 L 17.9763,-0.375992 L 18,-0 L 17.9763,0.375992 L 17.9057,0.746063 L 17.7893,1.10437 L 17.6289,1.44525
 L 17.427,1.76335 L 17.1869,2.05363 L 16.9123,2.31154 L 16.6075,2.53297 L 16.2773,2.71448 L 15.927,2.85316
 L 15.5621,2.94685 L 15.1884,2.99408 z
M -0.18837,2.99408 L -0.562134,2.94685 L -0.927048,2.85316 L -1.27733,2.71448 L -1.60747,2.53297 L -1.91226,2.31154
 L -2.1869,2.05363 L -2.42705,1.76335 L -2.62891,1.44525 L -2.78932,1.10437 L -2.90575,0.746063 L -2.97633,0.375992
 L -3,-0 L -2.97633,-0.375992 L -2.90575,-0.746063 L -2.78932,-1.10437 L -2.62891,-1.44525 L -2.42705,-1.76335
 L -2.1869,-2.05363 L -1.91226,-2.31154 L -1.60747,-2.53297 L -1.27733,-2.71448 L -0.927048,-2.85316 L -0.562134,-2.94685
 L -0.18837,-2.99408 L 0.18837,-2.99408 L 0.562134,-2.94685 L 0.927048,-2.85316 L 1.27733,-2.71448 L 1.60747,-2.53297
 L 1.91226,-2.31154 L 2.1869,-2.05363 L 2.42705,-1.76335 L 2.62891,-1.44525 L 2.78932,-1.10437 L 2.90575,-0.746063
 L 2.97633,-0.375992 L 3,-0 L 2.97633,0.375992 L 2.90575,0.746063 L 2.78932,1.10437 L 2.62891,1.44525
 L 2.42705,1.76335 L 2.1869,2.05363 L 1.91226,2.31154 L 1.60747,2.53297 L 1.27733,2.71448 L 0.927048,2.85316
 L 0.562134,2.94685 L 0.18837,2.99408 z
M 89.8116,2.99408 L 89.4379,2.94685 L 89.073,2.85316 L 88.7227,2.71448 L 88.3925,2.53297 L 88.0877,2.31154
 L 87.8131,2.05363 L 87.573,1.76335 L 87.3711,1.44525 L 87.2107,1.10437 L 87.0943,0.746063 L 87.0237,0.375992
 L 87,-0 L 87.0237,-0.375992 L 87.0943,-0.746063 L 87.2107,-1.10437 L 87.3711,-1.44525 L 87.573,-1.76335
 L 87.8131,-2.05363 L 88.0877,-2.31154 L 88.3925,-2.53297 L 88.7227,-2.71448 L 89.073,-2.85316 L 89.4379,-2.94685
 L 89.8116,-2.99408 L 90.1884,-2.99408 L 90.5621,-2.94685 L 90.927,-2.85316 L 91.2773,-2.71448 L 91.6075,-2.53297
 L 91.9123,-2.31154 L 92.1869,-2.05363 L 92.427,-1.76335 L 92.6289,-1.44525 L 92.7893,-1.10437 L 92.9057,-0.746063
 L 92.9763,-0.375992 L 93,-0 L 92.9763,0.375992 L 92.9057,0.746063 L 92.7893,1.10437 L 92.6289,1.44525
 L 92.427,1.76335 L 92.1869,2.05363 L 91.9123,2.31154 L 91.6075,2.53297 L 91.2773,2.71448 L 90.927,2.85316
 L 90.5621,2.94685 L 90.1884,2.99408 z
M 59.8116,2.99408 L 59.4379,2.94685 L 59.0729,2.85316 L 58.7227,2.71448 L 58.3925,2.53297 L 58.0877,2.31154
 L 57.8131,2.05363 L 57.5729,1.76335 L 57.3711,1.44525 L 57.2107,1.10437 L 57.0942,0.746063 L 57.0237,0.375992
 L 57,-0 L 57.0237,-0.375992 L 57.0942,-0.746063 L 57.2107,-1.10437 L 57.3711,-1.44525 L 57.5729,-1.76335
 L 57.8131,-2.05363 L 58.0877,-2.31154 L 58.3925,-2.53297 L 58.7227,-2.71448 L 59.0729,-2.85316 L 59.4379,-2.94685
 L 59.8116,-2.99408 L 60.1884,-2.99408 L 60.5621,-2.94685 L 60.927,-2.85316 L 61.2773,-2.71448 L 61.6075,-2.53297
 L 61.9123,-2.31154 L 62.1869,-2.05363 L 62.427,-1.76335 L 62.6289,-1.44525 L 62.7893,-1.10437 L 62.9057,-0.746063
 L 62.9763,-0.375992 L 63,-0 L 62.9763,0.375992 L 62.9057,0.746063 L 62.7893,1.10437 L 62.6289,1.44525
 L 62.427,1.76335 L 62.1869,2.05363 L 61.9123,2.31154 L 61.6075,2.53297 L 61.2773,2.71448 L 60.927,2.85316
 L 60.5621,2.94685 L 60.1884,2.99408 z
M 74.8116,2.99408 L 74.4379,2.94685 L 74.073,2.85316 L 73.7227,2.71448 L 73.3925,2.53297 L 73.0877,2.31154
 L 72.8131,2.05363 L 72.573,1.76335 L 72.3711,1.44525 L 72.2107,1.10437 L 72.0943,0.746063 L 72.0237,0.375992
 L 72,-0 L 72.0237,-0.375992 L 72.0943,-0.746063 L 72.2107,-1.10437 L 72.3711,-1.44525 L 72.573,-1.76335
 L 72.8131,-2.05363 L 73.0877,-2.31154 L 73.3925,-2.53297 L 73.7227,-2.71448 L 74.073,-2.85316 L 74.4379,-2.94685
 L 74.8116,-2.99408 L 75.1884,-2.99408 L 75.5621,-2.94685 L 75.927,-2.85316 L 76.2773,-2.71448 L 76.6075,-2.53297
 L 76.9123,-2.31154 L 77.1869,-2.05363 L 77.427,-1.76335 L 77.6289,-1.44525 L 77.7893,-1.10437 L 77.9057,-0.746063
 L 77.9763,-0.375992 L 78,-0 L 77.9763,0.375992 L 77.9057,0.746063 L 77.7893,1.10437 L 77.6289,1.44525
 L 77.427,1.76335 L 77.1869,2.05363 L 76.9123,2.31154 L 76.6075,2.53297 L 76.2773,2.71448 L 75.927,2.85316
 L 75.5621,2.94685 L 75.1884,2.99408 z
M -90.1884,2.99408 L -90.5621,2.94685 L -90.927,2.85316 L -91.2773,2.71448 L -91.6075,2.53297 L -91.9123,2.31154
 L -92.1869,2.05363 L -92.427,1.76335 L -92.6289,1.44525 L -92.7893,1.10437 L -92.9057,0.746063 L -92.9763,0.375992
 L -93,-0 L -92.9763,-0.375992 L -92.9057,-0.746063 L -92.7893,-1.10437 L -92.6289,-1.44525 L -92.427,-1.76335
 L -92.1869,-2.05363 L -91.9123,-2.31154 L -91.6075,-2.53297 L -91.2773,-2.71448 L -90.927,-2.85316 L -90.5621,-2.94685
 L -90.1884,-2.99408 L -89.8116,-2.99408 L -89.4379,-2.94685 L -89.073,-2.85316 L -88.7227,-2.71448 L -88.3925,-2.53297
 L -88.0877,-2.31154 L -87.8131,-2.05363 L -87.573,-1.76335 L -87.3711,-1.44525 L -87.2107,-1.10437 L -87.0943,-0.746063
 L -87.0237,-0.375992 L -87,-0 L -87.0237,0.375992 L -87.0943,0.746063 L -87.2107,1.10437 L -87.3711,1.44525
 L -87.573,1.76335 L -87.8131,2.05363 L -88.0877,2.31154 L -88.3925,2.53297 L -88.7227,2.71448 L -89.073,2.85316
 L -89.4379,2.94685 L -89.8116,2.99408 z
M 44.8116,2.99408 L 44.4379,2.94685 L 44.0729,2.85316 L 43.7227,2.71448 L 43.3925,2.53297 L 43.0877,2.31154
 L 42.8131,2.05363 L 42.5729,1.76335 L 42.3711,1.44525 L 42.2107,1.10437 L 42.0942,0.746063 L 42.0237,0.375992
 L 42,-0 L 42.0237,-0.375992 L 42.0942,-0.746063 L 42.2107,-1.10437 L 42.3711,-1.44525 L 42.5729,-1.76335
 L 42.8131,-2.05363 L 43.0877,-2.31154 L 43.3925,-2.53297 L 43.7227,-2.71448 L 44.0729,-2.85316 L 44.4379,-2.94685
 L 44.8116,-2.99408 L 45.1884,-2.99408 L 45.5621,-2.94685 L 45.927,-2.85316 L 46.2773,-2.71448 L 46.6075,-2.53297
 L 46.9123,-2.31154 L 47.1869,-2.05363 L 47.427,-1.76335 L 47.6289,-1.44525 L 47.7893,-1.10437 L 47.9057,-0.746063
 L 47.9763,-0.375992 L 48,-0 L 47.9763,0.375992 L 47.9057,0.746063 L 47.7893,1.10437 L 47.6289,1.44525
 L 47.427,1.76335 L 47.1869,2.05363 L 46.9123,2.31154 L 46.6075,2.53297 L 46.2773,2.71448 L 45.927,2.85316
 L 45.5621,2.94685 L 45.1884,2.99408 z
M -75.1884,2.99408 L -75.5621,2.94685 L -75.927,2.85316 L -76.2773,2.71448 L -76.6075,2.53297 L -76.9123,2.31154
 L -77.1869,2.05363 L -77.427,1.76335 L -77.6289,1.44525 L -77.7893,1.10437 L -77.9057,0.746063 L -77.9763,0.375992
 L -78,-0 L -77.9763,-0.375992 L -77.9057,-0.746063 L -77.7893,-1.10437 L -77.6289,-1.44525 L -77.427,-1.76335
 L -77.1869,-2.05363 L -76.9123,-2.31154 L -76.6075,-2.53297 L -76.2773,-2.71448 L -75.927,-2.85316 L -75.5621,-2.94685
 L -75.1884,-2.99408 L -74.8116,-2.99408 L -74.4379,-2.94685 L -74.073,-2.85316 L -73.7227,-2.71448 L -73.3925,-2.53297
 L -73.0877,-2.31154 L -72.8131,-2.05363 L -72.573,-1.76335 L -72.3711,-1.44525 L -72.2107,-1.10437 L -72.0943,-0.746063
 L -72.0237,-0.375992 L -72,-0 L -72.0237,0.375992 L -72.0943,0.746063 L -72.2107,1.10437 L -72.3711,1.44525
 L -72.573,1.76335 L -72.8131,2.05363 L -73.0877,2.31154 L -73.3925,2.53297 L -73.7227,2.71448 L -74.073,2.85316
 L -74.4379,2.94685 L -74.8116,2.99408 z
M -60.1884,2.99408 L -60.5621,2.94685 L -60.927,2.85316 L -61.2773,2.71448 L -61.6075,2.53297 L -61.9123,2.31154
 L -62.1869,2.05363 L -62.427,1.76335 L -62.6289,1.44525 L -62.7893,1.10437 L -62.9057,0.746063 L -62.9763,0.375992
 L -63,-0 L -62.9763,-0.375992 L -62.9057,-0.746063 L -62.7893,-1.10437 L -62.6289,-1.44525 L -62.427,-1.76335
 L -62.1869,-2.05363 L -61.9123,-2.31154 L -61.6075,-2.53297 L -61.2773,-2.71448 L -60.927,-2.85316 L -60.5621,-2.94685
 L -60.1884,-2.99408 L -59.8116,-2.99408 L -59.4379,-2.94685 L -59.0729,-2.85316 L -58.7227,-2.71448 L -58.3925,-2.53297
 L -58.0877,-2.31154 L -57.8131,-2.05363 L -57.5729,-1.76335 L -57.3711,-1.44525 L -57.2107,-1.10437 L -57.0942,-0.746063
 L -57.0237,-0.375992 L -57,-0 L -57.0237,0.375992 L -57.0942,0.746063 L -57.2107,1.10437 L -57.3711,1.44525
 L -57.5729,1.76335 L -57.8131,2.05363 L -58.0877,2.31154 L -58.3925,2.53297 L -58.7227,2.71448 L -59.0729,2.85316
 L -59.4379,2.94685 L -59.8116,2.99408 z
M -67.5942,1.49704 L -67.7811,1.47342 L -67.9635,1.42657 L -68.1387,1.35724 L -68.3037,1.26648 L -68.4561,1.15576
 L -68.5934,1.02681 L -68.7135,0.881668 L -68.8145,0.722626 L -68.8947,0.552185 L -68.9529,0.373032 L -68.9882,0.187988
 L -69,-0 L -68.9882,-0.187988 L -68.9529,-0.373032 L -68.8947,-0.552185 L -68.8145,-0.722626 L -68.7135,-0.881668
 L -68.5934,-1.02681 L -68.4561,-1.15576 L -68.3037,-1.26648 L -68.1387,-1.35724 L -67.9635,-1.42657 L -67.7811,-1.47342
 L -67.5942,-1.49704 L -67.4058,-1.49704 L -67.2189,-1.47342 L -67.0365,-1.42657 L -66.8613,-1.35724 L -66.6963,-1.26648
 L -66.5439,-1.15576 L -66.4065,-1.02681 L -66.2865,-0.881668 L -66.1855,-0.722626 L -66.1053,-0.552185 L -66.0471,-0.373032
 L -66.0118,-0.187988 L -66,-0 L -66.0118,0.187988 L -66.0471,0.373032 L -66.1053,0.552185 L -66.1855,0.722626
 L -66.2865,0.881668 L -66.4065,1.02681 L -66.5439,1.15576 L -66.6963,1.26648 L -66.8613,1.35724 L -67.0365,1.42657
 L -67.2189,1.47342 L -67.4058,1.49704 z
M -52.5942,1.49704 L -52.7811,1.47342 L -52.9635,1.42657 L -53.1387,1.35724 L -53.3037,1.26648 L -53.4561,1.15576
 L -53.5934,1.02681 L -53.7135,0.881668 L -53.8145,0.722626 L -53.8947,0.552185 L -53.9529,0.373032 L -53.9882,0.187988
 L -54,-0 L -53.9882,-0.187988 L -53.9529,-0.373032 L -53.8947,-0.552185 L -53.8145,-0.722626 L -53.7135,-0.881668
 L -53.5934,-1.02681 L -53.4561,-1.15576 L -53.3037,-1.26648 L -53.1387,-1.35724 L -52.9635,-1.42657 L -52.7811,-1.47342
 L -52.5942,-1.49704 L -52.4058,-1.49704 L -52.2189,-1.47342 L -52.0365,-1.42657 L -51.8613,-1.35724 L -51.6963,-1.26648
 L -51.5439,-1.15576 L -51.4065,-1.02681 L -51.2865,-0.881668 L -51.1855,-0.722626 L -51.1053,-0.552185 L -51.0471,-0.373032
 L -51.0118,-0.187988 L -51,-0 L -51.0118,0.187988 L -51.0471,0.373032 L -51.1053,0.552185 L -51.1855,0.722626
 L -51.2865,0.881668 L -51.4065,1.02681 L -51.5439,1.15576 L -51.6963,1.26648 L -51.8613,1.35724 L -52.0365,1.42657
 L -52.2189,1.47342 L -52.4058,1.49704 z
M -37.5942,1.49704 L -37.7811,1.47342 L -37.9635,1.42657 L -38.1387,1.35724 L -38.3037,1.26648 L -38.4561,1.15576
 L -38.5934,1.02681 L -38.7135,0.881668 L -38.8145,0.722626 L -38.8947,0.552185 L -38.9529,0.373032 L -38.9882,0.187988
 L -39,-0 L -38.9882,-0.187988 L -38.9529,-0.373032 L -38.8947,-0.552185 L -38.8145,-0.722626 L -38.7135,-0.881668
 L -38.5934,-1.02681 L -38.4561,-1.15576 L -38.3037,-1.26648 L -38.1387,-1.35724 L -37.9635,-1.42657 L -37.7811,-1.47342
 L -37.5942,-1.49704 L -37.4058,-1.49704 L -37.2189,-1.47342 L -37.0365,-1.42657 L -36.8613,-1.35724 L -36.6963,-1.26648
 L -36.5439,-1.15576 L -36.4065,-1.02681 L -36.2865,-0.881668 L -36.1855,-0.722626 L -36.1053,-0.552185 L -36.0471,-0.373032
 L -36.0118,-0.187988 L -36,-0 L -36.0118,0.187988 L -36.0471,0.373032 L -36.1053,0.552185 L -36.1855,0.722626
 L -36.2865,0.881668 L -36.4065,1.02681 L -36.5439,1.15576 L -36.6963,1.26648 L -36.8613,1.35724 L -37.0365,1.42657
 L -37.2189,1.47342 L -37.4058,1.49704 z
M -82.5942,1.49704 L -82.7811,1.47342 L -82.9635,1.42657 L -83.1387,1.35724 L -83.3037,1.26648 L -83.4561,1.15576
 L -83.5934,1.02681 L -83.7135,0.881668 L -83.8145,0.722626 L -83.8947,0.552185 L -83.9529,0.373032 L -83.9882,0.187988
 L -84,-0 L -83.9882,-0.187988 L -83.9529,-0.373032 L -83.8947,-0.552185 L -83.8145,-0.722626 L -83.7135,-0.881668
 L -83.5934,-1.02681 L -83.4561,-1.15576 L -83.3037,-1.26648 L -83.1387,-1.35724 L -82.9635,-1.42657 L -82.7811,-1.47342
 L -82.5942,-1.49704 L -82.4058,-1.49704 L -82.2189,-1.47342 L -82.0365,-1.42657 L -81.8613,-1.35724 L -81.6963,-1.26648
 L -81.5439,-1.15576 L -81.4065,-1.02681 L -81.2865,-0.881668 L -81.1855,-0.722626 L -81.1053,-0.552185 L -81.0471,-0.373032
 L -81.0118,-0.187988 L -81,-0 L -81.0118,0.187988 L -81.0471,0.373032 L -81.1053,0.552185 L -81.1855,0.722626
 L -81.2865,0.881668 L -81.4065,1.02681 L -81.5439,1.15576 L -81.6963,1.26648 L -81.8613,1.35724 L -82.0365,1.42657
 L -82.2189,1.47342 L -82.4058,1.49704 z
M -22.5942,1.49704 L -22.7811,1.47342 L -22.9635,1.42657 L -23.1387,1.35724 L -23.3037,1.26648 L -23.4561,1.15576
 L -23.5934,1.02681 L -23.7135,0.881668 L -23.8145,0.722626 L -23.8947,0.552185 L -23.9529,0.373032 L -23.9882,0.187988
 L -24,-0 L -23.9882,-0.187988 L -23.9529,-0.373032 L -23.8947,-0.552185 L -23.8145,-0.722626 L -23.7135,-0.881668
 L -23.5934,-1.02681 L -23.4561,-1.15576 L -23.3037,-1.26648 L -23.1387,-1.35724 L -22.9635,-1.42657 L -22.7811,-1.47342
 L -22.5942,-1.49704 L -22.4058,-1.49704 L -22.2189,-1.47342 L -22.0365,-1.42657 L -21.8613,-1.35724 L -21.6963,-1.26648
 L -21.5439,-1.15576 L -21.4065,-1.02681 L -21.2865,-0.881668 L -21.1855,-0.722626 L -21.1053,-0.552185 L -21.0471,-0.373032
 L -21.0118,-0.187988 L -21,-0 L -21.0118,0.187988 L -21.0471,0.373032 L -21.1053,0.552185 L -21.1855,0.722626
 L -21.2865,0.881668 L -21.4065,1.02681 L -21.5439,1.15576 L -21.6963,1.26648 L -21.8613,1.35724 L -22.0365,1.42657
 L -22.2189,1.47342 L -22.4058,1.49704 z
M -7.59418,1.49704 L -7.78107,1.47342 L -7.96352,1.42657 L -8.13866,1.35724 L -8.30373,1.26648 L -8.45613,1.15576
 L -8.59344,1.02681 L -8.71352,0.881668 L -8.81445,0.722626 L -8.89465,0.552185 L -8.95287,0.373032 L -8.98816,0.187988
 L -9,-0 L -8.98816,-0.187988 L -8.95287,-0.373032 L -8.89465,-0.552185 L -8.81445,-0.722626 L -8.71352,-0.881668
 L -8.59344,-1.02681 L -8.45613,-1.15576 L -8.30373,-1.26648 L -8.13866,-1.35724 L -7.96352,-1.42657 L -7.78107,-1.47342
 L -7.59418,-1.49704 L -7.40581,-1.49704 L -7.21892,-1.47342 L -7.03647,-1.42657 L -6.86133,-1.35724 L -6.69626,-1.26648
 L -6.54385,-1.15576 L -6.40654,-1.02681 L -6.28647,-0.881668 L -6.18553,-0.722626 L -6.10533,-0.552185 L -6.04712,-0.373032
 L -6.01183,-0.187988 L -6,-0 L -6.01183,0.187988 L -6.04712,0.373032 L -6.10533,0.552185 L -6.18553,0.722626
 L -6.28647,0.881668 L -6.40654,1.02681 L -6.54385,1.15576 L -6.69626,1.26648 L -6.86133,1.35724 L -7.03647,1.42657
 L -7.21892,1.47342 L -7.40581,1.49704 z
M 52.4058,1.49704 L 52.2189,1.47342 L 52.0365,1.42657 L 51.8613,1.35724 L 51.6963,1.26648 L 51.5439,1.15576
 L 51.4065,1.02681 L 51.2865,0.881668 L 51.1855,0.722626 L 51.1053,0.552185 L 51.0471,0.373032 L 51.0118,0.187988
 L 51,-0 L 51.0118,-0.187988 L 51.0471,-0.373032 L 51.1053,-0.552185 L 51.1855,-0.722626 L 51.2865,-0.881668
 L 51.4065,-1.02681 L 51.5439,-1.15576 L 51.6963,-1.26648 L 51.8613,-1.35724 L 52.0365,-1.42657 L 52.2189,-1.47342
 L 52.4058,-1.49704 L 52.5942,-1.49704 L 52.7811,-1.47342 L 52.9635,-1.42657 L 53.1387,-1.35724 L 53.3037,-1.26648
 L 53.4561,-1.15576 L 53.5934,-1.02681 L 53.7135,-0.881668 L 53.8145,-0.722626 L 53.8947,-0.552185 L 53.9529,-0.373032
 L 53.9882,-0.187988 L 54,-0 L 53.9882,0.187988 L 53.9529,0.373032 L 53.8947,0.552185 L 53.8145,0.722626
 L 53.7135,0.881668 L 53.5934,1.02681 L 53.4561,1.15576 L 53.3037,1.26648 L 53.1387,1.35724 L 52.9635,1.42657
 L 52.7811,1.47342 L 52.5942,1.49704 z
M 7.40581,1.49704 L 7.21892,1.47342 L 7.03647,1.42657 L 6.86133,1.35724 L 6.69626,1.26648 L 6.54385,1.15576
 L 6.40654,1.02681 L 6.28647,0.881668 L 6.18553,0.722626 L 6.10533,0.552185 L 6.04712,0.373032 L 6.01183,0.187988
 L 6,-0 L 6.01183,-0.187988 L 6.04712,-0.373032 L 6.10533,-0.552185 L 6.18553,-0.722626 L 6.28647,-0.881668
 L 6.40654,-1.02681 L 6.54385,-1.15576 L 6.69626,-1.26648 L 6.86133,-1.35724 L 7.03647,-1.42657 L 7.21892,-1.47342
 L 7.40581,-1.49704 L 7.59418,-1.49704 L 7.78107,-1.47342 L 7.96352,-1.42657 L 8.13866,-1.35724 L 8.30373,-1.26648
 L 8.45613,-1.15576 L 8.59344,-1.02681 L 8.71352,-0.881668 L 8.81445,-0.722626 L 8.89465,-0.552185 L 8.95287,-0.373032
 L 8.98816,-0.187988 L 9,-0 L 8.98816,0.187988 L 8.95287,0.373032 L 8.89465,0.552185 L 8.81445,0.722626
 L 8.71352,0.881668 L 8.59344,1.02681 L 8.45613,1.15576 L 8.30373,1.26648 L 8.13866,1.35724 L 7.96352,1.42657
 L 7.78107,1.47342 L 7.59418,1.49704 z
M 22.4058,1.49704 L 22.2189,1.47342 L 22.0365,1.42657 L 21.8613,1.35724 L 21.6963,1.26648 L 21.5439,1.15576
 L 21.4065,1.02681 L 21.2865,0.881668 L 21.1855,0.722626 L 21.1053,0.552185 L 21.0471,0.373032 L 21.0118,0.187988
 L 21,-0 L 21.0118,-0.187988 L 21.0471,-0.373032 L 21.1053,-0.552185 L 21.1855,-0.722626 L 21.2865,-0.881668
 L 21.4065,-1.02681 L 21.5439,-1.15576 L 21.6963,-1.26648 L 21.8613,-1.35724 L 22.0365,-1.42657 L 22.2189,-1.47342
 L 22.4058,-1.49704 L 22.5942,-1.49704 L 22.7811,-1.47342 L 22.9635,-1.42657 L 23.1387,-1.35724 L 23.3037,-1.26648
 L 23.4561,-1.15576 L 23.5934,-1.02681 L 23.7135,-0.881668 L 23.8145,-0.722626 L 23.8947,-0.552185 L 23.9529,-0.373032
 L 23.9882,-0.187988 L 24,-0 L 23.9882,0.187988 L 23.9529,0.373032 L 23.8947,0.552185 L 23.8145,0.722626
 L 23.7135,0.881668 L 23.5934,1.02681 L 23.4561,1.15576 L 23.3037,1.26648 L 23.1387,1.35724 L 22.9635,1.42657
 L 22.7811,1.47342 L 22.5942,1.49704 z
M 67.4058,1.49704 L 67.2189,1.47342 L 67.0365,1.42657 L 66.8613,1.35724 L 66.6963,1.26648 L 66.5439,1.15576
 L 66.4065,1.02681 L 66.2865,0.881668 L 66.1855,0.722626 L 66.1053,0.552185 L 66.0471,0.373032 L 66.0118,0.187988
 L 66,-0 L 66.0118,-0.187988 L 66.0471,-0.373032 L 66.1053,-0.552185 L 66.1855,-0.722626 L 66.2865,-0.881668
 L 66.4065,-1.02681 L 66.5439,-1.15576 L 66.6963,-1.26648 L 66.8613,-1.35724 L 67.0365,-1.42657 L 67.2189,-1.47342
 L 67.4058,-1.49704 L 67.5942,-1.49704 L 67.7811,-1.47342 L 67.9635,-1.42657 L 68.1387,-1.35724 L 68.3037,-1.26648
 L 68.4561,-1.15576 L 68.5934,-1.02681 L 68.7135,-0.881668 L 68.8145,-0.722626 L 68.8947,-0.552185 L 68.9529,-0.373032
 L 68.9882,-0.187988 L 69,-0 L 68.9882,0.187988 L 68.9529,0.373032 L 68.8947,0.552185 L 68.8145,0.722626
 L 68.7135,0.881668 L 68.5934,1.02681 L 68.4561,1.15576 L 68.3037,1.26648 L 68.1387,1.35724 L 67.9635,1.42657
 L 67.7811,1.47342 L 67.5942,1.49704 z
M 82.4058,1.49704 L 82.2189,1.47342 L 82.0365,1.42657 L 81.8613,1.35724 L 81.6963,1.26648 L 81.5439,1.15576
 L 81.4065,1.02681 L 81.2865,0.881668 L 81.1855,0.722626 L 81.1053,0.552185 L 81.0471,0.373032 L 81.0118,0.187988
 L 81,-0 L 81.0118,-0.187988 L 81.0471,-0.373032 L 81.1053,-0.552185 L 81.1855,-0.722626 L 81.2865,-0.881668
 L 81.4065,-1.02681 L 81.5439,-1.15576 L 81.6963,-1.26648 L 81.8613,-1.35724 L 82.0365,-1.42657 L 82.2189,-1.47342
 L 82.4058,-1.49704 L 82.5942,-1.49704 L 82.7811,-1.47342 L 82.9635,-1.42657 L 83.1387,-1.35724 L 83.3037,-1.26648
 L 83.4561,-1.15576 L 83.5934,-1.02681 L 83.7135,-0.881668 L 83.8145,-0.722626 L 83.8947,-0.552185 L 83.9529,-0.373032
 L 83.9882,-0.187988 L 84,-0 L 83.9882,0.187988 L 83.9529,0.373032 L 83.8947,0.552185 L 83.8145,0.722626
 L 83.7135,0.881668 L 83.5934,1.02681 L 83.4561,1.15576 L 83.3037,1.26648 L 83.1387,1.35724 L 82.9635,1.42657
 L 82.7811,1.47342 L 82.5942,1.49704 z
M 37.4058,1.49704 L 37.2189,1.47342 L 37.0365,1.42657 L 36.8613,1.35724 L 36.6963,1.26648 L 36.5439,1.15576
 L 36.4065,1.02681 L 36.2865,0.881668 L 36.1855,0.722626 L 36.1053,0.552185 L 36.0471,0.373032 L 36.0118,0.187988
 L 36,-0 L 36.0118,-0.187988 L 36.0471,-0.373032 L 36.1053,-0.552185 L 36.1855,-0.722626 L 36.2865,-0.881668
 L 36.4065,-1.02681 L 36.5439,-1.15576 L 36.6963,-1.26648 L 36.8613,-1.35724 L 37.0365,-1.42657 L 37.2189,-1.47342
 L 37.4058,-1.49704 L 37.5942,-1.49704 L 37.7811,-1.47342 L 37.9635,-1.42657 L 38.1387,-1.35724 L 38.3037,-1.26648
 L 38.4561,-1.15576 L 38.5934,-1.02681 L 38.7135,-0.881668 L 38.8145,-0.722626 L 38.8947,-0.552185 L 38.9529,-0.373032
 L 38.9882,-0.187988 L 39,-0 L 38.9882,0.187988 L 38.9529,0.373032 L 38.8947,0.552185 L 38.8145,0.722626
 L 38.7135,0.881668 L 38.5934,1.02681 L 38.4561,1.15576 L 38.3037,1.26648 L 38.1387,1.35724 L 37.9635,1.42657
 L 37.7811,1.47342 L 37.5942,1.49704 z
" stroke="black" fill="lightgray" stroke-width="0.5"/>
</svg>
