<?xml version="1.0" standalone="no"?>
<!DOCTYPE svg PUBLIC "-//W3C//DTD SVG 1.1//EN" "http://www.w3.org/Graphics/SVG/1.1/DTD/svg11.dtd">
<svg width="90mm" height="412mm" viewBox="-45 -794 90 412" xmlns="http://www.w3.org/2000/svg" version="1.1">
<title>OpenSCAD Model</title>
<path d="
M 40.9369,-718.589 L 41.5451,-718.745 L 42.1289,-718.976 L 42.6791,-719.278 L 43.1871,-719.647 L 43.6448,-720.077
 L 44.0451,-720.561 L 44.3815,-721.091 L 44.6489,-721.659 L 44.8429,-722.257 L 44.9606,-722.873 L 45,-723.5
 L 45,-788.5 L 44.9606,-789.127 L 44.8429,-789.743 L 44.6489,-790.341 L 44.3815,-790.909 L 44.0451,-791.439
 L 43.6448,-791.923 L 43.1871,-792.353 L 42.6791,-792.722 L 42.1289,-793.024 L 41.5451,-793.255 L 40.9369,-793.411
 L 40.3139,-793.49 L -40.3139,-793.49 L -40.9369,-793.411 L -41.5451,-793.255 L -42.1289,-793.024 L -42.6791,-792.722
 L -43.1871,-792.353 L -43.6448,-791.923 L -44.0451,-791.439 L -44.3815,-790.909 L -44.6489,-790.341 L -44.8429,-789.743
 L -44.9606,-789.127 L -45,-788.5 L -45,-723.5 L -44.9606,-722.873 L -44.8429,-722.257 L -44.6489,-721.659
 L -44.3815,-721.091 L -44.0451,-720.561 L -43.6448,-720.077 L -43.1871,-719.647 L -42.6791,-719.278 L -42.1289,-718.976
 L -41.5451,-718.745 L -40.9369,-718.589 L -40.3139,-718.51 L 40.3139,-718.51 z
M -40.0482,-719.009 L -40.6401,-719.084 L -41.2178,-719.232 L -41.7724,-719.452 L -42.2952,-719.739 L -42.7778,-720.09
 L -43.2126,-720.498 L -43.5928,-720.958 L -43.9124,-721.462 L -44.1664,-722.001 L -44.3508,-722.569 L -44.4625,-723.155
 L -44.5,-723.75 L -44.5,-788.25 L -44.4625,-788.845 L -44.3508,-789.431 L -44.1664,-789.999 L -43.9124,-790.538
 L -43.5928,-791.042 L -43.2126,-791.502 L -42.7778,-791.91 L -42.2952,-792.261 L -41.7724,-792.548 L -41.2178,-792.768
 L -40.6401,-792.916 L -40.0482,-792.991 L 40.0482,-792.991 L 40.6401,-792.916 L 41.2178,-792.768 L 41.7724,-792.548
 L 42.2952,-792.261 L 42.7778,-791.91 L 43.2126,-791.502 L 43.5928,-791.042 L 43.9124,-790.538 L 44.1664,-789.999
 L 44.3508,-789.431 L 44.4625,-788.845 L 44.5,-788.25 L 44.5,-723.75 L 44.4625,-723.155 L 44.3508,-722.569
 L 44.1664,-722.001 L 43.9124,-721.462 L 43.5928,-720.958 L 43.2126,-720.498 L 42.7778,-720.09 L 42.2952,-719.739
 L 41.7724,-719.452 L 41.2178,-719.232 L 40.6401,-719.084 L 40.0482,-719.009 z
M 40.9369,-634.589 L 41.5451,-634.745 L 42.1289,-634.976 L 42.6791,-635.278 L 43.1871,-635.647 L 43.6448,-636.077
 L 44.0451,-636.561 L 44.3815,-637.091 L 44.6489,-637.659 L 44.8429,-638.257 L 44.9606,-638.873 L 45,-639.5
 L 45,-704.5 L 44.9606,-705.127 L 44.8429,-705.743 L 44.6489,-706.341 L 44.3815,-706.909 L 44.0451,-707.439
 L 43.6448,-707.923 L 43.1871,-708.353 L 42.6791,-708.722 L 42.1289,-709.024 L 41.5451,-709.255 L 40.9369,-709.411
 L 40.3139,-709.49 L -40.3139,-709.49 L -40.9369,-709.411 L -41.5451,-709.255 L -42.1289,-709.024 L -42.6791,-708.722
 L -43.1871,-708.353 L -43.6448,-707.923 L -44.0451,-707.439 L -44.3815,-706.909 L -44.6489,-706.341 L -44.8429,-705.743
 L -44.9606,-705.127 L -45,-704.5 L -45,-639.5 L -44.9606,-638.873 L -44.8429,-638.257 L -44.6489,-637.659
 L -44.3815,-637.091 L -44.0451,-636.561 L -43.6448,-636.077 L -43.1871,-635.647 L -42.6791,-635.278 L -42.1289,-634.976
 L -41.5451,-634.745 L -40.9369,-634.589 L -40.3139,-634.51 L 40.3139,-634.51 z
M -40.0482,-635.009 L -40.6401,-635.084 L -41.2178,-635.232 L -41.7724,-635.452 L -42.2952,-635.739 L -42.7778,-636.09
 L -43.2126,-636.498 L -43.5928,-636.958 L -43.9124,-637.462 L -44.1664,-638.001 L -44.3508,-638.569 L -44.4625,-639.155
 L -44.5,-639.75 L -44.5,-704.25 L -44.4625,-704.845 L -44.3508,-705.431 L -44.1664,-705.999 L -43.9124,-706.538
 L -43.5928,-707.042 L -43.2126,-707.502 L -42.7778,-707.91 L -42.2952,-708.261 L -41.7724,-708.548 L -41.2178,-708.768
 L -40.6401,-708.916 L -40.0482,-708.991 L 40.0482,-708.991 L 40.6401,-708.916 L 41.2178,-708.768 L 41.7724,-708.548
 L 42.2952,-708.261 L 42.7778,-707.91 L 43.2126,-707.502 L 43.5928,-707.042 L 43.9124,-706.538 L 44.1664,-705.999
 L 44.3508,-705.431 L 44.4625,-704.845 L 44.5,-704.25 L 44.5,-639.75 L 44.4625,-639.155 L 44.3508,-638.569
 L 44.1664,-638.001 L 43.9124,-637.462 L 43.5928,-636.958 L 43.2126,-636.498 L 42.7778,-636.09 L 42.2952,-635.739
 L 41.7724,-635.452 L 41.2178,-635.232 L 40.6401,-635.084 L 40.0482,-635.009 z
M 40.9369,-550.589 L 41.5451,-550.745 L 42.1289,-550.976 L 42.6791,-551.278 L 43.1871,-551.647 L 43.6448,-552.077
 L 44.0451,-552.561 L 44.3815,-553.091 L 44.6489,-553.659 L 44.8429,-554.257 L 44.9606,-554.873 L 45,-555.5
 L 45,-620.5 L 44.9606,-621.127 L 44.8429,-621.743 L 44.6489,-622.341 L 44.3815,-622.909 L 44.0451,-623.439
 L 43.6448,-623.923 L 43.1871,-624.353 L 42.6791,-624.722 L 42.1289,-625.024 L 41.5451,-625.255 L 40.9369,-625.411
 L 40.3139,-625.49 L -40.3139,-625.49 L -40.9369,-625.411 L -41.5451,-625.255 L -42.1289,-625.024 L -42.6791,-624.722
 L -43.1871,-624.353 L -43.6448,-623.923 L -44.0451,-623.439 L -44.3815,-622.909 L -44.6489,-622.341 L -44.8429,-621.743
 L -44.9606,-621.127 L -45,-620.5 L -45,-555.5 L -44.9606,-554.873 L -44.8429,-554.257 L -44.6489,-553.659
 L -44.3815,-553.091 L -44.0451,-552.561 L -43.6448,-552.077 L -43.1871,-551.647 L -42.6791,-551.278 L -42.1289,-550.976
 L -41.5451,-550.745 L -40.9369,-550.589 L -40.3139,-550.51 L 40.3139,-550.51 z
M -40.0482,-551.009 L -40.6401,-551.084 L -41.2178,-551.232 L -41.7724,-551.452 L -42.2952,-551.739 L -42.7778,-552.09
 L -43.2126,-552.498 L -43.5928,-552.958 L -43.9124,-553.462 L -44.1664,-554.001 L -44.3508,-554.569 L -44.4625,-555.155
 L -44.5,-555.75 L -44.5,-620.25 L -44.4625,-620.845 L -44.3508,-621.431 L -44.1664,-621.999 L -43.9124,-622.538
 L -43.5928,-623.042 L -43.2126,-623.502 L -42.7778,-623.91 L -42.2952,-624.261 L -41.7724,-624.548 L -41.2178,-624.768
 L -40.6401,-624.916 L -40.0482,-624.991 L 40.0482,-624.991 L 40.6401,-624.916 L 41.2178,-624.768 L 41.7724,-624.548
 L 42.2952,-624.261 L 42.7778,-623.91 L 43.2126,-623.502 L 43.5928,-623.042 L 43.9124,-622.538 L 44.1664,-621.999
 L 44.3508,-621.431 L 44.4625,-620.845 L 44.5,-620.25 L 44.5,-555.75 L 44.4625,-555.155 L 44.3508,-554.569
 L 44.1664,-554.001 L 43.9124,-553.462 L 43.5928,-552.958 L 43.2126,-552.498 L 42.7778,-552.09 L 42.2952,-551.739
 L 41.7724,-551.452 L 41.2178,-551.232 L 40.6401,-551.084 L 40.0482,-551.009 z
M 40.9369,-466.589 L 41.5451,-466.745 L 42.1289,-466.976 L 42.6791,-467.278 L 43.1871,-467.647 L 43.6448,-468.077
 L 44.0451,-468.561 L 44.3815,-469.091 L 44.6489,-469.659 L 44.8429,-470.257 L 44.9606,-470.873 L 45,-471.5
 L 45,-536.5 L 44.9606,-537.127 L 44.8429,-537.743 L 44.6489,-538.341 L 44.3815,-538.909 L 44.0451,-539.439
 L 43.6448,-539.923 L 43.1871,-540.353 L 42.6791,-540.722 L 42.1289,-541.024 L 41.5451,-541.255 L 40.9369,-541.411
 L 40.3139,-541.49 L -40.3139,-541.49 L -40.9369,-541.411 L -41.5451,-541.255 L -42.1289,-541.024 L -42.6791,-540.722
 L -43.1871,-540.353 L -43.6448,-539.923 L -44.0451,-539.439 L -44.3815,-538.909 L -44.6489,-538.341 L -44.8429,-537.743
 L -44.9606,-537.127 L -45,-536.5 L -45,-471.5 L -44.9606,-470.873 L -44.8429,-470.257 L -44.6489,-469.659
 L -44.3815,-469.091 L -44.0451,-468.561 L -43.6448,-468.077 L -43.1871,-467.647 L -42.6791,-467.278 L -42.1289,-466.976
 L -41.5451,-466.745 L -40.9369,-466.589 L -40.3139,-466.51 L 40.3139,-466.51 z
M -40.0375,-467.181 L -40.6079,-467.253 L -41.1648,-467.396 L -41.6994,-467.607 L -42.2032,-467.884 L -42.6684,-468.222
 L -43.0875,-468.616 L -43.454,-469.059 L -43.7621,-469.544 L -44.0069,-470.065 L -44.1846,-470.611 L -44.2923,-471.176
 L -44.3284,-471.75 L -44.3284,-536.25 L -44.2923,-536.824 L -44.1846,-537.389 L -44.0069,-537.935 L -43.7621,-538.456
 L -43.454,-538.941 L -43.0875,-539.384 L -42.6684,-539.778 L -42.2032,-540.116 L -41.6994,-540.393 L -41.1648,-540.604
 L -40.6079,-540.747 L -40.0375,-540.819 L 40.0375,-540.819 L 40.6079,-540.747 L 41.1648,-540.604 L 41.6994,-540.393
 L 42.2032,-540.116 L 42.6684,-539.778 L 43.0875,-539.384 L 43.454,-538.941 L 43.7621,-538.456 L 44.0069,-537.935
 L 44.1846,-537.389 L 44.2923,-536.824 L 44.3284,-536.25 L 44.3284,-471.75 L 44.2923,-471.176 L 44.1846,-470.611
 L 44.0069,-470.065 L 43.7621,-469.544 L 43.454,-469.059 L 43.0875,-468.616 L 42.6684,-468.222 L 42.2032,-467.884
 L 41.6994,-467.607 L 41.1648,-467.396 L 40.6079,-467.253 L 40.0375,-467.181 z
M 40.9369,-382.589 L 41.5451,-382.745 L 42.1289,-382.976 L 42.6791,-383.278 L 43.1871,-383.647 L 43.6448,-384.077
 L 44.0451,-384.561 L 44.3815,-385.091 L 44.6489,-385.659 L 44.8429,-386.257 L 44.9606,-386.873 L 45,-387.5
 L 45,-452.5 L 44.9606,-453.127 L 44.8429,-453.743 L 44.6489,-454.341 L 44.3815,-454.909 L 44.0451,-455.439
 L 43.6448,-455.923 L 43.1871,-456.353 L 42.6791,-456.722 L 42.1289,-457.024 L 41.5451,-457.255 L 40.9369,-457.411
 L 40.3139,-457.49 L -40.3139,-457.49 L -40.9369,-457.411 L -41.5451,-457.255 L -42.1289,-457.024 L -42.6791,-456.722
 L -43.1871,-456.353 L -43.6448,-455.923 L -44.0451,-455.439 L -44.3815,-454.909 L -44.6489,-454.341 L -44.8429,-453.743
 L -44.9606,-453.127 L -45,-452.5 L -45,-387.5 L -44.9606,-386.873 L -44.8429,-386.257 L -44.6489,-385.659
 L -44.3815,-385.091 L -44.0451,-384.561 L -43.6448,-384.077 L -43.1871,-383.647 L -42.6791,-383.278 L -42.1289,-382.976
 L -41.5451,-382.745 L -40.9369,-382.589 L -40.3139,-382.51 L 40.3139,-382.51 z
M -39.8825,-385.645 L -40.1453,-385.678 L -40.4019,-385.744 L -40.6482,-385.841 L -40.8804,-385.969 L -41.0947,-386.125
 L -41.2879,-386.306 L -41.4567,-386.51 L -41.5987,-386.734 L -41.7115,-386.973 L -41.7934,-387.225 L -41.843,-387.486
 L -41.8596,-387.75 L -41.8596,-452.25 L -41.843,-452.514 L -41.7934,-452.775 L -41.7115,-453.027 L -41.5987,-453.266
 L -41.4567,-453.49 L -41.2879,-453.694 L -41.0947,-453.875 L -40.8804,-454.031 L -40.6482,-454.159 L -40.4019,-454.256
 L -40.1453,-454.322 L -39.8825,-454.355 L 39.8825,-454.355 L 40.1453,-454.322 L 40.4019,-454.256 L 40.6482,-454.159
 L 40.8804,-454.031 L 41.0947,-453.875 L 41.2879,-453.694 L 41.4567,-453.49 L 41.5987,-453.266 L 41.7115,-453.027
 L 41.7934,-452.775 L 41.843,-452.514 L 41.8596,-452.25 L 41.8596,-387.75 L 41.843,-387.486 L 41.7934,-387.225
 L 41.7115,-386.973 L 41.5987,-386.734 L 41.4567,-386.51 L 41.2879,-386.306 L 41.0947,-386.125 L 40.8804,-385.969
 L 40.6482,-385.841 L 40.4019,-385.744 L 40.1453,-385.678 L 39.8825,-385.645 z
" stroke="black" fill="lightgray" stroke-width="0.5"/>
</svg>
