<?xml version="1.0" standalone="no"?>
<!DOCTYPE svg PUBLIC "-//W3C//DTD SVG 1.1//EN" "http://www.w3.org/Graphics/SVG/1.1/DTD/svg11.dtd">
<svg width="150mm" height="1536mm" viewBox="-75 -2931 150 1536" xmlns="http://www.w3.org/2000/svg" version="1.1">
<title>OpenSCAD Model</title>
<path d="
M 70.9369,-2631.09 L 71.5451,-2631.24 L 72.1289,-2631.48 L 72.6791,-2631.78 L 73.1871,-2632.15 L 73.6448,-2632.58
 L 74.0451,-2633.06 L 74.3815,-2633.59 L 74.6489,-2634.16 L 74.8429,-2634.76 L 74.9606,-2635.37 L 75,-2636
 L 75,-2926 L 74.9606,-2926.63 L 74.8429,-2927.24 L 74.6489,-2927.84 L 74.3815,-2928.41 L 74.0451,-2928.94
 L 73.6448,-2929.42 L 73.1871,-2929.85 L 72.6791,-2930.22 L 72.1289,-2930.52 L 71.5451,-2930.76 L 70.9369,-2930.91
 L 70.3139,-2930.99 L -70.3139,-2930.99 L -70.9369,-2930.91 L -71.5451,-2930.76 L -72.1289,-2930.52 L -72.6791,-2930.22
 L -73.1871,-2929.85 L -73.6448,-2929.42 L -74.0451,-2928.94 L -74.3815,-2928.41 L -74.6489,-2927.84 L -74.8429,-2927.24
 L -74.9606,-2926.63 L -75,-2926 L -75,-2636 L -74.9606,-2635.37 L -74.8429,-2634.76 L -74.6489,-2634.16
 L -74.3815,-2633.59 L -74.0451,-2633.06 L -73.6448,-2632.58 L -73.1871,-2632.15 L -72.6791,-2631.78 L -72.1289,-2631.48
 L -71.5451,-2631.24 L -70.9369,-2631.09 L -70.3139,-2631.01 L 70.3139,-2631.01 z
M -69.7512,-2632.51 L -70.2495,-2632.57 L -70.7361,-2632.7 L -71.2031,-2632.88 L -71.6433,-2633.12 L -72.0497,-2633.42
 L -72.4159,-2633.76 L -72.7361,-2634.15 L -73.0052,-2634.57 L -73.2191,-2635.03 L -73.3743,-2635.51 L -73.4685,-2636
 L -73.5,-2636.5 L -73.5,-2925.5 L -73.4685,-2926 L -73.3743,-2926.49 L -73.2191,-2926.97 L -73.0052,-2927.43
 L -72.7361,-2927.85 L -72.4159,-2928.24 L -72.0497,-2928.58 L -71.6433,-2928.88 L -71.2031,-2929.12 L -70.7361,-2929.3
 L -70.2495,-2929.43 L -69.7512,-2929.49 L 69.7512,-2929.49 L 70.2495,-2929.43 L 70.7361,-2929.3 L 71.2031,-2929.12
 L 71.6433,-2928.88 L 72.0497,-2928.58 L 72.4159,-2928.24 L 72.7361,-2927.85 L 73.0052,-2927.43 L 73.2191,-2926.97
 L 73.3743,-2926.49 L 73.4685,-2926 L 73.5,-2925.5 L 73.5,-2636.5 L 73.4685,-2636 L 73.3743,-2635.51
 L 73.2191,-2635.03 L 73.0052,-2634.57 L 72.7361,-2634.15 L 72.4159,-2633.76 L 72.0497,-2633.42 L 71.6433,-2633.12
 L 71.2031,-2632.88 L 70.7361,-2632.7 L 70.2495,-2632.57 L 69.7512,-2632.51 z
M 70.9369,-2322.09 L 71.5451,-2322.24 L 72.1289,-2322.48 L 72.6791,-2322.78 L 73.1871,-2323.15 L 73.6448,-2323.58
 L 74.0451,-2324.06 L 74.3815,-2324.59 L 74.6489,-2325.16 L 74.8429,-2325.76 L 74.9606,-2326.37 L 75,-2327
 L 75,-2617 L 74.9606,-2617.63 L 74.8429,-2618.24 L 74.6489,-2618.84 L 74.3815,-2619.41 L 74.0451,-2619.94
 L 73.6448,-2620.42 L 73.1871,-2620.85 L 72.6791,-2621.22 L 72.1289,-2621.52 L 71.5451,-2621.76 L 70.9369,-2621.91
 L 70.3139,-2621.99 L -70.3139,-2621.99 L -70.9369,-2621.91 L -71.5451,-2621.76 L -72.1289,-2621.52 L -72.6791,-2621.22
 L -73.1871,-2620.85 L -73.6448,-2620.42 L -74.0451,-2619.94 L -74.3815,-2619.41 L -74.6489,-2618.84 L -74.8429,-2618.24
 L -74.9606,-2617.63 L -75,-2617 L -75,-2327 L -74.9606,-2326.37 L -74.8429,-2325.76 L -74.6489,-2325.16
 L -74.3815,-2324.59 L -74.0451,-2324.06 L -73.6448,-2323.58 L -73.1871,-2323.15 L -72.6791,-2322.78 L -72.1289,-2322.48
 L -71.5451,-2322.24 L -70.9369,-2322.09 L -70.3139,-2322.01 L 70.3139,-2322.01 z
M -69.7512,-2323.51 L -70.2495,-2323.57 L -70.7361,-2323.7 L -71.2031,-2323.88 L -71.6433,-2324.12 L -72.0497,-2324.42
 L -72.4159,-2324.76 L -72.7361,-2325.15 L -73.0052,-2325.57 L -73.2191,-2326.03 L -73.3743,-2326.51 L -73.4685,-2327
 L -73.5,-2327.5 L -73.5,-2616.5 L -73.4685,-2617 L -73.3743,-2617.49 L -73.2191,-2617.97 L -73.0052,-2618.43
 L -72.7361,-2618.85 L -72.4159,-2619.24 L -72.0497,-2619.58 L -71.6433,-2619.88 L -71.2031,-2620.12 L -70.7361,-2620.3
 L -70.2495,-2620.43 L -69.7512,-2620.49 L 69.7512,-2620.49 L 70.2495,-2620.43 L 70.7361,-2620.3 L 71.2031,-2620.12
 L 71.6433,-2619.88 L 72.0497,-2619.58 L 72.4159,-2619.24 L 72.7361,-2618.85 L 73.0052,-2618.43 L 73.2191,-2617.97
 L 73.3743,-2617.49 L 73.4685,-2617 L 73.5,-2616.5 L 73.5,-2327.5 L 73.4685,-2327 L 73.3743,-2326.51
 L 73.2191,-2326.03 L 73.0052,-2325.57 L 72.7361,-2325.15 L 72.4159,-2324.76 L 72.0497,-2324.42 L 71.6433,-2324.12
 L 71.2031,-2323.88 L 70.7361,-2323.7 L 70.2495,-2323.57 L 69.7512,-2323.51 z
M 70.9369,-2013.09 L 71.5451,-2013.24 L 72.1289,-2013.48 L 72.6791,-2013.78 L 73.1871,-2014.15 L 73.6448,-2014.58
 L 74.0451,-2015.06 L 74.3815,-2015.59 L 74.6489,-2016.16 L 74.8429,-2016.76 L 74.9606,-2017.37 L 75,-2018
 L 75,-2308 L 74.9606,-2308.63 L 74.8429,-2309.24 L 74.6489,-2309.84 L 74.3815,-2310.41 L 74.0451,-2310.94
 L 73.6448,-2311.42 L 73.1871,-2311.85 L 72.6791,-2312.22 L 72.1289,-2312.52 L 71.5451,-2312.76 L 70.9369,-2312.91
 L 70.3139,-2312.99 L -70.3139,-2312.99 L -70.9369,-2312.91 L -71.5451,-2312.76 L -72.1289,-2312.52 L -72.6791,-2312.22
 L -73.1871,-2311.85 L -73.6448,-2311.42 L -74.0451,-2310.94 L -74.3815,-2310.41 L -74.6489,-2309.84 L -74.8429,-2309.24
 L -74.9606,-2308.63 L -75,-2308 L -75,-2018 L -74.9606,-2017.37 L -74.8429,-2016.76 L -74.6489,-2016.16
 L -74.3815,-2015.59 L -74.0451,-2015.06 L -73.6448,-2014.58 L -73.1871,-2014.15 L -72.6791,-2013.78 L -72.1289,-2013.48
 L -71.5451,-2013.24 L -70.9369,-2013.09 L -70.3139,-2013.01 L 70.3139,-2013.01 z
M -69.7512,-2014.51 L -70.2495,-2014.57 L -70.7361,-2014.7 L -71.2031,-2014.88 L -71.6433,-2015.12 L -72.0497,-2015.42
 L -72.4159,-2015.76 L -72.7361,-2016.15 L -73.0052,-2016.57 L -73.2191,-2017.03 L -73.3743,-2017.51 L -73.4685,-2018
 L -73.5,-2018.5 L -73.5,-2307.5 L -73.4685,-2308 L -73.3743,-2308.49 L -73.2191,-2308.97 L -73.0052,-2309.43
 L -72.7361,-2309.85 L -72.4159,-2310.24 L -72.0497,-2310.58 L -71.6433,-2310.88 L -71.2031,-2311.12 L -70.7361,-2311.3
 L -70.2495,-2311.43 L -69.7512,-2311.49 L 69.7512,-2311.49 L 70.2495,-2311.43 L 70.7361,-2311.3 L 71.2031,-2311.12
 L 71.6433,-2310.88 L 72.0497,-2310.58 L 72.4159,-2310.24 L 72.7361,-2309.85 L 73.0052,-2309.43 L 73.2191,-2308.97
 L 73.3743,-2308.49 L 73.4685,-2308 L 73.5,-2307.5 L 73.5,-2018.5 L 73.4685,-2018 L 73.3743,-2017.51
 L 73.2191,-2017.03 L 73.0052,-2016.57 L 72.7361,-2016.15 L 72.4159,-2015.76 L 72.0497,-2015.42 L 71.6433,-2015.12
 L 71.2031,-2014.88 L 70.7361,-2014.7 L 70.2495,-2014.57 L 69.7512,-2014.51 z
M 70.9369,-1704.09 L 71.5451,-1704.24 L 72.1289,-1704.48 L 72.6791,-1704.78 L 73.1871,-1705.15 L 73.6448,-1705.58
 L 74.0451,-1706.06 L 74.3815,-1706.59 L 74.6489,-1707.16 L 74.8429,-1707.76 L 74.9606,-1708.37 L 75,-1709
 L 75,-1999 L 74.9606,-1999.63 L 74.8429,-2000.24 L 74.6489,-2000.84 L 74.3815,-2001.41 L 74.0451,-2001.94
 L 73.6448,-2002.42 L 73.1871,-2002.85 L 72.6791,-2003.22 L 72.1289,-2003.52 L 71.5451,-2003.76 L 70.9369,-2003.91
 L 70.3139,-2003.99 L -70.3139,-2003.99 L -70.9369,-2003.91 L -71.5451,-2003.76 L -72.1289,-2003.52 L -72.6791,-2003.22
 L -73.1871,-2002.85 L -73.6448,-2002.42 L -74.0451,-2001.94 L -74.3815,-2001.41 L -74.6489,-2000.84 L -74.8429,-2000.24
 L -74.9606,-1999.63 L -75,-1999 L -75,-1709 L -74.9606,-1708.37 L -74.8429,-1707.76 L -74.6489,-1707.16
 L -74.3815,-1706.59 L -74.0451,-1706.06 L -73.6448,-1705.58 L -73.1871,-1705.15 L -72.6791,-1704.78 L -72.1289,-1704.48
 L -71.5451,-1704.24 L -70.9369,-1704.09 L -70.3139,-1704.01 L 70.3139,-1704.01 z
M -69.6955,-1706.39 L -70.0833,-1706.44 L -70.4619,-1706.54 L -70.8254,-1706.68 L -71.168,-1706.87 L -71.4843,-1707.1
 L -71.7692,-1707.37 L -72.0184,-1707.67 L -72.2279,-1708 L -72.3943,-1708.35 L -72.5151,-1708.73 L -72.5884,-1709.11
 L -72.6129,-1709.5 L -72.6129,-1998.5 L -72.5884,-1998.89 L -72.5151,-1999.27 L -72.3943,-1999.65 L -72.2279,-2000
 L -72.0184,-2000.33 L -71.7692,-2000.63 L -71.4843,-2000.9 L -71.168,-2001.13 L -70.8254,-2001.32 L -70.4619,-2001.46
 L -70.0833,-2001.56 L -69.6955,-2001.61 L 69.6955,-2001.61 L 70.0833,-2001.56 L 70.4619,-2001.46 L 70.8254,-2001.32
 L 71.168,-2001.13 L 71.4843,-2000.9 L 71.7692,-2000.63 L 72.0184,-2000.33 L 72.2279,-2000 L 72.3943,-1999.65
 L 72.5151,-1999.27 L 72.5884,-1998.89 L 72.6129,-1998.5 L 72.6129,-1709.5 L 72.5884,-1709.11 L 72.5151,-1708.73
 L 72.3943,-1708.35 L 72.2279,-1708 L 72.0184,-1707.67 L 71.7692,-1707.37 L 71.4843,-1707.1 L 71.168,-1706.87
 L 70.8254,-1706.68 L 70.4619,-1706.54 L 70.0833,-1706.44 L 69.6955,-1706.39 z
M 70.9369,-1395.09 L 71.5451,-1395.24 L 72.1289,-1395.48 L 72.6791,-1395.78 L 73.1871,-1396.15 L 73.6448,-1396.58
 L 74.0451,-1397.06 L 74.3815,-1397.59 L 74.6489,-1398.16 L 74.8429,-1398.76 L 74.9606,-1399.37 L 75,-1400
 L 75,-1690 L 74.9606,-1690.63 L 74.8429,-1691.24 L 74.6489,-1691.84 L 74.3815,-1692.41 L 74.0451,-1692.94
 L 73.6448,-1693.42 L 73.1871,-1693.85 L 72.6791,-1694.22 L 72.1289,-1694.52 L 71.5451,-1694.76 L 70.9369,-1694.91
 L 70.3139,-1694.99 L -70.3139,-1694.99 L -70.9369,-1694.91 L -71.5451,-1694.76 L -72.1289,-1694.52 L -72.6791,-1694.22
 L -73.1871,-1693.85 L -73.6448,-1693.42 L -74.0451,-1692.94 L -74.3815,-1692.41 L -74.6489,-1691.84 L -74.8429,-1691.24
 L -74.9606,-1690.63 L -75,-1690 L -75,-1400 L -74.9606,-1399.37 L -74.8429,-1398.76 L -74.6489,-1398.16
 L -74.3815,-1397.59 L -74.0451,-1397.06 L -73.6448,-1396.58 L -73.1871,-1396.15 L -72.6791,-1395.78 L -72.1289,-1395.48
 L -71.5451,-1395.24 L -70.9369,-1395.09 L -70.3139,-1395.01 L 70.3139,-1395.01 z
M 67.3659,-1685.37 L 67.0999,-1685.4 L 66.8401,-1685.47 L 66.5908,-1685.57 L 66.3559,-1685.7 L 66.1389,-1685.85
 L 65.9434,-1686.04 L 65.7725,-1686.24 L 65.6288,-1686.47 L 65.5146,-1686.71 L 65.4318,-1686.97 L 65.3815,-1687.23
 L 65.3647,-1687.5 L 65.3815,-1687.77 L 65.4318,-1688.03 L 65.5146,-1688.29 L 65.6288,-1688.53 L 65.7725,-1688.76
 L 65.9434,-1688.96 L 66.1389,-1689.15 L 66.3559,-1689.3 L 66.5908,-1689.43 L 66.8401,-1689.53 L 67.0999,-1689.6
 L 67.3659,-1689.63 L 67.6341,-1689.63 L 67.9001,-1689.6 L 68.1598,-1689.53 L 68.4092,-1689.43 L 68.6441,-1689.3
 L 68.8611,-1689.15 L 69.0566,-1688.96 L 69.2275,-1688.76 L 69.3712,-1688.53 L 69.4853,-1688.29 L 69.5682,-1688.03
 L 69.6185,-1687.77 L 69.6353,-1687.5 L 69.6185,-1687.23 L 69.5682,-1686.97 L 69.4853,-1686.71 L 69.3712,-1686.47
 L 69.2275,-1686.24 L 69.0566,-1686.04 L 68.8611,-1685.85 L 68.6441,-1685.7 L 68.4092,-1685.57 L 68.1598,-1685.47
 L 67.9001,-1685.4 L 67.6341,-1685.37 z
M -67.6341,-1685.37 L -67.9001,-1685.4 L -68.1598,-1685.47 L -68.4092,-1685.57 L -68.6441,-1685.7 L -68.8611,-1685.85
 L -69.0566,-1686.04 L -69.2275,-1686.24 L -69.3712,-1686.47 L -69.4853,-1686.71 L -69.5682,-1686.97 L -69.6185,-1687.23
 L -69.6353,-1687.5 L -69.6185,-1687.77 L -69.5682,-1688.03 L -69.4853,-1688.29 L -69.3712,-1688.53 L -69.2275,-1688.76
 L -69.0566,-1688.96 L -68.8611,-1689.15 L -68.6441,-1689.3 L -68.4092,-1689.43 L -68.1598,-1689.53 L -67.9001,-1689.6
 L -67.6341,-1689.63 L -67.3659,-1689.63 L -67.0999,-1689.6 L -66.8401,-1689.53 L -66.5908,-1689.43 L -66.3559,-1689.3
 L -66.1389,-1689.15 L -65.9434,-1688.96 L -65.7725,-1688.76 L -65.6288,-1688.53 L -65.5146,-1688.29 L -65.4318,-1688.03
 L -65.3815,-1687.77 L -65.3647,-1687.5 L -65.3815,-1687.23 L -65.4318,-1686.97 L -65.5146,-1686.71 L -65.6288,-1686.47
 L -65.7725,-1686.24 L -65.9434,-1686.04 L -66.1389,-1685.85 L -66.3559,-1685.7 L -66.5908,-1685.57 L -66.8401,-1685.47
 L -67.0999,-1685.4 L -67.3659,-1685.37 z
M 67.3659,-1400.37 L 67.0999,-1400.4 L 66.8401,-1400.47 L 66.5908,-1400.57 L 66.3559,-1400.7 L 66.1389,-1400.85
 L 65.9434,-1401.04 L 65.7725,-1401.24 L 65.6288,-1401.47 L 65.5146,-1401.71 L 65.4318,-1401.97 L 65.3815,-1402.23
 L 65.3647,-1402.5 L 65.3815,-1402.77 L 65.4318,-1403.03 L 65.5146,-1403.29 L 65.6288,-1403.53 L 65.7725,-1403.76
 L 65.9434,-1403.96 L 66.1389,-1404.15 L 66.3559,-1404.3 L 66.5908,-1404.43 L 66.8401,-1404.53 L 67.0999,-1404.6
 L 67.3659,-1404.63 L 67.6341,-1404.63 L 67.9001,-1404.6 L 68.1598,-1404.53 L 68.4092,-1404.43 L 68.6441,-1404.3
 L 68.8611,-1404.15 L 69.0566,-1403.96 L 69.2275,-1403.76 L 69.3712,-1403.53 L 69.4853,-1403.29 L 69.5682,-1403.03
 L 69.6185,-1402.77 L 69.6353,-1402.5 L 69.6185,-1402.23 L 69.5682,-1401.97 L 69.4853,-1401.71 L 69.3712,-1401.47
 L 69.2275,-1401.24 L 69.0566,-1401.04 L 68.8611,-1400.85 L 68.6441,-1400.7 L 68.4092,-1400.57 L 68.1598,-1400.47
 L 67.9001,-1400.4 L 67.6341,-1400.37 z
M -67.6341,-1400.37 L -67.9001,-1400.4 L -68.1598,-1400.47 L -68.4092,-1400.57 L -68.6441,-1400.7 L -68.8611,-1400.85
 L -69.0566,-1401.04 L -69.2275,-1401.24 L -69.3712,-1401.47 L -69.4853,-1401.71 L -69.5682,-1401.97 L -69.6185,-1402.23
 L -69.6353,-1402.5 L -69.6185,-1402.77 L -69.5682,-1403.03 L -69.4853,-1403.29 L -69.3712,-1403.53 L -69.2275,-1403.76
 L -69.0566,-1403.96 L -68.8611,-1404.15 L -68.6441,-1404.3 L -68.4092,-1404.43 L -68.1598,-1404.53 L -67.9001,-1404.6
 L -67.6341,-1404.63 L -67.3659,-1404.63 L -67.0999,-1404.6 L -66.8401,-1404.53 L -66.5908,-1404.43 L -66.3559,-1404.3
 L -66.1389,-1404.15 L -65.9434,-1403.96 L -65.7725,-1403.76 L -65.6288,-1403.53 L -65.5146,-1403.29 L -65.4318,-1403.03
 L -65.3815,-1402.77 L -65.3647,-1402.5 L -65.3815,-1402.23 L -65.4318,-1401.97 L -65.5146,-1401.71 L -65.6288,-1401.47
 L -65.7725,-1401.24 L -65.9434,-1401.04 L -66.1389,-1400.85 L -66.3559,-1400.7 L -66.5908,-1400.57 L -66.8401,-1400.47
 L -67.0999,-1400.4 L -67.3659,-1400.37 z
" stroke="black" fill="lightgray" stroke-width="0.5"/>
</svg>
