  0
SECTION
  2
BLOCKS
  0
ENDSEC
  0
SECTION
  2
ENTITIES
  0
LINE
  8
0
 10
85.9369
 20
1818.09
 11
86.5451
 21
1818.24
  0
LINE
  8
0
 10
86.5451
 20
1818.24
 11
87.1289
 21
1818.48
  0
LINE
  8
0
 10
87.1289
 20
1818.48
 11
87.6791
 21
1818.78
  0
LINE
  8
0
 10
87.6791
 20
1818.78
 11
88.1871
 21
1819.15
  0
LINE
  8
0
 10
88.1871
 20
1819.15
 11
88.6448
 21
1819.58
  0
LINE
  8
0
 10
88.6448
 20
1819.58
 11
89.0451
 21
1820.06
  0
LINE
  8
0
 10
89.0451
 20
1820.06
 11
89.3815
 21
1820.59
  0
LINE
  8
0
 10
89.3815
 20
1820.59
 11
89.6489
 21
1821.16
  0
LINE
  8
0
 10
89.6489
 20
1821.16
 11
89.8429
 21
1821.76
  0
LINE
  8
0
 10
89.8429
 20
1821.76
 11
89.9606
 21
1822.37
  0
LINE
  8
0
 10
89.9606
 20
1822.37
 11
90
 21
1823
  0
LINE
  8
0
 10
90
 20
1823
 11
90
 21
2083
  0
LINE
  8
0
 10
90
 20
2083
 11
89.9606
 21
2083.63
  0
LINE
  8
0
 10
89.9606
 20
2083.63
 11
89.8429
 21
2084.24
  0
LINE
  8
0
 10
89.8429
 20
2084.24
 11
89.6489
 21
2084.84
  0
LINE
  8
0
 10
89.6489
 20
2084.84
 11
89.3815
 21
2085.41
  0
LINE
  8
0
 10
89.3815
 20
2085.41
 11
89.0451
 21
2085.94
  0
LINE
  8
0
 10
89.0451
 20
2085.94
 11
88.6448
 21
2086.42
  0
LINE
  8
0
 10
88.6448
 20
2086.42
 11
88.1871
 21
2086.85
  0
LINE
  8
0
 10
88.1871
 20
2086.85
 11
87.6791
 21
2087.22
  0
LINE
  8
0
 10
87.6791
 20
2087.22
 11
87.1289
 21
2087.52
  0
LINE
  8
0
 10
87.1289
 20
2087.52
 11
86.5451
 21
2087.76
  0
LINE
  8
0
 10
86.5451
 20
2087.76
 11
85.9369
 21
2087.91
  0
LINE
  8
0
 10
85.9369
 20
2087.91
 11
85.3139
 21
2087.99
  0
LINE
  8
0
 10
85.3139
 20
2087.99
 11
-85.3139
 21
2087.99
  0
LINE
  8
0
 10
-85.3139
 20
2087.99
 11
-85.9369
 21
2087.91
  0
LINE
  8
0
 10
-85.9369
 20
2087.91
 11
-86.5451
 21
2087.76
  0
LINE
  8
0
 10
-86.5451
 20
2087.76
 11
-87.1289
 21
2087.52
  0
LINE
  8
0
 10
-87.1289
 20
2087.52
 11
-87.6791
 21
2087.22
  0
LINE
  8
0
 10
-87.6791
 20
2087.22
 11
-88.1871
 21
2086.85
  0
LINE
  8
0
 10
-88.1871
 20
2086.85
 11
-88.6448
 21
2086.42
  0
LINE
  8
0
 10
-88.6448
 20
2086.42
 11
-89.0451
 21
2085.94
  0
LINE
  8
0
 10
-89.0451
 20
2085.94
 11
-89.3815
 21
2085.41
  0
LINE
  8
0
 10
-89.3815
 20
2085.41
 11
-89.6489
 21
2084.84
  0
LINE
  8
0
 10
-89.6489
 20
2084.84
 11
-89.8429
 21
2084.24
  0
LINE
  8
0
 10
-89.8429
 20
2084.24
 11
-89.9606
 21
2083.63
  0
LINE
  8
0
 10
-89.9606
 20
2083.63
 11
-90
 21
2083
  0
LINE
  8
0
 10
-90
 20
2083
 11
-90
 21
1823
  0
LINE
  8
0
 10
-90
 20
1823
 11
-89.9606
 21
1822.37
  0
LINE
  8
0
 10
-89.9606
 20
1822.37
 11
-89.8429
 21
1821.76
  0
LINE
  8
0
 10
-89.8429
 20
1821.76
 11
-89.6489
 21
1821.16
  0
LINE
  8
0
 10
-89.6489
 20
1821.16
 11
-89.3815
 21
1820.59
  0
LINE
  8
0
 10
-89.3815
 20
1820.59
 11
-89.0451
 21
1820.06
  0
LINE
  8
0
 10
-89.0451
 20
1820.06
 11
-88.6448
 21
1819.58
  0
LINE
  8
0
 10
-88.6448
 20
1819.58
 11
-88.1871
 21
1819.15
  0
LINE
  8
0
 10
-88.1871
 20
1819.15
 11
-87.6791
 21
1818.78
  0
LINE
  8
0
 10
-87.6791
 20
1818.78
 11
-87.1289
 21
1818.48
  0
LINE
  8
0
 10
-87.1289
 20
1818.48
 11
-86.5451
 21
1818.24
  0
LINE
  8
0
 10
-86.5451
 20
1818.24
 11
-85.9369
 21
1818.09
  0
LINE
  8
0
 10
-85.9369
 20
1818.09
 11
-85.3139
 21
1818.01
  0
LINE
  8
0
 10
-85.3139
 20
1818.01
 11
85.3139
 21
1818.01
  0
LINE
  8
0
 10
85.3139
 20
1818.01
 11
85.9369
 21
1818.09
  0
LINE
  8
0
 10
-84.7512
 20
1819.51
 11
-85.2495
 21
1819.57
  0
LINE
  8
0
 10
-85.2495
 20
1819.57
 11
-85.7361
 21
1819.7
  0
LINE
  8
0
 10
-85.7361
 20
1819.7
 11
-86.2031
 21
1819.88
  0
LINE
  8
0
 10
-86.2031
 20
1819.88
 11
-86.6433
 21
1820.12
  0
LINE
  8
0
 10
-86.6433
 20
1820.12
 11
-87.0497
 21
1820.42
  0
LINE
  8
0
 10
-87.0497
 20
1820.42
 11
-87.4159
 21
1820.76
  0
LINE
  8
0
 10
-87.4159
 20
1820.76
 11
-87.7361
 21
1821.15
  0
LINE
  8
0
 10
-87.7361
 20
1821.15
 11
-88.0052
 21
1821.57
  0
LINE
  8
0
 10
-88.0052
 20
1821.57
 11
-88.2191
 21
1822.03
  0
LINE
  8
0
 10
-88.2191
 20
1822.03
 11
-88.3743
 21
1822.51
  0
LINE
  8
0
 10
-88.3743
 20
1822.51
 11
-88.4685
 21
1823
  0
LINE
  8
0
 10
-88.4685
 20
1823
 11
-88.5
 21
1823.5
  0
LINE
  8
0
 10
-88.5
 20
1823.5
 11
-88.5
 21
2082.5
  0
LINE
  8
0
 10
-88.5
 20
2082.5
 11
-88.4685
 21
2083
  0
LINE
  8
0
 10
-88.4685
 20
2083
 11
-88.3743
 21
2083.49
  0
LINE
  8
0
 10
-88.3743
 20
2083.49
 11
-88.2191
 21
2083.97
  0
LINE
  8
0
 10
-88.2191
 20
2083.97
 11
-88.0052
 21
2084.43
  0
LINE
  8
0
 10
-88.0052
 20
2084.43
 11
-87.7361
 21
2084.85
  0
LINE
  8
0
 10
-87.7361
 20
2084.85
 11
-87.4159
 21
2085.24
  0
LINE
  8
0
 10
-87.4159
 20
2085.24
 11
-87.0497
 21
2085.58
  0
LINE
  8
0
 10
-87.0497
 20
2085.58
 11
-86.6433
 21
2085.88
  0
LINE
  8
0
 10
-86.6433
 20
2085.88
 11
-86.2031
 21
2086.12
  0
LINE
  8
0
 10
-86.2031
 20
2086.12
 11
-85.7361
 21
2086.3
  0
LINE
  8
0
 10
-85.7361
 20
2086.3
 11
-85.2495
 21
2086.43
  0
LINE
  8
0
 10
-85.2495
 20
2086.43
 11
-84.7512
 21
2086.49
  0
LINE
  8
0
 10
-84.7512
 20
2086.49
 11
84.7512
 21
2086.49
  0
LINE
  8
0
 10
84.7512
 20
2086.49
 11
85.2495
 21
2086.43
  0
LINE
  8
0
 10
85.2495
 20
2086.43
 11
85.7361
 21
2086.3
  0
LINE
  8
0
 10
85.7361
 20
2086.3
 11
86.2031
 21
2086.12
  0
LINE
  8
0
 10
86.2031
 20
2086.12
 11
86.6433
 21
2085.88
  0
LINE
  8
0
 10
86.6433
 20
2085.88
 11
87.0497
 21
2085.58
  0
LINE
  8
0
 10
87.0497
 20
2085.58
 11
87.4159
 21
2085.24
  0
LINE
  8
0
 10
87.4159
 20
2085.24
 11
87.7361
 21
2084.85
  0
LINE
  8
0
 10
87.7361
 20
2084.85
 11
88.0052
 21
2084.43
  0
LINE
  8
0
 10
88.0052
 20
2084.43
 11
88.2191
 21
2083.97
  0
LINE
  8
0
 10
88.2191
 20
2083.97
 11
88.3743
 21
2083.49
  0
LINE
  8
0
 10
88.3743
 20
2083.49
 11
88.4685
 21
2083
  0
LINE
  8
0
 10
88.4685
 20
2083
 11
88.5
 21
2082.5
  0
LINE
  8
0
 10
88.5
 20
2082.5
 11
88.5
 21
1823.5
  0
LINE
  8
0
 10
88.5
 20
1823.5
 11
88.4685
 21
1823
  0
LINE
  8
0
 10
88.4685
 20
1823
 11
88.3743
 21
1822.51
  0
LINE
  8
0
 10
88.3743
 20
1822.51
 11
88.2191
 21
1822.03
  0
LINE
  8
0
 10
88.2191
 20
1822.03
 11
88.0052
 21
1821.57
  0
LINE
  8
0
 10
88.0052
 20
1821.57
 11
87.7361
 21
1821.15
  0
LINE
  8
0
 10
87.7361
 20
1821.15
 11
87.4159
 21
1820.76
  0
LINE
  8
0
 10
87.4159
 20
1820.76
 11
87.0497
 21
1820.42
  0
LINE
  8
0
 10
87.0497
 20
1820.42
 11
86.6433
 21
1820.12
  0
LINE
  8
0
 10
86.6433
 20
1820.12
 11
86.2031
 21
1819.88
  0
LINE
  8
0
 10
86.2031
 20
1819.88
 11
85.7361
 21
1819.7
  0
LINE
  8
0
 10
85.7361
 20
1819.7
 11
85.2495
 21
1819.57
  0
LINE
  8
0
 10
85.2495
 20
1819.57
 11
84.7512
 21
1819.51
  0
LINE
  8
0
 10
84.7512
 20
1819.51
 11
-84.7512
 21
1819.51
  0
LINE
  8
0
 10
85.9369
 20
1539.09
 11
86.5451
 21
1539.24
  0
LINE
  8
0
 10
86.5451
 20
1539.24
 11
87.1289
 21
1539.48
  0
LINE
  8
0
 10
87.1289
 20
1539.48
 11
87.6791
 21
1539.78
  0
LINE
  8
0
 10
87.6791
 20
1539.78
 11
88.1871
 21
1540.15
  0
LINE
  8
0
 10
88.1871
 20
1540.15
 11
88.6448
 21
1540.58
  0
LINE
  8
0
 10
88.6448
 20
1540.58
 11
89.0451
 21
1541.06
  0
LINE
  8
0
 10
89.0451
 20
1541.06
 11
89.3815
 21
1541.59
  0
LINE
  8
0
 10
89.3815
 20
1541.59
 11
89.6489
 21
1542.16
  0
LINE
  8
0
 10
89.6489
 20
1542.16
 11
89.8429
 21
1542.76
  0
LINE
  8
0
 10
89.8429
 20
1542.76
 11
89.9606
 21
1543.37
  0
LINE
  8
0
 10
89.9606
 20
1543.37
 11
90
 21
1544
  0
LINE
  8
0
 10
90
 20
1544
 11
90
 21
1804
  0
LINE
  8
0
 10
90
 20
1804
 11
89.9606
 21
1804.63
  0
LINE
  8
0
 10
89.9606
 20
1804.63
 11
89.8429
 21
1805.24
  0
LINE
  8
0
 10
89.8429
 20
1805.24
 11
89.6489
 21
1805.84
  0
LINE
  8
0
 10
89.6489
 20
1805.84
 11
89.3815
 21
1806.41
  0
LINE
  8
0
 10
89.3815
 20
1806.41
 11
89.0451
 21
1806.94
  0
LINE
  8
0
 10
89.0451
 20
1806.94
 11
88.6448
 21
1807.42
  0
LINE
  8
0
 10
88.6448
 20
1807.42
 11
88.1871
 21
1807.85
  0
LINE
  8
0
 10
88.1871
 20
1807.85
 11
87.6791
 21
1808.22
  0
LINE
  8
0
 10
87.6791
 20
1808.22
 11
87.1289
 21
1808.52
  0
LINE
  8
0
 10
87.1289
 20
1808.52
 11
86.5451
 21
1808.76
  0
LINE
  8
0
 10
86.5451
 20
1808.76
 11
85.9369
 21
1808.91
  0
LINE
  8
0
 10
85.9369
 20
1808.91
 11
85.3139
 21
1808.99
  0
LINE
  8
0
 10
85.3139
 20
1808.99
 11
-85.3139
 21
1808.99
  0
LINE
  8
0
 10
-85.3139
 20
1808.99
 11
-85.9369
 21
1808.91
  0
LINE
  8
0
 10
-85.9369
 20
1808.91
 11
-86.5451
 21
1808.76
  0
LINE
  8
0
 10
-86.5451
 20
1808.76
 11
-87.1289
 21
1808.52
  0
LINE
  8
0
 10
-87.1289
 20
1808.52
 11
-87.6791
 21
1808.22
  0
LINE
  8
0
 10
-87.6791
 20
1808.22
 11
-88.1871
 21
1807.85
  0
LINE
  8
0
 10
-88.1871
 20
1807.85
 11
-88.6448
 21
1807.42
  0
LINE
  8
0
 10
-88.6448
 20
1807.42
 11
-89.0451
 21
1806.94
  0
LINE
  8
0
 10
-89.0451
 20
1806.94
 11
-89.3815
 21
1806.41
  0
LINE
  8
0
 10
-89.3815
 20
1806.41
 11
-89.6489
 21
1805.84
  0
LINE
  8
0
 10
-89.6489
 20
1805.84
 11
-89.8429
 21
1805.24
  0
LINE
  8
0
 10
-89.8429
 20
1805.24
 11
-89.9606
 21
1804.63
  0
LINE
  8
0
 10
-89.9606
 20
1804.63
 11
-90
 21
1804
  0
LINE
  8
0
 10
-90
 20
1804
 11
-90
 21
1544
  0
LINE
  8
0
 10
-90
 20
1544
 11
-89.9606
 21
1543.37
  0
LINE
  8
0
 10
-89.9606
 20
1543.37
 11
-89.8429
 21
1542.76
  0
LINE
  8
0
 10
-89.8429
 20
1542.76
 11
-89.6489
 21
1542.16
  0
LINE
  8
0
 10
-89.6489
 20
1542.16
 11
-89.3815
 21
1541.59
  0
LINE
  8
0
 10
-89.3815
 20
1541.59
 11
-89.0451
 21
1541.06
  0
LINE
  8
0
 10
-89.0451
 20
1541.06
 11
-88.6448
 21
1540.58
  0
LINE
  8
0
 10
-88.6448
 20
1540.58
 11
-88.1871
 21
1540.15
  0
LINE
  8
0
 10
-88.1871
 20
1540.15
 11
-87.6791
 21
1539.78
  0
LINE
  8
0
 10
-87.6791
 20
1539.78
 11
-87.1289
 21
1539.48
  0
LINE
  8
0
 10
-87.1289
 20
1539.48
 11
-86.5451
 21
1539.24
  0
LINE
  8
0
 10
-86.5451
 20
1539.24
 11
-85.9369
 21
1539.09
  0
LINE
  8
0
 10
-85.9369
 20
1539.09
 11
-85.3139
 21
1539.01
  0
LINE
  8
0
 10
-85.3139
 20
1539.01
 11
85.3139
 21
1539.01
  0
LINE
  8
0
 10
85.3139
 20
1539.01
 11
85.9369
 21
1539.09
  0
LINE
  8
0
 10
-84.7512
 20
1540.51
 11
-85.2495
 21
1540.57
  0
LINE
  8
0
 10
-85.2495
 20
1540.57
 11
-85.7361
 21
1540.7
  0
LINE
  8
0
 10
-85.7361
 20
1540.7
 11
-86.2031
 21
1540.88
  0
LINE
  8
0
 10
-86.2031
 20
1540.88
 11
-86.6433
 21
1541.12
  0
LINE
  8
0
 10
-86.6433
 20
1541.12
 11
-87.0497
 21
1541.42
  0
LINE
  8
0
 10
-87.0497
 20
1541.42
 11
-87.4159
 21
1541.76
  0
LINE
  8
0
 10
-87.4159
 20
1541.76
 11
-87.7361
 21
1542.15
  0
LINE
  8
0
 10
-87.7361
 20
1542.15
 11
-88.0052
 21
1542.57
  0
LINE
  8
0
 10
-88.0052
 20
1542.57
 11
-88.2191
 21
1543.03
  0
LINE
  8
0
 10
-88.2191
 20
1543.03
 11
-88.3743
 21
1543.51
  0
LINE
  8
0
 10
-88.3743
 20
1543.51
 11
-88.4685
 21
1544
  0
LINE
  8
0
 10
-88.4685
 20
1544
 11
-88.5
 21
1544.5
  0
LINE
  8
0
 10
-88.5
 20
1544.5
 11
-88.5
 21
1803.5
  0
LINE
  8
0
 10
-88.5
 20
1803.5
 11
-88.4685
 21
1804
  0
LINE
  8
0
 10
-88.4685
 20
1804
 11
-88.3743
 21
1804.49
  0
LINE
  8
0
 10
-88.3743
 20
1804.49
 11
-88.2191
 21
1804.97
  0
LINE
  8
0
 10
-88.2191
 20
1804.97
 11
-88.0052
 21
1805.43
  0
LINE
  8
0
 10
-88.0052
 20
1805.43
 11
-87.7361
 21
1805.85
  0
LINE
  8
0
 10
-87.7361
 20
1805.85
 11
-87.4159
 21
1806.24
  0
LINE
  8
0
 10
-87.4159
 20
1806.24
 11
-87.0497
 21
1806.58
  0
LINE
  8
0
 10
-87.0497
 20
1806.58
 11
-86.6433
 21
1806.88
  0
LINE
  8
0
 10
-86.6433
 20
1806.88
 11
-86.2031
 21
1807.12
  0
LINE
  8
0
 10
-86.2031
 20
1807.12
 11
-85.7361
 21
1807.3
  0
LINE
  8
0
 10
-85.7361
 20
1807.3
 11
-85.2495
 21
1807.43
  0
LINE
  8
0
 10
-85.2495
 20
1807.43
 11
-84.7512
 21
1807.49
  0
LINE
  8
0
 10
-84.7512
 20
1807.49
 11
84.7512
 21
1807.49
  0
LINE
  8
0
 10
84.7512
 20
1807.49
 11
85.2495
 21
1807.43
  0
LINE
  8
0
 10
85.2495
 20
1807.43
 11
85.7361
 21
1807.3
  0
LINE
  8
0
 10
85.7361
 20
1807.3
 11
86.2031
 21
1807.12
  0
LINE
  8
0
 10
86.2031
 20
1807.12
 11
86.6433
 21
1806.88
  0
LINE
  8
0
 10
86.6433
 20
1806.88
 11
87.0497
 21
1806.58
  0
LINE
  8
0
 10
87.0497
 20
1806.58
 11
87.4159
 21
1806.24
  0
LINE
  8
0
 10
87.4159
 20
1806.24
 11
87.7361
 21
1805.85
  0
LINE
  8
0
 10
87.7361
 20
1805.85
 11
88.0052
 21
1805.43
  0
LINE
  8
0
 10
88.0052
 20
1805.43
 11
88.2191
 21
1804.97
  0
LINE
  8
0
 10
88.2191
 20
1804.97
 11
88.3743
 21
1804.49
  0
LINE
  8
0
 10
88.3743
 20
1804.49
 11
88.4685
 21
1804
  0
LINE
  8
0
 10
88.4685
 20
1804
 11
88.5
 21
1803.5
  0
LINE
  8
0
 10
88.5
 20
1803.5
 11
88.5
 21
1544.5
  0
LINE
  8
0
 10
88.5
 20
1544.5
 11
88.4685
 21
1544
  0
LINE
  8
0
 10
88.4685
 20
1544
 11
88.3743
 21
1543.51
  0
LINE
  8
0
 10
88.3743
 20
1543.51
 11
88.2191
 21
1543.03
  0
LINE
  8
0
 10
88.2191
 20
1543.03
 11
88.0052
 21
1542.57
  0
LINE
  8
0
 10
88.0052
 20
1542.57
 11
87.7361
 21
1542.15
  0
LINE
  8
0
 10
87.7361
 20
1542.15
 11
87.4159
 21
1541.76
  0
LINE
  8
0
 10
87.4159
 20
1541.76
 11
87.0497
 21
1541.42
  0
LINE
  8
0
 10
87.0497
 20
1541.42
 11
86.6433
 21
1541.12
  0
LINE
  8
0
 10
86.6433
 20
1541.12
 11
86.2031
 21
1540.88
  0
LINE
  8
0
 10
86.2031
 20
1540.88
 11
85.7361
 21
1540.7
  0
LINE
  8
0
 10
85.7361
 20
1540.7
 11
85.2495
 21
1540.57
  0
LINE
  8
0
 10
85.2495
 20
1540.57
 11
84.7512
 21
1540.51
  0
LINE
  8
0
 10
84.7512
 20
1540.51
 11
-84.7512
 21
1540.51
  0
LINE
  8
0
 10
85.9369
 20
1260.09
 11
86.5451
 21
1260.24
  0
LINE
  8
0
 10
86.5451
 20
1260.24
 11
87.1289
 21
1260.48
  0
LINE
  8
0
 10
87.1289
 20
1260.48
 11
87.6791
 21
1260.78
  0
LINE
  8
0
 10
87.6791
 20
1260.78
 11
88.1871
 21
1261.15
  0
LINE
  8
0
 10
88.1871
 20
1261.15
 11
88.6448
 21
1261.58
  0
LINE
  8
0
 10
88.6448
 20
1261.58
 11
89.0451
 21
1262.06
  0
LINE
  8
0
 10
89.0451
 20
1262.06
 11
89.3815
 21
1262.59
  0
LINE
  8
0
 10
89.3815
 20
1262.59
 11
89.6489
 21
1263.16
  0
LINE
  8
0
 10
89.6489
 20
1263.16
 11
89.8429
 21
1263.76
  0
LINE
  8
0
 10
89.8429
 20
1263.76
 11
89.9606
 21
1264.37
  0
LINE
  8
0
 10
89.9606
 20
1264.37
 11
90
 21
1265
  0
LINE
  8
0
 10
90
 20
1265
 11
90
 21
1525
  0
LINE
  8
0
 10
90
 20
1525
 11
89.9606
 21
1525.63
  0
LINE
  8
0
 10
89.9606
 20
1525.63
 11
89.8429
 21
1526.24
  0
LINE
  8
0
 10
89.8429
 20
1526.24
 11
89.6489
 21
1526.84
  0
LINE
  8
0
 10
89.6489
 20
1526.84
 11
89.3815
 21
1527.41
  0
LINE
  8
0
 10
89.3815
 20
1527.41
 11
89.0451
 21
1527.94
  0
LINE
  8
0
 10
89.0451
 20
1527.94
 11
88.6448
 21
1528.42
  0
LINE
  8
0
 10
88.6448
 20
1528.42
 11
88.1871
 21
1528.85
  0
LINE
  8
0
 10
88.1871
 20
1528.85
 11
87.6791
 21
1529.22
  0
LINE
  8
0
 10
87.6791
 20
1529.22
 11
87.1289
 21
1529.52
  0
LINE
  8
0
 10
87.1289
 20
1529.52
 11
86.5451
 21
1529.76
  0
LINE
  8
0
 10
86.5451
 20
1529.76
 11
85.9369
 21
1529.91
  0
LINE
  8
0
 10
85.9369
 20
1529.91
 11
85.3139
 21
1529.99
  0
LINE
  8
0
 10
85.3139
 20
1529.99
 11
-85.3139
 21
1529.99
  0
LINE
  8
0
 10
-85.3139
 20
1529.99
 11
-85.9369
 21
1529.91
  0
LINE
  8
0
 10
-85.9369
 20
1529.91
 11
-86.5451
 21
1529.76
  0
LINE
  8
0
 10
-86.5451
 20
1529.76
 11
-87.1289
 21
1529.52
  0
LINE
  8
0
 10
-87.1289
 20
1529.52
 11
-87.6791
 21
1529.22
  0
LINE
  8
0
 10
-87.6791
 20
1529.22
 11
-88.1871
 21
1528.85
  0
LINE
  8
0
 10
-88.1871
 20
1528.85
 11
-88.6448
 21
1528.42
  0
LINE
  8
0
 10
-88.6448
 20
1528.42
 11
-89.0451
 21
1527.94
  0
LINE
  8
0
 10
-89.0451
 20
1527.94
 11
-89.3815
 21
1527.41
  0
LINE
  8
0
 10
-89.3815
 20
1527.41
 11
-89.6489
 21
1526.84
  0
LINE
  8
0
 10
-89.6489
 20
1526.84
 11
-89.8429
 21
1526.24
  0
LINE
  8
0
 10
-89.8429
 20
1526.24
 11
-89.9606
 21
1525.63
  0
LINE
  8
0
 10
-89.9606
 20
1525.63
 11
-90
 21
1525
  0
LINE
  8
0
 10
-90
 20
1525
 11
-90
 21
1265
  0
LINE
  8
0
 10
-90
 20
1265
 11
-89.9606
 21
1264.37
  0
LINE
  8
0
 10
-89.9606
 20
1264.37
 11
-89.8429
 21
1263.76
  0
LINE
  8
0
 10
-89.8429
 20
1263.76
 11
-89.6489
 21
1263.16
  0
LINE
  8
0
 10
-89.6489
 20
1263.16
 11
-89.3815
 21
1262.59
  0
LINE
  8
0
 10
-89.3815
 20
1262.59
 11
-89.0451
 21
1262.06
  0
LINE
  8
0
 10
-89.0451
 20
1262.06
 11
-88.6448
 21
1261.58
  0
LINE
  8
0
 10
-88.6448
 20
1261.58
 11
-88.1871
 21
1261.15
  0
LINE
  8
0
 10
-88.1871
 20
1261.15
 11
-87.6791
 21
1260.78
  0
LINE
  8
0
 10
-87.6791
 20
1260.78
 11
-87.1289
 21
1260.48
  0
LINE
  8
0
 10
-87.1289
 20
1260.48
 11
-86.5451
 21
1260.24
  0
LINE
  8
0
 10
-86.5451
 20
1260.24
 11
-85.9369
 21
1260.09
  0
LINE
  8
0
 10
-85.9369
 20
1260.09
 11
-85.3139
 21
1260.01
  0
LINE
  8
0
 10
-85.3139
 20
1260.01
 11
85.3139
 21
1260.01
  0
LINE
  8
0
 10
85.3139
 20
1260.01
 11
85.9369
 21
1260.09
  0
LINE
  8
0
 10
-84.6955
 20
1262.39
 11
-85.0833
 21
1262.44
  0
LINE
  8
0
 10
-85.0833
 20
1262.44
 11
-85.4619
 21
1262.54
  0
LINE
  8
0
 10
-85.4619
 20
1262.54
 11
-85.8254
 21
1262.68
  0
LINE
  8
0
 10
-85.8254
 20
1262.68
 11
-86.168
 21
1262.87
  0
LINE
  8
0
 10
-86.168
 20
1262.87
 11
-86.4843
 21
1263.1
  0
LINE
  8
0
 10
-86.4843
 20
1263.1
 11
-86.7692
 21
1263.37
  0
LINE
  8
0
 10
-86.7692
 20
1263.37
 11
-87.0184
 21
1263.67
  0
LINE
  8
0
 10
-87.0184
 20
1263.67
 11
-87.2279
 21
1264
  0
LINE
  8
0
 10
-87.2279
 20
1264
 11
-87.3943
 21
1264.35
  0
LINE
  8
0
 10
-87.3943
 20
1264.35
 11
-87.5151
 21
1264.73
  0
LINE
  8
0
 10
-87.5151
 20
1264.73
 11
-87.5884
 21
1265.11
  0
LINE
  8
0
 10
-87.5884
 20
1265.11
 11
-87.6129
 21
1265.5
  0
LINE
  8
0
 10
-87.6129
 20
1265.5
 11
-87.6129
 21
1524.5
  0
LINE
  8
0
 10
-87.6129
 20
1524.5
 11
-87.5884
 21
1524.89
  0
LINE
  8
0
 10
-87.5884
 20
1524.89
 11
-87.5151
 21
1525.27
  0
LINE
  8
0
 10
-87.5151
 20
1525.27
 11
-87.3943
 21
1525.65
  0
LINE
  8
0
 10
-87.3943
 20
1525.65
 11
-87.2279
 21
1526
  0
LINE
  8
0
 10
-87.2279
 20
1526
 11
-87.0184
 21
1526.33
  0
LINE
  8
0
 10
-87.0184
 20
1526.33
 11
-86.7692
 21
1526.63
  0
LINE
  8
0
 10
-86.7692
 20
1526.63
 11
-86.4843
 21
1526.9
  0
LINE
  8
0
 10
-86.4843
 20
1526.9
 11
-86.168
 21
1527.13
  0
LINE
  8
0
 10
-86.168
 20
1527.13
 11
-85.8254
 21
1527.32
  0
LINE
  8
0
 10
-85.8254
 20
1527.32
 11
-85.4619
 21
1527.46
  0
LINE
  8
0
 10
-85.4619
 20
1527.46
 11
-85.0833
 21
1527.56
  0
LINE
  8
0
 10
-85.0833
 20
1527.56
 11
-84.6955
 21
1527.61
  0
LINE
  8
0
 10
-84.6955
 20
1527.61
 11
84.6955
 21
1527.61
  0
LINE
  8
0
 10
84.6955
 20
1527.61
 11
85.0833
 21
1527.56
  0
LINE
  8
0
 10
85.0833
 20
1527.56
 11
85.4619
 21
1527.46
  0
LINE
  8
0
 10
85.4619
 20
1527.46
 11
85.8254
 21
1527.32
  0
LINE
  8
0
 10
85.8254
 20
1527.32
 11
86.168
 21
1527.13
  0
LINE
  8
0
 10
86.168
 20
1527.13
 11
86.4843
 21
1526.9
  0
LINE
  8
0
 10
86.4843
 20
1526.9
 11
86.7692
 21
1526.63
  0
LINE
  8
0
 10
86.7692
 20
1526.63
 11
87.0184
 21
1526.33
  0
LINE
  8
0
 10
87.0184
 20
1526.33
 11
87.2279
 21
1526
  0
LINE
  8
0
 10
87.2279
 20
1526
 11
87.3943
 21
1525.65
  0
LINE
  8
0
 10
87.3943
 20
1525.65
 11
87.5151
 21
1525.27
  0
LINE
  8
0
 10
87.5151
 20
1525.27
 11
87.5884
 21
1524.89
  0
LINE
  8
0
 10
87.5884
 20
1524.89
 11
87.6129
 21
1524.5
  0
LINE
  8
0
 10
87.6129
 20
1524.5
 11
87.6129
 21
1265.5
  0
LINE
  8
0
 10
87.6129
 20
1265.5
 11
87.5884
 21
1265.11
  0
LINE
  8
0
 10
87.5884
 20
1265.11
 11
87.5151
 21
1264.73
  0
LINE
  8
0
 10
87.5151
 20
1264.73
 11
87.3943
 21
1264.35
  0
LINE
  8
0
 10
87.3943
 20
1264.35
 11
87.2279
 21
1264
  0
LINE
  8
0
 10
87.2279
 20
1264
 11
87.0184
 21
1263.67
  0
LINE
  8
0
 10
87.0184
 20
1263.67
 11
86.7692
 21
1263.37
  0
LINE
  8
0
 10
86.7692
 20
1263.37
 11
86.4843
 21
1263.1
  0
LINE
  8
0
 10
86.4843
 20
1263.1
 11
86.168
 21
1262.87
  0
LINE
  8
0
 10
86.168
 20
1262.87
 11
85.8254
 21
1262.68
  0
LINE
  8
0
 10
85.8254
 20
1262.68
 11
85.4619
 21
1262.54
  0
LINE
  8
0
 10
85.4619
 20
1262.54
 11
85.0833
 21
1262.44
  0
LINE
  8
0
 10
85.0833
 20
1262.44
 11
84.6955
 21
1262.39
  0
LINE
  8
0
 10
84.6955
 20
1262.39
 11
-84.6955
 21
1262.39
  0
LINE
  8
0
 10
85.9369
 20
981.089
 11
86.5451
 21
981.245
  0
LINE
  8
0
 10
86.5451
 20
981.245
 11
87.1289
 21
981.476
  0
LINE
  8
0
 10
87.1289
 20
981.476
 11
87.6791
 21
981.778
  0
LINE
  8
0
 10
87.6791
 20
981.778
 11
88.1871
 21
982.147
  0
LINE
  8
0
 10
88.1871
 20
982.147
 11
88.6448
 21
982.577
  0
LINE
  8
0
 10
88.6448
 20
982.577
 11
89.0451
 21
983.061
  0
LINE
  8
0
 10
89.0451
 20
983.061
 11
89.3815
 21
983.591
  0
LINE
  8
0
 10
89.3815
 20
983.591
 11
89.6489
 21
984.159
  0
LINE
  8
0
 10
89.6489
 20
984.159
 11
89.8429
 21
984.757
  0
LINE
  8
0
 10
89.8429
 20
984.757
 11
89.9606
 21
985.373
  0
LINE
  8
0
 10
89.9606
 20
985.373
 11
90
 21
986
  0
LINE
  8
0
 10
90
 20
986
 11
90
 21
1246
  0
LINE
  8
0
 10
90
 20
1246
 11
89.9606
 21
1246.63
  0
LINE
  8
0
 10
89.9606
 20
1246.63
 11
89.8429
 21
1247.24
  0
LINE
  8
0
 10
89.8429
 20
1247.24
 11
89.6489
 21
1247.84
  0
LINE
  8
0
 10
89.6489
 20
1247.84
 11
89.3815
 21
1248.41
  0
LINE
  8
0
 10
89.3815
 20
1248.41
 11
89.0451
 21
1248.94
  0
LINE
  8
0
 10
89.0451
 20
1248.94
 11
88.6448
 21
1249.42
  0
LINE
  8
0
 10
88.6448
 20
1249.42
 11
88.1871
 21
1249.85
  0
LINE
  8
0
 10
88.1871
 20
1249.85
 11
87.6791
 21
1250.22
  0
LINE
  8
0
 10
87.6791
 20
1250.22
 11
87.1289
 21
1250.52
  0
LINE
  8
0
 10
87.1289
 20
1250.52
 11
86.5451
 21
1250.76
  0
LINE
  8
0
 10
86.5451
 20
1250.76
 11
85.9369
 21
1250.91
  0
LINE
  8
0
 10
85.9369
 20
1250.91
 11
85.3139
 21
1250.99
  0
LINE
  8
0
 10
85.3139
 20
1250.99
 11
-85.3139
 21
1250.99
  0
LINE
  8
0
 10
-85.3139
 20
1250.99
 11
-85.9369
 21
1250.91
  0
LINE
  8
0
 10
-85.9369
 20
1250.91
 11
-86.5451
 21
1250.76
  0
LINE
  8
0
 10
-86.5451
 20
1250.76
 11
-87.1289
 21
1250.52
  0
LINE
  8
0
 10
-87.1289
 20
1250.52
 11
-87.6791
 21
1250.22
  0
LINE
  8
0
 10
-87.6791
 20
1250.22
 11
-88.1871
 21
1249.85
  0
LINE
  8
0
 10
-88.1871
 20
1249.85
 11
-88.6448
 21
1249.42
  0
LINE
  8
0
 10
-88.6448
 20
1249.42
 11
-89.0451
 21
1248.94
  0
LINE
  8
0
 10
-89.0451
 20
1248.94
 11
-89.3815
 21
1248.41
  0
LINE
  8
0
 10
-89.3815
 20
1248.41
 11
-89.6489
 21
1247.84
  0
LINE
  8
0
 10
-89.6489
 20
1247.84
 11
-89.8429
 21
1247.24
  0
LINE
  8
0
 10
-89.8429
 20
1247.24
 11
-89.9606
 21
1246.63
  0
LINE
  8
0
 10
-89.9606
 20
1246.63
 11
-90
 21
1246
  0
LINE
  8
0
 10
-90
 20
1246
 11
-90
 21
986
  0
LINE
  8
0
 10
-90
 20
986
 11
-89.9606
 21
985.373
  0
LINE
  8
0
 10
-89.9606
 20
985.373
 11
-89.8429
 21
984.757
  0
LINE
  8
0
 10
-89.8429
 20
984.757
 11
-89.6489
 21
984.159
  0
LINE
  8
0
 10
-89.6489
 20
984.159
 11
-89.3815
 21
983.591
  0
LINE
  8
0
 10
-89.3815
 20
983.591
 11
-89.0451
 21
983.061
  0
LINE
  8
0
 10
-89.0451
 20
983.061
 11
-88.6448
 21
982.577
  0
LINE
  8
0
 10
-88.6448
 20
982.577
 11
-88.1871
 21
982.147
  0
LINE
  8
0
 10
-88.1871
 20
982.147
 11
-87.6791
 21
981.778
  0
LINE
  8
0
 10
-87.6791
 20
981.778
 11
-87.1289
 21
981.476
  0
LINE
  8
0
 10
-87.1289
 20
981.476
 11
-86.5451
 21
981.245
  0
LINE
  8
0
 10
-86.5451
 20
981.245
 11
-85.9369
 21
981.089
  0
LINE
  8
0
 10
-85.9369
 20
981.089
 11
-85.3139
 21
981.01
  0
LINE
  8
0
 10
-85.3139
 20
981.01
 11
85.3139
 21
981.01
  0
LINE
  8
0
 10
85.3139
 20
981.01
 11
85.9369
 21
981.089
  0
LINE
  8
0
 10
82.3659
 20
1241.37
 11
82.0999
 21
1241.4
  0
LINE
  8
0
 10
82.0999
 20
1241.4
 11
81.8401
 21
1241.47
  0
LINE
  8
0
 10
81.8401
 20
1241.47
 11
81.5908
 21
1241.57
  0
LINE
  8
0
 10
81.5908
 20
1241.57
 11
81.3559
 21
1241.7
  0
LINE
  8
0
 10
81.3559
 20
1241.7
 11
81.1389
 21
1241.85
  0
LINE
  8
0
 10
81.1389
 20
1241.85
 11
80.9434
 21
1242.04
  0
LINE
  8
0
 10
80.9434
 20
1242.04
 11
80.7725
 21
1242.24
  0
LINE
  8
0
 10
80.7725
 20
1242.24
 11
80.6288
 21
1242.47
  0
LINE
  8
0
 10
80.6288
 20
1242.47
 11
80.5146
 21
1242.71
  0
LINE
  8
0
 10
80.5146
 20
1242.71
 11
80.4318
 21
1242.97
  0
LINE
  8
0
 10
80.4318
 20
1242.97
 11
80.3815
 21
1243.23
  0
LINE
  8
0
 10
80.3815
 20
1243.23
 11
80.3647
 21
1243.5
  0
LINE
  8
0
 10
80.3647
 20
1243.5
 11
80.3815
 21
1243.77
  0
LINE
  8
0
 10
80.3815
 20
1243.77
 11
80.4318
 21
1244.03
  0
LINE
  8
0
 10
80.4318
 20
1244.03
 11
80.5146
 21
1244.29
  0
LINE
  8
0
 10
80.5146
 20
1244.29
 11
80.6288
 21
1244.53
  0
LINE
  8
0
 10
80.6288
 20
1244.53
 11
80.7725
 21
1244.76
  0
LINE
  8
0
 10
80.7725
 20
1244.76
 11
80.9434
 21
1244.96
  0
LINE
  8
0
 10
80.9434
 20
1244.96
 11
81.1389
 21
1245.15
  0
LINE
  8
0
 10
81.1389
 20
1245.15
 11
81.3559
 21
1245.3
  0
LINE
  8
0
 10
81.3559
 20
1245.3
 11
81.5908
 21
1245.43
  0
LINE
  8
0
 10
81.5908
 20
1245.43
 11
81.8401
 21
1245.53
  0
LINE
  8
0
 10
81.8401
 20
1245.53
 11
82.0999
 21
1245.6
  0
LINE
  8
0
 10
82.0999
 20
1245.6
 11
82.3659
 21
1245.63
  0
LINE
  8
0
 10
82.3659
 20
1245.63
 11
82.6341
 21
1245.63
  0
LINE
  8
0
 10
82.6341
 20
1245.63
 11
82.9001
 21
1245.6
  0
LINE
  8
0
 10
82.9001
 20
1245.6
 11
83.1598
 21
1245.53
  0
LINE
  8
0
 10
83.1598
 20
1245.53
 11
83.4092
 21
1245.43
  0
LINE
  8
0
 10
83.4092
 20
1245.43
 11
83.6441
 21
1245.3
  0
LINE
  8
0
 10
83.6441
 20
1245.3
 11
83.8611
 21
1245.15
  0
LINE
  8
0
 10
83.8611
 20
1245.15
 11
84.0566
 21
1244.96
  0
LINE
  8
0
 10
84.0566
 20
1244.96
 11
84.2275
 21
1244.76
  0
LINE
  8
0
 10
84.2275
 20
1244.76
 11
84.3712
 21
1244.53
  0
LINE
  8
0
 10
84.3712
 20
1244.53
 11
84.4853
 21
1244.29
  0
LINE
  8
0
 10
84.4853
 20
1244.29
 11
84.5682
 21
1244.03
  0
LINE
  8
0
 10
84.5682
 20
1244.03
 11
84.6185
 21
1243.77
  0
LINE
  8
0
 10
84.6185
 20
1243.77
 11
84.6353
 21
1243.5
  0
LINE
  8
0
 10
84.6353
 20
1243.5
 11
84.6185
 21
1243.23
  0
LINE
  8
0
 10
84.6185
 20
1243.23
 11
84.5682
 21
1242.97
  0
LINE
  8
0
 10
84.5682
 20
1242.97
 11
84.4853
 21
1242.71
  0
LINE
  8
0
 10
84.4853
 20
1242.71
 11
84.3712
 21
1242.47
  0
LINE
  8
0
 10
84.3712
 20
1242.47
 11
84.2275
 21
1242.24
  0
LINE
  8
0
 10
84.2275
 20
1242.24
 11
84.0566
 21
1242.04
  0
LINE
  8
0
 10
84.0566
 20
1242.04
 11
83.8611
 21
1241.85
  0
LINE
  8
0
 10
83.8611
 20
1241.85
 11
83.6441
 21
1241.7
  0
LINE
  8
0
 10
83.6441
 20
1241.7
 11
83.4092
 21
1241.57
  0
LINE
  8
0
 10
83.4092
 20
1241.57
 11
83.1598
 21
1241.47
  0
LINE
  8
0
 10
83.1598
 20
1241.47
 11
82.9001
 21
1241.4
  0
LINE
  8
0
 10
82.9001
 20
1241.4
 11
82.6341
 21
1241.37
  0
LINE
  8
0
 10
82.6341
 20
1241.37
 11
82.3659
 21
1241.37
  0
LINE
  8
0
 10
-82.6341
 20
1241.37
 11
-82.9001
 21
1241.4
  0
LINE
  8
0
 10
-82.9001
 20
1241.4
 11
-83.1598
 21
1241.47
  0
LINE
  8
0
 10
-83.1598
 20
1241.47
 11
-83.4092
 21
1241.57
  0
LINE
  8
0
 10
-83.4092
 20
1241.57
 11
-83.6441
 21
1241.7
  0
LINE
  8
0
 10
-83.6441
 20
1241.7
 11
-83.8611
 21
1241.85
  0
LINE
  8
0
 10
-83.8611
 20
1241.85
 11
-84.0566
 21
1242.04
  0
LINE
  8
0
 10
-84.0566
 20
1242.04
 11
-84.2275
 21
1242.24
  0
LINE
  8
0
 10
-84.2275
 20
1242.24
 11
-84.3712
 21
1242.47
  0
LINE
  8
0
 10
-84.3712
 20
1242.47
 11
-84.4853
 21
1242.71
  0
LINE
  8
0
 10
-84.4853
 20
1242.71
 11
-84.5682
 21
1242.97
  0
LINE
  8
0
 10
-84.5682
 20
1242.97
 11
-84.6185
 21
1243.23
  0
LINE
  8
0
 10
-84.6185
 20
1243.23
 11
-84.6353
 21
1243.5
  0
LINE
  8
0
 10
-84.6353
 20
1243.5
 11
-84.6185
 21
1243.77
  0
LINE
  8
0
 10
-84.6185
 20
1243.77
 11
-84.5682
 21
1244.03
  0
LINE
  8
0
 10
-84.5682
 20
1244.03
 11
-84.4853
 21
1244.29
  0
LINE
  8
0
 10
-84.4853
 20
1244.29
 11
-84.3712
 21
1244.53
  0
LINE
  8
0
 10
-84.3712
 20
1244.53
 11
-84.2275
 21
1244.76
  0
LINE
  8
0
 10
-84.2275
 20
1244.76
 11
-84.0566
 21
1244.96
  0
LINE
  8
0
 10
-84.0566
 20
1244.96
 11
-83.8611
 21
1245.15
  0
LINE
  8
0
 10
-83.8611
 20
1245.15
 11
-83.6441
 21
1245.3
  0
LINE
  8
0
 10
-83.6441
 20
1245.3
 11
-83.4092
 21
1245.43
  0
LINE
  8
0
 10
-83.4092
 20
1245.43
 11
-83.1598
 21
1245.53
  0
LINE
  8
0
 10
-83.1598
 20
1245.53
 11
-82.9001
 21
1245.6
  0
LINE
  8
0
 10
-82.9001
 20
1245.6
 11
-82.6341
 21
1245.63
  0
LINE
  8
0
 10
-82.6341
 20
1245.63
 11
-82.3659
 21
1245.63
  0
LINE
  8
0
 10
-82.3659
 20
1245.63
 11
-82.0999
 21
1245.6
  0
LINE
  8
0
 10
-82.0999
 20
1245.6
 11
-81.8401
 21
1245.53
  0
LINE
  8
0
 10
-81.8401
 20
1245.53
 11
-81.5908
 21
1245.43
  0
LINE
  8
0
 10
-81.5908
 20
1245.43
 11
-81.3559
 21
1245.3
  0
LINE
  8
0
 10
-81.3559
 20
1245.3
 11
-81.1389
 21
1245.15
  0
LINE
  8
0
 10
-81.1389
 20
1245.15
 11
-80.9434
 21
1244.96
  0
LINE
  8
0
 10
-80.9434
 20
1244.96
 11
-80.7725
 21
1244.76
  0
LINE
  8
0
 10
-80.7725
 20
1244.76
 11
-80.6288
 21
1244.53
  0
LINE
  8
0
 10
-80.6288
 20
1244.53
 11
-80.5146
 21
1244.29
  0
LINE
  8
0
 10
-80.5146
 20
1244.29
 11
-80.4318
 21
1244.03
  0
LINE
  8
0
 10
-80.4318
 20
1244.03
 11
-80.3815
 21
1243.77
  0
LINE
  8
0
 10
-80.3815
 20
1243.77
 11
-80.3647
 21
1243.5
  0
LINE
  8
0
 10
-80.3647
 20
1243.5
 11
-80.3815
 21
1243.23
  0
LINE
  8
0
 10
-80.3815
 20
1243.23
 11
-80.4318
 21
1242.97
  0
LINE
  8
0
 10
-80.4318
 20
1242.97
 11
-80.5146
 21
1242.71
  0
LINE
  8
0
 10
-80.5146
 20
1242.71
 11
-80.6288
 21
1242.47
  0
LINE
  8
0
 10
-80.6288
 20
1242.47
 11
-80.7725
 21
1242.24
  0
LINE
  8
0
 10
-80.7725
 20
1242.24
 11
-80.9434
 21
1242.04
  0
LINE
  8
0
 10
-80.9434
 20
1242.04
 11
-81.1389
 21
1241.85
  0
LINE
  8
0
 10
-81.1389
 20
1241.85
 11
-81.3559
 21
1241.7
  0
LINE
  8
0
 10
-81.3559
 20
1241.7
 11
-81.5908
 21
1241.57
  0
LINE
  8
0
 10
-81.5908
 20
1241.57
 11
-81.8401
 21
1241.47
  0
LINE
  8
0
 10
-81.8401
 20
1241.47
 11
-82.0999
 21
1241.4
  0
LINE
  8
0
 10
-82.0999
 20
1241.4
 11
-82.3659
 21
1241.37
  0
LINE
  8
0
 10
-82.3659
 20
1241.37
 11
-82.6341
 21
1241.37
  0
LINE
  8
0
 10
82.3659
 20
986.369
 11
82.0999
 21
986.403
  0
LINE
  8
0
 10
82.0999
 20
986.403
 11
81.8401
 21
986.469
  0
LINE
  8
0
 10
81.8401
 20
986.469
 11
81.5908
 21
986.568
  0
LINE
  8
0
 10
81.5908
 20
986.568
 11
81.3559
 21
986.697
  0
LINE
  8
0
 10
81.3559
 20
986.697
 11
81.1389
 21
986.855
  0
LINE
  8
0
 10
81.1389
 20
986.855
 11
80.9434
 21
987.038
  0
LINE
  8
0
 10
80.9434
 20
987.038
 11
80.7725
 21
987.245
  0
LINE
  8
0
 10
80.7725
 20
987.245
 11
80.6288
 21
987.471
  0
LINE
  8
0
 10
80.6288
 20
987.471
 11
80.5146
 21
987.714
  0
LINE
  8
0
 10
80.5146
 20
987.714
 11
80.4318
 21
987.969
  0
LINE
  8
0
 10
80.4318
 20
987.969
 11
80.3815
 21
988.232
  0
LINE
  8
0
 10
80.3815
 20
988.232
 11
80.3647
 21
988.5
  0
LINE
  8
0
 10
80.3647
 20
988.5
 11
80.3815
 21
988.768
  0
LINE
  8
0
 10
80.3815
 20
988.768
 11
80.4318
 21
989.031
  0
LINE
  8
0
 10
80.4318
 20
989.031
 11
80.5146
 21
989.286
  0
LINE
  8
0
 10
80.5146
 20
989.286
 11
80.6288
 21
989.529
  0
LINE
  8
0
 10
80.6288
 20
989.529
 11
80.7725
 21
989.755
  0
LINE
  8
0
 10
80.7725
 20
989.755
 11
80.9434
 21
989.962
  0
LINE
  8
0
 10
80.9434
 20
989.962
 11
81.1389
 21
990.145
  0
LINE
  8
0
 10
81.1389
 20
990.145
 11
81.3559
 21
990.303
  0
LINE
  8
0
 10
81.3559
 20
990.303
 11
81.5908
 21
990.432
  0
LINE
  8
0
 10
81.5908
 20
990.432
 11
81.8401
 21
990.531
  0
LINE
  8
0
 10
81.8401
 20
990.531
 11
82.0999
 21
990.597
  0
LINE
  8
0
 10
82.0999
 20
990.597
 11
82.3659
 21
990.631
  0
LINE
  8
0
 10
82.3659
 20
990.631
 11
82.6341
 21
990.631
  0
LINE
  8
0
 10
82.6341
 20
990.631
 11
82.9001
 21
990.597
  0
LINE
  8
0
 10
82.9001
 20
990.597
 11
83.1598
 21
990.531
  0
LINE
  8
0
 10
83.1598
 20
990.531
 11
83.4092
 21
990.432
  0
LINE
  8
0
 10
83.4092
 20
990.432
 11
83.6441
 21
990.303
  0
LINE
  8
0
 10
83.6441
 20
990.303
 11
83.8611
 21
990.145
  0
LINE
  8
0
 10
83.8611
 20
990.145
 11
84.0566
 21
989.962
  0
LINE
  8
0
 10
84.0566
 20
989.962
 11
84.2275
 21
989.755
  0
LINE
  8
0
 10
84.2275
 20
989.755
 11
84.3712
 21
989.529
  0
LINE
  8
0
 10
84.3712
 20
989.529
 11
84.4853
 21
989.286
  0
LINE
  8
0
 10
84.4853
 20
989.286
 11
84.5682
 21
989.031
  0
LINE
  8
0
 10
84.5682
 20
989.031
 11
84.6185
 21
988.768
  0
LINE
  8
0
 10
84.6185
 20
988.768
 11
84.6353
 21
988.5
  0
LINE
  8
0
 10
84.6353
 20
988.5
 11
84.6185
 21
988.232
  0
LINE
  8
0
 10
84.6185
 20
988.232
 11
84.5682
 21
987.969
  0
LINE
  8
0
 10
84.5682
 20
987.969
 11
84.4853
 21
987.714
  0
LINE
  8
0
 10
84.4853
 20
987.714
 11
84.3712
 21
987.471
  0
LINE
  8
0
 10
84.3712
 20
987.471
 11
84.2275
 21
987.245
  0
LINE
  8
0
 10
84.2275
 20
987.245
 11
84.0566
 21
987.038
  0
LINE
  8
0
 10
84.0566
 20
987.038
 11
83.8611
 21
986.855
  0
LINE
  8
0
 10
83.8611
 20
986.855
 11
83.6441
 21
986.697
  0
LINE
  8
0
 10
83.6441
 20
986.697
 11
83.4092
 21
986.568
  0
LINE
  8
0
 10
83.4092
 20
986.568
 11
83.1598
 21
986.469
  0
LINE
  8
0
 10
83.1598
 20
986.469
 11
82.9001
 21
986.403
  0
LINE
  8
0
 10
82.9001
 20
986.403
 11
82.6341
 21
986.369
  0
LINE
  8
0
 10
82.6341
 20
986.369
 11
82.3659
 21
986.369
  0
LINE
  8
0
 10
-82.6341
 20
986.369
 11
-82.9001
 21
986.403
  0
LINE
  8
0
 10
-82.9001
 20
986.403
 11
-83.1598
 21
986.469
  0
LINE
  8
0
 10
-83.1598
 20
986.469
 11
-83.4092
 21
986.568
  0
LINE
  8
0
 10
-83.4092
 20
986.568
 11
-83.6441
 21
986.697
  0
LINE
  8
0
 10
-83.6441
 20
986.697
 11
-83.8611
 21
986.855
  0
LINE
  8
0
 10
-83.8611
 20
986.855
 11
-84.0566
 21
987.038
  0
LINE
  8
0
 10
-84.0566
 20
987.038
 11
-84.2275
 21
987.245
  0
LINE
  8
0
 10
-84.2275
 20
987.245
 11
-84.3712
 21
987.471
  0
LINE
  8
0
 10
-84.3712
 20
987.471
 11
-84.4853
 21
987.714
  0
LINE
  8
0
 10
-84.4853
 20
987.714
 11
-84.5682
 21
987.969
  0
LINE
  8
0
 10
-84.5682
 20
987.969
 11
-84.6185
 21
988.232
  0
LINE
  8
0
 10
-84.6185
 20
988.232
 11
-84.6353
 21
988.5
  0
LINE
  8
0
 10
-84.6353
 20
988.5
 11
-84.6185
 21
988.768
  0
LINE
  8
0
 10
-84.6185
 20
988.768
 11
-84.5682
 21
989.031
  0
LINE
  8
0
 10
-84.5682
 20
989.031
 11
-84.4853
 21
989.286
  0
LINE
  8
0
 10
-84.4853
 20
989.286
 11
-84.3712
 21
989.529
  0
LINE
  8
0
 10
-84.3712
 20
989.529
 11
-84.2275
 21
989.755
  0
LINE
  8
0
 10
-84.2275
 20
989.755
 11
-84.0566
 21
989.962
  0
LINE
  8
0
 10
-84.0566
 20
989.962
 11
-83.8611
 21
990.145
  0
LINE
  8
0
 10
-83.8611
 20
990.145
 11
-83.6441
 21
990.303
  0
LINE
  8
0
 10
-83.6441
 20
990.303
 11
-83.4092
 21
990.432
  0
LINE
  8
0
 10
-83.4092
 20
990.432
 11
-83.1598
 21
990.531
  0
LINE
  8
0
 10
-83.1598
 20
990.531
 11
-82.9001
 21
990.597
  0
LINE
  8
0
 10
-82.9001
 20
990.597
 11
-82.6341
 21
990.631
  0
LINE
  8
0
 10
-82.6341
 20
990.631
 11
-82.3659
 21
990.631
  0
LINE
  8
0
 10
-82.3659
 20
990.631
 11
-82.0999
 21
990.597
  0
LINE
  8
0
 10
-82.0999
 20
990.597
 11
-81.8401
 21
990.531
  0
LINE
  8
0
 10
-81.8401
 20
990.531
 11
-81.5908
 21
990.432
  0
LINE
  8
0
 10
-81.5908
 20
990.432
 11
-81.3559
 21
990.303
  0
LINE
  8
0
 10
-81.3559
 20
990.303
 11
-81.1389
 21
990.145
  0
LINE
  8
0
 10
-81.1389
 20
990.145
 11
-80.9434
 21
989.962
  0
LINE
  8
0
 10
-80.9434
 20
989.962
 11
-80.7725
 21
989.755
  0
LINE
  8
0
 10
-80.7725
 20
989.755
 11
-80.6288
 21
989.529
  0
LINE
  8
0
 10
-80.6288
 20
989.529
 11
-80.5146
 21
989.286
  0
LINE
  8
0
 10
-80.5146
 20
989.286
 11
-80.4318
 21
989.031
  0
LINE
  8
0
 10
-80.4318
 20
989.031
 11
-80.3815
 21
988.768
  0
LINE
  8
0
 10
-80.3815
 20
988.768
 11
-80.3647
 21
988.5
  0
LINE
  8
0
 10
-80.3647
 20
988.5
 11
-80.3815
 21
988.232
  0
LINE
  8
0
 10
-80.3815
 20
988.232
 11
-80.4318
 21
987.969
  0
LINE
  8
0
 10
-80.4318
 20
987.969
 11
-80.5146
 21
987.714
  0
LINE
  8
0
 10
-80.5146
 20
987.714
 11
-80.6288
 21
987.471
  0
LINE
  8
0
 10
-80.6288
 20
987.471
 11
-80.7725
 21
987.245
  0
LINE
  8
0
 10
-80.7725
 20
987.245
 11
-80.9434
 21
987.038
  0
LINE
  8
0
 10
-80.9434
 20
987.038
 11
-81.1389
 21
986.855
  0
LINE
  8
0
 10
-81.1389
 20
986.855
 11
-81.3559
 21
986.697
  0
LINE
  8
0
 10
-81.3559
 20
986.697
 11
-81.5908
 21
986.568
  0
LINE
  8
0
 10
-81.5908
 20
986.568
 11
-81.8401
 21
986.469
  0
LINE
  8
0
 10
-81.8401
 20
986.469
 11
-82.0999
 21
986.403
  0
LINE
  8
0
 10
-82.0999
 20
986.403
 11
-82.3659
 21
986.369
  0
LINE
  8
0
 10
-82.3659
 20
986.369
 11
-82.6341
 21
986.369
  0
ENDSEC
  0
SECTION
  2
OBJECTS
  0
DICTIONARY
  0
ENDSEC
  0
EOF
