<?xml version="1.0" standalone="no"?>
<!DOCTYPE svg PUBLIC "-//W3C//DTD SVG 1.1//EN" "http://www.w3.org/Graphics/SVG/1.1/DTD/svg11.dtd">
<svg width="24mm" height="249mm" viewBox="-12 -447 24 249" xmlns="http://www.w3.org/2000/svg" version="1.1">
<title>OpenSCAD Model</title>
<path d="
M 7.1869,-327.089 L 7.79507,-327.245 L 8.37889,-327.476 L 8.92912,-327.778 L 9.43712,-328.147 L 9.89484,-328.577
 L 10.2951,-329.061 L 10.6315,-329.591 L 10.8989,-330.159 L 11.0929,-330.757 L 11.2106,-331.373 L 11.25,-332
 L 11.25,-442 L 11.2106,-442.627 L 11.0929,-443.243 L 10.8989,-443.841 L 10.6315,-444.409 L 10.2951,-444.939
 L 9.89484,-445.423 L 9.43712,-445.853 L 8.92912,-446.222 L 8.37889,-446.524 L 7.79507,-446.755 L 7.1869,-446.911
 L 6.56395,-446.99 L -6.56395,-446.99 L -7.1869,-446.911 L -7.79507,-446.755 L -8.37889,-446.524 L -8.92912,-446.222
 L -9.43712,-445.853 L -9.89484,-445.423 L -10.2951,-444.939 L -10.6315,-444.409 L -10.8989,-443.841 L -11.0929,-443.243
 L -11.2106,-442.627 L -11.25,-442 L -11.25,-332 L -11.2106,-331.373 L -11.0929,-330.757 L -10.8989,-330.159
 L -10.6315,-329.591 L -10.2951,-329.061 L -9.89484,-328.577 L -9.43712,-328.147 L -8.92912,-327.778 L -8.37889,-327.476
 L -7.79507,-327.245 L -7.1869,-327.089 L -6.56395,-327.01 L 6.56395,-327.01 z
M -5.94545,-329.393 L -6.3333,-329.442 L -6.71194,-329.539 L -7.07541,-329.683 L -7.41798,-329.872 L -7.73424,-330.101
 L -8.01921,-330.369 L -8.2684,-330.67 L -8.47786,-331 L -8.64432,-331.354 L -8.76512,-331.726 L -8.83836,-332.11
 L -8.86292,-332.5 L -8.86292,-441.5 L -8.83836,-441.89 L -8.76512,-442.274 L -8.64432,-442.646 L -8.47786,-443
 L -8.2684,-443.33 L -8.01921,-443.631 L -7.73424,-443.899 L -7.41798,-444.128 L -7.07541,-444.317 L -6.71194,-444.461
 L -6.3333,-444.558 L -5.94545,-444.607 L 5.94545,-444.607 L 6.3333,-444.558 L 6.71194,-444.461 L 7.07541,-444.317
 L 7.41798,-444.128 L 7.73424,-443.899 L 8.01921,-443.631 L 8.2684,-443.33 L 8.47786,-443 L 8.64432,-442.646
 L 8.76512,-442.274 L 8.83836,-441.89 L 8.86292,-441.5 L 8.86292,-332.5 L 8.83836,-332.11 L 8.76512,-331.726
 L 8.64432,-331.354 L 8.47786,-331 L 8.2684,-330.67 L 8.01921,-330.369 L 7.73424,-330.101 L 7.41798,-329.872
 L 7.07541,-329.683 L 6.71194,-329.539 L 6.3333,-329.442 L 5.94545,-329.393 z
M 7.1869,-198.089 L 7.79507,-198.245 L 8.37889,-198.476 L 8.92912,-198.778 L 9.43712,-199.147 L 9.89484,-199.577
 L 10.2951,-200.061 L 10.6315,-200.591 L 10.8989,-201.159 L 11.0929,-201.757 L 11.2106,-202.373 L 11.25,-203
 L 11.25,-313 L 11.2106,-313.627 L 11.0929,-314.243 L 10.8989,-314.841 L 10.6315,-315.409 L 10.2951,-315.939
 L 9.89484,-316.423 L 9.43712,-316.853 L 8.92912,-317.222 L 8.37889,-317.524 L 7.79507,-317.755 L 7.1869,-317.911
 L 6.56395,-317.99 L -6.56395,-317.99 L -7.1869,-317.911 L -7.79507,-317.755 L -8.37889,-317.524 L -8.92912,-317.222
 L -9.43712,-316.853 L -9.89484,-316.423 L -10.2951,-315.939 L -10.6315,-315.409 L -10.8989,-314.841 L -11.0929,-314.243
 L -11.2106,-313.627 L -11.25,-313 L -11.25,-203 L -11.2106,-202.373 L -11.0929,-201.757 L -10.8989,-201.159
 L -10.6315,-200.591 L -10.2951,-200.061 L -9.89484,-199.577 L -9.43712,-199.147 L -8.92912,-198.778 L -8.37889,-198.476
 L -7.79507,-198.245 L -7.1869,-198.089 L -6.56395,-198.01 L 6.56395,-198.01 z
M 3.61592,-308.369 L 3.34988,-308.403 L 3.09015,-308.469 L 2.84084,-308.568 L 2.60585,-308.697 L 2.3889,-308.855
 L 2.19344,-309.038 L 2.02251,-309.245 L 1.87881,-309.471 L 1.76465,-309.714 L 1.68178,-309.969 L 1.63153,-310.232
 L 1.6147,-310.5 L 1.63153,-310.768 L 1.68178,-311.031 L 1.76465,-311.286 L 1.87881,-311.529 L 2.02251,-311.755
 L 2.19344,-311.962 L 2.3889,-312.145 L 2.60585,-312.303 L 2.84084,-312.432 L 3.09015,-312.531 L 3.34988,-312.597
 L 3.61592,-312.631 L 3.88406,-312.631 L 4.1501,-312.597 L 4.40984,-312.531 L 4.65915,-312.432 L 4.89413,-312.303
 L 5.11108,-312.145 L 5.30655,-311.962 L 5.47748,-311.755 L 5.62117,-311.529 L 5.73534,-311.286 L 5.81821,-311.031
 L 5.86845,-310.768 L 5.88528,-310.5 L 5.86845,-310.232 L 5.81821,-309.969 L 5.73534,-309.714 L 5.62117,-309.471
 L 5.47748,-309.245 L 5.30655,-309.038 L 5.11108,-308.855 L 4.89413,-308.697 L 4.65915,-308.568 L 4.40984,-308.469
 L 4.1501,-308.403 L 3.88406,-308.369 z
M -3.88406,-308.369 L -4.1501,-308.403 L -4.40984,-308.469 L -4.65915,-308.568 L -4.89413,-308.697 L -5.11108,-308.855
 L -5.30655,-309.038 L -5.47748,-309.245 L -5.62117,-309.471 L -5.73534,-309.714 L -5.81821,-309.969 L -5.86845,-310.232
 L -5.88528,-310.5 L -5.86845,-310.768 L -5.81821,-311.031 L -5.73534,-311.286 L -5.62117,-311.529 L -5.47748,-311.755
 L -5.30655,-311.962 L -5.11108,-312.145 L -4.89413,-312.303 L -4.65915,-312.432 L -4.40984,-312.531 L -4.1501,-312.597
 L -3.88406,-312.631 L -3.61592,-312.631 L -3.34988,-312.597 L -3.09015,-312.531 L -2.84084,-312.432 L -2.60585,-312.303
 L -2.3889,-312.145 L -2.19344,-311.962 L -2.02251,-311.755 L -1.87881,-311.529 L -1.76465,-311.286 L -1.68178,-311.031
 L -1.63153,-310.768 L -1.6147,-310.5 L -1.63153,-310.232 L -1.68178,-309.969 L -1.76465,-309.714 L -1.87881,-309.471
 L -2.02251,-309.245 L -2.19344,-309.038 L -2.3889,-308.855 L -2.60585,-308.697 L -2.84084,-308.568 L -3.09015,-308.469
 L -3.34988,-308.403 L -3.61592,-308.369 z
M 3.61592,-203.369 L 3.34988,-203.403 L 3.09015,-203.469 L 2.84084,-203.568 L 2.60585,-203.697 L 2.3889,-203.855
 L 2.19344,-204.038 L 2.02251,-204.245 L 1.87881,-204.471 L 1.76465,-204.714 L 1.68178,-204.969 L 1.63153,-205.232
 L 1.6147,-205.5 L 1.63153,-205.768 L 1.68178,-206.031 L 1.76465,-206.286 L 1.87881,-206.529 L 2.02251,-206.755
 L 2.19344,-206.962 L 2.3889,-207.145 L 2.60585,-207.303 L 2.84084,-207.432 L 3.09015,-207.531 L 3.34988,-207.597
 L 3.61592,-207.631 L 3.88406,-207.631 L 4.1501,-207.597 L 4.40984,-207.531 L 4.65915,-207.432 L 4.89413,-207.303
 L 5.11108,-207.145 L 5.30655,-206.962 L 5.47748,-206.755 L 5.62117,-206.529 L 5.73534,-206.286 L 5.81821,-206.031
 L 5.86845,-205.768 L 5.88528,-205.5 L 5.86845,-205.232 L 5.81821,-204.969 L 5.73534,-204.714 L 5.62117,-204.471
 L 5.47748,-204.245 L 5.30655,-204.038 L 5.11108,-203.855 L 4.89413,-203.697 L 4.65915,-203.568 L 4.40984,-203.469
 L 4.1501,-203.403 L 3.88406,-203.369 z
M -3.88406,-203.369 L -4.1501,-203.403 L -4.40984,-203.469 L -4.65915,-203.568 L -4.89413,-203.697 L -5.11108,-203.855
 L -5.30655,-204.038 L -5.47748,-204.245 L -5.62117,-204.471 L -5.73534,-204.714 L -5.81821,-204.969 L -5.86845,-205.232
 L -5.88528,-205.5 L -5.86845,-205.768 L -5.81821,-206.031 L -5.73534,-206.286 L -5.62117,-206.529 L -5.47748,-206.755
 L -5.30655,-206.962 L -5.11108,-207.145 L -4.89413,-207.303 L -4.65915,-207.432 L -4.40984,-207.531 L -4.1501,-207.597
 L -3.88406,-207.631 L -3.61592,-207.631 L -3.34988,-207.597 L -3.09015,-207.531 L -2.84084,-207.432 L -2.60585,-207.303
 L -2.3889,-207.145 L -2.19344,-206.962 L -2.02251,-206.755 L -1.87881,-206.529 L -1.76465,-206.286 L -1.68178,-206.031
 L -1.63153,-205.768 L -1.6147,-205.5 L -1.63153,-205.232 L -1.68178,-204.969 L -1.76465,-204.714 L -1.87881,-204.471
 L -2.02251,-204.245 L -2.19344,-204.038 L -2.3889,-203.855 L -2.60585,-203.697 L -2.84084,-203.568 L -3.09015,-203.469
 L -3.34988,-203.403 L -3.61592,-203.369 z
" stroke="black" fill="lightgray" stroke-width="0.5"/>
</svg>
