solid OpenSCAD_Model
  facet normal 0.998027 0.0627938 0
    outer loop
      vertex 21 0 7
      vertex 20.8344 2.632 0
      vertex 20.8344 2.632 7
    endloop
  endfacet
  facet normal 0.998027 0.0627938 0
    outer loop
      vertex 20.8344 2.632 0
      vertex 21 0 7
      vertex 21 0 0
    endloop
  endfacet
  facet normal -0.998027 0.0627938 0
    outer loop
      vertex -21 0 0
      vertex -20.8344 2.632 7
      vertex -20.8344 2.632 0
    endloop
  endfacet
  facet normal -0.998027 0.0627938 0
    outer loop
      vertex -20.8344 2.632 7
      vertex -21 0 0
      vertex -21 0 7
    endloop
  endfacet
  facet normal 0 1 -0
    outer loop
      vertex 1.3186 20.9586 0
      vertex -1.3186 20.9586 7
      vertex 1.3186 20.9586 7
    endloop
  endfacet
  facet normal 0 1 0
    outer loop
      vertex -1.3186 20.9586 7
      vertex 1.3186 20.9586 0
      vertex -1.3186 20.9586 0
    endloop
  endfacet
  facet normal 0 -1 0
    outer loop
      vertex -1.3186 -20.9586 0
      vertex 1.3186 -20.9586 7
      vertex -1.3186 -20.9586 7
    endloop
  endfacet
  facet normal 0 -1 -0
    outer loop
      vertex 1.3186 -20.9586 7
      vertex -1.3186 -20.9586 0
      vertex 1.3186 -20.9586 0
    endloop
  endfacet
  facet normal 0.684556 0.72896 -0
    outer loop
      vertex 15.3083 14.3755 0
      vertex 13.3859 16.1808 7
      vertex 15.3083 14.3755 7
    endloop
  endfacet
  facet normal 0.684556 0.72896 0
    outer loop
      vertex 13.3859 16.1808 7
      vertex 15.3083 14.3755 0
      vertex 13.3859 16.1808 0
    endloop
  endfacet
  facet normal -0.684556 0.72896 0
    outer loop
      vertex -13.3859 16.1808 0
      vertex -15.3083 14.3755 7
      vertex -13.3859 16.1808 7
    endloop
  endfacet
  facet normal -0.684556 0.72896 0
    outer loop
      vertex -15.3083 14.3755 7
      vertex -13.3859 16.1808 0
      vertex -15.3083 14.3755 0
    endloop
  endfacet
  facet normal -0.368119 0.929778 0
    outer loop
      vertex -6.48936 19.9722 0
      vertex -8.94136 19.0014 7
      vertex -6.48936 19.9722 7
    endloop
  endfacet
  facet normal -0.368119 0.929778 0
    outer loop
      vertex -8.94136 19.0014 7
      vertex -6.48936 19.9722 0
      vertex -8.94136 19.0014 0
    endloop
  endfacet
  facet normal 0.904821 0.425793 0
    outer loop
      vertex 19.5253 7.73061 7
      vertex 18.4024 10.1168 0
      vertex 18.4024 10.1168 7
    endloop
  endfacet
  facet normal 0.904821 0.425793 0
    outer loop
      vertex 18.4024 10.1168 0
      vertex 19.5253 7.73061 7
      vertex 19.5253 7.73061 0
    endloop
  endfacet
  facet normal 0.982285 0.187395 0
    outer loop
      vertex 20.8344 2.632 7
      vertex 20.3402 5.22249 0
      vertex 20.3402 5.22249 7
    endloop
  endfacet
  facet normal 0.982285 0.187395 0
    outer loop
      vertex 20.3402 5.22249 0
      vertex 20.8344 2.632 7
      vertex 20.8344 2.632 0
    endloop
  endfacet
  facet normal 0.368119 0.929778 -0
    outer loop
      vertex 8.94136 19.0014 0
      vertex 6.48936 19.9722 7
      vertex 8.94136 19.0014 7
    endloop
  endfacet
  facet normal 0.368119 0.929778 0
    outer loop
      vertex 6.48936 19.9722 7
      vertex 8.94136 19.0014 0
      vertex 6.48936 19.9722 0
    endloop
  endfacet
  facet normal 0.481752 0.876307 -0
    outer loop
      vertex 11.2524 17.7309 0
      vertex 8.94136 19.0014 7
      vertex 11.2524 17.7309 7
    endloop
  endfacet
  facet normal 0.481752 0.876307 0
    outer loop
      vertex 8.94136 19.0014 7
      vertex 11.2524 17.7309 0
      vertex 8.94136 19.0014 0
    endloop
  endfacet
  facet normal -0.904821 0.425793 0
    outer loop
      vertex -19.5253 7.73061 0
      vertex -18.4024 10.1168 7
      vertex -18.4024 10.1168 0
    endloop
  endfacet
  facet normal -0.904821 0.425793 0
    outer loop
      vertex -18.4024 10.1168 7
      vertex -19.5253 7.73061 0
      vertex -19.5253 7.73061 7
    endloop
  endfacet
  facet normal -0.844346 0.535798 0
    outer loop
      vertex -18.4024 10.1168 0
      vertex -16.9894 12.3435 7
      vertex -16.9894 12.3435 0
    endloop
  endfacet
  facet normal -0.844346 0.535798 0
    outer loop
      vertex -16.9894 12.3435 7
      vertex -18.4024 10.1168 0
      vertex -18.4024 10.1168 7
    endloop
  endfacet
  facet normal -0.951061 0.309004 0
    outer loop
      vertex -20.3402 5.22249 0
      vertex -19.5253 7.73061 7
      vertex -19.5253 7.73061 0
    endloop
  endfacet
  facet normal -0.951061 0.309004 0
    outer loop
      vertex -19.5253 7.73061 7
      vertex -20.3402 5.22249 0
      vertex -20.3402 5.22249 7
    endloop
  endfacet
  facet normal -0.587791 0.809013 0
    outer loop
      vertex -11.2524 17.7309 0
      vertex -13.3859 16.1808 7
      vertex -11.2524 17.7309 7
    endloop
  endfacet
  facet normal -0.587791 0.809013 0
    outer loop
      vertex -13.3859 16.1808 7
      vertex -11.2524 17.7309 0
      vertex -13.3859 16.1808 0
    endloop
  endfacet
  facet normal -0.12536 0.992111 0
    outer loop
      vertex -1.3186 20.9586 0
      vertex -3.93501 20.628 7
      vertex -1.3186 20.9586 7
    endloop
  endfacet
  facet normal -0.12536 0.992111 0
    outer loop
      vertex -3.93501 20.628 7
      vertex -1.3186 20.9586 0
      vertex -3.93501 20.628 0
    endloop
  endfacet
  facet normal 0.951061 -0.309004 0
    outer loop
      vertex 19.5253 -7.73061 7
      vertex 20.3402 -5.22249 0
      vertex 20.3402 -5.22249 7
    endloop
  endfacet
  facet normal 0.951061 -0.309004 0
    outer loop
      vertex 20.3402 -5.22249 0
      vertex 19.5253 -7.73061 7
      vertex 19.5253 -7.73061 0
    endloop
  endfacet
  facet normal 0.12536 -0.992111 0
    outer loop
      vertex 1.3186 -20.9586 0
      vertex 3.93501 -20.628 7
      vertex 1.3186 -20.9586 7
    endloop
  endfacet
  facet normal 0.12536 -0.992111 0
    outer loop
      vertex 3.93501 -20.628 7
      vertex 1.3186 -20.9586 0
      vertex 3.93501 -20.628 0
    endloop
  endfacet
  facet normal 0.951061 0.309004 0
    outer loop
      vertex 20.3402 5.22249 7
      vertex 19.5253 7.73061 0
      vertex 19.5253 7.73061 7
    endloop
  endfacet
  facet normal 0.951061 0.309004 0
    outer loop
      vertex 19.5253 7.73061 0
      vertex 20.3402 5.22249 7
      vertex 20.3402 5.22249 0
    endloop
  endfacet
  facet normal 0.770498 0.637443 0
    outer loop
      vertex 16.9894 12.3435 7
      vertex 15.3083 14.3755 0
      vertex 15.3083 14.3755 7
    endloop
  endfacet
  facet normal 0.770498 0.637443 0
    outer loop
      vertex 15.3083 14.3755 0
      vertex 16.9894 12.3435 7
      vertex 16.9894 12.3435 0
    endloop
  endfacet
  facet normal 0.844346 0.535798 0
    outer loop
      vertex 18.4024 10.1168 7
      vertex 16.9894 12.3435 0
      vertex 16.9894 12.3435 7
    endloop
  endfacet
  facet normal 0.844346 0.535798 0
    outer loop
      vertex 16.9894 12.3435 0
      vertex 18.4024 10.1168 7
      vertex 18.4024 10.1168 0
    endloop
  endfacet
  facet normal 0.248674 0.968587 -0
    outer loop
      vertex 6.48936 19.9722 0
      vertex 3.93501 20.628 7
      vertex 6.48936 19.9722 7
    endloop
  endfacet
  facet normal 0.248674 0.968587 0
    outer loop
      vertex 3.93501 20.628 7
      vertex 6.48936 19.9722 0
      vertex 3.93501 20.628 0
    endloop
  endfacet
  facet normal 0.12536 0.992111 -0
    outer loop
      vertex 3.93501 20.628 0
      vertex 1.3186 20.9586 7
      vertex 3.93501 20.628 7
    endloop
  endfacet
  facet normal 0.12536 0.992111 0
    outer loop
      vertex 1.3186 20.9586 7
      vertex 3.93501 20.628 0
      vertex 1.3186 20.9586 0
    endloop
  endfacet
  facet normal 0.587791 0.809013 -0
    outer loop
      vertex 13.3859 16.1808 0
      vertex 11.2524 17.7309 7
      vertex 13.3859 16.1808 7
    endloop
  endfacet
  facet normal 0.587791 0.809013 0
    outer loop
      vertex 11.2524 17.7309 7
      vertex 13.3859 16.1808 0
      vertex 11.2524 17.7309 0
    endloop
  endfacet
  facet normal -0.982285 0.187395 0
    outer loop
      vertex -20.8344 2.632 0
      vertex -20.3402 5.22249 7
      vertex -20.3402 5.22249 0
    endloop
  endfacet
  facet normal -0.982285 0.187395 0
    outer loop
      vertex -20.3402 5.22249 7
      vertex -20.8344 2.632 0
      vertex -20.8344 2.632 7
    endloop
  endfacet
  facet normal 0 0 1
    outer loop
      vertex 15 0 7
      vertex 21 0 7
      vertex 20.8344 2.632 7
    endloop
  endfacet
  facet normal 0 0 1
    outer loop
      vertex 14.8817 1.88 7
      vertex 20.8344 2.632 7
      vertex 20.3402 5.22249 7
    endloop
  endfacet
  facet normal 0 0 1
    outer loop
      vertex 21 0 7
      vertex 15 0 7
      vertex 20.8344 -2.632 7
    endloop
  endfacet
  facet normal 0 0 1
    outer loop
      vertex 14.5287 3.73035 7
      vertex 20.3402 5.22249 7
      vertex 19.5253 7.73061 7
    endloop
  endfacet
  facet normal -0 0 1
    outer loop
      vertex 14.8817 -1.88 7
      vertex 20.8344 -2.632 7
      vertex 15 0 7
    endloop
  endfacet
  facet normal 0 0 1
    outer loop
      vertex 13.9466 5.52187 7
      vertex 19.5253 7.73061 7
      vertex 18.4024 10.1168 7
    endloop
  endfacet
  facet normal 0 0 1
    outer loop
      vertex 20.8344 -2.632 7
      vertex 14.8817 -1.88 7
      vertex 20.3402 -5.22249 7
    endloop
  endfacet
  facet normal 0 0 1
    outer loop
      vertex 13.1446 7.22631 7
      vertex 18.4024 10.1168 7
      vertex 16.9894 12.3435 7
    endloop
  endfacet
  facet normal -0 0 1
    outer loop
      vertex 14.5287 -3.73035 7
      vertex 20.3402 -5.22249 7
      vertex 14.8817 -1.88 7
    endloop
  endfacet
  facet normal 0 0 1
    outer loop
      vertex 12.1353 8.81678 7
      vertex 16.9894 12.3435 7
      vertex 15.3083 14.3755 7
    endloop
  endfacet
  facet normal 0 0 1
    outer loop
      vertex 20.3402 -5.22249 7
      vertex 14.5287 -3.73035 7
      vertex 19.5253 -7.73061 7
    endloop
  endfacet
  facet normal -0 0 1
    outer loop
      vertex 13.9466 -5.52187 7
      vertex 19.5253 -7.73061 7
      vertex 14.5287 -3.73035 7
    endloop
  endfacet
  facet normal 0 0 1
    outer loop
      vertex 20.8344 2.632 7
      vertex 14.8817 1.88 7
      vertex 15 0 7
    endloop
  endfacet
  facet normal 0 0 1
    outer loop
      vertex 20.3402 5.22249 7
      vertex 14.5287 3.73035 7
      vertex 14.8817 1.88 7
    endloop
  endfacet
  facet normal 0 0 1
    outer loop
      vertex 19.5253 7.73061 7
      vertex 13.9466 5.52187 7
      vertex 14.5287 3.73035 7
    endloop
  endfacet
  facet normal 0 0 1
    outer loop
      vertex 10.9345 10.2682 7
      vertex 15.3083 14.3755 7
      vertex 13.3859 16.1808 7
    endloop
  endfacet
  facet normal 0 0 1
    outer loop
      vertex 18.4024 10.1168 7
      vertex 13.1446 7.22631 7
      vertex 13.9466 5.52187 7
    endloop
  endfacet
  facet normal 0 0 1
    outer loop
      vertex 16.9894 12.3435 7
      vertex 12.1353 8.81678 7
      vertex 13.1446 7.22631 7
    endloop
  endfacet
  facet normal 0 0 1
    outer loop
      vertex 9.56136 11.5577 7
      vertex 13.3859 16.1808 7
      vertex 11.2524 17.7309 7
    endloop
  endfacet
  facet normal 0 0 1
    outer loop
      vertex 15.3083 14.3755 7
      vertex 10.9345 10.2682 7
      vertex 12.1353 8.81678 7
    endloop
  endfacet
  facet normal 0 0 1
    outer loop
      vertex 13.3859 16.1808 7
      vertex 9.56136 11.5577 7
      vertex 10.9345 10.2682 7
    endloop
  endfacet
  facet normal 0 0 1
    outer loop
      vertex 8.0374 12.6649 7
      vertex 11.2524 17.7309 7
      vertex 8.94136 19.0014 7
    endloop
  endfacet
  facet normal 0 0 1
    outer loop
      vertex 11.2524 17.7309 7
      vertex 8.0374 12.6649 7
      vertex 9.56136 11.5577 7
    endloop
  endfacet
  facet normal 0 0 1
    outer loop
      vertex 6.38669 13.5724 7
      vertex 8.94136 19.0014 7
      vertex 6.48936 19.9722 7
    endloop
  endfacet
  facet normal 0 0 1
    outer loop
      vertex 8.94136 19.0014 7
      vertex 6.38669 13.5724 7
      vertex 8.0374 12.6649 7
    endloop
  endfacet
  facet normal 0 0 1
    outer loop
      vertex 6.48936 19.9722 7
      vertex 4.63525 14.2658 7
      vertex 6.38669 13.5724 7
    endloop
  endfacet
  facet normal 0 0 1
    outer loop
      vertex 3.93501 20.628 7
      vertex 4.63525 14.2658 7
      vertex 6.48936 19.9722 7
    endloop
  endfacet
  facet normal 0 0 1
    outer loop
      vertex 3.93501 20.628 7
      vertex 2.81072 14.7343 7
      vertex 4.63525 14.2658 7
    endloop
  endfacet
  facet normal 0 0 1
    outer loop
      vertex 1.3186 20.9586 7
      vertex 2.81072 14.7343 7
      vertex 3.93501 20.628 7
    endloop
  endfacet
  facet normal 0 0 1
    outer loop
      vertex 1.3186 20.9586 7
      vertex 0.941857 14.9704 7
      vertex 2.81072 14.7343 7
    endloop
  endfacet
  facet normal 0 0 1
    outer loop
      vertex 1.3186 20.9586 7
      vertex -0.941857 14.9704 7
      vertex 0.941857 14.9704 7
    endloop
  endfacet
  facet normal -0 0 1
    outer loop
      vertex -1.3186 20.9586 7
      vertex -0.941857 14.9704 7
      vertex 1.3186 20.9586 7
    endloop
  endfacet
  facet normal 0 0 1
    outer loop
      vertex -1.3186 20.9586 7
      vertex -2.81072 14.7343 7
      vertex -0.941857 14.9704 7
    endloop
  endfacet
  facet normal -0 0 1
    outer loop
      vertex -3.93501 20.628 7
      vertex -2.81072 14.7343 7
      vertex -1.3186 20.9586 7
    endloop
  endfacet
  facet normal 0 0 1
    outer loop
      vertex -3.93501 20.628 7
      vertex -4.63525 14.2658 7
      vertex -2.81072 14.7343 7
    endloop
  endfacet
  facet normal -0 0 1
    outer loop
      vertex -6.48936 19.9722 7
      vertex -4.63525 14.2658 7
      vertex -3.93501 20.628 7
    endloop
  endfacet
  facet normal 0 0 1
    outer loop
      vertex -4.63525 14.2658 7
      vertex -6.48936 19.9722 7
      vertex -6.38669 13.5724 7
    endloop
  endfacet
  facet normal -0 0 1
    outer loop
      vertex -8.94136 19.0014 7
      vertex -6.38669 13.5724 7
      vertex -6.48936 19.9722 7
    endloop
  endfacet
  facet normal 0 0 1
    outer loop
      vertex -6.38669 13.5724 7
      vertex -8.94136 19.0014 7
      vertex -8.0374 12.6649 7
    endloop
  endfacet
  facet normal -0 0 1
    outer loop
      vertex -11.2524 17.7309 7
      vertex -8.0374 12.6649 7
      vertex -8.94136 19.0014 7
    endloop
  endfacet
  facet normal 0 0 1
    outer loop
      vertex -8.0374 12.6649 7
      vertex -11.2524 17.7309 7
      vertex -9.56136 11.5577 7
    endloop
  endfacet
  facet normal -0 0 1
    outer loop
      vertex -13.3859 16.1808 7
      vertex -9.56136 11.5577 7
      vertex -11.2524 17.7309 7
    endloop
  endfacet
  facet normal 0 0 1
    outer loop
      vertex -9.56136 11.5577 7
      vertex -13.3859 16.1808 7
      vertex -10.9345 10.2682 7
    endloop
  endfacet
  facet normal -0 0 1
    outer loop
      vertex -15.3083 14.3755 7
      vertex -10.9345 10.2682 7
      vertex -13.3859 16.1808 7
    endloop
  endfacet
  facet normal 0 0 1
    outer loop
      vertex -10.9345 10.2682 7
      vertex -15.3083 14.3755 7
      vertex -12.1353 8.81678 7
    endloop
  endfacet
  facet normal -0 0 1
    outer loop
      vertex -16.9894 12.3435 7
      vertex -12.1353 8.81678 7
      vertex -15.3083 14.3755 7
    endloop
  endfacet
  facet normal 0 0 1
    outer loop
      vertex -12.1353 8.81678 7
      vertex -16.9894 12.3435 7
      vertex -13.1446 7.22631 7
    endloop
  endfacet
  facet normal -0 0 1
    outer loop
      vertex -18.4024 10.1168 7
      vertex -13.1446 7.22631 7
      vertex -16.9894 12.3435 7
    endloop
  endfacet
  facet normal -0 0 1
    outer loop
      vertex -19.5253 7.73061 7
      vertex -13.9466 5.52187 7
      vertex -18.4024 10.1168 7
    endloop
  endfacet
  facet normal 0 0 1
    outer loop
      vertex -13.1446 7.22631 7
      vertex -18.4024 10.1168 7
      vertex -13.9466 5.52187 7
    endloop
  endfacet
  facet normal 0 0 1
    outer loop
      vertex 19.5253 -7.73061 7
      vertex 13.9466 -5.52187 7
      vertex 18.4024 -10.1168 7
    endloop
  endfacet
  facet normal -0 0 1
    outer loop
      vertex 13.1446 -7.22631 7
      vertex 18.4024 -10.1168 7
      vertex 13.9466 -5.52187 7
    endloop
  endfacet
  facet normal 0 0 1
    outer loop
      vertex 18.4024 -10.1168 7
      vertex 13.1446 -7.22631 7
      vertex 16.9894 -12.3435 7
    endloop
  endfacet
  facet normal -0 0 1
    outer loop
      vertex 12.1353 -8.81678 7
      vertex 16.9894 -12.3435 7
      vertex 13.1446 -7.22631 7
    endloop
  endfacet
  facet normal 0 0 1
    outer loop
      vertex 16.9894 -12.3435 7
      vertex 12.1353 -8.81678 7
      vertex 15.3083 -14.3755 7
    endloop
  endfacet
  facet normal -0 0 1
    outer loop
      vertex 10.9345 -10.2682 7
      vertex 15.3083 -14.3755 7
      vertex 12.1353 -8.81678 7
    endloop
  endfacet
  facet normal 0 0 1
    outer loop
      vertex 15.3083 -14.3755 7
      vertex 10.9345 -10.2682 7
      vertex 13.3859 -16.1808 7
    endloop
  endfacet
  facet normal -0 0 1
    outer loop
      vertex 9.56136 -11.5577 7
      vertex 13.3859 -16.1808 7
      vertex 10.9345 -10.2682 7
    endloop
  endfacet
  facet normal 0 0 1
    outer loop
      vertex 13.3859 -16.1808 7
      vertex 9.56136 -11.5577 7
      vertex 11.2524 -17.7309 7
    endloop
  endfacet
  facet normal -0 0 1
    outer loop
      vertex 8.0374 -12.6649 7
      vertex 11.2524 -17.7309 7
      vertex 9.56136 -11.5577 7
    endloop
  endfacet
  facet normal 0 0 1
    outer loop
      vertex 11.2524 -17.7309 7
      vertex 8.0374 -12.6649 7
      vertex 8.94136 -19.0014 7
    endloop
  endfacet
  facet normal -0 0 1
    outer loop
      vertex 6.38669 -13.5724 7
      vertex 8.94136 -19.0014 7
      vertex 8.0374 -12.6649 7
    endloop
  endfacet
  facet normal 0 0 1
    outer loop
      vertex 8.94136 -19.0014 7
      vertex 6.38669 -13.5724 7
      vertex 6.48936 -19.9722 7
    endloop
  endfacet
  facet normal -0 0 1
    outer loop
      vertex 4.63525 -14.2658 7
      vertex 6.48936 -19.9722 7
      vertex 6.38669 -13.5724 7
    endloop
  endfacet
  facet normal 0 0 1
    outer loop
      vertex 4.63525 -14.2658 7
      vertex 3.93501 -20.628 7
      vertex 6.48936 -19.9722 7
    endloop
  endfacet
  facet normal -0 0 1
    outer loop
      vertex 2.81072 -14.7343 7
      vertex 3.93501 -20.628 7
      vertex 4.63525 -14.2658 7
    endloop
  endfacet
  facet normal 0 0 1
    outer loop
      vertex 2.81072 -14.7343 7
      vertex 1.3186 -20.9586 7
      vertex 3.93501 -20.628 7
    endloop
  endfacet
  facet normal -0 0 1
    outer loop
      vertex 0.941857 -14.9704 7
      vertex 1.3186 -20.9586 7
      vertex 2.81072 -14.7343 7
    endloop
  endfacet
  facet normal -0 0 1
    outer loop
      vertex -0.941857 -14.9704 7
      vertex 1.3186 -20.9586 7
      vertex 0.941857 -14.9704 7
    endloop
  endfacet
  facet normal 0 0 1
    outer loop
      vertex -0.941857 -14.9704 7
      vertex -1.3186 -20.9586 7
      vertex 1.3186 -20.9586 7
    endloop
  endfacet
  facet normal 0 0 1
    outer loop
      vertex -2.81072 -14.7343 7
      vertex -1.3186 -20.9586 7
      vertex -0.941857 -14.9704 7
    endloop
  endfacet
  facet normal 0 0 1
    outer loop
      vertex -2.81072 -14.7343 7
      vertex -3.93501 -20.628 7
      vertex -1.3186 -20.9586 7
    endloop
  endfacet
  facet normal 0 0 1
    outer loop
      vertex -4.63525 -14.2658 7
      vertex -3.93501 -20.628 7
      vertex -2.81072 -14.7343 7
    endloop
  endfacet
  facet normal 0 0 1
    outer loop
      vertex -6.48936 -19.9722 7
      vertex -4.63525 -14.2658 7
      vertex -6.38669 -13.5724 7
    endloop
  endfacet
  facet normal 0 0 1
    outer loop
      vertex -4.63525 -14.2658 7
      vertex -6.48936 -19.9722 7
      vertex -3.93501 -20.628 7
    endloop
  endfacet
  facet normal 0 0 1
    outer loop
      vertex -8.94136 -19.0014 7
      vertex -6.38669 -13.5724 7
      vertex -8.0374 -12.6649 7
    endloop
  endfacet
  facet normal 0 0 1
    outer loop
      vertex -6.38669 -13.5724 7
      vertex -8.94136 -19.0014 7
      vertex -6.48936 -19.9722 7
    endloop
  endfacet
  facet normal 0 0 1
    outer loop
      vertex -11.2524 -17.7309 7
      vertex -8.0374 -12.6649 7
      vertex -9.56136 -11.5577 7
    endloop
  endfacet
  facet normal 0 0 1
    outer loop
      vertex -13.3859 -16.1808 7
      vertex -9.56136 -11.5577 7
      vertex -10.9345 -10.2682 7
    endloop
  endfacet
  facet normal 0 0 1
    outer loop
      vertex -8.0374 -12.6649 7
      vertex -11.2524 -17.7309 7
      vertex -8.94136 -19.0014 7
    endloop
  endfacet
  facet normal 0 0 1
    outer loop
      vertex -15.3083 -14.3755 7
      vertex -10.9345 -10.2682 7
      vertex -12.1353 -8.81678 7
    endloop
  endfacet
  facet normal 0 0 1
    outer loop
      vertex -16.9894 -12.3435 7
      vertex -12.1353 -8.81678 7
      vertex -13.1446 -7.22631 7
    endloop
  endfacet
  facet normal 0 0 1
    outer loop
      vertex -9.56136 -11.5577 7
      vertex -13.3859 -16.1808 7
      vertex -11.2524 -17.7309 7
    endloop
  endfacet
  facet normal 0 0 1
    outer loop
      vertex -18.4024 -10.1168 7
      vertex -13.1446 -7.22631 7
      vertex -13.9466 -5.52187 7
    endloop
  endfacet
  facet normal 0 0 1
    outer loop
      vertex -19.5253 -7.73061 7
      vertex -13.9466 -5.52187 7
      vertex -14.5287 -3.73035 7
    endloop
  endfacet
  facet normal 0 0 1
    outer loop
      vertex -20.3402 -5.22249 7
      vertex -14.5287 -3.73035 7
      vertex -14.8817 -1.88 7
    endloop
  endfacet
  facet normal 0 0 1
    outer loop
      vertex -10.9345 -10.2682 7
      vertex -15.3083 -14.3755 7
      vertex -13.3859 -16.1808 7
    endloop
  endfacet
  facet normal 0 0 1
    outer loop
      vertex -20.8344 -2.632 7
      vertex -14.8817 -1.88 7
      vertex -15 0 7
    endloop
  endfacet
  facet normal 0 0 1
    outer loop
      vertex -13.9466 5.52187 7
      vertex -19.5253 7.73061 7
      vertex -14.5287 3.73035 7
    endloop
  endfacet
  facet normal -0 0 1
    outer loop
      vertex -20.3402 5.22249 7
      vertex -14.5287 3.73035 7
      vertex -19.5253 7.73061 7
    endloop
  endfacet
  facet normal 0 0 1
    outer loop
      vertex -12.1353 -8.81678 7
      vertex -16.9894 -12.3435 7
      vertex -15.3083 -14.3755 7
    endloop
  endfacet
  facet normal 0 0 1
    outer loop
      vertex -14.5287 3.73035 7
      vertex -20.3402 5.22249 7
      vertex -14.8817 1.88 7
    endloop
  endfacet
  facet normal 0 0 1
    outer loop
      vertex -13.1446 -7.22631 7
      vertex -18.4024 -10.1168 7
      vertex -16.9894 -12.3435 7
    endloop
  endfacet
  facet normal -0 0 1
    outer loop
      vertex -20.8344 2.632 7
      vertex -14.8817 1.88 7
      vertex -20.3402 5.22249 7
    endloop
  endfacet
  facet normal 0 0 1
    outer loop
      vertex -13.9466 -5.52187 7
      vertex -19.5253 -7.73061 7
      vertex -18.4024 -10.1168 7
    endloop
  endfacet
  facet normal 0 0 1
    outer loop
      vertex -14.8817 1.88 7
      vertex -20.8344 2.632 7
      vertex -15 0 7
    endloop
  endfacet
  facet normal 0 0 1
    outer loop
      vertex -14.5287 -3.73035 7
      vertex -20.3402 -5.22249 7
      vertex -19.5253 -7.73061 7
    endloop
  endfacet
  facet normal 0 0 1
    outer loop
      vertex -21 0 7
      vertex -15 0 7
      vertex -20.8344 2.632 7
    endloop
  endfacet
  facet normal 0 0 1
    outer loop
      vertex -14.8817 -1.88 7
      vertex -20.8344 -2.632 7
      vertex -20.3402 -5.22249 7
    endloop
  endfacet
  facet normal 0 0 1
    outer loop
      vertex -15 0 7
      vertex -21 0 7
      vertex -20.8344 -2.632 7
    endloop
  endfacet
  facet normal 0.998027 -0.0627938 0
    outer loop
      vertex 20.8344 -2.632 7
      vertex 21 0 0
      vertex 21 0 7
    endloop
  endfacet
  facet normal 0.998027 -0.0627938 0
    outer loop
      vertex 21 0 0
      vertex 20.8344 -2.632 7
      vertex 20.8344 -2.632 0
    endloop
  endfacet
  facet normal 0.684556 -0.72896 0
    outer loop
      vertex 13.3859 -16.1808 0
      vertex 15.3083 -14.3755 7
      vertex 13.3859 -16.1808 7
    endloop
  endfacet
  facet normal 0.684556 -0.72896 0
    outer loop
      vertex 15.3083 -14.3755 7
      vertex 13.3859 -16.1808 0
      vertex 15.3083 -14.3755 0
    endloop
  endfacet
  facet normal 0.982285 -0.187395 0
    outer loop
      vertex 20.3402 -5.22249 7
      vertex 20.8344 -2.632 0
      vertex 20.8344 -2.632 7
    endloop
  endfacet
  facet normal 0.982285 -0.187395 0
    outer loop
      vertex 20.8344 -2.632 0
      vertex 20.3402 -5.22249 7
      vertex 20.3402 -5.22249 0
    endloop
  endfacet
  facet normal -0.904821 -0.425793 0
    outer loop
      vertex -18.4024 -10.1168 0
      vertex -19.5253 -7.73061 7
      vertex -19.5253 -7.73061 0
    endloop
  endfacet
  facet normal -0.904821 -0.425793 0
    outer loop
      vertex -19.5253 -7.73061 7
      vertex -18.4024 -10.1168 0
      vertex -18.4024 -10.1168 7
    endloop
  endfacet
  facet normal 0 0 -1
    outer loop
      vertex 15 0 0
      vertex 21 0 0
      vertex 20.8344 -2.632 0
    endloop
  endfacet
  facet normal 0 0 -1
    outer loop
      vertex 14.8817 -1.88 0
      vertex 20.8344 -2.632 0
      vertex 20.3402 -5.22249 0
    endloop
  endfacet
  facet normal 0 0 -1
    outer loop
      vertex 21 0 0
      vertex 15 0 0
      vertex 20.8344 2.632 0
    endloop
  endfacet
  facet normal 0 0 -1
    outer loop
      vertex 14.5287 -3.73035 0
      vertex 20.3402 -5.22249 0
      vertex 19.5253 -7.73061 0
    endloop
  endfacet
  facet normal 0 0 -1
    outer loop
      vertex 14.8817 1.88 0
      vertex 20.8344 2.632 0
      vertex 15 0 0
    endloop
  endfacet
  facet normal 0 0 -1
    outer loop
      vertex 13.9466 -5.52187 0
      vertex 19.5253 -7.73061 0
      vertex 18.4024 -10.1168 0
    endloop
  endfacet
  facet normal -0 0 -1
    outer loop
      vertex 20.8344 2.632 0
      vertex 14.8817 1.88 0
      vertex 20.3402 5.22249 0
    endloop
  endfacet
  facet normal 0 0 -1
    outer loop
      vertex 13.1446 -7.22631 0
      vertex 18.4024 -10.1168 0
      vertex 16.9894 -12.3435 0
    endloop
  endfacet
  facet normal 0 0 -1
    outer loop
      vertex 14.5287 3.73035 0
      vertex 20.3402 5.22249 0
      vertex 14.8817 1.88 0
    endloop
  endfacet
  facet normal 0 0 -1
    outer loop
      vertex 12.1353 -8.81678 0
      vertex 16.9894 -12.3435 0
      vertex 15.3083 -14.3755 0
    endloop
  endfacet
  facet normal -0 0 -1
    outer loop
      vertex 20.3402 5.22249 0
      vertex 14.5287 3.73035 0
      vertex 19.5253 7.73061 0
    endloop
  endfacet
  facet normal 0 0 -1
    outer loop
      vertex 13.9466 5.52187 0
      vertex 19.5253 7.73061 0
      vertex 14.5287 3.73035 0
    endloop
  endfacet
  facet normal 0 0 -1
    outer loop
      vertex 20.8344 -2.632 0
      vertex 14.8817 -1.88 0
      vertex 15 0 0
    endloop
  endfacet
  facet normal 0 0 -1
    outer loop
      vertex 20.3402 -5.22249 0
      vertex 14.5287 -3.73035 0
      vertex 14.8817 -1.88 0
    endloop
  endfacet
  facet normal 0 0 -1
    outer loop
      vertex 19.5253 -7.73061 0
      vertex 13.9466 -5.52187 0
      vertex 14.5287 -3.73035 0
    endloop
  endfacet
  facet normal 0 0 -1
    outer loop
      vertex 10.9345 -10.2682 0
      vertex 15.3083 -14.3755 0
      vertex 13.3859 -16.1808 0
    endloop
  endfacet
  facet normal 0 0 -1
    outer loop
      vertex 18.4024 -10.1168 0
      vertex 13.1446 -7.22631 0
      vertex 13.9466 -5.52187 0
    endloop
  endfacet
  facet normal 0 0 -1
    outer loop
      vertex 16.9894 -12.3435 0
      vertex 12.1353 -8.81678 0
      vertex 13.1446 -7.22631 0
    endloop
  endfacet
  facet normal 0 0 -1
    outer loop
      vertex 9.56136 -11.5577 0
      vertex 13.3859 -16.1808 0
      vertex 11.2524 -17.7309 0
    endloop
  endfacet
  facet normal 0 0 -1
    outer loop
      vertex 15.3083 -14.3755 0
      vertex 10.9345 -10.2682 0
      vertex 12.1353 -8.81678 0
    endloop
  endfacet
  facet normal 0 0 -1
    outer loop
      vertex 13.3859 -16.1808 0
      vertex 9.56136 -11.5577 0
      vertex 10.9345 -10.2682 0
    endloop
  endfacet
  facet normal 0 0 -1
    outer loop
      vertex 8.0374 -12.6649 0
      vertex 11.2524 -17.7309 0
      vertex 8.94136 -19.0014 0
    endloop
  endfacet
  facet normal 0 0 -1
    outer loop
      vertex 11.2524 -17.7309 0
      vertex 8.0374 -12.6649 0
      vertex 9.56136 -11.5577 0
    endloop
  endfacet
  facet normal 0 0 -1
    outer loop
      vertex 6.38669 -13.5724 0
      vertex 8.94136 -19.0014 0
      vertex 6.48936 -19.9722 0
    endloop
  endfacet
  facet normal 0 0 -1
    outer loop
      vertex 8.94136 -19.0014 0
      vertex 6.38669 -13.5724 0
      vertex 8.0374 -12.6649 0
    endloop
  endfacet
  facet normal 0 0 -1
    outer loop
      vertex 6.48936 -19.9722 0
      vertex 4.63525 -14.2658 0
      vertex 6.38669 -13.5724 0
    endloop
  endfacet
  facet normal 0 0 -1
    outer loop
      vertex 3.93501 -20.628 0
      vertex 4.63525 -14.2658 0
      vertex 6.48936 -19.9722 0
    endloop
  endfacet
  facet normal 0 0 -1
    outer loop
      vertex 3.93501 -20.628 0
      vertex 2.81072 -14.7343 0
      vertex 4.63525 -14.2658 0
    endloop
  endfacet
  facet normal 0 0 -1
    outer loop
      vertex 1.3186 -20.9586 0
      vertex 2.81072 -14.7343 0
      vertex 3.93501 -20.628 0
    endloop
  endfacet
  facet normal 0 0 -1
    outer loop
      vertex 1.3186 -20.9586 0
      vertex 0.941857 -14.9704 0
      vertex 2.81072 -14.7343 0
    endloop
  endfacet
  facet normal 0 0 -1
    outer loop
      vertex 1.3186 -20.9586 0
      vertex -0.941857 -14.9704 0
      vertex 0.941857 -14.9704 0
    endloop
  endfacet
  facet normal 0 0 -1
    outer loop
      vertex -1.3186 -20.9586 0
      vertex -0.941857 -14.9704 0
      vertex 1.3186 -20.9586 0
    endloop
  endfacet
  facet normal 0 0 -1
    outer loop
      vertex -1.3186 -20.9586 0
      vertex -2.81072 -14.7343 0
      vertex -0.941857 -14.9704 0
    endloop
  endfacet
  facet normal 0 0 -1
    outer loop
      vertex -3.93501 -20.628 0
      vertex -2.81072 -14.7343 0
      vertex -1.3186 -20.9586 0
    endloop
  endfacet
  facet normal 0 0 -1
    outer loop
      vertex -3.93501 -20.628 0
      vertex -4.63525 -14.2658 0
      vertex -2.81072 -14.7343 0
    endloop
  endfacet
  facet normal 0 0 -1
    outer loop
      vertex -6.48936 -19.9722 0
      vertex -4.63525 -14.2658 0
      vertex -3.93501 -20.628 0
    endloop
  endfacet
  facet normal -0 0 -1
    outer loop
      vertex -4.63525 -14.2658 0
      vertex -6.48936 -19.9722 0
      vertex -6.38669 -13.5724 0
    endloop
  endfacet
  facet normal 0 0 -1
    outer loop
      vertex -8.94136 -19.0014 0
      vertex -6.38669 -13.5724 0
      vertex -6.48936 -19.9722 0
    endloop
  endfacet
  facet normal -0 0 -1
    outer loop
      vertex -6.38669 -13.5724 0
      vertex -8.94136 -19.0014 0
      vertex -8.0374 -12.6649 0
    endloop
  endfacet
  facet normal 0 0 -1
    outer loop
      vertex -11.2524 -17.7309 0
      vertex -8.0374 -12.6649 0
      vertex -8.94136 -19.0014 0
    endloop
  endfacet
  facet normal -0 0 -1
    outer loop
      vertex -8.0374 -12.6649 0
      vertex -11.2524 -17.7309 0
      vertex -9.56136 -11.5577 0
    endloop
  endfacet
  facet normal 0 0 -1
    outer loop
      vertex -13.3859 -16.1808 0
      vertex -9.56136 -11.5577 0
      vertex -11.2524 -17.7309 0
    endloop
  endfacet
  facet normal -0 0 -1
    outer loop
      vertex -9.56136 -11.5577 0
      vertex -13.3859 -16.1808 0
      vertex -10.9345 -10.2682 0
    endloop
  endfacet
  facet normal 0 0 -1
    outer loop
      vertex -15.3083 -14.3755 0
      vertex -10.9345 -10.2682 0
      vertex -13.3859 -16.1808 0
    endloop
  endfacet
  facet normal -0 0 -1
    outer loop
      vertex -10.9345 -10.2682 0
      vertex -15.3083 -14.3755 0
      vertex -12.1353 -8.81678 0
    endloop
  endfacet
  facet normal 0 0 -1
    outer loop
      vertex -16.9894 -12.3435 0
      vertex -12.1353 -8.81678 0
      vertex -15.3083 -14.3755 0
    endloop
  endfacet
  facet normal -0 0 -1
    outer loop
      vertex -12.1353 -8.81678 0
      vertex -16.9894 -12.3435 0
      vertex -13.1446 -7.22631 0
    endloop
  endfacet
  facet normal 0 0 -1
    outer loop
      vertex -18.4024 -10.1168 0
      vertex -13.1446 -7.22631 0
      vertex -16.9894 -12.3435 0
    endloop
  endfacet
  facet normal 0 0 -1
    outer loop
      vertex -19.5253 -7.73061 0
      vertex -13.9466 -5.52187 0
      vertex -18.4024 -10.1168 0
    endloop
  endfacet
  facet normal -0 0 -1
    outer loop
      vertex -13.1446 -7.22631 0
      vertex -18.4024 -10.1168 0
      vertex -13.9466 -5.52187 0
    endloop
  endfacet
  facet normal -0 0 -1
    outer loop
      vertex 19.5253 7.73061 0
      vertex 13.9466 5.52187 0
      vertex 18.4024 10.1168 0
    endloop
  endfacet
  facet normal 0 0 -1
    outer loop
      vertex 13.1446 7.22631 0
      vertex 18.4024 10.1168 0
      vertex 13.9466 5.52187 0
    endloop
  endfacet
  facet normal -0 0 -1
    outer loop
      vertex 18.4024 10.1168 0
      vertex 13.1446 7.22631 0
      vertex 16.9894 12.3435 0
    endloop
  endfacet
  facet normal 0 0 -1
    outer loop
      vertex 12.1353 8.81678 0
      vertex 16.9894 12.3435 0
      vertex 13.1446 7.22631 0
    endloop
  endfacet
  facet normal -0 0 -1
    outer loop
      vertex 16.9894 12.3435 0
      vertex 12.1353 8.81678 0
      vertex 15.3083 14.3755 0
    endloop
  endfacet
  facet normal 0 0 -1
    outer loop
      vertex 10.9345 10.2682 0
      vertex 15.3083 14.3755 0
      vertex 12.1353 8.81678 0
    endloop
  endfacet
  facet normal -0 0 -1
    outer loop
      vertex 15.3083 14.3755 0
      vertex 10.9345 10.2682 0
      vertex 13.3859 16.1808 0
    endloop
  endfacet
  facet normal 0 0 -1
    outer loop
      vertex 9.56136 11.5577 0
      vertex 13.3859 16.1808 0
      vertex 10.9345 10.2682 0
    endloop
  endfacet
  facet normal -0 0 -1
    outer loop
      vertex 13.3859 16.1808 0
      vertex 9.56136 11.5577 0
      vertex 11.2524 17.7309 0
    endloop
  endfacet
  facet normal 0 0 -1
    outer loop
      vertex 8.0374 12.6649 0
      vertex 11.2524 17.7309 0
      vertex 9.56136 11.5577 0
    endloop
  endfacet
  facet normal -0 0 -1
    outer loop
      vertex 11.2524 17.7309 0
      vertex 8.0374 12.6649 0
      vertex 8.94136 19.0014 0
    endloop
  endfacet
  facet normal 0 0 -1
    outer loop
      vertex 6.38669 13.5724 0
      vertex 8.94136 19.0014 0
      vertex 8.0374 12.6649 0
    endloop
  endfacet
  facet normal -0 0 -1
    outer loop
      vertex 8.94136 19.0014 0
      vertex 6.38669 13.5724 0
      vertex 6.48936 19.9722 0
    endloop
  endfacet
  facet normal 0 0 -1
    outer loop
      vertex 4.63525 14.2658 0
      vertex 6.48936 19.9722 0
      vertex 6.38669 13.5724 0
    endloop
  endfacet
  facet normal 0 0 -1
    outer loop
      vertex 4.63525 14.2658 0
      vertex 3.93501 20.628 0
      vertex 6.48936 19.9722 0
    endloop
  endfacet
  facet normal 0 0 -1
    outer loop
      vertex 2.81072 14.7343 0
      vertex 3.93501 20.628 0
      vertex 4.63525 14.2658 0
    endloop
  endfacet
  facet normal 0 0 -1
    outer loop
      vertex 2.81072 14.7343 0
      vertex 1.3186 20.9586 0
      vertex 3.93501 20.628 0
    endloop
  endfacet
  facet normal 0 0 -1
    outer loop
      vertex 0.941857 14.9704 0
      vertex 1.3186 20.9586 0
      vertex 2.81072 14.7343 0
    endloop
  endfacet
  facet normal 0 0 -1
    outer loop
      vertex -0.941857 14.9704 0
      vertex 1.3186 20.9586 0
      vertex 0.941857 14.9704 0
    endloop
  endfacet
  facet normal 0 0 -1
    outer loop
      vertex -0.941857 14.9704 0
      vertex -1.3186 20.9586 0
      vertex 1.3186 20.9586 0
    endloop
  endfacet
  facet normal 0 0 -1
    outer loop
      vertex -2.81072 14.7343 0
      vertex -1.3186 20.9586 0
      vertex -0.941857 14.9704 0
    endloop
  endfacet
  facet normal 0 0 -1
    outer loop
      vertex -2.81072 14.7343 0
      vertex -3.93501 20.628 0
      vertex -1.3186 20.9586 0
    endloop
  endfacet
  facet normal 0 0 -1
    outer loop
      vertex -4.63525 14.2658 0
      vertex -3.93501 20.628 0
      vertex -2.81072 14.7343 0
    endloop
  endfacet
  facet normal 0 0 -1
    outer loop
      vertex -6.48936 19.9722 0
      vertex -4.63525 14.2658 0
      vertex -6.38669 13.5724 0
    endloop
  endfacet
  facet normal 0 0 -1
    outer loop
      vertex -4.63525 14.2658 0
      vertex -6.48936 19.9722 0
      vertex -3.93501 20.628 0
    endloop
  endfacet
  facet normal 0 0 -1
    outer loop
      vertex -8.94136 19.0014 0
      vertex -6.38669 13.5724 0
      vertex -8.0374 12.6649 0
    endloop
  endfacet
  facet normal 0 0 -1
    outer loop
      vertex -6.38669 13.5724 0
      vertex -8.94136 19.0014 0
      vertex -6.48936 19.9722 0
    endloop
  endfacet
  facet normal 0 0 -1
    outer loop
      vertex -11.2524 17.7309 0
      vertex -8.0374 12.6649 0
      vertex -9.56136 11.5577 0
    endloop
  endfacet
  facet normal 0 0 -1
    outer loop
      vertex -13.3859 16.1808 0
      vertex -9.56136 11.5577 0
      vertex -10.9345 10.2682 0
    endloop
  endfacet
  facet normal 0 0 -1
    outer loop
      vertex -8.0374 12.6649 0
      vertex -11.2524 17.7309 0
      vertex -8.94136 19.0014 0
    endloop
  endfacet
  facet normal 0 0 -1
    outer loop
      vertex -15.3083 14.3755 0
      vertex -10.9345 10.2682 0
      vertex -12.1353 8.81678 0
    endloop
  endfacet
  facet normal 0 0 -1
    outer loop
      vertex -16.9894 12.3435 0
      vertex -12.1353 8.81678 0
      vertex -13.1446 7.22631 0
    endloop
  endfacet
  facet normal 0 0 -1
    outer loop
      vertex -9.56136 11.5577 0
      vertex -13.3859 16.1808 0
      vertex -11.2524 17.7309 0
    endloop
  endfacet
  facet normal 0 0 -1
    outer loop
      vertex -18.4024 10.1168 0
      vertex -13.1446 7.22631 0
      vertex -13.9466 5.52187 0
    endloop
  endfacet
  facet normal 0 0 -1
    outer loop
      vertex -19.5253 7.73061 0
      vertex -13.9466 5.52187 0
      vertex -14.5287 3.73035 0
    endloop
  endfacet
  facet normal 0 0 -1
    outer loop
      vertex -20.3402 5.22249 0
      vertex -14.5287 3.73035 0
      vertex -14.8817 1.88 0
    endloop
  endfacet
  facet normal 0 0 -1
    outer loop
      vertex -10.9345 10.2682 0
      vertex -15.3083 14.3755 0
      vertex -13.3859 16.1808 0
    endloop
  endfacet
  facet normal 0 0 -1
    outer loop
      vertex -20.8344 2.632 0
      vertex -14.8817 1.88 0
      vertex -15 0 0
    endloop
  endfacet
  facet normal -0 0 -1
    outer loop
      vertex -13.9466 -5.52187 0
      vertex -19.5253 -7.73061 0
      vertex -14.5287 -3.73035 0
    endloop
  endfacet
  facet normal 0 0 -1
    outer loop
      vertex -20.3402 -5.22249 0
      vertex -14.5287 -3.73035 0
      vertex -19.5253 -7.73061 0
    endloop
  endfacet
  facet normal 0 0 -1
    outer loop
      vertex -12.1353 8.81678 0
      vertex -16.9894 12.3435 0
      vertex -15.3083 14.3755 0
    endloop
  endfacet
  facet normal -0 0 -1
    outer loop
      vertex -14.5287 -3.73035 0
      vertex -20.3402 -5.22249 0
      vertex -14.8817 -1.88 0
    endloop
  endfacet
  facet normal 0 0 -1
    outer loop
      vertex -13.1446 7.22631 0
      vertex -18.4024 10.1168 0
      vertex -16.9894 12.3435 0
    endloop
  endfacet
  facet normal 0 0 -1
    outer loop
      vertex -20.8344 -2.632 0
      vertex -14.8817 -1.88 0
      vertex -20.3402 -5.22249 0
    endloop
  endfacet
  facet normal 0 0 -1
    outer loop
      vertex -13.9466 5.52187 0
      vertex -19.5253 7.73061 0
      vertex -18.4024 10.1168 0
    endloop
  endfacet
  facet normal -0 0 -1
    outer loop
      vertex -14.8817 -1.88 0
      vertex -20.8344 -2.632 0
      vertex -15 0 0
    endloop
  endfacet
  facet normal 0 0 -1
    outer loop
      vertex -14.5287 3.73035 0
      vertex -20.3402 5.22249 0
      vertex -19.5253 7.73061 0
    endloop
  endfacet
  facet normal 0 0 -1
    outer loop
      vertex -21 0 0
      vertex -15 0 0
      vertex -20.8344 -2.632 0
    endloop
  endfacet
  facet normal 0 0 -1
    outer loop
      vertex -14.8817 1.88 0
      vertex -20.8344 2.632 0
      vertex -20.3402 5.22249 0
    endloop
  endfacet
  facet normal 0 0 -1
    outer loop
      vertex -15 0 0
      vertex -21 0 0
      vertex -20.8344 2.632 0
    endloop
  endfacet
  facet normal 0.368119 -0.929778 0
    outer loop
      vertex 6.48936 -19.9722 0
      vertex 8.94136 -19.0014 7
      vertex 6.48936 -19.9722 7
    endloop
  endfacet
  facet normal 0.368119 -0.929778 0
    outer loop
      vertex 8.94136 -19.0014 7
      vertex 6.48936 -19.9722 0
      vertex 8.94136 -19.0014 0
    endloop
  endfacet
  facet normal -0.770498 0.637443 0
    outer loop
      vertex -16.9894 12.3435 0
      vertex -15.3083 14.3755 7
      vertex -15.3083 14.3755 0
    endloop
  endfacet
  facet normal -0.770498 0.637443 0
    outer loop
      vertex -15.3083 14.3755 7
      vertex -16.9894 12.3435 0
      vertex -16.9894 12.3435 7
    endloop
  endfacet
  facet normal -0.481752 0.876307 0
    outer loop
      vertex -8.94136 19.0014 0
      vertex -11.2524 17.7309 7
      vertex -8.94136 19.0014 7
    endloop
  endfacet
  facet normal -0.481752 0.876307 0
    outer loop
      vertex -11.2524 17.7309 7
      vertex -8.94136 19.0014 0
      vertex -11.2524 17.7309 0
    endloop
  endfacet
  facet normal -0.248674 0.968587 0
    outer loop
      vertex -3.93501 20.628 0
      vertex -6.48936 19.9722 7
      vertex -3.93501 20.628 7
    endloop
  endfacet
  facet normal -0.248674 0.968587 0
    outer loop
      vertex -6.48936 19.9722 7
      vertex -3.93501 20.628 0
      vertex -6.48936 19.9722 0
    endloop
  endfacet
  facet normal 0.481752 -0.876307 0
    outer loop
      vertex 8.94136 -19.0014 0
      vertex 11.2524 -17.7309 7
      vertex 8.94136 -19.0014 7
    endloop
  endfacet
  facet normal 0.481752 -0.876307 0
    outer loop
      vertex 11.2524 -17.7309 7
      vertex 8.94136 -19.0014 0
      vertex 11.2524 -17.7309 0
    endloop
  endfacet
  facet normal 0.904821 -0.425793 0
    outer loop
      vertex 18.4024 -10.1168 7
      vertex 19.5253 -7.73061 0
      vertex 19.5253 -7.73061 7
    endloop
  endfacet
  facet normal 0.904821 -0.425793 0
    outer loop
      vertex 19.5253 -7.73061 0
      vertex 18.4024 -10.1168 7
      vertex 18.4024 -10.1168 0
    endloop
  endfacet
  facet normal 0.770498 -0.637443 0
    outer loop
      vertex 15.3083 -14.3755 7
      vertex 16.9894 -12.3435 0
      vertex 16.9894 -12.3435 7
    endloop
  endfacet
  facet normal 0.770498 -0.637443 0
    outer loop
      vertex 16.9894 -12.3435 0
      vertex 15.3083 -14.3755 7
      vertex 15.3083 -14.3755 0
    endloop
  endfacet
  facet normal -0.368119 -0.929778 0
    outer loop
      vertex -8.94136 -19.0014 0
      vertex -6.48936 -19.9722 7
      vertex -8.94136 -19.0014 7
    endloop
  endfacet
  facet normal -0.368119 -0.929778 -0
    outer loop
      vertex -6.48936 -19.9722 7
      vertex -8.94136 -19.0014 0
      vertex -6.48936 -19.9722 0
    endloop
  endfacet
  facet normal -0.248674 -0.968587 0
    outer loop
      vertex -6.48936 -19.9722 0
      vertex -3.93501 -20.628 7
      vertex -6.48936 -19.9722 7
    endloop
  endfacet
  facet normal -0.248674 -0.968587 -0
    outer loop
      vertex -3.93501 -20.628 7
      vertex -6.48936 -19.9722 0
      vertex -3.93501 -20.628 0
    endloop
  endfacet
  facet normal -0.684556 -0.72896 0
    outer loop
      vertex -15.3083 -14.3755 0
      vertex -13.3859 -16.1808 7
      vertex -15.3083 -14.3755 7
    endloop
  endfacet
  facet normal -0.684556 -0.72896 -0
    outer loop
      vertex -13.3859 -16.1808 7
      vertex -15.3083 -14.3755 0
      vertex -13.3859 -16.1808 0
    endloop
  endfacet
  facet normal -0.951061 -0.309004 0
    outer loop
      vertex -19.5253 -7.73061 0
      vertex -20.3402 -5.22249 7
      vertex -20.3402 -5.22249 0
    endloop
  endfacet
  facet normal -0.951061 -0.309004 0
    outer loop
      vertex -20.3402 -5.22249 7
      vertex -19.5253 -7.73061 0
      vertex -19.5253 -7.73061 7
    endloop
  endfacet
  facet normal 0.248674 -0.968587 0
    outer loop
      vertex 3.93501 -20.628 0
      vertex 6.48936 -19.9722 7
      vertex 3.93501 -20.628 7
    endloop
  endfacet
  facet normal 0.248674 -0.968587 0
    outer loop
      vertex 6.48936 -19.9722 7
      vertex 3.93501 -20.628 0
      vertex 6.48936 -19.9722 0
    endloop
  endfacet
  facet normal 0.587791 -0.809013 0
    outer loop
      vertex 11.2524 -17.7309 0
      vertex 13.3859 -16.1808 7
      vertex 11.2524 -17.7309 7
    endloop
  endfacet
  facet normal 0.587791 -0.809013 0
    outer loop
      vertex 13.3859 -16.1808 7
      vertex 11.2524 -17.7309 0
      vertex 13.3859 -16.1808 0
    endloop
  endfacet
  facet normal 0.844346 -0.535798 0
    outer loop
      vertex 16.9894 -12.3435 7
      vertex 18.4024 -10.1168 0
      vertex 18.4024 -10.1168 7
    endloop
  endfacet
  facet normal 0.844346 -0.535798 0
    outer loop
      vertex 18.4024 -10.1168 0
      vertex 16.9894 -12.3435 7
      vertex 16.9894 -12.3435 0
    endloop
  endfacet
  facet normal -0.12536 -0.992111 0
    outer loop
      vertex -3.93501 -20.628 0
      vertex -1.3186 -20.9586 7
      vertex -3.93501 -20.628 7
    endloop
  endfacet
  facet normal -0.12536 -0.992111 -0
    outer loop
      vertex -1.3186 -20.9586 7
      vertex -3.93501 -20.628 0
      vertex -1.3186 -20.9586 0
    endloop
  endfacet
  facet normal -0.587791 -0.809013 0
    outer loop
      vertex -13.3859 -16.1808 0
      vertex -11.2524 -17.7309 7
      vertex -13.3859 -16.1808 7
    endloop
  endfacet
  facet normal -0.587791 -0.809013 -0
    outer loop
      vertex -11.2524 -17.7309 7
      vertex -13.3859 -16.1808 0
      vertex -11.2524 -17.7309 0
    endloop
  endfacet
  facet normal -0.844346 -0.535798 0
    outer loop
      vertex -16.9894 -12.3435 0
      vertex -18.4024 -10.1168 7
      vertex -18.4024 -10.1168 0
    endloop
  endfacet
  facet normal -0.844346 -0.535798 0
    outer loop
      vertex -18.4024 -10.1168 7
      vertex -16.9894 -12.3435 0
      vertex -16.9894 -12.3435 7
    endloop
  endfacet
  facet normal -0.982285 -0.187395 0
    outer loop
      vertex -20.3402 -5.22249 0
      vertex -20.8344 -2.632 7
      vertex -20.8344 -2.632 0
    endloop
  endfacet
  facet normal -0.982285 -0.187395 0
    outer loop
      vertex -20.8344 -2.632 7
      vertex -20.3402 -5.22249 0
      vertex -20.3402 -5.22249 7
    endloop
  endfacet
  facet normal -0.998027 -0.0627938 0
    outer loop
      vertex -20.8344 -2.632 0
      vertex -21 0 7
      vertex -21 0 0
    endloop
  endfacet
  facet normal -0.998027 -0.0627938 0
    outer loop
      vertex -21 0 7
      vertex -20.8344 -2.632 0
      vertex -20.8344 -2.632 7
    endloop
  endfacet
  facet normal -0.770498 -0.637443 0
    outer loop
      vertex -15.3083 -14.3755 0
      vertex -16.9894 -12.3435 7
      vertex -16.9894 -12.3435 0
    endloop
  endfacet
  facet normal -0.770498 -0.637443 0
    outer loop
      vertex -16.9894 -12.3435 7
      vertex -15.3083 -14.3755 0
      vertex -15.3083 -14.3755 7
    endloop
  endfacet
  facet normal -0.481752 -0.876307 0
    outer loop
      vertex -11.2524 -17.7309 0
      vertex -8.94136 -19.0014 7
      vertex -11.2524 -17.7309 7
    endloop
  endfacet
  facet normal -0.481752 -0.876307 -0
    outer loop
      vertex -8.94136 -19.0014 7
      vertex -11.2524 -17.7309 0
      vertex -8.94136 -19.0014 0
    endloop
  endfacet
  facet normal -0.904837 -0.425758 0
    outer loop
      vertex 13.9466 5.52187 0
      vertex 13.1446 7.22631 7
      vertex 13.1446 7.22631 0
    endloop
  endfacet
  facet normal -0.904837 -0.425758 0
    outer loop
      vertex 13.1446 7.22631 7
      vertex 13.9466 5.52187 0
      vertex 13.9466 5.52187 7
    endloop
  endfacet
  facet normal 0.951057 -0.309017 0
    outer loop
      vertex -14.5287 3.73035 7
      vertex -13.9466 5.52187 0
      vertex -13.9466 5.52187 7
    endloop
  endfacet
  facet normal 0.951057 -0.309017 0
    outer loop
      vertex -13.9466 5.52187 0
      vertex -14.5287 3.73035 7
      vertex -14.5287 3.73035 0
    endloop
  endfacet
  facet normal -0.844338 -0.535811 0
    outer loop
      vertex 13.1446 7.22631 0
      vertex 12.1353 8.81678 7
      vertex 12.1353 8.81678 0
    endloop
  endfacet
  facet normal -0.844338 -0.535811 0
    outer loop
      vertex 12.1353 8.81678 7
      vertex 13.1446 7.22631 0
      vertex 13.1446 7.22631 7
    endloop
  endfacet
  facet normal -0.368104 -0.929785 0
    outer loop
      vertex 4.63525 14.2658 0
      vertex 6.38669 13.5724 7
      vertex 4.63525 14.2658 7
    endloop
  endfacet
  facet normal -0.368104 -0.929785 -0
    outer loop
      vertex 6.38669 13.5724 7
      vertex 4.63525 14.2658 0
      vertex 6.38669 13.5724 0
    endloop
  endfacet
  facet normal 0.368104 -0.929785 0
    outer loop
      vertex -6.38669 13.5724 0
      vertex -4.63525 14.2658 7
      vertex -6.38669 13.5724 7
    endloop
  endfacet
  facet normal 0.368104 -0.929785 0
    outer loop
      vertex -4.63525 14.2658 7
      vertex -6.38669 13.5724 0
      vertex -4.63525 14.2658 0
    endloop
  endfacet
  facet normal 0.904837 -0.425758 0
    outer loop
      vertex -13.9466 5.52187 7
      vertex -13.1446 7.22631 0
      vertex -13.1446 7.22631 7
    endloop
  endfacet
  facet normal 0.904837 -0.425758 0
    outer loop
      vertex -13.1446 7.22631 0
      vertex -13.9466 5.52187 7
      vertex -13.9466 5.52187 0
    endloop
  endfacet
  facet normal -0.998026 0.0628013 0
    outer loop
      vertex 14.8817 -1.88 0
      vertex 15 0 7
      vertex 15 0 0
    endloop
  endfacet
  facet normal -0.998026 0.0628013 0
    outer loop
      vertex 15 0 7
      vertex 14.8817 -1.88 0
      vertex 14.8817 -1.88 7
    endloop
  endfacet
  facet normal -0.368104 0.929785 0
    outer loop
      vertex 6.38669 -13.5724 0
      vertex 4.63525 -14.2658 7
      vertex 6.38669 -13.5724 7
    endloop
  endfacet
  facet normal -0.368104 0.929785 0
    outer loop
      vertex 4.63525 -14.2658 7
      vertex 6.38669 -13.5724 0
      vertex 4.63525 -14.2658 0
    endloop
  endfacet
  facet normal 0 -1 0
    outer loop
      vertex -0.941857 14.9704 0
      vertex 0.941857 14.9704 7
      vertex -0.941857 14.9704 7
    endloop
  endfacet
  facet normal 0 -1 -0
    outer loop
      vertex 0.941857 14.9704 7
      vertex -0.941857 14.9704 0
      vertex 0.941857 14.9704 0
    endloop
  endfacet
  facet normal 0.770492 -0.63745 0
    outer loop
      vertex -12.1353 8.81678 7
      vertex -10.9345 10.2682 0
      vertex -10.9345 10.2682 7
    endloop
  endfacet
  facet normal 0.770492 -0.63745 0
    outer loop
      vertex -10.9345 10.2682 0
      vertex -12.1353 8.81678 7
      vertex -12.1353 8.81678 0
    endloop
  endfacet
  facet normal 0.684557 -0.728959 0
    outer loop
      vertex -10.9345 10.2682 0
      vertex -9.56136 11.5577 7
      vertex -10.9345 10.2682 7
    endloop
  endfacet
  facet normal 0.684557 -0.728959 0
    outer loop
      vertex -9.56136 11.5577 7
      vertex -10.9345 10.2682 0
      vertex -9.56136 11.5577 0
    endloop
  endfacet
  facet normal -0.998026 -0.0628013 0
    outer loop
      vertex 15 0 0
      vertex 14.8817 1.88 7
      vertex 14.8817 1.88 0
    endloop
  endfacet
  facet normal -0.998026 -0.0628013 0
    outer loop
      vertex 14.8817 1.88 7
      vertex 15 0 0
      vertex 15 0 7
    endloop
  endfacet
  facet normal -0.24871 0.968578 0
    outer loop
      vertex 4.63525 -14.2658 0
      vertex 2.81072 -14.7343 7
      vertex 4.63525 -14.2658 7
    endloop
  endfacet
  facet normal -0.24871 0.968578 0
    outer loop
      vertex 2.81072 -14.7343 7
      vertex 4.63525 -14.2658 0
      vertex 2.81072 -14.7343 0
    endloop
  endfacet
  facet normal -0.951057 -0.309017 0
    outer loop
      vertex 14.5287 3.73035 0
      vertex 13.9466 5.52187 7
      vertex 13.9466 5.52187 0
    endloop
  endfacet
  facet normal -0.951057 -0.309017 0
    outer loop
      vertex 13.9466 5.52187 7
      vertex 14.5287 3.73035 0
      vertex 14.5287 3.73035 7
    endloop
  endfacet
  facet normal -0.684557 -0.728959 0
    outer loop
      vertex 9.56136 11.5577 0
      vertex 10.9345 10.2682 7
      vertex 9.56136 11.5577 7
    endloop
  endfacet
  facet normal -0.684557 -0.728959 -0
    outer loop
      vertex 10.9345 10.2682 7
      vertex 9.56136 11.5577 0
      vertex 10.9345 10.2682 0
    endloop
  endfacet
  facet normal -0.770492 -0.63745 0
    outer loop
      vertex 12.1353 8.81678 0
      vertex 10.9345 10.2682 7
      vertex 10.9345 10.2682 0
    endloop
  endfacet
  facet normal -0.770492 -0.63745 0
    outer loop
      vertex 10.9345 10.2682 7
      vertex 12.1353 8.81678 0
      vertex 12.1353 8.81678 7
    endloop
  endfacet
  facet normal -0.24871 -0.968578 0
    outer loop
      vertex 2.81072 14.7343 0
      vertex 4.63525 14.2658 7
      vertex 2.81072 14.7343 7
    endloop
  endfacet
  facet normal -0.24871 -0.968578 -0
    outer loop
      vertex 4.63525 14.2658 7
      vertex 2.81072 14.7343 0
      vertex 4.63525 14.2658 0
    endloop
  endfacet
  facet normal -0.125337 -0.992114 0
    outer loop
      vertex 0.941857 14.9704 0
      vertex 2.81072 14.7343 7
      vertex 0.941857 14.9704 7
    endloop
  endfacet
  facet normal -0.125337 -0.992114 -0
    outer loop
      vertex 2.81072 14.7343 7
      vertex 0.941857 14.9704 0
      vertex 2.81072 14.7343 0
    endloop
  endfacet
  facet normal -0.587778 -0.809022 0
    outer loop
      vertex 8.0374 12.6649 0
      vertex 9.56136 11.5577 7
      vertex 8.0374 12.6649 7
    endloop
  endfacet
  facet normal -0.587778 -0.809022 -0
    outer loop
      vertex 9.56136 11.5577 7
      vertex 8.0374 12.6649 0
      vertex 9.56136 11.5577 0
    endloop
  endfacet
  facet normal -0.48176 -0.876303 0
    outer loop
      vertex 6.38669 13.5724 0
      vertex 8.0374 12.6649 7
      vertex 6.38669 13.5724 7
    endloop
  endfacet
  facet normal -0.48176 -0.876303 -0
    outer loop
      vertex 8.0374 12.6649 7
      vertex 6.38669 13.5724 0
      vertex 8.0374 12.6649 0
    endloop
  endfacet
  facet normal 0.998026 -0.0628013 0
    outer loop
      vertex -15 0 7
      vertex -14.8817 1.88 0
      vertex -14.8817 1.88 7
    endloop
  endfacet
  facet normal 0.998026 -0.0628013 0
    outer loop
      vertex -14.8817 1.88 0
      vertex -15 0 7
      vertex -15 0 0
    endloop
  endfacet
  facet normal 0.982285 -0.187395 0
    outer loop
      vertex -14.8817 1.88 7
      vertex -14.5287 3.73035 0
      vertex -14.5287 3.73035 7
    endloop
  endfacet
  facet normal 0.982285 -0.187395 0
    outer loop
      vertex -14.5287 3.73035 0
      vertex -14.8817 1.88 7
      vertex -14.8817 1.88 0
    endloop
  endfacet
  facet normal 0.844338 -0.535811 0
    outer loop
      vertex -13.1446 7.22631 7
      vertex -12.1353 8.81678 0
      vertex -12.1353 8.81678 7
    endloop
  endfacet
  facet normal 0.844338 -0.535811 0
    outer loop
      vertex -12.1353 8.81678 0
      vertex -13.1446 7.22631 7
      vertex -13.1446 7.22631 0
    endloop
  endfacet
  facet normal 0.125337 -0.992114 0
    outer loop
      vertex -2.81072 14.7343 0
      vertex -0.941857 14.9704 7
      vertex -2.81072 14.7343 7
    endloop
  endfacet
  facet normal 0.125337 -0.992114 0
    outer loop
      vertex -0.941857 14.9704 7
      vertex -2.81072 14.7343 0
      vertex -0.941857 14.9704 0
    endloop
  endfacet
  facet normal 0.24871 -0.968578 0
    outer loop
      vertex -4.63525 14.2658 0
      vertex -2.81072 14.7343 7
      vertex -4.63525 14.2658 7
    endloop
  endfacet
  facet normal 0.24871 -0.968578 0
    outer loop
      vertex -2.81072 14.7343 7
      vertex -4.63525 14.2658 0
      vertex -2.81072 14.7343 0
    endloop
  endfacet
  facet normal 0.48176 -0.876303 0
    outer loop
      vertex -8.0374 12.6649 0
      vertex -6.38669 13.5724 7
      vertex -8.0374 12.6649 7
    endloop
  endfacet
  facet normal 0.48176 -0.876303 0
    outer loop
      vertex -6.38669 13.5724 7
      vertex -8.0374 12.6649 0
      vertex -6.38669 13.5724 0
    endloop
  endfacet
  facet normal 0.587778 -0.809022 0
    outer loop
      vertex -9.56136 11.5577 0
      vertex -8.0374 12.6649 7
      vertex -9.56136 11.5577 7
    endloop
  endfacet
  facet normal 0.587778 -0.809022 0
    outer loop
      vertex -8.0374 12.6649 7
      vertex -9.56136 11.5577 0
      vertex -8.0374 12.6649 0
    endloop
  endfacet
  facet normal -0.982285 0.187395 0
    outer loop
      vertex 14.5287 -3.73035 0
      vertex 14.8817 -1.88 7
      vertex 14.8817 -1.88 0
    endloop
  endfacet
  facet normal -0.982285 0.187395 0
    outer loop
      vertex 14.8817 -1.88 7
      vertex 14.5287 -3.73035 0
      vertex 14.5287 -3.73035 7
    endloop
  endfacet
  facet normal -0.844338 0.535811 0
    outer loop
      vertex 12.1353 -8.81678 0
      vertex 13.1446 -7.22631 7
      vertex 13.1446 -7.22631 0
    endloop
  endfacet
  facet normal -0.844338 0.535811 0
    outer loop
      vertex 13.1446 -7.22631 7
      vertex 12.1353 -8.81678 0
      vertex 12.1353 -8.81678 7
    endloop
  endfacet
  facet normal 0.844338 0.535811 0
    outer loop
      vertex -12.1353 -8.81678 7
      vertex -13.1446 -7.22631 0
      vertex -13.1446 -7.22631 7
    endloop
  endfacet
  facet normal 0.844338 0.535811 0
    outer loop
      vertex -13.1446 -7.22631 0
      vertex -12.1353 -8.81678 7
      vertex -12.1353 -8.81678 0
    endloop
  endfacet
  facet normal -0.125337 0.992114 0
    outer loop
      vertex 2.81072 -14.7343 0
      vertex 0.941857 -14.9704 7
      vertex 2.81072 -14.7343 7
    endloop
  endfacet
  facet normal -0.125337 0.992114 0
    outer loop
      vertex 0.941857 -14.9704 7
      vertex 2.81072 -14.7343 0
      vertex 0.941857 -14.9704 0
    endloop
  endfacet
  facet normal -0.982285 -0.187395 0
    outer loop
      vertex 14.8817 1.88 0
      vertex 14.5287 3.73035 7
      vertex 14.5287 3.73035 0
    endloop
  endfacet
  facet normal -0.982285 -0.187395 0
    outer loop
      vertex 14.5287 3.73035 7
      vertex 14.8817 1.88 0
      vertex 14.8817 1.88 7
    endloop
  endfacet
  facet normal -0.684557 0.728959 0
    outer loop
      vertex 10.9345 -10.2682 0
      vertex 9.56136 -11.5577 7
      vertex 10.9345 -10.2682 7
    endloop
  endfacet
  facet normal -0.684557 0.728959 0
    outer loop
      vertex 9.56136 -11.5577 7
      vertex 10.9345 -10.2682 0
      vertex 9.56136 -11.5577 0
    endloop
  endfacet
  facet normal -0.904837 0.425758 0
    outer loop
      vertex 13.1446 -7.22631 0
      vertex 13.9466 -5.52187 7
      vertex 13.9466 -5.52187 0
    endloop
  endfacet
  facet normal -0.904837 0.425758 0
    outer loop
      vertex 13.9466 -5.52187 7
      vertex 13.1446 -7.22631 0
      vertex 13.1446 -7.22631 7
    endloop
  endfacet
  facet normal -0.951057 0.309017 0
    outer loop
      vertex 13.9466 -5.52187 0
      vertex 14.5287 -3.73035 7
      vertex 14.5287 -3.73035 0
    endloop
  endfacet
  facet normal -0.951057 0.309017 0
    outer loop
      vertex 14.5287 -3.73035 7
      vertex 13.9466 -5.52187 0
      vertex 13.9466 -5.52187 7
    endloop
  endfacet
  facet normal 0.368104 0.929785 -0
    outer loop
      vertex -4.63525 -14.2658 0
      vertex -6.38669 -13.5724 7
      vertex -4.63525 -14.2658 7
    endloop
  endfacet
  facet normal 0.368104 0.929785 0
    outer loop
      vertex -6.38669 -13.5724 7
      vertex -4.63525 -14.2658 0
      vertex -6.38669 -13.5724 0
    endloop
  endfacet
  facet normal 0 1 -0
    outer loop
      vertex 0.941857 -14.9704 0
      vertex -0.941857 -14.9704 7
      vertex 0.941857 -14.9704 7
    endloop
  endfacet
  facet normal 0 1 0
    outer loop
      vertex -0.941857 -14.9704 7
      vertex 0.941857 -14.9704 0
      vertex -0.941857 -14.9704 0
    endloop
  endfacet
  facet normal 0.998026 0.0628013 0
    outer loop
      vertex -14.8817 -1.88 7
      vertex -15 0 0
      vertex -15 0 7
    endloop
  endfacet
  facet normal 0.998026 0.0628013 0
    outer loop
      vertex -15 0 0
      vertex -14.8817 -1.88 7
      vertex -14.8817 -1.88 0
    endloop
  endfacet
  facet normal 0.904837 0.425758 0
    outer loop
      vertex -13.1446 -7.22631 7
      vertex -13.9466 -5.52187 0
      vertex -13.9466 -5.52187 7
    endloop
  endfacet
  facet normal 0.904837 0.425758 0
    outer loop
      vertex -13.9466 -5.52187 0
      vertex -13.1446 -7.22631 7
      vertex -13.1446 -7.22631 0
    endloop
  endfacet
  facet normal 0.951057 0.309017 0
    outer loop
      vertex -13.9466 -5.52187 7
      vertex -14.5287 -3.73035 0
      vertex -14.5287 -3.73035 7
    endloop
  endfacet
  facet normal 0.951057 0.309017 0
    outer loop
      vertex -14.5287 -3.73035 0
      vertex -13.9466 -5.52187 7
      vertex -13.9466 -5.52187 0
    endloop
  endfacet
  facet normal 0.770492 0.63745 0
    outer loop
      vertex -10.9345 -10.2682 7
      vertex -12.1353 -8.81678 0
      vertex -12.1353 -8.81678 7
    endloop
  endfacet
  facet normal 0.770492 0.63745 0
    outer loop
      vertex -12.1353 -8.81678 0
      vertex -10.9345 -10.2682 7
      vertex -10.9345 -10.2682 0
    endloop
  endfacet
  facet normal -0.48176 0.876303 0
    outer loop
      vertex 8.0374 -12.6649 0
      vertex 6.38669 -13.5724 7
      vertex 8.0374 -12.6649 7
    endloop
  endfacet
  facet normal -0.48176 0.876303 0
    outer loop
      vertex 6.38669 -13.5724 7
      vertex 8.0374 -12.6649 0
      vertex 6.38669 -13.5724 0
    endloop
  endfacet
  facet normal 0.587778 0.809022 -0
    outer loop
      vertex -8.0374 -12.6649 0
      vertex -9.56136 -11.5577 7
      vertex -8.0374 -12.6649 7
    endloop
  endfacet
  facet normal 0.587778 0.809022 0
    outer loop
      vertex -9.56136 -11.5577 7
      vertex -8.0374 -12.6649 0
      vertex -9.56136 -11.5577 0
    endloop
  endfacet
  facet normal 0.24871 0.968578 -0
    outer loop
      vertex -2.81072 -14.7343 0
      vertex -4.63525 -14.2658 7
      vertex -2.81072 -14.7343 7
    endloop
  endfacet
  facet normal 0.24871 0.968578 0
    outer loop
      vertex -4.63525 -14.2658 7
      vertex -2.81072 -14.7343 0
      vertex -4.63525 -14.2658 0
    endloop
  endfacet
  facet normal 0.982285 0.187395 0
    outer loop
      vertex -14.5287 -3.73035 7
      vertex -14.8817 -1.88 0
      vertex -14.8817 -1.88 7
    endloop
  endfacet
  facet normal 0.982285 0.187395 0
    outer loop
      vertex -14.8817 -1.88 0
      vertex -14.5287 -3.73035 7
      vertex -14.5287 -3.73035 0
    endloop
  endfacet
  facet normal 0.684557 0.728959 -0
    outer loop
      vertex -9.56136 -11.5577 0
      vertex -10.9345 -10.2682 7
      vertex -9.56136 -11.5577 7
    endloop
  endfacet
  facet normal 0.684557 0.728959 0
    outer loop
      vertex -10.9345 -10.2682 7
      vertex -9.56136 -11.5577 0
      vertex -10.9345 -10.2682 0
    endloop
  endfacet
  facet normal -0.587778 0.809022 0
    outer loop
      vertex 9.56136 -11.5577 0
      vertex 8.0374 -12.6649 7
      vertex 9.56136 -11.5577 7
    endloop
  endfacet
  facet normal -0.587778 0.809022 0
    outer loop
      vertex 8.0374 -12.6649 7
      vertex 9.56136 -11.5577 0
      vertex 8.0374 -12.6649 0
    endloop
  endfacet
  facet normal -0.770492 0.63745 0
    outer loop
      vertex 10.9345 -10.2682 0
      vertex 12.1353 -8.81678 7
      vertex 12.1353 -8.81678 0
    endloop
  endfacet
  facet normal -0.770492 0.63745 0
    outer loop
      vertex 12.1353 -8.81678 7
      vertex 10.9345 -10.2682 0
      vertex 10.9345 -10.2682 7
    endloop
  endfacet
  facet normal 0.48176 0.876303 -0
    outer loop
      vertex -6.38669 -13.5724 0
      vertex -8.0374 -12.6649 7
      vertex -6.38669 -13.5724 7
    endloop
  endfacet
  facet normal 0.48176 0.876303 0
    outer loop
      vertex -8.0374 -12.6649 7
      vertex -6.38669 -13.5724 0
      vertex -8.0374 -12.6649 0
    endloop
  endfacet
  facet normal 0.125337 0.992114 -0
    outer loop
      vertex -0.941857 -14.9704 0
      vertex -2.81072 -14.7343 7
      vertex -0.941857 -14.9704 7
    endloop
  endfacet
  facet normal 0.125337 0.992114 0
    outer loop
      vertex -2.81072 -14.7343 7
      vertex -0.941857 -14.9704 0
      vertex -2.81072 -14.7343 0
    endloop
  endfacet
endsolid OpenSCAD_Model
