solid OpenSCAD_Model
  facet normal 0.998027 0.0627882 0
    outer loop
      vertex 60 0 13
      vertex 59.5269 7.51999 0
      vertex 59.5269 7.51999 13
    endloop
  endfacet
  facet normal 0.998027 0.0627882 0
    outer loop
      vertex 59.5269 7.51999 0
      vertex 60 0 13
      vertex 60 0 0
    endloop
  endfacet
  facet normal -0.998027 0.0627882 0
    outer loop
      vertex -60 0 0
      vertex -59.5269 7.51999 13
      vertex -59.5269 7.51999 0
    endloop
  endfacet
  facet normal -0.998027 0.0627882 0
    outer loop
      vertex -59.5269 7.51999 13
      vertex -60 0 0
      vertex -60 0 13
    endloop
  endfacet
  facet normal 0 1 -0
    outer loop
      vertex 3.76743 59.8816 0
      vertex -3.76743 59.8816 13
      vertex 3.76743 59.8816 13
    endloop
  endfacet
  facet normal 0 1 0
    outer loop
      vertex -3.76743 59.8816 13
      vertex 3.76743 59.8816 0
      vertex -3.76743 59.8816 0
    endloop
  endfacet
  facet normal 0 -1 0
    outer loop
      vertex -3.76743 -59.8816 0
      vertex 3.76743 -59.8816 13
      vertex -3.76743 -59.8816 13
    endloop
  endfacet
  facet normal 0 -1 -0
    outer loop
      vertex 3.76743 -59.8816 13
      vertex -3.76743 -59.8816 0
      vertex 3.76743 -59.8816 0
    endloop
  endfacet
  facet normal 0.770513 -0.637425 0
    outer loop
      vertex 43.7381 -41.0728 13
      vertex 48.541 -35.2671 0
      vertex 48.541 -35.2671 13
    endloop
  endfacet
  facet normal 0.770513 -0.637425 0
    outer loop
      vertex 48.541 -35.2671 0
      vertex 43.7381 -41.0728 13
      vertex 43.7381 -41.0728 0
    endloop
  endfacet
  facet normal 0.684548 0.728968 -0
    outer loop
      vertex 43.7381 41.0728 0
      vertex 38.2454 46.2308 13
      vertex 43.7381 41.0728 13
    endloop
  endfacet
  facet normal 0.684548 0.728968 0
    outer loop
      vertex 38.2454 46.2308 13
      vertex 43.7381 41.0728 0
      vertex 38.2454 46.2308 0
    endloop
  endfacet
  facet normal -0.684548 0.728968 0
    outer loop
      vertex -38.2454 46.2308 0
      vertex -43.7381 41.0728 13
      vertex -38.2454 46.2308 13
    endloop
  endfacet
  facet normal -0.684548 0.728968 0
    outer loop
      vertex -43.7381 41.0728 13
      vertex -38.2454 46.2308 0
      vertex -43.7381 41.0728 0
    endloop
  endfacet
  facet normal -0.368125 0.929776 0
    outer loop
      vertex -18.541 57.0634 0
      vertex -25.5468 54.2896 13
      vertex -18.541 57.0634 13
    endloop
  endfacet
  facet normal -0.368125 0.929776 0
    outer loop
      vertex -25.5468 54.2896 13
      vertex -18.541 57.0634 0
      vertex -25.5468 54.2896 0
    endloop
  endfacet
  facet normal 0.951057 -0.309016 0
    outer loop
      vertex 55.7866 -22.0875 13
      vertex 58.115 -14.9214 0
      vertex 58.115 -14.9214 13
    endloop
  endfacet
  facet normal 0.951057 -0.309016 0
    outer loop
      vertex 58.115 -14.9214 0
      vertex 55.7866 -22.0875 13
      vertex 55.7866 -22.0875 0
    endloop
  endfacet
  facet normal 0.904825 0.425783 0
    outer loop
      vertex 55.7866 22.0875 13
      vertex 52.5784 28.9052 0
      vertex 52.5784 28.9052 13
    endloop
  endfacet
  facet normal 0.904825 0.425783 0
    outer loop
      vertex 52.5784 28.9052 0
      vertex 55.7866 22.0875 13
      vertex 55.7866 22.0875 0
    endloop
  endfacet
  facet normal 0.982287 0.187382 0
    outer loop
      vertex 59.5269 7.51999 13
      vertex 58.115 14.9214 0
      vertex 58.115 14.9214 13
    endloop
  endfacet
  facet normal 0.982287 0.187382 0
    outer loop
      vertex 58.115 14.9214 0
      vertex 59.5269 7.51999 13
      vertex 59.5269 7.51999 0
    endloop
  endfacet
  facet normal 0.844327 0.535828 0
    outer loop
      vertex 52.5784 28.9052 13
      vertex 48.541 35.2671 0
      vertex 48.541 35.2671 13
    endloop
  endfacet
  facet normal 0.844327 0.535828 0
    outer loop
      vertex 48.541 35.2671 0
      vertex 52.5784 28.9052 13
      vertex 52.5784 28.9052 0
    endloop
  endfacet
  facet normal 0.368125 0.929776 -0
    outer loop
      vertex 25.5468 54.2896 0
      vertex 18.541 57.0634 13
      vertex 25.5468 54.2896 13
    endloop
  endfacet
  facet normal 0.368125 0.929776 0
    outer loop
      vertex 18.541 57.0634 13
      vertex 25.5468 54.2896 0
      vertex 18.541 57.0634 0
    endloop
  endfacet
  facet normal 0.248686 0.968584 -0
    outer loop
      vertex 18.541 57.0634 0
      vertex 11.2429 58.9372 13
      vertex 18.541 57.0634 13
    endloop
  endfacet
  facet normal 0.248686 0.968584 0
    outer loop
      vertex 11.2429 58.9372 13
      vertex 18.541 57.0634 0
      vertex 11.2429 58.9372 0
    endloop
  endfacet
  facet normal 0.587789 0.809014 -0
    outer loop
      vertex 38.2454 46.2308 0
      vertex 32.1496 50.6597 13
      vertex 38.2454 46.2308 13
    endloop
  endfacet
  facet normal 0.587789 0.809014 0
    outer loop
      vertex 32.1496 50.6597 13
      vertex 38.2454 46.2308 0
      vertex 32.1496 50.6597 0
    endloop
  endfacet
  facet normal -0.904825 0.425783 0
    outer loop
      vertex -55.7866 22.0875 0
      vertex -52.5784 28.9052 13
      vertex -52.5784 28.9052 0
    endloop
  endfacet
  facet normal -0.904825 0.425783 0
    outer loop
      vertex -52.5784 28.9052 13
      vertex -55.7866 22.0875 0
      vertex -55.7866 22.0875 13
    endloop
  endfacet
  facet normal -0.770513 0.637425 0
    outer loop
      vertex -48.541 35.2671 0
      vertex -43.7381 41.0728 13
      vertex -43.7381 41.0728 0
    endloop
  endfacet
  facet normal -0.770513 0.637425 0
    outer loop
      vertex -43.7381 41.0728 13
      vertex -48.541 35.2671 0
      vertex -48.541 35.2671 13
    endloop
  endfacet
  facet normal -0.951057 0.309016 0
    outer loop
      vertex -58.115 14.9214 0
      vertex -55.7866 22.0875 13
      vertex -55.7866 22.0875 0
    endloop
  endfacet
  facet normal -0.951057 0.309016 0
    outer loop
      vertex -55.7866 22.0875 13
      vertex -58.115 14.9214 0
      vertex -58.115 14.9214 13
    endloop
  endfacet
  facet normal -0.481752 0.876308 0
    outer loop
      vertex -25.5468 54.2896 0
      vertex -32.1496 50.6597 13
      vertex -25.5468 54.2896 13
    endloop
  endfacet
  facet normal -0.481752 0.876308 0
    outer loop
      vertex -32.1496 50.6597 13
      vertex -25.5468 54.2896 0
      vertex -32.1496 50.6597 0
    endloop
  endfacet
  facet normal -0.248686 0.968584 0
    outer loop
      vertex -11.2429 58.9372 0
      vertex -18.541 57.0634 13
      vertex -11.2429 58.9372 13
    endloop
  endfacet
  facet normal -0.248686 0.968584 0
    outer loop
      vertex -18.541 57.0634 13
      vertex -11.2429 58.9372 0
      vertex -18.541 57.0634 0
    endloop
  endfacet
  facet normal 0.368125 -0.929776 0
    outer loop
      vertex 18.541 -57.0634 0
      vertex 25.5468 -54.2896 13
      vertex 18.541 -57.0634 13
    endloop
  endfacet
  facet normal 0.368125 -0.929776 0
    outer loop
      vertex 25.5468 -54.2896 13
      vertex 18.541 -57.0634 0
      vertex 25.5468 -54.2896 0
    endloop
  endfacet
  facet normal 0.951057 0.309016 0
    outer loop
      vertex 58.115 14.9214 13
      vertex 55.7866 22.0875 0
      vertex 55.7866 22.0875 13
    endloop
  endfacet
  facet normal 0.951057 0.309016 0
    outer loop
      vertex 55.7866 22.0875 0
      vertex 58.115 14.9214 13
      vertex 58.115 14.9214 0
    endloop
  endfacet
  facet normal 0.770513 0.637425 0
    outer loop
      vertex 48.541 35.2671 13
      vertex 43.7381 41.0728 0
      vertex 43.7381 41.0728 13
    endloop
  endfacet
  facet normal 0.770513 0.637425 0
    outer loop
      vertex 43.7381 41.0728 0
      vertex 48.541 35.2671 13
      vertex 48.541 35.2671 0
    endloop
  endfacet
  facet normal 0.125337 0.992114 -0
    outer loop
      vertex 11.2429 58.9372 0
      vertex 3.76743 59.8816 13
      vertex 11.2429 58.9372 13
    endloop
  endfacet
  facet normal 0.125337 0.992114 0
    outer loop
      vertex 3.76743 59.8816 13
      vertex 11.2429 58.9372 0
      vertex 3.76743 59.8816 0
    endloop
  endfacet
  facet normal 0.481752 0.876308 -0
    outer loop
      vertex 32.1496 50.6597 0
      vertex 25.5468 54.2896 13
      vertex 32.1496 50.6597 13
    endloop
  endfacet
  facet normal 0.481752 0.876308 0
    outer loop
      vertex 25.5468 54.2896 13
      vertex 32.1496 50.6597 0
      vertex 25.5468 54.2896 0
    endloop
  endfacet
  facet normal -0.844327 0.535828 0
    outer loop
      vertex -52.5784 28.9052 0
      vertex -48.541 35.2671 13
      vertex -48.541 35.2671 0
    endloop
  endfacet
  facet normal -0.844327 0.535828 0
    outer loop
      vertex -48.541 35.2671 13
      vertex -52.5784 28.9052 0
      vertex -52.5784 28.9052 13
    endloop
  endfacet
  facet normal -0.982287 0.187382 0
    outer loop
      vertex -59.5269 7.51999 0
      vertex -58.115 14.9214 13
      vertex -58.115 14.9214 0
    endloop
  endfacet
  facet normal -0.982287 0.187382 0
    outer loop
      vertex -58.115 14.9214 13
      vertex -59.5269 7.51999 0
      vertex -59.5269 7.51999 13
    endloop
  endfacet
  facet normal 0 0 1
    outer loop
      vertex 47.5 0 13
      vertex 60 0 13
      vertex 59.5269 7.51999 13
    endloop
  endfacet
  facet normal 0 0 1
    outer loop
      vertex 47.1255 5.95333 13
      vertex 59.5269 7.51999 13
      vertex 58.115 14.9214 13
    endloop
  endfacet
  facet normal 0 0 1
    outer loop
      vertex 60 0 13
      vertex 47.5 0 13
      vertex 59.5269 -7.51999 13
    endloop
  endfacet
  facet normal 0 0 1
    outer loop
      vertex 46.0077 11.8128 13
      vertex 58.115 14.9214 13
      vertex 55.7866 22.0875 13
    endloop
  endfacet
  facet normal -0 0 1
    outer loop
      vertex 47.1255 -5.95333 13
      vertex 59.5269 -7.51999 13
      vertex 47.5 0 13
    endloop
  endfacet
  facet normal 0 0 1
    outer loop
      vertex 44.1644 17.4859 13
      vertex 55.7866 22.0875 13
      vertex 52.5784 28.9052 13
    endloop
  endfacet
  facet normal 0 0 1
    outer loop
      vertex 59.5269 -7.51999 13
      vertex 47.1255 -5.95333 13
      vertex 58.115 -14.9214 13
    endloop
  endfacet
  facet normal 0 0 1
    outer loop
      vertex 41.6246 22.8833 13
      vertex 52.5784 28.9052 13
      vertex 48.541 35.2671 13
    endloop
  endfacet
  facet normal -0 0 1
    outer loop
      vertex 46.0077 -11.8128 13
      vertex 58.115 -14.9214 13
      vertex 47.1255 -5.95333 13
    endloop
  endfacet
  facet normal 0 0 1
    outer loop
      vertex 58.115 -14.9214 13
      vertex 46.0077 -11.8128 13
      vertex 55.7866 -22.0875 13
    endloop
  endfacet
  facet normal 0 0 1
    outer loop
      vertex 59.5269 7.51999 13
      vertex 47.1255 5.95333 13
      vertex 47.5 0 13
    endloop
  endfacet
  facet normal 0 0 1
    outer loop
      vertex 58.115 14.9214 13
      vertex 46.0077 11.8128 13
      vertex 47.1255 5.95333 13
    endloop
  endfacet
  facet normal 0 0 1
    outer loop
      vertex 55.7866 22.0875 13
      vertex 44.1644 17.4859 13
      vertex 46.0077 11.8128 13
    endloop
  endfacet
  facet normal 0 0 1
    outer loop
      vertex 38.4283 27.9198 13
      vertex 48.541 35.2671 13
      vertex 43.7381 41.0728 13
    endloop
  endfacet
  facet normal 0 0 1
    outer loop
      vertex 52.5784 28.9052 13
      vertex 41.6246 22.8833 13
      vertex 44.1644 17.4859 13
    endloop
  endfacet
  facet normal 0 0 1
    outer loop
      vertex 48.541 35.2671 13
      vertex 38.4283 27.9198 13
      vertex 41.6246 22.8833 13
    endloop
  endfacet
  facet normal 0 0 1
    outer loop
      vertex 34.626 32.516 13
      vertex 43.7381 41.0728 13
      vertex 38.2454 46.2308 13
    endloop
  endfacet
  facet normal 0 0 1
    outer loop
      vertex 43.7381 41.0728 13
      vertex 34.626 32.516 13
      vertex 38.4283 27.9198 13
    endloop
  endfacet
  facet normal 0 0 1
    outer loop
      vertex 30.2776 36.5994 13
      vertex 38.2454 46.2308 13
      vertex 32.1496 50.6597 13
    endloop
  endfacet
  facet normal 0 0 1
    outer loop
      vertex 38.2454 46.2308 13
      vertex 30.2776 36.5994 13
      vertex 34.626 32.516 13
    endloop
  endfacet
  facet normal 0 0 1
    outer loop
      vertex 25.4518 40.1056 13
      vertex 32.1496 50.6597 13
      vertex 25.5468 54.2896 13
    endloop
  endfacet
  facet normal 0 0 1
    outer loop
      vertex 32.1496 50.6597 13
      vertex 25.4518 40.1056 13
      vertex 30.2776 36.5994 13
    endloop
  endfacet
  facet normal 0 0 1
    outer loop
      vertex 25.5468 54.2896 13
      vertex 20.2245 42.9793 13
      vertex 25.4518 40.1056 13
    endloop
  endfacet
  facet normal 0 0 1
    outer loop
      vertex 18.541 57.0634 13
      vertex 20.2245 42.9793 13
      vertex 25.5468 54.2896 13
    endloop
  endfacet
  facet normal 0 0 1
    outer loop
      vertex 18.541 57.0634 13
      vertex 14.6783 45.1752 13
      vertex 20.2245 42.9793 13
    endloop
  endfacet
  facet normal 0 0 1
    outer loop
      vertex 11.2429 58.9372 13
      vertex 14.6783 45.1752 13
      vertex 18.541 57.0634 13
    endloop
  endfacet
  facet normal 0 0 1
    outer loop
      vertex 11.2429 58.9372 13
      vertex 8.90061 46.6586 13
      vertex 14.6783 45.1752 13
    endloop
  endfacet
  facet normal 0 0 1
    outer loop
      vertex 3.76743 59.8816 13
      vertex 8.90061 46.6586 13
      vertex 11.2429 58.9372 13
    endloop
  endfacet
  facet normal 0 0 1
    outer loop
      vertex 3.76743 59.8816 13
      vertex 2.98255 47.4063 13
      vertex 8.90061 46.6586 13
    endloop
  endfacet
  facet normal 0 0 1
    outer loop
      vertex 3.76743 59.8816 13
      vertex -2.98255 47.4063 13
      vertex 2.98255 47.4063 13
    endloop
  endfacet
  facet normal -0 0 1
    outer loop
      vertex -3.76743 59.8816 13
      vertex -2.98255 47.4063 13
      vertex 3.76743 59.8816 13
    endloop
  endfacet
  facet normal 0 0 1
    outer loop
      vertex -3.76743 59.8816 13
      vertex -8.90061 46.6586 13
      vertex -2.98255 47.4063 13
    endloop
  endfacet
  facet normal -0 0 1
    outer loop
      vertex -11.2429 58.9372 13
      vertex -8.90061 46.6586 13
      vertex -3.76743 59.8816 13
    endloop
  endfacet
  facet normal 0 0 1
    outer loop
      vertex -11.2429 58.9372 13
      vertex -14.6783 45.1752 13
      vertex -8.90061 46.6586 13
    endloop
  endfacet
  facet normal -0 0 1
    outer loop
      vertex -18.541 57.0634 13
      vertex -14.6783 45.1752 13
      vertex -11.2429 58.9372 13
    endloop
  endfacet
  facet normal 0 0 1
    outer loop
      vertex -18.541 57.0634 13
      vertex -20.2245 42.9793 13
      vertex -14.6783 45.1752 13
    endloop
  endfacet
  facet normal -0 0 1
    outer loop
      vertex -25.5468 54.2896 13
      vertex -20.2245 42.9793 13
      vertex -18.541 57.0634 13
    endloop
  endfacet
  facet normal 0 0 1
    outer loop
      vertex -20.2245 42.9793 13
      vertex -25.5468 54.2896 13
      vertex -25.4518 40.1056 13
    endloop
  endfacet
  facet normal -0 0 1
    outer loop
      vertex -32.1496 50.6597 13
      vertex -25.4518 40.1056 13
      vertex -25.5468 54.2896 13
    endloop
  endfacet
  facet normal 0 0 1
    outer loop
      vertex -25.4518 40.1056 13
      vertex -32.1496 50.6597 13
      vertex -30.2776 36.5994 13
    endloop
  endfacet
  facet normal -0 0 1
    outer loop
      vertex -38.2454 46.2308 13
      vertex -30.2776 36.5994 13
      vertex -32.1496 50.6597 13
    endloop
  endfacet
  facet normal 0 0 1
    outer loop
      vertex -30.2776 36.5994 13
      vertex -38.2454 46.2308 13
      vertex -34.626 32.516 13
    endloop
  endfacet
  facet normal -0 0 1
    outer loop
      vertex -43.7381 41.0728 13
      vertex -34.626 32.516 13
      vertex -38.2454 46.2308 13
    endloop
  endfacet
  facet normal 0 0 1
    outer loop
      vertex -34.626 32.516 13
      vertex -43.7381 41.0728 13
      vertex -38.4283 27.9198 13
    endloop
  endfacet
  facet normal -0 0 1
    outer loop
      vertex -48.541 35.2671 13
      vertex -38.4283 27.9198 13
      vertex -43.7381 41.0728 13
    endloop
  endfacet
  facet normal 0 0 1
    outer loop
      vertex -38.4283 27.9198 13
      vertex -48.541 35.2671 13
      vertex -41.6246 22.8833 13
    endloop
  endfacet
  facet normal -0 0 1
    outer loop
      vertex -52.5784 28.9052 13
      vertex -41.6246 22.8833 13
      vertex -48.541 35.2671 13
    endloop
  endfacet
  facet normal 0 0 1
    outer loop
      vertex -41.6246 22.8833 13
      vertex -52.5784 28.9052 13
      vertex -44.1644 17.4859 13
    endloop
  endfacet
  facet normal 0 0 1
    outer loop
      vertex -44.1644 17.4859 13
      vertex -55.7866 22.0875 13
      vertex -46.0077 11.8128 13
    endloop
  endfacet
  facet normal -0 0 1
    outer loop
      vertex -55.7866 22.0875 13
      vertex -44.1644 17.4859 13
      vertex -52.5784 28.9052 13
    endloop
  endfacet
  facet normal -0 0 1
    outer loop
      vertex 44.1644 -17.4859 13
      vertex 55.7866 -22.0875 13
      vertex 46.0077 -11.8128 13
    endloop
  endfacet
  facet normal 0 0 1
    outer loop
      vertex 55.7866 -22.0875 13
      vertex 44.1644 -17.4859 13
      vertex 52.5784 -28.9052 13
    endloop
  endfacet
  facet normal -0 0 1
    outer loop
      vertex 41.6246 -22.8833 13
      vertex 52.5784 -28.9052 13
      vertex 44.1644 -17.4859 13
    endloop
  endfacet
  facet normal 0 0 1
    outer loop
      vertex 52.5784 -28.9052 13
      vertex 41.6246 -22.8833 13
      vertex 48.541 -35.2671 13
    endloop
  endfacet
  facet normal -0 0 1
    outer loop
      vertex 38.4283 -27.9198 13
      vertex 48.541 -35.2671 13
      vertex 41.6246 -22.8833 13
    endloop
  endfacet
  facet normal 0 0 1
    outer loop
      vertex 48.541 -35.2671 13
      vertex 38.4283 -27.9198 13
      vertex 43.7381 -41.0728 13
    endloop
  endfacet
  facet normal -0 0 1
    outer loop
      vertex 34.626 -32.516 13
      vertex 43.7381 -41.0728 13
      vertex 38.4283 -27.9198 13
    endloop
  endfacet
  facet normal 0 0 1
    outer loop
      vertex 43.7381 -41.0728 13
      vertex 34.626 -32.516 13
      vertex 38.2454 -46.2308 13
    endloop
  endfacet
  facet normal -0 0 1
    outer loop
      vertex 30.2776 -36.5994 13
      vertex 38.2454 -46.2308 13
      vertex 34.626 -32.516 13
    endloop
  endfacet
  facet normal 0 0 1
    outer loop
      vertex 38.2454 -46.2308 13
      vertex 30.2776 -36.5994 13
      vertex 32.1496 -50.6597 13
    endloop
  endfacet
  facet normal -0 0 1
    outer loop
      vertex 25.4518 -40.1056 13
      vertex 32.1496 -50.6597 13
      vertex 30.2776 -36.5994 13
    endloop
  endfacet
  facet normal 0 0 1
    outer loop
      vertex 32.1496 -50.6597 13
      vertex 25.4518 -40.1056 13
      vertex 25.5468 -54.2896 13
    endloop
  endfacet
  facet normal -0 0 1
    outer loop
      vertex 20.2245 -42.9793 13
      vertex 25.5468 -54.2896 13
      vertex 25.4518 -40.1056 13
    endloop
  endfacet
  facet normal 0 0 1
    outer loop
      vertex 20.2245 -42.9793 13
      vertex 18.541 -57.0634 13
      vertex 25.5468 -54.2896 13
    endloop
  endfacet
  facet normal -0 0 1
    outer loop
      vertex 14.6783 -45.1752 13
      vertex 18.541 -57.0634 13
      vertex 20.2245 -42.9793 13
    endloop
  endfacet
  facet normal 0 0 1
    outer loop
      vertex 14.6783 -45.1752 13
      vertex 11.2429 -58.9372 13
      vertex 18.541 -57.0634 13
    endloop
  endfacet
  facet normal -0 0 1
    outer loop
      vertex 8.90061 -46.6586 13
      vertex 11.2429 -58.9372 13
      vertex 14.6783 -45.1752 13
    endloop
  endfacet
  facet normal 0 0 1
    outer loop
      vertex 8.90061 -46.6586 13
      vertex 3.76743 -59.8816 13
      vertex 11.2429 -58.9372 13
    endloop
  endfacet
  facet normal -0 0 1
    outer loop
      vertex 2.98255 -47.4063 13
      vertex 3.76743 -59.8816 13
      vertex 8.90061 -46.6586 13
    endloop
  endfacet
  facet normal -0 0 1
    outer loop
      vertex -2.98255 -47.4063 13
      vertex 3.76743 -59.8816 13
      vertex 2.98255 -47.4063 13
    endloop
  endfacet
  facet normal 0 0 1
    outer loop
      vertex -2.98255 -47.4063 13
      vertex -3.76743 -59.8816 13
      vertex 3.76743 -59.8816 13
    endloop
  endfacet
  facet normal 0 0 1
    outer loop
      vertex -8.90061 -46.6586 13
      vertex -3.76743 -59.8816 13
      vertex -2.98255 -47.4063 13
    endloop
  endfacet
  facet normal 0 0 1
    outer loop
      vertex -8.90061 -46.6586 13
      vertex -11.2429 -58.9372 13
      vertex -3.76743 -59.8816 13
    endloop
  endfacet
  facet normal 0 0 1
    outer loop
      vertex -14.6783 -45.1752 13
      vertex -11.2429 -58.9372 13
      vertex -8.90061 -46.6586 13
    endloop
  endfacet
  facet normal 0 0 1
    outer loop
      vertex -14.6783 -45.1752 13
      vertex -18.541 -57.0634 13
      vertex -11.2429 -58.9372 13
    endloop
  endfacet
  facet normal 0 0 1
    outer loop
      vertex -20.2245 -42.9793 13
      vertex -18.541 -57.0634 13
      vertex -14.6783 -45.1752 13
    endloop
  endfacet
  facet normal 0 0 1
    outer loop
      vertex -25.5468 -54.2896 13
      vertex -20.2245 -42.9793 13
      vertex -25.4518 -40.1056 13
    endloop
  endfacet
  facet normal 0 0 1
    outer loop
      vertex -20.2245 -42.9793 13
      vertex -25.5468 -54.2896 13
      vertex -18.541 -57.0634 13
    endloop
  endfacet
  facet normal 0 0 1
    outer loop
      vertex -32.1496 -50.6597 13
      vertex -25.4518 -40.1056 13
      vertex -30.2776 -36.5994 13
    endloop
  endfacet
  facet normal 0 0 1
    outer loop
      vertex -25.4518 -40.1056 13
      vertex -32.1496 -50.6597 13
      vertex -25.5468 -54.2896 13
    endloop
  endfacet
  facet normal 0 0 1
    outer loop
      vertex -38.2454 -46.2308 13
      vertex -30.2776 -36.5994 13
      vertex -34.626 -32.516 13
    endloop
  endfacet
  facet normal 0 0 1
    outer loop
      vertex -30.2776 -36.5994 13
      vertex -38.2454 -46.2308 13
      vertex -32.1496 -50.6597 13
    endloop
  endfacet
  facet normal 0 0 1
    outer loop
      vertex -43.7381 -41.0728 13
      vertex -34.626 -32.516 13
      vertex -38.4283 -27.9198 13
    endloop
  endfacet
  facet normal 0 0 1
    outer loop
      vertex -48.541 -35.2671 13
      vertex -38.4283 -27.9198 13
      vertex -41.6246 -22.8833 13
    endloop
  endfacet
  facet normal 0 0 1
    outer loop
      vertex -34.626 -32.516 13
      vertex -43.7381 -41.0728 13
      vertex -38.2454 -46.2308 13
    endloop
  endfacet
  facet normal 0 0 1
    outer loop
      vertex -52.5784 -28.9052 13
      vertex -41.6246 -22.8833 13
      vertex -44.1644 -17.4859 13
    endloop
  endfacet
  facet normal 0 0 1
    outer loop
      vertex -55.7866 -22.0875 13
      vertex -44.1644 -17.4859 13
      vertex -46.0077 -11.8128 13
    endloop
  endfacet
  facet normal 0 0 1
    outer loop
      vertex -58.115 -14.9214 13
      vertex -46.0077 -11.8128 13
      vertex -47.1255 -5.95333 13
    endloop
  endfacet
  facet normal 0 0 1
    outer loop
      vertex -38.4283 -27.9198 13
      vertex -48.541 -35.2671 13
      vertex -43.7381 -41.0728 13
    endloop
  endfacet
  facet normal 0 0 1
    outer loop
      vertex -59.5269 -7.51999 13
      vertex -47.1255 -5.95333 13
      vertex -47.5 0 13
    endloop
  endfacet
  facet normal -0 0 1
    outer loop
      vertex -58.115 14.9214 13
      vertex -46.0077 11.8128 13
      vertex -55.7866 22.0875 13
    endloop
  endfacet
  facet normal 0 0 1
    outer loop
      vertex -46.0077 11.8128 13
      vertex -58.115 14.9214 13
      vertex -47.1255 5.95333 13
    endloop
  endfacet
  facet normal 0 0 1
    outer loop
      vertex -41.6246 -22.8833 13
      vertex -52.5784 -28.9052 13
      vertex -48.541 -35.2671 13
    endloop
  endfacet
  facet normal -0 0 1
    outer loop
      vertex -59.5269 7.51999 13
      vertex -47.1255 5.95333 13
      vertex -58.115 14.9214 13
    endloop
  endfacet
  facet normal 0 0 1
    outer loop
      vertex -44.1644 -17.4859 13
      vertex -55.7866 -22.0875 13
      vertex -52.5784 -28.9052 13
    endloop
  endfacet
  facet normal 0 0 1
    outer loop
      vertex -47.1255 5.95333 13
      vertex -59.5269 7.51999 13
      vertex -47.5 0 13
    endloop
  endfacet
  facet normal 0 0 1
    outer loop
      vertex -46.0077 -11.8128 13
      vertex -58.115 -14.9214 13
      vertex -55.7866 -22.0875 13
    endloop
  endfacet
  facet normal 0 0 1
    outer loop
      vertex -60 0 13
      vertex -47.5 0 13
      vertex -59.5269 7.51999 13
    endloop
  endfacet
  facet normal 0 0 1
    outer loop
      vertex -47.1255 -5.95333 13
      vertex -59.5269 -7.51999 13
      vertex -58.115 -14.9214 13
    endloop
  endfacet
  facet normal 0 0 1
    outer loop
      vertex -47.5 0 13
      vertex -60 0 13
      vertex -59.5269 -7.51999 13
    endloop
  endfacet
  facet normal -0.587789 0.809014 0
    outer loop
      vertex -32.1496 50.6597 0
      vertex -38.2454 46.2308 13
      vertex -32.1496 50.6597 13
    endloop
  endfacet
  facet normal -0.587789 0.809014 0
    outer loop
      vertex -38.2454 46.2308 13
      vertex -32.1496 50.6597 0
      vertex -38.2454 46.2308 0
    endloop
  endfacet
  facet normal -0.125337 0.992114 0
    outer loop
      vertex -3.76743 59.8816 0
      vertex -11.2429 58.9372 13
      vertex -3.76743 59.8816 13
    endloop
  endfacet
  facet normal -0.125337 0.992114 0
    outer loop
      vertex -11.2429 58.9372 13
      vertex -3.76743 59.8816 0
      vertex -11.2429 58.9372 0
    endloop
  endfacet
  facet normal 0.998027 -0.0627882 0
    outer loop
      vertex 59.5269 -7.51999 13
      vertex 60 0 0
      vertex 60 0 13
    endloop
  endfacet
  facet normal 0.998027 -0.0627882 0
    outer loop
      vertex 60 0 0
      vertex 59.5269 -7.51999 13
      vertex 59.5269 -7.51999 0
    endloop
  endfacet
  facet normal 0.844327 -0.535828 0
    outer loop
      vertex 48.541 -35.2671 13
      vertex 52.5784 -28.9052 0
      vertex 52.5784 -28.9052 13
    endloop
  endfacet
  facet normal 0.844327 -0.535828 0
    outer loop
      vertex 52.5784 -28.9052 0
      vertex 48.541 -35.2671 13
      vertex 48.541 -35.2671 0
    endloop
  endfacet
  facet normal 0.982287 -0.187382 0
    outer loop
      vertex 58.115 -14.9214 13
      vertex 59.5269 -7.51999 0
      vertex 59.5269 -7.51999 13
    endloop
  endfacet
  facet normal 0.982287 -0.187382 0
    outer loop
      vertex 59.5269 -7.51999 0
      vertex 58.115 -14.9214 13
      vertex 58.115 -14.9214 0
    endloop
  endfacet
  facet normal -0.684548 -0.728968 0
    outer loop
      vertex -43.7381 -41.0728 0
      vertex -38.2454 -46.2308 13
      vertex -43.7381 -41.0728 13
    endloop
  endfacet
  facet normal -0.684548 -0.728968 -0
    outer loop
      vertex -38.2454 -46.2308 13
      vertex -43.7381 -41.0728 0
      vertex -38.2454 -46.2308 0
    endloop
  endfacet
  facet normal -0.904825 -0.425783 0
    outer loop
      vertex -52.5784 -28.9052 0
      vertex -55.7866 -22.0875 13
      vertex -55.7866 -22.0875 0
    endloop
  endfacet
  facet normal -0.904825 -0.425783 0
    outer loop
      vertex -55.7866 -22.0875 13
      vertex -52.5784 -28.9052 0
      vertex -52.5784 -28.9052 13
    endloop
  endfacet
  facet normal -0.770513 -0.637425 0
    outer loop
      vertex -43.7381 -41.0728 0
      vertex -48.541 -35.2671 13
      vertex -48.541 -35.2671 0
    endloop
  endfacet
  facet normal -0.770513 -0.637425 0
    outer loop
      vertex -48.541 -35.2671 13
      vertex -43.7381 -41.0728 0
      vertex -43.7381 -41.0728 13
    endloop
  endfacet
  facet normal 0 0 -1
    outer loop
      vertex 47.5 0 0
      vertex 60 0 0
      vertex 59.5269 -7.51999 0
    endloop
  endfacet
  facet normal 0 0 -1
    outer loop
      vertex 47.1255 -5.95333 0
      vertex 59.5269 -7.51999 0
      vertex 58.115 -14.9214 0
    endloop
  endfacet
  facet normal 0 0 -1
    outer loop
      vertex 60 0 0
      vertex 47.5 0 0
      vertex 59.5269 7.51999 0
    endloop
  endfacet
  facet normal 0 0 -1
    outer loop
      vertex 46.0077 -11.8128 0
      vertex 58.115 -14.9214 0
      vertex 55.7866 -22.0875 0
    endloop
  endfacet
  facet normal 0 0 -1
    outer loop
      vertex 47.1255 5.95333 0
      vertex 59.5269 7.51999 0
      vertex 47.5 0 0
    endloop
  endfacet
  facet normal 0 0 -1
    outer loop
      vertex 44.1644 -17.4859 0
      vertex 55.7866 -22.0875 0
      vertex 52.5784 -28.9052 0
    endloop
  endfacet
  facet normal -0 0 -1
    outer loop
      vertex 59.5269 7.51999 0
      vertex 47.1255 5.95333 0
      vertex 58.115 14.9214 0
    endloop
  endfacet
  facet normal 0 0 -1
    outer loop
      vertex 41.6246 -22.8833 0
      vertex 52.5784 -28.9052 0
      vertex 48.541 -35.2671 0
    endloop
  endfacet
  facet normal 0 0 -1
    outer loop
      vertex 46.0077 11.8128 0
      vertex 58.115 14.9214 0
      vertex 47.1255 5.95333 0
    endloop
  endfacet
  facet normal -0 0 -1
    outer loop
      vertex 58.115 14.9214 0
      vertex 46.0077 11.8128 0
      vertex 55.7866 22.0875 0
    endloop
  endfacet
  facet normal 0 0 -1
    outer loop
      vertex 59.5269 -7.51999 0
      vertex 47.1255 -5.95333 0
      vertex 47.5 0 0
    endloop
  endfacet
  facet normal 0 0 -1
    outer loop
      vertex 58.115 -14.9214 0
      vertex 46.0077 -11.8128 0
      vertex 47.1255 -5.95333 0
    endloop
  endfacet
  facet normal 0 0 -1
    outer loop
      vertex 55.7866 -22.0875 0
      vertex 44.1644 -17.4859 0
      vertex 46.0077 -11.8128 0
    endloop
  endfacet
  facet normal 0 0 -1
    outer loop
      vertex 38.4283 -27.9198 0
      vertex 48.541 -35.2671 0
      vertex 43.7381 -41.0728 0
    endloop
  endfacet
  facet normal 0 0 -1
    outer loop
      vertex 52.5784 -28.9052 0
      vertex 41.6246 -22.8833 0
      vertex 44.1644 -17.4859 0
    endloop
  endfacet
  facet normal 0 0 -1
    outer loop
      vertex 48.541 -35.2671 0
      vertex 38.4283 -27.9198 0
      vertex 41.6246 -22.8833 0
    endloop
  endfacet
  facet normal 0 0 -1
    outer loop
      vertex 34.626 -32.516 0
      vertex 43.7381 -41.0728 0
      vertex 38.2454 -46.2308 0
    endloop
  endfacet
  facet normal 0 0 -1
    outer loop
      vertex 43.7381 -41.0728 0
      vertex 34.626 -32.516 0
      vertex 38.4283 -27.9198 0
    endloop
  endfacet
  facet normal 0 0 -1
    outer loop
      vertex 30.2776 -36.5994 0
      vertex 38.2454 -46.2308 0
      vertex 32.1496 -50.6597 0
    endloop
  endfacet
  facet normal 0 0 -1
    outer loop
      vertex 38.2454 -46.2308 0
      vertex 30.2776 -36.5994 0
      vertex 34.626 -32.516 0
    endloop
  endfacet
  facet normal 0 0 -1
    outer loop
      vertex 25.4518 -40.1056 0
      vertex 32.1496 -50.6597 0
      vertex 25.5468 -54.2896 0
    endloop
  endfacet
  facet normal 0 0 -1
    outer loop
      vertex 32.1496 -50.6597 0
      vertex 25.4518 -40.1056 0
      vertex 30.2776 -36.5994 0
    endloop
  endfacet
  facet normal 0 0 -1
    outer loop
      vertex 25.5468 -54.2896 0
      vertex 20.2245 -42.9793 0
      vertex 25.4518 -40.1056 0
    endloop
  endfacet
  facet normal 0 0 -1
    outer loop
      vertex 18.541 -57.0634 0
      vertex 20.2245 -42.9793 0
      vertex 25.5468 -54.2896 0
    endloop
  endfacet
  facet normal 0 0 -1
    outer loop
      vertex 18.541 -57.0634 0
      vertex 14.6783 -45.1752 0
      vertex 20.2245 -42.9793 0
    endloop
  endfacet
  facet normal 0 0 -1
    outer loop
      vertex 11.2429 -58.9372 0
      vertex 14.6783 -45.1752 0
      vertex 18.541 -57.0634 0
    endloop
  endfacet
  facet normal 0 0 -1
    outer loop
      vertex 11.2429 -58.9372 0
      vertex 8.90061 -46.6586 0
      vertex 14.6783 -45.1752 0
    endloop
  endfacet
  facet normal 0 0 -1
    outer loop
      vertex 3.76743 -59.8816 0
      vertex 8.90061 -46.6586 0
      vertex 11.2429 -58.9372 0
    endloop
  endfacet
  facet normal 0 0 -1
    outer loop
      vertex 3.76743 -59.8816 0
      vertex 2.98255 -47.4063 0
      vertex 8.90061 -46.6586 0
    endloop
  endfacet
  facet normal 0 0 -1
    outer loop
      vertex 3.76743 -59.8816 0
      vertex -2.98255 -47.4063 0
      vertex 2.98255 -47.4063 0
    endloop
  endfacet
  facet normal 0 0 -1
    outer loop
      vertex -3.76743 -59.8816 0
      vertex -2.98255 -47.4063 0
      vertex 3.76743 -59.8816 0
    endloop
  endfacet
  facet normal 0 0 -1
    outer loop
      vertex -3.76743 -59.8816 0
      vertex -8.90061 -46.6586 0
      vertex -2.98255 -47.4063 0
    endloop
  endfacet
  facet normal 0 0 -1
    outer loop
      vertex -11.2429 -58.9372 0
      vertex -8.90061 -46.6586 0
      vertex -3.76743 -59.8816 0
    endloop
  endfacet
  facet normal 0 0 -1
    outer loop
      vertex -11.2429 -58.9372 0
      vertex -14.6783 -45.1752 0
      vertex -8.90061 -46.6586 0
    endloop
  endfacet
  facet normal 0 0 -1
    outer loop
      vertex -18.541 -57.0634 0
      vertex -14.6783 -45.1752 0
      vertex -11.2429 -58.9372 0
    endloop
  endfacet
  facet normal 0 0 -1
    outer loop
      vertex -18.541 -57.0634 0
      vertex -20.2245 -42.9793 0
      vertex -14.6783 -45.1752 0
    endloop
  endfacet
  facet normal 0 0 -1
    outer loop
      vertex -25.5468 -54.2896 0
      vertex -20.2245 -42.9793 0
      vertex -18.541 -57.0634 0
    endloop
  endfacet
  facet normal -0 0 -1
    outer loop
      vertex -20.2245 -42.9793 0
      vertex -25.5468 -54.2896 0
      vertex -25.4518 -40.1056 0
    endloop
  endfacet
  facet normal 0 0 -1
    outer loop
      vertex -32.1496 -50.6597 0
      vertex -25.4518 -40.1056 0
      vertex -25.5468 -54.2896 0
    endloop
  endfacet
  facet normal -0 0 -1
    outer loop
      vertex -25.4518 -40.1056 0
      vertex -32.1496 -50.6597 0
      vertex -30.2776 -36.5994 0
    endloop
  endfacet
  facet normal 0 0 -1
    outer loop
      vertex -38.2454 -46.2308 0
      vertex -30.2776 -36.5994 0
      vertex -32.1496 -50.6597 0
    endloop
  endfacet
  facet normal -0 0 -1
    outer loop
      vertex -30.2776 -36.5994 0
      vertex -38.2454 -46.2308 0
      vertex -34.626 -32.516 0
    endloop
  endfacet
  facet normal 0 0 -1
    outer loop
      vertex -43.7381 -41.0728 0
      vertex -34.626 -32.516 0
      vertex -38.2454 -46.2308 0
    endloop
  endfacet
  facet normal -0 0 -1
    outer loop
      vertex -34.626 -32.516 0
      vertex -43.7381 -41.0728 0
      vertex -38.4283 -27.9198 0
    endloop
  endfacet
  facet normal 0 0 -1
    outer loop
      vertex -48.541 -35.2671 0
      vertex -38.4283 -27.9198 0
      vertex -43.7381 -41.0728 0
    endloop
  endfacet
  facet normal -0 0 -1
    outer loop
      vertex -38.4283 -27.9198 0
      vertex -48.541 -35.2671 0
      vertex -41.6246 -22.8833 0
    endloop
  endfacet
  facet normal 0 0 -1
    outer loop
      vertex -52.5784 -28.9052 0
      vertex -41.6246 -22.8833 0
      vertex -48.541 -35.2671 0
    endloop
  endfacet
  facet normal -0 0 -1
    outer loop
      vertex -41.6246 -22.8833 0
      vertex -52.5784 -28.9052 0
      vertex -44.1644 -17.4859 0
    endloop
  endfacet
  facet normal -0 0 -1
    outer loop
      vertex -44.1644 -17.4859 0
      vertex -55.7866 -22.0875 0
      vertex -46.0077 -11.8128 0
    endloop
  endfacet
  facet normal 0 0 -1
    outer loop
      vertex -55.7866 -22.0875 0
      vertex -44.1644 -17.4859 0
      vertex -52.5784 -28.9052 0
    endloop
  endfacet
  facet normal 0 0 -1
    outer loop
      vertex 44.1644 17.4859 0
      vertex 55.7866 22.0875 0
      vertex 46.0077 11.8128 0
    endloop
  endfacet
  facet normal -0 0 -1
    outer loop
      vertex 55.7866 22.0875 0
      vertex 44.1644 17.4859 0
      vertex 52.5784 28.9052 0
    endloop
  endfacet
  facet normal 0 0 -1
    outer loop
      vertex 41.6246 22.8833 0
      vertex 52.5784 28.9052 0
      vertex 44.1644 17.4859 0
    endloop
  endfacet
  facet normal -0 0 -1
    outer loop
      vertex 52.5784 28.9052 0
      vertex 41.6246 22.8833 0
      vertex 48.541 35.2671 0
    endloop
  endfacet
  facet normal 0 0 -1
    outer loop
      vertex 38.4283 27.9198 0
      vertex 48.541 35.2671 0
      vertex 41.6246 22.8833 0
    endloop
  endfacet
  facet normal -0 0 -1
    outer loop
      vertex 48.541 35.2671 0
      vertex 38.4283 27.9198 0
      vertex 43.7381 41.0728 0
    endloop
  endfacet
  facet normal 0 0 -1
    outer loop
      vertex 34.626 32.516 0
      vertex 43.7381 41.0728 0
      vertex 38.4283 27.9198 0
    endloop
  endfacet
  facet normal -0 0 -1
    outer loop
      vertex 43.7381 41.0728 0
      vertex 34.626 32.516 0
      vertex 38.2454 46.2308 0
    endloop
  endfacet
  facet normal 0 0 -1
    outer loop
      vertex 30.2776 36.5994 0
      vertex 38.2454 46.2308 0
      vertex 34.626 32.516 0
    endloop
  endfacet
  facet normal -0 0 -1
    outer loop
      vertex 38.2454 46.2308 0
      vertex 30.2776 36.5994 0
      vertex 32.1496 50.6597 0
    endloop
  endfacet
  facet normal 0 0 -1
    outer loop
      vertex 25.4518 40.1056 0
      vertex 32.1496 50.6597 0
      vertex 30.2776 36.5994 0
    endloop
  endfacet
  facet normal -0 0 -1
    outer loop
      vertex 32.1496 50.6597 0
      vertex 25.4518 40.1056 0
      vertex 25.5468 54.2896 0
    endloop
  endfacet
  facet normal 0 0 -1
    outer loop
      vertex 20.2245 42.9793 0
      vertex 25.5468 54.2896 0
      vertex 25.4518 40.1056 0
    endloop
  endfacet
  facet normal 0 0 -1
    outer loop
      vertex 20.2245 42.9793 0
      vertex 18.541 57.0634 0
      vertex 25.5468 54.2896 0
    endloop
  endfacet
  facet normal 0 0 -1
    outer loop
      vertex 14.6783 45.1752 0
      vertex 18.541 57.0634 0
      vertex 20.2245 42.9793 0
    endloop
  endfacet
  facet normal 0 0 -1
    outer loop
      vertex 14.6783 45.1752 0
      vertex 11.2429 58.9372 0
      vertex 18.541 57.0634 0
    endloop
  endfacet
  facet normal 0 0 -1
    outer loop
      vertex 8.90061 46.6586 0
      vertex 11.2429 58.9372 0
      vertex 14.6783 45.1752 0
    endloop
  endfacet
  facet normal 0 0 -1
    outer loop
      vertex 8.90061 46.6586 0
      vertex 3.76743 59.8816 0
      vertex 11.2429 58.9372 0
    endloop
  endfacet
  facet normal 0 0 -1
    outer loop
      vertex 2.98255 47.4063 0
      vertex 3.76743 59.8816 0
      vertex 8.90061 46.6586 0
    endloop
  endfacet
  facet normal 0 0 -1
    outer loop
      vertex -2.98255 47.4063 0
      vertex 3.76743 59.8816 0
      vertex 2.98255 47.4063 0
    endloop
  endfacet
  facet normal 0 0 -1
    outer loop
      vertex -2.98255 47.4063 0
      vertex -3.76743 59.8816 0
      vertex 3.76743 59.8816 0
    endloop
  endfacet
  facet normal 0 0 -1
    outer loop
      vertex -8.90061 46.6586 0
      vertex -3.76743 59.8816 0
      vertex -2.98255 47.4063 0
    endloop
  endfacet
  facet normal 0 0 -1
    outer loop
      vertex -8.90061 46.6586 0
      vertex -11.2429 58.9372 0
      vertex -3.76743 59.8816 0
    endloop
  endfacet
  facet normal 0 0 -1
    outer loop
      vertex -14.6783 45.1752 0
      vertex -11.2429 58.9372 0
      vertex -8.90061 46.6586 0
    endloop
  endfacet
  facet normal 0 0 -1
    outer loop
      vertex -14.6783 45.1752 0
      vertex -18.541 57.0634 0
      vertex -11.2429 58.9372 0
    endloop
  endfacet
  facet normal 0 0 -1
    outer loop
      vertex -20.2245 42.9793 0
      vertex -18.541 57.0634 0
      vertex -14.6783 45.1752 0
    endloop
  endfacet
  facet normal 0 0 -1
    outer loop
      vertex -25.5468 54.2896 0
      vertex -20.2245 42.9793 0
      vertex -25.4518 40.1056 0
    endloop
  endfacet
  facet normal 0 0 -1
    outer loop
      vertex -20.2245 42.9793 0
      vertex -25.5468 54.2896 0
      vertex -18.541 57.0634 0
    endloop
  endfacet
  facet normal 0 0 -1
    outer loop
      vertex -32.1496 50.6597 0
      vertex -25.4518 40.1056 0
      vertex -30.2776 36.5994 0
    endloop
  endfacet
  facet normal 0 0 -1
    outer loop
      vertex -25.4518 40.1056 0
      vertex -32.1496 50.6597 0
      vertex -25.5468 54.2896 0
    endloop
  endfacet
  facet normal 0 0 -1
    outer loop
      vertex -38.2454 46.2308 0
      vertex -30.2776 36.5994 0
      vertex -34.626 32.516 0
    endloop
  endfacet
  facet normal 0 0 -1
    outer loop
      vertex -30.2776 36.5994 0
      vertex -38.2454 46.2308 0
      vertex -32.1496 50.6597 0
    endloop
  endfacet
  facet normal 0 0 -1
    outer loop
      vertex -43.7381 41.0728 0
      vertex -34.626 32.516 0
      vertex -38.4283 27.9198 0
    endloop
  endfacet
  facet normal 0 0 -1
    outer loop
      vertex -48.541 35.2671 0
      vertex -38.4283 27.9198 0
      vertex -41.6246 22.8833 0
    endloop
  endfacet
  facet normal 0 0 -1
    outer loop
      vertex -34.626 32.516 0
      vertex -43.7381 41.0728 0
      vertex -38.2454 46.2308 0
    endloop
  endfacet
  facet normal 0 0 -1
    outer loop
      vertex -52.5784 28.9052 0
      vertex -41.6246 22.8833 0
      vertex -44.1644 17.4859 0
    endloop
  endfacet
  facet normal 0 0 -1
    outer loop
      vertex -55.7866 22.0875 0
      vertex -44.1644 17.4859 0
      vertex -46.0077 11.8128 0
    endloop
  endfacet
  facet normal 0 0 -1
    outer loop
      vertex -58.115 14.9214 0
      vertex -46.0077 11.8128 0
      vertex -47.1255 5.95333 0
    endloop
  endfacet
  facet normal 0 0 -1
    outer loop
      vertex -38.4283 27.9198 0
      vertex -48.541 35.2671 0
      vertex -43.7381 41.0728 0
    endloop
  endfacet
  facet normal 0 0 -1
    outer loop
      vertex -59.5269 7.51999 0
      vertex -47.1255 5.95333 0
      vertex -47.5 0 0
    endloop
  endfacet
  facet normal 0 0 -1
    outer loop
      vertex -58.115 -14.9214 0
      vertex -46.0077 -11.8128 0
      vertex -55.7866 -22.0875 0
    endloop
  endfacet
  facet normal -0 0 -1
    outer loop
      vertex -46.0077 -11.8128 0
      vertex -58.115 -14.9214 0
      vertex -47.1255 -5.95333 0
    endloop
  endfacet
  facet normal 0 0 -1
    outer loop
      vertex -41.6246 22.8833 0
      vertex -52.5784 28.9052 0
      vertex -48.541 35.2671 0
    endloop
  endfacet
  facet normal 0 0 -1
    outer loop
      vertex -59.5269 -7.51999 0
      vertex -47.1255 -5.95333 0
      vertex -58.115 -14.9214 0
    endloop
  endfacet
  facet normal 0 0 -1
    outer loop
      vertex -44.1644 17.4859 0
      vertex -55.7866 22.0875 0
      vertex -52.5784 28.9052 0
    endloop
  endfacet
  facet normal -0 0 -1
    outer loop
      vertex -47.1255 -5.95333 0
      vertex -59.5269 -7.51999 0
      vertex -47.5 0 0
    endloop
  endfacet
  facet normal 0 0 -1
    outer loop
      vertex -46.0077 11.8128 0
      vertex -58.115 14.9214 0
      vertex -55.7866 22.0875 0
    endloop
  endfacet
  facet normal 0 0 -1
    outer loop
      vertex -60 0 0
      vertex -47.5 0 0
      vertex -59.5269 -7.51999 0
    endloop
  endfacet
  facet normal 0 0 -1
    outer loop
      vertex -47.1255 5.95333 0
      vertex -59.5269 7.51999 0
      vertex -58.115 14.9214 0
    endloop
  endfacet
  facet normal 0 0 -1
    outer loop
      vertex -47.5 0 0
      vertex -60 0 0
      vertex -59.5269 7.51999 0
    endloop
  endfacet
  facet normal 0.125337 -0.992114 0
    outer loop
      vertex 3.76743 -59.8816 0
      vertex 11.2429 -58.9372 13
      vertex 3.76743 -59.8816 13
    endloop
  endfacet
  facet normal 0.125337 -0.992114 0
    outer loop
      vertex 11.2429 -58.9372 13
      vertex 3.76743 -59.8816 0
      vertex 11.2429 -58.9372 0
    endloop
  endfacet
  facet normal 0.587789 -0.809014 0
    outer loop
      vertex 32.1496 -50.6597 0
      vertex 38.2454 -46.2308 13
      vertex 32.1496 -50.6597 13
    endloop
  endfacet
  facet normal 0.587789 -0.809014 0
    outer loop
      vertex 38.2454 -46.2308 13
      vertex 32.1496 -50.6597 0
      vertex 38.2454 -46.2308 0
    endloop
  endfacet
  facet normal 0.904825 -0.425783 0
    outer loop
      vertex 52.5784 -28.9052 13
      vertex 55.7866 -22.0875 0
      vertex 55.7866 -22.0875 13
    endloop
  endfacet
  facet normal 0.904825 -0.425783 0
    outer loop
      vertex 55.7866 -22.0875 0
      vertex 52.5784 -28.9052 13
      vertex 52.5784 -28.9052 0
    endloop
  endfacet
  facet normal -0.248686 -0.968584 0
    outer loop
      vertex -18.541 -57.0634 0
      vertex -11.2429 -58.9372 13
      vertex -18.541 -57.0634 13
    endloop
  endfacet
  facet normal -0.248686 -0.968584 -0
    outer loop
      vertex -11.2429 -58.9372 13
      vertex -18.541 -57.0634 0
      vertex -11.2429 -58.9372 0
    endloop
  endfacet
  facet normal -0.951057 -0.309016 0
    outer loop
      vertex -55.7866 -22.0875 0
      vertex -58.115 -14.9214 13
      vertex -58.115 -14.9214 0
    endloop
  endfacet
  facet normal -0.951057 -0.309016 0
    outer loop
      vertex -58.115 -14.9214 13
      vertex -55.7866 -22.0875 0
      vertex -55.7866 -22.0875 13
    endloop
  endfacet
  facet normal 0.684548 -0.728968 0
    outer loop
      vertex 38.2454 -46.2308 0
      vertex 43.7381 -41.0728 13
      vertex 38.2454 -46.2308 13
    endloop
  endfacet
  facet normal 0.684548 -0.728968 0
    outer loop
      vertex 43.7381 -41.0728 13
      vertex 38.2454 -46.2308 0
      vertex 43.7381 -41.0728 0
    endloop
  endfacet
  facet normal 0.481752 -0.876308 0
    outer loop
      vertex 25.5468 -54.2896 0
      vertex 32.1496 -50.6597 13
      vertex 25.5468 -54.2896 13
    endloop
  endfacet
  facet normal 0.481752 -0.876308 0
    outer loop
      vertex 32.1496 -50.6597 13
      vertex 25.5468 -54.2896 0
      vertex 32.1496 -50.6597 0
    endloop
  endfacet
  facet normal -0.125337 -0.992114 0
    outer loop
      vertex -11.2429 -58.9372 0
      vertex -3.76743 -59.8816 13
      vertex -11.2429 -58.9372 13
    endloop
  endfacet
  facet normal -0.125337 -0.992114 -0
    outer loop
      vertex -3.76743 -59.8816 13
      vertex -11.2429 -58.9372 0
      vertex -3.76743 -59.8816 0
    endloop
  endfacet
  facet normal -0.368125 -0.929776 0
    outer loop
      vertex -25.5468 -54.2896 0
      vertex -18.541 -57.0634 13
      vertex -25.5468 -54.2896 13
    endloop
  endfacet
  facet normal -0.368125 -0.929776 -0
    outer loop
      vertex -18.541 -57.0634 13
      vertex -25.5468 -54.2896 0
      vertex -18.541 -57.0634 0
    endloop
  endfacet
  facet normal -0.844327 -0.535828 0
    outer loop
      vertex -48.541 -35.2671 0
      vertex -52.5784 -28.9052 13
      vertex -52.5784 -28.9052 0
    endloop
  endfacet
  facet normal -0.844327 -0.535828 0
    outer loop
      vertex -52.5784 -28.9052 13
      vertex -48.541 -35.2671 0
      vertex -48.541 -35.2671 13
    endloop
  endfacet
  facet normal -0.982287 -0.187382 0
    outer loop
      vertex -58.115 -14.9214 0
      vertex -59.5269 -7.51999 13
      vertex -59.5269 -7.51999 0
    endloop
  endfacet
  facet normal -0.982287 -0.187382 0
    outer loop
      vertex -59.5269 -7.51999 13
      vertex -58.115 -14.9214 0
      vertex -58.115 -14.9214 13
    endloop
  endfacet
  facet normal -0.998027 -0.0627882 0
    outer loop
      vertex -59.5269 -7.51999 0
      vertex -60 0 13
      vertex -60 0 0
    endloop
  endfacet
  facet normal -0.998027 -0.0627882 0
    outer loop
      vertex -60 0 13
      vertex -59.5269 -7.51999 0
      vertex -59.5269 -7.51999 13
    endloop
  endfacet
  facet normal 0.248686 -0.968584 0
    outer loop
      vertex 11.2429 -58.9372 0
      vertex 18.541 -57.0634 13
      vertex 11.2429 -58.9372 13
    endloop
  endfacet
  facet normal 0.248686 -0.968584 0
    outer loop
      vertex 18.541 -57.0634 13
      vertex 11.2429 -58.9372 0
      vertex 18.541 -57.0634 0
    endloop
  endfacet
  facet normal -0.481752 -0.876308 0
    outer loop
      vertex -32.1496 -50.6597 0
      vertex -25.5468 -54.2896 13
      vertex -32.1496 -50.6597 13
    endloop
  endfacet
  facet normal -0.481752 -0.876308 -0
    outer loop
      vertex -25.5468 -54.2896 13
      vertex -32.1496 -50.6597 0
      vertex -25.5468 -54.2896 0
    endloop
  endfacet
  facet normal -0.587789 -0.809014 0
    outer loop
      vertex -38.2454 -46.2308 0
      vertex -32.1496 -50.6597 13
      vertex -38.2454 -46.2308 13
    endloop
  endfacet
  facet normal -0.587789 -0.809014 -0
    outer loop
      vertex -32.1496 -50.6597 13
      vertex -38.2454 -46.2308 0
      vertex -32.1496 -50.6597 0
    endloop
  endfacet
  facet normal -0.998027 -0.0627819 0
    outer loop
      vertex 47.5 0 0
      vertex 47.1255 5.95333 13
      vertex 47.1255 5.95333 0
    endloop
  endfacet
  facet normal -0.998027 -0.0627819 0
    outer loop
      vertex 47.1255 5.95333 13
      vertex 47.5 0 0
      vertex 47.5 0 13
    endloop
  endfacet
  facet normal 0.998027 -0.0627819 0
    outer loop
      vertex -47.5 0 13
      vertex -47.1255 5.95333 0
      vertex -47.1255 5.95333 13
    endloop
  endfacet
  facet normal 0.998027 -0.0627819 0
    outer loop
      vertex -47.1255 5.95333 0
      vertex -47.5 0 13
      vertex -47.5 0 0
    endloop
  endfacet
  facet normal 0 -1 0
    outer loop
      vertex -2.98255 47.4063 0
      vertex 2.98255 47.4063 13
      vertex -2.98255 47.4063 13
    endloop
  endfacet
  facet normal 0 -1 -0
    outer loop
      vertex 2.98255 47.4063 13
      vertex -2.98255 47.4063 0
      vertex 2.98255 47.4063 0
    endloop
  endfacet
  facet normal 0 1 -0
    outer loop
      vertex 2.98255 -47.4063 0
      vertex -2.98255 -47.4063 13
      vertex 2.98255 -47.4063 13
    endloop
  endfacet
  facet normal 0 1 0
    outer loop
      vertex -2.98255 -47.4063 13
      vertex 2.98255 -47.4063 0
      vertex -2.98255 -47.4063 0
    endloop
  endfacet
  facet normal -0.770514 0.637423 0
    outer loop
      vertex 34.626 -32.516 0
      vertex 38.4283 -27.9198 13
      vertex 38.4283 -27.9198 0
    endloop
  endfacet
  facet normal -0.770514 0.637423 0
    outer loop
      vertex 38.4283 -27.9198 13
      vertex 34.626 -32.516 0
      vertex 34.626 -32.516 13
    endloop
  endfacet
  facet normal -0.684545 -0.72897 0
    outer loop
      vertex 30.2776 36.5994 0
      vertex 34.626 32.516 13
      vertex 30.2776 36.5994 13
    endloop
  endfacet
  facet normal -0.684545 -0.72897 -0
    outer loop
      vertex 34.626 32.516 13
      vertex 30.2776 36.5994 0
      vertex 34.626 32.516 0
    endloop
  endfacet
  facet normal 0.684545 -0.72897 0
    outer loop
      vertex -34.626 32.516 0
      vertex -30.2776 36.5994 13
      vertex -34.626 32.516 13
    endloop
  endfacet
  facet normal 0.684545 -0.72897 0
    outer loop
      vertex -30.2776 36.5994 13
      vertex -34.626 32.516 0
      vertex -30.2776 36.5994 0
    endloop
  endfacet
  facet normal 0.368125 -0.929776 0
    outer loop
      vertex -20.2245 42.9793 0
      vertex -14.6783 45.1752 13
      vertex -20.2245 42.9793 13
    endloop
  endfacet
  facet normal 0.368125 -0.929776 0
    outer loop
      vertex -14.6783 45.1752 13
      vertex -20.2245 42.9793 0
      vertex -14.6783 45.1752 0
    endloop
  endfacet
  facet normal -0.904829 -0.425776 0
    outer loop
      vertex 44.1644 17.4859 0
      vertex 41.6246 22.8833 13
      vertex 41.6246 22.8833 0
    endloop
  endfacet
  facet normal -0.904829 -0.425776 0
    outer loop
      vertex 41.6246 22.8833 13
      vertex 44.1644 17.4859 0
      vertex 44.1644 17.4859 13
    endloop
  endfacet
  facet normal -0.368125 -0.929776 0
    outer loop
      vertex 14.6783 45.1752 0
      vertex 20.2245 42.9793 13
      vertex 14.6783 45.1752 13
    endloop
  endfacet
  facet normal -0.368125 -0.929776 -0
    outer loop
      vertex 20.2245 42.9793 13
      vertex 14.6783 45.1752 0
      vertex 20.2245 42.9793 0
    endloop
  endfacet
  facet normal -0.481749 -0.876309 0
    outer loop
      vertex 20.2245 42.9793 0
      vertex 25.4518 40.1056 13
      vertex 20.2245 42.9793 13
    endloop
  endfacet
  facet normal -0.481749 -0.876309 -0
    outer loop
      vertex 25.4518 40.1056 13
      vertex 20.2245 42.9793 0
      vertex 25.4518 40.1056 0
    endloop
  endfacet
  facet normal 0.904829 -0.425776 0
    outer loop
      vertex -44.1644 17.4859 13
      vertex -41.6246 22.8833 0
      vertex -41.6246 22.8833 13
    endloop
  endfacet
  facet normal 0.904829 -0.425776 0
    outer loop
      vertex -41.6246 22.8833 0
      vertex -44.1644 17.4859 13
      vertex -44.1644 17.4859 0
    endloop
  endfacet
  facet normal 0.248681 -0.968586 0
    outer loop
      vertex -14.6783 45.1752 0
      vertex -8.90061 46.6586 13
      vertex -14.6783 45.1752 13
    endloop
  endfacet
  facet normal 0.248681 -0.968586 0
    outer loop
      vertex -8.90061 46.6586 13
      vertex -14.6783 45.1752 0
      vertex -8.90061 46.6586 0
    endloop
  endfacet
  facet normal -0.951057 -0.309017 0
    outer loop
      vertex 46.0077 11.8128 0
      vertex 44.1644 17.4859 13
      vertex 44.1644 17.4859 0
    endloop
  endfacet
  facet normal -0.951057 -0.309017 0
    outer loop
      vertex 44.1644 17.4859 13
      vertex 46.0077 11.8128 0
      vertex 46.0077 11.8128 13
    endloop
  endfacet
  facet normal -0.982286 -0.187389 0
    outer loop
      vertex 47.1255 5.95333 0
      vertex 46.0077 11.8128 13
      vertex 46.0077 11.8128 0
    endloop
  endfacet
  facet normal -0.982286 -0.187389 0
    outer loop
      vertex 46.0077 11.8128 13
      vertex 47.1255 5.95333 0
      vertex 47.1255 5.95333 13
    endloop
  endfacet
  facet normal -0.770514 -0.637423 0
    outer loop
      vertex 38.4283 27.9198 0
      vertex 34.626 32.516 13
      vertex 34.626 32.516 0
    endloop
  endfacet
  facet normal -0.770514 -0.637423 0
    outer loop
      vertex 34.626 32.516 13
      vertex 38.4283 27.9198 0
      vertex 38.4283 27.9198 13
    endloop
  endfacet
  facet normal -0.844325 -0.535832 0
    outer loop
      vertex 41.6246 22.8833 0
      vertex 38.4283 27.9198 13
      vertex 38.4283 27.9198 0
    endloop
  endfacet
  facet normal -0.844325 -0.535832 0
    outer loop
      vertex 38.4283 27.9198 13
      vertex 41.6246 22.8833 0
      vertex 41.6246 22.8833 13
    endloop
  endfacet
  facet normal -0.248681 -0.968586 0
    outer loop
      vertex 8.90061 46.6586 0
      vertex 14.6783 45.1752 13
      vertex 8.90061 46.6586 13
    endloop
  endfacet
  facet normal -0.248681 -0.968586 -0
    outer loop
      vertex 14.6783 45.1752 13
      vertex 8.90061 46.6586 0
      vertex 14.6783 45.1752 0
    endloop
  endfacet
  facet normal -0.125346 -0.992113 0
    outer loop
      vertex 2.98255 47.4063 0
      vertex 8.90061 46.6586 13
      vertex 2.98255 47.4063 13
    endloop
  endfacet
  facet normal -0.125346 -0.992113 -0
    outer loop
      vertex 8.90061 46.6586 13
      vertex 2.98255 47.4063 0
      vertex 8.90061 46.6586 0
    endloop
  endfacet
  facet normal -0.587791 -0.809013 0
    outer loop
      vertex 25.4518 40.1056 0
      vertex 30.2776 36.5994 13
      vertex 25.4518 40.1056 13
    endloop
  endfacet
  facet normal -0.587791 -0.809013 -0
    outer loop
      vertex 30.2776 36.5994 13
      vertex 25.4518 40.1056 0
      vertex 30.2776 36.5994 0
    endloop
  endfacet
  facet normal 0.844325 -0.535832 0
    outer loop
      vertex -41.6246 22.8833 13
      vertex -38.4283 27.9198 0
      vertex -38.4283 27.9198 13
    endloop
  endfacet
  facet normal 0.844325 -0.535832 0
    outer loop
      vertex -38.4283 27.9198 0
      vertex -41.6246 22.8833 13
      vertex -41.6246 22.8833 0
    endloop
  endfacet
  facet normal 0.770514 -0.637423 0
    outer loop
      vertex -38.4283 27.9198 13
      vertex -34.626 32.516 0
      vertex -34.626 32.516 13
    endloop
  endfacet
  facet normal 0.770514 -0.637423 0
    outer loop
      vertex -34.626 32.516 0
      vertex -38.4283 27.9198 13
      vertex -38.4283 27.9198 0
    endloop
  endfacet
  facet normal 0.951057 -0.309017 0
    outer loop
      vertex -46.0077 11.8128 13
      vertex -44.1644 17.4859 0
      vertex -44.1644 17.4859 13
    endloop
  endfacet
  facet normal 0.951057 -0.309017 0
    outer loop
      vertex -44.1644 17.4859 0
      vertex -46.0077 11.8128 13
      vertex -46.0077 11.8128 0
    endloop
  endfacet
  facet normal 0.982286 -0.187389 0
    outer loop
      vertex -47.1255 5.95333 13
      vertex -46.0077 11.8128 0
      vertex -46.0077 11.8128 13
    endloop
  endfacet
  facet normal 0.982286 -0.187389 0
    outer loop
      vertex -46.0077 11.8128 0
      vertex -47.1255 5.95333 13
      vertex -47.1255 5.95333 0
    endloop
  endfacet
  facet normal 0.481749 -0.876309 0
    outer loop
      vertex -25.4518 40.1056 0
      vertex -20.2245 42.9793 13
      vertex -25.4518 40.1056 13
    endloop
  endfacet
  facet normal 0.481749 -0.876309 0
    outer loop
      vertex -20.2245 42.9793 13
      vertex -25.4518 40.1056 0
      vertex -20.2245 42.9793 0
    endloop
  endfacet
  facet normal 0.587791 -0.809013 0
    outer loop
      vertex -30.2776 36.5994 0
      vertex -25.4518 40.1056 13
      vertex -30.2776 36.5994 13
    endloop
  endfacet
  facet normal 0.587791 -0.809013 0
    outer loop
      vertex -25.4518 40.1056 13
      vertex -30.2776 36.5994 0
      vertex -25.4518 40.1056 0
    endloop
  endfacet
  facet normal 0.125346 -0.992113 0
    outer loop
      vertex -8.90061 46.6586 0
      vertex -2.98255 47.4063 13
      vertex -8.90061 46.6586 13
    endloop
  endfacet
  facet normal 0.125346 -0.992113 0
    outer loop
      vertex -2.98255 47.4063 13
      vertex -8.90061 46.6586 0
      vertex -2.98255 47.4063 0
    endloop
  endfacet
  facet normal -0.998027 0.0627819 0
    outer loop
      vertex 47.1255 -5.95333 0
      vertex 47.5 0 13
      vertex 47.5 0 0
    endloop
  endfacet
  facet normal -0.998027 0.0627819 0
    outer loop
      vertex 47.5 0 13
      vertex 47.1255 -5.95333 0
      vertex 47.1255 -5.95333 13
    endloop
  endfacet
  facet normal -0.481749 0.876309 0
    outer loop
      vertex 25.4518 -40.1056 0
      vertex 20.2245 -42.9793 13
      vertex 25.4518 -40.1056 13
    endloop
  endfacet
  facet normal -0.481749 0.876309 0
    outer loop
      vertex 20.2245 -42.9793 13
      vertex 25.4518 -40.1056 0
      vertex 20.2245 -42.9793 0
    endloop
  endfacet
  facet normal -0.904829 0.425776 0
    outer loop
      vertex 41.6246 -22.8833 0
      vertex 44.1644 -17.4859 13
      vertex 44.1644 -17.4859 0
    endloop
  endfacet
  facet normal -0.904829 0.425776 0
    outer loop
      vertex 44.1644 -17.4859 13
      vertex 41.6246 -22.8833 0
      vertex 41.6246 -22.8833 13
    endloop
  endfacet
  facet normal -0.951057 0.309017 0
    outer loop
      vertex 44.1644 -17.4859 0
      vertex 46.0077 -11.8128 13
      vertex 46.0077 -11.8128 0
    endloop
  endfacet
  facet normal -0.951057 0.309017 0
    outer loop
      vertex 46.0077 -11.8128 13
      vertex 44.1644 -17.4859 0
      vertex 44.1644 -17.4859 13
    endloop
  endfacet
  facet normal 0.770514 0.637423 0
    outer loop
      vertex -34.626 -32.516 13
      vertex -38.4283 -27.9198 0
      vertex -38.4283 -27.9198 13
    endloop
  endfacet
  facet normal 0.770514 0.637423 0
    outer loop
      vertex -38.4283 -27.9198 0
      vertex -34.626 -32.516 13
      vertex -34.626 -32.516 0
    endloop
  endfacet
  facet normal 0.982286 0.187389 0
    outer loop
      vertex -46.0077 -11.8128 13
      vertex -47.1255 -5.95333 0
      vertex -47.1255 -5.95333 13
    endloop
  endfacet
  facet normal 0.982286 0.187389 0
    outer loop
      vertex -47.1255 -5.95333 0
      vertex -46.0077 -11.8128 13
      vertex -46.0077 -11.8128 0
    endloop
  endfacet
  facet normal 0.998027 0.0627819 0
    outer loop
      vertex -47.1255 -5.95333 13
      vertex -47.5 0 0
      vertex -47.5 0 13
    endloop
  endfacet
  facet normal 0.998027 0.0627819 0
    outer loop
      vertex -47.5 0 0
      vertex -47.1255 -5.95333 13
      vertex -47.1255 -5.95333 0
    endloop
  endfacet
  facet normal 0.951057 0.309017 0
    outer loop
      vertex -44.1644 -17.4859 13
      vertex -46.0077 -11.8128 0
      vertex -46.0077 -11.8128 13
    endloop
  endfacet
  facet normal 0.951057 0.309017 0
    outer loop
      vertex -46.0077 -11.8128 0
      vertex -44.1644 -17.4859 13
      vertex -44.1644 -17.4859 0
    endloop
  endfacet
  facet normal -0.684545 0.72897 0
    outer loop
      vertex 34.626 -32.516 0
      vertex 30.2776 -36.5994 13
      vertex 34.626 -32.516 13
    endloop
  endfacet
  facet normal -0.684545 0.72897 0
    outer loop
      vertex 30.2776 -36.5994 13
      vertex 34.626 -32.516 0
      vertex 30.2776 -36.5994 0
    endloop
  endfacet
  facet normal -0.368125 0.929776 0
    outer loop
      vertex 20.2245 -42.9793 0
      vertex 14.6783 -45.1752 13
      vertex 20.2245 -42.9793 13
    endloop
  endfacet
  facet normal -0.368125 0.929776 0
    outer loop
      vertex 14.6783 -45.1752 13
      vertex 20.2245 -42.9793 0
      vertex 14.6783 -45.1752 0
    endloop
  endfacet
  facet normal -0.248681 0.968586 0
    outer loop
      vertex 14.6783 -45.1752 0
      vertex 8.90061 -46.6586 13
      vertex 14.6783 -45.1752 13
    endloop
  endfacet
  facet normal -0.248681 0.968586 0
    outer loop
      vertex 8.90061 -46.6586 13
      vertex 14.6783 -45.1752 0
      vertex 8.90061 -46.6586 0
    endloop
  endfacet
  facet normal -0.125346 0.992113 0
    outer loop
      vertex 8.90061 -46.6586 0
      vertex 2.98255 -47.4063 13
      vertex 8.90061 -46.6586 13
    endloop
  endfacet
  facet normal -0.125346 0.992113 0
    outer loop
      vertex 2.98255 -47.4063 13
      vertex 8.90061 -46.6586 0
      vertex 2.98255 -47.4063 0
    endloop
  endfacet
  facet normal -0.982286 0.187389 0
    outer loop
      vertex 46.0077 -11.8128 0
      vertex 47.1255 -5.95333 13
      vertex 47.1255 -5.95333 0
    endloop
  endfacet
  facet normal -0.982286 0.187389 0
    outer loop
      vertex 47.1255 -5.95333 13
      vertex 46.0077 -11.8128 0
      vertex 46.0077 -11.8128 13
    endloop
  endfacet
  facet normal 0.125346 0.992113 -0
    outer loop
      vertex -2.98255 -47.4063 0
      vertex -8.90061 -46.6586 13
      vertex -2.98255 -47.4063 13
    endloop
  endfacet
  facet normal 0.125346 0.992113 0
    outer loop
      vertex -8.90061 -46.6586 13
      vertex -2.98255 -47.4063 0
      vertex -8.90061 -46.6586 0
    endloop
  endfacet
  facet normal 0.368125 0.929776 -0
    outer loop
      vertex -14.6783 -45.1752 0
      vertex -20.2245 -42.9793 13
      vertex -14.6783 -45.1752 13
    endloop
  endfacet
  facet normal 0.368125 0.929776 0
    outer loop
      vertex -20.2245 -42.9793 13
      vertex -14.6783 -45.1752 0
      vertex -20.2245 -42.9793 0
    endloop
  endfacet
  facet normal 0.248681 0.968586 -0
    outer loop
      vertex -8.90061 -46.6586 0
      vertex -14.6783 -45.1752 13
      vertex -8.90061 -46.6586 13
    endloop
  endfacet
  facet normal 0.248681 0.968586 0
    outer loop
      vertex -14.6783 -45.1752 13
      vertex -8.90061 -46.6586 0
      vertex -14.6783 -45.1752 0
    endloop
  endfacet
  facet normal 0.684545 0.72897 -0
    outer loop
      vertex -30.2776 -36.5994 0
      vertex -34.626 -32.516 13
      vertex -30.2776 -36.5994 13
    endloop
  endfacet
  facet normal 0.684545 0.72897 0
    outer loop
      vertex -34.626 -32.516 13
      vertex -30.2776 -36.5994 0
      vertex -34.626 -32.516 0
    endloop
  endfacet
  facet normal -0.587791 0.809013 0
    outer loop
      vertex 30.2776 -36.5994 0
      vertex 25.4518 -40.1056 13
      vertex 30.2776 -36.5994 13
    endloop
  endfacet
  facet normal -0.587791 0.809013 0
    outer loop
      vertex 25.4518 -40.1056 13
      vertex 30.2776 -36.5994 0
      vertex 25.4518 -40.1056 0
    endloop
  endfacet
  facet normal 0.587791 0.809013 -0
    outer loop
      vertex -25.4518 -40.1056 0
      vertex -30.2776 -36.5994 13
      vertex -25.4518 -40.1056 13
    endloop
  endfacet
  facet normal 0.587791 0.809013 0
    outer loop
      vertex -30.2776 -36.5994 13
      vertex -25.4518 -40.1056 0
      vertex -30.2776 -36.5994 0
    endloop
  endfacet
  facet normal 0.844325 0.535832 0
    outer loop
      vertex -38.4283 -27.9198 13
      vertex -41.6246 -22.8833 0
      vertex -41.6246 -22.8833 13
    endloop
  endfacet
  facet normal 0.844325 0.535832 0
    outer loop
      vertex -41.6246 -22.8833 0
      vertex -38.4283 -27.9198 13
      vertex -38.4283 -27.9198 0
    endloop
  endfacet
  facet normal 0.904829 0.425776 0
    outer loop
      vertex -41.6246 -22.8833 13
      vertex -44.1644 -17.4859 0
      vertex -44.1644 -17.4859 13
    endloop
  endfacet
  facet normal 0.904829 0.425776 0
    outer loop
      vertex -44.1644 -17.4859 0
      vertex -41.6246 -22.8833 13
      vertex -41.6246 -22.8833 0
    endloop
  endfacet
  facet normal -0.844325 0.535832 0
    outer loop
      vertex 38.4283 -27.9198 0
      vertex 41.6246 -22.8833 13
      vertex 41.6246 -22.8833 0
    endloop
  endfacet
  facet normal -0.844325 0.535832 0
    outer loop
      vertex 41.6246 -22.8833 13
      vertex 38.4283 -27.9198 0
      vertex 38.4283 -27.9198 13
    endloop
  endfacet
  facet normal 0.481749 0.876309 -0
    outer loop
      vertex -20.2245 -42.9793 0
      vertex -25.4518 -40.1056 13
      vertex -20.2245 -42.9793 13
    endloop
  endfacet
  facet normal 0.481749 0.876309 0
    outer loop
      vertex -25.4518 -40.1056 13
      vertex -20.2245 -42.9793 0
      vertex -25.4518 -40.1056 0
    endloop
  endfacet
endsolid OpenSCAD_Model
