<?xml version="1.0" standalone="no"?>
<!DOCTYPE svg PUBLIC "-//W3C//DTD SVG 1.1//EN" "http://www.w3.org/Graphics/SVG/1.1/DTD/svg11.dtd">
<svg width="196mm" height="118mm" viewBox="-98 -232 196 118" xmlns="http://www.w3.org/2000/svg" version="1.1">
<title>OpenSCAD Model</title>
<path d="
M 93.4369,-209.339 L 94.0451,-209.495 L 94.6289,-209.726 L 95.1791,-210.028 L 95.6871,-210.397 L 96.1448,-210.827
 L 96.5451,-211.311 L 96.8815,-211.841 L 97.1489,-212.409 L 97.3429,-213.007 L 97.4606,-213.623 L 97.5,-214.25
 L 97.5,-226.75 L 97.4606,-227.377 L 97.3429,-227.993 L 97.1489,-228.591 L 96.8815,-229.159 L 96.5451,-229.689
 L 96.1448,-230.173 L 95.6871,-230.603 L 95.1791,-230.972 L 94.6289,-231.274 L 94.0451,-231.505 L 93.4369,-231.661
 L 92.8139,-231.74 L -92.8139,-231.74 L -93.4369,-231.661 L -94.0451,-231.505 L -94.6289,-231.274 L -95.1791,-230.972
 L -95.6871,-230.603 L -96.1448,-230.173 L -96.5451,-229.689 L -96.8815,-229.159 L -97.1489,-228.591 L -97.3429,-227.993
 L -97.4606,-227.377 L -97.5,-226.75 L -97.5,-214.25 L -97.4606,-213.623 L -97.3429,-213.007 L -97.1489,-212.409
 L -96.8815,-211.841 L -96.5451,-211.311 L -96.1448,-210.827 L -95.6871,-210.397 L -95.1791,-210.028 L -94.6289,-209.726
 L -94.0451,-209.495 L -93.4369,-209.339 L -92.8139,-209.26 L 92.8139,-209.26 z
M -92.5482,-209.759 L -93.1401,-209.834 L -93.7178,-209.982 L -94.2724,-210.202 L -94.7952,-210.489 L -95.2778,-210.84
 L -95.7126,-211.248 L -96.0928,-211.708 L -96.4125,-212.212 L -96.6664,-212.751 L -96.8508,-213.319 L -96.9625,-213.905
 L -97,-214.5 L -97,-226.5 L -96.9625,-227.095 L -96.8508,-227.681 L -96.6664,-228.249 L -96.4125,-228.788
 L -96.0928,-229.292 L -95.7126,-229.752 L -95.2778,-230.16 L -94.7952,-230.511 L -94.2724,-230.798 L -93.7178,-231.018
 L -93.1401,-231.166 L -92.5482,-231.241 L 92.5482,-231.241 L 93.1401,-231.166 L 93.7178,-231.018 L 94.2724,-230.798
 L 94.7952,-230.511 L 95.2778,-230.16 L 95.7126,-229.752 L 96.0928,-229.292 L 96.4125,-228.788 L 96.6664,-228.249
 L 96.8508,-227.681 L 96.9625,-227.095 L 97,-226.5 L 97,-214.5 L 96.9625,-213.905 L 96.8508,-213.319
 L 96.6664,-212.751 L 96.4125,-212.212 L 96.0928,-211.708 L 95.7126,-211.248 L 95.2778,-210.84 L 94.7952,-210.489
 L 94.2724,-210.202 L 93.7178,-209.982 L 93.1401,-209.834 L 92.5482,-209.759 z
M 93.4369,-177.839 L 94.0451,-177.995 L 94.6289,-178.226 L 95.1791,-178.528 L 95.6871,-178.897 L 96.1448,-179.327
 L 96.5451,-179.811 L 96.8815,-180.341 L 97.1489,-180.909 L 97.3429,-181.507 L 97.4606,-182.123 L 97.5,-182.75
 L 97.5,-195.25 L 97.4606,-195.877 L 97.3429,-196.493 L 97.1489,-197.091 L 96.8815,-197.659 L 96.5451,-198.189
 L 96.1448,-198.673 L 95.6871,-199.103 L 95.1791,-199.472 L 94.6289,-199.774 L 94.0451,-200.005 L 93.4369,-200.161
 L 92.8139,-200.24 L -92.8139,-200.24 L -93.4369,-200.161 L -94.0451,-200.005 L -94.6289,-199.774 L -95.1791,-199.472
 L -95.6871,-199.103 L -96.1448,-198.673 L -96.5451,-198.189 L -96.8815,-197.659 L -97.1489,-197.091 L -97.3429,-196.493
 L -97.4606,-195.877 L -97.5,-195.25 L -97.5,-182.75 L -97.4606,-182.123 L -97.3429,-181.507 L -97.1489,-180.909
 L -96.8815,-180.341 L -96.5451,-179.811 L -96.1448,-179.327 L -95.6871,-178.897 L -95.1791,-178.528 L -94.6289,-178.226
 L -94.0451,-177.995 L -93.4369,-177.839 L -92.8139,-177.76 L 92.8139,-177.76 z
M -92.5482,-178.259 L -93.1401,-178.334 L -93.7178,-178.482 L -94.2724,-178.702 L -94.7952,-178.989 L -95.2778,-179.34
 L -95.7126,-179.748 L -96.0928,-180.208 L -96.4125,-180.712 L -96.6664,-181.251 L -96.8508,-181.819 L -96.9625,-182.405
 L -97,-183 L -97,-195 L -96.9625,-195.595 L -96.8508,-196.181 L -96.6664,-196.749 L -96.4125,-197.288
 L -96.0928,-197.792 L -95.7126,-198.252 L -95.2778,-198.66 L -94.7952,-199.011 L -94.2724,-199.298 L -93.7178,-199.518
 L -93.1401,-199.666 L -92.5482,-199.741 L 92.5482,-199.741 L 93.1401,-199.666 L 93.7178,-199.518 L 94.2724,-199.298
 L 94.7952,-199.011 L 95.2778,-198.66 L 95.7126,-198.252 L 96.0928,-197.792 L 96.4125,-197.288 L 96.6664,-196.749
 L 96.8508,-196.181 L 96.9625,-195.595 L 97,-195 L 97,-183 L 96.9625,-182.405 L 96.8508,-181.819
 L 96.6664,-181.251 L 96.4125,-180.712 L 96.0928,-180.208 L 95.7126,-179.748 L 95.2778,-179.34 L 94.7952,-178.989
 L 94.2724,-178.702 L 93.7178,-178.482 L 93.1401,-178.334 L 92.5482,-178.259 z
M 93.4369,-146.339 L 94.0451,-146.495 L 94.6289,-146.726 L 95.1791,-147.028 L 95.6871,-147.397 L 96.1448,-147.827
 L 96.5451,-148.311 L 96.8815,-148.841 L 97.1489,-149.409 L 97.3429,-150.007 L 97.4606,-150.623 L 97.5,-151.25
 L 97.5,-163.75 L 97.4606,-164.377 L 97.3429,-164.993 L 97.1489,-165.591 L 96.8815,-166.159 L 96.5451,-166.689
 L 96.1448,-167.173 L 95.6871,-167.603 L 95.1791,-167.972 L 94.6289,-168.274 L 94.0451,-168.505 L 93.4369,-168.661
 L 92.8139,-168.74 L -92.8139,-168.74 L -93.4369,-168.661 L -94.0451,-168.505 L -94.6289,-168.274 L -95.1791,-167.972
 L -95.6871,-167.603 L -96.1448,-167.173 L -96.5451,-166.689 L -96.8815,-166.159 L -97.1489,-165.591 L -97.3429,-164.993
 L -97.4606,-164.377 L -97.5,-163.75 L -97.5,-151.25 L -97.4606,-150.623 L -97.3429,-150.007 L -97.1489,-149.409
 L -96.8815,-148.841 L -96.5451,-148.311 L -96.1448,-147.827 L -95.6871,-147.397 L -95.1791,-147.028 L -94.6289,-146.726
 L -94.0451,-146.495 L -93.4369,-146.339 L -92.8139,-146.26 L 92.8139,-146.26 z
M -92.5375,-146.931 L -93.1079,-147.003 L -93.6648,-147.146 L -94.1994,-147.357 L -94.7032,-147.634 L -95.1684,-147.972
 L -95.5875,-148.366 L -95.954,-148.809 L -96.2621,-149.294 L -96.5069,-149.815 L -96.6846,-150.361 L -96.7923,-150.926
 L -96.8284,-151.5 L -96.8284,-163.5 L -96.7923,-164.074 L -96.6846,-164.639 L -96.5069,-165.185 L -96.2621,-165.706
 L -95.954,-166.191 L -95.5875,-166.634 L -95.1684,-167.028 L -94.7032,-167.366 L -94.1994,-167.643 L -93.6648,-167.854
 L -93.1079,-167.997 L -92.5375,-168.069 L 92.5375,-168.069 L 93.1079,-167.997 L 93.6648,-167.854 L 94.1994,-167.643
 L 94.7032,-167.366 L 95.1684,-167.028 L 95.5875,-166.634 L 95.954,-166.191 L 96.2621,-165.706 L 96.5069,-165.185
 L 96.6846,-164.639 L 96.7923,-164.074 L 96.8284,-163.5 L 96.8284,-151.5 L 96.7923,-150.926 L 96.6846,-150.361
 L 96.5069,-149.815 L 96.2621,-149.294 L 95.954,-148.809 L 95.5875,-148.366 L 95.1684,-147.972 L 94.7032,-147.634
 L 94.1994,-147.357 L 93.6648,-147.146 L 93.1079,-147.003 L 92.5375,-146.931 z
M 93.4369,-114.839 L 94.0451,-114.995 L 94.6289,-115.226 L 95.1791,-115.528 L 95.6871,-115.897 L 96.1448,-116.327
 L 96.5451,-116.811 L 96.8815,-117.341 L 97.1489,-117.909 L 97.3429,-118.507 L 97.4606,-119.123 L 97.5,-119.75
 L 97.5,-132.25 L 97.4606,-132.877 L 97.3429,-133.493 L 97.1489,-134.091 L 96.8815,-134.659 L 96.5451,-135.189
 L 96.1448,-135.673 L 95.6871,-136.103 L 95.1791,-136.472 L 94.6289,-136.774 L 94.0451,-137.005 L 93.4369,-137.161
 L 92.8139,-137.24 L -92.8139,-137.24 L -93.4369,-137.161 L -94.0451,-137.005 L -94.6289,-136.774 L -95.1791,-136.472
 L -95.6871,-136.103 L -96.1448,-135.673 L -96.5451,-135.189 L -96.8815,-134.659 L -97.1489,-134.091 L -97.3429,-133.493
 L -97.4606,-132.877 L -97.5,-132.25 L -97.5,-119.75 L -97.4606,-119.123 L -97.3429,-118.507 L -97.1489,-117.909
 L -96.8815,-117.341 L -96.5451,-116.811 L -96.1448,-116.327 L -95.6871,-115.897 L -95.1791,-115.528 L -94.6289,-115.226
 L -94.0451,-114.995 L -93.4369,-114.839 L -92.8139,-114.76 L 92.8139,-114.76 z
M -92.3825,-117.895 L -92.6453,-117.928 L -92.9019,-117.994 L -93.1482,-118.091 L -93.3804,-118.219 L -93.5947,-118.375
 L -93.7879,-118.556 L -93.9567,-118.76 L -94.0987,-118.984 L -94.2115,-119.223 L -94.2934,-119.475 L -94.343,-119.736
 L -94.3596,-120 L -94.3596,-132 L -94.343,-132.264 L -94.2934,-132.525 L -94.2115,-132.777 L -94.0987,-133.016
 L -93.9567,-133.24 L -93.7879,-133.444 L -93.5947,-133.625 L -93.3804,-133.781 L -93.1482,-133.909 L -92.9019,-134.006
 L -92.6453,-134.072 L -92.3825,-134.105 L 92.3825,-134.105 L 92.6453,-134.072 L 92.9019,-134.006 L 93.1482,-133.909
 L 93.3804,-133.781 L 93.5947,-133.625 L 93.7879,-133.444 L 93.9567,-133.24 L 94.0987,-133.016 L 94.2115,-132.777
 L 94.2934,-132.525 L 94.343,-132.264 L 94.3596,-132 L 94.3596,-120 L 94.343,-119.736 L 94.2934,-119.475
 L 94.2115,-119.223 L 94.0987,-118.984 L 93.9567,-118.76 L 93.7879,-118.556 L 93.5947,-118.375 L 93.3804,-118.219
 L 93.1482,-118.091 L 92.9019,-117.994 L 92.6453,-117.928 L 92.3825,-117.895 z
" stroke="black" fill="lightgray" stroke-width="0.5"/>
</svg>
