<?xml version="1.0" standalone="no"?>
<!DOCTYPE svg PUBLIC "-//W3C//DTD SVG 1.1//EN" "http://www.w3.org/Graphics/SVG/1.1/DTD/svg11.dtd">
<svg width="16mm" height="86mm" viewBox="-8 -75 16 86" xmlns="http://www.w3.org/2000/svg" version="1.1">
<title>OpenSCAD Model</title>
<path d="
M -4.5,-52.1748 L -4.04507,-51.9947 L -3.4369,-51.8386 L -2.81395,-51.7599 L 2.81395,-51.7599 L 3.4369,-51.8386
 L 4.04507,-51.9947 L 4.62889,-52.2259 L 5.17912,-52.5284 L 5.68712,-52.8974 L 6.14484,-53.3273 L 6.54507,-53.8111
 L 6.88153,-54.3412 L 7.14888,-54.9094 L 7.34291,-55.5066 L 7.46057,-56.1233 L 7.5,-56.75 L 7.5,-69.25
 L 7.46057,-69.8767 L 7.34291,-70.4934 L 7.14888,-71.0906 L 6.88153,-71.6588 L 6.54507,-72.1889 L 6.14484,-72.6727
 L 5.68712,-73.1026 L 5.17912,-73.4716 L 4.62889,-73.7741 L 4.04507,-74.0053 L 3.4369,-74.1614 L 2.81395,-74.2401
 L -2.81395,-74.2401 L -3.4369,-74.1614 L -4.04507,-74.0053 L -4.5,-73.8252 L -4.5,-74.2401 L -7.5,-74.2401
 L -7.5,-51.7599 L -4.5,-51.7599 z
M -0.150696,-64.3547 L -0.449707,-64.3925 L -0.741638,-64.4675 L -1.02187,-64.5784 L -1.28598,-64.7236 L -1.52982,-64.9008
 L -1.74951,-65.1071 L -1.94164,-65.3393 L -2.10313,-65.5938 L -2.23146,-65.8665 L -2.32458,-66.1531 L -2.38107,-66.4492
 L -2.39999,-66.75 L -2.38107,-67.0508 L -2.32458,-67.3468 L -2.23146,-67.6335 L -2.10313,-67.9062 L -1.94164,-68.1607
 L -1.74951,-68.3929 L -1.52982,-68.5992 L -1.28598,-68.7764 L -1.02187,-68.9216 L -0.741638,-69.0325 L -0.449707,-69.1075
 L -0.150696,-69.1453 L 0.150696,-69.1453 L 0.449707,-69.1075 L 0.741638,-69.0325 L 1.02187,-68.9216 L 1.28598,-68.7764
 L 1.52982,-68.5992 L 1.74951,-68.3929 L 1.94164,-68.1607 L 2.10313,-67.9062 L 2.23146,-67.6335 L 2.32458,-67.3468
 L 2.38107,-67.0508 L 2.39999,-66.75 L 2.38107,-66.4492 L 2.32458,-66.1531 L 2.23146,-65.8665 L 2.10313,-65.5938
 L 1.94164,-65.3393 L 1.74951,-65.1071 L 1.52982,-64.9008 L 1.28598,-64.7236 L 1.02187,-64.5784 L 0.741638,-64.4675
 L 0.449707,-64.3925 L 0.150696,-64.3547 z
M -0.150696,-56.8547 L -0.449707,-56.8925 L -0.741638,-56.9675 L -1.02187,-57.0784 L -1.28598,-57.2236 L -1.52982,-57.4008
 L -1.74951,-57.6071 L -1.94164,-57.8393 L -2.10313,-58.0938 L -2.23146,-58.3665 L -2.32458,-58.6532 L -2.38107,-58.9492
 L -2.39999,-59.25 L -2.38107,-59.5508 L -2.32458,-59.8469 L -2.23146,-60.1335 L -2.10313,-60.4062 L -1.94164,-60.6607
 L -1.74951,-60.8929 L -1.52982,-61.0992 L -1.28598,-61.2764 L -1.02187,-61.4216 L -0.741638,-61.5325 L -0.449707,-61.6075
 L -0.150696,-61.6453 L 0.150696,-61.6453 L 0.449707,-61.6075 L 0.741638,-61.5325 L 1.02187,-61.4216 L 1.28598,-61.2764
 L 1.52982,-61.0992 L 1.74951,-60.8929 L 1.94164,-60.6607 L 2.10313,-60.4062 L 2.23146,-60.1335 L 2.32458,-59.8469
 L 2.38107,-59.5508 L 2.39999,-59.25 L 2.38107,-58.9492 L 2.32458,-58.6532 L 2.23146,-58.3665 L 2.10313,-58.0938
 L 1.94164,-57.8393 L 1.74951,-57.6071 L 1.52982,-57.4008 L 1.28598,-57.2236 L 1.02187,-57.0784 L 0.741638,-56.9675
 L 0.449707,-56.8925 L 0.150696,-56.8547 z
M -4.5,-20.6748 L -4.04507,-20.4947 L -3.4369,-20.3386 L -2.81395,-20.2599 L 2.81395,-20.2599 L 3.4369,-20.3386
 L 4.04507,-20.4947 L 4.62889,-20.7259 L 5.17912,-21.0284 L 5.68712,-21.3974 L 6.14484,-21.8273 L 6.54507,-22.3111
 L 6.88153,-22.8412 L 7.14888,-23.4094 L 7.34291,-24.0066 L 7.46057,-24.6233 L 7.5,-25.25 L 7.5,-37.75
 L 7.46057,-38.3767 L 7.34291,-38.9934 L 7.14888,-39.5906 L 6.88153,-40.1588 L 6.54507,-40.6889 L 6.14484,-41.1727
 L 5.68712,-41.6026 L 5.17912,-41.9716 L 4.62889,-42.2741 L 4.04507,-42.5053 L 3.4369,-42.6614 L 2.81395,-42.7401
 L -2.81395,-42.7401 L -3.4369,-42.6614 L -4.04507,-42.5053 L -4.5,-42.3252 L -4.5,-42.7401 L -7.5,-42.7401
 L -7.5,-20.2599 L -4.5,-20.2599 z
M -0.113022,-33.4536 L -0.33728,-33.4819 L -0.556229,-33.5381 L -0.766388,-33.6213 L -0.964478,-33.7302 L -1.14735,-33.8631
 L -1.31213,-34.0178 L -1.45622,-34.192 L -1.57735,-34.3828 L -1.67358,-34.5874 L -1.74344,-34.8024 L -1.7858,-35.0244
 L -1.79999,-35.25 L -1.7858,-35.4756 L -1.74344,-35.6976 L -1.67358,-35.9126 L -1.57735,-36.1171 L -1.45622,-36.308
 L -1.31213,-36.4822 L -1.14735,-36.6369 L -0.964478,-36.7698 L -0.766388,-36.8787 L -0.556229,-36.9619 L -0.33728,-37.0181
 L -0.113022,-37.0464 L 0.113022,-37.0464 L 0.33728,-37.0181 L 0.556229,-36.9619 L 0.766388,-36.8787 L 0.964478,-36.7698
 L 1.14735,-36.6369 L 1.31213,-36.4822 L 1.45622,-36.308 L 1.57735,-36.1171 L 1.67358,-35.9126 L 1.74344,-35.6976
 L 1.7858,-35.4756 L 1.79999,-35.25 L 1.7858,-35.0244 L 1.74344,-34.8024 L 1.67358,-34.5874 L 1.57735,-34.3828
 L 1.45622,-34.192 L 1.31213,-34.0178 L 1.14735,-33.8631 L 0.964478,-33.7302 L 0.766388,-33.6213 L 0.556229,-33.5381
 L 0.33728,-33.4819 L 0.113022,-33.4536 z
M -0.113022,-25.9536 L -0.33728,-25.9819 L -0.556229,-26.0381 L -0.766388,-26.1213 L -0.964478,-26.2302 L -1.14735,-26.3631
 L -1.31213,-26.5178 L -1.45622,-26.692 L -1.57735,-26.8829 L -1.67358,-27.0874 L -1.74344,-27.3024 L -1.7858,-27.5244
 L -1.79999,-27.75 L -1.7858,-27.9756 L -1.74344,-28.1976 L -1.67358,-28.4126 L -1.57735,-28.6172 L -1.45622,-28.808
 L -1.31213,-28.9822 L -1.14735,-29.1369 L -0.964478,-29.2698 L -0.766388,-29.3787 L -0.556229,-29.4619 L -0.33728,-29.5181
 L -0.113022,-29.5464 L 0.113022,-29.5464 L 0.33728,-29.5181 L 0.556229,-29.4619 L 0.766388,-29.3787 L 0.964478,-29.2698
 L 1.14735,-29.1369 L 1.31213,-28.9822 L 1.45622,-28.808 L 1.57735,-28.6172 L 1.67358,-28.4126 L 1.74344,-28.1976
 L 1.7858,-27.9756 L 1.79999,-27.75 L 1.7858,-27.5244 L 1.74344,-27.3024 L 1.67358,-27.0874 L 1.57735,-26.8829
 L 1.45622,-26.692 L 1.31213,-26.5178 L 1.14735,-26.3631 L 0.964478,-26.2302 L 0.766388,-26.1213 L 0.556229,-26.0381
 L 0.33728,-25.9819 L 0.113022,-25.9536 z
M -4.5,-10.8648 L -7.5,-10.8648 L -7.5,10.8648 L -4.5,10.8648 z
" stroke="black" fill="lightgray" stroke-width="0.5"/>
</svg>
