<?xml version="1.0" standalone="no"?>
<!DOCTYPE svg PUBLIC "-//W3C//DTD SVG 1.1//EN" "http://www.w3.org/Graphics/SVG/1.1/DTD/svg11.dtd">
<svg width="16mm" height="2602mm" viewBox="-8 -5129 16 2602" xmlns="http://www.w3.org/2000/svg" version="1.1">
<title>OpenSCAD Model</title>
<path d="
M 3.4369,-4963.59 L 4.04507,-4963.74 L 4.62889,-4963.98 L 5.17912,-4964.28 L 5.68712,-4964.65 L 6.14484,-4965.08
 L 6.54507,-4965.56 L 6.88153,-4966.09 L 7.14888,-4966.66 L 7.34291,-4967.26 L 7.46057,-4967.87 L 7.5,-4968.5
 L 7.5,-5123.5 L 7.46057,-5124.13 L 7.34291,-5124.74 L 7.14888,-5125.34 L 6.88153,-5125.91 L 6.54507,-5126.44
 L 6.14484,-5126.92 L 5.68712,-5127.35 L 5.17912,-5127.72 L 4.62889,-5128.02 L 4.04507,-5128.26 L 3.4369,-5128.41
 L 2.81395,-5128.49 L -2.81395,-5128.49 L -3.4369,-5128.41 L -4.04507,-5128.26 L -4.62889,-5128.02 L -5.17912,-5127.72
 L -5.68712,-5127.35 L -6.14484,-5126.92 L -6.54507,-5126.44 L -6.88153,-5125.91 L -7.14888,-5125.34 L -7.34291,-5124.74
 L -7.46057,-5124.13 L -7.5,-5123.5 L -7.5,-4968.5 L -7.46057,-4967.87 L -7.34291,-4967.26 L -7.14888,-4966.66
 L -6.88153,-4966.09 L -6.54507,-4965.56 L -6.14484,-4965.08 L -5.68712,-4964.65 L -5.17912,-4964.28 L -4.62889,-4963.98
 L -4.04507,-4963.74 L -3.4369,-4963.59 L -2.81395,-4963.51 L 2.81395,-4963.51 z
M -2.25116,-4965.01 L -2.74951,-4965.07 L -3.23605,-4965.2 L -3.70311,-4965.38 L -4.1433,-4965.62 L -4.54968,-4965.92
 L -4.91586,-4966.26 L -5.23605,-4966.65 L -5.50522,-4967.07 L -5.7191,-4967.53 L -5.87433,-4968.01 L -5.96844,-4968.5
 L -6,-4969 L -6,-5123 L -5.96844,-5123.5 L -5.87433,-5123.99 L -5.7191,-5124.47 L -5.50522,-5124.93
 L -5.23605,-5125.35 L -4.91586,-5125.74 L -4.54968,-5126.08 L -4.1433,-5126.38 L -3.70311,-5126.62 L -3.23605,-5126.8
 L -2.74951,-5126.93 L -2.25116,-5126.99 L 2.25116,-5126.99 L 2.74951,-5126.93 L 3.23605,-5126.8 L 3.70311,-5126.62
 L 4.1433,-5126.38 L 4.54968,-5126.08 L 4.91586,-5125.74 L 5.23605,-5125.35 L 5.50522,-5124.93 L 5.7191,-5124.47
 L 5.87433,-5123.99 L 5.96844,-5123.5 L 6,-5123 L 6,-4969 L 5.96844,-4968.5 L 5.87433,-4968.01
 L 5.7191,-4967.53 L 5.50522,-4967.07 L 5.23605,-4966.65 L 4.91586,-4966.26 L 4.54968,-4965.92 L 4.1433,-4965.62
 L 3.70311,-4965.38 L 3.23605,-4965.2 L 2.74951,-4965.07 L 2.25116,-4965.01 z
M 3.4369,-4789.59 L 4.04507,-4789.74 L 4.62889,-4789.98 L 5.17912,-4790.28 L 5.68712,-4790.65 L 6.14484,-4791.08
 L 6.54507,-4791.56 L 6.88153,-4792.09 L 7.14888,-4792.66 L 7.34291,-4793.26 L 7.46057,-4793.87 L 7.5,-4794.5
 L 7.5,-4949.5 L 7.46057,-4950.13 L 7.34291,-4950.74 L 7.14888,-4951.34 L 6.88153,-4951.91 L 6.54507,-4952.44
 L 6.14484,-4952.92 L 5.68712,-4953.35 L 5.17912,-4953.72 L 4.62889,-4954.02 L 4.04507,-4954.26 L 3.4369,-4954.41
 L 2.81395,-4954.49 L -2.81395,-4954.49 L -3.4369,-4954.41 L -4.04507,-4954.26 L -4.62889,-4954.02 L -5.17912,-4953.72
 L -5.68712,-4953.35 L -6.14484,-4952.92 L -6.54507,-4952.44 L -6.88153,-4951.91 L -7.14888,-4951.34 L -7.34291,-4950.74
 L -7.46057,-4950.13 L -7.5,-4949.5 L -7.5,-4794.5 L -7.46057,-4793.87 L -7.34291,-4793.26 L -7.14888,-4792.66
 L -6.88153,-4792.09 L -6.54507,-4791.56 L -6.14484,-4791.08 L -5.68712,-4790.65 L -5.17912,-4790.28 L -4.62889,-4789.98
 L -4.04507,-4789.74 L -3.4369,-4789.59 L -2.81395,-4789.51 L 2.81395,-4789.51 z
M -2.25116,-4791.01 L -2.74951,-4791.07 L -3.23605,-4791.2 L -3.70311,-4791.38 L -4.1433,-4791.62 L -4.54968,-4791.92
 L -4.91586,-4792.26 L -5.23605,-4792.65 L -5.50522,-4793.07 L -5.7191,-4793.53 L -5.87433,-4794.01 L -5.96844,-4794.5
 L -6,-4795 L -6,-4949 L -5.96844,-4949.5 L -5.87433,-4949.99 L -5.7191,-4950.47 L -5.50522,-4950.93
 L -5.23605,-4951.35 L -4.91586,-4951.74 L -4.54968,-4952.08 L -4.1433,-4952.38 L -3.70311,-4952.62 L -3.23605,-4952.8
 L -2.74951,-4952.93 L -2.25116,-4952.99 L 2.25116,-4952.99 L 2.74951,-4952.93 L 3.23605,-4952.8 L 3.70311,-4952.62
 L 4.1433,-4952.38 L 4.54968,-4952.08 L 4.91586,-4951.74 L 5.23605,-4951.35 L 5.50522,-4950.93 L 5.7191,-4950.47
 L 5.87433,-4949.99 L 5.96844,-4949.5 L 6,-4949 L 6,-4795 L 5.96844,-4794.5 L 5.87433,-4794.01
 L 5.7191,-4793.53 L 5.50522,-4793.07 L 5.23605,-4792.65 L 4.91586,-4792.26 L 4.54968,-4791.92 L 4.1433,-4791.62
 L 3.70311,-4791.38 L 3.23605,-4791.2 L 2.74951,-4791.07 L 2.25116,-4791.01 z
M 3.4369,-4615.59 L 4.04507,-4615.74 L 4.62889,-4615.98 L 5.17912,-4616.28 L 5.68712,-4616.65 L 6.14484,-4617.08
 L 6.54507,-4617.56 L 6.88153,-4618.09 L 7.14888,-4618.66 L 7.34291,-4619.26 L 7.46057,-4619.87 L 7.5,-4620.5
 L 7.5,-4775.5 L 7.46057,-4776.13 L 7.34291,-4776.74 L 7.14888,-4777.34 L 6.88153,-4777.91 L 6.54507,-4778.44
 L 6.14484,-4778.92 L 5.68712,-4779.35 L 5.17912,-4779.72 L 4.62889,-4780.02 L 4.04507,-4780.26 L 3.4369,-4780.41
 L 2.81395,-4780.49 L -2.81395,-4780.49 L -3.4369,-4780.41 L -4.04507,-4780.26 L -4.62889,-4780.02 L -5.17912,-4779.72
 L -5.68712,-4779.35 L -6.14484,-4778.92 L -6.54507,-4778.44 L -6.88153,-4777.91 L -7.14888,-4777.34 L -7.34291,-4776.74
 L -7.46057,-4776.13 L -7.5,-4775.5 L -7.5,-4620.5 L -7.46057,-4619.87 L -7.34291,-4619.26 L -7.14888,-4618.66
 L -6.88153,-4618.09 L -6.54507,-4617.56 L -6.14484,-4617.08 L -5.68712,-4616.65 L -5.17912,-4616.28 L -4.62889,-4615.98
 L -4.04507,-4615.74 L -3.4369,-4615.59 L -2.81395,-4615.51 L 2.81395,-4615.51 z
M -2.25116,-4617.01 L -2.74951,-4617.07 L -3.23605,-4617.2 L -3.70311,-4617.38 L -4.1433,-4617.62 L -4.54968,-4617.92
 L -4.91586,-4618.26 L -5.23605,-4618.65 L -5.50522,-4619.07 L -5.7191,-4619.53 L -5.87433,-4620.01 L -5.96844,-4620.5
 L -6,-4621 L -6,-4775 L -5.96844,-4775.5 L -5.87433,-4775.99 L -5.7191,-4776.47 L -5.50522,-4776.93
 L -5.23605,-4777.35 L -4.91586,-4777.74 L -4.54968,-4778.08 L -4.1433,-4778.38 L -3.70311,-4778.62 L -3.23605,-4778.8
 L -2.74951,-4778.93 L -2.25116,-4778.99 L 2.25116,-4778.99 L 2.74951,-4778.93 L 3.23605,-4778.8 L 3.70311,-4778.62
 L 4.1433,-4778.38 L 4.54968,-4778.08 L 4.91586,-4777.74 L 5.23605,-4777.35 L 5.50522,-4776.93 L 5.7191,-4776.47
 L 5.87433,-4775.99 L 5.96844,-4775.5 L 6,-4775 L 6,-4621 L 5.96844,-4620.5 L 5.87433,-4620.01
 L 5.7191,-4619.53 L 5.50522,-4619.07 L 5.23605,-4618.65 L 4.91586,-4618.26 L 4.54968,-4617.92 L 4.1433,-4617.62
 L 3.70311,-4617.38 L 3.23605,-4617.2 L 2.74951,-4617.07 L 2.25116,-4617.01 z
M 3.4369,-4441.59 L 4.04507,-4441.74 L 4.62889,-4441.98 L 5.17912,-4442.28 L 5.68712,-4442.65 L 6.14484,-4443.08
 L 6.54507,-4443.56 L 6.88153,-4444.09 L 7.14888,-4444.66 L 7.34291,-4445.26 L 7.46057,-4445.87 L 7.5,-4446.5
 L 7.5,-4601.5 L 7.46057,-4602.13 L 7.34291,-4602.74 L 7.14888,-4603.34 L 6.88153,-4603.91 L 6.54507,-4604.44
 L 6.14484,-4604.92 L 5.68712,-4605.35 L 5.17912,-4605.72 L 4.62889,-4606.02 L 4.04507,-4606.26 L 3.4369,-4606.41
 L 2.81395,-4606.49 L -2.81395,-4606.49 L -3.4369,-4606.41 L -4.04507,-4606.26 L -4.62889,-4606.02 L -5.17912,-4605.72
 L -5.68712,-4605.35 L -6.14484,-4604.92 L -6.54507,-4604.44 L -6.88153,-4603.91 L -7.14888,-4603.34 L -7.34291,-4602.74
 L -7.46057,-4602.13 L -7.5,-4601.5 L -7.5,-4446.5 L -7.46057,-4445.87 L -7.34291,-4445.26 L -7.14888,-4444.66
 L -6.88153,-4444.09 L -6.54507,-4443.56 L -6.14484,-4443.08 L -5.68712,-4442.65 L -5.17912,-4442.28 L -4.62889,-4441.98
 L -4.04507,-4441.74 L -3.4369,-4441.59 L -2.81395,-4441.51 L 2.81395,-4441.51 z
M -2.25116,-4443.01 L -2.74951,-4443.07 L -3.23605,-4443.2 L -3.70311,-4443.38 L -4.1433,-4443.62 L -4.54968,-4443.92
 L -4.91586,-4444.26 L -5.23605,-4444.65 L -5.50522,-4445.07 L -5.7191,-4445.53 L -5.87433,-4446.01 L -5.96844,-4446.5
 L -6,-4447 L -6,-4601 L -5.96844,-4601.5 L -5.87433,-4601.99 L -5.7191,-4602.47 L -5.50522,-4602.93
 L -5.23605,-4603.35 L -4.91586,-4603.74 L -4.54968,-4604.08 L -4.1433,-4604.38 L -3.70311,-4604.62 L -3.23605,-4604.8
 L -2.74951,-4604.93 L -2.25116,-4604.99 L 2.25116,-4604.99 L 2.74951,-4604.93 L 3.23605,-4604.8 L 3.70311,-4604.62
 L 4.1433,-4604.38 L 4.54968,-4604.08 L 4.91586,-4603.74 L 5.23605,-4603.35 L 5.50522,-4602.93 L 5.7191,-4602.47
 L 5.87433,-4601.99 L 5.96844,-4601.5 L 6,-4601 L 6,-4447 L 5.96844,-4446.5 L 5.87433,-4446.01
 L 5.7191,-4445.53 L 5.50522,-4445.07 L 5.23605,-4444.65 L 4.91586,-4444.26 L 4.54968,-4443.92 L 4.1433,-4443.62
 L 3.70311,-4443.38 L 3.23605,-4443.2 L 2.74951,-4443.07 L 2.25116,-4443.01 z
M 3.4369,-4267.59 L 4.04507,-4267.74 L 4.62889,-4267.98 L 5.17912,-4268.28 L 5.68712,-4268.65 L 6.14484,-4269.08
 L 6.54507,-4269.56 L 6.88153,-4270.09 L 7.14888,-4270.66 L 7.34291,-4271.26 L 7.46057,-4271.87 L 7.5,-4272.5
 L 7.5,-4427.5 L 7.46057,-4428.13 L 7.34291,-4428.74 L 7.14888,-4429.34 L 6.88153,-4429.91 L 6.54507,-4430.44
 L 6.14484,-4430.92 L 5.68712,-4431.35 L 5.17912,-4431.72 L 4.62889,-4432.02 L 4.04507,-4432.26 L 3.4369,-4432.41
 L 2.81395,-4432.49 L -2.81395,-4432.49 L -3.4369,-4432.41 L -4.04507,-4432.26 L -4.62889,-4432.02 L -5.17912,-4431.72
 L -5.68712,-4431.35 L -6.14484,-4430.92 L -6.54507,-4430.44 L -6.88153,-4429.91 L -7.14888,-4429.34 L -7.34291,-4428.74
 L -7.46057,-4428.13 L -7.5,-4427.5 L -7.5,-4272.5 L -7.46057,-4271.87 L -7.34291,-4271.26 L -7.14888,-4270.66
 L -6.88153,-4270.09 L -6.54507,-4269.56 L -6.14484,-4269.08 L -5.68712,-4268.65 L -5.17912,-4268.28 L -4.62889,-4267.98
 L -4.04507,-4267.74 L -3.4369,-4267.59 L -2.81395,-4267.51 L 2.81395,-4267.51 z
M -2.25116,-4269.01 L -2.74951,-4269.07 L -3.23605,-4269.2 L -3.70311,-4269.38 L -4.1433,-4269.62 L -4.54968,-4269.92
 L -4.91586,-4270.26 L -5.23605,-4270.65 L -5.50522,-4271.07 L -5.7191,-4271.53 L -5.87433,-4272.01 L -5.96844,-4272.5
 L -6,-4273 L -6,-4427 L -5.96844,-4427.5 L -5.87433,-4427.99 L -5.7191,-4428.47 L -5.50522,-4428.93
 L -5.23605,-4429.35 L -4.91586,-4429.74 L -4.54968,-4430.08 L -4.1433,-4430.38 L -3.70311,-4430.62 L -3.23605,-4430.8
 L -2.74951,-4430.93 L -2.25116,-4430.99 L 2.25116,-4430.99 L 2.74951,-4430.93 L 3.23605,-4430.8 L 3.70311,-4430.62
 L 4.1433,-4430.38 L 4.54968,-4430.08 L 4.91586,-4429.74 L 5.23605,-4429.35 L 5.50522,-4428.93 L 5.7191,-4428.47
 L 5.87433,-4427.99 L 5.96844,-4427.5 L 6,-4427 L 6,-4273 L 5.96844,-4272.5 L 5.87433,-4272.01
 L 5.7191,-4271.53 L 5.50522,-4271.07 L 5.23605,-4270.65 L 4.91586,-4270.26 L 4.54968,-4269.92 L 4.1433,-4269.62
 L 3.70311,-4269.38 L 3.23605,-4269.2 L 2.74951,-4269.07 L 2.25116,-4269.01 z
M 3.4369,-4093.59 L 4.04507,-4093.74 L 4.62889,-4093.98 L 5.17912,-4094.28 L 5.68712,-4094.65 L 6.14484,-4095.08
 L 6.54507,-4095.56 L 6.88153,-4096.09 L 7.14888,-4096.66 L 7.34291,-4097.26 L 7.46057,-4097.87 L 7.5,-4098.5
 L 7.5,-4253.5 L 7.46057,-4254.13 L 7.34291,-4254.74 L 7.14888,-4255.34 L 6.88153,-4255.91 L 6.54507,-4256.44
 L 6.14484,-4256.92 L 5.68712,-4257.35 L 5.17912,-4257.72 L 4.62889,-4258.02 L 4.04507,-4258.26 L 3.4369,-4258.41
 L 2.81395,-4258.49 L -2.81395,-4258.49 L -3.4369,-4258.41 L -4.04507,-4258.26 L -4.62889,-4258.02 L -5.17912,-4257.72
 L -5.68712,-4257.35 L -6.14484,-4256.92 L -6.54507,-4256.44 L -6.88153,-4255.91 L -7.14888,-4255.34 L -7.34291,-4254.74
 L -7.46057,-4254.13 L -7.5,-4253.5 L -7.5,-4098.5 L -7.46057,-4097.87 L -7.34291,-4097.26 L -7.14888,-4096.66
 L -6.88153,-4096.09 L -6.54507,-4095.56 L -6.14484,-4095.08 L -5.68712,-4094.65 L -5.17912,-4094.28 L -4.62889,-4093.98
 L -4.04507,-4093.74 L -3.4369,-4093.59 L -2.81395,-4093.51 L 2.81395,-4093.51 z
M -2.25116,-4095.01 L -2.74951,-4095.07 L -3.23605,-4095.2 L -3.70311,-4095.38 L -4.1433,-4095.62 L -4.54968,-4095.92
 L -4.91586,-4096.26 L -5.23605,-4096.65 L -5.50522,-4097.07 L -5.7191,-4097.53 L -5.87433,-4098.01 L -5.96844,-4098.5
 L -6,-4099 L -6,-4253 L -5.96844,-4253.5 L -5.87433,-4253.99 L -5.7191,-4254.47 L -5.50522,-4254.93
 L -5.23605,-4255.35 L -4.91586,-4255.74 L -4.54968,-4256.08 L -4.1433,-4256.38 L -3.70311,-4256.62 L -3.23605,-4256.8
 L -2.74951,-4256.93 L -2.25116,-4256.99 L 2.25116,-4256.99 L 2.74951,-4256.93 L 3.23605,-4256.8 L 3.70311,-4256.62
 L 4.1433,-4256.38 L 4.54968,-4256.08 L 4.91586,-4255.74 L 5.23605,-4255.35 L 5.50522,-4254.93 L 5.7191,-4254.47
 L 5.87433,-4253.99 L 5.96844,-4253.5 L 6,-4253 L 6,-4099 L 5.96844,-4098.5 L 5.87433,-4098.01
 L 5.7191,-4097.53 L 5.50522,-4097.07 L 5.23605,-4096.65 L 4.91586,-4096.26 L 4.54968,-4095.92 L 4.1433,-4095.62
 L 3.70311,-4095.38 L 3.23605,-4095.2 L 2.74951,-4095.07 L 2.25116,-4095.01 z
M 3.4369,-3919.59 L 4.04507,-3919.74 L 4.62889,-3919.98 L 5.17912,-3920.28 L 5.68712,-3920.65 L 6.14484,-3921.08
 L 6.54507,-3921.56 L 6.88153,-3922.09 L 7.14888,-3922.66 L 7.34291,-3923.26 L 7.46057,-3923.87 L 7.5,-3924.5
 L 7.5,-4079.5 L 7.46057,-4080.13 L 7.34291,-4080.74 L 7.14888,-4081.34 L 6.88153,-4081.91 L 6.54507,-4082.44
 L 6.14484,-4082.92 L 5.68712,-4083.35 L 5.17912,-4083.72 L 4.62889,-4084.02 L 4.04507,-4084.26 L 3.4369,-4084.41
 L 2.81395,-4084.49 L -2.81395,-4084.49 L -3.4369,-4084.41 L -4.04507,-4084.26 L -4.62889,-4084.02 L -5.17912,-4083.72
 L -5.68712,-4083.35 L -6.14484,-4082.92 L -6.54507,-4082.44 L -6.88153,-4081.91 L -7.14888,-4081.34 L -7.34291,-4080.74
 L -7.46057,-4080.13 L -7.5,-4079.5 L -7.5,-3924.5 L -7.46057,-3923.87 L -7.34291,-3923.26 L -7.14888,-3922.66
 L -6.88153,-3922.09 L -6.54507,-3921.56 L -6.14484,-3921.08 L -5.68712,-3920.65 L -5.17912,-3920.28 L -4.62889,-3919.98
 L -4.04507,-3919.74 L -3.4369,-3919.59 L -2.81395,-3919.51 L 2.81395,-3919.51 z
M -2.25116,-3921.01 L -2.74951,-3921.07 L -3.23605,-3921.2 L -3.70311,-3921.38 L -4.1433,-3921.62 L -4.54968,-3921.92
 L -4.91586,-3922.26 L -5.23605,-3922.65 L -5.50522,-3923.07 L -5.7191,-3923.53 L -5.87433,-3924.01 L -5.96844,-3924.5
 L -6,-3925 L -6,-4079 L -5.96844,-4079.5 L -5.87433,-4079.99 L -5.7191,-4080.47 L -5.50522,-4080.93
 L -5.23605,-4081.35 L -4.91586,-4081.74 L -4.54968,-4082.08 L -4.1433,-4082.38 L -3.70311,-4082.62 L -3.23605,-4082.8
 L -2.74951,-4082.93 L -2.25116,-4082.99 L 2.25116,-4082.99 L 2.74951,-4082.93 L 3.23605,-4082.8 L 3.70311,-4082.62
 L 4.1433,-4082.38 L 4.54968,-4082.08 L 4.91586,-4081.74 L 5.23605,-4081.35 L 5.50522,-4080.93 L 5.7191,-4080.47
 L 5.87433,-4079.99 L 5.96844,-4079.5 L 6,-4079 L 6,-3925 L 5.96844,-3924.5 L 5.87433,-3924.01
 L 5.7191,-3923.53 L 5.50522,-3923.07 L 5.23605,-3922.65 L 4.91586,-3922.26 L 4.54968,-3921.92 L 4.1433,-3921.62
 L 3.70311,-3921.38 L 3.23605,-3921.2 L 2.74951,-3921.07 L 2.25116,-3921.01 z
M 3.4369,-3745.59 L 4.04507,-3745.74 L 4.62889,-3745.98 L 5.17912,-3746.28 L 5.68712,-3746.65 L 6.14484,-3747.08
 L 6.54507,-3747.56 L 6.88153,-3748.09 L 7.14888,-3748.66 L 7.34291,-3749.26 L 7.46057,-3749.87 L 7.5,-3750.5
 L 7.5,-3905.5 L 7.46057,-3906.13 L 7.34291,-3906.74 L 7.14888,-3907.34 L 6.88153,-3907.91 L 6.54507,-3908.44
 L 6.14484,-3908.92 L 5.68712,-3909.35 L 5.17912,-3909.72 L 4.62889,-3910.02 L 4.04507,-3910.26 L 3.4369,-3910.41
 L 2.81395,-3910.49 L -2.81395,-3910.49 L -3.4369,-3910.41 L -4.04507,-3910.26 L -4.62889,-3910.02 L -5.17912,-3909.72
 L -5.68712,-3909.35 L -6.14484,-3908.92 L -6.54507,-3908.44 L -6.88153,-3907.91 L -7.14888,-3907.34 L -7.34291,-3906.74
 L -7.46057,-3906.13 L -7.5,-3905.5 L -7.5,-3750.5 L -7.46057,-3749.87 L -7.34291,-3749.26 L -7.14888,-3748.66
 L -6.88153,-3748.09 L -6.54507,-3747.56 L -6.14484,-3747.08 L -5.68712,-3746.65 L -5.17912,-3746.28 L -4.62889,-3745.98
 L -4.04507,-3745.74 L -3.4369,-3745.59 L -2.81395,-3745.51 L 2.81395,-3745.51 z
M -2.25116,-3747.01 L -2.74951,-3747.07 L -3.23605,-3747.2 L -3.70311,-3747.38 L -4.1433,-3747.62 L -4.54968,-3747.92
 L -4.91586,-3748.26 L -5.23605,-3748.65 L -5.50522,-3749.07 L -5.7191,-3749.53 L -5.87433,-3750.01 L -5.96844,-3750.5
 L -6,-3751 L -6,-3905 L -5.96844,-3905.5 L -5.87433,-3905.99 L -5.7191,-3906.47 L -5.50522,-3906.93
 L -5.23605,-3907.35 L -4.91586,-3907.74 L -4.54968,-3908.08 L -4.1433,-3908.38 L -3.70311,-3908.62 L -3.23605,-3908.8
 L -2.74951,-3908.93 L -2.25116,-3908.99 L 2.25116,-3908.99 L 2.74951,-3908.93 L 3.23605,-3908.8 L 3.70311,-3908.62
 L 4.1433,-3908.38 L 4.54968,-3908.08 L 4.91586,-3907.74 L 5.23605,-3907.35 L 5.50522,-3906.93 L 5.7191,-3906.47
 L 5.87433,-3905.99 L 5.96844,-3905.5 L 6,-3905 L 6,-3751 L 5.96844,-3750.5 L 5.87433,-3750.01
 L 5.7191,-3749.53 L 5.50522,-3749.07 L 5.23605,-3748.65 L 4.91586,-3748.26 L 4.54968,-3747.92 L 4.1433,-3747.62
 L 3.70311,-3747.38 L 3.23605,-3747.2 L 2.74951,-3747.07 L 2.25116,-3747.01 z
M 3.4369,-3571.59 L 4.04507,-3571.74 L 4.62889,-3571.98 L 5.17912,-3572.28 L 5.68712,-3572.65 L 6.14484,-3573.08
 L 6.54507,-3573.56 L 6.88153,-3574.09 L 7.14888,-3574.66 L 7.34291,-3575.26 L 7.46057,-3575.87 L 7.5,-3576.5
 L 7.5,-3731.5 L 7.46057,-3732.13 L 7.34291,-3732.74 L 7.14888,-3733.34 L 6.88153,-3733.91 L 6.54507,-3734.44
 L 6.14484,-3734.92 L 5.68712,-3735.35 L 5.17912,-3735.72 L 4.62889,-3736.02 L 4.04507,-3736.26 L 3.4369,-3736.41
 L 2.81395,-3736.49 L -2.81395,-3736.49 L -3.4369,-3736.41 L -4.04507,-3736.26 L -4.62889,-3736.02 L -5.17912,-3735.72
 L -5.68712,-3735.35 L -6.14484,-3734.92 L -6.54507,-3734.44 L -6.88153,-3733.91 L -7.14888,-3733.34 L -7.34291,-3732.74
 L -7.46057,-3732.13 L -7.5,-3731.5 L -7.5,-3576.5 L -7.46057,-3575.87 L -7.34291,-3575.26 L -7.14888,-3574.66
 L -6.88153,-3574.09 L -6.54507,-3573.56 L -6.14484,-3573.08 L -5.68712,-3572.65 L -5.17912,-3572.28 L -4.62889,-3571.98
 L -4.04507,-3571.74 L -3.4369,-3571.59 L -2.81395,-3571.51 L 2.81395,-3571.51 z
M -2.25116,-3573.01 L -2.74951,-3573.07 L -3.23605,-3573.2 L -3.70311,-3573.38 L -4.1433,-3573.62 L -4.54968,-3573.92
 L -4.91586,-3574.26 L -5.23605,-3574.65 L -5.50522,-3575.07 L -5.7191,-3575.53 L -5.87433,-3576.01 L -5.96844,-3576.5
 L -6,-3577 L -6,-3731 L -5.96844,-3731.5 L -5.87433,-3731.99 L -5.7191,-3732.47 L -5.50522,-3732.93
 L -5.23605,-3733.35 L -4.91586,-3733.74 L -4.54968,-3734.08 L -4.1433,-3734.38 L -3.70311,-3734.62 L -3.23605,-3734.8
 L -2.74951,-3734.93 L -2.25116,-3734.99 L 2.25116,-3734.99 L 2.74951,-3734.93 L 3.23605,-3734.8 L 3.70311,-3734.62
 L 4.1433,-3734.38 L 4.54968,-3734.08 L 4.91586,-3733.74 L 5.23605,-3733.35 L 5.50522,-3732.93 L 5.7191,-3732.47
 L 5.87433,-3731.99 L 5.96844,-3731.5 L 6,-3731 L 6,-3577 L 5.96844,-3576.5 L 5.87433,-3576.01
 L 5.7191,-3575.53 L 5.50522,-3575.07 L 5.23605,-3574.65 L 4.91586,-3574.26 L 4.54968,-3573.92 L 4.1433,-3573.62
 L 3.70311,-3573.38 L 3.23605,-3573.2 L 2.74951,-3573.07 L 2.25116,-3573.01 z
M 3.4369,-3397.59 L 4.04507,-3397.74 L 4.62889,-3397.98 L 5.17912,-3398.28 L 5.68712,-3398.65 L 6.14484,-3399.08
 L 6.54507,-3399.56 L 6.88153,-3400.09 L 7.14888,-3400.66 L 7.34291,-3401.26 L 7.46057,-3401.87 L 7.5,-3402.5
 L 7.5,-3557.5 L 7.46057,-3558.13 L 7.34291,-3558.74 L 7.14888,-3559.34 L 6.88153,-3559.91 L 6.54507,-3560.44
 L 6.14484,-3560.92 L 5.68712,-3561.35 L 5.17912,-3561.72 L 4.62889,-3562.02 L 4.04507,-3562.26 L 3.4369,-3562.41
 L 2.81395,-3562.49 L -2.81395,-3562.49 L -3.4369,-3562.41 L -4.04507,-3562.26 L -4.62889,-3562.02 L -5.17912,-3561.72
 L -5.68712,-3561.35 L -6.14484,-3560.92 L -6.54507,-3560.44 L -6.88153,-3559.91 L -7.14888,-3559.34 L -7.34291,-3558.74
 L -7.46057,-3558.13 L -7.5,-3557.5 L -7.5,-3402.5 L -7.46057,-3401.87 L -7.34291,-3401.26 L -7.14888,-3400.66
 L -6.88153,-3400.09 L -6.54507,-3399.56 L -6.14484,-3399.08 L -5.68712,-3398.65 L -5.17912,-3398.28 L -4.62889,-3397.98
 L -4.04507,-3397.74 L -3.4369,-3397.59 L -2.81395,-3397.51 L 2.81395,-3397.51 z
M -2.25116,-3399.01 L -2.74951,-3399.07 L -3.23605,-3399.2 L -3.70311,-3399.38 L -4.1433,-3399.62 L -4.54968,-3399.92
 L -4.91586,-3400.26 L -5.23605,-3400.65 L -5.50522,-3401.07 L -5.7191,-3401.53 L -5.87433,-3402.01 L -5.96844,-3402.5
 L -6,-3403 L -6,-3557 L -5.96844,-3557.5 L -5.87433,-3557.99 L -5.7191,-3558.47 L -5.50522,-3558.93
 L -5.23605,-3559.35 L -4.91586,-3559.74 L -4.54968,-3560.08 L -4.1433,-3560.38 L -3.70311,-3560.62 L -3.23605,-3560.8
 L -2.74951,-3560.93 L -2.25116,-3560.99 L 2.25116,-3560.99 L 2.74951,-3560.93 L 3.23605,-3560.8 L 3.70311,-3560.62
 L 4.1433,-3560.38 L 4.54968,-3560.08 L 4.91586,-3559.74 L 5.23605,-3559.35 L 5.50522,-3558.93 L 5.7191,-3558.47
 L 5.87433,-3557.99 L 5.96844,-3557.5 L 6,-3557 L 6,-3403 L 5.96844,-3402.5 L 5.87433,-3402.01
 L 5.7191,-3401.53 L 5.50522,-3401.07 L 5.23605,-3400.65 L 4.91586,-3400.26 L 4.54968,-3399.92 L 4.1433,-3399.62
 L 3.70311,-3399.38 L 3.23605,-3399.2 L 2.74951,-3399.07 L 2.25116,-3399.01 z
M 3.4369,-3223.59 L 4.04507,-3223.74 L 4.62889,-3223.98 L 5.17912,-3224.28 L 5.68712,-3224.65 L 6.14484,-3225.08
 L 6.54507,-3225.56 L 6.88153,-3226.09 L 7.14888,-3226.66 L 7.34291,-3227.26 L 7.46057,-3227.87 L 7.5,-3228.5
 L 7.5,-3383.5 L 7.46057,-3384.13 L 7.34291,-3384.74 L 7.14888,-3385.34 L 6.88153,-3385.91 L 6.54507,-3386.44
 L 6.14484,-3386.92 L 5.68712,-3387.35 L 5.17912,-3387.72 L 4.62889,-3388.02 L 4.04507,-3388.26 L 3.4369,-3388.41
 L 2.81395,-3388.49 L -2.81395,-3388.49 L -3.4369,-3388.41 L -4.04507,-3388.26 L -4.62889,-3388.02 L -5.17912,-3387.72
 L -5.68712,-3387.35 L -6.14484,-3386.92 L -6.54507,-3386.44 L -6.88153,-3385.91 L -7.14888,-3385.34 L -7.34291,-3384.74
 L -7.46057,-3384.13 L -7.5,-3383.5 L -7.5,-3228.5 L -7.46057,-3227.87 L -7.34291,-3227.26 L -7.14888,-3226.66
 L -6.88153,-3226.09 L -6.54507,-3225.56 L -6.14484,-3225.08 L -5.68712,-3224.65 L -5.17912,-3224.28 L -4.62889,-3223.98
 L -4.04507,-3223.74 L -3.4369,-3223.59 L -2.81395,-3223.51 L 2.81395,-3223.51 z
M -2.25116,-3225.01 L -2.74951,-3225.07 L -3.23605,-3225.2 L -3.70311,-3225.38 L -4.1433,-3225.62 L -4.54968,-3225.92
 L -4.91586,-3226.26 L -5.23605,-3226.65 L -5.50522,-3227.07 L -5.7191,-3227.53 L -5.87433,-3228.01 L -5.96844,-3228.5
 L -6,-3229 L -6,-3383 L -5.96844,-3383.5 L -5.87433,-3383.99 L -5.7191,-3384.47 L -5.50522,-3384.93
 L -5.23605,-3385.35 L -4.91586,-3385.74 L -4.54968,-3386.08 L -4.1433,-3386.38 L -3.70311,-3386.62 L -3.23605,-3386.8
 L -2.74951,-3386.93 L -2.25116,-3386.99 L 2.25116,-3386.99 L 2.74951,-3386.93 L 3.23605,-3386.8 L 3.70311,-3386.62
 L 4.1433,-3386.38 L 4.54968,-3386.08 L 4.91586,-3385.74 L 5.23605,-3385.35 L 5.50522,-3384.93 L 5.7191,-3384.47
 L 5.87433,-3383.99 L 5.96844,-3383.5 L 6,-3383 L 6,-3229 L 5.96844,-3228.5 L 5.87433,-3228.01
 L 5.7191,-3227.53 L 5.50522,-3227.07 L 5.23605,-3226.65 L 4.91586,-3226.26 L 4.54968,-3225.92 L 4.1433,-3225.62
 L 3.70311,-3225.38 L 3.23605,-3225.2 L 2.74951,-3225.07 L 2.25116,-3225.01 z
M 3.4369,-3049.59 L 4.04507,-3049.74 L 4.62889,-3049.98 L 5.17912,-3050.28 L 5.68712,-3050.65 L 6.14484,-3051.08
 L 6.54507,-3051.56 L 6.88153,-3052.09 L 7.14888,-3052.66 L 7.34291,-3053.26 L 7.46057,-3053.87 L 7.5,-3054.5
 L 7.5,-3209.5 L 7.46057,-3210.13 L 7.34291,-3210.74 L 7.14888,-3211.34 L 6.88153,-3211.91 L 6.54507,-3212.44
 L 6.14484,-3212.92 L 5.68712,-3213.35 L 5.17912,-3213.72 L 4.62889,-3214.02 L 4.04507,-3214.26 L 3.4369,-3214.41
 L 2.81395,-3214.49 L -2.81395,-3214.49 L -3.4369,-3214.41 L -4.04507,-3214.26 L -4.62889,-3214.02 L -5.17912,-3213.72
 L -5.68712,-3213.35 L -6.14484,-3212.92 L -6.54507,-3212.44 L -6.88153,-3211.91 L -7.14888,-3211.34 L -7.34291,-3210.74
 L -7.46057,-3210.13 L -7.5,-3209.5 L -7.5,-3054.5 L -7.46057,-3053.87 L -7.34291,-3053.26 L -7.14888,-3052.66
 L -6.88153,-3052.09 L -6.54507,-3051.56 L -6.14484,-3051.08 L -5.68712,-3050.65 L -5.17912,-3050.28 L -4.62889,-3049.98
 L -4.04507,-3049.74 L -3.4369,-3049.59 L -2.81395,-3049.51 L 2.81395,-3049.51 z
M -2.25116,-3051.01 L -2.74951,-3051.07 L -3.23605,-3051.2 L -3.70311,-3051.38 L -4.1433,-3051.62 L -4.54968,-3051.92
 L -4.91586,-3052.26 L -5.23605,-3052.65 L -5.50522,-3053.07 L -5.7191,-3053.53 L -5.87433,-3054.01 L -5.96844,-3054.5
 L -6,-3055 L -6,-3209 L -5.96844,-3209.5 L -5.87433,-3209.99 L -5.7191,-3210.47 L -5.50522,-3210.93
 L -5.23605,-3211.35 L -4.91586,-3211.74 L -4.54968,-3212.08 L -4.1433,-3212.38 L -3.70311,-3212.62 L -3.23605,-3212.8
 L -2.74951,-3212.93 L -2.25116,-3212.99 L 2.25116,-3212.99 L 2.74951,-3212.93 L 3.23605,-3212.8 L 3.70311,-3212.62
 L 4.1433,-3212.38 L 4.54968,-3212.08 L 4.91586,-3211.74 L 5.23605,-3211.35 L 5.50522,-3210.93 L 5.7191,-3210.47
 L 5.87433,-3209.99 L 5.96844,-3209.5 L 6,-3209 L 6,-3055 L 5.96844,-3054.5 L 5.87433,-3054.01
 L 5.7191,-3053.53 L 5.50522,-3053.07 L 5.23605,-3052.65 L 4.91586,-3052.26 L 4.54968,-3051.92 L 4.1433,-3051.62
 L 3.70311,-3051.38 L 3.23605,-3051.2 L 2.74951,-3051.07 L 2.25116,-3051.01 z
M 3.4369,-2875.59 L 4.04507,-2875.74 L 4.62889,-2875.98 L 5.17912,-2876.28 L 5.68712,-2876.65 L 6.14484,-2877.08
 L 6.54507,-2877.56 L 6.88153,-2878.09 L 7.14888,-2878.66 L 7.34291,-2879.26 L 7.46057,-2879.87 L 7.5,-2880.5
 L 7.5,-3035.5 L 7.46057,-3036.13 L 7.34291,-3036.74 L 7.14888,-3037.34 L 6.88153,-3037.91 L 6.54507,-3038.44
 L 6.14484,-3038.92 L 5.68712,-3039.35 L 5.17912,-3039.72 L 4.62889,-3040.02 L 4.04507,-3040.26 L 3.4369,-3040.41
 L 2.81395,-3040.49 L -2.81395,-3040.49 L -3.4369,-3040.41 L -4.04507,-3040.26 L -4.62889,-3040.02 L -5.17912,-3039.72
 L -5.68712,-3039.35 L -6.14484,-3038.92 L -6.54507,-3038.44 L -6.88153,-3037.91 L -7.14888,-3037.34 L -7.34291,-3036.74
 L -7.46057,-3036.13 L -7.5,-3035.5 L -7.5,-2880.5 L -7.46057,-2879.87 L -7.34291,-2879.26 L -7.14888,-2878.66
 L -6.88153,-2878.09 L -6.54507,-2877.56 L -6.14484,-2877.08 L -5.68712,-2876.65 L -5.17912,-2876.28 L -4.62889,-2875.98
 L -4.04507,-2875.74 L -3.4369,-2875.59 L -2.81395,-2875.51 L 2.81395,-2875.51 z
M -2.25116,-2877.01 L -2.74951,-2877.07 L -3.23605,-2877.2 L -3.70311,-2877.38 L -4.1433,-2877.62 L -4.54968,-2877.92
 L -4.91586,-2878.26 L -5.23605,-2878.65 L -5.50522,-2879.07 L -5.7191,-2879.53 L -5.87433,-2880.01 L -5.96844,-2880.5
 L -6,-2881 L -6,-3035 L -5.96844,-3035.5 L -5.87433,-3035.99 L -5.7191,-3036.47 L -5.50522,-3036.93
 L -5.23605,-3037.35 L -4.91586,-3037.74 L -4.54968,-3038.08 L -4.1433,-3038.38 L -3.70311,-3038.62 L -3.23605,-3038.8
 L -2.74951,-3038.93 L -2.25116,-3038.99 L 2.25116,-3038.99 L 2.74951,-3038.93 L 3.23605,-3038.8 L 3.70311,-3038.62
 L 4.1433,-3038.38 L 4.54968,-3038.08 L 4.91586,-3037.74 L 5.23605,-3037.35 L 5.50522,-3036.93 L 5.7191,-3036.47
 L 5.87433,-3035.99 L 5.96844,-3035.5 L 6,-3035 L 6,-2881 L 5.96844,-2880.5 L 5.87433,-2880.01
 L 5.7191,-2879.53 L 5.50522,-2879.07 L 5.23605,-2878.65 L 4.91586,-2878.26 L 4.54968,-2877.92 L 4.1433,-2877.62
 L 3.70311,-2877.38 L 3.23605,-2877.2 L 2.74951,-2877.07 L 2.25116,-2877.01 z
M 3.4369,-2701.59 L 4.04507,-2701.74 L 4.62889,-2701.98 L 5.17912,-2702.28 L 5.68712,-2702.65 L 6.14484,-2703.08
 L 6.54507,-2703.56 L 6.88153,-2704.09 L 7.14888,-2704.66 L 7.34291,-2705.26 L 7.46057,-2705.87 L 7.5,-2706.5
 L 7.5,-2861.5 L 7.46057,-2862.13 L 7.34291,-2862.74 L 7.14888,-2863.34 L 6.88153,-2863.91 L 6.54507,-2864.44
 L 6.14484,-2864.92 L 5.68712,-2865.35 L 5.17912,-2865.72 L 4.62889,-2866.02 L 4.04507,-2866.26 L 3.4369,-2866.41
 L 2.81395,-2866.49 L -2.81395,-2866.49 L -3.4369,-2866.41 L -4.04507,-2866.26 L -4.62889,-2866.02 L -5.17912,-2865.72
 L -5.68712,-2865.35 L -6.14484,-2864.92 L -6.54507,-2864.44 L -6.88153,-2863.91 L -7.14888,-2863.34 L -7.34291,-2862.74
 L -7.46057,-2862.13 L -7.5,-2861.5 L -7.5,-2706.5 L -7.46057,-2705.87 L -7.34291,-2705.26 L -7.14888,-2704.66
 L -6.88153,-2704.09 L -6.54507,-2703.56 L -6.14484,-2703.08 L -5.68712,-2702.65 L -5.17912,-2702.28 L -4.62889,-2701.98
 L -4.04507,-2701.74 L -3.4369,-2701.59 L -2.81395,-2701.51 L 2.81395,-2701.51 z
M -2.19545,-2703.89 L -2.5833,-2703.94 L -2.96194,-2704.04 L -3.32541,-2704.18 L -3.66798,-2704.37 L -3.98424,-2704.6
 L -4.26921,-2704.87 L -4.5184,-2705.17 L -4.72786,-2705.5 L -4.89432,-2705.85 L -5.01512,-2706.23 L -5.08836,-2706.61
 L -5.11292,-2707 L -5.11292,-2861 L -5.08836,-2861.39 L -5.01512,-2861.77 L -4.89432,-2862.15 L -4.72786,-2862.5
 L -4.5184,-2862.83 L -4.26921,-2863.13 L -3.98424,-2863.4 L -3.66798,-2863.63 L -3.32541,-2863.82 L -2.96194,-2863.96
 L -2.5833,-2864.06 L -2.19545,-2864.11 L 2.19545,-2864.11 L 2.5833,-2864.06 L 2.96194,-2863.96 L 3.32541,-2863.82
 L 3.66798,-2863.63 L 3.98424,-2863.4 L 4.26921,-2863.13 L 4.5184,-2862.83 L 4.72786,-2862.5 L 4.89432,-2862.15
 L 5.01512,-2861.77 L 5.08836,-2861.39 L 5.11292,-2861 L 5.11292,-2707 L 5.08836,-2706.61 L 5.01512,-2706.23
 L 4.89432,-2705.85 L 4.72786,-2705.5 L 4.5184,-2705.17 L 4.26921,-2704.87 L 3.98424,-2704.6 L 3.66798,-2704.37
 L 3.32541,-2704.18 L 2.96194,-2704.04 L 2.5833,-2703.94 L 2.19545,-2703.89 z
M 3.4369,-2527.59 L 4.04507,-2527.74 L 4.62889,-2527.98 L 5.17912,-2528.28 L 5.68712,-2528.65 L 6.14484,-2529.08
 L 6.54507,-2529.56 L 6.88153,-2530.09 L 7.14888,-2530.66 L 7.34291,-2531.26 L 7.46057,-2531.87 L 7.5,-2532.5
 L 7.5,-2687.5 L 7.46057,-2688.13 L 7.34291,-2688.74 L 7.14888,-2689.34 L 6.88153,-2689.91 L 6.54507,-2690.44
 L 6.14484,-2690.92 L 5.68712,-2691.35 L 5.17912,-2691.72 L 4.62889,-2692.02 L 4.04507,-2692.26 L 3.4369,-2692.41
 L 2.81395,-2692.49 L -2.81395,-2692.49 L -3.4369,-2692.41 L -4.04507,-2692.26 L -4.62889,-2692.02 L -5.17912,-2691.72
 L -5.68712,-2691.35 L -6.14484,-2690.92 L -6.54507,-2690.44 L -6.88153,-2689.91 L -7.14888,-2689.34 L -7.34291,-2688.74
 L -7.46057,-2688.13 L -7.5,-2687.5 L -7.5,-2532.5 L -7.46057,-2531.87 L -7.34291,-2531.26 L -7.14888,-2530.66
 L -6.88153,-2530.09 L -6.54507,-2529.56 L -6.14484,-2529.08 L -5.68712,-2528.65 L -5.17912,-2528.28 L -4.62889,-2527.98
 L -4.04507,-2527.74 L -3.4369,-2527.59 L -2.81395,-2527.51 L 2.81395,-2527.51 z
M -0.134064,-2682.87 L -0.400101,-2682.9 L -0.659836,-2682.97 L -0.909149,-2683.07 L -1.14413,-2683.2 L -1.36108,-2683.35
 L -1.55655,-2683.54 L -1.72748,-2683.74 L -1.87117,-2683.97 L -1.98534,-2684.21 L -2.06821,-2684.47 L -2.11845,-2684.73
 L -2.13528,-2685 L -2.11845,-2685.27 L -2.06821,-2685.53 L -1.98534,-2685.79 L -1.87117,-2686.03 L -1.72748,-2686.26
 L -1.55655,-2686.46 L -1.36108,-2686.65 L -1.14413,-2686.8 L -0.909149,-2686.93 L -0.659836,-2687.03 L -0.400101,-2687.1
 L -0.134064,-2687.13 L 0.134064,-2687.13 L 0.400101,-2687.1 L 0.659836,-2687.03 L 0.909149,-2686.93 L 1.14413,-2686.8
 L 1.36108,-2686.65 L 1.55655,-2686.46 L 1.72748,-2686.26 L 1.87117,-2686.03 L 1.98534,-2685.79 L 2.06821,-2685.53
 L 2.11845,-2685.27 L 2.13528,-2685 L 2.11845,-2684.73 L 2.06821,-2684.47 L 1.98534,-2684.21 L 1.87117,-2683.97
 L 1.72748,-2683.74 L 1.55655,-2683.54 L 1.36108,-2683.35 L 1.14413,-2683.2 L 0.909149,-2683.07 L 0.659836,-2682.97
 L 0.400101,-2682.9 L 0.134064,-2682.87 z
M -0.134064,-2532.87 L -0.400101,-2532.9 L -0.659836,-2532.97 L -0.909149,-2533.07 L -1.14413,-2533.2 L -1.36108,-2533.35
 L -1.55655,-2533.54 L -1.72748,-2533.74 L -1.87117,-2533.97 L -1.98534,-2534.21 L -2.06821,-2534.47 L -2.11845,-2534.73
 L -2.13528,-2535 L -2.11845,-2535.27 L -2.06821,-2535.53 L -1.98534,-2535.79 L -1.87117,-2536.03 L -1.72748,-2536.26
 L -1.55655,-2536.46 L -1.36108,-2536.65 L -1.14413,-2536.8 L -0.909149,-2536.93 L -0.659836,-2537.03 L -0.400101,-2537.1
 L -0.134064,-2537.13 L 0.134064,-2537.13 L 0.400101,-2537.1 L 0.659836,-2537.03 L 0.909149,-2536.93 L 1.14413,-2536.8
 L 1.36108,-2536.65 L 1.55655,-2536.46 L 1.72748,-2536.26 L 1.87117,-2536.03 L 1.98534,-2535.79 L 2.06821,-2535.53
 L 2.11845,-2535.27 L 2.13528,-2535 L 2.11845,-2534.73 L 2.06821,-2534.47 L 1.98534,-2534.21 L 1.87117,-2533.97
 L 1.72748,-2533.74 L 1.55655,-2533.54 L 1.36108,-2533.35 L 1.14413,-2533.2 L 0.909149,-2533.07 L 0.659836,-2532.97
 L 0.400101,-2532.9 L 0.134064,-2532.87 z
" stroke="black" fill="lightgray" stroke-width="0.5"/>
</svg>
