<?xml version="1.0" standalone="no"?>
<!DOCTYPE svg PUBLIC "-//W3C//DTD SVG 1.1//EN" "http://www.w3.org/Graphics/SVG/1.1/DTD/svg11.dtd">
<svg width="196mm" height="448mm" viewBox="-98 -737 196 448" xmlns="http://www.w3.org/2000/svg" version="1.1">
<title>OpenSCAD Model</title>
<path d="
M 93.4369,-631.589 L 94.0451,-631.745 L 94.6289,-631.976 L 95.1791,-632.278 L 95.6871,-632.647 L 96.1448,-633.077
 L 96.5451,-633.561 L 96.8815,-634.091 L 97.1489,-634.659 L 97.3429,-635.257 L 97.4606,-635.873 L 97.5,-636.5
 L 97.5,-731.5 L 97.4606,-732.127 L 97.3429,-732.743 L 97.1489,-733.341 L 96.8815,-733.909 L 96.5451,-734.439
 L 96.1448,-734.923 L 95.6871,-735.353 L 95.1791,-735.722 L 94.6289,-736.024 L 94.0451,-736.255 L 93.4369,-736.411
 L 92.8139,-736.49 L -92.8139,-736.49 L -93.4369,-736.411 L -94.0451,-736.255 L -94.6289,-736.024 L -95.1791,-735.722
 L -95.6871,-735.353 L -96.1448,-734.923 L -96.5451,-734.439 L -96.8815,-733.909 L -97.1489,-733.341 L -97.3429,-732.743
 L -97.4606,-732.127 L -97.5,-731.5 L -97.5,-636.5 L -97.4606,-635.873 L -97.3429,-635.257 L -97.1489,-634.659
 L -96.8815,-634.091 L -96.5451,-633.561 L -96.1448,-633.077 L -95.6871,-632.647 L -95.1791,-632.278 L -94.6289,-631.976
 L -94.0451,-631.745 L -93.4369,-631.589 L -92.8139,-631.51 L 92.8139,-631.51 z
M -92.5482,-632.009 L -93.1401,-632.084 L -93.7178,-632.232 L -94.2724,-632.452 L -94.7952,-632.739 L -95.2778,-633.09
 L -95.7126,-633.498 L -96.0928,-633.958 L -96.4125,-634.462 L -96.6664,-635.001 L -96.8508,-635.569 L -96.9625,-636.155
 L -97,-636.75 L -97,-731.25 L -96.9625,-731.845 L -96.8508,-732.431 L -96.6664,-732.999 L -96.4125,-733.538
 L -96.0928,-734.042 L -95.7126,-734.502 L -95.2778,-734.91 L -94.7952,-735.261 L -94.2724,-735.548 L -93.7178,-735.768
 L -93.1401,-735.916 L -92.5482,-735.991 L 92.5482,-735.991 L 93.1401,-735.916 L 93.7178,-735.768 L 94.2724,-735.548
 L 94.7952,-735.261 L 95.2778,-734.91 L 95.7126,-734.502 L 96.0928,-734.042 L 96.4125,-733.538 L 96.6664,-732.999
 L 96.8508,-732.431 L 96.9625,-731.845 L 97,-731.25 L 97,-636.75 L 96.9625,-636.155 L 96.8508,-635.569
 L 96.6664,-635.001 L 96.4125,-634.462 L 96.0928,-633.958 L 95.7126,-633.498 L 95.2778,-633.09 L 94.7952,-632.739
 L 94.2724,-632.452 L 93.7178,-632.232 L 93.1401,-632.084 L 92.5482,-632.009 z
M 93.4369,-517.589 L 94.0451,-517.745 L 94.6289,-517.976 L 95.1791,-518.278 L 95.6871,-518.647 L 96.1448,-519.077
 L 96.5451,-519.561 L 96.8815,-520.091 L 97.1489,-520.659 L 97.3429,-521.257 L 97.4606,-521.873 L 97.5,-522.5
 L 97.5,-617.5 L 97.4606,-618.127 L 97.3429,-618.743 L 97.1489,-619.341 L 96.8815,-619.909 L 96.5451,-620.439
 L 96.1448,-620.923 L 95.6871,-621.353 L 95.1791,-621.722 L 94.6289,-622.024 L 94.0451,-622.255 L 93.4369,-622.411
 L 92.8139,-622.49 L -92.8139,-622.49 L -93.4369,-622.411 L -94.0451,-622.255 L -94.6289,-622.024 L -95.1791,-621.722
 L -95.6871,-621.353 L -96.1448,-620.923 L -96.5451,-620.439 L -96.8815,-619.909 L -97.1489,-619.341 L -97.3429,-618.743
 L -97.4606,-618.127 L -97.5,-617.5 L -97.5,-522.5 L -97.4606,-521.873 L -97.3429,-521.257 L -97.1489,-520.659
 L -96.8815,-520.091 L -96.5451,-519.561 L -96.1448,-519.077 L -95.6871,-518.647 L -95.1791,-518.278 L -94.6289,-517.976
 L -94.0451,-517.745 L -93.4369,-517.589 L -92.8139,-517.51 L 92.8139,-517.51 z
M -92.5482,-518.009 L -93.1401,-518.084 L -93.7178,-518.232 L -94.2724,-518.452 L -94.7952,-518.739 L -95.2778,-519.09
 L -95.7126,-519.498 L -96.0928,-519.958 L -96.4125,-520.462 L -96.6664,-521.001 L -96.8508,-521.569 L -96.9625,-522.155
 L -97,-522.75 L -97,-617.25 L -96.9625,-617.845 L -96.8508,-618.431 L -96.6664,-618.999 L -96.4125,-619.538
 L -96.0928,-620.042 L -95.7126,-620.502 L -95.2778,-620.91 L -94.7952,-621.261 L -94.2724,-621.548 L -93.7178,-621.768
 L -93.1401,-621.916 L -92.5482,-621.991 L 92.5482,-621.991 L 93.1401,-621.916 L 93.7178,-621.768 L 94.2724,-621.548
 L 94.7952,-621.261 L 95.2778,-620.91 L 95.7126,-620.502 L 96.0928,-620.042 L 96.4125,-619.538 L 96.6664,-618.999
 L 96.8508,-618.431 L 96.9625,-617.845 L 97,-617.25 L 97,-522.75 L 96.9625,-522.155 L 96.8508,-521.569
 L 96.6664,-521.001 L 96.4125,-520.462 L 96.0928,-519.958 L 95.7126,-519.498 L 95.2778,-519.09 L 94.7952,-518.739
 L 94.2724,-518.452 L 93.7178,-518.232 L 93.1401,-518.084 L 92.5482,-518.009 z
M 93.4369,-403.589 L 94.0451,-403.745 L 94.6289,-403.976 L 95.1791,-404.278 L 95.6871,-404.647 L 96.1448,-405.077
 L 96.5451,-405.561 L 96.8815,-406.091 L 97.1489,-406.659 L 97.3429,-407.257 L 97.4606,-407.873 L 97.5,-408.5
 L 97.5,-503.5 L 97.4606,-504.127 L 97.3429,-504.743 L 97.1489,-505.341 L 96.8815,-505.909 L 96.5451,-506.439
 L 96.1448,-506.923 L 95.6871,-507.353 L 95.1791,-507.722 L 94.6289,-508.024 L 94.0451,-508.255 L 93.4369,-508.411
 L 92.8139,-508.49 L -92.8139,-508.49 L -93.4369,-508.411 L -94.0451,-508.255 L -94.6289,-508.024 L -95.1791,-507.722
 L -95.6871,-507.353 L -96.1448,-506.923 L -96.5451,-506.439 L -96.8815,-505.909 L -97.1489,-505.341 L -97.3429,-504.743
 L -97.4606,-504.127 L -97.5,-503.5 L -97.5,-408.5 L -97.4606,-407.873 L -97.3429,-407.257 L -97.1489,-406.659
 L -96.8815,-406.091 L -96.5451,-405.561 L -96.1448,-405.077 L -95.6871,-404.647 L -95.1791,-404.278 L -94.6289,-403.976
 L -94.0451,-403.745 L -93.4369,-403.589 L -92.8139,-403.51 L 92.8139,-403.51 z
M -92.493,-404.888 L -92.9751,-404.949 L -93.4457,-405.07 L -93.8975,-405.249 L -94.3234,-405.483 L -94.7165,-405.769
 L -95.0707,-406.101 L -95.3805,-406.476 L -95.6408,-406.886 L -95.8477,-407.326 L -95.9979,-407.788 L -96.089,-408.265
 L -96.1195,-408.75 L -96.1195,-503.25 L -96.089,-503.735 L -95.9979,-504.212 L -95.8477,-504.674 L -95.6408,-505.114
 L -95.3805,-505.524 L -95.0707,-505.899 L -94.7165,-506.231 L -94.3234,-506.517 L -93.8975,-506.751 L -93.4457,-506.93
 L -92.9751,-507.051 L -92.493,-507.112 L 92.493,-507.112 L 92.9751,-507.051 L 93.4457,-506.93 L 93.8975,-506.751
 L 94.3234,-506.517 L 94.7165,-506.231 L 95.0707,-505.899 L 95.3805,-505.524 L 95.6408,-505.114 L 95.8477,-504.674
 L 95.9979,-504.212 L 96.089,-503.735 L 96.1195,-503.25 L 96.1195,-408.75 L 96.089,-408.265 L 95.9979,-407.788
 L 95.8477,-407.326 L 95.6408,-406.886 L 95.3805,-406.476 L 95.0707,-406.101 L 94.7165,-405.769 L 94.3234,-405.483
 L 93.8975,-405.249 L 93.4457,-405.07 L 92.9751,-404.949 L 92.493,-404.888 z
M 93.4369,-289.589 L 94.0451,-289.745 L 94.6289,-289.976 L 95.1791,-290.278 L 95.6871,-290.647 L 96.1448,-291.077
 L 96.5451,-291.561 L 96.8815,-292.091 L 97.1489,-292.659 L 97.3429,-293.257 L 97.4606,-293.873 L 97.5,-294.5
 L 97.5,-389.5 L 97.4606,-390.127 L 97.3429,-390.743 L 97.1489,-391.341 L 96.8815,-391.909 L 96.5451,-392.439
 L 96.1448,-392.923 L 95.6871,-393.353 L 95.1791,-393.722 L 94.6289,-394.024 L 94.0451,-394.255 L 93.4369,-394.411
 L 92.8139,-394.49 L -92.8139,-394.49 L -93.4369,-394.411 L -94.0451,-394.255 L -94.6289,-394.024 L -95.1791,-393.722
 L -95.6871,-393.353 L -96.1448,-392.923 L -96.5451,-392.439 L -96.8815,-391.909 L -97.1489,-391.341 L -97.3429,-390.743
 L -97.4606,-390.127 L -97.5,-389.5 L -97.5,-294.5 L -97.4606,-293.873 L -97.3429,-293.257 L -97.1489,-292.659
 L -96.8815,-292.091 L -96.5451,-291.561 L -96.1448,-291.077 L -95.6871,-290.647 L -95.1791,-290.278 L -94.6289,-289.976
 L -94.0451,-289.745 L -93.4369,-289.589 L -92.8139,-289.51 L 92.8139,-289.51 z
M 89.887,-385.204 L 89.6627,-385.232 L 89.4438,-385.288 L 89.2336,-385.371 L 89.0355,-385.48 L 88.8526,-385.613
 L 88.6879,-385.768 L 88.5438,-385.942 L 88.4226,-386.133 L 88.3264,-386.337 L 88.2565,-386.552 L 88.2142,-386.774
 L 88.2,-387 L 88.2142,-387.226 L 88.2565,-387.448 L 88.3264,-387.663 L 88.4226,-387.867 L 88.5438,-388.058
 L 88.6879,-388.232 L 88.8526,-388.387 L 89.0355,-388.52 L 89.2336,-388.629 L 89.4438,-388.712 L 89.6627,-388.768
 L 89.887,-388.796 L 90.113,-388.796 L 90.3373,-388.768 L 90.5562,-388.712 L 90.7664,-388.629 L 90.9645,-388.52
 L 91.1474,-388.387 L 91.3121,-388.232 L 91.4562,-388.058 L 91.5773,-387.867 L 91.6736,-387.663 L 91.7434,-387.448
 L 91.7858,-387.226 L 91.8,-387 L 91.7858,-386.774 L 91.7434,-386.552 L 91.6736,-386.337 L 91.5773,-386.133
 L 91.4562,-385.942 L 91.3121,-385.768 L 91.1474,-385.613 L 90.9645,-385.48 L 90.7664,-385.371 L 90.5562,-385.288
 L 90.3373,-385.232 L 90.113,-385.204 z
M -90.113,-385.204 L -90.3373,-385.232 L -90.5562,-385.288 L -90.7664,-385.371 L -90.9645,-385.48 L -91.1474,-385.613
 L -91.3121,-385.768 L -91.4562,-385.942 L -91.5773,-386.133 L -91.6736,-386.337 L -91.7434,-386.552 L -91.7858,-386.774
 L -91.8,-387 L -91.7858,-387.226 L -91.7434,-387.448 L -91.6736,-387.663 L -91.5773,-387.867 L -91.4562,-388.058
 L -91.3121,-388.232 L -91.1474,-388.387 L -90.9645,-388.52 L -90.7664,-388.629 L -90.5562,-388.712 L -90.3373,-388.768
 L -90.113,-388.796 L -89.887,-388.796 L -89.6627,-388.768 L -89.4438,-388.712 L -89.2336,-388.629 L -89.0355,-388.52
 L -88.8526,-388.387 L -88.6879,-388.232 L -88.5438,-388.058 L -88.4226,-387.867 L -88.3264,-387.663 L -88.2565,-387.448
 L -88.2142,-387.226 L -88.2,-387 L -88.2142,-386.774 L -88.2565,-386.552 L -88.3264,-386.337 L -88.4226,-386.133
 L -88.5438,-385.942 L -88.6879,-385.768 L -88.8526,-385.613 L -89.0355,-385.48 L -89.2336,-385.371 L -89.4438,-385.288
 L -89.6627,-385.232 L -89.887,-385.204 z
M -90.113,-295.204 L -90.3373,-295.232 L -90.5562,-295.288 L -90.7664,-295.371 L -90.9645,-295.48 L -91.1474,-295.613
 L -91.3121,-295.768 L -91.4562,-295.942 L -91.5773,-296.133 L -91.6736,-296.337 L -91.7434,-296.552 L -91.7858,-296.774
 L -91.8,-297 L -91.7858,-297.226 L -91.7434,-297.448 L -91.6736,-297.663 L -91.5773,-297.867 L -91.4562,-298.058
 L -91.3121,-298.232 L -91.1474,-298.387 L -90.9645,-298.52 L -90.7664,-298.629 L -90.5562,-298.712 L -90.3373,-298.768
 L -90.113,-298.796 L -89.887,-298.796 L -89.6627,-298.768 L -89.4438,-298.712 L -89.2336,-298.629 L -89.0355,-298.52
 L -88.8526,-298.387 L -88.6879,-298.232 L -88.5438,-298.058 L -88.4226,-297.867 L -88.3264,-297.663 L -88.2565,-297.448
 L -88.2142,-297.226 L -88.2,-297 L -88.2142,-296.774 L -88.2565,-296.552 L -88.3264,-296.337 L -88.4226,-296.133
 L -88.5438,-295.942 L -88.6879,-295.768 L -88.8526,-295.613 L -89.0355,-295.48 L -89.2336,-295.371 L -89.4438,-295.288
 L -89.6627,-295.232 L -89.887,-295.204 z
M 89.887,-295.204 L 89.6627,-295.232 L 89.4438,-295.288 L 89.2336,-295.371 L 89.0355,-295.48 L 88.8526,-295.613
 L 88.6879,-295.768 L 88.5438,-295.942 L 88.4226,-296.133 L 88.3264,-296.337 L 88.2565,-296.552 L 88.2142,-296.774
 L 88.2,-297 L 88.2142,-297.226 L 88.2565,-297.448 L 88.3264,-297.663 L 88.4226,-297.867 L 88.5438,-298.058
 L 88.6879,-298.232 L 88.8526,-298.387 L 89.0355,-298.52 L 89.2336,-298.629 L 89.4438,-298.712 L 89.6627,-298.768
 L 89.887,-298.796 L 90.113,-298.796 L 90.3373,-298.768 L 90.5562,-298.712 L 90.7664,-298.629 L 90.9645,-298.52
 L 91.1474,-298.387 L 91.3121,-298.232 L 91.4562,-298.058 L 91.5773,-297.867 L 91.6736,-297.663 L 91.7434,-297.448
 L 91.7858,-297.226 L 91.8,-297 L 91.7858,-296.774 L 91.7434,-296.552 L 91.6736,-296.337 L 91.5773,-296.133
 L 91.4562,-295.942 L 91.3121,-295.768 L 91.1474,-295.613 L 90.9645,-295.48 L 90.7664,-295.371 L 90.5562,-295.288
 L 90.3373,-295.232 L 90.113,-295.204 z
" stroke="black" fill="lightgray" stroke-width="0.5"/>
</svg>
