  0
SECTION
  2
BLOCKS
  0
ENDSEC
  0
SECTION
  2
ENTITIES
  0
LINE
  8
0
 10
100.937
 20
466.589
 11
101.545
 21
466.745
  0
LINE
  8
0
 10
101.545
 20
466.745
 11
102.129
 21
466.976
  0
LINE
  8
0
 10
102.129
 20
466.976
 11
102.679
 21
467.278
  0
LINE
  8
0
 10
102.679
 20
467.278
 11
103.187
 21
467.647
  0
LINE
  8
0
 10
103.187
 20
467.647
 11
103.645
 21
468.077
  0
LINE
  8
0
 10
103.645
 20
468.077
 11
104.045
 21
468.561
  0
LINE
  8
0
 10
104.045
 20
468.561
 11
104.382
 21
469.091
  0
LINE
  8
0
 10
104.382
 20
469.091
 11
104.649
 21
469.659
  0
LINE
  8
0
 10
104.649
 20
469.659
 11
104.843
 21
470.257
  0
LINE
  8
0
 10
104.843
 20
470.257
 11
104.961
 21
470.873
  0
LINE
  8
0
 10
104.961
 20
470.873
 11
105
 21
471.5
  0
LINE
  8
0
 10
105
 20
471.5
 11
105
 21
536.5
  0
LINE
  8
0
 10
105
 20
536.5
 11
104.961
 21
537.127
  0
LINE
  8
0
 10
104.961
 20
537.127
 11
104.843
 21
537.743
  0
LINE
  8
0
 10
104.843
 20
537.743
 11
104.649
 21
538.341
  0
LINE
  8
0
 10
104.649
 20
538.341
 11
104.382
 21
538.909
  0
LINE
  8
0
 10
104.382
 20
538.909
 11
104.045
 21
539.439
  0
LINE
  8
0
 10
104.045
 20
539.439
 11
103.645
 21
539.923
  0
LINE
  8
0
 10
103.645
 20
539.923
 11
103.187
 21
540.353
  0
LINE
  8
0
 10
103.187
 20
540.353
 11
102.679
 21
540.722
  0
LINE
  8
0
 10
102.679
 20
540.722
 11
102.129
 21
541.024
  0
LINE
  8
0
 10
102.129
 20
541.024
 11
101.545
 21
541.255
  0
LINE
  8
0
 10
101.545
 20
541.255
 11
100.937
 21
541.411
  0
LINE
  8
0
 10
100.937
 20
541.411
 11
100.314
 21
541.49
  0
LINE
  8
0
 10
100.314
 20
541.49
 11
-100.314
 21
541.49
  0
LINE
  8
0
 10
-100.314
 20
541.49
 11
-100.937
 21
541.411
  0
LINE
  8
0
 10
-100.937
 20
541.411
 11
-101.545
 21
541.255
  0
LINE
  8
0
 10
-101.545
 20
541.255
 11
-102
 21
541.075
  0
LINE
  8
0
 10
-102
 20
541.075
 11
-102
 21
541.115
  0
LINE
  8
0
 10
-102
 20
541.115
 11
-105
 21
541.115
  0
LINE
  8
0
 10
-105
 20
541.115
 11
-105
 21
466.885
  0
LINE
  8
0
 10
-105
 20
466.885
 11
-102
 21
466.885
  0
LINE
  8
0
 10
-102
 20
466.885
 11
-102
 21
466.925
  0
LINE
  8
0
 10
-102
 20
466.925
 11
-101.545
 21
466.745
  0
LINE
  8
0
 10
-101.545
 20
466.745
 11
-100.937
 21
466.589
  0
LINE
  8
0
 10
-100.937
 20
466.589
 11
-100.314
 21
466.51
  0
LINE
  8
0
 10
-100.314
 20
466.51
 11
100.314
 21
466.51
  0
LINE
  8
0
 10
100.314
 20
466.51
 11
100.937
 21
466.589
  0
LINE
  8
0
 10
-99.7512
 20
468.008
 11
-100.25
 21
468.071
  0
LINE
  8
0
 10
-100.25
 20
468.071
 11
-100.736
 21
468.196
  0
LINE
  8
0
 10
-100.736
 20
468.196
 11
-101.203
 21
468.381
  0
LINE
  8
0
 10
-101.203
 20
468.381
 11
-101.643
 21
468.623
  0
LINE
  8
0
 10
-101.643
 20
468.623
 11
-102.05
 21
468.918
  0
LINE
  8
0
 10
-102.05
 20
468.918
 11
-102.416
 21
469.262
  0
LINE
  8
0
 10
-102.416
 20
469.262
 11
-102.736
 21
469.649
  0
LINE
  8
0
 10
-102.736
 20
469.649
 11
-103.005
 21
470.073
  0
LINE
  8
0
 10
-103.005
 20
470.073
 11
-103.219
 21
470.528
  0
LINE
  8
0
 10
-103.219
 20
470.528
 11
-103.374
 21
471.005
  0
LINE
  8
0
 10
-103.374
 20
471.005
 11
-103.468
 21
471.499
  0
LINE
  8
0
 10
-103.468
 20
471.499
 11
-103.5
 21
472
  0
LINE
  8
0
 10
-103.5
 20
472
 11
-103.5
 21
536
  0
LINE
  8
0
 10
-103.5
 20
536
 11
-103.468
 21
536.501
  0
LINE
  8
0
 10
-103.468
 20
536.501
 11
-103.374
 21
536.995
  0
LINE
  8
0
 10
-103.374
 20
536.995
 11
-103.219
 21
537.472
  0
LINE
  8
0
 10
-103.219
 20
537.472
 11
-103.005
 21
537.927
  0
LINE
  8
0
 10
-103.005
 20
537.927
 11
-102.736
 21
538.351
  0
LINE
  8
0
 10
-102.736
 20
538.351
 11
-102.416
 21
538.738
  0
LINE
  8
0
 10
-102.416
 20
538.738
 11
-102.05
 21
539.082
  0
LINE
  8
0
 10
-102.05
 20
539.082
 11
-101.643
 21
539.377
  0
LINE
  8
0
 10
-101.643
 20
539.377
 11
-101.203
 21
539.619
  0
LINE
  8
0
 10
-101.203
 20
539.619
 11
-100.736
 21
539.804
  0
LINE
  8
0
 10
-100.736
 20
539.804
 11
-100.25
 21
539.929
  0
LINE
  8
0
 10
-100.25
 20
539.929
 11
-99.7512
 21
539.992
  0
LINE
  8
0
 10
-99.7512
 20
539.992
 11
99.7512
 21
539.992
  0
LINE
  8
0
 10
99.7512
 20
539.992
 11
100.25
 21
539.929
  0
LINE
  8
0
 10
100.25
 20
539.929
 11
100.736
 21
539.804
  0
LINE
  8
0
 10
100.736
 20
539.804
 11
101.203
 21
539.619
  0
LINE
  8
0
 10
101.203
 20
539.619
 11
101.643
 21
539.377
  0
LINE
  8
0
 10
101.643
 20
539.377
 11
102.05
 21
539.082
  0
LINE
  8
0
 10
102.05
 20
539.082
 11
102.416
 21
538.738
  0
LINE
  8
0
 10
102.416
 20
538.738
 11
102.736
 21
538.351
  0
LINE
  8
0
 10
102.736
 20
538.351
 11
103.005
 21
537.927
  0
LINE
  8
0
 10
103.005
 20
537.927
 11
103.219
 21
537.472
  0
LINE
  8
0
 10
103.219
 20
537.472
 11
103.374
 21
536.995
  0
LINE
  8
0
 10
103.374
 20
536.995
 11
103.468
 21
536.501
  0
LINE
  8
0
 10
103.468
 20
536.501
 11
103.5
 21
536
  0
LINE
  8
0
 10
103.5
 20
536
 11
103.5
 21
472
  0
LINE
  8
0
 10
103.5
 20
472
 11
103.468
 21
471.499
  0
LINE
  8
0
 10
103.468
 20
471.499
 11
103.374
 21
471.005
  0
LINE
  8
0
 10
103.374
 20
471.005
 11
103.219
 21
470.528
  0
LINE
  8
0
 10
103.219
 20
470.528
 11
103.005
 21
470.073
  0
LINE
  8
0
 10
103.005
 20
470.073
 11
102.736
 21
469.649
  0
LINE
  8
0
 10
102.736
 20
469.649
 11
102.416
 21
469.262
  0
LINE
  8
0
 10
102.416
 20
469.262
 11
102.05
 21
468.918
  0
LINE
  8
0
 10
102.05
 20
468.918
 11
101.643
 21
468.623
  0
LINE
  8
0
 10
101.643
 20
468.623
 11
101.203
 21
468.381
  0
LINE
  8
0
 10
101.203
 20
468.381
 11
100.736
 21
468.196
  0
LINE
  8
0
 10
100.736
 20
468.196
 11
100.25
 21
468.071
  0
LINE
  8
0
 10
100.25
 20
468.071
 11
99.7512
 21
468.008
  0
LINE
  8
0
 10
99.7512
 20
468.008
 11
-99.7512
 21
468.008
  0
LINE
  8
0
 10
100.937
 20
382.589
 11
101.545
 21
382.745
  0
LINE
  8
0
 10
101.545
 20
382.745
 11
102.129
 21
382.976
  0
LINE
  8
0
 10
102.129
 20
382.976
 11
102.679
 21
383.278
  0
LINE
  8
0
 10
102.679
 20
383.278
 11
103.187
 21
383.647
  0
LINE
  8
0
 10
103.187
 20
383.647
 11
103.645
 21
384.077
  0
LINE
  8
0
 10
103.645
 20
384.077
 11
104.045
 21
384.561
  0
LINE
  8
0
 10
104.045
 20
384.561
 11
104.382
 21
385.091
  0
LINE
  8
0
 10
104.382
 20
385.091
 11
104.649
 21
385.659
  0
LINE
  8
0
 10
104.649
 20
385.659
 11
104.843
 21
386.257
  0
LINE
  8
0
 10
104.843
 20
386.257
 11
104.961
 21
386.873
  0
LINE
  8
0
 10
104.961
 20
386.873
 11
105
 21
387.5
  0
LINE
  8
0
 10
105
 20
387.5
 11
105
 21
452.5
  0
LINE
  8
0
 10
105
 20
452.5
 11
104.961
 21
453.127
  0
LINE
  8
0
 10
104.961
 20
453.127
 11
104.843
 21
453.743
  0
LINE
  8
0
 10
104.843
 20
453.743
 11
104.649
 21
454.341
  0
LINE
  8
0
 10
104.649
 20
454.341
 11
104.382
 21
454.909
  0
LINE
  8
0
 10
104.382
 20
454.909
 11
104.045
 21
455.439
  0
LINE
  8
0
 10
104.045
 20
455.439
 11
103.645
 21
455.923
  0
LINE
  8
0
 10
103.645
 20
455.923
 11
103.187
 21
456.353
  0
LINE
  8
0
 10
103.187
 20
456.353
 11
102.679
 21
456.722
  0
LINE
  8
0
 10
102.679
 20
456.722
 11
102.129
 21
457.024
  0
LINE
  8
0
 10
102.129
 20
457.024
 11
101.545
 21
457.255
  0
LINE
  8
0
 10
101.545
 20
457.255
 11
100.937
 21
457.411
  0
LINE
  8
0
 10
100.937
 20
457.411
 11
100.314
 21
457.49
  0
LINE
  8
0
 10
100.314
 20
457.49
 11
-100.314
 21
457.49
  0
LINE
  8
0
 10
-100.314
 20
457.49
 11
-100.937
 21
457.411
  0
LINE
  8
0
 10
-100.937
 20
457.411
 11
-101.545
 21
457.255
  0
LINE
  8
0
 10
-101.545
 20
457.255
 11
-102.129
 21
457.024
  0
LINE
  8
0
 10
-102.129
 20
457.024
 11
-102.679
 21
456.722
  0
LINE
  8
0
 10
-102.679
 20
456.722
 11
-103.187
 21
456.353
  0
LINE
  8
0
 10
-103.187
 20
456.353
 11
-103.645
 21
455.923
  0
LINE
  8
0
 10
-103.645
 20
455.923
 11
-104.045
 21
455.439
  0
LINE
  8
0
 10
-104.045
 20
455.439
 11
-104.382
 21
454.909
  0
LINE
  8
0
 10
-104.382
 20
454.909
 11
-104.649
 21
454.341
  0
LINE
  8
0
 10
-104.649
 20
454.341
 11
-104.843
 21
453.743
  0
LINE
  8
0
 10
-104.843
 20
453.743
 11
-104.9
 21
453.444
  0
LINE
  8
0
 10
-104.9
 20
453.444
 11
-105
 21
453.444
  0
LINE
  8
0
 10
-105
 20
453.444
 11
-105
 21
386.556
  0
LINE
  8
0
 10
-105
 20
386.556
 11
-104.9
 21
386.556
  0
LINE
  8
0
 10
-104.9
 20
386.556
 11
-104.843
 21
386.257
  0
LINE
  8
0
 10
-104.843
 20
386.257
 11
-104.649
 21
385.659
  0
LINE
  8
0
 10
-104.649
 20
385.659
 11
-104.382
 21
385.091
  0
LINE
  8
0
 10
-104.382
 20
385.091
 11
-104.045
 21
384.561
  0
LINE
  8
0
 10
-104.045
 20
384.561
 11
-103.645
 21
384.077
  0
LINE
  8
0
 10
-103.645
 20
384.077
 11
-103.187
 21
383.647
  0
LINE
  8
0
 10
-103.187
 20
383.647
 11
-102.679
 21
383.278
  0
LINE
  8
0
 10
-102.679
 20
383.278
 11
-102.129
 21
382.976
  0
LINE
  8
0
 10
-102.129
 20
382.976
 11
-101.545
 21
382.745
  0
LINE
  8
0
 10
-101.545
 20
382.745
 11
-100.937
 21
382.589
  0
LINE
  8
0
 10
-100.937
 20
382.589
 11
-100.314
 21
382.51
  0
LINE
  8
0
 10
-100.314
 20
382.51
 11
100.314
 21
382.51
  0
LINE
  8
0
 10
100.314
 20
382.51
 11
100.937
 21
382.589
  0
LINE
  8
0
 10
-99.7432
 20
384.135
 11
-100.226
 21
384.196
  0
LINE
  8
0
 10
-100.226
 20
384.196
 11
-100.697
 21
384.317
  0
LINE
  8
0
 10
-100.697
 20
384.317
 11
-101.149
 21
384.496
  0
LINE
  8
0
 10
-101.149
 20
384.496
 11
-101.575
 21
384.73
  0
LINE
  8
0
 10
-101.575
 20
384.73
 11
-101.969
 21
385.016
  0
LINE
  8
0
 10
-101.969
 20
385.016
 11
-102.323
 21
385.349
  0
LINE
  8
0
 10
-102.323
 20
385.349
 11
-102.633
 21
385.724
  0
LINE
  8
0
 10
-102.633
 20
385.724
 11
-102.894
 21
386.134
  0
LINE
  8
0
 10
-102.894
 20
386.134
 11
-103.101
 21
386.574
  0
LINE
  8
0
 10
-103.101
 20
386.574
 11
-103.251
 21
387.037
  0
LINE
  8
0
 10
-103.251
 20
387.037
 11
-103.342
 21
387.515
  0
LINE
  8
0
 10
-103.342
 20
387.515
 11
-103.373
 21
388
  0
LINE
  8
0
 10
-103.373
 20
388
 11
-103.373
 21
452
  0
LINE
  8
0
 10
-103.373
 20
452
 11
-103.342
 21
452.485
  0
LINE
  8
0
 10
-103.342
 20
452.485
 11
-103.251
 21
452.963
  0
LINE
  8
0
 10
-103.251
 20
452.963
 11
-103.101
 21
453.426
  0
LINE
  8
0
 10
-103.101
 20
453.426
 11
-102.894
 21
453.866
  0
LINE
  8
0
 10
-102.894
 20
453.866
 11
-102.633
 21
454.276
  0
LINE
  8
0
 10
-102.633
 20
454.276
 11
-102.323
 21
454.651
  0
LINE
  8
0
 10
-102.323
 20
454.651
 11
-101.969
 21
454.984
  0
LINE
  8
0
 10
-101.969
 20
454.984
 11
-101.575
 21
455.27
  0
LINE
  8
0
 10
-101.575
 20
455.27
 11
-101.149
 21
455.504
  0
LINE
  8
0
 10
-101.149
 20
455.504
 11
-100.697
 21
455.683
  0
LINE
  8
0
 10
-100.697
 20
455.683
 11
-100.226
 21
455.804
  0
LINE
  8
0
 10
-100.226
 20
455.804
 11
-99.7432
 21
455.865
  0
LINE
  8
0
 10
-99.7432
 20
455.865
 11
99.7432
 21
455.865
  0
LINE
  8
0
 10
99.7432
 20
455.865
 11
100.226
 21
455.804
  0
LINE
  8
0
 10
100.226
 20
455.804
 11
100.697
 21
455.683
  0
LINE
  8
0
 10
100.697
 20
455.683
 11
101.149
 21
455.504
  0
LINE
  8
0
 10
101.149
 20
455.504
 11
101.575
 21
455.27
  0
LINE
  8
0
 10
101.575
 20
455.27
 11
101.969
 21
454.984
  0
LINE
  8
0
 10
101.969
 20
454.984
 11
102.323
 21
454.651
  0
LINE
  8
0
 10
102.323
 20
454.651
 11
102.633
 21
454.276
  0
LINE
  8
0
 10
102.633
 20
454.276
 11
102.894
 21
453.866
  0
LINE
  8
0
 10
102.894
 20
453.866
 11
103.101
 21
453.426
  0
LINE
  8
0
 10
103.101
 20
453.426
 11
103.251
 21
452.963
  0
LINE
  8
0
 10
103.251
 20
452.963
 11
103.342
 21
452.485
  0
LINE
  8
0
 10
103.342
 20
452.485
 11
103.373
 21
452
  0
LINE
  8
0
 10
103.373
 20
452
 11
103.373
 21
388
  0
LINE
  8
0
 10
103.373
 20
388
 11
103.342
 21
387.515
  0
LINE
  8
0
 10
103.342
 20
387.515
 11
103.251
 21
387.037
  0
LINE
  8
0
 10
103.251
 20
387.037
 11
103.101
 21
386.574
  0
LINE
  8
0
 10
103.101
 20
386.574
 11
102.894
 21
386.134
  0
LINE
  8
0
 10
102.894
 20
386.134
 11
102.633
 21
385.724
  0
LINE
  8
0
 10
102.633
 20
385.724
 11
102.323
 21
385.349
  0
LINE
  8
0
 10
102.323
 20
385.349
 11
101.969
 21
385.016
  0
LINE
  8
0
 10
101.969
 20
385.016
 11
101.575
 21
384.73
  0
LINE
  8
0
 10
101.575
 20
384.73
 11
101.149
 21
384.496
  0
LINE
  8
0
 10
101.149
 20
384.496
 11
100.697
 21
384.317
  0
LINE
  8
0
 10
100.697
 20
384.317
 11
100.226
 21
384.196
  0
LINE
  8
0
 10
100.226
 20
384.196
 11
99.7432
 21
384.135
  0
LINE
  8
0
 10
99.7432
 20
384.135
 11
-99.7432
 21
384.135
  0
LINE
  8
0
 10
100.937
 20
298.589
 11
101.545
 21
298.745
  0
LINE
  8
0
 10
101.545
 20
298.745
 11
102.129
 21
298.976
  0
LINE
  8
0
 10
102.129
 20
298.976
 11
102.679
 21
299.278
  0
LINE
  8
0
 10
102.679
 20
299.278
 11
103.187
 21
299.647
  0
LINE
  8
0
 10
103.187
 20
299.647
 11
103.645
 21
300.077
  0
LINE
  8
0
 10
103.645
 20
300.077
 11
104.045
 21
300.561
  0
LINE
  8
0
 10
104.045
 20
300.561
 11
104.382
 21
301.091
  0
LINE
  8
0
 10
104.382
 20
301.091
 11
104.649
 21
301.659
  0
LINE
  8
0
 10
104.649
 20
301.659
 11
104.843
 21
302.257
  0
LINE
  8
0
 10
104.843
 20
302.257
 11
104.961
 21
302.873
  0
LINE
  8
0
 10
104.961
 20
302.873
 11
105
 21
303.5
  0
LINE
  8
0
 10
105
 20
303.5
 11
105
 21
368.5
  0
LINE
  8
0
 10
105
 20
368.5
 11
104.961
 21
369.127
  0
LINE
  8
0
 10
104.961
 20
369.127
 11
104.843
 21
369.743
  0
LINE
  8
0
 10
104.843
 20
369.743
 11
104.649
 21
370.341
  0
LINE
  8
0
 10
104.649
 20
370.341
 11
104.382
 21
370.909
  0
LINE
  8
0
 10
104.382
 20
370.909
 11
104.045
 21
371.439
  0
LINE
  8
0
 10
104.045
 20
371.439
 11
103.645
 21
371.923
  0
LINE
  8
0
 10
103.645
 20
371.923
 11
103.187
 21
372.353
  0
LINE
  8
0
 10
103.187
 20
372.353
 11
102.679
 21
372.722
  0
LINE
  8
0
 10
102.679
 20
372.722
 11
102.129
 21
373.024
  0
LINE
  8
0
 10
102.129
 20
373.024
 11
101.545
 21
373.255
  0
LINE
  8
0
 10
101.545
 20
373.255
 11
100.937
 21
373.411
  0
LINE
  8
0
 10
100.937
 20
373.411
 11
100.314
 21
373.49
  0
LINE
  8
0
 10
100.314
 20
373.49
 11
-100.314
 21
373.49
  0
LINE
  8
0
 10
-100.314
 20
373.49
 11
-100.937
 21
373.411
  0
LINE
  8
0
 10
-100.937
 20
373.411
 11
-101.545
 21
373.255
  0
LINE
  8
0
 10
-101.545
 20
373.255
 11
-102.129
 21
373.024
  0
LINE
  8
0
 10
-102.129
 20
373.024
 11
-102.679
 21
372.722
  0
LINE
  8
0
 10
-102.679
 20
372.722
 11
-103.187
 21
372.353
  0
LINE
  8
0
 10
-103.187
 20
372.353
 11
-103.645
 21
371.923
  0
LINE
  8
0
 10
-103.645
 20
371.923
 11
-104.045
 21
371.439
  0
LINE
  8
0
 10
-104.045
 20
371.439
 11
-104.382
 21
370.909
  0
LINE
  8
0
 10
-104.382
 20
370.909
 11
-104.649
 21
370.341
  0
LINE
  8
0
 10
-104.649
 20
370.341
 11
-104.843
 21
369.743
  0
LINE
  8
0
 10
-104.843
 20
369.743
 11
-104.961
 21
369.127
  0
LINE
  8
0
 10
-104.961
 20
369.127
 11
-105
 21
368.5
  0
LINE
  8
0
 10
-105
 20
368.5
 11
-105
 21
303.5
  0
LINE
  8
0
 10
-105
 20
303.5
 11
-104.961
 21
302.873
  0
LINE
  8
0
 10
-104.961
 20
302.873
 11
-104.843
 21
302.257
  0
LINE
  8
0
 10
-104.843
 20
302.257
 11
-104.649
 21
301.659
  0
LINE
  8
0
 10
-104.649
 20
301.659
 11
-104.382
 21
301.091
  0
LINE
  8
0
 10
-104.382
 20
301.091
 11
-104.045
 21
300.561
  0
LINE
  8
0
 10
-104.045
 20
300.561
 11
-103.645
 21
300.077
  0
LINE
  8
0
 10
-103.645
 20
300.077
 11
-103.187
 21
299.647
  0
LINE
  8
0
 10
-103.187
 20
299.647
 11
-102.679
 21
299.278
  0
LINE
  8
0
 10
-102.679
 20
299.278
 11
-102.129
 21
298.976
  0
LINE
  8
0
 10
-102.129
 20
298.976
 11
-101.545
 21
298.745
  0
LINE
  8
0
 10
-101.545
 20
298.745
 11
-100.937
 21
298.589
  0
LINE
  8
0
 10
-100.937
 20
298.589
 11
-100.314
 21
298.51
  0
LINE
  8
0
 10
-100.314
 20
298.51
 11
100.314
 21
298.51
  0
LINE
  8
0
 10
100.314
 20
298.51
 11
100.937
 21
298.589
  0
LINE
  8
0
 10
97.3493
 20
363.605
 11
97.0503
 21
363.643
  0
LINE
  8
0
 10
97.0503
 20
363.643
 11
96.7584
 21
363.717
  0
LINE
  8
0
 10
96.7584
 20
363.717
 11
96.4781
 21
363.828
  0
LINE
  8
0
 10
96.4781
 20
363.828
 11
96.214
 21
363.974
  0
LINE
  8
0
 10
96.214
 20
363.974
 11
95.9702
 21
364.151
  0
LINE
  8
0
 10
95.9702
 20
364.151
 11
95.7505
 21
364.357
  0
LINE
  8
0
 10
95.7505
 20
364.357
 11
95.5583
 21
364.589
  0
LINE
  8
0
 10
95.5583
 20
364.589
 11
95.3969
 21
364.844
  0
LINE
  8
0
 10
95.3969
 20
364.844
 11
95.2685
 21
365.117
  0
LINE
  8
0
 10
95.2685
 20
365.117
 11
95.1754
 21
365.403
  0
LINE
  8
0
 10
95.1754
 20
365.403
 11
95.1189
 21
365.699
  0
LINE
  8
0
 10
95.1189
 20
365.699
 11
95.1
 21
366
  0
LINE
  8
0
 10
95.1
 20
366
 11
95.1189
 21
366.301
  0
LINE
  8
0
 10
95.1189
 20
366.301
 11
95.1754
 21
366.597
  0
LINE
  8
0
 10
95.1754
 20
366.597
 11
95.2685
 21
366.883
  0
LINE
  8
0
 10
95.2685
 20
366.883
 11
95.3969
 21
367.156
  0
LINE
  8
0
 10
95.3969
 20
367.156
 11
95.5583
 21
367.411
  0
LINE
  8
0
 10
95.5583
 20
367.411
 11
95.7505
 21
367.643
  0
LINE
  8
0
 10
95.7505
 20
367.643
 11
95.9702
 21
367.849
  0
LINE
  8
0
 10
95.9702
 20
367.849
 11
96.214
 21
368.026
  0
LINE
  8
0
 10
96.214
 20
368.026
 11
96.4781
 21
368.172
  0
LINE
  8
0
 10
96.4781
 20
368.172
 11
96.7584
 21
368.283
  0
LINE
  8
0
 10
96.7584
 20
368.283
 11
97.0503
 21
368.357
  0
LINE
  8
0
 10
97.0503
 20
368.357
 11
97.3493
 21
368.395
  0
LINE
  8
0
 10
97.3493
 20
368.395
 11
97.6507
 21
368.395
  0
LINE
  8
0
 10
97.6507
 20
368.395
 11
97.9497
 21
368.357
  0
LINE
  8
0
 10
97.9497
 20
368.357
 11
98.2416
 21
368.283
  0
LINE
  8
0
 10
98.2416
 20
368.283
 11
98.5219
 21
368.172
  0
LINE
  8
0
 10
98.5219
 20
368.172
 11
98.786
 21
368.026
  0
LINE
  8
0
 10
98.786
 20
368.026
 11
99.0298
 21
367.849
  0
LINE
  8
0
 10
99.0298
 20
367.849
 11
99.2495
 21
367.643
  0
LINE
  8
0
 10
99.2495
 20
367.643
 11
99.4416
 21
367.411
  0
LINE
  8
0
 10
99.4416
 20
367.411
 11
99.6031
 21
367.156
  0
LINE
  8
0
 10
99.6031
 20
367.156
 11
99.7315
 21
366.883
  0
LINE
  8
0
 10
99.7315
 20
366.883
 11
99.8246
 21
366.597
  0
LINE
  8
0
 10
99.8246
 20
366.597
 11
99.8811
 21
366.301
  0
LINE
  8
0
 10
99.8811
 20
366.301
 11
99.9
 21
366
  0
LINE
  8
0
 10
99.9
 20
366
 11
99.8811
 21
365.699
  0
LINE
  8
0
 10
99.8811
 20
365.699
 11
99.8246
 21
365.403
  0
LINE
  8
0
 10
99.8246
 20
365.403
 11
99.7315
 21
365.117
  0
LINE
  8
0
 10
99.7315
 20
365.117
 11
99.6031
 21
364.844
  0
LINE
  8
0
 10
99.6031
 20
364.844
 11
99.4416
 21
364.589
  0
LINE
  8
0
 10
99.4416
 20
364.589
 11
99.2495
 21
364.357
  0
LINE
  8
0
 10
99.2495
 20
364.357
 11
99.0298
 21
364.151
  0
LINE
  8
0
 10
99.0298
 20
364.151
 11
98.786
 21
363.974
  0
LINE
  8
0
 10
98.786
 20
363.974
 11
98.5219
 21
363.828
  0
LINE
  8
0
 10
98.5219
 20
363.828
 11
98.2416
 21
363.717
  0
LINE
  8
0
 10
98.2416
 20
363.717
 11
97.9497
 21
363.643
  0
LINE
  8
0
 10
97.9497
 20
363.643
 11
97.6507
 21
363.605
  0
LINE
  8
0
 10
97.6507
 20
363.605
 11
97.3493
 21
363.605
  0
LINE
  8
0
 10
-97.6507
 20
363.605
 11
-97.9497
 21
363.643
  0
LINE
  8
0
 10
-97.9497
 20
363.643
 11
-98.2416
 21
363.717
  0
LINE
  8
0
 10
-98.2416
 20
363.717
 11
-98.5219
 21
363.828
  0
LINE
  8
0
 10
-98.5219
 20
363.828
 11
-98.786
 21
363.974
  0
LINE
  8
0
 10
-98.786
 20
363.974
 11
-99.0298
 21
364.151
  0
LINE
  8
0
 10
-99.0298
 20
364.151
 11
-99.2495
 21
364.357
  0
LINE
  8
0
 10
-99.2495
 20
364.357
 11
-99.4416
 21
364.589
  0
LINE
  8
0
 10
-99.4416
 20
364.589
 11
-99.6031
 21
364.844
  0
LINE
  8
0
 10
-99.6031
 20
364.844
 11
-99.7315
 21
365.117
  0
LINE
  8
0
 10
-99.7315
 20
365.117
 11
-99.8246
 21
365.403
  0
LINE
  8
0
 10
-99.8246
 20
365.403
 11
-99.8811
 21
365.699
  0
LINE
  8
0
 10
-99.8811
 20
365.699
 11
-99.9
 21
366
  0
LINE
  8
0
 10
-99.9
 20
366
 11
-99.8811
 21
366.301
  0
LINE
  8
0
 10
-99.8811
 20
366.301
 11
-99.8246
 21
366.597
  0
LINE
  8
0
 10
-99.8246
 20
366.597
 11
-99.7315
 21
366.883
  0
LINE
  8
0
 10
-99.7315
 20
366.883
 11
-99.6031
 21
367.156
  0
LINE
  8
0
 10
-99.6031
 20
367.156
 11
-99.4416
 21
367.411
  0
LINE
  8
0
 10
-99.4416
 20
367.411
 11
-99.2495
 21
367.643
  0
LINE
  8
0
 10
-99.2495
 20
367.643
 11
-99.0298
 21
367.849
  0
LINE
  8
0
 10
-99.0298
 20
367.849
 11
-98.786
 21
368.026
  0
LINE
  8
0
 10
-98.786
 20
368.026
 11
-98.5219
 21
368.172
  0
LINE
  8
0
 10
-98.5219
 20
368.172
 11
-98.2416
 21
368.283
  0
LINE
  8
0
 10
-98.2416
 20
368.283
 11
-97.9497
 21
368.357
  0
LINE
  8
0
 10
-97.9497
 20
368.357
 11
-97.6507
 21
368.395
  0
LINE
  8
0
 10
-97.6507
 20
368.395
 11
-97.3493
 21
368.395
  0
LINE
  8
0
 10
-97.3493
 20
368.395
 11
-97.0503
 21
368.357
  0
LINE
  8
0
 10
-97.0503
 20
368.357
 11
-96.7584
 21
368.283
  0
LINE
  8
0
 10
-96.7584
 20
368.283
 11
-96.4781
 21
368.172
  0
LINE
  8
0
 10
-96.4781
 20
368.172
 11
-96.214
 21
368.026
  0
LINE
  8
0
 10
-96.214
 20
368.026
 11
-95.9702
 21
367.849
  0
LINE
  8
0
 10
-95.9702
 20
367.849
 11
-95.7505
 21
367.643
  0
LINE
  8
0
 10
-95.7505
 20
367.643
 11
-95.5583
 21
367.411
  0
LINE
  8
0
 10
-95.5583
 20
367.411
 11
-95.3969
 21
367.156
  0
LINE
  8
0
 10
-95.3969
 20
367.156
 11
-95.2685
 21
366.883
  0
LINE
  8
0
 10
-95.2685
 20
366.883
 11
-95.1754
 21
366.597
  0
LINE
  8
0
 10
-95.1754
 20
366.597
 11
-95.1189
 21
366.301
  0
LINE
  8
0
 10
-95.1189
 20
366.301
 11
-95.1
 21
366
  0
LINE
  8
0
 10
-95.1
 20
366
 11
-95.1189
 21
365.699
  0
LINE
  8
0
 10
-95.1189
 20
365.699
 11
-95.1754
 21
365.403
  0
LINE
  8
0
 10
-95.1754
 20
365.403
 11
-95.2685
 21
365.117
  0
LINE
  8
0
 10
-95.2685
 20
365.117
 11
-95.3969
 21
364.844
  0
LINE
  8
0
 10
-95.3969
 20
364.844
 11
-95.5583
 21
364.589
  0
LINE
  8
0
 10
-95.5583
 20
364.589
 11
-95.7505
 21
364.357
  0
LINE
  8
0
 10
-95.7505
 20
364.357
 11
-95.9702
 21
364.151
  0
LINE
  8
0
 10
-95.9702
 20
364.151
 11
-96.214
 21
363.974
  0
LINE
  8
0
 10
-96.214
 20
363.974
 11
-96.4781
 21
363.828
  0
LINE
  8
0
 10
-96.4781
 20
363.828
 11
-96.7584
 21
363.717
  0
LINE
  8
0
 10
-96.7584
 20
363.717
 11
-97.0503
 21
363.643
  0
LINE
  8
0
 10
-97.0503
 20
363.643
 11
-97.3493
 21
363.605
  0
LINE
  8
0
 10
-97.3493
 20
363.605
 11
-97.6507
 21
363.605
  0
LINE
  8
0
 10
97.3493
 20
303.605
 11
97.0503
 21
303.643
  0
LINE
  8
0
 10
97.0503
 20
303.643
 11
96.7584
 21
303.717
  0
LINE
  8
0
 10
96.7584
 20
303.717
 11
96.4781
 21
303.828
  0
LINE
  8
0
 10
96.4781
 20
303.828
 11
96.214
 21
303.974
  0
LINE
  8
0
 10
96.214
 20
303.974
 11
95.9702
 21
304.151
  0
LINE
  8
0
 10
95.9702
 20
304.151
 11
95.7505
 21
304.357
  0
LINE
  8
0
 10
95.7505
 20
304.357
 11
95.5583
 21
304.589
  0
LINE
  8
0
 10
95.5583
 20
304.589
 11
95.3969
 21
304.844
  0
LINE
  8
0
 10
95.3969
 20
304.844
 11
95.2685
 21
305.117
  0
LINE
  8
0
 10
95.2685
 20
305.117
 11
95.1754
 21
305.403
  0
LINE
  8
0
 10
95.1754
 20
305.403
 11
95.1189
 21
305.699
  0
LINE
  8
0
 10
95.1189
 20
305.699
 11
95.1
 21
306
  0
LINE
  8
0
 10
95.1
 20
306
 11
95.1189
 21
306.301
  0
LINE
  8
0
 10
95.1189
 20
306.301
 11
95.1754
 21
306.597
  0
LINE
  8
0
 10
95.1754
 20
306.597
 11
95.2685
 21
306.883
  0
LINE
  8
0
 10
95.2685
 20
306.883
 11
95.3969
 21
307.156
  0
LINE
  8
0
 10
95.3969
 20
307.156
 11
95.5583
 21
307.411
  0
LINE
  8
0
 10
95.5583
 20
307.411
 11
95.7505
 21
307.643
  0
LINE
  8
0
 10
95.7505
 20
307.643
 11
95.9702
 21
307.849
  0
LINE
  8
0
 10
95.9702
 20
307.849
 11
96.214
 21
308.026
  0
LINE
  8
0
 10
96.214
 20
308.026
 11
96.4781
 21
308.172
  0
LINE
  8
0
 10
96.4781
 20
308.172
 11
96.7584
 21
308.283
  0
LINE
  8
0
 10
96.7584
 20
308.283
 11
97.0503
 21
308.357
  0
LINE
  8
0
 10
97.0503
 20
308.357
 11
97.3493
 21
308.395
  0
LINE
  8
0
 10
97.3493
 20
308.395
 11
97.6507
 21
308.395
  0
LINE
  8
0
 10
97.6507
 20
308.395
 11
97.9497
 21
308.357
  0
LINE
  8
0
 10
97.9497
 20
308.357
 11
98.2416
 21
308.283
  0
LINE
  8
0
 10
98.2416
 20
308.283
 11
98.5219
 21
308.172
  0
LINE
  8
0
 10
98.5219
 20
308.172
 11
98.786
 21
308.026
  0
LINE
  8
0
 10
98.786
 20
308.026
 11
99.0298
 21
307.849
  0
LINE
  8
0
 10
99.0298
 20
307.849
 11
99.2495
 21
307.643
  0
LINE
  8
0
 10
99.2495
 20
307.643
 11
99.4416
 21
307.411
  0
LINE
  8
0
 10
99.4416
 20
307.411
 11
99.6031
 21
307.156
  0
LINE
  8
0
 10
99.6031
 20
307.156
 11
99.7315
 21
306.883
  0
LINE
  8
0
 10
99.7315
 20
306.883
 11
99.8246
 21
306.597
  0
LINE
  8
0
 10
99.8246
 20
306.597
 11
99.8811
 21
306.301
  0
LINE
  8
0
 10
99.8811
 20
306.301
 11
99.9
 21
306
  0
LINE
  8
0
 10
99.9
 20
306
 11
99.8811
 21
305.699
  0
LINE
  8
0
 10
99.8811
 20
305.699
 11
99.8246
 21
305.403
  0
LINE
  8
0
 10
99.8246
 20
305.403
 11
99.7315
 21
305.117
  0
LINE
  8
0
 10
99.7315
 20
305.117
 11
99.6031
 21
304.844
  0
LINE
  8
0
 10
99.6031
 20
304.844
 11
99.4416
 21
304.589
  0
LINE
  8
0
 10
99.4416
 20
304.589
 11
99.2495
 21
304.357
  0
LINE
  8
0
 10
99.2495
 20
304.357
 11
99.0298
 21
304.151
  0
LINE
  8
0
 10
99.0298
 20
304.151
 11
98.786
 21
303.974
  0
LINE
  8
0
 10
98.786
 20
303.974
 11
98.5219
 21
303.828
  0
LINE
  8
0
 10
98.5219
 20
303.828
 11
98.2416
 21
303.717
  0
LINE
  8
0
 10
98.2416
 20
303.717
 11
97.9497
 21
303.643
  0
LINE
  8
0
 10
97.9497
 20
303.643
 11
97.6507
 21
303.605
  0
LINE
  8
0
 10
97.6507
 20
303.605
 11
97.3493
 21
303.605
  0
LINE
  8
0
 10
-97.6507
 20
303.605
 11
-97.9497
 21
303.643
  0
LINE
  8
0
 10
-97.9497
 20
303.643
 11
-98.2416
 21
303.717
  0
LINE
  8
0
 10
-98.2416
 20
303.717
 11
-98.5219
 21
303.828
  0
LINE
  8
0
 10
-98.5219
 20
303.828
 11
-98.786
 21
303.974
  0
LINE
  8
0
 10
-98.786
 20
303.974
 11
-99.0298
 21
304.151
  0
LINE
  8
0
 10
-99.0298
 20
304.151
 11
-99.2495
 21
304.357
  0
LINE
  8
0
 10
-99.2495
 20
304.357
 11
-99.4416
 21
304.589
  0
LINE
  8
0
 10
-99.4416
 20
304.589
 11
-99.6031
 21
304.844
  0
LINE
  8
0
 10
-99.6031
 20
304.844
 11
-99.7315
 21
305.117
  0
LINE
  8
0
 10
-99.7315
 20
305.117
 11
-99.8246
 21
305.403
  0
LINE
  8
0
 10
-99.8246
 20
305.403
 11
-99.8811
 21
305.699
  0
LINE
  8
0
 10
-99.8811
 20
305.699
 11
-99.9
 21
306
  0
LINE
  8
0
 10
-99.9
 20
306
 11
-99.8811
 21
306.301
  0
LINE
  8
0
 10
-99.8811
 20
306.301
 11
-99.8246
 21
306.597
  0
LINE
  8
0
 10
-99.8246
 20
306.597
 11
-99.7315
 21
306.883
  0
LINE
  8
0
 10
-99.7315
 20
306.883
 11
-99.6031
 21
307.156
  0
LINE
  8
0
 10
-99.6031
 20
307.156
 11
-99.4416
 21
307.411
  0
LINE
  8
0
 10
-99.4416
 20
307.411
 11
-99.2495
 21
307.643
  0
LINE
  8
0
 10
-99.2495
 20
307.643
 11
-99.0298
 21
307.849
  0
LINE
  8
0
 10
-99.0298
 20
307.849
 11
-98.786
 21
308.026
  0
LINE
  8
0
 10
-98.786
 20
308.026
 11
-98.5219
 21
308.172
  0
LINE
  8
0
 10
-98.5219
 20
308.172
 11
-98.2416
 21
308.283
  0
LINE
  8
0
 10
-98.2416
 20
308.283
 11
-97.9497
 21
308.357
  0
LINE
  8
0
 10
-97.9497
 20
308.357
 11
-97.6507
 21
308.395
  0
LINE
  8
0
 10
-97.6507
 20
308.395
 11
-97.3493
 21
308.395
  0
LINE
  8
0
 10
-97.3493
 20
308.395
 11
-97.0503
 21
308.357
  0
LINE
  8
0
 10
-97.0503
 20
308.357
 11
-96.7584
 21
308.283
  0
LINE
  8
0
 10
-96.7584
 20
308.283
 11
-96.4781
 21
308.172
  0
LINE
  8
0
 10
-96.4781
 20
308.172
 11
-96.214
 21
308.026
  0
LINE
  8
0
 10
-96.214
 20
308.026
 11
-95.9702
 21
307.849
  0
LINE
  8
0
 10
-95.9702
 20
307.849
 11
-95.7505
 21
307.643
  0
LINE
  8
0
 10
-95.7505
 20
307.643
 11
-95.5583
 21
307.411
  0
LINE
  8
0
 10
-95.5583
 20
307.411
 11
-95.3969
 21
307.156
  0
LINE
  8
0
 10
-95.3969
 20
307.156
 11
-95.2685
 21
306.883
  0
LINE
  8
0
 10
-95.2685
 20
306.883
 11
-95.1754
 21
306.597
  0
LINE
  8
0
 10
-95.1754
 20
306.597
 11
-95.1189
 21
306.301
  0
LINE
  8
0
 10
-95.1189
 20
306.301
 11
-95.1
 21
306
  0
LINE
  8
0
 10
-95.1
 20
306
 11
-95.1189
 21
305.699
  0
LINE
  8
0
 10
-95.1189
 20
305.699
 11
-95.1754
 21
305.403
  0
LINE
  8
0
 10
-95.1754
 20
305.403
 11
-95.2685
 21
305.117
  0
LINE
  8
0
 10
-95.2685
 20
305.117
 11
-95.3969
 21
304.844
  0
LINE
  8
0
 10
-95.3969
 20
304.844
 11
-95.5583
 21
304.589
  0
LINE
  8
0
 10
-95.5583
 20
304.589
 11
-95.7505
 21
304.357
  0
LINE
  8
0
 10
-95.7505
 20
304.357
 11
-95.9702
 21
304.151
  0
LINE
  8
0
 10
-95.9702
 20
304.151
 11
-96.214
 21
303.974
  0
LINE
  8
0
 10
-96.214
 20
303.974
 11
-96.4781
 21
303.828
  0
LINE
  8
0
 10
-96.4781
 20
303.828
 11
-96.7584
 21
303.717
  0
LINE
  8
0
 10
-96.7584
 20
303.717
 11
-97.0503
 21
303.643
  0
LINE
  8
0
 10
-97.0503
 20
303.643
 11
-97.3493
 21
303.605
  0
LINE
  8
0
 10
-97.3493
 20
303.605
 11
-97.6507
 21
303.605
  0
LINE
  8
0
 10
100.937
 20
214.589
 11
101.545
 21
214.745
  0
LINE
  8
0
 10
101.545
 20
214.745
 11
102.129
 21
214.976
  0
LINE
  8
0
 10
102.129
 20
214.976
 11
102.679
 21
215.278
  0
LINE
  8
0
 10
102.679
 20
215.278
 11
103.187
 21
215.647
  0
LINE
  8
0
 10
103.187
 20
215.647
 11
103.645
 21
216.077
  0
LINE
  8
0
 10
103.645
 20
216.077
 11
104.045
 21
216.561
  0
LINE
  8
0
 10
104.045
 20
216.561
 11
104.382
 21
217.091
  0
LINE
  8
0
 10
104.382
 20
217.091
 11
104.649
 21
217.659
  0
LINE
  8
0
 10
104.649
 20
217.659
 11
104.843
 21
218.257
  0
LINE
  8
0
 10
104.843
 20
218.257
 11
104.961
 21
218.873
  0
LINE
  8
0
 10
104.961
 20
218.873
 11
105
 21
219.5
  0
LINE
  8
0
 10
105
 20
219.5
 11
105
 21
284.5
  0
LINE
  8
0
 10
105
 20
284.5
 11
104.961
 21
285.127
  0
LINE
  8
0
 10
104.961
 20
285.127
 11
104.843
 21
285.743
  0
LINE
  8
0
 10
104.843
 20
285.743
 11
104.649
 21
286.341
  0
LINE
  8
0
 10
104.649
 20
286.341
 11
104.382
 21
286.909
  0
LINE
  8
0
 10
104.382
 20
286.909
 11
104.045
 21
287.439
  0
LINE
  8
0
 10
104.045
 20
287.439
 11
103.645
 21
287.923
  0
LINE
  8
0
 10
103.645
 20
287.923
 11
103.187
 21
288.353
  0
LINE
  8
0
 10
103.187
 20
288.353
 11
102.679
 21
288.722
  0
LINE
  8
0
 10
102.679
 20
288.722
 11
102.129
 21
289.024
  0
LINE
  8
0
 10
102.129
 20
289.024
 11
101.545
 21
289.255
  0
LINE
  8
0
 10
101.545
 20
289.255
 11
100.937
 21
289.411
  0
LINE
  8
0
 10
100.937
 20
289.411
 11
100.314
 21
289.49
  0
LINE
  8
0
 10
100.314
 20
289.49
 11
-100.314
 21
289.49
  0
LINE
  8
0
 10
-100.314
 20
289.49
 11
-100.937
 21
289.411
  0
LINE
  8
0
 10
-100.937
 20
289.411
 11
-101.545
 21
289.255
  0
LINE
  8
0
 10
-101.545
 20
289.255
 11
-102.129
 21
289.024
  0
LINE
  8
0
 10
-102.129
 20
289.024
 11
-102.679
 21
288.722
  0
LINE
  8
0
 10
-102.679
 20
288.722
 11
-103.187
 21
288.353
  0
LINE
  8
0
 10
-103.187
 20
288.353
 11
-103.645
 21
287.923
  0
LINE
  8
0
 10
-103.645
 20
287.923
 11
-104.045
 21
287.439
  0
LINE
  8
0
 10
-104.045
 20
287.439
 11
-104.382
 21
286.909
  0
LINE
  8
0
 10
-104.382
 20
286.909
 11
-104.649
 21
286.341
  0
LINE
  8
0
 10
-104.649
 20
286.341
 11
-104.843
 21
285.743
  0
LINE
  8
0
 10
-104.843
 20
285.743
 11
-104.961
 21
285.127
  0
LINE
  8
0
 10
-104.961
 20
285.127
 11
-105
 21
284.5
  0
LINE
  8
0
 10
-105
 20
284.5
 11
-105
 21
219.5
  0
LINE
  8
0
 10
-105
 20
219.5
 11
-104.961
 21
218.873
  0
LINE
  8
0
 10
-104.961
 20
218.873
 11
-104.843
 21
218.257
  0
LINE
  8
0
 10
-104.843
 20
218.257
 11
-104.649
 21
217.659
  0
LINE
  8
0
 10
-104.649
 20
217.659
 11
-104.382
 21
217.091
  0
LINE
  8
0
 10
-104.382
 20
217.091
 11
-104.045
 21
216.561
  0
LINE
  8
0
 10
-104.045
 20
216.561
 11
-103.645
 21
216.077
  0
LINE
  8
0
 10
-103.645
 20
216.077
 11
-103.187
 21
215.647
  0
LINE
  8
0
 10
-103.187
 20
215.647
 11
-102.679
 21
215.278
  0
LINE
  8
0
 10
-102.679
 20
215.278
 11
-102.129
 21
214.976
  0
LINE
  8
0
 10
-102.129
 20
214.976
 11
-101.545
 21
214.745
  0
LINE
  8
0
 10
-101.545
 20
214.745
 11
-100.937
 21
214.589
  0
LINE
  8
0
 10
-100.937
 20
214.589
 11
-100.314
 21
214.51
  0
LINE
  8
0
 10
-100.314
 20
214.51
 11
100.314
 21
214.51
  0
LINE
  8
0
 10
100.314
 20
214.51
 11
100.937
 21
214.589
  0
LINE
  8
0
 10
-97.613
 20
280.204
 11
-97.8373
 21
280.232
  0
LINE
  8
0
 10
-97.8373
 20
280.232
 11
-98.0562
 21
280.288
  0
LINE
  8
0
 10
-98.0562
 20
280.288
 11
-98.2664
 21
280.371
  0
LINE
  8
0
 10
-98.2664
 20
280.371
 11
-98.4645
 21
280.48
  0
LINE
  8
0
 10
-98.4645
 20
280.48
 11
-98.6474
 21
280.613
  0
LINE
  8
0
 10
-98.6474
 20
280.613
 11
-98.8121
 21
280.768
  0
LINE
  8
0
 10
-98.8121
 20
280.768
 11
-98.9562
 21
280.942
  0
LINE
  8
0
 10
-98.9562
 20
280.942
 11
-99.0773
 21
281.133
  0
LINE
  8
0
 10
-99.0773
 20
281.133
 11
-99.1736
 21
281.337
  0
LINE
  8
0
 10
-99.1736
 20
281.337
 11
-99.2434
 21
281.552
  0
LINE
  8
0
 10
-99.2434
 20
281.552
 11
-99.2858
 21
281.774
  0
LINE
  8
0
 10
-99.2858
 20
281.774
 11
-99.3
 21
282
  0
LINE
  8
0
 10
-99.3
 20
282
 11
-99.2858
 21
282.226
  0
LINE
  8
0
 10
-99.2858
 20
282.226
 11
-99.2434
 21
282.448
  0
LINE
  8
0
 10
-99.2434
 20
282.448
 11
-99.1736
 21
282.663
  0
LINE
  8
0
 10
-99.1736
 20
282.663
 11
-99.0773
 21
282.867
  0
LINE
  8
0
 10
-99.0773
 20
282.867
 11
-98.9562
 21
283.058
  0
LINE
  8
0
 10
-98.9562
 20
283.058
 11
-98.8121
 21
283.232
  0
LINE
  8
0
 10
-98.8121
 20
283.232
 11
-98.6474
 21
283.387
  0
LINE
  8
0
 10
-98.6474
 20
283.387
 11
-98.4645
 21
283.52
  0
LINE
  8
0
 10
-98.4645
 20
283.52
 11
-98.2664
 21
283.629
  0
LINE
  8
0
 10
-98.2664
 20
283.629
 11
-98.0562
 21
283.712
  0
LINE
  8
0
 10
-98.0562
 20
283.712
 11
-97.8373
 21
283.768
  0
LINE
  8
0
 10
-97.8373
 20
283.768
 11
-97.613
 21
283.796
  0
LINE
  8
0
 10
-97.613
 20
283.796
 11
-97.387
 21
283.796
  0
LINE
  8
0
 10
-97.387
 20
283.796
 11
-97.1627
 21
283.768
  0
LINE
  8
0
 10
-97.1627
 20
283.768
 11
-96.9438
 21
283.712
  0
LINE
  8
0
 10
-96.9438
 20
283.712
 11
-96.7336
 21
283.629
  0
LINE
  8
0
 10
-96.7336
 20
283.629
 11
-96.5355
 21
283.52
  0
LINE
  8
0
 10
-96.5355
 20
283.52
 11
-96.3526
 21
283.387
  0
LINE
  8
0
 10
-96.3526
 20
283.387
 11
-96.1879
 21
283.232
  0
LINE
  8
0
 10
-96.1879
 20
283.232
 11
-96.0438
 21
283.058
  0
LINE
  8
0
 10
-96.0438
 20
283.058
 11
-95.9226
 21
282.867
  0
LINE
  8
0
 10
-95.9226
 20
282.867
 11
-95.8264
 21
282.663
  0
LINE
  8
0
 10
-95.8264
 20
282.663
 11
-95.7565
 21
282.448
  0
LINE
  8
0
 10
-95.7565
 20
282.448
 11
-95.7142
 21
282.226
  0
LINE
  8
0
 10
-95.7142
 20
282.226
 11
-95.7
 21
282
  0
LINE
  8
0
 10
-95.7
 20
282
 11
-95.7142
 21
281.774
  0
LINE
  8
0
 10
-95.7142
 20
281.774
 11
-95.7565
 21
281.552
  0
LINE
  8
0
 10
-95.7565
 20
281.552
 11
-95.8264
 21
281.337
  0
LINE
  8
0
 10
-95.8264
 20
281.337
 11
-95.9226
 21
281.133
  0
LINE
  8
0
 10
-95.9226
 20
281.133
 11
-96.0438
 21
280.942
  0
LINE
  8
0
 10
-96.0438
 20
280.942
 11
-96.1879
 21
280.768
  0
LINE
  8
0
 10
-96.1879
 20
280.768
 11
-96.3526
 21
280.613
  0
LINE
  8
0
 10
-96.3526
 20
280.613
 11
-96.5355
 21
280.48
  0
LINE
  8
0
 10
-96.5355
 20
280.48
 11
-96.7336
 21
280.371
  0
LINE
  8
0
 10
-96.7336
 20
280.371
 11
-96.9438
 21
280.288
  0
LINE
  8
0
 10
-96.9438
 20
280.288
 11
-97.1627
 21
280.232
  0
LINE
  8
0
 10
-97.1627
 20
280.232
 11
-97.387
 21
280.204
  0
LINE
  8
0
 10
-97.387
 20
280.204
 11
-97.613
 21
280.204
  0
LINE
  8
0
 10
97.387
 20
280.204
 11
97.1627
 21
280.232
  0
LINE
  8
0
 10
97.1627
 20
280.232
 11
96.9438
 21
280.288
  0
LINE
  8
0
 10
96.9438
 20
280.288
 11
96.7336
 21
280.371
  0
LINE
  8
0
 10
96.7336
 20
280.371
 11
96.5355
 21
280.48
  0
LINE
  8
0
 10
96.5355
 20
280.48
 11
96.3526
 21
280.613
  0
LINE
  8
0
 10
96.3526
 20
280.613
 11
96.1879
 21
280.768
  0
LINE
  8
0
 10
96.1879
 20
280.768
 11
96.0438
 21
280.942
  0
LINE
  8
0
 10
96.0438
 20
280.942
 11
95.9226
 21
281.133
  0
LINE
  8
0
 10
95.9226
 20
281.133
 11
95.8264
 21
281.337
  0
LINE
  8
0
 10
95.8264
 20
281.337
 11
95.7565
 21
281.552
  0
LINE
  8
0
 10
95.7565
 20
281.552
 11
95.7142
 21
281.774
  0
LINE
  8
0
 10
95.7142
 20
281.774
 11
95.7
 21
282
  0
LINE
  8
0
 10
95.7
 20
282
 11
95.7142
 21
282.226
  0
LINE
  8
0
 10
95.7142
 20
282.226
 11
95.7565
 21
282.448
  0
LINE
  8
0
 10
95.7565
 20
282.448
 11
95.8264
 21
282.663
  0
LINE
  8
0
 10
95.8264
 20
282.663
 11
95.9226
 21
282.867
  0
LINE
  8
0
 10
95.9226
 20
282.867
 11
96.0438
 21
283.058
  0
LINE
  8
0
 10
96.0438
 20
283.058
 11
96.1879
 21
283.232
  0
LINE
  8
0
 10
96.1879
 20
283.232
 11
96.3526
 21
283.387
  0
LINE
  8
0
 10
96.3526
 20
283.387
 11
96.5355
 21
283.52
  0
LINE
  8
0
 10
96.5355
 20
283.52
 11
96.7336
 21
283.629
  0
LINE
  8
0
 10
96.7336
 20
283.629
 11
96.9438
 21
283.712
  0
LINE
  8
0
 10
96.9438
 20
283.712
 11
97.1627
 21
283.768
  0
LINE
  8
0
 10
97.1627
 20
283.768
 11
97.387
 21
283.796
  0
LINE
  8
0
 10
97.387
 20
283.796
 11
97.613
 21
283.796
  0
LINE
  8
0
 10
97.613
 20
283.796
 11
97.8373
 21
283.768
  0
LINE
  8
0
 10
97.8373
 20
283.768
 11
98.0562
 21
283.712
  0
LINE
  8
0
 10
98.0562
 20
283.712
 11
98.2664
 21
283.629
  0
LINE
  8
0
 10
98.2664
 20
283.629
 11
98.4645
 21
283.52
  0
LINE
  8
0
 10
98.4645
 20
283.52
 11
98.6474
 21
283.387
  0
LINE
  8
0
 10
98.6474
 20
283.387
 11
98.8121
 21
283.232
  0
LINE
  8
0
 10
98.8121
 20
283.232
 11
98.9562
 21
283.058
  0
LINE
  8
0
 10
98.9562
 20
283.058
 11
99.0773
 21
282.867
  0
LINE
  8
0
 10
99.0773
 20
282.867
 11
99.1736
 21
282.663
  0
LINE
  8
0
 10
99.1736
 20
282.663
 11
99.2434
 21
282.448
  0
LINE
  8
0
 10
99.2434
 20
282.448
 11
99.2858
 21
282.226
  0
LINE
  8
0
 10
99.2858
 20
282.226
 11
99.3
 21
282
  0
LINE
  8
0
 10
99.3
 20
282
 11
99.2858
 21
281.774
  0
LINE
  8
0
 10
99.2858
 20
281.774
 11
99.2434
 21
281.552
  0
LINE
  8
0
 10
99.2434
 20
281.552
 11
99.1736
 21
281.337
  0
LINE
  8
0
 10
99.1736
 20
281.337
 11
99.0773
 21
281.133
  0
LINE
  8
0
 10
99.0773
 20
281.133
 11
98.9562
 21
280.942
  0
LINE
  8
0
 10
98.9562
 20
280.942
 11
98.8121
 21
280.768
  0
LINE
  8
0
 10
98.8121
 20
280.768
 11
98.6474
 21
280.613
  0
LINE
  8
0
 10
98.6474
 20
280.613
 11
98.4645
 21
280.48
  0
LINE
  8
0
 10
98.4645
 20
280.48
 11
98.2664
 21
280.371
  0
LINE
  8
0
 10
98.2664
 20
280.371
 11
98.0562
 21
280.288
  0
LINE
  8
0
 10
98.0562
 20
280.288
 11
97.8373
 21
280.232
  0
LINE
  8
0
 10
97.8373
 20
280.232
 11
97.613
 21
280.204
  0
LINE
  8
0
 10
97.613
 20
280.204
 11
97.387
 21
280.204
  0
LINE
  8
0
 10
97.387
 20
220.204
 11
97.1627
 21
220.232
  0
LINE
  8
0
 10
97.1627
 20
220.232
 11
96.9438
 21
220.288
  0
LINE
  8
0
 10
96.9438
 20
220.288
 11
96.7336
 21
220.371
  0
LINE
  8
0
 10
96.7336
 20
220.371
 11
96.5355
 21
220.48
  0
LINE
  8
0
 10
96.5355
 20
220.48
 11
96.3526
 21
220.613
  0
LINE
  8
0
 10
96.3526
 20
220.613
 11
96.1879
 21
220.768
  0
LINE
  8
0
 10
96.1879
 20
220.768
 11
96.0438
 21
220.942
  0
LINE
  8
0
 10
96.0438
 20
220.942
 11
95.9226
 21
221.133
  0
LINE
  8
0
 10
95.9226
 20
221.133
 11
95.8264
 21
221.337
  0
LINE
  8
0
 10
95.8264
 20
221.337
 11
95.7565
 21
221.552
  0
LINE
  8
0
 10
95.7565
 20
221.552
 11
95.7142
 21
221.774
  0
LINE
  8
0
 10
95.7142
 20
221.774
 11
95.7
 21
222
  0
LINE
  8
0
 10
95.7
 20
222
 11
95.7142
 21
222.226
  0
LINE
  8
0
 10
95.7142
 20
222.226
 11
95.7565
 21
222.448
  0
LINE
  8
0
 10
95.7565
 20
222.448
 11
95.8264
 21
222.663
  0
LINE
  8
0
 10
95.8264
 20
222.663
 11
95.9226
 21
222.867
  0
LINE
  8
0
 10
95.9226
 20
222.867
 11
96.0438
 21
223.058
  0
LINE
  8
0
 10
96.0438
 20
223.058
 11
96.1879
 21
223.232
  0
LINE
  8
0
 10
96.1879
 20
223.232
 11
96.3526
 21
223.387
  0
LINE
  8
0
 10
96.3526
 20
223.387
 11
96.5355
 21
223.52
  0
LINE
  8
0
 10
96.5355
 20
223.52
 11
96.7336
 21
223.629
  0
LINE
  8
0
 10
96.7336
 20
223.629
 11
96.9438
 21
223.712
  0
LINE
  8
0
 10
96.9438
 20
223.712
 11
97.1627
 21
223.768
  0
LINE
  8
0
 10
97.1627
 20
223.768
 11
97.387
 21
223.796
  0
LINE
  8
0
 10
97.387
 20
223.796
 11
97.613
 21
223.796
  0
LINE
  8
0
 10
97.613
 20
223.796
 11
97.8373
 21
223.768
  0
LINE
  8
0
 10
97.8373
 20
223.768
 11
98.0562
 21
223.712
  0
LINE
  8
0
 10
98.0562
 20
223.712
 11
98.2664
 21
223.629
  0
LINE
  8
0
 10
98.2664
 20
223.629
 11
98.4645
 21
223.52
  0
LINE
  8
0
 10
98.4645
 20
223.52
 11
98.6474
 21
223.387
  0
LINE
  8
0
 10
98.6474
 20
223.387
 11
98.8121
 21
223.232
  0
LINE
  8
0
 10
98.8121
 20
223.232
 11
98.9562
 21
223.058
  0
LINE
  8
0
 10
98.9562
 20
223.058
 11
99.0773
 21
222.867
  0
LINE
  8
0
 10
99.0773
 20
222.867
 11
99.1736
 21
222.663
  0
LINE
  8
0
 10
99.1736
 20
222.663
 11
99.2434
 21
222.448
  0
LINE
  8
0
 10
99.2434
 20
222.448
 11
99.2858
 21
222.226
  0
LINE
  8
0
 10
99.2858
 20
222.226
 11
99.3
 21
222
  0
LINE
  8
0
 10
99.3
 20
222
 11
99.2858
 21
221.774
  0
LINE
  8
0
 10
99.2858
 20
221.774
 11
99.2434
 21
221.552
  0
LINE
  8
0
 10
99.2434
 20
221.552
 11
99.1736
 21
221.337
  0
LINE
  8
0
 10
99.1736
 20
221.337
 11
99.0773
 21
221.133
  0
LINE
  8
0
 10
99.0773
 20
221.133
 11
98.9562
 21
220.942
  0
LINE
  8
0
 10
98.9562
 20
220.942
 11
98.8121
 21
220.768
  0
LINE
  8
0
 10
98.8121
 20
220.768
 11
98.6474
 21
220.613
  0
LINE
  8
0
 10
98.6474
 20
220.613
 11
98.4645
 21
220.48
  0
LINE
  8
0
 10
98.4645
 20
220.48
 11
98.2664
 21
220.371
  0
LINE
  8
0
 10
98.2664
 20
220.371
 11
98.0562
 21
220.288
  0
LINE
  8
0
 10
98.0562
 20
220.288
 11
97.8373
 21
220.232
  0
LINE
  8
0
 10
97.8373
 20
220.232
 11
97.613
 21
220.204
  0
LINE
  8
0
 10
97.613
 20
220.204
 11
97.387
 21
220.204
  0
LINE
  8
0
 10
-97.613
 20
220.204
 11
-97.8373
 21
220.232
  0
LINE
  8
0
 10
-97.8373
 20
220.232
 11
-98.0562
 21
220.288
  0
LINE
  8
0
 10
-98.0562
 20
220.288
 11
-98.2664
 21
220.371
  0
LINE
  8
0
 10
-98.2664
 20
220.371
 11
-98.4645
 21
220.48
  0
LINE
  8
0
 10
-98.4645
 20
220.48
 11
-98.6474
 21
220.613
  0
LINE
  8
0
 10
-98.6474
 20
220.613
 11
-98.8121
 21
220.768
  0
LINE
  8
0
 10
-98.8121
 20
220.768
 11
-98.9562
 21
220.942
  0
LINE
  8
0
 10
-98.9562
 20
220.942
 11
-99.0773
 21
221.133
  0
LINE
  8
0
 10
-99.0773
 20
221.133
 11
-99.1736
 21
221.337
  0
LINE
  8
0
 10
-99.1736
 20
221.337
 11
-99.2434
 21
221.552
  0
LINE
  8
0
 10
-99.2434
 20
221.552
 11
-99.2858
 21
221.774
  0
LINE
  8
0
 10
-99.2858
 20
221.774
 11
-99.3
 21
222
  0
LINE
  8
0
 10
-99.3
 20
222
 11
-99.2858
 21
222.226
  0
LINE
  8
0
 10
-99.2858
 20
222.226
 11
-99.2434
 21
222.448
  0
LINE
  8
0
 10
-99.2434
 20
222.448
 11
-99.1736
 21
222.663
  0
LINE
  8
0
 10
-99.1736
 20
222.663
 11
-99.0773
 21
222.867
  0
LINE
  8
0
 10
-99.0773
 20
222.867
 11
-98.9562
 21
223.058
  0
LINE
  8
0
 10
-98.9562
 20
223.058
 11
-98.8121
 21
223.232
  0
LINE
  8
0
 10
-98.8121
 20
223.232
 11
-98.6474
 21
223.387
  0
LINE
  8
0
 10
-98.6474
 20
223.387
 11
-98.4645
 21
223.52
  0
LINE
  8
0
 10
-98.4645
 20
223.52
 11
-98.2664
 21
223.629
  0
LINE
  8
0
 10
-98.2664
 20
223.629
 11
-98.0562
 21
223.712
  0
LINE
  8
0
 10
-98.0562
 20
223.712
 11
-97.8373
 21
223.768
  0
LINE
  8
0
 10
-97.8373
 20
223.768
 11
-97.613
 21
223.796
  0
LINE
  8
0
 10
-97.613
 20
223.796
 11
-97.387
 21
223.796
  0
LINE
  8
0
 10
-97.387
 20
223.796
 11
-97.1627
 21
223.768
  0
LINE
  8
0
 10
-97.1627
 20
223.768
 11
-96.9438
 21
223.712
  0
LINE
  8
0
 10
-96.9438
 20
223.712
 11
-96.7336
 21
223.629
  0
LINE
  8
0
 10
-96.7336
 20
223.629
 11
-96.5355
 21
223.52
  0
LINE
  8
0
 10
-96.5355
 20
223.52
 11
-96.3526
 21
223.387
  0
LINE
  8
0
 10
-96.3526
 20
223.387
 11
-96.1879
 21
223.232
  0
LINE
  8
0
 10
-96.1879
 20
223.232
 11
-96.0438
 21
223.058
  0
LINE
  8
0
 10
-96.0438
 20
223.058
 11
-95.9226
 21
222.867
  0
LINE
  8
0
 10
-95.9226
 20
222.867
 11
-95.8264
 21
222.663
  0
LINE
  8
0
 10
-95.8264
 20
222.663
 11
-95.7565
 21
222.448
  0
LINE
  8
0
 10
-95.7565
 20
222.448
 11
-95.7142
 21
222.226
  0
LINE
  8
0
 10
-95.7142
 20
222.226
 11
-95.7
 21
222
  0
LINE
  8
0
 10
-95.7
 20
222
 11
-95.7142
 21
221.774
  0
LINE
  8
0
 10
-95.7142
 20
221.774
 11
-95.7565
 21
221.552
  0
LINE
  8
0
 10
-95.7565
 20
221.552
 11
-95.8264
 21
221.337
  0
LINE
  8
0
 10
-95.8264
 20
221.337
 11
-95.9226
 21
221.133
  0
LINE
  8
0
 10
-95.9226
 20
221.133
 11
-96.0438
 21
220.942
  0
LINE
  8
0
 10
-96.0438
 20
220.942
 11
-96.1879
 21
220.768
  0
LINE
  8
0
 10
-96.1879
 20
220.768
 11
-96.3526
 21
220.613
  0
LINE
  8
0
 10
-96.3526
 20
220.613
 11
-96.5355
 21
220.48
  0
LINE
  8
0
 10
-96.5355
 20
220.48
 11
-96.7336
 21
220.371
  0
LINE
  8
0
 10
-96.7336
 20
220.371
 11
-96.9438
 21
220.288
  0
LINE
  8
0
 10
-96.9438
 20
220.288
 11
-97.1627
 21
220.232
  0
LINE
  8
0
 10
-97.1627
 20
220.232
 11
-97.387
 21
220.204
  0
LINE
  8
0
 10
-97.387
 20
220.204
 11
-97.613
 21
220.204
  0
ENDSEC
  0
SECTION
  2
OBJECTS
  0
DICTIONARY
  0
ENDSEC
  0
EOF
