<?xml version="1.0" standalone="no"?>
<!DOCTYPE svg PUBLIC "-//W3C//DTD SVG 1.1//EN" "http://www.w3.org/Graphics/SVG/1.1/DTD/svg11.dtd">
<svg width="6mm" height="6mm" viewBox="-3 -3 6 6" xmlns="http://www.w3.org/2000/svg" version="1.1">
<title>OpenSCAD Model</title>
<path d="
M 0.562134,2.94685 L 0.927048,2.85316 L 1.27733,2.71448 L 1.60747,2.53297 L 1.91226,2.31154 L 2.1869,2.05363
 L 2.42705,1.76335 L 2.62891,1.44525 L 2.78932,1.10437 L 2.90575,0.746063 L 2.97633,0.375992 L 3,-0
 L 2.97633,-0.375992 L 2.90575,-0.746063 L 2.78932,-1.10437 L 2.62891,-1.44525 L 2.42705,-1.76335 L 2.1869,-2.05363
 L 1.91226,-2.31154 L 1.60747,-2.53297 L 1.27733,-2.71448 L 0.927048,-2.85316 L 0.562134,-2.94685 L 0.18837,-2.99408
 L -0.18837,-2.99408 L -0.562134,-2.94685 L -0.927048,-2.85316 L -1.27733,-2.71448 L -1.60747,-2.53297 L -1.91226,-2.31154
 L -2.1869,-2.05363 L -2.42705,-1.76335 L -2.62891,-1.44525 L -2.78932,-1.10437 L -2.90575,-0.746063 L -2.97633,-0.375992
 L -3,-0 L -2.97633,0.375992 L -2.90575,0.746063 L -2.78932,1.10437 L -2.62891,1.44525 L -2.42705,1.76335
 L -2.1869,2.05363 L -1.91226,2.31154 L -1.60747,2.53297 L -1.27733,2.71448 L -0.927048,2.85316 L -0.562134,2.94685
 L -0.18837,2.99408 L 0.18837,2.99408 z
M -0.0941772,1.49704 L -0.281067,1.47342 L -0.463516,1.42657 L -0.638657,1.35724 L -0.803726,1.26648 L -0.956131,1.15576
 L -1.09344,1.02681 L -1.21352,0.881668 L -1.31445,0.722626 L -1.39465,0.552185 L -1.45287,0.373032 L -1.48816,0.187988
 L -1.5,-0 L -1.48816,-0.187988 L -1.45287,-0.373032 L -1.39465,-0.552185 L -1.31445,-0.722626 L -1.21352,-0.881668
 L -1.09344,-1.02681 L -0.956131,-1.15576 L -0.803726,-1.26648 L -0.638657,-1.35724 L -0.463516,-1.42657 L -0.281067,-1.47342
 L -0.0941772,-1.49704 L 0.0941772,-1.49704 L 0.281067,-1.47342 L 0.463516,-1.42657 L 0.638657,-1.35724 L 0.803726,-1.26648
 L 0.956131,-1.15576 L 1.09344,-1.02681 L 1.21352,-0.881668 L 1.31445,-0.722626 L 1.39465,-0.552185 L 1.45287,-0.373032
 L 1.48816,-0.187988 L 1.5,-0 L 1.48816,0.187988 L 1.45287,0.373032 L 1.39465,0.552185 L 1.31445,0.722626
 L 1.21352,0.881668 L 1.09344,1.02681 L 0.956131,1.15576 L 0.803726,1.26648 L 0.638657,1.35724 L 0.463516,1.42657
 L 0.281067,1.47342 L 0.0941772,1.49704 z
" stroke="black" fill="lightgray" stroke-width="0.5"/>
</svg>
