<?xml version="1.0" standalone="no"?>
<!DOCTYPE svg PUBLIC "-//W3C//DTD SVG 1.1//EN" "http://www.w3.org/Graphics/SVG/1.1/DTD/svg11.dtd">
<svg width="150mm" height="580mm" viewBox="-75 -731 150 580" xmlns="http://www.w3.org/2000/svg" version="1.1">
<title>OpenSCAD Model</title>
<path d="
M 70.9369,-445.589 L 71.5451,-445.745 L 72.1289,-445.976 L 72.6791,-446.278 L 73.1871,-446.647 L 73.6448,-447.077
 L 74.0451,-447.561 L 74.3815,-448.091 L 74.6489,-448.659 L 74.8429,-449.257 L 74.9606,-449.873 L 75,-450.5
 L 75,-725.5 L 74.9606,-726.127 L 74.8429,-726.743 L 74.6489,-727.341 L 74.3815,-727.909 L 74.0451,-728.439
 L 73.6448,-728.923 L 73.1871,-729.353 L 72.6791,-729.722 L 72.1289,-730.024 L 71.5451,-730.255 L 70.9369,-730.411
 L 70.3139,-730.49 L -70.3139,-730.49 L -70.9369,-730.411 L -71.5451,-730.255 L -72.1289,-730.024 L -72.6791,-729.722
 L -73.1871,-729.353 L -73.6448,-728.923 L -74.0451,-728.439 L -74.3815,-727.909 L -74.6489,-727.341 L -74.8429,-726.743
 L -74.9606,-726.127 L -75,-725.5 L -75,-450.5 L -74.9606,-449.873 L -74.8429,-449.257 L -74.6489,-448.659
 L -74.3815,-448.091 L -74.0451,-447.561 L -73.6448,-447.077 L -73.1871,-446.647 L -72.6791,-446.278 L -72.1289,-445.976
 L -71.5451,-445.745 L -70.9369,-445.589 L -70.3139,-445.51 L 70.3139,-445.51 z
M 67.3493,-720.605 L 67.0503,-720.643 L 66.7584,-720.717 L 66.4781,-720.828 L 66.214,-720.974 L 65.9702,-721.151
 L 65.7505,-721.357 L 65.5583,-721.589 L 65.3969,-721.844 L 65.2685,-722.117 L 65.1754,-722.403 L 65.1189,-722.699
 L 65.1,-723 L 65.1189,-723.301 L 65.1754,-723.597 L 65.2685,-723.883 L 65.3969,-724.156 L 65.5583,-724.411
 L 65.7505,-724.643 L 65.9702,-724.849 L 66.214,-725.026 L 66.4781,-725.172 L 66.7584,-725.283 L 67.0503,-725.357
 L 67.3493,-725.395 L 67.6507,-725.395 L 67.9497,-725.357 L 68.2416,-725.283 L 68.5219,-725.172 L 68.786,-725.026
 L 69.0298,-724.849 L 69.2495,-724.643 L 69.4416,-724.411 L 69.6031,-724.156 L 69.7315,-723.883 L 69.8246,-723.597
 L 69.8811,-723.301 L 69.9,-723 L 69.8811,-722.699 L 69.8246,-722.403 L 69.7315,-722.117 L 69.6031,-721.844
 L 69.4416,-721.589 L 69.2495,-721.357 L 69.0298,-721.151 L 68.786,-720.974 L 68.5219,-720.828 L 68.2416,-720.717
 L 67.9497,-720.643 L 67.6507,-720.605 z
M -67.6507,-720.605 L -67.9497,-720.643 L -68.2416,-720.717 L -68.5219,-720.828 L -68.786,-720.974 L -69.0298,-721.151
 L -69.2495,-721.357 L -69.4416,-721.589 L -69.6031,-721.844 L -69.7315,-722.117 L -69.8246,-722.403 L -69.8811,-722.699
 L -69.9,-723 L -69.8811,-723.301 L -69.8246,-723.597 L -69.7315,-723.883 L -69.6031,-724.156 L -69.4416,-724.411
 L -69.2495,-724.643 L -69.0298,-724.849 L -68.786,-725.026 L -68.5219,-725.172 L -68.2416,-725.283 L -67.9497,-725.357
 L -67.6507,-725.395 L -67.3493,-725.395 L -67.0503,-725.357 L -66.7584,-725.283 L -66.4781,-725.172 L -66.214,-725.026
 L -65.9702,-724.849 L -65.7505,-724.643 L -65.5583,-724.411 L -65.3969,-724.156 L -65.2685,-723.883 L -65.1754,-723.597
 L -65.1189,-723.301 L -65.1,-723 L -65.1189,-722.699 L -65.1754,-722.403 L -65.2685,-722.117 L -65.3969,-721.844
 L -65.5583,-721.589 L -65.7505,-721.357 L -65.9702,-721.151 L -66.214,-720.974 L -66.4781,-720.828 L -66.7584,-720.717
 L -67.0503,-720.643 L -67.3493,-720.605 z
M 67.3493,-450.605 L 67.0503,-450.643 L 66.7584,-450.717 L 66.4781,-450.828 L 66.214,-450.974 L 65.9702,-451.151
 L 65.7505,-451.357 L 65.5583,-451.589 L 65.3969,-451.844 L 65.2685,-452.117 L 65.1754,-452.403 L 65.1189,-452.699
 L 65.1,-453 L 65.1189,-453.301 L 65.1754,-453.597 L 65.2685,-453.883 L 65.3969,-454.156 L 65.5583,-454.411
 L 65.7505,-454.643 L 65.9702,-454.849 L 66.214,-455.026 L 66.4781,-455.172 L 66.7584,-455.283 L 67.0503,-455.357
 L 67.3493,-455.395 L 67.6507,-455.395 L 67.9497,-455.357 L 68.2416,-455.283 L 68.5219,-455.172 L 68.786,-455.026
 L 69.0298,-454.849 L 69.2495,-454.643 L 69.4416,-454.411 L 69.6031,-454.156 L 69.7315,-453.883 L 69.8246,-453.597
 L 69.8811,-453.301 L 69.9,-453 L 69.8811,-452.699 L 69.8246,-452.403 L 69.7315,-452.117 L 69.6031,-451.844
 L 69.4416,-451.589 L 69.2495,-451.357 L 69.0298,-451.151 L 68.786,-450.974 L 68.5219,-450.828 L 68.2416,-450.717
 L 67.9497,-450.643 L 67.6507,-450.605 z
M -67.6507,-450.605 L -67.9497,-450.643 L -68.2416,-450.717 L -68.5219,-450.828 L -68.786,-450.974 L -69.0298,-451.151
 L -69.2495,-451.357 L -69.4416,-451.589 L -69.6031,-451.844 L -69.7315,-452.117 L -69.8246,-452.403 L -69.8811,-452.699
 L -69.9,-453 L -69.8811,-453.301 L -69.8246,-453.597 L -69.7315,-453.883 L -69.6031,-454.156 L -69.4416,-454.411
 L -69.2495,-454.643 L -69.0298,-454.849 L -68.786,-455.026 L -68.5219,-455.172 L -68.2416,-455.283 L -67.9497,-455.357
 L -67.6507,-455.395 L -67.3493,-455.395 L -67.0503,-455.357 L -66.7584,-455.283 L -66.4781,-455.172 L -66.214,-455.026
 L -65.9702,-454.849 L -65.7505,-454.643 L -65.5583,-454.411 L -65.3969,-454.156 L -65.2685,-453.883 L -65.1754,-453.597
 L -65.1189,-453.301 L -65.1,-453 L -65.1189,-452.699 L -65.1754,-452.403 L -65.2685,-452.117 L -65.3969,-451.844
 L -65.5583,-451.589 L -65.7505,-451.357 L -65.9702,-451.151 L -66.214,-450.974 L -66.4781,-450.828 L -66.7584,-450.717
 L -67.0503,-450.643 L -67.3493,-450.605 z
M 70.9369,-151.589 L 71.5451,-151.745 L 72.1289,-151.976 L 72.6791,-152.278 L 73.1871,-152.647 L 73.6448,-153.077
 L 74.0451,-153.561 L 74.3815,-154.091 L 74.6489,-154.659 L 74.8429,-155.257 L 74.9606,-155.873 L 75,-156.5
 L 75,-431.5 L 74.9606,-432.127 L 74.8429,-432.743 L 74.6489,-433.341 L 74.3815,-433.909 L 74.0451,-434.439
 L 73.6448,-434.923 L 73.1871,-435.353 L 72.6791,-435.722 L 72.1289,-436.024 L 71.5451,-436.255 L 70.9369,-436.411
 L 70.3139,-436.49 L -70.3139,-436.49 L -70.9369,-436.411 L -71.5451,-436.255 L -72.1289,-436.024 L -72.6791,-435.722
 L -73.1871,-435.353 L -73.6448,-434.923 L -74.0451,-434.439 L -74.3815,-433.909 L -74.6489,-433.341 L -74.8429,-432.743
 L -74.9606,-432.127 L -75,-431.5 L -75,-156.5 L -74.9606,-155.873 L -74.8429,-155.257 L -74.6489,-154.659
 L -74.3815,-154.091 L -74.0451,-153.561 L -73.6448,-153.077 L -73.1871,-152.647 L -72.6791,-152.278 L -72.1289,-151.976
 L -71.5451,-151.745 L -70.9369,-151.589 L -70.3139,-151.51 L 70.3139,-151.51 z
M -67.613,-427.204 L -67.8373,-427.232 L -68.0562,-427.288 L -68.2664,-427.371 L -68.4645,-427.48 L -68.6474,-427.613
 L -68.8121,-427.768 L -68.9562,-427.942 L -69.0773,-428.133 L -69.1736,-428.337 L -69.2434,-428.552 L -69.2858,-428.774
 L -69.3,-429 L -69.2858,-429.226 L -69.2434,-429.448 L -69.1736,-429.663 L -69.0773,-429.867 L -68.9562,-430.058
 L -68.8121,-430.232 L -68.6474,-430.387 L -68.4645,-430.52 L -68.2664,-430.629 L -68.0562,-430.712 L -67.8373,-430.768
 L -67.613,-430.796 L -67.387,-430.796 L -67.1627,-430.768 L -66.9438,-430.712 L -66.7336,-430.629 L -66.5355,-430.52
 L -66.3526,-430.387 L -66.1879,-430.232 L -66.0438,-430.058 L -65.9226,-429.867 L -65.8264,-429.663 L -65.7565,-429.448
 L -65.7142,-429.226 L -65.7,-429 L -65.7142,-428.774 L -65.7565,-428.552 L -65.8264,-428.337 L -65.9226,-428.133
 L -66.0438,-427.942 L -66.1879,-427.768 L -66.3526,-427.613 L -66.5355,-427.48 L -66.7336,-427.371 L -66.9438,-427.288
 L -67.1627,-427.232 L -67.387,-427.204 z
M 67.387,-427.204 L 67.1627,-427.232 L 66.9438,-427.288 L 66.7336,-427.371 L 66.5355,-427.48 L 66.3526,-427.613
 L 66.1879,-427.768 L 66.0438,-427.942 L 65.9226,-428.133 L 65.8264,-428.337 L 65.7565,-428.552 L 65.7142,-428.774
 L 65.7,-429 L 65.7142,-429.226 L 65.7565,-429.448 L 65.8264,-429.663 L 65.9226,-429.867 L 66.0438,-430.058
 L 66.1879,-430.232 L 66.3526,-430.387 L 66.5355,-430.52 L 66.7336,-430.629 L 66.9438,-430.712 L 67.1627,-430.768
 L 67.387,-430.796 L 67.613,-430.796 L 67.8373,-430.768 L 68.0562,-430.712 L 68.2664,-430.629 L 68.4645,-430.52
 L 68.6474,-430.387 L 68.8121,-430.232 L 68.9562,-430.058 L 69.0773,-429.867 L 69.1736,-429.663 L 69.2434,-429.448
 L 69.2858,-429.226 L 69.3,-429 L 69.2858,-428.774 L 69.2434,-428.552 L 69.1736,-428.337 L 69.0773,-428.133
 L 68.9562,-427.942 L 68.8121,-427.768 L 68.6474,-427.613 L 68.4645,-427.48 L 68.2664,-427.371 L 68.0562,-427.288
 L 67.8373,-427.232 L 67.613,-427.204 z
M -67.613,-157.204 L -67.8373,-157.232 L -68.0562,-157.288 L -68.2664,-157.371 L -68.4645,-157.48 L -68.6474,-157.613
 L -68.8121,-157.768 L -68.9562,-157.942 L -69.0773,-158.133 L -69.1736,-158.337 L -69.2434,-158.552 L -69.2858,-158.774
 L -69.3,-159 L -69.2858,-159.226 L -69.2434,-159.448 L -69.1736,-159.663 L -69.0773,-159.867 L -68.9562,-160.058
 L -68.8121,-160.232 L -68.6474,-160.387 L -68.4645,-160.52 L -68.2664,-160.629 L -68.0562,-160.712 L -67.8373,-160.768
 L -67.613,-160.796 L -67.387,-160.796 L -67.1627,-160.768 L -66.9438,-160.712 L -66.7336,-160.629 L -66.5355,-160.52
 L -66.3526,-160.387 L -66.1879,-160.232 L -66.0438,-160.058 L -65.9226,-159.867 L -65.8264,-159.663 L -65.7565,-159.448
 L -65.7142,-159.226 L -65.7,-159 L -65.7142,-158.774 L -65.7565,-158.552 L -65.8264,-158.337 L -65.9226,-158.133
 L -66.0438,-157.942 L -66.1879,-157.768 L -66.3526,-157.613 L -66.5355,-157.48 L -66.7336,-157.371 L -66.9438,-157.288
 L -67.1627,-157.232 L -67.387,-157.204 z
M 67.387,-157.204 L 67.1627,-157.232 L 66.9438,-157.288 L 66.7336,-157.371 L 66.5355,-157.48 L 66.3526,-157.613
 L 66.1879,-157.768 L 66.0438,-157.942 L 65.9226,-158.133 L 65.8264,-158.337 L 65.7565,-158.552 L 65.7142,-158.774
 L 65.7,-159 L 65.7142,-159.226 L 65.7565,-159.448 L 65.8264,-159.663 L 65.9226,-159.867 L 66.0438,-160.058
 L 66.1879,-160.232 L 66.3526,-160.387 L 66.5355,-160.52 L 66.7336,-160.629 L 66.9438,-160.712 L 67.1627,-160.768
 L 67.387,-160.796 L 67.613,-160.796 L 67.8373,-160.768 L 68.0562,-160.712 L 68.2664,-160.629 L 68.4645,-160.52
 L 68.6474,-160.387 L 68.8121,-160.232 L 68.9562,-160.058 L 69.0773,-159.867 L 69.1736,-159.663 L 69.2434,-159.448
 L 69.2858,-159.226 L 69.3,-159 L 69.2858,-158.774 L 69.2434,-158.552 L 69.1736,-158.337 L 69.0773,-158.133
 L 68.9562,-157.942 L 68.8121,-157.768 L 68.6474,-157.613 L 68.4645,-157.48 L 68.2664,-157.371 L 68.0562,-157.288
 L 67.8373,-157.232 L 67.613,-157.204 z
" stroke="black" fill="lightgray" stroke-width="0.5"/>
</svg>
