<?xml version="1.0" standalone="no"?>
<!DOCTYPE svg PUBLIC "-//W3C//DTD SVG 1.1//EN" "http://www.w3.org/Graphics/SVG/1.1/DTD/svg11.dtd">
<svg width="24mm" height="549mm" viewBox="-12 -972 24 549" xmlns="http://www.w3.org/2000/svg" version="1.1">
<title>OpenSCAD Model</title>
<path d="
M 7.1869,-702.089 L 7.79507,-702.245 L 8.37889,-702.476 L 8.92912,-702.778 L 9.43712,-703.147 L 9.89484,-703.577
 L 10.2951,-704.061 L 10.6315,-704.591 L 10.8989,-705.159 L 11.0929,-705.757 L 11.2106,-706.373 L 11.25,-707
 L 11.25,-967 L 11.2106,-967.627 L 11.0929,-968.243 L 10.8989,-968.841 L 10.6315,-969.409 L 10.2951,-969.939
 L 9.89484,-970.423 L 9.43712,-970.853 L 8.92912,-971.222 L 8.37889,-971.524 L 7.79507,-971.755 L 7.1869,-971.911
 L 6.56395,-971.99 L -6.56395,-971.99 L -7.1869,-971.911 L -7.79507,-971.755 L -8.37889,-971.524 L -8.92912,-971.222
 L -9.43712,-970.853 L -9.89484,-970.423 L -10.2951,-969.939 L -10.6315,-969.409 L -10.8989,-968.841 L -11.0929,-968.243
 L -11.2106,-967.627 L -11.25,-967 L -11.25,-707 L -11.2106,-706.373 L -11.0929,-705.757 L -10.8989,-705.159
 L -10.6315,-704.591 L -10.2951,-704.061 L -9.89484,-703.577 L -9.43712,-703.147 L -8.92912,-702.778 L -8.37889,-702.476
 L -7.79507,-702.245 L -7.1869,-702.089 L -6.56395,-702.01 L 6.56395,-702.01 z
M -5.94545,-704.393 L -6.3333,-704.442 L -6.71194,-704.539 L -7.07541,-704.683 L -7.41798,-704.872 L -7.73424,-705.101
 L -8.01921,-705.369 L -8.2684,-705.67 L -8.47786,-706 L -8.64432,-706.354 L -8.76512,-706.726 L -8.83836,-707.11
 L -8.86292,-707.5 L -8.86292,-966.5 L -8.83836,-966.89 L -8.76512,-967.274 L -8.64432,-967.646 L -8.47786,-968
 L -8.2684,-968.33 L -8.01921,-968.631 L -7.73424,-968.899 L -7.41798,-969.128 L -7.07541,-969.317 L -6.71194,-969.461
 L -6.3333,-969.558 L -5.94545,-969.607 L 5.94545,-969.607 L 6.3333,-969.558 L 6.71194,-969.461 L 7.07541,-969.317
 L 7.41798,-969.128 L 7.73424,-968.899 L 8.01921,-968.631 L 8.2684,-968.33 L 8.47786,-968 L 8.64432,-967.646
 L 8.76512,-967.274 L 8.83836,-966.89 L 8.86292,-966.5 L 8.86292,-707.5 L 8.83836,-707.11 L 8.76512,-706.726
 L 8.64432,-706.354 L 8.47786,-706 L 8.2684,-705.67 L 8.01921,-705.369 L 7.73424,-705.101 L 7.41798,-704.872
 L 7.07541,-704.683 L 6.71194,-704.539 L 6.3333,-704.442 L 5.94545,-704.393 z
M 7.1869,-423.089 L 7.79507,-423.245 L 8.37889,-423.476 L 8.92912,-423.778 L 9.43712,-424.147 L 9.89484,-424.577
 L 10.2951,-425.061 L 10.6315,-425.591 L 10.8989,-426.159 L 11.0929,-426.757 L 11.2106,-427.373 L 11.25,-428
 L 11.25,-688 L 11.2106,-688.627 L 11.0929,-689.243 L 10.8989,-689.841 L 10.6315,-690.409 L 10.2951,-690.939
 L 9.89484,-691.423 L 9.43712,-691.853 L 8.92912,-692.222 L 8.37889,-692.524 L 7.79507,-692.755 L 7.1869,-692.911
 L 6.56395,-692.99 L -6.56395,-692.99 L -7.1869,-692.911 L -7.79507,-692.755 L -8.37889,-692.524 L -8.92912,-692.222
 L -9.43712,-691.853 L -9.89484,-691.423 L -10.2951,-690.939 L -10.6315,-690.409 L -10.8989,-689.841 L -11.0929,-689.243
 L -11.2106,-688.627 L -11.25,-688 L -11.25,-428 L -11.2106,-427.373 L -11.0929,-426.757 L -10.8989,-426.159
 L -10.6315,-425.591 L -10.2951,-425.061 L -9.89484,-424.577 L -9.43712,-424.147 L -8.92912,-423.778 L -8.37889,-423.476
 L -7.79507,-423.245 L -7.1869,-423.089 L -6.56395,-423.01 L 6.56395,-423.01 z
M 3.61592,-683.369 L 3.34988,-683.403 L 3.09015,-683.469 L 2.84084,-683.568 L 2.60585,-683.697 L 2.3889,-683.855
 L 2.19344,-684.038 L 2.02251,-684.245 L 1.87881,-684.471 L 1.76465,-684.714 L 1.68178,-684.969 L 1.63153,-685.232
 L 1.6147,-685.5 L 1.63153,-685.768 L 1.68178,-686.031 L 1.76465,-686.286 L 1.87881,-686.529 L 2.02251,-686.755
 L 2.19344,-686.962 L 2.3889,-687.145 L 2.60585,-687.303 L 2.84084,-687.432 L 3.09015,-687.531 L 3.34988,-687.597
 L 3.61592,-687.631 L 3.88406,-687.631 L 4.1501,-687.597 L 4.40984,-687.531 L 4.65915,-687.432 L 4.89413,-687.303
 L 5.11108,-687.145 L 5.30655,-686.962 L 5.47748,-686.755 L 5.62117,-686.529 L 5.73534,-686.286 L 5.81821,-686.031
 L 5.86845,-685.768 L 5.88528,-685.5 L 5.86845,-685.232 L 5.81821,-684.969 L 5.73534,-684.714 L 5.62117,-684.471
 L 5.47748,-684.245 L 5.30655,-684.038 L 5.11108,-683.855 L 4.89413,-683.697 L 4.65915,-683.568 L 4.40984,-683.469
 L 4.1501,-683.403 L 3.88406,-683.369 z
M -3.88406,-683.369 L -4.1501,-683.403 L -4.40984,-683.469 L -4.65915,-683.568 L -4.89413,-683.697 L -5.11108,-683.855
 L -5.30655,-684.038 L -5.47748,-684.245 L -5.62117,-684.471 L -5.73534,-684.714 L -5.81821,-684.969 L -5.86845,-685.232
 L -5.88528,-685.5 L -5.86845,-685.768 L -5.81821,-686.031 L -5.73534,-686.286 L -5.62117,-686.529 L -5.47748,-686.755
 L -5.30655,-686.962 L -5.11108,-687.145 L -4.89413,-687.303 L -4.65915,-687.432 L -4.40984,-687.531 L -4.1501,-687.597
 L -3.88406,-687.631 L -3.61592,-687.631 L -3.34988,-687.597 L -3.09015,-687.531 L -2.84084,-687.432 L -2.60585,-687.303
 L -2.3889,-687.145 L -2.19344,-686.962 L -2.02251,-686.755 L -1.87881,-686.529 L -1.76465,-686.286 L -1.68178,-686.031
 L -1.63153,-685.768 L -1.6147,-685.5 L -1.63153,-685.232 L -1.68178,-684.969 L -1.76465,-684.714 L -1.87881,-684.471
 L -2.02251,-684.245 L -2.19344,-684.038 L -2.3889,-683.855 L -2.60585,-683.697 L -2.84084,-683.568 L -3.09015,-683.469
 L -3.34988,-683.403 L -3.61592,-683.369 z
M 3.61592,-428.369 L 3.34988,-428.403 L 3.09015,-428.469 L 2.84084,-428.568 L 2.60585,-428.697 L 2.3889,-428.855
 L 2.19344,-429.038 L 2.02251,-429.245 L 1.87881,-429.471 L 1.76465,-429.714 L 1.68178,-429.969 L 1.63153,-430.232
 L 1.6147,-430.5 L 1.63153,-430.768 L 1.68178,-431.031 L 1.76465,-431.286 L 1.87881,-431.529 L 2.02251,-431.755
 L 2.19344,-431.962 L 2.3889,-432.145 L 2.60585,-432.303 L 2.84084,-432.432 L 3.09015,-432.531 L 3.34988,-432.597
 L 3.61592,-432.631 L 3.88406,-432.631 L 4.1501,-432.597 L 4.40984,-432.531 L 4.65915,-432.432 L 4.89413,-432.303
 L 5.11108,-432.145 L 5.30655,-431.962 L 5.47748,-431.755 L 5.62117,-431.529 L 5.73534,-431.286 L 5.81821,-431.031
 L 5.86845,-430.768 L 5.88528,-430.5 L 5.86845,-430.232 L 5.81821,-429.969 L 5.73534,-429.714 L 5.62117,-429.471
 L 5.47748,-429.245 L 5.30655,-429.038 L 5.11108,-428.855 L 4.89413,-428.697 L 4.65915,-428.568 L 4.40984,-428.469
 L 4.1501,-428.403 L 3.88406,-428.369 z
M -3.88406,-428.369 L -4.1501,-428.403 L -4.40984,-428.469 L -4.65915,-428.568 L -4.89413,-428.697 L -5.11108,-428.855
 L -5.30655,-429.038 L -5.47748,-429.245 L -5.62117,-429.471 L -5.73534,-429.714 L -5.81821,-429.969 L -5.86845,-430.232
 L -5.88528,-430.5 L -5.86845,-430.768 L -5.81821,-431.031 L -5.73534,-431.286 L -5.62117,-431.529 L -5.47748,-431.755
 L -5.30655,-431.962 L -5.11108,-432.145 L -4.89413,-432.303 L -4.65915,-432.432 L -4.40984,-432.531 L -4.1501,-432.597
 L -3.88406,-432.631 L -3.61592,-432.631 L -3.34988,-432.597 L -3.09015,-432.531 L -2.84084,-432.432 L -2.60585,-432.303
 L -2.3889,-432.145 L -2.19344,-431.962 L -2.02251,-431.755 L -1.87881,-431.529 L -1.76465,-431.286 L -1.68178,-431.031
 L -1.63153,-430.768 L -1.6147,-430.5 L -1.63153,-430.232 L -1.68178,-429.969 L -1.76465,-429.714 L -1.87881,-429.471
 L -2.02251,-429.245 L -2.19344,-429.038 L -2.3889,-428.855 L -2.60585,-428.697 L -2.84084,-428.568 L -3.09015,-428.469
 L -3.34988,-428.403 L -3.61592,-428.369 z
" stroke="black" fill="lightgray" stroke-width="0.5"/>
</svg>
