solid OpenSCAD_Model
  facet normal 0.998027 0.0627819 0
    outer loop
      vertex 47.5 0 10
      vertex 47.1255 5.95333 0
      vertex 47.1255 5.95333 10
    endloop
  endfacet
  facet normal 0.998027 0.0627819 0
    outer loop
      vertex 47.1255 5.95333 0
      vertex 47.5 0 10
      vertex 47.5 0 0
    endloop
  endfacet
  facet normal -0.998027 0.0627819 0
    outer loop
      vertex -47.5 0 0
      vertex -47.1255 5.95333 10
      vertex -47.1255 5.95333 0
    endloop
  endfacet
  facet normal -0.998027 0.0627819 0
    outer loop
      vertex -47.1255 5.95333 10
      vertex -47.5 0 0
      vertex -47.5 0 10
    endloop
  endfacet
  facet normal 0 1 -0
    outer loop
      vertex 2.98255 47.4063 0
      vertex -2.98255 47.4063 10
      vertex 2.98255 47.4063 10
    endloop
  endfacet
  facet normal 0 1 0
    outer loop
      vertex -2.98255 47.4063 10
      vertex 2.98255 47.4063 0
      vertex -2.98255 47.4063 0
    endloop
  endfacet
  facet normal 0 -1 0
    outer loop
      vertex -2.98255 -47.4063 0
      vertex 2.98255 -47.4063 10
      vertex -2.98255 -47.4063 10
    endloop
  endfacet
  facet normal 0 -1 -0
    outer loop
      vertex 2.98255 -47.4063 10
      vertex -2.98255 -47.4063 0
      vertex 2.98255 -47.4063 0
    endloop
  endfacet
  facet normal 0.770514 -0.637423 0
    outer loop
      vertex 34.626 -32.516 10
      vertex 38.4283 -27.9198 0
      vertex 38.4283 -27.9198 10
    endloop
  endfacet
  facet normal 0.770514 -0.637423 0
    outer loop
      vertex 38.4283 -27.9198 0
      vertex 34.626 -32.516 10
      vertex 34.626 -32.516 0
    endloop
  endfacet
  facet normal 0.684545 0.72897 -0
    outer loop
      vertex 34.626 32.516 0
      vertex 30.2776 36.5994 10
      vertex 34.626 32.516 10
    endloop
  endfacet
  facet normal 0.684545 0.72897 0
    outer loop
      vertex 30.2776 36.5994 10
      vertex 34.626 32.516 0
      vertex 30.2776 36.5994 0
    endloop
  endfacet
  facet normal -0.684545 0.72897 0
    outer loop
      vertex -30.2776 36.5994 0
      vertex -34.626 32.516 10
      vertex -30.2776 36.5994 10
    endloop
  endfacet
  facet normal -0.684545 0.72897 0
    outer loop
      vertex -34.626 32.516 10
      vertex -30.2776 36.5994 0
      vertex -34.626 32.516 0
    endloop
  endfacet
  facet normal -0.368125 0.929776 0
    outer loop
      vertex -14.6783 45.1752 0
      vertex -20.2245 42.9793 10
      vertex -14.6783 45.1752 10
    endloop
  endfacet
  facet normal -0.368125 0.929776 0
    outer loop
      vertex -20.2245 42.9793 10
      vertex -14.6783 45.1752 0
      vertex -20.2245 42.9793 0
    endloop
  endfacet
  facet normal 0.904829 0.425776 0
    outer loop
      vertex 44.1644 17.4859 10
      vertex 41.6246 22.8833 0
      vertex 41.6246 22.8833 10
    endloop
  endfacet
  facet normal 0.904829 0.425776 0
    outer loop
      vertex 41.6246 22.8833 0
      vertex 44.1644 17.4859 10
      vertex 44.1644 17.4859 0
    endloop
  endfacet
  facet normal 0.368125 0.929776 -0
    outer loop
      vertex 20.2245 42.9793 0
      vertex 14.6783 45.1752 10
      vertex 20.2245 42.9793 10
    endloop
  endfacet
  facet normal 0.368125 0.929776 0
    outer loop
      vertex 14.6783 45.1752 10
      vertex 20.2245 42.9793 0
      vertex 14.6783 45.1752 0
    endloop
  endfacet
  facet normal 0.481749 0.876309 -0
    outer loop
      vertex 25.4518 40.1056 0
      vertex 20.2245 42.9793 10
      vertex 25.4518 40.1056 10
    endloop
  endfacet
  facet normal 0.481749 0.876309 0
    outer loop
      vertex 20.2245 42.9793 10
      vertex 25.4518 40.1056 0
      vertex 20.2245 42.9793 0
    endloop
  endfacet
  facet normal -0.904829 0.425776 0
    outer loop
      vertex -44.1644 17.4859 0
      vertex -41.6246 22.8833 10
      vertex -41.6246 22.8833 0
    endloop
  endfacet
  facet normal -0.904829 0.425776 0
    outer loop
      vertex -41.6246 22.8833 10
      vertex -44.1644 17.4859 0
      vertex -44.1644 17.4859 10
    endloop
  endfacet
  facet normal 0 0 1
    outer loop
      vertex 37.5 0 10
      vertex 47.5 0 10
      vertex 47.1255 5.95333 10
    endloop
  endfacet
  facet normal 0 0 1
    outer loop
      vertex 37.2043 4.7 10
      vertex 47.1255 5.95333 10
      vertex 46.0077 11.8128 10
    endloop
  endfacet
  facet normal 0 0 1
    outer loop
      vertex 47.5 0 10
      vertex 37.5 0 10
      vertex 47.1255 -5.95333 10
    endloop
  endfacet
  facet normal 0 0 1
    outer loop
      vertex 36.3219 9.32587 10
      vertex 46.0077 11.8128 10
      vertex 44.1644 17.4859 10
    endloop
  endfacet
  facet normal -0 0 1
    outer loop
      vertex 37.2043 -4.7 10
      vertex 47.1255 -5.95333 10
      vertex 37.5 0 10
    endloop
  endfacet
  facet normal 0 0 1
    outer loop
      vertex 34.8666 13.8047 10
      vertex 44.1644 17.4859 10
      vertex 41.6246 22.8833 10
    endloop
  endfacet
  facet normal 0 0 1
    outer loop
      vertex 47.1255 -5.95333 10
      vertex 37.2043 -4.7 10
      vertex 46.0077 -11.8128 10
    endloop
  endfacet
  facet normal 0 0 1
    outer loop
      vertex 32.8615 18.0658 10
      vertex 41.6246 22.8833 10
      vertex 38.4283 27.9198 10
    endloop
  endfacet
  facet normal -0 0 1
    outer loop
      vertex 36.3219 -9.32587 10
      vertex 46.0077 -11.8128 10
      vertex 37.2043 -4.7 10
    endloop
  endfacet
  facet normal 0 0 1
    outer loop
      vertex 46.0077 -11.8128 10
      vertex 36.3219 -9.32587 10
      vertex 44.1644 -17.4859 10
    endloop
  endfacet
  facet normal 0 0 1
    outer loop
      vertex 47.1255 5.95333 10
      vertex 37.2043 4.7 10
      vertex 37.5 0 10
    endloop
  endfacet
  facet normal 0 0 1
    outer loop
      vertex 46.0077 11.8128 10
      vertex 36.3219 9.32587 10
      vertex 37.2043 4.7 10
    endloop
  endfacet
  facet normal 0 0 1
    outer loop
      vertex 44.1644 17.4859 10
      vertex 34.8666 13.8047 10
      vertex 36.3219 9.32587 10
    endloop
  endfacet
  facet normal 0 0 1
    outer loop
      vertex 30.3381 22.0419 10
      vertex 38.4283 27.9198 10
      vertex 34.626 32.516 10
    endloop
  endfacet
  facet normal 0 0 1
    outer loop
      vertex 41.6246 22.8833 10
      vertex 32.8615 18.0658 10
      vertex 34.8666 13.8047 10
    endloop
  endfacet
  facet normal 0 0 1
    outer loop
      vertex 38.4283 27.9198 10
      vertex 30.3381 22.0419 10
      vertex 32.8615 18.0658 10
    endloop
  endfacet
  facet normal 0 0 1
    outer loop
      vertex 27.3363 25.6705 10
      vertex 34.626 32.516 10
      vertex 30.2776 36.5994 10
    endloop
  endfacet
  facet normal 0 0 1
    outer loop
      vertex 34.626 32.516 10
      vertex 27.3363 25.6705 10
      vertex 30.3381 22.0419 10
    endloop
  endfacet
  facet normal 0 0 1
    outer loop
      vertex 23.9034 28.8942 10
      vertex 30.2776 36.5994 10
      vertex 25.4518 40.1056 10
    endloop
  endfacet
  facet normal 0 0 1
    outer loop
      vertex 30.2776 36.5994 10
      vertex 23.9034 28.8942 10
      vertex 27.3363 25.6705 10
    endloop
  endfacet
  facet normal 0 0 1
    outer loop
      vertex 20.0935 31.6623 10
      vertex 25.4518 40.1056 10
      vertex 20.2245 42.9793 10
    endloop
  endfacet
  facet normal 0 0 1
    outer loop
      vertex 25.4518 40.1056 10
      vertex 20.0935 31.6623 10
      vertex 23.9034 28.8942 10
    endloop
  endfacet
  facet normal 0 0 1
    outer loop
      vertex 20.2245 42.9793 10
      vertex 15.9667 33.931 10
      vertex 20.0935 31.6623 10
    endloop
  endfacet
  facet normal 0 0 1
    outer loop
      vertex 14.6783 45.1752 10
      vertex 15.9667 33.931 10
      vertex 20.2245 42.9793 10
    endloop
  endfacet
  facet normal 0 0 1
    outer loop
      vertex 14.6783 45.1752 10
      vertex 11.5881 35.6646 10
      vertex 15.9667 33.931 10
    endloop
  endfacet
  facet normal 0 0 1
    outer loop
      vertex 8.90061 46.6586 10
      vertex 11.5881 35.6646 10
      vertex 14.6783 45.1752 10
    endloop
  endfacet
  facet normal 0 0 1
    outer loop
      vertex 8.90061 46.6586 10
      vertex 7.0268 36.8358 10
      vertex 11.5881 35.6646 10
    endloop
  endfacet
  facet normal 0 0 1
    outer loop
      vertex 2.98255 47.4063 10
      vertex 7.0268 36.8358 10
      vertex 8.90061 46.6586 10
    endloop
  endfacet
  facet normal 0 0 1
    outer loop
      vertex 2.98255 47.4063 10
      vertex 2.35464 37.426 10
      vertex 7.0268 36.8358 10
    endloop
  endfacet
  facet normal 0 0 1
    outer loop
      vertex 2.98255 47.4063 10
      vertex -2.35464 37.426 10
      vertex 2.35464 37.426 10
    endloop
  endfacet
  facet normal -0 0 1
    outer loop
      vertex -2.98255 47.4063 10
      vertex -2.35464 37.426 10
      vertex 2.98255 47.4063 10
    endloop
  endfacet
  facet normal 0 0 1
    outer loop
      vertex -2.98255 47.4063 10
      vertex -7.0268 36.8358 10
      vertex -2.35464 37.426 10
    endloop
  endfacet
  facet normal -0 0 1
    outer loop
      vertex -8.90061 46.6586 10
      vertex -7.0268 36.8358 10
      vertex -2.98255 47.4063 10
    endloop
  endfacet
  facet normal 0 0 1
    outer loop
      vertex -8.90061 46.6586 10
      vertex -11.5881 35.6646 10
      vertex -7.0268 36.8358 10
    endloop
  endfacet
  facet normal -0 0 1
    outer loop
      vertex -14.6783 45.1752 10
      vertex -11.5881 35.6646 10
      vertex -8.90061 46.6586 10
    endloop
  endfacet
  facet normal 0 0 1
    outer loop
      vertex -14.6783 45.1752 10
      vertex -15.9667 33.931 10
      vertex -11.5881 35.6646 10
    endloop
  endfacet
  facet normal -0 0 1
    outer loop
      vertex -20.2245 42.9793 10
      vertex -15.9667 33.931 10
      vertex -14.6783 45.1752 10
    endloop
  endfacet
  facet normal 0 0 1
    outer loop
      vertex -15.9667 33.931 10
      vertex -20.2245 42.9793 10
      vertex -20.0935 31.6623 10
    endloop
  endfacet
  facet normal -0 0 1
    outer loop
      vertex -25.4518 40.1056 10
      vertex -20.0935 31.6623 10
      vertex -20.2245 42.9793 10
    endloop
  endfacet
  facet normal 0 0 1
    outer loop
      vertex -20.0935 31.6623 10
      vertex -25.4518 40.1056 10
      vertex -23.9034 28.8942 10
    endloop
  endfacet
  facet normal -0 0 1
    outer loop
      vertex -30.2776 36.5994 10
      vertex -23.9034 28.8942 10
      vertex -25.4518 40.1056 10
    endloop
  endfacet
  facet normal 0 0 1
    outer loop
      vertex -23.9034 28.8942 10
      vertex -30.2776 36.5994 10
      vertex -27.3363 25.6705 10
    endloop
  endfacet
  facet normal -0 0 1
    outer loop
      vertex -34.626 32.516 10
      vertex -27.3363 25.6705 10
      vertex -30.2776 36.5994 10
    endloop
  endfacet
  facet normal 0 0 1
    outer loop
      vertex -27.3363 25.6705 10
      vertex -34.626 32.516 10
      vertex -30.3381 22.0419 10
    endloop
  endfacet
  facet normal -0 0 1
    outer loop
      vertex -38.4283 27.9198 10
      vertex -30.3381 22.0419 10
      vertex -34.626 32.516 10
    endloop
  endfacet
  facet normal 0 0 1
    outer loop
      vertex -30.3381 22.0419 10
      vertex -38.4283 27.9198 10
      vertex -32.8615 18.0658 10
    endloop
  endfacet
  facet normal -0 0 1
    outer loop
      vertex -41.6246 22.8833 10
      vertex -32.8615 18.0658 10
      vertex -38.4283 27.9198 10
    endloop
  endfacet
  facet normal 0 0 1
    outer loop
      vertex -32.8615 18.0658 10
      vertex -41.6246 22.8833 10
      vertex -34.8666 13.8047 10
    endloop
  endfacet
  facet normal 0 0 1
    outer loop
      vertex -34.8666 13.8047 10
      vertex -44.1644 17.4859 10
      vertex -36.3219 9.32587 10
    endloop
  endfacet
  facet normal -0 0 1
    outer loop
      vertex -44.1644 17.4859 10
      vertex -34.8666 13.8047 10
      vertex -41.6246 22.8833 10
    endloop
  endfacet
  facet normal -0 0 1
    outer loop
      vertex 34.8666 -13.8047 10
      vertex 44.1644 -17.4859 10
      vertex 36.3219 -9.32587 10
    endloop
  endfacet
  facet normal 0 0 1
    outer loop
      vertex 44.1644 -17.4859 10
      vertex 34.8666 -13.8047 10
      vertex 41.6246 -22.8833 10
    endloop
  endfacet
  facet normal -0 0 1
    outer loop
      vertex 32.8615 -18.0658 10
      vertex 41.6246 -22.8833 10
      vertex 34.8666 -13.8047 10
    endloop
  endfacet
  facet normal 0 0 1
    outer loop
      vertex 41.6246 -22.8833 10
      vertex 32.8615 -18.0658 10
      vertex 38.4283 -27.9198 10
    endloop
  endfacet
  facet normal -0 0 1
    outer loop
      vertex 30.3381 -22.0419 10
      vertex 38.4283 -27.9198 10
      vertex 32.8615 -18.0658 10
    endloop
  endfacet
  facet normal 0 0 1
    outer loop
      vertex 38.4283 -27.9198 10
      vertex 30.3381 -22.0419 10
      vertex 34.626 -32.516 10
    endloop
  endfacet
  facet normal -0 0 1
    outer loop
      vertex 27.3363 -25.6705 10
      vertex 34.626 -32.516 10
      vertex 30.3381 -22.0419 10
    endloop
  endfacet
  facet normal 0 0 1
    outer loop
      vertex 34.626 -32.516 10
      vertex 27.3363 -25.6705 10
      vertex 30.2776 -36.5994 10
    endloop
  endfacet
  facet normal -0 0 1
    outer loop
      vertex 23.9034 -28.8942 10
      vertex 30.2776 -36.5994 10
      vertex 27.3363 -25.6705 10
    endloop
  endfacet
  facet normal 0 0 1
    outer loop
      vertex 30.2776 -36.5994 10
      vertex 23.9034 -28.8942 10
      vertex 25.4518 -40.1056 10
    endloop
  endfacet
  facet normal -0 0 1
    outer loop
      vertex 20.0935 -31.6623 10
      vertex 25.4518 -40.1056 10
      vertex 23.9034 -28.8942 10
    endloop
  endfacet
  facet normal 0 0 1
    outer loop
      vertex 25.4518 -40.1056 10
      vertex 20.0935 -31.6623 10
      vertex 20.2245 -42.9793 10
    endloop
  endfacet
  facet normal -0 0 1
    outer loop
      vertex 15.9667 -33.931 10
      vertex 20.2245 -42.9793 10
      vertex 20.0935 -31.6623 10
    endloop
  endfacet
  facet normal 0 0 1
    outer loop
      vertex 15.9667 -33.931 10
      vertex 14.6783 -45.1752 10
      vertex 20.2245 -42.9793 10
    endloop
  endfacet
  facet normal -0 0 1
    outer loop
      vertex 11.5881 -35.6646 10
      vertex 14.6783 -45.1752 10
      vertex 15.9667 -33.931 10
    endloop
  endfacet
  facet normal 0 0 1
    outer loop
      vertex 11.5881 -35.6646 10
      vertex 8.90061 -46.6586 10
      vertex 14.6783 -45.1752 10
    endloop
  endfacet
  facet normal -0 0 1
    outer loop
      vertex 7.0268 -36.8358 10
      vertex 8.90061 -46.6586 10
      vertex 11.5881 -35.6646 10
    endloop
  endfacet
  facet normal 0 0 1
    outer loop
      vertex 7.0268 -36.8358 10
      vertex 2.98255 -47.4063 10
      vertex 8.90061 -46.6586 10
    endloop
  endfacet
  facet normal -0 0 1
    outer loop
      vertex 2.35464 -37.426 10
      vertex 2.98255 -47.4063 10
      vertex 7.0268 -36.8358 10
    endloop
  endfacet
  facet normal -0 0 1
    outer loop
      vertex -2.35464 -37.426 10
      vertex 2.98255 -47.4063 10
      vertex 2.35464 -37.426 10
    endloop
  endfacet
  facet normal 0 0 1
    outer loop
      vertex -2.35464 -37.426 10
      vertex -2.98255 -47.4063 10
      vertex 2.98255 -47.4063 10
    endloop
  endfacet
  facet normal 0 0 1
    outer loop
      vertex -7.0268 -36.8358 10
      vertex -2.98255 -47.4063 10
      vertex -2.35464 -37.426 10
    endloop
  endfacet
  facet normal 0 0 1
    outer loop
      vertex -7.0268 -36.8358 10
      vertex -8.90061 -46.6586 10
      vertex -2.98255 -47.4063 10
    endloop
  endfacet
  facet normal 0 0 1
    outer loop
      vertex -11.5881 -35.6646 10
      vertex -8.90061 -46.6586 10
      vertex -7.0268 -36.8358 10
    endloop
  endfacet
  facet normal 0 0 1
    outer loop
      vertex -11.5881 -35.6646 10
      vertex -14.6783 -45.1752 10
      vertex -8.90061 -46.6586 10
    endloop
  endfacet
  facet normal 0 0 1
    outer loop
      vertex -15.9667 -33.931 10
      vertex -14.6783 -45.1752 10
      vertex -11.5881 -35.6646 10
    endloop
  endfacet
  facet normal 0 0 1
    outer loop
      vertex -20.2245 -42.9793 10
      vertex -15.9667 -33.931 10
      vertex -20.0935 -31.6623 10
    endloop
  endfacet
  facet normal 0 0 1
    outer loop
      vertex -15.9667 -33.931 10
      vertex -20.2245 -42.9793 10
      vertex -14.6783 -45.1752 10
    endloop
  endfacet
  facet normal 0 0 1
    outer loop
      vertex -25.4518 -40.1056 10
      vertex -20.0935 -31.6623 10
      vertex -23.9034 -28.8942 10
    endloop
  endfacet
  facet normal 0 0 1
    outer loop
      vertex -20.0935 -31.6623 10
      vertex -25.4518 -40.1056 10
      vertex -20.2245 -42.9793 10
    endloop
  endfacet
  facet normal 0 0 1
    outer loop
      vertex -30.2776 -36.5994 10
      vertex -23.9034 -28.8942 10
      vertex -27.3363 -25.6705 10
    endloop
  endfacet
  facet normal 0 0 1
    outer loop
      vertex -23.9034 -28.8942 10
      vertex -30.2776 -36.5994 10
      vertex -25.4518 -40.1056 10
    endloop
  endfacet
  facet normal 0 0 1
    outer loop
      vertex -34.626 -32.516 10
      vertex -27.3363 -25.6705 10
      vertex -30.3381 -22.0419 10
    endloop
  endfacet
  facet normal 0 0 1
    outer loop
      vertex -38.4283 -27.9198 10
      vertex -30.3381 -22.0419 10
      vertex -32.8615 -18.0658 10
    endloop
  endfacet
  facet normal 0 0 1
    outer loop
      vertex -27.3363 -25.6705 10
      vertex -34.626 -32.516 10
      vertex -30.2776 -36.5994 10
    endloop
  endfacet
  facet normal 0 0 1
    outer loop
      vertex -41.6246 -22.8833 10
      vertex -32.8615 -18.0658 10
      vertex -34.8666 -13.8047 10
    endloop
  endfacet
  facet normal 0 0 1
    outer loop
      vertex -44.1644 -17.4859 10
      vertex -34.8666 -13.8047 10
      vertex -36.3219 -9.32587 10
    endloop
  endfacet
  facet normal 0 0 1
    outer loop
      vertex -46.0077 -11.8128 10
      vertex -36.3219 -9.32587 10
      vertex -37.2043 -4.7 10
    endloop
  endfacet
  facet normal 0 0 1
    outer loop
      vertex -30.3381 -22.0419 10
      vertex -38.4283 -27.9198 10
      vertex -34.626 -32.516 10
    endloop
  endfacet
  facet normal 0 0 1
    outer loop
      vertex -47.1255 -5.95333 10
      vertex -37.2043 -4.7 10
      vertex -37.5 0 10
    endloop
  endfacet
  facet normal -0 0 1
    outer loop
      vertex -46.0077 11.8128 10
      vertex -36.3219 9.32587 10
      vertex -44.1644 17.4859 10
    endloop
  endfacet
  facet normal 0 0 1
    outer loop
      vertex -36.3219 9.32587 10
      vertex -46.0077 11.8128 10
      vertex -37.2043 4.7 10
    endloop
  endfacet
  facet normal 0 0 1
    outer loop
      vertex -32.8615 -18.0658 10
      vertex -41.6246 -22.8833 10
      vertex -38.4283 -27.9198 10
    endloop
  endfacet
  facet normal -0 0 1
    outer loop
      vertex -47.1255 5.95333 10
      vertex -37.2043 4.7 10
      vertex -46.0077 11.8128 10
    endloop
  endfacet
  facet normal 0 0 1
    outer loop
      vertex -34.8666 -13.8047 10
      vertex -44.1644 -17.4859 10
      vertex -41.6246 -22.8833 10
    endloop
  endfacet
  facet normal 0 0 1
    outer loop
      vertex -37.2043 4.7 10
      vertex -47.1255 5.95333 10
      vertex -37.5 0 10
    endloop
  endfacet
  facet normal 0 0 1
    outer loop
      vertex -36.3219 -9.32587 10
      vertex -46.0077 -11.8128 10
      vertex -44.1644 -17.4859 10
    endloop
  endfacet
  facet normal 0 0 1
    outer loop
      vertex -47.5 0 10
      vertex -37.5 0 10
      vertex -47.1255 5.95333 10
    endloop
  endfacet
  facet normal 0 0 1
    outer loop
      vertex -37.2043 -4.7 10
      vertex -47.1255 -5.95333 10
      vertex -46.0077 -11.8128 10
    endloop
  endfacet
  facet normal 0 0 1
    outer loop
      vertex -37.5 0 10
      vertex -47.5 0 10
      vertex -47.1255 -5.95333 10
    endloop
  endfacet
  facet normal -0.248681 0.968586 0
    outer loop
      vertex -8.90061 46.6586 0
      vertex -14.6783 45.1752 10
      vertex -8.90061 46.6586 10
    endloop
  endfacet
  facet normal -0.248681 0.968586 0
    outer loop
      vertex -14.6783 45.1752 10
      vertex -8.90061 46.6586 0
      vertex -14.6783 45.1752 0
    endloop
  endfacet
  facet normal 0 0 -1
    outer loop
      vertex 37.5 0 0
      vertex 47.5 0 0
      vertex 47.1255 -5.95333 0
    endloop
  endfacet
  facet normal 0 0 -1
    outer loop
      vertex 37.2043 -4.7 0
      vertex 47.1255 -5.95333 0
      vertex 46.0077 -11.8128 0
    endloop
  endfacet
  facet normal 0 0 -1
    outer loop
      vertex 47.5 0 0
      vertex 37.5 0 0
      vertex 47.1255 5.95333 0
    endloop
  endfacet
  facet normal 0 0 -1
    outer loop
      vertex 36.3219 -9.32587 0
      vertex 46.0077 -11.8128 0
      vertex 44.1644 -17.4859 0
    endloop
  endfacet
  facet normal 0 0 -1
    outer loop
      vertex 37.2043 4.7 0
      vertex 47.1255 5.95333 0
      vertex 37.5 0 0
    endloop
  endfacet
  facet normal 0 0 -1
    outer loop
      vertex 34.8666 -13.8047 0
      vertex 44.1644 -17.4859 0
      vertex 41.6246 -22.8833 0
    endloop
  endfacet
  facet normal -0 0 -1
    outer loop
      vertex 47.1255 5.95333 0
      vertex 37.2043 4.7 0
      vertex 46.0077 11.8128 0
    endloop
  endfacet
  facet normal 0 0 -1
    outer loop
      vertex 32.8615 -18.0658 0
      vertex 41.6246 -22.8833 0
      vertex 38.4283 -27.9198 0
    endloop
  endfacet
  facet normal 0 0 -1
    outer loop
      vertex 36.3219 9.32587 0
      vertex 46.0077 11.8128 0
      vertex 37.2043 4.7 0
    endloop
  endfacet
  facet normal -0 0 -1
    outer loop
      vertex 46.0077 11.8128 0
      vertex 36.3219 9.32587 0
      vertex 44.1644 17.4859 0
    endloop
  endfacet
  facet normal 0 0 -1
    outer loop
      vertex 47.1255 -5.95333 0
      vertex 37.2043 -4.7 0
      vertex 37.5 0 0
    endloop
  endfacet
  facet normal 0 0 -1
    outer loop
      vertex 46.0077 -11.8128 0
      vertex 36.3219 -9.32587 0
      vertex 37.2043 -4.7 0
    endloop
  endfacet
  facet normal 0 0 -1
    outer loop
      vertex 44.1644 -17.4859 0
      vertex 34.8666 -13.8047 0
      vertex 36.3219 -9.32587 0
    endloop
  endfacet
  facet normal 0 0 -1
    outer loop
      vertex 30.3381 -22.0419 0
      vertex 38.4283 -27.9198 0
      vertex 34.626 -32.516 0
    endloop
  endfacet
  facet normal 0 0 -1
    outer loop
      vertex 41.6246 -22.8833 0
      vertex 32.8615 -18.0658 0
      vertex 34.8666 -13.8047 0
    endloop
  endfacet
  facet normal 0 0 -1
    outer loop
      vertex 38.4283 -27.9198 0
      vertex 30.3381 -22.0419 0
      vertex 32.8615 -18.0658 0
    endloop
  endfacet
  facet normal 0 0 -1
    outer loop
      vertex 27.3363 -25.6705 0
      vertex 34.626 -32.516 0
      vertex 30.2776 -36.5994 0
    endloop
  endfacet
  facet normal 0 0 -1
    outer loop
      vertex 34.626 -32.516 0
      vertex 27.3363 -25.6705 0
      vertex 30.3381 -22.0419 0
    endloop
  endfacet
  facet normal 0 0 -1
    outer loop
      vertex 23.9034 -28.8942 0
      vertex 30.2776 -36.5994 0
      vertex 25.4518 -40.1056 0
    endloop
  endfacet
  facet normal 0 0 -1
    outer loop
      vertex 30.2776 -36.5994 0
      vertex 23.9034 -28.8942 0
      vertex 27.3363 -25.6705 0
    endloop
  endfacet
  facet normal 0 0 -1
    outer loop
      vertex 20.0935 -31.6623 0
      vertex 25.4518 -40.1056 0
      vertex 20.2245 -42.9793 0
    endloop
  endfacet
  facet normal 0 0 -1
    outer loop
      vertex 25.4518 -40.1056 0
      vertex 20.0935 -31.6623 0
      vertex 23.9034 -28.8942 0
    endloop
  endfacet
  facet normal 0 0 -1
    outer loop
      vertex 20.2245 -42.9793 0
      vertex 15.9667 -33.931 0
      vertex 20.0935 -31.6623 0
    endloop
  endfacet
  facet normal 0 0 -1
    outer loop
      vertex 14.6783 -45.1752 0
      vertex 15.9667 -33.931 0
      vertex 20.2245 -42.9793 0
    endloop
  endfacet
  facet normal 0 0 -1
    outer loop
      vertex 14.6783 -45.1752 0
      vertex 11.5881 -35.6646 0
      vertex 15.9667 -33.931 0
    endloop
  endfacet
  facet normal 0 0 -1
    outer loop
      vertex 8.90061 -46.6586 0
      vertex 11.5881 -35.6646 0
      vertex 14.6783 -45.1752 0
    endloop
  endfacet
  facet normal 0 0 -1
    outer loop
      vertex 8.90061 -46.6586 0
      vertex 7.0268 -36.8358 0
      vertex 11.5881 -35.6646 0
    endloop
  endfacet
  facet normal 0 0 -1
    outer loop
      vertex 2.98255 -47.4063 0
      vertex 7.0268 -36.8358 0
      vertex 8.90061 -46.6586 0
    endloop
  endfacet
  facet normal 0 0 -1
    outer loop
      vertex 2.98255 -47.4063 0
      vertex 2.35464 -37.426 0
      vertex 7.0268 -36.8358 0
    endloop
  endfacet
  facet normal 0 0 -1
    outer loop
      vertex 2.98255 -47.4063 0
      vertex -2.35464 -37.426 0
      vertex 2.35464 -37.426 0
    endloop
  endfacet
  facet normal 0 0 -1
    outer loop
      vertex -2.98255 -47.4063 0
      vertex -2.35464 -37.426 0
      vertex 2.98255 -47.4063 0
    endloop
  endfacet
  facet normal 0 0 -1
    outer loop
      vertex -2.98255 -47.4063 0
      vertex -7.0268 -36.8358 0
      vertex -2.35464 -37.426 0
    endloop
  endfacet
  facet normal 0 0 -1
    outer loop
      vertex -8.90061 -46.6586 0
      vertex -7.0268 -36.8358 0
      vertex -2.98255 -47.4063 0
    endloop
  endfacet
  facet normal 0 0 -1
    outer loop
      vertex -8.90061 -46.6586 0
      vertex -11.5881 -35.6646 0
      vertex -7.0268 -36.8358 0
    endloop
  endfacet
  facet normal 0 0 -1
    outer loop
      vertex -14.6783 -45.1752 0
      vertex -11.5881 -35.6646 0
      vertex -8.90061 -46.6586 0
    endloop
  endfacet
  facet normal 0 0 -1
    outer loop
      vertex -14.6783 -45.1752 0
      vertex -15.9667 -33.931 0
      vertex -11.5881 -35.6646 0
    endloop
  endfacet
  facet normal 0 0 -1
    outer loop
      vertex -20.2245 -42.9793 0
      vertex -15.9667 -33.931 0
      vertex -14.6783 -45.1752 0
    endloop
  endfacet
  facet normal -0 0 -1
    outer loop
      vertex -15.9667 -33.931 0
      vertex -20.2245 -42.9793 0
      vertex -20.0935 -31.6623 0
    endloop
  endfacet
  facet normal 0 0 -1
    outer loop
      vertex -25.4518 -40.1056 0
      vertex -20.0935 -31.6623 0
      vertex -20.2245 -42.9793 0
    endloop
  endfacet
  facet normal -0 0 -1
    outer loop
      vertex -20.0935 -31.6623 0
      vertex -25.4518 -40.1056 0
      vertex -23.9034 -28.8942 0
    endloop
  endfacet
  facet normal 0 0 -1
    outer loop
      vertex -30.2776 -36.5994 0
      vertex -23.9034 -28.8942 0
      vertex -25.4518 -40.1056 0
    endloop
  endfacet
  facet normal -0 0 -1
    outer loop
      vertex -23.9034 -28.8942 0
      vertex -30.2776 -36.5994 0
      vertex -27.3363 -25.6705 0
    endloop
  endfacet
  facet normal 0 0 -1
    outer loop
      vertex -34.626 -32.516 0
      vertex -27.3363 -25.6705 0
      vertex -30.2776 -36.5994 0
    endloop
  endfacet
  facet normal -0 0 -1
    outer loop
      vertex -27.3363 -25.6705 0
      vertex -34.626 -32.516 0
      vertex -30.3381 -22.0419 0
    endloop
  endfacet
  facet normal 0 0 -1
    outer loop
      vertex -38.4283 -27.9198 0
      vertex -30.3381 -22.0419 0
      vertex -34.626 -32.516 0
    endloop
  endfacet
  facet normal -0 0 -1
    outer loop
      vertex -30.3381 -22.0419 0
      vertex -38.4283 -27.9198 0
      vertex -32.8615 -18.0658 0
    endloop
  endfacet
  facet normal 0 0 -1
    outer loop
      vertex -41.6246 -22.8833 0
      vertex -32.8615 -18.0658 0
      vertex -38.4283 -27.9198 0
    endloop
  endfacet
  facet normal -0 0 -1
    outer loop
      vertex -32.8615 -18.0658 0
      vertex -41.6246 -22.8833 0
      vertex -34.8666 -13.8047 0
    endloop
  endfacet
  facet normal -0 0 -1
    outer loop
      vertex -34.8666 -13.8047 0
      vertex -44.1644 -17.4859 0
      vertex -36.3219 -9.32587 0
    endloop
  endfacet
  facet normal 0 0 -1
    outer loop
      vertex -44.1644 -17.4859 0
      vertex -34.8666 -13.8047 0
      vertex -41.6246 -22.8833 0
    endloop
  endfacet
  facet normal 0 0 -1
    outer loop
      vertex 34.8666 13.8047 0
      vertex 44.1644 17.4859 0
      vertex 36.3219 9.32587 0
    endloop
  endfacet
  facet normal -0 0 -1
    outer loop
      vertex 44.1644 17.4859 0
      vertex 34.8666 13.8047 0
      vertex 41.6246 22.8833 0
    endloop
  endfacet
  facet normal 0 0 -1
    outer loop
      vertex 32.8615 18.0658 0
      vertex 41.6246 22.8833 0
      vertex 34.8666 13.8047 0
    endloop
  endfacet
  facet normal -0 0 -1
    outer loop
      vertex 41.6246 22.8833 0
      vertex 32.8615 18.0658 0
      vertex 38.4283 27.9198 0
    endloop
  endfacet
  facet normal 0 0 -1
    outer loop
      vertex 30.3381 22.0419 0
      vertex 38.4283 27.9198 0
      vertex 32.8615 18.0658 0
    endloop
  endfacet
  facet normal -0 0 -1
    outer loop
      vertex 38.4283 27.9198 0
      vertex 30.3381 22.0419 0
      vertex 34.626 32.516 0
    endloop
  endfacet
  facet normal 0 0 -1
    outer loop
      vertex 27.3363 25.6705 0
      vertex 34.626 32.516 0
      vertex 30.3381 22.0419 0
    endloop
  endfacet
  facet normal -0 0 -1
    outer loop
      vertex 34.626 32.516 0
      vertex 27.3363 25.6705 0
      vertex 30.2776 36.5994 0
    endloop
  endfacet
  facet normal 0 0 -1
    outer loop
      vertex 23.9034 28.8942 0
      vertex 30.2776 36.5994 0
      vertex 27.3363 25.6705 0
    endloop
  endfacet
  facet normal -0 0 -1
    outer loop
      vertex 30.2776 36.5994 0
      vertex 23.9034 28.8942 0
      vertex 25.4518 40.1056 0
    endloop
  endfacet
  facet normal 0 0 -1
    outer loop
      vertex 20.0935 31.6623 0
      vertex 25.4518 40.1056 0
      vertex 23.9034 28.8942 0
    endloop
  endfacet
  facet normal -0 0 -1
    outer loop
      vertex 25.4518 40.1056 0
      vertex 20.0935 31.6623 0
      vertex 20.2245 42.9793 0
    endloop
  endfacet
  facet normal 0 0 -1
    outer loop
      vertex 15.9667 33.931 0
      vertex 20.2245 42.9793 0
      vertex 20.0935 31.6623 0
    endloop
  endfacet
  facet normal 0 0 -1
    outer loop
      vertex 15.9667 33.931 0
      vertex 14.6783 45.1752 0
      vertex 20.2245 42.9793 0
    endloop
  endfacet
  facet normal 0 0 -1
    outer loop
      vertex 11.5881 35.6646 0
      vertex 14.6783 45.1752 0
      vertex 15.9667 33.931 0
    endloop
  endfacet
  facet normal 0 0 -1
    outer loop
      vertex 11.5881 35.6646 0
      vertex 8.90061 46.6586 0
      vertex 14.6783 45.1752 0
    endloop
  endfacet
  facet normal 0 0 -1
    outer loop
      vertex 7.0268 36.8358 0
      vertex 8.90061 46.6586 0
      vertex 11.5881 35.6646 0
    endloop
  endfacet
  facet normal 0 0 -1
    outer loop
      vertex 7.0268 36.8358 0
      vertex 2.98255 47.4063 0
      vertex 8.90061 46.6586 0
    endloop
  endfacet
  facet normal 0 0 -1
    outer loop
      vertex 2.35464 37.426 0
      vertex 2.98255 47.4063 0
      vertex 7.0268 36.8358 0
    endloop
  endfacet
  facet normal 0 0 -1
    outer loop
      vertex -2.35464 37.426 0
      vertex 2.98255 47.4063 0
      vertex 2.35464 37.426 0
    endloop
  endfacet
  facet normal 0 0 -1
    outer loop
      vertex -2.35464 37.426 0
      vertex -2.98255 47.4063 0
      vertex 2.98255 47.4063 0
    endloop
  endfacet
  facet normal 0 0 -1
    outer loop
      vertex -7.0268 36.8358 0
      vertex -2.98255 47.4063 0
      vertex -2.35464 37.426 0
    endloop
  endfacet
  facet normal 0 0 -1
    outer loop
      vertex -7.0268 36.8358 0
      vertex -8.90061 46.6586 0
      vertex -2.98255 47.4063 0
    endloop
  endfacet
  facet normal 0 0 -1
    outer loop
      vertex -11.5881 35.6646 0
      vertex -8.90061 46.6586 0
      vertex -7.0268 36.8358 0
    endloop
  endfacet
  facet normal 0 0 -1
    outer loop
      vertex -11.5881 35.6646 0
      vertex -14.6783 45.1752 0
      vertex -8.90061 46.6586 0
    endloop
  endfacet
  facet normal 0 0 -1
    outer loop
      vertex -15.9667 33.931 0
      vertex -14.6783 45.1752 0
      vertex -11.5881 35.6646 0
    endloop
  endfacet
  facet normal 0 0 -1
    outer loop
      vertex -20.2245 42.9793 0
      vertex -15.9667 33.931 0
      vertex -20.0935 31.6623 0
    endloop
  endfacet
  facet normal 0 0 -1
    outer loop
      vertex -15.9667 33.931 0
      vertex -20.2245 42.9793 0
      vertex -14.6783 45.1752 0
    endloop
  endfacet
  facet normal 0 0 -1
    outer loop
      vertex -25.4518 40.1056 0
      vertex -20.0935 31.6623 0
      vertex -23.9034 28.8942 0
    endloop
  endfacet
  facet normal 0 0 -1
    outer loop
      vertex -20.0935 31.6623 0
      vertex -25.4518 40.1056 0
      vertex -20.2245 42.9793 0
    endloop
  endfacet
  facet normal 0 0 -1
    outer loop
      vertex -30.2776 36.5994 0
      vertex -23.9034 28.8942 0
      vertex -27.3363 25.6705 0
    endloop
  endfacet
  facet normal 0 0 -1
    outer loop
      vertex -23.9034 28.8942 0
      vertex -30.2776 36.5994 0
      vertex -25.4518 40.1056 0
    endloop
  endfacet
  facet normal 0 0 -1
    outer loop
      vertex -34.626 32.516 0
      vertex -27.3363 25.6705 0
      vertex -30.3381 22.0419 0
    endloop
  endfacet
  facet normal 0 0 -1
    outer loop
      vertex -38.4283 27.9198 0
      vertex -30.3381 22.0419 0
      vertex -32.8615 18.0658 0
    endloop
  endfacet
  facet normal 0 0 -1
    outer loop
      vertex -27.3363 25.6705 0
      vertex -34.626 32.516 0
      vertex -30.2776 36.5994 0
    endloop
  endfacet
  facet normal 0 0 -1
    outer loop
      vertex -41.6246 22.8833 0
      vertex -32.8615 18.0658 0
      vertex -34.8666 13.8047 0
    endloop
  endfacet
  facet normal 0 0 -1
    outer loop
      vertex -44.1644 17.4859 0
      vertex -34.8666 13.8047 0
      vertex -36.3219 9.32587 0
    endloop
  endfacet
  facet normal 0 0 -1
    outer loop
      vertex -46.0077 11.8128 0
      vertex -36.3219 9.32587 0
      vertex -37.2043 4.7 0
    endloop
  endfacet
  facet normal 0 0 -1
    outer loop
      vertex -30.3381 22.0419 0
      vertex -38.4283 27.9198 0
      vertex -34.626 32.516 0
    endloop
  endfacet
  facet normal 0 0 -1
    outer loop
      vertex -47.1255 5.95333 0
      vertex -37.2043 4.7 0
      vertex -37.5 0 0
    endloop
  endfacet
  facet normal 0 0 -1
    outer loop
      vertex -46.0077 -11.8128 0
      vertex -36.3219 -9.32587 0
      vertex -44.1644 -17.4859 0
    endloop
  endfacet
  facet normal -0 0 -1
    outer loop
      vertex -36.3219 -9.32587 0
      vertex -46.0077 -11.8128 0
      vertex -37.2043 -4.7 0
    endloop
  endfacet
  facet normal 0 0 -1
    outer loop
      vertex -32.8615 18.0658 0
      vertex -41.6246 22.8833 0
      vertex -38.4283 27.9198 0
    endloop
  endfacet
  facet normal 0 0 -1
    outer loop
      vertex -47.1255 -5.95333 0
      vertex -37.2043 -4.7 0
      vertex -46.0077 -11.8128 0
    endloop
  endfacet
  facet normal 0 0 -1
    outer loop
      vertex -34.8666 13.8047 0
      vertex -44.1644 17.4859 0
      vertex -41.6246 22.8833 0
    endloop
  endfacet
  facet normal -0 0 -1
    outer loop
      vertex -37.2043 -4.7 0
      vertex -47.1255 -5.95333 0
      vertex -37.5 0 0
    endloop
  endfacet
  facet normal 0 0 -1
    outer loop
      vertex -36.3219 9.32587 0
      vertex -46.0077 11.8128 0
      vertex -44.1644 17.4859 0
    endloop
  endfacet
  facet normal 0 0 -1
    outer loop
      vertex -47.5 0 0
      vertex -37.5 0 0
      vertex -47.1255 -5.95333 0
    endloop
  endfacet
  facet normal 0 0 -1
    outer loop
      vertex -37.2043 4.7 0
      vertex -47.1255 5.95333 0
      vertex -46.0077 11.8128 0
    endloop
  endfacet
  facet normal 0 0 -1
    outer loop
      vertex -37.5 0 0
      vertex -47.5 0 0
      vertex -47.1255 5.95333 0
    endloop
  endfacet
  facet normal 0.951057 0.309017 0
    outer loop
      vertex 46.0077 11.8128 10
      vertex 44.1644 17.4859 0
      vertex 44.1644 17.4859 10
    endloop
  endfacet
  facet normal 0.951057 0.309017 0
    outer loop
      vertex 44.1644 17.4859 0
      vertex 46.0077 11.8128 10
      vertex 46.0077 11.8128 0
    endloop
  endfacet
  facet normal 0.982286 0.187389 0
    outer loop
      vertex 47.1255 5.95333 10
      vertex 46.0077 11.8128 0
      vertex 46.0077 11.8128 10
    endloop
  endfacet
  facet normal 0.982286 0.187389 0
    outer loop
      vertex 46.0077 11.8128 0
      vertex 47.1255 5.95333 10
      vertex 47.1255 5.95333 0
    endloop
  endfacet
  facet normal 0.770514 0.637423 0
    outer loop
      vertex 38.4283 27.9198 10
      vertex 34.626 32.516 0
      vertex 34.626 32.516 10
    endloop
  endfacet
  facet normal 0.770514 0.637423 0
    outer loop
      vertex 34.626 32.516 0
      vertex 38.4283 27.9198 10
      vertex 38.4283 27.9198 0
    endloop
  endfacet
  facet normal 0.844325 0.535832 0
    outer loop
      vertex 41.6246 22.8833 10
      vertex 38.4283 27.9198 0
      vertex 38.4283 27.9198 10
    endloop
  endfacet
  facet normal 0.844325 0.535832 0
    outer loop
      vertex 38.4283 27.9198 0
      vertex 41.6246 22.8833 10
      vertex 41.6246 22.8833 0
    endloop
  endfacet
  facet normal 0.248681 0.968586 -0
    outer loop
      vertex 14.6783 45.1752 0
      vertex 8.90061 46.6586 10
      vertex 14.6783 45.1752 10
    endloop
  endfacet
  facet normal 0.248681 0.968586 0
    outer loop
      vertex 8.90061 46.6586 10
      vertex 14.6783 45.1752 0
      vertex 8.90061 46.6586 0
    endloop
  endfacet
  facet normal 0.125346 0.992113 -0
    outer loop
      vertex 8.90061 46.6586 0
      vertex 2.98255 47.4063 10
      vertex 8.90061 46.6586 10
    endloop
  endfacet
  facet normal 0.125346 0.992113 0
    outer loop
      vertex 2.98255 47.4063 10
      vertex 8.90061 46.6586 0
      vertex 2.98255 47.4063 0
    endloop
  endfacet
  facet normal 0.587791 0.809013 -0
    outer loop
      vertex 30.2776 36.5994 0
      vertex 25.4518 40.1056 10
      vertex 30.2776 36.5994 10
    endloop
  endfacet
  facet normal 0.587791 0.809013 0
    outer loop
      vertex 25.4518 40.1056 10
      vertex 30.2776 36.5994 0
      vertex 25.4518 40.1056 0
    endloop
  endfacet
  facet normal -0.844325 0.535832 0
    outer loop
      vertex -41.6246 22.8833 0
      vertex -38.4283 27.9198 10
      vertex -38.4283 27.9198 0
    endloop
  endfacet
  facet normal -0.844325 0.535832 0
    outer loop
      vertex -38.4283 27.9198 10
      vertex -41.6246 22.8833 0
      vertex -41.6246 22.8833 10
    endloop
  endfacet
  facet normal -0.770514 0.637423 0
    outer loop
      vertex -38.4283 27.9198 0
      vertex -34.626 32.516 10
      vertex -34.626 32.516 0
    endloop
  endfacet
  facet normal -0.770514 0.637423 0
    outer loop
      vertex -34.626 32.516 10
      vertex -38.4283 27.9198 0
      vertex -38.4283 27.9198 10
    endloop
  endfacet
  facet normal -0.951057 0.309017 0
    outer loop
      vertex -46.0077 11.8128 0
      vertex -44.1644 17.4859 10
      vertex -44.1644 17.4859 0
    endloop
  endfacet
  facet normal -0.951057 0.309017 0
    outer loop
      vertex -44.1644 17.4859 10
      vertex -46.0077 11.8128 0
      vertex -46.0077 11.8128 10
    endloop
  endfacet
  facet normal -0.982286 0.187389 0
    outer loop
      vertex -47.1255 5.95333 0
      vertex -46.0077 11.8128 10
      vertex -46.0077 11.8128 0
    endloop
  endfacet
  facet normal -0.982286 0.187389 0
    outer loop
      vertex -46.0077 11.8128 10
      vertex -47.1255 5.95333 0
      vertex -47.1255 5.95333 10
    endloop
  endfacet
  facet normal -0.481749 0.876309 0
    outer loop
      vertex -20.2245 42.9793 0
      vertex -25.4518 40.1056 10
      vertex -20.2245 42.9793 10
    endloop
  endfacet
  facet normal -0.481749 0.876309 0
    outer loop
      vertex -25.4518 40.1056 10
      vertex -20.2245 42.9793 0
      vertex -25.4518 40.1056 0
    endloop
  endfacet
  facet normal -0.587791 0.809013 0
    outer loop
      vertex -25.4518 40.1056 0
      vertex -30.2776 36.5994 10
      vertex -25.4518 40.1056 10
    endloop
  endfacet
  facet normal -0.587791 0.809013 0
    outer loop
      vertex -30.2776 36.5994 10
      vertex -25.4518 40.1056 0
      vertex -30.2776 36.5994 0
    endloop
  endfacet
  facet normal -0.125346 0.992113 0
    outer loop
      vertex -2.98255 47.4063 0
      vertex -8.90061 46.6586 10
      vertex -2.98255 47.4063 10
    endloop
  endfacet
  facet normal -0.125346 0.992113 0
    outer loop
      vertex -8.90061 46.6586 10
      vertex -2.98255 47.4063 0
      vertex -8.90061 46.6586 0
    endloop
  endfacet
  facet normal 0.998027 -0.0627819 0
    outer loop
      vertex 47.1255 -5.95333 10
      vertex 47.5 0 0
      vertex 47.5 0 10
    endloop
  endfacet
  facet normal 0.998027 -0.0627819 0
    outer loop
      vertex 47.5 0 0
      vertex 47.1255 -5.95333 10
      vertex 47.1255 -5.95333 0
    endloop
  endfacet
  facet normal 0.481749 -0.876309 0
    outer loop
      vertex 20.2245 -42.9793 0
      vertex 25.4518 -40.1056 10
      vertex 20.2245 -42.9793 10
    endloop
  endfacet
  facet normal 0.481749 -0.876309 0
    outer loop
      vertex 25.4518 -40.1056 10
      vertex 20.2245 -42.9793 0
      vertex 25.4518 -40.1056 0
    endloop
  endfacet
  facet normal 0.904829 -0.425776 0
    outer loop
      vertex 41.6246 -22.8833 10
      vertex 44.1644 -17.4859 0
      vertex 44.1644 -17.4859 10
    endloop
  endfacet
  facet normal 0.904829 -0.425776 0
    outer loop
      vertex 44.1644 -17.4859 0
      vertex 41.6246 -22.8833 10
      vertex 41.6246 -22.8833 0
    endloop
  endfacet
  facet normal 0.951057 -0.309017 0
    outer loop
      vertex 44.1644 -17.4859 10
      vertex 46.0077 -11.8128 0
      vertex 46.0077 -11.8128 10
    endloop
  endfacet
  facet normal 0.951057 -0.309017 0
    outer loop
      vertex 46.0077 -11.8128 0
      vertex 44.1644 -17.4859 10
      vertex 44.1644 -17.4859 0
    endloop
  endfacet
  facet normal -0.770514 -0.637423 0
    outer loop
      vertex -34.626 -32.516 0
      vertex -38.4283 -27.9198 10
      vertex -38.4283 -27.9198 0
    endloop
  endfacet
  facet normal -0.770514 -0.637423 0
    outer loop
      vertex -38.4283 -27.9198 10
      vertex -34.626 -32.516 0
      vertex -34.626 -32.516 10
    endloop
  endfacet
  facet normal -0.982286 -0.187389 0
    outer loop
      vertex -46.0077 -11.8128 0
      vertex -47.1255 -5.95333 10
      vertex -47.1255 -5.95333 0
    endloop
  endfacet
  facet normal -0.982286 -0.187389 0
    outer loop
      vertex -47.1255 -5.95333 10
      vertex -46.0077 -11.8128 0
      vertex -46.0077 -11.8128 10
    endloop
  endfacet
  facet normal -0.998027 -0.0627819 0
    outer loop
      vertex -47.1255 -5.95333 0
      vertex -47.5 0 10
      vertex -47.5 0 0
    endloop
  endfacet
  facet normal -0.998027 -0.0627819 0
    outer loop
      vertex -47.5 0 10
      vertex -47.1255 -5.95333 0
      vertex -47.1255 -5.95333 10
    endloop
  endfacet
  facet normal -0.951057 -0.309017 0
    outer loop
      vertex -44.1644 -17.4859 0
      vertex -46.0077 -11.8128 10
      vertex -46.0077 -11.8128 0
    endloop
  endfacet
  facet normal -0.951057 -0.309017 0
    outer loop
      vertex -46.0077 -11.8128 10
      vertex -44.1644 -17.4859 0
      vertex -44.1644 -17.4859 10
    endloop
  endfacet
  facet normal 0.684545 -0.72897 0
    outer loop
      vertex 30.2776 -36.5994 0
      vertex 34.626 -32.516 10
      vertex 30.2776 -36.5994 10
    endloop
  endfacet
  facet normal 0.684545 -0.72897 0
    outer loop
      vertex 34.626 -32.516 10
      vertex 30.2776 -36.5994 0
      vertex 34.626 -32.516 0
    endloop
  endfacet
  facet normal 0.368125 -0.929776 0
    outer loop
      vertex 14.6783 -45.1752 0
      vertex 20.2245 -42.9793 10
      vertex 14.6783 -45.1752 10
    endloop
  endfacet
  facet normal 0.368125 -0.929776 0
    outer loop
      vertex 20.2245 -42.9793 10
      vertex 14.6783 -45.1752 0
      vertex 20.2245 -42.9793 0
    endloop
  endfacet
  facet normal 0.248681 -0.968586 0
    outer loop
      vertex 8.90061 -46.6586 0
      vertex 14.6783 -45.1752 10
      vertex 8.90061 -46.6586 10
    endloop
  endfacet
  facet normal 0.248681 -0.968586 0
    outer loop
      vertex 14.6783 -45.1752 10
      vertex 8.90061 -46.6586 0
      vertex 14.6783 -45.1752 0
    endloop
  endfacet
  facet normal 0.125346 -0.992113 0
    outer loop
      vertex 2.98255 -47.4063 0
      vertex 8.90061 -46.6586 10
      vertex 2.98255 -47.4063 10
    endloop
  endfacet
  facet normal 0.125346 -0.992113 0
    outer loop
      vertex 8.90061 -46.6586 10
      vertex 2.98255 -47.4063 0
      vertex 8.90061 -46.6586 0
    endloop
  endfacet
  facet normal 0.982286 -0.187389 0
    outer loop
      vertex 46.0077 -11.8128 10
      vertex 47.1255 -5.95333 0
      vertex 47.1255 -5.95333 10
    endloop
  endfacet
  facet normal 0.982286 -0.187389 0
    outer loop
      vertex 47.1255 -5.95333 0
      vertex 46.0077 -11.8128 10
      vertex 46.0077 -11.8128 0
    endloop
  endfacet
  facet normal -0.125346 -0.992113 0
    outer loop
      vertex -8.90061 -46.6586 0
      vertex -2.98255 -47.4063 10
      vertex -8.90061 -46.6586 10
    endloop
  endfacet
  facet normal -0.125346 -0.992113 -0
    outer loop
      vertex -2.98255 -47.4063 10
      vertex -8.90061 -46.6586 0
      vertex -2.98255 -47.4063 0
    endloop
  endfacet
  facet normal -0.368125 -0.929776 0
    outer loop
      vertex -20.2245 -42.9793 0
      vertex -14.6783 -45.1752 10
      vertex -20.2245 -42.9793 10
    endloop
  endfacet
  facet normal -0.368125 -0.929776 -0
    outer loop
      vertex -14.6783 -45.1752 10
      vertex -20.2245 -42.9793 0
      vertex -14.6783 -45.1752 0
    endloop
  endfacet
  facet normal -0.248681 -0.968586 0
    outer loop
      vertex -14.6783 -45.1752 0
      vertex -8.90061 -46.6586 10
      vertex -14.6783 -45.1752 10
    endloop
  endfacet
  facet normal -0.248681 -0.968586 -0
    outer loop
      vertex -8.90061 -46.6586 10
      vertex -14.6783 -45.1752 0
      vertex -8.90061 -46.6586 0
    endloop
  endfacet
  facet normal -0.684545 -0.72897 0
    outer loop
      vertex -34.626 -32.516 0
      vertex -30.2776 -36.5994 10
      vertex -34.626 -32.516 10
    endloop
  endfacet
  facet normal -0.684545 -0.72897 -0
    outer loop
      vertex -30.2776 -36.5994 10
      vertex -34.626 -32.516 0
      vertex -30.2776 -36.5994 0
    endloop
  endfacet
  facet normal 0.587791 -0.809013 0
    outer loop
      vertex 25.4518 -40.1056 0
      vertex 30.2776 -36.5994 10
      vertex 25.4518 -40.1056 10
    endloop
  endfacet
  facet normal 0.587791 -0.809013 0
    outer loop
      vertex 30.2776 -36.5994 10
      vertex 25.4518 -40.1056 0
      vertex 30.2776 -36.5994 0
    endloop
  endfacet
  facet normal -0.844325 -0.535832 0
    outer loop
      vertex -38.4283 -27.9198 0
      vertex -41.6246 -22.8833 10
      vertex -41.6246 -22.8833 0
    endloop
  endfacet
  facet normal -0.844325 -0.535832 0
    outer loop
      vertex -41.6246 -22.8833 10
      vertex -38.4283 -27.9198 0
      vertex -38.4283 -27.9198 10
    endloop
  endfacet
  facet normal -0.904829 -0.425776 0
    outer loop
      vertex -41.6246 -22.8833 0
      vertex -44.1644 -17.4859 10
      vertex -44.1644 -17.4859 0
    endloop
  endfacet
  facet normal -0.904829 -0.425776 0
    outer loop
      vertex -44.1644 -17.4859 10
      vertex -41.6246 -22.8833 0
      vertex -41.6246 -22.8833 10
    endloop
  endfacet
  facet normal 0.844325 -0.535832 0
    outer loop
      vertex 38.4283 -27.9198 10
      vertex 41.6246 -22.8833 0
      vertex 41.6246 -22.8833 10
    endloop
  endfacet
  facet normal 0.844325 -0.535832 0
    outer loop
      vertex 41.6246 -22.8833 0
      vertex 38.4283 -27.9198 10
      vertex 38.4283 -27.9198 0
    endloop
  endfacet
  facet normal -0.481749 -0.876309 0
    outer loop
      vertex -25.4518 -40.1056 0
      vertex -20.2245 -42.9793 10
      vertex -25.4518 -40.1056 10
    endloop
  endfacet
  facet normal -0.481749 -0.876309 -0
    outer loop
      vertex -20.2245 -42.9793 10
      vertex -25.4518 -40.1056 0
      vertex -20.2245 -42.9793 0
    endloop
  endfacet
  facet normal -0.587791 -0.809013 0
    outer loop
      vertex -30.2776 -36.5994 0
      vertex -25.4518 -40.1056 10
      vertex -30.2776 -36.5994 10
    endloop
  endfacet
  facet normal -0.587791 -0.809013 -0
    outer loop
      vertex -25.4518 -40.1056 10
      vertex -30.2776 -36.5994 0
      vertex -25.4518 -40.1056 0
    endloop
  endfacet
  facet normal -0.998027 -0.0627907 0
    outer loop
      vertex 37.5 0 0
      vertex 37.2043 4.7 10
      vertex 37.2043 4.7 0
    endloop
  endfacet
  facet normal -0.998027 -0.0627907 0
    outer loop
      vertex 37.2043 4.7 10
      vertex 37.5 0 0
      vertex 37.5 0 10
    endloop
  endfacet
  facet normal 0.998027 -0.0627907 0
    outer loop
      vertex -37.5 0 10
      vertex -37.2043 4.7 0
      vertex -37.2043 4.7 10
    endloop
  endfacet
  facet normal 0.998027 -0.0627907 0
    outer loop
      vertex -37.2043 4.7 0
      vertex -37.5 0 10
      vertex -37.5 0 0
    endloop
  endfacet
  facet normal 0 -1 0
    outer loop
      vertex -2.35464 37.426 0
      vertex 2.35464 37.426 10
      vertex -2.35464 37.426 10
    endloop
  endfacet
  facet normal 0 -1 -0
    outer loop
      vertex 2.35464 37.426 10
      vertex -2.35464 37.426 0
      vertex 2.35464 37.426 0
    endloop
  endfacet
  facet normal 0 1 -0
    outer loop
      vertex 2.35464 -37.426 0
      vertex -2.35464 -37.426 10
      vertex 2.35464 -37.426 10
    endloop
  endfacet
  facet normal 0 1 0
    outer loop
      vertex -2.35464 -37.426 10
      vertex 2.35464 -37.426 0
      vertex -2.35464 -37.426 0
    endloop
  endfacet
  facet normal -0.770517 0.637419 0
    outer loop
      vertex 27.3363 -25.6705 0
      vertex 30.3381 -22.0419 10
      vertex 30.3381 -22.0419 0
    endloop
  endfacet
  facet normal -0.770517 0.637419 0
    outer loop
      vertex 30.3381 -22.0419 10
      vertex 27.3363 -25.6705 0
      vertex 27.3363 -25.6705 10
    endloop
  endfacet
  facet normal -0.684546 -0.728969 0
    outer loop
      vertex 23.9034 28.8942 0
      vertex 27.3363 25.6705 10
      vertex 23.9034 28.8942 10
    endloop
  endfacet
  facet normal -0.684546 -0.728969 -0
    outer loop
      vertex 27.3363 25.6705 10
      vertex 23.9034 28.8942 0
      vertex 27.3363 25.6705 0
    endloop
  endfacet
  facet normal 0.684546 -0.728969 0
    outer loop
      vertex -27.3363 25.6705 0
      vertex -23.9034 28.8942 10
      vertex -27.3363 25.6705 10
    endloop
  endfacet
  facet normal 0.684546 -0.728969 0
    outer loop
      vertex -23.9034 28.8942 10
      vertex -27.3363 25.6705 0
      vertex -23.9034 28.8942 0
    endloop
  endfacet
  facet normal 0.368123 -0.929777 0
    outer loop
      vertex -15.9667 33.931 0
      vertex -11.5881 35.6646 10
      vertex -15.9667 33.931 10
    endloop
  endfacet
  facet normal 0.368123 -0.929777 0
    outer loop
      vertex -11.5881 35.6646 10
      vertex -15.9667 33.931 0
      vertex -11.5881 35.6646 0
    endloop
  endfacet
  facet normal -0.904829 -0.425776 0
    outer loop
      vertex 34.8666 13.8047 0
      vertex 32.8615 18.0658 10
      vertex 32.8615 18.0658 0
    endloop
  endfacet
  facet normal -0.904829 -0.425776 0
    outer loop
      vertex 32.8615 18.0658 10
      vertex 34.8666 13.8047 0
      vertex 34.8666 13.8047 10
    endloop
  endfacet
  facet normal -0.844319 -0.53584 0
    outer loop
      vertex 32.8615 18.0658 0
      vertex 30.3381 22.0419 10
      vertex 30.3381 22.0419 0
    endloop
  endfacet
  facet normal -0.844319 -0.53584 0
    outer loop
      vertex 30.3381 22.0419 10
      vertex 32.8615 18.0658 0
      vertex 32.8615 18.0658 10
    endloop
  endfacet
  facet normal -0.368123 -0.929777 0
    outer loop
      vertex 11.5881 35.6646 0
      vertex 15.9667 33.931 10
      vertex 11.5881 35.6646 10
    endloop
  endfacet
  facet normal -0.368123 -0.929777 -0
    outer loop
      vertex 15.9667 33.931 10
      vertex 11.5881 35.6646 0
      vertex 15.9667 33.931 0
    endloop
  endfacet
  facet normal -0.248701 -0.96858 0
    outer loop
      vertex 7.0268 36.8358 0
      vertex 11.5881 35.6646 10
      vertex 7.0268 36.8358 10
    endloop
  endfacet
  facet normal -0.248701 -0.96858 -0
    outer loop
      vertex 11.5881 35.6646 10
      vertex 7.0268 36.8358 0
      vertex 11.5881 35.6646 0
    endloop
  endfacet
  facet normal -0.481749 -0.876309 0
    outer loop
      vertex 15.9667 33.931 0
      vertex 20.0935 31.6623 10
      vertex 15.9667 33.931 10
    endloop
  endfacet
  facet normal -0.481749 -0.876309 -0
    outer loop
      vertex 20.0935 31.6623 10
      vertex 15.9667 33.931 0
      vertex 20.0935 31.6623 0
    endloop
  endfacet
  facet normal 0.904829 -0.425776 0
    outer loop
      vertex -34.8666 13.8047 10
      vertex -32.8615 18.0658 0
      vertex -32.8615 18.0658 10
    endloop
  endfacet
  facet normal 0.904829 -0.425776 0
    outer loop
      vertex -32.8615 18.0658 0
      vertex -34.8666 13.8047 10
      vertex -34.8666 13.8047 0
    endloop
  endfacet
  facet normal 0.770517 -0.637419 0
    outer loop
      vertex -30.3381 22.0419 10
      vertex -27.3363 25.6705 0
      vertex -27.3363 25.6705 10
    endloop
  endfacet
  facet normal 0.770517 -0.637419 0
    outer loop
      vertex -27.3363 25.6705 0
      vertex -30.3381 22.0419 10
      vertex -30.3381 22.0419 0
    endloop
  endfacet
  facet normal 0.125327 -0.992116 0
    outer loop
      vertex -7.0268 36.8358 0
      vertex -2.35464 37.426 10
      vertex -7.0268 36.8358 10
    endloop
  endfacet
  facet normal 0.125327 -0.992116 0
    outer loop
      vertex -2.35464 37.426 10
      vertex -7.0268 36.8358 0
      vertex -2.35464 37.426 0
    endloop
  endfacet
  facet normal -0.125327 0.992116 0
    outer loop
      vertex 7.0268 -36.8358 0
      vertex 2.35464 -37.426 10
      vertex 7.0268 -36.8358 10
    endloop
  endfacet
  facet normal -0.125327 0.992116 0
    outer loop
      vertex 2.35464 -37.426 10
      vertex 7.0268 -36.8358 0
      vertex 2.35464 -37.426 0
    endloop
  endfacet
  facet normal -0.951054 -0.309025 0
    outer loop
      vertex 36.3219 9.32587 0
      vertex 34.8666 13.8047 10
      vertex 34.8666 13.8047 0
    endloop
  endfacet
  facet normal -0.951054 -0.309025 0
    outer loop
      vertex 34.8666 13.8047 10
      vertex 36.3219 9.32587 0
      vertex 36.3219 9.32587 10
    endloop
  endfacet
  facet normal -0.982288 -0.187375 0
    outer loop
      vertex 37.2043 4.7 0
      vertex 36.3219 9.32587 10
      vertex 36.3219 9.32587 0
    endloop
  endfacet
  facet normal -0.982288 -0.187375 0
    outer loop
      vertex 36.3219 9.32587 10
      vertex 37.2043 4.7 0
      vertex 37.2043 4.7 10
    endloop
  endfacet
  facet normal -0.770517 -0.637419 0
    outer loop
      vertex 30.3381 22.0419 0
      vertex 27.3363 25.6705 10
      vertex 27.3363 25.6705 0
    endloop
  endfacet
  facet normal -0.770517 -0.637419 0
    outer loop
      vertex 27.3363 25.6705 10
      vertex 30.3381 22.0419 0
      vertex 30.3381 22.0419 10
    endloop
  endfacet
  facet normal -0.125327 -0.992116 0
    outer loop
      vertex 2.35464 37.426 0
      vertex 7.0268 36.8358 10
      vertex 2.35464 37.426 10
    endloop
  endfacet
  facet normal -0.125327 -0.992116 -0
    outer loop
      vertex 7.0268 36.8358 10
      vertex 2.35464 37.426 0
      vertex 7.0268 36.8358 0
    endloop
  endfacet
  facet normal -0.587792 -0.809012 0
    outer loop
      vertex 20.0935 31.6623 0
      vertex 23.9034 28.8942 10
      vertex 20.0935 31.6623 10
    endloop
  endfacet
  facet normal -0.587792 -0.809012 -0
    outer loop
      vertex 23.9034 28.8942 10
      vertex 20.0935 31.6623 0
      vertex 23.9034 28.8942 0
    endloop
  endfacet
  facet normal 0.844319 -0.53584 0
    outer loop
      vertex -32.8615 18.0658 10
      vertex -30.3381 22.0419 0
      vertex -30.3381 22.0419 10
    endloop
  endfacet
  facet normal 0.844319 -0.53584 0
    outer loop
      vertex -30.3381 22.0419 0
      vertex -32.8615 18.0658 10
      vertex -32.8615 18.0658 0
    endloop
  endfacet
  facet normal 0.951054 -0.309025 0
    outer loop
      vertex -36.3219 9.32587 10
      vertex -34.8666 13.8047 0
      vertex -34.8666 13.8047 10
    endloop
  endfacet
  facet normal 0.951054 -0.309025 0
    outer loop
      vertex -34.8666 13.8047 0
      vertex -36.3219 9.32587 10
      vertex -36.3219 9.32587 0
    endloop
  endfacet
  facet normal 0.982288 -0.187375 0
    outer loop
      vertex -37.2043 4.7 10
      vertex -36.3219 9.32587 0
      vertex -36.3219 9.32587 10
    endloop
  endfacet
  facet normal 0.982288 -0.187375 0
    outer loop
      vertex -36.3219 9.32587 0
      vertex -37.2043 4.7 10
      vertex -37.2043 4.7 0
    endloop
  endfacet
  facet normal 0.481749 -0.876309 0
    outer loop
      vertex -20.0935 31.6623 0
      vertex -15.9667 33.931 10
      vertex -20.0935 31.6623 10
    endloop
  endfacet
  facet normal 0.481749 -0.876309 0
    outer loop
      vertex -15.9667 33.931 10
      vertex -20.0935 31.6623 0
      vertex -15.9667 33.931 0
    endloop
  endfacet
  facet normal 0.587792 -0.809012 0
    outer loop
      vertex -23.9034 28.8942 0
      vertex -20.0935 31.6623 10
      vertex -23.9034 28.8942 10
    endloop
  endfacet
  facet normal 0.587792 -0.809012 0
    outer loop
      vertex -20.0935 31.6623 10
      vertex -23.9034 28.8942 0
      vertex -20.0935 31.6623 0
    endloop
  endfacet
  facet normal 0.248701 -0.96858 0
    outer loop
      vertex -11.5881 35.6646 0
      vertex -7.0268 36.8358 10
      vertex -11.5881 35.6646 10
    endloop
  endfacet
  facet normal 0.248701 -0.96858 0
    outer loop
      vertex -7.0268 36.8358 10
      vertex -11.5881 35.6646 0
      vertex -7.0268 36.8358 0
    endloop
  endfacet
  facet normal -0.998027 0.0627907 0
    outer loop
      vertex 37.2043 -4.7 0
      vertex 37.5 0 10
      vertex 37.5 0 0
    endloop
  endfacet
  facet normal -0.998027 0.0627907 0
    outer loop
      vertex 37.5 0 10
      vertex 37.2043 -4.7 0
      vertex 37.2043 -4.7 10
    endloop
  endfacet
  facet normal 0.904829 0.425776 0
    outer loop
      vertex -32.8615 -18.0658 10
      vertex -34.8666 -13.8047 0
      vertex -34.8666 -13.8047 10
    endloop
  endfacet
  facet normal 0.904829 0.425776 0
    outer loop
      vertex -34.8666 -13.8047 0
      vertex -32.8615 -18.0658 10
      vertex -32.8615 -18.0658 0
    endloop
  endfacet
  facet normal -0.481749 0.876309 0
    outer loop
      vertex 20.0935 -31.6623 0
      vertex 15.9667 -33.931 10
      vertex 20.0935 -31.6623 10
    endloop
  endfacet
  facet normal -0.481749 0.876309 0
    outer loop
      vertex 15.9667 -33.931 10
      vertex 20.0935 -31.6623 0
      vertex 15.9667 -33.931 0
    endloop
  endfacet
  facet normal -0.951054 0.309025 0
    outer loop
      vertex 34.8666 -13.8047 0
      vertex 36.3219 -9.32587 10
      vertex 36.3219 -9.32587 0
    endloop
  endfacet
  facet normal -0.951054 0.309025 0
    outer loop
      vertex 36.3219 -9.32587 10
      vertex 34.8666 -13.8047 0
      vertex 34.8666 -13.8047 10
    endloop
  endfacet
  facet normal 0.982288 0.187375 0
    outer loop
      vertex -36.3219 -9.32587 10
      vertex -37.2043 -4.7 0
      vertex -37.2043 -4.7 10
    endloop
  endfacet
  facet normal 0.982288 0.187375 0
    outer loop
      vertex -37.2043 -4.7 0
      vertex -36.3219 -9.32587 10
      vertex -36.3219 -9.32587 0
    endloop
  endfacet
  facet normal 0.998027 0.0627907 0
    outer loop
      vertex -37.2043 -4.7 10
      vertex -37.5 0 0
      vertex -37.5 0 10
    endloop
  endfacet
  facet normal 0.998027 0.0627907 0
    outer loop
      vertex -37.5 0 0
      vertex -37.2043 -4.7 10
      vertex -37.2043 -4.7 0
    endloop
  endfacet
  facet normal 0.951054 0.309025 0
    outer loop
      vertex -34.8666 -13.8047 10
      vertex -36.3219 -9.32587 0
      vertex -36.3219 -9.32587 10
    endloop
  endfacet
  facet normal 0.951054 0.309025 0
    outer loop
      vertex -36.3219 -9.32587 0
      vertex -34.8666 -13.8047 10
      vertex -34.8666 -13.8047 0
    endloop
  endfacet
  facet normal -0.684546 0.728969 0
    outer loop
      vertex 27.3363 -25.6705 0
      vertex 23.9034 -28.8942 10
      vertex 27.3363 -25.6705 10
    endloop
  endfacet
  facet normal -0.684546 0.728969 0
    outer loop
      vertex 23.9034 -28.8942 10
      vertex 27.3363 -25.6705 0
      vertex 23.9034 -28.8942 0
    endloop
  endfacet
  facet normal -0.368123 0.929777 0
    outer loop
      vertex 15.9667 -33.931 0
      vertex 11.5881 -35.6646 10
      vertex 15.9667 -33.931 10
    endloop
  endfacet
  facet normal -0.368123 0.929777 0
    outer loop
      vertex 11.5881 -35.6646 10
      vertex 15.9667 -33.931 0
      vertex 11.5881 -35.6646 0
    endloop
  endfacet
  facet normal -0.248701 0.96858 0
    outer loop
      vertex 11.5881 -35.6646 0
      vertex 7.0268 -36.8358 10
      vertex 11.5881 -35.6646 10
    endloop
  endfacet
  facet normal -0.248701 0.96858 0
    outer loop
      vertex 7.0268 -36.8358 10
      vertex 11.5881 -35.6646 0
      vertex 7.0268 -36.8358 0
    endloop
  endfacet
  facet normal -0.844319 0.53584 0
    outer loop
      vertex 30.3381 -22.0419 0
      vertex 32.8615 -18.0658 10
      vertex 32.8615 -18.0658 0
    endloop
  endfacet
  facet normal -0.844319 0.53584 0
    outer loop
      vertex 32.8615 -18.0658 10
      vertex 30.3381 -22.0419 0
      vertex 30.3381 -22.0419 10
    endloop
  endfacet
  facet normal -0.982288 0.187375 0
    outer loop
      vertex 36.3219 -9.32587 0
      vertex 37.2043 -4.7 10
      vertex 37.2043 -4.7 0
    endloop
  endfacet
  facet normal -0.982288 0.187375 0
    outer loop
      vertex 37.2043 -4.7 10
      vertex 36.3219 -9.32587 0
      vertex 36.3219 -9.32587 10
    endloop
  endfacet
  facet normal 0.368123 0.929777 -0
    outer loop
      vertex -11.5881 -35.6646 0
      vertex -15.9667 -33.931 10
      vertex -11.5881 -35.6646 10
    endloop
  endfacet
  facet normal 0.368123 0.929777 0
    outer loop
      vertex -15.9667 -33.931 10
      vertex -11.5881 -35.6646 0
      vertex -15.9667 -33.931 0
    endloop
  endfacet
  facet normal 0.248701 0.96858 -0
    outer loop
      vertex -7.0268 -36.8358 0
      vertex -11.5881 -35.6646 10
      vertex -7.0268 -36.8358 10
    endloop
  endfacet
  facet normal 0.248701 0.96858 0
    outer loop
      vertex -11.5881 -35.6646 10
      vertex -7.0268 -36.8358 0
      vertex -11.5881 -35.6646 0
    endloop
  endfacet
  facet normal 0.770517 0.637419 0
    outer loop
      vertex -27.3363 -25.6705 10
      vertex -30.3381 -22.0419 0
      vertex -30.3381 -22.0419 10
    endloop
  endfacet
  facet normal 0.770517 0.637419 0
    outer loop
      vertex -30.3381 -22.0419 0
      vertex -27.3363 -25.6705 10
      vertex -27.3363 -25.6705 0
    endloop
  endfacet
  facet normal 0.844319 0.53584 0
    outer loop
      vertex -30.3381 -22.0419 10
      vertex -32.8615 -18.0658 0
      vertex -32.8615 -18.0658 10
    endloop
  endfacet
  facet normal 0.844319 0.53584 0
    outer loop
      vertex -32.8615 -18.0658 0
      vertex -30.3381 -22.0419 10
      vertex -30.3381 -22.0419 0
    endloop
  endfacet
  facet normal 0.684546 0.728969 -0
    outer loop
      vertex -23.9034 -28.8942 0
      vertex -27.3363 -25.6705 10
      vertex -23.9034 -28.8942 10
    endloop
  endfacet
  facet normal 0.684546 0.728969 0
    outer loop
      vertex -27.3363 -25.6705 10
      vertex -23.9034 -28.8942 0
      vertex -27.3363 -25.6705 0
    endloop
  endfacet
  facet normal -0.587792 0.809012 0
    outer loop
      vertex 23.9034 -28.8942 0
      vertex 20.0935 -31.6623 10
      vertex 23.9034 -28.8942 10
    endloop
  endfacet
  facet normal -0.587792 0.809012 0
    outer loop
      vertex 20.0935 -31.6623 10
      vertex 23.9034 -28.8942 0
      vertex 20.0935 -31.6623 0
    endloop
  endfacet
  facet normal -0.904829 0.425776 0
    outer loop
      vertex 32.8615 -18.0658 0
      vertex 34.8666 -13.8047 10
      vertex 34.8666 -13.8047 0
    endloop
  endfacet
  facet normal -0.904829 0.425776 0
    outer loop
      vertex 34.8666 -13.8047 10
      vertex 32.8615 -18.0658 0
      vertex 32.8615 -18.0658 10
    endloop
  endfacet
  facet normal 0.587792 0.809012 -0
    outer loop
      vertex -20.0935 -31.6623 0
      vertex -23.9034 -28.8942 10
      vertex -20.0935 -31.6623 10
    endloop
  endfacet
  facet normal 0.587792 0.809012 0
    outer loop
      vertex -23.9034 -28.8942 10
      vertex -20.0935 -31.6623 0
      vertex -23.9034 -28.8942 0
    endloop
  endfacet
  facet normal 0.125327 0.992116 -0
    outer loop
      vertex -2.35464 -37.426 0
      vertex -7.0268 -36.8358 10
      vertex -2.35464 -37.426 10
    endloop
  endfacet
  facet normal 0.125327 0.992116 0
    outer loop
      vertex -7.0268 -36.8358 10
      vertex -2.35464 -37.426 0
      vertex -7.0268 -36.8358 0
    endloop
  endfacet
  facet normal 0.481749 0.876309 -0
    outer loop
      vertex -15.9667 -33.931 0
      vertex -20.0935 -31.6623 10
      vertex -15.9667 -33.931 10
    endloop
  endfacet
  facet normal 0.481749 0.876309 0
    outer loop
      vertex -20.0935 -31.6623 10
      vertex -15.9667 -33.931 0
      vertex -20.0935 -31.6623 0
    endloop
  endfacet
endsolid OpenSCAD_Model
