<?xml version="1.0" standalone="no"?>
<!DOCTYPE svg PUBLIC "-//W3C//DTD SVG 1.1//EN" "http://www.w3.org/Graphics/SVG/1.1/DTD/svg11.dtd">
<svg width="210mm" height="1086mm" viewBox="-105 -1857 210 1086" xmlns="http://www.w3.org/2000/svg" version="1.1">
<title>OpenSCAD Model</title>
<path d="
M 100.937,-1647.09 L 101.545,-1647.24 L 102.129,-1647.48 L 102.679,-1647.78 L 103.187,-1648.15 L 103.645,-1648.58
 L 104.045,-1649.06 L 104.382,-1649.59 L 104.649,-1650.16 L 104.843,-1650.76 L 104.961,-1651.37 L 105,-1652
 L 105,-1852 L 104.961,-1852.63 L 104.843,-1853.24 L 104.649,-1853.84 L 104.382,-1854.41 L 104.045,-1854.94
 L 103.645,-1855.42 L 103.187,-1855.85 L 102.679,-1856.22 L 102.129,-1856.52 L 101.545,-1856.76 L 100.937,-1856.91
 L 100.314,-1856.99 L -100.314,-1856.99 L -100.937,-1856.91 L -101.545,-1856.76 L -102.129,-1856.52 L -102.679,-1856.22
 L -103.187,-1855.85 L -103.645,-1855.42 L -104.045,-1854.94 L -104.382,-1854.41 L -104.649,-1853.84 L -104.843,-1853.24
 L -104.961,-1852.63 L -105,-1852 L -105,-1652 L -104.961,-1651.37 L -104.843,-1650.76 L -104.649,-1650.16
 L -104.382,-1649.59 L -104.045,-1649.06 L -103.645,-1648.58 L -103.187,-1648.15 L -102.679,-1647.78 L -102.129,-1647.48
 L -101.545,-1647.24 L -100.937,-1647.09 L -100.314,-1647.01 L 100.314,-1647.01 z
M -100.048,-1647.51 L -100.64,-1647.58 L -101.218,-1647.73 L -101.772,-1647.95 L -102.295,-1648.24 L -102.778,-1648.59
 L -103.213,-1649 L -103.593,-1649.46 L -103.912,-1649.96 L -104.166,-1650.5 L -104.351,-1651.07 L -104.463,-1651.65
 L -104.5,-1652.25 L -104.5,-1851.75 L -104.463,-1852.35 L -104.351,-1852.93 L -104.166,-1853.5 L -103.912,-1854.04
 L -103.593,-1854.54 L -103.213,-1855 L -102.778,-1855.41 L -102.295,-1855.76 L -101.772,-1856.05 L -101.218,-1856.27
 L -100.64,-1856.42 L -100.048,-1856.49 L 100.048,-1856.49 L 100.64,-1856.42 L 101.218,-1856.27 L 101.772,-1856.05
 L 102.295,-1855.76 L 102.778,-1855.41 L 103.213,-1855 L 103.593,-1854.54 L 103.912,-1854.04 L 104.166,-1853.5
 L 104.351,-1852.93 L 104.463,-1852.35 L 104.5,-1851.75 L 104.5,-1652.25 L 104.463,-1651.65 L 104.351,-1651.07
 L 104.166,-1650.5 L 103.912,-1649.96 L 103.593,-1649.46 L 103.213,-1649 L 102.778,-1648.59 L 102.295,-1648.24
 L 101.772,-1647.95 L 101.218,-1647.73 L 100.64,-1647.58 L 100.048,-1647.51 z
M 100.937,-1428.09 L 101.545,-1428.24 L 102.129,-1428.48 L 102.679,-1428.78 L 103.187,-1429.15 L 103.645,-1429.58
 L 104.045,-1430.06 L 104.382,-1430.59 L 104.649,-1431.16 L 104.843,-1431.76 L 104.961,-1432.37 L 105,-1433
 L 105,-1633 L 104.961,-1633.63 L 104.843,-1634.24 L 104.649,-1634.84 L 104.382,-1635.41 L 104.045,-1635.94
 L 103.645,-1636.42 L 103.187,-1636.85 L 102.679,-1637.22 L 102.129,-1637.52 L 101.545,-1637.76 L 100.937,-1637.91
 L 100.314,-1637.99 L -100.314,-1637.99 L -100.937,-1637.91 L -101.545,-1637.76 L -102.129,-1637.52 L -102.679,-1637.22
 L -103.187,-1636.85 L -103.645,-1636.42 L -104.045,-1635.94 L -104.382,-1635.41 L -104.649,-1634.84 L -104.843,-1634.24
 L -104.961,-1633.63 L -105,-1633 L -105,-1433 L -104.961,-1432.37 L -104.843,-1431.76 L -104.649,-1431.16
 L -104.382,-1430.59 L -104.045,-1430.06 L -103.645,-1429.58 L -103.187,-1429.15 L -102.679,-1428.78 L -102.129,-1428.48
 L -101.545,-1428.24 L -100.937,-1428.09 L -100.314,-1428.01 L 100.314,-1428.01 z
M -100.048,-1428.51 L -100.64,-1428.58 L -101.218,-1428.73 L -101.772,-1428.95 L -102.295,-1429.24 L -102.778,-1429.59
 L -103.213,-1430 L -103.593,-1430.46 L -103.912,-1430.96 L -104.166,-1431.5 L -104.351,-1432.07 L -104.463,-1432.65
 L -104.5,-1433.25 L -104.5,-1632.75 L -104.463,-1633.35 L -104.351,-1633.93 L -104.166,-1634.5 L -103.912,-1635.04
 L -103.593,-1635.54 L -103.213,-1636 L -102.778,-1636.41 L -102.295,-1636.76 L -101.772,-1637.05 L -101.218,-1637.27
 L -100.64,-1637.42 L -100.048,-1637.49 L 100.048,-1637.49 L 100.64,-1637.42 L 101.218,-1637.27 L 101.772,-1637.05
 L 102.295,-1636.76 L 102.778,-1636.41 L 103.213,-1636 L 103.593,-1635.54 L 103.912,-1635.04 L 104.166,-1634.5
 L 104.351,-1633.93 L 104.463,-1633.35 L 104.5,-1632.75 L 104.5,-1433.25 L 104.463,-1432.65 L 104.351,-1432.07
 L 104.166,-1431.5 L 103.912,-1430.96 L 103.593,-1430.46 L 103.213,-1430 L 102.778,-1429.59 L 102.295,-1429.24
 L 101.772,-1428.95 L 101.218,-1428.73 L 100.64,-1428.58 L 100.048,-1428.51 z
M 100.937,-1209.09 L 101.545,-1209.24 L 102.129,-1209.48 L 102.679,-1209.78 L 103.187,-1210.15 L 103.645,-1210.58
 L 104.045,-1211.06 L 104.382,-1211.59 L 104.649,-1212.16 L 104.843,-1212.76 L 104.961,-1213.37 L 105,-1214
 L 105,-1414 L 104.961,-1414.63 L 104.843,-1415.24 L 104.649,-1415.84 L 104.382,-1416.41 L 104.045,-1416.94
 L 103.645,-1417.42 L 103.187,-1417.85 L 102.679,-1418.22 L 102.129,-1418.52 L 101.545,-1418.76 L 100.937,-1418.91
 L 100.314,-1418.99 L -100.314,-1418.99 L -100.937,-1418.91 L -101.545,-1418.76 L -102.129,-1418.52 L -102.679,-1418.22
 L -103.187,-1417.85 L -103.645,-1417.42 L -104.045,-1416.94 L -104.382,-1416.41 L -104.649,-1415.84 L -104.843,-1415.24
 L -104.961,-1414.63 L -105,-1414 L -105,-1214 L -104.961,-1213.37 L -104.843,-1212.76 L -104.649,-1212.16
 L -104.382,-1211.59 L -104.045,-1211.06 L -103.645,-1210.58 L -103.187,-1210.15 L -102.679,-1209.78 L -102.129,-1209.48
 L -101.545,-1209.24 L -100.937,-1209.09 L -100.314,-1209.01 L 100.314,-1209.01 z
M -100.048,-1209.51 L -100.64,-1209.58 L -101.218,-1209.73 L -101.772,-1209.95 L -102.295,-1210.24 L -102.778,-1210.59
 L -103.213,-1211 L -103.593,-1211.46 L -103.912,-1211.96 L -104.166,-1212.5 L -104.351,-1213.07 L -104.463,-1213.65
 L -104.5,-1214.25 L -104.5,-1413.75 L -104.463,-1414.35 L -104.351,-1414.93 L -104.166,-1415.5 L -103.912,-1416.04
 L -103.593,-1416.54 L -103.213,-1417 L -102.778,-1417.41 L -102.295,-1417.76 L -101.772,-1418.05 L -101.218,-1418.27
 L -100.64,-1418.42 L -100.048,-1418.49 L 100.048,-1418.49 L 100.64,-1418.42 L 101.218,-1418.27 L 101.772,-1418.05
 L 102.295,-1417.76 L 102.778,-1417.41 L 103.213,-1417 L 103.593,-1416.54 L 103.912,-1416.04 L 104.166,-1415.5
 L 104.351,-1414.93 L 104.463,-1414.35 L 104.5,-1413.75 L 104.5,-1214.25 L 104.463,-1213.65 L 104.351,-1213.07
 L 104.166,-1212.5 L 103.912,-1211.96 L 103.593,-1211.46 L 103.213,-1211 L 102.778,-1210.59 L 102.295,-1210.24
 L 101.772,-1209.95 L 101.218,-1209.73 L 100.64,-1209.58 L 100.048,-1209.51 z
M 100.937,-990.089 L 101.545,-990.245 L 102.129,-990.476 L 102.679,-990.778 L 103.187,-991.147 L 103.645,-991.577
 L 104.045,-992.061 L 104.382,-992.591 L 104.649,-993.159 L 104.843,-993.757 L 104.961,-994.373 L 105,-995
 L 105,-1195 L 104.961,-1195.63 L 104.843,-1196.24 L 104.649,-1196.84 L 104.382,-1197.41 L 104.045,-1197.94
 L 103.645,-1198.42 L 103.187,-1198.85 L 102.679,-1199.22 L 102.129,-1199.52 L 101.545,-1199.76 L 100.937,-1199.91
 L 100.314,-1199.99 L -100.314,-1199.99 L -100.937,-1199.91 L -101.545,-1199.76 L -102.129,-1199.52 L -102.679,-1199.22
 L -103.187,-1198.85 L -103.645,-1198.42 L -104.045,-1197.94 L -104.382,-1197.41 L -104.649,-1196.84 L -104.843,-1196.24
 L -104.961,-1195.63 L -105,-1195 L -105,-995 L -104.961,-994.373 L -104.843,-993.757 L -104.649,-993.159
 L -104.382,-992.591 L -104.045,-992.061 L -103.645,-991.577 L -103.187,-991.147 L -102.679,-990.778 L -102.129,-990.476
 L -101.545,-990.245 L -100.937,-990.089 L -100.314,-990.01 L 100.314,-990.01 z
M -99.993,-991.388 L -100.475,-991.449 L -100.946,-991.57 L -101.398,-991.749 L -101.823,-991.983 L -102.216,-992.269
 L -102.571,-992.601 L -102.88,-992.976 L -103.141,-993.386 L -103.348,-993.826 L -103.498,-994.288 L -103.589,-994.765
 L -103.619,-995.25 L -103.619,-1194.75 L -103.589,-1195.23 L -103.498,-1195.71 L -103.348,-1196.17 L -103.141,-1196.61
 L -102.88,-1197.02 L -102.571,-1197.4 L -102.216,-1197.73 L -101.823,-1198.02 L -101.398,-1198.25 L -100.946,-1198.43
 L -100.475,-1198.55 L -99.993,-1198.61 L 99.993,-1198.61 L 100.475,-1198.55 L 100.946,-1198.43 L 101.398,-1198.25
 L 101.823,-1198.02 L 102.216,-1197.73 L 102.571,-1197.4 L 102.88,-1197.02 L 103.141,-1196.61 L 103.348,-1196.17
 L 103.498,-1195.71 L 103.589,-1195.23 L 103.619,-1194.75 L 103.619,-995.25 L 103.589,-994.765 L 103.498,-994.288
 L 103.348,-993.826 L 103.141,-993.386 L 102.88,-992.976 L 102.571,-992.601 L 102.216,-992.269 L 101.823,-991.983
 L 101.398,-991.749 L 100.946,-991.57 L 100.475,-991.449 L 99.993,-991.388 z
M 100.937,-771.089 L 101.545,-771.245 L 102.129,-771.476 L 102.679,-771.778 L 103.187,-772.147 L 103.645,-772.577
 L 104.045,-773.061 L 104.382,-773.591 L 104.649,-774.159 L 104.843,-774.757 L 104.961,-775.373 L 105,-776
 L 105,-976 L 104.961,-976.627 L 104.843,-977.243 L 104.649,-977.841 L 104.382,-978.409 L 104.045,-978.939
 L 103.645,-979.423 L 103.187,-979.853 L 102.679,-980.222 L 102.129,-980.524 L 101.545,-980.755 L 100.937,-980.911
 L 100.314,-980.99 L -100.314,-980.99 L -100.937,-980.911 L -101.545,-980.755 L -102.129,-980.524 L -102.679,-980.222
 L -103.187,-979.853 L -103.645,-979.423 L -104.045,-978.939 L -104.382,-978.409 L -104.649,-977.841 L -104.843,-977.243
 L -104.961,-976.627 L -105,-976 L -105,-776 L -104.961,-775.373 L -104.843,-774.757 L -104.649,-774.159
 L -104.382,-773.591 L -104.045,-773.061 L -103.645,-772.577 L -103.187,-772.147 L -102.679,-771.778 L -102.129,-771.476
 L -101.545,-771.245 L -100.937,-771.089 L -100.314,-771.01 L 100.314,-771.01 z
M 97.387,-971.704 L 97.1627,-971.732 L 96.9438,-971.788 L 96.7336,-971.871 L 96.5355,-971.98 L 96.3526,-972.113
 L 96.1879,-972.268 L 96.0438,-972.442 L 95.9226,-972.633 L 95.8264,-972.837 L 95.7565,-973.052 L 95.7142,-973.274
 L 95.7,-973.5 L 95.7142,-973.726 L 95.7565,-973.948 L 95.8264,-974.163 L 95.9226,-974.367 L 96.0438,-974.558
 L 96.1879,-974.732 L 96.3526,-974.887 L 96.5355,-975.02 L 96.7336,-975.129 L 96.9438,-975.212 L 97.1627,-975.268
 L 97.387,-975.296 L 97.613,-975.296 L 97.8373,-975.268 L 98.0562,-975.212 L 98.2664,-975.129 L 98.4645,-975.02
 L 98.6474,-974.887 L 98.8121,-974.732 L 98.9562,-974.558 L 99.0773,-974.367 L 99.1736,-974.163 L 99.2434,-973.948
 L 99.2858,-973.726 L 99.3,-973.5 L 99.2858,-973.274 L 99.2434,-973.052 L 99.1736,-972.837 L 99.0773,-972.633
 L 98.9562,-972.442 L 98.8121,-972.268 L 98.6474,-972.113 L 98.4645,-971.98 L 98.2664,-971.871 L 98.0562,-971.788
 L 97.8373,-971.732 L 97.613,-971.704 z
M -97.613,-971.704 L -97.8373,-971.732 L -98.0562,-971.788 L -98.2664,-971.871 L -98.4645,-971.98 L -98.6474,-972.113
 L -98.8121,-972.268 L -98.9562,-972.442 L -99.0773,-972.633 L -99.1736,-972.837 L -99.2434,-973.052 L -99.2858,-973.274
 L -99.3,-973.5 L -99.2858,-973.726 L -99.2434,-973.948 L -99.1736,-974.163 L -99.0773,-974.367 L -98.9562,-974.558
 L -98.8121,-974.732 L -98.6474,-974.887 L -98.4645,-975.02 L -98.2664,-975.129 L -98.0562,-975.212 L -97.8373,-975.268
 L -97.613,-975.296 L -97.387,-975.296 L -97.1627,-975.268 L -96.9438,-975.212 L -96.7336,-975.129 L -96.5355,-975.02
 L -96.3526,-974.887 L -96.1879,-974.732 L -96.0438,-974.558 L -95.9226,-974.367 L -95.8264,-974.163 L -95.7565,-973.948
 L -95.7142,-973.726 L -95.7,-973.5 L -95.7142,-973.274 L -95.7565,-973.052 L -95.8264,-972.837 L -95.9226,-972.633
 L -96.0438,-972.442 L -96.1879,-972.268 L -96.3526,-972.113 L -96.5355,-971.98 L -96.7336,-971.871 L -96.9438,-971.788
 L -97.1627,-971.732 L -97.387,-971.704 z
M -97.613,-776.704 L -97.8373,-776.732 L -98.0562,-776.788 L -98.2664,-776.871 L -98.4645,-776.98 L -98.6474,-777.113
 L -98.8121,-777.268 L -98.9562,-777.442 L -99.0773,-777.633 L -99.1736,-777.837 L -99.2434,-778.052 L -99.2858,-778.274
 L -99.3,-778.5 L -99.2858,-778.726 L -99.2434,-778.948 L -99.1736,-779.163 L -99.0773,-779.367 L -98.9562,-779.558
 L -98.8121,-779.732 L -98.6474,-779.887 L -98.4645,-780.02 L -98.2664,-780.129 L -98.0562,-780.212 L -97.8373,-780.268
 L -97.613,-780.296 L -97.387,-780.296 L -97.1627,-780.268 L -96.9438,-780.212 L -96.7336,-780.129 L -96.5355,-780.02
 L -96.3526,-779.887 L -96.1879,-779.732 L -96.0438,-779.558 L -95.9226,-779.367 L -95.8264,-779.163 L -95.7565,-778.948
 L -95.7142,-778.726 L -95.7,-778.5 L -95.7142,-778.274 L -95.7565,-778.052 L -95.8264,-777.837 L -95.9226,-777.633
 L -96.0438,-777.442 L -96.1879,-777.268 L -96.3526,-777.113 L -96.5355,-776.98 L -96.7336,-776.871 L -96.9438,-776.788
 L -97.1627,-776.732 L -97.387,-776.704 z
M 97.387,-776.704 L 97.1627,-776.732 L 96.9438,-776.788 L 96.7336,-776.871 L 96.5355,-776.98 L 96.3526,-777.113
 L 96.1879,-777.268 L 96.0438,-777.442 L 95.9226,-777.633 L 95.8264,-777.837 L 95.7565,-778.052 L 95.7142,-778.274
 L 95.7,-778.5 L 95.7142,-778.726 L 95.7565,-778.948 L 95.8264,-779.163 L 95.9226,-779.367 L 96.0438,-779.558
 L 96.1879,-779.732 L 96.3526,-779.887 L 96.5355,-780.02 L 96.7336,-780.129 L 96.9438,-780.212 L 97.1627,-780.268
 L 97.387,-780.296 L 97.613,-780.296 L 97.8373,-780.268 L 98.0562,-780.212 L 98.2664,-780.129 L 98.4645,-780.02
 L 98.6474,-779.887 L 98.8121,-779.732 L 98.9562,-779.558 L 99.0773,-779.367 L 99.1736,-779.163 L 99.2434,-778.948
 L 99.2858,-778.726 L 99.3,-778.5 L 99.2858,-778.274 L 99.2434,-778.052 L 99.1736,-777.837 L 99.0773,-777.633
 L 98.9562,-777.442 L 98.8121,-777.268 L 98.6474,-777.113 L 98.4645,-776.98 L 98.2664,-776.871 L 98.0562,-776.788
 L 97.8373,-776.732 L 97.613,-776.704 z
" stroke="black" fill="lightgray" stroke-width="0.5"/>
</svg>
