<?xml version="1.0" standalone="no"?>
<!DOCTYPE svg PUBLIC "-//W3C//DTD SVG 1.1//EN" "http://www.w3.org/Graphics/SVG/1.1/DTD/svg11.dtd">
<svg width="24mm" height="688mm" viewBox="-12 -1301 24 688" xmlns="http://www.w3.org/2000/svg" version="1.1">
<title>OpenSCAD Model</title>
<path d="
M 7.1869,-1135.59 L 7.79507,-1135.74 L 8.37889,-1135.98 L 8.92912,-1136.28 L 9.43712,-1136.65 L 9.89484,-1137.08
 L 10.2951,-1137.56 L 10.6315,-1138.09 L 10.8989,-1138.66 L 11.0929,-1139.26 L 11.2106,-1139.87 L 11.25,-1140.5
 L 11.25,-1295.5 L 11.2106,-1296.13 L 11.0929,-1296.74 L 10.8989,-1297.34 L 10.6315,-1297.91 L 10.2951,-1298.44
 L 9.89484,-1298.92 L 9.43712,-1299.35 L 8.92912,-1299.72 L 8.37889,-1300.02 L 7.79507,-1300.26 L 7.1869,-1300.41
 L 6.56395,-1300.49 L -6.56395,-1300.49 L -7.1869,-1300.41 L -7.79507,-1300.26 L -8.37889,-1300.02 L -8.92912,-1299.72
 L -9.43712,-1299.35 L -9.89484,-1298.92 L -10.2951,-1298.44 L -10.6315,-1297.91 L -10.8989,-1297.34 L -11.0929,-1296.74
 L -11.2106,-1296.13 L -11.25,-1295.5 L -11.25,-1140.5 L -11.2106,-1139.87 L -11.0929,-1139.26 L -10.8989,-1138.66
 L -10.6315,-1138.09 L -10.2951,-1137.56 L -9.89484,-1137.08 L -9.43712,-1136.65 L -8.92912,-1136.28 L -8.37889,-1135.98
 L -7.79507,-1135.74 L -7.1869,-1135.59 L -6.56395,-1135.51 L 6.56395,-1135.51 z
M -6.00116,-1137.01 L -6.49951,-1137.07 L -6.98605,-1137.2 L -7.45311,-1137.38 L -7.8933,-1137.62 L -8.29968,-1137.92
 L -8.66586,-1138.26 L -8.98605,-1138.65 L -9.25522,-1139.07 L -9.4691,-1139.53 L -9.62433,-1140.01 L -9.71844,-1140.5
 L -9.75,-1141 L -9.75,-1295 L -9.71844,-1295.5 L -9.62433,-1295.99 L -9.4691,-1296.47 L -9.25522,-1296.93
 L -8.98605,-1297.35 L -8.66586,-1297.74 L -8.29968,-1298.08 L -7.8933,-1298.38 L -7.45311,-1298.62 L -6.98605,-1298.8
 L -6.49951,-1298.93 L -6.00116,-1298.99 L 6.00116,-1298.99 L 6.49951,-1298.93 L 6.98605,-1298.8 L 7.45311,-1298.62
 L 7.8933,-1298.38 L 8.29968,-1298.08 L 8.66586,-1297.74 L 8.98605,-1297.35 L 9.25522,-1296.93 L 9.4691,-1296.47
 L 9.62433,-1295.99 L 9.71844,-1295.5 L 9.75,-1295 L 9.75,-1141 L 9.71844,-1140.5 L 9.62433,-1140.01
 L 9.4691,-1139.53 L 9.25522,-1139.07 L 8.98605,-1138.65 L 8.66586,-1138.26 L 8.29968,-1137.92 L 7.8933,-1137.62
 L 7.45311,-1137.38 L 6.98605,-1137.2 L 6.49951,-1137.07 L 6.00116,-1137.01 z
M 7.1869,-961.589 L 7.79507,-961.745 L 8.37889,-961.976 L 8.92912,-962.278 L 9.43712,-962.647 L 9.89484,-963.077
 L 10.2951,-963.561 L 10.6315,-964.091 L 10.8989,-964.659 L 11.0929,-965.257 L 11.2106,-965.873 L 11.25,-966.5
 L 11.25,-1121.5 L 11.2106,-1122.13 L 11.0929,-1122.74 L 10.8989,-1123.34 L 10.6315,-1123.91 L 10.2951,-1124.44
 L 9.89484,-1124.92 L 9.43712,-1125.35 L 8.92912,-1125.72 L 8.37889,-1126.02 L 7.79507,-1126.26 L 7.1869,-1126.41
 L 6.56395,-1126.49 L -6.56395,-1126.49 L -7.1869,-1126.41 L -7.79507,-1126.26 L -8.37889,-1126.02 L -8.92912,-1125.72
 L -9.43712,-1125.35 L -9.89484,-1124.92 L -10.2951,-1124.44 L -10.6315,-1123.91 L -10.8989,-1123.34 L -11.0929,-1122.74
 L -11.2106,-1122.13 L -11.25,-1121.5 L -11.25,-966.5 L -11.2106,-965.873 L -11.0929,-965.257 L -10.8989,-964.659
 L -10.6315,-964.091 L -10.2951,-963.561 L -9.89484,-963.077 L -9.43712,-962.647 L -8.92912,-962.278 L -8.37889,-961.976
 L -7.79507,-961.745 L -7.1869,-961.589 L -6.56395,-961.51 L 6.56395,-961.51 z
M -6.00116,-963.008 L -6.49951,-963.071 L -6.98605,-963.196 L -7.45311,-963.381 L -7.8933,-963.623 L -8.29968,-963.918
 L -8.66586,-964.262 L -8.98605,-964.649 L -9.25522,-965.073 L -9.4691,-965.528 L -9.62433,-966.005 L -9.71844,-966.499
 L -9.75,-967 L -9.75,-1121 L -9.71844,-1121.5 L -9.62433,-1121.99 L -9.4691,-1122.47 L -9.25522,-1122.93
 L -8.98605,-1123.35 L -8.66586,-1123.74 L -8.29968,-1124.08 L -7.8933,-1124.38 L -7.45311,-1124.62 L -6.98605,-1124.8
 L -6.49951,-1124.93 L -6.00116,-1124.99 L 6.00116,-1124.99 L 6.49951,-1124.93 L 6.98605,-1124.8 L 7.45311,-1124.62
 L 7.8933,-1124.38 L 8.29968,-1124.08 L 8.66586,-1123.74 L 8.98605,-1123.35 L 9.25522,-1122.93 L 9.4691,-1122.47
 L 9.62433,-1121.99 L 9.71844,-1121.5 L 9.75,-1121 L 9.75,-967 L 9.71844,-966.499 L 9.62433,-966.005
 L 9.4691,-965.528 L 9.25522,-965.073 L 8.98605,-964.649 L 8.66586,-964.262 L 8.29968,-963.918 L 7.8933,-963.623
 L 7.45311,-963.381 L 6.98605,-963.196 L 6.49951,-963.071 L 6.00116,-963.008 z
M 7.1869,-787.589 L 7.79507,-787.745 L 8.37889,-787.976 L 8.92912,-788.278 L 9.43712,-788.647 L 9.89484,-789.077
 L 10.2951,-789.561 L 10.6315,-790.091 L 10.8989,-790.659 L 11.0929,-791.257 L 11.2106,-791.873 L 11.25,-792.5
 L 11.25,-947.5 L 11.2106,-948.127 L 11.0929,-948.743 L 10.8989,-949.341 L 10.6315,-949.909 L 10.2951,-950.439
 L 9.89484,-950.923 L 9.43712,-951.353 L 8.92912,-951.722 L 8.37889,-952.024 L 7.79507,-952.255 L 7.1869,-952.411
 L 6.56395,-952.49 L -6.56395,-952.49 L -7.1869,-952.411 L -7.79507,-952.255 L -8.37889,-952.024 L -8.92912,-951.722
 L -9.43712,-951.353 L -9.89484,-950.923 L -10.2951,-950.439 L -10.6315,-949.909 L -10.8989,-949.341 L -11.0929,-948.743
 L -11.2106,-948.127 L -11.25,-947.5 L -11.25,-792.5 L -11.2106,-791.873 L -11.0929,-791.257 L -10.8989,-790.659
 L -10.6315,-790.091 L -10.2951,-789.561 L -9.89484,-789.077 L -9.43712,-788.647 L -8.92912,-788.278 L -8.37889,-787.976
 L -7.79507,-787.745 L -7.1869,-787.589 L -6.56395,-787.51 L 6.56395,-787.51 z
M -5.94545,-789.893 L -6.3333,-789.942 L -6.71194,-790.039 L -7.07541,-790.183 L -7.41798,-790.372 L -7.73424,-790.601
 L -8.01921,-790.869 L -8.2684,-791.17 L -8.47786,-791.5 L -8.64432,-791.854 L -8.76512,-792.226 L -8.83836,-792.61
 L -8.86292,-793 L -8.86292,-947 L -8.83836,-947.39 L -8.76512,-947.774 L -8.64432,-948.146 L -8.47786,-948.5
 L -8.2684,-948.83 L -8.01921,-949.131 L -7.73424,-949.399 L -7.41798,-949.628 L -7.07541,-949.817 L -6.71194,-949.961
 L -6.3333,-950.058 L -5.94545,-950.107 L 5.94545,-950.107 L 6.3333,-950.058 L 6.71194,-949.961 L 7.07541,-949.817
 L 7.41798,-949.628 L 7.73424,-949.399 L 8.01921,-949.131 L 8.2684,-948.83 L 8.47786,-948.5 L 8.64432,-948.146
 L 8.76512,-947.774 L 8.83836,-947.39 L 8.86292,-947 L 8.86292,-793 L 8.83836,-792.61 L 8.76512,-792.226
 L 8.64432,-791.854 L 8.47786,-791.5 L 8.2684,-791.17 L 8.01921,-790.869 L 7.73424,-790.601 L 7.41798,-790.372
 L 7.07541,-790.183 L 6.71194,-790.039 L 6.3333,-789.942 L 5.94545,-789.893 z
M 7.1869,-613.589 L 7.79507,-613.745 L 8.37889,-613.976 L 8.92912,-614.278 L 9.43712,-614.647 L 9.89484,-615.077
 L 10.2951,-615.561 L 10.6315,-616.091 L 10.8989,-616.659 L 11.0929,-617.257 L 11.2106,-617.873 L 11.25,-618.5
 L 11.25,-773.5 L 11.2106,-774.127 L 11.0929,-774.743 L 10.8989,-775.341 L 10.6315,-775.909 L 10.2951,-776.439
 L 9.89484,-776.923 L 9.43712,-777.353 L 8.92912,-777.722 L 8.37889,-778.024 L 7.79507,-778.255 L 7.1869,-778.411
 L 6.56395,-778.49 L -6.56395,-778.49 L -7.1869,-778.411 L -7.79507,-778.255 L -8.37889,-778.024 L -8.92912,-777.722
 L -9.43712,-777.353 L -9.89484,-776.923 L -10.2951,-776.439 L -10.6315,-775.909 L -10.8989,-775.341 L -11.0929,-774.743
 L -11.2106,-774.127 L -11.25,-773.5 L -11.25,-618.5 L -11.2106,-617.873 L -11.0929,-617.257 L -10.8989,-616.659
 L -10.6315,-616.091 L -10.2951,-615.561 L -9.89484,-615.077 L -9.43712,-614.647 L -8.92912,-614.278 L -8.37889,-613.976
 L -7.79507,-613.745 L -7.1869,-613.589 L -6.56395,-613.51 L 6.56395,-613.51 z
M 3.61592,-768.869 L 3.34988,-768.903 L 3.09015,-768.969 L 2.84084,-769.068 L 2.60585,-769.197 L 2.3889,-769.355
 L 2.19344,-769.538 L 2.02251,-769.745 L 1.87881,-769.971 L 1.76465,-770.214 L 1.68178,-770.469 L 1.63153,-770.732
 L 1.6147,-771 L 1.63153,-771.268 L 1.68178,-771.531 L 1.76465,-771.786 L 1.87881,-772.029 L 2.02251,-772.255
 L 2.19344,-772.462 L 2.3889,-772.645 L 2.60585,-772.803 L 2.84084,-772.932 L 3.09015,-773.031 L 3.34988,-773.097
 L 3.61592,-773.131 L 3.88406,-773.131 L 4.1501,-773.097 L 4.40984,-773.031 L 4.65915,-772.932 L 4.89413,-772.803
 L 5.11108,-772.645 L 5.30655,-772.462 L 5.47748,-772.255 L 5.62117,-772.029 L 5.73534,-771.786 L 5.81821,-771.531
 L 5.86845,-771.268 L 5.88528,-771 L 5.86845,-770.732 L 5.81821,-770.469 L 5.73534,-770.214 L 5.62117,-769.971
 L 5.47748,-769.745 L 5.30655,-769.538 L 5.11108,-769.355 L 4.89413,-769.197 L 4.65915,-769.068 L 4.40984,-768.969
 L 4.1501,-768.903 L 3.88406,-768.869 z
M -3.88406,-768.869 L -4.1501,-768.903 L -4.40984,-768.969 L -4.65915,-769.068 L -4.89413,-769.197 L -5.11108,-769.355
 L -5.30655,-769.538 L -5.47748,-769.745 L -5.62117,-769.971 L -5.73534,-770.214 L -5.81821,-770.469 L -5.86845,-770.732
 L -5.88528,-771 L -5.86845,-771.268 L -5.81821,-771.531 L -5.73534,-771.786 L -5.62117,-772.029 L -5.47748,-772.255
 L -5.30655,-772.462 L -5.11108,-772.645 L -4.89413,-772.803 L -4.65915,-772.932 L -4.40984,-773.031 L -4.1501,-773.097
 L -3.88406,-773.131 L -3.61592,-773.131 L -3.34988,-773.097 L -3.09015,-773.031 L -2.84084,-772.932 L -2.60585,-772.803
 L -2.3889,-772.645 L -2.19344,-772.462 L -2.02251,-772.255 L -1.87881,-772.029 L -1.76465,-771.786 L -1.68178,-771.531
 L -1.63153,-771.268 L -1.6147,-771 L -1.63153,-770.732 L -1.68178,-770.469 L -1.76465,-770.214 L -1.87881,-769.971
 L -2.02251,-769.745 L -2.19344,-769.538 L -2.3889,-769.355 L -2.60585,-769.197 L -2.84084,-769.068 L -3.09015,-768.969
 L -3.34988,-768.903 L -3.61592,-768.869 z
M 3.61592,-618.869 L 3.34988,-618.903 L 3.09015,-618.969 L 2.84084,-619.068 L 2.60585,-619.197 L 2.3889,-619.355
 L 2.19344,-619.538 L 2.02251,-619.745 L 1.87881,-619.971 L 1.76465,-620.214 L 1.68178,-620.469 L 1.63153,-620.732
 L 1.6147,-621 L 1.63153,-621.268 L 1.68178,-621.531 L 1.76465,-621.786 L 1.87881,-622.029 L 2.02251,-622.255
 L 2.19344,-622.462 L 2.3889,-622.645 L 2.60585,-622.803 L 2.84084,-622.932 L 3.09015,-623.031 L 3.34988,-623.097
 L 3.61592,-623.131 L 3.88406,-623.131 L 4.1501,-623.097 L 4.40984,-623.031 L 4.65915,-622.932 L 4.89413,-622.803
 L 5.11108,-622.645 L 5.30655,-622.462 L 5.47748,-622.255 L 5.62117,-622.029 L 5.73534,-621.786 L 5.81821,-621.531
 L 5.86845,-621.268 L 5.88528,-621 L 5.86845,-620.732 L 5.81821,-620.469 L 5.73534,-620.214 L 5.62117,-619.971
 L 5.47748,-619.745 L 5.30655,-619.538 L 5.11108,-619.355 L 4.89413,-619.197 L 4.65915,-619.068 L 4.40984,-618.969
 L 4.1501,-618.903 L 3.88406,-618.869 z
M -3.88406,-618.869 L -4.1501,-618.903 L -4.40984,-618.969 L -4.65915,-619.068 L -4.89413,-619.197 L -5.11108,-619.355
 L -5.30655,-619.538 L -5.47748,-619.745 L -5.62117,-619.971 L -5.73534,-620.214 L -5.81821,-620.469 L -5.86845,-620.732
 L -5.88528,-621 L -5.86845,-621.268 L -5.81821,-621.531 L -5.73534,-621.786 L -5.62117,-622.029 L -5.47748,-622.255
 L -5.30655,-622.462 L -5.11108,-622.645 L -4.89413,-622.803 L -4.65915,-622.932 L -4.40984,-623.031 L -4.1501,-623.097
 L -3.88406,-623.131 L -3.61592,-623.131 L -3.34988,-623.097 L -3.09015,-623.031 L -2.84084,-622.932 L -2.60585,-622.803
 L -2.3889,-622.645 L -2.19344,-622.462 L -2.02251,-622.255 L -1.87881,-622.029 L -1.76465,-621.786 L -1.68178,-621.531
 L -1.63153,-621.268 L -1.6147,-621 L -1.63153,-620.732 L -1.68178,-620.469 L -1.76465,-620.214 L -1.87881,-619.971
 L -2.02251,-619.745 L -2.19344,-619.538 L -2.3889,-619.355 L -2.60585,-619.197 L -2.84084,-619.068 L -3.09015,-618.969
 L -3.34988,-618.903 L -3.61592,-618.869 z
" stroke="black" fill="lightgray" stroke-width="0.5"/>
</svg>
