<?xml version="1.0" standalone="no"?>
<!DOCTYPE svg PUBLIC "-//W3C//DTD SVG 1.1//EN" "http://www.w3.org/Graphics/SVG/1.1/DTD/svg11.dtd">
<svg width="120mm" height="88mm" viewBox="-60 -152 120 88" xmlns="http://www.w3.org/2000/svg" version="1.1">
<title>OpenSCAD Model</title>
<path d="
M 55.9369,-136.589 L 56.5451,-136.745 L 57.1289,-136.976 L 57.6791,-137.278 L 58.1871,-137.647 L 58.6448,-138.077
 L 59.0451,-138.561 L 59.3815,-139.091 L 59.6489,-139.659 L 59.8429,-140.257 L 59.9606,-140.873 L 60,-141.5
 L 60,-146.5 L 59.9606,-147.127 L 59.8429,-147.743 L 59.6489,-148.341 L 59.3815,-148.909 L 59.0451,-149.439
 L 58.6448,-149.923 L 58.1871,-150.353 L 57.6791,-150.722 L 57.1289,-151.024 L 56.5451,-151.255 L 55.9369,-151.411
 L 55.3139,-151.49 L -55.3139,-151.49 L -55.9369,-151.411 L -56.5451,-151.255 L -57,-151.075 L -57,-151.115
 L -60,-151.115 L -60,-136.885 L -57,-136.885 L -57,-136.925 L -56.5451,-136.745 L -55.9369,-136.589
 L -55.3139,-136.51 L 55.3139,-136.51 z
M -54.7512,-138.008 L -55.2495,-138.071 L -55.7361,-138.196 L -56.2031,-138.381 L -56.6433,-138.623 L -57.0497,-138.918
 L -57.4159,-139.262 L -57.7361,-139.649 L -58.0052,-140.073 L -58.2191,-140.528 L -58.3743,-141.005 L -58.4685,-141.499
 L -58.5,-142 L -58.5,-146 L -58.4685,-146.501 L -58.3743,-146.995 L -58.2191,-147.472 L -58.0052,-147.927
 L -57.7361,-148.351 L -57.4159,-148.738 L -57.0497,-149.082 L -56.6433,-149.377 L -56.2031,-149.619 L -55.7361,-149.804
 L -55.2495,-149.929 L -54.7512,-149.992 L 54.7512,-149.992 L 55.2495,-149.929 L 55.7361,-149.804 L 56.2031,-149.619
 L 56.6433,-149.377 L 57.0497,-149.082 L 57.4159,-148.738 L 57.7361,-148.351 L 58.0052,-147.927 L 58.2191,-147.472
 L 58.3743,-146.995 L 58.4685,-146.501 L 58.5,-146 L 58.5,-142 L 58.4685,-141.499 L 58.3743,-141.005
 L 58.2191,-140.528 L 58.0052,-140.073 L 57.7361,-139.649 L 57.4159,-139.262 L 57.0497,-138.918 L 56.6433,-138.623
 L 56.2031,-138.381 L 55.7361,-138.196 L 55.2495,-138.071 L 54.7512,-138.008 z
M 55.9369,-112.589 L 56.5451,-112.745 L 57.1289,-112.976 L 57.6791,-113.278 L 58.1871,-113.647 L 58.6448,-114.077
 L 59.0451,-114.561 L 59.3815,-115.091 L 59.6489,-115.659 L 59.8429,-116.257 L 59.9606,-116.873 L 60,-117.5
 L 60,-122.5 L 59.9606,-123.127 L 59.8429,-123.743 L 59.6489,-124.341 L 59.3815,-124.909 L 59.0451,-125.439
 L 58.6448,-125.923 L 58.1871,-126.353 L 57.6791,-126.722 L 57.1289,-127.024 L 56.5451,-127.255 L 55.9369,-127.411
 L 55.3139,-127.49 L -55.3139,-127.49 L -55.9369,-127.411 L -56.5451,-127.255 L -57.1289,-127.024 L -57.6791,-126.722
 L -58.1871,-126.353 L -58.6448,-125.923 L -59.0451,-125.439 L -59.3815,-124.909 L -59.6489,-124.341 L -59.8429,-123.743
 L -59.9,-123.444 L -60,-123.444 L -60,-116.556 L -59.9,-116.556 L -59.8429,-116.257 L -59.6489,-115.659
 L -59.3815,-115.091 L -59.0451,-114.561 L -58.6448,-114.077 L -58.1871,-113.647 L -57.6791,-113.278 L -57.1289,-112.976
 L -56.5451,-112.745 L -55.9369,-112.589 L -55.3139,-112.51 L 55.3139,-112.51 z
M -54.7432,-114.135 L -55.2256,-114.196 L -55.6967,-114.317 L -56.1489,-114.496 L -56.5751,-114.73 L -56.9685,-115.016
 L -57.323,-115.349 L -57.633,-115.724 L -57.8936,-116.134 L -58.1007,-116.574 L -58.251,-117.037 L -58.3421,-117.515
 L -58.3726,-118 L -58.3726,-122 L -58.3421,-122.485 L -58.251,-122.963 L -58.1007,-123.426 L -57.8936,-123.866
 L -57.633,-124.276 L -57.323,-124.651 L -56.9685,-124.984 L -56.5751,-125.27 L -56.1489,-125.504 L -55.6967,-125.683
 L -55.2256,-125.804 L -54.7432,-125.865 L 54.7432,-125.865 L 55.2256,-125.804 L 55.6967,-125.683 L 56.1489,-125.504
 L 56.5751,-125.27 L 56.9685,-124.984 L 57.323,-124.651 L 57.633,-124.276 L 57.8936,-123.866 L 58.1007,-123.426
 L 58.251,-122.963 L 58.3421,-122.485 L 58.3726,-122 L 58.3726,-118 L 58.3421,-117.515 L 58.251,-117.037
 L 58.1007,-116.574 L 57.8936,-116.134 L 57.633,-115.724 L 57.323,-115.349 L 56.9685,-115.016 L 56.5751,-114.73
 L 56.1489,-114.496 L 55.6967,-114.317 L 55.2256,-114.196 L 54.7432,-114.135 z
M 55.9369,-88.5886 L 56.5451,-88.7447 L 57.1289,-88.9759 L 57.6791,-89.2784 L 58.1871,-89.6474 L 58.6448,-90.0773
 L 59.0451,-90.5611 L 59.3815,-91.0912 L 59.6489,-91.6594 L 59.8429,-92.2566 L 59.9606,-92.8733 L 60,-93.5
 L 60,-98.5 L 59.9606,-99.1267 L 59.8429,-99.7434 L 59.6489,-100.341 L 59.3815,-100.909 L 59.0451,-101.439
 L 58.6448,-101.923 L 58.1871,-102.353 L 57.6791,-102.722 L 57.1289,-103.024 L 56.5451,-103.255 L 55.9369,-103.411
 L 55.3139,-103.49 L -55.3139,-103.49 L -55.9369,-103.411 L -56.5451,-103.255 L -57.1289,-103.024 L -57.6791,-102.722
 L -58.1871,-102.353 L -58.6448,-101.923 L -59.0451,-101.439 L -59.3815,-100.909 L -59.6489,-100.341 L -59.8429,-99.7434
 L -59.9606,-99.1267 L -60,-98.5 L -60,-93.5 L -59.9606,-92.8733 L -59.8429,-92.2566 L -59.6489,-91.6594
 L -59.3815,-91.0912 L -59.0451,-90.5611 L -58.6448,-90.0773 L -58.1871,-89.6474 L -57.6791,-89.2784 L -57.1289,-88.9759
 L -56.5451,-88.7447 L -55.9369,-88.5886 L -55.3139,-88.5099 L 55.3139,-88.5099 z
M 52.3493,-93.6047 L 52.0503,-93.6425 L 51.7584,-93.7175 L 51.4781,-93.8284 L 51.214,-93.9736 L 50.9702,-94.1508
 L 50.7505,-94.3571 L 50.5583,-94.5893 L 50.3969,-94.8438 L 50.2685,-95.1165 L 50.1754,-95.4032 L 50.1189,-95.6992
 L 50.1,-96 L 50.1189,-96.3008 L 50.1754,-96.5968 L 50.2685,-96.8835 L 50.3969,-97.1562 L 50.5583,-97.4107
 L 50.7505,-97.6429 L 50.9702,-97.8492 L 51.214,-98.0264 L 51.4781,-98.1716 L 51.7584,-98.2825 L 52.0503,-98.3575
 L 52.3493,-98.3953 L 52.6507,-98.3953 L 52.9497,-98.3575 L 53.2416,-98.2825 L 53.5219,-98.1716 L 53.786,-98.0264
 L 54.0298,-97.8492 L 54.2495,-97.6429 L 54.4416,-97.4107 L 54.6031,-97.1562 L 54.7315,-96.8835 L 54.8246,-96.5968
 L 54.8811,-96.3008 L 54.9,-96 L 54.8811,-95.6992 L 54.8246,-95.4032 L 54.7315,-95.1165 L 54.6031,-94.8438
 L 54.4416,-94.5893 L 54.2495,-94.3571 L 54.0298,-94.1508 L 53.786,-93.9736 L 53.5219,-93.8284 L 53.2416,-93.7175
 L 52.9497,-93.6425 L 52.6507,-93.6047 z
M -52.6507,-93.6047 L -52.9497,-93.6425 L -53.2416,-93.7175 L -53.5219,-93.8284 L -53.786,-93.9736 L -54.0298,-94.1508
 L -54.2495,-94.3571 L -54.4416,-94.5893 L -54.6031,-94.8438 L -54.7315,-95.1165 L -54.8246,-95.4032 L -54.8811,-95.6992
 L -54.9,-96 L -54.8811,-96.3008 L -54.8246,-96.5968 L -54.7315,-96.8835 L -54.6031,-97.1562 L -54.4416,-97.4107
 L -54.2495,-97.6429 L -54.0298,-97.8492 L -53.786,-98.0264 L -53.5219,-98.1716 L -53.2416,-98.2825 L -52.9497,-98.3575
 L -52.6507,-98.3953 L -52.3493,-98.3953 L -52.0503,-98.3575 L -51.7584,-98.2825 L -51.4781,-98.1716 L -51.214,-98.0264
 L -50.9702,-97.8492 L -50.7505,-97.6429 L -50.5583,-97.4107 L -50.3969,-97.1562 L -50.2685,-96.8835 L -50.1754,-96.5968
 L -50.1189,-96.3008 L -50.1,-96 L -50.1189,-95.6992 L -50.1754,-95.4032 L -50.2685,-95.1165 L -50.3969,-94.8438
 L -50.5583,-94.5893 L -50.7505,-94.3571 L -50.9702,-94.1508 L -51.214,-93.9736 L -51.4781,-93.8284 L -51.7584,-93.7175
 L -52.0503,-93.6425 L -52.3493,-93.6047 z
M 55.9369,-64.5886 L 56.5451,-64.7447 L 57.1289,-64.9759 L 57.6791,-65.2784 L 58.1871,-65.6474 L 58.6448,-66.0773
 L 59.0451,-66.5611 L 59.3815,-67.0912 L 59.6489,-67.6594 L 59.8429,-68.2566 L 59.9606,-68.8733 L 60,-69.5
 L 60,-74.5 L 59.9606,-75.1267 L 59.8429,-75.7434 L 59.6489,-76.3406 L 59.3815,-76.9088 L 59.0451,-77.4389
 L 58.6448,-77.9227 L 58.1871,-78.3526 L 57.6791,-78.7216 L 57.1289,-79.0241 L 56.5451,-79.2553 L 55.9369,-79.4114
 L 55.3139,-79.4901 L -55.3139,-79.4901 L -55.9369,-79.4114 L -56.5451,-79.2553 L -57.1289,-79.0241 L -57.6791,-78.7216
 L -58.1871,-78.3526 L -58.6448,-77.9227 L -59.0451,-77.4389 L -59.3815,-76.9088 L -59.6489,-76.3406 L -59.8429,-75.7434
 L -59.9606,-75.1267 L -60,-74.5 L -60,-69.5 L -59.9606,-68.8733 L -59.8429,-68.2566 L -59.6489,-67.6594
 L -59.3815,-67.0912 L -59.0451,-66.5611 L -58.6448,-66.0773 L -58.1871,-65.6474 L -57.6791,-65.2784 L -57.1289,-64.9759
 L -56.5451,-64.7447 L -55.9369,-64.5886 L -55.3139,-64.5099 L 55.3139,-64.5099 z
M -52.613,-70.2036 L -52.8373,-70.2319 L -53.0562,-70.2881 L -53.2664,-70.3713 L -53.4645,-70.4802 L -53.6474,-70.6131
 L -53.8121,-70.7678 L -53.9562,-70.942 L -54.0773,-71.1329 L -54.1736,-71.3374 L -54.2434,-71.5524 L -54.2858,-71.7744
 L -54.3,-72 L -54.2858,-72.2256 L -54.2434,-72.4476 L -54.1736,-72.6626 L -54.0773,-72.8671 L -53.9562,-73.058
 L -53.8121,-73.2322 L -53.6474,-73.3869 L -53.4645,-73.5198 L -53.2664,-73.6287 L -53.0562,-73.7119 L -52.8373,-73.7681
 L -52.613,-73.7964 L -52.387,-73.7964 L -52.1627,-73.7681 L -51.9438,-73.7119 L -51.7336,-73.6287 L -51.5355,-73.5198
 L -51.3526,-73.3869 L -51.1879,-73.2322 L -51.0438,-73.058 L -50.9226,-72.8671 L -50.8264,-72.6626 L -50.7565,-72.4476
 L -50.7142,-72.2256 L -50.7,-72 L -50.7142,-71.7744 L -50.7565,-71.5524 L -50.8264,-71.3374 L -50.9226,-71.1329
 L -51.0438,-70.942 L -51.1879,-70.7678 L -51.3526,-70.6131 L -51.5355,-70.4802 L -51.7336,-70.3713 L -51.9438,-70.2881
 L -52.1627,-70.2319 L -52.387,-70.2036 z
M 52.387,-70.2036 L 52.1627,-70.2319 L 51.9438,-70.2881 L 51.7336,-70.3713 L 51.5355,-70.4802 L 51.3526,-70.6131
 L 51.1879,-70.7678 L 51.0438,-70.942 L 50.9226,-71.1329 L 50.8264,-71.3374 L 50.7565,-71.5524 L 50.7142,-71.7744
 L 50.7,-72 L 50.7142,-72.2256 L 50.7565,-72.4476 L 50.8264,-72.6626 L 50.9226,-72.8671 L 51.0438,-73.058
 L 51.1879,-73.2322 L 51.3526,-73.3869 L 51.5355,-73.5198 L 51.7336,-73.6287 L 51.9438,-73.7119 L 52.1627,-73.7681
 L 52.387,-73.7964 L 52.613,-73.7964 L 52.8373,-73.7681 L 53.0562,-73.7119 L 53.2664,-73.6287 L 53.4645,-73.5198
 L 53.6474,-73.3869 L 53.8121,-73.2322 L 53.9562,-73.058 L 54.0773,-72.8671 L 54.1736,-72.6626 L 54.2434,-72.4476
 L 54.2858,-72.2256 L 54.3,-72 L 54.2858,-71.7744 L 54.2434,-71.5524 L 54.1736,-71.3374 L 54.0773,-71.1329
 L 53.9562,-70.942 L 53.8121,-70.7678 L 53.6474,-70.6131 L 53.4645,-70.4802 L 53.2664,-70.3713 L 53.0562,-70.2881
 L 52.8373,-70.2319 L 52.613,-70.2036 z
" stroke="black" fill="lightgray" stroke-width="0.5"/>
</svg>
