<?xml version="1.0" standalone="no"?>
<!DOCTYPE svg PUBLIC "-//W3C//DTD SVG 1.1//EN" "http://www.w3.org/Graphics/SVG/1.1/DTD/svg11.dtd">
<svg width="210mm" height="627mm" viewBox="-105 -1188 210 627" xmlns="http://www.w3.org/2000/svg" version="1.1">
<title>OpenSCAD Model</title>
<path d="
M 100.937,-1038.09 L 101.545,-1038.24 L 102.129,-1038.48 L 102.679,-1038.78 L 103.187,-1039.15 L 103.645,-1039.58
 L 104.045,-1040.06 L 104.382,-1040.59 L 104.649,-1041.16 L 104.843,-1041.76 L 104.961,-1042.37 L 105,-1043
 L 105,-1183 L 104.961,-1183.63 L 104.843,-1184.24 L 104.649,-1184.84 L 104.382,-1185.41 L 104.045,-1185.94
 L 103.645,-1186.42 L 103.187,-1186.85 L 102.679,-1187.22 L 102.129,-1187.52 L 101.545,-1187.76 L 100.937,-1187.91
 L 100.314,-1187.99 L -100.314,-1187.99 L -100.937,-1187.91 L -101.545,-1187.76 L -102.129,-1187.52 L -102.679,-1187.22
 L -103.187,-1186.85 L -103.4,-1186.65 L -105,-1186.65 L -105,-1039.35 L -103.4,-1039.35 L -103.187,-1039.15
 L -102.679,-1038.78 L -102.129,-1038.48 L -101.545,-1038.24 L -100.937,-1038.09 L -100.314,-1038.01 L 100.314,-1038.01
 z
M -99.7512,-1039.51 L -100.25,-1039.57 L -100.736,-1039.7 L -101.203,-1039.88 L -101.643,-1040.12 L -102.05,-1040.42
 L -102.416,-1040.76 L -102.736,-1041.15 L -103.005,-1041.57 L -103.219,-1042.03 L -103.374,-1042.51 L -103.468,-1043
 L -103.5,-1043.5 L -103.5,-1182.5 L -103.468,-1183 L -103.374,-1183.49 L -103.219,-1183.97 L -103.005,-1184.43
 L -102.736,-1184.85 L -102.416,-1185.24 L -102.05,-1185.58 L -101.643,-1185.88 L -101.203,-1186.12 L -100.736,-1186.3
 L -100.25,-1186.43 L -99.7512,-1186.49 L 99.7512,-1186.49 L 100.25,-1186.43 L 100.736,-1186.3 L 101.203,-1186.12
 L 101.643,-1185.88 L 102.05,-1185.58 L 102.416,-1185.24 L 102.736,-1184.85 L 103.005,-1184.43 L 103.219,-1183.97
 L 103.374,-1183.49 L 103.468,-1183 L 103.5,-1182.5 L 103.5,-1043.5 L 103.468,-1043 L 103.374,-1042.51
 L 103.219,-1042.03 L 103.005,-1041.57 L 102.736,-1041.15 L 102.416,-1040.76 L 102.05,-1040.42 L 101.643,-1040.12
 L 101.203,-1039.88 L 100.736,-1039.7 L 100.25,-1039.57 L 99.7512,-1039.51 z
M 100.937,-879.089 L 101.545,-879.245 L 102.129,-879.476 L 102.679,-879.778 L 103.187,-880.147 L 103.645,-880.577
 L 104.045,-881.061 L 104.382,-881.591 L 104.649,-882.159 L 104.843,-882.757 L 104.961,-883.373 L 105,-884
 L 105,-1024 L 104.961,-1024.63 L 104.843,-1025.24 L 104.649,-1025.84 L 104.382,-1026.41 L 104.045,-1026.94
 L 103.645,-1027.42 L 103.187,-1027.85 L 102.679,-1028.22 L 102.129,-1028.52 L 101.545,-1028.76 L 100.937,-1028.91
 L 100.314,-1028.99 L -100.314,-1028.99 L -100.937,-1028.91 L -101.545,-1028.76 L -102.129,-1028.52 L -102.679,-1028.22
 L -103.187,-1027.85 L -103.645,-1027.42 L -104.045,-1026.94 L -104.382,-1026.41 L -104.649,-1025.84 L -104.843,-1025.24
 L -104.961,-1024.63 L -105,-1024 L -105,-884 L -104.961,-883.373 L -104.843,-882.757 L -104.649,-882.159
 L -104.382,-881.591 L -104.045,-881.061 L -103.645,-880.577 L -103.187,-880.147 L -102.679,-879.778 L -102.129,-879.476
 L -101.545,-879.245 L -100.937,-879.089 L -100.314,-879.01 L 100.314,-879.01 z
M -99.7512,-880.508 L -100.25,-880.571 L -100.736,-880.696 L -101.203,-880.881 L -101.643,-881.123 L -102.05,-881.418
 L -102.416,-881.762 L -102.736,-882.149 L -103.005,-882.573 L -103.219,-883.028 L -103.374,-883.505 L -103.468,-883.999
 L -103.5,-884.5 L -103.5,-1023.5 L -103.468,-1024 L -103.374,-1024.49 L -103.219,-1024.97 L -103.005,-1025.43
 L -102.736,-1025.85 L -102.416,-1026.24 L -102.05,-1026.58 L -101.643,-1026.88 L -101.203,-1027.12 L -100.736,-1027.3
 L -100.25,-1027.43 L -99.7512,-1027.49 L 99.7512,-1027.49 L 100.25,-1027.43 L 100.736,-1027.3 L 101.203,-1027.12
 L 101.643,-1026.88 L 102.05,-1026.58 L 102.416,-1026.24 L 102.736,-1025.85 L 103.005,-1025.43 L 103.219,-1024.97
 L 103.374,-1024.49 L 103.468,-1024 L 103.5,-1023.5 L 103.5,-884.5 L 103.468,-883.999 L 103.374,-883.505
 L 103.219,-883.028 L 103.005,-882.573 L 102.736,-882.149 L 102.416,-881.762 L 102.05,-881.418 L 101.643,-881.123
 L 101.203,-880.881 L 100.736,-880.696 L 100.25,-880.571 L 99.7512,-880.508 z
M 100.937,-720.089 L 101.545,-720.245 L 102.129,-720.476 L 102.679,-720.778 L 103.187,-721.147 L 103.645,-721.577
 L 104.045,-722.061 L 104.382,-722.591 L 104.649,-723.159 L 104.843,-723.757 L 104.961,-724.373 L 105,-725
 L 105,-865 L 104.961,-865.627 L 104.843,-866.243 L 104.649,-866.841 L 104.382,-867.409 L 104.045,-867.939
 L 103.645,-868.423 L 103.187,-868.853 L 102.679,-869.222 L 102.129,-869.524 L 101.545,-869.755 L 100.937,-869.911
 L 100.314,-869.99 L -100.314,-869.99 L -100.937,-869.911 L -101.545,-869.755 L -102.129,-869.524 L -102.679,-869.222
 L -103.187,-868.853 L -103.645,-868.423 L -104.045,-867.939 L -104.382,-867.409 L -104.649,-866.841 L -104.843,-866.243
 L -104.961,-865.627 L -105,-865 L -105,-725 L -104.961,-724.373 L -104.843,-723.757 L -104.649,-723.159
 L -104.382,-722.591 L -104.045,-722.061 L -103.645,-721.577 L -103.187,-721.147 L -102.679,-720.778 L -102.129,-720.476
 L -101.545,-720.245 L -100.937,-720.089 L -100.314,-720.01 L 100.314,-720.01 z
M -99.6955,-722.393 L -100.083,-722.442 L -100.462,-722.539 L -100.825,-722.683 L -101.168,-722.872 L -101.484,-723.101
 L -101.769,-723.369 L -102.018,-723.67 L -102.228,-724 L -102.394,-724.354 L -102.515,-724.726 L -102.588,-725.11
 L -102.613,-725.5 L -102.613,-864.5 L -102.588,-864.89 L -102.515,-865.274 L -102.394,-865.646 L -102.228,-866
 L -102.018,-866.33 L -101.769,-866.631 L -101.484,-866.899 L -101.168,-867.128 L -100.825,-867.317 L -100.462,-867.461
 L -100.083,-867.558 L -99.6955,-867.607 L 99.6955,-867.607 L 100.083,-867.558 L 100.462,-867.461 L 100.825,-867.317
 L 101.168,-867.128 L 101.484,-866.899 L 101.769,-866.631 L 102.018,-866.33 L 102.228,-866 L 102.394,-865.646
 L 102.515,-865.274 L 102.588,-864.89 L 102.613,-864.5 L 102.613,-725.5 L 102.588,-725.11 L 102.515,-724.726
 L 102.394,-724.354 L 102.228,-724 L 102.018,-723.67 L 101.769,-723.369 L 101.484,-723.101 L 101.168,-722.872
 L 100.825,-722.683 L 100.462,-722.539 L 100.083,-722.442 L 99.6955,-722.393 z
M 100.937,-561.089 L 101.545,-561.245 L 102.129,-561.476 L 102.679,-561.778 L 103.187,-562.147 L 103.645,-562.577
 L 104.045,-563.061 L 104.382,-563.591 L 104.649,-564.159 L 104.843,-564.757 L 104.961,-565.373 L 105,-566
 L 105,-706 L 104.961,-706.627 L 104.843,-707.243 L 104.649,-707.841 L 104.382,-708.409 L 104.045,-708.939
 L 103.645,-709.423 L 103.187,-709.853 L 102.679,-710.222 L 102.129,-710.524 L 101.545,-710.755 L 100.937,-710.911
 L 100.314,-710.99 L -100.314,-710.99 L -100.937,-710.911 L -101.545,-710.755 L -102.129,-710.524 L -102.679,-710.222
 L -103.187,-709.853 L -103.645,-709.423 L -104.045,-708.939 L -104.382,-708.409 L -104.649,-707.841 L -104.843,-707.243
 L -104.961,-706.627 L -105,-706 L -105,-566 L -104.961,-565.373 L -104.843,-564.757 L -104.649,-564.159
 L -104.382,-563.591 L -104.045,-563.061 L -103.645,-562.577 L -103.187,-562.147 L -102.679,-561.778 L -102.129,-561.476
 L -101.545,-561.245 L -100.937,-561.089 L -100.314,-561.01 L 100.314,-561.01 z
M 97.3659,-701.369 L 97.0999,-701.403 L 96.8401,-701.469 L 96.5908,-701.568 L 96.3559,-701.697 L 96.1389,-701.855
 L 95.9434,-702.038 L 95.7725,-702.245 L 95.6288,-702.471 L 95.5146,-702.714 L 95.4318,-702.969 L 95.3815,-703.232
 L 95.3647,-703.5 L 95.3815,-703.768 L 95.4318,-704.031 L 95.5146,-704.286 L 95.6288,-704.529 L 95.7725,-704.755
 L 95.9434,-704.962 L 96.1389,-705.145 L 96.3559,-705.303 L 96.5908,-705.432 L 96.8401,-705.531 L 97.0999,-705.597
 L 97.3659,-705.631 L 97.6341,-705.631 L 97.9001,-705.597 L 98.1598,-705.531 L 98.4092,-705.432 L 98.6441,-705.303
 L 98.8611,-705.145 L 99.0566,-704.962 L 99.2275,-704.755 L 99.3712,-704.529 L 99.4853,-704.286 L 99.5682,-704.031
 L 99.6185,-703.768 L 99.6353,-703.5 L 99.6185,-703.232 L 99.5682,-702.969 L 99.4853,-702.714 L 99.3712,-702.471
 L 99.2275,-702.245 L 99.0566,-702.038 L 98.8611,-701.855 L 98.6441,-701.697 L 98.4092,-701.568 L 98.1598,-701.469
 L 97.9001,-701.403 L 97.6341,-701.369 z
M -97.6341,-701.369 L -97.9001,-701.403 L -98.1598,-701.469 L -98.4092,-701.568 L -98.6441,-701.697 L -98.8611,-701.855
 L -99.0566,-702.038 L -99.2275,-702.245 L -99.3712,-702.471 L -99.4853,-702.714 L -99.5682,-702.969 L -99.6185,-703.232
 L -99.6353,-703.5 L -99.6185,-703.768 L -99.5682,-704.031 L -99.4853,-704.286 L -99.3712,-704.529 L -99.2275,-704.755
 L -99.0566,-704.962 L -98.8611,-705.145 L -98.6441,-705.303 L -98.4092,-705.432 L -98.1598,-705.531 L -97.9001,-705.597
 L -97.6341,-705.631 L -97.3659,-705.631 L -97.0999,-705.597 L -96.8401,-705.531 L -96.5908,-705.432 L -96.3559,-705.303
 L -96.1389,-705.145 L -95.9434,-704.962 L -95.7725,-704.755 L -95.6288,-704.529 L -95.5146,-704.286 L -95.4318,-704.031
 L -95.3815,-703.768 L -95.3647,-703.5 L -95.3815,-703.232 L -95.4318,-702.969 L -95.5146,-702.714 L -95.6288,-702.471
 L -95.7725,-702.245 L -95.9434,-702.038 L -96.1389,-701.855 L -96.3559,-701.697 L -96.5908,-701.568 L -96.8401,-701.469
 L -97.0999,-701.403 L -97.3659,-701.369 z
M 97.3659,-566.369 L 97.0999,-566.403 L 96.8401,-566.469 L 96.5908,-566.568 L 96.3559,-566.697 L 96.1389,-566.855
 L 95.9434,-567.038 L 95.7725,-567.245 L 95.6288,-567.471 L 95.5146,-567.714 L 95.4318,-567.969 L 95.3815,-568.232
 L 95.3647,-568.5 L 95.3815,-568.768 L 95.4318,-569.031 L 95.5146,-569.286 L 95.6288,-569.529 L 95.7725,-569.755
 L 95.9434,-569.962 L 96.1389,-570.145 L 96.3559,-570.303 L 96.5908,-570.432 L 96.8401,-570.531 L 97.0999,-570.597
 L 97.3659,-570.631 L 97.6341,-570.631 L 97.9001,-570.597 L 98.1598,-570.531 L 98.4092,-570.432 L 98.6441,-570.303
 L 98.8611,-570.145 L 99.0566,-569.962 L 99.2275,-569.755 L 99.3712,-569.529 L 99.4853,-569.286 L 99.5682,-569.031
 L 99.6185,-568.768 L 99.6353,-568.5 L 99.6185,-568.232 L 99.5682,-567.969 L 99.4853,-567.714 L 99.3712,-567.471
 L 99.2275,-567.245 L 99.0566,-567.038 L 98.8611,-566.855 L 98.6441,-566.697 L 98.4092,-566.568 L 98.1598,-566.469
 L 97.9001,-566.403 L 97.6341,-566.369 z
M -97.6341,-566.369 L -97.9001,-566.403 L -98.1598,-566.469 L -98.4092,-566.568 L -98.6441,-566.697 L -98.8611,-566.855
 L -99.0566,-567.038 L -99.2275,-567.245 L -99.3712,-567.471 L -99.4853,-567.714 L -99.5682,-567.969 L -99.6185,-568.232
 L -99.6353,-568.5 L -99.6185,-568.768 L -99.5682,-569.031 L -99.4853,-569.286 L -99.3712,-569.529 L -99.2275,-569.755
 L -99.0566,-569.962 L -98.8611,-570.145 L -98.6441,-570.303 L -98.4092,-570.432 L -98.1598,-570.531 L -97.9001,-570.597
 L -97.6341,-570.631 L -97.3659,-570.631 L -97.0999,-570.597 L -96.8401,-570.531 L -96.5908,-570.432 L -96.3559,-570.303
 L -96.1389,-570.145 L -95.9434,-569.962 L -95.7725,-569.755 L -95.6288,-569.529 L -95.5146,-569.286 L -95.4318,-569.031
 L -95.3815,-568.768 L -95.3647,-568.5 L -95.3815,-568.232 L -95.4318,-567.969 L -95.5146,-567.714 L -95.6288,-567.471
 L -95.7725,-567.245 L -95.9434,-567.038 L -96.1389,-566.855 L -96.3559,-566.697 L -96.5908,-566.568 L -96.8401,-566.469
 L -97.0999,-566.403 L -97.3659,-566.369 z
" stroke="black" fill="lightgray" stroke-width="0.5"/>
</svg>
