<?xml version="1.0" standalone="no"?>
<!DOCTYPE svg PUBLIC "-//W3C//DTD SVG 1.1//EN" "http://www.w3.org/Graphics/SVG/1.1/DTD/svg11.dtd">
<svg width="60mm" height="3276mm" viewBox="-30 -6456 60 3276" xmlns="http://www.w3.org/2000/svg" version="1.1">
<title>OpenSCAD Model</title>
<path d="
M 25.9369,-6246.09 L 26.5451,-6246.24 L 27.1289,-6246.48 L 27.6791,-6246.78 L 28.1871,-6247.15 L 28.6448,-6247.58
 L 29.0451,-6248.06 L 29.3815,-6248.59 L 29.6489,-6249.16 L 29.8429,-6249.76 L 29.9606,-6250.37 L 30,-6251
 L 30,-6451 L 29.9606,-6451.63 L 29.8429,-6452.24 L 29.6489,-6452.84 L 29.3815,-6453.41 L 29.0451,-6453.94
 L 28.6448,-6454.42 L 28.1871,-6454.85 L 27.6791,-6455.22 L 27.1289,-6455.52 L 26.5451,-6455.76 L 25.9369,-6455.91
 L 25.3139,-6455.99 L -25.3139,-6455.99 L -25.9369,-6455.91 L -26.5451,-6455.76 L -27.1289,-6455.52 L -27.6791,-6455.22
 L -28.1871,-6454.85 L -28.6448,-6454.42 L -29.0451,-6453.94 L -29.3815,-6453.41 L -29.6489,-6452.84 L -29.8429,-6452.24
 L -29.9606,-6451.63 L -30,-6451 L -30,-6251 L -29.9606,-6250.37 L -29.8429,-6249.76 L -29.6489,-6249.16
 L -29.3815,-6248.59 L -29.0451,-6248.06 L -28.6448,-6247.58 L -28.1871,-6247.15 L -27.6791,-6246.78 L -27.1289,-6246.48
 L -26.5451,-6246.24 L -25.9369,-6246.09 L -25.3139,-6246.01 L 25.3139,-6246.01 z
M -24.7512,-6247.51 L -25.2495,-6247.57 L -25.7361,-6247.7 L -26.2031,-6247.88 L -26.6433,-6248.12 L -27.0497,-6248.42
 L -27.4159,-6248.76 L -27.7361,-6249.15 L -28.0052,-6249.57 L -28.2191,-6250.03 L -28.3743,-6250.51 L -28.4684,-6251
 L -28.5,-6251.5 L -28.5,-6450.5 L -28.4684,-6451 L -28.3743,-6451.49 L -28.2191,-6451.97 L -28.0052,-6452.43
 L -27.7361,-6452.85 L -27.4159,-6453.24 L -27.0497,-6453.58 L -26.6433,-6453.88 L -26.2031,-6454.12 L -25.7361,-6454.3
 L -25.2495,-6454.43 L -24.7512,-6454.49 L 24.7512,-6454.49 L 25.2495,-6454.43 L 25.7361,-6454.3 L 26.2031,-6454.12
 L 26.6433,-6453.88 L 27.0497,-6453.58 L 27.4159,-6453.24 L 27.7361,-6452.85 L 28.0052,-6452.43 L 28.2191,-6451.97
 L 28.3743,-6451.49 L 28.4684,-6451 L 28.5,-6450.5 L 28.5,-6251.5 L 28.4684,-6251 L 28.3743,-6250.51
 L 28.2191,-6250.03 L 28.0052,-6249.57 L 27.7361,-6249.15 L 27.4159,-6248.76 L 27.0497,-6248.42 L 26.6433,-6248.12
 L 26.2031,-6247.88 L 25.7361,-6247.7 L 25.2495,-6247.57 L 24.7512,-6247.51 z
M 25.9369,-6027.09 L 26.5451,-6027.24 L 27.1289,-6027.48 L 27.6791,-6027.78 L 28.1871,-6028.15 L 28.6448,-6028.58
 L 29.0451,-6029.06 L 29.3815,-6029.59 L 29.6489,-6030.16 L 29.8429,-6030.76 L 29.9606,-6031.37 L 30,-6032
 L 30,-6232 L 29.9606,-6232.63 L 29.8429,-6233.24 L 29.6489,-6233.84 L 29.3815,-6234.41 L 29.0451,-6234.94
 L 28.6448,-6235.42 L 28.1871,-6235.85 L 27.6791,-6236.22 L 27.1289,-6236.52 L 26.5451,-6236.76 L 25.9369,-6236.91
 L 25.3139,-6236.99 L -25.3139,-6236.99 L -25.9369,-6236.91 L -26.5451,-6236.76 L -27.1289,-6236.52 L -27.6791,-6236.22
 L -28.1871,-6235.85 L -28.6448,-6235.42 L -29.0451,-6234.94 L -29.3815,-6234.41 L -29.6489,-6233.84 L -29.8429,-6233.24
 L -29.9606,-6232.63 L -30,-6232 L -30,-6032 L -29.9606,-6031.37 L -29.8429,-6030.76 L -29.6489,-6030.16
 L -29.3815,-6029.59 L -29.0451,-6029.06 L -28.6448,-6028.58 L -28.1871,-6028.15 L -27.6791,-6027.78 L -27.1289,-6027.48
 L -26.5451,-6027.24 L -25.9369,-6027.09 L -25.3139,-6027.01 L 25.3139,-6027.01 z
M -24.7512,-6028.51 L -25.2495,-6028.57 L -25.7361,-6028.7 L -26.2031,-6028.88 L -26.6433,-6029.12 L -27.0497,-6029.42
 L -27.4159,-6029.76 L -27.7361,-6030.15 L -28.0052,-6030.57 L -28.2191,-6031.03 L -28.3743,-6031.51 L -28.4684,-6032
 L -28.5,-6032.5 L -28.5,-6231.5 L -28.4684,-6232 L -28.3743,-6232.49 L -28.2191,-6232.97 L -28.0052,-6233.43
 L -27.7361,-6233.85 L -27.4159,-6234.24 L -27.0497,-6234.58 L -26.6433,-6234.88 L -26.2031,-6235.12 L -25.7361,-6235.3
 L -25.2495,-6235.43 L -24.7512,-6235.49 L 24.7512,-6235.49 L 25.2495,-6235.43 L 25.7361,-6235.3 L 26.2031,-6235.12
 L 26.6433,-6234.88 L 27.0497,-6234.58 L 27.4159,-6234.24 L 27.7361,-6233.85 L 28.0052,-6233.43 L 28.2191,-6232.97
 L 28.3743,-6232.49 L 28.4684,-6232 L 28.5,-6231.5 L 28.5,-6032.5 L 28.4684,-6032 L 28.3743,-6031.51
 L 28.2191,-6031.03 L 28.0052,-6030.57 L 27.7361,-6030.15 L 27.4159,-6029.76 L 27.0497,-6029.42 L 26.6433,-6029.12
 L 26.2031,-6028.88 L 25.7361,-6028.7 L 25.2495,-6028.57 L 24.7512,-6028.51 z
M 25.9369,-5808.09 L 26.5451,-5808.24 L 27.1289,-5808.48 L 27.6791,-5808.78 L 28.1871,-5809.15 L 28.6448,-5809.58
 L 29.0451,-5810.06 L 29.3815,-5810.59 L 29.6489,-5811.16 L 29.8429,-5811.76 L 29.9606,-5812.37 L 30,-5813
 L 30,-6013 L 29.9606,-6013.63 L 29.8429,-6014.24 L 29.6489,-6014.84 L 29.3815,-6015.41 L 29.0451,-6015.94
 L 28.6448,-6016.42 L 28.1871,-6016.85 L 27.6791,-6017.22 L 27.1289,-6017.52 L 26.5451,-6017.76 L 25.9369,-6017.91
 L 25.3139,-6017.99 L -25.3139,-6017.99 L -25.9369,-6017.91 L -26.5451,-6017.76 L -27.1289,-6017.52 L -27.6791,-6017.22
 L -28.1871,-6016.85 L -28.6448,-6016.42 L -29.0451,-6015.94 L -29.3815,-6015.41 L -29.6489,-6014.84 L -29.8429,-6014.24
 L -29.9606,-6013.63 L -30,-6013 L -30,-5813 L -29.9606,-5812.37 L -29.8429,-5811.76 L -29.6489,-5811.16
 L -29.3815,-5810.59 L -29.0451,-5810.06 L -28.6448,-5809.58 L -28.1871,-5809.15 L -27.6791,-5808.78 L -27.1289,-5808.48
 L -26.5451,-5808.24 L -25.9369,-5808.09 L -25.3139,-5808.01 L 25.3139,-5808.01 z
M -24.7512,-5809.51 L -25.2495,-5809.57 L -25.7361,-5809.7 L -26.2031,-5809.88 L -26.6433,-5810.12 L -27.0497,-5810.42
 L -27.4159,-5810.76 L -27.7361,-5811.15 L -28.0052,-5811.57 L -28.2191,-5812.03 L -28.3743,-5812.51 L -28.4684,-5813
 L -28.5,-5813.5 L -28.5,-6012.5 L -28.4684,-6013 L -28.3743,-6013.49 L -28.2191,-6013.97 L -28.0052,-6014.43
 L -27.7361,-6014.85 L -27.4159,-6015.24 L -27.0497,-6015.58 L -26.6433,-6015.88 L -26.2031,-6016.12 L -25.7361,-6016.3
 L -25.2495,-6016.43 L -24.7512,-6016.49 L 24.7512,-6016.49 L 25.2495,-6016.43 L 25.7361,-6016.3 L 26.2031,-6016.12
 L 26.6433,-6015.88 L 27.0497,-6015.58 L 27.4159,-6015.24 L 27.7361,-6014.85 L 28.0052,-6014.43 L 28.2191,-6013.97
 L 28.3743,-6013.49 L 28.4684,-6013 L 28.5,-6012.5 L 28.5,-5813.5 L 28.4684,-5813 L 28.3743,-5812.51
 L 28.2191,-5812.03 L 28.0052,-5811.57 L 27.7361,-5811.15 L 27.4159,-5810.76 L 27.0497,-5810.42 L 26.6433,-5810.12
 L 26.2031,-5809.88 L 25.7361,-5809.7 L 25.2495,-5809.57 L 24.7512,-5809.51 z
M 25.9369,-5589.09 L 26.5451,-5589.24 L 27.1289,-5589.48 L 27.6791,-5589.78 L 28.1871,-5590.15 L 28.6448,-5590.58
 L 29.0451,-5591.06 L 29.3815,-5591.59 L 29.6489,-5592.16 L 29.8429,-5592.76 L 29.9606,-5593.37 L 30,-5594
 L 30,-5794 L 29.9606,-5794.63 L 29.8429,-5795.24 L 29.6489,-5795.84 L 29.3815,-5796.41 L 29.0451,-5796.94
 L 28.6448,-5797.42 L 28.1871,-5797.85 L 27.6791,-5798.22 L 27.1289,-5798.52 L 26.5451,-5798.76 L 25.9369,-5798.91
 L 25.3139,-5798.99 L -25.3139,-5798.99 L -25.9369,-5798.91 L -26.5451,-5798.76 L -27.1289,-5798.52 L -27.6791,-5798.22
 L -28.1871,-5797.85 L -28.6448,-5797.42 L -29.0451,-5796.94 L -29.3815,-5796.41 L -29.6489,-5795.84 L -29.8429,-5795.24
 L -29.9606,-5794.63 L -30,-5794 L -30,-5594 L -29.9606,-5593.37 L -29.8429,-5592.76 L -29.6489,-5592.16
 L -29.3815,-5591.59 L -29.0451,-5591.06 L -28.6448,-5590.58 L -28.1871,-5590.15 L -27.6791,-5589.78 L -27.1289,-5589.48
 L -26.5451,-5589.24 L -25.9369,-5589.09 L -25.3139,-5589.01 L 25.3139,-5589.01 z
M -24.7512,-5590.51 L -25.2495,-5590.57 L -25.7361,-5590.7 L -26.2031,-5590.88 L -26.6433,-5591.12 L -27.0497,-5591.42
 L -27.4159,-5591.76 L -27.7361,-5592.15 L -28.0052,-5592.57 L -28.2191,-5593.03 L -28.3743,-5593.51 L -28.4684,-5594
 L -28.5,-5594.5 L -28.5,-5793.5 L -28.4684,-5794 L -28.3743,-5794.49 L -28.2191,-5794.97 L -28.0052,-5795.43
 L -27.7361,-5795.85 L -27.4159,-5796.24 L -27.0497,-5796.58 L -26.6433,-5796.88 L -26.2031,-5797.12 L -25.7361,-5797.3
 L -25.2495,-5797.43 L -24.7512,-5797.49 L 24.7512,-5797.49 L 25.2495,-5797.43 L 25.7361,-5797.3 L 26.2031,-5797.12
 L 26.6433,-5796.88 L 27.0497,-5796.58 L 27.4159,-5796.24 L 27.7361,-5795.85 L 28.0052,-5795.43 L 28.2191,-5794.97
 L 28.3743,-5794.49 L 28.4684,-5794 L 28.5,-5793.5 L 28.5,-5594.5 L 28.4684,-5594 L 28.3743,-5593.51
 L 28.2191,-5593.03 L 28.0052,-5592.57 L 27.7361,-5592.15 L 27.4159,-5591.76 L 27.0497,-5591.42 L 26.6433,-5591.12
 L 26.2031,-5590.88 L 25.7361,-5590.7 L 25.2495,-5590.57 L 24.7512,-5590.51 z
M 25.9369,-5370.09 L 26.5451,-5370.24 L 27.1289,-5370.48 L 27.6791,-5370.78 L 28.1871,-5371.15 L 28.6448,-5371.58
 L 29.0451,-5372.06 L 29.3815,-5372.59 L 29.6489,-5373.16 L 29.8429,-5373.76 L 29.9606,-5374.37 L 30,-5375
 L 30,-5575 L 29.9606,-5575.63 L 29.8429,-5576.24 L 29.6489,-5576.84 L 29.3815,-5577.41 L 29.0451,-5577.94
 L 28.6448,-5578.42 L 28.1871,-5578.85 L 27.6791,-5579.22 L 27.1289,-5579.52 L 26.5451,-5579.76 L 25.9369,-5579.91
 L 25.3139,-5579.99 L -25.3139,-5579.99 L -25.9369,-5579.91 L -26.5451,-5579.76 L -27.1289,-5579.52 L -27.6791,-5579.22
 L -28.1871,-5578.85 L -28.6448,-5578.42 L -29.0451,-5577.94 L -29.3815,-5577.41 L -29.6489,-5576.84 L -29.8429,-5576.24
 L -29.9606,-5575.63 L -30,-5575 L -30,-5375 L -29.9606,-5374.37 L -29.8429,-5373.76 L -29.6489,-5373.16
 L -29.3815,-5372.59 L -29.0451,-5372.06 L -28.6448,-5371.58 L -28.1871,-5371.15 L -27.6791,-5370.78 L -27.1289,-5370.48
 L -26.5451,-5370.24 L -25.9369,-5370.09 L -25.3139,-5370.01 L 25.3139,-5370.01 z
M -24.7512,-5371.51 L -25.2495,-5371.57 L -25.7361,-5371.7 L -26.2031,-5371.88 L -26.6433,-5372.12 L -27.0497,-5372.42
 L -27.4159,-5372.76 L -27.7361,-5373.15 L -28.0052,-5373.57 L -28.2191,-5374.03 L -28.3743,-5374.51 L -28.4684,-5375
 L -28.5,-5375.5 L -28.5,-5574.5 L -28.4684,-5575 L -28.3743,-5575.49 L -28.2191,-5575.97 L -28.0052,-5576.43
 L -27.7361,-5576.85 L -27.4159,-5577.24 L -27.0497,-5577.58 L -26.6433,-5577.88 L -26.2031,-5578.12 L -25.7361,-5578.3
 L -25.2495,-5578.43 L -24.7512,-5578.49 L 24.7512,-5578.49 L 25.2495,-5578.43 L 25.7361,-5578.3 L 26.2031,-5578.12
 L 26.6433,-5577.88 L 27.0497,-5577.58 L 27.4159,-5577.24 L 27.7361,-5576.85 L 28.0052,-5576.43 L 28.2191,-5575.97
 L 28.3743,-5575.49 L 28.4684,-5575 L 28.5,-5574.5 L 28.5,-5375.5 L 28.4684,-5375 L 28.3743,-5374.51
 L 28.2191,-5374.03 L 28.0052,-5373.57 L 27.7361,-5373.15 L 27.4159,-5372.76 L 27.0497,-5372.42 L 26.6433,-5372.12
 L 26.2031,-5371.88 L 25.7361,-5371.7 L 25.2495,-5371.57 L 24.7512,-5371.51 z
M 25.9369,-5151.09 L 26.5451,-5151.24 L 27.1289,-5151.48 L 27.6791,-5151.78 L 28.1871,-5152.15 L 28.6448,-5152.58
 L 29.0451,-5153.06 L 29.3815,-5153.59 L 29.6489,-5154.16 L 29.8429,-5154.76 L 29.9606,-5155.37 L 30,-5156
 L 30,-5356 L 29.9606,-5356.63 L 29.8429,-5357.24 L 29.6489,-5357.84 L 29.3815,-5358.41 L 29.0451,-5358.94
 L 28.6448,-5359.42 L 28.1871,-5359.85 L 27.6791,-5360.22 L 27.1289,-5360.52 L 26.5451,-5360.76 L 25.9369,-5360.91
 L 25.3139,-5360.99 L -25.3139,-5360.99 L -25.9369,-5360.91 L -26.5451,-5360.76 L -27.1289,-5360.52 L -27.6791,-5360.22
 L -28.1871,-5359.85 L -28.6448,-5359.42 L -29.0451,-5358.94 L -29.3815,-5358.41 L -29.6489,-5357.84 L -29.8429,-5357.24
 L -29.9606,-5356.63 L -30,-5356 L -30,-5156 L -29.9606,-5155.37 L -29.8429,-5154.76 L -29.6489,-5154.16
 L -29.3815,-5153.59 L -29.0451,-5153.06 L -28.6448,-5152.58 L -28.1871,-5152.15 L -27.6791,-5151.78 L -27.1289,-5151.48
 L -26.5451,-5151.24 L -25.9369,-5151.09 L -25.3139,-5151.01 L 25.3139,-5151.01 z
M -24.7512,-5152.51 L -25.2495,-5152.57 L -25.7361,-5152.7 L -26.2031,-5152.88 L -26.6433,-5153.12 L -27.0497,-5153.42
 L -27.4159,-5153.76 L -27.7361,-5154.15 L -28.0052,-5154.57 L -28.2191,-5155.03 L -28.3743,-5155.51 L -28.4684,-5156
 L -28.5,-5156.5 L -28.5,-5355.5 L -28.4684,-5356 L -28.3743,-5356.49 L -28.2191,-5356.97 L -28.0052,-5357.43
 L -27.7361,-5357.85 L -27.4159,-5358.24 L -27.0497,-5358.58 L -26.6433,-5358.88 L -26.2031,-5359.12 L -25.7361,-5359.3
 L -25.2495,-5359.43 L -24.7512,-5359.49 L 24.7512,-5359.49 L 25.2495,-5359.43 L 25.7361,-5359.3 L 26.2031,-5359.12
 L 26.6433,-5358.88 L 27.0497,-5358.58 L 27.4159,-5358.24 L 27.7361,-5357.85 L 28.0052,-5357.43 L 28.2191,-5356.97
 L 28.3743,-5356.49 L 28.4684,-5356 L 28.5,-5355.5 L 28.5,-5156.5 L 28.4684,-5156 L 28.3743,-5155.51
 L 28.2191,-5155.03 L 28.0052,-5154.57 L 27.7361,-5154.15 L 27.4159,-5153.76 L 27.0497,-5153.42 L 26.6433,-5153.12
 L 26.2031,-5152.88 L 25.7361,-5152.7 L 25.2495,-5152.57 L 24.7512,-5152.51 z
M 25.9369,-4932.09 L 26.5451,-4932.24 L 27.1289,-4932.48 L 27.6791,-4932.78 L 28.1871,-4933.15 L 28.6448,-4933.58
 L 29.0451,-4934.06 L 29.3815,-4934.59 L 29.6489,-4935.16 L 29.8429,-4935.76 L 29.9606,-4936.37 L 30,-4937
 L 30,-5137 L 29.9606,-5137.63 L 29.8429,-5138.24 L 29.6489,-5138.84 L 29.3815,-5139.41 L 29.0451,-5139.94
 L 28.6448,-5140.42 L 28.1871,-5140.85 L 27.6791,-5141.22 L 27.1289,-5141.52 L 26.5451,-5141.76 L 25.9369,-5141.91
 L 25.3139,-5141.99 L -25.3139,-5141.99 L -25.9369,-5141.91 L -26.5451,-5141.76 L -27.1289,-5141.52 L -27.6791,-5141.22
 L -28.1871,-5140.85 L -28.6448,-5140.42 L -29.0451,-5139.94 L -29.3815,-5139.41 L -29.6489,-5138.84 L -29.8429,-5138.24
 L -29.9606,-5137.63 L -30,-5137 L -30,-4937 L -29.9606,-4936.37 L -29.8429,-4935.76 L -29.6489,-4935.16
 L -29.3815,-4934.59 L -29.0451,-4934.06 L -28.6448,-4933.58 L -28.1871,-4933.15 L -27.6791,-4932.78 L -27.1289,-4932.48
 L -26.5451,-4932.24 L -25.9369,-4932.09 L -25.3139,-4932.01 L 25.3139,-4932.01 z
M -24.7512,-4933.51 L -25.2495,-4933.57 L -25.7361,-4933.7 L -26.2031,-4933.88 L -26.6433,-4934.12 L -27.0497,-4934.42
 L -27.4159,-4934.76 L -27.7361,-4935.15 L -28.0052,-4935.57 L -28.2191,-4936.03 L -28.3743,-4936.51 L -28.4684,-4937
 L -28.5,-4937.5 L -28.5,-5136.5 L -28.4684,-5137 L -28.3743,-5137.49 L -28.2191,-5137.97 L -28.0052,-5138.43
 L -27.7361,-5138.85 L -27.4159,-5139.24 L -27.0497,-5139.58 L -26.6433,-5139.88 L -26.2031,-5140.12 L -25.7361,-5140.3
 L -25.2495,-5140.43 L -24.7512,-5140.49 L 24.7512,-5140.49 L 25.2495,-5140.43 L 25.7361,-5140.3 L 26.2031,-5140.12
 L 26.6433,-5139.88 L 27.0497,-5139.58 L 27.4159,-5139.24 L 27.7361,-5138.85 L 28.0052,-5138.43 L 28.2191,-5137.97
 L 28.3743,-5137.49 L 28.4684,-5137 L 28.5,-5136.5 L 28.5,-4937.5 L 28.4684,-4937 L 28.3743,-4936.51
 L 28.2191,-4936.03 L 28.0052,-4935.57 L 27.7361,-4935.15 L 27.4159,-4934.76 L 27.0497,-4934.42 L 26.6433,-4934.12
 L 26.2031,-4933.88 L 25.7361,-4933.7 L 25.2495,-4933.57 L 24.7512,-4933.51 z
M 25.9369,-4713.09 L 26.5451,-4713.24 L 27.1289,-4713.48 L 27.6791,-4713.78 L 28.1871,-4714.15 L 28.6448,-4714.58
 L 29.0451,-4715.06 L 29.3815,-4715.59 L 29.6489,-4716.16 L 29.8429,-4716.76 L 29.9606,-4717.37 L 30,-4718
 L 30,-4918 L 29.9606,-4918.63 L 29.8429,-4919.24 L 29.6489,-4919.84 L 29.3815,-4920.41 L 29.0451,-4920.94
 L 28.6448,-4921.42 L 28.1871,-4921.85 L 27.6791,-4922.22 L 27.1289,-4922.52 L 26.5451,-4922.76 L 25.9369,-4922.91
 L 25.3139,-4922.99 L -25.3139,-4922.99 L -25.9369,-4922.91 L -26.5451,-4922.76 L -27.1289,-4922.52 L -27.6791,-4922.22
 L -28.1871,-4921.85 L -28.6448,-4921.42 L -29.0451,-4920.94 L -29.3815,-4920.41 L -29.6489,-4919.84 L -29.8429,-4919.24
 L -29.9606,-4918.63 L -30,-4918 L -30,-4718 L -29.9606,-4717.37 L -29.8429,-4716.76 L -29.6489,-4716.16
 L -29.3815,-4715.59 L -29.0451,-4715.06 L -28.6448,-4714.58 L -28.1871,-4714.15 L -27.6791,-4713.78 L -27.1289,-4713.48
 L -26.5451,-4713.24 L -25.9369,-4713.09 L -25.3139,-4713.01 L 25.3139,-4713.01 z
M -24.7512,-4714.51 L -25.2495,-4714.57 L -25.7361,-4714.7 L -26.2031,-4714.88 L -26.6433,-4715.12 L -27.0497,-4715.42
 L -27.4159,-4715.76 L -27.7361,-4716.15 L -28.0052,-4716.57 L -28.2191,-4717.03 L -28.3743,-4717.51 L -28.4684,-4718
 L -28.5,-4718.5 L -28.5,-4917.5 L -28.4684,-4918 L -28.3743,-4918.49 L -28.2191,-4918.97 L -28.0052,-4919.43
 L -27.7361,-4919.85 L -27.4159,-4920.24 L -27.0497,-4920.58 L -26.6433,-4920.88 L -26.2031,-4921.12 L -25.7361,-4921.3
 L -25.2495,-4921.43 L -24.7512,-4921.49 L 24.7512,-4921.49 L 25.2495,-4921.43 L 25.7361,-4921.3 L 26.2031,-4921.12
 L 26.6433,-4920.88 L 27.0497,-4920.58 L 27.4159,-4920.24 L 27.7361,-4919.85 L 28.0052,-4919.43 L 28.2191,-4918.97
 L 28.3743,-4918.49 L 28.4684,-4918 L 28.5,-4917.5 L 28.5,-4718.5 L 28.4684,-4718 L 28.3743,-4717.51
 L 28.2191,-4717.03 L 28.0052,-4716.57 L 27.7361,-4716.15 L 27.4159,-4715.76 L 27.0497,-4715.42 L 26.6433,-4715.12
 L 26.2031,-4714.88 L 25.7361,-4714.7 L 25.2495,-4714.57 L 24.7512,-4714.51 z
M 25.9369,-4494.09 L 26.5451,-4494.24 L 27.1289,-4494.48 L 27.6791,-4494.78 L 28.1871,-4495.15 L 28.6448,-4495.58
 L 29.0451,-4496.06 L 29.3815,-4496.59 L 29.6489,-4497.16 L 29.8429,-4497.76 L 29.9606,-4498.37 L 30,-4499
 L 30,-4699 L 29.9606,-4699.63 L 29.8429,-4700.24 L 29.6489,-4700.84 L 29.3815,-4701.41 L 29.0451,-4701.94
 L 28.6448,-4702.42 L 28.1871,-4702.85 L 27.6791,-4703.22 L 27.1289,-4703.52 L 26.5451,-4703.76 L 25.9369,-4703.91
 L 25.3139,-4703.99 L -25.3139,-4703.99 L -25.9369,-4703.91 L -26.5451,-4703.76 L -27.1289,-4703.52 L -27.6791,-4703.22
 L -28.1871,-4702.85 L -28.6448,-4702.42 L -29.0451,-4701.94 L -29.3815,-4701.41 L -29.6489,-4700.84 L -29.8429,-4700.24
 L -29.9606,-4699.63 L -30,-4699 L -30,-4499 L -29.9606,-4498.37 L -29.8429,-4497.76 L -29.6489,-4497.16
 L -29.3815,-4496.59 L -29.0451,-4496.06 L -28.6448,-4495.58 L -28.1871,-4495.15 L -27.6791,-4494.78 L -27.1289,-4494.48
 L -26.5451,-4494.24 L -25.9369,-4494.09 L -25.3139,-4494.01 L 25.3139,-4494.01 z
M -24.7512,-4495.51 L -25.2495,-4495.57 L -25.7361,-4495.7 L -26.2031,-4495.88 L -26.6433,-4496.12 L -27.0497,-4496.42
 L -27.4159,-4496.76 L -27.7361,-4497.15 L -28.0052,-4497.57 L -28.2191,-4498.03 L -28.3743,-4498.51 L -28.4684,-4499
 L -28.5,-4499.5 L -28.5,-4698.5 L -28.4684,-4699 L -28.3743,-4699.49 L -28.2191,-4699.97 L -28.0052,-4700.43
 L -27.7361,-4700.85 L -27.4159,-4701.24 L -27.0497,-4701.58 L -26.6433,-4701.88 L -26.2031,-4702.12 L -25.7361,-4702.3
 L -25.2495,-4702.43 L -24.7512,-4702.49 L 24.7512,-4702.49 L 25.2495,-4702.43 L 25.7361,-4702.3 L 26.2031,-4702.12
 L 26.6433,-4701.88 L 27.0497,-4701.58 L 27.4159,-4701.24 L 27.7361,-4700.85 L 28.0052,-4700.43 L 28.2191,-4699.97
 L 28.3743,-4699.49 L 28.4684,-4699 L 28.5,-4698.5 L 28.5,-4499.5 L 28.4684,-4499 L 28.3743,-4498.51
 L 28.2191,-4498.03 L 28.0052,-4497.57 L 27.7361,-4497.15 L 27.4159,-4496.76 L 27.0497,-4496.42 L 26.6433,-4496.12
 L 26.2031,-4495.88 L 25.7361,-4495.7 L 25.2495,-4495.57 L 24.7512,-4495.51 z
M 25.9369,-4275.09 L 26.5451,-4275.24 L 27.1289,-4275.48 L 27.6791,-4275.78 L 28.1871,-4276.15 L 28.6448,-4276.58
 L 29.0451,-4277.06 L 29.3815,-4277.59 L 29.6489,-4278.16 L 29.8429,-4278.76 L 29.9606,-4279.37 L 30,-4280
 L 30,-4480 L 29.9606,-4480.63 L 29.8429,-4481.24 L 29.6489,-4481.84 L 29.3815,-4482.41 L 29.0451,-4482.94
 L 28.6448,-4483.42 L 28.1871,-4483.85 L 27.6791,-4484.22 L 27.1289,-4484.52 L 26.5451,-4484.76 L 25.9369,-4484.91
 L 25.3139,-4484.99 L -25.3139,-4484.99 L -25.9369,-4484.91 L -26.5451,-4484.76 L -27.1289,-4484.52 L -27.6791,-4484.22
 L -28.1871,-4483.85 L -28.6448,-4483.42 L -29.0451,-4482.94 L -29.3815,-4482.41 L -29.6489,-4481.84 L -29.8429,-4481.24
 L -29.9606,-4480.63 L -30,-4480 L -30,-4280 L -29.9606,-4279.37 L -29.8429,-4278.76 L -29.6489,-4278.16
 L -29.3815,-4277.59 L -29.0451,-4277.06 L -28.6448,-4276.58 L -28.1871,-4276.15 L -27.6791,-4275.78 L -27.1289,-4275.48
 L -26.5451,-4275.24 L -25.9369,-4275.09 L -25.3139,-4275.01 L 25.3139,-4275.01 z
M -24.7512,-4276.51 L -25.2495,-4276.57 L -25.7361,-4276.7 L -26.2031,-4276.88 L -26.6433,-4277.12 L -27.0497,-4277.42
 L -27.4159,-4277.76 L -27.7361,-4278.15 L -28.0052,-4278.57 L -28.2191,-4279.03 L -28.3743,-4279.51 L -28.4684,-4280
 L -28.5,-4280.5 L -28.5,-4479.5 L -28.4684,-4480 L -28.3743,-4480.49 L -28.2191,-4480.97 L -28.0052,-4481.43
 L -27.7361,-4481.85 L -27.4159,-4482.24 L -27.0497,-4482.58 L -26.6433,-4482.88 L -26.2031,-4483.12 L -25.7361,-4483.3
 L -25.2495,-4483.43 L -24.7512,-4483.49 L 24.7512,-4483.49 L 25.2495,-4483.43 L 25.7361,-4483.3 L 26.2031,-4483.12
 L 26.6433,-4482.88 L 27.0497,-4482.58 L 27.4159,-4482.24 L 27.7361,-4481.85 L 28.0052,-4481.43 L 28.2191,-4480.97
 L 28.3743,-4480.49 L 28.4684,-4480 L 28.5,-4479.5 L 28.5,-4280.5 L 28.4684,-4280 L 28.3743,-4279.51
 L 28.2191,-4279.03 L 28.0052,-4278.57 L 27.7361,-4278.15 L 27.4159,-4277.76 L 27.0497,-4277.42 L 26.6433,-4277.12
 L 26.2031,-4276.88 L 25.7361,-4276.7 L 25.2495,-4276.57 L 24.7512,-4276.51 z
M 25.9369,-4056.09 L 26.5451,-4056.24 L 27.1289,-4056.48 L 27.6791,-4056.78 L 28.1871,-4057.15 L 28.6448,-4057.58
 L 29.0451,-4058.06 L 29.3815,-4058.59 L 29.6489,-4059.16 L 29.8429,-4059.76 L 29.9606,-4060.37 L 30,-4061
 L 30,-4261 L 29.9606,-4261.63 L 29.8429,-4262.24 L 29.6489,-4262.84 L 29.3815,-4263.41 L 29.0451,-4263.94
 L 28.6448,-4264.42 L 28.1871,-4264.85 L 27.6791,-4265.22 L 27.1289,-4265.52 L 26.5451,-4265.76 L 25.9369,-4265.91
 L 25.3139,-4265.99 L -25.3139,-4265.99 L -25.9369,-4265.91 L -26.5451,-4265.76 L -27.1289,-4265.52 L -27.6791,-4265.22
 L -28.1871,-4264.85 L -28.6448,-4264.42 L -29.0451,-4263.94 L -29.3815,-4263.41 L -29.6489,-4262.84 L -29.8429,-4262.24
 L -29.9606,-4261.63 L -30,-4261 L -30,-4061 L -29.9606,-4060.37 L -29.8429,-4059.76 L -29.6489,-4059.16
 L -29.3815,-4058.59 L -29.0451,-4058.06 L -28.6448,-4057.58 L -28.1871,-4057.15 L -27.6791,-4056.78 L -27.1289,-4056.48
 L -26.5451,-4056.24 L -25.9369,-4056.09 L -25.3139,-4056.01 L 25.3139,-4056.01 z
M -24.7512,-4057.51 L -25.2495,-4057.57 L -25.7361,-4057.7 L -26.2031,-4057.88 L -26.6433,-4058.12 L -27.0497,-4058.42
 L -27.4159,-4058.76 L -27.7361,-4059.15 L -28.0052,-4059.57 L -28.2191,-4060.03 L -28.3743,-4060.51 L -28.4684,-4061
 L -28.5,-4061.5 L -28.5,-4260.5 L -28.4684,-4261 L -28.3743,-4261.49 L -28.2191,-4261.97 L -28.0052,-4262.43
 L -27.7361,-4262.85 L -27.4159,-4263.24 L -27.0497,-4263.58 L -26.6433,-4263.88 L -26.2031,-4264.12 L -25.7361,-4264.3
 L -25.2495,-4264.43 L -24.7512,-4264.49 L 24.7512,-4264.49 L 25.2495,-4264.43 L 25.7361,-4264.3 L 26.2031,-4264.12
 L 26.6433,-4263.88 L 27.0497,-4263.58 L 27.4159,-4263.24 L 27.7361,-4262.85 L 28.0052,-4262.43 L 28.2191,-4261.97
 L 28.3743,-4261.49 L 28.4684,-4261 L 28.5,-4260.5 L 28.5,-4061.5 L 28.4684,-4061 L 28.3743,-4060.51
 L 28.2191,-4060.03 L 28.0052,-4059.57 L 27.7361,-4059.15 L 27.4159,-4058.76 L 27.0497,-4058.42 L 26.6433,-4058.12
 L 26.2031,-4057.88 L 25.7361,-4057.7 L 25.2495,-4057.57 L 24.7512,-4057.51 z
M 25.9369,-3837.09 L 26.5451,-3837.24 L 27.1289,-3837.48 L 27.6791,-3837.78 L 28.1871,-3838.15 L 28.6448,-3838.58
 L 29.0451,-3839.06 L 29.3815,-3839.59 L 29.6489,-3840.16 L 29.8429,-3840.76 L 29.9606,-3841.37 L 30,-3842
 L 30,-4042 L 29.9606,-4042.63 L 29.8429,-4043.24 L 29.6489,-4043.84 L 29.3815,-4044.41 L 29.0451,-4044.94
 L 28.6448,-4045.42 L 28.1871,-4045.85 L 27.6791,-4046.22 L 27.1289,-4046.52 L 26.5451,-4046.76 L 25.9369,-4046.91
 L 25.3139,-4046.99 L -25.3139,-4046.99 L -25.9369,-4046.91 L -26.5451,-4046.76 L -27.1289,-4046.52 L -27.6791,-4046.22
 L -28.1871,-4045.85 L -28.6448,-4045.42 L -29.0451,-4044.94 L -29.3815,-4044.41 L -29.6489,-4043.84 L -29.8429,-4043.24
 L -29.9606,-4042.63 L -30,-4042 L -30,-3842 L -29.9606,-3841.37 L -29.8429,-3840.76 L -29.6489,-3840.16
 L -29.3815,-3839.59 L -29.0451,-3839.06 L -28.6448,-3838.58 L -28.1871,-3838.15 L -27.6791,-3837.78 L -27.1289,-3837.48
 L -26.5451,-3837.24 L -25.9369,-3837.09 L -25.3139,-3837.01 L 25.3139,-3837.01 z
M -24.7512,-3838.51 L -25.2495,-3838.57 L -25.7361,-3838.7 L -26.2031,-3838.88 L -26.6433,-3839.12 L -27.0497,-3839.42
 L -27.4159,-3839.76 L -27.7361,-3840.15 L -28.0052,-3840.57 L -28.2191,-3841.03 L -28.3743,-3841.51 L -28.4684,-3842
 L -28.5,-3842.5 L -28.5,-4041.5 L -28.4684,-4042 L -28.3743,-4042.49 L -28.2191,-4042.97 L -28.0052,-4043.43
 L -27.7361,-4043.85 L -27.4159,-4044.24 L -27.0497,-4044.58 L -26.6433,-4044.88 L -26.2031,-4045.12 L -25.7361,-4045.3
 L -25.2495,-4045.43 L -24.7512,-4045.49 L 24.7512,-4045.49 L 25.2495,-4045.43 L 25.7361,-4045.3 L 26.2031,-4045.12
 L 26.6433,-4044.88 L 27.0497,-4044.58 L 27.4159,-4044.24 L 27.7361,-4043.85 L 28.0052,-4043.43 L 28.2191,-4042.97
 L 28.3743,-4042.49 L 28.4684,-4042 L 28.5,-4041.5 L 28.5,-3842.5 L 28.4684,-3842 L 28.3743,-3841.51
 L 28.2191,-3841.03 L 28.0052,-3840.57 L 27.7361,-3840.15 L 27.4159,-3839.76 L 27.0497,-3839.42 L 26.6433,-3839.12
 L 26.2031,-3838.88 L 25.7361,-3838.7 L 25.2495,-3838.57 L 24.7512,-3838.51 z
M 25.9369,-3618.09 L 26.5451,-3618.24 L 27.1289,-3618.48 L 27.6791,-3618.78 L 28.1871,-3619.15 L 28.6448,-3619.58
 L 29.0451,-3620.06 L 29.3815,-3620.59 L 29.6489,-3621.16 L 29.8429,-3621.76 L 29.9606,-3622.37 L 30,-3623
 L 30,-3823 L 29.9606,-3823.63 L 29.8429,-3824.24 L 29.6489,-3824.84 L 29.3815,-3825.41 L 29.0451,-3825.94
 L 28.6448,-3826.42 L 28.1871,-3826.85 L 27.6791,-3827.22 L 27.1289,-3827.52 L 26.5451,-3827.76 L 25.9369,-3827.91
 L 25.3139,-3827.99 L -25.3139,-3827.99 L -25.9369,-3827.91 L -26.5451,-3827.76 L -27.1289,-3827.52 L -27.6791,-3827.22
 L -28.1871,-3826.85 L -28.6448,-3826.42 L -29.0451,-3825.94 L -29.3815,-3825.41 L -29.6489,-3824.84 L -29.8429,-3824.24
 L -29.9606,-3823.63 L -30,-3823 L -30,-3623 L -29.9606,-3622.37 L -29.8429,-3621.76 L -29.6489,-3621.16
 L -29.3815,-3620.59 L -29.0451,-3620.06 L -28.6448,-3619.58 L -28.1871,-3619.15 L -27.6791,-3618.78 L -27.1289,-3618.48
 L -26.5451,-3618.24 L -25.9369,-3618.09 L -25.3139,-3618.01 L 25.3139,-3618.01 z
M -24.7512,-3619.51 L -25.2495,-3619.57 L -25.7361,-3619.7 L -26.2031,-3619.88 L -26.6433,-3620.12 L -27.0497,-3620.42
 L -27.4159,-3620.76 L -27.7361,-3621.15 L -28.0052,-3621.57 L -28.2191,-3622.03 L -28.3743,-3622.51 L -28.4684,-3623
 L -28.5,-3623.5 L -28.5,-3822.5 L -28.4684,-3823 L -28.3743,-3823.49 L -28.2191,-3823.97 L -28.0052,-3824.43
 L -27.7361,-3824.85 L -27.4159,-3825.24 L -27.0497,-3825.58 L -26.6433,-3825.88 L -26.2031,-3826.12 L -25.7361,-3826.3
 L -25.2495,-3826.43 L -24.7512,-3826.49 L 24.7512,-3826.49 L 25.2495,-3826.43 L 25.7361,-3826.3 L 26.2031,-3826.12
 L 26.6433,-3825.88 L 27.0497,-3825.58 L 27.4159,-3825.24 L 27.7361,-3824.85 L 28.0052,-3824.43 L 28.2191,-3823.97
 L 28.3743,-3823.49 L 28.4684,-3823 L 28.5,-3822.5 L 28.5,-3623.5 L 28.4684,-3623 L 28.3743,-3622.51
 L 28.2191,-3622.03 L 28.0052,-3621.57 L 27.7361,-3621.15 L 27.4159,-3620.76 L 27.0497,-3620.42 L 26.6433,-3620.12
 L 26.2031,-3619.88 L 25.7361,-3619.7 L 25.2495,-3619.57 L 24.7512,-3619.51 z
M 25.9369,-3399.09 L 26.5451,-3399.24 L 27.1289,-3399.48 L 27.6791,-3399.78 L 28.1871,-3400.15 L 28.6448,-3400.58
 L 29.0451,-3401.06 L 29.3815,-3401.59 L 29.6489,-3402.16 L 29.8429,-3402.76 L 29.9606,-3403.37 L 30,-3404
 L 30,-3604 L 29.9606,-3604.63 L 29.8429,-3605.24 L 29.6489,-3605.84 L 29.3815,-3606.41 L 29.0451,-3606.94
 L 28.6448,-3607.42 L 28.1871,-3607.85 L 27.6791,-3608.22 L 27.1289,-3608.52 L 26.5451,-3608.76 L 25.9369,-3608.91
 L 25.3139,-3608.99 L -25.3139,-3608.99 L -25.9369,-3608.91 L -26.5451,-3608.76 L -27.1289,-3608.52 L -27.6791,-3608.22
 L -28.1871,-3607.85 L -28.6448,-3607.42 L -29.0451,-3606.94 L -29.3815,-3606.41 L -29.6489,-3605.84 L -29.8429,-3605.24
 L -29.9606,-3604.63 L -30,-3604 L -30,-3404 L -29.9606,-3403.37 L -29.8429,-3402.76 L -29.6489,-3402.16
 L -29.3815,-3401.59 L -29.0451,-3401.06 L -28.6448,-3400.58 L -28.1871,-3400.15 L -27.6791,-3399.78 L -27.1289,-3399.48
 L -26.5451,-3399.24 L -25.9369,-3399.09 L -25.3139,-3399.01 L 25.3139,-3399.01 z
M -24.6954,-3401.39 L -25.0833,-3401.44 L -25.4619,-3401.54 L -25.8254,-3401.68 L -26.168,-3401.87 L -26.4842,-3402.1
 L -26.7692,-3402.37 L -27.0184,-3402.67 L -27.2279,-3403 L -27.3943,-3403.35 L -27.5151,-3403.73 L -27.5884,-3404.11
 L -27.6129,-3404.5 L -27.6129,-3603.5 L -27.5884,-3603.89 L -27.5151,-3604.27 L -27.3943,-3604.65 L -27.2279,-3605
 L -27.0184,-3605.33 L -26.7692,-3605.63 L -26.4842,-3605.9 L -26.168,-3606.13 L -25.8254,-3606.32 L -25.4619,-3606.46
 L -25.0833,-3606.56 L -24.6954,-3606.61 L 24.6954,-3606.61 L 25.0833,-3606.56 L 25.4619,-3606.46 L 25.8254,-3606.32
 L 26.168,-3606.13 L 26.4842,-3605.9 L 26.7692,-3605.63 L 27.0184,-3605.33 L 27.2279,-3605 L 27.3943,-3604.65
 L 27.5151,-3604.27 L 27.5884,-3603.89 L 27.6129,-3603.5 L 27.6129,-3404.5 L 27.5884,-3404.11 L 27.5151,-3403.73
 L 27.3943,-3403.35 L 27.2279,-3403 L 27.0184,-3402.67 L 26.7692,-3402.37 L 26.4842,-3402.1 L 26.168,-3401.87
 L 25.8254,-3401.68 L 25.4619,-3401.54 L 25.0833,-3401.44 L 24.6954,-3401.39 z
M 25.9369,-3180.09 L 26.5451,-3180.24 L 27.1289,-3180.48 L 27.6791,-3180.78 L 28.1871,-3181.15 L 28.6448,-3181.58
 L 29.0451,-3182.06 L 29.3815,-3182.59 L 29.6489,-3183.16 L 29.8429,-3183.76 L 29.9606,-3184.37 L 30,-3185
 L 30,-3385 L 29.9606,-3385.63 L 29.8429,-3386.24 L 29.6489,-3386.84 L 29.3815,-3387.41 L 29.0451,-3387.94
 L 28.6448,-3388.42 L 28.1871,-3388.85 L 27.6791,-3389.22 L 27.1289,-3389.52 L 26.5451,-3389.76 L 25.9369,-3389.91
 L 25.3139,-3389.99 L -25.3139,-3389.99 L -25.9369,-3389.91 L -26.5451,-3389.76 L -27.1289,-3389.52 L -27.6791,-3389.22
 L -28.1871,-3388.85 L -28.6448,-3388.42 L -29.0451,-3387.94 L -29.3815,-3387.41 L -29.6489,-3386.84 L -29.8429,-3386.24
 L -29.9606,-3385.63 L -30,-3385 L -30,-3185 L -29.9606,-3184.37 L -29.8429,-3183.76 L -29.6489,-3183.16
 L -29.3815,-3182.59 L -29.0451,-3182.06 L -28.6448,-3181.58 L -28.1871,-3181.15 L -27.6791,-3180.78 L -27.1289,-3180.48
 L -26.5451,-3180.24 L -25.9369,-3180.09 L -25.3139,-3180.01 L 25.3139,-3180.01 z
M -22.6341,-3380.37 L -22.9001,-3380.4 L -23.1598,-3380.47 L -23.4091,-3380.57 L -23.6441,-3380.7 L -23.8611,-3380.85
 L -24.0565,-3381.04 L -24.2275,-3381.24 L -24.3712,-3381.47 L -24.4853,-3381.71 L -24.5682,-3381.97 L -24.6185,-3382.23
 L -24.6353,-3382.5 L -24.6185,-3382.77 L -24.5682,-3383.03 L -24.4853,-3383.29 L -24.3712,-3383.53 L -24.2275,-3383.76
 L -24.0565,-3383.96 L -23.8611,-3384.15 L -23.6441,-3384.3 L -23.4091,-3384.43 L -23.1598,-3384.53 L -22.9001,-3384.6
 L -22.6341,-3384.63 L -22.3659,-3384.63 L -22.0999,-3384.6 L -21.8401,-3384.53 L -21.5908,-3384.43 L -21.3559,-3384.3
 L -21.1389,-3384.15 L -20.9434,-3383.96 L -20.7725,-3383.76 L -20.6288,-3383.53 L -20.5146,-3383.29 L -20.4318,-3383.03
 L -20.3815,-3382.77 L -20.3647,-3382.5 L -20.3815,-3382.23 L -20.4318,-3381.97 L -20.5146,-3381.71 L -20.6288,-3381.47
 L -20.7725,-3381.24 L -20.9434,-3381.04 L -21.1389,-3380.85 L -21.3559,-3380.7 L -21.5908,-3380.57 L -21.8401,-3380.47
 L -22.0999,-3380.4 L -22.3659,-3380.37 z
M 22.3659,-3380.37 L 22.0999,-3380.4 L 21.8401,-3380.47 L 21.5908,-3380.57 L 21.3559,-3380.7 L 21.1389,-3380.85
 L 20.9434,-3381.04 L 20.7725,-3381.24 L 20.6288,-3381.47 L 20.5146,-3381.71 L 20.4318,-3381.97 L 20.3815,-3382.23
 L 20.3647,-3382.5 L 20.3815,-3382.77 L 20.4318,-3383.03 L 20.5146,-3383.29 L 20.6288,-3383.53 L 20.7725,-3383.76
 L 20.9434,-3383.96 L 21.1389,-3384.15 L 21.3559,-3384.3 L 21.5908,-3384.43 L 21.8401,-3384.53 L 22.0999,-3384.6
 L 22.3659,-3384.63 L 22.6341,-3384.63 L 22.9001,-3384.6 L 23.1598,-3384.53 L 23.4091,-3384.43 L 23.6441,-3384.3
 L 23.8611,-3384.15 L 24.0565,-3383.96 L 24.2275,-3383.76 L 24.3712,-3383.53 L 24.4853,-3383.29 L 24.5682,-3383.03
 L 24.6185,-3382.77 L 24.6353,-3382.5 L 24.6185,-3382.23 L 24.5682,-3381.97 L 24.4853,-3381.71 L 24.3712,-3381.47
 L 24.2275,-3381.24 L 24.0565,-3381.04 L 23.8611,-3380.85 L 23.6441,-3380.7 L 23.4091,-3380.57 L 23.1598,-3380.47
 L 22.9001,-3380.4 L 22.6341,-3380.37 z
M -22.6341,-3185.37 L -22.9001,-3185.4 L -23.1598,-3185.47 L -23.4091,-3185.57 L -23.6441,-3185.7 L -23.8611,-3185.85
 L -24.0565,-3186.04 L -24.2275,-3186.24 L -24.3712,-3186.47 L -24.4853,-3186.71 L -24.5682,-3186.97 L -24.6185,-3187.23
 L -24.6353,-3187.5 L -24.6185,-3187.77 L -24.5682,-3188.03 L -24.4853,-3188.29 L -24.3712,-3188.53 L -24.2275,-3188.76
 L -24.0565,-3188.96 L -23.8611,-3189.15 L -23.6441,-3189.3 L -23.4091,-3189.43 L -23.1598,-3189.53 L -22.9001,-3189.6
 L -22.6341,-3189.63 L -22.3659,-3189.63 L -22.0999,-3189.6 L -21.8401,-3189.53 L -21.5908,-3189.43 L -21.3559,-3189.3
 L -21.1389,-3189.15 L -20.9434,-3188.96 L -20.7725,-3188.76 L -20.6288,-3188.53 L -20.5146,-3188.29 L -20.4318,-3188.03
 L -20.3815,-3187.77 L -20.3647,-3187.5 L -20.3815,-3187.23 L -20.4318,-3186.97 L -20.5146,-3186.71 L -20.6288,-3186.47
 L -20.7725,-3186.24 L -20.9434,-3186.04 L -21.1389,-3185.85 L -21.3559,-3185.7 L -21.5908,-3185.57 L -21.8401,-3185.47
 L -22.0999,-3185.4 L -22.3659,-3185.37 z
M 22.3659,-3185.37 L 22.0999,-3185.4 L 21.8401,-3185.47 L 21.5908,-3185.57 L 21.3559,-3185.7 L 21.1389,-3185.85
 L 20.9434,-3186.04 L 20.7725,-3186.24 L 20.6288,-3186.47 L 20.5146,-3186.71 L 20.4318,-3186.97 L 20.3815,-3187.23
 L 20.3647,-3187.5 L 20.3815,-3187.77 L 20.4318,-3188.03 L 20.5146,-3188.29 L 20.6288,-3188.53 L 20.7725,-3188.76
 L 20.9434,-3188.96 L 21.1389,-3189.15 L 21.3559,-3189.3 L 21.5908,-3189.43 L 21.8401,-3189.53 L 22.0999,-3189.6
 L 22.3659,-3189.63 L 22.6341,-3189.63 L 22.9001,-3189.6 L 23.1598,-3189.53 L 23.4091,-3189.43 L 23.6441,-3189.3
 L 23.8611,-3189.15 L 24.0565,-3188.96 L 24.2275,-3188.76 L 24.3712,-3188.53 L 24.4853,-3188.29 L 24.5682,-3188.03
 L 24.6185,-3187.77 L 24.6353,-3187.5 L 24.6185,-3187.23 L 24.5682,-3186.97 L 24.4853,-3186.71 L 24.3712,-3186.47
 L 24.2275,-3186.24 L 24.0565,-3186.04 L 23.8611,-3185.85 L 23.6441,-3185.7 L 23.4091,-3185.57 L 23.1598,-3185.47
 L 22.9001,-3185.4 L 22.6341,-3185.37 z
" stroke="black" fill="lightgray" stroke-width="0.5"/>
</svg>
