<?xml version="1.0" standalone="no"?>
<!DOCTYPE svg PUBLIC "-//W3C//DTD SVG 1.1//EN" "http://www.w3.org/Graphics/SVG/1.1/DTD/svg11.dtd">
<svg width="196mm" height="562mm" viewBox="-98 -965 196 562" xmlns="http://www.w3.org/2000/svg" version="1.1">
<title>OpenSCAD Model</title>
<path d="
M 93.4369,-859.589 L 94.0451,-859.745 L 94.6289,-859.976 L 95.1791,-860.278 L 95.6871,-860.647 L 96.1448,-861.077
 L 96.5451,-861.561 L 96.8815,-862.091 L 97.1489,-862.659 L 97.3429,-863.257 L 97.4606,-863.873 L 97.5,-864.5
 L 97.5,-959.5 L 97.4606,-960.127 L 97.3429,-960.743 L 97.1489,-961.341 L 96.8815,-961.909 L 96.5451,-962.439
 L 96.1448,-962.923 L 95.6871,-963.353 L 95.1791,-963.722 L 94.6289,-964.024 L 94.0451,-964.255 L 93.4369,-964.411
 L 92.8139,-964.49 L -92.8139,-964.49 L -93.4369,-964.411 L -94.0451,-964.255 L -94.6289,-964.024 L -95.1791,-963.722
 L -95.6871,-963.353 L -96.1448,-962.923 L -96.5451,-962.439 L -96.8815,-961.909 L -97.1489,-961.341 L -97.3429,-960.743
 L -97.4606,-960.127 L -97.5,-959.5 L -97.5,-864.5 L -97.4606,-863.873 L -97.3429,-863.257 L -97.1489,-862.659
 L -96.8815,-862.091 L -96.5451,-861.561 L -96.1448,-861.077 L -95.6871,-860.647 L -95.1791,-860.278 L -94.6289,-859.976
 L -94.0451,-859.745 L -93.4369,-859.589 L -92.8139,-859.51 L 92.8139,-859.51 z
M -92.5482,-860.009 L -93.1401,-860.084 L -93.7178,-860.232 L -94.2724,-860.452 L -94.7952,-860.739 L -95.2778,-861.09
 L -95.7126,-861.498 L -96.0928,-861.958 L -96.4125,-862.462 L -96.6664,-863.001 L -96.8508,-863.569 L -96.9625,-864.155
 L -97,-864.75 L -97,-959.25 L -96.9625,-959.845 L -96.8508,-960.431 L -96.6664,-960.999 L -96.4125,-961.538
 L -96.0928,-962.042 L -95.7126,-962.502 L -95.2778,-962.91 L -94.7952,-963.261 L -94.2724,-963.548 L -93.7178,-963.768
 L -93.1401,-963.916 L -92.5482,-963.991 L 92.5482,-963.991 L 93.1401,-963.916 L 93.7178,-963.768 L 94.2724,-963.548
 L 94.7952,-963.261 L 95.2778,-962.91 L 95.7126,-962.502 L 96.0928,-962.042 L 96.4125,-961.538 L 96.6664,-960.999
 L 96.8508,-960.431 L 96.9625,-959.845 L 97,-959.25 L 97,-864.75 L 96.9625,-864.155 L 96.8508,-863.569
 L 96.6664,-863.001 L 96.4125,-862.462 L 96.0928,-861.958 L 95.7126,-861.498 L 95.2778,-861.09 L 94.7952,-860.739
 L 94.2724,-860.452 L 93.7178,-860.232 L 93.1401,-860.084 L 92.5482,-860.009 z
M 93.4369,-745.589 L 94.0451,-745.745 L 94.6289,-745.976 L 95.1791,-746.278 L 95.6871,-746.647 L 96.1448,-747.077
 L 96.5451,-747.561 L 96.8815,-748.091 L 97.1489,-748.659 L 97.3429,-749.257 L 97.4606,-749.873 L 97.5,-750.5
 L 97.5,-845.5 L 97.4606,-846.127 L 97.3429,-846.743 L 97.1489,-847.341 L 96.8815,-847.909 L 96.5451,-848.439
 L 96.1448,-848.923 L 95.6871,-849.353 L 95.1791,-849.722 L 94.6289,-850.024 L 94.0451,-850.255 L 93.4369,-850.411
 L 92.8139,-850.49 L -92.8139,-850.49 L -93.4369,-850.411 L -94.0451,-850.255 L -94.6289,-850.024 L -95.1791,-849.722
 L -95.6871,-849.353 L -96.1448,-848.923 L -96.5451,-848.439 L -96.8815,-847.909 L -97.1489,-847.341 L -97.3429,-846.743
 L -97.4606,-846.127 L -97.5,-845.5 L -97.5,-750.5 L -97.4606,-749.873 L -97.3429,-749.257 L -97.1489,-748.659
 L -96.8815,-748.091 L -96.5451,-747.561 L -96.1448,-747.077 L -95.6871,-746.647 L -95.1791,-746.278 L -94.6289,-745.976
 L -94.0451,-745.745 L -93.4369,-745.589 L -92.8139,-745.51 L 92.8139,-745.51 z
M -92.5482,-746.009 L -93.1401,-746.084 L -93.7178,-746.232 L -94.2724,-746.452 L -94.7952,-746.739 L -95.2778,-747.09
 L -95.7126,-747.498 L -96.0928,-747.958 L -96.4125,-748.462 L -96.6664,-749.001 L -96.8508,-749.569 L -96.9625,-750.155
 L -97,-750.75 L -97,-845.25 L -96.9625,-845.845 L -96.8508,-846.431 L -96.6664,-846.999 L -96.4125,-847.538
 L -96.0928,-848.042 L -95.7126,-848.502 L -95.2778,-848.91 L -94.7952,-849.261 L -94.2724,-849.548 L -93.7178,-849.768
 L -93.1401,-849.916 L -92.5482,-849.991 L 92.5482,-849.991 L 93.1401,-849.916 L 93.7178,-849.768 L 94.2724,-849.548
 L 94.7952,-849.261 L 95.2778,-848.91 L 95.7126,-848.502 L 96.0928,-848.042 L 96.4125,-847.538 L 96.6664,-846.999
 L 96.8508,-846.431 L 96.9625,-845.845 L 97,-845.25 L 97,-750.75 L 96.9625,-750.155 L 96.8508,-749.569
 L 96.6664,-749.001 L 96.4125,-748.462 L 96.0928,-747.958 L 95.7126,-747.498 L 95.2778,-747.09 L 94.7952,-746.739
 L 94.2724,-746.452 L 93.7178,-746.232 L 93.1401,-746.084 L 92.5482,-746.009 z
M 93.4369,-631.589 L 94.0451,-631.745 L 94.6289,-631.976 L 95.1791,-632.278 L 95.6871,-632.647 L 96.1448,-633.077
 L 96.5451,-633.561 L 96.8815,-634.091 L 97.1489,-634.659 L 97.3429,-635.257 L 97.4606,-635.873 L 97.5,-636.5
 L 97.5,-731.5 L 97.4606,-732.127 L 97.3429,-732.743 L 97.1489,-733.341 L 96.8815,-733.909 L 96.5451,-734.439
 L 96.1448,-734.923 L 95.6871,-735.353 L 95.1791,-735.722 L 94.6289,-736.024 L 94.0451,-736.255 L 93.4369,-736.411
 L 92.8139,-736.49 L -92.8139,-736.49 L -93.4369,-736.411 L -94.0451,-736.255 L -94.6289,-736.024 L -95.1791,-735.722
 L -95.6871,-735.353 L -96.1448,-734.923 L -96.5451,-734.439 L -96.8815,-733.909 L -97.1489,-733.341 L -97.3429,-732.743
 L -97.4606,-732.127 L -97.5,-731.5 L -97.5,-636.5 L -97.4606,-635.873 L -97.3429,-635.257 L -97.1489,-634.659
 L -96.8815,-634.091 L -96.5451,-633.561 L -96.1448,-633.077 L -95.6871,-632.647 L -95.1791,-632.278 L -94.6289,-631.976
 L -94.0451,-631.745 L -93.4369,-631.589 L -92.8139,-631.51 L 92.8139,-631.51 z
M -92.5482,-632.009 L -93.1401,-632.084 L -93.7178,-632.232 L -94.2724,-632.452 L -94.7952,-632.739 L -95.2778,-633.09
 L -95.7126,-633.498 L -96.0928,-633.958 L -96.4125,-634.462 L -96.6664,-635.001 L -96.8508,-635.569 L -96.9625,-636.155
 L -97,-636.75 L -97,-731.25 L -96.9625,-731.845 L -96.8508,-732.431 L -96.6664,-732.999 L -96.4125,-733.538
 L -96.0928,-734.042 L -95.7126,-734.502 L -95.2778,-734.91 L -94.7952,-735.261 L -94.2724,-735.548 L -93.7178,-735.768
 L -93.1401,-735.916 L -92.5482,-735.991 L 92.5482,-735.991 L 93.1401,-735.916 L 93.7178,-735.768 L 94.2724,-735.548
 L 94.7952,-735.261 L 95.2778,-734.91 L 95.7126,-734.502 L 96.0928,-734.042 L 96.4125,-733.538 L 96.6664,-732.999
 L 96.8508,-732.431 L 96.9625,-731.845 L 97,-731.25 L 97,-636.75 L 96.9625,-636.155 L 96.8508,-635.569
 L 96.6664,-635.001 L 96.4125,-634.462 L 96.0928,-633.958 L 95.7126,-633.498 L 95.2778,-633.09 L 94.7952,-632.739
 L 94.2724,-632.452 L 93.7178,-632.232 L 93.1401,-632.084 L 92.5482,-632.009 z
M 93.4369,-517.589 L 94.0451,-517.745 L 94.6289,-517.976 L 95.1791,-518.278 L 95.6871,-518.647 L 96.1448,-519.077
 L 96.5451,-519.561 L 96.8815,-520.091 L 97.1489,-520.659 L 97.3429,-521.257 L 97.4606,-521.873 L 97.5,-522.5
 L 97.5,-617.5 L 97.4606,-618.127 L 97.3429,-618.743 L 97.1489,-619.341 L 96.8815,-619.909 L 96.5451,-620.439
 L 96.1448,-620.923 L 95.6871,-621.353 L 95.1791,-621.722 L 94.6289,-622.024 L 94.0451,-622.255 L 93.4369,-622.411
 L 92.8139,-622.49 L -92.8139,-622.49 L -93.4369,-622.411 L -94.0451,-622.255 L -94.6289,-622.024 L -95.1791,-621.722
 L -95.6871,-621.353 L -96.1448,-620.923 L -96.5451,-620.439 L -96.8815,-619.909 L -97.1489,-619.341 L -97.3429,-618.743
 L -97.4606,-618.127 L -97.5,-617.5 L -97.5,-522.5 L -97.4606,-521.873 L -97.3429,-521.257 L -97.1489,-520.659
 L -96.8815,-520.091 L -96.5451,-519.561 L -96.1448,-519.077 L -95.6871,-518.647 L -95.1791,-518.278 L -94.6289,-517.976
 L -94.0451,-517.745 L -93.4369,-517.589 L -92.8139,-517.51 L 92.8139,-517.51 z
M -92.493,-518.888 L -92.9751,-518.949 L -93.4457,-519.07 L -93.8975,-519.249 L -94.3234,-519.483 L -94.7165,-519.769
 L -95.0707,-520.101 L -95.3805,-520.476 L -95.6408,-520.886 L -95.8477,-521.326 L -95.9979,-521.788 L -96.089,-522.265
 L -96.1195,-522.75 L -96.1195,-617.25 L -96.089,-617.735 L -95.9979,-618.212 L -95.8477,-618.674 L -95.6408,-619.114
 L -95.3805,-619.524 L -95.0707,-619.899 L -94.7165,-620.231 L -94.3234,-620.517 L -93.8975,-620.751 L -93.4457,-620.93
 L -92.9751,-621.051 L -92.493,-621.112 L 92.493,-621.112 L 92.9751,-621.051 L 93.4457,-620.93 L 93.8975,-620.751
 L 94.3234,-620.517 L 94.7165,-620.231 L 95.0707,-619.899 L 95.3805,-619.524 L 95.6408,-619.114 L 95.8477,-618.674
 L 95.9979,-618.212 L 96.089,-617.735 L 96.1195,-617.25 L 96.1195,-522.75 L 96.089,-522.265 L 95.9979,-521.788
 L 95.8477,-521.326 L 95.6408,-520.886 L 95.3805,-520.476 L 95.0707,-520.101 L 94.7165,-519.769 L 94.3234,-519.483
 L 93.8975,-519.249 L 93.4457,-519.07 L 92.9751,-518.949 L 92.493,-518.888 z
M 93.4369,-403.589 L 94.0451,-403.745 L 94.6289,-403.976 L 95.1791,-404.278 L 95.6871,-404.647 L 96.1448,-405.077
 L 96.5451,-405.561 L 96.8815,-406.091 L 97.1489,-406.659 L 97.3429,-407.257 L 97.4606,-407.873 L 97.5,-408.5
 L 97.5,-503.5 L 97.4606,-504.127 L 97.3429,-504.743 L 97.1489,-505.341 L 96.8815,-505.909 L 96.5451,-506.439
 L 96.1448,-506.923 L 95.6871,-507.353 L 95.1791,-507.722 L 94.6289,-508.024 L 94.0451,-508.255 L 93.4369,-508.411
 L 92.8139,-508.49 L -92.8139,-508.49 L -93.4369,-508.411 L -94.0451,-508.255 L -94.6289,-508.024 L -95.1791,-507.722
 L -95.6871,-507.353 L -96.1448,-506.923 L -96.5451,-506.439 L -96.8815,-505.909 L -97.1489,-505.341 L -97.3429,-504.743
 L -97.4606,-504.127 L -97.5,-503.5 L -97.5,-408.5 L -97.4606,-407.873 L -97.3429,-407.257 L -97.1489,-406.659
 L -96.8815,-406.091 L -96.5451,-405.561 L -96.1448,-405.077 L -95.6871,-404.647 L -95.1791,-404.278 L -94.6289,-403.976
 L -94.0451,-403.745 L -93.4369,-403.589 L -92.8139,-403.51 L 92.8139,-403.51 z
M 89.887,-499.204 L 89.6627,-499.232 L 89.4438,-499.288 L 89.2336,-499.371 L 89.0355,-499.48 L 88.8526,-499.613
 L 88.6879,-499.768 L 88.5438,-499.942 L 88.4226,-500.133 L 88.3264,-500.337 L 88.2565,-500.552 L 88.2142,-500.774
 L 88.2,-501 L 88.2142,-501.226 L 88.2565,-501.448 L 88.3264,-501.663 L 88.4226,-501.867 L 88.5438,-502.058
 L 88.6879,-502.232 L 88.8526,-502.387 L 89.0355,-502.52 L 89.2336,-502.629 L 89.4438,-502.712 L 89.6627,-502.768
 L 89.887,-502.796 L 90.113,-502.796 L 90.3373,-502.768 L 90.5562,-502.712 L 90.7664,-502.629 L 90.9645,-502.52
 L 91.1474,-502.387 L 91.3121,-502.232 L 91.4562,-502.058 L 91.5773,-501.867 L 91.6736,-501.663 L 91.7434,-501.448
 L 91.7858,-501.226 L 91.8,-501 L 91.7858,-500.774 L 91.7434,-500.552 L 91.6736,-500.337 L 91.5773,-500.133
 L 91.4562,-499.942 L 91.3121,-499.768 L 91.1474,-499.613 L 90.9645,-499.48 L 90.7664,-499.371 L 90.5562,-499.288
 L 90.3373,-499.232 L 90.113,-499.204 z
M -90.113,-499.204 L -90.3373,-499.232 L -90.5562,-499.288 L -90.7664,-499.371 L -90.9645,-499.48 L -91.1474,-499.613
 L -91.3121,-499.768 L -91.4562,-499.942 L -91.5773,-500.133 L -91.6736,-500.337 L -91.7434,-500.552 L -91.7858,-500.774
 L -91.8,-501 L -91.7858,-501.226 L -91.7434,-501.448 L -91.6736,-501.663 L -91.5773,-501.867 L -91.4562,-502.058
 L -91.3121,-502.232 L -91.1474,-502.387 L -90.9645,-502.52 L -90.7664,-502.629 L -90.5562,-502.712 L -90.3373,-502.768
 L -90.113,-502.796 L -89.887,-502.796 L -89.6627,-502.768 L -89.4438,-502.712 L -89.2336,-502.629 L -89.0355,-502.52
 L -88.8526,-502.387 L -88.6879,-502.232 L -88.5438,-502.058 L -88.4226,-501.867 L -88.3264,-501.663 L -88.2565,-501.448
 L -88.2142,-501.226 L -88.2,-501 L -88.2142,-500.774 L -88.2565,-500.552 L -88.3264,-500.337 L -88.4226,-500.133
 L -88.5438,-499.942 L -88.6879,-499.768 L -88.8526,-499.613 L -89.0355,-499.48 L -89.2336,-499.371 L -89.4438,-499.288
 L -89.6627,-499.232 L -89.887,-499.204 z
M -90.113,-409.204 L -90.3373,-409.232 L -90.5562,-409.288 L -90.7664,-409.371 L -90.9645,-409.48 L -91.1474,-409.613
 L -91.3121,-409.768 L -91.4562,-409.942 L -91.5773,-410.133 L -91.6736,-410.337 L -91.7434,-410.552 L -91.7858,-410.774
 L -91.8,-411 L -91.7858,-411.226 L -91.7434,-411.448 L -91.6736,-411.663 L -91.5773,-411.867 L -91.4562,-412.058
 L -91.3121,-412.232 L -91.1474,-412.387 L -90.9645,-412.52 L -90.7664,-412.629 L -90.5562,-412.712 L -90.3373,-412.768
 L -90.113,-412.796 L -89.887,-412.796 L -89.6627,-412.768 L -89.4438,-412.712 L -89.2336,-412.629 L -89.0355,-412.52
 L -88.8526,-412.387 L -88.6879,-412.232 L -88.5438,-412.058 L -88.4226,-411.867 L -88.3264,-411.663 L -88.2565,-411.448
 L -88.2142,-411.226 L -88.2,-411 L -88.2142,-410.774 L -88.2565,-410.552 L -88.3264,-410.337 L -88.4226,-410.133
 L -88.5438,-409.942 L -88.6879,-409.768 L -88.8526,-409.613 L -89.0355,-409.48 L -89.2336,-409.371 L -89.4438,-409.288
 L -89.6627,-409.232 L -89.887,-409.204 z
M 89.887,-409.204 L 89.6627,-409.232 L 89.4438,-409.288 L 89.2336,-409.371 L 89.0355,-409.48 L 88.8526,-409.613
 L 88.6879,-409.768 L 88.5438,-409.942 L 88.4226,-410.133 L 88.3264,-410.337 L 88.2565,-410.552 L 88.2142,-410.774
 L 88.2,-411 L 88.2142,-411.226 L 88.2565,-411.448 L 88.3264,-411.663 L 88.4226,-411.867 L 88.5438,-412.058
 L 88.6879,-412.232 L 88.8526,-412.387 L 89.0355,-412.52 L 89.2336,-412.629 L 89.4438,-412.712 L 89.6627,-412.768
 L 89.887,-412.796 L 90.113,-412.796 L 90.3373,-412.768 L 90.5562,-412.712 L 90.7664,-412.629 L 90.9645,-412.52
 L 91.1474,-412.387 L 91.3121,-412.232 L 91.4562,-412.058 L 91.5773,-411.867 L 91.6736,-411.663 L 91.7434,-411.448
 L 91.7858,-411.226 L 91.8,-411 L 91.7858,-410.774 L 91.7434,-410.552 L 91.6736,-410.337 L 91.5773,-410.133
 L 91.4562,-409.942 L 91.3121,-409.768 L 91.1474,-409.613 L 90.9645,-409.48 L 90.7664,-409.371 L 90.5562,-409.288
 L 90.3373,-409.232 L 90.113,-409.204 z
" stroke="black" fill="lightgray" stroke-width="0.5"/>
</svg>
