<?xml version="1.0" standalone="no"?>
<!DOCTYPE svg PUBLIC "-//W3C//DTD SVG 1.1//EN" "http://www.w3.org/Graphics/SVG/1.1/DTD/svg11.dtd">
<svg width="16mm" height="232mm" viewBox="-8 -464 16 232" xmlns="http://www.w3.org/2000/svg" version="1.1">
<title>OpenSCAD Model</title>
<path d="
M 3.4369,-448.589 L 4.04507,-448.745 L 4.62889,-448.976 L 5.17912,-449.278 L 5.68712,-449.647 L 6.14484,-450.077
 L 6.54507,-450.561 L 6.88153,-451.091 L 7.14888,-451.659 L 7.34291,-452.257 L 7.46057,-452.873 L 7.5,-453.5
 L 7.5,-458.5 L 7.46057,-459.127 L 7.34291,-459.743 L 7.14888,-460.341 L 6.88153,-460.909 L 6.54507,-461.439
 L 6.14484,-461.923 L 5.68712,-462.353 L 5.17912,-462.722 L 4.62889,-463.024 L 4.04507,-463.255 L 3.4369,-463.411
 L 2.81395,-463.49 L -2.81395,-463.49 L -3.4369,-463.411 L -4.04507,-463.255 L -4.62889,-463.024 L -5.17912,-462.722
 L -5.68712,-462.353 L -6.14484,-461.923 L -6.54507,-461.439 L -6.88153,-460.909 L -7.14888,-460.341 L -7.34291,-459.743
 L -7.46057,-459.127 L -7.5,-458.5 L -7.5,-453.5 L -7.46057,-452.873 L -7.34291,-452.257 L -7.14888,-451.659
 L -6.88153,-451.091 L -6.54507,-450.561 L -6.14484,-450.077 L -5.68712,-449.647 L -5.17912,-449.278 L -4.62889,-448.976
 L -4.04507,-448.745 L -3.4369,-448.589 L -2.81395,-448.51 L 2.81395,-448.51 z
M -2.54825,-449.009 L -3.14006,-449.084 L -3.71782,-449.232 L -4.27245,-449.452 L -4.79517,-449.739 L -5.27776,-450.09
 L -5.7126,-450.498 L -6.09282,-450.958 L -6.41245,-451.462 L -6.66643,-452.001 L -6.85077,-452.569 L -6.96254,-453.155
 L -7,-453.75 L -7,-458.25 L -6.96254,-458.845 L -6.85077,-459.431 L -6.66643,-459.999 L -6.41245,-460.538
 L -6.09282,-461.042 L -5.7126,-461.502 L -5.27776,-461.91 L -4.79517,-462.261 L -4.27245,-462.548 L -3.71782,-462.768
 L -3.14006,-462.916 L -2.54825,-462.991 L 2.54825,-462.991 L 3.14006,-462.916 L 3.71782,-462.768 L 4.27245,-462.548
 L 4.79517,-462.261 L 5.27776,-461.91 L 5.7126,-461.502 L 6.09282,-461.042 L 6.41245,-460.538 L 6.66643,-459.999
 L 6.85077,-459.431 L 6.96254,-458.845 L 7,-458.25 L 7,-453.75 L 6.96254,-453.155 L 6.85077,-452.569
 L 6.66643,-452.001 L 6.41245,-451.462 L 6.09282,-450.958 L 5.7126,-450.498 L 5.27776,-450.09 L 4.79517,-449.739
 L 4.27245,-449.452 L 3.71782,-449.232 L 3.14006,-449.084 L 2.54825,-449.009 z
M 3.4369,-424.589 L 4.04507,-424.745 L 4.62889,-424.976 L 5.17912,-425.278 L 5.68712,-425.647 L 6.14484,-426.077
 L 6.54507,-426.561 L 6.88153,-427.091 L 7.14888,-427.659 L 7.34291,-428.257 L 7.46057,-428.873 L 7.5,-429.5
 L 7.5,-434.5 L 7.46057,-435.127 L 7.34291,-435.743 L 7.14888,-436.341 L 6.88153,-436.909 L 6.54507,-437.439
 L 6.14484,-437.923 L 5.68712,-438.353 L 5.17912,-438.722 L 4.62889,-439.024 L 4.04507,-439.255 L 3.4369,-439.411
 L 2.81395,-439.49 L -2.81395,-439.49 L -3.4369,-439.411 L -4.04507,-439.255 L -4.62889,-439.024 L -5.17912,-438.722
 L -5.68712,-438.353 L -6.14484,-437.923 L -6.54507,-437.439 L -6.88153,-436.909 L -7.14888,-436.341 L -7.34291,-435.743
 L -7.46057,-435.127 L -7.5,-434.5 L -7.5,-429.5 L -7.46057,-428.873 L -7.34291,-428.257 L -7.14888,-427.659
 L -6.88153,-427.091 L -6.54507,-426.561 L -6.14484,-426.077 L -5.68712,-425.647 L -5.17912,-425.278 L -4.62889,-424.976
 L -4.04507,-424.745 L -3.4369,-424.589 L -2.81395,-424.51 L 2.81395,-424.51 z
M -2.54825,-425.009 L -3.14006,-425.084 L -3.71782,-425.232 L -4.27245,-425.452 L -4.79517,-425.739 L -5.27776,-426.09
 L -5.7126,-426.498 L -6.09282,-426.958 L -6.41245,-427.462 L -6.66643,-428.001 L -6.85077,-428.569 L -6.96254,-429.155
 L -7,-429.75 L -7,-434.25 L -6.96254,-434.845 L -6.85077,-435.431 L -6.66643,-435.999 L -6.41245,-436.538
 L -6.09282,-437.042 L -5.7126,-437.502 L -5.27776,-437.91 L -4.79517,-438.261 L -4.27245,-438.548 L -3.71782,-438.768
 L -3.14006,-438.916 L -2.54825,-438.991 L 2.54825,-438.991 L 3.14006,-438.916 L 3.71782,-438.768 L 4.27245,-438.548
 L 4.79517,-438.261 L 5.27776,-437.91 L 5.7126,-437.502 L 6.09282,-437.042 L 6.41245,-436.538 L 6.66643,-435.999
 L 6.85077,-435.431 L 6.96254,-434.845 L 7,-434.25 L 7,-429.75 L 6.96254,-429.155 L 6.85077,-428.569
 L 6.66643,-428.001 L 6.41245,-427.462 L 6.09282,-426.958 L 5.7126,-426.498 L 5.27776,-426.09 L 4.79517,-425.739
 L 4.27245,-425.452 L 3.71782,-425.232 L 3.14006,-425.084 L 2.54825,-425.009 z
M 3.4369,-400.589 L 4.04507,-400.745 L 4.62889,-400.976 L 5.17912,-401.278 L 5.68712,-401.647 L 6.14484,-402.077
 L 6.54507,-402.561 L 6.88153,-403.091 L 7.14888,-403.659 L 7.34291,-404.257 L 7.46057,-404.873 L 7.5,-405.5
 L 7.5,-410.5 L 7.46057,-411.127 L 7.34291,-411.743 L 7.14888,-412.341 L 6.88153,-412.909 L 6.54507,-413.439
 L 6.14484,-413.923 L 5.68712,-414.353 L 5.17912,-414.722 L 4.62889,-415.024 L 4.04507,-415.255 L 3.4369,-415.411
 L 2.81395,-415.49 L -2.81395,-415.49 L -3.4369,-415.411 L -4.04507,-415.255 L -4.62889,-415.024 L -5.17912,-414.722
 L -5.68712,-414.353 L -6.14484,-413.923 L -6.54507,-413.439 L -6.88153,-412.909 L -7.14888,-412.341 L -7.34291,-411.743
 L -7.46057,-411.127 L -7.5,-410.5 L -7.5,-405.5 L -7.46057,-404.873 L -7.34291,-404.257 L -7.14888,-403.659
 L -6.88153,-403.091 L -6.54507,-402.561 L -6.14484,-402.077 L -5.68712,-401.647 L -5.17912,-401.278 L -4.62889,-400.976
 L -4.04507,-400.745 L -3.4369,-400.589 L -2.81395,-400.51 L 2.81395,-400.51 z
M -2.54825,-401.009 L -3.14006,-401.084 L -3.71782,-401.232 L -4.27245,-401.452 L -4.79517,-401.739 L -5.27776,-402.09
 L -5.7126,-402.498 L -6.09282,-402.958 L -6.41245,-403.462 L -6.66643,-404.001 L -6.85077,-404.569 L -6.96254,-405.155
 L -7,-405.75 L -7,-410.25 L -6.96254,-410.845 L -6.85077,-411.431 L -6.66643,-411.999 L -6.41245,-412.538
 L -6.09282,-413.042 L -5.7126,-413.502 L -5.27776,-413.91 L -4.79517,-414.261 L -4.27245,-414.548 L -3.71782,-414.768
 L -3.14006,-414.916 L -2.54825,-414.991 L 2.54825,-414.991 L 3.14006,-414.916 L 3.71782,-414.768 L 4.27245,-414.548
 L 4.79517,-414.261 L 5.27776,-413.91 L 5.7126,-413.502 L 6.09282,-413.042 L 6.41245,-412.538 L 6.66643,-411.999
 L 6.85077,-411.431 L 6.96254,-410.845 L 7,-410.25 L 7,-405.75 L 6.96254,-405.155 L 6.85077,-404.569
 L 6.66643,-404.001 L 6.41245,-403.462 L 6.09282,-402.958 L 5.7126,-402.498 L 5.27776,-402.09 L 4.79517,-401.739
 L 4.27245,-401.452 L 3.71782,-401.232 L 3.14006,-401.084 L 2.54825,-401.009 z
M 3.4369,-376.589 L 4.04507,-376.745 L 4.62889,-376.976 L 5.17912,-377.278 L 5.68712,-377.647 L 6.14484,-378.077
 L 6.54507,-378.561 L 6.88153,-379.091 L 7.14888,-379.659 L 7.34291,-380.257 L 7.46057,-380.873 L 7.5,-381.5
 L 7.5,-386.5 L 7.46057,-387.127 L 7.34291,-387.743 L 7.14888,-388.341 L 6.88153,-388.909 L 6.54507,-389.439
 L 6.14484,-389.923 L 5.68712,-390.353 L 5.17912,-390.722 L 4.62889,-391.024 L 4.04507,-391.255 L 3.4369,-391.411
 L 2.81395,-391.49 L -2.81395,-391.49 L -3.4369,-391.411 L -4.04507,-391.255 L -4.62889,-391.024 L -5.17912,-390.722
 L -5.68712,-390.353 L -6.14484,-389.923 L -6.54507,-389.439 L -6.88153,-388.909 L -7.14888,-388.341 L -7.34291,-387.743
 L -7.46057,-387.127 L -7.5,-386.5 L -7.5,-381.5 L -7.46057,-380.873 L -7.34291,-380.257 L -7.14888,-379.659
 L -6.88153,-379.091 L -6.54507,-378.561 L -6.14484,-378.077 L -5.68712,-377.647 L -5.17912,-377.278 L -4.62889,-376.976
 L -4.04507,-376.745 L -3.4369,-376.589 L -2.81395,-376.51 L 2.81395,-376.51 z
M -2.54825,-377.009 L -3.14006,-377.084 L -3.71782,-377.232 L -4.27245,-377.452 L -4.79517,-377.739 L -5.27776,-378.09
 L -5.7126,-378.498 L -6.09282,-378.958 L -6.41245,-379.462 L -6.66643,-380.001 L -6.85077,-380.569 L -6.96254,-381.155
 L -7,-381.75 L -7,-386.25 L -6.96254,-386.845 L -6.85077,-387.431 L -6.66643,-387.999 L -6.41245,-388.538
 L -6.09282,-389.042 L -5.7126,-389.502 L -5.27776,-389.91 L -4.79517,-390.261 L -4.27245,-390.548 L -3.71782,-390.768
 L -3.14006,-390.916 L -2.54825,-390.991 L 2.54825,-390.991 L 3.14006,-390.916 L 3.71782,-390.768 L 4.27245,-390.548
 L 4.79517,-390.261 L 5.27776,-389.91 L 5.7126,-389.502 L 6.09282,-389.042 L 6.41245,-388.538 L 6.66643,-387.999
 L 6.85077,-387.431 L 6.96254,-386.845 L 7,-386.25 L 7,-381.75 L 6.96254,-381.155 L 6.85077,-380.569
 L 6.66643,-380.001 L 6.41245,-379.462 L 6.09282,-378.958 L 5.7126,-378.498 L 5.27776,-378.09 L 4.79517,-377.739
 L 4.27245,-377.452 L 3.71782,-377.232 L 3.14006,-377.084 L 2.54825,-377.009 z
M 3.4369,-352.589 L 4.04507,-352.745 L 4.62889,-352.976 L 5.17912,-353.278 L 5.68712,-353.647 L 6.14484,-354.077
 L 6.54507,-354.561 L 6.88153,-355.091 L 7.14888,-355.659 L 7.34291,-356.257 L 7.46057,-356.873 L 7.5,-357.5
 L 7.5,-362.5 L 7.46057,-363.127 L 7.34291,-363.743 L 7.14888,-364.341 L 6.88153,-364.909 L 6.54507,-365.439
 L 6.14484,-365.923 L 5.68712,-366.353 L 5.17912,-366.722 L 4.62889,-367.024 L 4.04507,-367.255 L 3.4369,-367.411
 L 2.81395,-367.49 L -2.81395,-367.49 L -3.4369,-367.411 L -4.04507,-367.255 L -4.62889,-367.024 L -5.17912,-366.722
 L -5.68712,-366.353 L -6.14484,-365.923 L -6.54507,-365.439 L -6.88153,-364.909 L -7.14888,-364.341 L -7.34291,-363.743
 L -7.46057,-363.127 L -7.5,-362.5 L -7.5,-357.5 L -7.46057,-356.873 L -7.34291,-356.257 L -7.14888,-355.659
 L -6.88153,-355.091 L -6.54507,-354.561 L -6.14484,-354.077 L -5.68712,-353.647 L -5.17912,-353.278 L -4.62889,-352.976
 L -4.04507,-352.745 L -3.4369,-352.589 L -2.81395,-352.51 L 2.81395,-352.51 z
M -2.54825,-353.009 L -3.14006,-353.084 L -3.71782,-353.232 L -4.27245,-353.452 L -4.79517,-353.739 L -5.27776,-354.09
 L -5.7126,-354.498 L -6.09282,-354.958 L -6.41245,-355.462 L -6.66643,-356.001 L -6.85077,-356.569 L -6.96254,-357.155
 L -7,-357.75 L -7,-362.25 L -6.96254,-362.845 L -6.85077,-363.431 L -6.66643,-363.999 L -6.41245,-364.538
 L -6.09282,-365.042 L -5.7126,-365.502 L -5.27776,-365.91 L -4.79517,-366.261 L -4.27245,-366.548 L -3.71782,-366.768
 L -3.14006,-366.916 L -2.54825,-366.991 L 2.54825,-366.991 L 3.14006,-366.916 L 3.71782,-366.768 L 4.27245,-366.548
 L 4.79517,-366.261 L 5.27776,-365.91 L 5.7126,-365.502 L 6.09282,-365.042 L 6.41245,-364.538 L 6.66643,-363.999
 L 6.85077,-363.431 L 6.96254,-362.845 L 7,-362.25 L 7,-357.75 L 6.96254,-357.155 L 6.85077,-356.569
 L 6.66643,-356.001 L 6.41245,-355.462 L 6.09282,-354.958 L 5.7126,-354.498 L 5.27776,-354.09 L 4.79517,-353.739
 L 4.27245,-353.452 L 3.71782,-353.232 L 3.14006,-353.084 L 2.54825,-353.009 z
M 3.4369,-328.589 L 4.04507,-328.745 L 4.62889,-328.976 L 5.17912,-329.278 L 5.68712,-329.647 L 6.14484,-330.077
 L 6.54507,-330.561 L 6.88153,-331.091 L 7.14888,-331.659 L 7.34291,-332.257 L 7.46057,-332.873 L 7.5,-333.5
 L 7.5,-338.5 L 7.46057,-339.127 L 7.34291,-339.743 L 7.14888,-340.341 L 6.88153,-340.909 L 6.54507,-341.439
 L 6.14484,-341.923 L 5.68712,-342.353 L 5.17912,-342.722 L 4.62889,-343.024 L 4.04507,-343.255 L 3.4369,-343.411
 L 2.81395,-343.49 L -2.81395,-343.49 L -3.4369,-343.411 L -4.04507,-343.255 L -4.62889,-343.024 L -5.17912,-342.722
 L -5.68712,-342.353 L -6.14484,-341.923 L -6.54507,-341.439 L -6.88153,-340.909 L -7.14888,-340.341 L -7.34291,-339.743
 L -7.46057,-339.127 L -7.5,-338.5 L -7.5,-333.5 L -7.46057,-332.873 L -7.34291,-332.257 L -7.14888,-331.659
 L -6.88153,-331.091 L -6.54507,-330.561 L -6.14484,-330.077 L -5.68712,-329.647 L -5.17912,-329.278 L -4.62889,-328.976
 L -4.04507,-328.745 L -3.4369,-328.589 L -2.81395,-328.51 L 2.81395,-328.51 z
M -2.54825,-329.009 L -3.14006,-329.084 L -3.71782,-329.232 L -4.27245,-329.452 L -4.79517,-329.739 L -5.27776,-330.09
 L -5.7126,-330.498 L -6.09282,-330.958 L -6.41245,-331.462 L -6.66643,-332.001 L -6.85077,-332.569 L -6.96254,-333.155
 L -7,-333.75 L -7,-338.25 L -6.96254,-338.845 L -6.85077,-339.431 L -6.66643,-339.999 L -6.41245,-340.538
 L -6.09282,-341.042 L -5.7126,-341.502 L -5.27776,-341.91 L -4.79517,-342.261 L -4.27245,-342.548 L -3.71782,-342.768
 L -3.14006,-342.916 L -2.54825,-342.991 L 2.54825,-342.991 L 3.14006,-342.916 L 3.71782,-342.768 L 4.27245,-342.548
 L 4.79517,-342.261 L 5.27776,-341.91 L 5.7126,-341.502 L 6.09282,-341.042 L 6.41245,-340.538 L 6.66643,-339.999
 L 6.85077,-339.431 L 6.96254,-338.845 L 7,-338.25 L 7,-333.75 L 6.96254,-333.155 L 6.85077,-332.569
 L 6.66643,-332.001 L 6.41245,-331.462 L 6.09282,-330.958 L 5.7126,-330.498 L 5.27776,-330.09 L 4.79517,-329.739
 L 4.27245,-329.452 L 3.71782,-329.232 L 3.14006,-329.084 L 2.54825,-329.009 z
M 3.4369,-304.589 L 4.04507,-304.745 L 4.62889,-304.976 L 5.17912,-305.278 L 5.68712,-305.647 L 6.14484,-306.077
 L 6.54507,-306.561 L 6.88153,-307.091 L 7.14888,-307.659 L 7.34291,-308.257 L 7.46057,-308.873 L 7.5,-309.5
 L 7.5,-314.5 L 7.46057,-315.127 L 7.34291,-315.743 L 7.14888,-316.341 L 6.88153,-316.909 L 6.54507,-317.439
 L 6.14484,-317.923 L 5.68712,-318.353 L 5.17912,-318.722 L 4.62889,-319.024 L 4.04507,-319.255 L 3.4369,-319.411
 L 2.81395,-319.49 L -2.81395,-319.49 L -3.4369,-319.411 L -4.04507,-319.255 L -4.62889,-319.024 L -5.17912,-318.722
 L -5.68712,-318.353 L -6.14484,-317.923 L -6.54507,-317.439 L -6.88153,-316.909 L -7.14888,-316.341 L -7.34291,-315.743
 L -7.46057,-315.127 L -7.5,-314.5 L -7.5,-309.5 L -7.46057,-308.873 L -7.34291,-308.257 L -7.14888,-307.659
 L -6.88153,-307.091 L -6.54507,-306.561 L -6.14484,-306.077 L -5.68712,-305.647 L -5.17912,-305.278 L -4.62889,-304.976
 L -4.04507,-304.745 L -3.4369,-304.589 L -2.81395,-304.51 L 2.81395,-304.51 z
M -2.54825,-305.009 L -3.14006,-305.084 L -3.71782,-305.232 L -4.27245,-305.452 L -4.79517,-305.739 L -5.27776,-306.09
 L -5.7126,-306.498 L -6.09282,-306.958 L -6.41245,-307.462 L -6.66643,-308.001 L -6.85077,-308.569 L -6.96254,-309.155
 L -7,-309.75 L -7,-314.25 L -6.96254,-314.845 L -6.85077,-315.431 L -6.66643,-315.999 L -6.41245,-316.538
 L -6.09282,-317.042 L -5.7126,-317.502 L -5.27776,-317.91 L -4.79517,-318.261 L -4.27245,-318.548 L -3.71782,-318.768
 L -3.14006,-318.916 L -2.54825,-318.991 L 2.54825,-318.991 L 3.14006,-318.916 L 3.71782,-318.768 L 4.27245,-318.548
 L 4.79517,-318.261 L 5.27776,-317.91 L 5.7126,-317.502 L 6.09282,-317.042 L 6.41245,-316.538 L 6.66643,-315.999
 L 6.85077,-315.431 L 6.96254,-314.845 L 7,-314.25 L 7,-309.75 L 6.96254,-309.155 L 6.85077,-308.569
 L 6.66643,-308.001 L 6.41245,-307.462 L 6.09282,-306.958 L 5.7126,-306.498 L 5.27776,-306.09 L 4.79517,-305.739
 L 4.27245,-305.452 L 3.71782,-305.232 L 3.14006,-305.084 L 2.54825,-305.009 z
M 3.4369,-280.589 L 4.04507,-280.745 L 4.62889,-280.976 L 5.17912,-281.278 L 5.68712,-281.647 L 6.14484,-282.077
 L 6.54507,-282.561 L 6.88153,-283.091 L 7.14888,-283.659 L 7.34291,-284.257 L 7.46057,-284.873 L 7.5,-285.5
 L 7.5,-290.5 L 7.46057,-291.127 L 7.34291,-291.743 L 7.14888,-292.341 L 6.88153,-292.909 L 6.54507,-293.439
 L 6.14484,-293.923 L 5.68712,-294.353 L 5.17912,-294.722 L 4.62889,-295.024 L 4.04507,-295.255 L 3.4369,-295.411
 L 2.81395,-295.49 L -2.81395,-295.49 L -3.4369,-295.411 L -4.04507,-295.255 L -4.62889,-295.024 L -5.17912,-294.722
 L -5.68712,-294.353 L -6.14484,-293.923 L -6.54507,-293.439 L -6.88153,-292.909 L -7.14888,-292.341 L -7.34291,-291.743
 L -7.46057,-291.127 L -7.5,-290.5 L -7.5,-285.5 L -7.46057,-284.873 L -7.34291,-284.257 L -7.14888,-283.659
 L -6.88153,-283.091 L -6.54507,-282.561 L -6.14484,-282.077 L -5.68712,-281.647 L -5.17912,-281.278 L -4.62889,-280.976
 L -4.04507,-280.745 L -3.4369,-280.589 L -2.81395,-280.51 L 2.81395,-280.51 z
M -2.54825,-281.009 L -3.14006,-281.084 L -3.71782,-281.232 L -4.27245,-281.452 L -4.79517,-281.739 L -5.27776,-282.09
 L -5.7126,-282.498 L -6.09282,-282.958 L -6.41245,-283.462 L -6.66643,-284.001 L -6.85077,-284.569 L -6.96254,-285.155
 L -7,-285.75 L -7,-290.25 L -6.96254,-290.845 L -6.85077,-291.431 L -6.66643,-291.999 L -6.41245,-292.538
 L -6.09282,-293.042 L -5.7126,-293.502 L -5.27776,-293.91 L -4.79517,-294.261 L -4.27245,-294.548 L -3.71782,-294.768
 L -3.14006,-294.916 L -2.54825,-294.991 L 2.54825,-294.991 L 3.14006,-294.916 L 3.71782,-294.768 L 4.27245,-294.548
 L 4.79517,-294.261 L 5.27776,-293.91 L 5.7126,-293.502 L 6.09282,-293.042 L 6.41245,-292.538 L 6.66643,-291.999
 L 6.85077,-291.431 L 6.96254,-290.845 L 7,-290.25 L 7,-285.75 L 6.96254,-285.155 L 6.85077,-284.569
 L 6.66643,-284.001 L 6.41245,-283.462 L 6.09282,-282.958 L 5.7126,-282.498 L 5.27776,-282.09 L 4.79517,-281.739
 L 4.27245,-281.452 L 3.71782,-281.232 L 3.14006,-281.084 L 2.54825,-281.009 z
M 3.4369,-256.589 L 4.04507,-256.745 L 4.62889,-256.976 L 5.17912,-257.278 L 5.68712,-257.647 L 6.14484,-258.077
 L 6.54507,-258.561 L 6.88153,-259.091 L 7.14888,-259.659 L 7.34291,-260.257 L 7.46057,-260.873 L 7.5,-261.5
 L 7.5,-266.5 L 7.46057,-267.127 L 7.34291,-267.743 L 7.14888,-268.341 L 6.88153,-268.909 L 6.54507,-269.439
 L 6.14484,-269.923 L 5.68712,-270.353 L 5.17912,-270.722 L 4.62889,-271.024 L 4.04507,-271.255 L 3.4369,-271.411
 L 2.81395,-271.49 L -2.81395,-271.49 L -3.4369,-271.411 L -4.04507,-271.255 L -4.62889,-271.024 L -5.17912,-270.722
 L -5.68712,-270.353 L -6.14484,-269.923 L -6.54507,-269.439 L -6.88153,-268.909 L -7.14888,-268.341 L -7.34291,-267.743
 L -7.46057,-267.127 L -7.5,-266.5 L -7.5,-261.5 L -7.46057,-260.873 L -7.34291,-260.257 L -7.14888,-259.659
 L -6.88153,-259.091 L -6.54507,-258.561 L -6.14484,-258.077 L -5.68712,-257.647 L -5.17912,-257.278 L -4.62889,-256.976
 L -4.04507,-256.745 L -3.4369,-256.589 L -2.81395,-256.51 L 2.81395,-256.51 z
M -2.53748,-257.181 L -3.10791,-257.253 L -3.66481,-257.396 L -4.1994,-257.607 L -4.70325,-257.884 L -5.1684,-258.222
 L -5.58754,-258.616 L -5.95403,-259.059 L -6.26212,-259.544 L -6.50691,-260.065 L -6.68459,-260.611 L -6.79233,-261.176
 L -6.82843,-261.75 L -6.82843,-266.25 L -6.79233,-266.824 L -6.68459,-267.389 L -6.50691,-267.935 L -6.26212,-268.456
 L -5.95403,-268.941 L -5.58754,-269.384 L -5.1684,-269.778 L -4.70325,-270.116 L -4.1994,-270.393 L -3.66481,-270.604
 L -3.10791,-270.747 L -2.53748,-270.819 L 2.53748,-270.819 L 3.10791,-270.747 L 3.66481,-270.604 L 4.1994,-270.393
 L 4.70325,-270.116 L 5.1684,-269.778 L 5.58754,-269.384 L 5.95403,-268.941 L 6.26212,-268.456 L 6.50691,-267.935
 L 6.68459,-267.389 L 6.79233,-266.824 L 6.82843,-266.25 L 6.82843,-261.75 L 6.79233,-261.176 L 6.68459,-260.611
 L 6.50691,-260.065 L 6.26212,-259.544 L 5.95403,-259.059 L 5.58754,-258.616 L 5.1684,-258.222 L 4.70325,-257.884
 L 4.1994,-257.607 L 3.66481,-257.396 L 3.10791,-257.253 L 2.53748,-257.181 z
M 3.4369,-232.589 L 4.04507,-232.745 L 4.62889,-232.976 L 5.17912,-233.278 L 5.68712,-233.647 L 6.14484,-234.077
 L 6.54507,-234.561 L 6.88153,-235.091 L 7.14888,-235.659 L 7.34291,-236.257 L 7.46057,-236.873 L 7.5,-237.5
 L 7.5,-242.5 L 7.46057,-243.127 L 7.34291,-243.743 L 7.14888,-244.341 L 6.88153,-244.909 L 6.54507,-245.439
 L 6.14484,-245.923 L 5.68712,-246.353 L 5.17912,-246.722 L 4.62889,-247.024 L 4.04507,-247.255 L 3.4369,-247.411
 L 2.81395,-247.49 L -2.81395,-247.49 L -3.4369,-247.411 L -4.04507,-247.255 L -4.62889,-247.024 L -5.17912,-246.722
 L -5.68712,-246.353 L -6.14484,-245.923 L -6.54507,-245.439 L -6.88153,-244.909 L -7.14888,-244.341 L -7.34291,-243.743
 L -7.46057,-243.127 L -7.5,-242.5 L -7.5,-237.5 L -7.46057,-236.873 L -7.34291,-236.257 L -7.14888,-235.659
 L -6.88153,-235.091 L -6.54507,-234.561 L -6.14484,-234.077 L -5.68712,-233.647 L -5.17912,-233.278 L -4.62889,-232.976
 L -4.04507,-232.745 L -3.4369,-232.589 L -2.81395,-232.51 L 2.81395,-232.51 z
M -2.38246,-235.645 L -2.64529,-235.678 L -2.9019,-235.744 L -3.14822,-235.841 L -3.38039,-235.969 L -3.59473,-236.125
 L -3.78784,-236.306 L -3.95673,-236.51 L -4.09868,-236.734 L -4.21149,-236.973 L -4.29335,-237.225 L -4.34299,-237.486
 L -4.35962,-237.75 L -4.35962,-242.25 L -4.34299,-242.514 L -4.29335,-242.775 L -4.21149,-243.027 L -4.09868,-243.266
 L -3.95673,-243.49 L -3.78784,-243.694 L -3.59473,-243.875 L -3.38039,-244.031 L -3.14822,-244.159 L -2.9019,-244.256
 L -2.64529,-244.322 L -2.38246,-244.355 L 2.38246,-244.355 L 2.64529,-244.322 L 2.9019,-244.256 L 3.14822,-244.159
 L 3.38039,-244.031 L 3.59473,-243.875 L 3.78784,-243.694 L 3.95673,-243.49 L 4.09868,-243.266 L 4.21149,-243.027
 L 4.29335,-242.775 L 4.34299,-242.514 L 4.35962,-242.25 L 4.35962,-237.75 L 4.34299,-237.486 L 4.29335,-237.225
 L 4.21149,-236.973 L 4.09868,-236.734 L 3.95673,-236.51 L 3.78784,-236.306 L 3.59473,-236.125 L 3.38039,-235.969
 L 3.14822,-235.841 L 2.9019,-235.744 L 2.64529,-235.678 L 2.38246,-235.645 z
" stroke="black" fill="lightgray" stroke-width="0.5"/>
</svg>
