<?xml version="1.0" standalone="no"?>
<!DOCTYPE svg PUBLIC "-//W3C//DTD SVG 1.1//EN" "http://www.w3.org/Graphics/SVG/1.1/DTD/svg11.dtd">
<svg width="210mm" height="1107mm" viewBox="-105 -1809 210 1107" xmlns="http://www.w3.org/2000/svg" version="1.1">
<title>OpenSCAD Model</title>
<path d="
M 100.937,-1539.09 L 101.545,-1539.24 L 102.129,-1539.48 L 102.679,-1539.78 L 103.187,-1540.15 L 103.645,-1540.58
 L 104.045,-1541.06 L 104.382,-1541.59 L 104.649,-1542.16 L 104.843,-1542.76 L 104.961,-1543.37 L 105,-1544
 L 105,-1804 L 104.961,-1804.63 L 104.843,-1805.24 L 104.649,-1805.84 L 104.382,-1806.41 L 104.045,-1806.94
 L 103.645,-1807.42 L 103.187,-1807.85 L 102.679,-1808.22 L 102.129,-1808.52 L 101.545,-1808.76 L 100.937,-1808.91
 L 100.314,-1808.99 L -100.314,-1808.99 L -100.937,-1808.91 L -101.545,-1808.76 L -102.129,-1808.52 L -102.679,-1808.22
 L -103.187,-1807.85 L -103.645,-1807.42 L -104.045,-1806.94 L -104.382,-1806.41 L -104.649,-1805.84 L -104.843,-1805.24
 L -104.961,-1804.63 L -105,-1804 L -105,-1544 L -104.961,-1543.37 L -104.843,-1542.76 L -104.649,-1542.16
 L -104.382,-1541.59 L -104.045,-1541.06 L -103.645,-1540.58 L -103.187,-1540.15 L -102.679,-1539.78 L -102.129,-1539.48
 L -101.545,-1539.24 L -100.937,-1539.09 L -100.314,-1539.01 L 100.314,-1539.01 z
M -99.7512,-1540.51 L -100.25,-1540.57 L -100.736,-1540.7 L -101.203,-1540.88 L -101.643,-1541.12 L -102.05,-1541.42
 L -102.416,-1541.76 L -102.736,-1542.15 L -103.005,-1542.57 L -103.219,-1543.03 L -103.374,-1543.51 L -103.468,-1544
 L -103.5,-1544.5 L -103.5,-1803.5 L -103.468,-1804 L -103.374,-1804.49 L -103.219,-1804.97 L -103.005,-1805.43
 L -102.736,-1805.85 L -102.416,-1806.24 L -102.05,-1806.58 L -101.643,-1806.88 L -101.203,-1807.12 L -100.736,-1807.3
 L -100.25,-1807.43 L -99.7512,-1807.49 L 99.7512,-1807.49 L 100.25,-1807.43 L 100.736,-1807.3 L 101.203,-1807.12
 L 101.643,-1806.88 L 102.05,-1806.58 L 102.416,-1806.24 L 102.736,-1805.85 L 103.005,-1805.43 L 103.219,-1804.97
 L 103.374,-1804.49 L 103.468,-1804 L 103.5,-1803.5 L 103.5,-1544.5 L 103.468,-1544 L 103.374,-1543.51
 L 103.219,-1543.03 L 103.005,-1542.57 L 102.736,-1542.15 L 102.416,-1541.76 L 102.05,-1541.42 L 101.643,-1541.12
 L 101.203,-1540.88 L 100.736,-1540.7 L 100.25,-1540.57 L 99.7512,-1540.51 z
M 100.937,-1260.09 L 101.545,-1260.24 L 102.129,-1260.48 L 102.679,-1260.78 L 103.187,-1261.15 L 103.645,-1261.58
 L 104.045,-1262.06 L 104.382,-1262.59 L 104.649,-1263.16 L 104.843,-1263.76 L 104.961,-1264.37 L 105,-1265
 L 105,-1525 L 104.961,-1525.63 L 104.843,-1526.24 L 104.649,-1526.84 L 104.382,-1527.41 L 104.045,-1527.94
 L 103.645,-1528.42 L 103.187,-1528.85 L 102.679,-1529.22 L 102.129,-1529.52 L 101.545,-1529.76 L 100.937,-1529.91
 L 100.314,-1529.99 L -100.314,-1529.99 L -100.937,-1529.91 L -101.545,-1529.76 L -102.129,-1529.52 L -102.679,-1529.22
 L -103.187,-1528.85 L -103.645,-1528.42 L -104.045,-1527.94 L -104.382,-1527.41 L -104.649,-1526.84 L -104.843,-1526.24
 L -104.961,-1525.63 L -105,-1525 L -105,-1265 L -104.961,-1264.37 L -104.843,-1263.76 L -104.649,-1263.16
 L -104.382,-1262.59 L -104.045,-1262.06 L -103.645,-1261.58 L -103.187,-1261.15 L -102.679,-1260.78 L -102.129,-1260.48
 L -101.545,-1260.24 L -100.937,-1260.09 L -100.314,-1260.01 L 100.314,-1260.01 z
M -99.7432,-1261.64 L -100.226,-1261.7 L -100.697,-1261.82 L -101.149,-1262 L -101.575,-1262.23 L -101.969,-1262.52
 L -102.323,-1262.85 L -102.633,-1263.22 L -102.894,-1263.63 L -103.101,-1264.07 L -103.251,-1264.54 L -103.342,-1265.01
 L -103.373,-1265.5 L -103.373,-1524.5 L -103.342,-1524.99 L -103.251,-1525.46 L -103.101,-1525.93 L -102.894,-1526.37
 L -102.633,-1526.78 L -102.323,-1527.15 L -101.969,-1527.48 L -101.575,-1527.77 L -101.149,-1528 L -100.697,-1528.18
 L -100.226,-1528.3 L -99.7432,-1528.36 L 99.7432,-1528.36 L 100.226,-1528.3 L 100.697,-1528.18 L 101.149,-1528
 L 101.575,-1527.77 L 101.969,-1527.48 L 102.323,-1527.15 L 102.633,-1526.78 L 102.894,-1526.37 L 103.101,-1525.93
 L 103.251,-1525.46 L 103.342,-1524.99 L 103.373,-1524.5 L 103.373,-1265.5 L 103.342,-1265.01 L 103.251,-1264.54
 L 103.101,-1264.07 L 102.894,-1263.63 L 102.633,-1263.22 L 102.323,-1262.85 L 101.969,-1262.52 L 101.575,-1262.23
 L 101.149,-1262 L 100.697,-1261.82 L 100.226,-1261.7 L 99.7432,-1261.64 z
M 100.937,-981.089 L 101.545,-981.245 L 102.129,-981.476 L 102.679,-981.778 L 103.187,-982.147 L 103.645,-982.577
 L 104.045,-983.061 L 104.382,-983.591 L 104.649,-984.159 L 104.843,-984.757 L 104.961,-985.373 L 105,-986
 L 105,-1246 L 104.961,-1246.63 L 104.843,-1247.24 L 104.649,-1247.84 L 104.382,-1248.41 L 104.045,-1248.94
 L 103.645,-1249.42 L 103.187,-1249.85 L 102.679,-1250.22 L 102.129,-1250.52 L 101.545,-1250.76 L 100.937,-1250.91
 L 100.314,-1250.99 L -100.314,-1250.99 L -100.937,-1250.91 L -101.545,-1250.76 L -102.129,-1250.52 L -102.679,-1250.22
 L -103.187,-1249.85 L -103.645,-1249.42 L -104.045,-1248.94 L -104.382,-1248.41 L -104.649,-1247.84 L -104.843,-1247.24
 L -104.961,-1246.63 L -105,-1246 L -105,-986 L -104.961,-985.373 L -104.843,-984.757 L -104.649,-984.159
 L -104.382,-983.591 L -104.045,-983.061 L -103.645,-982.577 L -103.187,-982.147 L -102.679,-981.778 L -102.129,-981.476
 L -101.545,-981.245 L -100.937,-981.089 L -100.314,-981.01 L 100.314,-981.01 z
M -97.6507,-1241.1 L -97.9497,-1241.14 L -98.2416,-1241.22 L -98.5219,-1241.33 L -98.786,-1241.47 L -99.0298,-1241.65
 L -99.2495,-1241.86 L -99.4416,-1242.09 L -99.6031,-1242.34 L -99.7315,-1242.62 L -99.8246,-1242.9 L -99.8811,-1243.2
 L -99.9,-1243.5 L -99.8811,-1243.8 L -99.8246,-1244.1 L -99.7315,-1244.38 L -99.6031,-1244.66 L -99.4416,-1244.91
 L -99.2495,-1245.14 L -99.0298,-1245.35 L -98.786,-1245.53 L -98.5219,-1245.67 L -98.2416,-1245.78 L -97.9497,-1245.86
 L -97.6507,-1245.9 L -97.3493,-1245.9 L -97.0503,-1245.86 L -96.7584,-1245.78 L -96.4781,-1245.67 L -96.214,-1245.53
 L -95.9702,-1245.35 L -95.7505,-1245.14 L -95.5583,-1244.91 L -95.3969,-1244.66 L -95.2685,-1244.38 L -95.1754,-1244.1
 L -95.1189,-1243.8 L -95.1,-1243.5 L -95.1189,-1243.2 L -95.1754,-1242.9 L -95.2685,-1242.62 L -95.3969,-1242.34
 L -95.5583,-1242.09 L -95.7505,-1241.86 L -95.9702,-1241.65 L -96.214,-1241.47 L -96.4781,-1241.33 L -96.7584,-1241.22
 L -97.0503,-1241.14 L -97.3493,-1241.1 z
M 97.3493,-1241.1 L 97.0503,-1241.14 L 96.7584,-1241.22 L 96.4781,-1241.33 L 96.214,-1241.47 L 95.9702,-1241.65
 L 95.7505,-1241.86 L 95.5583,-1242.09 L 95.3969,-1242.34 L 95.2685,-1242.62 L 95.1754,-1242.9 L 95.1189,-1243.2
 L 95.1,-1243.5 L 95.1189,-1243.8 L 95.1754,-1244.1 L 95.2685,-1244.38 L 95.3969,-1244.66 L 95.5583,-1244.91
 L 95.7505,-1245.14 L 95.9702,-1245.35 L 96.214,-1245.53 L 96.4781,-1245.67 L 96.7584,-1245.78 L 97.0503,-1245.86
 L 97.3493,-1245.9 L 97.6507,-1245.9 L 97.9497,-1245.86 L 98.2416,-1245.78 L 98.5219,-1245.67 L 98.786,-1245.53
 L 99.0298,-1245.35 L 99.2495,-1245.14 L 99.4416,-1244.91 L 99.6031,-1244.66 L 99.7315,-1244.38 L 99.8246,-1244.1
 L 99.8811,-1243.8 L 99.9,-1243.5 L 99.8811,-1243.2 L 99.8246,-1242.9 L 99.7315,-1242.62 L 99.6031,-1242.34
 L 99.4416,-1242.09 L 99.2495,-1241.86 L 99.0298,-1241.65 L 98.786,-1241.47 L 98.5219,-1241.33 L 98.2416,-1241.22
 L 97.9497,-1241.14 L 97.6507,-1241.1 z
M 97.3493,-986.105 L 97.0503,-986.143 L 96.7584,-986.217 L 96.4781,-986.328 L 96.214,-986.474 L 95.9702,-986.651
 L 95.7505,-986.857 L 95.5583,-987.089 L 95.3969,-987.344 L 95.2685,-987.617 L 95.1754,-987.903 L 95.1189,-988.199
 L 95.1,-988.5 L 95.1189,-988.801 L 95.1754,-989.097 L 95.2685,-989.383 L 95.3969,-989.656 L 95.5583,-989.911
 L 95.7505,-990.143 L 95.9702,-990.349 L 96.214,-990.526 L 96.4781,-990.672 L 96.7584,-990.783 L 97.0503,-990.857
 L 97.3493,-990.895 L 97.6507,-990.895 L 97.9497,-990.857 L 98.2416,-990.783 L 98.5219,-990.672 L 98.786,-990.526
 L 99.0298,-990.349 L 99.2495,-990.143 L 99.4416,-989.911 L 99.6031,-989.656 L 99.7315,-989.383 L 99.8246,-989.097
 L 99.8811,-988.801 L 99.9,-988.5 L 99.8811,-988.199 L 99.8246,-987.903 L 99.7315,-987.617 L 99.6031,-987.344
 L 99.4416,-987.089 L 99.2495,-986.857 L 99.0298,-986.651 L 98.786,-986.474 L 98.5219,-986.328 L 98.2416,-986.217
 L 97.9497,-986.143 L 97.6507,-986.105 z
M -97.6507,-986.105 L -97.9497,-986.143 L -98.2416,-986.217 L -98.5219,-986.328 L -98.786,-986.474 L -99.0298,-986.651
 L -99.2495,-986.857 L -99.4416,-987.089 L -99.6031,-987.344 L -99.7315,-987.617 L -99.8246,-987.903 L -99.8811,-988.199
 L -99.9,-988.5 L -99.8811,-988.801 L -99.8246,-989.097 L -99.7315,-989.383 L -99.6031,-989.656 L -99.4416,-989.911
 L -99.2495,-990.143 L -99.0298,-990.349 L -98.786,-990.526 L -98.5219,-990.672 L -98.2416,-990.783 L -97.9497,-990.857
 L -97.6507,-990.895 L -97.3493,-990.895 L -97.0503,-990.857 L -96.7584,-990.783 L -96.4781,-990.672 L -96.214,-990.526
 L -95.9702,-990.349 L -95.7505,-990.143 L -95.5583,-989.911 L -95.3969,-989.656 L -95.2685,-989.383 L -95.1754,-989.097
 L -95.1189,-988.801 L -95.1,-988.5 L -95.1189,-988.199 L -95.1754,-987.903 L -95.2685,-987.617 L -95.3969,-987.344
 L -95.5583,-987.089 L -95.7505,-986.857 L -95.9702,-986.651 L -96.214,-986.474 L -96.4781,-986.328 L -96.7584,-986.217
 L -97.0503,-986.143 L -97.3493,-986.105 z
M 100.937,-702.089 L 101.545,-702.245 L 102.129,-702.476 L 102.679,-702.778 L 103.187,-703.147 L 103.645,-703.577
 L 104.045,-704.061 L 104.382,-704.591 L 104.649,-705.159 L 104.843,-705.757 L 104.961,-706.373 L 105,-707
 L 105,-967 L 104.961,-967.627 L 104.843,-968.243 L 104.649,-968.841 L 104.382,-969.409 L 104.045,-969.939
 L 103.645,-970.423 L 103.187,-970.853 L 102.679,-971.222 L 102.129,-971.524 L 101.545,-971.755 L 100.937,-971.911
 L 100.314,-971.99 L -100.314,-971.99 L -100.937,-971.911 L -101.545,-971.755 L -102.129,-971.524 L -102.679,-971.222
 L -103.187,-970.853 L -103.645,-970.423 L -104.045,-969.939 L -104.382,-969.409 L -104.649,-968.841 L -104.843,-968.243
 L -104.961,-967.627 L -105,-967 L -105,-707 L -104.961,-706.373 L -104.843,-705.757 L -104.649,-705.159
 L -104.382,-704.591 L -104.045,-704.061 L -103.645,-703.577 L -103.187,-703.147 L -102.679,-702.778 L -102.129,-702.476
 L -101.545,-702.245 L -100.937,-702.089 L -100.314,-702.01 L 100.314,-702.01 z
M 97.387,-962.704 L 97.1627,-962.732 L 96.9438,-962.788 L 96.7336,-962.871 L 96.5355,-962.98 L 96.3526,-963.113
 L 96.1879,-963.268 L 96.0438,-963.442 L 95.9226,-963.633 L 95.8264,-963.837 L 95.7565,-964.052 L 95.7142,-964.274
 L 95.7,-964.5 L 95.7142,-964.726 L 95.7565,-964.948 L 95.8264,-965.163 L 95.9226,-965.367 L 96.0438,-965.558
 L 96.1879,-965.732 L 96.3526,-965.887 L 96.5355,-966.02 L 96.7336,-966.129 L 96.9438,-966.212 L 97.1627,-966.268
 L 97.387,-966.296 L 97.613,-966.296 L 97.8373,-966.268 L 98.0562,-966.212 L 98.2664,-966.129 L 98.4645,-966.02
 L 98.6474,-965.887 L 98.8121,-965.732 L 98.9562,-965.558 L 99.0773,-965.367 L 99.1736,-965.163 L 99.2434,-964.948
 L 99.2858,-964.726 L 99.3,-964.5 L 99.2858,-964.274 L 99.2434,-964.052 L 99.1736,-963.837 L 99.0773,-963.633
 L 98.9562,-963.442 L 98.8121,-963.268 L 98.6474,-963.113 L 98.4645,-962.98 L 98.2664,-962.871 L 98.0562,-962.788
 L 97.8373,-962.732 L 97.613,-962.704 z
M -97.613,-962.704 L -97.8373,-962.732 L -98.0562,-962.788 L -98.2664,-962.871 L -98.4645,-962.98 L -98.6474,-963.113
 L -98.8121,-963.268 L -98.9562,-963.442 L -99.0773,-963.633 L -99.1736,-963.837 L -99.2434,-964.052 L -99.2858,-964.274
 L -99.3,-964.5 L -99.2858,-964.726 L -99.2434,-964.948 L -99.1736,-965.163 L -99.0773,-965.367 L -98.9562,-965.558
 L -98.8121,-965.732 L -98.6474,-965.887 L -98.4645,-966.02 L -98.2664,-966.129 L -98.0562,-966.212 L -97.8373,-966.268
 L -97.613,-966.296 L -97.387,-966.296 L -97.1627,-966.268 L -96.9438,-966.212 L -96.7336,-966.129 L -96.5355,-966.02
 L -96.3526,-965.887 L -96.1879,-965.732 L -96.0438,-965.558 L -95.9226,-965.367 L -95.8264,-965.163 L -95.7565,-964.948
 L -95.7142,-964.726 L -95.7,-964.5 L -95.7142,-964.274 L -95.7565,-964.052 L -95.8264,-963.837 L -95.9226,-963.633
 L -96.0438,-963.442 L -96.1879,-963.268 L -96.3526,-963.113 L -96.5355,-962.98 L -96.7336,-962.871 L -96.9438,-962.788
 L -97.1627,-962.732 L -97.387,-962.704 z
M -97.613,-707.704 L -97.8373,-707.732 L -98.0562,-707.788 L -98.2664,-707.871 L -98.4645,-707.98 L -98.6474,-708.113
 L -98.8121,-708.268 L -98.9562,-708.442 L -99.0773,-708.633 L -99.1736,-708.837 L -99.2434,-709.052 L -99.2858,-709.274
 L -99.3,-709.5 L -99.2858,-709.726 L -99.2434,-709.948 L -99.1736,-710.163 L -99.0773,-710.367 L -98.9562,-710.558
 L -98.8121,-710.732 L -98.6474,-710.887 L -98.4645,-711.02 L -98.2664,-711.129 L -98.0562,-711.212 L -97.8373,-711.268
 L -97.613,-711.296 L -97.387,-711.296 L -97.1627,-711.268 L -96.9438,-711.212 L -96.7336,-711.129 L -96.5355,-711.02
 L -96.3526,-710.887 L -96.1879,-710.732 L -96.0438,-710.558 L -95.9226,-710.367 L -95.8264,-710.163 L -95.7565,-709.948
 L -95.7142,-709.726 L -95.7,-709.5 L -95.7142,-709.274 L -95.7565,-709.052 L -95.8264,-708.837 L -95.9226,-708.633
 L -96.0438,-708.442 L -96.1879,-708.268 L -96.3526,-708.113 L -96.5355,-707.98 L -96.7336,-707.871 L -96.9438,-707.788
 L -97.1627,-707.732 L -97.387,-707.704 z
M 97.387,-707.704 L 97.1627,-707.732 L 96.9438,-707.788 L 96.7336,-707.871 L 96.5355,-707.98 L 96.3526,-708.113
 L 96.1879,-708.268 L 96.0438,-708.442 L 95.9226,-708.633 L 95.8264,-708.837 L 95.7565,-709.052 L 95.7142,-709.274
 L 95.7,-709.5 L 95.7142,-709.726 L 95.7565,-709.948 L 95.8264,-710.163 L 95.9226,-710.367 L 96.0438,-710.558
 L 96.1879,-710.732 L 96.3526,-710.887 L 96.5355,-711.02 L 96.7336,-711.129 L 96.9438,-711.212 L 97.1627,-711.268
 L 97.387,-711.296 L 97.613,-711.296 L 97.8373,-711.268 L 98.0562,-711.212 L 98.2664,-711.129 L 98.4645,-711.02
 L 98.6474,-710.887 L 98.8121,-710.732 L 98.9562,-710.558 L 99.0773,-710.367 L 99.1736,-710.163 L 99.2434,-709.948
 L 99.2858,-709.726 L 99.3,-709.5 L 99.2858,-709.274 L 99.2434,-709.052 L 99.1736,-708.837 L 99.0773,-708.633
 L 98.9562,-708.442 L 98.8121,-708.268 L 98.6474,-708.113 L 98.4645,-707.98 L 98.2664,-707.871 L 98.0562,-707.788
 L 97.8373,-707.732 L 97.613,-707.704 z
" stroke="black" fill="lightgray" stroke-width="0.5"/>
</svg>
