  0
SECTION
  2
BLOCKS
  0
ENDSEC
  0
SECTION
  2
ENTITIES
  0
LINE
  8
0
 10
85.9369
 20
219.089
 11
86.5451
 21
219.245
  0
LINE
  8
0
 10
86.5451
 20
219.245
 11
87.1289
 21
219.476
  0
LINE
  8
0
 10
87.1289
 20
219.476
 11
87.6791
 21
219.778
  0
LINE
  8
0
 10
87.6791
 20
219.778
 11
88.1871
 21
220.147
  0
LINE
  8
0
 10
88.1871
 20
220.147
 11
88.6448
 21
220.577
  0
LINE
  8
0
 10
88.6448
 20
220.577
 11
89.0451
 21
221.061
  0
LINE
  8
0
 10
89.0451
 20
221.061
 11
89.3815
 21
221.591
  0
LINE
  8
0
 10
89.3815
 20
221.591
 11
89.6489
 21
222.159
  0
LINE
  8
0
 10
89.6489
 20
222.159
 11
89.8429
 21
222.757
  0
LINE
  8
0
 10
89.8429
 20
222.757
 11
89.9606
 21
223.373
  0
LINE
  8
0
 10
89.9606
 20
223.373
 11
90
 21
224
  0
LINE
  8
0
 10
90
 20
224
 11
90
 21
244
  0
LINE
  8
0
 10
90
 20
244
 11
89.9606
 21
244.627
  0
LINE
  8
0
 10
89.9606
 20
244.627
 11
89.8429
 21
245.243
  0
LINE
  8
0
 10
89.8429
 20
245.243
 11
89.6489
 21
245.841
  0
LINE
  8
0
 10
89.6489
 20
245.841
 11
89.3815
 21
246.409
  0
LINE
  8
0
 10
89.3815
 20
246.409
 11
89.0451
 21
246.939
  0
LINE
  8
0
 10
89.0451
 20
246.939
 11
88.6448
 21
247.423
  0
LINE
  8
0
 10
88.6448
 20
247.423
 11
88.1871
 21
247.853
  0
LINE
  8
0
 10
88.1871
 20
247.853
 11
87.6791
 21
248.222
  0
LINE
  8
0
 10
87.6791
 20
248.222
 11
87.1289
 21
248.524
  0
LINE
  8
0
 10
87.1289
 20
248.524
 11
86.5451
 21
248.755
  0
LINE
  8
0
 10
86.5451
 20
248.755
 11
85.9369
 21
248.911
  0
LINE
  8
0
 10
85.9369
 20
248.911
 11
85.3139
 21
248.99
  0
LINE
  8
0
 10
85.3139
 20
248.99
 11
-85.3139
 21
248.99
  0
LINE
  8
0
 10
-85.3139
 20
248.99
 11
-85.9369
 21
248.911
  0
LINE
  8
0
 10
-85.9369
 20
248.911
 11
-86.5451
 21
248.755
  0
LINE
  8
0
 10
-86.5451
 20
248.755
 11
-87
 21
248.575
  0
LINE
  8
0
 10
-87
 20
248.575
 11
-87
 21
248.615
  0
LINE
  8
0
 10
-87
 20
248.615
 11
-90
 21
248.615
  0
LINE
  8
0
 10
-90
 20
248.615
 11
-90
 21
219.385
  0
LINE
  8
0
 10
-90
 20
219.385
 11
-87
 21
219.385
  0
LINE
  8
0
 10
-87
 20
219.385
 11
-87
 21
219.425
  0
LINE
  8
0
 10
-87
 20
219.425
 11
-86.5451
 21
219.245
  0
LINE
  8
0
 10
-86.5451
 20
219.245
 11
-85.9369
 21
219.089
  0
LINE
  8
0
 10
-85.9369
 20
219.089
 11
-85.3139
 21
219.01
  0
LINE
  8
0
 10
-85.3139
 20
219.01
 11
85.3139
 21
219.01
  0
LINE
  8
0
 10
85.3139
 20
219.01
 11
85.9369
 21
219.089
  0
LINE
  8
0
 10
-84.7512
 20
220.508
 11
-85.2495
 21
220.571
  0
LINE
  8
0
 10
-85.2495
 20
220.571
 11
-85.7361
 21
220.696
  0
LINE
  8
0
 10
-85.7361
 20
220.696
 11
-86.2031
 21
220.881
  0
LINE
  8
0
 10
-86.2031
 20
220.881
 11
-86.6433
 21
221.123
  0
LINE
  8
0
 10
-86.6433
 20
221.123
 11
-87.0497
 21
221.418
  0
LINE
  8
0
 10
-87.0497
 20
221.418
 11
-87.4159
 21
221.762
  0
LINE
  8
0
 10
-87.4159
 20
221.762
 11
-87.7361
 21
222.149
  0
LINE
  8
0
 10
-87.7361
 20
222.149
 11
-88.0052
 21
222.573
  0
LINE
  8
0
 10
-88.0052
 20
222.573
 11
-88.2191
 21
223.028
  0
LINE
  8
0
 10
-88.2191
 20
223.028
 11
-88.3743
 21
223.505
  0
LINE
  8
0
 10
-88.3743
 20
223.505
 11
-88.4685
 21
223.999
  0
LINE
  8
0
 10
-88.4685
 20
223.999
 11
-88.5
 21
224.5
  0
LINE
  8
0
 10
-88.5
 20
224.5
 11
-88.5
 21
243.5
  0
LINE
  8
0
 10
-88.5
 20
243.5
 11
-88.4685
 21
244.001
  0
LINE
  8
0
 10
-88.4685
 20
244.001
 11
-88.3743
 21
244.495
  0
LINE
  8
0
 10
-88.3743
 20
244.495
 11
-88.2191
 21
244.972
  0
LINE
  8
0
 10
-88.2191
 20
244.972
 11
-88.0052
 21
245.427
  0
LINE
  8
0
 10
-88.0052
 20
245.427
 11
-87.7361
 21
245.851
  0
LINE
  8
0
 10
-87.7361
 20
245.851
 11
-87.4159
 21
246.238
  0
LINE
  8
0
 10
-87.4159
 20
246.238
 11
-87.0497
 21
246.582
  0
LINE
  8
0
 10
-87.0497
 20
246.582
 11
-86.6433
 21
246.877
  0
LINE
  8
0
 10
-86.6433
 20
246.877
 11
-86.2031
 21
247.119
  0
LINE
  8
0
 10
-86.2031
 20
247.119
 11
-85.7361
 21
247.304
  0
LINE
  8
0
 10
-85.7361
 20
247.304
 11
-85.2495
 21
247.429
  0
LINE
  8
0
 10
-85.2495
 20
247.429
 11
-84.7512
 21
247.492
  0
LINE
  8
0
 10
-84.7512
 20
247.492
 11
84.7512
 21
247.492
  0
LINE
  8
0
 10
84.7512
 20
247.492
 11
85.2495
 21
247.429
  0
LINE
  8
0
 10
85.2495
 20
247.429
 11
85.7361
 21
247.304
  0
LINE
  8
0
 10
85.7361
 20
247.304
 11
86.2031
 21
247.119
  0
LINE
  8
0
 10
86.2031
 20
247.119
 11
86.6433
 21
246.877
  0
LINE
  8
0
 10
86.6433
 20
246.877
 11
87.0497
 21
246.582
  0
LINE
  8
0
 10
87.0497
 20
246.582
 11
87.4159
 21
246.238
  0
LINE
  8
0
 10
87.4159
 20
246.238
 11
87.7361
 21
245.851
  0
LINE
  8
0
 10
87.7361
 20
245.851
 11
88.0052
 21
245.427
  0
LINE
  8
0
 10
88.0052
 20
245.427
 11
88.2191
 21
244.972
  0
LINE
  8
0
 10
88.2191
 20
244.972
 11
88.3743
 21
244.495
  0
LINE
  8
0
 10
88.3743
 20
244.495
 11
88.4685
 21
244.001
  0
LINE
  8
0
 10
88.4685
 20
244.001
 11
88.5
 21
243.5
  0
LINE
  8
0
 10
88.5
 20
243.5
 11
88.5
 21
224.5
  0
LINE
  8
0
 10
88.5
 20
224.5
 11
88.4685
 21
223.999
  0
LINE
  8
0
 10
88.4685
 20
223.999
 11
88.3743
 21
223.505
  0
LINE
  8
0
 10
88.3743
 20
223.505
 11
88.2191
 21
223.028
  0
LINE
  8
0
 10
88.2191
 20
223.028
 11
88.0052
 21
222.573
  0
LINE
  8
0
 10
88.0052
 20
222.573
 11
87.7361
 21
222.149
  0
LINE
  8
0
 10
87.7361
 20
222.149
 11
87.4159
 21
221.762
  0
LINE
  8
0
 10
87.4159
 20
221.762
 11
87.0497
 21
221.418
  0
LINE
  8
0
 10
87.0497
 20
221.418
 11
86.6433
 21
221.123
  0
LINE
  8
0
 10
86.6433
 20
221.123
 11
86.2031
 21
220.881
  0
LINE
  8
0
 10
86.2031
 20
220.881
 11
85.7361
 21
220.696
  0
LINE
  8
0
 10
85.7361
 20
220.696
 11
85.2495
 21
220.571
  0
LINE
  8
0
 10
85.2495
 20
220.571
 11
84.7512
 21
220.508
  0
LINE
  8
0
 10
84.7512
 20
220.508
 11
-84.7512
 21
220.508
  0
LINE
  8
0
 10
85.9369
 20
180.089
 11
86.5451
 21
180.245
  0
LINE
  8
0
 10
86.5451
 20
180.245
 11
87.1289
 21
180.476
  0
LINE
  8
0
 10
87.1289
 20
180.476
 11
87.6791
 21
180.778
  0
LINE
  8
0
 10
87.6791
 20
180.778
 11
88.1871
 21
181.147
  0
LINE
  8
0
 10
88.1871
 20
181.147
 11
88.6448
 21
181.577
  0
LINE
  8
0
 10
88.6448
 20
181.577
 11
89.0451
 21
182.061
  0
LINE
  8
0
 10
89.0451
 20
182.061
 11
89.3815
 21
182.591
  0
LINE
  8
0
 10
89.3815
 20
182.591
 11
89.6489
 21
183.159
  0
LINE
  8
0
 10
89.6489
 20
183.159
 11
89.8429
 21
183.757
  0
LINE
  8
0
 10
89.8429
 20
183.757
 11
89.9606
 21
184.373
  0
LINE
  8
0
 10
89.9606
 20
184.373
 11
90
 21
185
  0
LINE
  8
0
 10
90
 20
185
 11
90
 21
205
  0
LINE
  8
0
 10
90
 20
205
 11
89.9606
 21
205.627
  0
LINE
  8
0
 10
89.9606
 20
205.627
 11
89.8429
 21
206.243
  0
LINE
  8
0
 10
89.8429
 20
206.243
 11
89.6489
 21
206.841
  0
LINE
  8
0
 10
89.6489
 20
206.841
 11
89.3815
 21
207.409
  0
LINE
  8
0
 10
89.3815
 20
207.409
 11
89.0451
 21
207.939
  0
LINE
  8
0
 10
89.0451
 20
207.939
 11
88.6448
 21
208.423
  0
LINE
  8
0
 10
88.6448
 20
208.423
 11
88.1871
 21
208.853
  0
LINE
  8
0
 10
88.1871
 20
208.853
 11
87.6791
 21
209.222
  0
LINE
  8
0
 10
87.6791
 20
209.222
 11
87.1289
 21
209.524
  0
LINE
  8
0
 10
87.1289
 20
209.524
 11
86.5451
 21
209.755
  0
LINE
  8
0
 10
86.5451
 20
209.755
 11
85.9369
 21
209.911
  0
LINE
  8
0
 10
85.9369
 20
209.911
 11
85.3139
 21
209.99
  0
LINE
  8
0
 10
85.3139
 20
209.99
 11
-85.3139
 21
209.99
  0
LINE
  8
0
 10
-85.3139
 20
209.99
 11
-85.9369
 21
209.911
  0
LINE
  8
0
 10
-85.9369
 20
209.911
 11
-86.5451
 21
209.755
  0
LINE
  8
0
 10
-86.5451
 20
209.755
 11
-87.1289
 21
209.524
  0
LINE
  8
0
 10
-87.1289
 20
209.524
 11
-87.6791
 21
209.222
  0
LINE
  8
0
 10
-87.6791
 20
209.222
 11
-88.1871
 21
208.853
  0
LINE
  8
0
 10
-88.1871
 20
208.853
 11
-88.6448
 21
208.423
  0
LINE
  8
0
 10
-88.6448
 20
208.423
 11
-89.0451
 21
207.939
  0
LINE
  8
0
 10
-89.0451
 20
207.939
 11
-89.3815
 21
207.409
  0
LINE
  8
0
 10
-89.3815
 20
207.409
 11
-89.6489
 21
206.841
  0
LINE
  8
0
 10
-89.6489
 20
206.841
 11
-89.8429
 21
206.243
  0
LINE
  8
0
 10
-89.8429
 20
206.243
 11
-89.9
 21
205.944
  0
LINE
  8
0
 10
-89.9
 20
205.944
 11
-90
 21
205.944
  0
LINE
  8
0
 10
-90
 20
205.944
 11
-90
 21
184.056
  0
LINE
  8
0
 10
-90
 20
184.056
 11
-89.9
 21
184.056
  0
LINE
  8
0
 10
-89.9
 20
184.056
 11
-89.8429
 21
183.757
  0
LINE
  8
0
 10
-89.8429
 20
183.757
 11
-89.6489
 21
183.159
  0
LINE
  8
0
 10
-89.6489
 20
183.159
 11
-89.3815
 21
182.591
  0
LINE
  8
0
 10
-89.3815
 20
182.591
 11
-89.0451
 21
182.061
  0
LINE
  8
0
 10
-89.0451
 20
182.061
 11
-88.6448
 21
181.577
  0
LINE
  8
0
 10
-88.6448
 20
181.577
 11
-88.1871
 21
181.147
  0
LINE
  8
0
 10
-88.1871
 20
181.147
 11
-87.6791
 21
180.778
  0
LINE
  8
0
 10
-87.6791
 20
180.778
 11
-87.1289
 21
180.476
  0
LINE
  8
0
 10
-87.1289
 20
180.476
 11
-86.5451
 21
180.245
  0
LINE
  8
0
 10
-86.5451
 20
180.245
 11
-85.9369
 21
180.089
  0
LINE
  8
0
 10
-85.9369
 20
180.089
 11
-85.3139
 21
180.01
  0
LINE
  8
0
 10
-85.3139
 20
180.01
 11
85.3139
 21
180.01
  0
LINE
  8
0
 10
85.3139
 20
180.01
 11
85.9369
 21
180.089
  0
LINE
  8
0
 10
-84.7432
 20
181.635
 11
-85.2256
 21
181.696
  0
LINE
  8
0
 10
-85.2256
 20
181.696
 11
-85.6967
 21
181.817
  0
LINE
  8
0
 10
-85.6967
 20
181.817
 11
-86.1489
 21
181.996
  0
LINE
  8
0
 10
-86.1489
 20
181.996
 11
-86.5751
 21
182.23
  0
LINE
  8
0
 10
-86.5751
 20
182.23
 11
-86.9685
 21
182.516
  0
LINE
  8
0
 10
-86.9685
 20
182.516
 11
-87.323
 21
182.849
  0
LINE
  8
0
 10
-87.323
 20
182.849
 11
-87.633
 21
183.224
  0
LINE
  8
0
 10
-87.633
 20
183.224
 11
-87.8936
 21
183.634
  0
LINE
  8
0
 10
-87.8936
 20
183.634
 11
-88.1007
 21
184.074
  0
LINE
  8
0
 10
-88.1007
 20
184.074
 11
-88.251
 21
184.537
  0
LINE
  8
0
 10
-88.251
 20
184.537
 11
-88.3421
 21
185.015
  0
LINE
  8
0
 10
-88.3421
 20
185.015
 11
-88.3726
 21
185.5
  0
LINE
  8
0
 10
-88.3726
 20
185.5
 11
-88.3726
 21
204.5
  0
LINE
  8
0
 10
-88.3726
 20
204.5
 11
-88.3421
 21
204.985
  0
LINE
  8
0
 10
-88.3421
 20
204.985
 11
-88.251
 21
205.463
  0
LINE
  8
0
 10
-88.251
 20
205.463
 11
-88.1007
 21
205.926
  0
LINE
  8
0
 10
-88.1007
 20
205.926
 11
-87.8936
 21
206.366
  0
LINE
  8
0
 10
-87.8936
 20
206.366
 11
-87.633
 21
206.776
  0
LINE
  8
0
 10
-87.633
 20
206.776
 11
-87.323
 21
207.151
  0
LINE
  8
0
 10
-87.323
 20
207.151
 11
-86.9685
 21
207.484
  0
LINE
  8
0
 10
-86.9685
 20
207.484
 11
-86.5751
 21
207.77
  0
LINE
  8
0
 10
-86.5751
 20
207.77
 11
-86.1489
 21
208.004
  0
LINE
  8
0
 10
-86.1489
 20
208.004
 11
-85.6967
 21
208.183
  0
LINE
  8
0
 10
-85.6967
 20
208.183
 11
-85.2256
 21
208.304
  0
LINE
  8
0
 10
-85.2256
 20
208.304
 11
-84.7432
 21
208.365
  0
LINE
  8
0
 10
-84.7432
 20
208.365
 11
84.7432
 21
208.365
  0
LINE
  8
0
 10
84.7432
 20
208.365
 11
85.2256
 21
208.304
  0
LINE
  8
0
 10
85.2256
 20
208.304
 11
85.6967
 21
208.183
  0
LINE
  8
0
 10
85.6967
 20
208.183
 11
86.1489
 21
208.004
  0
LINE
  8
0
 10
86.1489
 20
208.004
 11
86.5751
 21
207.77
  0
LINE
  8
0
 10
86.5751
 20
207.77
 11
86.9685
 21
207.484
  0
LINE
  8
0
 10
86.9685
 20
207.484
 11
87.323
 21
207.151
  0
LINE
  8
0
 10
87.323
 20
207.151
 11
87.633
 21
206.776
  0
LINE
  8
0
 10
87.633
 20
206.776
 11
87.8936
 21
206.366
  0
LINE
  8
0
 10
87.8936
 20
206.366
 11
88.1007
 21
205.926
  0
LINE
  8
0
 10
88.1007
 20
205.926
 11
88.251
 21
205.463
  0
LINE
  8
0
 10
88.251
 20
205.463
 11
88.3421
 21
204.985
  0
LINE
  8
0
 10
88.3421
 20
204.985
 11
88.3726
 21
204.5
  0
LINE
  8
0
 10
88.3726
 20
204.5
 11
88.3726
 21
185.5
  0
LINE
  8
0
 10
88.3726
 20
185.5
 11
88.3421
 21
185.015
  0
LINE
  8
0
 10
88.3421
 20
185.015
 11
88.251
 21
184.537
  0
LINE
  8
0
 10
88.251
 20
184.537
 11
88.1007
 21
184.074
  0
LINE
  8
0
 10
88.1007
 20
184.074
 11
87.8936
 21
183.634
  0
LINE
  8
0
 10
87.8936
 20
183.634
 11
87.633
 21
183.224
  0
LINE
  8
0
 10
87.633
 20
183.224
 11
87.323
 21
182.849
  0
LINE
  8
0
 10
87.323
 20
182.849
 11
86.9685
 21
182.516
  0
LINE
  8
0
 10
86.9685
 20
182.516
 11
86.5751
 21
182.23
  0
LINE
  8
0
 10
86.5751
 20
182.23
 11
86.1489
 21
181.996
  0
LINE
  8
0
 10
86.1489
 20
181.996
 11
85.6967
 21
181.817
  0
LINE
  8
0
 10
85.6967
 20
181.817
 11
85.2256
 21
181.696
  0
LINE
  8
0
 10
85.2256
 20
181.696
 11
84.7432
 21
181.635
  0
LINE
  8
0
 10
84.7432
 20
181.635
 11
-84.7432
 21
181.635
  0
LINE
  8
0
 10
85.9369
 20
141.089
 11
86.5451
 21
141.245
  0
LINE
  8
0
 10
86.5451
 20
141.245
 11
87.1289
 21
141.476
  0
LINE
  8
0
 10
87.1289
 20
141.476
 11
87.6791
 21
141.778
  0
LINE
  8
0
 10
87.6791
 20
141.778
 11
88.1871
 21
142.147
  0
LINE
  8
0
 10
88.1871
 20
142.147
 11
88.6448
 21
142.577
  0
LINE
  8
0
 10
88.6448
 20
142.577
 11
89.0451
 21
143.061
  0
LINE
  8
0
 10
89.0451
 20
143.061
 11
89.3815
 21
143.591
  0
LINE
  8
0
 10
89.3815
 20
143.591
 11
89.6489
 21
144.159
  0
LINE
  8
0
 10
89.6489
 20
144.159
 11
89.8429
 21
144.757
  0
LINE
  8
0
 10
89.8429
 20
144.757
 11
89.9606
 21
145.373
  0
LINE
  8
0
 10
89.9606
 20
145.373
 11
90
 21
146
  0
LINE
  8
0
 10
90
 20
146
 11
90
 21
166
  0
LINE
  8
0
 10
90
 20
166
 11
89.9606
 21
166.627
  0
LINE
  8
0
 10
89.9606
 20
166.627
 11
89.8429
 21
167.243
  0
LINE
  8
0
 10
89.8429
 20
167.243
 11
89.6489
 21
167.841
  0
LINE
  8
0
 10
89.6489
 20
167.841
 11
89.3815
 21
168.409
  0
LINE
  8
0
 10
89.3815
 20
168.409
 11
89.0451
 21
168.939
  0
LINE
  8
0
 10
89.0451
 20
168.939
 11
88.6448
 21
169.423
  0
LINE
  8
0
 10
88.6448
 20
169.423
 11
88.1871
 21
169.853
  0
LINE
  8
0
 10
88.1871
 20
169.853
 11
87.6791
 21
170.222
  0
LINE
  8
0
 10
87.6791
 20
170.222
 11
87.1289
 21
170.524
  0
LINE
  8
0
 10
87.1289
 20
170.524
 11
86.5451
 21
170.755
  0
LINE
  8
0
 10
86.5451
 20
170.755
 11
85.9369
 21
170.911
  0
LINE
  8
0
 10
85.9369
 20
170.911
 11
85.3139
 21
170.99
  0
LINE
  8
0
 10
85.3139
 20
170.99
 11
-85.3139
 21
170.99
  0
LINE
  8
0
 10
-85.3139
 20
170.99
 11
-85.9369
 21
170.911
  0
LINE
  8
0
 10
-85.9369
 20
170.911
 11
-86.5451
 21
170.755
  0
LINE
  8
0
 10
-86.5451
 20
170.755
 11
-87.1289
 21
170.524
  0
LINE
  8
0
 10
-87.1289
 20
170.524
 11
-87.6791
 21
170.222
  0
LINE
  8
0
 10
-87.6791
 20
170.222
 11
-88.1871
 21
169.853
  0
LINE
  8
0
 10
-88.1871
 20
169.853
 11
-88.6448
 21
169.423
  0
LINE
  8
0
 10
-88.6448
 20
169.423
 11
-89.0451
 21
168.939
  0
LINE
  8
0
 10
-89.0451
 20
168.939
 11
-89.3815
 21
168.409
  0
LINE
  8
0
 10
-89.3815
 20
168.409
 11
-89.6489
 21
167.841
  0
LINE
  8
0
 10
-89.6489
 20
167.841
 11
-89.8429
 21
167.243
  0
LINE
  8
0
 10
-89.8429
 20
167.243
 11
-89.9606
 21
166.627
  0
LINE
  8
0
 10
-89.9606
 20
166.627
 11
-90
 21
166
  0
LINE
  8
0
 10
-90
 20
166
 11
-90
 21
146
  0
LINE
  8
0
 10
-90
 20
146
 11
-89.9606
 21
145.373
  0
LINE
  8
0
 10
-89.9606
 20
145.373
 11
-89.8429
 21
144.757
  0
LINE
  8
0
 10
-89.8429
 20
144.757
 11
-89.6489
 21
144.159
  0
LINE
  8
0
 10
-89.6489
 20
144.159
 11
-89.3815
 21
143.591
  0
LINE
  8
0
 10
-89.3815
 20
143.591
 11
-89.0451
 21
143.061
  0
LINE
  8
0
 10
-89.0451
 20
143.061
 11
-88.6448
 21
142.577
  0
LINE
  8
0
 10
-88.6448
 20
142.577
 11
-88.1871
 21
142.147
  0
LINE
  8
0
 10
-88.1871
 20
142.147
 11
-87.6791
 21
141.778
  0
LINE
  8
0
 10
-87.6791
 20
141.778
 11
-87.1289
 21
141.476
  0
LINE
  8
0
 10
-87.1289
 20
141.476
 11
-86.5451
 21
141.245
  0
LINE
  8
0
 10
-86.5451
 20
141.245
 11
-85.9369
 21
141.089
  0
LINE
  8
0
 10
-85.9369
 20
141.089
 11
-85.3139
 21
141.01
  0
LINE
  8
0
 10
-85.3139
 20
141.01
 11
85.3139
 21
141.01
  0
LINE
  8
0
 10
85.3139
 20
141.01
 11
85.9369
 21
141.089
  0
LINE
  8
0
 10
-82.6507
 20
161.105
 11
-82.9497
 21
161.143
  0
LINE
  8
0
 10
-82.9497
 20
161.143
 11
-83.2416
 21
161.217
  0
LINE
  8
0
 10
-83.2416
 20
161.217
 11
-83.5219
 21
161.328
  0
LINE
  8
0
 10
-83.5219
 20
161.328
 11
-83.786
 21
161.474
  0
LINE
  8
0
 10
-83.786
 20
161.474
 11
-84.0298
 21
161.651
  0
LINE
  8
0
 10
-84.0298
 20
161.651
 11
-84.2495
 21
161.857
  0
LINE
  8
0
 10
-84.2495
 20
161.857
 11
-84.4416
 21
162.089
  0
LINE
  8
0
 10
-84.4416
 20
162.089
 11
-84.6031
 21
162.344
  0
LINE
  8
0
 10
-84.6031
 20
162.344
 11
-84.7315
 21
162.617
  0
LINE
  8
0
 10
-84.7315
 20
162.617
 11
-84.8246
 21
162.903
  0
LINE
  8
0
 10
-84.8246
 20
162.903
 11
-84.8811
 21
163.199
  0
LINE
  8
0
 10
-84.8811
 20
163.199
 11
-84.9
 21
163.5
  0
LINE
  8
0
 10
-84.9
 20
163.5
 11
-84.8811
 21
163.801
  0
LINE
  8
0
 10
-84.8811
 20
163.801
 11
-84.8246
 21
164.097
  0
LINE
  8
0
 10
-84.8246
 20
164.097
 11
-84.7315
 21
164.383
  0
LINE
  8
0
 10
-84.7315
 20
164.383
 11
-84.6031
 21
164.656
  0
LINE
  8
0
 10
-84.6031
 20
164.656
 11
-84.4416
 21
164.911
  0
LINE
  8
0
 10
-84.4416
 20
164.911
 11
-84.2495
 21
165.143
  0
LINE
  8
0
 10
-84.2495
 20
165.143
 11
-84.0298
 21
165.349
  0
LINE
  8
0
 10
-84.0298
 20
165.349
 11
-83.786
 21
165.526
  0
LINE
  8
0
 10
-83.786
 20
165.526
 11
-83.5219
 21
165.672
  0
LINE
  8
0
 10
-83.5219
 20
165.672
 11
-83.2416
 21
165.783
  0
LINE
  8
0
 10
-83.2416
 20
165.783
 11
-82.9497
 21
165.857
  0
LINE
  8
0
 10
-82.9497
 20
165.857
 11
-82.6507
 21
165.895
  0
LINE
  8
0
 10
-82.6507
 20
165.895
 11
-82.3493
 21
165.895
  0
LINE
  8
0
 10
-82.3493
 20
165.895
 11
-82.0503
 21
165.857
  0
LINE
  8
0
 10
-82.0503
 20
165.857
 11
-81.7584
 21
165.783
  0
LINE
  8
0
 10
-81.7584
 20
165.783
 11
-81.4781
 21
165.672
  0
LINE
  8
0
 10
-81.4781
 20
165.672
 11
-81.214
 21
165.526
  0
LINE
  8
0
 10
-81.214
 20
165.526
 11
-80.9702
 21
165.349
  0
LINE
  8
0
 10
-80.9702
 20
165.349
 11
-80.7505
 21
165.143
  0
LINE
  8
0
 10
-80.7505
 20
165.143
 11
-80.5583
 21
164.911
  0
LINE
  8
0
 10
-80.5583
 20
164.911
 11
-80.3969
 21
164.656
  0
LINE
  8
0
 10
-80.3969
 20
164.656
 11
-80.2685
 21
164.383
  0
LINE
  8
0
 10
-80.2685
 20
164.383
 11
-80.1754
 21
164.097
  0
LINE
  8
0
 10
-80.1754
 20
164.097
 11
-80.1189
 21
163.801
  0
LINE
  8
0
 10
-80.1189
 20
163.801
 11
-80.1
 21
163.5
  0
LINE
  8
0
 10
-80.1
 20
163.5
 11
-80.1189
 21
163.199
  0
LINE
  8
0
 10
-80.1189
 20
163.199
 11
-80.1754
 21
162.903
  0
LINE
  8
0
 10
-80.1754
 20
162.903
 11
-80.2685
 21
162.617
  0
LINE
  8
0
 10
-80.2685
 20
162.617
 11
-80.3969
 21
162.344
  0
LINE
  8
0
 10
-80.3969
 20
162.344
 11
-80.5583
 21
162.089
  0
LINE
  8
0
 10
-80.5583
 20
162.089
 11
-80.7505
 21
161.857
  0
LINE
  8
0
 10
-80.7505
 20
161.857
 11
-80.9702
 21
161.651
  0
LINE
  8
0
 10
-80.9702
 20
161.651
 11
-81.214
 21
161.474
  0
LINE
  8
0
 10
-81.214
 20
161.474
 11
-81.4781
 21
161.328
  0
LINE
  8
0
 10
-81.4781
 20
161.328
 11
-81.7584
 21
161.217
  0
LINE
  8
0
 10
-81.7584
 20
161.217
 11
-82.0503
 21
161.143
  0
LINE
  8
0
 10
-82.0503
 20
161.143
 11
-82.3493
 21
161.105
  0
LINE
  8
0
 10
-82.3493
 20
161.105
 11
-82.6507
 21
161.105
  0
LINE
  8
0
 10
82.3493
 20
161.105
 11
82.0503
 21
161.143
  0
LINE
  8
0
 10
82.0503
 20
161.143
 11
81.7584
 21
161.217
  0
LINE
  8
0
 10
81.7584
 20
161.217
 11
81.4781
 21
161.328
  0
LINE
  8
0
 10
81.4781
 20
161.328
 11
81.214
 21
161.474
  0
LINE
  8
0
 10
81.214
 20
161.474
 11
80.9702
 21
161.651
  0
LINE
  8
0
 10
80.9702
 20
161.651
 11
80.7505
 21
161.857
  0
LINE
  8
0
 10
80.7505
 20
161.857
 11
80.5583
 21
162.089
  0
LINE
  8
0
 10
80.5583
 20
162.089
 11
80.3969
 21
162.344
  0
LINE
  8
0
 10
80.3969
 20
162.344
 11
80.2685
 21
162.617
  0
LINE
  8
0
 10
80.2685
 20
162.617
 11
80.1754
 21
162.903
  0
LINE
  8
0
 10
80.1754
 20
162.903
 11
80.1189
 21
163.199
  0
LINE
  8
0
 10
80.1189
 20
163.199
 11
80.1
 21
163.5
  0
LINE
  8
0
 10
80.1
 20
163.5
 11
80.1189
 21
163.801
  0
LINE
  8
0
 10
80.1189
 20
163.801
 11
80.1754
 21
164.097
  0
LINE
  8
0
 10
80.1754
 20
164.097
 11
80.2685
 21
164.383
  0
LINE
  8
0
 10
80.2685
 20
164.383
 11
80.3969
 21
164.656
  0
LINE
  8
0
 10
80.3969
 20
164.656
 11
80.5583
 21
164.911
  0
LINE
  8
0
 10
80.5583
 20
164.911
 11
80.7505
 21
165.143
  0
LINE
  8
0
 10
80.7505
 20
165.143
 11
80.9702
 21
165.349
  0
LINE
  8
0
 10
80.9702
 20
165.349
 11
81.214
 21
165.526
  0
LINE
  8
0
 10
81.214
 20
165.526
 11
81.4781
 21
165.672
  0
LINE
  8
0
 10
81.4781
 20
165.672
 11
81.7584
 21
165.783
  0
LINE
  8
0
 10
81.7584
 20
165.783
 11
82.0503
 21
165.857
  0
LINE
  8
0
 10
82.0503
 20
165.857
 11
82.3493
 21
165.895
  0
LINE
  8
0
 10
82.3493
 20
165.895
 11
82.6507
 21
165.895
  0
LINE
  8
0
 10
82.6507
 20
165.895
 11
82.9497
 21
165.857
  0
LINE
  8
0
 10
82.9497
 20
165.857
 11
83.2416
 21
165.783
  0
LINE
  8
0
 10
83.2416
 20
165.783
 11
83.5219
 21
165.672
  0
LINE
  8
0
 10
83.5219
 20
165.672
 11
83.786
 21
165.526
  0
LINE
  8
0
 10
83.786
 20
165.526
 11
84.0298
 21
165.349
  0
LINE
  8
0
 10
84.0298
 20
165.349
 11
84.2495
 21
165.143
  0
LINE
  8
0
 10
84.2495
 20
165.143
 11
84.4416
 21
164.911
  0
LINE
  8
0
 10
84.4416
 20
164.911
 11
84.6031
 21
164.656
  0
LINE
  8
0
 10
84.6031
 20
164.656
 11
84.7315
 21
164.383
  0
LINE
  8
0
 10
84.7315
 20
164.383
 11
84.8246
 21
164.097
  0
LINE
  8
0
 10
84.8246
 20
164.097
 11
84.8811
 21
163.801
  0
LINE
  8
0
 10
84.8811
 20
163.801
 11
84.9
 21
163.5
  0
LINE
  8
0
 10
84.9
 20
163.5
 11
84.8811
 21
163.199
  0
LINE
  8
0
 10
84.8811
 20
163.199
 11
84.8246
 21
162.903
  0
LINE
  8
0
 10
84.8246
 20
162.903
 11
84.7315
 21
162.617
  0
LINE
  8
0
 10
84.7315
 20
162.617
 11
84.6031
 21
162.344
  0
LINE
  8
0
 10
84.6031
 20
162.344
 11
84.4416
 21
162.089
  0
LINE
  8
0
 10
84.4416
 20
162.089
 11
84.2495
 21
161.857
  0
LINE
  8
0
 10
84.2495
 20
161.857
 11
84.0298
 21
161.651
  0
LINE
  8
0
 10
84.0298
 20
161.651
 11
83.786
 21
161.474
  0
LINE
  8
0
 10
83.786
 20
161.474
 11
83.5219
 21
161.328
  0
LINE
  8
0
 10
83.5219
 20
161.328
 11
83.2416
 21
161.217
  0
LINE
  8
0
 10
83.2416
 20
161.217
 11
82.9497
 21
161.143
  0
LINE
  8
0
 10
82.9497
 20
161.143
 11
82.6507
 21
161.105
  0
LINE
  8
0
 10
82.6507
 20
161.105
 11
82.3493
 21
161.105
  0
LINE
  8
0
 10
82.3493
 20
146.105
 11
82.0503
 21
146.143
  0
LINE
  8
0
 10
82.0503
 20
146.143
 11
81.7584
 21
146.217
  0
LINE
  8
0
 10
81.7584
 20
146.217
 11
81.4781
 21
146.328
  0
LINE
  8
0
 10
81.4781
 20
146.328
 11
81.214
 21
146.474
  0
LINE
  8
0
 10
81.214
 20
146.474
 11
80.9702
 21
146.651
  0
LINE
  8
0
 10
80.9702
 20
146.651
 11
80.7505
 21
146.857
  0
LINE
  8
0
 10
80.7505
 20
146.857
 11
80.5583
 21
147.089
  0
LINE
  8
0
 10
80.5583
 20
147.089
 11
80.3969
 21
147.344
  0
LINE
  8
0
 10
80.3969
 20
147.344
 11
80.2685
 21
147.617
  0
LINE
  8
0
 10
80.2685
 20
147.617
 11
80.1754
 21
147.903
  0
LINE
  8
0
 10
80.1754
 20
147.903
 11
80.1189
 21
148.199
  0
LINE
  8
0
 10
80.1189
 20
148.199
 11
80.1
 21
148.5
  0
LINE
  8
0
 10
80.1
 20
148.5
 11
80.1189
 21
148.801
  0
LINE
  8
0
 10
80.1189
 20
148.801
 11
80.1754
 21
149.097
  0
LINE
  8
0
 10
80.1754
 20
149.097
 11
80.2685
 21
149.383
  0
LINE
  8
0
 10
80.2685
 20
149.383
 11
80.3969
 21
149.656
  0
LINE
  8
0
 10
80.3969
 20
149.656
 11
80.5583
 21
149.911
  0
LINE
  8
0
 10
80.5583
 20
149.911
 11
80.7505
 21
150.143
  0
LINE
  8
0
 10
80.7505
 20
150.143
 11
80.9702
 21
150.349
  0
LINE
  8
0
 10
80.9702
 20
150.349
 11
81.214
 21
150.526
  0
LINE
  8
0
 10
81.214
 20
150.526
 11
81.4781
 21
150.672
  0
LINE
  8
0
 10
81.4781
 20
150.672
 11
81.7584
 21
150.783
  0
LINE
  8
0
 10
81.7584
 20
150.783
 11
82.0503
 21
150.857
  0
LINE
  8
0
 10
82.0503
 20
150.857
 11
82.3493
 21
150.895
  0
LINE
  8
0
 10
82.3493
 20
150.895
 11
82.6507
 21
150.895
  0
LINE
  8
0
 10
82.6507
 20
150.895
 11
82.9497
 21
150.857
  0
LINE
  8
0
 10
82.9497
 20
150.857
 11
83.2416
 21
150.783
  0
LINE
  8
0
 10
83.2416
 20
150.783
 11
83.5219
 21
150.672
  0
LINE
  8
0
 10
83.5219
 20
150.672
 11
83.786
 21
150.526
  0
LINE
  8
0
 10
83.786
 20
150.526
 11
84.0298
 21
150.349
  0
LINE
  8
0
 10
84.0298
 20
150.349
 11
84.2495
 21
150.143
  0
LINE
  8
0
 10
84.2495
 20
150.143
 11
84.4416
 21
149.911
  0
LINE
  8
0
 10
84.4416
 20
149.911
 11
84.6031
 21
149.656
  0
LINE
  8
0
 10
84.6031
 20
149.656
 11
84.7315
 21
149.383
  0
LINE
  8
0
 10
84.7315
 20
149.383
 11
84.8246
 21
149.097
  0
LINE
  8
0
 10
84.8246
 20
149.097
 11
84.8811
 21
148.801
  0
LINE
  8
0
 10
84.8811
 20
148.801
 11
84.9
 21
148.5
  0
LINE
  8
0
 10
84.9
 20
148.5
 11
84.8811
 21
148.199
  0
LINE
  8
0
 10
84.8811
 20
148.199
 11
84.8246
 21
147.903
  0
LINE
  8
0
 10
84.8246
 20
147.903
 11
84.7315
 21
147.617
  0
LINE
  8
0
 10
84.7315
 20
147.617
 11
84.6031
 21
147.344
  0
LINE
  8
0
 10
84.6031
 20
147.344
 11
84.4416
 21
147.089
  0
LINE
  8
0
 10
84.4416
 20
147.089
 11
84.2495
 21
146.857
  0
LINE
  8
0
 10
84.2495
 20
146.857
 11
84.0298
 21
146.651
  0
LINE
  8
0
 10
84.0298
 20
146.651
 11
83.786
 21
146.474
  0
LINE
  8
0
 10
83.786
 20
146.474
 11
83.5219
 21
146.328
  0
LINE
  8
0
 10
83.5219
 20
146.328
 11
83.2416
 21
146.217
  0
LINE
  8
0
 10
83.2416
 20
146.217
 11
82.9497
 21
146.143
  0
LINE
  8
0
 10
82.9497
 20
146.143
 11
82.6507
 21
146.105
  0
LINE
  8
0
 10
82.6507
 20
146.105
 11
82.3493
 21
146.105
  0
LINE
  8
0
 10
-82.6507
 20
146.105
 11
-82.9497
 21
146.143
  0
LINE
  8
0
 10
-82.9497
 20
146.143
 11
-83.2416
 21
146.217
  0
LINE
  8
0
 10
-83.2416
 20
146.217
 11
-83.5219
 21
146.328
  0
LINE
  8
0
 10
-83.5219
 20
146.328
 11
-83.786
 21
146.474
  0
LINE
  8
0
 10
-83.786
 20
146.474
 11
-84.0298
 21
146.651
  0
LINE
  8
0
 10
-84.0298
 20
146.651
 11
-84.2495
 21
146.857
  0
LINE
  8
0
 10
-84.2495
 20
146.857
 11
-84.4416
 21
147.089
  0
LINE
  8
0
 10
-84.4416
 20
147.089
 11
-84.6031
 21
147.344
  0
LINE
  8
0
 10
-84.6031
 20
147.344
 11
-84.7315
 21
147.617
  0
LINE
  8
0
 10
-84.7315
 20
147.617
 11
-84.8246
 21
147.903
  0
LINE
  8
0
 10
-84.8246
 20
147.903
 11
-84.8811
 21
148.199
  0
LINE
  8
0
 10
-84.8811
 20
148.199
 11
-84.9
 21
148.5
  0
LINE
  8
0
 10
-84.9
 20
148.5
 11
-84.8811
 21
148.801
  0
LINE
  8
0
 10
-84.8811
 20
148.801
 11
-84.8246
 21
149.097
  0
LINE
  8
0
 10
-84.8246
 20
149.097
 11
-84.7315
 21
149.383
  0
LINE
  8
0
 10
-84.7315
 20
149.383
 11
-84.6031
 21
149.656
  0
LINE
  8
0
 10
-84.6031
 20
149.656
 11
-84.4416
 21
149.911
  0
LINE
  8
0
 10
-84.4416
 20
149.911
 11
-84.2495
 21
150.143
  0
LINE
  8
0
 10
-84.2495
 20
150.143
 11
-84.0298
 21
150.349
  0
LINE
  8
0
 10
-84.0298
 20
150.349
 11
-83.786
 21
150.526
  0
LINE
  8
0
 10
-83.786
 20
150.526
 11
-83.5219
 21
150.672
  0
LINE
  8
0
 10
-83.5219
 20
150.672
 11
-83.2416
 21
150.783
  0
LINE
  8
0
 10
-83.2416
 20
150.783
 11
-82.9497
 21
150.857
  0
LINE
  8
0
 10
-82.9497
 20
150.857
 11
-82.6507
 21
150.895
  0
LINE
  8
0
 10
-82.6507
 20
150.895
 11
-82.3493
 21
150.895
  0
LINE
  8
0
 10
-82.3493
 20
150.895
 11
-82.0503
 21
150.857
  0
LINE
  8
0
 10
-82.0503
 20
150.857
 11
-81.7584
 21
150.783
  0
LINE
  8
0
 10
-81.7584
 20
150.783
 11
-81.4781
 21
150.672
  0
LINE
  8
0
 10
-81.4781
 20
150.672
 11
-81.214
 21
150.526
  0
LINE
  8
0
 10
-81.214
 20
150.526
 11
-80.9702
 21
150.349
  0
LINE
  8
0
 10
-80.9702
 20
150.349
 11
-80.7505
 21
150.143
  0
LINE
  8
0
 10
-80.7505
 20
150.143
 11
-80.5583
 21
149.911
  0
LINE
  8
0
 10
-80.5583
 20
149.911
 11
-80.3969
 21
149.656
  0
LINE
  8
0
 10
-80.3969
 20
149.656
 11
-80.2685
 21
149.383
  0
LINE
  8
0
 10
-80.2685
 20
149.383
 11
-80.1754
 21
149.097
  0
LINE
  8
0
 10
-80.1754
 20
149.097
 11
-80.1189
 21
148.801
  0
LINE
  8
0
 10
-80.1189
 20
148.801
 11
-80.1
 21
148.5
  0
LINE
  8
0
 10
-80.1
 20
148.5
 11
-80.1189
 21
148.199
  0
LINE
  8
0
 10
-80.1189
 20
148.199
 11
-80.1754
 21
147.903
  0
LINE
  8
0
 10
-80.1754
 20
147.903
 11
-80.2685
 21
147.617
  0
LINE
  8
0
 10
-80.2685
 20
147.617
 11
-80.3969
 21
147.344
  0
LINE
  8
0
 10
-80.3969
 20
147.344
 11
-80.5583
 21
147.089
  0
LINE
  8
0
 10
-80.5583
 20
147.089
 11
-80.7505
 21
146.857
  0
LINE
  8
0
 10
-80.7505
 20
146.857
 11
-80.9702
 21
146.651
  0
LINE
  8
0
 10
-80.9702
 20
146.651
 11
-81.214
 21
146.474
  0
LINE
  8
0
 10
-81.214
 20
146.474
 11
-81.4781
 21
146.328
  0
LINE
  8
0
 10
-81.4781
 20
146.328
 11
-81.7584
 21
146.217
  0
LINE
  8
0
 10
-81.7584
 20
146.217
 11
-82.0503
 21
146.143
  0
LINE
  8
0
 10
-82.0503
 20
146.143
 11
-82.3493
 21
146.105
  0
LINE
  8
0
 10
-82.3493
 20
146.105
 11
-82.6507
 21
146.105
  0
LINE
  8
0
 10
85.9369
 20
102.089
 11
86.5451
 21
102.245
  0
LINE
  8
0
 10
86.5451
 20
102.245
 11
87.1289
 21
102.476
  0
LINE
  8
0
 10
87.1289
 20
102.476
 11
87.6791
 21
102.778
  0
LINE
  8
0
 10
87.6791
 20
102.778
 11
88.1871
 21
103.147
  0
LINE
  8
0
 10
88.1871
 20
103.147
 11
88.6448
 21
103.577
  0
LINE
  8
0
 10
88.6448
 20
103.577
 11
89.0451
 21
104.061
  0
LINE
  8
0
 10
89.0451
 20
104.061
 11
89.3815
 21
104.591
  0
LINE
  8
0
 10
89.3815
 20
104.591
 11
89.6489
 21
105.159
  0
LINE
  8
0
 10
89.6489
 20
105.159
 11
89.8429
 21
105.757
  0
LINE
  8
0
 10
89.8429
 20
105.757
 11
89.9606
 21
106.373
  0
LINE
  8
0
 10
89.9606
 20
106.373
 11
90
 21
107
  0
LINE
  8
0
 10
90
 20
107
 11
90
 21
127
  0
LINE
  8
0
 10
90
 20
127
 11
89.9606
 21
127.627
  0
LINE
  8
0
 10
89.9606
 20
127.627
 11
89.8429
 21
128.243
  0
LINE
  8
0
 10
89.8429
 20
128.243
 11
89.6489
 21
128.841
  0
LINE
  8
0
 10
89.6489
 20
128.841
 11
89.3815
 21
129.409
  0
LINE
  8
0
 10
89.3815
 20
129.409
 11
89.0451
 21
129.939
  0
LINE
  8
0
 10
89.0451
 20
129.939
 11
88.6448
 21
130.423
  0
LINE
  8
0
 10
88.6448
 20
130.423
 11
88.1871
 21
130.853
  0
LINE
  8
0
 10
88.1871
 20
130.853
 11
87.6791
 21
131.222
  0
LINE
  8
0
 10
87.6791
 20
131.222
 11
87.1289
 21
131.524
  0
LINE
  8
0
 10
87.1289
 20
131.524
 11
86.5451
 21
131.755
  0
LINE
  8
0
 10
86.5451
 20
131.755
 11
85.9369
 21
131.911
  0
LINE
  8
0
 10
85.9369
 20
131.911
 11
85.3139
 21
131.99
  0
LINE
  8
0
 10
85.3139
 20
131.99
 11
-85.3139
 21
131.99
  0
LINE
  8
0
 10
-85.3139
 20
131.99
 11
-85.9369
 21
131.911
  0
LINE
  8
0
 10
-85.9369
 20
131.911
 11
-86.5451
 21
131.755
  0
LINE
  8
0
 10
-86.5451
 20
131.755
 11
-87.1289
 21
131.524
  0
LINE
  8
0
 10
-87.1289
 20
131.524
 11
-87.6791
 21
131.222
  0
LINE
  8
0
 10
-87.6791
 20
131.222
 11
-88.1871
 21
130.853
  0
LINE
  8
0
 10
-88.1871
 20
130.853
 11
-88.6448
 21
130.423
  0
LINE
  8
0
 10
-88.6448
 20
130.423
 11
-89.0451
 21
129.939
  0
LINE
  8
0
 10
-89.0451
 20
129.939
 11
-89.3815
 21
129.409
  0
LINE
  8
0
 10
-89.3815
 20
129.409
 11
-89.6489
 21
128.841
  0
LINE
  8
0
 10
-89.6489
 20
128.841
 11
-89.8429
 21
128.243
  0
LINE
  8
0
 10
-89.8429
 20
128.243
 11
-89.9606
 21
127.627
  0
LINE
  8
0
 10
-89.9606
 20
127.627
 11
-90
 21
127
  0
LINE
  8
0
 10
-90
 20
127
 11
-90
 21
107
  0
LINE
  8
0
 10
-90
 20
107
 11
-89.9606
 21
106.373
  0
LINE
  8
0
 10
-89.9606
 20
106.373
 11
-89.8429
 21
105.757
  0
LINE
  8
0
 10
-89.8429
 20
105.757
 11
-89.6489
 21
105.159
  0
LINE
  8
0
 10
-89.6489
 20
105.159
 11
-89.3815
 21
104.591
  0
LINE
  8
0
 10
-89.3815
 20
104.591
 11
-89.0451
 21
104.061
  0
LINE
  8
0
 10
-89.0451
 20
104.061
 11
-88.6448
 21
103.577
  0
LINE
  8
0
 10
-88.6448
 20
103.577
 11
-88.1871
 21
103.147
  0
LINE
  8
0
 10
-88.1871
 20
103.147
 11
-87.6791
 21
102.778
  0
LINE
  8
0
 10
-87.6791
 20
102.778
 11
-87.1289
 21
102.476
  0
LINE
  8
0
 10
-87.1289
 20
102.476
 11
-86.5451
 21
102.245
  0
LINE
  8
0
 10
-86.5451
 20
102.245
 11
-85.9369
 21
102.089
  0
LINE
  8
0
 10
-85.9369
 20
102.089
 11
-85.3139
 21
102.01
  0
LINE
  8
0
 10
-85.3139
 20
102.01
 11
85.3139
 21
102.01
  0
LINE
  8
0
 10
85.3139
 20
102.01
 11
85.9369
 21
102.089
  0
LINE
  8
0
 10
82.387
 20
122.704
 11
82.1627
 21
122.732
  0
LINE
  8
0
 10
82.1627
 20
122.732
 11
81.9438
 21
122.788
  0
LINE
  8
0
 10
81.9438
 20
122.788
 11
81.7336
 21
122.871
  0
LINE
  8
0
 10
81.7336
 20
122.871
 11
81.5355
 21
122.98
  0
LINE
  8
0
 10
81.5355
 20
122.98
 11
81.3526
 21
123.113
  0
LINE
  8
0
 10
81.3526
 20
123.113
 11
81.1879
 21
123.268
  0
LINE
  8
0
 10
81.1879
 20
123.268
 11
81.0438
 21
123.442
  0
LINE
  8
0
 10
81.0438
 20
123.442
 11
80.9226
 21
123.633
  0
LINE
  8
0
 10
80.9226
 20
123.633
 11
80.8264
 21
123.837
  0
LINE
  8
0
 10
80.8264
 20
123.837
 11
80.7565
 21
124.052
  0
LINE
  8
0
 10
80.7565
 20
124.052
 11
80.7142
 21
124.274
  0
LINE
  8
0
 10
80.7142
 20
124.274
 11
80.7
 21
124.5
  0
LINE
  8
0
 10
80.7
 20
124.5
 11
80.7142
 21
124.726
  0
LINE
  8
0
 10
80.7142
 20
124.726
 11
80.7565
 21
124.948
  0
LINE
  8
0
 10
80.7565
 20
124.948
 11
80.8264
 21
125.163
  0
LINE
  8
0
 10
80.8264
 20
125.163
 11
80.9226
 21
125.367
  0
LINE
  8
0
 10
80.9226
 20
125.367
 11
81.0438
 21
125.558
  0
LINE
  8
0
 10
81.0438
 20
125.558
 11
81.1879
 21
125.732
  0
LINE
  8
0
 10
81.1879
 20
125.732
 11
81.3526
 21
125.887
  0
LINE
  8
0
 10
81.3526
 20
125.887
 11
81.5355
 21
126.02
  0
LINE
  8
0
 10
81.5355
 20
126.02
 11
81.7336
 21
126.129
  0
LINE
  8
0
 10
81.7336
 20
126.129
 11
81.9438
 21
126.212
  0
LINE
  8
0
 10
81.9438
 20
126.212
 11
82.1627
 21
126.268
  0
LINE
  8
0
 10
82.1627
 20
126.268
 11
82.387
 21
126.296
  0
LINE
  8
0
 10
82.387
 20
126.296
 11
82.613
 21
126.296
  0
LINE
  8
0
 10
82.613
 20
126.296
 11
82.8373
 21
126.268
  0
LINE
  8
0
 10
82.8373
 20
126.268
 11
83.0562
 21
126.212
  0
LINE
  8
0
 10
83.0562
 20
126.212
 11
83.2664
 21
126.129
  0
LINE
  8
0
 10
83.2664
 20
126.129
 11
83.4645
 21
126.02
  0
LINE
  8
0
 10
83.4645
 20
126.02
 11
83.6474
 21
125.887
  0
LINE
  8
0
 10
83.6474
 20
125.887
 11
83.8121
 21
125.732
  0
LINE
  8
0
 10
83.8121
 20
125.732
 11
83.9562
 21
125.558
  0
LINE
  8
0
 10
83.9562
 20
125.558
 11
84.0773
 21
125.367
  0
LINE
  8
0
 10
84.0773
 20
125.367
 11
84.1736
 21
125.163
  0
LINE
  8
0
 10
84.1736
 20
125.163
 11
84.2434
 21
124.948
  0
LINE
  8
0
 10
84.2434
 20
124.948
 11
84.2858
 21
124.726
  0
LINE
  8
0
 10
84.2858
 20
124.726
 11
84.3
 21
124.5
  0
LINE
  8
0
 10
84.3
 20
124.5
 11
84.2858
 21
124.274
  0
LINE
  8
0
 10
84.2858
 20
124.274
 11
84.2434
 21
124.052
  0
LINE
  8
0
 10
84.2434
 20
124.052
 11
84.1736
 21
123.837
  0
LINE
  8
0
 10
84.1736
 20
123.837
 11
84.0773
 21
123.633
  0
LINE
  8
0
 10
84.0773
 20
123.633
 11
83.9562
 21
123.442
  0
LINE
  8
0
 10
83.9562
 20
123.442
 11
83.8121
 21
123.268
  0
LINE
  8
0
 10
83.8121
 20
123.268
 11
83.6474
 21
123.113
  0
LINE
  8
0
 10
83.6474
 20
123.113
 11
83.4645
 21
122.98
  0
LINE
  8
0
 10
83.4645
 20
122.98
 11
83.2664
 21
122.871
  0
LINE
  8
0
 10
83.2664
 20
122.871
 11
83.0562
 21
122.788
  0
LINE
  8
0
 10
83.0562
 20
122.788
 11
82.8373
 21
122.732
  0
LINE
  8
0
 10
82.8373
 20
122.732
 11
82.613
 21
122.704
  0
LINE
  8
0
 10
82.613
 20
122.704
 11
82.387
 21
122.704
  0
LINE
  8
0
 10
-82.613
 20
122.704
 11
-82.8373
 21
122.732
  0
LINE
  8
0
 10
-82.8373
 20
122.732
 11
-83.0562
 21
122.788
  0
LINE
  8
0
 10
-83.0562
 20
122.788
 11
-83.2664
 21
122.871
  0
LINE
  8
0
 10
-83.2664
 20
122.871
 11
-83.4645
 21
122.98
  0
LINE
  8
0
 10
-83.4645
 20
122.98
 11
-83.6474
 21
123.113
  0
LINE
  8
0
 10
-83.6474
 20
123.113
 11
-83.8121
 21
123.268
  0
LINE
  8
0
 10
-83.8121
 20
123.268
 11
-83.9562
 21
123.442
  0
LINE
  8
0
 10
-83.9562
 20
123.442
 11
-84.0773
 21
123.633
  0
LINE
  8
0
 10
-84.0773
 20
123.633
 11
-84.1736
 21
123.837
  0
LINE
  8
0
 10
-84.1736
 20
123.837
 11
-84.2434
 21
124.052
  0
LINE
  8
0
 10
-84.2434
 20
124.052
 11
-84.2858
 21
124.274
  0
LINE
  8
0
 10
-84.2858
 20
124.274
 11
-84.3
 21
124.5
  0
LINE
  8
0
 10
-84.3
 20
124.5
 11
-84.2858
 21
124.726
  0
LINE
  8
0
 10
-84.2858
 20
124.726
 11
-84.2434
 21
124.948
  0
LINE
  8
0
 10
-84.2434
 20
124.948
 11
-84.1736
 21
125.163
  0
LINE
  8
0
 10
-84.1736
 20
125.163
 11
-84.0773
 21
125.367
  0
LINE
  8
0
 10
-84.0773
 20
125.367
 11
-83.9562
 21
125.558
  0
LINE
  8
0
 10
-83.9562
 20
125.558
 11
-83.8121
 21
125.732
  0
LINE
  8
0
 10
-83.8121
 20
125.732
 11
-83.6474
 21
125.887
  0
LINE
  8
0
 10
-83.6474
 20
125.887
 11
-83.4645
 21
126.02
  0
LINE
  8
0
 10
-83.4645
 20
126.02
 11
-83.2664
 21
126.129
  0
LINE
  8
0
 10
-83.2664
 20
126.129
 11
-83.0562
 21
126.212
  0
LINE
  8
0
 10
-83.0562
 20
126.212
 11
-82.8373
 21
126.268
  0
LINE
  8
0
 10
-82.8373
 20
126.268
 11
-82.613
 21
126.296
  0
LINE
  8
0
 10
-82.613
 20
126.296
 11
-82.387
 21
126.296
  0
LINE
  8
0
 10
-82.387
 20
126.296
 11
-82.1627
 21
126.268
  0
LINE
  8
0
 10
-82.1627
 20
126.268
 11
-81.9438
 21
126.212
  0
LINE
  8
0
 10
-81.9438
 20
126.212
 11
-81.7336
 21
126.129
  0
LINE
  8
0
 10
-81.7336
 20
126.129
 11
-81.5355
 21
126.02
  0
LINE
  8
0
 10
-81.5355
 20
126.02
 11
-81.3526
 21
125.887
  0
LINE
  8
0
 10
-81.3526
 20
125.887
 11
-81.1879
 21
125.732
  0
LINE
  8
0
 10
-81.1879
 20
125.732
 11
-81.0438
 21
125.558
  0
LINE
  8
0
 10
-81.0438
 20
125.558
 11
-80.9226
 21
125.367
  0
LINE
  8
0
 10
-80.9226
 20
125.367
 11
-80.8264
 21
125.163
  0
LINE
  8
0
 10
-80.8264
 20
125.163
 11
-80.7565
 21
124.948
  0
LINE
  8
0
 10
-80.7565
 20
124.948
 11
-80.7142
 21
124.726
  0
LINE
  8
0
 10
-80.7142
 20
124.726
 11
-80.7
 21
124.5
  0
LINE
  8
0
 10
-80.7
 20
124.5
 11
-80.7142
 21
124.274
  0
LINE
  8
0
 10
-80.7142
 20
124.274
 11
-80.7565
 21
124.052
  0
LINE
  8
0
 10
-80.7565
 20
124.052
 11
-80.8264
 21
123.837
  0
LINE
  8
0
 10
-80.8264
 20
123.837
 11
-80.9226
 21
123.633
  0
LINE
  8
0
 10
-80.9226
 20
123.633
 11
-81.0438
 21
123.442
  0
LINE
  8
0
 10
-81.0438
 20
123.442
 11
-81.1879
 21
123.268
  0
LINE
  8
0
 10
-81.1879
 20
123.268
 11
-81.3526
 21
123.113
  0
LINE
  8
0
 10
-81.3526
 20
123.113
 11
-81.5355
 21
122.98
  0
LINE
  8
0
 10
-81.5355
 20
122.98
 11
-81.7336
 21
122.871
  0
LINE
  8
0
 10
-81.7336
 20
122.871
 11
-81.9438
 21
122.788
  0
LINE
  8
0
 10
-81.9438
 20
122.788
 11
-82.1627
 21
122.732
  0
LINE
  8
0
 10
-82.1627
 20
122.732
 11
-82.387
 21
122.704
  0
LINE
  8
0
 10
-82.387
 20
122.704
 11
-82.613
 21
122.704
  0
LINE
  8
0
 10
82.387
 20
107.704
 11
82.1627
 21
107.732
  0
LINE
  8
0
 10
82.1627
 20
107.732
 11
81.9438
 21
107.788
  0
LINE
  8
0
 10
81.9438
 20
107.788
 11
81.7336
 21
107.871
  0
LINE
  8
0
 10
81.7336
 20
107.871
 11
81.5355
 21
107.98
  0
LINE
  8
0
 10
81.5355
 20
107.98
 11
81.3526
 21
108.113
  0
LINE
  8
0
 10
81.3526
 20
108.113
 11
81.1879
 21
108.268
  0
LINE
  8
0
 10
81.1879
 20
108.268
 11
81.0438
 21
108.442
  0
LINE
  8
0
 10
81.0438
 20
108.442
 11
80.9226
 21
108.633
  0
LINE
  8
0
 10
80.9226
 20
108.633
 11
80.8264
 21
108.837
  0
LINE
  8
0
 10
80.8264
 20
108.837
 11
80.7565
 21
109.052
  0
LINE
  8
0
 10
80.7565
 20
109.052
 11
80.7142
 21
109.274
  0
LINE
  8
0
 10
80.7142
 20
109.274
 11
80.7
 21
109.5
  0
LINE
  8
0
 10
80.7
 20
109.5
 11
80.7142
 21
109.726
  0
LINE
  8
0
 10
80.7142
 20
109.726
 11
80.7565
 21
109.948
  0
LINE
  8
0
 10
80.7565
 20
109.948
 11
80.8264
 21
110.163
  0
LINE
  8
0
 10
80.8264
 20
110.163
 11
80.9226
 21
110.367
  0
LINE
  8
0
 10
80.9226
 20
110.367
 11
81.0438
 21
110.558
  0
LINE
  8
0
 10
81.0438
 20
110.558
 11
81.1879
 21
110.732
  0
LINE
  8
0
 10
81.1879
 20
110.732
 11
81.3526
 21
110.887
  0
LINE
  8
0
 10
81.3526
 20
110.887
 11
81.5355
 21
111.02
  0
LINE
  8
0
 10
81.5355
 20
111.02
 11
81.7336
 21
111.129
  0
LINE
  8
0
 10
81.7336
 20
111.129
 11
81.9438
 21
111.212
  0
LINE
  8
0
 10
81.9438
 20
111.212
 11
82.1627
 21
111.268
  0
LINE
  8
0
 10
82.1627
 20
111.268
 11
82.387
 21
111.296
  0
LINE
  8
0
 10
82.387
 20
111.296
 11
82.613
 21
111.296
  0
LINE
  8
0
 10
82.613
 20
111.296
 11
82.8373
 21
111.268
  0
LINE
  8
0
 10
82.8373
 20
111.268
 11
83.0562
 21
111.212
  0
LINE
  8
0
 10
83.0562
 20
111.212
 11
83.2664
 21
111.129
  0
LINE
  8
0
 10
83.2664
 20
111.129
 11
83.4645
 21
111.02
  0
LINE
  8
0
 10
83.4645
 20
111.02
 11
83.6474
 21
110.887
  0
LINE
  8
0
 10
83.6474
 20
110.887
 11
83.8121
 21
110.732
  0
LINE
  8
0
 10
83.8121
 20
110.732
 11
83.9562
 21
110.558
  0
LINE
  8
0
 10
83.9562
 20
110.558
 11
84.0773
 21
110.367
  0
LINE
  8
0
 10
84.0773
 20
110.367
 11
84.1736
 21
110.163
  0
LINE
  8
0
 10
84.1736
 20
110.163
 11
84.2434
 21
109.948
  0
LINE
  8
0
 10
84.2434
 20
109.948
 11
84.2858
 21
109.726
  0
LINE
  8
0
 10
84.2858
 20
109.726
 11
84.3
 21
109.5
  0
LINE
  8
0
 10
84.3
 20
109.5
 11
84.2858
 21
109.274
  0
LINE
  8
0
 10
84.2858
 20
109.274
 11
84.2434
 21
109.052
  0
LINE
  8
0
 10
84.2434
 20
109.052
 11
84.1736
 21
108.837
  0
LINE
  8
0
 10
84.1736
 20
108.837
 11
84.0773
 21
108.633
  0
LINE
  8
0
 10
84.0773
 20
108.633
 11
83.9562
 21
108.442
  0
LINE
  8
0
 10
83.9562
 20
108.442
 11
83.8121
 21
108.268
  0
LINE
  8
0
 10
83.8121
 20
108.268
 11
83.6474
 21
108.113
  0
LINE
  8
0
 10
83.6474
 20
108.113
 11
83.4645
 21
107.98
  0
LINE
  8
0
 10
83.4645
 20
107.98
 11
83.2664
 21
107.871
  0
LINE
  8
0
 10
83.2664
 20
107.871
 11
83.0562
 21
107.788
  0
LINE
  8
0
 10
83.0562
 20
107.788
 11
82.8373
 21
107.732
  0
LINE
  8
0
 10
82.8373
 20
107.732
 11
82.613
 21
107.704
  0
LINE
  8
0
 10
82.613
 20
107.704
 11
82.387
 21
107.704
  0
LINE
  8
0
 10
-82.613
 20
107.704
 11
-82.8373
 21
107.732
  0
LINE
  8
0
 10
-82.8373
 20
107.732
 11
-83.0562
 21
107.788
  0
LINE
  8
0
 10
-83.0562
 20
107.788
 11
-83.2664
 21
107.871
  0
LINE
  8
0
 10
-83.2664
 20
107.871
 11
-83.4645
 21
107.98
  0
LINE
  8
0
 10
-83.4645
 20
107.98
 11
-83.6474
 21
108.113
  0
LINE
  8
0
 10
-83.6474
 20
108.113
 11
-83.8121
 21
108.268
  0
LINE
  8
0
 10
-83.8121
 20
108.268
 11
-83.9562
 21
108.442
  0
LINE
  8
0
 10
-83.9562
 20
108.442
 11
-84.0773
 21
108.633
  0
LINE
  8
0
 10
-84.0773
 20
108.633
 11
-84.1736
 21
108.837
  0
LINE
  8
0
 10
-84.1736
 20
108.837
 11
-84.2434
 21
109.052
  0
LINE
  8
0
 10
-84.2434
 20
109.052
 11
-84.2858
 21
109.274
  0
LINE
  8
0
 10
-84.2858
 20
109.274
 11
-84.3
 21
109.5
  0
LINE
  8
0
 10
-84.3
 20
109.5
 11
-84.2858
 21
109.726
  0
LINE
  8
0
 10
-84.2858
 20
109.726
 11
-84.2434
 21
109.948
  0
LINE
  8
0
 10
-84.2434
 20
109.948
 11
-84.1736
 21
110.163
  0
LINE
  8
0
 10
-84.1736
 20
110.163
 11
-84.0773
 21
110.367
  0
LINE
  8
0
 10
-84.0773
 20
110.367
 11
-83.9562
 21
110.558
  0
LINE
  8
0
 10
-83.9562
 20
110.558
 11
-83.8121
 21
110.732
  0
LINE
  8
0
 10
-83.8121
 20
110.732
 11
-83.6474
 21
110.887
  0
LINE
  8
0
 10
-83.6474
 20
110.887
 11
-83.4645
 21
111.02
  0
LINE
  8
0
 10
-83.4645
 20
111.02
 11
-83.2664
 21
111.129
  0
LINE
  8
0
 10
-83.2664
 20
111.129
 11
-83.0562
 21
111.212
  0
LINE
  8
0
 10
-83.0562
 20
111.212
 11
-82.8373
 21
111.268
  0
LINE
  8
0
 10
-82.8373
 20
111.268
 11
-82.613
 21
111.296
  0
LINE
  8
0
 10
-82.613
 20
111.296
 11
-82.387
 21
111.296
  0
LINE
  8
0
 10
-82.387
 20
111.296
 11
-82.1627
 21
111.268
  0
LINE
  8
0
 10
-82.1627
 20
111.268
 11
-81.9438
 21
111.212
  0
LINE
  8
0
 10
-81.9438
 20
111.212
 11
-81.7336
 21
111.129
  0
LINE
  8
0
 10
-81.7336
 20
111.129
 11
-81.5355
 21
111.02
  0
LINE
  8
0
 10
-81.5355
 20
111.02
 11
-81.3526
 21
110.887
  0
LINE
  8
0
 10
-81.3526
 20
110.887
 11
-81.1879
 21
110.732
  0
LINE
  8
0
 10
-81.1879
 20
110.732
 11
-81.0438
 21
110.558
  0
LINE
  8
0
 10
-81.0438
 20
110.558
 11
-80.9226
 21
110.367
  0
LINE
  8
0
 10
-80.9226
 20
110.367
 11
-80.8264
 21
110.163
  0
LINE
  8
0
 10
-80.8264
 20
110.163
 11
-80.7565
 21
109.948
  0
LINE
  8
0
 10
-80.7565
 20
109.948
 11
-80.7142
 21
109.726
  0
LINE
  8
0
 10
-80.7142
 20
109.726
 11
-80.7
 21
109.5
  0
LINE
  8
0
 10
-80.7
 20
109.5
 11
-80.7142
 21
109.274
  0
LINE
  8
0
 10
-80.7142
 20
109.274
 11
-80.7565
 21
109.052
  0
LINE
  8
0
 10
-80.7565
 20
109.052
 11
-80.8264
 21
108.837
  0
LINE
  8
0
 10
-80.8264
 20
108.837
 11
-80.9226
 21
108.633
  0
LINE
  8
0
 10
-80.9226
 20
108.633
 11
-81.0438
 21
108.442
  0
LINE
  8
0
 10
-81.0438
 20
108.442
 11
-81.1879
 21
108.268
  0
LINE
  8
0
 10
-81.1879
 20
108.268
 11
-81.3526
 21
108.113
  0
LINE
  8
0
 10
-81.3526
 20
108.113
 11
-81.5355
 21
107.98
  0
LINE
  8
0
 10
-81.5355
 20
107.98
 11
-81.7336
 21
107.871
  0
LINE
  8
0
 10
-81.7336
 20
107.871
 11
-81.9438
 21
107.788
  0
LINE
  8
0
 10
-81.9438
 20
107.788
 11
-82.1627
 21
107.732
  0
LINE
  8
0
 10
-82.1627
 20
107.732
 11
-82.387
 21
107.704
  0
LINE
  8
0
 10
-82.387
 20
107.704
 11
-82.613
 21
107.704
  0
ENDSEC
  0
SECTION
  2
OBJECTS
  0
DICTIONARY
  0
ENDSEC
  0
EOF
