  0
SECTION
  2
BLOCKS
  0
ENDSEC
  0
SECTION
  2
ENTITIES
  0
LINE
  8
0
 10
78.4369
 20
364.589
 11
79.0451
 21
364.745
  0
LINE
  8
0
 10
79.0451
 20
364.745
 11
79.6289
 21
364.976
  0
LINE
  8
0
 10
79.6289
 20
364.976
 11
80.1791
 21
365.278
  0
LINE
  8
0
 10
80.1791
 20
365.278
 11
80.6871
 21
365.647
  0
LINE
  8
0
 10
80.6871
 20
365.647
 11
81.1448
 21
366.077
  0
LINE
  8
0
 10
81.1448
 20
366.077
 11
81.5451
 21
366.561
  0
LINE
  8
0
 10
81.5451
 20
366.561
 11
81.8815
 21
367.091
  0
LINE
  8
0
 10
81.8815
 20
367.091
 11
82.1489
 21
367.659
  0
LINE
  8
0
 10
82.1489
 20
367.659
 11
82.3429
 21
368.257
  0
LINE
  8
0
 10
82.3429
 20
368.257
 11
82.4606
 21
368.873
  0
LINE
  8
0
 10
82.4606
 20
368.873
 11
82.5
 21
369.5
  0
LINE
  8
0
 10
82.5
 20
369.5
 11
82.5
 21
494.5
  0
LINE
  8
0
 10
82.5
 20
494.5
 11
82.4606
 21
495.127
  0
LINE
  8
0
 10
82.4606
 20
495.127
 11
82.3429
 21
495.743
  0
LINE
  8
0
 10
82.3429
 20
495.743
 11
82.1489
 21
496.341
  0
LINE
  8
0
 10
82.1489
 20
496.341
 11
81.8815
 21
496.909
  0
LINE
  8
0
 10
81.8815
 20
496.909
 11
81.5451
 21
497.439
  0
LINE
  8
0
 10
81.5451
 20
497.439
 11
81.1448
 21
497.923
  0
LINE
  8
0
 10
81.1448
 20
497.923
 11
80.6871
 21
498.353
  0
LINE
  8
0
 10
80.6871
 20
498.353
 11
80.1791
 21
498.722
  0
LINE
  8
0
 10
80.1791
 20
498.722
 11
79.6289
 21
499.024
  0
LINE
  8
0
 10
79.6289
 20
499.024
 11
79.0451
 21
499.255
  0
LINE
  8
0
 10
79.0451
 20
499.255
 11
78.4369
 21
499.411
  0
LINE
  8
0
 10
78.4369
 20
499.411
 11
77.8139
 21
499.49
  0
LINE
  8
0
 10
77.8139
 20
499.49
 11
-77.8139
 21
499.49
  0
LINE
  8
0
 10
-77.8139
 20
499.49
 11
-78.4369
 21
499.411
  0
LINE
  8
0
 10
-78.4369
 20
499.411
 11
-79.0451
 21
499.255
  0
LINE
  8
0
 10
-79.0451
 20
499.255
 11
-79.6289
 21
499.024
  0
LINE
  8
0
 10
-79.6289
 20
499.024
 11
-80.1791
 21
498.722
  0
LINE
  8
0
 10
-80.1791
 20
498.722
 11
-80.6871
 21
498.353
  0
LINE
  8
0
 10
-80.6871
 20
498.353
 11
-81.1448
 21
497.923
  0
LINE
  8
0
 10
-81.1448
 20
497.923
 11
-81.5451
 21
497.439
  0
LINE
  8
0
 10
-81.5451
 20
497.439
 11
-81.8815
 21
496.909
  0
LINE
  8
0
 10
-81.8815
 20
496.909
 11
-82.1489
 21
496.341
  0
LINE
  8
0
 10
-82.1489
 20
496.341
 11
-82.3429
 21
495.743
  0
LINE
  8
0
 10
-82.3429
 20
495.743
 11
-82.4606
 21
495.127
  0
LINE
  8
0
 10
-82.4606
 20
495.127
 11
-82.5
 21
494.5
  0
LINE
  8
0
 10
-82.5
 20
494.5
 11
-82.5
 21
369.5
  0
LINE
  8
0
 10
-82.5
 20
369.5
 11
-82.4606
 21
368.873
  0
LINE
  8
0
 10
-82.4606
 20
368.873
 11
-82.3429
 21
368.257
  0
LINE
  8
0
 10
-82.3429
 20
368.257
 11
-82.1489
 21
367.659
  0
LINE
  8
0
 10
-82.1489
 20
367.659
 11
-81.8815
 21
367.091
  0
LINE
  8
0
 10
-81.8815
 20
367.091
 11
-81.5451
 21
366.561
  0
LINE
  8
0
 10
-81.5451
 20
366.561
 11
-81.1448
 21
366.077
  0
LINE
  8
0
 10
-81.1448
 20
366.077
 11
-80.6871
 21
365.647
  0
LINE
  8
0
 10
-80.6871
 20
365.647
 11
-80.1791
 21
365.278
  0
LINE
  8
0
 10
-80.1791
 20
365.278
 11
-79.6289
 21
364.976
  0
LINE
  8
0
 10
-79.6289
 20
364.976
 11
-79.0451
 21
364.745
  0
LINE
  8
0
 10
-79.0451
 20
364.745
 11
-78.4369
 21
364.589
  0
LINE
  8
0
 10
-78.4369
 20
364.589
 11
-77.8139
 21
364.51
  0
LINE
  8
0
 10
-77.8139
 20
364.51
 11
77.8139
 21
364.51
  0
LINE
  8
0
 10
77.8139
 20
364.51
 11
78.4369
 21
364.589
  0
LINE
  8
0
 10
-77.5375
 20
365.181
 11
-78.1079
 21
365.253
  0
LINE
  8
0
 10
-78.1079
 20
365.253
 11
-78.6648
 21
365.396
  0
LINE
  8
0
 10
-78.6648
 20
365.396
 11
-79.1994
 21
365.607
  0
LINE
  8
0
 10
-79.1994
 20
365.607
 11
-79.7032
 21
365.884
  0
LINE
  8
0
 10
-79.7032
 20
365.884
 11
-80.1684
 21
366.222
  0
LINE
  8
0
 10
-80.1684
 20
366.222
 11
-80.5875
 21
366.616
  0
LINE
  8
0
 10
-80.5875
 20
366.616
 11
-80.954
 21
367.059
  0
LINE
  8
0
 10
-80.954
 20
367.059
 11
-81.2621
 21
367.544
  0
LINE
  8
0
 10
-81.2621
 20
367.544
 11
-81.5069
 21
368.065
  0
LINE
  8
0
 10
-81.5069
 20
368.065
 11
-81.6846
 21
368.611
  0
LINE
  8
0
 10
-81.6846
 20
368.611
 11
-81.7923
 21
369.176
  0
LINE
  8
0
 10
-81.7923
 20
369.176
 11
-81.8284
 21
369.75
  0
LINE
  8
0
 10
-81.8284
 20
369.75
 11
-81.8284
 21
494.25
  0
LINE
  8
0
 10
-81.8284
 20
494.25
 11
-81.7923
 21
494.824
  0
LINE
  8
0
 10
-81.7923
 20
494.824
 11
-81.6846
 21
495.389
  0
LINE
  8
0
 10
-81.6846
 20
495.389
 11
-81.5069
 21
495.935
  0
LINE
  8
0
 10
-81.5069
 20
495.935
 11
-81.2621
 21
496.456
  0
LINE
  8
0
 10
-81.2621
 20
496.456
 11
-80.954
 21
496.941
  0
LINE
  8
0
 10
-80.954
 20
496.941
 11
-80.5875
 21
497.384
  0
LINE
  8
0
 10
-80.5875
 20
497.384
 11
-80.1684
 21
497.778
  0
LINE
  8
0
 10
-80.1684
 20
497.778
 11
-79.7032
 21
498.116
  0
LINE
  8
0
 10
-79.7032
 20
498.116
 11
-79.1994
 21
498.393
  0
LINE
  8
0
 10
-79.1994
 20
498.393
 11
-78.6648
 21
498.604
  0
LINE
  8
0
 10
-78.6648
 20
498.604
 11
-78.1079
 21
498.747
  0
LINE
  8
0
 10
-78.1079
 20
498.747
 11
-77.5375
 21
498.819
  0
LINE
  8
0
 10
-77.5375
 20
498.819
 11
77.5375
 21
498.819
  0
LINE
  8
0
 10
77.5375
 20
498.819
 11
78.1079
 21
498.747
  0
LINE
  8
0
 10
78.1079
 20
498.747
 11
78.6648
 21
498.604
  0
LINE
  8
0
 10
78.6648
 20
498.604
 11
79.1994
 21
498.393
  0
LINE
  8
0
 10
79.1994
 20
498.393
 11
79.7032
 21
498.116
  0
LINE
  8
0
 10
79.7032
 20
498.116
 11
80.1684
 21
497.778
  0
LINE
  8
0
 10
80.1684
 20
497.778
 11
80.5875
 21
497.384
  0
LINE
  8
0
 10
80.5875
 20
497.384
 11
80.954
 21
496.941
  0
LINE
  8
0
 10
80.954
 20
496.941
 11
81.2621
 21
496.456
  0
LINE
  8
0
 10
81.2621
 20
496.456
 11
81.5069
 21
495.935
  0
LINE
  8
0
 10
81.5069
 20
495.935
 11
81.6846
 21
495.389
  0
LINE
  8
0
 10
81.6846
 20
495.389
 11
81.7923
 21
494.824
  0
LINE
  8
0
 10
81.7923
 20
494.824
 11
81.8284
 21
494.25
  0
LINE
  8
0
 10
81.8284
 20
494.25
 11
81.8284
 21
369.75
  0
LINE
  8
0
 10
81.8284
 20
369.75
 11
81.7923
 21
369.176
  0
LINE
  8
0
 10
81.7923
 20
369.176
 11
81.6846
 21
368.611
  0
LINE
  8
0
 10
81.6846
 20
368.611
 11
81.5069
 21
368.065
  0
LINE
  8
0
 10
81.5069
 20
368.065
 11
81.2621
 21
367.544
  0
LINE
  8
0
 10
81.2621
 20
367.544
 11
80.954
 21
367.059
  0
LINE
  8
0
 10
80.954
 20
367.059
 11
80.5875
 21
366.616
  0
LINE
  8
0
 10
80.5875
 20
366.616
 11
80.1684
 21
366.222
  0
LINE
  8
0
 10
80.1684
 20
366.222
 11
79.7032
 21
365.884
  0
LINE
  8
0
 10
79.7032
 20
365.884
 11
79.1994
 21
365.607
  0
LINE
  8
0
 10
79.1994
 20
365.607
 11
78.6648
 21
365.396
  0
LINE
  8
0
 10
78.6648
 20
365.396
 11
78.1079
 21
365.253
  0
LINE
  8
0
 10
78.1079
 20
365.253
 11
77.5375
 21
365.181
  0
LINE
  8
0
 10
77.5375
 20
365.181
 11
-77.5375
 21
365.181
  0
LINE
  8
0
 10
78.4369
 20
220.589
 11
79.0451
 21
220.745
  0
LINE
  8
0
 10
79.0451
 20
220.745
 11
79.6289
 21
220.976
  0
LINE
  8
0
 10
79.6289
 20
220.976
 11
80.1791
 21
221.278
  0
LINE
  8
0
 10
80.1791
 20
221.278
 11
80.6871
 21
221.647
  0
LINE
  8
0
 10
80.6871
 20
221.647
 11
81.1448
 21
222.077
  0
LINE
  8
0
 10
81.1448
 20
222.077
 11
81.5451
 21
222.561
  0
LINE
  8
0
 10
81.5451
 20
222.561
 11
81.8815
 21
223.091
  0
LINE
  8
0
 10
81.8815
 20
223.091
 11
82.1489
 21
223.659
  0
LINE
  8
0
 10
82.1489
 20
223.659
 11
82.3429
 21
224.257
  0
LINE
  8
0
 10
82.3429
 20
224.257
 11
82.4606
 21
224.873
  0
LINE
  8
0
 10
82.4606
 20
224.873
 11
82.5
 21
225.5
  0
LINE
  8
0
 10
82.5
 20
225.5
 11
82.5
 21
350.5
  0
LINE
  8
0
 10
82.5
 20
350.5
 11
82.4606
 21
351.127
  0
LINE
  8
0
 10
82.4606
 20
351.127
 11
82.3429
 21
351.743
  0
LINE
  8
0
 10
82.3429
 20
351.743
 11
82.1489
 21
352.341
  0
LINE
  8
0
 10
82.1489
 20
352.341
 11
81.8815
 21
352.909
  0
LINE
  8
0
 10
81.8815
 20
352.909
 11
81.5451
 21
353.439
  0
LINE
  8
0
 10
81.5451
 20
353.439
 11
81.1448
 21
353.923
  0
LINE
  8
0
 10
81.1448
 20
353.923
 11
80.6871
 21
354.353
  0
LINE
  8
0
 10
80.6871
 20
354.353
 11
80.1791
 21
354.722
  0
LINE
  8
0
 10
80.1791
 20
354.722
 11
79.6289
 21
355.024
  0
LINE
  8
0
 10
79.6289
 20
355.024
 11
79.0451
 21
355.255
  0
LINE
  8
0
 10
79.0451
 20
355.255
 11
78.4369
 21
355.411
  0
LINE
  8
0
 10
78.4369
 20
355.411
 11
77.8139
 21
355.49
  0
LINE
  8
0
 10
77.8139
 20
355.49
 11
-77.8139
 21
355.49
  0
LINE
  8
0
 10
-77.8139
 20
355.49
 11
-78.4369
 21
355.411
  0
LINE
  8
0
 10
-78.4369
 20
355.411
 11
-79.0451
 21
355.255
  0
LINE
  8
0
 10
-79.0451
 20
355.255
 11
-79.6289
 21
355.024
  0
LINE
  8
0
 10
-79.6289
 20
355.024
 11
-80.1791
 21
354.722
  0
LINE
  8
0
 10
-80.1791
 20
354.722
 11
-80.6871
 21
354.353
  0
LINE
  8
0
 10
-80.6871
 20
354.353
 11
-81.1448
 21
353.923
  0
LINE
  8
0
 10
-81.1448
 20
353.923
 11
-81.5451
 21
353.439
  0
LINE
  8
0
 10
-81.5451
 20
353.439
 11
-81.8815
 21
352.909
  0
LINE
  8
0
 10
-81.8815
 20
352.909
 11
-82.1489
 21
352.341
  0
LINE
  8
0
 10
-82.1489
 20
352.341
 11
-82.3429
 21
351.743
  0
LINE
  8
0
 10
-82.3429
 20
351.743
 11
-82.4606
 21
351.127
  0
LINE
  8
0
 10
-82.4606
 20
351.127
 11
-82.5
 21
350.5
  0
LINE
  8
0
 10
-82.5
 20
350.5
 11
-82.5
 21
225.5
  0
LINE
  8
0
 10
-82.5
 20
225.5
 11
-82.4606
 21
224.873
  0
LINE
  8
0
 10
-82.4606
 20
224.873
 11
-82.3429
 21
224.257
  0
LINE
  8
0
 10
-82.3429
 20
224.257
 11
-82.1489
 21
223.659
  0
LINE
  8
0
 10
-82.1489
 20
223.659
 11
-81.8815
 21
223.091
  0
LINE
  8
0
 10
-81.8815
 20
223.091
 11
-81.5451
 21
222.561
  0
LINE
  8
0
 10
-81.5451
 20
222.561
 11
-81.1448
 21
222.077
  0
LINE
  8
0
 10
-81.1448
 20
222.077
 11
-80.6871
 21
221.647
  0
LINE
  8
0
 10
-80.6871
 20
221.647
 11
-80.1791
 21
221.278
  0
LINE
  8
0
 10
-80.1791
 20
221.278
 11
-79.6289
 21
220.976
  0
LINE
  8
0
 10
-79.6289
 20
220.976
 11
-79.0451
 21
220.745
  0
LINE
  8
0
 10
-79.0451
 20
220.745
 11
-78.4369
 21
220.589
  0
LINE
  8
0
 10
-78.4369
 20
220.589
 11
-77.8139
 21
220.51
  0
LINE
  8
0
 10
-77.8139
 20
220.51
 11
77.8139
 21
220.51
  0
LINE
  8
0
 10
77.8139
 20
220.51
 11
78.4369
 21
220.589
  0
LINE
  8
0
 10
-77.3825
 20
223.645
 11
-77.6453
 21
223.678
  0
LINE
  8
0
 10
-77.6453
 20
223.678
 11
-77.9019
 21
223.744
  0
LINE
  8
0
 10
-77.9019
 20
223.744
 11
-78.1482
 21
223.841
  0
LINE
  8
0
 10
-78.1482
 20
223.841
 11
-78.3804
 21
223.969
  0
LINE
  8
0
 10
-78.3804
 20
223.969
 11
-78.5947
 21
224.125
  0
LINE
  8
0
 10
-78.5947
 20
224.125
 11
-78.7879
 21
224.306
  0
LINE
  8
0
 10
-78.7879
 20
224.306
 11
-78.9567
 21
224.51
  0
LINE
  8
0
 10
-78.9567
 20
224.51
 11
-79.0987
 21
224.734
  0
LINE
  8
0
 10
-79.0987
 20
224.734
 11
-79.2115
 21
224.973
  0
LINE
  8
0
 10
-79.2115
 20
224.973
 11
-79.2934
 21
225.225
  0
LINE
  8
0
 10
-79.2934
 20
225.225
 11
-79.343
 21
225.486
  0
LINE
  8
0
 10
-79.343
 20
225.486
 11
-79.3596
 21
225.75
  0
LINE
  8
0
 10
-79.3596
 20
225.75
 11
-79.3596
 21
350.25
  0
LINE
  8
0
 10
-79.3596
 20
350.25
 11
-79.343
 21
350.514
  0
LINE
  8
0
 10
-79.343
 20
350.514
 11
-79.2934
 21
350.775
  0
LINE
  8
0
 10
-79.2934
 20
350.775
 11
-79.2115
 21
351.027
  0
LINE
  8
0
 10
-79.2115
 20
351.027
 11
-79.0987
 21
351.266
  0
LINE
  8
0
 10
-79.0987
 20
351.266
 11
-78.9567
 21
351.49
  0
LINE
  8
0
 10
-78.9567
 20
351.49
 11
-78.7879
 21
351.694
  0
LINE
  8
0
 10
-78.7879
 20
351.694
 11
-78.5947
 21
351.875
  0
LINE
  8
0
 10
-78.5947
 20
351.875
 11
-78.3804
 21
352.031
  0
LINE
  8
0
 10
-78.3804
 20
352.031
 11
-78.1482
 21
352.159
  0
LINE
  8
0
 10
-78.1482
 20
352.159
 11
-77.9019
 21
352.256
  0
LINE
  8
0
 10
-77.9019
 20
352.256
 11
-77.6453
 21
352.322
  0
LINE
  8
0
 10
-77.6453
 20
352.322
 11
-77.3825
 21
352.355
  0
LINE
  8
0
 10
-77.3825
 20
352.355
 11
77.3825
 21
352.355
  0
LINE
  8
0
 10
77.3825
 20
352.355
 11
77.6453
 21
352.322
  0
LINE
  8
0
 10
77.6453
 20
352.322
 11
77.9019
 21
352.256
  0
LINE
  8
0
 10
77.9019
 20
352.256
 11
78.1482
 21
352.159
  0
LINE
  8
0
 10
78.1482
 20
352.159
 11
78.3804
 21
352.031
  0
LINE
  8
0
 10
78.3804
 20
352.031
 11
78.5947
 21
351.875
  0
LINE
  8
0
 10
78.5947
 20
351.875
 11
78.7879
 21
351.694
  0
LINE
  8
0
 10
78.7879
 20
351.694
 11
78.9567
 21
351.49
  0
LINE
  8
0
 10
78.9567
 20
351.49
 11
79.0987
 21
351.266
  0
LINE
  8
0
 10
79.0987
 20
351.266
 11
79.2115
 21
351.027
  0
LINE
  8
0
 10
79.2115
 20
351.027
 11
79.2934
 21
350.775
  0
LINE
  8
0
 10
79.2934
 20
350.775
 11
79.343
 21
350.514
  0
LINE
  8
0
 10
79.343
 20
350.514
 11
79.3596
 21
350.25
  0
LINE
  8
0
 10
79.3596
 20
350.25
 11
79.3596
 21
225.75
  0
LINE
  8
0
 10
79.3596
 20
225.75
 11
79.343
 21
225.486
  0
LINE
  8
0
 10
79.343
 20
225.486
 11
79.2934
 21
225.225
  0
LINE
  8
0
 10
79.2934
 20
225.225
 11
79.2115
 21
224.973
  0
LINE
  8
0
 10
79.2115
 20
224.973
 11
79.0987
 21
224.734
  0
LINE
  8
0
 10
79.0987
 20
224.734
 11
78.9567
 21
224.51
  0
LINE
  8
0
 10
78.9567
 20
224.51
 11
78.7879
 21
224.306
  0
LINE
  8
0
 10
78.7879
 20
224.306
 11
78.5947
 21
224.125
  0
LINE
  8
0
 10
78.5947
 20
224.125
 11
78.3804
 21
223.969
  0
LINE
  8
0
 10
78.3804
 20
223.969
 11
78.1482
 21
223.841
  0
LINE
  8
0
 10
78.1482
 20
223.841
 11
77.9019
 21
223.744
  0
LINE
  8
0
 10
77.9019
 20
223.744
 11
77.6453
 21
223.678
  0
LINE
  8
0
 10
77.6453
 20
223.678
 11
77.3825
 21
223.645
  0
LINE
  8
0
 10
77.3825
 20
223.645
 11
-77.3825
 21
223.645
  0
ENDSEC
  0
SECTION
  2
OBJECTS
  0
DICTIONARY
  0
ENDSEC
  0
EOF
