<?xml version="1.0" standalone="no"?>
<!DOCTYPE svg PUBLIC "-//W3C//DTD SVG 1.1//EN" "http://www.w3.org/Graphics/SVG/1.1/DTD/svg11.dtd">
<svg width="226mm" height="118mm" viewBox="-113 -201 226 118" xmlns="http://www.w3.org/2000/svg" version="1.1">
<title>OpenSCAD Model</title>
<path d="
M 108.437,-177.839 L 109.045,-177.995 L 109.629,-178.226 L 110.179,-178.528 L 110.687,-178.897 L 111.145,-179.327
 L 111.545,-179.811 L 111.882,-180.341 L 112.149,-180.909 L 112.343,-181.507 L 112.461,-182.123 L 112.5,-182.75
 L 112.5,-195.25 L 112.461,-195.877 L 112.343,-196.493 L 112.149,-197.091 L 111.882,-197.659 L 111.545,-198.189
 L 111.145,-198.673 L 110.687,-199.103 L 110.179,-199.472 L 109.629,-199.774 L 109.045,-200.005 L 108.437,-200.161
 L 107.814,-200.24 L -107.814,-200.24 L -108.437,-200.161 L -109.045,-200.005 L -109.629,-199.774 L -110.179,-199.472
 L -110.687,-199.103 L -111.145,-198.673 L -111.545,-198.189 L -111.882,-197.659 L -112.149,-197.091 L -112.343,-196.493
 L -112.461,-195.877 L -112.5,-195.25 L -112.5,-182.75 L -112.461,-182.123 L -112.343,-181.507 L -112.149,-180.909
 L -111.882,-180.341 L -111.545,-179.811 L -111.145,-179.327 L -110.687,-178.897 L -110.179,-178.528 L -109.629,-178.226
 L -109.045,-177.995 L -108.437,-177.839 L -107.814,-177.76 L 107.814,-177.76 z
M -107.548,-178.259 L -108.14,-178.334 L -108.718,-178.482 L -109.272,-178.702 L -109.795,-178.989 L -110.278,-179.34
 L -110.713,-179.748 L -111.093,-180.208 L -111.412,-180.712 L -111.666,-181.251 L -111.851,-181.819 L -111.963,-182.405
 L -112,-183 L -112,-195 L -111.963,-195.595 L -111.851,-196.181 L -111.666,-196.749 L -111.412,-197.288
 L -111.093,-197.792 L -110.713,-198.252 L -110.278,-198.66 L -109.795,-199.011 L -109.272,-199.298 L -108.718,-199.518
 L -108.14,-199.666 L -107.548,-199.741 L 107.548,-199.741 L 108.14,-199.666 L 108.718,-199.518 L 109.272,-199.298
 L 109.795,-199.011 L 110.278,-198.66 L 110.713,-198.252 L 111.093,-197.792 L 111.412,-197.288 L 111.666,-196.749
 L 111.851,-196.181 L 111.963,-195.595 L 112,-195 L 112,-183 L 111.963,-182.405 L 111.851,-181.819
 L 111.666,-181.251 L 111.412,-180.712 L 111.093,-180.208 L 110.713,-179.748 L 110.278,-179.34 L 109.795,-178.989
 L 109.272,-178.702 L 108.718,-178.482 L 108.14,-178.334 L 107.548,-178.259 z
M 108.437,-146.339 L 109.045,-146.495 L 109.629,-146.726 L 110.179,-147.028 L 110.687,-147.397 L 111.145,-147.827
 L 111.545,-148.311 L 111.882,-148.841 L 112.149,-149.409 L 112.343,-150.007 L 112.461,-150.623 L 112.5,-151.25
 L 112.5,-163.75 L 112.461,-164.377 L 112.343,-164.993 L 112.149,-165.591 L 111.882,-166.159 L 111.545,-166.689
 L 111.145,-167.173 L 110.687,-167.603 L 110.179,-167.972 L 109.629,-168.274 L 109.045,-168.505 L 108.437,-168.661
 L 107.814,-168.74 L -107.814,-168.74 L -108.437,-168.661 L -109.045,-168.505 L -109.629,-168.274 L -110.179,-167.972
 L -110.687,-167.603 L -111.145,-167.173 L -111.545,-166.689 L -111.882,-166.159 L -112.149,-165.591 L -112.343,-164.993
 L -112.461,-164.377 L -112.5,-163.75 L -112.5,-151.25 L -112.461,-150.623 L -112.343,-150.007 L -112.149,-149.409
 L -111.882,-148.841 L -111.545,-148.311 L -111.145,-147.827 L -110.687,-147.397 L -110.179,-147.028 L -109.629,-146.726
 L -109.045,-146.495 L -108.437,-146.339 L -107.814,-146.26 L 107.814,-146.26 z
M -107.548,-146.759 L -108.14,-146.834 L -108.718,-146.982 L -109.272,-147.202 L -109.795,-147.489 L -110.278,-147.84
 L -110.713,-148.248 L -111.093,-148.708 L -111.412,-149.212 L -111.666,-149.751 L -111.851,-150.319 L -111.963,-150.905
 L -112,-151.5 L -112,-163.5 L -111.963,-164.095 L -111.851,-164.681 L -111.666,-165.249 L -111.412,-165.788
 L -111.093,-166.292 L -110.713,-166.752 L -110.278,-167.16 L -109.795,-167.511 L -109.272,-167.798 L -108.718,-168.018
 L -108.14,-168.166 L -107.548,-168.241 L 107.548,-168.241 L 108.14,-168.166 L 108.718,-168.018 L 109.272,-167.798
 L 109.795,-167.511 L 110.278,-167.16 L 110.713,-166.752 L 111.093,-166.292 L 111.412,-165.788 L 111.666,-165.249
 L 111.851,-164.681 L 111.963,-164.095 L 112,-163.5 L 112,-151.5 L 111.963,-150.905 L 111.851,-150.319
 L 111.666,-149.751 L 111.412,-149.212 L 111.093,-148.708 L 110.713,-148.248 L 110.278,-147.84 L 109.795,-147.489
 L 109.272,-147.202 L 108.718,-146.982 L 108.14,-146.834 L 107.548,-146.759 z
M 108.437,-114.839 L 109.045,-114.995 L 109.629,-115.226 L 110.179,-115.528 L 110.687,-115.897 L 111.145,-116.327
 L 111.545,-116.811 L 111.882,-117.341 L 112.149,-117.909 L 112.343,-118.507 L 112.461,-119.123 L 112.5,-119.75
 L 112.5,-132.25 L 112.461,-132.877 L 112.343,-133.493 L 112.149,-134.091 L 111.882,-134.659 L 111.545,-135.189
 L 111.145,-135.673 L 110.687,-136.103 L 110.179,-136.472 L 109.629,-136.774 L 109.045,-137.005 L 108.437,-137.161
 L 107.814,-137.24 L -107.814,-137.24 L -108.437,-137.161 L -109.045,-137.005 L -109.629,-136.774 L -110.179,-136.472
 L -110.687,-136.103 L -111.145,-135.673 L -111.545,-135.189 L -111.882,-134.659 L -112.149,-134.091 L -112.343,-133.493
 L -112.461,-132.877 L -112.5,-132.25 L -112.5,-119.75 L -112.461,-119.123 L -112.343,-118.507 L -112.149,-117.909
 L -111.882,-117.341 L -111.545,-116.811 L -111.145,-116.327 L -110.687,-115.897 L -110.179,-115.528 L -109.629,-115.226
 L -109.045,-114.995 L -108.437,-114.839 L -107.814,-114.76 L 107.814,-114.76 z
M -107.493,-116.138 L -107.975,-116.199 L -108.446,-116.32 L -108.898,-116.499 L -109.323,-116.733 L -109.716,-117.019
 L -110.071,-117.351 L -110.38,-117.726 L -110.641,-118.136 L -110.848,-118.576 L -110.998,-119.038 L -111.089,-119.515
 L -111.119,-120 L -111.119,-132 L -111.089,-132.485 L -110.998,-132.962 L -110.848,-133.424 L -110.641,-133.864
 L -110.38,-134.274 L -110.071,-134.649 L -109.716,-134.981 L -109.323,-135.267 L -108.898,-135.501 L -108.446,-135.68
 L -107.975,-135.801 L -107.493,-135.862 L 107.493,-135.862 L 107.975,-135.801 L 108.446,-135.68 L 108.898,-135.501
 L 109.323,-135.267 L 109.716,-134.981 L 110.071,-134.649 L 110.38,-134.274 L 110.641,-133.864 L 110.848,-133.424
 L 110.998,-132.962 L 111.089,-132.485 L 111.119,-132 L 111.119,-120 L 111.089,-119.515 L 110.998,-119.038
 L 110.848,-118.576 L 110.641,-118.136 L 110.38,-117.726 L 110.071,-117.351 L 109.716,-117.019 L 109.323,-116.733
 L 108.898,-116.499 L 108.446,-116.32 L 107.975,-116.199 L 107.493,-116.138 z
M 108.437,-83.3386 L 109.045,-83.4947 L 109.629,-83.7259 L 110.179,-84.0284 L 110.687,-84.3974 L 111.145,-84.8273
 L 111.545,-85.3111 L 111.882,-85.8412 L 112.149,-86.4094 L 112.343,-87.0066 L 112.461,-87.6233 L 112.5,-88.25
 L 112.5,-100.75 L 112.461,-101.377 L 112.343,-101.993 L 112.149,-102.591 L 111.882,-103.159 L 111.545,-103.689
 L 111.145,-104.173 L 110.687,-104.603 L 110.179,-104.972 L 109.629,-105.274 L 109.045,-105.505 L 108.437,-105.661
 L 107.814,-105.74 L -107.814,-105.74 L -108.437,-105.661 L -109.045,-105.505 L -109.629,-105.274 L -110.179,-104.972
 L -110.687,-104.603 L -111.145,-104.173 L -111.545,-103.689 L -111.882,-103.159 L -112.149,-102.591 L -112.343,-101.993
 L -112.461,-101.377 L -112.5,-100.75 L -112.5,-88.25 L -112.461,-87.6233 L -112.343,-87.0066 L -112.149,-86.4094
 L -111.882,-85.8412 L -111.545,-85.3111 L -111.145,-84.8273 L -110.687,-84.3974 L -110.179,-84.0284 L -109.629,-83.7259
 L -109.045,-83.4947 L -108.437,-83.3386 L -107.814,-83.2599 L 107.814,-83.2599 z
M -105.113,-96.4536 L -105.337,-96.4819 L -105.556,-96.5381 L -105.766,-96.6213 L -105.964,-96.7302 L -106.147,-96.8631
 L -106.312,-97.0178 L -106.456,-97.192 L -106.577,-97.3828 L -106.674,-97.5874 L -106.743,-97.8024 L -106.786,-98.0244
 L -106.8,-98.25 L -106.786,-98.4756 L -106.743,-98.6976 L -106.674,-98.9126 L -106.577,-99.1171 L -106.456,-99.308
 L -106.312,-99.4822 L -106.147,-99.6369 L -105.964,-99.7698 L -105.766,-99.8787 L -105.556,-99.9619 L -105.337,-100.018
 L -105.113,-100.046 L -104.887,-100.046 L -104.663,-100.018 L -104.444,-99.9619 L -104.234,-99.8787 L -104.036,-99.7698
 L -103.853,-99.6369 L -103.688,-99.4822 L -103.544,-99.308 L -103.423,-99.1171 L -103.326,-98.9126 L -103.257,-98.6976
 L -103.214,-98.4756 L -103.2,-98.25 L -103.214,-98.0244 L -103.257,-97.8024 L -103.326,-97.5874 L -103.423,-97.3828
 L -103.544,-97.192 L -103.688,-97.0178 L -103.853,-96.8631 L -104.036,-96.7302 L -104.234,-96.6213 L -104.444,-96.5381
 L -104.663,-96.4819 L -104.887,-96.4536 z
M 104.887,-96.4536 L 104.663,-96.4819 L 104.444,-96.5381 L 104.234,-96.6213 L 104.036,-96.7302 L 103.853,-96.8631
 L 103.688,-97.0178 L 103.544,-97.192 L 103.423,-97.3828 L 103.326,-97.5874 L 103.257,-97.8024 L 103.214,-98.0244
 L 103.2,-98.25 L 103.214,-98.4756 L 103.257,-98.6976 L 103.326,-98.9126 L 103.423,-99.1171 L 103.544,-99.308
 L 103.688,-99.4822 L 103.853,-99.6369 L 104.036,-99.7698 L 104.234,-99.8787 L 104.444,-99.9619 L 104.663,-100.018
 L 104.887,-100.046 L 105.113,-100.046 L 105.337,-100.018 L 105.556,-99.9619 L 105.766,-99.8787 L 105.964,-99.7698
 L 106.147,-99.6369 L 106.312,-99.4822 L 106.456,-99.308 L 106.577,-99.1171 L 106.674,-98.9126 L 106.743,-98.6976
 L 106.786,-98.4756 L 106.8,-98.25 L 106.786,-98.0244 L 106.743,-97.8024 L 106.674,-97.5874 L 106.577,-97.3828
 L 106.456,-97.192 L 106.312,-97.0178 L 106.147,-96.8631 L 105.964,-96.7302 L 105.766,-96.6213 L 105.556,-96.5381
 L 105.337,-96.4819 L 105.113,-96.4536 z
M 104.887,-88.9536 L 104.663,-88.9819 L 104.444,-89.0381 L 104.234,-89.1213 L 104.036,-89.2302 L 103.853,-89.3631
 L 103.688,-89.5178 L 103.544,-89.692 L 103.423,-89.8829 L 103.326,-90.0874 L 103.257,-90.3024 L 103.214,-90.5244
 L 103.2,-90.75 L 103.214,-90.9756 L 103.257,-91.1976 L 103.326,-91.4126 L 103.423,-91.6172 L 103.544,-91.808
 L 103.688,-91.9822 L 103.853,-92.1369 L 104.036,-92.2698 L 104.234,-92.3787 L 104.444,-92.4619 L 104.663,-92.5181
 L 104.887,-92.5464 L 105.113,-92.5464 L 105.337,-92.5181 L 105.556,-92.4619 L 105.766,-92.3787 L 105.964,-92.2698
 L 106.147,-92.1369 L 106.312,-91.9822 L 106.456,-91.808 L 106.577,-91.6172 L 106.674,-91.4126 L 106.743,-91.1976
 L 106.786,-90.9756 L 106.8,-90.75 L 106.786,-90.5244 L 106.743,-90.3024 L 106.674,-90.0874 L 106.577,-89.8829
 L 106.456,-89.692 L 106.312,-89.5178 L 106.147,-89.3631 L 105.964,-89.2302 L 105.766,-89.1213 L 105.556,-89.0381
 L 105.337,-88.9819 L 105.113,-88.9536 z
M -105.113,-88.9536 L -105.337,-88.9819 L -105.556,-89.0381 L -105.766,-89.1213 L -105.964,-89.2302 L -106.147,-89.3631
 L -106.312,-89.5178 L -106.456,-89.692 L -106.577,-89.8829 L -106.674,-90.0874 L -106.743,-90.3024 L -106.786,-90.5244
 L -106.8,-90.75 L -106.786,-90.9756 L -106.743,-91.1976 L -106.674,-91.4126 L -106.577,-91.6172 L -106.456,-91.808
 L -106.312,-91.9822 L -106.147,-92.1369 L -105.964,-92.2698 L -105.766,-92.3787 L -105.556,-92.4619 L -105.337,-92.5181
 L -105.113,-92.5464 L -104.887,-92.5464 L -104.663,-92.5181 L -104.444,-92.4619 L -104.234,-92.3787 L -104.036,-92.2698
 L -103.853,-92.1369 L -103.688,-91.9822 L -103.544,-91.808 L -103.423,-91.6172 L -103.326,-91.4126 L -103.257,-91.1976
 L -103.214,-90.9756 L -103.2,-90.75 L -103.214,-90.5244 L -103.257,-90.3024 L -103.326,-90.0874 L -103.423,-89.8829
 L -103.544,-89.692 L -103.688,-89.5178 L -103.853,-89.3631 L -104.036,-89.2302 L -104.234,-89.1213 L -104.444,-89.0381
 L -104.663,-88.9819 L -104.887,-88.9536 z
" stroke="black" fill="lightgray" stroke-width="0.5"/>
</svg>
