<?xml version="1.0" standalone="no"?>
<!DOCTYPE svg PUBLIC "-//W3C//DTD SVG 1.1//EN" "http://www.w3.org/Graphics/SVG/1.1/DTD/svg11.dtd">
<svg width="46mm" height="1536mm" viewBox="-23 -2931 46 1536" xmlns="http://www.w3.org/2000/svg" version="1.1">
<title>OpenSCAD Model</title>
<path d="
M 18.4369,-2631.09 L 19.0451,-2631.24 L 19.6289,-2631.48 L 20.1791,-2631.78 L 20.6871,-2632.15 L 21.1448,-2632.58
 L 21.5451,-2633.06 L 21.8815,-2633.59 L 22.1489,-2634.16 L 22.3429,-2634.76 L 22.4606,-2635.37 L 22.5,-2636
 L 22.5,-2926 L 22.4606,-2926.63 L 22.3429,-2927.24 L 22.1489,-2927.84 L 21.8815,-2928.41 L 21.5451,-2928.94
 L 21.1448,-2929.42 L 20.6871,-2929.85 L 20.1791,-2930.22 L 19.6289,-2930.52 L 19.0451,-2930.76 L 18.4369,-2930.91
 L 17.8139,-2930.99 L -17.8139,-2930.99 L -18.4369,-2930.91 L -19.0451,-2930.76 L -19.6289,-2930.52 L -20.1791,-2930.22
 L -20.6871,-2929.85 L -21.1448,-2929.42 L -21.5451,-2928.94 L -21.8815,-2928.41 L -22.1489,-2927.84 L -22.3429,-2927.24
 L -22.4606,-2926.63 L -22.5,-2926 L -22.5,-2636 L -22.4606,-2635.37 L -22.3429,-2634.76 L -22.1489,-2634.16
 L -21.8815,-2633.59 L -21.5451,-2633.06 L -21.1448,-2632.58 L -20.6871,-2632.15 L -20.1791,-2631.78 L -19.6289,-2631.48
 L -19.0451,-2631.24 L -18.4369,-2631.09 L -17.8139,-2631.01 L 17.8139,-2631.01 z
M -17.2512,-2632.51 L -17.7495,-2632.57 L -18.2361,-2632.7 L -18.7031,-2632.88 L -19.1433,-2633.12 L -19.5497,-2633.42
 L -19.9159,-2633.76 L -20.2361,-2634.15 L -20.5052,-2634.57 L -20.7191,-2635.03 L -20.8743,-2635.51 L -20.9684,-2636
 L -21,-2636.5 L -21,-2925.5 L -20.9684,-2926 L -20.8743,-2926.49 L -20.7191,-2926.97 L -20.5052,-2927.43
 L -20.2361,-2927.85 L -19.9159,-2928.24 L -19.5497,-2928.58 L -19.1433,-2928.88 L -18.7031,-2929.12 L -18.2361,-2929.3
 L -17.7495,-2929.43 L -17.2512,-2929.49 L 17.2512,-2929.49 L 17.7495,-2929.43 L 18.2361,-2929.3 L 18.7031,-2929.12
 L 19.1433,-2928.88 L 19.5497,-2928.58 L 19.9159,-2928.24 L 20.2361,-2927.85 L 20.5052,-2927.43 L 20.7191,-2926.97
 L 20.8743,-2926.49 L 20.9684,-2926 L 21,-2925.5 L 21,-2636.5 L 20.9684,-2636 L 20.8743,-2635.51
 L 20.7191,-2635.03 L 20.5052,-2634.57 L 20.2361,-2634.15 L 19.9159,-2633.76 L 19.5497,-2633.42 L 19.1433,-2633.12
 L 18.7031,-2632.88 L 18.2361,-2632.7 L 17.7495,-2632.57 L 17.2512,-2632.51 z
M 18.4369,-2322.09 L 19.0451,-2322.24 L 19.6289,-2322.48 L 20.1791,-2322.78 L 20.6871,-2323.15 L 21.1448,-2323.58
 L 21.5451,-2324.06 L 21.8815,-2324.59 L 22.1489,-2325.16 L 22.3429,-2325.76 L 22.4606,-2326.37 L 22.5,-2327
 L 22.5,-2617 L 22.4606,-2617.63 L 22.3429,-2618.24 L 22.1489,-2618.84 L 21.8815,-2619.41 L 21.5451,-2619.94
 L 21.1448,-2620.42 L 20.6871,-2620.85 L 20.1791,-2621.22 L 19.6289,-2621.52 L 19.0451,-2621.76 L 18.4369,-2621.91
 L 17.8139,-2621.99 L -17.8139,-2621.99 L -18.4369,-2621.91 L -19.0451,-2621.76 L -19.6289,-2621.52 L -20.1791,-2621.22
 L -20.6871,-2620.85 L -21.1448,-2620.42 L -21.5451,-2619.94 L -21.8815,-2619.41 L -22.1489,-2618.84 L -22.3429,-2618.24
 L -22.4606,-2617.63 L -22.5,-2617 L -22.5,-2327 L -22.4606,-2326.37 L -22.3429,-2325.76 L -22.1489,-2325.16
 L -21.8815,-2324.59 L -21.5451,-2324.06 L -21.1448,-2323.58 L -20.6871,-2323.15 L -20.1791,-2322.78 L -19.6289,-2322.48
 L -19.0451,-2322.24 L -18.4369,-2322.09 L -17.8139,-2322.01 L 17.8139,-2322.01 z
M -17.2512,-2323.51 L -17.7495,-2323.57 L -18.2361,-2323.7 L -18.7031,-2323.88 L -19.1433,-2324.12 L -19.5497,-2324.42
 L -19.9159,-2324.76 L -20.2361,-2325.15 L -20.5052,-2325.57 L -20.7191,-2326.03 L -20.8743,-2326.51 L -20.9684,-2327
 L -21,-2327.5 L -21,-2616.5 L -20.9684,-2617 L -20.8743,-2617.49 L -20.7191,-2617.97 L -20.5052,-2618.43
 L -20.2361,-2618.85 L -19.9159,-2619.24 L -19.5497,-2619.58 L -19.1433,-2619.88 L -18.7031,-2620.12 L -18.2361,-2620.3
 L -17.7495,-2620.43 L -17.2512,-2620.49 L 17.2512,-2620.49 L 17.7495,-2620.43 L 18.2361,-2620.3 L 18.7031,-2620.12
 L 19.1433,-2619.88 L 19.5497,-2619.58 L 19.9159,-2619.24 L 20.2361,-2618.85 L 20.5052,-2618.43 L 20.7191,-2617.97
 L 20.8743,-2617.49 L 20.9684,-2617 L 21,-2616.5 L 21,-2327.5 L 20.9684,-2327 L 20.8743,-2326.51
 L 20.7191,-2326.03 L 20.5052,-2325.57 L 20.2361,-2325.15 L 19.9159,-2324.76 L 19.5497,-2324.42 L 19.1433,-2324.12
 L 18.7031,-2323.88 L 18.2361,-2323.7 L 17.7495,-2323.57 L 17.2512,-2323.51 z
M 18.4369,-2013.09 L 19.0451,-2013.24 L 19.6289,-2013.48 L 20.1791,-2013.78 L 20.6871,-2014.15 L 21.1448,-2014.58
 L 21.5451,-2015.06 L 21.8815,-2015.59 L 22.1489,-2016.16 L 22.3429,-2016.76 L 22.4606,-2017.37 L 22.5,-2018
 L 22.5,-2308 L 22.4606,-2308.63 L 22.3429,-2309.24 L 22.1489,-2309.84 L 21.8815,-2310.41 L 21.5451,-2310.94
 L 21.1448,-2311.42 L 20.6871,-2311.85 L 20.1791,-2312.22 L 19.6289,-2312.52 L 19.0451,-2312.76 L 18.4369,-2312.91
 L 17.8139,-2312.99 L -17.8139,-2312.99 L -18.4369,-2312.91 L -19.0451,-2312.76 L -19.6289,-2312.52 L -20.1791,-2312.22
 L -20.6871,-2311.85 L -21.1448,-2311.42 L -21.5451,-2310.94 L -21.8815,-2310.41 L -22.1489,-2309.84 L -22.3429,-2309.24
 L -22.4606,-2308.63 L -22.5,-2308 L -22.5,-2018 L -22.4606,-2017.37 L -22.3429,-2016.76 L -22.1489,-2016.16
 L -21.8815,-2015.59 L -21.5451,-2015.06 L -21.1448,-2014.58 L -20.6871,-2014.15 L -20.1791,-2013.78 L -19.6289,-2013.48
 L -19.0451,-2013.24 L -18.4369,-2013.09 L -17.8139,-2013.01 L 17.8139,-2013.01 z
M -17.2512,-2014.51 L -17.7495,-2014.57 L -18.2361,-2014.7 L -18.7031,-2014.88 L -19.1433,-2015.12 L -19.5497,-2015.42
 L -19.9159,-2015.76 L -20.2361,-2016.15 L -20.5052,-2016.57 L -20.7191,-2017.03 L -20.8743,-2017.51 L -20.9684,-2018
 L -21,-2018.5 L -21,-2307.5 L -20.9684,-2308 L -20.8743,-2308.49 L -20.7191,-2308.97 L -20.5052,-2309.43
 L -20.2361,-2309.85 L -19.9159,-2310.24 L -19.5497,-2310.58 L -19.1433,-2310.88 L -18.7031,-2311.12 L -18.2361,-2311.3
 L -17.7495,-2311.43 L -17.2512,-2311.49 L 17.2512,-2311.49 L 17.7495,-2311.43 L 18.2361,-2311.3 L 18.7031,-2311.12
 L 19.1433,-2310.88 L 19.5497,-2310.58 L 19.9159,-2310.24 L 20.2361,-2309.85 L 20.5052,-2309.43 L 20.7191,-2308.97
 L 20.8743,-2308.49 L 20.9684,-2308 L 21,-2307.5 L 21,-2018.5 L 20.9684,-2018 L 20.8743,-2017.51
 L 20.7191,-2017.03 L 20.5052,-2016.57 L 20.2361,-2016.15 L 19.9159,-2015.76 L 19.5497,-2015.42 L 19.1433,-2015.12
 L 18.7031,-2014.88 L 18.2361,-2014.7 L 17.7495,-2014.57 L 17.2512,-2014.51 z
M 18.4369,-1704.09 L 19.0451,-1704.24 L 19.6289,-1704.48 L 20.1791,-1704.78 L 20.6871,-1705.15 L 21.1448,-1705.58
 L 21.5451,-1706.06 L 21.8815,-1706.59 L 22.1489,-1707.16 L 22.3429,-1707.76 L 22.4606,-1708.37 L 22.5,-1709
 L 22.5,-1999 L 22.4606,-1999.63 L 22.3429,-2000.24 L 22.1489,-2000.84 L 21.8815,-2001.41 L 21.5451,-2001.94
 L 21.1448,-2002.42 L 20.6871,-2002.85 L 20.1791,-2003.22 L 19.6289,-2003.52 L 19.0451,-2003.76 L 18.4369,-2003.91
 L 17.8139,-2003.99 L -17.8139,-2003.99 L -18.4369,-2003.91 L -19.0451,-2003.76 L -19.6289,-2003.52 L -20.1791,-2003.22
 L -20.6871,-2002.85 L -21.1448,-2002.42 L -21.5451,-2001.94 L -21.8815,-2001.41 L -22.1489,-2000.84 L -22.3429,-2000.24
 L -22.4606,-1999.63 L -22.5,-1999 L -22.5,-1709 L -22.4606,-1708.37 L -22.3429,-1707.76 L -22.1489,-1707.16
 L -21.8815,-1706.59 L -21.5451,-1706.06 L -21.1448,-1705.58 L -20.6871,-1705.15 L -20.1791,-1704.78 L -19.6289,-1704.48
 L -19.0451,-1704.24 L -18.4369,-1704.09 L -17.8139,-1704.01 L 17.8139,-1704.01 z
M -17.1954,-1706.39 L -17.5833,-1706.44 L -17.9619,-1706.54 L -18.3254,-1706.68 L -18.668,-1706.87 L -18.9842,-1707.1
 L -19.2692,-1707.37 L -19.5184,-1707.67 L -19.7279,-1708 L -19.8943,-1708.35 L -20.0151,-1708.73 L -20.0884,-1709.11
 L -20.1129,-1709.5 L -20.1129,-1998.5 L -20.0884,-1998.89 L -20.0151,-1999.27 L -19.8943,-1999.65 L -19.7279,-2000
 L -19.5184,-2000.33 L -19.2692,-2000.63 L -18.9842,-2000.9 L -18.668,-2001.13 L -18.3254,-2001.32 L -17.9619,-2001.46
 L -17.5833,-2001.56 L -17.1954,-2001.61 L 17.1954,-2001.61 L 17.5833,-2001.56 L 17.9619,-2001.46 L 18.3254,-2001.32
 L 18.668,-2001.13 L 18.9842,-2000.9 L 19.2692,-2000.63 L 19.5184,-2000.33 L 19.7279,-2000 L 19.8943,-1999.65
 L 20.0151,-1999.27 L 20.0884,-1998.89 L 20.1129,-1998.5 L 20.1129,-1709.5 L 20.0884,-1709.11 L 20.0151,-1708.73
 L 19.8943,-1708.35 L 19.7279,-1708 L 19.5184,-1707.67 L 19.2692,-1707.37 L 18.9842,-1707.1 L 18.668,-1706.87
 L 18.3254,-1706.68 L 17.9619,-1706.54 L 17.5833,-1706.44 L 17.1954,-1706.39 z
M 18.4369,-1395.09 L 19.0451,-1395.24 L 19.6289,-1395.48 L 20.1791,-1395.78 L 20.6871,-1396.15 L 21.1448,-1396.58
 L 21.5451,-1397.06 L 21.8815,-1397.59 L 22.1489,-1398.16 L 22.3429,-1398.76 L 22.4606,-1399.37 L 22.5,-1400
 L 22.5,-1690 L 22.4606,-1690.63 L 22.3429,-1691.24 L 22.1489,-1691.84 L 21.8815,-1692.41 L 21.5451,-1692.94
 L 21.1448,-1693.42 L 20.6871,-1693.85 L 20.1791,-1694.22 L 19.6289,-1694.52 L 19.0451,-1694.76 L 18.4369,-1694.91
 L 17.8139,-1694.99 L -17.8139,-1694.99 L -18.4369,-1694.91 L -19.0451,-1694.76 L -19.6289,-1694.52 L -20.1791,-1694.22
 L -20.6871,-1693.85 L -21.1448,-1693.42 L -21.5451,-1692.94 L -21.8815,-1692.41 L -22.1489,-1691.84 L -22.3429,-1691.24
 L -22.4606,-1690.63 L -22.5,-1690 L -22.5,-1400 L -22.4606,-1399.37 L -22.3429,-1398.76 L -22.1489,-1398.16
 L -21.8815,-1397.59 L -21.5451,-1397.06 L -21.1448,-1396.58 L -20.6871,-1396.15 L -20.1791,-1395.78 L -19.6289,-1395.48
 L -19.0451,-1395.24 L -18.4369,-1395.09 L -17.8139,-1395.01 L 17.8139,-1395.01 z
M 14.8659,-1685.37 L 14.5999,-1685.4 L 14.3401,-1685.47 L 14.0908,-1685.57 L 13.8559,-1685.7 L 13.6389,-1685.85
 L 13.4434,-1686.04 L 13.2725,-1686.24 L 13.1288,-1686.47 L 13.0146,-1686.71 L 12.9318,-1686.97 L 12.8815,-1687.23
 L 12.8647,-1687.5 L 12.8815,-1687.77 L 12.9318,-1688.03 L 13.0146,-1688.29 L 13.1288,-1688.53 L 13.2725,-1688.76
 L 13.4434,-1688.96 L 13.6389,-1689.15 L 13.8559,-1689.3 L 14.0908,-1689.43 L 14.3401,-1689.53 L 14.5999,-1689.6
 L 14.8659,-1689.63 L 15.1341,-1689.63 L 15.4001,-1689.6 L 15.6598,-1689.53 L 15.9091,-1689.43 L 16.1441,-1689.3
 L 16.3611,-1689.15 L 16.5565,-1688.96 L 16.7275,-1688.76 L 16.8712,-1688.53 L 16.9853,-1688.29 L 17.0682,-1688.03
 L 17.1185,-1687.77 L 17.1353,-1687.5 L 17.1185,-1687.23 L 17.0682,-1686.97 L 16.9853,-1686.71 L 16.8712,-1686.47
 L 16.7275,-1686.24 L 16.5565,-1686.04 L 16.3611,-1685.85 L 16.1441,-1685.7 L 15.9091,-1685.57 L 15.6598,-1685.47
 L 15.4001,-1685.4 L 15.1341,-1685.37 z
M -15.1341,-1685.37 L -15.4001,-1685.4 L -15.6598,-1685.47 L -15.9091,-1685.57 L -16.1441,-1685.7 L -16.3611,-1685.85
 L -16.5565,-1686.04 L -16.7275,-1686.24 L -16.8712,-1686.47 L -16.9853,-1686.71 L -17.0682,-1686.97 L -17.1185,-1687.23
 L -17.1353,-1687.5 L -17.1185,-1687.77 L -17.0682,-1688.03 L -16.9853,-1688.29 L -16.8712,-1688.53 L -16.7275,-1688.76
 L -16.5565,-1688.96 L -16.3611,-1689.15 L -16.1441,-1689.3 L -15.9091,-1689.43 L -15.6598,-1689.53 L -15.4001,-1689.6
 L -15.1341,-1689.63 L -14.8659,-1689.63 L -14.5999,-1689.6 L -14.3401,-1689.53 L -14.0908,-1689.43 L -13.8559,-1689.3
 L -13.6389,-1689.15 L -13.4434,-1688.96 L -13.2725,-1688.76 L -13.1288,-1688.53 L -13.0146,-1688.29 L -12.9318,-1688.03
 L -12.8815,-1687.77 L -12.8647,-1687.5 L -12.8815,-1687.23 L -12.9318,-1686.97 L -13.0146,-1686.71 L -13.1288,-1686.47
 L -13.2725,-1686.24 L -13.4434,-1686.04 L -13.6389,-1685.85 L -13.8559,-1685.7 L -14.0908,-1685.57 L -14.3401,-1685.47
 L -14.5999,-1685.4 L -14.8659,-1685.37 z
M 14.8659,-1400.37 L 14.5999,-1400.4 L 14.3401,-1400.47 L 14.0908,-1400.57 L 13.8559,-1400.7 L 13.6389,-1400.85
 L 13.4434,-1401.04 L 13.2725,-1401.24 L 13.1288,-1401.47 L 13.0146,-1401.71 L 12.9318,-1401.97 L 12.8815,-1402.23
 L 12.8647,-1402.5 L 12.8815,-1402.77 L 12.9318,-1403.03 L 13.0146,-1403.29 L 13.1288,-1403.53 L 13.2725,-1403.76
 L 13.4434,-1403.96 L 13.6389,-1404.15 L 13.8559,-1404.3 L 14.0908,-1404.43 L 14.3401,-1404.53 L 14.5999,-1404.6
 L 14.8659,-1404.63 L 15.1341,-1404.63 L 15.4001,-1404.6 L 15.6598,-1404.53 L 15.9091,-1404.43 L 16.1441,-1404.3
 L 16.3611,-1404.15 L 16.5565,-1403.96 L 16.7275,-1403.76 L 16.8712,-1403.53 L 16.9853,-1403.29 L 17.0682,-1403.03
 L 17.1185,-1402.77 L 17.1353,-1402.5 L 17.1185,-1402.23 L 17.0682,-1401.97 L 16.9853,-1401.71 L 16.8712,-1401.47
 L 16.7275,-1401.24 L 16.5565,-1401.04 L 16.3611,-1400.85 L 16.1441,-1400.7 L 15.9091,-1400.57 L 15.6598,-1400.47
 L 15.4001,-1400.4 L 15.1341,-1400.37 z
M -15.1341,-1400.37 L -15.4001,-1400.4 L -15.6598,-1400.47 L -15.9091,-1400.57 L -16.1441,-1400.7 L -16.3611,-1400.85
 L -16.5565,-1401.04 L -16.7275,-1401.24 L -16.8712,-1401.47 L -16.9853,-1401.71 L -17.0682,-1401.97 L -17.1185,-1402.23
 L -17.1353,-1402.5 L -17.1185,-1402.77 L -17.0682,-1403.03 L -16.9853,-1403.29 L -16.8712,-1403.53 L -16.7275,-1403.76
 L -16.5565,-1403.96 L -16.3611,-1404.15 L -16.1441,-1404.3 L -15.9091,-1404.43 L -15.6598,-1404.53 L -15.4001,-1404.6
 L -15.1341,-1404.63 L -14.8659,-1404.63 L -14.5999,-1404.6 L -14.3401,-1404.53 L -14.0908,-1404.43 L -13.8559,-1404.3
 L -13.6389,-1404.15 L -13.4434,-1403.96 L -13.2725,-1403.76 L -13.1288,-1403.53 L -13.0146,-1403.29 L -12.9318,-1403.03
 L -12.8815,-1402.77 L -12.8647,-1402.5 L -12.8815,-1402.23 L -12.9318,-1401.97 L -13.0146,-1401.71 L -13.1288,-1401.47
 L -13.2725,-1401.24 L -13.4434,-1401.04 L -13.6389,-1400.85 L -13.8559,-1400.7 L -14.0908,-1400.57 L -14.3401,-1400.47
 L -14.5999,-1400.4 L -14.8659,-1400.37 z
" stroke="black" fill="lightgray" stroke-width="0.5"/>
</svg>
