<?xml version="1.0" standalone="no"?>
<!DOCTYPE svg PUBLIC "-//W3C//DTD SVG 1.1//EN" "http://www.w3.org/Graphics/SVG/1.1/DTD/svg11.dtd">
<svg width="196mm" height="423mm" viewBox="-98 -500 196 423" xmlns="http://www.w3.org/2000/svg" version="1.1">
<title>OpenSCAD Model</title>
<path d="
M -94.5,-364.925 L -94.0451,-364.745 L -93.4369,-364.589 L -92.8139,-364.51 L 92.8139,-364.51 L 93.4369,-364.589
 L 94.0451,-364.745 L 94.6289,-364.976 L 95.1791,-365.278 L 95.6871,-365.647 L 96.1448,-366.077 L 96.5451,-366.561
 L 96.8815,-367.091 L 97.1489,-367.659 L 97.3429,-368.257 L 97.4606,-368.873 L 97.5,-369.5 L 97.5,-494.5
 L 97.4606,-495.127 L 97.3429,-495.743 L 97.1489,-496.341 L 96.8815,-496.909 L 96.5451,-497.439 L 96.1448,-497.923
 L 95.6871,-498.353 L 95.1791,-498.722 L 94.6289,-499.024 L 94.0451,-499.255 L 93.4369,-499.411 L 92.8139,-499.49
 L -92.8139,-499.49 L -93.4369,-499.411 L -94.0451,-499.255 L -94.5,-499.075 L -94.5,-499.49 L -97.5,-499.49
 L -97.5,-364.51 L -94.5,-364.51 z
M -92.1955,-366.893 L -92.5833,-366.942 L -92.9619,-367.039 L -93.3254,-367.183 L -93.668,-367.372 L -93.9843,-367.601
 L -94.2692,-367.869 L -94.5184,-368.17 L -94.7279,-368.5 L -94.8943,-368.854 L -95.0151,-369.226 L -95.0884,-369.61
 L -95.1129,-370 L -95.1129,-494 L -95.0884,-494.39 L -95.0151,-494.774 L -94.8943,-495.146 L -94.7279,-495.5
 L -94.5184,-495.83 L -94.2692,-496.131 L -93.9843,-496.399 L -93.668,-496.628 L -93.3254,-496.817 L -92.9619,-496.961
 L -92.5833,-497.058 L -92.1955,-497.107 L 92.1955,-497.107 L 92.5833,-497.058 L 92.9619,-496.961 L 93.3254,-496.817
 L 93.668,-496.628 L 93.9843,-496.399 L 94.2692,-496.131 L 94.5184,-495.83 L 94.7279,-495.5 L 94.8943,-495.146
 L 95.0151,-494.774 L 95.0884,-494.39 L 95.1129,-494 L 95.1129,-370 L 95.0884,-369.61 L 95.0151,-369.226
 L 94.8943,-368.854 L 94.7279,-368.5 L 94.5184,-368.17 L 94.2692,-367.869 L 93.9843,-367.601 L 93.668,-367.372
 L 93.3254,-367.183 L 92.9619,-367.039 L 92.5833,-366.942 L 92.1955,-366.893 z
M 93.4369,-220.589 L 94.0451,-220.745 L 94.6289,-220.976 L 95.1791,-221.278 L 95.6871,-221.647 L 96.1448,-222.077
 L 96.5451,-222.561 L 96.8815,-223.091 L 97.1489,-223.659 L 97.3429,-224.257 L 97.4606,-224.873 L 97.5,-225.5
 L 97.5,-350.5 L 97.4606,-351.127 L 97.3429,-351.743 L 97.1489,-352.341 L 96.8815,-352.909 L 96.5451,-353.439
 L 96.1448,-353.923 L 95.6871,-354.353 L 95.1791,-354.722 L 94.6289,-355.024 L 94.0451,-355.255 L 93.4369,-355.411
 L 92.8139,-355.49 L -92.8139,-355.49 L -93.4369,-355.411 L -94.0451,-355.255 L -94.5,-355.075 L -94.5,-355.479
 L -97.5,-355.479 L -97.5,-220.521 L -94.5,-220.521 L -94.5,-220.925 L -94.0451,-220.745 L -93.4369,-220.589
 L -92.8139,-220.51 L 92.8139,-220.51 z
M 89.8659,-345.869 L 89.5999,-345.903 L 89.3401,-345.969 L 89.0908,-346.068 L 88.8559,-346.197 L 88.6389,-346.355
 L 88.4434,-346.538 L 88.2725,-346.745 L 88.1288,-346.971 L 88.0146,-347.214 L 87.9318,-347.469 L 87.8815,-347.732
 L 87.8647,-348 L 87.8815,-348.268 L 87.9318,-348.531 L 88.0146,-348.786 L 88.1288,-349.029 L 88.2725,-349.255
 L 88.4434,-349.462 L 88.6389,-349.645 L 88.8559,-349.803 L 89.0908,-349.932 L 89.3401,-350.031 L 89.5999,-350.097
 L 89.8659,-350.131 L 90.1341,-350.131 L 90.4001,-350.097 L 90.6598,-350.031 L 90.9092,-349.932 L 91.1441,-349.803
 L 91.3611,-349.645 L 91.5566,-349.462 L 91.7275,-349.255 L 91.8712,-349.029 L 91.9853,-348.786 L 92.0682,-348.531
 L 92.1185,-348.268 L 92.1353,-348 L 92.1185,-347.732 L 92.0682,-347.469 L 91.9853,-347.214 L 91.8712,-346.971
 L 91.7275,-346.745 L 91.5566,-346.538 L 91.3611,-346.355 L 91.1441,-346.197 L 90.9092,-346.068 L 90.6598,-345.969
 L 90.4001,-345.903 L 90.1341,-345.869 z
M -90.1341,-345.869 L -90.4001,-345.903 L -90.6598,-345.969 L -90.9092,-346.068 L -91.1441,-346.197 L -91.3611,-346.355
 L -91.5566,-346.538 L -91.7275,-346.745 L -91.8712,-346.971 L -91.9853,-347.214 L -92.0682,-347.469 L -92.1185,-347.732
 L -92.1353,-348 L -92.1185,-348.268 L -92.0682,-348.531 L -91.9853,-348.786 L -91.8712,-349.029 L -91.7275,-349.255
 L -91.5566,-349.462 L -91.3611,-349.645 L -91.1441,-349.803 L -90.9092,-349.932 L -90.6598,-350.031 L -90.4001,-350.097
 L -90.1341,-350.131 L -89.8659,-350.131 L -89.5999,-350.097 L -89.3401,-350.031 L -89.0908,-349.932 L -88.8559,-349.803
 L -88.6389,-349.645 L -88.4434,-349.462 L -88.2725,-349.255 L -88.1288,-349.029 L -88.0146,-348.786 L -87.9318,-348.531
 L -87.8815,-348.268 L -87.8647,-348 L -87.8815,-347.732 L -87.9318,-347.469 L -88.0146,-347.214 L -88.1288,-346.971
 L -88.2725,-346.745 L -88.4434,-346.538 L -88.6389,-346.355 L -88.8559,-346.197 L -89.0908,-346.068 L -89.3401,-345.969
 L -89.5999,-345.903 L -89.8659,-345.869 z
M 89.8659,-225.869 L 89.5999,-225.903 L 89.3401,-225.969 L 89.0908,-226.068 L 88.8559,-226.197 L 88.6389,-226.355
 L 88.4434,-226.538 L 88.2725,-226.745 L 88.1288,-226.971 L 88.0146,-227.214 L 87.9318,-227.469 L 87.8815,-227.732
 L 87.8647,-228 L 87.8815,-228.268 L 87.9318,-228.531 L 88.0146,-228.786 L 88.1288,-229.029 L 88.2725,-229.255
 L 88.4434,-229.462 L 88.6389,-229.645 L 88.8559,-229.803 L 89.0908,-229.932 L 89.3401,-230.031 L 89.5999,-230.097
 L 89.8659,-230.131 L 90.1341,-230.131 L 90.4001,-230.097 L 90.6598,-230.031 L 90.9092,-229.932 L 91.1441,-229.803
 L 91.3611,-229.645 L 91.5566,-229.462 L 91.7275,-229.255 L 91.8712,-229.029 L 91.9853,-228.786 L 92.0682,-228.531
 L 92.1185,-228.268 L 92.1353,-228 L 92.1185,-227.732 L 92.0682,-227.469 L 91.9853,-227.214 L 91.8712,-226.971
 L 91.7275,-226.745 L 91.5566,-226.538 L 91.3611,-226.355 L 91.1441,-226.197 L 90.9092,-226.068 L 90.6598,-225.969
 L 90.4001,-225.903 L 90.1341,-225.869 z
M -90.1341,-225.869 L -90.4001,-225.903 L -90.6598,-225.969 L -90.9092,-226.068 L -91.1441,-226.197 L -91.3611,-226.355
 L -91.5566,-226.538 L -91.7275,-226.745 L -91.8712,-226.971 L -91.9853,-227.214 L -92.0682,-227.469 L -92.1185,-227.732
 L -92.1353,-228 L -92.1185,-228.268 L -92.0682,-228.531 L -91.9853,-228.786 L -91.8712,-229.029 L -91.7275,-229.255
 L -91.5566,-229.462 L -91.3611,-229.645 L -91.1441,-229.803 L -90.9092,-229.932 L -90.6598,-230.031 L -90.4001,-230.097
 L -90.1341,-230.131 L -89.8659,-230.131 L -89.5999,-230.097 L -89.3401,-230.031 L -89.0908,-229.932 L -88.8559,-229.803
 L -88.6389,-229.645 L -88.4434,-229.462 L -88.2725,-229.255 L -88.1288,-229.029 L -88.0146,-228.786 L -87.9318,-228.531
 L -87.8815,-228.268 L -87.8647,-228 L -87.8815,-227.732 L -87.9318,-227.469 L -88.0146,-227.214 L -88.1288,-226.971
 L -88.2725,-226.745 L -88.4434,-226.538 L -88.6389,-226.355 L -88.8559,-226.197 L -89.0908,-226.068 L -89.3401,-225.969
 L -89.5999,-225.903 L -89.8659,-225.869 z
M -94.5,-210.153 L -97.5,-210.153 L -97.5,-77.8474 L -94.5,-77.8474 z
" stroke="black" fill="lightgray" stroke-width="0.5"/>
</svg>
