solid OpenSCAD_Model
  facet normal 0.998026 0.0627978 0
    outer loop
      vertex 2.9 0 3
      vertex 2.87713 0.363466 0
      vertex 2.87713 0.363466 3
    endloop
  endfacet
  facet normal 0.998026 0.0627978 0
    outer loop
      vertex 2.87713 0.363466 0
      vertex 2.9 0 3
      vertex 2.9 0 0
    endloop
  endfacet
  facet normal -0.998026 0.0627978 0
    outer loop
      vertex -2.9 0 0
      vertex -2.87713 0.363466 3
      vertex -2.87713 0.363466 0
    endloop
  endfacet
  facet normal -0.998026 0.0627978 0
    outer loop
      vertex -2.87713 0.363466 3
      vertex -2.9 0 0
      vertex -2.9 0 3
    endloop
  endfacet
  facet normal 0 1 -0
    outer loop
      vertex 0.182092 2.89428 0
      vertex -0.182092 2.89428 3
      vertex 0.182092 2.89428 3
    endloop
  endfacet
  facet normal 0 1 0
    outer loop
      vertex -0.182092 2.89428 3
      vertex 0.182092 2.89428 0
      vertex -0.182092 2.89428 0
    endloop
  endfacet
  facet normal 0 -1 0
    outer loop
      vertex -0.182092 -2.89428 0
      vertex 0.182092 -2.89428 3
      vertex -0.182092 -2.89428 3
    endloop
  endfacet
  facet normal 0 -1 -0
    outer loop
      vertex 0.182092 -2.89428 3
      vertex -0.182092 -2.89428 0
      vertex 0.182092 -2.89428 0
    endloop
  endfacet
  facet normal 0.684544 0.728972 -0
    outer loop
      vertex 2.11401 1.98519 0
      vertex 1.84853 2.23449 3
      vertex 2.11401 1.98519 3
    endloop
  endfacet
  facet normal 0.684544 0.728972 0
    outer loop
      vertex 1.84853 2.23449 3
      vertex 2.11401 1.98519 0
      vertex 1.84853 2.23449 0
    endloop
  endfacet
  facet normal -0.684544 0.728972 0
    outer loop
      vertex -1.84853 2.23449 0
      vertex -2.11401 1.98519 3
      vertex -1.84853 2.23449 3
    endloop
  endfacet
  facet normal -0.684544 0.728972 0
    outer loop
      vertex -2.11401 1.98519 3
      vertex -1.84853 2.23449 0
      vertex -2.11401 1.98519 0
    endloop
  endfacet
  facet normal -0.368111 0.929782 0
    outer loop
      vertex -0.896149 2.75806 0
      vertex -1.23476 2.624 3
      vertex -0.896149 2.75806 3
    endloop
  endfacet
  facet normal -0.368111 0.929782 0
    outer loop
      vertex -1.23476 2.624 3
      vertex -0.896149 2.75806 0
      vertex -1.23476 2.624 0
    endloop
  endfacet
  facet normal 0.904832 0.425768 0
    outer loop
      vertex 2.69635 1.06756 3
      vertex 2.54129 1.39709 0
      vertex 2.54129 1.39709 3
    endloop
  endfacet
  facet normal 0.904832 0.425768 0
    outer loop
      vertex 2.54129 1.39709 0
      vertex 2.69635 1.06756 3
      vertex 2.69635 1.06756 0
    endloop
  endfacet
  facet normal 0.368111 0.929782 -0
    outer loop
      vertex 1.23476 2.624 0
      vertex 0.896149 2.75806 3
      vertex 1.23476 2.624 3
    endloop
  endfacet
  facet normal 0.368111 0.929782 0
    outer loop
      vertex 0.896149 2.75806 3
      vertex 1.23476 2.624 0
      vertex 0.896149 2.75806 0
    endloop
  endfacet
  facet normal 0.248692 0.968583 -0
    outer loop
      vertex 0.896149 2.75806 0
      vertex 0.543406 2.84863 3
      vertex 0.896149 2.75806 3
    endloop
  endfacet
  facet normal 0.248692 0.968583 0
    outer loop
      vertex 0.543406 2.84863 3
      vertex 0.896149 2.75806 0
      vertex 0.543406 2.84863 0
    endloop
  endfacet
  facet normal 0.587783 0.809019 -0
    outer loop
      vertex 1.84853 2.23449 0
      vertex 1.5539 2.44855 3
      vertex 1.84853 2.23449 3
    endloop
  endfacet
  facet normal 0.587783 0.809019 0
    outer loop
      vertex 1.5539 2.44855 3
      vertex 1.84853 2.23449 0
      vertex 1.5539 2.44855 0
    endloop
  endfacet
  facet normal -0.904832 0.425768 0
    outer loop
      vertex -2.69635 1.06756 0
      vertex -2.54129 1.39709 3
      vertex -2.54129 1.39709 0
    endloop
  endfacet
  facet normal -0.904832 0.425768 0
    outer loop
      vertex -2.54129 1.39709 3
      vertex -2.69635 1.06756 0
      vertex -2.69635 1.06756 3
    endloop
  endfacet
  facet normal 0 0 1
    outer loop
      vertex 2.87713 0.363466 3
      vertex 2.87713 -0.363466 3
      vertex 2.9 0 3
    endloop
  endfacet
  facet normal 0 0 1
    outer loop
      vertex 2.80889 0.7212 3
      vertex 2.87713 -0.363466 3
      vertex 2.87713 0.363466 3
    endloop
  endfacet
  facet normal 0 0 1
    outer loop
      vertex 2.80889 0.7212 3
      vertex 2.80889 -0.7212 3
      vertex 2.87713 -0.363466 3
    endloop
  endfacet
  facet normal 0 0 1
    outer loop
      vertex 2.69635 1.06756 3
      vertex 2.80889 -0.7212 3
      vertex 2.80889 0.7212 3
    endloop
  endfacet
  facet normal 0 0 1
    outer loop
      vertex 2.69635 1.06756 3
      vertex 2.69635 -1.06756 3
      vertex 2.80889 -0.7212 3
    endloop
  endfacet
  facet normal 0 0 1
    outer loop
      vertex 2.54129 1.39709 3
      vertex 2.69635 -1.06756 3
      vertex 2.69635 1.06756 3
    endloop
  endfacet
  facet normal 0 0 1
    outer loop
      vertex 2.54129 1.39709 3
      vertex 2.54129 -1.39709 3
      vertex 2.69635 -1.06756 3
    endloop
  endfacet
  facet normal 0 0 1
    outer loop
      vertex 2.34615 1.70458 3
      vertex 2.54129 -1.39709 3
      vertex 2.54129 1.39709 3
    endloop
  endfacet
  facet normal 0 0 1
    outer loop
      vertex 2.34615 1.70458 3
      vertex 2.34615 -1.70458 3
      vertex 2.54129 -1.39709 3
    endloop
  endfacet
  facet normal 0 0 1
    outer loop
      vertex 2.11401 1.98519 3
      vertex 2.34615 -1.70458 3
      vertex 2.34615 1.70458 3
    endloop
  endfacet
  facet normal 0 0 1
    outer loop
      vertex 2.11401 1.98519 3
      vertex 2.11401 -1.98519 3
      vertex 2.34615 -1.70458 3
    endloop
  endfacet
  facet normal 0 0 1
    outer loop
      vertex 1.84853 2.23449 3
      vertex 2.11401 -1.98519 3
      vertex 2.11401 1.98519 3
    endloop
  endfacet
  facet normal 0 0 1
    outer loop
      vertex 1.84853 2.23449 3
      vertex 1.84853 -2.23449 3
      vertex 2.11401 -1.98519 3
    endloop
  endfacet
  facet normal 0 0 1
    outer loop
      vertex 1.5539 2.44855 3
      vertex 1.84853 -2.23449 3
      vertex 1.84853 2.23449 3
    endloop
  endfacet
  facet normal 0 0 1
    outer loop
      vertex 1.5539 2.44855 3
      vertex 1.5539 -2.44855 3
      vertex 1.84853 -2.23449 3
    endloop
  endfacet
  facet normal 0 0 1
    outer loop
      vertex 1.23476 2.624 3
      vertex 1.5539 -2.44855 3
      vertex 1.5539 2.44855 3
    endloop
  endfacet
  facet normal 0 0 1
    outer loop
      vertex 1.23476 2.624 3
      vertex 1.23476 -2.624 3
      vertex 1.5539 -2.44855 3
    endloop
  endfacet
  facet normal 0 0 1
    outer loop
      vertex 0.896149 2.75806 3
      vertex 1.23476 -2.624 3
      vertex 1.23476 2.624 3
    endloop
  endfacet
  facet normal 0 0 1
    outer loop
      vertex 0.896149 2.75806 3
      vertex 0.896149 -2.75806 3
      vertex 1.23476 -2.624 3
    endloop
  endfacet
  facet normal 0 0 1
    outer loop
      vertex 0.543406 2.84863 3
      vertex 0.896149 -2.75806 3
      vertex 0.896149 2.75806 3
    endloop
  endfacet
  facet normal 0 0 1
    outer loop
      vertex 0.543406 2.84863 3
      vertex 0.543406 -2.84863 3
      vertex 0.896149 -2.75806 3
    endloop
  endfacet
  facet normal 0 0 1
    outer loop
      vertex 0.182092 2.89428 3
      vertex 0.543406 -2.84863 3
      vertex 0.543406 2.84863 3
    endloop
  endfacet
  facet normal 0 0 1
    outer loop
      vertex 0.182092 2.89428 3
      vertex 0.182092 -2.89428 3
      vertex 0.543406 -2.84863 3
    endloop
  endfacet
  facet normal -0 0 1
    outer loop
      vertex -0.182092 2.89428 3
      vertex 0.182092 -2.89428 3
      vertex 0.182092 2.89428 3
    endloop
  endfacet
  facet normal 0 0 1
    outer loop
      vertex -0.182092 2.89428 3
      vertex -0.182092 -2.89428 3
      vertex 0.182092 -2.89428 3
    endloop
  endfacet
  facet normal -0 0 1
    outer loop
      vertex -0.543406 2.84863 3
      vertex -0.182092 -2.89428 3
      vertex -0.182092 2.89428 3
    endloop
  endfacet
  facet normal 0 0 1
    outer loop
      vertex -0.543406 2.84863 3
      vertex -0.543406 -2.84863 3
      vertex -0.182092 -2.89428 3
    endloop
  endfacet
  facet normal -0 0 1
    outer loop
      vertex -0.896149 2.75806 3
      vertex -0.543406 -2.84863 3
      vertex -0.543406 2.84863 3
    endloop
  endfacet
  facet normal 0 0 1
    outer loop
      vertex -0.896149 2.75806 3
      vertex -0.896149 -2.75806 3
      vertex -0.543406 -2.84863 3
    endloop
  endfacet
  facet normal -0 0 1
    outer loop
      vertex -1.23476 2.624 3
      vertex -0.896149 -2.75806 3
      vertex -0.896149 2.75806 3
    endloop
  endfacet
  facet normal 0 0 1
    outer loop
      vertex -1.23476 2.624 3
      vertex -1.23476 -2.624 3
      vertex -0.896149 -2.75806 3
    endloop
  endfacet
  facet normal -0 0 1
    outer loop
      vertex -1.5539 2.44855 3
      vertex -1.23476 -2.624 3
      vertex -1.23476 2.624 3
    endloop
  endfacet
  facet normal 0 0 1
    outer loop
      vertex -1.5539 2.44855 3
      vertex -1.5539 -2.44855 3
      vertex -1.23476 -2.624 3
    endloop
  endfacet
  facet normal -0 0 1
    outer loop
      vertex -1.84853 2.23449 3
      vertex -1.5539 -2.44855 3
      vertex -1.5539 2.44855 3
    endloop
  endfacet
  facet normal 0 0 1
    outer loop
      vertex -1.84853 2.23449 3
      vertex -1.84853 -2.23449 3
      vertex -1.5539 -2.44855 3
    endloop
  endfacet
  facet normal -0 0 1
    outer loop
      vertex -2.11401 1.98519 3
      vertex -1.84853 -2.23449 3
      vertex -1.84853 2.23449 3
    endloop
  endfacet
  facet normal 0 0 1
    outer loop
      vertex -2.11401 1.98519 3
      vertex -2.11401 -1.98519 3
      vertex -1.84853 -2.23449 3
    endloop
  endfacet
  facet normal -0 0 1
    outer loop
      vertex -2.34615 1.70458 3
      vertex -2.11401 -1.98519 3
      vertex -2.11401 1.98519 3
    endloop
  endfacet
  facet normal 0 0 1
    outer loop
      vertex -2.34615 1.70458 3
      vertex -2.34615 -1.70458 3
      vertex -2.11401 -1.98519 3
    endloop
  endfacet
  facet normal -0 0 1
    outer loop
      vertex -2.54129 1.39709 3
      vertex -2.34615 -1.70458 3
      vertex -2.34615 1.70458 3
    endloop
  endfacet
  facet normal 0 0 1
    outer loop
      vertex -2.54129 1.39709 3
      vertex -2.54129 -1.39709 3
      vertex -2.34615 -1.70458 3
    endloop
  endfacet
  facet normal -0 0 1
    outer loop
      vertex -2.69635 1.06756 3
      vertex -2.54129 -1.39709 3
      vertex -2.54129 1.39709 3
    endloop
  endfacet
  facet normal 0 0 1
    outer loop
      vertex -2.69635 1.06756 3
      vertex -2.69635 -1.06756 3
      vertex -2.54129 -1.39709 3
    endloop
  endfacet
  facet normal -0 0 1
    outer loop
      vertex -2.80889 0.7212 3
      vertex -2.69635 -1.06756 3
      vertex -2.69635 1.06756 3
    endloop
  endfacet
  facet normal 0 0 1
    outer loop
      vertex -2.80889 0.7212 3
      vertex -2.80889 -0.7212 3
      vertex -2.69635 -1.06756 3
    endloop
  endfacet
  facet normal -0 0 1
    outer loop
      vertex -2.87713 0.363466 3
      vertex -2.80889 -0.7212 3
      vertex -2.80889 0.7212 3
    endloop
  endfacet
  facet normal 0 0 1
    outer loop
      vertex -2.87713 0.363466 3
      vertex -2.87713 -0.363466 3
      vertex -2.80889 -0.7212 3
    endloop
  endfacet
  facet normal 0 -0 1
    outer loop
      vertex -2.87713 -0.363466 3
      vertex -2.87713 0.363466 3
      vertex -2.9 0 3
    endloop
  endfacet
  facet normal -0.481756 0.876305 0
    outer loop
      vertex -1.23476 2.624 0
      vertex -1.5539 2.44855 3
      vertex -1.23476 2.624 3
    endloop
  endfacet
  facet normal -0.481756 0.876305 0
    outer loop
      vertex -1.5539 2.44855 3
      vertex -1.23476 2.624 0
      vertex -1.5539 2.44855 0
    endloop
  endfacet
  facet normal -0.125348 0.992113 0
    outer loop
      vertex -0.182092 2.89428 0
      vertex -0.543406 2.84863 3
      vertex -0.182092 2.89428 3
    endloop
  endfacet
  facet normal -0.125348 0.992113 0
    outer loop
      vertex -0.543406 2.84863 3
      vertex -0.182092 2.89428 0
      vertex -0.543406 2.84863 0
    endloop
  endfacet
  facet normal 0 0 -1
    outer loop
      vertex 1.8 0 0
      vertex 2.9 0 0
      vertex 2.87713 -0.363466 0
    endloop
  endfacet
  facet normal 0 0 -1
    outer loop
      vertex 1.78581 -0.225599 0
      vertex 2.87713 -0.363466 0
      vertex 2.80889 -0.7212 0
    endloop
  endfacet
  facet normal 0 0 -1
    outer loop
      vertex 2.9 0 0
      vertex 1.8 0 0
      vertex 2.87713 0.363466 0
    endloop
  endfacet
  facet normal 0 0 -1
    outer loop
      vertex 1.74345 -0.447641 0
      vertex 2.80889 -0.7212 0
      vertex 2.69635 -1.06756 0
    endloop
  endfacet
  facet normal 0 0 -1
    outer loop
      vertex 1.78581 0.225599 0
      vertex 2.87713 0.363466 0
      vertex 1.8 0 0
    endloop
  endfacet
  facet normal 0 0 -1
    outer loop
      vertex 1.6736 -0.662623 0
      vertex 2.69635 -1.06756 0
      vertex 2.54129 -1.39709 0
    endloop
  endfacet
  facet normal -0 0 -1
    outer loop
      vertex 2.87713 0.363466 0
      vertex 1.78581 0.225599 0
      vertex 2.80889 0.7212 0
    endloop
  endfacet
  facet normal 0 0 -1
    outer loop
      vertex 1.57735 -0.867156 0
      vertex 2.54129 -1.39709 0
      vertex 2.34615 -1.70458 0
    endloop
  endfacet
  facet normal 0 0 -1
    outer loop
      vertex 1.74345 0.447641 0
      vertex 2.80889 0.7212 0
      vertex 1.78581 0.225599 0
    endloop
  endfacet
  facet normal 0 0 -1
    outer loop
      vertex 1.45623 -1.05801 0
      vertex 2.34615 -1.70458 0
      vertex 2.11401 -1.98519 0
    endloop
  endfacet
  facet normal -0 0 -1
    outer loop
      vertex 2.80889 0.7212 0
      vertex 1.74345 0.447641 0
      vertex 2.69635 1.06756 0
    endloop
  endfacet
  facet normal 0 0 -1
    outer loop
      vertex 1.31214 -1.23218 0
      vertex 2.11401 -1.98519 0
      vertex 1.84853 -2.23449 0
    endloop
  endfacet
  facet normal 0 0 -1
    outer loop
      vertex 1.6736 0.662623 0
      vertex 2.69635 1.06756 0
      vertex 1.74345 0.447641 0
    endloop
  endfacet
  facet normal -0 0 -1
    outer loop
      vertex 2.69635 1.06756 0
      vertex 1.6736 0.662623 0
      vertex 2.54129 1.39709 0
    endloop
  endfacet
  facet normal 0 0 -1
    outer loop
      vertex 2.87713 -0.363466 0
      vertex 1.78581 -0.225599 0
      vertex 1.8 0 0
    endloop
  endfacet
  facet normal 0 0 -1
    outer loop
      vertex 2.80889 -0.7212 0
      vertex 1.74345 -0.447641 0
      vertex 1.78581 -0.225599 0
    endloop
  endfacet
  facet normal 0 0 -1
    outer loop
      vertex 2.69635 -1.06756 0
      vertex 1.6736 -0.662623 0
      vertex 1.74345 -0.447641 0
    endloop
  endfacet
  facet normal 0 0 -1
    outer loop
      vertex 2.54129 -1.39709 0
      vertex 1.57735 -0.867156 0
      vertex 1.6736 -0.662623 0
    endloop
  endfacet
  facet normal 0 0 -1
    outer loop
      vertex 1.14736 -1.38692 0
      vertex 1.84853 -2.23449 0
      vertex 1.5539 -2.44855 0
    endloop
  endfacet
  facet normal 0 0 -1
    outer loop
      vertex 2.34615 -1.70458 0
      vertex 1.45623 -1.05801 0
      vertex 1.57735 -0.867156 0
    endloop
  endfacet
  facet normal 0 0 -1
    outer loop
      vertex 2.11401 -1.98519 0
      vertex 1.31214 -1.23218 0
      vertex 1.45623 -1.05801 0
    endloop
  endfacet
  facet normal 0 0 -1
    outer loop
      vertex 0.964488 -1.51979 0
      vertex 1.5539 -2.44855 0
      vertex 1.23476 -2.624 0
    endloop
  endfacet
  facet normal 0 0 -1
    outer loop
      vertex 1.84853 -2.23449 0
      vertex 1.14736 -1.38692 0
      vertex 1.31214 -1.23218 0
    endloop
  endfacet
  facet normal 0 0 -1
    outer loop
      vertex 1.5539 -2.44855 0
      vertex 0.964488 -1.51979 0
      vertex 1.14736 -1.38692 0
    endloop
  endfacet
  facet normal 0 0 -1
    outer loop
      vertex 0.766402 -1.62869 0
      vertex 1.23476 -2.624 0
      vertex 0.896149 -2.75806 0
    endloop
  endfacet
  facet normal 0 0 -1
    outer loop
      vertex 1.23476 -2.624 0
      vertex 0.766402 -1.62869 0
      vertex 0.964488 -1.51979 0
    endloop
  endfacet
  facet normal 0 0 -1
    outer loop
      vertex 0.896149 -2.75806 0
      vertex 0.556231 -1.7119 0
      vertex 0.766402 -1.62869 0
    endloop
  endfacet
  facet normal 0 0 -1
    outer loop
      vertex 0.543406 -2.84863 0
      vertex 0.556231 -1.7119 0
      vertex 0.896149 -2.75806 0
    endloop
  endfacet
  facet normal 0 0 -1
    outer loop
      vertex 0.543406 -2.84863 0
      vertex 0.337286 -1.76812 0
      vertex 0.556231 -1.7119 0
    endloop
  endfacet
  facet normal 0 0 -1
    outer loop
      vertex 0.182092 -2.89428 0
      vertex 0.337286 -1.76812 0
      vertex 0.543406 -2.84863 0
    endloop
  endfacet
  facet normal 0 0 -1
    outer loop
      vertex 0.182092 -2.89428 0
      vertex 0.113023 -1.79645 0
      vertex 0.337286 -1.76812 0
    endloop
  endfacet
  facet normal 0 0 -1
    outer loop
      vertex 0.182092 -2.89428 0
      vertex -0.113023 -1.79645 0
      vertex 0.113023 -1.79645 0
    endloop
  endfacet
  facet normal 0 0 -1
    outer loop
      vertex -0.182092 -2.89428 0
      vertex -0.113023 -1.79645 0
      vertex 0.182092 -2.89428 0
    endloop
  endfacet
  facet normal 0 0 -1
    outer loop
      vertex -0.182092 -2.89428 0
      vertex -0.337286 -1.76812 0
      vertex -0.113023 -1.79645 0
    endloop
  endfacet
  facet normal 0 0 -1
    outer loop
      vertex -0.543406 -2.84863 0
      vertex -0.337286 -1.76812 0
      vertex -0.182092 -2.89428 0
    endloop
  endfacet
  facet normal 0 0 -1
    outer loop
      vertex -0.543406 -2.84863 0
      vertex -0.556231 -1.7119 0
      vertex -0.337286 -1.76812 0
    endloop
  endfacet
  facet normal 0 0 -1
    outer loop
      vertex -0.896149 -2.75806 0
      vertex -0.556231 -1.7119 0
      vertex -0.543406 -2.84863 0
    endloop
  endfacet
  facet normal -0 0 -1
    outer loop
      vertex -0.556231 -1.7119 0
      vertex -0.896149 -2.75806 0
      vertex -0.766402 -1.62869 0
    endloop
  endfacet
  facet normal 0 0 -1
    outer loop
      vertex -1.23476 -2.624 0
      vertex -0.766402 -1.62869 0
      vertex -0.896149 -2.75806 0
    endloop
  endfacet
  facet normal -0 0 -1
    outer loop
      vertex -0.766402 -1.62869 0
      vertex -1.23476 -2.624 0
      vertex -0.964488 -1.51979 0
    endloop
  endfacet
  facet normal 0 0 -1
    outer loop
      vertex -1.5539 -2.44855 0
      vertex -0.964488 -1.51979 0
      vertex -1.23476 -2.624 0
    endloop
  endfacet
  facet normal -0 0 -1
    outer loop
      vertex -0.964488 -1.51979 0
      vertex -1.5539 -2.44855 0
      vertex -1.14736 -1.38692 0
    endloop
  endfacet
  facet normal 0 0 -1
    outer loop
      vertex -1.84853 -2.23449 0
      vertex -1.14736 -1.38692 0
      vertex -1.5539 -2.44855 0
    endloop
  endfacet
  facet normal -0 0 -1
    outer loop
      vertex -1.14736 -1.38692 0
      vertex -1.84853 -2.23449 0
      vertex -1.31214 -1.23218 0
    endloop
  endfacet
  facet normal 0 0 -1
    outer loop
      vertex -2.11401 -1.98519 0
      vertex -1.31214 -1.23218 0
      vertex -1.84853 -2.23449 0
    endloop
  endfacet
  facet normal -0 0 -1
    outer loop
      vertex -1.31214 -1.23218 0
      vertex -2.11401 -1.98519 0
      vertex -1.45623 -1.05801 0
    endloop
  endfacet
  facet normal 0 0 -1
    outer loop
      vertex -2.34615 -1.70458 0
      vertex -1.45623 -1.05801 0
      vertex -2.11401 -1.98519 0
    endloop
  endfacet
  facet normal -0 0 -1
    outer loop
      vertex -1.45623 -1.05801 0
      vertex -2.34615 -1.70458 0
      vertex -1.57735 -0.867156 0
    endloop
  endfacet
  facet normal -0 0 -1
    outer loop
      vertex -1.57735 -0.867156 0
      vertex -2.54129 -1.39709 0
      vertex -1.6736 -0.662623 0
    endloop
  endfacet
  facet normal 0 0 -1
    outer loop
      vertex -2.54129 -1.39709 0
      vertex -1.57735 -0.867156 0
      vertex -2.34615 -1.70458 0
    endloop
  endfacet
  facet normal 0 0 -1
    outer loop
      vertex 1.57735 0.867156 0
      vertex 2.54129 1.39709 0
      vertex 1.6736 0.662623 0
    endloop
  endfacet
  facet normal -0 0 -1
    outer loop
      vertex 2.54129 1.39709 0
      vertex 1.57735 0.867156 0
      vertex 2.34615 1.70458 0
    endloop
  endfacet
  facet normal 0 0 -1
    outer loop
      vertex 1.45623 1.05801 0
      vertex 2.34615 1.70458 0
      vertex 1.57735 0.867156 0
    endloop
  endfacet
  facet normal -0 0 -1
    outer loop
      vertex 2.34615 1.70458 0
      vertex 1.45623 1.05801 0
      vertex 2.11401 1.98519 0
    endloop
  endfacet
  facet normal 0 0 -1
    outer loop
      vertex 1.31214 1.23218 0
      vertex 2.11401 1.98519 0
      vertex 1.45623 1.05801 0
    endloop
  endfacet
  facet normal -0 0 -1
    outer loop
      vertex 2.11401 1.98519 0
      vertex 1.31214 1.23218 0
      vertex 1.84853 2.23449 0
    endloop
  endfacet
  facet normal 0 0 -1
    outer loop
      vertex 1.14736 1.38692 0
      vertex 1.84853 2.23449 0
      vertex 1.31214 1.23218 0
    endloop
  endfacet
  facet normal -0 0 -1
    outer loop
      vertex 1.84853 2.23449 0
      vertex 1.14736 1.38692 0
      vertex 1.5539 2.44855 0
    endloop
  endfacet
  facet normal 0 0 -1
    outer loop
      vertex 0.964488 1.51979 0
      vertex 1.5539 2.44855 0
      vertex 1.14736 1.38692 0
    endloop
  endfacet
  facet normal -0 0 -1
    outer loop
      vertex 1.5539 2.44855 0
      vertex 0.964488 1.51979 0
      vertex 1.23476 2.624 0
    endloop
  endfacet
  facet normal 0 0 -1
    outer loop
      vertex 0.766402 1.62869 0
      vertex 1.23476 2.624 0
      vertex 0.964488 1.51979 0
    endloop
  endfacet
  facet normal -0 0 -1
    outer loop
      vertex 1.23476 2.624 0
      vertex 0.766402 1.62869 0
      vertex 0.896149 2.75806 0
    endloop
  endfacet
  facet normal 0 0 -1
    outer loop
      vertex 0.556231 1.7119 0
      vertex 0.896149 2.75806 0
      vertex 0.766402 1.62869 0
    endloop
  endfacet
  facet normal 0 0 -1
    outer loop
      vertex 0.556231 1.7119 0
      vertex 0.543406 2.84863 0
      vertex 0.896149 2.75806 0
    endloop
  endfacet
  facet normal 0 0 -1
    outer loop
      vertex 0.337286 1.76812 0
      vertex 0.543406 2.84863 0
      vertex 0.556231 1.7119 0
    endloop
  endfacet
  facet normal 0 0 -1
    outer loop
      vertex 0.337286 1.76812 0
      vertex 0.182092 2.89428 0
      vertex 0.543406 2.84863 0
    endloop
  endfacet
  facet normal 0 0 -1
    outer loop
      vertex 0.113023 1.79645 0
      vertex 0.182092 2.89428 0
      vertex 0.337286 1.76812 0
    endloop
  endfacet
  facet normal 0 0 -1
    outer loop
      vertex -0.113023 1.79645 0
      vertex 0.182092 2.89428 0
      vertex 0.113023 1.79645 0
    endloop
  endfacet
  facet normal 0 0 -1
    outer loop
      vertex -0.113023 1.79645 0
      vertex -0.182092 2.89428 0
      vertex 0.182092 2.89428 0
    endloop
  endfacet
  facet normal 0 0 -1
    outer loop
      vertex -0.337286 1.76812 0
      vertex -0.182092 2.89428 0
      vertex -0.113023 1.79645 0
    endloop
  endfacet
  facet normal 0 0 -1
    outer loop
      vertex -0.337286 1.76812 0
      vertex -0.543406 2.84863 0
      vertex -0.182092 2.89428 0
    endloop
  endfacet
  facet normal 0 0 -1
    outer loop
      vertex -0.556231 1.7119 0
      vertex -0.543406 2.84863 0
      vertex -0.337286 1.76812 0
    endloop
  endfacet
  facet normal 0 0 -1
    outer loop
      vertex -0.896149 2.75806 0
      vertex -0.556231 1.7119 0
      vertex -0.766402 1.62869 0
    endloop
  endfacet
  facet normal 0 0 -1
    outer loop
      vertex -0.556231 1.7119 0
      vertex -0.896149 2.75806 0
      vertex -0.543406 2.84863 0
    endloop
  endfacet
  facet normal 0 0 -1
    outer loop
      vertex -1.23476 2.624 0
      vertex -0.766402 1.62869 0
      vertex -0.964488 1.51979 0
    endloop
  endfacet
  facet normal 0 0 -1
    outer loop
      vertex -1.5539 2.44855 0
      vertex -0.964488 1.51979 0
      vertex -1.14736 1.38692 0
    endloop
  endfacet
  facet normal 0 0 -1
    outer loop
      vertex -0.766402 1.62869 0
      vertex -1.23476 2.624 0
      vertex -0.896149 2.75806 0
    endloop
  endfacet
  facet normal 0 0 -1
    outer loop
      vertex -1.84853 2.23449 0
      vertex -1.14736 1.38692 0
      vertex -1.31214 1.23218 0
    endloop
  endfacet
  facet normal 0 0 -1
    outer loop
      vertex -2.11401 1.98519 0
      vertex -1.31214 1.23218 0
      vertex -1.45623 1.05801 0
    endloop
  endfacet
  facet normal 0 0 -1
    outer loop
      vertex -0.964488 1.51979 0
      vertex -1.5539 2.44855 0
      vertex -1.23476 2.624 0
    endloop
  endfacet
  facet normal 0 0 -1
    outer loop
      vertex -2.34615 1.70458 0
      vertex -1.45623 1.05801 0
      vertex -1.57735 0.867156 0
    endloop
  endfacet
  facet normal 0 0 -1
    outer loop
      vertex -2.54129 1.39709 0
      vertex -1.57735 0.867156 0
      vertex -1.6736 0.662623 0
    endloop
  endfacet
  facet normal 0 0 -1
    outer loop
      vertex -2.69635 1.06756 0
      vertex -1.6736 0.662623 0
      vertex -1.74345 0.447641 0
    endloop
  endfacet
  facet normal 0 0 -1
    outer loop
      vertex -2.80889 0.7212 0
      vertex -1.74345 0.447641 0
      vertex -1.78581 0.225599 0
    endloop
  endfacet
  facet normal 0 0 -1
    outer loop
      vertex -1.14736 1.38692 0
      vertex -1.84853 2.23449 0
      vertex -1.5539 2.44855 0
    endloop
  endfacet
  facet normal 0 0 -1
    outer loop
      vertex -2.87713 0.363466 0
      vertex -1.78581 0.225599 0
      vertex -1.8 0 0
    endloop
  endfacet
  facet normal 0 0 -1
    outer loop
      vertex -2.69635 -1.06756 0
      vertex -1.6736 -0.662623 0
      vertex -2.54129 -1.39709 0
    endloop
  endfacet
  facet normal -0 0 -1
    outer loop
      vertex -1.6736 -0.662623 0
      vertex -2.69635 -1.06756 0
      vertex -1.74345 -0.447641 0
    endloop
  endfacet
  facet normal 0 0 -1
    outer loop
      vertex -1.31214 1.23218 0
      vertex -2.11401 1.98519 0
      vertex -1.84853 2.23449 0
    endloop
  endfacet
  facet normal 0 0 -1
    outer loop
      vertex -2.80889 -0.7212 0
      vertex -1.74345 -0.447641 0
      vertex -2.69635 -1.06756 0
    endloop
  endfacet
  facet normal 0 0 -1
    outer loop
      vertex -1.45623 1.05801 0
      vertex -2.34615 1.70458 0
      vertex -2.11401 1.98519 0
    endloop
  endfacet
  facet normal -0 0 -1
    outer loop
      vertex -1.74345 -0.447641 0
      vertex -2.80889 -0.7212 0
      vertex -1.78581 -0.225599 0
    endloop
  endfacet
  facet normal 0 0 -1
    outer loop
      vertex -1.57735 0.867156 0
      vertex -2.54129 1.39709 0
      vertex -2.34615 1.70458 0
    endloop
  endfacet
  facet normal 0 0 -1
    outer loop
      vertex -2.87713 -0.363466 0
      vertex -1.78581 -0.225599 0
      vertex -2.80889 -0.7212 0
    endloop
  endfacet
  facet normal 0 0 -1
    outer loop
      vertex -1.6736 0.662623 0
      vertex -2.69635 1.06756 0
      vertex -2.54129 1.39709 0
    endloop
  endfacet
  facet normal -0 0 -1
    outer loop
      vertex -1.78581 -0.225599 0
      vertex -2.87713 -0.363466 0
      vertex -1.8 0 0
    endloop
  endfacet
  facet normal 0 0 -1
    outer loop
      vertex -1.74345 0.447641 0
      vertex -2.80889 0.7212 0
      vertex -2.69635 1.06756 0
    endloop
  endfacet
  facet normal 0 0 -1
    outer loop
      vertex -2.9 0 0
      vertex -1.8 0 0
      vertex -2.87713 -0.363466 0
    endloop
  endfacet
  facet normal 0 0 -1
    outer loop
      vertex -1.78581 0.225599 0
      vertex -2.87713 0.363466 0
      vertex -2.80889 0.7212 0
    endloop
  endfacet
  facet normal 0 0 -1
    outer loop
      vertex -1.8 0 0
      vertex -2.9 0 0
      vertex -2.87713 0.363466 0
    endloop
  endfacet
  facet normal 0.125348 -0.992113 0
    outer loop
      vertex 0.182092 -2.89428 0
      vertex 0.543406 -2.84863 3
      vertex 0.182092 -2.89428 3
    endloop
  endfacet
  facet normal 0.125348 -0.992113 0
    outer loop
      vertex 0.543406 -2.84863 3
      vertex 0.182092 -2.89428 0
      vertex 0.543406 -2.84863 0
    endloop
  endfacet
  facet normal 0.368111 -0.929782 0
    outer loop
      vertex 0.896149 -2.75806 0
      vertex 1.23476 -2.624 3
      vertex 0.896149 -2.75806 3
    endloop
  endfacet
  facet normal 0.368111 -0.929782 0
    outer loop
      vertex 1.23476 -2.624 3
      vertex 0.896149 -2.75806 0
      vertex 1.23476 -2.624 0
    endloop
  endfacet
  facet normal 0.951056 0.309019 0
    outer loop
      vertex 2.80889 0.7212 3
      vertex 2.69635 1.06756 0
      vertex 2.69635 1.06756 3
    endloop
  endfacet
  facet normal 0.951056 0.309019 0
    outer loop
      vertex 2.69635 1.06756 0
      vertex 2.80889 0.7212 3
      vertex 2.80889 0.7212 0
    endloop
  endfacet
  facet normal 0.982288 0.187378 0
    outer loop
      vertex 2.87713 0.363466 3
      vertex 2.80889 0.7212 0
      vertex 2.80889 0.7212 3
    endloop
  endfacet
  facet normal 0.982288 0.187378 0
    outer loop
      vertex 2.80889 0.7212 0
      vertex 2.87713 0.363466 3
      vertex 2.87713 0.363466 0
    endloop
  endfacet
  facet normal 0.770514 0.637423 0
    outer loop
      vertex 2.34615 1.70458 3
      vertex 2.11401 1.98519 0
      vertex 2.11401 1.98519 3
    endloop
  endfacet
  facet normal 0.770514 0.637423 0
    outer loop
      vertex 2.11401 1.98519 0
      vertex 2.34615 1.70458 3
      vertex 2.34615 1.70458 0
    endloop
  endfacet
  facet normal 0.844327 0.535829 0
    outer loop
      vertex 2.54129 1.39709 3
      vertex 2.34615 1.70458 0
      vertex 2.34615 1.70458 3
    endloop
  endfacet
  facet normal 0.844327 0.535829 0
    outer loop
      vertex 2.34615 1.70458 0
      vertex 2.54129 1.39709 3
      vertex 2.54129 1.39709 0
    endloop
  endfacet
  facet normal 0.125348 0.992113 -0
    outer loop
      vertex 0.543406 2.84863 0
      vertex 0.182092 2.89428 3
      vertex 0.543406 2.84863 3
    endloop
  endfacet
  facet normal 0.125348 0.992113 0
    outer loop
      vertex 0.182092 2.89428 3
      vertex 0.543406 2.84863 0
      vertex 0.182092 2.89428 0
    endloop
  endfacet
  facet normal 0.481756 0.876305 -0
    outer loop
      vertex 1.5539 2.44855 0
      vertex 1.23476 2.624 3
      vertex 1.5539 2.44855 3
    endloop
  endfacet
  facet normal 0.481756 0.876305 0
    outer loop
      vertex 1.23476 2.624 3
      vertex 1.5539 2.44855 0
      vertex 1.23476 2.624 0
    endloop
  endfacet
  facet normal -0.844327 0.535829 0
    outer loop
      vertex -2.54129 1.39709 0
      vertex -2.34615 1.70458 3
      vertex -2.34615 1.70458 0
    endloop
  endfacet
  facet normal -0.844327 0.535829 0
    outer loop
      vertex -2.34615 1.70458 3
      vertex -2.54129 1.39709 0
      vertex -2.54129 1.39709 3
    endloop
  endfacet
  facet normal -0.770514 0.637423 0
    outer loop
      vertex -2.34615 1.70458 0
      vertex -2.11401 1.98519 3
      vertex -2.11401 1.98519 0
    endloop
  endfacet
  facet normal -0.770514 0.637423 0
    outer loop
      vertex -2.11401 1.98519 3
      vertex -2.34615 1.70458 0
      vertex -2.34615 1.70458 3
    endloop
  endfacet
  facet normal -0.951056 0.309019 0
    outer loop
      vertex -2.80889 0.7212 0
      vertex -2.69635 1.06756 3
      vertex -2.69635 1.06756 0
    endloop
  endfacet
  facet normal -0.951056 0.309019 0
    outer loop
      vertex -2.69635 1.06756 3
      vertex -2.80889 0.7212 0
      vertex -2.80889 0.7212 3
    endloop
  endfacet
  facet normal -0.982288 0.187378 0
    outer loop
      vertex -2.87713 0.363466 0
      vertex -2.80889 0.7212 3
      vertex -2.80889 0.7212 0
    endloop
  endfacet
  facet normal -0.982288 0.187378 0
    outer loop
      vertex -2.80889 0.7212 3
      vertex -2.87713 0.363466 0
      vertex -2.87713 0.363466 3
    endloop
  endfacet
  facet normal -0.587783 0.809019 0
    outer loop
      vertex -1.5539 2.44855 0
      vertex -1.84853 2.23449 3
      vertex -1.5539 2.44855 3
    endloop
  endfacet
  facet normal -0.587783 0.809019 0
    outer loop
      vertex -1.84853 2.23449 3
      vertex -1.5539 2.44855 0
      vertex -1.84853 2.23449 0
    endloop
  endfacet
  facet normal -0.248692 0.968583 0
    outer loop
      vertex -0.543406 2.84863 0
      vertex -0.896149 2.75806 3
      vertex -0.543406 2.84863 3
    endloop
  endfacet
  facet normal -0.248692 0.968583 0
    outer loop
      vertex -0.896149 2.75806 3
      vertex -0.543406 2.84863 0
      vertex -0.896149 2.75806 0
    endloop
  endfacet
  facet normal 0.998026 -0.0627978 0
    outer loop
      vertex 2.87713 -0.363466 3
      vertex 2.9 0 0
      vertex 2.9 0 3
    endloop
  endfacet
  facet normal 0.998026 -0.0627978 0
    outer loop
      vertex 2.9 0 0
      vertex 2.87713 -0.363466 3
      vertex 2.87713 -0.363466 0
    endloop
  endfacet
  facet normal 0.904832 -0.425768 0
    outer loop
      vertex 2.54129 -1.39709 3
      vertex 2.69635 -1.06756 0
      vertex 2.69635 -1.06756 3
    endloop
  endfacet
  facet normal 0.904832 -0.425768 0
    outer loop
      vertex 2.69635 -1.06756 0
      vertex 2.54129 -1.39709 3
      vertex 2.54129 -1.39709 0
    endloop
  endfacet
  facet normal -0.684544 -0.728972 0
    outer loop
      vertex -2.11401 -1.98519 0
      vertex -1.84853 -2.23449 3
      vertex -2.11401 -1.98519 3
    endloop
  endfacet
  facet normal -0.684544 -0.728972 -0
    outer loop
      vertex -1.84853 -2.23449 3
      vertex -2.11401 -1.98519 0
      vertex -1.84853 -2.23449 0
    endloop
  endfacet
  facet normal -0.904832 -0.425768 0
    outer loop
      vertex -2.54129 -1.39709 0
      vertex -2.69635 -1.06756 3
      vertex -2.69635 -1.06756 0
    endloop
  endfacet
  facet normal -0.904832 -0.425768 0
    outer loop
      vertex -2.69635 -1.06756 3
      vertex -2.54129 -1.39709 0
      vertex -2.54129 -1.39709 3
    endloop
  endfacet
  facet normal -0.844327 -0.535829 0
    outer loop
      vertex -2.34615 -1.70458 0
      vertex -2.54129 -1.39709 3
      vertex -2.54129 -1.39709 0
    endloop
  endfacet
  facet normal -0.844327 -0.535829 0
    outer loop
      vertex -2.54129 -1.39709 3
      vertex -2.34615 -1.70458 0
      vertex -2.34615 -1.70458 3
    endloop
  endfacet
  facet normal 0.481756 -0.876305 0
    outer loop
      vertex 1.23476 -2.624 0
      vertex 1.5539 -2.44855 3
      vertex 1.23476 -2.624 3
    endloop
  endfacet
  facet normal 0.481756 -0.876305 0
    outer loop
      vertex 1.5539 -2.44855 3
      vertex 1.23476 -2.624 0
      vertex 1.5539 -2.44855 0
    endloop
  endfacet
  facet normal 0.982288 -0.187378 0
    outer loop
      vertex 2.80889 -0.7212 3
      vertex 2.87713 -0.363466 0
      vertex 2.87713 -0.363466 3
    endloop
  endfacet
  facet normal 0.982288 -0.187378 0
    outer loop
      vertex 2.87713 -0.363466 0
      vertex 2.80889 -0.7212 3
      vertex 2.80889 -0.7212 0
    endloop
  endfacet
  facet normal 0.951056 -0.309019 0
    outer loop
      vertex 2.69635 -1.06756 3
      vertex 2.80889 -0.7212 0
      vertex 2.80889 -0.7212 3
    endloop
  endfacet
  facet normal 0.951056 -0.309019 0
    outer loop
      vertex 2.80889 -0.7212 0
      vertex 2.69635 -1.06756 3
      vertex 2.69635 -1.06756 0
    endloop
  endfacet
  facet normal -0.770514 -0.637423 0
    outer loop
      vertex -2.11401 -1.98519 0
      vertex -2.34615 -1.70458 3
      vertex -2.34615 -1.70458 0
    endloop
  endfacet
  facet normal -0.770514 -0.637423 0
    outer loop
      vertex -2.34615 -1.70458 3
      vertex -2.11401 -1.98519 0
      vertex -2.11401 -1.98519 3
    endloop
  endfacet
  facet normal -0.982288 -0.187378 0
    outer loop
      vertex -2.80889 -0.7212 0
      vertex -2.87713 -0.363466 3
      vertex -2.87713 -0.363466 0
    endloop
  endfacet
  facet normal -0.982288 -0.187378 0
    outer loop
      vertex -2.87713 -0.363466 3
      vertex -2.80889 -0.7212 0
      vertex -2.80889 -0.7212 3
    endloop
  endfacet
  facet normal -0.998026 -0.0627978 0
    outer loop
      vertex -2.87713 -0.363466 0
      vertex -2.9 0 3
      vertex -2.9 0 0
    endloop
  endfacet
  facet normal -0.998026 -0.0627978 0
    outer loop
      vertex -2.9 0 3
      vertex -2.87713 -0.363466 0
      vertex -2.87713 -0.363466 3
    endloop
  endfacet
  facet normal -0.951056 -0.309019 0
    outer loop
      vertex -2.69635 -1.06756 0
      vertex -2.80889 -0.7212 3
      vertex -2.80889 -0.7212 0
    endloop
  endfacet
  facet normal -0.951056 -0.309019 0
    outer loop
      vertex -2.80889 -0.7212 3
      vertex -2.69635 -1.06756 0
      vertex -2.69635 -1.06756 3
    endloop
  endfacet
  facet normal 0.587783 -0.809019 0
    outer loop
      vertex 1.5539 -2.44855 0
      vertex 1.84853 -2.23449 3
      vertex 1.5539 -2.44855 3
    endloop
  endfacet
  facet normal 0.587783 -0.809019 0
    outer loop
      vertex 1.84853 -2.23449 3
      vertex 1.5539 -2.44855 0
      vertex 1.84853 -2.23449 0
    endloop
  endfacet
  facet normal 0.248692 -0.968583 0
    outer loop
      vertex 0.543406 -2.84863 0
      vertex 0.896149 -2.75806 3
      vertex 0.543406 -2.84863 3
    endloop
  endfacet
  facet normal 0.248692 -0.968583 0
    outer loop
      vertex 0.896149 -2.75806 3
      vertex 0.543406 -2.84863 0
      vertex 0.896149 -2.75806 0
    endloop
  endfacet
  facet normal 0.844327 -0.535829 0
    outer loop
      vertex 2.34615 -1.70458 3
      vertex 2.54129 -1.39709 0
      vertex 2.54129 -1.39709 3
    endloop
  endfacet
  facet normal 0.844327 -0.535829 0
    outer loop
      vertex 2.54129 -1.39709 0
      vertex 2.34615 -1.70458 3
      vertex 2.34615 -1.70458 0
    endloop
  endfacet
  facet normal 0.770514 -0.637423 0
    outer loop
      vertex 2.11401 -1.98519 3
      vertex 2.34615 -1.70458 0
      vertex 2.34615 -1.70458 3
    endloop
  endfacet
  facet normal 0.770514 -0.637423 0
    outer loop
      vertex 2.34615 -1.70458 0
      vertex 2.11401 -1.98519 3
      vertex 2.11401 -1.98519 0
    endloop
  endfacet
  facet normal -0.125348 -0.992113 0
    outer loop
      vertex -0.543406 -2.84863 0
      vertex -0.182092 -2.89428 3
      vertex -0.543406 -2.84863 3
    endloop
  endfacet
  facet normal -0.125348 -0.992113 -0
    outer loop
      vertex -0.182092 -2.89428 3
      vertex -0.543406 -2.84863 0
      vertex -0.182092 -2.89428 0
    endloop
  endfacet
  facet normal -0.368111 -0.929782 0
    outer loop
      vertex -1.23476 -2.624 0
      vertex -0.896149 -2.75806 3
      vertex -1.23476 -2.624 3
    endloop
  endfacet
  facet normal -0.368111 -0.929782 -0
    outer loop
      vertex -0.896149 -2.75806 3
      vertex -1.23476 -2.624 0
      vertex -0.896149 -2.75806 0
    endloop
  endfacet
  facet normal -0.248692 -0.968583 0
    outer loop
      vertex -0.896149 -2.75806 0
      vertex -0.543406 -2.84863 3
      vertex -0.896149 -2.75806 3
    endloop
  endfacet
  facet normal -0.248692 -0.968583 -0
    outer loop
      vertex -0.543406 -2.84863 3
      vertex -0.896149 -2.75806 0
      vertex -0.543406 -2.84863 0
    endloop
  endfacet
  facet normal 0.684544 -0.728972 0
    outer loop
      vertex 1.84853 -2.23449 0
      vertex 2.11401 -1.98519 3
      vertex 1.84853 -2.23449 3
    endloop
  endfacet
  facet normal 0.684544 -0.728972 0
    outer loop
      vertex 2.11401 -1.98519 3
      vertex 1.84853 -2.23449 0
      vertex 2.11401 -1.98519 0
    endloop
  endfacet
  facet normal -0.481756 -0.876305 0
    outer loop
      vertex -1.5539 -2.44855 0
      vertex -1.23476 -2.624 3
      vertex -1.5539 -2.44855 3
    endloop
  endfacet
  facet normal -0.481756 -0.876305 -0
    outer loop
      vertex -1.23476 -2.624 3
      vertex -1.5539 -2.44855 0
      vertex -1.23476 -2.624 0
    endloop
  endfacet
  facet normal -0.587783 -0.809019 0
    outer loop
      vertex -1.84853 -2.23449 0
      vertex -1.5539 -2.44855 3
      vertex -1.84853 -2.23449 3
    endloop
  endfacet
  facet normal -0.587783 -0.809019 -0
    outer loop
      vertex -1.5539 -2.44855 3
      vertex -1.84853 -2.23449 0
      vertex -1.5539 -2.44855 0
    endloop
  endfacet
  facet normal 0 0 -1
    outer loop
      vertex 1.78581 -0.225599 -10
      vertex 1.78581 0.225599 -10
      vertex 1.8 0 -10
    endloop
  endfacet
  facet normal 0 0 -1
    outer loop
      vertex 1.74345 -0.447641 -10
      vertex 1.78581 0.225599 -10
      vertex 1.78581 -0.225599 -10
    endloop
  endfacet
  facet normal 0 0 -1
    outer loop
      vertex 1.74345 -0.447641 -10
      vertex 1.74345 0.447641 -10
      vertex 1.78581 0.225599 -10
    endloop
  endfacet
  facet normal 0 0 -1
    outer loop
      vertex 1.6736 -0.662623 -10
      vertex 1.74345 0.447641 -10
      vertex 1.74345 -0.447641 -10
    endloop
  endfacet
  facet normal 0 0 -1
    outer loop
      vertex 1.6736 -0.662623 -10
      vertex 1.6736 0.662623 -10
      vertex 1.74345 0.447641 -10
    endloop
  endfacet
  facet normal 0 0 -1
    outer loop
      vertex 1.57735 -0.867156 -10
      vertex 1.6736 0.662623 -10
      vertex 1.6736 -0.662623 -10
    endloop
  endfacet
  facet normal 0 0 -1
    outer loop
      vertex 1.57735 -0.867156 -10
      vertex 1.57735 0.867156 -10
      vertex 1.6736 0.662623 -10
    endloop
  endfacet
  facet normal 0 0 -1
    outer loop
      vertex 1.45623 -1.05801 -10
      vertex 1.57735 0.867156 -10
      vertex 1.57735 -0.867156 -10
    endloop
  endfacet
  facet normal 0 0 -1
    outer loop
      vertex 1.45623 -1.05801 -10
      vertex 1.45623 1.05801 -10
      vertex 1.57735 0.867156 -10
    endloop
  endfacet
  facet normal 0 0 -1
    outer loop
      vertex 1.31214 -1.23218 -10
      vertex 1.45623 1.05801 -10
      vertex 1.45623 -1.05801 -10
    endloop
  endfacet
  facet normal 0 0 -1
    outer loop
      vertex 1.31214 -1.23218 -10
      vertex 1.31214 1.23218 -10
      vertex 1.45623 1.05801 -10
    endloop
  endfacet
  facet normal 0 0 -1
    outer loop
      vertex 1.14736 -1.38692 -10
      vertex 1.31214 1.23218 -10
      vertex 1.31214 -1.23218 -10
    endloop
  endfacet
  facet normal 0 0 -1
    outer loop
      vertex 1.14736 -1.38692 -10
      vertex 1.14736 1.38692 -10
      vertex 1.31214 1.23218 -10
    endloop
  endfacet
  facet normal 0 0 -1
    outer loop
      vertex 0.964488 -1.51979 -10
      vertex 1.14736 1.38692 -10
      vertex 1.14736 -1.38692 -10
    endloop
  endfacet
  facet normal 0 0 -1
    outer loop
      vertex 0.964488 -1.51979 -10
      vertex 0.964488 1.51979 -10
      vertex 1.14736 1.38692 -10
    endloop
  endfacet
  facet normal 0 0 -1
    outer loop
      vertex 0.766402 -1.62869 -10
      vertex 0.964488 1.51979 -10
      vertex 0.964488 -1.51979 -10
    endloop
  endfacet
  facet normal 0 0 -1
    outer loop
      vertex 0.766402 -1.62869 -10
      vertex 0.766402 1.62869 -10
      vertex 0.964488 1.51979 -10
    endloop
  endfacet
  facet normal 0 0 -1
    outer loop
      vertex 0.556231 -1.7119 -10
      vertex 0.766402 1.62869 -10
      vertex 0.766402 -1.62869 -10
    endloop
  endfacet
  facet normal 0 0 -1
    outer loop
      vertex 0.556231 -1.7119 -10
      vertex 0.556231 1.7119 -10
      vertex 0.766402 1.62869 -10
    endloop
  endfacet
  facet normal 0 0 -1
    outer loop
      vertex 0.337286 -1.76812 -10
      vertex 0.556231 1.7119 -10
      vertex 0.556231 -1.7119 -10
    endloop
  endfacet
  facet normal 0 0 -1
    outer loop
      vertex 0.337286 -1.76812 -10
      vertex 0.337286 1.76812 -10
      vertex 0.556231 1.7119 -10
    endloop
  endfacet
  facet normal 0 0 -1
    outer loop
      vertex 0.113023 -1.79645 -10
      vertex 0.337286 1.76812 -10
      vertex 0.337286 -1.76812 -10
    endloop
  endfacet
  facet normal 0 0 -1
    outer loop
      vertex 0.113023 -1.79645 -10
      vertex 0.113023 1.79645 -10
      vertex 0.337286 1.76812 -10
    endloop
  endfacet
  facet normal 0 0 -1
    outer loop
      vertex -0.113023 -1.79645 -10
      vertex 0.113023 1.79645 -10
      vertex 0.113023 -1.79645 -10
    endloop
  endfacet
  facet normal 0 0 -1
    outer loop
      vertex -0.113023 -1.79645 -10
      vertex -0.113023 1.79645 -10
      vertex 0.113023 1.79645 -10
    endloop
  endfacet
  facet normal 0 0 -1
    outer loop
      vertex -0.337286 -1.76812 -10
      vertex -0.113023 1.79645 -10
      vertex -0.113023 -1.79645 -10
    endloop
  endfacet
  facet normal 0 0 -1
    outer loop
      vertex -0.337286 -1.76812 -10
      vertex -0.337286 1.76812 -10
      vertex -0.113023 1.79645 -10
    endloop
  endfacet
  facet normal 0 0 -1
    outer loop
      vertex -0.556231 -1.7119 -10
      vertex -0.337286 1.76812 -10
      vertex -0.337286 -1.76812 -10
    endloop
  endfacet
  facet normal 0 0 -1
    outer loop
      vertex -0.556231 -1.7119 -10
      vertex -0.556231 1.7119 -10
      vertex -0.337286 1.76812 -10
    endloop
  endfacet
  facet normal 0 0 -1
    outer loop
      vertex -0.766402 -1.62869 -10
      vertex -0.556231 1.7119 -10
      vertex -0.556231 -1.7119 -10
    endloop
  endfacet
  facet normal 0 0 -1
    outer loop
      vertex -0.766402 -1.62869 -10
      vertex -0.766402 1.62869 -10
      vertex -0.556231 1.7119 -10
    endloop
  endfacet
  facet normal 0 0 -1
    outer loop
      vertex -0.964488 -1.51979 -10
      vertex -0.766402 1.62869 -10
      vertex -0.766402 -1.62869 -10
    endloop
  endfacet
  facet normal 0 0 -1
    outer loop
      vertex -0.964488 -1.51979 -10
      vertex -0.964488 1.51979 -10
      vertex -0.766402 1.62869 -10
    endloop
  endfacet
  facet normal 0 0 -1
    outer loop
      vertex -1.14736 -1.38692 -10
      vertex -0.964488 1.51979 -10
      vertex -0.964488 -1.51979 -10
    endloop
  endfacet
  facet normal 0 0 -1
    outer loop
      vertex -1.14736 -1.38692 -10
      vertex -1.14736 1.38692 -10
      vertex -0.964488 1.51979 -10
    endloop
  endfacet
  facet normal 0 0 -1
    outer loop
      vertex -1.31214 -1.23218 -10
      vertex -1.14736 1.38692 -10
      vertex -1.14736 -1.38692 -10
    endloop
  endfacet
  facet normal 0 0 -1
    outer loop
      vertex -1.31214 -1.23218 -10
      vertex -1.31214 1.23218 -10
      vertex -1.14736 1.38692 -10
    endloop
  endfacet
  facet normal 0 0 -1
    outer loop
      vertex -1.45623 -1.05801 -10
      vertex -1.31214 1.23218 -10
      vertex -1.31214 -1.23218 -10
    endloop
  endfacet
  facet normal 0 0 -1
    outer loop
      vertex -1.45623 -1.05801 -10
      vertex -1.45623 1.05801 -10
      vertex -1.31214 1.23218 -10
    endloop
  endfacet
  facet normal 0 0 -1
    outer loop
      vertex -1.57735 -0.867156 -10
      vertex -1.45623 1.05801 -10
      vertex -1.45623 -1.05801 -10
    endloop
  endfacet
  facet normal 0 0 -1
    outer loop
      vertex -1.57735 -0.867156 -10
      vertex -1.57735 0.867156 -10
      vertex -1.45623 1.05801 -10
    endloop
  endfacet
  facet normal 0 0 -1
    outer loop
      vertex -1.6736 -0.662623 -10
      vertex -1.57735 0.867156 -10
      vertex -1.57735 -0.867156 -10
    endloop
  endfacet
  facet normal 0 0 -1
    outer loop
      vertex -1.6736 -0.662623 -10
      vertex -1.6736 0.662623 -10
      vertex -1.57735 0.867156 -10
    endloop
  endfacet
  facet normal 0 0 -1
    outer loop
      vertex -1.74345 -0.447641 -10
      vertex -1.6736 0.662623 -10
      vertex -1.6736 -0.662623 -10
    endloop
  endfacet
  facet normal 0 0 -1
    outer loop
      vertex -1.74345 -0.447641 -10
      vertex -1.74345 0.447641 -10
      vertex -1.6736 0.662623 -10
    endloop
  endfacet
  facet normal 0 0 -1
    outer loop
      vertex -1.78581 -0.225599 -10
      vertex -1.74345 0.447641 -10
      vertex -1.74345 -0.447641 -10
    endloop
  endfacet
  facet normal 0 0 -1
    outer loop
      vertex -1.78581 -0.225599 -10
      vertex -1.78581 0.225599 -10
      vertex -1.74345 0.447641 -10
    endloop
  endfacet
  facet normal 0 -0 -1
    outer loop
      vertex -1.78581 0.225599 -10
      vertex -1.78581 -0.225599 -10
      vertex -1.8 0 -10
    endloop
  endfacet
  facet normal 0.998028 0.0627752 0
    outer loop
      vertex 1.8 0 0
      vertex 1.78581 0.225599 -10
      vertex 1.78581 0.225599 0
    endloop
  endfacet
  facet normal 0.998028 0.0627752 0
    outer loop
      vertex 1.78581 0.225599 -10
      vertex 1.8 0 0
      vertex 1.8 0 -10
    endloop
  endfacet
  facet normal -0.998028 0.0627752 0
    outer loop
      vertex -1.8 0 -10
      vertex -1.78581 0.225599 0
      vertex -1.78581 0.225599 -10
    endloop
  endfacet
  facet normal -0.998028 0.0627752 0
    outer loop
      vertex -1.78581 0.225599 0
      vertex -1.8 0 -10
      vertex -1.8 0 0
    endloop
  endfacet
  facet normal 0 1 -0
    outer loop
      vertex 0.113023 1.79645 -10
      vertex -0.113023 1.79645 0
      vertex 0.113023 1.79645 0
    endloop
  endfacet
  facet normal 0 1 0
    outer loop
      vertex -0.113023 1.79645 0
      vertex 0.113023 1.79645 -10
      vertex -0.113023 1.79645 -10
    endloop
  endfacet
  facet normal 0 -1 0
    outer loop
      vertex -0.113023 -1.79645 -10
      vertex 0.113023 -1.79645 0
      vertex -0.113023 -1.79645 0
    endloop
  endfacet
  facet normal 0 -1 -0
    outer loop
      vertex 0.113023 -1.79645 0
      vertex -0.113023 -1.79645 -10
      vertex 0.113023 -1.79645 -10
    endloop
  endfacet
  facet normal 0.68455 0.728966 -0
    outer loop
      vertex 1.31214 1.23218 -10
      vertex 1.14736 1.38692 0
      vertex 1.31214 1.23218 0
    endloop
  endfacet
  facet normal 0.68455 0.728966 0
    outer loop
      vertex 1.14736 1.38692 0
      vertex 1.31214 1.23218 -10
      vertex 1.14736 1.38692 -10
    endloop
  endfacet
  facet normal -0.68455 0.728966 0
    outer loop
      vertex -1.14736 1.38692 -10
      vertex -1.31214 1.23218 0
      vertex -1.14736 1.38692 0
    endloop
  endfacet
  facet normal -0.68455 0.728966 0
    outer loop
      vertex -1.31214 1.23218 0
      vertex -1.14736 1.38692 -10
      vertex -1.31214 1.23218 -10
    endloop
  endfacet
  facet normal -0.368115 0.92978 0
    outer loop
      vertex -0.556231 1.7119 -10
      vertex -0.766402 1.62869 0
      vertex -0.556231 1.7119 0
    endloop
  endfacet
  facet normal -0.368115 0.92978 0
    outer loop
      vertex -0.766402 1.62869 0
      vertex -0.556231 1.7119 -10
      vertex -0.766402 1.62869 -10
    endloop
  endfacet
  facet normal 0.90482 0.425794 0
    outer loop
      vertex 1.6736 0.662623 0
      vertex 1.57735 0.867156 -10
      vertex 1.57735 0.867156 0
    endloop
  endfacet
  facet normal 0.90482 0.425794 0
    outer loop
      vertex 1.57735 0.867156 -10
      vertex 1.6736 0.662623 0
      vertex 1.6736 0.662623 -10
    endloop
  endfacet
  facet normal 0.982285 0.187395 0
    outer loop
      vertex 1.78581 0.225599 0
      vertex 1.74345 0.447641 -10
      vertex 1.74345 0.447641 0
    endloop
  endfacet
  facet normal 0.982285 0.187395 0
    outer loop
      vertex 1.74345 0.447641 -10
      vertex 1.78581 0.225599 0
      vertex 1.78581 0.225599 -10
    endloop
  endfacet
  facet normal 0.368115 0.92978 -0
    outer loop
      vertex 0.766402 1.62869 -10
      vertex 0.556231 1.7119 0
      vertex 0.766402 1.62869 0
    endloop
  endfacet
  facet normal 0.368115 0.92978 0
    outer loop
      vertex 0.556231 1.7119 0
      vertex 0.766402 1.62869 -10
      vertex 0.556231 1.7119 -10
    endloop
  endfacet
  facet normal 0.248708 0.968578 -0
    outer loop
      vertex 0.556231 1.7119 -10
      vertex 0.337286 1.76812 0
      vertex 0.556231 1.7119 0
    endloop
  endfacet
  facet normal 0.248708 0.968578 0
    outer loop
      vertex 0.337286 1.76812 0
      vertex 0.556231 1.7119 -10
      vertex 0.337286 1.76812 -10
    endloop
  endfacet
  facet normal 0.587802 0.809005 -0
    outer loop
      vertex 1.14736 1.38692 -10
      vertex 0.964488 1.51979 0
      vertex 1.14736 1.38692 0
    endloop
  endfacet
  facet normal 0.587802 0.809005 0
    outer loop
      vertex 0.964488 1.51979 0
      vertex 1.14736 1.38692 -10
      vertex 0.964488 1.51979 -10
    endloop
  endfacet
  facet normal -0.90482 0.425794 0
    outer loop
      vertex -1.6736 0.662623 -10
      vertex -1.57735 0.867156 0
      vertex -1.57735 0.867156 -10
    endloop
  endfacet
  facet normal -0.90482 0.425794 0
    outer loop
      vertex -1.57735 0.867156 0
      vertex -1.6736 0.662623 -10
      vertex -1.6736 0.662623 0
    endloop
  endfacet
  facet normal -0.844327 0.535828 0
    outer loop
      vertex -1.57735 0.867156 -10
      vertex -1.45623 1.05801 0
      vertex -1.45623 1.05801 -10
    endloop
  endfacet
  facet normal -0.844327 0.535828 0
    outer loop
      vertex -1.45623 1.05801 0
      vertex -1.57735 0.867156 -10
      vertex -1.57735 0.867156 0
    endloop
  endfacet
  facet normal -0.951059 0.309009 0
    outer loop
      vertex -1.74345 0.447641 -10
      vertex -1.6736 0.662623 0
      vertex -1.6736 0.662623 -10
    endloop
  endfacet
  facet normal -0.951059 0.309009 0
    outer loop
      vertex -1.6736 0.662623 0
      vertex -1.74345 0.447641 -10
      vertex -1.74345 0.447641 0
    endloop
  endfacet
  facet normal -0.587802 0.809005 0
    outer loop
      vertex -0.964488 1.51979 -10
      vertex -1.14736 1.38692 0
      vertex -0.964488 1.51979 0
    endloop
  endfacet
  facet normal -0.587802 0.809005 0
    outer loop
      vertex -1.14736 1.38692 0
      vertex -0.964488 1.51979 -10
      vertex -1.14736 1.38692 -10
    endloop
  endfacet
  facet normal -0.248708 0.968578 0
    outer loop
      vertex -0.337286 1.76812 -10
      vertex -0.556231 1.7119 0
      vertex -0.337286 1.76812 0
    endloop
  endfacet
  facet normal -0.248708 0.968578 0
    outer loop
      vertex -0.556231 1.7119 0
      vertex -0.337286 1.76812 -10
      vertex -0.556231 1.7119 -10
    endloop
  endfacet
  facet normal 0.951059 -0.309009 0
    outer loop
      vertex 1.6736 -0.662623 0
      vertex 1.74345 -0.447641 -10
      vertex 1.74345 -0.447641 0
    endloop
  endfacet
  facet normal 0.951059 -0.309009 0
    outer loop
      vertex 1.74345 -0.447641 -10
      vertex 1.6736 -0.662623 0
      vertex 1.6736 -0.662623 -10
    endloop
  endfacet
  facet normal 0.125329 -0.992115 0
    outer loop
      vertex 0.113023 -1.79645 -10
      vertex 0.337286 -1.76812 0
      vertex 0.113023 -1.79645 0
    endloop
  endfacet
  facet normal 0.125329 -0.992115 0
    outer loop
      vertex 0.337286 -1.76812 0
      vertex 0.113023 -1.79645 -10
      vertex 0.337286 -1.76812 -10
    endloop
  endfacet
  facet normal 0.951059 0.309009 0
    outer loop
      vertex 1.74345 0.447641 0
      vertex 1.6736 0.662623 -10
      vertex 1.6736 0.662623 0
    endloop
  endfacet
  facet normal 0.951059 0.309009 0
    outer loop
      vertex 1.6736 0.662623 -10
      vertex 1.74345 0.447641 0
      vertex 1.74345 0.447641 -10
    endloop
  endfacet
  facet normal 0.770504 0.637435 0
    outer loop
      vertex 1.45623 1.05801 0
      vertex 1.31214 1.23218 -10
      vertex 1.31214 1.23218 0
    endloop
  endfacet
  facet normal 0.770504 0.637435 0
    outer loop
      vertex 1.31214 1.23218 -10
      vertex 1.45623 1.05801 0
      vertex 1.45623 1.05801 -10
    endloop
  endfacet
  facet normal 0.844327 0.535828 0
    outer loop
      vertex 1.57735 0.867156 0
      vertex 1.45623 1.05801 -10
      vertex 1.45623 1.05801 0
    endloop
  endfacet
  facet normal 0.844327 0.535828 0
    outer loop
      vertex 1.45623 1.05801 -10
      vertex 1.57735 0.867156 0
      vertex 1.57735 0.867156 -10
    endloop
  endfacet
  facet normal 0.125329 0.992115 -0
    outer loop
      vertex 0.337286 1.76812 -10
      vertex 0.113023 1.79645 0
      vertex 0.337286 1.76812 0
    endloop
  endfacet
  facet normal 0.125329 0.992115 0
    outer loop
      vertex 0.113023 1.79645 0
      vertex 0.337286 1.76812 -10
      vertex 0.113023 1.79645 -10
    endloop
  endfacet
  facet normal 0.481758 0.876304 -0
    outer loop
      vertex 0.964488 1.51979 -10
      vertex 0.766402 1.62869 0
      vertex 0.964488 1.51979 0
    endloop
  endfacet
  facet normal 0.481758 0.876304 0
    outer loop
      vertex 0.766402 1.62869 0
      vertex 0.964488 1.51979 -10
      vertex 0.766402 1.62869 -10
    endloop
  endfacet
  facet normal -0.770504 0.637435 0
    outer loop
      vertex -1.45623 1.05801 -10
      vertex -1.31214 1.23218 0
      vertex -1.31214 1.23218 -10
    endloop
  endfacet
  facet normal -0.770504 0.637435 0
    outer loop
      vertex -1.31214 1.23218 0
      vertex -1.45623 1.05801 -10
      vertex -1.45623 1.05801 0
    endloop
  endfacet
  facet normal -0.982285 0.187395 0
    outer loop
      vertex -1.78581 0.225599 -10
      vertex -1.74345 0.447641 0
      vertex -1.74345 0.447641 -10
    endloop
  endfacet
  facet normal -0.982285 0.187395 0
    outer loop
      vertex -1.74345 0.447641 0
      vertex -1.78581 0.225599 -10
      vertex -1.78581 0.225599 0
    endloop
  endfacet
  facet normal -0.481758 0.876304 0
    outer loop
      vertex -0.766402 1.62869 -10
      vertex -0.964488 1.51979 0
      vertex -0.766402 1.62869 0
    endloop
  endfacet
  facet normal -0.481758 0.876304 0
    outer loop
      vertex -0.964488 1.51979 0
      vertex -0.766402 1.62869 -10
      vertex -0.964488 1.51979 -10
    endloop
  endfacet
  facet normal -0.125329 0.992115 0
    outer loop
      vertex -0.113023 1.79645 -10
      vertex -0.337286 1.76812 0
      vertex -0.113023 1.79645 0
    endloop
  endfacet
  facet normal -0.125329 0.992115 0
    outer loop
      vertex -0.337286 1.76812 0
      vertex -0.113023 1.79645 -10
      vertex -0.337286 1.76812 -10
    endloop
  endfacet
  facet normal 0.998028 -0.0627752 0
    outer loop
      vertex 1.78581 -0.225599 0
      vertex 1.8 0 -10
      vertex 1.8 0 0
    endloop
  endfacet
  facet normal 0.998028 -0.0627752 0
    outer loop
      vertex 1.8 0 -10
      vertex 1.78581 -0.225599 0
      vertex 1.78581 -0.225599 -10
    endloop
  endfacet
  facet normal 0.68455 -0.728966 0
    outer loop
      vertex 1.14736 -1.38692 -10
      vertex 1.31214 -1.23218 0
      vertex 1.14736 -1.38692 0
    endloop
  endfacet
  facet normal 0.68455 -0.728966 0
    outer loop
      vertex 1.31214 -1.23218 0
      vertex 1.14736 -1.38692 -10
      vertex 1.31214 -1.23218 -10
    endloop
  endfacet
  facet normal 0.982285 -0.187395 0
    outer loop
      vertex 1.74345 -0.447641 0
      vertex 1.78581 -0.225599 -10
      vertex 1.78581 -0.225599 0
    endloop
  endfacet
  facet normal 0.982285 -0.187395 0
    outer loop
      vertex 1.78581 -0.225599 -10
      vertex 1.74345 -0.447641 0
      vertex 1.74345 -0.447641 -10
    endloop
  endfacet
  facet normal 0.368115 -0.92978 0
    outer loop
      vertex 0.556231 -1.7119 -10
      vertex 0.766402 -1.62869 0
      vertex 0.556231 -1.7119 0
    endloop
  endfacet
  facet normal 0.368115 -0.92978 0
    outer loop
      vertex 0.766402 -1.62869 0
      vertex 0.556231 -1.7119 -10
      vertex 0.766402 -1.62869 -10
    endloop
  endfacet
  facet normal 0.481758 -0.876304 0
    outer loop
      vertex 0.766402 -1.62869 -10
      vertex 0.964488 -1.51979 0
      vertex 0.766402 -1.62869 0
    endloop
  endfacet
  facet normal 0.481758 -0.876304 0
    outer loop
      vertex 0.964488 -1.51979 0
      vertex 0.766402 -1.62869 -10
      vertex 0.964488 -1.51979 -10
    endloop
  endfacet
  facet normal 0.90482 -0.425794 0
    outer loop
      vertex 1.57735 -0.867156 0
      vertex 1.6736 -0.662623 -10
      vertex 1.6736 -0.662623 0
    endloop
  endfacet
  facet normal 0.90482 -0.425794 0
    outer loop
      vertex 1.6736 -0.662623 -10
      vertex 1.57735 -0.867156 0
      vertex 1.57735 -0.867156 -10
    endloop
  endfacet
  facet normal 0.770504 -0.637435 0
    outer loop
      vertex 1.31214 -1.23218 0
      vertex 1.45623 -1.05801 -10
      vertex 1.45623 -1.05801 0
    endloop
  endfacet
  facet normal 0.770504 -0.637435 0
    outer loop
      vertex 1.45623 -1.05801 -10
      vertex 1.31214 -1.23218 0
      vertex 1.31214 -1.23218 -10
    endloop
  endfacet
  facet normal -0.587802 -0.809005 0
    outer loop
      vertex -1.14736 -1.38692 -10
      vertex -0.964488 -1.51979 0
      vertex -1.14736 -1.38692 0
    endloop
  endfacet
  facet normal -0.587802 -0.809005 -0
    outer loop
      vertex -0.964488 -1.51979 0
      vertex -1.14736 -1.38692 -10
      vertex -0.964488 -1.51979 -10
    endloop
  endfacet
  facet normal -0.248708 -0.968578 0
    outer loop
      vertex -0.556231 -1.7119 -10
      vertex -0.337286 -1.76812 0
      vertex -0.556231 -1.7119 0
    endloop
  endfacet
  facet normal -0.248708 -0.968578 -0
    outer loop
      vertex -0.337286 -1.76812 0
      vertex -0.556231 -1.7119 -10
      vertex -0.337286 -1.76812 -10
    endloop
  endfacet
  facet normal -0.951059 -0.309009 0
    outer loop
      vertex -1.6736 -0.662623 -10
      vertex -1.74345 -0.447641 0
      vertex -1.74345 -0.447641 -10
    endloop
  endfacet
  facet normal -0.951059 -0.309009 0
    outer loop
      vertex -1.74345 -0.447641 0
      vertex -1.6736 -0.662623 -10
      vertex -1.6736 -0.662623 0
    endloop
  endfacet
  facet normal -0.998028 -0.0627752 0
    outer loop
      vertex -1.78581 -0.225599 -10
      vertex -1.8 0 0
      vertex -1.8 0 -10
    endloop
  endfacet
  facet normal -0.998028 -0.0627752 0
    outer loop
      vertex -1.8 0 0
      vertex -1.78581 -0.225599 -10
      vertex -1.78581 -0.225599 0
    endloop
  endfacet
  facet normal 0.248708 -0.968578 0
    outer loop
      vertex 0.337286 -1.76812 -10
      vertex 0.556231 -1.7119 0
      vertex 0.337286 -1.76812 0
    endloop
  endfacet
  facet normal 0.248708 -0.968578 0
    outer loop
      vertex 0.556231 -1.7119 0
      vertex 0.337286 -1.76812 -10
      vertex 0.556231 -1.7119 -10
    endloop
  endfacet
  facet normal 0.587802 -0.809005 0
    outer loop
      vertex 0.964488 -1.51979 -10
      vertex 1.14736 -1.38692 0
      vertex 0.964488 -1.51979 0
    endloop
  endfacet
  facet normal 0.587802 -0.809005 0
    outer loop
      vertex 1.14736 -1.38692 0
      vertex 0.964488 -1.51979 -10
      vertex 1.14736 -1.38692 -10
    endloop
  endfacet
  facet normal 0.844327 -0.535828 0
    outer loop
      vertex 1.45623 -1.05801 0
      vertex 1.57735 -0.867156 -10
      vertex 1.57735 -0.867156 0
    endloop
  endfacet
  facet normal 0.844327 -0.535828 0
    outer loop
      vertex 1.57735 -0.867156 -10
      vertex 1.45623 -1.05801 0
      vertex 1.45623 -1.05801 -10
    endloop
  endfacet
  facet normal -0.125329 -0.992115 0
    outer loop
      vertex -0.337286 -1.76812 -10
      vertex -0.113023 -1.79645 0
      vertex -0.337286 -1.76812 0
    endloop
  endfacet
  facet normal -0.125329 -0.992115 -0
    outer loop
      vertex -0.113023 -1.79645 0
      vertex -0.337286 -1.76812 -10
      vertex -0.113023 -1.79645 -10
    endloop
  endfacet
  facet normal -0.68455 -0.728966 0
    outer loop
      vertex -1.31214 -1.23218 -10
      vertex -1.14736 -1.38692 0
      vertex -1.31214 -1.23218 0
    endloop
  endfacet
  facet normal -0.68455 -0.728966 -0
    outer loop
      vertex -1.14736 -1.38692 0
      vertex -1.31214 -1.23218 -10
      vertex -1.14736 -1.38692 -10
    endloop
  endfacet
  facet normal -0.90482 -0.425794 0
    outer loop
      vertex -1.57735 -0.867156 -10
      vertex -1.6736 -0.662623 0
      vertex -1.6736 -0.662623 -10
    endloop
  endfacet
  facet normal -0.90482 -0.425794 0
    outer loop
      vertex -1.6736 -0.662623 0
      vertex -1.57735 -0.867156 -10
      vertex -1.57735 -0.867156 0
    endloop
  endfacet
  facet normal -0.982285 -0.187395 0
    outer loop
      vertex -1.74345 -0.447641 -10
      vertex -1.78581 -0.225599 0
      vertex -1.78581 -0.225599 -10
    endloop
  endfacet
  facet normal -0.982285 -0.187395 0
    outer loop
      vertex -1.78581 -0.225599 0
      vertex -1.74345 -0.447641 -10
      vertex -1.74345 -0.447641 0
    endloop
  endfacet
  facet normal -0.368115 -0.92978 0
    outer loop
      vertex -0.766402 -1.62869 -10
      vertex -0.556231 -1.7119 0
      vertex -0.766402 -1.62869 0
    endloop
  endfacet
  facet normal -0.368115 -0.92978 -0
    outer loop
      vertex -0.556231 -1.7119 0
      vertex -0.766402 -1.62869 -10
      vertex -0.556231 -1.7119 -10
    endloop
  endfacet
  facet normal -0.481758 -0.876304 0
    outer loop
      vertex -0.964488 -1.51979 -10
      vertex -0.766402 -1.62869 0
      vertex -0.964488 -1.51979 0
    endloop
  endfacet
  facet normal -0.481758 -0.876304 -0
    outer loop
      vertex -0.766402 -1.62869 0
      vertex -0.964488 -1.51979 -10
      vertex -0.766402 -1.62869 -10
    endloop
  endfacet
  facet normal -0.844327 -0.535828 0
    outer loop
      vertex -1.45623 -1.05801 -10
      vertex -1.57735 -0.867156 0
      vertex -1.57735 -0.867156 -10
    endloop
  endfacet
  facet normal -0.844327 -0.535828 0
    outer loop
      vertex -1.57735 -0.867156 0
      vertex -1.45623 -1.05801 -10
      vertex -1.45623 -1.05801 0
    endloop
  endfacet
  facet normal -0.770504 -0.637435 0
    outer loop
      vertex -1.31214 -1.23218 -10
      vertex -1.45623 -1.05801 0
      vertex -1.45623 -1.05801 -10
    endloop
  endfacet
  facet normal -0.770504 -0.637435 0
    outer loop
      vertex -1.45623 -1.05801 0
      vertex -1.31214 -1.23218 -10
      vertex -1.31214 -1.23218 0
    endloop
  endfacet
endsolid OpenSCAD_Model
