  0
SECTION
  2
BLOCKS
  0
ENDSEC
  0
SECTION
  2
ENTITIES
  0
LINE
  8
0
 10
33.4369
 20
402.089
 11
34.0451
 21
402.245
  0
LINE
  8
0
 10
34.0451
 20
402.245
 11
34.6289
 21
402.476
  0
LINE
  8
0
 10
34.6289
 20
402.476
 11
35.1791
 21
402.778
  0
LINE
  8
0
 10
35.1791
 20
402.778
 11
35.6871
 21
403.147
  0
LINE
  8
0
 10
35.6871
 20
403.147
 11
36.1448
 21
403.577
  0
LINE
  8
0
 10
36.1448
 20
403.577
 11
36.5451
 21
404.061
  0
LINE
  8
0
 10
36.5451
 20
404.061
 11
36.8815
 21
404.591
  0
LINE
  8
0
 10
36.8815
 20
404.591
 11
37.1489
 21
405.159
  0
LINE
  8
0
 10
37.1489
 20
405.159
 11
37.3429
 21
405.757
  0
LINE
  8
0
 10
37.3429
 20
405.757
 11
37.4606
 21
406.373
  0
LINE
  8
0
 10
37.4606
 20
406.373
 11
37.5
 21
407
  0
LINE
  8
0
 10
37.5
 20
407
 11
37.5
 21
547
  0
LINE
  8
0
 10
37.5
 20
547
 11
37.4606
 21
547.627
  0
LINE
  8
0
 10
37.4606
 20
547.627
 11
37.3429
 21
548.243
  0
LINE
  8
0
 10
37.3429
 20
548.243
 11
37.1489
 21
548.841
  0
LINE
  8
0
 10
37.1489
 20
548.841
 11
36.8815
 21
549.409
  0
LINE
  8
0
 10
36.8815
 20
549.409
 11
36.5451
 21
549.939
  0
LINE
  8
0
 10
36.5451
 20
549.939
 11
36.1448
 21
550.423
  0
LINE
  8
0
 10
36.1448
 20
550.423
 11
35.6871
 21
550.853
  0
LINE
  8
0
 10
35.6871
 20
550.853
 11
35.1791
 21
551.222
  0
LINE
  8
0
 10
35.1791
 20
551.222
 11
34.6289
 21
551.524
  0
LINE
  8
0
 10
34.6289
 20
551.524
 11
34.0451
 21
551.755
  0
LINE
  8
0
 10
34.0451
 20
551.755
 11
33.4369
 21
551.911
  0
LINE
  8
0
 10
33.4369
 20
551.911
 11
32.8139
 21
551.99
  0
LINE
  8
0
 10
32.8139
 20
551.99
 11
-32.8139
 21
551.99
  0
LINE
  8
0
 10
-32.8139
 20
551.99
 11
-33.4369
 21
551.911
  0
LINE
  8
0
 10
-33.4369
 20
551.911
 11
-34.0451
 21
551.755
  0
LINE
  8
0
 10
-34.0451
 20
551.755
 11
-34.6289
 21
551.524
  0
LINE
  8
0
 10
-34.6289
 20
551.524
 11
-35.1791
 21
551.222
  0
LINE
  8
0
 10
-35.1791
 20
551.222
 11
-35.6871
 21
550.853
  0
LINE
  8
0
 10
-35.6871
 20
550.853
 11
-36.1448
 21
550.423
  0
LINE
  8
0
 10
-36.1448
 20
550.423
 11
-36.5451
 21
549.939
  0
LINE
  8
0
 10
-36.5451
 20
549.939
 11
-36.8815
 21
549.409
  0
LINE
  8
0
 10
-36.8815
 20
549.409
 11
-37.1489
 21
548.841
  0
LINE
  8
0
 10
-37.1489
 20
548.841
 11
-37.3429
 21
548.243
  0
LINE
  8
0
 10
-37.3429
 20
548.243
 11
-37.4606
 21
547.627
  0
LINE
  8
0
 10
-37.4606
 20
547.627
 11
-37.5
 21
547
  0
LINE
  8
0
 10
-37.5
 20
547
 11
-37.5
 21
407
  0
LINE
  8
0
 10
-37.5
 20
407
 11
-37.4606
 21
406.373
  0
LINE
  8
0
 10
-37.4606
 20
406.373
 11
-37.3429
 21
405.757
  0
LINE
  8
0
 10
-37.3429
 20
405.757
 11
-37.1489
 21
405.159
  0
LINE
  8
0
 10
-37.1489
 20
405.159
 11
-36.8815
 21
404.591
  0
LINE
  8
0
 10
-36.8815
 20
404.591
 11
-36.5451
 21
404.061
  0
LINE
  8
0
 10
-36.5451
 20
404.061
 11
-36.1448
 21
403.577
  0
LINE
  8
0
 10
-36.1448
 20
403.577
 11
-35.6871
 21
403.147
  0
LINE
  8
0
 10
-35.6871
 20
403.147
 11
-35.1791
 21
402.778
  0
LINE
  8
0
 10
-35.1791
 20
402.778
 11
-34.6289
 21
402.476
  0
LINE
  8
0
 10
-34.6289
 20
402.476
 11
-34.0451
 21
402.245
  0
LINE
  8
0
 10
-34.0451
 20
402.245
 11
-33.4369
 21
402.089
  0
LINE
  8
0
 10
-33.4369
 20
402.089
 11
-32.8139
 21
402.01
  0
LINE
  8
0
 10
-32.8139
 20
402.01
 11
32.8139
 21
402.01
  0
LINE
  8
0
 10
32.8139
 20
402.01
 11
33.4369
 21
402.089
  0
LINE
  8
0
 10
-32.1954
 20
404.393
 11
-32.5833
 21
404.442
  0
LINE
  8
0
 10
-32.5833
 20
404.442
 11
-32.9619
 21
404.539
  0
LINE
  8
0
 10
-32.9619
 20
404.539
 11
-33.3254
 21
404.683
  0
LINE
  8
0
 10
-33.3254
 20
404.683
 11
-33.668
 21
404.872
  0
LINE
  8
0
 10
-33.668
 20
404.872
 11
-33.9842
 21
405.101
  0
LINE
  8
0
 10
-33.9842
 20
405.101
 11
-34.2692
 21
405.369
  0
LINE
  8
0
 10
-34.2692
 20
405.369
 11
-34.5184
 21
405.67
  0
LINE
  8
0
 10
-34.5184
 20
405.67
 11
-34.7279
 21
406
  0
LINE
  8
0
 10
-34.7279
 20
406
 11
-34.8943
 21
406.354
  0
LINE
  8
0
 10
-34.8943
 20
406.354
 11
-35.0151
 21
406.726
  0
LINE
  8
0
 10
-35.0151
 20
406.726
 11
-35.0884
 21
407.11
  0
LINE
  8
0
 10
-35.0884
 20
407.11
 11
-35.1129
 21
407.5
  0
LINE
  8
0
 10
-35.1129
 20
407.5
 11
-35.1129
 21
546.5
  0
LINE
  8
0
 10
-35.1129
 20
546.5
 11
-35.0884
 21
546.89
  0
LINE
  8
0
 10
-35.0884
 20
546.89
 11
-35.0151
 21
547.274
  0
LINE
  8
0
 10
-35.0151
 20
547.274
 11
-34.8943
 21
547.646
  0
LINE
  8
0
 10
-34.8943
 20
547.646
 11
-34.7279
 21
548
  0
LINE
  8
0
 10
-34.7279
 20
548
 11
-34.5184
 21
548.33
  0
LINE
  8
0
 10
-34.5184
 20
548.33
 11
-34.2692
 21
548.631
  0
LINE
  8
0
 10
-34.2692
 20
548.631
 11
-33.9842
 21
548.899
  0
LINE
  8
0
 10
-33.9842
 20
548.899
 11
-33.668
 21
549.128
  0
LINE
  8
0
 10
-33.668
 20
549.128
 11
-33.3254
 21
549.317
  0
LINE
  8
0
 10
-33.3254
 20
549.317
 11
-32.9619
 21
549.461
  0
LINE
  8
0
 10
-32.9619
 20
549.461
 11
-32.5833
 21
549.558
  0
LINE
  8
0
 10
-32.5833
 20
549.558
 11
-32.1954
 21
549.607
  0
LINE
  8
0
 10
-32.1954
 20
549.607
 11
32.1954
 21
549.607
  0
LINE
  8
0
 10
32.1954
 20
549.607
 11
32.5833
 21
549.558
  0
LINE
  8
0
 10
32.5833
 20
549.558
 11
32.9619
 21
549.461
  0
LINE
  8
0
 10
32.9619
 20
549.461
 11
33.3254
 21
549.317
  0
LINE
  8
0
 10
33.3254
 20
549.317
 11
33.668
 21
549.128
  0
LINE
  8
0
 10
33.668
 20
549.128
 11
33.9842
 21
548.899
  0
LINE
  8
0
 10
33.9842
 20
548.899
 11
34.2692
 21
548.631
  0
LINE
  8
0
 10
34.2692
 20
548.631
 11
34.5184
 21
548.33
  0
LINE
  8
0
 10
34.5184
 20
548.33
 11
34.7279
 21
548
  0
LINE
  8
0
 10
34.7279
 20
548
 11
34.8943
 21
547.646
  0
LINE
  8
0
 10
34.8943
 20
547.646
 11
35.0151
 21
547.274
  0
LINE
  8
0
 10
35.0151
 20
547.274
 11
35.0884
 21
546.89
  0
LINE
  8
0
 10
35.0884
 20
546.89
 11
35.1129
 21
546.5
  0
LINE
  8
0
 10
35.1129
 20
546.5
 11
35.1129
 21
407.5
  0
LINE
  8
0
 10
35.1129
 20
407.5
 11
35.0884
 21
407.11
  0
LINE
  8
0
 10
35.0884
 20
407.11
 11
35.0151
 21
406.726
  0
LINE
  8
0
 10
35.0151
 20
406.726
 11
34.8943
 21
406.354
  0
LINE
  8
0
 10
34.8943
 20
406.354
 11
34.7279
 21
406
  0
LINE
  8
0
 10
34.7279
 20
406
 11
34.5184
 21
405.67
  0
LINE
  8
0
 10
34.5184
 20
405.67
 11
34.2692
 21
405.369
  0
LINE
  8
0
 10
34.2692
 20
405.369
 11
33.9842
 21
405.101
  0
LINE
  8
0
 10
33.9842
 20
405.101
 11
33.668
 21
404.872
  0
LINE
  8
0
 10
33.668
 20
404.872
 11
33.3254
 21
404.683
  0
LINE
  8
0
 10
33.3254
 20
404.683
 11
32.9619
 21
404.539
  0
LINE
  8
0
 10
32.9619
 20
404.539
 11
32.5833
 21
404.442
  0
LINE
  8
0
 10
32.5833
 20
404.442
 11
32.1954
 21
404.393
  0
LINE
  8
0
 10
32.1954
 20
404.393
 11
-32.1954
 21
404.393
  0
LINE
  8
0
 10
33.4369
 20
243.089
 11
34.0451
 21
243.245
  0
LINE
  8
0
 10
34.0451
 20
243.245
 11
34.6289
 21
243.476
  0
LINE
  8
0
 10
34.6289
 20
243.476
 11
35.1791
 21
243.778
  0
LINE
  8
0
 10
35.1791
 20
243.778
 11
35.6871
 21
244.147
  0
LINE
  8
0
 10
35.6871
 20
244.147
 11
36.1448
 21
244.577
  0
LINE
  8
0
 10
36.1448
 20
244.577
 11
36.5451
 21
245.061
  0
LINE
  8
0
 10
36.5451
 20
245.061
 11
36.8815
 21
245.591
  0
LINE
  8
0
 10
36.8815
 20
245.591
 11
37.1489
 21
246.159
  0
LINE
  8
0
 10
37.1489
 20
246.159
 11
37.3429
 21
246.757
  0
LINE
  8
0
 10
37.3429
 20
246.757
 11
37.4606
 21
247.373
  0
LINE
  8
0
 10
37.4606
 20
247.373
 11
37.5
 21
248
  0
LINE
  8
0
 10
37.5
 20
248
 11
37.5
 21
388
  0
LINE
  8
0
 10
37.5
 20
388
 11
37.4606
 21
388.627
  0
LINE
  8
0
 10
37.4606
 20
388.627
 11
37.3429
 21
389.243
  0
LINE
  8
0
 10
37.3429
 20
389.243
 11
37.1489
 21
389.841
  0
LINE
  8
0
 10
37.1489
 20
389.841
 11
36.8815
 21
390.409
  0
LINE
  8
0
 10
36.8815
 20
390.409
 11
36.5451
 21
390.939
  0
LINE
  8
0
 10
36.5451
 20
390.939
 11
36.1448
 21
391.423
  0
LINE
  8
0
 10
36.1448
 20
391.423
 11
35.6871
 21
391.853
  0
LINE
  8
0
 10
35.6871
 20
391.853
 11
35.1791
 21
392.222
  0
LINE
  8
0
 10
35.1791
 20
392.222
 11
34.6289
 21
392.524
  0
LINE
  8
0
 10
34.6289
 20
392.524
 11
34.0451
 21
392.755
  0
LINE
  8
0
 10
34.0451
 20
392.755
 11
33.4369
 21
392.911
  0
LINE
  8
0
 10
33.4369
 20
392.911
 11
32.8139
 21
392.99
  0
LINE
  8
0
 10
32.8139
 20
392.99
 11
-32.8139
 21
392.99
  0
LINE
  8
0
 10
-32.8139
 20
392.99
 11
-33.4369
 21
392.911
  0
LINE
  8
0
 10
-33.4369
 20
392.911
 11
-34.0451
 21
392.755
  0
LINE
  8
0
 10
-34.0451
 20
392.755
 11
-34.6289
 21
392.524
  0
LINE
  8
0
 10
-34.6289
 20
392.524
 11
-35.1791
 21
392.222
  0
LINE
  8
0
 10
-35.1791
 20
392.222
 11
-35.6871
 21
391.853
  0
LINE
  8
0
 10
-35.6871
 20
391.853
 11
-36.1448
 21
391.423
  0
LINE
  8
0
 10
-36.1448
 20
391.423
 11
-36.5451
 21
390.939
  0
LINE
  8
0
 10
-36.5451
 20
390.939
 11
-36.8815
 21
390.409
  0
LINE
  8
0
 10
-36.8815
 20
390.409
 11
-37.1489
 21
389.841
  0
LINE
  8
0
 10
-37.1489
 20
389.841
 11
-37.3429
 21
389.243
  0
LINE
  8
0
 10
-37.3429
 20
389.243
 11
-37.4606
 21
388.627
  0
LINE
  8
0
 10
-37.4606
 20
388.627
 11
-37.5
 21
388
  0
LINE
  8
0
 10
-37.5
 20
388
 11
-37.5
 21
248
  0
LINE
  8
0
 10
-37.5
 20
248
 11
-37.4606
 21
247.373
  0
LINE
  8
0
 10
-37.4606
 20
247.373
 11
-37.3429
 21
246.757
  0
LINE
  8
0
 10
-37.3429
 20
246.757
 11
-37.1489
 21
246.159
  0
LINE
  8
0
 10
-37.1489
 20
246.159
 11
-36.8815
 21
245.591
  0
LINE
  8
0
 10
-36.8815
 20
245.591
 11
-36.5451
 21
245.061
  0
LINE
  8
0
 10
-36.5451
 20
245.061
 11
-36.1448
 21
244.577
  0
LINE
  8
0
 10
-36.1448
 20
244.577
 11
-35.6871
 21
244.147
  0
LINE
  8
0
 10
-35.6871
 20
244.147
 11
-35.1791
 21
243.778
  0
LINE
  8
0
 10
-35.1791
 20
243.778
 11
-34.6289
 21
243.476
  0
LINE
  8
0
 10
-34.6289
 20
243.476
 11
-34.0451
 21
243.245
  0
LINE
  8
0
 10
-34.0451
 20
243.245
 11
-33.4369
 21
243.089
  0
LINE
  8
0
 10
-33.4369
 20
243.089
 11
-32.8139
 21
243.01
  0
LINE
  8
0
 10
-32.8139
 20
243.01
 11
32.8139
 21
243.01
  0
LINE
  8
0
 10
32.8139
 20
243.01
 11
33.4369
 21
243.089
  0
LINE
  8
0
 10
29.8659
 20
383.369
 11
29.5999
 21
383.403
  0
LINE
  8
0
 10
29.5999
 20
383.403
 11
29.3401
 21
383.469
  0
LINE
  8
0
 10
29.3401
 20
383.469
 11
29.0908
 21
383.568
  0
LINE
  8
0
 10
29.0908
 20
383.568
 11
28.8559
 21
383.697
  0
LINE
  8
0
 10
28.8559
 20
383.697
 11
28.6389
 21
383.855
  0
LINE
  8
0
 10
28.6389
 20
383.855
 11
28.4434
 21
384.038
  0
LINE
  8
0
 10
28.4434
 20
384.038
 11
28.2725
 21
384.245
  0
LINE
  8
0
 10
28.2725
 20
384.245
 11
28.1288
 21
384.471
  0
LINE
  8
0
 10
28.1288
 20
384.471
 11
28.0146
 21
384.714
  0
LINE
  8
0
 10
28.0146
 20
384.714
 11
27.9318
 21
384.969
  0
LINE
  8
0
 10
27.9318
 20
384.969
 11
27.8815
 21
385.232
  0
LINE
  8
0
 10
27.8815
 20
385.232
 11
27.8647
 21
385.5
  0
LINE
  8
0
 10
27.8647
 20
385.5
 11
27.8815
 21
385.768
  0
LINE
  8
0
 10
27.8815
 20
385.768
 11
27.9318
 21
386.031
  0
LINE
  8
0
 10
27.9318
 20
386.031
 11
28.0146
 21
386.286
  0
LINE
  8
0
 10
28.0146
 20
386.286
 11
28.1288
 21
386.529
  0
LINE
  8
0
 10
28.1288
 20
386.529
 11
28.2725
 21
386.755
  0
LINE
  8
0
 10
28.2725
 20
386.755
 11
28.4434
 21
386.962
  0
LINE
  8
0
 10
28.4434
 20
386.962
 11
28.6389
 21
387.145
  0
LINE
  8
0
 10
28.6389
 20
387.145
 11
28.8559
 21
387.303
  0
LINE
  8
0
 10
28.8559
 20
387.303
 11
29.0908
 21
387.432
  0
LINE
  8
0
 10
29.0908
 20
387.432
 11
29.3401
 21
387.531
  0
LINE
  8
0
 10
29.3401
 20
387.531
 11
29.5999
 21
387.597
  0
LINE
  8
0
 10
29.5999
 20
387.597
 11
29.8659
 21
387.631
  0
LINE
  8
0
 10
29.8659
 20
387.631
 11
30.1341
 21
387.631
  0
LINE
  8
0
 10
30.1341
 20
387.631
 11
30.4001
 21
387.597
  0
LINE
  8
0
 10
30.4001
 20
387.597
 11
30.6598
 21
387.531
  0
LINE
  8
0
 10
30.6598
 20
387.531
 11
30.9091
 21
387.432
  0
LINE
  8
0
 10
30.9091
 20
387.432
 11
31.1441
 21
387.303
  0
LINE
  8
0
 10
31.1441
 20
387.303
 11
31.3611
 21
387.145
  0
LINE
  8
0
 10
31.3611
 20
387.145
 11
31.5565
 21
386.962
  0
LINE
  8
0
 10
31.5565
 20
386.962
 11
31.7275
 21
386.755
  0
LINE
  8
0
 10
31.7275
 20
386.755
 11
31.8712
 21
386.529
  0
LINE
  8
0
 10
31.8712
 20
386.529
 11
31.9853
 21
386.286
  0
LINE
  8
0
 10
31.9853
 20
386.286
 11
32.0682
 21
386.031
  0
LINE
  8
0
 10
32.0682
 20
386.031
 11
32.1185
 21
385.768
  0
LINE
  8
0
 10
32.1185
 20
385.768
 11
32.1353
 21
385.5
  0
LINE
  8
0
 10
32.1353
 20
385.5
 11
32.1185
 21
385.232
  0
LINE
  8
0
 10
32.1185
 20
385.232
 11
32.0682
 21
384.969
  0
LINE
  8
0
 10
32.0682
 20
384.969
 11
31.9853
 21
384.714
  0
LINE
  8
0
 10
31.9853
 20
384.714
 11
31.8712
 21
384.471
  0
LINE
  8
0
 10
31.8712
 20
384.471
 11
31.7275
 21
384.245
  0
LINE
  8
0
 10
31.7275
 20
384.245
 11
31.5565
 21
384.038
  0
LINE
  8
0
 10
31.5565
 20
384.038
 11
31.3611
 21
383.855
  0
LINE
  8
0
 10
31.3611
 20
383.855
 11
31.1441
 21
383.697
  0
LINE
  8
0
 10
31.1441
 20
383.697
 11
30.9091
 21
383.568
  0
LINE
  8
0
 10
30.9091
 20
383.568
 11
30.6598
 21
383.469
  0
LINE
  8
0
 10
30.6598
 20
383.469
 11
30.4001
 21
383.403
  0
LINE
  8
0
 10
30.4001
 20
383.403
 11
30.1341
 21
383.369
  0
LINE
  8
0
 10
30.1341
 20
383.369
 11
29.8659
 21
383.369
  0
LINE
  8
0
 10
-30.1341
 20
383.369
 11
-30.4001
 21
383.403
  0
LINE
  8
0
 10
-30.4001
 20
383.403
 11
-30.6598
 21
383.469
  0
LINE
  8
0
 10
-30.6598
 20
383.469
 11
-30.9091
 21
383.568
  0
LINE
  8
0
 10
-30.9091
 20
383.568
 11
-31.1441
 21
383.697
  0
LINE
  8
0
 10
-31.1441
 20
383.697
 11
-31.3611
 21
383.855
  0
LINE
  8
0
 10
-31.3611
 20
383.855
 11
-31.5565
 21
384.038
  0
LINE
  8
0
 10
-31.5565
 20
384.038
 11
-31.7275
 21
384.245
  0
LINE
  8
0
 10
-31.7275
 20
384.245
 11
-31.8712
 21
384.471
  0
LINE
  8
0
 10
-31.8712
 20
384.471
 11
-31.9853
 21
384.714
  0
LINE
  8
0
 10
-31.9853
 20
384.714
 11
-32.0682
 21
384.969
  0
LINE
  8
0
 10
-32.0682
 20
384.969
 11
-32.1185
 21
385.232
  0
LINE
  8
0
 10
-32.1185
 20
385.232
 11
-32.1353
 21
385.5
  0
LINE
  8
0
 10
-32.1353
 20
385.5
 11
-32.1185
 21
385.768
  0
LINE
  8
0
 10
-32.1185
 20
385.768
 11
-32.0682
 21
386.031
  0
LINE
  8
0
 10
-32.0682
 20
386.031
 11
-31.9853
 21
386.286
  0
LINE
  8
0
 10
-31.9853
 20
386.286
 11
-31.8712
 21
386.529
  0
LINE
  8
0
 10
-31.8712
 20
386.529
 11
-31.7275
 21
386.755
  0
LINE
  8
0
 10
-31.7275
 20
386.755
 11
-31.5565
 21
386.962
  0
LINE
  8
0
 10
-31.5565
 20
386.962
 11
-31.3611
 21
387.145
  0
LINE
  8
0
 10
-31.3611
 20
387.145
 11
-31.1441
 21
387.303
  0
LINE
  8
0
 10
-31.1441
 20
387.303
 11
-30.9091
 21
387.432
  0
LINE
  8
0
 10
-30.9091
 20
387.432
 11
-30.6598
 21
387.531
  0
LINE
  8
0
 10
-30.6598
 20
387.531
 11
-30.4001
 21
387.597
  0
LINE
  8
0
 10
-30.4001
 20
387.597
 11
-30.1341
 21
387.631
  0
LINE
  8
0
 10
-30.1341
 20
387.631
 11
-29.8659
 21
387.631
  0
LINE
  8
0
 10
-29.8659
 20
387.631
 11
-29.5999
 21
387.597
  0
LINE
  8
0
 10
-29.5999
 20
387.597
 11
-29.3401
 21
387.531
  0
LINE
  8
0
 10
-29.3401
 20
387.531
 11
-29.0908
 21
387.432
  0
LINE
  8
0
 10
-29.0908
 20
387.432
 11
-28.8559
 21
387.303
  0
LINE
  8
0
 10
-28.8559
 20
387.303
 11
-28.6389
 21
387.145
  0
LINE
  8
0
 10
-28.6389
 20
387.145
 11
-28.4434
 21
386.962
  0
LINE
  8
0
 10
-28.4434
 20
386.962
 11
-28.2725
 21
386.755
  0
LINE
  8
0
 10
-28.2725
 20
386.755
 11
-28.1288
 21
386.529
  0
LINE
  8
0
 10
-28.1288
 20
386.529
 11
-28.0146
 21
386.286
  0
LINE
  8
0
 10
-28.0146
 20
386.286
 11
-27.9318
 21
386.031
  0
LINE
  8
0
 10
-27.9318
 20
386.031
 11
-27.8815
 21
385.768
  0
LINE
  8
0
 10
-27.8815
 20
385.768
 11
-27.8647
 21
385.5
  0
LINE
  8
0
 10
-27.8647
 20
385.5
 11
-27.8815
 21
385.232
  0
LINE
  8
0
 10
-27.8815
 20
385.232
 11
-27.9318
 21
384.969
  0
LINE
  8
0
 10
-27.9318
 20
384.969
 11
-28.0146
 21
384.714
  0
LINE
  8
0
 10
-28.0146
 20
384.714
 11
-28.1288
 21
384.471
  0
LINE
  8
0
 10
-28.1288
 20
384.471
 11
-28.2725
 21
384.245
  0
LINE
  8
0
 10
-28.2725
 20
384.245
 11
-28.4434
 21
384.038
  0
LINE
  8
0
 10
-28.4434
 20
384.038
 11
-28.6389
 21
383.855
  0
LINE
  8
0
 10
-28.6389
 20
383.855
 11
-28.8559
 21
383.697
  0
LINE
  8
0
 10
-28.8559
 20
383.697
 11
-29.0908
 21
383.568
  0
LINE
  8
0
 10
-29.0908
 20
383.568
 11
-29.3401
 21
383.469
  0
LINE
  8
0
 10
-29.3401
 20
383.469
 11
-29.5999
 21
383.403
  0
LINE
  8
0
 10
-29.5999
 20
383.403
 11
-29.8659
 21
383.369
  0
LINE
  8
0
 10
-29.8659
 20
383.369
 11
-30.1341
 21
383.369
  0
LINE
  8
0
 10
29.8659
 20
248.369
 11
29.5999
 21
248.403
  0
LINE
  8
0
 10
29.5999
 20
248.403
 11
29.3401
 21
248.469
  0
LINE
  8
0
 10
29.3401
 20
248.469
 11
29.0908
 21
248.568
  0
LINE
  8
0
 10
29.0908
 20
248.568
 11
28.8559
 21
248.697
  0
LINE
  8
0
 10
28.8559
 20
248.697
 11
28.6389
 21
248.855
  0
LINE
  8
0
 10
28.6389
 20
248.855
 11
28.4434
 21
249.038
  0
LINE
  8
0
 10
28.4434
 20
249.038
 11
28.2725
 21
249.245
  0
LINE
  8
0
 10
28.2725
 20
249.245
 11
28.1288
 21
249.471
  0
LINE
  8
0
 10
28.1288
 20
249.471
 11
28.0146
 21
249.714
  0
LINE
  8
0
 10
28.0146
 20
249.714
 11
27.9318
 21
249.969
  0
LINE
  8
0
 10
27.9318
 20
249.969
 11
27.8815
 21
250.232
  0
LINE
  8
0
 10
27.8815
 20
250.232
 11
27.8647
 21
250.5
  0
LINE
  8
0
 10
27.8647
 20
250.5
 11
27.8815
 21
250.768
  0
LINE
  8
0
 10
27.8815
 20
250.768
 11
27.9318
 21
251.031
  0
LINE
  8
0
 10
27.9318
 20
251.031
 11
28.0146
 21
251.286
  0
LINE
  8
0
 10
28.0146
 20
251.286
 11
28.1288
 21
251.529
  0
LINE
  8
0
 10
28.1288
 20
251.529
 11
28.2725
 21
251.755
  0
LINE
  8
0
 10
28.2725
 20
251.755
 11
28.4434
 21
251.962
  0
LINE
  8
0
 10
28.4434
 20
251.962
 11
28.6389
 21
252.145
  0
LINE
  8
0
 10
28.6389
 20
252.145
 11
28.8559
 21
252.303
  0
LINE
  8
0
 10
28.8559
 20
252.303
 11
29.0908
 21
252.432
  0
LINE
  8
0
 10
29.0908
 20
252.432
 11
29.3401
 21
252.531
  0
LINE
  8
0
 10
29.3401
 20
252.531
 11
29.5999
 21
252.597
  0
LINE
  8
0
 10
29.5999
 20
252.597
 11
29.8659
 21
252.631
  0
LINE
  8
0
 10
29.8659
 20
252.631
 11
30.1341
 21
252.631
  0
LINE
  8
0
 10
30.1341
 20
252.631
 11
30.4001
 21
252.597
  0
LINE
  8
0
 10
30.4001
 20
252.597
 11
30.6598
 21
252.531
  0
LINE
  8
0
 10
30.6598
 20
252.531
 11
30.9091
 21
252.432
  0
LINE
  8
0
 10
30.9091
 20
252.432
 11
31.1441
 21
252.303
  0
LINE
  8
0
 10
31.1441
 20
252.303
 11
31.3611
 21
252.145
  0
LINE
  8
0
 10
31.3611
 20
252.145
 11
31.5565
 21
251.962
  0
LINE
  8
0
 10
31.5565
 20
251.962
 11
31.7275
 21
251.755
  0
LINE
  8
0
 10
31.7275
 20
251.755
 11
31.8712
 21
251.529
  0
LINE
  8
0
 10
31.8712
 20
251.529
 11
31.9853
 21
251.286
  0
LINE
  8
0
 10
31.9853
 20
251.286
 11
32.0682
 21
251.031
  0
LINE
  8
0
 10
32.0682
 20
251.031
 11
32.1185
 21
250.768
  0
LINE
  8
0
 10
32.1185
 20
250.768
 11
32.1353
 21
250.5
  0
LINE
  8
0
 10
32.1353
 20
250.5
 11
32.1185
 21
250.232
  0
LINE
  8
0
 10
32.1185
 20
250.232
 11
32.0682
 21
249.969
  0
LINE
  8
0
 10
32.0682
 20
249.969
 11
31.9853
 21
249.714
  0
LINE
  8
0
 10
31.9853
 20
249.714
 11
31.8712
 21
249.471
  0
LINE
  8
0
 10
31.8712
 20
249.471
 11
31.7275
 21
249.245
  0
LINE
  8
0
 10
31.7275
 20
249.245
 11
31.5565
 21
249.038
  0
LINE
  8
0
 10
31.5565
 20
249.038
 11
31.3611
 21
248.855
  0
LINE
  8
0
 10
31.3611
 20
248.855
 11
31.1441
 21
248.697
  0
LINE
  8
0
 10
31.1441
 20
248.697
 11
30.9091
 21
248.568
  0
LINE
  8
0
 10
30.9091
 20
248.568
 11
30.6598
 21
248.469
  0
LINE
  8
0
 10
30.6598
 20
248.469
 11
30.4001
 21
248.403
  0
LINE
  8
0
 10
30.4001
 20
248.403
 11
30.1341
 21
248.369
  0
LINE
  8
0
 10
30.1341
 20
248.369
 11
29.8659
 21
248.369
  0
LINE
  8
0
 10
-30.1341
 20
248.369
 11
-30.4001
 21
248.403
  0
LINE
  8
0
 10
-30.4001
 20
248.403
 11
-30.6598
 21
248.469
  0
LINE
  8
0
 10
-30.6598
 20
248.469
 11
-30.9091
 21
248.568
  0
LINE
  8
0
 10
-30.9091
 20
248.568
 11
-31.1441
 21
248.697
  0
LINE
  8
0
 10
-31.1441
 20
248.697
 11
-31.3611
 21
248.855
  0
LINE
  8
0
 10
-31.3611
 20
248.855
 11
-31.5565
 21
249.038
  0
LINE
  8
0
 10
-31.5565
 20
249.038
 11
-31.7275
 21
249.245
  0
LINE
  8
0
 10
-31.7275
 20
249.245
 11
-31.8712
 21
249.471
  0
LINE
  8
0
 10
-31.8712
 20
249.471
 11
-31.9853
 21
249.714
  0
LINE
  8
0
 10
-31.9853
 20
249.714
 11
-32.0682
 21
249.969
  0
LINE
  8
0
 10
-32.0682
 20
249.969
 11
-32.1185
 21
250.232
  0
LINE
  8
0
 10
-32.1185
 20
250.232
 11
-32.1353
 21
250.5
  0
LINE
  8
0
 10
-32.1353
 20
250.5
 11
-32.1185
 21
250.768
  0
LINE
  8
0
 10
-32.1185
 20
250.768
 11
-32.0682
 21
251.031
  0
LINE
  8
0
 10
-32.0682
 20
251.031
 11
-31.9853
 21
251.286
  0
LINE
  8
0
 10
-31.9853
 20
251.286
 11
-31.8712
 21
251.529
  0
LINE
  8
0
 10
-31.8712
 20
251.529
 11
-31.7275
 21
251.755
  0
LINE
  8
0
 10
-31.7275
 20
251.755
 11
-31.5565
 21
251.962
  0
LINE
  8
0
 10
-31.5565
 20
251.962
 11
-31.3611
 21
252.145
  0
LINE
  8
0
 10
-31.3611
 20
252.145
 11
-31.1441
 21
252.303
  0
LINE
  8
0
 10
-31.1441
 20
252.303
 11
-30.9091
 21
252.432
  0
LINE
  8
0
 10
-30.9091
 20
252.432
 11
-30.6598
 21
252.531
  0
LINE
  8
0
 10
-30.6598
 20
252.531
 11
-30.4001
 21
252.597
  0
LINE
  8
0
 10
-30.4001
 20
252.597
 11
-30.1341
 21
252.631
  0
LINE
  8
0
 10
-30.1341
 20
252.631
 11
-29.8659
 21
252.631
  0
LINE
  8
0
 10
-29.8659
 20
252.631
 11
-29.5999
 21
252.597
  0
LINE
  8
0
 10
-29.5999
 20
252.597
 11
-29.3401
 21
252.531
  0
LINE
  8
0
 10
-29.3401
 20
252.531
 11
-29.0908
 21
252.432
  0
LINE
  8
0
 10
-29.0908
 20
252.432
 11
-28.8559
 21
252.303
  0
LINE
  8
0
 10
-28.8559
 20
252.303
 11
-28.6389
 21
252.145
  0
LINE
  8
0
 10
-28.6389
 20
252.145
 11
-28.4434
 21
251.962
  0
LINE
  8
0
 10
-28.4434
 20
251.962
 11
-28.2725
 21
251.755
  0
LINE
  8
0
 10
-28.2725
 20
251.755
 11
-28.1288
 21
251.529
  0
LINE
  8
0
 10
-28.1288
 20
251.529
 11
-28.0146
 21
251.286
  0
LINE
  8
0
 10
-28.0146
 20
251.286
 11
-27.9318
 21
251.031
  0
LINE
  8
0
 10
-27.9318
 20
251.031
 11
-27.8815
 21
250.768
  0
LINE
  8
0
 10
-27.8815
 20
250.768
 11
-27.8647
 21
250.5
  0
LINE
  8
0
 10
-27.8647
 20
250.5
 11
-27.8815
 21
250.232
  0
LINE
  8
0
 10
-27.8815
 20
250.232
 11
-27.9318
 21
249.969
  0
LINE
  8
0
 10
-27.9318
 20
249.969
 11
-28.0146
 21
249.714
  0
LINE
  8
0
 10
-28.0146
 20
249.714
 11
-28.1288
 21
249.471
  0
LINE
  8
0
 10
-28.1288
 20
249.471
 11
-28.2725
 21
249.245
  0
LINE
  8
0
 10
-28.2725
 20
249.245
 11
-28.4434
 21
249.038
  0
LINE
  8
0
 10
-28.4434
 20
249.038
 11
-28.6389
 21
248.855
  0
LINE
  8
0
 10
-28.6389
 20
248.855
 11
-28.8559
 21
248.697
  0
LINE
  8
0
 10
-28.8559
 20
248.697
 11
-29.0908
 21
248.568
  0
LINE
  8
0
 10
-29.0908
 20
248.568
 11
-29.3401
 21
248.469
  0
LINE
  8
0
 10
-29.3401
 20
248.469
 11
-29.5999
 21
248.403
  0
LINE
  8
0
 10
-29.5999
 20
248.403
 11
-29.8659
 21
248.369
  0
LINE
  8
0
 10
-29.8659
 20
248.369
 11
-30.1341
 21
248.369
  0
ENDSEC
  0
SECTION
  2
OBJECTS
  0
DICTIONARY
  0
ENDSEC
  0
EOF
