solid OpenSCAD_Model
  facet normal 0.998028 0.0627749 -1.90656e-19
    outer loop
      vertex 12 0 5
      vertex 11.9054 1.504 0
      vertex 11.9054 1.504 5
    endloop
  endfacet
  facet normal 0.998028 0.0627749 -1.90656e-19
    outer loop
      vertex 11.9054 1.504 0
      vertex 12 0 5
      vertex 12 0 0
    endloop
  endfacet
  facet normal -0.998028 0.0627749 1.90656e-19
    outer loop
      vertex -12 0 0
      vertex -11.9054 1.504 5
      vertex -11.9054 1.504 0
    endloop
  endfacet
  facet normal -0.998028 0.0627749 1.90656e-19
    outer loop
      vertex -11.9054 1.504 5
      vertex -12 0 0
      vertex -12 0 5
    endloop
  endfacet
  facet normal 0 1 -0
    outer loop
      vertex 0.753486 11.9763 0
      vertex -0.753486 11.9763 5
      vertex 0.753486 11.9763 5
    endloop
  endfacet
  facet normal 0 1 0
    outer loop
      vertex -0.753486 11.9763 5
      vertex 0.753486 11.9763 0
      vertex -0.753486 11.9763 0
    endloop
  endfacet
  facet normal 0 -1 0
    outer loop
      vertex -0.753486 -11.9763 0
      vertex 0.753486 -11.9763 5
      vertex -0.753486 -11.9763 5
    endloop
  endfacet
  facet normal 0 -1 -0
    outer loop
      vertex 0.753486 -11.9763 5
      vertex -0.753486 -11.9763 0
      vertex 0.753486 -11.9763 0
    endloop
  endfacet
  facet normal 0.684551 0.728965 -0
    outer loop
      vertex 8.74762 8.21456 0
      vertex 7.64909 9.24616 5
      vertex 8.74762 8.21456 5
    endloop
  endfacet
  facet normal 0.684551 0.728965 0
    outer loop
      vertex 7.64909 9.24616 5
      vertex 8.74762 8.21456 0
      vertex 7.64909 9.24616 0
    endloop
  endfacet
  facet normal -0.684551 0.728965 0
    outer loop
      vertex -7.64909 9.24616 0
      vertex -8.74762 8.21456 5
      vertex -7.64909 9.24616 5
    endloop
  endfacet
  facet normal -0.684551 0.728965 0
    outer loop
      vertex -8.74762 8.21456 5
      vertex -7.64909 9.24616 0
      vertex -8.74762 8.21456 0
    endloop
  endfacet
  facet normal -0.368151 0.929766 0
    outer loop
      vertex -3.7082 11.4127 0
      vertex -5.10935 10.8579 5
      vertex -3.7082 11.4127 5
    endloop
  endfacet
  facet normal -0.368151 0.929766 0
    outer loop
      vertex -5.10935 10.8579 5
      vertex -3.7082 11.4127 0
      vertex -5.10935 10.8579 0
    endloop
  endfacet
  facet normal 0.844321 -0.535838 4.70521e-18
    outer loop
      vertex 9.7082 -7.05342 5
      vertex 10.5157 -5.78104 0
      vertex 10.5157 -5.78104 5
    endloop
  endfacet
  facet normal 0.844321 -0.535838 4.70521e-18
    outer loop
      vertex 10.5157 -5.78104 0
      vertex 9.7082 -7.05342 5
      vertex 9.7082 -7.05342 0
    endloop
  endfacet
  facet normal 0.904837 0.425759 -6.95003e-18
    outer loop
      vertex 11.1573 4.41749 5
      vertex 10.5157 5.78104 0
      vertex 10.5157 5.78104 5
    endloop
  endfacet
  facet normal 0.904837 0.425759 -6.95003e-18
    outer loop
      vertex 10.5157 5.78104 0
      vertex 11.1573 4.41749 5
      vertex 11.1573 4.41749 0
    endloop
  endfacet
  facet normal 0.982285 0.187395 3.00732e-18
    outer loop
      vertex 11.9054 1.504 5
      vertex 11.623 2.98428 0
      vertex 11.623 2.98428 5
    endloop
  endfacet
  facet normal 0.982285 0.187395 3.00732e-18
    outer loop
      vertex 11.623 2.98428 0
      vertex 11.9054 1.504 5
      vertex 11.9054 1.504 0
    endloop
  endfacet
  facet normal 0.844321 0.535838 -4.70521e-18
    outer loop
      vertex 10.5157 5.78104 5
      vertex 9.7082 7.05342 0
      vertex 9.7082 7.05342 5
    endloop
  endfacet
  facet normal 0.844321 0.535838 -4.70521e-18
    outer loop
      vertex 9.7082 7.05342 0
      vertex 10.5157 5.78104 5
      vertex 10.5157 5.78104 0
    endloop
  endfacet
  facet normal 0.368151 0.929766 -0
    outer loop
      vertex 5.10935 10.8579 0
      vertex 3.7082 11.4127 5
      vertex 5.10935 10.8579 5
    endloop
  endfacet
  facet normal 0.368151 0.929766 0
    outer loop
      vertex 3.7082 11.4127 5
      vertex 5.10935 10.8579 0
      vertex 3.7082 11.4127 0
    endloop
  endfacet
  facet normal 0.248648 0.968594 -0
    outer loop
      vertex 3.7082 11.4127 0
      vertex 2.24858 11.7874 5
      vertex 3.7082 11.4127 5
    endloop
  endfacet
  facet normal 0.248648 0.968594 0
    outer loop
      vertex 2.24858 11.7874 5
      vertex 3.7082 11.4127 0
      vertex 2.24858 11.7874 0
    endloop
  endfacet
  facet normal 0.481759 0.876304 -0
    outer loop
      vertex 6.42992 10.1319 0
      vertex 5.10935 10.8579 5
      vertex 6.42992 10.1319 5
    endloop
  endfacet
  facet normal 0.481759 0.876304 0
    outer loop
      vertex 5.10935 10.8579 5
      vertex 6.42992 10.1319 0
      vertex 5.10935 10.8579 0
    endloop
  endfacet
  facet normal -0.904837 0.425759 6.95003e-18
    outer loop
      vertex -11.1573 4.41749 0
      vertex -10.5157 5.78104 5
      vertex -10.5157 5.78104 0
    endloop
  endfacet
  facet normal -0.904837 0.425759 6.95003e-18
    outer loop
      vertex -10.5157 5.78104 5
      vertex -11.1573 4.41749 0
      vertex -11.1573 4.41749 5
    endloop
  endfacet
  facet normal -0.770513 0.637425 -1.16121e-17
    outer loop
      vertex -9.7082 7.05342 0
      vertex -8.74762 8.21456 5
      vertex -8.74762 8.21456 0
    endloop
  endfacet
  facet normal -0.770513 0.637425 -1.16121e-17
    outer loop
      vertex -8.74762 8.21456 5
      vertex -9.7082 7.05342 0
      vertex -9.7082 7.05342 5
    endloop
  endfacet
  facet normal -0.951052 0.30903 -6.07222e-18
    outer loop
      vertex -11.623 2.98428 0
      vertex -11.1573 4.41749 5
      vertex -11.1573 4.41749 0
    endloop
  endfacet
  facet normal -0.951052 0.30903 -6.07222e-18
    outer loop
      vertex -11.1573 4.41749 5
      vertex -11.623 2.98428 0
      vertex -11.623 2.98428 5
    endloop
  endfacet
  facet normal -0.12535 0.992113 0
    outer loop
      vertex -0.753486 11.9763 0
      vertex -2.24858 11.7874 5
      vertex -0.753486 11.9763 5
    endloop
  endfacet
  facet normal -0.12535 0.992113 0
    outer loop
      vertex -2.24858 11.7874 5
      vertex -0.753486 11.9763 0
      vertex -2.24858 11.7874 0
    endloop
  endfacet
  facet normal 0.12535 -0.992113 0
    outer loop
      vertex 0.753486 -11.9763 0
      vertex 2.24858 -11.7874 5
      vertex 0.753486 -11.9763 5
    endloop
  endfacet
  facet normal 0.12535 -0.992113 0
    outer loop
      vertex 2.24858 -11.7874 5
      vertex 0.753486 -11.9763 0
      vertex 2.24858 -11.7874 0
    endloop
  endfacet
  facet normal 0.951052 0.30903 6.07222e-18
    outer loop
      vertex 11.623 2.98428 5
      vertex 11.1573 4.41749 0
      vertex 11.1573 4.41749 5
    endloop
  endfacet
  facet normal 0.951052 0.30903 6.07222e-18
    outer loop
      vertex 11.1573 4.41749 0
      vertex 11.623 2.98428 5
      vertex 11.623 2.98428 0
    endloop
  endfacet
  facet normal 0.770513 0.637425 1.16121e-17
    outer loop
      vertex 9.7082 7.05342 5
      vertex 8.74762 8.21456 0
      vertex 8.74762 8.21456 5
    endloop
  endfacet
  facet normal 0.770513 0.637425 1.16121e-17
    outer loop
      vertex 8.74762 8.21456 0
      vertex 9.7082 7.05342 5
      vertex 9.7082 7.05342 0
    endloop
  endfacet
  facet normal 0.12535 0.992113 -0
    outer loop
      vertex 2.24858 11.7874 0
      vertex 0.753486 11.9763 5
      vertex 2.24858 11.7874 5
    endloop
  endfacet
  facet normal 0.12535 0.992113 0
    outer loop
      vertex 0.753486 11.9763 5
      vertex 2.24858 11.7874 0
      vertex 0.753486 11.9763 0
    endloop
  endfacet
  facet normal 0.587768 0.809029 -0
    outer loop
      vertex 7.64909 9.24616 0
      vertex 6.42992 10.1319 5
      vertex 7.64909 9.24616 5
    endloop
  endfacet
  facet normal 0.587768 0.809029 0
    outer loop
      vertex 6.42992 10.1319 5
      vertex 7.64909 9.24616 0
      vertex 6.42992 10.1319 0
    endloop
  endfacet
  facet normal -0.844321 0.535838 4.70521e-18
    outer loop
      vertex -10.5157 5.78104 0
      vertex -9.7082 7.05342 5
      vertex -9.7082 7.05342 0
    endloop
  endfacet
  facet normal -0.844321 0.535838 4.70521e-18
    outer loop
      vertex -9.7082 7.05342 5
      vertex -10.5157 5.78104 0
      vertex -10.5157 5.78104 5
    endloop
  endfacet
  facet normal -0.982285 0.187395 -3.00732e-18
    outer loop
      vertex -11.9054 1.504 0
      vertex -11.623 2.98428 5
      vertex -11.623 2.98428 0
    endloop
  endfacet
  facet normal -0.982285 0.187395 -3.00732e-18
    outer loop
      vertex -11.623 2.98428 5
      vertex -11.9054 1.504 0
      vertex -11.9054 1.504 5
    endloop
  endfacet
  facet normal 0 0 1
    outer loop
      vertex 7.5 0 5
      vertex 12 0 5
      vertex 11.9054 1.504 5
    endloop
  endfacet
  facet normal 0 0 1
    outer loop
      vertex 7.44086 0.939999 5
      vertex 11.9054 1.504 5
      vertex 11.623 2.98428 5
    endloop
  endfacet
  facet normal 0 0 1
    outer loop
      vertex 12 0 5
      vertex 7.5 0 5
      vertex 11.9054 -1.504 5
    endloop
  endfacet
  facet normal 0 0 1
    outer loop
      vertex 7.26437 1.86517 5
      vertex 11.623 2.98428 5
      vertex 11.1573 4.41749 5
    endloop
  endfacet
  facet normal -0 0 1
    outer loop
      vertex 7.44086 -0.939999 5
      vertex 11.9054 -1.504 5
      vertex 7.5 0 5
    endloop
  endfacet
  facet normal 0 0 1
    outer loop
      vertex 6.97332 2.76093 5
      vertex 11.1573 4.41749 5
      vertex 10.5157 5.78104 5
    endloop
  endfacet
  facet normal 0 0 1
    outer loop
      vertex 11.9054 -1.504 5
      vertex 7.44086 -0.939999 5
      vertex 11.623 -2.98428 5
    endloop
  endfacet
  facet normal 0 0 1
    outer loop
      vertex 6.5723 3.61315 5
      vertex 10.5157 5.78104 5
      vertex 9.7082 7.05342 5
    endloop
  endfacet
  facet normal -0 0 1
    outer loop
      vertex 7.26437 -1.86517 5
      vertex 11.623 -2.98428 5
      vertex 7.44086 -0.939999 5
    endloop
  endfacet
  facet normal 0 0 1
    outer loop
      vertex 6.06763 4.40839 5
      vertex 9.7082 7.05342 5
      vertex 8.74762 8.21456 5
    endloop
  endfacet
  facet normal 0 0 1
    outer loop
      vertex 11.623 -2.98428 5
      vertex 7.26437 -1.86517 5
      vertex 11.1573 -4.41749 5
    endloop
  endfacet
  facet normal 0 0 1
    outer loop
      vertex 5.46726 5.1341 5
      vertex 8.74762 8.21456 5
      vertex 7.64909 9.24616 5
    endloop
  endfacet
  facet normal -0 0 1
    outer loop
      vertex 6.97332 -2.76093 5
      vertex 11.1573 -4.41749 5
      vertex 7.26437 -1.86517 5
    endloop
  endfacet
  facet normal 0 0 1
    outer loop
      vertex 11.1573 -4.41749 5
      vertex 6.97332 -2.76093 5
      vertex 10.5157 -5.78104 5
    endloop
  endfacet
  facet normal 0 0 1
    outer loop
      vertex 11.9054 1.504 5
      vertex 7.44086 0.939999 5
      vertex 7.5 0 5
    endloop
  endfacet
  facet normal 0 0 1
    outer loop
      vertex 11.623 2.98428 5
      vertex 7.26437 1.86517 5
      vertex 7.44086 0.939999 5
    endloop
  endfacet
  facet normal 0 0 1
    outer loop
      vertex 11.1573 4.41749 5
      vertex 6.97332 2.76093 5
      vertex 7.26437 1.86517 5
    endloop
  endfacet
  facet normal 0 0 1
    outer loop
      vertex 10.5157 5.78104 5
      vertex 6.5723 3.61315 5
      vertex 6.97332 2.76093 5
    endloop
  endfacet
  facet normal 0 0 1
    outer loop
      vertex 4.78068 5.77885 5
      vertex 7.64909 9.24616 5
      vertex 6.42992 10.1319 5
    endloop
  endfacet
  facet normal 0 0 1
    outer loop
      vertex 9.7082 7.05342 5
      vertex 6.06763 4.40839 5
      vertex 6.5723 3.61315 5
    endloop
  endfacet
  facet normal 0 0 1
    outer loop
      vertex 8.74762 8.21456 5
      vertex 5.46726 5.1341 5
      vertex 6.06763 4.40839 5
    endloop
  endfacet
  facet normal 0 0 1
    outer loop
      vertex 4.0187 6.33246 5
      vertex 6.42992 10.1319 5
      vertex 5.10935 10.8579 5
    endloop
  endfacet
  facet normal 0 0 1
    outer loop
      vertex 7.64909 9.24616 5
      vertex 4.78068 5.77885 5
      vertex 5.46726 5.1341 5
    endloop
  endfacet
  facet normal 0 0 1
    outer loop
      vertex 6.42992 10.1319 5
      vertex 4.0187 6.33246 5
      vertex 4.78068 5.77885 5
    endloop
  endfacet
  facet normal 0 0 1
    outer loop
      vertex 3.19334 6.7862 5
      vertex 5.10935 10.8579 5
      vertex 3.7082 11.4127 5
    endloop
  endfacet
  facet normal 0 0 1
    outer loop
      vertex 5.10935 10.8579 5
      vertex 3.19334 6.7862 5
      vertex 4.0187 6.33246 5
    endloop
  endfacet
  facet normal 0 0 1
    outer loop
      vertex 3.7082 11.4127 5
      vertex 2.31763 7.13292 5
      vertex 3.19334 6.7862 5
    endloop
  endfacet
  facet normal 0 0 1
    outer loop
      vertex 2.24858 11.7874 5
      vertex 2.31763 7.13292 5
      vertex 3.7082 11.4127 5
    endloop
  endfacet
  facet normal 0 0 1
    outer loop
      vertex 2.24858 11.7874 5
      vertex 1.40536 7.36715 5
      vertex 2.31763 7.13292 5
    endloop
  endfacet
  facet normal 0 0 1
    outer loop
      vertex 0.753486 11.9763 5
      vertex 1.40536 7.36715 5
      vertex 2.24858 11.7874 5
    endloop
  endfacet
  facet normal 0 0 1
    outer loop
      vertex 0.753486 11.9763 5
      vertex 0.470928 7.4852 5
      vertex 1.40536 7.36715 5
    endloop
  endfacet
  facet normal 0 0 1
    outer loop
      vertex 0.753486 11.9763 5
      vertex -0.470928 7.4852 5
      vertex 0.470928 7.4852 5
    endloop
  endfacet
  facet normal -0 0 1
    outer loop
      vertex -0.753486 11.9763 5
      vertex -0.470928 7.4852 5
      vertex 0.753486 11.9763 5
    endloop
  endfacet
  facet normal 0 0 1
    outer loop
      vertex -0.753486 11.9763 5
      vertex -1.40536 7.36715 5
      vertex -0.470928 7.4852 5
    endloop
  endfacet
  facet normal -0 0 1
    outer loop
      vertex -2.24858 11.7874 5
      vertex -1.40536 7.36715 5
      vertex -0.753486 11.9763 5
    endloop
  endfacet
  facet normal 0 0 1
    outer loop
      vertex -2.24858 11.7874 5
      vertex -2.31763 7.13292 5
      vertex -1.40536 7.36715 5
    endloop
  endfacet
  facet normal -0 0 1
    outer loop
      vertex -3.7082 11.4127 5
      vertex -2.31763 7.13292 5
      vertex -2.24858 11.7874 5
    endloop
  endfacet
  facet normal 0 0 1
    outer loop
      vertex -2.31763 7.13292 5
      vertex -3.7082 11.4127 5
      vertex -3.19334 6.7862 5
    endloop
  endfacet
  facet normal -0 0 1
    outer loop
      vertex -5.10935 10.8579 5
      vertex -3.19334 6.7862 5
      vertex -3.7082 11.4127 5
    endloop
  endfacet
  facet normal 0 0 1
    outer loop
      vertex -3.19334 6.7862 5
      vertex -5.10935 10.8579 5
      vertex -4.0187 6.33246 5
    endloop
  endfacet
  facet normal -0 0 1
    outer loop
      vertex -6.42992 10.1319 5
      vertex -4.0187 6.33246 5
      vertex -5.10935 10.8579 5
    endloop
  endfacet
  facet normal 0 0 1
    outer loop
      vertex -4.0187 6.33246 5
      vertex -6.42992 10.1319 5
      vertex -4.78068 5.77885 5
    endloop
  endfacet
  facet normal -0 0 1
    outer loop
      vertex -7.64909 9.24616 5
      vertex -4.78068 5.77885 5
      vertex -6.42992 10.1319 5
    endloop
  endfacet
  facet normal 0 0 1
    outer loop
      vertex -4.78068 5.77885 5
      vertex -7.64909 9.24616 5
      vertex -5.46726 5.1341 5
    endloop
  endfacet
  facet normal -0 0 1
    outer loop
      vertex -8.74762 8.21456 5
      vertex -5.46726 5.1341 5
      vertex -7.64909 9.24616 5
    endloop
  endfacet
  facet normal 0 0 1
    outer loop
      vertex -5.46726 5.1341 5
      vertex -8.74762 8.21456 5
      vertex -6.06763 4.40839 5
    endloop
  endfacet
  facet normal -0 0 1
    outer loop
      vertex -9.7082 7.05342 5
      vertex -6.06763 4.40839 5
      vertex -8.74762 8.21456 5
    endloop
  endfacet
  facet normal 0 0 1
    outer loop
      vertex -6.06763 4.40839 5
      vertex -9.7082 7.05342 5
      vertex -6.5723 3.61315 5
    endloop
  endfacet
  facet normal 0 0 1
    outer loop
      vertex -6.5723 3.61315 5
      vertex -10.5157 5.78104 5
      vertex -6.97332 2.76093 5
    endloop
  endfacet
  facet normal -0 0 1
    outer loop
      vertex -10.5157 5.78104 5
      vertex -6.5723 3.61315 5
      vertex -9.7082 7.05342 5
    endloop
  endfacet
  facet normal -0 0 1
    outer loop
      vertex 6.5723 -3.61315 5
      vertex 10.5157 -5.78104 5
      vertex 6.97332 -2.76093 5
    endloop
  endfacet
  facet normal 0 0 1
    outer loop
      vertex 10.5157 -5.78104 5
      vertex 6.5723 -3.61315 5
      vertex 9.7082 -7.05342 5
    endloop
  endfacet
  facet normal -0 0 1
    outer loop
      vertex 6.06763 -4.40839 5
      vertex 9.7082 -7.05342 5
      vertex 6.5723 -3.61315 5
    endloop
  endfacet
  facet normal 0 0 1
    outer loop
      vertex 9.7082 -7.05342 5
      vertex 6.06763 -4.40839 5
      vertex 8.74762 -8.21456 5
    endloop
  endfacet
  facet normal -0 0 1
    outer loop
      vertex 5.46726 -5.1341 5
      vertex 8.74762 -8.21456 5
      vertex 6.06763 -4.40839 5
    endloop
  endfacet
  facet normal 0 0 1
    outer loop
      vertex 8.74762 -8.21456 5
      vertex 5.46726 -5.1341 5
      vertex 7.64909 -9.24616 5
    endloop
  endfacet
  facet normal -0 0 1
    outer loop
      vertex 4.78068 -5.77885 5
      vertex 7.64909 -9.24616 5
      vertex 5.46726 -5.1341 5
    endloop
  endfacet
  facet normal 0 0 1
    outer loop
      vertex 7.64909 -9.24616 5
      vertex 4.78068 -5.77885 5
      vertex 6.42992 -10.1319 5
    endloop
  endfacet
  facet normal -0 0 1
    outer loop
      vertex 4.0187 -6.33246 5
      vertex 6.42992 -10.1319 5
      vertex 4.78068 -5.77885 5
    endloop
  endfacet
  facet normal 0 0 1
    outer loop
      vertex 6.42992 -10.1319 5
      vertex 4.0187 -6.33246 5
      vertex 5.10935 -10.8579 5
    endloop
  endfacet
  facet normal -0 0 1
    outer loop
      vertex 3.19334 -6.7862 5
      vertex 5.10935 -10.8579 5
      vertex 4.0187 -6.33246 5
    endloop
  endfacet
  facet normal 0 0 1
    outer loop
      vertex 5.10935 -10.8579 5
      vertex 3.19334 -6.7862 5
      vertex 3.7082 -11.4127 5
    endloop
  endfacet
  facet normal -0 0 1
    outer loop
      vertex 2.31763 -7.13292 5
      vertex 3.7082 -11.4127 5
      vertex 3.19334 -6.7862 5
    endloop
  endfacet
  facet normal 0 0 1
    outer loop
      vertex 2.31763 -7.13292 5
      vertex 2.24858 -11.7874 5
      vertex 3.7082 -11.4127 5
    endloop
  endfacet
  facet normal -0 0 1
    outer loop
      vertex 1.40536 -7.36715 5
      vertex 2.24858 -11.7874 5
      vertex 2.31763 -7.13292 5
    endloop
  endfacet
  facet normal 0 0 1
    outer loop
      vertex 1.40536 -7.36715 5
      vertex 0.753486 -11.9763 5
      vertex 2.24858 -11.7874 5
    endloop
  endfacet
  facet normal -0 0 1
    outer loop
      vertex 0.470928 -7.4852 5
      vertex 0.753486 -11.9763 5
      vertex 1.40536 -7.36715 5
    endloop
  endfacet
  facet normal -0 0 1
    outer loop
      vertex -0.470928 -7.4852 5
      vertex 0.753486 -11.9763 5
      vertex 0.470928 -7.4852 5
    endloop
  endfacet
  facet normal 0 0 1
    outer loop
      vertex -0.470928 -7.4852 5
      vertex -0.753486 -11.9763 5
      vertex 0.753486 -11.9763 5
    endloop
  endfacet
  facet normal 0 0 1
    outer loop
      vertex -1.40536 -7.36715 5
      vertex -0.753486 -11.9763 5
      vertex -0.470928 -7.4852 5
    endloop
  endfacet
  facet normal 0 0 1
    outer loop
      vertex -1.40536 -7.36715 5
      vertex -2.24858 -11.7874 5
      vertex -0.753486 -11.9763 5
    endloop
  endfacet
  facet normal 0 0 1
    outer loop
      vertex -2.31763 -7.13292 5
      vertex -2.24858 -11.7874 5
      vertex -1.40536 -7.36715 5
    endloop
  endfacet
  facet normal 0 0 1
    outer loop
      vertex -3.7082 -11.4127 5
      vertex -2.31763 -7.13292 5
      vertex -3.19334 -6.7862 5
    endloop
  endfacet
  facet normal 0 0 1
    outer loop
      vertex -2.31763 -7.13292 5
      vertex -3.7082 -11.4127 5
      vertex -2.24858 -11.7874 5
    endloop
  endfacet
  facet normal 0 0 1
    outer loop
      vertex -5.10935 -10.8579 5
      vertex -3.19334 -6.7862 5
      vertex -4.0187 -6.33246 5
    endloop
  endfacet
  facet normal 0 0 1
    outer loop
      vertex -6.42992 -10.1319 5
      vertex -4.0187 -6.33246 5
      vertex -4.78068 -5.77885 5
    endloop
  endfacet
  facet normal 0 0 1
    outer loop
      vertex -3.19334 -6.7862 5
      vertex -5.10935 -10.8579 5
      vertex -3.7082 -11.4127 5
    endloop
  endfacet
  facet normal 0 0 1
    outer loop
      vertex -7.64909 -9.24616 5
      vertex -4.78068 -5.77885 5
      vertex -5.46726 -5.1341 5
    endloop
  endfacet
  facet normal 0 0 1
    outer loop
      vertex -8.74762 -8.21456 5
      vertex -5.46726 -5.1341 5
      vertex -6.06763 -4.40839 5
    endloop
  endfacet
  facet normal 0 0 1
    outer loop
      vertex -4.0187 -6.33246 5
      vertex -6.42992 -10.1319 5
      vertex -5.10935 -10.8579 5
    endloop
  endfacet
  facet normal 0 0 1
    outer loop
      vertex -9.7082 -7.05342 5
      vertex -6.06763 -4.40839 5
      vertex -6.5723 -3.61315 5
    endloop
  endfacet
  facet normal 0 0 1
    outer loop
      vertex -10.5157 -5.78104 5
      vertex -6.5723 -3.61315 5
      vertex -6.97332 -2.76093 5
    endloop
  endfacet
  facet normal 0 0 1
    outer loop
      vertex -11.1573 -4.41749 5
      vertex -6.97332 -2.76093 5
      vertex -7.26437 -1.86517 5
    endloop
  endfacet
  facet normal 0 0 1
    outer loop
      vertex -11.623 -2.98428 5
      vertex -7.26437 -1.86517 5
      vertex -7.44086 -0.939999 5
    endloop
  endfacet
  facet normal 0 0 1
    outer loop
      vertex -4.78068 -5.77885 5
      vertex -7.64909 -9.24616 5
      vertex -6.42992 -10.1319 5
    endloop
  endfacet
  facet normal 0 0 1
    outer loop
      vertex -11.9054 -1.504 5
      vertex -7.44086 -0.939999 5
      vertex -7.5 0 5
    endloop
  endfacet
  facet normal -0 0 1
    outer loop
      vertex -11.1573 4.41749 5
      vertex -6.97332 2.76093 5
      vertex -10.5157 5.78104 5
    endloop
  endfacet
  facet normal 0 0 1
    outer loop
      vertex -6.97332 2.76093 5
      vertex -11.1573 4.41749 5
      vertex -7.26437 1.86517 5
    endloop
  endfacet
  facet normal 0 0 1
    outer loop
      vertex -5.46726 -5.1341 5
      vertex -8.74762 -8.21456 5
      vertex -7.64909 -9.24616 5
    endloop
  endfacet
  facet normal -0 0 1
    outer loop
      vertex -11.623 2.98428 5
      vertex -7.26437 1.86517 5
      vertex -11.1573 4.41749 5
    endloop
  endfacet
  facet normal 0 0 1
    outer loop
      vertex -6.06763 -4.40839 5
      vertex -9.7082 -7.05342 5
      vertex -8.74762 -8.21456 5
    endloop
  endfacet
  facet normal 0 0 1
    outer loop
      vertex -7.26437 1.86517 5
      vertex -11.623 2.98428 5
      vertex -7.44086 0.939999 5
    endloop
  endfacet
  facet normal 0 0 1
    outer loop
      vertex -6.5723 -3.61315 5
      vertex -10.5157 -5.78104 5
      vertex -9.7082 -7.05342 5
    endloop
  endfacet
  facet normal -0 0 1
    outer loop
      vertex -11.9054 1.504 5
      vertex -7.44086 0.939999 5
      vertex -11.623 2.98428 5
    endloop
  endfacet
  facet normal 0 0 1
    outer loop
      vertex -6.97332 -2.76093 5
      vertex -11.1573 -4.41749 5
      vertex -10.5157 -5.78104 5
    endloop
  endfacet
  facet normal 0 0 1
    outer loop
      vertex -7.44086 0.939999 5
      vertex -11.9054 1.504 5
      vertex -7.5 0 5
    endloop
  endfacet
  facet normal 0 0 1
    outer loop
      vertex -7.26437 -1.86517 5
      vertex -11.623 -2.98428 5
      vertex -11.1573 -4.41749 5
    endloop
  endfacet
  facet normal 0 0 1
    outer loop
      vertex -12 0 5
      vertex -7.5 0 5
      vertex -11.9054 1.504 5
    endloop
  endfacet
  facet normal 0 0 1
    outer loop
      vertex -7.44086 -0.939999 5
      vertex -11.9054 -1.504 5
      vertex -11.623 -2.98428 5
    endloop
  endfacet
  facet normal 0 0 1
    outer loop
      vertex -7.5 0 5
      vertex -12 0 5
      vertex -11.9054 -1.504 5
    endloop
  endfacet
  facet normal -0.481759 0.876304 0
    outer loop
      vertex -5.10935 10.8579 0
      vertex -6.42992 10.1319 5
      vertex -5.10935 10.8579 5
    endloop
  endfacet
  facet normal -0.481759 0.876304 0
    outer loop
      vertex -6.42992 10.1319 5
      vertex -5.10935 10.8579 0
      vertex -6.42992 10.1319 0
    endloop
  endfacet
  facet normal -0.587768 0.809029 0
    outer loop
      vertex -6.42992 10.1319 0
      vertex -7.64909 9.24616 5
      vertex -6.42992 10.1319 5
    endloop
  endfacet
  facet normal -0.587768 0.809029 0
    outer loop
      vertex -7.64909 9.24616 5
      vertex -6.42992 10.1319 0
      vertex -7.64909 9.24616 0
    endloop
  endfacet
  facet normal -0.248648 0.968594 0
    outer loop
      vertex -2.24858 11.7874 0
      vertex -3.7082 11.4127 5
      vertex -2.24858 11.7874 5
    endloop
  endfacet
  facet normal -0.248648 0.968594 0
    outer loop
      vertex -3.7082 11.4127 5
      vertex -2.24858 11.7874 0
      vertex -3.7082 11.4127 0
    endloop
  endfacet
  facet normal 0.998028 -0.0627749 1.90656e-19
    outer loop
      vertex 11.9054 -1.504 5
      vertex 12 0 0
      vertex 12 0 5
    endloop
  endfacet
  facet normal 0.998028 -0.0627749 1.90656e-19
    outer loop
      vertex 12 0 0
      vertex 11.9054 -1.504 5
      vertex 11.9054 -1.504 0
    endloop
  endfacet
  facet normal 0.770513 -0.637425 -1.16121e-17
    outer loop
      vertex 8.74762 -8.21456 5
      vertex 9.7082 -7.05342 0
      vertex 9.7082 -7.05342 5
    endloop
  endfacet
  facet normal 0.770513 -0.637425 -1.16121e-17
    outer loop
      vertex 9.7082 -7.05342 0
      vertex 8.74762 -8.21456 5
      vertex 8.74762 -8.21456 0
    endloop
  endfacet
  facet normal 0.951052 -0.30903 -6.07222e-18
    outer loop
      vertex 11.1573 -4.41749 5
      vertex 11.623 -2.98428 0
      vertex 11.623 -2.98428 5
    endloop
  endfacet
  facet normal 0.951052 -0.30903 -6.07222e-18
    outer loop
      vertex 11.623 -2.98428 0
      vertex 11.1573 -4.41749 5
      vertex 11.1573 -4.41749 0
    endloop
  endfacet
  facet normal 0.982285 -0.187395 -3.00732e-18
    outer loop
      vertex 11.623 -2.98428 5
      vertex 11.9054 -1.504 0
      vertex 11.9054 -1.504 5
    endloop
  endfacet
  facet normal 0.982285 -0.187395 -3.00732e-18
    outer loop
      vertex 11.9054 -1.504 0
      vertex 11.623 -2.98428 5
      vertex 11.623 -2.98428 0
    endloop
  endfacet
  facet normal -0.684551 -0.728965 0
    outer loop
      vertex -8.74762 -8.21456 0
      vertex -7.64909 -9.24616 5
      vertex -8.74762 -8.21456 5
    endloop
  endfacet
  facet normal -0.684551 -0.728965 -0
    outer loop
      vertex -7.64909 -9.24616 5
      vertex -8.74762 -8.21456 0
      vertex -7.64909 -9.24616 0
    endloop
  endfacet
  facet normal -0.904837 -0.425759 -6.95003e-18
    outer loop
      vertex -10.5157 -5.78104 0
      vertex -11.1573 -4.41749 5
      vertex -11.1573 -4.41749 0
    endloop
  endfacet
  facet normal -0.904837 -0.425759 -6.95003e-18
    outer loop
      vertex -11.1573 -4.41749 5
      vertex -10.5157 -5.78104 0
      vertex -10.5157 -5.78104 5
    endloop
  endfacet
  facet normal -0.770513 -0.637425 1.16121e-17
    outer loop
      vertex -8.74762 -8.21456 0
      vertex -9.7082 -7.05342 5
      vertex -9.7082 -7.05342 0
    endloop
  endfacet
  facet normal -0.770513 -0.637425 1.16121e-17
    outer loop
      vertex -9.7082 -7.05342 5
      vertex -8.74762 -8.21456 0
      vertex -8.74762 -8.21456 5
    endloop
  endfacet
  facet normal 0 0 -1
    outer loop
      vertex 7.5 0 0
      vertex 12 0 0
      vertex 11.9054 -1.504 0
    endloop
  endfacet
  facet normal 0 0 -1
    outer loop
      vertex 7.44086 -0.939999 0
      vertex 11.9054 -1.504 0
      vertex 11.623 -2.98428 0
    endloop
  endfacet
  facet normal 0 0 -1
    outer loop
      vertex 12 0 0
      vertex 7.5 0 0
      vertex 11.9054 1.504 0
    endloop
  endfacet
  facet normal 0 0 -1
    outer loop
      vertex 7.26437 -1.86517 0
      vertex 11.623 -2.98428 0
      vertex 11.1573 -4.41749 0
    endloop
  endfacet
  facet normal 0 0 -1
    outer loop
      vertex 7.44086 0.939999 0
      vertex 11.9054 1.504 0
      vertex 7.5 0 0
    endloop
  endfacet
  facet normal 0 0 -1
    outer loop
      vertex 6.97332 -2.76093 0
      vertex 11.1573 -4.41749 0
      vertex 10.5157 -5.78104 0
    endloop
  endfacet
  facet normal -0 0 -1
    outer loop
      vertex 11.9054 1.504 0
      vertex 7.44086 0.939999 0
      vertex 11.623 2.98428 0
    endloop
  endfacet
  facet normal 0 0 -1
    outer loop
      vertex 6.5723 -3.61315 0
      vertex 10.5157 -5.78104 0
      vertex 9.7082 -7.05342 0
    endloop
  endfacet
  facet normal 0 0 -1
    outer loop
      vertex 7.26437 1.86517 0
      vertex 11.623 2.98428 0
      vertex 7.44086 0.939999 0
    endloop
  endfacet
  facet normal 0 0 -1
    outer loop
      vertex 6.06763 -4.40839 0
      vertex 9.7082 -7.05342 0
      vertex 8.74762 -8.21456 0
    endloop
  endfacet
  facet normal -0 0 -1
    outer loop
      vertex 11.623 2.98428 0
      vertex 7.26437 1.86517 0
      vertex 11.1573 4.41749 0
    endloop
  endfacet
  facet normal 0 0 -1
    outer loop
      vertex 5.46726 -5.1341 0
      vertex 8.74762 -8.21456 0
      vertex 7.64909 -9.24616 0
    endloop
  endfacet
  facet normal 0 0 -1
    outer loop
      vertex 6.97332 2.76093 0
      vertex 11.1573 4.41749 0
      vertex 7.26437 1.86517 0
    endloop
  endfacet
  facet normal -0 0 -1
    outer loop
      vertex 11.1573 4.41749 0
      vertex 6.97332 2.76093 0
      vertex 10.5157 5.78104 0
    endloop
  endfacet
  facet normal 0 0 -1
    outer loop
      vertex 11.9054 -1.504 0
      vertex 7.44086 -0.939999 0
      vertex 7.5 0 0
    endloop
  endfacet
  facet normal 0 0 -1
    outer loop
      vertex 11.623 -2.98428 0
      vertex 7.26437 -1.86517 0
      vertex 7.44086 -0.939999 0
    endloop
  endfacet
  facet normal 0 0 -1
    outer loop
      vertex 11.1573 -4.41749 0
      vertex 6.97332 -2.76093 0
      vertex 7.26437 -1.86517 0
    endloop
  endfacet
  facet normal 0 0 -1
    outer loop
      vertex 10.5157 -5.78104 0
      vertex 6.5723 -3.61315 0
      vertex 6.97332 -2.76093 0
    endloop
  endfacet
  facet normal 0 0 -1
    outer loop
      vertex 4.78068 -5.77885 0
      vertex 7.64909 -9.24616 0
      vertex 6.42992 -10.1319 0
    endloop
  endfacet
  facet normal 0 0 -1
    outer loop
      vertex 9.7082 -7.05342 0
      vertex 6.06763 -4.40839 0
      vertex 6.5723 -3.61315 0
    endloop
  endfacet
  facet normal 0 0 -1
    outer loop
      vertex 8.74762 -8.21456 0
      vertex 5.46726 -5.1341 0
      vertex 6.06763 -4.40839 0
    endloop
  endfacet
  facet normal 0 0 -1
    outer loop
      vertex 4.0187 -6.33246 0
      vertex 6.42992 -10.1319 0
      vertex 5.10935 -10.8579 0
    endloop
  endfacet
  facet normal 0 0 -1
    outer loop
      vertex 7.64909 -9.24616 0
      vertex 4.78068 -5.77885 0
      vertex 5.46726 -5.1341 0
    endloop
  endfacet
  facet normal 0 0 -1
    outer loop
      vertex 6.42992 -10.1319 0
      vertex 4.0187 -6.33246 0
      vertex 4.78068 -5.77885 0
    endloop
  endfacet
  facet normal 0 0 -1
    outer loop
      vertex 3.19334 -6.7862 0
      vertex 5.10935 -10.8579 0
      vertex 3.7082 -11.4127 0
    endloop
  endfacet
  facet normal 0 0 -1
    outer loop
      vertex 5.10935 -10.8579 0
      vertex 3.19334 -6.7862 0
      vertex 4.0187 -6.33246 0
    endloop
  endfacet
  facet normal 0 0 -1
    outer loop
      vertex 3.7082 -11.4127 0
      vertex 2.31763 -7.13292 0
      vertex 3.19334 -6.7862 0
    endloop
  endfacet
  facet normal 0 0 -1
    outer loop
      vertex 2.24858 -11.7874 0
      vertex 2.31763 -7.13292 0
      vertex 3.7082 -11.4127 0
    endloop
  endfacet
  facet normal 0 0 -1
    outer loop
      vertex 2.24858 -11.7874 0
      vertex 1.40536 -7.36715 0
      vertex 2.31763 -7.13292 0
    endloop
  endfacet
  facet normal 0 0 -1
    outer loop
      vertex 0.753486 -11.9763 0
      vertex 1.40536 -7.36715 0
      vertex 2.24858 -11.7874 0
    endloop
  endfacet
  facet normal 0 0 -1
    outer loop
      vertex 0.753486 -11.9763 0
      vertex 0.470928 -7.4852 0
      vertex 1.40536 -7.36715 0
    endloop
  endfacet
  facet normal 0 0 -1
    outer loop
      vertex 0.753486 -11.9763 0
      vertex -0.470928 -7.4852 0
      vertex 0.470928 -7.4852 0
    endloop
  endfacet
  facet normal 0 0 -1
    outer loop
      vertex -0.753486 -11.9763 0
      vertex -0.470928 -7.4852 0
      vertex 0.753486 -11.9763 0
    endloop
  endfacet
  facet normal 0 0 -1
    outer loop
      vertex -0.753486 -11.9763 0
      vertex -1.40536 -7.36715 0
      vertex -0.470928 -7.4852 0
    endloop
  endfacet
  facet normal 0 0 -1
    outer loop
      vertex -2.24858 -11.7874 0
      vertex -1.40536 -7.36715 0
      vertex -0.753486 -11.9763 0
    endloop
  endfacet
  facet normal 0 0 -1
    outer loop
      vertex -2.24858 -11.7874 0
      vertex -2.31763 -7.13292 0
      vertex -1.40536 -7.36715 0
    endloop
  endfacet
  facet normal 0 0 -1
    outer loop
      vertex -3.7082 -11.4127 0
      vertex -2.31763 -7.13292 0
      vertex -2.24858 -11.7874 0
    endloop
  endfacet
  facet normal -0 0 -1
    outer loop
      vertex -2.31763 -7.13292 0
      vertex -3.7082 -11.4127 0
      vertex -3.19334 -6.7862 0
    endloop
  endfacet
  facet normal 0 0 -1
    outer loop
      vertex -5.10935 -10.8579 0
      vertex -3.19334 -6.7862 0
      vertex -3.7082 -11.4127 0
    endloop
  endfacet
  facet normal -0 0 -1
    outer loop
      vertex -3.19334 -6.7862 0
      vertex -5.10935 -10.8579 0
      vertex -4.0187 -6.33246 0
    endloop
  endfacet
  facet normal 0 0 -1
    outer loop
      vertex -6.42992 -10.1319 0
      vertex -4.0187 -6.33246 0
      vertex -5.10935 -10.8579 0
    endloop
  endfacet
  facet normal -0 0 -1
    outer loop
      vertex -4.0187 -6.33246 0
      vertex -6.42992 -10.1319 0
      vertex -4.78068 -5.77885 0
    endloop
  endfacet
  facet normal 0 0 -1
    outer loop
      vertex -7.64909 -9.24616 0
      vertex -4.78068 -5.77885 0
      vertex -6.42992 -10.1319 0
    endloop
  endfacet
  facet normal -0 0 -1
    outer loop
      vertex -4.78068 -5.77885 0
      vertex -7.64909 -9.24616 0
      vertex -5.46726 -5.1341 0
    endloop
  endfacet
  facet normal 0 0 -1
    outer loop
      vertex -8.74762 -8.21456 0
      vertex -5.46726 -5.1341 0
      vertex -7.64909 -9.24616 0
    endloop
  endfacet
  facet normal -0 0 -1
    outer loop
      vertex -5.46726 -5.1341 0
      vertex -8.74762 -8.21456 0
      vertex -6.06763 -4.40839 0
    endloop
  endfacet
  facet normal 0 0 -1
    outer loop
      vertex -9.7082 -7.05342 0
      vertex -6.06763 -4.40839 0
      vertex -8.74762 -8.21456 0
    endloop
  endfacet
  facet normal -0 0 -1
    outer loop
      vertex -6.06763 -4.40839 0
      vertex -9.7082 -7.05342 0
      vertex -6.5723 -3.61315 0
    endloop
  endfacet
  facet normal -0 0 -1
    outer loop
      vertex -6.5723 -3.61315 0
      vertex -10.5157 -5.78104 0
      vertex -6.97332 -2.76093 0
    endloop
  endfacet
  facet normal 0 0 -1
    outer loop
      vertex -10.5157 -5.78104 0
      vertex -6.5723 -3.61315 0
      vertex -9.7082 -7.05342 0
    endloop
  endfacet
  facet normal 0 0 -1
    outer loop
      vertex 6.5723 3.61315 0
      vertex 10.5157 5.78104 0
      vertex 6.97332 2.76093 0
    endloop
  endfacet
  facet normal -0 0 -1
    outer loop
      vertex 10.5157 5.78104 0
      vertex 6.5723 3.61315 0
      vertex 9.7082 7.05342 0
    endloop
  endfacet
  facet normal 0 0 -1
    outer loop
      vertex 6.06763 4.40839 0
      vertex 9.7082 7.05342 0
      vertex 6.5723 3.61315 0
    endloop
  endfacet
  facet normal -0 0 -1
    outer loop
      vertex 9.7082 7.05342 0
      vertex 6.06763 4.40839 0
      vertex 8.74762 8.21456 0
    endloop
  endfacet
  facet normal 0 0 -1
    outer loop
      vertex 5.46726 5.1341 0
      vertex 8.74762 8.21456 0
      vertex 6.06763 4.40839 0
    endloop
  endfacet
  facet normal -0 0 -1
    outer loop
      vertex 8.74762 8.21456 0
      vertex 5.46726 5.1341 0
      vertex 7.64909 9.24616 0
    endloop
  endfacet
  facet normal 0 0 -1
    outer loop
      vertex 4.78068 5.77885 0
      vertex 7.64909 9.24616 0
      vertex 5.46726 5.1341 0
    endloop
  endfacet
  facet normal -0 0 -1
    outer loop
      vertex 7.64909 9.24616 0
      vertex 4.78068 5.77885 0
      vertex 6.42992 10.1319 0
    endloop
  endfacet
  facet normal 0 0 -1
    outer loop
      vertex 4.0187 6.33246 0
      vertex 6.42992 10.1319 0
      vertex 4.78068 5.77885 0
    endloop
  endfacet
  facet normal -0 0 -1
    outer loop
      vertex 6.42992 10.1319 0
      vertex 4.0187 6.33246 0
      vertex 5.10935 10.8579 0
    endloop
  endfacet
  facet normal 0 0 -1
    outer loop
      vertex 3.19334 6.7862 0
      vertex 5.10935 10.8579 0
      vertex 4.0187 6.33246 0
    endloop
  endfacet
  facet normal -0 0 -1
    outer loop
      vertex 5.10935 10.8579 0
      vertex 3.19334 6.7862 0
      vertex 3.7082 11.4127 0
    endloop
  endfacet
  facet normal 0 0 -1
    outer loop
      vertex 2.31763 7.13292 0
      vertex 3.7082 11.4127 0
      vertex 3.19334 6.7862 0
    endloop
  endfacet
  facet normal 0 0 -1
    outer loop
      vertex 2.31763 7.13292 0
      vertex 2.24858 11.7874 0
      vertex 3.7082 11.4127 0
    endloop
  endfacet
  facet normal 0 0 -1
    outer loop
      vertex 1.40536 7.36715 0
      vertex 2.24858 11.7874 0
      vertex 2.31763 7.13292 0
    endloop
  endfacet
  facet normal 0 0 -1
    outer loop
      vertex 1.40536 7.36715 0
      vertex 0.753486 11.9763 0
      vertex 2.24858 11.7874 0
    endloop
  endfacet
  facet normal 0 0 -1
    outer loop
      vertex 0.470928 7.4852 0
      vertex 0.753486 11.9763 0
      vertex 1.40536 7.36715 0
    endloop
  endfacet
  facet normal 0 0 -1
    outer loop
      vertex -0.470928 7.4852 0
      vertex 0.753486 11.9763 0
      vertex 0.470928 7.4852 0
    endloop
  endfacet
  facet normal 0 0 -1
    outer loop
      vertex -0.470928 7.4852 0
      vertex -0.753486 11.9763 0
      vertex 0.753486 11.9763 0
    endloop
  endfacet
  facet normal 0 0 -1
    outer loop
      vertex -1.40536 7.36715 0
      vertex -0.753486 11.9763 0
      vertex -0.470928 7.4852 0
    endloop
  endfacet
  facet normal 0 0 -1
    outer loop
      vertex -1.40536 7.36715 0
      vertex -2.24858 11.7874 0
      vertex -0.753486 11.9763 0
    endloop
  endfacet
  facet normal 0 0 -1
    outer loop
      vertex -2.31763 7.13292 0
      vertex -2.24858 11.7874 0
      vertex -1.40536 7.36715 0
    endloop
  endfacet
  facet normal 0 0 -1
    outer loop
      vertex -3.7082 11.4127 0
      vertex -2.31763 7.13292 0
      vertex -3.19334 6.7862 0
    endloop
  endfacet
  facet normal 0 0 -1
    outer loop
      vertex -2.31763 7.13292 0
      vertex -3.7082 11.4127 0
      vertex -2.24858 11.7874 0
    endloop
  endfacet
  facet normal 0 0 -1
    outer loop
      vertex -5.10935 10.8579 0
      vertex -3.19334 6.7862 0
      vertex -4.0187 6.33246 0
    endloop
  endfacet
  facet normal 0 0 -1
    outer loop
      vertex -6.42992 10.1319 0
      vertex -4.0187 6.33246 0
      vertex -4.78068 5.77885 0
    endloop
  endfacet
  facet normal 0 0 -1
    outer loop
      vertex -3.19334 6.7862 0
      vertex -5.10935 10.8579 0
      vertex -3.7082 11.4127 0
    endloop
  endfacet
  facet normal 0 0 -1
    outer loop
      vertex -7.64909 9.24616 0
      vertex -4.78068 5.77885 0
      vertex -5.46726 5.1341 0
    endloop
  endfacet
  facet normal 0 0 -1
    outer loop
      vertex -8.74762 8.21456 0
      vertex -5.46726 5.1341 0
      vertex -6.06763 4.40839 0
    endloop
  endfacet
  facet normal 0 0 -1
    outer loop
      vertex -4.0187 6.33246 0
      vertex -6.42992 10.1319 0
      vertex -5.10935 10.8579 0
    endloop
  endfacet
  facet normal 0 0 -1
    outer loop
      vertex -9.7082 7.05342 0
      vertex -6.06763 4.40839 0
      vertex -6.5723 3.61315 0
    endloop
  endfacet
  facet normal 0 0 -1
    outer loop
      vertex -10.5157 5.78104 0
      vertex -6.5723 3.61315 0
      vertex -6.97332 2.76093 0
    endloop
  endfacet
  facet normal 0 0 -1
    outer loop
      vertex -11.1573 4.41749 0
      vertex -6.97332 2.76093 0
      vertex -7.26437 1.86517 0
    endloop
  endfacet
  facet normal 0 0 -1
    outer loop
      vertex -11.623 2.98428 0
      vertex -7.26437 1.86517 0
      vertex -7.44086 0.939999 0
    endloop
  endfacet
  facet normal 0 0 -1
    outer loop
      vertex -4.78068 5.77885 0
      vertex -7.64909 9.24616 0
      vertex -6.42992 10.1319 0
    endloop
  endfacet
  facet normal 0 0 -1
    outer loop
      vertex -11.9054 1.504 0
      vertex -7.44086 0.939999 0
      vertex -7.5 0 0
    endloop
  endfacet
  facet normal 0 0 -1
    outer loop
      vertex -11.1573 -4.41749 0
      vertex -6.97332 -2.76093 0
      vertex -10.5157 -5.78104 0
    endloop
  endfacet
  facet normal -0 0 -1
    outer loop
      vertex -6.97332 -2.76093 0
      vertex -11.1573 -4.41749 0
      vertex -7.26437 -1.86517 0
    endloop
  endfacet
  facet normal 0 0 -1
    outer loop
      vertex -5.46726 5.1341 0
      vertex -8.74762 8.21456 0
      vertex -7.64909 9.24616 0
    endloop
  endfacet
  facet normal 0 0 -1
    outer loop
      vertex -11.623 -2.98428 0
      vertex -7.26437 -1.86517 0
      vertex -11.1573 -4.41749 0
    endloop
  endfacet
  facet normal 0 0 -1
    outer loop
      vertex -6.06763 4.40839 0
      vertex -9.7082 7.05342 0
      vertex -8.74762 8.21456 0
    endloop
  endfacet
  facet normal -0 0 -1
    outer loop
      vertex -7.26437 -1.86517 0
      vertex -11.623 -2.98428 0
      vertex -7.44086 -0.939999 0
    endloop
  endfacet
  facet normal 0 0 -1
    outer loop
      vertex -6.5723 3.61315 0
      vertex -10.5157 5.78104 0
      vertex -9.7082 7.05342 0
    endloop
  endfacet
  facet normal 0 0 -1
    outer loop
      vertex -11.9054 -1.504 0
      vertex -7.44086 -0.939999 0
      vertex -11.623 -2.98428 0
    endloop
  endfacet
  facet normal 0 0 -1
    outer loop
      vertex -6.97332 2.76093 0
      vertex -11.1573 4.41749 0
      vertex -10.5157 5.78104 0
    endloop
  endfacet
  facet normal -0 0 -1
    outer loop
      vertex -7.44086 -0.939999 0
      vertex -11.9054 -1.504 0
      vertex -7.5 0 0
    endloop
  endfacet
  facet normal 0 0 -1
    outer loop
      vertex -7.26437 1.86517 0
      vertex -11.623 2.98428 0
      vertex -11.1573 4.41749 0
    endloop
  endfacet
  facet normal 0 0 -1
    outer loop
      vertex -12 0 0
      vertex -7.5 0 0
      vertex -11.9054 -1.504 0
    endloop
  endfacet
  facet normal 0 0 -1
    outer loop
      vertex -7.44086 0.939999 0
      vertex -11.9054 1.504 0
      vertex -11.623 2.98428 0
    endloop
  endfacet
  facet normal 0 0 -1
    outer loop
      vertex -7.5 0 0
      vertex -12 0 0
      vertex -11.9054 1.504 0
    endloop
  endfacet
  facet normal 0.481759 -0.876304 0
    outer loop
      vertex 5.10935 -10.8579 0
      vertex 6.42992 -10.1319 5
      vertex 5.10935 -10.8579 5
    endloop
  endfacet
  facet normal 0.481759 -0.876304 0
    outer loop
      vertex 6.42992 -10.1319 5
      vertex 5.10935 -10.8579 0
      vertex 6.42992 -10.1319 0
    endloop
  endfacet
  facet normal 0.684551 -0.728965 0
    outer loop
      vertex 7.64909 -9.24616 0
      vertex 8.74762 -8.21456 5
      vertex 7.64909 -9.24616 5
    endloop
  endfacet
  facet normal 0.684551 -0.728965 0
    outer loop
      vertex 8.74762 -8.21456 5
      vertex 7.64909 -9.24616 0
      vertex 8.74762 -8.21456 0
    endloop
  endfacet
  facet normal 0.904837 -0.425759 6.95003e-18
    outer loop
      vertex 10.5157 -5.78104 5
      vertex 11.1573 -4.41749 0
      vertex 11.1573 -4.41749 5
    endloop
  endfacet
  facet normal 0.904837 -0.425759 6.95003e-18
    outer loop
      vertex 11.1573 -4.41749 0
      vertex 10.5157 -5.78104 5
      vertex 10.5157 -5.78104 0
    endloop
  endfacet
  facet normal -0.951052 -0.30903 6.07222e-18
    outer loop
      vertex -11.1573 -4.41749 0
      vertex -11.623 -2.98428 5
      vertex -11.623 -2.98428 0
    endloop
  endfacet
  facet normal -0.951052 -0.30903 6.07222e-18
    outer loop
      vertex -11.623 -2.98428 5
      vertex -11.1573 -4.41749 0
      vertex -11.1573 -4.41749 5
    endloop
  endfacet
  facet normal 0.368151 -0.929766 0
    outer loop
      vertex 3.7082 -11.4127 0
      vertex 5.10935 -10.8579 5
      vertex 3.7082 -11.4127 5
    endloop
  endfacet
  facet normal 0.368151 -0.929766 0
    outer loop
      vertex 5.10935 -10.8579 5
      vertex 3.7082 -11.4127 0
      vertex 5.10935 -10.8579 0
    endloop
  endfacet
  facet normal 0.248648 -0.968594 0
    outer loop
      vertex 2.24858 -11.7874 0
      vertex 3.7082 -11.4127 5
      vertex 2.24858 -11.7874 5
    endloop
  endfacet
  facet normal 0.248648 -0.968594 0
    outer loop
      vertex 3.7082 -11.4127 5
      vertex 2.24858 -11.7874 0
      vertex 3.7082 -11.4127 0
    endloop
  endfacet
  facet normal -0.12535 -0.992113 0
    outer loop
      vertex -2.24858 -11.7874 0
      vertex -0.753486 -11.9763 5
      vertex -2.24858 -11.7874 5
    endloop
  endfacet
  facet normal -0.12535 -0.992113 -0
    outer loop
      vertex -0.753486 -11.9763 5
      vertex -2.24858 -11.7874 0
      vertex -0.753486 -11.9763 0
    endloop
  endfacet
  facet normal -0.587768 -0.809029 0
    outer loop
      vertex -7.64909 -9.24616 0
      vertex -6.42992 -10.1319 5
      vertex -7.64909 -9.24616 5
    endloop
  endfacet
  facet normal -0.587768 -0.809029 -0
    outer loop
      vertex -6.42992 -10.1319 5
      vertex -7.64909 -9.24616 0
      vertex -6.42992 -10.1319 0
    endloop
  endfacet
  facet normal -0.844321 -0.535838 -4.70521e-18
    outer loop
      vertex -9.7082 -7.05342 0
      vertex -10.5157 -5.78104 5
      vertex -10.5157 -5.78104 0
    endloop
  endfacet
  facet normal -0.844321 -0.535838 -4.70521e-18
    outer loop
      vertex -10.5157 -5.78104 5
      vertex -9.7082 -7.05342 0
      vertex -9.7082 -7.05342 5
    endloop
  endfacet
  facet normal -0.982285 -0.187395 3.00732e-18
    outer loop
      vertex -11.623 -2.98428 0
      vertex -11.9054 -1.504 5
      vertex -11.9054 -1.504 0
    endloop
  endfacet
  facet normal -0.982285 -0.187395 3.00732e-18
    outer loop
      vertex -11.9054 -1.504 5
      vertex -11.623 -2.98428 0
      vertex -11.623 -2.98428 5
    endloop
  endfacet
  facet normal -0.998028 -0.0627749 -1.90656e-19
    outer loop
      vertex -11.9054 -1.504 0
      vertex -12 0 5
      vertex -12 0 0
    endloop
  endfacet
  facet normal -0.998028 -0.0627749 -1.90656e-19
    outer loop
      vertex -12 0 5
      vertex -11.9054 -1.504 0
      vertex -11.9054 -1.504 5
    endloop
  endfacet
  facet normal 0.587768 -0.809029 0
    outer loop
      vertex 6.42992 -10.1319 0
      vertex 7.64909 -9.24616 5
      vertex 6.42992 -10.1319 5
    endloop
  endfacet
  facet normal 0.587768 -0.809029 0
    outer loop
      vertex 7.64909 -9.24616 5
      vertex 6.42992 -10.1319 0
      vertex 7.64909 -9.24616 0
    endloop
  endfacet
  facet normal -0.248648 -0.968594 0
    outer loop
      vertex -3.7082 -11.4127 0
      vertex -2.24858 -11.7874 5
      vertex -3.7082 -11.4127 5
    endloop
  endfacet
  facet normal -0.248648 -0.968594 -0
    outer loop
      vertex -2.24858 -11.7874 5
      vertex -3.7082 -11.4127 0
      vertex -2.24858 -11.7874 0
    endloop
  endfacet
  facet normal -0.368151 -0.929766 0
    outer loop
      vertex -5.10935 -10.8579 0
      vertex -3.7082 -11.4127 5
      vertex -5.10935 -10.8579 5
    endloop
  endfacet
  facet normal -0.368151 -0.929766 -0
    outer loop
      vertex -3.7082 -11.4127 5
      vertex -5.10935 -10.8579 0
      vertex -3.7082 -11.4127 0
    endloop
  endfacet
  facet normal -0.481759 -0.876304 0
    outer loop
      vertex -6.42992 -10.1319 0
      vertex -5.10935 -10.8579 5
      vertex -6.42992 -10.1319 5
    endloop
  endfacet
  facet normal -0.481759 -0.876304 -0
    outer loop
      vertex -5.10935 -10.8579 5
      vertex -6.42992 -10.1319 0
      vertex -5.10935 -10.8579 0
    endloop
  endfacet
  facet normal -0.998027 -0.0627908 -2.93539e-19
    outer loop
      vertex 7.5 0 0
      vertex 7.44086 0.939999 5
      vertex 7.44086 0.939999 0
    endloop
  endfacet
  facet normal -0.998027 -0.0627908 -2.93539e-19
    outer loop
      vertex 7.44086 0.939999 5
      vertex 7.5 0 0
      vertex 7.5 0 5
    endloop
  endfacet
  facet normal 0.998027 -0.0627908 2.93539e-19
    outer loop
      vertex -7.5 0 5
      vertex -7.44086 0.939999 0
      vertex -7.44086 0.939999 5
    endloop
  endfacet
  facet normal 0.998027 -0.0627908 2.93539e-19
    outer loop
      vertex -7.44086 0.939999 0
      vertex -7.5 0 5
      vertex -7.5 0 0
    endloop
  endfacet
  facet normal 0 -1 0
    outer loop
      vertex -0.470928 7.4852 0
      vertex 0.470928 7.4852 5
      vertex -0.470928 7.4852 5
    endloop
  endfacet
  facet normal 0 -1 -0
    outer loop
      vertex 0.470928 7.4852 5
      vertex -0.470928 7.4852 0
      vertex 0.470928 7.4852 0
    endloop
  endfacet
  facet normal 0 1 -0
    outer loop
      vertex 0.470928 -7.4852 0
      vertex -0.470928 -7.4852 5
      vertex 0.470928 -7.4852 5
    endloop
  endfacet
  facet normal 0 1 0
    outer loop
      vertex -0.470928 -7.4852 5
      vertex 0.470928 -7.4852 0
      vertex -0.470928 -7.4852 0
    endloop
  endfacet
  facet normal -0.684552 -0.728964 0
    outer loop
      vertex 4.78068 5.77885 0
      vertex 5.46726 5.1341 5
      vertex 4.78068 5.77885 5
    endloop
  endfacet
  facet normal -0.684552 -0.728964 -0
    outer loop
      vertex 5.46726 5.1341 5
      vertex 4.78068 5.77885 0
      vertex 5.46726 5.1341 0
    endloop
  endfacet
  facet normal 0.684552 -0.728964 0
    outer loop
      vertex -5.46726 5.1341 0
      vertex -4.78068 5.77885 5
      vertex -5.46726 5.1341 5
    endloop
  endfacet
  facet normal 0.684552 -0.728964 0
    outer loop
      vertex -4.78068 5.77885 5
      vertex -5.46726 5.1341 0
      vertex -4.78068 5.77885 0
    endloop
  endfacet
  facet normal 0.368126 -0.929776 0
    outer loop
      vertex -3.19334 6.7862 0
      vertex -2.31763 7.13292 5
      vertex -3.19334 6.7862 5
    endloop
  endfacet
  facet normal 0.368126 -0.929776 0
    outer loop
      vertex -2.31763 7.13292 5
      vertex -3.19334 6.7862 0
      vertex -2.31763 7.13292 0
    endloop
  endfacet
  facet normal -0.84433 0.535823 -4.60452e-20
    outer loop
      vertex 6.06763 -4.40839 0
      vertex 6.5723 -3.61315 5
      vertex 6.5723 -3.61315 0
    endloop
  endfacet
  facet normal -0.84433 0.535823 -4.60452e-20
    outer loop
      vertex 6.5723 -3.61315 5
      vertex 6.06763 -4.40839 0
      vertex 6.06763 -4.40839 5
    endloop
  endfacet
  facet normal -0.904829 -0.425776 1.272e-18
    outer loop
      vertex 6.97332 2.76093 0
      vertex 6.5723 3.61315 5
      vertex 6.5723 3.61315 0
    endloop
  endfacet
  facet normal -0.904829 -0.425776 1.272e-18
    outer loop
      vertex 6.5723 3.61315 5
      vertex 6.97332 2.76093 0
      vertex 6.97332 2.76093 5
    endloop
  endfacet
  facet normal -0.368126 -0.929776 0
    outer loop
      vertex 2.31763 7.13292 0
      vertex 3.19334 6.7862 5
      vertex 2.31763 7.13292 5
    endloop
  endfacet
  facet normal -0.368126 -0.929776 -0
    outer loop
      vertex 3.19334 6.7862 5
      vertex 2.31763 7.13292 0
      vertex 3.19334 6.7862 0
    endloop
  endfacet
  facet normal -0.248689 -0.968583 0
    outer loop
      vertex 1.40536 7.36715 0
      vertex 2.31763 7.13292 5
      vertex 1.40536 7.36715 5
    endloop
  endfacet
  facet normal -0.248689 -0.968583 -0
    outer loop
      vertex 2.31763 7.13292 5
      vertex 1.40536 7.36715 0
      vertex 2.31763 7.13292 0
    endloop
  endfacet
  facet normal -0.481749 -0.876309 0
    outer loop
      vertex 3.19334 6.7862 0
      vertex 4.0187 6.33246 5
      vertex 3.19334 6.7862 5
    endloop
  endfacet
  facet normal -0.481749 -0.876309 -0
    outer loop
      vertex 4.0187 6.33246 5
      vertex 3.19334 6.7862 0
      vertex 4.0187 6.33246 0
    endloop
  endfacet
  facet normal 0.904829 -0.425776 -1.272e-18
    outer loop
      vertex -6.97332 2.76093 5
      vertex -6.5723 3.61315 0
      vertex -6.5723 3.61315 5
    endloop
  endfacet
  facet normal 0.904829 -0.425776 -1.272e-18
    outer loop
      vertex -6.5723 3.61315 0
      vertex -6.97332 2.76093 5
      vertex -6.97332 2.76093 0
    endloop
  endfacet
  facet normal 0.125337 -0.992114 0
    outer loop
      vertex -1.40536 7.36715 0
      vertex -0.470928 7.4852 5
      vertex -1.40536 7.36715 5
    endloop
  endfacet
  facet normal 0.125337 -0.992114 0
    outer loop
      vertex -0.470928 7.4852 5
      vertex -1.40536 7.36715 0
      vertex -0.470928 7.4852 0
    endloop
  endfacet
  facet normal 0.770508 0.637431 2.50371e-18
    outer loop
      vertex -5.46726 -5.1341 5
      vertex -6.06763 -4.40839 0
      vertex -6.06763 -4.40839 5
    endloop
  endfacet
  facet normal 0.770508 0.637431 2.50371e-18
    outer loop
      vertex -6.06763 -4.40839 0
      vertex -5.46726 -5.1341 5
      vertex -5.46726 -5.1341 0
    endloop
  endfacet
  facet normal -0.125337 0.992114 0
    outer loop
      vertex 1.40536 -7.36715 0
      vertex 0.470928 -7.4852 5
      vertex 1.40536 -7.36715 5
    endloop
  endfacet
  facet normal -0.125337 0.992114 0
    outer loop
      vertex 0.470928 -7.4852 5
      vertex 1.40536 -7.36715 0
      vertex 0.470928 -7.4852 0
    endloop
  endfacet
  facet normal -0.368126 0.929776 0
    outer loop
      vertex 3.19334 -6.7862 0
      vertex 2.31763 -7.13292 5
      vertex 3.19334 -6.7862 5
    endloop
  endfacet
  facet normal -0.368126 0.929776 0
    outer loop
      vertex 2.31763 -7.13292 5
      vertex 3.19334 -6.7862 0
      vertex 2.31763 -7.13292 0
    endloop
  endfacet
  facet normal -0.951057 -0.309017 -3.47642e-18
    outer loop
      vertex 7.26437 1.86517 0
      vertex 6.97332 2.76093 5
      vertex 6.97332 2.76093 0
    endloop
  endfacet
  facet normal -0.951057 -0.309017 -3.47642e-18
    outer loop
      vertex 6.97332 2.76093 5
      vertex 7.26437 1.86517 0
      vertex 7.26437 1.86517 5
    endloop
  endfacet
  facet normal -0.982286 -0.187386 8.02917e-19
    outer loop
      vertex 7.44086 0.939999 0
      vertex 7.26437 1.86517 5
      vertex 7.26437 1.86517 0
    endloop
  endfacet
  facet normal -0.982286 -0.187386 8.02917e-19
    outer loop
      vertex 7.26437 1.86517 5
      vertex 7.44086 0.939999 0
      vertex 7.44086 0.939999 5
    endloop
  endfacet
  facet normal -0.770508 -0.637431 2.50371e-18
    outer loop
      vertex 6.06763 4.40839 0
      vertex 5.46726 5.1341 5
      vertex 5.46726 5.1341 0
    endloop
  endfacet
  facet normal -0.770508 -0.637431 2.50371e-18
    outer loop
      vertex 5.46726 5.1341 5
      vertex 6.06763 4.40839 0
      vertex 6.06763 4.40839 5
    endloop
  endfacet
  facet normal -0.84433 -0.535823 4.60452e-20
    outer loop
      vertex 6.5723 3.61315 0
      vertex 6.06763 4.40839 5
      vertex 6.06763 4.40839 0
    endloop
  endfacet
  facet normal -0.84433 -0.535823 4.60452e-20
    outer loop
      vertex 6.06763 4.40839 5
      vertex 6.5723 3.61315 0
      vertex 6.5723 3.61315 5
    endloop
  endfacet
  facet normal -0.125337 -0.992114 0
    outer loop
      vertex 0.470928 7.4852 0
      vertex 1.40536 7.36715 5
      vertex 0.470928 7.4852 5
    endloop
  endfacet
  facet normal -0.125337 -0.992114 -0
    outer loop
      vertex 1.40536 7.36715 5
      vertex 0.470928 7.4852 0
      vertex 1.40536 7.36715 0
    endloop
  endfacet
  facet normal -0.587785 -0.809017 0
    outer loop
      vertex 4.0187 6.33246 0
      vertex 4.78068 5.77885 5
      vertex 4.0187 6.33246 5
    endloop
  endfacet
  facet normal -0.587785 -0.809017 -0
    outer loop
      vertex 4.78068 5.77885 5
      vertex 4.0187 6.33246 0
      vertex 4.78068 5.77885 0
    endloop
  endfacet
  facet normal 0.84433 -0.535823 -4.60452e-20
    outer loop
      vertex -6.5723 3.61315 5
      vertex -6.06763 4.40839 0
      vertex -6.06763 4.40839 5
    endloop
  endfacet
  facet normal 0.84433 -0.535823 -4.60452e-20
    outer loop
      vertex -6.06763 4.40839 0
      vertex -6.5723 3.61315 5
      vertex -6.5723 3.61315 0
    endloop
  endfacet
  facet normal 0.770508 -0.637431 -2.50371e-18
    outer loop
      vertex -6.06763 4.40839 5
      vertex -5.46726 5.1341 0
      vertex -5.46726 5.1341 5
    endloop
  endfacet
  facet normal 0.770508 -0.637431 -2.50371e-18
    outer loop
      vertex -5.46726 5.1341 0
      vertex -6.06763 4.40839 5
      vertex -6.06763 4.40839 0
    endloop
  endfacet
  facet normal 0.951057 -0.309017 3.47642e-18
    outer loop
      vertex -7.26437 1.86517 5
      vertex -6.97332 2.76093 0
      vertex -6.97332 2.76093 5
    endloop
  endfacet
  facet normal 0.951057 -0.309017 3.47642e-18
    outer loop
      vertex -6.97332 2.76093 0
      vertex -7.26437 1.86517 5
      vertex -7.26437 1.86517 0
    endloop
  endfacet
  facet normal 0.982286 -0.187386 -8.02917e-19
    outer loop
      vertex -7.44086 0.939999 5
      vertex -7.26437 1.86517 0
      vertex -7.26437 1.86517 5
    endloop
  endfacet
  facet normal 0.982286 -0.187386 -8.02917e-19
    outer loop
      vertex -7.26437 1.86517 0
      vertex -7.44086 0.939999 5
      vertex -7.44086 0.939999 0
    endloop
  endfacet
  facet normal 0.481749 -0.876309 0
    outer loop
      vertex -4.0187 6.33246 0
      vertex -3.19334 6.7862 5
      vertex -4.0187 6.33246 5
    endloop
  endfacet
  facet normal 0.481749 -0.876309 0
    outer loop
      vertex -3.19334 6.7862 5
      vertex -4.0187 6.33246 0
      vertex -3.19334 6.7862 0
    endloop
  endfacet
  facet normal 0.587785 -0.809017 0
    outer loop
      vertex -4.78068 5.77885 0
      vertex -4.0187 6.33246 5
      vertex -4.78068 5.77885 5
    endloop
  endfacet
  facet normal 0.587785 -0.809017 0
    outer loop
      vertex -4.0187 6.33246 5
      vertex -4.78068 5.77885 0
      vertex -4.0187 6.33246 0
    endloop
  endfacet
  facet normal 0.248689 -0.968583 0
    outer loop
      vertex -2.31763 7.13292 0
      vertex -1.40536 7.36715 5
      vertex -2.31763 7.13292 5
    endloop
  endfacet
  facet normal 0.248689 -0.968583 0
    outer loop
      vertex -1.40536 7.36715 5
      vertex -2.31763 7.13292 0
      vertex -1.40536 7.36715 0
    endloop
  endfacet
  facet normal -0.998027 0.0627908 2.93539e-19
    outer loop
      vertex 7.44086 -0.939999 0
      vertex 7.5 0 5
      vertex 7.5 0 0
    endloop
  endfacet
  facet normal -0.998027 0.0627908 2.93539e-19
    outer loop
      vertex 7.5 0 5
      vertex 7.44086 -0.939999 0
      vertex 7.44086 -0.939999 5
    endloop
  endfacet
  facet normal -0.770508 0.637431 -2.50371e-18
    outer loop
      vertex 5.46726 -5.1341 0
      vertex 6.06763 -4.40839 5
      vertex 6.06763 -4.40839 0
    endloop
  endfacet
  facet normal -0.770508 0.637431 -2.50371e-18
    outer loop
      vertex 6.06763 -4.40839 5
      vertex 5.46726 -5.1341 0
      vertex 5.46726 -5.1341 5
    endloop
  endfacet
  facet normal -0.982286 0.187386 -8.02917e-19
    outer loop
      vertex 7.26437 -1.86517 0
      vertex 7.44086 -0.939999 5
      vertex 7.44086 -0.939999 0
    endloop
  endfacet
  facet normal -0.982286 0.187386 -8.02917e-19
    outer loop
      vertex 7.44086 -0.939999 5
      vertex 7.26437 -1.86517 0
      vertex 7.26437 -1.86517 5
    endloop
  endfacet
  facet normal 0.951057 0.309017 -3.47642e-18
    outer loop
      vertex -6.97332 -2.76093 5
      vertex -7.26437 -1.86517 0
      vertex -7.26437 -1.86517 5
    endloop
  endfacet
  facet normal 0.951057 0.309017 -3.47642e-18
    outer loop
      vertex -7.26437 -1.86517 0
      vertex -6.97332 -2.76093 5
      vertex -6.97332 -2.76093 0
    endloop
  endfacet
  facet normal -0.684552 0.728964 0
    outer loop
      vertex 5.46726 -5.1341 0
      vertex 4.78068 -5.77885 5
      vertex 5.46726 -5.1341 5
    endloop
  endfacet
  facet normal -0.684552 0.728964 0
    outer loop
      vertex 4.78068 -5.77885 5
      vertex 5.46726 -5.1341 0
      vertex 4.78068 -5.77885 0
    endloop
  endfacet
  facet normal -0.904829 0.425776 -1.272e-18
    outer loop
      vertex 6.5723 -3.61315 0
      vertex 6.97332 -2.76093 5
      vertex 6.97332 -2.76093 0
    endloop
  endfacet
  facet normal -0.904829 0.425776 -1.272e-18
    outer loop
      vertex 6.97332 -2.76093 5
      vertex 6.5723 -3.61315 0
      vertex 6.5723 -3.61315 5
    endloop
  endfacet
  facet normal 0.684552 0.728964 -0
    outer loop
      vertex -4.78068 -5.77885 0
      vertex -5.46726 -5.1341 5
      vertex -4.78068 -5.77885 5
    endloop
  endfacet
  facet normal 0.684552 0.728964 0
    outer loop
      vertex -5.46726 -5.1341 5
      vertex -4.78068 -5.77885 0
      vertex -5.46726 -5.1341 0
    endloop
  endfacet
  facet normal 0.84433 0.535823 4.60452e-20
    outer loop
      vertex -6.06763 -4.40839 5
      vertex -6.5723 -3.61315 0
      vertex -6.5723 -3.61315 5
    endloop
  endfacet
  facet normal 0.84433 0.535823 4.60452e-20
    outer loop
      vertex -6.5723 -3.61315 0
      vertex -6.06763 -4.40839 5
      vertex -6.06763 -4.40839 0
    endloop
  endfacet
  facet normal -0.248689 0.968583 0
    outer loop
      vertex 2.31763 -7.13292 0
      vertex 1.40536 -7.36715 5
      vertex 2.31763 -7.13292 5
    endloop
  endfacet
  facet normal -0.248689 0.968583 0
    outer loop
      vertex 1.40536 -7.36715 5
      vertex 2.31763 -7.13292 0
      vertex 1.40536 -7.36715 0
    endloop
  endfacet
  facet normal -0.587785 0.809017 0
    outer loop
      vertex 4.78068 -5.77885 0
      vertex 4.0187 -6.33246 5
      vertex 4.78068 -5.77885 5
    endloop
  endfacet
  facet normal -0.587785 0.809017 0
    outer loop
      vertex 4.0187 -6.33246 5
      vertex 4.78068 -5.77885 0
      vertex 4.0187 -6.33246 0
    endloop
  endfacet
  facet normal -0.481749 0.876309 0
    outer loop
      vertex 4.0187 -6.33246 0
      vertex 3.19334 -6.7862 5
      vertex 4.0187 -6.33246 5
    endloop
  endfacet
  facet normal -0.481749 0.876309 0
    outer loop
      vertex 3.19334 -6.7862 5
      vertex 4.0187 -6.33246 0
      vertex 3.19334 -6.7862 0
    endloop
  endfacet
  facet normal -0.951057 0.309017 3.47642e-18
    outer loop
      vertex 6.97332 -2.76093 0
      vertex 7.26437 -1.86517 5
      vertex 7.26437 -1.86517 0
    endloop
  endfacet
  facet normal -0.951057 0.309017 3.47642e-18
    outer loop
      vertex 7.26437 -1.86517 5
      vertex 6.97332 -2.76093 0
      vertex 6.97332 -2.76093 5
    endloop
  endfacet
  facet normal 0.125337 0.992114 -0
    outer loop
      vertex -0.470928 -7.4852 0
      vertex -1.40536 -7.36715 5
      vertex -0.470928 -7.4852 5
    endloop
  endfacet
  facet normal 0.125337 0.992114 0
    outer loop
      vertex -1.40536 -7.36715 5
      vertex -0.470928 -7.4852 0
      vertex -1.40536 -7.36715 0
    endloop
  endfacet
  facet normal 0.368126 0.929776 -0
    outer loop
      vertex -2.31763 -7.13292 0
      vertex -3.19334 -6.7862 5
      vertex -2.31763 -7.13292 5
    endloop
  endfacet
  facet normal 0.368126 0.929776 0
    outer loop
      vertex -3.19334 -6.7862 5
      vertex -2.31763 -7.13292 0
      vertex -3.19334 -6.7862 0
    endloop
  endfacet
  facet normal 0.248689 0.968583 -0
    outer loop
      vertex -1.40536 -7.36715 0
      vertex -2.31763 -7.13292 5
      vertex -1.40536 -7.36715 5
    endloop
  endfacet
  facet normal 0.248689 0.968583 0
    outer loop
      vertex -2.31763 -7.13292 5
      vertex -1.40536 -7.36715 0
      vertex -2.31763 -7.13292 0
    endloop
  endfacet
  facet normal 0.904829 0.425776 1.272e-18
    outer loop
      vertex -6.5723 -3.61315 5
      vertex -6.97332 -2.76093 0
      vertex -6.97332 -2.76093 5
    endloop
  endfacet
  facet normal 0.904829 0.425776 1.272e-18
    outer loop
      vertex -6.97332 -2.76093 0
      vertex -6.5723 -3.61315 5
      vertex -6.5723 -3.61315 0
    endloop
  endfacet
  facet normal 0.982286 0.187386 8.02917e-19
    outer loop
      vertex -7.26437 -1.86517 5
      vertex -7.44086 -0.939999 0
      vertex -7.44086 -0.939999 5
    endloop
  endfacet
  facet normal 0.982286 0.187386 8.02917e-19
    outer loop
      vertex -7.44086 -0.939999 0
      vertex -7.26437 -1.86517 5
      vertex -7.26437 -1.86517 0
    endloop
  endfacet
  facet normal 0.998027 0.0627908 -2.93539e-19
    outer loop
      vertex -7.44086 -0.939999 5
      vertex -7.5 0 0
      vertex -7.5 0 5
    endloop
  endfacet
  facet normal 0.998027 0.0627908 -2.93539e-19
    outer loop
      vertex -7.5 0 0
      vertex -7.44086 -0.939999 5
      vertex -7.44086 -0.939999 0
    endloop
  endfacet
  facet normal 0.587785 0.809017 -0
    outer loop
      vertex -4.0187 -6.33246 0
      vertex -4.78068 -5.77885 5
      vertex -4.0187 -6.33246 5
    endloop
  endfacet
  facet normal 0.587785 0.809017 0
    outer loop
      vertex -4.78068 -5.77885 5
      vertex -4.0187 -6.33246 0
      vertex -4.78068 -5.77885 0
    endloop
  endfacet
  facet normal 0.481749 0.876309 -0
    outer loop
      vertex -3.19334 -6.7862 0
      vertex -4.0187 -6.33246 5
      vertex -3.19334 -6.7862 5
    endloop
  endfacet
  facet normal 0.481749 0.876309 0
    outer loop
      vertex -4.0187 -6.33246 5
      vertex -3.19334 -6.7862 0
      vertex -4.0187 -6.33246 0
    endloop
  endfacet
endsolid OpenSCAD_Model
