  0
SECTION
  2
BLOCKS
  0
ENDSEC
  0
SECTION
  2
ENTITIES
  0
LINE
  8
0
 10
70.9369
 20
1084.59
 11
71.5451
 21
1084.74
  0
LINE
  8
0
 10
71.5451
 20
1084.74
 11
72.1289
 21
1084.98
  0
LINE
  8
0
 10
72.1289
 20
1084.98
 11
72.6791
 21
1085.28
  0
LINE
  8
0
 10
72.6791
 20
1085.28
 11
73.1871
 21
1085.65
  0
LINE
  8
0
 10
73.1871
 20
1085.65
 11
73.6448
 21
1086.08
  0
LINE
  8
0
 10
73.6448
 20
1086.08
 11
74.0451
 21
1086.56
  0
LINE
  8
0
 10
74.0451
 20
1086.56
 11
74.3815
 21
1087.09
  0
LINE
  8
0
 10
74.3815
 20
1087.09
 11
74.6489
 21
1087.66
  0
LINE
  8
0
 10
74.6489
 20
1087.66
 11
74.8429
 21
1088.26
  0
LINE
  8
0
 10
74.8429
 20
1088.26
 11
74.9606
 21
1088.87
  0
LINE
  8
0
 10
74.9606
 20
1088.87
 11
75
 21
1089.5
  0
LINE
  8
0
 10
75
 20
1089.5
 11
75
 21
1214.5
  0
LINE
  8
0
 10
75
 20
1214.5
 11
74.9606
 21
1215.13
  0
LINE
  8
0
 10
74.9606
 20
1215.13
 11
74.8429
 21
1215.74
  0
LINE
  8
0
 10
74.8429
 20
1215.74
 11
74.6489
 21
1216.34
  0
LINE
  8
0
 10
74.6489
 20
1216.34
 11
74.3815
 21
1216.91
  0
LINE
  8
0
 10
74.3815
 20
1216.91
 11
74.0451
 21
1217.44
  0
LINE
  8
0
 10
74.0451
 20
1217.44
 11
73.6448
 21
1217.92
  0
LINE
  8
0
 10
73.6448
 20
1217.92
 11
73.1871
 21
1218.35
  0
LINE
  8
0
 10
73.1871
 20
1218.35
 11
72.6791
 21
1218.72
  0
LINE
  8
0
 10
72.6791
 20
1218.72
 11
72.1289
 21
1219.02
  0
LINE
  8
0
 10
72.1289
 20
1219.02
 11
71.5451
 21
1219.26
  0
LINE
  8
0
 10
71.5451
 20
1219.26
 11
70.9369
 21
1219.41
  0
LINE
  8
0
 10
70.9369
 20
1219.41
 11
70.3139
 21
1219.49
  0
LINE
  8
0
 10
70.3139
 20
1219.49
 11
-70.3139
 21
1219.49
  0
LINE
  8
0
 10
-70.3139
 20
1219.49
 11
-70.9369
 21
1219.41
  0
LINE
  8
0
 10
-70.9369
 20
1219.41
 11
-71.5451
 21
1219.26
  0
LINE
  8
0
 10
-71.5451
 20
1219.26
 11
-72.1289
 21
1219.02
  0
LINE
  8
0
 10
-72.1289
 20
1219.02
 11
-72.6791
 21
1218.72
  0
LINE
  8
0
 10
-72.6791
 20
1218.72
 11
-73.1871
 21
1218.35
  0
LINE
  8
0
 10
-73.1871
 20
1218.35
 11
-73.6448
 21
1217.92
  0
LINE
  8
0
 10
-73.6448
 20
1217.92
 11
-74.0451
 21
1217.44
  0
LINE
  8
0
 10
-74.0451
 20
1217.44
 11
-74.3815
 21
1216.91
  0
LINE
  8
0
 10
-74.3815
 20
1216.91
 11
-74.6489
 21
1216.34
  0
LINE
  8
0
 10
-74.6489
 20
1216.34
 11
-74.8429
 21
1215.74
  0
LINE
  8
0
 10
-74.8429
 20
1215.74
 11
-74.9
 21
1215.44
  0
LINE
  8
0
 10
-74.9
 20
1215.44
 11
-75
 21
1215.44
  0
LINE
  8
0
 10
-75
 20
1215.44
 11
-75
 21
1088.56
  0
LINE
  8
0
 10
-75
 20
1088.56
 11
-74.9
 21
1088.56
  0
LINE
  8
0
 10
-74.9
 20
1088.56
 11
-74.8429
 21
1088.26
  0
LINE
  8
0
 10
-74.8429
 20
1088.26
 11
-74.6489
 21
1087.66
  0
LINE
  8
0
 10
-74.6489
 20
1087.66
 11
-74.3815
 21
1087.09
  0
LINE
  8
0
 10
-74.3815
 20
1087.09
 11
-74.0451
 21
1086.56
  0
LINE
  8
0
 10
-74.0451
 20
1086.56
 11
-73.6448
 21
1086.08
  0
LINE
  8
0
 10
-73.6448
 20
1086.08
 11
-73.1871
 21
1085.65
  0
LINE
  8
0
 10
-73.1871
 20
1085.65
 11
-72.6791
 21
1085.28
  0
LINE
  8
0
 10
-72.6791
 20
1085.28
 11
-72.1289
 21
1084.98
  0
LINE
  8
0
 10
-72.1289
 20
1084.98
 11
-71.5451
 21
1084.74
  0
LINE
  8
0
 10
-71.5451
 20
1084.74
 11
-70.9369
 21
1084.59
  0
LINE
  8
0
 10
-70.9369
 20
1084.59
 11
-70.3139
 21
1084.51
  0
LINE
  8
0
 10
-70.3139
 20
1084.51
 11
70.3139
 21
1084.51
  0
LINE
  8
0
 10
70.3139
 20
1084.51
 11
70.9369
 21
1084.59
  0
LINE
  8
0
 10
-69.7512
 20
1086.01
 11
-70.2495
 21
1086.07
  0
LINE
  8
0
 10
-70.2495
 20
1086.07
 11
-70.7361
 21
1086.2
  0
LINE
  8
0
 10
-70.7361
 20
1086.2
 11
-71.2031
 21
1086.38
  0
LINE
  8
0
 10
-71.2031
 20
1086.38
 11
-71.6433
 21
1086.62
  0
LINE
  8
0
 10
-71.6433
 20
1086.62
 11
-72.0497
 21
1086.92
  0
LINE
  8
0
 10
-72.0497
 20
1086.92
 11
-72.4159
 21
1087.26
  0
LINE
  8
0
 10
-72.4159
 20
1087.26
 11
-72.7361
 21
1087.65
  0
LINE
  8
0
 10
-72.7361
 20
1087.65
 11
-73.0052
 21
1088.07
  0
LINE
  8
0
 10
-73.0052
 20
1088.07
 11
-73.2191
 21
1088.53
  0
LINE
  8
0
 10
-73.2191
 20
1088.53
 11
-73.3743
 21
1089.01
  0
LINE
  8
0
 10
-73.3743
 20
1089.01
 11
-73.4685
 21
1089.5
  0
LINE
  8
0
 10
-73.4685
 20
1089.5
 11
-73.5
 21
1090
  0
LINE
  8
0
 10
-73.5
 20
1090
 11
-73.5
 21
1214
  0
LINE
  8
0
 10
-73.5
 20
1214
 11
-73.4685
 21
1214.5
  0
LINE
  8
0
 10
-73.4685
 20
1214.5
 11
-73.3743
 21
1214.99
  0
LINE
  8
0
 10
-73.3743
 20
1214.99
 11
-73.2191
 21
1215.47
  0
LINE
  8
0
 10
-73.2191
 20
1215.47
 11
-73.0052
 21
1215.93
  0
LINE
  8
0
 10
-73.0052
 20
1215.93
 11
-72.7361
 21
1216.35
  0
LINE
  8
0
 10
-72.7361
 20
1216.35
 11
-72.4159
 21
1216.74
  0
LINE
  8
0
 10
-72.4159
 20
1216.74
 11
-72.0497
 21
1217.08
  0
LINE
  8
0
 10
-72.0497
 20
1217.08
 11
-71.6433
 21
1217.38
  0
LINE
  8
0
 10
-71.6433
 20
1217.38
 11
-71.2031
 21
1217.62
  0
LINE
  8
0
 10
-71.2031
 20
1217.62
 11
-70.7361
 21
1217.8
  0
LINE
  8
0
 10
-70.7361
 20
1217.8
 11
-70.2495
 21
1217.93
  0
LINE
  8
0
 10
-70.2495
 20
1217.93
 11
-69.7512
 21
1217.99
  0
LINE
  8
0
 10
-69.7512
 20
1217.99
 11
69.7512
 21
1217.99
  0
LINE
  8
0
 10
69.7512
 20
1217.99
 11
70.2495
 21
1217.93
  0
LINE
  8
0
 10
70.2495
 20
1217.93
 11
70.7361
 21
1217.8
  0
LINE
  8
0
 10
70.7361
 20
1217.8
 11
71.2031
 21
1217.62
  0
LINE
  8
0
 10
71.2031
 20
1217.62
 11
71.6433
 21
1217.38
  0
LINE
  8
0
 10
71.6433
 20
1217.38
 11
72.0497
 21
1217.08
  0
LINE
  8
0
 10
72.0497
 20
1217.08
 11
72.4159
 21
1216.74
  0
LINE
  8
0
 10
72.4159
 20
1216.74
 11
72.7361
 21
1216.35
  0
LINE
  8
0
 10
72.7361
 20
1216.35
 11
73.0052
 21
1215.93
  0
LINE
  8
0
 10
73.0052
 20
1215.93
 11
73.2191
 21
1215.47
  0
LINE
  8
0
 10
73.2191
 20
1215.47
 11
73.3743
 21
1214.99
  0
LINE
  8
0
 10
73.3743
 20
1214.99
 11
73.4685
 21
1214.5
  0
LINE
  8
0
 10
73.4685
 20
1214.5
 11
73.5
 21
1214
  0
LINE
  8
0
 10
73.5
 20
1214
 11
73.5
 21
1090
  0
LINE
  8
0
 10
73.5
 20
1090
 11
73.4685
 21
1089.5
  0
LINE
  8
0
 10
73.4685
 20
1089.5
 11
73.3743
 21
1089.01
  0
LINE
  8
0
 10
73.3743
 20
1089.01
 11
73.2191
 21
1088.53
  0
LINE
  8
0
 10
73.2191
 20
1088.53
 11
73.0052
 21
1088.07
  0
LINE
  8
0
 10
73.0052
 20
1088.07
 11
72.7361
 21
1087.65
  0
LINE
  8
0
 10
72.7361
 20
1087.65
 11
72.4159
 21
1087.26
  0
LINE
  8
0
 10
72.4159
 20
1087.26
 11
72.0497
 21
1086.92
  0
LINE
  8
0
 10
72.0497
 20
1086.92
 11
71.6433
 21
1086.62
  0
LINE
  8
0
 10
71.6433
 20
1086.62
 11
71.2031
 21
1086.38
  0
LINE
  8
0
 10
71.2031
 20
1086.38
 11
70.7361
 21
1086.2
  0
LINE
  8
0
 10
70.7361
 20
1086.2
 11
70.2495
 21
1086.07
  0
LINE
  8
0
 10
70.2495
 20
1086.07
 11
69.7512
 21
1086.01
  0
LINE
  8
0
 10
69.7512
 20
1086.01
 11
-69.7512
 21
1086.01
  0
LINE
  8
0
 10
70.9369
 20
940.589
 11
71.5451
 21
940.745
  0
LINE
  8
0
 10
71.5451
 20
940.745
 11
72.1289
 21
940.976
  0
LINE
  8
0
 10
72.1289
 20
940.976
 11
72.6791
 21
941.278
  0
LINE
  8
0
 10
72.6791
 20
941.278
 11
73.1871
 21
941.647
  0
LINE
  8
0
 10
73.1871
 20
941.647
 11
73.6448
 21
942.077
  0
LINE
  8
0
 10
73.6448
 20
942.077
 11
74.0451
 21
942.561
  0
LINE
  8
0
 10
74.0451
 20
942.561
 11
74.3815
 21
943.091
  0
LINE
  8
0
 10
74.3815
 20
943.091
 11
74.6489
 21
943.659
  0
LINE
  8
0
 10
74.6489
 20
943.659
 11
74.8429
 21
944.257
  0
LINE
  8
0
 10
74.8429
 20
944.257
 11
74.9606
 21
944.873
  0
LINE
  8
0
 10
74.9606
 20
944.873
 11
75
 21
945.5
  0
LINE
  8
0
 10
75
 20
945.5
 11
75
 21
1070.5
  0
LINE
  8
0
 10
75
 20
1070.5
 11
74.9606
 21
1071.13
  0
LINE
  8
0
 10
74.9606
 20
1071.13
 11
74.8429
 21
1071.74
  0
LINE
  8
0
 10
74.8429
 20
1071.74
 11
74.6489
 21
1072.34
  0
LINE
  8
0
 10
74.6489
 20
1072.34
 11
74.3815
 21
1072.91
  0
LINE
  8
0
 10
74.3815
 20
1072.91
 11
74.0451
 21
1073.44
  0
LINE
  8
0
 10
74.0451
 20
1073.44
 11
73.6448
 21
1073.92
  0
LINE
  8
0
 10
73.6448
 20
1073.92
 11
73.1871
 21
1074.35
  0
LINE
  8
0
 10
73.1871
 20
1074.35
 11
72.6791
 21
1074.72
  0
LINE
  8
0
 10
72.6791
 20
1074.72
 11
72.1289
 21
1075.02
  0
LINE
  8
0
 10
72.1289
 20
1075.02
 11
71.5451
 21
1075.26
  0
LINE
  8
0
 10
71.5451
 20
1075.26
 11
70.9369
 21
1075.41
  0
LINE
  8
0
 10
70.9369
 20
1075.41
 11
70.3139
 21
1075.49
  0
LINE
  8
0
 10
70.3139
 20
1075.49
 11
-70.3139
 21
1075.49
  0
LINE
  8
0
 10
-70.3139
 20
1075.49
 11
-70.9369
 21
1075.41
  0
LINE
  8
0
 10
-70.9369
 20
1075.41
 11
-71.5451
 21
1075.26
  0
LINE
  8
0
 10
-71.5451
 20
1075.26
 11
-72.1289
 21
1075.02
  0
LINE
  8
0
 10
-72.1289
 20
1075.02
 11
-72.6791
 21
1074.72
  0
LINE
  8
0
 10
-72.6791
 20
1074.72
 11
-73.1871
 21
1074.35
  0
LINE
  8
0
 10
-73.1871
 20
1074.35
 11
-73.6448
 21
1073.92
  0
LINE
  8
0
 10
-73.6448
 20
1073.92
 11
-74.0451
 21
1073.44
  0
LINE
  8
0
 10
-74.0451
 20
1073.44
 11
-74.3815
 21
1072.91
  0
LINE
  8
0
 10
-74.3815
 20
1072.91
 11
-74.6489
 21
1072.34
  0
LINE
  8
0
 10
-74.6489
 20
1072.34
 11
-74.8429
 21
1071.74
  0
LINE
  8
0
 10
-74.8429
 20
1071.74
 11
-74.9606
 21
1071.13
  0
LINE
  8
0
 10
-74.9606
 20
1071.13
 11
-75
 21
1070.5
  0
LINE
  8
0
 10
-75
 20
1070.5
 11
-75
 21
945.5
  0
LINE
  8
0
 10
-75
 20
945.5
 11
-74.9606
 21
944.873
  0
LINE
  8
0
 10
-74.9606
 20
944.873
 11
-74.8429
 21
944.257
  0
LINE
  8
0
 10
-74.8429
 20
944.257
 11
-74.6489
 21
943.659
  0
LINE
  8
0
 10
-74.6489
 20
943.659
 11
-74.3815
 21
943.091
  0
LINE
  8
0
 10
-74.3815
 20
943.091
 11
-74.0451
 21
942.561
  0
LINE
  8
0
 10
-74.0451
 20
942.561
 11
-73.6448
 21
942.077
  0
LINE
  8
0
 10
-73.6448
 20
942.077
 11
-73.1871
 21
941.647
  0
LINE
  8
0
 10
-73.1871
 20
941.647
 11
-72.6791
 21
941.278
  0
LINE
  8
0
 10
-72.6791
 20
941.278
 11
-72.1289
 21
940.976
  0
LINE
  8
0
 10
-72.1289
 20
940.976
 11
-71.5451
 21
940.745
  0
LINE
  8
0
 10
-71.5451
 20
940.745
 11
-70.9369
 21
940.589
  0
LINE
  8
0
 10
-70.9369
 20
940.589
 11
-70.3139
 21
940.51
  0
LINE
  8
0
 10
-70.3139
 20
940.51
 11
70.3139
 21
940.51
  0
LINE
  8
0
 10
70.3139
 20
940.51
 11
70.9369
 21
940.589
  0
LINE
  8
0
 10
-69.7512
 20
942.008
 11
-70.2495
 21
942.071
  0
LINE
  8
0
 10
-70.2495
 20
942.071
 11
-70.7361
 21
942.196
  0
LINE
  8
0
 10
-70.7361
 20
942.196
 11
-71.2031
 21
942.381
  0
LINE
  8
0
 10
-71.2031
 20
942.381
 11
-71.6433
 21
942.623
  0
LINE
  8
0
 10
-71.6433
 20
942.623
 11
-72.0497
 21
942.918
  0
LINE
  8
0
 10
-72.0497
 20
942.918
 11
-72.4159
 21
943.262
  0
LINE
  8
0
 10
-72.4159
 20
943.262
 11
-72.7361
 21
943.649
  0
LINE
  8
0
 10
-72.7361
 20
943.649
 11
-73.0052
 21
944.073
  0
LINE
  8
0
 10
-73.0052
 20
944.073
 11
-73.2191
 21
944.528
  0
LINE
  8
0
 10
-73.2191
 20
944.528
 11
-73.3743
 21
945.005
  0
LINE
  8
0
 10
-73.3743
 20
945.005
 11
-73.4685
 21
945.499
  0
LINE
  8
0
 10
-73.4685
 20
945.499
 11
-73.5
 21
946
  0
LINE
  8
0
 10
-73.5
 20
946
 11
-73.5
 21
1070
  0
LINE
  8
0
 10
-73.5
 20
1070
 11
-73.4685
 21
1070.5
  0
LINE
  8
0
 10
-73.4685
 20
1070.5
 11
-73.3743
 21
1070.99
  0
LINE
  8
0
 10
-73.3743
 20
1070.99
 11
-73.2191
 21
1071.47
  0
LINE
  8
0
 10
-73.2191
 20
1071.47
 11
-73.0052
 21
1071.93
  0
LINE
  8
0
 10
-73.0052
 20
1071.93
 11
-72.7361
 21
1072.35
  0
LINE
  8
0
 10
-72.7361
 20
1072.35
 11
-72.4159
 21
1072.74
  0
LINE
  8
0
 10
-72.4159
 20
1072.74
 11
-72.0497
 21
1073.08
  0
LINE
  8
0
 10
-72.0497
 20
1073.08
 11
-71.6433
 21
1073.38
  0
LINE
  8
0
 10
-71.6433
 20
1073.38
 11
-71.2031
 21
1073.62
  0
LINE
  8
0
 10
-71.2031
 20
1073.62
 11
-70.7361
 21
1073.8
  0
LINE
  8
0
 10
-70.7361
 20
1073.8
 11
-70.2495
 21
1073.93
  0
LINE
  8
0
 10
-70.2495
 20
1073.93
 11
-69.7512
 21
1073.99
  0
LINE
  8
0
 10
-69.7512
 20
1073.99
 11
69.7512
 21
1073.99
  0
LINE
  8
0
 10
69.7512
 20
1073.99
 11
70.2495
 21
1073.93
  0
LINE
  8
0
 10
70.2495
 20
1073.93
 11
70.7361
 21
1073.8
  0
LINE
  8
0
 10
70.7361
 20
1073.8
 11
71.2031
 21
1073.62
  0
LINE
  8
0
 10
71.2031
 20
1073.62
 11
71.6433
 21
1073.38
  0
LINE
  8
0
 10
71.6433
 20
1073.38
 11
72.0497
 21
1073.08
  0
LINE
  8
0
 10
72.0497
 20
1073.08
 11
72.4159
 21
1072.74
  0
LINE
  8
0
 10
72.4159
 20
1072.74
 11
72.7361
 21
1072.35
  0
LINE
  8
0
 10
72.7361
 20
1072.35
 11
73.0052
 21
1071.93
  0
LINE
  8
0
 10
73.0052
 20
1071.93
 11
73.2191
 21
1071.47
  0
LINE
  8
0
 10
73.2191
 20
1071.47
 11
73.3743
 21
1070.99
  0
LINE
  8
0
 10
73.3743
 20
1070.99
 11
73.4685
 21
1070.5
  0
LINE
  8
0
 10
73.4685
 20
1070.5
 11
73.5
 21
1070
  0
LINE
  8
0
 10
73.5
 20
1070
 11
73.5
 21
946
  0
LINE
  8
0
 10
73.5
 20
946
 11
73.4685
 21
945.499
  0
LINE
  8
0
 10
73.4685
 20
945.499
 11
73.3743
 21
945.005
  0
LINE
  8
0
 10
73.3743
 20
945.005
 11
73.2191
 21
944.528
  0
LINE
  8
0
 10
73.2191
 20
944.528
 11
73.0052
 21
944.073
  0
LINE
  8
0
 10
73.0052
 20
944.073
 11
72.7361
 21
943.649
  0
LINE
  8
0
 10
72.7361
 20
943.649
 11
72.4159
 21
943.262
  0
LINE
  8
0
 10
72.4159
 20
943.262
 11
72.0497
 21
942.918
  0
LINE
  8
0
 10
72.0497
 20
942.918
 11
71.6433
 21
942.623
  0
LINE
  8
0
 10
71.6433
 20
942.623
 11
71.2031
 21
942.381
  0
LINE
  8
0
 10
71.2031
 20
942.381
 11
70.7361
 21
942.196
  0
LINE
  8
0
 10
70.7361
 20
942.196
 11
70.2495
 21
942.071
  0
LINE
  8
0
 10
70.2495
 20
942.071
 11
69.7512
 21
942.008
  0
LINE
  8
0
 10
69.7512
 20
942.008
 11
-69.7512
 21
942.008
  0
LINE
  8
0
 10
70.9369
 20
796.589
 11
71.5451
 21
796.745
  0
LINE
  8
0
 10
71.5451
 20
796.745
 11
72.1289
 21
796.976
  0
LINE
  8
0
 10
72.1289
 20
796.976
 11
72.6791
 21
797.278
  0
LINE
  8
0
 10
72.6791
 20
797.278
 11
73.1871
 21
797.647
  0
LINE
  8
0
 10
73.1871
 20
797.647
 11
73.6448
 21
798.077
  0
LINE
  8
0
 10
73.6448
 20
798.077
 11
74.0451
 21
798.561
  0
LINE
  8
0
 10
74.0451
 20
798.561
 11
74.3815
 21
799.091
  0
LINE
  8
0
 10
74.3815
 20
799.091
 11
74.6489
 21
799.659
  0
LINE
  8
0
 10
74.6489
 20
799.659
 11
74.8429
 21
800.257
  0
LINE
  8
0
 10
74.8429
 20
800.257
 11
74.9606
 21
800.873
  0
LINE
  8
0
 10
74.9606
 20
800.873
 11
75
 21
801.5
  0
LINE
  8
0
 10
75
 20
801.5
 11
75
 21
926.5
  0
LINE
  8
0
 10
75
 20
926.5
 11
74.9606
 21
927.127
  0
LINE
  8
0
 10
74.9606
 20
927.127
 11
74.8429
 21
927.743
  0
LINE
  8
0
 10
74.8429
 20
927.743
 11
74.6489
 21
928.341
  0
LINE
  8
0
 10
74.6489
 20
928.341
 11
74.3815
 21
928.909
  0
LINE
  8
0
 10
74.3815
 20
928.909
 11
74.0451
 21
929.439
  0
LINE
  8
0
 10
74.0451
 20
929.439
 11
73.6448
 21
929.923
  0
LINE
  8
0
 10
73.6448
 20
929.923
 11
73.1871
 21
930.353
  0
LINE
  8
0
 10
73.1871
 20
930.353
 11
72.6791
 21
930.722
  0
LINE
  8
0
 10
72.6791
 20
930.722
 11
72.1289
 21
931.024
  0
LINE
  8
0
 10
72.1289
 20
931.024
 11
71.5451
 21
931.255
  0
LINE
  8
0
 10
71.5451
 20
931.255
 11
70.9369
 21
931.411
  0
LINE
  8
0
 10
70.9369
 20
931.411
 11
70.3139
 21
931.49
  0
LINE
  8
0
 10
70.3139
 20
931.49
 11
-70.3139
 21
931.49
  0
LINE
  8
0
 10
-70.3139
 20
931.49
 11
-70.9369
 21
931.411
  0
LINE
  8
0
 10
-70.9369
 20
931.411
 11
-71.5451
 21
931.255
  0
LINE
  8
0
 10
-71.5451
 20
931.255
 11
-72.1289
 21
931.024
  0
LINE
  8
0
 10
-72.1289
 20
931.024
 11
-72.6791
 21
930.722
  0
LINE
  8
0
 10
-72.6791
 20
930.722
 11
-73.1871
 21
930.353
  0
LINE
  8
0
 10
-73.1871
 20
930.353
 11
-73.6448
 21
929.923
  0
LINE
  8
0
 10
-73.6448
 20
929.923
 11
-74.0451
 21
929.439
  0
LINE
  8
0
 10
-74.0451
 20
929.439
 11
-74.3815
 21
928.909
  0
LINE
  8
0
 10
-74.3815
 20
928.909
 11
-74.6489
 21
928.341
  0
LINE
  8
0
 10
-74.6489
 20
928.341
 11
-74.8429
 21
927.743
  0
LINE
  8
0
 10
-74.8429
 20
927.743
 11
-74.9606
 21
927.127
  0
LINE
  8
0
 10
-74.9606
 20
927.127
 11
-75
 21
926.5
  0
LINE
  8
0
 10
-75
 20
926.5
 11
-75
 21
801.5
  0
LINE
  8
0
 10
-75
 20
801.5
 11
-74.9606
 21
800.873
  0
LINE
  8
0
 10
-74.9606
 20
800.873
 11
-74.8429
 21
800.257
  0
LINE
  8
0
 10
-74.8429
 20
800.257
 11
-74.6489
 21
799.659
  0
LINE
  8
0
 10
-74.6489
 20
799.659
 11
-74.3815
 21
799.091
  0
LINE
  8
0
 10
-74.3815
 20
799.091
 11
-74.0451
 21
798.561
  0
LINE
  8
0
 10
-74.0451
 20
798.561
 11
-73.6448
 21
798.077
  0
LINE
  8
0
 10
-73.6448
 20
798.077
 11
-73.1871
 21
797.647
  0
LINE
  8
0
 10
-73.1871
 20
797.647
 11
-72.6791
 21
797.278
  0
LINE
  8
0
 10
-72.6791
 20
797.278
 11
-72.1289
 21
796.976
  0
LINE
  8
0
 10
-72.1289
 20
796.976
 11
-71.5451
 21
796.745
  0
LINE
  8
0
 10
-71.5451
 20
796.745
 11
-70.9369
 21
796.589
  0
LINE
  8
0
 10
-70.9369
 20
796.589
 11
-70.3139
 21
796.51
  0
LINE
  8
0
 10
-70.3139
 20
796.51
 11
70.3139
 21
796.51
  0
LINE
  8
0
 10
70.3139
 20
796.51
 11
70.9369
 21
796.589
  0
LINE
  8
0
 10
-69.7432
 20
798.135
 11
-70.2256
 21
798.196
  0
LINE
  8
0
 10
-70.2256
 20
798.196
 11
-70.6967
 21
798.317
  0
LINE
  8
0
 10
-70.6967
 20
798.317
 11
-71.1489
 21
798.496
  0
LINE
  8
0
 10
-71.1489
 20
798.496
 11
-71.5751
 21
798.73
  0
LINE
  8
0
 10
-71.5751
 20
798.73
 11
-71.9685
 21
799.016
  0
LINE
  8
0
 10
-71.9685
 20
799.016
 11
-72.323
 21
799.349
  0
LINE
  8
0
 10
-72.323
 20
799.349
 11
-72.633
 21
799.724
  0
LINE
  8
0
 10
-72.633
 20
799.724
 11
-72.8936
 21
800.134
  0
LINE
  8
0
 10
-72.8936
 20
800.134
 11
-73.1007
 21
800.574
  0
LINE
  8
0
 10
-73.1007
 20
800.574
 11
-73.251
 21
801.037
  0
LINE
  8
0
 10
-73.251
 20
801.037
 11
-73.3421
 21
801.515
  0
LINE
  8
0
 10
-73.3421
 20
801.515
 11
-73.3726
 21
802
  0
LINE
  8
0
 10
-73.3726
 20
802
 11
-73.3726
 21
926
  0
LINE
  8
0
 10
-73.3726
 20
926
 11
-73.3421
 21
926.485
  0
LINE
  8
0
 10
-73.3421
 20
926.485
 11
-73.251
 21
926.963
  0
LINE
  8
0
 10
-73.251
 20
926.963
 11
-73.1007
 21
927.426
  0
LINE
  8
0
 10
-73.1007
 20
927.426
 11
-72.8936
 21
927.866
  0
LINE
  8
0
 10
-72.8936
 20
927.866
 11
-72.633
 21
928.276
  0
LINE
  8
0
 10
-72.633
 20
928.276
 11
-72.323
 21
928.651
  0
LINE
  8
0
 10
-72.323
 20
928.651
 11
-71.9685
 21
928.984
  0
LINE
  8
0
 10
-71.9685
 20
928.984
 11
-71.5751
 21
929.27
  0
LINE
  8
0
 10
-71.5751
 20
929.27
 11
-71.1489
 21
929.504
  0
LINE
  8
0
 10
-71.1489
 20
929.504
 11
-70.6967
 21
929.683
  0
LINE
  8
0
 10
-70.6967
 20
929.683
 11
-70.2256
 21
929.804
  0
LINE
  8
0
 10
-70.2256
 20
929.804
 11
-69.7432
 21
929.865
  0
LINE
  8
0
 10
-69.7432
 20
929.865
 11
69.7432
 21
929.865
  0
LINE
  8
0
 10
69.7432
 20
929.865
 11
70.2256
 21
929.804
  0
LINE
  8
0
 10
70.2256
 20
929.804
 11
70.6967
 21
929.683
  0
LINE
  8
0
 10
70.6967
 20
929.683
 11
71.1489
 21
929.504
  0
LINE
  8
0
 10
71.1489
 20
929.504
 11
71.5751
 21
929.27
  0
LINE
  8
0
 10
71.5751
 20
929.27
 11
71.9685
 21
928.984
  0
LINE
  8
0
 10
71.9685
 20
928.984
 11
72.323
 21
928.651
  0
LINE
  8
0
 10
72.323
 20
928.651
 11
72.633
 21
928.276
  0
LINE
  8
0
 10
72.633
 20
928.276
 11
72.8936
 21
927.866
  0
LINE
  8
0
 10
72.8936
 20
927.866
 11
73.1007
 21
927.426
  0
LINE
  8
0
 10
73.1007
 20
927.426
 11
73.251
 21
926.963
  0
LINE
  8
0
 10
73.251
 20
926.963
 11
73.3421
 21
926.485
  0
LINE
  8
0
 10
73.3421
 20
926.485
 11
73.3726
 21
926
  0
LINE
  8
0
 10
73.3726
 20
926
 11
73.3726
 21
802
  0
LINE
  8
0
 10
73.3726
 20
802
 11
73.3421
 21
801.515
  0
LINE
  8
0
 10
73.3421
 20
801.515
 11
73.251
 21
801.037
  0
LINE
  8
0
 10
73.251
 20
801.037
 11
73.1007
 21
800.574
  0
LINE
  8
0
 10
73.1007
 20
800.574
 11
72.8936
 21
800.134
  0
LINE
  8
0
 10
72.8936
 20
800.134
 11
72.633
 21
799.724
  0
LINE
  8
0
 10
72.633
 20
799.724
 11
72.323
 21
799.349
  0
LINE
  8
0
 10
72.323
 20
799.349
 11
71.9685
 21
799.016
  0
LINE
  8
0
 10
71.9685
 20
799.016
 11
71.5751
 21
798.73
  0
LINE
  8
0
 10
71.5751
 20
798.73
 11
71.1489
 21
798.496
  0
LINE
  8
0
 10
71.1489
 20
798.496
 11
70.6967
 21
798.317
  0
LINE
  8
0
 10
70.6967
 20
798.317
 11
70.2256
 21
798.196
  0
LINE
  8
0
 10
70.2256
 20
798.196
 11
69.7432
 21
798.135
  0
LINE
  8
0
 10
69.7432
 20
798.135
 11
-69.7432
 21
798.135
  0
LINE
  8
0
 10
70.9369
 20
652.589
 11
71.5451
 21
652.745
  0
LINE
  8
0
 10
71.5451
 20
652.745
 11
72.1289
 21
652.976
  0
LINE
  8
0
 10
72.1289
 20
652.976
 11
72.6791
 21
653.278
  0
LINE
  8
0
 10
72.6791
 20
653.278
 11
73.1871
 21
653.647
  0
LINE
  8
0
 10
73.1871
 20
653.647
 11
73.6448
 21
654.077
  0
LINE
  8
0
 10
73.6448
 20
654.077
 11
74.0451
 21
654.561
  0
LINE
  8
0
 10
74.0451
 20
654.561
 11
74.3815
 21
655.091
  0
LINE
  8
0
 10
74.3815
 20
655.091
 11
74.6489
 21
655.659
  0
LINE
  8
0
 10
74.6489
 20
655.659
 11
74.8429
 21
656.257
  0
LINE
  8
0
 10
74.8429
 20
656.257
 11
74.9606
 21
656.873
  0
LINE
  8
0
 10
74.9606
 20
656.873
 11
75
 21
657.5
  0
LINE
  8
0
 10
75
 20
657.5
 11
75
 21
782.5
  0
LINE
  8
0
 10
75
 20
782.5
 11
74.9606
 21
783.127
  0
LINE
  8
0
 10
74.9606
 20
783.127
 11
74.8429
 21
783.743
  0
LINE
  8
0
 10
74.8429
 20
783.743
 11
74.6489
 21
784.341
  0
LINE
  8
0
 10
74.6489
 20
784.341
 11
74.3815
 21
784.909
  0
LINE
  8
0
 10
74.3815
 20
784.909
 11
74.0451
 21
785.439
  0
LINE
  8
0
 10
74.0451
 20
785.439
 11
73.6448
 21
785.923
  0
LINE
  8
0
 10
73.6448
 20
785.923
 11
73.1871
 21
786.353
  0
LINE
  8
0
 10
73.1871
 20
786.353
 11
72.6791
 21
786.722
  0
LINE
  8
0
 10
72.6791
 20
786.722
 11
72.1289
 21
787.024
  0
LINE
  8
0
 10
72.1289
 20
787.024
 11
71.5451
 21
787.255
  0
LINE
  8
0
 10
71.5451
 20
787.255
 11
70.9369
 21
787.411
  0
LINE
  8
0
 10
70.9369
 20
787.411
 11
70.3139
 21
787.49
  0
LINE
  8
0
 10
70.3139
 20
787.49
 11
-70.3139
 21
787.49
  0
LINE
  8
0
 10
-70.3139
 20
787.49
 11
-70.9369
 21
787.411
  0
LINE
  8
0
 10
-70.9369
 20
787.411
 11
-71.5451
 21
787.255
  0
LINE
  8
0
 10
-71.5451
 20
787.255
 11
-72.1289
 21
787.024
  0
LINE
  8
0
 10
-72.1289
 20
787.024
 11
-72.6791
 21
786.722
  0
LINE
  8
0
 10
-72.6791
 20
786.722
 11
-73.1871
 21
786.353
  0
LINE
  8
0
 10
-73.1871
 20
786.353
 11
-73.6448
 21
785.923
  0
LINE
  8
0
 10
-73.6448
 20
785.923
 11
-74.0451
 21
785.439
  0
LINE
  8
0
 10
-74.0451
 20
785.439
 11
-74.3815
 21
784.909
  0
LINE
  8
0
 10
-74.3815
 20
784.909
 11
-74.6489
 21
784.341
  0
LINE
  8
0
 10
-74.6489
 20
784.341
 11
-74.8429
 21
783.743
  0
LINE
  8
0
 10
-74.8429
 20
783.743
 11
-74.9606
 21
783.127
  0
LINE
  8
0
 10
-74.9606
 20
783.127
 11
-75
 21
782.5
  0
LINE
  8
0
 10
-75
 20
782.5
 11
-75
 21
657.5
  0
LINE
  8
0
 10
-75
 20
657.5
 11
-74.9606
 21
656.873
  0
LINE
  8
0
 10
-74.9606
 20
656.873
 11
-74.8429
 21
656.257
  0
LINE
  8
0
 10
-74.8429
 20
656.257
 11
-74.6489
 21
655.659
  0
LINE
  8
0
 10
-74.6489
 20
655.659
 11
-74.3815
 21
655.091
  0
LINE
  8
0
 10
-74.3815
 20
655.091
 11
-74.0451
 21
654.561
  0
LINE
  8
0
 10
-74.0451
 20
654.561
 11
-73.6448
 21
654.077
  0
LINE
  8
0
 10
-73.6448
 20
654.077
 11
-73.1871
 21
653.647
  0
LINE
  8
0
 10
-73.1871
 20
653.647
 11
-72.6791
 21
653.278
  0
LINE
  8
0
 10
-72.6791
 20
653.278
 11
-72.1289
 21
652.976
  0
LINE
  8
0
 10
-72.1289
 20
652.976
 11
-71.5451
 21
652.745
  0
LINE
  8
0
 10
-71.5451
 20
652.745
 11
-70.9369
 21
652.589
  0
LINE
  8
0
 10
-70.9369
 20
652.589
 11
-70.3139
 21
652.51
  0
LINE
  8
0
 10
-70.3139
 20
652.51
 11
70.3139
 21
652.51
  0
LINE
  8
0
 10
70.3139
 20
652.51
 11
70.9369
 21
652.589
  0
LINE
  8
0
 10
-67.6507
 20
777.605
 11
-67.9497
 21
777.643
  0
LINE
  8
0
 10
-67.9497
 20
777.643
 11
-68.2416
 21
777.717
  0
LINE
  8
0
 10
-68.2416
 20
777.717
 11
-68.5219
 21
777.828
  0
LINE
  8
0
 10
-68.5219
 20
777.828
 11
-68.786
 21
777.974
  0
LINE
  8
0
 10
-68.786
 20
777.974
 11
-69.0298
 21
778.151
  0
LINE
  8
0
 10
-69.0298
 20
778.151
 11
-69.2495
 21
778.357
  0
LINE
  8
0
 10
-69.2495
 20
778.357
 11
-69.4416
 21
778.589
  0
LINE
  8
0
 10
-69.4416
 20
778.589
 11
-69.6031
 21
778.844
  0
LINE
  8
0
 10
-69.6031
 20
778.844
 11
-69.7315
 21
779.117
  0
LINE
  8
0
 10
-69.7315
 20
779.117
 11
-69.8246
 21
779.403
  0
LINE
  8
0
 10
-69.8246
 20
779.403
 11
-69.8811
 21
779.699
  0
LINE
  8
0
 10
-69.8811
 20
779.699
 11
-69.9
 21
780
  0
LINE
  8
0
 10
-69.9
 20
780
 11
-69.8811
 21
780.301
  0
LINE
  8
0
 10
-69.8811
 20
780.301
 11
-69.8246
 21
780.597
  0
LINE
  8
0
 10
-69.8246
 20
780.597
 11
-69.7315
 21
780.883
  0
LINE
  8
0
 10
-69.7315
 20
780.883
 11
-69.6031
 21
781.156
  0
LINE
  8
0
 10
-69.6031
 20
781.156
 11
-69.4416
 21
781.411
  0
LINE
  8
0
 10
-69.4416
 20
781.411
 11
-69.2495
 21
781.643
  0
LINE
  8
0
 10
-69.2495
 20
781.643
 11
-69.0298
 21
781.849
  0
LINE
  8
0
 10
-69.0298
 20
781.849
 11
-68.786
 21
782.026
  0
LINE
  8
0
 10
-68.786
 20
782.026
 11
-68.5219
 21
782.172
  0
LINE
  8
0
 10
-68.5219
 20
782.172
 11
-68.2416
 21
782.283
  0
LINE
  8
0
 10
-68.2416
 20
782.283
 11
-67.9497
 21
782.357
  0
LINE
  8
0
 10
-67.9497
 20
782.357
 11
-67.6507
 21
782.395
  0
LINE
  8
0
 10
-67.6507
 20
782.395
 11
-67.3493
 21
782.395
  0
LINE
  8
0
 10
-67.3493
 20
782.395
 11
-67.0503
 21
782.357
  0
LINE
  8
0
 10
-67.0503
 20
782.357
 11
-66.7584
 21
782.283
  0
LINE
  8
0
 10
-66.7584
 20
782.283
 11
-66.4781
 21
782.172
  0
LINE
  8
0
 10
-66.4781
 20
782.172
 11
-66.214
 21
782.026
  0
LINE
  8
0
 10
-66.214
 20
782.026
 11
-65.9702
 21
781.849
  0
LINE
  8
0
 10
-65.9702
 20
781.849
 11
-65.7505
 21
781.643
  0
LINE
  8
0
 10
-65.7505
 20
781.643
 11
-65.5583
 21
781.411
  0
LINE
  8
0
 10
-65.5583
 20
781.411
 11
-65.3969
 21
781.156
  0
LINE
  8
0
 10
-65.3969
 20
781.156
 11
-65.2685
 21
780.883
  0
LINE
  8
0
 10
-65.2685
 20
780.883
 11
-65.1754
 21
780.597
  0
LINE
  8
0
 10
-65.1754
 20
780.597
 11
-65.1189
 21
780.301
  0
LINE
  8
0
 10
-65.1189
 20
780.301
 11
-65.1
 21
780
  0
LINE
  8
0
 10
-65.1
 20
780
 11
-65.1189
 21
779.699
  0
LINE
  8
0
 10
-65.1189
 20
779.699
 11
-65.1754
 21
779.403
  0
LINE
  8
0
 10
-65.1754
 20
779.403
 11
-65.2685
 21
779.117
  0
LINE
  8
0
 10
-65.2685
 20
779.117
 11
-65.3969
 21
778.844
  0
LINE
  8
0
 10
-65.3969
 20
778.844
 11
-65.5583
 21
778.589
  0
LINE
  8
0
 10
-65.5583
 20
778.589
 11
-65.7505
 21
778.357
  0
LINE
  8
0
 10
-65.7505
 20
778.357
 11
-65.9702
 21
778.151
  0
LINE
  8
0
 10
-65.9702
 20
778.151
 11
-66.214
 21
777.974
  0
LINE
  8
0
 10
-66.214
 20
777.974
 11
-66.4781
 21
777.828
  0
LINE
  8
0
 10
-66.4781
 20
777.828
 11
-66.7584
 21
777.717
  0
LINE
  8
0
 10
-66.7584
 20
777.717
 11
-67.0503
 21
777.643
  0
LINE
  8
0
 10
-67.0503
 20
777.643
 11
-67.3493
 21
777.605
  0
LINE
  8
0
 10
-67.3493
 20
777.605
 11
-67.6507
 21
777.605
  0
LINE
  8
0
 10
67.3493
 20
777.605
 11
67.0503
 21
777.643
  0
LINE
  8
0
 10
67.0503
 20
777.643
 11
66.7584
 21
777.717
  0
LINE
  8
0
 10
66.7584
 20
777.717
 11
66.4781
 21
777.828
  0
LINE
  8
0
 10
66.4781
 20
777.828
 11
66.214
 21
777.974
  0
LINE
  8
0
 10
66.214
 20
777.974
 11
65.9702
 21
778.151
  0
LINE
  8
0
 10
65.9702
 20
778.151
 11
65.7505
 21
778.357
  0
LINE
  8
0
 10
65.7505
 20
778.357
 11
65.5583
 21
778.589
  0
LINE
  8
0
 10
65.5583
 20
778.589
 11
65.3969
 21
778.844
  0
LINE
  8
0
 10
65.3969
 20
778.844
 11
65.2685
 21
779.117
  0
LINE
  8
0
 10
65.2685
 20
779.117
 11
65.1754
 21
779.403
  0
LINE
  8
0
 10
65.1754
 20
779.403
 11
65.1189
 21
779.699
  0
LINE
  8
0
 10
65.1189
 20
779.699
 11
65.1
 21
780
  0
LINE
  8
0
 10
65.1
 20
780
 11
65.1189
 21
780.301
  0
LINE
  8
0
 10
65.1189
 20
780.301
 11
65.1754
 21
780.597
  0
LINE
  8
0
 10
65.1754
 20
780.597
 11
65.2685
 21
780.883
  0
LINE
  8
0
 10
65.2685
 20
780.883
 11
65.3969
 21
781.156
  0
LINE
  8
0
 10
65.3969
 20
781.156
 11
65.5583
 21
781.411
  0
LINE
  8
0
 10
65.5583
 20
781.411
 11
65.7505
 21
781.643
  0
LINE
  8
0
 10
65.7505
 20
781.643
 11
65.9702
 21
781.849
  0
LINE
  8
0
 10
65.9702
 20
781.849
 11
66.214
 21
782.026
  0
LINE
  8
0
 10
66.214
 20
782.026
 11
66.4781
 21
782.172
  0
LINE
  8
0
 10
66.4781
 20
782.172
 11
66.7584
 21
782.283
  0
LINE
  8
0
 10
66.7584
 20
782.283
 11
67.0503
 21
782.357
  0
LINE
  8
0
 10
67.0503
 20
782.357
 11
67.3493
 21
782.395
  0
LINE
  8
0
 10
67.3493
 20
782.395
 11
67.6507
 21
782.395
  0
LINE
  8
0
 10
67.6507
 20
782.395
 11
67.9497
 21
782.357
  0
LINE
  8
0
 10
67.9497
 20
782.357
 11
68.2416
 21
782.283
  0
LINE
  8
0
 10
68.2416
 20
782.283
 11
68.5219
 21
782.172
  0
LINE
  8
0
 10
68.5219
 20
782.172
 11
68.786
 21
782.026
  0
LINE
  8
0
 10
68.786
 20
782.026
 11
69.0298
 21
781.849
  0
LINE
  8
0
 10
69.0298
 20
781.849
 11
69.2495
 21
781.643
  0
LINE
  8
0
 10
69.2495
 20
781.643
 11
69.4416
 21
781.411
  0
LINE
  8
0
 10
69.4416
 20
781.411
 11
69.6031
 21
781.156
  0
LINE
  8
0
 10
69.6031
 20
781.156
 11
69.7315
 21
780.883
  0
LINE
  8
0
 10
69.7315
 20
780.883
 11
69.8246
 21
780.597
  0
LINE
  8
0
 10
69.8246
 20
780.597
 11
69.8811
 21
780.301
  0
LINE
  8
0
 10
69.8811
 20
780.301
 11
69.9
 21
780
  0
LINE
  8
0
 10
69.9
 20
780
 11
69.8811
 21
779.699
  0
LINE
  8
0
 10
69.8811
 20
779.699
 11
69.8246
 21
779.403
  0
LINE
  8
0
 10
69.8246
 20
779.403
 11
69.7315
 21
779.117
  0
LINE
  8
0
 10
69.7315
 20
779.117
 11
69.6031
 21
778.844
  0
LINE
  8
0
 10
69.6031
 20
778.844
 11
69.4416
 21
778.589
  0
LINE
  8
0
 10
69.4416
 20
778.589
 11
69.2495
 21
778.357
  0
LINE
  8
0
 10
69.2495
 20
778.357
 11
69.0298
 21
778.151
  0
LINE
  8
0
 10
69.0298
 20
778.151
 11
68.786
 21
777.974
  0
LINE
  8
0
 10
68.786
 20
777.974
 11
68.5219
 21
777.828
  0
LINE
  8
0
 10
68.5219
 20
777.828
 11
68.2416
 21
777.717
  0
LINE
  8
0
 10
68.2416
 20
777.717
 11
67.9497
 21
777.643
  0
LINE
  8
0
 10
67.9497
 20
777.643
 11
67.6507
 21
777.605
  0
LINE
  8
0
 10
67.6507
 20
777.605
 11
67.3493
 21
777.605
  0
LINE
  8
0
 10
67.3493
 20
657.605
 11
67.0503
 21
657.643
  0
LINE
  8
0
 10
67.0503
 20
657.643
 11
66.7584
 21
657.717
  0
LINE
  8
0
 10
66.7584
 20
657.717
 11
66.4781
 21
657.828
  0
LINE
  8
0
 10
66.4781
 20
657.828
 11
66.214
 21
657.974
  0
LINE
  8
0
 10
66.214
 20
657.974
 11
65.9702
 21
658.151
  0
LINE
  8
0
 10
65.9702
 20
658.151
 11
65.7505
 21
658.357
  0
LINE
  8
0
 10
65.7505
 20
658.357
 11
65.5583
 21
658.589
  0
LINE
  8
0
 10
65.5583
 20
658.589
 11
65.3969
 21
658.844
  0
LINE
  8
0
 10
65.3969
 20
658.844
 11
65.2685
 21
659.117
  0
LINE
  8
0
 10
65.2685
 20
659.117
 11
65.1754
 21
659.403
  0
LINE
  8
0
 10
65.1754
 20
659.403
 11
65.1189
 21
659.699
  0
LINE
  8
0
 10
65.1189
 20
659.699
 11
65.1
 21
660
  0
LINE
  8
0
 10
65.1
 20
660
 11
65.1189
 21
660.301
  0
LINE
  8
0
 10
65.1189
 20
660.301
 11
65.1754
 21
660.597
  0
LINE
  8
0
 10
65.1754
 20
660.597
 11
65.2685
 21
660.883
  0
LINE
  8
0
 10
65.2685
 20
660.883
 11
65.3969
 21
661.156
  0
LINE
  8
0
 10
65.3969
 20
661.156
 11
65.5583
 21
661.411
  0
LINE
  8
0
 10
65.5583
 20
661.411
 11
65.7505
 21
661.643
  0
LINE
  8
0
 10
65.7505
 20
661.643
 11
65.9702
 21
661.849
  0
LINE
  8
0
 10
65.9702
 20
661.849
 11
66.214
 21
662.026
  0
LINE
  8
0
 10
66.214
 20
662.026
 11
66.4781
 21
662.172
  0
LINE
  8
0
 10
66.4781
 20
662.172
 11
66.7584
 21
662.283
  0
LINE
  8
0
 10
66.7584
 20
662.283
 11
67.0503
 21
662.357
  0
LINE
  8
0
 10
67.0503
 20
662.357
 11
67.3493
 21
662.395
  0
LINE
  8
0
 10
67.3493
 20
662.395
 11
67.6507
 21
662.395
  0
LINE
  8
0
 10
67.6507
 20
662.395
 11
67.9497
 21
662.357
  0
LINE
  8
0
 10
67.9497
 20
662.357
 11
68.2416
 21
662.283
  0
LINE
  8
0
 10
68.2416
 20
662.283
 11
68.5219
 21
662.172
  0
LINE
  8
0
 10
68.5219
 20
662.172
 11
68.786
 21
662.026
  0
LINE
  8
0
 10
68.786
 20
662.026
 11
69.0298
 21
661.849
  0
LINE
  8
0
 10
69.0298
 20
661.849
 11
69.2495
 21
661.643
  0
LINE
  8
0
 10
69.2495
 20
661.643
 11
69.4416
 21
661.411
  0
LINE
  8
0
 10
69.4416
 20
661.411
 11
69.6031
 21
661.156
  0
LINE
  8
0
 10
69.6031
 20
661.156
 11
69.7315
 21
660.883
  0
LINE
  8
0
 10
69.7315
 20
660.883
 11
69.8246
 21
660.597
  0
LINE
  8
0
 10
69.8246
 20
660.597
 11
69.8811
 21
660.301
  0
LINE
  8
0
 10
69.8811
 20
660.301
 11
69.9
 21
660
  0
LINE
  8
0
 10
69.9
 20
660
 11
69.8811
 21
659.699
  0
LINE
  8
0
 10
69.8811
 20
659.699
 11
69.8246
 21
659.403
  0
LINE
  8
0
 10
69.8246
 20
659.403
 11
69.7315
 21
659.117
  0
LINE
  8
0
 10
69.7315
 20
659.117
 11
69.6031
 21
658.844
  0
LINE
  8
0
 10
69.6031
 20
658.844
 11
69.4416
 21
658.589
  0
LINE
  8
0
 10
69.4416
 20
658.589
 11
69.2495
 21
658.357
  0
LINE
  8
0
 10
69.2495
 20
658.357
 11
69.0298
 21
658.151
  0
LINE
  8
0
 10
69.0298
 20
658.151
 11
68.786
 21
657.974
  0
LINE
  8
0
 10
68.786
 20
657.974
 11
68.5219
 21
657.828
  0
LINE
  8
0
 10
68.5219
 20
657.828
 11
68.2416
 21
657.717
  0
LINE
  8
0
 10
68.2416
 20
657.717
 11
67.9497
 21
657.643
  0
LINE
  8
0
 10
67.9497
 20
657.643
 11
67.6507
 21
657.605
  0
LINE
  8
0
 10
67.6507
 20
657.605
 11
67.3493
 21
657.605
  0
LINE
  8
0
 10
-67.6507
 20
657.605
 11
-67.9497
 21
657.643
  0
LINE
  8
0
 10
-67.9497
 20
657.643
 11
-68.2416
 21
657.717
  0
LINE
  8
0
 10
-68.2416
 20
657.717
 11
-68.5219
 21
657.828
  0
LINE
  8
0
 10
-68.5219
 20
657.828
 11
-68.786
 21
657.974
  0
LINE
  8
0
 10
-68.786
 20
657.974
 11
-69.0298
 21
658.151
  0
LINE
  8
0
 10
-69.0298
 20
658.151
 11
-69.2495
 21
658.357
  0
LINE
  8
0
 10
-69.2495
 20
658.357
 11
-69.4416
 21
658.589
  0
LINE
  8
0
 10
-69.4416
 20
658.589
 11
-69.6031
 21
658.844
  0
LINE
  8
0
 10
-69.6031
 20
658.844
 11
-69.7315
 21
659.117
  0
LINE
  8
0
 10
-69.7315
 20
659.117
 11
-69.8246
 21
659.403
  0
LINE
  8
0
 10
-69.8246
 20
659.403
 11
-69.8811
 21
659.699
  0
LINE
  8
0
 10
-69.8811
 20
659.699
 11
-69.9
 21
660
  0
LINE
  8
0
 10
-69.9
 20
660
 11
-69.8811
 21
660.301
  0
LINE
  8
0
 10
-69.8811
 20
660.301
 11
-69.8246
 21
660.597
  0
LINE
  8
0
 10
-69.8246
 20
660.597
 11
-69.7315
 21
660.883
  0
LINE
  8
0
 10
-69.7315
 20
660.883
 11
-69.6031
 21
661.156
  0
LINE
  8
0
 10
-69.6031
 20
661.156
 11
-69.4416
 21
661.411
  0
LINE
  8
0
 10
-69.4416
 20
661.411
 11
-69.2495
 21
661.643
  0
LINE
  8
0
 10
-69.2495
 20
661.643
 11
-69.0298
 21
661.849
  0
LINE
  8
0
 10
-69.0298
 20
661.849
 11
-68.786
 21
662.026
  0
LINE
  8
0
 10
-68.786
 20
662.026
 11
-68.5219
 21
662.172
  0
LINE
  8
0
 10
-68.5219
 20
662.172
 11
-68.2416
 21
662.283
  0
LINE
  8
0
 10
-68.2416
 20
662.283
 11
-67.9497
 21
662.357
  0
LINE
  8
0
 10
-67.9497
 20
662.357
 11
-67.6507
 21
662.395
  0
LINE
  8
0
 10
-67.6507
 20
662.395
 11
-67.3493
 21
662.395
  0
LINE
  8
0
 10
-67.3493
 20
662.395
 11
-67.0503
 21
662.357
  0
LINE
  8
0
 10
-67.0503
 20
662.357
 11
-66.7584
 21
662.283
  0
LINE
  8
0
 10
-66.7584
 20
662.283
 11
-66.4781
 21
662.172
  0
LINE
  8
0
 10
-66.4781
 20
662.172
 11
-66.214
 21
662.026
  0
LINE
  8
0
 10
-66.214
 20
662.026
 11
-65.9702
 21
661.849
  0
LINE
  8
0
 10
-65.9702
 20
661.849
 11
-65.7505
 21
661.643
  0
LINE
  8
0
 10
-65.7505
 20
661.643
 11
-65.5583
 21
661.411
  0
LINE
  8
0
 10
-65.5583
 20
661.411
 11
-65.3969
 21
661.156
  0
LINE
  8
0
 10
-65.3969
 20
661.156
 11
-65.2685
 21
660.883
  0
LINE
  8
0
 10
-65.2685
 20
660.883
 11
-65.1754
 21
660.597
  0
LINE
  8
0
 10
-65.1754
 20
660.597
 11
-65.1189
 21
660.301
  0
LINE
  8
0
 10
-65.1189
 20
660.301
 11
-65.1
 21
660
  0
LINE
  8
0
 10
-65.1
 20
660
 11
-65.1189
 21
659.699
  0
LINE
  8
0
 10
-65.1189
 20
659.699
 11
-65.1754
 21
659.403
  0
LINE
  8
0
 10
-65.1754
 20
659.403
 11
-65.2685
 21
659.117
  0
LINE
  8
0
 10
-65.2685
 20
659.117
 11
-65.3969
 21
658.844
  0
LINE
  8
0
 10
-65.3969
 20
658.844
 11
-65.5583
 21
658.589
  0
LINE
  8
0
 10
-65.5583
 20
658.589
 11
-65.7505
 21
658.357
  0
LINE
  8
0
 10
-65.7505
 20
658.357
 11
-65.9702
 21
658.151
  0
LINE
  8
0
 10
-65.9702
 20
658.151
 11
-66.214
 21
657.974
  0
LINE
  8
0
 10
-66.214
 20
657.974
 11
-66.4781
 21
657.828
  0
LINE
  8
0
 10
-66.4781
 20
657.828
 11
-66.7584
 21
657.717
  0
LINE
  8
0
 10
-66.7584
 20
657.717
 11
-67.0503
 21
657.643
  0
LINE
  8
0
 10
-67.0503
 20
657.643
 11
-67.3493
 21
657.605
  0
LINE
  8
0
 10
-67.3493
 20
657.605
 11
-67.6507
 21
657.605
  0
LINE
  8
0
 10
70.9369
 20
508.589
 11
71.5451
 21
508.745
  0
LINE
  8
0
 10
71.5451
 20
508.745
 11
72.1289
 21
508.976
  0
LINE
  8
0
 10
72.1289
 20
508.976
 11
72.6791
 21
509.278
  0
LINE
  8
0
 10
72.6791
 20
509.278
 11
73.1871
 21
509.647
  0
LINE
  8
0
 10
73.1871
 20
509.647
 11
73.6448
 21
510.077
  0
LINE
  8
0
 10
73.6448
 20
510.077
 11
74.0451
 21
510.561
  0
LINE
  8
0
 10
74.0451
 20
510.561
 11
74.3815
 21
511.091
  0
LINE
  8
0
 10
74.3815
 20
511.091
 11
74.6489
 21
511.659
  0
LINE
  8
0
 10
74.6489
 20
511.659
 11
74.8429
 21
512.257
  0
LINE
  8
0
 10
74.8429
 20
512.257
 11
74.9606
 21
512.873
  0
LINE
  8
0
 10
74.9606
 20
512.873
 11
75
 21
513.5
  0
LINE
  8
0
 10
75
 20
513.5
 11
75
 21
638.5
  0
LINE
  8
0
 10
75
 20
638.5
 11
74.9606
 21
639.127
  0
LINE
  8
0
 10
74.9606
 20
639.127
 11
74.8429
 21
639.743
  0
LINE
  8
0
 10
74.8429
 20
639.743
 11
74.6489
 21
640.341
  0
LINE
  8
0
 10
74.6489
 20
640.341
 11
74.3815
 21
640.909
  0
LINE
  8
0
 10
74.3815
 20
640.909
 11
74.0451
 21
641.439
  0
LINE
  8
0
 10
74.0451
 20
641.439
 11
73.6448
 21
641.923
  0
LINE
  8
0
 10
73.6448
 20
641.923
 11
73.1871
 21
642.353
  0
LINE
  8
0
 10
73.1871
 20
642.353
 11
72.6791
 21
642.722
  0
LINE
  8
0
 10
72.6791
 20
642.722
 11
72.1289
 21
643.024
  0
LINE
  8
0
 10
72.1289
 20
643.024
 11
71.5451
 21
643.255
  0
LINE
  8
0
 10
71.5451
 20
643.255
 11
70.9369
 21
643.411
  0
LINE
  8
0
 10
70.9369
 20
643.411
 11
70.3139
 21
643.49
  0
LINE
  8
0
 10
70.3139
 20
643.49
 11
-70.3139
 21
643.49
  0
LINE
  8
0
 10
-70.3139
 20
643.49
 11
-70.9369
 21
643.411
  0
LINE
  8
0
 10
-70.9369
 20
643.411
 11
-71.5451
 21
643.255
  0
LINE
  8
0
 10
-71.5451
 20
643.255
 11
-72.1289
 21
643.024
  0
LINE
  8
0
 10
-72.1289
 20
643.024
 11
-72.6791
 21
642.722
  0
LINE
  8
0
 10
-72.6791
 20
642.722
 11
-73.1871
 21
642.353
  0
LINE
  8
0
 10
-73.1871
 20
642.353
 11
-73.6448
 21
641.923
  0
LINE
  8
0
 10
-73.6448
 20
641.923
 11
-74.0451
 21
641.439
  0
LINE
  8
0
 10
-74.0451
 20
641.439
 11
-74.3815
 21
640.909
  0
LINE
  8
0
 10
-74.3815
 20
640.909
 11
-74.6489
 21
640.341
  0
LINE
  8
0
 10
-74.6489
 20
640.341
 11
-74.8429
 21
639.743
  0
LINE
  8
0
 10
-74.8429
 20
639.743
 11
-74.9606
 21
639.127
  0
LINE
  8
0
 10
-74.9606
 20
639.127
 11
-75
 21
638.5
  0
LINE
  8
0
 10
-75
 20
638.5
 11
-75
 21
513.5
  0
LINE
  8
0
 10
-75
 20
513.5
 11
-74.9606
 21
512.873
  0
LINE
  8
0
 10
-74.9606
 20
512.873
 11
-74.8429
 21
512.257
  0
LINE
  8
0
 10
-74.8429
 20
512.257
 11
-74.6489
 21
511.659
  0
LINE
  8
0
 10
-74.6489
 20
511.659
 11
-74.3815
 21
511.091
  0
LINE
  8
0
 10
-74.3815
 20
511.091
 11
-74.0451
 21
510.561
  0
LINE
  8
0
 10
-74.0451
 20
510.561
 11
-73.6448
 21
510.077
  0
LINE
  8
0
 10
-73.6448
 20
510.077
 11
-73.1871
 21
509.647
  0
LINE
  8
0
 10
-73.1871
 20
509.647
 11
-72.6791
 21
509.278
  0
LINE
  8
0
 10
-72.6791
 20
509.278
 11
-72.1289
 21
508.976
  0
LINE
  8
0
 10
-72.1289
 20
508.976
 11
-71.5451
 21
508.745
  0
LINE
  8
0
 10
-71.5451
 20
508.745
 11
-70.9369
 21
508.589
  0
LINE
  8
0
 10
-70.9369
 20
508.589
 11
-70.3139
 21
508.51
  0
LINE
  8
0
 10
-70.3139
 20
508.51
 11
70.3139
 21
508.51
  0
LINE
  8
0
 10
70.3139
 20
508.51
 11
70.9369
 21
508.589
  0
LINE
  8
0
 10
67.387
 20
634.204
 11
67.1627
 21
634.232
  0
LINE
  8
0
 10
67.1627
 20
634.232
 11
66.9438
 21
634.288
  0
LINE
  8
0
 10
66.9438
 20
634.288
 11
66.7336
 21
634.371
  0
LINE
  8
0
 10
66.7336
 20
634.371
 11
66.5355
 21
634.48
  0
LINE
  8
0
 10
66.5355
 20
634.48
 11
66.3526
 21
634.613
  0
LINE
  8
0
 10
66.3526
 20
634.613
 11
66.1879
 21
634.768
  0
LINE
  8
0
 10
66.1879
 20
634.768
 11
66.0438
 21
634.942
  0
LINE
  8
0
 10
66.0438
 20
634.942
 11
65.9226
 21
635.133
  0
LINE
  8
0
 10
65.9226
 20
635.133
 11
65.8264
 21
635.337
  0
LINE
  8
0
 10
65.8264
 20
635.337
 11
65.7565
 21
635.552
  0
LINE
  8
0
 10
65.7565
 20
635.552
 11
65.7142
 21
635.774
  0
LINE
  8
0
 10
65.7142
 20
635.774
 11
65.7
 21
636
  0
LINE
  8
0
 10
65.7
 20
636
 11
65.7142
 21
636.226
  0
LINE
  8
0
 10
65.7142
 20
636.226
 11
65.7565
 21
636.448
  0
LINE
  8
0
 10
65.7565
 20
636.448
 11
65.8264
 21
636.663
  0
LINE
  8
0
 10
65.8264
 20
636.663
 11
65.9226
 21
636.867
  0
LINE
  8
0
 10
65.9226
 20
636.867
 11
66.0438
 21
637.058
  0
LINE
  8
0
 10
66.0438
 20
637.058
 11
66.1879
 21
637.232
  0
LINE
  8
0
 10
66.1879
 20
637.232
 11
66.3526
 21
637.387
  0
LINE
  8
0
 10
66.3526
 20
637.387
 11
66.5355
 21
637.52
  0
LINE
  8
0
 10
66.5355
 20
637.52
 11
66.7336
 21
637.629
  0
LINE
  8
0
 10
66.7336
 20
637.629
 11
66.9438
 21
637.712
  0
LINE
  8
0
 10
66.9438
 20
637.712
 11
67.1627
 21
637.768
  0
LINE
  8
0
 10
67.1627
 20
637.768
 11
67.387
 21
637.796
  0
LINE
  8
0
 10
67.387
 20
637.796
 11
67.613
 21
637.796
  0
LINE
  8
0
 10
67.613
 20
637.796
 11
67.8373
 21
637.768
  0
LINE
  8
0
 10
67.8373
 20
637.768
 11
68.0562
 21
637.712
  0
LINE
  8
0
 10
68.0562
 20
637.712
 11
68.2664
 21
637.629
  0
LINE
  8
0
 10
68.2664
 20
637.629
 11
68.4645
 21
637.52
  0
LINE
  8
0
 10
68.4645
 20
637.52
 11
68.6474
 21
637.387
  0
LINE
  8
0
 10
68.6474
 20
637.387
 11
68.8121
 21
637.232
  0
LINE
  8
0
 10
68.8121
 20
637.232
 11
68.9562
 21
637.058
  0
LINE
  8
0
 10
68.9562
 20
637.058
 11
69.0773
 21
636.867
  0
LINE
  8
0
 10
69.0773
 20
636.867
 11
69.1736
 21
636.663
  0
LINE
  8
0
 10
69.1736
 20
636.663
 11
69.2434
 21
636.448
  0
LINE
  8
0
 10
69.2434
 20
636.448
 11
69.2858
 21
636.226
  0
LINE
  8
0
 10
69.2858
 20
636.226
 11
69.3
 21
636
  0
LINE
  8
0
 10
69.3
 20
636
 11
69.2858
 21
635.774
  0
LINE
  8
0
 10
69.2858
 20
635.774
 11
69.2434
 21
635.552
  0
LINE
  8
0
 10
69.2434
 20
635.552
 11
69.1736
 21
635.337
  0
LINE
  8
0
 10
69.1736
 20
635.337
 11
69.0773
 21
635.133
  0
LINE
  8
0
 10
69.0773
 20
635.133
 11
68.9562
 21
634.942
  0
LINE
  8
0
 10
68.9562
 20
634.942
 11
68.8121
 21
634.768
  0
LINE
  8
0
 10
68.8121
 20
634.768
 11
68.6474
 21
634.613
  0
LINE
  8
0
 10
68.6474
 20
634.613
 11
68.4645
 21
634.48
  0
LINE
  8
0
 10
68.4645
 20
634.48
 11
68.2664
 21
634.371
  0
LINE
  8
0
 10
68.2664
 20
634.371
 11
68.0562
 21
634.288
  0
LINE
  8
0
 10
68.0562
 20
634.288
 11
67.8373
 21
634.232
  0
LINE
  8
0
 10
67.8373
 20
634.232
 11
67.613
 21
634.204
  0
LINE
  8
0
 10
67.613
 20
634.204
 11
67.387
 21
634.204
  0
LINE
  8
0
 10
-67.613
 20
634.204
 11
-67.8373
 21
634.232
  0
LINE
  8
0
 10
-67.8373
 20
634.232
 11
-68.0562
 21
634.288
  0
LINE
  8
0
 10
-68.0562
 20
634.288
 11
-68.2664
 21
634.371
  0
LINE
  8
0
 10
-68.2664
 20
634.371
 11
-68.4645
 21
634.48
  0
LINE
  8
0
 10
-68.4645
 20
634.48
 11
-68.6474
 21
634.613
  0
LINE
  8
0
 10
-68.6474
 20
634.613
 11
-68.8121
 21
634.768
  0
LINE
  8
0
 10
-68.8121
 20
634.768
 11
-68.9562
 21
634.942
  0
LINE
  8
0
 10
-68.9562
 20
634.942
 11
-69.0773
 21
635.133
  0
LINE
  8
0
 10
-69.0773
 20
635.133
 11
-69.1736
 21
635.337
  0
LINE
  8
0
 10
-69.1736
 20
635.337
 11
-69.2434
 21
635.552
  0
LINE
  8
0
 10
-69.2434
 20
635.552
 11
-69.2858
 21
635.774
  0
LINE
  8
0
 10
-69.2858
 20
635.774
 11
-69.3
 21
636
  0
LINE
  8
0
 10
-69.3
 20
636
 11
-69.2858
 21
636.226
  0
LINE
  8
0
 10
-69.2858
 20
636.226
 11
-69.2434
 21
636.448
  0
LINE
  8
0
 10
-69.2434
 20
636.448
 11
-69.1736
 21
636.663
  0
LINE
  8
0
 10
-69.1736
 20
636.663
 11
-69.0773
 21
636.867
  0
LINE
  8
0
 10
-69.0773
 20
636.867
 11
-68.9562
 21
637.058
  0
LINE
  8
0
 10
-68.9562
 20
637.058
 11
-68.8121
 21
637.232
  0
LINE
  8
0
 10
-68.8121
 20
637.232
 11
-68.6474
 21
637.387
  0
LINE
  8
0
 10
-68.6474
 20
637.387
 11
-68.4645
 21
637.52
  0
LINE
  8
0
 10
-68.4645
 20
637.52
 11
-68.2664
 21
637.629
  0
LINE
  8
0
 10
-68.2664
 20
637.629
 11
-68.0562
 21
637.712
  0
LINE
  8
0
 10
-68.0562
 20
637.712
 11
-67.8373
 21
637.768
  0
LINE
  8
0
 10
-67.8373
 20
637.768
 11
-67.613
 21
637.796
  0
LINE
  8
0
 10
-67.613
 20
637.796
 11
-67.387
 21
637.796
  0
LINE
  8
0
 10
-67.387
 20
637.796
 11
-67.1627
 21
637.768
  0
LINE
  8
0
 10
-67.1627
 20
637.768
 11
-66.9438
 21
637.712
  0
LINE
  8
0
 10
-66.9438
 20
637.712
 11
-66.7336
 21
637.629
  0
LINE
  8
0
 10
-66.7336
 20
637.629
 11
-66.5355
 21
637.52
  0
LINE
  8
0
 10
-66.5355
 20
637.52
 11
-66.3526
 21
637.387
  0
LINE
  8
0
 10
-66.3526
 20
637.387
 11
-66.1879
 21
637.232
  0
LINE
  8
0
 10
-66.1879
 20
637.232
 11
-66.0438
 21
637.058
  0
LINE
  8
0
 10
-66.0438
 20
637.058
 11
-65.9226
 21
636.867
  0
LINE
  8
0
 10
-65.9226
 20
636.867
 11
-65.8264
 21
636.663
  0
LINE
  8
0
 10
-65.8264
 20
636.663
 11
-65.7565
 21
636.448
  0
LINE
  8
0
 10
-65.7565
 20
636.448
 11
-65.7142
 21
636.226
  0
LINE
  8
0
 10
-65.7142
 20
636.226
 11
-65.7
 21
636
  0
LINE
  8
0
 10
-65.7
 20
636
 11
-65.7142
 21
635.774
  0
LINE
  8
0
 10
-65.7142
 20
635.774
 11
-65.7565
 21
635.552
  0
LINE
  8
0
 10
-65.7565
 20
635.552
 11
-65.8264
 21
635.337
  0
LINE
  8
0
 10
-65.8264
 20
635.337
 11
-65.9226
 21
635.133
  0
LINE
  8
0
 10
-65.9226
 20
635.133
 11
-66.0438
 21
634.942
  0
LINE
  8
0
 10
-66.0438
 20
634.942
 11
-66.1879
 21
634.768
  0
LINE
  8
0
 10
-66.1879
 20
634.768
 11
-66.3526
 21
634.613
  0
LINE
  8
0
 10
-66.3526
 20
634.613
 11
-66.5355
 21
634.48
  0
LINE
  8
0
 10
-66.5355
 20
634.48
 11
-66.7336
 21
634.371
  0
LINE
  8
0
 10
-66.7336
 20
634.371
 11
-66.9438
 21
634.288
  0
LINE
  8
0
 10
-66.9438
 20
634.288
 11
-67.1627
 21
634.232
  0
LINE
  8
0
 10
-67.1627
 20
634.232
 11
-67.387
 21
634.204
  0
LINE
  8
0
 10
-67.387
 20
634.204
 11
-67.613
 21
634.204
  0
LINE
  8
0
 10
-67.613
 20
514.204
 11
-67.8373
 21
514.232
  0
LINE
  8
0
 10
-67.8373
 20
514.232
 11
-68.0562
 21
514.288
  0
LINE
  8
0
 10
-68.0562
 20
514.288
 11
-68.2664
 21
514.371
  0
LINE
  8
0
 10
-68.2664
 20
514.371
 11
-68.4645
 21
514.48
  0
LINE
  8
0
 10
-68.4645
 20
514.48
 11
-68.6474
 21
514.613
  0
LINE
  8
0
 10
-68.6474
 20
514.613
 11
-68.8121
 21
514.768
  0
LINE
  8
0
 10
-68.8121
 20
514.768
 11
-68.9562
 21
514.942
  0
LINE
  8
0
 10
-68.9562
 20
514.942
 11
-69.0773
 21
515.133
  0
LINE
  8
0
 10
-69.0773
 20
515.133
 11
-69.1736
 21
515.337
  0
LINE
  8
0
 10
-69.1736
 20
515.337
 11
-69.2434
 21
515.552
  0
LINE
  8
0
 10
-69.2434
 20
515.552
 11
-69.2858
 21
515.774
  0
LINE
  8
0
 10
-69.2858
 20
515.774
 11
-69.3
 21
516
  0
LINE
  8
0
 10
-69.3
 20
516
 11
-69.2858
 21
516.226
  0
LINE
  8
0
 10
-69.2858
 20
516.226
 11
-69.2434
 21
516.448
  0
LINE
  8
0
 10
-69.2434
 20
516.448
 11
-69.1736
 21
516.663
  0
LINE
  8
0
 10
-69.1736
 20
516.663
 11
-69.0773
 21
516.867
  0
LINE
  8
0
 10
-69.0773
 20
516.867
 11
-68.9562
 21
517.058
  0
LINE
  8
0
 10
-68.9562
 20
517.058
 11
-68.8121
 21
517.232
  0
LINE
  8
0
 10
-68.8121
 20
517.232
 11
-68.6474
 21
517.387
  0
LINE
  8
0
 10
-68.6474
 20
517.387
 11
-68.4645
 21
517.52
  0
LINE
  8
0
 10
-68.4645
 20
517.52
 11
-68.2664
 21
517.629
  0
LINE
  8
0
 10
-68.2664
 20
517.629
 11
-68.0562
 21
517.712
  0
LINE
  8
0
 10
-68.0562
 20
517.712
 11
-67.8373
 21
517.768
  0
LINE
  8
0
 10
-67.8373
 20
517.768
 11
-67.613
 21
517.796
  0
LINE
  8
0
 10
-67.613
 20
517.796
 11
-67.387
 21
517.796
  0
LINE
  8
0
 10
-67.387
 20
517.796
 11
-67.1627
 21
517.768
  0
LINE
  8
0
 10
-67.1627
 20
517.768
 11
-66.9438
 21
517.712
  0
LINE
  8
0
 10
-66.9438
 20
517.712
 11
-66.7336
 21
517.629
  0
LINE
  8
0
 10
-66.7336
 20
517.629
 11
-66.5355
 21
517.52
  0
LINE
  8
0
 10
-66.5355
 20
517.52
 11
-66.3526
 21
517.387
  0
LINE
  8
0
 10
-66.3526
 20
517.387
 11
-66.1879
 21
517.232
  0
LINE
  8
0
 10
-66.1879
 20
517.232
 11
-66.0438
 21
517.058
  0
LINE
  8
0
 10
-66.0438
 20
517.058
 11
-65.9226
 21
516.867
  0
LINE
  8
0
 10
-65.9226
 20
516.867
 11
-65.8264
 21
516.663
  0
LINE
  8
0
 10
-65.8264
 20
516.663
 11
-65.7565
 21
516.448
  0
LINE
  8
0
 10
-65.7565
 20
516.448
 11
-65.7142
 21
516.226
  0
LINE
  8
0
 10
-65.7142
 20
516.226
 11
-65.7
 21
516
  0
LINE
  8
0
 10
-65.7
 20
516
 11
-65.7142
 21
515.774
  0
LINE
  8
0
 10
-65.7142
 20
515.774
 11
-65.7565
 21
515.552
  0
LINE
  8
0
 10
-65.7565
 20
515.552
 11
-65.8264
 21
515.337
  0
LINE
  8
0
 10
-65.8264
 20
515.337
 11
-65.9226
 21
515.133
  0
LINE
  8
0
 10
-65.9226
 20
515.133
 11
-66.0438
 21
514.942
  0
LINE
  8
0
 10
-66.0438
 20
514.942
 11
-66.1879
 21
514.768
  0
LINE
  8
0
 10
-66.1879
 20
514.768
 11
-66.3526
 21
514.613
  0
LINE
  8
0
 10
-66.3526
 20
514.613
 11
-66.5355
 21
514.48
  0
LINE
  8
0
 10
-66.5355
 20
514.48
 11
-66.7336
 21
514.371
  0
LINE
  8
0
 10
-66.7336
 20
514.371
 11
-66.9438
 21
514.288
  0
LINE
  8
0
 10
-66.9438
 20
514.288
 11
-67.1627
 21
514.232
  0
LINE
  8
0
 10
-67.1627
 20
514.232
 11
-67.387
 21
514.204
  0
LINE
  8
0
 10
-67.387
 20
514.204
 11
-67.613
 21
514.204
  0
LINE
  8
0
 10
67.387
 20
514.204
 11
67.1627
 21
514.232
  0
LINE
  8
0
 10
67.1627
 20
514.232
 11
66.9438
 21
514.288
  0
LINE
  8
0
 10
66.9438
 20
514.288
 11
66.7336
 21
514.371
  0
LINE
  8
0
 10
66.7336
 20
514.371
 11
66.5355
 21
514.48
  0
LINE
  8
0
 10
66.5355
 20
514.48
 11
66.3526
 21
514.613
  0
LINE
  8
0
 10
66.3526
 20
514.613
 11
66.1879
 21
514.768
  0
LINE
  8
0
 10
66.1879
 20
514.768
 11
66.0438
 21
514.942
  0
LINE
  8
0
 10
66.0438
 20
514.942
 11
65.9226
 21
515.133
  0
LINE
  8
0
 10
65.9226
 20
515.133
 11
65.8264
 21
515.337
  0
LINE
  8
0
 10
65.8264
 20
515.337
 11
65.7565
 21
515.552
  0
LINE
  8
0
 10
65.7565
 20
515.552
 11
65.7142
 21
515.774
  0
LINE
  8
0
 10
65.7142
 20
515.774
 11
65.7
 21
516
  0
LINE
  8
0
 10
65.7
 20
516
 11
65.7142
 21
516.226
  0
LINE
  8
0
 10
65.7142
 20
516.226
 11
65.7565
 21
516.448
  0
LINE
  8
0
 10
65.7565
 20
516.448
 11
65.8264
 21
516.663
  0
LINE
  8
0
 10
65.8264
 20
516.663
 11
65.9226
 21
516.867
  0
LINE
  8
0
 10
65.9226
 20
516.867
 11
66.0438
 21
517.058
  0
LINE
  8
0
 10
66.0438
 20
517.058
 11
66.1879
 21
517.232
  0
LINE
  8
0
 10
66.1879
 20
517.232
 11
66.3526
 21
517.387
  0
LINE
  8
0
 10
66.3526
 20
517.387
 11
66.5355
 21
517.52
  0
LINE
  8
0
 10
66.5355
 20
517.52
 11
66.7336
 21
517.629
  0
LINE
  8
0
 10
66.7336
 20
517.629
 11
66.9438
 21
517.712
  0
LINE
  8
0
 10
66.9438
 20
517.712
 11
67.1627
 21
517.768
  0
LINE
  8
0
 10
67.1627
 20
517.768
 11
67.387
 21
517.796
  0
LINE
  8
0
 10
67.387
 20
517.796
 11
67.613
 21
517.796
  0
LINE
  8
0
 10
67.613
 20
517.796
 11
67.8373
 21
517.768
  0
LINE
  8
0
 10
67.8373
 20
517.768
 11
68.0562
 21
517.712
  0
LINE
  8
0
 10
68.0562
 20
517.712
 11
68.2664
 21
517.629
  0
LINE
  8
0
 10
68.2664
 20
517.629
 11
68.4645
 21
517.52
  0
LINE
  8
0
 10
68.4645
 20
517.52
 11
68.6474
 21
517.387
  0
LINE
  8
0
 10
68.6474
 20
517.387
 11
68.8121
 21
517.232
  0
LINE
  8
0
 10
68.8121
 20
517.232
 11
68.9562
 21
517.058
  0
LINE
  8
0
 10
68.9562
 20
517.058
 11
69.0773
 21
516.867
  0
LINE
  8
0
 10
69.0773
 20
516.867
 11
69.1736
 21
516.663
  0
LINE
  8
0
 10
69.1736
 20
516.663
 11
69.2434
 21
516.448
  0
LINE
  8
0
 10
69.2434
 20
516.448
 11
69.2858
 21
516.226
  0
LINE
  8
0
 10
69.2858
 20
516.226
 11
69.3
 21
516
  0
LINE
  8
0
 10
69.3
 20
516
 11
69.2858
 21
515.774
  0
LINE
  8
0
 10
69.2858
 20
515.774
 11
69.2434
 21
515.552
  0
LINE
  8
0
 10
69.2434
 20
515.552
 11
69.1736
 21
515.337
  0
LINE
  8
0
 10
69.1736
 20
515.337
 11
69.0773
 21
515.133
  0
LINE
  8
0
 10
69.0773
 20
515.133
 11
68.9562
 21
514.942
  0
LINE
  8
0
 10
68.9562
 20
514.942
 11
68.8121
 21
514.768
  0
LINE
  8
0
 10
68.8121
 20
514.768
 11
68.6474
 21
514.613
  0
LINE
  8
0
 10
68.6474
 20
514.613
 11
68.4645
 21
514.48
  0
LINE
  8
0
 10
68.4645
 20
514.48
 11
68.2664
 21
514.371
  0
LINE
  8
0
 10
68.2664
 20
514.371
 11
68.0562
 21
514.288
  0
LINE
  8
0
 10
68.0562
 20
514.288
 11
67.8373
 21
514.232
  0
LINE
  8
0
 10
67.8373
 20
514.232
 11
67.613
 21
514.204
  0
LINE
  8
0
 10
67.613
 20
514.204
 11
67.387
 21
514.204
  0
ENDSEC
  0
SECTION
  2
OBJECTS
  0
DICTIONARY
  0
ENDSEC
  0
EOF
