<?xml version="1.0" standalone="no"?>
<!DOCTYPE svg PUBLIC "-//W3C//DTD SVG 1.1//EN" "http://www.w3.org/Graphics/SVG/1.1/DTD/svg11.dtd">
<svg width="30mm" height="147mm" viewBox="-15 -288 30 147" xmlns="http://www.w3.org/2000/svg" version="1.1">
<title>OpenSCAD Model</title>
<path d="
M 10.9369,-258.089 L 11.5451,-258.245 L 12.1289,-258.476 L 12.6791,-258.778 L 13.1871,-259.147 L 13.6448,-259.577
 L 14.0451,-260.061 L 14.3815,-260.591 L 14.6489,-261.159 L 14.8429,-261.757 L 14.9606,-262.373 L 15,-263
 L 15,-283 L 14.9606,-283.627 L 14.8429,-284.243 L 14.6489,-284.841 L 14.3815,-285.409 L 14.0451,-285.939
 L 13.6448,-286.423 L 13.1871,-286.853 L 12.6791,-287.222 L 12.1289,-287.524 L 11.5451,-287.755 L 10.9369,-287.911
 L 10.3139,-287.99 L -10.3139,-287.99 L -10.9369,-287.911 L -11.5451,-287.755 L -12.1289,-287.524 L -12.6791,-287.222
 L -13.1871,-286.853 L -13.6448,-286.423 L -14.0451,-285.939 L -14.3815,-285.409 L -14.6489,-284.841 L -14.8429,-284.243
 L -14.9606,-283.627 L -15,-283 L -15,-263 L -14.9606,-262.373 L -14.8429,-261.757 L -14.6489,-261.159
 L -14.3815,-260.591 L -14.0451,-260.061 L -13.6448,-259.577 L -13.1871,-259.147 L -12.6791,-258.778 L -12.1289,-258.476
 L -11.5451,-258.245 L -10.9369,-258.089 L -10.3139,-258.01 L 10.3139,-258.01 z
M -9.75116,-259.508 L -10.2495,-259.571 L -10.7361,-259.696 L -11.2031,-259.881 L -11.6433,-260.123 L -12.0497,-260.418
 L -12.4159,-260.762 L -12.7361,-261.149 L -13.0052,-261.573 L -13.2191,-262.028 L -13.3743,-262.505 L -13.4684,-262.999
 L -13.5,-263.5 L -13.5,-282.5 L -13.4684,-283.001 L -13.3743,-283.495 L -13.2191,-283.972 L -13.0052,-284.427
 L -12.7361,-284.851 L -12.4159,-285.238 L -12.0497,-285.582 L -11.6433,-285.877 L -11.2031,-286.119 L -10.7361,-286.304
 L -10.2495,-286.429 L -9.75116,-286.492 L 9.75116,-286.492 L 10.2495,-286.429 L 10.7361,-286.304 L 11.2031,-286.119
 L 11.6433,-285.877 L 12.0497,-285.582 L 12.4159,-285.238 L 12.7361,-284.851 L 13.0052,-284.427 L 13.2191,-283.972
 L 13.3743,-283.495 L 13.4684,-283.001 L 13.5,-282.5 L 13.5,-263.5 L 13.4684,-262.999 L 13.3743,-262.505
 L 13.2191,-262.028 L 13.0052,-261.573 L 12.7361,-261.149 L 12.4159,-260.762 L 12.0497,-260.418 L 11.6433,-260.123
 L 11.2031,-259.881 L 10.7361,-259.696 L 10.2495,-259.571 L 9.75116,-259.508 z
M 10.9369,-219.089 L 11.5451,-219.245 L 12.1289,-219.476 L 12.6791,-219.778 L 13.1871,-220.147 L 13.6448,-220.577
 L 14.0451,-221.061 L 14.3815,-221.591 L 14.6489,-222.159 L 14.8429,-222.757 L 14.9606,-223.373 L 15,-224
 L 15,-244 L 14.9606,-244.627 L 14.8429,-245.243 L 14.6489,-245.841 L 14.3815,-246.409 L 14.0451,-246.939
 L 13.6448,-247.423 L 13.1871,-247.853 L 12.6791,-248.222 L 12.1289,-248.524 L 11.5451,-248.755 L 10.9369,-248.911
 L 10.3139,-248.99 L -10.3139,-248.99 L -10.9369,-248.911 L -11.5451,-248.755 L -12.1289,-248.524 L -12.6791,-248.222
 L -13.1871,-247.853 L -13.6448,-247.423 L -14.0451,-246.939 L -14.3815,-246.409 L -14.6489,-245.841 L -14.8429,-245.243
 L -14.9606,-244.627 L -15,-244 L -15,-224 L -14.9606,-223.373 L -14.8429,-222.757 L -14.6489,-222.159
 L -14.3815,-221.591 L -14.0451,-221.061 L -13.6448,-220.577 L -13.1871,-220.147 L -12.6791,-219.778 L -12.1289,-219.476
 L -11.5451,-219.245 L -10.9369,-219.089 L -10.3139,-219.01 L 10.3139,-219.01 z
M -9.75116,-220.508 L -10.2495,-220.571 L -10.7361,-220.696 L -11.2031,-220.881 L -11.6433,-221.123 L -12.0497,-221.418
 L -12.4159,-221.762 L -12.7361,-222.149 L -13.0052,-222.573 L -13.2191,-223.028 L -13.3743,-223.505 L -13.4684,-223.999
 L -13.5,-224.5 L -13.5,-243.5 L -13.4684,-244.001 L -13.3743,-244.495 L -13.2191,-244.972 L -13.0052,-245.427
 L -12.7361,-245.851 L -12.4159,-246.238 L -12.0497,-246.582 L -11.6433,-246.877 L -11.2031,-247.119 L -10.7361,-247.304
 L -10.2495,-247.429 L -9.75116,-247.492 L 9.75116,-247.492 L 10.2495,-247.429 L 10.7361,-247.304 L 11.2031,-247.119
 L 11.6433,-246.877 L 12.0497,-246.582 L 12.4159,-246.238 L 12.7361,-245.851 L 13.0052,-245.427 L 13.2191,-244.972
 L 13.3743,-244.495 L 13.4684,-244.001 L 13.5,-243.5 L 13.5,-224.5 L 13.4684,-223.999 L 13.3743,-223.505
 L 13.2191,-223.028 L 13.0052,-222.573 L 12.7361,-222.149 L 12.4159,-221.762 L 12.0497,-221.418 L 11.6433,-221.123
 L 11.2031,-220.881 L 10.7361,-220.696 L 10.2495,-220.571 L 9.75116,-220.508 z
M 10.9369,-180.089 L 11.5451,-180.245 L 12.1289,-180.476 L 12.6791,-180.778 L 13.1871,-181.147 L 13.6448,-181.577
 L 14.0451,-182.061 L 14.3815,-182.591 L 14.6489,-183.159 L 14.8429,-183.757 L 14.9606,-184.373 L 15,-185
 L 15,-205 L 14.9606,-205.627 L 14.8429,-206.243 L 14.6489,-206.841 L 14.3815,-207.409 L 14.0451,-207.939
 L 13.6448,-208.423 L 13.1871,-208.853 L 12.6791,-209.222 L 12.1289,-209.524 L 11.5451,-209.755 L 10.9369,-209.911
 L 10.3139,-209.99 L -10.3139,-209.99 L -10.9369,-209.911 L -11.5451,-209.755 L -12.1289,-209.524 L -12.6791,-209.222
 L -13.1871,-208.853 L -13.6448,-208.423 L -14.0451,-207.939 L -14.3815,-207.409 L -14.6489,-206.841 L -14.8429,-206.243
 L -14.9606,-205.627 L -15,-205 L -15,-185 L -14.9606,-184.373 L -14.8429,-183.757 L -14.6489,-183.159
 L -14.3815,-182.591 L -14.0451,-182.061 L -13.6448,-181.577 L -13.1871,-181.147 L -12.6791,-180.778 L -12.1289,-180.476
 L -11.5451,-180.245 L -10.9369,-180.089 L -10.3139,-180.01 L 10.3139,-180.01 z
M -9.69545,-182.393 L -10.0833,-182.442 L -10.4619,-182.539 L -10.8254,-182.683 L -11.168,-182.872 L -11.4842,-183.101
 L -11.7692,-183.369 L -12.0184,-183.67 L -12.2279,-184 L -12.3943,-184.354 L -12.5151,-184.726 L -12.5884,-185.11
 L -12.6129,-185.5 L -12.6129,-204.5 L -12.5884,-204.89 L -12.5151,-205.274 L -12.3943,-205.646 L -12.2279,-206
 L -12.0184,-206.33 L -11.7692,-206.631 L -11.4842,-206.899 L -11.168,-207.128 L -10.8254,-207.317 L -10.4619,-207.461
 L -10.0833,-207.558 L -9.69545,-207.607 L 9.69545,-207.607 L 10.0833,-207.558 L 10.4619,-207.461 L 10.8254,-207.317
 L 11.168,-207.128 L 11.4842,-206.899 L 11.7692,-206.631 L 12.0184,-206.33 L 12.2279,-206 L 12.3943,-205.646
 L 12.5151,-205.274 L 12.5884,-204.89 L 12.6129,-204.5 L 12.6129,-185.5 L 12.5884,-185.11 L 12.5151,-184.726
 L 12.3943,-184.354 L 12.2279,-184 L 12.0184,-183.67 L 11.7692,-183.369 L 11.4842,-183.101 L 11.168,-182.872
 L 10.8254,-182.683 L 10.4619,-182.539 L 10.0833,-182.442 L 9.69545,-182.393 z
M 10.9369,-141.089 L 11.5451,-141.245 L 12.1289,-141.476 L 12.6791,-141.778 L 13.1871,-142.147 L 13.6448,-142.577
 L 14.0451,-143.061 L 14.3815,-143.591 L 14.6489,-144.159 L 14.8429,-144.757 L 14.9606,-145.373 L 15,-146
 L 15,-166 L 14.9606,-166.627 L 14.8429,-167.243 L 14.6489,-167.841 L 14.3815,-168.409 L 14.0451,-168.939
 L 13.6448,-169.423 L 13.1871,-169.853 L 12.6791,-170.222 L 12.1289,-170.524 L 11.5451,-170.755 L 10.9369,-170.911
 L 10.3139,-170.99 L -10.3139,-170.99 L -10.9369,-170.911 L -11.5451,-170.755 L -12.1289,-170.524 L -12.6791,-170.222
 L -13.1871,-169.853 L -13.6448,-169.423 L -14.0451,-168.939 L -14.3815,-168.409 L -14.6489,-167.841 L -14.8429,-167.243
 L -14.9606,-166.627 L -15,-166 L -15,-146 L -14.9606,-145.373 L -14.8429,-144.757 L -14.6489,-144.159
 L -14.3815,-143.591 L -14.0451,-143.061 L -13.6448,-142.577 L -13.1871,-142.147 L -12.6791,-141.778 L -12.1289,-141.476
 L -11.5451,-141.245 L -10.9369,-141.089 L -10.3139,-141.01 L 10.3139,-141.01 z
M 7.36592,-161.369 L 7.09988,-161.403 L 6.84015,-161.469 L 6.59084,-161.568 L 6.35585,-161.697 L 6.1389,-161.855
 L 5.94344,-162.038 L 5.77251,-162.245 L 5.62881,-162.471 L 5.51465,-162.714 L 5.43178,-162.969 L 5.38153,-163.232
 L 5.3647,-163.5 L 5.38153,-163.768 L 5.43178,-164.031 L 5.51465,-164.286 L 5.62881,-164.529 L 5.77251,-164.755
 L 5.94344,-164.962 L 6.1389,-165.145 L 6.35585,-165.303 L 6.59084,-165.432 L 6.84015,-165.531 L 7.09988,-165.597
 L 7.36592,-165.631 L 7.63406,-165.631 L 7.9001,-165.597 L 8.15984,-165.531 L 8.40915,-165.432 L 8.64413,-165.303
 L 8.86108,-165.145 L 9.05655,-164.962 L 9.22748,-164.755 L 9.37117,-164.529 L 9.48534,-164.286 L 9.56821,-164.031
 L 9.61845,-163.768 L 9.63528,-163.5 L 9.61845,-163.232 L 9.56821,-162.969 L 9.48534,-162.714 L 9.37117,-162.471
 L 9.22748,-162.245 L 9.05655,-162.038 L 8.86108,-161.855 L 8.64413,-161.697 L 8.40915,-161.568 L 8.15984,-161.469
 L 7.9001,-161.403 L 7.63406,-161.369 z
M -7.63406,-161.369 L -7.9001,-161.403 L -8.15984,-161.469 L -8.40915,-161.568 L -8.64413,-161.697 L -8.86108,-161.855
 L -9.05655,-162.038 L -9.22748,-162.245 L -9.37117,-162.471 L -9.48534,-162.714 L -9.56821,-162.969 L -9.61845,-163.232
 L -9.63528,-163.5 L -9.61845,-163.768 L -9.56821,-164.031 L -9.48534,-164.286 L -9.37117,-164.529 L -9.22748,-164.755
 L -9.05655,-164.962 L -8.86108,-165.145 L -8.64413,-165.303 L -8.40915,-165.432 L -8.15984,-165.531 L -7.9001,-165.597
 L -7.63406,-165.631 L -7.36592,-165.631 L -7.09988,-165.597 L -6.84015,-165.531 L -6.59084,-165.432 L -6.35585,-165.303
 L -6.1389,-165.145 L -5.94344,-164.962 L -5.77251,-164.755 L -5.62881,-164.529 L -5.51465,-164.286 L -5.43178,-164.031
 L -5.38153,-163.768 L -5.3647,-163.5 L -5.38153,-163.232 L -5.43178,-162.969 L -5.51465,-162.714 L -5.62881,-162.471
 L -5.77251,-162.245 L -5.94344,-162.038 L -6.1389,-161.855 L -6.35585,-161.697 L -6.59084,-161.568 L -6.84015,-161.469
 L -7.09988,-161.403 L -7.36592,-161.369 z
M 7.36592,-146.369 L 7.09988,-146.403 L 6.84015,-146.469 L 6.59084,-146.568 L 6.35585,-146.697 L 6.1389,-146.855
 L 5.94344,-147.038 L 5.77251,-147.245 L 5.62881,-147.471 L 5.51465,-147.714 L 5.43178,-147.969 L 5.38153,-148.232
 L 5.3647,-148.5 L 5.38153,-148.768 L 5.43178,-149.031 L 5.51465,-149.286 L 5.62881,-149.529 L 5.77251,-149.755
 L 5.94344,-149.962 L 6.1389,-150.145 L 6.35585,-150.303 L 6.59084,-150.432 L 6.84015,-150.531 L 7.09988,-150.597
 L 7.36592,-150.631 L 7.63406,-150.631 L 7.9001,-150.597 L 8.15984,-150.531 L 8.40915,-150.432 L 8.64413,-150.303
 L 8.86108,-150.145 L 9.05655,-149.962 L 9.22748,-149.755 L 9.37117,-149.529 L 9.48534,-149.286 L 9.56821,-149.031
 L 9.61845,-148.768 L 9.63528,-148.5 L 9.61845,-148.232 L 9.56821,-147.969 L 9.48534,-147.714 L 9.37117,-147.471
 L 9.22748,-147.245 L 9.05655,-147.038 L 8.86108,-146.855 L 8.64413,-146.697 L 8.40915,-146.568 L 8.15984,-146.469
 L 7.9001,-146.403 L 7.63406,-146.369 z
M -7.63406,-146.369 L -7.9001,-146.403 L -8.15984,-146.469 L -8.40915,-146.568 L -8.64413,-146.697 L -8.86108,-146.855
 L -9.05655,-147.038 L -9.22748,-147.245 L -9.37117,-147.471 L -9.48534,-147.714 L -9.56821,-147.969 L -9.61845,-148.232
 L -9.63528,-148.5 L -9.61845,-148.768 L -9.56821,-149.031 L -9.48534,-149.286 L -9.37117,-149.529 L -9.22748,-149.755
 L -9.05655,-149.962 L -8.86108,-150.145 L -8.64413,-150.303 L -8.40915,-150.432 L -8.15984,-150.531 L -7.9001,-150.597
 L -7.63406,-150.631 L -7.36592,-150.631 L -7.09988,-150.597 L -6.84015,-150.531 L -6.59084,-150.432 L -6.35585,-150.303
 L -6.1389,-150.145 L -5.94344,-149.962 L -5.77251,-149.755 L -5.62881,-149.529 L -5.51465,-149.286 L -5.43178,-149.031
 L -5.38153,-148.768 L -5.3647,-148.5 L -5.38153,-148.232 L -5.43178,-147.969 L -5.51465,-147.714 L -5.62881,-147.471
 L -5.77251,-147.245 L -5.94344,-147.038 L -6.1389,-146.855 L -6.35585,-146.697 L -6.59084,-146.568 L -6.84015,-146.469
 L -7.09988,-146.403 L -7.36592,-146.369 z
" stroke="black" fill="lightgray" stroke-width="0.5"/>
</svg>
