<?xml version="1.0" standalone="no"?>
<!DOCTYPE svg PUBLIC "-//W3C//DTD SVG 1.1//EN" "http://www.w3.org/Graphics/SVG/1.1/DTD/svg11.dtd">
<svg width="166mm" height="784mm" viewBox="-83 -1184 166 784" xmlns="http://www.w3.org/2000/svg" version="1.1">
<title>OpenSCAD Model</title>
<path d="
M 78.4369,-928.589 L 79.0451,-928.745 L 79.6289,-928.976 L 80.1791,-929.278 L 80.6871,-929.647 L 81.1448,-930.077
 L 81.5451,-930.561 L 81.8815,-931.091 L 82.1489,-931.659 L 82.3429,-932.257 L 82.4606,-932.873 L 82.5,-933.5
 L 82.5,-1178.5 L 82.4606,-1179.13 L 82.3429,-1179.74 L 82.1489,-1180.34 L 81.8815,-1180.91 L 81.5451,-1181.44
 L 81.1448,-1181.92 L 80.6871,-1182.35 L 80.1791,-1182.72 L 79.6289,-1183.02 L 79.0451,-1183.26 L 78.4369,-1183.41
 L 77.8139,-1183.49 L -77.8139,-1183.49 L -78.4369,-1183.41 L -79.0451,-1183.26 L -79.6289,-1183.02 L -80.1791,-1182.72
 L -80.6871,-1182.35 L -81.1448,-1181.92 L -81.5451,-1181.44 L -81.8815,-1180.91 L -82.1489,-1180.34 L -82.3429,-1179.74
 L -82.4606,-1179.13 L -82.5,-1178.5 L -82.5,-933.5 L -82.4606,-932.873 L -82.3429,-932.257 L -82.1489,-931.659
 L -81.8815,-931.091 L -81.5451,-930.561 L -81.1448,-930.077 L -80.6871,-929.647 L -80.1791,-929.278 L -79.6289,-928.976
 L -79.0451,-928.745 L -78.4369,-928.589 L -77.8139,-928.51 L 77.8139,-928.51 z
M -77.2432,-930.135 L -77.7256,-930.196 L -78.1967,-930.317 L -78.6489,-930.496 L -79.0751,-930.73 L -79.4685,-931.016
 L -79.823,-931.349 L -80.133,-931.724 L -80.3936,-932.134 L -80.6007,-932.574 L -80.751,-933.037 L -80.8421,-933.515
 L -80.8726,-934 L -80.8726,-1178 L -80.8421,-1178.49 L -80.751,-1178.96 L -80.6007,-1179.43 L -80.3936,-1179.87
 L -80.133,-1180.28 L -79.823,-1180.65 L -79.4685,-1180.98 L -79.0751,-1181.27 L -78.6489,-1181.5 L -78.1967,-1181.68
 L -77.7256,-1181.8 L -77.2432,-1181.86 L 77.2432,-1181.86 L 77.7256,-1181.8 L 78.1967,-1181.68 L 78.6489,-1181.5
 L 79.0751,-1181.27 L 79.4685,-1180.98 L 79.823,-1180.65 L 80.133,-1180.28 L 80.3936,-1179.87 L 80.6007,-1179.43
 L 80.751,-1178.96 L 80.8421,-1178.49 L 80.8726,-1178 L 80.8726,-934 L 80.8421,-933.515 L 80.751,-933.037
 L 80.6007,-932.574 L 80.3936,-932.134 L 80.133,-931.724 L 79.823,-931.349 L 79.4685,-931.016 L 79.0751,-930.73
 L 78.6489,-930.496 L 78.1967,-930.317 L 77.7256,-930.196 L 77.2432,-930.135 z
M 78.4369,-664.589 L 79.0451,-664.745 L 79.6289,-664.976 L 80.1791,-665.278 L 80.6871,-665.647 L 81.1448,-666.077
 L 81.5451,-666.561 L 81.8815,-667.091 L 82.1489,-667.659 L 82.3429,-668.257 L 82.4606,-668.873 L 82.5,-669.5
 L 82.5,-914.5 L 82.4606,-915.127 L 82.3429,-915.743 L 82.1489,-916.341 L 81.8815,-916.909 L 81.5451,-917.439
 L 81.1448,-917.923 L 80.6871,-918.353 L 80.1791,-918.722 L 79.6289,-919.024 L 79.0451,-919.255 L 78.4369,-919.411
 L 77.8139,-919.49 L -77.8139,-919.49 L -78.4369,-919.411 L -79.0451,-919.255 L -79.6289,-919.024 L -80.1791,-918.722
 L -80.6871,-918.353 L -81.1448,-917.923 L -81.5451,-917.439 L -81.8815,-916.909 L -82.1489,-916.341 L -82.3429,-915.743
 L -82.4606,-915.127 L -82.5,-914.5 L -82.5,-669.5 L -82.4606,-668.873 L -82.3429,-668.257 L -82.1489,-667.659
 L -81.8815,-667.091 L -81.5451,-666.561 L -81.1448,-666.077 L -80.6871,-665.647 L -80.1791,-665.278 L -79.6289,-664.976
 L -79.0451,-664.745 L -78.4369,-664.589 L -77.8139,-664.51 L 77.8139,-664.51 z
M 74.8493,-909.605 L 74.5503,-909.643 L 74.2584,-909.717 L 73.9781,-909.828 L 73.714,-909.974 L 73.4702,-910.151
 L 73.2505,-910.357 L 73.0583,-910.589 L 72.8969,-910.844 L 72.7685,-911.117 L 72.6754,-911.403 L 72.6189,-911.699
 L 72.6,-912 L 72.6189,-912.301 L 72.6754,-912.597 L 72.7685,-912.883 L 72.8969,-913.156 L 73.0583,-913.411
 L 73.2505,-913.643 L 73.4702,-913.849 L 73.714,-914.026 L 73.9781,-914.172 L 74.2584,-914.283 L 74.5503,-914.357
 L 74.8493,-914.395 L 75.1507,-914.395 L 75.4497,-914.357 L 75.7416,-914.283 L 76.0219,-914.172 L 76.286,-914.026
 L 76.5298,-913.849 L 76.7495,-913.643 L 76.9416,-913.411 L 77.1031,-913.156 L 77.2315,-912.883 L 77.3246,-912.597
 L 77.3811,-912.301 L 77.4,-912 L 77.3811,-911.699 L 77.3246,-911.403 L 77.2315,-911.117 L 77.1031,-910.844
 L 76.9416,-910.589 L 76.7495,-910.357 L 76.5298,-910.151 L 76.286,-909.974 L 76.0219,-909.828 L 75.7416,-909.717
 L 75.4497,-909.643 L 75.1507,-909.605 z
M -75.1507,-909.605 L -75.4497,-909.643 L -75.7416,-909.717 L -76.0219,-909.828 L -76.286,-909.974 L -76.5298,-910.151
 L -76.7495,-910.357 L -76.9416,-910.589 L -77.1031,-910.844 L -77.2315,-911.117 L -77.3246,-911.403 L -77.3811,-911.699
 L -77.4,-912 L -77.3811,-912.301 L -77.3246,-912.597 L -77.2315,-912.883 L -77.1031,-913.156 L -76.9416,-913.411
 L -76.7495,-913.643 L -76.5298,-913.849 L -76.286,-914.026 L -76.0219,-914.172 L -75.7416,-914.283 L -75.4497,-914.357
 L -75.1507,-914.395 L -74.8493,-914.395 L -74.5503,-914.357 L -74.2584,-914.283 L -73.9781,-914.172 L -73.714,-914.026
 L -73.4702,-913.849 L -73.2505,-913.643 L -73.0583,-913.411 L -72.8969,-913.156 L -72.7685,-912.883 L -72.6754,-912.597
 L -72.6189,-912.301 L -72.6,-912 L -72.6189,-911.699 L -72.6754,-911.403 L -72.7685,-911.117 L -72.8969,-910.844
 L -73.0583,-910.589 L -73.2505,-910.357 L -73.4702,-910.151 L -73.714,-909.974 L -73.9781,-909.828 L -74.2584,-909.717
 L -74.5503,-909.643 L -74.8493,-909.605 z
M 74.8493,-669.605 L 74.5503,-669.643 L 74.2584,-669.717 L 73.9781,-669.828 L 73.714,-669.974 L 73.4702,-670.151
 L 73.2505,-670.357 L 73.0583,-670.589 L 72.8969,-670.844 L 72.7685,-671.117 L 72.6754,-671.403 L 72.6189,-671.699
 L 72.6,-672 L 72.6189,-672.301 L 72.6754,-672.597 L 72.7685,-672.883 L 72.8969,-673.156 L 73.0583,-673.411
 L 73.2505,-673.643 L 73.4702,-673.849 L 73.714,-674.026 L 73.9781,-674.172 L 74.2584,-674.283 L 74.5503,-674.357
 L 74.8493,-674.395 L 75.1507,-674.395 L 75.4497,-674.357 L 75.7416,-674.283 L 76.0219,-674.172 L 76.286,-674.026
 L 76.5298,-673.849 L 76.7495,-673.643 L 76.9416,-673.411 L 77.1031,-673.156 L 77.2315,-672.883 L 77.3246,-672.597
 L 77.3811,-672.301 L 77.4,-672 L 77.3811,-671.699 L 77.3246,-671.403 L 77.2315,-671.117 L 77.1031,-670.844
 L 76.9416,-670.589 L 76.7495,-670.357 L 76.5298,-670.151 L 76.286,-669.974 L 76.0219,-669.828 L 75.7416,-669.717
 L 75.4497,-669.643 L 75.1507,-669.605 z
M -75.1507,-669.605 L -75.4497,-669.643 L -75.7416,-669.717 L -76.0219,-669.828 L -76.286,-669.974 L -76.5298,-670.151
 L -76.7495,-670.357 L -76.9416,-670.589 L -77.1031,-670.844 L -77.2315,-671.117 L -77.3246,-671.403 L -77.3811,-671.699
 L -77.4,-672 L -77.3811,-672.301 L -77.3246,-672.597 L -77.2315,-672.883 L -77.1031,-673.156 L -76.9416,-673.411
 L -76.7495,-673.643 L -76.5298,-673.849 L -76.286,-674.026 L -76.0219,-674.172 L -75.7416,-674.283 L -75.4497,-674.357
 L -75.1507,-674.395 L -74.8493,-674.395 L -74.5503,-674.357 L -74.2584,-674.283 L -73.9781,-674.172 L -73.714,-674.026
 L -73.4702,-673.849 L -73.2505,-673.643 L -73.0583,-673.411 L -72.8969,-673.156 L -72.7685,-672.883 L -72.6754,-672.597
 L -72.6189,-672.301 L -72.6,-672 L -72.6189,-671.699 L -72.6754,-671.403 L -72.7685,-671.117 L -72.8969,-670.844
 L -73.0583,-670.589 L -73.2505,-670.357 L -73.4702,-670.151 L -73.714,-669.974 L -73.9781,-669.828 L -74.2584,-669.717
 L -74.5503,-669.643 L -74.8493,-669.605 z
M 78.4369,-400.589 L 79.0451,-400.745 L 79.6289,-400.976 L 80.1791,-401.278 L 80.6871,-401.647 L 81.1448,-402.077
 L 81.5451,-402.561 L 81.8815,-403.091 L 82.1489,-403.659 L 82.3429,-404.257 L 82.4606,-404.873 L 82.5,-405.5
 L 82.5,-650.5 L 82.4606,-651.127 L 82.3429,-651.743 L 82.1489,-652.341 L 81.8815,-652.909 L 81.5451,-653.439
 L 81.1448,-653.923 L 80.6871,-654.353 L 80.1791,-654.722 L 79.6289,-655.024 L 79.0451,-655.255 L 78.4369,-655.411
 L 77.8139,-655.49 L -77.8139,-655.49 L -78.4369,-655.411 L -79.0451,-655.255 L -79.6289,-655.024 L -80.1791,-654.722
 L -80.6871,-654.353 L -81.1448,-653.923 L -81.5451,-653.439 L -81.8815,-652.909 L -82.1489,-652.341 L -82.3429,-651.743
 L -82.4606,-651.127 L -82.5,-650.5 L -82.5,-405.5 L -82.4606,-404.873 L -82.3429,-404.257 L -82.1489,-403.659
 L -81.8815,-403.091 L -81.5451,-402.561 L -81.1448,-402.077 L -80.6871,-401.647 L -80.1791,-401.278 L -79.6289,-400.976
 L -79.0451,-400.745 L -78.4369,-400.589 L -77.8139,-400.51 L 77.8139,-400.51 z
M 74.887,-646.204 L 74.6627,-646.232 L 74.4438,-646.288 L 74.2336,-646.371 L 74.0355,-646.48 L 73.8526,-646.613
 L 73.6879,-646.768 L 73.5438,-646.942 L 73.4226,-647.133 L 73.3264,-647.337 L 73.2565,-647.552 L 73.2142,-647.774
 L 73.2,-648 L 73.2142,-648.226 L 73.2565,-648.448 L 73.3264,-648.663 L 73.4226,-648.867 L 73.5438,-649.058
 L 73.6879,-649.232 L 73.8526,-649.387 L 74.0355,-649.52 L 74.2336,-649.629 L 74.4438,-649.712 L 74.6627,-649.768
 L 74.887,-649.796 L 75.113,-649.796 L 75.3373,-649.768 L 75.5562,-649.712 L 75.7664,-649.629 L 75.9645,-649.52
 L 76.1474,-649.387 L 76.3121,-649.232 L 76.4562,-649.058 L 76.5773,-648.867 L 76.6736,-648.663 L 76.7434,-648.448
 L 76.7858,-648.226 L 76.8,-648 L 76.7858,-647.774 L 76.7434,-647.552 L 76.6736,-647.337 L 76.5773,-647.133
 L 76.4562,-646.942 L 76.3121,-646.768 L 76.1474,-646.613 L 75.9645,-646.48 L 75.7664,-646.371 L 75.5562,-646.288
 L 75.3373,-646.232 L 75.113,-646.204 z
M -75.113,-646.204 L -75.3373,-646.232 L -75.5562,-646.288 L -75.7664,-646.371 L -75.9645,-646.48 L -76.1474,-646.613
 L -76.3121,-646.768 L -76.4562,-646.942 L -76.5773,-647.133 L -76.6736,-647.337 L -76.7434,-647.552 L -76.7858,-647.774
 L -76.8,-648 L -76.7858,-648.226 L -76.7434,-648.448 L -76.6736,-648.663 L -76.5773,-648.867 L -76.4562,-649.058
 L -76.3121,-649.232 L -76.1474,-649.387 L -75.9645,-649.52 L -75.7664,-649.629 L -75.5562,-649.712 L -75.3373,-649.768
 L -75.113,-649.796 L -74.887,-649.796 L -74.6627,-649.768 L -74.4438,-649.712 L -74.2336,-649.629 L -74.0355,-649.52
 L -73.8526,-649.387 L -73.6879,-649.232 L -73.5438,-649.058 L -73.4226,-648.867 L -73.3264,-648.663 L -73.2565,-648.448
 L -73.2142,-648.226 L -73.2,-648 L -73.2142,-647.774 L -73.2565,-647.552 L -73.3264,-647.337 L -73.4226,-647.133
 L -73.5438,-646.942 L -73.6879,-646.768 L -73.8526,-646.613 L -74.0355,-646.48 L -74.2336,-646.371 L -74.4438,-646.288
 L -74.6627,-646.232 L -74.887,-646.204 z
M -75.113,-406.204 L -75.3373,-406.232 L -75.5562,-406.288 L -75.7664,-406.371 L -75.9645,-406.48 L -76.1474,-406.613
 L -76.3121,-406.768 L -76.4562,-406.942 L -76.5773,-407.133 L -76.6736,-407.337 L -76.7434,-407.552 L -76.7858,-407.774
 L -76.8,-408 L -76.7858,-408.226 L -76.7434,-408.448 L -76.6736,-408.663 L -76.5773,-408.867 L -76.4562,-409.058
 L -76.3121,-409.232 L -76.1474,-409.387 L -75.9645,-409.52 L -75.7664,-409.629 L -75.5562,-409.712 L -75.3373,-409.768
 L -75.113,-409.796 L -74.887,-409.796 L -74.6627,-409.768 L -74.4438,-409.712 L -74.2336,-409.629 L -74.0355,-409.52
 L -73.8526,-409.387 L -73.6879,-409.232 L -73.5438,-409.058 L -73.4226,-408.867 L -73.3264,-408.663 L -73.2565,-408.448
 L -73.2142,-408.226 L -73.2,-408 L -73.2142,-407.774 L -73.2565,-407.552 L -73.3264,-407.337 L -73.4226,-407.133
 L -73.5438,-406.942 L -73.6879,-406.768 L -73.8526,-406.613 L -74.0355,-406.48 L -74.2336,-406.371 L -74.4438,-406.288
 L -74.6627,-406.232 L -74.887,-406.204 z
M 74.887,-406.204 L 74.6627,-406.232 L 74.4438,-406.288 L 74.2336,-406.371 L 74.0355,-406.48 L 73.8526,-406.613
 L 73.6879,-406.768 L 73.5438,-406.942 L 73.4226,-407.133 L 73.3264,-407.337 L 73.2565,-407.552 L 73.2142,-407.774
 L 73.2,-408 L 73.2142,-408.226 L 73.2565,-408.448 L 73.3264,-408.663 L 73.4226,-408.867 L 73.5438,-409.058
 L 73.6879,-409.232 L 73.8526,-409.387 L 74.0355,-409.52 L 74.2336,-409.629 L 74.4438,-409.712 L 74.6627,-409.768
 L 74.887,-409.796 L 75.113,-409.796 L 75.3373,-409.768 L 75.5562,-409.712 L 75.7664,-409.629 L 75.9645,-409.52
 L 76.1474,-409.387 L 76.3121,-409.232 L 76.4562,-409.058 L 76.5773,-408.867 L 76.6736,-408.663 L 76.7434,-408.448
 L 76.7858,-408.226 L 76.8,-408 L 76.7858,-407.774 L 76.7434,-407.552 L 76.6736,-407.337 L 76.5773,-407.133
 L 76.4562,-406.942 L 76.3121,-406.768 L 76.1474,-406.613 L 75.9645,-406.48 L 75.7664,-406.371 L 75.5562,-406.288
 L 75.3373,-406.232 L 75.113,-406.204 z
" stroke="black" fill="lightgray" stroke-width="0.5"/>
</svg>
