<?xml version="1.0" standalone="no"?>
<!DOCTYPE svg PUBLIC "-//W3C//DTD SVG 1.1//EN" "http://www.w3.org/Graphics/SVG/1.1/DTD/svg11.dtd">
<svg width="30mm" height="549mm" viewBox="-15 -972 30 549" xmlns="http://www.w3.org/2000/svg" version="1.1">
<title>OpenSCAD Model</title>
<path d="
M 10.9369,-702.089 L 11.5451,-702.245 L 12.1289,-702.476 L 12.6791,-702.778 L 13.1871,-703.147 L 13.6448,-703.577
 L 14.0451,-704.061 L 14.3815,-704.591 L 14.6489,-705.159 L 14.8429,-705.757 L 14.9606,-706.373 L 15,-707
 L 15,-967 L 14.9606,-967.627 L 14.8429,-968.243 L 14.6489,-968.841 L 14.3815,-969.409 L 14.0451,-969.939
 L 13.6448,-970.423 L 13.1871,-970.853 L 12.6791,-971.222 L 12.1289,-971.524 L 11.5451,-971.755 L 10.9369,-971.911
 L 10.3139,-971.99 L -10.3139,-971.99 L -10.9369,-971.911 L -11.5451,-971.755 L -12.1289,-971.524 L -12.6791,-971.222
 L -13.1871,-970.853 L -13.6448,-970.423 L -14.0451,-969.939 L -14.3815,-969.409 L -14.6489,-968.841 L -14.8429,-968.243
 L -14.9606,-967.627 L -15,-967 L -15,-707 L -14.9606,-706.373 L -14.8429,-705.757 L -14.6489,-705.159
 L -14.3815,-704.591 L -14.0451,-704.061 L -13.6448,-703.577 L -13.1871,-703.147 L -12.6791,-702.778 L -12.1289,-702.476
 L -11.5451,-702.245 L -10.9369,-702.089 L -10.3139,-702.01 L 10.3139,-702.01 z
M -9.69545,-704.393 L -10.0833,-704.442 L -10.4619,-704.539 L -10.8254,-704.683 L -11.168,-704.872 L -11.4842,-705.101
 L -11.7692,-705.369 L -12.0184,-705.67 L -12.2279,-706 L -12.3943,-706.354 L -12.5151,-706.726 L -12.5884,-707.11
 L -12.6129,-707.5 L -12.6129,-966.5 L -12.5884,-966.89 L -12.5151,-967.274 L -12.3943,-967.646 L -12.2279,-968
 L -12.0184,-968.33 L -11.7692,-968.631 L -11.4842,-968.899 L -11.168,-969.128 L -10.8254,-969.317 L -10.4619,-969.461
 L -10.0833,-969.558 L -9.69545,-969.607 L 9.69545,-969.607 L 10.0833,-969.558 L 10.4619,-969.461 L 10.8254,-969.317
 L 11.168,-969.128 L 11.4842,-968.899 L 11.7692,-968.631 L 12.0184,-968.33 L 12.2279,-968 L 12.3943,-967.646
 L 12.5151,-967.274 L 12.5884,-966.89 L 12.6129,-966.5 L 12.6129,-707.5 L 12.5884,-707.11 L 12.5151,-706.726
 L 12.3943,-706.354 L 12.2279,-706 L 12.0184,-705.67 L 11.7692,-705.369 L 11.4842,-705.101 L 11.168,-704.872
 L 10.8254,-704.683 L 10.4619,-704.539 L 10.0833,-704.442 L 9.69545,-704.393 z
M 10.9369,-423.089 L 11.5451,-423.245 L 12.1289,-423.476 L 12.6791,-423.778 L 13.1871,-424.147 L 13.6448,-424.577
 L 14.0451,-425.061 L 14.3815,-425.591 L 14.6489,-426.159 L 14.8429,-426.757 L 14.9606,-427.373 L 15,-428
 L 15,-688 L 14.9606,-688.627 L 14.8429,-689.243 L 14.6489,-689.841 L 14.3815,-690.409 L 14.0451,-690.939
 L 13.6448,-691.423 L 13.1871,-691.853 L 12.6791,-692.222 L 12.1289,-692.524 L 11.5451,-692.755 L 10.9369,-692.911
 L 10.3139,-692.99 L -10.3139,-692.99 L -10.9369,-692.911 L -11.5451,-692.755 L -12.1289,-692.524 L -12.6791,-692.222
 L -13.1871,-691.853 L -13.6448,-691.423 L -14.0451,-690.939 L -14.3815,-690.409 L -14.6489,-689.841 L -14.8429,-689.243
 L -14.9606,-688.627 L -15,-688 L -15,-428 L -14.9606,-427.373 L -14.8429,-426.757 L -14.6489,-426.159
 L -14.3815,-425.591 L -14.0451,-425.061 L -13.6448,-424.577 L -13.1871,-424.147 L -12.6791,-423.778 L -12.1289,-423.476
 L -11.5451,-423.245 L -10.9369,-423.089 L -10.3139,-423.01 L 10.3139,-423.01 z
M 7.36592,-683.369 L 7.09988,-683.403 L 6.84015,-683.469 L 6.59084,-683.568 L 6.35585,-683.697 L 6.1389,-683.855
 L 5.94344,-684.038 L 5.77251,-684.245 L 5.62881,-684.471 L 5.51465,-684.714 L 5.43178,-684.969 L 5.38153,-685.232
 L 5.3647,-685.5 L 5.38153,-685.768 L 5.43178,-686.031 L 5.51465,-686.286 L 5.62881,-686.529 L 5.77251,-686.755
 L 5.94344,-686.962 L 6.1389,-687.145 L 6.35585,-687.303 L 6.59084,-687.432 L 6.84015,-687.531 L 7.09988,-687.597
 L 7.36592,-687.631 L 7.63406,-687.631 L 7.9001,-687.597 L 8.15984,-687.531 L 8.40915,-687.432 L 8.64413,-687.303
 L 8.86108,-687.145 L 9.05655,-686.962 L 9.22748,-686.755 L 9.37117,-686.529 L 9.48534,-686.286 L 9.56821,-686.031
 L 9.61845,-685.768 L 9.63528,-685.5 L 9.61845,-685.232 L 9.56821,-684.969 L 9.48534,-684.714 L 9.37117,-684.471
 L 9.22748,-684.245 L 9.05655,-684.038 L 8.86108,-683.855 L 8.64413,-683.697 L 8.40915,-683.568 L 8.15984,-683.469
 L 7.9001,-683.403 L 7.63406,-683.369 z
M -7.63406,-683.369 L -7.9001,-683.403 L -8.15984,-683.469 L -8.40915,-683.568 L -8.64413,-683.697 L -8.86108,-683.855
 L -9.05655,-684.038 L -9.22748,-684.245 L -9.37117,-684.471 L -9.48534,-684.714 L -9.56821,-684.969 L -9.61845,-685.232
 L -9.63528,-685.5 L -9.61845,-685.768 L -9.56821,-686.031 L -9.48534,-686.286 L -9.37117,-686.529 L -9.22748,-686.755
 L -9.05655,-686.962 L -8.86108,-687.145 L -8.64413,-687.303 L -8.40915,-687.432 L -8.15984,-687.531 L -7.9001,-687.597
 L -7.63406,-687.631 L -7.36592,-687.631 L -7.09988,-687.597 L -6.84015,-687.531 L -6.59084,-687.432 L -6.35585,-687.303
 L -6.1389,-687.145 L -5.94344,-686.962 L -5.77251,-686.755 L -5.62881,-686.529 L -5.51465,-686.286 L -5.43178,-686.031
 L -5.38153,-685.768 L -5.3647,-685.5 L -5.38153,-685.232 L -5.43178,-684.969 L -5.51465,-684.714 L -5.62881,-684.471
 L -5.77251,-684.245 L -5.94344,-684.038 L -6.1389,-683.855 L -6.35585,-683.697 L -6.59084,-683.568 L -6.84015,-683.469
 L -7.09988,-683.403 L -7.36592,-683.369 z
M 7.36592,-428.369 L 7.09988,-428.403 L 6.84015,-428.469 L 6.59084,-428.568 L 6.35585,-428.697 L 6.1389,-428.855
 L 5.94344,-429.038 L 5.77251,-429.245 L 5.62881,-429.471 L 5.51465,-429.714 L 5.43178,-429.969 L 5.38153,-430.232
 L 5.3647,-430.5 L 5.38153,-430.768 L 5.43178,-431.031 L 5.51465,-431.286 L 5.62881,-431.529 L 5.77251,-431.755
 L 5.94344,-431.962 L 6.1389,-432.145 L 6.35585,-432.303 L 6.59084,-432.432 L 6.84015,-432.531 L 7.09988,-432.597
 L 7.36592,-432.631 L 7.63406,-432.631 L 7.9001,-432.597 L 8.15984,-432.531 L 8.40915,-432.432 L 8.64413,-432.303
 L 8.86108,-432.145 L 9.05655,-431.962 L 9.22748,-431.755 L 9.37117,-431.529 L 9.48534,-431.286 L 9.56821,-431.031
 L 9.61845,-430.768 L 9.63528,-430.5 L 9.61845,-430.232 L 9.56821,-429.969 L 9.48534,-429.714 L 9.37117,-429.471
 L 9.22748,-429.245 L 9.05655,-429.038 L 8.86108,-428.855 L 8.64413,-428.697 L 8.40915,-428.568 L 8.15984,-428.469
 L 7.9001,-428.403 L 7.63406,-428.369 z
M -7.63406,-428.369 L -7.9001,-428.403 L -8.15984,-428.469 L -8.40915,-428.568 L -8.64413,-428.697 L -8.86108,-428.855
 L -9.05655,-429.038 L -9.22748,-429.245 L -9.37117,-429.471 L -9.48534,-429.714 L -9.56821,-429.969 L -9.61845,-430.232
 L -9.63528,-430.5 L -9.61845,-430.768 L -9.56821,-431.031 L -9.48534,-431.286 L -9.37117,-431.529 L -9.22748,-431.755
 L -9.05655,-431.962 L -8.86108,-432.145 L -8.64413,-432.303 L -8.40915,-432.432 L -8.15984,-432.531 L -7.9001,-432.597
 L -7.63406,-432.631 L -7.36592,-432.631 L -7.09988,-432.597 L -6.84015,-432.531 L -6.59084,-432.432 L -6.35585,-432.303
 L -6.1389,-432.145 L -5.94344,-431.962 L -5.77251,-431.755 L -5.62881,-431.529 L -5.51465,-431.286 L -5.43178,-431.031
 L -5.38153,-430.768 L -5.3647,-430.5 L -5.38153,-430.232 L -5.43178,-429.969 L -5.51465,-429.714 L -5.62881,-429.471
 L -5.77251,-429.245 L -5.94344,-429.038 L -6.1389,-428.855 L -6.35585,-428.697 L -6.59084,-428.568 L -6.84015,-428.469
 L -7.09988,-428.403 L -7.36592,-428.369 z
" stroke="black" fill="lightgray" stroke-width="0.5"/>
</svg>
