<?xml version="1.0" standalone="no"?>
<!DOCTYPE svg PUBLIC "-//W3C//DTD SVG 1.1//EN" "http://www.w3.org/Graphics/SVG/1.1/DTD/svg11.dtd">
<svg width="24mm" height="1432mm" viewBox="-12 -2804 24 1432" xmlns="http://www.w3.org/2000/svg" version="1.1">
<title>OpenSCAD Model</title>
<path d="
M 7.1869,-2668.59 L 7.79507,-2668.74 L 8.37889,-2668.98 L 8.92912,-2669.28 L 9.43712,-2669.65 L 9.89484,-2670.08
 L 10.2951,-2670.56 L 10.6315,-2671.09 L 10.8989,-2671.66 L 11.0929,-2672.26 L 11.2106,-2672.87 L 11.25,-2673.5
 L 11.25,-2798.5 L 11.2106,-2799.13 L 11.0929,-2799.74 L 10.8989,-2800.34 L 10.6315,-2800.91 L 10.2951,-2801.44
 L 9.89484,-2801.92 L 9.43712,-2802.35 L 8.92912,-2802.72 L 8.37889,-2803.02 L 7.79507,-2803.26 L 7.1869,-2803.41
 L 6.56395,-2803.49 L -6.56395,-2803.49 L -7.1869,-2803.41 L -7.79507,-2803.26 L -8.37889,-2803.02 L -8.92912,-2802.72
 L -9.43712,-2802.35 L -9.89484,-2801.92 L -10.2951,-2801.44 L -10.6315,-2800.91 L -10.8989,-2800.34 L -11.0929,-2799.74
 L -11.2106,-2799.13 L -11.25,-2798.5 L -11.25,-2673.5 L -11.2106,-2672.87 L -11.0929,-2672.26 L -10.8989,-2671.66
 L -10.6315,-2671.09 L -10.2951,-2670.56 L -9.89484,-2670.08 L -9.43712,-2669.65 L -8.92912,-2669.28 L -8.37889,-2668.98
 L -7.79507,-2668.74 L -7.1869,-2668.59 L -6.56395,-2668.51 L 6.56395,-2668.51 z
M -6.00116,-2670.01 L -6.49951,-2670.07 L -6.98605,-2670.2 L -7.45311,-2670.38 L -7.8933,-2670.62 L -8.29968,-2670.92
 L -8.66586,-2671.26 L -8.98605,-2671.65 L -9.25522,-2672.07 L -9.4691,-2672.53 L -9.62433,-2673.01 L -9.71844,-2673.5
 L -9.75,-2674 L -9.75,-2798 L -9.71844,-2798.5 L -9.62433,-2798.99 L -9.4691,-2799.47 L -9.25522,-2799.93
 L -8.98605,-2800.35 L -8.66586,-2800.74 L -8.29968,-2801.08 L -7.8933,-2801.38 L -7.45311,-2801.62 L -6.98605,-2801.8
 L -6.49951,-2801.93 L -6.00116,-2801.99 L 6.00116,-2801.99 L 6.49951,-2801.93 L 6.98605,-2801.8 L 7.45311,-2801.62
 L 7.8933,-2801.38 L 8.29968,-2801.08 L 8.66586,-2800.74 L 8.98605,-2800.35 L 9.25522,-2799.93 L 9.4691,-2799.47
 L 9.62433,-2798.99 L 9.71844,-2798.5 L 9.75,-2798 L 9.75,-2674 L 9.71844,-2673.5 L 9.62433,-2673.01
 L 9.4691,-2672.53 L 9.25522,-2672.07 L 8.98605,-2671.65 L 8.66586,-2671.26 L 8.29968,-2670.92 L 7.8933,-2670.62
 L 7.45311,-2670.38 L 6.98605,-2670.2 L 6.49951,-2670.07 L 6.00116,-2670.01 z
M 7.1869,-2524.59 L 7.79507,-2524.74 L 8.37889,-2524.98 L 8.92912,-2525.28 L 9.43712,-2525.65 L 9.89484,-2526.08
 L 10.2951,-2526.56 L 10.6315,-2527.09 L 10.8989,-2527.66 L 11.0929,-2528.26 L 11.2106,-2528.87 L 11.25,-2529.5
 L 11.25,-2654.5 L 11.2106,-2655.13 L 11.0929,-2655.74 L 10.8989,-2656.34 L 10.6315,-2656.91 L 10.2951,-2657.44
 L 9.89484,-2657.92 L 9.43712,-2658.35 L 8.92912,-2658.72 L 8.37889,-2659.02 L 7.79507,-2659.26 L 7.1869,-2659.41
 L 6.56395,-2659.49 L -6.56395,-2659.49 L -7.1869,-2659.41 L -7.79507,-2659.26 L -8.37889,-2659.02 L -8.92912,-2658.72
 L -9.43712,-2658.35 L -9.89484,-2657.92 L -10.2951,-2657.44 L -10.6315,-2656.91 L -10.8989,-2656.34 L -11.0929,-2655.74
 L -11.2106,-2655.13 L -11.25,-2654.5 L -11.25,-2529.5 L -11.2106,-2528.87 L -11.0929,-2528.26 L -10.8989,-2527.66
 L -10.6315,-2527.09 L -10.2951,-2526.56 L -9.89484,-2526.08 L -9.43712,-2525.65 L -8.92912,-2525.28 L -8.37889,-2524.98
 L -7.79507,-2524.74 L -7.1869,-2524.59 L -6.56395,-2524.51 L 6.56395,-2524.51 z
M -6.00116,-2526.01 L -6.49951,-2526.07 L -6.98605,-2526.2 L -7.45311,-2526.38 L -7.8933,-2526.62 L -8.29968,-2526.92
 L -8.66586,-2527.26 L -8.98605,-2527.65 L -9.25522,-2528.07 L -9.4691,-2528.53 L -9.62433,-2529.01 L -9.71844,-2529.5
 L -9.75,-2530 L -9.75,-2654 L -9.71844,-2654.5 L -9.62433,-2654.99 L -9.4691,-2655.47 L -9.25522,-2655.93
 L -8.98605,-2656.35 L -8.66586,-2656.74 L -8.29968,-2657.08 L -7.8933,-2657.38 L -7.45311,-2657.62 L -6.98605,-2657.8
 L -6.49951,-2657.93 L -6.00116,-2657.99 L 6.00116,-2657.99 L 6.49951,-2657.93 L 6.98605,-2657.8 L 7.45311,-2657.62
 L 7.8933,-2657.38 L 8.29968,-2657.08 L 8.66586,-2656.74 L 8.98605,-2656.35 L 9.25522,-2655.93 L 9.4691,-2655.47
 L 9.62433,-2654.99 L 9.71844,-2654.5 L 9.75,-2654 L 9.75,-2530 L 9.71844,-2529.5 L 9.62433,-2529.01
 L 9.4691,-2528.53 L 9.25522,-2528.07 L 8.98605,-2527.65 L 8.66586,-2527.26 L 8.29968,-2526.92 L 7.8933,-2526.62
 L 7.45311,-2526.38 L 6.98605,-2526.2 L 6.49951,-2526.07 L 6.00116,-2526.01 z
M 7.1869,-2380.59 L 7.79507,-2380.74 L 8.37889,-2380.98 L 8.92912,-2381.28 L 9.43712,-2381.65 L 9.89484,-2382.08
 L 10.2951,-2382.56 L 10.6315,-2383.09 L 10.8989,-2383.66 L 11.0929,-2384.26 L 11.2106,-2384.87 L 11.25,-2385.5
 L 11.25,-2510.5 L 11.2106,-2511.13 L 11.0929,-2511.74 L 10.8989,-2512.34 L 10.6315,-2512.91 L 10.2951,-2513.44
 L 9.89484,-2513.92 L 9.43712,-2514.35 L 8.92912,-2514.72 L 8.37889,-2515.02 L 7.79507,-2515.26 L 7.1869,-2515.41
 L 6.56395,-2515.49 L -6.56395,-2515.49 L -7.1869,-2515.41 L -7.79507,-2515.26 L -8.37889,-2515.02 L -8.92912,-2514.72
 L -9.43712,-2514.35 L -9.89484,-2513.92 L -10.2951,-2513.44 L -10.6315,-2512.91 L -10.8989,-2512.34 L -11.0929,-2511.74
 L -11.2106,-2511.13 L -11.25,-2510.5 L -11.25,-2385.5 L -11.2106,-2384.87 L -11.0929,-2384.26 L -10.8989,-2383.66
 L -10.6315,-2383.09 L -10.2951,-2382.56 L -9.89484,-2382.08 L -9.43712,-2381.65 L -8.92912,-2381.28 L -8.37889,-2380.98
 L -7.79507,-2380.74 L -7.1869,-2380.59 L -6.56395,-2380.51 L 6.56395,-2380.51 z
M -6.00116,-2382.01 L -6.49951,-2382.07 L -6.98605,-2382.2 L -7.45311,-2382.38 L -7.8933,-2382.62 L -8.29968,-2382.92
 L -8.66586,-2383.26 L -8.98605,-2383.65 L -9.25522,-2384.07 L -9.4691,-2384.53 L -9.62433,-2385.01 L -9.71844,-2385.5
 L -9.75,-2386 L -9.75,-2510 L -9.71844,-2510.5 L -9.62433,-2510.99 L -9.4691,-2511.47 L -9.25522,-2511.93
 L -8.98605,-2512.35 L -8.66586,-2512.74 L -8.29968,-2513.08 L -7.8933,-2513.38 L -7.45311,-2513.62 L -6.98605,-2513.8
 L -6.49951,-2513.93 L -6.00116,-2513.99 L 6.00116,-2513.99 L 6.49951,-2513.93 L 6.98605,-2513.8 L 7.45311,-2513.62
 L 7.8933,-2513.38 L 8.29968,-2513.08 L 8.66586,-2512.74 L 8.98605,-2512.35 L 9.25522,-2511.93 L 9.4691,-2511.47
 L 9.62433,-2510.99 L 9.71844,-2510.5 L 9.75,-2510 L 9.75,-2386 L 9.71844,-2385.5 L 9.62433,-2385.01
 L 9.4691,-2384.53 L 9.25522,-2384.07 L 8.98605,-2383.65 L 8.66586,-2383.26 L 8.29968,-2382.92 L 7.8933,-2382.62
 L 7.45311,-2382.38 L 6.98605,-2382.2 L 6.49951,-2382.07 L 6.00116,-2382.01 z
M 7.1869,-2236.59 L 7.79507,-2236.74 L 8.37889,-2236.98 L 8.92912,-2237.28 L 9.43712,-2237.65 L 9.89484,-2238.08
 L 10.2951,-2238.56 L 10.6315,-2239.09 L 10.8989,-2239.66 L 11.0929,-2240.26 L 11.2106,-2240.87 L 11.25,-2241.5
 L 11.25,-2366.5 L 11.2106,-2367.13 L 11.0929,-2367.74 L 10.8989,-2368.34 L 10.6315,-2368.91 L 10.2951,-2369.44
 L 9.89484,-2369.92 L 9.43712,-2370.35 L 8.92912,-2370.72 L 8.37889,-2371.02 L 7.79507,-2371.26 L 7.1869,-2371.41
 L 6.56395,-2371.49 L -6.56395,-2371.49 L -7.1869,-2371.41 L -7.79507,-2371.26 L -8.37889,-2371.02 L -8.92912,-2370.72
 L -9.43712,-2370.35 L -9.89484,-2369.92 L -10.2951,-2369.44 L -10.6315,-2368.91 L -10.8989,-2368.34 L -11.0929,-2367.74
 L -11.2106,-2367.13 L -11.25,-2366.5 L -11.25,-2241.5 L -11.2106,-2240.87 L -11.0929,-2240.26 L -10.8989,-2239.66
 L -10.6315,-2239.09 L -10.2951,-2238.56 L -9.89484,-2238.08 L -9.43712,-2237.65 L -8.92912,-2237.28 L -8.37889,-2236.98
 L -7.79507,-2236.74 L -7.1869,-2236.59 L -6.56395,-2236.51 L 6.56395,-2236.51 z
M -6.00116,-2238.01 L -6.49951,-2238.07 L -6.98605,-2238.2 L -7.45311,-2238.38 L -7.8933,-2238.62 L -8.29968,-2238.92
 L -8.66586,-2239.26 L -8.98605,-2239.65 L -9.25522,-2240.07 L -9.4691,-2240.53 L -9.62433,-2241.01 L -9.71844,-2241.5
 L -9.75,-2242 L -9.75,-2366 L -9.71844,-2366.5 L -9.62433,-2366.99 L -9.4691,-2367.47 L -9.25522,-2367.93
 L -8.98605,-2368.35 L -8.66586,-2368.74 L -8.29968,-2369.08 L -7.8933,-2369.38 L -7.45311,-2369.62 L -6.98605,-2369.8
 L -6.49951,-2369.93 L -6.00116,-2369.99 L 6.00116,-2369.99 L 6.49951,-2369.93 L 6.98605,-2369.8 L 7.45311,-2369.62
 L 7.8933,-2369.38 L 8.29968,-2369.08 L 8.66586,-2368.74 L 8.98605,-2368.35 L 9.25522,-2367.93 L 9.4691,-2367.47
 L 9.62433,-2366.99 L 9.71844,-2366.5 L 9.75,-2366 L 9.75,-2242 L 9.71844,-2241.5 L 9.62433,-2241.01
 L 9.4691,-2240.53 L 9.25522,-2240.07 L 8.98605,-2239.65 L 8.66586,-2239.26 L 8.29968,-2238.92 L 7.8933,-2238.62
 L 7.45311,-2238.38 L 6.98605,-2238.2 L 6.49951,-2238.07 L 6.00116,-2238.01 z
M 7.1869,-2092.59 L 7.79507,-2092.74 L 8.37889,-2092.98 L 8.92912,-2093.28 L 9.43712,-2093.65 L 9.89484,-2094.08
 L 10.2951,-2094.56 L 10.6315,-2095.09 L 10.8989,-2095.66 L 11.0929,-2096.26 L 11.2106,-2096.87 L 11.25,-2097.5
 L 11.25,-2222.5 L 11.2106,-2223.13 L 11.0929,-2223.74 L 10.8989,-2224.34 L 10.6315,-2224.91 L 10.2951,-2225.44
 L 9.89484,-2225.92 L 9.43712,-2226.35 L 8.92912,-2226.72 L 8.37889,-2227.02 L 7.79507,-2227.26 L 7.1869,-2227.41
 L 6.56395,-2227.49 L -6.56395,-2227.49 L -7.1869,-2227.41 L -7.79507,-2227.26 L -8.37889,-2227.02 L -8.92912,-2226.72
 L -9.43712,-2226.35 L -9.89484,-2225.92 L -10.2951,-2225.44 L -10.6315,-2224.91 L -10.8989,-2224.34 L -11.0929,-2223.74
 L -11.2106,-2223.13 L -11.25,-2222.5 L -11.25,-2097.5 L -11.2106,-2096.87 L -11.0929,-2096.26 L -10.8989,-2095.66
 L -10.6315,-2095.09 L -10.2951,-2094.56 L -9.89484,-2094.08 L -9.43712,-2093.65 L -8.92912,-2093.28 L -8.37889,-2092.98
 L -7.79507,-2092.74 L -7.1869,-2092.59 L -6.56395,-2092.51 L 6.56395,-2092.51 z
M -6.00116,-2094.01 L -6.49951,-2094.07 L -6.98605,-2094.2 L -7.45311,-2094.38 L -7.8933,-2094.62 L -8.29968,-2094.92
 L -8.66586,-2095.26 L -8.98605,-2095.65 L -9.25522,-2096.07 L -9.4691,-2096.53 L -9.62433,-2097.01 L -9.71844,-2097.5
 L -9.75,-2098 L -9.75,-2222 L -9.71844,-2222.5 L -9.62433,-2222.99 L -9.4691,-2223.47 L -9.25522,-2223.93
 L -8.98605,-2224.35 L -8.66586,-2224.74 L -8.29968,-2225.08 L -7.8933,-2225.38 L -7.45311,-2225.62 L -6.98605,-2225.8
 L -6.49951,-2225.93 L -6.00116,-2225.99 L 6.00116,-2225.99 L 6.49951,-2225.93 L 6.98605,-2225.8 L 7.45311,-2225.62
 L 7.8933,-2225.38 L 8.29968,-2225.08 L 8.66586,-2224.74 L 8.98605,-2224.35 L 9.25522,-2223.93 L 9.4691,-2223.47
 L 9.62433,-2222.99 L 9.71844,-2222.5 L 9.75,-2222 L 9.75,-2098 L 9.71844,-2097.5 L 9.62433,-2097.01
 L 9.4691,-2096.53 L 9.25522,-2096.07 L 8.98605,-2095.65 L 8.66586,-2095.26 L 8.29968,-2094.92 L 7.8933,-2094.62
 L 7.45311,-2094.38 L 6.98605,-2094.2 L 6.49951,-2094.07 L 6.00116,-2094.01 z
M 7.1869,-1948.59 L 7.79507,-1948.74 L 8.37889,-1948.98 L 8.92912,-1949.28 L 9.43712,-1949.65 L 9.89484,-1950.08
 L 10.2951,-1950.56 L 10.6315,-1951.09 L 10.8989,-1951.66 L 11.0929,-1952.26 L 11.2106,-1952.87 L 11.25,-1953.5
 L 11.25,-2078.5 L 11.2106,-2079.13 L 11.0929,-2079.74 L 10.8989,-2080.34 L 10.6315,-2080.91 L 10.2951,-2081.44
 L 9.89484,-2081.92 L 9.43712,-2082.35 L 8.92912,-2082.72 L 8.37889,-2083.02 L 7.79507,-2083.26 L 7.1869,-2083.41
 L 6.56395,-2083.49 L -6.56395,-2083.49 L -7.1869,-2083.41 L -7.79507,-2083.26 L -8.37889,-2083.02 L -8.92912,-2082.72
 L -9.43712,-2082.35 L -9.89484,-2081.92 L -10.2951,-2081.44 L -10.6315,-2080.91 L -10.8989,-2080.34 L -11.0929,-2079.74
 L -11.2106,-2079.13 L -11.25,-2078.5 L -11.25,-1953.5 L -11.2106,-1952.87 L -11.0929,-1952.26 L -10.8989,-1951.66
 L -10.6315,-1951.09 L -10.2951,-1950.56 L -9.89484,-1950.08 L -9.43712,-1949.65 L -8.92912,-1949.28 L -8.37889,-1948.98
 L -7.79507,-1948.74 L -7.1869,-1948.59 L -6.56395,-1948.51 L 6.56395,-1948.51 z
M -6.00116,-1950.01 L -6.49951,-1950.07 L -6.98605,-1950.2 L -7.45311,-1950.38 L -7.8933,-1950.62 L -8.29968,-1950.92
 L -8.66586,-1951.26 L -8.98605,-1951.65 L -9.25522,-1952.07 L -9.4691,-1952.53 L -9.62433,-1953.01 L -9.71844,-1953.5
 L -9.75,-1954 L -9.75,-2078 L -9.71844,-2078.5 L -9.62433,-2078.99 L -9.4691,-2079.47 L -9.25522,-2079.93
 L -8.98605,-2080.35 L -8.66586,-2080.74 L -8.29968,-2081.08 L -7.8933,-2081.38 L -7.45311,-2081.62 L -6.98605,-2081.8
 L -6.49951,-2081.93 L -6.00116,-2081.99 L 6.00116,-2081.99 L 6.49951,-2081.93 L 6.98605,-2081.8 L 7.45311,-2081.62
 L 7.8933,-2081.38 L 8.29968,-2081.08 L 8.66586,-2080.74 L 8.98605,-2080.35 L 9.25522,-2079.93 L 9.4691,-2079.47
 L 9.62433,-2078.99 L 9.71844,-2078.5 L 9.75,-2078 L 9.75,-1954 L 9.71844,-1953.5 L 9.62433,-1953.01
 L 9.4691,-1952.53 L 9.25522,-1952.07 L 8.98605,-1951.65 L 8.66586,-1951.26 L 8.29968,-1950.92 L 7.8933,-1950.62
 L 7.45311,-1950.38 L 6.98605,-1950.2 L 6.49951,-1950.07 L 6.00116,-1950.01 z
M 7.1869,-1804.59 L 7.79507,-1804.74 L 8.37889,-1804.98 L 8.92912,-1805.28 L 9.43712,-1805.65 L 9.89484,-1806.08
 L 10.2951,-1806.56 L 10.6315,-1807.09 L 10.8989,-1807.66 L 11.0929,-1808.26 L 11.2106,-1808.87 L 11.25,-1809.5
 L 11.25,-1934.5 L 11.2106,-1935.13 L 11.0929,-1935.74 L 10.8989,-1936.34 L 10.6315,-1936.91 L 10.2951,-1937.44
 L 9.89484,-1937.92 L 9.43712,-1938.35 L 8.92912,-1938.72 L 8.37889,-1939.02 L 7.79507,-1939.26 L 7.1869,-1939.41
 L 6.56395,-1939.49 L -6.56395,-1939.49 L -7.1869,-1939.41 L -7.79507,-1939.26 L -8.37889,-1939.02 L -8.92912,-1938.72
 L -9.43712,-1938.35 L -9.89484,-1937.92 L -10.2951,-1937.44 L -10.6315,-1936.91 L -10.8989,-1936.34 L -11.0929,-1935.74
 L -11.2106,-1935.13 L -11.25,-1934.5 L -11.25,-1809.5 L -11.2106,-1808.87 L -11.0929,-1808.26 L -10.8989,-1807.66
 L -10.6315,-1807.09 L -10.2951,-1806.56 L -9.89484,-1806.08 L -9.43712,-1805.65 L -8.92912,-1805.28 L -8.37889,-1804.98
 L -7.79507,-1804.74 L -7.1869,-1804.59 L -6.56395,-1804.51 L 6.56395,-1804.51 z
M -6.00116,-1806.01 L -6.49951,-1806.07 L -6.98605,-1806.2 L -7.45311,-1806.38 L -7.8933,-1806.62 L -8.29968,-1806.92
 L -8.66586,-1807.26 L -8.98605,-1807.65 L -9.25522,-1808.07 L -9.4691,-1808.53 L -9.62433,-1809.01 L -9.71844,-1809.5
 L -9.75,-1810 L -9.75,-1934 L -9.71844,-1934.5 L -9.62433,-1934.99 L -9.4691,-1935.47 L -9.25522,-1935.93
 L -8.98605,-1936.35 L -8.66586,-1936.74 L -8.29968,-1937.08 L -7.8933,-1937.38 L -7.45311,-1937.62 L -6.98605,-1937.8
 L -6.49951,-1937.93 L -6.00116,-1937.99 L 6.00116,-1937.99 L 6.49951,-1937.93 L 6.98605,-1937.8 L 7.45311,-1937.62
 L 7.8933,-1937.38 L 8.29968,-1937.08 L 8.66586,-1936.74 L 8.98605,-1936.35 L 9.25522,-1935.93 L 9.4691,-1935.47
 L 9.62433,-1934.99 L 9.71844,-1934.5 L 9.75,-1934 L 9.75,-1810 L 9.71844,-1809.5 L 9.62433,-1809.01
 L 9.4691,-1808.53 L 9.25522,-1808.07 L 8.98605,-1807.65 L 8.66586,-1807.26 L 8.29968,-1806.92 L 7.8933,-1806.62
 L 7.45311,-1806.38 L 6.98605,-1806.2 L 6.49951,-1806.07 L 6.00116,-1806.01 z
M 7.1869,-1660.59 L 7.79507,-1660.74 L 8.37889,-1660.98 L 8.92912,-1661.28 L 9.43712,-1661.65 L 9.89484,-1662.08
 L 10.2951,-1662.56 L 10.6315,-1663.09 L 10.8989,-1663.66 L 11.0929,-1664.26 L 11.2106,-1664.87 L 11.25,-1665.5
 L 11.25,-1790.5 L 11.2106,-1791.13 L 11.0929,-1791.74 L 10.8989,-1792.34 L 10.6315,-1792.91 L 10.2951,-1793.44
 L 9.89484,-1793.92 L 9.43712,-1794.35 L 8.92912,-1794.72 L 8.37889,-1795.02 L 7.79507,-1795.26 L 7.1869,-1795.41
 L 6.56395,-1795.49 L -6.56395,-1795.49 L -7.1869,-1795.41 L -7.79507,-1795.26 L -8.37889,-1795.02 L -8.92912,-1794.72
 L -9.43712,-1794.35 L -9.89484,-1793.92 L -10.2951,-1793.44 L -10.6315,-1792.91 L -10.8989,-1792.34 L -11.0929,-1791.74
 L -11.2106,-1791.13 L -11.25,-1790.5 L -11.25,-1665.5 L -11.2106,-1664.87 L -11.0929,-1664.26 L -10.8989,-1663.66
 L -10.6315,-1663.09 L -10.2951,-1662.56 L -9.89484,-1662.08 L -9.43712,-1661.65 L -8.92912,-1661.28 L -8.37889,-1660.98
 L -7.79507,-1660.74 L -7.1869,-1660.59 L -6.56395,-1660.51 L 6.56395,-1660.51 z
M -6.00116,-1662.01 L -6.49951,-1662.07 L -6.98605,-1662.2 L -7.45311,-1662.38 L -7.8933,-1662.62 L -8.29968,-1662.92
 L -8.66586,-1663.26 L -8.98605,-1663.65 L -9.25522,-1664.07 L -9.4691,-1664.53 L -9.62433,-1665.01 L -9.71844,-1665.5
 L -9.75,-1666 L -9.75,-1790 L -9.71844,-1790.5 L -9.62433,-1790.99 L -9.4691,-1791.47 L -9.25522,-1791.93
 L -8.98605,-1792.35 L -8.66586,-1792.74 L -8.29968,-1793.08 L -7.8933,-1793.38 L -7.45311,-1793.62 L -6.98605,-1793.8
 L -6.49951,-1793.93 L -6.00116,-1793.99 L 6.00116,-1793.99 L 6.49951,-1793.93 L 6.98605,-1793.8 L 7.45311,-1793.62
 L 7.8933,-1793.38 L 8.29968,-1793.08 L 8.66586,-1792.74 L 8.98605,-1792.35 L 9.25522,-1791.93 L 9.4691,-1791.47
 L 9.62433,-1790.99 L 9.71844,-1790.5 L 9.75,-1790 L 9.75,-1666 L 9.71844,-1665.5 L 9.62433,-1665.01
 L 9.4691,-1664.53 L 9.25522,-1664.07 L 8.98605,-1663.65 L 8.66586,-1663.26 L 8.29968,-1662.92 L 7.8933,-1662.62
 L 7.45311,-1662.38 L 6.98605,-1662.2 L 6.49951,-1662.07 L 6.00116,-1662.01 z
M 7.1869,-1516.59 L 7.79507,-1516.74 L 8.37889,-1516.98 L 8.92912,-1517.28 L 9.43712,-1517.65 L 9.89484,-1518.08
 L 10.2951,-1518.56 L 10.6315,-1519.09 L 10.8989,-1519.66 L 11.0929,-1520.26 L 11.2106,-1520.87 L 11.25,-1521.5
 L 11.25,-1646.5 L 11.2106,-1647.13 L 11.0929,-1647.74 L 10.8989,-1648.34 L 10.6315,-1648.91 L 10.2951,-1649.44
 L 9.89484,-1649.92 L 9.43712,-1650.35 L 8.92912,-1650.72 L 8.37889,-1651.02 L 7.79507,-1651.26 L 7.1869,-1651.41
 L 6.56395,-1651.49 L -6.56395,-1651.49 L -7.1869,-1651.41 L -7.79507,-1651.26 L -8.37889,-1651.02 L -8.92912,-1650.72
 L -9.43712,-1650.35 L -9.89484,-1649.92 L -10.2951,-1649.44 L -10.6315,-1648.91 L -10.8989,-1648.34 L -11.0929,-1647.74
 L -11.2106,-1647.13 L -11.25,-1646.5 L -11.25,-1521.5 L -11.2106,-1520.87 L -11.0929,-1520.26 L -10.8989,-1519.66
 L -10.6315,-1519.09 L -10.2951,-1518.56 L -9.89484,-1518.08 L -9.43712,-1517.65 L -8.92912,-1517.28 L -8.37889,-1516.98
 L -7.79507,-1516.74 L -7.1869,-1516.59 L -6.56395,-1516.51 L 6.56395,-1516.51 z
M -5.94545,-1518.89 L -6.3333,-1518.94 L -6.71194,-1519.04 L -7.07541,-1519.18 L -7.41798,-1519.37 L -7.73424,-1519.6
 L -8.01921,-1519.87 L -8.2684,-1520.17 L -8.47786,-1520.5 L -8.64432,-1520.85 L -8.76512,-1521.23 L -8.83836,-1521.61
 L -8.86292,-1522 L -8.86292,-1646 L -8.83836,-1646.39 L -8.76512,-1646.77 L -8.64432,-1647.15 L -8.47786,-1647.5
 L -8.2684,-1647.83 L -8.01921,-1648.13 L -7.73424,-1648.4 L -7.41798,-1648.63 L -7.07541,-1648.82 L -6.71194,-1648.96
 L -6.3333,-1649.06 L -5.94545,-1649.11 L 5.94545,-1649.11 L 6.3333,-1649.06 L 6.71194,-1648.96 L 7.07541,-1648.82
 L 7.41798,-1648.63 L 7.73424,-1648.4 L 8.01921,-1648.13 L 8.2684,-1647.83 L 8.47786,-1647.5 L 8.64432,-1647.15
 L 8.76512,-1646.77 L 8.83836,-1646.39 L 8.86292,-1646 L 8.86292,-1522 L 8.83836,-1521.61 L 8.76512,-1521.23
 L 8.64432,-1520.85 L 8.47786,-1520.5 L 8.2684,-1520.17 L 8.01921,-1519.87 L 7.73424,-1519.6 L 7.41798,-1519.37
 L 7.07541,-1519.18 L 6.71194,-1519.04 L 6.3333,-1518.94 L 5.94545,-1518.89 z
M 7.1869,-1372.59 L 7.79507,-1372.74 L 8.37889,-1372.98 L 8.92912,-1373.28 L 9.43712,-1373.65 L 9.89484,-1374.08
 L 10.2951,-1374.56 L 10.6315,-1375.09 L 10.8989,-1375.66 L 11.0929,-1376.26 L 11.2106,-1376.87 L 11.25,-1377.5
 L 11.25,-1502.5 L 11.2106,-1503.13 L 11.0929,-1503.74 L 10.8989,-1504.34 L 10.6315,-1504.91 L 10.2951,-1505.44
 L 9.89484,-1505.92 L 9.43712,-1506.35 L 8.92912,-1506.72 L 8.37889,-1507.02 L 7.79507,-1507.26 L 7.1869,-1507.41
 L 6.56395,-1507.49 L -6.56395,-1507.49 L -7.1869,-1507.41 L -7.79507,-1507.26 L -8.37889,-1507.02 L -8.92912,-1506.72
 L -9.43712,-1506.35 L -9.89484,-1505.92 L -10.2951,-1505.44 L -10.6315,-1504.91 L -10.8989,-1504.34 L -11.0929,-1503.74
 L -11.2106,-1503.13 L -11.25,-1502.5 L -11.25,-1377.5 L -11.2106,-1376.87 L -11.0929,-1376.26 L -10.8989,-1375.66
 L -10.6315,-1375.09 L -10.2951,-1374.56 L -9.89484,-1374.08 L -9.43712,-1373.65 L -8.92912,-1373.28 L -8.37889,-1372.98
 L -7.79507,-1372.74 L -7.1869,-1372.59 L -6.56395,-1372.51 L 6.56395,-1372.51 z
M -3.88406,-1497.87 L -4.1501,-1497.9 L -4.40984,-1497.97 L -4.65915,-1498.07 L -4.89413,-1498.2 L -5.11108,-1498.35
 L -5.30655,-1498.54 L -5.47748,-1498.74 L -5.62117,-1498.97 L -5.73534,-1499.21 L -5.81821,-1499.47 L -5.86845,-1499.73
 L -5.88528,-1500 L -5.86845,-1500.27 L -5.81821,-1500.53 L -5.73534,-1500.79 L -5.62117,-1501.03 L -5.47748,-1501.26
 L -5.30655,-1501.46 L -5.11108,-1501.65 L -4.89413,-1501.8 L -4.65915,-1501.93 L -4.40984,-1502.03 L -4.1501,-1502.1
 L -3.88406,-1502.13 L -3.61592,-1502.13 L -3.34988,-1502.1 L -3.09015,-1502.03 L -2.84084,-1501.93 L -2.60585,-1501.8
 L -2.3889,-1501.65 L -2.19344,-1501.46 L -2.02251,-1501.26 L -1.87881,-1501.03 L -1.76465,-1500.79 L -1.68178,-1500.53
 L -1.63153,-1500.27 L -1.6147,-1500 L -1.63153,-1499.73 L -1.68178,-1499.47 L -1.76465,-1499.21 L -1.87881,-1498.97
 L -2.02251,-1498.74 L -2.19344,-1498.54 L -2.3889,-1498.35 L -2.60585,-1498.2 L -2.84084,-1498.07 L -3.09015,-1497.97
 L -3.34988,-1497.9 L -3.61592,-1497.87 z
M 3.61592,-1497.87 L 3.34988,-1497.9 L 3.09015,-1497.97 L 2.84084,-1498.07 L 2.60585,-1498.2 L 2.3889,-1498.35
 L 2.19344,-1498.54 L 2.02251,-1498.74 L 1.87881,-1498.97 L 1.76465,-1499.21 L 1.68178,-1499.47 L 1.63153,-1499.73
 L 1.6147,-1500 L 1.63153,-1500.27 L 1.68178,-1500.53 L 1.76465,-1500.79 L 1.87881,-1501.03 L 2.02251,-1501.26
 L 2.19344,-1501.46 L 2.3889,-1501.65 L 2.60585,-1501.8 L 2.84084,-1501.93 L 3.09015,-1502.03 L 3.34988,-1502.1
 L 3.61592,-1502.13 L 3.88406,-1502.13 L 4.1501,-1502.1 L 4.40984,-1502.03 L 4.65915,-1501.93 L 4.89413,-1501.8
 L 5.11108,-1501.65 L 5.30655,-1501.46 L 5.47748,-1501.26 L 5.62117,-1501.03 L 5.73534,-1500.79 L 5.81821,-1500.53
 L 5.86845,-1500.27 L 5.88528,-1500 L 5.86845,-1499.73 L 5.81821,-1499.47 L 5.73534,-1499.21 L 5.62117,-1498.97
 L 5.47748,-1498.74 L 5.30655,-1498.54 L 5.11108,-1498.35 L 4.89413,-1498.2 L 4.65915,-1498.07 L 4.40984,-1497.97
 L 4.1501,-1497.9 L 3.88406,-1497.87 z
M -3.88406,-1377.87 L -4.1501,-1377.9 L -4.40984,-1377.97 L -4.65915,-1378.07 L -4.89413,-1378.2 L -5.11108,-1378.35
 L -5.30655,-1378.54 L -5.47748,-1378.74 L -5.62117,-1378.97 L -5.73534,-1379.21 L -5.81821,-1379.47 L -5.86845,-1379.73
 L -5.88528,-1380 L -5.86845,-1380.27 L -5.81821,-1380.53 L -5.73534,-1380.79 L -5.62117,-1381.03 L -5.47748,-1381.26
 L -5.30655,-1381.46 L -5.11108,-1381.65 L -4.89413,-1381.8 L -4.65915,-1381.93 L -4.40984,-1382.03 L -4.1501,-1382.1
 L -3.88406,-1382.13 L -3.61592,-1382.13 L -3.34988,-1382.1 L -3.09015,-1382.03 L -2.84084,-1381.93 L -2.60585,-1381.8
 L -2.3889,-1381.65 L -2.19344,-1381.46 L -2.02251,-1381.26 L -1.87881,-1381.03 L -1.76465,-1380.79 L -1.68178,-1380.53
 L -1.63153,-1380.27 L -1.6147,-1380 L -1.63153,-1379.73 L -1.68178,-1379.47 L -1.76465,-1379.21 L -1.87881,-1378.97
 L -2.02251,-1378.74 L -2.19344,-1378.54 L -2.3889,-1378.35 L -2.60585,-1378.2 L -2.84084,-1378.07 L -3.09015,-1377.97
 L -3.34988,-1377.9 L -3.61592,-1377.87 z
M 3.61592,-1377.87 L 3.34988,-1377.9 L 3.09015,-1377.97 L 2.84084,-1378.07 L 2.60585,-1378.2 L 2.3889,-1378.35
 L 2.19344,-1378.54 L 2.02251,-1378.74 L 1.87881,-1378.97 L 1.76465,-1379.21 L 1.68178,-1379.47 L 1.63153,-1379.73
 L 1.6147,-1380 L 1.63153,-1380.27 L 1.68178,-1380.53 L 1.76465,-1380.79 L 1.87881,-1381.03 L 2.02251,-1381.26
 L 2.19344,-1381.46 L 2.3889,-1381.65 L 2.60585,-1381.8 L 2.84084,-1381.93 L 3.09015,-1382.03 L 3.34988,-1382.1
 L 3.61592,-1382.13 L 3.88406,-1382.13 L 4.1501,-1382.1 L 4.40984,-1382.03 L 4.65915,-1381.93 L 4.89413,-1381.8
 L 5.11108,-1381.65 L 5.30655,-1381.46 L 5.47748,-1381.26 L 5.62117,-1381.03 L 5.73534,-1380.79 L 5.81821,-1380.53
 L 5.86845,-1380.27 L 5.88528,-1380 L 5.86845,-1379.73 L 5.81821,-1379.47 L 5.73534,-1379.21 L 5.62117,-1378.97
 L 5.47748,-1378.74 L 5.30655,-1378.54 L 5.11108,-1378.35 L 4.89413,-1378.2 L 4.65915,-1378.07 L 4.40984,-1377.97
 L 4.1501,-1377.9 L 3.88406,-1377.87 z
" stroke="black" fill="lightgray" stroke-width="0.5"/>
</svg>
