<?xml version="1.0" standalone="no"?>
<!DOCTYPE svg PUBLIC "-//W3C//DTD SVG 1.1//EN" "http://www.w3.org/Graphics/SVG/1.1/DTD/svg11.dtd">
<svg width="120mm" height="244mm" viewBox="-60 -374 120 244" xmlns="http://www.w3.org/2000/svg" version="1.1">
<title>OpenSCAD Model</title>
<path d="
M -57,-298.925 L -56.5451,-298.745 L -55.9369,-298.589 L -55.3139,-298.51 L 55.3139,-298.51 L 55.9369,-298.589
 L 56.5451,-298.745 L 57.1289,-298.976 L 57.6791,-299.278 L 58.1871,-299.647 L 58.6448,-300.077 L 59.0451,-300.561
 L 59.3815,-301.091 L 59.6489,-301.659 L 59.8429,-302.257 L 59.9606,-302.873 L 60,-303.5 L 60,-368.5
 L 59.9606,-369.127 L 59.8429,-369.743 L 59.6489,-370.341 L 59.3815,-370.909 L 59.0451,-371.439 L 58.6448,-371.923
 L 58.1871,-372.353 L 57.6791,-372.722 L 57.1289,-373.024 L 56.5451,-373.255 L 55.9369,-373.411 L 55.3139,-373.49
 L -55.3139,-373.49 L -55.9369,-373.411 L -56.5451,-373.255 L -57,-373.075 L -57,-373.49 L -60,-373.49
 L -60,-298.51 L -57,-298.51 z
M -54.7432,-300.135 L -55.2256,-300.196 L -55.6967,-300.317 L -56.1489,-300.496 L -56.5751,-300.73 L -56.9685,-301.016
 L -57.323,-301.349 L -57.633,-301.724 L -57.8936,-302.134 L -58.1007,-302.574 L -58.251,-303.037 L -58.3421,-303.515
 L -58.3726,-304 L -58.3726,-368 L -58.3421,-368.485 L -58.251,-368.963 L -58.1007,-369.426 L -57.8936,-369.866
 L -57.633,-370.276 L -57.323,-370.651 L -56.9685,-370.984 L -56.5751,-371.27 L -56.1489,-371.504 L -55.6967,-371.683
 L -55.2256,-371.804 L -54.7432,-371.865 L 54.7432,-371.865 L 55.2256,-371.804 L 55.6967,-371.683 L 56.1489,-371.504
 L 56.5751,-371.27 L 56.9685,-370.984 L 57.323,-370.651 L 57.633,-370.276 L 57.8936,-369.866 L 58.1007,-369.426
 L 58.251,-368.963 L 58.3421,-368.485 L 58.3726,-368 L 58.3726,-304 L 58.3421,-303.515 L 58.251,-303.037
 L 58.1007,-302.574 L 57.8936,-302.134 L 57.633,-301.724 L 57.323,-301.349 L 56.9685,-301.016 L 56.5751,-300.73
 L 56.1489,-300.496 L 55.6967,-300.317 L 55.2256,-300.196 L 54.7432,-300.135 z
M 55.9369,-214.589 L 56.5451,-214.745 L 57.1289,-214.976 L 57.6791,-215.278 L 58.1871,-215.647 L 58.6448,-216.077
 L 59.0451,-216.561 L 59.3815,-217.091 L 59.6489,-217.659 L 59.8429,-218.257 L 59.9606,-218.873 L 60,-219.5
 L 60,-284.5 L 59.9606,-285.127 L 59.8429,-285.743 L 59.6489,-286.341 L 59.3815,-286.909 L 59.0451,-287.439
 L 58.6448,-287.923 L 58.1871,-288.353 L 57.6791,-288.722 L 57.1289,-289.024 L 56.5451,-289.255 L 55.9369,-289.411
 L 55.3139,-289.49 L -55.3139,-289.49 L -55.9369,-289.411 L -56.5451,-289.255 L -57,-289.075 L -57,-289.115
 L -60,-289.115 L -60,-214.885 L -57,-214.885 L -57,-214.925 L -56.5451,-214.745 L -55.9369,-214.589
 L -55.3139,-214.51 L 55.3139,-214.51 z
M -52.6507,-279.605 L -52.9497,-279.643 L -53.2416,-279.717 L -53.5219,-279.828 L -53.786,-279.974 L -54.0298,-280.151
 L -54.2495,-280.357 L -54.4416,-280.589 L -54.6031,-280.844 L -54.7315,-281.117 L -54.8246,-281.403 L -54.8811,-281.699
 L -54.9,-282 L -54.8811,-282.301 L -54.8246,-282.597 L -54.7315,-282.883 L -54.6031,-283.156 L -54.4416,-283.411
 L -54.2495,-283.643 L -54.0298,-283.849 L -53.786,-284.026 L -53.5219,-284.172 L -53.2416,-284.283 L -52.9497,-284.357
 L -52.6507,-284.395 L -52.3493,-284.395 L -52.0503,-284.357 L -51.7584,-284.283 L -51.4781,-284.172 L -51.214,-284.026
 L -50.9702,-283.849 L -50.7505,-283.643 L -50.5583,-283.411 L -50.3969,-283.156 L -50.2685,-282.883 L -50.1754,-282.597
 L -50.1189,-282.301 L -50.1,-282 L -50.1189,-281.699 L -50.1754,-281.403 L -50.2685,-281.117 L -50.3969,-280.844
 L -50.5583,-280.589 L -50.7505,-280.357 L -50.9702,-280.151 L -51.214,-279.974 L -51.4781,-279.828 L -51.7584,-279.717
 L -52.0503,-279.643 L -52.3493,-279.605 z
M 52.3493,-279.605 L 52.0503,-279.643 L 51.7584,-279.717 L 51.4781,-279.828 L 51.214,-279.974 L 50.9702,-280.151
 L 50.7505,-280.357 L 50.5583,-280.589 L 50.3969,-280.844 L 50.2685,-281.117 L 50.1754,-281.403 L 50.1189,-281.699
 L 50.1,-282 L 50.1189,-282.301 L 50.1754,-282.597 L 50.2685,-282.883 L 50.3969,-283.156 L 50.5583,-283.411
 L 50.7505,-283.643 L 50.9702,-283.849 L 51.214,-284.026 L 51.4781,-284.172 L 51.7584,-284.283 L 52.0503,-284.357
 L 52.3493,-284.395 L 52.6507,-284.395 L 52.9497,-284.357 L 53.2416,-284.283 L 53.5219,-284.172 L 53.786,-284.026
 L 54.0298,-283.849 L 54.2495,-283.643 L 54.4416,-283.411 L 54.6031,-283.156 L 54.7315,-282.883 L 54.8246,-282.597
 L 54.8811,-282.301 L 54.9,-282 L 54.8811,-281.699 L 54.8246,-281.403 L 54.7315,-281.117 L 54.6031,-280.844
 L 54.4416,-280.589 L 54.2495,-280.357 L 54.0298,-280.151 L 53.786,-279.974 L 53.5219,-279.828 L 53.2416,-279.717
 L 52.9497,-279.643 L 52.6507,-279.605 z
M 52.3493,-219.605 L 52.0503,-219.643 L 51.7584,-219.717 L 51.4781,-219.828 L 51.214,-219.974 L 50.9702,-220.151
 L 50.7505,-220.357 L 50.5583,-220.589 L 50.3969,-220.844 L 50.2685,-221.117 L 50.1754,-221.403 L 50.1189,-221.699
 L 50.1,-222 L 50.1189,-222.301 L 50.1754,-222.597 L 50.2685,-222.883 L 50.3969,-223.156 L 50.5583,-223.411
 L 50.7505,-223.643 L 50.9702,-223.849 L 51.214,-224.026 L 51.4781,-224.172 L 51.7584,-224.283 L 52.0503,-224.357
 L 52.3493,-224.395 L 52.6507,-224.395 L 52.9497,-224.357 L 53.2416,-224.283 L 53.5219,-224.172 L 53.786,-224.026
 L 54.0298,-223.849 L 54.2495,-223.643 L 54.4416,-223.411 L 54.6031,-223.156 L 54.7315,-222.883 L 54.8246,-222.597
 L 54.8811,-222.301 L 54.9,-222 L 54.8811,-221.699 L 54.8246,-221.403 L 54.7315,-221.117 L 54.6031,-220.844
 L 54.4416,-220.589 L 54.2495,-220.357 L 54.0298,-220.151 L 53.786,-219.974 L 53.5219,-219.828 L 53.2416,-219.717
 L 52.9497,-219.643 L 52.6507,-219.605 z
M -52.6507,-219.605 L -52.9497,-219.643 L -53.2416,-219.717 L -53.5219,-219.828 L -53.786,-219.974 L -54.0298,-220.151
 L -54.2495,-220.357 L -54.4416,-220.589 L -54.6031,-220.844 L -54.7315,-221.117 L -54.8246,-221.403 L -54.8811,-221.699
 L -54.9,-222 L -54.8811,-222.301 L -54.8246,-222.597 L -54.7315,-222.883 L -54.6031,-223.156 L -54.4416,-223.411
 L -54.2495,-223.643 L -54.0298,-223.849 L -53.786,-224.026 L -53.5219,-224.172 L -53.2416,-224.283 L -52.9497,-224.357
 L -52.6507,-224.395 L -52.3493,-224.395 L -52.0503,-224.357 L -51.7584,-224.283 L -51.4781,-224.172 L -51.214,-224.026
 L -50.9702,-223.849 L -50.7505,-223.643 L -50.5583,-223.411 L -50.3969,-223.156 L -50.2685,-222.883 L -50.1754,-222.597
 L -50.1189,-222.301 L -50.1,-222 L -50.1189,-221.699 L -50.1754,-221.403 L -50.2685,-221.117 L -50.3969,-220.844
 L -50.5583,-220.589 L -50.7505,-220.357 L -50.9702,-220.151 L -51.214,-219.974 L -51.4781,-219.828 L -51.7584,-219.717
 L -52.0503,-219.643 L -52.3493,-219.605 z
M 55.9369,-130.589 L 56.5451,-130.745 L 57.1289,-130.976 L 57.6791,-131.278 L 58.1871,-131.647 L 58.6448,-132.077
 L 59.0451,-132.561 L 59.3815,-133.091 L 59.6489,-133.659 L 59.8429,-134.257 L 59.9606,-134.873 L 60,-135.5
 L 60,-200.5 L 59.9606,-201.127 L 59.8429,-201.743 L 59.6489,-202.341 L 59.3815,-202.909 L 59.0451,-203.439
 L 58.6448,-203.923 L 58.1871,-204.353 L 57.6791,-204.722 L 57.1289,-205.024 L 56.5451,-205.255 L 55.9369,-205.411
 L 55.3139,-205.49 L -55.3139,-205.49 L -55.9369,-205.411 L -56.5451,-205.255 L -57.1289,-205.024 L -57.6791,-204.722
 L -58.1871,-204.353 L -58.6448,-203.923 L -59.0451,-203.439 L -59.3815,-202.909 L -59.6489,-202.341 L -59.8429,-201.743
 L -59.9,-201.444 L -60,-201.444 L -60,-134.556 L -59.9,-134.556 L -59.8429,-134.257 L -59.6489,-133.659
 L -59.3815,-133.091 L -59.0451,-132.561 L -58.6448,-132.077 L -58.1871,-131.647 L -57.6791,-131.278 L -57.1289,-130.976
 L -56.5451,-130.745 L -55.9369,-130.589 L -55.3139,-130.51 L 55.3139,-130.51 z
M 52.387,-196.204 L 52.1627,-196.232 L 51.9438,-196.288 L 51.7336,-196.371 L 51.5355,-196.48 L 51.3526,-196.613
 L 51.1879,-196.768 L 51.0438,-196.942 L 50.9226,-197.133 L 50.8264,-197.337 L 50.7565,-197.552 L 50.7142,-197.774
 L 50.7,-198 L 50.7142,-198.226 L 50.7565,-198.448 L 50.8264,-198.663 L 50.9226,-198.867 L 51.0438,-199.058
 L 51.1879,-199.232 L 51.3526,-199.387 L 51.5355,-199.52 L 51.7336,-199.629 L 51.9438,-199.712 L 52.1627,-199.768
 L 52.387,-199.796 L 52.613,-199.796 L 52.8373,-199.768 L 53.0562,-199.712 L 53.2664,-199.629 L 53.4645,-199.52
 L 53.6474,-199.387 L 53.8121,-199.232 L 53.9562,-199.058 L 54.0773,-198.867 L 54.1736,-198.663 L 54.2434,-198.448
 L 54.2858,-198.226 L 54.3,-198 L 54.2858,-197.774 L 54.2434,-197.552 L 54.1736,-197.337 L 54.0773,-197.133
 L 53.9562,-196.942 L 53.8121,-196.768 L 53.6474,-196.613 L 53.4645,-196.48 L 53.2664,-196.371 L 53.0562,-196.288
 L 52.8373,-196.232 L 52.613,-196.204 z
M -52.613,-196.204 L -52.8373,-196.232 L -53.0562,-196.288 L -53.2664,-196.371 L -53.4645,-196.48 L -53.6474,-196.613
 L -53.8121,-196.768 L -53.9562,-196.942 L -54.0773,-197.133 L -54.1736,-197.337 L -54.2434,-197.552 L -54.2858,-197.774
 L -54.3,-198 L -54.2858,-198.226 L -54.2434,-198.448 L -54.1736,-198.663 L -54.0773,-198.867 L -53.9562,-199.058
 L -53.8121,-199.232 L -53.6474,-199.387 L -53.4645,-199.52 L -53.2664,-199.629 L -53.0562,-199.712 L -52.8373,-199.768
 L -52.613,-199.796 L -52.387,-199.796 L -52.1627,-199.768 L -51.9438,-199.712 L -51.7336,-199.629 L -51.5355,-199.52
 L -51.3526,-199.387 L -51.1879,-199.232 L -51.0438,-199.058 L -50.9226,-198.867 L -50.8264,-198.663 L -50.7565,-198.448
 L -50.7142,-198.226 L -50.7,-198 L -50.7142,-197.774 L -50.7565,-197.552 L -50.8264,-197.337 L -50.9226,-197.133
 L -51.0438,-196.942 L -51.1879,-196.768 L -51.3526,-196.613 L -51.5355,-196.48 L -51.7336,-196.371 L -51.9438,-196.288
 L -52.1627,-196.232 L -52.387,-196.204 z
M -52.613,-136.204 L -52.8373,-136.232 L -53.0562,-136.288 L -53.2664,-136.371 L -53.4645,-136.48 L -53.6474,-136.613
 L -53.8121,-136.768 L -53.9562,-136.942 L -54.0773,-137.133 L -54.1736,-137.337 L -54.2434,-137.552 L -54.2858,-137.774
 L -54.3,-138 L -54.2858,-138.226 L -54.2434,-138.448 L -54.1736,-138.663 L -54.0773,-138.867 L -53.9562,-139.058
 L -53.8121,-139.232 L -53.6474,-139.387 L -53.4645,-139.52 L -53.2664,-139.629 L -53.0562,-139.712 L -52.8373,-139.768
 L -52.613,-139.796 L -52.387,-139.796 L -52.1627,-139.768 L -51.9438,-139.712 L -51.7336,-139.629 L -51.5355,-139.52
 L -51.3526,-139.387 L -51.1879,-139.232 L -51.0438,-139.058 L -50.9226,-138.867 L -50.8264,-138.663 L -50.7565,-138.448
 L -50.7142,-138.226 L -50.7,-138 L -50.7142,-137.774 L -50.7565,-137.552 L -50.8264,-137.337 L -50.9226,-137.133
 L -51.0438,-136.942 L -51.1879,-136.768 L -51.3526,-136.613 L -51.5355,-136.48 L -51.7336,-136.371 L -51.9438,-136.288
 L -52.1627,-136.232 L -52.387,-136.204 z
M 52.387,-136.204 L 52.1627,-136.232 L 51.9438,-136.288 L 51.7336,-136.371 L 51.5355,-136.48 L 51.3526,-136.613
 L 51.1879,-136.768 L 51.0438,-136.942 L 50.9226,-137.133 L 50.8264,-137.337 L 50.7565,-137.552 L 50.7142,-137.774
 L 50.7,-138 L 50.7142,-138.226 L 50.7565,-138.448 L 50.8264,-138.663 L 50.9226,-138.867 L 51.0438,-139.058
 L 51.1879,-139.232 L 51.3526,-139.387 L 51.5355,-139.52 L 51.7336,-139.629 L 51.9438,-139.712 L 52.1627,-139.768
 L 52.387,-139.796 L 52.613,-139.796 L 52.8373,-139.768 L 53.0562,-139.712 L 53.2664,-139.629 L 53.4645,-139.52
 L 53.6474,-139.387 L 53.8121,-139.232 L 53.9562,-139.058 L 54.0773,-138.867 L 54.1736,-138.663 L 54.2434,-138.448
 L 54.2858,-138.226 L 54.3,-138 L 54.2858,-137.774 L 54.2434,-137.552 L 54.1736,-137.337 L 54.0773,-137.133
 L 53.9562,-136.942 L 53.8121,-136.768 L 53.6474,-136.613 L 53.4645,-136.48 L 53.2664,-136.371 L 53.0562,-136.288
 L 52.8373,-136.232 L 52.613,-136.204 z
" stroke="black" fill="lightgray" stroke-width="0.5"/>
</svg>
