  0
SECTION
  2
BLOCKS
  0
ENDSEC
  0
SECTION
  2
ENTITIES
  0
LINE
  8
0
 10
7.1869
 20
859.589
 11
7.79507
 21
859.745
  0
LINE
  8
0
 10
7.79507
 20
859.745
 11
8.37889
 21
859.976
  0
LINE
  8
0
 10
8.37889
 20
859.976
 11
8.92912
 21
860.278
  0
LINE
  8
0
 10
8.92912
 20
860.278
 11
9.43712
 21
860.647
  0
LINE
  8
0
 10
9.43712
 20
860.647
 11
9.89484
 21
861.077
  0
LINE
  8
0
 10
9.89484
 20
861.077
 11
10.2951
 21
861.561
  0
LINE
  8
0
 10
10.2951
 20
861.561
 11
10.6315
 21
862.091
  0
LINE
  8
0
 10
10.6315
 20
862.091
 11
10.8989
 21
862.659
  0
LINE
  8
0
 10
10.8989
 20
862.659
 11
11.0929
 21
863.257
  0
LINE
  8
0
 10
11.0929
 20
863.257
 11
11.2106
 21
863.873
  0
LINE
  8
0
 10
11.2106
 20
863.873
 11
11.25
 21
864.5
  0
LINE
  8
0
 10
11.25
 20
864.5
 11
11.25
 21
959.5
  0
LINE
  8
0
 10
11.25
 20
959.5
 11
11.2106
 21
960.127
  0
LINE
  8
0
 10
11.2106
 20
960.127
 11
11.0929
 21
960.743
  0
LINE
  8
0
 10
11.0929
 20
960.743
 11
10.8989
 21
961.341
  0
LINE
  8
0
 10
10.8989
 20
961.341
 11
10.6315
 21
961.909
  0
LINE
  8
0
 10
10.6315
 20
961.909
 11
10.2951
 21
962.439
  0
LINE
  8
0
 10
10.2951
 20
962.439
 11
9.89484
 21
962.923
  0
LINE
  8
0
 10
9.89484
 20
962.923
 11
9.43712
 21
963.353
  0
LINE
  8
0
 10
9.43712
 20
963.353
 11
8.92912
 21
963.722
  0
LINE
  8
0
 10
8.92912
 20
963.722
 11
8.37889
 21
964.024
  0
LINE
  8
0
 10
8.37889
 20
964.024
 11
7.79507
 21
964.255
  0
LINE
  8
0
 10
7.79507
 20
964.255
 11
7.1869
 21
964.411
  0
LINE
  8
0
 10
7.1869
 20
964.411
 11
6.56395
 21
964.49
  0
LINE
  8
0
 10
6.56395
 20
964.49
 11
-6.56395
 21
964.49
  0
LINE
  8
0
 10
-6.56395
 20
964.49
 11
-7.1869
 21
964.411
  0
LINE
  8
0
 10
-7.1869
 20
964.411
 11
-7.79507
 21
964.255
  0
LINE
  8
0
 10
-7.79507
 20
964.255
 11
-8.37889
 21
964.024
  0
LINE
  8
0
 10
-8.37889
 20
964.024
 11
-8.92912
 21
963.722
  0
LINE
  8
0
 10
-8.92912
 20
963.722
 11
-9.43712
 21
963.353
  0
LINE
  8
0
 10
-9.43712
 20
963.353
 11
-9.89484
 21
962.923
  0
LINE
  8
0
 10
-9.89484
 20
962.923
 11
-10.2951
 21
962.439
  0
LINE
  8
0
 10
-10.2951
 20
962.439
 11
-10.6315
 21
961.909
  0
LINE
  8
0
 10
-10.6315
 20
961.909
 11
-10.8989
 21
961.341
  0
LINE
  8
0
 10
-10.8989
 20
961.341
 11
-11.0929
 21
960.743
  0
LINE
  8
0
 10
-11.0929
 20
960.743
 11
-11.2106
 21
960.127
  0
LINE
  8
0
 10
-11.2106
 20
960.127
 11
-11.25
 21
959.5
  0
LINE
  8
0
 10
-11.25
 20
959.5
 11
-11.25
 21
864.5
  0
LINE
  8
0
 10
-11.25
 20
864.5
 11
-11.2106
 21
863.873
  0
LINE
  8
0
 10
-11.2106
 20
863.873
 11
-11.0929
 21
863.257
  0
LINE
  8
0
 10
-11.0929
 20
863.257
 11
-10.8989
 21
862.659
  0
LINE
  8
0
 10
-10.8989
 20
862.659
 11
-10.6315
 21
862.091
  0
LINE
  8
0
 10
-10.6315
 20
862.091
 11
-10.2951
 21
861.561
  0
LINE
  8
0
 10
-10.2951
 20
861.561
 11
-9.89484
 21
861.077
  0
LINE
  8
0
 10
-9.89484
 20
861.077
 11
-9.43712
 21
860.647
  0
LINE
  8
0
 10
-9.43712
 20
860.647
 11
-8.92912
 21
860.278
  0
LINE
  8
0
 10
-8.92912
 20
860.278
 11
-8.37889
 21
859.976
  0
LINE
  8
0
 10
-8.37889
 20
859.976
 11
-7.79507
 21
859.745
  0
LINE
  8
0
 10
-7.79507
 20
859.745
 11
-7.1869
 21
859.589
  0
LINE
  8
0
 10
-7.1869
 20
859.589
 11
-6.56395
 21
859.51
  0
LINE
  8
0
 10
-6.56395
 20
859.51
 11
6.56395
 21
859.51
  0
LINE
  8
0
 10
6.56395
 20
859.51
 11
7.1869
 21
859.589
  0
LINE
  8
0
 10
-6.00116
 20
861.008
 11
-6.49951
 21
861.071
  0
LINE
  8
0
 10
-6.49951
 20
861.071
 11
-6.98605
 21
861.196
  0
LINE
  8
0
 10
-6.98605
 20
861.196
 11
-7.45311
 21
861.381
  0
LINE
  8
0
 10
-7.45311
 20
861.381
 11
-7.8933
 21
861.623
  0
LINE
  8
0
 10
-7.8933
 20
861.623
 11
-8.29968
 21
861.918
  0
LINE
  8
0
 10
-8.29968
 20
861.918
 11
-8.66586
 21
862.262
  0
LINE
  8
0
 10
-8.66586
 20
862.262
 11
-8.98605
 21
862.649
  0
LINE
  8
0
 10
-8.98605
 20
862.649
 11
-9.25522
 21
863.073
  0
LINE
  8
0
 10
-9.25522
 20
863.073
 11
-9.4691
 21
863.528
  0
LINE
  8
0
 10
-9.4691
 20
863.528
 11
-9.62433
 21
864.005
  0
LINE
  8
0
 10
-9.62433
 20
864.005
 11
-9.71844
 21
864.499
  0
LINE
  8
0
 10
-9.71844
 20
864.499
 11
-9.75
 21
865
  0
LINE
  8
0
 10
-9.75
 20
865
 11
-9.75
 21
959
  0
LINE
  8
0
 10
-9.75
 20
959
 11
-9.71844
 21
959.501
  0
LINE
  8
0
 10
-9.71844
 20
959.501
 11
-9.62433
 21
959.995
  0
LINE
  8
0
 10
-9.62433
 20
959.995
 11
-9.4691
 21
960.472
  0
LINE
  8
0
 10
-9.4691
 20
960.472
 11
-9.25522
 21
960.927
  0
LINE
  8
0
 10
-9.25522
 20
960.927
 11
-8.98605
 21
961.351
  0
LINE
  8
0
 10
-8.98605
 20
961.351
 11
-8.66586
 21
961.738
  0
LINE
  8
0
 10
-8.66586
 20
961.738
 11
-8.29968
 21
962.082
  0
LINE
  8
0
 10
-8.29968
 20
962.082
 11
-7.8933
 21
962.377
  0
LINE
  8
0
 10
-7.8933
 20
962.377
 11
-7.45311
 21
962.619
  0
LINE
  8
0
 10
-7.45311
 20
962.619
 11
-6.98605
 21
962.804
  0
LINE
  8
0
 10
-6.98605
 20
962.804
 11
-6.49951
 21
962.929
  0
LINE
  8
0
 10
-6.49951
 20
962.929
 11
-6.00116
 21
962.992
  0
LINE
  8
0
 10
-6.00116
 20
962.992
 11
6.00116
 21
962.992
  0
LINE
  8
0
 10
6.00116
 20
962.992
 11
6.49951
 21
962.929
  0
LINE
  8
0
 10
6.49951
 20
962.929
 11
6.98605
 21
962.804
  0
LINE
  8
0
 10
6.98605
 20
962.804
 11
7.45311
 21
962.619
  0
LINE
  8
0
 10
7.45311
 20
962.619
 11
7.8933
 21
962.377
  0
LINE
  8
0
 10
7.8933
 20
962.377
 11
8.29968
 21
962.082
  0
LINE
  8
0
 10
8.29968
 20
962.082
 11
8.66586
 21
961.738
  0
LINE
  8
0
 10
8.66586
 20
961.738
 11
8.98605
 21
961.351
  0
LINE
  8
0
 10
8.98605
 20
961.351
 11
9.25522
 21
960.927
  0
LINE
  8
0
 10
9.25522
 20
960.927
 11
9.4691
 21
960.472
  0
LINE
  8
0
 10
9.4691
 20
960.472
 11
9.62433
 21
959.995
  0
LINE
  8
0
 10
9.62433
 20
959.995
 11
9.71844
 21
959.501
  0
LINE
  8
0
 10
9.71844
 20
959.501
 11
9.75
 21
959
  0
LINE
  8
0
 10
9.75
 20
959
 11
9.75
 21
865
  0
LINE
  8
0
 10
9.75
 20
865
 11
9.71844
 21
864.499
  0
LINE
  8
0
 10
9.71844
 20
864.499
 11
9.62433
 21
864.005
  0
LINE
  8
0
 10
9.62433
 20
864.005
 11
9.4691
 21
863.528
  0
LINE
  8
0
 10
9.4691
 20
863.528
 11
9.25522
 21
863.073
  0
LINE
  8
0
 10
9.25522
 20
863.073
 11
8.98605
 21
862.649
  0
LINE
  8
0
 10
8.98605
 20
862.649
 11
8.66586
 21
862.262
  0
LINE
  8
0
 10
8.66586
 20
862.262
 11
8.29968
 21
861.918
  0
LINE
  8
0
 10
8.29968
 20
861.918
 11
7.8933
 21
861.623
  0
LINE
  8
0
 10
7.8933
 20
861.623
 11
7.45311
 21
861.381
  0
LINE
  8
0
 10
7.45311
 20
861.381
 11
6.98605
 21
861.196
  0
LINE
  8
0
 10
6.98605
 20
861.196
 11
6.49951
 21
861.071
  0
LINE
  8
0
 10
6.49951
 20
861.071
 11
6.00116
 21
861.008
  0
LINE
  8
0
 10
6.00116
 20
861.008
 11
-6.00116
 21
861.008
  0
LINE
  8
0
 10
7.1869
 20
745.589
 11
7.79507
 21
745.745
  0
LINE
  8
0
 10
7.79507
 20
745.745
 11
8.37889
 21
745.976
  0
LINE
  8
0
 10
8.37889
 20
745.976
 11
8.92912
 21
746.278
  0
LINE
  8
0
 10
8.92912
 20
746.278
 11
9.43712
 21
746.647
  0
LINE
  8
0
 10
9.43712
 20
746.647
 11
9.89484
 21
747.077
  0
LINE
  8
0
 10
9.89484
 20
747.077
 11
10.2951
 21
747.561
  0
LINE
  8
0
 10
10.2951
 20
747.561
 11
10.6315
 21
748.091
  0
LINE
  8
0
 10
10.6315
 20
748.091
 11
10.8989
 21
748.659
  0
LINE
  8
0
 10
10.8989
 20
748.659
 11
11.0929
 21
749.257
  0
LINE
  8
0
 10
11.0929
 20
749.257
 11
11.2106
 21
749.873
  0
LINE
  8
0
 10
11.2106
 20
749.873
 11
11.25
 21
750.5
  0
LINE
  8
0
 10
11.25
 20
750.5
 11
11.25
 21
845.5
  0
LINE
  8
0
 10
11.25
 20
845.5
 11
11.2106
 21
846.127
  0
LINE
  8
0
 10
11.2106
 20
846.127
 11
11.0929
 21
846.743
  0
LINE
  8
0
 10
11.0929
 20
846.743
 11
10.8989
 21
847.341
  0
LINE
  8
0
 10
10.8989
 20
847.341
 11
10.6315
 21
847.909
  0
LINE
  8
0
 10
10.6315
 20
847.909
 11
10.2951
 21
848.439
  0
LINE
  8
0
 10
10.2951
 20
848.439
 11
9.89484
 21
848.923
  0
LINE
  8
0
 10
9.89484
 20
848.923
 11
9.43712
 21
849.353
  0
LINE
  8
0
 10
9.43712
 20
849.353
 11
8.92912
 21
849.722
  0
LINE
  8
0
 10
8.92912
 20
849.722
 11
8.37889
 21
850.024
  0
LINE
  8
0
 10
8.37889
 20
850.024
 11
7.79507
 21
850.255
  0
LINE
  8
0
 10
7.79507
 20
850.255
 11
7.1869
 21
850.411
  0
LINE
  8
0
 10
7.1869
 20
850.411
 11
6.56395
 21
850.49
  0
LINE
  8
0
 10
6.56395
 20
850.49
 11
-6.56395
 21
850.49
  0
LINE
  8
0
 10
-6.56395
 20
850.49
 11
-7.1869
 21
850.411
  0
LINE
  8
0
 10
-7.1869
 20
850.411
 11
-7.79507
 21
850.255
  0
LINE
  8
0
 10
-7.79507
 20
850.255
 11
-8.37889
 21
850.024
  0
LINE
  8
0
 10
-8.37889
 20
850.024
 11
-8.92912
 21
849.722
  0
LINE
  8
0
 10
-8.92912
 20
849.722
 11
-9.43712
 21
849.353
  0
LINE
  8
0
 10
-9.43712
 20
849.353
 11
-9.89484
 21
848.923
  0
LINE
  8
0
 10
-9.89484
 20
848.923
 11
-10.2951
 21
848.439
  0
LINE
  8
0
 10
-10.2951
 20
848.439
 11
-10.6315
 21
847.909
  0
LINE
  8
0
 10
-10.6315
 20
847.909
 11
-10.8989
 21
847.341
  0
LINE
  8
0
 10
-10.8989
 20
847.341
 11
-11.0929
 21
846.743
  0
LINE
  8
0
 10
-11.0929
 20
846.743
 11
-11.2106
 21
846.127
  0
LINE
  8
0
 10
-11.2106
 20
846.127
 11
-11.25
 21
845.5
  0
LINE
  8
0
 10
-11.25
 20
845.5
 11
-11.25
 21
750.5
  0
LINE
  8
0
 10
-11.25
 20
750.5
 11
-11.2106
 21
749.873
  0
LINE
  8
0
 10
-11.2106
 20
749.873
 11
-11.0929
 21
749.257
  0
LINE
  8
0
 10
-11.0929
 20
749.257
 11
-10.8989
 21
748.659
  0
LINE
  8
0
 10
-10.8989
 20
748.659
 11
-10.6315
 21
748.091
  0
LINE
  8
0
 10
-10.6315
 20
748.091
 11
-10.2951
 21
747.561
  0
LINE
  8
0
 10
-10.2951
 20
747.561
 11
-9.89484
 21
747.077
  0
LINE
  8
0
 10
-9.89484
 20
747.077
 11
-9.43712
 21
746.647
  0
LINE
  8
0
 10
-9.43712
 20
746.647
 11
-8.92912
 21
746.278
  0
LINE
  8
0
 10
-8.92912
 20
746.278
 11
-8.37889
 21
745.976
  0
LINE
  8
0
 10
-8.37889
 20
745.976
 11
-7.79507
 21
745.745
  0
LINE
  8
0
 10
-7.79507
 20
745.745
 11
-7.1869
 21
745.589
  0
LINE
  8
0
 10
-7.1869
 20
745.589
 11
-6.56395
 21
745.51
  0
LINE
  8
0
 10
-6.56395
 20
745.51
 11
6.56395
 21
745.51
  0
LINE
  8
0
 10
6.56395
 20
745.51
 11
7.1869
 21
745.589
  0
LINE
  8
0
 10
-6.00116
 20
747.008
 11
-6.49951
 21
747.071
  0
LINE
  8
0
 10
-6.49951
 20
747.071
 11
-6.98605
 21
747.196
  0
LINE
  8
0
 10
-6.98605
 20
747.196
 11
-7.45311
 21
747.381
  0
LINE
  8
0
 10
-7.45311
 20
747.381
 11
-7.8933
 21
747.623
  0
LINE
  8
0
 10
-7.8933
 20
747.623
 11
-8.29968
 21
747.918
  0
LINE
  8
0
 10
-8.29968
 20
747.918
 11
-8.66586
 21
748.262
  0
LINE
  8
0
 10
-8.66586
 20
748.262
 11
-8.98605
 21
748.649
  0
LINE
  8
0
 10
-8.98605
 20
748.649
 11
-9.25522
 21
749.073
  0
LINE
  8
0
 10
-9.25522
 20
749.073
 11
-9.4691
 21
749.528
  0
LINE
  8
0
 10
-9.4691
 20
749.528
 11
-9.62433
 21
750.005
  0
LINE
  8
0
 10
-9.62433
 20
750.005
 11
-9.71844
 21
750.499
  0
LINE
  8
0
 10
-9.71844
 20
750.499
 11
-9.75
 21
751
  0
LINE
  8
0
 10
-9.75
 20
751
 11
-9.75
 21
845
  0
LINE
  8
0
 10
-9.75
 20
845
 11
-9.71844
 21
845.501
  0
LINE
  8
0
 10
-9.71844
 20
845.501
 11
-9.62433
 21
845.995
  0
LINE
  8
0
 10
-9.62433
 20
845.995
 11
-9.4691
 21
846.472
  0
LINE
  8
0
 10
-9.4691
 20
846.472
 11
-9.25522
 21
846.927
  0
LINE
  8
0
 10
-9.25522
 20
846.927
 11
-8.98605
 21
847.351
  0
LINE
  8
0
 10
-8.98605
 20
847.351
 11
-8.66586
 21
847.738
  0
LINE
  8
0
 10
-8.66586
 20
847.738
 11
-8.29968
 21
848.082
  0
LINE
  8
0
 10
-8.29968
 20
848.082
 11
-7.8933
 21
848.377
  0
LINE
  8
0
 10
-7.8933
 20
848.377
 11
-7.45311
 21
848.619
  0
LINE
  8
0
 10
-7.45311
 20
848.619
 11
-6.98605
 21
848.804
  0
LINE
  8
0
 10
-6.98605
 20
848.804
 11
-6.49951
 21
848.929
  0
LINE
  8
0
 10
-6.49951
 20
848.929
 11
-6.00116
 21
848.992
  0
LINE
  8
0
 10
-6.00116
 20
848.992
 11
6.00116
 21
848.992
  0
LINE
  8
0
 10
6.00116
 20
848.992
 11
6.49951
 21
848.929
  0
LINE
  8
0
 10
6.49951
 20
848.929
 11
6.98605
 21
848.804
  0
LINE
  8
0
 10
6.98605
 20
848.804
 11
7.45311
 21
848.619
  0
LINE
  8
0
 10
7.45311
 20
848.619
 11
7.8933
 21
848.377
  0
LINE
  8
0
 10
7.8933
 20
848.377
 11
8.29968
 21
848.082
  0
LINE
  8
0
 10
8.29968
 20
848.082
 11
8.66586
 21
847.738
  0
LINE
  8
0
 10
8.66586
 20
847.738
 11
8.98605
 21
847.351
  0
LINE
  8
0
 10
8.98605
 20
847.351
 11
9.25522
 21
846.927
  0
LINE
  8
0
 10
9.25522
 20
846.927
 11
9.4691
 21
846.472
  0
LINE
  8
0
 10
9.4691
 20
846.472
 11
9.62433
 21
845.995
  0
LINE
  8
0
 10
9.62433
 20
845.995
 11
9.71844
 21
845.501
  0
LINE
  8
0
 10
9.71844
 20
845.501
 11
9.75
 21
845
  0
LINE
  8
0
 10
9.75
 20
845
 11
9.75
 21
751
  0
LINE
  8
0
 10
9.75
 20
751
 11
9.71844
 21
750.499
  0
LINE
  8
0
 10
9.71844
 20
750.499
 11
9.62433
 21
750.005
  0
LINE
  8
0
 10
9.62433
 20
750.005
 11
9.4691
 21
749.528
  0
LINE
  8
0
 10
9.4691
 20
749.528
 11
9.25522
 21
749.073
  0
LINE
  8
0
 10
9.25522
 20
749.073
 11
8.98605
 21
748.649
  0
LINE
  8
0
 10
8.98605
 20
748.649
 11
8.66586
 21
748.262
  0
LINE
  8
0
 10
8.66586
 20
748.262
 11
8.29968
 21
747.918
  0
LINE
  8
0
 10
8.29968
 20
747.918
 11
7.8933
 21
747.623
  0
LINE
  8
0
 10
7.8933
 20
747.623
 11
7.45311
 21
747.381
  0
LINE
  8
0
 10
7.45311
 20
747.381
 11
6.98605
 21
747.196
  0
LINE
  8
0
 10
6.98605
 20
747.196
 11
6.49951
 21
747.071
  0
LINE
  8
0
 10
6.49951
 20
747.071
 11
6.00116
 21
747.008
  0
LINE
  8
0
 10
6.00116
 20
747.008
 11
-6.00116
 21
747.008
  0
LINE
  8
0
 10
7.1869
 20
631.589
 11
7.79507
 21
631.745
  0
LINE
  8
0
 10
7.79507
 20
631.745
 11
8.37889
 21
631.976
  0
LINE
  8
0
 10
8.37889
 20
631.976
 11
8.92912
 21
632.278
  0
LINE
  8
0
 10
8.92912
 20
632.278
 11
9.43712
 21
632.647
  0
LINE
  8
0
 10
9.43712
 20
632.647
 11
9.89484
 21
633.077
  0
LINE
  8
0
 10
9.89484
 20
633.077
 11
10.2951
 21
633.561
  0
LINE
  8
0
 10
10.2951
 20
633.561
 11
10.6315
 21
634.091
  0
LINE
  8
0
 10
10.6315
 20
634.091
 11
10.8989
 21
634.659
  0
LINE
  8
0
 10
10.8989
 20
634.659
 11
11.0929
 21
635.257
  0
LINE
  8
0
 10
11.0929
 20
635.257
 11
11.2106
 21
635.873
  0
LINE
  8
0
 10
11.2106
 20
635.873
 11
11.25
 21
636.5
  0
LINE
  8
0
 10
11.25
 20
636.5
 11
11.25
 21
731.5
  0
LINE
  8
0
 10
11.25
 20
731.5
 11
11.2106
 21
732.127
  0
LINE
  8
0
 10
11.2106
 20
732.127
 11
11.0929
 21
732.743
  0
LINE
  8
0
 10
11.0929
 20
732.743
 11
10.8989
 21
733.341
  0
LINE
  8
0
 10
10.8989
 20
733.341
 11
10.6315
 21
733.909
  0
LINE
  8
0
 10
10.6315
 20
733.909
 11
10.2951
 21
734.439
  0
LINE
  8
0
 10
10.2951
 20
734.439
 11
9.89484
 21
734.923
  0
LINE
  8
0
 10
9.89484
 20
734.923
 11
9.43712
 21
735.353
  0
LINE
  8
0
 10
9.43712
 20
735.353
 11
8.92912
 21
735.722
  0
LINE
  8
0
 10
8.92912
 20
735.722
 11
8.37889
 21
736.024
  0
LINE
  8
0
 10
8.37889
 20
736.024
 11
7.79507
 21
736.255
  0
LINE
  8
0
 10
7.79507
 20
736.255
 11
7.1869
 21
736.411
  0
LINE
  8
0
 10
7.1869
 20
736.411
 11
6.56395
 21
736.49
  0
LINE
  8
0
 10
6.56395
 20
736.49
 11
-6.56395
 21
736.49
  0
LINE
  8
0
 10
-6.56395
 20
736.49
 11
-7.1869
 21
736.411
  0
LINE
  8
0
 10
-7.1869
 20
736.411
 11
-7.79507
 21
736.255
  0
LINE
  8
0
 10
-7.79507
 20
736.255
 11
-8.37889
 21
736.024
  0
LINE
  8
0
 10
-8.37889
 20
736.024
 11
-8.92912
 21
735.722
  0
LINE
  8
0
 10
-8.92912
 20
735.722
 11
-9.43712
 21
735.353
  0
LINE
  8
0
 10
-9.43712
 20
735.353
 11
-9.89484
 21
734.923
  0
LINE
  8
0
 10
-9.89484
 20
734.923
 11
-10.2951
 21
734.439
  0
LINE
  8
0
 10
-10.2951
 20
734.439
 11
-10.6315
 21
733.909
  0
LINE
  8
0
 10
-10.6315
 20
733.909
 11
-10.8989
 21
733.341
  0
LINE
  8
0
 10
-10.8989
 20
733.341
 11
-11.0929
 21
732.743
  0
LINE
  8
0
 10
-11.0929
 20
732.743
 11
-11.2106
 21
732.127
  0
LINE
  8
0
 10
-11.2106
 20
732.127
 11
-11.25
 21
731.5
  0
LINE
  8
0
 10
-11.25
 20
731.5
 11
-11.25
 21
636.5
  0
LINE
  8
0
 10
-11.25
 20
636.5
 11
-11.2106
 21
635.873
  0
LINE
  8
0
 10
-11.2106
 20
635.873
 11
-11.0929
 21
635.257
  0
LINE
  8
0
 10
-11.0929
 20
635.257
 11
-10.8989
 21
634.659
  0
LINE
  8
0
 10
-10.8989
 20
634.659
 11
-10.6315
 21
634.091
  0
LINE
  8
0
 10
-10.6315
 20
634.091
 11
-10.2951
 21
633.561
  0
LINE
  8
0
 10
-10.2951
 20
633.561
 11
-9.89484
 21
633.077
  0
LINE
  8
0
 10
-9.89484
 20
633.077
 11
-9.43712
 21
632.647
  0
LINE
  8
0
 10
-9.43712
 20
632.647
 11
-8.92912
 21
632.278
  0
LINE
  8
0
 10
-8.92912
 20
632.278
 11
-8.37889
 21
631.976
  0
LINE
  8
0
 10
-8.37889
 20
631.976
 11
-7.79507
 21
631.745
  0
LINE
  8
0
 10
-7.79507
 20
631.745
 11
-7.1869
 21
631.589
  0
LINE
  8
0
 10
-7.1869
 20
631.589
 11
-6.56395
 21
631.51
  0
LINE
  8
0
 10
-6.56395
 20
631.51
 11
6.56395
 21
631.51
  0
LINE
  8
0
 10
6.56395
 20
631.51
 11
7.1869
 21
631.589
  0
LINE
  8
0
 10
-5.99316
 20
633.135
 11
-6.47565
 21
633.196
  0
LINE
  8
0
 10
-6.47565
 20
633.196
 11
-6.9467
 21
633.317
  0
LINE
  8
0
 10
-6.9467
 20
633.317
 11
-7.39888
 21
633.496
  0
LINE
  8
0
 10
-7.39888
 20
633.496
 11
-7.82506
 21
633.73
  0
LINE
  8
0
 10
-7.82506
 20
633.73
 11
-8.21851
 21
634.016
  0
LINE
  8
0
 10
-8.21851
 20
634.016
 11
-8.57301
 21
634.349
  0
LINE
  8
0
 10
-8.57301
 20
634.349
 11
-8.88301
 21
634.724
  0
LINE
  8
0
 10
-8.88301
 20
634.724
 11
-9.1436
 21
635.134
  0
LINE
  8
0
 10
-9.1436
 20
635.134
 11
-9.35068
 21
635.574
  0
LINE
  8
0
 10
-9.35068
 20
635.574
 11
-9.50096
 21
636.037
  0
LINE
  8
0
 10
-9.50096
 20
636.037
 11
-9.59209
 21
636.515
  0
LINE
  8
0
 10
-9.59209
 20
636.515
 11
-9.62262
 21
637
  0
LINE
  8
0
 10
-9.62262
 20
637
 11
-9.62262
 21
731
  0
LINE
  8
0
 10
-9.62262
 20
731
 11
-9.59209
 21
731.485
  0
LINE
  8
0
 10
-9.59209
 20
731.485
 11
-9.50096
 21
731.963
  0
LINE
  8
0
 10
-9.50096
 20
731.963
 11
-9.35068
 21
732.426
  0
LINE
  8
0
 10
-9.35068
 20
732.426
 11
-9.1436
 21
732.866
  0
LINE
  8
0
 10
-9.1436
 20
732.866
 11
-8.88301
 21
733.276
  0
LINE
  8
0
 10
-8.88301
 20
733.276
 11
-8.57301
 21
733.651
  0
LINE
  8
0
 10
-8.57301
 20
733.651
 11
-8.21851
 21
733.984
  0
LINE
  8
0
 10
-8.21851
 20
733.984
 11
-7.82506
 21
734.27
  0
LINE
  8
0
 10
-7.82506
 20
734.27
 11
-7.39888
 21
734.504
  0
LINE
  8
0
 10
-7.39888
 20
734.504
 11
-6.9467
 21
734.683
  0
LINE
  8
0
 10
-6.9467
 20
734.683
 11
-6.47565
 21
734.804
  0
LINE
  8
0
 10
-6.47565
 20
734.804
 11
-5.99316
 21
734.865
  0
LINE
  8
0
 10
-5.99316
 20
734.865
 11
5.99316
 21
734.865
  0
LINE
  8
0
 10
5.99316
 20
734.865
 11
6.47565
 21
734.804
  0
LINE
  8
0
 10
6.47565
 20
734.804
 11
6.9467
 21
734.683
  0
LINE
  8
0
 10
6.9467
 20
734.683
 11
7.39888
 21
734.504
  0
LINE
  8
0
 10
7.39888
 20
734.504
 11
7.82506
 21
734.27
  0
LINE
  8
0
 10
7.82506
 20
734.27
 11
8.21851
 21
733.984
  0
LINE
  8
0
 10
8.21851
 20
733.984
 11
8.57301
 21
733.651
  0
LINE
  8
0
 10
8.57301
 20
733.651
 11
8.88301
 21
733.276
  0
LINE
  8
0
 10
8.88301
 20
733.276
 11
9.1436
 21
732.866
  0
LINE
  8
0
 10
9.1436
 20
732.866
 11
9.35068
 21
732.426
  0
LINE
  8
0
 10
9.35068
 20
732.426
 11
9.50096
 21
731.963
  0
LINE
  8
0
 10
9.50096
 20
731.963
 11
9.59209
 21
731.485
  0
LINE
  8
0
 10
9.59209
 20
731.485
 11
9.62262
 21
731
  0
LINE
  8
0
 10
9.62262
 20
731
 11
9.62262
 21
637
  0
LINE
  8
0
 10
9.62262
 20
637
 11
9.59209
 21
636.515
  0
LINE
  8
0
 10
9.59209
 20
636.515
 11
9.50096
 21
636.037
  0
LINE
  8
0
 10
9.50096
 20
636.037
 11
9.35068
 21
635.574
  0
LINE
  8
0
 10
9.35068
 20
635.574
 11
9.1436
 21
635.134
  0
LINE
  8
0
 10
9.1436
 20
635.134
 11
8.88301
 21
634.724
  0
LINE
  8
0
 10
8.88301
 20
634.724
 11
8.57301
 21
634.349
  0
LINE
  8
0
 10
8.57301
 20
634.349
 11
8.21851
 21
634.016
  0
LINE
  8
0
 10
8.21851
 20
634.016
 11
7.82506
 21
633.73
  0
LINE
  8
0
 10
7.82506
 20
633.73
 11
7.39888
 21
633.496
  0
LINE
  8
0
 10
7.39888
 20
633.496
 11
6.9467
 21
633.317
  0
LINE
  8
0
 10
6.9467
 20
633.317
 11
6.47565
 21
633.196
  0
LINE
  8
0
 10
6.47565
 20
633.196
 11
5.99316
 21
633.135
  0
LINE
  8
0
 10
5.99316
 20
633.135
 11
-5.99316
 21
633.135
  0
LINE
  8
0
 10
7.1869
 20
517.589
 11
7.79507
 21
517.745
  0
LINE
  8
0
 10
7.79507
 20
517.745
 11
8.37889
 21
517.976
  0
LINE
  8
0
 10
8.37889
 20
517.976
 11
8.92912
 21
518.278
  0
LINE
  8
0
 10
8.92912
 20
518.278
 11
9.43712
 21
518.647
  0
LINE
  8
0
 10
9.43712
 20
518.647
 11
9.89484
 21
519.077
  0
LINE
  8
0
 10
9.89484
 20
519.077
 11
10.2951
 21
519.561
  0
LINE
  8
0
 10
10.2951
 20
519.561
 11
10.6315
 21
520.091
  0
LINE
  8
0
 10
10.6315
 20
520.091
 11
10.8989
 21
520.659
  0
LINE
  8
0
 10
10.8989
 20
520.659
 11
11.0929
 21
521.257
  0
LINE
  8
0
 10
11.0929
 20
521.257
 11
11.2106
 21
521.873
  0
LINE
  8
0
 10
11.2106
 20
521.873
 11
11.25
 21
522.5
  0
LINE
  8
0
 10
11.25
 20
522.5
 11
11.25
 21
617.5
  0
LINE
  8
0
 10
11.25
 20
617.5
 11
11.2106
 21
618.127
  0
LINE
  8
0
 10
11.2106
 20
618.127
 11
11.0929
 21
618.743
  0
LINE
  8
0
 10
11.0929
 20
618.743
 11
10.8989
 21
619.341
  0
LINE
  8
0
 10
10.8989
 20
619.341
 11
10.6315
 21
619.909
  0
LINE
  8
0
 10
10.6315
 20
619.909
 11
10.2951
 21
620.439
  0
LINE
  8
0
 10
10.2951
 20
620.439
 11
9.89484
 21
620.923
  0
LINE
  8
0
 10
9.89484
 20
620.923
 11
9.43712
 21
621.353
  0
LINE
  8
0
 10
9.43712
 20
621.353
 11
8.92912
 21
621.722
  0
LINE
  8
0
 10
8.92912
 20
621.722
 11
8.37889
 21
622.024
  0
LINE
  8
0
 10
8.37889
 20
622.024
 11
7.79507
 21
622.255
  0
LINE
  8
0
 10
7.79507
 20
622.255
 11
7.1869
 21
622.411
  0
LINE
  8
0
 10
7.1869
 20
622.411
 11
6.56395
 21
622.49
  0
LINE
  8
0
 10
6.56395
 20
622.49
 11
-6.56395
 21
622.49
  0
LINE
  8
0
 10
-6.56395
 20
622.49
 11
-7.1869
 21
622.411
  0
LINE
  8
0
 10
-7.1869
 20
622.411
 11
-7.79507
 21
622.255
  0
LINE
  8
0
 10
-7.79507
 20
622.255
 11
-8.37889
 21
622.024
  0
LINE
  8
0
 10
-8.37889
 20
622.024
 11
-8.92912
 21
621.722
  0
LINE
  8
0
 10
-8.92912
 20
621.722
 11
-9.43712
 21
621.353
  0
LINE
  8
0
 10
-9.43712
 20
621.353
 11
-9.89484
 21
620.923
  0
LINE
  8
0
 10
-9.89484
 20
620.923
 11
-10.2951
 21
620.439
  0
LINE
  8
0
 10
-10.2951
 20
620.439
 11
-10.6315
 21
619.909
  0
LINE
  8
0
 10
-10.6315
 20
619.909
 11
-10.8989
 21
619.341
  0
LINE
  8
0
 10
-10.8989
 20
619.341
 11
-11.0929
 21
618.743
  0
LINE
  8
0
 10
-11.0929
 20
618.743
 11
-11.2106
 21
618.127
  0
LINE
  8
0
 10
-11.2106
 20
618.127
 11
-11.25
 21
617.5
  0
LINE
  8
0
 10
-11.25
 20
617.5
 11
-11.25
 21
522.5
  0
LINE
  8
0
 10
-11.25
 20
522.5
 11
-11.2106
 21
521.873
  0
LINE
  8
0
 10
-11.2106
 20
521.873
 11
-11.0929
 21
521.257
  0
LINE
  8
0
 10
-11.0929
 20
521.257
 11
-10.8989
 21
520.659
  0
LINE
  8
0
 10
-10.8989
 20
520.659
 11
-10.6315
 21
520.091
  0
LINE
  8
0
 10
-10.6315
 20
520.091
 11
-10.2951
 21
519.561
  0
LINE
  8
0
 10
-10.2951
 20
519.561
 11
-9.89484
 21
519.077
  0
LINE
  8
0
 10
-9.89484
 20
519.077
 11
-9.43712
 21
518.647
  0
LINE
  8
0
 10
-9.43712
 20
518.647
 11
-8.92912
 21
518.278
  0
LINE
  8
0
 10
-8.92912
 20
518.278
 11
-8.37889
 21
517.976
  0
LINE
  8
0
 10
-8.37889
 20
517.976
 11
-7.79507
 21
517.745
  0
LINE
  8
0
 10
-7.79507
 20
517.745
 11
-7.1869
 21
517.589
  0
LINE
  8
0
 10
-7.1869
 20
517.589
 11
-6.56395
 21
517.51
  0
LINE
  8
0
 10
-6.56395
 20
517.51
 11
6.56395
 21
517.51
  0
LINE
  8
0
 10
6.56395
 20
517.51
 11
7.1869
 21
517.589
  0
LINE
  8
0
 10
3.59929
 20
612.605
 11
3.30028
 21
612.643
  0
LINE
  8
0
 10
3.30028
 20
612.643
 11
3.00835
 21
612.717
  0
LINE
  8
0
 10
3.00835
 20
612.717
 11
2.72812
 21
612.828
  0
LINE
  8
0
 10
2.72812
 20
612.828
 11
2.464
 21
612.974
  0
LINE
  8
0
 10
2.464
 20
612.974
 11
2.22017
 21
613.151
  0
LINE
  8
0
 10
2.22017
 20
613.151
 11
2.00047
 21
613.357
  0
LINE
  8
0
 10
2.00047
 20
613.357
 11
1.80835
 21
613.589
  0
LINE
  8
0
 10
1.80835
 20
613.589
 11
1.64685
 21
613.844
  0
LINE
  8
0
 10
1.64685
 20
613.844
 11
1.51852
 21
614.117
  0
LINE
  8
0
 10
1.51852
 20
614.117
 11
1.4254
 21
614.403
  0
LINE
  8
0
 10
1.4254
 20
614.403
 11
1.36891
 21
614.699
  0
LINE
  8
0
 10
1.36891
 20
614.699
 11
1.34999
 21
615
  0
LINE
  8
0
 10
1.34999
 20
615
 11
1.36891
 21
615.301
  0
LINE
  8
0
 10
1.36891
 20
615.301
 11
1.4254
 21
615.597
  0
LINE
  8
0
 10
1.4254
 20
615.597
 11
1.51852
 21
615.883
  0
LINE
  8
0
 10
1.51852
 20
615.883
 11
1.64685
 21
616.156
  0
LINE
  8
0
 10
1.64685
 20
616.156
 11
1.80835
 21
616.411
  0
LINE
  8
0
 10
1.80835
 20
616.411
 11
2.00047
 21
616.643
  0
LINE
  8
0
 10
2.00047
 20
616.643
 11
2.22017
 21
616.849
  0
LINE
  8
0
 10
2.22017
 20
616.849
 11
2.464
 21
617.026
  0
LINE
  8
0
 10
2.464
 20
617.026
 11
2.72812
 21
617.172
  0
LINE
  8
0
 10
2.72812
 20
617.172
 11
3.00835
 21
617.283
  0
LINE
  8
0
 10
3.00835
 20
617.283
 11
3.30028
 21
617.357
  0
LINE
  8
0
 10
3.30028
 20
617.357
 11
3.59929
 21
617.395
  0
LINE
  8
0
 10
3.59929
 20
617.395
 11
3.9007
 21
617.395
  0
LINE
  8
0
 10
3.9007
 20
617.395
 11
4.19971
 21
617.357
  0
LINE
  8
0
 10
4.19971
 20
617.357
 11
4.49164
 21
617.283
  0
LINE
  8
0
 10
4.49164
 20
617.283
 11
4.77187
 21
617.172
  0
LINE
  8
0
 10
4.77187
 20
617.172
 11
5.03598
 21
617.026
  0
LINE
  8
0
 10
5.03598
 20
617.026
 11
5.27982
 21
616.849
  0
LINE
  8
0
 10
5.27982
 20
616.849
 11
5.49951
 21
616.643
  0
LINE
  8
0
 10
5.49951
 20
616.643
 11
5.69164
 21
616.411
  0
LINE
  8
0
 10
5.69164
 20
616.411
 11
5.85313
 21
616.156
  0
LINE
  8
0
 10
5.85313
 20
616.156
 11
5.98146
 21
615.883
  0
LINE
  8
0
 10
5.98146
 20
615.883
 11
6.07458
 21
615.597
  0
LINE
  8
0
 10
6.07458
 20
615.597
 11
6.13107
 21
615.301
  0
LINE
  8
0
 10
6.13107
 20
615.301
 11
6.14999
 21
615
  0
LINE
  8
0
 10
6.14999
 20
615
 11
6.13107
 21
614.699
  0
LINE
  8
0
 10
6.13107
 20
614.699
 11
6.07458
 21
614.403
  0
LINE
  8
0
 10
6.07458
 20
614.403
 11
5.98146
 21
614.117
  0
LINE
  8
0
 10
5.98146
 20
614.117
 11
5.85313
 21
613.844
  0
LINE
  8
0
 10
5.85313
 20
613.844
 11
5.69164
 21
613.589
  0
LINE
  8
0
 10
5.69164
 20
613.589
 11
5.49951
 21
613.357
  0
LINE
  8
0
 10
5.49951
 20
613.357
 11
5.27982
 21
613.151
  0
LINE
  8
0
 10
5.27982
 20
613.151
 11
5.03598
 21
612.974
  0
LINE
  8
0
 10
5.03598
 20
612.974
 11
4.77187
 21
612.828
  0
LINE
  8
0
 10
4.77187
 20
612.828
 11
4.49164
 21
612.717
  0
LINE
  8
0
 10
4.49164
 20
612.717
 11
4.19971
 21
612.643
  0
LINE
  8
0
 10
4.19971
 20
612.643
 11
3.9007
 21
612.605
  0
LINE
  8
0
 10
3.9007
 20
612.605
 11
3.59929
 21
612.605
  0
LINE
  8
0
 10
-3.9007
 20
612.605
 11
-4.19971
 21
612.643
  0
LINE
  8
0
 10
-4.19971
 20
612.643
 11
-4.49164
 21
612.717
  0
LINE
  8
0
 10
-4.49164
 20
612.717
 11
-4.77187
 21
612.828
  0
LINE
  8
0
 10
-4.77187
 20
612.828
 11
-5.03598
 21
612.974
  0
LINE
  8
0
 10
-5.03598
 20
612.974
 11
-5.27982
 21
613.151
  0
LINE
  8
0
 10
-5.27982
 20
613.151
 11
-5.49951
 21
613.357
  0
LINE
  8
0
 10
-5.49951
 20
613.357
 11
-5.69164
 21
613.589
  0
LINE
  8
0
 10
-5.69164
 20
613.589
 11
-5.85313
 21
613.844
  0
LINE
  8
0
 10
-5.85313
 20
613.844
 11
-5.98146
 21
614.117
  0
LINE
  8
0
 10
-5.98146
 20
614.117
 11
-6.07458
 21
614.403
  0
LINE
  8
0
 10
-6.07458
 20
614.403
 11
-6.13107
 21
614.699
  0
LINE
  8
0
 10
-6.13107
 20
614.699
 11
-6.14999
 21
615
  0
LINE
  8
0
 10
-6.14999
 20
615
 11
-6.13107
 21
615.301
  0
LINE
  8
0
 10
-6.13107
 20
615.301
 11
-6.07458
 21
615.597
  0
LINE
  8
0
 10
-6.07458
 20
615.597
 11
-5.98146
 21
615.883
  0
LINE
  8
0
 10
-5.98146
 20
615.883
 11
-5.85313
 21
616.156
  0
LINE
  8
0
 10
-5.85313
 20
616.156
 11
-5.69164
 21
616.411
  0
LINE
  8
0
 10
-5.69164
 20
616.411
 11
-5.49951
 21
616.643
  0
LINE
  8
0
 10
-5.49951
 20
616.643
 11
-5.27982
 21
616.849
  0
LINE
  8
0
 10
-5.27982
 20
616.849
 11
-5.03598
 21
617.026
  0
LINE
  8
0
 10
-5.03598
 20
617.026
 11
-4.77187
 21
617.172
  0
LINE
  8
0
 10
-4.77187
 20
617.172
 11
-4.49164
 21
617.283
  0
LINE
  8
0
 10
-4.49164
 20
617.283
 11
-4.19971
 21
617.357
  0
LINE
  8
0
 10
-4.19971
 20
617.357
 11
-3.9007
 21
617.395
  0
LINE
  8
0
 10
-3.9007
 20
617.395
 11
-3.59929
 21
617.395
  0
LINE
  8
0
 10
-3.59929
 20
617.395
 11
-3.30028
 21
617.357
  0
LINE
  8
0
 10
-3.30028
 20
617.357
 11
-3.00835
 21
617.283
  0
LINE
  8
0
 10
-3.00835
 20
617.283
 11
-2.72812
 21
617.172
  0
LINE
  8
0
 10
-2.72812
 20
617.172
 11
-2.464
 21
617.026
  0
LINE
  8
0
 10
-2.464
 20
617.026
 11
-2.22017
 21
616.849
  0
LINE
  8
0
 10
-2.22017
 20
616.849
 11
-2.00047
 21
616.643
  0
LINE
  8
0
 10
-2.00047
 20
616.643
 11
-1.80835
 21
616.411
  0
LINE
  8
0
 10
-1.80835
 20
616.411
 11
-1.64685
 21
616.156
  0
LINE
  8
0
 10
-1.64685
 20
616.156
 11
-1.51852
 21
615.883
  0
LINE
  8
0
 10
-1.51852
 20
615.883
 11
-1.4254
 21
615.597
  0
LINE
  8
0
 10
-1.4254
 20
615.597
 11
-1.36891
 21
615.301
  0
LINE
  8
0
 10
-1.36891
 20
615.301
 11
-1.34999
 21
615
  0
LINE
  8
0
 10
-1.34999
 20
615
 11
-1.36891
 21
614.699
  0
LINE
  8
0
 10
-1.36891
 20
614.699
 11
-1.4254
 21
614.403
  0
LINE
  8
0
 10
-1.4254
 20
614.403
 11
-1.51852
 21
614.117
  0
LINE
  8
0
 10
-1.51852
 20
614.117
 11
-1.64685
 21
613.844
  0
LINE
  8
0
 10
-1.64685
 20
613.844
 11
-1.80835
 21
613.589
  0
LINE
  8
0
 10
-1.80835
 20
613.589
 11
-2.00047
 21
613.357
  0
LINE
  8
0
 10
-2.00047
 20
613.357
 11
-2.22017
 21
613.151
  0
LINE
  8
0
 10
-2.22017
 20
613.151
 11
-2.464
 21
612.974
  0
LINE
  8
0
 10
-2.464
 20
612.974
 11
-2.72812
 21
612.828
  0
LINE
  8
0
 10
-2.72812
 20
612.828
 11
-3.00835
 21
612.717
  0
LINE
  8
0
 10
-3.00835
 20
612.717
 11
-3.30028
 21
612.643
  0
LINE
  8
0
 10
-3.30028
 20
612.643
 11
-3.59929
 21
612.605
  0
LINE
  8
0
 10
-3.59929
 20
612.605
 11
-3.9007
 21
612.605
  0
LINE
  8
0
 10
3.59929
 20
522.605
 11
3.30028
 21
522.643
  0
LINE
  8
0
 10
3.30028
 20
522.643
 11
3.00835
 21
522.717
  0
LINE
  8
0
 10
3.00835
 20
522.717
 11
2.72812
 21
522.828
  0
LINE
  8
0
 10
2.72812
 20
522.828
 11
2.464
 21
522.974
  0
LINE
  8
0
 10
2.464
 20
522.974
 11
2.22017
 21
523.151
  0
LINE
  8
0
 10
2.22017
 20
523.151
 11
2.00047
 21
523.357
  0
LINE
  8
0
 10
2.00047
 20
523.357
 11
1.80835
 21
523.589
  0
LINE
  8
0
 10
1.80835
 20
523.589
 11
1.64685
 21
523.844
  0
LINE
  8
0
 10
1.64685
 20
523.844
 11
1.51852
 21
524.117
  0
LINE
  8
0
 10
1.51852
 20
524.117
 11
1.4254
 21
524.403
  0
LINE
  8
0
 10
1.4254
 20
524.403
 11
1.36891
 21
524.699
  0
LINE
  8
0
 10
1.36891
 20
524.699
 11
1.34999
 21
525
  0
LINE
  8
0
 10
1.34999
 20
525
 11
1.36891
 21
525.301
  0
LINE
  8
0
 10
1.36891
 20
525.301
 11
1.4254
 21
525.597
  0
LINE
  8
0
 10
1.4254
 20
525.597
 11
1.51852
 21
525.883
  0
LINE
  8
0
 10
1.51852
 20
525.883
 11
1.64685
 21
526.156
  0
LINE
  8
0
 10
1.64685
 20
526.156
 11
1.80835
 21
526.411
  0
LINE
  8
0
 10
1.80835
 20
526.411
 11
2.00047
 21
526.643
  0
LINE
  8
0
 10
2.00047
 20
526.643
 11
2.22017
 21
526.849
  0
LINE
  8
0
 10
2.22017
 20
526.849
 11
2.464
 21
527.026
  0
LINE
  8
0
 10
2.464
 20
527.026
 11
2.72812
 21
527.172
  0
LINE
  8
0
 10
2.72812
 20
527.172
 11
3.00835
 21
527.283
  0
LINE
  8
0
 10
3.00835
 20
527.283
 11
3.30028
 21
527.357
  0
LINE
  8
0
 10
3.30028
 20
527.357
 11
3.59929
 21
527.395
  0
LINE
  8
0
 10
3.59929
 20
527.395
 11
3.9007
 21
527.395
  0
LINE
  8
0
 10
3.9007
 20
527.395
 11
4.19971
 21
527.357
  0
LINE
  8
0
 10
4.19971
 20
527.357
 11
4.49164
 21
527.283
  0
LINE
  8
0
 10
4.49164
 20
527.283
 11
4.77187
 21
527.172
  0
LINE
  8
0
 10
4.77187
 20
527.172
 11
5.03598
 21
527.026
  0
LINE
  8
0
 10
5.03598
 20
527.026
 11
5.27982
 21
526.849
  0
LINE
  8
0
 10
5.27982
 20
526.849
 11
5.49951
 21
526.643
  0
LINE
  8
0
 10
5.49951
 20
526.643
 11
5.69164
 21
526.411
  0
LINE
  8
0
 10
5.69164
 20
526.411
 11
5.85313
 21
526.156
  0
LINE
  8
0
 10
5.85313
 20
526.156
 11
5.98146
 21
525.883
  0
LINE
  8
0
 10
5.98146
 20
525.883
 11
6.07458
 21
525.597
  0
LINE
  8
0
 10
6.07458
 20
525.597
 11
6.13107
 21
525.301
  0
LINE
  8
0
 10
6.13107
 20
525.301
 11
6.14999
 21
525
  0
LINE
  8
0
 10
6.14999
 20
525
 11
6.13107
 21
524.699
  0
LINE
  8
0
 10
6.13107
 20
524.699
 11
6.07458
 21
524.403
  0
LINE
  8
0
 10
6.07458
 20
524.403
 11
5.98146
 21
524.117
  0
LINE
  8
0
 10
5.98146
 20
524.117
 11
5.85313
 21
523.844
  0
LINE
  8
0
 10
5.85313
 20
523.844
 11
5.69164
 21
523.589
  0
LINE
  8
0
 10
5.69164
 20
523.589
 11
5.49951
 21
523.357
  0
LINE
  8
0
 10
5.49951
 20
523.357
 11
5.27982
 21
523.151
  0
LINE
  8
0
 10
5.27982
 20
523.151
 11
5.03598
 21
522.974
  0
LINE
  8
0
 10
5.03598
 20
522.974
 11
4.77187
 21
522.828
  0
LINE
  8
0
 10
4.77187
 20
522.828
 11
4.49164
 21
522.717
  0
LINE
  8
0
 10
4.49164
 20
522.717
 11
4.19971
 21
522.643
  0
LINE
  8
0
 10
4.19971
 20
522.643
 11
3.9007
 21
522.605
  0
LINE
  8
0
 10
3.9007
 20
522.605
 11
3.59929
 21
522.605
  0
LINE
  8
0
 10
-3.9007
 20
522.605
 11
-4.19971
 21
522.643
  0
LINE
  8
0
 10
-4.19971
 20
522.643
 11
-4.49164
 21
522.717
  0
LINE
  8
0
 10
-4.49164
 20
522.717
 11
-4.77187
 21
522.828
  0
LINE
  8
0
 10
-4.77187
 20
522.828
 11
-5.03598
 21
522.974
  0
LINE
  8
0
 10
-5.03598
 20
522.974
 11
-5.27982
 21
523.151
  0
LINE
  8
0
 10
-5.27982
 20
523.151
 11
-5.49951
 21
523.357
  0
LINE
  8
0
 10
-5.49951
 20
523.357
 11
-5.69164
 21
523.589
  0
LINE
  8
0
 10
-5.69164
 20
523.589
 11
-5.85313
 21
523.844
  0
LINE
  8
0
 10
-5.85313
 20
523.844
 11
-5.98146
 21
524.117
  0
LINE
  8
0
 10
-5.98146
 20
524.117
 11
-6.07458
 21
524.403
  0
LINE
  8
0
 10
-6.07458
 20
524.403
 11
-6.13107
 21
524.699
  0
LINE
  8
0
 10
-6.13107
 20
524.699
 11
-6.14999
 21
525
  0
LINE
  8
0
 10
-6.14999
 20
525
 11
-6.13107
 21
525.301
  0
LINE
  8
0
 10
-6.13107
 20
525.301
 11
-6.07458
 21
525.597
  0
LINE
  8
0
 10
-6.07458
 20
525.597
 11
-5.98146
 21
525.883
  0
LINE
  8
0
 10
-5.98146
 20
525.883
 11
-5.85313
 21
526.156
  0
LINE
  8
0
 10
-5.85313
 20
526.156
 11
-5.69164
 21
526.411
  0
LINE
  8
0
 10
-5.69164
 20
526.411
 11
-5.49951
 21
526.643
  0
LINE
  8
0
 10
-5.49951
 20
526.643
 11
-5.27982
 21
526.849
  0
LINE
  8
0
 10
-5.27982
 20
526.849
 11
-5.03598
 21
527.026
  0
LINE
  8
0
 10
-5.03598
 20
527.026
 11
-4.77187
 21
527.172
  0
LINE
  8
0
 10
-4.77187
 20
527.172
 11
-4.49164
 21
527.283
  0
LINE
  8
0
 10
-4.49164
 20
527.283
 11
-4.19971
 21
527.357
  0
LINE
  8
0
 10
-4.19971
 20
527.357
 11
-3.9007
 21
527.395
  0
LINE
  8
0
 10
-3.9007
 20
527.395
 11
-3.59929
 21
527.395
  0
LINE
  8
0
 10
-3.59929
 20
527.395
 11
-3.30028
 21
527.357
  0
LINE
  8
0
 10
-3.30028
 20
527.357
 11
-3.00835
 21
527.283
  0
LINE
  8
0
 10
-3.00835
 20
527.283
 11
-2.72812
 21
527.172
  0
LINE
  8
0
 10
-2.72812
 20
527.172
 11
-2.464
 21
527.026
  0
LINE
  8
0
 10
-2.464
 20
527.026
 11
-2.22017
 21
526.849
  0
LINE
  8
0
 10
-2.22017
 20
526.849
 11
-2.00047
 21
526.643
  0
LINE
  8
0
 10
-2.00047
 20
526.643
 11
-1.80835
 21
526.411
  0
LINE
  8
0
 10
-1.80835
 20
526.411
 11
-1.64685
 21
526.156
  0
LINE
  8
0
 10
-1.64685
 20
526.156
 11
-1.51852
 21
525.883
  0
LINE
  8
0
 10
-1.51852
 20
525.883
 11
-1.4254
 21
525.597
  0
LINE
  8
0
 10
-1.4254
 20
525.597
 11
-1.36891
 21
525.301
  0
LINE
  8
0
 10
-1.36891
 20
525.301
 11
-1.34999
 21
525
  0
LINE
  8
0
 10
-1.34999
 20
525
 11
-1.36891
 21
524.699
  0
LINE
  8
0
 10
-1.36891
 20
524.699
 11
-1.4254
 21
524.403
  0
LINE
  8
0
 10
-1.4254
 20
524.403
 11
-1.51852
 21
524.117
  0
LINE
  8
0
 10
-1.51852
 20
524.117
 11
-1.64685
 21
523.844
  0
LINE
  8
0
 10
-1.64685
 20
523.844
 11
-1.80835
 21
523.589
  0
LINE
  8
0
 10
-1.80835
 20
523.589
 11
-2.00047
 21
523.357
  0
LINE
  8
0
 10
-2.00047
 20
523.357
 11
-2.22017
 21
523.151
  0
LINE
  8
0
 10
-2.22017
 20
523.151
 11
-2.464
 21
522.974
  0
LINE
  8
0
 10
-2.464
 20
522.974
 11
-2.72812
 21
522.828
  0
LINE
  8
0
 10
-2.72812
 20
522.828
 11
-3.00835
 21
522.717
  0
LINE
  8
0
 10
-3.00835
 20
522.717
 11
-3.30028
 21
522.643
  0
LINE
  8
0
 10
-3.30028
 20
522.643
 11
-3.59929
 21
522.605
  0
LINE
  8
0
 10
-3.59929
 20
522.605
 11
-3.9007
 21
522.605
  0
LINE
  8
0
 10
7.1869
 20
403.589
 11
7.79507
 21
403.745
  0
LINE
  8
0
 10
7.79507
 20
403.745
 11
8.37889
 21
403.976
  0
LINE
  8
0
 10
8.37889
 20
403.976
 11
8.92912
 21
404.278
  0
LINE
  8
0
 10
8.92912
 20
404.278
 11
9.43712
 21
404.647
  0
LINE
  8
0
 10
9.43712
 20
404.647
 11
9.89484
 21
405.077
  0
LINE
  8
0
 10
9.89484
 20
405.077
 11
10.2951
 21
405.561
  0
LINE
  8
0
 10
10.2951
 20
405.561
 11
10.6315
 21
406.091
  0
LINE
  8
0
 10
10.6315
 20
406.091
 11
10.8989
 21
406.659
  0
LINE
  8
0
 10
10.8989
 20
406.659
 11
11.0929
 21
407.257
  0
LINE
  8
0
 10
11.0929
 20
407.257
 11
11.2106
 21
407.873
  0
LINE
  8
0
 10
11.2106
 20
407.873
 11
11.25
 21
408.5
  0
LINE
  8
0
 10
11.25
 20
408.5
 11
11.25
 21
503.5
  0
LINE
  8
0
 10
11.25
 20
503.5
 11
11.2106
 21
504.127
  0
LINE
  8
0
 10
11.2106
 20
504.127
 11
11.0929
 21
504.743
  0
LINE
  8
0
 10
11.0929
 20
504.743
 11
10.8989
 21
505.341
  0
LINE
  8
0
 10
10.8989
 20
505.341
 11
10.6315
 21
505.909
  0
LINE
  8
0
 10
10.6315
 20
505.909
 11
10.2951
 21
506.439
  0
LINE
  8
0
 10
10.2951
 20
506.439
 11
9.89484
 21
506.923
  0
LINE
  8
0
 10
9.89484
 20
506.923
 11
9.43712
 21
507.353
  0
LINE
  8
0
 10
9.43712
 20
507.353
 11
8.92912
 21
507.722
  0
LINE
  8
0
 10
8.92912
 20
507.722
 11
8.37889
 21
508.024
  0
LINE
  8
0
 10
8.37889
 20
508.024
 11
7.79507
 21
508.255
  0
LINE
  8
0
 10
7.79507
 20
508.255
 11
7.1869
 21
508.411
  0
LINE
  8
0
 10
7.1869
 20
508.411
 11
6.56395
 21
508.49
  0
LINE
  8
0
 10
6.56395
 20
508.49
 11
-6.56395
 21
508.49
  0
LINE
  8
0
 10
-6.56395
 20
508.49
 11
-7.1869
 21
508.411
  0
LINE
  8
0
 10
-7.1869
 20
508.411
 11
-7.79507
 21
508.255
  0
LINE
  8
0
 10
-7.79507
 20
508.255
 11
-8.37889
 21
508.024
  0
LINE
  8
0
 10
-8.37889
 20
508.024
 11
-8.92912
 21
507.722
  0
LINE
  8
0
 10
-8.92912
 20
507.722
 11
-9.43712
 21
507.353
  0
LINE
  8
0
 10
-9.43712
 20
507.353
 11
-9.89484
 21
506.923
  0
LINE
  8
0
 10
-9.89484
 20
506.923
 11
-10.2951
 21
506.439
  0
LINE
  8
0
 10
-10.2951
 20
506.439
 11
-10.6315
 21
505.909
  0
LINE
  8
0
 10
-10.6315
 20
505.909
 11
-10.8989
 21
505.341
  0
LINE
  8
0
 10
-10.8989
 20
505.341
 11
-11.0929
 21
504.743
  0
LINE
  8
0
 10
-11.0929
 20
504.743
 11
-11.2106
 21
504.127
  0
LINE
  8
0
 10
-11.2106
 20
504.127
 11
-11.25
 21
503.5
  0
LINE
  8
0
 10
-11.25
 20
503.5
 11
-11.25
 21
408.5
  0
LINE
  8
0
 10
-11.25
 20
408.5
 11
-11.2106
 21
407.873
  0
LINE
  8
0
 10
-11.2106
 20
407.873
 11
-11.0929
 21
407.257
  0
LINE
  8
0
 10
-11.0929
 20
407.257
 11
-10.8989
 21
406.659
  0
LINE
  8
0
 10
-10.8989
 20
406.659
 11
-10.6315
 21
406.091
  0
LINE
  8
0
 10
-10.6315
 20
406.091
 11
-10.2951
 21
405.561
  0
LINE
  8
0
 10
-10.2951
 20
405.561
 11
-9.89484
 21
405.077
  0
LINE
  8
0
 10
-9.89484
 20
405.077
 11
-9.43712
 21
404.647
  0
LINE
  8
0
 10
-9.43712
 20
404.647
 11
-8.92912
 21
404.278
  0
LINE
  8
0
 10
-8.92912
 20
404.278
 11
-8.37889
 21
403.976
  0
LINE
  8
0
 10
-8.37889
 20
403.976
 11
-7.79507
 21
403.745
  0
LINE
  8
0
 10
-7.79507
 20
403.745
 11
-7.1869
 21
403.589
  0
LINE
  8
0
 10
-7.1869
 20
403.589
 11
-6.56395
 21
403.51
  0
LINE
  8
0
 10
-6.56395
 20
403.51
 11
6.56395
 21
403.51
  0
LINE
  8
0
 10
6.56395
 20
403.51
 11
7.1869
 21
403.589
  0
LINE
  8
0
 10
3.63696
 20
499.204
 11
3.4127
 21
499.232
  0
LINE
  8
0
 10
3.4127
 20
499.232
 11
3.19376
 21
499.288
  0
LINE
  8
0
 10
3.19376
 20
499.288
 11
2.9836
 21
499.371
  0
LINE
  8
0
 10
2.9836
 20
499.371
 11
2.78551
 21
499.48
  0
LINE
  8
0
 10
2.78551
 20
499.48
 11
2.60263
 21
499.613
  0
LINE
  8
0
 10
2.60263
 20
499.613
 11
2.43785
 21
499.768
  0
LINE
  8
0
 10
2.43785
 20
499.768
 11
2.29376
 21
499.942
  0
LINE
  8
0
 10
2.29376
 20
499.942
 11
2.17264
 21
500.133
  0
LINE
  8
0
 10
2.17264
 20
500.133
 11
2.0764
 21
500.337
  0
LINE
  8
0
 10
2.0764
 20
500.337
 11
2.00655
 21
500.552
  0
LINE
  8
0
 10
2.00655
 20
500.552
 11
1.96419
 21
500.774
  0
LINE
  8
0
 10
1.96419
 20
500.774
 11
1.95
 21
501
  0
LINE
  8
0
 10
1.95
 20
501
 11
1.96419
 21
501.226
  0
LINE
  8
0
 10
1.96419
 20
501.226
 11
2.00655
 21
501.448
  0
LINE
  8
0
 10
2.00655
 20
501.448
 11
2.0764
 21
501.663
  0
LINE
  8
0
 10
2.0764
 20
501.663
 11
2.17264
 21
501.867
  0
LINE
  8
0
 10
2.17264
 20
501.867
 11
2.29376
 21
502.058
  0
LINE
  8
0
 10
2.29376
 20
502.058
 11
2.43785
 21
502.232
  0
LINE
  8
0
 10
2.43785
 20
502.232
 11
2.60263
 21
502.387
  0
LINE
  8
0
 10
2.60263
 20
502.387
 11
2.78551
 21
502.52
  0
LINE
  8
0
 10
2.78551
 20
502.52
 11
2.9836
 21
502.629
  0
LINE
  8
0
 10
2.9836
 20
502.629
 11
3.19376
 21
502.712
  0
LINE
  8
0
 10
3.19376
 20
502.712
 11
3.4127
 21
502.768
  0
LINE
  8
0
 10
3.4127
 20
502.768
 11
3.63696
 21
502.796
  0
LINE
  8
0
 10
3.63696
 20
502.796
 11
3.86302
 21
502.796
  0
LINE
  8
0
 10
3.86302
 20
502.796
 11
4.08728
 21
502.768
  0
LINE
  8
0
 10
4.08728
 20
502.768
 11
4.30623
 21
502.712
  0
LINE
  8
0
 10
4.30623
 20
502.712
 11
4.51639
 21
502.629
  0
LINE
  8
0
 10
4.51639
 20
502.629
 11
4.71448
 21
502.52
  0
LINE
  8
0
 10
4.71448
 20
502.52
 11
4.89735
 21
502.387
  0
LINE
  8
0
 10
4.89735
 20
502.387
 11
5.06213
 21
502.232
  0
LINE
  8
0
 10
5.06213
 20
502.232
 11
5.20622
 21
502.058
  0
LINE
  8
0
 10
5.20622
 20
502.058
 11
5.32735
 21
501.867
  0
LINE
  8
0
 10
5.32735
 20
501.867
 11
5.42358
 21
501.663
  0
LINE
  8
0
 10
5.42358
 20
501.663
 11
5.49344
 21
501.448
  0
LINE
  8
0
 10
5.49344
 20
501.448
 11
5.5358
 21
501.226
  0
LINE
  8
0
 10
5.5358
 20
501.226
 11
5.54999
 21
501
  0
LINE
  8
0
 10
5.54999
 20
501
 11
5.5358
 21
500.774
  0
LINE
  8
0
 10
5.5358
 20
500.774
 11
5.49344
 21
500.552
  0
LINE
  8
0
 10
5.49344
 20
500.552
 11
5.42358
 21
500.337
  0
LINE
  8
0
 10
5.42358
 20
500.337
 11
5.32735
 21
500.133
  0
LINE
  8
0
 10
5.32735
 20
500.133
 11
5.20622
 21
499.942
  0
LINE
  8
0
 10
5.20622
 20
499.942
 11
5.06213
 21
499.768
  0
LINE
  8
0
 10
5.06213
 20
499.768
 11
4.89735
 21
499.613
  0
LINE
  8
0
 10
4.89735
 20
499.613
 11
4.71448
 21
499.48
  0
LINE
  8
0
 10
4.71448
 20
499.48
 11
4.51639
 21
499.371
  0
LINE
  8
0
 10
4.51639
 20
499.371
 11
4.30623
 21
499.288
  0
LINE
  8
0
 10
4.30623
 20
499.288
 11
4.08728
 21
499.232
  0
LINE
  8
0
 10
4.08728
 20
499.232
 11
3.86302
 21
499.204
  0
LINE
  8
0
 10
3.86302
 20
499.204
 11
3.63696
 21
499.204
  0
LINE
  8
0
 10
-3.86302
 20
499.204
 11
-4.08728
 21
499.232
  0
LINE
  8
0
 10
-4.08728
 20
499.232
 11
-4.30623
 21
499.288
  0
LINE
  8
0
 10
-4.30623
 20
499.288
 11
-4.51639
 21
499.371
  0
LINE
  8
0
 10
-4.51639
 20
499.371
 11
-4.71448
 21
499.48
  0
LINE
  8
0
 10
-4.71448
 20
499.48
 11
-4.89735
 21
499.613
  0
LINE
  8
0
 10
-4.89735
 20
499.613
 11
-5.06213
 21
499.768
  0
LINE
  8
0
 10
-5.06213
 20
499.768
 11
-5.20622
 21
499.942
  0
LINE
  8
0
 10
-5.20622
 20
499.942
 11
-5.32735
 21
500.133
  0
LINE
  8
0
 10
-5.32735
 20
500.133
 11
-5.42358
 21
500.337
  0
LINE
  8
0
 10
-5.42358
 20
500.337
 11
-5.49344
 21
500.552
  0
LINE
  8
0
 10
-5.49344
 20
500.552
 11
-5.5358
 21
500.774
  0
LINE
  8
0
 10
-5.5358
 20
500.774
 11
-5.54999
 21
501
  0
LINE
  8
0
 10
-5.54999
 20
501
 11
-5.5358
 21
501.226
  0
LINE
  8
0
 10
-5.5358
 20
501.226
 11
-5.49344
 21
501.448
  0
LINE
  8
0
 10
-5.49344
 20
501.448
 11
-5.42358
 21
501.663
  0
LINE
  8
0
 10
-5.42358
 20
501.663
 11
-5.32735
 21
501.867
  0
LINE
  8
0
 10
-5.32735
 20
501.867
 11
-5.20622
 21
502.058
  0
LINE
  8
0
 10
-5.20622
 20
502.058
 11
-5.06213
 21
502.232
  0
LINE
  8
0
 10
-5.06213
 20
502.232
 11
-4.89735
 21
502.387
  0
LINE
  8
0
 10
-4.89735
 20
502.387
 11
-4.71448
 21
502.52
  0
LINE
  8
0
 10
-4.71448
 20
502.52
 11
-4.51639
 21
502.629
  0
LINE
  8
0
 10
-4.51639
 20
502.629
 11
-4.30623
 21
502.712
  0
LINE
  8
0
 10
-4.30623
 20
502.712
 11
-4.08728
 21
502.768
  0
LINE
  8
0
 10
-4.08728
 20
502.768
 11
-3.86302
 21
502.796
  0
LINE
  8
0
 10
-3.86302
 20
502.796
 11
-3.63696
 21
502.796
  0
LINE
  8
0
 10
-3.63696
 20
502.796
 11
-3.4127
 21
502.768
  0
LINE
  8
0
 10
-3.4127
 20
502.768
 11
-3.19376
 21
502.712
  0
LINE
  8
0
 10
-3.19376
 20
502.712
 11
-2.9836
 21
502.629
  0
LINE
  8
0
 10
-2.9836
 20
502.629
 11
-2.78551
 21
502.52
  0
LINE
  8
0
 10
-2.78551
 20
502.52
 11
-2.60263
 21
502.387
  0
LINE
  8
0
 10
-2.60263
 20
502.387
 11
-2.43785
 21
502.232
  0
LINE
  8
0
 10
-2.43785
 20
502.232
 11
-2.29376
 21
502.058
  0
LINE
  8
0
 10
-2.29376
 20
502.058
 11
-2.17264
 21
501.867
  0
LINE
  8
0
 10
-2.17264
 20
501.867
 11
-2.0764
 21
501.663
  0
LINE
  8
0
 10
-2.0764
 20
501.663
 11
-2.00655
 21
501.448
  0
LINE
  8
0
 10
-2.00655
 20
501.448
 11
-1.96419
 21
501.226
  0
LINE
  8
0
 10
-1.96419
 20
501.226
 11
-1.95
 21
501
  0
LINE
  8
0
 10
-1.95
 20
501
 11
-1.96419
 21
500.774
  0
LINE
  8
0
 10
-1.96419
 20
500.774
 11
-2.00655
 21
500.552
  0
LINE
  8
0
 10
-2.00655
 20
500.552
 11
-2.0764
 21
500.337
  0
LINE
  8
0
 10
-2.0764
 20
500.337
 11
-2.17264
 21
500.133
  0
LINE
  8
0
 10
-2.17264
 20
500.133
 11
-2.29376
 21
499.942
  0
LINE
  8
0
 10
-2.29376
 20
499.942
 11
-2.43785
 21
499.768
  0
LINE
  8
0
 10
-2.43785
 20
499.768
 11
-2.60263
 21
499.613
  0
LINE
  8
0
 10
-2.60263
 20
499.613
 11
-2.78551
 21
499.48
  0
LINE
  8
0
 10
-2.78551
 20
499.48
 11
-2.9836
 21
499.371
  0
LINE
  8
0
 10
-2.9836
 20
499.371
 11
-3.19376
 21
499.288
  0
LINE
  8
0
 10
-3.19376
 20
499.288
 11
-3.4127
 21
499.232
  0
LINE
  8
0
 10
-3.4127
 20
499.232
 11
-3.63696
 21
499.204
  0
LINE
  8
0
 10
-3.63696
 20
499.204
 11
-3.86302
 21
499.204
  0
LINE
  8
0
 10
-3.86302
 20
409.204
 11
-4.08728
 21
409.232
  0
LINE
  8
0
 10
-4.08728
 20
409.232
 11
-4.30623
 21
409.288
  0
LINE
  8
0
 10
-4.30623
 20
409.288
 11
-4.51639
 21
409.371
  0
LINE
  8
0
 10
-4.51639
 20
409.371
 11
-4.71448
 21
409.48
  0
LINE
  8
0
 10
-4.71448
 20
409.48
 11
-4.89735
 21
409.613
  0
LINE
  8
0
 10
-4.89735
 20
409.613
 11
-5.06213
 21
409.768
  0
LINE
  8
0
 10
-5.06213
 20
409.768
 11
-5.20622
 21
409.942
  0
LINE
  8
0
 10
-5.20622
 20
409.942
 11
-5.32735
 21
410.133
  0
LINE
  8
0
 10
-5.32735
 20
410.133
 11
-5.42358
 21
410.337
  0
LINE
  8
0
 10
-5.42358
 20
410.337
 11
-5.49344
 21
410.552
  0
LINE
  8
0
 10
-5.49344
 20
410.552
 11
-5.5358
 21
410.774
  0
LINE
  8
0
 10
-5.5358
 20
410.774
 11
-5.54999
 21
411
  0
LINE
  8
0
 10
-5.54999
 20
411
 11
-5.5358
 21
411.226
  0
LINE
  8
0
 10
-5.5358
 20
411.226
 11
-5.49344
 21
411.448
  0
LINE
  8
0
 10
-5.49344
 20
411.448
 11
-5.42358
 21
411.663
  0
LINE
  8
0
 10
-5.42358
 20
411.663
 11
-5.32735
 21
411.867
  0
LINE
  8
0
 10
-5.32735
 20
411.867
 11
-5.20622
 21
412.058
  0
LINE
  8
0
 10
-5.20622
 20
412.058
 11
-5.06213
 21
412.232
  0
LINE
  8
0
 10
-5.06213
 20
412.232
 11
-4.89735
 21
412.387
  0
LINE
  8
0
 10
-4.89735
 20
412.387
 11
-4.71448
 21
412.52
  0
LINE
  8
0
 10
-4.71448
 20
412.52
 11
-4.51639
 21
412.629
  0
LINE
  8
0
 10
-4.51639
 20
412.629
 11
-4.30623
 21
412.712
  0
LINE
  8
0
 10
-4.30623
 20
412.712
 11
-4.08728
 21
412.768
  0
LINE
  8
0
 10
-4.08728
 20
412.768
 11
-3.86302
 21
412.796
  0
LINE
  8
0
 10
-3.86302
 20
412.796
 11
-3.63696
 21
412.796
  0
LINE
  8
0
 10
-3.63696
 20
412.796
 11
-3.4127
 21
412.768
  0
LINE
  8
0
 10
-3.4127
 20
412.768
 11
-3.19376
 21
412.712
  0
LINE
  8
0
 10
-3.19376
 20
412.712
 11
-2.9836
 21
412.629
  0
LINE
  8
0
 10
-2.9836
 20
412.629
 11
-2.78551
 21
412.52
  0
LINE
  8
0
 10
-2.78551
 20
412.52
 11
-2.60263
 21
412.387
  0
LINE
  8
0
 10
-2.60263
 20
412.387
 11
-2.43785
 21
412.232
  0
LINE
  8
0
 10
-2.43785
 20
412.232
 11
-2.29376
 21
412.058
  0
LINE
  8
0
 10
-2.29376
 20
412.058
 11
-2.17264
 21
411.867
  0
LINE
  8
0
 10
-2.17264
 20
411.867
 11
-2.0764
 21
411.663
  0
LINE
  8
0
 10
-2.0764
 20
411.663
 11
-2.00655
 21
411.448
  0
LINE
  8
0
 10
-2.00655
 20
411.448
 11
-1.96419
 21
411.226
  0
LINE
  8
0
 10
-1.96419
 20
411.226
 11
-1.95
 21
411
  0
LINE
  8
0
 10
-1.95
 20
411
 11
-1.96419
 21
410.774
  0
LINE
  8
0
 10
-1.96419
 20
410.774
 11
-2.00655
 21
410.552
  0
LINE
  8
0
 10
-2.00655
 20
410.552
 11
-2.0764
 21
410.337
  0
LINE
  8
0
 10
-2.0764
 20
410.337
 11
-2.17264
 21
410.133
  0
LINE
  8
0
 10
-2.17264
 20
410.133
 11
-2.29376
 21
409.942
  0
LINE
  8
0
 10
-2.29376
 20
409.942
 11
-2.43785
 21
409.768
  0
LINE
  8
0
 10
-2.43785
 20
409.768
 11
-2.60263
 21
409.613
  0
LINE
  8
0
 10
-2.60263
 20
409.613
 11
-2.78551
 21
409.48
  0
LINE
  8
0
 10
-2.78551
 20
409.48
 11
-2.9836
 21
409.371
  0
LINE
  8
0
 10
-2.9836
 20
409.371
 11
-3.19376
 21
409.288
  0
LINE
  8
0
 10
-3.19376
 20
409.288
 11
-3.4127
 21
409.232
  0
LINE
  8
0
 10
-3.4127
 20
409.232
 11
-3.63696
 21
409.204
  0
LINE
  8
0
 10
-3.63696
 20
409.204
 11
-3.86302
 21
409.204
  0
LINE
  8
0
 10
3.63696
 20
409.204
 11
3.4127
 21
409.232
  0
LINE
  8
0
 10
3.4127
 20
409.232
 11
3.19376
 21
409.288
  0
LINE
  8
0
 10
3.19376
 20
409.288
 11
2.9836
 21
409.371
  0
LINE
  8
0
 10
2.9836
 20
409.371
 11
2.78551
 21
409.48
  0
LINE
  8
0
 10
2.78551
 20
409.48
 11
2.60263
 21
409.613
  0
LINE
  8
0
 10
2.60263
 20
409.613
 11
2.43785
 21
409.768
  0
LINE
  8
0
 10
2.43785
 20
409.768
 11
2.29376
 21
409.942
  0
LINE
  8
0
 10
2.29376
 20
409.942
 11
2.17264
 21
410.133
  0
LINE
  8
0
 10
2.17264
 20
410.133
 11
2.0764
 21
410.337
  0
LINE
  8
0
 10
2.0764
 20
410.337
 11
2.00655
 21
410.552
  0
LINE
  8
0
 10
2.00655
 20
410.552
 11
1.96419
 21
410.774
  0
LINE
  8
0
 10
1.96419
 20
410.774
 11
1.95
 21
411
  0
LINE
  8
0
 10
1.95
 20
411
 11
1.96419
 21
411.226
  0
LINE
  8
0
 10
1.96419
 20
411.226
 11
2.00655
 21
411.448
  0
LINE
  8
0
 10
2.00655
 20
411.448
 11
2.0764
 21
411.663
  0
LINE
  8
0
 10
2.0764
 20
411.663
 11
2.17264
 21
411.867
  0
LINE
  8
0
 10
2.17264
 20
411.867
 11
2.29376
 21
412.058
  0
LINE
  8
0
 10
2.29376
 20
412.058
 11
2.43785
 21
412.232
  0
LINE
  8
0
 10
2.43785
 20
412.232
 11
2.60263
 21
412.387
  0
LINE
  8
0
 10
2.60263
 20
412.387
 11
2.78551
 21
412.52
  0
LINE
  8
0
 10
2.78551
 20
412.52
 11
2.9836
 21
412.629
  0
LINE
  8
0
 10
2.9836
 20
412.629
 11
3.19376
 21
412.712
  0
LINE
  8
0
 10
3.19376
 20
412.712
 11
3.4127
 21
412.768
  0
LINE
  8
0
 10
3.4127
 20
412.768
 11
3.63696
 21
412.796
  0
LINE
  8
0
 10
3.63696
 20
412.796
 11
3.86302
 21
412.796
  0
LINE
  8
0
 10
3.86302
 20
412.796
 11
4.08728
 21
412.768
  0
LINE
  8
0
 10
4.08728
 20
412.768
 11
4.30623
 21
412.712
  0
LINE
  8
0
 10
4.30623
 20
412.712
 11
4.51639
 21
412.629
  0
LINE
  8
0
 10
4.51639
 20
412.629
 11
4.71448
 21
412.52
  0
LINE
  8
0
 10
4.71448
 20
412.52
 11
4.89735
 21
412.387
  0
LINE
  8
0
 10
4.89735
 20
412.387
 11
5.06213
 21
412.232
  0
LINE
  8
0
 10
5.06213
 20
412.232
 11
5.20622
 21
412.058
  0
LINE
  8
0
 10
5.20622
 20
412.058
 11
5.32735
 21
411.867
  0
LINE
  8
0
 10
5.32735
 20
411.867
 11
5.42358
 21
411.663
  0
LINE
  8
0
 10
5.42358
 20
411.663
 11
5.49344
 21
411.448
  0
LINE
  8
0
 10
5.49344
 20
411.448
 11
5.5358
 21
411.226
  0
LINE
  8
0
 10
5.5358
 20
411.226
 11
5.54999
 21
411
  0
LINE
  8
0
 10
5.54999
 20
411
 11
5.5358
 21
410.774
  0
LINE
  8
0
 10
5.5358
 20
410.774
 11
5.49344
 21
410.552
  0
LINE
  8
0
 10
5.49344
 20
410.552
 11
5.42358
 21
410.337
  0
LINE
  8
0
 10
5.42358
 20
410.337
 11
5.32735
 21
410.133
  0
LINE
  8
0
 10
5.32735
 20
410.133
 11
5.20622
 21
409.942
  0
LINE
  8
0
 10
5.20622
 20
409.942
 11
5.06213
 21
409.768
  0
LINE
  8
0
 10
5.06213
 20
409.768
 11
4.89735
 21
409.613
  0
LINE
  8
0
 10
4.89735
 20
409.613
 11
4.71448
 21
409.48
  0
LINE
  8
0
 10
4.71448
 20
409.48
 11
4.51639
 21
409.371
  0
LINE
  8
0
 10
4.51639
 20
409.371
 11
4.30623
 21
409.288
  0
LINE
  8
0
 10
4.30623
 20
409.288
 11
4.08728
 21
409.232
  0
LINE
  8
0
 10
4.08728
 20
409.232
 11
3.86302
 21
409.204
  0
LINE
  8
0
 10
3.86302
 20
409.204
 11
3.63696
 21
409.204
  0
ENDSEC
  0
SECTION
  2
OBJECTS
  0
DICTIONARY
  0
ENDSEC
  0
EOF
