<?xml version="1.0" standalone="no"?>
<!DOCTYPE svg PUBLIC "-//W3C//DTD SVG 1.1//EN" "http://www.w3.org/Graphics/SVG/1.1/DTD/svg11.dtd">
<svg width="60mm" height="513mm" viewBox="-30 -605 60 513" xmlns="http://www.w3.org/2000/svg" version="1.1">
<title>OpenSCAD Model</title>
<path d="
M -27,-439.925 L -26.5451,-439.745 L -25.9369,-439.589 L -25.3139,-439.51 L 25.3139,-439.51 L 25.9369,-439.589
 L 26.5451,-439.745 L 27.1289,-439.976 L 27.6791,-440.278 L 28.1871,-440.647 L 28.6448,-441.077 L 29.0451,-441.561
 L 29.3815,-442.091 L 29.6489,-442.659 L 29.8429,-443.257 L 29.9606,-443.873 L 30,-444.5 L 30,-599.5
 L 29.9606,-600.127 L 29.8429,-600.743 L 29.6489,-601.341 L 29.3815,-601.909 L 29.0451,-602.439 L 28.6448,-602.923
 L 28.1871,-603.353 L 27.6791,-603.722 L 27.1289,-604.024 L 26.5451,-604.255 L 25.9369,-604.411 L 25.3139,-604.49
 L -25.3139,-604.49 L -25.9369,-604.411 L -26.5451,-604.255 L -27,-604.075 L -27,-604.49 L -30,-604.49
 L -30,-439.51 L -27,-439.51 z
M -24.6954,-441.893 L -25.0833,-441.942 L -25.4619,-442.039 L -25.8254,-442.183 L -26.168,-442.372 L -26.4842,-442.601
 L -26.7692,-442.869 L -27.0184,-443.17 L -27.2279,-443.5 L -27.3943,-443.854 L -27.5151,-444.226 L -27.5884,-444.61
 L -27.6129,-445 L -27.6129,-599 L -27.5884,-599.39 L -27.5151,-599.774 L -27.3943,-600.146 L -27.2279,-600.5
 L -27.0184,-600.83 L -26.7692,-601.131 L -26.4842,-601.399 L -26.168,-601.628 L -25.8254,-601.817 L -25.4619,-601.961
 L -25.0833,-602.058 L -24.6954,-602.107 L 24.6954,-602.107 L 25.0833,-602.058 L 25.4619,-601.961 L 25.8254,-601.817
 L 26.168,-601.628 L 26.4842,-601.399 L 26.7692,-601.131 L 27.0184,-600.83 L 27.2279,-600.5 L 27.3943,-600.146
 L 27.5151,-599.774 L 27.5884,-599.39 L 27.6129,-599 L 27.6129,-445 L 27.5884,-444.61 L 27.5151,-444.226
 L 27.3943,-443.854 L 27.2279,-443.5 L 27.0184,-443.17 L 26.7692,-442.869 L 26.4842,-442.601 L 26.168,-442.372
 L 25.8254,-442.183 L 25.4619,-442.039 L 25.0833,-441.942 L 24.6954,-441.893 z
M 25.9369,-265.589 L 26.5451,-265.745 L 27.1289,-265.976 L 27.6791,-266.278 L 28.1871,-266.647 L 28.6448,-267.077
 L 29.0451,-267.561 L 29.3815,-268.091 L 29.6489,-268.659 L 29.8429,-269.257 L 29.9606,-269.873 L 30,-270.5
 L 30,-425.5 L 29.9606,-426.127 L 29.8429,-426.743 L 29.6489,-427.341 L 29.3815,-427.909 L 29.0451,-428.439
 L 28.6448,-428.923 L 28.1871,-429.353 L 27.6791,-429.722 L 27.1289,-430.024 L 26.5451,-430.255 L 25.9369,-430.411
 L 25.3139,-430.49 L -25.3139,-430.49 L -25.9369,-430.411 L -26.5451,-430.255 L -27,-430.075 L -27,-430.479
 L -30,-430.479 L -30,-265.521 L -27,-265.521 L -27,-265.925 L -26.5451,-265.745 L -25.9369,-265.589
 L -25.3139,-265.51 L 25.3139,-265.51 z
M 22.3659,-420.869 L 22.0999,-420.903 L 21.8401,-420.969 L 21.5908,-421.068 L 21.3559,-421.197 L 21.1389,-421.355
 L 20.9434,-421.538 L 20.7725,-421.745 L 20.6288,-421.971 L 20.5146,-422.214 L 20.4318,-422.469 L 20.3815,-422.732
 L 20.3647,-423 L 20.3815,-423.268 L 20.4318,-423.531 L 20.5146,-423.786 L 20.6288,-424.029 L 20.7725,-424.255
 L 20.9434,-424.462 L 21.1389,-424.645 L 21.3559,-424.803 L 21.5908,-424.932 L 21.8401,-425.031 L 22.0999,-425.097
 L 22.3659,-425.131 L 22.6341,-425.131 L 22.9001,-425.097 L 23.1598,-425.031 L 23.4091,-424.932 L 23.6441,-424.803
 L 23.8611,-424.645 L 24.0565,-424.462 L 24.2275,-424.255 L 24.3712,-424.029 L 24.4853,-423.786 L 24.5682,-423.531
 L 24.6185,-423.268 L 24.6353,-423 L 24.6185,-422.732 L 24.5682,-422.469 L 24.4853,-422.214 L 24.3712,-421.971
 L 24.2275,-421.745 L 24.0565,-421.538 L 23.8611,-421.355 L 23.6441,-421.197 L 23.4091,-421.068 L 23.1598,-420.969
 L 22.9001,-420.903 L 22.6341,-420.869 z
M -22.6341,-420.869 L -22.9001,-420.903 L -23.1598,-420.969 L -23.4091,-421.068 L -23.6441,-421.197 L -23.8611,-421.355
 L -24.0565,-421.538 L -24.2275,-421.745 L -24.3712,-421.971 L -24.4853,-422.214 L -24.5682,-422.469 L -24.6185,-422.732
 L -24.6353,-423 L -24.6185,-423.268 L -24.5682,-423.531 L -24.4853,-423.786 L -24.3712,-424.029 L -24.2275,-424.255
 L -24.0565,-424.462 L -23.8611,-424.645 L -23.6441,-424.803 L -23.4091,-424.932 L -23.1598,-425.031 L -22.9001,-425.097
 L -22.6341,-425.131 L -22.3659,-425.131 L -22.0999,-425.097 L -21.8401,-425.031 L -21.5908,-424.932 L -21.3559,-424.803
 L -21.1389,-424.645 L -20.9434,-424.462 L -20.7725,-424.255 L -20.6288,-424.029 L -20.5146,-423.786 L -20.4318,-423.531
 L -20.3815,-423.268 L -20.3647,-423 L -20.3815,-422.732 L -20.4318,-422.469 L -20.5146,-422.214 L -20.6288,-421.971
 L -20.7725,-421.745 L -20.9434,-421.538 L -21.1389,-421.355 L -21.3559,-421.197 L -21.5908,-421.068 L -21.8401,-420.969
 L -22.0999,-420.903 L -22.3659,-420.869 z
M 22.3659,-270.869 L 22.0999,-270.903 L 21.8401,-270.969 L 21.5908,-271.068 L 21.3559,-271.197 L 21.1389,-271.355
 L 20.9434,-271.538 L 20.7725,-271.745 L 20.6288,-271.971 L 20.5146,-272.214 L 20.4318,-272.469 L 20.3815,-272.732
 L 20.3647,-273 L 20.3815,-273.268 L 20.4318,-273.531 L 20.5146,-273.786 L 20.6288,-274.029 L 20.7725,-274.255
 L 20.9434,-274.462 L 21.1389,-274.645 L 21.3559,-274.803 L 21.5908,-274.932 L 21.8401,-275.031 L 22.0999,-275.097
 L 22.3659,-275.131 L 22.6341,-275.131 L 22.9001,-275.097 L 23.1598,-275.031 L 23.4091,-274.932 L 23.6441,-274.803
 L 23.8611,-274.645 L 24.0565,-274.462 L 24.2275,-274.255 L 24.3712,-274.029 L 24.4853,-273.786 L 24.5682,-273.531
 L 24.6185,-273.268 L 24.6353,-273 L 24.6185,-272.732 L 24.5682,-272.469 L 24.4853,-272.214 L 24.3712,-271.971
 L 24.2275,-271.745 L 24.0565,-271.538 L 23.8611,-271.355 L 23.6441,-271.197 L 23.4091,-271.068 L 23.1598,-270.969
 L 22.9001,-270.903 L 22.6341,-270.869 z
M -22.6341,-270.869 L -22.9001,-270.903 L -23.1598,-270.969 L -23.4091,-271.068 L -23.6441,-271.197 L -23.8611,-271.355
 L -24.0565,-271.538 L -24.2275,-271.745 L -24.3712,-271.971 L -24.4853,-272.214 L -24.5682,-272.469 L -24.6185,-272.732
 L -24.6353,-273 L -24.6185,-273.268 L -24.5682,-273.531 L -24.4853,-273.786 L -24.3712,-274.029 L -24.2275,-274.255
 L -24.0565,-274.462 L -23.8611,-274.645 L -23.6441,-274.803 L -23.4091,-274.932 L -23.1598,-275.031 L -22.9001,-275.097
 L -22.6341,-275.131 L -22.3659,-275.131 L -22.0999,-275.097 L -21.8401,-275.031 L -21.5908,-274.932 L -21.3559,-274.803
 L -21.1389,-274.645 L -20.9434,-274.462 L -20.7725,-274.255 L -20.6288,-274.029 L -20.5146,-273.786 L -20.4318,-273.531
 L -20.3815,-273.268 L -20.3647,-273 L -20.3815,-272.732 L -20.4318,-272.469 L -20.5146,-272.214 L -20.6288,-271.971
 L -20.7725,-271.745 L -20.9434,-271.538 L -21.1389,-271.355 L -21.3559,-271.197 L -21.5908,-271.068 L -21.8401,-270.969
 L -22.0999,-270.903 L -22.3659,-270.869 z
M -27,-255.153 L -30,-255.153 L -30,-92.8474 L -27,-92.8474 z
" stroke="black" fill="lightgray" stroke-width="0.5"/>
</svg>
