<?xml version="1.0" standalone="no"?>
<!DOCTYPE svg PUBLIC "-//W3C//DTD SVG 1.1//EN" "http://www.w3.org/Graphics/SVG/1.1/DTD/svg11.dtd">
<svg width="136mm" height="688mm" viewBox="-68 -1301 136 688" xmlns="http://www.w3.org/2000/svg" version="1.1">
<title>OpenSCAD Model</title>
<path d="
M 63.4369,-1135.59 L 64.0451,-1135.74 L 64.6289,-1135.98 L 65.1791,-1136.28 L 65.6871,-1136.65 L 66.1448,-1137.08
 L 66.5451,-1137.56 L 66.8815,-1138.09 L 67.1489,-1138.66 L 67.3429,-1139.26 L 67.4606,-1139.87 L 67.5,-1140.5
 L 67.5,-1295.5 L 67.4606,-1296.13 L 67.3429,-1296.74 L 67.1489,-1297.34 L 66.8815,-1297.91 L 66.5451,-1298.44
 L 66.1448,-1298.92 L 65.6871,-1299.35 L 65.1791,-1299.72 L 64.6289,-1300.02 L 64.0451,-1300.26 L 63.4369,-1300.41
 L 62.8139,-1300.49 L -62.8139,-1300.49 L -63.4369,-1300.41 L -64.0451,-1300.26 L -64.6289,-1300.02 L -65.1791,-1299.72
 L -65.6871,-1299.35 L -66.1448,-1298.92 L -66.5451,-1298.44 L -66.8815,-1297.91 L -67.1489,-1297.34 L -67.3429,-1296.74
 L -67.4606,-1296.13 L -67.5,-1295.5 L -67.5,-1140.5 L -67.4606,-1139.87 L -67.3429,-1139.26 L -67.1489,-1138.66
 L -66.8815,-1138.09 L -66.5451,-1137.56 L -66.1448,-1137.08 L -65.6871,-1136.65 L -65.1791,-1136.28 L -64.6289,-1135.98
 L -64.0451,-1135.74 L -63.4369,-1135.59 L -62.8139,-1135.51 L 62.8139,-1135.51 z
M -62.2512,-1137.01 L -62.7495,-1137.07 L -63.2361,-1137.2 L -63.7031,-1137.38 L -64.1433,-1137.62 L -64.5497,-1137.92
 L -64.9159,-1138.26 L -65.2361,-1138.65 L -65.5052,-1139.07 L -65.7191,-1139.53 L -65.8743,-1140.01 L -65.9685,-1140.5
 L -66,-1141 L -66,-1295 L -65.9685,-1295.5 L -65.8743,-1295.99 L -65.7191,-1296.47 L -65.5052,-1296.93
 L -65.2361,-1297.35 L -64.9159,-1297.74 L -64.5497,-1298.08 L -64.1433,-1298.38 L -63.7031,-1298.62 L -63.2361,-1298.8
 L -62.7495,-1298.93 L -62.2512,-1298.99 L 62.2512,-1298.99 L 62.7495,-1298.93 L 63.2361,-1298.8 L 63.7031,-1298.62
 L 64.1433,-1298.38 L 64.5497,-1298.08 L 64.9159,-1297.74 L 65.2361,-1297.35 L 65.5052,-1296.93 L 65.7191,-1296.47
 L 65.8743,-1295.99 L 65.9685,-1295.5 L 66,-1295 L 66,-1141 L 65.9685,-1140.5 L 65.8743,-1140.01
 L 65.7191,-1139.53 L 65.5052,-1139.07 L 65.2361,-1138.65 L 64.9159,-1138.26 L 64.5497,-1137.92 L 64.1433,-1137.62
 L 63.7031,-1137.38 L 63.2361,-1137.2 L 62.7495,-1137.07 L 62.2512,-1137.01 z
M 63.4369,-961.589 L 64.0451,-961.745 L 64.6289,-961.976 L 65.1791,-962.278 L 65.6871,-962.647 L 66.1448,-963.077
 L 66.5451,-963.561 L 66.8815,-964.091 L 67.1489,-964.659 L 67.3429,-965.257 L 67.4606,-965.873 L 67.5,-966.5
 L 67.5,-1121.5 L 67.4606,-1122.13 L 67.3429,-1122.74 L 67.1489,-1123.34 L 66.8815,-1123.91 L 66.5451,-1124.44
 L 66.1448,-1124.92 L 65.6871,-1125.35 L 65.1791,-1125.72 L 64.6289,-1126.02 L 64.0451,-1126.26 L 63.4369,-1126.41
 L 62.8139,-1126.49 L -62.8139,-1126.49 L -63.4369,-1126.41 L -64.0451,-1126.26 L -64.6289,-1126.02 L -65.1791,-1125.72
 L -65.6871,-1125.35 L -66.1448,-1124.92 L -66.5451,-1124.44 L -66.8815,-1123.91 L -67.1489,-1123.34 L -67.3429,-1122.74
 L -67.4606,-1122.13 L -67.5,-1121.5 L -67.5,-966.5 L -67.4606,-965.873 L -67.3429,-965.257 L -67.1489,-964.659
 L -66.8815,-964.091 L -66.5451,-963.561 L -66.1448,-963.077 L -65.6871,-962.647 L -65.1791,-962.278 L -64.6289,-961.976
 L -64.0451,-961.745 L -63.4369,-961.589 L -62.8139,-961.51 L 62.8139,-961.51 z
M -62.2512,-963.008 L -62.7495,-963.071 L -63.2361,-963.196 L -63.7031,-963.381 L -64.1433,-963.623 L -64.5497,-963.918
 L -64.9159,-964.262 L -65.2361,-964.649 L -65.5052,-965.073 L -65.7191,-965.528 L -65.8743,-966.005 L -65.9685,-966.499
 L -66,-967 L -66,-1121 L -65.9685,-1121.5 L -65.8743,-1121.99 L -65.7191,-1122.47 L -65.5052,-1122.93
 L -65.2361,-1123.35 L -64.9159,-1123.74 L -64.5497,-1124.08 L -64.1433,-1124.38 L -63.7031,-1124.62 L -63.2361,-1124.8
 L -62.7495,-1124.93 L -62.2512,-1124.99 L 62.2512,-1124.99 L 62.7495,-1124.93 L 63.2361,-1124.8 L 63.7031,-1124.62
 L 64.1433,-1124.38 L 64.5497,-1124.08 L 64.9159,-1123.74 L 65.2361,-1123.35 L 65.5052,-1122.93 L 65.7191,-1122.47
 L 65.8743,-1121.99 L 65.9685,-1121.5 L 66,-1121 L 66,-967 L 65.9685,-966.499 L 65.8743,-966.005
 L 65.7191,-965.528 L 65.5052,-965.073 L 65.2361,-964.649 L 64.9159,-964.262 L 64.5497,-963.918 L 64.1433,-963.623
 L 63.7031,-963.381 L 63.2361,-963.196 L 62.7495,-963.071 L 62.2512,-963.008 z
M 63.4369,-787.589 L 64.0451,-787.745 L 64.6289,-787.976 L 65.1791,-788.278 L 65.6871,-788.647 L 66.1448,-789.077
 L 66.5451,-789.561 L 66.8815,-790.091 L 67.1489,-790.659 L 67.3429,-791.257 L 67.4606,-791.873 L 67.5,-792.5
 L 67.5,-947.5 L 67.4606,-948.127 L 67.3429,-948.743 L 67.1489,-949.341 L 66.8815,-949.909 L 66.5451,-950.439
 L 66.1448,-950.923 L 65.6871,-951.353 L 65.1791,-951.722 L 64.6289,-952.024 L 64.0451,-952.255 L 63.4369,-952.411
 L 62.8139,-952.49 L -62.8139,-952.49 L -63.4369,-952.411 L -64.0451,-952.255 L -64.6289,-952.024 L -65.1791,-951.722
 L -65.6871,-951.353 L -66.1448,-950.923 L -66.5451,-950.439 L -66.8815,-949.909 L -67.1489,-949.341 L -67.3429,-948.743
 L -67.4606,-948.127 L -67.5,-947.5 L -67.5,-792.5 L -67.4606,-791.873 L -67.3429,-791.257 L -67.1489,-790.659
 L -66.8815,-790.091 L -66.5451,-789.561 L -66.1448,-789.077 L -65.6871,-788.647 L -65.1791,-788.278 L -64.6289,-787.976
 L -64.0451,-787.745 L -63.4369,-787.589 L -62.8139,-787.51 L 62.8139,-787.51 z
M -62.1954,-789.893 L -62.5833,-789.942 L -62.9619,-790.039 L -63.3254,-790.183 L -63.668,-790.372 L -63.9842,-790.601
 L -64.2692,-790.869 L -64.5184,-791.17 L -64.7279,-791.5 L -64.8943,-791.854 L -65.0151,-792.226 L -65.0884,-792.61
 L -65.1129,-793 L -65.1129,-947 L -65.0884,-947.39 L -65.0151,-947.774 L -64.8943,-948.146 L -64.7279,-948.5
 L -64.5184,-948.83 L -64.2692,-949.131 L -63.9842,-949.399 L -63.668,-949.628 L -63.3254,-949.817 L -62.9619,-949.961
 L -62.5833,-950.058 L -62.1954,-950.107 L 62.1954,-950.107 L 62.5833,-950.058 L 62.9619,-949.961 L 63.3254,-949.817
 L 63.668,-949.628 L 63.9842,-949.399 L 64.2692,-949.131 L 64.5184,-948.83 L 64.7279,-948.5 L 64.8943,-948.146
 L 65.0151,-947.774 L 65.0884,-947.39 L 65.1129,-947 L 65.1129,-793 L 65.0884,-792.61 L 65.0151,-792.226
 L 64.8943,-791.854 L 64.7279,-791.5 L 64.5184,-791.17 L 64.2692,-790.869 L 63.9842,-790.601 L 63.668,-790.372
 L 63.3254,-790.183 L 62.9619,-790.039 L 62.5833,-789.942 L 62.1954,-789.893 z
M 63.4369,-613.589 L 64.0451,-613.745 L 64.6289,-613.976 L 65.1791,-614.278 L 65.6871,-614.647 L 66.1448,-615.077
 L 66.5451,-615.561 L 66.8815,-616.091 L 67.1489,-616.659 L 67.3429,-617.257 L 67.4606,-617.873 L 67.5,-618.5
 L 67.5,-773.5 L 67.4606,-774.127 L 67.3429,-774.743 L 67.1489,-775.341 L 66.8815,-775.909 L 66.5451,-776.439
 L 66.1448,-776.923 L 65.6871,-777.353 L 65.1791,-777.722 L 64.6289,-778.024 L 64.0451,-778.255 L 63.4369,-778.411
 L 62.8139,-778.49 L -62.8139,-778.49 L -63.4369,-778.411 L -64.0451,-778.255 L -64.6289,-778.024 L -65.1791,-777.722
 L -65.6871,-777.353 L -66.1448,-776.923 L -66.5451,-776.439 L -66.8815,-775.909 L -67.1489,-775.341 L -67.3429,-774.743
 L -67.4606,-774.127 L -67.5,-773.5 L -67.5,-618.5 L -67.4606,-617.873 L -67.3429,-617.257 L -67.1489,-616.659
 L -66.8815,-616.091 L -66.5451,-615.561 L -66.1448,-615.077 L -65.6871,-614.647 L -65.1791,-614.278 L -64.6289,-613.976
 L -64.0451,-613.745 L -63.4369,-613.589 L -62.8139,-613.51 L 62.8139,-613.51 z
M 59.8659,-768.869 L 59.5999,-768.903 L 59.3401,-768.969 L 59.0908,-769.068 L 58.8559,-769.197 L 58.6389,-769.355
 L 58.4434,-769.538 L 58.2725,-769.745 L 58.1288,-769.971 L 58.0146,-770.214 L 57.9318,-770.469 L 57.8815,-770.732
 L 57.8647,-771 L 57.8815,-771.268 L 57.9318,-771.531 L 58.0146,-771.786 L 58.1288,-772.029 L 58.2725,-772.255
 L 58.4434,-772.462 L 58.6389,-772.645 L 58.8559,-772.803 L 59.0908,-772.932 L 59.3401,-773.031 L 59.5999,-773.097
 L 59.8659,-773.131 L 60.1341,-773.131 L 60.4001,-773.097 L 60.6598,-773.031 L 60.9092,-772.932 L 61.1441,-772.803
 L 61.3611,-772.645 L 61.5565,-772.462 L 61.7275,-772.255 L 61.8712,-772.029 L 61.9853,-771.786 L 62.0682,-771.531
 L 62.1185,-771.268 L 62.1353,-771 L 62.1185,-770.732 L 62.0682,-770.469 L 61.9853,-770.214 L 61.8712,-769.971
 L 61.7275,-769.745 L 61.5565,-769.538 L 61.3611,-769.355 L 61.1441,-769.197 L 60.9092,-769.068 L 60.6598,-768.969
 L 60.4001,-768.903 L 60.1341,-768.869 z
M -60.1341,-768.869 L -60.4001,-768.903 L -60.6598,-768.969 L -60.9092,-769.068 L -61.1441,-769.197 L -61.3611,-769.355
 L -61.5565,-769.538 L -61.7275,-769.745 L -61.8712,-769.971 L -61.9853,-770.214 L -62.0682,-770.469 L -62.1185,-770.732
 L -62.1353,-771 L -62.1185,-771.268 L -62.0682,-771.531 L -61.9853,-771.786 L -61.8712,-772.029 L -61.7275,-772.255
 L -61.5565,-772.462 L -61.3611,-772.645 L -61.1441,-772.803 L -60.9092,-772.932 L -60.6598,-773.031 L -60.4001,-773.097
 L -60.1341,-773.131 L -59.8659,-773.131 L -59.5999,-773.097 L -59.3401,-773.031 L -59.0908,-772.932 L -58.8559,-772.803
 L -58.6389,-772.645 L -58.4434,-772.462 L -58.2725,-772.255 L -58.1288,-772.029 L -58.0146,-771.786 L -57.9318,-771.531
 L -57.8815,-771.268 L -57.8647,-771 L -57.8815,-770.732 L -57.9318,-770.469 L -58.0146,-770.214 L -58.1288,-769.971
 L -58.2725,-769.745 L -58.4434,-769.538 L -58.6389,-769.355 L -58.8559,-769.197 L -59.0908,-769.068 L -59.3401,-768.969
 L -59.5999,-768.903 L -59.8659,-768.869 z
M 59.8659,-618.869 L 59.5999,-618.903 L 59.3401,-618.969 L 59.0908,-619.068 L 58.8559,-619.197 L 58.6389,-619.355
 L 58.4434,-619.538 L 58.2725,-619.745 L 58.1288,-619.971 L 58.0146,-620.214 L 57.9318,-620.469 L 57.8815,-620.732
 L 57.8647,-621 L 57.8815,-621.268 L 57.9318,-621.531 L 58.0146,-621.786 L 58.1288,-622.029 L 58.2725,-622.255
 L 58.4434,-622.462 L 58.6389,-622.645 L 58.8559,-622.803 L 59.0908,-622.932 L 59.3401,-623.031 L 59.5999,-623.097
 L 59.8659,-623.131 L 60.1341,-623.131 L 60.4001,-623.097 L 60.6598,-623.031 L 60.9092,-622.932 L 61.1441,-622.803
 L 61.3611,-622.645 L 61.5565,-622.462 L 61.7275,-622.255 L 61.8712,-622.029 L 61.9853,-621.786 L 62.0682,-621.531
 L 62.1185,-621.268 L 62.1353,-621 L 62.1185,-620.732 L 62.0682,-620.469 L 61.9853,-620.214 L 61.8712,-619.971
 L 61.7275,-619.745 L 61.5565,-619.538 L 61.3611,-619.355 L 61.1441,-619.197 L 60.9092,-619.068 L 60.6598,-618.969
 L 60.4001,-618.903 L 60.1341,-618.869 z
M -60.1341,-618.869 L -60.4001,-618.903 L -60.6598,-618.969 L -60.9092,-619.068 L -61.1441,-619.197 L -61.3611,-619.355
 L -61.5565,-619.538 L -61.7275,-619.745 L -61.8712,-619.971 L -61.9853,-620.214 L -62.0682,-620.469 L -62.1185,-620.732
 L -62.1353,-621 L -62.1185,-621.268 L -62.0682,-621.531 L -61.9853,-621.786 L -61.8712,-622.029 L -61.7275,-622.255
 L -61.5565,-622.462 L -61.3611,-622.645 L -61.1441,-622.803 L -60.9092,-622.932 L -60.6598,-623.031 L -60.4001,-623.097
 L -60.1341,-623.131 L -59.8659,-623.131 L -59.5999,-623.097 L -59.3401,-623.031 L -59.0908,-622.932 L -58.8559,-622.803
 L -58.6389,-622.645 L -58.4434,-622.462 L -58.2725,-622.255 L -58.1288,-622.029 L -58.0146,-621.786 L -57.9318,-621.531
 L -57.8815,-621.268 L -57.8647,-621 L -57.8815,-620.732 L -57.9318,-620.469 L -58.0146,-620.214 L -58.1288,-619.971
 L -58.2725,-619.745 L -58.4434,-619.538 L -58.6389,-619.355 L -58.8559,-619.197 L -59.0908,-619.068 L -59.3401,-618.969
 L -59.5999,-618.903 L -59.8659,-618.869 z
" stroke="black" fill="lightgray" stroke-width="0.5"/>
</svg>
