solid OpenSCAD_Model
  facet normal 0.998028 0.0627749 0
    outer loop
      vertex 12 0 1
      vertex 11.9054 1.504 -1
      vertex 11.9054 1.504 1
    endloop
  endfacet
  facet normal 0.998028 0.0627749 0
    outer loop
      vertex 11.9054 1.504 -1
      vertex 12 0 1
      vertex 12 0 -1
    endloop
  endfacet
  facet normal -0.998028 0.0627749 0
    outer loop
      vertex -12 0 -1
      vertex -11.9054 1.504 1
      vertex -11.9054 1.504 -1
    endloop
  endfacet
  facet normal -0.998028 0.0627749 0
    outer loop
      vertex -11.9054 1.504 1
      vertex -12 0 -1
      vertex -12 0 1
    endloop
  endfacet
  facet normal 0 1 -0
    outer loop
      vertex 0.753486 11.9763 -1
      vertex -0.753486 11.9763 1
      vertex 0.753486 11.9763 1
    endloop
  endfacet
  facet normal 0 1 0
    outer loop
      vertex -0.753486 11.9763 1
      vertex 0.753486 11.9763 -1
      vertex -0.753486 11.9763 -1
    endloop
  endfacet
  facet normal 0 -1 0
    outer loop
      vertex -0.753486 -11.9763 -1
      vertex 0.753486 -11.9763 1
      vertex -0.753486 -11.9763 1
    endloop
  endfacet
  facet normal 0 -1 -0
    outer loop
      vertex 0.753486 -11.9763 1
      vertex -0.753486 -11.9763 -1
      vertex 0.753486 -11.9763 -1
    endloop
  endfacet
  facet normal 0.684551 0.728965 -0
    outer loop
      vertex 8.74762 8.21456 -1
      vertex 7.64909 9.24616 1
      vertex 8.74762 8.21456 1
    endloop
  endfacet
  facet normal 0.684551 0.728965 0
    outer loop
      vertex 7.64909 9.24616 1
      vertex 8.74762 8.21456 -1
      vertex 7.64909 9.24616 -1
    endloop
  endfacet
  facet normal -0.684551 0.728965 0
    outer loop
      vertex -7.64909 9.24616 -1
      vertex -8.74762 8.21456 1
      vertex -7.64909 9.24616 1
    endloop
  endfacet
  facet normal -0.684551 0.728965 0
    outer loop
      vertex -8.74762 8.21456 1
      vertex -7.64909 9.24616 -1
      vertex -8.74762 8.21456 -1
    endloop
  endfacet
  facet normal -0.368151 0.929766 0
    outer loop
      vertex -3.7082 11.4127 -1
      vertex -5.10935 10.8579 1
      vertex -3.7082 11.4127 1
    endloop
  endfacet
  facet normal -0.368151 0.929766 0
    outer loop
      vertex -5.10935 10.8579 1
      vertex -3.7082 11.4127 -1
      vertex -5.10935 10.8579 -1
    endloop
  endfacet
  facet normal 0.844321 -0.535838 0
    outer loop
      vertex 9.7082 -7.05342 1
      vertex 10.5157 -5.78104 -1
      vertex 10.5157 -5.78104 1
    endloop
  endfacet
  facet normal 0.844321 -0.535838 0
    outer loop
      vertex 10.5157 -5.78104 -1
      vertex 9.7082 -7.05342 1
      vertex 9.7082 -7.05342 -1
    endloop
  endfacet
  facet normal 0.904837 0.425759 0
    outer loop
      vertex 11.1573 4.41749 1
      vertex 10.5157 5.78104 -1
      vertex 10.5157 5.78104 1
    endloop
  endfacet
  facet normal 0.904837 0.425759 0
    outer loop
      vertex 10.5157 5.78104 -1
      vertex 11.1573 4.41749 1
      vertex 11.1573 4.41749 -1
    endloop
  endfacet
  facet normal 0.982285 0.187395 0
    outer loop
      vertex 11.9054 1.504 1
      vertex 11.623 2.98428 -1
      vertex 11.623 2.98428 1
    endloop
  endfacet
  facet normal 0.982285 0.187395 0
    outer loop
      vertex 11.623 2.98428 -1
      vertex 11.9054 1.504 1
      vertex 11.9054 1.504 -1
    endloop
  endfacet
  facet normal 0.844321 0.535838 0
    outer loop
      vertex 10.5157 5.78104 1
      vertex 9.7082 7.05342 -1
      vertex 9.7082 7.05342 1
    endloop
  endfacet
  facet normal 0.844321 0.535838 0
    outer loop
      vertex 9.7082 7.05342 -1
      vertex 10.5157 5.78104 1
      vertex 10.5157 5.78104 -1
    endloop
  endfacet
  facet normal 0.368151 0.929766 -0
    outer loop
      vertex 5.10935 10.8579 -1
      vertex 3.7082 11.4127 1
      vertex 5.10935 10.8579 1
    endloop
  endfacet
  facet normal 0.368151 0.929766 0
    outer loop
      vertex 3.7082 11.4127 1
      vertex 5.10935 10.8579 -1
      vertex 3.7082 11.4127 -1
    endloop
  endfacet
  facet normal 0.248648 0.968594 -0
    outer loop
      vertex 3.7082 11.4127 -1
      vertex 2.24858 11.7874 1
      vertex 3.7082 11.4127 1
    endloop
  endfacet
  facet normal 0.248648 0.968594 0
    outer loop
      vertex 2.24858 11.7874 1
      vertex 3.7082 11.4127 -1
      vertex 2.24858 11.7874 -1
    endloop
  endfacet
  facet normal 0.481759 0.876304 -0
    outer loop
      vertex 6.42992 10.1319 -1
      vertex 5.10935 10.8579 1
      vertex 6.42992 10.1319 1
    endloop
  endfacet
  facet normal 0.481759 0.876304 0
    outer loop
      vertex 5.10935 10.8579 1
      vertex 6.42992 10.1319 -1
      vertex 5.10935 10.8579 -1
    endloop
  endfacet
  facet normal -0.844321 0.535838 0
    outer loop
      vertex -10.5157 5.78104 -1
      vertex -9.7082 7.05342 1
      vertex -9.7082 7.05342 -1
    endloop
  endfacet
  facet normal -0.844321 0.535838 0
    outer loop
      vertex -9.7082 7.05342 1
      vertex -10.5157 5.78104 -1
      vertex -10.5157 5.78104 1
    endloop
  endfacet
  facet normal -0.770513 0.637425 0
    outer loop
      vertex -9.7082 7.05342 -1
      vertex -8.74762 8.21456 1
      vertex -8.74762 8.21456 -1
    endloop
  endfacet
  facet normal -0.770513 0.637425 0
    outer loop
      vertex -8.74762 8.21456 1
      vertex -9.7082 7.05342 -1
      vertex -9.7082 7.05342 1
    endloop
  endfacet
  facet normal -0.951052 0.30903 0
    outer loop
      vertex -11.623 2.98428 -1
      vertex -11.1573 4.41749 1
      vertex -11.1573 4.41749 -1
    endloop
  endfacet
  facet normal -0.951052 0.30903 0
    outer loop
      vertex -11.1573 4.41749 1
      vertex -11.623 2.98428 -1
      vertex -11.623 2.98428 1
    endloop
  endfacet
  facet normal -0.587768 0.809029 0
    outer loop
      vertex -6.42992 10.1319 -1
      vertex -7.64909 9.24616 1
      vertex -6.42992 10.1319 1
    endloop
  endfacet
  facet normal -0.587768 0.809029 0
    outer loop
      vertex -7.64909 9.24616 1
      vertex -6.42992 10.1319 -1
      vertex -7.64909 9.24616 -1
    endloop
  endfacet
  facet normal -0.12535 0.992113 0
    outer loop
      vertex -0.753486 11.9763 -1
      vertex -2.24858 11.7874 1
      vertex -0.753486 11.9763 1
    endloop
  endfacet
  facet normal -0.12535 0.992113 0
    outer loop
      vertex -2.24858 11.7874 1
      vertex -0.753486 11.9763 -1
      vertex -2.24858 11.7874 -1
    endloop
  endfacet
  facet normal 0.12535 -0.992113 0
    outer loop
      vertex 0.753486 -11.9763 -1
      vertex 2.24858 -11.7874 1
      vertex 0.753486 -11.9763 1
    endloop
  endfacet
  facet normal 0.12535 -0.992113 0
    outer loop
      vertex 2.24858 -11.7874 1
      vertex 0.753486 -11.9763 -1
      vertex 2.24858 -11.7874 -1
    endloop
  endfacet
  facet normal 0.951052 0.30903 0
    outer loop
      vertex 11.623 2.98428 1
      vertex 11.1573 4.41749 -1
      vertex 11.1573 4.41749 1
    endloop
  endfacet
  facet normal 0.951052 0.30903 0
    outer loop
      vertex 11.1573 4.41749 -1
      vertex 11.623 2.98428 1
      vertex 11.623 2.98428 -1
    endloop
  endfacet
  facet normal 0.770513 0.637425 0
    outer loop
      vertex 9.7082 7.05342 1
      vertex 8.74762 8.21456 -1
      vertex 8.74762 8.21456 1
    endloop
  endfacet
  facet normal 0.770513 0.637425 0
    outer loop
      vertex 8.74762 8.21456 -1
      vertex 9.7082 7.05342 1
      vertex 9.7082 7.05342 -1
    endloop
  endfacet
  facet normal 0.12535 0.992113 -0
    outer loop
      vertex 2.24858 11.7874 -1
      vertex 0.753486 11.9763 1
      vertex 2.24858 11.7874 1
    endloop
  endfacet
  facet normal 0.12535 0.992113 0
    outer loop
      vertex 0.753486 11.9763 1
      vertex 2.24858 11.7874 -1
      vertex 0.753486 11.9763 -1
    endloop
  endfacet
  facet normal 0.587768 0.809029 -0
    outer loop
      vertex 7.64909 9.24616 -1
      vertex 6.42992 10.1319 1
      vertex 7.64909 9.24616 1
    endloop
  endfacet
  facet normal 0.587768 0.809029 0
    outer loop
      vertex 6.42992 10.1319 1
      vertex 7.64909 9.24616 -1
      vertex 6.42992 10.1319 -1
    endloop
  endfacet
  facet normal -0.904837 0.425759 0
    outer loop
      vertex -11.1573 4.41749 -1
      vertex -10.5157 5.78104 1
      vertex -10.5157 5.78104 -1
    endloop
  endfacet
  facet normal -0.904837 0.425759 0
    outer loop
      vertex -10.5157 5.78104 1
      vertex -11.1573 4.41749 -1
      vertex -11.1573 4.41749 1
    endloop
  endfacet
  facet normal -0.982285 0.187395 0
    outer loop
      vertex -11.9054 1.504 -1
      vertex -11.623 2.98428 1
      vertex -11.623 2.98428 -1
    endloop
  endfacet
  facet normal -0.982285 0.187395 0
    outer loop
      vertex -11.623 2.98428 1
      vertex -11.9054 1.504 -1
      vertex -11.9054 1.504 1
    endloop
  endfacet
  facet normal 0 0 1
    outer loop
      vertex 8.5 0 1
      vertex 12 0 1
      vertex 11.9054 1.504 1
    endloop
  endfacet
  facet normal 0 0 1
    outer loop
      vertex 8.43297 1.06533 1
      vertex 11.9054 1.504 1
      vertex 11.623 2.98428 1
    endloop
  endfacet
  facet normal 0 0 1
    outer loop
      vertex 12 0 1
      vertex 8.5 0 1
      vertex 11.9054 -1.504 1
    endloop
  endfacet
  facet normal 0 0 1
    outer loop
      vertex 8.23296 2.11386 1
      vertex 11.623 2.98428 1
      vertex 11.1573 4.41749 1
    endloop
  endfacet
  facet normal -0 0 1
    outer loop
      vertex 8.43297 -1.06533 1
      vertex 11.9054 -1.504 1
      vertex 8.5 0 1
    endloop
  endfacet
  facet normal 0 0 1
    outer loop
      vertex 7.9031 3.12906 1
      vertex 11.1573 4.41749 1
      vertex 10.5157 5.78104 1
    endloop
  endfacet
  facet normal 0 0 1
    outer loop
      vertex 11.9054 -1.504 1
      vertex 8.43297 -1.06533 1
      vertex 11.623 -2.98428 1
    endloop
  endfacet
  facet normal 0 0 1
    outer loop
      vertex 7.44861 4.09491 1
      vertex 10.5157 5.78104 1
      vertex 9.7082 7.05342 1
    endloop
  endfacet
  facet normal -0 0 1
    outer loop
      vertex 8.23296 -2.11386 1
      vertex 11.623 -2.98428 1
      vertex 8.43297 -1.06533 1
    endloop
  endfacet
  facet normal 0 0 1
    outer loop
      vertex 6.87664 4.99617 1
      vertex 9.7082 7.05342 1
      vertex 8.74762 8.21456 1
    endloop
  endfacet
  facet normal 0 0 1
    outer loop
      vertex 11.623 -2.98428 1
      vertex 8.23296 -2.11386 1
      vertex 11.1573 -4.41749 1
    endloop
  endfacet
  facet normal -0 0 1
    outer loop
      vertex 7.9031 -3.12906 1
      vertex 11.1573 -4.41749 1
      vertex 8.23296 -2.11386 1
    endloop
  endfacet
  facet normal 0 0 1
    outer loop
      vertex 11.9054 1.504 1
      vertex 8.43297 1.06533 1
      vertex 8.5 0 1
    endloop
  endfacet
  facet normal 0 0 1
    outer loop
      vertex 11.623 2.98428 1
      vertex 8.23296 2.11386 1
      vertex 8.43297 1.06533 1
    endloop
  endfacet
  facet normal 0 0 1
    outer loop
      vertex 11.1573 4.41749 1
      vertex 7.9031 3.12906 1
      vertex 8.23296 2.11386 1
    endloop
  endfacet
  facet normal 0 0 1
    outer loop
      vertex 6.19623 5.81865 1
      vertex 8.74762 8.21456 1
      vertex 7.64909 9.24616 1
    endloop
  endfacet
  facet normal 0 0 1
    outer loop
      vertex 10.5157 5.78104 1
      vertex 7.44861 4.09491 1
      vertex 7.9031 3.12906 1
    endloop
  endfacet
  facet normal 0 0 1
    outer loop
      vertex 9.7082 7.05342 1
      vertex 6.87664 4.99617 1
      vertex 7.44861 4.09491 1
    endloop
  endfacet
  facet normal 0 0 1
    outer loop
      vertex 5.4181 6.54936 1
      vertex 7.64909 9.24616 1
      vertex 6.42992 10.1319 1
    endloop
  endfacet
  facet normal 0 0 1
    outer loop
      vertex 8.74762 8.21456 1
      vertex 6.19623 5.81865 1
      vertex 6.87664 4.99617 1
    endloop
  endfacet
  facet normal 0 0 1
    outer loop
      vertex 7.64909 9.24616 1
      vertex 5.4181 6.54936 1
      vertex 6.19623 5.81865 1
    endloop
  endfacet
  facet normal 0 0 1
    outer loop
      vertex 4.55453 7.17679 1
      vertex 6.42992 10.1319 1
      vertex 5.10935 10.8579 1
    endloop
  endfacet
  facet normal 0 0 1
    outer loop
      vertex 6.42992 10.1319 1
      vertex 4.55453 7.17679 1
      vertex 5.4181 6.54936 1
    endloop
  endfacet
  facet normal 0 0 1
    outer loop
      vertex 3.61912 7.69103 1
      vertex 5.10935 10.8579 1
      vertex 3.7082 11.4127 1
    endloop
  endfacet
  facet normal 0 0 1
    outer loop
      vertex 5.10935 10.8579 1
      vertex 3.61912 7.69103 1
      vertex 4.55453 7.17679 1
    endloop
  endfacet
  facet normal 0 0 1
    outer loop
      vertex 3.7082 11.4127 1
      vertex 2.62664 8.08398 1
      vertex 3.61912 7.69103 1
    endloop
  endfacet
  facet normal 0 0 1
    outer loop
      vertex 2.24858 11.7874 1
      vertex 2.62664 8.08398 1
      vertex 3.7082 11.4127 1
    endloop
  endfacet
  facet normal 0 0 1
    outer loop
      vertex 2.24858 11.7874 1
      vertex 1.59274 8.34944 1
      vertex 2.62664 8.08398 1
    endloop
  endfacet
  facet normal 0 0 1
    outer loop
      vertex 0.753486 11.9763 1
      vertex 1.59274 8.34944 1
      vertex 2.24858 11.7874 1
    endloop
  endfacet
  facet normal 0 0 1
    outer loop
      vertex 0.753486 11.9763 1
      vertex 0.533719 8.48323 1
      vertex 1.59274 8.34944 1
    endloop
  endfacet
  facet normal 0 0 1
    outer loop
      vertex 0.753486 11.9763 1
      vertex -0.533719 8.48323 1
      vertex 0.533719 8.48323 1
    endloop
  endfacet
  facet normal -0 0 1
    outer loop
      vertex -0.753486 11.9763 1
      vertex -0.533719 8.48323 1
      vertex 0.753486 11.9763 1
    endloop
  endfacet
  facet normal 0 0 1
    outer loop
      vertex -0.753486 11.9763 1
      vertex -1.59274 8.34944 1
      vertex -0.533719 8.48323 1
    endloop
  endfacet
  facet normal -0 0 1
    outer loop
      vertex -2.24858 11.7874 1
      vertex -1.59274 8.34944 1
      vertex -0.753486 11.9763 1
    endloop
  endfacet
  facet normal 0 0 1
    outer loop
      vertex -2.24858 11.7874 1
      vertex -2.62664 8.08398 1
      vertex -1.59274 8.34944 1
    endloop
  endfacet
  facet normal -0 0 1
    outer loop
      vertex -3.7082 11.4127 1
      vertex -2.62664 8.08398 1
      vertex -2.24858 11.7874 1
    endloop
  endfacet
  facet normal 0 0 1
    outer loop
      vertex -2.62664 8.08398 1
      vertex -3.7082 11.4127 1
      vertex -3.61912 7.69103 1
    endloop
  endfacet
  facet normal -0 0 1
    outer loop
      vertex -5.10935 10.8579 1
      vertex -3.61912 7.69103 1
      vertex -3.7082 11.4127 1
    endloop
  endfacet
  facet normal 0 0 1
    outer loop
      vertex -3.61912 7.69103 1
      vertex -5.10935 10.8579 1
      vertex -4.55453 7.17679 1
    endloop
  endfacet
  facet normal -0 0 1
    outer loop
      vertex -6.42992 10.1319 1
      vertex -4.55453 7.17679 1
      vertex -5.10935 10.8579 1
    endloop
  endfacet
  facet normal 0 0 1
    outer loop
      vertex -4.55453 7.17679 1
      vertex -6.42992 10.1319 1
      vertex -5.4181 6.54936 1
    endloop
  endfacet
  facet normal -0 0 1
    outer loop
      vertex -7.64909 9.24616 1
      vertex -5.4181 6.54936 1
      vertex -6.42992 10.1319 1
    endloop
  endfacet
  facet normal 0 0 1
    outer loop
      vertex -5.4181 6.54936 1
      vertex -7.64909 9.24616 1
      vertex -6.19623 5.81865 1
    endloop
  endfacet
  facet normal -0 0 1
    outer loop
      vertex -8.74762 8.21456 1
      vertex -6.19623 5.81865 1
      vertex -7.64909 9.24616 1
    endloop
  endfacet
  facet normal 0 0 1
    outer loop
      vertex -6.19623 5.81865 1
      vertex -8.74762 8.21456 1
      vertex -6.87664 4.99617 1
    endloop
  endfacet
  facet normal -0 0 1
    outer loop
      vertex -9.7082 7.05342 1
      vertex -6.87664 4.99617 1
      vertex -8.74762 8.21456 1
    endloop
  endfacet
  facet normal 0 0 1
    outer loop
      vertex -6.87664 4.99617 1
      vertex -9.7082 7.05342 1
      vertex -7.44861 4.09491 1
    endloop
  endfacet
  facet normal -0 0 1
    outer loop
      vertex -10.5157 5.78104 1
      vertex -7.44861 4.09491 1
      vertex -9.7082 7.05342 1
    endloop
  endfacet
  facet normal -0 0 1
    outer loop
      vertex -11.1573 4.41749 1
      vertex -7.9031 3.12906 1
      vertex -10.5157 5.78104 1
    endloop
  endfacet
  facet normal 0 0 1
    outer loop
      vertex -7.44861 4.09491 1
      vertex -10.5157 5.78104 1
      vertex -7.9031 3.12906 1
    endloop
  endfacet
  facet normal 0 0 1
    outer loop
      vertex 11.1573 -4.41749 1
      vertex 7.9031 -3.12906 1
      vertex 10.5157 -5.78104 1
    endloop
  endfacet
  facet normal -0 0 1
    outer loop
      vertex 7.44861 -4.09491 1
      vertex 10.5157 -5.78104 1
      vertex 7.9031 -3.12906 1
    endloop
  endfacet
  facet normal 0 0 1
    outer loop
      vertex 10.5157 -5.78104 1
      vertex 7.44861 -4.09491 1
      vertex 9.7082 -7.05342 1
    endloop
  endfacet
  facet normal -0 0 1
    outer loop
      vertex 6.87664 -4.99617 1
      vertex 9.7082 -7.05342 1
      vertex 7.44861 -4.09491 1
    endloop
  endfacet
  facet normal 0 0 1
    outer loop
      vertex 9.7082 -7.05342 1
      vertex 6.87664 -4.99617 1
      vertex 8.74762 -8.21456 1
    endloop
  endfacet
  facet normal -0 0 1
    outer loop
      vertex 6.19623 -5.81865 1
      vertex 8.74762 -8.21456 1
      vertex 6.87664 -4.99617 1
    endloop
  endfacet
  facet normal 0 0 1
    outer loop
      vertex 8.74762 -8.21456 1
      vertex 6.19623 -5.81865 1
      vertex 7.64909 -9.24616 1
    endloop
  endfacet
  facet normal -0 0 1
    outer loop
      vertex 5.4181 -6.54936 1
      vertex 7.64909 -9.24616 1
      vertex 6.19623 -5.81865 1
    endloop
  endfacet
  facet normal 0 0 1
    outer loop
      vertex 7.64909 -9.24616 1
      vertex 5.4181 -6.54936 1
      vertex 6.42992 -10.1319 1
    endloop
  endfacet
  facet normal -0 0 1
    outer loop
      vertex 4.55453 -7.17679 1
      vertex 6.42992 -10.1319 1
      vertex 5.4181 -6.54936 1
    endloop
  endfacet
  facet normal 0 0 1
    outer loop
      vertex 6.42992 -10.1319 1
      vertex 4.55453 -7.17679 1
      vertex 5.10935 -10.8579 1
    endloop
  endfacet
  facet normal -0 0 1
    outer loop
      vertex 3.61912 -7.69103 1
      vertex 5.10935 -10.8579 1
      vertex 4.55453 -7.17679 1
    endloop
  endfacet
  facet normal 0 0 1
    outer loop
      vertex 5.10935 -10.8579 1
      vertex 3.61912 -7.69103 1
      vertex 3.7082 -11.4127 1
    endloop
  endfacet
  facet normal -0 0 1
    outer loop
      vertex 2.62664 -8.08398 1
      vertex 3.7082 -11.4127 1
      vertex 3.61912 -7.69103 1
    endloop
  endfacet
  facet normal 0 0 1
    outer loop
      vertex 2.62664 -8.08398 1
      vertex 2.24858 -11.7874 1
      vertex 3.7082 -11.4127 1
    endloop
  endfacet
  facet normal -0 0 1
    outer loop
      vertex 1.59274 -8.34944 1
      vertex 2.24858 -11.7874 1
      vertex 2.62664 -8.08398 1
    endloop
  endfacet
  facet normal 0 0 1
    outer loop
      vertex 1.59274 -8.34944 1
      vertex 0.753486 -11.9763 1
      vertex 2.24858 -11.7874 1
    endloop
  endfacet
  facet normal -0 0 1
    outer loop
      vertex 0.533719 -8.48323 1
      vertex 0.753486 -11.9763 1
      vertex 1.59274 -8.34944 1
    endloop
  endfacet
  facet normal -0 0 1
    outer loop
      vertex -0.533719 -8.48323 1
      vertex 0.753486 -11.9763 1
      vertex 0.533719 -8.48323 1
    endloop
  endfacet
  facet normal 0 0 1
    outer loop
      vertex -0.533719 -8.48323 1
      vertex -0.753486 -11.9763 1
      vertex 0.753486 -11.9763 1
    endloop
  endfacet
  facet normal 0 0 1
    outer loop
      vertex -1.59274 -8.34944 1
      vertex -0.753486 -11.9763 1
      vertex -0.533719 -8.48323 1
    endloop
  endfacet
  facet normal 0 0 1
    outer loop
      vertex -1.59274 -8.34944 1
      vertex -2.24858 -11.7874 1
      vertex -0.753486 -11.9763 1
    endloop
  endfacet
  facet normal 0 0 1
    outer loop
      vertex -2.62664 -8.08398 1
      vertex -2.24858 -11.7874 1
      vertex -1.59274 -8.34944 1
    endloop
  endfacet
  facet normal 0 0 1
    outer loop
      vertex -3.7082 -11.4127 1
      vertex -2.62664 -8.08398 1
      vertex -3.61912 -7.69103 1
    endloop
  endfacet
  facet normal 0 0 1
    outer loop
      vertex -2.62664 -8.08398 1
      vertex -3.7082 -11.4127 1
      vertex -2.24858 -11.7874 1
    endloop
  endfacet
  facet normal 0 0 1
    outer loop
      vertex -5.10935 -10.8579 1
      vertex -3.61912 -7.69103 1
      vertex -4.55453 -7.17679 1
    endloop
  endfacet
  facet normal 0 0 1
    outer loop
      vertex -3.61912 -7.69103 1
      vertex -5.10935 -10.8579 1
      vertex -3.7082 -11.4127 1
    endloop
  endfacet
  facet normal 0 0 1
    outer loop
      vertex -6.42992 -10.1319 1
      vertex -4.55453 -7.17679 1
      vertex -5.4181 -6.54936 1
    endloop
  endfacet
  facet normal 0 0 1
    outer loop
      vertex -7.64909 -9.24616 1
      vertex -5.4181 -6.54936 1
      vertex -6.19623 -5.81865 1
    endloop
  endfacet
  facet normal 0 0 1
    outer loop
      vertex -4.55453 -7.17679 1
      vertex -6.42992 -10.1319 1
      vertex -5.10935 -10.8579 1
    endloop
  endfacet
  facet normal 0 0 1
    outer loop
      vertex -8.74762 -8.21456 1
      vertex -6.19623 -5.81865 1
      vertex -6.87664 -4.99617 1
    endloop
  endfacet
  facet normal 0 0 1
    outer loop
      vertex -9.7082 -7.05342 1
      vertex -6.87664 -4.99617 1
      vertex -7.44861 -4.09491 1
    endloop
  endfacet
  facet normal 0 0 1
    outer loop
      vertex -5.4181 -6.54936 1
      vertex -7.64909 -9.24616 1
      vertex -6.42992 -10.1319 1
    endloop
  endfacet
  facet normal 0 0 1
    outer loop
      vertex -10.5157 -5.78104 1
      vertex -7.44861 -4.09491 1
      vertex -7.9031 -3.12906 1
    endloop
  endfacet
  facet normal 0 0 1
    outer loop
      vertex -11.1573 -4.41749 1
      vertex -7.9031 -3.12906 1
      vertex -8.23296 -2.11386 1
    endloop
  endfacet
  facet normal 0 0 1
    outer loop
      vertex -11.623 -2.98428 1
      vertex -8.23296 -2.11386 1
      vertex -8.43297 -1.06533 1
    endloop
  endfacet
  facet normal 0 0 1
    outer loop
      vertex -6.19623 -5.81865 1
      vertex -8.74762 -8.21456 1
      vertex -7.64909 -9.24616 1
    endloop
  endfacet
  facet normal 0 0 1
    outer loop
      vertex -11.9054 -1.504 1
      vertex -8.43297 -1.06533 1
      vertex -8.5 0 1
    endloop
  endfacet
  facet normal 0 0 1
    outer loop
      vertex -7.9031 3.12906 1
      vertex -11.1573 4.41749 1
      vertex -8.23296 2.11386 1
    endloop
  endfacet
  facet normal -0 0 1
    outer loop
      vertex -11.623 2.98428 1
      vertex -8.23296 2.11386 1
      vertex -11.1573 4.41749 1
    endloop
  endfacet
  facet normal 0 0 1
    outer loop
      vertex -6.87664 -4.99617 1
      vertex -9.7082 -7.05342 1
      vertex -8.74762 -8.21456 1
    endloop
  endfacet
  facet normal 0 0 1
    outer loop
      vertex -8.23296 2.11386 1
      vertex -11.623 2.98428 1
      vertex -8.43297 1.06533 1
    endloop
  endfacet
  facet normal 0 0 1
    outer loop
      vertex -7.44861 -4.09491 1
      vertex -10.5157 -5.78104 1
      vertex -9.7082 -7.05342 1
    endloop
  endfacet
  facet normal -0 0 1
    outer loop
      vertex -11.9054 1.504 1
      vertex -8.43297 1.06533 1
      vertex -11.623 2.98428 1
    endloop
  endfacet
  facet normal 0 0 1
    outer loop
      vertex -7.9031 -3.12906 1
      vertex -11.1573 -4.41749 1
      vertex -10.5157 -5.78104 1
    endloop
  endfacet
  facet normal 0 0 1
    outer loop
      vertex -8.43297 1.06533 1
      vertex -11.9054 1.504 1
      vertex -8.5 0 1
    endloop
  endfacet
  facet normal 0 0 1
    outer loop
      vertex -8.23296 -2.11386 1
      vertex -11.623 -2.98428 1
      vertex -11.1573 -4.41749 1
    endloop
  endfacet
  facet normal 0 0 1
    outer loop
      vertex -12 0 1
      vertex -8.5 0 1
      vertex -11.9054 1.504 1
    endloop
  endfacet
  facet normal 0 0 1
    outer loop
      vertex -8.43297 -1.06533 1
      vertex -11.9054 -1.504 1
      vertex -11.623 -2.98428 1
    endloop
  endfacet
  facet normal 0 0 1
    outer loop
      vertex -8.5 0 1
      vertex -12 0 1
      vertex -11.9054 -1.504 1
    endloop
  endfacet
  facet normal 0.770513 -0.637425 0
    outer loop
      vertex 8.74762 -8.21456 1
      vertex 9.7082 -7.05342 -1
      vertex 9.7082 -7.05342 1
    endloop
  endfacet
  facet normal 0.770513 -0.637425 0
    outer loop
      vertex 9.7082 -7.05342 -1
      vertex 8.74762 -8.21456 1
      vertex 8.74762 -8.21456 -1
    endloop
  endfacet
  facet normal 0.904837 -0.425759 0
    outer loop
      vertex 10.5157 -5.78104 1
      vertex 11.1573 -4.41749 -1
      vertex 11.1573 -4.41749 1
    endloop
  endfacet
  facet normal 0.904837 -0.425759 0
    outer loop
      vertex 11.1573 -4.41749 -1
      vertex 10.5157 -5.78104 1
      vertex 10.5157 -5.78104 -1
    endloop
  endfacet
  facet normal 0.982285 -0.187395 0
    outer loop
      vertex 11.623 -2.98428 1
      vertex 11.9054 -1.504 -1
      vertex 11.9054 -1.504 1
    endloop
  endfacet
  facet normal 0.982285 -0.187395 0
    outer loop
      vertex 11.9054 -1.504 -1
      vertex 11.623 -2.98428 1
      vertex 11.623 -2.98428 -1
    endloop
  endfacet
  facet normal 0 0 -1
    outer loop
      vertex 8.5 0 -1
      vertex 12 0 -1
      vertex 11.9054 -1.504 -1
    endloop
  endfacet
  facet normal 0 0 -1
    outer loop
      vertex 8.43297 -1.06533 -1
      vertex 11.9054 -1.504 -1
      vertex 11.623 -2.98428 -1
    endloop
  endfacet
  facet normal 0 0 -1
    outer loop
      vertex 12 0 -1
      vertex 8.5 0 -1
      vertex 11.9054 1.504 -1
    endloop
  endfacet
  facet normal 0 0 -1
    outer loop
      vertex 8.23296 -2.11386 -1
      vertex 11.623 -2.98428 -1
      vertex 11.1573 -4.41749 -1
    endloop
  endfacet
  facet normal 0 0 -1
    outer loop
      vertex 8.43297 1.06533 -1
      vertex 11.9054 1.504 -1
      vertex 8.5 0 -1
    endloop
  endfacet
  facet normal 0 0 -1
    outer loop
      vertex 7.9031 -3.12906 -1
      vertex 11.1573 -4.41749 -1
      vertex 10.5157 -5.78104 -1
    endloop
  endfacet
  facet normal -0 0 -1
    outer loop
      vertex 11.9054 1.504 -1
      vertex 8.43297 1.06533 -1
      vertex 11.623 2.98428 -1
    endloop
  endfacet
  facet normal 0 0 -1
    outer loop
      vertex 7.44861 -4.09491 -1
      vertex 10.5157 -5.78104 -1
      vertex 9.7082 -7.05342 -1
    endloop
  endfacet
  facet normal 0 0 -1
    outer loop
      vertex 8.23296 2.11386 -1
      vertex 11.623 2.98428 -1
      vertex 8.43297 1.06533 -1
    endloop
  endfacet
  facet normal 0 0 -1
    outer loop
      vertex 6.87664 -4.99617 -1
      vertex 9.7082 -7.05342 -1
      vertex 8.74762 -8.21456 -1
    endloop
  endfacet
  facet normal -0 0 -1
    outer loop
      vertex 11.623 2.98428 -1
      vertex 8.23296 2.11386 -1
      vertex 11.1573 4.41749 -1
    endloop
  endfacet
  facet normal 0 0 -1
    outer loop
      vertex 7.9031 3.12906 -1
      vertex 11.1573 4.41749 -1
      vertex 8.23296 2.11386 -1
    endloop
  endfacet
  facet normal 0 0 -1
    outer loop
      vertex 11.9054 -1.504 -1
      vertex 8.43297 -1.06533 -1
      vertex 8.5 0 -1
    endloop
  endfacet
  facet normal 0 0 -1
    outer loop
      vertex 11.623 -2.98428 -1
      vertex 8.23296 -2.11386 -1
      vertex 8.43297 -1.06533 -1
    endloop
  endfacet
  facet normal 0 0 -1
    outer loop
      vertex 11.1573 -4.41749 -1
      vertex 7.9031 -3.12906 -1
      vertex 8.23296 -2.11386 -1
    endloop
  endfacet
  facet normal 0 0 -1
    outer loop
      vertex 6.19623 -5.81865 -1
      vertex 8.74762 -8.21456 -1
      vertex 7.64909 -9.24616 -1
    endloop
  endfacet
  facet normal 0 0 -1
    outer loop
      vertex 10.5157 -5.78104 -1
      vertex 7.44861 -4.09491 -1
      vertex 7.9031 -3.12906 -1
    endloop
  endfacet
  facet normal 0 0 -1
    outer loop
      vertex 9.7082 -7.05342 -1
      vertex 6.87664 -4.99617 -1
      vertex 7.44861 -4.09491 -1
    endloop
  endfacet
  facet normal 0 0 -1
    outer loop
      vertex 5.4181 -6.54936 -1
      vertex 7.64909 -9.24616 -1
      vertex 6.42992 -10.1319 -1
    endloop
  endfacet
  facet normal 0 0 -1
    outer loop
      vertex 8.74762 -8.21456 -1
      vertex 6.19623 -5.81865 -1
      vertex 6.87664 -4.99617 -1
    endloop
  endfacet
  facet normal 0 0 -1
    outer loop
      vertex 7.64909 -9.24616 -1
      vertex 5.4181 -6.54936 -1
      vertex 6.19623 -5.81865 -1
    endloop
  endfacet
  facet normal 0 0 -1
    outer loop
      vertex 4.55453 -7.17679 -1
      vertex 6.42992 -10.1319 -1
      vertex 5.10935 -10.8579 -1
    endloop
  endfacet
  facet normal 0 0 -1
    outer loop
      vertex 6.42992 -10.1319 -1
      vertex 4.55453 -7.17679 -1
      vertex 5.4181 -6.54936 -1
    endloop
  endfacet
  facet normal 0 0 -1
    outer loop
      vertex 3.61912 -7.69103 -1
      vertex 5.10935 -10.8579 -1
      vertex 3.7082 -11.4127 -1
    endloop
  endfacet
  facet normal 0 0 -1
    outer loop
      vertex 5.10935 -10.8579 -1
      vertex 3.61912 -7.69103 -1
      vertex 4.55453 -7.17679 -1
    endloop
  endfacet
  facet normal 0 0 -1
    outer loop
      vertex 3.7082 -11.4127 -1
      vertex 2.62664 -8.08398 -1
      vertex 3.61912 -7.69103 -1
    endloop
  endfacet
  facet normal 0 0 -1
    outer loop
      vertex 2.24858 -11.7874 -1
      vertex 2.62664 -8.08398 -1
      vertex 3.7082 -11.4127 -1
    endloop
  endfacet
  facet normal 0 0 -1
    outer loop
      vertex 2.24858 -11.7874 -1
      vertex 1.59274 -8.34944 -1
      vertex 2.62664 -8.08398 -1
    endloop
  endfacet
  facet normal 0 0 -1
    outer loop
      vertex 0.753486 -11.9763 -1
      vertex 1.59274 -8.34944 -1
      vertex 2.24858 -11.7874 -1
    endloop
  endfacet
  facet normal 0 0 -1
    outer loop
      vertex 0.753486 -11.9763 -1
      vertex 0.533719 -8.48323 -1
      vertex 1.59274 -8.34944 -1
    endloop
  endfacet
  facet normal 0 0 -1
    outer loop
      vertex 0.753486 -11.9763 -1
      vertex -0.533719 -8.48323 -1
      vertex 0.533719 -8.48323 -1
    endloop
  endfacet
  facet normal 0 0 -1
    outer loop
      vertex -0.753486 -11.9763 -1
      vertex -0.533719 -8.48323 -1
      vertex 0.753486 -11.9763 -1
    endloop
  endfacet
  facet normal 0 0 -1
    outer loop
      vertex -0.753486 -11.9763 -1
      vertex -1.59274 -8.34944 -1
      vertex -0.533719 -8.48323 -1
    endloop
  endfacet
  facet normal 0 0 -1
    outer loop
      vertex -2.24858 -11.7874 -1
      vertex -1.59274 -8.34944 -1
      vertex -0.753486 -11.9763 -1
    endloop
  endfacet
  facet normal 0 0 -1
    outer loop
      vertex -2.24858 -11.7874 -1
      vertex -2.62664 -8.08398 -1
      vertex -1.59274 -8.34944 -1
    endloop
  endfacet
  facet normal 0 0 -1
    outer loop
      vertex -3.7082 -11.4127 -1
      vertex -2.62664 -8.08398 -1
      vertex -2.24858 -11.7874 -1
    endloop
  endfacet
  facet normal -0 0 -1
    outer loop
      vertex -2.62664 -8.08398 -1
      vertex -3.7082 -11.4127 -1
      vertex -3.61912 -7.69103 -1
    endloop
  endfacet
  facet normal 0 0 -1
    outer loop
      vertex -5.10935 -10.8579 -1
      vertex -3.61912 -7.69103 -1
      vertex -3.7082 -11.4127 -1
    endloop
  endfacet
  facet normal -0 0 -1
    outer loop
      vertex -3.61912 -7.69103 -1
      vertex -5.10935 -10.8579 -1
      vertex -4.55453 -7.17679 -1
    endloop
  endfacet
  facet normal 0 0 -1
    outer loop
      vertex -6.42992 -10.1319 -1
      vertex -4.55453 -7.17679 -1
      vertex -5.10935 -10.8579 -1
    endloop
  endfacet
  facet normal -0 0 -1
    outer loop
      vertex -4.55453 -7.17679 -1
      vertex -6.42992 -10.1319 -1
      vertex -5.4181 -6.54936 -1
    endloop
  endfacet
  facet normal 0 0 -1
    outer loop
      vertex -7.64909 -9.24616 -1
      vertex -5.4181 -6.54936 -1
      vertex -6.42992 -10.1319 -1
    endloop
  endfacet
  facet normal -0 0 -1
    outer loop
      vertex -5.4181 -6.54936 -1
      vertex -7.64909 -9.24616 -1
      vertex -6.19623 -5.81865 -1
    endloop
  endfacet
  facet normal 0 0 -1
    outer loop
      vertex -8.74762 -8.21456 -1
      vertex -6.19623 -5.81865 -1
      vertex -7.64909 -9.24616 -1
    endloop
  endfacet
  facet normal -0 0 -1
    outer loop
      vertex -6.19623 -5.81865 -1
      vertex -8.74762 -8.21456 -1
      vertex -6.87664 -4.99617 -1
    endloop
  endfacet
  facet normal 0 0 -1
    outer loop
      vertex -9.7082 -7.05342 -1
      vertex -6.87664 -4.99617 -1
      vertex -8.74762 -8.21456 -1
    endloop
  endfacet
  facet normal -0 0 -1
    outer loop
      vertex -6.87664 -4.99617 -1
      vertex -9.7082 -7.05342 -1
      vertex -7.44861 -4.09491 -1
    endloop
  endfacet
  facet normal 0 0 -1
    outer loop
      vertex -10.5157 -5.78104 -1
      vertex -7.44861 -4.09491 -1
      vertex -9.7082 -7.05342 -1
    endloop
  endfacet
  facet normal 0 0 -1
    outer loop
      vertex -11.1573 -4.41749 -1
      vertex -7.9031 -3.12906 -1
      vertex -10.5157 -5.78104 -1
    endloop
  endfacet
  facet normal -0 0 -1
    outer loop
      vertex -7.44861 -4.09491 -1
      vertex -10.5157 -5.78104 -1
      vertex -7.9031 -3.12906 -1
    endloop
  endfacet
  facet normal -0 0 -1
    outer loop
      vertex 11.1573 4.41749 -1
      vertex 7.9031 3.12906 -1
      vertex 10.5157 5.78104 -1
    endloop
  endfacet
  facet normal 0 0 -1
    outer loop
      vertex 7.44861 4.09491 -1
      vertex 10.5157 5.78104 -1
      vertex 7.9031 3.12906 -1
    endloop
  endfacet
  facet normal -0 0 -1
    outer loop
      vertex 10.5157 5.78104 -1
      vertex 7.44861 4.09491 -1
      vertex 9.7082 7.05342 -1
    endloop
  endfacet
  facet normal 0 0 -1
    outer loop
      vertex 6.87664 4.99617 -1
      vertex 9.7082 7.05342 -1
      vertex 7.44861 4.09491 -1
    endloop
  endfacet
  facet normal -0 0 -1
    outer loop
      vertex 9.7082 7.05342 -1
      vertex 6.87664 4.99617 -1
      vertex 8.74762 8.21456 -1
    endloop
  endfacet
  facet normal 0 0 -1
    outer loop
      vertex 6.19623 5.81865 -1
      vertex 8.74762 8.21456 -1
      vertex 6.87664 4.99617 -1
    endloop
  endfacet
  facet normal -0 0 -1
    outer loop
      vertex 8.74762 8.21456 -1
      vertex 6.19623 5.81865 -1
      vertex 7.64909 9.24616 -1
    endloop
  endfacet
  facet normal 0 0 -1
    outer loop
      vertex 5.4181 6.54936 -1
      vertex 7.64909 9.24616 -1
      vertex 6.19623 5.81865 -1
    endloop
  endfacet
  facet normal -0 0 -1
    outer loop
      vertex 7.64909 9.24616 -1
      vertex 5.4181 6.54936 -1
      vertex 6.42992 10.1319 -1
    endloop
  endfacet
  facet normal 0 0 -1
    outer loop
      vertex 4.55453 7.17679 -1
      vertex 6.42992 10.1319 -1
      vertex 5.4181 6.54936 -1
    endloop
  endfacet
  facet normal -0 0 -1
    outer loop
      vertex 6.42992 10.1319 -1
      vertex 4.55453 7.17679 -1
      vertex 5.10935 10.8579 -1
    endloop
  endfacet
  facet normal 0 0 -1
    outer loop
      vertex 3.61912 7.69103 -1
      vertex 5.10935 10.8579 -1
      vertex 4.55453 7.17679 -1
    endloop
  endfacet
  facet normal -0 0 -1
    outer loop
      vertex 5.10935 10.8579 -1
      vertex 3.61912 7.69103 -1
      vertex 3.7082 11.4127 -1
    endloop
  endfacet
  facet normal 0 0 -1
    outer loop
      vertex 2.62664 8.08398 -1
      vertex 3.7082 11.4127 -1
      vertex 3.61912 7.69103 -1
    endloop
  endfacet
  facet normal 0 0 -1
    outer loop
      vertex 2.62664 8.08398 -1
      vertex 2.24858 11.7874 -1
      vertex 3.7082 11.4127 -1
    endloop
  endfacet
  facet normal 0 0 -1
    outer loop
      vertex 1.59274 8.34944 -1
      vertex 2.24858 11.7874 -1
      vertex 2.62664 8.08398 -1
    endloop
  endfacet
  facet normal 0 0 -1
    outer loop
      vertex 1.59274 8.34944 -1
      vertex 0.753486 11.9763 -1
      vertex 2.24858 11.7874 -1
    endloop
  endfacet
  facet normal 0 0 -1
    outer loop
      vertex 0.533719 8.48323 -1
      vertex 0.753486 11.9763 -1
      vertex 1.59274 8.34944 -1
    endloop
  endfacet
  facet normal 0 0 -1
    outer loop
      vertex -0.533719 8.48323 -1
      vertex 0.753486 11.9763 -1
      vertex 0.533719 8.48323 -1
    endloop
  endfacet
  facet normal 0 0 -1
    outer loop
      vertex -0.533719 8.48323 -1
      vertex -0.753486 11.9763 -1
      vertex 0.753486 11.9763 -1
    endloop
  endfacet
  facet normal 0 0 -1
    outer loop
      vertex -1.59274 8.34944 -1
      vertex -0.753486 11.9763 -1
      vertex -0.533719 8.48323 -1
    endloop
  endfacet
  facet normal 0 0 -1
    outer loop
      vertex -1.59274 8.34944 -1
      vertex -2.24858 11.7874 -1
      vertex -0.753486 11.9763 -1
    endloop
  endfacet
  facet normal 0 0 -1
    outer loop
      vertex -2.62664 8.08398 -1
      vertex -2.24858 11.7874 -1
      vertex -1.59274 8.34944 -1
    endloop
  endfacet
  facet normal 0 0 -1
    outer loop
      vertex -3.7082 11.4127 -1
      vertex -2.62664 8.08398 -1
      vertex -3.61912 7.69103 -1
    endloop
  endfacet
  facet normal 0 0 -1
    outer loop
      vertex -2.62664 8.08398 -1
      vertex -3.7082 11.4127 -1
      vertex -2.24858 11.7874 -1
    endloop
  endfacet
  facet normal 0 0 -1
    outer loop
      vertex -5.10935 10.8579 -1
      vertex -3.61912 7.69103 -1
      vertex -4.55453 7.17679 -1
    endloop
  endfacet
  facet normal 0 0 -1
    outer loop
      vertex -3.61912 7.69103 -1
      vertex -5.10935 10.8579 -1
      vertex -3.7082 11.4127 -1
    endloop
  endfacet
  facet normal 0 0 -1
    outer loop
      vertex -6.42992 10.1319 -1
      vertex -4.55453 7.17679 -1
      vertex -5.4181 6.54936 -1
    endloop
  endfacet
  facet normal 0 0 -1
    outer loop
      vertex -7.64909 9.24616 -1
      vertex -5.4181 6.54936 -1
      vertex -6.19623 5.81865 -1
    endloop
  endfacet
  facet normal 0 0 -1
    outer loop
      vertex -4.55453 7.17679 -1
      vertex -6.42992 10.1319 -1
      vertex -5.10935 10.8579 -1
    endloop
  endfacet
  facet normal 0 0 -1
    outer loop
      vertex -8.74762 8.21456 -1
      vertex -6.19623 5.81865 -1
      vertex -6.87664 4.99617 -1
    endloop
  endfacet
  facet normal 0 0 -1
    outer loop
      vertex -9.7082 7.05342 -1
      vertex -6.87664 4.99617 -1
      vertex -7.44861 4.09491 -1
    endloop
  endfacet
  facet normal 0 0 -1
    outer loop
      vertex -5.4181 6.54936 -1
      vertex -7.64909 9.24616 -1
      vertex -6.42992 10.1319 -1
    endloop
  endfacet
  facet normal 0 0 -1
    outer loop
      vertex -10.5157 5.78104 -1
      vertex -7.44861 4.09491 -1
      vertex -7.9031 3.12906 -1
    endloop
  endfacet
  facet normal 0 0 -1
    outer loop
      vertex -11.1573 4.41749 -1
      vertex -7.9031 3.12906 -1
      vertex -8.23296 2.11386 -1
    endloop
  endfacet
  facet normal 0 0 -1
    outer loop
      vertex -11.623 2.98428 -1
      vertex -8.23296 2.11386 -1
      vertex -8.43297 1.06533 -1
    endloop
  endfacet
  facet normal 0 0 -1
    outer loop
      vertex -6.19623 5.81865 -1
      vertex -8.74762 8.21456 -1
      vertex -7.64909 9.24616 -1
    endloop
  endfacet
  facet normal 0 0 -1
    outer loop
      vertex -11.9054 1.504 -1
      vertex -8.43297 1.06533 -1
      vertex -8.5 0 -1
    endloop
  endfacet
  facet normal -0 0 -1
    outer loop
      vertex -7.9031 -3.12906 -1
      vertex -11.1573 -4.41749 -1
      vertex -8.23296 -2.11386 -1
    endloop
  endfacet
  facet normal 0 0 -1
    outer loop
      vertex -11.623 -2.98428 -1
      vertex -8.23296 -2.11386 -1
      vertex -11.1573 -4.41749 -1
    endloop
  endfacet
  facet normal 0 0 -1
    outer loop
      vertex -6.87664 4.99617 -1
      vertex -9.7082 7.05342 -1
      vertex -8.74762 8.21456 -1
    endloop
  endfacet
  facet normal -0 0 -1
    outer loop
      vertex -8.23296 -2.11386 -1
      vertex -11.623 -2.98428 -1
      vertex -8.43297 -1.06533 -1
    endloop
  endfacet
  facet normal 0 0 -1
    outer loop
      vertex -7.44861 4.09491 -1
      vertex -10.5157 5.78104 -1
      vertex -9.7082 7.05342 -1
    endloop
  endfacet
  facet normal 0 0 -1
    outer loop
      vertex -11.9054 -1.504 -1
      vertex -8.43297 -1.06533 -1
      vertex -11.623 -2.98428 -1
    endloop
  endfacet
  facet normal 0 0 -1
    outer loop
      vertex -7.9031 3.12906 -1
      vertex -11.1573 4.41749 -1
      vertex -10.5157 5.78104 -1
    endloop
  endfacet
  facet normal -0 0 -1
    outer loop
      vertex -8.43297 -1.06533 -1
      vertex -11.9054 -1.504 -1
      vertex -8.5 0 -1
    endloop
  endfacet
  facet normal 0 0 -1
    outer loop
      vertex -8.23296 2.11386 -1
      vertex -11.623 2.98428 -1
      vertex -11.1573 4.41749 -1
    endloop
  endfacet
  facet normal 0 0 -1
    outer loop
      vertex -12 0 -1
      vertex -8.5 0 -1
      vertex -11.9054 -1.504 -1
    endloop
  endfacet
  facet normal 0 0 -1
    outer loop
      vertex -8.43297 1.06533 -1
      vertex -11.9054 1.504 -1
      vertex -11.623 2.98428 -1
    endloop
  endfacet
  facet normal 0 0 -1
    outer loop
      vertex -8.5 0 -1
      vertex -12 0 -1
      vertex -11.9054 1.504 -1
    endloop
  endfacet
  facet normal 0.368151 -0.929766 0
    outer loop
      vertex 3.7082 -11.4127 -1
      vertex 5.10935 -10.8579 1
      vertex 3.7082 -11.4127 1
    endloop
  endfacet
  facet normal 0.368151 -0.929766 0
    outer loop
      vertex 5.10935 -10.8579 1
      vertex 3.7082 -11.4127 -1
      vertex 5.10935 -10.8579 -1
    endloop
  endfacet
  facet normal -0.481759 0.876304 0
    outer loop
      vertex -5.10935 10.8579 -1
      vertex -6.42992 10.1319 1
      vertex -5.10935 10.8579 1
    endloop
  endfacet
  facet normal -0.481759 0.876304 0
    outer loop
      vertex -6.42992 10.1319 1
      vertex -5.10935 10.8579 -1
      vertex -6.42992 10.1319 -1
    endloop
  endfacet
  facet normal -0.248648 0.968594 0
    outer loop
      vertex -2.24858 11.7874 -1
      vertex -3.7082 11.4127 1
      vertex -2.24858 11.7874 1
    endloop
  endfacet
  facet normal -0.248648 0.968594 0
    outer loop
      vertex -3.7082 11.4127 1
      vertex -2.24858 11.7874 -1
      vertex -3.7082 11.4127 -1
    endloop
  endfacet
  facet normal 0.684551 -0.728965 0
    outer loop
      vertex 7.64909 -9.24616 -1
      vertex 8.74762 -8.21456 1
      vertex 7.64909 -9.24616 1
    endloop
  endfacet
  facet normal 0.684551 -0.728965 0
    outer loop
      vertex 8.74762 -8.21456 1
      vertex 7.64909 -9.24616 -1
      vertex 8.74762 -8.21456 -1
    endloop
  endfacet
  facet normal 0.951052 -0.30903 0
    outer loop
      vertex 11.1573 -4.41749 1
      vertex 11.623 -2.98428 -1
      vertex 11.623 -2.98428 1
    endloop
  endfacet
  facet normal 0.951052 -0.30903 0
    outer loop
      vertex 11.623 -2.98428 -1
      vertex 11.1573 -4.41749 1
      vertex 11.1573 -4.41749 -1
    endloop
  endfacet
  facet normal 0.998028 -0.0627749 0
    outer loop
      vertex 11.9054 -1.504 1
      vertex 12 0 -1
      vertex 12 0 1
    endloop
  endfacet
  facet normal 0.998028 -0.0627749 0
    outer loop
      vertex 12 0 -1
      vertex 11.9054 -1.504 1
      vertex 11.9054 -1.504 -1
    endloop
  endfacet
  facet normal -0.684551 -0.728965 0
    outer loop
      vertex -8.74762 -8.21456 -1
      vertex -7.64909 -9.24616 1
      vertex -8.74762 -8.21456 1
    endloop
  endfacet
  facet normal -0.684551 -0.728965 -0
    outer loop
      vertex -7.64909 -9.24616 1
      vertex -8.74762 -8.21456 -1
      vertex -7.64909 -9.24616 -1
    endloop
  endfacet
  facet normal -0.770513 -0.637425 0
    outer loop
      vertex -8.74762 -8.21456 -1
      vertex -9.7082 -7.05342 1
      vertex -9.7082 -7.05342 -1
    endloop
  endfacet
  facet normal -0.770513 -0.637425 0
    outer loop
      vertex -9.7082 -7.05342 1
      vertex -8.74762 -8.21456 -1
      vertex -8.74762 -8.21456 1
    endloop
  endfacet
  facet normal -0.951052 -0.30903 0
    outer loop
      vertex -11.1573 -4.41749 -1
      vertex -11.623 -2.98428 1
      vertex -11.623 -2.98428 -1
    endloop
  endfacet
  facet normal -0.951052 -0.30903 0
    outer loop
      vertex -11.623 -2.98428 1
      vertex -11.1573 -4.41749 -1
      vertex -11.1573 -4.41749 1
    endloop
  endfacet
  facet normal 0.248648 -0.968594 0
    outer loop
      vertex 2.24858 -11.7874 -1
      vertex 3.7082 -11.4127 1
      vertex 2.24858 -11.7874 1
    endloop
  endfacet
  facet normal 0.248648 -0.968594 0
    outer loop
      vertex 3.7082 -11.4127 1
      vertex 2.24858 -11.7874 -1
      vertex 3.7082 -11.4127 -1
    endloop
  endfacet
  facet normal 0.481759 -0.876304 0
    outer loop
      vertex 5.10935 -10.8579 -1
      vertex 6.42992 -10.1319 1
      vertex 5.10935 -10.8579 1
    endloop
  endfacet
  facet normal 0.481759 -0.876304 0
    outer loop
      vertex 6.42992 -10.1319 1
      vertex 5.10935 -10.8579 -1
      vertex 6.42992 -10.1319 -1
    endloop
  endfacet
  facet normal 0.587768 -0.809029 0
    outer loop
      vertex 6.42992 -10.1319 -1
      vertex 7.64909 -9.24616 1
      vertex 6.42992 -10.1319 1
    endloop
  endfacet
  facet normal 0.587768 -0.809029 0
    outer loop
      vertex 7.64909 -9.24616 1
      vertex 6.42992 -10.1319 -1
      vertex 7.64909 -9.24616 -1
    endloop
  endfacet
  facet normal -0.12535 -0.992113 0
    outer loop
      vertex -2.24858 -11.7874 -1
      vertex -0.753486 -11.9763 1
      vertex -2.24858 -11.7874 1
    endloop
  endfacet
  facet normal -0.12535 -0.992113 -0
    outer loop
      vertex -0.753486 -11.9763 1
      vertex -2.24858 -11.7874 -1
      vertex -0.753486 -11.9763 -1
    endloop
  endfacet
  facet normal -0.587768 -0.809029 0
    outer loop
      vertex -7.64909 -9.24616 -1
      vertex -6.42992 -10.1319 1
      vertex -7.64909 -9.24616 1
    endloop
  endfacet
  facet normal -0.587768 -0.809029 -0
    outer loop
      vertex -6.42992 -10.1319 1
      vertex -7.64909 -9.24616 -1
      vertex -6.42992 -10.1319 -1
    endloop
  endfacet
  facet normal -0.844321 -0.535838 0
    outer loop
      vertex -9.7082 -7.05342 -1
      vertex -10.5157 -5.78104 1
      vertex -10.5157 -5.78104 -1
    endloop
  endfacet
  facet normal -0.844321 -0.535838 0
    outer loop
      vertex -10.5157 -5.78104 1
      vertex -9.7082 -7.05342 -1
      vertex -9.7082 -7.05342 1
    endloop
  endfacet
  facet normal -0.904837 -0.425759 0
    outer loop
      vertex -10.5157 -5.78104 -1
      vertex -11.1573 -4.41749 1
      vertex -11.1573 -4.41749 -1
    endloop
  endfacet
  facet normal -0.904837 -0.425759 0
    outer loop
      vertex -11.1573 -4.41749 1
      vertex -10.5157 -5.78104 -1
      vertex -10.5157 -5.78104 1
    endloop
  endfacet
  facet normal -0.982285 -0.187395 0
    outer loop
      vertex -11.623 -2.98428 -1
      vertex -11.9054 -1.504 1
      vertex -11.9054 -1.504 -1
    endloop
  endfacet
  facet normal -0.982285 -0.187395 0
    outer loop
      vertex -11.9054 -1.504 1
      vertex -11.623 -2.98428 -1
      vertex -11.623 -2.98428 1
    endloop
  endfacet
  facet normal -0.998028 -0.0627749 0
    outer loop
      vertex -11.9054 -1.504 -1
      vertex -12 0 1
      vertex -12 0 -1
    endloop
  endfacet
  facet normal -0.998028 -0.0627749 0
    outer loop
      vertex -12 0 1
      vertex -11.9054 -1.504 -1
      vertex -11.9054 -1.504 1
    endloop
  endfacet
  facet normal -0.248648 -0.968594 0
    outer loop
      vertex -3.7082 -11.4127 -1
      vertex -2.24858 -11.7874 1
      vertex -3.7082 -11.4127 1
    endloop
  endfacet
  facet normal -0.248648 -0.968594 -0
    outer loop
      vertex -2.24858 -11.7874 1
      vertex -3.7082 -11.4127 -1
      vertex -2.24858 -11.7874 -1
    endloop
  endfacet
  facet normal -0.368151 -0.929766 0
    outer loop
      vertex -5.10935 -10.8579 -1
      vertex -3.7082 -11.4127 1
      vertex -5.10935 -10.8579 1
    endloop
  endfacet
  facet normal -0.368151 -0.929766 -0
    outer loop
      vertex -3.7082 -11.4127 1
      vertex -5.10935 -10.8579 -1
      vertex -3.7082 -11.4127 -1
    endloop
  endfacet
  facet normal -0.481759 -0.876304 0
    outer loop
      vertex -6.42992 -10.1319 -1
      vertex -5.10935 -10.8579 1
      vertex -6.42992 -10.1319 1
    endloop
  endfacet
  facet normal -0.481759 -0.876304 -0
    outer loop
      vertex -5.10935 -10.8579 1
      vertex -6.42992 -10.1319 -1
      vertex -5.10935 -10.8579 -1
    endloop
  endfacet
  facet normal -0.998026 -0.0627953 0
    outer loop
      vertex 8.5 0 -1
      vertex 8.43297 1.06533 1
      vertex 8.43297 1.06533 -1
    endloop
  endfacet
  facet normal -0.998026 -0.0627953 0
    outer loop
      vertex 8.43297 1.06533 1
      vertex 8.5 0 -1
      vertex 8.5 0 1
    endloop
  endfacet
  facet normal 0.998026 -0.0627953 0
    outer loop
      vertex -8.5 0 1
      vertex -8.43297 1.06533 -1
      vertex -8.43297 1.06533 1
    endloop
  endfacet
  facet normal 0.998026 -0.0627953 0
    outer loop
      vertex -8.43297 1.06533 -1
      vertex -8.5 0 1
      vertex -8.5 0 -1
    endloop
  endfacet
  facet normal 0 -1 0
    outer loop
      vertex -0.533719 8.48323 -1
      vertex 0.533719 8.48323 1
      vertex -0.533719 8.48323 1
    endloop
  endfacet
  facet normal 0 -1 -0
    outer loop
      vertex 0.533719 8.48323 1
      vertex -0.533719 8.48323 -1
      vertex 0.533719 8.48323 -1
    endloop
  endfacet
  facet normal 0 1 -0
    outer loop
      vertex 0.533719 -8.48323 -1
      vertex -0.533719 -8.48323 1
      vertex 0.533719 -8.48323 1
    endloop
  endfacet
  facet normal 0 1 0
    outer loop
      vertex -0.533719 -8.48323 1
      vertex 0.533719 -8.48323 -1
      vertex -0.533719 -8.48323 -1
    endloop
  endfacet
  facet normal -0.684546 -0.72897 0
    outer loop
      vertex 5.4181 6.54936 -1
      vertex 6.19623 5.81865 1
      vertex 5.4181 6.54936 1
    endloop
  endfacet
  facet normal -0.684546 -0.72897 -0
    outer loop
      vertex 6.19623 5.81865 1
      vertex 5.4181 6.54936 -1
      vertex 6.19623 5.81865 -1
    endloop
  endfacet
  facet normal 0.684546 -0.72897 0
    outer loop
      vertex -6.19623 5.81865 -1
      vertex -5.4181 6.54936 1
      vertex -6.19623 5.81865 1
    endloop
  endfacet
  facet normal 0.684546 -0.72897 0
    outer loop
      vertex -5.4181 6.54936 1
      vertex -6.19623 5.81865 -1
      vertex -5.4181 6.54936 -1
    endloop
  endfacet
  facet normal 0.368124 -0.929777 0
    outer loop
      vertex -3.61912 7.69103 -1
      vertex -2.62664 8.08398 1
      vertex -3.61912 7.69103 1
    endloop
  endfacet
  facet normal 0.368124 -0.929777 0
    outer loop
      vertex -2.62664 8.08398 1
      vertex -3.61912 7.69103 -1
      vertex -2.62664 8.08398 -1
    endloop
  endfacet
  facet normal -0.904829 -0.425776 0
    outer loop
      vertex 7.9031 3.12906 -1
      vertex 7.44861 4.09491 1
      vertex 7.44861 4.09491 -1
    endloop
  endfacet
  facet normal -0.904829 -0.425776 0
    outer loop
      vertex 7.44861 4.09491 1
      vertex 7.9031 3.12906 -1
      vertex 7.9031 3.12906 1
    endloop
  endfacet
  facet normal -0.368124 -0.929777 0
    outer loop
      vertex 2.62664 8.08398 -1
      vertex 3.61912 7.69103 1
      vertex 2.62664 8.08398 1
    endloop
  endfacet
  facet normal -0.368124 -0.929777 -0
    outer loop
      vertex 3.61912 7.69103 1
      vertex 2.62664 8.08398 -1
      vertex 3.61912 7.69103 -1
    endloop
  endfacet
  facet normal -0.24869 -0.968583 0
    outer loop
      vertex 1.59274 8.34944 -1
      vertex 2.62664 8.08398 1
      vertex 1.59274 8.34944 1
    endloop
  endfacet
  facet normal -0.24869 -0.968583 -0
    outer loop
      vertex 2.62664 8.08398 1
      vertex 1.59274 8.34944 -1
      vertex 2.62664 8.08398 -1
    endloop
  endfacet
  facet normal -0.481749 -0.876309 0
    outer loop
      vertex 3.61912 7.69103 -1
      vertex 4.55453 7.17679 1
      vertex 3.61912 7.69103 1
    endloop
  endfacet
  facet normal -0.481749 -0.876309 -0
    outer loop
      vertex 4.55453 7.17679 1
      vertex 3.61912 7.69103 -1
      vertex 4.55453 7.17679 -1
    endloop
  endfacet
  facet normal 0.904829 -0.425776 0
    outer loop
      vertex -7.9031 3.12906 1
      vertex -7.44861 4.09491 -1
      vertex -7.44861 4.09491 1
    endloop
  endfacet
  facet normal 0.904829 -0.425776 0
    outer loop
      vertex -7.44861 4.09491 -1
      vertex -7.9031 3.12906 1
      vertex -7.9031 3.12906 -1
    endloop
  endfacet
  facet normal 0.125337 -0.992114 0
    outer loop
      vertex -1.59274 8.34944 -1
      vertex -0.533719 8.48323 1
      vertex -1.59274 8.34944 1
    endloop
  endfacet
  facet normal 0.125337 -0.992114 0
    outer loop
      vertex -0.533719 8.48323 1
      vertex -1.59274 8.34944 -1
      vertex -0.533719 8.48323 -1
    endloop
  endfacet
  facet normal -0.125337 0.992114 0
    outer loop
      vertex 1.59274 -8.34944 -1
      vertex 0.533719 -8.48323 1
      vertex 1.59274 -8.34944 1
    endloop
  endfacet
  facet normal -0.125337 0.992114 0
    outer loop
      vertex 0.533719 -8.48323 1
      vertex 1.59274 -8.34944 -1
      vertex 0.533719 -8.48323 -1
    endloop
  endfacet
  facet normal -0.951056 -0.309018 0
    outer loop
      vertex 8.23296 2.11386 -1
      vertex 7.9031 3.12906 1
      vertex 7.9031 3.12906 -1
    endloop
  endfacet
  facet normal -0.951056 -0.309018 0
    outer loop
      vertex 7.9031 3.12906 1
      vertex 8.23296 2.11386 -1
      vertex 8.23296 2.11386 1
    endloop
  endfacet
  facet normal -0.982289 -0.187374 0
    outer loop
      vertex 8.43297 1.06533 -1
      vertex 8.23296 2.11386 1
      vertex 8.23296 2.11386 -1
    endloop
  endfacet
  facet normal -0.982289 -0.187374 0
    outer loop
      vertex 8.23296 2.11386 1
      vertex 8.43297 1.06533 -1
      vertex 8.43297 1.06533 1
    endloop
  endfacet
  facet normal -0.770515 -0.637421 0
    outer loop
      vertex 6.87664 4.99617 -1
      vertex 6.19623 5.81865 1
      vertex 6.19623 5.81865 -1
    endloop
  endfacet
  facet normal -0.770515 -0.637421 0
    outer loop
      vertex 6.19623 5.81865 1
      vertex 6.87664 4.99617 -1
      vertex 6.87664 4.99617 1
    endloop
  endfacet
  facet normal -0.844322 -0.535835 0
    outer loop
      vertex 7.44861 4.09491 -1
      vertex 6.87664 4.99617 1
      vertex 6.87664 4.99617 -1
    endloop
  endfacet
  facet normal -0.844322 -0.535835 0
    outer loop
      vertex 6.87664 4.99617 1
      vertex 7.44861 4.09491 -1
      vertex 7.44861 4.09491 1
    endloop
  endfacet
  facet normal -0.125337 -0.992114 0
    outer loop
      vertex 0.533719 8.48323 -1
      vertex 1.59274 8.34944 1
      vertex 0.533719 8.48323 1
    endloop
  endfacet
  facet normal -0.125337 -0.992114 -0
    outer loop
      vertex 1.59274 8.34944 1
      vertex 0.533719 8.48323 -1
      vertex 1.59274 8.34944 -1
    endloop
  endfacet
  facet normal -0.587791 -0.809013 0
    outer loop
      vertex 4.55453 7.17679 -1
      vertex 5.4181 6.54936 1
      vertex 4.55453 7.17679 1
    endloop
  endfacet
  facet normal -0.587791 -0.809013 -0
    outer loop
      vertex 5.4181 6.54936 1
      vertex 4.55453 7.17679 -1
      vertex 5.4181 6.54936 -1
    endloop
  endfacet
  facet normal 0.844322 -0.535835 0
    outer loop
      vertex -7.44861 4.09491 1
      vertex -6.87664 4.99617 -1
      vertex -6.87664 4.99617 1
    endloop
  endfacet
  facet normal 0.844322 -0.535835 0
    outer loop
      vertex -6.87664 4.99617 -1
      vertex -7.44861 4.09491 1
      vertex -7.44861 4.09491 -1
    endloop
  endfacet
  facet normal 0.770515 -0.637421 0
    outer loop
      vertex -6.87664 4.99617 1
      vertex -6.19623 5.81865 -1
      vertex -6.19623 5.81865 1
    endloop
  endfacet
  facet normal 0.770515 -0.637421 0
    outer loop
      vertex -6.19623 5.81865 -1
      vertex -6.87664 4.99617 1
      vertex -6.87664 4.99617 -1
    endloop
  endfacet
  facet normal 0.951056 -0.309018 0
    outer loop
      vertex -8.23296 2.11386 1
      vertex -7.9031 3.12906 -1
      vertex -7.9031 3.12906 1
    endloop
  endfacet
  facet normal 0.951056 -0.309018 0
    outer loop
      vertex -7.9031 3.12906 -1
      vertex -8.23296 2.11386 1
      vertex -8.23296 2.11386 -1
    endloop
  endfacet
  facet normal 0.982289 -0.187374 0
    outer loop
      vertex -8.43297 1.06533 1
      vertex -8.23296 2.11386 -1
      vertex -8.23296 2.11386 1
    endloop
  endfacet
  facet normal 0.982289 -0.187374 0
    outer loop
      vertex -8.23296 2.11386 -1
      vertex -8.43297 1.06533 1
      vertex -8.43297 1.06533 -1
    endloop
  endfacet
  facet normal 0.481749 -0.876309 0
    outer loop
      vertex -4.55453 7.17679 -1
      vertex -3.61912 7.69103 1
      vertex -4.55453 7.17679 1
    endloop
  endfacet
  facet normal 0.481749 -0.876309 0
    outer loop
      vertex -3.61912 7.69103 1
      vertex -4.55453 7.17679 -1
      vertex -3.61912 7.69103 -1
    endloop
  endfacet
  facet normal 0.587791 -0.809013 0
    outer loop
      vertex -5.4181 6.54936 -1
      vertex -4.55453 7.17679 1
      vertex -5.4181 6.54936 1
    endloop
  endfacet
  facet normal 0.587791 -0.809013 0
    outer loop
      vertex -4.55453 7.17679 1
      vertex -5.4181 6.54936 -1
      vertex -4.55453 7.17679 -1
    endloop
  endfacet
  facet normal 0.24869 -0.968583 0
    outer loop
      vertex -2.62664 8.08398 -1
      vertex -1.59274 8.34944 1
      vertex -2.62664 8.08398 1
    endloop
  endfacet
  facet normal 0.24869 -0.968583 0
    outer loop
      vertex -1.59274 8.34944 1
      vertex -2.62664 8.08398 -1
      vertex -1.59274 8.34944 -1
    endloop
  endfacet
  facet normal -0.998026 0.0627953 0
    outer loop
      vertex 8.43297 -1.06533 -1
      vertex 8.5 0 1
      vertex 8.5 0 -1
    endloop
  endfacet
  facet normal -0.998026 0.0627953 0
    outer loop
      vertex 8.5 0 1
      vertex 8.43297 -1.06533 -1
      vertex 8.43297 -1.06533 1
    endloop
  endfacet
  facet normal -0.904829 0.425776 0
    outer loop
      vertex 7.44861 -4.09491 -1
      vertex 7.9031 -3.12906 1
      vertex 7.9031 -3.12906 -1
    endloop
  endfacet
  facet normal -0.904829 0.425776 0
    outer loop
      vertex 7.9031 -3.12906 1
      vertex 7.44861 -4.09491 -1
      vertex 7.44861 -4.09491 1
    endloop
  endfacet
  facet normal 0.684546 0.72897 -0
    outer loop
      vertex -5.4181 -6.54936 -1
      vertex -6.19623 -5.81865 1
      vertex -5.4181 -6.54936 1
    endloop
  endfacet
  facet normal 0.684546 0.72897 0
    outer loop
      vertex -6.19623 -5.81865 1
      vertex -5.4181 -6.54936 -1
      vertex -6.19623 -5.81865 -1
    endloop
  endfacet
  facet normal 0.904829 0.425776 0
    outer loop
      vertex -7.44861 -4.09491 1
      vertex -7.9031 -3.12906 -1
      vertex -7.9031 -3.12906 1
    endloop
  endfacet
  facet normal 0.904829 0.425776 0
    outer loop
      vertex -7.9031 -3.12906 -1
      vertex -7.44861 -4.09491 1
      vertex -7.44861 -4.09491 -1
    endloop
  endfacet
  facet normal 0.844322 0.535835 0
    outer loop
      vertex -6.87664 -4.99617 1
      vertex -7.44861 -4.09491 -1
      vertex -7.44861 -4.09491 1
    endloop
  endfacet
  facet normal 0.844322 0.535835 0
    outer loop
      vertex -7.44861 -4.09491 -1
      vertex -6.87664 -4.99617 1
      vertex -6.87664 -4.99617 -1
    endloop
  endfacet
  facet normal -0.481749 0.876309 0
    outer loop
      vertex 4.55453 -7.17679 -1
      vertex 3.61912 -7.69103 1
      vertex 4.55453 -7.17679 1
    endloop
  endfacet
  facet normal -0.481749 0.876309 0
    outer loop
      vertex 3.61912 -7.69103 1
      vertex 4.55453 -7.17679 -1
      vertex 3.61912 -7.69103 -1
    endloop
  endfacet
  facet normal -0.951056 0.309018 0
    outer loop
      vertex 7.9031 -3.12906 -1
      vertex 8.23296 -2.11386 1
      vertex 8.23296 -2.11386 -1
    endloop
  endfacet
  facet normal -0.951056 0.309018 0
    outer loop
      vertex 8.23296 -2.11386 1
      vertex 7.9031 -3.12906 -1
      vertex 7.9031 -3.12906 1
    endloop
  endfacet
  facet normal 0.770515 0.637421 0
    outer loop
      vertex -6.19623 -5.81865 1
      vertex -6.87664 -4.99617 -1
      vertex -6.87664 -4.99617 1
    endloop
  endfacet
  facet normal 0.770515 0.637421 0
    outer loop
      vertex -6.87664 -4.99617 -1
      vertex -6.19623 -5.81865 1
      vertex -6.19623 -5.81865 -1
    endloop
  endfacet
  facet normal 0.982289 0.187374 0
    outer loop
      vertex -8.23296 -2.11386 1
      vertex -8.43297 -1.06533 -1
      vertex -8.43297 -1.06533 1
    endloop
  endfacet
  facet normal 0.982289 0.187374 0
    outer loop
      vertex -8.43297 -1.06533 -1
      vertex -8.23296 -2.11386 1
      vertex -8.23296 -2.11386 -1
    endloop
  endfacet
  facet normal 0.998026 0.0627953 0
    outer loop
      vertex -8.43297 -1.06533 1
      vertex -8.5 0 -1
      vertex -8.5 0 1
    endloop
  endfacet
  facet normal 0.998026 0.0627953 0
    outer loop
      vertex -8.5 0 -1
      vertex -8.43297 -1.06533 1
      vertex -8.43297 -1.06533 -1
    endloop
  endfacet
  facet normal 0.951056 0.309018 0
    outer loop
      vertex -7.9031 -3.12906 1
      vertex -8.23296 -2.11386 -1
      vertex -8.23296 -2.11386 1
    endloop
  endfacet
  facet normal 0.951056 0.309018 0
    outer loop
      vertex -8.23296 -2.11386 -1
      vertex -7.9031 -3.12906 1
      vertex -7.9031 -3.12906 -1
    endloop
  endfacet
  facet normal -0.684546 0.72897 0
    outer loop
      vertex 6.19623 -5.81865 -1
      vertex 5.4181 -6.54936 1
      vertex 6.19623 -5.81865 1
    endloop
  endfacet
  facet normal -0.684546 0.72897 0
    outer loop
      vertex 5.4181 -6.54936 1
      vertex 6.19623 -5.81865 -1
      vertex 5.4181 -6.54936 -1
    endloop
  endfacet
  facet normal -0.368124 0.929777 0
    outer loop
      vertex 3.61912 -7.69103 -1
      vertex 2.62664 -8.08398 1
      vertex 3.61912 -7.69103 1
    endloop
  endfacet
  facet normal -0.368124 0.929777 0
    outer loop
      vertex 2.62664 -8.08398 1
      vertex 3.61912 -7.69103 -1
      vertex 2.62664 -8.08398 -1
    endloop
  endfacet
  facet normal -0.24869 0.968583 0
    outer loop
      vertex 2.62664 -8.08398 -1
      vertex 1.59274 -8.34944 1
      vertex 2.62664 -8.08398 1
    endloop
  endfacet
  facet normal -0.24869 0.968583 0
    outer loop
      vertex 1.59274 -8.34944 1
      vertex 2.62664 -8.08398 -1
      vertex 1.59274 -8.34944 -1
    endloop
  endfacet
  facet normal -0.982289 0.187374 0
    outer loop
      vertex 8.23296 -2.11386 -1
      vertex 8.43297 -1.06533 1
      vertex 8.43297 -1.06533 -1
    endloop
  endfacet
  facet normal -0.982289 0.187374 0
    outer loop
      vertex 8.43297 -1.06533 1
      vertex 8.23296 -2.11386 -1
      vertex 8.23296 -2.11386 1
    endloop
  endfacet
  facet normal -0.844322 0.535835 0
    outer loop
      vertex 6.87664 -4.99617 -1
      vertex 7.44861 -4.09491 1
      vertex 7.44861 -4.09491 -1
    endloop
  endfacet
  facet normal -0.844322 0.535835 0
    outer loop
      vertex 7.44861 -4.09491 1
      vertex 6.87664 -4.99617 -1
      vertex 6.87664 -4.99617 1
    endloop
  endfacet
  facet normal -0.770515 0.637421 0
    outer loop
      vertex 6.19623 -5.81865 -1
      vertex 6.87664 -4.99617 1
      vertex 6.87664 -4.99617 -1
    endloop
  endfacet
  facet normal -0.770515 0.637421 0
    outer loop
      vertex 6.87664 -4.99617 1
      vertex 6.19623 -5.81865 -1
      vertex 6.19623 -5.81865 1
    endloop
  endfacet
  facet normal 0.125337 0.992114 -0
    outer loop
      vertex -0.533719 -8.48323 -1
      vertex -1.59274 -8.34944 1
      vertex -0.533719 -8.48323 1
    endloop
  endfacet
  facet normal 0.125337 0.992114 0
    outer loop
      vertex -1.59274 -8.34944 1
      vertex -0.533719 -8.48323 -1
      vertex -1.59274 -8.34944 -1
    endloop
  endfacet
  facet normal 0.587791 0.809013 -0
    outer loop
      vertex -4.55453 -7.17679 -1
      vertex -5.4181 -6.54936 1
      vertex -4.55453 -7.17679 1
    endloop
  endfacet
  facet normal 0.587791 0.809013 0
    outer loop
      vertex -5.4181 -6.54936 1
      vertex -4.55453 -7.17679 -1
      vertex -5.4181 -6.54936 -1
    endloop
  endfacet
  facet normal -0.587791 0.809013 0
    outer loop
      vertex 5.4181 -6.54936 -1
      vertex 4.55453 -7.17679 1
      vertex 5.4181 -6.54936 1
    endloop
  endfacet
  facet normal -0.587791 0.809013 0
    outer loop
      vertex 4.55453 -7.17679 1
      vertex 5.4181 -6.54936 -1
      vertex 4.55453 -7.17679 -1
    endloop
  endfacet
  facet normal 0.24869 0.968583 -0
    outer loop
      vertex -1.59274 -8.34944 -1
      vertex -2.62664 -8.08398 1
      vertex -1.59274 -8.34944 1
    endloop
  endfacet
  facet normal 0.24869 0.968583 0
    outer loop
      vertex -2.62664 -8.08398 1
      vertex -1.59274 -8.34944 -1
      vertex -2.62664 -8.08398 -1
    endloop
  endfacet
  facet normal 0.368124 0.929777 -0
    outer loop
      vertex -2.62664 -8.08398 -1
      vertex -3.61912 -7.69103 1
      vertex -2.62664 -8.08398 1
    endloop
  endfacet
  facet normal 0.368124 0.929777 0
    outer loop
      vertex -3.61912 -7.69103 1
      vertex -2.62664 -8.08398 -1
      vertex -3.61912 -7.69103 -1
    endloop
  endfacet
  facet normal 0.481749 0.876309 -0
    outer loop
      vertex -3.61912 -7.69103 -1
      vertex -4.55453 -7.17679 1
      vertex -3.61912 -7.69103 1
    endloop
  endfacet
  facet normal 0.481749 0.876309 0
    outer loop
      vertex -4.55453 -7.17679 1
      vertex -3.61912 -7.69103 -1
      vertex -4.55453 -7.17679 -1
    endloop
  endfacet
endsolid OpenSCAD_Model
