<?xml version="1.0" standalone="no"?>
<!DOCTYPE svg PUBLIC "-//W3C//DTD SVG 1.1//EN" "http://www.w3.org/Graphics/SVG/1.1/DTD/svg11.dtd">
<svg width="106mm" height="334mm" viewBox="-53 -623 106 334" xmlns="http://www.w3.org/2000/svg" version="1.1">
<title>OpenSCAD Model</title>
<path d="
M 48.4369,-517.589 L 49.0451,-517.745 L 49.6289,-517.976 L 50.1791,-518.278 L 50.6871,-518.647 L 51.1448,-519.077
 L 51.5451,-519.561 L 51.8815,-520.091 L 52.1489,-520.659 L 52.3429,-521.257 L 52.4606,-521.873 L 52.5,-522.5
 L 52.5,-617.5 L 52.4606,-618.127 L 52.3429,-618.743 L 52.1489,-619.341 L 51.8815,-619.909 L 51.5451,-620.439
 L 51.1448,-620.923 L 50.6871,-621.353 L 50.1791,-621.722 L 49.6289,-622.024 L 49.0451,-622.255 L 48.4369,-622.411
 L 47.8139,-622.49 L -47.8139,-622.49 L -48.4369,-622.411 L -49.0451,-622.255 L -49.6289,-622.024 L -50.1791,-621.722
 L -50.6871,-621.353 L -51.1448,-620.923 L -51.5451,-620.439 L -51.8815,-619.909 L -52.1489,-619.341 L -52.3429,-618.743
 L -52.4606,-618.127 L -52.5,-617.5 L -52.5,-522.5 L -52.4606,-521.873 L -52.3429,-521.257 L -52.1489,-520.659
 L -51.8815,-520.091 L -51.5451,-519.561 L -51.1448,-519.077 L -50.6871,-518.647 L -50.1791,-518.278 L -49.6289,-517.976
 L -49.0451,-517.745 L -48.4369,-517.589 L -47.8139,-517.51 L 47.8139,-517.51 z
M -47.5482,-518.009 L -48.1401,-518.084 L -48.7178,-518.232 L -49.2724,-518.452 L -49.7952,-518.739 L -50.2778,-519.09
 L -50.7126,-519.498 L -51.0928,-519.958 L -51.4124,-520.462 L -51.6664,-521.001 L -51.8508,-521.569 L -51.9625,-522.155
 L -52,-522.75 L -52,-617.25 L -51.9625,-617.845 L -51.8508,-618.431 L -51.6664,-618.999 L -51.4124,-619.538
 L -51.0928,-620.042 L -50.7126,-620.502 L -50.2778,-620.91 L -49.7952,-621.261 L -49.2724,-621.548 L -48.7178,-621.768
 L -48.1401,-621.916 L -47.5482,-621.991 L 47.5482,-621.991 L 48.1401,-621.916 L 48.7178,-621.768 L 49.2724,-621.548
 L 49.7952,-621.261 L 50.2778,-620.91 L 50.7126,-620.502 L 51.0928,-620.042 L 51.4124,-619.538 L 51.6664,-618.999
 L 51.8508,-618.431 L 51.9625,-617.845 L 52,-617.25 L 52,-522.75 L 51.9625,-522.155 L 51.8508,-521.569
 L 51.6664,-521.001 L 51.4124,-520.462 L 51.0928,-519.958 L 50.7126,-519.498 L 50.2778,-519.09 L 49.7952,-518.739
 L 49.2724,-518.452 L 48.7178,-518.232 L 48.1401,-518.084 L 47.5482,-518.009 z
M 48.4369,-403.589 L 49.0451,-403.745 L 49.6289,-403.976 L 50.1791,-404.278 L 50.6871,-404.647 L 51.1448,-405.077
 L 51.5451,-405.561 L 51.8815,-406.091 L 52.1489,-406.659 L 52.3429,-407.257 L 52.4606,-407.873 L 52.5,-408.5
 L 52.5,-503.5 L 52.4606,-504.127 L 52.3429,-504.743 L 52.1489,-505.341 L 51.8815,-505.909 L 51.5451,-506.439
 L 51.1448,-506.923 L 50.6871,-507.353 L 50.1791,-507.722 L 49.6289,-508.024 L 49.0451,-508.255 L 48.4369,-508.411
 L 47.8139,-508.49 L -47.8139,-508.49 L -48.4369,-508.411 L -49.0451,-508.255 L -49.6289,-508.024 L -50.1791,-507.722
 L -50.6871,-507.353 L -51.1448,-506.923 L -51.5451,-506.439 L -51.8815,-505.909 L -52.1489,-505.341 L -52.3429,-504.743
 L -52.4606,-504.127 L -52.5,-503.5 L -52.5,-408.5 L -52.4606,-407.873 L -52.3429,-407.257 L -52.1489,-406.659
 L -51.8815,-406.091 L -51.5451,-405.561 L -51.1448,-405.077 L -50.6871,-404.647 L -50.1791,-404.278 L -49.6289,-403.976
 L -49.0451,-403.745 L -48.4369,-403.589 L -47.8139,-403.51 L 47.8139,-403.51 z
M -47.5375,-404.181 L -48.1079,-404.253 L -48.6648,-404.396 L -49.1994,-404.607 L -49.7032,-404.884 L -50.1684,-405.222
 L -50.5875,-405.616 L -50.954,-406.059 L -51.2621,-406.544 L -51.5069,-407.065 L -51.6846,-407.611 L -51.7923,-408.176
 L -51.8284,-408.75 L -51.8284,-503.25 L -51.7923,-503.824 L -51.6846,-504.389 L -51.5069,-504.935 L -51.2621,-505.456
 L -50.954,-505.941 L -50.5875,-506.384 L -50.1684,-506.778 L -49.7032,-507.116 L -49.1994,-507.393 L -48.6648,-507.604
 L -48.1079,-507.747 L -47.5375,-507.819 L 47.5375,-507.819 L 48.1079,-507.747 L 48.6648,-507.604 L 49.1994,-507.393
 L 49.7032,-507.116 L 50.1684,-506.778 L 50.5875,-506.384 L 50.954,-505.941 L 51.2621,-505.456 L 51.5069,-504.935
 L 51.6846,-504.389 L 51.7923,-503.824 L 51.8284,-503.25 L 51.8284,-408.75 L 51.7923,-408.176 L 51.6846,-407.611
 L 51.5069,-407.065 L 51.2621,-406.544 L 50.954,-406.059 L 50.5875,-405.616 L 50.1684,-405.222 L 49.7032,-404.884
 L 49.1994,-404.607 L 48.6648,-404.396 L 48.1079,-404.253 L 47.5375,-404.181 z
M 48.4369,-289.589 L 49.0451,-289.745 L 49.6289,-289.976 L 50.1791,-290.278 L 50.6871,-290.647 L 51.1448,-291.077
 L 51.5451,-291.561 L 51.8815,-292.091 L 52.1489,-292.659 L 52.3429,-293.257 L 52.4606,-293.873 L 52.5,-294.5
 L 52.5,-389.5 L 52.4606,-390.127 L 52.3429,-390.743 L 52.1489,-391.341 L 51.8815,-391.909 L 51.5451,-392.439
 L 51.1448,-392.923 L 50.6871,-393.353 L 50.1791,-393.722 L 49.6289,-394.024 L 49.0451,-394.255 L 48.4369,-394.411
 L 47.8139,-394.49 L -47.8139,-394.49 L -48.4369,-394.411 L -49.0451,-394.255 L -49.6289,-394.024 L -50.1791,-393.722
 L -50.6871,-393.353 L -51.1448,-392.923 L -51.5451,-392.439 L -51.8815,-391.909 L -52.1489,-391.341 L -52.3429,-390.743
 L -52.4606,-390.127 L -52.5,-389.5 L -52.5,-294.5 L -52.4606,-293.873 L -52.3429,-293.257 L -52.1489,-292.659
 L -51.8815,-292.091 L -51.5451,-291.561 L -51.1448,-291.077 L -50.6871,-290.647 L -50.1791,-290.278 L -49.6289,-289.976
 L -49.0451,-289.745 L -48.4369,-289.589 L -47.8139,-289.51 L 47.8139,-289.51 z
M -47.3825,-292.645 L -47.6453,-292.678 L -47.9019,-292.744 L -48.1482,-292.841 L -48.3804,-292.969 L -48.5947,-293.125
 L -48.7879,-293.306 L -48.9567,-293.51 L -49.0987,-293.734 L -49.2115,-293.973 L -49.2934,-294.225 L -49.343,-294.486
 L -49.3596,-294.75 L -49.3596,-389.25 L -49.343,-389.514 L -49.2934,-389.775 L -49.2115,-390.027 L -49.0987,-390.266
 L -48.9567,-390.49 L -48.7879,-390.694 L -48.5947,-390.875 L -48.3804,-391.031 L -48.1482,-391.159 L -47.9019,-391.256
 L -47.6453,-391.322 L -47.3825,-391.355 L 47.3825,-391.355 L 47.6453,-391.322 L 47.9019,-391.256 L 48.1482,-391.159
 L 48.3804,-391.031 L 48.5947,-390.875 L 48.7879,-390.694 L 48.9567,-390.49 L 49.0987,-390.266 L 49.2115,-390.027
 L 49.2934,-389.775 L 49.343,-389.514 L 49.3596,-389.25 L 49.3596,-294.75 L 49.343,-294.486 L 49.2934,-294.225
 L 49.2115,-293.973 L 49.0987,-293.734 L 48.9567,-293.51 L 48.7879,-293.306 L 48.5947,-293.125 L 48.3804,-292.969
 L 48.1482,-292.841 L 47.9019,-292.744 L 47.6453,-292.678 L 47.3825,-292.645 z
" stroke="black" fill="lightgray" stroke-width="0.5"/>
</svg>
