<?xml version="1.0" standalone="no"?>
<!DOCTYPE svg PUBLIC "-//W3C//DTD SVG 1.1//EN" "http://www.w3.org/Graphics/SVG/1.1/DTD/svg11.dtd">
<svg width="38mm" height="244mm" viewBox="-19 -374 38 244" xmlns="http://www.w3.org/2000/svg" version="1.1">
<title>OpenSCAD Model</title>
<path d="
M 14.6869,-298.589 L 15.2951,-298.745 L 15.8789,-298.976 L 16.4291,-299.278 L 16.9371,-299.647 L 17.3948,-300.077
 L 17.7951,-300.561 L 18.1315,-301.091 L 18.3989,-301.659 L 18.5929,-302.257 L 18.7106,-302.873 L 18.75,-303.5
 L 18.75,-368.5 L 18.7106,-369.127 L 18.5929,-369.743 L 18.3989,-370.341 L 18.1315,-370.909 L 17.7951,-371.439
 L 17.3948,-371.923 L 16.9371,-372.353 L 16.4291,-372.722 L 15.8789,-373.024 L 15.2951,-373.255 L 14.6869,-373.411
 L 14.0639,-373.49 L -14.0639,-373.49 L -14.6869,-373.411 L -15.2951,-373.255 L -15.8789,-373.024 L -16.4291,-372.722
 L -16.9371,-372.353 L -17.3948,-371.923 L -17.7951,-371.439 L -18.1315,-370.909 L -18.3989,-370.341 L -18.5929,-369.743
 L -18.7106,-369.127 L -18.75,-368.5 L -18.75,-303.5 L -18.7106,-302.873 L -18.5929,-302.257 L -18.3989,-301.659
 L -18.1315,-301.091 L -17.7951,-300.561 L -17.3948,-300.077 L -16.9371,-299.647 L -16.4291,-299.278 L -15.8789,-298.976
 L -15.2951,-298.745 L -14.6869,-298.589 L -14.0639,-298.51 L 14.0639,-298.51 z
M -13.7982,-299.009 L -14.3901,-299.084 L -14.9678,-299.232 L -15.5224,-299.452 L -16.0452,-299.739 L -16.5278,-300.09
 L -16.9626,-300.498 L -17.3428,-300.958 L -17.6624,-301.462 L -17.9164,-302.001 L -18.1008,-302.569 L -18.2125,-303.155
 L -18.25,-303.75 L -18.25,-368.25 L -18.2125,-368.845 L -18.1008,-369.431 L -17.9164,-369.999 L -17.6624,-370.538
 L -17.3428,-371.042 L -16.9626,-371.502 L -16.5278,-371.91 L -16.0452,-372.261 L -15.5224,-372.548 L -14.9678,-372.768
 L -14.3901,-372.916 L -13.7982,-372.991 L 13.7982,-372.991 L 14.3901,-372.916 L 14.9678,-372.768 L 15.5224,-372.548
 L 16.0452,-372.261 L 16.5278,-371.91 L 16.9626,-371.502 L 17.3428,-371.042 L 17.6624,-370.538 L 17.9164,-369.999
 L 18.1008,-369.431 L 18.2125,-368.845 L 18.25,-368.25 L 18.25,-303.75 L 18.2125,-303.155 L 18.1008,-302.569
 L 17.9164,-302.001 L 17.6624,-301.462 L 17.3428,-300.958 L 16.9626,-300.498 L 16.5278,-300.09 L 16.0452,-299.739
 L 15.5224,-299.452 L 14.9678,-299.232 L 14.3901,-299.084 L 13.7982,-299.009 z
M 14.6869,-214.589 L 15.2951,-214.745 L 15.8789,-214.976 L 16.4291,-215.278 L 16.9371,-215.647 L 17.3948,-216.077
 L 17.7951,-216.561 L 18.1315,-217.091 L 18.3989,-217.659 L 18.5929,-218.257 L 18.7106,-218.873 L 18.75,-219.5
 L 18.75,-284.5 L 18.7106,-285.127 L 18.5929,-285.743 L 18.3989,-286.341 L 18.1315,-286.909 L 17.7951,-287.439
 L 17.3948,-287.923 L 16.9371,-288.353 L 16.4291,-288.722 L 15.8789,-289.024 L 15.2951,-289.255 L 14.6869,-289.411
 L 14.0639,-289.49 L -14.0639,-289.49 L -14.6869,-289.411 L -15.2951,-289.255 L -15.8789,-289.024 L -16.4291,-288.722
 L -16.9371,-288.353 L -17.3948,-287.923 L -17.7951,-287.439 L -18.1315,-286.909 L -18.3989,-286.341 L -18.5929,-285.743
 L -18.7106,-285.127 L -18.75,-284.5 L -18.75,-219.5 L -18.7106,-218.873 L -18.5929,-218.257 L -18.3989,-217.659
 L -18.1315,-217.091 L -17.7951,-216.561 L -17.3948,-216.077 L -16.9371,-215.647 L -16.4291,-215.278 L -15.8789,-214.976
 L -15.2951,-214.745 L -14.6869,-214.589 L -14.0639,-214.51 L 14.0639,-214.51 z
M -13.743,-215.888 L -14.2251,-215.949 L -14.6957,-216.07 L -15.1475,-216.249 L -15.5734,-216.483 L -15.9665,-216.769
 L -16.3207,-217.101 L -16.6305,-217.476 L -16.8908,-217.886 L -17.0977,-218.326 L -17.2479,-218.788 L -17.339,-219.265
 L -17.3695,-219.75 L -17.3695,-284.25 L -17.339,-284.735 L -17.2479,-285.212 L -17.0977,-285.674 L -16.8908,-286.114
 L -16.6305,-286.524 L -16.3207,-286.899 L -15.9665,-287.231 L -15.5734,-287.517 L -15.1475,-287.751 L -14.6957,-287.93
 L -14.2251,-288.051 L -13.743,-288.112 L 13.743,-288.112 L 14.2251,-288.051 L 14.6957,-287.93 L 15.1475,-287.751
 L 15.5734,-287.517 L 15.9665,-287.231 L 16.3207,-286.899 L 16.6305,-286.524 L 16.8908,-286.114 L 17.0977,-285.674
 L 17.2479,-285.212 L 17.339,-284.735 L 17.3695,-284.25 L 17.3695,-219.75 L 17.339,-219.265 L 17.2479,-218.788
 L 17.0977,-218.326 L 16.8908,-217.886 L 16.6305,-217.476 L 16.3207,-217.101 L 15.9665,-216.769 L 15.5734,-216.483
 L 15.1475,-216.249 L 14.6957,-216.07 L 14.2251,-215.949 L 13.743,-215.888 z
M 14.6869,-130.589 L 15.2951,-130.745 L 15.8789,-130.976 L 16.4291,-131.278 L 16.9371,-131.647 L 17.3948,-132.077
 L 17.7951,-132.561 L 18.1315,-133.091 L 18.3989,-133.659 L 18.5929,-134.257 L 18.7106,-134.873 L 18.75,-135.5
 L 18.75,-200.5 L 18.7106,-201.127 L 18.5929,-201.743 L 18.3989,-202.341 L 18.1315,-202.909 L 17.7951,-203.439
 L 17.3948,-203.923 L 16.9371,-204.353 L 16.4291,-204.722 L 15.8789,-205.024 L 15.2951,-205.255 L 14.6869,-205.411
 L 14.0639,-205.49 L -14.0639,-205.49 L -14.6869,-205.411 L -15.2951,-205.255 L -15.8789,-205.024 L -16.4291,-204.722
 L -16.9371,-204.353 L -17.3948,-203.923 L -17.7951,-203.439 L -18.1315,-202.909 L -18.3989,-202.341 L -18.5929,-201.743
 L -18.7106,-201.127 L -18.75,-200.5 L -18.75,-135.5 L -18.7106,-134.873 L -18.5929,-134.257 L -18.3989,-133.659
 L -18.1315,-133.091 L -17.7951,-132.561 L -17.3948,-132.077 L -16.9371,-131.647 L -16.4291,-131.278 L -15.8789,-130.976
 L -15.2951,-130.745 L -14.6869,-130.589 L -14.0639,-130.51 L 14.0639,-130.51 z
M -11.363,-196.204 L -11.5873,-196.232 L -11.8062,-196.288 L -12.0164,-196.371 L -12.2145,-196.48 L -12.3974,-196.613
 L -12.5621,-196.768 L -12.7062,-196.942 L -12.8273,-197.133 L -12.9236,-197.337 L -12.9934,-197.552 L -13.0358,-197.774
 L -13.05,-198 L -13.0358,-198.226 L -12.9934,-198.448 L -12.9236,-198.663 L -12.8273,-198.867 L -12.7062,-199.058
 L -12.5621,-199.232 L -12.3974,-199.387 L -12.2145,-199.52 L -12.0164,-199.629 L -11.8062,-199.712 L -11.5873,-199.768
 L -11.363,-199.796 L -11.137,-199.796 L -10.9127,-199.768 L -10.6938,-199.712 L -10.4836,-199.629 L -10.2855,-199.52
 L -10.1026,-199.387 L -9.93785,-199.232 L -9.79376,-199.058 L -9.67264,-198.867 L -9.5764,-198.663 L -9.50655,-198.448
 L -9.46419,-198.226 L -9.45,-198 L -9.46419,-197.774 L -9.50655,-197.552 L -9.5764,-197.337 L -9.67264,-197.133
 L -9.79376,-196.942 L -9.93785,-196.768 L -10.1026,-196.613 L -10.2855,-196.48 L -10.4836,-196.371 L -10.6938,-196.288
 L -10.9127,-196.232 L -11.137,-196.204 z
M 11.137,-196.204 L 10.9127,-196.232 L 10.6938,-196.288 L 10.4836,-196.371 L 10.2855,-196.48 L 10.1026,-196.613
 L 9.93785,-196.768 L 9.79376,-196.942 L 9.67264,-197.133 L 9.5764,-197.337 L 9.50655,-197.552 L 9.46419,-197.774
 L 9.45,-198 L 9.46419,-198.226 L 9.50655,-198.448 L 9.5764,-198.663 L 9.67264,-198.867 L 9.79376,-199.058
 L 9.93785,-199.232 L 10.1026,-199.387 L 10.2855,-199.52 L 10.4836,-199.629 L 10.6938,-199.712 L 10.9127,-199.768
 L 11.137,-199.796 L 11.363,-199.796 L 11.5873,-199.768 L 11.8062,-199.712 L 12.0164,-199.629 L 12.2145,-199.52
 L 12.3974,-199.387 L 12.5621,-199.232 L 12.7062,-199.058 L 12.8273,-198.867 L 12.9236,-198.663 L 12.9934,-198.448
 L 13.0358,-198.226 L 13.05,-198 L 13.0358,-197.774 L 12.9934,-197.552 L 12.9236,-197.337 L 12.8273,-197.133
 L 12.7062,-196.942 L 12.5621,-196.768 L 12.3974,-196.613 L 12.2145,-196.48 L 12.0164,-196.371 L 11.8062,-196.288
 L 11.5873,-196.232 L 11.363,-196.204 z
M -11.363,-136.204 L -11.5873,-136.232 L -11.8062,-136.288 L -12.0164,-136.371 L -12.2145,-136.48 L -12.3974,-136.613
 L -12.5621,-136.768 L -12.7062,-136.942 L -12.8273,-137.133 L -12.9236,-137.337 L -12.9934,-137.552 L -13.0358,-137.774
 L -13.05,-138 L -13.0358,-138.226 L -12.9934,-138.448 L -12.9236,-138.663 L -12.8273,-138.867 L -12.7062,-139.058
 L -12.5621,-139.232 L -12.3974,-139.387 L -12.2145,-139.52 L -12.0164,-139.629 L -11.8062,-139.712 L -11.5873,-139.768
 L -11.363,-139.796 L -11.137,-139.796 L -10.9127,-139.768 L -10.6938,-139.712 L -10.4836,-139.629 L -10.2855,-139.52
 L -10.1026,-139.387 L -9.93785,-139.232 L -9.79376,-139.058 L -9.67264,-138.867 L -9.5764,-138.663 L -9.50655,-138.448
 L -9.46419,-138.226 L -9.45,-138 L -9.46419,-137.774 L -9.50655,-137.552 L -9.5764,-137.337 L -9.67264,-137.133
 L -9.79376,-136.942 L -9.93785,-136.768 L -10.1026,-136.613 L -10.2855,-136.48 L -10.4836,-136.371 L -10.6938,-136.288
 L -10.9127,-136.232 L -11.137,-136.204 z
M 11.137,-136.204 L 10.9127,-136.232 L 10.6938,-136.288 L 10.4836,-136.371 L 10.2855,-136.48 L 10.1026,-136.613
 L 9.93785,-136.768 L 9.79376,-136.942 L 9.67264,-137.133 L 9.5764,-137.337 L 9.50655,-137.552 L 9.46419,-137.774
 L 9.45,-138 L 9.46419,-138.226 L 9.50655,-138.448 L 9.5764,-138.663 L 9.67264,-138.867 L 9.79376,-139.058
 L 9.93785,-139.232 L 10.1026,-139.387 L 10.2855,-139.52 L 10.4836,-139.629 L 10.6938,-139.712 L 10.9127,-139.768
 L 11.137,-139.796 L 11.363,-139.796 L 11.5873,-139.768 L 11.8062,-139.712 L 12.0164,-139.629 L 12.2145,-139.52
 L 12.3974,-139.387 L 12.5621,-139.232 L 12.7062,-139.058 L 12.8273,-138.867 L 12.9236,-138.663 L 12.9934,-138.448
 L 13.0358,-138.226 L 13.05,-138 L 13.0358,-137.774 L 12.9934,-137.552 L 12.9236,-137.337 L 12.8273,-137.133
 L 12.7062,-136.942 L 12.5621,-136.768 L 12.3974,-136.613 L 12.2145,-136.48 L 12.0164,-136.371 L 11.8062,-136.288
 L 11.5873,-136.232 L 11.363,-136.204 z
" stroke="black" fill="lightgray" stroke-width="0.5"/>
</svg>
