<?xml version="1.0" standalone="no"?>
<!DOCTYPE svg PUBLIC "-//W3C//DTD SVG 1.1//EN" "http://www.w3.org/Graphics/SVG/1.1/DTD/svg11.dtd">
<svg width="24mm" height="562mm" viewBox="-12 -965 24 562" xmlns="http://www.w3.org/2000/svg" version="1.1">
<title>OpenSCAD Model</title>
<path d="
M 7.1869,-859.589 L 7.79507,-859.745 L 8.37889,-859.976 L 8.92912,-860.278 L 9.43712,-860.647 L 9.89484,-861.077
 L 10.2951,-861.561 L 10.6315,-862.091 L 10.8989,-862.659 L 11.0929,-863.257 L 11.2106,-863.873 L 11.25,-864.5
 L 11.25,-959.5 L 11.2106,-960.127 L 11.0929,-960.743 L 10.8989,-961.341 L 10.6315,-961.909 L 10.2951,-962.439
 L 9.89484,-962.923 L 9.43712,-963.353 L 8.92912,-963.722 L 8.37889,-964.024 L 7.79507,-964.255 L 7.1869,-964.411
 L 6.56395,-964.49 L -6.56395,-964.49 L -7.1869,-964.411 L -7.79507,-964.255 L -8.37889,-964.024 L -8.92912,-963.722
 L -9.43712,-963.353 L -9.89484,-962.923 L -10.2951,-962.439 L -10.6315,-961.909 L -10.8989,-961.341 L -11.0929,-960.743
 L -11.2106,-960.127 L -11.25,-959.5 L -11.25,-864.5 L -11.2106,-863.873 L -11.0929,-863.257 L -10.8989,-862.659
 L -10.6315,-862.091 L -10.2951,-861.561 L -9.89484,-861.077 L -9.43712,-860.647 L -8.92912,-860.278 L -8.37889,-859.976
 L -7.79507,-859.745 L -7.1869,-859.589 L -6.56395,-859.51 L 6.56395,-859.51 z
M -6.00116,-861.008 L -6.49951,-861.071 L -6.98605,-861.196 L -7.45311,-861.381 L -7.8933,-861.623 L -8.29968,-861.918
 L -8.66586,-862.262 L -8.98605,-862.649 L -9.25522,-863.073 L -9.4691,-863.528 L -9.62433,-864.005 L -9.71844,-864.499
 L -9.75,-865 L -9.75,-959 L -9.71844,-959.501 L -9.62433,-959.995 L -9.4691,-960.472 L -9.25522,-960.927
 L -8.98605,-961.351 L -8.66586,-961.738 L -8.29968,-962.082 L -7.8933,-962.377 L -7.45311,-962.619 L -6.98605,-962.804
 L -6.49951,-962.929 L -6.00116,-962.992 L 6.00116,-962.992 L 6.49951,-962.929 L 6.98605,-962.804 L 7.45311,-962.619
 L 7.8933,-962.377 L 8.29968,-962.082 L 8.66586,-961.738 L 8.98605,-961.351 L 9.25522,-960.927 L 9.4691,-960.472
 L 9.62433,-959.995 L 9.71844,-959.501 L 9.75,-959 L 9.75,-865 L 9.71844,-864.499 L 9.62433,-864.005
 L 9.4691,-863.528 L 9.25522,-863.073 L 8.98605,-862.649 L 8.66586,-862.262 L 8.29968,-861.918 L 7.8933,-861.623
 L 7.45311,-861.381 L 6.98605,-861.196 L 6.49951,-861.071 L 6.00116,-861.008 z
M 7.1869,-745.589 L 7.79507,-745.745 L 8.37889,-745.976 L 8.92912,-746.278 L 9.43712,-746.647 L 9.89484,-747.077
 L 10.2951,-747.561 L 10.6315,-748.091 L 10.8989,-748.659 L 11.0929,-749.257 L 11.2106,-749.873 L 11.25,-750.5
 L 11.25,-845.5 L 11.2106,-846.127 L 11.0929,-846.743 L 10.8989,-847.341 L 10.6315,-847.909 L 10.2951,-848.439
 L 9.89484,-848.923 L 9.43712,-849.353 L 8.92912,-849.722 L 8.37889,-850.024 L 7.79507,-850.255 L 7.1869,-850.411
 L 6.56395,-850.49 L -6.56395,-850.49 L -7.1869,-850.411 L -7.79507,-850.255 L -8.37889,-850.024 L -8.92912,-849.722
 L -9.43712,-849.353 L -9.89484,-848.923 L -10.2951,-848.439 L -10.6315,-847.909 L -10.8989,-847.341 L -11.0929,-846.743
 L -11.2106,-846.127 L -11.25,-845.5 L -11.25,-750.5 L -11.2106,-749.873 L -11.0929,-749.257 L -10.8989,-748.659
 L -10.6315,-748.091 L -10.2951,-747.561 L -9.89484,-747.077 L -9.43712,-746.647 L -8.92912,-746.278 L -8.37889,-745.976
 L -7.79507,-745.745 L -7.1869,-745.589 L -6.56395,-745.51 L 6.56395,-745.51 z
M -6.00116,-747.008 L -6.49951,-747.071 L -6.98605,-747.196 L -7.45311,-747.381 L -7.8933,-747.623 L -8.29968,-747.918
 L -8.66586,-748.262 L -8.98605,-748.649 L -9.25522,-749.073 L -9.4691,-749.528 L -9.62433,-750.005 L -9.71844,-750.499
 L -9.75,-751 L -9.75,-845 L -9.71844,-845.501 L -9.62433,-845.995 L -9.4691,-846.472 L -9.25522,-846.927
 L -8.98605,-847.351 L -8.66586,-847.738 L -8.29968,-848.082 L -7.8933,-848.377 L -7.45311,-848.619 L -6.98605,-848.804
 L -6.49951,-848.929 L -6.00116,-848.992 L 6.00116,-848.992 L 6.49951,-848.929 L 6.98605,-848.804 L 7.45311,-848.619
 L 7.8933,-848.377 L 8.29968,-848.082 L 8.66586,-847.738 L 8.98605,-847.351 L 9.25522,-846.927 L 9.4691,-846.472
 L 9.62433,-845.995 L 9.71844,-845.501 L 9.75,-845 L 9.75,-751 L 9.71844,-750.499 L 9.62433,-750.005
 L 9.4691,-749.528 L 9.25522,-749.073 L 8.98605,-748.649 L 8.66586,-748.262 L 8.29968,-747.918 L 7.8933,-747.623
 L 7.45311,-747.381 L 6.98605,-747.196 L 6.49951,-747.071 L 6.00116,-747.008 z
M 7.1869,-631.589 L 7.79507,-631.745 L 8.37889,-631.976 L 8.92912,-632.278 L 9.43712,-632.647 L 9.89484,-633.077
 L 10.2951,-633.561 L 10.6315,-634.091 L 10.8989,-634.659 L 11.0929,-635.257 L 11.2106,-635.873 L 11.25,-636.5
 L 11.25,-731.5 L 11.2106,-732.127 L 11.0929,-732.743 L 10.8989,-733.341 L 10.6315,-733.909 L 10.2951,-734.439
 L 9.89484,-734.923 L 9.43712,-735.353 L 8.92912,-735.722 L 8.37889,-736.024 L 7.79507,-736.255 L 7.1869,-736.411
 L 6.56395,-736.49 L -6.56395,-736.49 L -7.1869,-736.411 L -7.79507,-736.255 L -8.37889,-736.024 L -8.92912,-735.722
 L -9.43712,-735.353 L -9.89484,-734.923 L -10.2951,-734.439 L -10.6315,-733.909 L -10.8989,-733.341 L -11.0929,-732.743
 L -11.2106,-732.127 L -11.25,-731.5 L -11.25,-636.5 L -11.2106,-635.873 L -11.0929,-635.257 L -10.8989,-634.659
 L -10.6315,-634.091 L -10.2951,-633.561 L -9.89484,-633.077 L -9.43712,-632.647 L -8.92912,-632.278 L -8.37889,-631.976
 L -7.79507,-631.745 L -7.1869,-631.589 L -6.56395,-631.51 L 6.56395,-631.51 z
M -5.99316,-633.135 L -6.47565,-633.196 L -6.9467,-633.317 L -7.39888,-633.496 L -7.82506,-633.73 L -8.21851,-634.016
 L -8.57301,-634.349 L -8.88301,-634.724 L -9.1436,-635.134 L -9.35068,-635.574 L -9.50096,-636.037 L -9.59209,-636.515
 L -9.62262,-637 L -9.62262,-731 L -9.59209,-731.485 L -9.50096,-731.963 L -9.35068,-732.426 L -9.1436,-732.866
 L -8.88301,-733.276 L -8.57301,-733.651 L -8.21851,-733.984 L -7.82506,-734.27 L -7.39888,-734.504 L -6.9467,-734.683
 L -6.47565,-734.804 L -5.99316,-734.865 L 5.99316,-734.865 L 6.47565,-734.804 L 6.9467,-734.683 L 7.39888,-734.504
 L 7.82506,-734.27 L 8.21851,-733.984 L 8.57301,-733.651 L 8.88301,-733.276 L 9.1436,-732.866 L 9.35068,-732.426
 L 9.50096,-731.963 L 9.59209,-731.485 L 9.62262,-731 L 9.62262,-637 L 9.59209,-636.515 L 9.50096,-636.037
 L 9.35068,-635.574 L 9.1436,-635.134 L 8.88301,-634.724 L 8.57301,-634.349 L 8.21851,-634.016 L 7.82506,-633.73
 L 7.39888,-633.496 L 6.9467,-633.317 L 6.47565,-633.196 L 5.99316,-633.135 z
M 7.1869,-517.589 L 7.79507,-517.745 L 8.37889,-517.976 L 8.92912,-518.278 L 9.43712,-518.647 L 9.89484,-519.077
 L 10.2951,-519.561 L 10.6315,-520.091 L 10.8989,-520.659 L 11.0929,-521.257 L 11.2106,-521.873 L 11.25,-522.5
 L 11.25,-617.5 L 11.2106,-618.127 L 11.0929,-618.743 L 10.8989,-619.341 L 10.6315,-619.909 L 10.2951,-620.439
 L 9.89484,-620.923 L 9.43712,-621.353 L 8.92912,-621.722 L 8.37889,-622.024 L 7.79507,-622.255 L 7.1869,-622.411
 L 6.56395,-622.49 L -6.56395,-622.49 L -7.1869,-622.411 L -7.79507,-622.255 L -8.37889,-622.024 L -8.92912,-621.722
 L -9.43712,-621.353 L -9.89484,-620.923 L -10.2951,-620.439 L -10.6315,-619.909 L -10.8989,-619.341 L -11.0929,-618.743
 L -11.2106,-618.127 L -11.25,-617.5 L -11.25,-522.5 L -11.2106,-521.873 L -11.0929,-521.257 L -10.8989,-520.659
 L -10.6315,-520.091 L -10.2951,-519.561 L -9.89484,-519.077 L -9.43712,-518.647 L -8.92912,-518.278 L -8.37889,-517.976
 L -7.79507,-517.745 L -7.1869,-517.589 L -6.56395,-517.51 L 6.56395,-517.51 z
M 3.59929,-612.605 L 3.30028,-612.643 L 3.00835,-612.717 L 2.72812,-612.828 L 2.464,-612.974 L 2.22017,-613.151
 L 2.00047,-613.357 L 1.80835,-613.589 L 1.64685,-613.844 L 1.51852,-614.117 L 1.4254,-614.403 L 1.36891,-614.699
 L 1.34999,-615 L 1.36891,-615.301 L 1.4254,-615.597 L 1.51852,-615.883 L 1.64685,-616.156 L 1.80835,-616.411
 L 2.00047,-616.643 L 2.22017,-616.849 L 2.464,-617.026 L 2.72812,-617.172 L 3.00835,-617.283 L 3.30028,-617.357
 L 3.59929,-617.395 L 3.9007,-617.395 L 4.19971,-617.357 L 4.49164,-617.283 L 4.77187,-617.172 L 5.03598,-617.026
 L 5.27982,-616.849 L 5.49951,-616.643 L 5.69164,-616.411 L 5.85313,-616.156 L 5.98146,-615.883 L 6.07458,-615.597
 L 6.13107,-615.301 L 6.14999,-615 L 6.13107,-614.699 L 6.07458,-614.403 L 5.98146,-614.117 L 5.85313,-613.844
 L 5.69164,-613.589 L 5.49951,-613.357 L 5.27982,-613.151 L 5.03598,-612.974 L 4.77187,-612.828 L 4.49164,-612.717
 L 4.19971,-612.643 L 3.9007,-612.605 z
M -3.9007,-612.605 L -4.19971,-612.643 L -4.49164,-612.717 L -4.77187,-612.828 L -5.03598,-612.974 L -5.27982,-613.151
 L -5.49951,-613.357 L -5.69164,-613.589 L -5.85313,-613.844 L -5.98146,-614.117 L -6.07458,-614.403 L -6.13107,-614.699
 L -6.14999,-615 L -6.13107,-615.301 L -6.07458,-615.597 L -5.98146,-615.883 L -5.85313,-616.156 L -5.69164,-616.411
 L -5.49951,-616.643 L -5.27982,-616.849 L -5.03598,-617.026 L -4.77187,-617.172 L -4.49164,-617.283 L -4.19971,-617.357
 L -3.9007,-617.395 L -3.59929,-617.395 L -3.30028,-617.357 L -3.00835,-617.283 L -2.72812,-617.172 L -2.464,-617.026
 L -2.22017,-616.849 L -2.00047,-616.643 L -1.80835,-616.411 L -1.64685,-616.156 L -1.51852,-615.883 L -1.4254,-615.597
 L -1.36891,-615.301 L -1.34999,-615 L -1.36891,-614.699 L -1.4254,-614.403 L -1.51852,-614.117 L -1.64685,-613.844
 L -1.80835,-613.589 L -2.00047,-613.357 L -2.22017,-613.151 L -2.464,-612.974 L -2.72812,-612.828 L -3.00835,-612.717
 L -3.30028,-612.643 L -3.59929,-612.605 z
M 3.59929,-522.605 L 3.30028,-522.643 L 3.00835,-522.717 L 2.72812,-522.828 L 2.464,-522.974 L 2.22017,-523.151
 L 2.00047,-523.357 L 1.80835,-523.589 L 1.64685,-523.844 L 1.51852,-524.117 L 1.4254,-524.403 L 1.36891,-524.699
 L 1.34999,-525 L 1.36891,-525.301 L 1.4254,-525.597 L 1.51852,-525.883 L 1.64685,-526.156 L 1.80835,-526.411
 L 2.00047,-526.643 L 2.22017,-526.849 L 2.464,-527.026 L 2.72812,-527.172 L 3.00835,-527.283 L 3.30028,-527.357
 L 3.59929,-527.395 L 3.9007,-527.395 L 4.19971,-527.357 L 4.49164,-527.283 L 4.77187,-527.172 L 5.03598,-527.026
 L 5.27982,-526.849 L 5.49951,-526.643 L 5.69164,-526.411 L 5.85313,-526.156 L 5.98146,-525.883 L 6.07458,-525.597
 L 6.13107,-525.301 L 6.14999,-525 L 6.13107,-524.699 L 6.07458,-524.403 L 5.98146,-524.117 L 5.85313,-523.844
 L 5.69164,-523.589 L 5.49951,-523.357 L 5.27982,-523.151 L 5.03598,-522.974 L 4.77187,-522.828 L 4.49164,-522.717
 L 4.19971,-522.643 L 3.9007,-522.605 z
M -3.9007,-522.605 L -4.19971,-522.643 L -4.49164,-522.717 L -4.77187,-522.828 L -5.03598,-522.974 L -5.27982,-523.151
 L -5.49951,-523.357 L -5.69164,-523.589 L -5.85313,-523.844 L -5.98146,-524.117 L -6.07458,-524.403 L -6.13107,-524.699
 L -6.14999,-525 L -6.13107,-525.301 L -6.07458,-525.597 L -5.98146,-525.883 L -5.85313,-526.156 L -5.69164,-526.411
 L -5.49951,-526.643 L -5.27982,-526.849 L -5.03598,-527.026 L -4.77187,-527.172 L -4.49164,-527.283 L -4.19971,-527.357
 L -3.9007,-527.395 L -3.59929,-527.395 L -3.30028,-527.357 L -3.00835,-527.283 L -2.72812,-527.172 L -2.464,-527.026
 L -2.22017,-526.849 L -2.00047,-526.643 L -1.80835,-526.411 L -1.64685,-526.156 L -1.51852,-525.883 L -1.4254,-525.597
 L -1.36891,-525.301 L -1.34999,-525 L -1.36891,-524.699 L -1.4254,-524.403 L -1.51852,-524.117 L -1.64685,-523.844
 L -1.80835,-523.589 L -2.00047,-523.357 L -2.22017,-523.151 L -2.464,-522.974 L -2.72812,-522.828 L -3.00835,-522.717
 L -3.30028,-522.643 L -3.59929,-522.605 z
M 7.1869,-403.589 L 7.79507,-403.745 L 8.37889,-403.976 L 8.92912,-404.278 L 9.43712,-404.647 L 9.89484,-405.077
 L 10.2951,-405.561 L 10.6315,-406.091 L 10.8989,-406.659 L 11.0929,-407.257 L 11.2106,-407.873 L 11.25,-408.5
 L 11.25,-503.5 L 11.2106,-504.127 L 11.0929,-504.743 L 10.8989,-505.341 L 10.6315,-505.909 L 10.2951,-506.439
 L 9.89484,-506.923 L 9.43712,-507.353 L 8.92912,-507.722 L 8.37889,-508.024 L 7.79507,-508.255 L 7.1869,-508.411
 L 6.56395,-508.49 L -6.56395,-508.49 L -7.1869,-508.411 L -7.79507,-508.255 L -8.37889,-508.024 L -8.92912,-507.722
 L -9.43712,-507.353 L -9.89484,-506.923 L -10.2951,-506.439 L -10.6315,-505.909 L -10.8989,-505.341 L -11.0929,-504.743
 L -11.2106,-504.127 L -11.25,-503.5 L -11.25,-408.5 L -11.2106,-407.873 L -11.0929,-407.257 L -10.8989,-406.659
 L -10.6315,-406.091 L -10.2951,-405.561 L -9.89484,-405.077 L -9.43712,-404.647 L -8.92912,-404.278 L -8.37889,-403.976
 L -7.79507,-403.745 L -7.1869,-403.589 L -6.56395,-403.51 L 6.56395,-403.51 z
M 3.63696,-499.204 L 3.4127,-499.232 L 3.19376,-499.288 L 2.9836,-499.371 L 2.78551,-499.48 L 2.60263,-499.613
 L 2.43785,-499.768 L 2.29376,-499.942 L 2.17264,-500.133 L 2.0764,-500.337 L 2.00655,-500.552 L 1.96419,-500.774
 L 1.95,-501 L 1.96419,-501.226 L 2.00655,-501.448 L 2.0764,-501.663 L 2.17264,-501.867 L 2.29376,-502.058
 L 2.43785,-502.232 L 2.60263,-502.387 L 2.78551,-502.52 L 2.9836,-502.629 L 3.19376,-502.712 L 3.4127,-502.768
 L 3.63696,-502.796 L 3.86302,-502.796 L 4.08728,-502.768 L 4.30623,-502.712 L 4.51639,-502.629 L 4.71448,-502.52
 L 4.89735,-502.387 L 5.06213,-502.232 L 5.20622,-502.058 L 5.32735,-501.867 L 5.42358,-501.663 L 5.49344,-501.448
 L 5.5358,-501.226 L 5.54999,-501 L 5.5358,-500.774 L 5.49344,-500.552 L 5.42358,-500.337 L 5.32735,-500.133
 L 5.20622,-499.942 L 5.06213,-499.768 L 4.89735,-499.613 L 4.71448,-499.48 L 4.51639,-499.371 L 4.30623,-499.288
 L 4.08728,-499.232 L 3.86302,-499.204 z
M -3.86302,-499.204 L -4.08728,-499.232 L -4.30623,-499.288 L -4.51639,-499.371 L -4.71448,-499.48 L -4.89735,-499.613
 L -5.06213,-499.768 L -5.20622,-499.942 L -5.32735,-500.133 L -5.42358,-500.337 L -5.49344,-500.552 L -5.5358,-500.774
 L -5.54999,-501 L -5.5358,-501.226 L -5.49344,-501.448 L -5.42358,-501.663 L -5.32735,-501.867 L -5.20622,-502.058
 L -5.06213,-502.232 L -4.89735,-502.387 L -4.71448,-502.52 L -4.51639,-502.629 L -4.30623,-502.712 L -4.08728,-502.768
 L -3.86302,-502.796 L -3.63696,-502.796 L -3.4127,-502.768 L -3.19376,-502.712 L -2.9836,-502.629 L -2.78551,-502.52
 L -2.60263,-502.387 L -2.43785,-502.232 L -2.29376,-502.058 L -2.17264,-501.867 L -2.0764,-501.663 L -2.00655,-501.448
 L -1.96419,-501.226 L -1.95,-501 L -1.96419,-500.774 L -2.00655,-500.552 L -2.0764,-500.337 L -2.17264,-500.133
 L -2.29376,-499.942 L -2.43785,-499.768 L -2.60263,-499.613 L -2.78551,-499.48 L -2.9836,-499.371 L -3.19376,-499.288
 L -3.4127,-499.232 L -3.63696,-499.204 z
M -3.86302,-409.204 L -4.08728,-409.232 L -4.30623,-409.288 L -4.51639,-409.371 L -4.71448,-409.48 L -4.89735,-409.613
 L -5.06213,-409.768 L -5.20622,-409.942 L -5.32735,-410.133 L -5.42358,-410.337 L -5.49344,-410.552 L -5.5358,-410.774
 L -5.54999,-411 L -5.5358,-411.226 L -5.49344,-411.448 L -5.42358,-411.663 L -5.32735,-411.867 L -5.20622,-412.058
 L -5.06213,-412.232 L -4.89735,-412.387 L -4.71448,-412.52 L -4.51639,-412.629 L -4.30623,-412.712 L -4.08728,-412.768
 L -3.86302,-412.796 L -3.63696,-412.796 L -3.4127,-412.768 L -3.19376,-412.712 L -2.9836,-412.629 L -2.78551,-412.52
 L -2.60263,-412.387 L -2.43785,-412.232 L -2.29376,-412.058 L -2.17264,-411.867 L -2.0764,-411.663 L -2.00655,-411.448
 L -1.96419,-411.226 L -1.95,-411 L -1.96419,-410.774 L -2.00655,-410.552 L -2.0764,-410.337 L -2.17264,-410.133
 L -2.29376,-409.942 L -2.43785,-409.768 L -2.60263,-409.613 L -2.78551,-409.48 L -2.9836,-409.371 L -3.19376,-409.288
 L -3.4127,-409.232 L -3.63696,-409.204 z
M 3.63696,-409.204 L 3.4127,-409.232 L 3.19376,-409.288 L 2.9836,-409.371 L 2.78551,-409.48 L 2.60263,-409.613
 L 2.43785,-409.768 L 2.29376,-409.942 L 2.17264,-410.133 L 2.0764,-410.337 L 2.00655,-410.552 L 1.96419,-410.774
 L 1.95,-411 L 1.96419,-411.226 L 2.00655,-411.448 L 2.0764,-411.663 L 2.17264,-411.867 L 2.29376,-412.058
 L 2.43785,-412.232 L 2.60263,-412.387 L 2.78551,-412.52 L 2.9836,-412.629 L 3.19376,-412.712 L 3.4127,-412.768
 L 3.63696,-412.796 L 3.86302,-412.796 L 4.08728,-412.768 L 4.30623,-412.712 L 4.51639,-412.629 L 4.71448,-412.52
 L 4.89735,-412.387 L 5.06213,-412.232 L 5.20622,-412.058 L 5.32735,-411.867 L 5.42358,-411.663 L 5.49344,-411.448
 L 5.5358,-411.226 L 5.54999,-411 L 5.5358,-410.774 L 5.49344,-410.552 L 5.42358,-410.337 L 5.32735,-410.133
 L 5.20622,-409.942 L 5.06213,-409.768 L 4.89735,-409.613 L 4.71448,-409.48 L 4.51639,-409.371 L 4.30623,-409.288
 L 4.08728,-409.232 L 3.86302,-409.204 z
" stroke="black" fill="lightgray" stroke-width="0.5"/>
</svg>
