<?xml version="1.0" standalone="no"?>
<!DOCTYPE svg PUBLIC "-//W3C//DTD SVG 1.1//EN" "http://www.w3.org/Graphics/SVG/1.1/DTD/svg11.dtd">
<svg width="180mm" height="86mm" viewBox="-90 -151 180 86" xmlns="http://www.w3.org/2000/svg" version="1.1">
<title>OpenSCAD Model</title>
<path d="
M 85.4369,-137.089 L 86.0451,-137.245 L 86.6289,-137.476 L 87.1791,-137.778 L 87.6871,-138.147 L 88.1448,-138.577
 L 88.5451,-139.061 L 88.8815,-139.591 L 89.1489,-140.159 L 89.3429,-140.757 L 89.4606,-141.373 L 89.5,-142
 L 89.5,-146 L 89.4606,-146.627 L 89.3429,-147.243 L 89.1489,-147.841 L 88.8815,-148.409 L 88.5451,-148.939
 L 88.1448,-149.423 L 87.6871,-149.853 L 87.1791,-150.222 L 86.6289,-150.524 L 86.0451,-150.755 L 85.4369,-150.911
 L 84.8139,-150.99 L -84.8139,-150.99 L -85.4369,-150.911 L -86.0451,-150.755 L -86.6289,-150.524 L -87.1791,-150.222
 L -87.6871,-149.853 L -88.1448,-149.423 L -88.5451,-148.939 L -88.8815,-148.409 L -89.1489,-147.841 L -89.3429,-147.243
 L -89.4606,-146.627 L -89.5,-146 L -89.5,-142 L -89.4606,-141.373 L -89.3429,-140.757 L -89.1489,-140.159
 L -88.8815,-139.591 L -88.5451,-139.061 L -88.1448,-138.577 L -87.6871,-138.147 L -87.1791,-137.778 L -86.6289,-137.476
 L -86.0451,-137.245 L -85.4369,-137.089 L -84.8139,-137.01 L 84.8139,-137.01 z
M 67.3116,-141.006 L 66.9379,-141.053 L 66.573,-141.147 L 66.2227,-141.286 L 65.8925,-141.467 L 65.5877,-141.688
 L 65.3131,-141.946 L 65.073,-142.237 L 64.8711,-142.555 L 64.7107,-142.896 L 64.5943,-143.254 L 64.5237,-143.624
 L 64.5,-144 L 64.5237,-144.376 L 64.5943,-144.746 L 64.7107,-145.104 L 64.8711,-145.445 L 65.073,-145.763
 L 65.3131,-146.054 L 65.5877,-146.312 L 65.8925,-146.533 L 66.2227,-146.714 L 66.573,-146.853 L 66.9379,-146.947
 L 67.3116,-146.994 L 67.6884,-146.994 L 68.0621,-146.947 L 68.427,-146.853 L 68.7773,-146.714 L 69.1075,-146.533
 L 69.4123,-146.312 L 69.6869,-146.054 L 69.927,-145.763 L 70.1289,-145.445 L 70.2893,-145.104 L 70.4057,-144.746
 L 70.4763,-144.376 L 70.5,-144 L 70.4763,-143.624 L 70.4057,-143.254 L 70.2893,-142.896 L 70.1289,-142.555
 L 69.927,-142.237 L 69.6869,-141.946 L 69.4123,-141.688 L 69.1075,-141.467 L 68.7773,-141.286 L 68.427,-141.147
 L 68.0621,-141.053 L 67.6884,-141.006 z
M -52.6884,-141.006 L -53.0621,-141.053 L -53.427,-141.147 L -53.7773,-141.286 L -54.1075,-141.467 L -54.4123,-141.688
 L -54.6869,-141.946 L -54.927,-142.237 L -55.1289,-142.555 L -55.2893,-142.896 L -55.4057,-143.254 L -55.4763,-143.624
 L -55.5,-144 L -55.4763,-144.376 L -55.4057,-144.746 L -55.2893,-145.104 L -55.1289,-145.445 L -54.927,-145.763
 L -54.6869,-146.054 L -54.4123,-146.312 L -54.1075,-146.533 L -53.7773,-146.714 L -53.427,-146.853 L -53.0621,-146.947
 L -52.6884,-146.994 L -52.3116,-146.994 L -51.9379,-146.947 L -51.5729,-146.853 L -51.2227,-146.714 L -50.8925,-146.533
 L -50.5877,-146.312 L -50.3131,-146.054 L -50.0729,-145.763 L -49.8711,-145.445 L -49.7107,-145.104 L -49.5942,-144.746
 L -49.5237,-144.376 L -49.5,-144 L -49.5237,-143.624 L -49.5942,-143.254 L -49.7107,-142.896 L -49.8711,-142.555
 L -50.0729,-142.237 L -50.3131,-141.946 L -50.5877,-141.688 L -50.8925,-141.467 L -51.2227,-141.286 L -51.5729,-141.147
 L -51.9379,-141.053 L -52.3116,-141.006 z
M -22.6884,-141.006 L -23.0621,-141.053 L -23.427,-141.147 L -23.7773,-141.286 L -24.1075,-141.467 L -24.4123,-141.688
 L -24.6869,-141.946 L -24.927,-142.237 L -25.1289,-142.555 L -25.2893,-142.896 L -25.4057,-143.254 L -25.4763,-143.624
 L -25.5,-144 L -25.4763,-144.376 L -25.4057,-144.746 L -25.2893,-145.104 L -25.1289,-145.445 L -24.927,-145.763
 L -24.6869,-146.054 L -24.4123,-146.312 L -24.1075,-146.533 L -23.7773,-146.714 L -23.427,-146.853 L -23.0621,-146.947
 L -22.6884,-146.994 L -22.3116,-146.994 L -21.9379,-146.947 L -21.5729,-146.853 L -21.2227,-146.714 L -20.8925,-146.533
 L -20.5877,-146.312 L -20.3131,-146.054 L -20.0729,-145.763 L -19.8711,-145.445 L -19.7107,-145.104 L -19.5942,-144.746
 L -19.5237,-144.376 L -19.5,-144 L -19.5237,-143.624 L -19.5942,-143.254 L -19.7107,-142.896 L -19.8711,-142.555
 L -20.0729,-142.237 L -20.3131,-141.946 L -20.5877,-141.688 L -20.8925,-141.467 L -21.2227,-141.286 L -21.5729,-141.147
 L -21.9379,-141.053 L -22.3116,-141.006 z
M 22.3116,-141.006 L 21.9379,-141.053 L 21.5729,-141.147 L 21.2227,-141.286 L 20.8925,-141.467 L 20.5877,-141.688
 L 20.3131,-141.946 L 20.0729,-142.237 L 19.8711,-142.555 L 19.7107,-142.896 L 19.5942,-143.254 L 19.5237,-143.624
 L 19.5,-144 L 19.5237,-144.376 L 19.5942,-144.746 L 19.7107,-145.104 L 19.8711,-145.445 L 20.0729,-145.763
 L 20.3131,-146.054 L 20.5877,-146.312 L 20.8925,-146.533 L 21.2227,-146.714 L 21.5729,-146.853 L 21.9379,-146.947
 L 22.3116,-146.994 L 22.6884,-146.994 L 23.0621,-146.947 L 23.427,-146.853 L 23.7773,-146.714 L 24.1075,-146.533
 L 24.4123,-146.312 L 24.6869,-146.054 L 24.927,-145.763 L 25.1289,-145.445 L 25.2893,-145.104 L 25.4057,-144.746
 L 25.4763,-144.376 L 25.5,-144 L 25.4763,-143.624 L 25.4057,-143.254 L 25.2893,-142.896 L 25.1289,-142.555
 L 24.927,-142.237 L 24.6869,-141.946 L 24.4123,-141.688 L 24.1075,-141.467 L 23.7773,-141.286 L 23.427,-141.147
 L 23.0621,-141.053 L 22.6884,-141.006 z
M -37.6884,-141.006 L -38.0621,-141.053 L -38.427,-141.147 L -38.7773,-141.286 L -39.1075,-141.467 L -39.4123,-141.688
 L -39.6869,-141.946 L -39.927,-142.237 L -40.1289,-142.555 L -40.2893,-142.896 L -40.4057,-143.254 L -40.4763,-143.624
 L -40.5,-144 L -40.4763,-144.376 L -40.4057,-144.746 L -40.2893,-145.104 L -40.1289,-145.445 L -39.927,-145.763
 L -39.6869,-146.054 L -39.4123,-146.312 L -39.1075,-146.533 L -38.7773,-146.714 L -38.427,-146.853 L -38.0621,-146.947
 L -37.6884,-146.994 L -37.3116,-146.994 L -36.9379,-146.947 L -36.5729,-146.853 L -36.2227,-146.714 L -35.8925,-146.533
 L -35.5877,-146.312 L -35.3131,-146.054 L -35.0729,-145.763 L -34.8711,-145.445 L -34.7107,-145.104 L -34.5942,-144.746
 L -34.5237,-144.376 L -34.5,-144 L -34.5237,-143.624 L -34.5942,-143.254 L -34.7107,-142.896 L -34.8711,-142.555
 L -35.0729,-142.237 L -35.3131,-141.946 L -35.5877,-141.688 L -35.8925,-141.467 L -36.2227,-141.286 L -36.5729,-141.147
 L -36.9379,-141.053 L -37.3116,-141.006 z
M 52.3116,-141.006 L 51.9379,-141.053 L 51.5729,-141.147 L 51.2227,-141.286 L 50.8925,-141.467 L 50.5877,-141.688
 L 50.3131,-141.946 L 50.0729,-142.237 L 49.8711,-142.555 L 49.7107,-142.896 L 49.5942,-143.254 L 49.5237,-143.624
 L 49.5,-144 L 49.5237,-144.376 L 49.5942,-144.746 L 49.7107,-145.104 L 49.8711,-145.445 L 50.0729,-145.763
 L 50.3131,-146.054 L 50.5877,-146.312 L 50.8925,-146.533 L 51.2227,-146.714 L 51.5729,-146.853 L 51.9379,-146.947
 L 52.3116,-146.994 L 52.6884,-146.994 L 53.0621,-146.947 L 53.427,-146.853 L 53.7773,-146.714 L 54.1075,-146.533
 L 54.4123,-146.312 L 54.6869,-146.054 L 54.927,-145.763 L 55.1289,-145.445 L 55.2893,-145.104 L 55.4057,-144.746
 L 55.4763,-144.376 L 55.5,-144 L 55.4763,-143.624 L 55.4057,-143.254 L 55.2893,-142.896 L 55.1289,-142.555
 L 54.927,-142.237 L 54.6869,-141.946 L 54.4123,-141.688 L 54.1075,-141.467 L 53.7773,-141.286 L 53.427,-141.147
 L 53.0621,-141.053 L 52.6884,-141.006 z
M -82.6884,-141.006 L -83.0621,-141.053 L -83.427,-141.147 L -83.7773,-141.286 L -84.1075,-141.467 L -84.4123,-141.688
 L -84.6869,-141.946 L -84.927,-142.237 L -85.1289,-142.555 L -85.2893,-142.896 L -85.4057,-143.254 L -85.4763,-143.624
 L -85.5,-144 L -85.4763,-144.376 L -85.4057,-144.746 L -85.2893,-145.104 L -85.1289,-145.445 L -84.927,-145.763
 L -84.6869,-146.054 L -84.4123,-146.312 L -84.1075,-146.533 L -83.7773,-146.714 L -83.427,-146.853 L -83.0621,-146.947
 L -82.6884,-146.994 L -82.3116,-146.994 L -81.9379,-146.947 L -81.573,-146.853 L -81.2227,-146.714 L -80.8925,-146.533
 L -80.5877,-146.312 L -80.3131,-146.054 L -80.073,-145.763 L -79.8711,-145.445 L -79.7107,-145.104 L -79.5943,-144.746
 L -79.5237,-144.376 L -79.5,-144 L -79.5237,-143.624 L -79.5943,-143.254 L -79.7107,-142.896 L -79.8711,-142.555
 L -80.073,-142.237 L -80.3131,-141.946 L -80.5877,-141.688 L -80.8925,-141.467 L -81.2227,-141.286 L -81.573,-141.147
 L -81.9379,-141.053 L -82.3116,-141.006 z
M 37.3116,-141.006 L 36.9379,-141.053 L 36.5729,-141.147 L 36.2227,-141.286 L 35.8925,-141.467 L 35.5877,-141.688
 L 35.3131,-141.946 L 35.0729,-142.237 L 34.8711,-142.555 L 34.7107,-142.896 L 34.5942,-143.254 L 34.5237,-143.624
 L 34.5,-144 L 34.5237,-144.376 L 34.5942,-144.746 L 34.7107,-145.104 L 34.8711,-145.445 L 35.0729,-145.763
 L 35.3131,-146.054 L 35.5877,-146.312 L 35.8925,-146.533 L 36.2227,-146.714 L 36.5729,-146.853 L 36.9379,-146.947
 L 37.3116,-146.994 L 37.6884,-146.994 L 38.0621,-146.947 L 38.427,-146.853 L 38.7773,-146.714 L 39.1075,-146.533
 L 39.4123,-146.312 L 39.6869,-146.054 L 39.927,-145.763 L 40.1289,-145.445 L 40.2893,-145.104 L 40.4057,-144.746
 L 40.4763,-144.376 L 40.5,-144 L 40.4763,-143.624 L 40.4057,-143.254 L 40.2893,-142.896 L 40.1289,-142.555
 L 39.927,-142.237 L 39.6869,-141.946 L 39.4123,-141.688 L 39.1075,-141.467 L 38.7773,-141.286 L 38.427,-141.147
 L 38.0621,-141.053 L 37.6884,-141.006 z
M 7.31161,-141.006 L 6.93785,-141.053 L 6.57294,-141.147 L 6.22266,-141.286 L 5.89252,-141.467 L 5.58772,-141.688
 L 5.31308,-141.946 L 5.07294,-142.237 L 4.87108,-142.555 L 4.71066,-142.896 L 4.59424,-143.254 L 4.52365,-143.624
 L 4.5,-144 L 4.52365,-144.376 L 4.59424,-144.746 L 4.71066,-145.104 L 4.87108,-145.445 L 5.07294,-145.763
 L 5.31308,-146.054 L 5.58772,-146.312 L 5.89252,-146.533 L 6.22266,-146.714 L 6.57294,-146.853 L 6.93785,-146.947
 L 7.31161,-146.994 L 7.68837,-146.994 L 8.06213,-146.947 L 8.42705,-146.853 L 8.77733,-146.714 L 9.10747,-146.533
 L 9.41226,-146.312 L 9.6869,-146.054 L 9.92705,-145.763 L 10.1289,-145.445 L 10.2893,-145.104 L 10.4057,-144.746
 L 10.4763,-144.376 L 10.5,-144 L 10.4763,-143.624 L 10.4057,-143.254 L 10.2893,-142.896 L 10.1289,-142.555
 L 9.92705,-142.237 L 9.6869,-141.946 L 9.41226,-141.688 L 9.10747,-141.467 L 8.77733,-141.286 L 8.42705,-141.147
 L 8.06213,-141.053 L 7.68837,-141.006 z
M -67.6884,-141.006 L -68.0621,-141.053 L -68.427,-141.147 L -68.7773,-141.286 L -69.1075,-141.467 L -69.4123,-141.688
 L -69.6869,-141.946 L -69.927,-142.237 L -70.1289,-142.555 L -70.2893,-142.896 L -70.4057,-143.254 L -70.4763,-143.624
 L -70.5,-144 L -70.4763,-144.376 L -70.4057,-144.746 L -70.2893,-145.104 L -70.1289,-145.445 L -69.927,-145.763
 L -69.6869,-146.054 L -69.4123,-146.312 L -69.1075,-146.533 L -68.7773,-146.714 L -68.427,-146.853 L -68.0621,-146.947
 L -67.6884,-146.994 L -67.3116,-146.994 L -66.9379,-146.947 L -66.573,-146.853 L -66.2227,-146.714 L -65.8925,-146.533
 L -65.5877,-146.312 L -65.3131,-146.054 L -65.073,-145.763 L -64.8711,-145.445 L -64.7107,-145.104 L -64.5943,-144.746
 L -64.5237,-144.376 L -64.5,-144 L -64.5237,-143.624 L -64.5943,-143.254 L -64.7107,-142.896 L -64.8711,-142.555
 L -65.073,-142.237 L -65.3131,-141.946 L -65.5877,-141.688 L -65.8925,-141.467 L -66.2227,-141.286 L -66.573,-141.147
 L -66.9379,-141.053 L -67.3116,-141.006 z
M -7.68837,-141.006 L -8.06213,-141.053 L -8.42705,-141.147 L -8.77733,-141.286 L -9.10747,-141.467 L -9.41226,-141.688
 L -9.6869,-141.946 L -9.92705,-142.237 L -10.1289,-142.555 L -10.2893,-142.896 L -10.4057,-143.254 L -10.4763,-143.624
 L -10.5,-144 L -10.4763,-144.376 L -10.4057,-144.746 L -10.2893,-145.104 L -10.1289,-145.445 L -9.92705,-145.763
 L -9.6869,-146.054 L -9.41226,-146.312 L -9.10747,-146.533 L -8.77733,-146.714 L -8.42705,-146.853 L -8.06213,-146.947
 L -7.68837,-146.994 L -7.31161,-146.994 L -6.93785,-146.947 L -6.57294,-146.853 L -6.22266,-146.714 L -5.89252,-146.533
 L -5.58772,-146.312 L -5.31308,-146.054 L -5.07294,-145.763 L -4.87108,-145.445 L -4.71066,-145.104 L -4.59424,-144.746
 L -4.52365,-144.376 L -4.5,-144 L -4.52365,-143.624 L -4.59424,-143.254 L -4.71066,-142.896 L -4.87108,-142.555
 L -5.07294,-142.237 L -5.31308,-141.946 L -5.58772,-141.688 L -5.89252,-141.467 L -6.22266,-141.286 L -6.57294,-141.147
 L -6.93785,-141.053 L -7.31161,-141.006 z
M 82.3116,-141.006 L 81.9379,-141.053 L 81.573,-141.147 L 81.2227,-141.286 L 80.8925,-141.467 L 80.5877,-141.688
 L 80.3131,-141.946 L 80.073,-142.237 L 79.8711,-142.555 L 79.7107,-142.896 L 79.5943,-143.254 L 79.5237,-143.624
 L 79.5,-144 L 79.5237,-144.376 L 79.5943,-144.746 L 79.7107,-145.104 L 79.8711,-145.445 L 80.073,-145.763
 L 80.3131,-146.054 L 80.5877,-146.312 L 80.8925,-146.533 L 81.2227,-146.714 L 81.573,-146.853 L 81.9379,-146.947
 L 82.3116,-146.994 L 82.6884,-146.994 L 83.0621,-146.947 L 83.427,-146.853 L 83.7773,-146.714 L 84.1075,-146.533
 L 84.4123,-146.312 L 84.6869,-146.054 L 84.927,-145.763 L 85.1289,-145.445 L 85.2893,-145.104 L 85.4057,-144.746
 L 85.4763,-144.376 L 85.5,-144 L 85.4763,-143.624 L 85.4057,-143.254 L 85.2893,-142.896 L 85.1289,-142.555
 L 84.927,-142.237 L 84.6869,-141.946 L 84.4123,-141.688 L 84.1075,-141.467 L 83.7773,-141.286 L 83.427,-141.147
 L 83.0621,-141.053 L 82.6884,-141.006 z
M 29.9058,-142.503 L 29.7189,-142.527 L 29.5365,-142.573 L 29.3613,-142.643 L 29.1963,-142.734 L 29.0439,-142.844
 L 28.9065,-142.973 L 28.7865,-143.118 L 28.6855,-143.277 L 28.6053,-143.448 L 28.5471,-143.627 L 28.5118,-143.812
 L 28.5,-144 L 28.5118,-144.188 L 28.5471,-144.373 L 28.6053,-144.552 L 28.6855,-144.723 L 28.7865,-144.882
 L 28.9065,-145.027 L 29.0439,-145.156 L 29.1963,-145.266 L 29.3613,-145.357 L 29.5365,-145.427 L 29.7189,-145.473
 L 29.9058,-145.497 L 30.0942,-145.497 L 30.2811,-145.473 L 30.4635,-145.427 L 30.6387,-145.357 L 30.8037,-145.266
 L 30.9561,-145.156 L 31.0934,-145.027 L 31.2135,-144.882 L 31.3145,-144.723 L 31.3947,-144.552 L 31.4529,-144.373
 L 31.4882,-144.188 L 31.5,-144 L 31.4882,-143.812 L 31.4529,-143.627 L 31.3947,-143.448 L 31.3145,-143.277
 L 31.2135,-143.118 L 31.0934,-142.973 L 30.9561,-142.844 L 30.8037,-142.734 L 30.6387,-142.643 L 30.4635,-142.573
 L 30.2811,-142.527 L 30.0942,-142.503 z
M -30.0942,-142.503 L -30.2811,-142.527 L -30.4635,-142.573 L -30.6387,-142.643 L -30.8037,-142.734 L -30.9561,-142.844
 L -31.0934,-142.973 L -31.2135,-143.118 L -31.3145,-143.277 L -31.3947,-143.448 L -31.4529,-143.627 L -31.4882,-143.812
 L -31.5,-144 L -31.4882,-144.188 L -31.4529,-144.373 L -31.3947,-144.552 L -31.3145,-144.723 L -31.2135,-144.882
 L -31.0934,-145.027 L -30.9561,-145.156 L -30.8037,-145.266 L -30.6387,-145.357 L -30.4635,-145.427 L -30.2811,-145.473
 L -30.0942,-145.497 L -29.9058,-145.497 L -29.7189,-145.473 L -29.5365,-145.427 L -29.3613,-145.357 L -29.1963,-145.266
 L -29.0439,-145.156 L -28.9065,-145.027 L -28.7865,-144.882 L -28.6855,-144.723 L -28.6053,-144.552 L -28.5471,-144.373
 L -28.5118,-144.188 L -28.5,-144 L -28.5118,-143.812 L -28.5471,-143.627 L -28.6053,-143.448 L -28.6855,-143.277
 L -28.7865,-143.118 L -28.9065,-142.973 L -29.0439,-142.844 L -29.1963,-142.734 L -29.3613,-142.643 L -29.5365,-142.573
 L -29.7189,-142.527 L -29.9058,-142.503 z
M 59.9058,-142.503 L 59.7189,-142.527 L 59.5365,-142.573 L 59.3613,-142.643 L 59.1963,-142.734 L 59.0439,-142.844
 L 58.9065,-142.973 L 58.7865,-143.118 L 58.6855,-143.277 L 58.6053,-143.448 L 58.5471,-143.627 L 58.5118,-143.812
 L 58.5,-144 L 58.5118,-144.188 L 58.5471,-144.373 L 58.6053,-144.552 L 58.6855,-144.723 L 58.7865,-144.882
 L 58.9065,-145.027 L 59.0439,-145.156 L 59.1963,-145.266 L 59.3613,-145.357 L 59.5365,-145.427 L 59.7189,-145.473
 L 59.9058,-145.497 L 60.0942,-145.497 L 60.2811,-145.473 L 60.4635,-145.427 L 60.6387,-145.357 L 60.8037,-145.266
 L 60.9561,-145.156 L 61.0934,-145.027 L 61.2135,-144.882 L 61.3145,-144.723 L 61.3947,-144.552 L 61.4529,-144.373
 L 61.4882,-144.188 L 61.5,-144 L 61.4882,-143.812 L 61.4529,-143.627 L 61.3947,-143.448 L 61.3145,-143.277
 L 61.2135,-143.118 L 61.0934,-142.973 L 60.9561,-142.844 L 60.8037,-142.734 L 60.6387,-142.643 L 60.4635,-142.573
 L 60.2811,-142.527 L 60.0942,-142.503 z
M -75.0942,-142.503 L -75.2811,-142.527 L -75.4635,-142.573 L -75.6387,-142.643 L -75.8037,-142.734 L -75.9561,-142.844
 L -76.0934,-142.973 L -76.2135,-143.118 L -76.3145,-143.277 L -76.3947,-143.448 L -76.4529,-143.627 L -76.4882,-143.812
 L -76.5,-144 L -76.4882,-144.188 L -76.4529,-144.373 L -76.3947,-144.552 L -76.3145,-144.723 L -76.2135,-144.882
 L -76.0934,-145.027 L -75.9561,-145.156 L -75.8037,-145.266 L -75.6387,-145.357 L -75.4635,-145.427 L -75.2811,-145.473
 L -75.0942,-145.497 L -74.9058,-145.497 L -74.7189,-145.473 L -74.5365,-145.427 L -74.3613,-145.357 L -74.1963,-145.266
 L -74.0439,-145.156 L -73.9065,-145.027 L -73.7865,-144.882 L -73.6855,-144.723 L -73.6053,-144.552 L -73.5471,-144.373
 L -73.5118,-144.188 L -73.5,-144 L -73.5118,-143.812 L -73.5471,-143.627 L -73.6053,-143.448 L -73.6855,-143.277
 L -73.7865,-143.118 L -73.9065,-142.973 L -74.0439,-142.844 L -74.1963,-142.734 L -74.3613,-142.643 L -74.5365,-142.573
 L -74.7189,-142.527 L -74.9058,-142.503 z
M -45.0942,-142.503 L -45.2811,-142.527 L -45.4635,-142.573 L -45.6387,-142.643 L -45.8037,-142.734 L -45.9561,-142.844
 L -46.0934,-142.973 L -46.2135,-143.118 L -46.3145,-143.277 L -46.3947,-143.448 L -46.4529,-143.627 L -46.4882,-143.812
 L -46.5,-144 L -46.4882,-144.188 L -46.4529,-144.373 L -46.3947,-144.552 L -46.3145,-144.723 L -46.2135,-144.882
 L -46.0934,-145.027 L -45.9561,-145.156 L -45.8037,-145.266 L -45.6387,-145.357 L -45.4635,-145.427 L -45.2811,-145.473
 L -45.0942,-145.497 L -44.9058,-145.497 L -44.7189,-145.473 L -44.5365,-145.427 L -44.3613,-145.357 L -44.1963,-145.266
 L -44.0439,-145.156 L -43.9065,-145.027 L -43.7865,-144.882 L -43.6855,-144.723 L -43.6053,-144.552 L -43.5471,-144.373
 L -43.5118,-144.188 L -43.5,-144 L -43.5118,-143.812 L -43.5471,-143.627 L -43.6053,-143.448 L -43.6855,-143.277
 L -43.7865,-143.118 L -43.9065,-142.973 L -44.0439,-142.844 L -44.1963,-142.734 L -44.3613,-142.643 L -44.5365,-142.573
 L -44.7189,-142.527 L -44.9058,-142.503 z
M 44.9058,-142.503 L 44.7189,-142.527 L 44.5365,-142.573 L 44.3613,-142.643 L 44.1963,-142.734 L 44.0439,-142.844
 L 43.9065,-142.973 L 43.7865,-143.118 L 43.6855,-143.277 L 43.6053,-143.448 L 43.5471,-143.627 L 43.5118,-143.812
 L 43.5,-144 L 43.5118,-144.188 L 43.5471,-144.373 L 43.6053,-144.552 L 43.6855,-144.723 L 43.7865,-144.882
 L 43.9065,-145.027 L 44.0439,-145.156 L 44.1963,-145.266 L 44.3613,-145.357 L 44.5365,-145.427 L 44.7189,-145.473
 L 44.9058,-145.497 L 45.0942,-145.497 L 45.2811,-145.473 L 45.4635,-145.427 L 45.6387,-145.357 L 45.8037,-145.266
 L 45.9561,-145.156 L 46.0934,-145.027 L 46.2135,-144.882 L 46.3145,-144.723 L 46.3947,-144.552 L 46.4529,-144.373
 L 46.4882,-144.188 L 46.5,-144 L 46.4882,-143.812 L 46.4529,-143.627 L 46.3947,-143.448 L 46.3145,-143.277
 L 46.2135,-143.118 L 46.0934,-142.973 L 45.9561,-142.844 L 45.8037,-142.734 L 45.6387,-142.643 L 45.4635,-142.573
 L 45.2811,-142.527 L 45.0942,-142.503 z
M -0.0941772,-142.503 L -0.281067,-142.527 L -0.463516,-142.573 L -0.638657,-142.643 L -0.803726,-142.734 L -0.956131,-142.844
 L -1.09344,-142.973 L -1.21352,-143.118 L -1.31445,-143.277 L -1.39465,-143.448 L -1.45287,-143.627 L -1.48816,-143.812
 L -1.5,-144 L -1.48816,-144.188 L -1.45287,-144.373 L -1.39465,-144.552 L -1.31445,-144.723 L -1.21352,-144.882
 L -1.09344,-145.027 L -0.956131,-145.156 L -0.803726,-145.266 L -0.638657,-145.357 L -0.463516,-145.427 L -0.281067,-145.473
 L -0.0941772,-145.497 L 0.0941772,-145.497 L 0.281067,-145.473 L 0.463516,-145.427 L 0.638657,-145.357 L 0.803726,-145.266
 L 0.956131,-145.156 L 1.09344,-145.027 L 1.21352,-144.882 L 1.31445,-144.723 L 1.39465,-144.552 L 1.45287,-144.373
 L 1.48816,-144.188 L 1.5,-144 L 1.48816,-143.812 L 1.45287,-143.627 L 1.39465,-143.448 L 1.31445,-143.277
 L 1.21352,-143.118 L 1.09344,-142.973 L 0.956131,-142.844 L 0.803726,-142.734 L 0.638657,-142.643 L 0.463516,-142.573
 L 0.281067,-142.527 L 0.0941772,-142.503 z
M -15.0942,-142.503 L -15.2811,-142.527 L -15.4635,-142.573 L -15.6387,-142.643 L -15.8037,-142.734 L -15.9561,-142.844
 L -16.0934,-142.973 L -16.2135,-143.118 L -16.3145,-143.277 L -16.3947,-143.448 L -16.4529,-143.627 L -16.4882,-143.812
 L -16.5,-144 L -16.4882,-144.188 L -16.4529,-144.373 L -16.3947,-144.552 L -16.3145,-144.723 L -16.2135,-144.882
 L -16.0934,-145.027 L -15.9561,-145.156 L -15.8037,-145.266 L -15.6387,-145.357 L -15.4635,-145.427 L -15.2811,-145.473
 L -15.0942,-145.497 L -14.9058,-145.497 L -14.7189,-145.473 L -14.5365,-145.427 L -14.3613,-145.357 L -14.1963,-145.266
 L -14.0439,-145.156 L -13.9065,-145.027 L -13.7865,-144.882 L -13.6855,-144.723 L -13.6053,-144.552 L -13.5471,-144.373
 L -13.5118,-144.188 L -13.5,-144 L -13.5118,-143.812 L -13.5471,-143.627 L -13.6053,-143.448 L -13.6855,-143.277
 L -13.7865,-143.118 L -13.9065,-142.973 L -14.0439,-142.844 L -14.1963,-142.734 L -14.3613,-142.643 L -14.5365,-142.573
 L -14.7189,-142.527 L -14.9058,-142.503 z
M 14.9058,-142.503 L 14.7189,-142.527 L 14.5365,-142.573 L 14.3613,-142.643 L 14.1963,-142.734 L 14.0439,-142.844
 L 13.9065,-142.973 L 13.7865,-143.118 L 13.6855,-143.277 L 13.6053,-143.448 L 13.5471,-143.627 L 13.5118,-143.812
 L 13.5,-144 L 13.5118,-144.188 L 13.5471,-144.373 L 13.6053,-144.552 L 13.6855,-144.723 L 13.7865,-144.882
 L 13.9065,-145.027 L 14.0439,-145.156 L 14.1963,-145.266 L 14.3613,-145.357 L 14.5365,-145.427 L 14.7189,-145.473
 L 14.9058,-145.497 L 15.0942,-145.497 L 15.2811,-145.473 L 15.4635,-145.427 L 15.6387,-145.357 L 15.8037,-145.266
 L 15.9561,-145.156 L 16.0934,-145.027 L 16.2135,-144.882 L 16.3145,-144.723 L 16.3947,-144.552 L 16.4529,-144.373
 L 16.4882,-144.188 L 16.5,-144 L 16.4882,-143.812 L 16.4529,-143.627 L 16.3947,-143.448 L 16.3145,-143.277
 L 16.2135,-143.118 L 16.0934,-142.973 L 15.9561,-142.844 L 15.8037,-142.734 L 15.6387,-142.643 L 15.4635,-142.573
 L 15.2811,-142.527 L 15.0942,-142.503 z
M -60.0942,-142.503 L -60.2811,-142.527 L -60.4635,-142.573 L -60.6387,-142.643 L -60.8037,-142.734 L -60.9561,-142.844
 L -61.0934,-142.973 L -61.2135,-143.118 L -61.3145,-143.277 L -61.3947,-143.448 L -61.4529,-143.627 L -61.4882,-143.812
 L -61.5,-144 L -61.4882,-144.188 L -61.4529,-144.373 L -61.3947,-144.552 L -61.3145,-144.723 L -61.2135,-144.882
 L -61.0934,-145.027 L -60.9561,-145.156 L -60.8037,-145.266 L -60.6387,-145.357 L -60.4635,-145.427 L -60.2811,-145.473
 L -60.0942,-145.497 L -59.9058,-145.497 L -59.7189,-145.473 L -59.5365,-145.427 L -59.3613,-145.357 L -59.1963,-145.266
 L -59.0439,-145.156 L -58.9065,-145.027 L -58.7865,-144.882 L -58.6855,-144.723 L -58.6053,-144.552 L -58.5471,-144.373
 L -58.5118,-144.188 L -58.5,-144 L -58.5118,-143.812 L -58.5471,-143.627 L -58.6053,-143.448 L -58.6855,-143.277
 L -58.7865,-143.118 L -58.9065,-142.973 L -59.0439,-142.844 L -59.1963,-142.734 L -59.3613,-142.643 L -59.5365,-142.573
 L -59.7189,-142.527 L -59.9058,-142.503 z
M 74.9058,-142.503 L 74.7189,-142.527 L 74.5365,-142.573 L 74.3613,-142.643 L 74.1963,-142.734 L 74.0439,-142.844
 L 73.9065,-142.973 L 73.7865,-143.118 L 73.6855,-143.277 L 73.6053,-143.448 L 73.5471,-143.627 L 73.5118,-143.812
 L 73.5,-144 L 73.5118,-144.188 L 73.5471,-144.373 L 73.6053,-144.552 L 73.6855,-144.723 L 73.7865,-144.882
 L 73.9065,-145.027 L 74.0439,-145.156 L 74.1963,-145.266 L 74.3613,-145.357 L 74.5365,-145.427 L 74.7189,-145.473
 L 74.9058,-145.497 L 75.0942,-145.497 L 75.2811,-145.473 L 75.4635,-145.427 L 75.6387,-145.357 L 75.8037,-145.266
 L 75.9561,-145.156 L 76.0934,-145.027 L 76.2135,-144.882 L 76.3145,-144.723 L 76.3947,-144.552 L 76.4529,-144.373
 L 76.4882,-144.188 L 76.5,-144 L 76.4882,-143.812 L 76.4529,-143.627 L 76.3947,-143.448 L 76.3145,-143.277
 L 76.2135,-143.118 L 76.0934,-142.973 L 75.9561,-142.844 L 75.8037,-142.734 L 75.6387,-142.643 L 75.4635,-142.573
 L 75.2811,-142.527 L 75.0942,-142.503 z
M 85.4369,-113.089 L 86.0451,-113.245 L 86.6289,-113.476 L 87.1791,-113.778 L 87.6871,-114.147 L 88.1448,-114.577
 L 88.5451,-115.061 L 88.8815,-115.591 L 89.1489,-116.159 L 89.3429,-116.757 L 89.4606,-117.373 L 89.5,-118
 L 89.5,-122 L 89.4606,-122.627 L 89.3429,-123.243 L 89.1489,-123.841 L 88.8815,-124.409 L 88.5451,-124.939
 L 88.1448,-125.423 L 87.6871,-125.853 L 87.1791,-126.222 L 86.6289,-126.524 L 86.0451,-126.755 L 85.4369,-126.911
 L 84.8139,-126.99 L -84.8139,-126.99 L -85.4369,-126.911 L -86.0451,-126.755 L -86.6289,-126.524 L -87.1791,-126.222
 L -87.6871,-125.853 L -88.1448,-125.423 L -88.5451,-124.939 L -88.8815,-124.409 L -89.1489,-123.841 L -89.3429,-123.243
 L -89.4606,-122.627 L -89.5,-122 L -89.5,-118 L -89.4606,-117.373 L -89.3429,-116.757 L -89.1489,-116.159
 L -88.8815,-115.591 L -88.5451,-115.061 L -88.1448,-114.577 L -87.6871,-114.147 L -87.1791,-113.778 L -86.6289,-113.476
 L -86.0451,-113.245 L -85.4369,-113.089 L -84.8139,-113.01 L 84.8139,-113.01 z
M -52.6884,-117.006 L -53.0621,-117.053 L -53.427,-117.147 L -53.7773,-117.286 L -54.1075,-117.467 L -54.4123,-117.688
 L -54.6869,-117.946 L -54.927,-118.237 L -55.1289,-118.555 L -55.2893,-118.896 L -55.4057,-119.254 L -55.4763,-119.624
 L -55.5,-120 L -55.4763,-120.376 L -55.4057,-120.746 L -55.2893,-121.104 L -55.1289,-121.445 L -54.927,-121.763
 L -54.6869,-122.054 L -54.4123,-122.312 L -54.1075,-122.533 L -53.7773,-122.714 L -53.427,-122.853 L -53.0621,-122.947
 L -52.6884,-122.994 L -52.3116,-122.994 L -51.9379,-122.947 L -51.5729,-122.853 L -51.2227,-122.714 L -50.8925,-122.533
 L -50.5877,-122.312 L -50.3131,-122.054 L -50.0729,-121.763 L -49.8711,-121.445 L -49.7107,-121.104 L -49.5942,-120.746
 L -49.5237,-120.376 L -49.5,-120 L -49.5237,-119.624 L -49.5942,-119.254 L -49.7107,-118.896 L -49.8711,-118.555
 L -50.0729,-118.237 L -50.3131,-117.946 L -50.5877,-117.688 L -50.8925,-117.467 L -51.2227,-117.286 L -51.5729,-117.147
 L -51.9379,-117.053 L -52.3116,-117.006 z
M -22.6884,-117.006 L -23.0621,-117.053 L -23.427,-117.147 L -23.7773,-117.286 L -24.1075,-117.467 L -24.4123,-117.688
 L -24.6869,-117.946 L -24.927,-118.237 L -25.1289,-118.555 L -25.2893,-118.896 L -25.4057,-119.254 L -25.4763,-119.624
 L -25.5,-120 L -25.4763,-120.376 L -25.4057,-120.746 L -25.2893,-121.104 L -25.1289,-121.445 L -24.927,-121.763
 L -24.6869,-122.054 L -24.4123,-122.312 L -24.1075,-122.533 L -23.7773,-122.714 L -23.427,-122.853 L -23.0621,-122.947
 L -22.6884,-122.994 L -22.3116,-122.994 L -21.9379,-122.947 L -21.5729,-122.853 L -21.2227,-122.714 L -20.8925,-122.533
 L -20.5877,-122.312 L -20.3131,-122.054 L -20.0729,-121.763 L -19.8711,-121.445 L -19.7107,-121.104 L -19.5942,-120.746
 L -19.5237,-120.376 L -19.5,-120 L -19.5237,-119.624 L -19.5942,-119.254 L -19.7107,-118.896 L -19.8711,-118.555
 L -20.0729,-118.237 L -20.3131,-117.946 L -20.5877,-117.688 L -20.8925,-117.467 L -21.2227,-117.286 L -21.5729,-117.147
 L -21.9379,-117.053 L -22.3116,-117.006 z
M 22.3116,-117.006 L 21.9379,-117.053 L 21.5729,-117.147 L 21.2227,-117.286 L 20.8925,-117.467 L 20.5877,-117.688
 L 20.3131,-117.946 L 20.0729,-118.237 L 19.8711,-118.555 L 19.7107,-118.896 L 19.5942,-119.254 L 19.5237,-119.624
 L 19.5,-120 L 19.5237,-120.376 L 19.5942,-120.746 L 19.7107,-121.104 L 19.8711,-121.445 L 20.0729,-121.763
 L 20.3131,-122.054 L 20.5877,-122.312 L 20.8925,-122.533 L 21.2227,-122.714 L 21.5729,-122.853 L 21.9379,-122.947
 L 22.3116,-122.994 L 22.6884,-122.994 L 23.0621,-122.947 L 23.427,-122.853 L 23.7773,-122.714 L 24.1075,-122.533
 L 24.4123,-122.312 L 24.6869,-122.054 L 24.927,-121.763 L 25.1289,-121.445 L 25.2893,-121.104 L 25.4057,-120.746
 L 25.4763,-120.376 L 25.5,-120 L 25.4763,-119.624 L 25.4057,-119.254 L 25.2893,-118.896 L 25.1289,-118.555
 L 24.927,-118.237 L 24.6869,-117.946 L 24.4123,-117.688 L 24.1075,-117.467 L 23.7773,-117.286 L 23.427,-117.147
 L 23.0621,-117.053 L 22.6884,-117.006 z
M -37.6884,-117.006 L -38.0621,-117.053 L -38.427,-117.147 L -38.7773,-117.286 L -39.1075,-117.467 L -39.4123,-117.688
 L -39.6869,-117.946 L -39.927,-118.237 L -40.1289,-118.555 L -40.2893,-118.896 L -40.4057,-119.254 L -40.4763,-119.624
 L -40.5,-120 L -40.4763,-120.376 L -40.4057,-120.746 L -40.2893,-121.104 L -40.1289,-121.445 L -39.927,-121.763
 L -39.6869,-122.054 L -39.4123,-122.312 L -39.1075,-122.533 L -38.7773,-122.714 L -38.427,-122.853 L -38.0621,-122.947
 L -37.6884,-122.994 L -37.3116,-122.994 L -36.9379,-122.947 L -36.5729,-122.853 L -36.2227,-122.714 L -35.8925,-122.533
 L -35.5877,-122.312 L -35.3131,-122.054 L -35.0729,-121.763 L -34.8711,-121.445 L -34.7107,-121.104 L -34.5942,-120.746
 L -34.5237,-120.376 L -34.5,-120 L -34.5237,-119.624 L -34.5942,-119.254 L -34.7107,-118.896 L -34.8711,-118.555
 L -35.0729,-118.237 L -35.3131,-117.946 L -35.5877,-117.688 L -35.8925,-117.467 L -36.2227,-117.286 L -36.5729,-117.147
 L -36.9379,-117.053 L -37.3116,-117.006 z
M 52.3116,-117.006 L 51.9379,-117.053 L 51.5729,-117.147 L 51.2227,-117.286 L 50.8925,-117.467 L 50.5877,-117.688
 L 50.3131,-117.946 L 50.0729,-118.237 L 49.8711,-118.555 L 49.7107,-118.896 L 49.5942,-119.254 L 49.5237,-119.624
 L 49.5,-120 L 49.5237,-120.376 L 49.5942,-120.746 L 49.7107,-121.104 L 49.8711,-121.445 L 50.0729,-121.763
 L 50.3131,-122.054 L 50.5877,-122.312 L 50.8925,-122.533 L 51.2227,-122.714 L 51.5729,-122.853 L 51.9379,-122.947
 L 52.3116,-122.994 L 52.6884,-122.994 L 53.0621,-122.947 L 53.427,-122.853 L 53.7773,-122.714 L 54.1075,-122.533
 L 54.4123,-122.312 L 54.6869,-122.054 L 54.927,-121.763 L 55.1289,-121.445 L 55.2893,-121.104 L 55.4057,-120.746
 L 55.4763,-120.376 L 55.5,-120 L 55.4763,-119.624 L 55.4057,-119.254 L 55.2893,-118.896 L 55.1289,-118.555
 L 54.927,-118.237 L 54.6869,-117.946 L 54.4123,-117.688 L 54.1075,-117.467 L 53.7773,-117.286 L 53.427,-117.147
 L 53.0621,-117.053 L 52.6884,-117.006 z
M -82.6884,-117.006 L -83.0621,-117.053 L -83.427,-117.147 L -83.7773,-117.286 L -84.1075,-117.467 L -84.4123,-117.688
 L -84.6869,-117.946 L -84.927,-118.237 L -85.1289,-118.555 L -85.2893,-118.896 L -85.4057,-119.254 L -85.4763,-119.624
 L -85.5,-120 L -85.4763,-120.376 L -85.4057,-120.746 L -85.2893,-121.104 L -85.1289,-121.445 L -84.927,-121.763
 L -84.6869,-122.054 L -84.4123,-122.312 L -84.1075,-122.533 L -83.7773,-122.714 L -83.427,-122.853 L -83.0621,-122.947
 L -82.6884,-122.994 L -82.3116,-122.994 L -81.9379,-122.947 L -81.573,-122.853 L -81.2227,-122.714 L -80.8925,-122.533
 L -80.5877,-122.312 L -80.3131,-122.054 L -80.073,-121.763 L -79.8711,-121.445 L -79.7107,-121.104 L -79.5943,-120.746
 L -79.5237,-120.376 L -79.5,-120 L -79.5237,-119.624 L -79.5943,-119.254 L -79.7107,-118.896 L -79.8711,-118.555
 L -80.073,-118.237 L -80.3131,-117.946 L -80.5877,-117.688 L -80.8925,-117.467 L -81.2227,-117.286 L -81.573,-117.147
 L -81.9379,-117.053 L -82.3116,-117.006 z
M 37.3116,-117.006 L 36.9379,-117.053 L 36.5729,-117.147 L 36.2227,-117.286 L 35.8925,-117.467 L 35.5877,-117.688
 L 35.3131,-117.946 L 35.0729,-118.237 L 34.8711,-118.555 L 34.7107,-118.896 L 34.5942,-119.254 L 34.5237,-119.624
 L 34.5,-120 L 34.5237,-120.376 L 34.5942,-120.746 L 34.7107,-121.104 L 34.8711,-121.445 L 35.0729,-121.763
 L 35.3131,-122.054 L 35.5877,-122.312 L 35.8925,-122.533 L 36.2227,-122.714 L 36.5729,-122.853 L 36.9379,-122.947
 L 37.3116,-122.994 L 37.6884,-122.994 L 38.0621,-122.947 L 38.427,-122.853 L 38.7773,-122.714 L 39.1075,-122.533
 L 39.4123,-122.312 L 39.6869,-122.054 L 39.927,-121.763 L 40.1289,-121.445 L 40.2893,-121.104 L 40.4057,-120.746
 L 40.4763,-120.376 L 40.5,-120 L 40.4763,-119.624 L 40.4057,-119.254 L 40.2893,-118.896 L 40.1289,-118.555
 L 39.927,-118.237 L 39.6869,-117.946 L 39.4123,-117.688 L 39.1075,-117.467 L 38.7773,-117.286 L 38.427,-117.147
 L 38.0621,-117.053 L 37.6884,-117.006 z
M 7.31161,-117.006 L 6.93785,-117.053 L 6.57294,-117.147 L 6.22266,-117.286 L 5.89252,-117.467 L 5.58772,-117.688
 L 5.31308,-117.946 L 5.07294,-118.237 L 4.87108,-118.555 L 4.71066,-118.896 L 4.59424,-119.254 L 4.52365,-119.624
 L 4.5,-120 L 4.52365,-120.376 L 4.59424,-120.746 L 4.71066,-121.104 L 4.87108,-121.445 L 5.07294,-121.763
 L 5.31308,-122.054 L 5.58772,-122.312 L 5.89252,-122.533 L 6.22266,-122.714 L 6.57294,-122.853 L 6.93785,-122.947
 L 7.31161,-122.994 L 7.68837,-122.994 L 8.06213,-122.947 L 8.42705,-122.853 L 8.77733,-122.714 L 9.10747,-122.533
 L 9.41226,-122.312 L 9.6869,-122.054 L 9.92705,-121.763 L 10.1289,-121.445 L 10.2893,-121.104 L 10.4057,-120.746
 L 10.4763,-120.376 L 10.5,-120 L 10.4763,-119.624 L 10.4057,-119.254 L 10.2893,-118.896 L 10.1289,-118.555
 L 9.92705,-118.237 L 9.6869,-117.946 L 9.41226,-117.688 L 9.10747,-117.467 L 8.77733,-117.286 L 8.42705,-117.147
 L 8.06213,-117.053 L 7.68837,-117.006 z
M -67.6884,-117.006 L -68.0621,-117.053 L -68.427,-117.147 L -68.7773,-117.286 L -69.1075,-117.467 L -69.4123,-117.688
 L -69.6869,-117.946 L -69.927,-118.237 L -70.1289,-118.555 L -70.2893,-118.896 L -70.4057,-119.254 L -70.4763,-119.624
 L -70.5,-120 L -70.4763,-120.376 L -70.4057,-120.746 L -70.2893,-121.104 L -70.1289,-121.445 L -69.927,-121.763
 L -69.6869,-122.054 L -69.4123,-122.312 L -69.1075,-122.533 L -68.7773,-122.714 L -68.427,-122.853 L -68.0621,-122.947
 L -67.6884,-122.994 L -67.3116,-122.994 L -66.9379,-122.947 L -66.573,-122.853 L -66.2227,-122.714 L -65.8925,-122.533
 L -65.5877,-122.312 L -65.3131,-122.054 L -65.073,-121.763 L -64.8711,-121.445 L -64.7107,-121.104 L -64.5943,-120.746
 L -64.5237,-120.376 L -64.5,-120 L -64.5237,-119.624 L -64.5943,-119.254 L -64.7107,-118.896 L -64.8711,-118.555
 L -65.073,-118.237 L -65.3131,-117.946 L -65.5877,-117.688 L -65.8925,-117.467 L -66.2227,-117.286 L -66.573,-117.147
 L -66.9379,-117.053 L -67.3116,-117.006 z
M -7.68837,-117.006 L -8.06213,-117.053 L -8.42705,-117.147 L -8.77733,-117.286 L -9.10747,-117.467 L -9.41226,-117.688
 L -9.6869,-117.946 L -9.92705,-118.237 L -10.1289,-118.555 L -10.2893,-118.896 L -10.4057,-119.254 L -10.4763,-119.624
 L -10.5,-120 L -10.4763,-120.376 L -10.4057,-120.746 L -10.2893,-121.104 L -10.1289,-121.445 L -9.92705,-121.763
 L -9.6869,-122.054 L -9.41226,-122.312 L -9.10747,-122.533 L -8.77733,-122.714 L -8.42705,-122.853 L -8.06213,-122.947
 L -7.68837,-122.994 L -7.31161,-122.994 L -6.93785,-122.947 L -6.57294,-122.853 L -6.22266,-122.714 L -5.89252,-122.533
 L -5.58772,-122.312 L -5.31308,-122.054 L -5.07294,-121.763 L -4.87108,-121.445 L -4.71066,-121.104 L -4.59424,-120.746
 L -4.52365,-120.376 L -4.5,-120 L -4.52365,-119.624 L -4.59424,-119.254 L -4.71066,-118.896 L -4.87108,-118.555
 L -5.07294,-118.237 L -5.31308,-117.946 L -5.58772,-117.688 L -5.89252,-117.467 L -6.22266,-117.286 L -6.57294,-117.147
 L -6.93785,-117.053 L -7.31161,-117.006 z
M 82.3116,-117.006 L 81.9379,-117.053 L 81.573,-117.147 L 81.2227,-117.286 L 80.8925,-117.467 L 80.5877,-117.688
 L 80.3131,-117.946 L 80.073,-118.237 L 79.8711,-118.555 L 79.7107,-118.896 L 79.5943,-119.254 L 79.5237,-119.624
 L 79.5,-120 L 79.5237,-120.376 L 79.5943,-120.746 L 79.7107,-121.104 L 79.8711,-121.445 L 80.073,-121.763
 L 80.3131,-122.054 L 80.5877,-122.312 L 80.8925,-122.533 L 81.2227,-122.714 L 81.573,-122.853 L 81.9379,-122.947
 L 82.3116,-122.994 L 82.6884,-122.994 L 83.0621,-122.947 L 83.427,-122.853 L 83.7773,-122.714 L 84.1075,-122.533
 L 84.4123,-122.312 L 84.6869,-122.054 L 84.927,-121.763 L 85.1289,-121.445 L 85.2893,-121.104 L 85.4057,-120.746
 L 85.4763,-120.376 L 85.5,-120 L 85.4763,-119.624 L 85.4057,-119.254 L 85.2893,-118.896 L 85.1289,-118.555
 L 84.927,-118.237 L 84.6869,-117.946 L 84.4123,-117.688 L 84.1075,-117.467 L 83.7773,-117.286 L 83.427,-117.147
 L 83.0621,-117.053 L 82.6884,-117.006 z
M 67.3116,-117.006 L 66.9379,-117.053 L 66.573,-117.147 L 66.2227,-117.286 L 65.8925,-117.467 L 65.5877,-117.688
 L 65.3131,-117.946 L 65.073,-118.237 L 64.8711,-118.555 L 64.7107,-118.896 L 64.5943,-119.254 L 64.5237,-119.624
 L 64.5,-120 L 64.5237,-120.376 L 64.5943,-120.746 L 64.7107,-121.104 L 64.8711,-121.445 L 65.073,-121.763
 L 65.3131,-122.054 L 65.5877,-122.312 L 65.8925,-122.533 L 66.2227,-122.714 L 66.573,-122.853 L 66.9379,-122.947
 L 67.3116,-122.994 L 67.6884,-122.994 L 68.0621,-122.947 L 68.427,-122.853 L 68.7773,-122.714 L 69.1075,-122.533
 L 69.4123,-122.312 L 69.6869,-122.054 L 69.927,-121.763 L 70.1289,-121.445 L 70.2893,-121.104 L 70.4057,-120.746
 L 70.4763,-120.376 L 70.5,-120 L 70.4763,-119.624 L 70.4057,-119.254 L 70.2893,-118.896 L 70.1289,-118.555
 L 69.927,-118.237 L 69.6869,-117.946 L 69.4123,-117.688 L 69.1075,-117.467 L 68.7773,-117.286 L 68.427,-117.147
 L 68.0621,-117.053 L 67.6884,-117.006 z
M 29.9058,-118.503 L 29.7189,-118.527 L 29.5365,-118.573 L 29.3613,-118.643 L 29.1963,-118.734 L 29.0439,-118.844
 L 28.9065,-118.973 L 28.7865,-119.118 L 28.6855,-119.277 L 28.6053,-119.448 L 28.5471,-119.627 L 28.5118,-119.812
 L 28.5,-120 L 28.5118,-120.188 L 28.5471,-120.373 L 28.6053,-120.552 L 28.6855,-120.723 L 28.7865,-120.882
 L 28.9065,-121.027 L 29.0439,-121.156 L 29.1963,-121.266 L 29.3613,-121.357 L 29.5365,-121.427 L 29.7189,-121.473
 L 29.9058,-121.497 L 30.0942,-121.497 L 30.2811,-121.473 L 30.4635,-121.427 L 30.6387,-121.357 L 30.8037,-121.266
 L 30.9561,-121.156 L 31.0934,-121.027 L 31.2135,-120.882 L 31.3145,-120.723 L 31.3947,-120.552 L 31.4529,-120.373
 L 31.4882,-120.188 L 31.5,-120 L 31.4882,-119.812 L 31.4529,-119.627 L 31.3947,-119.448 L 31.3145,-119.277
 L 31.2135,-119.118 L 31.0934,-118.973 L 30.9561,-118.844 L 30.8037,-118.734 L 30.6387,-118.643 L 30.4635,-118.573
 L 30.2811,-118.527 L 30.0942,-118.503 z
M -30.0942,-118.503 L -30.2811,-118.527 L -30.4635,-118.573 L -30.6387,-118.643 L -30.8037,-118.734 L -30.9561,-118.844
 L -31.0934,-118.973 L -31.2135,-119.118 L -31.3145,-119.277 L -31.3947,-119.448 L -31.4529,-119.627 L -31.4882,-119.812
 L -31.5,-120 L -31.4882,-120.188 L -31.4529,-120.373 L -31.3947,-120.552 L -31.3145,-120.723 L -31.2135,-120.882
 L -31.0934,-121.027 L -30.9561,-121.156 L -30.8037,-121.266 L -30.6387,-121.357 L -30.4635,-121.427 L -30.2811,-121.473
 L -30.0942,-121.497 L -29.9058,-121.497 L -29.7189,-121.473 L -29.5365,-121.427 L -29.3613,-121.357 L -29.1963,-121.266
 L -29.0439,-121.156 L -28.9065,-121.027 L -28.7865,-120.882 L -28.6855,-120.723 L -28.6053,-120.552 L -28.5471,-120.373
 L -28.5118,-120.188 L -28.5,-120 L -28.5118,-119.812 L -28.5471,-119.627 L -28.6053,-119.448 L -28.6855,-119.277
 L -28.7865,-119.118 L -28.9065,-118.973 L -29.0439,-118.844 L -29.1963,-118.734 L -29.3613,-118.643 L -29.5365,-118.573
 L -29.7189,-118.527 L -29.9058,-118.503 z
M 59.9058,-118.503 L 59.7189,-118.527 L 59.5365,-118.573 L 59.3613,-118.643 L 59.1963,-118.734 L 59.0439,-118.844
 L 58.9065,-118.973 L 58.7865,-119.118 L 58.6855,-119.277 L 58.6053,-119.448 L 58.5471,-119.627 L 58.5118,-119.812
 L 58.5,-120 L 58.5118,-120.188 L 58.5471,-120.373 L 58.6053,-120.552 L 58.6855,-120.723 L 58.7865,-120.882
 L 58.9065,-121.027 L 59.0439,-121.156 L 59.1963,-121.266 L 59.3613,-121.357 L 59.5365,-121.427 L 59.7189,-121.473
 L 59.9058,-121.497 L 60.0942,-121.497 L 60.2811,-121.473 L 60.4635,-121.427 L 60.6387,-121.357 L 60.8037,-121.266
 L 60.9561,-121.156 L 61.0934,-121.027 L 61.2135,-120.882 L 61.3145,-120.723 L 61.3947,-120.552 L 61.4529,-120.373
 L 61.4882,-120.188 L 61.5,-120 L 61.4882,-119.812 L 61.4529,-119.627 L 61.3947,-119.448 L 61.3145,-119.277
 L 61.2135,-119.118 L 61.0934,-118.973 L 60.9561,-118.844 L 60.8037,-118.734 L 60.6387,-118.643 L 60.4635,-118.573
 L 60.2811,-118.527 L 60.0942,-118.503 z
M -75.0942,-118.503 L -75.2811,-118.527 L -75.4635,-118.573 L -75.6387,-118.643 L -75.8037,-118.734 L -75.9561,-118.844
 L -76.0934,-118.973 L -76.2135,-119.118 L -76.3145,-119.277 L -76.3947,-119.448 L -76.4529,-119.627 L -76.4882,-119.812
 L -76.5,-120 L -76.4882,-120.188 L -76.4529,-120.373 L -76.3947,-120.552 L -76.3145,-120.723 L -76.2135,-120.882
 L -76.0934,-121.027 L -75.9561,-121.156 L -75.8037,-121.266 L -75.6387,-121.357 L -75.4635,-121.427 L -75.2811,-121.473
 L -75.0942,-121.497 L -74.9058,-121.497 L -74.7189,-121.473 L -74.5365,-121.427 L -74.3613,-121.357 L -74.1963,-121.266
 L -74.0439,-121.156 L -73.9065,-121.027 L -73.7865,-120.882 L -73.6855,-120.723 L -73.6053,-120.552 L -73.5471,-120.373
 L -73.5118,-120.188 L -73.5,-120 L -73.5118,-119.812 L -73.5471,-119.627 L -73.6053,-119.448 L -73.6855,-119.277
 L -73.7865,-119.118 L -73.9065,-118.973 L -74.0439,-118.844 L -74.1963,-118.734 L -74.3613,-118.643 L -74.5365,-118.573
 L -74.7189,-118.527 L -74.9058,-118.503 z
M -45.0942,-118.503 L -45.2811,-118.527 L -45.4635,-118.573 L -45.6387,-118.643 L -45.8037,-118.734 L -45.9561,-118.844
 L -46.0934,-118.973 L -46.2135,-119.118 L -46.3145,-119.277 L -46.3947,-119.448 L -46.4529,-119.627 L -46.4882,-119.812
 L -46.5,-120 L -46.4882,-120.188 L -46.4529,-120.373 L -46.3947,-120.552 L -46.3145,-120.723 L -46.2135,-120.882
 L -46.0934,-121.027 L -45.9561,-121.156 L -45.8037,-121.266 L -45.6387,-121.357 L -45.4635,-121.427 L -45.2811,-121.473
 L -45.0942,-121.497 L -44.9058,-121.497 L -44.7189,-121.473 L -44.5365,-121.427 L -44.3613,-121.357 L -44.1963,-121.266
 L -44.0439,-121.156 L -43.9065,-121.027 L -43.7865,-120.882 L -43.6855,-120.723 L -43.6053,-120.552 L -43.5471,-120.373
 L -43.5118,-120.188 L -43.5,-120 L -43.5118,-119.812 L -43.5471,-119.627 L -43.6053,-119.448 L -43.6855,-119.277
 L -43.7865,-119.118 L -43.9065,-118.973 L -44.0439,-118.844 L -44.1963,-118.734 L -44.3613,-118.643 L -44.5365,-118.573
 L -44.7189,-118.527 L -44.9058,-118.503 z
M 44.9058,-118.503 L 44.7189,-118.527 L 44.5365,-118.573 L 44.3613,-118.643 L 44.1963,-118.734 L 44.0439,-118.844
 L 43.9065,-118.973 L 43.7865,-119.118 L 43.6855,-119.277 L 43.6053,-119.448 L 43.5471,-119.627 L 43.5118,-119.812
 L 43.5,-120 L 43.5118,-120.188 L 43.5471,-120.373 L 43.6053,-120.552 L 43.6855,-120.723 L 43.7865,-120.882
 L 43.9065,-121.027 L 44.0439,-121.156 L 44.1963,-121.266 L 44.3613,-121.357 L 44.5365,-121.427 L 44.7189,-121.473
 L 44.9058,-121.497 L 45.0942,-121.497 L 45.2811,-121.473 L 45.4635,-121.427 L 45.6387,-121.357 L 45.8037,-121.266
 L 45.9561,-121.156 L 46.0934,-121.027 L 46.2135,-120.882 L 46.3145,-120.723 L 46.3947,-120.552 L 46.4529,-120.373
 L 46.4882,-120.188 L 46.5,-120 L 46.4882,-119.812 L 46.4529,-119.627 L 46.3947,-119.448 L 46.3145,-119.277
 L 46.2135,-119.118 L 46.0934,-118.973 L 45.9561,-118.844 L 45.8037,-118.734 L 45.6387,-118.643 L 45.4635,-118.573
 L 45.2811,-118.527 L 45.0942,-118.503 z
M -0.0941772,-118.503 L -0.281067,-118.527 L -0.463516,-118.573 L -0.638657,-118.643 L -0.803726,-118.734 L -0.956131,-118.844
 L -1.09344,-118.973 L -1.21352,-119.118 L -1.31445,-119.277 L -1.39465,-119.448 L -1.45287,-119.627 L -1.48816,-119.812
 L -1.5,-120 L -1.48816,-120.188 L -1.45287,-120.373 L -1.39465,-120.552 L -1.31445,-120.723 L -1.21352,-120.882
 L -1.09344,-121.027 L -0.956131,-121.156 L -0.803726,-121.266 L -0.638657,-121.357 L -0.463516,-121.427 L -0.281067,-121.473
 L -0.0941772,-121.497 L 0.0941772,-121.497 L 0.281067,-121.473 L 0.463516,-121.427 L 0.638657,-121.357 L 0.803726,-121.266
 L 0.956131,-121.156 L 1.09344,-121.027 L 1.21352,-120.882 L 1.31445,-120.723 L 1.39465,-120.552 L 1.45287,-120.373
 L 1.48816,-120.188 L 1.5,-120 L 1.48816,-119.812 L 1.45287,-119.627 L 1.39465,-119.448 L 1.31445,-119.277
 L 1.21352,-119.118 L 1.09344,-118.973 L 0.956131,-118.844 L 0.803726,-118.734 L 0.638657,-118.643 L 0.463516,-118.573
 L 0.281067,-118.527 L 0.0941772,-118.503 z
M -15.0942,-118.503 L -15.2811,-118.527 L -15.4635,-118.573 L -15.6387,-118.643 L -15.8037,-118.734 L -15.9561,-118.844
 L -16.0934,-118.973 L -16.2135,-119.118 L -16.3145,-119.277 L -16.3947,-119.448 L -16.4529,-119.627 L -16.4882,-119.812
 L -16.5,-120 L -16.4882,-120.188 L -16.4529,-120.373 L -16.3947,-120.552 L -16.3145,-120.723 L -16.2135,-120.882
 L -16.0934,-121.027 L -15.9561,-121.156 L -15.8037,-121.266 L -15.6387,-121.357 L -15.4635,-121.427 L -15.2811,-121.473
 L -15.0942,-121.497 L -14.9058,-121.497 L -14.7189,-121.473 L -14.5365,-121.427 L -14.3613,-121.357 L -14.1963,-121.266
 L -14.0439,-121.156 L -13.9065,-121.027 L -13.7865,-120.882 L -13.6855,-120.723 L -13.6053,-120.552 L -13.5471,-120.373
 L -13.5118,-120.188 L -13.5,-120 L -13.5118,-119.812 L -13.5471,-119.627 L -13.6053,-119.448 L -13.6855,-119.277
 L -13.7865,-119.118 L -13.9065,-118.973 L -14.0439,-118.844 L -14.1963,-118.734 L -14.3613,-118.643 L -14.5365,-118.573
 L -14.7189,-118.527 L -14.9058,-118.503 z
M 14.9058,-118.503 L 14.7189,-118.527 L 14.5365,-118.573 L 14.3613,-118.643 L 14.1963,-118.734 L 14.0439,-118.844
 L 13.9065,-118.973 L 13.7865,-119.118 L 13.6855,-119.277 L 13.6053,-119.448 L 13.5471,-119.627 L 13.5118,-119.812
 L 13.5,-120 L 13.5118,-120.188 L 13.5471,-120.373 L 13.6053,-120.552 L 13.6855,-120.723 L 13.7865,-120.882
 L 13.9065,-121.027 L 14.0439,-121.156 L 14.1963,-121.266 L 14.3613,-121.357 L 14.5365,-121.427 L 14.7189,-121.473
 L 14.9058,-121.497 L 15.0942,-121.497 L 15.2811,-121.473 L 15.4635,-121.427 L 15.6387,-121.357 L 15.8037,-121.266
 L 15.9561,-121.156 L 16.0934,-121.027 L 16.2135,-120.882 L 16.3145,-120.723 L 16.3947,-120.552 L 16.4529,-120.373
 L 16.4882,-120.188 L 16.5,-120 L 16.4882,-119.812 L 16.4529,-119.627 L 16.3947,-119.448 L 16.3145,-119.277
 L 16.2135,-119.118 L 16.0934,-118.973 L 15.9561,-118.844 L 15.8037,-118.734 L 15.6387,-118.643 L 15.4635,-118.573
 L 15.2811,-118.527 L 15.0942,-118.503 z
M -60.0942,-118.503 L -60.2811,-118.527 L -60.4635,-118.573 L -60.6387,-118.643 L -60.8037,-118.734 L -60.9561,-118.844
 L -61.0934,-118.973 L -61.2135,-119.118 L -61.3145,-119.277 L -61.3947,-119.448 L -61.4529,-119.627 L -61.4882,-119.812
 L -61.5,-120 L -61.4882,-120.188 L -61.4529,-120.373 L -61.3947,-120.552 L -61.3145,-120.723 L -61.2135,-120.882
 L -61.0934,-121.027 L -60.9561,-121.156 L -60.8037,-121.266 L -60.6387,-121.357 L -60.4635,-121.427 L -60.2811,-121.473
 L -60.0942,-121.497 L -59.9058,-121.497 L -59.7189,-121.473 L -59.5365,-121.427 L -59.3613,-121.357 L -59.1963,-121.266
 L -59.0439,-121.156 L -58.9065,-121.027 L -58.7865,-120.882 L -58.6855,-120.723 L -58.6053,-120.552 L -58.5471,-120.373
 L -58.5118,-120.188 L -58.5,-120 L -58.5118,-119.812 L -58.5471,-119.627 L -58.6053,-119.448 L -58.6855,-119.277
 L -58.7865,-119.118 L -58.9065,-118.973 L -59.0439,-118.844 L -59.1963,-118.734 L -59.3613,-118.643 L -59.5365,-118.573
 L -59.7189,-118.527 L -59.9058,-118.503 z
M 74.9058,-118.503 L 74.7189,-118.527 L 74.5365,-118.573 L 74.3613,-118.643 L 74.1963,-118.734 L 74.0439,-118.844
 L 73.9065,-118.973 L 73.7865,-119.118 L 73.6855,-119.277 L 73.6053,-119.448 L 73.5471,-119.627 L 73.5118,-119.812
 L 73.5,-120 L 73.5118,-120.188 L 73.5471,-120.373 L 73.6053,-120.552 L 73.6855,-120.723 L 73.7865,-120.882
 L 73.9065,-121.027 L 74.0439,-121.156 L 74.1963,-121.266 L 74.3613,-121.357 L 74.5365,-121.427 L 74.7189,-121.473
 L 74.9058,-121.497 L 75.0942,-121.497 L 75.2811,-121.473 L 75.4635,-121.427 L 75.6387,-121.357 L 75.8037,-121.266
 L 75.9561,-121.156 L 76.0934,-121.027 L 76.2135,-120.882 L 76.3145,-120.723 L 76.3947,-120.552 L 76.4529,-120.373
 L 76.4882,-120.188 L 76.5,-120 L 76.4882,-119.812 L 76.4529,-119.627 L 76.3947,-119.448 L 76.3145,-119.277
 L 76.2135,-119.118 L 76.0934,-118.973 L 75.9561,-118.844 L 75.8037,-118.734 L 75.6387,-118.643 L 75.4635,-118.573
 L 75.2811,-118.527 L 75.0942,-118.503 z
M 85.4369,-89.0886 L 86.0451,-89.2447 L 86.6289,-89.4759 L 87.1791,-89.7784 L 87.6871,-90.1474 L 88.1448,-90.5773
 L 88.5451,-91.0611 L 88.8815,-91.5912 L 89.1489,-92.1594 L 89.3429,-92.7566 L 89.4606,-93.3733 L 89.5,-94
 L 89.5,-98 L 89.4606,-98.6267 L 89.3429,-99.2434 L 89.1489,-99.8406 L 88.8815,-100.409 L 88.5451,-100.939
 L 88.1448,-101.423 L 87.6871,-101.853 L 87.1791,-102.222 L 86.6289,-102.524 L 86.0451,-102.755 L 85.4369,-102.911
 L 84.8139,-102.99 L -84.8139,-102.99 L -85.4369,-102.911 L -86.0451,-102.755 L -86.6289,-102.524 L -87.1791,-102.222
 L -87.6871,-101.853 L -88.1448,-101.423 L -88.5451,-100.939 L -88.8815,-100.409 L -89.1489,-99.8406 L -89.3429,-99.2434
 L -89.4606,-98.6267 L -89.5,-98 L -89.5,-94 L -89.4606,-93.3733 L -89.3429,-92.7566 L -89.1489,-92.1594
 L -88.8815,-91.5912 L -88.5451,-91.0611 L -88.1448,-90.5773 L -87.6871,-90.1474 L -87.1791,-89.7784 L -86.6289,-89.4759
 L -86.0451,-89.2447 L -85.4369,-89.0886 L -84.8139,-89.0099 L 84.8139,-89.0099 z
M -22.6884,-93.0059 L -23.0621,-93.0531 L -23.427,-93.1468 L -23.7773,-93.2855 L -24.1075,-93.467 L -24.4123,-93.6885
 L -24.6869,-93.9464 L -24.927,-94.2366 L -25.1289,-94.5547 L -25.2893,-94.8956 L -25.4057,-95.2539 L -25.4763,-95.624
 L -25.5,-96 L -25.4763,-96.376 L -25.4057,-96.7461 L -25.2893,-97.1044 L -25.1289,-97.4453 L -24.927,-97.7634
 L -24.6869,-98.0536 L -24.4123,-98.3115 L -24.1075,-98.533 L -23.7773,-98.7145 L -23.427,-98.8532 L -23.0621,-98.9469
 L -22.6884,-98.9941 L -22.3116,-98.9941 L -21.9379,-98.9469 L -21.5729,-98.8532 L -21.2227,-98.7145 L -20.8925,-98.533
 L -20.5877,-98.3115 L -20.3131,-98.0536 L -20.0729,-97.7634 L -19.8711,-97.4453 L -19.7107,-97.1044 L -19.5942,-96.7461
 L -19.5237,-96.376 L -19.5,-96 L -19.5237,-95.624 L -19.5942,-95.2539 L -19.7107,-94.8956 L -19.8711,-94.5547
 L -20.0729,-94.2366 L -20.3131,-93.9464 L -20.5877,-93.6885 L -20.8925,-93.467 L -21.2227,-93.2855 L -21.5729,-93.1468
 L -21.9379,-93.0531 L -22.3116,-93.0059 z
M -52.6884,-93.0059 L -53.0621,-93.0531 L -53.427,-93.1468 L -53.7773,-93.2855 L -54.1075,-93.467 L -54.4123,-93.6885
 L -54.6869,-93.9464 L -54.927,-94.2366 L -55.1289,-94.5547 L -55.2893,-94.8956 L -55.4057,-95.2539 L -55.4763,-95.624
 L -55.5,-96 L -55.4763,-96.376 L -55.4057,-96.7461 L -55.2893,-97.1044 L -55.1289,-97.4453 L -54.927,-97.7634
 L -54.6869,-98.0536 L -54.4123,-98.3115 L -54.1075,-98.533 L -53.7773,-98.7145 L -53.427,-98.8532 L -53.0621,-98.9469
 L -52.6884,-98.9941 L -52.3116,-98.9941 L -51.9379,-98.9469 L -51.5729,-98.8532 L -51.2227,-98.7145 L -50.8925,-98.533
 L -50.5877,-98.3115 L -50.3131,-98.0536 L -50.0729,-97.7634 L -49.8711,-97.4453 L -49.7107,-97.1044 L -49.5942,-96.7461
 L -49.5237,-96.376 L -49.5,-96 L -49.5237,-95.624 L -49.5942,-95.2539 L -49.7107,-94.8956 L -49.8711,-94.5547
 L -50.0729,-94.2366 L -50.3131,-93.9464 L -50.5877,-93.6885 L -50.8925,-93.467 L -51.2227,-93.2855 L -51.5729,-93.1468
 L -51.9379,-93.0531 L -52.3116,-93.0059 z
M 22.3116,-93.0059 L 21.9379,-93.0531 L 21.5729,-93.1468 L 21.2227,-93.2855 L 20.8925,-93.467 L 20.5877,-93.6885
 L 20.3131,-93.9464 L 20.0729,-94.2366 L 19.8711,-94.5547 L 19.7107,-94.8956 L 19.5942,-95.2539 L 19.5237,-95.624
 L 19.5,-96 L 19.5237,-96.376 L 19.5942,-96.7461 L 19.7107,-97.1044 L 19.8711,-97.4453 L 20.0729,-97.7634
 L 20.3131,-98.0536 L 20.5877,-98.3115 L 20.8925,-98.533 L 21.2227,-98.7145 L 21.5729,-98.8532 L 21.9379,-98.9469
 L 22.3116,-98.9941 L 22.6884,-98.9941 L 23.0621,-98.9469 L 23.427,-98.8532 L 23.7773,-98.7145 L 24.1075,-98.533
 L 24.4123,-98.3115 L 24.6869,-98.0536 L 24.927,-97.7634 L 25.1289,-97.4453 L 25.2893,-97.1044 L 25.4057,-96.7461
 L 25.4763,-96.376 L 25.5,-96 L 25.4763,-95.624 L 25.4057,-95.2539 L 25.2893,-94.8956 L 25.1289,-94.5547
 L 24.927,-94.2366 L 24.6869,-93.9464 L 24.4123,-93.6885 L 24.1075,-93.467 L 23.7773,-93.2855 L 23.427,-93.1468
 L 23.0621,-93.0531 L 22.6884,-93.0059 z
M -37.6884,-93.0059 L -38.0621,-93.0531 L -38.427,-93.1468 L -38.7773,-93.2855 L -39.1075,-93.467 L -39.4123,-93.6885
 L -39.6869,-93.9464 L -39.927,-94.2366 L -40.1289,-94.5547 L -40.2893,-94.8956 L -40.4057,-95.2539 L -40.4763,-95.624
 L -40.5,-96 L -40.4763,-96.376 L -40.4057,-96.7461 L -40.2893,-97.1044 L -40.1289,-97.4453 L -39.927,-97.7634
 L -39.6869,-98.0536 L -39.4123,-98.3115 L -39.1075,-98.533 L -38.7773,-98.7145 L -38.427,-98.8532 L -38.0621,-98.9469
 L -37.6884,-98.9941 L -37.3116,-98.9941 L -36.9379,-98.9469 L -36.5729,-98.8532 L -36.2227,-98.7145 L -35.8925,-98.533
 L -35.5877,-98.3115 L -35.3131,-98.0536 L -35.0729,-97.7634 L -34.8711,-97.4453 L -34.7107,-97.1044 L -34.5942,-96.7461
 L -34.5237,-96.376 L -34.5,-96 L -34.5237,-95.624 L -34.5942,-95.2539 L -34.7107,-94.8956 L -34.8711,-94.5547
 L -35.0729,-94.2366 L -35.3131,-93.9464 L -35.5877,-93.6885 L -35.8925,-93.467 L -36.2227,-93.2855 L -36.5729,-93.1468
 L -36.9379,-93.0531 L -37.3116,-93.0059 z
M 52.3116,-93.0059 L 51.9379,-93.0531 L 51.5729,-93.1468 L 51.2227,-93.2855 L 50.8925,-93.467 L 50.5877,-93.6885
 L 50.3131,-93.9464 L 50.0729,-94.2366 L 49.8711,-94.5547 L 49.7107,-94.8956 L 49.5942,-95.2539 L 49.5237,-95.624
 L 49.5,-96 L 49.5237,-96.376 L 49.5942,-96.7461 L 49.7107,-97.1044 L 49.8711,-97.4453 L 50.0729,-97.7634
 L 50.3131,-98.0536 L 50.5877,-98.3115 L 50.8925,-98.533 L 51.2227,-98.7145 L 51.5729,-98.8532 L 51.9379,-98.9469
 L 52.3116,-98.9941 L 52.6884,-98.9941 L 53.0621,-98.9469 L 53.427,-98.8532 L 53.7773,-98.7145 L 54.1075,-98.533
 L 54.4123,-98.3115 L 54.6869,-98.0536 L 54.927,-97.7634 L 55.1289,-97.4453 L 55.2893,-97.1044 L 55.4057,-96.7461
 L 55.4763,-96.376 L 55.5,-96 L 55.4763,-95.624 L 55.4057,-95.2539 L 55.2893,-94.8956 L 55.1289,-94.5547
 L 54.927,-94.2366 L 54.6869,-93.9464 L 54.4123,-93.6885 L 54.1075,-93.467 L 53.7773,-93.2855 L 53.427,-93.1468
 L 53.0621,-93.0531 L 52.6884,-93.0059 z
M -82.6884,-93.0059 L -83.0621,-93.0531 L -83.427,-93.1468 L -83.7773,-93.2855 L -84.1075,-93.467 L -84.4123,-93.6885
 L -84.6869,-93.9464 L -84.927,-94.2366 L -85.1289,-94.5547 L -85.2893,-94.8956 L -85.4057,-95.2539 L -85.4763,-95.624
 L -85.5,-96 L -85.4763,-96.376 L -85.4057,-96.7461 L -85.2893,-97.1044 L -85.1289,-97.4453 L -84.927,-97.7634
 L -84.6869,-98.0536 L -84.4123,-98.3115 L -84.1075,-98.533 L -83.7773,-98.7145 L -83.427,-98.8532 L -83.0621,-98.9469
 L -82.6884,-98.9941 L -82.3116,-98.9941 L -81.9379,-98.9469 L -81.573,-98.8532 L -81.2227,-98.7145 L -80.8925,-98.533
 L -80.5877,-98.3115 L -80.3131,-98.0536 L -80.073,-97.7634 L -79.8711,-97.4453 L -79.7107,-97.1044 L -79.5943,-96.7461
 L -79.5237,-96.376 L -79.5,-96 L -79.5237,-95.624 L -79.5943,-95.2539 L -79.7107,-94.8956 L -79.8711,-94.5547
 L -80.073,-94.2366 L -80.3131,-93.9464 L -80.5877,-93.6885 L -80.8925,-93.467 L -81.2227,-93.2855 L -81.573,-93.1468
 L -81.9379,-93.0531 L -82.3116,-93.0059 z
M 37.3116,-93.0059 L 36.9379,-93.0531 L 36.5729,-93.1468 L 36.2227,-93.2855 L 35.8925,-93.467 L 35.5877,-93.6885
 L 35.3131,-93.9464 L 35.0729,-94.2366 L 34.8711,-94.5547 L 34.7107,-94.8956 L 34.5942,-95.2539 L 34.5237,-95.624
 L 34.5,-96 L 34.5237,-96.376 L 34.5942,-96.7461 L 34.7107,-97.1044 L 34.8711,-97.4453 L 35.0729,-97.7634
 L 35.3131,-98.0536 L 35.5877,-98.3115 L 35.8925,-98.533 L 36.2227,-98.7145 L 36.5729,-98.8532 L 36.9379,-98.9469
 L 37.3116,-98.9941 L 37.6884,-98.9941 L 38.0621,-98.9469 L 38.427,-98.8532 L 38.7773,-98.7145 L 39.1075,-98.533
 L 39.4123,-98.3115 L 39.6869,-98.0536 L 39.927,-97.7634 L 40.1289,-97.4453 L 40.2893,-97.1044 L 40.4057,-96.7461
 L 40.4763,-96.376 L 40.5,-96 L 40.4763,-95.624 L 40.4057,-95.2539 L 40.2893,-94.8956 L 40.1289,-94.5547
 L 39.927,-94.2366 L 39.6869,-93.9464 L 39.4123,-93.6885 L 39.1075,-93.467 L 38.7773,-93.2855 L 38.427,-93.1468
 L 38.0621,-93.0531 L 37.6884,-93.0059 z
M 7.31161,-93.0059 L 6.93785,-93.0531 L 6.57294,-93.1468 L 6.22266,-93.2855 L 5.89252,-93.467 L 5.58772,-93.6885
 L 5.31308,-93.9464 L 5.07294,-94.2366 L 4.87108,-94.5547 L 4.71066,-94.8956 L 4.59424,-95.2539 L 4.52365,-95.624
 L 4.5,-96 L 4.52365,-96.376 L 4.59424,-96.7461 L 4.71066,-97.1044 L 4.87108,-97.4453 L 5.07294,-97.7634
 L 5.31308,-98.0536 L 5.58772,-98.3115 L 5.89252,-98.533 L 6.22266,-98.7145 L 6.57294,-98.8532 L 6.93785,-98.9469
 L 7.31161,-98.9941 L 7.68837,-98.9941 L 8.06213,-98.9469 L 8.42705,-98.8532 L 8.77733,-98.7145 L 9.10747,-98.533
 L 9.41226,-98.3115 L 9.6869,-98.0536 L 9.92705,-97.7634 L 10.1289,-97.4453 L 10.2893,-97.1044 L 10.4057,-96.7461
 L 10.4763,-96.376 L 10.5,-96 L 10.4763,-95.624 L 10.4057,-95.2539 L 10.2893,-94.8956 L 10.1289,-94.5547
 L 9.92705,-94.2366 L 9.6869,-93.9464 L 9.41226,-93.6885 L 9.10747,-93.467 L 8.77733,-93.2855 L 8.42705,-93.1468
 L 8.06213,-93.0531 L 7.68837,-93.0059 z
M -67.6884,-93.0059 L -68.0621,-93.0531 L -68.427,-93.1468 L -68.7773,-93.2855 L -69.1075,-93.467 L -69.4123,-93.6885
 L -69.6869,-93.9464 L -69.927,-94.2366 L -70.1289,-94.5547 L -70.2893,-94.8956 L -70.4057,-95.2539 L -70.4763,-95.624
 L -70.5,-96 L -70.4763,-96.376 L -70.4057,-96.7461 L -70.2893,-97.1044 L -70.1289,-97.4453 L -69.927,-97.7634
 L -69.6869,-98.0536 L -69.4123,-98.3115 L -69.1075,-98.533 L -68.7773,-98.7145 L -68.427,-98.8532 L -68.0621,-98.9469
 L -67.6884,-98.9941 L -67.3116,-98.9941 L -66.9379,-98.9469 L -66.573,-98.8532 L -66.2227,-98.7145 L -65.8925,-98.533
 L -65.5877,-98.3115 L -65.3131,-98.0536 L -65.073,-97.7634 L -64.8711,-97.4453 L -64.7107,-97.1044 L -64.5943,-96.7461
 L -64.5237,-96.376 L -64.5,-96 L -64.5237,-95.624 L -64.5943,-95.2539 L -64.7107,-94.8956 L -64.8711,-94.5547
 L -65.073,-94.2366 L -65.3131,-93.9464 L -65.5877,-93.6885 L -65.8925,-93.467 L -66.2227,-93.2855 L -66.573,-93.1468
 L -66.9379,-93.0531 L -67.3116,-93.0059 z
M -7.68837,-93.0059 L -8.06213,-93.0531 L -8.42705,-93.1468 L -8.77733,-93.2855 L -9.10747,-93.467 L -9.41226,-93.6885
 L -9.6869,-93.9464 L -9.92705,-94.2366 L -10.1289,-94.5547 L -10.2893,-94.8956 L -10.4057,-95.2539 L -10.4763,-95.624
 L -10.5,-96 L -10.4763,-96.376 L -10.4057,-96.7461 L -10.2893,-97.1044 L -10.1289,-97.4453 L -9.92705,-97.7634
 L -9.6869,-98.0536 L -9.41226,-98.3115 L -9.10747,-98.533 L -8.77733,-98.7145 L -8.42705,-98.8532 L -8.06213,-98.9469
 L -7.68837,-98.9941 L -7.31161,-98.9941 L -6.93785,-98.9469 L -6.57294,-98.8532 L -6.22266,-98.7145 L -5.89252,-98.533
 L -5.58772,-98.3115 L -5.31308,-98.0536 L -5.07294,-97.7634 L -4.87108,-97.4453 L -4.71066,-97.1044 L -4.59424,-96.7461
 L -4.52365,-96.376 L -4.5,-96 L -4.52365,-95.624 L -4.59424,-95.2539 L -4.71066,-94.8956 L -4.87108,-94.5547
 L -5.07294,-94.2366 L -5.31308,-93.9464 L -5.58772,-93.6885 L -5.89252,-93.467 L -6.22266,-93.2855 L -6.57294,-93.1468
 L -6.93785,-93.0531 L -7.31161,-93.0059 z
M 82.3116,-93.0059 L 81.9379,-93.0531 L 81.573,-93.1468 L 81.2227,-93.2855 L 80.8925,-93.467 L 80.5877,-93.6885
 L 80.3131,-93.9464 L 80.073,-94.2366 L 79.8711,-94.5547 L 79.7107,-94.8956 L 79.5943,-95.2539 L 79.5237,-95.624
 L 79.5,-96 L 79.5237,-96.376 L 79.5943,-96.7461 L 79.7107,-97.1044 L 79.8711,-97.4453 L 80.073,-97.7634
 L 80.3131,-98.0536 L 80.5877,-98.3115 L 80.8925,-98.533 L 81.2227,-98.7145 L 81.573,-98.8532 L 81.9379,-98.9469
 L 82.3116,-98.9941 L 82.6884,-98.9941 L 83.0621,-98.9469 L 83.427,-98.8532 L 83.7773,-98.7145 L 84.1075,-98.533
 L 84.4123,-98.3115 L 84.6869,-98.0536 L 84.927,-97.7634 L 85.1289,-97.4453 L 85.2893,-97.1044 L 85.4057,-96.7461
 L 85.4763,-96.376 L 85.5,-96 L 85.4763,-95.624 L 85.4057,-95.2539 L 85.2893,-94.8956 L 85.1289,-94.5547
 L 84.927,-94.2366 L 84.6869,-93.9464 L 84.4123,-93.6885 L 84.1075,-93.467 L 83.7773,-93.2855 L 83.427,-93.1468
 L 83.0621,-93.0531 L 82.6884,-93.0059 z
M 67.3116,-93.0059 L 66.9379,-93.0531 L 66.573,-93.1468 L 66.2227,-93.2855 L 65.8925,-93.467 L 65.5877,-93.6885
 L 65.3131,-93.9464 L 65.073,-94.2366 L 64.8711,-94.5547 L 64.7107,-94.8956 L 64.5943,-95.2539 L 64.5237,-95.624
 L 64.5,-96 L 64.5237,-96.376 L 64.5943,-96.7461 L 64.7107,-97.1044 L 64.8711,-97.4453 L 65.073,-97.7634
 L 65.3131,-98.0536 L 65.5877,-98.3115 L 65.8925,-98.533 L 66.2227,-98.7145 L 66.573,-98.8532 L 66.9379,-98.9469
 L 67.3116,-98.9941 L 67.6884,-98.9941 L 68.0621,-98.9469 L 68.427,-98.8532 L 68.7773,-98.7145 L 69.1075,-98.533
 L 69.4123,-98.3115 L 69.6869,-98.0536 L 69.927,-97.7634 L 70.1289,-97.4453 L 70.2893,-97.1044 L 70.4057,-96.7461
 L 70.4763,-96.376 L 70.5,-96 L 70.4763,-95.624 L 70.4057,-95.2539 L 70.2893,-94.8956 L 70.1289,-94.5547
 L 69.927,-94.2366 L 69.6869,-93.9464 L 69.4123,-93.6885 L 69.1075,-93.467 L 68.7773,-93.2855 L 68.427,-93.1468
 L 68.0621,-93.0531 L 67.6884,-93.0059 z
M 74.9058,-94.503 L 74.7189,-94.5266 L 74.5365,-94.5734 L 74.3613,-94.6428 L 74.1963,-94.7335 L 74.0439,-94.8442
 L 73.9065,-94.9732 L 73.7865,-95.1183 L 73.6855,-95.2774 L 73.6053,-95.4478 L 73.5471,-95.627 L 73.5118,-95.812
 L 73.5,-96 L 73.5118,-96.188 L 73.5471,-96.373 L 73.6053,-96.5522 L 73.6855,-96.7226 L 73.7865,-96.8817
 L 73.9065,-97.0268 L 74.0439,-97.1558 L 74.1963,-97.2665 L 74.3613,-97.3572 L 74.5365,-97.4266 L 74.7189,-97.4734
 L 74.9058,-97.497 L 75.0942,-97.497 L 75.2811,-97.4734 L 75.4635,-97.4266 L 75.6387,-97.3572 L 75.8037,-97.2665
 L 75.9561,-97.1558 L 76.0934,-97.0268 L 76.2135,-96.8817 L 76.3145,-96.7226 L 76.3947,-96.5522 L 76.4529,-96.373
 L 76.4882,-96.188 L 76.5,-96 L 76.4882,-95.812 L 76.4529,-95.627 L 76.3947,-95.4478 L 76.3145,-95.2774
 L 76.2135,-95.1183 L 76.0934,-94.9732 L 75.9561,-94.8442 L 75.8037,-94.7335 L 75.6387,-94.6428 L 75.4635,-94.5734
 L 75.2811,-94.5266 L 75.0942,-94.503 z
M -30.0942,-94.503 L -30.2811,-94.5266 L -30.4635,-94.5734 L -30.6387,-94.6428 L -30.8037,-94.7335 L -30.9561,-94.8442
 L -31.0934,-94.9732 L -31.2135,-95.1183 L -31.3145,-95.2774 L -31.3947,-95.4478 L -31.4529,-95.627 L -31.4882,-95.812
 L -31.5,-96 L -31.4882,-96.188 L -31.4529,-96.373 L -31.3947,-96.5522 L -31.3145,-96.7226 L -31.2135,-96.8817
 L -31.0934,-97.0268 L -30.9561,-97.1558 L -30.8037,-97.2665 L -30.6387,-97.3572 L -30.4635,-97.4266 L -30.2811,-97.4734
 L -30.0942,-97.497 L -29.9058,-97.497 L -29.7189,-97.4734 L -29.5365,-97.4266 L -29.3613,-97.3572 L -29.1963,-97.2665
 L -29.0439,-97.1558 L -28.9065,-97.0268 L -28.7865,-96.8817 L -28.6855,-96.7226 L -28.6053,-96.5522 L -28.5471,-96.373
 L -28.5118,-96.188 L -28.5,-96 L -28.5118,-95.812 L -28.5471,-95.627 L -28.6053,-95.4478 L -28.6855,-95.2774
 L -28.7865,-95.1183 L -28.9065,-94.9732 L -29.0439,-94.8442 L -29.1963,-94.7335 L -29.3613,-94.6428 L -29.5365,-94.5734
 L -29.7189,-94.5266 L -29.9058,-94.503 z
M 59.9058,-94.503 L 59.7189,-94.5266 L 59.5365,-94.5734 L 59.3613,-94.6428 L 59.1963,-94.7335 L 59.0439,-94.8442
 L 58.9065,-94.9732 L 58.7865,-95.1183 L 58.6855,-95.2774 L 58.6053,-95.4478 L 58.5471,-95.627 L 58.5118,-95.812
 L 58.5,-96 L 58.5118,-96.188 L 58.5471,-96.373 L 58.6053,-96.5522 L 58.6855,-96.7226 L 58.7865,-96.8817
 L 58.9065,-97.0268 L 59.0439,-97.1558 L 59.1963,-97.2665 L 59.3613,-97.3572 L 59.5365,-97.4266 L 59.7189,-97.4734
 L 59.9058,-97.497 L 60.0942,-97.497 L 60.2811,-97.4734 L 60.4635,-97.4266 L 60.6387,-97.3572 L 60.8037,-97.2665
 L 60.9561,-97.1558 L 61.0934,-97.0268 L 61.2135,-96.8817 L 61.3145,-96.7226 L 61.3947,-96.5522 L 61.4529,-96.373
 L 61.4882,-96.188 L 61.5,-96 L 61.4882,-95.812 L 61.4529,-95.627 L 61.3947,-95.4478 L 61.3145,-95.2774
 L 61.2135,-95.1183 L 61.0934,-94.9732 L 60.9561,-94.8442 L 60.8037,-94.7335 L 60.6387,-94.6428 L 60.4635,-94.5734
 L 60.2811,-94.5266 L 60.0942,-94.503 z
M -75.0942,-94.503 L -75.2811,-94.5266 L -75.4635,-94.5734 L -75.6387,-94.6428 L -75.8037,-94.7335 L -75.9561,-94.8442
 L -76.0934,-94.9732 L -76.2135,-95.1183 L -76.3145,-95.2774 L -76.3947,-95.4478 L -76.4529,-95.627 L -76.4882,-95.812
 L -76.5,-96 L -76.4882,-96.188 L -76.4529,-96.373 L -76.3947,-96.5522 L -76.3145,-96.7226 L -76.2135,-96.8817
 L -76.0934,-97.0268 L -75.9561,-97.1558 L -75.8037,-97.2665 L -75.6387,-97.3572 L -75.4635,-97.4266 L -75.2811,-97.4734
 L -75.0942,-97.497 L -74.9058,-97.497 L -74.7189,-97.4734 L -74.5365,-97.4266 L -74.3613,-97.3572 L -74.1963,-97.2665
 L -74.0439,-97.1558 L -73.9065,-97.0268 L -73.7865,-96.8817 L -73.6855,-96.7226 L -73.6053,-96.5522 L -73.5471,-96.373
 L -73.5118,-96.188 L -73.5,-96 L -73.5118,-95.812 L -73.5471,-95.627 L -73.6053,-95.4478 L -73.6855,-95.2774
 L -73.7865,-95.1183 L -73.9065,-94.9732 L -74.0439,-94.8442 L -74.1963,-94.7335 L -74.3613,-94.6428 L -74.5365,-94.5734
 L -74.7189,-94.5266 L -74.9058,-94.503 z
M -45.0942,-94.503 L -45.2811,-94.5266 L -45.4635,-94.5734 L -45.6387,-94.6428 L -45.8037,-94.7335 L -45.9561,-94.8442
 L -46.0934,-94.9732 L -46.2135,-95.1183 L -46.3145,-95.2774 L -46.3947,-95.4478 L -46.4529,-95.627 L -46.4882,-95.812
 L -46.5,-96 L -46.4882,-96.188 L -46.4529,-96.373 L -46.3947,-96.5522 L -46.3145,-96.7226 L -46.2135,-96.8817
 L -46.0934,-97.0268 L -45.9561,-97.1558 L -45.8037,-97.2665 L -45.6387,-97.3572 L -45.4635,-97.4266 L -45.2811,-97.4734
 L -45.0942,-97.497 L -44.9058,-97.497 L -44.7189,-97.4734 L -44.5365,-97.4266 L -44.3613,-97.3572 L -44.1963,-97.2665
 L -44.0439,-97.1558 L -43.9065,-97.0268 L -43.7865,-96.8817 L -43.6855,-96.7226 L -43.6053,-96.5522 L -43.5471,-96.373
 L -43.5118,-96.188 L -43.5,-96 L -43.5118,-95.812 L -43.5471,-95.627 L -43.6053,-95.4478 L -43.6855,-95.2774
 L -43.7865,-95.1183 L -43.9065,-94.9732 L -44.0439,-94.8442 L -44.1963,-94.7335 L -44.3613,-94.6428 L -44.5365,-94.5734
 L -44.7189,-94.5266 L -44.9058,-94.503 z
M 44.9058,-94.503 L 44.7189,-94.5266 L 44.5365,-94.5734 L 44.3613,-94.6428 L 44.1963,-94.7335 L 44.0439,-94.8442
 L 43.9065,-94.9732 L 43.7865,-95.1183 L 43.6855,-95.2774 L 43.6053,-95.4478 L 43.5471,-95.627 L 43.5118,-95.812
 L 43.5,-96 L 43.5118,-96.188 L 43.5471,-96.373 L 43.6053,-96.5522 L 43.6855,-96.7226 L 43.7865,-96.8817
 L 43.9065,-97.0268 L 44.0439,-97.1558 L 44.1963,-97.2665 L 44.3613,-97.3572 L 44.5365,-97.4266 L 44.7189,-97.4734
 L 44.9058,-97.497 L 45.0942,-97.497 L 45.2811,-97.4734 L 45.4635,-97.4266 L 45.6387,-97.3572 L 45.8037,-97.2665
 L 45.9561,-97.1558 L 46.0934,-97.0268 L 46.2135,-96.8817 L 46.3145,-96.7226 L 46.3947,-96.5522 L 46.4529,-96.373
 L 46.4882,-96.188 L 46.5,-96 L 46.4882,-95.812 L 46.4529,-95.627 L 46.3947,-95.4478 L 46.3145,-95.2774
 L 46.2135,-95.1183 L 46.0934,-94.9732 L 45.9561,-94.8442 L 45.8037,-94.7335 L 45.6387,-94.6428 L 45.4635,-94.5734
 L 45.2811,-94.5266 L 45.0942,-94.503 z
M -0.0941772,-94.503 L -0.281067,-94.5266 L -0.463516,-94.5734 L -0.638657,-94.6428 L -0.803726,-94.7335 L -0.956131,-94.8442
 L -1.09344,-94.9732 L -1.21352,-95.1183 L -1.31445,-95.2774 L -1.39465,-95.4478 L -1.45287,-95.627 L -1.48816,-95.812
 L -1.5,-96 L -1.48816,-96.188 L -1.45287,-96.373 L -1.39465,-96.5522 L -1.31445,-96.7226 L -1.21352,-96.8817
 L -1.09344,-97.0268 L -0.956131,-97.1558 L -0.803726,-97.2665 L -0.638657,-97.3572 L -0.463516,-97.4266 L -0.281067,-97.4734
 L -0.0941772,-97.497 L 0.0941772,-97.497 L 0.281067,-97.4734 L 0.463516,-97.4266 L 0.638657,-97.3572 L 0.803726,-97.2665
 L 0.956131,-97.1558 L 1.09344,-97.0268 L 1.21352,-96.8817 L 1.31445,-96.7226 L 1.39465,-96.5522 L 1.45287,-96.373
 L 1.48816,-96.188 L 1.5,-96 L 1.48816,-95.812 L 1.45287,-95.627 L 1.39465,-95.4478 L 1.31445,-95.2774
 L 1.21352,-95.1183 L 1.09344,-94.9732 L 0.956131,-94.8442 L 0.803726,-94.7335 L 0.638657,-94.6428 L 0.463516,-94.5734
 L 0.281067,-94.5266 L 0.0941772,-94.503 z
M -15.0942,-94.503 L -15.2811,-94.5266 L -15.4635,-94.5734 L -15.6387,-94.6428 L -15.8037,-94.7335 L -15.9561,-94.8442
 L -16.0934,-94.9732 L -16.2135,-95.1183 L -16.3145,-95.2774 L -16.3947,-95.4478 L -16.4529,-95.627 L -16.4882,-95.812
 L -16.5,-96 L -16.4882,-96.188 L -16.4529,-96.373 L -16.3947,-96.5522 L -16.3145,-96.7226 L -16.2135,-96.8817
 L -16.0934,-97.0268 L -15.9561,-97.1558 L -15.8037,-97.2665 L -15.6387,-97.3572 L -15.4635,-97.4266 L -15.2811,-97.4734
 L -15.0942,-97.497 L -14.9058,-97.497 L -14.7189,-97.4734 L -14.5365,-97.4266 L -14.3613,-97.3572 L -14.1963,-97.2665
 L -14.0439,-97.1558 L -13.9065,-97.0268 L -13.7865,-96.8817 L -13.6855,-96.7226 L -13.6053,-96.5522 L -13.5471,-96.373
 L -13.5118,-96.188 L -13.5,-96 L -13.5118,-95.812 L -13.5471,-95.627 L -13.6053,-95.4478 L -13.6855,-95.2774
 L -13.7865,-95.1183 L -13.9065,-94.9732 L -14.0439,-94.8442 L -14.1963,-94.7335 L -14.3613,-94.6428 L -14.5365,-94.5734
 L -14.7189,-94.5266 L -14.9058,-94.503 z
M 14.9058,-94.503 L 14.7189,-94.5266 L 14.5365,-94.5734 L 14.3613,-94.6428 L 14.1963,-94.7335 L 14.0439,-94.8442
 L 13.9065,-94.9732 L 13.7865,-95.1183 L 13.6855,-95.2774 L 13.6053,-95.4478 L 13.5471,-95.627 L 13.5118,-95.812
 L 13.5,-96 L 13.5118,-96.188 L 13.5471,-96.373 L 13.6053,-96.5522 L 13.6855,-96.7226 L 13.7865,-96.8817
 L 13.9065,-97.0268 L 14.0439,-97.1558 L 14.1963,-97.2665 L 14.3613,-97.3572 L 14.5365,-97.4266 L 14.7189,-97.4734
 L 14.9058,-97.497 L 15.0942,-97.497 L 15.2811,-97.4734 L 15.4635,-97.4266 L 15.6387,-97.3572 L 15.8037,-97.2665
 L 15.9561,-97.1558 L 16.0934,-97.0268 L 16.2135,-96.8817 L 16.3145,-96.7226 L 16.3947,-96.5522 L 16.4529,-96.373
 L 16.4882,-96.188 L 16.5,-96 L 16.4882,-95.812 L 16.4529,-95.627 L 16.3947,-95.4478 L 16.3145,-95.2774
 L 16.2135,-95.1183 L 16.0934,-94.9732 L 15.9561,-94.8442 L 15.8037,-94.7335 L 15.6387,-94.6428 L 15.4635,-94.5734
 L 15.2811,-94.5266 L 15.0942,-94.503 z
M -60.0942,-94.503 L -60.2811,-94.5266 L -60.4635,-94.5734 L -60.6387,-94.6428 L -60.8037,-94.7335 L -60.9561,-94.8442
 L -61.0934,-94.9732 L -61.2135,-95.1183 L -61.3145,-95.2774 L -61.3947,-95.4478 L -61.4529,-95.627 L -61.4882,-95.812
 L -61.5,-96 L -61.4882,-96.188 L -61.4529,-96.373 L -61.3947,-96.5522 L -61.3145,-96.7226 L -61.2135,-96.8817
 L -61.0934,-97.0268 L -60.9561,-97.1558 L -60.8037,-97.2665 L -60.6387,-97.3572 L -60.4635,-97.4266 L -60.2811,-97.4734
 L -60.0942,-97.497 L -59.9058,-97.497 L -59.7189,-97.4734 L -59.5365,-97.4266 L -59.3613,-97.3572 L -59.1963,-97.2665
 L -59.0439,-97.1558 L -58.9065,-97.0268 L -58.7865,-96.8817 L -58.6855,-96.7226 L -58.6053,-96.5522 L -58.5471,-96.373
 L -58.5118,-96.188 L -58.5,-96 L -58.5118,-95.812 L -58.5471,-95.627 L -58.6053,-95.4478 L -58.6855,-95.2774
 L -58.7865,-95.1183 L -58.9065,-94.9732 L -59.0439,-94.8442 L -59.1963,-94.7335 L -59.3613,-94.6428 L -59.5365,-94.5734
 L -59.7189,-94.5266 L -59.9058,-94.503 z
M 29.9058,-94.503 L 29.7189,-94.5266 L 29.5365,-94.5734 L 29.3613,-94.6428 L 29.1963,-94.7335 L 29.0439,-94.8442
 L 28.9065,-94.9732 L 28.7865,-95.1183 L 28.6855,-95.2774 L 28.6053,-95.4478 L 28.5471,-95.627 L 28.5118,-95.812
 L 28.5,-96 L 28.5118,-96.188 L 28.5471,-96.373 L 28.6053,-96.5522 L 28.6855,-96.7226 L 28.7865,-96.8817
 L 28.9065,-97.0268 L 29.0439,-97.1558 L 29.1963,-97.2665 L 29.3613,-97.3572 L 29.5365,-97.4266 L 29.7189,-97.4734
 L 29.9058,-97.497 L 30.0942,-97.497 L 30.2811,-97.4734 L 30.4635,-97.4266 L 30.6387,-97.3572 L 30.8037,-97.2665
 L 30.9561,-97.1558 L 31.0934,-97.0268 L 31.2135,-96.8817 L 31.3145,-96.7226 L 31.3947,-96.5522 L 31.4529,-96.373
 L 31.4882,-96.188 L 31.5,-96 L 31.4882,-95.812 L 31.4529,-95.627 L 31.3947,-95.4478 L 31.3145,-95.2774
 L 31.2135,-95.1183 L 31.0934,-94.9732 L 30.9561,-94.8442 L 30.8037,-94.7335 L 30.6387,-94.6428 L 30.4635,-94.5734
 L 30.2811,-94.5266 L 30.0942,-94.503 z
M 85.4369,-65.0886 L 86.0451,-65.2447 L 86.6289,-65.4759 L 87.1791,-65.7784 L 87.6871,-66.1474 L 88.1448,-66.5773
 L 88.5451,-67.0611 L 88.8815,-67.5912 L 89.1489,-68.1594 L 89.3429,-68.7566 L 89.4606,-69.3733 L 89.5,-70
 L 89.5,-74 L 89.4606,-74.6267 L 89.3429,-75.2434 L 89.1489,-75.8406 L 88.8815,-76.4088 L 88.5451,-76.9389
 L 88.1448,-77.4227 L 87.6871,-77.8526 L 87.1791,-78.2216 L 86.6289,-78.5241 L 86.0451,-78.7553 L 85.4369,-78.9114
 L 84.8139,-78.9901 L -84.8139,-78.9901 L -85.4369,-78.9114 L -86.0451,-78.7553 L -86.6289,-78.5241 L -87.1791,-78.2216
 L -87.6871,-77.8526 L -88.1448,-77.4227 L -88.5451,-76.9389 L -88.8815,-76.4088 L -89.1489,-75.8406 L -89.3429,-75.2434
 L -89.4606,-74.6267 L -89.5,-74 L -89.5,-70 L -89.4606,-69.3733 L -89.3429,-68.7566 L -89.1489,-68.1594
 L -88.8815,-67.5912 L -88.5451,-67.0611 L -88.1448,-66.5773 L -87.6871,-66.1474 L -87.1791,-65.7784 L -86.6289,-65.4759
 L -86.0451,-65.2447 L -85.4369,-65.0886 L -84.8139,-65.0099 L 84.8139,-65.0099 z
M 52.3116,-69.0059 L 51.9379,-69.0531 L 51.5729,-69.1468 L 51.2227,-69.2855 L 50.8925,-69.467 L 50.5877,-69.6885
 L 50.3131,-69.9464 L 50.0729,-70.2366 L 49.8711,-70.5547 L 49.7107,-70.8956 L 49.5942,-71.2539 L 49.5237,-71.624
 L 49.5,-72 L 49.5237,-72.376 L 49.5942,-72.7461 L 49.7107,-73.1044 L 49.8711,-73.4453 L 50.0729,-73.7634
 L 50.3131,-74.0536 L 50.5877,-74.3115 L 50.8925,-74.533 L 51.2227,-74.7145 L 51.5729,-74.8532 L 51.9379,-74.9469
 L 52.3116,-74.9941 L 52.6884,-74.9941 L 53.0621,-74.9469 L 53.427,-74.8532 L 53.7773,-74.7145 L 54.1075,-74.533
 L 54.4123,-74.3115 L 54.6869,-74.0536 L 54.927,-73.7634 L 55.1289,-73.4453 L 55.2893,-73.1044 L 55.4057,-72.7461
 L 55.4763,-72.376 L 55.5,-72 L 55.4763,-71.624 L 55.4057,-71.2539 L 55.2893,-70.8956 L 55.1289,-70.5547
 L 54.927,-70.2366 L 54.6869,-69.9464 L 54.4123,-69.6885 L 54.1075,-69.467 L 53.7773,-69.2855 L 53.427,-69.1468
 L 53.0621,-69.0531 L 52.6884,-69.0059 z
M -37.6884,-69.0059 L -38.0621,-69.0531 L -38.427,-69.1468 L -38.7773,-69.2855 L -39.1075,-69.467 L -39.4123,-69.6885
 L -39.6869,-69.9464 L -39.927,-70.2366 L -40.1289,-70.5547 L -40.2893,-70.8956 L -40.4057,-71.2539 L -40.4763,-71.624
 L -40.5,-72 L -40.4763,-72.376 L -40.4057,-72.7461 L -40.2893,-73.1044 L -40.1289,-73.4453 L -39.927,-73.7634
 L -39.6869,-74.0536 L -39.4123,-74.3115 L -39.1075,-74.533 L -38.7773,-74.7145 L -38.427,-74.8532 L -38.0621,-74.9469
 L -37.6884,-74.9941 L -37.3116,-74.9941 L -36.9379,-74.9469 L -36.5729,-74.8532 L -36.2227,-74.7145 L -35.8925,-74.533
 L -35.5877,-74.3115 L -35.3131,-74.0536 L -35.0729,-73.7634 L -34.8711,-73.4453 L -34.7107,-73.1044 L -34.5942,-72.7461
 L -34.5237,-72.376 L -34.5,-72 L -34.5237,-71.624 L -34.5942,-71.2539 L -34.7107,-70.8956 L -34.8711,-70.5547
 L -35.0729,-70.2366 L -35.3131,-69.9464 L -35.5877,-69.6885 L -35.8925,-69.467 L -36.2227,-69.2855 L -36.5729,-69.1468
 L -36.9379,-69.0531 L -37.3116,-69.0059 z
M -7.68837,-69.0059 L -8.06213,-69.0531 L -8.42705,-69.1468 L -8.77733,-69.2855 L -9.10747,-69.467 L -9.41226,-69.6885
 L -9.6869,-69.9464 L -9.92705,-70.2366 L -10.1289,-70.5547 L -10.2893,-70.8956 L -10.4057,-71.2539 L -10.4763,-71.624
 L -10.5,-72 L -10.4763,-72.376 L -10.4057,-72.7461 L -10.2893,-73.1044 L -10.1289,-73.4453 L -9.92705,-73.7634
 L -9.6869,-74.0536 L -9.41226,-74.3115 L -9.10747,-74.533 L -8.77733,-74.7145 L -8.42705,-74.8532 L -8.06213,-74.9469
 L -7.68837,-74.9941 L -7.31161,-74.9941 L -6.93785,-74.9469 L -6.57294,-74.8532 L -6.22266,-74.7145 L -5.89252,-74.533
 L -5.58772,-74.3115 L -5.31308,-74.0536 L -5.07294,-73.7634 L -4.87108,-73.4453 L -4.71066,-73.1044 L -4.59424,-72.7461
 L -4.52365,-72.376 L -4.5,-72 L -4.52365,-71.624 L -4.59424,-71.2539 L -4.71066,-70.8956 L -4.87108,-70.5547
 L -5.07294,-70.2366 L -5.31308,-69.9464 L -5.58772,-69.6885 L -5.89252,-69.467 L -6.22266,-69.2855 L -6.57294,-69.1468
 L -6.93785,-69.0531 L -7.31161,-69.0059 z
M 7.31161,-69.0059 L 6.93785,-69.0531 L 6.57294,-69.1468 L 6.22266,-69.2855 L 5.89252,-69.467 L 5.58772,-69.6885
 L 5.31308,-69.9464 L 5.07294,-70.2366 L 4.87108,-70.5547 L 4.71066,-70.8956 L 4.59424,-71.2539 L 4.52365,-71.624
 L 4.5,-72 L 4.52365,-72.376 L 4.59424,-72.7461 L 4.71066,-73.1044 L 4.87108,-73.4453 L 5.07294,-73.7634
 L 5.31308,-74.0536 L 5.58772,-74.3115 L 5.89252,-74.533 L 6.22266,-74.7145 L 6.57294,-74.8532 L 6.93785,-74.9469
 L 7.31161,-74.9941 L 7.68837,-74.9941 L 8.06213,-74.9469 L 8.42705,-74.8532 L 8.77733,-74.7145 L 9.10747,-74.533
 L 9.41226,-74.3115 L 9.6869,-74.0536 L 9.92705,-73.7634 L 10.1289,-73.4453 L 10.2893,-73.1044 L 10.4057,-72.7461
 L 10.4763,-72.376 L 10.5,-72 L 10.4763,-71.624 L 10.4057,-71.2539 L 10.2893,-70.8956 L 10.1289,-70.5547
 L 9.92705,-70.2366 L 9.6869,-69.9464 L 9.41226,-69.6885 L 9.10747,-69.467 L 8.77733,-69.2855 L 8.42705,-69.1468
 L 8.06213,-69.0531 L 7.68837,-69.0059 z
M -82.6884,-69.0059 L -83.0621,-69.0531 L -83.427,-69.1468 L -83.7773,-69.2855 L -84.1075,-69.467 L -84.4123,-69.6885
 L -84.6869,-69.9464 L -84.927,-70.2366 L -85.1289,-70.5547 L -85.2893,-70.8956 L -85.4057,-71.2539 L -85.4763,-71.624
 L -85.5,-72 L -85.4763,-72.376 L -85.4057,-72.7461 L -85.2893,-73.1044 L -85.1289,-73.4453 L -84.927,-73.7634
 L -84.6869,-74.0536 L -84.4123,-74.3115 L -84.1075,-74.533 L -83.7773,-74.7145 L -83.427,-74.8532 L -83.0621,-74.9469
 L -82.6884,-74.9941 L -82.3116,-74.9941 L -81.9379,-74.9469 L -81.573,-74.8532 L -81.2227,-74.7145 L -80.8925,-74.533
 L -80.5877,-74.3115 L -80.3131,-74.0536 L -80.073,-73.7634 L -79.8711,-73.4453 L -79.7107,-73.1044 L -79.5943,-72.7461
 L -79.5237,-72.376 L -79.5,-72 L -79.5237,-71.624 L -79.5943,-71.2539 L -79.7107,-70.8956 L -79.8711,-70.5547
 L -80.073,-70.2366 L -80.3131,-69.9464 L -80.5877,-69.6885 L -80.8925,-69.467 L -81.2227,-69.2855 L -81.573,-69.1468
 L -81.9379,-69.0531 L -82.3116,-69.0059 z
M -22.6884,-69.0059 L -23.0621,-69.0531 L -23.427,-69.1468 L -23.7773,-69.2855 L -24.1075,-69.467 L -24.4123,-69.6885
 L -24.6869,-69.9464 L -24.927,-70.2366 L -25.1289,-70.5547 L -25.2893,-70.8956 L -25.4057,-71.2539 L -25.4763,-71.624
 L -25.5,-72 L -25.4763,-72.376 L -25.4057,-72.7461 L -25.2893,-73.1044 L -25.1289,-73.4453 L -24.927,-73.7634
 L -24.6869,-74.0536 L -24.4123,-74.3115 L -24.1075,-74.533 L -23.7773,-74.7145 L -23.427,-74.8532 L -23.0621,-74.9469
 L -22.6884,-74.9941 L -22.3116,-74.9941 L -21.9379,-74.9469 L -21.5729,-74.8532 L -21.2227,-74.7145 L -20.8925,-74.533
 L -20.5877,-74.3115 L -20.3131,-74.0536 L -20.0729,-73.7634 L -19.8711,-73.4453 L -19.7107,-73.1044 L -19.5942,-72.7461
 L -19.5237,-72.376 L -19.5,-72 L -19.5237,-71.624 L -19.5942,-71.2539 L -19.7107,-70.8956 L -19.8711,-70.5547
 L -20.0729,-70.2366 L -20.3131,-69.9464 L -20.5877,-69.6885 L -20.8925,-69.467 L -21.2227,-69.2855 L -21.5729,-69.1468
 L -21.9379,-69.0531 L -22.3116,-69.0059 z
M 82.3116,-69.0059 L 81.9379,-69.0531 L 81.573,-69.1468 L 81.2227,-69.2855 L 80.8925,-69.467 L 80.5877,-69.6885
 L 80.3131,-69.9464 L 80.073,-70.2366 L 79.8711,-70.5547 L 79.7107,-70.8956 L 79.5943,-71.2539 L 79.5237,-71.624
 L 79.5,-72 L 79.5237,-72.376 L 79.5943,-72.7461 L 79.7107,-73.1044 L 79.8711,-73.4453 L 80.073,-73.7634
 L 80.3131,-74.0536 L 80.5877,-74.3115 L 80.8925,-74.533 L 81.2227,-74.7145 L 81.573,-74.8532 L 81.9379,-74.9469
 L 82.3116,-74.9941 L 82.6884,-74.9941 L 83.0621,-74.9469 L 83.427,-74.8532 L 83.7773,-74.7145 L 84.1075,-74.533
 L 84.4123,-74.3115 L 84.6869,-74.0536 L 84.927,-73.7634 L 85.1289,-73.4453 L 85.2893,-73.1044 L 85.4057,-72.7461
 L 85.4763,-72.376 L 85.5,-72 L 85.4763,-71.624 L 85.4057,-71.2539 L 85.2893,-70.8956 L 85.1289,-70.5547
 L 84.927,-70.2366 L 84.6869,-69.9464 L 84.4123,-69.6885 L 84.1075,-69.467 L 83.7773,-69.2855 L 83.427,-69.1468
 L 83.0621,-69.0531 L 82.6884,-69.0059 z
M -52.6884,-69.0059 L -53.0621,-69.0531 L -53.427,-69.1468 L -53.7773,-69.2855 L -54.1075,-69.467 L -54.4123,-69.6885
 L -54.6869,-69.9464 L -54.927,-70.2366 L -55.1289,-70.5547 L -55.2893,-70.8956 L -55.4057,-71.2539 L -55.4763,-71.624
 L -55.5,-72 L -55.4763,-72.376 L -55.4057,-72.7461 L -55.2893,-73.1044 L -55.1289,-73.4453 L -54.927,-73.7634
 L -54.6869,-74.0536 L -54.4123,-74.3115 L -54.1075,-74.533 L -53.7773,-74.7145 L -53.427,-74.8532 L -53.0621,-74.9469
 L -52.6884,-74.9941 L -52.3116,-74.9941 L -51.9379,-74.9469 L -51.5729,-74.8532 L -51.2227,-74.7145 L -50.8925,-74.533
 L -50.5877,-74.3115 L -50.3131,-74.0536 L -50.0729,-73.7634 L -49.8711,-73.4453 L -49.7107,-73.1044 L -49.5942,-72.7461
 L -49.5237,-72.376 L -49.5,-72 L -49.5237,-71.624 L -49.5942,-71.2539 L -49.7107,-70.8956 L -49.8711,-70.5547
 L -50.0729,-70.2366 L -50.3131,-69.9464 L -50.5877,-69.6885 L -50.8925,-69.467 L -51.2227,-69.2855 L -51.5729,-69.1468
 L -51.9379,-69.0531 L -52.3116,-69.0059 z
M -67.6884,-69.0059 L -68.0621,-69.0531 L -68.427,-69.1468 L -68.7773,-69.2855 L -69.1075,-69.467 L -69.4123,-69.6885
 L -69.6869,-69.9464 L -69.927,-70.2366 L -70.1289,-70.5547 L -70.2893,-70.8956 L -70.4057,-71.2539 L -70.4763,-71.624
 L -70.5,-72 L -70.4763,-72.376 L -70.4057,-72.7461 L -70.2893,-73.1044 L -70.1289,-73.4453 L -69.927,-73.7634
 L -69.6869,-74.0536 L -69.4123,-74.3115 L -69.1075,-74.533 L -68.7773,-74.7145 L -68.427,-74.8532 L -68.0621,-74.9469
 L -67.6884,-74.9941 L -67.3116,-74.9941 L -66.9379,-74.9469 L -66.573,-74.8532 L -66.2227,-74.7145 L -65.8925,-74.533
 L -65.5877,-74.3115 L -65.3131,-74.0536 L -65.073,-73.7634 L -64.8711,-73.4453 L -64.7107,-73.1044 L -64.5943,-72.7461
 L -64.5237,-72.376 L -64.5,-72 L -64.5237,-71.624 L -64.5943,-71.2539 L -64.7107,-70.8956 L -64.8711,-70.5547
 L -65.073,-70.2366 L -65.3131,-69.9464 L -65.5877,-69.6885 L -65.8925,-69.467 L -66.2227,-69.2855 L -66.573,-69.1468
 L -66.9379,-69.0531 L -67.3116,-69.0059 z
M 22.3116,-69.0059 L 21.9379,-69.0531 L 21.5729,-69.1468 L 21.2227,-69.2855 L 20.8925,-69.467 L 20.5877,-69.6885
 L 20.3131,-69.9464 L 20.0729,-70.2366 L 19.8711,-70.5547 L 19.7107,-70.8956 L 19.5942,-71.2539 L 19.5237,-71.624
 L 19.5,-72 L 19.5237,-72.376 L 19.5942,-72.7461 L 19.7107,-73.1044 L 19.8711,-73.4453 L 20.0729,-73.7634
 L 20.3131,-74.0536 L 20.5877,-74.3115 L 20.8925,-74.533 L 21.2227,-74.7145 L 21.5729,-74.8532 L 21.9379,-74.9469
 L 22.3116,-74.9941 L 22.6884,-74.9941 L 23.0621,-74.9469 L 23.427,-74.8532 L 23.7773,-74.7145 L 24.1075,-74.533
 L 24.4123,-74.3115 L 24.6869,-74.0536 L 24.927,-73.7634 L 25.1289,-73.4453 L 25.2893,-73.1044 L 25.4057,-72.7461
 L 25.4763,-72.376 L 25.5,-72 L 25.4763,-71.624 L 25.4057,-71.2539 L 25.2893,-70.8956 L 25.1289,-70.5547
 L 24.927,-70.2366 L 24.6869,-69.9464 L 24.4123,-69.6885 L 24.1075,-69.467 L 23.7773,-69.2855 L 23.427,-69.1468
 L 23.0621,-69.0531 L 22.6884,-69.0059 z
M 37.3116,-69.0059 L 36.9379,-69.0531 L 36.5729,-69.1468 L 36.2227,-69.2855 L 35.8925,-69.467 L 35.5877,-69.6885
 L 35.3131,-69.9464 L 35.0729,-70.2366 L 34.8711,-70.5547 L 34.7107,-70.8956 L 34.5942,-71.2539 L 34.5237,-71.624
 L 34.5,-72 L 34.5237,-72.376 L 34.5942,-72.7461 L 34.7107,-73.1044 L 34.8711,-73.4453 L 35.0729,-73.7634
 L 35.3131,-74.0536 L 35.5877,-74.3115 L 35.8925,-74.533 L 36.2227,-74.7145 L 36.5729,-74.8532 L 36.9379,-74.9469
 L 37.3116,-74.9941 L 37.6884,-74.9941 L 38.0621,-74.9469 L 38.427,-74.8532 L 38.7773,-74.7145 L 39.1075,-74.533
 L 39.4123,-74.3115 L 39.6869,-74.0536 L 39.927,-73.7634 L 40.1289,-73.4453 L 40.2893,-73.1044 L 40.4057,-72.7461
 L 40.4763,-72.376 L 40.5,-72 L 40.4763,-71.624 L 40.4057,-71.2539 L 40.2893,-70.8956 L 40.1289,-70.5547
 L 39.927,-70.2366 L 39.6869,-69.9464 L 39.4123,-69.6885 L 39.1075,-69.467 L 38.7773,-69.2855 L 38.427,-69.1468
 L 38.0621,-69.0531 L 37.6884,-69.0059 z
M 67.3116,-69.0059 L 66.9379,-69.0531 L 66.573,-69.1468 L 66.2227,-69.2855 L 65.8925,-69.467 L 65.5877,-69.6885
 L 65.3131,-69.9464 L 65.073,-70.2366 L 64.8711,-70.5547 L 64.7107,-70.8956 L 64.5943,-71.2539 L 64.5237,-71.624
 L 64.5,-72 L 64.5237,-72.376 L 64.5943,-72.7461 L 64.7107,-73.1044 L 64.8711,-73.4453 L 65.073,-73.7634
 L 65.3131,-74.0536 L 65.5877,-74.3115 L 65.8925,-74.533 L 66.2227,-74.7145 L 66.573,-74.8532 L 66.9379,-74.9469
 L 67.3116,-74.9941 L 67.6884,-74.9941 L 68.0621,-74.9469 L 68.427,-74.8532 L 68.7773,-74.7145 L 69.1075,-74.533
 L 69.4123,-74.3115 L 69.6869,-74.0536 L 69.927,-73.7634 L 70.1289,-73.4453 L 70.2893,-73.1044 L 70.4057,-72.7461
 L 70.4763,-72.376 L 70.5,-72 L 70.4763,-71.624 L 70.4057,-71.2539 L 70.2893,-70.8956 L 70.1289,-70.5547
 L 69.927,-70.2366 L 69.6869,-69.9464 L 69.4123,-69.6885 L 69.1075,-69.467 L 68.7773,-69.2855 L 68.427,-69.1468
 L 68.0621,-69.0531 L 67.6884,-69.0059 z
M 29.9058,-70.503 L 29.7189,-70.5266 L 29.5365,-70.5734 L 29.3613,-70.6428 L 29.1963,-70.7335 L 29.0439,-70.8442
 L 28.9065,-70.9732 L 28.7865,-71.1183 L 28.6855,-71.2774 L 28.6053,-71.4478 L 28.5471,-71.627 L 28.5118,-71.812
 L 28.5,-72 L 28.5118,-72.188 L 28.5471,-72.373 L 28.6053,-72.5522 L 28.6855,-72.7226 L 28.7865,-72.8817
 L 28.9065,-73.0268 L 29.0439,-73.1558 L 29.1963,-73.2665 L 29.3613,-73.3572 L 29.5365,-73.4266 L 29.7189,-73.4734
 L 29.9058,-73.497 L 30.0942,-73.497 L 30.2811,-73.4734 L 30.4635,-73.4266 L 30.6387,-73.3572 L 30.8037,-73.2665
 L 30.9561,-73.1558 L 31.0934,-73.0268 L 31.2135,-72.8817 L 31.3145,-72.7226 L 31.3947,-72.5522 L 31.4529,-72.373
 L 31.4882,-72.188 L 31.5,-72 L 31.4882,-71.812 L 31.4529,-71.627 L 31.3947,-71.4478 L 31.3145,-71.2774
 L 31.2135,-71.1183 L 31.0934,-70.9732 L 30.9561,-70.8442 L 30.8037,-70.7335 L 30.6387,-70.6428 L 30.4635,-70.5734
 L 30.2811,-70.5266 L 30.0942,-70.503 z
M -0.0941772,-70.503 L -0.281067,-70.5266 L -0.463516,-70.5734 L -0.638657,-70.6428 L -0.803726,-70.7335 L -0.956131,-70.8442
 L -1.09344,-70.9732 L -1.21352,-71.1183 L -1.31445,-71.2774 L -1.39465,-71.4478 L -1.45287,-71.627 L -1.48816,-71.812
 L -1.5,-72 L -1.48816,-72.188 L -1.45287,-72.373 L -1.39465,-72.5522 L -1.31445,-72.7226 L -1.21352,-72.8817
 L -1.09344,-73.0268 L -0.956131,-73.1558 L -0.803726,-73.2665 L -0.638657,-73.3572 L -0.463516,-73.4266 L -0.281067,-73.4734
 L -0.0941772,-73.497 L 0.0941772,-73.497 L 0.281067,-73.4734 L 0.463516,-73.4266 L 0.638657,-73.3572 L 0.803726,-73.2665
 L 0.956131,-73.1558 L 1.09344,-73.0268 L 1.21352,-72.8817 L 1.31445,-72.7226 L 1.39465,-72.5522 L 1.45287,-72.373
 L 1.48816,-72.188 L 1.5,-72 L 1.48816,-71.812 L 1.45287,-71.627 L 1.39465,-71.4478 L 1.31445,-71.2774
 L 1.21352,-71.1183 L 1.09344,-70.9732 L 0.956131,-70.8442 L 0.803726,-70.7335 L 0.638657,-70.6428 L 0.463516,-70.5734
 L 0.281067,-70.5266 L 0.0941772,-70.503 z
M 44.9058,-70.503 L 44.7189,-70.5266 L 44.5365,-70.5734 L 44.3613,-70.6428 L 44.1963,-70.7335 L 44.0439,-70.8442
 L 43.9065,-70.9732 L 43.7865,-71.1183 L 43.6855,-71.2774 L 43.6053,-71.4478 L 43.5471,-71.627 L 43.5118,-71.812
 L 43.5,-72 L 43.5118,-72.188 L 43.5471,-72.373 L 43.6053,-72.5522 L 43.6855,-72.7226 L 43.7865,-72.8817
 L 43.9065,-73.0268 L 44.0439,-73.1558 L 44.1963,-73.2665 L 44.3613,-73.3572 L 44.5365,-73.4266 L 44.7189,-73.4734
 L 44.9058,-73.497 L 45.0942,-73.497 L 45.2811,-73.4734 L 45.4635,-73.4266 L 45.6387,-73.3572 L 45.8037,-73.2665
 L 45.9561,-73.1558 L 46.0934,-73.0268 L 46.2135,-72.8817 L 46.3145,-72.7226 L 46.3947,-72.5522 L 46.4529,-72.373
 L 46.4882,-72.188 L 46.5,-72 L 46.4882,-71.812 L 46.4529,-71.627 L 46.3947,-71.4478 L 46.3145,-71.2774
 L 46.2135,-71.1183 L 46.0934,-70.9732 L 45.9561,-70.8442 L 45.8037,-70.7335 L 45.6387,-70.6428 L 45.4635,-70.5734
 L 45.2811,-70.5266 L 45.0942,-70.503 z
M -15.0942,-70.503 L -15.2811,-70.5266 L -15.4635,-70.5734 L -15.6387,-70.6428 L -15.8037,-70.7335 L -15.9561,-70.8442
 L -16.0934,-70.9732 L -16.2135,-71.1183 L -16.3145,-71.2774 L -16.3947,-71.4478 L -16.4529,-71.627 L -16.4882,-71.812
 L -16.5,-72 L -16.4882,-72.188 L -16.4529,-72.373 L -16.3947,-72.5522 L -16.3145,-72.7226 L -16.2135,-72.8817
 L -16.0934,-73.0268 L -15.9561,-73.1558 L -15.8037,-73.2665 L -15.6387,-73.3572 L -15.4635,-73.4266 L -15.2811,-73.4734
 L -15.0942,-73.497 L -14.9058,-73.497 L -14.7189,-73.4734 L -14.5365,-73.4266 L -14.3613,-73.3572 L -14.1963,-73.2665
 L -14.0439,-73.1558 L -13.9065,-73.0268 L -13.7865,-72.8817 L -13.6855,-72.7226 L -13.6053,-72.5522 L -13.5471,-72.373
 L -13.5118,-72.188 L -13.5,-72 L -13.5118,-71.812 L -13.5471,-71.627 L -13.6053,-71.4478 L -13.6855,-71.2774
 L -13.7865,-71.1183 L -13.9065,-70.9732 L -14.0439,-70.8442 L -14.1963,-70.7335 L -14.3613,-70.6428 L -14.5365,-70.5734
 L -14.7189,-70.5266 L -14.9058,-70.503 z
M -75.0942,-70.503 L -75.2811,-70.5266 L -75.4635,-70.5734 L -75.6387,-70.6428 L -75.8037,-70.7335 L -75.9561,-70.8442
 L -76.0934,-70.9732 L -76.2135,-71.1183 L -76.3145,-71.2774 L -76.3947,-71.4478 L -76.4529,-71.627 L -76.4882,-71.812
 L -76.5,-72 L -76.4882,-72.188 L -76.4529,-72.373 L -76.3947,-72.5522 L -76.3145,-72.7226 L -76.2135,-72.8817
 L -76.0934,-73.0268 L -75.9561,-73.1558 L -75.8037,-73.2665 L -75.6387,-73.3572 L -75.4635,-73.4266 L -75.2811,-73.4734
 L -75.0942,-73.497 L -74.9058,-73.497 L -74.7189,-73.4734 L -74.5365,-73.4266 L -74.3613,-73.3572 L -74.1963,-73.2665
 L -74.0439,-73.1558 L -73.9065,-73.0268 L -73.7865,-72.8817 L -73.6855,-72.7226 L -73.6053,-72.5522 L -73.5471,-72.373
 L -73.5118,-72.188 L -73.5,-72 L -73.5118,-71.812 L -73.5471,-71.627 L -73.6053,-71.4478 L -73.6855,-71.2774
 L -73.7865,-71.1183 L -73.9065,-70.9732 L -74.0439,-70.8442 L -74.1963,-70.7335 L -74.3613,-70.6428 L -74.5365,-70.5734
 L -74.7189,-70.5266 L -74.9058,-70.503 z
M -45.0942,-70.503 L -45.2811,-70.5266 L -45.4635,-70.5734 L -45.6387,-70.6428 L -45.8037,-70.7335 L -45.9561,-70.8442
 L -46.0934,-70.9732 L -46.2135,-71.1183 L -46.3145,-71.2774 L -46.3947,-71.4478 L -46.4529,-71.627 L -46.4882,-71.812
 L -46.5,-72 L -46.4882,-72.188 L -46.4529,-72.373 L -46.3947,-72.5522 L -46.3145,-72.7226 L -46.2135,-72.8817
 L -46.0934,-73.0268 L -45.9561,-73.1558 L -45.8037,-73.2665 L -45.6387,-73.3572 L -45.4635,-73.4266 L -45.2811,-73.4734
 L -45.0942,-73.497 L -44.9058,-73.497 L -44.7189,-73.4734 L -44.5365,-73.4266 L -44.3613,-73.3572 L -44.1963,-73.2665
 L -44.0439,-73.1558 L -43.9065,-73.0268 L -43.7865,-72.8817 L -43.6855,-72.7226 L -43.6053,-72.5522 L -43.5471,-72.373
 L -43.5118,-72.188 L -43.5,-72 L -43.5118,-71.812 L -43.5471,-71.627 L -43.6053,-71.4478 L -43.6855,-71.2774
 L -43.7865,-71.1183 L -43.9065,-70.9732 L -44.0439,-70.8442 L -44.1963,-70.7335 L -44.3613,-70.6428 L -44.5365,-70.5734
 L -44.7189,-70.5266 L -44.9058,-70.503 z
M 14.9058,-70.503 L 14.7189,-70.5266 L 14.5365,-70.5734 L 14.3613,-70.6428 L 14.1963,-70.7335 L 14.0439,-70.8442
 L 13.9065,-70.9732 L 13.7865,-71.1183 L 13.6855,-71.2774 L 13.6053,-71.4478 L 13.5471,-71.627 L 13.5118,-71.812
 L 13.5,-72 L 13.5118,-72.188 L 13.5471,-72.373 L 13.6053,-72.5522 L 13.6855,-72.7226 L 13.7865,-72.8817
 L 13.9065,-73.0268 L 14.0439,-73.1558 L 14.1963,-73.2665 L 14.3613,-73.3572 L 14.5365,-73.4266 L 14.7189,-73.4734
 L 14.9058,-73.497 L 15.0942,-73.497 L 15.2811,-73.4734 L 15.4635,-73.4266 L 15.6387,-73.3572 L 15.8037,-73.2665
 L 15.9561,-73.1558 L 16.0934,-73.0268 L 16.2135,-72.8817 L 16.3145,-72.7226 L 16.3947,-72.5522 L 16.4529,-72.373
 L 16.4882,-72.188 L 16.5,-72 L 16.4882,-71.812 L 16.4529,-71.627 L 16.3947,-71.4478 L 16.3145,-71.2774
 L 16.2135,-71.1183 L 16.0934,-70.9732 L 15.9561,-70.8442 L 15.8037,-70.7335 L 15.6387,-70.6428 L 15.4635,-70.5734
 L 15.2811,-70.5266 L 15.0942,-70.503 z
M -60.0942,-70.503 L -60.2811,-70.5266 L -60.4635,-70.5734 L -60.6387,-70.6428 L -60.8037,-70.7335 L -60.9561,-70.8442
 L -61.0934,-70.9732 L -61.2135,-71.1183 L -61.3145,-71.2774 L -61.3947,-71.4478 L -61.4529,-71.627 L -61.4882,-71.812
 L -61.5,-72 L -61.4882,-72.188 L -61.4529,-72.373 L -61.3947,-72.5522 L -61.3145,-72.7226 L -61.2135,-72.8817
 L -61.0934,-73.0268 L -60.9561,-73.1558 L -60.8037,-73.2665 L -60.6387,-73.3572 L -60.4635,-73.4266 L -60.2811,-73.4734
 L -60.0942,-73.497 L -59.9058,-73.497 L -59.7189,-73.4734 L -59.5365,-73.4266 L -59.3613,-73.3572 L -59.1963,-73.2665
 L -59.0439,-73.1558 L -58.9065,-73.0268 L -58.7865,-72.8817 L -58.6855,-72.7226 L -58.6053,-72.5522 L -58.5471,-72.373
 L -58.5118,-72.188 L -58.5,-72 L -58.5118,-71.812 L -58.5471,-71.627 L -58.6053,-71.4478 L -58.6855,-71.2774
 L -58.7865,-71.1183 L -58.9065,-70.9732 L -59.0439,-70.8442 L -59.1963,-70.7335 L -59.3613,-70.6428 L -59.5365,-70.5734
 L -59.7189,-70.5266 L -59.9058,-70.503 z
M -30.0942,-70.503 L -30.2811,-70.5266 L -30.4635,-70.5734 L -30.6387,-70.6428 L -30.8037,-70.7335 L -30.9561,-70.8442
 L -31.0934,-70.9732 L -31.2135,-71.1183 L -31.3145,-71.2774 L -31.3947,-71.4478 L -31.4529,-71.627 L -31.4882,-71.812
 L -31.5,-72 L -31.4882,-72.188 L -31.4529,-72.373 L -31.3947,-72.5522 L -31.3145,-72.7226 L -31.2135,-72.8817
 L -31.0934,-73.0268 L -30.9561,-73.1558 L -30.8037,-73.2665 L -30.6387,-73.3572 L -30.4635,-73.4266 L -30.2811,-73.4734
 L -30.0942,-73.497 L -29.9058,-73.497 L -29.7189,-73.4734 L -29.5365,-73.4266 L -29.3613,-73.3572 L -29.1963,-73.2665
 L -29.0439,-73.1558 L -28.9065,-73.0268 L -28.7865,-72.8817 L -28.6855,-72.7226 L -28.6053,-72.5522 L -28.5471,-72.373
 L -28.5118,-72.188 L -28.5,-72 L -28.5118,-71.812 L -28.5471,-71.627 L -28.6053,-71.4478 L -28.6855,-71.2774
 L -28.7865,-71.1183 L -28.9065,-70.9732 L -29.0439,-70.8442 L -29.1963,-70.7335 L -29.3613,-70.6428 L -29.5365,-70.5734
 L -29.7189,-70.5266 L -29.9058,-70.503 z
M 74.9058,-70.503 L 74.7189,-70.5266 L 74.5365,-70.5734 L 74.3613,-70.6428 L 74.1963,-70.7335 L 74.0439,-70.8442
 L 73.9065,-70.9732 L 73.7865,-71.1183 L 73.6855,-71.2774 L 73.6053,-71.4478 L 73.5471,-71.627 L 73.5118,-71.812
 L 73.5,-72 L 73.5118,-72.188 L 73.5471,-72.373 L 73.6053,-72.5522 L 73.6855,-72.7226 L 73.7865,-72.8817
 L 73.9065,-73.0268 L 74.0439,-73.1558 L 74.1963,-73.2665 L 74.3613,-73.3572 L 74.5365,-73.4266 L 74.7189,-73.4734
 L 74.9058,-73.497 L 75.0942,-73.497 L 75.2811,-73.4734 L 75.4635,-73.4266 L 75.6387,-73.3572 L 75.8037,-73.2665
 L 75.9561,-73.1558 L 76.0934,-73.0268 L 76.2135,-72.8817 L 76.3145,-72.7226 L 76.3947,-72.5522 L 76.4529,-72.373
 L 76.4882,-72.188 L 76.5,-72 L 76.4882,-71.812 L 76.4529,-71.627 L 76.3947,-71.4478 L 76.3145,-71.2774
 L 76.2135,-71.1183 L 76.0934,-70.9732 L 75.9561,-70.8442 L 75.8037,-70.7335 L 75.6387,-70.6428 L 75.4635,-70.5734
 L 75.2811,-70.5266 L 75.0942,-70.503 z
M 59.9058,-70.503 L 59.7189,-70.5266 L 59.5365,-70.5734 L 59.3613,-70.6428 L 59.1963,-70.7335 L 59.0439,-70.8442
 L 58.9065,-70.9732 L 58.7865,-71.1183 L 58.6855,-71.2774 L 58.6053,-71.4478 L 58.5471,-71.627 L 58.5118,-71.812
 L 58.5,-72 L 58.5118,-72.188 L 58.5471,-72.373 L 58.6053,-72.5522 L 58.6855,-72.7226 L 58.7865,-72.8817
 L 58.9065,-73.0268 L 59.0439,-73.1558 L 59.1963,-73.2665 L 59.3613,-73.3572 L 59.5365,-73.4266 L 59.7189,-73.4734
 L 59.9058,-73.497 L 60.0942,-73.497 L 60.2811,-73.4734 L 60.4635,-73.4266 L 60.6387,-73.3572 L 60.8037,-73.2665
 L 60.9561,-73.1558 L 61.0934,-73.0268 L 61.2135,-72.8817 L 61.3145,-72.7226 L 61.3947,-72.5522 L 61.4529,-72.373
 L 61.4882,-72.188 L 61.5,-72 L 61.4882,-71.812 L 61.4529,-71.627 L 61.3947,-71.4478 L 61.3145,-71.2774
 L 61.2135,-71.1183 L 61.0934,-70.9732 L 60.9561,-70.8442 L 60.8037,-70.7335 L 60.6387,-70.6428 L 60.4635,-70.5734
 L 60.2811,-70.5266 L 60.0942,-70.503 z
" stroke="black" fill="lightgray" stroke-width="0.5"/>
</svg>
