<?xml version="1.0" standalone="no"?>
<!DOCTYPE svg PUBLIC "-//W3C//DTD SVG 1.1//EN" "http://www.w3.org/Graphics/SVG/1.1/DTD/svg11.dtd">
<svg width="150mm" height="4626mm" viewBox="-75 -9111 150 4626" xmlns="http://www.w3.org/2000/svg" version="1.1">
<title>OpenSCAD Model</title>
<path d="
M 70.9369,-8811.09 L 71.5451,-8811.24 L 72.1289,-8811.48 L 72.6791,-8811.78 L 73.1871,-8812.15 L 73.6448,-8812.58
 L 74.0451,-8813.06 L 74.3815,-8813.59 L 74.6489,-8814.16 L 74.8429,-8814.76 L 74.9606,-8815.37 L 75,-8816
 L 75,-9106 L 74.9606,-9106.63 L 74.8429,-9107.24 L 74.6489,-9107.84 L 74.3815,-9108.41 L 74.0451,-9108.94
 L 73.6448,-9109.42 L 73.1871,-9109.85 L 72.6791,-9110.22 L 72.1289,-9110.52 L 71.5451,-9110.76 L 70.9369,-9110.91
 L 70.3139,-9110.99 L -70.3139,-9110.99 L -70.9369,-9110.91 L -71.5451,-9110.76 L -72.1289,-9110.52 L -72.6791,-9110.22
 L -73.1871,-9109.85 L -73.6448,-9109.42 L -74.0451,-9108.94 L -74.3815,-9108.41 L -74.6489,-9107.84 L -74.8429,-9107.24
 L -74.9606,-9106.63 L -75,-9106 L -75,-8816 L -74.9606,-8815.37 L -74.8429,-8814.76 L -74.6489,-8814.16
 L -74.3815,-8813.59 L -74.0451,-8813.06 L -73.6448,-8812.58 L -73.1871,-8812.15 L -72.6791,-8811.78 L -72.1289,-8811.48
 L -71.5451,-8811.24 L -70.9369,-8811.09 L -70.3139,-8811.01 L 70.3139,-8811.01 z
M -69.7512,-8812.51 L -70.2495,-8812.57 L -70.7361,-8812.7 L -71.2031,-8812.88 L -71.6433,-8813.12 L -72.0497,-8813.42
 L -72.4159,-8813.76 L -72.7361,-8814.15 L -73.0052,-8814.57 L -73.2191,-8815.03 L -73.3743,-8815.51 L -73.4685,-8816
 L -73.5,-8816.5 L -73.5,-9105.5 L -73.4685,-9106 L -73.3743,-9106.49 L -73.2191,-9106.97 L -73.0052,-9107.43
 L -72.7361,-9107.85 L -72.4159,-9108.24 L -72.0497,-9108.58 L -71.6433,-9108.88 L -71.2031,-9109.12 L -70.7361,-9109.3
 L -70.2495,-9109.43 L -69.7512,-9109.49 L 69.7512,-9109.49 L 70.2495,-9109.43 L 70.7361,-9109.3 L 71.2031,-9109.12
 L 71.6433,-9108.88 L 72.0497,-9108.58 L 72.4159,-9108.24 L 72.7361,-9107.85 L 73.0052,-9107.43 L 73.2191,-9106.97
 L 73.3743,-9106.49 L 73.4685,-9106 L 73.5,-9105.5 L 73.5,-8816.5 L 73.4685,-8816 L 73.3743,-8815.51
 L 73.2191,-8815.03 L 73.0052,-8814.57 L 72.7361,-8814.15 L 72.4159,-8813.76 L 72.0497,-8813.42 L 71.6433,-8813.12
 L 71.2031,-8812.88 L 70.7361,-8812.7 L 70.2495,-8812.57 L 69.7512,-8812.51 z
M 70.9369,-8502.09 L 71.5451,-8502.24 L 72.1289,-8502.48 L 72.6791,-8502.78 L 73.1871,-8503.15 L 73.6448,-8503.58
 L 74.0451,-8504.06 L 74.3815,-8504.59 L 74.6489,-8505.16 L 74.8429,-8505.76 L 74.9606,-8506.37 L 75,-8507
 L 75,-8797 L 74.9606,-8797.63 L 74.8429,-8798.24 L 74.6489,-8798.84 L 74.3815,-8799.41 L 74.0451,-8799.94
 L 73.6448,-8800.42 L 73.1871,-8800.85 L 72.6791,-8801.22 L 72.1289,-8801.52 L 71.5451,-8801.76 L 70.9369,-8801.91
 L 70.3139,-8801.99 L -70.3139,-8801.99 L -70.9369,-8801.91 L -71.5451,-8801.76 L -72.1289,-8801.52 L -72.6791,-8801.22
 L -73.1871,-8800.85 L -73.6448,-8800.42 L -74.0451,-8799.94 L -74.3815,-8799.41 L -74.6489,-8798.84 L -74.8429,-8798.24
 L -74.9606,-8797.63 L -75,-8797 L -75,-8507 L -74.9606,-8506.37 L -74.8429,-8505.76 L -74.6489,-8505.16
 L -74.3815,-8504.59 L -74.0451,-8504.06 L -73.6448,-8503.58 L -73.1871,-8503.15 L -72.6791,-8502.78 L -72.1289,-8502.48
 L -71.5451,-8502.24 L -70.9369,-8502.09 L -70.3139,-8502.01 L 70.3139,-8502.01 z
M -69.7512,-8503.51 L -70.2495,-8503.57 L -70.7361,-8503.7 L -71.2031,-8503.88 L -71.6433,-8504.12 L -72.0497,-8504.42
 L -72.4159,-8504.76 L -72.7361,-8505.15 L -73.0052,-8505.57 L -73.2191,-8506.03 L -73.3743,-8506.51 L -73.4685,-8507
 L -73.5,-8507.5 L -73.5,-8796.5 L -73.4685,-8797 L -73.3743,-8797.49 L -73.2191,-8797.97 L -73.0052,-8798.43
 L -72.7361,-8798.85 L -72.4159,-8799.24 L -72.0497,-8799.58 L -71.6433,-8799.88 L -71.2031,-8800.12 L -70.7361,-8800.3
 L -70.2495,-8800.43 L -69.7512,-8800.49 L 69.7512,-8800.49 L 70.2495,-8800.43 L 70.7361,-8800.3 L 71.2031,-8800.12
 L 71.6433,-8799.88 L 72.0497,-8799.58 L 72.4159,-8799.24 L 72.7361,-8798.85 L 73.0052,-8798.43 L 73.2191,-8797.97
 L 73.3743,-8797.49 L 73.4685,-8797 L 73.5,-8796.5 L 73.5,-8507.5 L 73.4685,-8507 L 73.3743,-8506.51
 L 73.2191,-8506.03 L 73.0052,-8505.57 L 72.7361,-8505.15 L 72.4159,-8504.76 L 72.0497,-8504.42 L 71.6433,-8504.12
 L 71.2031,-8503.88 L 70.7361,-8503.7 L 70.2495,-8503.57 L 69.7512,-8503.51 z
M 70.9369,-8193.09 L 71.5451,-8193.24 L 72.1289,-8193.48 L 72.6791,-8193.78 L 73.1871,-8194.15 L 73.6448,-8194.58
 L 74.0451,-8195.06 L 74.3815,-8195.59 L 74.6489,-8196.16 L 74.8429,-8196.76 L 74.9606,-8197.37 L 75,-8198
 L 75,-8488 L 74.9606,-8488.63 L 74.8429,-8489.24 L 74.6489,-8489.84 L 74.3815,-8490.41 L 74.0451,-8490.94
 L 73.6448,-8491.42 L 73.1871,-8491.85 L 72.6791,-8492.22 L 72.1289,-8492.52 L 71.5451,-8492.76 L 70.9369,-8492.91
 L 70.3139,-8492.99 L -70.3139,-8492.99 L -70.9369,-8492.91 L -71.5451,-8492.76 L -72.1289,-8492.52 L -72.6791,-8492.22
 L -73.1871,-8491.85 L -73.6448,-8491.42 L -74.0451,-8490.94 L -74.3815,-8490.41 L -74.6489,-8489.84 L -74.8429,-8489.24
 L -74.9606,-8488.63 L -75,-8488 L -75,-8198 L -74.9606,-8197.37 L -74.8429,-8196.76 L -74.6489,-8196.16
 L -74.3815,-8195.59 L -74.0451,-8195.06 L -73.6448,-8194.58 L -73.1871,-8194.15 L -72.6791,-8193.78 L -72.1289,-8193.48
 L -71.5451,-8193.24 L -70.9369,-8193.09 L -70.3139,-8193.01 L 70.3139,-8193.01 z
M -69.7512,-8194.51 L -70.2495,-8194.57 L -70.7361,-8194.7 L -71.2031,-8194.88 L -71.6433,-8195.12 L -72.0497,-8195.42
 L -72.4159,-8195.76 L -72.7361,-8196.15 L -73.0052,-8196.57 L -73.2191,-8197.03 L -73.3743,-8197.51 L -73.4685,-8198
 L -73.5,-8198.5 L -73.5,-8487.5 L -73.4685,-8488 L -73.3743,-8488.49 L -73.2191,-8488.97 L -73.0052,-8489.43
 L -72.7361,-8489.85 L -72.4159,-8490.24 L -72.0497,-8490.58 L -71.6433,-8490.88 L -71.2031,-8491.12 L -70.7361,-8491.3
 L -70.2495,-8491.43 L -69.7512,-8491.49 L 69.7512,-8491.49 L 70.2495,-8491.43 L 70.7361,-8491.3 L 71.2031,-8491.12
 L 71.6433,-8490.88 L 72.0497,-8490.58 L 72.4159,-8490.24 L 72.7361,-8489.85 L 73.0052,-8489.43 L 73.2191,-8488.97
 L 73.3743,-8488.49 L 73.4685,-8488 L 73.5,-8487.5 L 73.5,-8198.5 L 73.4685,-8198 L 73.3743,-8197.51
 L 73.2191,-8197.03 L 73.0052,-8196.57 L 72.7361,-8196.15 L 72.4159,-8195.76 L 72.0497,-8195.42 L 71.6433,-8195.12
 L 71.2031,-8194.88 L 70.7361,-8194.7 L 70.2495,-8194.57 L 69.7512,-8194.51 z
M 70.9369,-7884.09 L 71.5451,-7884.24 L 72.1289,-7884.48 L 72.6791,-7884.78 L 73.1871,-7885.15 L 73.6448,-7885.58
 L 74.0451,-7886.06 L 74.3815,-7886.59 L 74.6489,-7887.16 L 74.8429,-7887.76 L 74.9606,-7888.37 L 75,-7889
 L 75,-8179 L 74.9606,-8179.63 L 74.8429,-8180.24 L 74.6489,-8180.84 L 74.3815,-8181.41 L 74.0451,-8181.94
 L 73.6448,-8182.42 L 73.1871,-8182.85 L 72.6791,-8183.22 L 72.1289,-8183.52 L 71.5451,-8183.76 L 70.9369,-8183.91
 L 70.3139,-8183.99 L -70.3139,-8183.99 L -70.9369,-8183.91 L -71.5451,-8183.76 L -72.1289,-8183.52 L -72.6791,-8183.22
 L -73.1871,-8182.85 L -73.6448,-8182.42 L -74.0451,-8181.94 L -74.3815,-8181.41 L -74.6489,-8180.84 L -74.8429,-8180.24
 L -74.9606,-8179.63 L -75,-8179 L -75,-7889 L -74.9606,-7888.37 L -74.8429,-7887.76 L -74.6489,-7887.16
 L -74.3815,-7886.59 L -74.0451,-7886.06 L -73.6448,-7885.58 L -73.1871,-7885.15 L -72.6791,-7884.78 L -72.1289,-7884.48
 L -71.5451,-7884.24 L -70.9369,-7884.09 L -70.3139,-7884.01 L 70.3139,-7884.01 z
M -69.7512,-7885.51 L -70.2495,-7885.57 L -70.7361,-7885.7 L -71.2031,-7885.88 L -71.6433,-7886.12 L -72.0497,-7886.42
 L -72.4159,-7886.76 L -72.7361,-7887.15 L -73.0052,-7887.57 L -73.2191,-7888.03 L -73.3743,-7888.51 L -73.4685,-7889
 L -73.5,-7889.5 L -73.5,-8178.5 L -73.4685,-8179 L -73.3743,-8179.49 L -73.2191,-8179.97 L -73.0052,-8180.43
 L -72.7361,-8180.85 L -72.4159,-8181.24 L -72.0497,-8181.58 L -71.6433,-8181.88 L -71.2031,-8182.12 L -70.7361,-8182.3
 L -70.2495,-8182.43 L -69.7512,-8182.49 L 69.7512,-8182.49 L 70.2495,-8182.43 L 70.7361,-8182.3 L 71.2031,-8182.12
 L 71.6433,-8181.88 L 72.0497,-8181.58 L 72.4159,-8181.24 L 72.7361,-8180.85 L 73.0052,-8180.43 L 73.2191,-8179.97
 L 73.3743,-8179.49 L 73.4685,-8179 L 73.5,-8178.5 L 73.5,-7889.5 L 73.4685,-7889 L 73.3743,-7888.51
 L 73.2191,-7888.03 L 73.0052,-7887.57 L 72.7361,-7887.15 L 72.4159,-7886.76 L 72.0497,-7886.42 L 71.6433,-7886.12
 L 71.2031,-7885.88 L 70.7361,-7885.7 L 70.2495,-7885.57 L 69.7512,-7885.51 z
M 70.9369,-7575.09 L 71.5451,-7575.24 L 72.1289,-7575.48 L 72.6791,-7575.78 L 73.1871,-7576.15 L 73.6448,-7576.58
 L 74.0451,-7577.06 L 74.3815,-7577.59 L 74.6489,-7578.16 L 74.8429,-7578.76 L 74.9606,-7579.37 L 75,-7580
 L 75,-7870 L 74.9606,-7870.63 L 74.8429,-7871.24 L 74.6489,-7871.84 L 74.3815,-7872.41 L 74.0451,-7872.94
 L 73.6448,-7873.42 L 73.1871,-7873.85 L 72.6791,-7874.22 L 72.1289,-7874.52 L 71.5451,-7874.76 L 70.9369,-7874.91
 L 70.3139,-7874.99 L -70.3139,-7874.99 L -70.9369,-7874.91 L -71.5451,-7874.76 L -72.1289,-7874.52 L -72.6791,-7874.22
 L -73.1871,-7873.85 L -73.6448,-7873.42 L -74.0451,-7872.94 L -74.3815,-7872.41 L -74.6489,-7871.84 L -74.8429,-7871.24
 L -74.9606,-7870.63 L -75,-7870 L -75,-7580 L -74.9606,-7579.37 L -74.8429,-7578.76 L -74.6489,-7578.16
 L -74.3815,-7577.59 L -74.0451,-7577.06 L -73.6448,-7576.58 L -73.1871,-7576.15 L -72.6791,-7575.78 L -72.1289,-7575.48
 L -71.5451,-7575.24 L -70.9369,-7575.09 L -70.3139,-7575.01 L 70.3139,-7575.01 z
M -69.7512,-7576.51 L -70.2495,-7576.57 L -70.7361,-7576.7 L -71.2031,-7576.88 L -71.6433,-7577.12 L -72.0497,-7577.42
 L -72.4159,-7577.76 L -72.7361,-7578.15 L -73.0052,-7578.57 L -73.2191,-7579.03 L -73.3743,-7579.51 L -73.4685,-7580
 L -73.5,-7580.5 L -73.5,-7869.5 L -73.4685,-7870 L -73.3743,-7870.49 L -73.2191,-7870.97 L -73.0052,-7871.43
 L -72.7361,-7871.85 L -72.4159,-7872.24 L -72.0497,-7872.58 L -71.6433,-7872.88 L -71.2031,-7873.12 L -70.7361,-7873.3
 L -70.2495,-7873.43 L -69.7512,-7873.49 L 69.7512,-7873.49 L 70.2495,-7873.43 L 70.7361,-7873.3 L 71.2031,-7873.12
 L 71.6433,-7872.88 L 72.0497,-7872.58 L 72.4159,-7872.24 L 72.7361,-7871.85 L 73.0052,-7871.43 L 73.2191,-7870.97
 L 73.3743,-7870.49 L 73.4685,-7870 L 73.5,-7869.5 L 73.5,-7580.5 L 73.4685,-7580 L 73.3743,-7579.51
 L 73.2191,-7579.03 L 73.0052,-7578.57 L 72.7361,-7578.15 L 72.4159,-7577.76 L 72.0497,-7577.42 L 71.6433,-7577.12
 L 71.2031,-7576.88 L 70.7361,-7576.7 L 70.2495,-7576.57 L 69.7512,-7576.51 z
M 70.9369,-7266.09 L 71.5451,-7266.24 L 72.1289,-7266.48 L 72.6791,-7266.78 L 73.1871,-7267.15 L 73.6448,-7267.58
 L 74.0451,-7268.06 L 74.3815,-7268.59 L 74.6489,-7269.16 L 74.8429,-7269.76 L 74.9606,-7270.37 L 75,-7271
 L 75,-7561 L 74.9606,-7561.63 L 74.8429,-7562.24 L 74.6489,-7562.84 L 74.3815,-7563.41 L 74.0451,-7563.94
 L 73.6448,-7564.42 L 73.1871,-7564.85 L 72.6791,-7565.22 L 72.1289,-7565.52 L 71.5451,-7565.76 L 70.9369,-7565.91
 L 70.3139,-7565.99 L -70.3139,-7565.99 L -70.9369,-7565.91 L -71.5451,-7565.76 L -72.1289,-7565.52 L -72.6791,-7565.22
 L -73.1871,-7564.85 L -73.6448,-7564.42 L -74.0451,-7563.94 L -74.3815,-7563.41 L -74.6489,-7562.84 L -74.8429,-7562.24
 L -74.9606,-7561.63 L -75,-7561 L -75,-7271 L -74.9606,-7270.37 L -74.8429,-7269.76 L -74.6489,-7269.16
 L -74.3815,-7268.59 L -74.0451,-7268.06 L -73.6448,-7267.58 L -73.1871,-7267.15 L -72.6791,-7266.78 L -72.1289,-7266.48
 L -71.5451,-7266.24 L -70.9369,-7266.09 L -70.3139,-7266.01 L 70.3139,-7266.01 z
M -69.7512,-7267.51 L -70.2495,-7267.57 L -70.7361,-7267.7 L -71.2031,-7267.88 L -71.6433,-7268.12 L -72.0497,-7268.42
 L -72.4159,-7268.76 L -72.7361,-7269.15 L -73.0052,-7269.57 L -73.2191,-7270.03 L -73.3743,-7270.51 L -73.4685,-7271
 L -73.5,-7271.5 L -73.5,-7560.5 L -73.4685,-7561 L -73.3743,-7561.49 L -73.2191,-7561.97 L -73.0052,-7562.43
 L -72.7361,-7562.85 L -72.4159,-7563.24 L -72.0497,-7563.58 L -71.6433,-7563.88 L -71.2031,-7564.12 L -70.7361,-7564.3
 L -70.2495,-7564.43 L -69.7512,-7564.49 L 69.7512,-7564.49 L 70.2495,-7564.43 L 70.7361,-7564.3 L 71.2031,-7564.12
 L 71.6433,-7563.88 L 72.0497,-7563.58 L 72.4159,-7563.24 L 72.7361,-7562.85 L 73.0052,-7562.43 L 73.2191,-7561.97
 L 73.3743,-7561.49 L 73.4685,-7561 L 73.5,-7560.5 L 73.5,-7271.5 L 73.4685,-7271 L 73.3743,-7270.51
 L 73.2191,-7270.03 L 73.0052,-7269.57 L 72.7361,-7269.15 L 72.4159,-7268.76 L 72.0497,-7268.42 L 71.6433,-7268.12
 L 71.2031,-7267.88 L 70.7361,-7267.7 L 70.2495,-7267.57 L 69.7512,-7267.51 z
M 70.9369,-6957.09 L 71.5451,-6957.24 L 72.1289,-6957.48 L 72.6791,-6957.78 L 73.1871,-6958.15 L 73.6448,-6958.58
 L 74.0451,-6959.06 L 74.3815,-6959.59 L 74.6489,-6960.16 L 74.8429,-6960.76 L 74.9606,-6961.37 L 75,-6962
 L 75,-7252 L 74.9606,-7252.63 L 74.8429,-7253.24 L 74.6489,-7253.84 L 74.3815,-7254.41 L 74.0451,-7254.94
 L 73.6448,-7255.42 L 73.1871,-7255.85 L 72.6791,-7256.22 L 72.1289,-7256.52 L 71.5451,-7256.76 L 70.9369,-7256.91
 L 70.3139,-7256.99 L -70.3139,-7256.99 L -70.9369,-7256.91 L -71.5451,-7256.76 L -72.1289,-7256.52 L -72.6791,-7256.22
 L -73.1871,-7255.85 L -73.6448,-7255.42 L -74.0451,-7254.94 L -74.3815,-7254.41 L -74.6489,-7253.84 L -74.8429,-7253.24
 L -74.9606,-7252.63 L -75,-7252 L -75,-6962 L -74.9606,-6961.37 L -74.8429,-6960.76 L -74.6489,-6960.16
 L -74.3815,-6959.59 L -74.0451,-6959.06 L -73.6448,-6958.58 L -73.1871,-6958.15 L -72.6791,-6957.78 L -72.1289,-6957.48
 L -71.5451,-6957.24 L -70.9369,-6957.09 L -70.3139,-6957.01 L 70.3139,-6957.01 z
M -69.7512,-6958.51 L -70.2495,-6958.57 L -70.7361,-6958.7 L -71.2031,-6958.88 L -71.6433,-6959.12 L -72.0497,-6959.42
 L -72.4159,-6959.76 L -72.7361,-6960.15 L -73.0052,-6960.57 L -73.2191,-6961.03 L -73.3743,-6961.51 L -73.4685,-6962
 L -73.5,-6962.5 L -73.5,-7251.5 L -73.4685,-7252 L -73.3743,-7252.49 L -73.2191,-7252.97 L -73.0052,-7253.43
 L -72.7361,-7253.85 L -72.4159,-7254.24 L -72.0497,-7254.58 L -71.6433,-7254.88 L -71.2031,-7255.12 L -70.7361,-7255.3
 L -70.2495,-7255.43 L -69.7512,-7255.49 L 69.7512,-7255.49 L 70.2495,-7255.43 L 70.7361,-7255.3 L 71.2031,-7255.12
 L 71.6433,-7254.88 L 72.0497,-7254.58 L 72.4159,-7254.24 L 72.7361,-7253.85 L 73.0052,-7253.43 L 73.2191,-7252.97
 L 73.3743,-7252.49 L 73.4685,-7252 L 73.5,-7251.5 L 73.5,-6962.5 L 73.4685,-6962 L 73.3743,-6961.51
 L 73.2191,-6961.03 L 73.0052,-6960.57 L 72.7361,-6960.15 L 72.4159,-6959.76 L 72.0497,-6959.42 L 71.6433,-6959.12
 L 71.2031,-6958.88 L 70.7361,-6958.7 L 70.2495,-6958.57 L 69.7512,-6958.51 z
M 70.9369,-6648.09 L 71.5451,-6648.24 L 72.1289,-6648.48 L 72.6791,-6648.78 L 73.1871,-6649.15 L 73.6448,-6649.58
 L 74.0451,-6650.06 L 74.3815,-6650.59 L 74.6489,-6651.16 L 74.8429,-6651.76 L 74.9606,-6652.37 L 75,-6653
 L 75,-6943 L 74.9606,-6943.63 L 74.8429,-6944.24 L 74.6489,-6944.84 L 74.3815,-6945.41 L 74.0451,-6945.94
 L 73.6448,-6946.42 L 73.1871,-6946.85 L 72.6791,-6947.22 L 72.1289,-6947.52 L 71.5451,-6947.76 L 70.9369,-6947.91
 L 70.3139,-6947.99 L -70.3139,-6947.99 L -70.9369,-6947.91 L -71.5451,-6947.76 L -72.1289,-6947.52 L -72.6791,-6947.22
 L -73.1871,-6946.85 L -73.6448,-6946.42 L -74.0451,-6945.94 L -74.3815,-6945.41 L -74.6489,-6944.84 L -74.8429,-6944.24
 L -74.9606,-6943.63 L -75,-6943 L -75,-6653 L -74.9606,-6652.37 L -74.8429,-6651.76 L -74.6489,-6651.16
 L -74.3815,-6650.59 L -74.0451,-6650.06 L -73.6448,-6649.58 L -73.1871,-6649.15 L -72.6791,-6648.78 L -72.1289,-6648.48
 L -71.5451,-6648.24 L -70.9369,-6648.09 L -70.3139,-6648.01 L 70.3139,-6648.01 z
M -69.7512,-6649.51 L -70.2495,-6649.57 L -70.7361,-6649.7 L -71.2031,-6649.88 L -71.6433,-6650.12 L -72.0497,-6650.42
 L -72.4159,-6650.76 L -72.7361,-6651.15 L -73.0052,-6651.57 L -73.2191,-6652.03 L -73.3743,-6652.51 L -73.4685,-6653
 L -73.5,-6653.5 L -73.5,-6942.5 L -73.4685,-6943 L -73.3743,-6943.49 L -73.2191,-6943.97 L -73.0052,-6944.43
 L -72.7361,-6944.85 L -72.4159,-6945.24 L -72.0497,-6945.58 L -71.6433,-6945.88 L -71.2031,-6946.12 L -70.7361,-6946.3
 L -70.2495,-6946.43 L -69.7512,-6946.49 L 69.7512,-6946.49 L 70.2495,-6946.43 L 70.7361,-6946.3 L 71.2031,-6946.12
 L 71.6433,-6945.88 L 72.0497,-6945.58 L 72.4159,-6945.24 L 72.7361,-6944.85 L 73.0052,-6944.43 L 73.2191,-6943.97
 L 73.3743,-6943.49 L 73.4685,-6943 L 73.5,-6942.5 L 73.5,-6653.5 L 73.4685,-6653 L 73.3743,-6652.51
 L 73.2191,-6652.03 L 73.0052,-6651.57 L 72.7361,-6651.15 L 72.4159,-6650.76 L 72.0497,-6650.42 L 71.6433,-6650.12
 L 71.2031,-6649.88 L 70.7361,-6649.7 L 70.2495,-6649.57 L 69.7512,-6649.51 z
M 70.9369,-6339.09 L 71.5451,-6339.24 L 72.1289,-6339.48 L 72.6791,-6339.78 L 73.1871,-6340.15 L 73.6448,-6340.58
 L 74.0451,-6341.06 L 74.3815,-6341.59 L 74.6489,-6342.16 L 74.8429,-6342.76 L 74.9606,-6343.37 L 75,-6344
 L 75,-6634 L 74.9606,-6634.63 L 74.8429,-6635.24 L 74.6489,-6635.84 L 74.3815,-6636.41 L 74.0451,-6636.94
 L 73.6448,-6637.42 L 73.1871,-6637.85 L 72.6791,-6638.22 L 72.1289,-6638.52 L 71.5451,-6638.76 L 70.9369,-6638.91
 L 70.3139,-6638.99 L -70.3139,-6638.99 L -70.9369,-6638.91 L -71.5451,-6638.76 L -72.1289,-6638.52 L -72.6791,-6638.22
 L -73.1871,-6637.85 L -73.6448,-6637.42 L -74.0451,-6636.94 L -74.3815,-6636.41 L -74.6489,-6635.84 L -74.8429,-6635.24
 L -74.9606,-6634.63 L -75,-6634 L -75,-6344 L -74.9606,-6343.37 L -74.8429,-6342.76 L -74.6489,-6342.16
 L -74.3815,-6341.59 L -74.0451,-6341.06 L -73.6448,-6340.58 L -73.1871,-6340.15 L -72.6791,-6339.78 L -72.1289,-6339.48
 L -71.5451,-6339.24 L -70.9369,-6339.09 L -70.3139,-6339.01 L 70.3139,-6339.01 z
M -69.7512,-6340.51 L -70.2495,-6340.57 L -70.7361,-6340.7 L -71.2031,-6340.88 L -71.6433,-6341.12 L -72.0497,-6341.42
 L -72.4159,-6341.76 L -72.7361,-6342.15 L -73.0052,-6342.57 L -73.2191,-6343.03 L -73.3743,-6343.51 L -73.4685,-6344
 L -73.5,-6344.5 L -73.5,-6633.5 L -73.4685,-6634 L -73.3743,-6634.49 L -73.2191,-6634.97 L -73.0052,-6635.43
 L -72.7361,-6635.85 L -72.4159,-6636.24 L -72.0497,-6636.58 L -71.6433,-6636.88 L -71.2031,-6637.12 L -70.7361,-6637.3
 L -70.2495,-6637.43 L -69.7512,-6637.49 L 69.7512,-6637.49 L 70.2495,-6637.43 L 70.7361,-6637.3 L 71.2031,-6637.12
 L 71.6433,-6636.88 L 72.0497,-6636.58 L 72.4159,-6636.24 L 72.7361,-6635.85 L 73.0052,-6635.43 L 73.2191,-6634.97
 L 73.3743,-6634.49 L 73.4685,-6634 L 73.5,-6633.5 L 73.5,-6344.5 L 73.4685,-6344 L 73.3743,-6343.51
 L 73.2191,-6343.03 L 73.0052,-6342.57 L 72.7361,-6342.15 L 72.4159,-6341.76 L 72.0497,-6341.42 L 71.6433,-6341.12
 L 71.2031,-6340.88 L 70.7361,-6340.7 L 70.2495,-6340.57 L 69.7512,-6340.51 z
M 70.9369,-6030.09 L 71.5451,-6030.24 L 72.1289,-6030.48 L 72.6791,-6030.78 L 73.1871,-6031.15 L 73.6448,-6031.58
 L 74.0451,-6032.06 L 74.3815,-6032.59 L 74.6489,-6033.16 L 74.8429,-6033.76 L 74.9606,-6034.37 L 75,-6035
 L 75,-6325 L 74.9606,-6325.63 L 74.8429,-6326.24 L 74.6489,-6326.84 L 74.3815,-6327.41 L 74.0451,-6327.94
 L 73.6448,-6328.42 L 73.1871,-6328.85 L 72.6791,-6329.22 L 72.1289,-6329.52 L 71.5451,-6329.76 L 70.9369,-6329.91
 L 70.3139,-6329.99 L -70.3139,-6329.99 L -70.9369,-6329.91 L -71.5451,-6329.76 L -72.1289,-6329.52 L -72.6791,-6329.22
 L -73.1871,-6328.85 L -73.6448,-6328.42 L -74.0451,-6327.94 L -74.3815,-6327.41 L -74.6489,-6326.84 L -74.8429,-6326.24
 L -74.9606,-6325.63 L -75,-6325 L -75,-6035 L -74.9606,-6034.37 L -74.8429,-6033.76 L -74.6489,-6033.16
 L -74.3815,-6032.59 L -74.0451,-6032.06 L -73.6448,-6031.58 L -73.1871,-6031.15 L -72.6791,-6030.78 L -72.1289,-6030.48
 L -71.5451,-6030.24 L -70.9369,-6030.09 L -70.3139,-6030.01 L 70.3139,-6030.01 z
M -69.7512,-6031.51 L -70.2495,-6031.57 L -70.7361,-6031.7 L -71.2031,-6031.88 L -71.6433,-6032.12 L -72.0497,-6032.42
 L -72.4159,-6032.76 L -72.7361,-6033.15 L -73.0052,-6033.57 L -73.2191,-6034.03 L -73.3743,-6034.51 L -73.4685,-6035
 L -73.5,-6035.5 L -73.5,-6324.5 L -73.4685,-6325 L -73.3743,-6325.49 L -73.2191,-6325.97 L -73.0052,-6326.43
 L -72.7361,-6326.85 L -72.4159,-6327.24 L -72.0497,-6327.58 L -71.6433,-6327.88 L -71.2031,-6328.12 L -70.7361,-6328.3
 L -70.2495,-6328.43 L -69.7512,-6328.49 L 69.7512,-6328.49 L 70.2495,-6328.43 L 70.7361,-6328.3 L 71.2031,-6328.12
 L 71.6433,-6327.88 L 72.0497,-6327.58 L 72.4159,-6327.24 L 72.7361,-6326.85 L 73.0052,-6326.43 L 73.2191,-6325.97
 L 73.3743,-6325.49 L 73.4685,-6325 L 73.5,-6324.5 L 73.5,-6035.5 L 73.4685,-6035 L 73.3743,-6034.51
 L 73.2191,-6034.03 L 73.0052,-6033.57 L 72.7361,-6033.15 L 72.4159,-6032.76 L 72.0497,-6032.42 L 71.6433,-6032.12
 L 71.2031,-6031.88 L 70.7361,-6031.7 L 70.2495,-6031.57 L 69.7512,-6031.51 z
M 70.9369,-5721.09 L 71.5451,-5721.24 L 72.1289,-5721.48 L 72.6791,-5721.78 L 73.1871,-5722.15 L 73.6448,-5722.58
 L 74.0451,-5723.06 L 74.3815,-5723.59 L 74.6489,-5724.16 L 74.8429,-5724.76 L 74.9606,-5725.37 L 75,-5726
 L 75,-6016 L 74.9606,-6016.63 L 74.8429,-6017.24 L 74.6489,-6017.84 L 74.3815,-6018.41 L 74.0451,-6018.94
 L 73.6448,-6019.42 L 73.1871,-6019.85 L 72.6791,-6020.22 L 72.1289,-6020.52 L 71.5451,-6020.76 L 70.9369,-6020.91
 L 70.3139,-6020.99 L -70.3139,-6020.99 L -70.9369,-6020.91 L -71.5451,-6020.76 L -72.1289,-6020.52 L -72.6791,-6020.22
 L -73.1871,-6019.85 L -73.6448,-6019.42 L -74.0451,-6018.94 L -74.3815,-6018.41 L -74.6489,-6017.84 L -74.8429,-6017.24
 L -74.9606,-6016.63 L -75,-6016 L -75,-5726 L -74.9606,-5725.37 L -74.8429,-5724.76 L -74.6489,-5724.16
 L -74.3815,-5723.59 L -74.0451,-5723.06 L -73.6448,-5722.58 L -73.1871,-5722.15 L -72.6791,-5721.78 L -72.1289,-5721.48
 L -71.5451,-5721.24 L -70.9369,-5721.09 L -70.3139,-5721.01 L 70.3139,-5721.01 z
M -69.7512,-5722.51 L -70.2495,-5722.57 L -70.7361,-5722.7 L -71.2031,-5722.88 L -71.6433,-5723.12 L -72.0497,-5723.42
 L -72.4159,-5723.76 L -72.7361,-5724.15 L -73.0052,-5724.57 L -73.2191,-5725.03 L -73.3743,-5725.51 L -73.4685,-5726
 L -73.5,-5726.5 L -73.5,-6015.5 L -73.4685,-6016 L -73.3743,-6016.49 L -73.2191,-6016.97 L -73.0052,-6017.43
 L -72.7361,-6017.85 L -72.4159,-6018.24 L -72.0497,-6018.58 L -71.6433,-6018.88 L -71.2031,-6019.12 L -70.7361,-6019.3
 L -70.2495,-6019.43 L -69.7512,-6019.49 L 69.7512,-6019.49 L 70.2495,-6019.43 L 70.7361,-6019.3 L 71.2031,-6019.12
 L 71.6433,-6018.88 L 72.0497,-6018.58 L 72.4159,-6018.24 L 72.7361,-6017.85 L 73.0052,-6017.43 L 73.2191,-6016.97
 L 73.3743,-6016.49 L 73.4685,-6016 L 73.5,-6015.5 L 73.5,-5726.5 L 73.4685,-5726 L 73.3743,-5725.51
 L 73.2191,-5725.03 L 73.0052,-5724.57 L 72.7361,-5724.15 L 72.4159,-5723.76 L 72.0497,-5723.42 L 71.6433,-5723.12
 L 71.2031,-5722.88 L 70.7361,-5722.7 L 70.2495,-5722.57 L 69.7512,-5722.51 z
M 70.9369,-5412.09 L 71.5451,-5412.24 L 72.1289,-5412.48 L 72.6791,-5412.78 L 73.1871,-5413.15 L 73.6448,-5413.58
 L 74.0451,-5414.06 L 74.3815,-5414.59 L 74.6489,-5415.16 L 74.8429,-5415.76 L 74.9606,-5416.37 L 75,-5417
 L 75,-5707 L 74.9606,-5707.63 L 74.8429,-5708.24 L 74.6489,-5708.84 L 74.3815,-5709.41 L 74.0451,-5709.94
 L 73.6448,-5710.42 L 73.1871,-5710.85 L 72.6791,-5711.22 L 72.1289,-5711.52 L 71.5451,-5711.76 L 70.9369,-5711.91
 L 70.3139,-5711.99 L -70.3139,-5711.99 L -70.9369,-5711.91 L -71.5451,-5711.76 L -72.1289,-5711.52 L -72.6791,-5711.22
 L -73.1871,-5710.85 L -73.6448,-5710.42 L -74.0451,-5709.94 L -74.3815,-5709.41 L -74.6489,-5708.84 L -74.8429,-5708.24
 L -74.9606,-5707.63 L -75,-5707 L -75,-5417 L -74.9606,-5416.37 L -74.8429,-5415.76 L -74.6489,-5415.16
 L -74.3815,-5414.59 L -74.0451,-5414.06 L -73.6448,-5413.58 L -73.1871,-5413.15 L -72.6791,-5412.78 L -72.1289,-5412.48
 L -71.5451,-5412.24 L -70.9369,-5412.09 L -70.3139,-5412.01 L 70.3139,-5412.01 z
M -69.7512,-5413.51 L -70.2495,-5413.57 L -70.7361,-5413.7 L -71.2031,-5413.88 L -71.6433,-5414.12 L -72.0497,-5414.42
 L -72.4159,-5414.76 L -72.7361,-5415.15 L -73.0052,-5415.57 L -73.2191,-5416.03 L -73.3743,-5416.51 L -73.4685,-5417
 L -73.5,-5417.5 L -73.5,-5706.5 L -73.4685,-5707 L -73.3743,-5707.49 L -73.2191,-5707.97 L -73.0052,-5708.43
 L -72.7361,-5708.85 L -72.4159,-5709.24 L -72.0497,-5709.58 L -71.6433,-5709.88 L -71.2031,-5710.12 L -70.7361,-5710.3
 L -70.2495,-5710.43 L -69.7512,-5710.49 L 69.7512,-5710.49 L 70.2495,-5710.43 L 70.7361,-5710.3 L 71.2031,-5710.12
 L 71.6433,-5709.88 L 72.0497,-5709.58 L 72.4159,-5709.24 L 72.7361,-5708.85 L 73.0052,-5708.43 L 73.2191,-5707.97
 L 73.3743,-5707.49 L 73.4685,-5707 L 73.5,-5706.5 L 73.5,-5417.5 L 73.4685,-5417 L 73.3743,-5416.51
 L 73.2191,-5416.03 L 73.0052,-5415.57 L 72.7361,-5415.15 L 72.4159,-5414.76 L 72.0497,-5414.42 L 71.6433,-5414.12
 L 71.2031,-5413.88 L 70.7361,-5413.7 L 70.2495,-5413.57 L 69.7512,-5413.51 z
M 70.9369,-5103.09 L 71.5451,-5103.24 L 72.1289,-5103.48 L 72.6791,-5103.78 L 73.1871,-5104.15 L 73.6448,-5104.58
 L 74.0451,-5105.06 L 74.3815,-5105.59 L 74.6489,-5106.16 L 74.8429,-5106.76 L 74.9606,-5107.37 L 75,-5108
 L 75,-5398 L 74.9606,-5398.63 L 74.8429,-5399.24 L 74.6489,-5399.84 L 74.3815,-5400.41 L 74.0451,-5400.94
 L 73.6448,-5401.42 L 73.1871,-5401.85 L 72.6791,-5402.22 L 72.1289,-5402.52 L 71.5451,-5402.76 L 70.9369,-5402.91
 L 70.3139,-5402.99 L -70.3139,-5402.99 L -70.9369,-5402.91 L -71.5451,-5402.76 L -72.1289,-5402.52 L -72.6791,-5402.22
 L -73.1871,-5401.85 L -73.6448,-5401.42 L -74.0451,-5400.94 L -74.3815,-5400.41 L -74.6489,-5399.84 L -74.8429,-5399.24
 L -74.9606,-5398.63 L -75,-5398 L -75,-5108 L -74.9606,-5107.37 L -74.8429,-5106.76 L -74.6489,-5106.16
 L -74.3815,-5105.59 L -74.0451,-5105.06 L -73.6448,-5104.58 L -73.1871,-5104.15 L -72.6791,-5103.78 L -72.1289,-5103.48
 L -71.5451,-5103.24 L -70.9369,-5103.09 L -70.3139,-5103.01 L 70.3139,-5103.01 z
M -69.7512,-5104.51 L -70.2495,-5104.57 L -70.7361,-5104.7 L -71.2031,-5104.88 L -71.6433,-5105.12 L -72.0497,-5105.42
 L -72.4159,-5105.76 L -72.7361,-5106.15 L -73.0052,-5106.57 L -73.2191,-5107.03 L -73.3743,-5107.51 L -73.4685,-5108
 L -73.5,-5108.5 L -73.5,-5397.5 L -73.4685,-5398 L -73.3743,-5398.49 L -73.2191,-5398.97 L -73.0052,-5399.43
 L -72.7361,-5399.85 L -72.4159,-5400.24 L -72.0497,-5400.58 L -71.6433,-5400.88 L -71.2031,-5401.12 L -70.7361,-5401.3
 L -70.2495,-5401.43 L -69.7512,-5401.49 L 69.7512,-5401.49 L 70.2495,-5401.43 L 70.7361,-5401.3 L 71.2031,-5401.12
 L 71.6433,-5400.88 L 72.0497,-5400.58 L 72.4159,-5400.24 L 72.7361,-5399.85 L 73.0052,-5399.43 L 73.2191,-5398.97
 L 73.3743,-5398.49 L 73.4685,-5398 L 73.5,-5397.5 L 73.5,-5108.5 L 73.4685,-5108 L 73.3743,-5107.51
 L 73.2191,-5107.03 L 73.0052,-5106.57 L 72.7361,-5106.15 L 72.4159,-5105.76 L 72.0497,-5105.42 L 71.6433,-5105.12
 L 71.2031,-5104.88 L 70.7361,-5104.7 L 70.2495,-5104.57 L 69.7512,-5104.51 z
M 70.9369,-4794.09 L 71.5451,-4794.24 L 72.1289,-4794.48 L 72.6791,-4794.78 L 73.1871,-4795.15 L 73.6448,-4795.58
 L 74.0451,-4796.06 L 74.3815,-4796.59 L 74.6489,-4797.16 L 74.8429,-4797.76 L 74.9606,-4798.37 L 75,-4799
 L 75,-5089 L 74.9606,-5089.63 L 74.8429,-5090.24 L 74.6489,-5090.84 L 74.3815,-5091.41 L 74.0451,-5091.94
 L 73.6448,-5092.42 L 73.1871,-5092.85 L 72.6791,-5093.22 L 72.1289,-5093.52 L 71.5451,-5093.76 L 70.9369,-5093.91
 L 70.3139,-5093.99 L -70.3139,-5093.99 L -70.9369,-5093.91 L -71.5451,-5093.76 L -72.1289,-5093.52 L -72.6791,-5093.22
 L -73.1871,-5092.85 L -73.6448,-5092.42 L -74.0451,-5091.94 L -74.3815,-5091.41 L -74.6489,-5090.84 L -74.8429,-5090.24
 L -74.9606,-5089.63 L -75,-5089 L -75,-4799 L -74.9606,-4798.37 L -74.8429,-4797.76 L -74.6489,-4797.16
 L -74.3815,-4796.59 L -74.0451,-4796.06 L -73.6448,-4795.58 L -73.1871,-4795.15 L -72.6791,-4794.78 L -72.1289,-4794.48
 L -71.5451,-4794.24 L -70.9369,-4794.09 L -70.3139,-4794.01 L 70.3139,-4794.01 z
M -69.6955,-4796.39 L -70.0833,-4796.44 L -70.4619,-4796.54 L -70.8254,-4796.68 L -71.168,-4796.87 L -71.4843,-4797.1
 L -71.7692,-4797.37 L -72.0184,-4797.67 L -72.2279,-4798 L -72.3943,-4798.35 L -72.5151,-4798.73 L -72.5884,-4799.11
 L -72.6129,-4799.5 L -72.6129,-5088.5 L -72.5884,-5088.89 L -72.5151,-5089.27 L -72.3943,-5089.65 L -72.2279,-5090
 L -72.0184,-5090.33 L -71.7692,-5090.63 L -71.4843,-5090.9 L -71.168,-5091.13 L -70.8254,-5091.32 L -70.4619,-5091.46
 L -70.0833,-5091.56 L -69.6955,-5091.61 L 69.6955,-5091.61 L 70.0833,-5091.56 L 70.4619,-5091.46 L 70.8254,-5091.32
 L 71.168,-5091.13 L 71.4843,-5090.9 L 71.7692,-5090.63 L 72.0184,-5090.33 L 72.2279,-5090 L 72.3943,-5089.65
 L 72.5151,-5089.27 L 72.5884,-5088.89 L 72.6129,-5088.5 L 72.6129,-4799.5 L 72.5884,-4799.11 L 72.5151,-4798.73
 L 72.3943,-4798.35 L 72.2279,-4798 L 72.0184,-4797.67 L 71.7692,-4797.37 L 71.4843,-4797.1 L 71.168,-4796.87
 L 70.8254,-4796.68 L 70.4619,-4796.54 L 70.0833,-4796.44 L 69.6955,-4796.39 z
M 70.9369,-4485.09 L 71.5451,-4485.24 L 72.1289,-4485.48 L 72.6791,-4485.78 L 73.1871,-4486.15 L 73.6448,-4486.58
 L 74.0451,-4487.06 L 74.3815,-4487.59 L 74.6489,-4488.16 L 74.8429,-4488.76 L 74.9606,-4489.37 L 75,-4490
 L 75,-4780 L 74.9606,-4780.63 L 74.8429,-4781.24 L 74.6489,-4781.84 L 74.3815,-4782.41 L 74.0451,-4782.94
 L 73.6448,-4783.42 L 73.1871,-4783.85 L 72.6791,-4784.22 L 72.1289,-4784.52 L 71.5451,-4784.76 L 70.9369,-4784.91
 L 70.3139,-4784.99 L -70.3139,-4784.99 L -70.9369,-4784.91 L -71.5451,-4784.76 L -72.1289,-4784.52 L -72.6791,-4784.22
 L -73.1871,-4783.85 L -73.6448,-4783.42 L -74.0451,-4782.94 L -74.3815,-4782.41 L -74.6489,-4781.84 L -74.8429,-4781.24
 L -74.9606,-4780.63 L -75,-4780 L -75,-4490 L -74.9606,-4489.37 L -74.8429,-4488.76 L -74.6489,-4488.16
 L -74.3815,-4487.59 L -74.0451,-4487.06 L -73.6448,-4486.58 L -73.1871,-4486.15 L -72.6791,-4485.78 L -72.1289,-4485.48
 L -71.5451,-4485.24 L -70.9369,-4485.09 L -70.3139,-4485.01 L 70.3139,-4485.01 z
M -67.6341,-4775.37 L -67.9001,-4775.4 L -68.1598,-4775.47 L -68.4092,-4775.57 L -68.6441,-4775.7 L -68.8611,-4775.85
 L -69.0566,-4776.04 L -69.2275,-4776.24 L -69.3712,-4776.47 L -69.4853,-4776.71 L -69.5682,-4776.97 L -69.6185,-4777.23
 L -69.6353,-4777.5 L -69.6185,-4777.77 L -69.5682,-4778.03 L -69.4853,-4778.29 L -69.3712,-4778.53 L -69.2275,-4778.76
 L -69.0566,-4778.96 L -68.8611,-4779.15 L -68.6441,-4779.3 L -68.4092,-4779.43 L -68.1598,-4779.53 L -67.9001,-4779.6
 L -67.6341,-4779.63 L -67.3659,-4779.63 L -67.0999,-4779.6 L -66.8401,-4779.53 L -66.5908,-4779.43 L -66.3559,-4779.3
 L -66.1389,-4779.15 L -65.9434,-4778.96 L -65.7725,-4778.76 L -65.6288,-4778.53 L -65.5146,-4778.29 L -65.4318,-4778.03
 L -65.3815,-4777.77 L -65.3647,-4777.5 L -65.3815,-4777.23 L -65.4318,-4776.97 L -65.5146,-4776.71 L -65.6288,-4776.47
 L -65.7725,-4776.24 L -65.9434,-4776.04 L -66.1389,-4775.85 L -66.3559,-4775.7 L -66.5908,-4775.57 L -66.8401,-4775.47
 L -67.0999,-4775.4 L -67.3659,-4775.37 z
M 67.3659,-4775.37 L 67.0999,-4775.4 L 66.8401,-4775.47 L 66.5908,-4775.57 L 66.3559,-4775.7 L 66.1389,-4775.85
 L 65.9434,-4776.04 L 65.7725,-4776.24 L 65.6288,-4776.47 L 65.5146,-4776.71 L 65.4318,-4776.97 L 65.3815,-4777.23
 L 65.3647,-4777.5 L 65.3815,-4777.77 L 65.4318,-4778.03 L 65.5146,-4778.29 L 65.6288,-4778.53 L 65.7725,-4778.76
 L 65.9434,-4778.96 L 66.1389,-4779.15 L 66.3559,-4779.3 L 66.5908,-4779.43 L 66.8401,-4779.53 L 67.0999,-4779.6
 L 67.3659,-4779.63 L 67.6341,-4779.63 L 67.9001,-4779.6 L 68.1598,-4779.53 L 68.4092,-4779.43 L 68.6441,-4779.3
 L 68.8611,-4779.15 L 69.0566,-4778.96 L 69.2275,-4778.76 L 69.3712,-4778.53 L 69.4853,-4778.29 L 69.5682,-4778.03
 L 69.6185,-4777.77 L 69.6353,-4777.5 L 69.6185,-4777.23 L 69.5682,-4776.97 L 69.4853,-4776.71 L 69.3712,-4776.47
 L 69.2275,-4776.24 L 69.0566,-4776.04 L 68.8611,-4775.85 L 68.6441,-4775.7 L 68.4092,-4775.57 L 68.1598,-4775.47
 L 67.9001,-4775.4 L 67.6341,-4775.37 z
M -67.6341,-4490.37 L -67.9001,-4490.4 L -68.1598,-4490.47 L -68.4092,-4490.57 L -68.6441,-4490.7 L -68.8611,-4490.85
 L -69.0566,-4491.04 L -69.2275,-4491.24 L -69.3712,-4491.47 L -69.4853,-4491.71 L -69.5682,-4491.97 L -69.6185,-4492.23
 L -69.6353,-4492.5 L -69.6185,-4492.77 L -69.5682,-4493.03 L -69.4853,-4493.29 L -69.3712,-4493.53 L -69.2275,-4493.76
 L -69.0566,-4493.96 L -68.8611,-4494.15 L -68.6441,-4494.3 L -68.4092,-4494.43 L -68.1598,-4494.53 L -67.9001,-4494.6
 L -67.6341,-4494.63 L -67.3659,-4494.63 L -67.0999,-4494.6 L -66.8401,-4494.53 L -66.5908,-4494.43 L -66.3559,-4494.3
 L -66.1389,-4494.15 L -65.9434,-4493.96 L -65.7725,-4493.76 L -65.6288,-4493.53 L -65.5146,-4493.29 L -65.4318,-4493.03
 L -65.3815,-4492.77 L -65.3647,-4492.5 L -65.3815,-4492.23 L -65.4318,-4491.97 L -65.5146,-4491.71 L -65.6288,-4491.47
 L -65.7725,-4491.24 L -65.9434,-4491.04 L -66.1389,-4490.85 L -66.3559,-4490.7 L -66.5908,-4490.57 L -66.8401,-4490.47
 L -67.0999,-4490.4 L -67.3659,-4490.37 z
M 67.3659,-4490.37 L 67.0999,-4490.4 L 66.8401,-4490.47 L 66.5908,-4490.57 L 66.3559,-4490.7 L 66.1389,-4490.85
 L 65.9434,-4491.04 L 65.7725,-4491.24 L 65.6288,-4491.47 L 65.5146,-4491.71 L 65.4318,-4491.97 L 65.3815,-4492.23
 L 65.3647,-4492.5 L 65.3815,-4492.77 L 65.4318,-4493.03 L 65.5146,-4493.29 L 65.6288,-4493.53 L 65.7725,-4493.76
 L 65.9434,-4493.96 L 66.1389,-4494.15 L 66.3559,-4494.3 L 66.5908,-4494.43 L 66.8401,-4494.53 L 67.0999,-4494.6
 L 67.3659,-4494.63 L 67.6341,-4494.63 L 67.9001,-4494.6 L 68.1598,-4494.53 L 68.4092,-4494.43 L 68.6441,-4494.3
 L 68.8611,-4494.15 L 69.0566,-4493.96 L 69.2275,-4493.76 L 69.3712,-4493.53 L 69.4853,-4493.29 L 69.5682,-4493.03
 L 69.6185,-4492.77 L 69.6353,-4492.5 L 69.6185,-4492.23 L 69.5682,-4491.97 L 69.4853,-4491.71 L 69.3712,-4491.47
 L 69.2275,-4491.24 L 69.0566,-4491.04 L 68.8611,-4490.85 L 68.6441,-4490.7 L 68.4092,-4490.57 L 68.1598,-4490.47
 L 67.9001,-4490.4 L 67.6341,-4490.37 z
" stroke="black" fill="lightgray" stroke-width="0.5"/>
</svg>
