<?xml version="1.0" standalone="no"?>
<!DOCTYPE svg PUBLIC "-//W3C//DTD SVG 1.1//EN" "http://www.w3.org/Graphics/SVG/1.1/DTD/svg11.dtd">
<svg width="190mm" height="190mm" viewBox="-95 -95 190 190" xmlns="http://www.w3.org/2000/svg" version="1.1">
<title>OpenSCAD Model</title>
<path d="
M 17.8012,93.3173 L 29.3566,90.3504 L 40.449,85.9586 L 50.9035,80.2112 L 60.5553,73.1988 L 69.252,65.032
 L 76.8566,55.8396 L 83.2491,45.7666 L 88.3288,34.9718 L 92.0154,23.6255 L 94.2509,11.9066 L 95,-0
 L 94.2509,-11.9066 L 92.0154,-23.6255 L 88.3288,-34.9718 L 83.2491,-45.7666 L 76.8566,-55.8396 L 69.252,-65.032
 L 60.5553,-73.1988 L 50.9035,-80.2112 L 40.449,-85.9586 L 29.3566,-90.3504 L 17.8012,-93.3173 L 5.96509,-94.8125
 L -5.96509,-94.8125 L -17.8012,-93.3173 L -29.3566,-90.3504 L -40.449,-85.9586 L -50.9035,-80.2112 L -60.5553,-73.1988
 L -69.252,-65.032 L -76.8566,-55.8396 L -83.2491,-45.7666 L -88.3288,-34.9718 L -92.0154,-23.6255 L -94.2509,-11.9066
 L -95,-0 L -94.2509,11.9066 L -92.0154,23.6255 L -88.3288,34.9718 L -83.2491,45.7666 L -76.8566,55.8396
 L -69.252,65.032 L -60.5553,73.1988 L -50.9035,80.2112 L -40.449,85.9586 L -29.3566,90.3504 L -17.8012,93.3173
 L -5.96509,94.8125 L 5.96509,94.8125 z
M -4.70927,74.852 L -14.0536,73.6715 L -23.1763,71.3292 L -31.9334,67.862 L -40.187,63.3246 L -47.8068,57.7885
 L -54.6726,51.341 L -60.6763,44.0839 L -65.723,36.1315 L -69.7332,27.6093 L -72.6437,18.6517 L -74.4086,9.39998
 L -75,-0 L -74.4086,-9.39998 L -72.6437,-18.6517 L -69.7332,-27.6093 L -65.723,-36.1315 L -60.6763,-44.0839
 L -54.6726,-51.341 L -47.8068,-57.7885 L -40.187,-63.3246 L -31.9334,-67.862 L -23.1763,-71.3292 L -14.0536,-73.6715
 L -4.70927,-74.852 L 4.70927,-74.852 L 14.0536,-73.6715 L 23.1763,-71.3292 L 31.9334,-67.862 L 40.187,-63.3246
 L 47.8068,-57.7885 L 54.6726,-51.341 L 60.6763,-44.0839 L 65.723,-36.1315 L 69.7332,-27.6093 L 72.6437,-18.6517
 L 74.4086,-9.39998 L 75,-0 L 74.4086,9.39998 L 72.6437,18.6517 L 69.7332,27.6093 L 65.723,36.1315
 L 60.6763,44.0839 L 54.6726,51.341 L 47.8068,57.7885 L 40.187,63.3246 L 31.9334,67.862 L 23.1763,71.3292
 L 14.0536,73.6715 L 4.70927,74.852 z
" stroke="black" fill="lightgray" stroke-width="0.5"/>
</svg>
