solid OpenSCAD_Model
  facet normal 0.998027 0.06279 0
    outer loop
      vertex 95 0 20
      vertex 94.2509 11.9067 0
      vertex 94.2509 11.9067 20
    endloop
  endfacet
  facet normal 0.998027 0.06279 0
    outer loop
      vertex 94.2509 11.9067 0
      vertex 95 0 20
      vertex 95 0 0
    endloop
  endfacet
  facet normal -0.998027 0.06279 0
    outer loop
      vertex -95 0 0
      vertex -94.2509 11.9067 20
      vertex -94.2509 11.9067 0
    endloop
  endfacet
  facet normal -0.998027 0.06279 0
    outer loop
      vertex -94.2509 11.9067 20
      vertex -95 0 0
      vertex -95 0 20
    endloop
  endfacet
  facet normal 0 1 -0
    outer loop
      vertex 5.9651 94.8125 0
      vertex -5.9651 94.8125 20
      vertex 5.9651 94.8125 20
    endloop
  endfacet
  facet normal 0 1 0
    outer loop
      vertex -5.9651 94.8125 20
      vertex 5.9651 94.8125 0
      vertex -5.9651 94.8125 0
    endloop
  endfacet
  facet normal 0 -1 0
    outer loop
      vertex -5.9651 -94.8125 0
      vertex 5.9651 -94.8125 20
      vertex -5.9651 -94.8125 20
    endloop
  endfacet
  facet normal 0 -1 -0
    outer loop
      vertex 5.9651 -94.8125 20
      vertex -5.9651 -94.8125 0
      vertex 5.9651 -94.8125 0
    endloop
  endfacet
  facet normal 0.68455 0.728966 -0
    outer loop
      vertex 69.252 65.032 0
      vertex 60.5553 73.1988 20
      vertex 69.252 65.032 20
    endloop
  endfacet
  facet normal 0.68455 0.728966 0
    outer loop
      vertex 60.5553 73.1988 20
      vertex 69.252 65.032 0
      vertex 60.5553 73.1988 0
    endloop
  endfacet
  facet normal -0.68455 0.728966 0
    outer loop
      vertex -60.5553 73.1988 0
      vertex -69.252 65.032 20
      vertex -60.5553 73.1988 20
    endloop
  endfacet
  facet normal -0.68455 0.728966 0
    outer loop
      vertex -69.252 65.032 20
      vertex -60.5553 73.1988 0
      vertex -69.252 65.032 0
    endloop
  endfacet
  facet normal -0.368125 0.929776 0
    outer loop
      vertex -29.3566 90.3504 0
      vertex -40.449 85.9586 20
      vertex -29.3566 90.3504 20
    endloop
  endfacet
  facet normal -0.368125 0.929776 0
    outer loop
      vertex -40.449 85.9586 20
      vertex -29.3566 90.3504 0
      vertex -40.449 85.9586 0
    endloop
  endfacet
  facet normal 0.904825 0.425783 0
    outer loop
      vertex 88.3288 34.9718 20
      vertex 83.2491 45.7666 0
      vertex 83.2491 45.7666 20
    endloop
  endfacet
  facet normal 0.904825 0.425783 0
    outer loop
      vertex 83.2491 45.7666 0
      vertex 88.3288 34.9718 20
      vertex 88.3288 34.9718 0
    endloop
  endfacet
  facet normal 0.844329 0.535826 0
    outer loop
      vertex 83.2491 45.7666 20
      vertex 76.8566 55.8396 0
      vertex 76.8566 55.8396 20
    endloop
  endfacet
  facet normal 0.844329 0.535826 0
    outer loop
      vertex 76.8566 55.8396 0
      vertex 83.2491 45.7666 20
      vertex 83.2491 45.7666 0
    endloop
  endfacet
  facet normal 0.368125 0.929776 -0
    outer loop
      vertex 40.449 85.9586 0
      vertex 29.3566 90.3504 20
      vertex 40.449 85.9586 20
    endloop
  endfacet
  facet normal 0.368125 0.929776 0
    outer loop
      vertex 29.3566 90.3504 20
      vertex 40.449 85.9586 0
      vertex 29.3566 90.3504 0
    endloop
  endfacet
  facet normal 0.587783 0.809019 -0
    outer loop
      vertex 60.5553 73.1988 0
      vertex 50.9035 80.2112 20
      vertex 60.5553 73.1988 20
    endloop
  endfacet
  facet normal 0.587783 0.809019 0
    outer loop
      vertex 50.9035 80.2112 20
      vertex 60.5553 73.1988 0
      vertex 50.9035 80.2112 0
    endloop
  endfacet
  facet normal -0.904825 0.425783 0
    outer loop
      vertex -88.3288 34.9718 0
      vertex -83.2491 45.7666 20
      vertex -83.2491 45.7666 0
    endloop
  endfacet
  facet normal -0.904825 0.425783 0
    outer loop
      vertex -83.2491 45.7666 20
      vertex -88.3288 34.9718 0
      vertex -88.3288 34.9718 20
    endloop
  endfacet
  facet normal -0.770514 0.637423 0
    outer loop
      vertex -76.8566 55.8396 0
      vertex -69.252 65.032 20
      vertex -69.252 65.032 0
    endloop
  endfacet
  facet normal -0.770514 0.637423 0
    outer loop
      vertex -69.252 65.032 20
      vertex -76.8566 55.8396 0
      vertex -76.8566 55.8396 20
    endloop
  endfacet
  facet normal 0 0 1
    outer loop
      vertex 75 0 20
      vertex 95 0 20
      vertex 94.2509 11.9067 20
    endloop
  endfacet
  facet normal 0 0 1
    outer loop
      vertex 74.4086 9.39999 20
      vertex 94.2509 11.9067 20
      vertex 92.0154 23.6255 20
    endloop
  endfacet
  facet normal 0 0 1
    outer loop
      vertex 95 0 20
      vertex 75 0 20
      vertex 94.2509 -11.9067 20
    endloop
  endfacet
  facet normal 0 0 1
    outer loop
      vertex 72.6437 18.6517 20
      vertex 92.0154 23.6255 20
      vertex 88.3288 34.9718 20
    endloop
  endfacet
  facet normal -0 0 1
    outer loop
      vertex 74.4086 -9.39999 20
      vertex 94.2509 -11.9067 20
      vertex 75 0 20
    endloop
  endfacet
  facet normal 0 0 1
    outer loop
      vertex 69.7332 27.6093 20
      vertex 88.3288 34.9718 20
      vertex 83.2491 45.7666 20
    endloop
  endfacet
  facet normal 0 0 1
    outer loop
      vertex 94.2509 -11.9067 20
      vertex 74.4086 -9.39999 20
      vertex 92.0154 -23.6255 20
    endloop
  endfacet
  facet normal 0 0 1
    outer loop
      vertex 65.723 36.1315 20
      vertex 83.2491 45.7666 20
      vertex 76.8566 55.8396 20
    endloop
  endfacet
  facet normal -0 0 1
    outer loop
      vertex 72.6437 -18.6517 20
      vertex 92.0154 -23.6255 20
      vertex 74.4086 -9.39999 20
    endloop
  endfacet
  facet normal 0 0 1
    outer loop
      vertex 92.0154 -23.6255 20
      vertex 72.6437 -18.6517 20
      vertex 88.3288 -34.9718 20
    endloop
  endfacet
  facet normal 0 0 1
    outer loop
      vertex 94.2509 11.9067 20
      vertex 74.4086 9.39999 20
      vertex 75 0 20
    endloop
  endfacet
  facet normal 0 0 1
    outer loop
      vertex 92.0154 23.6255 20
      vertex 72.6437 18.6517 20
      vertex 74.4086 9.39999 20
    endloop
  endfacet
  facet normal 0 0 1
    outer loop
      vertex 88.3288 34.9718 20
      vertex 69.7332 27.6093 20
      vertex 72.6437 18.6517 20
    endloop
  endfacet
  facet normal 0 0 1
    outer loop
      vertex 60.6763 44.0839 20
      vertex 76.8566 55.8396 20
      vertex 69.252 65.032 20
    endloop
  endfacet
  facet normal 0 0 1
    outer loop
      vertex 83.2491 45.7666 20
      vertex 65.723 36.1315 20
      vertex 69.7332 27.6093 20
    endloop
  endfacet
  facet normal 0 0 1
    outer loop
      vertex 76.8566 55.8396 20
      vertex 60.6763 44.0839 20
      vertex 65.723 36.1315 20
    endloop
  endfacet
  facet normal 0 0 1
    outer loop
      vertex 54.6726 51.341 20
      vertex 69.252 65.032 20
      vertex 60.5553 73.1988 20
    endloop
  endfacet
  facet normal 0 0 1
    outer loop
      vertex 69.252 65.032 20
      vertex 54.6726 51.341 20
      vertex 60.6763 44.0839 20
    endloop
  endfacet
  facet normal 0 0 1
    outer loop
      vertex 47.8068 57.7885 20
      vertex 60.5553 73.1988 20
      vertex 50.9035 80.2112 20
    endloop
  endfacet
  facet normal 0 0 1
    outer loop
      vertex 60.5553 73.1988 20
      vertex 47.8068 57.7885 20
      vertex 54.6726 51.341 20
    endloop
  endfacet
  facet normal 0 0 1
    outer loop
      vertex 40.187 63.3246 20
      vertex 50.9035 80.2112 20
      vertex 40.449 85.9586 20
    endloop
  endfacet
  facet normal 0 0 1
    outer loop
      vertex 50.9035 80.2112 20
      vertex 40.187 63.3246 20
      vertex 47.8068 57.7885 20
    endloop
  endfacet
  facet normal 0 0 1
    outer loop
      vertex 40.449 85.9586 20
      vertex 31.9334 67.862 20
      vertex 40.187 63.3246 20
    endloop
  endfacet
  facet normal 0 0 1
    outer loop
      vertex 29.3566 90.3504 20
      vertex 31.9334 67.862 20
      vertex 40.449 85.9586 20
    endloop
  endfacet
  facet normal 0 0 1
    outer loop
      vertex 29.3566 90.3504 20
      vertex 23.1763 71.3292 20
      vertex 31.9334 67.862 20
    endloop
  endfacet
  facet normal 0 0 1
    outer loop
      vertex 17.8012 93.3173 20
      vertex 23.1763 71.3292 20
      vertex 29.3566 90.3504 20
    endloop
  endfacet
  facet normal 0 0 1
    outer loop
      vertex 17.8012 93.3173 20
      vertex 14.0536 73.6715 20
      vertex 23.1763 71.3292 20
    endloop
  endfacet
  facet normal 0 0 1
    outer loop
      vertex 5.9651 94.8125 20
      vertex 14.0536 73.6715 20
      vertex 17.8012 93.3173 20
    endloop
  endfacet
  facet normal 0 0 1
    outer loop
      vertex 5.9651 94.8125 20
      vertex 4.70929 74.852 20
      vertex 14.0536 73.6715 20
    endloop
  endfacet
  facet normal 0 0 1
    outer loop
      vertex 5.9651 94.8125 20
      vertex -4.70929 74.852 20
      vertex 4.70929 74.852 20
    endloop
  endfacet
  facet normal -0 0 1
    outer loop
      vertex -5.9651 94.8125 20
      vertex -4.70929 74.852 20
      vertex 5.9651 94.8125 20
    endloop
  endfacet
  facet normal 0 0 1
    outer loop
      vertex -5.9651 94.8125 20
      vertex -14.0536 73.6715 20
      vertex -4.70929 74.852 20
    endloop
  endfacet
  facet normal -0 0 1
    outer loop
      vertex -17.8012 93.3173 20
      vertex -14.0536 73.6715 20
      vertex -5.9651 94.8125 20
    endloop
  endfacet
  facet normal 0 0 1
    outer loop
      vertex -17.8012 93.3173 20
      vertex -23.1763 71.3292 20
      vertex -14.0536 73.6715 20
    endloop
  endfacet
  facet normal -0 0 1
    outer loop
      vertex -29.3566 90.3504 20
      vertex -23.1763 71.3292 20
      vertex -17.8012 93.3173 20
    endloop
  endfacet
  facet normal 0 0 1
    outer loop
      vertex -29.3566 90.3504 20
      vertex -31.9334 67.862 20
      vertex -23.1763 71.3292 20
    endloop
  endfacet
  facet normal -0 0 1
    outer loop
      vertex -40.449 85.9586 20
      vertex -31.9334 67.862 20
      vertex -29.3566 90.3504 20
    endloop
  endfacet
  facet normal 0 0 1
    outer loop
      vertex -31.9334 67.862 20
      vertex -40.449 85.9586 20
      vertex -40.187 63.3246 20
    endloop
  endfacet
  facet normal -0 0 1
    outer loop
      vertex -50.9035 80.2112 20
      vertex -40.187 63.3246 20
      vertex -40.449 85.9586 20
    endloop
  endfacet
  facet normal 0 0 1
    outer loop
      vertex -40.187 63.3246 20
      vertex -50.9035 80.2112 20
      vertex -47.8068 57.7885 20
    endloop
  endfacet
  facet normal -0 0 1
    outer loop
      vertex -60.5553 73.1988 20
      vertex -47.8068 57.7885 20
      vertex -50.9035 80.2112 20
    endloop
  endfacet
  facet normal 0 0 1
    outer loop
      vertex -47.8068 57.7885 20
      vertex -60.5553 73.1988 20
      vertex -54.6726 51.341 20
    endloop
  endfacet
  facet normal -0 0 1
    outer loop
      vertex -69.252 65.032 20
      vertex -54.6726 51.341 20
      vertex -60.5553 73.1988 20
    endloop
  endfacet
  facet normal 0 0 1
    outer loop
      vertex -54.6726 51.341 20
      vertex -69.252 65.032 20
      vertex -60.6763 44.0839 20
    endloop
  endfacet
  facet normal -0 0 1
    outer loop
      vertex -76.8566 55.8396 20
      vertex -60.6763 44.0839 20
      vertex -69.252 65.032 20
    endloop
  endfacet
  facet normal 0 0 1
    outer loop
      vertex -60.6763 44.0839 20
      vertex -76.8566 55.8396 20
      vertex -65.723 36.1315 20
    endloop
  endfacet
  facet normal -0 0 1
    outer loop
      vertex -83.2491 45.7666 20
      vertex -65.723 36.1315 20
      vertex -76.8566 55.8396 20
    endloop
  endfacet
  facet normal 0 0 1
    outer loop
      vertex -65.723 36.1315 20
      vertex -83.2491 45.7666 20
      vertex -69.7332 27.6093 20
    endloop
  endfacet
  facet normal 0 0 1
    outer loop
      vertex -69.7332 27.6093 20
      vertex -88.3288 34.9718 20
      vertex -72.6437 18.6517 20
    endloop
  endfacet
  facet normal -0 0 1
    outer loop
      vertex -88.3288 34.9718 20
      vertex -69.7332 27.6093 20
      vertex -83.2491 45.7666 20
    endloop
  endfacet
  facet normal -0 0 1
    outer loop
      vertex 69.7332 -27.6093 20
      vertex 88.3288 -34.9718 20
      vertex 72.6437 -18.6517 20
    endloop
  endfacet
  facet normal 0 0 1
    outer loop
      vertex 88.3288 -34.9718 20
      vertex 69.7332 -27.6093 20
      vertex 83.2491 -45.7666 20
    endloop
  endfacet
  facet normal -0 0 1
    outer loop
      vertex 65.723 -36.1315 20
      vertex 83.2491 -45.7666 20
      vertex 69.7332 -27.6093 20
    endloop
  endfacet
  facet normal 0 0 1
    outer loop
      vertex 83.2491 -45.7666 20
      vertex 65.723 -36.1315 20
      vertex 76.8566 -55.8396 20
    endloop
  endfacet
  facet normal -0 0 1
    outer loop
      vertex 60.6763 -44.0839 20
      vertex 76.8566 -55.8396 20
      vertex 65.723 -36.1315 20
    endloop
  endfacet
  facet normal 0 0 1
    outer loop
      vertex 76.8566 -55.8396 20
      vertex 60.6763 -44.0839 20
      vertex 69.252 -65.032 20
    endloop
  endfacet
  facet normal -0 0 1
    outer loop
      vertex 54.6726 -51.341 20
      vertex 69.252 -65.032 20
      vertex 60.6763 -44.0839 20
    endloop
  endfacet
  facet normal 0 0 1
    outer loop
      vertex 69.252 -65.032 20
      vertex 54.6726 -51.341 20
      vertex 60.5553 -73.1988 20
    endloop
  endfacet
  facet normal -0 0 1
    outer loop
      vertex 47.8068 -57.7885 20
      vertex 60.5553 -73.1988 20
      vertex 54.6726 -51.341 20
    endloop
  endfacet
  facet normal 0 0 1
    outer loop
      vertex 60.5553 -73.1988 20
      vertex 47.8068 -57.7885 20
      vertex 50.9035 -80.2112 20
    endloop
  endfacet
  facet normal -0 0 1
    outer loop
      vertex 40.187 -63.3246 20
      vertex 50.9035 -80.2112 20
      vertex 47.8068 -57.7885 20
    endloop
  endfacet
  facet normal 0 0 1
    outer loop
      vertex 50.9035 -80.2112 20
      vertex 40.187 -63.3246 20
      vertex 40.449 -85.9586 20
    endloop
  endfacet
  facet normal -0 0 1
    outer loop
      vertex 31.9334 -67.862 20
      vertex 40.449 -85.9586 20
      vertex 40.187 -63.3246 20
    endloop
  endfacet
  facet normal 0 0 1
    outer loop
      vertex 31.9334 -67.862 20
      vertex 29.3566 -90.3504 20
      vertex 40.449 -85.9586 20
    endloop
  endfacet
  facet normal -0 0 1
    outer loop
      vertex 23.1763 -71.3292 20
      vertex 29.3566 -90.3504 20
      vertex 31.9334 -67.862 20
    endloop
  endfacet
  facet normal 0 0 1
    outer loop
      vertex 23.1763 -71.3292 20
      vertex 17.8012 -93.3173 20
      vertex 29.3566 -90.3504 20
    endloop
  endfacet
  facet normal -0 0 1
    outer loop
      vertex 14.0536 -73.6715 20
      vertex 17.8012 -93.3173 20
      vertex 23.1763 -71.3292 20
    endloop
  endfacet
  facet normal 0 0 1
    outer loop
      vertex 14.0536 -73.6715 20
      vertex 5.9651 -94.8125 20
      vertex 17.8012 -93.3173 20
    endloop
  endfacet
  facet normal -0 0 1
    outer loop
      vertex 4.70929 -74.852 20
      vertex 5.9651 -94.8125 20
      vertex 14.0536 -73.6715 20
    endloop
  endfacet
  facet normal -0 0 1
    outer loop
      vertex -4.70929 -74.852 20
      vertex 5.9651 -94.8125 20
      vertex 4.70929 -74.852 20
    endloop
  endfacet
  facet normal 0 0 1
    outer loop
      vertex -4.70929 -74.852 20
      vertex -5.9651 -94.8125 20
      vertex 5.9651 -94.8125 20
    endloop
  endfacet
  facet normal 0 0 1
    outer loop
      vertex -14.0536 -73.6715 20
      vertex -5.9651 -94.8125 20
      vertex -4.70929 -74.852 20
    endloop
  endfacet
  facet normal 0 0 1
    outer loop
      vertex -14.0536 -73.6715 20
      vertex -17.8012 -93.3173 20
      vertex -5.9651 -94.8125 20
    endloop
  endfacet
  facet normal 0 0 1
    outer loop
      vertex -23.1763 -71.3292 20
      vertex -17.8012 -93.3173 20
      vertex -14.0536 -73.6715 20
    endloop
  endfacet
  facet normal 0 0 1
    outer loop
      vertex -23.1763 -71.3292 20
      vertex -29.3566 -90.3504 20
      vertex -17.8012 -93.3173 20
    endloop
  endfacet
  facet normal 0 0 1
    outer loop
      vertex -31.9334 -67.862 20
      vertex -29.3566 -90.3504 20
      vertex -23.1763 -71.3292 20
    endloop
  endfacet
  facet normal 0 0 1
    outer loop
      vertex -40.449 -85.9586 20
      vertex -31.9334 -67.862 20
      vertex -40.187 -63.3246 20
    endloop
  endfacet
  facet normal 0 0 1
    outer loop
      vertex -31.9334 -67.862 20
      vertex -40.449 -85.9586 20
      vertex -29.3566 -90.3504 20
    endloop
  endfacet
  facet normal 0 0 1
    outer loop
      vertex -50.9035 -80.2112 20
      vertex -40.187 -63.3246 20
      vertex -47.8068 -57.7885 20
    endloop
  endfacet
  facet normal 0 0 1
    outer loop
      vertex -40.187 -63.3246 20
      vertex -50.9035 -80.2112 20
      vertex -40.449 -85.9586 20
    endloop
  endfacet
  facet normal 0 0 1
    outer loop
      vertex -60.5553 -73.1988 20
      vertex -47.8068 -57.7885 20
      vertex -54.6726 -51.341 20
    endloop
  endfacet
  facet normal 0 0 1
    outer loop
      vertex -47.8068 -57.7885 20
      vertex -60.5553 -73.1988 20
      vertex -50.9035 -80.2112 20
    endloop
  endfacet
  facet normal 0 0 1
    outer loop
      vertex -69.252 -65.032 20
      vertex -54.6726 -51.341 20
      vertex -60.6763 -44.0839 20
    endloop
  endfacet
  facet normal 0 0 1
    outer loop
      vertex -76.8566 -55.8396 20
      vertex -60.6763 -44.0839 20
      vertex -65.723 -36.1315 20
    endloop
  endfacet
  facet normal 0 0 1
    outer loop
      vertex -54.6726 -51.341 20
      vertex -69.252 -65.032 20
      vertex -60.5553 -73.1988 20
    endloop
  endfacet
  facet normal 0 0 1
    outer loop
      vertex -83.2491 -45.7666 20
      vertex -65.723 -36.1315 20
      vertex -69.7332 -27.6093 20
    endloop
  endfacet
  facet normal 0 0 1
    outer loop
      vertex -88.3288 -34.9718 20
      vertex -69.7332 -27.6093 20
      vertex -72.6437 -18.6517 20
    endloop
  endfacet
  facet normal 0 0 1
    outer loop
      vertex -92.0154 -23.6255 20
      vertex -72.6437 -18.6517 20
      vertex -74.4086 -9.39999 20
    endloop
  endfacet
  facet normal 0 0 1
    outer loop
      vertex -60.6763 -44.0839 20
      vertex -76.8566 -55.8396 20
      vertex -69.252 -65.032 20
    endloop
  endfacet
  facet normal 0 0 1
    outer loop
      vertex -94.2509 -11.9067 20
      vertex -74.4086 -9.39999 20
      vertex -75 0 20
    endloop
  endfacet
  facet normal -0 0 1
    outer loop
      vertex -92.0154 23.6255 20
      vertex -72.6437 18.6517 20
      vertex -88.3288 34.9718 20
    endloop
  endfacet
  facet normal 0 0 1
    outer loop
      vertex -72.6437 18.6517 20
      vertex -92.0154 23.6255 20
      vertex -74.4086 9.39999 20
    endloop
  endfacet
  facet normal 0 0 1
    outer loop
      vertex -65.723 -36.1315 20
      vertex -83.2491 -45.7666 20
      vertex -76.8566 -55.8396 20
    endloop
  endfacet
  facet normal -0 0 1
    outer loop
      vertex -94.2509 11.9067 20
      vertex -74.4086 9.39999 20
      vertex -92.0154 23.6255 20
    endloop
  endfacet
  facet normal 0 0 1
    outer loop
      vertex -69.7332 -27.6093 20
      vertex -88.3288 -34.9718 20
      vertex -83.2491 -45.7666 20
    endloop
  endfacet
  facet normal 0 0 1
    outer loop
      vertex -74.4086 9.39999 20
      vertex -94.2509 11.9067 20
      vertex -75 0 20
    endloop
  endfacet
  facet normal 0 0 1
    outer loop
      vertex -72.6437 -18.6517 20
      vertex -92.0154 -23.6255 20
      vertex -88.3288 -34.9718 20
    endloop
  endfacet
  facet normal 0 0 1
    outer loop
      vertex -95 0 20
      vertex -75 0 20
      vertex -94.2509 11.9067 20
    endloop
  endfacet
  facet normal 0 0 1
    outer loop
      vertex -74.4086 -9.39999 20
      vertex -94.2509 -11.9067 20
      vertex -92.0154 -23.6255 20
    endloop
  endfacet
  facet normal 0 0 1
    outer loop
      vertex -75 0 20
      vertex -95 0 20
      vertex -94.2509 -11.9067 20
    endloop
  endfacet
  facet normal -0.481753 0.876307 0
    outer loop
      vertex -40.449 85.9586 0
      vertex -50.9035 80.2112 20
      vertex -40.449 85.9586 20
    endloop
  endfacet
  facet normal -0.481753 0.876307 0
    outer loop
      vertex -50.9035 80.2112 20
      vertex -40.449 85.9586 0
      vertex -50.9035 80.2112 0
    endloop
  endfacet
  facet normal -0.248688 0.968584 0
    outer loop
      vertex -17.8012 93.3173 0
      vertex -29.3566 90.3504 20
      vertex -17.8012 93.3173 20
    endloop
  endfacet
  facet normal -0.248688 0.968584 0
    outer loop
      vertex -29.3566 90.3504 20
      vertex -17.8012 93.3173 0
      vertex -29.3566 90.3504 0
    endloop
  endfacet
  facet normal 0.982287 -0.187383 0
    outer loop
      vertex 92.0154 -23.6255 20
      vertex 94.2509 -11.9067 0
      vertex 94.2509 -11.9067 20
    endloop
  endfacet
  facet normal 0.982287 -0.187383 0
    outer loop
      vertex 94.2509 -11.9067 0
      vertex 92.0154 -23.6255 20
      vertex 92.0154 -23.6255 0
    endloop
  endfacet
  facet normal 0 0 -1
    outer loop
      vertex 75 0 0
      vertex 95 0 0
      vertex 94.2509 -11.9067 0
    endloop
  endfacet
  facet normal 0 0 -1
    outer loop
      vertex 74.4086 -9.39999 0
      vertex 94.2509 -11.9067 0
      vertex 92.0154 -23.6255 0
    endloop
  endfacet
  facet normal 0 0 -1
    outer loop
      vertex 95 0 0
      vertex 75 0 0
      vertex 94.2509 11.9067 0
    endloop
  endfacet
  facet normal 0 0 -1
    outer loop
      vertex 72.6437 -18.6517 0
      vertex 92.0154 -23.6255 0
      vertex 88.3288 -34.9718 0
    endloop
  endfacet
  facet normal 0 0 -1
    outer loop
      vertex 74.4086 9.39999 0
      vertex 94.2509 11.9067 0
      vertex 75 0 0
    endloop
  endfacet
  facet normal 0 0 -1
    outer loop
      vertex 69.7332 -27.6093 0
      vertex 88.3288 -34.9718 0
      vertex 83.2491 -45.7666 0
    endloop
  endfacet
  facet normal -0 0 -1
    outer loop
      vertex 94.2509 11.9067 0
      vertex 74.4086 9.39999 0
      vertex 92.0154 23.6255 0
    endloop
  endfacet
  facet normal 0 0 -1
    outer loop
      vertex 65.723 -36.1315 0
      vertex 83.2491 -45.7666 0
      vertex 76.8566 -55.8396 0
    endloop
  endfacet
  facet normal 0 0 -1
    outer loop
      vertex 72.6437 18.6517 0
      vertex 92.0154 23.6255 0
      vertex 74.4086 9.39999 0
    endloop
  endfacet
  facet normal -0 0 -1
    outer loop
      vertex 92.0154 23.6255 0
      vertex 72.6437 18.6517 0
      vertex 88.3288 34.9718 0
    endloop
  endfacet
  facet normal 0 0 -1
    outer loop
      vertex 94.2509 -11.9067 0
      vertex 74.4086 -9.39999 0
      vertex 75 0 0
    endloop
  endfacet
  facet normal 0 0 -1
    outer loop
      vertex 92.0154 -23.6255 0
      vertex 72.6437 -18.6517 0
      vertex 74.4086 -9.39999 0
    endloop
  endfacet
  facet normal 0 0 -1
    outer loop
      vertex 88.3288 -34.9718 0
      vertex 69.7332 -27.6093 0
      vertex 72.6437 -18.6517 0
    endloop
  endfacet
  facet normal 0 0 -1
    outer loop
      vertex 60.6763 -44.0839 0
      vertex 76.8566 -55.8396 0
      vertex 69.252 -65.032 0
    endloop
  endfacet
  facet normal 0 0 -1
    outer loop
      vertex 83.2491 -45.7666 0
      vertex 65.723 -36.1315 0
      vertex 69.7332 -27.6093 0
    endloop
  endfacet
  facet normal 0 0 -1
    outer loop
      vertex 76.8566 -55.8396 0
      vertex 60.6763 -44.0839 0
      vertex 65.723 -36.1315 0
    endloop
  endfacet
  facet normal 0 0 -1
    outer loop
      vertex 54.6726 -51.341 0
      vertex 69.252 -65.032 0
      vertex 60.5553 -73.1988 0
    endloop
  endfacet
  facet normal 0 0 -1
    outer loop
      vertex 69.252 -65.032 0
      vertex 54.6726 -51.341 0
      vertex 60.6763 -44.0839 0
    endloop
  endfacet
  facet normal 0 0 -1
    outer loop
      vertex 47.8068 -57.7885 0
      vertex 60.5553 -73.1988 0
      vertex 50.9035 -80.2112 0
    endloop
  endfacet
  facet normal 0 0 -1
    outer loop
      vertex 60.5553 -73.1988 0
      vertex 47.8068 -57.7885 0
      vertex 54.6726 -51.341 0
    endloop
  endfacet
  facet normal 0 0 -1
    outer loop
      vertex 40.187 -63.3246 0
      vertex 50.9035 -80.2112 0
      vertex 40.449 -85.9586 0
    endloop
  endfacet
  facet normal 0 0 -1
    outer loop
      vertex 50.9035 -80.2112 0
      vertex 40.187 -63.3246 0
      vertex 47.8068 -57.7885 0
    endloop
  endfacet
  facet normal 0 0 -1
    outer loop
      vertex 40.449 -85.9586 0
      vertex 31.9334 -67.862 0
      vertex 40.187 -63.3246 0
    endloop
  endfacet
  facet normal 0 0 -1
    outer loop
      vertex 29.3566 -90.3504 0
      vertex 31.9334 -67.862 0
      vertex 40.449 -85.9586 0
    endloop
  endfacet
  facet normal 0 0 -1
    outer loop
      vertex 29.3566 -90.3504 0
      vertex 23.1763 -71.3292 0
      vertex 31.9334 -67.862 0
    endloop
  endfacet
  facet normal 0 0 -1
    outer loop
      vertex 17.8012 -93.3173 0
      vertex 23.1763 -71.3292 0
      vertex 29.3566 -90.3504 0
    endloop
  endfacet
  facet normal 0 0 -1
    outer loop
      vertex 17.8012 -93.3173 0
      vertex 14.0536 -73.6715 0
      vertex 23.1763 -71.3292 0
    endloop
  endfacet
  facet normal 0 0 -1
    outer loop
      vertex 5.9651 -94.8125 0
      vertex 14.0536 -73.6715 0
      vertex 17.8012 -93.3173 0
    endloop
  endfacet
  facet normal 0 0 -1
    outer loop
      vertex 5.9651 -94.8125 0
      vertex 4.70929 -74.852 0
      vertex 14.0536 -73.6715 0
    endloop
  endfacet
  facet normal 0 0 -1
    outer loop
      vertex 5.9651 -94.8125 0
      vertex -4.70929 -74.852 0
      vertex 4.70929 -74.852 0
    endloop
  endfacet
  facet normal 0 0 -1
    outer loop
      vertex -5.9651 -94.8125 0
      vertex -4.70929 -74.852 0
      vertex 5.9651 -94.8125 0
    endloop
  endfacet
  facet normal 0 0 -1
    outer loop
      vertex -5.9651 -94.8125 0
      vertex -14.0536 -73.6715 0
      vertex -4.70929 -74.852 0
    endloop
  endfacet
  facet normal 0 0 -1
    outer loop
      vertex -17.8012 -93.3173 0
      vertex -14.0536 -73.6715 0
      vertex -5.9651 -94.8125 0
    endloop
  endfacet
  facet normal 0 0 -1
    outer loop
      vertex -17.8012 -93.3173 0
      vertex -23.1763 -71.3292 0
      vertex -14.0536 -73.6715 0
    endloop
  endfacet
  facet normal 0 0 -1
    outer loop
      vertex -29.3566 -90.3504 0
      vertex -23.1763 -71.3292 0
      vertex -17.8012 -93.3173 0
    endloop
  endfacet
  facet normal 0 0 -1
    outer loop
      vertex -29.3566 -90.3504 0
      vertex -31.9334 -67.862 0
      vertex -23.1763 -71.3292 0
    endloop
  endfacet
  facet normal 0 0 -1
    outer loop
      vertex -40.449 -85.9586 0
      vertex -31.9334 -67.862 0
      vertex -29.3566 -90.3504 0
    endloop
  endfacet
  facet normal -0 0 -1
    outer loop
      vertex -31.9334 -67.862 0
      vertex -40.449 -85.9586 0
      vertex -40.187 -63.3246 0
    endloop
  endfacet
  facet normal 0 0 -1
    outer loop
      vertex -50.9035 -80.2112 0
      vertex -40.187 -63.3246 0
      vertex -40.449 -85.9586 0
    endloop
  endfacet
  facet normal -0 0 -1
    outer loop
      vertex -40.187 -63.3246 0
      vertex -50.9035 -80.2112 0
      vertex -47.8068 -57.7885 0
    endloop
  endfacet
  facet normal 0 0 -1
    outer loop
      vertex -60.5553 -73.1988 0
      vertex -47.8068 -57.7885 0
      vertex -50.9035 -80.2112 0
    endloop
  endfacet
  facet normal -0 0 -1
    outer loop
      vertex -47.8068 -57.7885 0
      vertex -60.5553 -73.1988 0
      vertex -54.6726 -51.341 0
    endloop
  endfacet
  facet normal 0 0 -1
    outer loop
      vertex -69.252 -65.032 0
      vertex -54.6726 -51.341 0
      vertex -60.5553 -73.1988 0
    endloop
  endfacet
  facet normal -0 0 -1
    outer loop
      vertex -54.6726 -51.341 0
      vertex -69.252 -65.032 0
      vertex -60.6763 -44.0839 0
    endloop
  endfacet
  facet normal 0 0 -1
    outer loop
      vertex -76.8566 -55.8396 0
      vertex -60.6763 -44.0839 0
      vertex -69.252 -65.032 0
    endloop
  endfacet
  facet normal -0 0 -1
    outer loop
      vertex -60.6763 -44.0839 0
      vertex -76.8566 -55.8396 0
      vertex -65.723 -36.1315 0
    endloop
  endfacet
  facet normal 0 0 -1
    outer loop
      vertex -83.2491 -45.7666 0
      vertex -65.723 -36.1315 0
      vertex -76.8566 -55.8396 0
    endloop
  endfacet
  facet normal -0 0 -1
    outer loop
      vertex -65.723 -36.1315 0
      vertex -83.2491 -45.7666 0
      vertex -69.7332 -27.6093 0
    endloop
  endfacet
  facet normal -0 0 -1
    outer loop
      vertex -69.7332 -27.6093 0
      vertex -88.3288 -34.9718 0
      vertex -72.6437 -18.6517 0
    endloop
  endfacet
  facet normal 0 0 -1
    outer loop
      vertex -88.3288 -34.9718 0
      vertex -69.7332 -27.6093 0
      vertex -83.2491 -45.7666 0
    endloop
  endfacet
  facet normal 0 0 -1
    outer loop
      vertex 69.7332 27.6093 0
      vertex 88.3288 34.9718 0
      vertex 72.6437 18.6517 0
    endloop
  endfacet
  facet normal -0 0 -1
    outer loop
      vertex 88.3288 34.9718 0
      vertex 69.7332 27.6093 0
      vertex 83.2491 45.7666 0
    endloop
  endfacet
  facet normal 0 0 -1
    outer loop
      vertex 65.723 36.1315 0
      vertex 83.2491 45.7666 0
      vertex 69.7332 27.6093 0
    endloop
  endfacet
  facet normal -0 0 -1
    outer loop
      vertex 83.2491 45.7666 0
      vertex 65.723 36.1315 0
      vertex 76.8566 55.8396 0
    endloop
  endfacet
  facet normal 0 0 -1
    outer loop
      vertex 60.6763 44.0839 0
      vertex 76.8566 55.8396 0
      vertex 65.723 36.1315 0
    endloop
  endfacet
  facet normal -0 0 -1
    outer loop
      vertex 76.8566 55.8396 0
      vertex 60.6763 44.0839 0
      vertex 69.252 65.032 0
    endloop
  endfacet
  facet normal 0 0 -1
    outer loop
      vertex 54.6726 51.341 0
      vertex 69.252 65.032 0
      vertex 60.6763 44.0839 0
    endloop
  endfacet
  facet normal -0 0 -1
    outer loop
      vertex 69.252 65.032 0
      vertex 54.6726 51.341 0
      vertex 60.5553 73.1988 0
    endloop
  endfacet
  facet normal 0 0 -1
    outer loop
      vertex 47.8068 57.7885 0
      vertex 60.5553 73.1988 0
      vertex 54.6726 51.341 0
    endloop
  endfacet
  facet normal -0 0 -1
    outer loop
      vertex 60.5553 73.1988 0
      vertex 47.8068 57.7885 0
      vertex 50.9035 80.2112 0
    endloop
  endfacet
  facet normal 0 0 -1
    outer loop
      vertex 40.187 63.3246 0
      vertex 50.9035 80.2112 0
      vertex 47.8068 57.7885 0
    endloop
  endfacet
  facet normal -0 0 -1
    outer loop
      vertex 50.9035 80.2112 0
      vertex 40.187 63.3246 0
      vertex 40.449 85.9586 0
    endloop
  endfacet
  facet normal 0 0 -1
    outer loop
      vertex 31.9334 67.862 0
      vertex 40.449 85.9586 0
      vertex 40.187 63.3246 0
    endloop
  endfacet
  facet normal 0 0 -1
    outer loop
      vertex 31.9334 67.862 0
      vertex 29.3566 90.3504 0
      vertex 40.449 85.9586 0
    endloop
  endfacet
  facet normal 0 0 -1
    outer loop
      vertex 23.1763 71.3292 0
      vertex 29.3566 90.3504 0
      vertex 31.9334 67.862 0
    endloop
  endfacet
  facet normal 0 0 -1
    outer loop
      vertex 23.1763 71.3292 0
      vertex 17.8012 93.3173 0
      vertex 29.3566 90.3504 0
    endloop
  endfacet
  facet normal 0 0 -1
    outer loop
      vertex 14.0536 73.6715 0
      vertex 17.8012 93.3173 0
      vertex 23.1763 71.3292 0
    endloop
  endfacet
  facet normal 0 0 -1
    outer loop
      vertex 14.0536 73.6715 0
      vertex 5.9651 94.8125 0
      vertex 17.8012 93.3173 0
    endloop
  endfacet
  facet normal 0 0 -1
    outer loop
      vertex 4.70929 74.852 0
      vertex 5.9651 94.8125 0
      vertex 14.0536 73.6715 0
    endloop
  endfacet
  facet normal 0 0 -1
    outer loop
      vertex -4.70929 74.852 0
      vertex 5.9651 94.8125 0
      vertex 4.70929 74.852 0
    endloop
  endfacet
  facet normal 0 0 -1
    outer loop
      vertex -4.70929 74.852 0
      vertex -5.9651 94.8125 0
      vertex 5.9651 94.8125 0
    endloop
  endfacet
  facet normal 0 0 -1
    outer loop
      vertex -14.0536 73.6715 0
      vertex -5.9651 94.8125 0
      vertex -4.70929 74.852 0
    endloop
  endfacet
  facet normal 0 0 -1
    outer loop
      vertex -14.0536 73.6715 0
      vertex -17.8012 93.3173 0
      vertex -5.9651 94.8125 0
    endloop
  endfacet
  facet normal 0 0 -1
    outer loop
      vertex -23.1763 71.3292 0
      vertex -17.8012 93.3173 0
      vertex -14.0536 73.6715 0
    endloop
  endfacet
  facet normal 0 0 -1
    outer loop
      vertex -23.1763 71.3292 0
      vertex -29.3566 90.3504 0
      vertex -17.8012 93.3173 0
    endloop
  endfacet
  facet normal 0 0 -1
    outer loop
      vertex -31.9334 67.862 0
      vertex -29.3566 90.3504 0
      vertex -23.1763 71.3292 0
    endloop
  endfacet
  facet normal 0 0 -1
    outer loop
      vertex -40.449 85.9586 0
      vertex -31.9334 67.862 0
      vertex -40.187 63.3246 0
    endloop
  endfacet
  facet normal 0 0 -1
    outer loop
      vertex -31.9334 67.862 0
      vertex -40.449 85.9586 0
      vertex -29.3566 90.3504 0
    endloop
  endfacet
  facet normal 0 0 -1
    outer loop
      vertex -50.9035 80.2112 0
      vertex -40.187 63.3246 0
      vertex -47.8068 57.7885 0
    endloop
  endfacet
  facet normal 0 0 -1
    outer loop
      vertex -40.187 63.3246 0
      vertex -50.9035 80.2112 0
      vertex -40.449 85.9586 0
    endloop
  endfacet
  facet normal 0 0 -1
    outer loop
      vertex -60.5553 73.1988 0
      vertex -47.8068 57.7885 0
      vertex -54.6726 51.341 0
    endloop
  endfacet
  facet normal 0 0 -1
    outer loop
      vertex -47.8068 57.7885 0
      vertex -60.5553 73.1988 0
      vertex -50.9035 80.2112 0
    endloop
  endfacet
  facet normal 0 0 -1
    outer loop
      vertex -69.252 65.032 0
      vertex -54.6726 51.341 0
      vertex -60.6763 44.0839 0
    endloop
  endfacet
  facet normal 0 0 -1
    outer loop
      vertex -76.8566 55.8396 0
      vertex -60.6763 44.0839 0
      vertex -65.723 36.1315 0
    endloop
  endfacet
  facet normal 0 0 -1
    outer loop
      vertex -54.6726 51.341 0
      vertex -69.252 65.032 0
      vertex -60.5553 73.1988 0
    endloop
  endfacet
  facet normal 0 0 -1
    outer loop
      vertex -83.2491 45.7666 0
      vertex -65.723 36.1315 0
      vertex -69.7332 27.6093 0
    endloop
  endfacet
  facet normal 0 0 -1
    outer loop
      vertex -88.3288 34.9718 0
      vertex -69.7332 27.6093 0
      vertex -72.6437 18.6517 0
    endloop
  endfacet
  facet normal 0 0 -1
    outer loop
      vertex -92.0154 23.6255 0
      vertex -72.6437 18.6517 0
      vertex -74.4086 9.39999 0
    endloop
  endfacet
  facet normal 0 0 -1
    outer loop
      vertex -60.6763 44.0839 0
      vertex -76.8566 55.8396 0
      vertex -69.252 65.032 0
    endloop
  endfacet
  facet normal 0 0 -1
    outer loop
      vertex -94.2509 11.9067 0
      vertex -74.4086 9.39999 0
      vertex -75 0 0
    endloop
  endfacet
  facet normal 0 0 -1
    outer loop
      vertex -92.0154 -23.6255 0
      vertex -72.6437 -18.6517 0
      vertex -88.3288 -34.9718 0
    endloop
  endfacet
  facet normal -0 0 -1
    outer loop
      vertex -72.6437 -18.6517 0
      vertex -92.0154 -23.6255 0
      vertex -74.4086 -9.39999 0
    endloop
  endfacet
  facet normal 0 0 -1
    outer loop
      vertex -65.723 36.1315 0
      vertex -83.2491 45.7666 0
      vertex -76.8566 55.8396 0
    endloop
  endfacet
  facet normal 0 0 -1
    outer loop
      vertex -94.2509 -11.9067 0
      vertex -74.4086 -9.39999 0
      vertex -92.0154 -23.6255 0
    endloop
  endfacet
  facet normal 0 0 -1
    outer loop
      vertex -69.7332 27.6093 0
      vertex -88.3288 34.9718 0
      vertex -83.2491 45.7666 0
    endloop
  endfacet
  facet normal -0 0 -1
    outer loop
      vertex -74.4086 -9.39999 0
      vertex -94.2509 -11.9067 0
      vertex -75 0 0
    endloop
  endfacet
  facet normal 0 0 -1
    outer loop
      vertex -72.6437 18.6517 0
      vertex -92.0154 23.6255 0
      vertex -88.3288 34.9718 0
    endloop
  endfacet
  facet normal 0 0 -1
    outer loop
      vertex -95 0 0
      vertex -75 0 0
      vertex -94.2509 -11.9067 0
    endloop
  endfacet
  facet normal 0 0 -1
    outer loop
      vertex -74.4086 9.39999 0
      vertex -94.2509 11.9067 0
      vertex -92.0154 23.6255 0
    endloop
  endfacet
  facet normal 0 0 -1
    outer loop
      vertex -75 0 0
      vertex -95 0 0
      vertex -94.2509 11.9067 0
    endloop
  endfacet
  facet normal 0.125329 -0.992115 0
    outer loop
      vertex 5.9651 -94.8125 0
      vertex 17.8012 -93.3173 20
      vertex 5.9651 -94.8125 20
    endloop
  endfacet
  facet normal 0.125329 -0.992115 0
    outer loop
      vertex 17.8012 -93.3173 20
      vertex 5.9651 -94.8125 0
      vertex 17.8012 -93.3173 0
    endloop
  endfacet
  facet normal 0.951057 0.309014 0
    outer loop
      vertex 92.0154 23.6255 20
      vertex 88.3288 34.9718 0
      vertex 88.3288 34.9718 20
    endloop
  endfacet
  facet normal 0.951057 0.309014 0
    outer loop
      vertex 88.3288 34.9718 0
      vertex 92.0154 23.6255 20
      vertex 92.0154 23.6255 0
    endloop
  endfacet
  facet normal 0.982287 0.187383 0
    outer loop
      vertex 94.2509 11.9067 20
      vertex 92.0154 23.6255 0
      vertex 92.0154 23.6255 20
    endloop
  endfacet
  facet normal 0.982287 0.187383 0
    outer loop
      vertex 92.0154 23.6255 0
      vertex 94.2509 11.9067 20
      vertex 94.2509 11.9067 0
    endloop
  endfacet
  facet normal 0.770514 0.637423 0
    outer loop
      vertex 76.8566 55.8396 20
      vertex 69.252 65.032 0
      vertex 69.252 65.032 20
    endloop
  endfacet
  facet normal 0.770514 0.637423 0
    outer loop
      vertex 69.252 65.032 0
      vertex 76.8566 55.8396 20
      vertex 76.8566 55.8396 0
    endloop
  endfacet
  facet normal 0.248688 0.968584 -0
    outer loop
      vertex 29.3566 90.3504 0
      vertex 17.8012 93.3173 20
      vertex 29.3566 90.3504 20
    endloop
  endfacet
  facet normal 0.248688 0.968584 0
    outer loop
      vertex 17.8012 93.3173 20
      vertex 29.3566 90.3504 0
      vertex 17.8012 93.3173 0
    endloop
  endfacet
  facet normal 0.125329 0.992115 -0
    outer loop
      vertex 17.8012 93.3173 0
      vertex 5.9651 94.8125 20
      vertex 17.8012 93.3173 20
    endloop
  endfacet
  facet normal 0.125329 0.992115 0
    outer loop
      vertex 5.9651 94.8125 20
      vertex 17.8012 93.3173 0
      vertex 5.9651 94.8125 0
    endloop
  endfacet
  facet normal 0.481753 0.876307 -0
    outer loop
      vertex 50.9035 80.2112 0
      vertex 40.449 85.9586 20
      vertex 50.9035 80.2112 20
    endloop
  endfacet
  facet normal 0.481753 0.876307 0
    outer loop
      vertex 40.449 85.9586 20
      vertex 50.9035 80.2112 0
      vertex 40.449 85.9586 0
    endloop
  endfacet
  facet normal -0.844329 0.535826 0
    outer loop
      vertex -83.2491 45.7666 0
      vertex -76.8566 55.8396 20
      vertex -76.8566 55.8396 0
    endloop
  endfacet
  facet normal -0.844329 0.535826 0
    outer loop
      vertex -76.8566 55.8396 20
      vertex -83.2491 45.7666 0
      vertex -83.2491 45.7666 20
    endloop
  endfacet
  facet normal -0.951057 0.309014 0
    outer loop
      vertex -92.0154 23.6255 0
      vertex -88.3288 34.9718 20
      vertex -88.3288 34.9718 0
    endloop
  endfacet
  facet normal -0.951057 0.309014 0
    outer loop
      vertex -88.3288 34.9718 20
      vertex -92.0154 23.6255 0
      vertex -92.0154 23.6255 20
    endloop
  endfacet
  facet normal -0.982287 0.187383 0
    outer loop
      vertex -94.2509 11.9067 0
      vertex -92.0154 23.6255 20
      vertex -92.0154 23.6255 0
    endloop
  endfacet
  facet normal -0.982287 0.187383 0
    outer loop
      vertex -92.0154 23.6255 20
      vertex -94.2509 11.9067 0
      vertex -94.2509 11.9067 20
    endloop
  endfacet
  facet normal -0.587783 0.809019 0
    outer loop
      vertex -50.9035 80.2112 0
      vertex -60.5553 73.1988 20
      vertex -50.9035 80.2112 20
    endloop
  endfacet
  facet normal -0.587783 0.809019 0
    outer loop
      vertex -60.5553 73.1988 20
      vertex -50.9035 80.2112 0
      vertex -60.5553 73.1988 0
    endloop
  endfacet
  facet normal -0.125329 0.992115 0
    outer loop
      vertex -5.9651 94.8125 0
      vertex -17.8012 93.3173 20
      vertex -5.9651 94.8125 20
    endloop
  endfacet
  facet normal -0.125329 0.992115 0
    outer loop
      vertex -17.8012 93.3173 20
      vertex -5.9651 94.8125 0
      vertex -17.8012 93.3173 0
    endloop
  endfacet
  facet normal 0.998027 -0.06279 0
    outer loop
      vertex 94.2509 -11.9067 20
      vertex 95 0 0
      vertex 95 0 20
    endloop
  endfacet
  facet normal 0.998027 -0.06279 0
    outer loop
      vertex 95 0 0
      vertex 94.2509 -11.9067 20
      vertex 94.2509 -11.9067 0
    endloop
  endfacet
  facet normal 0.951057 -0.309014 0
    outer loop
      vertex 88.3288 -34.9718 20
      vertex 92.0154 -23.6255 0
      vertex 92.0154 -23.6255 20
    endloop
  endfacet
  facet normal 0.951057 -0.309014 0
    outer loop
      vertex 92.0154 -23.6255 0
      vertex 88.3288 -34.9718 20
      vertex 88.3288 -34.9718 0
    endloop
  endfacet
  facet normal -0.68455 -0.728966 0
    outer loop
      vertex -69.252 -65.032 0
      vertex -60.5553 -73.1988 20
      vertex -69.252 -65.032 20
    endloop
  endfacet
  facet normal -0.68455 -0.728966 -0
    outer loop
      vertex -60.5553 -73.1988 20
      vertex -69.252 -65.032 0
      vertex -60.5553 -73.1988 0
    endloop
  endfacet
  facet normal -0.904825 -0.425783 0
    outer loop
      vertex -83.2491 -45.7666 0
      vertex -88.3288 -34.9718 20
      vertex -88.3288 -34.9718 0
    endloop
  endfacet
  facet normal -0.904825 -0.425783 0
    outer loop
      vertex -88.3288 -34.9718 20
      vertex -83.2491 -45.7666 0
      vertex -83.2491 -45.7666 20
    endloop
  endfacet
  facet normal -0.770514 -0.637423 0
    outer loop
      vertex -69.252 -65.032 0
      vertex -76.8566 -55.8396 20
      vertex -76.8566 -55.8396 0
    endloop
  endfacet
  facet normal -0.770514 -0.637423 0
    outer loop
      vertex -76.8566 -55.8396 20
      vertex -69.252 -65.032 0
      vertex -69.252 -65.032 20
    endloop
  endfacet
  facet normal 0.587783 -0.809019 0
    outer loop
      vertex 50.9035 -80.2112 0
      vertex 60.5553 -73.1988 20
      vertex 50.9035 -80.2112 20
    endloop
  endfacet
  facet normal 0.587783 -0.809019 0
    outer loop
      vertex 60.5553 -73.1988 20
      vertex 50.9035 -80.2112 0
      vertex 60.5553 -73.1988 0
    endloop
  endfacet
  facet normal -0.982287 -0.187383 0
    outer loop
      vertex -92.0154 -23.6255 0
      vertex -94.2509 -11.9067 20
      vertex -94.2509 -11.9067 0
    endloop
  endfacet
  facet normal -0.982287 -0.187383 0
    outer loop
      vertex -94.2509 -11.9067 20
      vertex -92.0154 -23.6255 0
      vertex -92.0154 -23.6255 20
    endloop
  endfacet
  facet normal -0.998027 -0.06279 0
    outer loop
      vertex -94.2509 -11.9067 0
      vertex -95 0 20
      vertex -95 0 0
    endloop
  endfacet
  facet normal -0.998027 -0.06279 0
    outer loop
      vertex -95 0 20
      vertex -94.2509 -11.9067 0
      vertex -94.2509 -11.9067 20
    endloop
  endfacet
  facet normal -0.951057 -0.309014 0
    outer loop
      vertex -88.3288 -34.9718 0
      vertex -92.0154 -23.6255 20
      vertex -92.0154 -23.6255 0
    endloop
  endfacet
  facet normal -0.951057 -0.309014 0
    outer loop
      vertex -92.0154 -23.6255 20
      vertex -88.3288 -34.9718 0
      vertex -88.3288 -34.9718 20
    endloop
  endfacet
  facet normal 0.770514 -0.637423 0
    outer loop
      vertex 69.252 -65.032 20
      vertex 76.8566 -55.8396 0
      vertex 76.8566 -55.8396 20
    endloop
  endfacet
  facet normal 0.770514 -0.637423 0
    outer loop
      vertex 76.8566 -55.8396 0
      vertex 69.252 -65.032 20
      vertex 69.252 -65.032 0
    endloop
  endfacet
  facet normal 0.481753 -0.876307 0
    outer loop
      vertex 40.449 -85.9586 0
      vertex 50.9035 -80.2112 20
      vertex 40.449 -85.9586 20
    endloop
  endfacet
  facet normal 0.481753 -0.876307 0
    outer loop
      vertex 50.9035 -80.2112 20
      vertex 40.449 -85.9586 0
      vertex 50.9035 -80.2112 0
    endloop
  endfacet
  facet normal 0.904825 -0.425783 0
    outer loop
      vertex 83.2491 -45.7666 20
      vertex 88.3288 -34.9718 0
      vertex 88.3288 -34.9718 20
    endloop
  endfacet
  facet normal 0.904825 -0.425783 0
    outer loop
      vertex 88.3288 -34.9718 0
      vertex 83.2491 -45.7666 20
      vertex 83.2491 -45.7666 0
    endloop
  endfacet
  facet normal 0.844329 -0.535826 0
    outer loop
      vertex 76.8566 -55.8396 20
      vertex 83.2491 -45.7666 0
      vertex 83.2491 -45.7666 20
    endloop
  endfacet
  facet normal 0.844329 -0.535826 0
    outer loop
      vertex 83.2491 -45.7666 0
      vertex 76.8566 -55.8396 20
      vertex 76.8566 -55.8396 0
    endloop
  endfacet
  facet normal -0.125329 -0.992115 0
    outer loop
      vertex -17.8012 -93.3173 0
      vertex -5.9651 -94.8125 20
      vertex -17.8012 -93.3173 20
    endloop
  endfacet
  facet normal -0.125329 -0.992115 -0
    outer loop
      vertex -5.9651 -94.8125 20
      vertex -17.8012 -93.3173 0
      vertex -5.9651 -94.8125 0
    endloop
  endfacet
  facet normal -0.368125 -0.929776 0
    outer loop
      vertex -40.449 -85.9586 0
      vertex -29.3566 -90.3504 20
      vertex -40.449 -85.9586 20
    endloop
  endfacet
  facet normal -0.368125 -0.929776 -0
    outer loop
      vertex -29.3566 -90.3504 20
      vertex -40.449 -85.9586 0
      vertex -29.3566 -90.3504 0
    endloop
  endfacet
  facet normal -0.248688 -0.968584 0
    outer loop
      vertex -29.3566 -90.3504 0
      vertex -17.8012 -93.3173 20
      vertex -29.3566 -90.3504 20
    endloop
  endfacet
  facet normal -0.248688 -0.968584 -0
    outer loop
      vertex -17.8012 -93.3173 20
      vertex -29.3566 -90.3504 0
      vertex -17.8012 -93.3173 0
    endloop
  endfacet
  facet normal -0.844329 -0.535826 0
    outer loop
      vertex -76.8566 -55.8396 0
      vertex -83.2491 -45.7666 20
      vertex -83.2491 -45.7666 0
    endloop
  endfacet
  facet normal -0.844329 -0.535826 0
    outer loop
      vertex -83.2491 -45.7666 20
      vertex -76.8566 -55.8396 0
      vertex -76.8566 -55.8396 20
    endloop
  endfacet
  facet normal 0.68455 -0.728966 0
    outer loop
      vertex 60.5553 -73.1988 0
      vertex 69.252 -65.032 20
      vertex 60.5553 -73.1988 20
    endloop
  endfacet
  facet normal 0.68455 -0.728966 0
    outer loop
      vertex 69.252 -65.032 20
      vertex 60.5553 -73.1988 0
      vertex 69.252 -65.032 0
    endloop
  endfacet
  facet normal 0.368125 -0.929776 0
    outer loop
      vertex 29.3566 -90.3504 0
      vertex 40.449 -85.9586 20
      vertex 29.3566 -90.3504 20
    endloop
  endfacet
  facet normal 0.368125 -0.929776 0
    outer loop
      vertex 40.449 -85.9586 20
      vertex 29.3566 -90.3504 0
      vertex 40.449 -85.9586 0
    endloop
  endfacet
  facet normal 0.248688 -0.968584 0
    outer loop
      vertex 17.8012 -93.3173 0
      vertex 29.3566 -90.3504 20
      vertex 17.8012 -93.3173 20
    endloop
  endfacet
  facet normal 0.248688 -0.968584 0
    outer loop
      vertex 29.3566 -90.3504 20
      vertex 17.8012 -93.3173 0
      vertex 29.3566 -90.3504 0
    endloop
  endfacet
  facet normal -0.481753 -0.876307 0
    outer loop
      vertex -50.9035 -80.2112 0
      vertex -40.449 -85.9586 20
      vertex -50.9035 -80.2112 20
    endloop
  endfacet
  facet normal -0.481753 -0.876307 -0
    outer loop
      vertex -40.449 -85.9586 20
      vertex -50.9035 -80.2112 0
      vertex -40.449 -85.9586 0
    endloop
  endfacet
  facet normal -0.587783 -0.809019 0
    outer loop
      vertex -60.5553 -73.1988 0
      vertex -50.9035 -80.2112 20
      vertex -60.5553 -73.1988 20
    endloop
  endfacet
  facet normal -0.587783 -0.809019 -0
    outer loop
      vertex -50.9035 -80.2112 20
      vertex -60.5553 -73.1988 0
      vertex -50.9035 -80.2112 0
    endloop
  endfacet
  facet normal -0.998027 -0.0627908 0
    outer loop
      vertex 75 0 0
      vertex 74.4086 9.39999 20
      vertex 74.4086 9.39999 0
    endloop
  endfacet
  facet normal -0.998027 -0.0627908 0
    outer loop
      vertex 74.4086 9.39999 20
      vertex 75 0 0
      vertex 75 0 20
    endloop
  endfacet
  facet normal 0.998027 -0.0627908 0
    outer loop
      vertex -75 0 20
      vertex -74.4086 9.39999 0
      vertex -74.4086 9.39999 20
    endloop
  endfacet
  facet normal 0.998027 -0.0627908 0
    outer loop
      vertex -74.4086 9.39999 0
      vertex -75 0 20
      vertex -75 0 0
    endloop
  endfacet
  facet normal 0 -1 0
    outer loop
      vertex -4.70929 74.852 0
      vertex 4.70929 74.852 20
      vertex -4.70929 74.852 20
    endloop
  endfacet
  facet normal 0 -1 -0
    outer loop
      vertex 4.70929 74.852 20
      vertex -4.70929 74.852 0
      vertex 4.70929 74.852 0
    endloop
  endfacet
  facet normal 0 1 -0
    outer loop
      vertex 4.70929 -74.852 0
      vertex -4.70929 -74.852 20
      vertex 4.70929 -74.852 20
    endloop
  endfacet
  facet normal 0 1 0
    outer loop
      vertex -4.70929 -74.852 20
      vertex 4.70929 -74.852 0
      vertex -4.70929 -74.852 0
    endloop
  endfacet
  facet normal -0.684552 -0.728964 0
    outer loop
      vertex 47.8068 57.7885 0
      vertex 54.6726 51.341 20
      vertex 47.8068 57.7885 20
    endloop
  endfacet
  facet normal -0.684552 -0.728964 -0
    outer loop
      vertex 54.6726 51.341 20
      vertex 47.8068 57.7885 0
      vertex 54.6726 51.341 0
    endloop
  endfacet
  facet normal 0.684552 -0.728964 0
    outer loop
      vertex -54.6726 51.341 0
      vertex -47.8068 57.7885 20
      vertex -54.6726 51.341 20
    endloop
  endfacet
  facet normal 0.684552 -0.728964 0
    outer loop
      vertex -47.8068 57.7885 20
      vertex -54.6726 51.341 0
      vertex -47.8068 57.7885 0
    endloop
  endfacet
  facet normal 0.368126 -0.929776 0
    outer loop
      vertex -31.9334 67.862 0
      vertex -23.1763 71.3292 20
      vertex -31.9334 67.862 20
    endloop
  endfacet
  facet normal 0.368126 -0.929776 0
    outer loop
      vertex -23.1763 71.3292 20
      vertex -31.9334 67.862 0
      vertex -23.1763 71.3292 0
    endloop
  endfacet
  facet normal -0.904829 -0.425776 0
    outer loop
      vertex 69.7332 27.6093 0
      vertex 65.723 36.1315 20
      vertex 65.723 36.1315 0
    endloop
  endfacet
  facet normal -0.904829 -0.425776 0
    outer loop
      vertex 65.723 36.1315 20
      vertex 69.7332 27.6093 0
      vertex 69.7332 27.6093 20
    endloop
  endfacet
  facet normal -0.982286 -0.187386 0
    outer loop
      vertex 74.4086 9.39999 0
      vertex 72.6437 18.6517 20
      vertex 72.6437 18.6517 0
    endloop
  endfacet
  facet normal -0.982286 -0.187386 0
    outer loop
      vertex 72.6437 18.6517 20
      vertex 74.4086 9.39999 0
      vertex 74.4086 9.39999 20
    endloop
  endfacet
  facet normal -0.84433 -0.535823 0
    outer loop
      vertex 65.723 36.1315 0
      vertex 60.6763 44.0839 20
      vertex 60.6763 44.0839 0
    endloop
  endfacet
  facet normal -0.84433 -0.535823 0
    outer loop
      vertex 60.6763 44.0839 20
      vertex 65.723 36.1315 0
      vertex 65.723 36.1315 20
    endloop
  endfacet
  facet normal -0.368126 -0.929776 0
    outer loop
      vertex 23.1763 71.3292 0
      vertex 31.9334 67.862 20
      vertex 23.1763 71.3292 20
    endloop
  endfacet
  facet normal -0.368126 -0.929776 -0
    outer loop
      vertex 31.9334 67.862 20
      vertex 23.1763 71.3292 0
      vertex 31.9334 67.862 0
    endloop
  endfacet
  facet normal -0.248689 -0.968583 0
    outer loop
      vertex 14.0536 73.6715 0
      vertex 23.1763 71.3292 20
      vertex 14.0536 73.6715 20
    endloop
  endfacet
  facet normal -0.248689 -0.968583 -0
    outer loop
      vertex 23.1763 71.3292 20
      vertex 14.0536 73.6715 0
      vertex 23.1763 71.3292 0
    endloop
  endfacet
  facet normal -0.481749 -0.876309 0
    outer loop
      vertex 31.9334 67.862 0
      vertex 40.187 63.3246 20
      vertex 31.9334 67.862 20
    endloop
  endfacet
  facet normal -0.481749 -0.876309 -0
    outer loop
      vertex 40.187 63.3246 20
      vertex 31.9334 67.862 0
      vertex 40.187 63.3246 0
    endloop
  endfacet
  facet normal 0.904829 -0.425776 0
    outer loop
      vertex -69.7332 27.6093 20
      vertex -65.723 36.1315 0
      vertex -65.723 36.1315 20
    endloop
  endfacet
  facet normal 0.904829 -0.425776 0
    outer loop
      vertex -65.723 36.1315 0
      vertex -69.7332 27.6093 20
      vertex -69.7332 27.6093 0
    endloop
  endfacet
  facet normal 0.770508 -0.637431 0
    outer loop
      vertex -60.6763 44.0839 20
      vertex -54.6726 51.341 0
      vertex -54.6726 51.341 20
    endloop
  endfacet
  facet normal 0.770508 -0.637431 0
    outer loop
      vertex -54.6726 51.341 0
      vertex -60.6763 44.0839 20
      vertex -60.6763 44.0839 0
    endloop
  endfacet
  facet normal 0.951057 -0.309017 0
    outer loop
      vertex -72.6437 18.6517 20
      vertex -69.7332 27.6093 0
      vertex -69.7332 27.6093 20
    endloop
  endfacet
  facet normal 0.951057 -0.309017 0
    outer loop
      vertex -69.7332 27.6093 0
      vertex -72.6437 18.6517 20
      vertex -72.6437 18.6517 0
    endloop
  endfacet
  facet normal 0.248689 -0.968583 0
    outer loop
      vertex -23.1763 71.3292 0
      vertex -14.0536 73.6715 20
      vertex -23.1763 71.3292 20
    endloop
  endfacet
  facet normal 0.248689 -0.968583 0
    outer loop
      vertex -14.0536 73.6715 20
      vertex -23.1763 71.3292 0
      vertex -14.0536 73.6715 0
    endloop
  endfacet
  facet normal -0.125337 0.992114 0
    outer loop
      vertex 14.0536 -73.6715 0
      vertex 4.70929 -74.852 20
      vertex 14.0536 -73.6715 20
    endloop
  endfacet
  facet normal -0.125337 0.992114 0
    outer loop
      vertex 4.70929 -74.852 20
      vertex 14.0536 -73.6715 0
      vertex 4.70929 -74.852 0
    endloop
  endfacet
  facet normal -0.951057 -0.309017 0
    outer loop
      vertex 72.6437 18.6517 0
      vertex 69.7332 27.6093 20
      vertex 69.7332 27.6093 0
    endloop
  endfacet
  facet normal -0.951057 -0.309017 0
    outer loop
      vertex 69.7332 27.6093 20
      vertex 72.6437 18.6517 0
      vertex 72.6437 18.6517 20
    endloop
  endfacet
  facet normal -0.770508 -0.637431 0
    outer loop
      vertex 60.6763 44.0839 0
      vertex 54.6726 51.341 20
      vertex 54.6726 51.341 0
    endloop
  endfacet
  facet normal -0.770508 -0.637431 0
    outer loop
      vertex 54.6726 51.341 20
      vertex 60.6763 44.0839 0
      vertex 60.6763 44.0839 20
    endloop
  endfacet
  facet normal -0.125337 -0.992114 0
    outer loop
      vertex 4.70929 74.852 0
      vertex 14.0536 73.6715 20
      vertex 4.70929 74.852 20
    endloop
  endfacet
  facet normal -0.125337 -0.992114 -0
    outer loop
      vertex 14.0536 73.6715 20
      vertex 4.70929 74.852 0
      vertex 14.0536 73.6715 0
    endloop
  endfacet
  facet normal -0.587785 -0.809017 0
    outer loop
      vertex 40.187 63.3246 0
      vertex 47.8068 57.7885 20
      vertex 40.187 63.3246 20
    endloop
  endfacet
  facet normal -0.587785 -0.809017 -0
    outer loop
      vertex 47.8068 57.7885 20
      vertex 40.187 63.3246 0
      vertex 47.8068 57.7885 0
    endloop
  endfacet
  facet normal 0.84433 -0.535823 0
    outer loop
      vertex -65.723 36.1315 20
      vertex -60.6763 44.0839 0
      vertex -60.6763 44.0839 20
    endloop
  endfacet
  facet normal 0.84433 -0.535823 0
    outer loop
      vertex -60.6763 44.0839 0
      vertex -65.723 36.1315 20
      vertex -65.723 36.1315 0
    endloop
  endfacet
  facet normal 0.982286 -0.187386 0
    outer loop
      vertex -74.4086 9.39999 20
      vertex -72.6437 18.6517 0
      vertex -72.6437 18.6517 20
    endloop
  endfacet
  facet normal 0.982286 -0.187386 0
    outer loop
      vertex -72.6437 18.6517 0
      vertex -74.4086 9.39999 20
      vertex -74.4086 9.39999 0
    endloop
  endfacet
  facet normal 0.481749 -0.876309 0
    outer loop
      vertex -40.187 63.3246 0
      vertex -31.9334 67.862 20
      vertex -40.187 63.3246 20
    endloop
  endfacet
  facet normal 0.481749 -0.876309 0
    outer loop
      vertex -31.9334 67.862 20
      vertex -40.187 63.3246 0
      vertex -31.9334 67.862 0
    endloop
  endfacet
  facet normal 0.587785 -0.809017 0
    outer loop
      vertex -47.8068 57.7885 0
      vertex -40.187 63.3246 20
      vertex -47.8068 57.7885 20
    endloop
  endfacet
  facet normal 0.587785 -0.809017 0
    outer loop
      vertex -40.187 63.3246 20
      vertex -47.8068 57.7885 0
      vertex -40.187 63.3246 0
    endloop
  endfacet
  facet normal 0.125337 -0.992114 0
    outer loop
      vertex -14.0536 73.6715 0
      vertex -4.70929 74.852 20
      vertex -14.0536 73.6715 20
    endloop
  endfacet
  facet normal 0.125337 -0.992114 0
    outer loop
      vertex -4.70929 74.852 20
      vertex -14.0536 73.6715 0
      vertex -4.70929 74.852 0
    endloop
  endfacet
  facet normal -0.998027 0.0627908 0
    outer loop
      vertex 74.4086 -9.39999 0
      vertex 75 0 20
      vertex 75 0 0
    endloop
  endfacet
  facet normal -0.998027 0.0627908 0
    outer loop
      vertex 75 0 20
      vertex 74.4086 -9.39999 0
      vertex 74.4086 -9.39999 20
    endloop
  endfacet
  facet normal -0.770508 0.637431 0
    outer loop
      vertex 54.6726 -51.341 0
      vertex 60.6763 -44.0839 20
      vertex 60.6763 -44.0839 0
    endloop
  endfacet
  facet normal -0.770508 0.637431 0
    outer loop
      vertex 60.6763 -44.0839 20
      vertex 54.6726 -51.341 0
      vertex 54.6726 -51.341 20
    endloop
  endfacet
  facet normal -0.951057 0.309017 0
    outer loop
      vertex 69.7332 -27.6093 0
      vertex 72.6437 -18.6517 20
      vertex 72.6437 -18.6517 0
    endloop
  endfacet
  facet normal -0.951057 0.309017 0
    outer loop
      vertex 72.6437 -18.6517 20
      vertex 69.7332 -27.6093 0
      vertex 69.7332 -27.6093 20
    endloop
  endfacet
  facet normal -0.982286 0.187386 0
    outer loop
      vertex 72.6437 -18.6517 0
      vertex 74.4086 -9.39999 20
      vertex 74.4086 -9.39999 0
    endloop
  endfacet
  facet normal -0.982286 0.187386 0
    outer loop
      vertex 74.4086 -9.39999 20
      vertex 72.6437 -18.6517 0
      vertex 72.6437 -18.6517 20
    endloop
  endfacet
  facet normal -0.684552 0.728964 0
    outer loop
      vertex 54.6726 -51.341 0
      vertex 47.8068 -57.7885 20
      vertex 54.6726 -51.341 20
    endloop
  endfacet
  facet normal -0.684552 0.728964 0
    outer loop
      vertex 47.8068 -57.7885 20
      vertex 54.6726 -51.341 0
      vertex 47.8068 -57.7885 0
    endloop
  endfacet
  facet normal -0.84433 0.535823 0
    outer loop
      vertex 60.6763 -44.0839 0
      vertex 65.723 -36.1315 20
      vertex 65.723 -36.1315 0
    endloop
  endfacet
  facet normal -0.84433 0.535823 0
    outer loop
      vertex 65.723 -36.1315 20
      vertex 60.6763 -44.0839 0
      vertex 60.6763 -44.0839 20
    endloop
  endfacet
  facet normal 0.248689 0.968583 -0
    outer loop
      vertex -14.0536 -73.6715 0
      vertex -23.1763 -71.3292 20
      vertex -14.0536 -73.6715 20
    endloop
  endfacet
  facet normal 0.248689 0.968583 0
    outer loop
      vertex -23.1763 -71.3292 20
      vertex -14.0536 -73.6715 0
      vertex -23.1763 -71.3292 0
    endloop
  endfacet
  facet normal 0.951057 0.309017 0
    outer loop
      vertex -69.7332 -27.6093 20
      vertex -72.6437 -18.6517 0
      vertex -72.6437 -18.6517 20
    endloop
  endfacet
  facet normal 0.951057 0.309017 0
    outer loop
      vertex -72.6437 -18.6517 0
      vertex -69.7332 -27.6093 20
      vertex -69.7332 -27.6093 0
    endloop
  endfacet
  facet normal -0.368126 0.929776 0
    outer loop
      vertex 31.9334 -67.862 0
      vertex 23.1763 -71.3292 20
      vertex 31.9334 -67.862 20
    endloop
  endfacet
  facet normal -0.368126 0.929776 0
    outer loop
      vertex 23.1763 -71.3292 20
      vertex 31.9334 -67.862 0
      vertex 23.1763 -71.3292 0
    endloop
  endfacet
  facet normal -0.248689 0.968583 0
    outer loop
      vertex 23.1763 -71.3292 0
      vertex 14.0536 -73.6715 20
      vertex 23.1763 -71.3292 20
    endloop
  endfacet
  facet normal -0.248689 0.968583 0
    outer loop
      vertex 14.0536 -73.6715 20
      vertex 23.1763 -71.3292 0
      vertex 14.0536 -73.6715 0
    endloop
  endfacet
  facet normal -0.904829 0.425776 0
    outer loop
      vertex 65.723 -36.1315 0
      vertex 69.7332 -27.6093 20
      vertex 69.7332 -27.6093 0
    endloop
  endfacet
  facet normal -0.904829 0.425776 0
    outer loop
      vertex 69.7332 -27.6093 20
      vertex 65.723 -36.1315 0
      vertex 65.723 -36.1315 20
    endloop
  endfacet
  facet normal 0.125337 0.992114 -0
    outer loop
      vertex -4.70929 -74.852 0
      vertex -14.0536 -73.6715 20
      vertex -4.70929 -74.852 20
    endloop
  endfacet
  facet normal 0.125337 0.992114 0
    outer loop
      vertex -14.0536 -73.6715 20
      vertex -4.70929 -74.852 0
      vertex -14.0536 -73.6715 0
    endloop
  endfacet
  facet normal 0.368126 0.929776 -0
    outer loop
      vertex -23.1763 -71.3292 0
      vertex -31.9334 -67.862 20
      vertex -23.1763 -71.3292 20
    endloop
  endfacet
  facet normal 0.368126 0.929776 0
    outer loop
      vertex -31.9334 -67.862 20
      vertex -23.1763 -71.3292 0
      vertex -31.9334 -67.862 0
    endloop
  endfacet
  facet normal 0.904829 0.425776 0
    outer loop
      vertex -65.723 -36.1315 20
      vertex -69.7332 -27.6093 0
      vertex -69.7332 -27.6093 20
    endloop
  endfacet
  facet normal 0.904829 0.425776 0
    outer loop
      vertex -69.7332 -27.6093 0
      vertex -65.723 -36.1315 20
      vertex -65.723 -36.1315 0
    endloop
  endfacet
  facet normal 0.770508 0.637431 0
    outer loop
      vertex -54.6726 -51.341 20
      vertex -60.6763 -44.0839 0
      vertex -60.6763 -44.0839 20
    endloop
  endfacet
  facet normal 0.770508 0.637431 0
    outer loop
      vertex -60.6763 -44.0839 0
      vertex -54.6726 -51.341 20
      vertex -54.6726 -51.341 0
    endloop
  endfacet
  facet normal 0.84433 0.535823 0
    outer loop
      vertex -60.6763 -44.0839 20
      vertex -65.723 -36.1315 0
      vertex -65.723 -36.1315 20
    endloop
  endfacet
  facet normal 0.84433 0.535823 0
    outer loop
      vertex -65.723 -36.1315 0
      vertex -60.6763 -44.0839 20
      vertex -60.6763 -44.0839 0
    endloop
  endfacet
  facet normal 0.684552 0.728964 -0
    outer loop
      vertex -47.8068 -57.7885 0
      vertex -54.6726 -51.341 20
      vertex -47.8068 -57.7885 20
    endloop
  endfacet
  facet normal 0.684552 0.728964 0
    outer loop
      vertex -54.6726 -51.341 20
      vertex -47.8068 -57.7885 0
      vertex -54.6726 -51.341 0
    endloop
  endfacet
  facet normal 0.982286 0.187386 0
    outer loop
      vertex -72.6437 -18.6517 20
      vertex -74.4086 -9.39999 0
      vertex -74.4086 -9.39999 20
    endloop
  endfacet
  facet normal 0.982286 0.187386 0
    outer loop
      vertex -74.4086 -9.39999 0
      vertex -72.6437 -18.6517 20
      vertex -72.6437 -18.6517 0
    endloop
  endfacet
  facet normal 0.998027 0.0627908 0
    outer loop
      vertex -74.4086 -9.39999 20
      vertex -75 0 0
      vertex -75 0 20
    endloop
  endfacet
  facet normal 0.998027 0.0627908 0
    outer loop
      vertex -75 0 0
      vertex -74.4086 -9.39999 20
      vertex -74.4086 -9.39999 0
    endloop
  endfacet
  facet normal -0.587785 0.809017 0
    outer loop
      vertex 47.8068 -57.7885 0
      vertex 40.187 -63.3246 20
      vertex 47.8068 -57.7885 20
    endloop
  endfacet
  facet normal -0.587785 0.809017 0
    outer loop
      vertex 40.187 -63.3246 20
      vertex 47.8068 -57.7885 0
      vertex 40.187 -63.3246 0
    endloop
  endfacet
  facet normal -0.481749 0.876309 0
    outer loop
      vertex 40.187 -63.3246 0
      vertex 31.9334 -67.862 20
      vertex 40.187 -63.3246 20
    endloop
  endfacet
  facet normal -0.481749 0.876309 0
    outer loop
      vertex 31.9334 -67.862 20
      vertex 40.187 -63.3246 0
      vertex 31.9334 -67.862 0
    endloop
  endfacet
  facet normal 0.587785 0.809017 -0
    outer loop
      vertex -40.187 -63.3246 0
      vertex -47.8068 -57.7885 20
      vertex -40.187 -63.3246 20
    endloop
  endfacet
  facet normal 0.587785 0.809017 0
    outer loop
      vertex -47.8068 -57.7885 20
      vertex -40.187 -63.3246 0
      vertex -47.8068 -57.7885 0
    endloop
  endfacet
  facet normal 0.481749 0.876309 -0
    outer loop
      vertex -31.9334 -67.862 0
      vertex -40.187 -63.3246 20
      vertex -31.9334 -67.862 20
    endloop
  endfacet
  facet normal 0.481749 0.876309 0
    outer loop
      vertex -40.187 -63.3246 20
      vertex -31.9334 -67.862 0
      vertex -40.187 -63.3246 0
    endloop
  endfacet
endsolid OpenSCAD_Model
