  0
SECTION
  2
BLOCKS
  0
ENDSEC
  0
SECTION
  2
ENTITIES
  0
LINE
  8
0
 10
14.6869
 20
859.589
 11
15.2951
 21
859.745
  0
LINE
  8
0
 10
15.2951
 20
859.745
 11
15.8789
 21
859.976
  0
LINE
  8
0
 10
15.8789
 20
859.976
 11
16.4291
 21
860.278
  0
LINE
  8
0
 10
16.4291
 20
860.278
 11
16.9371
 21
860.647
  0
LINE
  8
0
 10
16.9371
 20
860.647
 11
17.3948
 21
861.077
  0
LINE
  8
0
 10
17.3948
 20
861.077
 11
17.7951
 21
861.561
  0
LINE
  8
0
 10
17.7951
 20
861.561
 11
18.1315
 21
862.091
  0
LINE
  8
0
 10
18.1315
 20
862.091
 11
18.3989
 21
862.659
  0
LINE
  8
0
 10
18.3989
 20
862.659
 11
18.5929
 21
863.257
  0
LINE
  8
0
 10
18.5929
 20
863.257
 11
18.7106
 21
863.873
  0
LINE
  8
0
 10
18.7106
 20
863.873
 11
18.75
 21
864.5
  0
LINE
  8
0
 10
18.75
 20
864.5
 11
18.75
 21
959.5
  0
LINE
  8
0
 10
18.75
 20
959.5
 11
18.7106
 21
960.127
  0
LINE
  8
0
 10
18.7106
 20
960.127
 11
18.5929
 21
960.743
  0
LINE
  8
0
 10
18.5929
 20
960.743
 11
18.3989
 21
961.341
  0
LINE
  8
0
 10
18.3989
 20
961.341
 11
18.1315
 21
961.909
  0
LINE
  8
0
 10
18.1315
 20
961.909
 11
17.7951
 21
962.439
  0
LINE
  8
0
 10
17.7951
 20
962.439
 11
17.3948
 21
962.923
  0
LINE
  8
0
 10
17.3948
 20
962.923
 11
16.9371
 21
963.353
  0
LINE
  8
0
 10
16.9371
 20
963.353
 11
16.4291
 21
963.722
  0
LINE
  8
0
 10
16.4291
 20
963.722
 11
15.8789
 21
964.024
  0
LINE
  8
0
 10
15.8789
 20
964.024
 11
15.2951
 21
964.255
  0
LINE
  8
0
 10
15.2951
 20
964.255
 11
14.6869
 21
964.411
  0
LINE
  8
0
 10
14.6869
 20
964.411
 11
14.0639
 21
964.49
  0
LINE
  8
0
 10
14.0639
 20
964.49
 11
-14.0639
 21
964.49
  0
LINE
  8
0
 10
-14.0639
 20
964.49
 11
-14.6869
 21
964.411
  0
LINE
  8
0
 10
-14.6869
 20
964.411
 11
-15.2951
 21
964.255
  0
LINE
  8
0
 10
-15.2951
 20
964.255
 11
-15.8789
 21
964.024
  0
LINE
  8
0
 10
-15.8789
 20
964.024
 11
-16.4291
 21
963.722
  0
LINE
  8
0
 10
-16.4291
 20
963.722
 11
-16.9371
 21
963.353
  0
LINE
  8
0
 10
-16.9371
 20
963.353
 11
-17.3948
 21
962.923
  0
LINE
  8
0
 10
-17.3948
 20
962.923
 11
-17.7951
 21
962.439
  0
LINE
  8
0
 10
-17.7951
 20
962.439
 11
-18.1315
 21
961.909
  0
LINE
  8
0
 10
-18.1315
 20
961.909
 11
-18.3989
 21
961.341
  0
LINE
  8
0
 10
-18.3989
 20
961.341
 11
-18.5929
 21
960.743
  0
LINE
  8
0
 10
-18.5929
 20
960.743
 11
-18.7106
 21
960.127
  0
LINE
  8
0
 10
-18.7106
 20
960.127
 11
-18.75
 21
959.5
  0
LINE
  8
0
 10
-18.75
 20
959.5
 11
-18.75
 21
864.5
  0
LINE
  8
0
 10
-18.75
 20
864.5
 11
-18.7106
 21
863.873
  0
LINE
  8
0
 10
-18.7106
 20
863.873
 11
-18.5929
 21
863.257
  0
LINE
  8
0
 10
-18.5929
 20
863.257
 11
-18.3989
 21
862.659
  0
LINE
  8
0
 10
-18.3989
 20
862.659
 11
-18.1315
 21
862.091
  0
LINE
  8
0
 10
-18.1315
 20
862.091
 11
-17.7951
 21
861.561
  0
LINE
  8
0
 10
-17.7951
 20
861.561
 11
-17.3948
 21
861.077
  0
LINE
  8
0
 10
-17.3948
 20
861.077
 11
-16.9371
 21
860.647
  0
LINE
  8
0
 10
-16.9371
 20
860.647
 11
-16.4291
 21
860.278
  0
LINE
  8
0
 10
-16.4291
 20
860.278
 11
-15.8789
 21
859.976
  0
LINE
  8
0
 10
-15.8789
 20
859.976
 11
-15.2951
 21
859.745
  0
LINE
  8
0
 10
-15.2951
 20
859.745
 11
-14.6869
 21
859.589
  0
LINE
  8
0
 10
-14.6869
 20
859.589
 11
-14.0639
 21
859.51
  0
LINE
  8
0
 10
-14.0639
 20
859.51
 11
14.0639
 21
859.51
  0
LINE
  8
0
 10
14.0639
 20
859.51
 11
14.6869
 21
859.589
  0
LINE
  8
0
 10
-13.7982
 20
860.009
 11
-14.3901
 21
860.084
  0
LINE
  8
0
 10
-14.3901
 20
860.084
 11
-14.9678
 21
860.232
  0
LINE
  8
0
 10
-14.9678
 20
860.232
 11
-15.5224
 21
860.452
  0
LINE
  8
0
 10
-15.5224
 20
860.452
 11
-16.0452
 21
860.739
  0
LINE
  8
0
 10
-16.0452
 20
860.739
 11
-16.5278
 21
861.09
  0
LINE
  8
0
 10
-16.5278
 20
861.09
 11
-16.9626
 21
861.498
  0
LINE
  8
0
 10
-16.9626
 20
861.498
 11
-17.3428
 21
861.958
  0
LINE
  8
0
 10
-17.3428
 20
861.958
 11
-17.6624
 21
862.462
  0
LINE
  8
0
 10
-17.6624
 20
862.462
 11
-17.9164
 21
863.001
  0
LINE
  8
0
 10
-17.9164
 20
863.001
 11
-18.1008
 21
863.569
  0
LINE
  8
0
 10
-18.1008
 20
863.569
 11
-18.2125
 21
864.155
  0
LINE
  8
0
 10
-18.2125
 20
864.155
 11
-18.25
 21
864.75
  0
LINE
  8
0
 10
-18.25
 20
864.75
 11
-18.25
 21
959.25
  0
LINE
  8
0
 10
-18.25
 20
959.25
 11
-18.2125
 21
959.845
  0
LINE
  8
0
 10
-18.2125
 20
959.845
 11
-18.1008
 21
960.431
  0
LINE
  8
0
 10
-18.1008
 20
960.431
 11
-17.9164
 21
960.999
  0
LINE
  8
0
 10
-17.9164
 20
960.999
 11
-17.6624
 21
961.538
  0
LINE
  8
0
 10
-17.6624
 20
961.538
 11
-17.3428
 21
962.042
  0
LINE
  8
0
 10
-17.3428
 20
962.042
 11
-16.9626
 21
962.502
  0
LINE
  8
0
 10
-16.9626
 20
962.502
 11
-16.5278
 21
962.91
  0
LINE
  8
0
 10
-16.5278
 20
962.91
 11
-16.0452
 21
963.261
  0
LINE
  8
0
 10
-16.0452
 20
963.261
 11
-15.5224
 21
963.548
  0
LINE
  8
0
 10
-15.5224
 20
963.548
 11
-14.9678
 21
963.768
  0
LINE
  8
0
 10
-14.9678
 20
963.768
 11
-14.3901
 21
963.916
  0
LINE
  8
0
 10
-14.3901
 20
963.916
 11
-13.7982
 21
963.991
  0
LINE
  8
0
 10
-13.7982
 20
963.991
 11
13.7982
 21
963.991
  0
LINE
  8
0
 10
13.7982
 20
963.991
 11
14.3901
 21
963.916
  0
LINE
  8
0
 10
14.3901
 20
963.916
 11
14.9678
 21
963.768
  0
LINE
  8
0
 10
14.9678
 20
963.768
 11
15.5224
 21
963.548
  0
LINE
  8
0
 10
15.5224
 20
963.548
 11
16.0452
 21
963.261
  0
LINE
  8
0
 10
16.0452
 20
963.261
 11
16.5278
 21
962.91
  0
LINE
  8
0
 10
16.5278
 20
962.91
 11
16.9626
 21
962.502
  0
LINE
  8
0
 10
16.9626
 20
962.502
 11
17.3428
 21
962.042
  0
LINE
  8
0
 10
17.3428
 20
962.042
 11
17.6624
 21
961.538
  0
LINE
  8
0
 10
17.6624
 20
961.538
 11
17.9164
 21
960.999
  0
LINE
  8
0
 10
17.9164
 20
960.999
 11
18.1008
 21
960.431
  0
LINE
  8
0
 10
18.1008
 20
960.431
 11
18.2125
 21
959.845
  0
LINE
  8
0
 10
18.2125
 20
959.845
 11
18.25
 21
959.25
  0
LINE
  8
0
 10
18.25
 20
959.25
 11
18.25
 21
864.75
  0
LINE
  8
0
 10
18.25
 20
864.75
 11
18.2125
 21
864.155
  0
LINE
  8
0
 10
18.2125
 20
864.155
 11
18.1008
 21
863.569
  0
LINE
  8
0
 10
18.1008
 20
863.569
 11
17.9164
 21
863.001
  0
LINE
  8
0
 10
17.9164
 20
863.001
 11
17.6624
 21
862.462
  0
LINE
  8
0
 10
17.6624
 20
862.462
 11
17.3428
 21
861.958
  0
LINE
  8
0
 10
17.3428
 20
861.958
 11
16.9626
 21
861.498
  0
LINE
  8
0
 10
16.9626
 20
861.498
 11
16.5278
 21
861.09
  0
LINE
  8
0
 10
16.5278
 20
861.09
 11
16.0452
 21
860.739
  0
LINE
  8
0
 10
16.0452
 20
860.739
 11
15.5224
 21
860.452
  0
LINE
  8
0
 10
15.5224
 20
860.452
 11
14.9678
 21
860.232
  0
LINE
  8
0
 10
14.9678
 20
860.232
 11
14.3901
 21
860.084
  0
LINE
  8
0
 10
14.3901
 20
860.084
 11
13.7982
 21
860.009
  0
LINE
  8
0
 10
13.7982
 20
860.009
 11
-13.7982
 21
860.009
  0
LINE
  8
0
 10
14.6869
 20
745.589
 11
15.2951
 21
745.745
  0
LINE
  8
0
 10
15.2951
 20
745.745
 11
15.8789
 21
745.976
  0
LINE
  8
0
 10
15.8789
 20
745.976
 11
16.4291
 21
746.278
  0
LINE
  8
0
 10
16.4291
 20
746.278
 11
16.9371
 21
746.647
  0
LINE
  8
0
 10
16.9371
 20
746.647
 11
17.3948
 21
747.077
  0
LINE
  8
0
 10
17.3948
 20
747.077
 11
17.7951
 21
747.561
  0
LINE
  8
0
 10
17.7951
 20
747.561
 11
18.1315
 21
748.091
  0
LINE
  8
0
 10
18.1315
 20
748.091
 11
18.3989
 21
748.659
  0
LINE
  8
0
 10
18.3989
 20
748.659
 11
18.5929
 21
749.257
  0
LINE
  8
0
 10
18.5929
 20
749.257
 11
18.7106
 21
749.873
  0
LINE
  8
0
 10
18.7106
 20
749.873
 11
18.75
 21
750.5
  0
LINE
  8
0
 10
18.75
 20
750.5
 11
18.75
 21
845.5
  0
LINE
  8
0
 10
18.75
 20
845.5
 11
18.7106
 21
846.127
  0
LINE
  8
0
 10
18.7106
 20
846.127
 11
18.5929
 21
846.743
  0
LINE
  8
0
 10
18.5929
 20
846.743
 11
18.3989
 21
847.341
  0
LINE
  8
0
 10
18.3989
 20
847.341
 11
18.1315
 21
847.909
  0
LINE
  8
0
 10
18.1315
 20
847.909
 11
17.7951
 21
848.439
  0
LINE
  8
0
 10
17.7951
 20
848.439
 11
17.3948
 21
848.923
  0
LINE
  8
0
 10
17.3948
 20
848.923
 11
16.9371
 21
849.353
  0
LINE
  8
0
 10
16.9371
 20
849.353
 11
16.4291
 21
849.722
  0
LINE
  8
0
 10
16.4291
 20
849.722
 11
15.8789
 21
850.024
  0
LINE
  8
0
 10
15.8789
 20
850.024
 11
15.2951
 21
850.255
  0
LINE
  8
0
 10
15.2951
 20
850.255
 11
14.6869
 21
850.411
  0
LINE
  8
0
 10
14.6869
 20
850.411
 11
14.0639
 21
850.49
  0
LINE
  8
0
 10
14.0639
 20
850.49
 11
-14.0639
 21
850.49
  0
LINE
  8
0
 10
-14.0639
 20
850.49
 11
-14.6869
 21
850.411
  0
LINE
  8
0
 10
-14.6869
 20
850.411
 11
-15.2951
 21
850.255
  0
LINE
  8
0
 10
-15.2951
 20
850.255
 11
-15.8789
 21
850.024
  0
LINE
  8
0
 10
-15.8789
 20
850.024
 11
-16.4291
 21
849.722
  0
LINE
  8
0
 10
-16.4291
 20
849.722
 11
-16.9371
 21
849.353
  0
LINE
  8
0
 10
-16.9371
 20
849.353
 11
-17.3948
 21
848.923
  0
LINE
  8
0
 10
-17.3948
 20
848.923
 11
-17.7951
 21
848.439
  0
LINE
  8
0
 10
-17.7951
 20
848.439
 11
-18.1315
 21
847.909
  0
LINE
  8
0
 10
-18.1315
 20
847.909
 11
-18.3989
 21
847.341
  0
LINE
  8
0
 10
-18.3989
 20
847.341
 11
-18.5929
 21
846.743
  0
LINE
  8
0
 10
-18.5929
 20
846.743
 11
-18.7106
 21
846.127
  0
LINE
  8
0
 10
-18.7106
 20
846.127
 11
-18.75
 21
845.5
  0
LINE
  8
0
 10
-18.75
 20
845.5
 11
-18.75
 21
750.5
  0
LINE
  8
0
 10
-18.75
 20
750.5
 11
-18.7106
 21
749.873
  0
LINE
  8
0
 10
-18.7106
 20
749.873
 11
-18.5929
 21
749.257
  0
LINE
  8
0
 10
-18.5929
 20
749.257
 11
-18.3989
 21
748.659
  0
LINE
  8
0
 10
-18.3989
 20
748.659
 11
-18.1315
 21
748.091
  0
LINE
  8
0
 10
-18.1315
 20
748.091
 11
-17.7951
 21
747.561
  0
LINE
  8
0
 10
-17.7951
 20
747.561
 11
-17.3948
 21
747.077
  0
LINE
  8
0
 10
-17.3948
 20
747.077
 11
-16.9371
 21
746.647
  0
LINE
  8
0
 10
-16.9371
 20
746.647
 11
-16.4291
 21
746.278
  0
LINE
  8
0
 10
-16.4291
 20
746.278
 11
-15.8789
 21
745.976
  0
LINE
  8
0
 10
-15.8789
 20
745.976
 11
-15.2951
 21
745.745
  0
LINE
  8
0
 10
-15.2951
 20
745.745
 11
-14.6869
 21
745.589
  0
LINE
  8
0
 10
-14.6869
 20
745.589
 11
-14.0639
 21
745.51
  0
LINE
  8
0
 10
-14.0639
 20
745.51
 11
14.0639
 21
745.51
  0
LINE
  8
0
 10
14.0639
 20
745.51
 11
14.6869
 21
745.589
  0
LINE
  8
0
 10
-13.7982
 20
746.009
 11
-14.3901
 21
746.084
  0
LINE
  8
0
 10
-14.3901
 20
746.084
 11
-14.9678
 21
746.232
  0
LINE
  8
0
 10
-14.9678
 20
746.232
 11
-15.5224
 21
746.452
  0
LINE
  8
0
 10
-15.5224
 20
746.452
 11
-16.0452
 21
746.739
  0
LINE
  8
0
 10
-16.0452
 20
746.739
 11
-16.5278
 21
747.09
  0
LINE
  8
0
 10
-16.5278
 20
747.09
 11
-16.9626
 21
747.498
  0
LINE
  8
0
 10
-16.9626
 20
747.498
 11
-17.3428
 21
747.958
  0
LINE
  8
0
 10
-17.3428
 20
747.958
 11
-17.6624
 21
748.462
  0
LINE
  8
0
 10
-17.6624
 20
748.462
 11
-17.9164
 21
749.001
  0
LINE
  8
0
 10
-17.9164
 20
749.001
 11
-18.1008
 21
749.569
  0
LINE
  8
0
 10
-18.1008
 20
749.569
 11
-18.2125
 21
750.155
  0
LINE
  8
0
 10
-18.2125
 20
750.155
 11
-18.25
 21
750.75
  0
LINE
  8
0
 10
-18.25
 20
750.75
 11
-18.25
 21
845.25
  0
LINE
  8
0
 10
-18.25
 20
845.25
 11
-18.2125
 21
845.845
  0
LINE
  8
0
 10
-18.2125
 20
845.845
 11
-18.1008
 21
846.431
  0
LINE
  8
0
 10
-18.1008
 20
846.431
 11
-17.9164
 21
846.999
  0
LINE
  8
0
 10
-17.9164
 20
846.999
 11
-17.6624
 21
847.538
  0
LINE
  8
0
 10
-17.6624
 20
847.538
 11
-17.3428
 21
848.042
  0
LINE
  8
0
 10
-17.3428
 20
848.042
 11
-16.9626
 21
848.502
  0
LINE
  8
0
 10
-16.9626
 20
848.502
 11
-16.5278
 21
848.91
  0
LINE
  8
0
 10
-16.5278
 20
848.91
 11
-16.0452
 21
849.261
  0
LINE
  8
0
 10
-16.0452
 20
849.261
 11
-15.5224
 21
849.548
  0
LINE
  8
0
 10
-15.5224
 20
849.548
 11
-14.9678
 21
849.768
  0
LINE
  8
0
 10
-14.9678
 20
849.768
 11
-14.3901
 21
849.916
  0
LINE
  8
0
 10
-14.3901
 20
849.916
 11
-13.7982
 21
849.991
  0
LINE
  8
0
 10
-13.7982
 20
849.991
 11
13.7982
 21
849.991
  0
LINE
  8
0
 10
13.7982
 20
849.991
 11
14.3901
 21
849.916
  0
LINE
  8
0
 10
14.3901
 20
849.916
 11
14.9678
 21
849.768
  0
LINE
  8
0
 10
14.9678
 20
849.768
 11
15.5224
 21
849.548
  0
LINE
  8
0
 10
15.5224
 20
849.548
 11
16.0452
 21
849.261
  0
LINE
  8
0
 10
16.0452
 20
849.261
 11
16.5278
 21
848.91
  0
LINE
  8
0
 10
16.5278
 20
848.91
 11
16.9626
 21
848.502
  0
LINE
  8
0
 10
16.9626
 20
848.502
 11
17.3428
 21
848.042
  0
LINE
  8
0
 10
17.3428
 20
848.042
 11
17.6624
 21
847.538
  0
LINE
  8
0
 10
17.6624
 20
847.538
 11
17.9164
 21
846.999
  0
LINE
  8
0
 10
17.9164
 20
846.999
 11
18.1008
 21
846.431
  0
LINE
  8
0
 10
18.1008
 20
846.431
 11
18.2125
 21
845.845
  0
LINE
  8
0
 10
18.2125
 20
845.845
 11
18.25
 21
845.25
  0
LINE
  8
0
 10
18.25
 20
845.25
 11
18.25
 21
750.75
  0
LINE
  8
0
 10
18.25
 20
750.75
 11
18.2125
 21
750.155
  0
LINE
  8
0
 10
18.2125
 20
750.155
 11
18.1008
 21
749.569
  0
LINE
  8
0
 10
18.1008
 20
749.569
 11
17.9164
 21
749.001
  0
LINE
  8
0
 10
17.9164
 20
749.001
 11
17.6624
 21
748.462
  0
LINE
  8
0
 10
17.6624
 20
748.462
 11
17.3428
 21
747.958
  0
LINE
  8
0
 10
17.3428
 20
747.958
 11
16.9626
 21
747.498
  0
LINE
  8
0
 10
16.9626
 20
747.498
 11
16.5278
 21
747.09
  0
LINE
  8
0
 10
16.5278
 20
747.09
 11
16.0452
 21
746.739
  0
LINE
  8
0
 10
16.0452
 20
746.739
 11
15.5224
 21
746.452
  0
LINE
  8
0
 10
15.5224
 20
746.452
 11
14.9678
 21
746.232
  0
LINE
  8
0
 10
14.9678
 20
746.232
 11
14.3901
 21
746.084
  0
LINE
  8
0
 10
14.3901
 20
746.084
 11
13.7982
 21
746.009
  0
LINE
  8
0
 10
13.7982
 20
746.009
 11
-13.7982
 21
746.009
  0
LINE
  8
0
 10
14.6869
 20
631.589
 11
15.2951
 21
631.745
  0
LINE
  8
0
 10
15.2951
 20
631.745
 11
15.8789
 21
631.976
  0
LINE
  8
0
 10
15.8789
 20
631.976
 11
16.4291
 21
632.278
  0
LINE
  8
0
 10
16.4291
 20
632.278
 11
16.9371
 21
632.647
  0
LINE
  8
0
 10
16.9371
 20
632.647
 11
17.3948
 21
633.077
  0
LINE
  8
0
 10
17.3948
 20
633.077
 11
17.7951
 21
633.561
  0
LINE
  8
0
 10
17.7951
 20
633.561
 11
18.1315
 21
634.091
  0
LINE
  8
0
 10
18.1315
 20
634.091
 11
18.3989
 21
634.659
  0
LINE
  8
0
 10
18.3989
 20
634.659
 11
18.5929
 21
635.257
  0
LINE
  8
0
 10
18.5929
 20
635.257
 11
18.7106
 21
635.873
  0
LINE
  8
0
 10
18.7106
 20
635.873
 11
18.75
 21
636.5
  0
LINE
  8
0
 10
18.75
 20
636.5
 11
18.75
 21
731.5
  0
LINE
  8
0
 10
18.75
 20
731.5
 11
18.7106
 21
732.127
  0
LINE
  8
0
 10
18.7106
 20
732.127
 11
18.5929
 21
732.743
  0
LINE
  8
0
 10
18.5929
 20
732.743
 11
18.3989
 21
733.341
  0
LINE
  8
0
 10
18.3989
 20
733.341
 11
18.1315
 21
733.909
  0
LINE
  8
0
 10
18.1315
 20
733.909
 11
17.7951
 21
734.439
  0
LINE
  8
0
 10
17.7951
 20
734.439
 11
17.3948
 21
734.923
  0
LINE
  8
0
 10
17.3948
 20
734.923
 11
16.9371
 21
735.353
  0
LINE
  8
0
 10
16.9371
 20
735.353
 11
16.4291
 21
735.722
  0
LINE
  8
0
 10
16.4291
 20
735.722
 11
15.8789
 21
736.024
  0
LINE
  8
0
 10
15.8789
 20
736.024
 11
15.2951
 21
736.255
  0
LINE
  8
0
 10
15.2951
 20
736.255
 11
14.6869
 21
736.411
  0
LINE
  8
0
 10
14.6869
 20
736.411
 11
14.0639
 21
736.49
  0
LINE
  8
0
 10
14.0639
 20
736.49
 11
-14.0639
 21
736.49
  0
LINE
  8
0
 10
-14.0639
 20
736.49
 11
-14.6869
 21
736.411
  0
LINE
  8
0
 10
-14.6869
 20
736.411
 11
-15.2951
 21
736.255
  0
LINE
  8
0
 10
-15.2951
 20
736.255
 11
-15.8789
 21
736.024
  0
LINE
  8
0
 10
-15.8789
 20
736.024
 11
-16.4291
 21
735.722
  0
LINE
  8
0
 10
-16.4291
 20
735.722
 11
-16.9371
 21
735.353
  0
LINE
  8
0
 10
-16.9371
 20
735.353
 11
-17.3948
 21
734.923
  0
LINE
  8
0
 10
-17.3948
 20
734.923
 11
-17.7951
 21
734.439
  0
LINE
  8
0
 10
-17.7951
 20
734.439
 11
-18.1315
 21
733.909
  0
LINE
  8
0
 10
-18.1315
 20
733.909
 11
-18.3989
 21
733.341
  0
LINE
  8
0
 10
-18.3989
 20
733.341
 11
-18.5929
 21
732.743
  0
LINE
  8
0
 10
-18.5929
 20
732.743
 11
-18.7106
 21
732.127
  0
LINE
  8
0
 10
-18.7106
 20
732.127
 11
-18.75
 21
731.5
  0
LINE
  8
0
 10
-18.75
 20
731.5
 11
-18.75
 21
636.5
  0
LINE
  8
0
 10
-18.75
 20
636.5
 11
-18.7106
 21
635.873
  0
LINE
  8
0
 10
-18.7106
 20
635.873
 11
-18.5929
 21
635.257
  0
LINE
  8
0
 10
-18.5929
 20
635.257
 11
-18.3989
 21
634.659
  0
LINE
  8
0
 10
-18.3989
 20
634.659
 11
-18.1315
 21
634.091
  0
LINE
  8
0
 10
-18.1315
 20
634.091
 11
-17.7951
 21
633.561
  0
LINE
  8
0
 10
-17.7951
 20
633.561
 11
-17.3948
 21
633.077
  0
LINE
  8
0
 10
-17.3948
 20
633.077
 11
-16.9371
 21
632.647
  0
LINE
  8
0
 10
-16.9371
 20
632.647
 11
-16.4291
 21
632.278
  0
LINE
  8
0
 10
-16.4291
 20
632.278
 11
-15.8789
 21
631.976
  0
LINE
  8
0
 10
-15.8789
 20
631.976
 11
-15.2951
 21
631.745
  0
LINE
  8
0
 10
-15.2951
 20
631.745
 11
-14.6869
 21
631.589
  0
LINE
  8
0
 10
-14.6869
 20
631.589
 11
-14.0639
 21
631.51
  0
LINE
  8
0
 10
-14.0639
 20
631.51
 11
14.0639
 21
631.51
  0
LINE
  8
0
 10
14.0639
 20
631.51
 11
14.6869
 21
631.589
  0
LINE
  8
0
 10
-13.7982
 20
632.009
 11
-14.3901
 21
632.084
  0
LINE
  8
0
 10
-14.3901
 20
632.084
 11
-14.9678
 21
632.232
  0
LINE
  8
0
 10
-14.9678
 20
632.232
 11
-15.5224
 21
632.452
  0
LINE
  8
0
 10
-15.5224
 20
632.452
 11
-16.0452
 21
632.739
  0
LINE
  8
0
 10
-16.0452
 20
632.739
 11
-16.5278
 21
633.09
  0
LINE
  8
0
 10
-16.5278
 20
633.09
 11
-16.9626
 21
633.498
  0
LINE
  8
0
 10
-16.9626
 20
633.498
 11
-17.3428
 21
633.958
  0
LINE
  8
0
 10
-17.3428
 20
633.958
 11
-17.6624
 21
634.462
  0
LINE
  8
0
 10
-17.6624
 20
634.462
 11
-17.9164
 21
635.001
  0
LINE
  8
0
 10
-17.9164
 20
635.001
 11
-18.1008
 21
635.569
  0
LINE
  8
0
 10
-18.1008
 20
635.569
 11
-18.2125
 21
636.155
  0
LINE
  8
0
 10
-18.2125
 20
636.155
 11
-18.25
 21
636.75
  0
LINE
  8
0
 10
-18.25
 20
636.75
 11
-18.25
 21
731.25
  0
LINE
  8
0
 10
-18.25
 20
731.25
 11
-18.2125
 21
731.845
  0
LINE
  8
0
 10
-18.2125
 20
731.845
 11
-18.1008
 21
732.431
  0
LINE
  8
0
 10
-18.1008
 20
732.431
 11
-17.9164
 21
732.999
  0
LINE
  8
0
 10
-17.9164
 20
732.999
 11
-17.6624
 21
733.538
  0
LINE
  8
0
 10
-17.6624
 20
733.538
 11
-17.3428
 21
734.042
  0
LINE
  8
0
 10
-17.3428
 20
734.042
 11
-16.9626
 21
734.502
  0
LINE
  8
0
 10
-16.9626
 20
734.502
 11
-16.5278
 21
734.91
  0
LINE
  8
0
 10
-16.5278
 20
734.91
 11
-16.0452
 21
735.261
  0
LINE
  8
0
 10
-16.0452
 20
735.261
 11
-15.5224
 21
735.548
  0
LINE
  8
0
 10
-15.5224
 20
735.548
 11
-14.9678
 21
735.768
  0
LINE
  8
0
 10
-14.9678
 20
735.768
 11
-14.3901
 21
735.916
  0
LINE
  8
0
 10
-14.3901
 20
735.916
 11
-13.7982
 21
735.991
  0
LINE
  8
0
 10
-13.7982
 20
735.991
 11
13.7982
 21
735.991
  0
LINE
  8
0
 10
13.7982
 20
735.991
 11
14.3901
 21
735.916
  0
LINE
  8
0
 10
14.3901
 20
735.916
 11
14.9678
 21
735.768
  0
LINE
  8
0
 10
14.9678
 20
735.768
 11
15.5224
 21
735.548
  0
LINE
  8
0
 10
15.5224
 20
735.548
 11
16.0452
 21
735.261
  0
LINE
  8
0
 10
16.0452
 20
735.261
 11
16.5278
 21
734.91
  0
LINE
  8
0
 10
16.5278
 20
734.91
 11
16.9626
 21
734.502
  0
LINE
  8
0
 10
16.9626
 20
734.502
 11
17.3428
 21
734.042
  0
LINE
  8
0
 10
17.3428
 20
734.042
 11
17.6624
 21
733.538
  0
LINE
  8
0
 10
17.6624
 20
733.538
 11
17.9164
 21
732.999
  0
LINE
  8
0
 10
17.9164
 20
732.999
 11
18.1008
 21
732.431
  0
LINE
  8
0
 10
18.1008
 20
732.431
 11
18.2125
 21
731.845
  0
LINE
  8
0
 10
18.2125
 20
731.845
 11
18.25
 21
731.25
  0
LINE
  8
0
 10
18.25
 20
731.25
 11
18.25
 21
636.75
  0
LINE
  8
0
 10
18.25
 20
636.75
 11
18.2125
 21
636.155
  0
LINE
  8
0
 10
18.2125
 20
636.155
 11
18.1008
 21
635.569
  0
LINE
  8
0
 10
18.1008
 20
635.569
 11
17.9164
 21
635.001
  0
LINE
  8
0
 10
17.9164
 20
635.001
 11
17.6624
 21
634.462
  0
LINE
  8
0
 10
17.6624
 20
634.462
 11
17.3428
 21
633.958
  0
LINE
  8
0
 10
17.3428
 20
633.958
 11
16.9626
 21
633.498
  0
LINE
  8
0
 10
16.9626
 20
633.498
 11
16.5278
 21
633.09
  0
LINE
  8
0
 10
16.5278
 20
633.09
 11
16.0452
 21
632.739
  0
LINE
  8
0
 10
16.0452
 20
632.739
 11
15.5224
 21
632.452
  0
LINE
  8
0
 10
15.5224
 20
632.452
 11
14.9678
 21
632.232
  0
LINE
  8
0
 10
14.9678
 20
632.232
 11
14.3901
 21
632.084
  0
LINE
  8
0
 10
14.3901
 20
632.084
 11
13.7982
 21
632.009
  0
LINE
  8
0
 10
13.7982
 20
632.009
 11
-13.7982
 21
632.009
  0
LINE
  8
0
 10
14.6869
 20
517.589
 11
15.2951
 21
517.745
  0
LINE
  8
0
 10
15.2951
 20
517.745
 11
15.8789
 21
517.976
  0
LINE
  8
0
 10
15.8789
 20
517.976
 11
16.4291
 21
518.278
  0
LINE
  8
0
 10
16.4291
 20
518.278
 11
16.9371
 21
518.647
  0
LINE
  8
0
 10
16.9371
 20
518.647
 11
17.3948
 21
519.077
  0
LINE
  8
0
 10
17.3948
 20
519.077
 11
17.7951
 21
519.561
  0
LINE
  8
0
 10
17.7951
 20
519.561
 11
18.1315
 21
520.091
  0
LINE
  8
0
 10
18.1315
 20
520.091
 11
18.3989
 21
520.659
  0
LINE
  8
0
 10
18.3989
 20
520.659
 11
18.5929
 21
521.257
  0
LINE
  8
0
 10
18.5929
 20
521.257
 11
18.7106
 21
521.873
  0
LINE
  8
0
 10
18.7106
 20
521.873
 11
18.75
 21
522.5
  0
LINE
  8
0
 10
18.75
 20
522.5
 11
18.75
 21
617.5
  0
LINE
  8
0
 10
18.75
 20
617.5
 11
18.7106
 21
618.127
  0
LINE
  8
0
 10
18.7106
 20
618.127
 11
18.5929
 21
618.743
  0
LINE
  8
0
 10
18.5929
 20
618.743
 11
18.3989
 21
619.341
  0
LINE
  8
0
 10
18.3989
 20
619.341
 11
18.1315
 21
619.909
  0
LINE
  8
0
 10
18.1315
 20
619.909
 11
17.7951
 21
620.439
  0
LINE
  8
0
 10
17.7951
 20
620.439
 11
17.3948
 21
620.923
  0
LINE
  8
0
 10
17.3948
 20
620.923
 11
16.9371
 21
621.353
  0
LINE
  8
0
 10
16.9371
 20
621.353
 11
16.4291
 21
621.722
  0
LINE
  8
0
 10
16.4291
 20
621.722
 11
15.8789
 21
622.024
  0
LINE
  8
0
 10
15.8789
 20
622.024
 11
15.2951
 21
622.255
  0
LINE
  8
0
 10
15.2951
 20
622.255
 11
14.6869
 21
622.411
  0
LINE
  8
0
 10
14.6869
 20
622.411
 11
14.0639
 21
622.49
  0
LINE
  8
0
 10
14.0639
 20
622.49
 11
-14.0639
 21
622.49
  0
LINE
  8
0
 10
-14.0639
 20
622.49
 11
-14.6869
 21
622.411
  0
LINE
  8
0
 10
-14.6869
 20
622.411
 11
-15.2951
 21
622.255
  0
LINE
  8
0
 10
-15.2951
 20
622.255
 11
-15.8789
 21
622.024
  0
LINE
  8
0
 10
-15.8789
 20
622.024
 11
-16.4291
 21
621.722
  0
LINE
  8
0
 10
-16.4291
 20
621.722
 11
-16.9371
 21
621.353
  0
LINE
  8
0
 10
-16.9371
 20
621.353
 11
-17.3948
 21
620.923
  0
LINE
  8
0
 10
-17.3948
 20
620.923
 11
-17.7951
 21
620.439
  0
LINE
  8
0
 10
-17.7951
 20
620.439
 11
-18.1315
 21
619.909
  0
LINE
  8
0
 10
-18.1315
 20
619.909
 11
-18.3989
 21
619.341
  0
LINE
  8
0
 10
-18.3989
 20
619.341
 11
-18.5929
 21
618.743
  0
LINE
  8
0
 10
-18.5929
 20
618.743
 11
-18.7106
 21
618.127
  0
LINE
  8
0
 10
-18.7106
 20
618.127
 11
-18.75
 21
617.5
  0
LINE
  8
0
 10
-18.75
 20
617.5
 11
-18.75
 21
522.5
  0
LINE
  8
0
 10
-18.75
 20
522.5
 11
-18.7106
 21
521.873
  0
LINE
  8
0
 10
-18.7106
 20
521.873
 11
-18.5929
 21
521.257
  0
LINE
  8
0
 10
-18.5929
 20
521.257
 11
-18.3989
 21
520.659
  0
LINE
  8
0
 10
-18.3989
 20
520.659
 11
-18.1315
 21
520.091
  0
LINE
  8
0
 10
-18.1315
 20
520.091
 11
-17.7951
 21
519.561
  0
LINE
  8
0
 10
-17.7951
 20
519.561
 11
-17.3948
 21
519.077
  0
LINE
  8
0
 10
-17.3948
 20
519.077
 11
-16.9371
 21
518.647
  0
LINE
  8
0
 10
-16.9371
 20
518.647
 11
-16.4291
 21
518.278
  0
LINE
  8
0
 10
-16.4291
 20
518.278
 11
-15.8789
 21
517.976
  0
LINE
  8
0
 10
-15.8789
 20
517.976
 11
-15.2951
 21
517.745
  0
LINE
  8
0
 10
-15.2951
 20
517.745
 11
-14.6869
 21
517.589
  0
LINE
  8
0
 10
-14.6869
 20
517.589
 11
-14.0639
 21
517.51
  0
LINE
  8
0
 10
-14.0639
 20
517.51
 11
14.0639
 21
517.51
  0
LINE
  8
0
 10
14.0639
 20
517.51
 11
14.6869
 21
517.589
  0
LINE
  8
0
 10
-13.743
 20
518.888
 11
-14.2251
 21
518.949
  0
LINE
  8
0
 10
-14.2251
 20
518.949
 11
-14.6957
 21
519.07
  0
LINE
  8
0
 10
-14.6957
 20
519.07
 11
-15.1475
 21
519.249
  0
LINE
  8
0
 10
-15.1475
 20
519.249
 11
-15.5734
 21
519.483
  0
LINE
  8
0
 10
-15.5734
 20
519.483
 11
-15.9665
 21
519.769
  0
LINE
  8
0
 10
-15.9665
 20
519.769
 11
-16.3207
 21
520.101
  0
LINE
  8
0
 10
-16.3207
 20
520.101
 11
-16.6305
 21
520.476
  0
LINE
  8
0
 10
-16.6305
 20
520.476
 11
-16.8908
 21
520.886
  0
LINE
  8
0
 10
-16.8908
 20
520.886
 11
-17.0977
 21
521.326
  0
LINE
  8
0
 10
-17.0977
 20
521.326
 11
-17.2479
 21
521.788
  0
LINE
  8
0
 10
-17.2479
 20
521.788
 11
-17.339
 21
522.265
  0
LINE
  8
0
 10
-17.339
 20
522.265
 11
-17.3695
 21
522.75
  0
LINE
  8
0
 10
-17.3695
 20
522.75
 11
-17.3695
 21
617.25
  0
LINE
  8
0
 10
-17.3695
 20
617.25
 11
-17.339
 21
617.735
  0
LINE
  8
0
 10
-17.339
 20
617.735
 11
-17.2479
 21
618.212
  0
LINE
  8
0
 10
-17.2479
 20
618.212
 11
-17.0977
 21
618.674
  0
LINE
  8
0
 10
-17.0977
 20
618.674
 11
-16.8908
 21
619.114
  0
LINE
  8
0
 10
-16.8908
 20
619.114
 11
-16.6305
 21
619.524
  0
LINE
  8
0
 10
-16.6305
 20
619.524
 11
-16.3207
 21
619.899
  0
LINE
  8
0
 10
-16.3207
 20
619.899
 11
-15.9665
 21
620.231
  0
LINE
  8
0
 10
-15.9665
 20
620.231
 11
-15.5734
 21
620.517
  0
LINE
  8
0
 10
-15.5734
 20
620.517
 11
-15.1475
 21
620.751
  0
LINE
  8
0
 10
-15.1475
 20
620.751
 11
-14.6957
 21
620.93
  0
LINE
  8
0
 10
-14.6957
 20
620.93
 11
-14.2251
 21
621.051
  0
LINE
  8
0
 10
-14.2251
 20
621.051
 11
-13.743
 21
621.112
  0
LINE
  8
0
 10
-13.743
 20
621.112
 11
13.743
 21
621.112
  0
LINE
  8
0
 10
13.743
 20
621.112
 11
14.2251
 21
621.051
  0
LINE
  8
0
 10
14.2251
 20
621.051
 11
14.6957
 21
620.93
  0
LINE
  8
0
 10
14.6957
 20
620.93
 11
15.1475
 21
620.751
  0
LINE
  8
0
 10
15.1475
 20
620.751
 11
15.5734
 21
620.517
  0
LINE
  8
0
 10
15.5734
 20
620.517
 11
15.9665
 21
620.231
  0
LINE
  8
0
 10
15.9665
 20
620.231
 11
16.3207
 21
619.899
  0
LINE
  8
0
 10
16.3207
 20
619.899
 11
16.6305
 21
619.524
  0
LINE
  8
0
 10
16.6305
 20
619.524
 11
16.8908
 21
619.114
  0
LINE
  8
0
 10
16.8908
 20
619.114
 11
17.0977
 21
618.674
  0
LINE
  8
0
 10
17.0977
 20
618.674
 11
17.2479
 21
618.212
  0
LINE
  8
0
 10
17.2479
 20
618.212
 11
17.339
 21
617.735
  0
LINE
  8
0
 10
17.339
 20
617.735
 11
17.3695
 21
617.25
  0
LINE
  8
0
 10
17.3695
 20
617.25
 11
17.3695
 21
522.75
  0
LINE
  8
0
 10
17.3695
 20
522.75
 11
17.339
 21
522.265
  0
LINE
  8
0
 10
17.339
 20
522.265
 11
17.2479
 21
521.788
  0
LINE
  8
0
 10
17.2479
 20
521.788
 11
17.0977
 21
521.326
  0
LINE
  8
0
 10
17.0977
 20
521.326
 11
16.8908
 21
520.886
  0
LINE
  8
0
 10
16.8908
 20
520.886
 11
16.6305
 21
520.476
  0
LINE
  8
0
 10
16.6305
 20
520.476
 11
16.3207
 21
520.101
  0
LINE
  8
0
 10
16.3207
 20
520.101
 11
15.9665
 21
519.769
  0
LINE
  8
0
 10
15.9665
 20
519.769
 11
15.5734
 21
519.483
  0
LINE
  8
0
 10
15.5734
 20
519.483
 11
15.1475
 21
519.249
  0
LINE
  8
0
 10
15.1475
 20
519.249
 11
14.6957
 21
519.07
  0
LINE
  8
0
 10
14.6957
 20
519.07
 11
14.2251
 21
518.949
  0
LINE
  8
0
 10
14.2251
 20
518.949
 11
13.743
 21
518.888
  0
LINE
  8
0
 10
13.743
 20
518.888
 11
-13.743
 21
518.888
  0
LINE
  8
0
 10
14.6869
 20
403.589
 11
15.2951
 21
403.745
  0
LINE
  8
0
 10
15.2951
 20
403.745
 11
15.8789
 21
403.976
  0
LINE
  8
0
 10
15.8789
 20
403.976
 11
16.4291
 21
404.278
  0
LINE
  8
0
 10
16.4291
 20
404.278
 11
16.9371
 21
404.647
  0
LINE
  8
0
 10
16.9371
 20
404.647
 11
17.3948
 21
405.077
  0
LINE
  8
0
 10
17.3948
 20
405.077
 11
17.7951
 21
405.561
  0
LINE
  8
0
 10
17.7951
 20
405.561
 11
18.1315
 21
406.091
  0
LINE
  8
0
 10
18.1315
 20
406.091
 11
18.3989
 21
406.659
  0
LINE
  8
0
 10
18.3989
 20
406.659
 11
18.5929
 21
407.257
  0
LINE
  8
0
 10
18.5929
 20
407.257
 11
18.7106
 21
407.873
  0
LINE
  8
0
 10
18.7106
 20
407.873
 11
18.75
 21
408.5
  0
LINE
  8
0
 10
18.75
 20
408.5
 11
18.75
 21
503.5
  0
LINE
  8
0
 10
18.75
 20
503.5
 11
18.7106
 21
504.127
  0
LINE
  8
0
 10
18.7106
 20
504.127
 11
18.5929
 21
504.743
  0
LINE
  8
0
 10
18.5929
 20
504.743
 11
18.3989
 21
505.341
  0
LINE
  8
0
 10
18.3989
 20
505.341
 11
18.1315
 21
505.909
  0
LINE
  8
0
 10
18.1315
 20
505.909
 11
17.7951
 21
506.439
  0
LINE
  8
0
 10
17.7951
 20
506.439
 11
17.3948
 21
506.923
  0
LINE
  8
0
 10
17.3948
 20
506.923
 11
16.9371
 21
507.353
  0
LINE
  8
0
 10
16.9371
 20
507.353
 11
16.4291
 21
507.722
  0
LINE
  8
0
 10
16.4291
 20
507.722
 11
15.8789
 21
508.024
  0
LINE
  8
0
 10
15.8789
 20
508.024
 11
15.2951
 21
508.255
  0
LINE
  8
0
 10
15.2951
 20
508.255
 11
14.6869
 21
508.411
  0
LINE
  8
0
 10
14.6869
 20
508.411
 11
14.0639
 21
508.49
  0
LINE
  8
0
 10
14.0639
 20
508.49
 11
-14.0639
 21
508.49
  0
LINE
  8
0
 10
-14.0639
 20
508.49
 11
-14.6869
 21
508.411
  0
LINE
  8
0
 10
-14.6869
 20
508.411
 11
-15.2951
 21
508.255
  0
LINE
  8
0
 10
-15.2951
 20
508.255
 11
-15.8789
 21
508.024
  0
LINE
  8
0
 10
-15.8789
 20
508.024
 11
-16.4291
 21
507.722
  0
LINE
  8
0
 10
-16.4291
 20
507.722
 11
-16.9371
 21
507.353
  0
LINE
  8
0
 10
-16.9371
 20
507.353
 11
-17.3948
 21
506.923
  0
LINE
  8
0
 10
-17.3948
 20
506.923
 11
-17.7951
 21
506.439
  0
LINE
  8
0
 10
-17.7951
 20
506.439
 11
-18.1315
 21
505.909
  0
LINE
  8
0
 10
-18.1315
 20
505.909
 11
-18.3989
 21
505.341
  0
LINE
  8
0
 10
-18.3989
 20
505.341
 11
-18.5929
 21
504.743
  0
LINE
  8
0
 10
-18.5929
 20
504.743
 11
-18.7106
 21
504.127
  0
LINE
  8
0
 10
-18.7106
 20
504.127
 11
-18.75
 21
503.5
  0
LINE
  8
0
 10
-18.75
 20
503.5
 11
-18.75
 21
408.5
  0
LINE
  8
0
 10
-18.75
 20
408.5
 11
-18.7106
 21
407.873
  0
LINE
  8
0
 10
-18.7106
 20
407.873
 11
-18.5929
 21
407.257
  0
LINE
  8
0
 10
-18.5929
 20
407.257
 11
-18.3989
 21
406.659
  0
LINE
  8
0
 10
-18.3989
 20
406.659
 11
-18.1315
 21
406.091
  0
LINE
  8
0
 10
-18.1315
 20
406.091
 11
-17.7951
 21
405.561
  0
LINE
  8
0
 10
-17.7951
 20
405.561
 11
-17.3948
 21
405.077
  0
LINE
  8
0
 10
-17.3948
 20
405.077
 11
-16.9371
 21
404.647
  0
LINE
  8
0
 10
-16.9371
 20
404.647
 11
-16.4291
 21
404.278
  0
LINE
  8
0
 10
-16.4291
 20
404.278
 11
-15.8789
 21
403.976
  0
LINE
  8
0
 10
-15.8789
 20
403.976
 11
-15.2951
 21
403.745
  0
LINE
  8
0
 10
-15.2951
 20
403.745
 11
-14.6869
 21
403.589
  0
LINE
  8
0
 10
-14.6869
 20
403.589
 11
-14.0639
 21
403.51
  0
LINE
  8
0
 10
-14.0639
 20
403.51
 11
14.0639
 21
403.51
  0
LINE
  8
0
 10
14.0639
 20
403.51
 11
14.6869
 21
403.589
  0
LINE
  8
0
 10
11.137
 20
499.204
 11
10.9127
 21
499.232
  0
LINE
  8
0
 10
10.9127
 20
499.232
 11
10.6938
 21
499.288
  0
LINE
  8
0
 10
10.6938
 20
499.288
 11
10.4836
 21
499.371
  0
LINE
  8
0
 10
10.4836
 20
499.371
 11
10.2855
 21
499.48
  0
LINE
  8
0
 10
10.2855
 20
499.48
 11
10.1026
 21
499.613
  0
LINE
  8
0
 10
10.1026
 20
499.613
 11
9.93785
 21
499.768
  0
LINE
  8
0
 10
9.93785
 20
499.768
 11
9.79376
 21
499.942
  0
LINE
  8
0
 10
9.79376
 20
499.942
 11
9.67264
 21
500.133
  0
LINE
  8
0
 10
9.67264
 20
500.133
 11
9.5764
 21
500.337
  0
LINE
  8
0
 10
9.5764
 20
500.337
 11
9.50655
 21
500.552
  0
LINE
  8
0
 10
9.50655
 20
500.552
 11
9.46419
 21
500.774
  0
LINE
  8
0
 10
9.46419
 20
500.774
 11
9.45
 21
501
  0
LINE
  8
0
 10
9.45
 20
501
 11
9.46419
 21
501.226
  0
LINE
  8
0
 10
9.46419
 20
501.226
 11
9.50655
 21
501.448
  0
LINE
  8
0
 10
9.50655
 20
501.448
 11
9.5764
 21
501.663
  0
LINE
  8
0
 10
9.5764
 20
501.663
 11
9.67264
 21
501.867
  0
LINE
  8
0
 10
9.67264
 20
501.867
 11
9.79376
 21
502.058
  0
LINE
  8
0
 10
9.79376
 20
502.058
 11
9.93785
 21
502.232
  0
LINE
  8
0
 10
9.93785
 20
502.232
 11
10.1026
 21
502.387
  0
LINE
  8
0
 10
10.1026
 20
502.387
 11
10.2855
 21
502.52
  0
LINE
  8
0
 10
10.2855
 20
502.52
 11
10.4836
 21
502.629
  0
LINE
  8
0
 10
10.4836
 20
502.629
 11
10.6938
 21
502.712
  0
LINE
  8
0
 10
10.6938
 20
502.712
 11
10.9127
 21
502.768
  0
LINE
  8
0
 10
10.9127
 20
502.768
 11
11.137
 21
502.796
  0
LINE
  8
0
 10
11.137
 20
502.796
 11
11.363
 21
502.796
  0
LINE
  8
0
 10
11.363
 20
502.796
 11
11.5873
 21
502.768
  0
LINE
  8
0
 10
11.5873
 20
502.768
 11
11.8062
 21
502.712
  0
LINE
  8
0
 10
11.8062
 20
502.712
 11
12.0164
 21
502.629
  0
LINE
  8
0
 10
12.0164
 20
502.629
 11
12.2145
 21
502.52
  0
LINE
  8
0
 10
12.2145
 20
502.52
 11
12.3974
 21
502.387
  0
LINE
  8
0
 10
12.3974
 20
502.387
 11
12.5621
 21
502.232
  0
LINE
  8
0
 10
12.5621
 20
502.232
 11
12.7062
 21
502.058
  0
LINE
  8
0
 10
12.7062
 20
502.058
 11
12.8273
 21
501.867
  0
LINE
  8
0
 10
12.8273
 20
501.867
 11
12.9236
 21
501.663
  0
LINE
  8
0
 10
12.9236
 20
501.663
 11
12.9934
 21
501.448
  0
LINE
  8
0
 10
12.9934
 20
501.448
 11
13.0358
 21
501.226
  0
LINE
  8
0
 10
13.0358
 20
501.226
 11
13.05
 21
501
  0
LINE
  8
0
 10
13.05
 20
501
 11
13.0358
 21
500.774
  0
LINE
  8
0
 10
13.0358
 20
500.774
 11
12.9934
 21
500.552
  0
LINE
  8
0
 10
12.9934
 20
500.552
 11
12.9236
 21
500.337
  0
LINE
  8
0
 10
12.9236
 20
500.337
 11
12.8273
 21
500.133
  0
LINE
  8
0
 10
12.8273
 20
500.133
 11
12.7062
 21
499.942
  0
LINE
  8
0
 10
12.7062
 20
499.942
 11
12.5621
 21
499.768
  0
LINE
  8
0
 10
12.5621
 20
499.768
 11
12.3974
 21
499.613
  0
LINE
  8
0
 10
12.3974
 20
499.613
 11
12.2145
 21
499.48
  0
LINE
  8
0
 10
12.2145
 20
499.48
 11
12.0164
 21
499.371
  0
LINE
  8
0
 10
12.0164
 20
499.371
 11
11.8062
 21
499.288
  0
LINE
  8
0
 10
11.8062
 20
499.288
 11
11.5873
 21
499.232
  0
LINE
  8
0
 10
11.5873
 20
499.232
 11
11.363
 21
499.204
  0
LINE
  8
0
 10
11.363
 20
499.204
 11
11.137
 21
499.204
  0
LINE
  8
0
 10
-11.363
 20
499.204
 11
-11.5873
 21
499.232
  0
LINE
  8
0
 10
-11.5873
 20
499.232
 11
-11.8062
 21
499.288
  0
LINE
  8
0
 10
-11.8062
 20
499.288
 11
-12.0164
 21
499.371
  0
LINE
  8
0
 10
-12.0164
 20
499.371
 11
-12.2145
 21
499.48
  0
LINE
  8
0
 10
-12.2145
 20
499.48
 11
-12.3974
 21
499.613
  0
LINE
  8
0
 10
-12.3974
 20
499.613
 11
-12.5621
 21
499.768
  0
LINE
  8
0
 10
-12.5621
 20
499.768
 11
-12.7062
 21
499.942
  0
LINE
  8
0
 10
-12.7062
 20
499.942
 11
-12.8273
 21
500.133
  0
LINE
  8
0
 10
-12.8273
 20
500.133
 11
-12.9236
 21
500.337
  0
LINE
  8
0
 10
-12.9236
 20
500.337
 11
-12.9934
 21
500.552
  0
LINE
  8
0
 10
-12.9934
 20
500.552
 11
-13.0358
 21
500.774
  0
LINE
  8
0
 10
-13.0358
 20
500.774
 11
-13.05
 21
501
  0
LINE
  8
0
 10
-13.05
 20
501
 11
-13.0358
 21
501.226
  0
LINE
  8
0
 10
-13.0358
 20
501.226
 11
-12.9934
 21
501.448
  0
LINE
  8
0
 10
-12.9934
 20
501.448
 11
-12.9236
 21
501.663
  0
LINE
  8
0
 10
-12.9236
 20
501.663
 11
-12.8273
 21
501.867
  0
LINE
  8
0
 10
-12.8273
 20
501.867
 11
-12.7062
 21
502.058
  0
LINE
  8
0
 10
-12.7062
 20
502.058
 11
-12.5621
 21
502.232
  0
LINE
  8
0
 10
-12.5621
 20
502.232
 11
-12.3974
 21
502.387
  0
LINE
  8
0
 10
-12.3974
 20
502.387
 11
-12.2145
 21
502.52
  0
LINE
  8
0
 10
-12.2145
 20
502.52
 11
-12.0164
 21
502.629
  0
LINE
  8
0
 10
-12.0164
 20
502.629
 11
-11.8062
 21
502.712
  0
LINE
  8
0
 10
-11.8062
 20
502.712
 11
-11.5873
 21
502.768
  0
LINE
  8
0
 10
-11.5873
 20
502.768
 11
-11.363
 21
502.796
  0
LINE
  8
0
 10
-11.363
 20
502.796
 11
-11.137
 21
502.796
  0
LINE
  8
0
 10
-11.137
 20
502.796
 11
-10.9127
 21
502.768
  0
LINE
  8
0
 10
-10.9127
 20
502.768
 11
-10.6938
 21
502.712
  0
LINE
  8
0
 10
-10.6938
 20
502.712
 11
-10.4836
 21
502.629
  0
LINE
  8
0
 10
-10.4836
 20
502.629
 11
-10.2855
 21
502.52
  0
LINE
  8
0
 10
-10.2855
 20
502.52
 11
-10.1026
 21
502.387
  0
LINE
  8
0
 10
-10.1026
 20
502.387
 11
-9.93785
 21
502.232
  0
LINE
  8
0
 10
-9.93785
 20
502.232
 11
-9.79376
 21
502.058
  0
LINE
  8
0
 10
-9.79376
 20
502.058
 11
-9.67264
 21
501.867
  0
LINE
  8
0
 10
-9.67264
 20
501.867
 11
-9.5764
 21
501.663
  0
LINE
  8
0
 10
-9.5764
 20
501.663
 11
-9.50655
 21
501.448
  0
LINE
  8
0
 10
-9.50655
 20
501.448
 11
-9.46419
 21
501.226
  0
LINE
  8
0
 10
-9.46419
 20
501.226
 11
-9.45
 21
501
  0
LINE
  8
0
 10
-9.45
 20
501
 11
-9.46419
 21
500.774
  0
LINE
  8
0
 10
-9.46419
 20
500.774
 11
-9.50655
 21
500.552
  0
LINE
  8
0
 10
-9.50655
 20
500.552
 11
-9.5764
 21
500.337
  0
LINE
  8
0
 10
-9.5764
 20
500.337
 11
-9.67264
 21
500.133
  0
LINE
  8
0
 10
-9.67264
 20
500.133
 11
-9.79376
 21
499.942
  0
LINE
  8
0
 10
-9.79376
 20
499.942
 11
-9.93785
 21
499.768
  0
LINE
  8
0
 10
-9.93785
 20
499.768
 11
-10.1026
 21
499.613
  0
LINE
  8
0
 10
-10.1026
 20
499.613
 11
-10.2855
 21
499.48
  0
LINE
  8
0
 10
-10.2855
 20
499.48
 11
-10.4836
 21
499.371
  0
LINE
  8
0
 10
-10.4836
 20
499.371
 11
-10.6938
 21
499.288
  0
LINE
  8
0
 10
-10.6938
 20
499.288
 11
-10.9127
 21
499.232
  0
LINE
  8
0
 10
-10.9127
 20
499.232
 11
-11.137
 21
499.204
  0
LINE
  8
0
 10
-11.137
 20
499.204
 11
-11.363
 21
499.204
  0
LINE
  8
0
 10
-11.363
 20
409.204
 11
-11.5873
 21
409.232
  0
LINE
  8
0
 10
-11.5873
 20
409.232
 11
-11.8062
 21
409.288
  0
LINE
  8
0
 10
-11.8062
 20
409.288
 11
-12.0164
 21
409.371
  0
LINE
  8
0
 10
-12.0164
 20
409.371
 11
-12.2145
 21
409.48
  0
LINE
  8
0
 10
-12.2145
 20
409.48
 11
-12.3974
 21
409.613
  0
LINE
  8
0
 10
-12.3974
 20
409.613
 11
-12.5621
 21
409.768
  0
LINE
  8
0
 10
-12.5621
 20
409.768
 11
-12.7062
 21
409.942
  0
LINE
  8
0
 10
-12.7062
 20
409.942
 11
-12.8273
 21
410.133
  0
LINE
  8
0
 10
-12.8273
 20
410.133
 11
-12.9236
 21
410.337
  0
LINE
  8
0
 10
-12.9236
 20
410.337
 11
-12.9934
 21
410.552
  0
LINE
  8
0
 10
-12.9934
 20
410.552
 11
-13.0358
 21
410.774
  0
LINE
  8
0
 10
-13.0358
 20
410.774
 11
-13.05
 21
411
  0
LINE
  8
0
 10
-13.05
 20
411
 11
-13.0358
 21
411.226
  0
LINE
  8
0
 10
-13.0358
 20
411.226
 11
-12.9934
 21
411.448
  0
LINE
  8
0
 10
-12.9934
 20
411.448
 11
-12.9236
 21
411.663
  0
LINE
  8
0
 10
-12.9236
 20
411.663
 11
-12.8273
 21
411.867
  0
LINE
  8
0
 10
-12.8273
 20
411.867
 11
-12.7062
 21
412.058
  0
LINE
  8
0
 10
-12.7062
 20
412.058
 11
-12.5621
 21
412.232
  0
LINE
  8
0
 10
-12.5621
 20
412.232
 11
-12.3974
 21
412.387
  0
LINE
  8
0
 10
-12.3974
 20
412.387
 11
-12.2145
 21
412.52
  0
LINE
  8
0
 10
-12.2145
 20
412.52
 11
-12.0164
 21
412.629
  0
LINE
  8
0
 10
-12.0164
 20
412.629
 11
-11.8062
 21
412.712
  0
LINE
  8
0
 10
-11.8062
 20
412.712
 11
-11.5873
 21
412.768
  0
LINE
  8
0
 10
-11.5873
 20
412.768
 11
-11.363
 21
412.796
  0
LINE
  8
0
 10
-11.363
 20
412.796
 11
-11.137
 21
412.796
  0
LINE
  8
0
 10
-11.137
 20
412.796
 11
-10.9127
 21
412.768
  0
LINE
  8
0
 10
-10.9127
 20
412.768
 11
-10.6938
 21
412.712
  0
LINE
  8
0
 10
-10.6938
 20
412.712
 11
-10.4836
 21
412.629
  0
LINE
  8
0
 10
-10.4836
 20
412.629
 11
-10.2855
 21
412.52
  0
LINE
  8
0
 10
-10.2855
 20
412.52
 11
-10.1026
 21
412.387
  0
LINE
  8
0
 10
-10.1026
 20
412.387
 11
-9.93785
 21
412.232
  0
LINE
  8
0
 10
-9.93785
 20
412.232
 11
-9.79376
 21
412.058
  0
LINE
  8
0
 10
-9.79376
 20
412.058
 11
-9.67264
 21
411.867
  0
LINE
  8
0
 10
-9.67264
 20
411.867
 11
-9.5764
 21
411.663
  0
LINE
  8
0
 10
-9.5764
 20
411.663
 11
-9.50655
 21
411.448
  0
LINE
  8
0
 10
-9.50655
 20
411.448
 11
-9.46419
 21
411.226
  0
LINE
  8
0
 10
-9.46419
 20
411.226
 11
-9.45
 21
411
  0
LINE
  8
0
 10
-9.45
 20
411
 11
-9.46419
 21
410.774
  0
LINE
  8
0
 10
-9.46419
 20
410.774
 11
-9.50655
 21
410.552
  0
LINE
  8
0
 10
-9.50655
 20
410.552
 11
-9.5764
 21
410.337
  0
LINE
  8
0
 10
-9.5764
 20
410.337
 11
-9.67264
 21
410.133
  0
LINE
  8
0
 10
-9.67264
 20
410.133
 11
-9.79376
 21
409.942
  0
LINE
  8
0
 10
-9.79376
 20
409.942
 11
-9.93785
 21
409.768
  0
LINE
  8
0
 10
-9.93785
 20
409.768
 11
-10.1026
 21
409.613
  0
LINE
  8
0
 10
-10.1026
 20
409.613
 11
-10.2855
 21
409.48
  0
LINE
  8
0
 10
-10.2855
 20
409.48
 11
-10.4836
 21
409.371
  0
LINE
  8
0
 10
-10.4836
 20
409.371
 11
-10.6938
 21
409.288
  0
LINE
  8
0
 10
-10.6938
 20
409.288
 11
-10.9127
 21
409.232
  0
LINE
  8
0
 10
-10.9127
 20
409.232
 11
-11.137
 21
409.204
  0
LINE
  8
0
 10
-11.137
 20
409.204
 11
-11.363
 21
409.204
  0
LINE
  8
0
 10
11.137
 20
409.204
 11
10.9127
 21
409.232
  0
LINE
  8
0
 10
10.9127
 20
409.232
 11
10.6938
 21
409.288
  0
LINE
  8
0
 10
10.6938
 20
409.288
 11
10.4836
 21
409.371
  0
LINE
  8
0
 10
10.4836
 20
409.371
 11
10.2855
 21
409.48
  0
LINE
  8
0
 10
10.2855
 20
409.48
 11
10.1026
 21
409.613
  0
LINE
  8
0
 10
10.1026
 20
409.613
 11
9.93785
 21
409.768
  0
LINE
  8
0
 10
9.93785
 20
409.768
 11
9.79376
 21
409.942
  0
LINE
  8
0
 10
9.79376
 20
409.942
 11
9.67264
 21
410.133
  0
LINE
  8
0
 10
9.67264
 20
410.133
 11
9.5764
 21
410.337
  0
LINE
  8
0
 10
9.5764
 20
410.337
 11
9.50655
 21
410.552
  0
LINE
  8
0
 10
9.50655
 20
410.552
 11
9.46419
 21
410.774
  0
LINE
  8
0
 10
9.46419
 20
410.774
 11
9.45
 21
411
  0
LINE
  8
0
 10
9.45
 20
411
 11
9.46419
 21
411.226
  0
LINE
  8
0
 10
9.46419
 20
411.226
 11
9.50655
 21
411.448
  0
LINE
  8
0
 10
9.50655
 20
411.448
 11
9.5764
 21
411.663
  0
LINE
  8
0
 10
9.5764
 20
411.663
 11
9.67264
 21
411.867
  0
LINE
  8
0
 10
9.67264
 20
411.867
 11
9.79376
 21
412.058
  0
LINE
  8
0
 10
9.79376
 20
412.058
 11
9.93785
 21
412.232
  0
LINE
  8
0
 10
9.93785
 20
412.232
 11
10.1026
 21
412.387
  0
LINE
  8
0
 10
10.1026
 20
412.387
 11
10.2855
 21
412.52
  0
LINE
  8
0
 10
10.2855
 20
412.52
 11
10.4836
 21
412.629
  0
LINE
  8
0
 10
10.4836
 20
412.629
 11
10.6938
 21
412.712
  0
LINE
  8
0
 10
10.6938
 20
412.712
 11
10.9127
 21
412.768
  0
LINE
  8
0
 10
10.9127
 20
412.768
 11
11.137
 21
412.796
  0
LINE
  8
0
 10
11.137
 20
412.796
 11
11.363
 21
412.796
  0
LINE
  8
0
 10
11.363
 20
412.796
 11
11.5873
 21
412.768
  0
LINE
  8
0
 10
11.5873
 20
412.768
 11
11.8062
 21
412.712
  0
LINE
  8
0
 10
11.8062
 20
412.712
 11
12.0164
 21
412.629
  0
LINE
  8
0
 10
12.0164
 20
412.629
 11
12.2145
 21
412.52
  0
LINE
  8
0
 10
12.2145
 20
412.52
 11
12.3974
 21
412.387
  0
LINE
  8
0
 10
12.3974
 20
412.387
 11
12.5621
 21
412.232
  0
LINE
  8
0
 10
12.5621
 20
412.232
 11
12.7062
 21
412.058
  0
LINE
  8
0
 10
12.7062
 20
412.058
 11
12.8273
 21
411.867
  0
LINE
  8
0
 10
12.8273
 20
411.867
 11
12.9236
 21
411.663
  0
LINE
  8
0
 10
12.9236
 20
411.663
 11
12.9934
 21
411.448
  0
LINE
  8
0
 10
12.9934
 20
411.448
 11
13.0358
 21
411.226
  0
LINE
  8
0
 10
13.0358
 20
411.226
 11
13.05
 21
411
  0
LINE
  8
0
 10
13.05
 20
411
 11
13.0358
 21
410.774
  0
LINE
  8
0
 10
13.0358
 20
410.774
 11
12.9934
 21
410.552
  0
LINE
  8
0
 10
12.9934
 20
410.552
 11
12.9236
 21
410.337
  0
LINE
  8
0
 10
12.9236
 20
410.337
 11
12.8273
 21
410.133
  0
LINE
  8
0
 10
12.8273
 20
410.133
 11
12.7062
 21
409.942
  0
LINE
  8
0
 10
12.7062
 20
409.942
 11
12.5621
 21
409.768
  0
LINE
  8
0
 10
12.5621
 20
409.768
 11
12.3974
 21
409.613
  0
LINE
  8
0
 10
12.3974
 20
409.613
 11
12.2145
 21
409.48
  0
LINE
  8
0
 10
12.2145
 20
409.48
 11
12.0164
 21
409.371
  0
LINE
  8
0
 10
12.0164
 20
409.371
 11
11.8062
 21
409.288
  0
LINE
  8
0
 10
11.8062
 20
409.288
 11
11.5873
 21
409.232
  0
LINE
  8
0
 10
11.5873
 20
409.232
 11
11.363
 21
409.204
  0
LINE
  8
0
 10
11.363
 20
409.204
 11
11.137
 21
409.204
  0
ENDSEC
  0
SECTION
  2
OBJECTS
  0
DICTIONARY
  0
ENDSEC
  0
EOF
