  0
SECTION
  2
BLOCKS
  0
ENDSEC
  0
SECTION
  2
ENTITIES
  0
LINE
  8
0
 10
48.4369
 20
167.339
 11
49.0451
 21
167.495
  0
LINE
  8
0
 10
49.0451
 20
167.495
 11
49.6289
 21
167.726
  0
LINE
  8
0
 10
49.6289
 20
167.726
 11
50.1791
 21
168.028
  0
LINE
  8
0
 10
50.1791
 20
168.028
 11
50.6871
 21
168.397
  0
LINE
  8
0
 10
50.6871
 20
168.397
 11
51.1448
 21
168.827
  0
LINE
  8
0
 10
51.1448
 20
168.827
 11
51.5451
 21
169.311
  0
LINE
  8
0
 10
51.5451
 20
169.311
 11
51.8815
 21
169.841
  0
LINE
  8
0
 10
51.8815
 20
169.841
 11
52.1489
 21
170.409
  0
LINE
  8
0
 10
52.1489
 20
170.409
 11
52.3429
 21
171.007
  0
LINE
  8
0
 10
52.3429
 20
171.007
 11
52.4606
 21
171.623
  0
LINE
  8
0
 10
52.4606
 20
171.623
 11
52.5
 21
172.25
  0
LINE
  8
0
 10
52.5
 20
172.25
 11
52.5
 21
199.75
  0
LINE
  8
0
 10
52.5
 20
199.75
 11
52.4606
 21
200.377
  0
LINE
  8
0
 10
52.4606
 20
200.377
 11
52.3429
 21
200.993
  0
LINE
  8
0
 10
52.3429
 20
200.993
 11
52.1489
 21
201.591
  0
LINE
  8
0
 10
52.1489
 20
201.591
 11
51.8815
 21
202.159
  0
LINE
  8
0
 10
51.8815
 20
202.159
 11
51.5451
 21
202.689
  0
LINE
  8
0
 10
51.5451
 20
202.689
 11
51.1448
 21
203.173
  0
LINE
  8
0
 10
51.1448
 20
203.173
 11
50.6871
 21
203.603
  0
LINE
  8
0
 10
50.6871
 20
203.603
 11
50.1791
 21
203.972
  0
LINE
  8
0
 10
50.1791
 20
203.972
 11
49.6289
 21
204.274
  0
LINE
  8
0
 10
49.6289
 20
204.274
 11
49.0451
 21
204.505
  0
LINE
  8
0
 10
49.0451
 20
204.505
 11
48.4369
 21
204.661
  0
LINE
  8
0
 10
48.4369
 20
204.661
 11
47.8139
 21
204.74
  0
LINE
  8
0
 10
47.8139
 20
204.74
 11
-47.8139
 21
204.74
  0
LINE
  8
0
 10
-47.8139
 20
204.74
 11
-48.4369
 21
204.661
  0
LINE
  8
0
 10
-48.4369
 20
204.661
 11
-49.0451
 21
204.505
  0
LINE
  8
0
 10
-49.0451
 20
204.505
 11
-49.6289
 21
204.274
  0
LINE
  8
0
 10
-49.6289
 20
204.274
 11
-50.1791
 21
203.972
  0
LINE
  8
0
 10
-50.1791
 20
203.972
 11
-50.6871
 21
203.603
  0
LINE
  8
0
 10
-50.6871
 20
203.603
 11
-51.1448
 21
203.173
  0
LINE
  8
0
 10
-51.1448
 20
203.173
 11
-51.5451
 21
202.689
  0
LINE
  8
0
 10
-51.5451
 20
202.689
 11
-51.8815
 21
202.159
  0
LINE
  8
0
 10
-51.8815
 20
202.159
 11
-52.1489
 21
201.591
  0
LINE
  8
0
 10
-52.1489
 20
201.591
 11
-52.3429
 21
200.993
  0
LINE
  8
0
 10
-52.3429
 20
200.993
 11
-52.4606
 21
200.377
  0
LINE
  8
0
 10
-52.4606
 20
200.377
 11
-52.5
 21
199.75
  0
LINE
  8
0
 10
-52.5
 20
199.75
 11
-52.5
 21
172.25
  0
LINE
  8
0
 10
-52.5
 20
172.25
 11
-52.4606
 21
171.623
  0
LINE
  8
0
 10
-52.4606
 20
171.623
 11
-52.3429
 21
171.007
  0
LINE
  8
0
 10
-52.3429
 20
171.007
 11
-52.1489
 21
170.409
  0
LINE
  8
0
 10
-52.1489
 20
170.409
 11
-51.8815
 21
169.841
  0
LINE
  8
0
 10
-51.8815
 20
169.841
 11
-51.5451
 21
169.311
  0
LINE
  8
0
 10
-51.5451
 20
169.311
 11
-51.1448
 21
168.827
  0
LINE
  8
0
 10
-51.1448
 20
168.827
 11
-50.6871
 21
168.397
  0
LINE
  8
0
 10
-50.6871
 20
168.397
 11
-50.1791
 21
168.028
  0
LINE
  8
0
 10
-50.1791
 20
168.028
 11
-49.6289
 21
167.726
  0
LINE
  8
0
 10
-49.6289
 20
167.726
 11
-49.0451
 21
167.495
  0
LINE
  8
0
 10
-49.0451
 20
167.495
 11
-48.4369
 21
167.339
  0
LINE
  8
0
 10
-48.4369
 20
167.339
 11
-47.8139
 21
167.26
  0
LINE
  8
0
 10
-47.8139
 20
167.26
 11
47.8139
 21
167.26
  0
LINE
  8
0
 10
47.8139
 20
167.26
 11
48.4369
 21
167.339
  0
LINE
  8
0
 10
-47.2432
 20
168.885
 11
-47.7256
 21
168.946
  0
LINE
  8
0
 10
-47.7256
 20
168.946
 11
-48.1967
 21
169.067
  0
LINE
  8
0
 10
-48.1967
 20
169.067
 11
-48.6489
 21
169.246
  0
LINE
  8
0
 10
-48.6489
 20
169.246
 11
-49.0751
 21
169.48
  0
LINE
  8
0
 10
-49.0751
 20
169.48
 11
-49.4685
 21
169.766
  0
LINE
  8
0
 10
-49.4685
 20
169.766
 11
-49.823
 21
170.099
  0
LINE
  8
0
 10
-49.823
 20
170.099
 11
-50.133
 21
170.474
  0
LINE
  8
0
 10
-50.133
 20
170.474
 11
-50.3936
 21
170.884
  0
LINE
  8
0
 10
-50.3936
 20
170.884
 11
-50.6007
 21
171.324
  0
LINE
  8
0
 10
-50.6007
 20
171.324
 11
-50.751
 21
171.787
  0
LINE
  8
0
 10
-50.751
 20
171.787
 11
-50.8421
 21
172.265
  0
LINE
  8
0
 10
-50.8421
 20
172.265
 11
-50.8726
 21
172.75
  0
LINE
  8
0
 10
-50.8726
 20
172.75
 11
-50.8726
 21
199.25
  0
LINE
  8
0
 10
-50.8726
 20
199.25
 11
-50.8421
 21
199.735
  0
LINE
  8
0
 10
-50.8421
 20
199.735
 11
-50.751
 21
200.213
  0
LINE
  8
0
 10
-50.751
 20
200.213
 11
-50.6007
 21
200.676
  0
LINE
  8
0
 10
-50.6007
 20
200.676
 11
-50.3936
 21
201.116
  0
LINE
  8
0
 10
-50.3936
 20
201.116
 11
-50.133
 21
201.526
  0
LINE
  8
0
 10
-50.133
 20
201.526
 11
-49.823
 21
201.901
  0
LINE
  8
0
 10
-49.823
 20
201.901
 11
-49.4685
 21
202.234
  0
LINE
  8
0
 10
-49.4685
 20
202.234
 11
-49.0751
 21
202.52
  0
LINE
  8
0
 10
-49.0751
 20
202.52
 11
-48.6489
 21
202.754
  0
LINE
  8
0
 10
-48.6489
 20
202.754
 11
-48.1967
 21
202.933
  0
LINE
  8
0
 10
-48.1967
 20
202.933
 11
-47.7256
 21
203.054
  0
LINE
  8
0
 10
-47.7256
 20
203.054
 11
-47.2432
 21
203.115
  0
LINE
  8
0
 10
-47.2432
 20
203.115
 11
47.2432
 21
203.115
  0
LINE
  8
0
 10
47.2432
 20
203.115
 11
47.7256
 21
203.054
  0
LINE
  8
0
 10
47.7256
 20
203.054
 11
48.1967
 21
202.933
  0
LINE
  8
0
 10
48.1967
 20
202.933
 11
48.6489
 21
202.754
  0
LINE
  8
0
 10
48.6489
 20
202.754
 11
49.0751
 21
202.52
  0
LINE
  8
0
 10
49.0751
 20
202.52
 11
49.4685
 21
202.234
  0
LINE
  8
0
 10
49.4685
 20
202.234
 11
49.823
 21
201.901
  0
LINE
  8
0
 10
49.823
 20
201.901
 11
50.133
 21
201.526
  0
LINE
  8
0
 10
50.133
 20
201.526
 11
50.3936
 21
201.116
  0
LINE
  8
0
 10
50.3936
 20
201.116
 11
50.6007
 21
200.676
  0
LINE
  8
0
 10
50.6007
 20
200.676
 11
50.751
 21
200.213
  0
LINE
  8
0
 10
50.751
 20
200.213
 11
50.8421
 21
199.735
  0
LINE
  8
0
 10
50.8421
 20
199.735
 11
50.8726
 21
199.25
  0
LINE
  8
0
 10
50.8726
 20
199.25
 11
50.8726
 21
172.75
  0
LINE
  8
0
 10
50.8726
 20
172.75
 11
50.8421
 21
172.265
  0
LINE
  8
0
 10
50.8421
 20
172.265
 11
50.751
 21
171.787
  0
LINE
  8
0
 10
50.751
 20
171.787
 11
50.6007
 21
171.324
  0
LINE
  8
0
 10
50.6007
 20
171.324
 11
50.3936
 21
170.884
  0
LINE
  8
0
 10
50.3936
 20
170.884
 11
50.133
 21
170.474
  0
LINE
  8
0
 10
50.133
 20
170.474
 11
49.823
 21
170.099
  0
LINE
  8
0
 10
49.823
 20
170.099
 11
49.4685
 21
169.766
  0
LINE
  8
0
 10
49.4685
 20
169.766
 11
49.0751
 21
169.48
  0
LINE
  8
0
 10
49.0751
 20
169.48
 11
48.6489
 21
169.246
  0
LINE
  8
0
 10
48.6489
 20
169.246
 11
48.1967
 21
169.067
  0
LINE
  8
0
 10
48.1967
 20
169.067
 11
47.7256
 21
168.946
  0
LINE
  8
0
 10
47.7256
 20
168.946
 11
47.2432
 21
168.885
  0
LINE
  8
0
 10
47.2432
 20
168.885
 11
-47.2432
 21
168.885
  0
LINE
  8
0
 10
48.4369
 20
120.839
 11
49.0451
 21
120.995
  0
LINE
  8
0
 10
49.0451
 20
120.995
 11
49.6289
 21
121.226
  0
LINE
  8
0
 10
49.6289
 20
121.226
 11
50.1791
 21
121.528
  0
LINE
  8
0
 10
50.1791
 20
121.528
 11
50.6871
 21
121.897
  0
LINE
  8
0
 10
50.6871
 20
121.897
 11
51.1448
 21
122.327
  0
LINE
  8
0
 10
51.1448
 20
122.327
 11
51.5451
 21
122.811
  0
LINE
  8
0
 10
51.5451
 20
122.811
 11
51.8815
 21
123.341
  0
LINE
  8
0
 10
51.8815
 20
123.341
 11
52.1489
 21
123.909
  0
LINE
  8
0
 10
52.1489
 20
123.909
 11
52.3429
 21
124.507
  0
LINE
  8
0
 10
52.3429
 20
124.507
 11
52.4606
 21
125.123
  0
LINE
  8
0
 10
52.4606
 20
125.123
 11
52.5
 21
125.75
  0
LINE
  8
0
 10
52.5
 20
125.75
 11
52.5
 21
153.25
  0
LINE
  8
0
 10
52.5
 20
153.25
 11
52.4606
 21
153.877
  0
LINE
  8
0
 10
52.4606
 20
153.877
 11
52.3429
 21
154.493
  0
LINE
  8
0
 10
52.3429
 20
154.493
 11
52.1489
 21
155.091
  0
LINE
  8
0
 10
52.1489
 20
155.091
 11
51.8815
 21
155.659
  0
LINE
  8
0
 10
51.8815
 20
155.659
 11
51.5451
 21
156.189
  0
LINE
  8
0
 10
51.5451
 20
156.189
 11
51.1448
 21
156.673
  0
LINE
  8
0
 10
51.1448
 20
156.673
 11
50.6871
 21
157.103
  0
LINE
  8
0
 10
50.6871
 20
157.103
 11
50.1791
 21
157.472
  0
LINE
  8
0
 10
50.1791
 20
157.472
 11
49.6289
 21
157.774
  0
LINE
  8
0
 10
49.6289
 20
157.774
 11
49.0451
 21
158.005
  0
LINE
  8
0
 10
49.0451
 20
158.005
 11
48.4369
 21
158.161
  0
LINE
  8
0
 10
48.4369
 20
158.161
 11
47.8139
 21
158.24
  0
LINE
  8
0
 10
47.8139
 20
158.24
 11
-47.8139
 21
158.24
  0
LINE
  8
0
 10
-47.8139
 20
158.24
 11
-48.4369
 21
158.161
  0
LINE
  8
0
 10
-48.4369
 20
158.161
 11
-49.0451
 21
158.005
  0
LINE
  8
0
 10
-49.0451
 20
158.005
 11
-49.6289
 21
157.774
  0
LINE
  8
0
 10
-49.6289
 20
157.774
 11
-50.1791
 21
157.472
  0
LINE
  8
0
 10
-50.1791
 20
157.472
 11
-50.6871
 21
157.103
  0
LINE
  8
0
 10
-50.6871
 20
157.103
 11
-51.1448
 21
156.673
  0
LINE
  8
0
 10
-51.1448
 20
156.673
 11
-51.5451
 21
156.189
  0
LINE
  8
0
 10
-51.5451
 20
156.189
 11
-51.8815
 21
155.659
  0
LINE
  8
0
 10
-51.8815
 20
155.659
 11
-52.1489
 21
155.091
  0
LINE
  8
0
 10
-52.1489
 20
155.091
 11
-52.3429
 21
154.493
  0
LINE
  8
0
 10
-52.3429
 20
154.493
 11
-52.4606
 21
153.877
  0
LINE
  8
0
 10
-52.4606
 20
153.877
 11
-52.5
 21
153.25
  0
LINE
  8
0
 10
-52.5
 20
153.25
 11
-52.5
 21
125.75
  0
LINE
  8
0
 10
-52.5
 20
125.75
 11
-52.4606
 21
125.123
  0
LINE
  8
0
 10
-52.4606
 20
125.123
 11
-52.3429
 21
124.507
  0
LINE
  8
0
 10
-52.3429
 20
124.507
 11
-52.1489
 21
123.909
  0
LINE
  8
0
 10
-52.1489
 20
123.909
 11
-51.8815
 21
123.341
  0
LINE
  8
0
 10
-51.8815
 20
123.341
 11
-51.5451
 21
122.811
  0
LINE
  8
0
 10
-51.5451
 20
122.811
 11
-51.1448
 21
122.327
  0
LINE
  8
0
 10
-51.1448
 20
122.327
 11
-50.6871
 21
121.897
  0
LINE
  8
0
 10
-50.6871
 20
121.897
 11
-50.1791
 21
121.528
  0
LINE
  8
0
 10
-50.1791
 20
121.528
 11
-49.6289
 21
121.226
  0
LINE
  8
0
 10
-49.6289
 20
121.226
 11
-49.0451
 21
120.995
  0
LINE
  8
0
 10
-49.0451
 20
120.995
 11
-48.4369
 21
120.839
  0
LINE
  8
0
 10
-48.4369
 20
120.839
 11
-47.8139
 21
120.76
  0
LINE
  8
0
 10
-47.8139
 20
120.76
 11
47.8139
 21
120.76
  0
LINE
  8
0
 10
47.8139
 20
120.76
 11
48.4369
 21
120.839
  0
LINE
  8
0
 10
-45.1507
 20
148.355
 11
-45.4497
 21
148.393
  0
LINE
  8
0
 10
-45.4497
 20
148.393
 11
-45.7416
 21
148.467
  0
LINE
  8
0
 10
-45.7416
 20
148.467
 11
-46.0219
 21
148.578
  0
LINE
  8
0
 10
-46.0219
 20
148.578
 11
-46.286
 21
148.724
  0
LINE
  8
0
 10
-46.286
 20
148.724
 11
-46.5298
 21
148.901
  0
LINE
  8
0
 10
-46.5298
 20
148.901
 11
-46.7495
 21
149.107
  0
LINE
  8
0
 10
-46.7495
 20
149.107
 11
-46.9416
 21
149.339
  0
LINE
  8
0
 10
-46.9416
 20
149.339
 11
-47.1031
 21
149.594
  0
LINE
  8
0
 10
-47.1031
 20
149.594
 11
-47.2315
 21
149.867
  0
LINE
  8
0
 10
-47.2315
 20
149.867
 11
-47.3246
 21
150.153
  0
LINE
  8
0
 10
-47.3246
 20
150.153
 11
-47.3811
 21
150.449
  0
LINE
  8
0
 10
-47.3811
 20
150.449
 11
-47.4
 21
150.75
  0
LINE
  8
0
 10
-47.4
 20
150.75
 11
-47.3811
 21
151.051
  0
LINE
  8
0
 10
-47.3811
 20
151.051
 11
-47.3246
 21
151.347
  0
LINE
  8
0
 10
-47.3246
 20
151.347
 11
-47.2315
 21
151.633
  0
LINE
  8
0
 10
-47.2315
 20
151.633
 11
-47.1031
 21
151.906
  0
LINE
  8
0
 10
-47.1031
 20
151.906
 11
-46.9416
 21
152.161
  0
LINE
  8
0
 10
-46.9416
 20
152.161
 11
-46.7495
 21
152.393
  0
LINE
  8
0
 10
-46.7495
 20
152.393
 11
-46.5298
 21
152.599
  0
LINE
  8
0
 10
-46.5298
 20
152.599
 11
-46.286
 21
152.776
  0
LINE
  8
0
 10
-46.286
 20
152.776
 11
-46.0219
 21
152.922
  0
LINE
  8
0
 10
-46.0219
 20
152.922
 11
-45.7416
 21
153.033
  0
LINE
  8
0
 10
-45.7416
 20
153.033
 11
-45.4497
 21
153.107
  0
LINE
  8
0
 10
-45.4497
 20
153.107
 11
-45.1507
 21
153.145
  0
LINE
  8
0
 10
-45.1507
 20
153.145
 11
-44.8493
 21
153.145
  0
LINE
  8
0
 10
-44.8493
 20
153.145
 11
-44.5503
 21
153.107
  0
LINE
  8
0
 10
-44.5503
 20
153.107
 11
-44.2584
 21
153.033
  0
LINE
  8
0
 10
-44.2584
 20
153.033
 11
-43.9781
 21
152.922
  0
LINE
  8
0
 10
-43.9781
 20
152.922
 11
-43.714
 21
152.776
  0
LINE
  8
0
 10
-43.714
 20
152.776
 11
-43.4702
 21
152.599
  0
LINE
  8
0
 10
-43.4702
 20
152.599
 11
-43.2505
 21
152.393
  0
LINE
  8
0
 10
-43.2505
 20
152.393
 11
-43.0583
 21
152.161
  0
LINE
  8
0
 10
-43.0583
 20
152.161
 11
-42.8969
 21
151.906
  0
LINE
  8
0
 10
-42.8969
 20
151.906
 11
-42.7685
 21
151.633
  0
LINE
  8
0
 10
-42.7685
 20
151.633
 11
-42.6754
 21
151.347
  0
LINE
  8
0
 10
-42.6754
 20
151.347
 11
-42.6189
 21
151.051
  0
LINE
  8
0
 10
-42.6189
 20
151.051
 11
-42.6
 21
150.75
  0
LINE
  8
0
 10
-42.6
 20
150.75
 11
-42.6189
 21
150.449
  0
LINE
  8
0
 10
-42.6189
 20
150.449
 11
-42.6754
 21
150.153
  0
LINE
  8
0
 10
-42.6754
 20
150.153
 11
-42.7685
 21
149.867
  0
LINE
  8
0
 10
-42.7685
 20
149.867
 11
-42.8969
 21
149.594
  0
LINE
  8
0
 10
-42.8969
 20
149.594
 11
-43.0583
 21
149.339
  0
LINE
  8
0
 10
-43.0583
 20
149.339
 11
-43.2505
 21
149.107
  0
LINE
  8
0
 10
-43.2505
 20
149.107
 11
-43.4702
 21
148.901
  0
LINE
  8
0
 10
-43.4702
 20
148.901
 11
-43.714
 21
148.724
  0
LINE
  8
0
 10
-43.714
 20
148.724
 11
-43.9781
 21
148.578
  0
LINE
  8
0
 10
-43.9781
 20
148.578
 11
-44.2584
 21
148.467
  0
LINE
  8
0
 10
-44.2584
 20
148.467
 11
-44.5503
 21
148.393
  0
LINE
  8
0
 10
-44.5503
 20
148.393
 11
-44.8493
 21
148.355
  0
LINE
  8
0
 10
-44.8493
 20
148.355
 11
-45.1507
 21
148.355
  0
LINE
  8
0
 10
44.8493
 20
148.355
 11
44.5503
 21
148.393
  0
LINE
  8
0
 10
44.5503
 20
148.393
 11
44.2584
 21
148.467
  0
LINE
  8
0
 10
44.2584
 20
148.467
 11
43.9781
 21
148.578
  0
LINE
  8
0
 10
43.9781
 20
148.578
 11
43.714
 21
148.724
  0
LINE
  8
0
 10
43.714
 20
148.724
 11
43.4702
 21
148.901
  0
LINE
  8
0
 10
43.4702
 20
148.901
 11
43.2505
 21
149.107
  0
LINE
  8
0
 10
43.2505
 20
149.107
 11
43.0583
 21
149.339
  0
LINE
  8
0
 10
43.0583
 20
149.339
 11
42.8969
 21
149.594
  0
LINE
  8
0
 10
42.8969
 20
149.594
 11
42.7685
 21
149.867
  0
LINE
  8
0
 10
42.7685
 20
149.867
 11
42.6754
 21
150.153
  0
LINE
  8
0
 10
42.6754
 20
150.153
 11
42.6189
 21
150.449
  0
LINE
  8
0
 10
42.6189
 20
150.449
 11
42.6
 21
150.75
  0
LINE
  8
0
 10
42.6
 20
150.75
 11
42.6189
 21
151.051
  0
LINE
  8
0
 10
42.6189
 20
151.051
 11
42.6754
 21
151.347
  0
LINE
  8
0
 10
42.6754
 20
151.347
 11
42.7685
 21
151.633
  0
LINE
  8
0
 10
42.7685
 20
151.633
 11
42.8969
 21
151.906
  0
LINE
  8
0
 10
42.8969
 20
151.906
 11
43.0583
 21
152.161
  0
LINE
  8
0
 10
43.0583
 20
152.161
 11
43.2505
 21
152.393
  0
LINE
  8
0
 10
43.2505
 20
152.393
 11
43.4702
 21
152.599
  0
LINE
  8
0
 10
43.4702
 20
152.599
 11
43.714
 21
152.776
  0
LINE
  8
0
 10
43.714
 20
152.776
 11
43.9781
 21
152.922
  0
LINE
  8
0
 10
43.9781
 20
152.922
 11
44.2584
 21
153.033
  0
LINE
  8
0
 10
44.2584
 20
153.033
 11
44.5503
 21
153.107
  0
LINE
  8
0
 10
44.5503
 20
153.107
 11
44.8493
 21
153.145
  0
LINE
  8
0
 10
44.8493
 20
153.145
 11
45.1507
 21
153.145
  0
LINE
  8
0
 10
45.1507
 20
153.145
 11
45.4497
 21
153.107
  0
LINE
  8
0
 10
45.4497
 20
153.107
 11
45.7416
 21
153.033
  0
LINE
  8
0
 10
45.7416
 20
153.033
 11
46.0219
 21
152.922
  0
LINE
  8
0
 10
46.0219
 20
152.922
 11
46.286
 21
152.776
  0
LINE
  8
0
 10
46.286
 20
152.776
 11
46.5298
 21
152.599
  0
LINE
  8
0
 10
46.5298
 20
152.599
 11
46.7495
 21
152.393
  0
LINE
  8
0
 10
46.7495
 20
152.393
 11
46.9416
 21
152.161
  0
LINE
  8
0
 10
46.9416
 20
152.161
 11
47.1031
 21
151.906
  0
LINE
  8
0
 10
47.1031
 20
151.906
 11
47.2315
 21
151.633
  0
LINE
  8
0
 10
47.2315
 20
151.633
 11
47.3246
 21
151.347
  0
LINE
  8
0
 10
47.3246
 20
151.347
 11
47.3811
 21
151.051
  0
LINE
  8
0
 10
47.3811
 20
151.051
 11
47.4
 21
150.75
  0
LINE
  8
0
 10
47.4
 20
150.75
 11
47.3811
 21
150.449
  0
LINE
  8
0
 10
47.3811
 20
150.449
 11
47.3246
 21
150.153
  0
LINE
  8
0
 10
47.3246
 20
150.153
 11
47.2315
 21
149.867
  0
LINE
  8
0
 10
47.2315
 20
149.867
 11
47.1031
 21
149.594
  0
LINE
  8
0
 10
47.1031
 20
149.594
 11
46.9416
 21
149.339
  0
LINE
  8
0
 10
46.9416
 20
149.339
 11
46.7495
 21
149.107
  0
LINE
  8
0
 10
46.7495
 20
149.107
 11
46.5298
 21
148.901
  0
LINE
  8
0
 10
46.5298
 20
148.901
 11
46.286
 21
148.724
  0
LINE
  8
0
 10
46.286
 20
148.724
 11
46.0219
 21
148.578
  0
LINE
  8
0
 10
46.0219
 20
148.578
 11
45.7416
 21
148.467
  0
LINE
  8
0
 10
45.7416
 20
148.467
 11
45.4497
 21
148.393
  0
LINE
  8
0
 10
45.4497
 20
148.393
 11
45.1507
 21
148.355
  0
LINE
  8
0
 10
45.1507
 20
148.355
 11
44.8493
 21
148.355
  0
LINE
  8
0
 10
44.8493
 20
125.855
 11
44.5503
 21
125.893
  0
LINE
  8
0
 10
44.5503
 20
125.893
 11
44.2584
 21
125.967
  0
LINE
  8
0
 10
44.2584
 20
125.967
 11
43.9781
 21
126.078
  0
LINE
  8
0
 10
43.9781
 20
126.078
 11
43.714
 21
126.224
  0
LINE
  8
0
 10
43.714
 20
126.224
 11
43.4702
 21
126.401
  0
LINE
  8
0
 10
43.4702
 20
126.401
 11
43.2505
 21
126.607
  0
LINE
  8
0
 10
43.2505
 20
126.607
 11
43.0583
 21
126.839
  0
LINE
  8
0
 10
43.0583
 20
126.839
 11
42.8969
 21
127.094
  0
LINE
  8
0
 10
42.8969
 20
127.094
 11
42.7685
 21
127.367
  0
LINE
  8
0
 10
42.7685
 20
127.367
 11
42.6754
 21
127.653
  0
LINE
  8
0
 10
42.6754
 20
127.653
 11
42.6189
 21
127.949
  0
LINE
  8
0
 10
42.6189
 20
127.949
 11
42.6
 21
128.25
  0
LINE
  8
0
 10
42.6
 20
128.25
 11
42.6189
 21
128.551
  0
LINE
  8
0
 10
42.6189
 20
128.551
 11
42.6754
 21
128.847
  0
LINE
  8
0
 10
42.6754
 20
128.847
 11
42.7685
 21
129.133
  0
LINE
  8
0
 10
42.7685
 20
129.133
 11
42.8969
 21
129.406
  0
LINE
  8
0
 10
42.8969
 20
129.406
 11
43.0583
 21
129.661
  0
LINE
  8
0
 10
43.0583
 20
129.661
 11
43.2505
 21
129.893
  0
LINE
  8
0
 10
43.2505
 20
129.893
 11
43.4702
 21
130.099
  0
LINE
  8
0
 10
43.4702
 20
130.099
 11
43.714
 21
130.276
  0
LINE
  8
0
 10
43.714
 20
130.276
 11
43.9781
 21
130.422
  0
LINE
  8
0
 10
43.9781
 20
130.422
 11
44.2584
 21
130.533
  0
LINE
  8
0
 10
44.2584
 20
130.533
 11
44.5503
 21
130.607
  0
LINE
  8
0
 10
44.5503
 20
130.607
 11
44.8493
 21
130.645
  0
LINE
  8
0
 10
44.8493
 20
130.645
 11
45.1507
 21
130.645
  0
LINE
  8
0
 10
45.1507
 20
130.645
 11
45.4497
 21
130.607
  0
LINE
  8
0
 10
45.4497
 20
130.607
 11
45.7416
 21
130.533
  0
LINE
  8
0
 10
45.7416
 20
130.533
 11
46.0219
 21
130.422
  0
LINE
  8
0
 10
46.0219
 20
130.422
 11
46.286
 21
130.276
  0
LINE
  8
0
 10
46.286
 20
130.276
 11
46.5298
 21
130.099
  0
LINE
  8
0
 10
46.5298
 20
130.099
 11
46.7495
 21
129.893
  0
LINE
  8
0
 10
46.7495
 20
129.893
 11
46.9416
 21
129.661
  0
LINE
  8
0
 10
46.9416
 20
129.661
 11
47.1031
 21
129.406
  0
LINE
  8
0
 10
47.1031
 20
129.406
 11
47.2315
 21
129.133
  0
LINE
  8
0
 10
47.2315
 20
129.133
 11
47.3246
 21
128.847
  0
LINE
  8
0
 10
47.3246
 20
128.847
 11
47.3811
 21
128.551
  0
LINE
  8
0
 10
47.3811
 20
128.551
 11
47.4
 21
128.25
  0
LINE
  8
0
 10
47.4
 20
128.25
 11
47.3811
 21
127.949
  0
LINE
  8
0
 10
47.3811
 20
127.949
 11
47.3246
 21
127.653
  0
LINE
  8
0
 10
47.3246
 20
127.653
 11
47.2315
 21
127.367
  0
LINE
  8
0
 10
47.2315
 20
127.367
 11
47.1031
 21
127.094
  0
LINE
  8
0
 10
47.1031
 20
127.094
 11
46.9416
 21
126.839
  0
LINE
  8
0
 10
46.9416
 20
126.839
 11
46.7495
 21
126.607
  0
LINE
  8
0
 10
46.7495
 20
126.607
 11
46.5298
 21
126.401
  0
LINE
  8
0
 10
46.5298
 20
126.401
 11
46.286
 21
126.224
  0
LINE
  8
0
 10
46.286
 20
126.224
 11
46.0219
 21
126.078
  0
LINE
  8
0
 10
46.0219
 20
126.078
 11
45.7416
 21
125.967
  0
LINE
  8
0
 10
45.7416
 20
125.967
 11
45.4497
 21
125.893
  0
LINE
  8
0
 10
45.4497
 20
125.893
 11
45.1507
 21
125.855
  0
LINE
  8
0
 10
45.1507
 20
125.855
 11
44.8493
 21
125.855
  0
LINE
  8
0
 10
-45.1507
 20
125.855
 11
-45.4497
 21
125.893
  0
LINE
  8
0
 10
-45.4497
 20
125.893
 11
-45.7416
 21
125.967
  0
LINE
  8
0
 10
-45.7416
 20
125.967
 11
-46.0219
 21
126.078
  0
LINE
  8
0
 10
-46.0219
 20
126.078
 11
-46.286
 21
126.224
  0
LINE
  8
0
 10
-46.286
 20
126.224
 11
-46.5298
 21
126.401
  0
LINE
  8
0
 10
-46.5298
 20
126.401
 11
-46.7495
 21
126.607
  0
LINE
  8
0
 10
-46.7495
 20
126.607
 11
-46.9416
 21
126.839
  0
LINE
  8
0
 10
-46.9416
 20
126.839
 11
-47.1031
 21
127.094
  0
LINE
  8
0
 10
-47.1031
 20
127.094
 11
-47.2315
 21
127.367
  0
LINE
  8
0
 10
-47.2315
 20
127.367
 11
-47.3246
 21
127.653
  0
LINE
  8
0
 10
-47.3246
 20
127.653
 11
-47.3811
 21
127.949
  0
LINE
  8
0
 10
-47.3811
 20
127.949
 11
-47.4
 21
128.25
  0
LINE
  8
0
 10
-47.4
 20
128.25
 11
-47.3811
 21
128.551
  0
LINE
  8
0
 10
-47.3811
 20
128.551
 11
-47.3246
 21
128.847
  0
LINE
  8
0
 10
-47.3246
 20
128.847
 11
-47.2315
 21
129.133
  0
LINE
  8
0
 10
-47.2315
 20
129.133
 11
-47.1031
 21
129.406
  0
LINE
  8
0
 10
-47.1031
 20
129.406
 11
-46.9416
 21
129.661
  0
LINE
  8
0
 10
-46.9416
 20
129.661
 11
-46.7495
 21
129.893
  0
LINE
  8
0
 10
-46.7495
 20
129.893
 11
-46.5298
 21
130.099
  0
LINE
  8
0
 10
-46.5298
 20
130.099
 11
-46.286
 21
130.276
  0
LINE
  8
0
 10
-46.286
 20
130.276
 11
-46.0219
 21
130.422
  0
LINE
  8
0
 10
-46.0219
 20
130.422
 11
-45.7416
 21
130.533
  0
LINE
  8
0
 10
-45.7416
 20
130.533
 11
-45.4497
 21
130.607
  0
LINE
  8
0
 10
-45.4497
 20
130.607
 11
-45.1507
 21
130.645
  0
LINE
  8
0
 10
-45.1507
 20
130.645
 11
-44.8493
 21
130.645
  0
LINE
  8
0
 10
-44.8493
 20
130.645
 11
-44.5503
 21
130.607
  0
LINE
  8
0
 10
-44.5503
 20
130.607
 11
-44.2584
 21
130.533
  0
LINE
  8
0
 10
-44.2584
 20
130.533
 11
-43.9781
 21
130.422
  0
LINE
  8
0
 10
-43.9781
 20
130.422
 11
-43.714
 21
130.276
  0
LINE
  8
0
 10
-43.714
 20
130.276
 11
-43.4702
 21
130.099
  0
LINE
  8
0
 10
-43.4702
 20
130.099
 11
-43.2505
 21
129.893
  0
LINE
  8
0
 10
-43.2505
 20
129.893
 11
-43.0583
 21
129.661
  0
LINE
  8
0
 10
-43.0583
 20
129.661
 11
-42.8969
 21
129.406
  0
LINE
  8
0
 10
-42.8969
 20
129.406
 11
-42.7685
 21
129.133
  0
LINE
  8
0
 10
-42.7685
 20
129.133
 11
-42.6754
 21
128.847
  0
LINE
  8
0
 10
-42.6754
 20
128.847
 11
-42.6189
 21
128.551
  0
LINE
  8
0
 10
-42.6189
 20
128.551
 11
-42.6
 21
128.25
  0
LINE
  8
0
 10
-42.6
 20
128.25
 11
-42.6189
 21
127.949
  0
LINE
  8
0
 10
-42.6189
 20
127.949
 11
-42.6754
 21
127.653
  0
LINE
  8
0
 10
-42.6754
 20
127.653
 11
-42.7685
 21
127.367
  0
LINE
  8
0
 10
-42.7685
 20
127.367
 11
-42.8969
 21
127.094
  0
LINE
  8
0
 10
-42.8969
 20
127.094
 11
-43.0583
 21
126.839
  0
LINE
  8
0
 10
-43.0583
 20
126.839
 11
-43.2505
 21
126.607
  0
LINE
  8
0
 10
-43.2505
 20
126.607
 11
-43.4702
 21
126.401
  0
LINE
  8
0
 10
-43.4702
 20
126.401
 11
-43.714
 21
126.224
  0
LINE
  8
0
 10
-43.714
 20
126.224
 11
-43.9781
 21
126.078
  0
LINE
  8
0
 10
-43.9781
 20
126.078
 11
-44.2584
 21
125.967
  0
LINE
  8
0
 10
-44.2584
 20
125.967
 11
-44.5503
 21
125.893
  0
LINE
  8
0
 10
-44.5503
 20
125.893
 11
-44.8493
 21
125.855
  0
LINE
  8
0
 10
-44.8493
 20
125.855
 11
-45.1507
 21
125.855
  0
LINE
  8
0
 10
48.4369
 20
74.3386
 11
49.0451
 21
74.4947
  0
LINE
  8
0
 10
49.0451
 20
74.4947
 11
49.6289
 21
74.7259
  0
LINE
  8
0
 10
49.6289
 20
74.7259
 11
50.1791
 21
75.0284
  0
LINE
  8
0
 10
50.1791
 20
75.0284
 11
50.6871
 21
75.3974
  0
LINE
  8
0
 10
50.6871
 20
75.3974
 11
51.1448
 21
75.8273
  0
LINE
  8
0
 10
51.1448
 20
75.8273
 11
51.5451
 21
76.3111
  0
LINE
  8
0
 10
51.5451
 20
76.3111
 11
51.8815
 21
76.8412
  0
LINE
  8
0
 10
51.8815
 20
76.8412
 11
52.1489
 21
77.4094
  0
LINE
  8
0
 10
52.1489
 20
77.4094
 11
52.3429
 21
78.0066
  0
LINE
  8
0
 10
52.3429
 20
78.0066
 11
52.4606
 21
78.6233
  0
LINE
  8
0
 10
52.4606
 20
78.6233
 11
52.5
 21
79.25
  0
LINE
  8
0
 10
52.5
 20
79.25
 11
52.5
 21
106.75
  0
LINE
  8
0
 10
52.5
 20
106.75
 11
52.4606
 21
107.377
  0
LINE
  8
0
 10
52.4606
 20
107.377
 11
52.3429
 21
107.993
  0
LINE
  8
0
 10
52.3429
 20
107.993
 11
52.1489
 21
108.591
  0
LINE
  8
0
 10
52.1489
 20
108.591
 11
51.8815
 21
109.159
  0
LINE
  8
0
 10
51.8815
 20
109.159
 11
51.5451
 21
109.689
  0
LINE
  8
0
 10
51.5451
 20
109.689
 11
51.1448
 21
110.173
  0
LINE
  8
0
 10
51.1448
 20
110.173
 11
50.6871
 21
110.603
  0
LINE
  8
0
 10
50.6871
 20
110.603
 11
50.1791
 21
110.972
  0
LINE
  8
0
 10
50.1791
 20
110.972
 11
49.6289
 21
111.274
  0
LINE
  8
0
 10
49.6289
 20
111.274
 11
49.0451
 21
111.505
  0
LINE
  8
0
 10
49.0451
 20
111.505
 11
48.4369
 21
111.661
  0
LINE
  8
0
 10
48.4369
 20
111.661
 11
47.8139
 21
111.74
  0
LINE
  8
0
 10
47.8139
 20
111.74
 11
-47.8139
 21
111.74
  0
LINE
  8
0
 10
-47.8139
 20
111.74
 11
-48.4369
 21
111.661
  0
LINE
  8
0
 10
-48.4369
 20
111.661
 11
-49.0451
 21
111.505
  0
LINE
  8
0
 10
-49.0451
 20
111.505
 11
-49.6289
 21
111.274
  0
LINE
  8
0
 10
-49.6289
 20
111.274
 11
-50.1791
 21
110.972
  0
LINE
  8
0
 10
-50.1791
 20
110.972
 11
-50.6871
 21
110.603
  0
LINE
  8
0
 10
-50.6871
 20
110.603
 11
-51.1448
 21
110.173
  0
LINE
  8
0
 10
-51.1448
 20
110.173
 11
-51.5451
 21
109.689
  0
LINE
  8
0
 10
-51.5451
 20
109.689
 11
-51.8815
 21
109.159
  0
LINE
  8
0
 10
-51.8815
 20
109.159
 11
-52.1489
 21
108.591
  0
LINE
  8
0
 10
-52.1489
 20
108.591
 11
-52.3429
 21
107.993
  0
LINE
  8
0
 10
-52.3429
 20
107.993
 11
-52.4606
 21
107.377
  0
LINE
  8
0
 10
-52.4606
 20
107.377
 11
-52.5
 21
106.75
  0
LINE
  8
0
 10
-52.5
 20
106.75
 11
-52.5
 21
79.25
  0
LINE
  8
0
 10
-52.5
 20
79.25
 11
-52.4606
 21
78.6233
  0
LINE
  8
0
 10
-52.4606
 20
78.6233
 11
-52.3429
 21
78.0066
  0
LINE
  8
0
 10
-52.3429
 20
78.0066
 11
-52.1489
 21
77.4094
  0
LINE
  8
0
 10
-52.1489
 20
77.4094
 11
-51.8815
 21
76.8412
  0
LINE
  8
0
 10
-51.8815
 20
76.8412
 11
-51.5451
 21
76.3111
  0
LINE
  8
0
 10
-51.5451
 20
76.3111
 11
-51.1448
 21
75.8273
  0
LINE
  8
0
 10
-51.1448
 20
75.8273
 11
-50.6871
 21
75.3974
  0
LINE
  8
0
 10
-50.6871
 20
75.3974
 11
-50.1791
 21
75.0284
  0
LINE
  8
0
 10
-50.1791
 20
75.0284
 11
-49.6289
 21
74.7259
  0
LINE
  8
0
 10
-49.6289
 20
74.7259
 11
-49.0451
 21
74.4947
  0
LINE
  8
0
 10
-49.0451
 20
74.4947
 11
-48.4369
 21
74.3386
  0
LINE
  8
0
 10
-48.4369
 20
74.3386
 11
-47.8139
 21
74.2599
  0
LINE
  8
0
 10
-47.8139
 20
74.2599
 11
47.8139
 21
74.2599
  0
LINE
  8
0
 10
47.8139
 20
74.2599
 11
48.4369
 21
74.3386
  0
LINE
  8
0
 10
-45.113
 20
102.454
 11
-45.3373
 21
102.482
  0
LINE
  8
0
 10
-45.3373
 20
102.482
 11
-45.5562
 21
102.538
  0
LINE
  8
0
 10
-45.5562
 20
102.538
 11
-45.7664
 21
102.621
  0
LINE
  8
0
 10
-45.7664
 20
102.621
 11
-45.9645
 21
102.73
  0
LINE
  8
0
 10
-45.9645
 20
102.73
 11
-46.1474
 21
102.863
  0
LINE
  8
0
 10
-46.1474
 20
102.863
 11
-46.3121
 21
103.018
  0
LINE
  8
0
 10
-46.3121
 20
103.018
 11
-46.4562
 21
103.192
  0
LINE
  8
0
 10
-46.4562
 20
103.192
 11
-46.5773
 21
103.383
  0
LINE
  8
0
 10
-46.5773
 20
103.383
 11
-46.6736
 21
103.587
  0
LINE
  8
0
 10
-46.6736
 20
103.587
 11
-46.7434
 21
103.802
  0
LINE
  8
0
 10
-46.7434
 20
103.802
 11
-46.7858
 21
104.024
  0
LINE
  8
0
 10
-46.7858
 20
104.024
 11
-46.8
 21
104.25
  0
LINE
  8
0
 10
-46.8
 20
104.25
 11
-46.7858
 21
104.476
  0
LINE
  8
0
 10
-46.7858
 20
104.476
 11
-46.7434
 21
104.698
  0
LINE
  8
0
 10
-46.7434
 20
104.698
 11
-46.6736
 21
104.913
  0
LINE
  8
0
 10
-46.6736
 20
104.913
 11
-46.5773
 21
105.117
  0
LINE
  8
0
 10
-46.5773
 20
105.117
 11
-46.4562
 21
105.308
  0
LINE
  8
0
 10
-46.4562
 20
105.308
 11
-46.3121
 21
105.482
  0
LINE
  8
0
 10
-46.3121
 20
105.482
 11
-46.1474
 21
105.637
  0
LINE
  8
0
 10
-46.1474
 20
105.637
 11
-45.9645
 21
105.77
  0
LINE
  8
0
 10
-45.9645
 20
105.77
 11
-45.7664
 21
105.879
  0
LINE
  8
0
 10
-45.7664
 20
105.879
 11
-45.5562
 21
105.962
  0
LINE
  8
0
 10
-45.5562
 20
105.962
 11
-45.3373
 21
106.018
  0
LINE
  8
0
 10
-45.3373
 20
106.018
 11
-45.113
 21
106.046
  0
LINE
  8
0
 10
-45.113
 20
106.046
 11
-44.887
 21
106.046
  0
LINE
  8
0
 10
-44.887
 20
106.046
 11
-44.6627
 21
106.018
  0
LINE
  8
0
 10
-44.6627
 20
106.018
 11
-44.4438
 21
105.962
  0
LINE
  8
0
 10
-44.4438
 20
105.962
 11
-44.2336
 21
105.879
  0
LINE
  8
0
 10
-44.2336
 20
105.879
 11
-44.0355
 21
105.77
  0
LINE
  8
0
 10
-44.0355
 20
105.77
 11
-43.8526
 21
105.637
  0
LINE
  8
0
 10
-43.8526
 20
105.637
 11
-43.6879
 21
105.482
  0
LINE
  8
0
 10
-43.6879
 20
105.482
 11
-43.5438
 21
105.308
  0
LINE
  8
0
 10
-43.5438
 20
105.308
 11
-43.4226
 21
105.117
  0
LINE
  8
0
 10
-43.4226
 20
105.117
 11
-43.3264
 21
104.913
  0
LINE
  8
0
 10
-43.3264
 20
104.913
 11
-43.2565
 21
104.698
  0
LINE
  8
0
 10
-43.2565
 20
104.698
 11
-43.2142
 21
104.476
  0
LINE
  8
0
 10
-43.2142
 20
104.476
 11
-43.2
 21
104.25
  0
LINE
  8
0
 10
-43.2
 20
104.25
 11
-43.2142
 21
104.024
  0
LINE
  8
0
 10
-43.2142
 20
104.024
 11
-43.2565
 21
103.802
  0
LINE
  8
0
 10
-43.2565
 20
103.802
 11
-43.3264
 21
103.587
  0
LINE
  8
0
 10
-43.3264
 20
103.587
 11
-43.4226
 21
103.383
  0
LINE
  8
0
 10
-43.4226
 20
103.383
 11
-43.5438
 21
103.192
  0
LINE
  8
0
 10
-43.5438
 20
103.192
 11
-43.6879
 21
103.018
  0
LINE
  8
0
 10
-43.6879
 20
103.018
 11
-43.8526
 21
102.863
  0
LINE
  8
0
 10
-43.8526
 20
102.863
 11
-44.0355
 21
102.73
  0
LINE
  8
0
 10
-44.0355
 20
102.73
 11
-44.2336
 21
102.621
  0
LINE
  8
0
 10
-44.2336
 20
102.621
 11
-44.4438
 21
102.538
  0
LINE
  8
0
 10
-44.4438
 20
102.538
 11
-44.6627
 21
102.482
  0
LINE
  8
0
 10
-44.6627
 20
102.482
 11
-44.887
 21
102.454
  0
LINE
  8
0
 10
-44.887
 20
102.454
 11
-45.113
 21
102.454
  0
LINE
  8
0
 10
44.887
 20
102.454
 11
44.6627
 21
102.482
  0
LINE
  8
0
 10
44.6627
 20
102.482
 11
44.4438
 21
102.538
  0
LINE
  8
0
 10
44.4438
 20
102.538
 11
44.2336
 21
102.621
  0
LINE
  8
0
 10
44.2336
 20
102.621
 11
44.0355
 21
102.73
  0
LINE
  8
0
 10
44.0355
 20
102.73
 11
43.8526
 21
102.863
  0
LINE
  8
0
 10
43.8526
 20
102.863
 11
43.6879
 21
103.018
  0
LINE
  8
0
 10
43.6879
 20
103.018
 11
43.5438
 21
103.192
  0
LINE
  8
0
 10
43.5438
 20
103.192
 11
43.4226
 21
103.383
  0
LINE
  8
0
 10
43.4226
 20
103.383
 11
43.3264
 21
103.587
  0
LINE
  8
0
 10
43.3264
 20
103.587
 11
43.2565
 21
103.802
  0
LINE
  8
0
 10
43.2565
 20
103.802
 11
43.2142
 21
104.024
  0
LINE
  8
0
 10
43.2142
 20
104.024
 11
43.2
 21
104.25
  0
LINE
  8
0
 10
43.2
 20
104.25
 11
43.2142
 21
104.476
  0
LINE
  8
0
 10
43.2142
 20
104.476
 11
43.2565
 21
104.698
  0
LINE
  8
0
 10
43.2565
 20
104.698
 11
43.3264
 21
104.913
  0
LINE
  8
0
 10
43.3264
 20
104.913
 11
43.4226
 21
105.117
  0
LINE
  8
0
 10
43.4226
 20
105.117
 11
43.5438
 21
105.308
  0
LINE
  8
0
 10
43.5438
 20
105.308
 11
43.6879
 21
105.482
  0
LINE
  8
0
 10
43.6879
 20
105.482
 11
43.8526
 21
105.637
  0
LINE
  8
0
 10
43.8526
 20
105.637
 11
44.0355
 21
105.77
  0
LINE
  8
0
 10
44.0355
 20
105.77
 11
44.2336
 21
105.879
  0
LINE
  8
0
 10
44.2336
 20
105.879
 11
44.4438
 21
105.962
  0
LINE
  8
0
 10
44.4438
 20
105.962
 11
44.6627
 21
106.018
  0
LINE
  8
0
 10
44.6627
 20
106.018
 11
44.887
 21
106.046
  0
LINE
  8
0
 10
44.887
 20
106.046
 11
45.113
 21
106.046
  0
LINE
  8
0
 10
45.113
 20
106.046
 11
45.3373
 21
106.018
  0
LINE
  8
0
 10
45.3373
 20
106.018
 11
45.5562
 21
105.962
  0
LINE
  8
0
 10
45.5562
 20
105.962
 11
45.7664
 21
105.879
  0
LINE
  8
0
 10
45.7664
 20
105.879
 11
45.9645
 21
105.77
  0
LINE
  8
0
 10
45.9645
 20
105.77
 11
46.1474
 21
105.637
  0
LINE
  8
0
 10
46.1474
 20
105.637
 11
46.3121
 21
105.482
  0
LINE
  8
0
 10
46.3121
 20
105.482
 11
46.4562
 21
105.308
  0
LINE
  8
0
 10
46.4562
 20
105.308
 11
46.5773
 21
105.117
  0
LINE
  8
0
 10
46.5773
 20
105.117
 11
46.6736
 21
104.913
  0
LINE
  8
0
 10
46.6736
 20
104.913
 11
46.7434
 21
104.698
  0
LINE
  8
0
 10
46.7434
 20
104.698
 11
46.7858
 21
104.476
  0
LINE
  8
0
 10
46.7858
 20
104.476
 11
46.8
 21
104.25
  0
LINE
  8
0
 10
46.8
 20
104.25
 11
46.7858
 21
104.024
  0
LINE
  8
0
 10
46.7858
 20
104.024
 11
46.7434
 21
103.802
  0
LINE
  8
0
 10
46.7434
 20
103.802
 11
46.6736
 21
103.587
  0
LINE
  8
0
 10
46.6736
 20
103.587
 11
46.5773
 21
103.383
  0
LINE
  8
0
 10
46.5773
 20
103.383
 11
46.4562
 21
103.192
  0
LINE
  8
0
 10
46.4562
 20
103.192
 11
46.3121
 21
103.018
  0
LINE
  8
0
 10
46.3121
 20
103.018
 11
46.1474
 21
102.863
  0
LINE
  8
0
 10
46.1474
 20
102.863
 11
45.9645
 21
102.73
  0
LINE
  8
0
 10
45.9645
 20
102.73
 11
45.7664
 21
102.621
  0
LINE
  8
0
 10
45.7664
 20
102.621
 11
45.5562
 21
102.538
  0
LINE
  8
0
 10
45.5562
 20
102.538
 11
45.3373
 21
102.482
  0
LINE
  8
0
 10
45.3373
 20
102.482
 11
45.113
 21
102.454
  0
LINE
  8
0
 10
45.113
 20
102.454
 11
44.887
 21
102.454
  0
LINE
  8
0
 10
44.887
 20
79.9536
 11
44.6627
 21
79.9819
  0
LINE
  8
0
 10
44.6627
 20
79.9819
 11
44.4438
 21
80.0381
  0
LINE
  8
0
 10
44.4438
 20
80.0381
 11
44.2336
 21
80.1213
  0
LINE
  8
0
 10
44.2336
 20
80.1213
 11
44.0355
 21
80.2302
  0
LINE
  8
0
 10
44.0355
 20
80.2302
 11
43.8526
 21
80.3631
  0
LINE
  8
0
 10
43.8526
 20
80.3631
 11
43.6879
 21
80.5178
  0
LINE
  8
0
 10
43.6879
 20
80.5178
 11
43.5438
 21
80.692
  0
LINE
  8
0
 10
43.5438
 20
80.692
 11
43.4226
 21
80.8829
  0
LINE
  8
0
 10
43.4226
 20
80.8829
 11
43.3264
 21
81.0874
  0
LINE
  8
0
 10
43.3264
 20
81.0874
 11
43.2565
 21
81.3024
  0
LINE
  8
0
 10
43.2565
 20
81.3024
 11
43.2142
 21
81.5244
  0
LINE
  8
0
 10
43.2142
 20
81.5244
 11
43.2
 21
81.75
  0
LINE
  8
0
 10
43.2
 20
81.75
 11
43.2142
 21
81.9756
  0
LINE
  8
0
 10
43.2142
 20
81.9756
 11
43.2565
 21
82.1976
  0
LINE
  8
0
 10
43.2565
 20
82.1976
 11
43.3264
 21
82.4126
  0
LINE
  8
0
 10
43.3264
 20
82.4126
 11
43.4226
 21
82.6172
  0
LINE
  8
0
 10
43.4226
 20
82.6172
 11
43.5438
 21
82.808
  0
LINE
  8
0
 10
43.5438
 20
82.808
 11
43.6879
 21
82.9822
  0
LINE
  8
0
 10
43.6879
 20
82.9822
 11
43.8526
 21
83.1369
  0
LINE
  8
0
 10
43.8526
 20
83.1369
 11
44.0355
 21
83.2698
  0
LINE
  8
0
 10
44.0355
 20
83.2698
 11
44.2336
 21
83.3787
  0
LINE
  8
0
 10
44.2336
 20
83.3787
 11
44.4438
 21
83.4619
  0
LINE
  8
0
 10
44.4438
 20
83.4619
 11
44.6627
 21
83.5181
  0
LINE
  8
0
 10
44.6627
 20
83.5181
 11
44.887
 21
83.5464
  0
LINE
  8
0
 10
44.887
 20
83.5464
 11
45.113
 21
83.5464
  0
LINE
  8
0
 10
45.113
 20
83.5464
 11
45.3373
 21
83.5181
  0
LINE
  8
0
 10
45.3373
 20
83.5181
 11
45.5562
 21
83.4619
  0
LINE
  8
0
 10
45.5562
 20
83.4619
 11
45.7664
 21
83.3787
  0
LINE
  8
0
 10
45.7664
 20
83.3787
 11
45.9645
 21
83.2698
  0
LINE
  8
0
 10
45.9645
 20
83.2698
 11
46.1474
 21
83.1369
  0
LINE
  8
0
 10
46.1474
 20
83.1369
 11
46.3121
 21
82.9822
  0
LINE
  8
0
 10
46.3121
 20
82.9822
 11
46.4562
 21
82.808
  0
LINE
  8
0
 10
46.4562
 20
82.808
 11
46.5773
 21
82.6172
  0
LINE
  8
0
 10
46.5773
 20
82.6172
 11
46.6736
 21
82.4126
  0
LINE
  8
0
 10
46.6736
 20
82.4126
 11
46.7434
 21
82.1976
  0
LINE
  8
0
 10
46.7434
 20
82.1976
 11
46.7858
 21
81.9756
  0
LINE
  8
0
 10
46.7858
 20
81.9756
 11
46.8
 21
81.75
  0
LINE
  8
0
 10
46.8
 20
81.75
 11
46.7858
 21
81.5244
  0
LINE
  8
0
 10
46.7858
 20
81.5244
 11
46.7434
 21
81.3024
  0
LINE
  8
0
 10
46.7434
 20
81.3024
 11
46.6736
 21
81.0874
  0
LINE
  8
0
 10
46.6736
 20
81.0874
 11
46.5773
 21
80.8829
  0
LINE
  8
0
 10
46.5773
 20
80.8829
 11
46.4562
 21
80.692
  0
LINE
  8
0
 10
46.4562
 20
80.692
 11
46.3121
 21
80.5178
  0
LINE
  8
0
 10
46.3121
 20
80.5178
 11
46.1474
 21
80.3631
  0
LINE
  8
0
 10
46.1474
 20
80.3631
 11
45.9645
 21
80.2302
  0
LINE
  8
0
 10
45.9645
 20
80.2302
 11
45.7664
 21
80.1213
  0
LINE
  8
0
 10
45.7664
 20
80.1213
 11
45.5562
 21
80.0381
  0
LINE
  8
0
 10
45.5562
 20
80.0381
 11
45.3373
 21
79.9819
  0
LINE
  8
0
 10
45.3373
 20
79.9819
 11
45.113
 21
79.9536
  0
LINE
  8
0
 10
45.113
 20
79.9536
 11
44.887
 21
79.9536
  0
LINE
  8
0
 10
-45.113
 20
79.9536
 11
-45.3373
 21
79.9819
  0
LINE
  8
0
 10
-45.3373
 20
79.9819
 11
-45.5562
 21
80.0381
  0
LINE
  8
0
 10
-45.5562
 20
80.0381
 11
-45.7664
 21
80.1213
  0
LINE
  8
0
 10
-45.7664
 20
80.1213
 11
-45.9645
 21
80.2302
  0
LINE
  8
0
 10
-45.9645
 20
80.2302
 11
-46.1474
 21
80.3631
  0
LINE
  8
0
 10
-46.1474
 20
80.3631
 11
-46.3121
 21
80.5178
  0
LINE
  8
0
 10
-46.3121
 20
80.5178
 11
-46.4562
 21
80.692
  0
LINE
  8
0
 10
-46.4562
 20
80.692
 11
-46.5773
 21
80.8829
  0
LINE
  8
0
 10
-46.5773
 20
80.8829
 11
-46.6736
 21
81.0874
  0
LINE
  8
0
 10
-46.6736
 20
81.0874
 11
-46.7434
 21
81.3024
  0
LINE
  8
0
 10
-46.7434
 20
81.3024
 11
-46.7858
 21
81.5244
  0
LINE
  8
0
 10
-46.7858
 20
81.5244
 11
-46.8
 21
81.75
  0
LINE
  8
0
 10
-46.8
 20
81.75
 11
-46.7858
 21
81.9756
  0
LINE
  8
0
 10
-46.7858
 20
81.9756
 11
-46.7434
 21
82.1976
  0
LINE
  8
0
 10
-46.7434
 20
82.1976
 11
-46.6736
 21
82.4126
  0
LINE
  8
0
 10
-46.6736
 20
82.4126
 11
-46.5773
 21
82.6172
  0
LINE
  8
0
 10
-46.5773
 20
82.6172
 11
-46.4562
 21
82.808
  0
LINE
  8
0
 10
-46.4562
 20
82.808
 11
-46.3121
 21
82.9822
  0
LINE
  8
0
 10
-46.3121
 20
82.9822
 11
-46.1474
 21
83.1369
  0
LINE
  8
0
 10
-46.1474
 20
83.1369
 11
-45.9645
 21
83.2698
  0
LINE
  8
0
 10
-45.9645
 20
83.2698
 11
-45.7664
 21
83.3787
  0
LINE
  8
0
 10
-45.7664
 20
83.3787
 11
-45.5562
 21
83.4619
  0
LINE
  8
0
 10
-45.5562
 20
83.4619
 11
-45.3373
 21
83.5181
  0
LINE
  8
0
 10
-45.3373
 20
83.5181
 11
-45.113
 21
83.5464
  0
LINE
  8
0
 10
-45.113
 20
83.5464
 11
-44.887
 21
83.5464
  0
LINE
  8
0
 10
-44.887
 20
83.5464
 11
-44.6627
 21
83.5181
  0
LINE
  8
0
 10
-44.6627
 20
83.5181
 11
-44.4438
 21
83.4619
  0
LINE
  8
0
 10
-44.4438
 20
83.4619
 11
-44.2336
 21
83.3787
  0
LINE
  8
0
 10
-44.2336
 20
83.3787
 11
-44.0355
 21
83.2698
  0
LINE
  8
0
 10
-44.0355
 20
83.2698
 11
-43.8526
 21
83.1369
  0
LINE
  8
0
 10
-43.8526
 20
83.1369
 11
-43.6879
 21
82.9822
  0
LINE
  8
0
 10
-43.6879
 20
82.9822
 11
-43.5438
 21
82.808
  0
LINE
  8
0
 10
-43.5438
 20
82.808
 11
-43.4226
 21
82.6172
  0
LINE
  8
0
 10
-43.4226
 20
82.6172
 11
-43.3264
 21
82.4126
  0
LINE
  8
0
 10
-43.3264
 20
82.4126
 11
-43.2565
 21
82.1976
  0
LINE
  8
0
 10
-43.2565
 20
82.1976
 11
-43.2142
 21
81.9756
  0
LINE
  8
0
 10
-43.2142
 20
81.9756
 11
-43.2
 21
81.75
  0
LINE
  8
0
 10
-43.2
 20
81.75
 11
-43.2142
 21
81.5244
  0
LINE
  8
0
 10
-43.2142
 20
81.5244
 11
-43.2565
 21
81.3024
  0
LINE
  8
0
 10
-43.2565
 20
81.3024
 11
-43.3264
 21
81.0874
  0
LINE
  8
0
 10
-43.3264
 20
81.0874
 11
-43.4226
 21
80.8829
  0
LINE
  8
0
 10
-43.4226
 20
80.8829
 11
-43.5438
 21
80.692
  0
LINE
  8
0
 10
-43.5438
 20
80.692
 11
-43.6879
 21
80.5178
  0
LINE
  8
0
 10
-43.6879
 20
80.5178
 11
-43.8526
 21
80.3631
  0
LINE
  8
0
 10
-43.8526
 20
80.3631
 11
-44.0355
 21
80.2302
  0
LINE
  8
0
 10
-44.0355
 20
80.2302
 11
-44.2336
 21
80.1213
  0
LINE
  8
0
 10
-44.2336
 20
80.1213
 11
-44.4438
 21
80.0381
  0
LINE
  8
0
 10
-44.4438
 20
80.0381
 11
-44.6627
 21
79.9819
  0
LINE
  8
0
 10
-44.6627
 20
79.9819
 11
-44.887
 21
79.9536
  0
LINE
  8
0
 10
-44.887
 20
79.9536
 11
-45.113
 21
79.9536
  0
ENDSEC
  0
SECTION
  2
OBJECTS
  0
DICTIONARY
  0
ENDSEC
  0
EOF
