solid OpenSCAD_Model
  facet normal 0 0 -1
    outer loop
      vertex 10 0 2
      vertex 11.25 0 2
      vertex 11.1613 -1.41 2
    endloop
  endfacet
  facet normal 0 0 -1
    outer loop
      vertex 9.92115 -1.25333 2
      vertex 11.1613 -1.41 2
      vertex 10.8966 -2.79776 2
    endloop
  endfacet
  facet normal 0 0 -1
    outer loop
      vertex 11.25 0 2
      vertex 10 0 2
      vertex 11.1613 1.41 2
    endloop
  endfacet
  facet normal 0 0 -1
    outer loop
      vertex 9.68583 -2.4869 2
      vertex 10.8966 -2.79776 2
      vertex 10.46 -4.1414 2
    endloop
  endfacet
  facet normal 0 0 -1
    outer loop
      vertex 9.92115 1.25333 2
      vertex 11.1613 1.41 2
      vertex 10 0 2
    endloop
  endfacet
  facet normal -0 0 -1
    outer loop
      vertex 11.1613 1.41 2
      vertex 9.92115 1.25333 2
      vertex 10.8966 2.79776 2
    endloop
  endfacet
  facet normal 0 0 -1
    outer loop
      vertex 11.1613 -1.41 2
      vertex 9.92115 -1.25333 2
      vertex 10 0 2
    endloop
  endfacet
  facet normal 0 0 -1
    outer loop
      vertex 9.29776 -3.68124 2
      vertex 10.46 -4.1414 2
      vertex 9.85845 -5.41973 2
    endloop
  endfacet
  facet normal 0 0 -1
    outer loop
      vertex 10.8966 -2.79776 2
      vertex 9.68583 -2.4869 2
      vertex 9.92115 -1.25333 2
    endloop
  endfacet
  facet normal 0 0 -1
    outer loop
      vertex 10.46 -4.1414 2
      vertex 9.29776 -3.68124 2
      vertex 9.68583 -2.4869 2
    endloop
  endfacet
  facet normal 0 0 -1
    outer loop
      vertex 8.76307 -4.81754 2
      vertex 9.85845 -5.41973 2
      vertex 9.10144 -6.61258 2
    endloop
  endfacet
  facet normal 0 0 -1
    outer loop
      vertex 9.85845 -5.41973 2
      vertex 8.76307 -4.81754 2
      vertex 9.29776 -3.68124 2
    endloop
  endfacet
  facet normal 0 0 -1
    outer loop
      vertex 8.09017 -5.87785 2
      vertex 9.10144 -6.61258 2
      vertex 8.2009 -7.70115 2
    endloop
  endfacet
  facet normal 0 0 -1
    outer loop
      vertex 9.10144 -6.61258 2
      vertex 8.09017 -5.87785 2
      vertex 8.76307 -4.81754 2
    endloop
  endfacet
  facet normal 0 0 -1
    outer loop
      vertex 8.2009 -7.70115 2
      vertex 7.28969 -6.84547 2
      vertex 8.09017 -5.87785 2
    endloop
  endfacet
  facet normal 0 0 -1
    outer loop
      vertex 7.17102 -8.66827 2
      vertex 7.28969 -6.84547 2
      vertex 8.2009 -7.70115 2
    endloop
  endfacet
  facet normal 0 0 -1
    outer loop
      vertex 7.17102 -8.66827 2
      vertex 6.37424 -7.70513 2
      vertex 7.28969 -6.84547 2
    endloop
  endfacet
  facet normal 0 0 -1
    outer loop
      vertex 6.02805 -9.49869 2
      vertex 6.37424 -7.70513 2
      vertex 7.17102 -8.66827 2
    endloop
  endfacet
  facet normal 0 0 -1
    outer loop
      vertex 6.02805 -9.49869 2
      vertex 5.35827 -8.44328 2
      vertex 6.37424 -7.70513 2
    endloop
  endfacet
  facet normal 0 0 -1
    outer loop
      vertex 4.79002 -10.1793 2
      vertex 5.35827 -8.44328 2
      vertex 6.02805 -9.49869 2
    endloop
  endfacet
  facet normal 0 0 -1
    outer loop
      vertex 4.79002 -10.1793 2
      vertex 4.25779 -9.04827 2
      vertex 5.35827 -8.44328 2
    endloop
  endfacet
  facet normal 0 0 -1
    outer loop
      vertex 3.47644 -10.6994 2
      vertex 4.25779 -9.04827 2
      vertex 4.79002 -10.1793 2
    endloop
  endfacet
  facet normal 0 0 -1
    outer loop
      vertex 3.47644 -10.6994 2
      vertex 3.09017 -9.51056 2
      vertex 4.25779 -9.04827 2
    endloop
  endfacet
  facet normal 0 0 -1
    outer loop
      vertex 2.10804 -11.0507 2
      vertex 3.09017 -9.51056 2
      vertex 3.47644 -10.6994 2
    endloop
  endfacet
  facet normal 0 0 -1
    outer loop
      vertex 2.10804 -11.0507 2
      vertex 1.87381 -9.82287 2
      vertex 3.09017 -9.51056 2
    endloop
  endfacet
  facet normal 0 0 -1
    outer loop
      vertex 0.706393 -11.2278 2
      vertex 1.87381 -9.82287 2
      vertex 2.10804 -11.0507 2
    endloop
  endfacet
  facet normal 0 0 -1
    outer loop
      vertex 0.706393 -11.2278 2
      vertex 0.627905 -9.98027 2
      vertex 1.87381 -9.82287 2
    endloop
  endfacet
  facet normal 0 0 -1
    outer loop
      vertex 0.706393 -11.2278 2
      vertex -0.627905 -9.98027 2
      vertex 0.627905 -9.98027 2
    endloop
  endfacet
  facet normal 0 0 -1
    outer loop
      vertex -0.706393 -11.2278 2
      vertex -0.627905 -9.98027 2
      vertex 0.706393 -11.2278 2
    endloop
  endfacet
  facet normal 0 0 -1
    outer loop
      vertex -0.706393 -11.2278 2
      vertex -1.87381 -9.82287 2
      vertex -0.627905 -9.98027 2
    endloop
  endfacet
  facet normal 0 0 -1
    outer loop
      vertex -2.10804 -11.0507 2
      vertex -1.87381 -9.82287 2
      vertex -0.706393 -11.2278 2
    endloop
  endfacet
  facet normal 0 0 -1
    outer loop
      vertex -2.10804 -11.0507 2
      vertex -3.09017 -9.51056 2
      vertex -1.87381 -9.82287 2
    endloop
  endfacet
  facet normal 0 0 -1
    outer loop
      vertex -3.47644 -10.6994 2
      vertex -3.09017 -9.51056 2
      vertex -2.10804 -11.0507 2
    endloop
  endfacet
  facet normal 0 0 -1
    outer loop
      vertex -3.47644 -10.6994 2
      vertex -4.25779 -9.04827 2
      vertex -3.09017 -9.51056 2
    endloop
  endfacet
  facet normal 0 0 -1
    outer loop
      vertex -4.79002 -10.1793 2
      vertex -4.25779 -9.04827 2
      vertex -3.47644 -10.6994 2
    endloop
  endfacet
  facet normal 0 0 -1
    outer loop
      vertex -4.79002 -10.1793 2
      vertex -5.35827 -8.44328 2
      vertex -4.25779 -9.04827 2
    endloop
  endfacet
  facet normal 0 0 -1
    outer loop
      vertex -6.02805 -9.49869 2
      vertex -5.35827 -8.44328 2
      vertex -4.79002 -10.1793 2
    endloop
  endfacet
  facet normal 0 0 -1
    outer loop
      vertex -6.02805 -9.49869 2
      vertex -6.37424 -7.70513 2
      vertex -5.35827 -8.44328 2
    endloop
  endfacet
  facet normal 0 0 -1
    outer loop
      vertex -7.17102 -8.66827 2
      vertex -6.37424 -7.70513 2
      vertex -6.02805 -9.49869 2
    endloop
  endfacet
  facet normal 0 0 -1
    outer loop
      vertex -7.17102 -8.66827 2
      vertex -7.28969 -6.84547 2
      vertex -6.37424 -7.70513 2
    endloop
  endfacet
  facet normal 0 0 -1
    outer loop
      vertex -8.2009 -7.70115 2
      vertex -7.28969 -6.84547 2
      vertex -7.17102 -8.66827 2
    endloop
  endfacet
  facet normal -0 0 -1
    outer loop
      vertex -7.28969 -6.84547 2
      vertex -8.2009 -7.70115 2
      vertex -8.09017 -5.87785 2
    endloop
  endfacet
  facet normal 0 0 -1
    outer loop
      vertex -9.10144 -6.61258 2
      vertex -8.09017 -5.87785 2
      vertex -8.2009 -7.70115 2
    endloop
  endfacet
  facet normal -0 0 -1
    outer loop
      vertex -8.09017 -5.87785 2
      vertex -9.10144 -6.61258 2
      vertex -8.76307 -4.81754 2
    endloop
  endfacet
  facet normal 0 0 -1
    outer loop
      vertex -9.85845 -5.41973 2
      vertex -8.76307 -4.81754 2
      vertex -9.10144 -6.61258 2
    endloop
  endfacet
  facet normal -0 0 -1
    outer loop
      vertex -8.76307 -4.81754 2
      vertex -9.85845 -5.41973 2
      vertex -9.29776 -3.68124 2
    endloop
  endfacet
  facet normal 0 0 -1
    outer loop
      vertex -10.46 -4.1414 2
      vertex -9.29776 -3.68124 2
      vertex -9.85845 -5.41973 2
    endloop
  endfacet
  facet normal -0 0 -1
    outer loop
      vertex -9.29776 -3.68124 2
      vertex -10.46 -4.1414 2
      vertex -9.68583 -2.4869 2
    endloop
  endfacet
  facet normal 0 0 -1
    outer loop
      vertex -10.8966 -2.79776 2
      vertex -9.68583 -2.4869 2
      vertex -10.46 -4.1414 2
    endloop
  endfacet
  facet normal -0 0 -1
    outer loop
      vertex -9.68583 -2.4869 2
      vertex -10.8966 -2.79776 2
      vertex -9.92115 -1.25333 2
    endloop
  endfacet
  facet normal 0 0 -1
    outer loop
      vertex 9.68583 2.4869 2
      vertex 10.8966 2.79776 2
      vertex 9.92115 1.25333 2
    endloop
  endfacet
  facet normal -0 0 -1
    outer loop
      vertex 10.8966 2.79776 2
      vertex 9.68583 2.4869 2
      vertex 10.46 4.1414 2
    endloop
  endfacet
  facet normal 0 0 -1
    outer loop
      vertex 9.29776 3.68124 2
      vertex 10.46 4.1414 2
      vertex 9.68583 2.4869 2
    endloop
  endfacet
  facet normal -0 0 -1
    outer loop
      vertex 10.46 4.1414 2
      vertex 9.29776 3.68124 2
      vertex 9.85845 5.41973 2
    endloop
  endfacet
  facet normal 0 0 -1
    outer loop
      vertex 8.76307 4.81754 2
      vertex 9.85845 5.41973 2
      vertex 9.29776 3.68124 2
    endloop
  endfacet
  facet normal -0 0 -1
    outer loop
      vertex 9.85845 5.41973 2
      vertex 8.76307 4.81754 2
      vertex 9.10144 6.61258 2
    endloop
  endfacet
  facet normal 0 0 -1
    outer loop
      vertex 8.09017 5.87785 2
      vertex 9.10144 6.61258 2
      vertex 8.76307 4.81754 2
    endloop
  endfacet
  facet normal -0 0 -1
    outer loop
      vertex 9.10144 6.61258 2
      vertex 8.09017 5.87785 2
      vertex 8.2009 7.70115 2
    endloop
  endfacet
  facet normal 0 0 -1
    outer loop
      vertex 7.28969 6.84547 2
      vertex 8.2009 7.70115 2
      vertex 8.09017 5.87785 2
    endloop
  endfacet
  facet normal 0 0 -1
    outer loop
      vertex 7.28969 6.84547 2
      vertex 7.17102 8.66827 2
      vertex 8.2009 7.70115 2
    endloop
  endfacet
  facet normal 0 0 -1
    outer loop
      vertex 6.37424 7.70513 2
      vertex 7.17102 8.66827 2
      vertex 7.28969 6.84547 2
    endloop
  endfacet
  facet normal 0 0 -1
    outer loop
      vertex 6.37424 7.70513 2
      vertex 6.02805 9.49869 2
      vertex 7.17102 8.66827 2
    endloop
  endfacet
  facet normal 0 0 -1
    outer loop
      vertex 5.35827 8.44328 2
      vertex 6.02805 9.49869 2
      vertex 6.37424 7.70513 2
    endloop
  endfacet
  facet normal 0 0 -1
    outer loop
      vertex 5.35827 8.44328 2
      vertex 4.79002 10.1793 2
      vertex 6.02805 9.49869 2
    endloop
  endfacet
  facet normal 0 0 -1
    outer loop
      vertex 4.25779 9.04827 2
      vertex 4.79002 10.1793 2
      vertex 5.35827 8.44328 2
    endloop
  endfacet
  facet normal 0 0 -1
    outer loop
      vertex 4.25779 9.04827 2
      vertex 3.47644 10.6994 2
      vertex 4.79002 10.1793 2
    endloop
  endfacet
  facet normal 0 0 -1
    outer loop
      vertex 3.09017 9.51056 2
      vertex 3.47644 10.6994 2
      vertex 4.25779 9.04827 2
    endloop
  endfacet
  facet normal 0 0 -1
    outer loop
      vertex 3.09017 9.51056 2
      vertex 2.10804 11.0507 2
      vertex 3.47644 10.6994 2
    endloop
  endfacet
  facet normal 0 0 -1
    outer loop
      vertex 1.87381 9.82287 2
      vertex 2.10804 11.0507 2
      vertex 3.09017 9.51056 2
    endloop
  endfacet
  facet normal 0 0 -1
    outer loop
      vertex 1.87381 9.82287 2
      vertex 0.706393 11.2278 2
      vertex 2.10804 11.0507 2
    endloop
  endfacet
  facet normal 0 0 -1
    outer loop
      vertex 0.627905 9.98027 2
      vertex 0.706393 11.2278 2
      vertex 1.87381 9.82287 2
    endloop
  endfacet
  facet normal 0 0 -1
    outer loop
      vertex -0.627905 9.98027 2
      vertex 0.706393 11.2278 2
      vertex 0.627905 9.98027 2
    endloop
  endfacet
  facet normal 0 0 -1
    outer loop
      vertex -0.627905 9.98027 2
      vertex -0.706393 11.2278 2
      vertex 0.706393 11.2278 2
    endloop
  endfacet
  facet normal 0 0 -1
    outer loop
      vertex -1.87381 9.82287 2
      vertex -0.706393 11.2278 2
      vertex -0.627905 9.98027 2
    endloop
  endfacet
  facet normal 0 0 -1
    outer loop
      vertex -1.87381 9.82287 2
      vertex -2.10804 11.0507 2
      vertex -0.706393 11.2278 2
    endloop
  endfacet
  facet normal 0 0 -1
    outer loop
      vertex -3.09017 9.51056 2
      vertex -2.10804 11.0507 2
      vertex -1.87381 9.82287 2
    endloop
  endfacet
  facet normal 0 0 -1
    outer loop
      vertex -3.09017 9.51056 2
      vertex -3.47644 10.6994 2
      vertex -2.10804 11.0507 2
    endloop
  endfacet
  facet normal 0 0 -1
    outer loop
      vertex -4.25779 9.04827 2
      vertex -3.47644 10.6994 2
      vertex -3.09017 9.51056 2
    endloop
  endfacet
  facet normal 0 0 -1
    outer loop
      vertex -4.25779 9.04827 2
      vertex -4.79002 10.1793 2
      vertex -3.47644 10.6994 2
    endloop
  endfacet
  facet normal 0 0 -1
    outer loop
      vertex -5.35827 8.44328 2
      vertex -4.79002 10.1793 2
      vertex -4.25779 9.04827 2
    endloop
  endfacet
  facet normal 0 0 -1
    outer loop
      vertex -5.35827 8.44328 2
      vertex -6.02805 9.49869 2
      vertex -4.79002 10.1793 2
    endloop
  endfacet
  facet normal 0 0 -1
    outer loop
      vertex -6.37424 7.70513 2
      vertex -6.02805 9.49869 2
      vertex -5.35827 8.44328 2
    endloop
  endfacet
  facet normal 0 0 -1
    outer loop
      vertex -6.37424 7.70513 2
      vertex -7.17102 8.66827 2
      vertex -6.02805 9.49869 2
    endloop
  endfacet
  facet normal 0 0 -1
    outer loop
      vertex -7.28969 6.84547 2
      vertex -7.17102 8.66827 2
      vertex -6.37424 7.70513 2
    endloop
  endfacet
  facet normal 0 0 -1
    outer loop
      vertex -8.2009 7.70115 2
      vertex -7.28969 6.84547 2
      vertex -8.09017 5.87785 2
    endloop
  endfacet
  facet normal 0 0 -1
    outer loop
      vertex -7.28969 6.84547 2
      vertex -8.2009 7.70115 2
      vertex -7.17102 8.66827 2
    endloop
  endfacet
  facet normal 0 0 -1
    outer loop
      vertex -9.10144 6.61258 2
      vertex -8.09017 5.87785 2
      vertex -8.76307 4.81754 2
    endloop
  endfacet
  facet normal 0 0 -1
    outer loop
      vertex -8.09017 5.87785 2
      vertex -9.10144 6.61258 2
      vertex -8.2009 7.70115 2
    endloop
  endfacet
  facet normal 0 0 -1
    outer loop
      vertex -9.85845 5.41973 2
      vertex -8.76307 4.81754 2
      vertex -9.29776 3.68124 2
    endloop
  endfacet
  facet normal 0 0 -1
    outer loop
      vertex -10.46 4.1414 2
      vertex -9.29776 3.68124 2
      vertex -9.68583 2.4869 2
    endloop
  endfacet
  facet normal 0 0 -1
    outer loop
      vertex -8.76307 4.81754 2
      vertex -9.85845 5.41973 2
      vertex -9.10144 6.61258 2
    endloop
  endfacet
  facet normal 0 0 -1
    outer loop
      vertex -10.8966 2.79776 2
      vertex -9.68583 2.4869 2
      vertex -9.92115 1.25333 2
    endloop
  endfacet
  facet normal 0 0 -1
    outer loop
      vertex -11.1613 1.41 2
      vertex -9.92115 1.25333 2
      vertex -10 0 2
    endloop
  endfacet
  facet normal 0 0 -1
    outer loop
      vertex -11.1613 -1.41 2
      vertex -9.92115 -1.25333 2
      vertex -10.8966 -2.79776 2
    endloop
  endfacet
  facet normal 0 0 -1
    outer loop
      vertex -9.29776 3.68124 2
      vertex -10.46 4.1414 2
      vertex -9.85845 5.41973 2
    endloop
  endfacet
  facet normal -0 0 -1
    outer loop
      vertex -9.92115 -1.25333 2
      vertex -11.1613 -1.41 2
      vertex -10 0 2
    endloop
  endfacet
  facet normal 0 0 -1
    outer loop
      vertex -9.68583 2.4869 2
      vertex -10.8966 2.79776 2
      vertex -10.46 4.1414 2
    endloop
  endfacet
  facet normal 0 0 -1
    outer loop
      vertex -11.25 0 2
      vertex -10 0 2
      vertex -11.1613 -1.41 2
    endloop
  endfacet
  facet normal 0 0 -1
    outer loop
      vertex -9.92115 1.25333 2
      vertex -11.1613 1.41 2
      vertex -10.8966 2.79776 2
    endloop
  endfacet
  facet normal 0 0 -1
    outer loop
      vertex -10 0 2
      vertex -11.25 0 2
      vertex -11.1613 1.41 2
    endloop
  endfacet
  facet normal 0.904831 0.425771 0
    outer loop
      vertex 9.29776 3.68124 2
      vertex 8.76307 4.81754 0
      vertex 8.76307 4.81754 2
    endloop
  endfacet
  facet normal 0.904831 0.425771 0
    outer loop
      vertex 8.76307 4.81754 0
      vertex 9.29776 3.68124 2
      vertex 9.29776 3.68124 0
    endloop
  endfacet
  facet normal -0.951055 0.309021 0
    outer loop
      vertex -9.68583 2.4869 0
      vertex -9.29776 3.68124 2
      vertex -9.29776 3.68124 0
    endloop
  endfacet
  facet normal -0.951055 0.309021 0
    outer loop
      vertex -9.29776 3.68124 2
      vertex -9.68583 2.4869 0
      vertex -9.68583 2.4869 2
    endloop
  endfacet
  facet normal 0.844325 0.535831 0
    outer loop
      vertex 8.76307 4.81754 2
      vertex 8.09017 5.87785 0
      vertex 8.09017 5.87785 2
    endloop
  endfacet
  facet normal 0.844325 0.535831 0
    outer loop
      vertex 8.09017 5.87785 0
      vertex 8.76307 4.81754 2
      vertex 8.76307 4.81754 0
    endloop
  endfacet
  facet normal 0.248691 0.968583 -0
    outer loop
      vertex 3.09017 9.51056 0
      vertex 1.87381 9.82287 2
      vertex 3.09017 9.51056 2
    endloop
  endfacet
  facet normal 0.248691 0.968583 0
    outer loop
      vertex 1.87381 9.82287 2
      vertex 3.09017 9.51056 0
      vertex 1.87381 9.82287 0
    endloop
  endfacet
  facet normal 0.368122 0.929777 -0
    outer loop
      vertex 4.25779 9.04827 0
      vertex 3.09017 9.51056 2
      vertex 4.25779 9.04827 2
    endloop
  endfacet
  facet normal 0.368122 0.929777 0
    outer loop
      vertex 3.09017 9.51056 2
      vertex 4.25779 9.04827 0
      vertex 3.09017 9.51056 0
    endloop
  endfacet
  facet normal -0.368122 0.929777 0
    outer loop
      vertex -3.09017 9.51056 0
      vertex -4.25779 9.04827 2
      vertex -3.09017 9.51056 2
    endloop
  endfacet
  facet normal -0.368122 0.929777 0
    outer loop
      vertex -4.25779 9.04827 2
      vertex -3.09017 9.51056 0
      vertex -4.25779 9.04827 0
    endloop
  endfacet
  facet normal -0.904831 0.425771 0
    outer loop
      vertex -9.29776 3.68124 0
      vertex -8.76307 4.81754 2
      vertex -8.76307 4.81754 0
    endloop
  endfacet
  facet normal -0.904831 0.425771 0
    outer loop
      vertex -8.76307 4.81754 2
      vertex -9.29776 3.68124 0
      vertex -9.29776 3.68124 2
    endloop
  endfacet
  facet normal 0.998027 -0.0627883 0
    outer loop
      vertex 9.92115 -1.25333 2
      vertex 10 0 0
      vertex 10 0 2
    endloop
  endfacet
  facet normal 0.998027 -0.0627883 0
    outer loop
      vertex 10 0 0
      vertex 9.92115 -1.25333 2
      vertex 9.92115 -1.25333 0
    endloop
  endfacet
  facet normal 0.368122 -0.929777 0
    outer loop
      vertex 3.09017 -9.51056 0
      vertex 4.25779 -9.04827 2
      vertex 3.09017 -9.51056 2
    endloop
  endfacet
  facet normal 0.368122 -0.929777 0
    outer loop
      vertex 4.25779 -9.04827 2
      vertex 3.09017 -9.51056 0
      vertex 4.25779 -9.04827 0
    endloop
  endfacet
  facet normal 0.125338 0.992114 -0
    outer loop
      vertex 1.87381 9.82287 0
      vertex 0.627905 9.98027 2
      vertex 1.87381 9.82287 2
    endloop
  endfacet
  facet normal 0.125338 0.992114 0
    outer loop
      vertex 0.627905 9.98027 2
      vertex 1.87381 9.82287 0
      vertex 0.627905 9.98027 0
    endloop
  endfacet
  facet normal -0.770515 0.637422 0
    outer loop
      vertex -8.09017 5.87785 0
      vertex -7.28969 6.84547 2
      vertex -7.28969 6.84547 0
    endloop
  endfacet
  facet normal -0.770515 0.637422 0
    outer loop
      vertex -7.28969 6.84547 2
      vertex -8.09017 5.87785 0
      vertex -8.09017 5.87785 2
    endloop
  endfacet
  facet normal -0.481751 0.876308 0
    outer loop
      vertex -4.25779 9.04827 0
      vertex -5.35827 8.44328 2
      vertex -4.25779 9.04827 2
    endloop
  endfacet
  facet normal -0.481751 0.876308 0
    outer loop
      vertex -5.35827 8.44328 2
      vertex -4.25779 9.04827 0
      vertex -5.35827 8.44328 0
    endloop
  endfacet
  facet normal -0.125338 0.992114 0
    outer loop
      vertex -0.627905 9.98027 0
      vertex -1.87381 9.82287 2
      vertex -0.627905 9.98027 2
    endloop
  endfacet
  facet normal -0.125338 0.992114 0
    outer loop
      vertex -1.87381 9.82287 2
      vertex -0.627905 9.98027 0
      vertex -1.87381 9.82287 0
    endloop
  endfacet
  facet normal -0.587788 0.809015 0
    outer loop
      vertex -5.35827 8.44328 0
      vertex -6.37424 7.70513 2
      vertex -5.35827 8.44328 2
    endloop
  endfacet
  facet normal -0.587788 0.809015 0
    outer loop
      vertex -6.37424 7.70513 2
      vertex -5.35827 8.44328 0
      vertex -6.37424 7.70513 0
    endloop
  endfacet
  facet normal 0.998027 0.0627883 0
    outer loop
      vertex 10 0 2
      vertex 9.92115 1.25333 0
      vertex 9.92115 1.25333 2
    endloop
  endfacet
  facet normal 0.998027 0.0627883 0
    outer loop
      vertex 9.92115 1.25333 0
      vertex 10 0 2
      vertex 10 0 0
    endloop
  endfacet
  facet normal 0.951055 -0.309021 0
    outer loop
      vertex 9.29776 -3.68124 2
      vertex 9.68583 -2.4869 0
      vertex 9.68583 -2.4869 2
    endloop
  endfacet
  facet normal 0.951055 -0.309021 0
    outer loop
      vertex 9.68583 -2.4869 0
      vertex 9.29776 -3.68124 2
      vertex 9.29776 -3.68124 0
    endloop
  endfacet
  facet normal -0.125338 -0.992114 0
    outer loop
      vertex -1.87381 -9.82287 0
      vertex -0.627905 -9.98027 2
      vertex -1.87381 -9.82287 2
    endloop
  endfacet
  facet normal -0.125338 -0.992114 -0
    outer loop
      vertex -0.627905 -9.98027 2
      vertex -1.87381 -9.82287 0
      vertex -0.627905 -9.98027 0
    endloop
  endfacet
  facet normal 0.248691 -0.968583 0
    outer loop
      vertex 1.87381 -9.82287 0
      vertex 3.09017 -9.51056 2
      vertex 1.87381 -9.82287 2
    endloop
  endfacet
  facet normal 0.248691 -0.968583 0
    outer loop
      vertex 3.09017 -9.51056 2
      vertex 1.87381 -9.82287 0
      vertex 3.09017 -9.51056 0
    endloop
  endfacet
  facet normal 0.982287 0.187384 0
    outer loop
      vertex 9.92115 1.25333 2
      vertex 9.68583 2.4869 0
      vertex 9.68583 2.4869 2
    endloop
  endfacet
  facet normal 0.982287 0.187384 0
    outer loop
      vertex 9.68583 2.4869 0
      vertex 9.92115 1.25333 2
      vertex 9.92115 1.25333 0
    endloop
  endfacet
  facet normal 0.951055 0.309021 0
    outer loop
      vertex 9.68583 2.4869 2
      vertex 9.29776 3.68124 0
      vertex 9.29776 3.68124 2
    endloop
  endfacet
  facet normal 0.951055 0.309021 0
    outer loop
      vertex 9.29776 3.68124 0
      vertex 9.68583 2.4869 2
      vertex 9.68583 2.4869 0
    endloop
  endfacet
  facet normal 0.684545 0.728971 -0
    outer loop
      vertex 7.28969 6.84547 0
      vertex 6.37424 7.70513 2
      vertex 7.28969 6.84547 2
    endloop
  endfacet
  facet normal 0.684545 0.728971 0
    outer loop
      vertex 6.37424 7.70513 2
      vertex 7.28969 6.84547 0
      vertex 6.37424 7.70513 0
    endloop
  endfacet
  facet normal 0 1 -0
    outer loop
      vertex 0.627905 9.98027 0
      vertex -0.627905 9.98027 2
      vertex 0.627905 9.98027 2
    endloop
  endfacet
  facet normal 0 1 0
    outer loop
      vertex -0.627905 9.98027 2
      vertex 0.627905 9.98027 0
      vertex -0.627905 9.98027 0
    endloop
  endfacet
  facet normal 0.587788 0.809015 -0
    outer loop
      vertex 6.37424 7.70513 0
      vertex 5.35827 8.44328 2
      vertex 6.37424 7.70513 2
    endloop
  endfacet
  facet normal 0.587788 0.809015 0
    outer loop
      vertex 5.35827 8.44328 2
      vertex 6.37424 7.70513 0
      vertex 5.35827 8.44328 0
    endloop
  endfacet
  facet normal 0.481751 0.876308 -0
    outer loop
      vertex 5.35827 8.44328 0
      vertex 4.25779 9.04827 2
      vertex 5.35827 8.44328 2
    endloop
  endfacet
  facet normal 0.481751 0.876308 0
    outer loop
      vertex 4.25779 9.04827 2
      vertex 5.35827 8.44328 0
      vertex 4.25779 9.04827 0
    endloop
  endfacet
  facet normal -0.998027 0.0627883 0
    outer loop
      vertex -10 0 0
      vertex -9.92115 1.25333 2
      vertex -9.92115 1.25333 0
    endloop
  endfacet
  facet normal -0.998027 0.0627883 0
    outer loop
      vertex -9.92115 1.25333 2
      vertex -10 0 0
      vertex -10 0 2
    endloop
  endfacet
  facet normal -0.684545 0.728971 0
    outer loop
      vertex -6.37424 7.70513 0
      vertex -7.28969 6.84547 2
      vertex -6.37424 7.70513 2
    endloop
  endfacet
  facet normal -0.684545 0.728971 0
    outer loop
      vertex -7.28969 6.84547 2
      vertex -6.37424 7.70513 0
      vertex -7.28969 6.84547 0
    endloop
  endfacet
  facet normal 0.982287 -0.187384 0
    outer loop
      vertex 9.68583 -2.4869 2
      vertex 9.92115 -1.25333 0
      vertex 9.92115 -1.25333 2
    endloop
  endfacet
  facet normal 0.982287 -0.187384 0
    outer loop
      vertex 9.92115 -1.25333 0
      vertex 9.68583 -2.4869 2
      vertex 9.68583 -2.4869 0
    endloop
  endfacet
  facet normal -0.248691 -0.968583 0
    outer loop
      vertex -3.09017 -9.51056 0
      vertex -1.87381 -9.82287 2
      vertex -3.09017 -9.51056 2
    endloop
  endfacet
  facet normal -0.248691 -0.968583 -0
    outer loop
      vertex -1.87381 -9.82287 2
      vertex -3.09017 -9.51056 0
      vertex -1.87381 -9.82287 0
    endloop
  endfacet
  facet normal 0.125338 -0.992114 0
    outer loop
      vertex 0.627905 -9.98027 0
      vertex 1.87381 -9.82287 2
      vertex 0.627905 -9.98027 2
    endloop
  endfacet
  facet normal 0.125338 -0.992114 0
    outer loop
      vertex 1.87381 -9.82287 2
      vertex 0.627905 -9.98027 0
      vertex 1.87381 -9.82287 0
    endloop
  endfacet
  facet normal 0.770515 0.637422 0
    outer loop
      vertex 8.09017 5.87785 2
      vertex 7.28969 6.84547 0
      vertex 7.28969 6.84547 2
    endloop
  endfacet
  facet normal 0.770515 0.637422 0
    outer loop
      vertex 7.28969 6.84547 0
      vertex 8.09017 5.87785 2
      vertex 8.09017 5.87785 0
    endloop
  endfacet
  facet normal -0.982287 0.187384 0
    outer loop
      vertex -9.92115 1.25333 0
      vertex -9.68583 2.4869 2
      vertex -9.68583 2.4869 0
    endloop
  endfacet
  facet normal -0.982287 0.187384 0
    outer loop
      vertex -9.68583 2.4869 2
      vertex -9.92115 1.25333 0
      vertex -9.92115 1.25333 2
    endloop
  endfacet
  facet normal -0.844325 0.535831 0
    outer loop
      vertex -8.76307 4.81754 0
      vertex -8.09017 5.87785 2
      vertex -8.09017 5.87785 0
    endloop
  endfacet
  facet normal -0.844325 0.535831 0
    outer loop
      vertex -8.09017 5.87785 2
      vertex -8.76307 4.81754 0
      vertex -8.76307 4.81754 2
    endloop
  endfacet
  facet normal -0.248691 0.968583 0
    outer loop
      vertex -1.87381 9.82287 0
      vertex -3.09017 9.51056 2
      vertex -1.87381 9.82287 2
    endloop
  endfacet
  facet normal -0.248691 0.968583 0
    outer loop
      vertex -3.09017 9.51056 2
      vertex -1.87381 9.82287 0
      vertex -3.09017 9.51056 0
    endloop
  endfacet
  facet normal 0.481751 -0.876308 0
    outer loop
      vertex 4.25779 -9.04827 0
      vertex 5.35827 -8.44328 2
      vertex 4.25779 -9.04827 2
    endloop
  endfacet
  facet normal 0.481751 -0.876308 0
    outer loop
      vertex 5.35827 -8.44328 2
      vertex 4.25779 -9.04827 0
      vertex 5.35827 -8.44328 0
    endloop
  endfacet
  facet normal 0.770515 -0.637422 0
    outer loop
      vertex 7.28969 -6.84547 2
      vertex 8.09017 -5.87785 0
      vertex 8.09017 -5.87785 2
    endloop
  endfacet
  facet normal 0.770515 -0.637422 0
    outer loop
      vertex 8.09017 -5.87785 0
      vertex 7.28969 -6.84547 2
      vertex 7.28969 -6.84547 0
    endloop
  endfacet
  facet normal 0.844325 -0.535831 0
    outer loop
      vertex 8.09017 -5.87785 2
      vertex 8.76307 -4.81754 0
      vertex 8.76307 -4.81754 2
    endloop
  endfacet
  facet normal 0.844325 -0.535831 0
    outer loop
      vertex 8.76307 -4.81754 0
      vertex 8.09017 -5.87785 2
      vertex 8.09017 -5.87785 0
    endloop
  endfacet
  facet normal -0.481751 -0.876308 0
    outer loop
      vertex -5.35827 -8.44328 0
      vertex -4.25779 -9.04827 2
      vertex -5.35827 -8.44328 2
    endloop
  endfacet
  facet normal -0.481751 -0.876308 -0
    outer loop
      vertex -4.25779 -9.04827 2
      vertex -5.35827 -8.44328 0
      vertex -4.25779 -9.04827 0
    endloop
  endfacet
  facet normal -0.998027 -0.0627883 0
    outer loop
      vertex -9.92115 -1.25333 0
      vertex -10 0 2
      vertex -10 0 0
    endloop
  endfacet
  facet normal -0.998027 -0.0627883 0
    outer loop
      vertex -10 0 2
      vertex -9.92115 -1.25333 0
      vertex -9.92115 -1.25333 2
    endloop
  endfacet
  facet normal -0.951055 -0.309021 0
    outer loop
      vertex -9.29776 -3.68124 0
      vertex -9.68583 -2.4869 2
      vertex -9.68583 -2.4869 0
    endloop
  endfacet
  facet normal -0.951055 -0.309021 0
    outer loop
      vertex -9.68583 -2.4869 2
      vertex -9.29776 -3.68124 0
      vertex -9.29776 -3.68124 2
    endloop
  endfacet
  facet normal -0.770515 -0.637422 0
    outer loop
      vertex -7.28969 -6.84547 0
      vertex -8.09017 -5.87785 2
      vertex -8.09017 -5.87785 0
    endloop
  endfacet
  facet normal -0.770515 -0.637422 0
    outer loop
      vertex -8.09017 -5.87785 2
      vertex -7.28969 -6.84547 0
      vertex -7.28969 -6.84547 2
    endloop
  endfacet
  facet normal 0.684545 -0.728971 0
    outer loop
      vertex 6.37424 -7.70513 0
      vertex 7.28969 -6.84547 2
      vertex 6.37424 -7.70513 2
    endloop
  endfacet
  facet normal 0.684545 -0.728971 0
    outer loop
      vertex 7.28969 -6.84547 2
      vertex 6.37424 -7.70513 0
      vertex 7.28969 -6.84547 0
    endloop
  endfacet
  facet normal 0.587788 -0.809015 0
    outer loop
      vertex 5.35827 -8.44328 0
      vertex 6.37424 -7.70513 2
      vertex 5.35827 -8.44328 2
    endloop
  endfacet
  facet normal 0.587788 -0.809015 0
    outer loop
      vertex 6.37424 -7.70513 2
      vertex 5.35827 -8.44328 0
      vertex 6.37424 -7.70513 0
    endloop
  endfacet
  facet normal 0.904831 -0.425771 0
    outer loop
      vertex 8.76307 -4.81754 2
      vertex 9.29776 -3.68124 0
      vertex 9.29776 -3.68124 2
    endloop
  endfacet
  facet normal 0.904831 -0.425771 0
    outer loop
      vertex 9.29776 -3.68124 0
      vertex 8.76307 -4.81754 2
      vertex 8.76307 -4.81754 0
    endloop
  endfacet
  facet normal -0.684545 -0.728971 0
    outer loop
      vertex -7.28969 -6.84547 0
      vertex -6.37424 -7.70513 2
      vertex -7.28969 -6.84547 2
    endloop
  endfacet
  facet normal -0.684545 -0.728971 -0
    outer loop
      vertex -6.37424 -7.70513 2
      vertex -7.28969 -6.84547 0
      vertex -6.37424 -7.70513 0
    endloop
  endfacet
  facet normal 0 -1 0
    outer loop
      vertex -0.627905 -9.98027 0
      vertex 0.627905 -9.98027 2
      vertex -0.627905 -9.98027 2
    endloop
  endfacet
  facet normal 0 -1 -0
    outer loop
      vertex 0.627905 -9.98027 2
      vertex -0.627905 -9.98027 0
      vertex 0.627905 -9.98027 0
    endloop
  endfacet
  facet normal -0.587788 -0.809015 0
    outer loop
      vertex -6.37424 -7.70513 0
      vertex -5.35827 -8.44328 2
      vertex -6.37424 -7.70513 2
    endloop
  endfacet
  facet normal -0.587788 -0.809015 -0
    outer loop
      vertex -5.35827 -8.44328 2
      vertex -6.37424 -7.70513 0
      vertex -5.35827 -8.44328 0
    endloop
  endfacet
  facet normal -0.982287 -0.187384 0
    outer loop
      vertex -9.68583 -2.4869 0
      vertex -9.92115 -1.25333 2
      vertex -9.92115 -1.25333 0
    endloop
  endfacet
  facet normal -0.982287 -0.187384 0
    outer loop
      vertex -9.92115 -1.25333 2
      vertex -9.68583 -2.4869 0
      vertex -9.68583 -2.4869 2
    endloop
  endfacet
  facet normal -0.844325 -0.535831 0
    outer loop
      vertex -8.09017 -5.87785 0
      vertex -8.76307 -4.81754 2
      vertex -8.76307 -4.81754 0
    endloop
  endfacet
  facet normal -0.844325 -0.535831 0
    outer loop
      vertex -8.76307 -4.81754 2
      vertex -8.09017 -5.87785 0
      vertex -8.09017 -5.87785 2
    endloop
  endfacet
  facet normal -0.904831 -0.425771 0
    outer loop
      vertex -8.76307 -4.81754 0
      vertex -9.29776 -3.68124 2
      vertex -9.29776 -3.68124 0
    endloop
  endfacet
  facet normal -0.904831 -0.425771 0
    outer loop
      vertex -9.29776 -3.68124 2
      vertex -8.76307 -4.81754 0
      vertex -8.76307 -4.81754 2
    endloop
  endfacet
  facet normal -0.368122 -0.929777 0
    outer loop
      vertex -4.25779 -9.04827 0
      vertex -3.09017 -9.51056 2
      vertex -4.25779 -9.04827 2
    endloop
  endfacet
  facet normal -0.368122 -0.929777 -0
    outer loop
      vertex -3.09017 -9.51056 2
      vertex -4.25779 -9.04827 0
      vertex -3.09017 -9.51056 0
    endloop
  endfacet
  facet normal 0.844327 0.535829 0
    outer loop
      vertex 9.85845 5.41973 6
      vertex 9.10144 6.61258 2
      vertex 9.10144 6.61258 6
    endloop
  endfacet
  facet normal 0.844327 0.535829 0
    outer loop
      vertex 9.10144 6.61258 2
      vertex 9.85845 5.41973 6
      vertex 9.85845 5.41973 2
    endloop
  endfacet
  facet normal 0.368135 0.929772 -0
    outer loop
      vertex 4.79002 10.1793 2
      vertex 3.47644 10.6994 6
      vertex 4.79002 10.1793 6
    endloop
  endfacet
  facet normal 0.368135 0.929772 0
    outer loop
      vertex 3.47644 10.6994 6
      vertex 4.79002 10.1793 2
      vertex 3.47644 10.6994 2
    endloop
  endfacet
  facet normal -0.368135 0.929772 0
    outer loop
      vertex -3.47644 10.6994 2
      vertex -4.79002 10.1793 6
      vertex -3.47644 10.6994 6
    endloop
  endfacet
  facet normal -0.368135 0.929772 0
    outer loop
      vertex -4.79002 10.1793 6
      vertex -3.47644 10.6994 2
      vertex -4.79002 10.1793 2
    endloop
  endfacet
  facet normal -0.904823 0.425787 0
    outer loop
      vertex -10.46 4.1414 2
      vertex -9.85845 5.41973 6
      vertex -9.85845 5.41973 2
    endloop
  endfacet
  facet normal -0.904823 0.425787 0
    outer loop
      vertex -9.85845 5.41973 6
      vertex -10.46 4.1414 2
      vertex -10.46 4.1414 6
    endloop
  endfacet
  facet normal 0.684546 0.728969 -0
    outer loop
      vertex 8.2009 7.70115 2
      vertex 7.17102 8.66827 6
      vertex 8.2009 7.70115 6
    endloop
  endfacet
  facet normal 0.684546 0.728969 0
    outer loop
      vertex 7.17102 8.66827 6
      vertex 8.2009 7.70115 2
      vertex 7.17102 8.66827 2
    endloop
  endfacet
  facet normal 0 1 -0
    outer loop
      vertex 0.706393 11.2278 2
      vertex -0.706393 11.2278 6
      vertex 0.706393 11.2278 6
    endloop
  endfacet
  facet normal 0 1 0
    outer loop
      vertex -0.706393 11.2278 6
      vertex 0.706393 11.2278 2
      vertex -0.706393 11.2278 2
    endloop
  endfacet
  facet normal 0.587787 0.809016 -0
    outer loop
      vertex 7.17102 8.66827 2
      vertex 6.02805 9.49869 6
      vertex 7.17102 8.66827 6
    endloop
  endfacet
  facet normal 0.587787 0.809016 0
    outer loop
      vertex 6.02805 9.49869 6
      vertex 7.17102 8.66827 2
      vertex 6.02805 9.49869 2
    endloop
  endfacet
  facet normal -0.998027 0.0627837 0
    outer loop
      vertex -11.25 0 2
      vertex -11.1613 1.41 6
      vertex -11.1613 1.41 2
    endloop
  endfacet
  facet normal -0.998027 0.0627837 0
    outer loop
      vertex -11.1613 1.41 6
      vertex -11.25 0 2
      vertex -11.25 0 6
    endloop
  endfacet
  facet normal -0.770514 0.637423 0
    outer loop
      vertex -9.10144 6.61258 2
      vertex -8.2009 7.70115 6
      vertex -8.2009 7.70115 2
    endloop
  endfacet
  facet normal -0.770514 0.637423 0
    outer loop
      vertex -8.2009 7.70115 6
      vertex -9.10144 6.61258 2
      vertex -9.10144 6.61258 6
    endloop
  endfacet
  facet normal -0.24866 0.968591 0
    outer loop
      vertex -2.10804 11.0507 2
      vertex -3.47644 10.6994 6
      vertex -2.10804 11.0507 6
    endloop
  endfacet
  facet normal -0.24866 0.968591 0
    outer loop
      vertex -3.47644 10.6994 6
      vertex -2.10804 11.0507 2
      vertex -3.47644 10.6994 2
    endloop
  endfacet
  facet normal -0.684546 0.728969 0
    outer loop
      vertex -7.17102 8.66827 2
      vertex -8.2009 7.70115 6
      vertex -7.17102 8.66827 6
    endloop
  endfacet
  facet normal -0.684546 0.728969 0
    outer loop
      vertex -8.2009 7.70115 6
      vertex -7.17102 8.66827 2
      vertex -8.2009 7.70115 2
    endloop
  endfacet
  facet normal 0.998027 -0.0627837 0
    outer loop
      vertex 11.1613 -1.41 6
      vertex 11.25 0 2
      vertex 11.25 0 6
    endloop
  endfacet
  facet normal 0.998027 -0.0627837 0
    outer loop
      vertex 11.25 0 2
      vertex 11.1613 -1.41 6
      vertex 11.1613 -1.41 2
    endloop
  endfacet
  facet normal 0.904823 -0.425787 0
    outer loop
      vertex 9.85845 -5.41973 6
      vertex 10.46 -4.1414 2
      vertex 10.46 -4.1414 6
    endloop
  endfacet
  facet normal 0.904823 -0.425787 0
    outer loop
      vertex 10.46 -4.1414 2
      vertex 9.85845 -5.41973 6
      vertex 9.85845 -5.41973 2
    endloop
  endfacet
  facet normal 0.770514 0.637423 0
    outer loop
      vertex 9.10144 6.61258 6
      vertex 8.2009 7.70115 2
      vertex 8.2009 7.70115 6
    endloop
  endfacet
  facet normal 0.770514 0.637423 0
    outer loop
      vertex 8.2009 7.70115 2
      vertex 9.10144 6.61258 6
      vertex 9.10144 6.61258 2
    endloop
  endfacet
  facet normal 0.24866 0.968591 -0
    outer loop
      vertex 3.47644 10.6994 2
      vertex 2.10804 11.0507 6
      vertex 3.47644 10.6994 6
    endloop
  endfacet
  facet normal 0.24866 0.968591 0
    outer loop
      vertex 2.10804 11.0507 6
      vertex 3.47644 10.6994 2
      vertex 2.10804 11.0507 2
    endloop
  endfacet
  facet normal 0.125355 0.992112 -0
    outer loop
      vertex 2.10804 11.0507 2
      vertex 0.706393 11.2278 6
      vertex 2.10804 11.0507 6
    endloop
  endfacet
  facet normal 0.125355 0.992112 0
    outer loop
      vertex 0.706393 11.2278 6
      vertex 2.10804 11.0507 2
      vertex 0.706393 11.2278 2
    endloop
  endfacet
  facet normal 0.481752 0.876308 -0
    outer loop
      vertex 6.02805 9.49869 2
      vertex 4.79002 10.1793 6
      vertex 6.02805 9.49869 6
    endloop
  endfacet
  facet normal 0.481752 0.876308 0
    outer loop
      vertex 4.79002 10.1793 6
      vertex 6.02805 9.49869 2
      vertex 4.79002 10.1793 2
    endloop
  endfacet
  facet normal -0.951051 0.309033 0
    outer loop
      vertex -10.8966 2.79776 2
      vertex -10.46 4.1414 6
      vertex -10.46 4.1414 2
    endloop
  endfacet
  facet normal -0.951051 0.309033 0
    outer loop
      vertex -10.46 4.1414 6
      vertex -10.8966 2.79776 2
      vertex -10.8966 2.79776 6
    endloop
  endfacet
  facet normal -0.982291 0.187361 0
    outer loop
      vertex -11.1613 1.41 2
      vertex -10.8966 2.79776 6
      vertex -10.8966 2.79776 2
    endloop
  endfacet
  facet normal -0.982291 0.187361 0
    outer loop
      vertex -10.8966 2.79776 6
      vertex -11.1613 1.41 2
      vertex -11.1613 1.41 6
    endloop
  endfacet
  facet normal -0.844327 0.535829 0
    outer loop
      vertex -9.85845 5.41973 2
      vertex -9.10144 6.61258 6
      vertex -9.10144 6.61258 2
    endloop
  endfacet
  facet normal -0.844327 0.535829 0
    outer loop
      vertex -9.10144 6.61258 6
      vertex -9.85845 5.41973 2
      vertex -9.85845 5.41973 6
    endloop
  endfacet
  facet normal -0.125355 0.992112 0
    outer loop
      vertex -0.706393 11.2278 2
      vertex -2.10804 11.0507 6
      vertex -0.706393 11.2278 6
    endloop
  endfacet
  facet normal -0.125355 0.992112 0
    outer loop
      vertex -2.10804 11.0507 6
      vertex -0.706393 11.2278 2
      vertex -2.10804 11.0507 2
    endloop
  endfacet
  facet normal -0.587787 0.809016 0
    outer loop
      vertex -6.02805 9.49869 2
      vertex -7.17102 8.66827 6
      vertex -6.02805 9.49869 6
    endloop
  endfacet
  facet normal -0.587787 0.809016 0
    outer loop
      vertex -7.17102 8.66827 6
      vertex -6.02805 9.49869 2
      vertex -7.17102 8.66827 2
    endloop
  endfacet
  facet normal -0.481752 0.876308 0
    outer loop
      vertex -4.79002 10.1793 2
      vertex -6.02805 9.49869 6
      vertex -4.79002 10.1793 6
    endloop
  endfacet
  facet normal -0.481752 0.876308 0
    outer loop
      vertex -6.02805 9.49869 6
      vertex -4.79002 10.1793 2
      vertex -6.02805 9.49869 2
    endloop
  endfacet
  facet normal 0.998027 0.0627837 0
    outer loop
      vertex 11.25 0 6
      vertex 11.1613 1.41 2
      vertex 11.1613 1.41 6
    endloop
  endfacet
  facet normal 0.998027 0.0627837 0
    outer loop
      vertex 11.1613 1.41 2
      vertex 11.25 0 6
      vertex 11.25 0 2
    endloop
  endfacet
  facet normal 0.951051 -0.309033 0
    outer loop
      vertex 10.46 -4.1414 6
      vertex 10.8966 -2.79776 2
      vertex 10.8966 -2.79776 6
    endloop
  endfacet
  facet normal 0.951051 -0.309033 0
    outer loop
      vertex 10.8966 -2.79776 2
      vertex 10.46 -4.1414 6
      vertex 10.46 -4.1414 2
    endloop
  endfacet
  facet normal -0.998027 -0.0627837 0
    outer loop
      vertex -11.1613 -1.41 2
      vertex -11.25 0 6
      vertex -11.25 0 2
    endloop
  endfacet
  facet normal -0.998027 -0.0627837 0
    outer loop
      vertex -11.25 0 6
      vertex -11.1613 -1.41 2
      vertex -11.1613 -1.41 6
    endloop
  endfacet
  facet normal -0.844327 -0.535829 0
    outer loop
      vertex -9.10144 -6.61258 2
      vertex -9.85845 -5.41973 6
      vertex -9.85845 -5.41973 2
    endloop
  endfacet
  facet normal -0.844327 -0.535829 0
    outer loop
      vertex -9.85845 -5.41973 6
      vertex -9.10144 -6.61258 2
      vertex -9.10144 -6.61258 6
    endloop
  endfacet
  facet normal 0.125355 -0.992112 0
    outer loop
      vertex 0.706393 -11.2278 2
      vertex 2.10804 -11.0507 6
      vertex 0.706393 -11.2278 6
    endloop
  endfacet
  facet normal 0.125355 -0.992112 0
    outer loop
      vertex 2.10804 -11.0507 6
      vertex 0.706393 -11.2278 2
      vertex 2.10804 -11.0507 2
    endloop
  endfacet
  facet normal 0.368135 -0.929772 0
    outer loop
      vertex 3.47644 -10.6994 2
      vertex 4.79002 -10.1793 6
      vertex 3.47644 -10.6994 6
    endloop
  endfacet
  facet normal 0.368135 -0.929772 0
    outer loop
      vertex 4.79002 -10.1793 6
      vertex 3.47644 -10.6994 2
      vertex 4.79002 -10.1793 2
    endloop
  endfacet
  facet normal 0.904823 0.425787 0
    outer loop
      vertex 10.46 4.1414 6
      vertex 9.85845 5.41973 2
      vertex 9.85845 5.41973 6
    endloop
  endfacet
  facet normal 0.904823 0.425787 0
    outer loop
      vertex 9.85845 5.41973 2
      vertex 10.46 4.1414 6
      vertex 10.46 4.1414 2
    endloop
  endfacet
  facet normal 0.951051 0.309033 0
    outer loop
      vertex 10.8966 2.79776 6
      vertex 10.46 4.1414 2
      vertex 10.46 4.1414 6
    endloop
  endfacet
  facet normal 0.951051 0.309033 0
    outer loop
      vertex 10.46 4.1414 2
      vertex 10.8966 2.79776 6
      vertex 10.8966 2.79776 2
    endloop
  endfacet
  facet normal 0.982291 0.187361 0
    outer loop
      vertex 11.1613 1.41 6
      vertex 10.8966 2.79776 2
      vertex 10.8966 2.79776 6
    endloop
  endfacet
  facet normal 0.982291 0.187361 0
    outer loop
      vertex 10.8966 2.79776 2
      vertex 11.1613 1.41 6
      vertex 11.1613 1.41 2
    endloop
  endfacet
  facet normal 0.982291 -0.187361 0
    outer loop
      vertex 10.8966 -2.79776 6
      vertex 11.1613 -1.41 2
      vertex 11.1613 -1.41 6
    endloop
  endfacet
  facet normal 0.982291 -0.187361 0
    outer loop
      vertex 11.1613 -1.41 2
      vertex 10.8966 -2.79776 6
      vertex 10.8966 -2.79776 2
    endloop
  endfacet
  facet normal 0.684546 -0.728969 0
    outer loop
      vertex 7.17102 -8.66827 2
      vertex 8.2009 -7.70115 6
      vertex 7.17102 -8.66827 6
    endloop
  endfacet
  facet normal 0.684546 -0.728969 0
    outer loop
      vertex 8.2009 -7.70115 6
      vertex 7.17102 -8.66827 2
      vertex 8.2009 -7.70115 2
    endloop
  endfacet
  facet normal 0.770514 -0.637423 0
    outer loop
      vertex 8.2009 -7.70115 6
      vertex 9.10144 -6.61258 2
      vertex 9.10144 -6.61258 6
    endloop
  endfacet
  facet normal 0.770514 -0.637423 0
    outer loop
      vertex 9.10144 -6.61258 2
      vertex 8.2009 -7.70115 6
      vertex 8.2009 -7.70115 2
    endloop
  endfacet
  facet normal 0.844327 -0.535829 0
    outer loop
      vertex 9.10144 -6.61258 6
      vertex 9.85845 -5.41973 2
      vertex 9.85845 -5.41973 6
    endloop
  endfacet
  facet normal 0.844327 -0.535829 0
    outer loop
      vertex 9.85845 -5.41973 2
      vertex 9.10144 -6.61258 6
      vertex 9.10144 -6.61258 2
    endloop
  endfacet
  facet normal 0 -1 0
    outer loop
      vertex -0.706393 -11.2278 2
      vertex 0.706393 -11.2278 6
      vertex -0.706393 -11.2278 6
    endloop
  endfacet
  facet normal 0 -1 -0
    outer loop
      vertex 0.706393 -11.2278 6
      vertex -0.706393 -11.2278 2
      vertex 0.706393 -11.2278 2
    endloop
  endfacet
  facet normal -0.24866 -0.968591 0
    outer loop
      vertex -3.47644 -10.6994 2
      vertex -2.10804 -11.0507 6
      vertex -3.47644 -10.6994 6
    endloop
  endfacet
  facet normal -0.24866 -0.968591 -0
    outer loop
      vertex -2.10804 -11.0507 6
      vertex -3.47644 -10.6994 2
      vertex -2.10804 -11.0507 2
    endloop
  endfacet
  facet normal -0.684546 -0.728969 0
    outer loop
      vertex -8.2009 -7.70115 2
      vertex -7.17102 -8.66827 6
      vertex -8.2009 -7.70115 6
    endloop
  endfacet
  facet normal -0.684546 -0.728969 -0
    outer loop
      vertex -7.17102 -8.66827 6
      vertex -8.2009 -7.70115 2
      vertex -7.17102 -8.66827 2
    endloop
  endfacet
  facet normal 0.24866 -0.968591 0
    outer loop
      vertex 2.10804 -11.0507 2
      vertex 3.47644 -10.6994 6
      vertex 2.10804 -11.0507 6
    endloop
  endfacet
  facet normal 0.24866 -0.968591 0
    outer loop
      vertex 3.47644 -10.6994 6
      vertex 2.10804 -11.0507 2
      vertex 3.47644 -10.6994 2
    endloop
  endfacet
  facet normal 0.587787 -0.809016 0
    outer loop
      vertex 6.02805 -9.49869 2
      vertex 7.17102 -8.66827 6
      vertex 6.02805 -9.49869 6
    endloop
  endfacet
  facet normal 0.587787 -0.809016 0
    outer loop
      vertex 7.17102 -8.66827 6
      vertex 6.02805 -9.49869 2
      vertex 7.17102 -8.66827 2
    endloop
  endfacet
  facet normal 0.481752 -0.876308 0
    outer loop
      vertex 4.79002 -10.1793 2
      vertex 6.02805 -9.49869 6
      vertex 4.79002 -10.1793 6
    endloop
  endfacet
  facet normal 0.481752 -0.876308 0
    outer loop
      vertex 6.02805 -9.49869 6
      vertex 4.79002 -10.1793 2
      vertex 6.02805 -9.49869 2
    endloop
  endfacet
  facet normal -0.587787 -0.809016 0
    outer loop
      vertex -7.17102 -8.66827 2
      vertex -6.02805 -9.49869 6
      vertex -7.17102 -8.66827 6
    endloop
  endfacet
  facet normal -0.587787 -0.809016 -0
    outer loop
      vertex -6.02805 -9.49869 6
      vertex -7.17102 -8.66827 2
      vertex -6.02805 -9.49869 2
    endloop
  endfacet
  facet normal -0.481752 -0.876308 0
    outer loop
      vertex -6.02805 -9.49869 2
      vertex -4.79002 -10.1793 6
      vertex -6.02805 -9.49869 6
    endloop
  endfacet
  facet normal -0.481752 -0.876308 -0
    outer loop
      vertex -4.79002 -10.1793 6
      vertex -6.02805 -9.49869 2
      vertex -4.79002 -10.1793 2
    endloop
  endfacet
  facet normal -0.951051 -0.309033 0
    outer loop
      vertex -10.46 -4.1414 2
      vertex -10.8966 -2.79776 6
      vertex -10.8966 -2.79776 2
    endloop
  endfacet
  facet normal -0.951051 -0.309033 0
    outer loop
      vertex -10.8966 -2.79776 6
      vertex -10.46 -4.1414 2
      vertex -10.46 -4.1414 6
    endloop
  endfacet
  facet normal -0.982291 -0.187361 0
    outer loop
      vertex -10.8966 -2.79776 2
      vertex -11.1613 -1.41 6
      vertex -11.1613 -1.41 2
    endloop
  endfacet
  facet normal -0.982291 -0.187361 0
    outer loop
      vertex -11.1613 -1.41 6
      vertex -10.8966 -2.79776 2
      vertex -10.8966 -2.79776 6
    endloop
  endfacet
  facet normal -0.904823 -0.425787 0
    outer loop
      vertex -9.85845 -5.41973 2
      vertex -10.46 -4.1414 6
      vertex -10.46 -4.1414 2
    endloop
  endfacet
  facet normal -0.904823 -0.425787 0
    outer loop
      vertex -10.46 -4.1414 6
      vertex -9.85845 -5.41973 2
      vertex -9.85845 -5.41973 6
    endloop
  endfacet
  facet normal -0.368135 -0.929772 0
    outer loop
      vertex -4.79002 -10.1793 2
      vertex -3.47644 -10.6994 6
      vertex -4.79002 -10.1793 6
    endloop
  endfacet
  facet normal -0.368135 -0.929772 -0
    outer loop
      vertex -3.47644 -10.6994 6
      vertex -4.79002 -10.1793 2
      vertex -3.47644 -10.6994 2
    endloop
  endfacet
  facet normal -0.125355 -0.992112 0
    outer loop
      vertex -2.10804 -11.0507 2
      vertex -0.706393 -11.2278 6
      vertex -2.10804 -11.0507 6
    endloop
  endfacet
  facet normal -0.125355 -0.992112 -0
    outer loop
      vertex -0.706393 -11.2278 6
      vertex -2.10804 -11.0507 2
      vertex -0.706393 -11.2278 2
    endloop
  endfacet
  facet normal -0.770514 -0.637423 0
    outer loop
      vertex -8.2009 -7.70115 2
      vertex -9.10144 -6.61258 6
      vertex -9.10144 -6.61258 2
    endloop
  endfacet
  facet normal -0.770514 -0.637423 0
    outer loop
      vertex -9.10144 -6.61258 6
      vertex -8.2009 -7.70115 2
      vertex -8.2009 -7.70115 6
    endloop
  endfacet
  facet normal -0.844331 -0.535822 0
    outer loop
      vertex 2.62892 1.44526 0
      vertex 2.42705 1.76336 6
      vertex 2.42705 1.76336 0
    endloop
  endfacet
  facet normal -0.844331 -0.535822 0
    outer loop
      vertex 2.42705 1.76336 6
      vertex 2.62892 1.44526 0
      vertex 2.62892 1.44526 6
    endloop
  endfacet
  facet normal -0.368126 -0.929776 0
    outer loop
      vertex 0.927051 2.85317 0
      vertex 1.27734 2.71448 6
      vertex 0.927051 2.85317 6
    endloop
  endfacet
  facet normal -0.368126 -0.929776 -0
    outer loop
      vertex 1.27734 2.71448 6
      vertex 0.927051 2.85317 0
      vertex 1.27734 2.71448 0
    endloop
  endfacet
  facet normal 0.368126 -0.929776 0
    outer loop
      vertex -1.27734 2.71448 0
      vertex -0.927051 2.85317 6
      vertex -1.27734 2.71448 6
    endloop
  endfacet
  facet normal 0.368126 -0.929776 0
    outer loop
      vertex -0.927051 2.85317 6
      vertex -1.27734 2.71448 0
      vertex -0.927051 2.85317 0
    endloop
  endfacet
  facet normal 0.904828 -0.425778 0
    outer loop
      vertex -2.78933 1.10437 6
      vertex -2.62892 1.44526 0
      vertex -2.62892 1.44526 6
    endloop
  endfacet
  facet normal 0.904828 -0.425778 0
    outer loop
      vertex -2.62892 1.44526 0
      vertex -2.78933 1.10437 6
      vertex -2.78933 1.10437 0
    endloop
  endfacet
  facet normal -0.98229 0.187369 0
    outer loop
      vertex 2.90575 -0.746069 0
      vertex 2.97634 -0.375999 6
      vertex 2.97634 -0.375999 0
    endloop
  endfacet
  facet normal -0.98229 0.187369 0
    outer loop
      vertex 2.97634 -0.375999 6
      vertex 2.90575 -0.746069 0
      vertex 2.90575 -0.746069 6
    endloop
  endfacet
  facet normal -0.684541 -0.728974 0
    outer loop
      vertex 1.91227 2.31154 0
      vertex 2.18691 2.05364 6
      vertex 1.91227 2.31154 6
    endloop
  endfacet
  facet normal -0.684541 -0.728974 -0
    outer loop
      vertex 2.18691 2.05364 6
      vertex 1.91227 2.31154 0
      vertex 2.18691 2.05364 0
    endloop
  endfacet
  facet normal -0.125337 -0.992114 0
    outer loop
      vertex 0.188371 2.99408 0
      vertex 0.562143 2.94686 6
      vertex 0.188371 2.99408 6
    endloop
  endfacet
  facet normal -0.125337 -0.992114 -0
    outer loop
      vertex 0.562143 2.94686 6
      vertex 0.188371 2.99408 0
      vertex 0.562143 2.94686 0
    endloop
  endfacet
  facet normal -0.58778 -0.809021 0
    outer loop
      vertex 1.60748 2.53298 0
      vertex 1.91227 2.31154 6
      vertex 1.60748 2.53298 6
    endloop
  endfacet
  facet normal -0.58778 -0.809021 -0
    outer loop
      vertex 1.91227 2.31154 6
      vertex 1.60748 2.53298 0
      vertex 1.91227 2.31154 0
    endloop
  endfacet
  facet normal 0.98229 -0.187369 0
    outer loop
      vertex -2.97634 0.375999 6
      vertex -2.90575 0.746069 0
      vertex -2.90575 0.746069 6
    endloop
  endfacet
  facet normal 0.98229 -0.187369 0
    outer loop
      vertex -2.90575 0.746069 0
      vertex -2.97634 0.375999 6
      vertex -2.97634 0.375999 0
    endloop
  endfacet
  facet normal 0.770514 -0.637423 0
    outer loop
      vertex -2.42705 1.76336 6
      vertex -2.18691 2.05364 0
      vertex -2.18691 2.05364 6
    endloop
  endfacet
  facet normal 0.770514 -0.637423 0
    outer loop
      vertex -2.18691 2.05364 0
      vertex -2.42705 1.76336 6
      vertex -2.42705 1.76336 0
    endloop
  endfacet
  facet normal 0.248684 -0.968585 0
    outer loop
      vertex -0.927051 2.85317 0
      vertex -0.562143 2.94686 6
      vertex -0.927051 2.85317 6
    endloop
  endfacet
  facet normal 0.248684 -0.968585 0
    outer loop
      vertex -0.562143 2.94686 6
      vertex -0.927051 2.85317 0
      vertex -0.562143 2.94686 0
    endloop
  endfacet
  facet normal 0.684541 -0.728974 0
    outer loop
      vertex -2.18691 2.05364 0
      vertex -1.91227 2.31154 6
      vertex -2.18691 2.05364 6
    endloop
  endfacet
  facet normal 0.684541 -0.728974 0
    outer loop
      vertex -1.91227 2.31154 6
      vertex -2.18691 2.05364 0
      vertex -1.91227 2.31154 0
    endloop
  endfacet
  facet normal -0.998026 -0.0628015 0
    outer loop
      vertex 3 0 0
      vertex 2.97634 0.375999 6
      vertex 2.97634 0.375999 0
    endloop
  endfacet
  facet normal -0.998026 -0.0628015 0
    outer loop
      vertex 2.97634 0.375999 6
      vertex 3 0 0
      vertex 3 0 6
    endloop
  endfacet
  facet normal -0.770514 -0.637423 0
    outer loop
      vertex 2.42705 1.76336 0
      vertex 2.18691 2.05364 6
      vertex 2.18691 2.05364 0
    endloop
  endfacet
  facet normal -0.770514 -0.637423 0
    outer loop
      vertex 2.18691 2.05364 6
      vertex 2.42705 1.76336 0
      vertex 2.42705 1.76336 6
    endloop
  endfacet
  facet normal 0 -1 0
    outer loop
      vertex -0.188371 2.99408 0
      vertex 0.188371 2.99408 6
      vertex -0.188371 2.99408 6
    endloop
  endfacet
  facet normal 0 -1 -0
    outer loop
      vertex 0.188371 2.99408 6
      vertex -0.188371 2.99408 0
      vertex 0.188371 2.99408 0
    endloop
  endfacet
  facet normal -0.248684 -0.968585 0
    outer loop
      vertex 0.562143 2.94686 0
      vertex 0.927051 2.85317 6
      vertex 0.562143 2.94686 6
    endloop
  endfacet
  facet normal -0.248684 -0.968585 -0
    outer loop
      vertex 0.927051 2.85317 6
      vertex 0.562143 2.94686 0
      vertex 0.927051 2.85317 0
    endloop
  endfacet
  facet normal -0.481762 -0.876302 0
    outer loop
      vertex 1.27734 2.71448 0
      vertex 1.60748 2.53298 6
      vertex 1.27734 2.71448 6
    endloop
  endfacet
  facet normal -0.481762 -0.876302 -0
    outer loop
      vertex 1.60748 2.53298 6
      vertex 1.27734 2.71448 0
      vertex 1.60748 2.53298 0
    endloop
  endfacet
  facet normal 0.998026 -0.0628015 0
    outer loop
      vertex -3 0 6
      vertex -2.97634 0.375999 0
      vertex -2.97634 0.375999 6
    endloop
  endfacet
  facet normal 0.998026 -0.0628015 0
    outer loop
      vertex -2.97634 0.375999 0
      vertex -3 0 6
      vertex -3 0 0
    endloop
  endfacet
  facet normal 0.951056 -0.309019 0
    outer loop
      vertex -2.90575 0.746069 6
      vertex -2.78933 1.10437 0
      vertex -2.78933 1.10437 6
    endloop
  endfacet
  facet normal 0.951056 -0.309019 0
    outer loop
      vertex -2.78933 1.10437 0
      vertex -2.90575 0.746069 6
      vertex -2.90575 0.746069 0
    endloop
  endfacet
  facet normal 0.844331 -0.535822 0
    outer loop
      vertex -2.62892 1.44526 6
      vertex -2.42705 1.76336 0
      vertex -2.42705 1.76336 6
    endloop
  endfacet
  facet normal 0.844331 -0.535822 0
    outer loop
      vertex -2.42705 1.76336 0
      vertex -2.62892 1.44526 6
      vertex -2.62892 1.44526 0
    endloop
  endfacet
  facet normal 0.125337 -0.992114 0
    outer loop
      vertex -0.562143 2.94686 0
      vertex -0.188371 2.99408 6
      vertex -0.562143 2.94686 6
    endloop
  endfacet
  facet normal 0.125337 -0.992114 0
    outer loop
      vertex -0.188371 2.99408 6
      vertex -0.562143 2.94686 0
      vertex -0.188371 2.99408 0
    endloop
  endfacet
  facet normal 0.58778 -0.809021 0
    outer loop
      vertex -1.91227 2.31154 0
      vertex -1.60748 2.53298 6
      vertex -1.91227 2.31154 6
    endloop
  endfacet
  facet normal 0.58778 -0.809021 0
    outer loop
      vertex -1.60748 2.53298 6
      vertex -1.91227 2.31154 0
      vertex -1.60748 2.53298 0
    endloop
  endfacet
  facet normal 0.481762 -0.876302 0
    outer loop
      vertex -1.60748 2.53298 0
      vertex -1.27734 2.71448 6
      vertex -1.60748 2.53298 6
    endloop
  endfacet
  facet normal 0.481762 -0.876302 0
    outer loop
      vertex -1.27734 2.71448 6
      vertex -1.60748 2.53298 0
      vertex -1.27734 2.71448 0
    endloop
  endfacet
  facet normal 0 1 -0
    outer loop
      vertex 0.188371 -2.99408 0
      vertex -0.188371 -2.99408 6
      vertex 0.188371 -2.99408 6
    endloop
  endfacet
  facet normal 0 1 0
    outer loop
      vertex -0.188371 -2.99408 6
      vertex 0.188371 -2.99408 0
      vertex -0.188371 -2.99408 0
    endloop
  endfacet
  facet normal 0.844331 0.535822 0
    outer loop
      vertex -2.42705 -1.76336 6
      vertex -2.62892 -1.44526 0
      vertex -2.62892 -1.44526 6
    endloop
  endfacet
  facet normal 0.844331 0.535822 0
    outer loop
      vertex -2.62892 -1.44526 0
      vertex -2.42705 -1.76336 6
      vertex -2.42705 -1.76336 0
    endloop
  endfacet
  facet normal -0.125337 0.992114 0
    outer loop
      vertex 0.562143 -2.94686 0
      vertex 0.188371 -2.99408 6
      vertex 0.562143 -2.94686 6
    endloop
  endfacet
  facet normal -0.125337 0.992114 0
    outer loop
      vertex 0.188371 -2.99408 6
      vertex 0.562143 -2.94686 0
      vertex 0.188371 -2.99408 0
    endloop
  endfacet
  facet normal -0.368126 0.929776 0
    outer loop
      vertex 1.27734 -2.71448 0
      vertex 0.927051 -2.85317 6
      vertex 1.27734 -2.71448 6
    endloop
  endfacet
  facet normal -0.368126 0.929776 0
    outer loop
      vertex 0.927051 -2.85317 6
      vertex 1.27734 -2.71448 0
      vertex 0.927051 -2.85317 0
    endloop
  endfacet
  facet normal -0.904828 -0.425778 0
    outer loop
      vertex 2.78933 1.10437 0
      vertex 2.62892 1.44526 6
      vertex 2.62892 1.44526 0
    endloop
  endfacet
  facet normal -0.904828 -0.425778 0
    outer loop
      vertex 2.62892 1.44526 6
      vertex 2.78933 1.10437 0
      vertex 2.78933 1.10437 6
    endloop
  endfacet
  facet normal -0.951056 -0.309019 0
    outer loop
      vertex 2.90575 0.746069 0
      vertex 2.78933 1.10437 6
      vertex 2.78933 1.10437 0
    endloop
  endfacet
  facet normal -0.951056 -0.309019 0
    outer loop
      vertex 2.78933 1.10437 6
      vertex 2.90575 0.746069 0
      vertex 2.90575 0.746069 6
    endloop
  endfacet
  facet normal -0.98229 -0.187369 0
    outer loop
      vertex 2.97634 0.375999 0
      vertex 2.90575 0.746069 6
      vertex 2.90575 0.746069 0
    endloop
  endfacet
  facet normal -0.98229 -0.187369 0
    outer loop
      vertex 2.90575 0.746069 6
      vertex 2.97634 0.375999 0
      vertex 2.97634 0.375999 6
    endloop
  endfacet
  facet normal -0.998026 0.0628015 0
    outer loop
      vertex 2.97634 -0.375999 0
      vertex 3 0 6
      vertex 3 0 0
    endloop
  endfacet
  facet normal -0.998026 0.0628015 0
    outer loop
      vertex 3 0 6
      vertex 2.97634 -0.375999 0
      vertex 2.97634 -0.375999 6
    endloop
  endfacet
  facet normal -0.904828 0.425778 0
    outer loop
      vertex 2.62892 -1.44526 0
      vertex 2.78933 -1.10437 6
      vertex 2.78933 -1.10437 0
    endloop
  endfacet
  facet normal -0.904828 0.425778 0
    outer loop
      vertex 2.78933 -1.10437 6
      vertex 2.62892 -1.44526 0
      vertex 2.62892 -1.44526 6
    endloop
  endfacet
  facet normal -0.951056 0.309019 0
    outer loop
      vertex 2.78933 -1.10437 0
      vertex 2.90575 -0.746069 6
      vertex 2.90575 -0.746069 0
    endloop
  endfacet
  facet normal -0.951056 0.309019 0
    outer loop
      vertex 2.90575 -0.746069 6
      vertex 2.78933 -1.10437 0
      vertex 2.78933 -1.10437 6
    endloop
  endfacet
  facet normal -0.684541 0.728974 0
    outer loop
      vertex 2.18691 -2.05364 0
      vertex 1.91227 -2.31154 6
      vertex 2.18691 -2.05364 6
    endloop
  endfacet
  facet normal -0.684541 0.728974 0
    outer loop
      vertex 1.91227 -2.31154 6
      vertex 2.18691 -2.05364 0
      vertex 1.91227 -2.31154 0
    endloop
  endfacet
  facet normal -0.770514 0.637423 0
    outer loop
      vertex 2.18691 -2.05364 0
      vertex 2.42705 -1.76336 6
      vertex 2.42705 -1.76336 0
    endloop
  endfacet
  facet normal -0.770514 0.637423 0
    outer loop
      vertex 2.42705 -1.76336 6
      vertex 2.18691 -2.05364 0
      vertex 2.18691 -2.05364 6
    endloop
  endfacet
  facet normal -0.844331 0.535822 0
    outer loop
      vertex 2.42705 -1.76336 0
      vertex 2.62892 -1.44526 6
      vertex 2.62892 -1.44526 0
    endloop
  endfacet
  facet normal -0.844331 0.535822 0
    outer loop
      vertex 2.62892 -1.44526 6
      vertex 2.42705 -1.76336 0
      vertex 2.42705 -1.76336 6
    endloop
  endfacet
  facet normal 0.368126 0.929776 -0
    outer loop
      vertex -0.927051 -2.85317 0
      vertex -1.27734 -2.71448 6
      vertex -0.927051 -2.85317 6
    endloop
  endfacet
  facet normal 0.368126 0.929776 0
    outer loop
      vertex -1.27734 -2.71448 6
      vertex -0.927051 -2.85317 0
      vertex -1.27734 -2.71448 0
    endloop
  endfacet
  facet normal 0.998026 0.0628015 0
    outer loop
      vertex -2.97634 -0.375999 6
      vertex -3 0 0
      vertex -3 0 6
    endloop
  endfacet
  facet normal 0.998026 0.0628015 0
    outer loop
      vertex -3 0 0
      vertex -2.97634 -0.375999 6
      vertex -2.97634 -0.375999 0
    endloop
  endfacet
  facet normal 0.904828 0.425778 0
    outer loop
      vertex -2.62892 -1.44526 6
      vertex -2.78933 -1.10437 0
      vertex -2.78933 -1.10437 6
    endloop
  endfacet
  facet normal 0.904828 0.425778 0
    outer loop
      vertex -2.78933 -1.10437 0
      vertex -2.62892 -1.44526 6
      vertex -2.62892 -1.44526 0
    endloop
  endfacet
  facet normal 0.684541 0.728974 -0
    outer loop
      vertex -1.91227 -2.31154 0
      vertex -2.18691 -2.05364 6
      vertex -1.91227 -2.31154 6
    endloop
  endfacet
  facet normal 0.684541 0.728974 0
    outer loop
      vertex -2.18691 -2.05364 6
      vertex -1.91227 -2.31154 0
      vertex -2.18691 -2.05364 0
    endloop
  endfacet
  facet normal -0.248684 0.968585 0
    outer loop
      vertex 0.927051 -2.85317 0
      vertex 0.562143 -2.94686 6
      vertex 0.927051 -2.85317 6
    endloop
  endfacet
  facet normal -0.248684 0.968585 0
    outer loop
      vertex 0.562143 -2.94686 6
      vertex 0.927051 -2.85317 0
      vertex 0.562143 -2.94686 0
    endloop
  endfacet
  facet normal -0.58778 0.809021 0
    outer loop
      vertex 1.91227 -2.31154 0
      vertex 1.60748 -2.53298 6
      vertex 1.91227 -2.31154 6
    endloop
  endfacet
  facet normal -0.58778 0.809021 0
    outer loop
      vertex 1.60748 -2.53298 6
      vertex 1.91227 -2.31154 0
      vertex 1.60748 -2.53298 0
    endloop
  endfacet
  facet normal -0.481762 0.876302 0
    outer loop
      vertex 1.60748 -2.53298 0
      vertex 1.27734 -2.71448 6
      vertex 1.60748 -2.53298 6
    endloop
  endfacet
  facet normal -0.481762 0.876302 0
    outer loop
      vertex 1.27734 -2.71448 6
      vertex 1.60748 -2.53298 0
      vertex 1.27734 -2.71448 0
    endloop
  endfacet
  facet normal 0.58778 0.809021 -0
    outer loop
      vertex -1.60748 -2.53298 0
      vertex -1.91227 -2.31154 6
      vertex -1.60748 -2.53298 6
    endloop
  endfacet
  facet normal 0.58778 0.809021 0
    outer loop
      vertex -1.91227 -2.31154 6
      vertex -1.60748 -2.53298 0
      vertex -1.91227 -2.31154 0
    endloop
  endfacet
  facet normal 0.248684 0.968585 -0
    outer loop
      vertex -0.562143 -2.94686 0
      vertex -0.927051 -2.85317 6
      vertex -0.562143 -2.94686 6
    endloop
  endfacet
  facet normal 0.248684 0.968585 0
    outer loop
      vertex -0.927051 -2.85317 6
      vertex -0.562143 -2.94686 0
      vertex -0.927051 -2.85317 0
    endloop
  endfacet
  facet normal 0.481762 0.876302 -0
    outer loop
      vertex -1.27734 -2.71448 0
      vertex -1.60748 -2.53298 6
      vertex -1.27734 -2.71448 6
    endloop
  endfacet
  facet normal 0.481762 0.876302 0
    outer loop
      vertex -1.60748 -2.53298 6
      vertex -1.27734 -2.71448 0
      vertex -1.60748 -2.53298 0
    endloop
  endfacet
  facet normal 0.125337 0.992114 -0
    outer loop
      vertex -0.188371 -2.99408 0
      vertex -0.562143 -2.94686 6
      vertex -0.188371 -2.99408 6
    endloop
  endfacet
  facet normal 0.125337 0.992114 0
    outer loop
      vertex -0.562143 -2.94686 6
      vertex -0.188371 -2.99408 0
      vertex -0.562143 -2.94686 0
    endloop
  endfacet
  facet normal 0.951056 0.309019 0
    outer loop
      vertex -2.78933 -1.10437 6
      vertex -2.90575 -0.746069 0
      vertex -2.90575 -0.746069 6
    endloop
  endfacet
  facet normal 0.951056 0.309019 0
    outer loop
      vertex -2.90575 -0.746069 0
      vertex -2.78933 -1.10437 6
      vertex -2.78933 -1.10437 0
    endloop
  endfacet
  facet normal 0.98229 0.187369 0
    outer loop
      vertex -2.90575 -0.746069 6
      vertex -2.97634 -0.375999 0
      vertex -2.97634 -0.375999 6
    endloop
  endfacet
  facet normal 0.98229 0.187369 0
    outer loop
      vertex -2.97634 -0.375999 0
      vertex -2.90575 -0.746069 6
      vertex -2.90575 -0.746069 0
    endloop
  endfacet
  facet normal 0.770514 0.637423 0
    outer loop
      vertex -2.18691 -2.05364 6
      vertex -2.42705 -1.76336 0
      vertex -2.42705 -1.76336 6
    endloop
  endfacet
  facet normal 0.770514 0.637423 0
    outer loop
      vertex -2.42705 -1.76336 0
      vertex -2.18691 -2.05364 6
      vertex -2.18691 -2.05364 0
    endloop
  endfacet
  facet normal 0 0 -1
    outer loop
      vertex 3 0 0
      vertex 10 0 0
      vertex 9.92115 -1.25333 0
    endloop
  endfacet
  facet normal 0 0 -1
    outer loop
      vertex 2.97634 -0.375999 0
      vertex 9.92115 -1.25333 0
      vertex 9.68583 -2.4869 0
    endloop
  endfacet
  facet normal 0 0 -1
    outer loop
      vertex 10 0 0
      vertex 3 0 0
      vertex 9.92115 1.25333 0
    endloop
  endfacet
  facet normal 0 0 -1
    outer loop
      vertex 2.90575 -0.746069 0
      vertex 9.68583 -2.4869 0
      vertex 9.29776 -3.68124 0
    endloop
  endfacet
  facet normal 0 0 -1
    outer loop
      vertex 2.97634 0.375999 0
      vertex 9.92115 1.25333 0
      vertex 3 0 0
    endloop
  endfacet
  facet normal 0 0 -1
    outer loop
      vertex 2.78933 -1.10437 0
      vertex 9.29776 -3.68124 0
      vertex 8.76307 -4.81754 0
    endloop
  endfacet
  facet normal -0 0 -1
    outer loop
      vertex 9.92115 1.25333 0
      vertex 2.97634 0.375999 0
      vertex 9.68583 2.4869 0
    endloop
  endfacet
  facet normal 0 0 -1
    outer loop
      vertex 2.62892 -1.44526 0
      vertex 8.76307 -4.81754 0
      vertex 8.09017 -5.87785 0
    endloop
  endfacet
  facet normal 0 0 -1
    outer loop
      vertex 2.90575 0.746069 0
      vertex 9.68583 2.4869 0
      vertex 2.97634 0.375999 0
    endloop
  endfacet
  facet normal 0 0 -1
    outer loop
      vertex 2.42705 -1.76336 0
      vertex 8.09017 -5.87785 0
      vertex 7.28969 -6.84547 0
    endloop
  endfacet
  facet normal -0 0 -1
    outer loop
      vertex 9.68583 2.4869 0
      vertex 2.90575 0.746069 0
      vertex 9.29776 3.68124 0
    endloop
  endfacet
  facet normal 0 0 -1
    outer loop
      vertex 2.18691 -2.05364 0
      vertex 7.28969 -6.84547 0
      vertex 6.37424 -7.70513 0
    endloop
  endfacet
  facet normal 0 0 -1
    outer loop
      vertex 2.78933 1.10437 0
      vertex 9.29776 3.68124 0
      vertex 2.90575 0.746069 0
    endloop
  endfacet
  facet normal 0 0 -1
    outer loop
      vertex 1.91227 -2.31154 0
      vertex 6.37424 -7.70513 0
      vertex 5.35827 -8.44328 0
    endloop
  endfacet
  facet normal -0 0 -1
    outer loop
      vertex 9.29776 3.68124 0
      vertex 2.78933 1.10437 0
      vertex 8.76307 4.81754 0
    endloop
  endfacet
  facet normal 0 0 -1
    outer loop
      vertex 1.60748 -2.53298 0
      vertex 5.35827 -8.44328 0
      vertex 4.25779 -9.04827 0
    endloop
  endfacet
  facet normal 0 0 -1
    outer loop
      vertex 2.62892 1.44526 0
      vertex 8.76307 4.81754 0
      vertex 2.78933 1.10437 0
    endloop
  endfacet
  facet normal 0 0 -1
    outer loop
      vertex 1.27734 -2.71448 0
      vertex 4.25779 -9.04827 0
      vertex 3.09017 -9.51056 0
    endloop
  endfacet
  facet normal -0 0 -1
    outer loop
      vertex 8.76307 4.81754 0
      vertex 2.62892 1.44526 0
      vertex 8.09017 5.87785 0
    endloop
  endfacet
  facet normal 0 0 -1
    outer loop
      vertex 2.42705 1.76336 0
      vertex 8.09017 5.87785 0
      vertex 2.62892 1.44526 0
    endloop
  endfacet
  facet normal 0 0 -1
    outer loop
      vertex 9.92115 -1.25333 0
      vertex 2.97634 -0.375999 0
      vertex 3 0 0
    endloop
  endfacet
  facet normal 0 0 -1
    outer loop
      vertex 9.68583 -2.4869 0
      vertex 2.90575 -0.746069 0
      vertex 2.97634 -0.375999 0
    endloop
  endfacet
  facet normal 0 0 -1
    outer loop
      vertex 9.29776 -3.68124 0
      vertex 2.78933 -1.10437 0
      vertex 2.90575 -0.746069 0
    endloop
  endfacet
  facet normal 0 0 -1
    outer loop
      vertex 8.76307 -4.81754 0
      vertex 2.62892 -1.44526 0
      vertex 2.78933 -1.10437 0
    endloop
  endfacet
  facet normal 0 0 -1
    outer loop
      vertex 8.09017 -5.87785 0
      vertex 2.42705 -1.76336 0
      vertex 2.62892 -1.44526 0
    endloop
  endfacet
  facet normal 0 0 -1
    outer loop
      vertex 7.28969 -6.84547 0
      vertex 2.18691 -2.05364 0
      vertex 2.42705 -1.76336 0
    endloop
  endfacet
  facet normal 0 0 -1
    outer loop
      vertex 6.37424 -7.70513 0
      vertex 1.91227 -2.31154 0
      vertex 2.18691 -2.05364 0
    endloop
  endfacet
  facet normal 0 0 -1
    outer loop
      vertex 0.927051 -2.85317 0
      vertex 3.09017 -9.51056 0
      vertex 1.87381 -9.82287 0
    endloop
  endfacet
  facet normal 0 0 -1
    outer loop
      vertex 5.35827 -8.44328 0
      vertex 1.60748 -2.53298 0
      vertex 1.91227 -2.31154 0
    endloop
  endfacet
  facet normal 0 0 -1
    outer loop
      vertex 4.25779 -9.04827 0
      vertex 1.27734 -2.71448 0
      vertex 1.60748 -2.53298 0
    endloop
  endfacet
  facet normal 0 0 -1
    outer loop
      vertex 3.09017 -9.51056 0
      vertex 0.927051 -2.85317 0
      vertex 1.27734 -2.71448 0
    endloop
  endfacet
  facet normal 0 0 -1
    outer loop
      vertex 0.562143 -2.94686 0
      vertex 1.87381 -9.82287 0
      vertex 0.627905 -9.98027 0
    endloop
  endfacet
  facet normal 0 0 -1
    outer loop
      vertex 1.87381 -9.82287 0
      vertex 0.562143 -2.94686 0
      vertex 0.927051 -2.85317 0
    endloop
  endfacet
  facet normal 0 0 -1
    outer loop
      vertex 0.627905 -9.98027 0
      vertex 0.188371 -2.99408 0
      vertex 0.562143 -2.94686 0
    endloop
  endfacet
  facet normal 0 0 -1
    outer loop
      vertex 0.627905 -9.98027 0
      vertex -0.188371 -2.99408 0
      vertex 0.188371 -2.99408 0
    endloop
  endfacet
  facet normal 0 0 -1
    outer loop
      vertex -0.627905 -9.98027 0
      vertex -0.188371 -2.99408 0
      vertex 0.627905 -9.98027 0
    endloop
  endfacet
  facet normal -0 0 -1
    outer loop
      vertex -0.188371 -2.99408 0
      vertex -0.627905 -9.98027 0
      vertex -0.562143 -2.94686 0
    endloop
  endfacet
  facet normal 0 0 -1
    outer loop
      vertex -1.87381 -9.82287 0
      vertex -0.562143 -2.94686 0
      vertex -0.627905 -9.98027 0
    endloop
  endfacet
  facet normal -0 0 -1
    outer loop
      vertex -0.562143 -2.94686 0
      vertex -1.87381 -9.82287 0
      vertex -0.927051 -2.85317 0
    endloop
  endfacet
  facet normal 0 0 -1
    outer loop
      vertex -3.09017 -9.51056 0
      vertex -0.927051 -2.85317 0
      vertex -1.87381 -9.82287 0
    endloop
  endfacet
  facet normal -0 0 -1
    outer loop
      vertex -0.927051 -2.85317 0
      vertex -3.09017 -9.51056 0
      vertex -1.27734 -2.71448 0
    endloop
  endfacet
  facet normal 0 0 -1
    outer loop
      vertex -4.25779 -9.04827 0
      vertex -1.27734 -2.71448 0
      vertex -3.09017 -9.51056 0
    endloop
  endfacet
  facet normal -0 0 -1
    outer loop
      vertex -1.27734 -2.71448 0
      vertex -4.25779 -9.04827 0
      vertex -1.60748 -2.53298 0
    endloop
  endfacet
  facet normal 0 0 -1
    outer loop
      vertex -5.35827 -8.44328 0
      vertex -1.60748 -2.53298 0
      vertex -4.25779 -9.04827 0
    endloop
  endfacet
  facet normal -0 0 -1
    outer loop
      vertex -1.60748 -2.53298 0
      vertex -5.35827 -8.44328 0
      vertex -1.91227 -2.31154 0
    endloop
  endfacet
  facet normal 0 0 -1
    outer loop
      vertex -6.37424 -7.70513 0
      vertex -1.91227 -2.31154 0
      vertex -5.35827 -8.44328 0
    endloop
  endfacet
  facet normal -0 0 -1
    outer loop
      vertex -1.91227 -2.31154 0
      vertex -6.37424 -7.70513 0
      vertex -2.18691 -2.05364 0
    endloop
  endfacet
  facet normal 0 0 -1
    outer loop
      vertex -7.28969 -6.84547 0
      vertex -2.18691 -2.05364 0
      vertex -6.37424 -7.70513 0
    endloop
  endfacet
  facet normal 0 0 -1
    outer loop
      vertex -8.09017 -5.87785 0
      vertex -2.42705 -1.76336 0
      vertex -7.28969 -6.84547 0
    endloop
  endfacet
  facet normal -0 0 -1
    outer loop
      vertex -2.18691 -2.05364 0
      vertex -7.28969 -6.84547 0
      vertex -2.42705 -1.76336 0
    endloop
  endfacet
  facet normal -0 0 -1
    outer loop
      vertex 8.09017 5.87785 0
      vertex 2.42705 1.76336 0
      vertex 7.28969 6.84547 0
    endloop
  endfacet
  facet normal 0 0 -1
    outer loop
      vertex 2.18691 2.05364 0
      vertex 7.28969 6.84547 0
      vertex 2.42705 1.76336 0
    endloop
  endfacet
  facet normal -0 0 -1
    outer loop
      vertex 7.28969 6.84547 0
      vertex 2.18691 2.05364 0
      vertex 6.37424 7.70513 0
    endloop
  endfacet
  facet normal 0 0 -1
    outer loop
      vertex 1.91227 2.31154 0
      vertex 6.37424 7.70513 0
      vertex 2.18691 2.05364 0
    endloop
  endfacet
  facet normal -0 0 -1
    outer loop
      vertex 6.37424 7.70513 0
      vertex 1.91227 2.31154 0
      vertex 5.35827 8.44328 0
    endloop
  endfacet
  facet normal 0 0 -1
    outer loop
      vertex 1.60748 2.53298 0
      vertex 5.35827 8.44328 0
      vertex 1.91227 2.31154 0
    endloop
  endfacet
  facet normal -0 0 -1
    outer loop
      vertex 5.35827 8.44328 0
      vertex 1.60748 2.53298 0
      vertex 4.25779 9.04827 0
    endloop
  endfacet
  facet normal 0 0 -1
    outer loop
      vertex 1.27734 2.71448 0
      vertex 4.25779 9.04827 0
      vertex 1.60748 2.53298 0
    endloop
  endfacet
  facet normal -0 0 -1
    outer loop
      vertex 4.25779 9.04827 0
      vertex 1.27734 2.71448 0
      vertex 3.09017 9.51056 0
    endloop
  endfacet
  facet normal 0 0 -1
    outer loop
      vertex 0.927051 2.85317 0
      vertex 3.09017 9.51056 0
      vertex 1.27734 2.71448 0
    endloop
  endfacet
  facet normal -0 0 -1
    outer loop
      vertex 3.09017 9.51056 0
      vertex 0.927051 2.85317 0
      vertex 1.87381 9.82287 0
    endloop
  endfacet
  facet normal 0 0 -1
    outer loop
      vertex 0.562143 2.94686 0
      vertex 1.87381 9.82287 0
      vertex 0.927051 2.85317 0
    endloop
  endfacet
  facet normal -0 0 -1
    outer loop
      vertex 1.87381 9.82287 0
      vertex 0.562143 2.94686 0
      vertex 0.627905 9.98027 0
    endloop
  endfacet
  facet normal 0 0 -1
    outer loop
      vertex 0.188371 2.99408 0
      vertex 0.627905 9.98027 0
      vertex 0.562143 2.94686 0
    endloop
  endfacet
  facet normal 0 0 -1
    outer loop
      vertex -0.188371 2.99408 0
      vertex 0.627905 9.98027 0
      vertex 0.188371 2.99408 0
    endloop
  endfacet
  facet normal 0 0 -1
    outer loop
      vertex -0.627905 9.98027 0
      vertex -0.188371 2.99408 0
      vertex -0.562143 2.94686 0
    endloop
  endfacet
  facet normal 0 0 -1
    outer loop
      vertex -0.188371 2.99408 0
      vertex -0.627905 9.98027 0
      vertex 0.627905 9.98027 0
    endloop
  endfacet
  facet normal 0 0 -1
    outer loop
      vertex -1.87381 9.82287 0
      vertex -0.562143 2.94686 0
      vertex -0.927051 2.85317 0
    endloop
  endfacet
  facet normal 0 0 -1
    outer loop
      vertex -3.09017 9.51056 0
      vertex -0.927051 2.85317 0
      vertex -1.27734 2.71448 0
    endloop
  endfacet
  facet normal 0 0 -1
    outer loop
      vertex -4.25779 9.04827 0
      vertex -1.27734 2.71448 0
      vertex -1.60748 2.53298 0
    endloop
  endfacet
  facet normal 0 0 -1
    outer loop
      vertex -0.562143 2.94686 0
      vertex -1.87381 9.82287 0
      vertex -0.627905 9.98027 0
    endloop
  endfacet
  facet normal 0 0 -1
    outer loop
      vertex -5.35827 8.44328 0
      vertex -1.60748 2.53298 0
      vertex -1.91227 2.31154 0
    endloop
  endfacet
  facet normal 0 0 -1
    outer loop
      vertex -6.37424 7.70513 0
      vertex -1.91227 2.31154 0
      vertex -2.18691 2.05364 0
    endloop
  endfacet
  facet normal 0 0 -1
    outer loop
      vertex -7.28969 6.84547 0
      vertex -2.18691 2.05364 0
      vertex -2.42705 1.76336 0
    endloop
  endfacet
  facet normal 0 0 -1
    outer loop
      vertex -8.09017 5.87785 0
      vertex -2.42705 1.76336 0
      vertex -2.62892 1.44526 0
    endloop
  endfacet
  facet normal 0 0 -1
    outer loop
      vertex -8.76307 4.81754 0
      vertex -2.62892 1.44526 0
      vertex -2.78933 1.10437 0
    endloop
  endfacet
  facet normal 0 0 -1
    outer loop
      vertex -9.29776 3.68124 0
      vertex -2.78933 1.10437 0
      vertex -2.90575 0.746069 0
    endloop
  endfacet
  facet normal 0 0 -1
    outer loop
      vertex -9.68583 2.4869 0
      vertex -2.90575 0.746069 0
      vertex -2.97634 0.375999 0
    endloop
  endfacet
  facet normal 0 0 -1
    outer loop
      vertex -0.927051 2.85317 0
      vertex -3.09017 9.51056 0
      vertex -1.87381 9.82287 0
    endloop
  endfacet
  facet normal 0 0 -1
    outer loop
      vertex -9.92115 1.25333 0
      vertex -2.97634 0.375999 0
      vertex -3 0 0
    endloop
  endfacet
  facet normal -0 0 -1
    outer loop
      vertex -2.42705 -1.76336 0
      vertex -8.09017 -5.87785 0
      vertex -2.62892 -1.44526 0
    endloop
  endfacet
  facet normal 0 0 -1
    outer loop
      vertex -8.76307 -4.81754 0
      vertex -2.62892 -1.44526 0
      vertex -8.09017 -5.87785 0
    endloop
  endfacet
  facet normal 0 0 -1
    outer loop
      vertex -1.27734 2.71448 0
      vertex -4.25779 9.04827 0
      vertex -3.09017 9.51056 0
    endloop
  endfacet
  facet normal -0 0 -1
    outer loop
      vertex -2.62892 -1.44526 0
      vertex -8.76307 -4.81754 0
      vertex -2.78933 -1.10437 0
    endloop
  endfacet
  facet normal 0 0 -1
    outer loop
      vertex -1.60748 2.53298 0
      vertex -5.35827 8.44328 0
      vertex -4.25779 9.04827 0
    endloop
  endfacet
  facet normal 0 0 -1
    outer loop
      vertex -9.29776 -3.68124 0
      vertex -2.78933 -1.10437 0
      vertex -8.76307 -4.81754 0
    endloop
  endfacet
  facet normal 0 0 -1
    outer loop
      vertex -1.91227 2.31154 0
      vertex -6.37424 7.70513 0
      vertex -5.35827 8.44328 0
    endloop
  endfacet
  facet normal -0 0 -1
    outer loop
      vertex -2.78933 -1.10437 0
      vertex -9.29776 -3.68124 0
      vertex -2.90575 -0.746069 0
    endloop
  endfacet
  facet normal 0 0 -1
    outer loop
      vertex -2.18691 2.05364 0
      vertex -7.28969 6.84547 0
      vertex -6.37424 7.70513 0
    endloop
  endfacet
  facet normal 0 0 -1
    outer loop
      vertex -9.68583 -2.4869 0
      vertex -2.90575 -0.746069 0
      vertex -9.29776 -3.68124 0
    endloop
  endfacet
  facet normal 0 0 -1
    outer loop
      vertex -2.42705 1.76336 0
      vertex -8.09017 5.87785 0
      vertex -7.28969 6.84547 0
    endloop
  endfacet
  facet normal -0 0 -1
    outer loop
      vertex -2.90575 -0.746069 0
      vertex -9.68583 -2.4869 0
      vertex -2.97634 -0.375999 0
    endloop
  endfacet
  facet normal 0 0 -1
    outer loop
      vertex -2.62892 1.44526 0
      vertex -8.76307 4.81754 0
      vertex -8.09017 5.87785 0
    endloop
  endfacet
  facet normal 0 0 -1
    outer loop
      vertex -9.92115 -1.25333 0
      vertex -2.97634 -0.375999 0
      vertex -9.68583 -2.4869 0
    endloop
  endfacet
  facet normal 0 0 -1
    outer loop
      vertex -2.78933 1.10437 0
      vertex -9.29776 3.68124 0
      vertex -8.76307 4.81754 0
    endloop
  endfacet
  facet normal -0 0 -1
    outer loop
      vertex -2.97634 -0.375999 0
      vertex -9.92115 -1.25333 0
      vertex -3 0 0
    endloop
  endfacet
  facet normal 0 0 -1
    outer loop
      vertex -2.90575 0.746069 0
      vertex -9.68583 2.4869 0
      vertex -9.29776 3.68124 0
    endloop
  endfacet
  facet normal 0 0 -1
    outer loop
      vertex -10 0 0
      vertex -3 0 0
      vertex -9.92115 -1.25333 0
    endloop
  endfacet
  facet normal 0 0 -1
    outer loop
      vertex -2.97634 0.375999 0
      vertex -9.92115 1.25333 0
      vertex -9.68583 2.4869 0
    endloop
  endfacet
  facet normal 0 0 -1
    outer loop
      vertex -3 0 0
      vertex -10 0 0
      vertex -9.92115 1.25333 0
    endloop
  endfacet
  facet normal 0 0 1
    outer loop
      vertex 3 0 6
      vertex 11.25 0 6
      vertex 11.1613 1.41 6
    endloop
  endfacet
  facet normal 0 0 1
    outer loop
      vertex 2.97634 0.375999 6
      vertex 11.1613 1.41 6
      vertex 10.8966 2.79776 6
    endloop
  endfacet
  facet normal 0 0 1
    outer loop
      vertex 11.25 0 6
      vertex 3 0 6
      vertex 11.1613 -1.41 6
    endloop
  endfacet
  facet normal 0 0 1
    outer loop
      vertex 2.90575 0.746069 6
      vertex 10.8966 2.79776 6
      vertex 10.46 4.1414 6
    endloop
  endfacet
  facet normal -0 0 1
    outer loop
      vertex 2.97634 -0.375999 6
      vertex 11.1613 -1.41 6
      vertex 3 0 6
    endloop
  endfacet
  facet normal 0 0 1
    outer loop
      vertex 2.78933 1.10437 6
      vertex 10.46 4.1414 6
      vertex 9.85845 5.41973 6
    endloop
  endfacet
  facet normal 0 0 1
    outer loop
      vertex 11.1613 -1.41 6
      vertex 2.97634 -0.375999 6
      vertex 10.8966 -2.79776 6
    endloop
  endfacet
  facet normal 0 0 1
    outer loop
      vertex 2.62892 1.44526 6
      vertex 9.85845 5.41973 6
      vertex 9.10144 6.61258 6
    endloop
  endfacet
  facet normal -0 0 1
    outer loop
      vertex 2.90575 -0.746069 6
      vertex 10.8966 -2.79776 6
      vertex 2.97634 -0.375999 6
    endloop
  endfacet
  facet normal 0 0 1
    outer loop
      vertex 2.42705 1.76336 6
      vertex 9.10144 6.61258 6
      vertex 8.2009 7.70115 6
    endloop
  endfacet
  facet normal 0 0 1
    outer loop
      vertex 10.8966 -2.79776 6
      vertex 2.90575 -0.746069 6
      vertex 10.46 -4.1414 6
    endloop
  endfacet
  facet normal 0 0 1
    outer loop
      vertex 2.18691 2.05364 6
      vertex 8.2009 7.70115 6
      vertex 7.17102 8.66827 6
    endloop
  endfacet
  facet normal -0 0 1
    outer loop
      vertex 2.78933 -1.10437 6
      vertex 10.46 -4.1414 6
      vertex 2.90575 -0.746069 6
    endloop
  endfacet
  facet normal 0 0 1
    outer loop
      vertex 1.91227 2.31154 6
      vertex 7.17102 8.66827 6
      vertex 6.02805 9.49869 6
    endloop
  endfacet
  facet normal 0 0 1
    outer loop
      vertex 10.46 -4.1414 6
      vertex 2.78933 -1.10437 6
      vertex 9.85845 -5.41973 6
    endloop
  endfacet
  facet normal 0 0 1
    outer loop
      vertex 1.60748 2.53298 6
      vertex 6.02805 9.49869 6
      vertex 4.79002 10.1793 6
    endloop
  endfacet
  facet normal -0 0 1
    outer loop
      vertex 2.62892 -1.44526 6
      vertex 9.85845 -5.41973 6
      vertex 2.78933 -1.10437 6
    endloop
  endfacet
  facet normal 0 0 1
    outer loop
      vertex 1.27734 2.71448 6
      vertex 4.79002 10.1793 6
      vertex 3.47644 10.6994 6
    endloop
  endfacet
  facet normal 0 0 1
    outer loop
      vertex 9.85845 -5.41973 6
      vertex 2.62892 -1.44526 6
      vertex 9.10144 -6.61258 6
    endloop
  endfacet
  facet normal -0 0 1
    outer loop
      vertex 2.42705 -1.76336 6
      vertex 9.10144 -6.61258 6
      vertex 2.62892 -1.44526 6
    endloop
  endfacet
  facet normal 0 0 1
    outer loop
      vertex 11.1613 1.41 6
      vertex 2.97634 0.375999 6
      vertex 3 0 6
    endloop
  endfacet
  facet normal 0 0 1
    outer loop
      vertex 10.8966 2.79776 6
      vertex 2.90575 0.746069 6
      vertex 2.97634 0.375999 6
    endloop
  endfacet
  facet normal 0 0 1
    outer loop
      vertex 10.46 4.1414 6
      vertex 2.78933 1.10437 6
      vertex 2.90575 0.746069 6
    endloop
  endfacet
  facet normal 0 0 1
    outer loop
      vertex 9.85845 5.41973 6
      vertex 2.62892 1.44526 6
      vertex 2.78933 1.10437 6
    endloop
  endfacet
  facet normal 0 0 1
    outer loop
      vertex 9.10144 6.61258 6
      vertex 2.42705 1.76336 6
      vertex 2.62892 1.44526 6
    endloop
  endfacet
  facet normal 0 0 1
    outer loop
      vertex 8.2009 7.70115 6
      vertex 2.18691 2.05364 6
      vertex 2.42705 1.76336 6
    endloop
  endfacet
  facet normal 0 0 1
    outer loop
      vertex 0.927051 2.85317 6
      vertex 3.47644 10.6994 6
      vertex 2.10804 11.0507 6
    endloop
  endfacet
  facet normal 0 0 1
    outer loop
      vertex 7.17102 8.66827 6
      vertex 1.91227 2.31154 6
      vertex 2.18691 2.05364 6
    endloop
  endfacet
  facet normal 0 0 1
    outer loop
      vertex 6.02805 9.49869 6
      vertex 1.60748 2.53298 6
      vertex 1.91227 2.31154 6
    endloop
  endfacet
  facet normal 0 0 1
    outer loop
      vertex 4.79002 10.1793 6
      vertex 1.27734 2.71448 6
      vertex 1.60748 2.53298 6
    endloop
  endfacet
  facet normal 0 0 1
    outer loop
      vertex 3.47644 10.6994 6
      vertex 0.927051 2.85317 6
      vertex 1.27734 2.71448 6
    endloop
  endfacet
  facet normal 0 0 1
    outer loop
      vertex 0.562143 2.94686 6
      vertex 2.10804 11.0507 6
      vertex 0.706393 11.2278 6
    endloop
  endfacet
  facet normal 0 0 1
    outer loop
      vertex 2.10804 11.0507 6
      vertex 0.562143 2.94686 6
      vertex 0.927051 2.85317 6
    endloop
  endfacet
  facet normal 0 0 1
    outer loop
      vertex 0.706393 11.2278 6
      vertex 0.188371 2.99408 6
      vertex 0.562143 2.94686 6
    endloop
  endfacet
  facet normal 0 0 1
    outer loop
      vertex 0.706393 11.2278 6
      vertex -0.188371 2.99408 6
      vertex 0.188371 2.99408 6
    endloop
  endfacet
  facet normal -0 0 1
    outer loop
      vertex -0.706393 11.2278 6
      vertex -0.188371 2.99408 6
      vertex 0.706393 11.2278 6
    endloop
  endfacet
  facet normal 0 0 1
    outer loop
      vertex -0.188371 2.99408 6
      vertex -0.706393 11.2278 6
      vertex -0.562143 2.94686 6
    endloop
  endfacet
  facet normal -0 0 1
    outer loop
      vertex -2.10804 11.0507 6
      vertex -0.562143 2.94686 6
      vertex -0.706393 11.2278 6
    endloop
  endfacet
  facet normal 0 0 1
    outer loop
      vertex -0.562143 2.94686 6
      vertex -2.10804 11.0507 6
      vertex -0.927051 2.85317 6
    endloop
  endfacet
  facet normal -0 0 1
    outer loop
      vertex -3.47644 10.6994 6
      vertex -0.927051 2.85317 6
      vertex -2.10804 11.0507 6
    endloop
  endfacet
  facet normal 0 0 1
    outer loop
      vertex -0.927051 2.85317 6
      vertex -3.47644 10.6994 6
      vertex -1.27734 2.71448 6
    endloop
  endfacet
  facet normal -0 0 1
    outer loop
      vertex -4.79002 10.1793 6
      vertex -1.27734 2.71448 6
      vertex -3.47644 10.6994 6
    endloop
  endfacet
  facet normal 0 0 1
    outer loop
      vertex -1.27734 2.71448 6
      vertex -4.79002 10.1793 6
      vertex -1.60748 2.53298 6
    endloop
  endfacet
  facet normal -0 0 1
    outer loop
      vertex -6.02805 9.49869 6
      vertex -1.60748 2.53298 6
      vertex -4.79002 10.1793 6
    endloop
  endfacet
  facet normal 0 0 1
    outer loop
      vertex -1.60748 2.53298 6
      vertex -6.02805 9.49869 6
      vertex -1.91227 2.31154 6
    endloop
  endfacet
  facet normal -0 0 1
    outer loop
      vertex -7.17102 8.66827 6
      vertex -1.91227 2.31154 6
      vertex -6.02805 9.49869 6
    endloop
  endfacet
  facet normal 0 0 1
    outer loop
      vertex -1.91227 2.31154 6
      vertex -7.17102 8.66827 6
      vertex -2.18691 2.05364 6
    endloop
  endfacet
  facet normal -0 0 1
    outer loop
      vertex -8.2009 7.70115 6
      vertex -2.18691 2.05364 6
      vertex -7.17102 8.66827 6
    endloop
  endfacet
  facet normal -0 0 1
    outer loop
      vertex -9.10144 6.61258 6
      vertex -2.42705 1.76336 6
      vertex -8.2009 7.70115 6
    endloop
  endfacet
  facet normal 0 0 1
    outer loop
      vertex -2.18691 2.05364 6
      vertex -8.2009 7.70115 6
      vertex -2.42705 1.76336 6
    endloop
  endfacet
  facet normal 0 0 1
    outer loop
      vertex 9.10144 -6.61258 6
      vertex 2.42705 -1.76336 6
      vertex 8.2009 -7.70115 6
    endloop
  endfacet
  facet normal -0 0 1
    outer loop
      vertex 2.18691 -2.05364 6
      vertex 8.2009 -7.70115 6
      vertex 2.42705 -1.76336 6
    endloop
  endfacet
  facet normal 0 0 1
    outer loop
      vertex 8.2009 -7.70115 6
      vertex 2.18691 -2.05364 6
      vertex 7.17102 -8.66827 6
    endloop
  endfacet
  facet normal -0 0 1
    outer loop
      vertex 1.91227 -2.31154 6
      vertex 7.17102 -8.66827 6
      vertex 2.18691 -2.05364 6
    endloop
  endfacet
  facet normal 0 0 1
    outer loop
      vertex 7.17102 -8.66827 6
      vertex 1.91227 -2.31154 6
      vertex 6.02805 -9.49869 6
    endloop
  endfacet
  facet normal -0 0 1
    outer loop
      vertex 1.60748 -2.53298 6
      vertex 6.02805 -9.49869 6
      vertex 1.91227 -2.31154 6
    endloop
  endfacet
  facet normal 0 0 1
    outer loop
      vertex 6.02805 -9.49869 6
      vertex 1.60748 -2.53298 6
      vertex 4.79002 -10.1793 6
    endloop
  endfacet
  facet normal -0 0 1
    outer loop
      vertex 1.27734 -2.71448 6
      vertex 4.79002 -10.1793 6
      vertex 1.60748 -2.53298 6
    endloop
  endfacet
  facet normal 0 0 1
    outer loop
      vertex 4.79002 -10.1793 6
      vertex 1.27734 -2.71448 6
      vertex 3.47644 -10.6994 6
    endloop
  endfacet
  facet normal -0 0 1
    outer loop
      vertex 0.927051 -2.85317 6
      vertex 3.47644 -10.6994 6
      vertex 1.27734 -2.71448 6
    endloop
  endfacet
  facet normal 0 0 1
    outer loop
      vertex 3.47644 -10.6994 6
      vertex 0.927051 -2.85317 6
      vertex 2.10804 -11.0507 6
    endloop
  endfacet
  facet normal -0 0 1
    outer loop
      vertex 0.562143 -2.94686 6
      vertex 2.10804 -11.0507 6
      vertex 0.927051 -2.85317 6
    endloop
  endfacet
  facet normal 0 0 1
    outer loop
      vertex 2.10804 -11.0507 6
      vertex 0.562143 -2.94686 6
      vertex 0.706393 -11.2278 6
    endloop
  endfacet
  facet normal -0 0 1
    outer loop
      vertex 0.188371 -2.99408 6
      vertex 0.706393 -11.2278 6
      vertex 0.562143 -2.94686 6
    endloop
  endfacet
  facet normal -0 0 1
    outer loop
      vertex -0.188371 -2.99408 6
      vertex 0.706393 -11.2278 6
      vertex 0.188371 -2.99408 6
    endloop
  endfacet
  facet normal 0 0 1
    outer loop
      vertex -0.706393 -11.2278 6
      vertex -0.188371 -2.99408 6
      vertex -0.562143 -2.94686 6
    endloop
  endfacet
  facet normal 0 0 1
    outer loop
      vertex -0.188371 -2.99408 6
      vertex -0.706393 -11.2278 6
      vertex 0.706393 -11.2278 6
    endloop
  endfacet
  facet normal 0 0 1
    outer loop
      vertex -2.10804 -11.0507 6
      vertex -0.562143 -2.94686 6
      vertex -0.927051 -2.85317 6
    endloop
  endfacet
  facet normal 0 0 1
    outer loop
      vertex -3.47644 -10.6994 6
      vertex -0.927051 -2.85317 6
      vertex -1.27734 -2.71448 6
    endloop
  endfacet
  facet normal 0 0 1
    outer loop
      vertex -4.79002 -10.1793 6
      vertex -1.27734 -2.71448 6
      vertex -1.60748 -2.53298 6
    endloop
  endfacet
  facet normal 0 0 1
    outer loop
      vertex -6.02805 -9.49869 6
      vertex -1.60748 -2.53298 6
      vertex -1.91227 -2.31154 6
    endloop
  endfacet
  facet normal 0 0 1
    outer loop
      vertex -0.562143 -2.94686 6
      vertex -2.10804 -11.0507 6
      vertex -0.706393 -11.2278 6
    endloop
  endfacet
  facet normal 0 0 1
    outer loop
      vertex -7.17102 -8.66827 6
      vertex -1.91227 -2.31154 6
      vertex -2.18691 -2.05364 6
    endloop
  endfacet
  facet normal 0 0 1
    outer loop
      vertex -8.2009 -7.70115 6
      vertex -2.18691 -2.05364 6
      vertex -2.42705 -1.76336 6
    endloop
  endfacet
  facet normal 0 0 1
    outer loop
      vertex -9.10144 -6.61258 6
      vertex -2.42705 -1.76336 6
      vertex -2.62892 -1.44526 6
    endloop
  endfacet
  facet normal 0 0 1
    outer loop
      vertex -9.85845 -5.41973 6
      vertex -2.62892 -1.44526 6
      vertex -2.78933 -1.10437 6
    endloop
  endfacet
  facet normal 0 0 1
    outer loop
      vertex -10.46 -4.1414 6
      vertex -2.78933 -1.10437 6
      vertex -2.90575 -0.746069 6
    endloop
  endfacet
  facet normal 0 0 1
    outer loop
      vertex -10.8966 -2.79776 6
      vertex -2.90575 -0.746069 6
      vertex -2.97634 -0.375999 6
    endloop
  endfacet
  facet normal 0 0 1
    outer loop
      vertex -0.927051 -2.85317 6
      vertex -3.47644 -10.6994 6
      vertex -2.10804 -11.0507 6
    endloop
  endfacet
  facet normal 0 0 1
    outer loop
      vertex -11.1613 -1.41 6
      vertex -2.97634 -0.375999 6
      vertex -3 0 6
    endloop
  endfacet
  facet normal 0 0 1
    outer loop
      vertex -2.42705 1.76336 6
      vertex -9.10144 6.61258 6
      vertex -2.62892 1.44526 6
    endloop
  endfacet
  facet normal -0 0 1
    outer loop
      vertex -9.85845 5.41973 6
      vertex -2.62892 1.44526 6
      vertex -9.10144 6.61258 6
    endloop
  endfacet
  facet normal 0 0 1
    outer loop
      vertex -1.27734 -2.71448 6
      vertex -4.79002 -10.1793 6
      vertex -3.47644 -10.6994 6
    endloop
  endfacet
  facet normal 0 0 1
    outer loop
      vertex -2.62892 1.44526 6
      vertex -9.85845 5.41973 6
      vertex -2.78933 1.10437 6
    endloop
  endfacet
  facet normal 0 0 1
    outer loop
      vertex -1.60748 -2.53298 6
      vertex -6.02805 -9.49869 6
      vertex -4.79002 -10.1793 6
    endloop
  endfacet
  facet normal -0 0 1
    outer loop
      vertex -10.46 4.1414 6
      vertex -2.78933 1.10437 6
      vertex -9.85845 5.41973 6
    endloop
  endfacet
  facet normal 0 0 1
    outer loop
      vertex -1.91227 -2.31154 6
      vertex -7.17102 -8.66827 6
      vertex -6.02805 -9.49869 6
    endloop
  endfacet
  facet normal 0 0 1
    outer loop
      vertex -2.78933 1.10437 6
      vertex -10.46 4.1414 6
      vertex -2.90575 0.746069 6
    endloop
  endfacet
  facet normal 0 0 1
    outer loop
      vertex -2.18691 -2.05364 6
      vertex -8.2009 -7.70115 6
      vertex -7.17102 -8.66827 6
    endloop
  endfacet
  facet normal -0 0 1
    outer loop
      vertex -10.8966 2.79776 6
      vertex -2.90575 0.746069 6
      vertex -10.46 4.1414 6
    endloop
  endfacet
  facet normal 0 0 1
    outer loop
      vertex -2.42705 -1.76336 6
      vertex -9.10144 -6.61258 6
      vertex -8.2009 -7.70115 6
    endloop
  endfacet
  facet normal 0 0 1
    outer loop
      vertex -2.90575 0.746069 6
      vertex -10.8966 2.79776 6
      vertex -2.97634 0.375999 6
    endloop
  endfacet
  facet normal 0 0 1
    outer loop
      vertex -2.62892 -1.44526 6
      vertex -9.85845 -5.41973 6
      vertex -9.10144 -6.61258 6
    endloop
  endfacet
  facet normal -0 0 1
    outer loop
      vertex -11.1613 1.41 6
      vertex -2.97634 0.375999 6
      vertex -10.8966 2.79776 6
    endloop
  endfacet
  facet normal 0 0 1
    outer loop
      vertex -2.78933 -1.10437 6
      vertex -10.46 -4.1414 6
      vertex -9.85845 -5.41973 6
    endloop
  endfacet
  facet normal 0 0 1
    outer loop
      vertex -2.97634 0.375999 6
      vertex -11.1613 1.41 6
      vertex -3 0 6
    endloop
  endfacet
  facet normal 0 0 1
    outer loop
      vertex -2.90575 -0.746069 6
      vertex -10.8966 -2.79776 6
      vertex -10.46 -4.1414 6
    endloop
  endfacet
  facet normal 0 0 1
    outer loop
      vertex -11.25 0 6
      vertex -3 0 6
      vertex -11.1613 1.41 6
    endloop
  endfacet
  facet normal 0 0 1
    outer loop
      vertex -2.97634 -0.375999 6
      vertex -11.1613 -1.41 6
      vertex -10.8966 -2.79776 6
    endloop
  endfacet
  facet normal 0 0 1
    outer loop
      vertex -3 0 6
      vertex -11.25 0 6
      vertex -11.1613 -1.41 6
    endloop
  endfacet
endsolid OpenSCAD_Model
