<?xml version="1.0" standalone="no"?>
<!DOCTYPE svg PUBLIC "-//W3C//DTD SVG 1.1//EN" "http://www.w3.org/Graphics/SVG/1.1/DTD/svg11.dtd">
<svg width="4mm" height="554mm" viewBox="-2 -552 4 554" xmlns="http://www.w3.org/2000/svg" version="1.1">
<title>OpenSCAD Model</title>
<path d="
M 0.360428,-548.111 L 0.594391,-548.171 L 0.818985,-548.26 L 1.03067,-548.376 L 1.22609,-548.518 L 1.40219,-548.683
 L 1.55615,-548.869 L 1.68559,-549.073 L 1.78844,-549.292 L 1.86308,-549.522 L 1.90836,-549.759 L 1.92352,-550
 L 1.90836,-550.241 L 1.86308,-550.478 L 1.78844,-550.708 L 1.68559,-550.927 L 1.55615,-551.131 L 1.40219,-551.317
 L 1.22609,-551.482 L 1.03067,-551.624 L 0.818985,-551.74 L 0.594391,-551.829 L 0.360428,-551.889 L 0.120773,-551.92
 L -0.120773,-551.92 L -0.360428,-551.889 L -0.594391,-551.829 L -0.818985,-551.74 L -1.03067,-551.624 L -1.22609,-551.482
 L -1.40219,-551.317 L -1.55615,-551.131 L -1.68559,-550.927 L -1.78844,-550.708 L -1.86308,-550.478 L -1.90836,-550.241
 L -1.92352,-550 L -1.90836,-549.759 L -1.86308,-549.522 L -1.78844,-549.292 L -1.68559,-549.073 L -1.55615,-548.869
 L -1.40219,-548.683 L -1.22609,-548.518 L -1.03067,-548.376 L -0.818985,-548.26 L -0.594391,-548.171 L -0.360428,-548.111
 L -0.120773,-548.08 L 0.120773,-548.08 z
M 0.33728,-438.232 L 0.556229,-438.288 L 0.766388,-438.371 L 0.964478,-438.48 L 1.14735,-438.613 L 1.31213,-438.768
 L 1.45622,-438.942 L 1.57735,-439.133 L 1.67358,-439.337 L 1.74344,-439.552 L 1.7858,-439.774 L 1.79999,-440
 L 1.7858,-440.226 L 1.74344,-440.448 L 1.67358,-440.663 L 1.57735,-440.867 L 1.45622,-441.058 L 1.31213,-441.232
 L 1.14735,-441.387 L 0.964478,-441.52 L 0.766388,-441.629 L 0.556229,-441.712 L 0.33728,-441.768 L 0.113022,-441.796
 L -0.113022,-441.796 L -0.33728,-441.768 L -0.556229,-441.712 L -0.766388,-441.629 L -0.964478,-441.52 L -1.14735,-441.387
 L -1.31213,-441.232 L -1.45622,-441.058 L -1.57735,-440.867 L -1.67358,-440.663 L -1.74344,-440.448 L -1.7858,-440.226
 L -1.79999,-440 L -1.7858,-439.774 L -1.74344,-439.552 L -1.67358,-439.337 L -1.57735,-439.133 L -1.45622,-438.942
 L -1.31213,-438.768 L -1.14735,-438.613 L -0.964478,-438.48 L -0.766388,-438.371 L -0.556229,-438.288 L -0.33728,-438.232
 L -0.113022,-438.204 L 0.113022,-438.204 z
M 0.33728,-328.232 L 0.556229,-328.288 L 0.766388,-328.371 L 0.964478,-328.48 L 1.14735,-328.613 L 1.31213,-328.768
 L 1.45622,-328.942 L 1.57735,-329.133 L 1.67358,-329.337 L 1.74344,-329.552 L 1.7858,-329.774 L 1.79999,-330
 L 1.7858,-330.226 L 1.74344,-330.448 L 1.67358,-330.663 L 1.57735,-330.867 L 1.45622,-331.058 L 1.31213,-331.232
 L 1.14735,-331.387 L 0.964478,-331.52 L 0.766388,-331.629 L 0.556229,-331.712 L 0.33728,-331.768 L 0.113022,-331.796
 L -0.113022,-331.796 L -0.33728,-331.768 L -0.556229,-331.712 L -0.766388,-331.629 L -0.964478,-331.52 L -1.14735,-331.387
 L -1.31213,-331.232 L -1.45622,-331.058 L -1.57735,-330.867 L -1.67358,-330.663 L -1.74344,-330.448 L -1.7858,-330.226
 L -1.79999,-330 L -1.7858,-329.774 L -1.74344,-329.552 L -1.67358,-329.337 L -1.57735,-329.133 L -1.45622,-328.942
 L -1.31213,-328.768 L -1.14735,-328.613 L -0.964478,-328.48 L -0.766388,-328.371 L -0.556229,-328.288 L -0.33728,-328.232
 L -0.113022,-328.204 L 0.113022,-328.204 z
M 0.33728,-218.232 L 0.556229,-218.288 L 0.766388,-218.371 L 0.964478,-218.48 L 1.14735,-218.613 L 1.31213,-218.768
 L 1.45622,-218.942 L 1.57735,-219.133 L 1.67358,-219.337 L 1.74344,-219.552 L 1.7858,-219.774 L 1.79999,-220
 L 1.7858,-220.226 L 1.74344,-220.448 L 1.67358,-220.663 L 1.57735,-220.867 L 1.45622,-221.058 L 1.31213,-221.232
 L 1.14735,-221.387 L 0.964478,-221.52 L 0.766388,-221.629 L 0.556229,-221.712 L 0.33728,-221.768 L 0.113022,-221.796
 L -0.113022,-221.796 L -0.33728,-221.768 L -0.556229,-221.712 L -0.766388,-221.629 L -0.964478,-221.52 L -1.14735,-221.387
 L -1.31213,-221.232 L -1.45622,-221.058 L -1.57735,-220.867 L -1.67358,-220.663 L -1.74344,-220.448 L -1.7858,-220.226
 L -1.79999,-220 L -1.7858,-219.774 L -1.74344,-219.552 L -1.67358,-219.337 L -1.57735,-219.133 L -1.45622,-218.942
 L -1.31213,-218.768 L -1.14735,-218.613 L -0.964478,-218.48 L -0.766388,-218.371 L -0.556229,-218.288 L -0.33728,-218.232
 L -0.113022,-218.204 L 0.113022,-218.204 z
M 0.33728,-108.232 L 0.556229,-108.288 L 0.766388,-108.371 L 0.964478,-108.48 L 1.14735,-108.613 L 1.31213,-108.768
 L 1.45622,-108.942 L 1.57735,-109.133 L 1.67358,-109.337 L 1.74344,-109.552 L 1.7858,-109.774 L 1.79999,-110
 L 1.7858,-110.226 L 1.74344,-110.448 L 1.67358,-110.663 L 1.57735,-110.867 L 1.45622,-111.058 L 1.31213,-111.232
 L 1.14735,-111.387 L 0.964478,-111.52 L 0.766388,-111.629 L 0.556229,-111.712 L 0.33728,-111.768 L 0.113022,-111.796
 L -0.113022,-111.796 L -0.33728,-111.768 L -0.556229,-111.712 L -0.766388,-111.629 L -0.964478,-111.52 L -1.14735,-111.387
 L -1.31213,-111.232 L -1.45622,-111.058 L -1.57735,-110.867 L -1.67358,-110.663 L -1.74344,-110.448 L -1.7858,-110.226
 L -1.79999,-110 L -1.7858,-109.774 L -1.74344,-109.552 L -1.67358,-109.337 L -1.57735,-109.133 L -1.45622,-108.942
 L -1.31213,-108.768 L -1.14735,-108.613 L -0.964478,-108.48 L -0.766388,-108.371 L -0.556229,-108.288 L -0.33728,-108.232
 L -0.113022,-108.204 L 0.113022,-108.204 z
M 0.33728,1.76811 L 0.556229,1.7119 L 0.766388,1.62868 L 0.964478,1.51978 L 1.14735,1.38692 L 1.31213,1.23218
 L 1.45622,1.058 L 1.57735,0.867142 L 1.67358,0.662613 L 1.74344,0.447632 L 1.7858,0.225586 L 1.79999,-0
 L 1.7858,-0.225586 L 1.74344,-0.447632 L 1.67358,-0.662613 L 1.57735,-0.867142 L 1.45622,-1.058 L 1.31213,-1.23218
 L 1.14735,-1.38692 L 0.964478,-1.51978 L 0.766388,-1.62868 L 0.556229,-1.7119 L 0.33728,-1.76811 L 0.113022,-1.79645
 L -0.113022,-1.79645 L -0.33728,-1.76811 L -0.556229,-1.7119 L -0.766388,-1.62868 L -0.964478,-1.51978 L -1.14735,-1.38692
 L -1.31213,-1.23218 L -1.45622,-1.058 L -1.57735,-0.867142 L -1.67358,-0.662613 L -1.74344,-0.447632 L -1.7858,-0.225586
 L -1.79999,-0 L -1.7858,0.225586 L -1.74344,0.447632 L -1.67358,0.662613 L -1.57735,0.867142 L -1.45622,1.058
 L -1.31213,1.23218 L -1.14735,1.38692 L -0.964478,1.51978 L -0.766388,1.62868 L -0.556229,1.7119 L -0.33728,1.76811
 L -0.113022,1.79645 L 0.113022,1.79645 z
" stroke="black" fill="lightgray" stroke-width="0.5"/>
</svg>
