  0
SECTION
  2
BLOCKS
  0
ENDSEC
  0
SECTION
  2
ENTITIES
  0
LINE
  8
0
 10
-87
 20
108.425
 11
-86.5451
 21
108.245
  0
LINE
  8
0
 10
-86.5451
 20
108.245
 11
-85.9369
 21
108.089
  0
LINE
  8
0
 10
-85.9369
 20
108.089
 11
-85.3139
 21
108.01
  0
LINE
  8
0
 10
-85.3139
 20
108.01
 11
85.3139
 21
108.01
  0
LINE
  8
0
 10
85.3139
 20
108.01
 11
85.9369
 21
108.089
  0
LINE
  8
0
 10
85.9369
 20
108.089
 11
86.5451
 21
108.245
  0
LINE
  8
0
 10
86.5451
 20
108.245
 11
87.1289
 21
108.476
  0
LINE
  8
0
 10
87.1289
 20
108.476
 11
87.6791
 21
108.778
  0
LINE
  8
0
 10
87.6791
 20
108.778
 11
88.1871
 21
109.147
  0
LINE
  8
0
 10
88.1871
 20
109.147
 11
88.6448
 21
109.577
  0
LINE
  8
0
 10
88.6448
 20
109.577
 11
89.0451
 21
110.061
  0
LINE
  8
0
 10
89.0451
 20
110.061
 11
89.3815
 21
110.591
  0
LINE
  8
0
 10
89.3815
 20
110.591
 11
89.6489
 21
111.159
  0
LINE
  8
0
 10
89.6489
 20
111.159
 11
89.8429
 21
111.757
  0
LINE
  8
0
 10
89.8429
 20
111.757
 11
89.9606
 21
112.373
  0
LINE
  8
0
 10
89.9606
 20
112.373
 11
90
 21
113
  0
LINE
  8
0
 10
90
 20
113
 11
90
 21
163
  0
LINE
  8
0
 10
90
 20
163
 11
89.9606
 21
163.627
  0
LINE
  8
0
 10
89.9606
 20
163.627
 11
89.8429
 21
164.243
  0
LINE
  8
0
 10
89.8429
 20
164.243
 11
89.6489
 21
164.841
  0
LINE
  8
0
 10
89.6489
 20
164.841
 11
89.3815
 21
165.409
  0
LINE
  8
0
 10
89.3815
 20
165.409
 11
89.0451
 21
165.939
  0
LINE
  8
0
 10
89.0451
 20
165.939
 11
88.6448
 21
166.423
  0
LINE
  8
0
 10
88.6448
 20
166.423
 11
88.1871
 21
166.853
  0
LINE
  8
0
 10
88.1871
 20
166.853
 11
87.6791
 21
167.222
  0
LINE
  8
0
 10
87.6791
 20
167.222
 11
87.1289
 21
167.524
  0
LINE
  8
0
 10
87.1289
 20
167.524
 11
86.5451
 21
167.755
  0
LINE
  8
0
 10
86.5451
 20
167.755
 11
85.9369
 21
167.911
  0
LINE
  8
0
 10
85.9369
 20
167.911
 11
85.3139
 21
167.99
  0
LINE
  8
0
 10
85.3139
 20
167.99
 11
-85.3139
 21
167.99
  0
LINE
  8
0
 10
-85.3139
 20
167.99
 11
-85.9369
 21
167.911
  0
LINE
  8
0
 10
-85.9369
 20
167.911
 11
-86.5451
 21
167.755
  0
LINE
  8
0
 10
-86.5451
 20
167.755
 11
-87
 21
167.575
  0
LINE
  8
0
 10
-87
 20
167.575
 11
-87
 21
167.99
  0
LINE
  8
0
 10
-87
 20
167.99
 11
-90
 21
167.99
  0
LINE
  8
0
 10
-90
 20
167.99
 11
-90
 21
108.01
  0
LINE
  8
0
 10
-90
 20
108.01
 11
-87
 21
108.01
  0
LINE
  8
0
 10
-87
 20
108.01
 11
-87
 21
108.425
  0
LINE
  8
0
 10
82.3493
 20
158.105
 11
82.0503
 21
158.143
  0
LINE
  8
0
 10
82.0503
 20
158.143
 11
81.7584
 21
158.217
  0
LINE
  8
0
 10
81.7584
 20
158.217
 11
81.4781
 21
158.328
  0
LINE
  8
0
 10
81.4781
 20
158.328
 11
81.214
 21
158.474
  0
LINE
  8
0
 10
81.214
 20
158.474
 11
80.9702
 21
158.651
  0
LINE
  8
0
 10
80.9702
 20
158.651
 11
80.7505
 21
158.857
  0
LINE
  8
0
 10
80.7505
 20
158.857
 11
80.5583
 21
159.089
  0
LINE
  8
0
 10
80.5583
 20
159.089
 11
80.3969
 21
159.344
  0
LINE
  8
0
 10
80.3969
 20
159.344
 11
80.2685
 21
159.617
  0
LINE
  8
0
 10
80.2685
 20
159.617
 11
80.1754
 21
159.903
  0
LINE
  8
0
 10
80.1754
 20
159.903
 11
80.1189
 21
160.199
  0
LINE
  8
0
 10
80.1189
 20
160.199
 11
80.1
 21
160.5
  0
LINE
  8
0
 10
80.1
 20
160.5
 11
80.1189
 21
160.801
  0
LINE
  8
0
 10
80.1189
 20
160.801
 11
80.1754
 21
161.097
  0
LINE
  8
0
 10
80.1754
 20
161.097
 11
80.2685
 21
161.383
  0
LINE
  8
0
 10
80.2685
 20
161.383
 11
80.3969
 21
161.656
  0
LINE
  8
0
 10
80.3969
 20
161.656
 11
80.5583
 21
161.911
  0
LINE
  8
0
 10
80.5583
 20
161.911
 11
80.7505
 21
162.143
  0
LINE
  8
0
 10
80.7505
 20
162.143
 11
80.9702
 21
162.349
  0
LINE
  8
0
 10
80.9702
 20
162.349
 11
81.214
 21
162.526
  0
LINE
  8
0
 10
81.214
 20
162.526
 11
81.4781
 21
162.672
  0
LINE
  8
0
 10
81.4781
 20
162.672
 11
81.7584
 21
162.783
  0
LINE
  8
0
 10
81.7584
 20
162.783
 11
82.0503
 21
162.857
  0
LINE
  8
0
 10
82.0503
 20
162.857
 11
82.3493
 21
162.895
  0
LINE
  8
0
 10
82.3493
 20
162.895
 11
82.6507
 21
162.895
  0
LINE
  8
0
 10
82.6507
 20
162.895
 11
82.9497
 21
162.857
  0
LINE
  8
0
 10
82.9497
 20
162.857
 11
83.2416
 21
162.783
  0
LINE
  8
0
 10
83.2416
 20
162.783
 11
83.5219
 21
162.672
  0
LINE
  8
0
 10
83.5219
 20
162.672
 11
83.786
 21
162.526
  0
LINE
  8
0
 10
83.786
 20
162.526
 11
84.0298
 21
162.349
  0
LINE
  8
0
 10
84.0298
 20
162.349
 11
84.2495
 21
162.143
  0
LINE
  8
0
 10
84.2495
 20
162.143
 11
84.4416
 21
161.911
  0
LINE
  8
0
 10
84.4416
 20
161.911
 11
84.6031
 21
161.656
  0
LINE
  8
0
 10
84.6031
 20
161.656
 11
84.7315
 21
161.383
  0
LINE
  8
0
 10
84.7315
 20
161.383
 11
84.8246
 21
161.097
  0
LINE
  8
0
 10
84.8246
 20
161.097
 11
84.8811
 21
160.801
  0
LINE
  8
0
 10
84.8811
 20
160.801
 11
84.9
 21
160.5
  0
LINE
  8
0
 10
84.9
 20
160.5
 11
84.8811
 21
160.199
  0
LINE
  8
0
 10
84.8811
 20
160.199
 11
84.8246
 21
159.903
  0
LINE
  8
0
 10
84.8246
 20
159.903
 11
84.7315
 21
159.617
  0
LINE
  8
0
 10
84.7315
 20
159.617
 11
84.6031
 21
159.344
  0
LINE
  8
0
 10
84.6031
 20
159.344
 11
84.4416
 21
159.089
  0
LINE
  8
0
 10
84.4416
 20
159.089
 11
84.2495
 21
158.857
  0
LINE
  8
0
 10
84.2495
 20
158.857
 11
84.0298
 21
158.651
  0
LINE
  8
0
 10
84.0298
 20
158.651
 11
83.786
 21
158.474
  0
LINE
  8
0
 10
83.786
 20
158.474
 11
83.5219
 21
158.328
  0
LINE
  8
0
 10
83.5219
 20
158.328
 11
83.2416
 21
158.217
  0
LINE
  8
0
 10
83.2416
 20
158.217
 11
82.9497
 21
158.143
  0
LINE
  8
0
 10
82.9497
 20
158.143
 11
82.6507
 21
158.105
  0
LINE
  8
0
 10
82.6507
 20
158.105
 11
82.3493
 21
158.105
  0
LINE
  8
0
 10
-82.6507
 20
158.105
 11
-82.9497
 21
158.143
  0
LINE
  8
0
 10
-82.9497
 20
158.143
 11
-83.2416
 21
158.217
  0
LINE
  8
0
 10
-83.2416
 20
158.217
 11
-83.5219
 21
158.328
  0
LINE
  8
0
 10
-83.5219
 20
158.328
 11
-83.786
 21
158.474
  0
LINE
  8
0
 10
-83.786
 20
158.474
 11
-84.0298
 21
158.651
  0
LINE
  8
0
 10
-84.0298
 20
158.651
 11
-84.2495
 21
158.857
  0
LINE
  8
0
 10
-84.2495
 20
158.857
 11
-84.4416
 21
159.089
  0
LINE
  8
0
 10
-84.4416
 20
159.089
 11
-84.6031
 21
159.344
  0
LINE
  8
0
 10
-84.6031
 20
159.344
 11
-84.7315
 21
159.617
  0
LINE
  8
0
 10
-84.7315
 20
159.617
 11
-84.8246
 21
159.903
  0
LINE
  8
0
 10
-84.8246
 20
159.903
 11
-84.8811
 21
160.199
  0
LINE
  8
0
 10
-84.8811
 20
160.199
 11
-84.9
 21
160.5
  0
LINE
  8
0
 10
-84.9
 20
160.5
 11
-84.8811
 21
160.801
  0
LINE
  8
0
 10
-84.8811
 20
160.801
 11
-84.8246
 21
161.097
  0
LINE
  8
0
 10
-84.8246
 20
161.097
 11
-84.7315
 21
161.383
  0
LINE
  8
0
 10
-84.7315
 20
161.383
 11
-84.6031
 21
161.656
  0
LINE
  8
0
 10
-84.6031
 20
161.656
 11
-84.4416
 21
161.911
  0
LINE
  8
0
 10
-84.4416
 20
161.911
 11
-84.2495
 21
162.143
  0
LINE
  8
0
 10
-84.2495
 20
162.143
 11
-84.0298
 21
162.349
  0
LINE
  8
0
 10
-84.0298
 20
162.349
 11
-83.786
 21
162.526
  0
LINE
  8
0
 10
-83.786
 20
162.526
 11
-83.5219
 21
162.672
  0
LINE
  8
0
 10
-83.5219
 20
162.672
 11
-83.2416
 21
162.783
  0
LINE
  8
0
 10
-83.2416
 20
162.783
 11
-82.9497
 21
162.857
  0
LINE
  8
0
 10
-82.9497
 20
162.857
 11
-82.6507
 21
162.895
  0
LINE
  8
0
 10
-82.6507
 20
162.895
 11
-82.3493
 21
162.895
  0
LINE
  8
0
 10
-82.3493
 20
162.895
 11
-82.0503
 21
162.857
  0
LINE
  8
0
 10
-82.0503
 20
162.857
 11
-81.7584
 21
162.783
  0
LINE
  8
0
 10
-81.7584
 20
162.783
 11
-81.4781
 21
162.672
  0
LINE
  8
0
 10
-81.4781
 20
162.672
 11
-81.214
 21
162.526
  0
LINE
  8
0
 10
-81.214
 20
162.526
 11
-80.9702
 21
162.349
  0
LINE
  8
0
 10
-80.9702
 20
162.349
 11
-80.7505
 21
162.143
  0
LINE
  8
0
 10
-80.7505
 20
162.143
 11
-80.5583
 21
161.911
  0
LINE
  8
0
 10
-80.5583
 20
161.911
 11
-80.3969
 21
161.656
  0
LINE
  8
0
 10
-80.3969
 20
161.656
 11
-80.2685
 21
161.383
  0
LINE
  8
0
 10
-80.2685
 20
161.383
 11
-80.1754
 21
161.097
  0
LINE
  8
0
 10
-80.1754
 20
161.097
 11
-80.1189
 21
160.801
  0
LINE
  8
0
 10
-80.1189
 20
160.801
 11
-80.1
 21
160.5
  0
LINE
  8
0
 10
-80.1
 20
160.5
 11
-80.1189
 21
160.199
  0
LINE
  8
0
 10
-80.1189
 20
160.199
 11
-80.1754
 21
159.903
  0
LINE
  8
0
 10
-80.1754
 20
159.903
 11
-80.2685
 21
159.617
  0
LINE
  8
0
 10
-80.2685
 20
159.617
 11
-80.3969
 21
159.344
  0
LINE
  8
0
 10
-80.3969
 20
159.344
 11
-80.5583
 21
159.089
  0
LINE
  8
0
 10
-80.5583
 20
159.089
 11
-80.7505
 21
158.857
  0
LINE
  8
0
 10
-80.7505
 20
158.857
 11
-80.9702
 21
158.651
  0
LINE
  8
0
 10
-80.9702
 20
158.651
 11
-81.214
 21
158.474
  0
LINE
  8
0
 10
-81.214
 20
158.474
 11
-81.4781
 21
158.328
  0
LINE
  8
0
 10
-81.4781
 20
158.328
 11
-81.7584
 21
158.217
  0
LINE
  8
0
 10
-81.7584
 20
158.217
 11
-82.0503
 21
158.143
  0
LINE
  8
0
 10
-82.0503
 20
158.143
 11
-82.3493
 21
158.105
  0
LINE
  8
0
 10
-82.3493
 20
158.105
 11
-82.6507
 21
158.105
  0
LINE
  8
0
 10
82.3493
 20
113.105
 11
82.0503
 21
113.143
  0
LINE
  8
0
 10
82.0503
 20
113.143
 11
81.7584
 21
113.217
  0
LINE
  8
0
 10
81.7584
 20
113.217
 11
81.4781
 21
113.328
  0
LINE
  8
0
 10
81.4781
 20
113.328
 11
81.214
 21
113.474
  0
LINE
  8
0
 10
81.214
 20
113.474
 11
80.9702
 21
113.651
  0
LINE
  8
0
 10
80.9702
 20
113.651
 11
80.7505
 21
113.857
  0
LINE
  8
0
 10
80.7505
 20
113.857
 11
80.5583
 21
114.089
  0
LINE
  8
0
 10
80.5583
 20
114.089
 11
80.3969
 21
114.344
  0
LINE
  8
0
 10
80.3969
 20
114.344
 11
80.2685
 21
114.617
  0
LINE
  8
0
 10
80.2685
 20
114.617
 11
80.1754
 21
114.903
  0
LINE
  8
0
 10
80.1754
 20
114.903
 11
80.1189
 21
115.199
  0
LINE
  8
0
 10
80.1189
 20
115.199
 11
80.1
 21
115.5
  0
LINE
  8
0
 10
80.1
 20
115.5
 11
80.1189
 21
115.801
  0
LINE
  8
0
 10
80.1189
 20
115.801
 11
80.1754
 21
116.097
  0
LINE
  8
0
 10
80.1754
 20
116.097
 11
80.2685
 21
116.383
  0
LINE
  8
0
 10
80.2685
 20
116.383
 11
80.3969
 21
116.656
  0
LINE
  8
0
 10
80.3969
 20
116.656
 11
80.5583
 21
116.911
  0
LINE
  8
0
 10
80.5583
 20
116.911
 11
80.7505
 21
117.143
  0
LINE
  8
0
 10
80.7505
 20
117.143
 11
80.9702
 21
117.349
  0
LINE
  8
0
 10
80.9702
 20
117.349
 11
81.214
 21
117.526
  0
LINE
  8
0
 10
81.214
 20
117.526
 11
81.4781
 21
117.672
  0
LINE
  8
0
 10
81.4781
 20
117.672
 11
81.7584
 21
117.783
  0
LINE
  8
0
 10
81.7584
 20
117.783
 11
82.0503
 21
117.857
  0
LINE
  8
0
 10
82.0503
 20
117.857
 11
82.3493
 21
117.895
  0
LINE
  8
0
 10
82.3493
 20
117.895
 11
82.6507
 21
117.895
  0
LINE
  8
0
 10
82.6507
 20
117.895
 11
82.9497
 21
117.857
  0
LINE
  8
0
 10
82.9497
 20
117.857
 11
83.2416
 21
117.783
  0
LINE
  8
0
 10
83.2416
 20
117.783
 11
83.5219
 21
117.672
  0
LINE
  8
0
 10
83.5219
 20
117.672
 11
83.786
 21
117.526
  0
LINE
  8
0
 10
83.786
 20
117.526
 11
84.0298
 21
117.349
  0
LINE
  8
0
 10
84.0298
 20
117.349
 11
84.2495
 21
117.143
  0
LINE
  8
0
 10
84.2495
 20
117.143
 11
84.4416
 21
116.911
  0
LINE
  8
0
 10
84.4416
 20
116.911
 11
84.6031
 21
116.656
  0
LINE
  8
0
 10
84.6031
 20
116.656
 11
84.7315
 21
116.383
  0
LINE
  8
0
 10
84.7315
 20
116.383
 11
84.8246
 21
116.097
  0
LINE
  8
0
 10
84.8246
 20
116.097
 11
84.8811
 21
115.801
  0
LINE
  8
0
 10
84.8811
 20
115.801
 11
84.9
 21
115.5
  0
LINE
  8
0
 10
84.9
 20
115.5
 11
84.8811
 21
115.199
  0
LINE
  8
0
 10
84.8811
 20
115.199
 11
84.8246
 21
114.903
  0
LINE
  8
0
 10
84.8246
 20
114.903
 11
84.7315
 21
114.617
  0
LINE
  8
0
 10
84.7315
 20
114.617
 11
84.6031
 21
114.344
  0
LINE
  8
0
 10
84.6031
 20
114.344
 11
84.4416
 21
114.089
  0
LINE
  8
0
 10
84.4416
 20
114.089
 11
84.2495
 21
113.857
  0
LINE
  8
0
 10
84.2495
 20
113.857
 11
84.0298
 21
113.651
  0
LINE
  8
0
 10
84.0298
 20
113.651
 11
83.786
 21
113.474
  0
LINE
  8
0
 10
83.786
 20
113.474
 11
83.5219
 21
113.328
  0
LINE
  8
0
 10
83.5219
 20
113.328
 11
83.2416
 21
113.217
  0
LINE
  8
0
 10
83.2416
 20
113.217
 11
82.9497
 21
113.143
  0
LINE
  8
0
 10
82.9497
 20
113.143
 11
82.6507
 21
113.105
  0
LINE
  8
0
 10
82.6507
 20
113.105
 11
82.3493
 21
113.105
  0
LINE
  8
0
 10
-82.6507
 20
113.105
 11
-82.9497
 21
113.143
  0
LINE
  8
0
 10
-82.9497
 20
113.143
 11
-83.2416
 21
113.217
  0
LINE
  8
0
 10
-83.2416
 20
113.217
 11
-83.5219
 21
113.328
  0
LINE
  8
0
 10
-83.5219
 20
113.328
 11
-83.786
 21
113.474
  0
LINE
  8
0
 10
-83.786
 20
113.474
 11
-84.0298
 21
113.651
  0
LINE
  8
0
 10
-84.0298
 20
113.651
 11
-84.2495
 21
113.857
  0
LINE
  8
0
 10
-84.2495
 20
113.857
 11
-84.4416
 21
114.089
  0
LINE
  8
0
 10
-84.4416
 20
114.089
 11
-84.6031
 21
114.344
  0
LINE
  8
0
 10
-84.6031
 20
114.344
 11
-84.7315
 21
114.617
  0
LINE
  8
0
 10
-84.7315
 20
114.617
 11
-84.8246
 21
114.903
  0
LINE
  8
0
 10
-84.8246
 20
114.903
 11
-84.8811
 21
115.199
  0
LINE
  8
0
 10
-84.8811
 20
115.199
 11
-84.9
 21
115.5
  0
LINE
  8
0
 10
-84.9
 20
115.5
 11
-84.8811
 21
115.801
  0
LINE
  8
0
 10
-84.8811
 20
115.801
 11
-84.8246
 21
116.097
  0
LINE
  8
0
 10
-84.8246
 20
116.097
 11
-84.7315
 21
116.383
  0
LINE
  8
0
 10
-84.7315
 20
116.383
 11
-84.6031
 21
116.656
  0
LINE
  8
0
 10
-84.6031
 20
116.656
 11
-84.4416
 21
116.911
  0
LINE
  8
0
 10
-84.4416
 20
116.911
 11
-84.2495
 21
117.143
  0
LINE
  8
0
 10
-84.2495
 20
117.143
 11
-84.0298
 21
117.349
  0
LINE
  8
0
 10
-84.0298
 20
117.349
 11
-83.786
 21
117.526
  0
LINE
  8
0
 10
-83.786
 20
117.526
 11
-83.5219
 21
117.672
  0
LINE
  8
0
 10
-83.5219
 20
117.672
 11
-83.2416
 21
117.783
  0
LINE
  8
0
 10
-83.2416
 20
117.783
 11
-82.9497
 21
117.857
  0
LINE
  8
0
 10
-82.9497
 20
117.857
 11
-82.6507
 21
117.895
  0
LINE
  8
0
 10
-82.6507
 20
117.895
 11
-82.3493
 21
117.895
  0
LINE
  8
0
 10
-82.3493
 20
117.895
 11
-82.0503
 21
117.857
  0
LINE
  8
0
 10
-82.0503
 20
117.857
 11
-81.7584
 21
117.783
  0
LINE
  8
0
 10
-81.7584
 20
117.783
 11
-81.4781
 21
117.672
  0
LINE
  8
0
 10
-81.4781
 20
117.672
 11
-81.214
 21
117.526
  0
LINE
  8
0
 10
-81.214
 20
117.526
 11
-80.9702
 21
117.349
  0
LINE
  8
0
 10
-80.9702
 20
117.349
 11
-80.7505
 21
117.143
  0
LINE
  8
0
 10
-80.7505
 20
117.143
 11
-80.5583
 21
116.911
  0
LINE
  8
0
 10
-80.5583
 20
116.911
 11
-80.3969
 21
116.656
  0
LINE
  8
0
 10
-80.3969
 20
116.656
 11
-80.2685
 21
116.383
  0
LINE
  8
0
 10
-80.2685
 20
116.383
 11
-80.1754
 21
116.097
  0
LINE
  8
0
 10
-80.1754
 20
116.097
 11
-80.1189
 21
115.801
  0
LINE
  8
0
 10
-80.1189
 20
115.801
 11
-80.1
 21
115.5
  0
LINE
  8
0
 10
-80.1
 20
115.5
 11
-80.1189
 21
115.199
  0
LINE
  8
0
 10
-80.1189
 20
115.199
 11
-80.1754
 21
114.903
  0
LINE
  8
0
 10
-80.1754
 20
114.903
 11
-80.2685
 21
114.617
  0
LINE
  8
0
 10
-80.2685
 20
114.617
 11
-80.3969
 21
114.344
  0
LINE
  8
0
 10
-80.3969
 20
114.344
 11
-80.5583
 21
114.089
  0
LINE
  8
0
 10
-80.5583
 20
114.089
 11
-80.7505
 21
113.857
  0
LINE
  8
0
 10
-80.7505
 20
113.857
 11
-80.9702
 21
113.651
  0
LINE
  8
0
 10
-80.9702
 20
113.651
 11
-81.214
 21
113.474
  0
LINE
  8
0
 10
-81.214
 20
113.474
 11
-81.4781
 21
113.328
  0
LINE
  8
0
 10
-81.4781
 20
113.328
 11
-81.7584
 21
113.217
  0
LINE
  8
0
 10
-81.7584
 20
113.217
 11
-82.0503
 21
113.143
  0
LINE
  8
0
 10
-82.0503
 20
113.143
 11
-82.3493
 21
113.105
  0
LINE
  8
0
 10
-82.3493
 20
113.105
 11
-82.6507
 21
113.105
  0
LINE
  8
0
 10
-87
 20
39.4248
 11
-86.5451
 21
39.2447
  0
LINE
  8
0
 10
-86.5451
 20
39.2447
 11
-85.9369
 21
39.0886
  0
LINE
  8
0
 10
-85.9369
 20
39.0886
 11
-85.3139
 21
39.0099
  0
LINE
  8
0
 10
-85.3139
 20
39.0099
 11
85.3139
 21
39.0099
  0
LINE
  8
0
 10
85.3139
 20
39.0099
 11
85.9369
 21
39.0886
  0
LINE
  8
0
 10
85.9369
 20
39.0886
 11
86.5451
 21
39.2447
  0
LINE
  8
0
 10
86.5451
 20
39.2447
 11
87.1289
 21
39.4759
  0
LINE
  8
0
 10
87.1289
 20
39.4759
 11
87.6791
 21
39.7784
  0
LINE
  8
0
 10
87.6791
 20
39.7784
 11
88.1871
 21
40.1474
  0
LINE
  8
0
 10
88.1871
 20
40.1474
 11
88.6448
 21
40.5773
  0
LINE
  8
0
 10
88.6448
 20
40.5773
 11
89.0451
 21
41.0611
  0
LINE
  8
0
 10
89.0451
 20
41.0611
 11
89.3815
 21
41.5912
  0
LINE
  8
0
 10
89.3815
 20
41.5912
 11
89.6489
 21
42.1594
  0
LINE
  8
0
 10
89.6489
 20
42.1594
 11
89.8429
 21
42.7566
  0
LINE
  8
0
 10
89.8429
 20
42.7566
 11
89.9606
 21
43.3733
  0
LINE
  8
0
 10
89.9606
 20
43.3733
 11
90
 21
44
  0
LINE
  8
0
 10
90
 20
44
 11
90
 21
94
  0
LINE
  8
0
 10
90
 20
94
 11
89.9606
 21
94.6267
  0
LINE
  8
0
 10
89.9606
 20
94.6267
 11
89.8429
 21
95.2434
  0
LINE
  8
0
 10
89.8429
 20
95.2434
 11
89.6489
 21
95.8406
  0
LINE
  8
0
 10
89.6489
 20
95.8406
 11
89.3815
 21
96.4088
  0
LINE
  8
0
 10
89.3815
 20
96.4088
 11
89.0451
 21
96.9389
  0
LINE
  8
0
 10
89.0451
 20
96.9389
 11
88.6448
 21
97.4227
  0
LINE
  8
0
 10
88.6448
 20
97.4227
 11
88.1871
 21
97.8526
  0
LINE
  8
0
 10
88.1871
 20
97.8526
 11
87.6791
 21
98.2216
  0
LINE
  8
0
 10
87.6791
 20
98.2216
 11
87.1289
 21
98.5241
  0
LINE
  8
0
 10
87.1289
 20
98.5241
 11
86.5451
 21
98.7553
  0
LINE
  8
0
 10
86.5451
 20
98.7553
 11
85.9369
 21
98.9114
  0
LINE
  8
0
 10
85.9369
 20
98.9114
 11
85.3139
 21
98.9901
  0
LINE
  8
0
 10
85.3139
 20
98.9901
 11
-85.3139
 21
98.9901
  0
LINE
  8
0
 10
-85.3139
 20
98.9901
 11
-85.9369
 21
98.9114
  0
LINE
  8
0
 10
-85.9369
 20
98.9114
 11
-86.5451
 21
98.7553
  0
LINE
  8
0
 10
-86.5451
 20
98.7553
 11
-87
 21
98.5752
  0
LINE
  8
0
 10
-87
 20
98.5752
 11
-87
 21
98.9901
  0
LINE
  8
0
 10
-87
 20
98.9901
 11
-90
 21
98.9901
  0
LINE
  8
0
 10
-90
 20
98.9901
 11
-90
 21
39.0099
  0
LINE
  8
0
 10
-90
 20
39.0099
 11
-87
 21
39.0099
  0
LINE
  8
0
 10
-87
 20
39.0099
 11
-87
 21
39.4248
  0
LINE
  8
0
 10
-82.613
 20
89.7036
 11
-82.8373
 21
89.7319
  0
LINE
  8
0
 10
-82.8373
 20
89.7319
 11
-83.0562
 21
89.7881
  0
LINE
  8
0
 10
-83.0562
 20
89.7881
 11
-83.2664
 21
89.8713
  0
LINE
  8
0
 10
-83.2664
 20
89.8713
 11
-83.4645
 21
89.9802
  0
LINE
  8
0
 10
-83.4645
 20
89.9802
 11
-83.6474
 21
90.1131
  0
LINE
  8
0
 10
-83.6474
 20
90.1131
 11
-83.8121
 21
90.2678
  0
LINE
  8
0
 10
-83.8121
 20
90.2678
 11
-83.9562
 21
90.442
  0
LINE
  8
0
 10
-83.9562
 20
90.442
 11
-84.0773
 21
90.6328
  0
LINE
  8
0
 10
-84.0773
 20
90.6328
 11
-84.1736
 21
90.8374
  0
LINE
  8
0
 10
-84.1736
 20
90.8374
 11
-84.2434
 21
91.0524
  0
LINE
  8
0
 10
-84.2434
 20
91.0524
 11
-84.2858
 21
91.2744
  0
LINE
  8
0
 10
-84.2858
 20
91.2744
 11
-84.3
 21
91.5
  0
LINE
  8
0
 10
-84.3
 20
91.5
 11
-84.2858
 21
91.7256
  0
LINE
  8
0
 10
-84.2858
 20
91.7256
 11
-84.2434
 21
91.9476
  0
LINE
  8
0
 10
-84.2434
 20
91.9476
 11
-84.1736
 21
92.1626
  0
LINE
  8
0
 10
-84.1736
 20
92.1626
 11
-84.0773
 21
92.3672
  0
LINE
  8
0
 10
-84.0773
 20
92.3672
 11
-83.9562
 21
92.558
  0
LINE
  8
0
 10
-83.9562
 20
92.558
 11
-83.8121
 21
92.7322
  0
LINE
  8
0
 10
-83.8121
 20
92.7322
 11
-83.6474
 21
92.8869
  0
LINE
  8
0
 10
-83.6474
 20
92.8869
 11
-83.4645
 21
93.0198
  0
LINE
  8
0
 10
-83.4645
 20
93.0198
 11
-83.2664
 21
93.1287
  0
LINE
  8
0
 10
-83.2664
 20
93.1287
 11
-83.0562
 21
93.2119
  0
LINE
  8
0
 10
-83.0562
 20
93.2119
 11
-82.8373
 21
93.2681
  0
LINE
  8
0
 10
-82.8373
 20
93.2681
 11
-82.613
 21
93.2964
  0
LINE
  8
0
 10
-82.613
 20
93.2964
 11
-82.387
 21
93.2964
  0
LINE
  8
0
 10
-82.387
 20
93.2964
 11
-82.1627
 21
93.2681
  0
LINE
  8
0
 10
-82.1627
 20
93.2681
 11
-81.9438
 21
93.2119
  0
LINE
  8
0
 10
-81.9438
 20
93.2119
 11
-81.7336
 21
93.1287
  0
LINE
  8
0
 10
-81.7336
 20
93.1287
 11
-81.5355
 21
93.0198
  0
LINE
  8
0
 10
-81.5355
 20
93.0198
 11
-81.3526
 21
92.8869
  0
LINE
  8
0
 10
-81.3526
 20
92.8869
 11
-81.1879
 21
92.7322
  0
LINE
  8
0
 10
-81.1879
 20
92.7322
 11
-81.0438
 21
92.558
  0
LINE
  8
0
 10
-81.0438
 20
92.558
 11
-80.9226
 21
92.3672
  0
LINE
  8
0
 10
-80.9226
 20
92.3672
 11
-80.8264
 21
92.1626
  0
LINE
  8
0
 10
-80.8264
 20
92.1626
 11
-80.7565
 21
91.9476
  0
LINE
  8
0
 10
-80.7565
 20
91.9476
 11
-80.7142
 21
91.7256
  0
LINE
  8
0
 10
-80.7142
 20
91.7256
 11
-80.7
 21
91.5
  0
LINE
  8
0
 10
-80.7
 20
91.5
 11
-80.7142
 21
91.2744
  0
LINE
  8
0
 10
-80.7142
 20
91.2744
 11
-80.7565
 21
91.0524
  0
LINE
  8
0
 10
-80.7565
 20
91.0524
 11
-80.8264
 21
90.8374
  0
LINE
  8
0
 10
-80.8264
 20
90.8374
 11
-80.9226
 21
90.6328
  0
LINE
  8
0
 10
-80.9226
 20
90.6328
 11
-81.0438
 21
90.442
  0
LINE
  8
0
 10
-81.0438
 20
90.442
 11
-81.1879
 21
90.2678
  0
LINE
  8
0
 10
-81.1879
 20
90.2678
 11
-81.3526
 21
90.1131
  0
LINE
  8
0
 10
-81.3526
 20
90.1131
 11
-81.5355
 21
89.9802
  0
LINE
  8
0
 10
-81.5355
 20
89.9802
 11
-81.7336
 21
89.8713
  0
LINE
  8
0
 10
-81.7336
 20
89.8713
 11
-81.9438
 21
89.7881
  0
LINE
  8
0
 10
-81.9438
 20
89.7881
 11
-82.1627
 21
89.7319
  0
LINE
  8
0
 10
-82.1627
 20
89.7319
 11
-82.387
 21
89.7036
  0
LINE
  8
0
 10
-82.387
 20
89.7036
 11
-82.613
 21
89.7036
  0
LINE
  8
0
 10
82.387
 20
89.7036
 11
82.1627
 21
89.7319
  0
LINE
  8
0
 10
82.1627
 20
89.7319
 11
81.9438
 21
89.7881
  0
LINE
  8
0
 10
81.9438
 20
89.7881
 11
81.7336
 21
89.8713
  0
LINE
  8
0
 10
81.7336
 20
89.8713
 11
81.5355
 21
89.9802
  0
LINE
  8
0
 10
81.5355
 20
89.9802
 11
81.3526
 21
90.1131
  0
LINE
  8
0
 10
81.3526
 20
90.1131
 11
81.1879
 21
90.2678
  0
LINE
  8
0
 10
81.1879
 20
90.2678
 11
81.0438
 21
90.442
  0
LINE
  8
0
 10
81.0438
 20
90.442
 11
80.9226
 21
90.6328
  0
LINE
  8
0
 10
80.9226
 20
90.6328
 11
80.8264
 21
90.8374
  0
LINE
  8
0
 10
80.8264
 20
90.8374
 11
80.7565
 21
91.0524
  0
LINE
  8
0
 10
80.7565
 20
91.0524
 11
80.7142
 21
91.2744
  0
LINE
  8
0
 10
80.7142
 20
91.2744
 11
80.7
 21
91.5
  0
LINE
  8
0
 10
80.7
 20
91.5
 11
80.7142
 21
91.7256
  0
LINE
  8
0
 10
80.7142
 20
91.7256
 11
80.7565
 21
91.9476
  0
LINE
  8
0
 10
80.7565
 20
91.9476
 11
80.8264
 21
92.1626
  0
LINE
  8
0
 10
80.8264
 20
92.1626
 11
80.9226
 21
92.3672
  0
LINE
  8
0
 10
80.9226
 20
92.3672
 11
81.0438
 21
92.558
  0
LINE
  8
0
 10
81.0438
 20
92.558
 11
81.1879
 21
92.7322
  0
LINE
  8
0
 10
81.1879
 20
92.7322
 11
81.3526
 21
92.8869
  0
LINE
  8
0
 10
81.3526
 20
92.8869
 11
81.5355
 21
93.0198
  0
LINE
  8
0
 10
81.5355
 20
93.0198
 11
81.7336
 21
93.1287
  0
LINE
  8
0
 10
81.7336
 20
93.1287
 11
81.9438
 21
93.2119
  0
LINE
  8
0
 10
81.9438
 20
93.2119
 11
82.1627
 21
93.2681
  0
LINE
  8
0
 10
82.1627
 20
93.2681
 11
82.387
 21
93.2964
  0
LINE
  8
0
 10
82.387
 20
93.2964
 11
82.613
 21
93.2964
  0
LINE
  8
0
 10
82.613
 20
93.2964
 11
82.8373
 21
93.2681
  0
LINE
  8
0
 10
82.8373
 20
93.2681
 11
83.0562
 21
93.2119
  0
LINE
  8
0
 10
83.0562
 20
93.2119
 11
83.2664
 21
93.1287
  0
LINE
  8
0
 10
83.2664
 20
93.1287
 11
83.4645
 21
93.0198
  0
LINE
  8
0
 10
83.4645
 20
93.0198
 11
83.6474
 21
92.8869
  0
LINE
  8
0
 10
83.6474
 20
92.8869
 11
83.8121
 21
92.7322
  0
LINE
  8
0
 10
83.8121
 20
92.7322
 11
83.9562
 21
92.558
  0
LINE
  8
0
 10
83.9562
 20
92.558
 11
84.0773
 21
92.3672
  0
LINE
  8
0
 10
84.0773
 20
92.3672
 11
84.1736
 21
92.1626
  0
LINE
  8
0
 10
84.1736
 20
92.1626
 11
84.2434
 21
91.9476
  0
LINE
  8
0
 10
84.2434
 20
91.9476
 11
84.2858
 21
91.7256
  0
LINE
  8
0
 10
84.2858
 20
91.7256
 11
84.3
 21
91.5
  0
LINE
  8
0
 10
84.3
 20
91.5
 11
84.2858
 21
91.2744
  0
LINE
  8
0
 10
84.2858
 20
91.2744
 11
84.2434
 21
91.0524
  0
LINE
  8
0
 10
84.2434
 20
91.0524
 11
84.1736
 21
90.8374
  0
LINE
  8
0
 10
84.1736
 20
90.8374
 11
84.0773
 21
90.6328
  0
LINE
  8
0
 10
84.0773
 20
90.6328
 11
83.9562
 21
90.442
  0
LINE
  8
0
 10
83.9562
 20
90.442
 11
83.8121
 21
90.2678
  0
LINE
  8
0
 10
83.8121
 20
90.2678
 11
83.6474
 21
90.1131
  0
LINE
  8
0
 10
83.6474
 20
90.1131
 11
83.4645
 21
89.9802
  0
LINE
  8
0
 10
83.4645
 20
89.9802
 11
83.2664
 21
89.8713
  0
LINE
  8
0
 10
83.2664
 20
89.8713
 11
83.0562
 21
89.7881
  0
LINE
  8
0
 10
83.0562
 20
89.7881
 11
82.8373
 21
89.7319
  0
LINE
  8
0
 10
82.8373
 20
89.7319
 11
82.613
 21
89.7036
  0
LINE
  8
0
 10
82.613
 20
89.7036
 11
82.387
 21
89.7036
  0
LINE
  8
0
 10
82.387
 20
44.7036
 11
82.1627
 21
44.7319
  0
LINE
  8
0
 10
82.1627
 20
44.7319
 11
81.9438
 21
44.7881
  0
LINE
  8
0
 10
81.9438
 20
44.7881
 11
81.7336
 21
44.8713
  0
LINE
  8
0
 10
81.7336
 20
44.8713
 11
81.5355
 21
44.9802
  0
LINE
  8
0
 10
81.5355
 20
44.9802
 11
81.3526
 21
45.1131
  0
LINE
  8
0
 10
81.3526
 20
45.1131
 11
81.1879
 21
45.2678
  0
LINE
  8
0
 10
81.1879
 20
45.2678
 11
81.0438
 21
45.442
  0
LINE
  8
0
 10
81.0438
 20
45.442
 11
80.9226
 21
45.6328
  0
LINE
  8
0
 10
80.9226
 20
45.6328
 11
80.8264
 21
45.8374
  0
LINE
  8
0
 10
80.8264
 20
45.8374
 11
80.7565
 21
46.0524
  0
LINE
  8
0
 10
80.7565
 20
46.0524
 11
80.7142
 21
46.2744
  0
LINE
  8
0
 10
80.7142
 20
46.2744
 11
80.7
 21
46.5
  0
LINE
  8
0
 10
80.7
 20
46.5
 11
80.7142
 21
46.7256
  0
LINE
  8
0
 10
80.7142
 20
46.7256
 11
80.7565
 21
46.9476
  0
LINE
  8
0
 10
80.7565
 20
46.9476
 11
80.8264
 21
47.1626
  0
LINE
  8
0
 10
80.8264
 20
47.1626
 11
80.9226
 21
47.3672
  0
LINE
  8
0
 10
80.9226
 20
47.3672
 11
81.0438
 21
47.558
  0
LINE
  8
0
 10
81.0438
 20
47.558
 11
81.1879
 21
47.7322
  0
LINE
  8
0
 10
81.1879
 20
47.7322
 11
81.3526
 21
47.8869
  0
LINE
  8
0
 10
81.3526
 20
47.8869
 11
81.5355
 21
48.0198
  0
LINE
  8
0
 10
81.5355
 20
48.0198
 11
81.7336
 21
48.1287
  0
LINE
  8
0
 10
81.7336
 20
48.1287
 11
81.9438
 21
48.2119
  0
LINE
  8
0
 10
81.9438
 20
48.2119
 11
82.1627
 21
48.2681
  0
LINE
  8
0
 10
82.1627
 20
48.2681
 11
82.387
 21
48.2964
  0
LINE
  8
0
 10
82.387
 20
48.2964
 11
82.613
 21
48.2964
  0
LINE
  8
0
 10
82.613
 20
48.2964
 11
82.8373
 21
48.2681
  0
LINE
  8
0
 10
82.8373
 20
48.2681
 11
83.0562
 21
48.2119
  0
LINE
  8
0
 10
83.0562
 20
48.2119
 11
83.2664
 21
48.1287
  0
LINE
  8
0
 10
83.2664
 20
48.1287
 11
83.4645
 21
48.0198
  0
LINE
  8
0
 10
83.4645
 20
48.0198
 11
83.6474
 21
47.8869
  0
LINE
  8
0
 10
83.6474
 20
47.8869
 11
83.8121
 21
47.7322
  0
LINE
  8
0
 10
83.8121
 20
47.7322
 11
83.9562
 21
47.558
  0
LINE
  8
0
 10
83.9562
 20
47.558
 11
84.0773
 21
47.3672
  0
LINE
  8
0
 10
84.0773
 20
47.3672
 11
84.1736
 21
47.1626
  0
LINE
  8
0
 10
84.1736
 20
47.1626
 11
84.2434
 21
46.9476
  0
LINE
  8
0
 10
84.2434
 20
46.9476
 11
84.2858
 21
46.7256
  0
LINE
  8
0
 10
84.2858
 20
46.7256
 11
84.3
 21
46.5
  0
LINE
  8
0
 10
84.3
 20
46.5
 11
84.2858
 21
46.2744
  0
LINE
  8
0
 10
84.2858
 20
46.2744
 11
84.2434
 21
46.0524
  0
LINE
  8
0
 10
84.2434
 20
46.0524
 11
84.1736
 21
45.8374
  0
LINE
  8
0
 10
84.1736
 20
45.8374
 11
84.0773
 21
45.6328
  0
LINE
  8
0
 10
84.0773
 20
45.6328
 11
83.9562
 21
45.442
  0
LINE
  8
0
 10
83.9562
 20
45.442
 11
83.8121
 21
45.2678
  0
LINE
  8
0
 10
83.8121
 20
45.2678
 11
83.6474
 21
45.1131
  0
LINE
  8
0
 10
83.6474
 20
45.1131
 11
83.4645
 21
44.9802
  0
LINE
  8
0
 10
83.4645
 20
44.9802
 11
83.2664
 21
44.8713
  0
LINE
  8
0
 10
83.2664
 20
44.8713
 11
83.0562
 21
44.7881
  0
LINE
  8
0
 10
83.0562
 20
44.7881
 11
82.8373
 21
44.7319
  0
LINE
  8
0
 10
82.8373
 20
44.7319
 11
82.613
 21
44.7036
  0
LINE
  8
0
 10
82.613
 20
44.7036
 11
82.387
 21
44.7036
  0
LINE
  8
0
 10
-82.613
 20
44.7036
 11
-82.8373
 21
44.7319
  0
LINE
  8
0
 10
-82.8373
 20
44.7319
 11
-83.0562
 21
44.7881
  0
LINE
  8
0
 10
-83.0562
 20
44.7881
 11
-83.2664
 21
44.8713
  0
LINE
  8
0
 10
-83.2664
 20
44.8713
 11
-83.4645
 21
44.9802
  0
LINE
  8
0
 10
-83.4645
 20
44.9802
 11
-83.6474
 21
45.1131
  0
LINE
  8
0
 10
-83.6474
 20
45.1131
 11
-83.8121
 21
45.2678
  0
LINE
  8
0
 10
-83.8121
 20
45.2678
 11
-83.9562
 21
45.442
  0
LINE
  8
0
 10
-83.9562
 20
45.442
 11
-84.0773
 21
45.6328
  0
LINE
  8
0
 10
-84.0773
 20
45.6328
 11
-84.1736
 21
45.8374
  0
LINE
  8
0
 10
-84.1736
 20
45.8374
 11
-84.2434
 21
46.0524
  0
LINE
  8
0
 10
-84.2434
 20
46.0524
 11
-84.2858
 21
46.2744
  0
LINE
  8
0
 10
-84.2858
 20
46.2744
 11
-84.3
 21
46.5
  0
LINE
  8
0
 10
-84.3
 20
46.5
 11
-84.2858
 21
46.7256
  0
LINE
  8
0
 10
-84.2858
 20
46.7256
 11
-84.2434
 21
46.9476
  0
LINE
  8
0
 10
-84.2434
 20
46.9476
 11
-84.1736
 21
47.1626
  0
LINE
  8
0
 10
-84.1736
 20
47.1626
 11
-84.0773
 21
47.3672
  0
LINE
  8
0
 10
-84.0773
 20
47.3672
 11
-83.9562
 21
47.558
  0
LINE
  8
0
 10
-83.9562
 20
47.558
 11
-83.8121
 21
47.7322
  0
LINE
  8
0
 10
-83.8121
 20
47.7322
 11
-83.6474
 21
47.8869
  0
LINE
  8
0
 10
-83.6474
 20
47.8869
 11
-83.4645
 21
48.0198
  0
LINE
  8
0
 10
-83.4645
 20
48.0198
 11
-83.2664
 21
48.1287
  0
LINE
  8
0
 10
-83.2664
 20
48.1287
 11
-83.0562
 21
48.2119
  0
LINE
  8
0
 10
-83.0562
 20
48.2119
 11
-82.8373
 21
48.2681
  0
LINE
  8
0
 10
-82.8373
 20
48.2681
 11
-82.613
 21
48.2964
  0
LINE
  8
0
 10
-82.613
 20
48.2964
 11
-82.387
 21
48.2964
  0
LINE
  8
0
 10
-82.387
 20
48.2964
 11
-82.1627
 21
48.2681
  0
LINE
  8
0
 10
-82.1627
 20
48.2681
 11
-81.9438
 21
48.2119
  0
LINE
  8
0
 10
-81.9438
 20
48.2119
 11
-81.7336
 21
48.1287
  0
LINE
  8
0
 10
-81.7336
 20
48.1287
 11
-81.5355
 21
48.0198
  0
LINE
  8
0
 10
-81.5355
 20
48.0198
 11
-81.3526
 21
47.8869
  0
LINE
  8
0
 10
-81.3526
 20
47.8869
 11
-81.1879
 21
47.7322
  0
LINE
  8
0
 10
-81.1879
 20
47.7322
 11
-81.0438
 21
47.558
  0
LINE
  8
0
 10
-81.0438
 20
47.558
 11
-80.9226
 21
47.3672
  0
LINE
  8
0
 10
-80.9226
 20
47.3672
 11
-80.8264
 21
47.1626
  0
LINE
  8
0
 10
-80.8264
 20
47.1626
 11
-80.7565
 21
46.9476
  0
LINE
  8
0
 10
-80.7565
 20
46.9476
 11
-80.7142
 21
46.7256
  0
LINE
  8
0
 10
-80.7142
 20
46.7256
 11
-80.7
 21
46.5
  0
LINE
  8
0
 10
-80.7
 20
46.5
 11
-80.7142
 21
46.2744
  0
LINE
  8
0
 10
-80.7142
 20
46.2744
 11
-80.7565
 21
46.0524
  0
LINE
  8
0
 10
-80.7565
 20
46.0524
 11
-80.8264
 21
45.8374
  0
LINE
  8
0
 10
-80.8264
 20
45.8374
 11
-80.9226
 21
45.6328
  0
LINE
  8
0
 10
-80.9226
 20
45.6328
 11
-81.0438
 21
45.442
  0
LINE
  8
0
 10
-81.0438
 20
45.442
 11
-81.1879
 21
45.2678
  0
LINE
  8
0
 10
-81.1879
 20
45.2678
 11
-81.3526
 21
45.1131
  0
LINE
  8
0
 10
-81.3526
 20
45.1131
 11
-81.5355
 21
44.9802
  0
LINE
  8
0
 10
-81.5355
 20
44.9802
 11
-81.7336
 21
44.8713
  0
LINE
  8
0
 10
-81.7336
 20
44.8713
 11
-81.9438
 21
44.7881
  0
LINE
  8
0
 10
-81.9438
 20
44.7881
 11
-82.1627
 21
44.7319
  0
LINE
  8
0
 10
-82.1627
 20
44.7319
 11
-82.387
 21
44.7036
  0
LINE
  8
0
 10
-82.387
 20
44.7036
 11
-82.613
 21
44.7036
  0
LINE
  8
0
 10
-87
 20
29.6148
 11
-90
 21
29.6148
  0
LINE
  8
0
 10
-90
 20
29.6148
 11
-90
 21
-29.6148
  0
LINE
  8
0
 10
-90
 20
-29.6148
 11
-87
 21
-29.6148
  0
LINE
  8
0
 10
-87
 20
-29.6148
 11
-87
 21
29.6148
  0
ENDSEC
  0
SECTION
  2
OBJECTS
  0
DICTIONARY
  0
ENDSEC
  0
EOF
