<?xml version="1.0" standalone="no"?>
<!DOCTYPE svg PUBLIC "-//W3C//DTD SVG 1.1//EN" "http://www.w3.org/Graphics/SVG/1.1/DTD/svg11.dtd">
<svg width="104mm" height="90mm" viewBox="-52 -45 104 90" xmlns="http://www.w3.org/2000/svg" version="1.1">
<title>OpenSCAD Model</title>
<path d="
M 47.9369,44.4114 L 48.5451,44.2553 L 49.1289,44.0241 L 49.6791,43.7216 L 50.1871,43.3526 L 50.6448,42.9227
 L 51.0451,42.4389 L 51.3815,41.9088 L 51.6489,41.3406 L 51.8429,40.7434 L 51.9606,40.1267 L 52,39.5
 L 52,-39.5 L 51.9606,-40.1267 L 51.8429,-40.7434 L 51.6489,-41.3406 L 51.3815,-41.9088 L 51.0451,-42.4389
 L 50.6448,-42.9227 L 50.1871,-43.3526 L 49.6791,-43.7216 L 49.1289,-44.0241 L 48.5451,-44.2553 L 47.9369,-44.4114
 L 47.3139,-44.4901 L -47.3139,-44.4901 L -47.9369,-44.4114 L -48.5451,-44.2553 L -49.1289,-44.0241 L -49.6791,-43.7216
 L -50.1871,-43.3526 L -50.6448,-42.9227 L -51.0451,-42.4389 L -51.3815,-41.9088 L -51.6489,-41.3406 L -51.8429,-40.7434
 L -51.9606,-40.1267 L -52,-39.5 L -52,39.5 L -51.9606,40.1267 L -51.8429,40.7434 L -51.6489,41.3406
 L -51.3815,41.9088 L -51.0451,42.4389 L -50.6448,42.9227 L -50.1871,43.3526 L -49.6791,43.7216 L -49.1289,44.0241
 L -48.5451,44.2553 L -47.9369,44.4114 L -47.3139,44.4901 L 47.3139,44.4901 z
M -41.113,-34.7036 L -41.3373,-34.7319 L -41.5562,-34.7881 L -41.7664,-34.8713 L -41.9645,-34.9802 L -42.1474,-35.1131
 L -42.3121,-35.2678 L -42.4562,-35.442 L -42.5773,-35.6328 L -42.6736,-35.8374 L -42.7434,-36.0524 L -42.7858,-36.2744
 L -42.8,-36.5 L -42.7858,-36.7256 L -42.7434,-36.9476 L -42.6736,-37.1626 L -42.5773,-37.3672 L -42.4562,-37.558
 L -42.3121,-37.7322 L -42.1474,-37.8869 L -41.9645,-38.0198 L -41.7664,-38.1287 L -41.5562,-38.2119 L -41.3373,-38.2681
 L -41.113,-38.2964 L -40.887,-38.2964 L -40.6627,-38.2681 L -40.4438,-38.2119 L -40.2336,-38.1287 L -40.0355,-38.0198
 L -39.8526,-37.8869 L -39.6879,-37.7322 L -39.5438,-37.558 L -39.4226,-37.3672 L -39.3264,-37.1626 L -39.2565,-36.9476
 L -39.2142,-36.7256 L -39.2,-36.5 L -39.2142,-36.2744 L -39.2565,-36.0524 L -39.3264,-35.8374 L -39.4226,-35.6328
 L -39.5438,-35.442 L -39.6879,-35.2678 L -39.8526,-35.1131 L -40.0355,-34.9802 L -40.2336,-34.8713 L -40.4438,-34.7881
 L -40.6627,-34.7319 L -40.887,-34.7036 z
M 40.887,-34.7036 L 40.6627,-34.7319 L 40.4438,-34.7881 L 40.2336,-34.8713 L 40.0355,-34.9802 L 39.8526,-35.1131
 L 39.6879,-35.2678 L 39.5438,-35.442 L 39.4226,-35.6328 L 39.3264,-35.8374 L 39.2565,-36.0524 L 39.2142,-36.2744
 L 39.2,-36.5 L 39.2142,-36.7256 L 39.2565,-36.9476 L 39.3264,-37.1626 L 39.4226,-37.3672 L 39.5438,-37.558
 L 39.6879,-37.7322 L 39.8526,-37.8869 L 40.0355,-38.0198 L 40.2336,-38.1287 L 40.4438,-38.2119 L 40.6627,-38.2681
 L 40.887,-38.2964 L 41.113,-38.2964 L 41.3373,-38.2681 L 41.5562,-38.2119 L 41.7664,-38.1287 L 41.9645,-38.0198
 L 42.1474,-37.8869 L 42.3121,-37.7322 L 42.4562,-37.558 L 42.5773,-37.3672 L 42.6736,-37.1626 L 42.7434,-36.9476
 L 42.7858,-36.7256 L 42.8,-36.5 L 42.7858,-36.2744 L 42.7434,-36.0524 L 42.6736,-35.8374 L 42.5773,-35.6328
 L 42.4562,-35.442 L 42.3121,-35.2678 L 42.1474,-35.1131 L 41.9645,-34.9802 L 41.7664,-34.8713 L 41.5562,-34.7881
 L 41.3373,-34.7319 L 41.113,-34.7036 z
M 40.887,23.2964 L 40.6627,23.2681 L 40.4438,23.2119 L 40.2336,23.1287 L 40.0355,23.0198 L 39.8526,22.8869
 L 39.6879,22.7322 L 39.5438,22.558 L 39.4226,22.3672 L 39.3264,22.1626 L 39.2565,21.9476 L 39.2142,21.7256
 L 39.2,21.5 L 39.2142,21.2744 L 39.2565,21.0524 L 39.3264,20.8374 L 39.4226,20.6328 L 39.5438,20.442
 L 39.6879,20.2678 L 39.8526,20.1131 L 40.0355,19.9802 L 40.2336,19.8713 L 40.4438,19.7881 L 40.6627,19.7319
 L 40.887,19.7036 L 41.113,19.7036 L 41.3373,19.7319 L 41.5562,19.7881 L 41.7664,19.8713 L 41.9645,19.9802
 L 42.1474,20.1131 L 42.3121,20.2678 L 42.4562,20.442 L 42.5773,20.6328 L 42.6736,20.8374 L 42.7434,21.0524
 L 42.7858,21.2744 L 42.8,21.5 L 42.7858,21.7256 L 42.7434,21.9476 L 42.6736,22.1626 L 42.5773,22.3672
 L 42.4562,22.558 L 42.3121,22.7322 L 42.1474,22.8869 L 41.9645,23.0198 L 41.7664,23.1287 L 41.5562,23.2119
 L 41.3373,23.2681 L 41.113,23.2964 z
M -41.113,23.2964 L -41.3373,23.2681 L -41.5562,23.2119 L -41.7664,23.1287 L -41.9645,23.0198 L -42.1474,22.8869
 L -42.3121,22.7322 L -42.4562,22.558 L -42.5773,22.3672 L -42.6736,22.1626 L -42.7434,21.9476 L -42.7858,21.7256
 L -42.8,21.5 L -42.7858,21.2744 L -42.7434,21.0524 L -42.6736,20.8374 L -42.5773,20.6328 L -42.4562,20.442
 L -42.3121,20.2678 L -42.1474,20.1131 L -41.9645,19.9802 L -41.7664,19.8713 L -41.5562,19.7881 L -41.3373,19.7319
 L -41.113,19.7036 L -40.887,19.7036 L -40.6627,19.7319 L -40.4438,19.7881 L -40.2336,19.8713 L -40.0355,19.9802
 L -39.8526,20.1131 L -39.6879,20.2678 L -39.5438,20.442 L -39.4226,20.6328 L -39.3264,20.8374 L -39.2565,21.0524
 L -39.2142,21.2744 L -39.2,21.5 L -39.2142,21.7256 L -39.2565,21.9476 L -39.3264,22.1626 L -39.4226,22.3672
 L -39.5438,22.558 L -39.6879,22.7322 L -39.8526,22.8869 L -40.0355,23.0198 L -40.2336,23.1287 L -40.4438,23.2119
 L -40.6627,23.2681 L -40.887,23.2964 z
M 29.8116,40.4941 L 29.4379,40.4469 L 29.0729,40.3532 L 28.7227,40.2145 L 28.3925,40.033 L 28.0877,39.8115
 L 27.8131,39.5536 L 27.5729,39.2634 L 27.3711,38.9453 L 27.2107,38.6044 L 27.0942,38.2461 L 27.0237,37.876
 L 27,37.5 L 27.0237,37.124 L 27.0942,36.7539 L 27.2107,36.3956 L 27.3711,36.0547 L 27.5729,35.7366
 L 27.8131,35.4464 L 28.0877,35.1885 L 28.3925,34.967 L 28.7227,34.7855 L 29.0729,34.6468 L 29.4379,34.5531
 L 29.8116,34.5059 L 30.1884,34.5059 L 30.5621,34.5531 L 30.927,34.6468 L 31.2773,34.7855 L 31.6075,34.967
 L 31.9123,35.1885 L 32.1869,35.4464 L 32.427,35.7366 L 32.6289,36.0547 L 32.7893,36.3956 L 32.9057,36.7539
 L 32.9763,37.124 L 33,37.5 L 32.9763,37.876 L 32.9057,38.2461 L 32.7893,38.6044 L 32.6289,38.9453
 L 32.427,39.2634 L 32.1869,39.5536 L 31.9123,39.8115 L 31.6075,40.033 L 31.2773,40.2145 L 30.927,40.3532
 L 30.5621,40.4469 L 30.1884,40.4941 z
M 14.8116,40.4941 L 14.4379,40.4469 L 14.0729,40.3532 L 13.7227,40.2145 L 13.3925,40.033 L 13.0877,39.8115
 L 12.8131,39.5536 L 12.5729,39.2634 L 12.3711,38.9453 L 12.2107,38.6044 L 12.0942,38.2461 L 12.0237,37.876
 L 12,37.5 L 12.0237,37.124 L 12.0942,36.7539 L 12.2107,36.3956 L 12.3711,36.0547 L 12.5729,35.7366
 L 12.8131,35.4464 L 13.0877,35.1885 L 13.3925,34.967 L 13.7227,34.7855 L 14.0729,34.6468 L 14.4379,34.5531
 L 14.8116,34.5059 L 15.1884,34.5059 L 15.5621,34.5531 L 15.927,34.6468 L 16.2773,34.7855 L 16.6075,34.967
 L 16.9123,35.1885 L 17.1869,35.4464 L 17.427,35.7366 L 17.6289,36.0547 L 17.7893,36.3956 L 17.9057,36.7539
 L 17.9763,37.124 L 18,37.5 L 17.9763,37.876 L 17.9057,38.2461 L 17.7893,38.6044 L 17.6289,38.9453
 L 17.427,39.2634 L 17.1869,39.5536 L 16.9123,39.8115 L 16.6075,40.033 L 16.2773,40.2145 L 15.927,40.3532
 L 15.5621,40.4469 L 15.1884,40.4941 z
M -0.18837,40.4941 L -0.562134,40.4469 L -0.927048,40.3532 L -1.27733,40.2145 L -1.60747,40.033 L -1.91226,39.8115
 L -2.1869,39.5536 L -2.42705,39.2634 L -2.62891,38.9453 L -2.78932,38.6044 L -2.90575,38.2461 L -2.97633,37.876
 L -3,37.5 L -2.97633,37.124 L -2.90575,36.7539 L -2.78932,36.3956 L -2.62891,36.0547 L -2.42705,35.7366
 L -2.1869,35.4464 L -1.91226,35.1885 L -1.60747,34.967 L -1.27733,34.7855 L -0.927048,34.6468 L -0.562134,34.5531
 L -0.18837,34.5059 L 0.18837,34.5059 L 0.562134,34.5531 L 0.927048,34.6468 L 1.27733,34.7855 L 1.60747,34.967
 L 1.91226,35.1885 L 2.1869,35.4464 L 2.42705,35.7366 L 2.62891,36.0547 L 2.78932,36.3956 L 2.90575,36.7539
 L 2.97633,37.124 L 3,37.5 L 2.97633,37.876 L 2.90575,38.2461 L 2.78932,38.6044 L 2.62891,38.9453
 L 2.42705,39.2634 L 2.1869,39.5536 L 1.91226,39.8115 L 1.60747,40.033 L 1.27733,40.2145 L 0.927048,40.3532
 L 0.562134,40.4469 L 0.18837,40.4941 z
M 44.8116,40.4941 L 44.4379,40.4469 L 44.0729,40.3532 L 43.7227,40.2145 L 43.3925,40.033 L 43.0877,39.8115
 L 42.8131,39.5536 L 42.5729,39.2634 L 42.3711,38.9453 L 42.2107,38.6044 L 42.0942,38.2461 L 42.0237,37.876
 L 42,37.5 L 42.0237,37.124 L 42.0942,36.7539 L 42.2107,36.3956 L 42.3711,36.0547 L 42.5729,35.7366
 L 42.8131,35.4464 L 43.0877,35.1885 L 43.3925,34.967 L 43.7227,34.7855 L 44.0729,34.6468 L 44.4379,34.5531
 L 44.8116,34.5059 L 45.1884,34.5059 L 45.5621,34.5531 L 45.927,34.6468 L 46.2773,34.7855 L 46.6075,34.967
 L 46.9123,35.1885 L 47.1869,35.4464 L 47.427,35.7366 L 47.6289,36.0547 L 47.7893,36.3956 L 47.9057,36.7539
 L 47.9763,37.124 L 48,37.5 L 47.9763,37.876 L 47.9057,38.2461 L 47.7893,38.6044 L 47.6289,38.9453
 L 47.427,39.2634 L 47.1869,39.5536 L 46.9123,39.8115 L 46.6075,40.033 L 46.2773,40.2145 L 45.927,40.3532
 L 45.5621,40.4469 L 45.1884,40.4941 z
M -15.1884,40.4941 L -15.5621,40.4469 L -15.927,40.3532 L -16.2773,40.2145 L -16.6075,40.033 L -16.9123,39.8115
 L -17.1869,39.5536 L -17.427,39.2634 L -17.6289,38.9453 L -17.7893,38.6044 L -17.9057,38.2461 L -17.9763,37.876
 L -18,37.5 L -17.9763,37.124 L -17.9057,36.7539 L -17.7893,36.3956 L -17.6289,36.0547 L -17.427,35.7366
 L -17.1869,35.4464 L -16.9123,35.1885 L -16.6075,34.967 L -16.2773,34.7855 L -15.927,34.6468 L -15.5621,34.5531
 L -15.1884,34.5059 L -14.8116,34.5059 L -14.4379,34.5531 L -14.0729,34.6468 L -13.7227,34.7855 L -13.3925,34.967
 L -13.0877,35.1885 L -12.8131,35.4464 L -12.5729,35.7366 L -12.3711,36.0547 L -12.2107,36.3956 L -12.0942,36.7539
 L -12.0237,37.124 L -12,37.5 L -12.0237,37.876 L -12.0942,38.2461 L -12.2107,38.6044 L -12.3711,38.9453
 L -12.5729,39.2634 L -12.8131,39.5536 L -13.0877,39.8115 L -13.3925,40.033 L -13.7227,40.2145 L -14.0729,40.3532
 L -14.4379,40.4469 L -14.8116,40.4941 z
M -30.1884,40.4941 L -30.5621,40.4469 L -30.927,40.3532 L -31.2773,40.2145 L -31.6075,40.033 L -31.9123,39.8115
 L -32.1869,39.5536 L -32.427,39.2634 L -32.6289,38.9453 L -32.7893,38.6044 L -32.9057,38.2461 L -32.9763,37.876
 L -33,37.5 L -32.9763,37.124 L -32.9057,36.7539 L -32.7893,36.3956 L -32.6289,36.0547 L -32.427,35.7366
 L -32.1869,35.4464 L -31.9123,35.1885 L -31.6075,34.967 L -31.2773,34.7855 L -30.927,34.6468 L -30.5621,34.5531
 L -30.1884,34.5059 L -29.8116,34.5059 L -29.4379,34.5531 L -29.0729,34.6468 L -28.7227,34.7855 L -28.3925,34.967
 L -28.0877,35.1885 L -27.8131,35.4464 L -27.5729,35.7366 L -27.3711,36.0547 L -27.2107,36.3956 L -27.0942,36.7539
 L -27.0237,37.124 L -27,37.5 L -27.0237,37.876 L -27.0942,38.2461 L -27.2107,38.6044 L -27.3711,38.9453
 L -27.5729,39.2634 L -27.8131,39.5536 L -28.0877,39.8115 L -28.3925,40.033 L -28.7227,40.2145 L -29.0729,40.3532
 L -29.4379,40.4469 L -29.8116,40.4941 z
M -45.1884,40.4941 L -45.5621,40.4469 L -45.927,40.3532 L -46.2773,40.2145 L -46.6075,40.033 L -46.9123,39.8115
 L -47.1869,39.5536 L -47.427,39.2634 L -47.6289,38.9453 L -47.7893,38.6044 L -47.9057,38.2461 L -47.9763,37.876
 L -48,37.5 L -47.9763,37.124 L -47.9057,36.7539 L -47.7893,36.3956 L -47.6289,36.0547 L -47.427,35.7366
 L -47.1869,35.4464 L -46.9123,35.1885 L -46.6075,34.967 L -46.2773,34.7855 L -45.927,34.6468 L -45.5621,34.5531
 L -45.1884,34.5059 L -44.8116,34.5059 L -44.4379,34.5531 L -44.0729,34.6468 L -43.7227,34.7855 L -43.3925,34.967
 L -43.0877,35.1885 L -42.8131,35.4464 L -42.5729,35.7366 L -42.3711,36.0547 L -42.2107,36.3956 L -42.0942,36.7539
 L -42.0237,37.124 L -42,37.5 L -42.0237,37.876 L -42.0942,38.2461 L -42.2107,38.6044 L -42.3711,38.9453
 L -42.5729,39.2634 L -42.8131,39.5536 L -43.0877,39.8115 L -43.3925,40.033 L -43.7227,40.2145 L -44.0729,40.3532
 L -44.4379,40.4469 L -44.8116,40.4941 z
M 7.40581,38.997 L 7.21892,38.9734 L 7.03647,38.9266 L 6.86133,38.8572 L 6.69626,38.7665 L 6.54385,38.6558
 L 6.40654,38.5268 L 6.28647,38.3817 L 6.18553,38.2226 L 6.10533,38.0522 L 6.04712,37.873 L 6.01183,37.688
 L 6,37.5 L 6.01183,37.312 L 6.04712,37.127 L 6.10533,36.9478 L 6.18553,36.7774 L 6.28647,36.6183
 L 6.40654,36.4732 L 6.54385,36.3442 L 6.69626,36.2335 L 6.86133,36.1428 L 7.03647,36.0734 L 7.21892,36.0266
 L 7.40581,36.003 L 7.59418,36.003 L 7.78107,36.0266 L 7.96352,36.0734 L 8.13866,36.1428 L 8.30373,36.2335
 L 8.45613,36.3442 L 8.59344,36.4732 L 8.71352,36.6183 L 8.81445,36.7774 L 8.89465,36.9478 L 8.95287,37.127
 L 8.98816,37.312 L 9,37.5 L 8.98816,37.688 L 8.95287,37.873 L 8.89465,38.0522 L 8.81445,38.2226
 L 8.71352,38.3817 L 8.59344,38.5268 L 8.45613,38.6558 L 8.30373,38.7665 L 8.13866,38.8572 L 7.96352,38.9266
 L 7.78107,38.9734 L 7.59418,38.997 z
M 37.4058,38.997 L 37.2189,38.9734 L 37.0365,38.9266 L 36.8613,38.8572 L 36.6963,38.7665 L 36.5439,38.6558
 L 36.4065,38.5268 L 36.2865,38.3817 L 36.1855,38.2226 L 36.1053,38.0522 L 36.0471,37.873 L 36.0118,37.688
 L 36,37.5 L 36.0118,37.312 L 36.0471,37.127 L 36.1053,36.9478 L 36.1855,36.7774 L 36.2865,36.6183
 L 36.4065,36.4732 L 36.5439,36.3442 L 36.6963,36.2335 L 36.8613,36.1428 L 37.0365,36.0734 L 37.2189,36.0266
 L 37.4058,36.003 L 37.5942,36.003 L 37.7811,36.0266 L 37.9635,36.0734 L 38.1387,36.1428 L 38.3037,36.2335
 L 38.4561,36.3442 L 38.5934,36.4732 L 38.7135,36.6183 L 38.8145,36.7774 L 38.8947,36.9478 L 38.9529,37.127
 L 38.9882,37.312 L 39,37.5 L 38.9882,37.688 L 38.9529,37.873 L 38.8947,38.0522 L 38.8145,38.2226
 L 38.7135,38.3817 L 38.5934,38.5268 L 38.4561,38.6558 L 38.3037,38.7665 L 38.1387,38.8572 L 37.9635,38.9266
 L 37.7811,38.9734 L 37.5942,38.997 z
M 22.4058,38.997 L 22.2189,38.9734 L 22.0365,38.9266 L 21.8613,38.8572 L 21.6963,38.7665 L 21.5439,38.6558
 L 21.4065,38.5268 L 21.2865,38.3817 L 21.1855,38.2226 L 21.1053,38.0522 L 21.0471,37.873 L 21.0118,37.688
 L 21,37.5 L 21.0118,37.312 L 21.0471,37.127 L 21.1053,36.9478 L 21.1855,36.7774 L 21.2865,36.6183
 L 21.4065,36.4732 L 21.5439,36.3442 L 21.6963,36.2335 L 21.8613,36.1428 L 22.0365,36.0734 L 22.2189,36.0266
 L 22.4058,36.003 L 22.5942,36.003 L 22.7811,36.0266 L 22.9635,36.0734 L 23.1387,36.1428 L 23.3037,36.2335
 L 23.4561,36.3442 L 23.5934,36.4732 L 23.7135,36.6183 L 23.8145,36.7774 L 23.8947,36.9478 L 23.9529,37.127
 L 23.9882,37.312 L 24,37.5 L 23.9882,37.688 L 23.9529,37.873 L 23.8947,38.0522 L 23.8145,38.2226
 L 23.7135,38.3817 L 23.5934,38.5268 L 23.4561,38.6558 L 23.3037,38.7665 L 23.1387,38.8572 L 22.9635,38.9266
 L 22.7811,38.9734 L 22.5942,38.997 z
M -37.5942,38.997 L -37.7811,38.9734 L -37.9635,38.9266 L -38.1387,38.8572 L -38.3037,38.7665 L -38.4561,38.6558
 L -38.5934,38.5268 L -38.7135,38.3817 L -38.8145,38.2226 L -38.8947,38.0522 L -38.9529,37.873 L -38.9882,37.688
 L -39,37.5 L -38.9882,37.312 L -38.9529,37.127 L -38.8947,36.9478 L -38.8145,36.7774 L -38.7135,36.6183
 L -38.5934,36.4732 L -38.4561,36.3442 L -38.3037,36.2335 L -38.1387,36.1428 L -37.9635,36.0734 L -37.7811,36.0266
 L -37.5942,36.003 L -37.4058,36.003 L -37.2189,36.0266 L -37.0365,36.0734 L -36.8613,36.1428 L -36.6963,36.2335
 L -36.5439,36.3442 L -36.4065,36.4732 L -36.2865,36.6183 L -36.1855,36.7774 L -36.1053,36.9478 L -36.0471,37.127
 L -36.0118,37.312 L -36,37.5 L -36.0118,37.688 L -36.0471,37.873 L -36.1053,38.0522 L -36.1855,38.2226
 L -36.2865,38.3817 L -36.4065,38.5268 L -36.5439,38.6558 L -36.6963,38.7665 L -36.8613,38.8572 L -37.0365,38.9266
 L -37.2189,38.9734 L -37.4058,38.997 z
M -22.5942,38.997 L -22.7811,38.9734 L -22.9635,38.9266 L -23.1387,38.8572 L -23.3037,38.7665 L -23.4561,38.6558
 L -23.5934,38.5268 L -23.7135,38.3817 L -23.8145,38.2226 L -23.8947,38.0522 L -23.9529,37.873 L -23.9882,37.688
 L -24,37.5 L -23.9882,37.312 L -23.9529,37.127 L -23.8947,36.9478 L -23.8145,36.7774 L -23.7135,36.6183
 L -23.5934,36.4732 L -23.4561,36.3442 L -23.3037,36.2335 L -23.1387,36.1428 L -22.9635,36.0734 L -22.7811,36.0266
 L -22.5942,36.003 L -22.4058,36.003 L -22.2189,36.0266 L -22.0365,36.0734 L -21.8613,36.1428 L -21.6963,36.2335
 L -21.5439,36.3442 L -21.4065,36.4732 L -21.2865,36.6183 L -21.1855,36.7774 L -21.1053,36.9478 L -21.0471,37.127
 L -21.0118,37.312 L -21,37.5 L -21.0118,37.688 L -21.0471,37.873 L -21.1053,38.0522 L -21.1855,38.2226
 L -21.2865,38.3817 L -21.4065,38.5268 L -21.5439,38.6558 L -21.6963,38.7665 L -21.8613,38.8572 L -22.0365,38.9266
 L -22.2189,38.9734 L -22.4058,38.997 z
M -7.59418,38.997 L -7.78107,38.9734 L -7.96352,38.9266 L -8.13866,38.8572 L -8.30373,38.7665 L -8.45613,38.6558
 L -8.59344,38.5268 L -8.71352,38.3817 L -8.81445,38.2226 L -8.89465,38.0522 L -8.95287,37.873 L -8.98816,37.688
 L -9,37.5 L -8.98816,37.312 L -8.95287,37.127 L -8.89465,36.9478 L -8.81445,36.7774 L -8.71352,36.6183
 L -8.59344,36.4732 L -8.45613,36.3442 L -8.30373,36.2335 L -8.13866,36.1428 L -7.96352,36.0734 L -7.78107,36.0266
 L -7.59418,36.003 L -7.40581,36.003 L -7.21892,36.0266 L -7.03647,36.0734 L -6.86133,36.1428 L -6.69626,36.2335
 L -6.54385,36.3442 L -6.40654,36.4732 L -6.28647,36.6183 L -6.18553,36.7774 L -6.10533,36.9478 L -6.04712,37.127
 L -6.01183,37.312 L -6,37.5 L -6.01183,37.688 L -6.04712,37.873 L -6.10533,38.0522 L -6.18553,38.2226
 L -6.28647,38.3817 L -6.40654,38.5268 L -6.54385,38.6558 L -6.69626,38.7665 L -6.86133,38.8572 L -7.03647,38.9266
 L -7.21892,38.9734 L -7.40581,38.997 z
" stroke="black" fill="lightgray" stroke-width="0.5"/>
</svg>
