  0
SECTION
  2
BLOCKS
  0
ENDSEC
  0
SECTION
  2
ENTITIES
  0
LINE
  8
0
 10
108.437
 20
549.089
 11
109.045
 21
549.245
  0
LINE
  8
0
 10
109.045
 20
549.245
 11
109.629
 21
549.476
  0
LINE
  8
0
 10
109.629
 20
549.476
 11
110.179
 21
549.778
  0
LINE
  8
0
 10
110.179
 20
549.778
 11
110.687
 21
550.147
  0
LINE
  8
0
 10
110.687
 20
550.147
 11
111.145
 21
550.577
  0
LINE
  8
0
 10
111.145
 20
550.577
 11
111.545
 21
551.061
  0
LINE
  8
0
 10
111.545
 20
551.061
 11
111.882
 21
551.591
  0
LINE
  8
0
 10
111.882
 20
551.591
 11
112.149
 21
552.159
  0
LINE
  8
0
 10
112.149
 20
552.159
 11
112.343
 21
552.757
  0
LINE
  8
0
 10
112.343
 20
552.757
 11
112.461
 21
553.373
  0
LINE
  8
0
 10
112.461
 20
553.373
 11
112.5
 21
554
  0
LINE
  8
0
 10
112.5
 20
554
 11
112.5
 21
634
  0
LINE
  8
0
 10
112.5
 20
634
 11
112.461
 21
634.627
  0
LINE
  8
0
 10
112.461
 20
634.627
 11
112.343
 21
635.243
  0
LINE
  8
0
 10
112.343
 20
635.243
 11
112.149
 21
635.841
  0
LINE
  8
0
 10
112.149
 20
635.841
 11
111.882
 21
636.409
  0
LINE
  8
0
 10
111.882
 20
636.409
 11
111.545
 21
636.939
  0
LINE
  8
0
 10
111.545
 20
636.939
 11
111.145
 21
637.423
  0
LINE
  8
0
 10
111.145
 20
637.423
 11
110.687
 21
637.853
  0
LINE
  8
0
 10
110.687
 20
637.853
 11
110.179
 21
638.222
  0
LINE
  8
0
 10
110.179
 20
638.222
 11
109.629
 21
638.524
  0
LINE
  8
0
 10
109.629
 20
638.524
 11
109.045
 21
638.755
  0
LINE
  8
0
 10
109.045
 20
638.755
 11
108.437
 21
638.911
  0
LINE
  8
0
 10
108.437
 20
638.911
 11
107.814
 21
638.99
  0
LINE
  8
0
 10
107.814
 20
638.99
 11
-107.814
 21
638.99
  0
LINE
  8
0
 10
-107.814
 20
638.99
 11
-108.437
 21
638.911
  0
LINE
  8
0
 10
-108.437
 20
638.911
 11
-109.045
 21
638.755
  0
LINE
  8
0
 10
-109.045
 20
638.755
 11
-109.629
 21
638.524
  0
LINE
  8
0
 10
-109.629
 20
638.524
 11
-110.179
 21
638.222
  0
LINE
  8
0
 10
-110.179
 20
638.222
 11
-110.687
 21
637.853
  0
LINE
  8
0
 10
-110.687
 20
637.853
 11
-111.145
 21
637.423
  0
LINE
  8
0
 10
-111.145
 20
637.423
 11
-111.545
 21
636.939
  0
LINE
  8
0
 10
-111.545
 20
636.939
 11
-111.882
 21
636.409
  0
LINE
  8
0
 10
-111.882
 20
636.409
 11
-112.149
 21
635.841
  0
LINE
  8
0
 10
-112.149
 20
635.841
 11
-112.343
 21
635.243
  0
LINE
  8
0
 10
-112.343
 20
635.243
 11
-112.461
 21
634.627
  0
LINE
  8
0
 10
-112.461
 20
634.627
 11
-112.5
 21
634
  0
LINE
  8
0
 10
-112.5
 20
634
 11
-112.5
 21
554
  0
LINE
  8
0
 10
-112.5
 20
554
 11
-112.461
 21
553.373
  0
LINE
  8
0
 10
-112.461
 20
553.373
 11
-112.343
 21
552.757
  0
LINE
  8
0
 10
-112.343
 20
552.757
 11
-112.149
 21
552.159
  0
LINE
  8
0
 10
-112.149
 20
552.159
 11
-111.882
 21
551.591
  0
LINE
  8
0
 10
-111.882
 20
551.591
 11
-111.545
 21
551.061
  0
LINE
  8
0
 10
-111.545
 20
551.061
 11
-111.145
 21
550.577
  0
LINE
  8
0
 10
-111.145
 20
550.577
 11
-110.687
 21
550.147
  0
LINE
  8
0
 10
-110.687
 20
550.147
 11
-110.179
 21
549.778
  0
LINE
  8
0
 10
-110.179
 20
549.778
 11
-109.629
 21
549.476
  0
LINE
  8
0
 10
-109.629
 20
549.476
 11
-109.045
 21
549.245
  0
LINE
  8
0
 10
-109.045
 20
549.245
 11
-108.437
 21
549.089
  0
LINE
  8
0
 10
-108.437
 20
549.089
 11
-107.814
 21
549.01
  0
LINE
  8
0
 10
-107.814
 20
549.01
 11
107.814
 21
549.01
  0
LINE
  8
0
 10
107.814
 20
549.01
 11
108.437
 21
549.089
  0
LINE
  8
0
 10
-107.548
 20
549.509
 11
-108.14
 21
549.584
  0
LINE
  8
0
 10
-108.14
 20
549.584
 11
-108.718
 21
549.732
  0
LINE
  8
0
 10
-108.718
 20
549.732
 11
-109.272
 21
549.952
  0
LINE
  8
0
 10
-109.272
 20
549.952
 11
-109.795
 21
550.239
  0
LINE
  8
0
 10
-109.795
 20
550.239
 11
-110.278
 21
550.59
  0
LINE
  8
0
 10
-110.278
 20
550.59
 11
-110.713
 21
550.998
  0
LINE
  8
0
 10
-110.713
 20
550.998
 11
-111.093
 21
551.458
  0
LINE
  8
0
 10
-111.093
 20
551.458
 11
-111.412
 21
551.962
  0
LINE
  8
0
 10
-111.412
 20
551.962
 11
-111.666
 21
552.501
  0
LINE
  8
0
 10
-111.666
 20
552.501
 11
-111.851
 21
553.069
  0
LINE
  8
0
 10
-111.851
 20
553.069
 11
-111.963
 21
553.655
  0
LINE
  8
0
 10
-111.963
 20
553.655
 11
-112
 21
554.25
  0
LINE
  8
0
 10
-112
 20
554.25
 11
-112
 21
633.75
  0
LINE
  8
0
 10
-112
 20
633.75
 11
-111.963
 21
634.345
  0
LINE
  8
0
 10
-111.963
 20
634.345
 11
-111.851
 21
634.931
  0
LINE
  8
0
 10
-111.851
 20
634.931
 11
-111.666
 21
635.499
  0
LINE
  8
0
 10
-111.666
 20
635.499
 11
-111.412
 21
636.038
  0
LINE
  8
0
 10
-111.412
 20
636.038
 11
-111.093
 21
636.542
  0
LINE
  8
0
 10
-111.093
 20
636.542
 11
-110.713
 21
637.002
  0
LINE
  8
0
 10
-110.713
 20
637.002
 11
-110.278
 21
637.41
  0
LINE
  8
0
 10
-110.278
 20
637.41
 11
-109.795
 21
637.761
  0
LINE
  8
0
 10
-109.795
 20
637.761
 11
-109.272
 21
638.048
  0
LINE
  8
0
 10
-109.272
 20
638.048
 11
-108.718
 21
638.268
  0
LINE
  8
0
 10
-108.718
 20
638.268
 11
-108.14
 21
638.416
  0
LINE
  8
0
 10
-108.14
 20
638.416
 11
-107.548
 21
638.491
  0
LINE
  8
0
 10
-107.548
 20
638.491
 11
107.548
 21
638.491
  0
LINE
  8
0
 10
107.548
 20
638.491
 11
108.14
 21
638.416
  0
LINE
  8
0
 10
108.14
 20
638.416
 11
108.718
 21
638.268
  0
LINE
  8
0
 10
108.718
 20
638.268
 11
109.272
 21
638.048
  0
LINE
  8
0
 10
109.272
 20
638.048
 11
109.795
 21
637.761
  0
LINE
  8
0
 10
109.795
 20
637.761
 11
110.278
 21
637.41
  0
LINE
  8
0
 10
110.278
 20
637.41
 11
110.713
 21
637.002
  0
LINE
  8
0
 10
110.713
 20
637.002
 11
111.093
 21
636.542
  0
LINE
  8
0
 10
111.093
 20
636.542
 11
111.412
 21
636.038
  0
LINE
  8
0
 10
111.412
 20
636.038
 11
111.666
 21
635.499
  0
LINE
  8
0
 10
111.666
 20
635.499
 11
111.851
 21
634.931
  0
LINE
  8
0
 10
111.851
 20
634.931
 11
111.963
 21
634.345
  0
LINE
  8
0
 10
111.963
 20
634.345
 11
112
 21
633.75
  0
LINE
  8
0
 10
112
 20
633.75
 11
112
 21
554.25
  0
LINE
  8
0
 10
112
 20
554.25
 11
111.963
 21
553.655
  0
LINE
  8
0
 10
111.963
 20
553.655
 11
111.851
 21
553.069
  0
LINE
  8
0
 10
111.851
 20
553.069
 11
111.666
 21
552.501
  0
LINE
  8
0
 10
111.666
 20
552.501
 11
111.412
 21
551.962
  0
LINE
  8
0
 10
111.412
 20
551.962
 11
111.093
 21
551.458
  0
LINE
  8
0
 10
111.093
 20
551.458
 11
110.713
 21
550.998
  0
LINE
  8
0
 10
110.713
 20
550.998
 11
110.278
 21
550.59
  0
LINE
  8
0
 10
110.278
 20
550.59
 11
109.795
 21
550.239
  0
LINE
  8
0
 10
109.795
 20
550.239
 11
109.272
 21
549.952
  0
LINE
  8
0
 10
109.272
 20
549.952
 11
108.718
 21
549.732
  0
LINE
  8
0
 10
108.718
 20
549.732
 11
108.14
 21
549.584
  0
LINE
  8
0
 10
108.14
 20
549.584
 11
107.548
 21
549.509
  0
LINE
  8
0
 10
107.548
 20
549.509
 11
-107.548
 21
549.509
  0
LINE
  8
0
 10
108.437
 20
450.089
 11
109.045
 21
450.245
  0
LINE
  8
0
 10
109.045
 20
450.245
 11
109.629
 21
450.476
  0
LINE
  8
0
 10
109.629
 20
450.476
 11
110.179
 21
450.778
  0
LINE
  8
0
 10
110.179
 20
450.778
 11
110.687
 21
451.147
  0
LINE
  8
0
 10
110.687
 20
451.147
 11
111.145
 21
451.577
  0
LINE
  8
0
 10
111.145
 20
451.577
 11
111.545
 21
452.061
  0
LINE
  8
0
 10
111.545
 20
452.061
 11
111.882
 21
452.591
  0
LINE
  8
0
 10
111.882
 20
452.591
 11
112.149
 21
453.159
  0
LINE
  8
0
 10
112.149
 20
453.159
 11
112.343
 21
453.757
  0
LINE
  8
0
 10
112.343
 20
453.757
 11
112.461
 21
454.373
  0
LINE
  8
0
 10
112.461
 20
454.373
 11
112.5
 21
455
  0
LINE
  8
0
 10
112.5
 20
455
 11
112.5
 21
535
  0
LINE
  8
0
 10
112.5
 20
535
 11
112.461
 21
535.627
  0
LINE
  8
0
 10
112.461
 20
535.627
 11
112.343
 21
536.243
  0
LINE
  8
0
 10
112.343
 20
536.243
 11
112.149
 21
536.841
  0
LINE
  8
0
 10
112.149
 20
536.841
 11
111.882
 21
537.409
  0
LINE
  8
0
 10
111.882
 20
537.409
 11
111.545
 21
537.939
  0
LINE
  8
0
 10
111.545
 20
537.939
 11
111.145
 21
538.423
  0
LINE
  8
0
 10
111.145
 20
538.423
 11
110.687
 21
538.853
  0
LINE
  8
0
 10
110.687
 20
538.853
 11
110.179
 21
539.222
  0
LINE
  8
0
 10
110.179
 20
539.222
 11
109.629
 21
539.524
  0
LINE
  8
0
 10
109.629
 20
539.524
 11
109.045
 21
539.755
  0
LINE
  8
0
 10
109.045
 20
539.755
 11
108.437
 21
539.911
  0
LINE
  8
0
 10
108.437
 20
539.911
 11
107.814
 21
539.99
  0
LINE
  8
0
 10
107.814
 20
539.99
 11
-107.814
 21
539.99
  0
LINE
  8
0
 10
-107.814
 20
539.99
 11
-108.437
 21
539.911
  0
LINE
  8
0
 10
-108.437
 20
539.911
 11
-109.045
 21
539.755
  0
LINE
  8
0
 10
-109.045
 20
539.755
 11
-109.629
 21
539.524
  0
LINE
  8
0
 10
-109.629
 20
539.524
 11
-110.179
 21
539.222
  0
LINE
  8
0
 10
-110.179
 20
539.222
 11
-110.687
 21
538.853
  0
LINE
  8
0
 10
-110.687
 20
538.853
 11
-111.145
 21
538.423
  0
LINE
  8
0
 10
-111.145
 20
538.423
 11
-111.545
 21
537.939
  0
LINE
  8
0
 10
-111.545
 20
537.939
 11
-111.882
 21
537.409
  0
LINE
  8
0
 10
-111.882
 20
537.409
 11
-112.149
 21
536.841
  0
LINE
  8
0
 10
-112.149
 20
536.841
 11
-112.343
 21
536.243
  0
LINE
  8
0
 10
-112.343
 20
536.243
 11
-112.461
 21
535.627
  0
LINE
  8
0
 10
-112.461
 20
535.627
 11
-112.5
 21
535
  0
LINE
  8
0
 10
-112.5
 20
535
 11
-112.5
 21
455
  0
LINE
  8
0
 10
-112.5
 20
455
 11
-112.461
 21
454.373
  0
LINE
  8
0
 10
-112.461
 20
454.373
 11
-112.343
 21
453.757
  0
LINE
  8
0
 10
-112.343
 20
453.757
 11
-112.149
 21
453.159
  0
LINE
  8
0
 10
-112.149
 20
453.159
 11
-111.882
 21
452.591
  0
LINE
  8
0
 10
-111.882
 20
452.591
 11
-111.545
 21
452.061
  0
LINE
  8
0
 10
-111.545
 20
452.061
 11
-111.145
 21
451.577
  0
LINE
  8
0
 10
-111.145
 20
451.577
 11
-110.687
 21
451.147
  0
LINE
  8
0
 10
-110.687
 20
451.147
 11
-110.179
 21
450.778
  0
LINE
  8
0
 10
-110.179
 20
450.778
 11
-109.629
 21
450.476
  0
LINE
  8
0
 10
-109.629
 20
450.476
 11
-109.045
 21
450.245
  0
LINE
  8
0
 10
-109.045
 20
450.245
 11
-108.437
 21
450.089
  0
LINE
  8
0
 10
-108.437
 20
450.089
 11
-107.814
 21
450.01
  0
LINE
  8
0
 10
-107.814
 20
450.01
 11
107.814
 21
450.01
  0
LINE
  8
0
 10
107.814
 20
450.01
 11
108.437
 21
450.089
  0
LINE
  8
0
 10
-107.548
 20
450.509
 11
-108.14
 21
450.584
  0
LINE
  8
0
 10
-108.14
 20
450.584
 11
-108.718
 21
450.732
  0
LINE
  8
0
 10
-108.718
 20
450.732
 11
-109.272
 21
450.952
  0
LINE
  8
0
 10
-109.272
 20
450.952
 11
-109.795
 21
451.239
  0
LINE
  8
0
 10
-109.795
 20
451.239
 11
-110.278
 21
451.59
  0
LINE
  8
0
 10
-110.278
 20
451.59
 11
-110.713
 21
451.998
  0
LINE
  8
0
 10
-110.713
 20
451.998
 11
-111.093
 21
452.458
  0
LINE
  8
0
 10
-111.093
 20
452.458
 11
-111.412
 21
452.962
  0
LINE
  8
0
 10
-111.412
 20
452.962
 11
-111.666
 21
453.501
  0
LINE
  8
0
 10
-111.666
 20
453.501
 11
-111.851
 21
454.069
  0
LINE
  8
0
 10
-111.851
 20
454.069
 11
-111.963
 21
454.655
  0
LINE
  8
0
 10
-111.963
 20
454.655
 11
-112
 21
455.25
  0
LINE
  8
0
 10
-112
 20
455.25
 11
-112
 21
534.75
  0
LINE
  8
0
 10
-112
 20
534.75
 11
-111.963
 21
535.345
  0
LINE
  8
0
 10
-111.963
 20
535.345
 11
-111.851
 21
535.931
  0
LINE
  8
0
 10
-111.851
 20
535.931
 11
-111.666
 21
536.499
  0
LINE
  8
0
 10
-111.666
 20
536.499
 11
-111.412
 21
537.038
  0
LINE
  8
0
 10
-111.412
 20
537.038
 11
-111.093
 21
537.542
  0
LINE
  8
0
 10
-111.093
 20
537.542
 11
-110.713
 21
538.002
  0
LINE
  8
0
 10
-110.713
 20
538.002
 11
-110.278
 21
538.41
  0
LINE
  8
0
 10
-110.278
 20
538.41
 11
-109.795
 21
538.761
  0
LINE
  8
0
 10
-109.795
 20
538.761
 11
-109.272
 21
539.048
  0
LINE
  8
0
 10
-109.272
 20
539.048
 11
-108.718
 21
539.268
  0
LINE
  8
0
 10
-108.718
 20
539.268
 11
-108.14
 21
539.416
  0
LINE
  8
0
 10
-108.14
 20
539.416
 11
-107.548
 21
539.491
  0
LINE
  8
0
 10
-107.548
 20
539.491
 11
107.548
 21
539.491
  0
LINE
  8
0
 10
107.548
 20
539.491
 11
108.14
 21
539.416
  0
LINE
  8
0
 10
108.14
 20
539.416
 11
108.718
 21
539.268
  0
LINE
  8
0
 10
108.718
 20
539.268
 11
109.272
 21
539.048
  0
LINE
  8
0
 10
109.272
 20
539.048
 11
109.795
 21
538.761
  0
LINE
  8
0
 10
109.795
 20
538.761
 11
110.278
 21
538.41
  0
LINE
  8
0
 10
110.278
 20
538.41
 11
110.713
 21
538.002
  0
LINE
  8
0
 10
110.713
 20
538.002
 11
111.093
 21
537.542
  0
LINE
  8
0
 10
111.093
 20
537.542
 11
111.412
 21
537.038
  0
LINE
  8
0
 10
111.412
 20
537.038
 11
111.666
 21
536.499
  0
LINE
  8
0
 10
111.666
 20
536.499
 11
111.851
 21
535.931
  0
LINE
  8
0
 10
111.851
 20
535.931
 11
111.963
 21
535.345
  0
LINE
  8
0
 10
111.963
 20
535.345
 11
112
 21
534.75
  0
LINE
  8
0
 10
112
 20
534.75
 11
112
 21
455.25
  0
LINE
  8
0
 10
112
 20
455.25
 11
111.963
 21
454.655
  0
LINE
  8
0
 10
111.963
 20
454.655
 11
111.851
 21
454.069
  0
LINE
  8
0
 10
111.851
 20
454.069
 11
111.666
 21
453.501
  0
LINE
  8
0
 10
111.666
 20
453.501
 11
111.412
 21
452.962
  0
LINE
  8
0
 10
111.412
 20
452.962
 11
111.093
 21
452.458
  0
LINE
  8
0
 10
111.093
 20
452.458
 11
110.713
 21
451.998
  0
LINE
  8
0
 10
110.713
 20
451.998
 11
110.278
 21
451.59
  0
LINE
  8
0
 10
110.278
 20
451.59
 11
109.795
 21
451.239
  0
LINE
  8
0
 10
109.795
 20
451.239
 11
109.272
 21
450.952
  0
LINE
  8
0
 10
109.272
 20
450.952
 11
108.718
 21
450.732
  0
LINE
  8
0
 10
108.718
 20
450.732
 11
108.14
 21
450.584
  0
LINE
  8
0
 10
108.14
 20
450.584
 11
107.548
 21
450.509
  0
LINE
  8
0
 10
107.548
 20
450.509
 11
-107.548
 21
450.509
  0
LINE
  8
0
 10
108.437
 20
351.089
 11
109.045
 21
351.245
  0
LINE
  8
0
 10
109.045
 20
351.245
 11
109.629
 21
351.476
  0
LINE
  8
0
 10
109.629
 20
351.476
 11
110.179
 21
351.778
  0
LINE
  8
0
 10
110.179
 20
351.778
 11
110.687
 21
352.147
  0
LINE
  8
0
 10
110.687
 20
352.147
 11
111.145
 21
352.577
  0
LINE
  8
0
 10
111.145
 20
352.577
 11
111.545
 21
353.061
  0
LINE
  8
0
 10
111.545
 20
353.061
 11
111.882
 21
353.591
  0
LINE
  8
0
 10
111.882
 20
353.591
 11
112.149
 21
354.159
  0
LINE
  8
0
 10
112.149
 20
354.159
 11
112.343
 21
354.757
  0
LINE
  8
0
 10
112.343
 20
354.757
 11
112.461
 21
355.373
  0
LINE
  8
0
 10
112.461
 20
355.373
 11
112.5
 21
356
  0
LINE
  8
0
 10
112.5
 20
356
 11
112.5
 21
436
  0
LINE
  8
0
 10
112.5
 20
436
 11
112.461
 21
436.627
  0
LINE
  8
0
 10
112.461
 20
436.627
 11
112.343
 21
437.243
  0
LINE
  8
0
 10
112.343
 20
437.243
 11
112.149
 21
437.841
  0
LINE
  8
0
 10
112.149
 20
437.841
 11
111.882
 21
438.409
  0
LINE
  8
0
 10
111.882
 20
438.409
 11
111.545
 21
438.939
  0
LINE
  8
0
 10
111.545
 20
438.939
 11
111.145
 21
439.423
  0
LINE
  8
0
 10
111.145
 20
439.423
 11
110.687
 21
439.853
  0
LINE
  8
0
 10
110.687
 20
439.853
 11
110.179
 21
440.222
  0
LINE
  8
0
 10
110.179
 20
440.222
 11
109.629
 21
440.524
  0
LINE
  8
0
 10
109.629
 20
440.524
 11
109.045
 21
440.755
  0
LINE
  8
0
 10
109.045
 20
440.755
 11
108.437
 21
440.911
  0
LINE
  8
0
 10
108.437
 20
440.911
 11
107.814
 21
440.99
  0
LINE
  8
0
 10
107.814
 20
440.99
 11
-107.814
 21
440.99
  0
LINE
  8
0
 10
-107.814
 20
440.99
 11
-108.437
 21
440.911
  0
LINE
  8
0
 10
-108.437
 20
440.911
 11
-109.045
 21
440.755
  0
LINE
  8
0
 10
-109.045
 20
440.755
 11
-109.629
 21
440.524
  0
LINE
  8
0
 10
-109.629
 20
440.524
 11
-110.179
 21
440.222
  0
LINE
  8
0
 10
-110.179
 20
440.222
 11
-110.687
 21
439.853
  0
LINE
  8
0
 10
-110.687
 20
439.853
 11
-111.145
 21
439.423
  0
LINE
  8
0
 10
-111.145
 20
439.423
 11
-111.545
 21
438.939
  0
LINE
  8
0
 10
-111.545
 20
438.939
 11
-111.882
 21
438.409
  0
LINE
  8
0
 10
-111.882
 20
438.409
 11
-112.149
 21
437.841
  0
LINE
  8
0
 10
-112.149
 20
437.841
 11
-112.343
 21
437.243
  0
LINE
  8
0
 10
-112.343
 20
437.243
 11
-112.461
 21
436.627
  0
LINE
  8
0
 10
-112.461
 20
436.627
 11
-112.5
 21
436
  0
LINE
  8
0
 10
-112.5
 20
436
 11
-112.5
 21
356
  0
LINE
  8
0
 10
-112.5
 20
356
 11
-112.461
 21
355.373
  0
LINE
  8
0
 10
-112.461
 20
355.373
 11
-112.343
 21
354.757
  0
LINE
  8
0
 10
-112.343
 20
354.757
 11
-112.149
 21
354.159
  0
LINE
  8
0
 10
-112.149
 20
354.159
 11
-111.882
 21
353.591
  0
LINE
  8
0
 10
-111.882
 20
353.591
 11
-111.545
 21
353.061
  0
LINE
  8
0
 10
-111.545
 20
353.061
 11
-111.145
 21
352.577
  0
LINE
  8
0
 10
-111.145
 20
352.577
 11
-110.687
 21
352.147
  0
LINE
  8
0
 10
-110.687
 20
352.147
 11
-110.179
 21
351.778
  0
LINE
  8
0
 10
-110.179
 20
351.778
 11
-109.629
 21
351.476
  0
LINE
  8
0
 10
-109.629
 20
351.476
 11
-109.045
 21
351.245
  0
LINE
  8
0
 10
-109.045
 20
351.245
 11
-108.437
 21
351.089
  0
LINE
  8
0
 10
-108.437
 20
351.089
 11
-107.814
 21
351.01
  0
LINE
  8
0
 10
-107.814
 20
351.01
 11
107.814
 21
351.01
  0
LINE
  8
0
 10
107.814
 20
351.01
 11
108.437
 21
351.089
  0
LINE
  8
0
 10
-107.493
 20
352.388
 11
-107.975
 21
352.449
  0
LINE
  8
0
 10
-107.975
 20
352.449
 11
-108.446
 21
352.57
  0
LINE
  8
0
 10
-108.446
 20
352.57
 11
-108.898
 21
352.749
  0
LINE
  8
0
 10
-108.898
 20
352.749
 11
-109.323
 21
352.983
  0
LINE
  8
0
 10
-109.323
 20
352.983
 11
-109.716
 21
353.269
  0
LINE
  8
0
 10
-109.716
 20
353.269
 11
-110.071
 21
353.601
  0
LINE
  8
0
 10
-110.071
 20
353.601
 11
-110.38
 21
353.976
  0
LINE
  8
0
 10
-110.38
 20
353.976
 11
-110.641
 21
354.386
  0
LINE
  8
0
 10
-110.641
 20
354.386
 11
-110.848
 21
354.826
  0
LINE
  8
0
 10
-110.848
 20
354.826
 11
-110.998
 21
355.288
  0
LINE
  8
0
 10
-110.998
 20
355.288
 11
-111.089
 21
355.765
  0
LINE
  8
0
 10
-111.089
 20
355.765
 11
-111.119
 21
356.25
  0
LINE
  8
0
 10
-111.119
 20
356.25
 11
-111.119
 21
435.75
  0
LINE
  8
0
 10
-111.119
 20
435.75
 11
-111.089
 21
436.235
  0
LINE
  8
0
 10
-111.089
 20
436.235
 11
-110.998
 21
436.712
  0
LINE
  8
0
 10
-110.998
 20
436.712
 11
-110.848
 21
437.174
  0
LINE
  8
0
 10
-110.848
 20
437.174
 11
-110.641
 21
437.614
  0
LINE
  8
0
 10
-110.641
 20
437.614
 11
-110.38
 21
438.024
  0
LINE
  8
0
 10
-110.38
 20
438.024
 11
-110.071
 21
438.399
  0
LINE
  8
0
 10
-110.071
 20
438.399
 11
-109.716
 21
438.731
  0
LINE
  8
0
 10
-109.716
 20
438.731
 11
-109.323
 21
439.017
  0
LINE
  8
0
 10
-109.323
 20
439.017
 11
-108.898
 21
439.251
  0
LINE
  8
0
 10
-108.898
 20
439.251
 11
-108.446
 21
439.43
  0
LINE
  8
0
 10
-108.446
 20
439.43
 11
-107.975
 21
439.551
  0
LINE
  8
0
 10
-107.975
 20
439.551
 11
-107.493
 21
439.612
  0
LINE
  8
0
 10
-107.493
 20
439.612
 11
107.493
 21
439.612
  0
LINE
  8
0
 10
107.493
 20
439.612
 11
107.975
 21
439.551
  0
LINE
  8
0
 10
107.975
 20
439.551
 11
108.446
 21
439.43
  0
LINE
  8
0
 10
108.446
 20
439.43
 11
108.898
 21
439.251
  0
LINE
  8
0
 10
108.898
 20
439.251
 11
109.323
 21
439.017
  0
LINE
  8
0
 10
109.323
 20
439.017
 11
109.716
 21
438.731
  0
LINE
  8
0
 10
109.716
 20
438.731
 11
110.071
 21
438.399
  0
LINE
  8
0
 10
110.071
 20
438.399
 11
110.38
 21
438.024
  0
LINE
  8
0
 10
110.38
 20
438.024
 11
110.641
 21
437.614
  0
LINE
  8
0
 10
110.641
 20
437.614
 11
110.848
 21
437.174
  0
LINE
  8
0
 10
110.848
 20
437.174
 11
110.998
 21
436.712
  0
LINE
  8
0
 10
110.998
 20
436.712
 11
111.089
 21
436.235
  0
LINE
  8
0
 10
111.089
 20
436.235
 11
111.119
 21
435.75
  0
LINE
  8
0
 10
111.119
 20
435.75
 11
111.119
 21
356.25
  0
LINE
  8
0
 10
111.119
 20
356.25
 11
111.089
 21
355.765
  0
LINE
  8
0
 10
111.089
 20
355.765
 11
110.998
 21
355.288
  0
LINE
  8
0
 10
110.998
 20
355.288
 11
110.848
 21
354.826
  0
LINE
  8
0
 10
110.848
 20
354.826
 11
110.641
 21
354.386
  0
LINE
  8
0
 10
110.641
 20
354.386
 11
110.38
 21
353.976
  0
LINE
  8
0
 10
110.38
 20
353.976
 11
110.071
 21
353.601
  0
LINE
  8
0
 10
110.071
 20
353.601
 11
109.716
 21
353.269
  0
LINE
  8
0
 10
109.716
 20
353.269
 11
109.323
 21
352.983
  0
LINE
  8
0
 10
109.323
 20
352.983
 11
108.898
 21
352.749
  0
LINE
  8
0
 10
108.898
 20
352.749
 11
108.446
 21
352.57
  0
LINE
  8
0
 10
108.446
 20
352.57
 11
107.975
 21
352.449
  0
LINE
  8
0
 10
107.975
 20
352.449
 11
107.493
 21
352.388
  0
LINE
  8
0
 10
107.493
 20
352.388
 11
-107.493
 21
352.388
  0
LINE
  8
0
 10
108.437
 20
252.089
 11
109.045
 21
252.245
  0
LINE
  8
0
 10
109.045
 20
252.245
 11
109.629
 21
252.476
  0
LINE
  8
0
 10
109.629
 20
252.476
 11
110.179
 21
252.778
  0
LINE
  8
0
 10
110.179
 20
252.778
 11
110.687
 21
253.147
  0
LINE
  8
0
 10
110.687
 20
253.147
 11
111.145
 21
253.577
  0
LINE
  8
0
 10
111.145
 20
253.577
 11
111.545
 21
254.061
  0
LINE
  8
0
 10
111.545
 20
254.061
 11
111.882
 21
254.591
  0
LINE
  8
0
 10
111.882
 20
254.591
 11
112.149
 21
255.159
  0
LINE
  8
0
 10
112.149
 20
255.159
 11
112.343
 21
255.757
  0
LINE
  8
0
 10
112.343
 20
255.757
 11
112.461
 21
256.373
  0
LINE
  8
0
 10
112.461
 20
256.373
 11
112.5
 21
257
  0
LINE
  8
0
 10
112.5
 20
257
 11
112.5
 21
337
  0
LINE
  8
0
 10
112.5
 20
337
 11
112.461
 21
337.627
  0
LINE
  8
0
 10
112.461
 20
337.627
 11
112.343
 21
338.243
  0
LINE
  8
0
 10
112.343
 20
338.243
 11
112.149
 21
338.841
  0
LINE
  8
0
 10
112.149
 20
338.841
 11
111.882
 21
339.409
  0
LINE
  8
0
 10
111.882
 20
339.409
 11
111.545
 21
339.939
  0
LINE
  8
0
 10
111.545
 20
339.939
 11
111.145
 21
340.423
  0
LINE
  8
0
 10
111.145
 20
340.423
 11
110.687
 21
340.853
  0
LINE
  8
0
 10
110.687
 20
340.853
 11
110.179
 21
341.222
  0
LINE
  8
0
 10
110.179
 20
341.222
 11
109.629
 21
341.524
  0
LINE
  8
0
 10
109.629
 20
341.524
 11
109.045
 21
341.755
  0
LINE
  8
0
 10
109.045
 20
341.755
 11
108.437
 21
341.911
  0
LINE
  8
0
 10
108.437
 20
341.911
 11
107.814
 21
341.99
  0
LINE
  8
0
 10
107.814
 20
341.99
 11
-107.814
 21
341.99
  0
LINE
  8
0
 10
-107.814
 20
341.99
 11
-108.437
 21
341.911
  0
LINE
  8
0
 10
-108.437
 20
341.911
 11
-109.045
 21
341.755
  0
LINE
  8
0
 10
-109.045
 20
341.755
 11
-109.629
 21
341.524
  0
LINE
  8
0
 10
-109.629
 20
341.524
 11
-110.179
 21
341.222
  0
LINE
  8
0
 10
-110.179
 20
341.222
 11
-110.687
 21
340.853
  0
LINE
  8
0
 10
-110.687
 20
340.853
 11
-111.145
 21
340.423
  0
LINE
  8
0
 10
-111.145
 20
340.423
 11
-111.545
 21
339.939
  0
LINE
  8
0
 10
-111.545
 20
339.939
 11
-111.882
 21
339.409
  0
LINE
  8
0
 10
-111.882
 20
339.409
 11
-112.149
 21
338.841
  0
LINE
  8
0
 10
-112.149
 20
338.841
 11
-112.343
 21
338.243
  0
LINE
  8
0
 10
-112.343
 20
338.243
 11
-112.461
 21
337.627
  0
LINE
  8
0
 10
-112.461
 20
337.627
 11
-112.5
 21
337
  0
LINE
  8
0
 10
-112.5
 20
337
 11
-112.5
 21
257
  0
LINE
  8
0
 10
-112.5
 20
257
 11
-112.461
 21
256.373
  0
LINE
  8
0
 10
-112.461
 20
256.373
 11
-112.343
 21
255.757
  0
LINE
  8
0
 10
-112.343
 20
255.757
 11
-112.149
 21
255.159
  0
LINE
  8
0
 10
-112.149
 20
255.159
 11
-111.882
 21
254.591
  0
LINE
  8
0
 10
-111.882
 20
254.591
 11
-111.545
 21
254.061
  0
LINE
  8
0
 10
-111.545
 20
254.061
 11
-111.145
 21
253.577
  0
LINE
  8
0
 10
-111.145
 20
253.577
 11
-110.687
 21
253.147
  0
LINE
  8
0
 10
-110.687
 20
253.147
 11
-110.179
 21
252.778
  0
LINE
  8
0
 10
-110.179
 20
252.778
 11
-109.629
 21
252.476
  0
LINE
  8
0
 10
-109.629
 20
252.476
 11
-109.045
 21
252.245
  0
LINE
  8
0
 10
-109.045
 20
252.245
 11
-108.437
 21
252.089
  0
LINE
  8
0
 10
-108.437
 20
252.089
 11
-107.814
 21
252.01
  0
LINE
  8
0
 10
-107.814
 20
252.01
 11
107.814
 21
252.01
  0
LINE
  8
0
 10
107.814
 20
252.01
 11
108.437
 21
252.089
  0
LINE
  8
0
 10
104.887
 20
332.704
 11
104.663
 21
332.732
  0
LINE
  8
0
 10
104.663
 20
332.732
 11
104.444
 21
332.788
  0
LINE
  8
0
 10
104.444
 20
332.788
 11
104.234
 21
332.871
  0
LINE
  8
0
 10
104.234
 20
332.871
 11
104.036
 21
332.98
  0
LINE
  8
0
 10
104.036
 20
332.98
 11
103.853
 21
333.113
  0
LINE
  8
0
 10
103.853
 20
333.113
 11
103.688
 21
333.268
  0
LINE
  8
0
 10
103.688
 20
333.268
 11
103.544
 21
333.442
  0
LINE
  8
0
 10
103.544
 20
333.442
 11
103.423
 21
333.633
  0
LINE
  8
0
 10
103.423
 20
333.633
 11
103.326
 21
333.837
  0
LINE
  8
0
 10
103.326
 20
333.837
 11
103.257
 21
334.052
  0
LINE
  8
0
 10
103.257
 20
334.052
 11
103.214
 21
334.274
  0
LINE
  8
0
 10
103.214
 20
334.274
 11
103.2
 21
334.5
  0
LINE
  8
0
 10
103.2
 20
334.5
 11
103.214
 21
334.726
  0
LINE
  8
0
 10
103.214
 20
334.726
 11
103.257
 21
334.948
  0
LINE
  8
0
 10
103.257
 20
334.948
 11
103.326
 21
335.163
  0
LINE
  8
0
 10
103.326
 20
335.163
 11
103.423
 21
335.367
  0
LINE
  8
0
 10
103.423
 20
335.367
 11
103.544
 21
335.558
  0
LINE
  8
0
 10
103.544
 20
335.558
 11
103.688
 21
335.732
  0
LINE
  8
0
 10
103.688
 20
335.732
 11
103.853
 21
335.887
  0
LINE
  8
0
 10
103.853
 20
335.887
 11
104.036
 21
336.02
  0
LINE
  8
0
 10
104.036
 20
336.02
 11
104.234
 21
336.129
  0
LINE
  8
0
 10
104.234
 20
336.129
 11
104.444
 21
336.212
  0
LINE
  8
0
 10
104.444
 20
336.212
 11
104.663
 21
336.268
  0
LINE
  8
0
 10
104.663
 20
336.268
 11
104.887
 21
336.296
  0
LINE
  8
0
 10
104.887
 20
336.296
 11
105.113
 21
336.296
  0
LINE
  8
0
 10
105.113
 20
336.296
 11
105.337
 21
336.268
  0
LINE
  8
0
 10
105.337
 20
336.268
 11
105.556
 21
336.212
  0
LINE
  8
0
 10
105.556
 20
336.212
 11
105.766
 21
336.129
  0
LINE
  8
0
 10
105.766
 20
336.129
 11
105.964
 21
336.02
  0
LINE
  8
0
 10
105.964
 20
336.02
 11
106.147
 21
335.887
  0
LINE
  8
0
 10
106.147
 20
335.887
 11
106.312
 21
335.732
  0
LINE
  8
0
 10
106.312
 20
335.732
 11
106.456
 21
335.558
  0
LINE
  8
0
 10
106.456
 20
335.558
 11
106.577
 21
335.367
  0
LINE
  8
0
 10
106.577
 20
335.367
 11
106.674
 21
335.163
  0
LINE
  8
0
 10
106.674
 20
335.163
 11
106.743
 21
334.948
  0
LINE
  8
0
 10
106.743
 20
334.948
 11
106.786
 21
334.726
  0
LINE
  8
0
 10
106.786
 20
334.726
 11
106.8
 21
334.5
  0
LINE
  8
0
 10
106.8
 20
334.5
 11
106.786
 21
334.274
  0
LINE
  8
0
 10
106.786
 20
334.274
 11
106.743
 21
334.052
  0
LINE
  8
0
 10
106.743
 20
334.052
 11
106.674
 21
333.837
  0
LINE
  8
0
 10
106.674
 20
333.837
 11
106.577
 21
333.633
  0
LINE
  8
0
 10
106.577
 20
333.633
 11
106.456
 21
333.442
  0
LINE
  8
0
 10
106.456
 20
333.442
 11
106.312
 21
333.268
  0
LINE
  8
0
 10
106.312
 20
333.268
 11
106.147
 21
333.113
  0
LINE
  8
0
 10
106.147
 20
333.113
 11
105.964
 21
332.98
  0
LINE
  8
0
 10
105.964
 20
332.98
 11
105.766
 21
332.871
  0
LINE
  8
0
 10
105.766
 20
332.871
 11
105.556
 21
332.788
  0
LINE
  8
0
 10
105.556
 20
332.788
 11
105.337
 21
332.732
  0
LINE
  8
0
 10
105.337
 20
332.732
 11
105.113
 21
332.704
  0
LINE
  8
0
 10
105.113
 20
332.704
 11
104.887
 21
332.704
  0
LINE
  8
0
 10
-105.113
 20
332.704
 11
-105.337
 21
332.732
  0
LINE
  8
0
 10
-105.337
 20
332.732
 11
-105.556
 21
332.788
  0
LINE
  8
0
 10
-105.556
 20
332.788
 11
-105.766
 21
332.871
  0
LINE
  8
0
 10
-105.766
 20
332.871
 11
-105.964
 21
332.98
  0
LINE
  8
0
 10
-105.964
 20
332.98
 11
-106.147
 21
333.113
  0
LINE
  8
0
 10
-106.147
 20
333.113
 11
-106.312
 21
333.268
  0
LINE
  8
0
 10
-106.312
 20
333.268
 11
-106.456
 21
333.442
  0
LINE
  8
0
 10
-106.456
 20
333.442
 11
-106.577
 21
333.633
  0
LINE
  8
0
 10
-106.577
 20
333.633
 11
-106.674
 21
333.837
  0
LINE
  8
0
 10
-106.674
 20
333.837
 11
-106.743
 21
334.052
  0
LINE
  8
0
 10
-106.743
 20
334.052
 11
-106.786
 21
334.274
  0
LINE
  8
0
 10
-106.786
 20
334.274
 11
-106.8
 21
334.5
  0
LINE
  8
0
 10
-106.8
 20
334.5
 11
-106.786
 21
334.726
  0
LINE
  8
0
 10
-106.786
 20
334.726
 11
-106.743
 21
334.948
  0
LINE
  8
0
 10
-106.743
 20
334.948
 11
-106.674
 21
335.163
  0
LINE
  8
0
 10
-106.674
 20
335.163
 11
-106.577
 21
335.367
  0
LINE
  8
0
 10
-106.577
 20
335.367
 11
-106.456
 21
335.558
  0
LINE
  8
0
 10
-106.456
 20
335.558
 11
-106.312
 21
335.732
  0
LINE
  8
0
 10
-106.312
 20
335.732
 11
-106.147
 21
335.887
  0
LINE
  8
0
 10
-106.147
 20
335.887
 11
-105.964
 21
336.02
  0
LINE
  8
0
 10
-105.964
 20
336.02
 11
-105.766
 21
336.129
  0
LINE
  8
0
 10
-105.766
 20
336.129
 11
-105.556
 21
336.212
  0
LINE
  8
0
 10
-105.556
 20
336.212
 11
-105.337
 21
336.268
  0
LINE
  8
0
 10
-105.337
 20
336.268
 11
-105.113
 21
336.296
  0
LINE
  8
0
 10
-105.113
 20
336.296
 11
-104.887
 21
336.296
  0
LINE
  8
0
 10
-104.887
 20
336.296
 11
-104.663
 21
336.268
  0
LINE
  8
0
 10
-104.663
 20
336.268
 11
-104.444
 21
336.212
  0
LINE
  8
0
 10
-104.444
 20
336.212
 11
-104.234
 21
336.129
  0
LINE
  8
0
 10
-104.234
 20
336.129
 11
-104.036
 21
336.02
  0
LINE
  8
0
 10
-104.036
 20
336.02
 11
-103.853
 21
335.887
  0
LINE
  8
0
 10
-103.853
 20
335.887
 11
-103.688
 21
335.732
  0
LINE
  8
0
 10
-103.688
 20
335.732
 11
-103.544
 21
335.558
  0
LINE
  8
0
 10
-103.544
 20
335.558
 11
-103.423
 21
335.367
  0
LINE
  8
0
 10
-103.423
 20
335.367
 11
-103.326
 21
335.163
  0
LINE
  8
0
 10
-103.326
 20
335.163
 11
-103.257
 21
334.948
  0
LINE
  8
0
 10
-103.257
 20
334.948
 11
-103.214
 21
334.726
  0
LINE
  8
0
 10
-103.214
 20
334.726
 11
-103.2
 21
334.5
  0
LINE
  8
0
 10
-103.2
 20
334.5
 11
-103.214
 21
334.274
  0
LINE
  8
0
 10
-103.214
 20
334.274
 11
-103.257
 21
334.052
  0
LINE
  8
0
 10
-103.257
 20
334.052
 11
-103.326
 21
333.837
  0
LINE
  8
0
 10
-103.326
 20
333.837
 11
-103.423
 21
333.633
  0
LINE
  8
0
 10
-103.423
 20
333.633
 11
-103.544
 21
333.442
  0
LINE
  8
0
 10
-103.544
 20
333.442
 11
-103.688
 21
333.268
  0
LINE
  8
0
 10
-103.688
 20
333.268
 11
-103.853
 21
333.113
  0
LINE
  8
0
 10
-103.853
 20
333.113
 11
-104.036
 21
332.98
  0
LINE
  8
0
 10
-104.036
 20
332.98
 11
-104.234
 21
332.871
  0
LINE
  8
0
 10
-104.234
 20
332.871
 11
-104.444
 21
332.788
  0
LINE
  8
0
 10
-104.444
 20
332.788
 11
-104.663
 21
332.732
  0
LINE
  8
0
 10
-104.663
 20
332.732
 11
-104.887
 21
332.704
  0
LINE
  8
0
 10
-104.887
 20
332.704
 11
-105.113
 21
332.704
  0
LINE
  8
0
 10
104.887
 20
257.704
 11
104.663
 21
257.732
  0
LINE
  8
0
 10
104.663
 20
257.732
 11
104.444
 21
257.788
  0
LINE
  8
0
 10
104.444
 20
257.788
 11
104.234
 21
257.871
  0
LINE
  8
0
 10
104.234
 20
257.871
 11
104.036
 21
257.98
  0
LINE
  8
0
 10
104.036
 20
257.98
 11
103.853
 21
258.113
  0
LINE
  8
0
 10
103.853
 20
258.113
 11
103.688
 21
258.268
  0
LINE
  8
0
 10
103.688
 20
258.268
 11
103.544
 21
258.442
  0
LINE
  8
0
 10
103.544
 20
258.442
 11
103.423
 21
258.633
  0
LINE
  8
0
 10
103.423
 20
258.633
 11
103.326
 21
258.837
  0
LINE
  8
0
 10
103.326
 20
258.837
 11
103.257
 21
259.052
  0
LINE
  8
0
 10
103.257
 20
259.052
 11
103.214
 21
259.274
  0
LINE
  8
0
 10
103.214
 20
259.274
 11
103.2
 21
259.5
  0
LINE
  8
0
 10
103.2
 20
259.5
 11
103.214
 21
259.726
  0
LINE
  8
0
 10
103.214
 20
259.726
 11
103.257
 21
259.948
  0
LINE
  8
0
 10
103.257
 20
259.948
 11
103.326
 21
260.163
  0
LINE
  8
0
 10
103.326
 20
260.163
 11
103.423
 21
260.367
  0
LINE
  8
0
 10
103.423
 20
260.367
 11
103.544
 21
260.558
  0
LINE
  8
0
 10
103.544
 20
260.558
 11
103.688
 21
260.732
  0
LINE
  8
0
 10
103.688
 20
260.732
 11
103.853
 21
260.887
  0
LINE
  8
0
 10
103.853
 20
260.887
 11
104.036
 21
261.02
  0
LINE
  8
0
 10
104.036
 20
261.02
 11
104.234
 21
261.129
  0
LINE
  8
0
 10
104.234
 20
261.129
 11
104.444
 21
261.212
  0
LINE
  8
0
 10
104.444
 20
261.212
 11
104.663
 21
261.268
  0
LINE
  8
0
 10
104.663
 20
261.268
 11
104.887
 21
261.296
  0
LINE
  8
0
 10
104.887
 20
261.296
 11
105.113
 21
261.296
  0
LINE
  8
0
 10
105.113
 20
261.296
 11
105.337
 21
261.268
  0
LINE
  8
0
 10
105.337
 20
261.268
 11
105.556
 21
261.212
  0
LINE
  8
0
 10
105.556
 20
261.212
 11
105.766
 21
261.129
  0
LINE
  8
0
 10
105.766
 20
261.129
 11
105.964
 21
261.02
  0
LINE
  8
0
 10
105.964
 20
261.02
 11
106.147
 21
260.887
  0
LINE
  8
0
 10
106.147
 20
260.887
 11
106.312
 21
260.732
  0
LINE
  8
0
 10
106.312
 20
260.732
 11
106.456
 21
260.558
  0
LINE
  8
0
 10
106.456
 20
260.558
 11
106.577
 21
260.367
  0
LINE
  8
0
 10
106.577
 20
260.367
 11
106.674
 21
260.163
  0
LINE
  8
0
 10
106.674
 20
260.163
 11
106.743
 21
259.948
  0
LINE
  8
0
 10
106.743
 20
259.948
 11
106.786
 21
259.726
  0
LINE
  8
0
 10
106.786
 20
259.726
 11
106.8
 21
259.5
  0
LINE
  8
0
 10
106.8
 20
259.5
 11
106.786
 21
259.274
  0
LINE
  8
0
 10
106.786
 20
259.274
 11
106.743
 21
259.052
  0
LINE
  8
0
 10
106.743
 20
259.052
 11
106.674
 21
258.837
  0
LINE
  8
0
 10
106.674
 20
258.837
 11
106.577
 21
258.633
  0
LINE
  8
0
 10
106.577
 20
258.633
 11
106.456
 21
258.442
  0
LINE
  8
0
 10
106.456
 20
258.442
 11
106.312
 21
258.268
  0
LINE
  8
0
 10
106.312
 20
258.268
 11
106.147
 21
258.113
  0
LINE
  8
0
 10
106.147
 20
258.113
 11
105.964
 21
257.98
  0
LINE
  8
0
 10
105.964
 20
257.98
 11
105.766
 21
257.871
  0
LINE
  8
0
 10
105.766
 20
257.871
 11
105.556
 21
257.788
  0
LINE
  8
0
 10
105.556
 20
257.788
 11
105.337
 21
257.732
  0
LINE
  8
0
 10
105.337
 20
257.732
 11
105.113
 21
257.704
  0
LINE
  8
0
 10
105.113
 20
257.704
 11
104.887
 21
257.704
  0
LINE
  8
0
 10
-105.113
 20
257.704
 11
-105.337
 21
257.732
  0
LINE
  8
0
 10
-105.337
 20
257.732
 11
-105.556
 21
257.788
  0
LINE
  8
0
 10
-105.556
 20
257.788
 11
-105.766
 21
257.871
  0
LINE
  8
0
 10
-105.766
 20
257.871
 11
-105.964
 21
257.98
  0
LINE
  8
0
 10
-105.964
 20
257.98
 11
-106.147
 21
258.113
  0
LINE
  8
0
 10
-106.147
 20
258.113
 11
-106.312
 21
258.268
  0
LINE
  8
0
 10
-106.312
 20
258.268
 11
-106.456
 21
258.442
  0
LINE
  8
0
 10
-106.456
 20
258.442
 11
-106.577
 21
258.633
  0
LINE
  8
0
 10
-106.577
 20
258.633
 11
-106.674
 21
258.837
  0
LINE
  8
0
 10
-106.674
 20
258.837
 11
-106.743
 21
259.052
  0
LINE
  8
0
 10
-106.743
 20
259.052
 11
-106.786
 21
259.274
  0
LINE
  8
0
 10
-106.786
 20
259.274
 11
-106.8
 21
259.5
  0
LINE
  8
0
 10
-106.8
 20
259.5
 11
-106.786
 21
259.726
  0
LINE
  8
0
 10
-106.786
 20
259.726
 11
-106.743
 21
259.948
  0
LINE
  8
0
 10
-106.743
 20
259.948
 11
-106.674
 21
260.163
  0
LINE
  8
0
 10
-106.674
 20
260.163
 11
-106.577
 21
260.367
  0
LINE
  8
0
 10
-106.577
 20
260.367
 11
-106.456
 21
260.558
  0
LINE
  8
0
 10
-106.456
 20
260.558
 11
-106.312
 21
260.732
  0
LINE
  8
0
 10
-106.312
 20
260.732
 11
-106.147
 21
260.887
  0
LINE
  8
0
 10
-106.147
 20
260.887
 11
-105.964
 21
261.02
  0
LINE
  8
0
 10
-105.964
 20
261.02
 11
-105.766
 21
261.129
  0
LINE
  8
0
 10
-105.766
 20
261.129
 11
-105.556
 21
261.212
  0
LINE
  8
0
 10
-105.556
 20
261.212
 11
-105.337
 21
261.268
  0
LINE
  8
0
 10
-105.337
 20
261.268
 11
-105.113
 21
261.296
  0
LINE
  8
0
 10
-105.113
 20
261.296
 11
-104.887
 21
261.296
  0
LINE
  8
0
 10
-104.887
 20
261.296
 11
-104.663
 21
261.268
  0
LINE
  8
0
 10
-104.663
 20
261.268
 11
-104.444
 21
261.212
  0
LINE
  8
0
 10
-104.444
 20
261.212
 11
-104.234
 21
261.129
  0
LINE
  8
0
 10
-104.234
 20
261.129
 11
-104.036
 21
261.02
  0
LINE
  8
0
 10
-104.036
 20
261.02
 11
-103.853
 21
260.887
  0
LINE
  8
0
 10
-103.853
 20
260.887
 11
-103.688
 21
260.732
  0
LINE
  8
0
 10
-103.688
 20
260.732
 11
-103.544
 21
260.558
  0
LINE
  8
0
 10
-103.544
 20
260.558
 11
-103.423
 21
260.367
  0
LINE
  8
0
 10
-103.423
 20
260.367
 11
-103.326
 21
260.163
  0
LINE
  8
0
 10
-103.326
 20
260.163
 11
-103.257
 21
259.948
  0
LINE
  8
0
 10
-103.257
 20
259.948
 11
-103.214
 21
259.726
  0
LINE
  8
0
 10
-103.214
 20
259.726
 11
-103.2
 21
259.5
  0
LINE
  8
0
 10
-103.2
 20
259.5
 11
-103.214
 21
259.274
  0
LINE
  8
0
 10
-103.214
 20
259.274
 11
-103.257
 21
259.052
  0
LINE
  8
0
 10
-103.257
 20
259.052
 11
-103.326
 21
258.837
  0
LINE
  8
0
 10
-103.326
 20
258.837
 11
-103.423
 21
258.633
  0
LINE
  8
0
 10
-103.423
 20
258.633
 11
-103.544
 21
258.442
  0
LINE
  8
0
 10
-103.544
 20
258.442
 11
-103.688
 21
258.268
  0
LINE
  8
0
 10
-103.688
 20
258.268
 11
-103.853
 21
258.113
  0
LINE
  8
0
 10
-103.853
 20
258.113
 11
-104.036
 21
257.98
  0
LINE
  8
0
 10
-104.036
 20
257.98
 11
-104.234
 21
257.871
  0
LINE
  8
0
 10
-104.234
 20
257.871
 11
-104.444
 21
257.788
  0
LINE
  8
0
 10
-104.444
 20
257.788
 11
-104.663
 21
257.732
  0
LINE
  8
0
 10
-104.663
 20
257.732
 11
-104.887
 21
257.704
  0
LINE
  8
0
 10
-104.887
 20
257.704
 11
-105.113
 21
257.704
  0
ENDSEC
  0
SECTION
  2
OBJECTS
  0
DICTIONARY
  0
ENDSEC
  0
EOF
