<?xml version="1.0" standalone="no"?>
<!DOCTYPE svg PUBLIC "-//W3C//DTD SVG 1.1//EN" "http://www.w3.org/Graphics/SVG/1.1/DTD/svg11.dtd">
<svg width="226mm" height="928mm" viewBox="-113 -1517 226 928" xmlns="http://www.w3.org/2000/svg" version="1.1">
<title>OpenSCAD Model</title>
<path d="
M 108.437,-1291.59 L 109.045,-1291.74 L 109.629,-1291.98 L 110.179,-1292.28 L 110.687,-1292.65 L 111.145,-1293.08
 L 111.545,-1293.56 L 111.882,-1294.09 L 112.149,-1294.66 L 112.343,-1295.26 L 112.461,-1295.87 L 112.5,-1296.5
 L 112.5,-1511.5 L 112.461,-1512.13 L 112.343,-1512.74 L 112.149,-1513.34 L 111.882,-1513.91 L 111.545,-1514.44
 L 111.145,-1514.92 L 110.687,-1515.35 L 110.179,-1515.72 L 109.629,-1516.02 L 109.045,-1516.26 L 108.437,-1516.41
 L 107.814,-1516.49 L -107.814,-1516.49 L -108.437,-1516.41 L -109.045,-1516.26 L -109.629,-1516.02 L -110.179,-1515.72
 L -110.687,-1515.35 L -111.145,-1514.92 L -111.545,-1514.44 L -111.882,-1513.91 L -112.149,-1513.34 L -112.343,-1512.74
 L -112.461,-1512.13 L -112.5,-1511.5 L -112.5,-1296.5 L -112.461,-1295.87 L -112.343,-1295.26 L -112.149,-1294.66
 L -111.882,-1294.09 L -111.545,-1293.56 L -111.145,-1293.08 L -110.687,-1292.65 L -110.179,-1292.28 L -109.629,-1291.98
 L -109.045,-1291.74 L -108.437,-1291.59 L -107.814,-1291.51 L 107.814,-1291.51 z
M -107.251,-1293.01 L -107.75,-1293.07 L -108.236,-1293.2 L -108.703,-1293.38 L -109.143,-1293.62 L -109.55,-1293.92
 L -109.916,-1294.26 L -110.236,-1294.65 L -110.505,-1295.07 L -110.719,-1295.53 L -110.874,-1296.01 L -110.968,-1296.5
 L -111,-1297 L -111,-1511 L -110.968,-1511.5 L -110.874,-1511.99 L -110.719,-1512.47 L -110.505,-1512.93
 L -110.236,-1513.35 L -109.916,-1513.74 L -109.55,-1514.08 L -109.143,-1514.38 L -108.703,-1514.62 L -108.236,-1514.8
 L -107.75,-1514.93 L -107.251,-1514.99 L 107.251,-1514.99 L 107.75,-1514.93 L 108.236,-1514.8 L 108.703,-1514.62
 L 109.143,-1514.38 L 109.55,-1514.08 L 109.916,-1513.74 L 110.236,-1513.35 L 110.505,-1512.93 L 110.719,-1512.47
 L 110.874,-1511.99 L 110.968,-1511.5 L 111,-1511 L 111,-1297 L 110.968,-1296.5 L 110.874,-1296.01
 L 110.719,-1295.53 L 110.505,-1295.07 L 110.236,-1294.65 L 109.916,-1294.26 L 109.55,-1293.92 L 109.143,-1293.62
 L 108.703,-1293.38 L 108.236,-1293.2 L 107.75,-1293.07 L 107.251,-1293.01 z
M 108.437,-1057.59 L 109.045,-1057.74 L 109.629,-1057.98 L 110.179,-1058.28 L 110.687,-1058.65 L 111.145,-1059.08
 L 111.545,-1059.56 L 111.882,-1060.09 L 112.149,-1060.66 L 112.343,-1061.26 L 112.461,-1061.87 L 112.5,-1062.5
 L 112.5,-1277.5 L 112.461,-1278.13 L 112.343,-1278.74 L 112.149,-1279.34 L 111.882,-1279.91 L 111.545,-1280.44
 L 111.145,-1280.92 L 110.687,-1281.35 L 110.179,-1281.72 L 109.629,-1282.02 L 109.045,-1282.26 L 108.437,-1282.41
 L 107.814,-1282.49 L -107.814,-1282.49 L -108.437,-1282.41 L -109.045,-1282.26 L -109.629,-1282.02 L -110.179,-1281.72
 L -110.687,-1281.35 L -111.145,-1280.92 L -111.545,-1280.44 L -111.882,-1279.91 L -112.149,-1279.34 L -112.343,-1278.74
 L -112.461,-1278.13 L -112.5,-1277.5 L -112.5,-1062.5 L -112.461,-1061.87 L -112.343,-1061.26 L -112.149,-1060.66
 L -111.882,-1060.09 L -111.545,-1059.56 L -111.145,-1059.08 L -110.687,-1058.65 L -110.179,-1058.28 L -109.629,-1057.98
 L -109.045,-1057.74 L -108.437,-1057.59 L -107.814,-1057.51 L 107.814,-1057.51 z
M -107.243,-1059.14 L -107.726,-1059.2 L -108.197,-1059.32 L -108.649,-1059.5 L -109.075,-1059.73 L -109.469,-1060.02
 L -109.823,-1060.35 L -110.133,-1060.72 L -110.394,-1061.13 L -110.601,-1061.57 L -110.751,-1062.04 L -110.842,-1062.51
 L -110.873,-1063 L -110.873,-1277 L -110.842,-1277.49 L -110.751,-1277.96 L -110.601,-1278.43 L -110.394,-1278.87
 L -110.133,-1279.28 L -109.823,-1279.65 L -109.469,-1279.98 L -109.075,-1280.27 L -108.649,-1280.5 L -108.197,-1280.68
 L -107.726,-1280.8 L -107.243,-1280.86 L 107.243,-1280.86 L 107.726,-1280.8 L 108.197,-1280.68 L 108.649,-1280.5
 L 109.075,-1280.27 L 109.469,-1279.98 L 109.823,-1279.65 L 110.133,-1279.28 L 110.394,-1278.87 L 110.601,-1278.43
 L 110.751,-1277.96 L 110.842,-1277.49 L 110.873,-1277 L 110.873,-1063 L 110.842,-1062.51 L 110.751,-1062.04
 L 110.601,-1061.57 L 110.394,-1061.13 L 110.133,-1060.72 L 109.823,-1060.35 L 109.469,-1060.02 L 109.075,-1059.73
 L 108.649,-1059.5 L 108.197,-1059.32 L 107.726,-1059.2 L 107.243,-1059.14 z
M 108.437,-823.589 L 109.045,-823.745 L 109.629,-823.976 L 110.179,-824.278 L 110.687,-824.647 L 111.145,-825.077
 L 111.545,-825.561 L 111.882,-826.091 L 112.149,-826.659 L 112.343,-827.257 L 112.461,-827.873 L 112.5,-828.5
 L 112.5,-1043.5 L 112.461,-1044.13 L 112.343,-1044.74 L 112.149,-1045.34 L 111.882,-1045.91 L 111.545,-1046.44
 L 111.145,-1046.92 L 110.687,-1047.35 L 110.179,-1047.72 L 109.629,-1048.02 L 109.045,-1048.26 L 108.437,-1048.41
 L 107.814,-1048.49 L -107.814,-1048.49 L -108.437,-1048.41 L -109.045,-1048.26 L -109.629,-1048.02 L -110.179,-1047.72
 L -110.687,-1047.35 L -111.145,-1046.92 L -111.545,-1046.44 L -111.882,-1045.91 L -112.149,-1045.34 L -112.343,-1044.74
 L -112.461,-1044.13 L -112.5,-1043.5 L -112.5,-828.5 L -112.461,-827.873 L -112.343,-827.257 L -112.149,-826.659
 L -111.882,-826.091 L -111.545,-825.561 L -111.145,-825.077 L -110.687,-824.647 L -110.179,-824.278 L -109.629,-823.976
 L -109.045,-823.745 L -108.437,-823.589 L -107.814,-823.51 L 107.814,-823.51 z
M -105.151,-1038.6 L -105.45,-1038.64 L -105.742,-1038.72 L -106.022,-1038.83 L -106.286,-1038.97 L -106.53,-1039.15
 L -106.75,-1039.36 L -106.942,-1039.59 L -107.103,-1039.84 L -107.231,-1040.12 L -107.325,-1040.4 L -107.381,-1040.7
 L -107.4,-1041 L -107.381,-1041.3 L -107.325,-1041.6 L -107.231,-1041.88 L -107.103,-1042.16 L -106.942,-1042.41
 L -106.75,-1042.64 L -106.53,-1042.85 L -106.286,-1043.03 L -106.022,-1043.17 L -105.742,-1043.28 L -105.45,-1043.36
 L -105.151,-1043.4 L -104.849,-1043.4 L -104.55,-1043.36 L -104.258,-1043.28 L -103.978,-1043.17 L -103.714,-1043.03
 L -103.47,-1042.85 L -103.25,-1042.64 L -103.058,-1042.41 L -102.897,-1042.16 L -102.769,-1041.88 L -102.675,-1041.6
 L -102.619,-1041.3 L -102.6,-1041 L -102.619,-1040.7 L -102.675,-1040.4 L -102.769,-1040.12 L -102.897,-1039.84
 L -103.058,-1039.59 L -103.25,-1039.36 L -103.47,-1039.15 L -103.714,-1038.97 L -103.978,-1038.83 L -104.258,-1038.72
 L -104.55,-1038.64 L -104.849,-1038.6 z
M 104.849,-1038.6 L 104.55,-1038.64 L 104.258,-1038.72 L 103.978,-1038.83 L 103.714,-1038.97 L 103.47,-1039.15
 L 103.25,-1039.36 L 103.058,-1039.59 L 102.897,-1039.84 L 102.769,-1040.12 L 102.675,-1040.4 L 102.619,-1040.7
 L 102.6,-1041 L 102.619,-1041.3 L 102.675,-1041.6 L 102.769,-1041.88 L 102.897,-1042.16 L 103.058,-1042.41
 L 103.25,-1042.64 L 103.47,-1042.85 L 103.714,-1043.03 L 103.978,-1043.17 L 104.258,-1043.28 L 104.55,-1043.36
 L 104.849,-1043.4 L 105.151,-1043.4 L 105.45,-1043.36 L 105.742,-1043.28 L 106.022,-1043.17 L 106.286,-1043.03
 L 106.53,-1042.85 L 106.75,-1042.64 L 106.942,-1042.41 L 107.103,-1042.16 L 107.231,-1041.88 L 107.325,-1041.6
 L 107.381,-1041.3 L 107.4,-1041 L 107.381,-1040.7 L 107.325,-1040.4 L 107.231,-1040.12 L 107.103,-1039.84
 L 106.942,-1039.59 L 106.75,-1039.36 L 106.53,-1039.15 L 106.286,-1038.97 L 106.022,-1038.83 L 105.742,-1038.72
 L 105.45,-1038.64 L 105.151,-1038.6 z
M 104.849,-828.605 L 104.55,-828.643 L 104.258,-828.717 L 103.978,-828.828 L 103.714,-828.974 L 103.47,-829.151
 L 103.25,-829.357 L 103.058,-829.589 L 102.897,-829.844 L 102.769,-830.117 L 102.675,-830.403 L 102.619,-830.699
 L 102.6,-831 L 102.619,-831.301 L 102.675,-831.597 L 102.769,-831.883 L 102.897,-832.156 L 103.058,-832.411
 L 103.25,-832.643 L 103.47,-832.849 L 103.714,-833.026 L 103.978,-833.172 L 104.258,-833.283 L 104.55,-833.357
 L 104.849,-833.395 L 105.151,-833.395 L 105.45,-833.357 L 105.742,-833.283 L 106.022,-833.172 L 106.286,-833.026
 L 106.53,-832.849 L 106.75,-832.643 L 106.942,-832.411 L 107.103,-832.156 L 107.231,-831.883 L 107.325,-831.597
 L 107.381,-831.301 L 107.4,-831 L 107.381,-830.699 L 107.325,-830.403 L 107.231,-830.117 L 107.103,-829.844
 L 106.942,-829.589 L 106.75,-829.357 L 106.53,-829.151 L 106.286,-828.974 L 106.022,-828.828 L 105.742,-828.717
 L 105.45,-828.643 L 105.151,-828.605 z
M -105.151,-828.605 L -105.45,-828.643 L -105.742,-828.717 L -106.022,-828.828 L -106.286,-828.974 L -106.53,-829.151
 L -106.75,-829.357 L -106.942,-829.589 L -107.103,-829.844 L -107.231,-830.117 L -107.325,-830.403 L -107.381,-830.699
 L -107.4,-831 L -107.381,-831.301 L -107.325,-831.597 L -107.231,-831.883 L -107.103,-832.156 L -106.942,-832.411
 L -106.75,-832.643 L -106.53,-832.849 L -106.286,-833.026 L -106.022,-833.172 L -105.742,-833.283 L -105.45,-833.357
 L -105.151,-833.395 L -104.849,-833.395 L -104.55,-833.357 L -104.258,-833.283 L -103.978,-833.172 L -103.714,-833.026
 L -103.47,-832.849 L -103.25,-832.643 L -103.058,-832.411 L -102.897,-832.156 L -102.769,-831.883 L -102.675,-831.597
 L -102.619,-831.301 L -102.6,-831 L -102.619,-830.699 L -102.675,-830.403 L -102.769,-830.117 L -102.897,-829.844
 L -103.058,-829.589 L -103.25,-829.357 L -103.47,-829.151 L -103.714,-828.974 L -103.978,-828.828 L -104.258,-828.717
 L -104.55,-828.643 L -104.849,-828.605 z
M 108.437,-589.589 L 109.045,-589.745 L 109.629,-589.976 L 110.179,-590.278 L 110.687,-590.647 L 111.145,-591.077
 L 111.545,-591.561 L 111.882,-592.091 L 112.149,-592.659 L 112.343,-593.257 L 112.461,-593.873 L 112.5,-594.5
 L 112.5,-809.5 L 112.461,-810.127 L 112.343,-810.743 L 112.149,-811.341 L 111.882,-811.909 L 111.545,-812.439
 L 111.145,-812.923 L 110.687,-813.353 L 110.179,-813.722 L 109.629,-814.024 L 109.045,-814.255 L 108.437,-814.411
 L 107.814,-814.49 L -107.814,-814.49 L -108.437,-814.411 L -109.045,-814.255 L -109.629,-814.024 L -110.179,-813.722
 L -110.687,-813.353 L -111.145,-812.923 L -111.545,-812.439 L -111.882,-811.909 L -112.149,-811.341 L -112.343,-810.743
 L -112.461,-810.127 L -112.5,-809.5 L -112.5,-594.5 L -112.461,-593.873 L -112.343,-593.257 L -112.149,-592.659
 L -111.882,-592.091 L -111.545,-591.561 L -111.145,-591.077 L -110.687,-590.647 L -110.179,-590.278 L -109.629,-589.976
 L -109.045,-589.745 L -108.437,-589.589 L -107.814,-589.51 L 107.814,-589.51 z
M 104.887,-805.204 L 104.663,-805.232 L 104.444,-805.288 L 104.234,-805.371 L 104.036,-805.48 L 103.853,-805.613
 L 103.688,-805.768 L 103.544,-805.942 L 103.423,-806.133 L 103.326,-806.337 L 103.257,-806.552 L 103.214,-806.774
 L 103.2,-807 L 103.214,-807.226 L 103.257,-807.448 L 103.326,-807.663 L 103.423,-807.867 L 103.544,-808.058
 L 103.688,-808.232 L 103.853,-808.387 L 104.036,-808.52 L 104.234,-808.629 L 104.444,-808.712 L 104.663,-808.768
 L 104.887,-808.796 L 105.113,-808.796 L 105.337,-808.768 L 105.556,-808.712 L 105.766,-808.629 L 105.964,-808.52
 L 106.147,-808.387 L 106.312,-808.232 L 106.456,-808.058 L 106.577,-807.867 L 106.674,-807.663 L 106.743,-807.448
 L 106.786,-807.226 L 106.8,-807 L 106.786,-806.774 L 106.743,-806.552 L 106.674,-806.337 L 106.577,-806.133
 L 106.456,-805.942 L 106.312,-805.768 L 106.147,-805.613 L 105.964,-805.48 L 105.766,-805.371 L 105.556,-805.288
 L 105.337,-805.232 L 105.113,-805.204 z
M -105.113,-805.204 L -105.337,-805.232 L -105.556,-805.288 L -105.766,-805.371 L -105.964,-805.48 L -106.147,-805.613
 L -106.312,-805.768 L -106.456,-805.942 L -106.577,-806.133 L -106.674,-806.337 L -106.743,-806.552 L -106.786,-806.774
 L -106.8,-807 L -106.786,-807.226 L -106.743,-807.448 L -106.674,-807.663 L -106.577,-807.867 L -106.456,-808.058
 L -106.312,-808.232 L -106.147,-808.387 L -105.964,-808.52 L -105.766,-808.629 L -105.556,-808.712 L -105.337,-808.768
 L -105.113,-808.796 L -104.887,-808.796 L -104.663,-808.768 L -104.444,-808.712 L -104.234,-808.629 L -104.036,-808.52
 L -103.853,-808.387 L -103.688,-808.232 L -103.544,-808.058 L -103.423,-807.867 L -103.326,-807.663 L -103.257,-807.448
 L -103.214,-807.226 L -103.2,-807 L -103.214,-806.774 L -103.257,-806.552 L -103.326,-806.337 L -103.423,-806.133
 L -103.544,-805.942 L -103.688,-805.768 L -103.853,-805.613 L -104.036,-805.48 L -104.234,-805.371 L -104.444,-805.288
 L -104.663,-805.232 L -104.887,-805.204 z
M -105.113,-595.204 L -105.337,-595.232 L -105.556,-595.288 L -105.766,-595.371 L -105.964,-595.48 L -106.147,-595.613
 L -106.312,-595.768 L -106.456,-595.942 L -106.577,-596.133 L -106.674,-596.337 L -106.743,-596.552 L -106.786,-596.774
 L -106.8,-597 L -106.786,-597.226 L -106.743,-597.448 L -106.674,-597.663 L -106.577,-597.867 L -106.456,-598.058
 L -106.312,-598.232 L -106.147,-598.387 L -105.964,-598.52 L -105.766,-598.629 L -105.556,-598.712 L -105.337,-598.768
 L -105.113,-598.796 L -104.887,-598.796 L -104.663,-598.768 L -104.444,-598.712 L -104.234,-598.629 L -104.036,-598.52
 L -103.853,-598.387 L -103.688,-598.232 L -103.544,-598.058 L -103.423,-597.867 L -103.326,-597.663 L -103.257,-597.448
 L -103.214,-597.226 L -103.2,-597 L -103.214,-596.774 L -103.257,-596.552 L -103.326,-596.337 L -103.423,-596.133
 L -103.544,-595.942 L -103.688,-595.768 L -103.853,-595.613 L -104.036,-595.48 L -104.234,-595.371 L -104.444,-595.288
 L -104.663,-595.232 L -104.887,-595.204 z
M 104.887,-595.204 L 104.663,-595.232 L 104.444,-595.288 L 104.234,-595.371 L 104.036,-595.48 L 103.853,-595.613
 L 103.688,-595.768 L 103.544,-595.942 L 103.423,-596.133 L 103.326,-596.337 L 103.257,-596.552 L 103.214,-596.774
 L 103.2,-597 L 103.214,-597.226 L 103.257,-597.448 L 103.326,-597.663 L 103.423,-597.867 L 103.544,-598.058
 L 103.688,-598.232 L 103.853,-598.387 L 104.036,-598.52 L 104.234,-598.629 L 104.444,-598.712 L 104.663,-598.768
 L 104.887,-598.796 L 105.113,-598.796 L 105.337,-598.768 L 105.556,-598.712 L 105.766,-598.629 L 105.964,-598.52
 L 106.147,-598.387 L 106.312,-598.232 L 106.456,-598.058 L 106.577,-597.867 L 106.674,-597.663 L 106.743,-597.448
 L 106.786,-597.226 L 106.8,-597 L 106.786,-596.774 L 106.743,-596.552 L 106.674,-596.337 L 106.577,-596.133
 L 106.456,-595.942 L 106.312,-595.768 L 106.147,-595.613 L 105.964,-595.48 L 105.766,-595.371 L 105.556,-595.288
 L 105.337,-595.232 L 105.113,-595.204 z
" stroke="black" fill="lightgray" stroke-width="0.5"/>
</svg>
