<?xml version="1.0" standalone="no"?>
<!DOCTYPE svg PUBLIC "-//W3C//DTD SVG 1.1//EN" "http://www.w3.org/Graphics/SVG/1.1/DTD/svg11.dtd">
<svg width="210mm" height="198mm" viewBox="-105 -306 210 198" xmlns="http://www.w3.org/2000/svg" version="1.1">
<title>OpenSCAD Model</title>
<path d="
M -102,-246.425 L -101.545,-246.245 L -100.937,-246.089 L -100.314,-246.01 L 100.314,-246.01 L 100.937,-246.089
 L 101.545,-246.245 L 102.129,-246.476 L 102.679,-246.778 L 103.187,-247.147 L 103.645,-247.577 L 104.045,-248.061
 L 104.382,-248.591 L 104.649,-249.159 L 104.843,-249.757 L 104.961,-250.373 L 105,-251 L 105,-301
 L 104.961,-301.627 L 104.843,-302.243 L 104.649,-302.841 L 104.382,-303.409 L 104.045,-303.939 L 103.645,-304.423
 L 103.187,-304.853 L 102.679,-305.222 L 102.129,-305.524 L 101.545,-305.755 L 100.937,-305.911 L 100.314,-305.99
 L -100.314,-305.99 L -100.937,-305.911 L -101.545,-305.755 L -102,-305.575 L -102,-305.99 L -105,-305.99
 L -105,-246.01 L -102,-246.01 z
M -99.7432,-247.635 L -100.226,-247.696 L -100.697,-247.817 L -101.149,-247.996 L -101.575,-248.23 L -101.969,-248.516
 L -102.323,-248.849 L -102.633,-249.224 L -102.894,-249.634 L -103.101,-250.074 L -103.251,-250.537 L -103.342,-251.015
 L -103.373,-251.5 L -103.373,-300.5 L -103.342,-300.985 L -103.251,-301.463 L -103.101,-301.926 L -102.894,-302.366
 L -102.633,-302.776 L -102.323,-303.151 L -101.969,-303.484 L -101.575,-303.77 L -101.149,-304.004 L -100.697,-304.183
 L -100.226,-304.304 L -99.7432,-304.365 L 99.7432,-304.365 L 100.226,-304.304 L 100.697,-304.183 L 101.149,-304.004
 L 101.575,-303.77 L 101.969,-303.484 L 102.323,-303.151 L 102.633,-302.776 L 102.894,-302.366 L 103.101,-301.926
 L 103.251,-301.463 L 103.342,-300.985 L 103.373,-300.5 L 103.373,-251.5 L 103.342,-251.015 L 103.251,-250.537
 L 103.101,-250.074 L 102.894,-249.634 L 102.633,-249.224 L 102.323,-248.849 L 101.969,-248.516 L 101.575,-248.23
 L 101.149,-247.996 L 100.697,-247.817 L 100.226,-247.696 L 99.7432,-247.635 z
M 100.937,-177.089 L 101.545,-177.245 L 102.129,-177.476 L 102.679,-177.778 L 103.187,-178.147 L 103.645,-178.577
 L 104.045,-179.061 L 104.382,-179.591 L 104.649,-180.159 L 104.843,-180.757 L 104.961,-181.373 L 105,-182
 L 105,-232 L 104.961,-232.627 L 104.843,-233.243 L 104.649,-233.841 L 104.382,-234.409 L 104.045,-234.939
 L 103.645,-235.423 L 103.187,-235.853 L 102.679,-236.222 L 102.129,-236.524 L 101.545,-236.755 L 100.937,-236.911
 L 100.314,-236.99 L -100.314,-236.99 L -100.937,-236.911 L -101.545,-236.755 L -102,-236.575 L -102,-236.615
 L -105,-236.615 L -105,-177.385 L -102,-177.385 L -102,-177.425 L -101.545,-177.245 L -100.937,-177.089
 L -100.314,-177.01 L 100.314,-177.01 z
M -97.6507,-227.105 L -97.9497,-227.143 L -98.2416,-227.217 L -98.5219,-227.328 L -98.786,-227.474 L -99.0298,-227.651
 L -99.2495,-227.857 L -99.4416,-228.089 L -99.6031,-228.344 L -99.7315,-228.617 L -99.8246,-228.903 L -99.8811,-229.199
 L -99.9,-229.5 L -99.8811,-229.801 L -99.8246,-230.097 L -99.7315,-230.383 L -99.6031,-230.656 L -99.4416,-230.911
 L -99.2495,-231.143 L -99.0298,-231.349 L -98.786,-231.526 L -98.5219,-231.672 L -98.2416,-231.783 L -97.9497,-231.857
 L -97.6507,-231.895 L -97.3493,-231.895 L -97.0503,-231.857 L -96.7584,-231.783 L -96.4781,-231.672 L -96.214,-231.526
 L -95.9702,-231.349 L -95.7505,-231.143 L -95.5583,-230.911 L -95.3969,-230.656 L -95.2685,-230.383 L -95.1754,-230.097
 L -95.1189,-229.801 L -95.1,-229.5 L -95.1189,-229.199 L -95.1754,-228.903 L -95.2685,-228.617 L -95.3969,-228.344
 L -95.5583,-228.089 L -95.7505,-227.857 L -95.9702,-227.651 L -96.214,-227.474 L -96.4781,-227.328 L -96.7584,-227.217
 L -97.0503,-227.143 L -97.3493,-227.105 z
M 97.3493,-227.105 L 97.0503,-227.143 L 96.7584,-227.217 L 96.4781,-227.328 L 96.214,-227.474 L 95.9702,-227.651
 L 95.7505,-227.857 L 95.5583,-228.089 L 95.3969,-228.344 L 95.2685,-228.617 L 95.1754,-228.903 L 95.1189,-229.199
 L 95.1,-229.5 L 95.1189,-229.801 L 95.1754,-230.097 L 95.2685,-230.383 L 95.3969,-230.656 L 95.5583,-230.911
 L 95.7505,-231.143 L 95.9702,-231.349 L 96.214,-231.526 L 96.4781,-231.672 L 96.7584,-231.783 L 97.0503,-231.857
 L 97.3493,-231.895 L 97.6507,-231.895 L 97.9497,-231.857 L 98.2416,-231.783 L 98.5219,-231.672 L 98.786,-231.526
 L 99.0298,-231.349 L 99.2495,-231.143 L 99.4416,-230.911 L 99.6031,-230.656 L 99.7315,-230.383 L 99.8246,-230.097
 L 99.8811,-229.801 L 99.9,-229.5 L 99.8811,-229.199 L 99.8246,-228.903 L 99.7315,-228.617 L 99.6031,-228.344
 L 99.4416,-228.089 L 99.2495,-227.857 L 99.0298,-227.651 L 98.786,-227.474 L 98.5219,-227.328 L 98.2416,-227.217
 L 97.9497,-227.143 L 97.6507,-227.105 z
M 97.3493,-182.105 L 97.0503,-182.143 L 96.7584,-182.217 L 96.4781,-182.328 L 96.214,-182.474 L 95.9702,-182.651
 L 95.7505,-182.857 L 95.5583,-183.089 L 95.3969,-183.344 L 95.2685,-183.617 L 95.1754,-183.903 L 95.1189,-184.199
 L 95.1,-184.5 L 95.1189,-184.801 L 95.1754,-185.097 L 95.2685,-185.383 L 95.3969,-185.656 L 95.5583,-185.911
 L 95.7505,-186.143 L 95.9702,-186.349 L 96.214,-186.526 L 96.4781,-186.672 L 96.7584,-186.783 L 97.0503,-186.857
 L 97.3493,-186.895 L 97.6507,-186.895 L 97.9497,-186.857 L 98.2416,-186.783 L 98.5219,-186.672 L 98.786,-186.526
 L 99.0298,-186.349 L 99.2495,-186.143 L 99.4416,-185.911 L 99.6031,-185.656 L 99.7315,-185.383 L 99.8246,-185.097
 L 99.8811,-184.801 L 99.9,-184.5 L 99.8811,-184.199 L 99.8246,-183.903 L 99.7315,-183.617 L 99.6031,-183.344
 L 99.4416,-183.089 L 99.2495,-182.857 L 99.0298,-182.651 L 98.786,-182.474 L 98.5219,-182.328 L 98.2416,-182.217
 L 97.9497,-182.143 L 97.6507,-182.105 z
M -97.6507,-182.105 L -97.9497,-182.143 L -98.2416,-182.217 L -98.5219,-182.328 L -98.786,-182.474 L -99.0298,-182.651
 L -99.2495,-182.857 L -99.4416,-183.089 L -99.6031,-183.344 L -99.7315,-183.617 L -99.8246,-183.903 L -99.8811,-184.199
 L -99.9,-184.5 L -99.8811,-184.801 L -99.8246,-185.097 L -99.7315,-185.383 L -99.6031,-185.656 L -99.4416,-185.911
 L -99.2495,-186.143 L -99.0298,-186.349 L -98.786,-186.526 L -98.5219,-186.672 L -98.2416,-186.783 L -97.9497,-186.857
 L -97.6507,-186.895 L -97.3493,-186.895 L -97.0503,-186.857 L -96.7584,-186.783 L -96.4781,-186.672 L -96.214,-186.526
 L -95.9702,-186.349 L -95.7505,-186.143 L -95.5583,-185.911 L -95.3969,-185.656 L -95.2685,-185.383 L -95.1754,-185.097
 L -95.1189,-184.801 L -95.1,-184.5 L -95.1189,-184.199 L -95.1754,-183.903 L -95.2685,-183.617 L -95.3969,-183.344
 L -95.5583,-183.089 L -95.7505,-182.857 L -95.9702,-182.651 L -96.214,-182.474 L -96.4781,-182.328 L -96.7584,-182.217
 L -97.0503,-182.143 L -97.3493,-182.105 z
M 100.937,-108.089 L 101.545,-108.245 L 102.129,-108.476 L 102.679,-108.778 L 103.187,-109.147 L 103.645,-109.577
 L 104.045,-110.061 L 104.382,-110.591 L 104.649,-111.159 L 104.843,-111.757 L 104.961,-112.373 L 105,-113
 L 105,-163 L 104.961,-163.627 L 104.843,-164.243 L 104.649,-164.841 L 104.382,-165.409 L 104.045,-165.939
 L 103.645,-166.423 L 103.187,-166.853 L 102.679,-167.222 L 102.129,-167.524 L 101.545,-167.755 L 100.937,-167.911
 L 100.314,-167.99 L -100.314,-167.99 L -100.937,-167.911 L -101.545,-167.755 L -102.129,-167.524 L -102.679,-167.222
 L -103.187,-166.853 L -103.645,-166.423 L -104.045,-165.939 L -104.382,-165.409 L -104.649,-164.841 L -104.843,-164.243
 L -104.9,-163.944 L -105,-163.944 L -105,-112.056 L -104.9,-112.056 L -104.843,-111.757 L -104.649,-111.159
 L -104.382,-110.591 L -104.045,-110.061 L -103.645,-109.577 L -103.187,-109.147 L -102.679,-108.778 L -102.129,-108.476
 L -101.545,-108.245 L -100.937,-108.089 L -100.314,-108.01 L 100.314,-108.01 z
M -97.613,-158.704 L -97.8373,-158.732 L -98.0562,-158.788 L -98.2664,-158.871 L -98.4645,-158.98 L -98.6474,-159.113
 L -98.8121,-159.268 L -98.9562,-159.442 L -99.0773,-159.633 L -99.1736,-159.837 L -99.2434,-160.052 L -99.2858,-160.274
 L -99.3,-160.5 L -99.2858,-160.726 L -99.2434,-160.948 L -99.1736,-161.163 L -99.0773,-161.367 L -98.9562,-161.558
 L -98.8121,-161.732 L -98.6474,-161.887 L -98.4645,-162.02 L -98.2664,-162.129 L -98.0562,-162.212 L -97.8373,-162.268
 L -97.613,-162.296 L -97.387,-162.296 L -97.1627,-162.268 L -96.9438,-162.212 L -96.7336,-162.129 L -96.5355,-162.02
 L -96.3526,-161.887 L -96.1879,-161.732 L -96.0438,-161.558 L -95.9226,-161.367 L -95.8264,-161.163 L -95.7565,-160.948
 L -95.7142,-160.726 L -95.7,-160.5 L -95.7142,-160.274 L -95.7565,-160.052 L -95.8264,-159.837 L -95.9226,-159.633
 L -96.0438,-159.442 L -96.1879,-159.268 L -96.3526,-159.113 L -96.5355,-158.98 L -96.7336,-158.871 L -96.9438,-158.788
 L -97.1627,-158.732 L -97.387,-158.704 z
M 97.387,-158.704 L 97.1627,-158.732 L 96.9438,-158.788 L 96.7336,-158.871 L 96.5355,-158.98 L 96.3526,-159.113
 L 96.1879,-159.268 L 96.0438,-159.442 L 95.9226,-159.633 L 95.8264,-159.837 L 95.7565,-160.052 L 95.7142,-160.274
 L 95.7,-160.5 L 95.7142,-160.726 L 95.7565,-160.948 L 95.8264,-161.163 L 95.9226,-161.367 L 96.0438,-161.558
 L 96.1879,-161.732 L 96.3526,-161.887 L 96.5355,-162.02 L 96.7336,-162.129 L 96.9438,-162.212 L 97.1627,-162.268
 L 97.387,-162.296 L 97.613,-162.296 L 97.8373,-162.268 L 98.0562,-162.212 L 98.2664,-162.129 L 98.4645,-162.02
 L 98.6474,-161.887 L 98.8121,-161.732 L 98.9562,-161.558 L 99.0773,-161.367 L 99.1736,-161.163 L 99.2434,-160.948
 L 99.2858,-160.726 L 99.3,-160.5 L 99.2858,-160.274 L 99.2434,-160.052 L 99.1736,-159.837 L 99.0773,-159.633
 L 98.9562,-159.442 L 98.8121,-159.268 L 98.6474,-159.113 L 98.4645,-158.98 L 98.2664,-158.871 L 98.0562,-158.788
 L 97.8373,-158.732 L 97.613,-158.704 z
M 97.387,-113.704 L 97.1627,-113.732 L 96.9438,-113.788 L 96.7336,-113.871 L 96.5355,-113.98 L 96.3526,-114.113
 L 96.1879,-114.268 L 96.0438,-114.442 L 95.9226,-114.633 L 95.8264,-114.837 L 95.7565,-115.052 L 95.7142,-115.274
 L 95.7,-115.5 L 95.7142,-115.726 L 95.7565,-115.948 L 95.8264,-116.163 L 95.9226,-116.367 L 96.0438,-116.558
 L 96.1879,-116.732 L 96.3526,-116.887 L 96.5355,-117.02 L 96.7336,-117.129 L 96.9438,-117.212 L 97.1627,-117.268
 L 97.387,-117.296 L 97.613,-117.296 L 97.8373,-117.268 L 98.0562,-117.212 L 98.2664,-117.129 L 98.4645,-117.02
 L 98.6474,-116.887 L 98.8121,-116.732 L 98.9562,-116.558 L 99.0773,-116.367 L 99.1736,-116.163 L 99.2434,-115.948
 L 99.2858,-115.726 L 99.3,-115.5 L 99.2858,-115.274 L 99.2434,-115.052 L 99.1736,-114.837 L 99.0773,-114.633
 L 98.9562,-114.442 L 98.8121,-114.268 L 98.6474,-114.113 L 98.4645,-113.98 L 98.2664,-113.871 L 98.0562,-113.788
 L 97.8373,-113.732 L 97.613,-113.704 z
M -97.613,-113.704 L -97.8373,-113.732 L -98.0562,-113.788 L -98.2664,-113.871 L -98.4645,-113.98 L -98.6474,-114.113
 L -98.8121,-114.268 L -98.9562,-114.442 L -99.0773,-114.633 L -99.1736,-114.837 L -99.2434,-115.052 L -99.2858,-115.274
 L -99.3,-115.5 L -99.2858,-115.726 L -99.2434,-115.948 L -99.1736,-116.163 L -99.0773,-116.367 L -98.9562,-116.558
 L -98.8121,-116.732 L -98.6474,-116.887 L -98.4645,-117.02 L -98.2664,-117.129 L -98.0562,-117.212 L -97.8373,-117.268
 L -97.613,-117.296 L -97.387,-117.296 L -97.1627,-117.268 L -96.9438,-117.212 L -96.7336,-117.129 L -96.5355,-117.02
 L -96.3526,-116.887 L -96.1879,-116.732 L -96.0438,-116.558 L -95.9226,-116.367 L -95.8264,-116.163 L -95.7565,-115.948
 L -95.7142,-115.726 L -95.7,-115.5 L -95.7142,-115.274 L -95.7565,-115.052 L -95.8264,-114.837 L -95.9226,-114.633
 L -96.0438,-114.442 L -96.1879,-114.268 L -96.3526,-114.113 L -96.5355,-113.98 L -96.7336,-113.871 L -96.9438,-113.788
 L -97.1627,-113.732 L -97.387,-113.704 z
" stroke="black" fill="lightgray" stroke-width="0.5"/>
</svg>
