<?xml version="1.0" standalone="no"?>
<!DOCTYPE svg PUBLIC "-//W3C//DTD SVG 1.1//EN" "http://www.w3.org/Graphics/SVG/1.1/DTD/svg11.dtd">
<svg width="60mm" height="280mm" viewBox="-30 -356 60 280" xmlns="http://www.w3.org/2000/svg" version="1.1">
<title>OpenSCAD Model</title>
<path d="
M 25.9369,-220.589 L 26.5451,-220.745 L 27.1289,-220.976 L 27.6791,-221.278 L 28.1871,-221.647 L 28.6448,-222.077
 L 29.0451,-222.561 L 29.3815,-223.091 L 29.6489,-223.659 L 29.8429,-224.257 L 29.9606,-224.873 L 30,-225.5
 L 30,-350.5 L 29.9606,-351.127 L 29.8429,-351.743 L 29.6489,-352.341 L 29.3815,-352.909 L 29.0451,-353.439
 L 28.6448,-353.923 L 28.1871,-354.353 L 27.6791,-354.722 L 27.1289,-355.024 L 26.5451,-355.255 L 25.9369,-355.411
 L 25.3139,-355.49 L -25.3139,-355.49 L -25.9369,-355.411 L -26.5451,-355.255 L -27.1289,-355.024 L -27.6791,-354.722
 L -28.1871,-354.353 L -28.6448,-353.923 L -29.0451,-353.439 L -29.3815,-352.909 L -29.6489,-352.341 L -29.8429,-351.743
 L -29.9606,-351.127 L -30,-350.5 L -30,-225.5 L -29.9606,-224.873 L -29.8429,-224.257 L -29.6489,-223.659
 L -29.3815,-223.091 L -29.0451,-222.561 L -28.6448,-222.077 L -28.1871,-221.647 L -27.6791,-221.278 L -27.1289,-220.976
 L -26.5451,-220.745 L -25.9369,-220.589 L -25.3139,-220.51 L 25.3139,-220.51 z
M 25.9369,-76.5886 L 26.5451,-76.7447 L 27.1289,-76.9759 L 27.6791,-77.2784 L 28.1871,-77.6474 L 28.6448,-78.0773
 L 29.0451,-78.5611 L 29.3815,-79.0912 L 29.6489,-79.6594 L 29.8429,-80.2566 L 29.9606,-80.8733 L 30,-81.5
 L 30,-206.5 L 29.9606,-207.127 L 29.8429,-207.743 L 29.6489,-208.341 L 29.3815,-208.909 L 29.0451,-209.439
 L 28.6448,-209.923 L 28.1871,-210.353 L 27.6791,-210.722 L 27.1289,-211.024 L 26.5451,-211.255 L 25.9369,-211.411
 L 25.3139,-211.49 L -25.3139,-211.49 L -25.9369,-211.411 L -26.5451,-211.255 L -27.1289,-211.024 L -27.6791,-210.722
 L -28.1871,-210.353 L -28.6448,-209.923 L -29.0451,-209.439 L -29.3815,-208.909 L -29.6489,-208.341 L -29.8429,-207.743
 L -29.9606,-207.127 L -30,-206.5 L -30,-81.5 L -29.9606,-80.8733 L -29.8429,-80.2566 L -29.6489,-79.6594
 L -29.3815,-79.0912 L -29.0451,-78.5611 L -28.6448,-78.0773 L -28.1871,-77.6474 L -27.6791,-77.2784 L -27.1289,-76.9759
 L -26.5451,-76.7447 L -25.9369,-76.5886 L -25.3139,-76.5099 L 25.3139,-76.5099 z
M 22.387,-202.204 L 22.1627,-202.232 L 21.9438,-202.288 L 21.7336,-202.371 L 21.5355,-202.48 L 21.3526,-202.613
 L 21.1879,-202.768 L 21.0438,-202.942 L 20.9226,-203.133 L 20.8264,-203.337 L 20.7565,-203.552 L 20.7142,-203.774
 L 20.7,-204 L 20.7142,-204.226 L 20.7565,-204.448 L 20.8264,-204.663 L 20.9226,-204.867 L 21.0438,-205.058
 L 21.1879,-205.232 L 21.3526,-205.387 L 21.5355,-205.52 L 21.7336,-205.629 L 21.9438,-205.712 L 22.1627,-205.768
 L 22.387,-205.796 L 22.613,-205.796 L 22.8373,-205.768 L 23.0562,-205.712 L 23.2664,-205.629 L 23.4645,-205.52
 L 23.6474,-205.387 L 23.8121,-205.232 L 23.9562,-205.058 L 24.0773,-204.867 L 24.1736,-204.663 L 24.2434,-204.448
 L 24.2858,-204.226 L 24.3,-204 L 24.2858,-203.774 L 24.2434,-203.552 L 24.1736,-203.337 L 24.0773,-203.133
 L 23.9562,-202.942 L 23.8121,-202.768 L 23.6474,-202.613 L 23.4645,-202.48 L 23.2664,-202.371 L 23.0562,-202.288
 L 22.8373,-202.232 L 22.613,-202.204 z
M -22.613,-202.204 L -22.8373,-202.232 L -23.0562,-202.288 L -23.2664,-202.371 L -23.4645,-202.48 L -23.6474,-202.613
 L -23.8121,-202.768 L -23.9562,-202.942 L -24.0773,-203.133 L -24.1736,-203.337 L -24.2434,-203.552 L -24.2858,-203.774
 L -24.3,-204 L -24.2858,-204.226 L -24.2434,-204.448 L -24.1736,-204.663 L -24.0773,-204.867 L -23.9562,-205.058
 L -23.8121,-205.232 L -23.6474,-205.387 L -23.4645,-205.52 L -23.2664,-205.629 L -23.0562,-205.712 L -22.8373,-205.768
 L -22.613,-205.796 L -22.387,-205.796 L -22.1627,-205.768 L -21.9438,-205.712 L -21.7336,-205.629 L -21.5355,-205.52
 L -21.3526,-205.387 L -21.1879,-205.232 L -21.0438,-205.058 L -20.9226,-204.867 L -20.8264,-204.663 L -20.7565,-204.448
 L -20.7142,-204.226 L -20.7,-204 L -20.7142,-203.774 L -20.7565,-203.552 L -20.8264,-203.337 L -20.9226,-203.133
 L -21.0438,-202.942 L -21.1879,-202.768 L -21.3526,-202.613 L -21.5355,-202.48 L -21.7336,-202.371 L -21.9438,-202.288
 L -22.1627,-202.232 L -22.387,-202.204 z
M -22.613,-82.2036 L -22.8373,-82.2319 L -23.0562,-82.2881 L -23.2664,-82.3713 L -23.4645,-82.4802 L -23.6474,-82.6131
 L -23.8121,-82.7678 L -23.9562,-82.942 L -24.0773,-83.1328 L -24.1736,-83.3374 L -24.2434,-83.5524 L -24.2858,-83.7744
 L -24.3,-84 L -24.2858,-84.2256 L -24.2434,-84.4476 L -24.1736,-84.6626 L -24.0773,-84.8672 L -23.9562,-85.058
 L -23.8121,-85.2322 L -23.6474,-85.3869 L -23.4645,-85.5198 L -23.2664,-85.6287 L -23.0562,-85.7119 L -22.8373,-85.7681
 L -22.613,-85.7964 L -22.387,-85.7964 L -22.1627,-85.7681 L -21.9438,-85.7119 L -21.7336,-85.6287 L -21.5355,-85.5198
 L -21.3526,-85.3869 L -21.1879,-85.2322 L -21.0438,-85.058 L -20.9226,-84.8672 L -20.8264,-84.6626 L -20.7565,-84.4476
 L -20.7142,-84.2256 L -20.7,-84 L -20.7142,-83.7744 L -20.7565,-83.5524 L -20.8264,-83.3374 L -20.9226,-83.1328
 L -21.0438,-82.942 L -21.1879,-82.7678 L -21.3526,-82.6131 L -21.5355,-82.4802 L -21.7336,-82.3713 L -21.9438,-82.2881
 L -22.1627,-82.2319 L -22.387,-82.2036 z
M 22.387,-82.2036 L 22.1627,-82.2319 L 21.9438,-82.2881 L 21.7336,-82.3713 L 21.5355,-82.4802 L 21.3526,-82.6131
 L 21.1879,-82.7678 L 21.0438,-82.942 L 20.9226,-83.1328 L 20.8264,-83.3374 L 20.7565,-83.5524 L 20.7142,-83.7744
 L 20.7,-84 L 20.7142,-84.2256 L 20.7565,-84.4476 L 20.8264,-84.6626 L 20.9226,-84.8672 L 21.0438,-85.058
 L 21.1879,-85.2322 L 21.3526,-85.3869 L 21.5355,-85.5198 L 21.7336,-85.6287 L 21.9438,-85.7119 L 22.1627,-85.7681
 L 22.387,-85.7964 L 22.613,-85.7964 L 22.8373,-85.7681 L 23.0562,-85.7119 L 23.2664,-85.6287 L 23.4645,-85.5198
 L 23.6474,-85.3869 L 23.8121,-85.2322 L 23.9562,-85.058 L 24.0773,-84.8672 L 24.1736,-84.6626 L 24.2434,-84.4476
 L 24.2858,-84.2256 L 24.3,-84 L 24.2858,-83.7744 L 24.2434,-83.5524 L 24.1736,-83.3374 L 24.0773,-83.1328
 L 23.9562,-82.942 L 23.8121,-82.7678 L 23.6474,-82.6131 L 23.4645,-82.4802 L 23.2664,-82.3713 L 23.0562,-82.2881
 L 22.8373,-82.2319 L 22.613,-82.2036 z
" stroke="black" fill="lightgray" stroke-width="0.5"/>
</svg>
