  0
SECTION
  2
BLOCKS
  0
ENDSEC
  0
SECTION
  2
ENTITIES
  0
LINE
  8
0
 10
-4.5
 20
153.425
 11
-4.04507
 21
153.245
  0
LINE
  8
0
 10
-4.04507
 20
153.245
 11
-3.4369
 21
153.089
  0
LINE
  8
0
 10
-3.4369
 20
153.089
 11
-2.81395
 21
153.01
  0
LINE
  8
0
 10
-2.81395
 20
153.01
 11
2.81395
 21
153.01
  0
LINE
  8
0
 10
2.81395
 20
153.01
 11
3.4369
 21
153.089
  0
LINE
  8
0
 10
3.4369
 20
153.089
 11
4.04507
 21
153.245
  0
LINE
  8
0
 10
4.04507
 20
153.245
 11
4.62889
 21
153.476
  0
LINE
  8
0
 10
4.62889
 20
153.476
 11
5.17912
 21
153.778
  0
LINE
  8
0
 10
5.17912
 20
153.778
 11
5.68712
 21
154.147
  0
LINE
  8
0
 10
5.68712
 20
154.147
 11
6.14484
 21
154.577
  0
LINE
  8
0
 10
6.14484
 20
154.577
 11
6.54507
 21
155.061
  0
LINE
  8
0
 10
6.54507
 20
155.061
 11
6.88153
 21
155.591
  0
LINE
  8
0
 10
6.88153
 20
155.591
 11
7.14888
 21
156.159
  0
LINE
  8
0
 10
7.14888
 20
156.159
 11
7.34291
 21
156.757
  0
LINE
  8
0
 10
7.34291
 20
156.757
 11
7.46057
 21
157.373
  0
LINE
  8
0
 10
7.46057
 20
157.373
 11
7.5
 21
158
  0
LINE
  8
0
 10
7.5
 20
158
 11
7.5
 21
238
  0
LINE
  8
0
 10
7.5
 20
238
 11
7.46057
 21
238.627
  0
LINE
  8
0
 10
7.46057
 20
238.627
 11
7.34291
 21
239.243
  0
LINE
  8
0
 10
7.34291
 20
239.243
 11
7.14888
 21
239.841
  0
LINE
  8
0
 10
7.14888
 20
239.841
 11
6.88153
 21
240.409
  0
LINE
  8
0
 10
6.88153
 20
240.409
 11
6.54507
 21
240.939
  0
LINE
  8
0
 10
6.54507
 20
240.939
 11
6.14484
 21
241.423
  0
LINE
  8
0
 10
6.14484
 20
241.423
 11
5.68712
 21
241.853
  0
LINE
  8
0
 10
5.68712
 20
241.853
 11
5.17912
 21
242.222
  0
LINE
  8
0
 10
5.17912
 20
242.222
 11
4.62889
 21
242.524
  0
LINE
  8
0
 10
4.62889
 20
242.524
 11
4.04507
 21
242.755
  0
LINE
  8
0
 10
4.04507
 20
242.755
 11
3.4369
 21
242.911
  0
LINE
  8
0
 10
3.4369
 20
242.911
 11
2.81395
 21
242.99
  0
LINE
  8
0
 10
2.81395
 20
242.99
 11
-2.81395
 21
242.99
  0
LINE
  8
0
 10
-2.81395
 20
242.99
 11
-3.4369
 21
242.911
  0
LINE
  8
0
 10
-3.4369
 20
242.911
 11
-4.04507
 21
242.755
  0
LINE
  8
0
 10
-4.04507
 20
242.755
 11
-4.5
 21
242.575
  0
LINE
  8
0
 10
-4.5
 20
242.575
 11
-4.5
 21
242.99
  0
LINE
  8
0
 10
-4.5
 20
242.99
 11
-7.5
 21
242.99
  0
LINE
  8
0
 10
-7.5
 20
242.99
 11
-7.5
 21
153.01
  0
LINE
  8
0
 10
-7.5
 20
153.01
 11
-4.5
 21
153.01
  0
LINE
  8
0
 10
-4.5
 20
153.01
 11
-4.5
 21
153.425
  0
LINE
  8
0
 10
-0.150696
 20
233.105
 11
-0.449707
 21
233.143
  0
LINE
  8
0
 10
-0.449707
 20
233.143
 11
-0.741638
 21
233.217
  0
LINE
  8
0
 10
-0.741638
 20
233.217
 11
-1.02187
 21
233.328
  0
LINE
  8
0
 10
-1.02187
 20
233.328
 11
-1.28598
 21
233.474
  0
LINE
  8
0
 10
-1.28598
 20
233.474
 11
-1.52982
 21
233.651
  0
LINE
  8
0
 10
-1.52982
 20
233.651
 11
-1.74951
 21
233.857
  0
LINE
  8
0
 10
-1.74951
 20
233.857
 11
-1.94164
 21
234.089
  0
LINE
  8
0
 10
-1.94164
 20
234.089
 11
-2.10313
 21
234.344
  0
LINE
  8
0
 10
-2.10313
 20
234.344
 11
-2.23146
 21
234.617
  0
LINE
  8
0
 10
-2.23146
 20
234.617
 11
-2.32458
 21
234.903
  0
LINE
  8
0
 10
-2.32458
 20
234.903
 11
-2.38107
 21
235.199
  0
LINE
  8
0
 10
-2.38107
 20
235.199
 11
-2.39999
 21
235.5
  0
LINE
  8
0
 10
-2.39999
 20
235.5
 11
-2.38107
 21
235.801
  0
LINE
  8
0
 10
-2.38107
 20
235.801
 11
-2.32458
 21
236.097
  0
LINE
  8
0
 10
-2.32458
 20
236.097
 11
-2.23146
 21
236.383
  0
LINE
  8
0
 10
-2.23146
 20
236.383
 11
-2.10313
 21
236.656
  0
LINE
  8
0
 10
-2.10313
 20
236.656
 11
-1.94164
 21
236.911
  0
LINE
  8
0
 10
-1.94164
 20
236.911
 11
-1.74951
 21
237.143
  0
LINE
  8
0
 10
-1.74951
 20
237.143
 11
-1.52982
 21
237.349
  0
LINE
  8
0
 10
-1.52982
 20
237.349
 11
-1.28598
 21
237.526
  0
LINE
  8
0
 10
-1.28598
 20
237.526
 11
-1.02187
 21
237.672
  0
LINE
  8
0
 10
-1.02187
 20
237.672
 11
-0.741638
 21
237.783
  0
LINE
  8
0
 10
-0.741638
 20
237.783
 11
-0.449707
 21
237.857
  0
LINE
  8
0
 10
-0.449707
 20
237.857
 11
-0.150696
 21
237.895
  0
LINE
  8
0
 10
-0.150696
 20
237.895
 11
0.150696
 21
237.895
  0
LINE
  8
0
 10
0.150696
 20
237.895
 11
0.449707
 21
237.857
  0
LINE
  8
0
 10
0.449707
 20
237.857
 11
0.741638
 21
237.783
  0
LINE
  8
0
 10
0.741638
 20
237.783
 11
1.02187
 21
237.672
  0
LINE
  8
0
 10
1.02187
 20
237.672
 11
1.28598
 21
237.526
  0
LINE
  8
0
 10
1.28598
 20
237.526
 11
1.52982
 21
237.349
  0
LINE
  8
0
 10
1.52982
 20
237.349
 11
1.74951
 21
237.143
  0
LINE
  8
0
 10
1.74951
 20
237.143
 11
1.94164
 21
236.911
  0
LINE
  8
0
 10
1.94164
 20
236.911
 11
2.10313
 21
236.656
  0
LINE
  8
0
 10
2.10313
 20
236.656
 11
2.23146
 21
236.383
  0
LINE
  8
0
 10
2.23146
 20
236.383
 11
2.32458
 21
236.097
  0
LINE
  8
0
 10
2.32458
 20
236.097
 11
2.38107
 21
235.801
  0
LINE
  8
0
 10
2.38107
 20
235.801
 11
2.39999
 21
235.5
  0
LINE
  8
0
 10
2.39999
 20
235.5
 11
2.38107
 21
235.199
  0
LINE
  8
0
 10
2.38107
 20
235.199
 11
2.32458
 21
234.903
  0
LINE
  8
0
 10
2.32458
 20
234.903
 11
2.23146
 21
234.617
  0
LINE
  8
0
 10
2.23146
 20
234.617
 11
2.10313
 21
234.344
  0
LINE
  8
0
 10
2.10313
 20
234.344
 11
1.94164
 21
234.089
  0
LINE
  8
0
 10
1.94164
 20
234.089
 11
1.74951
 21
233.857
  0
LINE
  8
0
 10
1.74951
 20
233.857
 11
1.52982
 21
233.651
  0
LINE
  8
0
 10
1.52982
 20
233.651
 11
1.28598
 21
233.474
  0
LINE
  8
0
 10
1.28598
 20
233.474
 11
1.02187
 21
233.328
  0
LINE
  8
0
 10
1.02187
 20
233.328
 11
0.741638
 21
233.217
  0
LINE
  8
0
 10
0.741638
 20
233.217
 11
0.449707
 21
233.143
  0
LINE
  8
0
 10
0.449707
 20
233.143
 11
0.150696
 21
233.105
  0
LINE
  8
0
 10
0.150696
 20
233.105
 11
-0.150696
 21
233.105
  0
LINE
  8
0
 10
-0.150696
 20
158.105
 11
-0.449707
 21
158.143
  0
LINE
  8
0
 10
-0.449707
 20
158.143
 11
-0.741638
 21
158.217
  0
LINE
  8
0
 10
-0.741638
 20
158.217
 11
-1.02187
 21
158.328
  0
LINE
  8
0
 10
-1.02187
 20
158.328
 11
-1.28598
 21
158.474
  0
LINE
  8
0
 10
-1.28598
 20
158.474
 11
-1.52982
 21
158.651
  0
LINE
  8
0
 10
-1.52982
 20
158.651
 11
-1.74951
 21
158.857
  0
LINE
  8
0
 10
-1.74951
 20
158.857
 11
-1.94164
 21
159.089
  0
LINE
  8
0
 10
-1.94164
 20
159.089
 11
-2.10313
 21
159.344
  0
LINE
  8
0
 10
-2.10313
 20
159.344
 11
-2.23146
 21
159.617
  0
LINE
  8
0
 10
-2.23146
 20
159.617
 11
-2.32458
 21
159.903
  0
LINE
  8
0
 10
-2.32458
 20
159.903
 11
-2.38107
 21
160.199
  0
LINE
  8
0
 10
-2.38107
 20
160.199
 11
-2.39999
 21
160.5
  0
LINE
  8
0
 10
-2.39999
 20
160.5
 11
-2.38107
 21
160.801
  0
LINE
  8
0
 10
-2.38107
 20
160.801
 11
-2.32458
 21
161.097
  0
LINE
  8
0
 10
-2.32458
 20
161.097
 11
-2.23146
 21
161.383
  0
LINE
  8
0
 10
-2.23146
 20
161.383
 11
-2.10313
 21
161.656
  0
LINE
  8
0
 10
-2.10313
 20
161.656
 11
-1.94164
 21
161.911
  0
LINE
  8
0
 10
-1.94164
 20
161.911
 11
-1.74951
 21
162.143
  0
LINE
  8
0
 10
-1.74951
 20
162.143
 11
-1.52982
 21
162.349
  0
LINE
  8
0
 10
-1.52982
 20
162.349
 11
-1.28598
 21
162.526
  0
LINE
  8
0
 10
-1.28598
 20
162.526
 11
-1.02187
 21
162.672
  0
LINE
  8
0
 10
-1.02187
 20
162.672
 11
-0.741638
 21
162.783
  0
LINE
  8
0
 10
-0.741638
 20
162.783
 11
-0.449707
 21
162.857
  0
LINE
  8
0
 10
-0.449707
 20
162.857
 11
-0.150696
 21
162.895
  0
LINE
  8
0
 10
-0.150696
 20
162.895
 11
0.150696
 21
162.895
  0
LINE
  8
0
 10
0.150696
 20
162.895
 11
0.449707
 21
162.857
  0
LINE
  8
0
 10
0.449707
 20
162.857
 11
0.741638
 21
162.783
  0
LINE
  8
0
 10
0.741638
 20
162.783
 11
1.02187
 21
162.672
  0
LINE
  8
0
 10
1.02187
 20
162.672
 11
1.28598
 21
162.526
  0
LINE
  8
0
 10
1.28598
 20
162.526
 11
1.52982
 21
162.349
  0
LINE
  8
0
 10
1.52982
 20
162.349
 11
1.74951
 21
162.143
  0
LINE
  8
0
 10
1.74951
 20
162.143
 11
1.94164
 21
161.911
  0
LINE
  8
0
 10
1.94164
 20
161.911
 11
2.10313
 21
161.656
  0
LINE
  8
0
 10
2.10313
 20
161.656
 11
2.23146
 21
161.383
  0
LINE
  8
0
 10
2.23146
 20
161.383
 11
2.32458
 21
161.097
  0
LINE
  8
0
 10
2.32458
 20
161.097
 11
2.38107
 21
160.801
  0
LINE
  8
0
 10
2.38107
 20
160.801
 11
2.39999
 21
160.5
  0
LINE
  8
0
 10
2.39999
 20
160.5
 11
2.38107
 21
160.199
  0
LINE
  8
0
 10
2.38107
 20
160.199
 11
2.32458
 21
159.903
  0
LINE
  8
0
 10
2.32458
 20
159.903
 11
2.23146
 21
159.617
  0
LINE
  8
0
 10
2.23146
 20
159.617
 11
2.10313
 21
159.344
  0
LINE
  8
0
 10
2.10313
 20
159.344
 11
1.94164
 21
159.089
  0
LINE
  8
0
 10
1.94164
 20
159.089
 11
1.74951
 21
158.857
  0
LINE
  8
0
 10
1.74951
 20
158.857
 11
1.52982
 21
158.651
  0
LINE
  8
0
 10
1.52982
 20
158.651
 11
1.28598
 21
158.474
  0
LINE
  8
0
 10
1.28598
 20
158.474
 11
1.02187
 21
158.328
  0
LINE
  8
0
 10
1.02187
 20
158.328
 11
0.741638
 21
158.217
  0
LINE
  8
0
 10
0.741638
 20
158.217
 11
0.449707
 21
158.143
  0
LINE
  8
0
 10
0.449707
 20
158.143
 11
0.150696
 21
158.105
  0
LINE
  8
0
 10
0.150696
 20
158.105
 11
-0.150696
 21
158.105
  0
LINE
  8
0
 10
-4.5
 20
54.4248
 11
-4.04507
 21
54.2447
  0
LINE
  8
0
 10
-4.04507
 20
54.2447
 11
-3.4369
 21
54.0886
  0
LINE
  8
0
 10
-3.4369
 20
54.0886
 11
-2.81395
 21
54.0099
  0
LINE
  8
0
 10
-2.81395
 20
54.0099
 11
2.81395
 21
54.0099
  0
LINE
  8
0
 10
2.81395
 20
54.0099
 11
3.4369
 21
54.0886
  0
LINE
  8
0
 10
3.4369
 20
54.0886
 11
4.04507
 21
54.2447
  0
LINE
  8
0
 10
4.04507
 20
54.2447
 11
4.62889
 21
54.4759
  0
LINE
  8
0
 10
4.62889
 20
54.4759
 11
5.17912
 21
54.7784
  0
LINE
  8
0
 10
5.17912
 20
54.7784
 11
5.68712
 21
55.1474
  0
LINE
  8
0
 10
5.68712
 20
55.1474
 11
6.14484
 21
55.5773
  0
LINE
  8
0
 10
6.14484
 20
55.5773
 11
6.54507
 21
56.0611
  0
LINE
  8
0
 10
6.54507
 20
56.0611
 11
6.88153
 21
56.5912
  0
LINE
  8
0
 10
6.88153
 20
56.5912
 11
7.14888
 21
57.1594
  0
LINE
  8
0
 10
7.14888
 20
57.1594
 11
7.34291
 21
57.7566
  0
LINE
  8
0
 10
7.34291
 20
57.7566
 11
7.46057
 21
58.3733
  0
LINE
  8
0
 10
7.46057
 20
58.3733
 11
7.5
 21
59
  0
LINE
  8
0
 10
7.5
 20
59
 11
7.5
 21
139
  0
LINE
  8
0
 10
7.5
 20
139
 11
7.46057
 21
139.627
  0
LINE
  8
0
 10
7.46057
 20
139.627
 11
7.34291
 21
140.243
  0
LINE
  8
0
 10
7.34291
 20
140.243
 11
7.14888
 21
140.841
  0
LINE
  8
0
 10
7.14888
 20
140.841
 11
6.88153
 21
141.409
  0
LINE
  8
0
 10
6.88153
 20
141.409
 11
6.54507
 21
141.939
  0
LINE
  8
0
 10
6.54507
 20
141.939
 11
6.14484
 21
142.423
  0
LINE
  8
0
 10
6.14484
 20
142.423
 11
5.68712
 21
142.853
  0
LINE
  8
0
 10
5.68712
 20
142.853
 11
5.17912
 21
143.222
  0
LINE
  8
0
 10
5.17912
 20
143.222
 11
4.62889
 21
143.524
  0
LINE
  8
0
 10
4.62889
 20
143.524
 11
4.04507
 21
143.755
  0
LINE
  8
0
 10
4.04507
 20
143.755
 11
3.4369
 21
143.911
  0
LINE
  8
0
 10
3.4369
 20
143.911
 11
2.81395
 21
143.99
  0
LINE
  8
0
 10
2.81395
 20
143.99
 11
-2.81395
 21
143.99
  0
LINE
  8
0
 10
-2.81395
 20
143.99
 11
-3.4369
 21
143.911
  0
LINE
  8
0
 10
-3.4369
 20
143.911
 11
-4.04507
 21
143.755
  0
LINE
  8
0
 10
-4.04507
 20
143.755
 11
-4.5
 21
143.575
  0
LINE
  8
0
 10
-4.5
 20
143.575
 11
-4.5
 21
143.99
  0
LINE
  8
0
 10
-4.5
 20
143.99
 11
-7.5
 21
143.99
  0
LINE
  8
0
 10
-7.5
 20
143.99
 11
-7.5
 21
54.0099
  0
LINE
  8
0
 10
-7.5
 20
54.0099
 11
-4.5
 21
54.0099
  0
LINE
  8
0
 10
-4.5
 20
54.0099
 11
-4.5
 21
54.4248
  0
LINE
  8
0
 10
-0.113022
 20
134.704
 11
-0.33728
 21
134.732
  0
LINE
  8
0
 10
-0.33728
 20
134.732
 11
-0.556229
 21
134.788
  0
LINE
  8
0
 10
-0.556229
 20
134.788
 11
-0.766388
 21
134.871
  0
LINE
  8
0
 10
-0.766388
 20
134.871
 11
-0.964478
 21
134.98
  0
LINE
  8
0
 10
-0.964478
 20
134.98
 11
-1.14735
 21
135.113
  0
LINE
  8
0
 10
-1.14735
 20
135.113
 11
-1.31213
 21
135.268
  0
LINE
  8
0
 10
-1.31213
 20
135.268
 11
-1.45622
 21
135.442
  0
LINE
  8
0
 10
-1.45622
 20
135.442
 11
-1.57735
 21
135.633
  0
LINE
  8
0
 10
-1.57735
 20
135.633
 11
-1.67358
 21
135.837
  0
LINE
  8
0
 10
-1.67358
 20
135.837
 11
-1.74344
 21
136.052
  0
LINE
  8
0
 10
-1.74344
 20
136.052
 11
-1.7858
 21
136.274
  0
LINE
  8
0
 10
-1.7858
 20
136.274
 11
-1.79999
 21
136.5
  0
LINE
  8
0
 10
-1.79999
 20
136.5
 11
-1.7858
 21
136.726
  0
LINE
  8
0
 10
-1.7858
 20
136.726
 11
-1.74344
 21
136.948
  0
LINE
  8
0
 10
-1.74344
 20
136.948
 11
-1.67358
 21
137.163
  0
LINE
  8
0
 10
-1.67358
 20
137.163
 11
-1.57735
 21
137.367
  0
LINE
  8
0
 10
-1.57735
 20
137.367
 11
-1.45622
 21
137.558
  0
LINE
  8
0
 10
-1.45622
 20
137.558
 11
-1.31213
 21
137.732
  0
LINE
  8
0
 10
-1.31213
 20
137.732
 11
-1.14735
 21
137.887
  0
LINE
  8
0
 10
-1.14735
 20
137.887
 11
-0.964478
 21
138.02
  0
LINE
  8
0
 10
-0.964478
 20
138.02
 11
-0.766388
 21
138.129
  0
LINE
  8
0
 10
-0.766388
 20
138.129
 11
-0.556229
 21
138.212
  0
LINE
  8
0
 10
-0.556229
 20
138.212
 11
-0.33728
 21
138.268
  0
LINE
  8
0
 10
-0.33728
 20
138.268
 11
-0.113022
 21
138.296
  0
LINE
  8
0
 10
-0.113022
 20
138.296
 11
0.113022
 21
138.296
  0
LINE
  8
0
 10
0.113022
 20
138.296
 11
0.33728
 21
138.268
  0
LINE
  8
0
 10
0.33728
 20
138.268
 11
0.556229
 21
138.212
  0
LINE
  8
0
 10
0.556229
 20
138.212
 11
0.766388
 21
138.129
  0
LINE
  8
0
 10
0.766388
 20
138.129
 11
0.964478
 21
138.02
  0
LINE
  8
0
 10
0.964478
 20
138.02
 11
1.14735
 21
137.887
  0
LINE
  8
0
 10
1.14735
 20
137.887
 11
1.31213
 21
137.732
  0
LINE
  8
0
 10
1.31213
 20
137.732
 11
1.45622
 21
137.558
  0
LINE
  8
0
 10
1.45622
 20
137.558
 11
1.57735
 21
137.367
  0
LINE
  8
0
 10
1.57735
 20
137.367
 11
1.67358
 21
137.163
  0
LINE
  8
0
 10
1.67358
 20
137.163
 11
1.74344
 21
136.948
  0
LINE
  8
0
 10
1.74344
 20
136.948
 11
1.7858
 21
136.726
  0
LINE
  8
0
 10
1.7858
 20
136.726
 11
1.79999
 21
136.5
  0
LINE
  8
0
 10
1.79999
 20
136.5
 11
1.7858
 21
136.274
  0
LINE
  8
0
 10
1.7858
 20
136.274
 11
1.74344
 21
136.052
  0
LINE
  8
0
 10
1.74344
 20
136.052
 11
1.67358
 21
135.837
  0
LINE
  8
0
 10
1.67358
 20
135.837
 11
1.57735
 21
135.633
  0
LINE
  8
0
 10
1.57735
 20
135.633
 11
1.45622
 21
135.442
  0
LINE
  8
0
 10
1.45622
 20
135.442
 11
1.31213
 21
135.268
  0
LINE
  8
0
 10
1.31213
 20
135.268
 11
1.14735
 21
135.113
  0
LINE
  8
0
 10
1.14735
 20
135.113
 11
0.964478
 21
134.98
  0
LINE
  8
0
 10
0.964478
 20
134.98
 11
0.766388
 21
134.871
  0
LINE
  8
0
 10
0.766388
 20
134.871
 11
0.556229
 21
134.788
  0
LINE
  8
0
 10
0.556229
 20
134.788
 11
0.33728
 21
134.732
  0
LINE
  8
0
 10
0.33728
 20
134.732
 11
0.113022
 21
134.704
  0
LINE
  8
0
 10
0.113022
 20
134.704
 11
-0.113022
 21
134.704
  0
LINE
  8
0
 10
-0.113022
 20
59.7036
 11
-0.33728
 21
59.7319
  0
LINE
  8
0
 10
-0.33728
 20
59.7319
 11
-0.556229
 21
59.7881
  0
LINE
  8
0
 10
-0.556229
 20
59.7881
 11
-0.766388
 21
59.8713
  0
LINE
  8
0
 10
-0.766388
 20
59.8713
 11
-0.964478
 21
59.9802
  0
LINE
  8
0
 10
-0.964478
 20
59.9802
 11
-1.14735
 21
60.1131
  0
LINE
  8
0
 10
-1.14735
 20
60.1131
 11
-1.31213
 21
60.2678
  0
LINE
  8
0
 10
-1.31213
 20
60.2678
 11
-1.45622
 21
60.442
  0
LINE
  8
0
 10
-1.45622
 20
60.442
 11
-1.57735
 21
60.6328
  0
LINE
  8
0
 10
-1.57735
 20
60.6328
 11
-1.67358
 21
60.8374
  0
LINE
  8
0
 10
-1.67358
 20
60.8374
 11
-1.74344
 21
61.0524
  0
LINE
  8
0
 10
-1.74344
 20
61.0524
 11
-1.7858
 21
61.2744
  0
LINE
  8
0
 10
-1.7858
 20
61.2744
 11
-1.79999
 21
61.5
  0
LINE
  8
0
 10
-1.79999
 20
61.5
 11
-1.7858
 21
61.7256
  0
LINE
  8
0
 10
-1.7858
 20
61.7256
 11
-1.74344
 21
61.9476
  0
LINE
  8
0
 10
-1.74344
 20
61.9476
 11
-1.67358
 21
62.1626
  0
LINE
  8
0
 10
-1.67358
 20
62.1626
 11
-1.57735
 21
62.3672
  0
LINE
  8
0
 10
-1.57735
 20
62.3672
 11
-1.45622
 21
62.558
  0
LINE
  8
0
 10
-1.45622
 20
62.558
 11
-1.31213
 21
62.7322
  0
LINE
  8
0
 10
-1.31213
 20
62.7322
 11
-1.14735
 21
62.8869
  0
LINE
  8
0
 10
-1.14735
 20
62.8869
 11
-0.964478
 21
63.0198
  0
LINE
  8
0
 10
-0.964478
 20
63.0198
 11
-0.766388
 21
63.1287
  0
LINE
  8
0
 10
-0.766388
 20
63.1287
 11
-0.556229
 21
63.2119
  0
LINE
  8
0
 10
-0.556229
 20
63.2119
 11
-0.33728
 21
63.2681
  0
LINE
  8
0
 10
-0.33728
 20
63.2681
 11
-0.113022
 21
63.2964
  0
LINE
  8
0
 10
-0.113022
 20
63.2964
 11
0.113022
 21
63.2964
  0
LINE
  8
0
 10
0.113022
 20
63.2964
 11
0.33728
 21
63.2681
  0
LINE
  8
0
 10
0.33728
 20
63.2681
 11
0.556229
 21
63.2119
  0
LINE
  8
0
 10
0.556229
 20
63.2119
 11
0.766388
 21
63.1287
  0
LINE
  8
0
 10
0.766388
 20
63.1287
 11
0.964478
 21
63.0198
  0
LINE
  8
0
 10
0.964478
 20
63.0198
 11
1.14735
 21
62.8869
  0
LINE
  8
0
 10
1.14735
 20
62.8869
 11
1.31213
 21
62.7322
  0
LINE
  8
0
 10
1.31213
 20
62.7322
 11
1.45622
 21
62.558
  0
LINE
  8
0
 10
1.45622
 20
62.558
 11
1.57735
 21
62.3672
  0
LINE
  8
0
 10
1.57735
 20
62.3672
 11
1.67358
 21
62.1626
  0
LINE
  8
0
 10
1.67358
 20
62.1626
 11
1.74344
 21
61.9476
  0
LINE
  8
0
 10
1.74344
 20
61.9476
 11
1.7858
 21
61.7256
  0
LINE
  8
0
 10
1.7858
 20
61.7256
 11
1.79999
 21
61.5
  0
LINE
  8
0
 10
1.79999
 20
61.5
 11
1.7858
 21
61.2744
  0
LINE
  8
0
 10
1.7858
 20
61.2744
 11
1.74344
 21
61.0524
  0
LINE
  8
0
 10
1.74344
 20
61.0524
 11
1.67358
 21
60.8374
  0
LINE
  8
0
 10
1.67358
 20
60.8374
 11
1.57735
 21
60.6328
  0
LINE
  8
0
 10
1.57735
 20
60.6328
 11
1.45622
 21
60.442
  0
LINE
  8
0
 10
1.45622
 20
60.442
 11
1.31213
 21
60.2678
  0
LINE
  8
0
 10
1.31213
 20
60.2678
 11
1.14735
 21
60.1131
  0
LINE
  8
0
 10
1.14735
 20
60.1131
 11
0.964478
 21
59.9802
  0
LINE
  8
0
 10
0.964478
 20
59.9802
 11
0.766388
 21
59.8713
  0
LINE
  8
0
 10
0.766388
 20
59.8713
 11
0.556229
 21
59.7881
  0
LINE
  8
0
 10
0.556229
 20
59.7881
 11
0.33728
 21
59.7319
  0
LINE
  8
0
 10
0.33728
 20
59.7319
 11
0.113022
 21
59.7036
  0
LINE
  8
0
 10
0.113022
 20
59.7036
 11
-0.113022
 21
59.7036
  0
LINE
  8
0
 10
-4.5
 20
44.6148
 11
-7.5
 21
44.6148
  0
LINE
  8
0
 10
-7.5
 20
44.6148
 11
-7.5
 21
-44.6148
  0
LINE
  8
0
 10
-7.5
 20
-44.6148
 11
-4.5
 21
-44.6148
  0
LINE
  8
0
 10
-4.5
 20
-44.6148
 11
-4.5
 21
44.6148
  0
ENDSEC
  0
SECTION
  2
OBJECTS
  0
DICTIONARY
  0
ENDSEC
  0
EOF
