<?xml version="1.0" standalone="no"?>
<!DOCTYPE svg PUBLIC "-//W3C//DTD SVG 1.1//EN" "http://www.w3.org/Graphics/SVG/1.1/DTD/svg11.dtd">
<svg width="226mm" height="1012mm" viewBox="-113 -1934 226 1012" xmlns="http://www.w3.org/2000/svg" version="1.1">
<title>OpenSCAD Model</title>
<path d="
M 108.437,-1738.59 L 109.045,-1738.74 L 109.629,-1738.98 L 110.179,-1739.28 L 110.687,-1739.65 L 111.145,-1740.08
 L 111.545,-1740.56 L 111.882,-1741.09 L 112.149,-1741.66 L 112.343,-1742.26 L 112.461,-1742.87 L 112.5,-1743.5
 L 112.5,-1928.5 L 112.461,-1929.13 L 112.343,-1929.74 L 112.149,-1930.34 L 111.882,-1930.91 L 111.545,-1931.44
 L 111.145,-1931.92 L 110.687,-1932.35 L 110.179,-1932.72 L 109.629,-1933.02 L 109.045,-1933.26 L 108.437,-1933.41
 L 107.814,-1933.49 L -107.814,-1933.49 L -108.437,-1933.41 L -109.045,-1933.26 L -109.629,-1933.02 L -110.179,-1932.72
 L -110.687,-1932.35 L -111.145,-1931.92 L -111.545,-1931.44 L -111.882,-1930.91 L -112.149,-1930.34 L -112.343,-1929.74
 L -112.461,-1929.13 L -112.5,-1928.5 L -112.5,-1743.5 L -112.461,-1742.87 L -112.343,-1742.26 L -112.149,-1741.66
 L -111.882,-1741.09 L -111.545,-1740.56 L -111.145,-1740.08 L -110.687,-1739.65 L -110.179,-1739.28 L -109.629,-1738.98
 L -109.045,-1738.74 L -108.437,-1738.59 L -107.814,-1738.51 L 107.814,-1738.51 z
M -107.548,-1739.01 L -108.14,-1739.08 L -108.718,-1739.23 L -109.272,-1739.45 L -109.795,-1739.74 L -110.278,-1740.09
 L -110.713,-1740.5 L -111.093,-1740.96 L -111.412,-1741.46 L -111.666,-1742 L -111.851,-1742.57 L -111.963,-1743.15
 L -112,-1743.75 L -112,-1928.25 L -111.963,-1928.85 L -111.851,-1929.43 L -111.666,-1930 L -111.412,-1930.54
 L -111.093,-1931.04 L -110.713,-1931.5 L -110.278,-1931.91 L -109.795,-1932.26 L -109.272,-1932.55 L -108.718,-1932.77
 L -108.14,-1932.92 L -107.548,-1932.99 L 107.548,-1932.99 L 108.14,-1932.92 L 108.718,-1932.77 L 109.272,-1932.55
 L 109.795,-1932.26 L 110.278,-1931.91 L 110.713,-1931.5 L 111.093,-1931.04 L 111.412,-1930.54 L 111.666,-1930
 L 111.851,-1929.43 L 111.963,-1928.85 L 112,-1928.25 L 112,-1743.75 L 111.963,-1743.15 L 111.851,-1742.57
 L 111.666,-1742 L 111.412,-1741.46 L 111.093,-1740.96 L 110.713,-1740.5 L 110.278,-1740.09 L 109.795,-1739.74
 L 109.272,-1739.45 L 108.718,-1739.23 L 108.14,-1739.08 L 107.548,-1739.01 z
M 108.437,-1534.59 L 109.045,-1534.74 L 109.629,-1534.98 L 110.179,-1535.28 L 110.687,-1535.65 L 111.145,-1536.08
 L 111.545,-1536.56 L 111.882,-1537.09 L 112.149,-1537.66 L 112.343,-1538.26 L 112.461,-1538.87 L 112.5,-1539.5
 L 112.5,-1724.5 L 112.461,-1725.13 L 112.343,-1725.74 L 112.149,-1726.34 L 111.882,-1726.91 L 111.545,-1727.44
 L 111.145,-1727.92 L 110.687,-1728.35 L 110.179,-1728.72 L 109.629,-1729.02 L 109.045,-1729.26 L 108.437,-1729.41
 L 107.814,-1729.49 L -107.814,-1729.49 L -108.437,-1729.41 L -109.045,-1729.26 L -109.629,-1729.02 L -110.179,-1728.72
 L -110.687,-1728.35 L -111.145,-1727.92 L -111.545,-1727.44 L -111.882,-1726.91 L -112.149,-1726.34 L -112.343,-1725.74
 L -112.461,-1725.13 L -112.5,-1724.5 L -112.5,-1539.5 L -112.461,-1538.87 L -112.343,-1538.26 L -112.149,-1537.66
 L -111.882,-1537.09 L -111.545,-1536.56 L -111.145,-1536.08 L -110.687,-1535.65 L -110.179,-1535.28 L -109.629,-1534.98
 L -109.045,-1534.74 L -108.437,-1534.59 L -107.814,-1534.51 L 107.814,-1534.51 z
M -107.548,-1535.01 L -108.14,-1535.08 L -108.718,-1535.23 L -109.272,-1535.45 L -109.795,-1535.74 L -110.278,-1536.09
 L -110.713,-1536.5 L -111.093,-1536.96 L -111.412,-1537.46 L -111.666,-1538 L -111.851,-1538.57 L -111.963,-1539.15
 L -112,-1539.75 L -112,-1724.25 L -111.963,-1724.85 L -111.851,-1725.43 L -111.666,-1726 L -111.412,-1726.54
 L -111.093,-1727.04 L -110.713,-1727.5 L -110.278,-1727.91 L -109.795,-1728.26 L -109.272,-1728.55 L -108.718,-1728.77
 L -108.14,-1728.92 L -107.548,-1728.99 L 107.548,-1728.99 L 108.14,-1728.92 L 108.718,-1728.77 L 109.272,-1728.55
 L 109.795,-1728.26 L 110.278,-1727.91 L 110.713,-1727.5 L 111.093,-1727.04 L 111.412,-1726.54 L 111.666,-1726
 L 111.851,-1725.43 L 111.963,-1724.85 L 112,-1724.25 L 112,-1539.75 L 111.963,-1539.15 L 111.851,-1538.57
 L 111.666,-1538 L 111.412,-1537.46 L 111.093,-1536.96 L 110.713,-1536.5 L 110.278,-1536.09 L 109.795,-1535.74
 L 109.272,-1535.45 L 108.718,-1535.23 L 108.14,-1535.08 L 107.548,-1535.01 z
M 108.437,-1330.59 L 109.045,-1330.74 L 109.629,-1330.98 L 110.179,-1331.28 L 110.687,-1331.65 L 111.145,-1332.08
 L 111.545,-1332.56 L 111.882,-1333.09 L 112.149,-1333.66 L 112.343,-1334.26 L 112.461,-1334.87 L 112.5,-1335.5
 L 112.5,-1520.5 L 112.461,-1521.13 L 112.343,-1521.74 L 112.149,-1522.34 L 111.882,-1522.91 L 111.545,-1523.44
 L 111.145,-1523.92 L 110.687,-1524.35 L 110.179,-1524.72 L 109.629,-1525.02 L 109.045,-1525.26 L 108.437,-1525.41
 L 107.814,-1525.49 L -107.814,-1525.49 L -108.437,-1525.41 L -109.045,-1525.26 L -109.629,-1525.02 L -110.179,-1524.72
 L -110.687,-1524.35 L -111.145,-1523.92 L -111.545,-1523.44 L -111.882,-1522.91 L -112.149,-1522.34 L -112.343,-1521.74
 L -112.461,-1521.13 L -112.5,-1520.5 L -112.5,-1335.5 L -112.461,-1334.87 L -112.343,-1334.26 L -112.149,-1333.66
 L -111.882,-1333.09 L -111.545,-1332.56 L -111.145,-1332.08 L -110.687,-1331.65 L -110.179,-1331.28 L -109.629,-1330.98
 L -109.045,-1330.74 L -108.437,-1330.59 L -107.814,-1330.51 L 107.814,-1330.51 z
M -107.548,-1331.01 L -108.14,-1331.08 L -108.718,-1331.23 L -109.272,-1331.45 L -109.795,-1331.74 L -110.278,-1332.09
 L -110.713,-1332.5 L -111.093,-1332.96 L -111.412,-1333.46 L -111.666,-1334 L -111.851,-1334.57 L -111.963,-1335.15
 L -112,-1335.75 L -112,-1520.25 L -111.963,-1520.85 L -111.851,-1521.43 L -111.666,-1522 L -111.412,-1522.54
 L -111.093,-1523.04 L -110.713,-1523.5 L -110.278,-1523.91 L -109.795,-1524.26 L -109.272,-1524.55 L -108.718,-1524.77
 L -108.14,-1524.92 L -107.548,-1524.99 L 107.548,-1524.99 L 108.14,-1524.92 L 108.718,-1524.77 L 109.272,-1524.55
 L 109.795,-1524.26 L 110.278,-1523.91 L 110.713,-1523.5 L 111.093,-1523.04 L 111.412,-1522.54 L 111.666,-1522
 L 111.851,-1521.43 L 111.963,-1520.85 L 112,-1520.25 L 112,-1335.75 L 111.963,-1335.15 L 111.851,-1334.57
 L 111.666,-1334 L 111.412,-1333.46 L 111.093,-1332.96 L 110.713,-1332.5 L 110.278,-1332.09 L 109.795,-1331.74
 L 109.272,-1331.45 L 108.718,-1331.23 L 108.14,-1331.08 L 107.548,-1331.01 z
M 108.437,-1126.59 L 109.045,-1126.74 L 109.629,-1126.98 L 110.179,-1127.28 L 110.687,-1127.65 L 111.145,-1128.08
 L 111.545,-1128.56 L 111.882,-1129.09 L 112.149,-1129.66 L 112.343,-1130.26 L 112.461,-1130.87 L 112.5,-1131.5
 L 112.5,-1316.5 L 112.461,-1317.13 L 112.343,-1317.74 L 112.149,-1318.34 L 111.882,-1318.91 L 111.545,-1319.44
 L 111.145,-1319.92 L 110.687,-1320.35 L 110.179,-1320.72 L 109.629,-1321.02 L 109.045,-1321.26 L 108.437,-1321.41
 L 107.814,-1321.49 L -107.814,-1321.49 L -108.437,-1321.41 L -109.045,-1321.26 L -109.629,-1321.02 L -110.179,-1320.72
 L -110.687,-1320.35 L -111.145,-1319.92 L -111.545,-1319.44 L -111.882,-1318.91 L -112.149,-1318.34 L -112.343,-1317.74
 L -112.461,-1317.13 L -112.5,-1316.5 L -112.5,-1131.5 L -112.461,-1130.87 L -112.343,-1130.26 L -112.149,-1129.66
 L -111.882,-1129.09 L -111.545,-1128.56 L -111.145,-1128.08 L -110.687,-1127.65 L -110.179,-1127.28 L -109.629,-1126.98
 L -109.045,-1126.74 L -108.437,-1126.59 L -107.814,-1126.51 L 107.814,-1126.51 z
M -107.537,-1127.18 L -108.108,-1127.25 L -108.665,-1127.4 L -109.199,-1127.61 L -109.703,-1127.88 L -110.168,-1128.22
 L -110.588,-1128.62 L -110.954,-1129.06 L -111.262,-1129.54 L -111.507,-1130.06 L -111.685,-1130.61 L -111.792,-1131.18
 L -111.828,-1131.75 L -111.828,-1316.25 L -111.792,-1316.82 L -111.685,-1317.39 L -111.507,-1317.94 L -111.262,-1318.46
 L -110.954,-1318.94 L -110.588,-1319.38 L -110.168,-1319.78 L -109.703,-1320.12 L -109.199,-1320.39 L -108.665,-1320.6
 L -108.108,-1320.75 L -107.537,-1320.82 L 107.537,-1320.82 L 108.108,-1320.75 L 108.665,-1320.6 L 109.199,-1320.39
 L 109.703,-1320.12 L 110.168,-1319.78 L 110.588,-1319.38 L 110.954,-1318.94 L 111.262,-1318.46 L 111.507,-1317.94
 L 111.685,-1317.39 L 111.792,-1316.82 L 111.828,-1316.25 L 111.828,-1131.75 L 111.792,-1131.18 L 111.685,-1130.61
 L 111.507,-1130.06 L 111.262,-1129.54 L 110.954,-1129.06 L 110.588,-1128.62 L 110.168,-1128.22 L 109.703,-1127.88
 L 109.199,-1127.61 L 108.665,-1127.4 L 108.108,-1127.25 L 107.537,-1127.18 z
M 108.437,-922.589 L 109.045,-922.745 L 109.629,-922.976 L 110.179,-923.278 L 110.687,-923.647 L 111.145,-924.077
 L 111.545,-924.561 L 111.882,-925.091 L 112.149,-925.659 L 112.343,-926.257 L 112.461,-926.873 L 112.5,-927.5
 L 112.5,-1112.5 L 112.461,-1113.13 L 112.343,-1113.74 L 112.149,-1114.34 L 111.882,-1114.91 L 111.545,-1115.44
 L 111.145,-1115.92 L 110.687,-1116.35 L 110.179,-1116.72 L 109.629,-1117.02 L 109.045,-1117.26 L 108.437,-1117.41
 L 107.814,-1117.49 L -107.814,-1117.49 L -108.437,-1117.41 L -109.045,-1117.26 L -109.629,-1117.02 L -110.179,-1116.72
 L -110.687,-1116.35 L -111.145,-1115.92 L -111.545,-1115.44 L -111.882,-1114.91 L -112.149,-1114.34 L -112.343,-1113.74
 L -112.461,-1113.13 L -112.5,-1112.5 L -112.5,-927.5 L -112.461,-926.873 L -112.343,-926.257 L -112.149,-925.659
 L -111.882,-925.091 L -111.545,-924.561 L -111.145,-924.077 L -110.687,-923.647 L -110.179,-923.278 L -109.629,-922.976
 L -109.045,-922.745 L -108.437,-922.589 L -107.814,-922.51 L 107.814,-922.51 z
M -107.382,-925.645 L -107.645,-925.678 L -107.902,-925.744 L -108.148,-925.841 L -108.38,-925.969 L -108.595,-926.124
 L -108.788,-926.306 L -108.957,-926.51 L -109.099,-926.734 L -109.211,-926.973 L -109.293,-927.225 L -109.343,-927.486
 L -109.36,-927.75 L -109.36,-1112.25 L -109.343,-1112.51 L -109.293,-1112.77 L -109.211,-1113.03 L -109.099,-1113.27
 L -108.957,-1113.49 L -108.788,-1113.69 L -108.595,-1113.88 L -108.38,-1114.03 L -108.148,-1114.16 L -107.902,-1114.26
 L -107.645,-1114.32 L -107.382,-1114.36 L 107.382,-1114.36 L 107.645,-1114.32 L 107.902,-1114.26 L 108.148,-1114.16
 L 108.38,-1114.03 L 108.595,-1113.88 L 108.788,-1113.69 L 108.957,-1113.49 L 109.099,-1113.27 L 109.211,-1113.03
 L 109.293,-1112.77 L 109.343,-1112.51 L 109.36,-1112.25 L 109.36,-927.75 L 109.343,-927.486 L 109.293,-927.225
 L 109.211,-926.973 L 109.099,-926.734 L 108.957,-926.51 L 108.788,-926.306 L 108.595,-926.124 L 108.38,-925.969
 L 108.148,-925.841 L 107.902,-925.744 L 107.645,-925.678 L 107.382,-925.645 z
" stroke="black" fill="lightgray" stroke-width="0.5"/>
</svg>
