<?xml version="1.0" standalone="no"?>
<!DOCTYPE svg PUBLIC "-//W3C//DTD SVG 1.1//EN" "http://www.w3.org/Graphics/SVG/1.1/DTD/svg11.dtd">
<svg width="30mm" height="688mm" viewBox="-15 -1127 30 688" xmlns="http://www.w3.org/2000/svg" version="1.1">
<title>OpenSCAD Model</title>
<path d="
M 10.9369,-961.589 L 11.5451,-961.745 L 12.1289,-961.976 L 12.6791,-962.278 L 13.1871,-962.647 L 13.6448,-963.077
 L 14.0451,-963.561 L 14.3815,-964.091 L 14.6489,-964.659 L 14.8429,-965.257 L 14.9606,-965.873 L 15,-966.5
 L 15,-1121.5 L 14.9606,-1122.13 L 14.8429,-1122.74 L 14.6489,-1123.34 L 14.3815,-1123.91 L 14.0451,-1124.44
 L 13.6448,-1124.92 L 13.1871,-1125.35 L 12.6791,-1125.72 L 12.1289,-1126.02 L 11.5451,-1126.26 L 10.9369,-1126.41
 L 10.3139,-1126.49 L -10.3139,-1126.49 L -10.9369,-1126.41 L -11.5451,-1126.26 L -12.1289,-1126.02 L -12.6791,-1125.72
 L -13.1871,-1125.35 L -13.6448,-1124.92 L -14.0451,-1124.44 L -14.3815,-1123.91 L -14.6489,-1123.34 L -14.8429,-1122.74
 L -14.9606,-1122.13 L -15,-1121.5 L -15,-966.5 L -14.9606,-965.873 L -14.8429,-965.257 L -14.6489,-964.659
 L -14.3815,-964.091 L -14.0451,-963.561 L -13.6448,-963.077 L -13.1871,-962.647 L -12.6791,-962.278 L -12.1289,-961.976
 L -11.5451,-961.745 L -10.9369,-961.589 L -10.3139,-961.51 L 10.3139,-961.51 z
M -9.75116,-963.008 L -10.2495,-963.071 L -10.7361,-963.196 L -11.2031,-963.381 L -11.6433,-963.623 L -12.0497,-963.918
 L -12.4159,-964.262 L -12.7361,-964.649 L -13.0052,-965.073 L -13.2191,-965.528 L -13.3743,-966.005 L -13.4684,-966.499
 L -13.5,-967 L -13.5,-1121 L -13.4684,-1121.5 L -13.3743,-1121.99 L -13.2191,-1122.47 L -13.0052,-1122.93
 L -12.7361,-1123.35 L -12.4159,-1123.74 L -12.0497,-1124.08 L -11.6433,-1124.38 L -11.2031,-1124.62 L -10.7361,-1124.8
 L -10.2495,-1124.93 L -9.75116,-1124.99 L 9.75116,-1124.99 L 10.2495,-1124.93 L 10.7361,-1124.8 L 11.2031,-1124.62
 L 11.6433,-1124.38 L 12.0497,-1124.08 L 12.4159,-1123.74 L 12.7361,-1123.35 L 13.0052,-1122.93 L 13.2191,-1122.47
 L 13.3743,-1121.99 L 13.4684,-1121.5 L 13.5,-1121 L 13.5,-967 L 13.4684,-966.499 L 13.3743,-966.005
 L 13.2191,-965.528 L 13.0052,-965.073 L 12.7361,-964.649 L 12.4159,-964.262 L 12.0497,-963.918 L 11.6433,-963.623
 L 11.2031,-963.381 L 10.7361,-963.196 L 10.2495,-963.071 L 9.75116,-963.008 z
M 10.9369,-787.589 L 11.5451,-787.745 L 12.1289,-787.976 L 12.6791,-788.278 L 13.1871,-788.647 L 13.6448,-789.077
 L 14.0451,-789.561 L 14.3815,-790.091 L 14.6489,-790.659 L 14.8429,-791.257 L 14.9606,-791.873 L 15,-792.5
 L 15,-947.5 L 14.9606,-948.127 L 14.8429,-948.743 L 14.6489,-949.341 L 14.3815,-949.909 L 14.0451,-950.439
 L 13.6448,-950.923 L 13.1871,-951.353 L 12.6791,-951.722 L 12.1289,-952.024 L 11.5451,-952.255 L 10.9369,-952.411
 L 10.3139,-952.49 L -10.3139,-952.49 L -10.9369,-952.411 L -11.5451,-952.255 L -12.1289,-952.024 L -12.6791,-951.722
 L -13.1871,-951.353 L -13.6448,-950.923 L -14.0451,-950.439 L -14.3815,-949.909 L -14.6489,-949.341 L -14.8429,-948.743
 L -14.9606,-948.127 L -15,-947.5 L -15,-792.5 L -14.9606,-791.873 L -14.8429,-791.257 L -14.6489,-790.659
 L -14.3815,-790.091 L -14.0451,-789.561 L -13.6448,-789.077 L -13.1871,-788.647 L -12.6791,-788.278 L -12.1289,-787.976
 L -11.5451,-787.745 L -10.9369,-787.589 L -10.3139,-787.51 L 10.3139,-787.51 z
M -9.74316,-789.135 L -10.2256,-789.196 L -10.6967,-789.317 L -11.1489,-789.496 L -11.5751,-789.73 L -11.9685,-790.016
 L -12.323,-790.349 L -12.633,-790.724 L -12.8936,-791.134 L -13.1007,-791.574 L -13.251,-792.037 L -13.3421,-792.515
 L -13.3726,-793 L -13.3726,-947 L -13.3421,-947.485 L -13.251,-947.963 L -13.1007,-948.426 L -12.8936,-948.866
 L -12.633,-949.276 L -12.323,-949.651 L -11.9685,-949.984 L -11.5751,-950.27 L -11.1489,-950.504 L -10.6967,-950.683
 L -10.2256,-950.804 L -9.74316,-950.865 L 9.74316,-950.865 L 10.2256,-950.804 L 10.6967,-950.683 L 11.1489,-950.504
 L 11.5751,-950.27 L 11.9685,-949.984 L 12.323,-949.651 L 12.633,-949.276 L 12.8936,-948.866 L 13.1007,-948.426
 L 13.251,-947.963 L 13.3421,-947.485 L 13.3726,-947 L 13.3726,-793 L 13.3421,-792.515 L 13.251,-792.037
 L 13.1007,-791.574 L 12.8936,-791.134 L 12.633,-790.724 L 12.323,-790.349 L 11.9685,-790.016 L 11.5751,-789.73
 L 11.1489,-789.496 L 10.6967,-789.317 L 10.2256,-789.196 L 9.74316,-789.135 z
M 10.9369,-613.589 L 11.5451,-613.745 L 12.1289,-613.976 L 12.6791,-614.278 L 13.1871,-614.647 L 13.6448,-615.077
 L 14.0451,-615.561 L 14.3815,-616.091 L 14.6489,-616.659 L 14.8429,-617.257 L 14.9606,-617.873 L 15,-618.5
 L 15,-773.5 L 14.9606,-774.127 L 14.8429,-774.743 L 14.6489,-775.341 L 14.3815,-775.909 L 14.0451,-776.439
 L 13.6448,-776.923 L 13.1871,-777.353 L 12.6791,-777.722 L 12.1289,-778.024 L 11.5451,-778.255 L 10.9369,-778.411
 L 10.3139,-778.49 L -10.3139,-778.49 L -10.9369,-778.411 L -11.5451,-778.255 L -12.1289,-778.024 L -12.6791,-777.722
 L -13.1871,-777.353 L -13.6448,-776.923 L -14.0451,-776.439 L -14.3815,-775.909 L -14.6489,-775.341 L -14.8429,-774.743
 L -14.9606,-774.127 L -15,-773.5 L -15,-618.5 L -14.9606,-617.873 L -14.8429,-617.257 L -14.6489,-616.659
 L -14.3815,-616.091 L -14.0451,-615.561 L -13.6448,-615.077 L -13.1871,-614.647 L -12.6791,-614.278 L -12.1289,-613.976
 L -11.5451,-613.745 L -10.9369,-613.589 L -10.3139,-613.51 L 10.3139,-613.51 z
M 7.34929,-768.605 L 7.05028,-768.643 L 6.75835,-768.717 L 6.47812,-768.828 L 6.214,-768.974 L 5.97017,-769.151
 L 5.75047,-769.357 L 5.55835,-769.589 L 5.39685,-769.844 L 5.26852,-770.117 L 5.1754,-770.403 L 5.11891,-770.699
 L 5.09999,-771 L 5.11891,-771.301 L 5.1754,-771.597 L 5.26852,-771.883 L 5.39685,-772.156 L 5.55835,-772.411
 L 5.75047,-772.643 L 5.97017,-772.849 L 6.214,-773.026 L 6.47812,-773.172 L 6.75835,-773.283 L 7.05028,-773.357
 L 7.34929,-773.395 L 7.6507,-773.395 L 7.94971,-773.357 L 8.24164,-773.283 L 8.52187,-773.172 L 8.78598,-773.026
 L 9.02982,-772.849 L 9.24951,-772.643 L 9.44164,-772.411 L 9.60313,-772.156 L 9.73146,-771.883 L 9.82458,-771.597
 L 9.88107,-771.301 L 9.89999,-771 L 9.88107,-770.699 L 9.82458,-770.403 L 9.73146,-770.117 L 9.60313,-769.844
 L 9.44164,-769.589 L 9.24951,-769.357 L 9.02982,-769.151 L 8.78598,-768.974 L 8.52187,-768.828 L 8.24164,-768.717
 L 7.94971,-768.643 L 7.6507,-768.605 z
M -7.6507,-768.605 L -7.94971,-768.643 L -8.24164,-768.717 L -8.52187,-768.828 L -8.78598,-768.974 L -9.02982,-769.151
 L -9.24951,-769.357 L -9.44164,-769.589 L -9.60313,-769.844 L -9.73146,-770.117 L -9.82458,-770.403 L -9.88107,-770.699
 L -9.89999,-771 L -9.88107,-771.301 L -9.82458,-771.597 L -9.73146,-771.883 L -9.60313,-772.156 L -9.44164,-772.411
 L -9.24951,-772.643 L -9.02982,-772.849 L -8.78598,-773.026 L -8.52187,-773.172 L -8.24164,-773.283 L -7.94971,-773.357
 L -7.6507,-773.395 L -7.34929,-773.395 L -7.05028,-773.357 L -6.75835,-773.283 L -6.47812,-773.172 L -6.214,-773.026
 L -5.97017,-772.849 L -5.75047,-772.643 L -5.55835,-772.411 L -5.39685,-772.156 L -5.26852,-771.883 L -5.1754,-771.597
 L -5.11891,-771.301 L -5.09999,-771 L -5.11891,-770.699 L -5.1754,-770.403 L -5.26852,-770.117 L -5.39685,-769.844
 L -5.55835,-769.589 L -5.75047,-769.357 L -5.97017,-769.151 L -6.214,-768.974 L -6.47812,-768.828 L -6.75835,-768.717
 L -7.05028,-768.643 L -7.34929,-768.605 z
M 7.34929,-618.605 L 7.05028,-618.643 L 6.75835,-618.717 L 6.47812,-618.828 L 6.214,-618.974 L 5.97017,-619.151
 L 5.75047,-619.357 L 5.55835,-619.589 L 5.39685,-619.844 L 5.26852,-620.117 L 5.1754,-620.403 L 5.11891,-620.699
 L 5.09999,-621 L 5.11891,-621.301 L 5.1754,-621.597 L 5.26852,-621.883 L 5.39685,-622.156 L 5.55835,-622.411
 L 5.75047,-622.643 L 5.97017,-622.849 L 6.214,-623.026 L 6.47812,-623.172 L 6.75835,-623.283 L 7.05028,-623.357
 L 7.34929,-623.395 L 7.6507,-623.395 L 7.94971,-623.357 L 8.24164,-623.283 L 8.52187,-623.172 L 8.78598,-623.026
 L 9.02982,-622.849 L 9.24951,-622.643 L 9.44164,-622.411 L 9.60313,-622.156 L 9.73146,-621.883 L 9.82458,-621.597
 L 9.88107,-621.301 L 9.89999,-621 L 9.88107,-620.699 L 9.82458,-620.403 L 9.73146,-620.117 L 9.60313,-619.844
 L 9.44164,-619.589 L 9.24951,-619.357 L 9.02982,-619.151 L 8.78598,-618.974 L 8.52187,-618.828 L 8.24164,-618.717
 L 7.94971,-618.643 L 7.6507,-618.605 z
M -7.6507,-618.605 L -7.94971,-618.643 L -8.24164,-618.717 L -8.52187,-618.828 L -8.78598,-618.974 L -9.02982,-619.151
 L -9.24951,-619.357 L -9.44164,-619.589 L -9.60313,-619.844 L -9.73146,-620.117 L -9.82458,-620.403 L -9.88107,-620.699
 L -9.89999,-621 L -9.88107,-621.301 L -9.82458,-621.597 L -9.73146,-621.883 L -9.60313,-622.156 L -9.44164,-622.411
 L -9.24951,-622.643 L -9.02982,-622.849 L -8.78598,-623.026 L -8.52187,-623.172 L -8.24164,-623.283 L -7.94971,-623.357
 L -7.6507,-623.395 L -7.34929,-623.395 L -7.05028,-623.357 L -6.75835,-623.283 L -6.47812,-623.172 L -6.214,-623.026
 L -5.97017,-622.849 L -5.75047,-622.643 L -5.55835,-622.411 L -5.39685,-622.156 L -5.26852,-621.883 L -5.1754,-621.597
 L -5.11891,-621.301 L -5.09999,-621 L -5.11891,-620.699 L -5.1754,-620.403 L -5.26852,-620.117 L -5.39685,-619.844
 L -5.55835,-619.589 L -5.75047,-619.357 L -5.97017,-619.151 L -6.214,-618.974 L -6.47812,-618.828 L -6.75835,-618.717
 L -7.05028,-618.643 L -7.34929,-618.605 z
M 10.9369,-439.589 L 11.5451,-439.745 L 12.1289,-439.976 L 12.6791,-440.278 L 13.1871,-440.647 L 13.6448,-441.077
 L 14.0451,-441.561 L 14.3815,-442.091 L 14.6489,-442.659 L 14.8429,-443.257 L 14.9606,-443.873 L 15,-444.5
 L 15,-599.5 L 14.9606,-600.127 L 14.8429,-600.743 L 14.6489,-601.341 L 14.3815,-601.909 L 14.0451,-602.439
 L 13.6448,-602.923 L 13.1871,-603.353 L 12.6791,-603.722 L 12.1289,-604.024 L 11.5451,-604.255 L 10.9369,-604.411
 L 10.3139,-604.49 L -10.3139,-604.49 L -10.9369,-604.411 L -11.5451,-604.255 L -12.1289,-604.024 L -12.6791,-603.722
 L -13.1871,-603.353 L -13.6448,-602.923 L -14.0451,-602.439 L -14.3815,-601.909 L -14.6489,-601.341 L -14.8429,-600.743
 L -14.9606,-600.127 L -15,-599.5 L -15,-444.5 L -14.9606,-443.873 L -14.8429,-443.257 L -14.6489,-442.659
 L -14.3815,-442.091 L -14.0451,-441.561 L -13.6448,-441.077 L -13.1871,-440.647 L -12.6791,-440.278 L -12.1289,-439.976
 L -11.5451,-439.745 L -10.9369,-439.589 L -10.3139,-439.51 L 10.3139,-439.51 z
M 7.38696,-595.204 L 7.1627,-595.232 L 6.94376,-595.288 L 6.7336,-595.371 L 6.53551,-595.48 L 6.35263,-595.613
 L 6.18785,-595.768 L 6.04376,-595.942 L 5.92264,-596.133 L 5.8264,-596.337 L 5.75655,-596.552 L 5.71419,-596.774
 L 5.7,-597 L 5.71419,-597.226 L 5.75655,-597.448 L 5.8264,-597.663 L 5.92264,-597.867 L 6.04376,-598.058
 L 6.18785,-598.232 L 6.35263,-598.387 L 6.53551,-598.52 L 6.7336,-598.629 L 6.94376,-598.712 L 7.1627,-598.768
 L 7.38696,-598.796 L 7.61302,-598.796 L 7.83728,-598.768 L 8.05623,-598.712 L 8.26639,-598.629 L 8.46448,-598.52
 L 8.64735,-598.387 L 8.81213,-598.232 L 8.95622,-598.058 L 9.07735,-597.867 L 9.17358,-597.663 L 9.24344,-597.448
 L 9.2858,-597.226 L 9.29999,-597 L 9.2858,-596.774 L 9.24344,-596.552 L 9.17358,-596.337 L 9.07735,-596.133
 L 8.95622,-595.942 L 8.81213,-595.768 L 8.64735,-595.613 L 8.46448,-595.48 L 8.26639,-595.371 L 8.05623,-595.288
 L 7.83728,-595.232 L 7.61302,-595.204 z
M -7.61302,-595.204 L -7.83728,-595.232 L -8.05623,-595.288 L -8.26639,-595.371 L -8.46448,-595.48 L -8.64735,-595.613
 L -8.81213,-595.768 L -8.95622,-595.942 L -9.07735,-596.133 L -9.17358,-596.337 L -9.24344,-596.552 L -9.2858,-596.774
 L -9.29999,-597 L -9.2858,-597.226 L -9.24344,-597.448 L -9.17358,-597.663 L -9.07735,-597.867 L -8.95622,-598.058
 L -8.81213,-598.232 L -8.64735,-598.387 L -8.46448,-598.52 L -8.26639,-598.629 L -8.05623,-598.712 L -7.83728,-598.768
 L -7.61302,-598.796 L -7.38696,-598.796 L -7.1627,-598.768 L -6.94376,-598.712 L -6.7336,-598.629 L -6.53551,-598.52
 L -6.35263,-598.387 L -6.18785,-598.232 L -6.04376,-598.058 L -5.92264,-597.867 L -5.8264,-597.663 L -5.75655,-597.448
 L -5.71419,-597.226 L -5.7,-597 L -5.71419,-596.774 L -5.75655,-596.552 L -5.8264,-596.337 L -5.92264,-596.133
 L -6.04376,-595.942 L -6.18785,-595.768 L -6.35263,-595.613 L -6.53551,-595.48 L -6.7336,-595.371 L -6.94376,-595.288
 L -7.1627,-595.232 L -7.38696,-595.204 z
M -7.61302,-445.204 L -7.83728,-445.232 L -8.05623,-445.288 L -8.26639,-445.371 L -8.46448,-445.48 L -8.64735,-445.613
 L -8.81213,-445.768 L -8.95622,-445.942 L -9.07735,-446.133 L -9.17358,-446.337 L -9.24344,-446.552 L -9.2858,-446.774
 L -9.29999,-447 L -9.2858,-447.226 L -9.24344,-447.448 L -9.17358,-447.663 L -9.07735,-447.867 L -8.95622,-448.058
 L -8.81213,-448.232 L -8.64735,-448.387 L -8.46448,-448.52 L -8.26639,-448.629 L -8.05623,-448.712 L -7.83728,-448.768
 L -7.61302,-448.796 L -7.38696,-448.796 L -7.1627,-448.768 L -6.94376,-448.712 L -6.7336,-448.629 L -6.53551,-448.52
 L -6.35263,-448.387 L -6.18785,-448.232 L -6.04376,-448.058 L -5.92264,-447.867 L -5.8264,-447.663 L -5.75655,-447.448
 L -5.71419,-447.226 L -5.7,-447 L -5.71419,-446.774 L -5.75655,-446.552 L -5.8264,-446.337 L -5.92264,-446.133
 L -6.04376,-445.942 L -6.18785,-445.768 L -6.35263,-445.613 L -6.53551,-445.48 L -6.7336,-445.371 L -6.94376,-445.288
 L -7.1627,-445.232 L -7.38696,-445.204 z
M 7.38696,-445.204 L 7.1627,-445.232 L 6.94376,-445.288 L 6.7336,-445.371 L 6.53551,-445.48 L 6.35263,-445.613
 L 6.18785,-445.768 L 6.04376,-445.942 L 5.92264,-446.133 L 5.8264,-446.337 L 5.75655,-446.552 L 5.71419,-446.774
 L 5.7,-447 L 5.71419,-447.226 L 5.75655,-447.448 L 5.8264,-447.663 L 5.92264,-447.867 L 6.04376,-448.058
 L 6.18785,-448.232 L 6.35263,-448.387 L 6.53551,-448.52 L 6.7336,-448.629 L 6.94376,-448.712 L 7.1627,-448.768
 L 7.38696,-448.796 L 7.61302,-448.796 L 7.83728,-448.768 L 8.05623,-448.712 L 8.26639,-448.629 L 8.46448,-448.52
 L 8.64735,-448.387 L 8.81213,-448.232 L 8.95622,-448.058 L 9.07735,-447.867 L 9.17358,-447.663 L 9.24344,-447.448
 L 9.2858,-447.226 L 9.29999,-447 L 9.2858,-446.774 L 9.24344,-446.552 L 9.17358,-446.337 L 9.07735,-446.133
 L 8.95622,-445.942 L 8.81213,-445.768 L 8.64735,-445.613 L 8.46448,-445.48 L 8.26639,-445.371 L 8.05623,-445.288
 L 7.83728,-445.232 L 7.61302,-445.204 z
" stroke="black" fill="lightgray" stroke-width="0.5"/>
</svg>
