<?xml version="1.0" standalone="no"?>
<!DOCTYPE svg PUBLIC "-//W3C//DTD SVG 1.1//EN" "http://www.w3.org/Graphics/SVG/1.1/DTD/svg11.dtd">
<svg width="76mm" height="64mm" viewBox="-38 -56 76 64" xmlns="http://www.w3.org/2000/svg" version="1.1">
<title>OpenSCAD Model</title>
<path d="
M -34.5,-40.9248 L -34.0451,-40.7447 L -33.4369,-40.5886 L -32.8139,-40.5099 L 32.8139,-40.5099 L 33.4369,-40.5886
 L 34.0451,-40.7447 L 34.6289,-40.9759 L 35.1791,-41.2784 L 35.6871,-41.6474 L 36.1448,-42.0773 L 36.5451,-42.5611
 L 36.8815,-43.0912 L 37.1489,-43.6594 L 37.3429,-44.2566 L 37.4606,-44.8733 L 37.5,-45.5 L 37.5,-50.5
 L 37.4606,-51.1267 L 37.3429,-51.7434 L 37.1489,-52.3406 L 36.8815,-52.9088 L 36.5451,-53.4389 L 36.1448,-53.9227
 L 35.6871,-54.3526 L 35.1791,-54.7216 L 34.6289,-55.0241 L 34.0451,-55.2553 L 33.4369,-55.4114 L 32.8139,-55.4901
 L -32.8139,-55.4901 L -33.4369,-55.4114 L -34.0451,-55.2553 L -34.5,-55.0752 L -34.5,-55.4901 L -37.5,-55.4901
 L -37.5,-40.5099 L -34.5,-40.5099 z
M 29.8493,-45.6047 L 29.5503,-45.6425 L 29.2583,-45.7175 L 28.9781,-45.8284 L 28.714,-45.9736 L 28.4702,-46.1508
 L 28.2505,-46.3571 L 28.0583,-46.5893 L 27.8969,-46.8438 L 27.7685,-47.1165 L 27.6754,-47.4032 L 27.6189,-47.6992
 L 27.6,-48 L 27.6189,-48.3008 L 27.6754,-48.5968 L 27.7685,-48.8835 L 27.8969,-49.1562 L 28.0583,-49.4107
 L 28.2505,-49.6429 L 28.4702,-49.8492 L 28.714,-50.0264 L 28.9781,-50.1716 L 29.2583,-50.2825 L 29.5503,-50.3575
 L 29.8493,-50.3953 L 30.1507,-50.3953 L 30.4497,-50.3575 L 30.7416,-50.2825 L 31.0219,-50.1716 L 31.286,-50.0264
 L 31.5298,-49.8492 L 31.7495,-49.6429 L 31.9416,-49.4107 L 32.1031,-49.1562 L 32.2315,-48.8835 L 32.3246,-48.5968
 L 32.3811,-48.3008 L 32.4,-48 L 32.3811,-47.6992 L 32.3246,-47.4032 L 32.2315,-47.1165 L 32.1031,-46.8438
 L 31.9416,-46.5893 L 31.7495,-46.3571 L 31.5298,-46.1508 L 31.286,-45.9736 L 31.0219,-45.8284 L 30.7416,-45.7175
 L 30.4497,-45.6425 L 30.1507,-45.6047 z
M -30.1507,-45.6047 L -30.4497,-45.6425 L -30.7416,-45.7175 L -31.0219,-45.8284 L -31.286,-45.9736 L -31.5298,-46.1508
 L -31.7495,-46.3571 L -31.9416,-46.5893 L -32.1031,-46.8438 L -32.2315,-47.1165 L -32.3246,-47.4032 L -32.3811,-47.6992
 L -32.4,-48 L -32.3811,-48.3008 L -32.3246,-48.5968 L -32.2315,-48.8835 L -32.1031,-49.1562 L -31.9416,-49.4107
 L -31.7495,-49.6429 L -31.5298,-49.8492 L -31.286,-50.0264 L -31.0219,-50.1716 L -30.7416,-50.2825 L -30.4497,-50.3575
 L -30.1507,-50.3953 L -29.8493,-50.3953 L -29.5503,-50.3575 L -29.2583,-50.2825 L -28.9781,-50.1716 L -28.714,-50.0264
 L -28.4702,-49.8492 L -28.2505,-49.6429 L -28.0583,-49.4107 L -27.8969,-49.1562 L -27.7685,-48.8835 L -27.6754,-48.5968
 L -27.6189,-48.3008 L -27.6,-48 L -27.6189,-47.6992 L -27.6754,-47.4032 L -27.7685,-47.1165 L -27.8969,-46.8438
 L -28.0583,-46.5893 L -28.2505,-46.3571 L -28.4702,-46.1508 L -28.714,-45.9736 L -28.9781,-45.8284 L -29.2583,-45.7175
 L -29.5503,-45.6425 L -29.8493,-45.6047 z
M -34.5,-16.9248 L -34.0451,-16.7447 L -33.4369,-16.5886 L -32.8139,-16.5099 L 32.8139,-16.5099 L 33.4369,-16.5886
 L 34.0451,-16.7447 L 34.6289,-16.9759 L 35.1791,-17.2784 L 35.6871,-17.6474 L 36.1448,-18.0773 L 36.5451,-18.5611
 L 36.8815,-19.0912 L 37.1489,-19.6594 L 37.3429,-20.2566 L 37.4606,-20.8733 L 37.5,-21.5 L 37.5,-26.5
 L 37.4606,-27.1267 L 37.3429,-27.7434 L 37.1489,-28.3406 L 36.8815,-28.9088 L 36.5451,-29.4389 L 36.1448,-29.9227
 L 35.6871,-30.3526 L 35.1791,-30.7216 L 34.6289,-31.0241 L 34.0451,-31.2553 L 33.4369,-31.4114 L 32.8139,-31.4901
 L -32.8139,-31.4901 L -33.4369,-31.4114 L -34.0451,-31.2553 L -34.5,-31.0752 L -34.5,-31.4901 L -37.5,-31.4901
 L -37.5,-16.5099 L -34.5,-16.5099 z
M -30.113,-22.2036 L -30.3373,-22.2319 L -30.5562,-22.2881 L -30.7664,-22.3713 L -30.9645,-22.4802 L -31.1474,-22.6131
 L -31.3121,-22.7678 L -31.4562,-22.942 L -31.5773,-23.1329 L -31.6736,-23.3374 L -31.7434,-23.5524 L -31.7858,-23.7744
 L -31.8,-24 L -31.7858,-24.2256 L -31.7434,-24.4476 L -31.6736,-24.6626 L -31.5773,-24.8671 L -31.4562,-25.058
 L -31.3121,-25.2322 L -31.1474,-25.3869 L -30.9645,-25.5198 L -30.7664,-25.6287 L -30.5562,-25.7119 L -30.3373,-25.7681
 L -30.113,-25.7964 L -29.887,-25.7964 L -29.6627,-25.7681 L -29.4438,-25.7119 L -29.2336,-25.6287 L -29.0355,-25.5198
 L -28.8526,-25.3869 L -28.6879,-25.2322 L -28.5438,-25.058 L -28.4226,-24.8671 L -28.3264,-24.6626 L -28.2565,-24.4476
 L -28.2142,-24.2256 L -28.2,-24 L -28.2142,-23.7744 L -28.2565,-23.5524 L -28.3264,-23.3374 L -28.4226,-23.1329
 L -28.5438,-22.942 L -28.6879,-22.7678 L -28.8526,-22.6131 L -29.0355,-22.4802 L -29.2336,-22.3713 L -29.4438,-22.2881
 L -29.6627,-22.2319 L -29.887,-22.2036 z
M 29.887,-22.2036 L 29.6627,-22.2319 L 29.4438,-22.2881 L 29.2336,-22.3713 L 29.0355,-22.4802 L 28.8526,-22.6131
 L 28.6879,-22.7678 L 28.5438,-22.942 L 28.4226,-23.1329 L 28.3264,-23.3374 L 28.2565,-23.5524 L 28.2142,-23.7744
 L 28.2,-24 L 28.2142,-24.2256 L 28.2565,-24.4476 L 28.3264,-24.6626 L 28.4226,-24.8671 L 28.5438,-25.058
 L 28.6879,-25.2322 L 28.8526,-25.3869 L 29.0355,-25.5198 L 29.2336,-25.6287 L 29.4438,-25.7119 L 29.6627,-25.7681
 L 29.887,-25.7964 L 30.113,-25.7964 L 30.3373,-25.7681 L 30.5562,-25.7119 L 30.7664,-25.6287 L 30.9645,-25.5198
 L 31.1474,-25.3869 L 31.3121,-25.2322 L 31.4562,-25.058 L 31.5773,-24.8671 L 31.6736,-24.6626 L 31.7434,-24.4476
 L 31.7858,-24.2256 L 31.8,-24 L 31.7858,-23.7744 L 31.7434,-23.5524 L 31.6736,-23.3374 L 31.5773,-23.1329
 L 31.4562,-22.942 L 31.3121,-22.7678 L 31.1474,-22.6131 L 30.9645,-22.4802 L 30.7664,-22.3713 L 30.5562,-22.2881
 L 30.3373,-22.2319 L 30.113,-22.2036 z
M -34.5,-7.11476 L -37.5,-7.11476 L -37.5,7.11476 L -34.5,7.11476 z
" stroke="black" fill="lightgray" stroke-width="0.5"/>
</svg>
