<?xml version="1.0" standalone="no"?>
<!DOCTYPE svg PUBLIC "-//W3C//DTD SVG 1.1//EN" "http://www.w3.org/Graphics/SVG/1.1/DTD/svg11.dtd">
<svg width="226mm" height="352mm" viewBox="-113 -704 226 352" xmlns="http://www.w3.org/2000/svg" version="1.1">
<title>OpenSCAD Model</title>
<path d="
M 108.437,-688.589 L 109.045,-688.745 L 109.629,-688.976 L 110.179,-689.278 L 110.687,-689.647 L 111.145,-690.077
 L 111.545,-690.561 L 111.882,-691.091 L 112.149,-691.659 L 112.343,-692.257 L 112.461,-692.873 L 112.5,-693.5
 L 112.5,-698.5 L 112.461,-699.127 L 112.343,-699.743 L 112.149,-700.341 L 111.882,-700.909 L 111.545,-701.439
 L 111.145,-701.923 L 110.687,-702.353 L 110.179,-702.722 L 109.629,-703.024 L 109.045,-703.255 L 108.437,-703.411
 L 107.814,-703.49 L -107.814,-703.49 L -108.437,-703.411 L -109.045,-703.255 L -109.629,-703.024 L -110.179,-702.722
 L -110.687,-702.353 L -111.145,-701.923 L -111.545,-701.439 L -111.882,-700.909 L -112.149,-700.341 L -112.343,-699.743
 L -112.461,-699.127 L -112.5,-698.5 L -112.5,-693.5 L -112.461,-692.873 L -112.343,-692.257 L -112.149,-691.659
 L -111.882,-691.091 L -111.545,-690.561 L -111.145,-690.077 L -110.687,-689.647 L -110.179,-689.278 L -109.629,-688.976
 L -109.045,-688.745 L -108.437,-688.589 L -107.814,-688.51 L 107.814,-688.51 z
M -107.251,-690.008 L -107.75,-690.071 L -108.236,-690.196 L -108.703,-690.381 L -109.143,-690.623 L -109.55,-690.918
 L -109.916,-691.262 L -110.236,-691.649 L -110.505,-692.073 L -110.719,-692.528 L -110.874,-693.005 L -110.968,-693.499
 L -111,-694 L -111,-698 L -110.968,-698.501 L -110.874,-698.995 L -110.719,-699.472 L -110.505,-699.927
 L -110.236,-700.351 L -109.916,-700.738 L -109.55,-701.082 L -109.143,-701.377 L -108.703,-701.619 L -108.236,-701.804
 L -107.75,-701.929 L -107.251,-701.992 L 107.251,-701.992 L 107.75,-701.929 L 108.236,-701.804 L 108.703,-701.619
 L 109.143,-701.377 L 109.55,-701.082 L 109.916,-700.738 L 110.236,-700.351 L 110.505,-699.927 L 110.719,-699.472
 L 110.874,-698.995 L 110.968,-698.501 L 111,-698 L 111,-694 L 110.968,-693.499 L 110.874,-693.005
 L 110.719,-692.528 L 110.505,-692.073 L 110.236,-691.649 L 109.916,-691.262 L 109.55,-690.918 L 109.143,-690.623
 L 108.703,-690.381 L 108.236,-690.196 L 107.75,-690.071 L 107.251,-690.008 z
M 108.437,-664.589 L 109.045,-664.745 L 109.629,-664.976 L 110.179,-665.278 L 110.687,-665.647 L 111.145,-666.077
 L 111.545,-666.561 L 111.882,-667.091 L 112.149,-667.659 L 112.343,-668.257 L 112.461,-668.873 L 112.5,-669.5
 L 112.5,-674.5 L 112.461,-675.127 L 112.343,-675.743 L 112.149,-676.341 L 111.882,-676.909 L 111.545,-677.439
 L 111.145,-677.923 L 110.687,-678.353 L 110.179,-678.722 L 109.629,-679.024 L 109.045,-679.255 L 108.437,-679.411
 L 107.814,-679.49 L -107.814,-679.49 L -108.437,-679.411 L -109.045,-679.255 L -109.629,-679.024 L -110.179,-678.722
 L -110.687,-678.353 L -111.145,-677.923 L -111.545,-677.439 L -111.882,-676.909 L -112.149,-676.341 L -112.343,-675.743
 L -112.461,-675.127 L -112.5,-674.5 L -112.5,-669.5 L -112.461,-668.873 L -112.343,-668.257 L -112.149,-667.659
 L -111.882,-667.091 L -111.545,-666.561 L -111.145,-666.077 L -110.687,-665.647 L -110.179,-665.278 L -109.629,-664.976
 L -109.045,-664.745 L -108.437,-664.589 L -107.814,-664.51 L 107.814,-664.51 z
M -107.251,-666.008 L -107.75,-666.071 L -108.236,-666.196 L -108.703,-666.381 L -109.143,-666.623 L -109.55,-666.918
 L -109.916,-667.262 L -110.236,-667.649 L -110.505,-668.073 L -110.719,-668.528 L -110.874,-669.005 L -110.968,-669.499
 L -111,-670 L -111,-674 L -110.968,-674.501 L -110.874,-674.995 L -110.719,-675.472 L -110.505,-675.927
 L -110.236,-676.351 L -109.916,-676.738 L -109.55,-677.082 L -109.143,-677.377 L -108.703,-677.619 L -108.236,-677.804
 L -107.75,-677.929 L -107.251,-677.992 L 107.251,-677.992 L 107.75,-677.929 L 108.236,-677.804 L 108.703,-677.619
 L 109.143,-677.377 L 109.55,-677.082 L 109.916,-676.738 L 110.236,-676.351 L 110.505,-675.927 L 110.719,-675.472
 L 110.874,-674.995 L 110.968,-674.501 L 111,-674 L 111,-670 L 110.968,-669.499 L 110.874,-669.005
 L 110.719,-668.528 L 110.505,-668.073 L 110.236,-667.649 L 109.916,-667.262 L 109.55,-666.918 L 109.143,-666.623
 L 108.703,-666.381 L 108.236,-666.196 L 107.75,-666.071 L 107.251,-666.008 z
M 108.437,-640.589 L 109.045,-640.745 L 109.629,-640.976 L 110.179,-641.278 L 110.687,-641.647 L 111.145,-642.077
 L 111.545,-642.561 L 111.882,-643.091 L 112.149,-643.659 L 112.343,-644.257 L 112.461,-644.873 L 112.5,-645.5
 L 112.5,-650.5 L 112.461,-651.127 L 112.343,-651.743 L 112.149,-652.341 L 111.882,-652.909 L 111.545,-653.439
 L 111.145,-653.923 L 110.687,-654.353 L 110.179,-654.722 L 109.629,-655.024 L 109.045,-655.255 L 108.437,-655.411
 L 107.814,-655.49 L -107.814,-655.49 L -108.437,-655.411 L -109.045,-655.255 L -109.629,-655.024 L -110.179,-654.722
 L -110.687,-654.353 L -111.145,-653.923 L -111.545,-653.439 L -111.882,-652.909 L -112.149,-652.341 L -112.343,-651.743
 L -112.461,-651.127 L -112.5,-650.5 L -112.5,-645.5 L -112.461,-644.873 L -112.343,-644.257 L -112.149,-643.659
 L -111.882,-643.091 L -111.545,-642.561 L -111.145,-642.077 L -110.687,-641.647 L -110.179,-641.278 L -109.629,-640.976
 L -109.045,-640.745 L -108.437,-640.589 L -107.814,-640.51 L 107.814,-640.51 z
M -107.251,-642.008 L -107.75,-642.071 L -108.236,-642.196 L -108.703,-642.381 L -109.143,-642.623 L -109.55,-642.918
 L -109.916,-643.262 L -110.236,-643.649 L -110.505,-644.073 L -110.719,-644.528 L -110.874,-645.005 L -110.968,-645.499
 L -111,-646 L -111,-650 L -110.968,-650.501 L -110.874,-650.995 L -110.719,-651.472 L -110.505,-651.927
 L -110.236,-652.351 L -109.916,-652.738 L -109.55,-653.082 L -109.143,-653.377 L -108.703,-653.619 L -108.236,-653.804
 L -107.75,-653.929 L -107.251,-653.992 L 107.251,-653.992 L 107.75,-653.929 L 108.236,-653.804 L 108.703,-653.619
 L 109.143,-653.377 L 109.55,-653.082 L 109.916,-652.738 L 110.236,-652.351 L 110.505,-651.927 L 110.719,-651.472
 L 110.874,-650.995 L 110.968,-650.501 L 111,-650 L 111,-646 L 110.968,-645.499 L 110.874,-645.005
 L 110.719,-644.528 L 110.505,-644.073 L 110.236,-643.649 L 109.916,-643.262 L 109.55,-642.918 L 109.143,-642.623
 L 108.703,-642.381 L 108.236,-642.196 L 107.75,-642.071 L 107.251,-642.008 z
M 108.437,-616.589 L 109.045,-616.745 L 109.629,-616.976 L 110.179,-617.278 L 110.687,-617.647 L 111.145,-618.077
 L 111.545,-618.561 L 111.882,-619.091 L 112.149,-619.659 L 112.343,-620.257 L 112.461,-620.873 L 112.5,-621.5
 L 112.5,-626.5 L 112.461,-627.127 L 112.343,-627.743 L 112.149,-628.341 L 111.882,-628.909 L 111.545,-629.439
 L 111.145,-629.923 L 110.687,-630.353 L 110.179,-630.722 L 109.629,-631.024 L 109.045,-631.255 L 108.437,-631.411
 L 107.814,-631.49 L -107.814,-631.49 L -108.437,-631.411 L -109.045,-631.255 L -109.629,-631.024 L -110.179,-630.722
 L -110.687,-630.353 L -111.145,-629.923 L -111.545,-629.439 L -111.882,-628.909 L -112.149,-628.341 L -112.343,-627.743
 L -112.461,-627.127 L -112.5,-626.5 L -112.5,-621.5 L -112.461,-620.873 L -112.343,-620.257 L -112.149,-619.659
 L -111.882,-619.091 L -111.545,-618.561 L -111.145,-618.077 L -110.687,-617.647 L -110.179,-617.278 L -109.629,-616.976
 L -109.045,-616.745 L -108.437,-616.589 L -107.814,-616.51 L 107.814,-616.51 z
M -107.251,-618.008 L -107.75,-618.071 L -108.236,-618.196 L -108.703,-618.381 L -109.143,-618.623 L -109.55,-618.918
 L -109.916,-619.262 L -110.236,-619.649 L -110.505,-620.073 L -110.719,-620.528 L -110.874,-621.005 L -110.968,-621.499
 L -111,-622 L -111,-626 L -110.968,-626.501 L -110.874,-626.995 L -110.719,-627.472 L -110.505,-627.927
 L -110.236,-628.351 L -109.916,-628.738 L -109.55,-629.082 L -109.143,-629.377 L -108.703,-629.619 L -108.236,-629.804
 L -107.75,-629.929 L -107.251,-629.992 L 107.251,-629.992 L 107.75,-629.929 L 108.236,-629.804 L 108.703,-629.619
 L 109.143,-629.377 L 109.55,-629.082 L 109.916,-628.738 L 110.236,-628.351 L 110.505,-627.927 L 110.719,-627.472
 L 110.874,-626.995 L 110.968,-626.501 L 111,-626 L 111,-622 L 110.968,-621.499 L 110.874,-621.005
 L 110.719,-620.528 L 110.505,-620.073 L 110.236,-619.649 L 109.916,-619.262 L 109.55,-618.918 L 109.143,-618.623
 L 108.703,-618.381 L 108.236,-618.196 L 107.75,-618.071 L 107.251,-618.008 z
M 108.437,-592.589 L 109.045,-592.745 L 109.629,-592.976 L 110.179,-593.278 L 110.687,-593.647 L 111.145,-594.077
 L 111.545,-594.561 L 111.882,-595.091 L 112.149,-595.659 L 112.343,-596.257 L 112.461,-596.873 L 112.5,-597.5
 L 112.5,-602.5 L 112.461,-603.127 L 112.343,-603.743 L 112.149,-604.341 L 111.882,-604.909 L 111.545,-605.439
 L 111.145,-605.923 L 110.687,-606.353 L 110.179,-606.722 L 109.629,-607.024 L 109.045,-607.255 L 108.437,-607.411
 L 107.814,-607.49 L -107.814,-607.49 L -108.437,-607.411 L -109.045,-607.255 L -109.629,-607.024 L -110.179,-606.722
 L -110.687,-606.353 L -111.145,-605.923 L -111.545,-605.439 L -111.882,-604.909 L -112.149,-604.341 L -112.343,-603.743
 L -112.461,-603.127 L -112.5,-602.5 L -112.5,-597.5 L -112.461,-596.873 L -112.343,-596.257 L -112.149,-595.659
 L -111.882,-595.091 L -111.545,-594.561 L -111.145,-594.077 L -110.687,-593.647 L -110.179,-593.278 L -109.629,-592.976
 L -109.045,-592.745 L -108.437,-592.589 L -107.814,-592.51 L 107.814,-592.51 z
M -107.251,-594.008 L -107.75,-594.071 L -108.236,-594.196 L -108.703,-594.381 L -109.143,-594.623 L -109.55,-594.918
 L -109.916,-595.262 L -110.236,-595.649 L -110.505,-596.073 L -110.719,-596.528 L -110.874,-597.005 L -110.968,-597.499
 L -111,-598 L -111,-602 L -110.968,-602.501 L -110.874,-602.995 L -110.719,-603.472 L -110.505,-603.927
 L -110.236,-604.351 L -109.916,-604.738 L -109.55,-605.082 L -109.143,-605.377 L -108.703,-605.619 L -108.236,-605.804
 L -107.75,-605.929 L -107.251,-605.992 L 107.251,-605.992 L 107.75,-605.929 L 108.236,-605.804 L 108.703,-605.619
 L 109.143,-605.377 L 109.55,-605.082 L 109.916,-604.738 L 110.236,-604.351 L 110.505,-603.927 L 110.719,-603.472
 L 110.874,-602.995 L 110.968,-602.501 L 111,-602 L 111,-598 L 110.968,-597.499 L 110.874,-597.005
 L 110.719,-596.528 L 110.505,-596.073 L 110.236,-595.649 L 109.916,-595.262 L 109.55,-594.918 L 109.143,-594.623
 L 108.703,-594.381 L 108.236,-594.196 L 107.75,-594.071 L 107.251,-594.008 z
M 108.437,-568.589 L 109.045,-568.745 L 109.629,-568.976 L 110.179,-569.278 L 110.687,-569.647 L 111.145,-570.077
 L 111.545,-570.561 L 111.882,-571.091 L 112.149,-571.659 L 112.343,-572.257 L 112.461,-572.873 L 112.5,-573.5
 L 112.5,-578.5 L 112.461,-579.127 L 112.343,-579.743 L 112.149,-580.341 L 111.882,-580.909 L 111.545,-581.439
 L 111.145,-581.923 L 110.687,-582.353 L 110.179,-582.722 L 109.629,-583.024 L 109.045,-583.255 L 108.437,-583.411
 L 107.814,-583.49 L -107.814,-583.49 L -108.437,-583.411 L -109.045,-583.255 L -109.629,-583.024 L -110.179,-582.722
 L -110.687,-582.353 L -111.145,-581.923 L -111.545,-581.439 L -111.882,-580.909 L -112.149,-580.341 L -112.343,-579.743
 L -112.461,-579.127 L -112.5,-578.5 L -112.5,-573.5 L -112.461,-572.873 L -112.343,-572.257 L -112.149,-571.659
 L -111.882,-571.091 L -111.545,-570.561 L -111.145,-570.077 L -110.687,-569.647 L -110.179,-569.278 L -109.629,-568.976
 L -109.045,-568.745 L -108.437,-568.589 L -107.814,-568.51 L 107.814,-568.51 z
M -107.251,-570.008 L -107.75,-570.071 L -108.236,-570.196 L -108.703,-570.381 L -109.143,-570.623 L -109.55,-570.918
 L -109.916,-571.262 L -110.236,-571.649 L -110.505,-572.073 L -110.719,-572.528 L -110.874,-573.005 L -110.968,-573.499
 L -111,-574 L -111,-578 L -110.968,-578.501 L -110.874,-578.995 L -110.719,-579.472 L -110.505,-579.927
 L -110.236,-580.351 L -109.916,-580.738 L -109.55,-581.082 L -109.143,-581.377 L -108.703,-581.619 L -108.236,-581.804
 L -107.75,-581.929 L -107.251,-581.992 L 107.251,-581.992 L 107.75,-581.929 L 108.236,-581.804 L 108.703,-581.619
 L 109.143,-581.377 L 109.55,-581.082 L 109.916,-580.738 L 110.236,-580.351 L 110.505,-579.927 L 110.719,-579.472
 L 110.874,-578.995 L 110.968,-578.501 L 111,-578 L 111,-574 L 110.968,-573.499 L 110.874,-573.005
 L 110.719,-572.528 L 110.505,-572.073 L 110.236,-571.649 L 109.916,-571.262 L 109.55,-570.918 L 109.143,-570.623
 L 108.703,-570.381 L 108.236,-570.196 L 107.75,-570.071 L 107.251,-570.008 z
M 108.437,-544.589 L 109.045,-544.745 L 109.629,-544.976 L 110.179,-545.278 L 110.687,-545.647 L 111.145,-546.077
 L 111.545,-546.561 L 111.882,-547.091 L 112.149,-547.659 L 112.343,-548.257 L 112.461,-548.873 L 112.5,-549.5
 L 112.5,-554.5 L 112.461,-555.127 L 112.343,-555.743 L 112.149,-556.341 L 111.882,-556.909 L 111.545,-557.439
 L 111.145,-557.923 L 110.687,-558.353 L 110.179,-558.722 L 109.629,-559.024 L 109.045,-559.255 L 108.437,-559.411
 L 107.814,-559.49 L -107.814,-559.49 L -108.437,-559.411 L -109.045,-559.255 L -109.629,-559.024 L -110.179,-558.722
 L -110.687,-558.353 L -111.145,-557.923 L -111.545,-557.439 L -111.882,-556.909 L -112.149,-556.341 L -112.343,-555.743
 L -112.461,-555.127 L -112.5,-554.5 L -112.5,-549.5 L -112.461,-548.873 L -112.343,-548.257 L -112.149,-547.659
 L -111.882,-547.091 L -111.545,-546.561 L -111.145,-546.077 L -110.687,-545.647 L -110.179,-545.278 L -109.629,-544.976
 L -109.045,-544.745 L -108.437,-544.589 L -107.814,-544.51 L 107.814,-544.51 z
M -107.251,-546.008 L -107.75,-546.071 L -108.236,-546.196 L -108.703,-546.381 L -109.143,-546.623 L -109.55,-546.918
 L -109.916,-547.262 L -110.236,-547.649 L -110.505,-548.073 L -110.719,-548.528 L -110.874,-549.005 L -110.968,-549.499
 L -111,-550 L -111,-554 L -110.968,-554.501 L -110.874,-554.995 L -110.719,-555.472 L -110.505,-555.927
 L -110.236,-556.351 L -109.916,-556.738 L -109.55,-557.082 L -109.143,-557.377 L -108.703,-557.619 L -108.236,-557.804
 L -107.75,-557.929 L -107.251,-557.992 L 107.251,-557.992 L 107.75,-557.929 L 108.236,-557.804 L 108.703,-557.619
 L 109.143,-557.377 L 109.55,-557.082 L 109.916,-556.738 L 110.236,-556.351 L 110.505,-555.927 L 110.719,-555.472
 L 110.874,-554.995 L 110.968,-554.501 L 111,-554 L 111,-550 L 110.968,-549.499 L 110.874,-549.005
 L 110.719,-548.528 L 110.505,-548.073 L 110.236,-547.649 L 109.916,-547.262 L 109.55,-546.918 L 109.143,-546.623
 L 108.703,-546.381 L 108.236,-546.196 L 107.75,-546.071 L 107.251,-546.008 z
M 108.437,-520.589 L 109.045,-520.745 L 109.629,-520.976 L 110.179,-521.278 L 110.687,-521.647 L 111.145,-522.077
 L 111.545,-522.561 L 111.882,-523.091 L 112.149,-523.659 L 112.343,-524.257 L 112.461,-524.873 L 112.5,-525.5
 L 112.5,-530.5 L 112.461,-531.127 L 112.343,-531.743 L 112.149,-532.341 L 111.882,-532.909 L 111.545,-533.439
 L 111.145,-533.923 L 110.687,-534.353 L 110.179,-534.722 L 109.629,-535.024 L 109.045,-535.255 L 108.437,-535.411
 L 107.814,-535.49 L -107.814,-535.49 L -108.437,-535.411 L -109.045,-535.255 L -109.629,-535.024 L -110.179,-534.722
 L -110.687,-534.353 L -111.145,-533.923 L -111.545,-533.439 L -111.882,-532.909 L -112.149,-532.341 L -112.343,-531.743
 L -112.461,-531.127 L -112.5,-530.5 L -112.5,-525.5 L -112.461,-524.873 L -112.343,-524.257 L -112.149,-523.659
 L -111.882,-523.091 L -111.545,-522.561 L -111.145,-522.077 L -110.687,-521.647 L -110.179,-521.278 L -109.629,-520.976
 L -109.045,-520.745 L -108.437,-520.589 L -107.814,-520.51 L 107.814,-520.51 z
M -107.251,-522.008 L -107.75,-522.071 L -108.236,-522.196 L -108.703,-522.381 L -109.143,-522.623 L -109.55,-522.918
 L -109.916,-523.262 L -110.236,-523.649 L -110.505,-524.073 L -110.719,-524.528 L -110.874,-525.005 L -110.968,-525.499
 L -111,-526 L -111,-530 L -110.968,-530.501 L -110.874,-530.995 L -110.719,-531.472 L -110.505,-531.927
 L -110.236,-532.351 L -109.916,-532.738 L -109.55,-533.082 L -109.143,-533.377 L -108.703,-533.619 L -108.236,-533.804
 L -107.75,-533.929 L -107.251,-533.992 L 107.251,-533.992 L 107.75,-533.929 L 108.236,-533.804 L 108.703,-533.619
 L 109.143,-533.377 L 109.55,-533.082 L 109.916,-532.738 L 110.236,-532.351 L 110.505,-531.927 L 110.719,-531.472
 L 110.874,-530.995 L 110.968,-530.501 L 111,-530 L 111,-526 L 110.968,-525.499 L 110.874,-525.005
 L 110.719,-524.528 L 110.505,-524.073 L 110.236,-523.649 L 109.916,-523.262 L 109.55,-522.918 L 109.143,-522.623
 L 108.703,-522.381 L 108.236,-522.196 L 107.75,-522.071 L 107.251,-522.008 z
M 108.437,-496.589 L 109.045,-496.745 L 109.629,-496.976 L 110.179,-497.278 L 110.687,-497.647 L 111.145,-498.077
 L 111.545,-498.561 L 111.882,-499.091 L 112.149,-499.659 L 112.343,-500.257 L 112.461,-500.873 L 112.5,-501.5
 L 112.5,-506.5 L 112.461,-507.127 L 112.343,-507.743 L 112.149,-508.341 L 111.882,-508.909 L 111.545,-509.439
 L 111.145,-509.923 L 110.687,-510.353 L 110.179,-510.722 L 109.629,-511.024 L 109.045,-511.255 L 108.437,-511.411
 L 107.814,-511.49 L -107.814,-511.49 L -108.437,-511.411 L -109.045,-511.255 L -109.629,-511.024 L -110.179,-510.722
 L -110.687,-510.353 L -111.145,-509.923 L -111.545,-509.439 L -111.882,-508.909 L -112.149,-508.341 L -112.343,-507.743
 L -112.461,-507.127 L -112.5,-506.5 L -112.5,-501.5 L -112.461,-500.873 L -112.343,-500.257 L -112.149,-499.659
 L -111.882,-499.091 L -111.545,-498.561 L -111.145,-498.077 L -110.687,-497.647 L -110.179,-497.278 L -109.629,-496.976
 L -109.045,-496.745 L -108.437,-496.589 L -107.814,-496.51 L 107.814,-496.51 z
M -107.251,-498.008 L -107.75,-498.071 L -108.236,-498.196 L -108.703,-498.381 L -109.143,-498.623 L -109.55,-498.918
 L -109.916,-499.262 L -110.236,-499.649 L -110.505,-500.073 L -110.719,-500.528 L -110.874,-501.005 L -110.968,-501.499
 L -111,-502 L -111,-506 L -110.968,-506.501 L -110.874,-506.995 L -110.719,-507.472 L -110.505,-507.927
 L -110.236,-508.351 L -109.916,-508.738 L -109.55,-509.082 L -109.143,-509.377 L -108.703,-509.619 L -108.236,-509.804
 L -107.75,-509.929 L -107.251,-509.992 L 107.251,-509.992 L 107.75,-509.929 L 108.236,-509.804 L 108.703,-509.619
 L 109.143,-509.377 L 109.55,-509.082 L 109.916,-508.738 L 110.236,-508.351 L 110.505,-507.927 L 110.719,-507.472
 L 110.874,-506.995 L 110.968,-506.501 L 111,-506 L 111,-502 L 110.968,-501.499 L 110.874,-501.005
 L 110.719,-500.528 L 110.505,-500.073 L 110.236,-499.649 L 109.916,-499.262 L 109.55,-498.918 L 109.143,-498.623
 L 108.703,-498.381 L 108.236,-498.196 L 107.75,-498.071 L 107.251,-498.008 z
M 108.437,-472.589 L 109.045,-472.745 L 109.629,-472.976 L 110.179,-473.278 L 110.687,-473.647 L 111.145,-474.077
 L 111.545,-474.561 L 111.882,-475.091 L 112.149,-475.659 L 112.343,-476.257 L 112.461,-476.873 L 112.5,-477.5
 L 112.5,-482.5 L 112.461,-483.127 L 112.343,-483.743 L 112.149,-484.341 L 111.882,-484.909 L 111.545,-485.439
 L 111.145,-485.923 L 110.687,-486.353 L 110.179,-486.722 L 109.629,-487.024 L 109.045,-487.255 L 108.437,-487.411
 L 107.814,-487.49 L -107.814,-487.49 L -108.437,-487.411 L -109.045,-487.255 L -109.629,-487.024 L -110.179,-486.722
 L -110.687,-486.353 L -111.145,-485.923 L -111.545,-485.439 L -111.882,-484.909 L -112.149,-484.341 L -112.343,-483.743
 L -112.461,-483.127 L -112.5,-482.5 L -112.5,-477.5 L -112.461,-476.873 L -112.343,-476.257 L -112.149,-475.659
 L -111.882,-475.091 L -111.545,-474.561 L -111.145,-474.077 L -110.687,-473.647 L -110.179,-473.278 L -109.629,-472.976
 L -109.045,-472.745 L -108.437,-472.589 L -107.814,-472.51 L 107.814,-472.51 z
M -107.251,-474.008 L -107.75,-474.071 L -108.236,-474.196 L -108.703,-474.381 L -109.143,-474.623 L -109.55,-474.918
 L -109.916,-475.262 L -110.236,-475.649 L -110.505,-476.073 L -110.719,-476.528 L -110.874,-477.005 L -110.968,-477.499
 L -111,-478 L -111,-482 L -110.968,-482.501 L -110.874,-482.995 L -110.719,-483.472 L -110.505,-483.927
 L -110.236,-484.351 L -109.916,-484.738 L -109.55,-485.082 L -109.143,-485.377 L -108.703,-485.619 L -108.236,-485.804
 L -107.75,-485.929 L -107.251,-485.992 L 107.251,-485.992 L 107.75,-485.929 L 108.236,-485.804 L 108.703,-485.619
 L 109.143,-485.377 L 109.55,-485.082 L 109.916,-484.738 L 110.236,-484.351 L 110.505,-483.927 L 110.719,-483.472
 L 110.874,-482.995 L 110.968,-482.501 L 111,-482 L 111,-478 L 110.968,-477.499 L 110.874,-477.005
 L 110.719,-476.528 L 110.505,-476.073 L 110.236,-475.649 L 109.916,-475.262 L 109.55,-474.918 L 109.143,-474.623
 L 108.703,-474.381 L 108.236,-474.196 L 107.75,-474.071 L 107.251,-474.008 z
M 108.437,-448.589 L 109.045,-448.745 L 109.629,-448.976 L 110.179,-449.278 L 110.687,-449.647 L 111.145,-450.077
 L 111.545,-450.561 L 111.882,-451.091 L 112.149,-451.659 L 112.343,-452.257 L 112.461,-452.873 L 112.5,-453.5
 L 112.5,-458.5 L 112.461,-459.127 L 112.343,-459.743 L 112.149,-460.341 L 111.882,-460.909 L 111.545,-461.439
 L 111.145,-461.923 L 110.687,-462.353 L 110.179,-462.722 L 109.629,-463.024 L 109.045,-463.255 L 108.437,-463.411
 L 107.814,-463.49 L -107.814,-463.49 L -108.437,-463.411 L -109.045,-463.255 L -109.629,-463.024 L -110.179,-462.722
 L -110.687,-462.353 L -111.145,-461.923 L -111.545,-461.439 L -111.882,-460.909 L -112.149,-460.341 L -112.343,-459.743
 L -112.461,-459.127 L -112.5,-458.5 L -112.5,-453.5 L -112.461,-452.873 L -112.343,-452.257 L -112.149,-451.659
 L -111.882,-451.091 L -111.545,-450.561 L -111.145,-450.077 L -110.687,-449.647 L -110.179,-449.278 L -109.629,-448.976
 L -109.045,-448.745 L -108.437,-448.589 L -107.814,-448.51 L 107.814,-448.51 z
M -107.251,-450.008 L -107.75,-450.071 L -108.236,-450.196 L -108.703,-450.381 L -109.143,-450.623 L -109.55,-450.918
 L -109.916,-451.262 L -110.236,-451.649 L -110.505,-452.073 L -110.719,-452.528 L -110.874,-453.005 L -110.968,-453.499
 L -111,-454 L -111,-458 L -110.968,-458.501 L -110.874,-458.995 L -110.719,-459.472 L -110.505,-459.927
 L -110.236,-460.351 L -109.916,-460.738 L -109.55,-461.082 L -109.143,-461.377 L -108.703,-461.619 L -108.236,-461.804
 L -107.75,-461.929 L -107.251,-461.992 L 107.251,-461.992 L 107.75,-461.929 L 108.236,-461.804 L 108.703,-461.619
 L 109.143,-461.377 L 109.55,-461.082 L 109.916,-460.738 L 110.236,-460.351 L 110.505,-459.927 L 110.719,-459.472
 L 110.874,-458.995 L 110.968,-458.501 L 111,-458 L 111,-454 L 110.968,-453.499 L 110.874,-453.005
 L 110.719,-452.528 L 110.505,-452.073 L 110.236,-451.649 L 109.916,-451.262 L 109.55,-450.918 L 109.143,-450.623
 L 108.703,-450.381 L 108.236,-450.196 L 107.75,-450.071 L 107.251,-450.008 z
M 108.437,-424.589 L 109.045,-424.745 L 109.629,-424.976 L 110.179,-425.278 L 110.687,-425.647 L 111.145,-426.077
 L 111.545,-426.561 L 111.882,-427.091 L 112.149,-427.659 L 112.343,-428.257 L 112.461,-428.873 L 112.5,-429.5
 L 112.5,-434.5 L 112.461,-435.127 L 112.343,-435.743 L 112.149,-436.341 L 111.882,-436.909 L 111.545,-437.439
 L 111.145,-437.923 L 110.687,-438.353 L 110.179,-438.722 L 109.629,-439.024 L 109.045,-439.255 L 108.437,-439.411
 L 107.814,-439.49 L -107.814,-439.49 L -108.437,-439.411 L -109.045,-439.255 L -109.629,-439.024 L -110.179,-438.722
 L -110.687,-438.353 L -111.145,-437.923 L -111.545,-437.439 L -111.882,-436.909 L -112.149,-436.341 L -112.343,-435.743
 L -112.461,-435.127 L -112.5,-434.5 L -112.5,-429.5 L -112.461,-428.873 L -112.343,-428.257 L -112.149,-427.659
 L -111.882,-427.091 L -111.545,-426.561 L -111.145,-426.077 L -110.687,-425.647 L -110.179,-425.278 L -109.629,-424.976
 L -109.045,-424.745 L -108.437,-424.589 L -107.814,-424.51 L 107.814,-424.51 z
M -107.251,-426.008 L -107.75,-426.071 L -108.236,-426.196 L -108.703,-426.381 L -109.143,-426.623 L -109.55,-426.918
 L -109.916,-427.262 L -110.236,-427.649 L -110.505,-428.073 L -110.719,-428.528 L -110.874,-429.005 L -110.968,-429.499
 L -111,-430 L -111,-434 L -110.968,-434.501 L -110.874,-434.995 L -110.719,-435.472 L -110.505,-435.927
 L -110.236,-436.351 L -109.916,-436.738 L -109.55,-437.082 L -109.143,-437.377 L -108.703,-437.619 L -108.236,-437.804
 L -107.75,-437.929 L -107.251,-437.992 L 107.251,-437.992 L 107.75,-437.929 L 108.236,-437.804 L 108.703,-437.619
 L 109.143,-437.377 L 109.55,-437.082 L 109.916,-436.738 L 110.236,-436.351 L 110.505,-435.927 L 110.719,-435.472
 L 110.874,-434.995 L 110.968,-434.501 L 111,-434 L 111,-430 L 110.968,-429.499 L 110.874,-429.005
 L 110.719,-428.528 L 110.505,-428.073 L 110.236,-427.649 L 109.916,-427.262 L 109.55,-426.918 L 109.143,-426.623
 L 108.703,-426.381 L 108.236,-426.196 L 107.75,-426.071 L 107.251,-426.008 z
M 108.437,-400.589 L 109.045,-400.745 L 109.629,-400.976 L 110.179,-401.278 L 110.687,-401.647 L 111.145,-402.077
 L 111.545,-402.561 L 111.882,-403.091 L 112.149,-403.659 L 112.343,-404.257 L 112.461,-404.873 L 112.5,-405.5
 L 112.5,-410.5 L 112.461,-411.127 L 112.343,-411.743 L 112.149,-412.341 L 111.882,-412.909 L 111.545,-413.439
 L 111.145,-413.923 L 110.687,-414.353 L 110.179,-414.722 L 109.629,-415.024 L 109.045,-415.255 L 108.437,-415.411
 L 107.814,-415.49 L -107.814,-415.49 L -108.437,-415.411 L -109.045,-415.255 L -109.629,-415.024 L -110.179,-414.722
 L -110.687,-414.353 L -111.145,-413.923 L -111.545,-413.439 L -111.882,-412.909 L -112.149,-412.341 L -112.343,-411.743
 L -112.461,-411.127 L -112.5,-410.5 L -112.5,-405.5 L -112.461,-404.873 L -112.343,-404.257 L -112.149,-403.659
 L -111.882,-403.091 L -111.545,-402.561 L -111.145,-402.077 L -110.687,-401.647 L -110.179,-401.278 L -109.629,-400.976
 L -109.045,-400.745 L -108.437,-400.589 L -107.814,-400.51 L 107.814,-400.51 z
M -107.251,-402.008 L -107.75,-402.071 L -108.236,-402.196 L -108.703,-402.381 L -109.143,-402.623 L -109.55,-402.918
 L -109.916,-403.262 L -110.236,-403.649 L -110.505,-404.073 L -110.719,-404.528 L -110.874,-405.005 L -110.968,-405.499
 L -111,-406 L -111,-410 L -110.968,-410.501 L -110.874,-410.995 L -110.719,-411.472 L -110.505,-411.927
 L -110.236,-412.351 L -109.916,-412.738 L -109.55,-413.082 L -109.143,-413.377 L -108.703,-413.619 L -108.236,-413.804
 L -107.75,-413.929 L -107.251,-413.992 L 107.251,-413.992 L 107.75,-413.929 L 108.236,-413.804 L 108.703,-413.619
 L 109.143,-413.377 L 109.55,-413.082 L 109.916,-412.738 L 110.236,-412.351 L 110.505,-411.927 L 110.719,-411.472
 L 110.874,-410.995 L 110.968,-410.501 L 111,-410 L 111,-406 L 110.968,-405.499 L 110.874,-405.005
 L 110.719,-404.528 L 110.505,-404.073 L 110.236,-403.649 L 109.916,-403.262 L 109.55,-402.918 L 109.143,-402.623
 L 108.703,-402.381 L 108.236,-402.196 L 107.75,-402.071 L 107.251,-402.008 z
M 108.437,-376.589 L 109.045,-376.745 L 109.629,-376.976 L 110.179,-377.278 L 110.687,-377.647 L 111.145,-378.077
 L 111.545,-378.561 L 111.882,-379.091 L 112.149,-379.659 L 112.343,-380.257 L 112.461,-380.873 L 112.5,-381.5
 L 112.5,-386.5 L 112.461,-387.127 L 112.343,-387.743 L 112.149,-388.341 L 111.882,-388.909 L 111.545,-389.439
 L 111.145,-389.923 L 110.687,-390.353 L 110.179,-390.722 L 109.629,-391.024 L 109.045,-391.255 L 108.437,-391.411
 L 107.814,-391.49 L -107.814,-391.49 L -108.437,-391.411 L -109.045,-391.255 L -109.629,-391.024 L -110.179,-390.722
 L -110.687,-390.353 L -111.145,-389.923 L -111.545,-389.439 L -111.882,-388.909 L -112.149,-388.341 L -112.343,-387.743
 L -112.461,-387.127 L -112.5,-386.5 L -112.5,-381.5 L -112.461,-380.873 L -112.343,-380.257 L -112.149,-379.659
 L -111.882,-379.091 L -111.545,-378.561 L -111.145,-378.077 L -110.687,-377.647 L -110.179,-377.278 L -109.629,-376.976
 L -109.045,-376.745 L -108.437,-376.589 L -107.814,-376.51 L 107.814,-376.51 z
M -107.195,-378.893 L -107.583,-378.942 L -107.962,-379.039 L -108.325,-379.183 L -108.668,-379.372 L -108.984,-379.601
 L -109.269,-379.869 L -109.518,-380.17 L -109.728,-380.5 L -109.894,-380.854 L -110.015,-381.226 L -110.088,-381.61
 L -110.113,-382 L -110.113,-386 L -110.088,-386.39 L -110.015,-386.774 L -109.894,-387.146 L -109.728,-387.5
 L -109.518,-387.83 L -109.269,-388.131 L -108.984,-388.399 L -108.668,-388.628 L -108.325,-388.817 L -107.962,-388.961
 L -107.583,-389.058 L -107.195,-389.107 L 107.195,-389.107 L 107.583,-389.058 L 107.962,-388.961 L 108.325,-388.817
 L 108.668,-388.628 L 108.984,-388.399 L 109.269,-388.131 L 109.518,-387.83 L 109.728,-387.5 L 109.894,-387.146
 L 110.015,-386.774 L 110.088,-386.39 L 110.113,-386 L 110.113,-382 L 110.088,-381.61 L 110.015,-381.226
 L 109.894,-380.854 L 109.728,-380.5 L 109.518,-380.17 L 109.269,-379.869 L 108.984,-379.601 L 108.668,-379.372
 L 108.325,-379.183 L 107.962,-379.039 L 107.583,-378.942 L 107.195,-378.893 z
M 108.437,-352.589 L 109.045,-352.745 L 109.629,-352.976 L 110.179,-353.278 L 110.687,-353.647 L 111.145,-354.077
 L 111.545,-354.561 L 111.882,-355.091 L 112.149,-355.659 L 112.343,-356.257 L 112.461,-356.873 L 112.5,-357.5
 L 112.5,-362.5 L 112.461,-363.127 L 112.343,-363.743 L 112.149,-364.341 L 111.882,-364.909 L 111.545,-365.439
 L 111.145,-365.923 L 110.687,-366.353 L 110.179,-366.722 L 109.629,-367.024 L 109.045,-367.255 L 108.437,-367.411
 L 107.814,-367.49 L -107.814,-367.49 L -108.437,-367.411 L -109.045,-367.255 L -109.629,-367.024 L -110.179,-366.722
 L -110.687,-366.353 L -111.145,-365.923 L -111.545,-365.439 L -111.882,-364.909 L -112.149,-364.341 L -112.343,-363.743
 L -112.461,-363.127 L -112.5,-362.5 L -112.5,-357.5 L -112.461,-356.873 L -112.343,-356.257 L -112.149,-355.659
 L -111.882,-355.091 L -111.545,-354.561 L -111.145,-354.077 L -110.687,-353.647 L -110.179,-353.278 L -109.629,-352.976
 L -109.045,-352.745 L -108.437,-352.589 L -107.814,-352.51 L 107.814,-352.51 z
M -105.134,-357.869 L -105.4,-357.903 L -105.66,-357.969 L -105.909,-358.068 L -106.144,-358.197 L -106.361,-358.355
 L -106.557,-358.538 L -106.727,-358.745 L -106.871,-358.971 L -106.985,-359.214 L -107.068,-359.469 L -107.118,-359.732
 L -107.135,-360 L -107.118,-360.268 L -107.068,-360.531 L -106.985,-360.786 L -106.871,-361.029 L -106.727,-361.255
 L -106.557,-361.462 L -106.361,-361.645 L -106.144,-361.803 L -105.909,-361.932 L -105.66,-362.031 L -105.4,-362.097
 L -105.134,-362.131 L -104.866,-362.131 L -104.6,-362.097 L -104.34,-362.031 L -104.091,-361.932 L -103.856,-361.803
 L -103.639,-361.645 L -103.443,-361.462 L -103.273,-361.255 L -103.129,-361.029 L -103.015,-360.786 L -102.932,-360.531
 L -102.882,-360.268 L -102.865,-360 L -102.882,-359.732 L -102.932,-359.469 L -103.015,-359.214 L -103.129,-358.971
 L -103.273,-358.745 L -103.443,-358.538 L -103.639,-358.355 L -103.856,-358.197 L -104.091,-358.068 L -104.34,-357.969
 L -104.6,-357.903 L -104.866,-357.869 z
M 104.866,-357.869 L 104.6,-357.903 L 104.34,-357.969 L 104.091,-358.068 L 103.856,-358.197 L 103.639,-358.355
 L 103.443,-358.538 L 103.273,-358.745 L 103.129,-358.971 L 103.015,-359.214 L 102.932,-359.469 L 102.882,-359.732
 L 102.865,-360 L 102.882,-360.268 L 102.932,-360.531 L 103.015,-360.786 L 103.129,-361.029 L 103.273,-361.255
 L 103.443,-361.462 L 103.639,-361.645 L 103.856,-361.803 L 104.091,-361.932 L 104.34,-362.031 L 104.6,-362.097
 L 104.866,-362.131 L 105.134,-362.131 L 105.4,-362.097 L 105.66,-362.031 L 105.909,-361.932 L 106.144,-361.803
 L 106.361,-361.645 L 106.557,-361.462 L 106.727,-361.255 L 106.871,-361.029 L 106.985,-360.786 L 107.068,-360.531
 L 107.118,-360.268 L 107.135,-360 L 107.118,-359.732 L 107.068,-359.469 L 106.985,-359.214 L 106.871,-358.971
 L 106.727,-358.745 L 106.557,-358.538 L 106.361,-358.355 L 106.144,-358.197 L 105.909,-358.068 L 105.66,-357.969
 L 105.4,-357.903 L 105.134,-357.869 z
" stroke="black" fill="lightgray" stroke-width="0.5"/>
</svg>
