<?xml version="1.0" standalone="no"?>
<!DOCTYPE svg PUBLIC "-//W3C//DTD SVG 1.1//EN" "http://www.w3.org/Graphics/SVG/1.1/DTD/svg11.dtd">
<svg width="196mm" height="549mm" viewBox="-98 -972 196 549" xmlns="http://www.w3.org/2000/svg" version="1.1">
<title>OpenSCAD Model</title>
<path d="
M 93.4369,-702.089 L 94.0451,-702.245 L 94.6289,-702.476 L 95.1791,-702.778 L 95.6871,-703.147 L 96.1448,-703.577
 L 96.5451,-704.061 L 96.8815,-704.591 L 97.1489,-705.159 L 97.3429,-705.757 L 97.4606,-706.373 L 97.5,-707
 L 97.5,-967 L 97.4606,-967.627 L 97.3429,-968.243 L 97.1489,-968.841 L 96.8815,-969.409 L 96.5451,-969.939
 L 96.1448,-970.423 L 95.6871,-970.853 L 95.1791,-971.222 L 94.6289,-971.524 L 94.0451,-971.755 L 93.4369,-971.911
 L 92.8139,-971.99 L -92.8139,-971.99 L -93.4369,-971.911 L -94.0451,-971.755 L -94.6289,-971.524 L -95.1791,-971.222
 L -95.6871,-970.853 L -96.1448,-970.423 L -96.5451,-969.939 L -96.8815,-969.409 L -97.1489,-968.841 L -97.3429,-968.243
 L -97.4606,-967.627 L -97.5,-967 L -97.5,-707 L -97.4606,-706.373 L -97.3429,-705.757 L -97.1489,-705.159
 L -96.8815,-704.591 L -96.5451,-704.061 L -96.1448,-703.577 L -95.6871,-703.147 L -95.1791,-702.778 L -94.6289,-702.476
 L -94.0451,-702.245 L -93.4369,-702.089 L -92.8139,-702.01 L 92.8139,-702.01 z
M -92.1955,-704.393 L -92.5833,-704.442 L -92.9619,-704.539 L -93.3254,-704.683 L -93.668,-704.872 L -93.9843,-705.101
 L -94.2692,-705.369 L -94.5184,-705.67 L -94.7279,-706 L -94.8943,-706.354 L -95.0151,-706.726 L -95.0884,-707.11
 L -95.1129,-707.5 L -95.1129,-966.5 L -95.0884,-966.89 L -95.0151,-967.274 L -94.8943,-967.646 L -94.7279,-968
 L -94.5184,-968.33 L -94.2692,-968.631 L -93.9843,-968.899 L -93.668,-969.128 L -93.3254,-969.317 L -92.9619,-969.461
 L -92.5833,-969.558 L -92.1955,-969.607 L 92.1955,-969.607 L 92.5833,-969.558 L 92.9619,-969.461 L 93.3254,-969.317
 L 93.668,-969.128 L 93.9843,-968.899 L 94.2692,-968.631 L 94.5184,-968.33 L 94.7279,-968 L 94.8943,-967.646
 L 95.0151,-967.274 L 95.0884,-966.89 L 95.1129,-966.5 L 95.1129,-707.5 L 95.0884,-707.11 L 95.0151,-706.726
 L 94.8943,-706.354 L 94.7279,-706 L 94.5184,-705.67 L 94.2692,-705.369 L 93.9843,-705.101 L 93.668,-704.872
 L 93.3254,-704.683 L 92.9619,-704.539 L 92.5833,-704.442 L 92.1955,-704.393 z
M 93.4369,-423.089 L 94.0451,-423.245 L 94.6289,-423.476 L 95.1791,-423.778 L 95.6871,-424.147 L 96.1448,-424.577
 L 96.5451,-425.061 L 96.8815,-425.591 L 97.1489,-426.159 L 97.3429,-426.757 L 97.4606,-427.373 L 97.5,-428
 L 97.5,-688 L 97.4606,-688.627 L 97.3429,-689.243 L 97.1489,-689.841 L 96.8815,-690.409 L 96.5451,-690.939
 L 96.1448,-691.423 L 95.6871,-691.853 L 95.1791,-692.222 L 94.6289,-692.524 L 94.0451,-692.755 L 93.4369,-692.911
 L 92.8139,-692.99 L -92.8139,-692.99 L -93.4369,-692.911 L -94.0451,-692.755 L -94.6289,-692.524 L -95.1791,-692.222
 L -95.6871,-691.853 L -96.1448,-691.423 L -96.5451,-690.939 L -96.8815,-690.409 L -97.1489,-689.841 L -97.3429,-689.243
 L -97.4606,-688.627 L -97.5,-688 L -97.5,-428 L -97.4606,-427.373 L -97.3429,-426.757 L -97.1489,-426.159
 L -96.8815,-425.591 L -96.5451,-425.061 L -96.1448,-424.577 L -95.6871,-424.147 L -95.1791,-423.778 L -94.6289,-423.476
 L -94.0451,-423.245 L -93.4369,-423.089 L -92.8139,-423.01 L 92.8139,-423.01 z
M 89.8659,-683.369 L 89.5999,-683.403 L 89.3401,-683.469 L 89.0908,-683.568 L 88.8559,-683.697 L 88.6389,-683.855
 L 88.4434,-684.038 L 88.2725,-684.245 L 88.1288,-684.471 L 88.0146,-684.714 L 87.9318,-684.969 L 87.8815,-685.232
 L 87.8647,-685.5 L 87.8815,-685.768 L 87.9318,-686.031 L 88.0146,-686.286 L 88.1288,-686.529 L 88.2725,-686.755
 L 88.4434,-686.962 L 88.6389,-687.145 L 88.8559,-687.303 L 89.0908,-687.432 L 89.3401,-687.531 L 89.5999,-687.597
 L 89.8659,-687.631 L 90.1341,-687.631 L 90.4001,-687.597 L 90.6598,-687.531 L 90.9092,-687.432 L 91.1441,-687.303
 L 91.3611,-687.145 L 91.5566,-686.962 L 91.7275,-686.755 L 91.8712,-686.529 L 91.9853,-686.286 L 92.0682,-686.031
 L 92.1185,-685.768 L 92.1353,-685.5 L 92.1185,-685.232 L 92.0682,-684.969 L 91.9853,-684.714 L 91.8712,-684.471
 L 91.7275,-684.245 L 91.5566,-684.038 L 91.3611,-683.855 L 91.1441,-683.697 L 90.9092,-683.568 L 90.6598,-683.469
 L 90.4001,-683.403 L 90.1341,-683.369 z
M -90.1341,-683.369 L -90.4001,-683.403 L -90.6598,-683.469 L -90.9092,-683.568 L -91.1441,-683.697 L -91.3611,-683.855
 L -91.5566,-684.038 L -91.7275,-684.245 L -91.8712,-684.471 L -91.9853,-684.714 L -92.0682,-684.969 L -92.1185,-685.232
 L -92.1353,-685.5 L -92.1185,-685.768 L -92.0682,-686.031 L -91.9853,-686.286 L -91.8712,-686.529 L -91.7275,-686.755
 L -91.5566,-686.962 L -91.3611,-687.145 L -91.1441,-687.303 L -90.9092,-687.432 L -90.6598,-687.531 L -90.4001,-687.597
 L -90.1341,-687.631 L -89.8659,-687.631 L -89.5999,-687.597 L -89.3401,-687.531 L -89.0908,-687.432 L -88.8559,-687.303
 L -88.6389,-687.145 L -88.4434,-686.962 L -88.2725,-686.755 L -88.1288,-686.529 L -88.0146,-686.286 L -87.9318,-686.031
 L -87.8815,-685.768 L -87.8647,-685.5 L -87.8815,-685.232 L -87.9318,-684.969 L -88.0146,-684.714 L -88.1288,-684.471
 L -88.2725,-684.245 L -88.4434,-684.038 L -88.6389,-683.855 L -88.8559,-683.697 L -89.0908,-683.568 L -89.3401,-683.469
 L -89.5999,-683.403 L -89.8659,-683.369 z
M 89.8659,-428.369 L 89.5999,-428.403 L 89.3401,-428.469 L 89.0908,-428.568 L 88.8559,-428.697 L 88.6389,-428.855
 L 88.4434,-429.038 L 88.2725,-429.245 L 88.1288,-429.471 L 88.0146,-429.714 L 87.9318,-429.969 L 87.8815,-430.232
 L 87.8647,-430.5 L 87.8815,-430.768 L 87.9318,-431.031 L 88.0146,-431.286 L 88.1288,-431.529 L 88.2725,-431.755
 L 88.4434,-431.962 L 88.6389,-432.145 L 88.8559,-432.303 L 89.0908,-432.432 L 89.3401,-432.531 L 89.5999,-432.597
 L 89.8659,-432.631 L 90.1341,-432.631 L 90.4001,-432.597 L 90.6598,-432.531 L 90.9092,-432.432 L 91.1441,-432.303
 L 91.3611,-432.145 L 91.5566,-431.962 L 91.7275,-431.755 L 91.8712,-431.529 L 91.9853,-431.286 L 92.0682,-431.031
 L 92.1185,-430.768 L 92.1353,-430.5 L 92.1185,-430.232 L 92.0682,-429.969 L 91.9853,-429.714 L 91.8712,-429.471
 L 91.7275,-429.245 L 91.5566,-429.038 L 91.3611,-428.855 L 91.1441,-428.697 L 90.9092,-428.568 L 90.6598,-428.469
 L 90.4001,-428.403 L 90.1341,-428.369 z
M -90.1341,-428.369 L -90.4001,-428.403 L -90.6598,-428.469 L -90.9092,-428.568 L -91.1441,-428.697 L -91.3611,-428.855
 L -91.5566,-429.038 L -91.7275,-429.245 L -91.8712,-429.471 L -91.9853,-429.714 L -92.0682,-429.969 L -92.1185,-430.232
 L -92.1353,-430.5 L -92.1185,-430.768 L -92.0682,-431.031 L -91.9853,-431.286 L -91.8712,-431.529 L -91.7275,-431.755
 L -91.5566,-431.962 L -91.3611,-432.145 L -91.1441,-432.303 L -90.9092,-432.432 L -90.6598,-432.531 L -90.4001,-432.597
 L -90.1341,-432.631 L -89.8659,-432.631 L -89.5999,-432.597 L -89.3401,-432.531 L -89.0908,-432.432 L -88.8559,-432.303
 L -88.6389,-432.145 L -88.4434,-431.962 L -88.2725,-431.755 L -88.1288,-431.529 L -88.0146,-431.286 L -87.9318,-431.031
 L -87.8815,-430.768 L -87.8647,-430.5 L -87.8815,-430.232 L -87.9318,-429.969 L -88.0146,-429.714 L -88.1288,-429.471
 L -88.2725,-429.245 L -88.4434,-429.038 L -88.6389,-428.855 L -88.8559,-428.697 L -89.0908,-428.568 L -89.3401,-428.469
 L -89.5999,-428.403 L -89.8659,-428.369 z
" stroke="black" fill="lightgray" stroke-width="0.5"/>
</svg>
