  0
SECTION
  2
BLOCKS
  0
ENDSEC
  0
SECTION
  2
ENTITIES
  0
LINE
  8
0
 10
17.9369
 20
-21.9114
 11
18.5451
 21
-21.7553
  0
LINE
  8
0
 10
18.5451
 20
-21.7553
 11
19.1289
 21
-21.5241
  0
LINE
  8
0
 10
19.1289
 20
-21.5241
 11
19.6791
 21
-21.2216
  0
LINE
  8
0
 10
19.6791
 20
-21.2216
 11
20.1871
 21
-20.8526
  0
LINE
  8
0
 10
20.1871
 20
-20.8526
 11
20.6448
 21
-20.4227
  0
LINE
  8
0
 10
20.6448
 20
-20.4227
 11
21.0451
 21
-19.9389
  0
LINE
  8
0
 10
21.0451
 20
-19.9389
 11
21.3815
 21
-19.4088
  0
LINE
  8
0
 10
21.3815
 20
-19.4088
 11
21.6489
 21
-18.8406
  0
LINE
  8
0
 10
21.6489
 20
-18.8406
 11
21.8429
 21
-18.2434
  0
LINE
  8
0
 10
21.8429
 20
-18.2434
 11
21.9606
 21
-17.6267
  0
LINE
  8
0
 10
21.9606
 20
-17.6267
 11
22
 21
-17
  0
LINE
  8
0
 10
22
 20
-17
 11
22
 21
17
  0
LINE
  8
0
 10
22
 20
17
 11
21.9606
 21
17.6267
  0
LINE
  8
0
 10
21.9606
 20
17.6267
 11
21.8429
 21
18.2434
  0
LINE
  8
0
 10
21.8429
 20
18.2434
 11
21.6489
 21
18.8406
  0
LINE
  8
0
 10
21.6489
 20
18.8406
 11
21.3815
 21
19.4088
  0
LINE
  8
0
 10
21.3815
 20
19.4088
 11
21.0451
 21
19.9389
  0
LINE
  8
0
 10
21.0451
 20
19.9389
 11
20.6448
 21
20.4227
  0
LINE
  8
0
 10
20.6448
 20
20.4227
 11
20.1871
 21
20.8526
  0
LINE
  8
0
 10
20.1871
 20
20.8526
 11
19.6791
 21
21.2216
  0
LINE
  8
0
 10
19.6791
 20
21.2216
 11
19.1289
 21
21.5241
  0
LINE
  8
0
 10
19.1289
 20
21.5241
 11
18.5451
 21
21.7553
  0
LINE
  8
0
 10
18.5451
 20
21.7553
 11
17.9369
 21
21.9114
  0
LINE
  8
0
 10
17.9369
 20
21.9114
 11
17.3139
 21
21.9901
  0
LINE
  8
0
 10
17.3139
 20
21.9901
 11
-17.3139
 21
21.9901
  0
LINE
  8
0
 10
-17.3139
 20
21.9901
 11
-17.9369
 21
21.9114
  0
LINE
  8
0
 10
-17.9369
 20
21.9114
 11
-18.5451
 21
21.7553
  0
LINE
  8
0
 10
-18.5451
 20
21.7553
 11
-19.1289
 21
21.5241
  0
LINE
  8
0
 10
-19.1289
 20
21.5241
 11
-19.6791
 21
21.2216
  0
LINE
  8
0
 10
-19.6791
 20
21.2216
 11
-20.1871
 21
20.8526
  0
LINE
  8
0
 10
-20.1871
 20
20.8526
 11
-20.6448
 21
20.4227
  0
LINE
  8
0
 10
-20.6448
 20
20.4227
 11
-21.0451
 21
19.9389
  0
LINE
  8
0
 10
-21.0451
 20
19.9389
 11
-21.3815
 21
19.4088
  0
LINE
  8
0
 10
-21.3815
 20
19.4088
 11
-21.6489
 21
18.8406
  0
LINE
  8
0
 10
-21.6489
 20
18.8406
 11
-21.8429
 21
18.2434
  0
LINE
  8
0
 10
-21.8429
 20
18.2434
 11
-21.9606
 21
17.6267
  0
LINE
  8
0
 10
-21.9606
 20
17.6267
 11
-22
 21
17
  0
LINE
  8
0
 10
-22
 20
17
 11
-22
 21
-17
  0
LINE
  8
0
 10
-22
 20
-17
 11
-21.9606
 21
-17.6267
  0
LINE
  8
0
 10
-21.9606
 20
-17.6267
 11
-21.8429
 21
-18.2434
  0
LINE
  8
0
 10
-21.8429
 20
-18.2434
 11
-21.6489
 21
-18.8406
  0
LINE
  8
0
 10
-21.6489
 20
-18.8406
 11
-21.3815
 21
-19.4088
  0
LINE
  8
0
 10
-21.3815
 20
-19.4088
 11
-21.0451
 21
-19.9389
  0
LINE
  8
0
 10
-21.0451
 20
-19.9389
 11
-20.6448
 21
-20.4227
  0
LINE
  8
0
 10
-20.6448
 20
-20.4227
 11
-20.1871
 21
-20.8526
  0
LINE
  8
0
 10
-20.1871
 20
-20.8526
 11
-19.6791
 21
-21.2216
  0
LINE
  8
0
 10
-19.6791
 20
-21.2216
 11
-19.1289
 21
-21.5241
  0
LINE
  8
0
 10
-19.1289
 20
-21.5241
 11
-18.5451
 21
-21.7553
  0
LINE
  8
0
 10
-18.5451
 20
-21.7553
 11
-17.9369
 21
-21.9114
  0
LINE
  8
0
 10
-17.9369
 20
-21.9114
 11
-17.3139
 21
-21.9901
  0
LINE
  8
0
 10
-17.3139
 20
-21.9901
 11
17.3139
 21
-21.9901
  0
LINE
  8
0
 10
17.3139
 20
-21.9901
 11
17.9369
 21
-21.9114
  0
LINE
  8
0
 10
14.7991
 20
11.8063
 11
14.4004
 21
11.8567
  0
LINE
  8
0
 10
14.4004
 20
11.8567
 11
14.0111
 21
11.9566
  0
LINE
  8
0
 10
14.0111
 20
11.9566
 11
13.6375
 21
12.1046
  0
LINE
  8
0
 10
13.6375
 20
12.1046
 11
13.2853
 21
12.2981
  0
LINE
  8
0
 10
13.2853
 20
12.2981
 11
12.9602
 21
12.5343
  0
LINE
  8
0
 10
12.9602
 20
12.5343
 11
12.6673
 21
12.8094
  0
LINE
  8
0
 10
12.6673
 20
12.8094
 11
12.4111
 21
13.1191
  0
LINE
  8
0
 10
12.4111
 20
13.1191
 11
12.1958
 21
13.4584
  0
LINE
  8
0
 10
12.1958
 20
13.4584
 11
12.0247
 21
13.822
  0
LINE
  8
0
 10
12.0247
 20
13.822
 11
11.9005
 21
14.2042
  0
LINE
  8
0
 10
11.9005
 20
14.2042
 11
11.8252
 21
14.5989
  0
LINE
  8
0
 10
11.8252
 20
14.5989
 11
11.8
 21
15
  0
LINE
  8
0
 10
11.8
 20
15
 11
11.8252
 21
15.4011
  0
LINE
  8
0
 10
11.8252
 20
15.4011
 11
11.9005
 21
15.7958
  0
LINE
  8
0
 10
11.9005
 20
15.7958
 11
12.0247
 21
16.178
  0
LINE
  8
0
 10
12.0247
 20
16.178
 11
12.1958
 21
16.5416
  0
LINE
  8
0
 10
12.1958
 20
16.5416
 11
12.4111
 21
16.8809
  0
LINE
  8
0
 10
12.4111
 20
16.8809
 11
12.6673
 21
17.1905
  0
LINE
  8
0
 10
12.6673
 20
17.1905
 11
12.9602
 21
17.4656
  0
LINE
  8
0
 10
12.9602
 20
17.4656
 11
13.2853
 21
17.7018
  0
LINE
  8
0
 10
13.2853
 20
17.7018
 11
13.6375
 21
17.8954
  0
LINE
  8
0
 10
13.6375
 20
17.8954
 11
14.0111
 21
18.0434
  0
LINE
  8
0
 10
14.0111
 20
18.0434
 11
14.4004
 21
18.1433
  0
LINE
  8
0
 10
14.4004
 20
18.1433
 11
14.7991
 21
18.1937
  0
LINE
  8
0
 10
14.7991
 20
18.1937
 11
15.2009
 21
18.1937
  0
LINE
  8
0
 10
15.2009
 20
18.1937
 11
15.5996
 21
18.1433
  0
LINE
  8
0
 10
15.5996
 20
18.1433
 11
15.9888
 21
18.0434
  0
LINE
  8
0
 10
15.9888
 20
18.0434
 11
16.3625
 21
17.8954
  0
LINE
  8
0
 10
16.3625
 20
17.8954
 11
16.7146
 21
17.7018
  0
LINE
  8
0
 10
16.7146
 20
17.7018
 11
17.0397
 21
17.4656
  0
LINE
  8
0
 10
17.0397
 20
17.4656
 11
17.3327
 21
17.1905
  0
LINE
  8
0
 10
17.3327
 20
17.1905
 11
17.5889
 21
16.8809
  0
LINE
  8
0
 10
17.5889
 20
16.8809
 11
17.8042
 21
16.5416
  0
LINE
  8
0
 10
17.8042
 20
16.5416
 11
17.9753
 21
16.178
  0
LINE
  8
0
 10
17.9753
 20
16.178
 11
18.0995
 21
15.7958
  0
LINE
  8
0
 10
18.0995
 20
15.7958
 11
18.1748
 21
15.4011
  0
LINE
  8
0
 10
18.1748
 20
15.4011
 11
18.2
 21
15
  0
LINE
  8
0
 10
18.2
 20
15
 11
18.1748
 21
14.5989
  0
LINE
  8
0
 10
18.1748
 20
14.5989
 11
18.0995
 21
14.2042
  0
LINE
  8
0
 10
18.0995
 20
14.2042
 11
17.9753
 21
13.822
  0
LINE
  8
0
 10
17.9753
 20
13.822
 11
17.8042
 21
13.4584
  0
LINE
  8
0
 10
17.8042
 20
13.4584
 11
17.5889
 21
13.1191
  0
LINE
  8
0
 10
17.5889
 20
13.1191
 11
17.3327
 21
12.8094
  0
LINE
  8
0
 10
17.3327
 20
12.8094
 11
17.0397
 21
12.5343
  0
LINE
  8
0
 10
17.0397
 20
12.5343
 11
16.7146
 21
12.2981
  0
LINE
  8
0
 10
16.7146
 20
12.2981
 11
16.3625
 21
12.1046
  0
LINE
  8
0
 10
16.3625
 20
12.1046
 11
15.9888
 21
11.9566
  0
LINE
  8
0
 10
15.9888
 20
11.9566
 11
15.5996
 21
11.8567
  0
LINE
  8
0
 10
15.5996
 20
11.8567
 11
15.2009
 21
11.8063
  0
LINE
  8
0
 10
15.2009
 20
11.8063
 11
14.7991
 21
11.8063
  0
LINE
  8
0
 10
-0.191498
 20
11.956
 11
-0.571503
 21
12.004
  0
LINE
  8
0
 10
-0.571503
 20
12.004
 11
-0.94249
 21
12.0993
  0
LINE
  8
0
 10
-0.94249
 20
12.0993
 11
-1.29861
 21
12.2403
  0
LINE
  8
0
 10
-1.29861
 20
12.2403
 11
-1.63426
 21
12.4248
  0
LINE
  8
0
 10
-1.63426
 20
12.4248
 11
-1.94414
 21
12.6499
  0
LINE
  8
0
 10
-1.94414
 20
12.6499
 11
-2.22334
 21
12.9121
  0
LINE
  8
0
 10
-2.22334
 20
12.9121
 11
-2.4675
 21
13.2072
  0
LINE
  8
0
 10
-2.4675
 20
13.2072
 11
-2.67273
 21
13.5306
  0
LINE
  8
0
 10
-2.67273
 20
13.5306
 11
-2.83582
 21
13.8772
  0
LINE
  8
0
 10
-2.83582
 20
13.8772
 11
-2.95418
 21
14.2415
  0
LINE
  8
0
 10
-2.95418
 20
14.2415
 11
-3.02594
 21
14.6177
  0
LINE
  8
0
 10
-3.02594
 20
14.6177
 11
-3.04999
 21
15
  0
LINE
  8
0
 10
-3.04999
 20
15
 11
-3.02594
 21
15.3823
  0
LINE
  8
0
 10
-3.02594
 20
15.3823
 11
-2.95418
 21
15.7585
  0
LINE
  8
0
 10
-2.95418
 20
15.7585
 11
-2.83582
 21
16.1228
  0
LINE
  8
0
 10
-2.83582
 20
16.1228
 11
-2.67273
 21
16.4693
  0
LINE
  8
0
 10
-2.67273
 20
16.4693
 11
-2.4675
 21
16.7927
  0
LINE
  8
0
 10
-2.4675
 20
16.7927
 11
-2.22334
 21
17.0879
  0
LINE
  8
0
 10
-2.22334
 20
17.0879
 11
-1.94414
 21
17.3501
  0
LINE
  8
0
 10
-1.94414
 20
17.3501
 11
-1.63426
 21
17.5752
  0
LINE
  8
0
 10
-1.63426
 20
17.5752
 11
-1.29861
 21
17.7597
  0
LINE
  8
0
 10
-1.29861
 20
17.7597
 11
-0.94249
 21
17.9007
  0
LINE
  8
0
 10
-0.94249
 20
17.9007
 11
-0.571503
 21
17.996
  0
LINE
  8
0
 10
-0.571503
 20
17.996
 11
-0.191498
 21
18.044
  0
LINE
  8
0
 10
-0.191498
 20
18.044
 11
0.191498
 21
18.044
  0
LINE
  8
0
 10
0.191498
 20
18.044
 11
0.571503
 21
17.996
  0
LINE
  8
0
 10
0.571503
 20
17.996
 11
0.94249
 21
17.9007
  0
LINE
  8
0
 10
0.94249
 20
17.9007
 11
1.29861
 21
17.7597
  0
LINE
  8
0
 10
1.29861
 20
17.7597
 11
1.63426
 21
17.5752
  0
LINE
  8
0
 10
1.63426
 20
17.5752
 11
1.94414
 21
17.3501
  0
LINE
  8
0
 10
1.94414
 20
17.3501
 11
2.22334
 21
17.0879
  0
LINE
  8
0
 10
2.22334
 20
17.0879
 11
2.4675
 21
16.7927
  0
LINE
  8
0
 10
2.4675
 20
16.7927
 11
2.67273
 21
16.4693
  0
LINE
  8
0
 10
2.67273
 20
16.4693
 11
2.83582
 21
16.1228
  0
LINE
  8
0
 10
2.83582
 20
16.1228
 11
2.95418
 21
15.7585
  0
LINE
  8
0
 10
2.95418
 20
15.7585
 11
3.02594
 21
15.3823
  0
LINE
  8
0
 10
3.02594
 20
15.3823
 11
3.04999
 21
15
  0
LINE
  8
0
 10
3.04999
 20
15
 11
3.02594
 21
14.6177
  0
LINE
  8
0
 10
3.02594
 20
14.6177
 11
2.95418
 21
14.2415
  0
LINE
  8
0
 10
2.95418
 20
14.2415
 11
2.83582
 21
13.8772
  0
LINE
  8
0
 10
2.83582
 20
13.8772
 11
2.67273
 21
13.5306
  0
LINE
  8
0
 10
2.67273
 20
13.5306
 11
2.4675
 21
13.2072
  0
LINE
  8
0
 10
2.4675
 20
13.2072
 11
2.22334
 21
12.9121
  0
LINE
  8
0
 10
2.22334
 20
12.9121
 11
1.94414
 21
12.6499
  0
LINE
  8
0
 10
1.94414
 20
12.6499
 11
1.63426
 21
12.4248
  0
LINE
  8
0
 10
1.63426
 20
12.4248
 11
1.29861
 21
12.2403
  0
LINE
  8
0
 10
1.29861
 20
12.2403
 11
0.94249
 21
12.0993
  0
LINE
  8
0
 10
0.94249
 20
12.0993
 11
0.571503
 21
12.004
  0
LINE
  8
0
 10
0.571503
 20
12.004
 11
0.191498
 21
11.956
  0
LINE
  8
0
 10
0.191498
 20
11.956
 11
-0.191498
 21
11.956
  0
LINE
  8
0
 10
-15.1821
 20
12.1057
 11
-15.5434
 21
12.1514
  0
LINE
  8
0
 10
-15.5434
 20
12.1514
 11
-15.8961
 21
12.2419
  0
LINE
  8
0
 10
-15.8961
 20
12.2419
 11
-16.2348
 21
12.376
  0
LINE
  8
0
 10
-16.2348
 20
12.376
 11
-16.5539
 21
12.5514
  0
LINE
  8
0
 10
-16.5539
 20
12.5514
 11
-16.8485
 21
12.7655
  0
LINE
  8
0
 10
-16.8485
 20
12.7655
 11
-17.114
 21
13.0148
  0
LINE
  8
0
 10
-17.114
 20
13.0148
 11
-17.3461
 21
13.2954
  0
LINE
  8
0
 10
-17.3461
 20
13.2954
 11
-17.5413
 21
13.6029
  0
LINE
  8
0
 10
-17.5413
 20
13.6029
 11
-17.6964
 21
13.9324
  0
LINE
  8
0
 10
-17.6964
 20
13.9324
 11
-17.8089
 21
14.2788
  0
LINE
  8
0
 10
-17.8089
 20
14.2788
 11
-17.8771
 21
14.6365
  0
LINE
  8
0
 10
-17.8771
 20
14.6365
 11
-17.9
 21
15
  0
LINE
  8
0
 10
-17.9
 20
15
 11
-17.8771
 21
15.3635
  0
LINE
  8
0
 10
-17.8771
 20
15.3635
 11
-17.8089
 21
15.7212
  0
LINE
  8
0
 10
-17.8089
 20
15.7212
 11
-17.6964
 21
16.0676
  0
LINE
  8
0
 10
-17.6964
 20
16.0676
 11
-17.5413
 21
16.3971
  0
LINE
  8
0
 10
-17.5413
 20
16.3971
 11
-17.3461
 21
16.7046
  0
LINE
  8
0
 10
-17.3461
 20
16.7046
 11
-17.114
 21
16.9852
  0
LINE
  8
0
 10
-17.114
 20
16.9852
 11
-16.8485
 21
17.2345
  0
LINE
  8
0
 10
-16.8485
 20
17.2345
 11
-16.5539
 21
17.4485
  0
LINE
  8
0
 10
-16.5539
 20
17.4485
 11
-16.2348
 21
17.624
  0
LINE
  8
0
 10
-16.2348
 20
17.624
 11
-15.8961
 21
17.7581
  0
LINE
  8
0
 10
-15.8961
 20
17.7581
 11
-15.5434
 21
17.8486
  0
LINE
  8
0
 10
-15.5434
 20
17.8486
 11
-15.1821
 21
17.8943
  0
LINE
  8
0
 10
-15.1821
 20
17.8943
 11
-14.8179
 21
17.8943
  0
LINE
  8
0
 10
-14.8179
 20
17.8943
 11
-14.4566
 21
17.8486
  0
LINE
  8
0
 10
-14.4566
 20
17.8486
 11
-14.1038
 21
17.7581
  0
LINE
  8
0
 10
-14.1038
 20
17.7581
 11
-13.7652
 21
17.624
  0
LINE
  8
0
 10
-13.7652
 20
17.624
 11
-13.4461
 21
17.4485
  0
LINE
  8
0
 10
-13.4461
 20
17.4485
 11
-13.1515
 21
17.2345
  0
LINE
  8
0
 10
-13.1515
 20
17.2345
 11
-12.886
 21
16.9852
  0
LINE
  8
0
 10
-12.886
 20
16.9852
 11
-12.6538
 21
16.7046
  0
LINE
  8
0
 10
-12.6538
 20
16.7046
 11
-12.4587
 21
16.3971
  0
LINE
  8
0
 10
-12.4587
 20
16.3971
 11
-12.3036
 21
16.0676
  0
LINE
  8
0
 10
-12.3036
 20
16.0676
 11
-12.1911
 21
15.7212
  0
LINE
  8
0
 10
-12.1911
 20
15.7212
 11
-12.1229
 21
15.3635
  0
LINE
  8
0
 10
-12.1229
 20
15.3635
 11
-12.1
 21
15
  0
LINE
  8
0
 10
-12.1
 20
15
 11
-12.1229
 21
14.6365
  0
LINE
  8
0
 10
-12.1229
 20
14.6365
 11
-12.1911
 21
14.2788
  0
LINE
  8
0
 10
-12.1911
 20
14.2788
 11
-12.3036
 21
13.9324
  0
LINE
  8
0
 10
-12.3036
 20
13.9324
 11
-12.4587
 21
13.6029
  0
LINE
  8
0
 10
-12.4587
 20
13.6029
 11
-12.6538
 21
13.2954
  0
LINE
  8
0
 10
-12.6538
 20
13.2954
 11
-12.886
 21
13.0148
  0
LINE
  8
0
 10
-12.886
 20
13.0148
 11
-13.1515
 21
12.7655
  0
LINE
  8
0
 10
-13.1515
 20
12.7655
 11
-13.4461
 21
12.5514
  0
LINE
  8
0
 10
-13.4461
 20
12.5514
 11
-13.7652
 21
12.376
  0
LINE
  8
0
 10
-13.7652
 20
12.376
 11
-14.1038
 21
12.2419
  0
LINE
  8
0
 10
-14.1038
 20
12.2419
 11
-14.4566
 21
12.1514
  0
LINE
  8
0
 10
-14.4566
 20
12.1514
 11
-14.8179
 21
12.1057
  0
LINE
  8
0
 10
-14.8179
 20
12.1057
 11
-15.1821
 21
12.1057
  0
LINE
  8
0
 10
14.8022
 20
-3.14378
 11
14.4097
 21
-3.09419
  0
LINE
  8
0
 10
14.4097
 20
-3.09419
 11
14.0266
 21
-2.99582
  0
LINE
  8
0
 10
14.0266
 20
-2.99582
 11
13.6588
 21
-2.8502
  0
LINE
  8
0
 10
13.6588
 20
-2.8502
 11
13.3121
 21
-2.65962
  0
LINE
  8
0
 10
13.3121
 20
-2.65962
 11
12.9921
 21
-2.42711
  0
LINE
  8
0
 10
12.9921
 20
-2.42711
 11
12.7037
 21
-2.15631
  0
LINE
  8
0
 10
12.7037
 20
-2.15631
 11
12.4516
 21
-1.85152
  0
LINE
  8
0
 10
12.4516
 20
-1.85152
 11
12.2396
 21
-1.51752
  0
LINE
  8
0
 10
12.2396
 20
-1.51752
 11
12.0712
 21
-1.15959
  0
LINE
  8
0
 10
12.0712
 20
-1.15959
 11
11.949
 21
-0.783371
  0
LINE
  8
0
 10
11.949
 20
-0.783371
 11
11.8748
 21
-0.394791
  0
LINE
  8
0
 10
11.8748
 20
-0.394791
 11
11.85
 21
0
  0
LINE
  8
0
 10
11.85
 20
0
 11
11.8748
 21
0.394791
  0
LINE
  8
0
 10
11.8748
 20
0.394791
 11
11.949
 21
0.783371
  0
LINE
  8
0
 10
11.949
 20
0.783371
 11
12.0712
 21
1.15959
  0
LINE
  8
0
 10
12.0712
 20
1.15959
 11
12.2396
 21
1.51752
  0
LINE
  8
0
 10
12.2396
 20
1.51752
 11
12.4516
 21
1.85152
  0
LINE
  8
0
 10
12.4516
 20
1.85152
 11
12.7037
 21
2.15631
  0
LINE
  8
0
 10
12.7037
 20
2.15631
 11
12.9921
 21
2.42711
  0
LINE
  8
0
 10
12.9921
 20
2.42711
 11
13.3121
 21
2.65962
  0
LINE
  8
0
 10
13.3121
 20
2.65962
 11
13.6588
 21
2.8502
  0
LINE
  8
0
 10
13.6588
 20
2.8502
 11
14.0266
 21
2.99582
  0
LINE
  8
0
 10
14.0266
 20
2.99582
 11
14.4097
 21
3.09419
  0
LINE
  8
0
 10
14.4097
 20
3.09419
 11
14.8022
 21
3.14378
  0
LINE
  8
0
 10
14.8022
 20
3.14378
 11
15.1978
 21
3.14378
  0
LINE
  8
0
 10
15.1978
 20
3.14378
 11
15.5902
 21
3.09419
  0
LINE
  8
0
 10
15.5902
 20
3.09419
 11
15.9734
 21
2.99582
  0
LINE
  8
0
 10
15.9734
 20
2.99582
 11
16.3412
 21
2.8502
  0
LINE
  8
0
 10
16.3412
 20
2.8502
 11
16.6879
 21
2.65962
  0
LINE
  8
0
 10
16.6879
 20
2.65962
 11
17.0079
 21
2.42711
  0
LINE
  8
0
 10
17.0079
 20
2.42711
 11
17.2962
 21
2.15631
  0
LINE
  8
0
 10
17.2962
 20
2.15631
 11
17.5484
 21
1.85152
  0
LINE
  8
0
 10
17.5484
 20
1.85152
 11
17.7604
 21
1.51752
  0
LINE
  8
0
 10
17.7604
 20
1.51752
 11
17.9288
 21
1.15959
  0
LINE
  8
0
 10
17.9288
 20
1.15959
 11
18.051
 21
0.783371
  0
LINE
  8
0
 10
18.051
 20
0.783371
 11
18.1252
 21
0.394791
  0
LINE
  8
0
 10
18.1252
 20
0.394791
 11
18.15
 21
0
  0
LINE
  8
0
 10
18.15
 20
0
 11
18.1252
 21
-0.394791
  0
LINE
  8
0
 10
18.1252
 20
-0.394791
 11
18.051
 21
-0.783371
  0
LINE
  8
0
 10
18.051
 20
-0.783371
 11
17.9288
 21
-1.15959
  0
LINE
  8
0
 10
17.9288
 20
-1.15959
 11
17.7604
 21
-1.51752
  0
LINE
  8
0
 10
17.7604
 20
-1.51752
 11
17.5484
 21
-1.85152
  0
LINE
  8
0
 10
17.5484
 20
-1.85152
 11
17.2962
 21
-2.15631
  0
LINE
  8
0
 10
17.2962
 20
-2.15631
 11
17.0079
 21
-2.42711
  0
LINE
  8
0
 10
17.0079
 20
-2.42711
 11
16.6879
 21
-2.65962
  0
LINE
  8
0
 10
16.6879
 20
-2.65962
 11
16.3412
 21
-2.8502
  0
LINE
  8
0
 10
16.3412
 20
-2.8502
 11
15.9734
 21
-2.99582
  0
LINE
  8
0
 10
15.9734
 20
-2.99582
 11
15.5902
 21
-3.09419
  0
LINE
  8
0
 10
15.5902
 20
-3.09419
 11
15.1978
 21
-3.14378
  0
LINE
  8
0
 10
15.1978
 20
-3.14378
 11
14.8022
 21
-3.14378
  0
LINE
  8
0
 10
-0.18837
 20
-2.99408
 11
-0.562134
 21
-2.94685
  0
LINE
  8
0
 10
-0.562134
 20
-2.94685
 11
-0.927048
 21
-2.85316
  0
LINE
  8
0
 10
-0.927048
 20
-2.85316
 11
-1.27733
 21
-2.71448
  0
LINE
  8
0
 10
-1.27733
 20
-2.71448
 11
-1.60747
 21
-2.53297
  0
LINE
  8
0
 10
-1.60747
 20
-2.53297
 11
-1.91226
 21
-2.31154
  0
LINE
  8
0
 10
-1.91226
 20
-2.31154
 11
-2.1869
 21
-2.05363
  0
LINE
  8
0
 10
-2.1869
 20
-2.05363
 11
-2.42705
 21
-1.76335
  0
LINE
  8
0
 10
-2.42705
 20
-1.76335
 11
-2.62891
 21
-1.44525
  0
LINE
  8
0
 10
-2.62891
 20
-1.44525
 11
-2.78932
 21
-1.10437
  0
LINE
  8
0
 10
-2.78932
 20
-1.10437
 11
-2.90575
 21
-0.746063
  0
LINE
  8
0
 10
-2.90575
 20
-0.746063
 11
-2.97633
 21
-0.375992
  0
LINE
  8
0
 10
-2.97633
 20
-0.375992
 11
-3
 21
0
  0
LINE
  8
0
 10
-3
 20
0
 11
-2.97633
 21
0.375992
  0
LINE
  8
0
 10
-2.97633
 20
0.375992
 11
-2.90575
 21
0.746063
  0
LINE
  8
0
 10
-2.90575
 20
0.746063
 11
-2.78932
 21
1.10437
  0
LINE
  8
0
 10
-2.78932
 20
1.10437
 11
-2.62891
 21
1.44525
  0
LINE
  8
0
 10
-2.62891
 20
1.44525
 11
-2.42705
 21
1.76335
  0
LINE
  8
0
 10
-2.42705
 20
1.76335
 11
-2.1869
 21
2.05363
  0
LINE
  8
0
 10
-2.1869
 20
2.05363
 11
-1.91226
 21
2.31154
  0
LINE
  8
0
 10
-1.91226
 20
2.31154
 11
-1.60747
 21
2.53297
  0
LINE
  8
0
 10
-1.60747
 20
2.53297
 11
-1.27733
 21
2.71448
  0
LINE
  8
0
 10
-1.27733
 20
2.71448
 11
-0.927048
 21
2.85316
  0
LINE
  8
0
 10
-0.927048
 20
2.85316
 11
-0.562134
 21
2.94685
  0
LINE
  8
0
 10
-0.562134
 20
2.94685
 11
-0.18837
 21
2.99408
  0
LINE
  8
0
 10
-0.18837
 20
2.99408
 11
0.18837
 21
2.99408
  0
LINE
  8
0
 10
0.18837
 20
2.99408
 11
0.562134
 21
2.94685
  0
LINE
  8
0
 10
0.562134
 20
2.94685
 11
0.927048
 21
2.85316
  0
LINE
  8
0
 10
0.927048
 20
2.85316
 11
1.27733
 21
2.71448
  0
LINE
  8
0
 10
1.27733
 20
2.71448
 11
1.60747
 21
2.53297
  0
LINE
  8
0
 10
1.60747
 20
2.53297
 11
1.91226
 21
2.31154
  0
LINE
  8
0
 10
1.91226
 20
2.31154
 11
2.1869
 21
2.05363
  0
LINE
  8
0
 10
2.1869
 20
2.05363
 11
2.42705
 21
1.76335
  0
LINE
  8
0
 10
2.42705
 20
1.76335
 11
2.62891
 21
1.44525
  0
LINE
  8
0
 10
2.62891
 20
1.44525
 11
2.78932
 21
1.10437
  0
LINE
  8
0
 10
2.78932
 20
1.10437
 11
2.90575
 21
0.746063
  0
LINE
  8
0
 10
2.90575
 20
0.746063
 11
2.97633
 21
0.375992
  0
LINE
  8
0
 10
2.97633
 20
0.375992
 11
3
 21
0
  0
LINE
  8
0
 10
3
 20
0
 11
2.97633
 21
-0.375992
  0
LINE
  8
0
 10
2.97633
 20
-0.375992
 11
2.90575
 21
-0.746063
  0
LINE
  8
0
 10
2.90575
 20
-0.746063
 11
2.78932
 21
-1.10437
  0
LINE
  8
0
 10
2.78932
 20
-1.10437
 11
2.62891
 21
-1.44525
  0
LINE
  8
0
 10
2.62891
 20
-1.44525
 11
2.42705
 21
-1.76335
  0
LINE
  8
0
 10
2.42705
 20
-1.76335
 11
2.1869
 21
-2.05363
  0
LINE
  8
0
 10
2.1869
 20
-2.05363
 11
1.91226
 21
-2.31154
  0
LINE
  8
0
 10
1.91226
 20
-2.31154
 11
1.60747
 21
-2.53297
  0
LINE
  8
0
 10
1.60747
 20
-2.53297
 11
1.27733
 21
-2.71448
  0
LINE
  8
0
 10
1.27733
 20
-2.71448
 11
0.927048
 21
-2.85316
  0
LINE
  8
0
 10
0.927048
 20
-2.85316
 11
0.562134
 21
-2.94685
  0
LINE
  8
0
 10
0.562134
 20
-2.94685
 11
0.18837
 21
-2.99408
  0
LINE
  8
0
 10
0.18837
 20
-2.99408
 11
-0.18837
 21
-2.99408
  0
LINE
  8
0
 10
-15.1789
 20
-2.84438
 11
-15.534
 21
-2.79951
  0
LINE
  8
0
 10
-15.534
 20
-2.79951
 11
-15.8807
 21
-2.71051
  0
LINE
  8
0
 10
-15.8807
 20
-2.71051
 11
-16.2135
 21
-2.57875
  0
LINE
  8
0
 10
-16.2135
 20
-2.57875
 11
-16.5271
 21
-2.40633
  0
LINE
  8
0
 10
-16.5271
 20
-2.40633
 11
-16.8167
 21
-2.19595
  0
LINE
  8
0
 10
-16.8167
 20
-2.19595
 11
-17.0776
 21
-1.95096
  0
LINE
  8
0
 10
-17.0776
 20
-1.95096
 11
-17.3057
 21
-1.67519
  0
LINE
  8
0
 10
-17.3057
 20
-1.67519
 11
-17.4975
 21
-1.37299
  0
LINE
  8
0
 10
-17.4975
 20
-1.37299
 11
-17.6499
 21
-1.04915
  0
LINE
  8
0
 10
-17.6499
 20
-1.04915
 11
-17.7605
 21
-0.708755
  0
LINE
  8
0
 10
-17.7605
 20
-0.708755
 11
-17.8275
 21
-0.357193
  0
LINE
  8
0
 10
-17.8275
 20
-0.357193
 11
-17.85
 21
0
  0
LINE
  8
0
 10
-17.85
 20
0
 11
-17.8275
 21
0.357193
  0
LINE
  8
0
 10
-17.8275
 20
0.357193
 11
-17.7605
 21
0.708755
  0
LINE
  8
0
 10
-17.7605
 20
0.708755
 11
-17.6499
 21
1.04915
  0
LINE
  8
0
 10
-17.6499
 20
1.04915
 11
-17.4975
 21
1.37299
  0
LINE
  8
0
 10
-17.4975
 20
1.37299
 11
-17.3057
 21
1.67519
  0
LINE
  8
0
 10
-17.3057
 20
1.67519
 11
-17.0776
 21
1.95096
  0
LINE
  8
0
 10
-17.0776
 20
1.95096
 11
-16.8167
 21
2.19595
  0
LINE
  8
0
 10
-16.8167
 20
2.19595
 11
-16.5271
 21
2.40633
  0
LINE
  8
0
 10
-16.5271
 20
2.40633
 11
-16.2135
 21
2.57875
  0
LINE
  8
0
 10
-16.2135
 20
2.57875
 11
-15.8807
 21
2.71051
  0
LINE
  8
0
 10
-15.8807
 20
2.71051
 11
-15.534
 21
2.79951
  0
LINE
  8
0
 10
-15.534
 20
2.79951
 11
-15.1789
 21
2.84438
  0
LINE
  8
0
 10
-15.1789
 20
2.84438
 11
-14.821
 21
2.84438
  0
LINE
  8
0
 10
-14.821
 20
2.84438
 11
-14.466
 21
2.79951
  0
LINE
  8
0
 10
-14.466
 20
2.79951
 11
-14.1193
 21
2.71051
  0
LINE
  8
0
 10
-14.1193
 20
2.71051
 11
-13.7865
 21
2.57875
  0
LINE
  8
0
 10
-13.7865
 20
2.57875
 11
-13.4729
 21
2.40633
  0
LINE
  8
0
 10
-13.4729
 20
2.40633
 11
-13.1833
 21
2.19595
  0
LINE
  8
0
 10
-13.1833
 20
2.19595
 11
-12.9224
 21
1.95096
  0
LINE
  8
0
 10
-12.9224
 20
1.95096
 11
-12.6943
 21
1.67519
  0
LINE
  8
0
 10
-12.6943
 20
1.67519
 11
-12.5025
 21
1.37299
  0
LINE
  8
0
 10
-12.5025
 20
1.37299
 11
-12.3501
 21
1.04915
  0
LINE
  8
0
 10
-12.3501
 20
1.04915
 11
-12.2395
 21
0.708755
  0
LINE
  8
0
 10
-12.2395
 20
0.708755
 11
-12.1725
 21
0.357193
  0
LINE
  8
0
 10
-12.1725
 20
0.357193
 11
-12.15
 21
0
  0
LINE
  8
0
 10
-12.15
 20
0
 11
-12.1725
 21
-0.357193
  0
LINE
  8
0
 10
-12.1725
 20
-0.357193
 11
-12.2395
 21
-0.708755
  0
LINE
  8
0
 10
-12.2395
 20
-0.708755
 11
-12.3501
 21
-1.04915
  0
LINE
  8
0
 10
-12.3501
 20
-1.04915
 11
-12.5025
 21
-1.37299
  0
LINE
  8
0
 10
-12.5025
 20
-1.37299
 11
-12.6943
 21
-1.67519
  0
LINE
  8
0
 10
-12.6943
 20
-1.67519
 11
-12.9224
 21
-1.95096
  0
LINE
  8
0
 10
-12.9224
 20
-1.95096
 11
-13.1833
 21
-2.19595
  0
LINE
  8
0
 10
-13.1833
 20
-2.19595
 11
-13.4729
 21
-2.40633
  0
LINE
  8
0
 10
-13.4729
 20
-2.40633
 11
-13.7865
 21
-2.57875
  0
LINE
  8
0
 10
-13.7865
 20
-2.57875
 11
-14.1193
 21
-2.71051
  0
LINE
  8
0
 10
-14.1193
 20
-2.71051
 11
-14.466
 21
-2.79951
  0
LINE
  8
0
 10
-14.466
 20
-2.79951
 11
-14.821
 21
-2.84438
  0
LINE
  8
0
 10
-14.821
 20
-2.84438
 11
-15.1789
 21
-2.84438
  0
LINE
  8
0
 10
14.8053
 20
-18.0939
 11
14.4191
 21
-18.0451
  0
LINE
  8
0
 10
14.4191
 20
-18.0451
 11
14.042
 21
-17.9483
  0
LINE
  8
0
 10
14.042
 20
-17.9483
 11
13.6801
 21
-17.805
  0
LINE
  8
0
 10
13.6801
 20
-17.805
 11
13.3389
 21
-17.6174
  0
LINE
  8
0
 10
13.3389
 20
-17.6174
 11
13.024
 21
-17.3886
  0
LINE
  8
0
 10
13.024
 20
-17.3886
 11
12.7402
 21
-17.1221
  0
LINE
  8
0
 10
12.7402
 20
-17.1221
 11
12.492
 21
-16.8221
  0
LINE
  8
0
 10
12.492
 20
-16.8221
 11
12.2834
 21
-16.4934
  0
LINE
  8
0
 10
12.2834
 20
-16.4934
 11
12.1177
 21
-16.1412
  0
LINE
  8
0
 10
12.1177
 20
-16.1412
 11
11.9974
 21
-15.7709
  0
LINE
  8
0
 10
11.9974
 20
-15.7709
 11
11.9244
 21
-15.3885
  0
LINE
  8
0
 10
11.9244
 20
-15.3885
 11
11.9
 21
-15
  0
LINE
  8
0
 10
11.9
 20
-15
 11
11.9244
 21
-14.6115
  0
LINE
  8
0
 10
11.9244
 20
-14.6115
 11
11.9974
 21
-14.229
  0
LINE
  8
0
 10
11.9974
 20
-14.229
 11
12.1177
 21
-13.8588
  0
LINE
  8
0
 10
12.1177
 20
-13.8588
 11
12.2834
 21
-13.5066
  0
LINE
  8
0
 10
12.2834
 20
-13.5066
 11
12.492
 21
-13.1779
  0
LINE
  8
0
 10
12.492
 20
-13.1779
 11
12.7402
 21
-12.8779
  0
LINE
  8
0
 10
12.7402
 20
-12.8779
 11
13.024
 21
-12.6114
  0
LINE
  8
0
 10
13.024
 20
-12.6114
 11
13.3389
 21
-12.3826
  0
LINE
  8
0
 10
13.3389
 20
-12.3826
 11
13.6801
 21
-12.195
  0
LINE
  8
0
 10
13.6801
 20
-12.195
 11
14.042
 21
-12.0517
  0
LINE
  8
0
 10
14.042
 20
-12.0517
 11
14.4191
 21
-11.9549
  0
LINE
  8
0
 10
14.4191
 20
-11.9549
 11
14.8053
 21
-11.9061
  0
LINE
  8
0
 10
14.8053
 20
-11.9061
 11
15.1946
 21
-11.9061
  0
LINE
  8
0
 10
15.1946
 20
-11.9061
 11
15.5809
 21
-11.9549
  0
LINE
  8
0
 10
15.5809
 20
-11.9549
 11
15.9579
 21
-12.0517
  0
LINE
  8
0
 10
15.9579
 20
-12.0517
 11
16.3199
 21
-12.195
  0
LINE
  8
0
 10
16.3199
 20
-12.195
 11
16.6611
 21
-12.3826
  0
LINE
  8
0
 10
16.6611
 20
-12.3826
 11
16.976
 21
-12.6114
  0
LINE
  8
0
 10
16.976
 20
-12.6114
 11
17.2598
 21
-12.8779
  0
LINE
  8
0
 10
17.2598
 20
-12.8779
 11
17.5079
 21
-13.1779
  0
LINE
  8
0
 10
17.5079
 20
-13.1779
 11
17.7165
 21
-13.5066
  0
LINE
  8
0
 10
17.7165
 20
-13.5066
 11
17.8823
 21
-13.8588
  0
LINE
  8
0
 10
17.8823
 20
-13.8588
 11
18.0026
 21
-14.229
  0
LINE
  8
0
 10
18.0026
 20
-14.229
 11
18.0755
 21
-14.6115
  0
LINE
  8
0
 10
18.0755
 20
-14.6115
 11
18.1
 21
-15
  0
LINE
  8
0
 10
18.1
 20
-15
 11
18.0755
 21
-15.3885
  0
LINE
  8
0
 10
18.0755
 20
-15.3885
 11
18.0026
 21
-15.7709
  0
LINE
  8
0
 10
18.0026
 20
-15.7709
 11
17.8823
 21
-16.1412
  0
LINE
  8
0
 10
17.8823
 20
-16.1412
 11
17.7165
 21
-16.4934
  0
LINE
  8
0
 10
17.7165
 20
-16.4934
 11
17.5079
 21
-16.8221
  0
LINE
  8
0
 10
17.5079
 20
-16.8221
 11
17.2598
 21
-17.1221
  0
LINE
  8
0
 10
17.2598
 20
-17.1221
 11
16.976
 21
-17.3886
  0
LINE
  8
0
 10
16.976
 20
-17.3886
 11
16.6611
 21
-17.6174
  0
LINE
  8
0
 10
16.6611
 20
-17.6174
 11
16.3199
 21
-17.805
  0
LINE
  8
0
 10
16.3199
 20
-17.805
 11
15.9579
 21
-17.9483
  0
LINE
  8
0
 10
15.9579
 20
-17.9483
 11
15.5809
 21
-18.0451
  0
LINE
  8
0
 10
15.5809
 20
-18.0451
 11
15.1946
 21
-18.0939
  0
LINE
  8
0
 10
15.1946
 20
-18.0939
 11
14.8053
 21
-18.0939
  0
LINE
  8
0
 10
-0.185226
 20
-17.9442
 11
-0.552765
 21
-17.8977
  0
LINE
  8
0
 10
-0.552765
 20
-17.8977
 11
-0.911591
 21
-17.8056
  0
LINE
  8
0
 10
-0.911591
 20
-17.8056
 11
-1.25604
 21
-17.6692
  0
LINE
  8
0
 10
-1.25604
 20
-17.6692
 11
-1.58069
 21
-17.4908
  0
LINE
  8
0
 10
-1.58069
 20
-17.4908
 11
-1.88039
 21
-17.273
  0
LINE
  8
0
 10
-1.88039
 20
-17.273
 11
-2.15045
 21
-17.0194
  0
LINE
  8
0
 10
-2.15045
 20
-17.0194
 11
-2.3866
 21
-16.734
  0
LINE
  8
0
 10
-2.3866
 20
-16.734
 11
-2.5851
 21
-16.4212
  0
LINE
  8
0
 10
-2.5851
 20
-16.4212
 11
-2.74283
 21
-16.086
  0
LINE
  8
0
 10
-2.74283
 20
-16.086
 11
-2.85732
 21
-15.7336
  0
LINE
  8
0
 10
-2.85732
 20
-15.7336
 11
-2.92673
 21
-15.3697
  0
LINE
  8
0
 10
-2.92673
 20
-15.3697
 11
-2.95
 21
-15
  0
LINE
  8
0
 10
-2.95
 20
-15
 11
-2.92673
 21
-14.6303
  0
LINE
  8
0
 10
-2.92673
 20
-14.6303
 11
-2.85732
 21
-14.2664
  0
LINE
  8
0
 10
-2.85732
 20
-14.2664
 11
-2.74283
 21
-13.914
  0
LINE
  8
0
 10
-2.74283
 20
-13.914
 11
-2.5851
 21
-13.5788
  0
LINE
  8
0
 10
-2.5851
 20
-13.5788
 11
-2.3866
 21
-13.266
  0
LINE
  8
0
 10
-2.3866
 20
-13.266
 11
-2.15045
 21
-12.9806
  0
LINE
  8
0
 10
-2.15045
 20
-12.9806
 11
-1.88039
 21
-12.727
  0
LINE
  8
0
 10
-1.88039
 20
-12.727
 11
-1.58069
 21
-12.5092
  0
LINE
  8
0
 10
-1.58069
 20
-12.5092
 11
-1.25604
 21
-12.3307
  0
LINE
  8
0
 10
-1.25604
 20
-12.3307
 11
-0.911591
 21
-12.1944
  0
LINE
  8
0
 10
-0.911591
 20
-12.1944
 11
-0.552765
 21
-12.1022
  0
LINE
  8
0
 10
-0.552765
 20
-12.1022
 11
-0.185226
 21
-12.0558
  0
LINE
  8
0
 10
-0.185226
 20
-12.0558
 11
0.185226
 21
-12.0558
  0
LINE
  8
0
 10
0.185226
 20
-12.0558
 11
0.552765
 21
-12.1022
  0
LINE
  8
0
 10
0.552765
 20
-12.1022
 11
0.911591
 21
-12.1944
  0
LINE
  8
0
 10
0.911591
 20
-12.1944
 11
1.25604
 21
-12.3307
  0
LINE
  8
0
 10
1.25604
 20
-12.3307
 11
1.58069
 21
-12.5092
  0
LINE
  8
0
 10
1.58069
 20
-12.5092
 11
1.88039
 21
-12.727
  0
LINE
  8
0
 10
1.88039
 20
-12.727
 11
2.15045
 21
-12.9806
  0
LINE
  8
0
 10
2.15045
 20
-12.9806
 11
2.3866
 21
-13.266
  0
LINE
  8
0
 10
2.3866
 20
-13.266
 11
2.5851
 21
-13.5788
  0
LINE
  8
0
 10
2.5851
 20
-13.5788
 11
2.74283
 21
-13.914
  0
LINE
  8
0
 10
2.74283
 20
-13.914
 11
2.85732
 21
-14.2664
  0
LINE
  8
0
 10
2.85732
 20
-14.2664
 11
2.92673
 21
-14.6303
  0
LINE
  8
0
 10
2.92673
 20
-14.6303
 11
2.95
 21
-15
  0
LINE
  8
0
 10
2.95
 20
-15
 11
2.92673
 21
-15.3697
  0
LINE
  8
0
 10
2.92673
 20
-15.3697
 11
2.85732
 21
-15.7336
  0
LINE
  8
0
 10
2.85732
 20
-15.7336
 11
2.74283
 21
-16.086
  0
LINE
  8
0
 10
2.74283
 20
-16.086
 11
2.5851
 21
-16.4212
  0
LINE
  8
0
 10
2.5851
 20
-16.4212
 11
2.3866
 21
-16.734
  0
LINE
  8
0
 10
2.3866
 20
-16.734
 11
2.15045
 21
-17.0194
  0
LINE
  8
0
 10
2.15045
 20
-17.0194
 11
1.88039
 21
-17.273
  0
LINE
  8
0
 10
1.88039
 20
-17.273
 11
1.58069
 21
-17.4908
  0
LINE
  8
0
 10
1.58069
 20
-17.4908
 11
1.25604
 21
-17.6692
  0
LINE
  8
0
 10
1.25604
 20
-17.6692
 11
0.911591
 21
-17.8056
  0
LINE
  8
0
 10
0.911591
 20
-17.8056
 11
0.552765
 21
-17.8977
  0
LINE
  8
0
 10
0.552765
 20
-17.8977
 11
0.185226
 21
-17.9442
  0
LINE
  8
0
 10
0.185226
 20
-17.9442
 11
-0.185226
 21
-17.9442
  0
LINE
  8
0
 10
-15.1758
 20
-17.7945
 11
-15.5247
 21
-17.7504
  0
LINE
  8
0
 10
-15.5247
 20
-17.7504
 11
-15.8652
 21
-17.6629
  0
LINE
  8
0
 10
-15.8652
 20
-17.6629
 11
-16.1922
 21
-17.5335
  0
LINE
  8
0
 10
-16.1922
 20
-17.5335
 11
-16.5003
 21
-17.3641
  0
LINE
  8
0
 10
-16.5003
 20
-17.3641
 11
-16.7848
 21
-17.1574
  0
LINE
  8
0
 10
-16.7848
 20
-17.1574
 11
-17.0411
 21
-16.9167
  0
LINE
  8
0
 10
-17.0411
 20
-16.9167
 11
-17.2652
 21
-16.6458
  0
LINE
  8
0
 10
-17.2652
 20
-16.6458
 11
-17.4537
 21
-16.3489
  0
LINE
  8
0
 10
-17.4537
 20
-16.3489
 11
-17.6034
 21
-16.0307
  0
LINE
  8
0
 10
-17.6034
 20
-16.0307
 11
-17.712
 21
-15.6963
  0
LINE
  8
0
 10
-17.712
 20
-15.6963
 11
-17.7779
 21
-15.3509
  0
LINE
  8
0
 10
-17.7779
 20
-15.3509
 11
-17.8
 21
-15
  0
LINE
  8
0
 10
-17.8
 20
-15
 11
-17.7779
 21
-14.6491
  0
LINE
  8
0
 10
-17.7779
 20
-14.6491
 11
-17.712
 21
-14.3037
  0
LINE
  8
0
 10
-17.712
 20
-14.3037
 11
-17.6034
 21
-13.9692
  0
LINE
  8
0
 10
-17.6034
 20
-13.9692
 11
-17.4537
 21
-13.6511
  0
LINE
  8
0
 10
-17.4537
 20
-13.6511
 11
-17.2652
 21
-13.3542
  0
LINE
  8
0
 10
-17.2652
 20
-13.3542
 11
-17.0411
 21
-13.0833
  0
LINE
  8
0
 10
-17.0411
 20
-13.0833
 11
-16.7848
 21
-12.8426
  0
LINE
  8
0
 10
-16.7848
 20
-12.8426
 11
-16.5003
 21
-12.6359
  0
LINE
  8
0
 10
-16.5003
 20
-12.6359
 11
-16.1922
 21
-12.4665
  0
LINE
  8
0
 10
-16.1922
 20
-12.4665
 11
-15.8652
 21
-12.337
  0
LINE
  8
0
 10
-15.8652
 20
-12.337
 11
-15.5247
 21
-12.2496
  0
LINE
  8
0
 10
-15.5247
 20
-12.2496
 11
-15.1758
 21
-12.2055
  0
LINE
  8
0
 10
-15.1758
 20
-12.2055
 11
-14.8242
 21
-12.2055
  0
LINE
  8
0
 10
-14.8242
 20
-12.2055
 11
-14.4753
 21
-12.2496
  0
LINE
  8
0
 10
-14.4753
 20
-12.2496
 11
-14.1348
 21
-12.337
  0
LINE
  8
0
 10
-14.1348
 20
-12.337
 11
-13.8078
 21
-12.4665
  0
LINE
  8
0
 10
-13.8078
 20
-12.4665
 11
-13.4997
 21
-12.6359
  0
LINE
  8
0
 10
-13.4997
 20
-12.6359
 11
-13.2152
 21
-12.8426
  0
LINE
  8
0
 10
-13.2152
 20
-12.8426
 11
-12.9589
 21
-13.0833
  0
LINE
  8
0
 10
-12.9589
 20
-13.0833
 11
-12.7347
 21
-13.3542
  0
LINE
  8
0
 10
-12.7347
 20
-13.3542
 11
-12.5463
 21
-13.6511
  0
LINE
  8
0
 10
-12.5463
 20
-13.6511
 11
-12.3966
 21
-13.9692
  0
LINE
  8
0
 10
-12.3966
 20
-13.9692
 11
-12.288
 21
-14.3037
  0
LINE
  8
0
 10
-12.288
 20
-14.3037
 11
-12.2221
 21
-14.6491
  0
LINE
  8
0
 10
-12.2221
 20
-14.6491
 11
-12.2
 21
-15
  0
LINE
  8
0
 10
-12.2
 20
-15
 11
-12.2221
 21
-15.3509
  0
LINE
  8
0
 10
-12.2221
 20
-15.3509
 11
-12.288
 21
-15.6963
  0
LINE
  8
0
 10
-12.288
 20
-15.6963
 11
-12.3966
 21
-16.0307
  0
LINE
  8
0
 10
-12.3966
 20
-16.0307
 11
-12.5463
 21
-16.3489
  0
LINE
  8
0
 10
-12.5463
 20
-16.3489
 11
-12.7347
 21
-16.6458
  0
LINE
  8
0
 10
-12.7347
 20
-16.6458
 11
-12.9589
 21
-16.9167
  0
LINE
  8
0
 10
-12.9589
 20
-16.9167
 11
-13.2152
 21
-17.1574
  0
LINE
  8
0
 10
-13.2152
 20
-17.1574
 11
-13.4997
 21
-17.3641
  0
LINE
  8
0
 10
-13.4997
 20
-17.3641
 11
-13.8078
 21
-17.5335
  0
LINE
  8
0
 10
-13.8078
 20
-17.5335
 11
-14.1348
 21
-17.6629
  0
LINE
  8
0
 10
-14.1348
 20
-17.6629
 11
-14.4753
 21
-17.7504
  0
LINE
  8
0
 10
-14.4753
 20
-17.7504
 11
-14.8242
 21
-17.7945
  0
LINE
  8
0
 10
-14.8242
 20
-17.7945
 11
-15.1758
 21
-17.7945
  0
ENDSEC
  0
SECTION
  2
OBJECTS
  0
DICTIONARY
  0
ENDSEC
  0
EOF
