  0
SECTION
  2
BLOCKS
  0
ENDSEC
  0
SECTION
  2
ENTITIES
  0
LINE
  8
0
 10
7.1869
 20
298.589
 11
7.79507
 21
298.745
  0
LINE
  8
0
 10
7.79507
 20
298.745
 11
8.37889
 21
298.976
  0
LINE
  8
0
 10
8.37889
 20
298.976
 11
8.92912
 21
299.278
  0
LINE
  8
0
 10
8.92912
 20
299.278
 11
9.43712
 21
299.647
  0
LINE
  8
0
 10
9.43712
 20
299.647
 11
9.89484
 21
300.077
  0
LINE
  8
0
 10
9.89484
 20
300.077
 11
10.2951
 21
300.561
  0
LINE
  8
0
 10
10.2951
 20
300.561
 11
10.6315
 21
301.091
  0
LINE
  8
0
 10
10.6315
 20
301.091
 11
10.8989
 21
301.659
  0
LINE
  8
0
 10
10.8989
 20
301.659
 11
11.0929
 21
302.257
  0
LINE
  8
0
 10
11.0929
 20
302.257
 11
11.2106
 21
302.873
  0
LINE
  8
0
 10
11.2106
 20
302.873
 11
11.25
 21
303.5
  0
LINE
  8
0
 10
11.25
 20
303.5
 11
11.25
 21
368.5
  0
LINE
  8
0
 10
11.25
 20
368.5
 11
11.2106
 21
369.127
  0
LINE
  8
0
 10
11.2106
 20
369.127
 11
11.0929
 21
369.743
  0
LINE
  8
0
 10
11.0929
 20
369.743
 11
10.8989
 21
370.341
  0
LINE
  8
0
 10
10.8989
 20
370.341
 11
10.6315
 21
370.909
  0
LINE
  8
0
 10
10.6315
 20
370.909
 11
10.2951
 21
371.439
  0
LINE
  8
0
 10
10.2951
 20
371.439
 11
9.89484
 21
371.923
  0
LINE
  8
0
 10
9.89484
 20
371.923
 11
9.43712
 21
372.353
  0
LINE
  8
0
 10
9.43712
 20
372.353
 11
8.92912
 21
372.722
  0
LINE
  8
0
 10
8.92912
 20
372.722
 11
8.37889
 21
373.024
  0
LINE
  8
0
 10
8.37889
 20
373.024
 11
7.79507
 21
373.255
  0
LINE
  8
0
 10
7.79507
 20
373.255
 11
7.1869
 21
373.411
  0
LINE
  8
0
 10
7.1869
 20
373.411
 11
6.56395
 21
373.49
  0
LINE
  8
0
 10
6.56395
 20
373.49
 11
-6.56395
 21
373.49
  0
LINE
  8
0
 10
-6.56395
 20
373.49
 11
-7.1869
 21
373.411
  0
LINE
  8
0
 10
-7.1869
 20
373.411
 11
-7.79507
 21
373.255
  0
LINE
  8
0
 10
-7.79507
 20
373.255
 11
-8.37889
 21
373.024
  0
LINE
  8
0
 10
-8.37889
 20
373.024
 11
-8.92912
 21
372.722
  0
LINE
  8
0
 10
-8.92912
 20
372.722
 11
-9.43712
 21
372.353
  0
LINE
  8
0
 10
-9.43712
 20
372.353
 11
-9.89484
 21
371.923
  0
LINE
  8
0
 10
-9.89484
 20
371.923
 11
-10.2951
 21
371.439
  0
LINE
  8
0
 10
-10.2951
 20
371.439
 11
-10.6315
 21
370.909
  0
LINE
  8
0
 10
-10.6315
 20
370.909
 11
-10.8989
 21
370.341
  0
LINE
  8
0
 10
-10.8989
 20
370.341
 11
-11.0929
 21
369.743
  0
LINE
  8
0
 10
-11.0929
 20
369.743
 11
-11.2106
 21
369.127
  0
LINE
  8
0
 10
-11.2106
 20
369.127
 11
-11.25
 21
368.5
  0
LINE
  8
0
 10
-11.25
 20
368.5
 11
-11.25
 21
303.5
  0
LINE
  8
0
 10
-11.25
 20
303.5
 11
-11.2106
 21
302.873
  0
LINE
  8
0
 10
-11.2106
 20
302.873
 11
-11.0929
 21
302.257
  0
LINE
  8
0
 10
-11.0929
 20
302.257
 11
-10.8989
 21
301.659
  0
LINE
  8
0
 10
-10.8989
 20
301.659
 11
-10.6315
 21
301.091
  0
LINE
  8
0
 10
-10.6315
 20
301.091
 11
-10.2951
 21
300.561
  0
LINE
  8
0
 10
-10.2951
 20
300.561
 11
-9.89484
 21
300.077
  0
LINE
  8
0
 10
-9.89484
 20
300.077
 11
-9.43712
 21
299.647
  0
LINE
  8
0
 10
-9.43712
 20
299.647
 11
-8.92912
 21
299.278
  0
LINE
  8
0
 10
-8.92912
 20
299.278
 11
-8.37889
 21
298.976
  0
LINE
  8
0
 10
-8.37889
 20
298.976
 11
-7.79507
 21
298.745
  0
LINE
  8
0
 10
-7.79507
 20
298.745
 11
-7.1869
 21
298.589
  0
LINE
  8
0
 10
-7.1869
 20
298.589
 11
-6.56395
 21
298.51
  0
LINE
  8
0
 10
-6.56395
 20
298.51
 11
6.56395
 21
298.51
  0
LINE
  8
0
 10
6.56395
 20
298.51
 11
7.1869
 21
298.589
  0
LINE
  8
0
 10
-5.99316
 20
300.135
 11
-6.47565
 21
300.196
  0
LINE
  8
0
 10
-6.47565
 20
300.196
 11
-6.9467
 21
300.317
  0
LINE
  8
0
 10
-6.9467
 20
300.317
 11
-7.39888
 21
300.496
  0
LINE
  8
0
 10
-7.39888
 20
300.496
 11
-7.82506
 21
300.73
  0
LINE
  8
0
 10
-7.82506
 20
300.73
 11
-8.21851
 21
301.016
  0
LINE
  8
0
 10
-8.21851
 20
301.016
 11
-8.57301
 21
301.349
  0
LINE
  8
0
 10
-8.57301
 20
301.349
 11
-8.88301
 21
301.724
  0
LINE
  8
0
 10
-8.88301
 20
301.724
 11
-9.1436
 21
302.134
  0
LINE
  8
0
 10
-9.1436
 20
302.134
 11
-9.35068
 21
302.574
  0
LINE
  8
0
 10
-9.35068
 20
302.574
 11
-9.50096
 21
303.037
  0
LINE
  8
0
 10
-9.50096
 20
303.037
 11
-9.59209
 21
303.515
  0
LINE
  8
0
 10
-9.59209
 20
303.515
 11
-9.62262
 21
304
  0
LINE
  8
0
 10
-9.62262
 20
304
 11
-9.62262
 21
368
  0
LINE
  8
0
 10
-9.62262
 20
368
 11
-9.59209
 21
368.485
  0
LINE
  8
0
 10
-9.59209
 20
368.485
 11
-9.50096
 21
368.963
  0
LINE
  8
0
 10
-9.50096
 20
368.963
 11
-9.35068
 21
369.426
  0
LINE
  8
0
 10
-9.35068
 20
369.426
 11
-9.1436
 21
369.866
  0
LINE
  8
0
 10
-9.1436
 20
369.866
 11
-8.88301
 21
370.276
  0
LINE
  8
0
 10
-8.88301
 20
370.276
 11
-8.57301
 21
370.651
  0
LINE
  8
0
 10
-8.57301
 20
370.651
 11
-8.21851
 21
370.984
  0
LINE
  8
0
 10
-8.21851
 20
370.984
 11
-7.82506
 21
371.27
  0
LINE
  8
0
 10
-7.82506
 20
371.27
 11
-7.39888
 21
371.504
  0
LINE
  8
0
 10
-7.39888
 20
371.504
 11
-6.9467
 21
371.683
  0
LINE
  8
0
 10
-6.9467
 20
371.683
 11
-6.47565
 21
371.804
  0
LINE
  8
0
 10
-6.47565
 20
371.804
 11
-5.99316
 21
371.865
  0
LINE
  8
0
 10
-5.99316
 20
371.865
 11
5.99316
 21
371.865
  0
LINE
  8
0
 10
5.99316
 20
371.865
 11
6.47565
 21
371.804
  0
LINE
  8
0
 10
6.47565
 20
371.804
 11
6.9467
 21
371.683
  0
LINE
  8
0
 10
6.9467
 20
371.683
 11
7.39888
 21
371.504
  0
LINE
  8
0
 10
7.39888
 20
371.504
 11
7.82506
 21
371.27
  0
LINE
  8
0
 10
7.82506
 20
371.27
 11
8.21851
 21
370.984
  0
LINE
  8
0
 10
8.21851
 20
370.984
 11
8.57301
 21
370.651
  0
LINE
  8
0
 10
8.57301
 20
370.651
 11
8.88301
 21
370.276
  0
LINE
  8
0
 10
8.88301
 20
370.276
 11
9.1436
 21
369.866
  0
LINE
  8
0
 10
9.1436
 20
369.866
 11
9.35068
 21
369.426
  0
LINE
  8
0
 10
9.35068
 20
369.426
 11
9.50096
 21
368.963
  0
LINE
  8
0
 10
9.50096
 20
368.963
 11
9.59209
 21
368.485
  0
LINE
  8
0
 10
9.59209
 20
368.485
 11
9.62262
 21
368
  0
LINE
  8
0
 10
9.62262
 20
368
 11
9.62262
 21
304
  0
LINE
  8
0
 10
9.62262
 20
304
 11
9.59209
 21
303.515
  0
LINE
  8
0
 10
9.59209
 20
303.515
 11
9.50096
 21
303.037
  0
LINE
  8
0
 10
9.50096
 20
303.037
 11
9.35068
 21
302.574
  0
LINE
  8
0
 10
9.35068
 20
302.574
 11
9.1436
 21
302.134
  0
LINE
  8
0
 10
9.1436
 20
302.134
 11
8.88301
 21
301.724
  0
LINE
  8
0
 10
8.88301
 20
301.724
 11
8.57301
 21
301.349
  0
LINE
  8
0
 10
8.57301
 20
301.349
 11
8.21851
 21
301.016
  0
LINE
  8
0
 10
8.21851
 20
301.016
 11
7.82506
 21
300.73
  0
LINE
  8
0
 10
7.82506
 20
300.73
 11
7.39888
 21
300.496
  0
LINE
  8
0
 10
7.39888
 20
300.496
 11
6.9467
 21
300.317
  0
LINE
  8
0
 10
6.9467
 20
300.317
 11
6.47565
 21
300.196
  0
LINE
  8
0
 10
6.47565
 20
300.196
 11
5.99316
 21
300.135
  0
LINE
  8
0
 10
5.99316
 20
300.135
 11
-5.99316
 21
300.135
  0
LINE
  8
0
 10
7.1869
 20
214.589
 11
7.79507
 21
214.745
  0
LINE
  8
0
 10
7.79507
 20
214.745
 11
8.37889
 21
214.976
  0
LINE
  8
0
 10
8.37889
 20
214.976
 11
8.92912
 21
215.278
  0
LINE
  8
0
 10
8.92912
 20
215.278
 11
9.43712
 21
215.647
  0
LINE
  8
0
 10
9.43712
 20
215.647
 11
9.89484
 21
216.077
  0
LINE
  8
0
 10
9.89484
 20
216.077
 11
10.2951
 21
216.561
  0
LINE
  8
0
 10
10.2951
 20
216.561
 11
10.6315
 21
217.091
  0
LINE
  8
0
 10
10.6315
 20
217.091
 11
10.8989
 21
217.659
  0
LINE
  8
0
 10
10.8989
 20
217.659
 11
11.0929
 21
218.257
  0
LINE
  8
0
 10
11.0929
 20
218.257
 11
11.2106
 21
218.873
  0
LINE
  8
0
 10
11.2106
 20
218.873
 11
11.25
 21
219.5
  0
LINE
  8
0
 10
11.25
 20
219.5
 11
11.25
 21
284.5
  0
LINE
  8
0
 10
11.25
 20
284.5
 11
11.2106
 21
285.127
  0
LINE
  8
0
 10
11.2106
 20
285.127
 11
11.0929
 21
285.743
  0
LINE
  8
0
 10
11.0929
 20
285.743
 11
10.8989
 21
286.341
  0
LINE
  8
0
 10
10.8989
 20
286.341
 11
10.6315
 21
286.909
  0
LINE
  8
0
 10
10.6315
 20
286.909
 11
10.2951
 21
287.439
  0
LINE
  8
0
 10
10.2951
 20
287.439
 11
9.89484
 21
287.923
  0
LINE
  8
0
 10
9.89484
 20
287.923
 11
9.43712
 21
288.353
  0
LINE
  8
0
 10
9.43712
 20
288.353
 11
8.92912
 21
288.722
  0
LINE
  8
0
 10
8.92912
 20
288.722
 11
8.37889
 21
289.024
  0
LINE
  8
0
 10
8.37889
 20
289.024
 11
7.79507
 21
289.255
  0
LINE
  8
0
 10
7.79507
 20
289.255
 11
7.1869
 21
289.411
  0
LINE
  8
0
 10
7.1869
 20
289.411
 11
6.56395
 21
289.49
  0
LINE
  8
0
 10
6.56395
 20
289.49
 11
-6.56395
 21
289.49
  0
LINE
  8
0
 10
-6.56395
 20
289.49
 11
-7.1869
 21
289.411
  0
LINE
  8
0
 10
-7.1869
 20
289.411
 11
-7.79507
 21
289.255
  0
LINE
  8
0
 10
-7.79507
 20
289.255
 11
-8.37889
 21
289.024
  0
LINE
  8
0
 10
-8.37889
 20
289.024
 11
-8.92912
 21
288.722
  0
LINE
  8
0
 10
-8.92912
 20
288.722
 11
-9.43712
 21
288.353
  0
LINE
  8
0
 10
-9.43712
 20
288.353
 11
-9.89484
 21
287.923
  0
LINE
  8
0
 10
-9.89484
 20
287.923
 11
-10.2951
 21
287.439
  0
LINE
  8
0
 10
-10.2951
 20
287.439
 11
-10.6315
 21
286.909
  0
LINE
  8
0
 10
-10.6315
 20
286.909
 11
-10.8989
 21
286.341
  0
LINE
  8
0
 10
-10.8989
 20
286.341
 11
-11.0929
 21
285.743
  0
LINE
  8
0
 10
-11.0929
 20
285.743
 11
-11.2106
 21
285.127
  0
LINE
  8
0
 10
-11.2106
 20
285.127
 11
-11.25
 21
284.5
  0
LINE
  8
0
 10
-11.25
 20
284.5
 11
-11.25
 21
219.5
  0
LINE
  8
0
 10
-11.25
 20
219.5
 11
-11.2106
 21
218.873
  0
LINE
  8
0
 10
-11.2106
 20
218.873
 11
-11.0929
 21
218.257
  0
LINE
  8
0
 10
-11.0929
 20
218.257
 11
-10.8989
 21
217.659
  0
LINE
  8
0
 10
-10.8989
 20
217.659
 11
-10.6315
 21
217.091
  0
LINE
  8
0
 10
-10.6315
 20
217.091
 11
-10.2951
 21
216.561
  0
LINE
  8
0
 10
-10.2951
 20
216.561
 11
-9.89484
 21
216.077
  0
LINE
  8
0
 10
-9.89484
 20
216.077
 11
-9.43712
 21
215.647
  0
LINE
  8
0
 10
-9.43712
 20
215.647
 11
-8.92912
 21
215.278
  0
LINE
  8
0
 10
-8.92912
 20
215.278
 11
-8.37889
 21
214.976
  0
LINE
  8
0
 10
-8.37889
 20
214.976
 11
-7.79507
 21
214.745
  0
LINE
  8
0
 10
-7.79507
 20
214.745
 11
-7.1869
 21
214.589
  0
LINE
  8
0
 10
-7.1869
 20
214.589
 11
-6.56395
 21
214.51
  0
LINE
  8
0
 10
-6.56395
 20
214.51
 11
6.56395
 21
214.51
  0
LINE
  8
0
 10
6.56395
 20
214.51
 11
7.1869
 21
214.589
  0
LINE
  8
0
 10
7.1869
 20
130.589
 11
7.79507
 21
130.745
  0
LINE
  8
0
 10
7.79507
 20
130.745
 11
8.37889
 21
130.976
  0
LINE
  8
0
 10
8.37889
 20
130.976
 11
8.92912
 21
131.278
  0
LINE
  8
0
 10
8.92912
 20
131.278
 11
9.43712
 21
131.647
  0
LINE
  8
0
 10
9.43712
 20
131.647
 11
9.89484
 21
132.077
  0
LINE
  8
0
 10
9.89484
 20
132.077
 11
10.2951
 21
132.561
  0
LINE
  8
0
 10
10.2951
 20
132.561
 11
10.6315
 21
133.091
  0
LINE
  8
0
 10
10.6315
 20
133.091
 11
10.8989
 21
133.659
  0
LINE
  8
0
 10
10.8989
 20
133.659
 11
11.0929
 21
134.257
  0
LINE
  8
0
 10
11.0929
 20
134.257
 11
11.2106
 21
134.873
  0
LINE
  8
0
 10
11.2106
 20
134.873
 11
11.25
 21
135.5
  0
LINE
  8
0
 10
11.25
 20
135.5
 11
11.25
 21
200.5
  0
LINE
  8
0
 10
11.25
 20
200.5
 11
11.2106
 21
201.127
  0
LINE
  8
0
 10
11.2106
 20
201.127
 11
11.0929
 21
201.743
  0
LINE
  8
0
 10
11.0929
 20
201.743
 11
10.8989
 21
202.341
  0
LINE
  8
0
 10
10.8989
 20
202.341
 11
10.6315
 21
202.909
  0
LINE
  8
0
 10
10.6315
 20
202.909
 11
10.2951
 21
203.439
  0
LINE
  8
0
 10
10.2951
 20
203.439
 11
9.89484
 21
203.923
  0
LINE
  8
0
 10
9.89484
 20
203.923
 11
9.43712
 21
204.353
  0
LINE
  8
0
 10
9.43712
 20
204.353
 11
8.92912
 21
204.722
  0
LINE
  8
0
 10
8.92912
 20
204.722
 11
8.37889
 21
205.024
  0
LINE
  8
0
 10
8.37889
 20
205.024
 11
7.79507
 21
205.255
  0
LINE
  8
0
 10
7.79507
 20
205.255
 11
7.1869
 21
205.411
  0
LINE
  8
0
 10
7.1869
 20
205.411
 11
6.56395
 21
205.49
  0
LINE
  8
0
 10
6.56395
 20
205.49
 11
-6.56395
 21
205.49
  0
LINE
  8
0
 10
-6.56395
 20
205.49
 11
-7.1869
 21
205.411
  0
LINE
  8
0
 10
-7.1869
 20
205.411
 11
-7.79507
 21
205.255
  0
LINE
  8
0
 10
-7.79507
 20
205.255
 11
-8.37889
 21
205.024
  0
LINE
  8
0
 10
-8.37889
 20
205.024
 11
-8.92912
 21
204.722
  0
LINE
  8
0
 10
-8.92912
 20
204.722
 11
-9.43712
 21
204.353
  0
LINE
  8
0
 10
-9.43712
 20
204.353
 11
-9.89484
 21
203.923
  0
LINE
  8
0
 10
-9.89484
 20
203.923
 11
-10.2951
 21
203.439
  0
LINE
  8
0
 10
-10.2951
 20
203.439
 11
-10.6315
 21
202.909
  0
LINE
  8
0
 10
-10.6315
 20
202.909
 11
-10.8989
 21
202.341
  0
LINE
  8
0
 10
-10.8989
 20
202.341
 11
-11.0929
 21
201.743
  0
LINE
  8
0
 10
-11.0929
 20
201.743
 11
-11.2106
 21
201.127
  0
LINE
  8
0
 10
-11.2106
 20
201.127
 11
-11.25
 21
200.5
  0
LINE
  8
0
 10
-11.25
 20
200.5
 11
-11.25
 21
135.5
  0
LINE
  8
0
 10
-11.25
 20
135.5
 11
-11.2106
 21
134.873
  0
LINE
  8
0
 10
-11.2106
 20
134.873
 11
-11.0929
 21
134.257
  0
LINE
  8
0
 10
-11.0929
 20
134.257
 11
-10.8989
 21
133.659
  0
LINE
  8
0
 10
-10.8989
 20
133.659
 11
-10.6315
 21
133.091
  0
LINE
  8
0
 10
-10.6315
 20
133.091
 11
-10.2951
 21
132.561
  0
LINE
  8
0
 10
-10.2951
 20
132.561
 11
-9.89484
 21
132.077
  0
LINE
  8
0
 10
-9.89484
 20
132.077
 11
-9.43712
 21
131.647
  0
LINE
  8
0
 10
-9.43712
 20
131.647
 11
-8.92912
 21
131.278
  0
LINE
  8
0
 10
-8.92912
 20
131.278
 11
-8.37889
 21
130.976
  0
LINE
  8
0
 10
-8.37889
 20
130.976
 11
-7.79507
 21
130.745
  0
LINE
  8
0
 10
-7.79507
 20
130.745
 11
-7.1869
 21
130.589
  0
LINE
  8
0
 10
-7.1869
 20
130.589
 11
-6.56395
 21
130.51
  0
LINE
  8
0
 10
-6.56395
 20
130.51
 11
6.56395
 21
130.51
  0
LINE
  8
0
 10
6.56395
 20
130.51
 11
7.1869
 21
130.589
  0
LINE
  8
0
 10
3.63696
 20
196.204
 11
3.4127
 21
196.232
  0
LINE
  8
0
 10
3.4127
 20
196.232
 11
3.19376
 21
196.288
  0
LINE
  8
0
 10
3.19376
 20
196.288
 11
2.9836
 21
196.371
  0
LINE
  8
0
 10
2.9836
 20
196.371
 11
2.78551
 21
196.48
  0
LINE
  8
0
 10
2.78551
 20
196.48
 11
2.60263
 21
196.613
  0
LINE
  8
0
 10
2.60263
 20
196.613
 11
2.43785
 21
196.768
  0
LINE
  8
0
 10
2.43785
 20
196.768
 11
2.29376
 21
196.942
  0
LINE
  8
0
 10
2.29376
 20
196.942
 11
2.17264
 21
197.133
  0
LINE
  8
0
 10
2.17264
 20
197.133
 11
2.0764
 21
197.337
  0
LINE
  8
0
 10
2.0764
 20
197.337
 11
2.00655
 21
197.552
  0
LINE
  8
0
 10
2.00655
 20
197.552
 11
1.96419
 21
197.774
  0
LINE
  8
0
 10
1.96419
 20
197.774
 11
1.95
 21
198
  0
LINE
  8
0
 10
1.95
 20
198
 11
1.96419
 21
198.226
  0
LINE
  8
0
 10
1.96419
 20
198.226
 11
2.00655
 21
198.448
  0
LINE
  8
0
 10
2.00655
 20
198.448
 11
2.0764
 21
198.663
  0
LINE
  8
0
 10
2.0764
 20
198.663
 11
2.17264
 21
198.867
  0
LINE
  8
0
 10
2.17264
 20
198.867
 11
2.29376
 21
199.058
  0
LINE
  8
0
 10
2.29376
 20
199.058
 11
2.43785
 21
199.232
  0
LINE
  8
0
 10
2.43785
 20
199.232
 11
2.60263
 21
199.387
  0
LINE
  8
0
 10
2.60263
 20
199.387
 11
2.78551
 21
199.52
  0
LINE
  8
0
 10
2.78551
 20
199.52
 11
2.9836
 21
199.629
  0
LINE
  8
0
 10
2.9836
 20
199.629
 11
3.19376
 21
199.712
  0
LINE
  8
0
 10
3.19376
 20
199.712
 11
3.4127
 21
199.768
  0
LINE
  8
0
 10
3.4127
 20
199.768
 11
3.63696
 21
199.796
  0
LINE
  8
0
 10
3.63696
 20
199.796
 11
3.86302
 21
199.796
  0
LINE
  8
0
 10
3.86302
 20
199.796
 11
4.08728
 21
199.768
  0
LINE
  8
0
 10
4.08728
 20
199.768
 11
4.30623
 21
199.712
  0
LINE
  8
0
 10
4.30623
 20
199.712
 11
4.51639
 21
199.629
  0
LINE
  8
0
 10
4.51639
 20
199.629
 11
4.71448
 21
199.52
  0
LINE
  8
0
 10
4.71448
 20
199.52
 11
4.89735
 21
199.387
  0
LINE
  8
0
 10
4.89735
 20
199.387
 11
5.06213
 21
199.232
  0
LINE
  8
0
 10
5.06213
 20
199.232
 11
5.20622
 21
199.058
  0
LINE
  8
0
 10
5.20622
 20
199.058
 11
5.32735
 21
198.867
  0
LINE
  8
0
 10
5.32735
 20
198.867
 11
5.42358
 21
198.663
  0
LINE
  8
0
 10
5.42358
 20
198.663
 11
5.49344
 21
198.448
  0
LINE
  8
0
 10
5.49344
 20
198.448
 11
5.5358
 21
198.226
  0
LINE
  8
0
 10
5.5358
 20
198.226
 11
5.54999
 21
198
  0
LINE
  8
0
 10
5.54999
 20
198
 11
5.5358
 21
197.774
  0
LINE
  8
0
 10
5.5358
 20
197.774
 11
5.49344
 21
197.552
  0
LINE
  8
0
 10
5.49344
 20
197.552
 11
5.42358
 21
197.337
  0
LINE
  8
0
 10
5.42358
 20
197.337
 11
5.32735
 21
197.133
  0
LINE
  8
0
 10
5.32735
 20
197.133
 11
5.20622
 21
196.942
  0
LINE
  8
0
 10
5.20622
 20
196.942
 11
5.06213
 21
196.768
  0
LINE
  8
0
 10
5.06213
 20
196.768
 11
4.89735
 21
196.613
  0
LINE
  8
0
 10
4.89735
 20
196.613
 11
4.71448
 21
196.48
  0
LINE
  8
0
 10
4.71448
 20
196.48
 11
4.51639
 21
196.371
  0
LINE
  8
0
 10
4.51639
 20
196.371
 11
4.30623
 21
196.288
  0
LINE
  8
0
 10
4.30623
 20
196.288
 11
4.08728
 21
196.232
  0
LINE
  8
0
 10
4.08728
 20
196.232
 11
3.86302
 21
196.204
  0
LINE
  8
0
 10
3.86302
 20
196.204
 11
3.63696
 21
196.204
  0
LINE
  8
0
 10
-3.86302
 20
196.204
 11
-4.08728
 21
196.232
  0
LINE
  8
0
 10
-4.08728
 20
196.232
 11
-4.30623
 21
196.288
  0
LINE
  8
0
 10
-4.30623
 20
196.288
 11
-4.51639
 21
196.371
  0
LINE
  8
0
 10
-4.51639
 20
196.371
 11
-4.71448
 21
196.48
  0
LINE
  8
0
 10
-4.71448
 20
196.48
 11
-4.89735
 21
196.613
  0
LINE
  8
0
 10
-4.89735
 20
196.613
 11
-5.06213
 21
196.768
  0
LINE
  8
0
 10
-5.06213
 20
196.768
 11
-5.20622
 21
196.942
  0
LINE
  8
0
 10
-5.20622
 20
196.942
 11
-5.32735
 21
197.133
  0
LINE
  8
0
 10
-5.32735
 20
197.133
 11
-5.42358
 21
197.337
  0
LINE
  8
0
 10
-5.42358
 20
197.337
 11
-5.49344
 21
197.552
  0
LINE
  8
0
 10
-5.49344
 20
197.552
 11
-5.5358
 21
197.774
  0
LINE
  8
0
 10
-5.5358
 20
197.774
 11
-5.54999
 21
198
  0
LINE
  8
0
 10
-5.54999
 20
198
 11
-5.5358
 21
198.226
  0
LINE
  8
0
 10
-5.5358
 20
198.226
 11
-5.49344
 21
198.448
  0
LINE
  8
0
 10
-5.49344
 20
198.448
 11
-5.42358
 21
198.663
  0
LINE
  8
0
 10
-5.42358
 20
198.663
 11
-5.32735
 21
198.867
  0
LINE
  8
0
 10
-5.32735
 20
198.867
 11
-5.20622
 21
199.058
  0
LINE
  8
0
 10
-5.20622
 20
199.058
 11
-5.06213
 21
199.232
  0
LINE
  8
0
 10
-5.06213
 20
199.232
 11
-4.89735
 21
199.387
  0
LINE
  8
0
 10
-4.89735
 20
199.387
 11
-4.71448
 21
199.52
  0
LINE
  8
0
 10
-4.71448
 20
199.52
 11
-4.51639
 21
199.629
  0
LINE
  8
0
 10
-4.51639
 20
199.629
 11
-4.30623
 21
199.712
  0
LINE
  8
0
 10
-4.30623
 20
199.712
 11
-4.08728
 21
199.768
  0
LINE
  8
0
 10
-4.08728
 20
199.768
 11
-3.86302
 21
199.796
  0
LINE
  8
0
 10
-3.86302
 20
199.796
 11
-3.63696
 21
199.796
  0
LINE
  8
0
 10
-3.63696
 20
199.796
 11
-3.4127
 21
199.768
  0
LINE
  8
0
 10
-3.4127
 20
199.768
 11
-3.19376
 21
199.712
  0
LINE
  8
0
 10
-3.19376
 20
199.712
 11
-2.9836
 21
199.629
  0
LINE
  8
0
 10
-2.9836
 20
199.629
 11
-2.78551
 21
199.52
  0
LINE
  8
0
 10
-2.78551
 20
199.52
 11
-2.60263
 21
199.387
  0
LINE
  8
0
 10
-2.60263
 20
199.387
 11
-2.43785
 21
199.232
  0
LINE
  8
0
 10
-2.43785
 20
199.232
 11
-2.29376
 21
199.058
  0
LINE
  8
0
 10
-2.29376
 20
199.058
 11
-2.17264
 21
198.867
  0
LINE
  8
0
 10
-2.17264
 20
198.867
 11
-2.0764
 21
198.663
  0
LINE
  8
0
 10
-2.0764
 20
198.663
 11
-2.00655
 21
198.448
  0
LINE
  8
0
 10
-2.00655
 20
198.448
 11
-1.96419
 21
198.226
  0
LINE
  8
0
 10
-1.96419
 20
198.226
 11
-1.95
 21
198
  0
LINE
  8
0
 10
-1.95
 20
198
 11
-1.96419
 21
197.774
  0
LINE
  8
0
 10
-1.96419
 20
197.774
 11
-2.00655
 21
197.552
  0
LINE
  8
0
 10
-2.00655
 20
197.552
 11
-2.0764
 21
197.337
  0
LINE
  8
0
 10
-2.0764
 20
197.337
 11
-2.17264
 21
197.133
  0
LINE
  8
0
 10
-2.17264
 20
197.133
 11
-2.29376
 21
196.942
  0
LINE
  8
0
 10
-2.29376
 20
196.942
 11
-2.43785
 21
196.768
  0
LINE
  8
0
 10
-2.43785
 20
196.768
 11
-2.60263
 21
196.613
  0
LINE
  8
0
 10
-2.60263
 20
196.613
 11
-2.78551
 21
196.48
  0
LINE
  8
0
 10
-2.78551
 20
196.48
 11
-2.9836
 21
196.371
  0
LINE
  8
0
 10
-2.9836
 20
196.371
 11
-3.19376
 21
196.288
  0
LINE
  8
0
 10
-3.19376
 20
196.288
 11
-3.4127
 21
196.232
  0
LINE
  8
0
 10
-3.4127
 20
196.232
 11
-3.63696
 21
196.204
  0
LINE
  8
0
 10
-3.63696
 20
196.204
 11
-3.86302
 21
196.204
  0
LINE
  8
0
 10
-3.86302
 20
136.204
 11
-4.08728
 21
136.232
  0
LINE
  8
0
 10
-4.08728
 20
136.232
 11
-4.30623
 21
136.288
  0
LINE
  8
0
 10
-4.30623
 20
136.288
 11
-4.51639
 21
136.371
  0
LINE
  8
0
 10
-4.51639
 20
136.371
 11
-4.71448
 21
136.48
  0
LINE
  8
0
 10
-4.71448
 20
136.48
 11
-4.89735
 21
136.613
  0
LINE
  8
0
 10
-4.89735
 20
136.613
 11
-5.06213
 21
136.768
  0
LINE
  8
0
 10
-5.06213
 20
136.768
 11
-5.20622
 21
136.942
  0
LINE
  8
0
 10
-5.20622
 20
136.942
 11
-5.32735
 21
137.133
  0
LINE
  8
0
 10
-5.32735
 20
137.133
 11
-5.42358
 21
137.337
  0
LINE
  8
0
 10
-5.42358
 20
137.337
 11
-5.49344
 21
137.552
  0
LINE
  8
0
 10
-5.49344
 20
137.552
 11
-5.5358
 21
137.774
  0
LINE
  8
0
 10
-5.5358
 20
137.774
 11
-5.54999
 21
138
  0
LINE
  8
0
 10
-5.54999
 20
138
 11
-5.5358
 21
138.226
  0
LINE
  8
0
 10
-5.5358
 20
138.226
 11
-5.49344
 21
138.448
  0
LINE
  8
0
 10
-5.49344
 20
138.448
 11
-5.42358
 21
138.663
  0
LINE
  8
0
 10
-5.42358
 20
138.663
 11
-5.32735
 21
138.867
  0
LINE
  8
0
 10
-5.32735
 20
138.867
 11
-5.20622
 21
139.058
  0
LINE
  8
0
 10
-5.20622
 20
139.058
 11
-5.06213
 21
139.232
  0
LINE
  8
0
 10
-5.06213
 20
139.232
 11
-4.89735
 21
139.387
  0
LINE
  8
0
 10
-4.89735
 20
139.387
 11
-4.71448
 21
139.52
  0
LINE
  8
0
 10
-4.71448
 20
139.52
 11
-4.51639
 21
139.629
  0
LINE
  8
0
 10
-4.51639
 20
139.629
 11
-4.30623
 21
139.712
  0
LINE
  8
0
 10
-4.30623
 20
139.712
 11
-4.08728
 21
139.768
  0
LINE
  8
0
 10
-4.08728
 20
139.768
 11
-3.86302
 21
139.796
  0
LINE
  8
0
 10
-3.86302
 20
139.796
 11
-3.63696
 21
139.796
  0
LINE
  8
0
 10
-3.63696
 20
139.796
 11
-3.4127
 21
139.768
  0
LINE
  8
0
 10
-3.4127
 20
139.768
 11
-3.19376
 21
139.712
  0
LINE
  8
0
 10
-3.19376
 20
139.712
 11
-2.9836
 21
139.629
  0
LINE
  8
0
 10
-2.9836
 20
139.629
 11
-2.78551
 21
139.52
  0
LINE
  8
0
 10
-2.78551
 20
139.52
 11
-2.60263
 21
139.387
  0
LINE
  8
0
 10
-2.60263
 20
139.387
 11
-2.43785
 21
139.232
  0
LINE
  8
0
 10
-2.43785
 20
139.232
 11
-2.29376
 21
139.058
  0
LINE
  8
0
 10
-2.29376
 20
139.058
 11
-2.17264
 21
138.867
  0
LINE
  8
0
 10
-2.17264
 20
138.867
 11
-2.0764
 21
138.663
  0
LINE
  8
0
 10
-2.0764
 20
138.663
 11
-2.00655
 21
138.448
  0
LINE
  8
0
 10
-2.00655
 20
138.448
 11
-1.96419
 21
138.226
  0
LINE
  8
0
 10
-1.96419
 20
138.226
 11
-1.95
 21
138
  0
LINE
  8
0
 10
-1.95
 20
138
 11
-1.96419
 21
137.774
  0
LINE
  8
0
 10
-1.96419
 20
137.774
 11
-2.00655
 21
137.552
  0
LINE
  8
0
 10
-2.00655
 20
137.552
 11
-2.0764
 21
137.337
  0
LINE
  8
0
 10
-2.0764
 20
137.337
 11
-2.17264
 21
137.133
  0
LINE
  8
0
 10
-2.17264
 20
137.133
 11
-2.29376
 21
136.942
  0
LINE
  8
0
 10
-2.29376
 20
136.942
 11
-2.43785
 21
136.768
  0
LINE
  8
0
 10
-2.43785
 20
136.768
 11
-2.60263
 21
136.613
  0
LINE
  8
0
 10
-2.60263
 20
136.613
 11
-2.78551
 21
136.48
  0
LINE
  8
0
 10
-2.78551
 20
136.48
 11
-2.9836
 21
136.371
  0
LINE
  8
0
 10
-2.9836
 20
136.371
 11
-3.19376
 21
136.288
  0
LINE
  8
0
 10
-3.19376
 20
136.288
 11
-3.4127
 21
136.232
  0
LINE
  8
0
 10
-3.4127
 20
136.232
 11
-3.63696
 21
136.204
  0
LINE
  8
0
 10
-3.63696
 20
136.204
 11
-3.86302
 21
136.204
  0
LINE
  8
0
 10
3.63696
 20
136.204
 11
3.4127
 21
136.232
  0
LINE
  8
0
 10
3.4127
 20
136.232
 11
3.19376
 21
136.288
  0
LINE
  8
0
 10
3.19376
 20
136.288
 11
2.9836
 21
136.371
  0
LINE
  8
0
 10
2.9836
 20
136.371
 11
2.78551
 21
136.48
  0
LINE
  8
0
 10
2.78551
 20
136.48
 11
2.60263
 21
136.613
  0
LINE
  8
0
 10
2.60263
 20
136.613
 11
2.43785
 21
136.768
  0
LINE
  8
0
 10
2.43785
 20
136.768
 11
2.29376
 21
136.942
  0
LINE
  8
0
 10
2.29376
 20
136.942
 11
2.17264
 21
137.133
  0
LINE
  8
0
 10
2.17264
 20
137.133
 11
2.0764
 21
137.337
  0
LINE
  8
0
 10
2.0764
 20
137.337
 11
2.00655
 21
137.552
  0
LINE
  8
0
 10
2.00655
 20
137.552
 11
1.96419
 21
137.774
  0
LINE
  8
0
 10
1.96419
 20
137.774
 11
1.95
 21
138
  0
LINE
  8
0
 10
1.95
 20
138
 11
1.96419
 21
138.226
  0
LINE
  8
0
 10
1.96419
 20
138.226
 11
2.00655
 21
138.448
  0
LINE
  8
0
 10
2.00655
 20
138.448
 11
2.0764
 21
138.663
  0
LINE
  8
0
 10
2.0764
 20
138.663
 11
2.17264
 21
138.867
  0
LINE
  8
0
 10
2.17264
 20
138.867
 11
2.29376
 21
139.058
  0
LINE
  8
0
 10
2.29376
 20
139.058
 11
2.43785
 21
139.232
  0
LINE
  8
0
 10
2.43785
 20
139.232
 11
2.60263
 21
139.387
  0
LINE
  8
0
 10
2.60263
 20
139.387
 11
2.78551
 21
139.52
  0
LINE
  8
0
 10
2.78551
 20
139.52
 11
2.9836
 21
139.629
  0
LINE
  8
0
 10
2.9836
 20
139.629
 11
3.19376
 21
139.712
  0
LINE
  8
0
 10
3.19376
 20
139.712
 11
3.4127
 21
139.768
  0
LINE
  8
0
 10
3.4127
 20
139.768
 11
3.63696
 21
139.796
  0
LINE
  8
0
 10
3.63696
 20
139.796
 11
3.86302
 21
139.796
  0
LINE
  8
0
 10
3.86302
 20
139.796
 11
4.08728
 21
139.768
  0
LINE
  8
0
 10
4.08728
 20
139.768
 11
4.30623
 21
139.712
  0
LINE
  8
0
 10
4.30623
 20
139.712
 11
4.51639
 21
139.629
  0
LINE
  8
0
 10
4.51639
 20
139.629
 11
4.71448
 21
139.52
  0
LINE
  8
0
 10
4.71448
 20
139.52
 11
4.89735
 21
139.387
  0
LINE
  8
0
 10
4.89735
 20
139.387
 11
5.06213
 21
139.232
  0
LINE
  8
0
 10
5.06213
 20
139.232
 11
5.20622
 21
139.058
  0
LINE
  8
0
 10
5.20622
 20
139.058
 11
5.32735
 21
138.867
  0
LINE
  8
0
 10
5.32735
 20
138.867
 11
5.42358
 21
138.663
  0
LINE
  8
0
 10
5.42358
 20
138.663
 11
5.49344
 21
138.448
  0
LINE
  8
0
 10
5.49344
 20
138.448
 11
5.5358
 21
138.226
  0
LINE
  8
0
 10
5.5358
 20
138.226
 11
5.54999
 21
138
  0
LINE
  8
0
 10
5.54999
 20
138
 11
5.5358
 21
137.774
  0
LINE
  8
0
 10
5.5358
 20
137.774
 11
5.49344
 21
137.552
  0
LINE
  8
0
 10
5.49344
 20
137.552
 11
5.42358
 21
137.337
  0
LINE
  8
0
 10
5.42358
 20
137.337
 11
5.32735
 21
137.133
  0
LINE
  8
0
 10
5.32735
 20
137.133
 11
5.20622
 21
136.942
  0
LINE
  8
0
 10
5.20622
 20
136.942
 11
5.06213
 21
136.768
  0
LINE
  8
0
 10
5.06213
 20
136.768
 11
4.89735
 21
136.613
  0
LINE
  8
0
 10
4.89735
 20
136.613
 11
4.71448
 21
136.48
  0
LINE
  8
0
 10
4.71448
 20
136.48
 11
4.51639
 21
136.371
  0
LINE
  8
0
 10
4.51639
 20
136.371
 11
4.30623
 21
136.288
  0
LINE
  8
0
 10
4.30623
 20
136.288
 11
4.08728
 21
136.232
  0
LINE
  8
0
 10
4.08728
 20
136.232
 11
3.86302
 21
136.204
  0
LINE
  8
0
 10
3.86302
 20
136.204
 11
3.63696
 21
136.204
  0
ENDSEC
  0
SECTION
  2
OBJECTS
  0
DICTIONARY
  0
ENDSEC
  0
EOF
