<?xml version="1.0" standalone="no"?>
<!DOCTYPE svg PUBLIC "-//W3C//DTD SVG 1.1//EN" "http://www.w3.org/Graphics/SVG/1.1/DTD/svg11.dtd">
<svg width="24mm" height="609mm" viewBox="-12 -768 24 609" xmlns="http://www.w3.org/2000/svg" version="1.1">
<title>OpenSCAD Model</title>
<path d="
M 7.1869,-468.089 L 7.79507,-468.245 L 8.37889,-468.476 L 8.92912,-468.778 L 9.43712,-469.147 L 9.89484,-469.577
 L 10.2951,-470.061 L 10.6315,-470.591 L 10.8989,-471.159 L 11.0929,-471.757 L 11.2106,-472.373 L 11.25,-473
 L 11.25,-763 L 11.2106,-763.627 L 11.0929,-764.243 L 10.8989,-764.841 L 10.6315,-765.409 L 10.2951,-765.939
 L 9.89484,-766.423 L 9.43712,-766.853 L 8.92912,-767.222 L 8.37889,-767.524 L 7.79507,-767.755 L 7.1869,-767.911
 L 6.56395,-767.99 L -6.56395,-767.99 L -7.1869,-767.911 L -7.79507,-767.755 L -8.37889,-767.524 L -8.92912,-767.222
 L -9.43712,-766.853 L -9.89484,-766.423 L -10.2951,-765.939 L -10.6315,-765.409 L -10.8989,-764.841 L -11.0929,-764.243
 L -11.2106,-763.627 L -11.25,-763 L -11.25,-473 L -11.2106,-472.373 L -11.0929,-471.757 L -10.8989,-471.159
 L -10.6315,-470.591 L -10.2951,-470.061 L -9.89484,-469.577 L -9.43712,-469.147 L -8.92912,-468.778 L -8.37889,-468.476
 L -7.79507,-468.245 L -7.1869,-468.089 L -6.56395,-468.01 L 6.56395,-468.01 z
M 3.59929,-758.105 L 3.30028,-758.143 L 3.00835,-758.217 L 2.72812,-758.328 L 2.464,-758.474 L 2.22017,-758.651
 L 2.00047,-758.857 L 1.80835,-759.089 L 1.64685,-759.344 L 1.51852,-759.617 L 1.4254,-759.903 L 1.36891,-760.199
 L 1.34999,-760.5 L 1.36891,-760.801 L 1.4254,-761.097 L 1.51852,-761.383 L 1.64685,-761.656 L 1.80835,-761.911
 L 2.00047,-762.143 L 2.22017,-762.349 L 2.464,-762.526 L 2.72812,-762.672 L 3.00835,-762.783 L 3.30028,-762.857
 L 3.59929,-762.895 L 3.9007,-762.895 L 4.19971,-762.857 L 4.49164,-762.783 L 4.77187,-762.672 L 5.03598,-762.526
 L 5.27982,-762.349 L 5.49951,-762.143 L 5.69164,-761.911 L 5.85313,-761.656 L 5.98146,-761.383 L 6.07458,-761.097
 L 6.13107,-760.801 L 6.14999,-760.5 L 6.13107,-760.199 L 6.07458,-759.903 L 5.98146,-759.617 L 5.85313,-759.344
 L 5.69164,-759.089 L 5.49951,-758.857 L 5.27982,-758.651 L 5.03598,-758.474 L 4.77187,-758.328 L 4.49164,-758.217
 L 4.19971,-758.143 L 3.9007,-758.105 z
M -3.9007,-758.105 L -4.19971,-758.143 L -4.49164,-758.217 L -4.77187,-758.328 L -5.03598,-758.474 L -5.27982,-758.651
 L -5.49951,-758.857 L -5.69164,-759.089 L -5.85313,-759.344 L -5.98146,-759.617 L -6.07458,-759.903 L -6.13107,-760.199
 L -6.14999,-760.5 L -6.13107,-760.801 L -6.07458,-761.097 L -5.98146,-761.383 L -5.85313,-761.656 L -5.69164,-761.911
 L -5.49951,-762.143 L -5.27982,-762.349 L -5.03598,-762.526 L -4.77187,-762.672 L -4.49164,-762.783 L -4.19971,-762.857
 L -3.9007,-762.895 L -3.59929,-762.895 L -3.30028,-762.857 L -3.00835,-762.783 L -2.72812,-762.672 L -2.464,-762.526
 L -2.22017,-762.349 L -2.00047,-762.143 L -1.80835,-761.911 L -1.64685,-761.656 L -1.51852,-761.383 L -1.4254,-761.097
 L -1.36891,-760.801 L -1.34999,-760.5 L -1.36891,-760.199 L -1.4254,-759.903 L -1.51852,-759.617 L -1.64685,-759.344
 L -1.80835,-759.089 L -2.00047,-758.857 L -2.22017,-758.651 L -2.464,-758.474 L -2.72812,-758.328 L -3.00835,-758.217
 L -3.30028,-758.143 L -3.59929,-758.105 z
M 3.59929,-473.105 L 3.30028,-473.143 L 3.00835,-473.217 L 2.72812,-473.328 L 2.464,-473.474 L 2.22017,-473.651
 L 2.00047,-473.857 L 1.80835,-474.089 L 1.64685,-474.344 L 1.51852,-474.617 L 1.4254,-474.903 L 1.36891,-475.199
 L 1.34999,-475.5 L 1.36891,-475.801 L 1.4254,-476.097 L 1.51852,-476.383 L 1.64685,-476.656 L 1.80835,-476.911
 L 2.00047,-477.143 L 2.22017,-477.349 L 2.464,-477.526 L 2.72812,-477.672 L 3.00835,-477.783 L 3.30028,-477.857
 L 3.59929,-477.895 L 3.9007,-477.895 L 4.19971,-477.857 L 4.49164,-477.783 L 4.77187,-477.672 L 5.03598,-477.526
 L 5.27982,-477.349 L 5.49951,-477.143 L 5.69164,-476.911 L 5.85313,-476.656 L 5.98146,-476.383 L 6.07458,-476.097
 L 6.13107,-475.801 L 6.14999,-475.5 L 6.13107,-475.199 L 6.07458,-474.903 L 5.98146,-474.617 L 5.85313,-474.344
 L 5.69164,-474.089 L 5.49951,-473.857 L 5.27982,-473.651 L 5.03598,-473.474 L 4.77187,-473.328 L 4.49164,-473.217
 L 4.19971,-473.143 L 3.9007,-473.105 z
M -3.9007,-473.105 L -4.19971,-473.143 L -4.49164,-473.217 L -4.77187,-473.328 L -5.03598,-473.474 L -5.27982,-473.651
 L -5.49951,-473.857 L -5.69164,-474.089 L -5.85313,-474.344 L -5.98146,-474.617 L -6.07458,-474.903 L -6.13107,-475.199
 L -6.14999,-475.5 L -6.13107,-475.801 L -6.07458,-476.097 L -5.98146,-476.383 L -5.85313,-476.656 L -5.69164,-476.911
 L -5.49951,-477.143 L -5.27982,-477.349 L -5.03598,-477.526 L -4.77187,-477.672 L -4.49164,-477.783 L -4.19971,-477.857
 L -3.9007,-477.895 L -3.59929,-477.895 L -3.30028,-477.857 L -3.00835,-477.783 L -2.72812,-477.672 L -2.464,-477.526
 L -2.22017,-477.349 L -2.00047,-477.143 L -1.80835,-476.911 L -1.64685,-476.656 L -1.51852,-476.383 L -1.4254,-476.097
 L -1.36891,-475.801 L -1.34999,-475.5 L -1.36891,-475.199 L -1.4254,-474.903 L -1.51852,-474.617 L -1.64685,-474.344
 L -1.80835,-474.089 L -2.00047,-473.857 L -2.22017,-473.651 L -2.464,-473.474 L -2.72812,-473.328 L -3.00835,-473.217
 L -3.30028,-473.143 L -3.59929,-473.105 z
M 7.1869,-159.089 L 7.79507,-159.245 L 8.37889,-159.476 L 8.92912,-159.778 L 9.43712,-160.147 L 9.89484,-160.577
 L 10.2951,-161.061 L 10.6315,-161.591 L 10.8989,-162.159 L 11.0929,-162.757 L 11.2106,-163.373 L 11.25,-164
 L 11.25,-454 L 11.2106,-454.627 L 11.0929,-455.243 L 10.8989,-455.841 L 10.6315,-456.409 L 10.2951,-456.939
 L 9.89484,-457.423 L 9.43712,-457.853 L 8.92912,-458.222 L 8.37889,-458.524 L 7.79507,-458.755 L 7.1869,-458.911
 L 6.56395,-458.99 L -6.56395,-458.99 L -7.1869,-458.911 L -7.79507,-458.755 L -8.37889,-458.524 L -8.92912,-458.222
 L -9.43712,-457.853 L -9.89484,-457.423 L -10.2951,-456.939 L -10.6315,-456.409 L -10.8989,-455.841 L -11.0929,-455.243
 L -11.2106,-454.627 L -11.25,-454 L -11.25,-164 L -11.2106,-163.373 L -11.0929,-162.757 L -10.8989,-162.159
 L -10.6315,-161.591 L -10.2951,-161.061 L -9.89484,-160.577 L -9.43712,-160.147 L -8.92912,-159.778 L -8.37889,-159.476
 L -7.79507,-159.245 L -7.1869,-159.089 L -6.56395,-159.01 L 6.56395,-159.01 z
M 3.63696,-449.704 L 3.4127,-449.732 L 3.19376,-449.788 L 2.9836,-449.871 L 2.78551,-449.98 L 2.60263,-450.113
 L 2.43785,-450.268 L 2.29376,-450.442 L 2.17264,-450.633 L 2.0764,-450.837 L 2.00655,-451.052 L 1.96419,-451.274
 L 1.95,-451.5 L 1.96419,-451.726 L 2.00655,-451.948 L 2.0764,-452.163 L 2.17264,-452.367 L 2.29376,-452.558
 L 2.43785,-452.732 L 2.60263,-452.887 L 2.78551,-453.02 L 2.9836,-453.129 L 3.19376,-453.212 L 3.4127,-453.268
 L 3.63696,-453.296 L 3.86302,-453.296 L 4.08728,-453.268 L 4.30623,-453.212 L 4.51639,-453.129 L 4.71448,-453.02
 L 4.89735,-452.887 L 5.06213,-452.732 L 5.20622,-452.558 L 5.32735,-452.367 L 5.42358,-452.163 L 5.49344,-451.948
 L 5.5358,-451.726 L 5.54999,-451.5 L 5.5358,-451.274 L 5.49344,-451.052 L 5.42358,-450.837 L 5.32735,-450.633
 L 5.20622,-450.442 L 5.06213,-450.268 L 4.89735,-450.113 L 4.71448,-449.98 L 4.51639,-449.871 L 4.30623,-449.788
 L 4.08728,-449.732 L 3.86302,-449.704 z
M -3.86302,-449.704 L -4.08728,-449.732 L -4.30623,-449.788 L -4.51639,-449.871 L -4.71448,-449.98 L -4.89735,-450.113
 L -5.06213,-450.268 L -5.20622,-450.442 L -5.32735,-450.633 L -5.42358,-450.837 L -5.49344,-451.052 L -5.5358,-451.274
 L -5.54999,-451.5 L -5.5358,-451.726 L -5.49344,-451.948 L -5.42358,-452.163 L -5.32735,-452.367 L -5.20622,-452.558
 L -5.06213,-452.732 L -4.89735,-452.887 L -4.71448,-453.02 L -4.51639,-453.129 L -4.30623,-453.212 L -4.08728,-453.268
 L -3.86302,-453.296 L -3.63696,-453.296 L -3.4127,-453.268 L -3.19376,-453.212 L -2.9836,-453.129 L -2.78551,-453.02
 L -2.60263,-452.887 L -2.43785,-452.732 L -2.29376,-452.558 L -2.17264,-452.367 L -2.0764,-452.163 L -2.00655,-451.948
 L -1.96419,-451.726 L -1.95,-451.5 L -1.96419,-451.274 L -2.00655,-451.052 L -2.0764,-450.837 L -2.17264,-450.633
 L -2.29376,-450.442 L -2.43785,-450.268 L -2.60263,-450.113 L -2.78551,-449.98 L -2.9836,-449.871 L -3.19376,-449.788
 L -3.4127,-449.732 L -3.63696,-449.704 z
M -3.86302,-164.704 L -4.08728,-164.732 L -4.30623,-164.788 L -4.51639,-164.871 L -4.71448,-164.98 L -4.89735,-165.113
 L -5.06213,-165.268 L -5.20622,-165.442 L -5.32735,-165.633 L -5.42358,-165.837 L -5.49344,-166.052 L -5.5358,-166.274
 L -5.54999,-166.5 L -5.5358,-166.726 L -5.49344,-166.948 L -5.42358,-167.163 L -5.32735,-167.367 L -5.20622,-167.558
 L -5.06213,-167.732 L -4.89735,-167.887 L -4.71448,-168.02 L -4.51639,-168.129 L -4.30623,-168.212 L -4.08728,-168.268
 L -3.86302,-168.296 L -3.63696,-168.296 L -3.4127,-168.268 L -3.19376,-168.212 L -2.9836,-168.129 L -2.78551,-168.02
 L -2.60263,-167.887 L -2.43785,-167.732 L -2.29376,-167.558 L -2.17264,-167.367 L -2.0764,-167.163 L -2.00655,-166.948
 L -1.96419,-166.726 L -1.95,-166.5 L -1.96419,-166.274 L -2.00655,-166.052 L -2.0764,-165.837 L -2.17264,-165.633
 L -2.29376,-165.442 L -2.43785,-165.268 L -2.60263,-165.113 L -2.78551,-164.98 L -2.9836,-164.871 L -3.19376,-164.788
 L -3.4127,-164.732 L -3.63696,-164.704 z
M 3.63696,-164.704 L 3.4127,-164.732 L 3.19376,-164.788 L 2.9836,-164.871 L 2.78551,-164.98 L 2.60263,-165.113
 L 2.43785,-165.268 L 2.29376,-165.442 L 2.17264,-165.633 L 2.0764,-165.837 L 2.00655,-166.052 L 1.96419,-166.274
 L 1.95,-166.5 L 1.96419,-166.726 L 2.00655,-166.948 L 2.0764,-167.163 L 2.17264,-167.367 L 2.29376,-167.558
 L 2.43785,-167.732 L 2.60263,-167.887 L 2.78551,-168.02 L 2.9836,-168.129 L 3.19376,-168.212 L 3.4127,-168.268
 L 3.63696,-168.296 L 3.86302,-168.296 L 4.08728,-168.268 L 4.30623,-168.212 L 4.51639,-168.129 L 4.71448,-168.02
 L 4.89735,-167.887 L 5.06213,-167.732 L 5.20622,-167.558 L 5.32735,-167.367 L 5.42358,-167.163 L 5.49344,-166.948
 L 5.5358,-166.726 L 5.54999,-166.5 L 5.5358,-166.274 L 5.49344,-166.052 L 5.42358,-165.837 L 5.32735,-165.633
 L 5.20622,-165.442 L 5.06213,-165.268 L 4.89735,-165.113 L 4.71448,-164.98 L 4.51639,-164.871 L 4.30623,-164.788
 L 4.08728,-164.732 L 3.86302,-164.704 z
" stroke="black" fill="lightgray" stroke-width="0.5"/>
</svg>
