  0
SECTION
  2
BLOCKS
  0
ENDSEC
  0
SECTION
  2
ENTITIES
  0
LINE
  8
0
 10
18.4369
 20
51.8386
 11
19.0451
 21
51.9947
  0
LINE
  8
0
 10
19.0451
 20
51.9947
 11
19.6289
 21
52.2259
  0
LINE
  8
0
 10
19.6289
 20
52.2259
 11
20.1791
 21
52.5284
  0
LINE
  8
0
 10
20.1791
 20
52.5284
 11
20.6871
 21
52.8974
  0
LINE
  8
0
 10
20.6871
 20
52.8974
 11
21.1448
 21
53.3273
  0
LINE
  8
0
 10
21.1448
 20
53.3273
 11
21.5451
 21
53.8111
  0
LINE
  8
0
 10
21.5451
 20
53.8111
 11
21.8815
 21
54.3412
  0
LINE
  8
0
 10
21.8815
 20
54.3412
 11
22.1489
 21
54.9094
  0
LINE
  8
0
 10
22.1489
 20
54.9094
 11
22.3429
 21
55.5066
  0
LINE
  8
0
 10
22.3429
 20
55.5066
 11
22.4606
 21
56.1233
  0
LINE
  8
0
 10
22.4606
 20
56.1233
 11
22.5
 21
56.75
  0
LINE
  8
0
 10
22.5
 20
56.75
 11
22.5
 21
69.25
  0
LINE
  8
0
 10
22.5
 20
69.25
 11
22.4606
 21
69.8767
  0
LINE
  8
0
 10
22.4606
 20
69.8767
 11
22.3429
 21
70.4934
  0
LINE
  8
0
 10
22.3429
 20
70.4934
 11
22.1489
 21
71.0906
  0
LINE
  8
0
 10
22.1489
 20
71.0906
 11
21.8815
 21
71.6588
  0
LINE
  8
0
 10
21.8815
 20
71.6588
 11
21.5451
 21
72.1889
  0
LINE
  8
0
 10
21.5451
 20
72.1889
 11
21.1448
 21
72.6727
  0
LINE
  8
0
 10
21.1448
 20
72.6727
 11
20.6871
 21
73.1026
  0
LINE
  8
0
 10
20.6871
 20
73.1026
 11
20.1791
 21
73.4716
  0
LINE
  8
0
 10
20.1791
 20
73.4716
 11
19.6289
 21
73.7741
  0
LINE
  8
0
 10
19.6289
 20
73.7741
 11
19.0451
 21
74.0053
  0
LINE
  8
0
 10
19.0451
 20
74.0053
 11
18.4369
 21
74.1614
  0
LINE
  8
0
 10
18.4369
 20
74.1614
 11
17.8139
 21
74.2401
  0
LINE
  8
0
 10
17.8139
 20
74.2401
 11
-17.8139
 21
74.2401
  0
LINE
  8
0
 10
-17.8139
 20
74.2401
 11
-18.4369
 21
74.1614
  0
LINE
  8
0
 10
-18.4369
 20
74.1614
 11
-19.0451
 21
74.0053
  0
LINE
  8
0
 10
-19.0451
 20
74.0053
 11
-19.6289
 21
73.7741
  0
LINE
  8
0
 10
-19.6289
 20
73.7741
 11
-20.1791
 21
73.4716
  0
LINE
  8
0
 10
-20.1791
 20
73.4716
 11
-20.6871
 21
73.1026
  0
LINE
  8
0
 10
-20.6871
 20
73.1026
 11
-21.1448
 21
72.6727
  0
LINE
  8
0
 10
-21.1448
 20
72.6727
 11
-21.5451
 21
72.1889
  0
LINE
  8
0
 10
-21.5451
 20
72.1889
 11
-21.8815
 21
71.6588
  0
LINE
  8
0
 10
-21.8815
 20
71.6588
 11
-22.1489
 21
71.0906
  0
LINE
  8
0
 10
-22.1489
 20
71.0906
 11
-22.3429
 21
70.4934
  0
LINE
  8
0
 10
-22.3429
 20
70.4934
 11
-22.4606
 21
69.8767
  0
LINE
  8
0
 10
-22.4606
 20
69.8767
 11
-22.5
 21
69.25
  0
LINE
  8
0
 10
-22.5
 20
69.25
 11
-22.5
 21
56.75
  0
LINE
  8
0
 10
-22.5
 20
56.75
 11
-22.4606
 21
56.1233
  0
LINE
  8
0
 10
-22.4606
 20
56.1233
 11
-22.3429
 21
55.5066
  0
LINE
  8
0
 10
-22.3429
 20
55.5066
 11
-22.1489
 21
54.9094
  0
LINE
  8
0
 10
-22.1489
 20
54.9094
 11
-21.8815
 21
54.3412
  0
LINE
  8
0
 10
-21.8815
 20
54.3412
 11
-21.5451
 21
53.8111
  0
LINE
  8
0
 10
-21.5451
 20
53.8111
 11
-21.1448
 21
53.3273
  0
LINE
  8
0
 10
-21.1448
 20
53.3273
 11
-20.6871
 21
52.8974
  0
LINE
  8
0
 10
-20.6871
 20
52.8974
 11
-20.1791
 21
52.5284
  0
LINE
  8
0
 10
-20.1791
 20
52.5284
 11
-19.6289
 21
52.2259
  0
LINE
  8
0
 10
-19.6289
 20
52.2259
 11
-19.0451
 21
51.9947
  0
LINE
  8
0
 10
-19.0451
 20
51.9947
 11
-18.4369
 21
51.8386
  0
LINE
  8
0
 10
-18.4369
 20
51.8386
 11
-17.8139
 21
51.7599
  0
LINE
  8
0
 10
-17.8139
 20
51.7599
 11
17.8139
 21
51.7599
  0
LINE
  8
0
 10
17.8139
 20
51.7599
 11
18.4369
 21
51.8386
  0
LINE
  8
0
 10
-17.493
 20
53.1382
 11
-17.9751
 21
53.1991
  0
LINE
  8
0
 10
-17.9751
 20
53.1991
 11
-18.4457
 21
53.3199
  0
LINE
  8
0
 10
-18.4457
 20
53.3199
 11
-18.8975
 21
53.4988
  0
LINE
  8
0
 10
-18.8975
 20
53.4988
 11
-19.3234
 21
53.7329
  0
LINE
  8
0
 10
-19.3234
 20
53.7329
 11
-19.7165
 21
54.0185
  0
LINE
  8
0
 10
-19.7165
 20
54.0185
 11
-20.0707
 21
54.3512
  0
LINE
  8
0
 10
-20.0707
 20
54.3512
 11
-20.3805
 21
54.7256
  0
LINE
  8
0
 10
-20.3805
 20
54.7256
 11
-20.6408
 21
55.1359
  0
LINE
  8
0
 10
-20.6408
 20
55.1359
 11
-20.8477
 21
55.5756
  0
LINE
  8
0
 10
-20.8477
 20
55.5756
 11
-20.9979
 21
56.0377
  0
LINE
  8
0
 10
-20.9979
 20
56.0377
 11
-21.089
 21
56.515
  0
LINE
  8
0
 10
-21.089
 20
56.515
 11
-21.1195
 21
57
  0
LINE
  8
0
 10
-21.1195
 20
57
 11
-21.1195
 21
69
  0
LINE
  8
0
 10
-21.1195
 20
69
 11
-21.089
 21
69.485
  0
LINE
  8
0
 10
-21.089
 20
69.485
 11
-20.9979
 21
69.9623
  0
LINE
  8
0
 10
-20.9979
 20
69.9623
 11
-20.8477
 21
70.4244
  0
LINE
  8
0
 10
-20.8477
 20
70.4244
 11
-20.6408
 21
70.8641
  0
LINE
  8
0
 10
-20.6408
 20
70.8641
 11
-20.3805
 21
71.2744
  0
LINE
  8
0
 10
-20.3805
 20
71.2744
 11
-20.0707
 21
71.6488
  0
LINE
  8
0
 10
-20.0707
 20
71.6488
 11
-19.7165
 21
71.9815
  0
LINE
  8
0
 10
-19.7165
 20
71.9815
 11
-19.3234
 21
72.2671
  0
LINE
  8
0
 10
-19.3234
 20
72.2671
 11
-18.8975
 21
72.5012
  0
LINE
  8
0
 10
-18.8975
 20
72.5012
 11
-18.4457
 21
72.6801
  0
LINE
  8
0
 10
-18.4457
 20
72.6801
 11
-17.9751
 21
72.8009
  0
LINE
  8
0
 10
-17.9751
 20
72.8009
 11
-17.493
 21
72.8618
  0
LINE
  8
0
 10
-17.493
 20
72.8618
 11
17.493
 21
72.8618
  0
LINE
  8
0
 10
17.493
 20
72.8618
 11
17.9751
 21
72.8009
  0
LINE
  8
0
 10
17.9751
 20
72.8009
 11
18.4457
 21
72.6801
  0
LINE
  8
0
 10
18.4457
 20
72.6801
 11
18.8975
 21
72.5012
  0
LINE
  8
0
 10
18.8975
 20
72.5012
 11
19.3234
 21
72.2671
  0
LINE
  8
0
 10
19.3234
 20
72.2671
 11
19.7165
 21
71.9815
  0
LINE
  8
0
 10
19.7165
 20
71.9815
 11
20.0707
 21
71.6488
  0
LINE
  8
0
 10
20.0707
 20
71.6488
 11
20.3805
 21
71.2744
  0
LINE
  8
0
 10
20.3805
 20
71.2744
 11
20.6408
 21
70.8641
  0
LINE
  8
0
 10
20.6408
 20
70.8641
 11
20.8477
 21
70.4244
  0
LINE
  8
0
 10
20.8477
 20
70.4244
 11
20.9979
 21
69.9623
  0
LINE
  8
0
 10
20.9979
 20
69.9623
 11
21.089
 21
69.485
  0
LINE
  8
0
 10
21.089
 20
69.485
 11
21.1195
 21
69
  0
LINE
  8
0
 10
21.1195
 20
69
 11
21.1195
 21
57
  0
LINE
  8
0
 10
21.1195
 20
57
 11
21.089
 21
56.515
  0
LINE
  8
0
 10
21.089
 20
56.515
 11
20.9979
 21
56.0377
  0
LINE
  8
0
 10
20.9979
 20
56.0377
 11
20.8477
 21
55.5756
  0
LINE
  8
0
 10
20.8477
 20
55.5756
 11
20.6408
 21
55.1359
  0
LINE
  8
0
 10
20.6408
 20
55.1359
 11
20.3805
 21
54.7256
  0
LINE
  8
0
 10
20.3805
 20
54.7256
 11
20.0707
 21
54.3512
  0
LINE
  8
0
 10
20.0707
 20
54.3512
 11
19.7165
 21
54.0185
  0
LINE
  8
0
 10
19.7165
 20
54.0185
 11
19.3234
 21
53.7329
  0
LINE
  8
0
 10
19.3234
 20
53.7329
 11
18.8975
 21
53.4988
  0
LINE
  8
0
 10
18.8975
 20
53.4988
 11
18.4457
 21
53.3199
  0
LINE
  8
0
 10
18.4457
 20
53.3199
 11
17.9751
 21
53.1991
  0
LINE
  8
0
 10
17.9751
 20
53.1991
 11
17.493
 21
53.1382
  0
LINE
  8
0
 10
17.493
 20
53.1382
 11
-17.493
 21
53.1382
  0
LINE
  8
0
 10
18.4369
 20
20.3386
 11
19.0451
 21
20.4947
  0
LINE
  8
0
 10
19.0451
 20
20.4947
 11
19.6289
 21
20.7259
  0
LINE
  8
0
 10
19.6289
 20
20.7259
 11
20.1791
 21
21.0284
  0
LINE
  8
0
 10
20.1791
 20
21.0284
 11
20.6871
 21
21.3974
  0
LINE
  8
0
 10
20.6871
 20
21.3974
 11
21.1448
 21
21.8273
  0
LINE
  8
0
 10
21.1448
 20
21.8273
 11
21.5451
 21
22.3111
  0
LINE
  8
0
 10
21.5451
 20
22.3111
 11
21.8815
 21
22.8412
  0
LINE
  8
0
 10
21.8815
 20
22.8412
 11
22.1489
 21
23.4094
  0
LINE
  8
0
 10
22.1489
 20
23.4094
 11
22.3429
 21
24.0066
  0
LINE
  8
0
 10
22.3429
 20
24.0066
 11
22.4606
 21
24.6233
  0
LINE
  8
0
 10
22.4606
 20
24.6233
 11
22.5
 21
25.25
  0
LINE
  8
0
 10
22.5
 20
25.25
 11
22.5
 21
37.75
  0
LINE
  8
0
 10
22.5
 20
37.75
 11
22.4606
 21
38.3767
  0
LINE
  8
0
 10
22.4606
 20
38.3767
 11
22.3429
 21
38.9934
  0
LINE
  8
0
 10
22.3429
 20
38.9934
 11
22.1489
 21
39.5906
  0
LINE
  8
0
 10
22.1489
 20
39.5906
 11
21.8815
 21
40.1588
  0
LINE
  8
0
 10
21.8815
 20
40.1588
 11
21.5451
 21
40.6889
  0
LINE
  8
0
 10
21.5451
 20
40.6889
 11
21.1448
 21
41.1727
  0
LINE
  8
0
 10
21.1448
 20
41.1727
 11
20.6871
 21
41.6026
  0
LINE
  8
0
 10
20.6871
 20
41.6026
 11
20.1791
 21
41.9716
  0
LINE
  8
0
 10
20.1791
 20
41.9716
 11
19.6289
 21
42.2741
  0
LINE
  8
0
 10
19.6289
 20
42.2741
 11
19.0451
 21
42.5053
  0
LINE
  8
0
 10
19.0451
 20
42.5053
 11
18.4369
 21
42.6614
  0
LINE
  8
0
 10
18.4369
 20
42.6614
 11
17.8139
 21
42.7401
  0
LINE
  8
0
 10
17.8139
 20
42.7401
 11
-17.8139
 21
42.7401
  0
LINE
  8
0
 10
-17.8139
 20
42.7401
 11
-18.4369
 21
42.6614
  0
LINE
  8
0
 10
-18.4369
 20
42.6614
 11
-19.0451
 21
42.5053
  0
LINE
  8
0
 10
-19.0451
 20
42.5053
 11
-19.6289
 21
42.2741
  0
LINE
  8
0
 10
-19.6289
 20
42.2741
 11
-20.1791
 21
41.9716
  0
LINE
  8
0
 10
-20.1791
 20
41.9716
 11
-20.6871
 21
41.6026
  0
LINE
  8
0
 10
-20.6871
 20
41.6026
 11
-21.1448
 21
41.1727
  0
LINE
  8
0
 10
-21.1448
 20
41.1727
 11
-21.5451
 21
40.6889
  0
LINE
  8
0
 10
-21.5451
 20
40.6889
 11
-21.8815
 21
40.1588
  0
LINE
  8
0
 10
-21.8815
 20
40.1588
 11
-22.1489
 21
39.5906
  0
LINE
  8
0
 10
-22.1489
 20
39.5906
 11
-22.3429
 21
38.9934
  0
LINE
  8
0
 10
-22.3429
 20
38.9934
 11
-22.4606
 21
38.3767
  0
LINE
  8
0
 10
-22.4606
 20
38.3767
 11
-22.5
 21
37.75
  0
LINE
  8
0
 10
-22.5
 20
37.75
 11
-22.5
 21
25.25
  0
LINE
  8
0
 10
-22.5
 20
25.25
 11
-22.4606
 21
24.6233
  0
LINE
  8
0
 10
-22.4606
 20
24.6233
 11
-22.3429
 21
24.0066
  0
LINE
  8
0
 10
-22.3429
 20
24.0066
 11
-22.1489
 21
23.4094
  0
LINE
  8
0
 10
-22.1489
 20
23.4094
 11
-21.8815
 21
22.8412
  0
LINE
  8
0
 10
-21.8815
 20
22.8412
 11
-21.5451
 21
22.3111
  0
LINE
  8
0
 10
-21.5451
 20
22.3111
 11
-21.1448
 21
21.8273
  0
LINE
  8
0
 10
-21.1448
 20
21.8273
 11
-20.6871
 21
21.3974
  0
LINE
  8
0
 10
-20.6871
 20
21.3974
 11
-20.1791
 21
21.0284
  0
LINE
  8
0
 10
-20.1791
 20
21.0284
 11
-19.6289
 21
20.7259
  0
LINE
  8
0
 10
-19.6289
 20
20.7259
 11
-19.0451
 21
20.4947
  0
LINE
  8
0
 10
-19.0451
 20
20.4947
 11
-18.4369
 21
20.3386
  0
LINE
  8
0
 10
-18.4369
 20
20.3386
 11
-17.8139
 21
20.2599
  0
LINE
  8
0
 10
-17.8139
 20
20.2599
 11
17.8139
 21
20.2599
  0
LINE
  8
0
 10
17.8139
 20
20.2599
 11
18.4369
 21
20.3386
  0
LINE
  8
0
 10
14.887
 20
33.4536
 11
14.6627
 21
33.4819
  0
LINE
  8
0
 10
14.6627
 20
33.4819
 11
14.4438
 21
33.5381
  0
LINE
  8
0
 10
14.4438
 20
33.5381
 11
14.2336
 21
33.6213
  0
LINE
  8
0
 10
14.2336
 20
33.6213
 11
14.0355
 21
33.7302
  0
LINE
  8
0
 10
14.0355
 20
33.7302
 11
13.8526
 21
33.8631
  0
LINE
  8
0
 10
13.8526
 20
33.8631
 11
13.6879
 21
34.0178
  0
LINE
  8
0
 10
13.6879
 20
34.0178
 11
13.5438
 21
34.192
  0
LINE
  8
0
 10
13.5438
 20
34.192
 11
13.4226
 21
34.3828
  0
LINE
  8
0
 10
13.4226
 20
34.3828
 11
13.3264
 21
34.5874
  0
LINE
  8
0
 10
13.3264
 20
34.5874
 11
13.2565
 21
34.8024
  0
LINE
  8
0
 10
13.2565
 20
34.8024
 11
13.2142
 21
35.0244
  0
LINE
  8
0
 10
13.2142
 20
35.0244
 11
13.2
 21
35.25
  0
LINE
  8
0
 10
13.2
 20
35.25
 11
13.2142
 21
35.4756
  0
LINE
  8
0
 10
13.2142
 20
35.4756
 11
13.2565
 21
35.6976
  0
LINE
  8
0
 10
13.2565
 20
35.6976
 11
13.3264
 21
35.9126
  0
LINE
  8
0
 10
13.3264
 20
35.9126
 11
13.4226
 21
36.1171
  0
LINE
  8
0
 10
13.4226
 20
36.1171
 11
13.5438
 21
36.308
  0
LINE
  8
0
 10
13.5438
 20
36.308
 11
13.6879
 21
36.4822
  0
LINE
  8
0
 10
13.6879
 20
36.4822
 11
13.8526
 21
36.6369
  0
LINE
  8
0
 10
13.8526
 20
36.6369
 11
14.0355
 21
36.7698
  0
LINE
  8
0
 10
14.0355
 20
36.7698
 11
14.2336
 21
36.8787
  0
LINE
  8
0
 10
14.2336
 20
36.8787
 11
14.4438
 21
36.9619
  0
LINE
  8
0
 10
14.4438
 20
36.9619
 11
14.6627
 21
37.0181
  0
LINE
  8
0
 10
14.6627
 20
37.0181
 11
14.887
 21
37.0464
  0
LINE
  8
0
 10
14.887
 20
37.0464
 11
15.113
 21
37.0464
  0
LINE
  8
0
 10
15.113
 20
37.0464
 11
15.3373
 21
37.0181
  0
LINE
  8
0
 10
15.3373
 20
37.0181
 11
15.5562
 21
36.9619
  0
LINE
  8
0
 10
15.5562
 20
36.9619
 11
15.7664
 21
36.8787
  0
LINE
  8
0
 10
15.7664
 20
36.8787
 11
15.9645
 21
36.7698
  0
LINE
  8
0
 10
15.9645
 20
36.7698
 11
16.1474
 21
36.6369
  0
LINE
  8
0
 10
16.1474
 20
36.6369
 11
16.3121
 21
36.4822
  0
LINE
  8
0
 10
16.3121
 20
36.4822
 11
16.4562
 21
36.308
  0
LINE
  8
0
 10
16.4562
 20
36.308
 11
16.5773
 21
36.1171
  0
LINE
  8
0
 10
16.5773
 20
36.1171
 11
16.6736
 21
35.9126
  0
LINE
  8
0
 10
16.6736
 20
35.9126
 11
16.7434
 21
35.6976
  0
LINE
  8
0
 10
16.7434
 20
35.6976
 11
16.7858
 21
35.4756
  0
LINE
  8
0
 10
16.7858
 20
35.4756
 11
16.8
 21
35.25
  0
LINE
  8
0
 10
16.8
 20
35.25
 11
16.7858
 21
35.0244
  0
LINE
  8
0
 10
16.7858
 20
35.0244
 11
16.7434
 21
34.8024
  0
LINE
  8
0
 10
16.7434
 20
34.8024
 11
16.6736
 21
34.5874
  0
LINE
  8
0
 10
16.6736
 20
34.5874
 11
16.5773
 21
34.3828
  0
LINE
  8
0
 10
16.5773
 20
34.3828
 11
16.4562
 21
34.192
  0
LINE
  8
0
 10
16.4562
 20
34.192
 11
16.3121
 21
34.0178
  0
LINE
  8
0
 10
16.3121
 20
34.0178
 11
16.1474
 21
33.8631
  0
LINE
  8
0
 10
16.1474
 20
33.8631
 11
15.9645
 21
33.7302
  0
LINE
  8
0
 10
15.9645
 20
33.7302
 11
15.7664
 21
33.6213
  0
LINE
  8
0
 10
15.7664
 20
33.6213
 11
15.5562
 21
33.5381
  0
LINE
  8
0
 10
15.5562
 20
33.5381
 11
15.3373
 21
33.4819
  0
LINE
  8
0
 10
15.3373
 20
33.4819
 11
15.113
 21
33.4536
  0
LINE
  8
0
 10
15.113
 20
33.4536
 11
14.887
 21
33.4536
  0
LINE
  8
0
 10
-15.113
 20
33.4536
 11
-15.3373
 21
33.4819
  0
LINE
  8
0
 10
-15.3373
 20
33.4819
 11
-15.5562
 21
33.5381
  0
LINE
  8
0
 10
-15.5562
 20
33.5381
 11
-15.7664
 21
33.6213
  0
LINE
  8
0
 10
-15.7664
 20
33.6213
 11
-15.9645
 21
33.7302
  0
LINE
  8
0
 10
-15.9645
 20
33.7302
 11
-16.1474
 21
33.8631
  0
LINE
  8
0
 10
-16.1474
 20
33.8631
 11
-16.3121
 21
34.0178
  0
LINE
  8
0
 10
-16.3121
 20
34.0178
 11
-16.4562
 21
34.192
  0
LINE
  8
0
 10
-16.4562
 20
34.192
 11
-16.5773
 21
34.3828
  0
LINE
  8
0
 10
-16.5773
 20
34.3828
 11
-16.6736
 21
34.5874
  0
LINE
  8
0
 10
-16.6736
 20
34.5874
 11
-16.7434
 21
34.8024
  0
LINE
  8
0
 10
-16.7434
 20
34.8024
 11
-16.7858
 21
35.0244
  0
LINE
  8
0
 10
-16.7858
 20
35.0244
 11
-16.8
 21
35.25
  0
LINE
  8
0
 10
-16.8
 20
35.25
 11
-16.7858
 21
35.4756
  0
LINE
  8
0
 10
-16.7858
 20
35.4756
 11
-16.7434
 21
35.6976
  0
LINE
  8
0
 10
-16.7434
 20
35.6976
 11
-16.6736
 21
35.9126
  0
LINE
  8
0
 10
-16.6736
 20
35.9126
 11
-16.5773
 21
36.1171
  0
LINE
  8
0
 10
-16.5773
 20
36.1171
 11
-16.4562
 21
36.308
  0
LINE
  8
0
 10
-16.4562
 20
36.308
 11
-16.3121
 21
36.4822
  0
LINE
  8
0
 10
-16.3121
 20
36.4822
 11
-16.1474
 21
36.6369
  0
LINE
  8
0
 10
-16.1474
 20
36.6369
 11
-15.9645
 21
36.7698
  0
LINE
  8
0
 10
-15.9645
 20
36.7698
 11
-15.7664
 21
36.8787
  0
LINE
  8
0
 10
-15.7664
 20
36.8787
 11
-15.5562
 21
36.9619
  0
LINE
  8
0
 10
-15.5562
 20
36.9619
 11
-15.3373
 21
37.0181
  0
LINE
  8
0
 10
-15.3373
 20
37.0181
 11
-15.113
 21
37.0464
  0
LINE
  8
0
 10
-15.113
 20
37.0464
 11
-14.887
 21
37.0464
  0
LINE
  8
0
 10
-14.887
 20
37.0464
 11
-14.6627
 21
37.0181
  0
LINE
  8
0
 10
-14.6627
 20
37.0181
 11
-14.4438
 21
36.9619
  0
LINE
  8
0
 10
-14.4438
 20
36.9619
 11
-14.2336
 21
36.8787
  0
LINE
  8
0
 10
-14.2336
 20
36.8787
 11
-14.0355
 21
36.7698
  0
LINE
  8
0
 10
-14.0355
 20
36.7698
 11
-13.8526
 21
36.6369
  0
LINE
  8
0
 10
-13.8526
 20
36.6369
 11
-13.6879
 21
36.4822
  0
LINE
  8
0
 10
-13.6879
 20
36.4822
 11
-13.5438
 21
36.308
  0
LINE
  8
0
 10
-13.5438
 20
36.308
 11
-13.4226
 21
36.1171
  0
LINE
  8
0
 10
-13.4226
 20
36.1171
 11
-13.3264
 21
35.9126
  0
LINE
  8
0
 10
-13.3264
 20
35.9126
 11
-13.2565
 21
35.6976
  0
LINE
  8
0
 10
-13.2565
 20
35.6976
 11
-13.2142
 21
35.4756
  0
LINE
  8
0
 10
-13.2142
 20
35.4756
 11
-13.2
 21
35.25
  0
LINE
  8
0
 10
-13.2
 20
35.25
 11
-13.2142
 21
35.0244
  0
LINE
  8
0
 10
-13.2142
 20
35.0244
 11
-13.2565
 21
34.8024
  0
LINE
  8
0
 10
-13.2565
 20
34.8024
 11
-13.3264
 21
34.5874
  0
LINE
  8
0
 10
-13.3264
 20
34.5874
 11
-13.4226
 21
34.3828
  0
LINE
  8
0
 10
-13.4226
 20
34.3828
 11
-13.5438
 21
34.192
  0
LINE
  8
0
 10
-13.5438
 20
34.192
 11
-13.6879
 21
34.0178
  0
LINE
  8
0
 10
-13.6879
 20
34.0178
 11
-13.8526
 21
33.8631
  0
LINE
  8
0
 10
-13.8526
 20
33.8631
 11
-14.0355
 21
33.7302
  0
LINE
  8
0
 10
-14.0355
 20
33.7302
 11
-14.2336
 21
33.6213
  0
LINE
  8
0
 10
-14.2336
 20
33.6213
 11
-14.4438
 21
33.5381
  0
LINE
  8
0
 10
-14.4438
 20
33.5381
 11
-14.6627
 21
33.4819
  0
LINE
  8
0
 10
-14.6627
 20
33.4819
 11
-14.887
 21
33.4536
  0
LINE
  8
0
 10
-14.887
 20
33.4536
 11
-15.113
 21
33.4536
  0
LINE
  8
0
 10
14.887
 20
25.9536
 11
14.6627
 21
25.9819
  0
LINE
  8
0
 10
14.6627
 20
25.9819
 11
14.4438
 21
26.0381
  0
LINE
  8
0
 10
14.4438
 20
26.0381
 11
14.2336
 21
26.1213
  0
LINE
  8
0
 10
14.2336
 20
26.1213
 11
14.0355
 21
26.2302
  0
LINE
  8
0
 10
14.0355
 20
26.2302
 11
13.8526
 21
26.3631
  0
LINE
  8
0
 10
13.8526
 20
26.3631
 11
13.6879
 21
26.5178
  0
LINE
  8
0
 10
13.6879
 20
26.5178
 11
13.5438
 21
26.692
  0
LINE
  8
0
 10
13.5438
 20
26.692
 11
13.4226
 21
26.8829
  0
LINE
  8
0
 10
13.4226
 20
26.8829
 11
13.3264
 21
27.0874
  0
LINE
  8
0
 10
13.3264
 20
27.0874
 11
13.2565
 21
27.3024
  0
LINE
  8
0
 10
13.2565
 20
27.3024
 11
13.2142
 21
27.5244
  0
LINE
  8
0
 10
13.2142
 20
27.5244
 11
13.2
 21
27.75
  0
LINE
  8
0
 10
13.2
 20
27.75
 11
13.2142
 21
27.9756
  0
LINE
  8
0
 10
13.2142
 20
27.9756
 11
13.2565
 21
28.1976
  0
LINE
  8
0
 10
13.2565
 20
28.1976
 11
13.3264
 21
28.4126
  0
LINE
  8
0
 10
13.3264
 20
28.4126
 11
13.4226
 21
28.6172
  0
LINE
  8
0
 10
13.4226
 20
28.6172
 11
13.5438
 21
28.808
  0
LINE
  8
0
 10
13.5438
 20
28.808
 11
13.6879
 21
28.9822
  0
LINE
  8
0
 10
13.6879
 20
28.9822
 11
13.8526
 21
29.1369
  0
LINE
  8
0
 10
13.8526
 20
29.1369
 11
14.0355
 21
29.2698
  0
LINE
  8
0
 10
14.0355
 20
29.2698
 11
14.2336
 21
29.3787
  0
LINE
  8
0
 10
14.2336
 20
29.3787
 11
14.4438
 21
29.4619
  0
LINE
  8
0
 10
14.4438
 20
29.4619
 11
14.6627
 21
29.5181
  0
LINE
  8
0
 10
14.6627
 20
29.5181
 11
14.887
 21
29.5464
  0
LINE
  8
0
 10
14.887
 20
29.5464
 11
15.113
 21
29.5464
  0
LINE
  8
0
 10
15.113
 20
29.5464
 11
15.3373
 21
29.5181
  0
LINE
  8
0
 10
15.3373
 20
29.5181
 11
15.5562
 21
29.4619
  0
LINE
  8
0
 10
15.5562
 20
29.4619
 11
15.7664
 21
29.3787
  0
LINE
  8
0
 10
15.7664
 20
29.3787
 11
15.9645
 21
29.2698
  0
LINE
  8
0
 10
15.9645
 20
29.2698
 11
16.1474
 21
29.1369
  0
LINE
  8
0
 10
16.1474
 20
29.1369
 11
16.3121
 21
28.9822
  0
LINE
  8
0
 10
16.3121
 20
28.9822
 11
16.4562
 21
28.808
  0
LINE
  8
0
 10
16.4562
 20
28.808
 11
16.5773
 21
28.6172
  0
LINE
  8
0
 10
16.5773
 20
28.6172
 11
16.6736
 21
28.4126
  0
LINE
  8
0
 10
16.6736
 20
28.4126
 11
16.7434
 21
28.1976
  0
LINE
  8
0
 10
16.7434
 20
28.1976
 11
16.7858
 21
27.9756
  0
LINE
  8
0
 10
16.7858
 20
27.9756
 11
16.8
 21
27.75
  0
LINE
  8
0
 10
16.8
 20
27.75
 11
16.7858
 21
27.5244
  0
LINE
  8
0
 10
16.7858
 20
27.5244
 11
16.7434
 21
27.3024
  0
LINE
  8
0
 10
16.7434
 20
27.3024
 11
16.6736
 21
27.0874
  0
LINE
  8
0
 10
16.6736
 20
27.0874
 11
16.5773
 21
26.8829
  0
LINE
  8
0
 10
16.5773
 20
26.8829
 11
16.4562
 21
26.692
  0
LINE
  8
0
 10
16.4562
 20
26.692
 11
16.3121
 21
26.5178
  0
LINE
  8
0
 10
16.3121
 20
26.5178
 11
16.1474
 21
26.3631
  0
LINE
  8
0
 10
16.1474
 20
26.3631
 11
15.9645
 21
26.2302
  0
LINE
  8
0
 10
15.9645
 20
26.2302
 11
15.7664
 21
26.1213
  0
LINE
  8
0
 10
15.7664
 20
26.1213
 11
15.5562
 21
26.0381
  0
LINE
  8
0
 10
15.5562
 20
26.0381
 11
15.3373
 21
25.9819
  0
LINE
  8
0
 10
15.3373
 20
25.9819
 11
15.113
 21
25.9536
  0
LINE
  8
0
 10
15.113
 20
25.9536
 11
14.887
 21
25.9536
  0
LINE
  8
0
 10
-15.113
 20
25.9536
 11
-15.3373
 21
25.9819
  0
LINE
  8
0
 10
-15.3373
 20
25.9819
 11
-15.5562
 21
26.0381
  0
LINE
  8
0
 10
-15.5562
 20
26.0381
 11
-15.7664
 21
26.1213
  0
LINE
  8
0
 10
-15.7664
 20
26.1213
 11
-15.9645
 21
26.2302
  0
LINE
  8
0
 10
-15.9645
 20
26.2302
 11
-16.1474
 21
26.3631
  0
LINE
  8
0
 10
-16.1474
 20
26.3631
 11
-16.3121
 21
26.5178
  0
LINE
  8
0
 10
-16.3121
 20
26.5178
 11
-16.4562
 21
26.692
  0
LINE
  8
0
 10
-16.4562
 20
26.692
 11
-16.5773
 21
26.8829
  0
LINE
  8
0
 10
-16.5773
 20
26.8829
 11
-16.6736
 21
27.0874
  0
LINE
  8
0
 10
-16.6736
 20
27.0874
 11
-16.7434
 21
27.3024
  0
LINE
  8
0
 10
-16.7434
 20
27.3024
 11
-16.7858
 21
27.5244
  0
LINE
  8
0
 10
-16.7858
 20
27.5244
 11
-16.8
 21
27.75
  0
LINE
  8
0
 10
-16.8
 20
27.75
 11
-16.7858
 21
27.9756
  0
LINE
  8
0
 10
-16.7858
 20
27.9756
 11
-16.7434
 21
28.1976
  0
LINE
  8
0
 10
-16.7434
 20
28.1976
 11
-16.6736
 21
28.4126
  0
LINE
  8
0
 10
-16.6736
 20
28.4126
 11
-16.5773
 21
28.6172
  0
LINE
  8
0
 10
-16.5773
 20
28.6172
 11
-16.4562
 21
28.808
  0
LINE
  8
0
 10
-16.4562
 20
28.808
 11
-16.3121
 21
28.9822
  0
LINE
  8
0
 10
-16.3121
 20
28.9822
 11
-16.1474
 21
29.1369
  0
LINE
  8
0
 10
-16.1474
 20
29.1369
 11
-15.9645
 21
29.2698
  0
LINE
  8
0
 10
-15.9645
 20
29.2698
 11
-15.7664
 21
29.3787
  0
LINE
  8
0
 10
-15.7664
 20
29.3787
 11
-15.5562
 21
29.4619
  0
LINE
  8
0
 10
-15.5562
 20
29.4619
 11
-15.3373
 21
29.5181
  0
LINE
  8
0
 10
-15.3373
 20
29.5181
 11
-15.113
 21
29.5464
  0
LINE
  8
0
 10
-15.113
 20
29.5464
 11
-14.887
 21
29.5464
  0
LINE
  8
0
 10
-14.887
 20
29.5464
 11
-14.6627
 21
29.5181
  0
LINE
  8
0
 10
-14.6627
 20
29.5181
 11
-14.4438
 21
29.4619
  0
LINE
  8
0
 10
-14.4438
 20
29.4619
 11
-14.2336
 21
29.3787
  0
LINE
  8
0
 10
-14.2336
 20
29.3787
 11
-14.0355
 21
29.2698
  0
LINE
  8
0
 10
-14.0355
 20
29.2698
 11
-13.8526
 21
29.1369
  0
LINE
  8
0
 10
-13.8526
 20
29.1369
 11
-13.6879
 21
28.9822
  0
LINE
  8
0
 10
-13.6879
 20
28.9822
 11
-13.5438
 21
28.808
  0
LINE
  8
0
 10
-13.5438
 20
28.808
 11
-13.4226
 21
28.6172
  0
LINE
  8
0
 10
-13.4226
 20
28.6172
 11
-13.3264
 21
28.4126
  0
LINE
  8
0
 10
-13.3264
 20
28.4126
 11
-13.2565
 21
28.1976
  0
LINE
  8
0
 10
-13.2565
 20
28.1976
 11
-13.2142
 21
27.9756
  0
LINE
  8
0
 10
-13.2142
 20
27.9756
 11
-13.2
 21
27.75
  0
LINE
  8
0
 10
-13.2
 20
27.75
 11
-13.2142
 21
27.5244
  0
LINE
  8
0
 10
-13.2142
 20
27.5244
 11
-13.2565
 21
27.3024
  0
LINE
  8
0
 10
-13.2565
 20
27.3024
 11
-13.3264
 21
27.0874
  0
LINE
  8
0
 10
-13.3264
 20
27.0874
 11
-13.4226
 21
26.8829
  0
LINE
  8
0
 10
-13.4226
 20
26.8829
 11
-13.5438
 21
26.692
  0
LINE
  8
0
 10
-13.5438
 20
26.692
 11
-13.6879
 21
26.5178
  0
LINE
  8
0
 10
-13.6879
 20
26.5178
 11
-13.8526
 21
26.3631
  0
LINE
  8
0
 10
-13.8526
 20
26.3631
 11
-14.0355
 21
26.2302
  0
LINE
  8
0
 10
-14.0355
 20
26.2302
 11
-14.2336
 21
26.1213
  0
LINE
  8
0
 10
-14.2336
 20
26.1213
 11
-14.4438
 21
26.0381
  0
LINE
  8
0
 10
-14.4438
 20
26.0381
 11
-14.6627
 21
25.9819
  0
LINE
  8
0
 10
-14.6627
 20
25.9819
 11
-14.887
 21
25.9536
  0
LINE
  8
0
 10
-14.887
 20
25.9536
 11
-15.113
 21
25.9536
  0
ENDSEC
  0
SECTION
  2
OBJECTS
  0
DICTIONARY
  0
ENDSEC
  0
EOF
