  0
SECTION
  2
BLOCKS
  0
ENDSEC
  0
SECTION
  2
ENTITIES
  0
LINE
  8
0
 10
25.9369
 20
843.089
 11
26.5451
 21
843.245
  0
LINE
  8
0
 10
26.5451
 20
843.245
 11
27.1289
 21
843.476
  0
LINE
  8
0
 10
27.1289
 20
843.476
 11
27.6791
 21
843.778
  0
LINE
  8
0
 10
27.6791
 20
843.778
 11
28.1871
 21
844.147
  0
LINE
  8
0
 10
28.1871
 20
844.147
 11
28.6448
 21
844.577
  0
LINE
  8
0
 10
28.6448
 20
844.577
 11
29.0451
 21
845.061
  0
LINE
  8
0
 10
29.0451
 20
845.061
 11
29.3815
 21
845.591
  0
LINE
  8
0
 10
29.3815
 20
845.591
 11
29.6489
 21
846.159
  0
LINE
  8
0
 10
29.6489
 20
846.159
 11
29.8429
 21
846.757
  0
LINE
  8
0
 10
29.8429
 20
846.757
 11
29.9606
 21
847.373
  0
LINE
  8
0
 10
29.9606
 20
847.373
 11
30
 21
848
  0
LINE
  8
0
 10
30
 20
848
 11
30
 21
958
  0
LINE
  8
0
 10
30
 20
958
 11
29.9606
 21
958.627
  0
LINE
  8
0
 10
29.9606
 20
958.627
 11
29.8429
 21
959.243
  0
LINE
  8
0
 10
29.8429
 20
959.243
 11
29.6489
 21
959.841
  0
LINE
  8
0
 10
29.6489
 20
959.841
 11
29.3815
 21
960.409
  0
LINE
  8
0
 10
29.3815
 20
960.409
 11
29.0451
 21
960.939
  0
LINE
  8
0
 10
29.0451
 20
960.939
 11
28.6448
 21
961.423
  0
LINE
  8
0
 10
28.6448
 20
961.423
 11
28.1871
 21
961.853
  0
LINE
  8
0
 10
28.1871
 20
961.853
 11
27.6791
 21
962.222
  0
LINE
  8
0
 10
27.6791
 20
962.222
 11
27.1289
 21
962.524
  0
LINE
  8
0
 10
27.1289
 20
962.524
 11
26.5451
 21
962.755
  0
LINE
  8
0
 10
26.5451
 20
962.755
 11
25.9369
 21
962.911
  0
LINE
  8
0
 10
25.9369
 20
962.911
 11
25.3139
 21
962.99
  0
LINE
  8
0
 10
25.3139
 20
962.99
 11
-25.3139
 21
962.99
  0
LINE
  8
0
 10
-25.3139
 20
962.99
 11
-25.9369
 21
962.911
  0
LINE
  8
0
 10
-25.9369
 20
962.911
 11
-26.5451
 21
962.755
  0
LINE
  8
0
 10
-26.5451
 20
962.755
 11
-27.1289
 21
962.524
  0
LINE
  8
0
 10
-27.1289
 20
962.524
 11
-27.6791
 21
962.222
  0
LINE
  8
0
 10
-27.6791
 20
962.222
 11
-28.1871
 21
961.853
  0
LINE
  8
0
 10
-28.1871
 20
961.853
 11
-28.6448
 21
961.423
  0
LINE
  8
0
 10
-28.6448
 20
961.423
 11
-29.0451
 21
960.939
  0
LINE
  8
0
 10
-29.0451
 20
960.939
 11
-29.3815
 21
960.409
  0
LINE
  8
0
 10
-29.3815
 20
960.409
 11
-29.6489
 21
959.841
  0
LINE
  8
0
 10
-29.6489
 20
959.841
 11
-29.8429
 21
959.243
  0
LINE
  8
0
 10
-29.8429
 20
959.243
 11
-29.9606
 21
958.627
  0
LINE
  8
0
 10
-29.9606
 20
958.627
 11
-30
 21
958
  0
LINE
  8
0
 10
-30
 20
958
 11
-30
 21
848
  0
LINE
  8
0
 10
-30
 20
848
 11
-29.9606
 21
847.373
  0
LINE
  8
0
 10
-29.9606
 20
847.373
 11
-29.8429
 21
846.757
  0
LINE
  8
0
 10
-29.8429
 20
846.757
 11
-29.6489
 21
846.159
  0
LINE
  8
0
 10
-29.6489
 20
846.159
 11
-29.3815
 21
845.591
  0
LINE
  8
0
 10
-29.3815
 20
845.591
 11
-29.0451
 21
845.061
  0
LINE
  8
0
 10
-29.0451
 20
845.061
 11
-28.6448
 21
844.577
  0
LINE
  8
0
 10
-28.6448
 20
844.577
 11
-28.1871
 21
844.147
  0
LINE
  8
0
 10
-28.1871
 20
844.147
 11
-27.6791
 21
843.778
  0
LINE
  8
0
 10
-27.6791
 20
843.778
 11
-27.1289
 21
843.476
  0
LINE
  8
0
 10
-27.1289
 20
843.476
 11
-26.5451
 21
843.245
  0
LINE
  8
0
 10
-26.5451
 20
843.245
 11
-25.9369
 21
843.089
  0
LINE
  8
0
 10
-25.9369
 20
843.089
 11
-25.3139
 21
843.01
  0
LINE
  8
0
 10
-25.3139
 20
843.01
 11
25.3139
 21
843.01
  0
LINE
  8
0
 10
25.3139
 20
843.01
 11
25.9369
 21
843.089
  0
LINE
  8
0
 10
-24.7512
 20
844.508
 11
-25.2495
 21
844.571
  0
LINE
  8
0
 10
-25.2495
 20
844.571
 11
-25.7361
 21
844.696
  0
LINE
  8
0
 10
-25.7361
 20
844.696
 11
-26.2031
 21
844.881
  0
LINE
  8
0
 10
-26.2031
 20
844.881
 11
-26.6433
 21
845.123
  0
LINE
  8
0
 10
-26.6433
 20
845.123
 11
-27.0497
 21
845.418
  0
LINE
  8
0
 10
-27.0497
 20
845.418
 11
-27.4159
 21
845.762
  0
LINE
  8
0
 10
-27.4159
 20
845.762
 11
-27.7361
 21
846.149
  0
LINE
  8
0
 10
-27.7361
 20
846.149
 11
-28.0052
 21
846.573
  0
LINE
  8
0
 10
-28.0052
 20
846.573
 11
-28.2191
 21
847.028
  0
LINE
  8
0
 10
-28.2191
 20
847.028
 11
-28.3743
 21
847.505
  0
LINE
  8
0
 10
-28.3743
 20
847.505
 11
-28.4684
 21
847.999
  0
LINE
  8
0
 10
-28.4684
 20
847.999
 11
-28.5
 21
848.5
  0
LINE
  8
0
 10
-28.5
 20
848.5
 11
-28.5
 21
957.5
  0
LINE
  8
0
 10
-28.5
 20
957.5
 11
-28.4684
 21
958.001
  0
LINE
  8
0
 10
-28.4684
 20
958.001
 11
-28.3743
 21
958.495
  0
LINE
  8
0
 10
-28.3743
 20
958.495
 11
-28.2191
 21
958.972
  0
LINE
  8
0
 10
-28.2191
 20
958.972
 11
-28.0052
 21
959.427
  0
LINE
  8
0
 10
-28.0052
 20
959.427
 11
-27.7361
 21
959.851
  0
LINE
  8
0
 10
-27.7361
 20
959.851
 11
-27.4159
 21
960.238
  0
LINE
  8
0
 10
-27.4159
 20
960.238
 11
-27.0497
 21
960.582
  0
LINE
  8
0
 10
-27.0497
 20
960.582
 11
-26.6433
 21
960.877
  0
LINE
  8
0
 10
-26.6433
 20
960.877
 11
-26.2031
 21
961.119
  0
LINE
  8
0
 10
-26.2031
 20
961.119
 11
-25.7361
 21
961.304
  0
LINE
  8
0
 10
-25.7361
 20
961.304
 11
-25.2495
 21
961.429
  0
LINE
  8
0
 10
-25.2495
 20
961.429
 11
-24.7512
 21
961.492
  0
LINE
  8
0
 10
-24.7512
 20
961.492
 11
24.7512
 21
961.492
  0
LINE
  8
0
 10
24.7512
 20
961.492
 11
25.2495
 21
961.429
  0
LINE
  8
0
 10
25.2495
 20
961.429
 11
25.7361
 21
961.304
  0
LINE
  8
0
 10
25.7361
 20
961.304
 11
26.2031
 21
961.119
  0
LINE
  8
0
 10
26.2031
 20
961.119
 11
26.6433
 21
960.877
  0
LINE
  8
0
 10
26.6433
 20
960.877
 11
27.0497
 21
960.582
  0
LINE
  8
0
 10
27.0497
 20
960.582
 11
27.4159
 21
960.238
  0
LINE
  8
0
 10
27.4159
 20
960.238
 11
27.7361
 21
959.851
  0
LINE
  8
0
 10
27.7361
 20
959.851
 11
28.0052
 21
959.427
  0
LINE
  8
0
 10
28.0052
 20
959.427
 11
28.2191
 21
958.972
  0
LINE
  8
0
 10
28.2191
 20
958.972
 11
28.3743
 21
958.495
  0
LINE
  8
0
 10
28.3743
 20
958.495
 11
28.4684
 21
958.001
  0
LINE
  8
0
 10
28.4684
 20
958.001
 11
28.5
 21
957.5
  0
LINE
  8
0
 10
28.5
 20
957.5
 11
28.5
 21
848.5
  0
LINE
  8
0
 10
28.5
 20
848.5
 11
28.4684
 21
847.999
  0
LINE
  8
0
 10
28.4684
 20
847.999
 11
28.3743
 21
847.505
  0
LINE
  8
0
 10
28.3743
 20
847.505
 11
28.2191
 21
847.028
  0
LINE
  8
0
 10
28.2191
 20
847.028
 11
28.0052
 21
846.573
  0
LINE
  8
0
 10
28.0052
 20
846.573
 11
27.7361
 21
846.149
  0
LINE
  8
0
 10
27.7361
 20
846.149
 11
27.4159
 21
845.762
  0
LINE
  8
0
 10
27.4159
 20
845.762
 11
27.0497
 21
845.418
  0
LINE
  8
0
 10
27.0497
 20
845.418
 11
26.6433
 21
845.123
  0
LINE
  8
0
 10
26.6433
 20
845.123
 11
26.2031
 21
844.881
  0
LINE
  8
0
 10
26.2031
 20
844.881
 11
25.7361
 21
844.696
  0
LINE
  8
0
 10
25.7361
 20
844.696
 11
25.2495
 21
844.571
  0
LINE
  8
0
 10
25.2495
 20
844.571
 11
24.7512
 21
844.508
  0
LINE
  8
0
 10
24.7512
 20
844.508
 11
-24.7512
 21
844.508
  0
LINE
  8
0
 10
25.9369
 20
714.089
 11
26.5451
 21
714.245
  0
LINE
  8
0
 10
26.5451
 20
714.245
 11
27.1289
 21
714.476
  0
LINE
  8
0
 10
27.1289
 20
714.476
 11
27.6791
 21
714.778
  0
LINE
  8
0
 10
27.6791
 20
714.778
 11
28.1871
 21
715.147
  0
LINE
  8
0
 10
28.1871
 20
715.147
 11
28.6448
 21
715.577
  0
LINE
  8
0
 10
28.6448
 20
715.577
 11
29.0451
 21
716.061
  0
LINE
  8
0
 10
29.0451
 20
716.061
 11
29.3815
 21
716.591
  0
LINE
  8
0
 10
29.3815
 20
716.591
 11
29.6489
 21
717.159
  0
LINE
  8
0
 10
29.6489
 20
717.159
 11
29.8429
 21
717.757
  0
LINE
  8
0
 10
29.8429
 20
717.757
 11
29.9606
 21
718.373
  0
LINE
  8
0
 10
29.9606
 20
718.373
 11
30
 21
719
  0
LINE
  8
0
 10
30
 20
719
 11
30
 21
829
  0
LINE
  8
0
 10
30
 20
829
 11
29.9606
 21
829.627
  0
LINE
  8
0
 10
29.9606
 20
829.627
 11
29.8429
 21
830.243
  0
LINE
  8
0
 10
29.8429
 20
830.243
 11
29.6489
 21
830.841
  0
LINE
  8
0
 10
29.6489
 20
830.841
 11
29.3815
 21
831.409
  0
LINE
  8
0
 10
29.3815
 20
831.409
 11
29.0451
 21
831.939
  0
LINE
  8
0
 10
29.0451
 20
831.939
 11
28.6448
 21
832.423
  0
LINE
  8
0
 10
28.6448
 20
832.423
 11
28.1871
 21
832.853
  0
LINE
  8
0
 10
28.1871
 20
832.853
 11
27.6791
 21
833.222
  0
LINE
  8
0
 10
27.6791
 20
833.222
 11
27.1289
 21
833.524
  0
LINE
  8
0
 10
27.1289
 20
833.524
 11
26.5451
 21
833.755
  0
LINE
  8
0
 10
26.5451
 20
833.755
 11
25.9369
 21
833.911
  0
LINE
  8
0
 10
25.9369
 20
833.911
 11
25.3139
 21
833.99
  0
LINE
  8
0
 10
25.3139
 20
833.99
 11
-25.3139
 21
833.99
  0
LINE
  8
0
 10
-25.3139
 20
833.99
 11
-25.9369
 21
833.911
  0
LINE
  8
0
 10
-25.9369
 20
833.911
 11
-26.5451
 21
833.755
  0
LINE
  8
0
 10
-26.5451
 20
833.755
 11
-27.1289
 21
833.524
  0
LINE
  8
0
 10
-27.1289
 20
833.524
 11
-27.6791
 21
833.222
  0
LINE
  8
0
 10
-27.6791
 20
833.222
 11
-28.1871
 21
832.853
  0
LINE
  8
0
 10
-28.1871
 20
832.853
 11
-28.6448
 21
832.423
  0
LINE
  8
0
 10
-28.6448
 20
832.423
 11
-29.0451
 21
831.939
  0
LINE
  8
0
 10
-29.0451
 20
831.939
 11
-29.3815
 21
831.409
  0
LINE
  8
0
 10
-29.3815
 20
831.409
 11
-29.6489
 21
830.841
  0
LINE
  8
0
 10
-29.6489
 20
830.841
 11
-29.8429
 21
830.243
  0
LINE
  8
0
 10
-29.8429
 20
830.243
 11
-29.9606
 21
829.627
  0
LINE
  8
0
 10
-29.9606
 20
829.627
 11
-30
 21
829
  0
LINE
  8
0
 10
-30
 20
829
 11
-30
 21
719
  0
LINE
  8
0
 10
-30
 20
719
 11
-29.9606
 21
718.373
  0
LINE
  8
0
 10
-29.9606
 20
718.373
 11
-29.8429
 21
717.757
  0
LINE
  8
0
 10
-29.8429
 20
717.757
 11
-29.6489
 21
717.159
  0
LINE
  8
0
 10
-29.6489
 20
717.159
 11
-29.3815
 21
716.591
  0
LINE
  8
0
 10
-29.3815
 20
716.591
 11
-29.0451
 21
716.061
  0
LINE
  8
0
 10
-29.0451
 20
716.061
 11
-28.6448
 21
715.577
  0
LINE
  8
0
 10
-28.6448
 20
715.577
 11
-28.1871
 21
715.147
  0
LINE
  8
0
 10
-28.1871
 20
715.147
 11
-27.6791
 21
714.778
  0
LINE
  8
0
 10
-27.6791
 20
714.778
 11
-27.1289
 21
714.476
  0
LINE
  8
0
 10
-27.1289
 20
714.476
 11
-26.5451
 21
714.245
  0
LINE
  8
0
 10
-26.5451
 20
714.245
 11
-25.9369
 21
714.089
  0
LINE
  8
0
 10
-25.9369
 20
714.089
 11
-25.3139
 21
714.01
  0
LINE
  8
0
 10
-25.3139
 20
714.01
 11
25.3139
 21
714.01
  0
LINE
  8
0
 10
25.3139
 20
714.01
 11
25.9369
 21
714.089
  0
LINE
  8
0
 10
-24.7512
 20
715.508
 11
-25.2495
 21
715.571
  0
LINE
  8
0
 10
-25.2495
 20
715.571
 11
-25.7361
 21
715.696
  0
LINE
  8
0
 10
-25.7361
 20
715.696
 11
-26.2031
 21
715.881
  0
LINE
  8
0
 10
-26.2031
 20
715.881
 11
-26.6433
 21
716.123
  0
LINE
  8
0
 10
-26.6433
 20
716.123
 11
-27.0497
 21
716.418
  0
LINE
  8
0
 10
-27.0497
 20
716.418
 11
-27.4159
 21
716.762
  0
LINE
  8
0
 10
-27.4159
 20
716.762
 11
-27.7361
 21
717.149
  0
LINE
  8
0
 10
-27.7361
 20
717.149
 11
-28.0052
 21
717.573
  0
LINE
  8
0
 10
-28.0052
 20
717.573
 11
-28.2191
 21
718.028
  0
LINE
  8
0
 10
-28.2191
 20
718.028
 11
-28.3743
 21
718.505
  0
LINE
  8
0
 10
-28.3743
 20
718.505
 11
-28.4684
 21
718.999
  0
LINE
  8
0
 10
-28.4684
 20
718.999
 11
-28.5
 21
719.5
  0
LINE
  8
0
 10
-28.5
 20
719.5
 11
-28.5
 21
828.5
  0
LINE
  8
0
 10
-28.5
 20
828.5
 11
-28.4684
 21
829.001
  0
LINE
  8
0
 10
-28.4684
 20
829.001
 11
-28.3743
 21
829.495
  0
LINE
  8
0
 10
-28.3743
 20
829.495
 11
-28.2191
 21
829.972
  0
LINE
  8
0
 10
-28.2191
 20
829.972
 11
-28.0052
 21
830.427
  0
LINE
  8
0
 10
-28.0052
 20
830.427
 11
-27.7361
 21
830.851
  0
LINE
  8
0
 10
-27.7361
 20
830.851
 11
-27.4159
 21
831.238
  0
LINE
  8
0
 10
-27.4159
 20
831.238
 11
-27.0497
 21
831.582
  0
LINE
  8
0
 10
-27.0497
 20
831.582
 11
-26.6433
 21
831.877
  0
LINE
  8
0
 10
-26.6433
 20
831.877
 11
-26.2031
 21
832.119
  0
LINE
  8
0
 10
-26.2031
 20
832.119
 11
-25.7361
 21
832.304
  0
LINE
  8
0
 10
-25.7361
 20
832.304
 11
-25.2495
 21
832.429
  0
LINE
  8
0
 10
-25.2495
 20
832.429
 11
-24.7512
 21
832.492
  0
LINE
  8
0
 10
-24.7512
 20
832.492
 11
24.7512
 21
832.492
  0
LINE
  8
0
 10
24.7512
 20
832.492
 11
25.2495
 21
832.429
  0
LINE
  8
0
 10
25.2495
 20
832.429
 11
25.7361
 21
832.304
  0
LINE
  8
0
 10
25.7361
 20
832.304
 11
26.2031
 21
832.119
  0
LINE
  8
0
 10
26.2031
 20
832.119
 11
26.6433
 21
831.877
  0
LINE
  8
0
 10
26.6433
 20
831.877
 11
27.0497
 21
831.582
  0
LINE
  8
0
 10
27.0497
 20
831.582
 11
27.4159
 21
831.238
  0
LINE
  8
0
 10
27.4159
 20
831.238
 11
27.7361
 21
830.851
  0
LINE
  8
0
 10
27.7361
 20
830.851
 11
28.0052
 21
830.427
  0
LINE
  8
0
 10
28.0052
 20
830.427
 11
28.2191
 21
829.972
  0
LINE
  8
0
 10
28.2191
 20
829.972
 11
28.3743
 21
829.495
  0
LINE
  8
0
 10
28.3743
 20
829.495
 11
28.4684
 21
829.001
  0
LINE
  8
0
 10
28.4684
 20
829.001
 11
28.5
 21
828.5
  0
LINE
  8
0
 10
28.5
 20
828.5
 11
28.5
 21
719.5
  0
LINE
  8
0
 10
28.5
 20
719.5
 11
28.4684
 21
718.999
  0
LINE
  8
0
 10
28.4684
 20
718.999
 11
28.3743
 21
718.505
  0
LINE
  8
0
 10
28.3743
 20
718.505
 11
28.2191
 21
718.028
  0
LINE
  8
0
 10
28.2191
 20
718.028
 11
28.0052
 21
717.573
  0
LINE
  8
0
 10
28.0052
 20
717.573
 11
27.7361
 21
717.149
  0
LINE
  8
0
 10
27.7361
 20
717.149
 11
27.4159
 21
716.762
  0
LINE
  8
0
 10
27.4159
 20
716.762
 11
27.0497
 21
716.418
  0
LINE
  8
0
 10
27.0497
 20
716.418
 11
26.6433
 21
716.123
  0
LINE
  8
0
 10
26.6433
 20
716.123
 11
26.2031
 21
715.881
  0
LINE
  8
0
 10
26.2031
 20
715.881
 11
25.7361
 21
715.696
  0
LINE
  8
0
 10
25.7361
 20
715.696
 11
25.2495
 21
715.571
  0
LINE
  8
0
 10
25.2495
 20
715.571
 11
24.7512
 21
715.508
  0
LINE
  8
0
 10
24.7512
 20
715.508
 11
-24.7512
 21
715.508
  0
LINE
  8
0
 10
25.9369
 20
585.089
 11
26.5451
 21
585.245
  0
LINE
  8
0
 10
26.5451
 20
585.245
 11
27.1289
 21
585.476
  0
LINE
  8
0
 10
27.1289
 20
585.476
 11
27.6791
 21
585.778
  0
LINE
  8
0
 10
27.6791
 20
585.778
 11
28.1871
 21
586.147
  0
LINE
  8
0
 10
28.1871
 20
586.147
 11
28.6448
 21
586.577
  0
LINE
  8
0
 10
28.6448
 20
586.577
 11
29.0451
 21
587.061
  0
LINE
  8
0
 10
29.0451
 20
587.061
 11
29.3815
 21
587.591
  0
LINE
  8
0
 10
29.3815
 20
587.591
 11
29.6489
 21
588.159
  0
LINE
  8
0
 10
29.6489
 20
588.159
 11
29.8429
 21
588.757
  0
LINE
  8
0
 10
29.8429
 20
588.757
 11
29.9606
 21
589.373
  0
LINE
  8
0
 10
29.9606
 20
589.373
 11
30
 21
590
  0
LINE
  8
0
 10
30
 20
590
 11
30
 21
700
  0
LINE
  8
0
 10
30
 20
700
 11
29.9606
 21
700.627
  0
LINE
  8
0
 10
29.9606
 20
700.627
 11
29.8429
 21
701.243
  0
LINE
  8
0
 10
29.8429
 20
701.243
 11
29.6489
 21
701.841
  0
LINE
  8
0
 10
29.6489
 20
701.841
 11
29.3815
 21
702.409
  0
LINE
  8
0
 10
29.3815
 20
702.409
 11
29.0451
 21
702.939
  0
LINE
  8
0
 10
29.0451
 20
702.939
 11
28.6448
 21
703.423
  0
LINE
  8
0
 10
28.6448
 20
703.423
 11
28.1871
 21
703.853
  0
LINE
  8
0
 10
28.1871
 20
703.853
 11
27.6791
 21
704.222
  0
LINE
  8
0
 10
27.6791
 20
704.222
 11
27.1289
 21
704.524
  0
LINE
  8
0
 10
27.1289
 20
704.524
 11
26.5451
 21
704.755
  0
LINE
  8
0
 10
26.5451
 20
704.755
 11
25.9369
 21
704.911
  0
LINE
  8
0
 10
25.9369
 20
704.911
 11
25.3139
 21
704.99
  0
LINE
  8
0
 10
25.3139
 20
704.99
 11
-25.3139
 21
704.99
  0
LINE
  8
0
 10
-25.3139
 20
704.99
 11
-25.9369
 21
704.911
  0
LINE
  8
0
 10
-25.9369
 20
704.911
 11
-26.5451
 21
704.755
  0
LINE
  8
0
 10
-26.5451
 20
704.755
 11
-27.1289
 21
704.524
  0
LINE
  8
0
 10
-27.1289
 20
704.524
 11
-27.6791
 21
704.222
  0
LINE
  8
0
 10
-27.6791
 20
704.222
 11
-28.1871
 21
703.853
  0
LINE
  8
0
 10
-28.1871
 20
703.853
 11
-28.6448
 21
703.423
  0
LINE
  8
0
 10
-28.6448
 20
703.423
 11
-29.0451
 21
702.939
  0
LINE
  8
0
 10
-29.0451
 20
702.939
 11
-29.3815
 21
702.409
  0
LINE
  8
0
 10
-29.3815
 20
702.409
 11
-29.6489
 21
701.841
  0
LINE
  8
0
 10
-29.6489
 20
701.841
 11
-29.8429
 21
701.243
  0
LINE
  8
0
 10
-29.8429
 20
701.243
 11
-29.9606
 21
700.627
  0
LINE
  8
0
 10
-29.9606
 20
700.627
 11
-30
 21
700
  0
LINE
  8
0
 10
-30
 20
700
 11
-30
 21
590
  0
LINE
  8
0
 10
-30
 20
590
 11
-29.9606
 21
589.373
  0
LINE
  8
0
 10
-29.9606
 20
589.373
 11
-29.8429
 21
588.757
  0
LINE
  8
0
 10
-29.8429
 20
588.757
 11
-29.6489
 21
588.159
  0
LINE
  8
0
 10
-29.6489
 20
588.159
 11
-29.3815
 21
587.591
  0
LINE
  8
0
 10
-29.3815
 20
587.591
 11
-29.0451
 21
587.061
  0
LINE
  8
0
 10
-29.0451
 20
587.061
 11
-28.6448
 21
586.577
  0
LINE
  8
0
 10
-28.6448
 20
586.577
 11
-28.1871
 21
586.147
  0
LINE
  8
0
 10
-28.1871
 20
586.147
 11
-27.6791
 21
585.778
  0
LINE
  8
0
 10
-27.6791
 20
585.778
 11
-27.1289
 21
585.476
  0
LINE
  8
0
 10
-27.1289
 20
585.476
 11
-26.5451
 21
585.245
  0
LINE
  8
0
 10
-26.5451
 20
585.245
 11
-25.9369
 21
585.089
  0
LINE
  8
0
 10
-25.9369
 20
585.089
 11
-25.3139
 21
585.01
  0
LINE
  8
0
 10
-25.3139
 20
585.01
 11
25.3139
 21
585.01
  0
LINE
  8
0
 10
25.3139
 20
585.01
 11
25.9369
 21
585.089
  0
LINE
  8
0
 10
-24.6954
 20
587.393
 11
-25.0833
 21
587.442
  0
LINE
  8
0
 10
-25.0833
 20
587.442
 11
-25.4619
 21
587.539
  0
LINE
  8
0
 10
-25.4619
 20
587.539
 11
-25.8254
 21
587.683
  0
LINE
  8
0
 10
-25.8254
 20
587.683
 11
-26.168
 21
587.872
  0
LINE
  8
0
 10
-26.168
 20
587.872
 11
-26.4842
 21
588.101
  0
LINE
  8
0
 10
-26.4842
 20
588.101
 11
-26.7692
 21
588.369
  0
LINE
  8
0
 10
-26.7692
 20
588.369
 11
-27.0184
 21
588.67
  0
LINE
  8
0
 10
-27.0184
 20
588.67
 11
-27.2279
 21
589
  0
LINE
  8
0
 10
-27.2279
 20
589
 11
-27.3943
 21
589.354
  0
LINE
  8
0
 10
-27.3943
 20
589.354
 11
-27.5151
 21
589.726
  0
LINE
  8
0
 10
-27.5151
 20
589.726
 11
-27.5884
 21
590.11
  0
LINE
  8
0
 10
-27.5884
 20
590.11
 11
-27.6129
 21
590.5
  0
LINE
  8
0
 10
-27.6129
 20
590.5
 11
-27.6129
 21
699.5
  0
LINE
  8
0
 10
-27.6129
 20
699.5
 11
-27.5884
 21
699.89
  0
LINE
  8
0
 10
-27.5884
 20
699.89
 11
-27.5151
 21
700.274
  0
LINE
  8
0
 10
-27.5151
 20
700.274
 11
-27.3943
 21
700.646
  0
LINE
  8
0
 10
-27.3943
 20
700.646
 11
-27.2279
 21
701
  0
LINE
  8
0
 10
-27.2279
 20
701
 11
-27.0184
 21
701.33
  0
LINE
  8
0
 10
-27.0184
 20
701.33
 11
-26.7692
 21
701.631
  0
LINE
  8
0
 10
-26.7692
 20
701.631
 11
-26.4842
 21
701.899
  0
LINE
  8
0
 10
-26.4842
 20
701.899
 11
-26.168
 21
702.128
  0
LINE
  8
0
 10
-26.168
 20
702.128
 11
-25.8254
 21
702.317
  0
LINE
  8
0
 10
-25.8254
 20
702.317
 11
-25.4619
 21
702.461
  0
LINE
  8
0
 10
-25.4619
 20
702.461
 11
-25.0833
 21
702.558
  0
LINE
  8
0
 10
-25.0833
 20
702.558
 11
-24.6954
 21
702.607
  0
LINE
  8
0
 10
-24.6954
 20
702.607
 11
24.6954
 21
702.607
  0
LINE
  8
0
 10
24.6954
 20
702.607
 11
25.0833
 21
702.558
  0
LINE
  8
0
 10
25.0833
 20
702.558
 11
25.4619
 21
702.461
  0
LINE
  8
0
 10
25.4619
 20
702.461
 11
25.8254
 21
702.317
  0
LINE
  8
0
 10
25.8254
 20
702.317
 11
26.168
 21
702.128
  0
LINE
  8
0
 10
26.168
 20
702.128
 11
26.4842
 21
701.899
  0
LINE
  8
0
 10
26.4842
 20
701.899
 11
26.7692
 21
701.631
  0
LINE
  8
0
 10
26.7692
 20
701.631
 11
27.0184
 21
701.33
  0
LINE
  8
0
 10
27.0184
 20
701.33
 11
27.2279
 21
701
  0
LINE
  8
0
 10
27.2279
 20
701
 11
27.3943
 21
700.646
  0
LINE
  8
0
 10
27.3943
 20
700.646
 11
27.5151
 21
700.274
  0
LINE
  8
0
 10
27.5151
 20
700.274
 11
27.5884
 21
699.89
  0
LINE
  8
0
 10
27.5884
 20
699.89
 11
27.6129
 21
699.5
  0
LINE
  8
0
 10
27.6129
 20
699.5
 11
27.6129
 21
590.5
  0
LINE
  8
0
 10
27.6129
 20
590.5
 11
27.5884
 21
590.11
  0
LINE
  8
0
 10
27.5884
 20
590.11
 11
27.5151
 21
589.726
  0
LINE
  8
0
 10
27.5151
 20
589.726
 11
27.3943
 21
589.354
  0
LINE
  8
0
 10
27.3943
 20
589.354
 11
27.2279
 21
589
  0
LINE
  8
0
 10
27.2279
 20
589
 11
27.0184
 21
588.67
  0
LINE
  8
0
 10
27.0184
 20
588.67
 11
26.7692
 21
588.369
  0
LINE
  8
0
 10
26.7692
 20
588.369
 11
26.4842
 21
588.101
  0
LINE
  8
0
 10
26.4842
 20
588.101
 11
26.168
 21
587.872
  0
LINE
  8
0
 10
26.168
 20
587.872
 11
25.8254
 21
587.683
  0
LINE
  8
0
 10
25.8254
 20
587.683
 11
25.4619
 21
587.539
  0
LINE
  8
0
 10
25.4619
 20
587.539
 11
25.0833
 21
587.442
  0
LINE
  8
0
 10
25.0833
 20
587.442
 11
24.6954
 21
587.393
  0
LINE
  8
0
 10
24.6954
 20
587.393
 11
-24.6954
 21
587.393
  0
LINE
  8
0
 10
25.9369
 20
456.089
 11
26.5451
 21
456.245
  0
LINE
  8
0
 10
26.5451
 20
456.245
 11
27.1289
 21
456.476
  0
LINE
  8
0
 10
27.1289
 20
456.476
 11
27.6791
 21
456.778
  0
LINE
  8
0
 10
27.6791
 20
456.778
 11
28.1871
 21
457.147
  0
LINE
  8
0
 10
28.1871
 20
457.147
 11
28.6448
 21
457.577
  0
LINE
  8
0
 10
28.6448
 20
457.577
 11
29.0451
 21
458.061
  0
LINE
  8
0
 10
29.0451
 20
458.061
 11
29.3815
 21
458.591
  0
LINE
  8
0
 10
29.3815
 20
458.591
 11
29.6489
 21
459.159
  0
LINE
  8
0
 10
29.6489
 20
459.159
 11
29.8429
 21
459.757
  0
LINE
  8
0
 10
29.8429
 20
459.757
 11
29.9606
 21
460.373
  0
LINE
  8
0
 10
29.9606
 20
460.373
 11
30
 21
461
  0
LINE
  8
0
 10
30
 20
461
 11
30
 21
571
  0
LINE
  8
0
 10
30
 20
571
 11
29.9606
 21
571.627
  0
LINE
  8
0
 10
29.9606
 20
571.627
 11
29.8429
 21
572.243
  0
LINE
  8
0
 10
29.8429
 20
572.243
 11
29.6489
 21
572.841
  0
LINE
  8
0
 10
29.6489
 20
572.841
 11
29.3815
 21
573.409
  0
LINE
  8
0
 10
29.3815
 20
573.409
 11
29.0451
 21
573.939
  0
LINE
  8
0
 10
29.0451
 20
573.939
 11
28.6448
 21
574.423
  0
LINE
  8
0
 10
28.6448
 20
574.423
 11
28.1871
 21
574.853
  0
LINE
  8
0
 10
28.1871
 20
574.853
 11
27.6791
 21
575.222
  0
LINE
  8
0
 10
27.6791
 20
575.222
 11
27.1289
 21
575.524
  0
LINE
  8
0
 10
27.1289
 20
575.524
 11
26.5451
 21
575.755
  0
LINE
  8
0
 10
26.5451
 20
575.755
 11
25.9369
 21
575.911
  0
LINE
  8
0
 10
25.9369
 20
575.911
 11
25.3139
 21
575.99
  0
LINE
  8
0
 10
25.3139
 20
575.99
 11
-25.3139
 21
575.99
  0
LINE
  8
0
 10
-25.3139
 20
575.99
 11
-25.9369
 21
575.911
  0
LINE
  8
0
 10
-25.9369
 20
575.911
 11
-26.5451
 21
575.755
  0
LINE
  8
0
 10
-26.5451
 20
575.755
 11
-27.1289
 21
575.524
  0
LINE
  8
0
 10
-27.1289
 20
575.524
 11
-27.6791
 21
575.222
  0
LINE
  8
0
 10
-27.6791
 20
575.222
 11
-28.1871
 21
574.853
  0
LINE
  8
0
 10
-28.1871
 20
574.853
 11
-28.6448
 21
574.423
  0
LINE
  8
0
 10
-28.6448
 20
574.423
 11
-29.0451
 21
573.939
  0
LINE
  8
0
 10
-29.0451
 20
573.939
 11
-29.3815
 21
573.409
  0
LINE
  8
0
 10
-29.3815
 20
573.409
 11
-29.6489
 21
572.841
  0
LINE
  8
0
 10
-29.6489
 20
572.841
 11
-29.8429
 21
572.243
  0
LINE
  8
0
 10
-29.8429
 20
572.243
 11
-29.9606
 21
571.627
  0
LINE
  8
0
 10
-29.9606
 20
571.627
 11
-30
 21
571
  0
LINE
  8
0
 10
-30
 20
571
 11
-30
 21
461
  0
LINE
  8
0
 10
-30
 20
461
 11
-29.9606
 21
460.373
  0
LINE
  8
0
 10
-29.9606
 20
460.373
 11
-29.8429
 21
459.757
  0
LINE
  8
0
 10
-29.8429
 20
459.757
 11
-29.6489
 21
459.159
  0
LINE
  8
0
 10
-29.6489
 20
459.159
 11
-29.3815
 21
458.591
  0
LINE
  8
0
 10
-29.3815
 20
458.591
 11
-29.0451
 21
458.061
  0
LINE
  8
0
 10
-29.0451
 20
458.061
 11
-28.6448
 21
457.577
  0
LINE
  8
0
 10
-28.6448
 20
457.577
 11
-28.1871
 21
457.147
  0
LINE
  8
0
 10
-28.1871
 20
457.147
 11
-27.6791
 21
456.778
  0
LINE
  8
0
 10
-27.6791
 20
456.778
 11
-27.1289
 21
456.476
  0
LINE
  8
0
 10
-27.1289
 20
456.476
 11
-26.5451
 21
456.245
  0
LINE
  8
0
 10
-26.5451
 20
456.245
 11
-25.9369
 21
456.089
  0
LINE
  8
0
 10
-25.9369
 20
456.089
 11
-25.3139
 21
456.01
  0
LINE
  8
0
 10
-25.3139
 20
456.01
 11
25.3139
 21
456.01
  0
LINE
  8
0
 10
25.3139
 20
456.01
 11
25.9369
 21
456.089
  0
LINE
  8
0
 10
22.3659
 20
566.369
 11
22.0999
 21
566.403
  0
LINE
  8
0
 10
22.0999
 20
566.403
 11
21.8401
 21
566.469
  0
LINE
  8
0
 10
21.8401
 20
566.469
 11
21.5908
 21
566.568
  0
LINE
  8
0
 10
21.5908
 20
566.568
 11
21.3559
 21
566.697
  0
LINE
  8
0
 10
21.3559
 20
566.697
 11
21.1389
 21
566.855
  0
LINE
  8
0
 10
21.1389
 20
566.855
 11
20.9434
 21
567.038
  0
LINE
  8
0
 10
20.9434
 20
567.038
 11
20.7725
 21
567.245
  0
LINE
  8
0
 10
20.7725
 20
567.245
 11
20.6288
 21
567.471
  0
LINE
  8
0
 10
20.6288
 20
567.471
 11
20.5146
 21
567.714
  0
LINE
  8
0
 10
20.5146
 20
567.714
 11
20.4318
 21
567.969
  0
LINE
  8
0
 10
20.4318
 20
567.969
 11
20.3815
 21
568.232
  0
LINE
  8
0
 10
20.3815
 20
568.232
 11
20.3647
 21
568.5
  0
LINE
  8
0
 10
20.3647
 20
568.5
 11
20.3815
 21
568.768
  0
LINE
  8
0
 10
20.3815
 20
568.768
 11
20.4318
 21
569.031
  0
LINE
  8
0
 10
20.4318
 20
569.031
 11
20.5146
 21
569.286
  0
LINE
  8
0
 10
20.5146
 20
569.286
 11
20.6288
 21
569.529
  0
LINE
  8
0
 10
20.6288
 20
569.529
 11
20.7725
 21
569.755
  0
LINE
  8
0
 10
20.7725
 20
569.755
 11
20.9434
 21
569.962
  0
LINE
  8
0
 10
20.9434
 20
569.962
 11
21.1389
 21
570.145
  0
LINE
  8
0
 10
21.1389
 20
570.145
 11
21.3559
 21
570.303
  0
LINE
  8
0
 10
21.3559
 20
570.303
 11
21.5908
 21
570.432
  0
LINE
  8
0
 10
21.5908
 20
570.432
 11
21.8401
 21
570.531
  0
LINE
  8
0
 10
21.8401
 20
570.531
 11
22.0999
 21
570.597
  0
LINE
  8
0
 10
22.0999
 20
570.597
 11
22.3659
 21
570.631
  0
LINE
  8
0
 10
22.3659
 20
570.631
 11
22.6341
 21
570.631
  0
LINE
  8
0
 10
22.6341
 20
570.631
 11
22.9001
 21
570.597
  0
LINE
  8
0
 10
22.9001
 20
570.597
 11
23.1598
 21
570.531
  0
LINE
  8
0
 10
23.1598
 20
570.531
 11
23.4091
 21
570.432
  0
LINE
  8
0
 10
23.4091
 20
570.432
 11
23.6441
 21
570.303
  0
LINE
  8
0
 10
23.6441
 20
570.303
 11
23.8611
 21
570.145
  0
LINE
  8
0
 10
23.8611
 20
570.145
 11
24.0565
 21
569.962
  0
LINE
  8
0
 10
24.0565
 20
569.962
 11
24.2275
 21
569.755
  0
LINE
  8
0
 10
24.2275
 20
569.755
 11
24.3712
 21
569.529
  0
LINE
  8
0
 10
24.3712
 20
569.529
 11
24.4853
 21
569.286
  0
LINE
  8
0
 10
24.4853
 20
569.286
 11
24.5682
 21
569.031
  0
LINE
  8
0
 10
24.5682
 20
569.031
 11
24.6185
 21
568.768
  0
LINE
  8
0
 10
24.6185
 20
568.768
 11
24.6353
 21
568.5
  0
LINE
  8
0
 10
24.6353
 20
568.5
 11
24.6185
 21
568.232
  0
LINE
  8
0
 10
24.6185
 20
568.232
 11
24.5682
 21
567.969
  0
LINE
  8
0
 10
24.5682
 20
567.969
 11
24.4853
 21
567.714
  0
LINE
  8
0
 10
24.4853
 20
567.714
 11
24.3712
 21
567.471
  0
LINE
  8
0
 10
24.3712
 20
567.471
 11
24.2275
 21
567.245
  0
LINE
  8
0
 10
24.2275
 20
567.245
 11
24.0565
 21
567.038
  0
LINE
  8
0
 10
24.0565
 20
567.038
 11
23.8611
 21
566.855
  0
LINE
  8
0
 10
23.8611
 20
566.855
 11
23.6441
 21
566.697
  0
LINE
  8
0
 10
23.6441
 20
566.697
 11
23.4091
 21
566.568
  0
LINE
  8
0
 10
23.4091
 20
566.568
 11
23.1598
 21
566.469
  0
LINE
  8
0
 10
23.1598
 20
566.469
 11
22.9001
 21
566.403
  0
LINE
  8
0
 10
22.9001
 20
566.403
 11
22.6341
 21
566.369
  0
LINE
  8
0
 10
22.6341
 20
566.369
 11
22.3659
 21
566.369
  0
LINE
  8
0
 10
-22.6341
 20
566.369
 11
-22.9001
 21
566.403
  0
LINE
  8
0
 10
-22.9001
 20
566.403
 11
-23.1598
 21
566.469
  0
LINE
  8
0
 10
-23.1598
 20
566.469
 11
-23.4091
 21
566.568
  0
LINE
  8
0
 10
-23.4091
 20
566.568
 11
-23.6441
 21
566.697
  0
LINE
  8
0
 10
-23.6441
 20
566.697
 11
-23.8611
 21
566.855
  0
LINE
  8
0
 10
-23.8611
 20
566.855
 11
-24.0565
 21
567.038
  0
LINE
  8
0
 10
-24.0565
 20
567.038
 11
-24.2275
 21
567.245
  0
LINE
  8
0
 10
-24.2275
 20
567.245
 11
-24.3712
 21
567.471
  0
LINE
  8
0
 10
-24.3712
 20
567.471
 11
-24.4853
 21
567.714
  0
LINE
  8
0
 10
-24.4853
 20
567.714
 11
-24.5682
 21
567.969
  0
LINE
  8
0
 10
-24.5682
 20
567.969
 11
-24.6185
 21
568.232
  0
LINE
  8
0
 10
-24.6185
 20
568.232
 11
-24.6353
 21
568.5
  0
LINE
  8
0
 10
-24.6353
 20
568.5
 11
-24.6185
 21
568.768
  0
LINE
  8
0
 10
-24.6185
 20
568.768
 11
-24.5682
 21
569.031
  0
LINE
  8
0
 10
-24.5682
 20
569.031
 11
-24.4853
 21
569.286
  0
LINE
  8
0
 10
-24.4853
 20
569.286
 11
-24.3712
 21
569.529
  0
LINE
  8
0
 10
-24.3712
 20
569.529
 11
-24.2275
 21
569.755
  0
LINE
  8
0
 10
-24.2275
 20
569.755
 11
-24.0565
 21
569.962
  0
LINE
  8
0
 10
-24.0565
 20
569.962
 11
-23.8611
 21
570.145
  0
LINE
  8
0
 10
-23.8611
 20
570.145
 11
-23.6441
 21
570.303
  0
LINE
  8
0
 10
-23.6441
 20
570.303
 11
-23.4091
 21
570.432
  0
LINE
  8
0
 10
-23.4091
 20
570.432
 11
-23.1598
 21
570.531
  0
LINE
  8
0
 10
-23.1598
 20
570.531
 11
-22.9001
 21
570.597
  0
LINE
  8
0
 10
-22.9001
 20
570.597
 11
-22.6341
 21
570.631
  0
LINE
  8
0
 10
-22.6341
 20
570.631
 11
-22.3659
 21
570.631
  0
LINE
  8
0
 10
-22.3659
 20
570.631
 11
-22.0999
 21
570.597
  0
LINE
  8
0
 10
-22.0999
 20
570.597
 11
-21.8401
 21
570.531
  0
LINE
  8
0
 10
-21.8401
 20
570.531
 11
-21.5908
 21
570.432
  0
LINE
  8
0
 10
-21.5908
 20
570.432
 11
-21.3559
 21
570.303
  0
LINE
  8
0
 10
-21.3559
 20
570.303
 11
-21.1389
 21
570.145
  0
LINE
  8
0
 10
-21.1389
 20
570.145
 11
-20.9434
 21
569.962
  0
LINE
  8
0
 10
-20.9434
 20
569.962
 11
-20.7725
 21
569.755
  0
LINE
  8
0
 10
-20.7725
 20
569.755
 11
-20.6288
 21
569.529
  0
LINE
  8
0
 10
-20.6288
 20
569.529
 11
-20.5146
 21
569.286
  0
LINE
  8
0
 10
-20.5146
 20
569.286
 11
-20.4318
 21
569.031
  0
LINE
  8
0
 10
-20.4318
 20
569.031
 11
-20.3815
 21
568.768
  0
LINE
  8
0
 10
-20.3815
 20
568.768
 11
-20.3647
 21
568.5
  0
LINE
  8
0
 10
-20.3647
 20
568.5
 11
-20.3815
 21
568.232
  0
LINE
  8
0
 10
-20.3815
 20
568.232
 11
-20.4318
 21
567.969
  0
LINE
  8
0
 10
-20.4318
 20
567.969
 11
-20.5146
 21
567.714
  0
LINE
  8
0
 10
-20.5146
 20
567.714
 11
-20.6288
 21
567.471
  0
LINE
  8
0
 10
-20.6288
 20
567.471
 11
-20.7725
 21
567.245
  0
LINE
  8
0
 10
-20.7725
 20
567.245
 11
-20.9434
 21
567.038
  0
LINE
  8
0
 10
-20.9434
 20
567.038
 11
-21.1389
 21
566.855
  0
LINE
  8
0
 10
-21.1389
 20
566.855
 11
-21.3559
 21
566.697
  0
LINE
  8
0
 10
-21.3559
 20
566.697
 11
-21.5908
 21
566.568
  0
LINE
  8
0
 10
-21.5908
 20
566.568
 11
-21.8401
 21
566.469
  0
LINE
  8
0
 10
-21.8401
 20
566.469
 11
-22.0999
 21
566.403
  0
LINE
  8
0
 10
-22.0999
 20
566.403
 11
-22.3659
 21
566.369
  0
LINE
  8
0
 10
-22.3659
 20
566.369
 11
-22.6341
 21
566.369
  0
LINE
  8
0
 10
22.3659
 20
461.369
 11
22.0999
 21
461.403
  0
LINE
  8
0
 10
22.0999
 20
461.403
 11
21.8401
 21
461.469
  0
LINE
  8
0
 10
21.8401
 20
461.469
 11
21.5908
 21
461.568
  0
LINE
  8
0
 10
21.5908
 20
461.568
 11
21.3559
 21
461.697
  0
LINE
  8
0
 10
21.3559
 20
461.697
 11
21.1389
 21
461.855
  0
LINE
  8
0
 10
21.1389
 20
461.855
 11
20.9434
 21
462.038
  0
LINE
  8
0
 10
20.9434
 20
462.038
 11
20.7725
 21
462.245
  0
LINE
  8
0
 10
20.7725
 20
462.245
 11
20.6288
 21
462.471
  0
LINE
  8
0
 10
20.6288
 20
462.471
 11
20.5146
 21
462.714
  0
LINE
  8
0
 10
20.5146
 20
462.714
 11
20.4318
 21
462.969
  0
LINE
  8
0
 10
20.4318
 20
462.969
 11
20.3815
 21
463.232
  0
LINE
  8
0
 10
20.3815
 20
463.232
 11
20.3647
 21
463.5
  0
LINE
  8
0
 10
20.3647
 20
463.5
 11
20.3815
 21
463.768
  0
LINE
  8
0
 10
20.3815
 20
463.768
 11
20.4318
 21
464.031
  0
LINE
  8
0
 10
20.4318
 20
464.031
 11
20.5146
 21
464.286
  0
LINE
  8
0
 10
20.5146
 20
464.286
 11
20.6288
 21
464.529
  0
LINE
  8
0
 10
20.6288
 20
464.529
 11
20.7725
 21
464.755
  0
LINE
  8
0
 10
20.7725
 20
464.755
 11
20.9434
 21
464.962
  0
LINE
  8
0
 10
20.9434
 20
464.962
 11
21.1389
 21
465.145
  0
LINE
  8
0
 10
21.1389
 20
465.145
 11
21.3559
 21
465.303
  0
LINE
  8
0
 10
21.3559
 20
465.303
 11
21.5908
 21
465.432
  0
LINE
  8
0
 10
21.5908
 20
465.432
 11
21.8401
 21
465.531
  0
LINE
  8
0
 10
21.8401
 20
465.531
 11
22.0999
 21
465.597
  0
LINE
  8
0
 10
22.0999
 20
465.597
 11
22.3659
 21
465.631
  0
LINE
  8
0
 10
22.3659
 20
465.631
 11
22.6341
 21
465.631
  0
LINE
  8
0
 10
22.6341
 20
465.631
 11
22.9001
 21
465.597
  0
LINE
  8
0
 10
22.9001
 20
465.597
 11
23.1598
 21
465.531
  0
LINE
  8
0
 10
23.1598
 20
465.531
 11
23.4091
 21
465.432
  0
LINE
  8
0
 10
23.4091
 20
465.432
 11
23.6441
 21
465.303
  0
LINE
  8
0
 10
23.6441
 20
465.303
 11
23.8611
 21
465.145
  0
LINE
  8
0
 10
23.8611
 20
465.145
 11
24.0565
 21
464.962
  0
LINE
  8
0
 10
24.0565
 20
464.962
 11
24.2275
 21
464.755
  0
LINE
  8
0
 10
24.2275
 20
464.755
 11
24.3712
 21
464.529
  0
LINE
  8
0
 10
24.3712
 20
464.529
 11
24.4853
 21
464.286
  0
LINE
  8
0
 10
24.4853
 20
464.286
 11
24.5682
 21
464.031
  0
LINE
  8
0
 10
24.5682
 20
464.031
 11
24.6185
 21
463.768
  0
LINE
  8
0
 10
24.6185
 20
463.768
 11
24.6353
 21
463.5
  0
LINE
  8
0
 10
24.6353
 20
463.5
 11
24.6185
 21
463.232
  0
LINE
  8
0
 10
24.6185
 20
463.232
 11
24.5682
 21
462.969
  0
LINE
  8
0
 10
24.5682
 20
462.969
 11
24.4853
 21
462.714
  0
LINE
  8
0
 10
24.4853
 20
462.714
 11
24.3712
 21
462.471
  0
LINE
  8
0
 10
24.3712
 20
462.471
 11
24.2275
 21
462.245
  0
LINE
  8
0
 10
24.2275
 20
462.245
 11
24.0565
 21
462.038
  0
LINE
  8
0
 10
24.0565
 20
462.038
 11
23.8611
 21
461.855
  0
LINE
  8
0
 10
23.8611
 20
461.855
 11
23.6441
 21
461.697
  0
LINE
  8
0
 10
23.6441
 20
461.697
 11
23.4091
 21
461.568
  0
LINE
  8
0
 10
23.4091
 20
461.568
 11
23.1598
 21
461.469
  0
LINE
  8
0
 10
23.1598
 20
461.469
 11
22.9001
 21
461.403
  0
LINE
  8
0
 10
22.9001
 20
461.403
 11
22.6341
 21
461.369
  0
LINE
  8
0
 10
22.6341
 20
461.369
 11
22.3659
 21
461.369
  0
LINE
  8
0
 10
-22.6341
 20
461.369
 11
-22.9001
 21
461.403
  0
LINE
  8
0
 10
-22.9001
 20
461.403
 11
-23.1598
 21
461.469
  0
LINE
  8
0
 10
-23.1598
 20
461.469
 11
-23.4091
 21
461.568
  0
LINE
  8
0
 10
-23.4091
 20
461.568
 11
-23.6441
 21
461.697
  0
LINE
  8
0
 10
-23.6441
 20
461.697
 11
-23.8611
 21
461.855
  0
LINE
  8
0
 10
-23.8611
 20
461.855
 11
-24.0565
 21
462.038
  0
LINE
  8
0
 10
-24.0565
 20
462.038
 11
-24.2275
 21
462.245
  0
LINE
  8
0
 10
-24.2275
 20
462.245
 11
-24.3712
 21
462.471
  0
LINE
  8
0
 10
-24.3712
 20
462.471
 11
-24.4853
 21
462.714
  0
LINE
  8
0
 10
-24.4853
 20
462.714
 11
-24.5682
 21
462.969
  0
LINE
  8
0
 10
-24.5682
 20
462.969
 11
-24.6185
 21
463.232
  0
LINE
  8
0
 10
-24.6185
 20
463.232
 11
-24.6353
 21
463.5
  0
LINE
  8
0
 10
-24.6353
 20
463.5
 11
-24.6185
 21
463.768
  0
LINE
  8
0
 10
-24.6185
 20
463.768
 11
-24.5682
 21
464.031
  0
LINE
  8
0
 10
-24.5682
 20
464.031
 11
-24.4853
 21
464.286
  0
LINE
  8
0
 10
-24.4853
 20
464.286
 11
-24.3712
 21
464.529
  0
LINE
  8
0
 10
-24.3712
 20
464.529
 11
-24.2275
 21
464.755
  0
LINE
  8
0
 10
-24.2275
 20
464.755
 11
-24.0565
 21
464.962
  0
LINE
  8
0
 10
-24.0565
 20
464.962
 11
-23.8611
 21
465.145
  0
LINE
  8
0
 10
-23.8611
 20
465.145
 11
-23.6441
 21
465.303
  0
LINE
  8
0
 10
-23.6441
 20
465.303
 11
-23.4091
 21
465.432
  0
LINE
  8
0
 10
-23.4091
 20
465.432
 11
-23.1598
 21
465.531
  0
LINE
  8
0
 10
-23.1598
 20
465.531
 11
-22.9001
 21
465.597
  0
LINE
  8
0
 10
-22.9001
 20
465.597
 11
-22.6341
 21
465.631
  0
LINE
  8
0
 10
-22.6341
 20
465.631
 11
-22.3659
 21
465.631
  0
LINE
  8
0
 10
-22.3659
 20
465.631
 11
-22.0999
 21
465.597
  0
LINE
  8
0
 10
-22.0999
 20
465.597
 11
-21.8401
 21
465.531
  0
LINE
  8
0
 10
-21.8401
 20
465.531
 11
-21.5908
 21
465.432
  0
LINE
  8
0
 10
-21.5908
 20
465.432
 11
-21.3559
 21
465.303
  0
LINE
  8
0
 10
-21.3559
 20
465.303
 11
-21.1389
 21
465.145
  0
LINE
  8
0
 10
-21.1389
 20
465.145
 11
-20.9434
 21
464.962
  0
LINE
  8
0
 10
-20.9434
 20
464.962
 11
-20.7725
 21
464.755
  0
LINE
  8
0
 10
-20.7725
 20
464.755
 11
-20.6288
 21
464.529
  0
LINE
  8
0
 10
-20.6288
 20
464.529
 11
-20.5146
 21
464.286
  0
LINE
  8
0
 10
-20.5146
 20
464.286
 11
-20.4318
 21
464.031
  0
LINE
  8
0
 10
-20.4318
 20
464.031
 11
-20.3815
 21
463.768
  0
LINE
  8
0
 10
-20.3815
 20
463.768
 11
-20.3647
 21
463.5
  0
LINE
  8
0
 10
-20.3647
 20
463.5
 11
-20.3815
 21
463.232
  0
LINE
  8
0
 10
-20.3815
 20
463.232
 11
-20.4318
 21
462.969
  0
LINE
  8
0
 10
-20.4318
 20
462.969
 11
-20.5146
 21
462.714
  0
LINE
  8
0
 10
-20.5146
 20
462.714
 11
-20.6288
 21
462.471
  0
LINE
  8
0
 10
-20.6288
 20
462.471
 11
-20.7725
 21
462.245
  0
LINE
  8
0
 10
-20.7725
 20
462.245
 11
-20.9434
 21
462.038
  0
LINE
  8
0
 10
-20.9434
 20
462.038
 11
-21.1389
 21
461.855
  0
LINE
  8
0
 10
-21.1389
 20
461.855
 11
-21.3559
 21
461.697
  0
LINE
  8
0
 10
-21.3559
 20
461.697
 11
-21.5908
 21
461.568
  0
LINE
  8
0
 10
-21.5908
 20
461.568
 11
-21.8401
 21
461.469
  0
LINE
  8
0
 10
-21.8401
 20
461.469
 11
-22.0999
 21
461.403
  0
LINE
  8
0
 10
-22.0999
 20
461.403
 11
-22.3659
 21
461.369
  0
LINE
  8
0
 10
-22.3659
 20
461.369
 11
-22.6341
 21
461.369
  0
ENDSEC
  0
SECTION
  2
OBJECTS
  0
DICTIONARY
  0
ENDSEC
  0
EOF
