  0
SECTION
  2
BLOCKS
  0
ENDSEC
  0
SECTION
  2
ENTITIES
  0
LINE
  8
0
 10
-49.5
 20
115.175
 11
-49.0451
 21
114.995
  0
LINE
  8
0
 10
-49.0451
 20
114.995
 11
-48.4369
 21
114.839
  0
LINE
  8
0
 10
-48.4369
 20
114.839
 11
-47.8139
 21
114.76
  0
LINE
  8
0
 10
-47.8139
 20
114.76
 11
47.8139
 21
114.76
  0
LINE
  8
0
 10
47.8139
 20
114.76
 11
48.4369
 21
114.839
  0
LINE
  8
0
 10
48.4369
 20
114.839
 11
49.0451
 21
114.995
  0
LINE
  8
0
 10
49.0451
 20
114.995
 11
49.6289
 21
115.226
  0
LINE
  8
0
 10
49.6289
 20
115.226
 11
50.1791
 21
115.528
  0
LINE
  8
0
 10
50.1791
 20
115.528
 11
50.6871
 21
115.897
  0
LINE
  8
0
 10
50.6871
 20
115.897
 11
51.1448
 21
116.327
  0
LINE
  8
0
 10
51.1448
 20
116.327
 11
51.5451
 21
116.811
  0
LINE
  8
0
 10
51.5451
 20
116.811
 11
51.8815
 21
117.341
  0
LINE
  8
0
 10
51.8815
 20
117.341
 11
52.1489
 21
117.909
  0
LINE
  8
0
 10
52.1489
 20
117.909
 11
52.3429
 21
118.507
  0
LINE
  8
0
 10
52.3429
 20
118.507
 11
52.4606
 21
119.123
  0
LINE
  8
0
 10
52.4606
 20
119.123
 11
52.5
 21
119.75
  0
LINE
  8
0
 10
52.5
 20
119.75
 11
52.5
 21
132.25
  0
LINE
  8
0
 10
52.5
 20
132.25
 11
52.4606
 21
132.877
  0
LINE
  8
0
 10
52.4606
 20
132.877
 11
52.3429
 21
133.493
  0
LINE
  8
0
 10
52.3429
 20
133.493
 11
52.1489
 21
134.091
  0
LINE
  8
0
 10
52.1489
 20
134.091
 11
51.8815
 21
134.659
  0
LINE
  8
0
 10
51.8815
 20
134.659
 11
51.5451
 21
135.189
  0
LINE
  8
0
 10
51.5451
 20
135.189
 11
51.1448
 21
135.673
  0
LINE
  8
0
 10
51.1448
 20
135.673
 11
50.6871
 21
136.103
  0
LINE
  8
0
 10
50.6871
 20
136.103
 11
50.1791
 21
136.472
  0
LINE
  8
0
 10
50.1791
 20
136.472
 11
49.6289
 21
136.774
  0
LINE
  8
0
 10
49.6289
 20
136.774
 11
49.0451
 21
137.005
  0
LINE
  8
0
 10
49.0451
 20
137.005
 11
48.4369
 21
137.161
  0
LINE
  8
0
 10
48.4369
 20
137.161
 11
47.8139
 21
137.24
  0
LINE
  8
0
 10
47.8139
 20
137.24
 11
-47.8139
 21
137.24
  0
LINE
  8
0
 10
-47.8139
 20
137.24
 11
-48.4369
 21
137.161
  0
LINE
  8
0
 10
-48.4369
 20
137.161
 11
-49.0451
 21
137.005
  0
LINE
  8
0
 10
-49.0451
 20
137.005
 11
-49.5
 21
136.825
  0
LINE
  8
0
 10
-49.5
 20
136.825
 11
-49.5
 21
137.24
  0
LINE
  8
0
 10
-49.5
 20
137.24
 11
-52.5
 21
137.24
  0
LINE
  8
0
 10
-52.5
 20
137.24
 11
-52.5
 21
114.76
  0
LINE
  8
0
 10
-52.5
 20
114.76
 11
-49.5
 21
114.76
  0
LINE
  8
0
 10
-49.5
 20
114.76
 11
-49.5
 21
115.175
  0
LINE
  8
0
 10
-47.2432
 20
116.385
 11
-47.7256
 21
116.446
  0
LINE
  8
0
 10
-47.7256
 20
116.446
 11
-48.1967
 21
116.567
  0
LINE
  8
0
 10
-48.1967
 20
116.567
 11
-48.6489
 21
116.746
  0
LINE
  8
0
 10
-48.6489
 20
116.746
 11
-49.0751
 21
116.98
  0
LINE
  8
0
 10
-49.0751
 20
116.98
 11
-49.4685
 21
117.266
  0
LINE
  8
0
 10
-49.4685
 20
117.266
 11
-49.823
 21
117.599
  0
LINE
  8
0
 10
-49.823
 20
117.599
 11
-50.133
 21
117.974
  0
LINE
  8
0
 10
-50.133
 20
117.974
 11
-50.3936
 21
118.384
  0
LINE
  8
0
 10
-50.3936
 20
118.384
 11
-50.6007
 21
118.824
  0
LINE
  8
0
 10
-50.6007
 20
118.824
 11
-50.751
 21
119.287
  0
LINE
  8
0
 10
-50.751
 20
119.287
 11
-50.8421
 21
119.765
  0
LINE
  8
0
 10
-50.8421
 20
119.765
 11
-50.8726
 21
120.25
  0
LINE
  8
0
 10
-50.8726
 20
120.25
 11
-50.8726
 21
131.75
  0
LINE
  8
0
 10
-50.8726
 20
131.75
 11
-50.8421
 21
132.235
  0
LINE
  8
0
 10
-50.8421
 20
132.235
 11
-50.751
 21
132.713
  0
LINE
  8
0
 10
-50.751
 20
132.713
 11
-50.6007
 21
133.176
  0
LINE
  8
0
 10
-50.6007
 20
133.176
 11
-50.3936
 21
133.616
  0
LINE
  8
0
 10
-50.3936
 20
133.616
 11
-50.133
 21
134.026
  0
LINE
  8
0
 10
-50.133
 20
134.026
 11
-49.823
 21
134.401
  0
LINE
  8
0
 10
-49.823
 20
134.401
 11
-49.4685
 21
134.734
  0
LINE
  8
0
 10
-49.4685
 20
134.734
 11
-49.0751
 21
135.02
  0
LINE
  8
0
 10
-49.0751
 20
135.02
 11
-48.6489
 21
135.254
  0
LINE
  8
0
 10
-48.6489
 20
135.254
 11
-48.1967
 21
135.433
  0
LINE
  8
0
 10
-48.1967
 20
135.433
 11
-47.7256
 21
135.554
  0
LINE
  8
0
 10
-47.7256
 20
135.554
 11
-47.2432
 21
135.615
  0
LINE
  8
0
 10
-47.2432
 20
135.615
 11
47.2432
 21
135.615
  0
LINE
  8
0
 10
47.2432
 20
135.615
 11
47.7256
 21
135.554
  0
LINE
  8
0
 10
47.7256
 20
135.554
 11
48.1967
 21
135.433
  0
LINE
  8
0
 10
48.1967
 20
135.433
 11
48.6489
 21
135.254
  0
LINE
  8
0
 10
48.6489
 20
135.254
 11
49.0751
 21
135.02
  0
LINE
  8
0
 10
49.0751
 20
135.02
 11
49.4685
 21
134.734
  0
LINE
  8
0
 10
49.4685
 20
134.734
 11
49.823
 21
134.401
  0
LINE
  8
0
 10
49.823
 20
134.401
 11
50.133
 21
134.026
  0
LINE
  8
0
 10
50.133
 20
134.026
 11
50.3936
 21
133.616
  0
LINE
  8
0
 10
50.3936
 20
133.616
 11
50.6007
 21
133.176
  0
LINE
  8
0
 10
50.6007
 20
133.176
 11
50.751
 21
132.713
  0
LINE
  8
0
 10
50.751
 20
132.713
 11
50.8421
 21
132.235
  0
LINE
  8
0
 10
50.8421
 20
132.235
 11
50.8726
 21
131.75
  0
LINE
  8
0
 10
50.8726
 20
131.75
 11
50.8726
 21
120.25
  0
LINE
  8
0
 10
50.8726
 20
120.25
 11
50.8421
 21
119.765
  0
LINE
  8
0
 10
50.8421
 20
119.765
 11
50.751
 21
119.287
  0
LINE
  8
0
 10
50.751
 20
119.287
 11
50.6007
 21
118.824
  0
LINE
  8
0
 10
50.6007
 20
118.824
 11
50.3936
 21
118.384
  0
LINE
  8
0
 10
50.3936
 20
118.384
 11
50.133
 21
117.974
  0
LINE
  8
0
 10
50.133
 20
117.974
 11
49.823
 21
117.599
  0
LINE
  8
0
 10
49.823
 20
117.599
 11
49.4685
 21
117.266
  0
LINE
  8
0
 10
49.4685
 20
117.266
 11
49.0751
 21
116.98
  0
LINE
  8
0
 10
49.0751
 20
116.98
 11
48.6489
 21
116.746
  0
LINE
  8
0
 10
48.6489
 20
116.746
 11
48.1967
 21
116.567
  0
LINE
  8
0
 10
48.1967
 20
116.567
 11
47.7256
 21
116.446
  0
LINE
  8
0
 10
47.7256
 20
116.446
 11
47.2432
 21
116.385
  0
LINE
  8
0
 10
47.2432
 20
116.385
 11
-47.2432
 21
116.385
  0
LINE
  8
0
 10
48.4369
 20
83.3386
 11
49.0451
 21
83.4947
  0
LINE
  8
0
 10
49.0451
 20
83.4947
 11
49.6289
 21
83.7259
  0
LINE
  8
0
 10
49.6289
 20
83.7259
 11
50.1791
 21
84.0284
  0
LINE
  8
0
 10
50.1791
 20
84.0284
 11
50.6871
 21
84.3974
  0
LINE
  8
0
 10
50.6871
 20
84.3974
 11
51.1448
 21
84.8273
  0
LINE
  8
0
 10
51.1448
 20
84.8273
 11
51.5451
 21
85.3111
  0
LINE
  8
0
 10
51.5451
 20
85.3111
 11
51.8815
 21
85.8412
  0
LINE
  8
0
 10
51.8815
 20
85.8412
 11
52.1489
 21
86.4094
  0
LINE
  8
0
 10
52.1489
 20
86.4094
 11
52.3429
 21
87.0066
  0
LINE
  8
0
 10
52.3429
 20
87.0066
 11
52.4606
 21
87.6233
  0
LINE
  8
0
 10
52.4606
 20
87.6233
 11
52.5
 21
88.25
  0
LINE
  8
0
 10
52.5
 20
88.25
 11
52.5
 21
100.75
  0
LINE
  8
0
 10
52.5
 20
100.75
 11
52.4606
 21
101.377
  0
LINE
  8
0
 10
52.4606
 20
101.377
 11
52.3429
 21
101.993
  0
LINE
  8
0
 10
52.3429
 20
101.993
 11
52.1489
 21
102.591
  0
LINE
  8
0
 10
52.1489
 20
102.591
 11
51.8815
 21
103.159
  0
LINE
  8
0
 10
51.8815
 20
103.159
 11
51.5451
 21
103.689
  0
LINE
  8
0
 10
51.5451
 20
103.689
 11
51.1448
 21
104.173
  0
LINE
  8
0
 10
51.1448
 20
104.173
 11
50.6871
 21
104.603
  0
LINE
  8
0
 10
50.6871
 20
104.603
 11
50.1791
 21
104.972
  0
LINE
  8
0
 10
50.1791
 20
104.972
 11
49.6289
 21
105.274
  0
LINE
  8
0
 10
49.6289
 20
105.274
 11
49.0451
 21
105.505
  0
LINE
  8
0
 10
49.0451
 20
105.505
 11
48.4369
 21
105.661
  0
LINE
  8
0
 10
48.4369
 20
105.661
 11
47.8139
 21
105.74
  0
LINE
  8
0
 10
47.8139
 20
105.74
 11
-47.8139
 21
105.74
  0
LINE
  8
0
 10
-47.8139
 20
105.74
 11
-48.4369
 21
105.661
  0
LINE
  8
0
 10
-48.4369
 20
105.661
 11
-49.0451
 21
105.505
  0
LINE
  8
0
 10
-49.0451
 20
105.505
 11
-49.5
 21
105.325
  0
LINE
  8
0
 10
-49.5
 20
105.325
 11
-49.5
 21
105.365
  0
LINE
  8
0
 10
-49.5
 20
105.365
 11
-52.5
 21
105.365
  0
LINE
  8
0
 10
-52.5
 20
105.365
 11
-52.5
 21
83.6352
  0
LINE
  8
0
 10
-52.5
 20
83.6352
 11
-49.5
 21
83.6352
  0
LINE
  8
0
 10
-49.5
 20
83.6352
 11
-49.5
 21
83.6748
  0
LINE
  8
0
 10
-49.5
 20
83.6748
 11
-49.0451
 21
83.4947
  0
LINE
  8
0
 10
-49.0451
 20
83.4947
 11
-48.4369
 21
83.3386
  0
LINE
  8
0
 10
-48.4369
 20
83.3386
 11
-47.8139
 21
83.2599
  0
LINE
  8
0
 10
-47.8139
 20
83.2599
 11
47.8139
 21
83.2599
  0
LINE
  8
0
 10
47.8139
 20
83.2599
 11
48.4369
 21
83.3386
  0
LINE
  8
0
 10
-45.1507
 20
95.8547
 11
-45.4497
 21
95.8925
  0
LINE
  8
0
 10
-45.4497
 20
95.8925
 11
-45.7416
 21
95.9675
  0
LINE
  8
0
 10
-45.7416
 20
95.9675
 11
-46.0219
 21
96.0784
  0
LINE
  8
0
 10
-46.0219
 20
96.0784
 11
-46.286
 21
96.2236
  0
LINE
  8
0
 10
-46.286
 20
96.2236
 11
-46.5298
 21
96.4008
  0
LINE
  8
0
 10
-46.5298
 20
96.4008
 11
-46.7495
 21
96.6071
  0
LINE
  8
0
 10
-46.7495
 20
96.6071
 11
-46.9416
 21
96.8393
  0
LINE
  8
0
 10
-46.9416
 20
96.8393
 11
-47.1031
 21
97.0938
  0
LINE
  8
0
 10
-47.1031
 20
97.0938
 11
-47.2315
 21
97.3665
  0
LINE
  8
0
 10
-47.2315
 20
97.3665
 11
-47.3246
 21
97.6531
  0
LINE
  8
0
 10
-47.3246
 20
97.6531
 11
-47.3811
 21
97.9492
  0
LINE
  8
0
 10
-47.3811
 20
97.9492
 11
-47.4
 21
98.25
  0
LINE
  8
0
 10
-47.4
 20
98.25
 11
-47.3811
 21
98.5508
  0
LINE
  8
0
 10
-47.3811
 20
98.5508
 11
-47.3246
 21
98.8468
  0
LINE
  8
0
 10
-47.3246
 20
98.8468
 11
-47.2315
 21
99.1335
  0
LINE
  8
0
 10
-47.2315
 20
99.1335
 11
-47.1031
 21
99.4062
  0
LINE
  8
0
 10
-47.1031
 20
99.4062
 11
-46.9416
 21
99.6607
  0
LINE
  8
0
 10
-46.9416
 20
99.6607
 11
-46.7495
 21
99.8929
  0
LINE
  8
0
 10
-46.7495
 20
99.8929
 11
-46.5298
 21
100.099
  0
LINE
  8
0
 10
-46.5298
 20
100.099
 11
-46.286
 21
100.276
  0
LINE
  8
0
 10
-46.286
 20
100.276
 11
-46.0219
 21
100.422
  0
LINE
  8
0
 10
-46.0219
 20
100.422
 11
-45.7416
 21
100.533
  0
LINE
  8
0
 10
-45.7416
 20
100.533
 11
-45.4497
 21
100.607
  0
LINE
  8
0
 10
-45.4497
 20
100.607
 11
-45.1507
 21
100.645
  0
LINE
  8
0
 10
-45.1507
 20
100.645
 11
-44.8493
 21
100.645
  0
LINE
  8
0
 10
-44.8493
 20
100.645
 11
-44.5503
 21
100.607
  0
LINE
  8
0
 10
-44.5503
 20
100.607
 11
-44.2584
 21
100.533
  0
LINE
  8
0
 10
-44.2584
 20
100.533
 11
-43.9781
 21
100.422
  0
LINE
  8
0
 10
-43.9781
 20
100.422
 11
-43.714
 21
100.276
  0
LINE
  8
0
 10
-43.714
 20
100.276
 11
-43.4702
 21
100.099
  0
LINE
  8
0
 10
-43.4702
 20
100.099
 11
-43.2505
 21
99.8929
  0
LINE
  8
0
 10
-43.2505
 20
99.8929
 11
-43.0583
 21
99.6607
  0
LINE
  8
0
 10
-43.0583
 20
99.6607
 11
-42.8969
 21
99.4062
  0
LINE
  8
0
 10
-42.8969
 20
99.4062
 11
-42.7685
 21
99.1335
  0
LINE
  8
0
 10
-42.7685
 20
99.1335
 11
-42.6754
 21
98.8468
  0
LINE
  8
0
 10
-42.6754
 20
98.8468
 11
-42.6189
 21
98.5508
  0
LINE
  8
0
 10
-42.6189
 20
98.5508
 11
-42.6
 21
98.25
  0
LINE
  8
0
 10
-42.6
 20
98.25
 11
-42.6189
 21
97.9492
  0
LINE
  8
0
 10
-42.6189
 20
97.9492
 11
-42.6754
 21
97.6531
  0
LINE
  8
0
 10
-42.6754
 20
97.6531
 11
-42.7685
 21
97.3665
  0
LINE
  8
0
 10
-42.7685
 20
97.3665
 11
-42.8969
 21
97.0938
  0
LINE
  8
0
 10
-42.8969
 20
97.0938
 11
-43.0583
 21
96.8393
  0
LINE
  8
0
 10
-43.0583
 20
96.8393
 11
-43.2505
 21
96.6071
  0
LINE
  8
0
 10
-43.2505
 20
96.6071
 11
-43.4702
 21
96.4008
  0
LINE
  8
0
 10
-43.4702
 20
96.4008
 11
-43.714
 21
96.2236
  0
LINE
  8
0
 10
-43.714
 20
96.2236
 11
-43.9781
 21
96.0784
  0
LINE
  8
0
 10
-43.9781
 20
96.0784
 11
-44.2584
 21
95.9675
  0
LINE
  8
0
 10
-44.2584
 20
95.9675
 11
-44.5503
 21
95.8925
  0
LINE
  8
0
 10
-44.5503
 20
95.8925
 11
-44.8493
 21
95.8547
  0
LINE
  8
0
 10
-44.8493
 20
95.8547
 11
-45.1507
 21
95.8547
  0
LINE
  8
0
 10
44.8493
 20
95.8547
 11
44.5503
 21
95.8925
  0
LINE
  8
0
 10
44.5503
 20
95.8925
 11
44.2584
 21
95.9675
  0
LINE
  8
0
 10
44.2584
 20
95.9675
 11
43.9781
 21
96.0784
  0
LINE
  8
0
 10
43.9781
 20
96.0784
 11
43.714
 21
96.2236
  0
LINE
  8
0
 10
43.714
 20
96.2236
 11
43.4702
 21
96.4008
  0
LINE
  8
0
 10
43.4702
 20
96.4008
 11
43.2505
 21
96.6071
  0
LINE
  8
0
 10
43.2505
 20
96.6071
 11
43.0583
 21
96.8393
  0
LINE
  8
0
 10
43.0583
 20
96.8393
 11
42.8969
 21
97.0938
  0
LINE
  8
0
 10
42.8969
 20
97.0938
 11
42.7685
 21
97.3665
  0
LINE
  8
0
 10
42.7685
 20
97.3665
 11
42.6754
 21
97.6531
  0
LINE
  8
0
 10
42.6754
 20
97.6531
 11
42.6189
 21
97.9492
  0
LINE
  8
0
 10
42.6189
 20
97.9492
 11
42.6
 21
98.25
  0
LINE
  8
0
 10
42.6
 20
98.25
 11
42.6189
 21
98.5508
  0
LINE
  8
0
 10
42.6189
 20
98.5508
 11
42.6754
 21
98.8468
  0
LINE
  8
0
 10
42.6754
 20
98.8468
 11
42.7685
 21
99.1335
  0
LINE
  8
0
 10
42.7685
 20
99.1335
 11
42.8969
 21
99.4062
  0
LINE
  8
0
 10
42.8969
 20
99.4062
 11
43.0583
 21
99.6607
  0
LINE
  8
0
 10
43.0583
 20
99.6607
 11
43.2505
 21
99.8929
  0
LINE
  8
0
 10
43.2505
 20
99.8929
 11
43.4702
 21
100.099
  0
LINE
  8
0
 10
43.4702
 20
100.099
 11
43.714
 21
100.276
  0
LINE
  8
0
 10
43.714
 20
100.276
 11
43.9781
 21
100.422
  0
LINE
  8
0
 10
43.9781
 20
100.422
 11
44.2584
 21
100.533
  0
LINE
  8
0
 10
44.2584
 20
100.533
 11
44.5503
 21
100.607
  0
LINE
  8
0
 10
44.5503
 20
100.607
 11
44.8493
 21
100.645
  0
LINE
  8
0
 10
44.8493
 20
100.645
 11
45.1507
 21
100.645
  0
LINE
  8
0
 10
45.1507
 20
100.645
 11
45.4497
 21
100.607
  0
LINE
  8
0
 10
45.4497
 20
100.607
 11
45.7416
 21
100.533
  0
LINE
  8
0
 10
45.7416
 20
100.533
 11
46.0219
 21
100.422
  0
LINE
  8
0
 10
46.0219
 20
100.422
 11
46.286
 21
100.276
  0
LINE
  8
0
 10
46.286
 20
100.276
 11
46.5298
 21
100.099
  0
LINE
  8
0
 10
46.5298
 20
100.099
 11
46.7495
 21
99.8929
  0
LINE
  8
0
 10
46.7495
 20
99.8929
 11
46.9416
 21
99.6607
  0
LINE
  8
0
 10
46.9416
 20
99.6607
 11
47.1031
 21
99.4062
  0
LINE
  8
0
 10
47.1031
 20
99.4062
 11
47.2315
 21
99.1335
  0
LINE
  8
0
 10
47.2315
 20
99.1335
 11
47.3246
 21
98.8468
  0
LINE
  8
0
 10
47.3246
 20
98.8468
 11
47.3811
 21
98.5508
  0
LINE
  8
0
 10
47.3811
 20
98.5508
 11
47.4
 21
98.25
  0
LINE
  8
0
 10
47.4
 20
98.25
 11
47.3811
 21
97.9492
  0
LINE
  8
0
 10
47.3811
 20
97.9492
 11
47.3246
 21
97.6531
  0
LINE
  8
0
 10
47.3246
 20
97.6531
 11
47.2315
 21
97.3665
  0
LINE
  8
0
 10
47.2315
 20
97.3665
 11
47.1031
 21
97.0938
  0
LINE
  8
0
 10
47.1031
 20
97.0938
 11
46.9416
 21
96.8393
  0
LINE
  8
0
 10
46.9416
 20
96.8393
 11
46.7495
 21
96.6071
  0
LINE
  8
0
 10
46.7495
 20
96.6071
 11
46.5298
 21
96.4008
  0
LINE
  8
0
 10
46.5298
 20
96.4008
 11
46.286
 21
96.2236
  0
LINE
  8
0
 10
46.286
 20
96.2236
 11
46.0219
 21
96.0784
  0
LINE
  8
0
 10
46.0219
 20
96.0784
 11
45.7416
 21
95.9675
  0
LINE
  8
0
 10
45.7416
 20
95.9675
 11
45.4497
 21
95.8925
  0
LINE
  8
0
 10
45.4497
 20
95.8925
 11
45.1507
 21
95.8547
  0
LINE
  8
0
 10
45.1507
 20
95.8547
 11
44.8493
 21
95.8547
  0
LINE
  8
0
 10
44.8493
 20
88.3547
 11
44.5503
 21
88.3925
  0
LINE
  8
0
 10
44.5503
 20
88.3925
 11
44.2584
 21
88.4675
  0
LINE
  8
0
 10
44.2584
 20
88.4675
 11
43.9781
 21
88.5784
  0
LINE
  8
0
 10
43.9781
 20
88.5784
 11
43.714
 21
88.7236
  0
LINE
  8
0
 10
43.714
 20
88.7236
 11
43.4702
 21
88.9008
  0
LINE
  8
0
 10
43.4702
 20
88.9008
 11
43.2505
 21
89.1071
  0
LINE
  8
0
 10
43.2505
 20
89.1071
 11
43.0583
 21
89.3393
  0
LINE
  8
0
 10
43.0583
 20
89.3393
 11
42.8969
 21
89.5938
  0
LINE
  8
0
 10
42.8969
 20
89.5938
 11
42.7685
 21
89.8665
  0
LINE
  8
0
 10
42.7685
 20
89.8665
 11
42.6754
 21
90.1532
  0
LINE
  8
0
 10
42.6754
 20
90.1532
 11
42.6189
 21
90.4492
  0
LINE
  8
0
 10
42.6189
 20
90.4492
 11
42.6
 21
90.75
  0
LINE
  8
0
 10
42.6
 20
90.75
 11
42.6189
 21
91.0508
  0
LINE
  8
0
 10
42.6189
 20
91.0508
 11
42.6754
 21
91.3469
  0
LINE
  8
0
 10
42.6754
 20
91.3469
 11
42.7685
 21
91.6335
  0
LINE
  8
0
 10
42.7685
 20
91.6335
 11
42.8969
 21
91.9062
  0
LINE
  8
0
 10
42.8969
 20
91.9062
 11
43.0583
 21
92.1607
  0
LINE
  8
0
 10
43.0583
 20
92.1607
 11
43.2505
 21
92.3929
  0
LINE
  8
0
 10
43.2505
 20
92.3929
 11
43.4702
 21
92.5992
  0
LINE
  8
0
 10
43.4702
 20
92.5992
 11
43.714
 21
92.7764
  0
LINE
  8
0
 10
43.714
 20
92.7764
 11
43.9781
 21
92.9216
  0
LINE
  8
0
 10
43.9781
 20
92.9216
 11
44.2584
 21
93.0325
  0
LINE
  8
0
 10
44.2584
 20
93.0325
 11
44.5503
 21
93.1075
  0
LINE
  8
0
 10
44.5503
 20
93.1075
 11
44.8493
 21
93.1453
  0
LINE
  8
0
 10
44.8493
 20
93.1453
 11
45.1507
 21
93.1453
  0
LINE
  8
0
 10
45.1507
 20
93.1453
 11
45.4497
 21
93.1075
  0
LINE
  8
0
 10
45.4497
 20
93.1075
 11
45.7416
 21
93.0325
  0
LINE
  8
0
 10
45.7416
 20
93.0325
 11
46.0219
 21
92.9216
  0
LINE
  8
0
 10
46.0219
 20
92.9216
 11
46.286
 21
92.7764
  0
LINE
  8
0
 10
46.286
 20
92.7764
 11
46.5298
 21
92.5992
  0
LINE
  8
0
 10
46.5298
 20
92.5992
 11
46.7495
 21
92.3929
  0
LINE
  8
0
 10
46.7495
 20
92.3929
 11
46.9416
 21
92.1607
  0
LINE
  8
0
 10
46.9416
 20
92.1607
 11
47.1031
 21
91.9062
  0
LINE
  8
0
 10
47.1031
 20
91.9062
 11
47.2315
 21
91.6335
  0
LINE
  8
0
 10
47.2315
 20
91.6335
 11
47.3246
 21
91.3469
  0
LINE
  8
0
 10
47.3246
 20
91.3469
 11
47.3811
 21
91.0508
  0
LINE
  8
0
 10
47.3811
 20
91.0508
 11
47.4
 21
90.75
  0
LINE
  8
0
 10
47.4
 20
90.75
 11
47.3811
 21
90.4492
  0
LINE
  8
0
 10
47.3811
 20
90.4492
 11
47.3246
 21
90.1532
  0
LINE
  8
0
 10
47.3246
 20
90.1532
 11
47.2315
 21
89.8665
  0
LINE
  8
0
 10
47.2315
 20
89.8665
 11
47.1031
 21
89.5938
  0
LINE
  8
0
 10
47.1031
 20
89.5938
 11
46.9416
 21
89.3393
  0
LINE
  8
0
 10
46.9416
 20
89.3393
 11
46.7495
 21
89.1071
  0
LINE
  8
0
 10
46.7495
 20
89.1071
 11
46.5298
 21
88.9008
  0
LINE
  8
0
 10
46.5298
 20
88.9008
 11
46.286
 21
88.7236
  0
LINE
  8
0
 10
46.286
 20
88.7236
 11
46.0219
 21
88.5784
  0
LINE
  8
0
 10
46.0219
 20
88.5784
 11
45.7416
 21
88.4675
  0
LINE
  8
0
 10
45.7416
 20
88.4675
 11
45.4497
 21
88.3925
  0
LINE
  8
0
 10
45.4497
 20
88.3925
 11
45.1507
 21
88.3547
  0
LINE
  8
0
 10
45.1507
 20
88.3547
 11
44.8493
 21
88.3547
  0
LINE
  8
0
 10
-45.1507
 20
88.3547
 11
-45.4497
 21
88.3925
  0
LINE
  8
0
 10
-45.4497
 20
88.3925
 11
-45.7416
 21
88.4675
  0
LINE
  8
0
 10
-45.7416
 20
88.4675
 11
-46.0219
 21
88.5784
  0
LINE
  8
0
 10
-46.0219
 20
88.5784
 11
-46.286
 21
88.7236
  0
LINE
  8
0
 10
-46.286
 20
88.7236
 11
-46.5298
 21
88.9008
  0
LINE
  8
0
 10
-46.5298
 20
88.9008
 11
-46.7495
 21
89.1071
  0
LINE
  8
0
 10
-46.7495
 20
89.1071
 11
-46.9416
 21
89.3393
  0
LINE
  8
0
 10
-46.9416
 20
89.3393
 11
-47.1031
 21
89.5938
  0
LINE
  8
0
 10
-47.1031
 20
89.5938
 11
-47.2315
 21
89.8665
  0
LINE
  8
0
 10
-47.2315
 20
89.8665
 11
-47.3246
 21
90.1532
  0
LINE
  8
0
 10
-47.3246
 20
90.1532
 11
-47.3811
 21
90.4492
  0
LINE
  8
0
 10
-47.3811
 20
90.4492
 11
-47.4
 21
90.75
  0
LINE
  8
0
 10
-47.4
 20
90.75
 11
-47.3811
 21
91.0508
  0
LINE
  8
0
 10
-47.3811
 20
91.0508
 11
-47.3246
 21
91.3469
  0
LINE
  8
0
 10
-47.3246
 20
91.3469
 11
-47.2315
 21
91.6335
  0
LINE
  8
0
 10
-47.2315
 20
91.6335
 11
-47.1031
 21
91.9062
  0
LINE
  8
0
 10
-47.1031
 20
91.9062
 11
-46.9416
 21
92.1607
  0
LINE
  8
0
 10
-46.9416
 20
92.1607
 11
-46.7495
 21
92.3929
  0
LINE
  8
0
 10
-46.7495
 20
92.3929
 11
-46.5298
 21
92.5992
  0
LINE
  8
0
 10
-46.5298
 20
92.5992
 11
-46.286
 21
92.7764
  0
LINE
  8
0
 10
-46.286
 20
92.7764
 11
-46.0219
 21
92.9216
  0
LINE
  8
0
 10
-46.0219
 20
92.9216
 11
-45.7416
 21
93.0325
  0
LINE
  8
0
 10
-45.7416
 20
93.0325
 11
-45.4497
 21
93.1075
  0
LINE
  8
0
 10
-45.4497
 20
93.1075
 11
-45.1507
 21
93.1453
  0
LINE
  8
0
 10
-45.1507
 20
93.1453
 11
-44.8493
 21
93.1453
  0
LINE
  8
0
 10
-44.8493
 20
93.1453
 11
-44.5503
 21
93.1075
  0
LINE
  8
0
 10
-44.5503
 20
93.1075
 11
-44.2584
 21
93.0325
  0
LINE
  8
0
 10
-44.2584
 20
93.0325
 11
-43.9781
 21
92.9216
  0
LINE
  8
0
 10
-43.9781
 20
92.9216
 11
-43.714
 21
92.7764
  0
LINE
  8
0
 10
-43.714
 20
92.7764
 11
-43.4702
 21
92.5992
  0
LINE
  8
0
 10
-43.4702
 20
92.5992
 11
-43.2505
 21
92.3929
  0
LINE
  8
0
 10
-43.2505
 20
92.3929
 11
-43.0583
 21
92.1607
  0
LINE
  8
0
 10
-43.0583
 20
92.1607
 11
-42.8969
 21
91.9062
  0
LINE
  8
0
 10
-42.8969
 20
91.9062
 11
-42.7685
 21
91.6335
  0
LINE
  8
0
 10
-42.7685
 20
91.6335
 11
-42.6754
 21
91.3469
  0
LINE
  8
0
 10
-42.6754
 20
91.3469
 11
-42.6189
 21
91.0508
  0
LINE
  8
0
 10
-42.6189
 20
91.0508
 11
-42.6
 21
90.75
  0
LINE
  8
0
 10
-42.6
 20
90.75
 11
-42.6189
 21
90.4492
  0
LINE
  8
0
 10
-42.6189
 20
90.4492
 11
-42.6754
 21
90.1532
  0
LINE
  8
0
 10
-42.6754
 20
90.1532
 11
-42.7685
 21
89.8665
  0
LINE
  8
0
 10
-42.7685
 20
89.8665
 11
-42.8969
 21
89.5938
  0
LINE
  8
0
 10
-42.8969
 20
89.5938
 11
-43.0583
 21
89.3393
  0
LINE
  8
0
 10
-43.0583
 20
89.3393
 11
-43.2505
 21
89.1071
  0
LINE
  8
0
 10
-43.2505
 20
89.1071
 11
-43.4702
 21
88.9008
  0
LINE
  8
0
 10
-43.4702
 20
88.9008
 11
-43.714
 21
88.7236
  0
LINE
  8
0
 10
-43.714
 20
88.7236
 11
-43.9781
 21
88.5784
  0
LINE
  8
0
 10
-43.9781
 20
88.5784
 11
-44.2584
 21
88.4675
  0
LINE
  8
0
 10
-44.2584
 20
88.4675
 11
-44.5503
 21
88.3925
  0
LINE
  8
0
 10
-44.5503
 20
88.3925
 11
-44.8493
 21
88.3547
  0
LINE
  8
0
 10
-44.8493
 20
88.3547
 11
-45.1507
 21
88.3547
  0
LINE
  8
0
 10
48.4369
 20
51.8386
 11
49.0451
 21
51.9947
  0
LINE
  8
0
 10
49.0451
 20
51.9947
 11
49.6289
 21
52.2259
  0
LINE
  8
0
 10
49.6289
 20
52.2259
 11
50.1791
 21
52.5284
  0
LINE
  8
0
 10
50.1791
 20
52.5284
 11
50.6871
 21
52.8974
  0
LINE
  8
0
 10
50.6871
 20
52.8974
 11
51.1448
 21
53.3273
  0
LINE
  8
0
 10
51.1448
 20
53.3273
 11
51.5451
 21
53.8111
  0
LINE
  8
0
 10
51.5451
 20
53.8111
 11
51.8815
 21
54.3412
  0
LINE
  8
0
 10
51.8815
 20
54.3412
 11
52.1489
 21
54.9094
  0
LINE
  8
0
 10
52.1489
 20
54.9094
 11
52.3429
 21
55.5066
  0
LINE
  8
0
 10
52.3429
 20
55.5066
 11
52.4606
 21
56.1233
  0
LINE
  8
0
 10
52.4606
 20
56.1233
 11
52.5
 21
56.75
  0
LINE
  8
0
 10
52.5
 20
56.75
 11
52.5
 21
69.25
  0
LINE
  8
0
 10
52.5
 20
69.25
 11
52.4606
 21
69.8767
  0
LINE
  8
0
 10
52.4606
 20
69.8767
 11
52.3429
 21
70.4934
  0
LINE
  8
0
 10
52.3429
 20
70.4934
 11
52.1489
 21
71.0906
  0
LINE
  8
0
 10
52.1489
 20
71.0906
 11
51.8815
 21
71.6588
  0
LINE
  8
0
 10
51.8815
 20
71.6588
 11
51.5451
 21
72.1889
  0
LINE
  8
0
 10
51.5451
 20
72.1889
 11
51.1448
 21
72.6727
  0
LINE
  8
0
 10
51.1448
 20
72.6727
 11
50.6871
 21
73.1026
  0
LINE
  8
0
 10
50.6871
 20
73.1026
 11
50.1791
 21
73.4716
  0
LINE
  8
0
 10
50.1791
 20
73.4716
 11
49.6289
 21
73.7741
  0
LINE
  8
0
 10
49.6289
 20
73.7741
 11
49.0451
 21
74.0053
  0
LINE
  8
0
 10
49.0451
 20
74.0053
 11
48.4369
 21
74.1614
  0
LINE
  8
0
 10
48.4369
 20
74.1614
 11
47.8139
 21
74.2401
  0
LINE
  8
0
 10
47.8139
 20
74.2401
 11
-47.8139
 21
74.2401
  0
LINE
  8
0
 10
-47.8139
 20
74.2401
 11
-48.4369
 21
74.1614
  0
LINE
  8
0
 10
-48.4369
 20
74.1614
 11
-49.0451
 21
74.0053
  0
LINE
  8
0
 10
-49.0451
 20
74.0053
 11
-49.6289
 21
73.7741
  0
LINE
  8
0
 10
-49.6289
 20
73.7741
 11
-50.1791
 21
73.4716
  0
LINE
  8
0
 10
-50.1791
 20
73.4716
 11
-50.6871
 21
73.1026
  0
LINE
  8
0
 10
-50.6871
 20
73.1026
 11
-51.1448
 21
72.6727
  0
LINE
  8
0
 10
-51.1448
 20
72.6727
 11
-51.5451
 21
72.1889
  0
LINE
  8
0
 10
-51.5451
 20
72.1889
 11
-51.8815
 21
71.6588
  0
LINE
  8
0
 10
-51.8815
 20
71.6588
 11
-52.1489
 21
71.0906
  0
LINE
  8
0
 10
-52.1489
 20
71.0906
 11
-52.3429
 21
70.4934
  0
LINE
  8
0
 10
-52.3429
 20
70.4934
 11
-52.4
 21
70.1942
  0
LINE
  8
0
 10
-52.4
 20
70.1942
 11
-52.5
 21
70.1942
  0
LINE
  8
0
 10
-52.5
 20
70.1942
 11
-52.5
 21
55.8058
  0
LINE
  8
0
 10
-52.5
 20
55.8058
 11
-52.4
 21
55.8058
  0
LINE
  8
0
 10
-52.4
 20
55.8058
 11
-52.3429
 21
55.5066
  0
LINE
  8
0
 10
-52.3429
 20
55.5066
 11
-52.1489
 21
54.9094
  0
LINE
  8
0
 10
-52.1489
 20
54.9094
 11
-51.8815
 21
54.3412
  0
LINE
  8
0
 10
-51.8815
 20
54.3412
 11
-51.5451
 21
53.8111
  0
LINE
  8
0
 10
-51.5451
 20
53.8111
 11
-51.1448
 21
53.3273
  0
LINE
  8
0
 10
-51.1448
 20
53.3273
 11
-50.6871
 21
52.8974
  0
LINE
  8
0
 10
-50.6871
 20
52.8974
 11
-50.1791
 21
52.5284
  0
LINE
  8
0
 10
-50.1791
 20
52.5284
 11
-49.6289
 21
52.2259
  0
LINE
  8
0
 10
-49.6289
 20
52.2259
 11
-49.0451
 21
51.9947
  0
LINE
  8
0
 10
-49.0451
 20
51.9947
 11
-48.4369
 21
51.8386
  0
LINE
  8
0
 10
-48.4369
 20
51.8386
 11
-47.8139
 21
51.7599
  0
LINE
  8
0
 10
-47.8139
 20
51.7599
 11
47.8139
 21
51.7599
  0
LINE
  8
0
 10
47.8139
 20
51.7599
 11
48.4369
 21
51.8386
  0
LINE
  8
0
 10
44.887
 20
64.9536
 11
44.6627
 21
64.9819
  0
LINE
  8
0
 10
44.6627
 20
64.9819
 11
44.4438
 21
65.0381
  0
LINE
  8
0
 10
44.4438
 20
65.0381
 11
44.2336
 21
65.1213
  0
LINE
  8
0
 10
44.2336
 20
65.1213
 11
44.0355
 21
65.2302
  0
LINE
  8
0
 10
44.0355
 20
65.2302
 11
43.8526
 21
65.3631
  0
LINE
  8
0
 10
43.8526
 20
65.3631
 11
43.6879
 21
65.5178
  0
LINE
  8
0
 10
43.6879
 20
65.5178
 11
43.5438
 21
65.692
  0
LINE
  8
0
 10
43.5438
 20
65.692
 11
43.4226
 21
65.8828
  0
LINE
  8
0
 10
43.4226
 20
65.8828
 11
43.3264
 21
66.0874
  0
LINE
  8
0
 10
43.3264
 20
66.0874
 11
43.2565
 21
66.3024
  0
LINE
  8
0
 10
43.2565
 20
66.3024
 11
43.2142
 21
66.5244
  0
LINE
  8
0
 10
43.2142
 20
66.5244
 11
43.2
 21
66.75
  0
LINE
  8
0
 10
43.2
 20
66.75
 11
43.2142
 21
66.9756
  0
LINE
  8
0
 10
43.2142
 20
66.9756
 11
43.2565
 21
67.1976
  0
LINE
  8
0
 10
43.2565
 20
67.1976
 11
43.3264
 21
67.4126
  0
LINE
  8
0
 10
43.3264
 20
67.4126
 11
43.4226
 21
67.6171
  0
LINE
  8
0
 10
43.4226
 20
67.6171
 11
43.5438
 21
67.808
  0
LINE
  8
0
 10
43.5438
 20
67.808
 11
43.6879
 21
67.9822
  0
LINE
  8
0
 10
43.6879
 20
67.9822
 11
43.8526
 21
68.1369
  0
LINE
  8
0
 10
43.8526
 20
68.1369
 11
44.0355
 21
68.2698
  0
LINE
  8
0
 10
44.0355
 20
68.2698
 11
44.2336
 21
68.3787
  0
LINE
  8
0
 10
44.2336
 20
68.3787
 11
44.4438
 21
68.4619
  0
LINE
  8
0
 10
44.4438
 20
68.4619
 11
44.6627
 21
68.5181
  0
LINE
  8
0
 10
44.6627
 20
68.5181
 11
44.887
 21
68.5464
  0
LINE
  8
0
 10
44.887
 20
68.5464
 11
45.113
 21
68.5464
  0
LINE
  8
0
 10
45.113
 20
68.5464
 11
45.3373
 21
68.5181
  0
LINE
  8
0
 10
45.3373
 20
68.5181
 11
45.5562
 21
68.4619
  0
LINE
  8
0
 10
45.5562
 20
68.4619
 11
45.7664
 21
68.3787
  0
LINE
  8
0
 10
45.7664
 20
68.3787
 11
45.9645
 21
68.2698
  0
LINE
  8
0
 10
45.9645
 20
68.2698
 11
46.1474
 21
68.1369
  0
LINE
  8
0
 10
46.1474
 20
68.1369
 11
46.3121
 21
67.9822
  0
LINE
  8
0
 10
46.3121
 20
67.9822
 11
46.4562
 21
67.808
  0
LINE
  8
0
 10
46.4562
 20
67.808
 11
46.5773
 21
67.6171
  0
LINE
  8
0
 10
46.5773
 20
67.6171
 11
46.6736
 21
67.4126
  0
LINE
  8
0
 10
46.6736
 20
67.4126
 11
46.7434
 21
67.1976
  0
LINE
  8
0
 10
46.7434
 20
67.1976
 11
46.7858
 21
66.9756
  0
LINE
  8
0
 10
46.7858
 20
66.9756
 11
46.8
 21
66.75
  0
LINE
  8
0
 10
46.8
 20
66.75
 11
46.7858
 21
66.5244
  0
LINE
  8
0
 10
46.7858
 20
66.5244
 11
46.7434
 21
66.3024
  0
LINE
  8
0
 10
46.7434
 20
66.3024
 11
46.6736
 21
66.0874
  0
LINE
  8
0
 10
46.6736
 20
66.0874
 11
46.5773
 21
65.8828
  0
LINE
  8
0
 10
46.5773
 20
65.8828
 11
46.4562
 21
65.692
  0
LINE
  8
0
 10
46.4562
 20
65.692
 11
46.3121
 21
65.5178
  0
LINE
  8
0
 10
46.3121
 20
65.5178
 11
46.1474
 21
65.3631
  0
LINE
  8
0
 10
46.1474
 20
65.3631
 11
45.9645
 21
65.2302
  0
LINE
  8
0
 10
45.9645
 20
65.2302
 11
45.7664
 21
65.1213
  0
LINE
  8
0
 10
45.7664
 20
65.1213
 11
45.5562
 21
65.0381
  0
LINE
  8
0
 10
45.5562
 20
65.0381
 11
45.3373
 21
64.9819
  0
LINE
  8
0
 10
45.3373
 20
64.9819
 11
45.113
 21
64.9536
  0
LINE
  8
0
 10
45.113
 20
64.9536
 11
44.887
 21
64.9536
  0
LINE
  8
0
 10
-45.113
 20
64.9536
 11
-45.3373
 21
64.9819
  0
LINE
  8
0
 10
-45.3373
 20
64.9819
 11
-45.5562
 21
65.0381
  0
LINE
  8
0
 10
-45.5562
 20
65.0381
 11
-45.7664
 21
65.1213
  0
LINE
  8
0
 10
-45.7664
 20
65.1213
 11
-45.9645
 21
65.2302
  0
LINE
  8
0
 10
-45.9645
 20
65.2302
 11
-46.1474
 21
65.3631
  0
LINE
  8
0
 10
-46.1474
 20
65.3631
 11
-46.3121
 21
65.5178
  0
LINE
  8
0
 10
-46.3121
 20
65.5178
 11
-46.4562
 21
65.692
  0
LINE
  8
0
 10
-46.4562
 20
65.692
 11
-46.5773
 21
65.8828
  0
LINE
  8
0
 10
-46.5773
 20
65.8828
 11
-46.6736
 21
66.0874
  0
LINE
  8
0
 10
-46.6736
 20
66.0874
 11
-46.7434
 21
66.3024
  0
LINE
  8
0
 10
-46.7434
 20
66.3024
 11
-46.7858
 21
66.5244
  0
LINE
  8
0
 10
-46.7858
 20
66.5244
 11
-46.8
 21
66.75
  0
LINE
  8
0
 10
-46.8
 20
66.75
 11
-46.7858
 21
66.9756
  0
LINE
  8
0
 10
-46.7858
 20
66.9756
 11
-46.7434
 21
67.1976
  0
LINE
  8
0
 10
-46.7434
 20
67.1976
 11
-46.6736
 21
67.4126
  0
LINE
  8
0
 10
-46.6736
 20
67.4126
 11
-46.5773
 21
67.6171
  0
LINE
  8
0
 10
-46.5773
 20
67.6171
 11
-46.4562
 21
67.808
  0
LINE
  8
0
 10
-46.4562
 20
67.808
 11
-46.3121
 21
67.9822
  0
LINE
  8
0
 10
-46.3121
 20
67.9822
 11
-46.1474
 21
68.1369
  0
LINE
  8
0
 10
-46.1474
 20
68.1369
 11
-45.9645
 21
68.2698
  0
LINE
  8
0
 10
-45.9645
 20
68.2698
 11
-45.7664
 21
68.3787
  0
LINE
  8
0
 10
-45.7664
 20
68.3787
 11
-45.5562
 21
68.4619
  0
LINE
  8
0
 10
-45.5562
 20
68.4619
 11
-45.3373
 21
68.5181
  0
LINE
  8
0
 10
-45.3373
 20
68.5181
 11
-45.113
 21
68.5464
  0
LINE
  8
0
 10
-45.113
 20
68.5464
 11
-44.887
 21
68.5464
  0
LINE
  8
0
 10
-44.887
 20
68.5464
 11
-44.6627
 21
68.5181
  0
LINE
  8
0
 10
-44.6627
 20
68.5181
 11
-44.4438
 21
68.4619
  0
LINE
  8
0
 10
-44.4438
 20
68.4619
 11
-44.2336
 21
68.3787
  0
LINE
  8
0
 10
-44.2336
 20
68.3787
 11
-44.0355
 21
68.2698
  0
LINE
  8
0
 10
-44.0355
 20
68.2698
 11
-43.8526
 21
68.1369
  0
LINE
  8
0
 10
-43.8526
 20
68.1369
 11
-43.6879
 21
67.9822
  0
LINE
  8
0
 10
-43.6879
 20
67.9822
 11
-43.5438
 21
67.808
  0
LINE
  8
0
 10
-43.5438
 20
67.808
 11
-43.4226
 21
67.6171
  0
LINE
  8
0
 10
-43.4226
 20
67.6171
 11
-43.3264
 21
67.4126
  0
LINE
  8
0
 10
-43.3264
 20
67.4126
 11
-43.2565
 21
67.1976
  0
LINE
  8
0
 10
-43.2565
 20
67.1976
 11
-43.2142
 21
66.9756
  0
LINE
  8
0
 10
-43.2142
 20
66.9756
 11
-43.2
 21
66.75
  0
LINE
  8
0
 10
-43.2
 20
66.75
 11
-43.2142
 21
66.5244
  0
LINE
  8
0
 10
-43.2142
 20
66.5244
 11
-43.2565
 21
66.3024
  0
LINE
  8
0
 10
-43.2565
 20
66.3024
 11
-43.3264
 21
66.0874
  0
LINE
  8
0
 10
-43.3264
 20
66.0874
 11
-43.4226
 21
65.8828
  0
LINE
  8
0
 10
-43.4226
 20
65.8828
 11
-43.5438
 21
65.692
  0
LINE
  8
0
 10
-43.5438
 20
65.692
 11
-43.6879
 21
65.5178
  0
LINE
  8
0
 10
-43.6879
 20
65.5178
 11
-43.8526
 21
65.3631
  0
LINE
  8
0
 10
-43.8526
 20
65.3631
 11
-44.0355
 21
65.2302
  0
LINE
  8
0
 10
-44.0355
 20
65.2302
 11
-44.2336
 21
65.1213
  0
LINE
  8
0
 10
-44.2336
 20
65.1213
 11
-44.4438
 21
65.0381
  0
LINE
  8
0
 10
-44.4438
 20
65.0381
 11
-44.6627
 21
64.9819
  0
LINE
  8
0
 10
-44.6627
 20
64.9819
 11
-44.887
 21
64.9536
  0
LINE
  8
0
 10
-44.887
 20
64.9536
 11
-45.113
 21
64.9536
  0
LINE
  8
0
 10
-45.113
 20
57.4536
 11
-45.3373
 21
57.4819
  0
LINE
  8
0
 10
-45.3373
 20
57.4819
 11
-45.5562
 21
57.5381
  0
LINE
  8
0
 10
-45.5562
 20
57.5381
 11
-45.7664
 21
57.6213
  0
LINE
  8
0
 10
-45.7664
 20
57.6213
 11
-45.9645
 21
57.7302
  0
LINE
  8
0
 10
-45.9645
 20
57.7302
 11
-46.1474
 21
57.8631
  0
LINE
  8
0
 10
-46.1474
 20
57.8631
 11
-46.3121
 21
58.0178
  0
LINE
  8
0
 10
-46.3121
 20
58.0178
 11
-46.4562
 21
58.192
  0
LINE
  8
0
 10
-46.4562
 20
58.192
 11
-46.5773
 21
58.3829
  0
LINE
  8
0
 10
-46.5773
 20
58.3829
 11
-46.6736
 21
58.5874
  0
LINE
  8
0
 10
-46.6736
 20
58.5874
 11
-46.7434
 21
58.8024
  0
LINE
  8
0
 10
-46.7434
 20
58.8024
 11
-46.7858
 21
59.0244
  0
LINE
  8
0
 10
-46.7858
 20
59.0244
 11
-46.8
 21
59.25
  0
LINE
  8
0
 10
-46.8
 20
59.25
 11
-46.7858
 21
59.4756
  0
LINE
  8
0
 10
-46.7858
 20
59.4756
 11
-46.7434
 21
59.6976
  0
LINE
  8
0
 10
-46.7434
 20
59.6976
 11
-46.6736
 21
59.9126
  0
LINE
  8
0
 10
-46.6736
 20
59.9126
 11
-46.5773
 21
60.1172
  0
LINE
  8
0
 10
-46.5773
 20
60.1172
 11
-46.4562
 21
60.308
  0
LINE
  8
0
 10
-46.4562
 20
60.308
 11
-46.3121
 21
60.4822
  0
LINE
  8
0
 10
-46.3121
 20
60.4822
 11
-46.1474
 21
60.6369
  0
LINE
  8
0
 10
-46.1474
 20
60.6369
 11
-45.9645
 21
60.7698
  0
LINE
  8
0
 10
-45.9645
 20
60.7698
 11
-45.7664
 21
60.8787
  0
LINE
  8
0
 10
-45.7664
 20
60.8787
 11
-45.5562
 21
60.9619
  0
LINE
  8
0
 10
-45.5562
 20
60.9619
 11
-45.3373
 21
61.0181
  0
LINE
  8
0
 10
-45.3373
 20
61.0181
 11
-45.113
 21
61.0464
  0
LINE
  8
0
 10
-45.113
 20
61.0464
 11
-44.887
 21
61.0464
  0
LINE
  8
0
 10
-44.887
 20
61.0464
 11
-44.6627
 21
61.0181
  0
LINE
  8
0
 10
-44.6627
 20
61.0181
 11
-44.4438
 21
60.9619
  0
LINE
  8
0
 10
-44.4438
 20
60.9619
 11
-44.2336
 21
60.8787
  0
LINE
  8
0
 10
-44.2336
 20
60.8787
 11
-44.0355
 21
60.7698
  0
LINE
  8
0
 10
-44.0355
 20
60.7698
 11
-43.8526
 21
60.6369
  0
LINE
  8
0
 10
-43.8526
 20
60.6369
 11
-43.6879
 21
60.4822
  0
LINE
  8
0
 10
-43.6879
 20
60.4822
 11
-43.5438
 21
60.308
  0
LINE
  8
0
 10
-43.5438
 20
60.308
 11
-43.4226
 21
60.1172
  0
LINE
  8
0
 10
-43.4226
 20
60.1172
 11
-43.3264
 21
59.9126
  0
LINE
  8
0
 10
-43.3264
 20
59.9126
 11
-43.2565
 21
59.6976
  0
LINE
  8
0
 10
-43.2565
 20
59.6976
 11
-43.2142
 21
59.4756
  0
LINE
  8
0
 10
-43.2142
 20
59.4756
 11
-43.2
 21
59.25
  0
LINE
  8
0
 10
-43.2
 20
59.25
 11
-43.2142
 21
59.0244
  0
LINE
  8
0
 10
-43.2142
 20
59.0244
 11
-43.2565
 21
58.8024
  0
LINE
  8
0
 10
-43.2565
 20
58.8024
 11
-43.3264
 21
58.5874
  0
LINE
  8
0
 10
-43.3264
 20
58.5874
 11
-43.4226
 21
58.3829
  0
LINE
  8
0
 10
-43.4226
 20
58.3829
 11
-43.5438
 21
58.192
  0
LINE
  8
0
 10
-43.5438
 20
58.192
 11
-43.6879
 21
58.0178
  0
LINE
  8
0
 10
-43.6879
 20
58.0178
 11
-43.8526
 21
57.8631
  0
LINE
  8
0
 10
-43.8526
 20
57.8631
 11
-44.0355
 21
57.7302
  0
LINE
  8
0
 10
-44.0355
 20
57.7302
 11
-44.2336
 21
57.6213
  0
LINE
  8
0
 10
-44.2336
 20
57.6213
 11
-44.4438
 21
57.5381
  0
LINE
  8
0
 10
-44.4438
 20
57.5381
 11
-44.6627
 21
57.4819
  0
LINE
  8
0
 10
-44.6627
 20
57.4819
 11
-44.887
 21
57.4536
  0
LINE
  8
0
 10
-44.887
 20
57.4536
 11
-45.113
 21
57.4536
  0
LINE
  8
0
 10
44.887
 20
57.4536
 11
44.6627
 21
57.4819
  0
LINE
  8
0
 10
44.6627
 20
57.4819
 11
44.4438
 21
57.5381
  0
LINE
  8
0
 10
44.4438
 20
57.5381
 11
44.2336
 21
57.6213
  0
LINE
  8
0
 10
44.2336
 20
57.6213
 11
44.0355
 21
57.7302
  0
LINE
  8
0
 10
44.0355
 20
57.7302
 11
43.8526
 21
57.8631
  0
LINE
  8
0
 10
43.8526
 20
57.8631
 11
43.6879
 21
58.0178
  0
LINE
  8
0
 10
43.6879
 20
58.0178
 11
43.5438
 21
58.192
  0
LINE
  8
0
 10
43.5438
 20
58.192
 11
43.4226
 21
58.3829
  0
LINE
  8
0
 10
43.4226
 20
58.3829
 11
43.3264
 21
58.5874
  0
LINE
  8
0
 10
43.3264
 20
58.5874
 11
43.2565
 21
58.8024
  0
LINE
  8
0
 10
43.2565
 20
58.8024
 11
43.2142
 21
59.0244
  0
LINE
  8
0
 10
43.2142
 20
59.0244
 11
43.2
 21
59.25
  0
LINE
  8
0
 10
43.2
 20
59.25
 11
43.2142
 21
59.4756
  0
LINE
  8
0
 10
43.2142
 20
59.4756
 11
43.2565
 21
59.6976
  0
LINE
  8
0
 10
43.2565
 20
59.6976
 11
43.3264
 21
59.9126
  0
LINE
  8
0
 10
43.3264
 20
59.9126
 11
43.4226
 21
60.1172
  0
LINE
  8
0
 10
43.4226
 20
60.1172
 11
43.5438
 21
60.308
  0
LINE
  8
0
 10
43.5438
 20
60.308
 11
43.6879
 21
60.4822
  0
LINE
  8
0
 10
43.6879
 20
60.4822
 11
43.8526
 21
60.6369
  0
LINE
  8
0
 10
43.8526
 20
60.6369
 11
44.0355
 21
60.7698
  0
LINE
  8
0
 10
44.0355
 20
60.7698
 11
44.2336
 21
60.8787
  0
LINE
  8
0
 10
44.2336
 20
60.8787
 11
44.4438
 21
60.9619
  0
LINE
  8
0
 10
44.4438
 20
60.9619
 11
44.6627
 21
61.0181
  0
LINE
  8
0
 10
44.6627
 20
61.0181
 11
44.887
 21
61.0464
  0
LINE
  8
0
 10
44.887
 20
61.0464
 11
45.113
 21
61.0464
  0
LINE
  8
0
 10
45.113
 20
61.0464
 11
45.3373
 21
61.0181
  0
LINE
  8
0
 10
45.3373
 20
61.0181
 11
45.5562
 21
60.9619
  0
LINE
  8
0
 10
45.5562
 20
60.9619
 11
45.7664
 21
60.8787
  0
LINE
  8
0
 10
45.7664
 20
60.8787
 11
45.9645
 21
60.7698
  0
LINE
  8
0
 10
45.9645
 20
60.7698
 11
46.1474
 21
60.6369
  0
LINE
  8
0
 10
46.1474
 20
60.6369
 11
46.3121
 21
60.4822
  0
LINE
  8
0
 10
46.3121
 20
60.4822
 11
46.4562
 21
60.308
  0
LINE
  8
0
 10
46.4562
 20
60.308
 11
46.5773
 21
60.1172
  0
LINE
  8
0
 10
46.5773
 20
60.1172
 11
46.6736
 21
59.9126
  0
LINE
  8
0
 10
46.6736
 20
59.9126
 11
46.7434
 21
59.6976
  0
LINE
  8
0
 10
46.7434
 20
59.6976
 11
46.7858
 21
59.4756
  0
LINE
  8
0
 10
46.7858
 20
59.4756
 11
46.8
 21
59.25
  0
LINE
  8
0
 10
46.8
 20
59.25
 11
46.7858
 21
59.0244
  0
LINE
  8
0
 10
46.7858
 20
59.0244
 11
46.7434
 21
58.8024
  0
LINE
  8
0
 10
46.7434
 20
58.8024
 11
46.6736
 21
58.5874
  0
LINE
  8
0
 10
46.6736
 20
58.5874
 11
46.5773
 21
58.3829
  0
LINE
  8
0
 10
46.5773
 20
58.3829
 11
46.4562
 21
58.192
  0
LINE
  8
0
 10
46.4562
 20
58.192
 11
46.3121
 21
58.0178
  0
LINE
  8
0
 10
46.3121
 20
58.0178
 11
46.1474
 21
57.8631
  0
LINE
  8
0
 10
46.1474
 20
57.8631
 11
45.9645
 21
57.7302
  0
LINE
  8
0
 10
45.9645
 20
57.7302
 11
45.7664
 21
57.6213
  0
LINE
  8
0
 10
45.7664
 20
57.6213
 11
45.5562
 21
57.5381
  0
LINE
  8
0
 10
45.5562
 20
57.5381
 11
45.3373
 21
57.4819
  0
LINE
  8
0
 10
45.3373
 20
57.4819
 11
45.113
 21
57.4536
  0
LINE
  8
0
 10
45.113
 20
57.4536
 11
44.887
 21
57.4536
  0
ENDSEC
  0
SECTION
  2
OBJECTS
  0
DICTIONARY
  0
ENDSEC
  0
EOF
