<?xml version="1.0" standalone="no"?>
<!DOCTYPE svg PUBLIC "-//W3C//DTD SVG 1.1//EN" "http://www.w3.org/Graphics/SVG/1.1/DTD/svg11.dtd">
<svg width="210mm" height="1132mm" viewBox="-105 -2219 210 1132" xmlns="http://www.w3.org/2000/svg" version="1.1">
<title>OpenSCAD Model</title>
<path d="
M 100.937,-2113.59 L 101.545,-2113.74 L 102.129,-2113.98 L 102.679,-2114.28 L 103.187,-2114.65 L 103.645,-2115.08
 L 104.045,-2115.56 L 104.382,-2116.09 L 104.649,-2116.66 L 104.843,-2117.26 L 104.961,-2117.87 L 105,-2118.5
 L 105,-2213.5 L 104.961,-2214.13 L 104.843,-2214.74 L 104.649,-2215.34 L 104.382,-2215.91 L 104.045,-2216.44
 L 103.645,-2216.92 L 103.187,-2217.35 L 102.679,-2217.72 L 102.129,-2218.02 L 101.545,-2218.26 L 100.937,-2218.41
 L 100.314,-2218.49 L -100.314,-2218.49 L -100.937,-2218.41 L -101.545,-2218.26 L -102.129,-2218.02 L -102.679,-2217.72
 L -103.187,-2217.35 L -103.645,-2216.92 L -104.045,-2216.44 L -104.382,-2215.91 L -104.649,-2215.34 L -104.843,-2214.74
 L -104.961,-2214.13 L -105,-2213.5 L -105,-2118.5 L -104.961,-2117.87 L -104.843,-2117.26 L -104.649,-2116.66
 L -104.382,-2116.09 L -104.045,-2115.56 L -103.645,-2115.08 L -103.187,-2114.65 L -102.679,-2114.28 L -102.129,-2113.98
 L -101.545,-2113.74 L -100.937,-2113.59 L -100.314,-2113.51 L 100.314,-2113.51 z
M -99.7512,-2115.01 L -100.25,-2115.07 L -100.736,-2115.2 L -101.203,-2115.38 L -101.643,-2115.62 L -102.05,-2115.92
 L -102.416,-2116.26 L -102.736,-2116.65 L -103.005,-2117.07 L -103.219,-2117.53 L -103.374,-2118.01 L -103.468,-2118.5
 L -103.5,-2119 L -103.5,-2213 L -103.468,-2213.5 L -103.374,-2213.99 L -103.219,-2214.47 L -103.005,-2214.93
 L -102.736,-2215.35 L -102.416,-2215.74 L -102.05,-2216.08 L -101.643,-2216.38 L -101.203,-2216.62 L -100.736,-2216.8
 L -100.25,-2216.93 L -99.7512,-2216.99 L 99.7512,-2216.99 L 100.25,-2216.93 L 100.736,-2216.8 L 101.203,-2216.62
 L 101.643,-2216.38 L 102.05,-2216.08 L 102.416,-2215.74 L 102.736,-2215.35 L 103.005,-2214.93 L 103.219,-2214.47
 L 103.374,-2213.99 L 103.468,-2213.5 L 103.5,-2213 L 103.5,-2119 L 103.468,-2118.5 L 103.374,-2118.01
 L 103.219,-2117.53 L 103.005,-2117.07 L 102.736,-2116.65 L 102.416,-2116.26 L 102.05,-2115.92 L 101.643,-2115.62
 L 101.203,-2115.38 L 100.736,-2115.2 L 100.25,-2115.07 L 99.7512,-2115.01 z
M 100.937,-1999.59 L 101.545,-1999.74 L 102.129,-1999.98 L 102.679,-2000.28 L 103.187,-2000.65 L 103.645,-2001.08
 L 104.045,-2001.56 L 104.382,-2002.09 L 104.649,-2002.66 L 104.843,-2003.26 L 104.961,-2003.87 L 105,-2004.5
 L 105,-2099.5 L 104.961,-2100.13 L 104.843,-2100.74 L 104.649,-2101.34 L 104.382,-2101.91 L 104.045,-2102.44
 L 103.645,-2102.92 L 103.187,-2103.35 L 102.679,-2103.72 L 102.129,-2104.02 L 101.545,-2104.26 L 100.937,-2104.41
 L 100.314,-2104.49 L -100.314,-2104.49 L -100.937,-2104.41 L -101.545,-2104.26 L -102.129,-2104.02 L -102.679,-2103.72
 L -103.187,-2103.35 L -103.645,-2102.92 L -104.045,-2102.44 L -104.382,-2101.91 L -104.649,-2101.34 L -104.843,-2100.74
 L -104.961,-2100.13 L -105,-2099.5 L -105,-2004.5 L -104.961,-2003.87 L -104.843,-2003.26 L -104.649,-2002.66
 L -104.382,-2002.09 L -104.045,-2001.56 L -103.645,-2001.08 L -103.187,-2000.65 L -102.679,-2000.28 L -102.129,-1999.98
 L -101.545,-1999.74 L -100.937,-1999.59 L -100.314,-1999.51 L 100.314,-1999.51 z
M -99.7512,-2001.01 L -100.25,-2001.07 L -100.736,-2001.2 L -101.203,-2001.38 L -101.643,-2001.62 L -102.05,-2001.92
 L -102.416,-2002.26 L -102.736,-2002.65 L -103.005,-2003.07 L -103.219,-2003.53 L -103.374,-2004.01 L -103.468,-2004.5
 L -103.5,-2005 L -103.5,-2099 L -103.468,-2099.5 L -103.374,-2099.99 L -103.219,-2100.47 L -103.005,-2100.93
 L -102.736,-2101.35 L -102.416,-2101.74 L -102.05,-2102.08 L -101.643,-2102.38 L -101.203,-2102.62 L -100.736,-2102.8
 L -100.25,-2102.93 L -99.7512,-2102.99 L 99.7512,-2102.99 L 100.25,-2102.93 L 100.736,-2102.8 L 101.203,-2102.62
 L 101.643,-2102.38 L 102.05,-2102.08 L 102.416,-2101.74 L 102.736,-2101.35 L 103.005,-2100.93 L 103.219,-2100.47
 L 103.374,-2099.99 L 103.468,-2099.5 L 103.5,-2099 L 103.5,-2005 L 103.468,-2004.5 L 103.374,-2004.01
 L 103.219,-2003.53 L 103.005,-2003.07 L 102.736,-2002.65 L 102.416,-2002.26 L 102.05,-2001.92 L 101.643,-2001.62
 L 101.203,-2001.38 L 100.736,-2001.2 L 100.25,-2001.07 L 99.7512,-2001.01 z
M 100.937,-1885.59 L 101.545,-1885.74 L 102.129,-1885.98 L 102.679,-1886.28 L 103.187,-1886.65 L 103.645,-1887.08
 L 104.045,-1887.56 L 104.382,-1888.09 L 104.649,-1888.66 L 104.843,-1889.26 L 104.961,-1889.87 L 105,-1890.5
 L 105,-1985.5 L 104.961,-1986.13 L 104.843,-1986.74 L 104.649,-1987.34 L 104.382,-1987.91 L 104.045,-1988.44
 L 103.645,-1988.92 L 103.187,-1989.35 L 102.679,-1989.72 L 102.129,-1990.02 L 101.545,-1990.26 L 100.937,-1990.41
 L 100.314,-1990.49 L -100.314,-1990.49 L -100.937,-1990.41 L -101.545,-1990.26 L -102.129,-1990.02 L -102.679,-1989.72
 L -103.187,-1989.35 L -103.645,-1988.92 L -104.045,-1988.44 L -104.382,-1987.91 L -104.649,-1987.34 L -104.843,-1986.74
 L -104.961,-1986.13 L -105,-1985.5 L -105,-1890.5 L -104.961,-1889.87 L -104.843,-1889.26 L -104.649,-1888.66
 L -104.382,-1888.09 L -104.045,-1887.56 L -103.645,-1887.08 L -103.187,-1886.65 L -102.679,-1886.28 L -102.129,-1885.98
 L -101.545,-1885.74 L -100.937,-1885.59 L -100.314,-1885.51 L 100.314,-1885.51 z
M -99.7512,-1887.01 L -100.25,-1887.07 L -100.736,-1887.2 L -101.203,-1887.38 L -101.643,-1887.62 L -102.05,-1887.92
 L -102.416,-1888.26 L -102.736,-1888.65 L -103.005,-1889.07 L -103.219,-1889.53 L -103.374,-1890.01 L -103.468,-1890.5
 L -103.5,-1891 L -103.5,-1985 L -103.468,-1985.5 L -103.374,-1985.99 L -103.219,-1986.47 L -103.005,-1986.93
 L -102.736,-1987.35 L -102.416,-1987.74 L -102.05,-1988.08 L -101.643,-1988.38 L -101.203,-1988.62 L -100.736,-1988.8
 L -100.25,-1988.93 L -99.7512,-1988.99 L 99.7512,-1988.99 L 100.25,-1988.93 L 100.736,-1988.8 L 101.203,-1988.62
 L 101.643,-1988.38 L 102.05,-1988.08 L 102.416,-1987.74 L 102.736,-1987.35 L 103.005,-1986.93 L 103.219,-1986.47
 L 103.374,-1985.99 L 103.468,-1985.5 L 103.5,-1985 L 103.5,-1891 L 103.468,-1890.5 L 103.374,-1890.01
 L 103.219,-1889.53 L 103.005,-1889.07 L 102.736,-1888.65 L 102.416,-1888.26 L 102.05,-1887.92 L 101.643,-1887.62
 L 101.203,-1887.38 L 100.736,-1887.2 L 100.25,-1887.07 L 99.7512,-1887.01 z
M 100.937,-1771.59 L 101.545,-1771.74 L 102.129,-1771.98 L 102.679,-1772.28 L 103.187,-1772.65 L 103.645,-1773.08
 L 104.045,-1773.56 L 104.382,-1774.09 L 104.649,-1774.66 L 104.843,-1775.26 L 104.961,-1775.87 L 105,-1776.5
 L 105,-1871.5 L 104.961,-1872.13 L 104.843,-1872.74 L 104.649,-1873.34 L 104.382,-1873.91 L 104.045,-1874.44
 L 103.645,-1874.92 L 103.187,-1875.35 L 102.679,-1875.72 L 102.129,-1876.02 L 101.545,-1876.26 L 100.937,-1876.41
 L 100.314,-1876.49 L -100.314,-1876.49 L -100.937,-1876.41 L -101.545,-1876.26 L -102.129,-1876.02 L -102.679,-1875.72
 L -103.187,-1875.35 L -103.645,-1874.92 L -104.045,-1874.44 L -104.382,-1873.91 L -104.649,-1873.34 L -104.843,-1872.74
 L -104.961,-1872.13 L -105,-1871.5 L -105,-1776.5 L -104.961,-1775.87 L -104.843,-1775.26 L -104.649,-1774.66
 L -104.382,-1774.09 L -104.045,-1773.56 L -103.645,-1773.08 L -103.187,-1772.65 L -102.679,-1772.28 L -102.129,-1771.98
 L -101.545,-1771.74 L -100.937,-1771.59 L -100.314,-1771.51 L 100.314,-1771.51 z
M -99.7512,-1773.01 L -100.25,-1773.07 L -100.736,-1773.2 L -101.203,-1773.38 L -101.643,-1773.62 L -102.05,-1773.92
 L -102.416,-1774.26 L -102.736,-1774.65 L -103.005,-1775.07 L -103.219,-1775.53 L -103.374,-1776.01 L -103.468,-1776.5
 L -103.5,-1777 L -103.5,-1871 L -103.468,-1871.5 L -103.374,-1871.99 L -103.219,-1872.47 L -103.005,-1872.93
 L -102.736,-1873.35 L -102.416,-1873.74 L -102.05,-1874.08 L -101.643,-1874.38 L -101.203,-1874.62 L -100.736,-1874.8
 L -100.25,-1874.93 L -99.7512,-1874.99 L 99.7512,-1874.99 L 100.25,-1874.93 L 100.736,-1874.8 L 101.203,-1874.62
 L 101.643,-1874.38 L 102.05,-1874.08 L 102.416,-1873.74 L 102.736,-1873.35 L 103.005,-1872.93 L 103.219,-1872.47
 L 103.374,-1871.99 L 103.468,-1871.5 L 103.5,-1871 L 103.5,-1777 L 103.468,-1776.5 L 103.374,-1776.01
 L 103.219,-1775.53 L 103.005,-1775.07 L 102.736,-1774.65 L 102.416,-1774.26 L 102.05,-1773.92 L 101.643,-1773.62
 L 101.203,-1773.38 L 100.736,-1773.2 L 100.25,-1773.07 L 99.7512,-1773.01 z
M 100.937,-1657.59 L 101.545,-1657.74 L 102.129,-1657.98 L 102.679,-1658.28 L 103.187,-1658.65 L 103.645,-1659.08
 L 104.045,-1659.56 L 104.382,-1660.09 L 104.649,-1660.66 L 104.843,-1661.26 L 104.961,-1661.87 L 105,-1662.5
 L 105,-1757.5 L 104.961,-1758.13 L 104.843,-1758.74 L 104.649,-1759.34 L 104.382,-1759.91 L 104.045,-1760.44
 L 103.645,-1760.92 L 103.187,-1761.35 L 102.679,-1761.72 L 102.129,-1762.02 L 101.545,-1762.26 L 100.937,-1762.41
 L 100.314,-1762.49 L -100.314,-1762.49 L -100.937,-1762.41 L -101.545,-1762.26 L -102.129,-1762.02 L -102.679,-1761.72
 L -103.187,-1761.35 L -103.645,-1760.92 L -104.045,-1760.44 L -104.382,-1759.91 L -104.649,-1759.34 L -104.843,-1758.74
 L -104.961,-1758.13 L -105,-1757.5 L -105,-1662.5 L -104.961,-1661.87 L -104.843,-1661.26 L -104.649,-1660.66
 L -104.382,-1660.09 L -104.045,-1659.56 L -103.645,-1659.08 L -103.187,-1658.65 L -102.679,-1658.28 L -102.129,-1657.98
 L -101.545,-1657.74 L -100.937,-1657.59 L -100.314,-1657.51 L 100.314,-1657.51 z
M -99.7512,-1659.01 L -100.25,-1659.07 L -100.736,-1659.2 L -101.203,-1659.38 L -101.643,-1659.62 L -102.05,-1659.92
 L -102.416,-1660.26 L -102.736,-1660.65 L -103.005,-1661.07 L -103.219,-1661.53 L -103.374,-1662.01 L -103.468,-1662.5
 L -103.5,-1663 L -103.5,-1757 L -103.468,-1757.5 L -103.374,-1757.99 L -103.219,-1758.47 L -103.005,-1758.93
 L -102.736,-1759.35 L -102.416,-1759.74 L -102.05,-1760.08 L -101.643,-1760.38 L -101.203,-1760.62 L -100.736,-1760.8
 L -100.25,-1760.93 L -99.7512,-1760.99 L 99.7512,-1760.99 L 100.25,-1760.93 L 100.736,-1760.8 L 101.203,-1760.62
 L 101.643,-1760.38 L 102.05,-1760.08 L 102.416,-1759.74 L 102.736,-1759.35 L 103.005,-1758.93 L 103.219,-1758.47
 L 103.374,-1757.99 L 103.468,-1757.5 L 103.5,-1757 L 103.5,-1663 L 103.468,-1662.5 L 103.374,-1662.01
 L 103.219,-1661.53 L 103.005,-1661.07 L 102.736,-1660.65 L 102.416,-1660.26 L 102.05,-1659.92 L 101.643,-1659.62
 L 101.203,-1659.38 L 100.736,-1659.2 L 100.25,-1659.07 L 99.7512,-1659.01 z
M 100.937,-1543.59 L 101.545,-1543.74 L 102.129,-1543.98 L 102.679,-1544.28 L 103.187,-1544.65 L 103.645,-1545.08
 L 104.045,-1545.56 L 104.382,-1546.09 L 104.649,-1546.66 L 104.843,-1547.26 L 104.961,-1547.87 L 105,-1548.5
 L 105,-1643.5 L 104.961,-1644.13 L 104.843,-1644.74 L 104.649,-1645.34 L 104.382,-1645.91 L 104.045,-1646.44
 L 103.645,-1646.92 L 103.187,-1647.35 L 102.679,-1647.72 L 102.129,-1648.02 L 101.545,-1648.26 L 100.937,-1648.41
 L 100.314,-1648.49 L -100.314,-1648.49 L -100.937,-1648.41 L -101.545,-1648.26 L -102.129,-1648.02 L -102.679,-1647.72
 L -103.187,-1647.35 L -103.645,-1646.92 L -104.045,-1646.44 L -104.382,-1645.91 L -104.649,-1645.34 L -104.843,-1644.74
 L -104.961,-1644.13 L -105,-1643.5 L -105,-1548.5 L -104.961,-1547.87 L -104.843,-1547.26 L -104.649,-1546.66
 L -104.382,-1546.09 L -104.045,-1545.56 L -103.645,-1545.08 L -103.187,-1544.65 L -102.679,-1544.28 L -102.129,-1543.98
 L -101.545,-1543.74 L -100.937,-1543.59 L -100.314,-1543.51 L 100.314,-1543.51 z
M -99.7512,-1545.01 L -100.25,-1545.07 L -100.736,-1545.2 L -101.203,-1545.38 L -101.643,-1545.62 L -102.05,-1545.92
 L -102.416,-1546.26 L -102.736,-1546.65 L -103.005,-1547.07 L -103.219,-1547.53 L -103.374,-1548.01 L -103.468,-1548.5
 L -103.5,-1549 L -103.5,-1643 L -103.468,-1643.5 L -103.374,-1643.99 L -103.219,-1644.47 L -103.005,-1644.93
 L -102.736,-1645.35 L -102.416,-1645.74 L -102.05,-1646.08 L -101.643,-1646.38 L -101.203,-1646.62 L -100.736,-1646.8
 L -100.25,-1646.93 L -99.7512,-1646.99 L 99.7512,-1646.99 L 100.25,-1646.93 L 100.736,-1646.8 L 101.203,-1646.62
 L 101.643,-1646.38 L 102.05,-1646.08 L 102.416,-1645.74 L 102.736,-1645.35 L 103.005,-1644.93 L 103.219,-1644.47
 L 103.374,-1643.99 L 103.468,-1643.5 L 103.5,-1643 L 103.5,-1549 L 103.468,-1548.5 L 103.374,-1548.01
 L 103.219,-1547.53 L 103.005,-1547.07 L 102.736,-1546.65 L 102.416,-1546.26 L 102.05,-1545.92 L 101.643,-1545.62
 L 101.203,-1545.38 L 100.736,-1545.2 L 100.25,-1545.07 L 99.7512,-1545.01 z
M 100.937,-1429.59 L 101.545,-1429.74 L 102.129,-1429.98 L 102.679,-1430.28 L 103.187,-1430.65 L 103.645,-1431.08
 L 104.045,-1431.56 L 104.382,-1432.09 L 104.649,-1432.66 L 104.843,-1433.26 L 104.961,-1433.87 L 105,-1434.5
 L 105,-1529.5 L 104.961,-1530.13 L 104.843,-1530.74 L 104.649,-1531.34 L 104.382,-1531.91 L 104.045,-1532.44
 L 103.645,-1532.92 L 103.187,-1533.35 L 102.679,-1533.72 L 102.129,-1534.02 L 101.545,-1534.26 L 100.937,-1534.41
 L 100.314,-1534.49 L -100.314,-1534.49 L -100.937,-1534.41 L -101.545,-1534.26 L -102.129,-1534.02 L -102.679,-1533.72
 L -103.187,-1533.35 L -103.645,-1532.92 L -104.045,-1532.44 L -104.382,-1531.91 L -104.649,-1531.34 L -104.843,-1530.74
 L -104.961,-1530.13 L -105,-1529.5 L -105,-1434.5 L -104.961,-1433.87 L -104.843,-1433.26 L -104.649,-1432.66
 L -104.382,-1432.09 L -104.045,-1431.56 L -103.645,-1431.08 L -103.187,-1430.65 L -102.679,-1430.28 L -102.129,-1429.98
 L -101.545,-1429.74 L -100.937,-1429.59 L -100.314,-1429.51 L 100.314,-1429.51 z
M -99.7512,-1431.01 L -100.25,-1431.07 L -100.736,-1431.2 L -101.203,-1431.38 L -101.643,-1431.62 L -102.05,-1431.92
 L -102.416,-1432.26 L -102.736,-1432.65 L -103.005,-1433.07 L -103.219,-1433.53 L -103.374,-1434.01 L -103.468,-1434.5
 L -103.5,-1435 L -103.5,-1529 L -103.468,-1529.5 L -103.374,-1529.99 L -103.219,-1530.47 L -103.005,-1530.93
 L -102.736,-1531.35 L -102.416,-1531.74 L -102.05,-1532.08 L -101.643,-1532.38 L -101.203,-1532.62 L -100.736,-1532.8
 L -100.25,-1532.93 L -99.7512,-1532.99 L 99.7512,-1532.99 L 100.25,-1532.93 L 100.736,-1532.8 L 101.203,-1532.62
 L 101.643,-1532.38 L 102.05,-1532.08 L 102.416,-1531.74 L 102.736,-1531.35 L 103.005,-1530.93 L 103.219,-1530.47
 L 103.374,-1529.99 L 103.468,-1529.5 L 103.5,-1529 L 103.5,-1435 L 103.468,-1434.5 L 103.374,-1434.01
 L 103.219,-1433.53 L 103.005,-1433.07 L 102.736,-1432.65 L 102.416,-1432.26 L 102.05,-1431.92 L 101.643,-1431.62
 L 101.203,-1431.38 L 100.736,-1431.2 L 100.25,-1431.07 L 99.7512,-1431.01 z
M 100.937,-1315.59 L 101.545,-1315.74 L 102.129,-1315.98 L 102.679,-1316.28 L 103.187,-1316.65 L 103.645,-1317.08
 L 104.045,-1317.56 L 104.382,-1318.09 L 104.649,-1318.66 L 104.843,-1319.26 L 104.961,-1319.87 L 105,-1320.5
 L 105,-1415.5 L 104.961,-1416.13 L 104.843,-1416.74 L 104.649,-1417.34 L 104.382,-1417.91 L 104.045,-1418.44
 L 103.645,-1418.92 L 103.187,-1419.35 L 102.679,-1419.72 L 102.129,-1420.02 L 101.545,-1420.26 L 100.937,-1420.41
 L 100.314,-1420.49 L -100.314,-1420.49 L -100.937,-1420.41 L -101.545,-1420.26 L -102.129,-1420.02 L -102.679,-1419.72
 L -103.187,-1419.35 L -103.645,-1418.92 L -104.045,-1418.44 L -104.382,-1417.91 L -104.649,-1417.34 L -104.843,-1416.74
 L -104.961,-1416.13 L -105,-1415.5 L -105,-1320.5 L -104.961,-1319.87 L -104.843,-1319.26 L -104.649,-1318.66
 L -104.382,-1318.09 L -104.045,-1317.56 L -103.645,-1317.08 L -103.187,-1316.65 L -102.679,-1316.28 L -102.129,-1315.98
 L -101.545,-1315.74 L -100.937,-1315.59 L -100.314,-1315.51 L 100.314,-1315.51 z
M -99.7512,-1317.01 L -100.25,-1317.07 L -100.736,-1317.2 L -101.203,-1317.38 L -101.643,-1317.62 L -102.05,-1317.92
 L -102.416,-1318.26 L -102.736,-1318.65 L -103.005,-1319.07 L -103.219,-1319.53 L -103.374,-1320.01 L -103.468,-1320.5
 L -103.5,-1321 L -103.5,-1415 L -103.468,-1415.5 L -103.374,-1415.99 L -103.219,-1416.47 L -103.005,-1416.93
 L -102.736,-1417.35 L -102.416,-1417.74 L -102.05,-1418.08 L -101.643,-1418.38 L -101.203,-1418.62 L -100.736,-1418.8
 L -100.25,-1418.93 L -99.7512,-1418.99 L 99.7512,-1418.99 L 100.25,-1418.93 L 100.736,-1418.8 L 101.203,-1418.62
 L 101.643,-1418.38 L 102.05,-1418.08 L 102.416,-1417.74 L 102.736,-1417.35 L 103.005,-1416.93 L 103.219,-1416.47
 L 103.374,-1415.99 L 103.468,-1415.5 L 103.5,-1415 L 103.5,-1321 L 103.468,-1320.5 L 103.374,-1320.01
 L 103.219,-1319.53 L 103.005,-1319.07 L 102.736,-1318.65 L 102.416,-1318.26 L 102.05,-1317.92 L 101.643,-1317.62
 L 101.203,-1317.38 L 100.736,-1317.2 L 100.25,-1317.07 L 99.7512,-1317.01 z
M 100.937,-1201.59 L 101.545,-1201.74 L 102.129,-1201.98 L 102.679,-1202.28 L 103.187,-1202.65 L 103.645,-1203.08
 L 104.045,-1203.56 L 104.382,-1204.09 L 104.649,-1204.66 L 104.843,-1205.26 L 104.961,-1205.87 L 105,-1206.5
 L 105,-1301.5 L 104.961,-1302.13 L 104.843,-1302.74 L 104.649,-1303.34 L 104.382,-1303.91 L 104.045,-1304.44
 L 103.645,-1304.92 L 103.187,-1305.35 L 102.679,-1305.72 L 102.129,-1306.02 L 101.545,-1306.26 L 100.937,-1306.41
 L 100.314,-1306.49 L -100.314,-1306.49 L -100.937,-1306.41 L -101.545,-1306.26 L -102.129,-1306.02 L -102.679,-1305.72
 L -103.187,-1305.35 L -103.645,-1304.92 L -104.045,-1304.44 L -104.382,-1303.91 L -104.649,-1303.34 L -104.843,-1302.74
 L -104.961,-1302.13 L -105,-1301.5 L -105,-1206.5 L -104.961,-1205.87 L -104.843,-1205.26 L -104.649,-1204.66
 L -104.382,-1204.09 L -104.045,-1203.56 L -103.645,-1203.08 L -103.187,-1202.65 L -102.679,-1202.28 L -102.129,-1201.98
 L -101.545,-1201.74 L -100.937,-1201.59 L -100.314,-1201.51 L 100.314,-1201.51 z
M -99.6955,-1203.89 L -100.083,-1203.94 L -100.462,-1204.04 L -100.825,-1204.18 L -101.168,-1204.37 L -101.484,-1204.6
 L -101.769,-1204.87 L -102.018,-1205.17 L -102.228,-1205.5 L -102.394,-1205.85 L -102.515,-1206.23 L -102.588,-1206.61
 L -102.613,-1207 L -102.613,-1301 L -102.588,-1301.39 L -102.515,-1301.77 L -102.394,-1302.15 L -102.228,-1302.5
 L -102.018,-1302.83 L -101.769,-1303.13 L -101.484,-1303.4 L -101.168,-1303.63 L -100.825,-1303.82 L -100.462,-1303.96
 L -100.083,-1304.06 L -99.6955,-1304.11 L 99.6955,-1304.11 L 100.083,-1304.06 L 100.462,-1303.96 L 100.825,-1303.82
 L 101.168,-1303.63 L 101.484,-1303.4 L 101.769,-1303.13 L 102.018,-1302.83 L 102.228,-1302.5 L 102.394,-1302.15
 L 102.515,-1301.77 L 102.588,-1301.39 L 102.613,-1301 L 102.613,-1207 L 102.588,-1206.61 L 102.515,-1206.23
 L 102.394,-1205.85 L 102.228,-1205.5 L 102.018,-1205.17 L 101.769,-1204.87 L 101.484,-1204.6 L 101.168,-1204.37
 L 100.825,-1204.18 L 100.462,-1204.04 L 100.083,-1203.94 L 99.6955,-1203.89 z
M 100.937,-1087.59 L 101.545,-1087.74 L 102.129,-1087.98 L 102.679,-1088.28 L 103.187,-1088.65 L 103.645,-1089.08
 L 104.045,-1089.56 L 104.382,-1090.09 L 104.649,-1090.66 L 104.843,-1091.26 L 104.961,-1091.87 L 105,-1092.5
 L 105,-1187.5 L 104.961,-1188.13 L 104.843,-1188.74 L 104.649,-1189.34 L 104.382,-1189.91 L 104.045,-1190.44
 L 103.645,-1190.92 L 103.187,-1191.35 L 102.679,-1191.72 L 102.129,-1192.02 L 101.545,-1192.26 L 100.937,-1192.41
 L 100.314,-1192.49 L -100.314,-1192.49 L -100.937,-1192.41 L -101.545,-1192.26 L -102.129,-1192.02 L -102.679,-1191.72
 L -103.187,-1191.35 L -103.645,-1190.92 L -104.045,-1190.44 L -104.382,-1189.91 L -104.649,-1189.34 L -104.843,-1188.74
 L -104.961,-1188.13 L -105,-1187.5 L -105,-1092.5 L -104.961,-1091.87 L -104.843,-1091.26 L -104.649,-1090.66
 L -104.382,-1090.09 L -104.045,-1089.56 L -103.645,-1089.08 L -103.187,-1088.65 L -102.679,-1088.28 L -102.129,-1087.98
 L -101.545,-1087.74 L -100.937,-1087.59 L -100.314,-1087.51 L 100.314,-1087.51 z
M -97.6341,-1182.87 L -97.9001,-1182.9 L -98.1598,-1182.97 L -98.4092,-1183.07 L -98.6441,-1183.2 L -98.8611,-1183.35
 L -99.0566,-1183.54 L -99.2275,-1183.74 L -99.3712,-1183.97 L -99.4853,-1184.21 L -99.5682,-1184.47 L -99.6185,-1184.73
 L -99.6353,-1185 L -99.6185,-1185.27 L -99.5682,-1185.53 L -99.4853,-1185.79 L -99.3712,-1186.03 L -99.2275,-1186.26
 L -99.0566,-1186.46 L -98.8611,-1186.65 L -98.6441,-1186.8 L -98.4092,-1186.93 L -98.1598,-1187.03 L -97.9001,-1187.1
 L -97.6341,-1187.13 L -97.3659,-1187.13 L -97.0999,-1187.1 L -96.8401,-1187.03 L -96.5908,-1186.93 L -96.3559,-1186.8
 L -96.1389,-1186.65 L -95.9434,-1186.46 L -95.7725,-1186.26 L -95.6288,-1186.03 L -95.5146,-1185.79 L -95.4318,-1185.53
 L -95.3815,-1185.27 L -95.3647,-1185 L -95.3815,-1184.73 L -95.4318,-1184.47 L -95.5146,-1184.21 L -95.6288,-1183.97
 L -95.7725,-1183.74 L -95.9434,-1183.54 L -96.1389,-1183.35 L -96.3559,-1183.2 L -96.5908,-1183.07 L -96.8401,-1182.97
 L -97.0999,-1182.9 L -97.3659,-1182.87 z
M 97.3659,-1182.87 L 97.0999,-1182.9 L 96.8401,-1182.97 L 96.5908,-1183.07 L 96.3559,-1183.2 L 96.1389,-1183.35
 L 95.9434,-1183.54 L 95.7725,-1183.74 L 95.6288,-1183.97 L 95.5146,-1184.21 L 95.4318,-1184.47 L 95.3815,-1184.73
 L 95.3647,-1185 L 95.3815,-1185.27 L 95.4318,-1185.53 L 95.5146,-1185.79 L 95.6288,-1186.03 L 95.7725,-1186.26
 L 95.9434,-1186.46 L 96.1389,-1186.65 L 96.3559,-1186.8 L 96.5908,-1186.93 L 96.8401,-1187.03 L 97.0999,-1187.1
 L 97.3659,-1187.13 L 97.6341,-1187.13 L 97.9001,-1187.1 L 98.1598,-1187.03 L 98.4092,-1186.93 L 98.6441,-1186.8
 L 98.8611,-1186.65 L 99.0566,-1186.46 L 99.2275,-1186.26 L 99.3712,-1186.03 L 99.4853,-1185.79 L 99.5682,-1185.53
 L 99.6185,-1185.27 L 99.6353,-1185 L 99.6185,-1184.73 L 99.5682,-1184.47 L 99.4853,-1184.21 L 99.3712,-1183.97
 L 99.2275,-1183.74 L 99.0566,-1183.54 L 98.8611,-1183.35 L 98.6441,-1183.2 L 98.4092,-1183.07 L 98.1598,-1182.97
 L 97.9001,-1182.9 L 97.6341,-1182.87 z
M -97.6341,-1092.87 L -97.9001,-1092.9 L -98.1598,-1092.97 L -98.4092,-1093.07 L -98.6441,-1093.2 L -98.8611,-1093.35
 L -99.0566,-1093.54 L -99.2275,-1093.74 L -99.3712,-1093.97 L -99.4853,-1094.21 L -99.5682,-1094.47 L -99.6185,-1094.73
 L -99.6353,-1095 L -99.6185,-1095.27 L -99.5682,-1095.53 L -99.4853,-1095.79 L -99.3712,-1096.03 L -99.2275,-1096.26
 L -99.0566,-1096.46 L -98.8611,-1096.65 L -98.6441,-1096.8 L -98.4092,-1096.93 L -98.1598,-1097.03 L -97.9001,-1097.1
 L -97.6341,-1097.13 L -97.3659,-1097.13 L -97.0999,-1097.1 L -96.8401,-1097.03 L -96.5908,-1096.93 L -96.3559,-1096.8
 L -96.1389,-1096.65 L -95.9434,-1096.46 L -95.7725,-1096.26 L -95.6288,-1096.03 L -95.5146,-1095.79 L -95.4318,-1095.53
 L -95.3815,-1095.27 L -95.3647,-1095 L -95.3815,-1094.73 L -95.4318,-1094.47 L -95.5146,-1094.21 L -95.6288,-1093.97
 L -95.7725,-1093.74 L -95.9434,-1093.54 L -96.1389,-1093.35 L -96.3559,-1093.2 L -96.5908,-1093.07 L -96.8401,-1092.97
 L -97.0999,-1092.9 L -97.3659,-1092.87 z
M 97.3659,-1092.87 L 97.0999,-1092.9 L 96.8401,-1092.97 L 96.5908,-1093.07 L 96.3559,-1093.2 L 96.1389,-1093.35
 L 95.9434,-1093.54 L 95.7725,-1093.74 L 95.6288,-1093.97 L 95.5146,-1094.21 L 95.4318,-1094.47 L 95.3815,-1094.73
 L 95.3647,-1095 L 95.3815,-1095.27 L 95.4318,-1095.53 L 95.5146,-1095.79 L 95.6288,-1096.03 L 95.7725,-1096.26
 L 95.9434,-1096.46 L 96.1389,-1096.65 L 96.3559,-1096.8 L 96.5908,-1096.93 L 96.8401,-1097.03 L 97.0999,-1097.1
 L 97.3659,-1097.13 L 97.6341,-1097.13 L 97.9001,-1097.1 L 98.1598,-1097.03 L 98.4092,-1096.93 L 98.6441,-1096.8
 L 98.8611,-1096.65 L 99.0566,-1096.46 L 99.2275,-1096.26 L 99.3712,-1096.03 L 99.4853,-1095.79 L 99.5682,-1095.53
 L 99.6185,-1095.27 L 99.6353,-1095 L 99.6185,-1094.73 L 99.5682,-1094.47 L 99.4853,-1094.21 L 99.3712,-1093.97
 L 99.2275,-1093.74 L 99.0566,-1093.54 L 98.8611,-1093.35 L 98.6441,-1093.2 L 98.4092,-1093.07 L 98.1598,-1092.97
 L 97.9001,-1092.9 L 97.6341,-1092.87 z
" stroke="black" fill="lightgray" stroke-width="0.5"/>
</svg>
