<?xml version="1.0" standalone="no"?>
<!DOCTYPE svg PUBLIC "-//W3C//DTD SVG 1.1//EN" "http://www.w3.org/Graphics/SVG/1.1/DTD/svg11.dtd">
<svg width="284mm" height="86mm" viewBox="-142 -79 284 86" xmlns="http://www.w3.org/2000/svg" version="1.1">
<title>OpenSCAD Model</title>
<path d="
M 139.968,-65.0443 L 140.273,-65.1224 L 140.564,-65.2379 L 140.84,-65.3892 L 141.094,-65.5737 L 141.322,-65.7886
 L 141.523,-66.0305 L 141.691,-66.2956 L 141.824,-66.5797 L 141.921,-66.8783 L 141.98,-67.1867 L 142,-67.5
 L 142,-76.5 L 141.98,-76.8133 L 141.921,-77.1217 L 141.824,-77.4203 L 141.691,-77.7044 L 141.523,-77.9695
 L 141.322,-78.2114 L 141.094,-78.4263 L 140.84,-78.6108 L 140.564,-78.7621 L 140.273,-78.8776 L 139.968,-78.9557
 L 139.657,-78.9951 L -139.657,-78.9951 L -139.968,-78.9557 L -140.273,-78.8776 L -140.564,-78.7621 L -140.84,-78.6108
 L -141.094,-78.4263 L -141.322,-78.2114 L -141.523,-77.9695 L -141.691,-77.7044 L -141.824,-77.4203 L -141.921,-77.1217
 L -141.98,-76.8133 L -142,-76.5 L -142,-67.5 L -141.98,-67.1867 L -141.921,-66.8783 L -141.824,-66.5797
 L -141.691,-66.2956 L -141.523,-66.0305 L -141.322,-65.7886 L -141.094,-65.5737 L -140.84,-65.3892 L -140.564,-65.2379
 L -140.273,-65.1224 L -139.968,-65.0443 L -139.657,-65.0049 L 139.657,-65.0049 z
M 119.812,-69.0059 L 119.438,-69.0531 L 119.073,-69.1468 L 118.723,-69.2855 L 118.393,-69.467 L 118.088,-69.6885
 L 117.813,-69.9464 L 117.573,-70.2366 L 117.371,-70.5547 L 117.211,-70.8956 L 117.094,-71.2539 L 117.024,-71.624
 L 117,-72 L 117.024,-72.376 L 117.094,-72.7461 L 117.211,-73.1044 L 117.371,-73.4453 L 117.573,-73.7634
 L 117.813,-74.0536 L 118.088,-74.3115 L 118.393,-74.533 L 118.723,-74.7145 L 119.073,-74.8532 L 119.438,-74.9469
 L 119.812,-74.9941 L 120.188,-74.9941 L 120.562,-74.9469 L 120.927,-74.8532 L 121.277,-74.7145 L 121.607,-74.533
 L 121.912,-74.3115 L 122.187,-74.0536 L 122.427,-73.7634 L 122.629,-73.4453 L 122.789,-73.1044 L 122.906,-72.7461
 L 122.976,-72.376 L 123,-72 L 122.976,-71.624 L 122.906,-71.2539 L 122.789,-70.8956 L 122.629,-70.5547
 L 122.427,-70.2366 L 122.187,-69.9464 L 121.912,-69.6885 L 121.607,-69.467 L 121.277,-69.2855 L 120.927,-69.1468
 L 120.562,-69.0531 L 120.188,-69.0059 z
M 29.8116,-69.0059 L 29.4379,-69.0531 L 29.0729,-69.1468 L 28.7227,-69.2855 L 28.3925,-69.467 L 28.0877,-69.6885
 L 27.8131,-69.9464 L 27.5729,-70.2366 L 27.3711,-70.5547 L 27.2107,-70.8956 L 27.0942,-71.2539 L 27.0237,-71.624
 L 27,-72 L 27.0237,-72.376 L 27.0942,-72.7461 L 27.2107,-73.1044 L 27.3711,-73.4453 L 27.5729,-73.7634
 L 27.8131,-74.0536 L 28.0877,-74.3115 L 28.3925,-74.533 L 28.7227,-74.7145 L 29.0729,-74.8532 L 29.4379,-74.9469
 L 29.8116,-74.9941 L 30.1884,-74.9941 L 30.5621,-74.9469 L 30.927,-74.8532 L 31.2773,-74.7145 L 31.6075,-74.533
 L 31.9123,-74.3115 L 32.1869,-74.0536 L 32.427,-73.7634 L 32.6289,-73.4453 L 32.7893,-73.1044 L 32.9057,-72.7461
 L 32.9763,-72.376 L 33,-72 L 32.9763,-71.624 L 32.9057,-71.2539 L 32.7893,-70.8956 L 32.6289,-70.5547
 L 32.427,-70.2366 L 32.1869,-69.9464 L 31.9123,-69.6885 L 31.6075,-69.467 L 31.2773,-69.2855 L 30.927,-69.1468
 L 30.5621,-69.0531 L 30.1884,-69.0059 z
M -0.18837,-69.0059 L -0.562134,-69.0531 L -0.927048,-69.1468 L -1.27733,-69.2855 L -1.60747,-69.467 L -1.91226,-69.6885
 L -2.1869,-69.9464 L -2.42705,-70.2366 L -2.62891,-70.5547 L -2.78932,-70.8956 L -2.90575,-71.2539 L -2.97633,-71.624
 L -3,-72 L -2.97633,-72.376 L -2.90575,-72.7461 L -2.78932,-73.1044 L -2.62891,-73.4453 L -2.42705,-73.7634
 L -2.1869,-74.0536 L -1.91226,-74.3115 L -1.60747,-74.533 L -1.27733,-74.7145 L -0.927048,-74.8532 L -0.562134,-74.9469
 L -0.18837,-74.9941 L 0.18837,-74.9941 L 0.562134,-74.9469 L 0.927048,-74.8532 L 1.27733,-74.7145 L 1.60747,-74.533
 L 1.91226,-74.3115 L 2.1869,-74.0536 L 2.42705,-73.7634 L 2.62891,-73.4453 L 2.78932,-73.1044 L 2.90575,-72.7461
 L 2.97633,-72.376 L 3,-72 L 2.97633,-71.624 L 2.90575,-71.2539 L 2.78932,-70.8956 L 2.62891,-70.5547
 L 2.42705,-70.2366 L 2.1869,-69.9464 L 1.91226,-69.6885 L 1.60747,-69.467 L 1.27733,-69.2855 L 0.927048,-69.1468
 L 0.562134,-69.0531 L 0.18837,-69.0059 z
M -30.1884,-69.0059 L -30.5621,-69.0531 L -30.927,-69.1468 L -31.2773,-69.2855 L -31.6075,-69.467 L -31.9123,-69.6885
 L -32.1869,-69.9464 L -32.427,-70.2366 L -32.6289,-70.5547 L -32.7893,-70.8956 L -32.9057,-71.2539 L -32.9763,-71.624
 L -33,-72 L -32.9763,-72.376 L -32.9057,-72.7461 L -32.7893,-73.1044 L -32.6289,-73.4453 L -32.427,-73.7634
 L -32.1869,-74.0536 L -31.9123,-74.3115 L -31.6075,-74.533 L -31.2773,-74.7145 L -30.927,-74.8532 L -30.5621,-74.9469
 L -30.1884,-74.9941 L -29.8116,-74.9941 L -29.4379,-74.9469 L -29.0729,-74.8532 L -28.7227,-74.7145 L -28.3925,-74.533
 L -28.0877,-74.3115 L -27.8131,-74.0536 L -27.5729,-73.7634 L -27.3711,-73.4453 L -27.2107,-73.1044 L -27.0942,-72.7461
 L -27.0237,-72.376 L -27,-72 L -27.0237,-71.624 L -27.0942,-71.2539 L -27.2107,-70.8956 L -27.3711,-70.5547
 L -27.5729,-70.2366 L -27.8131,-69.9464 L -28.0877,-69.6885 L -28.3925,-69.467 L -28.7227,-69.2855 L -29.0729,-69.1468
 L -29.4379,-69.0531 L -29.8116,-69.0059 z
M -90.1884,-69.0059 L -90.5621,-69.0531 L -90.927,-69.1468 L -91.2773,-69.2855 L -91.6075,-69.467 L -91.9123,-69.6885
 L -92.1869,-69.9464 L -92.427,-70.2366 L -92.6289,-70.5547 L -92.7893,-70.8956 L -92.9057,-71.2539 L -92.9763,-71.624
 L -93,-72 L -92.9763,-72.376 L -92.9057,-72.7461 L -92.7893,-73.1044 L -92.6289,-73.4453 L -92.427,-73.7634
 L -92.1869,-74.0536 L -91.9123,-74.3115 L -91.6075,-74.533 L -91.2773,-74.7145 L -90.927,-74.8532 L -90.5621,-74.9469
 L -90.1884,-74.9941 L -89.8116,-74.9941 L -89.4379,-74.9469 L -89.073,-74.8532 L -88.7227,-74.7145 L -88.3925,-74.533
 L -88.0877,-74.3115 L -87.8131,-74.0536 L -87.573,-73.7634 L -87.3711,-73.4453 L -87.2107,-73.1044 L -87.0943,-72.7461
 L -87.0237,-72.376 L -87,-72 L -87.0237,-71.624 L -87.0943,-71.2539 L -87.2107,-70.8956 L -87.3711,-70.5547
 L -87.573,-70.2366 L -87.8131,-69.9464 L -88.0877,-69.6885 L -88.3925,-69.467 L -88.7227,-69.2855 L -89.073,-69.1468
 L -89.4379,-69.0531 L -89.8116,-69.0059 z
M -60.1884,-69.0059 L -60.5621,-69.0531 L -60.927,-69.1468 L -61.2773,-69.2855 L -61.6075,-69.467 L -61.9123,-69.6885
 L -62.1869,-69.9464 L -62.427,-70.2366 L -62.6289,-70.5547 L -62.7893,-70.8956 L -62.9057,-71.2539 L -62.9763,-71.624
 L -63,-72 L -62.9763,-72.376 L -62.9057,-72.7461 L -62.7893,-73.1044 L -62.6289,-73.4453 L -62.427,-73.7634
 L -62.1869,-74.0536 L -61.9123,-74.3115 L -61.6075,-74.533 L -61.2773,-74.7145 L -60.927,-74.8532 L -60.5621,-74.9469
 L -60.1884,-74.9941 L -59.8116,-74.9941 L -59.4379,-74.9469 L -59.0729,-74.8532 L -58.7227,-74.7145 L -58.3925,-74.533
 L -58.0877,-74.3115 L -57.8131,-74.0536 L -57.5729,-73.7634 L -57.3711,-73.4453 L -57.2107,-73.1044 L -57.0942,-72.7461
 L -57.0237,-72.376 L -57,-72 L -57.0237,-71.624 L -57.0942,-71.2539 L -57.2107,-70.8956 L -57.3711,-70.5547
 L -57.5729,-70.2366 L -57.8131,-69.9464 L -58.0877,-69.6885 L -58.3925,-69.467 L -58.7227,-69.2855 L -59.0729,-69.1468
 L -59.4379,-69.0531 L -59.8116,-69.0059 z
M 59.8116,-69.0059 L 59.4379,-69.0531 L 59.0729,-69.1468 L 58.7227,-69.2855 L 58.3925,-69.467 L 58.0877,-69.6885
 L 57.8131,-69.9464 L 57.5729,-70.2366 L 57.3711,-70.5547 L 57.2107,-70.8956 L 57.0942,-71.2539 L 57.0237,-71.624
 L 57,-72 L 57.0237,-72.376 L 57.0942,-72.7461 L 57.2107,-73.1044 L 57.3711,-73.4453 L 57.5729,-73.7634
 L 57.8131,-74.0536 L 58.0877,-74.3115 L 58.3925,-74.533 L 58.7227,-74.7145 L 59.0729,-74.8532 L 59.4379,-74.9469
 L 59.8116,-74.9941 L 60.1884,-74.9941 L 60.5621,-74.9469 L 60.927,-74.8532 L 61.2773,-74.7145 L 61.6075,-74.533
 L 61.9123,-74.3115 L 62.1869,-74.0536 L 62.427,-73.7634 L 62.6289,-73.4453 L 62.7893,-73.1044 L 62.9057,-72.7461
 L 62.9763,-72.376 L 63,-72 L 62.9763,-71.624 L 62.9057,-71.2539 L 62.7893,-70.8956 L 62.6289,-70.5547
 L 62.427,-70.2366 L 62.1869,-69.9464 L 61.9123,-69.6885 L 61.6075,-69.467 L 61.2773,-69.2855 L 60.927,-69.1468
 L 60.5621,-69.0531 L 60.1884,-69.0059 z
M -120.188,-69.0059 L -120.562,-69.0531 L -120.927,-69.1468 L -121.277,-69.2855 L -121.607,-69.467 L -121.912,-69.6885
 L -122.187,-69.9464 L -122.427,-70.2366 L -122.629,-70.5547 L -122.789,-70.8956 L -122.906,-71.2539 L -122.976,-71.624
 L -123,-72 L -122.976,-72.376 L -122.906,-72.7461 L -122.789,-73.1044 L -122.629,-73.4453 L -122.427,-73.7634
 L -122.187,-74.0536 L -121.912,-74.3115 L -121.607,-74.533 L -121.277,-74.7145 L -120.927,-74.8532 L -120.562,-74.9469
 L -120.188,-74.9941 L -119.812,-74.9941 L -119.438,-74.9469 L -119.073,-74.8532 L -118.723,-74.7145 L -118.393,-74.533
 L -118.088,-74.3115 L -117.813,-74.0536 L -117.573,-73.7634 L -117.371,-73.4453 L -117.211,-73.1044 L -117.094,-72.7461
 L -117.024,-72.376 L -117,-72 L -117.024,-71.624 L -117.094,-71.2539 L -117.211,-70.8956 L -117.371,-70.5547
 L -117.573,-70.2366 L -117.813,-69.9464 L -118.088,-69.6885 L -118.393,-69.467 L -118.723,-69.2855 L -119.073,-69.1468
 L -119.438,-69.0531 L -119.812,-69.0059 z
M 89.8116,-69.0059 L 89.4379,-69.0531 L 89.073,-69.1468 L 88.7227,-69.2855 L 88.3925,-69.467 L 88.0877,-69.6885
 L 87.8131,-69.9464 L 87.573,-70.2366 L 87.3711,-70.5547 L 87.2107,-70.8956 L 87.0943,-71.2539 L 87.0237,-71.624
 L 87,-72 L 87.0237,-72.376 L 87.0943,-72.7461 L 87.2107,-73.1044 L 87.3711,-73.4453 L 87.573,-73.7634
 L 87.8131,-74.0536 L 88.0877,-74.3115 L 88.3925,-74.533 L 88.7227,-74.7145 L 89.073,-74.8532 L 89.4379,-74.9469
 L 89.8116,-74.9941 L 90.1884,-74.9941 L 90.5621,-74.9469 L 90.927,-74.8532 L 91.2773,-74.7145 L 91.6075,-74.533
 L 91.9123,-74.3115 L 92.1869,-74.0536 L 92.427,-73.7634 L 92.6289,-73.4453 L 92.7893,-73.1044 L 92.9057,-72.7461
 L 92.9763,-72.376 L 93,-72 L 92.9763,-71.624 L 92.9057,-71.2539 L 92.7893,-70.8956 L 92.6289,-70.5547
 L 92.427,-70.2366 L 92.1869,-69.9464 L 91.9123,-69.6885 L 91.6075,-69.467 L 91.2773,-69.2855 L 90.927,-69.1468
 L 90.5621,-69.0531 L 90.1884,-69.0059 z
M -112.594,-70.503 L -112.781,-70.5266 L -112.964,-70.5734 L -113.139,-70.6428 L -113.304,-70.7335 L -113.456,-70.8442
 L -113.593,-70.9732 L -113.714,-71.1183 L -113.814,-71.2774 L -113.895,-71.4478 L -113.953,-71.627 L -113.988,-71.812
 L -114,-72 L -113.988,-72.188 L -113.953,-72.373 L -113.895,-72.5522 L -113.814,-72.7226 L -113.714,-72.8817
 L -113.593,-73.0268 L -113.456,-73.1558 L -113.304,-73.2665 L -113.139,-73.3572 L -112.964,-73.4266 L -112.781,-73.4734
 L -112.594,-73.497 L -112.406,-73.497 L -112.219,-73.4734 L -112.036,-73.4266 L -111.861,-73.3572 L -111.696,-73.2665
 L -111.544,-73.1558 L -111.407,-73.0268 L -111.286,-72.8817 L -111.186,-72.7226 L -111.105,-72.5522 L -111.047,-72.373
 L -111.012,-72.188 L -111,-72 L -111.012,-71.812 L -111.047,-71.627 L -111.105,-71.4478 L -111.186,-71.2774
 L -111.286,-71.1183 L -111.407,-70.9732 L -111.544,-70.8442 L -111.696,-70.7335 L -111.861,-70.6428 L -112.036,-70.5734
 L -112.219,-70.5266 L -112.406,-70.503 z
M 7.40581,-70.503 L 7.21892,-70.5266 L 7.03647,-70.5734 L 6.86133,-70.6428 L 6.69626,-70.7335 L 6.54385,-70.8442
 L 6.40654,-70.9732 L 6.28647,-71.1183 L 6.18553,-71.2774 L 6.10533,-71.4478 L 6.04712,-71.627 L 6.01183,-71.812
 L 6,-72 L 6.01183,-72.188 L 6.04712,-72.373 L 6.10533,-72.5522 L 6.18553,-72.7226 L 6.28647,-72.8817
 L 6.40654,-73.0268 L 6.54385,-73.1558 L 6.69626,-73.2665 L 6.86133,-73.3572 L 7.03647,-73.4266 L 7.21892,-73.4734
 L 7.40581,-73.497 L 7.59418,-73.497 L 7.78107,-73.4734 L 7.96352,-73.4266 L 8.13866,-73.3572 L 8.30373,-73.2665
 L 8.45613,-73.1558 L 8.59344,-73.0268 L 8.71352,-72.8817 L 8.81445,-72.7226 L 8.89465,-72.5522 L 8.95287,-72.373
 L 8.98816,-72.188 L 9,-72 L 8.98816,-71.812 L 8.95287,-71.627 L 8.89465,-71.4478 L 8.81445,-71.2774
 L 8.71352,-71.1183 L 8.59344,-70.9732 L 8.45613,-70.8442 L 8.30373,-70.7335 L 8.13866,-70.6428 L 7.96352,-70.5734
 L 7.78107,-70.5266 L 7.59418,-70.503 z
M 97.4058,-70.503 L 97.2189,-70.5266 L 97.0365,-70.5734 L 96.8613,-70.6428 L 96.6963,-70.7335 L 96.5439,-70.8442
 L 96.4065,-70.9732 L 96.2865,-71.1183 L 96.1855,-71.2774 L 96.1053,-71.4478 L 96.0471,-71.627 L 96.0118,-71.812
 L 96,-72 L 96.0118,-72.188 L 96.0471,-72.373 L 96.1053,-72.5522 L 96.1855,-72.7226 L 96.2865,-72.8817
 L 96.4065,-73.0268 L 96.5439,-73.1558 L 96.6963,-73.2665 L 96.8613,-73.3572 L 97.0365,-73.4266 L 97.2189,-73.4734
 L 97.4058,-73.497 L 97.5942,-73.497 L 97.7811,-73.4734 L 97.9635,-73.4266 L 98.1387,-73.3572 L 98.3037,-73.2665
 L 98.4561,-73.1558 L 98.5934,-73.0268 L 98.7135,-72.8817 L 98.8145,-72.7226 L 98.8947,-72.5522 L 98.9529,-72.373
 L 98.9882,-72.188 L 99,-72 L 98.9882,-71.812 L 98.9529,-71.627 L 98.8947,-71.4478 L 98.8145,-71.2774
 L 98.7135,-71.1183 L 98.5934,-70.9732 L 98.4561,-70.8442 L 98.3037,-70.7335 L 98.1387,-70.6428 L 97.9635,-70.5734
 L 97.7811,-70.5266 L 97.5942,-70.503 z
M 37.4058,-70.503 L 37.2189,-70.5266 L 37.0365,-70.5734 L 36.8613,-70.6428 L 36.6963,-70.7335 L 36.5439,-70.8442
 L 36.4065,-70.9732 L 36.2865,-71.1183 L 36.1855,-71.2774 L 36.1053,-71.4478 L 36.0471,-71.627 L 36.0118,-71.812
 L 36,-72 L 36.0118,-72.188 L 36.0471,-72.373 L 36.1053,-72.5522 L 36.1855,-72.7226 L 36.2865,-72.8817
 L 36.4065,-73.0268 L 36.5439,-73.1558 L 36.6963,-73.2665 L 36.8613,-73.3572 L 37.0365,-73.4266 L 37.2189,-73.4734
 L 37.4058,-73.497 L 37.5942,-73.497 L 37.7811,-73.4734 L 37.9635,-73.4266 L 38.1387,-73.3572 L 38.3037,-73.2665
 L 38.4561,-73.1558 L 38.5934,-73.0268 L 38.7135,-72.8817 L 38.8145,-72.7226 L 38.8947,-72.5522 L 38.9529,-72.373
 L 38.9882,-72.188 L 39,-72 L 38.9882,-71.812 L 38.9529,-71.627 L 38.8947,-71.4478 L 38.8145,-71.2774
 L 38.7135,-71.1183 L 38.5934,-70.9732 L 38.4561,-70.8442 L 38.3037,-70.7335 L 38.1387,-70.6428 L 37.9635,-70.5734
 L 37.7811,-70.5266 L 37.5942,-70.503 z
M -52.5942,-70.503 L -52.7811,-70.5266 L -52.9635,-70.5734 L -53.1387,-70.6428 L -53.3037,-70.7335 L -53.4561,-70.8442
 L -53.5934,-70.9732 L -53.7135,-71.1183 L -53.8145,-71.2774 L -53.8947,-71.4478 L -53.9529,-71.627 L -53.9882,-71.812
 L -54,-72 L -53.9882,-72.188 L -53.9529,-72.373 L -53.8947,-72.5522 L -53.8145,-72.7226 L -53.7135,-72.8817
 L -53.5934,-73.0268 L -53.4561,-73.1558 L -53.3037,-73.2665 L -53.1387,-73.3572 L -52.9635,-73.4266 L -52.7811,-73.4734
 L -52.5942,-73.497 L -52.4058,-73.497 L -52.2189,-73.4734 L -52.0365,-73.4266 L -51.8613,-73.3572 L -51.6963,-73.2665
 L -51.5439,-73.1558 L -51.4065,-73.0268 L -51.2865,-72.8817 L -51.1855,-72.7226 L -51.1053,-72.5522 L -51.0471,-72.373
 L -51.0118,-72.188 L -51,-72 L -51.0118,-71.812 L -51.0471,-71.627 L -51.1053,-71.4478 L -51.1855,-71.2774
 L -51.2865,-71.1183 L -51.4065,-70.9732 L -51.5439,-70.8442 L -51.6963,-70.7335 L -51.8613,-70.6428 L -52.0365,-70.5734
 L -52.2189,-70.5266 L -52.4058,-70.503 z
M -97.5942,-70.503 L -97.7811,-70.5266 L -97.9635,-70.5734 L -98.1387,-70.6428 L -98.3037,-70.7335 L -98.4561,-70.8442
 L -98.5934,-70.9732 L -98.7135,-71.1183 L -98.8145,-71.2774 L -98.8947,-71.4478 L -98.9529,-71.627 L -98.9882,-71.812
 L -99,-72 L -98.9882,-72.188 L -98.9529,-72.373 L -98.8947,-72.5522 L -98.8145,-72.7226 L -98.7135,-72.8817
 L -98.5934,-73.0268 L -98.4561,-73.1558 L -98.3037,-73.2665 L -98.1387,-73.3572 L -97.9635,-73.4266 L -97.7811,-73.4734
 L -97.5942,-73.497 L -97.4058,-73.497 L -97.2189,-73.4734 L -97.0365,-73.4266 L -96.8613,-73.3572 L -96.6963,-73.2665
 L -96.5439,-73.1558 L -96.4065,-73.0268 L -96.2865,-72.8817 L -96.1855,-72.7226 L -96.1053,-72.5522 L -96.0471,-72.373
 L -96.0118,-72.188 L -96,-72 L -96.0118,-71.812 L -96.0471,-71.627 L -96.1053,-71.4478 L -96.1855,-71.2774
 L -96.2865,-71.1183 L -96.4065,-70.9732 L -96.5439,-70.8442 L -96.6963,-70.7335 L -96.8613,-70.6428 L -97.0365,-70.5734
 L -97.2189,-70.5266 L -97.4058,-70.503 z
M 112.406,-70.503 L 112.219,-70.5266 L 112.036,-70.5734 L 111.861,-70.6428 L 111.696,-70.7335 L 111.544,-70.8442
 L 111.407,-70.9732 L 111.286,-71.1183 L 111.186,-71.2774 L 111.105,-71.4478 L 111.047,-71.627 L 111.012,-71.812
 L 111,-72 L 111.012,-72.188 L 111.047,-72.373 L 111.105,-72.5522 L 111.186,-72.7226 L 111.286,-72.8817
 L 111.407,-73.0268 L 111.544,-73.1558 L 111.696,-73.2665 L 111.861,-73.3572 L 112.036,-73.4266 L 112.219,-73.4734
 L 112.406,-73.497 L 112.594,-73.497 L 112.781,-73.4734 L 112.964,-73.4266 L 113.139,-73.3572 L 113.304,-73.2665
 L 113.456,-73.1558 L 113.593,-73.0268 L 113.714,-72.8817 L 113.814,-72.7226 L 113.895,-72.5522 L 113.953,-72.373
 L 113.988,-72.188 L 114,-72 L 113.988,-71.812 L 113.953,-71.627 L 113.895,-71.4478 L 113.814,-71.2774
 L 113.714,-71.1183 L 113.593,-70.9732 L 113.456,-70.8442 L 113.304,-70.7335 L 113.139,-70.6428 L 112.964,-70.5734
 L 112.781,-70.5266 L 112.594,-70.503 z
M -127.594,-70.503 L -127.781,-70.5266 L -127.964,-70.5734 L -128.139,-70.6428 L -128.304,-70.7335 L -128.456,-70.8442
 L -128.593,-70.9732 L -128.714,-71.1183 L -128.814,-71.2774 L -128.895,-71.4478 L -128.953,-71.627 L -128.988,-71.812
 L -129,-72 L -128.988,-72.188 L -128.953,-72.373 L -128.895,-72.5522 L -128.814,-72.7226 L -128.714,-72.8817
 L -128.593,-73.0268 L -128.456,-73.1558 L -128.304,-73.2665 L -128.139,-73.3572 L -127.964,-73.4266 L -127.781,-73.4734
 L -127.594,-73.497 L -127.406,-73.497 L -127.219,-73.4734 L -127.036,-73.4266 L -126.861,-73.3572 L -126.696,-73.2665
 L -126.544,-73.1558 L -126.407,-73.0268 L -126.286,-72.8817 L -126.186,-72.7226 L -126.105,-72.5522 L -126.047,-72.373
 L -126.012,-72.188 L -126,-72 L -126.012,-71.812 L -126.047,-71.627 L -126.105,-71.4478 L -126.186,-71.2774
 L -126.286,-71.1183 L -126.407,-70.9732 L -126.544,-70.8442 L -126.696,-70.7335 L -126.861,-70.6428 L -127.036,-70.5734
 L -127.219,-70.5266 L -127.406,-70.503 z
M 127.406,-70.503 L 127.219,-70.5266 L 127.036,-70.5734 L 126.861,-70.6428 L 126.696,-70.7335 L 126.544,-70.8442
 L 126.407,-70.9732 L 126.286,-71.1183 L 126.186,-71.2774 L 126.105,-71.4478 L 126.047,-71.627 L 126.012,-71.812
 L 126,-72 L 126.012,-72.188 L 126.047,-72.373 L 126.105,-72.5522 L 126.186,-72.7226 L 126.286,-72.8817
 L 126.407,-73.0268 L 126.544,-73.1558 L 126.696,-73.2665 L 126.861,-73.3572 L 127.036,-73.4266 L 127.219,-73.4734
 L 127.406,-73.497 L 127.594,-73.497 L 127.781,-73.4734 L 127.964,-73.4266 L 128.139,-73.3572 L 128.304,-73.2665
 L 128.456,-73.1558 L 128.593,-73.0268 L 128.714,-72.8817 L 128.814,-72.7226 L 128.895,-72.5522 L 128.953,-72.373
 L 128.988,-72.188 L 129,-72 L 128.988,-71.812 L 128.953,-71.627 L 128.895,-71.4478 L 128.814,-71.2774
 L 128.714,-71.1183 L 128.593,-70.9732 L 128.456,-70.8442 L 128.304,-70.7335 L 128.139,-70.6428 L 127.964,-70.5734
 L 127.781,-70.5266 L 127.594,-70.503 z
M -22.5942,-70.503 L -22.7811,-70.5266 L -22.9635,-70.5734 L -23.1387,-70.6428 L -23.3037,-70.7335 L -23.4561,-70.8442
 L -23.5934,-70.9732 L -23.7135,-71.1183 L -23.8145,-71.2774 L -23.8947,-71.4478 L -23.9529,-71.627 L -23.9882,-71.812
 L -24,-72 L -23.9882,-72.188 L -23.9529,-72.373 L -23.8947,-72.5522 L -23.8145,-72.7226 L -23.7135,-72.8817
 L -23.5934,-73.0268 L -23.4561,-73.1558 L -23.3037,-73.2665 L -23.1387,-73.3572 L -22.9635,-73.4266 L -22.7811,-73.4734
 L -22.5942,-73.497 L -22.4058,-73.497 L -22.2189,-73.4734 L -22.0365,-73.4266 L -21.8613,-73.3572 L -21.6963,-73.2665
 L -21.5439,-73.1558 L -21.4065,-73.0268 L -21.2865,-72.8817 L -21.1855,-72.7226 L -21.1053,-72.5522 L -21.0471,-72.373
 L -21.0118,-72.188 L -21,-72 L -21.0118,-71.812 L -21.0471,-71.627 L -21.1053,-71.4478 L -21.1855,-71.2774
 L -21.2865,-71.1183 L -21.4065,-70.9732 L -21.5439,-70.8442 L -21.6963,-70.7335 L -21.8613,-70.6428 L -22.0365,-70.5734
 L -22.2189,-70.5266 L -22.4058,-70.503 z
M 22.4058,-70.503 L 22.2189,-70.5266 L 22.0365,-70.5734 L 21.8613,-70.6428 L 21.6963,-70.7335 L 21.5439,-70.8442
 L 21.4065,-70.9732 L 21.2865,-71.1183 L 21.1855,-71.2774 L 21.1053,-71.4478 L 21.0471,-71.627 L 21.0118,-71.812
 L 21,-72 L 21.0118,-72.188 L 21.0471,-72.373 L 21.1053,-72.5522 L 21.1855,-72.7226 L 21.2865,-72.8817
 L 21.4065,-73.0268 L 21.5439,-73.1558 L 21.6963,-73.2665 L 21.8613,-73.3572 L 22.0365,-73.4266 L 22.2189,-73.4734
 L 22.4058,-73.497 L 22.5942,-73.497 L 22.7811,-73.4734 L 22.9635,-73.4266 L 23.1387,-73.3572 L 23.3037,-73.2665
 L 23.4561,-73.1558 L 23.5934,-73.0268 L 23.7135,-72.8817 L 23.8145,-72.7226 L 23.8947,-72.5522 L 23.9529,-72.373
 L 23.9882,-72.188 L 24,-72 L 23.9882,-71.812 L 23.9529,-71.627 L 23.8947,-71.4478 L 23.8145,-71.2774
 L 23.7135,-71.1183 L 23.5934,-70.9732 L 23.4561,-70.8442 L 23.3037,-70.7335 L 23.1387,-70.6428 L 22.9635,-70.5734
 L 22.7811,-70.5266 L 22.5942,-70.503 z
M -82.5942,-70.503 L -82.7811,-70.5266 L -82.9635,-70.5734 L -83.1387,-70.6428 L -83.3037,-70.7335 L -83.4561,-70.8442
 L -83.5934,-70.9732 L -83.7135,-71.1183 L -83.8145,-71.2774 L -83.8947,-71.4478 L -83.9529,-71.627 L -83.9882,-71.812
 L -84,-72 L -83.9882,-72.188 L -83.9529,-72.373 L -83.8947,-72.5522 L -83.8145,-72.7226 L -83.7135,-72.8817
 L -83.5934,-73.0268 L -83.4561,-73.1558 L -83.3037,-73.2665 L -83.1387,-73.3572 L -82.9635,-73.4266 L -82.7811,-73.4734
 L -82.5942,-73.497 L -82.4058,-73.497 L -82.2189,-73.4734 L -82.0365,-73.4266 L -81.8613,-73.3572 L -81.6963,-73.2665
 L -81.5439,-73.1558 L -81.4065,-73.0268 L -81.2865,-72.8817 L -81.1855,-72.7226 L -81.1053,-72.5522 L -81.0471,-72.373
 L -81.0118,-72.188 L -81,-72 L -81.0118,-71.812 L -81.0471,-71.627 L -81.1053,-71.4478 L -81.1855,-71.2774
 L -81.2865,-71.1183 L -81.4065,-70.9732 L -81.5439,-70.8442 L -81.6963,-70.7335 L -81.8613,-70.6428 L -82.0365,-70.5734
 L -82.2189,-70.5266 L -82.4058,-70.503 z
M -37.5942,-70.503 L -37.7811,-70.5266 L -37.9635,-70.5734 L -38.1387,-70.6428 L -38.3037,-70.7335 L -38.4561,-70.8442
 L -38.5934,-70.9732 L -38.7135,-71.1183 L -38.8145,-71.2774 L -38.8947,-71.4478 L -38.9529,-71.627 L -38.9882,-71.812
 L -39,-72 L -38.9882,-72.188 L -38.9529,-72.373 L -38.8947,-72.5522 L -38.8145,-72.7226 L -38.7135,-72.8817
 L -38.5934,-73.0268 L -38.4561,-73.1558 L -38.3037,-73.2665 L -38.1387,-73.3572 L -37.9635,-73.4266 L -37.7811,-73.4734
 L -37.5942,-73.497 L -37.4058,-73.497 L -37.2189,-73.4734 L -37.0365,-73.4266 L -36.8613,-73.3572 L -36.6963,-73.2665
 L -36.5439,-73.1558 L -36.4065,-73.0268 L -36.2865,-72.8817 L -36.1855,-72.7226 L -36.1053,-72.5522 L -36.0471,-72.373
 L -36.0118,-72.188 L -36,-72 L -36.0118,-71.812 L -36.0471,-71.627 L -36.1053,-71.4478 L -36.1855,-71.2774
 L -36.2865,-71.1183 L -36.4065,-70.9732 L -36.5439,-70.8442 L -36.6963,-70.7335 L -36.8613,-70.6428 L -37.0365,-70.5734
 L -37.2189,-70.5266 L -37.4058,-70.503 z
M 52.4058,-70.503 L 52.2189,-70.5266 L 52.0365,-70.5734 L 51.8613,-70.6428 L 51.6963,-70.7335 L 51.5439,-70.8442
 L 51.4065,-70.9732 L 51.2865,-71.1183 L 51.1855,-71.2774 L 51.1053,-71.4478 L 51.0471,-71.627 L 51.0118,-71.812
 L 51,-72 L 51.0118,-72.188 L 51.0471,-72.373 L 51.1053,-72.5522 L 51.1855,-72.7226 L 51.2865,-72.8817
 L 51.4065,-73.0268 L 51.5439,-73.1558 L 51.6963,-73.2665 L 51.8613,-73.3572 L 52.0365,-73.4266 L 52.2189,-73.4734
 L 52.4058,-73.497 L 52.5942,-73.497 L 52.7811,-73.4734 L 52.9635,-73.4266 L 53.1387,-73.3572 L 53.3037,-73.2665
 L 53.4561,-73.1558 L 53.5934,-73.0268 L 53.7135,-72.8817 L 53.8145,-72.7226 L 53.8947,-72.5522 L 53.9529,-72.373
 L 53.9882,-72.188 L 54,-72 L 53.9882,-71.812 L 53.9529,-71.627 L 53.8947,-71.4478 L 53.8145,-71.2774
 L 53.7135,-71.1183 L 53.5934,-70.9732 L 53.4561,-70.8442 L 53.3037,-70.7335 L 53.1387,-70.6428 L 52.9635,-70.5734
 L 52.7811,-70.5266 L 52.5942,-70.503 z
M 82.4058,-70.503 L 82.2189,-70.5266 L 82.0365,-70.5734 L 81.8613,-70.6428 L 81.6963,-70.7335 L 81.5439,-70.8442
 L 81.4065,-70.9732 L 81.2865,-71.1183 L 81.1855,-71.2774 L 81.1053,-71.4478 L 81.0471,-71.627 L 81.0118,-71.812
 L 81,-72 L 81.0118,-72.188 L 81.0471,-72.373 L 81.1053,-72.5522 L 81.1855,-72.7226 L 81.2865,-72.8817
 L 81.4065,-73.0268 L 81.5439,-73.1558 L 81.6963,-73.2665 L 81.8613,-73.3572 L 82.0365,-73.4266 L 82.2189,-73.4734
 L 82.4058,-73.497 L 82.5942,-73.497 L 82.7811,-73.4734 L 82.9635,-73.4266 L 83.1387,-73.3572 L 83.3037,-73.2665
 L 83.4561,-73.1558 L 83.5934,-73.0268 L 83.7135,-72.8817 L 83.8145,-72.7226 L 83.8947,-72.5522 L 83.9529,-72.373
 L 83.9882,-72.188 L 84,-72 L 83.9882,-71.812 L 83.9529,-71.627 L 83.8947,-71.4478 L 83.8145,-71.2774
 L 83.7135,-71.1183 L 83.5934,-70.9732 L 83.4561,-70.8442 L 83.3037,-70.7335 L 83.1387,-70.6428 L 82.9635,-70.5734
 L 82.7811,-70.5266 L 82.5942,-70.503 z
M -67.5942,-70.503 L -67.7811,-70.5266 L -67.9635,-70.5734 L -68.1387,-70.6428 L -68.3037,-70.7335 L -68.4561,-70.8442
 L -68.5934,-70.9732 L -68.7135,-71.1183 L -68.8145,-71.2774 L -68.8947,-71.4478 L -68.9529,-71.627 L -68.9882,-71.812
 L -69,-72 L -68.9882,-72.188 L -68.9529,-72.373 L -68.8947,-72.5522 L -68.8145,-72.7226 L -68.7135,-72.8817
 L -68.5934,-73.0268 L -68.4561,-73.1558 L -68.3037,-73.2665 L -68.1387,-73.3572 L -67.9635,-73.4266 L -67.7811,-73.4734
 L -67.5942,-73.497 L -67.4058,-73.497 L -67.2189,-73.4734 L -67.0365,-73.4266 L -66.8613,-73.3572 L -66.6963,-73.2665
 L -66.5439,-73.1558 L -66.4065,-73.0268 L -66.2865,-72.8817 L -66.1855,-72.7226 L -66.1053,-72.5522 L -66.0471,-72.373
 L -66.0118,-72.188 L -66,-72 L -66.0118,-71.812 L -66.0471,-71.627 L -66.1053,-71.4478 L -66.1855,-71.2774
 L -66.2865,-71.1183 L -66.4065,-70.9732 L -66.5439,-70.8442 L -66.6963,-70.7335 L -66.8613,-70.6428 L -67.0365,-70.5734
 L -67.2189,-70.5266 L -67.4058,-70.503 z
M 67.4058,-70.503 L 67.2189,-70.5266 L 67.0365,-70.5734 L 66.8613,-70.6428 L 66.6963,-70.7335 L 66.5439,-70.8442
 L 66.4065,-70.9732 L 66.2865,-71.1183 L 66.1855,-71.2774 L 66.1053,-71.4478 L 66.0471,-71.627 L 66.0118,-71.812
 L 66,-72 L 66.0118,-72.188 L 66.0471,-72.373 L 66.1053,-72.5522 L 66.1855,-72.7226 L 66.2865,-72.8817
 L 66.4065,-73.0268 L 66.5439,-73.1558 L 66.6963,-73.2665 L 66.8613,-73.3572 L 67.0365,-73.4266 L 67.2189,-73.4734
 L 67.4058,-73.497 L 67.5942,-73.497 L 67.7811,-73.4734 L 67.9635,-73.4266 L 68.1387,-73.3572 L 68.3037,-73.2665
 L 68.4561,-73.1558 L 68.5934,-73.0268 L 68.7135,-72.8817 L 68.8145,-72.7226 L 68.8947,-72.5522 L 68.9529,-72.373
 L 68.9882,-72.188 L 69,-72 L 68.9882,-71.812 L 68.9529,-71.627 L 68.8947,-71.4478 L 68.8145,-71.2774
 L 68.7135,-71.1183 L 68.5934,-70.9732 L 68.4561,-70.8442 L 68.3037,-70.7335 L 68.1387,-70.6428 L 67.9635,-70.5734
 L 67.7811,-70.5266 L 67.5942,-70.503 z
M -7.59418,-70.503 L -7.78107,-70.5266 L -7.96352,-70.5734 L -8.13866,-70.6428 L -8.30373,-70.7335 L -8.45613,-70.8442
 L -8.59344,-70.9732 L -8.71352,-71.1183 L -8.81445,-71.2774 L -8.89465,-71.4478 L -8.95287,-71.627 L -8.98816,-71.812
 L -9,-72 L -8.98816,-72.188 L -8.95287,-72.373 L -8.89465,-72.5522 L -8.81445,-72.7226 L -8.71352,-72.8817
 L -8.59344,-73.0268 L -8.45613,-73.1558 L -8.30373,-73.2665 L -8.13866,-73.3572 L -7.96352,-73.4266 L -7.78107,-73.4734
 L -7.59418,-73.497 L -7.40581,-73.497 L -7.21892,-73.4734 L -7.03647,-73.4266 L -6.86133,-73.3572 L -6.69626,-73.2665
 L -6.54385,-73.1558 L -6.40654,-73.0268 L -6.28647,-72.8817 L -6.18553,-72.7226 L -6.10533,-72.5522 L -6.04712,-72.373
 L -6.01183,-72.188 L -6,-72 L -6.01183,-71.812 L -6.04712,-71.627 L -6.10533,-71.4478 L -6.18553,-71.2774
 L -6.28647,-71.1183 L -6.40654,-70.9732 L -6.54385,-70.8442 L -6.69626,-70.7335 L -6.86133,-70.6428 L -7.03647,-70.5734
 L -7.21892,-70.5266 L -7.40581,-70.503 z
M 21.1278,-47.4 L 21.1053,-47.4478 L 21.0471,-47.627 L 21.0118,-47.812 L 21,-48 L 21.0118,-48.188
 L 21.0471,-48.373 L 21.1053,-48.5522 L 21.1278,-48.6 L 21.1278,-54.9951 L 17.9336,-54.9951 L 17.9336,-41.0049
 L 21.1278,-41.0049 z
M -17.9336,-54.9951 L -21.1278,-54.9951 L -21.1278,-48.6 L -21.1053,-48.5522 L -21.0471,-48.373 L -21.0118,-48.188
 L -21,-48 L -21.0118,-47.812 L -21.0471,-47.627 L -21.1053,-47.4478 L -21.1278,-47.4 L -21.1278,-41.0049
 L -17.9336,-41.0049 z
M -8.87216,-47.4 L -8.89465,-47.4478 L -8.95287,-47.627 L -8.98816,-47.812 L -9,-48 L -8.98816,-48.188
 L -8.95287,-48.373 L -8.89465,-48.5522 L -8.87216,-48.6 L -8.87216,-54.9951 L -12.0664,-54.9951 L -12.0664,-41.0049
 L -8.87216,-41.0049 z
M -107.934,-54.9951 L -111.128,-54.9951 L -111.128,-48.6 L -111.105,-48.5522 L -111.047,-48.373 L -111.012,-48.188
 L -111,-48 L -111.012,-47.812 L -111.047,-47.627 L -111.105,-47.4478 L -111.128,-47.4 L -111.128,-41.0049
 L -107.934,-41.0049 z
M 139.968,-41.0443 L 140.273,-41.1224 L 140.564,-41.2379 L 140.84,-41.3892 L 141.094,-41.5737 L 141.322,-41.7886
 L 141.523,-42.0305 L 141.691,-42.2956 L 141.824,-42.5797 L 141.921,-42.8783 L 141.98,-43.1867 L 142,-43.5
 L 142,-52.5 L 141.98,-52.8133 L 141.921,-53.1217 L 141.824,-53.4203 L 141.691,-53.7044 L 141.523,-53.9695
 L 141.322,-54.2114 L 141.094,-54.4263 L 140.84,-54.6108 L 140.564,-54.7621 L 140.273,-54.8776 L 139.968,-54.9557
 L 139.657,-54.9951 L 137.934,-54.9951 L 137.934,-41.0049 L 139.657,-41.0049 z
M -53.8722,-47.4 L -53.8947,-47.4478 L -53.9529,-47.627 L -53.9882,-47.812 L -54,-48 L -53.9882,-48.188
 L -53.9529,-48.373 L -53.8947,-48.5522 L -53.8722,-48.6 L -53.8722,-54.9951 L -66.1278,-54.9951 L -66.1278,-48.6
 L -66.1053,-48.5522 L -66.0471,-48.373 L -66.0118,-48.188 L -66,-48 L -66.0118,-47.812 L -66.0471,-47.627
 L -66.1053,-47.4478 L -66.1278,-47.4 L -66.1278,-41.0049 L -53.8722,-41.0049 z
M -60.1884,-45.0059 L -60.5621,-45.0531 L -60.927,-45.1468 L -61.2773,-45.2855 L -61.6075,-45.467 L -61.9123,-45.6885
 L -62.1869,-45.9464 L -62.427,-46.2366 L -62.6289,-46.5547 L -62.7893,-46.8956 L -62.9057,-47.2539 L -62.9763,-47.624
 L -63,-48 L -62.9763,-48.376 L -62.9057,-48.7461 L -62.7893,-49.1044 L -62.6289,-49.4453 L -62.427,-49.7634
 L -62.1869,-50.0536 L -61.9123,-50.3115 L -61.6075,-50.533 L -61.2773,-50.7145 L -60.927,-50.8532 L -60.5621,-50.9469
 L -60.1884,-50.9941 L -59.8116,-50.9941 L -59.4379,-50.9469 L -59.0729,-50.8532 L -58.7227,-50.7145 L -58.3925,-50.533
 L -58.0877,-50.3115 L -57.8131,-50.0536 L -57.5729,-49.7634 L -57.3711,-49.4453 L -57.2107,-49.1044 L -57.0942,-48.7461
 L -57.0237,-48.376 L -57,-48 L -57.0237,-47.624 L -57.0942,-47.2539 L -57.2107,-46.8956 L -57.3711,-46.5547
 L -57.5729,-46.2366 L -57.8131,-45.9464 L -58.0877,-45.6885 L -58.3925,-45.467 L -58.7227,-45.2855 L -59.0729,-45.1468
 L -59.4379,-45.0531 L -59.8116,-45.0059 z
M -23.8722,-47.4 L -23.8947,-47.4478 L -23.9529,-47.627 L -23.9882,-47.812 L -24,-48 L -23.9882,-48.188
 L -23.9529,-48.373 L -23.8947,-48.5522 L -23.8722,-48.6 L -23.8722,-54.9951 L -36.1278,-54.9951 L -36.1278,-48.6
 L -36.1053,-48.5522 L -36.0471,-48.373 L -36.0118,-48.188 L -36,-48 L -36.0118,-47.812 L -36.0471,-47.627
 L -36.1053,-47.4478 L -36.1278,-47.4 L -36.1278,-41.0049 L -23.8722,-41.0049 z
M -30.1884,-45.0059 L -30.5621,-45.0531 L -30.927,-45.1468 L -31.2773,-45.2855 L -31.6075,-45.467 L -31.9123,-45.6885
 L -32.1869,-45.9464 L -32.427,-46.2366 L -32.6289,-46.5547 L -32.7893,-46.8956 L -32.9057,-47.2539 L -32.9763,-47.624
 L -33,-48 L -32.9763,-48.376 L -32.9057,-48.7461 L -32.7893,-49.1044 L -32.6289,-49.4453 L -32.427,-49.7634
 L -32.1869,-50.0536 L -31.9123,-50.3115 L -31.6075,-50.533 L -31.2773,-50.7145 L -30.927,-50.8532 L -30.5621,-50.9469
 L -30.1884,-50.9941 L -29.8116,-50.9941 L -29.4379,-50.9469 L -29.0729,-50.8532 L -28.7227,-50.7145 L -28.3925,-50.533
 L -28.0877,-50.3115 L -27.8131,-50.0536 L -27.5729,-49.7634 L -27.3711,-49.4453 L -27.2107,-49.1044 L -27.0942,-48.7461
 L -27.0237,-48.376 L -27,-48 L -27.0237,-47.624 L -27.0942,-47.2539 L -27.2107,-46.8956 L -27.3711,-46.5547
 L -27.5729,-46.2366 L -27.8131,-45.9464 L -28.0877,-45.6885 L -28.3925,-45.467 L -28.7227,-45.2855 L -29.0729,-45.1468
 L -29.4379,-45.0531 L -29.8116,-45.0059 z
M 66.1278,-47.4 L 66.1053,-47.4478 L 66.0471,-47.627 L 66.0118,-47.812 L 66,-48 L 66.0118,-48.188
 L 66.0471,-48.373 L 66.1053,-48.5522 L 66.1278,-48.6 L 66.1278,-54.9951 L 53.8722,-54.9951 L 53.8722,-48.6
 L 53.8947,-48.5522 L 53.9529,-48.373 L 53.9882,-48.188 L 54,-48 L 53.9882,-47.812 L 53.9529,-47.627
 L 53.8947,-47.4478 L 53.8722,-47.4 L 53.8722,-41.0049 L 66.1278,-41.0049 z
M 59.8116,-45.0059 L 59.4379,-45.0531 L 59.0729,-45.1468 L 58.7227,-45.2855 L 58.3925,-45.467 L 58.0877,-45.6885
 L 57.8131,-45.9464 L 57.5729,-46.2366 L 57.3711,-46.5547 L 57.2107,-46.8956 L 57.0942,-47.2539 L 57.0237,-47.624
 L 57,-48 L 57.0237,-48.376 L 57.0942,-48.7461 L 57.2107,-49.1044 L 57.3711,-49.4453 L 57.5729,-49.7634
 L 57.8131,-50.0536 L 58.0877,-50.3115 L 58.3925,-50.533 L 58.7227,-50.7145 L 59.0729,-50.8532 L 59.4379,-50.9469
 L 59.8116,-50.9941 L 60.1884,-50.9941 L 60.5621,-50.9469 L 60.927,-50.8532 L 61.2773,-50.7145 L 61.6075,-50.533
 L 61.9123,-50.3115 L 62.1869,-50.0536 L 62.427,-49.7634 L 62.6289,-49.4453 L 62.7893,-49.1044 L 62.9057,-48.7461
 L 62.9763,-48.376 L 63,-48 L 62.9763,-47.624 L 62.9057,-47.2539 L 62.7893,-46.8956 L 62.6289,-46.5547
 L 62.427,-46.2366 L 62.1869,-45.9464 L 61.9123,-45.6885 L 61.6075,-45.467 L 61.2773,-45.2855 L 60.927,-45.1468
 L 60.5621,-45.0531 L 60.1884,-45.0059 z
M 126.128,-47.4 L 126.105,-47.4478 L 126.047,-47.627 L 126.012,-47.812 L 126,-48 L 126.012,-48.188
 L 126.047,-48.373 L 126.105,-48.5522 L 126.128,-48.6 L 126.128,-54.9951 L 113.872,-54.9951 L 113.872,-48.6
 L 113.895,-48.5522 L 113.953,-48.373 L 113.988,-48.188 L 114,-48 L 113.988,-47.812 L 113.953,-47.627
 L 113.895,-47.4478 L 113.872,-47.4 L 113.872,-41.0049 L 126.128,-41.0049 z
M 119.812,-45.0059 L 119.438,-45.0531 L 119.073,-45.1468 L 118.723,-45.2855 L 118.393,-45.467 L 118.088,-45.6885
 L 117.813,-45.9464 L 117.573,-46.2366 L 117.371,-46.5547 L 117.211,-46.8956 L 117.094,-47.2539 L 117.024,-47.624
 L 117,-48 L 117.024,-48.376 L 117.094,-48.7461 L 117.211,-49.1044 L 117.371,-49.4453 L 117.573,-49.7634
 L 117.813,-50.0536 L 118.088,-50.3115 L 118.393,-50.533 L 118.723,-50.7145 L 119.073,-50.8532 L 119.438,-50.9469
 L 119.812,-50.9941 L 120.188,-50.9941 L 120.562,-50.9469 L 120.927,-50.8532 L 121.277,-50.7145 L 121.607,-50.533
 L 121.912,-50.3115 L 122.187,-50.0536 L 122.427,-49.7634 L 122.629,-49.4453 L 122.789,-49.1044 L 122.906,-48.7461
 L 122.976,-48.376 L 123,-48 L 122.976,-47.624 L 122.906,-47.2539 L 122.789,-46.8956 L 122.629,-46.5547
 L 122.427,-46.2366 L 122.187,-45.9464 L 121.912,-45.6885 L 121.607,-45.467 L 121.277,-45.2855 L 120.927,-45.1468
 L 120.562,-45.0531 L 120.188,-45.0059 z
M -83.8722,-47.4 L -83.8947,-47.4478 L -83.9529,-47.627 L -83.9882,-47.812 L -84,-48 L -83.9882,-48.188
 L -83.9529,-48.373 L -83.8947,-48.5522 L -83.8722,-48.6 L -83.8722,-54.9951 L -96.1278,-54.9951 L -96.1278,-48.6
 L -96.1053,-48.5522 L -96.0471,-48.373 L -96.0118,-48.188 L -96,-48 L -96.0118,-47.812 L -96.0471,-47.627
 L -96.1053,-47.4478 L -96.1278,-47.4 L -96.1278,-41.0049 L -83.8722,-41.0049 z
M -90.1884,-45.0059 L -90.5621,-45.0531 L -90.927,-45.1468 L -91.2773,-45.2855 L -91.6075,-45.467 L -91.9123,-45.6885
 L -92.1869,-45.9464 L -92.427,-46.2366 L -92.6289,-46.5547 L -92.7893,-46.8956 L -92.9057,-47.2539 L -92.9763,-47.624
 L -93,-48 L -92.9763,-48.376 L -92.9057,-48.7461 L -92.7893,-49.1044 L -92.6289,-49.4453 L -92.427,-49.7634
 L -92.1869,-50.0536 L -91.9123,-50.3115 L -91.6075,-50.533 L -91.2773,-50.7145 L -90.927,-50.8532 L -90.5621,-50.9469
 L -90.1884,-50.9941 L -89.8116,-50.9941 L -89.4379,-50.9469 L -89.073,-50.8532 L -88.7227,-50.7145 L -88.3925,-50.533
 L -88.0877,-50.3115 L -87.8131,-50.0536 L -87.573,-49.7634 L -87.3711,-49.4453 L -87.2107,-49.1044 L -87.0943,-48.7461
 L -87.0237,-48.376 L -87,-48 L -87.0237,-47.624 L -87.0943,-47.2539 L -87.2107,-46.8956 L -87.3711,-46.5547
 L -87.573,-46.2366 L -87.8131,-45.9464 L -88.0877,-45.6885 L -88.3925,-45.467 L -88.7227,-45.2855 L -89.073,-45.1468
 L -89.4379,-45.0531 L -89.8116,-45.0059 z
M -113.872,-47.4 L -113.895,-47.4478 L -113.953,-47.627 L -113.988,-47.812 L -114,-48 L -113.988,-48.188
 L -113.953,-48.373 L -113.895,-48.5522 L -113.872,-48.6 L -113.872,-54.9951 L -126.128,-54.9951 L -126.128,-48.6
 L -126.105,-48.5522 L -126.047,-48.373 L -126.012,-48.188 L -126,-48 L -126.012,-47.812 L -126.047,-47.627
 L -126.105,-47.4478 L -126.128,-47.4 L -126.128,-41.0049 L -113.872,-41.0049 z
M -120.188,-45.0059 L -120.562,-45.0531 L -120.927,-45.1468 L -121.277,-45.2855 L -121.607,-45.467 L -121.912,-45.6885
 L -122.187,-45.9464 L -122.427,-46.2366 L -122.629,-46.5547 L -122.789,-46.8956 L -122.906,-47.2539 L -122.976,-47.624
 L -123,-48 L -122.976,-48.376 L -122.906,-48.7461 L -122.789,-49.1044 L -122.629,-49.4453 L -122.427,-49.7634
 L -122.187,-50.0536 L -121.912,-50.3115 L -121.607,-50.533 L -121.277,-50.7145 L -120.927,-50.8532 L -120.562,-50.9469
 L -120.188,-50.9941 L -119.812,-50.9941 L -119.438,-50.9469 L -119.073,-50.8532 L -118.723,-50.7145 L -118.393,-50.533
 L -118.088,-50.3115 L -117.813,-50.0536 L -117.573,-49.7634 L -117.371,-49.4453 L -117.211,-49.1044 L -117.094,-48.7461
 L -117.024,-48.376 L -117,-48 L -117.024,-47.624 L -117.094,-47.2539 L -117.211,-46.8956 L -117.371,-46.5547
 L -117.573,-46.2366 L -117.813,-45.9464 L -118.088,-45.6885 L -118.393,-45.467 L -118.723,-45.2855 L -119.073,-45.1468
 L -119.438,-45.0531 L -119.812,-45.0059 z
M 6.12782,-47.4 L 6.10533,-47.4478 L 6.04712,-47.627 L 6.01183,-47.812 L 6,-48 L 6.01183,-48.188
 L 6.04712,-48.373 L 6.10533,-48.5522 L 6.12782,-48.6 L 6.12782,-54.9951 L -6.12782,-54.9951 L -6.12782,-48.6
 L -6.10533,-48.5522 L -6.04712,-48.373 L -6.01183,-48.188 L -6,-48 L -6.01183,-47.812 L -6.04712,-47.627
 L -6.10533,-47.4478 L -6.12782,-47.4 L -6.12782,-41.0049 L 6.12782,-41.0049 z
M -0.18837,-45.0059 L -0.562134,-45.0531 L -0.927048,-45.1468 L -1.27733,-45.2855 L -1.60747,-45.467 L -1.91226,-45.6885
 L -2.1869,-45.9464 L -2.42705,-46.2366 L -2.62891,-46.5547 L -2.78932,-46.8956 L -2.90575,-47.2539 L -2.97633,-47.624
 L -3,-48 L -2.97633,-48.376 L -2.90575,-48.7461 L -2.78932,-49.1044 L -2.62891,-49.4453 L -2.42705,-49.7634
 L -2.1869,-50.0536 L -1.91226,-50.3115 L -1.60747,-50.533 L -1.27733,-50.7145 L -0.927048,-50.8532 L -0.562134,-50.9469
 L -0.18837,-50.9941 L 0.18837,-50.9941 L 0.562134,-50.9469 L 0.927048,-50.8532 L 1.27733,-50.7145 L 1.60747,-50.533
 L 1.91226,-50.3115 L 2.1869,-50.0536 L 2.42705,-49.7634 L 2.62891,-49.4453 L 2.78932,-49.1044 L 2.90575,-48.7461
 L 2.97633,-48.376 L 3,-48 L 2.97633,-47.624 L 2.90575,-47.2539 L 2.78932,-46.8956 L 2.62891,-46.5547
 L 2.42705,-46.2366 L 2.1869,-45.9464 L 1.91226,-45.6885 L 1.60747,-45.467 L 1.27733,-45.2855 L 0.927048,-45.1468
 L 0.562134,-45.0531 L 0.18837,-45.0059 z
M 36.1278,-47.4 L 36.1053,-47.4478 L 36.0471,-47.627 L 36.0118,-47.812 L 36,-48 L 36.0118,-48.188
 L 36.0471,-48.373 L 36.1053,-48.5522 L 36.1278,-48.6 L 36.1278,-54.9951 L 23.8722,-54.9951 L 23.8722,-48.6
 L 23.8947,-48.5522 L 23.9529,-48.373 L 23.9882,-48.188 L 24,-48 L 23.9882,-47.812 L 23.9529,-47.627
 L 23.8947,-47.4478 L 23.8722,-47.4 L 23.8722,-41.0049 L 36.1278,-41.0049 z
M 29.8116,-45.0059 L 29.4379,-45.0531 L 29.0729,-45.1468 L 28.7227,-45.2855 L 28.3925,-45.467 L 28.0877,-45.6885
 L 27.8131,-45.9464 L 27.5729,-46.2366 L 27.3711,-46.5547 L 27.2107,-46.8956 L 27.0942,-47.2539 L 27.0237,-47.624
 L 27,-48 L 27.0237,-48.376 L 27.0942,-48.7461 L 27.2107,-49.1044 L 27.3711,-49.4453 L 27.5729,-49.7634
 L 27.8131,-50.0536 L 28.0877,-50.3115 L 28.3925,-50.533 L 28.7227,-50.7145 L 29.0729,-50.8532 L 29.4379,-50.9469
 L 29.8116,-50.9941 L 30.1884,-50.9941 L 30.5621,-50.9469 L 30.927,-50.8532 L 31.2773,-50.7145 L 31.6075,-50.533
 L 31.9123,-50.3115 L 32.1869,-50.0536 L 32.427,-49.7634 L 32.6289,-49.4453 L 32.7893,-49.1044 L 32.9057,-48.7461
 L 32.9763,-48.376 L 33,-48 L 32.9763,-47.624 L 32.9057,-47.2539 L 32.7893,-46.8956 L 32.6289,-46.5547
 L 32.427,-46.2366 L 32.1869,-45.9464 L 31.9123,-45.6885 L 31.6075,-45.467 L 31.2773,-45.2855 L 30.927,-45.1468
 L 30.5621,-45.0531 L 30.1884,-45.0059 z
M 96.1278,-47.4 L 96.1053,-47.4478 L 96.0471,-47.627 L 96.0118,-47.812 L 96,-48 L 96.0118,-48.188
 L 96.0471,-48.373 L 96.1053,-48.5522 L 96.1278,-48.6 L 96.1278,-54.9951 L 83.8722,-54.9951 L 83.8722,-48.6
 L 83.8947,-48.5522 L 83.9529,-48.373 L 83.9882,-48.188 L 84,-48 L 83.9882,-47.812 L 83.9529,-47.627
 L 83.8947,-47.4478 L 83.8722,-47.4 L 83.8722,-41.0049 L 96.1278,-41.0049 z
M 89.8116,-45.0059 L 89.4379,-45.0531 L 89.073,-45.1468 L 88.7227,-45.2855 L 88.3925,-45.467 L 88.0877,-45.6885
 L 87.8131,-45.9464 L 87.573,-46.2366 L 87.3711,-46.5547 L 87.2107,-46.8956 L 87.0943,-47.2539 L 87.0237,-47.624
 L 87,-48 L 87.0237,-48.376 L 87.0943,-48.7461 L 87.2107,-49.1044 L 87.3711,-49.4453 L 87.573,-49.7634
 L 87.8131,-50.0536 L 88.0877,-50.3115 L 88.3925,-50.533 L 88.7227,-50.7145 L 89.073,-50.8532 L 89.4379,-50.9469
 L 89.8116,-50.9941 L 90.1884,-50.9941 L 90.5621,-50.9469 L 90.927,-50.8532 L 91.2773,-50.7145 L 91.6075,-50.533
 L 91.9123,-50.3115 L 92.1869,-50.0536 L 92.427,-49.7634 L 92.6289,-49.4453 L 92.7893,-49.1044 L 92.9057,-48.7461
 L 92.9763,-48.376 L 93,-48 L 92.9763,-47.624 L 92.9057,-47.2539 L 92.7893,-46.8956 L 92.6289,-46.5547
 L 92.427,-46.2366 L 92.1869,-45.9464 L 91.9123,-45.6885 L 91.6075,-45.467 L 91.2773,-45.2855 L 90.927,-45.1468
 L 90.5621,-45.0531 L 90.1884,-45.0059 z
M -77.9336,-54.9951 L -81.1278,-54.9951 L -81.1278,-48.6 L -81.1053,-48.5522 L -81.0471,-48.373 L -81.0118,-48.188
 L -81,-48 L -81.0118,-47.812 L -81.0471,-47.627 L -81.1053,-47.4478 L -81.1278,-47.4 L -81.1278,-41.0049
 L -77.9336,-41.0049 z
M 72.0664,-54.9951 L 68.8722,-54.9951 L 68.8722,-48.6 L 68.8947,-48.5522 L 68.9529,-48.373 L 68.9882,-48.188
 L 69,-48 L 68.9882,-47.812 L 68.9529,-47.627 L 68.8947,-47.4478 L 68.8722,-47.4 L 68.8722,-41.0049
 L 72.0664,-41.0049 z
M 42.0664,-54.9951 L 38.8722,-54.9951 L 38.8722,-48.6 L 38.8947,-48.5522 L 38.9529,-48.373 L 38.9882,-48.188
 L 39,-48 L 38.9882,-47.812 L 38.9529,-47.627 L 38.8947,-47.4478 L 38.8722,-47.4 L 38.8722,-41.0049
 L 42.0664,-41.0049 z
M 51.1278,-47.4 L 51.1053,-47.4478 L 51.0471,-47.627 L 51.0118,-47.812 L 51,-48 L 51.0118,-48.188
 L 51.0471,-48.373 L 51.1053,-48.5522 L 51.1278,-48.6 L 51.1278,-54.9951 L 47.9336,-54.9951 L 47.9336,-41.0049
 L 51.1278,-41.0049 z
M 132.066,-54.9951 L 128.872,-54.9951 L 128.872,-48.6 L 128.895,-48.5522 L 128.953,-48.373 L 128.988,-48.188
 L 129,-48 L 128.988,-47.812 L 128.953,-47.627 L 128.895,-47.4478 L 128.872,-47.4 L 128.872,-41.0049
 L 132.066,-41.0049 z
M -137.934,-54.9951 L -139.657,-54.9951 L -139.968,-54.9557 L -140.273,-54.8776 L -140.564,-54.7621 L -140.84,-54.6108
 L -141.094,-54.4263 L -141.322,-54.2114 L -141.523,-53.9695 L -141.691,-53.7044 L -141.824,-53.4203 L -141.921,-53.1217
 L -141.98,-52.8133 L -142,-52.5 L -142,-43.5 L -141.98,-43.1867 L -141.921,-42.8783 L -141.824,-42.5797
 L -141.691,-42.2956 L -141.523,-42.0305 L -141.322,-41.7886 L -141.094,-41.5737 L -140.84,-41.3892 L -140.564,-41.2379
 L -140.273,-41.1224 L -139.968,-41.0443 L -139.657,-41.0049 L -137.934,-41.0049 z
M -128.872,-47.4 L -128.895,-47.4478 L -128.953,-47.627 L -128.988,-47.812 L -129,-48 L -128.988,-48.188
 L -128.953,-48.373 L -128.895,-48.5522 L -128.872,-48.6 L -128.872,-54.9951 L -132.066,-54.9951 L -132.066,-41.0049
 L -128.872,-41.0049 z
M 111.128,-47.4 L 111.105,-47.4478 L 111.047,-47.627 L 111.012,-47.812 L 111,-48 L 111.012,-48.188
 L 111.047,-48.373 L 111.105,-48.5522 L 111.128,-48.6 L 111.128,-54.9951 L 107.934,-54.9951 L 107.934,-41.0049
 L 111.128,-41.0049 z
M 102.066,-54.9951 L 98.8722,-54.9951 L 98.8722,-48.6 L 98.8947,-48.5522 L 98.9529,-48.373 L 98.9882,-48.188
 L 99,-48 L 98.9882,-47.812 L 98.9529,-47.627 L 98.8947,-47.4478 L 98.8722,-47.4 L 98.8722,-41.0049
 L 102.066,-41.0049 z
M -68.8722,-47.4 L -68.8947,-47.4478 L -68.9529,-47.627 L -68.9882,-47.812 L -69,-48 L -68.9882,-48.188
 L -68.9529,-48.373 L -68.8947,-48.5522 L -68.8722,-48.6 L -68.8722,-54.9951 L -72.0664,-54.9951 L -72.0664,-41.0049
 L -68.8722,-41.0049 z
M -47.9336,-54.9951 L -51.1278,-54.9951 L -51.1278,-48.6 L -51.1053,-48.5522 L -51.0471,-48.373 L -51.0118,-48.188
 L -51,-48 L -51.0118,-47.812 L -51.0471,-47.627 L -51.1053,-47.4478 L -51.1278,-47.4 L -51.1278,-41.0049
 L -47.9336,-41.0049 z
M -38.8722,-47.4 L -38.8947,-47.4478 L -38.9529,-47.627 L -38.9882,-47.812 L -39,-48 L -38.9882,-48.188
 L -38.9529,-48.373 L -38.8947,-48.5522 L -38.8722,-48.6 L -38.8722,-54.9951 L -42.0664,-54.9951 L -42.0664,-41.0049
 L -38.8722,-41.0049 z
M -98.8722,-47.4 L -98.8947,-47.4478 L -98.9529,-47.627 L -98.9882,-47.812 L -99,-48 L -98.9882,-48.188
 L -98.9529,-48.373 L -98.8947,-48.5522 L -98.8722,-48.6 L -98.8722,-54.9951 L -102.066,-54.9951 L -102.066,-41.0049
 L -98.8722,-41.0049 z
M 12.0664,-54.9951 L 8.87216,-54.9951 L 8.87216,-48.6 L 8.89465,-48.5522 L 8.95287,-48.373 L 8.98816,-48.188
 L 9,-48 L 8.98816,-47.812 L 8.95287,-47.627 L 8.89465,-47.4478 L 8.87216,-47.4 L 8.87216,-41.0049
 L 12.0664,-41.0049 z
M 81.1278,-47.4 L 81.1053,-47.4478 L 81.0471,-47.627 L 81.0118,-47.812 L 81,-48 L 81.0118,-48.188
 L 81.0471,-48.373 L 81.1053,-48.5522 L 81.1278,-48.6 L 81.1278,-54.9951 L 77.9336,-54.9951 L 77.9336,-41.0049
 L 81.1278,-41.0049 z
M 139.968,-17.0443 L 140.273,-17.1224 L 140.564,-17.2379 L 140.84,-17.3892 L 141.094,-17.5737 L 141.322,-17.7886
 L 141.523,-18.0305 L 141.691,-18.2956 L 141.824,-18.5797 L 141.921,-18.8783 L 141.98,-19.1867 L 142,-19.5
 L 142,-28.5 L 141.98,-28.8133 L 141.921,-29.1217 L 141.824,-29.4203 L 141.691,-29.7044 L 141.523,-29.9695
 L 141.322,-30.2114 L 141.094,-30.4263 L 140.84,-30.6108 L 140.564,-30.7621 L 140.273,-30.8776 L 139.968,-30.9557
 L 139.657,-30.9951 L 136.653,-30.9951 L 136.653,-17.0049 L 139.657,-17.0049 z
M 103.347,-30.9951 L 76.6529,-30.9951 L 76.6529,-17.0049 L 103.347,-17.0049 z
M 89.8116,-21.0059 L 89.4379,-21.0531 L 89.073,-21.1468 L 88.7227,-21.2855 L 88.3925,-21.467 L 88.0877,-21.6885
 L 87.8131,-21.9464 L 87.573,-22.2366 L 87.3711,-22.5547 L 87.2107,-22.8956 L 87.0943,-23.2539 L 87.0237,-23.624
 L 87,-24 L 87.0237,-24.376 L 87.0943,-24.7461 L 87.2107,-25.1044 L 87.3711,-25.4453 L 87.573,-25.7634
 L 87.8131,-26.0536 L 88.0877,-26.3115 L 88.3925,-26.533 L 88.7227,-26.7145 L 89.073,-26.8532 L 89.4379,-26.9469
 L 89.8116,-26.9941 L 90.1884,-26.9941 L 90.5621,-26.9469 L 90.927,-26.8532 L 91.2773,-26.7145 L 91.6075,-26.533
 L 91.9123,-26.3115 L 92.1869,-26.0536 L 92.427,-25.7634 L 92.6289,-25.4453 L 92.7893,-25.1044 L 92.9057,-24.7461
 L 92.9763,-24.376 L 93,-24 L 92.9763,-23.624 L 92.9057,-23.2539 L 92.7893,-22.8956 L 92.6289,-22.5547
 L 92.427,-22.2366 L 92.1869,-21.9464 L 91.9123,-21.6885 L 91.6075,-21.467 L 91.2773,-21.2855 L 90.927,-21.1468
 L 90.5621,-21.0531 L 90.1884,-21.0059 z
M 97.4058,-22.503 L 97.2189,-22.5266 L 97.0365,-22.5734 L 96.8613,-22.6428 L 96.6963,-22.7335 L 96.5439,-22.8442
 L 96.4065,-22.9732 L 96.2865,-23.1183 L 96.1855,-23.2774 L 96.1053,-23.4478 L 96.0471,-23.627 L 96.0118,-23.812
 L 96,-24 L 96.0118,-24.188 L 96.0471,-24.373 L 96.1053,-24.5522 L 96.1855,-24.7226 L 96.2865,-24.8817
 L 96.4065,-25.0268 L 96.5439,-25.1558 L 96.6963,-25.2665 L 96.8613,-25.3572 L 97.0365,-25.4266 L 97.2189,-25.4734
 L 97.4058,-25.497 L 97.5942,-25.497 L 97.7811,-25.4734 L 97.9635,-25.4266 L 98.1387,-25.3572 L 98.3037,-25.2665
 L 98.4561,-25.1558 L 98.5934,-25.0268 L 98.7135,-24.8817 L 98.8145,-24.7226 L 98.8947,-24.5522 L 98.9529,-24.373
 L 98.9882,-24.188 L 99,-24 L 98.9882,-23.812 L 98.9529,-23.627 L 98.8947,-23.4478 L 98.8145,-23.2774
 L 98.7135,-23.1183 L 98.5934,-22.9732 L 98.4561,-22.8442 L 98.3037,-22.7335 L 98.1387,-22.6428 L 97.9635,-22.5734
 L 97.7811,-22.5266 L 97.5942,-22.503 z
M 82.4058,-22.503 L 82.2189,-22.5266 L 82.0365,-22.5734 L 81.8613,-22.6428 L 81.6963,-22.7335 L 81.5439,-22.8442
 L 81.4065,-22.9732 L 81.2865,-23.1183 L 81.1855,-23.2774 L 81.1053,-23.4478 L 81.0471,-23.627 L 81.0118,-23.812
 L 81,-24 L 81.0118,-24.188 L 81.0471,-24.373 L 81.1053,-24.5522 L 81.1855,-24.7226 L 81.2865,-24.8817
 L 81.4065,-25.0268 L 81.5439,-25.1558 L 81.6963,-25.2665 L 81.8613,-25.3572 L 82.0365,-25.4266 L 82.2189,-25.4734
 L 82.4058,-25.497 L 82.5942,-25.497 L 82.7811,-25.4734 L 82.9635,-25.4266 L 83.1387,-25.3572 L 83.3037,-25.2665
 L 83.4561,-25.1558 L 83.5934,-25.0268 L 83.7135,-24.8817 L 83.8145,-24.7226 L 83.8947,-24.5522 L 83.9529,-24.373
 L 83.9882,-24.188 L 84,-24 L 83.9882,-23.812 L 83.9529,-23.627 L 83.8947,-23.4478 L 83.8145,-23.2774
 L 83.7135,-23.1183 L 83.5934,-22.9732 L 83.4561,-22.8442 L 83.3037,-22.7335 L 83.1387,-22.6428 L 82.9635,-22.5734
 L 82.7811,-22.5266 L 82.5942,-22.503 z
M 43.3471,-30.9951 L 16.6529,-30.9951 L 16.6529,-17.0049 L 43.3471,-17.0049 z
M 29.8116,-21.0059 L 29.4379,-21.0531 L 29.0729,-21.1468 L 28.7227,-21.2855 L 28.3925,-21.467 L 28.0877,-21.6885
 L 27.8131,-21.9464 L 27.5729,-22.2366 L 27.3711,-22.5547 L 27.2107,-22.8956 L 27.0942,-23.2539 L 27.0237,-23.624
 L 27,-24 L 27.0237,-24.376 L 27.0942,-24.7461 L 27.2107,-25.1044 L 27.3711,-25.4453 L 27.5729,-25.7634
 L 27.8131,-26.0536 L 28.0877,-26.3115 L 28.3925,-26.533 L 28.7227,-26.7145 L 29.0729,-26.8532 L 29.4379,-26.9469
 L 29.8116,-26.9941 L 30.1884,-26.9941 L 30.5621,-26.9469 L 30.927,-26.8532 L 31.2773,-26.7145 L 31.6075,-26.533
 L 31.9123,-26.3115 L 32.1869,-26.0536 L 32.427,-25.7634 L 32.6289,-25.4453 L 32.7893,-25.1044 L 32.9057,-24.7461
 L 32.9763,-24.376 L 33,-24 L 32.9763,-23.624 L 32.9057,-23.2539 L 32.7893,-22.8956 L 32.6289,-22.5547
 L 32.427,-22.2366 L 32.1869,-21.9464 L 31.9123,-21.6885 L 31.6075,-21.467 L 31.2773,-21.2855 L 30.927,-21.1468
 L 30.5621,-21.0531 L 30.1884,-21.0059 z
M 37.4058,-22.503 L 37.2189,-22.5266 L 37.0365,-22.5734 L 36.8613,-22.6428 L 36.6963,-22.7335 L 36.5439,-22.8442
 L 36.4065,-22.9732 L 36.2865,-23.1183 L 36.1855,-23.2774 L 36.1053,-23.4478 L 36.0471,-23.627 L 36.0118,-23.812
 L 36,-24 L 36.0118,-24.188 L 36.0471,-24.373 L 36.1053,-24.5522 L 36.1855,-24.7226 L 36.2865,-24.8817
 L 36.4065,-25.0268 L 36.5439,-25.1558 L 36.6963,-25.2665 L 36.8613,-25.3572 L 37.0365,-25.4266 L 37.2189,-25.4734
 L 37.4058,-25.497 L 37.5942,-25.497 L 37.7811,-25.4734 L 37.9635,-25.4266 L 38.1387,-25.3572 L 38.3037,-25.2665
 L 38.4561,-25.1558 L 38.5934,-25.0268 L 38.7135,-24.8817 L 38.8145,-24.7226 L 38.8947,-24.5522 L 38.9529,-24.373
 L 38.9882,-24.188 L 39,-24 L 38.9882,-23.812 L 38.9529,-23.627 L 38.8947,-23.4478 L 38.8145,-23.2774
 L 38.7135,-23.1183 L 38.5934,-22.9732 L 38.4561,-22.8442 L 38.3037,-22.7335 L 38.1387,-22.6428 L 37.9635,-22.5734
 L 37.7811,-22.5266 L 37.5942,-22.503 z
M 22.4058,-22.503 L 22.2189,-22.5266 L 22.0365,-22.5734 L 21.8613,-22.6428 L 21.6963,-22.7335 L 21.5439,-22.8442
 L 21.4065,-22.9732 L 21.2865,-23.1183 L 21.1855,-23.2774 L 21.1053,-23.4478 L 21.0471,-23.627 L 21.0118,-23.812
 L 21,-24 L 21.0118,-24.188 L 21.0471,-24.373 L 21.1053,-24.5522 L 21.1855,-24.7226 L 21.2865,-24.8817
 L 21.4065,-25.0268 L 21.5439,-25.1558 L 21.6963,-25.2665 L 21.8613,-25.3572 L 22.0365,-25.4266 L 22.2189,-25.4734
 L 22.4058,-25.497 L 22.5942,-25.497 L 22.7811,-25.4734 L 22.9635,-25.4266 L 23.1387,-25.3572 L 23.3037,-25.2665
 L 23.4561,-25.1558 L 23.5934,-25.0268 L 23.7135,-24.8817 L 23.8145,-24.7226 L 23.8947,-24.5522 L 23.9529,-24.373
 L 23.9882,-24.188 L 24,-24 L 23.9882,-23.812 L 23.9529,-23.627 L 23.8947,-23.4478 L 23.8145,-23.2774
 L 23.7135,-23.1183 L 23.5934,-22.9732 L 23.4561,-22.8442 L 23.3037,-22.7335 L 23.1387,-22.6428 L 22.9635,-22.5734
 L 22.7811,-22.5266 L 22.5942,-22.503 z
M 133.347,-30.9951 L 106.653,-30.9951 L 106.653,-17.0049 L 133.347,-17.0049 z
M 119.812,-21.0059 L 119.438,-21.0531 L 119.073,-21.1468 L 118.723,-21.2855 L 118.393,-21.467 L 118.088,-21.6885
 L 117.813,-21.9464 L 117.573,-22.2366 L 117.371,-22.5547 L 117.211,-22.8956 L 117.094,-23.2539 L 117.024,-23.624
 L 117,-24 L 117.024,-24.376 L 117.094,-24.7461 L 117.211,-25.1044 L 117.371,-25.4453 L 117.573,-25.7634
 L 117.813,-26.0536 L 118.088,-26.3115 L 118.393,-26.533 L 118.723,-26.7145 L 119.073,-26.8532 L 119.438,-26.9469
 L 119.812,-26.9941 L 120.188,-26.9941 L 120.562,-26.9469 L 120.927,-26.8532 L 121.277,-26.7145 L 121.607,-26.533
 L 121.912,-26.3115 L 122.187,-26.0536 L 122.427,-25.7634 L 122.629,-25.4453 L 122.789,-25.1044 L 122.906,-24.7461
 L 122.976,-24.376 L 123,-24 L 122.976,-23.624 L 122.906,-23.2539 L 122.789,-22.8956 L 122.629,-22.5547
 L 122.427,-22.2366 L 122.187,-21.9464 L 121.912,-21.6885 L 121.607,-21.467 L 121.277,-21.2855 L 120.927,-21.1468
 L 120.562,-21.0531 L 120.188,-21.0059 z
M 112.406,-22.503 L 112.219,-22.5266 L 112.036,-22.5734 L 111.861,-22.6428 L 111.696,-22.7335 L 111.544,-22.8442
 L 111.407,-22.9732 L 111.286,-23.1183 L 111.186,-23.2774 L 111.105,-23.4478 L 111.047,-23.627 L 111.012,-23.812
 L 111,-24 L 111.012,-24.188 L 111.047,-24.373 L 111.105,-24.5522 L 111.186,-24.7226 L 111.286,-24.8817
 L 111.407,-25.0268 L 111.544,-25.1558 L 111.696,-25.2665 L 111.861,-25.3572 L 112.036,-25.4266 L 112.219,-25.4734
 L 112.406,-25.497 L 112.594,-25.497 L 112.781,-25.4734 L 112.964,-25.4266 L 113.139,-25.3572 L 113.304,-25.2665
 L 113.456,-25.1558 L 113.593,-25.0268 L 113.714,-24.8817 L 113.814,-24.7226 L 113.895,-24.5522 L 113.953,-24.373
 L 113.988,-24.188 L 114,-24 L 113.988,-23.812 L 113.953,-23.627 L 113.895,-23.4478 L 113.814,-23.2774
 L 113.714,-23.1183 L 113.593,-22.9732 L 113.456,-22.8442 L 113.304,-22.7335 L 113.139,-22.6428 L 112.964,-22.5734
 L 112.781,-22.5266 L 112.594,-22.503 z
M 127.406,-22.503 L 127.219,-22.5266 L 127.036,-22.5734 L 126.861,-22.6428 L 126.696,-22.7335 L 126.544,-22.8442
 L 126.407,-22.9732 L 126.286,-23.1183 L 126.186,-23.2774 L 126.105,-23.4478 L 126.047,-23.627 L 126.012,-23.812
 L 126,-24 L 126.012,-24.188 L 126.047,-24.373 L 126.105,-24.5522 L 126.186,-24.7226 L 126.286,-24.8817
 L 126.407,-25.0268 L 126.544,-25.1558 L 126.696,-25.2665 L 126.861,-25.3572 L 127.036,-25.4266 L 127.219,-25.4734
 L 127.406,-25.497 L 127.594,-25.497 L 127.781,-25.4734 L 127.964,-25.4266 L 128.139,-25.3572 L 128.304,-25.2665
 L 128.456,-25.1558 L 128.593,-25.0268 L 128.714,-24.8817 L 128.814,-24.7226 L 128.895,-24.5522 L 128.953,-24.373
 L 128.988,-24.188 L 129,-24 L 128.988,-23.812 L 128.953,-23.627 L 128.895,-23.4478 L 128.814,-23.2774
 L 128.714,-23.1183 L 128.593,-22.9732 L 128.456,-22.8442 L 128.304,-22.7335 L 128.139,-22.6428 L 127.964,-22.5734
 L 127.781,-22.5266 L 127.594,-22.503 z
M -136.653,-30.9951 L -139.657,-30.9951 L -139.968,-30.9557 L -140.273,-30.8776 L -140.564,-30.7621 L -140.84,-30.6108
 L -141.094,-30.4263 L -141.322,-30.2114 L -141.523,-29.9695 L -141.691,-29.7044 L -141.824,-29.4203 L -141.921,-29.1217
 L -141.98,-28.8133 L -142,-28.5 L -142,-19.5 L -141.98,-19.1867 L -141.921,-18.8783 L -141.824,-18.5797
 L -141.691,-18.2956 L -141.523,-18.0305 L -141.322,-17.7886 L -141.094,-17.5737 L -140.84,-17.3892 L -140.564,-17.2379
 L -140.273,-17.1224 L -139.968,-17.0443 L -139.657,-17.0049 L -136.653,-17.0049 z
M -106.653,-30.9951 L -133.347,-30.9951 L -133.347,-17.0049 L -106.653,-17.0049 z
M -120.188,-21.0059 L -120.562,-21.0531 L -120.927,-21.1468 L -121.277,-21.2855 L -121.607,-21.467 L -121.912,-21.6885
 L -122.187,-21.9464 L -122.427,-22.2366 L -122.629,-22.5547 L -122.789,-22.8956 L -122.906,-23.2539 L -122.976,-23.624
 L -123,-24 L -122.976,-24.376 L -122.906,-24.7461 L -122.789,-25.1044 L -122.629,-25.4453 L -122.427,-25.7634
 L -122.187,-26.0536 L -121.912,-26.3115 L -121.607,-26.533 L -121.277,-26.7145 L -120.927,-26.8532 L -120.562,-26.9469
 L -120.188,-26.9941 L -119.812,-26.9941 L -119.438,-26.9469 L -119.073,-26.8532 L -118.723,-26.7145 L -118.393,-26.533
 L -118.088,-26.3115 L -117.813,-26.0536 L -117.573,-25.7634 L -117.371,-25.4453 L -117.211,-25.1044 L -117.094,-24.7461
 L -117.024,-24.376 L -117,-24 L -117.024,-23.624 L -117.094,-23.2539 L -117.211,-22.8956 L -117.371,-22.5547
 L -117.573,-22.2366 L -117.813,-21.9464 L -118.088,-21.6885 L -118.393,-21.467 L -118.723,-21.2855 L -119.073,-21.1468
 L -119.438,-21.0531 L -119.812,-21.0059 z
M -112.594,-22.503 L -112.781,-22.5266 L -112.964,-22.5734 L -113.139,-22.6428 L -113.304,-22.7335 L -113.456,-22.8442
 L -113.593,-22.9732 L -113.714,-23.1183 L -113.814,-23.2774 L -113.895,-23.4478 L -113.953,-23.627 L -113.988,-23.812
 L -114,-24 L -113.988,-24.188 L -113.953,-24.373 L -113.895,-24.5522 L -113.814,-24.7226 L -113.714,-24.8817
 L -113.593,-25.0268 L -113.456,-25.1558 L -113.304,-25.2665 L -113.139,-25.3572 L -112.964,-25.4266 L -112.781,-25.4734
 L -112.594,-25.497 L -112.406,-25.497 L -112.219,-25.4734 L -112.036,-25.4266 L -111.861,-25.3572 L -111.696,-25.2665
 L -111.544,-25.1558 L -111.407,-25.0268 L -111.286,-24.8817 L -111.186,-24.7226 L -111.105,-24.5522 L -111.047,-24.373
 L -111.012,-24.188 L -111,-24 L -111.012,-23.812 L -111.047,-23.627 L -111.105,-23.4478 L -111.186,-23.2774
 L -111.286,-23.1183 L -111.407,-22.9732 L -111.544,-22.8442 L -111.696,-22.7335 L -111.861,-22.6428 L -112.036,-22.5734
 L -112.219,-22.5266 L -112.406,-22.503 z
M -127.594,-22.503 L -127.781,-22.5266 L -127.964,-22.5734 L -128.139,-22.6428 L -128.304,-22.7335 L -128.456,-22.8442
 L -128.593,-22.9732 L -128.714,-23.1183 L -128.814,-23.2774 L -128.895,-23.4478 L -128.953,-23.627 L -128.988,-23.812
 L -129,-24 L -128.988,-24.188 L -128.953,-24.373 L -128.895,-24.5522 L -128.814,-24.7226 L -128.714,-24.8817
 L -128.593,-25.0268 L -128.456,-25.1558 L -128.304,-25.2665 L -128.139,-25.3572 L -127.964,-25.4266 L -127.781,-25.4734
 L -127.594,-25.497 L -127.406,-25.497 L -127.219,-25.4734 L -127.036,-25.4266 L -126.861,-25.3572 L -126.696,-25.2665
 L -126.544,-25.1558 L -126.407,-25.0268 L -126.286,-24.8817 L -126.186,-24.7226 L -126.105,-24.5522 L -126.047,-24.373
 L -126.012,-24.188 L -126,-24 L -126.012,-23.812 L -126.047,-23.627 L -126.105,-23.4478 L -126.186,-23.2774
 L -126.286,-23.1183 L -126.407,-22.9732 L -126.544,-22.8442 L -126.696,-22.7335 L -126.861,-22.6428 L -127.036,-22.5734
 L -127.219,-22.5266 L -127.406,-22.503 z
M 13.3471,-30.9951 L -13.3471,-30.9951 L -13.3471,-17.0049 L 13.3471,-17.0049 z
M -0.18837,-21.0059 L -0.562134,-21.0531 L -0.927048,-21.1468 L -1.27733,-21.2855 L -1.60747,-21.467 L -1.91226,-21.6885
 L -2.1869,-21.9464 L -2.42705,-22.2366 L -2.62891,-22.5547 L -2.78932,-22.8956 L -2.90575,-23.2539 L -2.97633,-23.624
 L -3,-24 L -2.97633,-24.376 L -2.90575,-24.7461 L -2.78932,-25.1044 L -2.62891,-25.4453 L -2.42705,-25.7634
 L -2.1869,-26.0536 L -1.91226,-26.3115 L -1.60747,-26.533 L -1.27733,-26.7145 L -0.927048,-26.8532 L -0.562134,-26.9469
 L -0.18837,-26.9941 L 0.18837,-26.9941 L 0.562134,-26.9469 L 0.927048,-26.8532 L 1.27733,-26.7145 L 1.60747,-26.533
 L 1.91226,-26.3115 L 2.1869,-26.0536 L 2.42705,-25.7634 L 2.62891,-25.4453 L 2.78932,-25.1044 L 2.90575,-24.7461
 L 2.97633,-24.376 L 3,-24 L 2.97633,-23.624 L 2.90575,-23.2539 L 2.78932,-22.8956 L 2.62891,-22.5547
 L 2.42705,-22.2366 L 2.1869,-21.9464 L 1.91226,-21.6885 L 1.60747,-21.467 L 1.27733,-21.2855 L 0.927048,-21.1468
 L 0.562134,-21.0531 L 0.18837,-21.0059 z
M -7.59418,-22.503 L -7.78107,-22.5266 L -7.96352,-22.5734 L -8.13866,-22.6428 L -8.30373,-22.7335 L -8.45613,-22.8442
 L -8.59344,-22.9732 L -8.71352,-23.1183 L -8.81445,-23.2774 L -8.89465,-23.4478 L -8.95287,-23.627 L -8.98816,-23.812
 L -9,-24 L -8.98816,-24.188 L -8.95287,-24.373 L -8.89465,-24.5522 L -8.81445,-24.7226 L -8.71352,-24.8817
 L -8.59344,-25.0268 L -8.45613,-25.1558 L -8.30373,-25.2665 L -8.13866,-25.3572 L -7.96352,-25.4266 L -7.78107,-25.4734
 L -7.59418,-25.497 L -7.40581,-25.497 L -7.21892,-25.4734 L -7.03647,-25.4266 L -6.86133,-25.3572 L -6.69626,-25.2665
 L -6.54385,-25.1558 L -6.40654,-25.0268 L -6.28647,-24.8817 L -6.18553,-24.7226 L -6.10533,-24.5522 L -6.04712,-24.373
 L -6.01183,-24.188 L -6,-24 L -6.01183,-23.812 L -6.04712,-23.627 L -6.10533,-23.4478 L -6.18553,-23.2774
 L -6.28647,-23.1183 L -6.40654,-22.9732 L -6.54385,-22.8442 L -6.69626,-22.7335 L -6.86133,-22.6428 L -7.03647,-22.5734
 L -7.21892,-22.5266 L -7.40581,-22.503 z
M 7.40581,-22.503 L 7.21892,-22.5266 L 7.03647,-22.5734 L 6.86133,-22.6428 L 6.69626,-22.7335 L 6.54385,-22.8442
 L 6.40654,-22.9732 L 6.28647,-23.1183 L 6.18553,-23.2774 L 6.10533,-23.4478 L 6.04712,-23.627 L 6.01183,-23.812
 L 6,-24 L 6.01183,-24.188 L 6.04712,-24.373 L 6.10533,-24.5522 L 6.18553,-24.7226 L 6.28647,-24.8817
 L 6.40654,-25.0268 L 6.54385,-25.1558 L 6.69626,-25.2665 L 6.86133,-25.3572 L 7.03647,-25.4266 L 7.21892,-25.4734
 L 7.40581,-25.497 L 7.59418,-25.497 L 7.78107,-25.4734 L 7.96352,-25.4266 L 8.13866,-25.3572 L 8.30373,-25.2665
 L 8.45613,-25.1558 L 8.59344,-25.0268 L 8.71352,-24.8817 L 8.81445,-24.7226 L 8.89465,-24.5522 L 8.95287,-24.373
 L 8.98816,-24.188 L 9,-24 L 8.98816,-23.812 L 8.95287,-23.627 L 8.89465,-23.4478 L 8.81445,-23.2774
 L 8.71352,-23.1183 L 8.59344,-22.9732 L 8.45613,-22.8442 L 8.30373,-22.7335 L 8.13866,-22.6428 L 7.96352,-22.5734
 L 7.78107,-22.5266 L 7.59418,-22.503 z
M 73.3471,-30.9951 L 46.6529,-30.9951 L 46.6529,-17.0049 L 73.3471,-17.0049 z
M 59.8116,-21.0059 L 59.4379,-21.0531 L 59.0729,-21.1468 L 58.7227,-21.2855 L 58.3925,-21.467 L 58.0877,-21.6885
 L 57.8131,-21.9464 L 57.5729,-22.2366 L 57.3711,-22.5547 L 57.2107,-22.8956 L 57.0942,-23.2539 L 57.0237,-23.624
 L 57,-24 L 57.0237,-24.376 L 57.0942,-24.7461 L 57.2107,-25.1044 L 57.3711,-25.4453 L 57.5729,-25.7634
 L 57.8131,-26.0536 L 58.0877,-26.3115 L 58.3925,-26.533 L 58.7227,-26.7145 L 59.0729,-26.8532 L 59.4379,-26.9469
 L 59.8116,-26.9941 L 60.1884,-26.9941 L 60.5621,-26.9469 L 60.927,-26.8532 L 61.2773,-26.7145 L 61.6075,-26.533
 L 61.9123,-26.3115 L 62.1869,-26.0536 L 62.427,-25.7634 L 62.6289,-25.4453 L 62.7893,-25.1044 L 62.9057,-24.7461
 L 62.9763,-24.376 L 63,-24 L 62.9763,-23.624 L 62.9057,-23.2539 L 62.7893,-22.8956 L 62.6289,-22.5547
 L 62.427,-22.2366 L 62.1869,-21.9464 L 61.9123,-21.6885 L 61.6075,-21.467 L 61.2773,-21.2855 L 60.927,-21.1468
 L 60.5621,-21.0531 L 60.1884,-21.0059 z
M 52.4058,-22.503 L 52.2189,-22.5266 L 52.0365,-22.5734 L 51.8613,-22.6428 L 51.6963,-22.7335 L 51.5439,-22.8442
 L 51.4065,-22.9732 L 51.2865,-23.1183 L 51.1855,-23.2774 L 51.1053,-23.4478 L 51.0471,-23.627 L 51.0118,-23.812
 L 51,-24 L 51.0118,-24.188 L 51.0471,-24.373 L 51.1053,-24.5522 L 51.1855,-24.7226 L 51.2865,-24.8817
 L 51.4065,-25.0268 L 51.5439,-25.1558 L 51.6963,-25.2665 L 51.8613,-25.3572 L 52.0365,-25.4266 L 52.2189,-25.4734
 L 52.4058,-25.497 L 52.5942,-25.497 L 52.7811,-25.4734 L 52.9635,-25.4266 L 53.1387,-25.3572 L 53.3037,-25.2665
 L 53.4561,-25.1558 L 53.5934,-25.0268 L 53.7135,-24.8817 L 53.8145,-24.7226 L 53.8947,-24.5522 L 53.9529,-24.373
 L 53.9882,-24.188 L 54,-24 L 53.9882,-23.812 L 53.9529,-23.627 L 53.8947,-23.4478 L 53.8145,-23.2774
 L 53.7135,-23.1183 L 53.5934,-22.9732 L 53.4561,-22.8442 L 53.3037,-22.7335 L 53.1387,-22.6428 L 52.9635,-22.5734
 L 52.7811,-22.5266 L 52.5942,-22.503 z
M 67.4058,-22.503 L 67.2189,-22.5266 L 67.0365,-22.5734 L 66.8613,-22.6428 L 66.6963,-22.7335 L 66.5439,-22.8442
 L 66.4065,-22.9732 L 66.2865,-23.1183 L 66.1855,-23.2774 L 66.1053,-23.4478 L 66.0471,-23.627 L 66.0118,-23.812
 L 66,-24 L 66.0118,-24.188 L 66.0471,-24.373 L 66.1053,-24.5522 L 66.1855,-24.7226 L 66.2865,-24.8817
 L 66.4065,-25.0268 L 66.5439,-25.1558 L 66.6963,-25.2665 L 66.8613,-25.3572 L 67.0365,-25.4266 L 67.2189,-25.4734
 L 67.4058,-25.497 L 67.5942,-25.497 L 67.7811,-25.4734 L 67.9635,-25.4266 L 68.1387,-25.3572 L 68.3037,-25.2665
 L 68.4561,-25.1558 L 68.5934,-25.0268 L 68.7135,-24.8817 L 68.8145,-24.7226 L 68.8947,-24.5522 L 68.9529,-24.373
 L 68.9882,-24.188 L 69,-24 L 68.9882,-23.812 L 68.9529,-23.627 L 68.8947,-23.4478 L 68.8145,-23.2774
 L 68.7135,-23.1183 L 68.5934,-22.9732 L 68.4561,-22.8442 L 68.3037,-22.7335 L 68.1387,-22.6428 L 67.9635,-22.5734
 L 67.7811,-22.5266 L 67.5942,-22.503 z
M -76.6529,-30.9951 L -103.347,-30.9951 L -103.347,-17.0049 L -76.6529,-17.0049 z
M -90.1884,-21.0059 L -90.5621,-21.0531 L -90.927,-21.1468 L -91.2773,-21.2855 L -91.6075,-21.467 L -91.9123,-21.6885
 L -92.1869,-21.9464 L -92.427,-22.2366 L -92.6289,-22.5547 L -92.7893,-22.8956 L -92.9057,-23.2539 L -92.9763,-23.624
 L -93,-24 L -92.9763,-24.376 L -92.9057,-24.7461 L -92.7893,-25.1044 L -92.6289,-25.4453 L -92.427,-25.7634
 L -92.1869,-26.0536 L -91.9123,-26.3115 L -91.6075,-26.533 L -91.2773,-26.7145 L -90.927,-26.8532 L -90.5621,-26.9469
 L -90.1884,-26.9941 L -89.8116,-26.9941 L -89.4379,-26.9469 L -89.073,-26.8532 L -88.7227,-26.7145 L -88.3925,-26.533
 L -88.0877,-26.3115 L -87.8131,-26.0536 L -87.573,-25.7634 L -87.3711,-25.4453 L -87.2107,-25.1044 L -87.0943,-24.7461
 L -87.0237,-24.376 L -87,-24 L -87.0237,-23.624 L -87.0943,-23.2539 L -87.2107,-22.8956 L -87.3711,-22.5547
 L -87.573,-22.2366 L -87.8131,-21.9464 L -88.0877,-21.6885 L -88.3925,-21.467 L -88.7227,-21.2855 L -89.073,-21.1468
 L -89.4379,-21.0531 L -89.8116,-21.0059 z
M -97.5942,-22.503 L -97.7811,-22.5266 L -97.9635,-22.5734 L -98.1387,-22.6428 L -98.3037,-22.7335 L -98.4561,-22.8442
 L -98.5934,-22.9732 L -98.7135,-23.1183 L -98.8145,-23.2774 L -98.8947,-23.4478 L -98.9529,-23.627 L -98.9882,-23.812
 L -99,-24 L -98.9882,-24.188 L -98.9529,-24.373 L -98.8947,-24.5522 L -98.8145,-24.7226 L -98.7135,-24.8817
 L -98.5934,-25.0268 L -98.4561,-25.1558 L -98.3037,-25.2665 L -98.1387,-25.3572 L -97.9635,-25.4266 L -97.7811,-25.4734
 L -97.5942,-25.497 L -97.4058,-25.497 L -97.2189,-25.4734 L -97.0365,-25.4266 L -96.8613,-25.3572 L -96.6963,-25.2665
 L -96.5439,-25.1558 L -96.4065,-25.0268 L -96.2865,-24.8817 L -96.1855,-24.7226 L -96.1053,-24.5522 L -96.0471,-24.373
 L -96.0118,-24.188 L -96,-24 L -96.0118,-23.812 L -96.0471,-23.627 L -96.1053,-23.4478 L -96.1855,-23.2774
 L -96.2865,-23.1183 L -96.4065,-22.9732 L -96.5439,-22.8442 L -96.6963,-22.7335 L -96.8613,-22.6428 L -97.0365,-22.5734
 L -97.2189,-22.5266 L -97.4058,-22.503 z
M -82.5942,-22.503 L -82.7811,-22.5266 L -82.9635,-22.5734 L -83.1387,-22.6428 L -83.3037,-22.7335 L -83.4561,-22.8442
 L -83.5934,-22.9732 L -83.7135,-23.1183 L -83.8145,-23.2774 L -83.8947,-23.4478 L -83.9529,-23.627 L -83.9882,-23.812
 L -84,-24 L -83.9882,-24.188 L -83.9529,-24.373 L -83.8947,-24.5522 L -83.8145,-24.7226 L -83.7135,-24.8817
 L -83.5934,-25.0268 L -83.4561,-25.1558 L -83.3037,-25.2665 L -83.1387,-25.3572 L -82.9635,-25.4266 L -82.7811,-25.4734
 L -82.5942,-25.497 L -82.4058,-25.497 L -82.2189,-25.4734 L -82.0365,-25.4266 L -81.8613,-25.3572 L -81.6963,-25.2665
 L -81.5439,-25.1558 L -81.4065,-25.0268 L -81.2865,-24.8817 L -81.1855,-24.7226 L -81.1053,-24.5522 L -81.0471,-24.373
 L -81.0118,-24.188 L -81,-24 L -81.0118,-23.812 L -81.0471,-23.627 L -81.1053,-23.4478 L -81.1855,-23.2774
 L -81.2865,-23.1183 L -81.4065,-22.9732 L -81.5439,-22.8442 L -81.6963,-22.7335 L -81.8613,-22.6428 L -82.0365,-22.5734
 L -82.2189,-22.5266 L -82.4058,-22.503 z
M -46.6529,-30.9951 L -73.3471,-30.9951 L -73.3471,-17.0049 L -46.6529,-17.0049 z
M -60.1884,-21.0059 L -60.5621,-21.0531 L -60.927,-21.1468 L -61.2773,-21.2855 L -61.6075,-21.467 L -61.9123,-21.6885
 L -62.1869,-21.9464 L -62.427,-22.2366 L -62.6289,-22.5547 L -62.7893,-22.8956 L -62.9057,-23.2539 L -62.9763,-23.624
 L -63,-24 L -62.9763,-24.376 L -62.9057,-24.7461 L -62.7893,-25.1044 L -62.6289,-25.4453 L -62.427,-25.7634
 L -62.1869,-26.0536 L -61.9123,-26.3115 L -61.6075,-26.533 L -61.2773,-26.7145 L -60.927,-26.8532 L -60.5621,-26.9469
 L -60.1884,-26.9941 L -59.8116,-26.9941 L -59.4379,-26.9469 L -59.0729,-26.8532 L -58.7227,-26.7145 L -58.3925,-26.533
 L -58.0877,-26.3115 L -57.8131,-26.0536 L -57.5729,-25.7634 L -57.3711,-25.4453 L -57.2107,-25.1044 L -57.0942,-24.7461
 L -57.0237,-24.376 L -57,-24 L -57.0237,-23.624 L -57.0942,-23.2539 L -57.2107,-22.8956 L -57.3711,-22.5547
 L -57.5729,-22.2366 L -57.8131,-21.9464 L -58.0877,-21.6885 L -58.3925,-21.467 L -58.7227,-21.2855 L -59.0729,-21.1468
 L -59.4379,-21.0531 L -59.8116,-21.0059 z
M -52.5942,-22.503 L -52.7811,-22.5266 L -52.9635,-22.5734 L -53.1387,-22.6428 L -53.3037,-22.7335 L -53.4561,-22.8442
 L -53.5934,-22.9732 L -53.7135,-23.1183 L -53.8145,-23.2774 L -53.8947,-23.4478 L -53.9529,-23.627 L -53.9882,-23.812
 L -54,-24 L -53.9882,-24.188 L -53.9529,-24.373 L -53.8947,-24.5522 L -53.8145,-24.7226 L -53.7135,-24.8817
 L -53.5934,-25.0268 L -53.4561,-25.1558 L -53.3037,-25.2665 L -53.1387,-25.3572 L -52.9635,-25.4266 L -52.7811,-25.4734
 L -52.5942,-25.497 L -52.4058,-25.497 L -52.2189,-25.4734 L -52.0365,-25.4266 L -51.8613,-25.3572 L -51.6963,-25.2665
 L -51.5439,-25.1558 L -51.4065,-25.0268 L -51.2865,-24.8817 L -51.1855,-24.7226 L -51.1053,-24.5522 L -51.0471,-24.373
 L -51.0118,-24.188 L -51,-24 L -51.0118,-23.812 L -51.0471,-23.627 L -51.1053,-23.4478 L -51.1855,-23.2774
 L -51.2865,-23.1183 L -51.4065,-22.9732 L -51.5439,-22.8442 L -51.6963,-22.7335 L -51.8613,-22.6428 L -52.0365,-22.5734
 L -52.2189,-22.5266 L -52.4058,-22.503 z
M -67.5942,-22.503 L -67.7811,-22.5266 L -67.9635,-22.5734 L -68.1387,-22.6428 L -68.3037,-22.7335 L -68.4561,-22.8442
 L -68.5934,-22.9732 L -68.7135,-23.1183 L -68.8145,-23.2774 L -68.8947,-23.4478 L -68.9529,-23.627 L -68.9882,-23.812
 L -69,-24 L -68.9882,-24.188 L -68.9529,-24.373 L -68.8947,-24.5522 L -68.8145,-24.7226 L -68.7135,-24.8817
 L -68.5934,-25.0268 L -68.4561,-25.1558 L -68.3037,-25.2665 L -68.1387,-25.3572 L -67.9635,-25.4266 L -67.7811,-25.4734
 L -67.5942,-25.497 L -67.4058,-25.497 L -67.2189,-25.4734 L -67.0365,-25.4266 L -66.8613,-25.3572 L -66.6963,-25.2665
 L -66.5439,-25.1558 L -66.4065,-25.0268 L -66.2865,-24.8817 L -66.1855,-24.7226 L -66.1053,-24.5522 L -66.0471,-24.373
 L -66.0118,-24.188 L -66,-24 L -66.0118,-23.812 L -66.0471,-23.627 L -66.1053,-23.4478 L -66.1855,-23.2774
 L -66.2865,-23.1183 L -66.4065,-22.9732 L -66.5439,-22.8442 L -66.6963,-22.7335 L -66.8613,-22.6428 L -67.0365,-22.5734
 L -67.2189,-22.5266 L -67.4058,-22.503 z
M -16.6529,-30.9951 L -43.3471,-30.9951 L -43.3471,-17.0049 L -16.6529,-17.0049 z
M -30.1884,-21.0059 L -30.5621,-21.0531 L -30.927,-21.1468 L -31.2773,-21.2855 L -31.6075,-21.467 L -31.9123,-21.6885
 L -32.1869,-21.9464 L -32.427,-22.2366 L -32.6289,-22.5547 L -32.7893,-22.8956 L -32.9057,-23.2539 L -32.9763,-23.624
 L -33,-24 L -32.9763,-24.376 L -32.9057,-24.7461 L -32.7893,-25.1044 L -32.6289,-25.4453 L -32.427,-25.7634
 L -32.1869,-26.0536 L -31.9123,-26.3115 L -31.6075,-26.533 L -31.2773,-26.7145 L -30.927,-26.8532 L -30.5621,-26.9469
 L -30.1884,-26.9941 L -29.8116,-26.9941 L -29.4379,-26.9469 L -29.0729,-26.8532 L -28.7227,-26.7145 L -28.3925,-26.533
 L -28.0877,-26.3115 L -27.8131,-26.0536 L -27.5729,-25.7634 L -27.3711,-25.4453 L -27.2107,-25.1044 L -27.0942,-24.7461
 L -27.0237,-24.376 L -27,-24 L -27.0237,-23.624 L -27.0942,-23.2539 L -27.2107,-22.8956 L -27.3711,-22.5547
 L -27.5729,-22.2366 L -27.8131,-21.9464 L -28.0877,-21.6885 L -28.3925,-21.467 L -28.7227,-21.2855 L -29.0729,-21.1468
 L -29.4379,-21.0531 L -29.8116,-21.0059 z
M -37.5942,-22.503 L -37.7811,-22.5266 L -37.9635,-22.5734 L -38.1387,-22.6428 L -38.3037,-22.7335 L -38.4561,-22.8442
 L -38.5934,-22.9732 L -38.7135,-23.1183 L -38.8145,-23.2774 L -38.8947,-23.4478 L -38.9529,-23.627 L -38.9882,-23.812
 L -39,-24 L -38.9882,-24.188 L -38.9529,-24.373 L -38.8947,-24.5522 L -38.8145,-24.7226 L -38.7135,-24.8817
 L -38.5934,-25.0268 L -38.4561,-25.1558 L -38.3037,-25.2665 L -38.1387,-25.3572 L -37.9635,-25.4266 L -37.7811,-25.4734
 L -37.5942,-25.497 L -37.4058,-25.497 L -37.2189,-25.4734 L -37.0365,-25.4266 L -36.8613,-25.3572 L -36.6963,-25.2665
 L -36.5439,-25.1558 L -36.4065,-25.0268 L -36.2865,-24.8817 L -36.1855,-24.7226 L -36.1053,-24.5522 L -36.0471,-24.373
 L -36.0118,-24.188 L -36,-24 L -36.0118,-23.812 L -36.0471,-23.627 L -36.1053,-23.4478 L -36.1855,-23.2774
 L -36.2865,-23.1183 L -36.4065,-22.9732 L -36.5439,-22.8442 L -36.6963,-22.7335 L -36.8613,-22.6428 L -37.0365,-22.5734
 L -37.2189,-22.5266 L -37.4058,-22.503 z
M -22.5942,-22.503 L -22.7811,-22.5266 L -22.9635,-22.5734 L -23.1387,-22.6428 L -23.3037,-22.7335 L -23.4561,-22.8442
 L -23.5934,-22.9732 L -23.7135,-23.1183 L -23.8145,-23.2774 L -23.8947,-23.4478 L -23.9529,-23.627 L -23.9882,-23.812
 L -24,-24 L -23.9882,-24.188 L -23.9529,-24.373 L -23.8947,-24.5522 L -23.8145,-24.7226 L -23.7135,-24.8817
 L -23.5934,-25.0268 L -23.4561,-25.1558 L -23.3037,-25.2665 L -23.1387,-25.3572 L -22.9635,-25.4266 L -22.7811,-25.4734
 L -22.5942,-25.497 L -22.4058,-25.497 L -22.2189,-25.4734 L -22.0365,-25.4266 L -21.8613,-25.3572 L -21.6963,-25.2665
 L -21.5439,-25.1558 L -21.4065,-25.0268 L -21.2865,-24.8817 L -21.1855,-24.7226 L -21.1053,-24.5522 L -21.0471,-24.373
 L -21.0118,-24.188 L -21,-24 L -21.0118,-23.812 L -21.0471,-23.627 L -21.1053,-23.4478 L -21.1855,-23.2774
 L -21.2865,-23.1183 L -21.4065,-22.9732 L -21.5439,-22.8442 L -21.6963,-22.7335 L -21.8613,-22.6428 L -22.0365,-22.5734
 L -22.2189,-22.5266 L -22.4058,-22.503 z
M 139.968,6.9557 L 140.273,6.87764 L 140.564,6.76205 L 140.84,6.61081 L 141.094,6.42627 L 141.322,6.21136
 L 141.523,5.96945 L 141.691,5.70438 L 141.824,5.4203 L 141.921,5.12172 L 141.98,4.81332 L 142,4.5
 L 142,-4.5 L 141.98,-4.81332 L 141.921,-5.12172 L 141.824,-5.4203 L 141.691,-5.70438 L 141.523,-5.96945
 L 141.322,-6.21136 L 141.094,-6.42627 L 140.84,-6.61081 L 140.564,-6.76205 L 140.273,-6.87764 L 139.968,-6.9557
 L 139.657,-6.99506 L -139.657,-6.99506 L -139.968,-6.9557 L -140.273,-6.87764 L -140.564,-6.76205 L -140.84,-6.61081
 L -141.094,-6.42627 L -141.322,-6.21136 L -141.523,-5.96945 L -141.691,-5.70438 L -141.824,-5.4203 L -141.921,-5.12172
 L -141.98,-4.81332 L -142,-4.5 L -142,4.5 L -141.98,4.81332 L -141.921,5.12172 L -141.824,5.4203
 L -141.691,5.70438 L -141.523,5.96945 L -141.322,6.21136 L -141.094,6.42627 L -140.84,6.61081 L -140.564,6.76205
 L -140.273,6.87764 L -139.968,6.9557 L -139.657,6.99506 L 139.657,6.99506 z
M 119.812,2.99408 L 119.438,2.94685 L 119.073,2.85316 L 118.723,2.71448 L 118.393,2.53297 L 118.088,2.31154
 L 117.813,2.05363 L 117.573,1.76335 L 117.371,1.44525 L 117.211,1.10437 L 117.094,0.746063 L 117.024,0.375992
 L 117,-0 L 117.024,-0.375992 L 117.094,-0.746063 L 117.211,-1.10437 L 117.371,-1.44525 L 117.573,-1.76335
 L 117.813,-2.05363 L 118.088,-2.31154 L 118.393,-2.53297 L 118.723,-2.71448 L 119.073,-2.85316 L 119.438,-2.94685
 L 119.812,-2.99408 L 120.188,-2.99408 L 120.562,-2.94685 L 120.927,-2.85316 L 121.277,-2.71448 L 121.607,-2.53297
 L 121.912,-2.31154 L 122.187,-2.05363 L 122.427,-1.76335 L 122.629,-1.44525 L 122.789,-1.10437 L 122.906,-0.746063
 L 122.976,-0.375992 L 123,-0 L 122.976,0.375992 L 122.906,0.746063 L 122.789,1.10437 L 122.629,1.44525
 L 122.427,1.76335 L 122.187,2.05363 L 121.912,2.31154 L 121.607,2.53297 L 121.277,2.71448 L 120.927,2.85316
 L 120.562,2.94685 L 120.188,2.99408 z
M 29.8116,2.99408 L 29.4379,2.94685 L 29.0729,2.85316 L 28.7227,2.71448 L 28.3925,2.53297 L 28.0877,2.31154
 L 27.8131,2.05363 L 27.5729,1.76335 L 27.3711,1.44525 L 27.2107,1.10437 L 27.0942,0.746063 L 27.0237,0.375992
 L 27,-0 L 27.0237,-0.375992 L 27.0942,-0.746063 L 27.2107,-1.10437 L 27.3711,-1.44525 L 27.5729,-1.76335
 L 27.8131,-2.05363 L 28.0877,-2.31154 L 28.3925,-2.53297 L 28.7227,-2.71448 L 29.0729,-2.85316 L 29.4379,-2.94685
 L 29.8116,-2.99408 L 30.1884,-2.99408 L 30.5621,-2.94685 L 30.927,-2.85316 L 31.2773,-2.71448 L 31.6075,-2.53297
 L 31.9123,-2.31154 L 32.1869,-2.05363 L 32.427,-1.76335 L 32.6289,-1.44525 L 32.7893,-1.10437 L 32.9057,-0.746063
 L 32.9763,-0.375992 L 33,-0 L 32.9763,0.375992 L 32.9057,0.746063 L 32.7893,1.10437 L 32.6289,1.44525
 L 32.427,1.76335 L 32.1869,2.05363 L 31.9123,2.31154 L 31.6075,2.53297 L 31.2773,2.71448 L 30.927,2.85316
 L 30.5621,2.94685 L 30.1884,2.99408 z
M -0.18837,2.99408 L -0.562134,2.94685 L -0.927048,2.85316 L -1.27733,2.71448 L -1.60747,2.53297 L -1.91226,2.31154
 L -2.1869,2.05363 L -2.42705,1.76335 L -2.62891,1.44525 L -2.78932,1.10437 L -2.90575,0.746063 L -2.97633,0.375992
 L -3,-0 L -2.97633,-0.375992 L -2.90575,-0.746063 L -2.78932,-1.10437 L -2.62891,-1.44525 L -2.42705,-1.76335
 L -2.1869,-2.05363 L -1.91226,-2.31154 L -1.60747,-2.53297 L -1.27733,-2.71448 L -0.927048,-2.85316 L -0.562134,-2.94685
 L -0.18837,-2.99408 L 0.18837,-2.99408 L 0.562134,-2.94685 L 0.927048,-2.85316 L 1.27733,-2.71448 L 1.60747,-2.53297
 L 1.91226,-2.31154 L 2.1869,-2.05363 L 2.42705,-1.76335 L 2.62891,-1.44525 L 2.78932,-1.10437 L 2.90575,-0.746063
 L 2.97633,-0.375992 L 3,-0 L 2.97633,0.375992 L 2.90575,0.746063 L 2.78932,1.10437 L 2.62891,1.44525
 L 2.42705,1.76335 L 2.1869,2.05363 L 1.91226,2.31154 L 1.60747,2.53297 L 1.27733,2.71448 L 0.927048,2.85316
 L 0.562134,2.94685 L 0.18837,2.99408 z
M -30.1884,2.99408 L -30.5621,2.94685 L -30.927,2.85316 L -31.2773,2.71448 L -31.6075,2.53297 L -31.9123,2.31154
 L -32.1869,2.05363 L -32.427,1.76335 L -32.6289,1.44525 L -32.7893,1.10437 L -32.9057,0.746063 L -32.9763,0.375992
 L -33,-0 L -32.9763,-0.375992 L -32.9057,-0.746063 L -32.7893,-1.10437 L -32.6289,-1.44525 L -32.427,-1.76335
 L -32.1869,-2.05363 L -31.9123,-2.31154 L -31.6075,-2.53297 L -31.2773,-2.71448 L -30.927,-2.85316 L -30.5621,-2.94685
 L -30.1884,-2.99408 L -29.8116,-2.99408 L -29.4379,-2.94685 L -29.0729,-2.85316 L -28.7227,-2.71448 L -28.3925,-2.53297
 L -28.0877,-2.31154 L -27.8131,-2.05363 L -27.5729,-1.76335 L -27.3711,-1.44525 L -27.2107,-1.10437 L -27.0942,-0.746063
 L -27.0237,-0.375992 L -27,-0 L -27.0237,0.375992 L -27.0942,0.746063 L -27.2107,1.10437 L -27.3711,1.44525
 L -27.5729,1.76335 L -27.8131,2.05363 L -28.0877,2.31154 L -28.3925,2.53297 L -28.7227,2.71448 L -29.0729,2.85316
 L -29.4379,2.94685 L -29.8116,2.99408 z
M -90.1884,2.99408 L -90.5621,2.94685 L -90.927,2.85316 L -91.2773,2.71448 L -91.6075,2.53297 L -91.9123,2.31154
 L -92.1869,2.05363 L -92.427,1.76335 L -92.6289,1.44525 L -92.7893,1.10437 L -92.9057,0.746063 L -92.9763,0.375992
 L -93,-0 L -92.9763,-0.375992 L -92.9057,-0.746063 L -92.7893,-1.10437 L -92.6289,-1.44525 L -92.427,-1.76335
 L -92.1869,-2.05363 L -91.9123,-2.31154 L -91.6075,-2.53297 L -91.2773,-2.71448 L -90.927,-2.85316 L -90.5621,-2.94685
 L -90.1884,-2.99408 L -89.8116,-2.99408 L -89.4379,-2.94685 L -89.073,-2.85316 L -88.7227,-2.71448 L -88.3925,-2.53297
 L -88.0877,-2.31154 L -87.8131,-2.05363 L -87.573,-1.76335 L -87.3711,-1.44525 L -87.2107,-1.10437 L -87.0943,-0.746063
 L -87.0237,-0.375992 L -87,-0 L -87.0237,0.375992 L -87.0943,0.746063 L -87.2107,1.10437 L -87.3711,1.44525
 L -87.573,1.76335 L -87.8131,2.05363 L -88.0877,2.31154 L -88.3925,2.53297 L -88.7227,2.71448 L -89.073,2.85316
 L -89.4379,2.94685 L -89.8116,2.99408 z
M -60.1884,2.99408 L -60.5621,2.94685 L -60.927,2.85316 L -61.2773,2.71448 L -61.6075,2.53297 L -61.9123,2.31154
 L -62.1869,2.05363 L -62.427,1.76335 L -62.6289,1.44525 L -62.7893,1.10437 L -62.9057,0.746063 L -62.9763,0.375992
 L -63,-0 L -62.9763,-0.375992 L -62.9057,-0.746063 L -62.7893,-1.10437 L -62.6289,-1.44525 L -62.427,-1.76335
 L -62.1869,-2.05363 L -61.9123,-2.31154 L -61.6075,-2.53297 L -61.2773,-2.71448 L -60.927,-2.85316 L -60.5621,-2.94685
 L -60.1884,-2.99408 L -59.8116,-2.99408 L -59.4379,-2.94685 L -59.0729,-2.85316 L -58.7227,-2.71448 L -58.3925,-2.53297
 L -58.0877,-2.31154 L -57.8131,-2.05363 L -57.5729,-1.76335 L -57.3711,-1.44525 L -57.2107,-1.10437 L -57.0942,-0.746063
 L -57.0237,-0.375992 L -57,-0 L -57.0237,0.375992 L -57.0942,0.746063 L -57.2107,1.10437 L -57.3711,1.44525
 L -57.5729,1.76335 L -57.8131,2.05363 L -58.0877,2.31154 L -58.3925,2.53297 L -58.7227,2.71448 L -59.0729,2.85316
 L -59.4379,2.94685 L -59.8116,2.99408 z
M 59.8116,2.99408 L 59.4379,2.94685 L 59.0729,2.85316 L 58.7227,2.71448 L 58.3925,2.53297 L 58.0877,2.31154
 L 57.8131,2.05363 L 57.5729,1.76335 L 57.3711,1.44525 L 57.2107,1.10437 L 57.0942,0.746063 L 57.0237,0.375992
 L 57,-0 L 57.0237,-0.375992 L 57.0942,-0.746063 L 57.2107,-1.10437 L 57.3711,-1.44525 L 57.5729,-1.76335
 L 57.8131,-2.05363 L 58.0877,-2.31154 L 58.3925,-2.53297 L 58.7227,-2.71448 L 59.0729,-2.85316 L 59.4379,-2.94685
 L 59.8116,-2.99408 L 60.1884,-2.99408 L 60.5621,-2.94685 L 60.927,-2.85316 L 61.2773,-2.71448 L 61.6075,-2.53297
 L 61.9123,-2.31154 L 62.1869,-2.05363 L 62.427,-1.76335 L 62.6289,-1.44525 L 62.7893,-1.10437 L 62.9057,-0.746063
 L 62.9763,-0.375992 L 63,-0 L 62.9763,0.375992 L 62.9057,0.746063 L 62.7893,1.10437 L 62.6289,1.44525
 L 62.427,1.76335 L 62.1869,2.05363 L 61.9123,2.31154 L 61.6075,2.53297 L 61.2773,2.71448 L 60.927,2.85316
 L 60.5621,2.94685 L 60.1884,2.99408 z
M -120.188,2.99408 L -120.562,2.94685 L -120.927,2.85316 L -121.277,2.71448 L -121.607,2.53297 L -121.912,2.31154
 L -122.187,2.05363 L -122.427,1.76335 L -122.629,1.44525 L -122.789,1.10437 L -122.906,0.746063 L -122.976,0.375992
 L -123,-0 L -122.976,-0.375992 L -122.906,-0.746063 L -122.789,-1.10437 L -122.629,-1.44525 L -122.427,-1.76335
 L -122.187,-2.05363 L -121.912,-2.31154 L -121.607,-2.53297 L -121.277,-2.71448 L -120.927,-2.85316 L -120.562,-2.94685
 L -120.188,-2.99408 L -119.812,-2.99408 L -119.438,-2.94685 L -119.073,-2.85316 L -118.723,-2.71448 L -118.393,-2.53297
 L -118.088,-2.31154 L -117.813,-2.05363 L -117.573,-1.76335 L -117.371,-1.44525 L -117.211,-1.10437 L -117.094,-0.746063
 L -117.024,-0.375992 L -117,-0 L -117.024,0.375992 L -117.094,0.746063 L -117.211,1.10437 L -117.371,1.44525
 L -117.573,1.76335 L -117.813,2.05363 L -118.088,2.31154 L -118.393,2.53297 L -118.723,2.71448 L -119.073,2.85316
 L -119.438,2.94685 L -119.812,2.99408 z
M 89.8116,2.99408 L 89.4379,2.94685 L 89.073,2.85316 L 88.7227,2.71448 L 88.3925,2.53297 L 88.0877,2.31154
 L 87.8131,2.05363 L 87.573,1.76335 L 87.3711,1.44525 L 87.2107,1.10437 L 87.0943,0.746063 L 87.0237,0.375992
 L 87,-0 L 87.0237,-0.375992 L 87.0943,-0.746063 L 87.2107,-1.10437 L 87.3711,-1.44525 L 87.573,-1.76335
 L 87.8131,-2.05363 L 88.0877,-2.31154 L 88.3925,-2.53297 L 88.7227,-2.71448 L 89.073,-2.85316 L 89.4379,-2.94685
 L 89.8116,-2.99408 L 90.1884,-2.99408 L 90.5621,-2.94685 L 90.927,-2.85316 L 91.2773,-2.71448 L 91.6075,-2.53297
 L 91.9123,-2.31154 L 92.1869,-2.05363 L 92.427,-1.76335 L 92.6289,-1.44525 L 92.7893,-1.10437 L 92.9057,-0.746063
 L 92.9763,-0.375992 L 93,-0 L 92.9763,0.375992 L 92.9057,0.746063 L 92.7893,1.10437 L 92.6289,1.44525
 L 92.427,1.76335 L 92.1869,2.05363 L 91.9123,2.31154 L 91.6075,2.53297 L 91.2773,2.71448 L 90.927,2.85316
 L 90.5621,2.94685 L 90.1884,2.99408 z
M 52.4058,1.49704 L 52.2189,1.47342 L 52.0365,1.42657 L 51.8613,1.35724 L 51.6963,1.26648 L 51.5439,1.15576
 L 51.4065,1.02681 L 51.2865,0.881668 L 51.1855,0.722626 L 51.1053,0.552185 L 51.0471,0.373032 L 51.0118,0.187988
 L 51,-0 L 51.0118,-0.187988 L 51.0471,-0.373032 L 51.1053,-0.552185 L 51.1855,-0.722626 L 51.2865,-0.881668
 L 51.4065,-1.02681 L 51.5439,-1.15576 L 51.6963,-1.26648 L 51.8613,-1.35724 L 52.0365,-1.42657 L 52.2189,-1.47342
 L 52.4058,-1.49704 L 52.5942,-1.49704 L 52.7811,-1.47342 L 52.9635,-1.42657 L 53.1387,-1.35724 L 53.3037,-1.26648
 L 53.4561,-1.15576 L 53.5934,-1.02681 L 53.7135,-0.881668 L 53.8145,-0.722626 L 53.8947,-0.552185 L 53.9529,-0.373032
 L 53.9882,-0.187988 L 54,-0 L 53.9882,0.187988 L 53.9529,0.373032 L 53.8947,0.552185 L 53.8145,0.722626
 L 53.7135,0.881668 L 53.5934,1.02681 L 53.4561,1.15576 L 53.3037,1.26648 L 53.1387,1.35724 L 52.9635,1.42657
 L 52.7811,1.47342 L 52.5942,1.49704 z
M -112.594,1.49704 L -112.781,1.47342 L -112.964,1.42657 L -113.139,1.35724 L -113.304,1.26648 L -113.456,1.15576
 L -113.593,1.02681 L -113.714,0.881668 L -113.814,0.722626 L -113.895,0.552185 L -113.953,0.373032 L -113.988,0.187988
 L -114,-0 L -113.988,-0.187988 L -113.953,-0.373032 L -113.895,-0.552185 L -113.814,-0.722626 L -113.714,-0.881668
 L -113.593,-1.02681 L -113.456,-1.15576 L -113.304,-1.26648 L -113.139,-1.35724 L -112.964,-1.42657 L -112.781,-1.47342
 L -112.594,-1.49704 L -112.406,-1.49704 L -112.219,-1.47342 L -112.036,-1.42657 L -111.861,-1.35724 L -111.696,-1.26648
 L -111.544,-1.15576 L -111.407,-1.02681 L -111.286,-0.881668 L -111.186,-0.722626 L -111.105,-0.552185 L -111.047,-0.373032
 L -111.012,-0.187988 L -111,-0 L -111.012,0.187988 L -111.047,0.373032 L -111.105,0.552185 L -111.186,0.722626
 L -111.286,0.881668 L -111.407,1.02681 L -111.544,1.15576 L -111.696,1.26648 L -111.861,1.35724 L -112.036,1.42657
 L -112.219,1.47342 L -112.406,1.49704 z
M -127.594,1.49704 L -127.781,1.47342 L -127.964,1.42657 L -128.139,1.35724 L -128.304,1.26648 L -128.456,1.15576
 L -128.593,1.02681 L -128.714,0.881668 L -128.814,0.722626 L -128.895,0.552185 L -128.953,0.373032 L -128.988,0.187988
 L -129,-0 L -128.988,-0.187988 L -128.953,-0.373032 L -128.895,-0.552185 L -128.814,-0.722626 L -128.714,-0.881668
 L -128.593,-1.02681 L -128.456,-1.15576 L -128.304,-1.26648 L -128.139,-1.35724 L -127.964,-1.42657 L -127.781,-1.47342
 L -127.594,-1.49704 L -127.406,-1.49704 L -127.219,-1.47342 L -127.036,-1.42657 L -126.861,-1.35724 L -126.696,-1.26648
 L -126.544,-1.15576 L -126.407,-1.02681 L -126.286,-0.881668 L -126.186,-0.722626 L -126.105,-0.552185 L -126.047,-0.373032
 L -126.012,-0.187988 L -126,-0 L -126.012,0.187988 L -126.047,0.373032 L -126.105,0.552185 L -126.186,0.722626
 L -126.286,0.881668 L -126.407,1.02681 L -126.544,1.15576 L -126.696,1.26648 L -126.861,1.35724 L -127.036,1.42657
 L -127.219,1.47342 L -127.406,1.49704 z
M 127.406,1.49704 L 127.219,1.47342 L 127.036,1.42657 L 126.861,1.35724 L 126.696,1.26648 L 126.544,1.15576
 L 126.407,1.02681 L 126.286,0.881668 L 126.186,0.722626 L 126.105,0.552185 L 126.047,0.373032 L 126.012,0.187988
 L 126,-0 L 126.012,-0.187988 L 126.047,-0.373032 L 126.105,-0.552185 L 126.186,-0.722626 L 126.286,-0.881668
 L 126.407,-1.02681 L 126.544,-1.15576 L 126.696,-1.26648 L 126.861,-1.35724 L 127.036,-1.42657 L 127.219,-1.47342
 L 127.406,-1.49704 L 127.594,-1.49704 L 127.781,-1.47342 L 127.964,-1.42657 L 128.139,-1.35724 L 128.304,-1.26648
 L 128.456,-1.15576 L 128.593,-1.02681 L 128.714,-0.881668 L 128.814,-0.722626 L 128.895,-0.552185 L 128.953,-0.373032
 L 128.988,-0.187988 L 129,-0 L 128.988,0.187988 L 128.953,0.373032 L 128.895,0.552185 L 128.814,0.722626
 L 128.714,0.881668 L 128.593,1.02681 L 128.456,1.15576 L 128.304,1.26648 L 128.139,1.35724 L 127.964,1.42657
 L 127.781,1.47342 L 127.594,1.49704 z
M -22.5942,1.49704 L -22.7811,1.47342 L -22.9635,1.42657 L -23.1387,1.35724 L -23.3037,1.26648 L -23.4561,1.15576
 L -23.5934,1.02681 L -23.7135,0.881668 L -23.8145,0.722626 L -23.8947,0.552185 L -23.9529,0.373032 L -23.9882,0.187988
 L -24,-0 L -23.9882,-0.187988 L -23.9529,-0.373032 L -23.8947,-0.552185 L -23.8145,-0.722626 L -23.7135,-0.881668
 L -23.5934,-1.02681 L -23.4561,-1.15576 L -23.3037,-1.26648 L -23.1387,-1.35724 L -22.9635,-1.42657 L -22.7811,-1.47342
 L -22.5942,-1.49704 L -22.4058,-1.49704 L -22.2189,-1.47342 L -22.0365,-1.42657 L -21.8613,-1.35724 L -21.6963,-1.26648
 L -21.5439,-1.15576 L -21.4065,-1.02681 L -21.2865,-0.881668 L -21.1855,-0.722626 L -21.1053,-0.552185 L -21.0471,-0.373032
 L -21.0118,-0.187988 L -21,-0 L -21.0118,0.187988 L -21.0471,0.373032 L -21.1053,0.552185 L -21.1855,0.722626
 L -21.2865,0.881668 L -21.4065,1.02681 L -21.5439,1.15576 L -21.6963,1.26648 L -21.8613,1.35724 L -22.0365,1.42657
 L -22.2189,1.47342 L -22.4058,1.49704 z
M 22.4058,1.49704 L 22.2189,1.47342 L 22.0365,1.42657 L 21.8613,1.35724 L 21.6963,1.26648 L 21.5439,1.15576
 L 21.4065,1.02681 L 21.2865,0.881668 L 21.1855,0.722626 L 21.1053,0.552185 L 21.0471,0.373032 L 21.0118,0.187988
 L 21,-0 L 21.0118,-0.187988 L 21.0471,-0.373032 L 21.1053,-0.552185 L 21.1855,-0.722626 L 21.2865,-0.881668
 L 21.4065,-1.02681 L 21.5439,-1.15576 L 21.6963,-1.26648 L 21.8613,-1.35724 L 22.0365,-1.42657 L 22.2189,-1.47342
 L 22.4058,-1.49704 L 22.5942,-1.49704 L 22.7811,-1.47342 L 22.9635,-1.42657 L 23.1387,-1.35724 L 23.3037,-1.26648
 L 23.4561,-1.15576 L 23.5934,-1.02681 L 23.7135,-0.881668 L 23.8145,-0.722626 L 23.8947,-0.552185 L 23.9529,-0.373032
 L 23.9882,-0.187988 L 24,-0 L 23.9882,0.187988 L 23.9529,0.373032 L 23.8947,0.552185 L 23.8145,0.722626
 L 23.7135,0.881668 L 23.5934,1.02681 L 23.4561,1.15576 L 23.3037,1.26648 L 23.1387,1.35724 L 22.9635,1.42657
 L 22.7811,1.47342 L 22.5942,1.49704 z
M -82.5942,1.49704 L -82.7811,1.47342 L -82.9635,1.42657 L -83.1387,1.35724 L -83.3037,1.26648 L -83.4561,1.15576
 L -83.5934,1.02681 L -83.7135,0.881668 L -83.8145,0.722626 L -83.8947,0.552185 L -83.9529,0.373032 L -83.9882,0.187988
 L -84,-0 L -83.9882,-0.187988 L -83.9529,-0.373032 L -83.8947,-0.552185 L -83.8145,-0.722626 L -83.7135,-0.881668
 L -83.5934,-1.02681 L -83.4561,-1.15576 L -83.3037,-1.26648 L -83.1387,-1.35724 L -82.9635,-1.42657 L -82.7811,-1.47342
 L -82.5942,-1.49704 L -82.4058,-1.49704 L -82.2189,-1.47342 L -82.0365,-1.42657 L -81.8613,-1.35724 L -81.6963,-1.26648
 L -81.5439,-1.15576 L -81.4065,-1.02681 L -81.2865,-0.881668 L -81.1855,-0.722626 L -81.1053,-0.552185 L -81.0471,-0.373032
 L -81.0118,-0.187988 L -81,-0 L -81.0118,0.187988 L -81.0471,0.373032 L -81.1053,0.552185 L -81.1855,0.722626
 L -81.2865,0.881668 L -81.4065,1.02681 L -81.5439,1.15576 L -81.6963,1.26648 L -81.8613,1.35724 L -82.0365,1.42657
 L -82.2189,1.47342 L -82.4058,1.49704 z
M -7.59418,1.49704 L -7.78107,1.47342 L -7.96352,1.42657 L -8.13866,1.35724 L -8.30373,1.26648 L -8.45613,1.15576
 L -8.59344,1.02681 L -8.71352,0.881668 L -8.81445,0.722626 L -8.89465,0.552185 L -8.95287,0.373032 L -8.98816,0.187988
 L -9,-0 L -8.98816,-0.187988 L -8.95287,-0.373032 L -8.89465,-0.552185 L -8.81445,-0.722626 L -8.71352,-0.881668
 L -8.59344,-1.02681 L -8.45613,-1.15576 L -8.30373,-1.26648 L -8.13866,-1.35724 L -7.96352,-1.42657 L -7.78107,-1.47342
 L -7.59418,-1.49704 L -7.40581,-1.49704 L -7.21892,-1.47342 L -7.03647,-1.42657 L -6.86133,-1.35724 L -6.69626,-1.26648
 L -6.54385,-1.15576 L -6.40654,-1.02681 L -6.28647,-0.881668 L -6.18553,-0.722626 L -6.10533,-0.552185 L -6.04712,-0.373032
 L -6.01183,-0.187988 L -6,-0 L -6.01183,0.187988 L -6.04712,0.373032 L -6.10533,0.552185 L -6.18553,0.722626
 L -6.28647,0.881668 L -6.40654,1.02681 L -6.54385,1.15576 L -6.69626,1.26648 L -6.86133,1.35724 L -7.03647,1.42657
 L -7.21892,1.47342 L -7.40581,1.49704 z
M -37.5942,1.49704 L -37.7811,1.47342 L -37.9635,1.42657 L -38.1387,1.35724 L -38.3037,1.26648 L -38.4561,1.15576
 L -38.5934,1.02681 L -38.7135,0.881668 L -38.8145,0.722626 L -38.8947,0.552185 L -38.9529,0.373032 L -38.9882,0.187988
 L -39,-0 L -38.9882,-0.187988 L -38.9529,-0.373032 L -38.8947,-0.552185 L -38.8145,-0.722626 L -38.7135,-0.881668
 L -38.5934,-1.02681 L -38.4561,-1.15576 L -38.3037,-1.26648 L -38.1387,-1.35724 L -37.9635,-1.42657 L -37.7811,-1.47342
 L -37.5942,-1.49704 L -37.4058,-1.49704 L -37.2189,-1.47342 L -37.0365,-1.42657 L -36.8613,-1.35724 L -36.6963,-1.26648
 L -36.5439,-1.15576 L -36.4065,-1.02681 L -36.2865,-0.881668 L -36.1855,-0.722626 L -36.1053,-0.552185 L -36.0471,-0.373032
 L -36.0118,-0.187988 L -36,-0 L -36.0118,0.187988 L -36.0471,0.373032 L -36.1053,0.552185 L -36.1855,0.722626
 L -36.2865,0.881668 L -36.4065,1.02681 L -36.5439,1.15576 L -36.6963,1.26648 L -36.8613,1.35724 L -37.0365,1.42657
 L -37.2189,1.47342 L -37.4058,1.49704 z
M 82.4058,1.49704 L 82.2189,1.47342 L 82.0365,1.42657 L 81.8613,1.35724 L 81.6963,1.26648 L 81.5439,1.15576
 L 81.4065,1.02681 L 81.2865,0.881668 L 81.1855,0.722626 L 81.1053,0.552185 L 81.0471,0.373032 L 81.0118,0.187988
 L 81,-0 L 81.0118,-0.187988 L 81.0471,-0.373032 L 81.1053,-0.552185 L 81.1855,-0.722626 L 81.2865,-0.881668
 L 81.4065,-1.02681 L 81.5439,-1.15576 L 81.6963,-1.26648 L 81.8613,-1.35724 L 82.0365,-1.42657 L 82.2189,-1.47342
 L 82.4058,-1.49704 L 82.5942,-1.49704 L 82.7811,-1.47342 L 82.9635,-1.42657 L 83.1387,-1.35724 L 83.3037,-1.26648
 L 83.4561,-1.15576 L 83.5934,-1.02681 L 83.7135,-0.881668 L 83.8145,-0.722626 L 83.8947,-0.552185 L 83.9529,-0.373032
 L 83.9882,-0.187988 L 84,-0 L 83.9882,0.187988 L 83.9529,0.373032 L 83.8947,0.552185 L 83.8145,0.722626
 L 83.7135,0.881668 L 83.5934,1.02681 L 83.4561,1.15576 L 83.3037,1.26648 L 83.1387,1.35724 L 82.9635,1.42657
 L 82.7811,1.47342 L 82.5942,1.49704 z
M 7.40581,1.49704 L 7.21892,1.47342 L 7.03647,1.42657 L 6.86133,1.35724 L 6.69626,1.26648 L 6.54385,1.15576
 L 6.40654,1.02681 L 6.28647,0.881668 L 6.18553,0.722626 L 6.10533,0.552185 L 6.04712,0.373032 L 6.01183,0.187988
 L 6,-0 L 6.01183,-0.187988 L 6.04712,-0.373032 L 6.10533,-0.552185 L 6.18553,-0.722626 L 6.28647,-0.881668
 L 6.40654,-1.02681 L 6.54385,-1.15576 L 6.69626,-1.26648 L 6.86133,-1.35724 L 7.03647,-1.42657 L 7.21892,-1.47342
 L 7.40581,-1.49704 L 7.59418,-1.49704 L 7.78107,-1.47342 L 7.96352,-1.42657 L 8.13866,-1.35724 L 8.30373,-1.26648
 L 8.45613,-1.15576 L 8.59344,-1.02681 L 8.71352,-0.881668 L 8.81445,-0.722626 L 8.89465,-0.552185 L 8.95287,-0.373032
 L 8.98816,-0.187988 L 9,-0 L 8.98816,0.187988 L 8.95287,0.373032 L 8.89465,0.552185 L 8.81445,0.722626
 L 8.71352,0.881668 L 8.59344,1.02681 L 8.45613,1.15576 L 8.30373,1.26648 L 8.13866,1.35724 L 7.96352,1.42657
 L 7.78107,1.47342 L 7.59418,1.49704 z
M 97.4058,1.49704 L 97.2189,1.47342 L 97.0365,1.42657 L 96.8613,1.35724 L 96.6963,1.26648 L 96.5439,1.15576
 L 96.4065,1.02681 L 96.2865,0.881668 L 96.1855,0.722626 L 96.1053,0.552185 L 96.0471,0.373032 L 96.0118,0.187988
 L 96,-0 L 96.0118,-0.187988 L 96.0471,-0.373032 L 96.1053,-0.552185 L 96.1855,-0.722626 L 96.2865,-0.881668
 L 96.4065,-1.02681 L 96.5439,-1.15576 L 96.6963,-1.26648 L 96.8613,-1.35724 L 97.0365,-1.42657 L 97.2189,-1.47342
 L 97.4058,-1.49704 L 97.5942,-1.49704 L 97.7811,-1.47342 L 97.9635,-1.42657 L 98.1387,-1.35724 L 98.3037,-1.26648
 L 98.4561,-1.15576 L 98.5934,-1.02681 L 98.7135,-0.881668 L 98.8145,-0.722626 L 98.8947,-0.552185 L 98.9529,-0.373032
 L 98.9882,-0.187988 L 99,-0 L 98.9882,0.187988 L 98.9529,0.373032 L 98.8947,0.552185 L 98.8145,0.722626
 L 98.7135,0.881668 L 98.5934,1.02681 L 98.4561,1.15576 L 98.3037,1.26648 L 98.1387,1.35724 L 97.9635,1.42657
 L 97.7811,1.47342 L 97.5942,1.49704 z
M 37.4058,1.49704 L 37.2189,1.47342 L 37.0365,1.42657 L 36.8613,1.35724 L 36.6963,1.26648 L 36.5439,1.15576
 L 36.4065,1.02681 L 36.2865,0.881668 L 36.1855,0.722626 L 36.1053,0.552185 L 36.0471,0.373032 L 36.0118,0.187988
 L 36,-0 L 36.0118,-0.187988 L 36.0471,-0.373032 L 36.1053,-0.552185 L 36.1855,-0.722626 L 36.2865,-0.881668
 L 36.4065,-1.02681 L 36.5439,-1.15576 L 36.6963,-1.26648 L 36.8613,-1.35724 L 37.0365,-1.42657 L 37.2189,-1.47342
 L 37.4058,-1.49704 L 37.5942,-1.49704 L 37.7811,-1.47342 L 37.9635,-1.42657 L 38.1387,-1.35724 L 38.3037,-1.26648
 L 38.4561,-1.15576 L 38.5934,-1.02681 L 38.7135,-0.881668 L 38.8145,-0.722626 L 38.8947,-0.552185 L 38.9529,-0.373032
 L 38.9882,-0.187988 L 39,-0 L 38.9882,0.187988 L 38.9529,0.373032 L 38.8947,0.552185 L 38.8145,0.722626
 L 38.7135,0.881668 L 38.5934,1.02681 L 38.4561,1.15576 L 38.3037,1.26648 L 38.1387,1.35724 L 37.9635,1.42657
 L 37.7811,1.47342 L 37.5942,1.49704 z
M -52.5942,1.49704 L -52.7811,1.47342 L -52.9635,1.42657 L -53.1387,1.35724 L -53.3037,1.26648 L -53.4561,1.15576
 L -53.5934,1.02681 L -53.7135,0.881668 L -53.8145,0.722626 L -53.8947,0.552185 L -53.9529,0.373032 L -53.9882,0.187988
 L -54,-0 L -53.9882,-0.187988 L -53.9529,-0.373032 L -53.8947,-0.552185 L -53.8145,-0.722626 L -53.7135,-0.881668
 L -53.5934,-1.02681 L -53.4561,-1.15576 L -53.3037,-1.26648 L -53.1387,-1.35724 L -52.9635,-1.42657 L -52.7811,-1.47342
 L -52.5942,-1.49704 L -52.4058,-1.49704 L -52.2189,-1.47342 L -52.0365,-1.42657 L -51.8613,-1.35724 L -51.6963,-1.26648
 L -51.5439,-1.15576 L -51.4065,-1.02681 L -51.2865,-0.881668 L -51.1855,-0.722626 L -51.1053,-0.552185 L -51.0471,-0.373032
 L -51.0118,-0.187988 L -51,-0 L -51.0118,0.187988 L -51.0471,0.373032 L -51.1053,0.552185 L -51.1855,0.722626
 L -51.2865,0.881668 L -51.4065,1.02681 L -51.5439,1.15576 L -51.6963,1.26648 L -51.8613,1.35724 L -52.0365,1.42657
 L -52.2189,1.47342 L -52.4058,1.49704 z
M 112.406,1.49704 L 112.219,1.47342 L 112.036,1.42657 L 111.861,1.35724 L 111.696,1.26648 L 111.544,1.15576
 L 111.407,1.02681 L 111.286,0.881668 L 111.186,0.722626 L 111.105,0.552185 L 111.047,0.373032 L 111.012,0.187988
 L 111,-0 L 111.012,-0.187988 L 111.047,-0.373032 L 111.105,-0.552185 L 111.186,-0.722626 L 111.286,-0.881668
 L 111.407,-1.02681 L 111.544,-1.15576 L 111.696,-1.26648 L 111.861,-1.35724 L 112.036,-1.42657 L 112.219,-1.47342
 L 112.406,-1.49704 L 112.594,-1.49704 L 112.781,-1.47342 L 112.964,-1.42657 L 113.139,-1.35724 L 113.304,-1.26648
 L 113.456,-1.15576 L 113.593,-1.02681 L 113.714,-0.881668 L 113.814,-0.722626 L 113.895,-0.552185 L 113.953,-0.373032
 L 113.988,-0.187988 L 114,-0 L 113.988,0.187988 L 113.953,0.373032 L 113.895,0.552185 L 113.814,0.722626
 L 113.714,0.881668 L 113.593,1.02681 L 113.456,1.15576 L 113.304,1.26648 L 113.139,1.35724 L 112.964,1.42657
 L 112.781,1.47342 L 112.594,1.49704 z
M -97.5942,1.49704 L -97.7811,1.47342 L -97.9635,1.42657 L -98.1387,1.35724 L -98.3037,1.26648 L -98.4561,1.15576
 L -98.5934,1.02681 L -98.7135,0.881668 L -98.8145,0.722626 L -98.8947,0.552185 L -98.9529,0.373032 L -98.9882,0.187988
 L -99,-0 L -98.9882,-0.187988 L -98.9529,-0.373032 L -98.8947,-0.552185 L -98.8145,-0.722626 L -98.7135,-0.881668
 L -98.5934,-1.02681 L -98.4561,-1.15576 L -98.3037,-1.26648 L -98.1387,-1.35724 L -97.9635,-1.42657 L -97.7811,-1.47342
 L -97.5942,-1.49704 L -97.4058,-1.49704 L -97.2189,-1.47342 L -97.0365,-1.42657 L -96.8613,-1.35724 L -96.6963,-1.26648
 L -96.5439,-1.15576 L -96.4065,-1.02681 L -96.2865,-0.881668 L -96.1855,-0.722626 L -96.1053,-0.552185 L -96.0471,-0.373032
 L -96.0118,-0.187988 L -96,-0 L -96.0118,0.187988 L -96.0471,0.373032 L -96.1053,0.552185 L -96.1855,0.722626
 L -96.2865,0.881668 L -96.4065,1.02681 L -96.5439,1.15576 L -96.6963,1.26648 L -96.8613,1.35724 L -97.0365,1.42657
 L -97.2189,1.47342 L -97.4058,1.49704 z
M 67.4058,1.49704 L 67.2189,1.47342 L 67.0365,1.42657 L 66.8613,1.35724 L 66.6963,1.26648 L 66.5439,1.15576
 L 66.4065,1.02681 L 66.2865,0.881668 L 66.1855,0.722626 L 66.1053,0.552185 L 66.0471,0.373032 L 66.0118,0.187988
 L 66,-0 L 66.0118,-0.187988 L 66.0471,-0.373032 L 66.1053,-0.552185 L 66.1855,-0.722626 L 66.2865,-0.881668
 L 66.4065,-1.02681 L 66.5439,-1.15576 L 66.6963,-1.26648 L 66.8613,-1.35724 L 67.0365,-1.42657 L 67.2189,-1.47342
 L 67.4058,-1.49704 L 67.5942,-1.49704 L 67.7811,-1.47342 L 67.9635,-1.42657 L 68.1387,-1.35724 L 68.3037,-1.26648
 L 68.4561,-1.15576 L 68.5934,-1.02681 L 68.7135,-0.881668 L 68.8145,-0.722626 L 68.8947,-0.552185 L 68.9529,-0.373032
 L 68.9882,-0.187988 L 69,-0 L 68.9882,0.187988 L 68.9529,0.373032 L 68.8947,0.552185 L 68.8145,0.722626
 L 68.7135,0.881668 L 68.5934,1.02681 L 68.4561,1.15576 L 68.3037,1.26648 L 68.1387,1.35724 L 67.9635,1.42657
 L 67.7811,1.47342 L 67.5942,1.49704 z
M -67.5942,1.49704 L -67.7811,1.47342 L -67.9635,1.42657 L -68.1387,1.35724 L -68.3037,1.26648 L -68.4561,1.15576
 L -68.5934,1.02681 L -68.7135,0.881668 L -68.8145,0.722626 L -68.8947,0.552185 L -68.9529,0.373032 L -68.9882,0.187988
 L -69,-0 L -68.9882,-0.187988 L -68.9529,-0.373032 L -68.8947,-0.552185 L -68.8145,-0.722626 L -68.7135,-0.881668
 L -68.5934,-1.02681 L -68.4561,-1.15576 L -68.3037,-1.26648 L -68.1387,-1.35724 L -67.9635,-1.42657 L -67.7811,-1.47342
 L -67.5942,-1.49704 L -67.4058,-1.49704 L -67.2189,-1.47342 L -67.0365,-1.42657 L -66.8613,-1.35724 L -66.6963,-1.26648
 L -66.5439,-1.15576 L -66.4065,-1.02681 L -66.2865,-0.881668 L -66.1855,-0.722626 L -66.1053,-0.552185 L -66.0471,-0.373032
 L -66.0118,-0.187988 L -66,-0 L -66.0118,0.187988 L -66.0471,0.373032 L -66.1053,0.552185 L -66.1855,0.722626
 L -66.2865,0.881668 L -66.4065,1.02681 L -66.5439,1.15576 L -66.6963,1.26648 L -66.8613,1.35724 L -67.0365,1.42657
 L -67.2189,1.47342 L -67.4058,1.49704 z
" stroke="black" fill="lightgray" stroke-width="0.5"/>
</svg>
