solid OpenSCAD_Model
  facet normal 0.998026 0.0627961 7.43739e-19
    outer loop
      vertex 5 0 1.5
      vertex 4.96057 0.626666 -1.5
      vertex 4.96057 0.626666 1.5
    endloop
  endfacet
  facet normal 0.998026 0.0627961 7.43739e-19
    outer loop
      vertex 4.96057 0.626666 -1.5
      vertex 5 0 1.5
      vertex 5 0 -1.5
    endloop
  endfacet
  facet normal -0.998026 0.0627961 -7.43739e-19
    outer loop
      vertex -5 0 -1.5
      vertex -4.96057 0.626666 1.5
      vertex -4.96057 0.626666 -1.5
    endloop
  endfacet
  facet normal -0.998026 0.0627961 -7.43739e-19
    outer loop
      vertex -4.96057 0.626666 1.5
      vertex -5 0 -1.5
      vertex -5 0 1.5
    endloop
  endfacet
  facet normal 0 1 -0
    outer loop
      vertex 0.313952 4.99013 -1.5
      vertex -0.313952 4.99013 1.5
      vertex 0.313952 4.99013 1.5
    endloop
  endfacet
  facet normal 0 1 0
    outer loop
      vertex -0.313952 4.99013 1.5
      vertex 0.313952 4.99013 -1.5
      vertex -0.313952 4.99013 -1.5
    endloop
  endfacet
  facet normal 0 -1 0
    outer loop
      vertex -0.313952 -4.99013 -1.5
      vertex 0.313952 -4.99013 1.5
      vertex -0.313952 -4.99013 1.5
    endloop
  endfacet
  facet normal 0 -1 -0
    outer loop
      vertex 0.313952 -4.99013 1.5
      vertex -0.313952 -4.99013 -1.5
      vertex 0.313952 -4.99013 -1.5
    endloop
  endfacet
  facet normal 0.684549 0.728967 -0
    outer loop
      vertex 3.64484 3.42274 -1.5
      vertex 3.18712 3.85257 1.5
      vertex 3.64484 3.42274 1.5
    endloop
  endfacet
  facet normal 0.684549 0.728967 0
    outer loop
      vertex 3.18712 3.85257 1.5
      vertex 3.64484 3.42274 -1.5
      vertex 3.18712 3.85257 -1.5
    endloop
  endfacet
  facet normal -0.684549 0.728967 0
    outer loop
      vertex -3.18712 3.85257 -1.5
      vertex -3.64484 3.42274 1.5
      vertex -3.18712 3.85257 1.5
    endloop
  endfacet
  facet normal -0.684549 0.728967 0
    outer loop
      vertex -3.64484 3.42274 1.5
      vertex -3.18712 3.85257 -1.5
      vertex -3.64484 3.42274 -1.5
    endloop
  endfacet
  facet normal -0.368124 0.929777 0
    outer loop
      vertex -1.54508 4.75528 -1.5
      vertex -2.1289 4.52413 1.5
      vertex -1.54508 4.75528 1.5
    endloop
  endfacet
  facet normal -0.368124 0.929777 0
    outer loop
      vertex -2.1289 4.52413 1.5
      vertex -1.54508 4.75528 -1.5
      vertex -2.1289 4.52413 -1.5
    endloop
  endfacet
  facet normal 0.904828 0.425778 -4.82033e-18
    outer loop
      vertex 4.64888 1.84062 1.5
      vertex 4.38153 2.40877 -1.5
      vertex 4.38153 2.40877 1.5
    endloop
  endfacet
  facet normal 0.904828 0.425778 -4.82033e-18
    outer loop
      vertex 4.38153 2.40877 -1.5
      vertex 4.64888 1.84062 1.5
      vertex 4.64888 1.84062 -1.5
    endloop
  endfacet
  facet normal 0.98229 0.187369 1.12595e-18
    outer loop
      vertex 4.96057 0.626666 1.5
      vertex 4.84292 1.24345 -1.5
      vertex 4.84292 1.24345 1.5
    endloop
  endfacet
  facet normal 0.98229 0.187369 1.12595e-18
    outer loop
      vertex 4.84292 1.24345 -1.5
      vertex 4.96057 0.626666 1.5
      vertex 4.96057 0.626666 -1.5
    endloop
  endfacet
  facet normal 0.368124 0.929777 -0
    outer loop
      vertex 2.1289 4.52413 -1.5
      vertex 1.54508 4.75528 1.5
      vertex 2.1289 4.52413 1.5
    endloop
  endfacet
  facet normal 0.368124 0.929777 0
    outer loop
      vertex 1.54508 4.75528 1.5
      vertex 2.1289 4.52413 -1.5
      vertex 1.54508 4.75528 -1.5
    endloop
  endfacet
  facet normal 0.248701 0.96858 -0
    outer loop
      vertex 1.54508 4.75528 -1.5
      vertex 0.936906 4.91144 1.5
      vertex 1.54508 4.75528 1.5
    endloop
  endfacet
  facet normal 0.248701 0.96858 0
    outer loop
      vertex 0.936906 4.91144 1.5
      vertex 1.54508 4.75528 -1.5
      vertex 0.936906 4.91144 -1.5
    endloop
  endfacet
  facet normal 0.481752 0.876308 -0
    outer loop
      vertex 2.67913 4.22164 -1.5
      vertex 2.1289 4.52413 1.5
      vertex 2.67913 4.22164 1.5
    endloop
  endfacet
  facet normal 0.481752 0.876308 0
    outer loop
      vertex 2.1289 4.52413 1.5
      vertex 2.67913 4.22164 -1.5
      vertex 2.1289 4.52413 -1.5
    endloop
  endfacet
  facet normal -0.904828 0.425778 4.82033e-18
    outer loop
      vertex -4.64888 1.84062 -1.5
      vertex -4.38153 2.40877 1.5
      vertex -4.38153 2.40877 -1.5
    endloop
  endfacet
  facet normal -0.904828 0.425778 4.82033e-18
    outer loop
      vertex -4.38153 2.40877 1.5
      vertex -4.64888 1.84062 -1.5
      vertex -4.64888 1.84062 1.5
    endloop
  endfacet
  facet normal -0.770515 0.637422 4.6405e-18
    outer loop
      vertex -4.04508 2.93893 -1.5
      vertex -3.64484 3.42274 1.5
      vertex -3.64484 3.42274 -1.5
    endloop
  endfacet
  facet normal -0.770515 0.637422 4.6405e-18
    outer loop
      vertex -3.64484 3.42274 1.5
      vertex -4.04508 2.93893 -1.5
      vertex -4.04508 2.93893 1.5
    endloop
  endfacet
  facet normal -0.951053 0.309028 3.17641e-18
    outer loop
      vertex -4.84292 1.24345 -1.5
      vertex -4.64888 1.84062 1.5
      vertex -4.64888 1.84062 -1.5
    endloop
  endfacet
  facet normal -0.951053 0.309028 3.17641e-18
    outer loop
      vertex -4.64888 1.84062 1.5
      vertex -4.84292 1.24345 -1.5
      vertex -4.84292 1.24345 1.5
    endloop
  endfacet
  facet normal -0.248701 0.96858 0
    outer loop
      vertex -0.936906 4.91144 -1.5
      vertex -1.54508 4.75528 1.5
      vertex -0.936906 4.91144 1.5
    endloop
  endfacet
  facet normal -0.248701 0.96858 0
    outer loop
      vertex -1.54508 4.75528 1.5
      vertex -0.936906 4.91144 -1.5
      vertex -1.54508 4.75528 -1.5
    endloop
  endfacet
  facet normal 0.125322 -0.992116 0
    outer loop
      vertex 0.313952 -4.99013 -1.5
      vertex 0.936906 -4.91144 1.5
      vertex 0.313952 -4.99013 1.5
    endloop
  endfacet
  facet normal 0.125322 -0.992116 0
    outer loop
      vertex 0.936906 -4.91144 1.5
      vertex 0.313952 -4.99013 -1.5
      vertex 0.936906 -4.91144 -1.5
    endloop
  endfacet
  facet normal 0.951053 0.309028 -3.17641e-18
    outer loop
      vertex 4.84292 1.24345 1.5
      vertex 4.64888 1.84062 -1.5
      vertex 4.64888 1.84062 1.5
    endloop
  endfacet
  facet normal 0.951053 0.309028 -3.17641e-18
    outer loop
      vertex 4.64888 1.84062 -1.5
      vertex 4.84292 1.24345 1.5
      vertex 4.84292 1.24345 -1.5
    endloop
  endfacet
  facet normal 0.770515 0.637422 -4.6405e-18
    outer loop
      vertex 4.04508 2.93893 1.5
      vertex 3.64484 3.42274 -1.5
      vertex 3.64484 3.42274 1.5
    endloop
  endfacet
  facet normal 0.770515 0.637422 -4.6405e-18
    outer loop
      vertex 3.64484 3.42274 -1.5
      vertex 4.04508 2.93893 1.5
      vertex 4.04508 2.93893 -1.5
    endloop
  endfacet
  facet normal 0.844328 0.535827 5.89952e-18
    outer loop
      vertex 4.38153 2.40877 1.5
      vertex 4.04508 2.93893 -1.5
      vertex 4.04508 2.93893 1.5
    endloop
  endfacet
  facet normal 0.844328 0.535827 5.89952e-18
    outer loop
      vertex 4.04508 2.93893 -1.5
      vertex 4.38153 2.40877 1.5
      vertex 4.38153 2.40877 -1.5
    endloop
  endfacet
  facet normal 0.125322 0.992116 -0
    outer loop
      vertex 0.936906 4.91144 -1.5
      vertex 0.313952 4.99013 1.5
      vertex 0.936906 4.91144 1.5
    endloop
  endfacet
  facet normal 0.125322 0.992116 0
    outer loop
      vertex 0.313952 4.99013 1.5
      vertex 0.936906 4.91144 -1.5
      vertex 0.313952 4.99013 -1.5
    endloop
  endfacet
  facet normal 0.587779 0.809022 -0
    outer loop
      vertex 3.18712 3.85257 -1.5
      vertex 2.67913 4.22164 1.5
      vertex 3.18712 3.85257 1.5
    endloop
  endfacet
  facet normal 0.587779 0.809022 0
    outer loop
      vertex 2.67913 4.22164 1.5
      vertex 3.18712 3.85257 -1.5
      vertex 2.67913 4.22164 -1.5
    endloop
  endfacet
  facet normal -0.844328 0.535827 -5.89952e-18
    outer loop
      vertex -4.38153 2.40877 -1.5
      vertex -4.04508 2.93893 1.5
      vertex -4.04508 2.93893 -1.5
    endloop
  endfacet
  facet normal -0.844328 0.535827 -5.89952e-18
    outer loop
      vertex -4.04508 2.93893 1.5
      vertex -4.38153 2.40877 -1.5
      vertex -4.38153 2.40877 1.5
    endloop
  endfacet
  facet normal -0.98229 0.187369 -1.12595e-18
    outer loop
      vertex -4.96057 0.626666 -1.5
      vertex -4.84292 1.24345 1.5
      vertex -4.84292 1.24345 -1.5
    endloop
  endfacet
  facet normal -0.98229 0.187369 -1.12595e-18
    outer loop
      vertex -4.84292 1.24345 1.5
      vertex -4.96057 0.626666 -1.5
      vertex -4.96057 0.626666 1.5
    endloop
  endfacet
  facet normal 0 0 1
    outer loop
      vertex 1.5 0 1.5
      vertex 5 0 1.5
      vertex 4.96057 0.626666 1.5
    endloop
  endfacet
  facet normal 0 0 1
    outer loop
      vertex 1.48817 0.188 1.5
      vertex 4.96057 0.626666 1.5
      vertex 4.84292 1.24345 1.5
    endloop
  endfacet
  facet normal 0 0 1
    outer loop
      vertex 5 0 1.5
      vertex 1.5 0 1.5
      vertex 4.96057 -0.626666 1.5
    endloop
  endfacet
  facet normal 0 0 1
    outer loop
      vertex 1.45287 0.373034 1.5
      vertex 4.84292 1.24345 1.5
      vertex 4.64888 1.84062 1.5
    endloop
  endfacet
  facet normal -0 0 1
    outer loop
      vertex 1.48817 -0.188 1.5
      vertex 4.96057 -0.626666 1.5
      vertex 1.5 0 1.5
    endloop
  endfacet
  facet normal 0 0 1
    outer loop
      vertex 1.39466 0.552186 1.5
      vertex 4.64888 1.84062 1.5
      vertex 4.38153 2.40877 1.5
    endloop
  endfacet
  facet normal 0 0 1
    outer loop
      vertex 4.96057 -0.626666 1.5
      vertex 1.48817 -0.188 1.5
      vertex 4.84292 -1.24345 1.5
    endloop
  endfacet
  facet normal 0 0 1
    outer loop
      vertex 1.31446 0.722631 1.5
      vertex 4.38153 2.40877 1.5
      vertex 4.04508 2.93893 1.5
    endloop
  endfacet
  facet normal -0 0 1
    outer loop
      vertex 1.45287 -0.373034 1.5
      vertex 4.84292 -1.24345 1.5
      vertex 1.48817 -0.188 1.5
    endloop
  endfacet
  facet normal 0 0 1
    outer loop
      vertex 1.21352 0.881678 1.5
      vertex 4.04508 2.93893 1.5
      vertex 3.64484 3.42274 1.5
    endloop
  endfacet
  facet normal 0 0 1
    outer loop
      vertex 4.84292 -1.24345 1.5
      vertex 1.45287 -0.373034 1.5
      vertex 4.64888 -1.84062 1.5
    endloop
  endfacet
  facet normal 0 0 1
    outer loop
      vertex 1.09345 1.02682 1.5
      vertex 3.64484 3.42274 1.5
      vertex 3.18712 3.85257 1.5
    endloop
  endfacet
  facet normal -0 0 1
    outer loop
      vertex 1.39466 -0.552186 1.5
      vertex 4.64888 -1.84062 1.5
      vertex 1.45287 -0.373034 1.5
    endloop
  endfacet
  facet normal 0 0 1
    outer loop
      vertex 0.956136 1.15577 1.5
      vertex 3.18712 3.85257 1.5
      vertex 2.67913 4.22164 1.5
    endloop
  endfacet
  facet normal 0 0 1
    outer loop
      vertex 4.64888 -1.84062 1.5
      vertex 1.39466 -0.552186 1.5
      vertex 4.38153 -2.40877 1.5
    endloop
  endfacet
  facet normal 0 0 1
    outer loop
      vertex 0.80374 1.26649 1.5
      vertex 2.67913 4.22164 1.5
      vertex 2.1289 4.52413 1.5
    endloop
  endfacet
  facet normal -0 0 1
    outer loop
      vertex 1.31446 -0.722631 1.5
      vertex 4.38153 -2.40877 1.5
      vertex 1.39466 -0.552186 1.5
    endloop
  endfacet
  facet normal 0 0 1
    outer loop
      vertex 0.638668 1.35724 1.5
      vertex 2.1289 4.52413 1.5
      vertex 1.54508 4.75528 1.5
    endloop
  endfacet
  facet normal 0 0 1
    outer loop
      vertex 4.38153 -2.40877 1.5
      vertex 1.31446 -0.722631 1.5
      vertex 4.04508 -2.93893 1.5
    endloop
  endfacet
  facet normal -0 0 1
    outer loop
      vertex 1.21352 -0.881678 1.5
      vertex 4.04508 -2.93893 1.5
      vertex 1.31446 -0.722631 1.5
    endloop
  endfacet
  facet normal 0 0 1
    outer loop
      vertex 4.96057 0.626666 1.5
      vertex 1.48817 0.188 1.5
      vertex 1.5 0 1.5
    endloop
  endfacet
  facet normal 0 0 1
    outer loop
      vertex 4.84292 1.24345 1.5
      vertex 1.45287 0.373034 1.5
      vertex 1.48817 0.188 1.5
    endloop
  endfacet
  facet normal 0 0 1
    outer loop
      vertex 4.64888 1.84062 1.5
      vertex 1.39466 0.552186 1.5
      vertex 1.45287 0.373034 1.5
    endloop
  endfacet
  facet normal 0 0 1
    outer loop
      vertex 4.38153 2.40877 1.5
      vertex 1.31446 0.722631 1.5
      vertex 1.39466 0.552186 1.5
    endloop
  endfacet
  facet normal 0 0 1
    outer loop
      vertex 4.04508 2.93893 1.5
      vertex 1.21352 0.881678 1.5
      vertex 1.31446 0.722631 1.5
    endloop
  endfacet
  facet normal 0 0 1
    outer loop
      vertex 3.64484 3.42274 1.5
      vertex 1.09345 1.02682 1.5
      vertex 1.21352 0.881678 1.5
    endloop
  endfacet
  facet normal 0 0 1
    outer loop
      vertex 3.18712 3.85257 1.5
      vertex 0.956136 1.15577 1.5
      vertex 1.09345 1.02682 1.5
    endloop
  endfacet
  facet normal 0 0 1
    outer loop
      vertex 0.463525 1.42658 1.5
      vertex 1.54508 4.75528 1.5
      vertex 0.936906 4.91144 1.5
    endloop
  endfacet
  facet normal 0 0 1
    outer loop
      vertex 2.67913 4.22164 1.5
      vertex 0.80374 1.26649 1.5
      vertex 0.956136 1.15577 1.5
    endloop
  endfacet
  facet normal 0 0 1
    outer loop
      vertex 2.1289 4.52413 1.5
      vertex 0.638668 1.35724 1.5
      vertex 0.80374 1.26649 1.5
    endloop
  endfacet
  facet normal 0 0 1
    outer loop
      vertex 1.54508 4.75528 1.5
      vertex 0.463525 1.42658 1.5
      vertex 0.638668 1.35724 1.5
    endloop
  endfacet
  facet normal 0 0 1
    outer loop
      vertex 0.281072 1.47343 1.5
      vertex 0.936906 4.91144 1.5
      vertex 0.313952 4.99013 1.5
    endloop
  endfacet
  facet normal 0 0 1
    outer loop
      vertex 0.936906 4.91144 1.5
      vertex 0.281072 1.47343 1.5
      vertex 0.463525 1.42658 1.5
    endloop
  endfacet
  facet normal 0 0 1
    outer loop
      vertex 0.313952 4.99013 1.5
      vertex 0.0941849 1.49704 1.5
      vertex 0.281072 1.47343 1.5
    endloop
  endfacet
  facet normal 0 0 1
    outer loop
      vertex 0.313952 4.99013 1.5
      vertex -0.0941849 1.49704 1.5
      vertex 0.0941849 1.49704 1.5
    endloop
  endfacet
  facet normal -0 0 1
    outer loop
      vertex -0.313952 4.99013 1.5
      vertex -0.0941849 1.49704 1.5
      vertex 0.313952 4.99013 1.5
    endloop
  endfacet
  facet normal 0 0 1
    outer loop
      vertex -0.0941849 1.49704 1.5
      vertex -0.313952 4.99013 1.5
      vertex -0.281072 1.47343 1.5
    endloop
  endfacet
  facet normal -0 0 1
    outer loop
      vertex -0.936906 4.91144 1.5
      vertex -0.281072 1.47343 1.5
      vertex -0.313952 4.99013 1.5
    endloop
  endfacet
  facet normal 0 0 1
    outer loop
      vertex -0.281072 1.47343 1.5
      vertex -0.936906 4.91144 1.5
      vertex -0.463525 1.42658 1.5
    endloop
  endfacet
  facet normal -0 0 1
    outer loop
      vertex -1.54508 4.75528 1.5
      vertex -0.463525 1.42658 1.5
      vertex -0.936906 4.91144 1.5
    endloop
  endfacet
  facet normal 0 0 1
    outer loop
      vertex -0.463525 1.42658 1.5
      vertex -1.54508 4.75528 1.5
      vertex -0.638668 1.35724 1.5
    endloop
  endfacet
  facet normal -0 0 1
    outer loop
      vertex -2.1289 4.52413 1.5
      vertex -0.638668 1.35724 1.5
      vertex -1.54508 4.75528 1.5
    endloop
  endfacet
  facet normal 0 0 1
    outer loop
      vertex -0.638668 1.35724 1.5
      vertex -2.1289 4.52413 1.5
      vertex -0.80374 1.26649 1.5
    endloop
  endfacet
  facet normal -0 0 1
    outer loop
      vertex -2.67913 4.22164 1.5
      vertex -0.80374 1.26649 1.5
      vertex -2.1289 4.52413 1.5
    endloop
  endfacet
  facet normal 0 0 1
    outer loop
      vertex -0.80374 1.26649 1.5
      vertex -2.67913 4.22164 1.5
      vertex -0.956136 1.15577 1.5
    endloop
  endfacet
  facet normal -0 0 1
    outer loop
      vertex -3.18712 3.85257 1.5
      vertex -0.956136 1.15577 1.5
      vertex -2.67913 4.22164 1.5
    endloop
  endfacet
  facet normal 0 0 1
    outer loop
      vertex -0.956136 1.15577 1.5
      vertex -3.18712 3.85257 1.5
      vertex -1.09345 1.02682 1.5
    endloop
  endfacet
  facet normal -0 0 1
    outer loop
      vertex -3.64484 3.42274 1.5
      vertex -1.09345 1.02682 1.5
      vertex -3.18712 3.85257 1.5
    endloop
  endfacet
  facet normal -0 0 1
    outer loop
      vertex -4.04508 2.93893 1.5
      vertex -1.21352 0.881678 1.5
      vertex -3.64484 3.42274 1.5
    endloop
  endfacet
  facet normal 0 0 1
    outer loop
      vertex -1.09345 1.02682 1.5
      vertex -3.64484 3.42274 1.5
      vertex -1.21352 0.881678 1.5
    endloop
  endfacet
  facet normal 0 0 1
    outer loop
      vertex 4.04508 -2.93893 1.5
      vertex 1.21352 -0.881678 1.5
      vertex 3.64484 -3.42274 1.5
    endloop
  endfacet
  facet normal -0 0 1
    outer loop
      vertex 1.09345 -1.02682 1.5
      vertex 3.64484 -3.42274 1.5
      vertex 1.21352 -0.881678 1.5
    endloop
  endfacet
  facet normal 0 0 1
    outer loop
      vertex 3.64484 -3.42274 1.5
      vertex 1.09345 -1.02682 1.5
      vertex 3.18712 -3.85257 1.5
    endloop
  endfacet
  facet normal -0 0 1
    outer loop
      vertex 0.956136 -1.15577 1.5
      vertex 3.18712 -3.85257 1.5
      vertex 1.09345 -1.02682 1.5
    endloop
  endfacet
  facet normal 0 0 1
    outer loop
      vertex 3.18712 -3.85257 1.5
      vertex 0.956136 -1.15577 1.5
      vertex 2.67913 -4.22164 1.5
    endloop
  endfacet
  facet normal -0 0 1
    outer loop
      vertex 0.80374 -1.26649 1.5
      vertex 2.67913 -4.22164 1.5
      vertex 0.956136 -1.15577 1.5
    endloop
  endfacet
  facet normal 0 0 1
    outer loop
      vertex 2.67913 -4.22164 1.5
      vertex 0.80374 -1.26649 1.5
      vertex 2.1289 -4.52413 1.5
    endloop
  endfacet
  facet normal -0 0 1
    outer loop
      vertex 0.638668 -1.35724 1.5
      vertex 2.1289 -4.52413 1.5
      vertex 0.80374 -1.26649 1.5
    endloop
  endfacet
  facet normal 0 0 1
    outer loop
      vertex 2.1289 -4.52413 1.5
      vertex 0.638668 -1.35724 1.5
      vertex 1.54508 -4.75528 1.5
    endloop
  endfacet
  facet normal -0 0 1
    outer loop
      vertex 0.463525 -1.42658 1.5
      vertex 1.54508 -4.75528 1.5
      vertex 0.638668 -1.35724 1.5
    endloop
  endfacet
  facet normal 0 0 1
    outer loop
      vertex 1.54508 -4.75528 1.5
      vertex 0.463525 -1.42658 1.5
      vertex 0.936906 -4.91144 1.5
    endloop
  endfacet
  facet normal -0 0 1
    outer loop
      vertex 0.281072 -1.47343 1.5
      vertex 0.936906 -4.91144 1.5
      vertex 0.463525 -1.42658 1.5
    endloop
  endfacet
  facet normal 0 0 1
    outer loop
      vertex 0.936906 -4.91144 1.5
      vertex 0.281072 -1.47343 1.5
      vertex 0.313952 -4.99013 1.5
    endloop
  endfacet
  facet normal -0 0 1
    outer loop
      vertex 0.0941849 -1.49704 1.5
      vertex 0.313952 -4.99013 1.5
      vertex 0.281072 -1.47343 1.5
    endloop
  endfacet
  facet normal -0 0 1
    outer loop
      vertex -0.0941849 -1.49704 1.5
      vertex 0.313952 -4.99013 1.5
      vertex 0.0941849 -1.49704 1.5
    endloop
  endfacet
  facet normal 0 0 1
    outer loop
      vertex -0.313952 -4.99013 1.5
      vertex -0.0941849 -1.49704 1.5
      vertex -0.281072 -1.47343 1.5
    endloop
  endfacet
  facet normal 0 0 1
    outer loop
      vertex -0.0941849 -1.49704 1.5
      vertex -0.313952 -4.99013 1.5
      vertex 0.313952 -4.99013 1.5
    endloop
  endfacet
  facet normal 0 0 1
    outer loop
      vertex -0.936906 -4.91144 1.5
      vertex -0.281072 -1.47343 1.5
      vertex -0.463525 -1.42658 1.5
    endloop
  endfacet
  facet normal 0 0 1
    outer loop
      vertex -1.54508 -4.75528 1.5
      vertex -0.463525 -1.42658 1.5
      vertex -0.638668 -1.35724 1.5
    endloop
  endfacet
  facet normal 0 0 1
    outer loop
      vertex -2.1289 -4.52413 1.5
      vertex -0.638668 -1.35724 1.5
      vertex -0.80374 -1.26649 1.5
    endloop
  endfacet
  facet normal 0 0 1
    outer loop
      vertex -0.281072 -1.47343 1.5
      vertex -0.936906 -4.91144 1.5
      vertex -0.313952 -4.99013 1.5
    endloop
  endfacet
  facet normal 0 0 1
    outer loop
      vertex -2.67913 -4.22164 1.5
      vertex -0.80374 -1.26649 1.5
      vertex -0.956136 -1.15577 1.5
    endloop
  endfacet
  facet normal 0 0 1
    outer loop
      vertex -3.18712 -3.85257 1.5
      vertex -0.956136 -1.15577 1.5
      vertex -1.09345 -1.02682 1.5
    endloop
  endfacet
  facet normal 0 0 1
    outer loop
      vertex -3.64484 -3.42274 1.5
      vertex -1.09345 -1.02682 1.5
      vertex -1.21352 -0.881678 1.5
    endloop
  endfacet
  facet normal 0 0 1
    outer loop
      vertex -4.04508 -2.93893 1.5
      vertex -1.21352 -0.881678 1.5
      vertex -1.31446 -0.722631 1.5
    endloop
  endfacet
  facet normal 0 0 1
    outer loop
      vertex -4.38153 -2.40877 1.5
      vertex -1.31446 -0.722631 1.5
      vertex -1.39466 -0.552186 1.5
    endloop
  endfacet
  facet normal 0 0 1
    outer loop
      vertex -4.64888 -1.84062 1.5
      vertex -1.39466 -0.552186 1.5
      vertex -1.45287 -0.373034 1.5
    endloop
  endfacet
  facet normal 0 0 1
    outer loop
      vertex -4.84292 -1.24345 1.5
      vertex -1.45287 -0.373034 1.5
      vertex -1.48817 -0.188 1.5
    endloop
  endfacet
  facet normal 0 0 1
    outer loop
      vertex -0.463525 -1.42658 1.5
      vertex -1.54508 -4.75528 1.5
      vertex -0.936906 -4.91144 1.5
    endloop
  endfacet
  facet normal 0 0 1
    outer loop
      vertex -4.96057 -0.626666 1.5
      vertex -1.48817 -0.188 1.5
      vertex -1.5 0 1.5
    endloop
  endfacet
  facet normal 0 0 1
    outer loop
      vertex -1.21352 0.881678 1.5
      vertex -4.04508 2.93893 1.5
      vertex -1.31446 0.722631 1.5
    endloop
  endfacet
  facet normal -0 0 1
    outer loop
      vertex -4.38153 2.40877 1.5
      vertex -1.31446 0.722631 1.5
      vertex -4.04508 2.93893 1.5
    endloop
  endfacet
  facet normal 0 0 1
    outer loop
      vertex -0.638668 -1.35724 1.5
      vertex -2.1289 -4.52413 1.5
      vertex -1.54508 -4.75528 1.5
    endloop
  endfacet
  facet normal 0 0 1
    outer loop
      vertex -1.31446 0.722631 1.5
      vertex -4.38153 2.40877 1.5
      vertex -1.39466 0.552186 1.5
    endloop
  endfacet
  facet normal 0 0 1
    outer loop
      vertex -0.80374 -1.26649 1.5
      vertex -2.67913 -4.22164 1.5
      vertex -2.1289 -4.52413 1.5
    endloop
  endfacet
  facet normal -0 0 1
    outer loop
      vertex -4.64888 1.84062 1.5
      vertex -1.39466 0.552186 1.5
      vertex -4.38153 2.40877 1.5
    endloop
  endfacet
  facet normal 0 0 1
    outer loop
      vertex -0.956136 -1.15577 1.5
      vertex -3.18712 -3.85257 1.5
      vertex -2.67913 -4.22164 1.5
    endloop
  endfacet
  facet normal 0 0 1
    outer loop
      vertex -1.39466 0.552186 1.5
      vertex -4.64888 1.84062 1.5
      vertex -1.45287 0.373034 1.5
    endloop
  endfacet
  facet normal 0 0 1
    outer loop
      vertex -1.09345 -1.02682 1.5
      vertex -3.64484 -3.42274 1.5
      vertex -3.18712 -3.85257 1.5
    endloop
  endfacet
  facet normal -0 0 1
    outer loop
      vertex -4.84292 1.24345 1.5
      vertex -1.45287 0.373034 1.5
      vertex -4.64888 1.84062 1.5
    endloop
  endfacet
  facet normal 0 0 1
    outer loop
      vertex -1.21352 -0.881678 1.5
      vertex -4.04508 -2.93893 1.5
      vertex -3.64484 -3.42274 1.5
    endloop
  endfacet
  facet normal 0 0 1
    outer loop
      vertex -1.45287 0.373034 1.5
      vertex -4.84292 1.24345 1.5
      vertex -1.48817 0.188 1.5
    endloop
  endfacet
  facet normal 0 0 1
    outer loop
      vertex -1.31446 -0.722631 1.5
      vertex -4.38153 -2.40877 1.5
      vertex -4.04508 -2.93893 1.5
    endloop
  endfacet
  facet normal -0 0 1
    outer loop
      vertex -4.96057 0.626666 1.5
      vertex -1.48817 0.188 1.5
      vertex -4.84292 1.24345 1.5
    endloop
  endfacet
  facet normal 0 0 1
    outer loop
      vertex -1.39466 -0.552186 1.5
      vertex -4.64888 -1.84062 1.5
      vertex -4.38153 -2.40877 1.5
    endloop
  endfacet
  facet normal 0 0 1
    outer loop
      vertex -1.48817 0.188 1.5
      vertex -4.96057 0.626666 1.5
      vertex -1.5 0 1.5
    endloop
  endfacet
  facet normal 0 0 1
    outer loop
      vertex -1.45287 -0.373034 1.5
      vertex -4.84292 -1.24345 1.5
      vertex -4.64888 -1.84062 1.5
    endloop
  endfacet
  facet normal 0 0 1
    outer loop
      vertex -5 0 1.5
      vertex -1.5 0 1.5
      vertex -4.96057 0.626666 1.5
    endloop
  endfacet
  facet normal 0 0 1
    outer loop
      vertex -1.48817 -0.188 1.5
      vertex -4.96057 -0.626666 1.5
      vertex -4.84292 -1.24345 1.5
    endloop
  endfacet
  facet normal 0 0 1
    outer loop
      vertex -1.5 0 1.5
      vertex -5 0 1.5
      vertex -4.96057 -0.626666 1.5
    endloop
  endfacet
  facet normal -0.481752 0.876308 0
    outer loop
      vertex -2.1289 4.52413 -1.5
      vertex -2.67913 4.22164 1.5
      vertex -2.1289 4.52413 1.5
    endloop
  endfacet
  facet normal -0.481752 0.876308 0
    outer loop
      vertex -2.67913 4.22164 1.5
      vertex -2.1289 4.52413 -1.5
      vertex -2.67913 4.22164 -1.5
    endloop
  endfacet
  facet normal -0.587779 0.809022 0
    outer loop
      vertex -2.67913 4.22164 -1.5
      vertex -3.18712 3.85257 1.5
      vertex -2.67913 4.22164 1.5
    endloop
  endfacet
  facet normal -0.587779 0.809022 0
    outer loop
      vertex -3.18712 3.85257 1.5
      vertex -2.67913 4.22164 -1.5
      vertex -3.18712 3.85257 -1.5
    endloop
  endfacet
  facet normal -0.125322 0.992116 0
    outer loop
      vertex -0.313952 4.99013 -1.5
      vertex -0.936906 4.91144 1.5
      vertex -0.313952 4.99013 1.5
    endloop
  endfacet
  facet normal -0.125322 0.992116 0
    outer loop
      vertex -0.936906 4.91144 1.5
      vertex -0.313952 4.99013 -1.5
      vertex -0.936906 4.91144 -1.5
    endloop
  endfacet
  facet normal 0.998026 -0.0627961 -7.43739e-19
    outer loop
      vertex 4.96057 -0.626666 1.5
      vertex 5 0 -1.5
      vertex 5 0 1.5
    endloop
  endfacet
  facet normal 0.998026 -0.0627961 -7.43739e-19
    outer loop
      vertex 5 0 -1.5
      vertex 4.96057 -0.626666 1.5
      vertex 4.96057 -0.626666 -1.5
    endloop
  endfacet
  facet normal 0.98229 -0.187369 -1.12595e-18
    outer loop
      vertex 4.84292 -1.24345 1.5
      vertex 4.96057 -0.626666 -1.5
      vertex 4.96057 -0.626666 1.5
    endloop
  endfacet
  facet normal 0.98229 -0.187369 -1.12595e-18
    outer loop
      vertex 4.96057 -0.626666 -1.5
      vertex 4.84292 -1.24345 1.5
      vertex 4.84292 -1.24345 -1.5
    endloop
  endfacet
  facet normal -0.684549 -0.728967 0
    outer loop
      vertex -3.64484 -3.42274 -1.5
      vertex -3.18712 -3.85257 1.5
      vertex -3.64484 -3.42274 1.5
    endloop
  endfacet
  facet normal -0.684549 -0.728967 -0
    outer loop
      vertex -3.18712 -3.85257 1.5
      vertex -3.64484 -3.42274 -1.5
      vertex -3.18712 -3.85257 -1.5
    endloop
  endfacet
  facet normal -0.904828 -0.425778 -4.82033e-18
    outer loop
      vertex -4.38153 -2.40877 -1.5
      vertex -4.64888 -1.84062 1.5
      vertex -4.64888 -1.84062 -1.5
    endloop
  endfacet
  facet normal -0.904828 -0.425778 -4.82033e-18
    outer loop
      vertex -4.64888 -1.84062 1.5
      vertex -4.38153 -2.40877 -1.5
      vertex -4.38153 -2.40877 1.5
    endloop
  endfacet
  facet normal -0.770515 -0.637422 -4.6405e-18
    outer loop
      vertex -3.64484 -3.42274 -1.5
      vertex -4.04508 -2.93893 1.5
      vertex -4.04508 -2.93893 -1.5
    endloop
  endfacet
  facet normal -0.770515 -0.637422 -4.6405e-18
    outer loop
      vertex -4.04508 -2.93893 1.5
      vertex -3.64484 -3.42274 -1.5
      vertex -3.64484 -3.42274 1.5
    endloop
  endfacet
  facet normal 0 0 -1
    outer loop
      vertex 1.5 0 -1.5
      vertex 5 0 -1.5
      vertex 4.96057 -0.626666 -1.5
    endloop
  endfacet
  facet normal 0 0 -1
    outer loop
      vertex 1.48817 -0.188 -1.5
      vertex 4.96057 -0.626666 -1.5
      vertex 4.84292 -1.24345 -1.5
    endloop
  endfacet
  facet normal 0 0 -1
    outer loop
      vertex 5 0 -1.5
      vertex 1.5 0 -1.5
      vertex 4.96057 0.626666 -1.5
    endloop
  endfacet
  facet normal 0 0 -1
    outer loop
      vertex 1.45287 -0.373034 -1.5
      vertex 4.84292 -1.24345 -1.5
      vertex 4.64888 -1.84062 -1.5
    endloop
  endfacet
  facet normal 0 0 -1
    outer loop
      vertex 1.48817 0.188 -1.5
      vertex 4.96057 0.626666 -1.5
      vertex 1.5 0 -1.5
    endloop
  endfacet
  facet normal 0 0 -1
    outer loop
      vertex 1.39466 -0.552186 -1.5
      vertex 4.64888 -1.84062 -1.5
      vertex 4.38153 -2.40877 -1.5
    endloop
  endfacet
  facet normal -0 0 -1
    outer loop
      vertex 4.96057 0.626666 -1.5
      vertex 1.48817 0.188 -1.5
      vertex 4.84292 1.24345 -1.5
    endloop
  endfacet
  facet normal 0 0 -1
    outer loop
      vertex 1.31446 -0.722631 -1.5
      vertex 4.38153 -2.40877 -1.5
      vertex 4.04508 -2.93893 -1.5
    endloop
  endfacet
  facet normal 0 0 -1
    outer loop
      vertex 1.45287 0.373034 -1.5
      vertex 4.84292 1.24345 -1.5
      vertex 1.48817 0.188 -1.5
    endloop
  endfacet
  facet normal 0 0 -1
    outer loop
      vertex 1.21352 -0.881678 -1.5
      vertex 4.04508 -2.93893 -1.5
      vertex 3.64484 -3.42274 -1.5
    endloop
  endfacet
  facet normal -0 0 -1
    outer loop
      vertex 4.84292 1.24345 -1.5
      vertex 1.45287 0.373034 -1.5
      vertex 4.64888 1.84062 -1.5
    endloop
  endfacet
  facet normal 0 0 -1
    outer loop
      vertex 1.09345 -1.02682 -1.5
      vertex 3.64484 -3.42274 -1.5
      vertex 3.18712 -3.85257 -1.5
    endloop
  endfacet
  facet normal 0 0 -1
    outer loop
      vertex 1.39466 0.552186 -1.5
      vertex 4.64888 1.84062 -1.5
      vertex 1.45287 0.373034 -1.5
    endloop
  endfacet
  facet normal 0 0 -1
    outer loop
      vertex 0.956136 -1.15577 -1.5
      vertex 3.18712 -3.85257 -1.5
      vertex 2.67913 -4.22164 -1.5
    endloop
  endfacet
  facet normal -0 0 -1
    outer loop
      vertex 4.64888 1.84062 -1.5
      vertex 1.39466 0.552186 -1.5
      vertex 4.38153 2.40877 -1.5
    endloop
  endfacet
  facet normal 0 0 -1
    outer loop
      vertex 0.80374 -1.26649 -1.5
      vertex 2.67913 -4.22164 -1.5
      vertex 2.1289 -4.52413 -1.5
    endloop
  endfacet
  facet normal 0 0 -1
    outer loop
      vertex 1.31446 0.722631 -1.5
      vertex 4.38153 2.40877 -1.5
      vertex 1.39466 0.552186 -1.5
    endloop
  endfacet
  facet normal 0 0 -1
    outer loop
      vertex 0.638668 -1.35724 -1.5
      vertex 2.1289 -4.52413 -1.5
      vertex 1.54508 -4.75528 -1.5
    endloop
  endfacet
  facet normal -0 0 -1
    outer loop
      vertex 4.38153 2.40877 -1.5
      vertex 1.31446 0.722631 -1.5
      vertex 4.04508 2.93893 -1.5
    endloop
  endfacet
  facet normal 0 0 -1
    outer loop
      vertex 1.21352 0.881678 -1.5
      vertex 4.04508 2.93893 -1.5
      vertex 1.31446 0.722631 -1.5
    endloop
  endfacet
  facet normal 0 0 -1
    outer loop
      vertex 4.96057 -0.626666 -1.5
      vertex 1.48817 -0.188 -1.5
      vertex 1.5 0 -1.5
    endloop
  endfacet
  facet normal 0 0 -1
    outer loop
      vertex 4.84292 -1.24345 -1.5
      vertex 1.45287 -0.373034 -1.5
      vertex 1.48817 -0.188 -1.5
    endloop
  endfacet
  facet normal 0 0 -1
    outer loop
      vertex 4.64888 -1.84062 -1.5
      vertex 1.39466 -0.552186 -1.5
      vertex 1.45287 -0.373034 -1.5
    endloop
  endfacet
  facet normal 0 0 -1
    outer loop
      vertex 4.38153 -2.40877 -1.5
      vertex 1.31446 -0.722631 -1.5
      vertex 1.39466 -0.552186 -1.5
    endloop
  endfacet
  facet normal 0 0 -1
    outer loop
      vertex 4.04508 -2.93893 -1.5
      vertex 1.21352 -0.881678 -1.5
      vertex 1.31446 -0.722631 -1.5
    endloop
  endfacet
  facet normal 0 0 -1
    outer loop
      vertex 3.64484 -3.42274 -1.5
      vertex 1.09345 -1.02682 -1.5
      vertex 1.21352 -0.881678 -1.5
    endloop
  endfacet
  facet normal 0 0 -1
    outer loop
      vertex 3.18712 -3.85257 -1.5
      vertex 0.956136 -1.15577 -1.5
      vertex 1.09345 -1.02682 -1.5
    endloop
  endfacet
  facet normal 0 0 -1
    outer loop
      vertex 0.463525 -1.42658 -1.5
      vertex 1.54508 -4.75528 -1.5
      vertex 0.936906 -4.91144 -1.5
    endloop
  endfacet
  facet normal 0 0 -1
    outer loop
      vertex 2.67913 -4.22164 -1.5
      vertex 0.80374 -1.26649 -1.5
      vertex 0.956136 -1.15577 -1.5
    endloop
  endfacet
  facet normal 0 0 -1
    outer loop
      vertex 2.1289 -4.52413 -1.5
      vertex 0.638668 -1.35724 -1.5
      vertex 0.80374 -1.26649 -1.5
    endloop
  endfacet
  facet normal 0 0 -1
    outer loop
      vertex 1.54508 -4.75528 -1.5
      vertex 0.463525 -1.42658 -1.5
      vertex 0.638668 -1.35724 -1.5
    endloop
  endfacet
  facet normal 0 0 -1
    outer loop
      vertex 0.281072 -1.47343 -1.5
      vertex 0.936906 -4.91144 -1.5
      vertex 0.313952 -4.99013 -1.5
    endloop
  endfacet
  facet normal 0 0 -1
    outer loop
      vertex 0.936906 -4.91144 -1.5
      vertex 0.281072 -1.47343 -1.5
      vertex 0.463525 -1.42658 -1.5
    endloop
  endfacet
  facet normal 0 0 -1
    outer loop
      vertex 0.313952 -4.99013 -1.5
      vertex 0.0941849 -1.49704 -1.5
      vertex 0.281072 -1.47343 -1.5
    endloop
  endfacet
  facet normal 0 0 -1
    outer loop
      vertex 0.313952 -4.99013 -1.5
      vertex -0.0941849 -1.49704 -1.5
      vertex 0.0941849 -1.49704 -1.5
    endloop
  endfacet
  facet normal 0 0 -1
    outer loop
      vertex -0.313952 -4.99013 -1.5
      vertex -0.0941849 -1.49704 -1.5
      vertex 0.313952 -4.99013 -1.5
    endloop
  endfacet
  facet normal -0 0 -1
    outer loop
      vertex -0.0941849 -1.49704 -1.5
      vertex -0.313952 -4.99013 -1.5
      vertex -0.281072 -1.47343 -1.5
    endloop
  endfacet
  facet normal 0 0 -1
    outer loop
      vertex -0.936906 -4.91144 -1.5
      vertex -0.281072 -1.47343 -1.5
      vertex -0.313952 -4.99013 -1.5
    endloop
  endfacet
  facet normal -0 0 -1
    outer loop
      vertex -0.281072 -1.47343 -1.5
      vertex -0.936906 -4.91144 -1.5
      vertex -0.463525 -1.42658 -1.5
    endloop
  endfacet
  facet normal 0 0 -1
    outer loop
      vertex -1.54508 -4.75528 -1.5
      vertex -0.463525 -1.42658 -1.5
      vertex -0.936906 -4.91144 -1.5
    endloop
  endfacet
  facet normal -0 0 -1
    outer loop
      vertex -0.463525 -1.42658 -1.5
      vertex -1.54508 -4.75528 -1.5
      vertex -0.638668 -1.35724 -1.5
    endloop
  endfacet
  facet normal 0 0 -1
    outer loop
      vertex -2.1289 -4.52413 -1.5
      vertex -0.638668 -1.35724 -1.5
      vertex -1.54508 -4.75528 -1.5
    endloop
  endfacet
  facet normal -0 0 -1
    outer loop
      vertex -0.638668 -1.35724 -1.5
      vertex -2.1289 -4.52413 -1.5
      vertex -0.80374 -1.26649 -1.5
    endloop
  endfacet
  facet normal 0 0 -1
    outer loop
      vertex -2.67913 -4.22164 -1.5
      vertex -0.80374 -1.26649 -1.5
      vertex -2.1289 -4.52413 -1.5
    endloop
  endfacet
  facet normal -0 0 -1
    outer loop
      vertex -0.80374 -1.26649 -1.5
      vertex -2.67913 -4.22164 -1.5
      vertex -0.956136 -1.15577 -1.5
    endloop
  endfacet
  facet normal 0 0 -1
    outer loop
      vertex -3.18712 -3.85257 -1.5
      vertex -0.956136 -1.15577 -1.5
      vertex -2.67913 -4.22164 -1.5
    endloop
  endfacet
  facet normal -0 0 -1
    outer loop
      vertex -0.956136 -1.15577 -1.5
      vertex -3.18712 -3.85257 -1.5
      vertex -1.09345 -1.02682 -1.5
    endloop
  endfacet
  facet normal 0 0 -1
    outer loop
      vertex -3.64484 -3.42274 -1.5
      vertex -1.09345 -1.02682 -1.5
      vertex -3.18712 -3.85257 -1.5
    endloop
  endfacet
  facet normal 0 0 -1
    outer loop
      vertex -4.04508 -2.93893 -1.5
      vertex -1.21352 -0.881678 -1.5
      vertex -3.64484 -3.42274 -1.5
    endloop
  endfacet
  facet normal -0 0 -1
    outer loop
      vertex -1.09345 -1.02682 -1.5
      vertex -3.64484 -3.42274 -1.5
      vertex -1.21352 -0.881678 -1.5
    endloop
  endfacet
  facet normal -0 0 -1
    outer loop
      vertex 4.04508 2.93893 -1.5
      vertex 1.21352 0.881678 -1.5
      vertex 3.64484 3.42274 -1.5
    endloop
  endfacet
  facet normal 0 0 -1
    outer loop
      vertex 1.09345 1.02682 -1.5
      vertex 3.64484 3.42274 -1.5
      vertex 1.21352 0.881678 -1.5
    endloop
  endfacet
  facet normal -0 0 -1
    outer loop
      vertex 3.64484 3.42274 -1.5
      vertex 1.09345 1.02682 -1.5
      vertex 3.18712 3.85257 -1.5
    endloop
  endfacet
  facet normal 0 0 -1
    outer loop
      vertex 0.956136 1.15577 -1.5
      vertex 3.18712 3.85257 -1.5
      vertex 1.09345 1.02682 -1.5
    endloop
  endfacet
  facet normal -0 0 -1
    outer loop
      vertex 3.18712 3.85257 -1.5
      vertex 0.956136 1.15577 -1.5
      vertex 2.67913 4.22164 -1.5
    endloop
  endfacet
  facet normal 0 0 -1
    outer loop
      vertex 0.80374 1.26649 -1.5
      vertex 2.67913 4.22164 -1.5
      vertex 0.956136 1.15577 -1.5
    endloop
  endfacet
  facet normal -0 0 -1
    outer loop
      vertex 2.67913 4.22164 -1.5
      vertex 0.80374 1.26649 -1.5
      vertex 2.1289 4.52413 -1.5
    endloop
  endfacet
  facet normal 0 0 -1
    outer loop
      vertex 0.638668 1.35724 -1.5
      vertex 2.1289 4.52413 -1.5
      vertex 0.80374 1.26649 -1.5
    endloop
  endfacet
  facet normal -0 0 -1
    outer loop
      vertex 2.1289 4.52413 -1.5
      vertex 0.638668 1.35724 -1.5
      vertex 1.54508 4.75528 -1.5
    endloop
  endfacet
  facet normal 0 0 -1
    outer loop
      vertex 0.463525 1.42658 -1.5
      vertex 1.54508 4.75528 -1.5
      vertex 0.638668 1.35724 -1.5
    endloop
  endfacet
  facet normal -0 0 -1
    outer loop
      vertex 1.54508 4.75528 -1.5
      vertex 0.463525 1.42658 -1.5
      vertex 0.936906 4.91144 -1.5
    endloop
  endfacet
  facet normal 0 0 -1
    outer loop
      vertex 0.281072 1.47343 -1.5
      vertex 0.936906 4.91144 -1.5
      vertex 0.463525 1.42658 -1.5
    endloop
  endfacet
  facet normal -0 0 -1
    outer loop
      vertex 0.936906 4.91144 -1.5
      vertex 0.281072 1.47343 -1.5
      vertex 0.313952 4.99013 -1.5
    endloop
  endfacet
  facet normal 0 0 -1
    outer loop
      vertex 0.0941849 1.49704 -1.5
      vertex 0.313952 4.99013 -1.5
      vertex 0.281072 1.47343 -1.5
    endloop
  endfacet
  facet normal 0 0 -1
    outer loop
      vertex -0.0941849 1.49704 -1.5
      vertex 0.313952 4.99013 -1.5
      vertex 0.0941849 1.49704 -1.5
    endloop
  endfacet
  facet normal 0 0 -1
    outer loop
      vertex -0.313952 4.99013 -1.5
      vertex -0.0941849 1.49704 -1.5
      vertex -0.281072 1.47343 -1.5
    endloop
  endfacet
  facet normal 0 0 -1
    outer loop
      vertex -0.0941849 1.49704 -1.5
      vertex -0.313952 4.99013 -1.5
      vertex 0.313952 4.99013 -1.5
    endloop
  endfacet
  facet normal 0 0 -1
    outer loop
      vertex -0.936906 4.91144 -1.5
      vertex -0.281072 1.47343 -1.5
      vertex -0.463525 1.42658 -1.5
    endloop
  endfacet
  facet normal 0 0 -1
    outer loop
      vertex -1.54508 4.75528 -1.5
      vertex -0.463525 1.42658 -1.5
      vertex -0.638668 1.35724 -1.5
    endloop
  endfacet
  facet normal 0 0 -1
    outer loop
      vertex -2.1289 4.52413 -1.5
      vertex -0.638668 1.35724 -1.5
      vertex -0.80374 1.26649 -1.5
    endloop
  endfacet
  facet normal 0 0 -1
    outer loop
      vertex -0.281072 1.47343 -1.5
      vertex -0.936906 4.91144 -1.5
      vertex -0.313952 4.99013 -1.5
    endloop
  endfacet
  facet normal 0 0 -1
    outer loop
      vertex -2.67913 4.22164 -1.5
      vertex -0.80374 1.26649 -1.5
      vertex -0.956136 1.15577 -1.5
    endloop
  endfacet
  facet normal 0 0 -1
    outer loop
      vertex -3.18712 3.85257 -1.5
      vertex -0.956136 1.15577 -1.5
      vertex -1.09345 1.02682 -1.5
    endloop
  endfacet
  facet normal 0 0 -1
    outer loop
      vertex -3.64484 3.42274 -1.5
      vertex -1.09345 1.02682 -1.5
      vertex -1.21352 0.881678 -1.5
    endloop
  endfacet
  facet normal 0 0 -1
    outer loop
      vertex -4.04508 2.93893 -1.5
      vertex -1.21352 0.881678 -1.5
      vertex -1.31446 0.722631 -1.5
    endloop
  endfacet
  facet normal 0 0 -1
    outer loop
      vertex -4.38153 2.40877 -1.5
      vertex -1.31446 0.722631 -1.5
      vertex -1.39466 0.552186 -1.5
    endloop
  endfacet
  facet normal 0 0 -1
    outer loop
      vertex -4.64888 1.84062 -1.5
      vertex -1.39466 0.552186 -1.5
      vertex -1.45287 0.373034 -1.5
    endloop
  endfacet
  facet normal 0 0 -1
    outer loop
      vertex -4.84292 1.24345 -1.5
      vertex -1.45287 0.373034 -1.5
      vertex -1.48817 0.188 -1.5
    endloop
  endfacet
  facet normal 0 0 -1
    outer loop
      vertex -0.463525 1.42658 -1.5
      vertex -1.54508 4.75528 -1.5
      vertex -0.936906 4.91144 -1.5
    endloop
  endfacet
  facet normal 0 0 -1
    outer loop
      vertex -4.96057 0.626666 -1.5
      vertex -1.48817 0.188 -1.5
      vertex -1.5 0 -1.5
    endloop
  endfacet
  facet normal -0 0 -1
    outer loop
      vertex -1.21352 -0.881678 -1.5
      vertex -4.04508 -2.93893 -1.5
      vertex -1.31446 -0.722631 -1.5
    endloop
  endfacet
  facet normal 0 0 -1
    outer loop
      vertex -4.38153 -2.40877 -1.5
      vertex -1.31446 -0.722631 -1.5
      vertex -4.04508 -2.93893 -1.5
    endloop
  endfacet
  facet normal 0 0 -1
    outer loop
      vertex -0.638668 1.35724 -1.5
      vertex -2.1289 4.52413 -1.5
      vertex -1.54508 4.75528 -1.5
    endloop
  endfacet
  facet normal -0 0 -1
    outer loop
      vertex -1.31446 -0.722631 -1.5
      vertex -4.38153 -2.40877 -1.5
      vertex -1.39466 -0.552186 -1.5
    endloop
  endfacet
  facet normal 0 0 -1
    outer loop
      vertex -0.80374 1.26649 -1.5
      vertex -2.67913 4.22164 -1.5
      vertex -2.1289 4.52413 -1.5
    endloop
  endfacet
  facet normal 0 0 -1
    outer loop
      vertex -4.64888 -1.84062 -1.5
      vertex -1.39466 -0.552186 -1.5
      vertex -4.38153 -2.40877 -1.5
    endloop
  endfacet
  facet normal 0 0 -1
    outer loop
      vertex -0.956136 1.15577 -1.5
      vertex -3.18712 3.85257 -1.5
      vertex -2.67913 4.22164 -1.5
    endloop
  endfacet
  facet normal -0 0 -1
    outer loop
      vertex -1.39466 -0.552186 -1.5
      vertex -4.64888 -1.84062 -1.5
      vertex -1.45287 -0.373034 -1.5
    endloop
  endfacet
  facet normal 0 0 -1
    outer loop
      vertex -1.09345 1.02682 -1.5
      vertex -3.64484 3.42274 -1.5
      vertex -3.18712 3.85257 -1.5
    endloop
  endfacet
  facet normal 0 0 -1
    outer loop
      vertex -4.84292 -1.24345 -1.5
      vertex -1.45287 -0.373034 -1.5
      vertex -4.64888 -1.84062 -1.5
    endloop
  endfacet
  facet normal 0 0 -1
    outer loop
      vertex -1.21352 0.881678 -1.5
      vertex -4.04508 2.93893 -1.5
      vertex -3.64484 3.42274 -1.5
    endloop
  endfacet
  facet normal -0 0 -1
    outer loop
      vertex -1.45287 -0.373034 -1.5
      vertex -4.84292 -1.24345 -1.5
      vertex -1.48817 -0.188 -1.5
    endloop
  endfacet
  facet normal 0 0 -1
    outer loop
      vertex -1.31446 0.722631 -1.5
      vertex -4.38153 2.40877 -1.5
      vertex -4.04508 2.93893 -1.5
    endloop
  endfacet
  facet normal 0 0 -1
    outer loop
      vertex -4.96057 -0.626666 -1.5
      vertex -1.48817 -0.188 -1.5
      vertex -4.84292 -1.24345 -1.5
    endloop
  endfacet
  facet normal 0 0 -1
    outer loop
      vertex -1.39466 0.552186 -1.5
      vertex -4.64888 1.84062 -1.5
      vertex -4.38153 2.40877 -1.5
    endloop
  endfacet
  facet normal -0 0 -1
    outer loop
      vertex -1.48817 -0.188 -1.5
      vertex -4.96057 -0.626666 -1.5
      vertex -1.5 0 -1.5
    endloop
  endfacet
  facet normal 0 0 -1
    outer loop
      vertex -1.45287 0.373034 -1.5
      vertex -4.84292 1.24345 -1.5
      vertex -4.64888 1.84062 -1.5
    endloop
  endfacet
  facet normal 0 0 -1
    outer loop
      vertex -5 0 -1.5
      vertex -1.5 0 -1.5
      vertex -4.96057 -0.626666 -1.5
    endloop
  endfacet
  facet normal 0 0 -1
    outer loop
      vertex -1.48817 0.188 -1.5
      vertex -4.96057 0.626666 -1.5
      vertex -4.84292 1.24345 -1.5
    endloop
  endfacet
  facet normal 0 0 -1
    outer loop
      vertex -1.5 0 -1.5
      vertex -5 0 -1.5
      vertex -4.96057 0.626666 -1.5
    endloop
  endfacet
  facet normal 0.481752 -0.876308 0
    outer loop
      vertex 2.1289 -4.52413 -1.5
      vertex 2.67913 -4.22164 1.5
      vertex 2.1289 -4.52413 1.5
    endloop
  endfacet
  facet normal 0.481752 -0.876308 0
    outer loop
      vertex 2.67913 -4.22164 1.5
      vertex 2.1289 -4.52413 -1.5
      vertex 2.67913 -4.22164 -1.5
    endloop
  endfacet
  facet normal 0.904828 -0.425778 4.82033e-18
    outer loop
      vertex 4.38153 -2.40877 1.5
      vertex 4.64888 -1.84062 -1.5
      vertex 4.64888 -1.84062 1.5
    endloop
  endfacet
  facet normal 0.904828 -0.425778 4.82033e-18
    outer loop
      vertex 4.64888 -1.84062 -1.5
      vertex 4.38153 -2.40877 1.5
      vertex 4.38153 -2.40877 -1.5
    endloop
  endfacet
  facet normal -0.248701 -0.96858 0
    outer loop
      vertex -1.54508 -4.75528 -1.5
      vertex -0.936906 -4.91144 1.5
      vertex -1.54508 -4.75528 1.5
    endloop
  endfacet
  facet normal -0.248701 -0.96858 -0
    outer loop
      vertex -0.936906 -4.91144 1.5
      vertex -1.54508 -4.75528 -1.5
      vertex -0.936906 -4.91144 -1.5
    endloop
  endfacet
  facet normal -0.951053 -0.309028 -3.17641e-18
    outer loop
      vertex -4.64888 -1.84062 -1.5
      vertex -4.84292 -1.24345 1.5
      vertex -4.84292 -1.24345 -1.5
    endloop
  endfacet
  facet normal -0.951053 -0.309028 -3.17641e-18
    outer loop
      vertex -4.84292 -1.24345 1.5
      vertex -4.64888 -1.84062 -1.5
      vertex -4.64888 -1.84062 1.5
    endloop
  endfacet
  facet normal 0.684549 -0.728967 0
    outer loop
      vertex 3.18712 -3.85257 -1.5
      vertex 3.64484 -3.42274 1.5
      vertex 3.18712 -3.85257 1.5
    endloop
  endfacet
  facet normal 0.684549 -0.728967 0
    outer loop
      vertex 3.64484 -3.42274 1.5
      vertex 3.18712 -3.85257 -1.5
      vertex 3.64484 -3.42274 -1.5
    endloop
  endfacet
  facet normal 0.368124 -0.929777 0
    outer loop
      vertex 1.54508 -4.75528 -1.5
      vertex 2.1289 -4.52413 1.5
      vertex 1.54508 -4.75528 1.5
    endloop
  endfacet
  facet normal 0.368124 -0.929777 0
    outer loop
      vertex 2.1289 -4.52413 1.5
      vertex 1.54508 -4.75528 -1.5
      vertex 2.1289 -4.52413 -1.5
    endloop
  endfacet
  facet normal 0.248701 -0.96858 0
    outer loop
      vertex 0.936906 -4.91144 -1.5
      vertex 1.54508 -4.75528 1.5
      vertex 0.936906 -4.91144 1.5
    endloop
  endfacet
  facet normal 0.248701 -0.96858 0
    outer loop
      vertex 1.54508 -4.75528 1.5
      vertex 0.936906 -4.91144 -1.5
      vertex 1.54508 -4.75528 -1.5
    endloop
  endfacet
  facet normal 0.844328 -0.535827 -5.89952e-18
    outer loop
      vertex 4.04508 -2.93893 1.5
      vertex 4.38153 -2.40877 -1.5
      vertex 4.38153 -2.40877 1.5
    endloop
  endfacet
  facet normal 0.844328 -0.535827 -5.89952e-18
    outer loop
      vertex 4.38153 -2.40877 -1.5
      vertex 4.04508 -2.93893 1.5
      vertex 4.04508 -2.93893 -1.5
    endloop
  endfacet
  facet normal 0.770515 -0.637422 4.6405e-18
    outer loop
      vertex 3.64484 -3.42274 1.5
      vertex 4.04508 -2.93893 -1.5
      vertex 4.04508 -2.93893 1.5
    endloop
  endfacet
  facet normal 0.770515 -0.637422 4.6405e-18
    outer loop
      vertex 4.04508 -2.93893 -1.5
      vertex 3.64484 -3.42274 1.5
      vertex 3.64484 -3.42274 -1.5
    endloop
  endfacet
  facet normal 0.951053 -0.309028 3.17641e-18
    outer loop
      vertex 4.64888 -1.84062 1.5
      vertex 4.84292 -1.24345 -1.5
      vertex 4.84292 -1.24345 1.5
    endloop
  endfacet
  facet normal 0.951053 -0.309028 3.17641e-18
    outer loop
      vertex 4.84292 -1.24345 -1.5
      vertex 4.64888 -1.84062 1.5
      vertex 4.64888 -1.84062 -1.5
    endloop
  endfacet
  facet normal -0.125322 -0.992116 0
    outer loop
      vertex -0.936906 -4.91144 -1.5
      vertex -0.313952 -4.99013 1.5
      vertex -0.936906 -4.91144 1.5
    endloop
  endfacet
  facet normal -0.125322 -0.992116 -0
    outer loop
      vertex -0.313952 -4.99013 1.5
      vertex -0.936906 -4.91144 -1.5
      vertex -0.313952 -4.99013 -1.5
    endloop
  endfacet
  facet normal -0.368124 -0.929777 0
    outer loop
      vertex -2.1289 -4.52413 -1.5
      vertex -1.54508 -4.75528 1.5
      vertex -2.1289 -4.52413 1.5
    endloop
  endfacet
  facet normal -0.368124 -0.929777 -0
    outer loop
      vertex -1.54508 -4.75528 1.5
      vertex -2.1289 -4.52413 -1.5
      vertex -1.54508 -4.75528 -1.5
    endloop
  endfacet
  facet normal -0.844328 -0.535827 5.89952e-18
    outer loop
      vertex -4.04508 -2.93893 -1.5
      vertex -4.38153 -2.40877 1.5
      vertex -4.38153 -2.40877 -1.5
    endloop
  endfacet
  facet normal -0.844328 -0.535827 5.89952e-18
    outer loop
      vertex -4.38153 -2.40877 1.5
      vertex -4.04508 -2.93893 -1.5
      vertex -4.04508 -2.93893 1.5
    endloop
  endfacet
  facet normal -0.98229 -0.187369 1.12595e-18
    outer loop
      vertex -4.84292 -1.24345 -1.5
      vertex -4.96057 -0.626666 1.5
      vertex -4.96057 -0.626666 -1.5
    endloop
  endfacet
  facet normal -0.98229 -0.187369 1.12595e-18
    outer loop
      vertex -4.96057 -0.626666 1.5
      vertex -4.84292 -1.24345 -1.5
      vertex -4.84292 -1.24345 1.5
    endloop
  endfacet
  facet normal -0.998026 -0.0627961 7.43739e-19
    outer loop
      vertex -4.96057 -0.626666 -1.5
      vertex -5 0 1.5
      vertex -5 0 -1.5
    endloop
  endfacet
  facet normal -0.998026 -0.0627961 7.43739e-19
    outer loop
      vertex -5 0 1.5
      vertex -4.96057 -0.626666 -1.5
      vertex -4.96057 -0.626666 1.5
    endloop
  endfacet
  facet normal 0.587779 -0.809022 0
    outer loop
      vertex 2.67913 -4.22164 -1.5
      vertex 3.18712 -3.85257 1.5
      vertex 2.67913 -4.22164 1.5
    endloop
  endfacet
  facet normal 0.587779 -0.809022 0
    outer loop
      vertex 3.18712 -3.85257 1.5
      vertex 2.67913 -4.22164 -1.5
      vertex 3.18712 -3.85257 -1.5
    endloop
  endfacet
  facet normal -0.481752 -0.876308 0
    outer loop
      vertex -2.67913 -4.22164 -1.5
      vertex -2.1289 -4.52413 1.5
      vertex -2.67913 -4.22164 1.5
    endloop
  endfacet
  facet normal -0.481752 -0.876308 -0
    outer loop
      vertex -2.1289 -4.52413 1.5
      vertex -2.67913 -4.22164 -1.5
      vertex -2.1289 -4.52413 -1.5
    endloop
  endfacet
  facet normal -0.587779 -0.809022 0
    outer loop
      vertex -3.18712 -3.85257 -1.5
      vertex -2.67913 -4.22164 1.5
      vertex -3.18712 -3.85257 1.5
    endloop
  endfacet
  facet normal -0.587779 -0.809022 -0
    outer loop
      vertex -2.67913 -4.22164 1.5
      vertex -3.18712 -3.85257 -1.5
      vertex -2.67913 -4.22164 -1.5
    endloop
  endfacet
  facet normal -0.998026 -0.0628013 1.53634e-20
    outer loop
      vertex 1.5 0 -1.5
      vertex 1.48817 0.188 1.5
      vertex 1.48817 0.188 -1.5
    endloop
  endfacet
  facet normal -0.998026 -0.0628013 1.53634e-20
    outer loop
      vertex 1.48817 0.188 1.5
      vertex 1.5 0 -1.5
      vertex 1.5 0 1.5
    endloop
  endfacet
  facet normal 0.998026 -0.0628013 -1.53634e-20
    outer loop
      vertex -1.5 0 1.5
      vertex -1.48817 0.188 -1.5
      vertex -1.48817 0.188 1.5
    endloop
  endfacet
  facet normal 0.998026 -0.0628013 -1.53634e-20
    outer loop
      vertex -1.48817 0.188 -1.5
      vertex -1.5 0 1.5
      vertex -1.5 0 -1.5
    endloop
  endfacet
  facet normal 0 -1 0
    outer loop
      vertex -0.0941849 1.49704 -1.5
      vertex 0.0941849 1.49704 1.5
      vertex -0.0941849 1.49704 1.5
    endloop
  endfacet
  facet normal 0 -1 -0
    outer loop
      vertex 0.0941849 1.49704 1.5
      vertex -0.0941849 1.49704 -1.5
      vertex 0.0941849 1.49704 -1.5
    endloop
  endfacet
  facet normal 0 1 -0
    outer loop
      vertex 0.0941849 -1.49704 -1.5
      vertex -0.0941849 -1.49704 1.5
      vertex 0.0941849 -1.49704 1.5
    endloop
  endfacet
  facet normal 0 1 0
    outer loop
      vertex -0.0941849 -1.49704 1.5
      vertex 0.0941849 -1.49704 -1.5
      vertex -0.0941849 -1.49704 -1.5
    endloop
  endfacet
  facet normal -0.684557 -0.728959 0
    outer loop
      vertex 0.956136 1.15577 -1.5
      vertex 1.09345 1.02682 1.5
      vertex 0.956136 1.15577 1.5
    endloop
  endfacet
  facet normal -0.684557 -0.728959 -0
    outer loop
      vertex 1.09345 1.02682 1.5
      vertex 0.956136 1.15577 -1.5
      vertex 1.09345 1.02682 -1.5
    endloop
  endfacet
  facet normal 0.684557 -0.728959 0
    outer loop
      vertex -1.09345 1.02682 -1.5
      vertex -0.956136 1.15577 1.5
      vertex -1.09345 1.02682 1.5
    endloop
  endfacet
  facet normal 0.684557 -0.728959 0
    outer loop
      vertex -0.956136 1.15577 1.5
      vertex -1.09345 1.02682 -1.5
      vertex -0.956136 1.15577 -1.5
    endloop
  endfacet
  facet normal 0.368106 -0.929784 0
    outer loop
      vertex -0.638668 1.35724 -1.5
      vertex -0.463525 1.42658 1.5
      vertex -0.638668 1.35724 1.5
    endloop
  endfacet
  facet normal 0.368106 -0.929784 0
    outer loop
      vertex -0.463525 1.42658 1.5
      vertex -0.638668 1.35724 -1.5
      vertex -0.463525 1.42658 -1.5
    endloop
  endfacet
  facet normal -0.904838 -0.425756 -8.94829e-19
    outer loop
      vertex 1.39466 0.552186 -1.5
      vertex 1.31446 0.722631 1.5
      vertex 1.31446 0.722631 -1.5
    endloop
  endfacet
  facet normal -0.904838 -0.425756 -8.94829e-19
    outer loop
      vertex 1.31446 0.722631 1.5
      vertex 1.39466 0.552186 -1.5
      vertex 1.39466 0.552186 1.5
    endloop
  endfacet
  facet normal -0.982284 -0.187396 3.79964e-19
    outer loop
      vertex 1.48817 0.188 -1.5
      vertex 1.45287 0.373034 1.5
      vertex 1.45287 0.373034 -1.5
    endloop
  endfacet
  facet normal -0.982284 -0.187396 3.79964e-19
    outer loop
      vertex 1.45287 0.373034 1.5
      vertex 1.48817 0.188 -1.5
      vertex 1.48817 0.188 1.5
    endloop
  endfacet
  facet normal -0.368106 -0.929784 0
    outer loop
      vertex 0.463525 1.42658 -1.5
      vertex 0.638668 1.35724 1.5
      vertex 0.463525 1.42658 1.5
    endloop
  endfacet
  facet normal -0.368106 -0.929784 -0
    outer loop
      vertex 0.638668 1.35724 1.5
      vertex 0.463525 1.42658 -1.5
      vertex 0.638668 1.35724 -1.5
    endloop
  endfacet
  facet normal -0.24871 -0.968578 0
    outer loop
      vertex 0.281072 1.47343 -1.5
      vertex 0.463525 1.42658 1.5
      vertex 0.281072 1.47343 1.5
    endloop
  endfacet
  facet normal -0.24871 -0.968578 -0
    outer loop
      vertex 0.463525 1.42658 1.5
      vertex 0.281072 1.47343 -1.5
      vertex 0.463525 1.42658 -1.5
    endloop
  endfacet
  facet normal -0.481757 -0.876305 0
    outer loop
      vertex 0.638668 1.35724 -1.5
      vertex 0.80374 1.26649 1.5
      vertex 0.638668 1.35724 1.5
    endloop
  endfacet
  facet normal -0.481757 -0.876305 -0
    outer loop
      vertex 0.80374 1.26649 1.5
      vertex 0.638668 1.35724 -1.5
      vertex 0.80374 1.26649 -1.5
    endloop
  endfacet
  facet normal 0.904838 -0.425756 8.94829e-19
    outer loop
      vertex -1.39466 0.552186 1.5
      vertex -1.31446 0.722631 -1.5
      vertex -1.31446 0.722631 1.5
    endloop
  endfacet
  facet normal 0.904838 -0.425756 8.94829e-19
    outer loop
      vertex -1.31446 0.722631 -1.5
      vertex -1.39466 0.552186 1.5
      vertex -1.39466 0.552186 -1.5
    endloop
  endfacet
  facet normal 0.844314 -0.535848 2.67095e-18
    outer loop
      vertex -1.31446 0.722631 1.5
      vertex -1.21352 0.881678 -1.5
      vertex -1.21352 0.881678 1.5
    endloop
  endfacet
  facet normal 0.844314 -0.535848 2.67095e-18
    outer loop
      vertex -1.21352 0.881678 -1.5
      vertex -1.31446 0.722631 1.5
      vertex -1.31446 0.722631 -1.5
    endloop
  endfacet
  facet normal 0.951057 -0.309017 2.50311e-19
    outer loop
      vertex -1.45287 0.373034 1.5
      vertex -1.39466 0.552186 -1.5
      vertex -1.39466 0.552186 1.5
    endloop
  endfacet
  facet normal 0.951057 -0.309017 2.50311e-19
    outer loop
      vertex -1.39466 0.552186 -1.5
      vertex -1.45287 0.373034 1.5
      vertex -1.45287 0.373034 -1.5
    endloop
  endfacet
  facet normal 0.587778 -0.809022 0
    outer loop
      vertex -0.956136 1.15577 -1.5
      vertex -0.80374 1.26649 1.5
      vertex -0.956136 1.15577 1.5
    endloop
  endfacet
  facet normal 0.587778 -0.809022 0
    outer loop
      vertex -0.80374 1.26649 1.5
      vertex -0.956136 1.15577 -1.5
      vertex -0.80374 1.26649 -1.5
    endloop
  endfacet
  facet normal 0.125337 -0.992114 0
    outer loop
      vertex -0.281072 1.47343 -1.5
      vertex -0.0941849 1.49704 1.5
      vertex -0.281072 1.47343 1.5
    endloop
  endfacet
  facet normal 0.125337 -0.992114 0
    outer loop
      vertex -0.0941849 1.49704 1.5
      vertex -0.281072 1.47343 -1.5
      vertex -0.0941849 1.49704 -1.5
    endloop
  endfacet
  facet normal -0.125337 0.992114 0
    outer loop
      vertex 0.281072 -1.47343 -1.5
      vertex 0.0941849 -1.49704 1.5
      vertex 0.281072 -1.47343 1.5
    endloop
  endfacet
  facet normal -0.125337 0.992114 0
    outer loop
      vertex 0.0941849 -1.49704 1.5
      vertex 0.281072 -1.47343 -1.5
      vertex 0.0941849 -1.49704 -1.5
    endloop
  endfacet
  facet normal -0.951057 -0.309017 -2.50311e-19
    outer loop
      vertex 1.45287 0.373034 -1.5
      vertex 1.39466 0.552186 1.5
      vertex 1.39466 0.552186 -1.5
    endloop
  endfacet
  facet normal -0.951057 -0.309017 -2.50311e-19
    outer loop
      vertex 1.39466 0.552186 1.5
      vertex 1.45287 0.373034 -1.5
      vertex 1.45287 0.373034 1.5
    endloop
  endfacet
  facet normal -0.770518 -0.637418 -1.71772e-18
    outer loop
      vertex 1.21352 0.881678 -1.5
      vertex 1.09345 1.02682 1.5
      vertex 1.09345 1.02682 -1.5
    endloop
  endfacet
  facet normal -0.770518 -0.637418 -1.71772e-18
    outer loop
      vertex 1.09345 1.02682 1.5
      vertex 1.21352 0.881678 -1.5
      vertex 1.21352 0.881678 1.5
    endloop
  endfacet
  facet normal -0.844314 -0.535848 -2.67095e-18
    outer loop
      vertex 1.31446 0.722631 -1.5
      vertex 1.21352 0.881678 1.5
      vertex 1.21352 0.881678 -1.5
    endloop
  endfacet
  facet normal -0.844314 -0.535848 -2.67095e-18
    outer loop
      vertex 1.21352 0.881678 1.5
      vertex 1.31446 0.722631 -1.5
      vertex 1.31446 0.722631 1.5
    endloop
  endfacet
  facet normal -0.125337 -0.992114 0
    outer loop
      vertex 0.0941849 1.49704 -1.5
      vertex 0.281072 1.47343 1.5
      vertex 0.0941849 1.49704 1.5
    endloop
  endfacet
  facet normal -0.125337 -0.992114 -0
    outer loop
      vertex 0.281072 1.47343 1.5
      vertex 0.0941849 1.49704 -1.5
      vertex 0.281072 1.47343 -1.5
    endloop
  endfacet
  facet normal -0.587778 -0.809022 0
    outer loop
      vertex 0.80374 1.26649 -1.5
      vertex 0.956136 1.15577 1.5
      vertex 0.80374 1.26649 1.5
    endloop
  endfacet
  facet normal -0.587778 -0.809022 -0
    outer loop
      vertex 0.956136 1.15577 1.5
      vertex 0.80374 1.26649 -1.5
      vertex 0.956136 1.15577 -1.5
    endloop
  endfacet
  facet normal 0.982284 -0.187396 -3.79964e-19
    outer loop
      vertex -1.48817 0.188 1.5
      vertex -1.45287 0.373034 -1.5
      vertex -1.45287 0.373034 1.5
    endloop
  endfacet
  facet normal 0.982284 -0.187396 -3.79964e-19
    outer loop
      vertex -1.45287 0.373034 -1.5
      vertex -1.48817 0.188 1.5
      vertex -1.48817 0.188 -1.5
    endloop
  endfacet
  facet normal -0.684557 0.728959 0
    outer loop
      vertex 1.09345 -1.02682 -1.5
      vertex 0.956136 -1.15577 1.5
      vertex 1.09345 -1.02682 1.5
    endloop
  endfacet
  facet normal -0.684557 0.728959 0
    outer loop
      vertex 0.956136 -1.15577 1.5
      vertex 1.09345 -1.02682 -1.5
      vertex 0.956136 -1.15577 -1.5
    endloop
  endfacet
  facet normal -0.982284 0.187396 -3.79964e-19
    outer loop
      vertex 1.45287 -0.373034 -1.5
      vertex 1.48817 -0.188 1.5
      vertex 1.48817 -0.188 -1.5
    endloop
  endfacet
  facet normal -0.982284 0.187396 -3.79964e-19
    outer loop
      vertex 1.48817 -0.188 1.5
      vertex 1.45287 -0.373034 -1.5
      vertex 1.45287 -0.373034 1.5
    endloop
  endfacet
  facet normal 0.904838 0.425756 -8.94829e-19
    outer loop
      vertex -1.31446 -0.722631 1.5
      vertex -1.39466 -0.552186 -1.5
      vertex -1.39466 -0.552186 1.5
    endloop
  endfacet
  facet normal 0.904838 0.425756 -8.94829e-19
    outer loop
      vertex -1.39466 -0.552186 -1.5
      vertex -1.31446 -0.722631 1.5
      vertex -1.31446 -0.722631 -1.5
    endloop
  endfacet
  facet normal -0.368106 0.929784 0
    outer loop
      vertex 0.638668 -1.35724 -1.5
      vertex 0.463525 -1.42658 1.5
      vertex 0.638668 -1.35724 1.5
    endloop
  endfacet
  facet normal -0.368106 0.929784 0
    outer loop
      vertex 0.463525 -1.42658 1.5
      vertex 0.638668 -1.35724 -1.5
      vertex 0.463525 -1.42658 -1.5
    endloop
  endfacet
  facet normal 0.770518 -0.637418 1.71772e-18
    outer loop
      vertex -1.21352 0.881678 1.5
      vertex -1.09345 1.02682 -1.5
      vertex -1.09345 1.02682 1.5
    endloop
  endfacet
  facet normal 0.770518 -0.637418 1.71772e-18
    outer loop
      vertex -1.09345 1.02682 -1.5
      vertex -1.21352 0.881678 1.5
      vertex -1.21352 0.881678 -1.5
    endloop
  endfacet
  facet normal 0.481757 -0.876305 0
    outer loop
      vertex -0.80374 1.26649 -1.5
      vertex -0.638668 1.35724 1.5
      vertex -0.80374 1.26649 1.5
    endloop
  endfacet
  facet normal 0.481757 -0.876305 0
    outer loop
      vertex -0.638668 1.35724 1.5
      vertex -0.80374 1.26649 -1.5
      vertex -0.638668 1.35724 -1.5
    endloop
  endfacet
  facet normal 0.24871 -0.968578 0
    outer loop
      vertex -0.463525 1.42658 -1.5
      vertex -0.281072 1.47343 1.5
      vertex -0.463525 1.42658 1.5
    endloop
  endfacet
  facet normal 0.24871 -0.968578 0
    outer loop
      vertex -0.281072 1.47343 1.5
      vertex -0.463525 1.42658 -1.5
      vertex -0.281072 1.47343 -1.5
    endloop
  endfacet
  facet normal -0.481757 0.876305 0
    outer loop
      vertex 0.80374 -1.26649 -1.5
      vertex 0.638668 -1.35724 1.5
      vertex 0.80374 -1.26649 1.5
    endloop
  endfacet
  facet normal -0.481757 0.876305 0
    outer loop
      vertex 0.638668 -1.35724 1.5
      vertex 0.80374 -1.26649 -1.5
      vertex 0.638668 -1.35724 -1.5
    endloop
  endfacet
  facet normal -0.904838 0.425756 8.94829e-19
    outer loop
      vertex 1.31446 -0.722631 -1.5
      vertex 1.39466 -0.552186 1.5
      vertex 1.39466 -0.552186 -1.5
    endloop
  endfacet
  facet normal -0.904838 0.425756 8.94829e-19
    outer loop
      vertex 1.39466 -0.552186 1.5
      vertex 1.31446 -0.722631 -1.5
      vertex 1.31446 -0.722631 1.5
    endloop
  endfacet
  facet normal -0.770518 0.637418 1.71772e-18
    outer loop
      vertex 1.09345 -1.02682 -1.5
      vertex 1.21352 -0.881678 1.5
      vertex 1.21352 -0.881678 -1.5
    endloop
  endfacet
  facet normal -0.770518 0.637418 1.71772e-18
    outer loop
      vertex 1.21352 -0.881678 1.5
      vertex 1.09345 -1.02682 -1.5
      vertex 1.09345 -1.02682 1.5
    endloop
  endfacet
  facet normal -0.998026 0.0628013 -1.53634e-20
    outer loop
      vertex 1.48817 -0.188 -1.5
      vertex 1.5 0 1.5
      vertex 1.5 0 -1.5
    endloop
  endfacet
  facet normal -0.998026 0.0628013 -1.53634e-20
    outer loop
      vertex 1.5 0 1.5
      vertex 1.48817 -0.188 -1.5
      vertex 1.48817 -0.188 1.5
    endloop
  endfacet
  facet normal 0.368106 0.929784 -0
    outer loop
      vertex -0.463525 -1.42658 -1.5
      vertex -0.638668 -1.35724 1.5
      vertex -0.463525 -1.42658 1.5
    endloop
  endfacet
  facet normal 0.368106 0.929784 0
    outer loop
      vertex -0.638668 -1.35724 1.5
      vertex -0.463525 -1.42658 -1.5
      vertex -0.638668 -1.35724 -1.5
    endloop
  endfacet
  facet normal 0.684557 0.728959 -0
    outer loop
      vertex -0.956136 -1.15577 -1.5
      vertex -1.09345 -1.02682 1.5
      vertex -0.956136 -1.15577 1.5
    endloop
  endfacet
  facet normal 0.684557 0.728959 0
    outer loop
      vertex -1.09345 -1.02682 1.5
      vertex -0.956136 -1.15577 -1.5
      vertex -1.09345 -1.02682 -1.5
    endloop
  endfacet
  facet normal 0.951057 0.309017 -2.50311e-19
    outer loop
      vertex -1.39466 -0.552186 1.5
      vertex -1.45287 -0.373034 -1.5
      vertex -1.45287 -0.373034 1.5
    endloop
  endfacet
  facet normal 0.951057 0.309017 -2.50311e-19
    outer loop
      vertex -1.45287 -0.373034 -1.5
      vertex -1.39466 -0.552186 1.5
      vertex -1.39466 -0.552186 -1.5
    endloop
  endfacet
  facet normal -0.24871 0.968578 0
    outer loop
      vertex 0.463525 -1.42658 -1.5
      vertex 0.281072 -1.47343 1.5
      vertex 0.463525 -1.42658 1.5
    endloop
  endfacet
  facet normal -0.24871 0.968578 0
    outer loop
      vertex 0.281072 -1.47343 1.5
      vertex 0.463525 -1.42658 -1.5
      vertex 0.281072 -1.47343 -1.5
    endloop
  endfacet
  facet normal -0.587778 0.809022 0
    outer loop
      vertex 0.956136 -1.15577 -1.5
      vertex 0.80374 -1.26649 1.5
      vertex 0.956136 -1.15577 1.5
    endloop
  endfacet
  facet normal -0.587778 0.809022 0
    outer loop
      vertex 0.80374 -1.26649 1.5
      vertex 0.956136 -1.15577 -1.5
      vertex 0.80374 -1.26649 -1.5
    endloop
  endfacet
  facet normal -0.951057 0.309017 2.50311e-19
    outer loop
      vertex 1.39466 -0.552186 -1.5
      vertex 1.45287 -0.373034 1.5
      vertex 1.45287 -0.373034 -1.5
    endloop
  endfacet
  facet normal -0.951057 0.309017 2.50311e-19
    outer loop
      vertex 1.45287 -0.373034 1.5
      vertex 1.39466 -0.552186 -1.5
      vertex 1.39466 -0.552186 1.5
    endloop
  endfacet
  facet normal -0.844314 0.535848 2.67095e-18
    outer loop
      vertex 1.21352 -0.881678 -1.5
      vertex 1.31446 -0.722631 1.5
      vertex 1.31446 -0.722631 -1.5
    endloop
  endfacet
  facet normal -0.844314 0.535848 2.67095e-18
    outer loop
      vertex 1.31446 -0.722631 1.5
      vertex 1.21352 -0.881678 -1.5
      vertex 1.21352 -0.881678 1.5
    endloop
  endfacet
  facet normal 0.587778 0.809022 -0
    outer loop
      vertex -0.80374 -1.26649 -1.5
      vertex -0.956136 -1.15577 1.5
      vertex -0.80374 -1.26649 1.5
    endloop
  endfacet
  facet normal 0.587778 0.809022 0
    outer loop
      vertex -0.956136 -1.15577 1.5
      vertex -0.80374 -1.26649 -1.5
      vertex -0.956136 -1.15577 -1.5
    endloop
  endfacet
  facet normal 0.24871 0.968578 -0
    outer loop
      vertex -0.281072 -1.47343 -1.5
      vertex -0.463525 -1.42658 1.5
      vertex -0.281072 -1.47343 1.5
    endloop
  endfacet
  facet normal 0.24871 0.968578 0
    outer loop
      vertex -0.463525 -1.42658 1.5
      vertex -0.281072 -1.47343 -1.5
      vertex -0.463525 -1.42658 -1.5
    endloop
  endfacet
  facet normal 0.844314 0.535848 -2.67095e-18
    outer loop
      vertex -1.21352 -0.881678 1.5
      vertex -1.31446 -0.722631 -1.5
      vertex -1.31446 -0.722631 1.5
    endloop
  endfacet
  facet normal 0.844314 0.535848 -2.67095e-18
    outer loop
      vertex -1.31446 -0.722631 -1.5
      vertex -1.21352 -0.881678 1.5
      vertex -1.21352 -0.881678 -1.5
    endloop
  endfacet
  facet normal 0.982284 0.187396 3.79964e-19
    outer loop
      vertex -1.45287 -0.373034 1.5
      vertex -1.48817 -0.188 -1.5
      vertex -1.48817 -0.188 1.5
    endloop
  endfacet
  facet normal 0.982284 0.187396 3.79964e-19
    outer loop
      vertex -1.48817 -0.188 -1.5
      vertex -1.45287 -0.373034 1.5
      vertex -1.45287 -0.373034 -1.5
    endloop
  endfacet
  facet normal 0.998026 0.0628013 1.53634e-20
    outer loop
      vertex -1.48817 -0.188 1.5
      vertex -1.5 0 -1.5
      vertex -1.5 0 1.5
    endloop
  endfacet
  facet normal 0.998026 0.0628013 1.53634e-20
    outer loop
      vertex -1.5 0 -1.5
      vertex -1.48817 -0.188 1.5
      vertex -1.48817 -0.188 -1.5
    endloop
  endfacet
  facet normal 0.481757 0.876305 -0
    outer loop
      vertex -0.638668 -1.35724 -1.5
      vertex -0.80374 -1.26649 1.5
      vertex -0.638668 -1.35724 1.5
    endloop
  endfacet
  facet normal 0.481757 0.876305 0
    outer loop
      vertex -0.80374 -1.26649 1.5
      vertex -0.638668 -1.35724 -1.5
      vertex -0.80374 -1.26649 -1.5
    endloop
  endfacet
  facet normal 0.125337 0.992114 -0
    outer loop
      vertex -0.0941849 -1.49704 -1.5
      vertex -0.281072 -1.47343 1.5
      vertex -0.0941849 -1.49704 1.5
    endloop
  endfacet
  facet normal 0.125337 0.992114 0
    outer loop
      vertex -0.281072 -1.47343 1.5
      vertex -0.0941849 -1.49704 -1.5
      vertex -0.281072 -1.47343 -1.5
    endloop
  endfacet
  facet normal 0.770518 0.637418 -1.71772e-18
    outer loop
      vertex -1.09345 -1.02682 1.5
      vertex -1.21352 -0.881678 -1.5
      vertex -1.21352 -0.881678 1.5
    endloop
  endfacet
  facet normal 0.770518 0.637418 -1.71772e-18
    outer loop
      vertex -1.21352 -0.881678 -1.5
      vertex -1.09345 -1.02682 1.5
      vertex -1.09345 -1.02682 -1.5
    endloop
  endfacet
endsolid OpenSCAD_Model
