<?xml version="1.0" standalone="no"?>
<!DOCTYPE svg PUBLIC "-//W3C//DTD SVG 1.1//EN" "http://www.w3.org/Graphics/SVG/1.1/DTD/svg11.dtd">
<svg width="90mm" height="208mm" viewBox="-45 -347 90 208" xmlns="http://www.w3.org/2000/svg" version="1.1">
<title>OpenSCAD Model</title>
<path d="
M 40.9369,-301.589 L 41.5451,-301.745 L 42.1289,-301.976 L 42.6791,-302.278 L 43.1871,-302.647 L 43.6448,-303.077
 L 44.0451,-303.561 L 44.3815,-304.091 L 44.6489,-304.659 L 44.8429,-305.257 L 44.9606,-305.873 L 45,-306.5
 L 45,-341.5 L 44.9606,-342.127 L 44.8429,-342.743 L 44.6489,-343.341 L 44.3815,-343.909 L 44.0451,-344.439
 L 43.6448,-344.923 L 43.1871,-345.353 L 42.6791,-345.722 L 42.1289,-346.024 L 41.5451,-346.255 L 40.9369,-346.411
 L 40.3139,-346.49 L -40.3139,-346.49 L -40.9369,-346.411 L -41.5451,-346.255 L -42,-346.075 L -42,-346.115
 L -45,-346.115 L -45,-301.885 L -42,-301.885 L -42,-301.925 L -41.5451,-301.745 L -40.9369,-301.589
 L -40.3139,-301.51 L 40.3139,-301.51 z
M -39.7512,-303.008 L -40.2495,-303.071 L -40.7361,-303.196 L -41.2031,-303.381 L -41.6433,-303.623 L -42.0497,-303.918
 L -42.4159,-304.262 L -42.7361,-304.649 L -43.0052,-305.073 L -43.2191,-305.528 L -43.3743,-306.005 L -43.4685,-306.499
 L -43.5,-307 L -43.5,-341 L -43.4685,-341.501 L -43.3743,-341.995 L -43.2191,-342.472 L -43.0052,-342.927
 L -42.7361,-343.351 L -42.4159,-343.738 L -42.0497,-344.082 L -41.6433,-344.377 L -41.2031,-344.619 L -40.7361,-344.804
 L -40.2495,-344.929 L -39.7512,-344.992 L 39.7512,-344.992 L 40.2495,-344.929 L 40.7361,-344.804 L 41.2031,-344.619
 L 41.6433,-344.377 L 42.0497,-344.082 L 42.4159,-343.738 L 42.7361,-343.351 L 43.0052,-342.927 L 43.2191,-342.472
 L 43.3743,-341.995 L 43.4685,-341.501 L 43.5,-341 L 43.5,-307 L 43.4685,-306.499 L 43.3743,-306.005
 L 43.2191,-305.528 L 43.0052,-305.073 L 42.7361,-304.649 L 42.4159,-304.262 L 42.0497,-303.918 L 41.6433,-303.623
 L 41.2031,-303.381 L 40.7361,-303.196 L 40.2495,-303.071 L 39.7512,-303.008 z
M 40.9369,-247.589 L 41.5451,-247.745 L 42.1289,-247.976 L 42.6791,-248.278 L 43.1871,-248.647 L 43.6448,-249.077
 L 44.0451,-249.561 L 44.3815,-250.091 L 44.6489,-250.659 L 44.8429,-251.257 L 44.9606,-251.873 L 45,-252.5
 L 45,-287.5 L 44.9606,-288.127 L 44.8429,-288.743 L 44.6489,-289.341 L 44.3815,-289.909 L 44.0451,-290.439
 L 43.6448,-290.923 L 43.1871,-291.353 L 42.6791,-291.722 L 42.1289,-292.024 L 41.5451,-292.255 L 40.9369,-292.411
 L 40.3139,-292.49 L -40.3139,-292.49 L -40.9369,-292.411 L -41.5451,-292.255 L -42.1289,-292.024 L -42.6791,-291.722
 L -43.1871,-291.353 L -43.6448,-290.923 L -44.0451,-290.439 L -44.3815,-289.909 L -44.6489,-289.341 L -44.8429,-288.743
 L -44.9,-288.444 L -45,-288.444 L -45,-251.556 L -44.9,-251.556 L -44.8429,-251.257 L -44.6489,-250.659
 L -44.3815,-250.091 L -44.0451,-249.561 L -43.6448,-249.077 L -43.1871,-248.647 L -42.6791,-248.278 L -42.1289,-247.976
 L -41.5451,-247.745 L -40.9369,-247.589 L -40.3139,-247.51 L 40.3139,-247.51 z
M -39.7432,-249.135 L -40.2256,-249.196 L -40.6967,-249.317 L -41.1489,-249.496 L -41.5751,-249.73 L -41.9685,-250.016
 L -42.323,-250.349 L -42.633,-250.724 L -42.8936,-251.134 L -43.1007,-251.574 L -43.251,-252.037 L -43.3421,-252.515
 L -43.3726,-253 L -43.3726,-287 L -43.3421,-287.485 L -43.251,-287.963 L -43.1007,-288.426 L -42.8936,-288.866
 L -42.633,-289.276 L -42.323,-289.651 L -41.9685,-289.984 L -41.5751,-290.27 L -41.1489,-290.504 L -40.6967,-290.683
 L -40.2256,-290.804 L -39.7432,-290.865 L 39.7432,-290.865 L 40.2256,-290.804 L 40.6967,-290.683 L 41.1489,-290.504
 L 41.5751,-290.27 L 41.9685,-289.984 L 42.323,-289.651 L 42.633,-289.276 L 42.8936,-288.866 L 43.1007,-288.426
 L 43.251,-287.963 L 43.3421,-287.485 L 43.3726,-287 L 43.3726,-253 L 43.3421,-252.515 L 43.251,-252.037
 L 43.1007,-251.574 L 42.8936,-251.134 L 42.633,-250.724 L 42.323,-250.349 L 41.9685,-250.016 L 41.5751,-249.73
 L 41.1489,-249.496 L 40.6967,-249.317 L 40.2256,-249.196 L 39.7432,-249.135 z
M 40.9369,-193.589 L 41.5451,-193.745 L 42.1289,-193.976 L 42.6791,-194.278 L 43.1871,-194.647 L 43.6448,-195.077
 L 44.0451,-195.561 L 44.3815,-196.091 L 44.6489,-196.659 L 44.8429,-197.257 L 44.9606,-197.873 L 45,-198.5
 L 45,-233.5 L 44.9606,-234.127 L 44.8429,-234.743 L 44.6489,-235.341 L 44.3815,-235.909 L 44.0451,-236.439
 L 43.6448,-236.923 L 43.1871,-237.353 L 42.6791,-237.722 L 42.1289,-238.024 L 41.5451,-238.255 L 40.9369,-238.411
 L 40.3139,-238.49 L -40.3139,-238.49 L -40.9369,-238.411 L -41.5451,-238.255 L -42.1289,-238.024 L -42.6791,-237.722
 L -43.1871,-237.353 L -43.6448,-236.923 L -44.0451,-236.439 L -44.3815,-235.909 L -44.6489,-235.341 L -44.8429,-234.743
 L -44.9606,-234.127 L -45,-233.5 L -45,-198.5 L -44.9606,-197.873 L -44.8429,-197.257 L -44.6489,-196.659
 L -44.3815,-196.091 L -44.0451,-195.561 L -43.6448,-195.077 L -43.1871,-194.647 L -42.6791,-194.278 L -42.1289,-193.976
 L -41.5451,-193.745 L -40.9369,-193.589 L -40.3139,-193.51 L 40.3139,-193.51 z
M 37.3493,-228.605 L 37.0503,-228.643 L 36.7584,-228.717 L 36.4781,-228.828 L 36.214,-228.974 L 35.9702,-229.151
 L 35.7505,-229.357 L 35.5583,-229.589 L 35.3969,-229.844 L 35.2685,-230.117 L 35.1754,-230.403 L 35.1189,-230.699
 L 35.1,-231 L 35.1189,-231.301 L 35.1754,-231.597 L 35.2685,-231.883 L 35.3969,-232.156 L 35.5583,-232.411
 L 35.7505,-232.643 L 35.9702,-232.849 L 36.214,-233.026 L 36.4781,-233.172 L 36.7584,-233.283 L 37.0503,-233.357
 L 37.3493,-233.395 L 37.6507,-233.395 L 37.9497,-233.357 L 38.2416,-233.283 L 38.5219,-233.172 L 38.786,-233.026
 L 39.0298,-232.849 L 39.2495,-232.643 L 39.4416,-232.411 L 39.6031,-232.156 L 39.7315,-231.883 L 39.8246,-231.597
 L 39.8811,-231.301 L 39.9,-231 L 39.8811,-230.699 L 39.8246,-230.403 L 39.7315,-230.117 L 39.6031,-229.844
 L 39.4416,-229.589 L 39.2495,-229.357 L 39.0298,-229.151 L 38.786,-228.974 L 38.5219,-228.828 L 38.2416,-228.717
 L 37.9497,-228.643 L 37.6507,-228.605 z
M -37.6507,-228.605 L -37.9497,-228.643 L -38.2416,-228.717 L -38.5219,-228.828 L -38.786,-228.974 L -39.0298,-229.151
 L -39.2495,-229.357 L -39.4416,-229.589 L -39.6031,-229.844 L -39.7315,-230.117 L -39.8246,-230.403 L -39.8811,-230.699
 L -39.9,-231 L -39.8811,-231.301 L -39.8246,-231.597 L -39.7315,-231.883 L -39.6031,-232.156 L -39.4416,-232.411
 L -39.2495,-232.643 L -39.0298,-232.849 L -38.786,-233.026 L -38.5219,-233.172 L -38.2416,-233.283 L -37.9497,-233.357
 L -37.6507,-233.395 L -37.3493,-233.395 L -37.0503,-233.357 L -36.7584,-233.283 L -36.4781,-233.172 L -36.214,-233.026
 L -35.9702,-232.849 L -35.7505,-232.643 L -35.5583,-232.411 L -35.3969,-232.156 L -35.2685,-231.883 L -35.1754,-231.597
 L -35.1189,-231.301 L -35.1,-231 L -35.1189,-230.699 L -35.1754,-230.403 L -35.2685,-230.117 L -35.3969,-229.844
 L -35.5583,-229.589 L -35.7505,-229.357 L -35.9702,-229.151 L -36.214,-228.974 L -36.4781,-228.828 L -36.7584,-228.717
 L -37.0503,-228.643 L -37.3493,-228.605 z
M 37.3493,-198.605 L 37.0503,-198.643 L 36.7584,-198.717 L 36.4781,-198.828 L 36.214,-198.974 L 35.9702,-199.151
 L 35.7505,-199.357 L 35.5583,-199.589 L 35.3969,-199.844 L 35.2685,-200.117 L 35.1754,-200.403 L 35.1189,-200.699
 L 35.1,-201 L 35.1189,-201.301 L 35.1754,-201.597 L 35.2685,-201.883 L 35.3969,-202.156 L 35.5583,-202.411
 L 35.7505,-202.643 L 35.9702,-202.849 L 36.214,-203.026 L 36.4781,-203.172 L 36.7584,-203.283 L 37.0503,-203.357
 L 37.3493,-203.395 L 37.6507,-203.395 L 37.9497,-203.357 L 38.2416,-203.283 L 38.5219,-203.172 L 38.786,-203.026
 L 39.0298,-202.849 L 39.2495,-202.643 L 39.4416,-202.411 L 39.6031,-202.156 L 39.7315,-201.883 L 39.8246,-201.597
 L 39.8811,-201.301 L 39.9,-201 L 39.8811,-200.699 L 39.8246,-200.403 L 39.7315,-200.117 L 39.6031,-199.844
 L 39.4416,-199.589 L 39.2495,-199.357 L 39.0298,-199.151 L 38.786,-198.974 L 38.5219,-198.828 L 38.2416,-198.717
 L 37.9497,-198.643 L 37.6507,-198.605 z
M -37.6507,-198.605 L -37.9497,-198.643 L -38.2416,-198.717 L -38.5219,-198.828 L -38.786,-198.974 L -39.0298,-199.151
 L -39.2495,-199.357 L -39.4416,-199.589 L -39.6031,-199.844 L -39.7315,-200.117 L -39.8246,-200.403 L -39.8811,-200.699
 L -39.9,-201 L -39.8811,-201.301 L -39.8246,-201.597 L -39.7315,-201.883 L -39.6031,-202.156 L -39.4416,-202.411
 L -39.2495,-202.643 L -39.0298,-202.849 L -38.786,-203.026 L -38.5219,-203.172 L -38.2416,-203.283 L -37.9497,-203.357
 L -37.6507,-203.395 L -37.3493,-203.395 L -37.0503,-203.357 L -36.7584,-203.283 L -36.4781,-203.172 L -36.214,-203.026
 L -35.9702,-202.849 L -35.7505,-202.643 L -35.5583,-202.411 L -35.3969,-202.156 L -35.2685,-201.883 L -35.1754,-201.597
 L -35.1189,-201.301 L -35.1,-201 L -35.1189,-200.699 L -35.1754,-200.403 L -35.2685,-200.117 L -35.3969,-199.844
 L -35.5583,-199.589 L -35.7505,-199.357 L -35.9702,-199.151 L -36.214,-198.974 L -36.4781,-198.828 L -36.7584,-198.717
 L -37.0503,-198.643 L -37.3493,-198.605 z
M 40.9369,-139.589 L 41.5451,-139.745 L 42.1289,-139.976 L 42.6791,-140.278 L 43.1871,-140.647 L 43.6448,-141.077
 L 44.0451,-141.561 L 44.3815,-142.091 L 44.6489,-142.659 L 44.8429,-143.257 L 44.9606,-143.873 L 45,-144.5
 L 45,-179.5 L 44.9606,-180.127 L 44.8429,-180.743 L 44.6489,-181.341 L 44.3815,-181.909 L 44.0451,-182.439
 L 43.6448,-182.923 L 43.1871,-183.353 L 42.6791,-183.722 L 42.1289,-184.024 L 41.5451,-184.255 L 40.9369,-184.411
 L 40.3139,-184.49 L -40.3139,-184.49 L -40.9369,-184.411 L -41.5451,-184.255 L -42.1289,-184.024 L -42.6791,-183.722
 L -43.1871,-183.353 L -43.6448,-182.923 L -44.0451,-182.439 L -44.3815,-181.909 L -44.6489,-181.341 L -44.8429,-180.743
 L -44.9606,-180.127 L -45,-179.5 L -45,-144.5 L -44.9606,-143.873 L -44.8429,-143.257 L -44.6489,-142.659
 L -44.3815,-142.091 L -44.0451,-141.561 L -43.6448,-141.077 L -43.1871,-140.647 L -42.6791,-140.278 L -42.1289,-139.976
 L -41.5451,-139.745 L -40.9369,-139.589 L -40.3139,-139.51 L 40.3139,-139.51 z
M 37.387,-175.204 L 37.1627,-175.232 L 36.9438,-175.288 L 36.7336,-175.371 L 36.5355,-175.48 L 36.3526,-175.613
 L 36.1879,-175.768 L 36.0438,-175.942 L 35.9226,-176.133 L 35.8264,-176.337 L 35.7565,-176.552 L 35.7142,-176.774
 L 35.7,-177 L 35.7142,-177.226 L 35.7565,-177.448 L 35.8264,-177.663 L 35.9226,-177.867 L 36.0438,-178.058
 L 36.1879,-178.232 L 36.3526,-178.387 L 36.5355,-178.52 L 36.7336,-178.629 L 36.9438,-178.712 L 37.1627,-178.768
 L 37.387,-178.796 L 37.613,-178.796 L 37.8373,-178.768 L 38.0562,-178.712 L 38.2664,-178.629 L 38.4645,-178.52
 L 38.6474,-178.387 L 38.8121,-178.232 L 38.9562,-178.058 L 39.0773,-177.867 L 39.1736,-177.663 L 39.2434,-177.448
 L 39.2858,-177.226 L 39.3,-177 L 39.2858,-176.774 L 39.2434,-176.552 L 39.1736,-176.337 L 39.0773,-176.133
 L 38.9562,-175.942 L 38.8121,-175.768 L 38.6474,-175.613 L 38.4645,-175.48 L 38.2664,-175.371 L 38.0562,-175.288
 L 37.8373,-175.232 L 37.613,-175.204 z
M -37.613,-175.204 L -37.8373,-175.232 L -38.0562,-175.288 L -38.2664,-175.371 L -38.4645,-175.48 L -38.6474,-175.613
 L -38.8121,-175.768 L -38.9562,-175.942 L -39.0773,-176.133 L -39.1736,-176.337 L -39.2434,-176.552 L -39.2858,-176.774
 L -39.3,-177 L -39.2858,-177.226 L -39.2434,-177.448 L -39.1736,-177.663 L -39.0773,-177.867 L -38.9562,-178.058
 L -38.8121,-178.232 L -38.6474,-178.387 L -38.4645,-178.52 L -38.2664,-178.629 L -38.0562,-178.712 L -37.8373,-178.768
 L -37.613,-178.796 L -37.387,-178.796 L -37.1627,-178.768 L -36.9438,-178.712 L -36.7336,-178.629 L -36.5355,-178.52
 L -36.3526,-178.387 L -36.1879,-178.232 L -36.0438,-178.058 L -35.9226,-177.867 L -35.8264,-177.663 L -35.7565,-177.448
 L -35.7142,-177.226 L -35.7,-177 L -35.7142,-176.774 L -35.7565,-176.552 L -35.8264,-176.337 L -35.9226,-176.133
 L -36.0438,-175.942 L -36.1879,-175.768 L -36.3526,-175.613 L -36.5355,-175.48 L -36.7336,-175.371 L -36.9438,-175.288
 L -37.1627,-175.232 L -37.387,-175.204 z
M 37.387,-145.204 L 37.1627,-145.232 L 36.9438,-145.288 L 36.7336,-145.371 L 36.5355,-145.48 L 36.3526,-145.613
 L 36.1879,-145.768 L 36.0438,-145.942 L 35.9226,-146.133 L 35.8264,-146.337 L 35.7565,-146.552 L 35.7142,-146.774
 L 35.7,-147 L 35.7142,-147.226 L 35.7565,-147.448 L 35.8264,-147.663 L 35.9226,-147.867 L 36.0438,-148.058
 L 36.1879,-148.232 L 36.3526,-148.387 L 36.5355,-148.52 L 36.7336,-148.629 L 36.9438,-148.712 L 37.1627,-148.768
 L 37.387,-148.796 L 37.613,-148.796 L 37.8373,-148.768 L 38.0562,-148.712 L 38.2664,-148.629 L 38.4645,-148.52
 L 38.6474,-148.387 L 38.8121,-148.232 L 38.9562,-148.058 L 39.0773,-147.867 L 39.1736,-147.663 L 39.2434,-147.448
 L 39.2858,-147.226 L 39.3,-147 L 39.2858,-146.774 L 39.2434,-146.552 L 39.1736,-146.337 L 39.0773,-146.133
 L 38.9562,-145.942 L 38.8121,-145.768 L 38.6474,-145.613 L 38.4645,-145.48 L 38.2664,-145.371 L 38.0562,-145.288
 L 37.8373,-145.232 L 37.613,-145.204 z
M -37.613,-145.204 L -37.8373,-145.232 L -38.0562,-145.288 L -38.2664,-145.371 L -38.4645,-145.48 L -38.6474,-145.613
 L -38.8121,-145.768 L -38.9562,-145.942 L -39.0773,-146.133 L -39.1736,-146.337 L -39.2434,-146.552 L -39.2858,-146.774
 L -39.3,-147 L -39.2858,-147.226 L -39.2434,-147.448 L -39.1736,-147.663 L -39.0773,-147.867 L -38.9562,-148.058
 L -38.8121,-148.232 L -38.6474,-148.387 L -38.4645,-148.52 L -38.2664,-148.629 L -38.0562,-148.712 L -37.8373,-148.768
 L -37.613,-148.796 L -37.387,-148.796 L -37.1627,-148.768 L -36.9438,-148.712 L -36.7336,-148.629 L -36.5355,-148.52
 L -36.3526,-148.387 L -36.1879,-148.232 L -36.0438,-148.058 L -35.9226,-147.867 L -35.8264,-147.663 L -35.7565,-147.448
 L -35.7142,-147.226 L -35.7,-147 L -35.7142,-146.774 L -35.7565,-146.552 L -35.8264,-146.337 L -35.9226,-146.133
 L -36.0438,-145.942 L -36.1879,-145.768 L -36.3526,-145.613 L -36.5355,-145.48 L -36.7336,-145.371 L -36.9438,-145.288
 L -37.1627,-145.232 L -37.387,-145.204 z
" stroke="black" fill="lightgray" stroke-width="0.5"/>
</svg>
