<?xml version="1.0" standalone="no"?>
<!DOCTYPE svg PUBLIC "-//W3C//DTD SVG 1.1//EN" "http://www.w3.org/Graphics/SVG/1.1/DTD/svg11.dtd">
<svg width="30mm" height="2181mm" viewBox="-15 -4266 30 2181" xmlns="http://www.w3.org/2000/svg" version="1.1">
<title>OpenSCAD Model</title>
<path d="
M 10.9369,-4056.09 L 11.5451,-4056.24 L 12.1289,-4056.48 L 12.6791,-4056.78 L 13.1871,-4057.15 L 13.6448,-4057.58
 L 14.0451,-4058.06 L 14.3815,-4058.59 L 14.6489,-4059.16 L 14.8429,-4059.76 L 14.9606,-4060.37 L 15,-4061
 L 15,-4261 L 14.9606,-4261.63 L 14.8429,-4262.24 L 14.6489,-4262.84 L 14.3815,-4263.41 L 14.0451,-4263.94
 L 13.6448,-4264.42 L 13.1871,-4264.85 L 12.6791,-4265.22 L 12.1289,-4265.52 L 11.5451,-4265.76 L 10.9369,-4265.91
 L 10.3139,-4265.99 L -10.3139,-4265.99 L -10.9369,-4265.91 L -11.5451,-4265.76 L -12.1289,-4265.52 L -12.6791,-4265.22
 L -13.1871,-4264.85 L -13.6448,-4264.42 L -14.0451,-4263.94 L -14.3815,-4263.41 L -14.6489,-4262.84 L -14.8429,-4262.24
 L -14.9606,-4261.63 L -15,-4261 L -15,-4061 L -14.9606,-4060.37 L -14.8429,-4059.76 L -14.6489,-4059.16
 L -14.3815,-4058.59 L -14.0451,-4058.06 L -13.6448,-4057.58 L -13.1871,-4057.15 L -12.6791,-4056.78 L -12.1289,-4056.48
 L -11.5451,-4056.24 L -10.9369,-4056.09 L -10.3139,-4056.01 L 10.3139,-4056.01 z
M -9.75116,-4057.51 L -10.2495,-4057.57 L -10.7361,-4057.7 L -11.2031,-4057.88 L -11.6433,-4058.12 L -12.0497,-4058.42
 L -12.4159,-4058.76 L -12.7361,-4059.15 L -13.0052,-4059.57 L -13.2191,-4060.03 L -13.3743,-4060.51 L -13.4684,-4061
 L -13.5,-4061.5 L -13.5,-4260.5 L -13.4684,-4261 L -13.3743,-4261.49 L -13.2191,-4261.97 L -13.0052,-4262.43
 L -12.7361,-4262.85 L -12.4159,-4263.24 L -12.0497,-4263.58 L -11.6433,-4263.88 L -11.2031,-4264.12 L -10.7361,-4264.3
 L -10.2495,-4264.43 L -9.75116,-4264.49 L 9.75116,-4264.49 L 10.2495,-4264.43 L 10.7361,-4264.3 L 11.2031,-4264.12
 L 11.6433,-4263.88 L 12.0497,-4263.58 L 12.4159,-4263.24 L 12.7361,-4262.85 L 13.0052,-4262.43 L 13.2191,-4261.97
 L 13.3743,-4261.49 L 13.4684,-4261 L 13.5,-4260.5 L 13.5,-4061.5 L 13.4684,-4061 L 13.3743,-4060.51
 L 13.2191,-4060.03 L 13.0052,-4059.57 L 12.7361,-4059.15 L 12.4159,-4058.76 L 12.0497,-4058.42 L 11.6433,-4058.12
 L 11.2031,-4057.88 L 10.7361,-4057.7 L 10.2495,-4057.57 L 9.75116,-4057.51 z
M 10.9369,-3837.09 L 11.5451,-3837.24 L 12.1289,-3837.48 L 12.6791,-3837.78 L 13.1871,-3838.15 L 13.6448,-3838.58
 L 14.0451,-3839.06 L 14.3815,-3839.59 L 14.6489,-3840.16 L 14.8429,-3840.76 L 14.9606,-3841.37 L 15,-3842
 L 15,-4042 L 14.9606,-4042.63 L 14.8429,-4043.24 L 14.6489,-4043.84 L 14.3815,-4044.41 L 14.0451,-4044.94
 L 13.6448,-4045.42 L 13.1871,-4045.85 L 12.6791,-4046.22 L 12.1289,-4046.52 L 11.5451,-4046.76 L 10.9369,-4046.91
 L 10.3139,-4046.99 L -10.3139,-4046.99 L -10.9369,-4046.91 L -11.5451,-4046.76 L -12.1289,-4046.52 L -12.6791,-4046.22
 L -13.1871,-4045.85 L -13.6448,-4045.42 L -14.0451,-4044.94 L -14.3815,-4044.41 L -14.6489,-4043.84 L -14.8429,-4043.24
 L -14.9606,-4042.63 L -15,-4042 L -15,-3842 L -14.9606,-3841.37 L -14.8429,-3840.76 L -14.6489,-3840.16
 L -14.3815,-3839.59 L -14.0451,-3839.06 L -13.6448,-3838.58 L -13.1871,-3838.15 L -12.6791,-3837.78 L -12.1289,-3837.48
 L -11.5451,-3837.24 L -10.9369,-3837.09 L -10.3139,-3837.01 L 10.3139,-3837.01 z
M -9.75116,-3838.51 L -10.2495,-3838.57 L -10.7361,-3838.7 L -11.2031,-3838.88 L -11.6433,-3839.12 L -12.0497,-3839.42
 L -12.4159,-3839.76 L -12.7361,-3840.15 L -13.0052,-3840.57 L -13.2191,-3841.03 L -13.3743,-3841.51 L -13.4684,-3842
 L -13.5,-3842.5 L -13.5,-4041.5 L -13.4684,-4042 L -13.3743,-4042.49 L -13.2191,-4042.97 L -13.0052,-4043.43
 L -12.7361,-4043.85 L -12.4159,-4044.24 L -12.0497,-4044.58 L -11.6433,-4044.88 L -11.2031,-4045.12 L -10.7361,-4045.3
 L -10.2495,-4045.43 L -9.75116,-4045.49 L 9.75116,-4045.49 L 10.2495,-4045.43 L 10.7361,-4045.3 L 11.2031,-4045.12
 L 11.6433,-4044.88 L 12.0497,-4044.58 L 12.4159,-4044.24 L 12.7361,-4043.85 L 13.0052,-4043.43 L 13.2191,-4042.97
 L 13.3743,-4042.49 L 13.4684,-4042 L 13.5,-4041.5 L 13.5,-3842.5 L 13.4684,-3842 L 13.3743,-3841.51
 L 13.2191,-3841.03 L 13.0052,-3840.57 L 12.7361,-3840.15 L 12.4159,-3839.76 L 12.0497,-3839.42 L 11.6433,-3839.12
 L 11.2031,-3838.88 L 10.7361,-3838.7 L 10.2495,-3838.57 L 9.75116,-3838.51 z
M 10.9369,-3618.09 L 11.5451,-3618.24 L 12.1289,-3618.48 L 12.6791,-3618.78 L 13.1871,-3619.15 L 13.6448,-3619.58
 L 14.0451,-3620.06 L 14.3815,-3620.59 L 14.6489,-3621.16 L 14.8429,-3621.76 L 14.9606,-3622.37 L 15,-3623
 L 15,-3823 L 14.9606,-3823.63 L 14.8429,-3824.24 L 14.6489,-3824.84 L 14.3815,-3825.41 L 14.0451,-3825.94
 L 13.6448,-3826.42 L 13.1871,-3826.85 L 12.6791,-3827.22 L 12.1289,-3827.52 L 11.5451,-3827.76 L 10.9369,-3827.91
 L 10.3139,-3827.99 L -10.3139,-3827.99 L -10.9369,-3827.91 L -11.5451,-3827.76 L -12.1289,-3827.52 L -12.6791,-3827.22
 L -13.1871,-3826.85 L -13.6448,-3826.42 L -14.0451,-3825.94 L -14.3815,-3825.41 L -14.6489,-3824.84 L -14.8429,-3824.24
 L -14.9606,-3823.63 L -15,-3823 L -15,-3623 L -14.9606,-3622.37 L -14.8429,-3621.76 L -14.6489,-3621.16
 L -14.3815,-3620.59 L -14.0451,-3620.06 L -13.6448,-3619.58 L -13.1871,-3619.15 L -12.6791,-3618.78 L -12.1289,-3618.48
 L -11.5451,-3618.24 L -10.9369,-3618.09 L -10.3139,-3618.01 L 10.3139,-3618.01 z
M -9.75116,-3619.51 L -10.2495,-3619.57 L -10.7361,-3619.7 L -11.2031,-3619.88 L -11.6433,-3620.12 L -12.0497,-3620.42
 L -12.4159,-3620.76 L -12.7361,-3621.15 L -13.0052,-3621.57 L -13.2191,-3622.03 L -13.3743,-3622.51 L -13.4684,-3623
 L -13.5,-3623.5 L -13.5,-3822.5 L -13.4684,-3823 L -13.3743,-3823.49 L -13.2191,-3823.97 L -13.0052,-3824.43
 L -12.7361,-3824.85 L -12.4159,-3825.24 L -12.0497,-3825.58 L -11.6433,-3825.88 L -11.2031,-3826.12 L -10.7361,-3826.3
 L -10.2495,-3826.43 L -9.75116,-3826.49 L 9.75116,-3826.49 L 10.2495,-3826.43 L 10.7361,-3826.3 L 11.2031,-3826.12
 L 11.6433,-3825.88 L 12.0497,-3825.58 L 12.4159,-3825.24 L 12.7361,-3824.85 L 13.0052,-3824.43 L 13.2191,-3823.97
 L 13.3743,-3823.49 L 13.4684,-3823 L 13.5,-3822.5 L 13.5,-3623.5 L 13.4684,-3623 L 13.3743,-3622.51
 L 13.2191,-3622.03 L 13.0052,-3621.57 L 12.7361,-3621.15 L 12.4159,-3620.76 L 12.0497,-3620.42 L 11.6433,-3620.12
 L 11.2031,-3619.88 L 10.7361,-3619.7 L 10.2495,-3619.57 L 9.75116,-3619.51 z
M 10.9369,-3399.09 L 11.5451,-3399.24 L 12.1289,-3399.48 L 12.6791,-3399.78 L 13.1871,-3400.15 L 13.6448,-3400.58
 L 14.0451,-3401.06 L 14.3815,-3401.59 L 14.6489,-3402.16 L 14.8429,-3402.76 L 14.9606,-3403.37 L 15,-3404
 L 15,-3604 L 14.9606,-3604.63 L 14.8429,-3605.24 L 14.6489,-3605.84 L 14.3815,-3606.41 L 14.0451,-3606.94
 L 13.6448,-3607.42 L 13.1871,-3607.85 L 12.6791,-3608.22 L 12.1289,-3608.52 L 11.5451,-3608.76 L 10.9369,-3608.91
 L 10.3139,-3608.99 L -10.3139,-3608.99 L -10.9369,-3608.91 L -11.5451,-3608.76 L -12.1289,-3608.52 L -12.6791,-3608.22
 L -13.1871,-3607.85 L -13.6448,-3607.42 L -14.0451,-3606.94 L -14.3815,-3606.41 L -14.6489,-3605.84 L -14.8429,-3605.24
 L -14.9606,-3604.63 L -15,-3604 L -15,-3404 L -14.9606,-3403.37 L -14.8429,-3402.76 L -14.6489,-3402.16
 L -14.3815,-3401.59 L -14.0451,-3401.06 L -13.6448,-3400.58 L -13.1871,-3400.15 L -12.6791,-3399.78 L -12.1289,-3399.48
 L -11.5451,-3399.24 L -10.9369,-3399.09 L -10.3139,-3399.01 L 10.3139,-3399.01 z
M -9.75116,-3400.51 L -10.2495,-3400.57 L -10.7361,-3400.7 L -11.2031,-3400.88 L -11.6433,-3401.12 L -12.0497,-3401.42
 L -12.4159,-3401.76 L -12.7361,-3402.15 L -13.0052,-3402.57 L -13.2191,-3403.03 L -13.3743,-3403.51 L -13.4684,-3404
 L -13.5,-3404.5 L -13.5,-3603.5 L -13.4684,-3604 L -13.3743,-3604.49 L -13.2191,-3604.97 L -13.0052,-3605.43
 L -12.7361,-3605.85 L -12.4159,-3606.24 L -12.0497,-3606.58 L -11.6433,-3606.88 L -11.2031,-3607.12 L -10.7361,-3607.3
 L -10.2495,-3607.43 L -9.75116,-3607.49 L 9.75116,-3607.49 L 10.2495,-3607.43 L 10.7361,-3607.3 L 11.2031,-3607.12
 L 11.6433,-3606.88 L 12.0497,-3606.58 L 12.4159,-3606.24 L 12.7361,-3605.85 L 13.0052,-3605.43 L 13.2191,-3604.97
 L 13.3743,-3604.49 L 13.4684,-3604 L 13.5,-3603.5 L 13.5,-3404.5 L 13.4684,-3404 L 13.3743,-3403.51
 L 13.2191,-3403.03 L 13.0052,-3402.57 L 12.7361,-3402.15 L 12.4159,-3401.76 L 12.0497,-3401.42 L 11.6433,-3401.12
 L 11.2031,-3400.88 L 10.7361,-3400.7 L 10.2495,-3400.57 L 9.75116,-3400.51 z
M 10.9369,-3180.09 L 11.5451,-3180.24 L 12.1289,-3180.48 L 12.6791,-3180.78 L 13.1871,-3181.15 L 13.6448,-3181.58
 L 14.0451,-3182.06 L 14.3815,-3182.59 L 14.6489,-3183.16 L 14.8429,-3183.76 L 14.9606,-3184.37 L 15,-3185
 L 15,-3385 L 14.9606,-3385.63 L 14.8429,-3386.24 L 14.6489,-3386.84 L 14.3815,-3387.41 L 14.0451,-3387.94
 L 13.6448,-3388.42 L 13.1871,-3388.85 L 12.6791,-3389.22 L 12.1289,-3389.52 L 11.5451,-3389.76 L 10.9369,-3389.91
 L 10.3139,-3389.99 L -10.3139,-3389.99 L -10.9369,-3389.91 L -11.5451,-3389.76 L -12.1289,-3389.52 L -12.6791,-3389.22
 L -13.1871,-3388.85 L -13.6448,-3388.42 L -14.0451,-3387.94 L -14.3815,-3387.41 L -14.6489,-3386.84 L -14.8429,-3386.24
 L -14.9606,-3385.63 L -15,-3385 L -15,-3185 L -14.9606,-3184.37 L -14.8429,-3183.76 L -14.6489,-3183.16
 L -14.3815,-3182.59 L -14.0451,-3182.06 L -13.6448,-3181.58 L -13.1871,-3181.15 L -12.6791,-3180.78 L -12.1289,-3180.48
 L -11.5451,-3180.24 L -10.9369,-3180.09 L -10.3139,-3180.01 L 10.3139,-3180.01 z
M -9.75116,-3181.51 L -10.2495,-3181.57 L -10.7361,-3181.7 L -11.2031,-3181.88 L -11.6433,-3182.12 L -12.0497,-3182.42
 L -12.4159,-3182.76 L -12.7361,-3183.15 L -13.0052,-3183.57 L -13.2191,-3184.03 L -13.3743,-3184.51 L -13.4684,-3185
 L -13.5,-3185.5 L -13.5,-3384.5 L -13.4684,-3385 L -13.3743,-3385.49 L -13.2191,-3385.97 L -13.0052,-3386.43
 L -12.7361,-3386.85 L -12.4159,-3387.24 L -12.0497,-3387.58 L -11.6433,-3387.88 L -11.2031,-3388.12 L -10.7361,-3388.3
 L -10.2495,-3388.43 L -9.75116,-3388.49 L 9.75116,-3388.49 L 10.2495,-3388.43 L 10.7361,-3388.3 L 11.2031,-3388.12
 L 11.6433,-3387.88 L 12.0497,-3387.58 L 12.4159,-3387.24 L 12.7361,-3386.85 L 13.0052,-3386.43 L 13.2191,-3385.97
 L 13.3743,-3385.49 L 13.4684,-3385 L 13.5,-3384.5 L 13.5,-3185.5 L 13.4684,-3185 L 13.3743,-3184.51
 L 13.2191,-3184.03 L 13.0052,-3183.57 L 12.7361,-3183.15 L 12.4159,-3182.76 L 12.0497,-3182.42 L 11.6433,-3182.12
 L 11.2031,-3181.88 L 10.7361,-3181.7 L 10.2495,-3181.57 L 9.75116,-3181.51 z
M 10.9369,-2961.09 L 11.5451,-2961.24 L 12.1289,-2961.48 L 12.6791,-2961.78 L 13.1871,-2962.15 L 13.6448,-2962.58
 L 14.0451,-2963.06 L 14.3815,-2963.59 L 14.6489,-2964.16 L 14.8429,-2964.76 L 14.9606,-2965.37 L 15,-2966
 L 15,-3166 L 14.9606,-3166.63 L 14.8429,-3167.24 L 14.6489,-3167.84 L 14.3815,-3168.41 L 14.0451,-3168.94
 L 13.6448,-3169.42 L 13.1871,-3169.85 L 12.6791,-3170.22 L 12.1289,-3170.52 L 11.5451,-3170.76 L 10.9369,-3170.91
 L 10.3139,-3170.99 L -10.3139,-3170.99 L -10.9369,-3170.91 L -11.5451,-3170.76 L -12.1289,-3170.52 L -12.6791,-3170.22
 L -13.1871,-3169.85 L -13.6448,-3169.42 L -14.0451,-3168.94 L -14.3815,-3168.41 L -14.6489,-3167.84 L -14.8429,-3167.24
 L -14.9606,-3166.63 L -15,-3166 L -15,-2966 L -14.9606,-2965.37 L -14.8429,-2964.76 L -14.6489,-2964.16
 L -14.3815,-2963.59 L -14.0451,-2963.06 L -13.6448,-2962.58 L -13.1871,-2962.15 L -12.6791,-2961.78 L -12.1289,-2961.48
 L -11.5451,-2961.24 L -10.9369,-2961.09 L -10.3139,-2961.01 L 10.3139,-2961.01 z
M -9.75116,-2962.51 L -10.2495,-2962.57 L -10.7361,-2962.7 L -11.2031,-2962.88 L -11.6433,-2963.12 L -12.0497,-2963.42
 L -12.4159,-2963.76 L -12.7361,-2964.15 L -13.0052,-2964.57 L -13.2191,-2965.03 L -13.3743,-2965.51 L -13.4684,-2966
 L -13.5,-2966.5 L -13.5,-3165.5 L -13.4684,-3166 L -13.3743,-3166.49 L -13.2191,-3166.97 L -13.0052,-3167.43
 L -12.7361,-3167.85 L -12.4159,-3168.24 L -12.0497,-3168.58 L -11.6433,-3168.88 L -11.2031,-3169.12 L -10.7361,-3169.3
 L -10.2495,-3169.43 L -9.75116,-3169.49 L 9.75116,-3169.49 L 10.2495,-3169.43 L 10.7361,-3169.3 L 11.2031,-3169.12
 L 11.6433,-3168.88 L 12.0497,-3168.58 L 12.4159,-3168.24 L 12.7361,-3167.85 L 13.0052,-3167.43 L 13.2191,-3166.97
 L 13.3743,-3166.49 L 13.4684,-3166 L 13.5,-3165.5 L 13.5,-2966.5 L 13.4684,-2966 L 13.3743,-2965.51
 L 13.2191,-2965.03 L 13.0052,-2964.57 L 12.7361,-2964.15 L 12.4159,-2963.76 L 12.0497,-2963.42 L 11.6433,-2963.12
 L 11.2031,-2962.88 L 10.7361,-2962.7 L 10.2495,-2962.57 L 9.75116,-2962.51 z
M 10.9369,-2742.09 L 11.5451,-2742.24 L 12.1289,-2742.48 L 12.6791,-2742.78 L 13.1871,-2743.15 L 13.6448,-2743.58
 L 14.0451,-2744.06 L 14.3815,-2744.59 L 14.6489,-2745.16 L 14.8429,-2745.76 L 14.9606,-2746.37 L 15,-2747
 L 15,-2947 L 14.9606,-2947.63 L 14.8429,-2948.24 L 14.6489,-2948.84 L 14.3815,-2949.41 L 14.0451,-2949.94
 L 13.6448,-2950.42 L 13.1871,-2950.85 L 12.6791,-2951.22 L 12.1289,-2951.52 L 11.5451,-2951.76 L 10.9369,-2951.91
 L 10.3139,-2951.99 L -10.3139,-2951.99 L -10.9369,-2951.91 L -11.5451,-2951.76 L -12.1289,-2951.52 L -12.6791,-2951.22
 L -13.1871,-2950.85 L -13.6448,-2950.42 L -14.0451,-2949.94 L -14.3815,-2949.41 L -14.6489,-2948.84 L -14.8429,-2948.24
 L -14.9606,-2947.63 L -15,-2947 L -15,-2747 L -14.9606,-2746.37 L -14.8429,-2745.76 L -14.6489,-2745.16
 L -14.3815,-2744.59 L -14.0451,-2744.06 L -13.6448,-2743.58 L -13.1871,-2743.15 L -12.6791,-2742.78 L -12.1289,-2742.48
 L -11.5451,-2742.24 L -10.9369,-2742.09 L -10.3139,-2742.01 L 10.3139,-2742.01 z
M -9.75116,-2743.51 L -10.2495,-2743.57 L -10.7361,-2743.7 L -11.2031,-2743.88 L -11.6433,-2744.12 L -12.0497,-2744.42
 L -12.4159,-2744.76 L -12.7361,-2745.15 L -13.0052,-2745.57 L -13.2191,-2746.03 L -13.3743,-2746.51 L -13.4684,-2747
 L -13.5,-2747.5 L -13.5,-2946.5 L -13.4684,-2947 L -13.3743,-2947.49 L -13.2191,-2947.97 L -13.0052,-2948.43
 L -12.7361,-2948.85 L -12.4159,-2949.24 L -12.0497,-2949.58 L -11.6433,-2949.88 L -11.2031,-2950.12 L -10.7361,-2950.3
 L -10.2495,-2950.43 L -9.75116,-2950.49 L 9.75116,-2950.49 L 10.2495,-2950.43 L 10.7361,-2950.3 L 11.2031,-2950.12
 L 11.6433,-2949.88 L 12.0497,-2949.58 L 12.4159,-2949.24 L 12.7361,-2948.85 L 13.0052,-2948.43 L 13.2191,-2947.97
 L 13.3743,-2947.49 L 13.4684,-2947 L 13.5,-2946.5 L 13.5,-2747.5 L 13.4684,-2747 L 13.3743,-2746.51
 L 13.2191,-2746.03 L 13.0052,-2745.57 L 12.7361,-2745.15 L 12.4159,-2744.76 L 12.0497,-2744.42 L 11.6433,-2744.12
 L 11.2031,-2743.88 L 10.7361,-2743.7 L 10.2495,-2743.57 L 9.75116,-2743.51 z
M 10.9369,-2523.09 L 11.5451,-2523.24 L 12.1289,-2523.48 L 12.6791,-2523.78 L 13.1871,-2524.15 L 13.6448,-2524.58
 L 14.0451,-2525.06 L 14.3815,-2525.59 L 14.6489,-2526.16 L 14.8429,-2526.76 L 14.9606,-2527.37 L 15,-2528
 L 15,-2728 L 14.9606,-2728.63 L 14.8429,-2729.24 L 14.6489,-2729.84 L 14.3815,-2730.41 L 14.0451,-2730.94
 L 13.6448,-2731.42 L 13.1871,-2731.85 L 12.6791,-2732.22 L 12.1289,-2732.52 L 11.5451,-2732.76 L 10.9369,-2732.91
 L 10.3139,-2732.99 L -10.3139,-2732.99 L -10.9369,-2732.91 L -11.5451,-2732.76 L -12.1289,-2732.52 L -12.6791,-2732.22
 L -13.1871,-2731.85 L -13.6448,-2731.42 L -14.0451,-2730.94 L -14.3815,-2730.41 L -14.6489,-2729.84 L -14.8429,-2729.24
 L -14.9606,-2728.63 L -15,-2728 L -15,-2528 L -14.9606,-2527.37 L -14.8429,-2526.76 L -14.6489,-2526.16
 L -14.3815,-2525.59 L -14.0451,-2525.06 L -13.6448,-2524.58 L -13.1871,-2524.15 L -12.6791,-2523.78 L -12.1289,-2523.48
 L -11.5451,-2523.24 L -10.9369,-2523.09 L -10.3139,-2523.01 L 10.3139,-2523.01 z
M -9.75116,-2524.51 L -10.2495,-2524.57 L -10.7361,-2524.7 L -11.2031,-2524.88 L -11.6433,-2525.12 L -12.0497,-2525.42
 L -12.4159,-2525.76 L -12.7361,-2526.15 L -13.0052,-2526.57 L -13.2191,-2527.03 L -13.3743,-2527.51 L -13.4684,-2528
 L -13.5,-2528.5 L -13.5,-2727.5 L -13.4684,-2728 L -13.3743,-2728.49 L -13.2191,-2728.97 L -13.0052,-2729.43
 L -12.7361,-2729.85 L -12.4159,-2730.24 L -12.0497,-2730.58 L -11.6433,-2730.88 L -11.2031,-2731.12 L -10.7361,-2731.3
 L -10.2495,-2731.43 L -9.75116,-2731.49 L 9.75116,-2731.49 L 10.2495,-2731.43 L 10.7361,-2731.3 L 11.2031,-2731.12
 L 11.6433,-2730.88 L 12.0497,-2730.58 L 12.4159,-2730.24 L 12.7361,-2729.85 L 13.0052,-2729.43 L 13.2191,-2728.97
 L 13.3743,-2728.49 L 13.4684,-2728 L 13.5,-2727.5 L 13.5,-2528.5 L 13.4684,-2528 L 13.3743,-2527.51
 L 13.2191,-2527.03 L 13.0052,-2526.57 L 12.7361,-2526.15 L 12.4159,-2525.76 L 12.0497,-2525.42 L 11.6433,-2525.12
 L 11.2031,-2524.88 L 10.7361,-2524.7 L 10.2495,-2524.57 L 9.75116,-2524.51 z
M 10.9369,-2304.09 L 11.5451,-2304.24 L 12.1289,-2304.48 L 12.6791,-2304.78 L 13.1871,-2305.15 L 13.6448,-2305.58
 L 14.0451,-2306.06 L 14.3815,-2306.59 L 14.6489,-2307.16 L 14.8429,-2307.76 L 14.9606,-2308.37 L 15,-2309
 L 15,-2509 L 14.9606,-2509.63 L 14.8429,-2510.24 L 14.6489,-2510.84 L 14.3815,-2511.41 L 14.0451,-2511.94
 L 13.6448,-2512.42 L 13.1871,-2512.85 L 12.6791,-2513.22 L 12.1289,-2513.52 L 11.5451,-2513.76 L 10.9369,-2513.91
 L 10.3139,-2513.99 L -10.3139,-2513.99 L -10.9369,-2513.91 L -11.5451,-2513.76 L -12.1289,-2513.52 L -12.6791,-2513.22
 L -13.1871,-2512.85 L -13.6448,-2512.42 L -14.0451,-2511.94 L -14.3815,-2511.41 L -14.6489,-2510.84 L -14.8429,-2510.24
 L -14.9606,-2509.63 L -15,-2509 L -15,-2309 L -14.9606,-2308.37 L -14.8429,-2307.76 L -14.6489,-2307.16
 L -14.3815,-2306.59 L -14.0451,-2306.06 L -13.6448,-2305.58 L -13.1871,-2305.15 L -12.6791,-2304.78 L -12.1289,-2304.48
 L -11.5451,-2304.24 L -10.9369,-2304.09 L -10.3139,-2304.01 L 10.3139,-2304.01 z
M -9.69545,-2306.39 L -10.0833,-2306.44 L -10.4619,-2306.54 L -10.8254,-2306.68 L -11.168,-2306.87 L -11.4842,-2307.1
 L -11.7692,-2307.37 L -12.0184,-2307.67 L -12.2279,-2308 L -12.3943,-2308.35 L -12.5151,-2308.73 L -12.5884,-2309.11
 L -12.6129,-2309.5 L -12.6129,-2508.5 L -12.5884,-2508.89 L -12.5151,-2509.27 L -12.3943,-2509.65 L -12.2279,-2510
 L -12.0184,-2510.33 L -11.7692,-2510.63 L -11.4842,-2510.9 L -11.168,-2511.13 L -10.8254,-2511.32 L -10.4619,-2511.46
 L -10.0833,-2511.56 L -9.69545,-2511.61 L 9.69545,-2511.61 L 10.0833,-2511.56 L 10.4619,-2511.46 L 10.8254,-2511.32
 L 11.168,-2511.13 L 11.4842,-2510.9 L 11.7692,-2510.63 L 12.0184,-2510.33 L 12.2279,-2510 L 12.3943,-2509.65
 L 12.5151,-2509.27 L 12.5884,-2508.89 L 12.6129,-2508.5 L 12.6129,-2309.5 L 12.5884,-2309.11 L 12.5151,-2308.73
 L 12.3943,-2308.35 L 12.2279,-2308 L 12.0184,-2307.67 L 11.7692,-2307.37 L 11.4842,-2307.1 L 11.168,-2306.87
 L 10.8254,-2306.68 L 10.4619,-2306.54 L 10.0833,-2306.44 L 9.69545,-2306.39 z
M 10.9369,-2085.09 L 11.5451,-2085.24 L 12.1289,-2085.48 L 12.6791,-2085.78 L 13.1871,-2086.15 L 13.6448,-2086.58
 L 14.0451,-2087.06 L 14.3815,-2087.59 L 14.6489,-2088.16 L 14.8429,-2088.76 L 14.9606,-2089.37 L 15,-2090
 L 15,-2290 L 14.9606,-2290.63 L 14.8429,-2291.24 L 14.6489,-2291.84 L 14.3815,-2292.41 L 14.0451,-2292.94
 L 13.6448,-2293.42 L 13.1871,-2293.85 L 12.6791,-2294.22 L 12.1289,-2294.52 L 11.5451,-2294.76 L 10.9369,-2294.91
 L 10.3139,-2294.99 L -10.3139,-2294.99 L -10.9369,-2294.91 L -11.5451,-2294.76 L -12.1289,-2294.52 L -12.6791,-2294.22
 L -13.1871,-2293.85 L -13.6448,-2293.42 L -14.0451,-2292.94 L -14.3815,-2292.41 L -14.6489,-2291.84 L -14.8429,-2291.24
 L -14.9606,-2290.63 L -15,-2290 L -15,-2090 L -14.9606,-2089.37 L -14.8429,-2088.76 L -14.6489,-2088.16
 L -14.3815,-2087.59 L -14.0451,-2087.06 L -13.6448,-2086.58 L -13.1871,-2086.15 L -12.6791,-2085.78 L -12.1289,-2085.48
 L -11.5451,-2085.24 L -10.9369,-2085.09 L -10.3139,-2085.01 L 10.3139,-2085.01 z
M -7.63406,-2285.37 L -7.9001,-2285.4 L -8.15984,-2285.47 L -8.40915,-2285.57 L -8.64413,-2285.7 L -8.86108,-2285.85
 L -9.05655,-2286.04 L -9.22748,-2286.24 L -9.37117,-2286.47 L -9.48534,-2286.71 L -9.56821,-2286.97 L -9.61845,-2287.23
 L -9.63528,-2287.5 L -9.61845,-2287.77 L -9.56821,-2288.03 L -9.48534,-2288.29 L -9.37117,-2288.53 L -9.22748,-2288.76
 L -9.05655,-2288.96 L -8.86108,-2289.15 L -8.64413,-2289.3 L -8.40915,-2289.43 L -8.15984,-2289.53 L -7.9001,-2289.6
 L -7.63406,-2289.63 L -7.36592,-2289.63 L -7.09988,-2289.6 L -6.84015,-2289.53 L -6.59084,-2289.43 L -6.35585,-2289.3
 L -6.1389,-2289.15 L -5.94344,-2288.96 L -5.77251,-2288.76 L -5.62881,-2288.53 L -5.51465,-2288.29 L -5.43178,-2288.03
 L -5.38153,-2287.77 L -5.3647,-2287.5 L -5.38153,-2287.23 L -5.43178,-2286.97 L -5.51465,-2286.71 L -5.62881,-2286.47
 L -5.77251,-2286.24 L -5.94344,-2286.04 L -6.1389,-2285.85 L -6.35585,-2285.7 L -6.59084,-2285.57 L -6.84015,-2285.47
 L -7.09988,-2285.4 L -7.36592,-2285.37 z
M 7.36592,-2285.37 L 7.09988,-2285.4 L 6.84015,-2285.47 L 6.59084,-2285.57 L 6.35585,-2285.7 L 6.1389,-2285.85
 L 5.94344,-2286.04 L 5.77251,-2286.24 L 5.62881,-2286.47 L 5.51465,-2286.71 L 5.43178,-2286.97 L 5.38153,-2287.23
 L 5.3647,-2287.5 L 5.38153,-2287.77 L 5.43178,-2288.03 L 5.51465,-2288.29 L 5.62881,-2288.53 L 5.77251,-2288.76
 L 5.94344,-2288.96 L 6.1389,-2289.15 L 6.35585,-2289.3 L 6.59084,-2289.43 L 6.84015,-2289.53 L 7.09988,-2289.6
 L 7.36592,-2289.63 L 7.63406,-2289.63 L 7.9001,-2289.6 L 8.15984,-2289.53 L 8.40915,-2289.43 L 8.64413,-2289.3
 L 8.86108,-2289.15 L 9.05655,-2288.96 L 9.22748,-2288.76 L 9.37117,-2288.53 L 9.48534,-2288.29 L 9.56821,-2288.03
 L 9.61845,-2287.77 L 9.63528,-2287.5 L 9.61845,-2287.23 L 9.56821,-2286.97 L 9.48534,-2286.71 L 9.37117,-2286.47
 L 9.22748,-2286.24 L 9.05655,-2286.04 L 8.86108,-2285.85 L 8.64413,-2285.7 L 8.40915,-2285.57 L 8.15984,-2285.47
 L 7.9001,-2285.4 L 7.63406,-2285.37 z
M -7.63406,-2090.37 L -7.9001,-2090.4 L -8.15984,-2090.47 L -8.40915,-2090.57 L -8.64413,-2090.7 L -8.86108,-2090.85
 L -9.05655,-2091.04 L -9.22748,-2091.24 L -9.37117,-2091.47 L -9.48534,-2091.71 L -9.56821,-2091.97 L -9.61845,-2092.23
 L -9.63528,-2092.5 L -9.61845,-2092.77 L -9.56821,-2093.03 L -9.48534,-2093.29 L -9.37117,-2093.53 L -9.22748,-2093.76
 L -9.05655,-2093.96 L -8.86108,-2094.15 L -8.64413,-2094.3 L -8.40915,-2094.43 L -8.15984,-2094.53 L -7.9001,-2094.6
 L -7.63406,-2094.63 L -7.36592,-2094.63 L -7.09988,-2094.6 L -6.84015,-2094.53 L -6.59084,-2094.43 L -6.35585,-2094.3
 L -6.1389,-2094.15 L -5.94344,-2093.96 L -5.77251,-2093.76 L -5.62881,-2093.53 L -5.51465,-2093.29 L -5.43178,-2093.03
 L -5.38153,-2092.77 L -5.3647,-2092.5 L -5.38153,-2092.23 L -5.43178,-2091.97 L -5.51465,-2091.71 L -5.62881,-2091.47
 L -5.77251,-2091.24 L -5.94344,-2091.04 L -6.1389,-2090.85 L -6.35585,-2090.7 L -6.59084,-2090.57 L -6.84015,-2090.47
 L -7.09988,-2090.4 L -7.36592,-2090.37 z
M 7.36592,-2090.37 L 7.09988,-2090.4 L 6.84015,-2090.47 L 6.59084,-2090.57 L 6.35585,-2090.7 L 6.1389,-2090.85
 L 5.94344,-2091.04 L 5.77251,-2091.24 L 5.62881,-2091.47 L 5.51465,-2091.71 L 5.43178,-2091.97 L 5.38153,-2092.23
 L 5.3647,-2092.5 L 5.38153,-2092.77 L 5.43178,-2093.03 L 5.51465,-2093.29 L 5.62881,-2093.53 L 5.77251,-2093.76
 L 5.94344,-2093.96 L 6.1389,-2094.15 L 6.35585,-2094.3 L 6.59084,-2094.43 L 6.84015,-2094.53 L 7.09988,-2094.6
 L 7.36592,-2094.63 L 7.63406,-2094.63 L 7.9001,-2094.6 L 8.15984,-2094.53 L 8.40915,-2094.43 L 8.64413,-2094.3
 L 8.86108,-2094.15 L 9.05655,-2093.96 L 9.22748,-2093.76 L 9.37117,-2093.53 L 9.48534,-2093.29 L 9.56821,-2093.03
 L 9.61845,-2092.77 L 9.63528,-2092.5 L 9.61845,-2092.23 L 9.56821,-2091.97 L 9.48534,-2091.71 L 9.37117,-2091.47
 L 9.22748,-2091.24 L 9.05655,-2091.04 L 8.86108,-2090.85 L 8.64413,-2090.7 L 8.40915,-2090.57 L 8.15984,-2090.47
 L 7.9001,-2090.4 L 7.63406,-2090.37 z
" stroke="black" fill="lightgray" stroke-width="0.5"/>
</svg>
