<?xml version="1.0" standalone="no"?>
<!DOCTYPE svg PUBLIC "-//W3C//DTD SVG 1.1//EN" "http://www.w3.org/Graphics/SVG/1.1/DTD/svg11.dtd">
<svg width="120mm" height="1026mm" viewBox="-60 -2031 120 1026" xmlns="http://www.w3.org/2000/svg" version="1.1">
<title>OpenSCAD Model</title>
<path d="
M 55.9369,-1971.09 L 56.5451,-1971.24 L 57.1289,-1971.48 L 57.6791,-1971.78 L 58.1871,-1972.15 L 58.6448,-1972.58
 L 59.0451,-1973.06 L 59.3815,-1973.59 L 59.6489,-1974.16 L 59.8429,-1974.76 L 59.9606,-1975.37 L 60,-1976
 L 60,-2026 L 59.9606,-2026.63 L 59.8429,-2027.24 L 59.6489,-2027.84 L 59.3815,-2028.41 L 59.0451,-2028.94
 L 58.6448,-2029.42 L 58.1871,-2029.85 L 57.6791,-2030.22 L 57.1289,-2030.52 L 56.5451,-2030.76 L 55.9369,-2030.91
 L 55.3139,-2030.99 L -55.3139,-2030.99 L -55.9369,-2030.91 L -56.5451,-2030.76 L -57.1289,-2030.52 L -57.6791,-2030.22
 L -58.1871,-2029.85 L -58.6448,-2029.42 L -59.0451,-2028.94 L -59.3815,-2028.41 L -59.6489,-2027.84 L -59.8429,-2027.24
 L -59.9606,-2026.63 L -60,-2026 L -60,-1976 L -59.9606,-1975.37 L -59.8429,-1974.76 L -59.6489,-1974.16
 L -59.3815,-1973.59 L -59.0451,-1973.06 L -58.6448,-1972.58 L -58.1871,-1972.15 L -57.6791,-1971.78 L -57.1289,-1971.48
 L -56.5451,-1971.24 L -55.9369,-1971.09 L -55.3139,-1971.01 L 55.3139,-1971.01 z
M -54.7512,-1972.51 L -55.2495,-1972.57 L -55.7361,-1972.7 L -56.2031,-1972.88 L -56.6433,-1973.12 L -57.0497,-1973.42
 L -57.4159,-1973.76 L -57.7361,-1974.15 L -58.0052,-1974.57 L -58.2191,-1975.03 L -58.3743,-1975.51 L -58.4685,-1976
 L -58.5,-1976.5 L -58.5,-2025.5 L -58.4685,-2026 L -58.3743,-2026.49 L -58.2191,-2026.97 L -58.0052,-2027.43
 L -57.7361,-2027.85 L -57.4159,-2028.24 L -57.0497,-2028.58 L -56.6433,-2028.88 L -56.2031,-2029.12 L -55.7361,-2029.3
 L -55.2495,-2029.43 L -54.7512,-2029.49 L 54.7512,-2029.49 L 55.2495,-2029.43 L 55.7361,-2029.3 L 56.2031,-2029.12
 L 56.6433,-2028.88 L 57.0497,-2028.58 L 57.4159,-2028.24 L 57.7361,-2027.85 L 58.0052,-2027.43 L 58.2191,-2026.97
 L 58.3743,-2026.49 L 58.4685,-2026 L 58.5,-2025.5 L 58.5,-1976.5 L 58.4685,-1976 L 58.3743,-1975.51
 L 58.2191,-1975.03 L 58.0052,-1974.57 L 57.7361,-1974.15 L 57.4159,-1973.76 L 57.0497,-1973.42 L 56.6433,-1973.12
 L 56.2031,-1972.88 L 55.7361,-1972.7 L 55.2495,-1972.57 L 54.7512,-1972.51 z
M 55.9369,-1902.09 L 56.5451,-1902.24 L 57.1289,-1902.48 L 57.6791,-1902.78 L 58.1871,-1903.15 L 58.6448,-1903.58
 L 59.0451,-1904.06 L 59.3815,-1904.59 L 59.6489,-1905.16 L 59.8429,-1905.76 L 59.9606,-1906.37 L 60,-1907
 L 60,-1957 L 59.9606,-1957.63 L 59.8429,-1958.24 L 59.6489,-1958.84 L 59.3815,-1959.41 L 59.0451,-1959.94
 L 58.6448,-1960.42 L 58.1871,-1960.85 L 57.6791,-1961.22 L 57.1289,-1961.52 L 56.5451,-1961.76 L 55.9369,-1961.91
 L 55.3139,-1961.99 L -55.3139,-1961.99 L -55.9369,-1961.91 L -56.5451,-1961.76 L -57.1289,-1961.52 L -57.6791,-1961.22
 L -58.1871,-1960.85 L -58.6448,-1960.42 L -59.0451,-1959.94 L -59.3815,-1959.41 L -59.6489,-1958.84 L -59.8429,-1958.24
 L -59.9606,-1957.63 L -60,-1957 L -60,-1907 L -59.9606,-1906.37 L -59.8429,-1905.76 L -59.6489,-1905.16
 L -59.3815,-1904.59 L -59.0451,-1904.06 L -58.6448,-1903.58 L -58.1871,-1903.15 L -57.6791,-1902.78 L -57.1289,-1902.48
 L -56.5451,-1902.24 L -55.9369,-1902.09 L -55.3139,-1902.01 L 55.3139,-1902.01 z
M -54.7512,-1903.51 L -55.2495,-1903.57 L -55.7361,-1903.7 L -56.2031,-1903.88 L -56.6433,-1904.12 L -57.0497,-1904.42
 L -57.4159,-1904.76 L -57.7361,-1905.15 L -58.0052,-1905.57 L -58.2191,-1906.03 L -58.3743,-1906.51 L -58.4685,-1907
 L -58.5,-1907.5 L -58.5,-1956.5 L -58.4685,-1957 L -58.3743,-1957.49 L -58.2191,-1957.97 L -58.0052,-1958.43
 L -57.7361,-1958.85 L -57.4159,-1959.24 L -57.0497,-1959.58 L -56.6433,-1959.88 L -56.2031,-1960.12 L -55.7361,-1960.3
 L -55.2495,-1960.43 L -54.7512,-1960.49 L 54.7512,-1960.49 L 55.2495,-1960.43 L 55.7361,-1960.3 L 56.2031,-1960.12
 L 56.6433,-1959.88 L 57.0497,-1959.58 L 57.4159,-1959.24 L 57.7361,-1958.85 L 58.0052,-1958.43 L 58.2191,-1957.97
 L 58.3743,-1957.49 L 58.4685,-1957 L 58.5,-1956.5 L 58.5,-1907.5 L 58.4685,-1907 L 58.3743,-1906.51
 L 58.2191,-1906.03 L 58.0052,-1905.57 L 57.7361,-1905.15 L 57.4159,-1904.76 L 57.0497,-1904.42 L 56.6433,-1904.12
 L 56.2031,-1903.88 L 55.7361,-1903.7 L 55.2495,-1903.57 L 54.7512,-1903.51 z
M 55.9369,-1833.09 L 56.5451,-1833.24 L 57.1289,-1833.48 L 57.6791,-1833.78 L 58.1871,-1834.15 L 58.6448,-1834.58
 L 59.0451,-1835.06 L 59.3815,-1835.59 L 59.6489,-1836.16 L 59.8429,-1836.76 L 59.9606,-1837.37 L 60,-1838
 L 60,-1888 L 59.9606,-1888.63 L 59.8429,-1889.24 L 59.6489,-1889.84 L 59.3815,-1890.41 L 59.0451,-1890.94
 L 58.6448,-1891.42 L 58.1871,-1891.85 L 57.6791,-1892.22 L 57.1289,-1892.52 L 56.5451,-1892.76 L 55.9369,-1892.91
 L 55.3139,-1892.99 L -55.3139,-1892.99 L -55.9369,-1892.91 L -56.5451,-1892.76 L -57.1289,-1892.52 L -57.6791,-1892.22
 L -58.1871,-1891.85 L -58.6448,-1891.42 L -59.0451,-1890.94 L -59.3815,-1890.41 L -59.6489,-1889.84 L -59.8429,-1889.24
 L -59.9606,-1888.63 L -60,-1888 L -60,-1838 L -59.9606,-1837.37 L -59.8429,-1836.76 L -59.6489,-1836.16
 L -59.3815,-1835.59 L -59.0451,-1835.06 L -58.6448,-1834.58 L -58.1871,-1834.15 L -57.6791,-1833.78 L -57.1289,-1833.48
 L -56.5451,-1833.24 L -55.9369,-1833.09 L -55.3139,-1833.01 L 55.3139,-1833.01 z
M -54.7512,-1834.51 L -55.2495,-1834.57 L -55.7361,-1834.7 L -56.2031,-1834.88 L -56.6433,-1835.12 L -57.0497,-1835.42
 L -57.4159,-1835.76 L -57.7361,-1836.15 L -58.0052,-1836.57 L -58.2191,-1837.03 L -58.3743,-1837.51 L -58.4685,-1838
 L -58.5,-1838.5 L -58.5,-1887.5 L -58.4685,-1888 L -58.3743,-1888.49 L -58.2191,-1888.97 L -58.0052,-1889.43
 L -57.7361,-1889.85 L -57.4159,-1890.24 L -57.0497,-1890.58 L -56.6433,-1890.88 L -56.2031,-1891.12 L -55.7361,-1891.3
 L -55.2495,-1891.43 L -54.7512,-1891.49 L 54.7512,-1891.49 L 55.2495,-1891.43 L 55.7361,-1891.3 L 56.2031,-1891.12
 L 56.6433,-1890.88 L 57.0497,-1890.58 L 57.4159,-1890.24 L 57.7361,-1889.85 L 58.0052,-1889.43 L 58.2191,-1888.97
 L 58.3743,-1888.49 L 58.4685,-1888 L 58.5,-1887.5 L 58.5,-1838.5 L 58.4685,-1838 L 58.3743,-1837.51
 L 58.2191,-1837.03 L 58.0052,-1836.57 L 57.7361,-1836.15 L 57.4159,-1835.76 L 57.0497,-1835.42 L 56.6433,-1835.12
 L 56.2031,-1834.88 L 55.7361,-1834.7 L 55.2495,-1834.57 L 54.7512,-1834.51 z
M 55.9369,-1764.09 L 56.5451,-1764.24 L 57.1289,-1764.48 L 57.6791,-1764.78 L 58.1871,-1765.15 L 58.6448,-1765.58
 L 59.0451,-1766.06 L 59.3815,-1766.59 L 59.6489,-1767.16 L 59.8429,-1767.76 L 59.9606,-1768.37 L 60,-1769
 L 60,-1819 L 59.9606,-1819.63 L 59.8429,-1820.24 L 59.6489,-1820.84 L 59.3815,-1821.41 L 59.0451,-1821.94
 L 58.6448,-1822.42 L 58.1871,-1822.85 L 57.6791,-1823.22 L 57.1289,-1823.52 L 56.5451,-1823.76 L 55.9369,-1823.91
 L 55.3139,-1823.99 L -55.3139,-1823.99 L -55.9369,-1823.91 L -56.5451,-1823.76 L -57.1289,-1823.52 L -57.6791,-1823.22
 L -58.1871,-1822.85 L -58.6448,-1822.42 L -59.0451,-1821.94 L -59.3815,-1821.41 L -59.6489,-1820.84 L -59.8429,-1820.24
 L -59.9606,-1819.63 L -60,-1819 L -60,-1769 L -59.9606,-1768.37 L -59.8429,-1767.76 L -59.6489,-1767.16
 L -59.3815,-1766.59 L -59.0451,-1766.06 L -58.6448,-1765.58 L -58.1871,-1765.15 L -57.6791,-1764.78 L -57.1289,-1764.48
 L -56.5451,-1764.24 L -55.9369,-1764.09 L -55.3139,-1764.01 L 55.3139,-1764.01 z
M -54.7512,-1765.51 L -55.2495,-1765.57 L -55.7361,-1765.7 L -56.2031,-1765.88 L -56.6433,-1766.12 L -57.0497,-1766.42
 L -57.4159,-1766.76 L -57.7361,-1767.15 L -58.0052,-1767.57 L -58.2191,-1768.03 L -58.3743,-1768.51 L -58.4685,-1769
 L -58.5,-1769.5 L -58.5,-1818.5 L -58.4685,-1819 L -58.3743,-1819.49 L -58.2191,-1819.97 L -58.0052,-1820.43
 L -57.7361,-1820.85 L -57.4159,-1821.24 L -57.0497,-1821.58 L -56.6433,-1821.88 L -56.2031,-1822.12 L -55.7361,-1822.3
 L -55.2495,-1822.43 L -54.7512,-1822.49 L 54.7512,-1822.49 L 55.2495,-1822.43 L 55.7361,-1822.3 L 56.2031,-1822.12
 L 56.6433,-1821.88 L 57.0497,-1821.58 L 57.4159,-1821.24 L 57.7361,-1820.85 L 58.0052,-1820.43 L 58.2191,-1819.97
 L 58.3743,-1819.49 L 58.4685,-1819 L 58.5,-1818.5 L 58.5,-1769.5 L 58.4685,-1769 L 58.3743,-1768.51
 L 58.2191,-1768.03 L 58.0052,-1767.57 L 57.7361,-1767.15 L 57.4159,-1766.76 L 57.0497,-1766.42 L 56.6433,-1766.12
 L 56.2031,-1765.88 L 55.7361,-1765.7 L 55.2495,-1765.57 L 54.7512,-1765.51 z
M 55.9369,-1695.09 L 56.5451,-1695.24 L 57.1289,-1695.48 L 57.6791,-1695.78 L 58.1871,-1696.15 L 58.6448,-1696.58
 L 59.0451,-1697.06 L 59.3815,-1697.59 L 59.6489,-1698.16 L 59.8429,-1698.76 L 59.9606,-1699.37 L 60,-1700
 L 60,-1750 L 59.9606,-1750.63 L 59.8429,-1751.24 L 59.6489,-1751.84 L 59.3815,-1752.41 L 59.0451,-1752.94
 L 58.6448,-1753.42 L 58.1871,-1753.85 L 57.6791,-1754.22 L 57.1289,-1754.52 L 56.5451,-1754.76 L 55.9369,-1754.91
 L 55.3139,-1754.99 L -55.3139,-1754.99 L -55.9369,-1754.91 L -56.5451,-1754.76 L -57.1289,-1754.52 L -57.6791,-1754.22
 L -58.1871,-1753.85 L -58.6448,-1753.42 L -59.0451,-1752.94 L -59.3815,-1752.41 L -59.6489,-1751.84 L -59.8429,-1751.24
 L -59.9606,-1750.63 L -60,-1750 L -60,-1700 L -59.9606,-1699.37 L -59.8429,-1698.76 L -59.6489,-1698.16
 L -59.3815,-1697.59 L -59.0451,-1697.06 L -58.6448,-1696.58 L -58.1871,-1696.15 L -57.6791,-1695.78 L -57.1289,-1695.48
 L -56.5451,-1695.24 L -55.9369,-1695.09 L -55.3139,-1695.01 L 55.3139,-1695.01 z
M -54.7512,-1696.51 L -55.2495,-1696.57 L -55.7361,-1696.7 L -56.2031,-1696.88 L -56.6433,-1697.12 L -57.0497,-1697.42
 L -57.4159,-1697.76 L -57.7361,-1698.15 L -58.0052,-1698.57 L -58.2191,-1699.03 L -58.3743,-1699.51 L -58.4685,-1700
 L -58.5,-1700.5 L -58.5,-1749.5 L -58.4685,-1750 L -58.3743,-1750.49 L -58.2191,-1750.97 L -58.0052,-1751.43
 L -57.7361,-1751.85 L -57.4159,-1752.24 L -57.0497,-1752.58 L -56.6433,-1752.88 L -56.2031,-1753.12 L -55.7361,-1753.3
 L -55.2495,-1753.43 L -54.7512,-1753.49 L 54.7512,-1753.49 L 55.2495,-1753.43 L 55.7361,-1753.3 L 56.2031,-1753.12
 L 56.6433,-1752.88 L 57.0497,-1752.58 L 57.4159,-1752.24 L 57.7361,-1751.85 L 58.0052,-1751.43 L 58.2191,-1750.97
 L 58.3743,-1750.49 L 58.4685,-1750 L 58.5,-1749.5 L 58.5,-1700.5 L 58.4685,-1700 L 58.3743,-1699.51
 L 58.2191,-1699.03 L 58.0052,-1698.57 L 57.7361,-1698.15 L 57.4159,-1697.76 L 57.0497,-1697.42 L 56.6433,-1697.12
 L 56.2031,-1696.88 L 55.7361,-1696.7 L 55.2495,-1696.57 L 54.7512,-1696.51 z
M 55.9369,-1626.09 L 56.5451,-1626.24 L 57.1289,-1626.48 L 57.6791,-1626.78 L 58.1871,-1627.15 L 58.6448,-1627.58
 L 59.0451,-1628.06 L 59.3815,-1628.59 L 59.6489,-1629.16 L 59.8429,-1629.76 L 59.9606,-1630.37 L 60,-1631
 L 60,-1681 L 59.9606,-1681.63 L 59.8429,-1682.24 L 59.6489,-1682.84 L 59.3815,-1683.41 L 59.0451,-1683.94
 L 58.6448,-1684.42 L 58.1871,-1684.85 L 57.6791,-1685.22 L 57.1289,-1685.52 L 56.5451,-1685.76 L 55.9369,-1685.91
 L 55.3139,-1685.99 L -55.3139,-1685.99 L -55.9369,-1685.91 L -56.5451,-1685.76 L -57.1289,-1685.52 L -57.6791,-1685.22
 L -58.1871,-1684.85 L -58.6448,-1684.42 L -59.0451,-1683.94 L -59.3815,-1683.41 L -59.6489,-1682.84 L -59.8429,-1682.24
 L -59.9606,-1681.63 L -60,-1681 L -60,-1631 L -59.9606,-1630.37 L -59.8429,-1629.76 L -59.6489,-1629.16
 L -59.3815,-1628.59 L -59.0451,-1628.06 L -58.6448,-1627.58 L -58.1871,-1627.15 L -57.6791,-1626.78 L -57.1289,-1626.48
 L -56.5451,-1626.24 L -55.9369,-1626.09 L -55.3139,-1626.01 L 55.3139,-1626.01 z
M -54.7512,-1627.51 L -55.2495,-1627.57 L -55.7361,-1627.7 L -56.2031,-1627.88 L -56.6433,-1628.12 L -57.0497,-1628.42
 L -57.4159,-1628.76 L -57.7361,-1629.15 L -58.0052,-1629.57 L -58.2191,-1630.03 L -58.3743,-1630.51 L -58.4685,-1631
 L -58.5,-1631.5 L -58.5,-1680.5 L -58.4685,-1681 L -58.3743,-1681.49 L -58.2191,-1681.97 L -58.0052,-1682.43
 L -57.7361,-1682.85 L -57.4159,-1683.24 L -57.0497,-1683.58 L -56.6433,-1683.88 L -56.2031,-1684.12 L -55.7361,-1684.3
 L -55.2495,-1684.43 L -54.7512,-1684.49 L 54.7512,-1684.49 L 55.2495,-1684.43 L 55.7361,-1684.3 L 56.2031,-1684.12
 L 56.6433,-1683.88 L 57.0497,-1683.58 L 57.4159,-1683.24 L 57.7361,-1682.85 L 58.0052,-1682.43 L 58.2191,-1681.97
 L 58.3743,-1681.49 L 58.4685,-1681 L 58.5,-1680.5 L 58.5,-1631.5 L 58.4685,-1631 L 58.3743,-1630.51
 L 58.2191,-1630.03 L 58.0052,-1629.57 L 57.7361,-1629.15 L 57.4159,-1628.76 L 57.0497,-1628.42 L 56.6433,-1628.12
 L 56.2031,-1627.88 L 55.7361,-1627.7 L 55.2495,-1627.57 L 54.7512,-1627.51 z
M 55.9369,-1557.09 L 56.5451,-1557.24 L 57.1289,-1557.48 L 57.6791,-1557.78 L 58.1871,-1558.15 L 58.6448,-1558.58
 L 59.0451,-1559.06 L 59.3815,-1559.59 L 59.6489,-1560.16 L 59.8429,-1560.76 L 59.9606,-1561.37 L 60,-1562
 L 60,-1612 L 59.9606,-1612.63 L 59.8429,-1613.24 L 59.6489,-1613.84 L 59.3815,-1614.41 L 59.0451,-1614.94
 L 58.6448,-1615.42 L 58.1871,-1615.85 L 57.6791,-1616.22 L 57.1289,-1616.52 L 56.5451,-1616.76 L 55.9369,-1616.91
 L 55.3139,-1616.99 L -55.3139,-1616.99 L -55.9369,-1616.91 L -56.5451,-1616.76 L -57.1289,-1616.52 L -57.6791,-1616.22
 L -58.1871,-1615.85 L -58.6448,-1615.42 L -59.0451,-1614.94 L -59.3815,-1614.41 L -59.6489,-1613.84 L -59.8429,-1613.24
 L -59.9606,-1612.63 L -60,-1612 L -60,-1562 L -59.9606,-1561.37 L -59.8429,-1560.76 L -59.6489,-1560.16
 L -59.3815,-1559.59 L -59.0451,-1559.06 L -58.6448,-1558.58 L -58.1871,-1558.15 L -57.6791,-1557.78 L -57.1289,-1557.48
 L -56.5451,-1557.24 L -55.9369,-1557.09 L -55.3139,-1557.01 L 55.3139,-1557.01 z
M -54.7512,-1558.51 L -55.2495,-1558.57 L -55.7361,-1558.7 L -56.2031,-1558.88 L -56.6433,-1559.12 L -57.0497,-1559.42
 L -57.4159,-1559.76 L -57.7361,-1560.15 L -58.0052,-1560.57 L -58.2191,-1561.03 L -58.3743,-1561.51 L -58.4685,-1562
 L -58.5,-1562.5 L -58.5,-1611.5 L -58.4685,-1612 L -58.3743,-1612.49 L -58.2191,-1612.97 L -58.0052,-1613.43
 L -57.7361,-1613.85 L -57.4159,-1614.24 L -57.0497,-1614.58 L -56.6433,-1614.88 L -56.2031,-1615.12 L -55.7361,-1615.3
 L -55.2495,-1615.43 L -54.7512,-1615.49 L 54.7512,-1615.49 L 55.2495,-1615.43 L 55.7361,-1615.3 L 56.2031,-1615.12
 L 56.6433,-1614.88 L 57.0497,-1614.58 L 57.4159,-1614.24 L 57.7361,-1613.85 L 58.0052,-1613.43 L 58.2191,-1612.97
 L 58.3743,-1612.49 L 58.4685,-1612 L 58.5,-1611.5 L 58.5,-1562.5 L 58.4685,-1562 L 58.3743,-1561.51
 L 58.2191,-1561.03 L 58.0052,-1560.57 L 57.7361,-1560.15 L 57.4159,-1559.76 L 57.0497,-1559.42 L 56.6433,-1559.12
 L 56.2031,-1558.88 L 55.7361,-1558.7 L 55.2495,-1558.57 L 54.7512,-1558.51 z
M 55.9369,-1488.09 L 56.5451,-1488.24 L 57.1289,-1488.48 L 57.6791,-1488.78 L 58.1871,-1489.15 L 58.6448,-1489.58
 L 59.0451,-1490.06 L 59.3815,-1490.59 L 59.6489,-1491.16 L 59.8429,-1491.76 L 59.9606,-1492.37 L 60,-1493
 L 60,-1543 L 59.9606,-1543.63 L 59.8429,-1544.24 L 59.6489,-1544.84 L 59.3815,-1545.41 L 59.0451,-1545.94
 L 58.6448,-1546.42 L 58.1871,-1546.85 L 57.6791,-1547.22 L 57.1289,-1547.52 L 56.5451,-1547.76 L 55.9369,-1547.91
 L 55.3139,-1547.99 L -55.3139,-1547.99 L -55.9369,-1547.91 L -56.5451,-1547.76 L -57.1289,-1547.52 L -57.6791,-1547.22
 L -58.1871,-1546.85 L -58.6448,-1546.42 L -59.0451,-1545.94 L -59.3815,-1545.41 L -59.6489,-1544.84 L -59.8429,-1544.24
 L -59.9606,-1543.63 L -60,-1543 L -60,-1493 L -59.9606,-1492.37 L -59.8429,-1491.76 L -59.6489,-1491.16
 L -59.3815,-1490.59 L -59.0451,-1490.06 L -58.6448,-1489.58 L -58.1871,-1489.15 L -57.6791,-1488.78 L -57.1289,-1488.48
 L -56.5451,-1488.24 L -55.9369,-1488.09 L -55.3139,-1488.01 L 55.3139,-1488.01 z
M -54.7512,-1489.51 L -55.2495,-1489.57 L -55.7361,-1489.7 L -56.2031,-1489.88 L -56.6433,-1490.12 L -57.0497,-1490.42
 L -57.4159,-1490.76 L -57.7361,-1491.15 L -58.0052,-1491.57 L -58.2191,-1492.03 L -58.3743,-1492.51 L -58.4685,-1493
 L -58.5,-1493.5 L -58.5,-1542.5 L -58.4685,-1543 L -58.3743,-1543.49 L -58.2191,-1543.97 L -58.0052,-1544.43
 L -57.7361,-1544.85 L -57.4159,-1545.24 L -57.0497,-1545.58 L -56.6433,-1545.88 L -56.2031,-1546.12 L -55.7361,-1546.3
 L -55.2495,-1546.43 L -54.7512,-1546.49 L 54.7512,-1546.49 L 55.2495,-1546.43 L 55.7361,-1546.3 L 56.2031,-1546.12
 L 56.6433,-1545.88 L 57.0497,-1545.58 L 57.4159,-1545.24 L 57.7361,-1544.85 L 58.0052,-1544.43 L 58.2191,-1543.97
 L 58.3743,-1543.49 L 58.4685,-1543 L 58.5,-1542.5 L 58.5,-1493.5 L 58.4685,-1493 L 58.3743,-1492.51
 L 58.2191,-1492.03 L 58.0052,-1491.57 L 57.7361,-1491.15 L 57.4159,-1490.76 L 57.0497,-1490.42 L 56.6433,-1490.12
 L 56.2031,-1489.88 L 55.7361,-1489.7 L 55.2495,-1489.57 L 54.7512,-1489.51 z
M 55.9369,-1419.09 L 56.5451,-1419.24 L 57.1289,-1419.48 L 57.6791,-1419.78 L 58.1871,-1420.15 L 58.6448,-1420.58
 L 59.0451,-1421.06 L 59.3815,-1421.59 L 59.6489,-1422.16 L 59.8429,-1422.76 L 59.9606,-1423.37 L 60,-1424
 L 60,-1474 L 59.9606,-1474.63 L 59.8429,-1475.24 L 59.6489,-1475.84 L 59.3815,-1476.41 L 59.0451,-1476.94
 L 58.6448,-1477.42 L 58.1871,-1477.85 L 57.6791,-1478.22 L 57.1289,-1478.52 L 56.5451,-1478.76 L 55.9369,-1478.91
 L 55.3139,-1478.99 L -55.3139,-1478.99 L -55.9369,-1478.91 L -56.5451,-1478.76 L -57.1289,-1478.52 L -57.6791,-1478.22
 L -58.1871,-1477.85 L -58.6448,-1477.42 L -59.0451,-1476.94 L -59.3815,-1476.41 L -59.6489,-1475.84 L -59.8429,-1475.24
 L -59.9606,-1474.63 L -60,-1474 L -60,-1424 L -59.9606,-1423.37 L -59.8429,-1422.76 L -59.6489,-1422.16
 L -59.3815,-1421.59 L -59.0451,-1421.06 L -58.6448,-1420.58 L -58.1871,-1420.15 L -57.6791,-1419.78 L -57.1289,-1419.48
 L -56.5451,-1419.24 L -55.9369,-1419.09 L -55.3139,-1419.01 L 55.3139,-1419.01 z
M -54.7512,-1420.51 L -55.2495,-1420.57 L -55.7361,-1420.7 L -56.2031,-1420.88 L -56.6433,-1421.12 L -57.0497,-1421.42
 L -57.4159,-1421.76 L -57.7361,-1422.15 L -58.0052,-1422.57 L -58.2191,-1423.03 L -58.3743,-1423.51 L -58.4685,-1424
 L -58.5,-1424.5 L -58.5,-1473.5 L -58.4685,-1474 L -58.3743,-1474.49 L -58.2191,-1474.97 L -58.0052,-1475.43
 L -57.7361,-1475.85 L -57.4159,-1476.24 L -57.0497,-1476.58 L -56.6433,-1476.88 L -56.2031,-1477.12 L -55.7361,-1477.3
 L -55.2495,-1477.43 L -54.7512,-1477.49 L 54.7512,-1477.49 L 55.2495,-1477.43 L 55.7361,-1477.3 L 56.2031,-1477.12
 L 56.6433,-1476.88 L 57.0497,-1476.58 L 57.4159,-1476.24 L 57.7361,-1475.85 L 58.0052,-1475.43 L 58.2191,-1474.97
 L 58.3743,-1474.49 L 58.4685,-1474 L 58.5,-1473.5 L 58.5,-1424.5 L 58.4685,-1424 L 58.3743,-1423.51
 L 58.2191,-1423.03 L 58.0052,-1422.57 L 57.7361,-1422.15 L 57.4159,-1421.76 L 57.0497,-1421.42 L 56.6433,-1421.12
 L 56.2031,-1420.88 L 55.7361,-1420.7 L 55.2495,-1420.57 L 54.7512,-1420.51 z
M 55.9369,-1350.09 L 56.5451,-1350.24 L 57.1289,-1350.48 L 57.6791,-1350.78 L 58.1871,-1351.15 L 58.6448,-1351.58
 L 59.0451,-1352.06 L 59.3815,-1352.59 L 59.6489,-1353.16 L 59.8429,-1353.76 L 59.9606,-1354.37 L 60,-1355
 L 60,-1405 L 59.9606,-1405.63 L 59.8429,-1406.24 L 59.6489,-1406.84 L 59.3815,-1407.41 L 59.0451,-1407.94
 L 58.6448,-1408.42 L 58.1871,-1408.85 L 57.6791,-1409.22 L 57.1289,-1409.52 L 56.5451,-1409.76 L 55.9369,-1409.91
 L 55.3139,-1409.99 L -55.3139,-1409.99 L -55.9369,-1409.91 L -56.5451,-1409.76 L -57.1289,-1409.52 L -57.6791,-1409.22
 L -58.1871,-1408.85 L -58.6448,-1408.42 L -59.0451,-1407.94 L -59.3815,-1407.41 L -59.6489,-1406.84 L -59.8429,-1406.24
 L -59.9606,-1405.63 L -60,-1405 L -60,-1355 L -59.9606,-1354.37 L -59.8429,-1353.76 L -59.6489,-1353.16
 L -59.3815,-1352.59 L -59.0451,-1352.06 L -58.6448,-1351.58 L -58.1871,-1351.15 L -57.6791,-1350.78 L -57.1289,-1350.48
 L -56.5451,-1350.24 L -55.9369,-1350.09 L -55.3139,-1350.01 L 55.3139,-1350.01 z
M -54.7512,-1351.51 L -55.2495,-1351.57 L -55.7361,-1351.7 L -56.2031,-1351.88 L -56.6433,-1352.12 L -57.0497,-1352.42
 L -57.4159,-1352.76 L -57.7361,-1353.15 L -58.0052,-1353.57 L -58.2191,-1354.03 L -58.3743,-1354.51 L -58.4685,-1355
 L -58.5,-1355.5 L -58.5,-1404.5 L -58.4685,-1405 L -58.3743,-1405.49 L -58.2191,-1405.97 L -58.0052,-1406.43
 L -57.7361,-1406.85 L -57.4159,-1407.24 L -57.0497,-1407.58 L -56.6433,-1407.88 L -56.2031,-1408.12 L -55.7361,-1408.3
 L -55.2495,-1408.43 L -54.7512,-1408.49 L 54.7512,-1408.49 L 55.2495,-1408.43 L 55.7361,-1408.3 L 56.2031,-1408.12
 L 56.6433,-1407.88 L 57.0497,-1407.58 L 57.4159,-1407.24 L 57.7361,-1406.85 L 58.0052,-1406.43 L 58.2191,-1405.97
 L 58.3743,-1405.49 L 58.4685,-1405 L 58.5,-1404.5 L 58.5,-1355.5 L 58.4685,-1355 L 58.3743,-1354.51
 L 58.2191,-1354.03 L 58.0052,-1353.57 L 57.7361,-1353.15 L 57.4159,-1352.76 L 57.0497,-1352.42 L 56.6433,-1352.12
 L 56.2031,-1351.88 L 55.7361,-1351.7 L 55.2495,-1351.57 L 54.7512,-1351.51 z
M 55.9369,-1281.09 L 56.5451,-1281.24 L 57.1289,-1281.48 L 57.6791,-1281.78 L 58.1871,-1282.15 L 58.6448,-1282.58
 L 59.0451,-1283.06 L 59.3815,-1283.59 L 59.6489,-1284.16 L 59.8429,-1284.76 L 59.9606,-1285.37 L 60,-1286
 L 60,-1336 L 59.9606,-1336.63 L 59.8429,-1337.24 L 59.6489,-1337.84 L 59.3815,-1338.41 L 59.0451,-1338.94
 L 58.6448,-1339.42 L 58.1871,-1339.85 L 57.6791,-1340.22 L 57.1289,-1340.52 L 56.5451,-1340.76 L 55.9369,-1340.91
 L 55.3139,-1340.99 L -55.3139,-1340.99 L -55.9369,-1340.91 L -56.5451,-1340.76 L -57.1289,-1340.52 L -57.6791,-1340.22
 L -58.1871,-1339.85 L -58.6448,-1339.42 L -59.0451,-1338.94 L -59.3815,-1338.41 L -59.6489,-1337.84 L -59.8429,-1337.24
 L -59.9606,-1336.63 L -60,-1336 L -60,-1286 L -59.9606,-1285.37 L -59.8429,-1284.76 L -59.6489,-1284.16
 L -59.3815,-1283.59 L -59.0451,-1283.06 L -58.6448,-1282.58 L -58.1871,-1282.15 L -57.6791,-1281.78 L -57.1289,-1281.48
 L -56.5451,-1281.24 L -55.9369,-1281.09 L -55.3139,-1281.01 L 55.3139,-1281.01 z
M -54.7512,-1282.51 L -55.2495,-1282.57 L -55.7361,-1282.7 L -56.2031,-1282.88 L -56.6433,-1283.12 L -57.0497,-1283.42
 L -57.4159,-1283.76 L -57.7361,-1284.15 L -58.0052,-1284.57 L -58.2191,-1285.03 L -58.3743,-1285.51 L -58.4685,-1286
 L -58.5,-1286.5 L -58.5,-1335.5 L -58.4685,-1336 L -58.3743,-1336.49 L -58.2191,-1336.97 L -58.0052,-1337.43
 L -57.7361,-1337.85 L -57.4159,-1338.24 L -57.0497,-1338.58 L -56.6433,-1338.88 L -56.2031,-1339.12 L -55.7361,-1339.3
 L -55.2495,-1339.43 L -54.7512,-1339.49 L 54.7512,-1339.49 L 55.2495,-1339.43 L 55.7361,-1339.3 L 56.2031,-1339.12
 L 56.6433,-1338.88 L 57.0497,-1338.58 L 57.4159,-1338.24 L 57.7361,-1337.85 L 58.0052,-1337.43 L 58.2191,-1336.97
 L 58.3743,-1336.49 L 58.4685,-1336 L 58.5,-1335.5 L 58.5,-1286.5 L 58.4685,-1286 L 58.3743,-1285.51
 L 58.2191,-1285.03 L 58.0052,-1284.57 L 57.7361,-1284.15 L 57.4159,-1283.76 L 57.0497,-1283.42 L 56.6433,-1283.12
 L 56.2031,-1282.88 L 55.7361,-1282.7 L 55.2495,-1282.57 L 54.7512,-1282.51 z
M 55.9369,-1212.09 L 56.5451,-1212.24 L 57.1289,-1212.48 L 57.6791,-1212.78 L 58.1871,-1213.15 L 58.6448,-1213.58
 L 59.0451,-1214.06 L 59.3815,-1214.59 L 59.6489,-1215.16 L 59.8429,-1215.76 L 59.9606,-1216.37 L 60,-1217
 L 60,-1267 L 59.9606,-1267.63 L 59.8429,-1268.24 L 59.6489,-1268.84 L 59.3815,-1269.41 L 59.0451,-1269.94
 L 58.6448,-1270.42 L 58.1871,-1270.85 L 57.6791,-1271.22 L 57.1289,-1271.52 L 56.5451,-1271.76 L 55.9369,-1271.91
 L 55.3139,-1271.99 L -55.3139,-1271.99 L -55.9369,-1271.91 L -56.5451,-1271.76 L -57.1289,-1271.52 L -57.6791,-1271.22
 L -58.1871,-1270.85 L -58.6448,-1270.42 L -59.0451,-1269.94 L -59.3815,-1269.41 L -59.6489,-1268.84 L -59.8429,-1268.24
 L -59.9606,-1267.63 L -60,-1267 L -60,-1217 L -59.9606,-1216.37 L -59.8429,-1215.76 L -59.6489,-1215.16
 L -59.3815,-1214.59 L -59.0451,-1214.06 L -58.6448,-1213.58 L -58.1871,-1213.15 L -57.6791,-1212.78 L -57.1289,-1212.48
 L -56.5451,-1212.24 L -55.9369,-1212.09 L -55.3139,-1212.01 L 55.3139,-1212.01 z
M -54.7512,-1213.51 L -55.2495,-1213.57 L -55.7361,-1213.7 L -56.2031,-1213.88 L -56.6433,-1214.12 L -57.0497,-1214.42
 L -57.4159,-1214.76 L -57.7361,-1215.15 L -58.0052,-1215.57 L -58.2191,-1216.03 L -58.3743,-1216.51 L -58.4685,-1217
 L -58.5,-1217.5 L -58.5,-1266.5 L -58.4685,-1267 L -58.3743,-1267.49 L -58.2191,-1267.97 L -58.0052,-1268.43
 L -57.7361,-1268.85 L -57.4159,-1269.24 L -57.0497,-1269.58 L -56.6433,-1269.88 L -56.2031,-1270.12 L -55.7361,-1270.3
 L -55.2495,-1270.43 L -54.7512,-1270.49 L 54.7512,-1270.49 L 55.2495,-1270.43 L 55.7361,-1270.3 L 56.2031,-1270.12
 L 56.6433,-1269.88 L 57.0497,-1269.58 L 57.4159,-1269.24 L 57.7361,-1268.85 L 58.0052,-1268.43 L 58.2191,-1267.97
 L 58.3743,-1267.49 L 58.4685,-1267 L 58.5,-1266.5 L 58.5,-1217.5 L 58.4685,-1217 L 58.3743,-1216.51
 L 58.2191,-1216.03 L 58.0052,-1215.57 L 57.7361,-1215.15 L 57.4159,-1214.76 L 57.0497,-1214.42 L 56.6433,-1214.12
 L 56.2031,-1213.88 L 55.7361,-1213.7 L 55.2495,-1213.57 L 54.7512,-1213.51 z
M 55.9369,-1143.09 L 56.5451,-1143.24 L 57.1289,-1143.48 L 57.6791,-1143.78 L 58.1871,-1144.15 L 58.6448,-1144.58
 L 59.0451,-1145.06 L 59.3815,-1145.59 L 59.6489,-1146.16 L 59.8429,-1146.76 L 59.9606,-1147.37 L 60,-1148
 L 60,-1198 L 59.9606,-1198.63 L 59.8429,-1199.24 L 59.6489,-1199.84 L 59.3815,-1200.41 L 59.0451,-1200.94
 L 58.6448,-1201.42 L 58.1871,-1201.85 L 57.6791,-1202.22 L 57.1289,-1202.52 L 56.5451,-1202.76 L 55.9369,-1202.91
 L 55.3139,-1202.99 L -55.3139,-1202.99 L -55.9369,-1202.91 L -56.5451,-1202.76 L -57.1289,-1202.52 L -57.6791,-1202.22
 L -58.1871,-1201.85 L -58.6448,-1201.42 L -59.0451,-1200.94 L -59.3815,-1200.41 L -59.6489,-1199.84 L -59.8429,-1199.24
 L -59.9606,-1198.63 L -60,-1198 L -60,-1148 L -59.9606,-1147.37 L -59.8429,-1146.76 L -59.6489,-1146.16
 L -59.3815,-1145.59 L -59.0451,-1145.06 L -58.6448,-1144.58 L -58.1871,-1144.15 L -57.6791,-1143.78 L -57.1289,-1143.48
 L -56.5451,-1143.24 L -55.9369,-1143.09 L -55.3139,-1143.01 L 55.3139,-1143.01 z
M -54.7512,-1144.51 L -55.2495,-1144.57 L -55.7361,-1144.7 L -56.2031,-1144.88 L -56.6433,-1145.12 L -57.0497,-1145.42
 L -57.4159,-1145.76 L -57.7361,-1146.15 L -58.0052,-1146.57 L -58.2191,-1147.03 L -58.3743,-1147.51 L -58.4685,-1148
 L -58.5,-1148.5 L -58.5,-1197.5 L -58.4685,-1198 L -58.3743,-1198.49 L -58.2191,-1198.97 L -58.0052,-1199.43
 L -57.7361,-1199.85 L -57.4159,-1200.24 L -57.0497,-1200.58 L -56.6433,-1200.88 L -56.2031,-1201.12 L -55.7361,-1201.3
 L -55.2495,-1201.43 L -54.7512,-1201.49 L 54.7512,-1201.49 L 55.2495,-1201.43 L 55.7361,-1201.3 L 56.2031,-1201.12
 L 56.6433,-1200.88 L 57.0497,-1200.58 L 57.4159,-1200.24 L 57.7361,-1199.85 L 58.0052,-1199.43 L 58.2191,-1198.97
 L 58.3743,-1198.49 L 58.4685,-1198 L 58.5,-1197.5 L 58.5,-1148.5 L 58.4685,-1148 L 58.3743,-1147.51
 L 58.2191,-1147.03 L 58.0052,-1146.57 L 57.7361,-1146.15 L 57.4159,-1145.76 L 57.0497,-1145.42 L 56.6433,-1145.12
 L 56.2031,-1144.88 L 55.7361,-1144.7 L 55.2495,-1144.57 L 54.7512,-1144.51 z
M 55.9369,-1074.09 L 56.5451,-1074.24 L 57.1289,-1074.48 L 57.6791,-1074.78 L 58.1871,-1075.15 L 58.6448,-1075.58
 L 59.0451,-1076.06 L 59.3815,-1076.59 L 59.6489,-1077.16 L 59.8429,-1077.76 L 59.9606,-1078.37 L 60,-1079
 L 60,-1129 L 59.9606,-1129.63 L 59.8429,-1130.24 L 59.6489,-1130.84 L 59.3815,-1131.41 L 59.0451,-1131.94
 L 58.6448,-1132.42 L 58.1871,-1132.85 L 57.6791,-1133.22 L 57.1289,-1133.52 L 56.5451,-1133.76 L 55.9369,-1133.91
 L 55.3139,-1133.99 L -55.3139,-1133.99 L -55.9369,-1133.91 L -56.5451,-1133.76 L -57.1289,-1133.52 L -57.6791,-1133.22
 L -58.1871,-1132.85 L -58.6448,-1132.42 L -59.0451,-1131.94 L -59.3815,-1131.41 L -59.6489,-1130.84 L -59.8429,-1130.24
 L -59.9606,-1129.63 L -60,-1129 L -60,-1079 L -59.9606,-1078.37 L -59.8429,-1077.76 L -59.6489,-1077.16
 L -59.3815,-1076.59 L -59.0451,-1076.06 L -58.6448,-1075.58 L -58.1871,-1075.15 L -57.6791,-1074.78 L -57.1289,-1074.48
 L -56.5451,-1074.24 L -55.9369,-1074.09 L -55.3139,-1074.01 L 55.3139,-1074.01 z
M -54.6954,-1076.39 L -55.0833,-1076.44 L -55.4619,-1076.54 L -55.8254,-1076.68 L -56.168,-1076.87 L -56.4842,-1077.1
 L -56.7692,-1077.37 L -57.0184,-1077.67 L -57.2279,-1078 L -57.3943,-1078.35 L -57.5151,-1078.73 L -57.5884,-1079.11
 L -57.6129,-1079.5 L -57.6129,-1128.5 L -57.5884,-1128.89 L -57.5151,-1129.27 L -57.3943,-1129.65 L -57.2279,-1130
 L -57.0184,-1130.33 L -56.7692,-1130.63 L -56.4842,-1130.9 L -56.168,-1131.13 L -55.8254,-1131.32 L -55.4619,-1131.46
 L -55.0833,-1131.56 L -54.6954,-1131.61 L 54.6954,-1131.61 L 55.0833,-1131.56 L 55.4619,-1131.46 L 55.8254,-1131.32
 L 56.168,-1131.13 L 56.4842,-1130.9 L 56.7692,-1130.63 L 57.0184,-1130.33 L 57.2279,-1130 L 57.3943,-1129.65
 L 57.5151,-1129.27 L 57.5884,-1128.89 L 57.6129,-1128.5 L 57.6129,-1079.5 L 57.5884,-1079.11 L 57.5151,-1078.73
 L 57.3943,-1078.35 L 57.2279,-1078 L 57.0184,-1077.67 L 56.7692,-1077.37 L 56.4842,-1077.1 L 56.168,-1076.87
 L 55.8254,-1076.68 L 55.4619,-1076.54 L 55.0833,-1076.44 L 54.6954,-1076.39 z
M 55.9369,-1005.09 L 56.5451,-1005.24 L 57.1289,-1005.48 L 57.6791,-1005.78 L 58.1871,-1006.15 L 58.6448,-1006.58
 L 59.0451,-1007.06 L 59.3815,-1007.59 L 59.6489,-1008.16 L 59.8429,-1008.76 L 59.9606,-1009.37 L 60,-1010
 L 60,-1060 L 59.9606,-1060.63 L 59.8429,-1061.24 L 59.6489,-1061.84 L 59.3815,-1062.41 L 59.0451,-1062.94
 L 58.6448,-1063.42 L 58.1871,-1063.85 L 57.6791,-1064.22 L 57.1289,-1064.52 L 56.5451,-1064.76 L 55.9369,-1064.91
 L 55.3139,-1064.99 L -55.3139,-1064.99 L -55.9369,-1064.91 L -56.5451,-1064.76 L -57.1289,-1064.52 L -57.6791,-1064.22
 L -58.1871,-1063.85 L -58.6448,-1063.42 L -59.0451,-1062.94 L -59.3815,-1062.41 L -59.6489,-1061.84 L -59.8429,-1061.24
 L -59.9606,-1060.63 L -60,-1060 L -60,-1010 L -59.9606,-1009.37 L -59.8429,-1008.76 L -59.6489,-1008.16
 L -59.3815,-1007.59 L -59.0451,-1007.06 L -58.6448,-1006.58 L -58.1871,-1006.15 L -57.6791,-1005.78 L -57.1289,-1005.48
 L -56.5451,-1005.24 L -55.9369,-1005.09 L -55.3139,-1005.01 L 55.3139,-1005.01 z
M -52.6341,-1055.37 L -52.9001,-1055.4 L -53.1598,-1055.47 L -53.4092,-1055.57 L -53.6441,-1055.7 L -53.8611,-1055.85
 L -54.0565,-1056.04 L -54.2275,-1056.24 L -54.3712,-1056.47 L -54.4853,-1056.71 L -54.5682,-1056.97 L -54.6185,-1057.23
 L -54.6353,-1057.5 L -54.6185,-1057.77 L -54.5682,-1058.03 L -54.4853,-1058.29 L -54.3712,-1058.53 L -54.2275,-1058.76
 L -54.0565,-1058.96 L -53.8611,-1059.15 L -53.6441,-1059.3 L -53.4092,-1059.43 L -53.1598,-1059.53 L -52.9001,-1059.6
 L -52.6341,-1059.63 L -52.3659,-1059.63 L -52.0999,-1059.6 L -51.8401,-1059.53 L -51.5908,-1059.43 L -51.3559,-1059.3
 L -51.1389,-1059.15 L -50.9434,-1058.96 L -50.7725,-1058.76 L -50.6288,-1058.53 L -50.5146,-1058.29 L -50.4318,-1058.03
 L -50.3815,-1057.77 L -50.3647,-1057.5 L -50.3815,-1057.23 L -50.4318,-1056.97 L -50.5146,-1056.71 L -50.6288,-1056.47
 L -50.7725,-1056.24 L -50.9434,-1056.04 L -51.1389,-1055.85 L -51.3559,-1055.7 L -51.5908,-1055.57 L -51.8401,-1055.47
 L -52.0999,-1055.4 L -52.3659,-1055.37 z
M 52.3659,-1055.37 L 52.0999,-1055.4 L 51.8401,-1055.47 L 51.5908,-1055.57 L 51.3559,-1055.7 L 51.1389,-1055.85
 L 50.9434,-1056.04 L 50.7725,-1056.24 L 50.6288,-1056.47 L 50.5146,-1056.71 L 50.4318,-1056.97 L 50.3815,-1057.23
 L 50.3647,-1057.5 L 50.3815,-1057.77 L 50.4318,-1058.03 L 50.5146,-1058.29 L 50.6288,-1058.53 L 50.7725,-1058.76
 L 50.9434,-1058.96 L 51.1389,-1059.15 L 51.3559,-1059.3 L 51.5908,-1059.43 L 51.8401,-1059.53 L 52.0999,-1059.6
 L 52.3659,-1059.63 L 52.6341,-1059.63 L 52.9001,-1059.6 L 53.1598,-1059.53 L 53.4092,-1059.43 L 53.6441,-1059.3
 L 53.8611,-1059.15 L 54.0565,-1058.96 L 54.2275,-1058.76 L 54.3712,-1058.53 L 54.4853,-1058.29 L 54.5682,-1058.03
 L 54.6185,-1057.77 L 54.6353,-1057.5 L 54.6185,-1057.23 L 54.5682,-1056.97 L 54.4853,-1056.71 L 54.3712,-1056.47
 L 54.2275,-1056.24 L 54.0565,-1056.04 L 53.8611,-1055.85 L 53.6441,-1055.7 L 53.4092,-1055.57 L 53.1598,-1055.47
 L 52.9001,-1055.4 L 52.6341,-1055.37 z
M -52.6341,-1010.37 L -52.9001,-1010.4 L -53.1598,-1010.47 L -53.4092,-1010.57 L -53.6441,-1010.7 L -53.8611,-1010.85
 L -54.0565,-1011.04 L -54.2275,-1011.24 L -54.3712,-1011.47 L -54.4853,-1011.71 L -54.5682,-1011.97 L -54.6185,-1012.23
 L -54.6353,-1012.5 L -54.6185,-1012.77 L -54.5682,-1013.03 L -54.4853,-1013.29 L -54.3712,-1013.53 L -54.2275,-1013.76
 L -54.0565,-1013.96 L -53.8611,-1014.15 L -53.6441,-1014.3 L -53.4092,-1014.43 L -53.1598,-1014.53 L -52.9001,-1014.6
 L -52.6341,-1014.63 L -52.3659,-1014.63 L -52.0999,-1014.6 L -51.8401,-1014.53 L -51.5908,-1014.43 L -51.3559,-1014.3
 L -51.1389,-1014.15 L -50.9434,-1013.96 L -50.7725,-1013.76 L -50.6288,-1013.53 L -50.5146,-1013.29 L -50.4318,-1013.03
 L -50.3815,-1012.77 L -50.3647,-1012.5 L -50.3815,-1012.23 L -50.4318,-1011.97 L -50.5146,-1011.71 L -50.6288,-1011.47
 L -50.7725,-1011.24 L -50.9434,-1011.04 L -51.1389,-1010.85 L -51.3559,-1010.7 L -51.5908,-1010.57 L -51.8401,-1010.47
 L -52.0999,-1010.4 L -52.3659,-1010.37 z
M 52.3659,-1010.37 L 52.0999,-1010.4 L 51.8401,-1010.47 L 51.5908,-1010.57 L 51.3559,-1010.7 L 51.1389,-1010.85
 L 50.9434,-1011.04 L 50.7725,-1011.24 L 50.6288,-1011.47 L 50.5146,-1011.71 L 50.4318,-1011.97 L 50.3815,-1012.23
 L 50.3647,-1012.5 L 50.3815,-1012.77 L 50.4318,-1013.03 L 50.5146,-1013.29 L 50.6288,-1013.53 L 50.7725,-1013.76
 L 50.9434,-1013.96 L 51.1389,-1014.15 L 51.3559,-1014.3 L 51.5908,-1014.43 L 51.8401,-1014.53 L 52.0999,-1014.6
 L 52.3659,-1014.63 L 52.6341,-1014.63 L 52.9001,-1014.6 L 53.1598,-1014.53 L 53.4092,-1014.43 L 53.6441,-1014.3
 L 53.8611,-1014.15 L 54.0565,-1013.96 L 54.2275,-1013.76 L 54.3712,-1013.53 L 54.4853,-1013.29 L 54.5682,-1013.03
 L 54.6185,-1012.77 L 54.6353,-1012.5 L 54.6185,-1012.23 L 54.5682,-1011.97 L 54.4853,-1011.71 L 54.3712,-1011.47
 L 54.2275,-1011.24 L 54.0565,-1011.04 L 53.8611,-1010.85 L 53.6441,-1010.7 L 53.4092,-1010.57 L 53.1598,-1010.47
 L 52.9001,-1010.4 L 52.6341,-1010.37 z
" stroke="black" fill="lightgray" stroke-width="0.5"/>
</svg>
