<?xml version="1.0" standalone="no"?>
<!DOCTYPE svg PUBLIC "-//W3C//DTD SVG 1.1//EN" "http://www.w3.org/Graphics/SVG/1.1/DTD/svg11.dtd">
<svg width="150mm" height="688mm" viewBox="-75 -1127 150 688" xmlns="http://www.w3.org/2000/svg" version="1.1">
<title>OpenSCAD Model</title>
<path d="
M 70.9369,-961.589 L 71.5451,-961.745 L 72.1289,-961.976 L 72.6791,-962.278 L 73.1871,-962.647 L 73.6448,-963.077
 L 74.0451,-963.561 L 74.3815,-964.091 L 74.6489,-964.659 L 74.8429,-965.257 L 74.9606,-965.873 L 75,-966.5
 L 75,-1121.5 L 74.9606,-1122.13 L 74.8429,-1122.74 L 74.6489,-1123.34 L 74.3815,-1123.91 L 74.0451,-1124.44
 L 73.6448,-1124.92 L 73.1871,-1125.35 L 72.6791,-1125.72 L 72.1289,-1126.02 L 71.5451,-1126.26 L 70.9369,-1126.41
 L 70.3139,-1126.49 L -70.3139,-1126.49 L -70.9369,-1126.41 L -71.5451,-1126.26 L -72,-1126.08 L -72,-1126.11
 L -75,-1126.11 L -75,-961.885 L -72,-961.885 L -72,-961.925 L -71.5451,-961.745 L -70.9369,-961.589
 L -70.3139,-961.51 L 70.3139,-961.51 z
M -69.7512,-963.008 L -70.2495,-963.071 L -70.7361,-963.196 L -71.2031,-963.381 L -71.6433,-963.623 L -72.0497,-963.918
 L -72.4159,-964.262 L -72.7361,-964.649 L -73.0052,-965.073 L -73.2191,-965.528 L -73.3743,-966.005 L -73.4685,-966.499
 L -73.5,-967 L -73.5,-1121 L -73.4685,-1121.5 L -73.3743,-1121.99 L -73.2191,-1122.47 L -73.0052,-1122.93
 L -72.7361,-1123.35 L -72.4159,-1123.74 L -72.0497,-1124.08 L -71.6433,-1124.38 L -71.2031,-1124.62 L -70.7361,-1124.8
 L -70.2495,-1124.93 L -69.7512,-1124.99 L 69.7512,-1124.99 L 70.2495,-1124.93 L 70.7361,-1124.8 L 71.2031,-1124.62
 L 71.6433,-1124.38 L 72.0497,-1124.08 L 72.4159,-1123.74 L 72.7361,-1123.35 L 73.0052,-1122.93 L 73.2191,-1122.47
 L 73.3743,-1121.99 L 73.4685,-1121.5 L 73.5,-1121 L 73.5,-967 L 73.4685,-966.499 L 73.3743,-966.005
 L 73.2191,-965.528 L 73.0052,-965.073 L 72.7361,-964.649 L 72.4159,-964.262 L 72.0497,-963.918 L 71.6433,-963.623
 L 71.2031,-963.381 L 70.7361,-963.196 L 70.2495,-963.071 L 69.7512,-963.008 z
M 70.9369,-787.589 L 71.5451,-787.745 L 72.1289,-787.976 L 72.6791,-788.278 L 73.1871,-788.647 L 73.6448,-789.077
 L 74.0451,-789.561 L 74.3815,-790.091 L 74.6489,-790.659 L 74.8429,-791.257 L 74.9606,-791.873 L 75,-792.5
 L 75,-947.5 L 74.9606,-948.127 L 74.8429,-948.743 L 74.6489,-949.341 L 74.3815,-949.909 L 74.0451,-950.439
 L 73.6448,-950.923 L 73.1871,-951.353 L 72.6791,-951.722 L 72.1289,-952.024 L 71.5451,-952.255 L 70.9369,-952.411
 L 70.3139,-952.49 L -70.3139,-952.49 L -70.9369,-952.411 L -71.5451,-952.255 L -72.1289,-952.024 L -72.6791,-951.722
 L -73.1871,-951.353 L -73.6448,-950.923 L -74.0451,-950.439 L -74.3815,-949.909 L -74.6489,-949.341 L -74.8429,-948.743
 L -74.9,-948.444 L -75,-948.444 L -75,-791.556 L -74.9,-791.556 L -74.8429,-791.257 L -74.6489,-790.659
 L -74.3815,-790.091 L -74.0451,-789.561 L -73.6448,-789.077 L -73.1871,-788.647 L -72.6791,-788.278 L -72.1289,-787.976
 L -71.5451,-787.745 L -70.9369,-787.589 L -70.3139,-787.51 L 70.3139,-787.51 z
M -69.7432,-789.135 L -70.2256,-789.196 L -70.6967,-789.317 L -71.1489,-789.496 L -71.5751,-789.73 L -71.9685,-790.016
 L -72.323,-790.349 L -72.633,-790.724 L -72.8936,-791.134 L -73.1007,-791.574 L -73.251,-792.037 L -73.3421,-792.515
 L -73.3726,-793 L -73.3726,-947 L -73.3421,-947.485 L -73.251,-947.963 L -73.1007,-948.426 L -72.8936,-948.866
 L -72.633,-949.276 L -72.323,-949.651 L -71.9685,-949.984 L -71.5751,-950.27 L -71.1489,-950.504 L -70.6967,-950.683
 L -70.2256,-950.804 L -69.7432,-950.865 L 69.7432,-950.865 L 70.2256,-950.804 L 70.6967,-950.683 L 71.1489,-950.504
 L 71.5751,-950.27 L 71.9685,-949.984 L 72.323,-949.651 L 72.633,-949.276 L 72.8936,-948.866 L 73.1007,-948.426
 L 73.251,-947.963 L 73.3421,-947.485 L 73.3726,-947 L 73.3726,-793 L 73.3421,-792.515 L 73.251,-792.037
 L 73.1007,-791.574 L 72.8936,-791.134 L 72.633,-790.724 L 72.323,-790.349 L 71.9685,-790.016 L 71.5751,-789.73
 L 71.1489,-789.496 L 70.6967,-789.317 L 70.2256,-789.196 L 69.7432,-789.135 z
M 70.9369,-613.589 L 71.5451,-613.745 L 72.1289,-613.976 L 72.6791,-614.278 L 73.1871,-614.647 L 73.6448,-615.077
 L 74.0451,-615.561 L 74.3815,-616.091 L 74.6489,-616.659 L 74.8429,-617.257 L 74.9606,-617.873 L 75,-618.5
 L 75,-773.5 L 74.9606,-774.127 L 74.8429,-774.743 L 74.6489,-775.341 L 74.3815,-775.909 L 74.0451,-776.439
 L 73.6448,-776.923 L 73.1871,-777.353 L 72.6791,-777.722 L 72.1289,-778.024 L 71.5451,-778.255 L 70.9369,-778.411
 L 70.3139,-778.49 L -70.3139,-778.49 L -70.9369,-778.411 L -71.5451,-778.255 L -72.1289,-778.024 L -72.6791,-777.722
 L -73.1871,-777.353 L -73.6448,-776.923 L -74.0451,-776.439 L -74.3815,-775.909 L -74.6489,-775.341 L -74.8429,-774.743
 L -74.9606,-774.127 L -75,-773.5 L -75,-618.5 L -74.9606,-617.873 L -74.8429,-617.257 L -74.6489,-616.659
 L -74.3815,-616.091 L -74.0451,-615.561 L -73.6448,-615.077 L -73.1871,-614.647 L -72.6791,-614.278 L -72.1289,-613.976
 L -71.5451,-613.745 L -70.9369,-613.589 L -70.3139,-613.51 L 70.3139,-613.51 z
M 67.3493,-768.605 L 67.0503,-768.643 L 66.7584,-768.717 L 66.4781,-768.828 L 66.214,-768.974 L 65.9702,-769.151
 L 65.7505,-769.357 L 65.5583,-769.589 L 65.3969,-769.844 L 65.2685,-770.117 L 65.1754,-770.403 L 65.1189,-770.699
 L 65.1,-771 L 65.1189,-771.301 L 65.1754,-771.597 L 65.2685,-771.883 L 65.3969,-772.156 L 65.5583,-772.411
 L 65.7505,-772.643 L 65.9702,-772.849 L 66.214,-773.026 L 66.4781,-773.172 L 66.7584,-773.283 L 67.0503,-773.357
 L 67.3493,-773.395 L 67.6507,-773.395 L 67.9497,-773.357 L 68.2416,-773.283 L 68.5219,-773.172 L 68.786,-773.026
 L 69.0298,-772.849 L 69.2495,-772.643 L 69.4416,-772.411 L 69.6031,-772.156 L 69.7315,-771.883 L 69.8246,-771.597
 L 69.8811,-771.301 L 69.9,-771 L 69.8811,-770.699 L 69.8246,-770.403 L 69.7315,-770.117 L 69.6031,-769.844
 L 69.4416,-769.589 L 69.2495,-769.357 L 69.0298,-769.151 L 68.786,-768.974 L 68.5219,-768.828 L 68.2416,-768.717
 L 67.9497,-768.643 L 67.6507,-768.605 z
M -67.6507,-768.605 L -67.9497,-768.643 L -68.2416,-768.717 L -68.5219,-768.828 L -68.786,-768.974 L -69.0298,-769.151
 L -69.2495,-769.357 L -69.4416,-769.589 L -69.6031,-769.844 L -69.7315,-770.117 L -69.8246,-770.403 L -69.8811,-770.699
 L -69.9,-771 L -69.8811,-771.301 L -69.8246,-771.597 L -69.7315,-771.883 L -69.6031,-772.156 L -69.4416,-772.411
 L -69.2495,-772.643 L -69.0298,-772.849 L -68.786,-773.026 L -68.5219,-773.172 L -68.2416,-773.283 L -67.9497,-773.357
 L -67.6507,-773.395 L -67.3493,-773.395 L -67.0503,-773.357 L -66.7584,-773.283 L -66.4781,-773.172 L -66.214,-773.026
 L -65.9702,-772.849 L -65.7505,-772.643 L -65.5583,-772.411 L -65.3969,-772.156 L -65.2685,-771.883 L -65.1754,-771.597
 L -65.1189,-771.301 L -65.1,-771 L -65.1189,-770.699 L -65.1754,-770.403 L -65.2685,-770.117 L -65.3969,-769.844
 L -65.5583,-769.589 L -65.7505,-769.357 L -65.9702,-769.151 L -66.214,-768.974 L -66.4781,-768.828 L -66.7584,-768.717
 L -67.0503,-768.643 L -67.3493,-768.605 z
M 67.3493,-618.605 L 67.0503,-618.643 L 66.7584,-618.717 L 66.4781,-618.828 L 66.214,-618.974 L 65.9702,-619.151
 L 65.7505,-619.357 L 65.5583,-619.589 L 65.3969,-619.844 L 65.2685,-620.117 L 65.1754,-620.403 L 65.1189,-620.699
 L 65.1,-621 L 65.1189,-621.301 L 65.1754,-621.597 L 65.2685,-621.883 L 65.3969,-622.156 L 65.5583,-622.411
 L 65.7505,-622.643 L 65.9702,-622.849 L 66.214,-623.026 L 66.4781,-623.172 L 66.7584,-623.283 L 67.0503,-623.357
 L 67.3493,-623.395 L 67.6507,-623.395 L 67.9497,-623.357 L 68.2416,-623.283 L 68.5219,-623.172 L 68.786,-623.026
 L 69.0298,-622.849 L 69.2495,-622.643 L 69.4416,-622.411 L 69.6031,-622.156 L 69.7315,-621.883 L 69.8246,-621.597
 L 69.8811,-621.301 L 69.9,-621 L 69.8811,-620.699 L 69.8246,-620.403 L 69.7315,-620.117 L 69.6031,-619.844
 L 69.4416,-619.589 L 69.2495,-619.357 L 69.0298,-619.151 L 68.786,-618.974 L 68.5219,-618.828 L 68.2416,-618.717
 L 67.9497,-618.643 L 67.6507,-618.605 z
M -67.6507,-618.605 L -67.9497,-618.643 L -68.2416,-618.717 L -68.5219,-618.828 L -68.786,-618.974 L -69.0298,-619.151
 L -69.2495,-619.357 L -69.4416,-619.589 L -69.6031,-619.844 L -69.7315,-620.117 L -69.8246,-620.403 L -69.8811,-620.699
 L -69.9,-621 L -69.8811,-621.301 L -69.8246,-621.597 L -69.7315,-621.883 L -69.6031,-622.156 L -69.4416,-622.411
 L -69.2495,-622.643 L -69.0298,-622.849 L -68.786,-623.026 L -68.5219,-623.172 L -68.2416,-623.283 L -67.9497,-623.357
 L -67.6507,-623.395 L -67.3493,-623.395 L -67.0503,-623.357 L -66.7584,-623.283 L -66.4781,-623.172 L -66.214,-623.026
 L -65.9702,-622.849 L -65.7505,-622.643 L -65.5583,-622.411 L -65.3969,-622.156 L -65.2685,-621.883 L -65.1754,-621.597
 L -65.1189,-621.301 L -65.1,-621 L -65.1189,-620.699 L -65.1754,-620.403 L -65.2685,-620.117 L -65.3969,-619.844
 L -65.5583,-619.589 L -65.7505,-619.357 L -65.9702,-619.151 L -66.214,-618.974 L -66.4781,-618.828 L -66.7584,-618.717
 L -67.0503,-618.643 L -67.3493,-618.605 z
M 70.9369,-439.589 L 71.5451,-439.745 L 72.1289,-439.976 L 72.6791,-440.278 L 73.1871,-440.647 L 73.6448,-441.077
 L 74.0451,-441.561 L 74.3815,-442.091 L 74.6489,-442.659 L 74.8429,-443.257 L 74.9606,-443.873 L 75,-444.5
 L 75,-599.5 L 74.9606,-600.127 L 74.8429,-600.743 L 74.6489,-601.341 L 74.3815,-601.909 L 74.0451,-602.439
 L 73.6448,-602.923 L 73.1871,-603.353 L 72.6791,-603.722 L 72.1289,-604.024 L 71.5451,-604.255 L 70.9369,-604.411
 L 70.3139,-604.49 L -70.3139,-604.49 L -70.9369,-604.411 L -71.5451,-604.255 L -72.1289,-604.024 L -72.6791,-603.722
 L -73.1871,-603.353 L -73.6448,-602.923 L -74.0451,-602.439 L -74.3815,-601.909 L -74.6489,-601.341 L -74.8429,-600.743
 L -74.9606,-600.127 L -75,-599.5 L -75,-444.5 L -74.9606,-443.873 L -74.8429,-443.257 L -74.6489,-442.659
 L -74.3815,-442.091 L -74.0451,-441.561 L -73.6448,-441.077 L -73.1871,-440.647 L -72.6791,-440.278 L -72.1289,-439.976
 L -71.5451,-439.745 L -70.9369,-439.589 L -70.3139,-439.51 L 70.3139,-439.51 z
M 67.387,-595.204 L 67.1627,-595.232 L 66.9438,-595.288 L 66.7336,-595.371 L 66.5355,-595.48 L 66.3526,-595.613
 L 66.1879,-595.768 L 66.0438,-595.942 L 65.9226,-596.133 L 65.8264,-596.337 L 65.7565,-596.552 L 65.7142,-596.774
 L 65.7,-597 L 65.7142,-597.226 L 65.7565,-597.448 L 65.8264,-597.663 L 65.9226,-597.867 L 66.0438,-598.058
 L 66.1879,-598.232 L 66.3526,-598.387 L 66.5355,-598.52 L 66.7336,-598.629 L 66.9438,-598.712 L 67.1627,-598.768
 L 67.387,-598.796 L 67.613,-598.796 L 67.8373,-598.768 L 68.0562,-598.712 L 68.2664,-598.629 L 68.4645,-598.52
 L 68.6474,-598.387 L 68.8121,-598.232 L 68.9562,-598.058 L 69.0773,-597.867 L 69.1736,-597.663 L 69.2434,-597.448
 L 69.2858,-597.226 L 69.3,-597 L 69.2858,-596.774 L 69.2434,-596.552 L 69.1736,-596.337 L 69.0773,-596.133
 L 68.9562,-595.942 L 68.8121,-595.768 L 68.6474,-595.613 L 68.4645,-595.48 L 68.2664,-595.371 L 68.0562,-595.288
 L 67.8373,-595.232 L 67.613,-595.204 z
M -67.613,-595.204 L -67.8373,-595.232 L -68.0562,-595.288 L -68.2664,-595.371 L -68.4645,-595.48 L -68.6474,-595.613
 L -68.8121,-595.768 L -68.9562,-595.942 L -69.0773,-596.133 L -69.1736,-596.337 L -69.2434,-596.552 L -69.2858,-596.774
 L -69.3,-597 L -69.2858,-597.226 L -69.2434,-597.448 L -69.1736,-597.663 L -69.0773,-597.867 L -68.9562,-598.058
 L -68.8121,-598.232 L -68.6474,-598.387 L -68.4645,-598.52 L -68.2664,-598.629 L -68.0562,-598.712 L -67.8373,-598.768
 L -67.613,-598.796 L -67.387,-598.796 L -67.1627,-598.768 L -66.9438,-598.712 L -66.7336,-598.629 L -66.5355,-598.52
 L -66.3526,-598.387 L -66.1879,-598.232 L -66.0438,-598.058 L -65.9226,-597.867 L -65.8264,-597.663 L -65.7565,-597.448
 L -65.7142,-597.226 L -65.7,-597 L -65.7142,-596.774 L -65.7565,-596.552 L -65.8264,-596.337 L -65.9226,-596.133
 L -66.0438,-595.942 L -66.1879,-595.768 L -66.3526,-595.613 L -66.5355,-595.48 L -66.7336,-595.371 L -66.9438,-595.288
 L -67.1627,-595.232 L -67.387,-595.204 z
M -67.613,-445.204 L -67.8373,-445.232 L -68.0562,-445.288 L -68.2664,-445.371 L -68.4645,-445.48 L -68.6474,-445.613
 L -68.8121,-445.768 L -68.9562,-445.942 L -69.0773,-446.133 L -69.1736,-446.337 L -69.2434,-446.552 L -69.2858,-446.774
 L -69.3,-447 L -69.2858,-447.226 L -69.2434,-447.448 L -69.1736,-447.663 L -69.0773,-447.867 L -68.9562,-448.058
 L -68.8121,-448.232 L -68.6474,-448.387 L -68.4645,-448.52 L -68.2664,-448.629 L -68.0562,-448.712 L -67.8373,-448.768
 L -67.613,-448.796 L -67.387,-448.796 L -67.1627,-448.768 L -66.9438,-448.712 L -66.7336,-448.629 L -66.5355,-448.52
 L -66.3526,-448.387 L -66.1879,-448.232 L -66.0438,-448.058 L -65.9226,-447.867 L -65.8264,-447.663 L -65.7565,-447.448
 L -65.7142,-447.226 L -65.7,-447 L -65.7142,-446.774 L -65.7565,-446.552 L -65.8264,-446.337 L -65.9226,-446.133
 L -66.0438,-445.942 L -66.1879,-445.768 L -66.3526,-445.613 L -66.5355,-445.48 L -66.7336,-445.371 L -66.9438,-445.288
 L -67.1627,-445.232 L -67.387,-445.204 z
M 67.387,-445.204 L 67.1627,-445.232 L 66.9438,-445.288 L 66.7336,-445.371 L 66.5355,-445.48 L 66.3526,-445.613
 L 66.1879,-445.768 L 66.0438,-445.942 L 65.9226,-446.133 L 65.8264,-446.337 L 65.7565,-446.552 L 65.7142,-446.774
 L 65.7,-447 L 65.7142,-447.226 L 65.7565,-447.448 L 65.8264,-447.663 L 65.9226,-447.867 L 66.0438,-448.058
 L 66.1879,-448.232 L 66.3526,-448.387 L 66.5355,-448.52 L 66.7336,-448.629 L 66.9438,-448.712 L 67.1627,-448.768
 L 67.387,-448.796 L 67.613,-448.796 L 67.8373,-448.768 L 68.0562,-448.712 L 68.2664,-448.629 L 68.4645,-448.52
 L 68.6474,-448.387 L 68.8121,-448.232 L 68.9562,-448.058 L 69.0773,-447.867 L 69.1736,-447.663 L 69.2434,-447.448
 L 69.2858,-447.226 L 69.3,-447 L 69.2858,-446.774 L 69.2434,-446.552 L 69.1736,-446.337 L 69.0773,-446.133
 L 68.9562,-445.942 L 68.8121,-445.768 L 68.6474,-445.613 L 68.4645,-445.48 L 68.2664,-445.371 L 68.0562,-445.288
 L 67.8373,-445.232 L 67.613,-445.204 z
" stroke="black" fill="lightgray" stroke-width="0.5"/>
</svg>
