  0
SECTION
  2
BLOCKS
  0
ENDSEC
  0
SECTION
  2
ENTITIES
  0
LINE
  8
0
 10
9.74728
 20
-189.227
 11
18.9002
 21
-188.025
  0
LINE
  8
0
 10
18.9002
 20
-188.025
 11
27.2982
 21
-186.022
  0
LINE
  8
0
 10
27.2982
 20
-186.022
 11
34.9413
 21
-183.218
  0
LINE
  8
0
 10
34.9413
 20
-183.218
 11
41.8295
 21
-179.613
  0
LINE
  8
0
 10
41.8295
 20
-179.613
 11
47.9629
 21
-175.206
  0
LINE
  8
0
 10
47.9629
 20
-175.206
 11
53.3414
 21
-169.999
  0
LINE
  8
0
 10
53.3414
 20
-169.999
 11
57.9853
 21
-163.964
  0
LINE
  8
0
 10
57.9853
 20
-163.964
 11
61.9147
 21
-157.075
  0
LINE
  8
0
 10
61.9147
 20
-157.075
 11
65.1297
 21
-149.334
  0
LINE
  8
0
 10
65.1297
 20
-149.334
 11
67.6302
 21
-140.739
  0
LINE
  8
0
 10
67.6302
 20
-140.739
 11
69.4163
 21
-131.291
  0
LINE
  8
0
 10
69.4163
 20
-131.291
 11
70.488
 21
-120.99
  0
LINE
  8
0
 10
70.488
 20
-120.99
 11
70.8452
 21
-109.836
  0
LINE
  8
0
 10
70.8452
 20
-109.836
 11
70.8452
 21
-6.99013
  0
LINE
  8
0
 10
70.8452
 20
-6.99013
 11
92.3139
 21
-6.99013
  0
LINE
  8
0
 10
92.3139
 20
-6.99013
 11
92.9369
 21
-6.91142
  0
LINE
  8
0
 10
92.9369
 20
-6.91142
 11
93.5451
 21
-6.75528
  0
LINE
  8
0
 10
93.5451
 20
-6.75528
 11
94.1289
 21
-6.52412
  0
LINE
  8
0
 10
94.1289
 20
-6.52412
 11
94.6791
 21
-6.22163
  0
LINE
  8
0
 10
94.6791
 20
-6.22163
 11
95.1871
 21
-5.85255
  0
LINE
  8
0
 10
95.1871
 20
-5.85255
 11
95.6448
 21
-5.42273
  0
LINE
  8
0
 10
95.6448
 20
-5.42273
 11
96.0451
 21
-4.93892
  0
LINE
  8
0
 10
96.0451
 20
-4.93892
 11
96.3815
 21
-4.40877
  0
LINE
  8
0
 10
96.3815
 20
-4.40877
 11
96.6489
 21
-3.84062
  0
LINE
  8
0
 10
96.6489
 20
-3.84062
 11
96.8429
 21
-3.24344
  0
LINE
  8
0
 10
96.8429
 20
-3.24344
 11
96.9606
 21
-2.62666
  0
LINE
  8
0
 10
96.9606
 20
-2.62666
 11
97
 21
-2
  0
LINE
  8
0
 10
97
 20
-2
 11
97
 21
2
  0
LINE
  8
0
 10
97
 20
2
 11
96.9606
 21
2.62666
  0
LINE
  8
0
 10
96.9606
 20
2.62666
 11
96.8429
 21
3.24344
  0
LINE
  8
0
 10
96.8429
 20
3.24344
 11
96.6489
 21
3.84062
  0
LINE
  8
0
 10
96.6489
 20
3.84062
 11
96.3815
 21
4.40877
  0
LINE
  8
0
 10
96.3815
 20
4.40877
 11
96.0451
 21
4.93892
  0
LINE
  8
0
 10
96.0451
 20
4.93892
 11
95.6448
 21
5.42273
  0
LINE
  8
0
 10
95.6448
 20
5.42273
 11
95.1871
 21
5.85255
  0
LINE
  8
0
 10
95.1871
 20
5.85255
 11
94.6791
 21
6.22163
  0
LINE
  8
0
 10
94.6791
 20
6.22163
 11
94.1289
 21
6.52412
  0
LINE
  8
0
 10
94.1289
 20
6.52412
 11
93.5451
 21
6.75528
  0
LINE
  8
0
 10
93.5451
 20
6.75528
 11
92.9369
 21
6.91142
  0
LINE
  8
0
 10
92.9369
 20
6.91142
 11
92.3139
 21
6.99013
  0
LINE
  8
0
 10
92.3139
 20
6.99013
 11
-92.3139
 21
6.99013
  0
LINE
  8
0
 10
-92.3139
 20
6.99013
 11
-92.9369
 21
6.91142
  0
LINE
  8
0
 10
-92.9369
 20
6.91142
 11
-93.5451
 21
6.75528
  0
LINE
  8
0
 10
-93.5451
 20
6.75528
 11
-94.1289
 21
6.52412
  0
LINE
  8
0
 10
-94.1289
 20
6.52412
 11
-94.6791
 21
6.22163
  0
LINE
  8
0
 10
-94.6791
 20
6.22163
 11
-95.1871
 21
5.85255
  0
LINE
  8
0
 10
-95.1871
 20
5.85255
 11
-95.6448
 21
5.42273
  0
LINE
  8
0
 10
-95.6448
 20
5.42273
 11
-96.0451
 21
4.93892
  0
LINE
  8
0
 10
-96.0451
 20
4.93892
 11
-96.3815
 21
4.40877
  0
LINE
  8
0
 10
-96.3815
 20
4.40877
 11
-96.6489
 21
3.84062
  0
LINE
  8
0
 10
-96.6489
 20
3.84062
 11
-96.8429
 21
3.24344
  0
LINE
  8
0
 10
-96.8429
 20
3.24344
 11
-96.9606
 21
2.62666
  0
LINE
  8
0
 10
-96.9606
 20
2.62666
 11
-97
 21
2
  0
LINE
  8
0
 10
-97
 20
2
 11
-97
 21
-2
  0
LINE
  8
0
 10
-97
 20
-2
 11
-96.9606
 21
-2.62666
  0
LINE
  8
0
 10
-96.9606
 20
-2.62666
 11
-96.8429
 21
-3.24344
  0
LINE
  8
0
 10
-96.8429
 20
-3.24344
 11
-96.6489
 21
-3.84062
  0
LINE
  8
0
 10
-96.6489
 20
-3.84062
 11
-96.3815
 21
-4.40877
  0
LINE
  8
0
 10
-96.3815
 20
-4.40877
 11
-96.0451
 21
-4.93892
  0
LINE
  8
0
 10
-96.0451
 20
-4.93892
 11
-95.6448
 21
-5.42273
  0
LINE
  8
0
 10
-95.6448
 20
-5.42273
 11
-95.1871
 21
-5.85255
  0
LINE
  8
0
 10
-95.1871
 20
-5.85255
 11
-94.6791
 21
-6.22163
  0
LINE
  8
0
 10
-94.6791
 20
-6.22163
 11
-94.1289
 21
-6.52412
  0
LINE
  8
0
 10
-94.1289
 20
-6.52412
 11
-93.5451
 21
-6.75528
  0
LINE
  8
0
 10
-93.5451
 20
-6.75528
 11
-92.9369
 21
-6.91142
  0
LINE
  8
0
 10
-92.9369
 20
-6.91142
 11
-92.3139
 21
-6.99013
  0
LINE
  8
0
 10
-92.3139
 20
-6.99013
 11
-66.7729
 21
-6.99013
  0
LINE
  8
0
 10
-66.7729
 20
-6.99013
 11
-66.7729
 21
-111.961
  0
LINE
  8
0
 10
-66.7729
 20
-111.961
 11
-66.449
 21
-122.877
  0
LINE
  8
0
 10
-66.449
 20
-122.877
 11
-65.4771
 21
-132.948
  0
LINE
  8
0
 10
-65.4771
 20
-132.948
 11
-63.8574
 21
-142.175
  0
LINE
  8
0
 10
-63.8574
 20
-142.175
 11
-61.5897
 21
-150.557
  0
LINE
  8
0
 10
-61.5897
 20
-150.557
 11
-58.6742
 21
-158.094
  0
LINE
  8
0
 10
-58.6742
 20
-158.094
 11
-55.1107
 21
-164.787
  0
LINE
  8
0
 10
-55.1107
 20
-164.787
 11
-50.8994
 21
-170.636
  0
LINE
  8
0
 10
-50.8994
 20
-170.636
 11
-45.9765
 21
-175.675
  0
LINE
  8
0
 10
-45.9765
 20
-175.675
 11
-40.2784
 21
-179.938
  0
LINE
  8
0
 10
-40.2784
 20
-179.938
 11
-33.8052
 21
-183.426
  0
LINE
  8
0
 10
-33.8052
 20
-183.426
 11
-26.5568
 21
-186.139
  0
LINE
  8
0
 10
-26.5568
 20
-186.139
 11
-18.5332
 21
-188.077
  0
LINE
  8
0
 10
-18.5332
 20
-188.077
 11
-9.73441
 21
-189.24
  0
LINE
  8
0
 10
-9.73441
 20
-189.24
 11
-0.160461
 21
-189.628
  0
LINE
  8
0
 10
-0.160461
 20
-189.628
 11
9.74728
 21
-189.227
  0
LINE
  8
0
 10
89.8116
 20
-2.99408
 11
89.4379
 21
-2.94685
  0
LINE
  8
0
 10
89.4379
 20
-2.94685
 11
89.073
 21
-2.85316
  0
LINE
  8
0
 10
89.073
 20
-2.85316
 11
88.7227
 21
-2.71448
  0
LINE
  8
0
 10
88.7227
 20
-2.71448
 11
88.3925
 21
-2.53297
  0
LINE
  8
0
 10
88.3925
 20
-2.53297
 11
88.0877
 21
-2.31154
  0
LINE
  8
0
 10
88.0877
 20
-2.31154
 11
87.8131
 21
-2.05363
  0
LINE
  8
0
 10
87.8131
 20
-2.05363
 11
87.573
 21
-1.76335
  0
LINE
  8
0
 10
87.573
 20
-1.76335
 11
87.3711
 21
-1.44525
  0
LINE
  8
0
 10
87.3711
 20
-1.44525
 11
87.2107
 21
-1.10437
  0
LINE
  8
0
 10
87.2107
 20
-1.10437
 11
87.0943
 21
-0.746063
  0
LINE
  8
0
 10
87.0943
 20
-0.746063
 11
87.0237
 21
-0.375992
  0
LINE
  8
0
 10
87.0237
 20
-0.375992
 11
87
 21
0
  0
LINE
  8
0
 10
87
 20
0
 11
87.0237
 21
0.375992
  0
LINE
  8
0
 10
87.0237
 20
0.375992
 11
87.0943
 21
0.746063
  0
LINE
  8
0
 10
87.0943
 20
0.746063
 11
87.2107
 21
1.10437
  0
LINE
  8
0
 10
87.2107
 20
1.10437
 11
87.3711
 21
1.44525
  0
LINE
  8
0
 10
87.3711
 20
1.44525
 11
87.573
 21
1.76335
  0
LINE
  8
0
 10
87.573
 20
1.76335
 11
87.8131
 21
2.05363
  0
LINE
  8
0
 10
87.8131
 20
2.05363
 11
88.0877
 21
2.31154
  0
LINE
  8
0
 10
88.0877
 20
2.31154
 11
88.3925
 21
2.53297
  0
LINE
  8
0
 10
88.3925
 20
2.53297
 11
88.7227
 21
2.71448
  0
LINE
  8
0
 10
88.7227
 20
2.71448
 11
89.073
 21
2.85316
  0
LINE
  8
0
 10
89.073
 20
2.85316
 11
89.4379
 21
2.94685
  0
LINE
  8
0
 10
89.4379
 20
2.94685
 11
89.8116
 21
2.99408
  0
LINE
  8
0
 10
89.8116
 20
2.99408
 11
90.1884
 21
2.99408
  0
LINE
  8
0
 10
90.1884
 20
2.99408
 11
90.5621
 21
2.94685
  0
LINE
  8
0
 10
90.5621
 20
2.94685
 11
90.927
 21
2.85316
  0
LINE
  8
0
 10
90.927
 20
2.85316
 11
91.2773
 21
2.71448
  0
LINE
  8
0
 10
91.2773
 20
2.71448
 11
91.6075
 21
2.53297
  0
LINE
  8
0
 10
91.6075
 20
2.53297
 11
91.9123
 21
2.31154
  0
LINE
  8
0
 10
91.9123
 20
2.31154
 11
92.1869
 21
2.05363
  0
LINE
  8
0
 10
92.1869
 20
2.05363
 11
92.427
 21
1.76335
  0
LINE
  8
0
 10
92.427
 20
1.76335
 11
92.6289
 21
1.44525
  0
LINE
  8
0
 10
92.6289
 20
1.44525
 11
92.7893
 21
1.10437
  0
LINE
  8
0
 10
92.7893
 20
1.10437
 11
92.9057
 21
0.746063
  0
LINE
  8
0
 10
92.9057
 20
0.746063
 11
92.9763
 21
0.375992
  0
LINE
  8
0
 10
92.9763
 20
0.375992
 11
93
 21
0
  0
LINE
  8
0
 10
93
 20
0
 11
92.9763
 21
-0.375992
  0
LINE
  8
0
 10
92.9763
 20
-0.375992
 11
92.9057
 21
-0.746063
  0
LINE
  8
0
 10
92.9057
 20
-0.746063
 11
92.7893
 21
-1.10437
  0
LINE
  8
0
 10
92.7893
 20
-1.10437
 11
92.6289
 21
-1.44525
  0
LINE
  8
0
 10
92.6289
 20
-1.44525
 11
92.427
 21
-1.76335
  0
LINE
  8
0
 10
92.427
 20
-1.76335
 11
92.1869
 21
-2.05363
  0
LINE
  8
0
 10
92.1869
 20
-2.05363
 11
91.9123
 21
-2.31154
  0
LINE
  8
0
 10
91.9123
 20
-2.31154
 11
91.6075
 21
-2.53297
  0
LINE
  8
0
 10
91.6075
 20
-2.53297
 11
91.2773
 21
-2.71448
  0
LINE
  8
0
 10
91.2773
 20
-2.71448
 11
90.927
 21
-2.85316
  0
LINE
  8
0
 10
90.927
 20
-2.85316
 11
90.5621
 21
-2.94685
  0
LINE
  8
0
 10
90.5621
 20
-2.94685
 11
90.1884
 21
-2.99408
  0
LINE
  8
0
 10
90.1884
 20
-2.99408
 11
89.8116
 21
-2.99408
  0
LINE
  8
0
 10
-45.1884
 20
-2.99408
 11
-45.5621
 21
-2.94685
  0
LINE
  8
0
 10
-45.5621
 20
-2.94685
 11
-45.927
 21
-2.85316
  0
LINE
  8
0
 10
-45.927
 20
-2.85316
 11
-46.2773
 21
-2.71448
  0
LINE
  8
0
 10
-46.2773
 20
-2.71448
 11
-46.6075
 21
-2.53297
  0
LINE
  8
0
 10
-46.6075
 20
-2.53297
 11
-46.9123
 21
-2.31154
  0
LINE
  8
0
 10
-46.9123
 20
-2.31154
 11
-47.1869
 21
-2.05363
  0
LINE
  8
0
 10
-47.1869
 20
-2.05363
 11
-47.427
 21
-1.76335
  0
LINE
  8
0
 10
-47.427
 20
-1.76335
 11
-47.6289
 21
-1.44525
  0
LINE
  8
0
 10
-47.6289
 20
-1.44525
 11
-47.7893
 21
-1.10437
  0
LINE
  8
0
 10
-47.7893
 20
-1.10437
 11
-47.9057
 21
-0.746063
  0
LINE
  8
0
 10
-47.9057
 20
-0.746063
 11
-47.9763
 21
-0.375992
  0
LINE
  8
0
 10
-47.9763
 20
-0.375992
 11
-48
 21
0
  0
LINE
  8
0
 10
-48
 20
0
 11
-47.9763
 21
0.375992
  0
LINE
  8
0
 10
-47.9763
 20
0.375992
 11
-47.9057
 21
0.746063
  0
LINE
  8
0
 10
-47.9057
 20
0.746063
 11
-47.7893
 21
1.10437
  0
LINE
  8
0
 10
-47.7893
 20
1.10437
 11
-47.6289
 21
1.44525
  0
LINE
  8
0
 10
-47.6289
 20
1.44525
 11
-47.427
 21
1.76335
  0
LINE
  8
0
 10
-47.427
 20
1.76335
 11
-47.1869
 21
2.05363
  0
LINE
  8
0
 10
-47.1869
 20
2.05363
 11
-46.9123
 21
2.31154
  0
LINE
  8
0
 10
-46.9123
 20
2.31154
 11
-46.6075
 21
2.53297
  0
LINE
  8
0
 10
-46.6075
 20
2.53297
 11
-46.2773
 21
2.71448
  0
LINE
  8
0
 10
-46.2773
 20
2.71448
 11
-45.927
 21
2.85316
  0
LINE
  8
0
 10
-45.927
 20
2.85316
 11
-45.5621
 21
2.94685
  0
LINE
  8
0
 10
-45.5621
 20
2.94685
 11
-45.1884
 21
2.99408
  0
LINE
  8
0
 10
-45.1884
 20
2.99408
 11
-44.8116
 21
2.99408
  0
LINE
  8
0
 10
-44.8116
 20
2.99408
 11
-44.4379
 21
2.94685
  0
LINE
  8
0
 10
-44.4379
 20
2.94685
 11
-44.0729
 21
2.85316
  0
LINE
  8
0
 10
-44.0729
 20
2.85316
 11
-43.7227
 21
2.71448
  0
LINE
  8
0
 10
-43.7227
 20
2.71448
 11
-43.3925
 21
2.53297
  0
LINE
  8
0
 10
-43.3925
 20
2.53297
 11
-43.0877
 21
2.31154
  0
LINE
  8
0
 10
-43.0877
 20
2.31154
 11
-42.8131
 21
2.05363
  0
LINE
  8
0
 10
-42.8131
 20
2.05363
 11
-42.5729
 21
1.76335
  0
LINE
  8
0
 10
-42.5729
 20
1.76335
 11
-42.3711
 21
1.44525
  0
LINE
  8
0
 10
-42.3711
 20
1.44525
 11
-42.2107
 21
1.10437
  0
LINE
  8
0
 10
-42.2107
 20
1.10437
 11
-42.0942
 21
0.746063
  0
LINE
  8
0
 10
-42.0942
 20
0.746063
 11
-42.0237
 21
0.375992
  0
LINE
  8
0
 10
-42.0237
 20
0.375992
 11
-42
 21
0
  0
LINE
  8
0
 10
-42
 20
0
 11
-42.0237
 21
-0.375992
  0
LINE
  8
0
 10
-42.0237
 20
-0.375992
 11
-42.0942
 21
-0.746063
  0
LINE
  8
0
 10
-42.0942
 20
-0.746063
 11
-42.2107
 21
-1.10437
  0
LINE
  8
0
 10
-42.2107
 20
-1.10437
 11
-42.3711
 21
-1.44525
  0
LINE
  8
0
 10
-42.3711
 20
-1.44525
 11
-42.5729
 21
-1.76335
  0
LINE
  8
0
 10
-42.5729
 20
-1.76335
 11
-42.8131
 21
-2.05363
  0
LINE
  8
0
 10
-42.8131
 20
-2.05363
 11
-43.0877
 21
-2.31154
  0
LINE
  8
0
 10
-43.0877
 20
-2.31154
 11
-43.3925
 21
-2.53297
  0
LINE
  8
0
 10
-43.3925
 20
-2.53297
 11
-43.7227
 21
-2.71448
  0
LINE
  8
0
 10
-43.7227
 20
-2.71448
 11
-44.0729
 21
-2.85316
  0
LINE
  8
0
 10
-44.0729
 20
-2.85316
 11
-44.4379
 21
-2.94685
  0
LINE
  8
0
 10
-44.4379
 20
-2.94685
 11
-44.8116
 21
-2.99408
  0
LINE
  8
0
 10
-44.8116
 20
-2.99408
 11
-45.1884
 21
-2.99408
  0
LINE
  8
0
 10
-75.1884
 20
-2.99408
 11
-75.5621
 21
-2.94685
  0
LINE
  8
0
 10
-75.5621
 20
-2.94685
 11
-75.927
 21
-2.85316
  0
LINE
  8
0
 10
-75.927
 20
-2.85316
 11
-76.2773
 21
-2.71448
  0
LINE
  8
0
 10
-76.2773
 20
-2.71448
 11
-76.6075
 21
-2.53297
  0
LINE
  8
0
 10
-76.6075
 20
-2.53297
 11
-76.9123
 21
-2.31154
  0
LINE
  8
0
 10
-76.9123
 20
-2.31154
 11
-77.1869
 21
-2.05363
  0
LINE
  8
0
 10
-77.1869
 20
-2.05363
 11
-77.427
 21
-1.76335
  0
LINE
  8
0
 10
-77.427
 20
-1.76335
 11
-77.6289
 21
-1.44525
  0
LINE
  8
0
 10
-77.6289
 20
-1.44525
 11
-77.7893
 21
-1.10437
  0
LINE
  8
0
 10
-77.7893
 20
-1.10437
 11
-77.9057
 21
-0.746063
  0
LINE
  8
0
 10
-77.9057
 20
-0.746063
 11
-77.9763
 21
-0.375992
  0
LINE
  8
0
 10
-77.9763
 20
-0.375992
 11
-78
 21
0
  0
LINE
  8
0
 10
-78
 20
0
 11
-77.9763
 21
0.375992
  0
LINE
  8
0
 10
-77.9763
 20
0.375992
 11
-77.9057
 21
0.746063
  0
LINE
  8
0
 10
-77.9057
 20
0.746063
 11
-77.7893
 21
1.10437
  0
LINE
  8
0
 10
-77.7893
 20
1.10437
 11
-77.6289
 21
1.44525
  0
LINE
  8
0
 10
-77.6289
 20
1.44525
 11
-77.427
 21
1.76335
  0
LINE
  8
0
 10
-77.427
 20
1.76335
 11
-77.1869
 21
2.05363
  0
LINE
  8
0
 10
-77.1869
 20
2.05363
 11
-76.9123
 21
2.31154
  0
LINE
  8
0
 10
-76.9123
 20
2.31154
 11
-76.6075
 21
2.53297
  0
LINE
  8
0
 10
-76.6075
 20
2.53297
 11
-76.2773
 21
2.71448
  0
LINE
  8
0
 10
-76.2773
 20
2.71448
 11
-75.927
 21
2.85316
  0
LINE
  8
0
 10
-75.927
 20
2.85316
 11
-75.5621
 21
2.94685
  0
LINE
  8
0
 10
-75.5621
 20
2.94685
 11
-75.1884
 21
2.99408
  0
LINE
  8
0
 10
-75.1884
 20
2.99408
 11
-74.8116
 21
2.99408
  0
LINE
  8
0
 10
-74.8116
 20
2.99408
 11
-74.4379
 21
2.94685
  0
LINE
  8
0
 10
-74.4379
 20
2.94685
 11
-74.073
 21
2.85316
  0
LINE
  8
0
 10
-74.073
 20
2.85316
 11
-73.7227
 21
2.71448
  0
LINE
  8
0
 10
-73.7227
 20
2.71448
 11
-73.3925
 21
2.53297
  0
LINE
  8
0
 10
-73.3925
 20
2.53297
 11
-73.0877
 21
2.31154
  0
LINE
  8
0
 10
-73.0877
 20
2.31154
 11
-72.8131
 21
2.05363
  0
LINE
  8
0
 10
-72.8131
 20
2.05363
 11
-72.573
 21
1.76335
  0
LINE
  8
0
 10
-72.573
 20
1.76335
 11
-72.3711
 21
1.44525
  0
LINE
  8
0
 10
-72.3711
 20
1.44525
 11
-72.2107
 21
1.10437
  0
LINE
  8
0
 10
-72.2107
 20
1.10437
 11
-72.0943
 21
0.746063
  0
LINE
  8
0
 10
-72.0943
 20
0.746063
 11
-72.0237
 21
0.375992
  0
LINE
  8
0
 10
-72.0237
 20
0.375992
 11
-72
 21
0
  0
LINE
  8
0
 10
-72
 20
0
 11
-72.0237
 21
-0.375992
  0
LINE
  8
0
 10
-72.0237
 20
-0.375992
 11
-72.0943
 21
-0.746063
  0
LINE
  8
0
 10
-72.0943
 20
-0.746063
 11
-72.2107
 21
-1.10437
  0
LINE
  8
0
 10
-72.2107
 20
-1.10437
 11
-72.3711
 21
-1.44525
  0
LINE
  8
0
 10
-72.3711
 20
-1.44525
 11
-72.573
 21
-1.76335
  0
LINE
  8
0
 10
-72.573
 20
-1.76335
 11
-72.8131
 21
-2.05363
  0
LINE
  8
0
 10
-72.8131
 20
-2.05363
 11
-73.0877
 21
-2.31154
  0
LINE
  8
0
 10
-73.0877
 20
-2.31154
 11
-73.3925
 21
-2.53297
  0
LINE
  8
0
 10
-73.3925
 20
-2.53297
 11
-73.7227
 21
-2.71448
  0
LINE
  8
0
 10
-73.7227
 20
-2.71448
 11
-74.073
 21
-2.85316
  0
LINE
  8
0
 10
-74.073
 20
-2.85316
 11
-74.4379
 21
-2.94685
  0
LINE
  8
0
 10
-74.4379
 20
-2.94685
 11
-74.8116
 21
-2.99408
  0
LINE
  8
0
 10
-74.8116
 20
-2.99408
 11
-75.1884
 21
-2.99408
  0
LINE
  8
0
 10
74.8116
 20
-2.99408
 11
74.4379
 21
-2.94685
  0
LINE
  8
0
 10
74.4379
 20
-2.94685
 11
74.073
 21
-2.85316
  0
LINE
  8
0
 10
74.073
 20
-2.85316
 11
73.7227
 21
-2.71448
  0
LINE
  8
0
 10
73.7227
 20
-2.71448
 11
73.3925
 21
-2.53297
  0
LINE
  8
0
 10
73.3925
 20
-2.53297
 11
73.0877
 21
-2.31154
  0
LINE
  8
0
 10
73.0877
 20
-2.31154
 11
72.8131
 21
-2.05363
  0
LINE
  8
0
 10
72.8131
 20
-2.05363
 11
72.573
 21
-1.76335
  0
LINE
  8
0
 10
72.573
 20
-1.76335
 11
72.3711
 21
-1.44525
  0
LINE
  8
0
 10
72.3711
 20
-1.44525
 11
72.2107
 21
-1.10437
  0
LINE
  8
0
 10
72.2107
 20
-1.10437
 11
72.0943
 21
-0.746063
  0
LINE
  8
0
 10
72.0943
 20
-0.746063
 11
72.0237
 21
-0.375992
  0
LINE
  8
0
 10
72.0237
 20
-0.375992
 11
72
 21
0
  0
LINE
  8
0
 10
72
 20
0
 11
72.0237
 21
0.375992
  0
LINE
  8
0
 10
72.0237
 20
0.375992
 11
72.0943
 21
0.746063
  0
LINE
  8
0
 10
72.0943
 20
0.746063
 11
72.2107
 21
1.10437
  0
LINE
  8
0
 10
72.2107
 20
1.10437
 11
72.3711
 21
1.44525
  0
LINE
  8
0
 10
72.3711
 20
1.44525
 11
72.573
 21
1.76335
  0
LINE
  8
0
 10
72.573
 20
1.76335
 11
72.8131
 21
2.05363
  0
LINE
  8
0
 10
72.8131
 20
2.05363
 11
73.0877
 21
2.31154
  0
LINE
  8
0
 10
73.0877
 20
2.31154
 11
73.3925
 21
2.53297
  0
LINE
  8
0
 10
73.3925
 20
2.53297
 11
73.7227
 21
2.71448
  0
LINE
  8
0
 10
73.7227
 20
2.71448
 11
74.073
 21
2.85316
  0
LINE
  8
0
 10
74.073
 20
2.85316
 11
74.4379
 21
2.94685
  0
LINE
  8
0
 10
74.4379
 20
2.94685
 11
74.8116
 21
2.99408
  0
LINE
  8
0
 10
74.8116
 20
2.99408
 11
75.1884
 21
2.99408
  0
LINE
  8
0
 10
75.1884
 20
2.99408
 11
75.5621
 21
2.94685
  0
LINE
  8
0
 10
75.5621
 20
2.94685
 11
75.927
 21
2.85316
  0
LINE
  8
0
 10
75.927
 20
2.85316
 11
76.2773
 21
2.71448
  0
LINE
  8
0
 10
76.2773
 20
2.71448
 11
76.6075
 21
2.53297
  0
LINE
  8
0
 10
76.6075
 20
2.53297
 11
76.9123
 21
2.31154
  0
LINE
  8
0
 10
76.9123
 20
2.31154
 11
77.1869
 21
2.05363
  0
LINE
  8
0
 10
77.1869
 20
2.05363
 11
77.427
 21
1.76335
  0
LINE
  8
0
 10
77.427
 20
1.76335
 11
77.6289
 21
1.44525
  0
LINE
  8
0
 10
77.6289
 20
1.44525
 11
77.7893
 21
1.10437
  0
LINE
  8
0
 10
77.7893
 20
1.10437
 11
77.9057
 21
0.746063
  0
LINE
  8
0
 10
77.9057
 20
0.746063
 11
77.9763
 21
0.375992
  0
LINE
  8
0
 10
77.9763
 20
0.375992
 11
78
 21
0
  0
LINE
  8
0
 10
78
 20
0
 11
77.9763
 21
-0.375992
  0
LINE
  8
0
 10
77.9763
 20
-0.375992
 11
77.9057
 21
-0.746063
  0
LINE
  8
0
 10
77.9057
 20
-0.746063
 11
77.7893
 21
-1.10437
  0
LINE
  8
0
 10
77.7893
 20
-1.10437
 11
77.6289
 21
-1.44525
  0
LINE
  8
0
 10
77.6289
 20
-1.44525
 11
77.427
 21
-1.76335
  0
LINE
  8
0
 10
77.427
 20
-1.76335
 11
77.1869
 21
-2.05363
  0
LINE
  8
0
 10
77.1869
 20
-2.05363
 11
76.9123
 21
-2.31154
  0
LINE
  8
0
 10
76.9123
 20
-2.31154
 11
76.6075
 21
-2.53297
  0
LINE
  8
0
 10
76.6075
 20
-2.53297
 11
76.2773
 21
-2.71448
  0
LINE
  8
0
 10
76.2773
 20
-2.71448
 11
75.927
 21
-2.85316
  0
LINE
  8
0
 10
75.927
 20
-2.85316
 11
75.5621
 21
-2.94685
  0
LINE
  8
0
 10
75.5621
 20
-2.94685
 11
75.1884
 21
-2.99408
  0
LINE
  8
0
 10
75.1884
 20
-2.99408
 11
74.8116
 21
-2.99408
  0
LINE
  8
0
 10
-15.1884
 20
-2.99408
 11
-15.5621
 21
-2.94685
  0
LINE
  8
0
 10
-15.5621
 20
-2.94685
 11
-15.927
 21
-2.85316
  0
LINE
  8
0
 10
-15.927
 20
-2.85316
 11
-16.2773
 21
-2.71448
  0
LINE
  8
0
 10
-16.2773
 20
-2.71448
 11
-16.6075
 21
-2.53297
  0
LINE
  8
0
 10
-16.6075
 20
-2.53297
 11
-16.9123
 21
-2.31154
  0
LINE
  8
0
 10
-16.9123
 20
-2.31154
 11
-17.1869
 21
-2.05363
  0
LINE
  8
0
 10
-17.1869
 20
-2.05363
 11
-17.427
 21
-1.76335
  0
LINE
  8
0
 10
-17.427
 20
-1.76335
 11
-17.6289
 21
-1.44525
  0
LINE
  8
0
 10
-17.6289
 20
-1.44525
 11
-17.7893
 21
-1.10437
  0
LINE
  8
0
 10
-17.7893
 20
-1.10437
 11
-17.9057
 21
-0.746063
  0
LINE
  8
0
 10
-17.9057
 20
-0.746063
 11
-17.9763
 21
-0.375992
  0
LINE
  8
0
 10
-17.9763
 20
-0.375992
 11
-18
 21
0
  0
LINE
  8
0
 10
-18
 20
0
 11
-17.9763
 21
0.375992
  0
LINE
  8
0
 10
-17.9763
 20
0.375992
 11
-17.9057
 21
0.746063
  0
LINE
  8
0
 10
-17.9057
 20
0.746063
 11
-17.7893
 21
1.10437
  0
LINE
  8
0
 10
-17.7893
 20
1.10437
 11
-17.6289
 21
1.44525
  0
LINE
  8
0
 10
-17.6289
 20
1.44525
 11
-17.427
 21
1.76335
  0
LINE
  8
0
 10
-17.427
 20
1.76335
 11
-17.1869
 21
2.05363
  0
LINE
  8
0
 10
-17.1869
 20
2.05363
 11
-16.9123
 21
2.31154
  0
LINE
  8
0
 10
-16.9123
 20
2.31154
 11
-16.6075
 21
2.53297
  0
LINE
  8
0
 10
-16.6075
 20
2.53297
 11
-16.2773
 21
2.71448
  0
LINE
  8
0
 10
-16.2773
 20
2.71448
 11
-15.927
 21
2.85316
  0
LINE
  8
0
 10
-15.927
 20
2.85316
 11
-15.5621
 21
2.94685
  0
LINE
  8
0
 10
-15.5621
 20
2.94685
 11
-15.1884
 21
2.99408
  0
LINE
  8
0
 10
-15.1884
 20
2.99408
 11
-14.8116
 21
2.99408
  0
LINE
  8
0
 10
-14.8116
 20
2.99408
 11
-14.4379
 21
2.94685
  0
LINE
  8
0
 10
-14.4379
 20
2.94685
 11
-14.0729
 21
2.85316
  0
LINE
  8
0
 10
-14.0729
 20
2.85316
 11
-13.7227
 21
2.71448
  0
LINE
  8
0
 10
-13.7227
 20
2.71448
 11
-13.3925
 21
2.53297
  0
LINE
  8
0
 10
-13.3925
 20
2.53297
 11
-13.0877
 21
2.31154
  0
LINE
  8
0
 10
-13.0877
 20
2.31154
 11
-12.8131
 21
2.05363
  0
LINE
  8
0
 10
-12.8131
 20
2.05363
 11
-12.5729
 21
1.76335
  0
LINE
  8
0
 10
-12.5729
 20
1.76335
 11
-12.3711
 21
1.44525
  0
LINE
  8
0
 10
-12.3711
 20
1.44525
 11
-12.2107
 21
1.10437
  0
LINE
  8
0
 10
-12.2107
 20
1.10437
 11
-12.0942
 21
0.746063
  0
LINE
  8
0
 10
-12.0942
 20
0.746063
 11
-12.0237
 21
0.375992
  0
LINE
  8
0
 10
-12.0237
 20
0.375992
 11
-12
 21
0
  0
LINE
  8
0
 10
-12
 20
0
 11
-12.0237
 21
-0.375992
  0
LINE
  8
0
 10
-12.0237
 20
-0.375992
 11
-12.0942
 21
-0.746063
  0
LINE
  8
0
 10
-12.0942
 20
-0.746063
 11
-12.2107
 21
-1.10437
  0
LINE
  8
0
 10
-12.2107
 20
-1.10437
 11
-12.3711
 21
-1.44525
  0
LINE
  8
0
 10
-12.3711
 20
-1.44525
 11
-12.5729
 21
-1.76335
  0
LINE
  8
0
 10
-12.5729
 20
-1.76335
 11
-12.8131
 21
-2.05363
  0
LINE
  8
0
 10
-12.8131
 20
-2.05363
 11
-13.0877
 21
-2.31154
  0
LINE
  8
0
 10
-13.0877
 20
-2.31154
 11
-13.3925
 21
-2.53297
  0
LINE
  8
0
 10
-13.3925
 20
-2.53297
 11
-13.7227
 21
-2.71448
  0
LINE
  8
0
 10
-13.7227
 20
-2.71448
 11
-14.0729
 21
-2.85316
  0
LINE
  8
0
 10
-14.0729
 20
-2.85316
 11
-14.4379
 21
-2.94685
  0
LINE
  8
0
 10
-14.4379
 20
-2.94685
 11
-14.8116
 21
-2.99408
  0
LINE
  8
0
 10
-14.8116
 20
-2.99408
 11
-15.1884
 21
-2.99408
  0
LINE
  8
0
 10
-0.18837
 20
-2.99408
 11
-0.562134
 21
-2.94685
  0
LINE
  8
0
 10
-0.562134
 20
-2.94685
 11
-0.927048
 21
-2.85316
  0
LINE
  8
0
 10
-0.927048
 20
-2.85316
 11
-1.27733
 21
-2.71448
  0
LINE
  8
0
 10
-1.27733
 20
-2.71448
 11
-1.60747
 21
-2.53297
  0
LINE
  8
0
 10
-1.60747
 20
-2.53297
 11
-1.91226
 21
-2.31154
  0
LINE
  8
0
 10
-1.91226
 20
-2.31154
 11
-2.1869
 21
-2.05363
  0
LINE
  8
0
 10
-2.1869
 20
-2.05363
 11
-2.42705
 21
-1.76335
  0
LINE
  8
0
 10
-2.42705
 20
-1.76335
 11
-2.62891
 21
-1.44525
  0
LINE
  8
0
 10
-2.62891
 20
-1.44525
 11
-2.78932
 21
-1.10437
  0
LINE
  8
0
 10
-2.78932
 20
-1.10437
 11
-2.90575
 21
-0.746063
  0
LINE
  8
0
 10
-2.90575
 20
-0.746063
 11
-2.97633
 21
-0.375992
  0
LINE
  8
0
 10
-2.97633
 20
-0.375992
 11
-3
 21
0
  0
LINE
  8
0
 10
-3
 20
0
 11
-2.97633
 21
0.375992
  0
LINE
  8
0
 10
-2.97633
 20
0.375992
 11
-2.90575
 21
0.746063
  0
LINE
  8
0
 10
-2.90575
 20
0.746063
 11
-2.78932
 21
1.10437
  0
LINE
  8
0
 10
-2.78932
 20
1.10437
 11
-2.62891
 21
1.44525
  0
LINE
  8
0
 10
-2.62891
 20
1.44525
 11
-2.42705
 21
1.76335
  0
LINE
  8
0
 10
-2.42705
 20
1.76335
 11
-2.1869
 21
2.05363
  0
LINE
  8
0
 10
-2.1869
 20
2.05363
 11
-1.91226
 21
2.31154
  0
LINE
  8
0
 10
-1.91226
 20
2.31154
 11
-1.60747
 21
2.53297
  0
LINE
  8
0
 10
-1.60747
 20
2.53297
 11
-1.27733
 21
2.71448
  0
LINE
  8
0
 10
-1.27733
 20
2.71448
 11
-0.927048
 21
2.85316
  0
LINE
  8
0
 10
-0.927048
 20
2.85316
 11
-0.562134
 21
2.94685
  0
LINE
  8
0
 10
-0.562134
 20
2.94685
 11
-0.18837
 21
2.99408
  0
LINE
  8
0
 10
-0.18837
 20
2.99408
 11
0.18837
 21
2.99408
  0
LINE
  8
0
 10
0.18837
 20
2.99408
 11
0.562134
 21
2.94685
  0
LINE
  8
0
 10
0.562134
 20
2.94685
 11
0.927048
 21
2.85316
  0
LINE
  8
0
 10
0.927048
 20
2.85316
 11
1.27733
 21
2.71448
  0
LINE
  8
0
 10
1.27733
 20
2.71448
 11
1.60747
 21
2.53297
  0
LINE
  8
0
 10
1.60747
 20
2.53297
 11
1.91226
 21
2.31154
  0
LINE
  8
0
 10
1.91226
 20
2.31154
 11
2.1869
 21
2.05363
  0
LINE
  8
0
 10
2.1869
 20
2.05363
 11
2.42705
 21
1.76335
  0
LINE
  8
0
 10
2.42705
 20
1.76335
 11
2.62891
 21
1.44525
  0
LINE
  8
0
 10
2.62891
 20
1.44525
 11
2.78932
 21
1.10437
  0
LINE
  8
0
 10
2.78932
 20
1.10437
 11
2.90575
 21
0.746063
  0
LINE
  8
0
 10
2.90575
 20
0.746063
 11
2.97633
 21
0.375992
  0
LINE
  8
0
 10
2.97633
 20
0.375992
 11
3
 21
0
  0
LINE
  8
0
 10
3
 20
0
 11
2.97633
 21
-0.375992
  0
LINE
  8
0
 10
2.97633
 20
-0.375992
 11
2.90575
 21
-0.746063
  0
LINE
  8
0
 10
2.90575
 20
-0.746063
 11
2.78932
 21
-1.10437
  0
LINE
  8
0
 10
2.78932
 20
-1.10437
 11
2.62891
 21
-1.44525
  0
LINE
  8
0
 10
2.62891
 20
-1.44525
 11
2.42705
 21
-1.76335
  0
LINE
  8
0
 10
2.42705
 20
-1.76335
 11
2.1869
 21
-2.05363
  0
LINE
  8
0
 10
2.1869
 20
-2.05363
 11
1.91226
 21
-2.31154
  0
LINE
  8
0
 10
1.91226
 20
-2.31154
 11
1.60747
 21
-2.53297
  0
LINE
  8
0
 10
1.60747
 20
-2.53297
 11
1.27733
 21
-2.71448
  0
LINE
  8
0
 10
1.27733
 20
-2.71448
 11
0.927048
 21
-2.85316
  0
LINE
  8
0
 10
0.927048
 20
-2.85316
 11
0.562134
 21
-2.94685
  0
LINE
  8
0
 10
0.562134
 20
-2.94685
 11
0.18837
 21
-2.99408
  0
LINE
  8
0
 10
0.18837
 20
-2.99408
 11
-0.18837
 21
-2.99408
  0
LINE
  8
0
 10
-30.1884
 20
-2.99408
 11
-30.5621
 21
-2.94685
  0
LINE
  8
0
 10
-30.5621
 20
-2.94685
 11
-30.927
 21
-2.85316
  0
LINE
  8
0
 10
-30.927
 20
-2.85316
 11
-31.2773
 21
-2.71448
  0
LINE
  8
0
 10
-31.2773
 20
-2.71448
 11
-31.6075
 21
-2.53297
  0
LINE
  8
0
 10
-31.6075
 20
-2.53297
 11
-31.9123
 21
-2.31154
  0
LINE
  8
0
 10
-31.9123
 20
-2.31154
 11
-32.1869
 21
-2.05363
  0
LINE
  8
0
 10
-32.1869
 20
-2.05363
 11
-32.427
 21
-1.76335
  0
LINE
  8
0
 10
-32.427
 20
-1.76335
 11
-32.6289
 21
-1.44525
  0
LINE
  8
0
 10
-32.6289
 20
-1.44525
 11
-32.7893
 21
-1.10437
  0
LINE
  8
0
 10
-32.7893
 20
-1.10437
 11
-32.9057
 21
-0.746063
  0
LINE
  8
0
 10
-32.9057
 20
-0.746063
 11
-32.9763
 21
-0.375992
  0
LINE
  8
0
 10
-32.9763
 20
-0.375992
 11
-33
 21
0
  0
LINE
  8
0
 10
-33
 20
0
 11
-32.9763
 21
0.375992
  0
LINE
  8
0
 10
-32.9763
 20
0.375992
 11
-32.9057
 21
0.746063
  0
LINE
  8
0
 10
-32.9057
 20
0.746063
 11
-32.7893
 21
1.10437
  0
LINE
  8
0
 10
-32.7893
 20
1.10437
 11
-32.6289
 21
1.44525
  0
LINE
  8
0
 10
-32.6289
 20
1.44525
 11
-32.427
 21
1.76335
  0
LINE
  8
0
 10
-32.427
 20
1.76335
 11
-32.1869
 21
2.05363
  0
LINE
  8
0
 10
-32.1869
 20
2.05363
 11
-31.9123
 21
2.31154
  0
LINE
  8
0
 10
-31.9123
 20
2.31154
 11
-31.6075
 21
2.53297
  0
LINE
  8
0
 10
-31.6075
 20
2.53297
 11
-31.2773
 21
2.71448
  0
LINE
  8
0
 10
-31.2773
 20
2.71448
 11
-30.927
 21
2.85316
  0
LINE
  8
0
 10
-30.927
 20
2.85316
 11
-30.5621
 21
2.94685
  0
LINE
  8
0
 10
-30.5621
 20
2.94685
 11
-30.1884
 21
2.99408
  0
LINE
  8
0
 10
-30.1884
 20
2.99408
 11
-29.8116
 21
2.99408
  0
LINE
  8
0
 10
-29.8116
 20
2.99408
 11
-29.4379
 21
2.94685
  0
LINE
  8
0
 10
-29.4379
 20
2.94685
 11
-29.0729
 21
2.85316
  0
LINE
  8
0
 10
-29.0729
 20
2.85316
 11
-28.7227
 21
2.71448
  0
LINE
  8
0
 10
-28.7227
 20
2.71448
 11
-28.3925
 21
2.53297
  0
LINE
  8
0
 10
-28.3925
 20
2.53297
 11
-28.0877
 21
2.31154
  0
LINE
  8
0
 10
-28.0877
 20
2.31154
 11
-27.8131
 21
2.05363
  0
LINE
  8
0
 10
-27.8131
 20
2.05363
 11
-27.5729
 21
1.76335
  0
LINE
  8
0
 10
-27.5729
 20
1.76335
 11
-27.3711
 21
1.44525
  0
LINE
  8
0
 10
-27.3711
 20
1.44525
 11
-27.2107
 21
1.10437
  0
LINE
  8
0
 10
-27.2107
 20
1.10437
 11
-27.0942
 21
0.746063
  0
LINE
  8
0
 10
-27.0942
 20
0.746063
 11
-27.0237
 21
0.375992
  0
LINE
  8
0
 10
-27.0237
 20
0.375992
 11
-27
 21
0
  0
LINE
  8
0
 10
-27
 20
0
 11
-27.0237
 21
-0.375992
  0
LINE
  8
0
 10
-27.0237
 20
-0.375992
 11
-27.0942
 21
-0.746063
  0
LINE
  8
0
 10
-27.0942
 20
-0.746063
 11
-27.2107
 21
-1.10437
  0
LINE
  8
0
 10
-27.2107
 20
-1.10437
 11
-27.3711
 21
-1.44525
  0
LINE
  8
0
 10
-27.3711
 20
-1.44525
 11
-27.5729
 21
-1.76335
  0
LINE
  8
0
 10
-27.5729
 20
-1.76335
 11
-27.8131
 21
-2.05363
  0
LINE
  8
0
 10
-27.8131
 20
-2.05363
 11
-28.0877
 21
-2.31154
  0
LINE
  8
0
 10
-28.0877
 20
-2.31154
 11
-28.3925
 21
-2.53297
  0
LINE
  8
0
 10
-28.3925
 20
-2.53297
 11
-28.7227
 21
-2.71448
  0
LINE
  8
0
 10
-28.7227
 20
-2.71448
 11
-29.0729
 21
-2.85316
  0
LINE
  8
0
 10
-29.0729
 20
-2.85316
 11
-29.4379
 21
-2.94685
  0
LINE
  8
0
 10
-29.4379
 20
-2.94685
 11
-29.8116
 21
-2.99408
  0
LINE
  8
0
 10
-29.8116
 20
-2.99408
 11
-30.1884
 21
-2.99408
  0
LINE
  8
0
 10
-60.1884
 20
-2.99408
 11
-60.5621
 21
-2.94685
  0
LINE
  8
0
 10
-60.5621
 20
-2.94685
 11
-60.927
 21
-2.85316
  0
LINE
  8
0
 10
-60.927
 20
-2.85316
 11
-61.2773
 21
-2.71448
  0
LINE
  8
0
 10
-61.2773
 20
-2.71448
 11
-61.6075
 21
-2.53297
  0
LINE
  8
0
 10
-61.6075
 20
-2.53297
 11
-61.9123
 21
-2.31154
  0
LINE
  8
0
 10
-61.9123
 20
-2.31154
 11
-62.1869
 21
-2.05363
  0
LINE
  8
0
 10
-62.1869
 20
-2.05363
 11
-62.427
 21
-1.76335
  0
LINE
  8
0
 10
-62.427
 20
-1.76335
 11
-62.6289
 21
-1.44525
  0
LINE
  8
0
 10
-62.6289
 20
-1.44525
 11
-62.7893
 21
-1.10437
  0
LINE
  8
0
 10
-62.7893
 20
-1.10437
 11
-62.9057
 21
-0.746063
  0
LINE
  8
0
 10
-62.9057
 20
-0.746063
 11
-62.9763
 21
-0.375992
  0
LINE
  8
0
 10
-62.9763
 20
-0.375992
 11
-63
 21
0
  0
LINE
  8
0
 10
-63
 20
0
 11
-62.9763
 21
0.375992
  0
LINE
  8
0
 10
-62.9763
 20
0.375992
 11
-62.9057
 21
0.746063
  0
LINE
  8
0
 10
-62.9057
 20
0.746063
 11
-62.7893
 21
1.10437
  0
LINE
  8
0
 10
-62.7893
 20
1.10437
 11
-62.6289
 21
1.44525
  0
LINE
  8
0
 10
-62.6289
 20
1.44525
 11
-62.427
 21
1.76335
  0
LINE
  8
0
 10
-62.427
 20
1.76335
 11
-62.1869
 21
2.05363
  0
LINE
  8
0
 10
-62.1869
 20
2.05363
 11
-61.9123
 21
2.31154
  0
LINE
  8
0
 10
-61.9123
 20
2.31154
 11
-61.6075
 21
2.53297
  0
LINE
  8
0
 10
-61.6075
 20
2.53297
 11
-61.2773
 21
2.71448
  0
LINE
  8
0
 10
-61.2773
 20
2.71448
 11
-60.927
 21
2.85316
  0
LINE
  8
0
 10
-60.927
 20
2.85316
 11
-60.5621
 21
2.94685
  0
LINE
  8
0
 10
-60.5621
 20
2.94685
 11
-60.1884
 21
2.99408
  0
LINE
  8
0
 10
-60.1884
 20
2.99408
 11
-59.8116
 21
2.99408
  0
LINE
  8
0
 10
-59.8116
 20
2.99408
 11
-59.4379
 21
2.94685
  0
LINE
  8
0
 10
-59.4379
 20
2.94685
 11
-59.0729
 21
2.85316
  0
LINE
  8
0
 10
-59.0729
 20
2.85316
 11
-58.7227
 21
2.71448
  0
LINE
  8
0
 10
-58.7227
 20
2.71448
 11
-58.3925
 21
2.53297
  0
LINE
  8
0
 10
-58.3925
 20
2.53297
 11
-58.0877
 21
2.31154
  0
LINE
  8
0
 10
-58.0877
 20
2.31154
 11
-57.8131
 21
2.05363
  0
LINE
  8
0
 10
-57.8131
 20
2.05363
 11
-57.5729
 21
1.76335
  0
LINE
  8
0
 10
-57.5729
 20
1.76335
 11
-57.3711
 21
1.44525
  0
LINE
  8
0
 10
-57.3711
 20
1.44525
 11
-57.2107
 21
1.10437
  0
LINE
  8
0
 10
-57.2107
 20
1.10437
 11
-57.0942
 21
0.746063
  0
LINE
  8
0
 10
-57.0942
 20
0.746063
 11
-57.0237
 21
0.375992
  0
LINE
  8
0
 10
-57.0237
 20
0.375992
 11
-57
 21
0
  0
LINE
  8
0
 10
-57
 20
0
 11
-57.0237
 21
-0.375992
  0
LINE
  8
0
 10
-57.0237
 20
-0.375992
 11
-57.0942
 21
-0.746063
  0
LINE
  8
0
 10
-57.0942
 20
-0.746063
 11
-57.2107
 21
-1.10437
  0
LINE
  8
0
 10
-57.2107
 20
-1.10437
 11
-57.3711
 21
-1.44525
  0
LINE
  8
0
 10
-57.3711
 20
-1.44525
 11
-57.5729
 21
-1.76335
  0
LINE
  8
0
 10
-57.5729
 20
-1.76335
 11
-57.8131
 21
-2.05363
  0
LINE
  8
0
 10
-57.8131
 20
-2.05363
 11
-58.0877
 21
-2.31154
  0
LINE
  8
0
 10
-58.0877
 20
-2.31154
 11
-58.3925
 21
-2.53297
  0
LINE
  8
0
 10
-58.3925
 20
-2.53297
 11
-58.7227
 21
-2.71448
  0
LINE
  8
0
 10
-58.7227
 20
-2.71448
 11
-59.0729
 21
-2.85316
  0
LINE
  8
0
 10
-59.0729
 20
-2.85316
 11
-59.4379
 21
-2.94685
  0
LINE
  8
0
 10
-59.4379
 20
-2.94685
 11
-59.8116
 21
-2.99408
  0
LINE
  8
0
 10
-59.8116
 20
-2.99408
 11
-60.1884
 21
-2.99408
  0
LINE
  8
0
 10
-90.1884
 20
-2.99408
 11
-90.5621
 21
-2.94685
  0
LINE
  8
0
 10
-90.5621
 20
-2.94685
 11
-90.927
 21
-2.85316
  0
LINE
  8
0
 10
-90.927
 20
-2.85316
 11
-91.2773
 21
-2.71448
  0
LINE
  8
0
 10
-91.2773
 20
-2.71448
 11
-91.6075
 21
-2.53297
  0
LINE
  8
0
 10
-91.6075
 20
-2.53297
 11
-91.9123
 21
-2.31154
  0
LINE
  8
0
 10
-91.9123
 20
-2.31154
 11
-92.1869
 21
-2.05363
  0
LINE
  8
0
 10
-92.1869
 20
-2.05363
 11
-92.427
 21
-1.76335
  0
LINE
  8
0
 10
-92.427
 20
-1.76335
 11
-92.6289
 21
-1.44525
  0
LINE
  8
0
 10
-92.6289
 20
-1.44525
 11
-92.7893
 21
-1.10437
  0
LINE
  8
0
 10
-92.7893
 20
-1.10437
 11
-92.9057
 21
-0.746063
  0
LINE
  8
0
 10
-92.9057
 20
-0.746063
 11
-92.9763
 21
-0.375992
  0
LINE
  8
0
 10
-92.9763
 20
-0.375992
 11
-93
 21
0
  0
LINE
  8
0
 10
-93
 20
0
 11
-92.9763
 21
0.375992
  0
LINE
  8
0
 10
-92.9763
 20
0.375992
 11
-92.9057
 21
0.746063
  0
LINE
  8
0
 10
-92.9057
 20
0.746063
 11
-92.7893
 21
1.10437
  0
LINE
  8
0
 10
-92.7893
 20
1.10437
 11
-92.6289
 21
1.44525
  0
LINE
  8
0
 10
-92.6289
 20
1.44525
 11
-92.427
 21
1.76335
  0
LINE
  8
0
 10
-92.427
 20
1.76335
 11
-92.1869
 21
2.05363
  0
LINE
  8
0
 10
-92.1869
 20
2.05363
 11
-91.9123
 21
2.31154
  0
LINE
  8
0
 10
-91.9123
 20
2.31154
 11
-91.6075
 21
2.53297
  0
LINE
  8
0
 10
-91.6075
 20
2.53297
 11
-91.2773
 21
2.71448
  0
LINE
  8
0
 10
-91.2773
 20
2.71448
 11
-90.927
 21
2.85316
  0
LINE
  8
0
 10
-90.927
 20
2.85316
 11
-90.5621
 21
2.94685
  0
LINE
  8
0
 10
-90.5621
 20
2.94685
 11
-90.1884
 21
2.99408
  0
LINE
  8
0
 10
-90.1884
 20
2.99408
 11
-89.8116
 21
2.99408
  0
LINE
  8
0
 10
-89.8116
 20
2.99408
 11
-89.4379
 21
2.94685
  0
LINE
  8
0
 10
-89.4379
 20
2.94685
 11
-89.073
 21
2.85316
  0
LINE
  8
0
 10
-89.073
 20
2.85316
 11
-88.7227
 21
2.71448
  0
LINE
  8
0
 10
-88.7227
 20
2.71448
 11
-88.3925
 21
2.53297
  0
LINE
  8
0
 10
-88.3925
 20
2.53297
 11
-88.0877
 21
2.31154
  0
LINE
  8
0
 10
-88.0877
 20
2.31154
 11
-87.8131
 21
2.05363
  0
LINE
  8
0
 10
-87.8131
 20
2.05363
 11
-87.573
 21
1.76335
  0
LINE
  8
0
 10
-87.573
 20
1.76335
 11
-87.3711
 21
1.44525
  0
LINE
  8
0
 10
-87.3711
 20
1.44525
 11
-87.2107
 21
1.10437
  0
LINE
  8
0
 10
-87.2107
 20
1.10437
 11
-87.0943
 21
0.746063
  0
LINE
  8
0
 10
-87.0943
 20
0.746063
 11
-87.0237
 21
0.375992
  0
LINE
  8
0
 10
-87.0237
 20
0.375992
 11
-87
 21
0
  0
LINE
  8
0
 10
-87
 20
0
 11
-87.0237
 21
-0.375992
  0
LINE
  8
0
 10
-87.0237
 20
-0.375992
 11
-87.0943
 21
-0.746063
  0
LINE
  8
0
 10
-87.0943
 20
-0.746063
 11
-87.2107
 21
-1.10437
  0
LINE
  8
0
 10
-87.2107
 20
-1.10437
 11
-87.3711
 21
-1.44525
  0
LINE
  8
0
 10
-87.3711
 20
-1.44525
 11
-87.573
 21
-1.76335
  0
LINE
  8
0
 10
-87.573
 20
-1.76335
 11
-87.8131
 21
-2.05363
  0
LINE
  8
0
 10
-87.8131
 20
-2.05363
 11
-88.0877
 21
-2.31154
  0
LINE
  8
0
 10
-88.0877
 20
-2.31154
 11
-88.3925
 21
-2.53297
  0
LINE
  8
0
 10
-88.3925
 20
-2.53297
 11
-88.7227
 21
-2.71448
  0
LINE
  8
0
 10
-88.7227
 20
-2.71448
 11
-89.073
 21
-2.85316
  0
LINE
  8
0
 10
-89.073
 20
-2.85316
 11
-89.4379
 21
-2.94685
  0
LINE
  8
0
 10
-89.4379
 20
-2.94685
 11
-89.8116
 21
-2.99408
  0
LINE
  8
0
 10
-89.8116
 20
-2.99408
 11
-90.1884
 21
-2.99408
  0
LINE
  8
0
 10
29.8116
 20
-2.99408
 11
29.4379
 21
-2.94685
  0
LINE
  8
0
 10
29.4379
 20
-2.94685
 11
29.0729
 21
-2.85316
  0
LINE
  8
0
 10
29.0729
 20
-2.85316
 11
28.7227
 21
-2.71448
  0
LINE
  8
0
 10
28.7227
 20
-2.71448
 11
28.3925
 21
-2.53297
  0
LINE
  8
0
 10
28.3925
 20
-2.53297
 11
28.0877
 21
-2.31154
  0
LINE
  8
0
 10
28.0877
 20
-2.31154
 11
27.8131
 21
-2.05363
  0
LINE
  8
0
 10
27.8131
 20
-2.05363
 11
27.5729
 21
-1.76335
  0
LINE
  8
0
 10
27.5729
 20
-1.76335
 11
27.3711
 21
-1.44525
  0
LINE
  8
0
 10
27.3711
 20
-1.44525
 11
27.2107
 21
-1.10437
  0
LINE
  8
0
 10
27.2107
 20
-1.10437
 11
27.0942
 21
-0.746063
  0
LINE
  8
0
 10
27.0942
 20
-0.746063
 11
27.0237
 21
-0.375992
  0
LINE
  8
0
 10
27.0237
 20
-0.375992
 11
27
 21
0
  0
LINE
  8
0
 10
27
 20
0
 11
27.0237
 21
0.375992
  0
LINE
  8
0
 10
27.0237
 20
0.375992
 11
27.0942
 21
0.746063
  0
LINE
  8
0
 10
27.0942
 20
0.746063
 11
27.2107
 21
1.10437
  0
LINE
  8
0
 10
27.2107
 20
1.10437
 11
27.3711
 21
1.44525
  0
LINE
  8
0
 10
27.3711
 20
1.44525
 11
27.5729
 21
1.76335
  0
LINE
  8
0
 10
27.5729
 20
1.76335
 11
27.8131
 21
2.05363
  0
LINE
  8
0
 10
27.8131
 20
2.05363
 11
28.0877
 21
2.31154
  0
LINE
  8
0
 10
28.0877
 20
2.31154
 11
28.3925
 21
2.53297
  0
LINE
  8
0
 10
28.3925
 20
2.53297
 11
28.7227
 21
2.71448
  0
LINE
  8
0
 10
28.7227
 20
2.71448
 11
29.0729
 21
2.85316
  0
LINE
  8
0
 10
29.0729
 20
2.85316
 11
29.4379
 21
2.94685
  0
LINE
  8
0
 10
29.4379
 20
2.94685
 11
29.8116
 21
2.99408
  0
LINE
  8
0
 10
29.8116
 20
2.99408
 11
30.1884
 21
2.99408
  0
LINE
  8
0
 10
30.1884
 20
2.99408
 11
30.5621
 21
2.94685
  0
LINE
  8
0
 10
30.5621
 20
2.94685
 11
30.927
 21
2.85316
  0
LINE
  8
0
 10
30.927
 20
2.85316
 11
31.2773
 21
2.71448
  0
LINE
  8
0
 10
31.2773
 20
2.71448
 11
31.6075
 21
2.53297
  0
LINE
  8
0
 10
31.6075
 20
2.53297
 11
31.9123
 21
2.31154
  0
LINE
  8
0
 10
31.9123
 20
2.31154
 11
32.1869
 21
2.05363
  0
LINE
  8
0
 10
32.1869
 20
2.05363
 11
32.427
 21
1.76335
  0
LINE
  8
0
 10
32.427
 20
1.76335
 11
32.6289
 21
1.44525
  0
LINE
  8
0
 10
32.6289
 20
1.44525
 11
32.7893
 21
1.10437
  0
LINE
  8
0
 10
32.7893
 20
1.10437
 11
32.9057
 21
0.746063
  0
LINE
  8
0
 10
32.9057
 20
0.746063
 11
32.9763
 21
0.375992
  0
LINE
  8
0
 10
32.9763
 20
0.375992
 11
33
 21
0
  0
LINE
  8
0
 10
33
 20
0
 11
32.9763
 21
-0.375992
  0
LINE
  8
0
 10
32.9763
 20
-0.375992
 11
32.9057
 21
-0.746063
  0
LINE
  8
0
 10
32.9057
 20
-0.746063
 11
32.7893
 21
-1.10437
  0
LINE
  8
0
 10
32.7893
 20
-1.10437
 11
32.6289
 21
-1.44525
  0
LINE
  8
0
 10
32.6289
 20
-1.44525
 11
32.427
 21
-1.76335
  0
LINE
  8
0
 10
32.427
 20
-1.76335
 11
32.1869
 21
-2.05363
  0
LINE
  8
0
 10
32.1869
 20
-2.05363
 11
31.9123
 21
-2.31154
  0
LINE
  8
0
 10
31.9123
 20
-2.31154
 11
31.6075
 21
-2.53297
  0
LINE
  8
0
 10
31.6075
 20
-2.53297
 11
31.2773
 21
-2.71448
  0
LINE
  8
0
 10
31.2773
 20
-2.71448
 11
30.927
 21
-2.85316
  0
LINE
  8
0
 10
30.927
 20
-2.85316
 11
30.5621
 21
-2.94685
  0
LINE
  8
0
 10
30.5621
 20
-2.94685
 11
30.1884
 21
-2.99408
  0
LINE
  8
0
 10
30.1884
 20
-2.99408
 11
29.8116
 21
-2.99408
  0
LINE
  8
0
 10
14.8116
 20
-2.99408
 11
14.4379
 21
-2.94685
  0
LINE
  8
0
 10
14.4379
 20
-2.94685
 11
14.0729
 21
-2.85316
  0
LINE
  8
0
 10
14.0729
 20
-2.85316
 11
13.7227
 21
-2.71448
  0
LINE
  8
0
 10
13.7227
 20
-2.71448
 11
13.3925
 21
-2.53297
  0
LINE
  8
0
 10
13.3925
 20
-2.53297
 11
13.0877
 21
-2.31154
  0
LINE
  8
0
 10
13.0877
 20
-2.31154
 11
12.8131
 21
-2.05363
  0
LINE
  8
0
 10
12.8131
 20
-2.05363
 11
12.5729
 21
-1.76335
  0
LINE
  8
0
 10
12.5729
 20
-1.76335
 11
12.3711
 21
-1.44525
  0
LINE
  8
0
 10
12.3711
 20
-1.44525
 11
12.2107
 21
-1.10437
  0
LINE
  8
0
 10
12.2107
 20
-1.10437
 11
12.0942
 21
-0.746063
  0
LINE
  8
0
 10
12.0942
 20
-0.746063
 11
12.0237
 21
-0.375992
  0
LINE
  8
0
 10
12.0237
 20
-0.375992
 11
12
 21
0
  0
LINE
  8
0
 10
12
 20
0
 11
12.0237
 21
0.375992
  0
LINE
  8
0
 10
12.0237
 20
0.375992
 11
12.0942
 21
0.746063
  0
LINE
  8
0
 10
12.0942
 20
0.746063
 11
12.2107
 21
1.10437
  0
LINE
  8
0
 10
12.2107
 20
1.10437
 11
12.3711
 21
1.44525
  0
LINE
  8
0
 10
12.3711
 20
1.44525
 11
12.5729
 21
1.76335
  0
LINE
  8
0
 10
12.5729
 20
1.76335
 11
12.8131
 21
2.05363
  0
LINE
  8
0
 10
12.8131
 20
2.05363
 11
13.0877
 21
2.31154
  0
LINE
  8
0
 10
13.0877
 20
2.31154
 11
13.3925
 21
2.53297
  0
LINE
  8
0
 10
13.3925
 20
2.53297
 11
13.7227
 21
2.71448
  0
LINE
  8
0
 10
13.7227
 20
2.71448
 11
14.0729
 21
2.85316
  0
LINE
  8
0
 10
14.0729
 20
2.85316
 11
14.4379
 21
2.94685
  0
LINE
  8
0
 10
14.4379
 20
2.94685
 11
14.8116
 21
2.99408
  0
LINE
  8
0
 10
14.8116
 20
2.99408
 11
15.1884
 21
2.99408
  0
LINE
  8
0
 10
15.1884
 20
2.99408
 11
15.5621
 21
2.94685
  0
LINE
  8
0
 10
15.5621
 20
2.94685
 11
15.927
 21
2.85316
  0
LINE
  8
0
 10
15.927
 20
2.85316
 11
16.2773
 21
2.71448
  0
LINE
  8
0
 10
16.2773
 20
2.71448
 11
16.6075
 21
2.53297
  0
LINE
  8
0
 10
16.6075
 20
2.53297
 11
16.9123
 21
2.31154
  0
LINE
  8
0
 10
16.9123
 20
2.31154
 11
17.1869
 21
2.05363
  0
LINE
  8
0
 10
17.1869
 20
2.05363
 11
17.427
 21
1.76335
  0
LINE
  8
0
 10
17.427
 20
1.76335
 11
17.6289
 21
1.44525
  0
LINE
  8
0
 10
17.6289
 20
1.44525
 11
17.7893
 21
1.10437
  0
LINE
  8
0
 10
17.7893
 20
1.10437
 11
17.9057
 21
0.746063
  0
LINE
  8
0
 10
17.9057
 20
0.746063
 11
17.9763
 21
0.375992
  0
LINE
  8
0
 10
17.9763
 20
0.375992
 11
18
 21
0
  0
LINE
  8
0
 10
18
 20
0
 11
17.9763
 21
-0.375992
  0
LINE
  8
0
 10
17.9763
 20
-0.375992
 11
17.9057
 21
-0.746063
  0
LINE
  8
0
 10
17.9057
 20
-0.746063
 11
17.7893
 21
-1.10437
  0
LINE
  8
0
 10
17.7893
 20
-1.10437
 11
17.6289
 21
-1.44525
  0
LINE
  8
0
 10
17.6289
 20
-1.44525
 11
17.427
 21
-1.76335
  0
LINE
  8
0
 10
17.427
 20
-1.76335
 11
17.1869
 21
-2.05363
  0
LINE
  8
0
 10
17.1869
 20
-2.05363
 11
16.9123
 21
-2.31154
  0
LINE
  8
0
 10
16.9123
 20
-2.31154
 11
16.6075
 21
-2.53297
  0
LINE
  8
0
 10
16.6075
 20
-2.53297
 11
16.2773
 21
-2.71448
  0
LINE
  8
0
 10
16.2773
 20
-2.71448
 11
15.927
 21
-2.85316
  0
LINE
  8
0
 10
15.927
 20
-2.85316
 11
15.5621
 21
-2.94685
  0
LINE
  8
0
 10
15.5621
 20
-2.94685
 11
15.1884
 21
-2.99408
  0
LINE
  8
0
 10
15.1884
 20
-2.99408
 11
14.8116
 21
-2.99408
  0
LINE
  8
0
 10
44.8116
 20
-2.99408
 11
44.4379
 21
-2.94685
  0
LINE
  8
0
 10
44.4379
 20
-2.94685
 11
44.0729
 21
-2.85316
  0
LINE
  8
0
 10
44.0729
 20
-2.85316
 11
43.7227
 21
-2.71448
  0
LINE
  8
0
 10
43.7227
 20
-2.71448
 11
43.3925
 21
-2.53297
  0
LINE
  8
0
 10
43.3925
 20
-2.53297
 11
43.0877
 21
-2.31154
  0
LINE
  8
0
 10
43.0877
 20
-2.31154
 11
42.8131
 21
-2.05363
  0
LINE
  8
0
 10
42.8131
 20
-2.05363
 11
42.5729
 21
-1.76335
  0
LINE
  8
0
 10
42.5729
 20
-1.76335
 11
42.3711
 21
-1.44525
  0
LINE
  8
0
 10
42.3711
 20
-1.44525
 11
42.2107
 21
-1.10437
  0
LINE
  8
0
 10
42.2107
 20
-1.10437
 11
42.0942
 21
-0.746063
  0
LINE
  8
0
 10
42.0942
 20
-0.746063
 11
42.0237
 21
-0.375992
  0
LINE
  8
0
 10
42.0237
 20
-0.375992
 11
42
 21
0
  0
LINE
  8
0
 10
42
 20
0
 11
42.0237
 21
0.375992
  0
LINE
  8
0
 10
42.0237
 20
0.375992
 11
42.0942
 21
0.746063
  0
LINE
  8
0
 10
42.0942
 20
0.746063
 11
42.2107
 21
1.10437
  0
LINE
  8
0
 10
42.2107
 20
1.10437
 11
42.3711
 21
1.44525
  0
LINE
  8
0
 10
42.3711
 20
1.44525
 11
42.5729
 21
1.76335
  0
LINE
  8
0
 10
42.5729
 20
1.76335
 11
42.8131
 21
2.05363
  0
LINE
  8
0
 10
42.8131
 20
2.05363
 11
43.0877
 21
2.31154
  0
LINE
  8
0
 10
43.0877
 20
2.31154
 11
43.3925
 21
2.53297
  0
LINE
  8
0
 10
43.3925
 20
2.53297
 11
43.7227
 21
2.71448
  0
LINE
  8
0
 10
43.7227
 20
2.71448
 11
44.0729
 21
2.85316
  0
LINE
  8
0
 10
44.0729
 20
2.85316
 11
44.4379
 21
2.94685
  0
LINE
  8
0
 10
44.4379
 20
2.94685
 11
44.8116
 21
2.99408
  0
LINE
  8
0
 10
44.8116
 20
2.99408
 11
45.1884
 21
2.99408
  0
LINE
  8
0
 10
45.1884
 20
2.99408
 11
45.5621
 21
2.94685
  0
LINE
  8
0
 10
45.5621
 20
2.94685
 11
45.927
 21
2.85316
  0
LINE
  8
0
 10
45.927
 20
2.85316
 11
46.2773
 21
2.71448
  0
LINE
  8
0
 10
46.2773
 20
2.71448
 11
46.6075
 21
2.53297
  0
LINE
  8
0
 10
46.6075
 20
2.53297
 11
46.9123
 21
2.31154
  0
LINE
  8
0
 10
46.9123
 20
2.31154
 11
47.1869
 21
2.05363
  0
LINE
  8
0
 10
47.1869
 20
2.05363
 11
47.427
 21
1.76335
  0
LINE
  8
0
 10
47.427
 20
1.76335
 11
47.6289
 21
1.44525
  0
LINE
  8
0
 10
47.6289
 20
1.44525
 11
47.7893
 21
1.10437
  0
LINE
  8
0
 10
47.7893
 20
1.10437
 11
47.9057
 21
0.746063
  0
LINE
  8
0
 10
47.9057
 20
0.746063
 11
47.9763
 21
0.375992
  0
LINE
  8
0
 10
47.9763
 20
0.375992
 11
48
 21
0
  0
LINE
  8
0
 10
48
 20
0
 11
47.9763
 21
-0.375992
  0
LINE
  8
0
 10
47.9763
 20
-0.375992
 11
47.9057
 21
-0.746063
  0
LINE
  8
0
 10
47.9057
 20
-0.746063
 11
47.7893
 21
-1.10437
  0
LINE
  8
0
 10
47.7893
 20
-1.10437
 11
47.6289
 21
-1.44525
  0
LINE
  8
0
 10
47.6289
 20
-1.44525
 11
47.427
 21
-1.76335
  0
LINE
  8
0
 10
47.427
 20
-1.76335
 11
47.1869
 21
-2.05363
  0
LINE
  8
0
 10
47.1869
 20
-2.05363
 11
46.9123
 21
-2.31154
  0
LINE
  8
0
 10
46.9123
 20
-2.31154
 11
46.6075
 21
-2.53297
  0
LINE
  8
0
 10
46.6075
 20
-2.53297
 11
46.2773
 21
-2.71448
  0
LINE
  8
0
 10
46.2773
 20
-2.71448
 11
45.927
 21
-2.85316
  0
LINE
  8
0
 10
45.927
 20
-2.85316
 11
45.5621
 21
-2.94685
  0
LINE
  8
0
 10
45.5621
 20
-2.94685
 11
45.1884
 21
-2.99408
  0
LINE
  8
0
 10
45.1884
 20
-2.99408
 11
44.8116
 21
-2.99408
  0
LINE
  8
0
 10
59.8116
 20
-2.99408
 11
59.4379
 21
-2.94685
  0
LINE
  8
0
 10
59.4379
 20
-2.94685
 11
59.0729
 21
-2.85316
  0
LINE
  8
0
 10
59.0729
 20
-2.85316
 11
58.7227
 21
-2.71448
  0
LINE
  8
0
 10
58.7227
 20
-2.71448
 11
58.3925
 21
-2.53297
  0
LINE
  8
0
 10
58.3925
 20
-2.53297
 11
58.0877
 21
-2.31154
  0
LINE
  8
0
 10
58.0877
 20
-2.31154
 11
57.8131
 21
-2.05363
  0
LINE
  8
0
 10
57.8131
 20
-2.05363
 11
57.5729
 21
-1.76335
  0
LINE
  8
0
 10
57.5729
 20
-1.76335
 11
57.3711
 21
-1.44525
  0
LINE
  8
0
 10
57.3711
 20
-1.44525
 11
57.2107
 21
-1.10437
  0
LINE
  8
0
 10
57.2107
 20
-1.10437
 11
57.0942
 21
-0.746063
  0
LINE
  8
0
 10
57.0942
 20
-0.746063
 11
57.0237
 21
-0.375992
  0
LINE
  8
0
 10
57.0237
 20
-0.375992
 11
57
 21
0
  0
LINE
  8
0
 10
57
 20
0
 11
57.0237
 21
0.375992
  0
LINE
  8
0
 10
57.0237
 20
0.375992
 11
57.0942
 21
0.746063
  0
LINE
  8
0
 10
57.0942
 20
0.746063
 11
57.2107
 21
1.10437
  0
LINE
  8
0
 10
57.2107
 20
1.10437
 11
57.3711
 21
1.44525
  0
LINE
  8
0
 10
57.3711
 20
1.44525
 11
57.5729
 21
1.76335
  0
LINE
  8
0
 10
57.5729
 20
1.76335
 11
57.8131
 21
2.05363
  0
LINE
  8
0
 10
57.8131
 20
2.05363
 11
58.0877
 21
2.31154
  0
LINE
  8
0
 10
58.0877
 20
2.31154
 11
58.3925
 21
2.53297
  0
LINE
  8
0
 10
58.3925
 20
2.53297
 11
58.7227
 21
2.71448
  0
LINE
  8
0
 10
58.7227
 20
2.71448
 11
59.0729
 21
2.85316
  0
LINE
  8
0
 10
59.0729
 20
2.85316
 11
59.4379
 21
2.94685
  0
LINE
  8
0
 10
59.4379
 20
2.94685
 11
59.8116
 21
2.99408
  0
LINE
  8
0
 10
59.8116
 20
2.99408
 11
60.1884
 21
2.99408
  0
LINE
  8
0
 10
60.1884
 20
2.99408
 11
60.5621
 21
2.94685
  0
LINE
  8
0
 10
60.5621
 20
2.94685
 11
60.927
 21
2.85316
  0
LINE
  8
0
 10
60.927
 20
2.85316
 11
61.2773
 21
2.71448
  0
LINE
  8
0
 10
61.2773
 20
2.71448
 11
61.6075
 21
2.53297
  0
LINE
  8
0
 10
61.6075
 20
2.53297
 11
61.9123
 21
2.31154
  0
LINE
  8
0
 10
61.9123
 20
2.31154
 11
62.1869
 21
2.05363
  0
LINE
  8
0
 10
62.1869
 20
2.05363
 11
62.427
 21
1.76335
  0
LINE
  8
0
 10
62.427
 20
1.76335
 11
62.6289
 21
1.44525
  0
LINE
  8
0
 10
62.6289
 20
1.44525
 11
62.7893
 21
1.10437
  0
LINE
  8
0
 10
62.7893
 20
1.10437
 11
62.9057
 21
0.746063
  0
LINE
  8
0
 10
62.9057
 20
0.746063
 11
62.9763
 21
0.375992
  0
LINE
  8
0
 10
62.9763
 20
0.375992
 11
63
 21
0
  0
LINE
  8
0
 10
63
 20
0
 11
62.9763
 21
-0.375992
  0
LINE
  8
0
 10
62.9763
 20
-0.375992
 11
62.9057
 21
-0.746063
  0
LINE
  8
0
 10
62.9057
 20
-0.746063
 11
62.7893
 21
-1.10437
  0
LINE
  8
0
 10
62.7893
 20
-1.10437
 11
62.6289
 21
-1.44525
  0
LINE
  8
0
 10
62.6289
 20
-1.44525
 11
62.427
 21
-1.76335
  0
LINE
  8
0
 10
62.427
 20
-1.76335
 11
62.1869
 21
-2.05363
  0
LINE
  8
0
 10
62.1869
 20
-2.05363
 11
61.9123
 21
-2.31154
  0
LINE
  8
0
 10
61.9123
 20
-2.31154
 11
61.6075
 21
-2.53297
  0
LINE
  8
0
 10
61.6075
 20
-2.53297
 11
61.2773
 21
-2.71448
  0
LINE
  8
0
 10
61.2773
 20
-2.71448
 11
60.927
 21
-2.85316
  0
LINE
  8
0
 10
60.927
 20
-2.85316
 11
60.5621
 21
-2.94685
  0
LINE
  8
0
 10
60.5621
 20
-2.94685
 11
60.1884
 21
-2.99408
  0
LINE
  8
0
 10
60.1884
 20
-2.99408
 11
59.8116
 21
-2.99408
  0
LINE
  8
0
 10
-7.59418
 20
-1.49704
 11
-7.78107
 21
-1.47342
  0
LINE
  8
0
 10
-7.78107
 20
-1.47342
 11
-7.96352
 21
-1.42657
  0
LINE
  8
0
 10
-7.96352
 20
-1.42657
 11
-8.13866
 21
-1.35724
  0
LINE
  8
0
 10
-8.13866
 20
-1.35724
 11
-8.30373
 21
-1.26648
  0
LINE
  8
0
 10
-8.30373
 20
-1.26648
 11
-8.45613
 21
-1.15576
  0
LINE
  8
0
 10
-8.45613
 20
-1.15576
 11
-8.59344
 21
-1.02681
  0
LINE
  8
0
 10
-8.59344
 20
-1.02681
 11
-8.71352
 21
-0.881668
  0
LINE
  8
0
 10
-8.71352
 20
-0.881668
 11
-8.81445
 21
-0.722626
  0
LINE
  8
0
 10
-8.81445
 20
-0.722626
 11
-8.89465
 21
-0.552185
  0
LINE
  8
0
 10
-8.89465
 20
-0.552185
 11
-8.95287
 21
-0.373032
  0
LINE
  8
0
 10
-8.95287
 20
-0.373032
 11
-8.98816
 21
-0.187988
  0
LINE
  8
0
 10
-8.98816
 20
-0.187988
 11
-9
 21
0
  0
LINE
  8
0
 10
-9
 20
0
 11
-8.98816
 21
0.187988
  0
LINE
  8
0
 10
-8.98816
 20
0.187988
 11
-8.95287
 21
0.373032
  0
LINE
  8
0
 10
-8.95287
 20
0.373032
 11
-8.89465
 21
0.552185
  0
LINE
  8
0
 10
-8.89465
 20
0.552185
 11
-8.81445
 21
0.722626
  0
LINE
  8
0
 10
-8.81445
 20
0.722626
 11
-8.71352
 21
0.881668
  0
LINE
  8
0
 10
-8.71352
 20
0.881668
 11
-8.59344
 21
1.02681
  0
LINE
  8
0
 10
-8.59344
 20
1.02681
 11
-8.45613
 21
1.15576
  0
LINE
  8
0
 10
-8.45613
 20
1.15576
 11
-8.30373
 21
1.26648
  0
LINE
  8
0
 10
-8.30373
 20
1.26648
 11
-8.13866
 21
1.35724
  0
LINE
  8
0
 10
-8.13866
 20
1.35724
 11
-7.96352
 21
1.42657
  0
LINE
  8
0
 10
-7.96352
 20
1.42657
 11
-7.78107
 21
1.47342
  0
LINE
  8
0
 10
-7.78107
 20
1.47342
 11
-7.59418
 21
1.49704
  0
LINE
  8
0
 10
-7.59418
 20
1.49704
 11
-7.40581
 21
1.49704
  0
LINE
  8
0
 10
-7.40581
 20
1.49704
 11
-7.21892
 21
1.47342
  0
LINE
  8
0
 10
-7.21892
 20
1.47342
 11
-7.03647
 21
1.42657
  0
LINE
  8
0
 10
-7.03647
 20
1.42657
 11
-6.86133
 21
1.35724
  0
LINE
  8
0
 10
-6.86133
 20
1.35724
 11
-6.69626
 21
1.26648
  0
LINE
  8
0
 10
-6.69626
 20
1.26648
 11
-6.54385
 21
1.15576
  0
LINE
  8
0
 10
-6.54385
 20
1.15576
 11
-6.40654
 21
1.02681
  0
LINE
  8
0
 10
-6.40654
 20
1.02681
 11
-6.28647
 21
0.881668
  0
LINE
  8
0
 10
-6.28647
 20
0.881668
 11
-6.18553
 21
0.722626
  0
LINE
  8
0
 10
-6.18553
 20
0.722626
 11
-6.10533
 21
0.552185
  0
LINE
  8
0
 10
-6.10533
 20
0.552185
 11
-6.04712
 21
0.373032
  0
LINE
  8
0
 10
-6.04712
 20
0.373032
 11
-6.01183
 21
0.187988
  0
LINE
  8
0
 10
-6.01183
 20
0.187988
 11
-6
 21
0
  0
LINE
  8
0
 10
-6
 20
0
 11
-6.01183
 21
-0.187988
  0
LINE
  8
0
 10
-6.01183
 20
-0.187988
 11
-6.04712
 21
-0.373032
  0
LINE
  8
0
 10
-6.04712
 20
-0.373032
 11
-6.10533
 21
-0.552185
  0
LINE
  8
0
 10
-6.10533
 20
-0.552185
 11
-6.18553
 21
-0.722626
  0
LINE
  8
0
 10
-6.18553
 20
-0.722626
 11
-6.28647
 21
-0.881668
  0
LINE
  8
0
 10
-6.28647
 20
-0.881668
 11
-6.40654
 21
-1.02681
  0
LINE
  8
0
 10
-6.40654
 20
-1.02681
 11
-6.54385
 21
-1.15576
  0
LINE
  8
0
 10
-6.54385
 20
-1.15576
 11
-6.69626
 21
-1.26648
  0
LINE
  8
0
 10
-6.69626
 20
-1.26648
 11
-6.86133
 21
-1.35724
  0
LINE
  8
0
 10
-6.86133
 20
-1.35724
 11
-7.03647
 21
-1.42657
  0
LINE
  8
0
 10
-7.03647
 20
-1.42657
 11
-7.21892
 21
-1.47342
  0
LINE
  8
0
 10
-7.21892
 20
-1.47342
 11
-7.40581
 21
-1.49704
  0
LINE
  8
0
 10
-7.40581
 20
-1.49704
 11
-7.59418
 21
-1.49704
  0
LINE
  8
0
 10
-67.5942
 20
-1.49704
 11
-67.7811
 21
-1.47342
  0
LINE
  8
0
 10
-67.7811
 20
-1.47342
 11
-67.9635
 21
-1.42657
  0
LINE
  8
0
 10
-67.9635
 20
-1.42657
 11
-68.1387
 21
-1.35724
  0
LINE
  8
0
 10
-68.1387
 20
-1.35724
 11
-68.3037
 21
-1.26648
  0
LINE
  8
0
 10
-68.3037
 20
-1.26648
 11
-68.4561
 21
-1.15576
  0
LINE
  8
0
 10
-68.4561
 20
-1.15576
 11
-68.5934
 21
-1.02681
  0
LINE
  8
0
 10
-68.5934
 20
-1.02681
 11
-68.7135
 21
-0.881668
  0
LINE
  8
0
 10
-68.7135
 20
-0.881668
 11
-68.8145
 21
-0.722626
  0
LINE
  8
0
 10
-68.8145
 20
-0.722626
 11
-68.8947
 21
-0.552185
  0
LINE
  8
0
 10
-68.8947
 20
-0.552185
 11
-68.9529
 21
-0.373032
  0
LINE
  8
0
 10
-68.9529
 20
-0.373032
 11
-68.9882
 21
-0.187988
  0
LINE
  8
0
 10
-68.9882
 20
-0.187988
 11
-69
 21
0
  0
LINE
  8
0
 10
-69
 20
0
 11
-68.9882
 21
0.187988
  0
LINE
  8
0
 10
-68.9882
 20
0.187988
 11
-68.9529
 21
0.373032
  0
LINE
  8
0
 10
-68.9529
 20
0.373032
 11
-68.8947
 21
0.552185
  0
LINE
  8
0
 10
-68.8947
 20
0.552185
 11
-68.8145
 21
0.722626
  0
LINE
  8
0
 10
-68.8145
 20
0.722626
 11
-68.7135
 21
0.881668
  0
LINE
  8
0
 10
-68.7135
 20
0.881668
 11
-68.5934
 21
1.02681
  0
LINE
  8
0
 10
-68.5934
 20
1.02681
 11
-68.4561
 21
1.15576
  0
LINE
  8
0
 10
-68.4561
 20
1.15576
 11
-68.3037
 21
1.26648
  0
LINE
  8
0
 10
-68.3037
 20
1.26648
 11
-68.1387
 21
1.35724
  0
LINE
  8
0
 10
-68.1387
 20
1.35724
 11
-67.9635
 21
1.42657
  0
LINE
  8
0
 10
-67.9635
 20
1.42657
 11
-67.7811
 21
1.47342
  0
LINE
  8
0
 10
-67.7811
 20
1.47342
 11
-67.5942
 21
1.49704
  0
LINE
  8
0
 10
-67.5942
 20
1.49704
 11
-67.4058
 21
1.49704
  0
LINE
  8
0
 10
-67.4058
 20
1.49704
 11
-67.2189
 21
1.47342
  0
LINE
  8
0
 10
-67.2189
 20
1.47342
 11
-67.0365
 21
1.42657
  0
LINE
  8
0
 10
-67.0365
 20
1.42657
 11
-66.8613
 21
1.35724
  0
LINE
  8
0
 10
-66.8613
 20
1.35724
 11
-66.6963
 21
1.26648
  0
LINE
  8
0
 10
-66.6963
 20
1.26648
 11
-66.5439
 21
1.15576
  0
LINE
  8
0
 10
-66.5439
 20
1.15576
 11
-66.4065
 21
1.02681
  0
LINE
  8
0
 10
-66.4065
 20
1.02681
 11
-66.2865
 21
0.881668
  0
LINE
  8
0
 10
-66.2865
 20
0.881668
 11
-66.1855
 21
0.722626
  0
LINE
  8
0
 10
-66.1855
 20
0.722626
 11
-66.1053
 21
0.552185
  0
LINE
  8
0
 10
-66.1053
 20
0.552185
 11
-66.0471
 21
0.373032
  0
LINE
  8
0
 10
-66.0471
 20
0.373032
 11
-66.0118
 21
0.187988
  0
LINE
  8
0
 10
-66.0118
 20
0.187988
 11
-66
 21
0
  0
LINE
  8
0
 10
-66
 20
0
 11
-66.0118
 21
-0.187988
  0
LINE
  8
0
 10
-66.0118
 20
-0.187988
 11
-66.0471
 21
-0.373032
  0
LINE
  8
0
 10
-66.0471
 20
-0.373032
 11
-66.1053
 21
-0.552185
  0
LINE
  8
0
 10
-66.1053
 20
-0.552185
 11
-66.1855
 21
-0.722626
  0
LINE
  8
0
 10
-66.1855
 20
-0.722626
 11
-66.2865
 21
-0.881668
  0
LINE
  8
0
 10
-66.2865
 20
-0.881668
 11
-66.4065
 21
-1.02681
  0
LINE
  8
0
 10
-66.4065
 20
-1.02681
 11
-66.5439
 21
-1.15576
  0
LINE
  8
0
 10
-66.5439
 20
-1.15576
 11
-66.6963
 21
-1.26648
  0
LINE
  8
0
 10
-66.6963
 20
-1.26648
 11
-66.8613
 21
-1.35724
  0
LINE
  8
0
 10
-66.8613
 20
-1.35724
 11
-67.0365
 21
-1.42657
  0
LINE
  8
0
 10
-67.0365
 20
-1.42657
 11
-67.2189
 21
-1.47342
  0
LINE
  8
0
 10
-67.2189
 20
-1.47342
 11
-67.4058
 21
-1.49704
  0
LINE
  8
0
 10
-67.4058
 20
-1.49704
 11
-67.5942
 21
-1.49704
  0
LINE
  8
0
 10
22.4058
 20
-1.49704
 11
22.2189
 21
-1.47342
  0
LINE
  8
0
 10
22.2189
 20
-1.47342
 11
22.0365
 21
-1.42657
  0
LINE
  8
0
 10
22.0365
 20
-1.42657
 11
21.8613
 21
-1.35724
  0
LINE
  8
0
 10
21.8613
 20
-1.35724
 11
21.6963
 21
-1.26648
  0
LINE
  8
0
 10
21.6963
 20
-1.26648
 11
21.5439
 21
-1.15576
  0
LINE
  8
0
 10
21.5439
 20
-1.15576
 11
21.4065
 21
-1.02681
  0
LINE
  8
0
 10
21.4065
 20
-1.02681
 11
21.2865
 21
-0.881668
  0
LINE
  8
0
 10
21.2865
 20
-0.881668
 11
21.1855
 21
-0.722626
  0
LINE
  8
0
 10
21.1855
 20
-0.722626
 11
21.1053
 21
-0.552185
  0
LINE
  8
0
 10
21.1053
 20
-0.552185
 11
21.0471
 21
-0.373032
  0
LINE
  8
0
 10
21.0471
 20
-0.373032
 11
21.0118
 21
-0.187988
  0
LINE
  8
0
 10
21.0118
 20
-0.187988
 11
21
 21
0
  0
LINE
  8
0
 10
21
 20
0
 11
21.0118
 21
0.187988
  0
LINE
  8
0
 10
21.0118
 20
0.187988
 11
21.0471
 21
0.373032
  0
LINE
  8
0
 10
21.0471
 20
0.373032
 11
21.1053
 21
0.552185
  0
LINE
  8
0
 10
21.1053
 20
0.552185
 11
21.1855
 21
0.722626
  0
LINE
  8
0
 10
21.1855
 20
0.722626
 11
21.2865
 21
0.881668
  0
LINE
  8
0
 10
21.2865
 20
0.881668
 11
21.4065
 21
1.02681
  0
LINE
  8
0
 10
21.4065
 20
1.02681
 11
21.5439
 21
1.15576
  0
LINE
  8
0
 10
21.5439
 20
1.15576
 11
21.6963
 21
1.26648
  0
LINE
  8
0
 10
21.6963
 20
1.26648
 11
21.8613
 21
1.35724
  0
LINE
  8
0
 10
21.8613
 20
1.35724
 11
22.0365
 21
1.42657
  0
LINE
  8
0
 10
22.0365
 20
1.42657
 11
22.2189
 21
1.47342
  0
LINE
  8
0
 10
22.2189
 20
1.47342
 11
22.4058
 21
1.49704
  0
LINE
  8
0
 10
22.4058
 20
1.49704
 11
22.5942
 21
1.49704
  0
LINE
  8
0
 10
22.5942
 20
1.49704
 11
22.7811
 21
1.47342
  0
LINE
  8
0
 10
22.7811
 20
1.47342
 11
22.9635
 21
1.42657
  0
LINE
  8
0
 10
22.9635
 20
1.42657
 11
23.1387
 21
1.35724
  0
LINE
  8
0
 10
23.1387
 20
1.35724
 11
23.3037
 21
1.26648
  0
LINE
  8
0
 10
23.3037
 20
1.26648
 11
23.4561
 21
1.15576
  0
LINE
  8
0
 10
23.4561
 20
1.15576
 11
23.5934
 21
1.02681
  0
LINE
  8
0
 10
23.5934
 20
1.02681
 11
23.7135
 21
0.881668
  0
LINE
  8
0
 10
23.7135
 20
0.881668
 11
23.8145
 21
0.722626
  0
LINE
  8
0
 10
23.8145
 20
0.722626
 11
23.8947
 21
0.552185
  0
LINE
  8
0
 10
23.8947
 20
0.552185
 11
23.9529
 21
0.373032
  0
LINE
  8
0
 10
23.9529
 20
0.373032
 11
23.9882
 21
0.187988
  0
LINE
  8
0
 10
23.9882
 20
0.187988
 11
24
 21
0
  0
LINE
  8
0
 10
24
 20
0
 11
23.9882
 21
-0.187988
  0
LINE
  8
0
 10
23.9882
 20
-0.187988
 11
23.9529
 21
-0.373032
  0
LINE
  8
0
 10
23.9529
 20
-0.373032
 11
23.8947
 21
-0.552185
  0
LINE
  8
0
 10
23.8947
 20
-0.552185
 11
23.8145
 21
-0.722626
  0
LINE
  8
0
 10
23.8145
 20
-0.722626
 11
23.7135
 21
-0.881668
  0
LINE
  8
0
 10
23.7135
 20
-0.881668
 11
23.5934
 21
-1.02681
  0
LINE
  8
0
 10
23.5934
 20
-1.02681
 11
23.4561
 21
-1.15576
  0
LINE
  8
0
 10
23.4561
 20
-1.15576
 11
23.3037
 21
-1.26648
  0
LINE
  8
0
 10
23.3037
 20
-1.26648
 11
23.1387
 21
-1.35724
  0
LINE
  8
0
 10
23.1387
 20
-1.35724
 11
22.9635
 21
-1.42657
  0
LINE
  8
0
 10
22.9635
 20
-1.42657
 11
22.7811
 21
-1.47342
  0
LINE
  8
0
 10
22.7811
 20
-1.47342
 11
22.5942
 21
-1.49704
  0
LINE
  8
0
 10
22.5942
 20
-1.49704
 11
22.4058
 21
-1.49704
  0
LINE
  8
0
 10
-52.5942
 20
-1.49704
 11
-52.7811
 21
-1.47342
  0
LINE
  8
0
 10
-52.7811
 20
-1.47342
 11
-52.9635
 21
-1.42657
  0
LINE
  8
0
 10
-52.9635
 20
-1.42657
 11
-53.1387
 21
-1.35724
  0
LINE
  8
0
 10
-53.1387
 20
-1.35724
 11
-53.3037
 21
-1.26648
  0
LINE
  8
0
 10
-53.3037
 20
-1.26648
 11
-53.4561
 21
-1.15576
  0
LINE
  8
0
 10
-53.4561
 20
-1.15576
 11
-53.5934
 21
-1.02681
  0
LINE
  8
0
 10
-53.5934
 20
-1.02681
 11
-53.7135
 21
-0.881668
  0
LINE
  8
0
 10
-53.7135
 20
-0.881668
 11
-53.8145
 21
-0.722626
  0
LINE
  8
0
 10
-53.8145
 20
-0.722626
 11
-53.8947
 21
-0.552185
  0
LINE
  8
0
 10
-53.8947
 20
-0.552185
 11
-53.9529
 21
-0.373032
  0
LINE
  8
0
 10
-53.9529
 20
-0.373032
 11
-53.9882
 21
-0.187988
  0
LINE
  8
0
 10
-53.9882
 20
-0.187988
 11
-54
 21
0
  0
LINE
  8
0
 10
-54
 20
0
 11
-53.9882
 21
0.187988
  0
LINE
  8
0
 10
-53.9882
 20
0.187988
 11
-53.9529
 21
0.373032
  0
LINE
  8
0
 10
-53.9529
 20
0.373032
 11
-53.8947
 21
0.552185
  0
LINE
  8
0
 10
-53.8947
 20
0.552185
 11
-53.8145
 21
0.722626
  0
LINE
  8
0
 10
-53.8145
 20
0.722626
 11
-53.7135
 21
0.881668
  0
LINE
  8
0
 10
-53.7135
 20
0.881668
 11
-53.5934
 21
1.02681
  0
LINE
  8
0
 10
-53.5934
 20
1.02681
 11
-53.4561
 21
1.15576
  0
LINE
  8
0
 10
-53.4561
 20
1.15576
 11
-53.3037
 21
1.26648
  0
LINE
  8
0
 10
-53.3037
 20
1.26648
 11
-53.1387
 21
1.35724
  0
LINE
  8
0
 10
-53.1387
 20
1.35724
 11
-52.9635
 21
1.42657
  0
LINE
  8
0
 10
-52.9635
 20
1.42657
 11
-52.7811
 21
1.47342
  0
LINE
  8
0
 10
-52.7811
 20
1.47342
 11
-52.5942
 21
1.49704
  0
LINE
  8
0
 10
-52.5942
 20
1.49704
 11
-52.4058
 21
1.49704
  0
LINE
  8
0
 10
-52.4058
 20
1.49704
 11
-52.2189
 21
1.47342
  0
LINE
  8
0
 10
-52.2189
 20
1.47342
 11
-52.0365
 21
1.42657
  0
LINE
  8
0
 10
-52.0365
 20
1.42657
 11
-51.8613
 21
1.35724
  0
LINE
  8
0
 10
-51.8613
 20
1.35724
 11
-51.6963
 21
1.26648
  0
LINE
  8
0
 10
-51.6963
 20
1.26648
 11
-51.5439
 21
1.15576
  0
LINE
  8
0
 10
-51.5439
 20
1.15576
 11
-51.4065
 21
1.02681
  0
LINE
  8
0
 10
-51.4065
 20
1.02681
 11
-51.2865
 21
0.881668
  0
LINE
  8
0
 10
-51.2865
 20
0.881668
 11
-51.1855
 21
0.722626
  0
LINE
  8
0
 10
-51.1855
 20
0.722626
 11
-51.1053
 21
0.552185
  0
LINE
  8
0
 10
-51.1053
 20
0.552185
 11
-51.0471
 21
0.373032
  0
LINE
  8
0
 10
-51.0471
 20
0.373032
 11
-51.0118
 21
0.187988
  0
LINE
  8
0
 10
-51.0118
 20
0.187988
 11
-51
 21
0
  0
LINE
  8
0
 10
-51
 20
0
 11
-51.0118
 21
-0.187988
  0
LINE
  8
0
 10
-51.0118
 20
-0.187988
 11
-51.0471
 21
-0.373032
  0
LINE
  8
0
 10
-51.0471
 20
-0.373032
 11
-51.1053
 21
-0.552185
  0
LINE
  8
0
 10
-51.1053
 20
-0.552185
 11
-51.1855
 21
-0.722626
  0
LINE
  8
0
 10
-51.1855
 20
-0.722626
 11
-51.2865
 21
-0.881668
  0
LINE
  8
0
 10
-51.2865
 20
-0.881668
 11
-51.4065
 21
-1.02681
  0
LINE
  8
0
 10
-51.4065
 20
-1.02681
 11
-51.5439
 21
-1.15576
  0
LINE
  8
0
 10
-51.5439
 20
-1.15576
 11
-51.6963
 21
-1.26648
  0
LINE
  8
0
 10
-51.6963
 20
-1.26648
 11
-51.8613
 21
-1.35724
  0
LINE
  8
0
 10
-51.8613
 20
-1.35724
 11
-52.0365
 21
-1.42657
  0
LINE
  8
0
 10
-52.0365
 20
-1.42657
 11
-52.2189
 21
-1.47342
  0
LINE
  8
0
 10
-52.2189
 20
-1.47342
 11
-52.4058
 21
-1.49704
  0
LINE
  8
0
 10
-52.4058
 20
-1.49704
 11
-52.5942
 21
-1.49704
  0
LINE
  8
0
 10
7.40581
 20
-1.49704
 11
7.21892
 21
-1.47342
  0
LINE
  8
0
 10
7.21892
 20
-1.47342
 11
7.03647
 21
-1.42657
  0
LINE
  8
0
 10
7.03647
 20
-1.42657
 11
6.86133
 21
-1.35724
  0
LINE
  8
0
 10
6.86133
 20
-1.35724
 11
6.69626
 21
-1.26648
  0
LINE
  8
0
 10
6.69626
 20
-1.26648
 11
6.54385
 21
-1.15576
  0
LINE
  8
0
 10
6.54385
 20
-1.15576
 11
6.40654
 21
-1.02681
  0
LINE
  8
0
 10
6.40654
 20
-1.02681
 11
6.28647
 21
-0.881668
  0
LINE
  8
0
 10
6.28647
 20
-0.881668
 11
6.18553
 21
-0.722626
  0
LINE
  8
0
 10
6.18553
 20
-0.722626
 11
6.10533
 21
-0.552185
  0
LINE
  8
0
 10
6.10533
 20
-0.552185
 11
6.04712
 21
-0.373032
  0
LINE
  8
0
 10
6.04712
 20
-0.373032
 11
6.01183
 21
-0.187988
  0
LINE
  8
0
 10
6.01183
 20
-0.187988
 11
6
 21
0
  0
LINE
  8
0
 10
6
 20
0
 11
6.01183
 21
0.187988
  0
LINE
  8
0
 10
6.01183
 20
0.187988
 11
6.04712
 21
0.373032
  0
LINE
  8
0
 10
6.04712
 20
0.373032
 11
6.10533
 21
0.552185
  0
LINE
  8
0
 10
6.10533
 20
0.552185
 11
6.18553
 21
0.722626
  0
LINE
  8
0
 10
6.18553
 20
0.722626
 11
6.28647
 21
0.881668
  0
LINE
  8
0
 10
6.28647
 20
0.881668
 11
6.40654
 21
1.02681
  0
LINE
  8
0
 10
6.40654
 20
1.02681
 11
6.54385
 21
1.15576
  0
LINE
  8
0
 10
6.54385
 20
1.15576
 11
6.69626
 21
1.26648
  0
LINE
  8
0
 10
6.69626
 20
1.26648
 11
6.86133
 21
1.35724
  0
LINE
  8
0
 10
6.86133
 20
1.35724
 11
7.03647
 21
1.42657
  0
LINE
  8
0
 10
7.03647
 20
1.42657
 11
7.21892
 21
1.47342
  0
LINE
  8
0
 10
7.21892
 20
1.47342
 11
7.40581
 21
1.49704
  0
LINE
  8
0
 10
7.40581
 20
1.49704
 11
7.59418
 21
1.49704
  0
LINE
  8
0
 10
7.59418
 20
1.49704
 11
7.78107
 21
1.47342
  0
LINE
  8
0
 10
7.78107
 20
1.47342
 11
7.96352
 21
1.42657
  0
LINE
  8
0
 10
7.96352
 20
1.42657
 11
8.13866
 21
1.35724
  0
LINE
  8
0
 10
8.13866
 20
1.35724
 11
8.30373
 21
1.26648
  0
LINE
  8
0
 10
8.30373
 20
1.26648
 11
8.45613
 21
1.15576
  0
LINE
  8
0
 10
8.45613
 20
1.15576
 11
8.59344
 21
1.02681
  0
LINE
  8
0
 10
8.59344
 20
1.02681
 11
8.71352
 21
0.881668
  0
LINE
  8
0
 10
8.71352
 20
0.881668
 11
8.81445
 21
0.722626
  0
LINE
  8
0
 10
8.81445
 20
0.722626
 11
8.89465
 21
0.552185
  0
LINE
  8
0
 10
8.89465
 20
0.552185
 11
8.95287
 21
0.373032
  0
LINE
  8
0
 10
8.95287
 20
0.373032
 11
8.98816
 21
0.187988
  0
LINE
  8
0
 10
8.98816
 20
0.187988
 11
9
 21
0
  0
LINE
  8
0
 10
9
 20
0
 11
8.98816
 21
-0.187988
  0
LINE
  8
0
 10
8.98816
 20
-0.187988
 11
8.95287
 21
-0.373032
  0
LINE
  8
0
 10
8.95287
 20
-0.373032
 11
8.89465
 21
-0.552185
  0
LINE
  8
0
 10
8.89465
 20
-0.552185
 11
8.81445
 21
-0.722626
  0
LINE
  8
0
 10
8.81445
 20
-0.722626
 11
8.71352
 21
-0.881668
  0
LINE
  8
0
 10
8.71352
 20
-0.881668
 11
8.59344
 21
-1.02681
  0
LINE
  8
0
 10
8.59344
 20
-1.02681
 11
8.45613
 21
-1.15576
  0
LINE
  8
0
 10
8.45613
 20
-1.15576
 11
8.30373
 21
-1.26648
  0
LINE
  8
0
 10
8.30373
 20
-1.26648
 11
8.13866
 21
-1.35724
  0
LINE
  8
0
 10
8.13866
 20
-1.35724
 11
7.96352
 21
-1.42657
  0
LINE
  8
0
 10
7.96352
 20
-1.42657
 11
7.78107
 21
-1.47342
  0
LINE
  8
0
 10
7.78107
 20
-1.47342
 11
7.59418
 21
-1.49704
  0
LINE
  8
0
 10
7.59418
 20
-1.49704
 11
7.40581
 21
-1.49704
  0
LINE
  8
0
 10
82.4058
 20
-1.49704
 11
82.2189
 21
-1.47342
  0
LINE
  8
0
 10
82.2189
 20
-1.47342
 11
82.0365
 21
-1.42657
  0
LINE
  8
0
 10
82.0365
 20
-1.42657
 11
81.8613
 21
-1.35724
  0
LINE
  8
0
 10
81.8613
 20
-1.35724
 11
81.6963
 21
-1.26648
  0
LINE
  8
0
 10
81.6963
 20
-1.26648
 11
81.5439
 21
-1.15576
  0
LINE
  8
0
 10
81.5439
 20
-1.15576
 11
81.4065
 21
-1.02681
  0
LINE
  8
0
 10
81.4065
 20
-1.02681
 11
81.2865
 21
-0.881668
  0
LINE
  8
0
 10
81.2865
 20
-0.881668
 11
81.1855
 21
-0.722626
  0
LINE
  8
0
 10
81.1855
 20
-0.722626
 11
81.1053
 21
-0.552185
  0
LINE
  8
0
 10
81.1053
 20
-0.552185
 11
81.0471
 21
-0.373032
  0
LINE
  8
0
 10
81.0471
 20
-0.373032
 11
81.0118
 21
-0.187988
  0
LINE
  8
0
 10
81.0118
 20
-0.187988
 11
81
 21
0
  0
LINE
  8
0
 10
81
 20
0
 11
81.0118
 21
0.187988
  0
LINE
  8
0
 10
81.0118
 20
0.187988
 11
81.0471
 21
0.373032
  0
LINE
  8
0
 10
81.0471
 20
0.373032
 11
81.1053
 21
0.552185
  0
LINE
  8
0
 10
81.1053
 20
0.552185
 11
81.1855
 21
0.722626
  0
LINE
  8
0
 10
81.1855
 20
0.722626
 11
81.2865
 21
0.881668
  0
LINE
  8
0
 10
81.2865
 20
0.881668
 11
81.4065
 21
1.02681
  0
LINE
  8
0
 10
81.4065
 20
1.02681
 11
81.5439
 21
1.15576
  0
LINE
  8
0
 10
81.5439
 20
1.15576
 11
81.6963
 21
1.26648
  0
LINE
  8
0
 10
81.6963
 20
1.26648
 11
81.8613
 21
1.35724
  0
LINE
  8
0
 10
81.8613
 20
1.35724
 11
82.0365
 21
1.42657
  0
LINE
  8
0
 10
82.0365
 20
1.42657
 11
82.2189
 21
1.47342
  0
LINE
  8
0
 10
82.2189
 20
1.47342
 11
82.4058
 21
1.49704
  0
LINE
  8
0
 10
82.4058
 20
1.49704
 11
82.5942
 21
1.49704
  0
LINE
  8
0
 10
82.5942
 20
1.49704
 11
82.7811
 21
1.47342
  0
LINE
  8
0
 10
82.7811
 20
1.47342
 11
82.9635
 21
1.42657
  0
LINE
  8
0
 10
82.9635
 20
1.42657
 11
83.1387
 21
1.35724
  0
LINE
  8
0
 10
83.1387
 20
1.35724
 11
83.3037
 21
1.26648
  0
LINE
  8
0
 10
83.3037
 20
1.26648
 11
83.4561
 21
1.15576
  0
LINE
  8
0
 10
83.4561
 20
1.15576
 11
83.5934
 21
1.02681
  0
LINE
  8
0
 10
83.5934
 20
1.02681
 11
83.7135
 21
0.881668
  0
LINE
  8
0
 10
83.7135
 20
0.881668
 11
83.8145
 21
0.722626
  0
LINE
  8
0
 10
83.8145
 20
0.722626
 11
83.8947
 21
0.552185
  0
LINE
  8
0
 10
83.8947
 20
0.552185
 11
83.9529
 21
0.373032
  0
LINE
  8
0
 10
83.9529
 20
0.373032
 11
83.9882
 21
0.187988
  0
LINE
  8
0
 10
83.9882
 20
0.187988
 11
84
 21
0
  0
LINE
  8
0
 10
84
 20
0
 11
83.9882
 21
-0.187988
  0
LINE
  8
0
 10
83.9882
 20
-0.187988
 11
83.9529
 21
-0.373032
  0
LINE
  8
0
 10
83.9529
 20
-0.373032
 11
83.8947
 21
-0.552185
  0
LINE
  8
0
 10
83.8947
 20
-0.552185
 11
83.8145
 21
-0.722626
  0
LINE
  8
0
 10
83.8145
 20
-0.722626
 11
83.7135
 21
-0.881668
  0
LINE
  8
0
 10
83.7135
 20
-0.881668
 11
83.5934
 21
-1.02681
  0
LINE
  8
0
 10
83.5934
 20
-1.02681
 11
83.4561
 21
-1.15576
  0
LINE
  8
0
 10
83.4561
 20
-1.15576
 11
83.3037
 21
-1.26648
  0
LINE
  8
0
 10
83.3037
 20
-1.26648
 11
83.1387
 21
-1.35724
  0
LINE
  8
0
 10
83.1387
 20
-1.35724
 11
82.9635
 21
-1.42657
  0
LINE
  8
0
 10
82.9635
 20
-1.42657
 11
82.7811
 21
-1.47342
  0
LINE
  8
0
 10
82.7811
 20
-1.47342
 11
82.5942
 21
-1.49704
  0
LINE
  8
0
 10
82.5942
 20
-1.49704
 11
82.4058
 21
-1.49704
  0
LINE
  8
0
 10
-82.5942
 20
-1.49704
 11
-82.7811
 21
-1.47342
  0
LINE
  8
0
 10
-82.7811
 20
-1.47342
 11
-82.9635
 21
-1.42657
  0
LINE
  8
0
 10
-82.9635
 20
-1.42657
 11
-83.1387
 21
-1.35724
  0
LINE
  8
0
 10
-83.1387
 20
-1.35724
 11
-83.3037
 21
-1.26648
  0
LINE
  8
0
 10
-83.3037
 20
-1.26648
 11
-83.4561
 21
-1.15576
  0
LINE
  8
0
 10
-83.4561
 20
-1.15576
 11
-83.5934
 21
-1.02681
  0
LINE
  8
0
 10
-83.5934
 20
-1.02681
 11
-83.7135
 21
-0.881668
  0
LINE
  8
0
 10
-83.7135
 20
-0.881668
 11
-83.8145
 21
-0.722626
  0
LINE
  8
0
 10
-83.8145
 20
-0.722626
 11
-83.8947
 21
-0.552185
  0
LINE
  8
0
 10
-83.8947
 20
-0.552185
 11
-83.9529
 21
-0.373032
  0
LINE
  8
0
 10
-83.9529
 20
-0.373032
 11
-83.9882
 21
-0.187988
  0
LINE
  8
0
 10
-83.9882
 20
-0.187988
 11
-84
 21
0
  0
LINE
  8
0
 10
-84
 20
0
 11
-83.9882
 21
0.187988
  0
LINE
  8
0
 10
-83.9882
 20
0.187988
 11
-83.9529
 21
0.373032
  0
LINE
  8
0
 10
-83.9529
 20
0.373032
 11
-83.8947
 21
0.552185
  0
LINE
  8
0
 10
-83.8947
 20
0.552185
 11
-83.8145
 21
0.722626
  0
LINE
  8
0
 10
-83.8145
 20
0.722626
 11
-83.7135
 21
0.881668
  0
LINE
  8
0
 10
-83.7135
 20
0.881668
 11
-83.5934
 21
1.02681
  0
LINE
  8
0
 10
-83.5934
 20
1.02681
 11
-83.4561
 21
1.15576
  0
LINE
  8
0
 10
-83.4561
 20
1.15576
 11
-83.3037
 21
1.26648
  0
LINE
  8
0
 10
-83.3037
 20
1.26648
 11
-83.1387
 21
1.35724
  0
LINE
  8
0
 10
-83.1387
 20
1.35724
 11
-82.9635
 21
1.42657
  0
LINE
  8
0
 10
-82.9635
 20
1.42657
 11
-82.7811
 21
1.47342
  0
LINE
  8
0
 10
-82.7811
 20
1.47342
 11
-82.5942
 21
1.49704
  0
LINE
  8
0
 10
-82.5942
 20
1.49704
 11
-82.4058
 21
1.49704
  0
LINE
  8
0
 10
-82.4058
 20
1.49704
 11
-82.2189
 21
1.47342
  0
LINE
  8
0
 10
-82.2189
 20
1.47342
 11
-82.0365
 21
1.42657
  0
LINE
  8
0
 10
-82.0365
 20
1.42657
 11
-81.8613
 21
1.35724
  0
LINE
  8
0
 10
-81.8613
 20
1.35724
 11
-81.6963
 21
1.26648
  0
LINE
  8
0
 10
-81.6963
 20
1.26648
 11
-81.5439
 21
1.15576
  0
LINE
  8
0
 10
-81.5439
 20
1.15576
 11
-81.4065
 21
1.02681
  0
LINE
  8
0
 10
-81.4065
 20
1.02681
 11
-81.2865
 21
0.881668
  0
LINE
  8
0
 10
-81.2865
 20
0.881668
 11
-81.1855
 21
0.722626
  0
LINE
  8
0
 10
-81.1855
 20
0.722626
 11
-81.1053
 21
0.552185
  0
LINE
  8
0
 10
-81.1053
 20
0.552185
 11
-81.0471
 21
0.373032
  0
LINE
  8
0
 10
-81.0471
 20
0.373032
 11
-81.0118
 21
0.187988
  0
LINE
  8
0
 10
-81.0118
 20
0.187988
 11
-81
 21
0
  0
LINE
  8
0
 10
-81
 20
0
 11
-81.0118
 21
-0.187988
  0
LINE
  8
0
 10
-81.0118
 20
-0.187988
 11
-81.0471
 21
-0.373032
  0
LINE
  8
0
 10
-81.0471
 20
-0.373032
 11
-81.1053
 21
-0.552185
  0
LINE
  8
0
 10
-81.1053
 20
-0.552185
 11
-81.1855
 21
-0.722626
  0
LINE
  8
0
 10
-81.1855
 20
-0.722626
 11
-81.2865
 21
-0.881668
  0
LINE
  8
0
 10
-81.2865
 20
-0.881668
 11
-81.4065
 21
-1.02681
  0
LINE
  8
0
 10
-81.4065
 20
-1.02681
 11
-81.5439
 21
-1.15576
  0
LINE
  8
0
 10
-81.5439
 20
-1.15576
 11
-81.6963
 21
-1.26648
  0
LINE
  8
0
 10
-81.6963
 20
-1.26648
 11
-81.8613
 21
-1.35724
  0
LINE
  8
0
 10
-81.8613
 20
-1.35724
 11
-82.0365
 21
-1.42657
  0
LINE
  8
0
 10
-82.0365
 20
-1.42657
 11
-82.2189
 21
-1.47342
  0
LINE
  8
0
 10
-82.2189
 20
-1.47342
 11
-82.4058
 21
-1.49704
  0
LINE
  8
0
 10
-82.4058
 20
-1.49704
 11
-82.5942
 21
-1.49704
  0
LINE
  8
0
 10
-22.5942
 20
-1.49704
 11
-22.7811
 21
-1.47342
  0
LINE
  8
0
 10
-22.7811
 20
-1.47342
 11
-22.9635
 21
-1.42657
  0
LINE
  8
0
 10
-22.9635
 20
-1.42657
 11
-23.1387
 21
-1.35724
  0
LINE
  8
0
 10
-23.1387
 20
-1.35724
 11
-23.3037
 21
-1.26648
  0
LINE
  8
0
 10
-23.3037
 20
-1.26648
 11
-23.4561
 21
-1.15576
  0
LINE
  8
0
 10
-23.4561
 20
-1.15576
 11
-23.5934
 21
-1.02681
  0
LINE
  8
0
 10
-23.5934
 20
-1.02681
 11
-23.7135
 21
-0.881668
  0
LINE
  8
0
 10
-23.7135
 20
-0.881668
 11
-23.8145
 21
-0.722626
  0
LINE
  8
0
 10
-23.8145
 20
-0.722626
 11
-23.8947
 21
-0.552185
  0
LINE
  8
0
 10
-23.8947
 20
-0.552185
 11
-23.9529
 21
-0.373032
  0
LINE
  8
0
 10
-23.9529
 20
-0.373032
 11
-23.9882
 21
-0.187988
  0
LINE
  8
0
 10
-23.9882
 20
-0.187988
 11
-24
 21
0
  0
LINE
  8
0
 10
-24
 20
0
 11
-23.9882
 21
0.187988
  0
LINE
  8
0
 10
-23.9882
 20
0.187988
 11
-23.9529
 21
0.373032
  0
LINE
  8
0
 10
-23.9529
 20
0.373032
 11
-23.8947
 21
0.552185
  0
LINE
  8
0
 10
-23.8947
 20
0.552185
 11
-23.8145
 21
0.722626
  0
LINE
  8
0
 10
-23.8145
 20
0.722626
 11
-23.7135
 21
0.881668
  0
LINE
  8
0
 10
-23.7135
 20
0.881668
 11
-23.5934
 21
1.02681
  0
LINE
  8
0
 10
-23.5934
 20
1.02681
 11
-23.4561
 21
1.15576
  0
LINE
  8
0
 10
-23.4561
 20
1.15576
 11
-23.3037
 21
1.26648
  0
LINE
  8
0
 10
-23.3037
 20
1.26648
 11
-23.1387
 21
1.35724
  0
LINE
  8
0
 10
-23.1387
 20
1.35724
 11
-22.9635
 21
1.42657
  0
LINE
  8
0
 10
-22.9635
 20
1.42657
 11
-22.7811
 21
1.47342
  0
LINE
  8
0
 10
-22.7811
 20
1.47342
 11
-22.5942
 21
1.49704
  0
LINE
  8
0
 10
-22.5942
 20
1.49704
 11
-22.4058
 21
1.49704
  0
LINE
  8
0
 10
-22.4058
 20
1.49704
 11
-22.2189
 21
1.47342
  0
LINE
  8
0
 10
-22.2189
 20
1.47342
 11
-22.0365
 21
1.42657
  0
LINE
  8
0
 10
-22.0365
 20
1.42657
 11
-21.8613
 21
1.35724
  0
LINE
  8
0
 10
-21.8613
 20
1.35724
 11
-21.6963
 21
1.26648
  0
LINE
  8
0
 10
-21.6963
 20
1.26648
 11
-21.5439
 21
1.15576
  0
LINE
  8
0
 10
-21.5439
 20
1.15576
 11
-21.4065
 21
1.02681
  0
LINE
  8
0
 10
-21.4065
 20
1.02681
 11
-21.2865
 21
0.881668
  0
LINE
  8
0
 10
-21.2865
 20
0.881668
 11
-21.1855
 21
0.722626
  0
LINE
  8
0
 10
-21.1855
 20
0.722626
 11
-21.1053
 21
0.552185
  0
LINE
  8
0
 10
-21.1053
 20
0.552185
 11
-21.0471
 21
0.373032
  0
LINE
  8
0
 10
-21.0471
 20
0.373032
 11
-21.0118
 21
0.187988
  0
LINE
  8
0
 10
-21.0118
 20
0.187988
 11
-21
 21
0
  0
LINE
  8
0
 10
-21
 20
0
 11
-21.0118
 21
-0.187988
  0
LINE
  8
0
 10
-21.0118
 20
-0.187988
 11
-21.0471
 21
-0.373032
  0
LINE
  8
0
 10
-21.0471
 20
-0.373032
 11
-21.1053
 21
-0.552185
  0
LINE
  8
0
 10
-21.1053
 20
-0.552185
 11
-21.1855
 21
-0.722626
  0
LINE
  8
0
 10
-21.1855
 20
-0.722626
 11
-21.2865
 21
-0.881668
  0
LINE
  8
0
 10
-21.2865
 20
-0.881668
 11
-21.4065
 21
-1.02681
  0
LINE
  8
0
 10
-21.4065
 20
-1.02681
 11
-21.5439
 21
-1.15576
  0
LINE
  8
0
 10
-21.5439
 20
-1.15576
 11
-21.6963
 21
-1.26648
  0
LINE
  8
0
 10
-21.6963
 20
-1.26648
 11
-21.8613
 21
-1.35724
  0
LINE
  8
0
 10
-21.8613
 20
-1.35724
 11
-22.0365
 21
-1.42657
  0
LINE
  8
0
 10
-22.0365
 20
-1.42657
 11
-22.2189
 21
-1.47342
  0
LINE
  8
0
 10
-22.2189
 20
-1.47342
 11
-22.4058
 21
-1.49704
  0
LINE
  8
0
 10
-22.4058
 20
-1.49704
 11
-22.5942
 21
-1.49704
  0
LINE
  8
0
 10
52.4058
 20
-1.49704
 11
52.2189
 21
-1.47342
  0
LINE
  8
0
 10
52.2189
 20
-1.47342
 11
52.0365
 21
-1.42657
  0
LINE
  8
0
 10
52.0365
 20
-1.42657
 11
51.8613
 21
-1.35724
  0
LINE
  8
0
 10
51.8613
 20
-1.35724
 11
51.6963
 21
-1.26648
  0
LINE
  8
0
 10
51.6963
 20
-1.26648
 11
51.5439
 21
-1.15576
  0
LINE
  8
0
 10
51.5439
 20
-1.15576
 11
51.4065
 21
-1.02681
  0
LINE
  8
0
 10
51.4065
 20
-1.02681
 11
51.2865
 21
-0.881668
  0
LINE
  8
0
 10
51.2865
 20
-0.881668
 11
51.1855
 21
-0.722626
  0
LINE
  8
0
 10
51.1855
 20
-0.722626
 11
51.1053
 21
-0.552185
  0
LINE
  8
0
 10
51.1053
 20
-0.552185
 11
51.0471
 21
-0.373032
  0
LINE
  8
0
 10
51.0471
 20
-0.373032
 11
51.0118
 21
-0.187988
  0
LINE
  8
0
 10
51.0118
 20
-0.187988
 11
51
 21
0
  0
LINE
  8
0
 10
51
 20
0
 11
51.0118
 21
0.187988
  0
LINE
  8
0
 10
51.0118
 20
0.187988
 11
51.0471
 21
0.373032
  0
LINE
  8
0
 10
51.0471
 20
0.373032
 11
51.1053
 21
0.552185
  0
LINE
  8
0
 10
51.1053
 20
0.552185
 11
51.1855
 21
0.722626
  0
LINE
  8
0
 10
51.1855
 20
0.722626
 11
51.2865
 21
0.881668
  0
LINE
  8
0
 10
51.2865
 20
0.881668
 11
51.4065
 21
1.02681
  0
LINE
  8
0
 10
51.4065
 20
1.02681
 11
51.5439
 21
1.15576
  0
LINE
  8
0
 10
51.5439
 20
1.15576
 11
51.6963
 21
1.26648
  0
LINE
  8
0
 10
51.6963
 20
1.26648
 11
51.8613
 21
1.35724
  0
LINE
  8
0
 10
51.8613
 20
1.35724
 11
52.0365
 21
1.42657
  0
LINE
  8
0
 10
52.0365
 20
1.42657
 11
52.2189
 21
1.47342
  0
LINE
  8
0
 10
52.2189
 20
1.47342
 11
52.4058
 21
1.49704
  0
LINE
  8
0
 10
52.4058
 20
1.49704
 11
52.5942
 21
1.49704
  0
LINE
  8
0
 10
52.5942
 20
1.49704
 11
52.7811
 21
1.47342
  0
LINE
  8
0
 10
52.7811
 20
1.47342
 11
52.9635
 21
1.42657
  0
LINE
  8
0
 10
52.9635
 20
1.42657
 11
53.1387
 21
1.35724
  0
LINE
  8
0
 10
53.1387
 20
1.35724
 11
53.3037
 21
1.26648
  0
LINE
  8
0
 10
53.3037
 20
1.26648
 11
53.4561
 21
1.15576
  0
LINE
  8
0
 10
53.4561
 20
1.15576
 11
53.5934
 21
1.02681
  0
LINE
  8
0
 10
53.5934
 20
1.02681
 11
53.7135
 21
0.881668
  0
LINE
  8
0
 10
53.7135
 20
0.881668
 11
53.8145
 21
0.722626
  0
LINE
  8
0
 10
53.8145
 20
0.722626
 11
53.8947
 21
0.552185
  0
LINE
  8
0
 10
53.8947
 20
0.552185
 11
53.9529
 21
0.373032
  0
LINE
  8
0
 10
53.9529
 20
0.373032
 11
53.9882
 21
0.187988
  0
LINE
  8
0
 10
53.9882
 20
0.187988
 11
54
 21
0
  0
LINE
  8
0
 10
54
 20
0
 11
53.9882
 21
-0.187988
  0
LINE
  8
0
 10
53.9882
 20
-0.187988
 11
53.9529
 21
-0.373032
  0
LINE
  8
0
 10
53.9529
 20
-0.373032
 11
53.8947
 21
-0.552185
  0
LINE
  8
0
 10
53.8947
 20
-0.552185
 11
53.8145
 21
-0.722626
  0
LINE
  8
0
 10
53.8145
 20
-0.722626
 11
53.7135
 21
-0.881668
  0
LINE
  8
0
 10
53.7135
 20
-0.881668
 11
53.5934
 21
-1.02681
  0
LINE
  8
0
 10
53.5934
 20
-1.02681
 11
53.4561
 21
-1.15576
  0
LINE
  8
0
 10
53.4561
 20
-1.15576
 11
53.3037
 21
-1.26648
  0
LINE
  8
0
 10
53.3037
 20
-1.26648
 11
53.1387
 21
-1.35724
  0
LINE
  8
0
 10
53.1387
 20
-1.35724
 11
52.9635
 21
-1.42657
  0
LINE
  8
0
 10
52.9635
 20
-1.42657
 11
52.7811
 21
-1.47342
  0
LINE
  8
0
 10
52.7811
 20
-1.47342
 11
52.5942
 21
-1.49704
  0
LINE
  8
0
 10
52.5942
 20
-1.49704
 11
52.4058
 21
-1.49704
  0
LINE
  8
0
 10
37.4058
 20
-1.49704
 11
37.2189
 21
-1.47342
  0
LINE
  8
0
 10
37.2189
 20
-1.47342
 11
37.0365
 21
-1.42657
  0
LINE
  8
0
 10
37.0365
 20
-1.42657
 11
36.8613
 21
-1.35724
  0
LINE
  8
0
 10
36.8613
 20
-1.35724
 11
36.6963
 21
-1.26648
  0
LINE
  8
0
 10
36.6963
 20
-1.26648
 11
36.5439
 21
-1.15576
  0
LINE
  8
0
 10
36.5439
 20
-1.15576
 11
36.4065
 21
-1.02681
  0
LINE
  8
0
 10
36.4065
 20
-1.02681
 11
36.2865
 21
-0.881668
  0
LINE
  8
0
 10
36.2865
 20
-0.881668
 11
36.1855
 21
-0.722626
  0
LINE
  8
0
 10
36.1855
 20
-0.722626
 11
36.1053
 21
-0.552185
  0
LINE
  8
0
 10
36.1053
 20
-0.552185
 11
36.0471
 21
-0.373032
  0
LINE
  8
0
 10
36.0471
 20
-0.373032
 11
36.0118
 21
-0.187988
  0
LINE
  8
0
 10
36.0118
 20
-0.187988
 11
36
 21
0
  0
LINE
  8
0
 10
36
 20
0
 11
36.0118
 21
0.187988
  0
LINE
  8
0
 10
36.0118
 20
0.187988
 11
36.0471
 21
0.373032
  0
LINE
  8
0
 10
36.0471
 20
0.373032
 11
36.1053
 21
0.552185
  0
LINE
  8
0
 10
36.1053
 20
0.552185
 11
36.1855
 21
0.722626
  0
LINE
  8
0
 10
36.1855
 20
0.722626
 11
36.2865
 21
0.881668
  0
LINE
  8
0
 10
36.2865
 20
0.881668
 11
36.4065
 21
1.02681
  0
LINE
  8
0
 10
36.4065
 20
1.02681
 11
36.5439
 21
1.15576
  0
LINE
  8
0
 10
36.5439
 20
1.15576
 11
36.6963
 21
1.26648
  0
LINE
  8
0
 10
36.6963
 20
1.26648
 11
36.8613
 21
1.35724
  0
LINE
  8
0
 10
36.8613
 20
1.35724
 11
37.0365
 21
1.42657
  0
LINE
  8
0
 10
37.0365
 20
1.42657
 11
37.2189
 21
1.47342
  0
LINE
  8
0
 10
37.2189
 20
1.47342
 11
37.4058
 21
1.49704
  0
LINE
  8
0
 10
37.4058
 20
1.49704
 11
37.5942
 21
1.49704
  0
LINE
  8
0
 10
37.5942
 20
1.49704
 11
37.7811
 21
1.47342
  0
LINE
  8
0
 10
37.7811
 20
1.47342
 11
37.9635
 21
1.42657
  0
LINE
  8
0
 10
37.9635
 20
1.42657
 11
38.1387
 21
1.35724
  0
LINE
  8
0
 10
38.1387
 20
1.35724
 11
38.3037
 21
1.26648
  0
LINE
  8
0
 10
38.3037
 20
1.26648
 11
38.4561
 21
1.15576
  0
LINE
  8
0
 10
38.4561
 20
1.15576
 11
38.5934
 21
1.02681
  0
LINE
  8
0
 10
38.5934
 20
1.02681
 11
38.7135
 21
0.881668
  0
LINE
  8
0
 10
38.7135
 20
0.881668
 11
38.8145
 21
0.722626
  0
LINE
  8
0
 10
38.8145
 20
0.722626
 11
38.8947
 21
0.552185
  0
LINE
  8
0
 10
38.8947
 20
0.552185
 11
38.9529
 21
0.373032
  0
LINE
  8
0
 10
38.9529
 20
0.373032
 11
38.9882
 21
0.187988
  0
LINE
  8
0
 10
38.9882
 20
0.187988
 11
39
 21
0
  0
LINE
  8
0
 10
39
 20
0
 11
38.9882
 21
-0.187988
  0
LINE
  8
0
 10
38.9882
 20
-0.187988
 11
38.9529
 21
-0.373032
  0
LINE
  8
0
 10
38.9529
 20
-0.373032
 11
38.8947
 21
-0.552185
  0
LINE
  8
0
 10
38.8947
 20
-0.552185
 11
38.8145
 21
-0.722626
  0
LINE
  8
0
 10
38.8145
 20
-0.722626
 11
38.7135
 21
-0.881668
  0
LINE
  8
0
 10
38.7135
 20
-0.881668
 11
38.5934
 21
-1.02681
  0
LINE
  8
0
 10
38.5934
 20
-1.02681
 11
38.4561
 21
-1.15576
  0
LINE
  8
0
 10
38.4561
 20
-1.15576
 11
38.3037
 21
-1.26648
  0
LINE
  8
0
 10
38.3037
 20
-1.26648
 11
38.1387
 21
-1.35724
  0
LINE
  8
0
 10
38.1387
 20
-1.35724
 11
37.9635
 21
-1.42657
  0
LINE
  8
0
 10
37.9635
 20
-1.42657
 11
37.7811
 21
-1.47342
  0
LINE
  8
0
 10
37.7811
 20
-1.47342
 11
37.5942
 21
-1.49704
  0
LINE
  8
0
 10
37.5942
 20
-1.49704
 11
37.4058
 21
-1.49704
  0
LINE
  8
0
 10
-37.5942
 20
-1.49704
 11
-37.7811
 21
-1.47342
  0
LINE
  8
0
 10
-37.7811
 20
-1.47342
 11
-37.9635
 21
-1.42657
  0
LINE
  8
0
 10
-37.9635
 20
-1.42657
 11
-38.1387
 21
-1.35724
  0
LINE
  8
0
 10
-38.1387
 20
-1.35724
 11
-38.3037
 21
-1.26648
  0
LINE
  8
0
 10
-38.3037
 20
-1.26648
 11
-38.4561
 21
-1.15576
  0
LINE
  8
0
 10
-38.4561
 20
-1.15576
 11
-38.5934
 21
-1.02681
  0
LINE
  8
0
 10
-38.5934
 20
-1.02681
 11
-38.7135
 21
-0.881668
  0
LINE
  8
0
 10
-38.7135
 20
-0.881668
 11
-38.8145
 21
-0.722626
  0
LINE
  8
0
 10
-38.8145
 20
-0.722626
 11
-38.8947
 21
-0.552185
  0
LINE
  8
0
 10
-38.8947
 20
-0.552185
 11
-38.9529
 21
-0.373032
  0
LINE
  8
0
 10
-38.9529
 20
-0.373032
 11
-38.9882
 21
-0.187988
  0
LINE
  8
0
 10
-38.9882
 20
-0.187988
 11
-39
 21
0
  0
LINE
  8
0
 10
-39
 20
0
 11
-38.9882
 21
0.187988
  0
LINE
  8
0
 10
-38.9882
 20
0.187988
 11
-38.9529
 21
0.373032
  0
LINE
  8
0
 10
-38.9529
 20
0.373032
 11
-38.8947
 21
0.552185
  0
LINE
  8
0
 10
-38.8947
 20
0.552185
 11
-38.8145
 21
0.722626
  0
LINE
  8
0
 10
-38.8145
 20
0.722626
 11
-38.7135
 21
0.881668
  0
LINE
  8
0
 10
-38.7135
 20
0.881668
 11
-38.5934
 21
1.02681
  0
LINE
  8
0
 10
-38.5934
 20
1.02681
 11
-38.4561
 21
1.15576
  0
LINE
  8
0
 10
-38.4561
 20
1.15576
 11
-38.3037
 21
1.26648
  0
LINE
  8
0
 10
-38.3037
 20
1.26648
 11
-38.1387
 21
1.35724
  0
LINE
  8
0
 10
-38.1387
 20
1.35724
 11
-37.9635
 21
1.42657
  0
LINE
  8
0
 10
-37.9635
 20
1.42657
 11
-37.7811
 21
1.47342
  0
LINE
  8
0
 10
-37.7811
 20
1.47342
 11
-37.5942
 21
1.49704
  0
LINE
  8
0
 10
-37.5942
 20
1.49704
 11
-37.4058
 21
1.49704
  0
LINE
  8
0
 10
-37.4058
 20
1.49704
 11
-37.2189
 21
1.47342
  0
LINE
  8
0
 10
-37.2189
 20
1.47342
 11
-37.0365
 21
1.42657
  0
LINE
  8
0
 10
-37.0365
 20
1.42657
 11
-36.8613
 21
1.35724
  0
LINE
  8
0
 10
-36.8613
 20
1.35724
 11
-36.6963
 21
1.26648
  0
LINE
  8
0
 10
-36.6963
 20
1.26648
 11
-36.5439
 21
1.15576
  0
LINE
  8
0
 10
-36.5439
 20
1.15576
 11
-36.4065
 21
1.02681
  0
LINE
  8
0
 10
-36.4065
 20
1.02681
 11
-36.2865
 21
0.881668
  0
LINE
  8
0
 10
-36.2865
 20
0.881668
 11
-36.1855
 21
0.722626
  0
LINE
  8
0
 10
-36.1855
 20
0.722626
 11
-36.1053
 21
0.552185
  0
LINE
  8
0
 10
-36.1053
 20
0.552185
 11
-36.0471
 21
0.373032
  0
LINE
  8
0
 10
-36.0471
 20
0.373032
 11
-36.0118
 21
0.187988
  0
LINE
  8
0
 10
-36.0118
 20
0.187988
 11
-36
 21
0
  0
LINE
  8
0
 10
-36
 20
0
 11
-36.0118
 21
-0.187988
  0
LINE
  8
0
 10
-36.0118
 20
-0.187988
 11
-36.0471
 21
-0.373032
  0
LINE
  8
0
 10
-36.0471
 20
-0.373032
 11
-36.1053
 21
-0.552185
  0
LINE
  8
0
 10
-36.1053
 20
-0.552185
 11
-36.1855
 21
-0.722626
  0
LINE
  8
0
 10
-36.1855
 20
-0.722626
 11
-36.2865
 21
-0.881668
  0
LINE
  8
0
 10
-36.2865
 20
-0.881668
 11
-36.4065
 21
-1.02681
  0
LINE
  8
0
 10
-36.4065
 20
-1.02681
 11
-36.5439
 21
-1.15576
  0
LINE
  8
0
 10
-36.5439
 20
-1.15576
 11
-36.6963
 21
-1.26648
  0
LINE
  8
0
 10
-36.6963
 20
-1.26648
 11
-36.8613
 21
-1.35724
  0
LINE
  8
0
 10
-36.8613
 20
-1.35724
 11
-37.0365
 21
-1.42657
  0
LINE
  8
0
 10
-37.0365
 20
-1.42657
 11
-37.2189
 21
-1.47342
  0
LINE
  8
0
 10
-37.2189
 20
-1.47342
 11
-37.4058
 21
-1.49704
  0
LINE
  8
0
 10
-37.4058
 20
-1.49704
 11
-37.5942
 21
-1.49704
  0
LINE
  8
0
 10
67.4058
 20
-1.49704
 11
67.2189
 21
-1.47342
  0
LINE
  8
0
 10
67.2189
 20
-1.47342
 11
67.0365
 21
-1.42657
  0
LINE
  8
0
 10
67.0365
 20
-1.42657
 11
66.8613
 21
-1.35724
  0
LINE
  8
0
 10
66.8613
 20
-1.35724
 11
66.6963
 21
-1.26648
  0
LINE
  8
0
 10
66.6963
 20
-1.26648
 11
66.5439
 21
-1.15576
  0
LINE
  8
0
 10
66.5439
 20
-1.15576
 11
66.4065
 21
-1.02681
  0
LINE
  8
0
 10
66.4065
 20
-1.02681
 11
66.2865
 21
-0.881668
  0
LINE
  8
0
 10
66.2865
 20
-0.881668
 11
66.1855
 21
-0.722626
  0
LINE
  8
0
 10
66.1855
 20
-0.722626
 11
66.1053
 21
-0.552185
  0
LINE
  8
0
 10
66.1053
 20
-0.552185
 11
66.0471
 21
-0.373032
  0
LINE
  8
0
 10
66.0471
 20
-0.373032
 11
66.0118
 21
-0.187988
  0
LINE
  8
0
 10
66.0118
 20
-0.187988
 11
66
 21
0
  0
LINE
  8
0
 10
66
 20
0
 11
66.0118
 21
0.187988
  0
LINE
  8
0
 10
66.0118
 20
0.187988
 11
66.0471
 21
0.373032
  0
LINE
  8
0
 10
66.0471
 20
0.373032
 11
66.1053
 21
0.552185
  0
LINE
  8
0
 10
66.1053
 20
0.552185
 11
66.1855
 21
0.722626
  0
LINE
  8
0
 10
66.1855
 20
0.722626
 11
66.2865
 21
0.881668
  0
LINE
  8
0
 10
66.2865
 20
0.881668
 11
66.4065
 21
1.02681
  0
LINE
  8
0
 10
66.4065
 20
1.02681
 11
66.5439
 21
1.15576
  0
LINE
  8
0
 10
66.5439
 20
1.15576
 11
66.6963
 21
1.26648
  0
LINE
  8
0
 10
66.6963
 20
1.26648
 11
66.8613
 21
1.35724
  0
LINE
  8
0
 10
66.8613
 20
1.35724
 11
67.0365
 21
1.42657
  0
LINE
  8
0
 10
67.0365
 20
1.42657
 11
67.2189
 21
1.47342
  0
LINE
  8
0
 10
67.2189
 20
1.47342
 11
67.4058
 21
1.49704
  0
LINE
  8
0
 10
67.4058
 20
1.49704
 11
67.5942
 21
1.49704
  0
LINE
  8
0
 10
67.5942
 20
1.49704
 11
67.7811
 21
1.47342
  0
LINE
  8
0
 10
67.7811
 20
1.47342
 11
67.9635
 21
1.42657
  0
LINE
  8
0
 10
67.9635
 20
1.42657
 11
68.1387
 21
1.35724
  0
LINE
  8
0
 10
68.1387
 20
1.35724
 11
68.3037
 21
1.26648
  0
LINE
  8
0
 10
68.3037
 20
1.26648
 11
68.4561
 21
1.15576
  0
LINE
  8
0
 10
68.4561
 20
1.15576
 11
68.5934
 21
1.02681
  0
LINE
  8
0
 10
68.5934
 20
1.02681
 11
68.7135
 21
0.881668
  0
LINE
  8
0
 10
68.7135
 20
0.881668
 11
68.8145
 21
0.722626
  0
LINE
  8
0
 10
68.8145
 20
0.722626
 11
68.8947
 21
0.552185
  0
LINE
  8
0
 10
68.8947
 20
0.552185
 11
68.9529
 21
0.373032
  0
LINE
  8
0
 10
68.9529
 20
0.373032
 11
68.9882
 21
0.187988
  0
LINE
  8
0
 10
68.9882
 20
0.187988
 11
69
 21
0
  0
LINE
  8
0
 10
69
 20
0
 11
68.9882
 21
-0.187988
  0
LINE
  8
0
 10
68.9882
 20
-0.187988
 11
68.9529
 21
-0.373032
  0
LINE
  8
0
 10
68.9529
 20
-0.373032
 11
68.8947
 21
-0.552185
  0
LINE
  8
0
 10
68.8947
 20
-0.552185
 11
68.8145
 21
-0.722626
  0
LINE
  8
0
 10
68.8145
 20
-0.722626
 11
68.7135
 21
-0.881668
  0
LINE
  8
0
 10
68.7135
 20
-0.881668
 11
68.5934
 21
-1.02681
  0
LINE
  8
0
 10
68.5934
 20
-1.02681
 11
68.4561
 21
-1.15576
  0
LINE
  8
0
 10
68.4561
 20
-1.15576
 11
68.3037
 21
-1.26648
  0
LINE
  8
0
 10
68.3037
 20
-1.26648
 11
68.1387
 21
-1.35724
  0
LINE
  8
0
 10
68.1387
 20
-1.35724
 11
67.9635
 21
-1.42657
  0
LINE
  8
0
 10
67.9635
 20
-1.42657
 11
67.7811
 21
-1.47342
  0
LINE
  8
0
 10
67.7811
 20
-1.47342
 11
67.5942
 21
-1.49704
  0
LINE
  8
0
 10
67.5942
 20
-1.49704
 11
67.4058
 21
-1.49704
  0
LINE
  8
0
 10
-2.98021
 20
-156.68
 11
-6.57693
 21
-156.051
  0
LINE
  8
0
 10
-6.57693
 20
-156.051
 11
-9.81784
 21
-155.003
  0
LINE
  8
0
 10
-9.81784
 20
-155.003
 11
-12.7029
 21
-153.535
  0
LINE
  8
0
 10
-12.7029
 20
-153.535
 11
-15.2322
 21
-151.648
  0
LINE
  8
0
 10
-15.2322
 20
-151.648
 11
-17.4057
 21
-149.341
  0
LINE
  8
0
 10
-17.4057
 20
-149.341
 11
-19.2233
 21
-146.616
  0
LINE
  8
0
 10
-19.2233
 20
-146.616
 11
-20.746
 21
-143.383
  0
LINE
  8
0
 10
-20.746
 20
-143.383
 11
-22.0343
 21
-139.558
  0
LINE
  8
0
 10
-22.0343
 20
-139.558
 11
-23.0885
 21
-135.139
  0
LINE
  8
0
 10
-23.0885
 20
-135.139
 11
-23.9084
 21
-130.128
  0
LINE
  8
0
 10
-23.9084
 20
-130.128
 11
-24.494
 21
-124.524
  0
LINE
  8
0
 10
-24.494
 20
-124.524
 11
-24.8454
 21
-118.327
  0
LINE
  8
0
 10
-24.8454
 20
-118.327
 11
-24.9625
 21
-111.537
  0
LINE
  8
0
 10
-24.9625
 20
-111.537
 11
-24.9625
 21
-6.99013
  0
LINE
  8
0
 10
-24.9625
 20
-6.99013
 11
29.0347
 21
-6.99013
  0
LINE
  8
0
 10
29.0347
 20
-6.99013
 11
29.0347
 21
-110.118
  0
LINE
  8
0
 10
29.0347
 20
-110.118
 11
28.8988
 21
-116.958
  0
LINE
  8
0
 10
28.8988
 20
-116.958
 11
28.491
 21
-123.226
  0
LINE
  8
0
 10
28.491
 20
-123.226
 11
27.8113
 21
-128.922
  0
LINE
  8
0
 10
27.8113
 20
-128.922
 11
26.8598
 21
-134.044
  0
LINE
  8
0
 10
26.8598
 20
-134.044
 11
25.6364
 21
-138.594
  0
LINE
  8
0
 10
25.6364
 20
-138.594
 11
24.1411
 21
-142.571
  0
LINE
  8
0
 10
24.1411
 20
-142.571
 11
22.3739
 21
-145.976
  0
LINE
  8
0
 10
22.3739
 20
-145.976
 11
20.3059
 21
-148.872
  0
LINE
  8
0
 10
20.3059
 20
-148.872
 11
17.9081
 21
-151.322
  0
LINE
  8
0
 10
17.9081
 20
-151.322
 11
15.1806
 21
-153.326
  0
LINE
  8
0
 10
15.1806
 20
-153.326
 11
12.1232
 21
-154.885
  0
LINE
  8
0
 10
12.1232
 20
-154.885
 11
8.73602
 21
-155.999
  0
LINE
  8
0
 10
8.73602
 20
-155.999
 11
5.01906
 21
-156.667
  0
LINE
  8
0
 10
5.01906
 20
-156.667
 11
0.972305
 21
-156.89
  0
LINE
  8
0
 10
0.972305
 20
-156.89
 11
-2.98021
 21
-156.68
  0
ENDSEC
  0
SECTION
  2
OBJECTS
  0
DICTIONARY
  0
ENDSEC
  0
EOF
