<?xml version="1.0" standalone="no"?>
<!DOCTYPE svg PUBLIC "-//W3C//DTD SVG 1.1//EN" "http://www.w3.org/Graphics/SVG/1.1/DTD/svg11.dtd">
<svg width="6mm" height="225mm" viewBox="-3 -223 6 225" xmlns="http://www.w3.org/2000/svg" version="1.1">
<title>OpenSCAD Model</title>
<path d="
M 0.410019,-217.851 L 0.676193,-217.919 L 0.931702,-218.02 L 1.1725,-218.152 L 1.39482,-218.314 L 1.59515,-218.502
 L 1.77031,-218.714 L 1.91756,-218.946 L 2.03456,-219.194 L 2.11948,-219.456 L 2.17097,-219.726 L 2.18823,-220
 L 2.17097,-220.274 L 2.11948,-220.544 L 2.03456,-220.806 L 1.91756,-221.054 L 1.77031,-221.286 L 1.59515,-221.498
 L 1.39482,-221.686 L 1.1725,-221.848 L 0.931702,-221.98 L 0.676193,-222.081 L 0.410019,-222.149 L 0.13739,-222.184
 L -0.13739,-222.184 L -0.410019,-222.149 L -0.676193,-222.081 L -0.931702,-221.98 L -1.1725,-221.848 L -1.39482,-221.686
 L -1.59515,-221.498 L -1.77031,-221.286 L -1.91756,-221.054 L -2.03456,-220.806 L -2.11948,-220.544 L -2.17097,-220.274
 L -2.18823,-220 L -2.17097,-219.726 L -2.11948,-219.456 L -2.03456,-219.194 L -1.91756,-218.946 L -1.77031,-218.714
 L -1.59515,-218.502 L -1.39482,-218.314 L -1.1725,-218.152 L -0.931702,-218.02 L -0.676193,-217.919 L -0.410019,-217.851
 L -0.13739,-217.816 L 0.13739,-217.816 z
M 0.33728,-108.232 L 0.556229,-108.288 L 0.766388,-108.371 L 0.964478,-108.48 L 1.14735,-108.613 L 1.31213,-108.768
 L 1.45622,-108.942 L 1.57735,-109.133 L 1.67358,-109.337 L 1.74344,-109.552 L 1.7858,-109.774 L 1.79999,-110
 L 1.7858,-110.226 L 1.74344,-110.448 L 1.67358,-110.663 L 1.57735,-110.867 L 1.45622,-111.058 L 1.31213,-111.232
 L 1.14735,-111.387 L 0.964478,-111.52 L 0.766388,-111.629 L 0.556229,-111.712 L 0.33728,-111.768 L 0.113022,-111.796
 L -0.113022,-111.796 L -0.33728,-111.768 L -0.556229,-111.712 L -0.766388,-111.629 L -0.964478,-111.52 L -1.14735,-111.387
 L -1.31213,-111.232 L -1.45622,-111.058 L -1.57735,-110.867 L -1.67358,-110.663 L -1.74344,-110.448 L -1.7858,-110.226
 L -1.79999,-110 L -1.7858,-109.774 L -1.74344,-109.552 L -1.67358,-109.337 L -1.57735,-109.133 L -1.45622,-108.942
 L -1.31213,-108.768 L -1.14735,-108.613 L -0.964478,-108.48 L -0.766388,-108.371 L -0.556229,-108.288 L -0.33728,-108.232
 L -0.113022,-108.204 L 0.113022,-108.204 z
M 0.33728,1.76811 L 0.556229,1.7119 L 0.766388,1.62868 L 0.964478,1.51978 L 1.14735,1.38692 L 1.31213,1.23218
 L 1.45622,1.058 L 1.57735,0.867142 L 1.67358,0.662613 L 1.74344,0.447632 L 1.7858,0.225586 L 1.79999,-0
 L 1.7858,-0.225586 L 1.74344,-0.447632 L 1.67358,-0.662613 L 1.57735,-0.867142 L 1.45622,-1.058 L 1.31213,-1.23218
 L 1.14735,-1.38692 L 0.964478,-1.51978 L 0.766388,-1.62868 L 0.556229,-1.7119 L 0.33728,-1.76811 L 0.113022,-1.79645
 L -0.113022,-1.79645 L -0.33728,-1.76811 L -0.556229,-1.7119 L -0.766388,-1.62868 L -0.964478,-1.51978 L -1.14735,-1.38692
 L -1.31213,-1.23218 L -1.45622,-1.058 L -1.57735,-0.867142 L -1.67358,-0.662613 L -1.74344,-0.447632 L -1.7858,-0.225586
 L -1.79999,-0 L -1.7858,0.225586 L -1.74344,0.447632 L -1.67358,0.662613 L -1.57735,0.867142 L -1.45622,1.058
 L -1.31213,1.23218 L -1.14735,1.38692 L -0.964478,1.51978 L -0.766388,1.62868 L -0.556229,1.7119 L -0.33728,1.76811
 L -0.113022,1.79645 L 0.113022,1.79645 z
" stroke="black" fill="lightgray" stroke-width="0.5"/>
</svg>
