<?xml version="1.0" standalone="no"?>
<!DOCTYPE svg PUBLIC "-//W3C//DTD SVG 1.1//EN" "http://www.w3.org/Graphics/SVG/1.1/DTD/svg11.dtd">
<svg width="210mm" height="118mm" viewBox="-105 -201 210 118" xmlns="http://www.w3.org/2000/svg" version="1.1">
<title>OpenSCAD Model</title>
<path d="
M 100.937,-177.839 L 101.545,-177.995 L 102.129,-178.226 L 102.679,-178.528 L 103.187,-178.897 L 103.645,-179.327
 L 104.045,-179.811 L 104.382,-180.341 L 104.649,-180.909 L 104.843,-181.507 L 104.961,-182.123 L 105,-182.75
 L 105,-195.25 L 104.961,-195.877 L 104.843,-196.493 L 104.649,-197.091 L 104.382,-197.659 L 104.045,-198.189
 L 103.645,-198.673 L 103.187,-199.103 L 102.679,-199.472 L 102.129,-199.774 L 101.545,-200.005 L 100.937,-200.161
 L 100.314,-200.24 L -100.314,-200.24 L -100.937,-200.161 L -101.545,-200.005 L -102.129,-199.774 L -102.679,-199.472
 L -103.187,-199.103 L -103.645,-198.673 L -104.045,-198.189 L -104.382,-197.659 L -104.649,-197.091 L -104.843,-196.493
 L -104.961,-195.877 L -105,-195.25 L -105,-182.75 L -104.961,-182.123 L -104.843,-181.507 L -104.649,-180.909
 L -104.382,-180.341 L -104.045,-179.811 L -103.645,-179.327 L -103.187,-178.897 L -102.679,-178.528 L -102.129,-178.226
 L -101.545,-177.995 L -100.937,-177.839 L -100.314,-177.76 L 100.314,-177.76 z
M -100.048,-178.259 L -100.64,-178.334 L -101.218,-178.482 L -101.772,-178.702 L -102.295,-178.989 L -102.778,-179.34
 L -103.213,-179.748 L -103.593,-180.208 L -103.912,-180.712 L -104.166,-181.251 L -104.351,-181.819 L -104.463,-182.405
 L -104.5,-183 L -104.5,-195 L -104.463,-195.595 L -104.351,-196.181 L -104.166,-196.749 L -103.912,-197.288
 L -103.593,-197.792 L -103.213,-198.252 L -102.778,-198.66 L -102.295,-199.011 L -101.772,-199.298 L -101.218,-199.518
 L -100.64,-199.666 L -100.048,-199.741 L 100.048,-199.741 L 100.64,-199.666 L 101.218,-199.518 L 101.772,-199.298
 L 102.295,-199.011 L 102.778,-198.66 L 103.213,-198.252 L 103.593,-197.792 L 103.912,-197.288 L 104.166,-196.749
 L 104.351,-196.181 L 104.463,-195.595 L 104.5,-195 L 104.5,-183 L 104.463,-182.405 L 104.351,-181.819
 L 104.166,-181.251 L 103.912,-180.712 L 103.593,-180.208 L 103.213,-179.748 L 102.778,-179.34 L 102.295,-178.989
 L 101.772,-178.702 L 101.218,-178.482 L 100.64,-178.334 L 100.048,-178.259 z
M 100.937,-146.339 L 101.545,-146.495 L 102.129,-146.726 L 102.679,-147.028 L 103.187,-147.397 L 103.645,-147.827
 L 104.045,-148.311 L 104.382,-148.841 L 104.649,-149.409 L 104.843,-150.007 L 104.961,-150.623 L 105,-151.25
 L 105,-163.75 L 104.961,-164.377 L 104.843,-164.993 L 104.649,-165.591 L 104.382,-166.159 L 104.045,-166.689
 L 103.645,-167.173 L 103.187,-167.603 L 102.679,-167.972 L 102.129,-168.274 L 101.545,-168.505 L 100.937,-168.661
 L 100.314,-168.74 L -100.314,-168.74 L -100.937,-168.661 L -101.545,-168.505 L -102.129,-168.274 L -102.679,-167.972
 L -103.187,-167.603 L -103.645,-167.173 L -104.045,-166.689 L -104.382,-166.159 L -104.649,-165.591 L -104.843,-164.993
 L -104.961,-164.377 L -105,-163.75 L -105,-151.25 L -104.961,-150.623 L -104.843,-150.007 L -104.649,-149.409
 L -104.382,-148.841 L -104.045,-148.311 L -103.645,-147.827 L -103.187,-147.397 L -102.679,-147.028 L -102.129,-146.726
 L -101.545,-146.495 L -100.937,-146.339 L -100.314,-146.26 L 100.314,-146.26 z
M -100.048,-146.759 L -100.64,-146.834 L -101.218,-146.982 L -101.772,-147.202 L -102.295,-147.489 L -102.778,-147.84
 L -103.213,-148.248 L -103.593,-148.708 L -103.912,-149.212 L -104.166,-149.751 L -104.351,-150.319 L -104.463,-150.905
 L -104.5,-151.5 L -104.5,-163.5 L -104.463,-164.095 L -104.351,-164.681 L -104.166,-165.249 L -103.912,-165.788
 L -103.593,-166.292 L -103.213,-166.752 L -102.778,-167.16 L -102.295,-167.511 L -101.772,-167.798 L -101.218,-168.018
 L -100.64,-168.166 L -100.048,-168.241 L 100.048,-168.241 L 100.64,-168.166 L 101.218,-168.018 L 101.772,-167.798
 L 102.295,-167.511 L 102.778,-167.16 L 103.213,-166.752 L 103.593,-166.292 L 103.912,-165.788 L 104.166,-165.249
 L 104.351,-164.681 L 104.463,-164.095 L 104.5,-163.5 L 104.5,-151.5 L 104.463,-150.905 L 104.351,-150.319
 L 104.166,-149.751 L 103.912,-149.212 L 103.593,-148.708 L 103.213,-148.248 L 102.778,-147.84 L 102.295,-147.489
 L 101.772,-147.202 L 101.218,-146.982 L 100.64,-146.834 L 100.048,-146.759 z
M 100.937,-114.839 L 101.545,-114.995 L 102.129,-115.226 L 102.679,-115.528 L 103.187,-115.897 L 103.645,-116.327
 L 104.045,-116.811 L 104.382,-117.341 L 104.649,-117.909 L 104.843,-118.507 L 104.961,-119.123 L 105,-119.75
 L 105,-132.25 L 104.961,-132.877 L 104.843,-133.493 L 104.649,-134.091 L 104.382,-134.659 L 104.045,-135.189
 L 103.645,-135.673 L 103.187,-136.103 L 102.679,-136.472 L 102.129,-136.774 L 101.545,-137.005 L 100.937,-137.161
 L 100.314,-137.24 L -100.314,-137.24 L -100.937,-137.161 L -101.545,-137.005 L -102.129,-136.774 L -102.679,-136.472
 L -103.187,-136.103 L -103.645,-135.673 L -104.045,-135.189 L -104.382,-134.659 L -104.649,-134.091 L -104.843,-133.493
 L -104.961,-132.877 L -105,-132.25 L -105,-119.75 L -104.961,-119.123 L -104.843,-118.507 L -104.649,-117.909
 L -104.382,-117.341 L -104.045,-116.811 L -103.645,-116.327 L -103.187,-115.897 L -102.679,-115.528 L -102.129,-115.226
 L -101.545,-114.995 L -100.937,-114.839 L -100.314,-114.76 L 100.314,-114.76 z
M -99.993,-116.138 L -100.475,-116.199 L -100.946,-116.32 L -101.398,-116.499 L -101.823,-116.733 L -102.216,-117.019
 L -102.571,-117.351 L -102.88,-117.726 L -103.141,-118.136 L -103.348,-118.576 L -103.498,-119.038 L -103.589,-119.515
 L -103.619,-120 L -103.619,-132 L -103.589,-132.485 L -103.498,-132.962 L -103.348,-133.424 L -103.141,-133.864
 L -102.88,-134.274 L -102.571,-134.649 L -102.216,-134.981 L -101.823,-135.267 L -101.398,-135.501 L -100.946,-135.68
 L -100.475,-135.801 L -99.993,-135.862 L 99.993,-135.862 L 100.475,-135.801 L 100.946,-135.68 L 101.398,-135.501
 L 101.823,-135.267 L 102.216,-134.981 L 102.571,-134.649 L 102.88,-134.274 L 103.141,-133.864 L 103.348,-133.424
 L 103.498,-132.962 L 103.589,-132.485 L 103.619,-132 L 103.619,-120 L 103.589,-119.515 L 103.498,-119.038
 L 103.348,-118.576 L 103.141,-118.136 L 102.88,-117.726 L 102.571,-117.351 L 102.216,-117.019 L 101.823,-116.733
 L 101.398,-116.499 L 100.946,-116.32 L 100.475,-116.199 L 99.993,-116.138 z
M 100.937,-83.3386 L 101.545,-83.4947 L 102.129,-83.7259 L 102.679,-84.0284 L 103.187,-84.3974 L 103.645,-84.8273
 L 104.045,-85.3111 L 104.382,-85.8412 L 104.649,-86.4094 L 104.843,-87.0066 L 104.961,-87.6233 L 105,-88.25
 L 105,-100.75 L 104.961,-101.377 L 104.843,-101.993 L 104.649,-102.591 L 104.382,-103.159 L 104.045,-103.689
 L 103.645,-104.173 L 103.187,-104.603 L 102.679,-104.972 L 102.129,-105.274 L 101.545,-105.505 L 100.937,-105.661
 L 100.314,-105.74 L -100.314,-105.74 L -100.937,-105.661 L -101.545,-105.505 L -102.129,-105.274 L -102.679,-104.972
 L -103.187,-104.603 L -103.645,-104.173 L -104.045,-103.689 L -104.382,-103.159 L -104.649,-102.591 L -104.843,-101.993
 L -104.961,-101.377 L -105,-100.75 L -105,-88.25 L -104.961,-87.6233 L -104.843,-87.0066 L -104.649,-86.4094
 L -104.382,-85.8412 L -104.045,-85.3111 L -103.645,-84.8273 L -103.187,-84.3974 L -102.679,-84.0284 L -102.129,-83.7259
 L -101.545,-83.4947 L -100.937,-83.3386 L -100.314,-83.2599 L 100.314,-83.2599 z
M -97.613,-96.4536 L -97.8373,-96.4819 L -98.0562,-96.5381 L -98.2664,-96.6213 L -98.4645,-96.7302 L -98.6474,-96.8631
 L -98.8121,-97.0178 L -98.9562,-97.192 L -99.0773,-97.3828 L -99.1736,-97.5874 L -99.2434,-97.8024 L -99.2858,-98.0244
 L -99.3,-98.25 L -99.2858,-98.4756 L -99.2434,-98.6976 L -99.1736,-98.9126 L -99.0773,-99.1171 L -98.9562,-99.308
 L -98.8121,-99.4822 L -98.6474,-99.6369 L -98.4645,-99.7698 L -98.2664,-99.8787 L -98.0562,-99.9619 L -97.8373,-100.018
 L -97.613,-100.046 L -97.387,-100.046 L -97.1627,-100.018 L -96.9438,-99.9619 L -96.7336,-99.8787 L -96.5355,-99.7698
 L -96.3526,-99.6369 L -96.1879,-99.4822 L -96.0438,-99.308 L -95.9226,-99.1171 L -95.8264,-98.9126 L -95.7565,-98.6976
 L -95.7142,-98.4756 L -95.7,-98.25 L -95.7142,-98.0244 L -95.7565,-97.8024 L -95.8264,-97.5874 L -95.9226,-97.3828
 L -96.0438,-97.192 L -96.1879,-97.0178 L -96.3526,-96.8631 L -96.5355,-96.7302 L -96.7336,-96.6213 L -96.9438,-96.5381
 L -97.1627,-96.4819 L -97.387,-96.4536 z
M 97.387,-96.4536 L 97.1627,-96.4819 L 96.9438,-96.5381 L 96.7336,-96.6213 L 96.5355,-96.7302 L 96.3526,-96.8631
 L 96.1879,-97.0178 L 96.0438,-97.192 L 95.9226,-97.3828 L 95.8264,-97.5874 L 95.7565,-97.8024 L 95.7142,-98.0244
 L 95.7,-98.25 L 95.7142,-98.4756 L 95.7565,-98.6976 L 95.8264,-98.9126 L 95.9226,-99.1171 L 96.0438,-99.308
 L 96.1879,-99.4822 L 96.3526,-99.6369 L 96.5355,-99.7698 L 96.7336,-99.8787 L 96.9438,-99.9619 L 97.1627,-100.018
 L 97.387,-100.046 L 97.613,-100.046 L 97.8373,-100.018 L 98.0562,-99.9619 L 98.2664,-99.8787 L 98.4645,-99.7698
 L 98.6474,-99.6369 L 98.8121,-99.4822 L 98.9562,-99.308 L 99.0773,-99.1171 L 99.1736,-98.9126 L 99.2434,-98.6976
 L 99.2858,-98.4756 L 99.3,-98.25 L 99.2858,-98.0244 L 99.2434,-97.8024 L 99.1736,-97.5874 L 99.0773,-97.3828
 L 98.9562,-97.192 L 98.8121,-97.0178 L 98.6474,-96.8631 L 98.4645,-96.7302 L 98.2664,-96.6213 L 98.0562,-96.5381
 L 97.8373,-96.4819 L 97.613,-96.4536 z
M 97.387,-88.9536 L 97.1627,-88.9819 L 96.9438,-89.0381 L 96.7336,-89.1213 L 96.5355,-89.2302 L 96.3526,-89.3631
 L 96.1879,-89.5178 L 96.0438,-89.692 L 95.9226,-89.8829 L 95.8264,-90.0874 L 95.7565,-90.3024 L 95.7142,-90.5244
 L 95.7,-90.75 L 95.7142,-90.9756 L 95.7565,-91.1976 L 95.8264,-91.4126 L 95.9226,-91.6172 L 96.0438,-91.808
 L 96.1879,-91.9822 L 96.3526,-92.1369 L 96.5355,-92.2698 L 96.7336,-92.3787 L 96.9438,-92.4619 L 97.1627,-92.5181
 L 97.387,-92.5464 L 97.613,-92.5464 L 97.8373,-92.5181 L 98.0562,-92.4619 L 98.2664,-92.3787 L 98.4645,-92.2698
 L 98.6474,-92.1369 L 98.8121,-91.9822 L 98.9562,-91.808 L 99.0773,-91.6172 L 99.1736,-91.4126 L 99.2434,-91.1976
 L 99.2858,-90.9756 L 99.3,-90.75 L 99.2858,-90.5244 L 99.2434,-90.3024 L 99.1736,-90.0874 L 99.0773,-89.8829
 L 98.9562,-89.692 L 98.8121,-89.5178 L 98.6474,-89.3631 L 98.4645,-89.2302 L 98.2664,-89.1213 L 98.0562,-89.0381
 L 97.8373,-88.9819 L 97.613,-88.9536 z
M -97.613,-88.9536 L -97.8373,-88.9819 L -98.0562,-89.0381 L -98.2664,-89.1213 L -98.4645,-89.2302 L -98.6474,-89.3631
 L -98.8121,-89.5178 L -98.9562,-89.692 L -99.0773,-89.8829 L -99.1736,-90.0874 L -99.2434,-90.3024 L -99.2858,-90.5244
 L -99.3,-90.75 L -99.2858,-90.9756 L -99.2434,-91.1976 L -99.1736,-91.4126 L -99.0773,-91.6172 L -98.9562,-91.808
 L -98.8121,-91.9822 L -98.6474,-92.1369 L -98.4645,-92.2698 L -98.2664,-92.3787 L -98.0562,-92.4619 L -97.8373,-92.5181
 L -97.613,-92.5464 L -97.387,-92.5464 L -97.1627,-92.5181 L -96.9438,-92.4619 L -96.7336,-92.3787 L -96.5355,-92.2698
 L -96.3526,-92.1369 L -96.1879,-91.9822 L -96.0438,-91.808 L -95.9226,-91.6172 L -95.8264,-91.4126 L -95.7565,-91.1976
 L -95.7142,-90.9756 L -95.7,-90.75 L -95.7142,-90.5244 L -95.7565,-90.3024 L -95.8264,-90.0874 L -95.9226,-89.8829
 L -96.0438,-89.692 L -96.1879,-89.5178 L -96.3526,-89.3631 L -96.5355,-89.2302 L -96.7336,-89.1213 L -96.9438,-89.0381
 L -97.1627,-88.9819 L -97.387,-88.9536 z
" stroke="black" fill="lightgray" stroke-width="0.5"/>
</svg>
