<?xml version="1.0" standalone="no"?>
<!DOCTYPE svg PUBLIC "-//W3C//DTD SVG 1.1//EN" "http://www.w3.org/Graphics/SVG/1.1/DTD/svg11.dtd">
<svg width="134mm" height="296mm" viewBox="-67 -355 134 296" xmlns="http://www.w3.org/2000/svg" version="1.1">
<title>OpenSCAD Model</title>
<path d="
M 62.9369,-221.089 L 63.5451,-221.245 L 64.1289,-221.476 L 64.6791,-221.778 L 65.1871,-222.147 L 65.6448,-222.577
 L 66.0451,-223.061 L 66.3815,-223.591 L 66.6489,-224.159 L 66.8429,-224.757 L 66.9606,-225.373 L 67,-226
 L 67,-349 L 19.561,-349 L 19.561,-348.998 L 18.7482,-348.998 L 18.6236,-348.982 L 18.502,-348.951
 L 18.3852,-348.905 L 18.2752,-348.844 L 18.1736,-348.771 L 18.082,-348.685 L 18.002,-348.588 L 17.9347,-348.482
 L 17.8812,-348.368 L 17.8424,-348.249 L 17.8189,-348.125 L 17.811,-348 L 17.8189,-347.875 L 17.8424,-347.751
 L 17.8812,-347.632 L 17.9347,-347.518 L 18.002,-347.412 L 18.082,-347.315 L 18.1736,-347.229 L 18.2752,-347.156
 L 18.3852,-347.095 L 18.502,-347.049 L 18.6236,-347.018 L 18.7482,-347.002 L 23.8738,-347.002 L 23.9984,-347.018
 L 24.12,-347.049 L 24.2368,-347.095 L 24.2439,-347.099 L 27.2499,-345.909 L 34.2929,-342.037 L 40.7951,-337.313
 L 46.654,-331.811 L 51.7771,-325.618 L 56.0836,-318.832 L 59.5057,-311.56 L 61.9893,-303.916 L 63.4953,-296.021
 L 64,-288 L 63.4953,-279.979 L 61.9893,-272.084 L 59.5057,-264.44 L 56.0836,-257.168 L 51.7771,-250.382
 L 46.654,-244.189 L 40.7951,-238.687 L 34.2929,-233.963 L 27.2499,-230.091 L 19.7771,-227.132 L 11.9924,-225.134
 L 4.01859,-224.126 L -4.01859,-224.126 L -11.9924,-225.134 L -19.7771,-227.132 L -27.2499,-230.091 L -34.2929,-233.963
 L -40.7951,-238.687 L -46.654,-244.189 L -51.7771,-250.382 L -56.0836,-257.168 L -59.5057,-264.44 L -61.9893,-272.084
 L -63.4953,-279.979 L -64,-288 L -63.4953,-296.021 L -61.9893,-303.916 L -59.5057,-311.56 L -56.0836,-318.832
 L -51.7771,-325.618 L -46.654,-331.811 L -40.7951,-337.313 L -34.2929,-342.037 L -27.2499,-345.909 L -19.7771,-348.868
 L -11.9924,-350.866 L -4.01859,-351.874 L 0,-351.874 L 0,-352 L 47,-352 L 44.0099,-354.99
 L -34.5,-354.99 L -34.5,-354 L -66.5,-354 L -66.5,-355 L -67,-355 L -67,-226
 L -66.9606,-225.373 L -66.8429,-224.757 L -66.6489,-224.159 L -66.3815,-223.591 L -66.0451,-223.061 L -65.6448,-222.577
 L -65.1871,-222.147 L -64.6791,-221.778 L -64.1289,-221.476 L -63.5451,-221.245 L -62.9369,-221.089 L -62.3139,-221.01
 L 62.3139,-221.01 z
M 59.8116,-225.006 L 59.4379,-225.053 L 59.0729,-225.147 L 58.7227,-225.286 L 58.3925,-225.467 L 58.0877,-225.688
 L 57.8131,-225.946 L 57.5729,-226.237 L 57.3711,-226.555 L 57.2107,-226.896 L 57.0942,-227.254 L 57.0237,-227.624
 L 57,-228 L 57.0237,-228.376 L 57.0942,-228.746 L 57.2107,-229.104 L 57.3711,-229.445 L 57.5729,-229.763
 L 57.8131,-230.054 L 58.0877,-230.312 L 58.3925,-230.533 L 58.7227,-230.714 L 59.0729,-230.853 L 59.4379,-230.947
 L 59.8116,-230.994 L 60.1884,-230.994 L 60.5621,-230.947 L 60.927,-230.853 L 61.2773,-230.714 L 61.6075,-230.533
 L 61.9123,-230.312 L 62.1869,-230.054 L 62.427,-229.763 L 62.6289,-229.445 L 62.7893,-229.104 L 62.9057,-228.746
 L 62.9763,-228.376 L 63,-228 L 62.9763,-227.624 L 62.9057,-227.254 L 62.7893,-226.896 L 62.6289,-226.555
 L 62.427,-226.237 L 62.1869,-225.946 L 61.9123,-225.688 L 61.6075,-225.467 L 61.2773,-225.286 L 60.927,-225.147
 L 60.5621,-225.053 L 60.1884,-225.006 z
M 57,-354.99 L 46.1312,-354.99 L 49.1213,-352 L 57,-352 z
M 23.9984,-203.018 L 24.12,-203.049 L 24.2368,-203.095 L 24.3468,-203.156 L 24.4484,-203.229 L 24.54,-203.315
 L 24.62,-203.412 L 24.6873,-203.518 L 24.7408,-203.632 L 24.7796,-203.751 L 24.8031,-203.875 L 24.811,-204
 L 24.8031,-204.125 L 24.7796,-204.249 L 24.7408,-204.368 L 24.6873,-204.482 L 24.62,-204.588 L 24.54,-204.685
 L 24.4484,-204.771 L 24.3468,-204.844 L 24.2368,-204.905 L 24.12,-204.951 L 23.9984,-204.982 L 23.8738,-204.998
 L 18.7482,-204.998 L 18.6236,-204.982 L 18.502,-204.951 L 18.3852,-204.905 L 18.2752,-204.844 L 18.1736,-204.771
 L 18.082,-204.685 L 18.002,-204.588 L 17.9347,-204.482 L 17.8812,-204.368 L 17.8424,-204.249 L 17.8189,-204.125
 L 17.811,-204 L 17.8189,-203.875 L 17.8424,-203.751 L 17.8812,-203.632 L 17.9347,-203.518 L 18.002,-203.412
 L 18.082,-203.315 L 18.1736,-203.229 L 18.2752,-203.156 L 18.3852,-203.095 L 18.502,-203.049 L 18.6236,-203.018
 L 18.7482,-203.002 L 23.8738,-203.002 z
M 23.9984,-59.0177 L 24.12,-59.0489 L 24.2368,-59.0952 L 24.3468,-59.1557 L 24.4484,-59.2295 L 24.54,-59.3154
 L 24.62,-59.4122 L 24.6873,-59.5182 L 24.7408,-59.6319 L 24.7796,-59.7513 L 24.8031,-59.8747 L 24.811,-60
 L 24.8031,-60.1253 L 24.7796,-60.2487 L 24.7408,-60.3681 L 24.6873,-60.4818 L 24.62,-60.5878 L 24.54,-60.6845
 L 24.4484,-60.7705 L 24.3468,-60.8443 L 24.2368,-60.9048 L 24.12,-60.951 L 23.9984,-60.9823 L 23.8738,-60.998
 L 18.7482,-60.998 L 18.6236,-60.9823 L 18.502,-60.951 L 18.3852,-60.9048 L 18.2752,-60.8443 L 18.1736,-60.7705
 L 18.082,-60.6845 L 18.002,-60.5878 L 17.9347,-60.4818 L 17.8812,-60.3681 L 17.8424,-60.2487 L 17.8189,-60.1253
 L 17.811,-60 L 17.8189,-59.8747 L 17.8424,-59.7513 L 17.8812,-59.6319 L 17.9347,-59.5182 L 18.002,-59.4122
 L 18.082,-59.3154 L 18.1736,-59.2295 L 18.2752,-59.1557 L 18.3852,-59.0952 L 18.502,-59.0489 L 18.6236,-59.0177
 L 18.7482,-59.002 L 23.8738,-59.002 z
" stroke="black" fill="lightgray" stroke-width="0.5"/>
</svg>
