  0
SECTION
  2
BLOCKS
  0
ENDSEC
  0
SECTION
  2
ENTITIES
  0
LINE
  8
0
 10
32.9369
 20
131.089
 11
33.5451
 21
131.245
  0
LINE
  8
0
 10
33.5451
 20
131.245
 11
34.1289
 21
131.476
  0
LINE
  8
0
 10
34.1289
 20
131.476
 11
34.6791
 21
131.778
  0
LINE
  8
0
 10
34.6791
 20
131.778
 11
35.1871
 21
132.147
  0
LINE
  8
0
 10
35.1871
 20
132.147
 11
35.6448
 21
132.577
  0
LINE
  8
0
 10
35.6448
 20
132.577
 11
36.0451
 21
133.061
  0
LINE
  8
0
 10
36.0451
 20
133.061
 11
36.3815
 21
133.591
  0
LINE
  8
0
 10
36.3815
 20
133.591
 11
36.6489
 21
134.159
  0
LINE
  8
0
 10
36.6489
 20
134.159
 11
36.8429
 21
134.757
  0
LINE
  8
0
 10
36.8429
 20
134.757
 11
36.9606
 21
135.373
  0
LINE
  8
0
 10
36.9606
 20
135.373
 11
37
 21
136
  0
LINE
  8
0
 10
37
 20
136
 11
37
 21
200
  0
LINE
  8
0
 10
37
 20
200
 11
14.561
 21
200
  0
LINE
  8
0
 10
14.561
 20
200
 11
14.561
 21
199.998
  0
LINE
  8
0
 10
14.561
 20
199.998
 11
13.7482
 21
199.998
  0
LINE
  8
0
 10
13.7482
 20
199.998
 11
13.6236
 21
199.982
  0
LINE
  8
0
 10
13.6236
 20
199.982
 11
13.502
 21
199.951
  0
LINE
  8
0
 10
13.502
 20
199.951
 11
13.3852
 21
199.905
  0
LINE
  8
0
 10
13.3852
 20
199.905
 11
13.2752
 21
199.844
  0
LINE
  8
0
 10
13.2752
 20
199.844
 11
13.1736
 21
199.771
  0
LINE
  8
0
 10
13.1736
 20
199.771
 11
13.082
 21
199.685
  0
LINE
  8
0
 10
13.082
 20
199.685
 11
13.002
 21
199.588
  0
LINE
  8
0
 10
13.002
 20
199.588
 11
12.9347
 21
199.482
  0
LINE
  8
0
 10
12.9347
 20
199.482
 11
12.8812
 21
199.368
  0
LINE
  8
0
 10
12.8812
 20
199.368
 11
12.8424
 21
199.249
  0
LINE
  8
0
 10
12.8424
 20
199.249
 11
12.8189
 21
199.125
  0
LINE
  8
0
 10
12.8189
 20
199.125
 11
12.811
 21
199
  0
LINE
  8
0
 10
12.811
 20
199
 11
12.8189
 21
198.875
  0
LINE
  8
0
 10
12.8189
 20
198.875
 11
12.8424
 21
198.751
  0
LINE
  8
0
 10
12.8424
 20
198.751
 11
12.8812
 21
198.632
  0
LINE
  8
0
 10
12.8812
 20
198.632
 11
12.9347
 21
198.518
  0
LINE
  8
0
 10
12.9347
 20
198.518
 11
13.002
 21
198.412
  0
LINE
  8
0
 10
13.002
 20
198.412
 11
13.082
 21
198.315
  0
LINE
  8
0
 10
13.082
 20
198.315
 11
13.1736
 21
198.229
  0
LINE
  8
0
 10
13.1736
 20
198.229
 11
13.2752
 21
198.156
  0
LINE
  8
0
 10
13.2752
 20
198.156
 11
13.3852
 21
198.095
  0
LINE
  8
0
 10
13.3852
 20
198.095
 11
13.502
 21
198.049
  0
LINE
  8
0
 10
13.502
 20
198.049
 11
13.6236
 21
198.018
  0
LINE
  8
0
 10
13.6236
 20
198.018
 11
13.7482
 21
198.002
  0
LINE
  8
0
 10
13.7482
 20
198.002
 11
15.8628
 21
198.002
  0
LINE
  8
0
 10
15.8628
 20
198.002
 11
18.2181
 21
196.707
  0
LINE
  8
0
 10
18.2181
 20
196.707
 11
21.6724
 21
194.197
  0
LINE
  8
0
 10
21.6724
 20
194.197
 11
24.7849
 21
191.275
  0
LINE
  8
0
 10
24.7849
 20
191.275
 11
27.5066
 21
187.985
  0
LINE
  8
0
 10
27.5066
 20
187.985
 11
29.7944
 21
184.38
  0
LINE
  8
0
 10
29.7944
 20
184.38
 11
31.6124
 21
180.516
  0
LINE
  8
0
 10
31.6124
 20
180.516
 11
32.9318
 21
176.455
  0
LINE
  8
0
 10
32.9318
 20
176.455
 11
33.7319
 21
172.261
  0
LINE
  8
0
 10
33.7319
 20
172.261
 11
34
 21
168
  0
LINE
  8
0
 10
34
 20
168
 11
33.7319
 21
163.739
  0
LINE
  8
0
 10
33.7319
 20
163.739
 11
32.9318
 21
159.545
  0
LINE
  8
0
 10
32.9318
 20
159.545
 11
31.6124
 21
155.484
  0
LINE
  8
0
 10
31.6124
 20
155.484
 11
29.7944
 21
151.62
  0
LINE
  8
0
 10
29.7944
 20
151.62
 11
27.5066
 21
148.015
  0
LINE
  8
0
 10
27.5066
 20
148.015
 11
24.7849
 21
144.725
  0
LINE
  8
0
 10
24.7849
 20
144.725
 11
21.6724
 21
141.803
  0
LINE
  8
0
 10
21.6724
 20
141.803
 11
18.2181
 21
139.293
  0
LINE
  8
0
 10
18.2181
 20
139.293
 11
14.4765
 21
137.236
  0
LINE
  8
0
 10
14.4765
 20
137.236
 11
10.5066
 21
135.664
  0
LINE
  8
0
 10
10.5066
 20
135.664
 11
6.37096
 21
134.602
  0
LINE
  8
0
 10
6.37096
 20
134.602
 11
2.13487
 21
134.067
  0
LINE
  8
0
 10
2.13487
 20
134.067
 11
-2.13487
 21
134.067
  0
LINE
  8
0
 10
-2.13487
 20
134.067
 11
-6.37096
 21
134.602
  0
LINE
  8
0
 10
-6.37096
 20
134.602
 11
-10.5066
 21
135.664
  0
LINE
  8
0
 10
-10.5066
 20
135.664
 11
-14.4765
 21
137.236
  0
LINE
  8
0
 10
-14.4765
 20
137.236
 11
-18.2181
 21
139.293
  0
LINE
  8
0
 10
-18.2181
 20
139.293
 11
-21.6724
 21
141.803
  0
LINE
  8
0
 10
-21.6724
 20
141.803
 11
-24.7849
 21
144.725
  0
LINE
  8
0
 10
-24.7849
 20
144.725
 11
-27.5066
 21
148.015
  0
LINE
  8
0
 10
-27.5066
 20
148.015
 11
-29.7944
 21
151.62
  0
LINE
  8
0
 10
-29.7944
 20
151.62
 11
-31.6124
 21
155.484
  0
LINE
  8
0
 10
-31.6124
 20
155.484
 11
-32.9318
 21
159.545
  0
LINE
  8
0
 10
-32.9318
 20
159.545
 11
-33.7319
 21
163.739
  0
LINE
  8
0
 10
-33.7319
 20
163.739
 11
-34
 21
168
  0
LINE
  8
0
 10
-34
 20
168
 11
-33.7319
 21
172.261
  0
LINE
  8
0
 10
-33.7319
 20
172.261
 11
-32.9318
 21
176.455
  0
LINE
  8
0
 10
-32.9318
 20
176.455
 11
-31.6124
 21
180.516
  0
LINE
  8
0
 10
-31.6124
 20
180.516
 11
-29.7944
 21
184.38
  0
LINE
  8
0
 10
-29.7944
 20
184.38
 11
-27.5066
 21
187.985
  0
LINE
  8
0
 10
-27.5066
 20
187.985
 11
-24.7849
 21
191.275
  0
LINE
  8
0
 10
-24.7849
 20
191.275
 11
-21.6724
 21
194.197
  0
LINE
  8
0
 10
-21.6724
 20
194.197
 11
-18.2181
 21
196.707
  0
LINE
  8
0
 10
-18.2181
 20
196.707
 11
-14.4765
 21
198.764
  0
LINE
  8
0
 10
-14.4765
 20
198.764
 11
-10.5066
 21
200.336
  0
LINE
  8
0
 10
-10.5066
 20
200.336
 11
-6.37096
 21
201.398
  0
LINE
  8
0
 10
-6.37096
 20
201.398
 11
-2.13487
 21
201.933
  0
LINE
  8
0
 10
-2.13487
 20
201.933
 11
0
 21
201.933
  0
LINE
  8
0
 10
0
 20
201.933
 11
0
 21
202
  0
LINE
  8
0
 10
0
 20
202
 11
17
 21
202
  0
LINE
  8
0
 10
17
 20
202
 11
14.0099
 21
204.99
  0
LINE
  8
0
 10
14.0099
 20
204.99
 11
-4.5
 21
204.99
  0
LINE
  8
0
 10
-4.5
 20
204.99
 11
-4.5
 21
204
  0
LINE
  8
0
 10
-4.5
 20
204
 11
-36.5
 21
204
  0
LINE
  8
0
 10
-36.5
 20
204
 11
-36.5
 21
205
  0
LINE
  8
0
 10
-36.5
 20
205
 11
-37
 21
205
  0
LINE
  8
0
 10
-37
 20
205
 11
-37
 21
136
  0
LINE
  8
0
 10
-37
 20
136
 11
-36.9606
 21
135.373
  0
LINE
  8
0
 10
-36.9606
 20
135.373
 11
-36.8429
 21
134.757
  0
LINE
  8
0
 10
-36.8429
 20
134.757
 11
-36.6489
 21
134.159
  0
LINE
  8
0
 10
-36.6489
 20
134.159
 11
-36.3815
 21
133.591
  0
LINE
  8
0
 10
-36.3815
 20
133.591
 11
-36.0451
 21
133.061
  0
LINE
  8
0
 10
-36.0451
 20
133.061
 11
-35.6448
 21
132.577
  0
LINE
  8
0
 10
-35.6448
 20
132.577
 11
-35.1871
 21
132.147
  0
LINE
  8
0
 10
-35.1871
 20
132.147
 11
-34.6791
 21
131.778
  0
LINE
  8
0
 10
-34.6791
 20
131.778
 11
-34.1289
 21
131.476
  0
LINE
  8
0
 10
-34.1289
 20
131.476
 11
-33.5451
 21
131.245
  0
LINE
  8
0
 10
-33.5451
 20
131.245
 11
-32.9369
 21
131.089
  0
LINE
  8
0
 10
-32.9369
 20
131.089
 11
-32.3139
 21
131.01
  0
LINE
  8
0
 10
-32.3139
 20
131.01
 11
32.3139
 21
131.01
  0
LINE
  8
0
 10
32.3139
 20
131.01
 11
32.9369
 21
131.089
  0
LINE
  8
0
 10
29.8116
 20
135.006
 11
29.4379
 21
135.053
  0
LINE
  8
0
 10
29.4379
 20
135.053
 11
29.0729
 21
135.147
  0
LINE
  8
0
 10
29.0729
 20
135.147
 11
28.7227
 21
135.286
  0
LINE
  8
0
 10
28.7227
 20
135.286
 11
28.3925
 21
135.467
  0
LINE
  8
0
 10
28.3925
 20
135.467
 11
28.0877
 21
135.688
  0
LINE
  8
0
 10
28.0877
 20
135.688
 11
27.8131
 21
135.946
  0
LINE
  8
0
 10
27.8131
 20
135.946
 11
27.5729
 21
136.237
  0
LINE
  8
0
 10
27.5729
 20
136.237
 11
27.3711
 21
136.555
  0
LINE
  8
0
 10
27.3711
 20
136.555
 11
27.2107
 21
136.896
  0
LINE
  8
0
 10
27.2107
 20
136.896
 11
27.0942
 21
137.254
  0
LINE
  8
0
 10
27.0942
 20
137.254
 11
27.0237
 21
137.624
  0
LINE
  8
0
 10
27.0237
 20
137.624
 11
27
 21
138
  0
LINE
  8
0
 10
27
 20
138
 11
27.0237
 21
138.376
  0
LINE
  8
0
 10
27.0237
 20
138.376
 11
27.0942
 21
138.746
  0
LINE
  8
0
 10
27.0942
 20
138.746
 11
27.2107
 21
139.104
  0
LINE
  8
0
 10
27.2107
 20
139.104
 11
27.3711
 21
139.445
  0
LINE
  8
0
 10
27.3711
 20
139.445
 11
27.5729
 21
139.763
  0
LINE
  8
0
 10
27.5729
 20
139.763
 11
27.8131
 21
140.054
  0
LINE
  8
0
 10
27.8131
 20
140.054
 11
28.0877
 21
140.312
  0
LINE
  8
0
 10
28.0877
 20
140.312
 11
28.3925
 21
140.533
  0
LINE
  8
0
 10
28.3925
 20
140.533
 11
28.7227
 21
140.714
  0
LINE
  8
0
 10
28.7227
 20
140.714
 11
29.0729
 21
140.853
  0
LINE
  8
0
 10
29.0729
 20
140.853
 11
29.4379
 21
140.947
  0
LINE
  8
0
 10
29.4379
 20
140.947
 11
29.8116
 21
140.994
  0
LINE
  8
0
 10
29.8116
 20
140.994
 11
30.1884
 21
140.994
  0
LINE
  8
0
 10
30.1884
 20
140.994
 11
30.5621
 21
140.947
  0
LINE
  8
0
 10
30.5621
 20
140.947
 11
30.927
 21
140.853
  0
LINE
  8
0
 10
30.927
 20
140.853
 11
31.2773
 21
140.714
  0
LINE
  8
0
 10
31.2773
 20
140.714
 11
31.6075
 21
140.533
  0
LINE
  8
0
 10
31.6075
 20
140.533
 11
31.9123
 21
140.312
  0
LINE
  8
0
 10
31.9123
 20
140.312
 11
32.1869
 21
140.054
  0
LINE
  8
0
 10
32.1869
 20
140.054
 11
32.427
 21
139.763
  0
LINE
  8
0
 10
32.427
 20
139.763
 11
32.6289
 21
139.445
  0
LINE
  8
0
 10
32.6289
 20
139.445
 11
32.7893
 21
139.104
  0
LINE
  8
0
 10
32.7893
 20
139.104
 11
32.9057
 21
138.746
  0
LINE
  8
0
 10
32.9057
 20
138.746
 11
32.9763
 21
138.376
  0
LINE
  8
0
 10
32.9763
 20
138.376
 11
33
 21
138
  0
LINE
  8
0
 10
33
 20
138
 11
32.9763
 21
137.624
  0
LINE
  8
0
 10
32.9763
 20
137.624
 11
32.9057
 21
137.254
  0
LINE
  8
0
 10
32.9057
 20
137.254
 11
32.7893
 21
136.896
  0
LINE
  8
0
 10
32.7893
 20
136.896
 11
32.6289
 21
136.555
  0
LINE
  8
0
 10
32.6289
 20
136.555
 11
32.427
 21
136.237
  0
LINE
  8
0
 10
32.427
 20
136.237
 11
32.1869
 21
135.946
  0
LINE
  8
0
 10
32.1869
 20
135.946
 11
31.9123
 21
135.688
  0
LINE
  8
0
 10
31.9123
 20
135.688
 11
31.6075
 21
135.467
  0
LINE
  8
0
 10
31.6075
 20
135.467
 11
31.2773
 21
135.286
  0
LINE
  8
0
 10
31.2773
 20
135.286
 11
30.927
 21
135.147
  0
LINE
  8
0
 10
30.927
 20
135.147
 11
30.5621
 21
135.053
  0
LINE
  8
0
 10
30.5621
 20
135.053
 11
30.1884
 21
135.006
  0
LINE
  8
0
 10
30.1884
 20
135.006
 11
29.8116
 21
135.006
  0
LINE
  8
0
 10
27
 20
204.99
 11
16.1312
 21
204.99
  0
LINE
  8
0
 10
16.1312
 20
204.99
 11
19.1213
 21
202
  0
LINE
  8
0
 10
19.1213
 20
202
 11
27
 21
202
  0
LINE
  8
0
 10
27
 20
202
 11
27
 21
204.99
  0
LINE
  8
0
 10
18.9984
 20
114.018
 11
19.12
 21
114.049
  0
LINE
  8
0
 10
19.12
 20
114.049
 11
19.2368
 21
114.095
  0
LINE
  8
0
 10
19.2368
 20
114.095
 11
19.3468
 21
114.156
  0
LINE
  8
0
 10
19.3468
 20
114.156
 11
19.4484
 21
114.229
  0
LINE
  8
0
 10
19.4484
 20
114.229
 11
19.54
 21
114.315
  0
LINE
  8
0
 10
19.54
 20
114.315
 11
19.62
 21
114.412
  0
LINE
  8
0
 10
19.62
 20
114.412
 11
19.6873
 21
114.518
  0
LINE
  8
0
 10
19.6873
 20
114.518
 11
19.7408
 21
114.632
  0
LINE
  8
0
 10
19.7408
 20
114.632
 11
19.7796
 21
114.751
  0
LINE
  8
0
 10
19.7796
 20
114.751
 11
19.8031
 21
114.875
  0
LINE
  8
0
 10
19.8031
 20
114.875
 11
19.811
 21
115
  0
LINE
  8
0
 10
19.811
 20
115
 11
19.8031
 21
115.125
  0
LINE
  8
0
 10
19.8031
 20
115.125
 11
19.7796
 21
115.249
  0
LINE
  8
0
 10
19.7796
 20
115.249
 11
19.7408
 21
115.368
  0
LINE
  8
0
 10
19.7408
 20
115.368
 11
19.6873
 21
115.482
  0
LINE
  8
0
 10
19.6873
 20
115.482
 11
19.62
 21
115.588
  0
LINE
  8
0
 10
19.62
 20
115.588
 11
19.54
 21
115.685
  0
LINE
  8
0
 10
19.54
 20
115.685
 11
19.4484
 21
115.771
  0
LINE
  8
0
 10
19.4484
 20
115.771
 11
19.3468
 21
115.844
  0
LINE
  8
0
 10
19.3468
 20
115.844
 11
19.2368
 21
115.905
  0
LINE
  8
0
 10
19.2368
 20
115.905
 11
19.12
 21
115.951
  0
LINE
  8
0
 10
19.12
 20
115.951
 11
18.9984
 21
115.982
  0
LINE
  8
0
 10
18.9984
 20
115.982
 11
18.8738
 21
115.998
  0
LINE
  8
0
 10
18.8738
 20
115.998
 11
13.7482
 21
115.998
  0
LINE
  8
0
 10
13.7482
 20
115.998
 11
13.6236
 21
115.982
  0
LINE
  8
0
 10
13.6236
 20
115.982
 11
13.502
 21
115.951
  0
LINE
  8
0
 10
13.502
 20
115.951
 11
13.3852
 21
115.905
  0
LINE
  8
0
 10
13.3852
 20
115.905
 11
13.2752
 21
115.844
  0
LINE
  8
0
 10
13.2752
 20
115.844
 11
13.1736
 21
115.771
  0
LINE
  8
0
 10
13.1736
 20
115.771
 11
13.082
 21
115.685
  0
LINE
  8
0
 10
13.082
 20
115.685
 11
13.002
 21
115.588
  0
LINE
  8
0
 10
13.002
 20
115.588
 11
12.9347
 21
115.482
  0
LINE
  8
0
 10
12.9347
 20
115.482
 11
12.8812
 21
115.368
  0
LINE
  8
0
 10
12.8812
 20
115.368
 11
12.8424
 21
115.249
  0
LINE
  8
0
 10
12.8424
 20
115.249
 11
12.8189
 21
115.125
  0
LINE
  8
0
 10
12.8189
 20
115.125
 11
12.811
 21
115
  0
LINE
  8
0
 10
12.811
 20
115
 11
12.8189
 21
114.875
  0
LINE
  8
0
 10
12.8189
 20
114.875
 11
12.8424
 21
114.751
  0
LINE
  8
0
 10
12.8424
 20
114.751
 11
12.8812
 21
114.632
  0
LINE
  8
0
 10
12.8812
 20
114.632
 11
12.9347
 21
114.518
  0
LINE
  8
0
 10
12.9347
 20
114.518
 11
13.002
 21
114.412
  0
LINE
  8
0
 10
13.002
 20
114.412
 11
13.082
 21
114.315
  0
LINE
  8
0
 10
13.082
 20
114.315
 11
13.1736
 21
114.229
  0
LINE
  8
0
 10
13.1736
 20
114.229
 11
13.2752
 21
114.156
  0
LINE
  8
0
 10
13.2752
 20
114.156
 11
13.3852
 21
114.095
  0
LINE
  8
0
 10
13.3852
 20
114.095
 11
13.502
 21
114.049
  0
LINE
  8
0
 10
13.502
 20
114.049
 11
13.6236
 21
114.018
  0
LINE
  8
0
 10
13.6236
 20
114.018
 11
13.7482
 21
114.002
  0
LINE
  8
0
 10
13.7482
 20
114.002
 11
18.8738
 21
114.002
  0
LINE
  8
0
 10
18.8738
 20
114.002
 11
18.9984
 21
114.018
  0
LINE
  8
0
 10
18.9984
 20
30.0177
 11
19.12
 21
30.0489
  0
LINE
  8
0
 10
19.12
 20
30.0489
 11
19.2368
 21
30.0952
  0
LINE
  8
0
 10
19.2368
 20
30.0952
 11
19.3468
 21
30.1557
  0
LINE
  8
0
 10
19.3468
 20
30.1557
 11
19.4484
 21
30.2295
  0
LINE
  8
0
 10
19.4484
 20
30.2295
 11
19.54
 21
30.3154
  0
LINE
  8
0
 10
19.54
 20
30.3154
 11
19.62
 21
30.4122
  0
LINE
  8
0
 10
19.62
 20
30.4122
 11
19.6873
 21
30.5182
  0
LINE
  8
0
 10
19.6873
 20
30.5182
 11
19.7408
 21
30.6319
  0
LINE
  8
0
 10
19.7408
 20
30.6319
 11
19.7796
 21
30.7513
  0
LINE
  8
0
 10
19.7796
 20
30.7513
 11
19.8031
 21
30.8747
  0
LINE
  8
0
 10
19.8031
 20
30.8747
 11
19.811
 21
31
  0
LINE
  8
0
 10
19.811
 20
31
 11
19.8031
 21
31.1253
  0
LINE
  8
0
 10
19.8031
 20
31.1253
 11
19.7796
 21
31.2487
  0
LINE
  8
0
 10
19.7796
 20
31.2487
 11
19.7408
 21
31.3681
  0
LINE
  8
0
 10
19.7408
 20
31.3681
 11
19.6873
 21
31.4818
  0
LINE
  8
0
 10
19.6873
 20
31.4818
 11
19.62
 21
31.5878
  0
LINE
  8
0
 10
19.62
 20
31.5878
 11
19.54
 21
31.6845
  0
LINE
  8
0
 10
19.54
 20
31.6845
 11
19.4484
 21
31.7705
  0
LINE
  8
0
 10
19.4484
 20
31.7705
 11
19.3468
 21
31.8443
  0
LINE
  8
0
 10
19.3468
 20
31.8443
 11
19.2368
 21
31.9048
  0
LINE
  8
0
 10
19.2368
 20
31.9048
 11
19.12
 21
31.951
  0
LINE
  8
0
 10
19.12
 20
31.951
 11
18.9984
 21
31.9823
  0
LINE
  8
0
 10
18.9984
 20
31.9823
 11
18.8738
 21
31.998
  0
LINE
  8
0
 10
18.8738
 20
31.998
 11
13.7482
 21
31.998
  0
LINE
  8
0
 10
13.7482
 20
31.998
 11
13.6236
 21
31.9823
  0
LINE
  8
0
 10
13.6236
 20
31.9823
 11
13.502
 21
31.951
  0
LINE
  8
0
 10
13.502
 20
31.951
 11
13.3852
 21
31.9048
  0
LINE
  8
0
 10
13.3852
 20
31.9048
 11
13.2752
 21
31.8443
  0
LINE
  8
0
 10
13.2752
 20
31.8443
 11
13.1736
 21
31.7705
  0
LINE
  8
0
 10
13.1736
 20
31.7705
 11
13.082
 21
31.6845
  0
LINE
  8
0
 10
13.082
 20
31.6845
 11
13.002
 21
31.5878
  0
LINE
  8
0
 10
13.002
 20
31.5878
 11
12.9347
 21
31.4818
  0
LINE
  8
0
 10
12.9347
 20
31.4818
 11
12.8812
 21
31.3681
  0
LINE
  8
0
 10
12.8812
 20
31.3681
 11
12.8424
 21
31.2487
  0
LINE
  8
0
 10
12.8424
 20
31.2487
 11
12.8189
 21
31.1253
  0
LINE
  8
0
 10
12.8189
 20
31.1253
 11
12.811
 21
31
  0
LINE
  8
0
 10
12.811
 20
31
 11
12.8189
 21
30.8747
  0
LINE
  8
0
 10
12.8189
 20
30.8747
 11
12.8424
 21
30.7513
  0
LINE
  8
0
 10
12.8424
 20
30.7513
 11
12.8812
 21
30.6319
  0
LINE
  8
0
 10
12.8812
 20
30.6319
 11
12.9347
 21
30.5182
  0
LINE
  8
0
 10
12.9347
 20
30.5182
 11
13.002
 21
30.4122
  0
LINE
  8
0
 10
13.002
 20
30.4122
 11
13.082
 21
30.3154
  0
LINE
  8
0
 10
13.082
 20
30.3154
 11
13.1736
 21
30.2295
  0
LINE
  8
0
 10
13.1736
 20
30.2295
 11
13.2752
 21
30.1557
  0
LINE
  8
0
 10
13.2752
 20
30.1557
 11
13.3852
 21
30.0952
  0
LINE
  8
0
 10
13.3852
 20
30.0952
 11
13.502
 21
30.0489
  0
LINE
  8
0
 10
13.502
 20
30.0489
 11
13.6236
 21
30.0177
  0
LINE
  8
0
 10
13.6236
 20
30.0177
 11
13.7482
 21
30.002
  0
LINE
  8
0
 10
13.7482
 20
30.002
 11
18.8738
 21
30.002
  0
LINE
  8
0
 10
18.8738
 20
30.002
 11
18.9984
 21
30.0177
  0
ENDSEC
  0
SECTION
  2
OBJECTS
  0
DICTIONARY
  0
ENDSEC
  0
EOF
