<?xml version="1.0" standalone="no"?>
<!DOCTYPE svg PUBLIC "-//W3C//DTD SVG 1.1//EN" "http://www.w3.org/Graphics/SVG/1.1/DTD/svg11.dtd">
<svg width="74mm" height="175mm" viewBox="-37 -205 74 175" xmlns="http://www.w3.org/2000/svg" version="1.1">
<title>OpenSCAD Model</title>
<path d="
M 32.9369,-131.089 L 33.5451,-131.245 L 34.1289,-131.476 L 34.6791,-131.778 L 35.1871,-132.147 L 35.6448,-132.577
 L 36.0451,-133.061 L 36.3815,-133.591 L 36.6489,-134.159 L 36.8429,-134.757 L 36.9606,-135.373 L 37,-136
 L 37,-200 L 14.561,-200 L 14.561,-199.998 L 13.7482,-199.998 L 13.6236,-199.982 L 13.502,-199.951
 L 13.3852,-199.905 L 13.2752,-199.844 L 13.1736,-199.771 L 13.082,-199.685 L 13.002,-199.588 L 12.9347,-199.482
 L 12.8812,-199.368 L 12.8424,-199.249 L 12.8189,-199.125 L 12.811,-199 L 12.8189,-198.875 L 12.8424,-198.751
 L 12.8812,-198.632 L 12.9347,-198.518 L 13.002,-198.412 L 13.082,-198.315 L 13.1736,-198.229 L 13.2752,-198.156
 L 13.3852,-198.095 L 13.502,-198.049 L 13.6236,-198.018 L 13.7482,-198.002 L 15.8628,-198.002 L 18.2181,-196.707
 L 21.6724,-194.197 L 24.7849,-191.275 L 27.5066,-187.985 L 29.7944,-184.38 L 31.6124,-180.516 L 32.9318,-176.455
 L 33.7319,-172.261 L 34,-168 L 33.7319,-163.739 L 32.9318,-159.545 L 31.6124,-155.484 L 29.7944,-151.62
 L 27.5066,-148.015 L 24.7849,-144.725 L 21.6724,-141.803 L 18.2181,-139.293 L 14.4765,-137.236 L 10.5066,-135.664
 L 6.37096,-134.602 L 2.13487,-134.067 L -2.13487,-134.067 L -6.37096,-134.602 L -10.5066,-135.664 L -14.4765,-137.236
 L -18.2181,-139.293 L -21.6724,-141.803 L -24.7849,-144.725 L -27.5066,-148.015 L -29.7944,-151.62 L -31.6124,-155.484
 L -32.9318,-159.545 L -33.7319,-163.739 L -34,-168 L -33.7319,-172.261 L -32.9318,-176.455 L -31.6124,-180.516
 L -29.7944,-184.38 L -27.5066,-187.985 L -24.7849,-191.275 L -21.6724,-194.197 L -18.2181,-196.707 L -14.4765,-198.764
 L -10.5066,-200.336 L -6.37096,-201.398 L -2.13487,-201.933 L 0,-201.933 L 0,-202 L 17,-202
 L 14.0099,-204.99 L -4.5,-204.99 L -4.5,-204 L -36.5,-204 L -36.5,-205 L -37,-205
 L -37,-136 L -36.9606,-135.373 L -36.8429,-134.757 L -36.6489,-134.159 L -36.3815,-133.591 L -36.0451,-133.061
 L -35.6448,-132.577 L -35.1871,-132.147 L -34.6791,-131.778 L -34.1289,-131.476 L -33.5451,-131.245 L -32.9369,-131.089
 L -32.3139,-131.01 L 32.3139,-131.01 z
M 29.8116,-135.006 L 29.4379,-135.053 L 29.0729,-135.147 L 28.7227,-135.286 L 28.3925,-135.467 L 28.0877,-135.688
 L 27.8131,-135.946 L 27.5729,-136.237 L 27.3711,-136.555 L 27.2107,-136.896 L 27.0942,-137.254 L 27.0237,-137.624
 L 27,-138 L 27.0237,-138.376 L 27.0942,-138.746 L 27.2107,-139.104 L 27.3711,-139.445 L 27.5729,-139.763
 L 27.8131,-140.054 L 28.0877,-140.312 L 28.3925,-140.533 L 28.7227,-140.714 L 29.0729,-140.853 L 29.4379,-140.947
 L 29.8116,-140.994 L 30.1884,-140.994 L 30.5621,-140.947 L 30.927,-140.853 L 31.2773,-140.714 L 31.6075,-140.533
 L 31.9123,-140.312 L 32.1869,-140.054 L 32.427,-139.763 L 32.6289,-139.445 L 32.7893,-139.104 L 32.9057,-138.746
 L 32.9763,-138.376 L 33,-138 L 32.9763,-137.624 L 32.9057,-137.254 L 32.7893,-136.896 L 32.6289,-136.555
 L 32.427,-136.237 L 32.1869,-135.946 L 31.9123,-135.688 L 31.6075,-135.467 L 31.2773,-135.286 L 30.927,-135.147
 L 30.5621,-135.053 L 30.1884,-135.006 z
M 27,-204.99 L 16.1312,-204.99 L 19.1213,-202 L 27,-202 z
M 18.9984,-114.018 L 19.12,-114.049 L 19.2368,-114.095 L 19.3468,-114.156 L 19.4484,-114.229 L 19.54,-114.315
 L 19.62,-114.412 L 19.6873,-114.518 L 19.7408,-114.632 L 19.7796,-114.751 L 19.8031,-114.875 L 19.811,-115
 L 19.8031,-115.125 L 19.7796,-115.249 L 19.7408,-115.368 L 19.6873,-115.482 L 19.62,-115.588 L 19.54,-115.685
 L 19.4484,-115.771 L 19.3468,-115.844 L 19.2368,-115.905 L 19.12,-115.951 L 18.9984,-115.982 L 18.8738,-115.998
 L 13.7482,-115.998 L 13.6236,-115.982 L 13.502,-115.951 L 13.3852,-115.905 L 13.2752,-115.844 L 13.1736,-115.771
 L 13.082,-115.685 L 13.002,-115.588 L 12.9347,-115.482 L 12.8812,-115.368 L 12.8424,-115.249 L 12.8189,-115.125
 L 12.811,-115 L 12.8189,-114.875 L 12.8424,-114.751 L 12.8812,-114.632 L 12.9347,-114.518 L 13.002,-114.412
 L 13.082,-114.315 L 13.1736,-114.229 L 13.2752,-114.156 L 13.3852,-114.095 L 13.502,-114.049 L 13.6236,-114.018
 L 13.7482,-114.002 L 18.8738,-114.002 z
M 18.9984,-30.0177 L 19.12,-30.0489 L 19.2368,-30.0952 L 19.3468,-30.1557 L 19.4484,-30.2295 L 19.54,-30.3154
 L 19.62,-30.4122 L 19.6873,-30.5182 L 19.7408,-30.6319 L 19.7796,-30.7513 L 19.8031,-30.8747 L 19.811,-31
 L 19.8031,-31.1253 L 19.7796,-31.2487 L 19.7408,-31.3681 L 19.6873,-31.4818 L 19.62,-31.5878 L 19.54,-31.6845
 L 19.4484,-31.7705 L 19.3468,-31.8443 L 19.2368,-31.9048 L 19.12,-31.951 L 18.9984,-31.9823 L 18.8738,-31.998
 L 13.7482,-31.998 L 13.6236,-31.9823 L 13.502,-31.951 L 13.3852,-31.9048 L 13.2752,-31.8443 L 13.1736,-31.7705
 L 13.082,-31.6845 L 13.002,-31.5878 L 12.9347,-31.4818 L 12.8812,-31.3681 L 12.8424,-31.2487 L 12.8189,-31.1253
 L 12.811,-31 L 12.8189,-30.8747 L 12.8424,-30.7513 L 12.8812,-30.6319 L 12.9347,-30.5182 L 13.002,-30.4122
 L 13.082,-30.3154 L 13.1736,-30.2295 L 13.2752,-30.1557 L 13.3852,-30.0952 L 13.502,-30.0489 L 13.6236,-30.0177
 L 13.7482,-30.002 L 18.8738,-30.002 z
" stroke="black" fill="lightgray" stroke-width="0.5"/>
</svg>
