<?xml version="1.0" standalone="no"?>
<!DOCTYPE svg PUBLIC "-//W3C//DTD SVG 1.1//EN" "http://www.w3.org/Graphics/SVG/1.1/DTD/svg11.dtd">
<svg width="196mm" height="1132mm" viewBox="-98 -2219 196 1132" xmlns="http://www.w3.org/2000/svg" version="1.1">
<title>OpenSCAD Model</title>
<path d="
M 93.4369,-2113.59 L 94.0451,-2113.74 L 94.6289,-2113.98 L 95.1791,-2114.28 L 95.6871,-2114.65 L 96.1448,-2115.08
 L 96.5451,-2115.56 L 96.8815,-2116.09 L 97.1489,-2116.66 L 97.3429,-2117.26 L 97.4606,-2117.87 L 97.5,-2118.5
 L 97.5,-2213.5 L 97.4606,-2214.13 L 97.3429,-2214.74 L 97.1489,-2215.34 L 96.8815,-2215.91 L 96.5451,-2216.44
 L 96.1448,-2216.92 L 95.6871,-2217.35 L 95.1791,-2217.72 L 94.6289,-2218.02 L 94.0451,-2218.26 L 93.4369,-2218.41
 L 92.8139,-2218.49 L -92.8139,-2218.49 L -93.4369,-2218.41 L -94.0451,-2218.26 L -94.6289,-2218.02 L -95.1791,-2217.72
 L -95.6871,-2217.35 L -96.1448,-2216.92 L -96.5451,-2216.44 L -96.8815,-2215.91 L -97.1489,-2215.34 L -97.3429,-2214.74
 L -97.4606,-2214.13 L -97.5,-2213.5 L -97.5,-2118.5 L -97.4606,-2117.87 L -97.3429,-2117.26 L -97.1489,-2116.66
 L -96.8815,-2116.09 L -96.5451,-2115.56 L -96.1448,-2115.08 L -95.6871,-2114.65 L -95.1791,-2114.28 L -94.6289,-2113.98
 L -94.0451,-2113.74 L -93.4369,-2113.59 L -92.8139,-2113.51 L 92.8139,-2113.51 z
M -92.2512,-2115.01 L -92.7495,-2115.07 L -93.2361,-2115.2 L -93.7031,-2115.38 L -94.1433,-2115.62 L -94.5497,-2115.92
 L -94.9159,-2116.26 L -95.2361,-2116.65 L -95.5052,-2117.07 L -95.7191,-2117.53 L -95.8743,-2118.01 L -95.9685,-2118.5
 L -96,-2119 L -96,-2213 L -95.9685,-2213.5 L -95.8743,-2213.99 L -95.7191,-2214.47 L -95.5052,-2214.93
 L -95.2361,-2215.35 L -94.9159,-2215.74 L -94.5497,-2216.08 L -94.1433,-2216.38 L -93.7031,-2216.62 L -93.2361,-2216.8
 L -92.7495,-2216.93 L -92.2512,-2216.99 L 92.2512,-2216.99 L 92.7495,-2216.93 L 93.2361,-2216.8 L 93.7031,-2216.62
 L 94.1433,-2216.38 L 94.5497,-2216.08 L 94.9159,-2215.74 L 95.2361,-2215.35 L 95.5052,-2214.93 L 95.7191,-2214.47
 L 95.8743,-2213.99 L 95.9685,-2213.5 L 96,-2213 L 96,-2119 L 95.9685,-2118.5 L 95.8743,-2118.01
 L 95.7191,-2117.53 L 95.5052,-2117.07 L 95.2361,-2116.65 L 94.9159,-2116.26 L 94.5497,-2115.92 L 94.1433,-2115.62
 L 93.7031,-2115.38 L 93.2361,-2115.2 L 92.7495,-2115.07 L 92.2512,-2115.01 z
M 93.4369,-1999.59 L 94.0451,-1999.74 L 94.6289,-1999.98 L 95.1791,-2000.28 L 95.6871,-2000.65 L 96.1448,-2001.08
 L 96.5451,-2001.56 L 96.8815,-2002.09 L 97.1489,-2002.66 L 97.3429,-2003.26 L 97.4606,-2003.87 L 97.5,-2004.5
 L 97.5,-2099.5 L 97.4606,-2100.13 L 97.3429,-2100.74 L 97.1489,-2101.34 L 96.8815,-2101.91 L 96.5451,-2102.44
 L 96.1448,-2102.92 L 95.6871,-2103.35 L 95.1791,-2103.72 L 94.6289,-2104.02 L 94.0451,-2104.26 L 93.4369,-2104.41
 L 92.8139,-2104.49 L -92.8139,-2104.49 L -93.4369,-2104.41 L -94.0451,-2104.26 L -94.6289,-2104.02 L -95.1791,-2103.72
 L -95.6871,-2103.35 L -96.1448,-2102.92 L -96.5451,-2102.44 L -96.8815,-2101.91 L -97.1489,-2101.34 L -97.3429,-2100.74
 L -97.4606,-2100.13 L -97.5,-2099.5 L -97.5,-2004.5 L -97.4606,-2003.87 L -97.3429,-2003.26 L -97.1489,-2002.66
 L -96.8815,-2002.09 L -96.5451,-2001.56 L -96.1448,-2001.08 L -95.6871,-2000.65 L -95.1791,-2000.28 L -94.6289,-1999.98
 L -94.0451,-1999.74 L -93.4369,-1999.59 L -92.8139,-1999.51 L 92.8139,-1999.51 z
M -92.2512,-2001.01 L -92.7495,-2001.07 L -93.2361,-2001.2 L -93.7031,-2001.38 L -94.1433,-2001.62 L -94.5497,-2001.92
 L -94.9159,-2002.26 L -95.2361,-2002.65 L -95.5052,-2003.07 L -95.7191,-2003.53 L -95.8743,-2004.01 L -95.9685,-2004.5
 L -96,-2005 L -96,-2099 L -95.9685,-2099.5 L -95.8743,-2099.99 L -95.7191,-2100.47 L -95.5052,-2100.93
 L -95.2361,-2101.35 L -94.9159,-2101.74 L -94.5497,-2102.08 L -94.1433,-2102.38 L -93.7031,-2102.62 L -93.2361,-2102.8
 L -92.7495,-2102.93 L -92.2512,-2102.99 L 92.2512,-2102.99 L 92.7495,-2102.93 L 93.2361,-2102.8 L 93.7031,-2102.62
 L 94.1433,-2102.38 L 94.5497,-2102.08 L 94.9159,-2101.74 L 95.2361,-2101.35 L 95.5052,-2100.93 L 95.7191,-2100.47
 L 95.8743,-2099.99 L 95.9685,-2099.5 L 96,-2099 L 96,-2005 L 95.9685,-2004.5 L 95.8743,-2004.01
 L 95.7191,-2003.53 L 95.5052,-2003.07 L 95.2361,-2002.65 L 94.9159,-2002.26 L 94.5497,-2001.92 L 94.1433,-2001.62
 L 93.7031,-2001.38 L 93.2361,-2001.2 L 92.7495,-2001.07 L 92.2512,-2001.01 z
M 93.4369,-1885.59 L 94.0451,-1885.74 L 94.6289,-1885.98 L 95.1791,-1886.28 L 95.6871,-1886.65 L 96.1448,-1887.08
 L 96.5451,-1887.56 L 96.8815,-1888.09 L 97.1489,-1888.66 L 97.3429,-1889.26 L 97.4606,-1889.87 L 97.5,-1890.5
 L 97.5,-1985.5 L 97.4606,-1986.13 L 97.3429,-1986.74 L 97.1489,-1987.34 L 96.8815,-1987.91 L 96.5451,-1988.44
 L 96.1448,-1988.92 L 95.6871,-1989.35 L 95.1791,-1989.72 L 94.6289,-1990.02 L 94.0451,-1990.26 L 93.4369,-1990.41
 L 92.8139,-1990.49 L -92.8139,-1990.49 L -93.4369,-1990.41 L -94.0451,-1990.26 L -94.6289,-1990.02 L -95.1791,-1989.72
 L -95.6871,-1989.35 L -96.1448,-1988.92 L -96.5451,-1988.44 L -96.8815,-1987.91 L -97.1489,-1987.34 L -97.3429,-1986.74
 L -97.4606,-1986.13 L -97.5,-1985.5 L -97.5,-1890.5 L -97.4606,-1889.87 L -97.3429,-1889.26 L -97.1489,-1888.66
 L -96.8815,-1888.09 L -96.5451,-1887.56 L -96.1448,-1887.08 L -95.6871,-1886.65 L -95.1791,-1886.28 L -94.6289,-1885.98
 L -94.0451,-1885.74 L -93.4369,-1885.59 L -92.8139,-1885.51 L 92.8139,-1885.51 z
M -92.2512,-1887.01 L -92.7495,-1887.07 L -93.2361,-1887.2 L -93.7031,-1887.38 L -94.1433,-1887.62 L -94.5497,-1887.92
 L -94.9159,-1888.26 L -95.2361,-1888.65 L -95.5052,-1889.07 L -95.7191,-1889.53 L -95.8743,-1890.01 L -95.9685,-1890.5
 L -96,-1891 L -96,-1985 L -95.9685,-1985.5 L -95.8743,-1985.99 L -95.7191,-1986.47 L -95.5052,-1986.93
 L -95.2361,-1987.35 L -94.9159,-1987.74 L -94.5497,-1988.08 L -94.1433,-1988.38 L -93.7031,-1988.62 L -93.2361,-1988.8
 L -92.7495,-1988.93 L -92.2512,-1988.99 L 92.2512,-1988.99 L 92.7495,-1988.93 L 93.2361,-1988.8 L 93.7031,-1988.62
 L 94.1433,-1988.38 L 94.5497,-1988.08 L 94.9159,-1987.74 L 95.2361,-1987.35 L 95.5052,-1986.93 L 95.7191,-1986.47
 L 95.8743,-1985.99 L 95.9685,-1985.5 L 96,-1985 L 96,-1891 L 95.9685,-1890.5 L 95.8743,-1890.01
 L 95.7191,-1889.53 L 95.5052,-1889.07 L 95.2361,-1888.65 L 94.9159,-1888.26 L 94.5497,-1887.92 L 94.1433,-1887.62
 L 93.7031,-1887.38 L 93.2361,-1887.2 L 92.7495,-1887.07 L 92.2512,-1887.01 z
M 93.4369,-1771.59 L 94.0451,-1771.74 L 94.6289,-1771.98 L 95.1791,-1772.28 L 95.6871,-1772.65 L 96.1448,-1773.08
 L 96.5451,-1773.56 L 96.8815,-1774.09 L 97.1489,-1774.66 L 97.3429,-1775.26 L 97.4606,-1775.87 L 97.5,-1776.5
 L 97.5,-1871.5 L 97.4606,-1872.13 L 97.3429,-1872.74 L 97.1489,-1873.34 L 96.8815,-1873.91 L 96.5451,-1874.44
 L 96.1448,-1874.92 L 95.6871,-1875.35 L 95.1791,-1875.72 L 94.6289,-1876.02 L 94.0451,-1876.26 L 93.4369,-1876.41
 L 92.8139,-1876.49 L -92.8139,-1876.49 L -93.4369,-1876.41 L -94.0451,-1876.26 L -94.6289,-1876.02 L -95.1791,-1875.72
 L -95.6871,-1875.35 L -96.1448,-1874.92 L -96.5451,-1874.44 L -96.8815,-1873.91 L -97.1489,-1873.34 L -97.3429,-1872.74
 L -97.4606,-1872.13 L -97.5,-1871.5 L -97.5,-1776.5 L -97.4606,-1775.87 L -97.3429,-1775.26 L -97.1489,-1774.66
 L -96.8815,-1774.09 L -96.5451,-1773.56 L -96.1448,-1773.08 L -95.6871,-1772.65 L -95.1791,-1772.28 L -94.6289,-1771.98
 L -94.0451,-1771.74 L -93.4369,-1771.59 L -92.8139,-1771.51 L 92.8139,-1771.51 z
M -92.2512,-1773.01 L -92.7495,-1773.07 L -93.2361,-1773.2 L -93.7031,-1773.38 L -94.1433,-1773.62 L -94.5497,-1773.92
 L -94.9159,-1774.26 L -95.2361,-1774.65 L -95.5052,-1775.07 L -95.7191,-1775.53 L -95.8743,-1776.01 L -95.9685,-1776.5
 L -96,-1777 L -96,-1871 L -95.9685,-1871.5 L -95.8743,-1871.99 L -95.7191,-1872.47 L -95.5052,-1872.93
 L -95.2361,-1873.35 L -94.9159,-1873.74 L -94.5497,-1874.08 L -94.1433,-1874.38 L -93.7031,-1874.62 L -93.2361,-1874.8
 L -92.7495,-1874.93 L -92.2512,-1874.99 L 92.2512,-1874.99 L 92.7495,-1874.93 L 93.2361,-1874.8 L 93.7031,-1874.62
 L 94.1433,-1874.38 L 94.5497,-1874.08 L 94.9159,-1873.74 L 95.2361,-1873.35 L 95.5052,-1872.93 L 95.7191,-1872.47
 L 95.8743,-1871.99 L 95.9685,-1871.5 L 96,-1871 L 96,-1777 L 95.9685,-1776.5 L 95.8743,-1776.01
 L 95.7191,-1775.53 L 95.5052,-1775.07 L 95.2361,-1774.65 L 94.9159,-1774.26 L 94.5497,-1773.92 L 94.1433,-1773.62
 L 93.7031,-1773.38 L 93.2361,-1773.2 L 92.7495,-1773.07 L 92.2512,-1773.01 z
M 93.4369,-1657.59 L 94.0451,-1657.74 L 94.6289,-1657.98 L 95.1791,-1658.28 L 95.6871,-1658.65 L 96.1448,-1659.08
 L 96.5451,-1659.56 L 96.8815,-1660.09 L 97.1489,-1660.66 L 97.3429,-1661.26 L 97.4606,-1661.87 L 97.5,-1662.5
 L 97.5,-1757.5 L 97.4606,-1758.13 L 97.3429,-1758.74 L 97.1489,-1759.34 L 96.8815,-1759.91 L 96.5451,-1760.44
 L 96.1448,-1760.92 L 95.6871,-1761.35 L 95.1791,-1761.72 L 94.6289,-1762.02 L 94.0451,-1762.26 L 93.4369,-1762.41
 L 92.8139,-1762.49 L -92.8139,-1762.49 L -93.4369,-1762.41 L -94.0451,-1762.26 L -94.6289,-1762.02 L -95.1791,-1761.72
 L -95.6871,-1761.35 L -96.1448,-1760.92 L -96.5451,-1760.44 L -96.8815,-1759.91 L -97.1489,-1759.34 L -97.3429,-1758.74
 L -97.4606,-1758.13 L -97.5,-1757.5 L -97.5,-1662.5 L -97.4606,-1661.87 L -97.3429,-1661.26 L -97.1489,-1660.66
 L -96.8815,-1660.09 L -96.5451,-1659.56 L -96.1448,-1659.08 L -95.6871,-1658.65 L -95.1791,-1658.28 L -94.6289,-1657.98
 L -94.0451,-1657.74 L -93.4369,-1657.59 L -92.8139,-1657.51 L 92.8139,-1657.51 z
M -92.2512,-1659.01 L -92.7495,-1659.07 L -93.2361,-1659.2 L -93.7031,-1659.38 L -94.1433,-1659.62 L -94.5497,-1659.92
 L -94.9159,-1660.26 L -95.2361,-1660.65 L -95.5052,-1661.07 L -95.7191,-1661.53 L -95.8743,-1662.01 L -95.9685,-1662.5
 L -96,-1663 L -96,-1757 L -95.9685,-1757.5 L -95.8743,-1757.99 L -95.7191,-1758.47 L -95.5052,-1758.93
 L -95.2361,-1759.35 L -94.9159,-1759.74 L -94.5497,-1760.08 L -94.1433,-1760.38 L -93.7031,-1760.62 L -93.2361,-1760.8
 L -92.7495,-1760.93 L -92.2512,-1760.99 L 92.2512,-1760.99 L 92.7495,-1760.93 L 93.2361,-1760.8 L 93.7031,-1760.62
 L 94.1433,-1760.38 L 94.5497,-1760.08 L 94.9159,-1759.74 L 95.2361,-1759.35 L 95.5052,-1758.93 L 95.7191,-1758.47
 L 95.8743,-1757.99 L 95.9685,-1757.5 L 96,-1757 L 96,-1663 L 95.9685,-1662.5 L 95.8743,-1662.01
 L 95.7191,-1661.53 L 95.5052,-1661.07 L 95.2361,-1660.65 L 94.9159,-1660.26 L 94.5497,-1659.92 L 94.1433,-1659.62
 L 93.7031,-1659.38 L 93.2361,-1659.2 L 92.7495,-1659.07 L 92.2512,-1659.01 z
M 93.4369,-1543.59 L 94.0451,-1543.74 L 94.6289,-1543.98 L 95.1791,-1544.28 L 95.6871,-1544.65 L 96.1448,-1545.08
 L 96.5451,-1545.56 L 96.8815,-1546.09 L 97.1489,-1546.66 L 97.3429,-1547.26 L 97.4606,-1547.87 L 97.5,-1548.5
 L 97.5,-1643.5 L 97.4606,-1644.13 L 97.3429,-1644.74 L 97.1489,-1645.34 L 96.8815,-1645.91 L 96.5451,-1646.44
 L 96.1448,-1646.92 L 95.6871,-1647.35 L 95.1791,-1647.72 L 94.6289,-1648.02 L 94.0451,-1648.26 L 93.4369,-1648.41
 L 92.8139,-1648.49 L -92.8139,-1648.49 L -93.4369,-1648.41 L -94.0451,-1648.26 L -94.6289,-1648.02 L -95.1791,-1647.72
 L -95.6871,-1647.35 L -96.1448,-1646.92 L -96.5451,-1646.44 L -96.8815,-1645.91 L -97.1489,-1645.34 L -97.3429,-1644.74
 L -97.4606,-1644.13 L -97.5,-1643.5 L -97.5,-1548.5 L -97.4606,-1547.87 L -97.3429,-1547.26 L -97.1489,-1546.66
 L -96.8815,-1546.09 L -96.5451,-1545.56 L -96.1448,-1545.08 L -95.6871,-1544.65 L -95.1791,-1544.28 L -94.6289,-1543.98
 L -94.0451,-1543.74 L -93.4369,-1543.59 L -92.8139,-1543.51 L 92.8139,-1543.51 z
M -92.2512,-1545.01 L -92.7495,-1545.07 L -93.2361,-1545.2 L -93.7031,-1545.38 L -94.1433,-1545.62 L -94.5497,-1545.92
 L -94.9159,-1546.26 L -95.2361,-1546.65 L -95.5052,-1547.07 L -95.7191,-1547.53 L -95.8743,-1548.01 L -95.9685,-1548.5
 L -96,-1549 L -96,-1643 L -95.9685,-1643.5 L -95.8743,-1643.99 L -95.7191,-1644.47 L -95.5052,-1644.93
 L -95.2361,-1645.35 L -94.9159,-1645.74 L -94.5497,-1646.08 L -94.1433,-1646.38 L -93.7031,-1646.62 L -93.2361,-1646.8
 L -92.7495,-1646.93 L -92.2512,-1646.99 L 92.2512,-1646.99 L 92.7495,-1646.93 L 93.2361,-1646.8 L 93.7031,-1646.62
 L 94.1433,-1646.38 L 94.5497,-1646.08 L 94.9159,-1645.74 L 95.2361,-1645.35 L 95.5052,-1644.93 L 95.7191,-1644.47
 L 95.8743,-1643.99 L 95.9685,-1643.5 L 96,-1643 L 96,-1549 L 95.9685,-1548.5 L 95.8743,-1548.01
 L 95.7191,-1547.53 L 95.5052,-1547.07 L 95.2361,-1546.65 L 94.9159,-1546.26 L 94.5497,-1545.92 L 94.1433,-1545.62
 L 93.7031,-1545.38 L 93.2361,-1545.2 L 92.7495,-1545.07 L 92.2512,-1545.01 z
M 93.4369,-1429.59 L 94.0451,-1429.74 L 94.6289,-1429.98 L 95.1791,-1430.28 L 95.6871,-1430.65 L 96.1448,-1431.08
 L 96.5451,-1431.56 L 96.8815,-1432.09 L 97.1489,-1432.66 L 97.3429,-1433.26 L 97.4606,-1433.87 L 97.5,-1434.5
 L 97.5,-1529.5 L 97.4606,-1530.13 L 97.3429,-1530.74 L 97.1489,-1531.34 L 96.8815,-1531.91 L 96.5451,-1532.44
 L 96.1448,-1532.92 L 95.6871,-1533.35 L 95.1791,-1533.72 L 94.6289,-1534.02 L 94.0451,-1534.26 L 93.4369,-1534.41
 L 92.8139,-1534.49 L -92.8139,-1534.49 L -93.4369,-1534.41 L -94.0451,-1534.26 L -94.6289,-1534.02 L -95.1791,-1533.72
 L -95.6871,-1533.35 L -96.1448,-1532.92 L -96.5451,-1532.44 L -96.8815,-1531.91 L -97.1489,-1531.34 L -97.3429,-1530.74
 L -97.4606,-1530.13 L -97.5,-1529.5 L -97.5,-1434.5 L -97.4606,-1433.87 L -97.3429,-1433.26 L -97.1489,-1432.66
 L -96.8815,-1432.09 L -96.5451,-1431.56 L -96.1448,-1431.08 L -95.6871,-1430.65 L -95.1791,-1430.28 L -94.6289,-1429.98
 L -94.0451,-1429.74 L -93.4369,-1429.59 L -92.8139,-1429.51 L 92.8139,-1429.51 z
M -92.2512,-1431.01 L -92.7495,-1431.07 L -93.2361,-1431.2 L -93.7031,-1431.38 L -94.1433,-1431.62 L -94.5497,-1431.92
 L -94.9159,-1432.26 L -95.2361,-1432.65 L -95.5052,-1433.07 L -95.7191,-1433.53 L -95.8743,-1434.01 L -95.9685,-1434.5
 L -96,-1435 L -96,-1529 L -95.9685,-1529.5 L -95.8743,-1529.99 L -95.7191,-1530.47 L -95.5052,-1530.93
 L -95.2361,-1531.35 L -94.9159,-1531.74 L -94.5497,-1532.08 L -94.1433,-1532.38 L -93.7031,-1532.62 L -93.2361,-1532.8
 L -92.7495,-1532.93 L -92.2512,-1532.99 L 92.2512,-1532.99 L 92.7495,-1532.93 L 93.2361,-1532.8 L 93.7031,-1532.62
 L 94.1433,-1532.38 L 94.5497,-1532.08 L 94.9159,-1531.74 L 95.2361,-1531.35 L 95.5052,-1530.93 L 95.7191,-1530.47
 L 95.8743,-1529.99 L 95.9685,-1529.5 L 96,-1529 L 96,-1435 L 95.9685,-1434.5 L 95.8743,-1434.01
 L 95.7191,-1433.53 L 95.5052,-1433.07 L 95.2361,-1432.65 L 94.9159,-1432.26 L 94.5497,-1431.92 L 94.1433,-1431.62
 L 93.7031,-1431.38 L 93.2361,-1431.2 L 92.7495,-1431.07 L 92.2512,-1431.01 z
M 93.4369,-1315.59 L 94.0451,-1315.74 L 94.6289,-1315.98 L 95.1791,-1316.28 L 95.6871,-1316.65 L 96.1448,-1317.08
 L 96.5451,-1317.56 L 96.8815,-1318.09 L 97.1489,-1318.66 L 97.3429,-1319.26 L 97.4606,-1319.87 L 97.5,-1320.5
 L 97.5,-1415.5 L 97.4606,-1416.13 L 97.3429,-1416.74 L 97.1489,-1417.34 L 96.8815,-1417.91 L 96.5451,-1418.44
 L 96.1448,-1418.92 L 95.6871,-1419.35 L 95.1791,-1419.72 L 94.6289,-1420.02 L 94.0451,-1420.26 L 93.4369,-1420.41
 L 92.8139,-1420.49 L -92.8139,-1420.49 L -93.4369,-1420.41 L -94.0451,-1420.26 L -94.6289,-1420.02 L -95.1791,-1419.72
 L -95.6871,-1419.35 L -96.1448,-1418.92 L -96.5451,-1418.44 L -96.8815,-1417.91 L -97.1489,-1417.34 L -97.3429,-1416.74
 L -97.4606,-1416.13 L -97.5,-1415.5 L -97.5,-1320.5 L -97.4606,-1319.87 L -97.3429,-1319.26 L -97.1489,-1318.66
 L -96.8815,-1318.09 L -96.5451,-1317.56 L -96.1448,-1317.08 L -95.6871,-1316.65 L -95.1791,-1316.28 L -94.6289,-1315.98
 L -94.0451,-1315.74 L -93.4369,-1315.59 L -92.8139,-1315.51 L 92.8139,-1315.51 z
M -92.2512,-1317.01 L -92.7495,-1317.07 L -93.2361,-1317.2 L -93.7031,-1317.38 L -94.1433,-1317.62 L -94.5497,-1317.92
 L -94.9159,-1318.26 L -95.2361,-1318.65 L -95.5052,-1319.07 L -95.7191,-1319.53 L -95.8743,-1320.01 L -95.9685,-1320.5
 L -96,-1321 L -96,-1415 L -95.9685,-1415.5 L -95.8743,-1415.99 L -95.7191,-1416.47 L -95.5052,-1416.93
 L -95.2361,-1417.35 L -94.9159,-1417.74 L -94.5497,-1418.08 L -94.1433,-1418.38 L -93.7031,-1418.62 L -93.2361,-1418.8
 L -92.7495,-1418.93 L -92.2512,-1418.99 L 92.2512,-1418.99 L 92.7495,-1418.93 L 93.2361,-1418.8 L 93.7031,-1418.62
 L 94.1433,-1418.38 L 94.5497,-1418.08 L 94.9159,-1417.74 L 95.2361,-1417.35 L 95.5052,-1416.93 L 95.7191,-1416.47
 L 95.8743,-1415.99 L 95.9685,-1415.5 L 96,-1415 L 96,-1321 L 95.9685,-1320.5 L 95.8743,-1320.01
 L 95.7191,-1319.53 L 95.5052,-1319.07 L 95.2361,-1318.65 L 94.9159,-1318.26 L 94.5497,-1317.92 L 94.1433,-1317.62
 L 93.7031,-1317.38 L 93.2361,-1317.2 L 92.7495,-1317.07 L 92.2512,-1317.01 z
M 93.4369,-1201.59 L 94.0451,-1201.74 L 94.6289,-1201.98 L 95.1791,-1202.28 L 95.6871,-1202.65 L 96.1448,-1203.08
 L 96.5451,-1203.56 L 96.8815,-1204.09 L 97.1489,-1204.66 L 97.3429,-1205.26 L 97.4606,-1205.87 L 97.5,-1206.5
 L 97.5,-1301.5 L 97.4606,-1302.13 L 97.3429,-1302.74 L 97.1489,-1303.34 L 96.8815,-1303.91 L 96.5451,-1304.44
 L 96.1448,-1304.92 L 95.6871,-1305.35 L 95.1791,-1305.72 L 94.6289,-1306.02 L 94.0451,-1306.26 L 93.4369,-1306.41
 L 92.8139,-1306.49 L -92.8139,-1306.49 L -93.4369,-1306.41 L -94.0451,-1306.26 L -94.6289,-1306.02 L -95.1791,-1305.72
 L -95.6871,-1305.35 L -96.1448,-1304.92 L -96.5451,-1304.44 L -96.8815,-1303.91 L -97.1489,-1303.34 L -97.3429,-1302.74
 L -97.4606,-1302.13 L -97.5,-1301.5 L -97.5,-1206.5 L -97.4606,-1205.87 L -97.3429,-1205.26 L -97.1489,-1204.66
 L -96.8815,-1204.09 L -96.5451,-1203.56 L -96.1448,-1203.08 L -95.6871,-1202.65 L -95.1791,-1202.28 L -94.6289,-1201.98
 L -94.0451,-1201.74 L -93.4369,-1201.59 L -92.8139,-1201.51 L 92.8139,-1201.51 z
M -92.1955,-1203.89 L -92.5833,-1203.94 L -92.9619,-1204.04 L -93.3254,-1204.18 L -93.668,-1204.37 L -93.9843,-1204.6
 L -94.2692,-1204.87 L -94.5184,-1205.17 L -94.7279,-1205.5 L -94.8943,-1205.85 L -95.0151,-1206.23 L -95.0884,-1206.61
 L -95.1129,-1207 L -95.1129,-1301 L -95.0884,-1301.39 L -95.0151,-1301.77 L -94.8943,-1302.15 L -94.7279,-1302.5
 L -94.5184,-1302.83 L -94.2692,-1303.13 L -93.9843,-1303.4 L -93.668,-1303.63 L -93.3254,-1303.82 L -92.9619,-1303.96
 L -92.5833,-1304.06 L -92.1955,-1304.11 L 92.1955,-1304.11 L 92.5833,-1304.06 L 92.9619,-1303.96 L 93.3254,-1303.82
 L 93.668,-1303.63 L 93.9843,-1303.4 L 94.2692,-1303.13 L 94.5184,-1302.83 L 94.7279,-1302.5 L 94.8943,-1302.15
 L 95.0151,-1301.77 L 95.0884,-1301.39 L 95.1129,-1301 L 95.1129,-1207 L 95.0884,-1206.61 L 95.0151,-1206.23
 L 94.8943,-1205.85 L 94.7279,-1205.5 L 94.5184,-1205.17 L 94.2692,-1204.87 L 93.9843,-1204.6 L 93.668,-1204.37
 L 93.3254,-1204.18 L 92.9619,-1204.04 L 92.5833,-1203.94 L 92.1955,-1203.89 z
M 93.4369,-1087.59 L 94.0451,-1087.74 L 94.6289,-1087.98 L 95.1791,-1088.28 L 95.6871,-1088.65 L 96.1448,-1089.08
 L 96.5451,-1089.56 L 96.8815,-1090.09 L 97.1489,-1090.66 L 97.3429,-1091.26 L 97.4606,-1091.87 L 97.5,-1092.5
 L 97.5,-1187.5 L 97.4606,-1188.13 L 97.3429,-1188.74 L 97.1489,-1189.34 L 96.8815,-1189.91 L 96.5451,-1190.44
 L 96.1448,-1190.92 L 95.6871,-1191.35 L 95.1791,-1191.72 L 94.6289,-1192.02 L 94.0451,-1192.26 L 93.4369,-1192.41
 L 92.8139,-1192.49 L -92.8139,-1192.49 L -93.4369,-1192.41 L -94.0451,-1192.26 L -94.6289,-1192.02 L -95.1791,-1191.72
 L -95.6871,-1191.35 L -96.1448,-1190.92 L -96.5451,-1190.44 L -96.8815,-1189.91 L -97.1489,-1189.34 L -97.3429,-1188.74
 L -97.4606,-1188.13 L -97.5,-1187.5 L -97.5,-1092.5 L -97.4606,-1091.87 L -97.3429,-1091.26 L -97.1489,-1090.66
 L -96.8815,-1090.09 L -96.5451,-1089.56 L -96.1448,-1089.08 L -95.6871,-1088.65 L -95.1791,-1088.28 L -94.6289,-1087.98
 L -94.0451,-1087.74 L -93.4369,-1087.59 L -92.8139,-1087.51 L 92.8139,-1087.51 z
M -90.1341,-1182.87 L -90.4001,-1182.9 L -90.6598,-1182.97 L -90.9092,-1183.07 L -91.1441,-1183.2 L -91.3611,-1183.35
 L -91.5566,-1183.54 L -91.7275,-1183.74 L -91.8712,-1183.97 L -91.9853,-1184.21 L -92.0682,-1184.47 L -92.1185,-1184.73
 L -92.1353,-1185 L -92.1185,-1185.27 L -92.0682,-1185.53 L -91.9853,-1185.79 L -91.8712,-1186.03 L -91.7275,-1186.26
 L -91.5566,-1186.46 L -91.3611,-1186.65 L -91.1441,-1186.8 L -90.9092,-1186.93 L -90.6598,-1187.03 L -90.4001,-1187.1
 L -90.1341,-1187.13 L -89.8659,-1187.13 L -89.5999,-1187.1 L -89.3401,-1187.03 L -89.0908,-1186.93 L -88.8559,-1186.8
 L -88.6389,-1186.65 L -88.4434,-1186.46 L -88.2725,-1186.26 L -88.1288,-1186.03 L -88.0146,-1185.79 L -87.9318,-1185.53
 L -87.8815,-1185.27 L -87.8647,-1185 L -87.8815,-1184.73 L -87.9318,-1184.47 L -88.0146,-1184.21 L -88.1288,-1183.97
 L -88.2725,-1183.74 L -88.4434,-1183.54 L -88.6389,-1183.35 L -88.8559,-1183.2 L -89.0908,-1183.07 L -89.3401,-1182.97
 L -89.5999,-1182.9 L -89.8659,-1182.87 z
M 89.8659,-1182.87 L 89.5999,-1182.9 L 89.3401,-1182.97 L 89.0908,-1183.07 L 88.8559,-1183.2 L 88.6389,-1183.35
 L 88.4434,-1183.54 L 88.2725,-1183.74 L 88.1288,-1183.97 L 88.0146,-1184.21 L 87.9318,-1184.47 L 87.8815,-1184.73
 L 87.8647,-1185 L 87.8815,-1185.27 L 87.9318,-1185.53 L 88.0146,-1185.79 L 88.1288,-1186.03 L 88.2725,-1186.26
 L 88.4434,-1186.46 L 88.6389,-1186.65 L 88.8559,-1186.8 L 89.0908,-1186.93 L 89.3401,-1187.03 L 89.5999,-1187.1
 L 89.8659,-1187.13 L 90.1341,-1187.13 L 90.4001,-1187.1 L 90.6598,-1187.03 L 90.9092,-1186.93 L 91.1441,-1186.8
 L 91.3611,-1186.65 L 91.5566,-1186.46 L 91.7275,-1186.26 L 91.8712,-1186.03 L 91.9853,-1185.79 L 92.0682,-1185.53
 L 92.1185,-1185.27 L 92.1353,-1185 L 92.1185,-1184.73 L 92.0682,-1184.47 L 91.9853,-1184.21 L 91.8712,-1183.97
 L 91.7275,-1183.74 L 91.5566,-1183.54 L 91.3611,-1183.35 L 91.1441,-1183.2 L 90.9092,-1183.07 L 90.6598,-1182.97
 L 90.4001,-1182.9 L 90.1341,-1182.87 z
M -90.1341,-1092.87 L -90.4001,-1092.9 L -90.6598,-1092.97 L -90.9092,-1093.07 L -91.1441,-1093.2 L -91.3611,-1093.35
 L -91.5566,-1093.54 L -91.7275,-1093.74 L -91.8712,-1093.97 L -91.9853,-1094.21 L -92.0682,-1094.47 L -92.1185,-1094.73
 L -92.1353,-1095 L -92.1185,-1095.27 L -92.0682,-1095.53 L -91.9853,-1095.79 L -91.8712,-1096.03 L -91.7275,-1096.26
 L -91.5566,-1096.46 L -91.3611,-1096.65 L -91.1441,-1096.8 L -90.9092,-1096.93 L -90.6598,-1097.03 L -90.4001,-1097.1
 L -90.1341,-1097.13 L -89.8659,-1097.13 L -89.5999,-1097.1 L -89.3401,-1097.03 L -89.0908,-1096.93 L -88.8559,-1096.8
 L -88.6389,-1096.65 L -88.4434,-1096.46 L -88.2725,-1096.26 L -88.1288,-1096.03 L -88.0146,-1095.79 L -87.9318,-1095.53
 L -87.8815,-1095.27 L -87.8647,-1095 L -87.8815,-1094.73 L -87.9318,-1094.47 L -88.0146,-1094.21 L -88.1288,-1093.97
 L -88.2725,-1093.74 L -88.4434,-1093.54 L -88.6389,-1093.35 L -88.8559,-1093.2 L -89.0908,-1093.07 L -89.3401,-1092.97
 L -89.5999,-1092.9 L -89.8659,-1092.87 z
M 89.8659,-1092.87 L 89.5999,-1092.9 L 89.3401,-1092.97 L 89.0908,-1093.07 L 88.8559,-1093.2 L 88.6389,-1093.35
 L 88.4434,-1093.54 L 88.2725,-1093.74 L 88.1288,-1093.97 L 88.0146,-1094.21 L 87.9318,-1094.47 L 87.8815,-1094.73
 L 87.8647,-1095 L 87.8815,-1095.27 L 87.9318,-1095.53 L 88.0146,-1095.79 L 88.1288,-1096.03 L 88.2725,-1096.26
 L 88.4434,-1096.46 L 88.6389,-1096.65 L 88.8559,-1096.8 L 89.0908,-1096.93 L 89.3401,-1097.03 L 89.5999,-1097.1
 L 89.8659,-1097.13 L 90.1341,-1097.13 L 90.4001,-1097.1 L 90.6598,-1097.03 L 90.9092,-1096.93 L 91.1441,-1096.8
 L 91.3611,-1096.65 L 91.5566,-1096.46 L 91.7275,-1096.26 L 91.8712,-1096.03 L 91.9853,-1095.79 L 92.0682,-1095.53
 L 92.1185,-1095.27 L 92.1353,-1095 L 92.1185,-1094.73 L 92.0682,-1094.47 L 91.9853,-1094.21 L 91.8712,-1093.97
 L 91.7275,-1093.74 L 91.5566,-1093.54 L 91.3611,-1093.35 L 91.1441,-1093.2 L 90.9092,-1093.07 L 90.6598,-1092.97
 L 90.4001,-1092.9 L 90.1341,-1092.87 z
" stroke="black" fill="lightgray" stroke-width="0.5"/>
</svg>
