  0
SECTION
  2
BLOCKS
  0
ENDSEC
  0
SECTION
  2
ENTITIES
  0
LINE
  8
0
 10
7.1869
 20
477.089
 11
7.79507
 21
477.245
  0
LINE
  8
0
 10
7.79507
 20
477.245
 11
8.37889
 21
477.476
  0
LINE
  8
0
 10
8.37889
 20
477.476
 11
8.92912
 21
477.778
  0
LINE
  8
0
 10
8.92912
 20
477.778
 11
9.43712
 21
478.147
  0
LINE
  8
0
 10
9.43712
 20
478.147
 11
9.89484
 21
478.577
  0
LINE
  8
0
 10
9.89484
 20
478.577
 11
10.2951
 21
479.061
  0
LINE
  8
0
 10
10.2951
 20
479.061
 11
10.6315
 21
479.591
  0
LINE
  8
0
 10
10.6315
 20
479.591
 11
10.8989
 21
480.159
  0
LINE
  8
0
 10
10.8989
 20
480.159
 11
11.0929
 21
480.757
  0
LINE
  8
0
 10
11.0929
 20
480.757
 11
11.2106
 21
481.373
  0
LINE
  8
0
 10
11.2106
 20
481.373
 11
11.25
 21
482
  0
LINE
  8
0
 10
11.25
 20
482
 11
11.25
 21
652
  0
LINE
  8
0
 10
11.25
 20
652
 11
11.2106
 21
652.627
  0
LINE
  8
0
 10
11.2106
 20
652.627
 11
11.0929
 21
653.243
  0
LINE
  8
0
 10
11.0929
 20
653.243
 11
10.8989
 21
653.841
  0
LINE
  8
0
 10
10.8989
 20
653.841
 11
10.6315
 21
654.409
  0
LINE
  8
0
 10
10.6315
 20
654.409
 11
10.2951
 21
654.939
  0
LINE
  8
0
 10
10.2951
 20
654.939
 11
9.89484
 21
655.423
  0
LINE
  8
0
 10
9.89484
 20
655.423
 11
9.43712
 21
655.853
  0
LINE
  8
0
 10
9.43712
 20
655.853
 11
8.92912
 21
656.222
  0
LINE
  8
0
 10
8.92912
 20
656.222
 11
8.37889
 21
656.524
  0
LINE
  8
0
 10
8.37889
 20
656.524
 11
7.79507
 21
656.755
  0
LINE
  8
0
 10
7.79507
 20
656.755
 11
7.1869
 21
656.911
  0
LINE
  8
0
 10
7.1869
 20
656.911
 11
6.56395
 21
656.99
  0
LINE
  8
0
 10
6.56395
 20
656.99
 11
-6.56395
 21
656.99
  0
LINE
  8
0
 10
-6.56395
 20
656.99
 11
-7.1869
 21
656.911
  0
LINE
  8
0
 10
-7.1869
 20
656.911
 11
-7.79507
 21
656.755
  0
LINE
  8
0
 10
-7.79507
 20
656.755
 11
-8.37889
 21
656.524
  0
LINE
  8
0
 10
-8.37889
 20
656.524
 11
-8.92912
 21
656.222
  0
LINE
  8
0
 10
-8.92912
 20
656.222
 11
-9.43712
 21
655.853
  0
LINE
  8
0
 10
-9.43712
 20
655.853
 11
-9.89484
 21
655.423
  0
LINE
  8
0
 10
-9.89484
 20
655.423
 11
-10.2951
 21
654.939
  0
LINE
  8
0
 10
-10.2951
 20
654.939
 11
-10.6315
 21
654.409
  0
LINE
  8
0
 10
-10.6315
 20
654.409
 11
-10.8989
 21
653.841
  0
LINE
  8
0
 10
-10.8989
 20
653.841
 11
-11.0929
 21
653.243
  0
LINE
  8
0
 10
-11.0929
 20
653.243
 11
-11.2106
 21
652.627
  0
LINE
  8
0
 10
-11.2106
 20
652.627
 11
-11.25
 21
652
  0
LINE
  8
0
 10
-11.25
 20
652
 11
-11.25
 21
482
  0
LINE
  8
0
 10
-11.25
 20
482
 11
-11.2106
 21
481.373
  0
LINE
  8
0
 10
-11.2106
 20
481.373
 11
-11.0929
 21
480.757
  0
LINE
  8
0
 10
-11.0929
 20
480.757
 11
-10.8989
 21
480.159
  0
LINE
  8
0
 10
-10.8989
 20
480.159
 11
-10.6315
 21
479.591
  0
LINE
  8
0
 10
-10.6315
 20
479.591
 11
-10.2951
 21
479.061
  0
LINE
  8
0
 10
-10.2951
 20
479.061
 11
-9.89484
 21
478.577
  0
LINE
  8
0
 10
-9.89484
 20
478.577
 11
-9.43712
 21
478.147
  0
LINE
  8
0
 10
-9.43712
 20
478.147
 11
-8.92912
 21
477.778
  0
LINE
  8
0
 10
-8.92912
 20
477.778
 11
-8.37889
 21
477.476
  0
LINE
  8
0
 10
-8.37889
 20
477.476
 11
-7.79507
 21
477.245
  0
LINE
  8
0
 10
-7.79507
 20
477.245
 11
-7.1869
 21
477.089
  0
LINE
  8
0
 10
-7.1869
 20
477.089
 11
-6.56395
 21
477.01
  0
LINE
  8
0
 10
-6.56395
 20
477.01
 11
6.56395
 21
477.01
  0
LINE
  8
0
 10
6.56395
 20
477.01
 11
7.1869
 21
477.089
  0
LINE
  8
0
 10
-5.94545
 20
479.393
 11
-6.3333
 21
479.442
  0
LINE
  8
0
 10
-6.3333
 20
479.442
 11
-6.71194
 21
479.539
  0
LINE
  8
0
 10
-6.71194
 20
479.539
 11
-7.07541
 21
479.683
  0
LINE
  8
0
 10
-7.07541
 20
479.683
 11
-7.41798
 21
479.872
  0
LINE
  8
0
 10
-7.41798
 20
479.872
 11
-7.73424
 21
480.101
  0
LINE
  8
0
 10
-7.73424
 20
480.101
 11
-8.01921
 21
480.369
  0
LINE
  8
0
 10
-8.01921
 20
480.369
 11
-8.2684
 21
480.67
  0
LINE
  8
0
 10
-8.2684
 20
480.67
 11
-8.47786
 21
481
  0
LINE
  8
0
 10
-8.47786
 20
481
 11
-8.64432
 21
481.354
  0
LINE
  8
0
 10
-8.64432
 20
481.354
 11
-8.76512
 21
481.726
  0
LINE
  8
0
 10
-8.76512
 20
481.726
 11
-8.83836
 21
482.11
  0
LINE
  8
0
 10
-8.83836
 20
482.11
 11
-8.86292
 21
482.5
  0
LINE
  8
0
 10
-8.86292
 20
482.5
 11
-8.86292
 21
651.5
  0
LINE
  8
0
 10
-8.86292
 20
651.5
 11
-8.83836
 21
651.89
  0
LINE
  8
0
 10
-8.83836
 20
651.89
 11
-8.76512
 21
652.274
  0
LINE
  8
0
 10
-8.76512
 20
652.274
 11
-8.64432
 21
652.646
  0
LINE
  8
0
 10
-8.64432
 20
652.646
 11
-8.47786
 21
653
  0
LINE
  8
0
 10
-8.47786
 20
653
 11
-8.2684
 21
653.33
  0
LINE
  8
0
 10
-8.2684
 20
653.33
 11
-8.01921
 21
653.631
  0
LINE
  8
0
 10
-8.01921
 20
653.631
 11
-7.73424
 21
653.899
  0
LINE
  8
0
 10
-7.73424
 20
653.899
 11
-7.41798
 21
654.128
  0
LINE
  8
0
 10
-7.41798
 20
654.128
 11
-7.07541
 21
654.317
  0
LINE
  8
0
 10
-7.07541
 20
654.317
 11
-6.71194
 21
654.461
  0
LINE
  8
0
 10
-6.71194
 20
654.461
 11
-6.3333
 21
654.558
  0
LINE
  8
0
 10
-6.3333
 20
654.558
 11
-5.94545
 21
654.607
  0
LINE
  8
0
 10
-5.94545
 20
654.607
 11
5.94545
 21
654.607
  0
LINE
  8
0
 10
5.94545
 20
654.607
 11
6.3333
 21
654.558
  0
LINE
  8
0
 10
6.3333
 20
654.558
 11
6.71194
 21
654.461
  0
LINE
  8
0
 10
6.71194
 20
654.461
 11
7.07541
 21
654.317
  0
LINE
  8
0
 10
7.07541
 20
654.317
 11
7.41798
 21
654.128
  0
LINE
  8
0
 10
7.41798
 20
654.128
 11
7.73424
 21
653.899
  0
LINE
  8
0
 10
7.73424
 20
653.899
 11
8.01921
 21
653.631
  0
LINE
  8
0
 10
8.01921
 20
653.631
 11
8.2684
 21
653.33
  0
LINE
  8
0
 10
8.2684
 20
653.33
 11
8.47786
 21
653
  0
LINE
  8
0
 10
8.47786
 20
653
 11
8.64432
 21
652.646
  0
LINE
  8
0
 10
8.64432
 20
652.646
 11
8.76512
 21
652.274
  0
LINE
  8
0
 10
8.76512
 20
652.274
 11
8.83836
 21
651.89
  0
LINE
  8
0
 10
8.83836
 20
651.89
 11
8.86292
 21
651.5
  0
LINE
  8
0
 10
8.86292
 20
651.5
 11
8.86292
 21
482.5
  0
LINE
  8
0
 10
8.86292
 20
482.5
 11
8.83836
 21
482.11
  0
LINE
  8
0
 10
8.83836
 20
482.11
 11
8.76512
 21
481.726
  0
LINE
  8
0
 10
8.76512
 20
481.726
 11
8.64432
 21
481.354
  0
LINE
  8
0
 10
8.64432
 20
481.354
 11
8.47786
 21
481
  0
LINE
  8
0
 10
8.47786
 20
481
 11
8.2684
 21
480.67
  0
LINE
  8
0
 10
8.2684
 20
480.67
 11
8.01921
 21
480.369
  0
LINE
  8
0
 10
8.01921
 20
480.369
 11
7.73424
 21
480.101
  0
LINE
  8
0
 10
7.73424
 20
480.101
 11
7.41798
 21
479.872
  0
LINE
  8
0
 10
7.41798
 20
479.872
 11
7.07541
 21
479.683
  0
LINE
  8
0
 10
7.07541
 20
479.683
 11
6.71194
 21
479.539
  0
LINE
  8
0
 10
6.71194
 20
479.539
 11
6.3333
 21
479.442
  0
LINE
  8
0
 10
6.3333
 20
479.442
 11
5.94545
 21
479.393
  0
LINE
  8
0
 10
5.94545
 20
479.393
 11
-5.94545
 21
479.393
  0
LINE
  8
0
 10
7.1869
 20
288.089
 11
7.79507
 21
288.245
  0
LINE
  8
0
 10
7.79507
 20
288.245
 11
8.37889
 21
288.476
  0
LINE
  8
0
 10
8.37889
 20
288.476
 11
8.92912
 21
288.778
  0
LINE
  8
0
 10
8.92912
 20
288.778
 11
9.43712
 21
289.147
  0
LINE
  8
0
 10
9.43712
 20
289.147
 11
9.89484
 21
289.577
  0
LINE
  8
0
 10
9.89484
 20
289.577
 11
10.2951
 21
290.061
  0
LINE
  8
0
 10
10.2951
 20
290.061
 11
10.6315
 21
290.591
  0
LINE
  8
0
 10
10.6315
 20
290.591
 11
10.8989
 21
291.159
  0
LINE
  8
0
 10
10.8989
 20
291.159
 11
11.0929
 21
291.757
  0
LINE
  8
0
 10
11.0929
 20
291.757
 11
11.2106
 21
292.373
  0
LINE
  8
0
 10
11.2106
 20
292.373
 11
11.25
 21
293
  0
LINE
  8
0
 10
11.25
 20
293
 11
11.25
 21
463
  0
LINE
  8
0
 10
11.25
 20
463
 11
11.2106
 21
463.627
  0
LINE
  8
0
 10
11.2106
 20
463.627
 11
11.0929
 21
464.243
  0
LINE
  8
0
 10
11.0929
 20
464.243
 11
10.8989
 21
464.841
  0
LINE
  8
0
 10
10.8989
 20
464.841
 11
10.6315
 21
465.409
  0
LINE
  8
0
 10
10.6315
 20
465.409
 11
10.2951
 21
465.939
  0
LINE
  8
0
 10
10.2951
 20
465.939
 11
9.89484
 21
466.423
  0
LINE
  8
0
 10
9.89484
 20
466.423
 11
9.43712
 21
466.853
  0
LINE
  8
0
 10
9.43712
 20
466.853
 11
8.92912
 21
467.222
  0
LINE
  8
0
 10
8.92912
 20
467.222
 11
8.37889
 21
467.524
  0
LINE
  8
0
 10
8.37889
 20
467.524
 11
7.79507
 21
467.755
  0
LINE
  8
0
 10
7.79507
 20
467.755
 11
7.1869
 21
467.911
  0
LINE
  8
0
 10
7.1869
 20
467.911
 11
6.56395
 21
467.99
  0
LINE
  8
0
 10
6.56395
 20
467.99
 11
-6.56395
 21
467.99
  0
LINE
  8
0
 10
-6.56395
 20
467.99
 11
-7.1869
 21
467.911
  0
LINE
  8
0
 10
-7.1869
 20
467.911
 11
-7.79507
 21
467.755
  0
LINE
  8
0
 10
-7.79507
 20
467.755
 11
-8.37889
 21
467.524
  0
LINE
  8
0
 10
-8.37889
 20
467.524
 11
-8.92912
 21
467.222
  0
LINE
  8
0
 10
-8.92912
 20
467.222
 11
-9.43712
 21
466.853
  0
LINE
  8
0
 10
-9.43712
 20
466.853
 11
-9.89484
 21
466.423
  0
LINE
  8
0
 10
-9.89484
 20
466.423
 11
-10.2951
 21
465.939
  0
LINE
  8
0
 10
-10.2951
 20
465.939
 11
-10.6315
 21
465.409
  0
LINE
  8
0
 10
-10.6315
 20
465.409
 11
-10.8989
 21
464.841
  0
LINE
  8
0
 10
-10.8989
 20
464.841
 11
-11.0929
 21
464.243
  0
LINE
  8
0
 10
-11.0929
 20
464.243
 11
-11.2106
 21
463.627
  0
LINE
  8
0
 10
-11.2106
 20
463.627
 11
-11.25
 21
463
  0
LINE
  8
0
 10
-11.25
 20
463
 11
-11.25
 21
293
  0
LINE
  8
0
 10
-11.25
 20
293
 11
-11.2106
 21
292.373
  0
LINE
  8
0
 10
-11.2106
 20
292.373
 11
-11.0929
 21
291.757
  0
LINE
  8
0
 10
-11.0929
 20
291.757
 11
-10.8989
 21
291.159
  0
LINE
  8
0
 10
-10.8989
 20
291.159
 11
-10.6315
 21
290.591
  0
LINE
  8
0
 10
-10.6315
 20
290.591
 11
-10.2951
 21
290.061
  0
LINE
  8
0
 10
-10.2951
 20
290.061
 11
-9.89484
 21
289.577
  0
LINE
  8
0
 10
-9.89484
 20
289.577
 11
-9.43712
 21
289.147
  0
LINE
  8
0
 10
-9.43712
 20
289.147
 11
-8.92912
 21
288.778
  0
LINE
  8
0
 10
-8.92912
 20
288.778
 11
-8.37889
 21
288.476
  0
LINE
  8
0
 10
-8.37889
 20
288.476
 11
-7.79507
 21
288.245
  0
LINE
  8
0
 10
-7.79507
 20
288.245
 11
-7.1869
 21
288.089
  0
LINE
  8
0
 10
-7.1869
 20
288.089
 11
-6.56395
 21
288.01
  0
LINE
  8
0
 10
-6.56395
 20
288.01
 11
6.56395
 21
288.01
  0
LINE
  8
0
 10
6.56395
 20
288.01
 11
7.1869
 21
288.089
  0
LINE
  8
0
 10
3.61592
 20
458.369
 11
3.34988
 21
458.403
  0
LINE
  8
0
 10
3.34988
 20
458.403
 11
3.09015
 21
458.469
  0
LINE
  8
0
 10
3.09015
 20
458.469
 11
2.84084
 21
458.568
  0
LINE
  8
0
 10
2.84084
 20
458.568
 11
2.60585
 21
458.697
  0
LINE
  8
0
 10
2.60585
 20
458.697
 11
2.3889
 21
458.855
  0
LINE
  8
0
 10
2.3889
 20
458.855
 11
2.19344
 21
459.038
  0
LINE
  8
0
 10
2.19344
 20
459.038
 11
2.02251
 21
459.245
  0
LINE
  8
0
 10
2.02251
 20
459.245
 11
1.87881
 21
459.471
  0
LINE
  8
0
 10
1.87881
 20
459.471
 11
1.76465
 21
459.714
  0
LINE
  8
0
 10
1.76465
 20
459.714
 11
1.68178
 21
459.969
  0
LINE
  8
0
 10
1.68178
 20
459.969
 11
1.63153
 21
460.232
  0
LINE
  8
0
 10
1.63153
 20
460.232
 11
1.6147
 21
460.5
  0
LINE
  8
0
 10
1.6147
 20
460.5
 11
1.63153
 21
460.768
  0
LINE
  8
0
 10
1.63153
 20
460.768
 11
1.68178
 21
461.031
  0
LINE
  8
0
 10
1.68178
 20
461.031
 11
1.76465
 21
461.286
  0
LINE
  8
0
 10
1.76465
 20
461.286
 11
1.87881
 21
461.529
  0
LINE
  8
0
 10
1.87881
 20
461.529
 11
2.02251
 21
461.755
  0
LINE
  8
0
 10
2.02251
 20
461.755
 11
2.19344
 21
461.962
  0
LINE
  8
0
 10
2.19344
 20
461.962
 11
2.3889
 21
462.145
  0
LINE
  8
0
 10
2.3889
 20
462.145
 11
2.60585
 21
462.303
  0
LINE
  8
0
 10
2.60585
 20
462.303
 11
2.84084
 21
462.432
  0
LINE
  8
0
 10
2.84084
 20
462.432
 11
3.09015
 21
462.531
  0
LINE
  8
0
 10
3.09015
 20
462.531
 11
3.34988
 21
462.597
  0
LINE
  8
0
 10
3.34988
 20
462.597
 11
3.61592
 21
462.631
  0
LINE
  8
0
 10
3.61592
 20
462.631
 11
3.88406
 21
462.631
  0
LINE
  8
0
 10
3.88406
 20
462.631
 11
4.1501
 21
462.597
  0
LINE
  8
0
 10
4.1501
 20
462.597
 11
4.40984
 21
462.531
  0
LINE
  8
0
 10
4.40984
 20
462.531
 11
4.65915
 21
462.432
  0
LINE
  8
0
 10
4.65915
 20
462.432
 11
4.89413
 21
462.303
  0
LINE
  8
0
 10
4.89413
 20
462.303
 11
5.11108
 21
462.145
  0
LINE
  8
0
 10
5.11108
 20
462.145
 11
5.30655
 21
461.962
  0
LINE
  8
0
 10
5.30655
 20
461.962
 11
5.47748
 21
461.755
  0
LINE
  8
0
 10
5.47748
 20
461.755
 11
5.62117
 21
461.529
  0
LINE
  8
0
 10
5.62117
 20
461.529
 11
5.73534
 21
461.286
  0
LINE
  8
0
 10
5.73534
 20
461.286
 11
5.81821
 21
461.031
  0
LINE
  8
0
 10
5.81821
 20
461.031
 11
5.86845
 21
460.768
  0
LINE
  8
0
 10
5.86845
 20
460.768
 11
5.88528
 21
460.5
  0
LINE
  8
0
 10
5.88528
 20
460.5
 11
5.86845
 21
460.232
  0
LINE
  8
0
 10
5.86845
 20
460.232
 11
5.81821
 21
459.969
  0
LINE
  8
0
 10
5.81821
 20
459.969
 11
5.73534
 21
459.714
  0
LINE
  8
0
 10
5.73534
 20
459.714
 11
5.62117
 21
459.471
  0
LINE
  8
0
 10
5.62117
 20
459.471
 11
5.47748
 21
459.245
  0
LINE
  8
0
 10
5.47748
 20
459.245
 11
5.30655
 21
459.038
  0
LINE
  8
0
 10
5.30655
 20
459.038
 11
5.11108
 21
458.855
  0
LINE
  8
0
 10
5.11108
 20
458.855
 11
4.89413
 21
458.697
  0
LINE
  8
0
 10
4.89413
 20
458.697
 11
4.65915
 21
458.568
  0
LINE
  8
0
 10
4.65915
 20
458.568
 11
4.40984
 21
458.469
  0
LINE
  8
0
 10
4.40984
 20
458.469
 11
4.1501
 21
458.403
  0
LINE
  8
0
 10
4.1501
 20
458.403
 11
3.88406
 21
458.369
  0
LINE
  8
0
 10
3.88406
 20
458.369
 11
3.61592
 21
458.369
  0
LINE
  8
0
 10
-3.88406
 20
458.369
 11
-4.1501
 21
458.403
  0
LINE
  8
0
 10
-4.1501
 20
458.403
 11
-4.40984
 21
458.469
  0
LINE
  8
0
 10
-4.40984
 20
458.469
 11
-4.65915
 21
458.568
  0
LINE
  8
0
 10
-4.65915
 20
458.568
 11
-4.89413
 21
458.697
  0
LINE
  8
0
 10
-4.89413
 20
458.697
 11
-5.11108
 21
458.855
  0
LINE
  8
0
 10
-5.11108
 20
458.855
 11
-5.30655
 21
459.038
  0
LINE
  8
0
 10
-5.30655
 20
459.038
 11
-5.47748
 21
459.245
  0
LINE
  8
0
 10
-5.47748
 20
459.245
 11
-5.62117
 21
459.471
  0
LINE
  8
0
 10
-5.62117
 20
459.471
 11
-5.73534
 21
459.714
  0
LINE
  8
0
 10
-5.73534
 20
459.714
 11
-5.81821
 21
459.969
  0
LINE
  8
0
 10
-5.81821
 20
459.969
 11
-5.86845
 21
460.232
  0
LINE
  8
0
 10
-5.86845
 20
460.232
 11
-5.88528
 21
460.5
  0
LINE
  8
0
 10
-5.88528
 20
460.5
 11
-5.86845
 21
460.768
  0
LINE
  8
0
 10
-5.86845
 20
460.768
 11
-5.81821
 21
461.031
  0
LINE
  8
0
 10
-5.81821
 20
461.031
 11
-5.73534
 21
461.286
  0
LINE
  8
0
 10
-5.73534
 20
461.286
 11
-5.62117
 21
461.529
  0
LINE
  8
0
 10
-5.62117
 20
461.529
 11
-5.47748
 21
461.755
  0
LINE
  8
0
 10
-5.47748
 20
461.755
 11
-5.30655
 21
461.962
  0
LINE
  8
0
 10
-5.30655
 20
461.962
 11
-5.11108
 21
462.145
  0
LINE
  8
0
 10
-5.11108
 20
462.145
 11
-4.89413
 21
462.303
  0
LINE
  8
0
 10
-4.89413
 20
462.303
 11
-4.65915
 21
462.432
  0
LINE
  8
0
 10
-4.65915
 20
462.432
 11
-4.40984
 21
462.531
  0
LINE
  8
0
 10
-4.40984
 20
462.531
 11
-4.1501
 21
462.597
  0
LINE
  8
0
 10
-4.1501
 20
462.597
 11
-3.88406
 21
462.631
  0
LINE
  8
0
 10
-3.88406
 20
462.631
 11
-3.61592
 21
462.631
  0
LINE
  8
0
 10
-3.61592
 20
462.631
 11
-3.34988
 21
462.597
  0
LINE
  8
0
 10
-3.34988
 20
462.597
 11
-3.09015
 21
462.531
  0
LINE
  8
0
 10
-3.09015
 20
462.531
 11
-2.84084
 21
462.432
  0
LINE
  8
0
 10
-2.84084
 20
462.432
 11
-2.60585
 21
462.303
  0
LINE
  8
0
 10
-2.60585
 20
462.303
 11
-2.3889
 21
462.145
  0
LINE
  8
0
 10
-2.3889
 20
462.145
 11
-2.19344
 21
461.962
  0
LINE
  8
0
 10
-2.19344
 20
461.962
 11
-2.02251
 21
461.755
  0
LINE
  8
0
 10
-2.02251
 20
461.755
 11
-1.87881
 21
461.529
  0
LINE
  8
0
 10
-1.87881
 20
461.529
 11
-1.76465
 21
461.286
  0
LINE
  8
0
 10
-1.76465
 20
461.286
 11
-1.68178
 21
461.031
  0
LINE
  8
0
 10
-1.68178
 20
461.031
 11
-1.63153
 21
460.768
  0
LINE
  8
0
 10
-1.63153
 20
460.768
 11
-1.6147
 21
460.5
  0
LINE
  8
0
 10
-1.6147
 20
460.5
 11
-1.63153
 21
460.232
  0
LINE
  8
0
 10
-1.63153
 20
460.232
 11
-1.68178
 21
459.969
  0
LINE
  8
0
 10
-1.68178
 20
459.969
 11
-1.76465
 21
459.714
  0
LINE
  8
0
 10
-1.76465
 20
459.714
 11
-1.87881
 21
459.471
  0
LINE
  8
0
 10
-1.87881
 20
459.471
 11
-2.02251
 21
459.245
  0
LINE
  8
0
 10
-2.02251
 20
459.245
 11
-2.19344
 21
459.038
  0
LINE
  8
0
 10
-2.19344
 20
459.038
 11
-2.3889
 21
458.855
  0
LINE
  8
0
 10
-2.3889
 20
458.855
 11
-2.60585
 21
458.697
  0
LINE
  8
0
 10
-2.60585
 20
458.697
 11
-2.84084
 21
458.568
  0
LINE
  8
0
 10
-2.84084
 20
458.568
 11
-3.09015
 21
458.469
  0
LINE
  8
0
 10
-3.09015
 20
458.469
 11
-3.34988
 21
458.403
  0
LINE
  8
0
 10
-3.34988
 20
458.403
 11
-3.61592
 21
458.369
  0
LINE
  8
0
 10
-3.61592
 20
458.369
 11
-3.88406
 21
458.369
  0
LINE
  8
0
 10
3.61592
 20
293.369
 11
3.34988
 21
293.403
  0
LINE
  8
0
 10
3.34988
 20
293.403
 11
3.09015
 21
293.469
  0
LINE
  8
0
 10
3.09015
 20
293.469
 11
2.84084
 21
293.568
  0
LINE
  8
0
 10
2.84084
 20
293.568
 11
2.60585
 21
293.697
  0
LINE
  8
0
 10
2.60585
 20
293.697
 11
2.3889
 21
293.855
  0
LINE
  8
0
 10
2.3889
 20
293.855
 11
2.19344
 21
294.038
  0
LINE
  8
0
 10
2.19344
 20
294.038
 11
2.02251
 21
294.245
  0
LINE
  8
0
 10
2.02251
 20
294.245
 11
1.87881
 21
294.471
  0
LINE
  8
0
 10
1.87881
 20
294.471
 11
1.76465
 21
294.714
  0
LINE
  8
0
 10
1.76465
 20
294.714
 11
1.68178
 21
294.969
  0
LINE
  8
0
 10
1.68178
 20
294.969
 11
1.63153
 21
295.232
  0
LINE
  8
0
 10
1.63153
 20
295.232
 11
1.6147
 21
295.5
  0
LINE
  8
0
 10
1.6147
 20
295.5
 11
1.63153
 21
295.768
  0
LINE
  8
0
 10
1.63153
 20
295.768
 11
1.68178
 21
296.031
  0
LINE
  8
0
 10
1.68178
 20
296.031
 11
1.76465
 21
296.286
  0
LINE
  8
0
 10
1.76465
 20
296.286
 11
1.87881
 21
296.529
  0
LINE
  8
0
 10
1.87881
 20
296.529
 11
2.02251
 21
296.755
  0
LINE
  8
0
 10
2.02251
 20
296.755
 11
2.19344
 21
296.962
  0
LINE
  8
0
 10
2.19344
 20
296.962
 11
2.3889
 21
297.145
  0
LINE
  8
0
 10
2.3889
 20
297.145
 11
2.60585
 21
297.303
  0
LINE
  8
0
 10
2.60585
 20
297.303
 11
2.84084
 21
297.432
  0
LINE
  8
0
 10
2.84084
 20
297.432
 11
3.09015
 21
297.531
  0
LINE
  8
0
 10
3.09015
 20
297.531
 11
3.34988
 21
297.597
  0
LINE
  8
0
 10
3.34988
 20
297.597
 11
3.61592
 21
297.631
  0
LINE
  8
0
 10
3.61592
 20
297.631
 11
3.88406
 21
297.631
  0
LINE
  8
0
 10
3.88406
 20
297.631
 11
4.1501
 21
297.597
  0
LINE
  8
0
 10
4.1501
 20
297.597
 11
4.40984
 21
297.531
  0
LINE
  8
0
 10
4.40984
 20
297.531
 11
4.65915
 21
297.432
  0
LINE
  8
0
 10
4.65915
 20
297.432
 11
4.89413
 21
297.303
  0
LINE
  8
0
 10
4.89413
 20
297.303
 11
5.11108
 21
297.145
  0
LINE
  8
0
 10
5.11108
 20
297.145
 11
5.30655
 21
296.962
  0
LINE
  8
0
 10
5.30655
 20
296.962
 11
5.47748
 21
296.755
  0
LINE
  8
0
 10
5.47748
 20
296.755
 11
5.62117
 21
296.529
  0
LINE
  8
0
 10
5.62117
 20
296.529
 11
5.73534
 21
296.286
  0
LINE
  8
0
 10
5.73534
 20
296.286
 11
5.81821
 21
296.031
  0
LINE
  8
0
 10
5.81821
 20
296.031
 11
5.86845
 21
295.768
  0
LINE
  8
0
 10
5.86845
 20
295.768
 11
5.88528
 21
295.5
  0
LINE
  8
0
 10
5.88528
 20
295.5
 11
5.86845
 21
295.232
  0
LINE
  8
0
 10
5.86845
 20
295.232
 11
5.81821
 21
294.969
  0
LINE
  8
0
 10
5.81821
 20
294.969
 11
5.73534
 21
294.714
  0
LINE
  8
0
 10
5.73534
 20
294.714
 11
5.62117
 21
294.471
  0
LINE
  8
0
 10
5.62117
 20
294.471
 11
5.47748
 21
294.245
  0
LINE
  8
0
 10
5.47748
 20
294.245
 11
5.30655
 21
294.038
  0
LINE
  8
0
 10
5.30655
 20
294.038
 11
5.11108
 21
293.855
  0
LINE
  8
0
 10
5.11108
 20
293.855
 11
4.89413
 21
293.697
  0
LINE
  8
0
 10
4.89413
 20
293.697
 11
4.65915
 21
293.568
  0
LINE
  8
0
 10
4.65915
 20
293.568
 11
4.40984
 21
293.469
  0
LINE
  8
0
 10
4.40984
 20
293.469
 11
4.1501
 21
293.403
  0
LINE
  8
0
 10
4.1501
 20
293.403
 11
3.88406
 21
293.369
  0
LINE
  8
0
 10
3.88406
 20
293.369
 11
3.61592
 21
293.369
  0
LINE
  8
0
 10
-3.88406
 20
293.369
 11
-4.1501
 21
293.403
  0
LINE
  8
0
 10
-4.1501
 20
293.403
 11
-4.40984
 21
293.469
  0
LINE
  8
0
 10
-4.40984
 20
293.469
 11
-4.65915
 21
293.568
  0
LINE
  8
0
 10
-4.65915
 20
293.568
 11
-4.89413
 21
293.697
  0
LINE
  8
0
 10
-4.89413
 20
293.697
 11
-5.11108
 21
293.855
  0
LINE
  8
0
 10
-5.11108
 20
293.855
 11
-5.30655
 21
294.038
  0
LINE
  8
0
 10
-5.30655
 20
294.038
 11
-5.47748
 21
294.245
  0
LINE
  8
0
 10
-5.47748
 20
294.245
 11
-5.62117
 21
294.471
  0
LINE
  8
0
 10
-5.62117
 20
294.471
 11
-5.73534
 21
294.714
  0
LINE
  8
0
 10
-5.73534
 20
294.714
 11
-5.81821
 21
294.969
  0
LINE
  8
0
 10
-5.81821
 20
294.969
 11
-5.86845
 21
295.232
  0
LINE
  8
0
 10
-5.86845
 20
295.232
 11
-5.88528
 21
295.5
  0
LINE
  8
0
 10
-5.88528
 20
295.5
 11
-5.86845
 21
295.768
  0
LINE
  8
0
 10
-5.86845
 20
295.768
 11
-5.81821
 21
296.031
  0
LINE
  8
0
 10
-5.81821
 20
296.031
 11
-5.73534
 21
296.286
  0
LINE
  8
0
 10
-5.73534
 20
296.286
 11
-5.62117
 21
296.529
  0
LINE
  8
0
 10
-5.62117
 20
296.529
 11
-5.47748
 21
296.755
  0
LINE
  8
0
 10
-5.47748
 20
296.755
 11
-5.30655
 21
296.962
  0
LINE
  8
0
 10
-5.30655
 20
296.962
 11
-5.11108
 21
297.145
  0
LINE
  8
0
 10
-5.11108
 20
297.145
 11
-4.89413
 21
297.303
  0
LINE
  8
0
 10
-4.89413
 20
297.303
 11
-4.65915
 21
297.432
  0
LINE
  8
0
 10
-4.65915
 20
297.432
 11
-4.40984
 21
297.531
  0
LINE
  8
0
 10
-4.40984
 20
297.531
 11
-4.1501
 21
297.597
  0
LINE
  8
0
 10
-4.1501
 20
297.597
 11
-3.88406
 21
297.631
  0
LINE
  8
0
 10
-3.88406
 20
297.631
 11
-3.61592
 21
297.631
  0
LINE
  8
0
 10
-3.61592
 20
297.631
 11
-3.34988
 21
297.597
  0
LINE
  8
0
 10
-3.34988
 20
297.597
 11
-3.09015
 21
297.531
  0
LINE
  8
0
 10
-3.09015
 20
297.531
 11
-2.84084
 21
297.432
  0
LINE
  8
0
 10
-2.84084
 20
297.432
 11
-2.60585
 21
297.303
  0
LINE
  8
0
 10
-2.60585
 20
297.303
 11
-2.3889
 21
297.145
  0
LINE
  8
0
 10
-2.3889
 20
297.145
 11
-2.19344
 21
296.962
  0
LINE
  8
0
 10
-2.19344
 20
296.962
 11
-2.02251
 21
296.755
  0
LINE
  8
0
 10
-2.02251
 20
296.755
 11
-1.87881
 21
296.529
  0
LINE
  8
0
 10
-1.87881
 20
296.529
 11
-1.76465
 21
296.286
  0
LINE
  8
0
 10
-1.76465
 20
296.286
 11
-1.68178
 21
296.031
  0
LINE
  8
0
 10
-1.68178
 20
296.031
 11
-1.63153
 21
295.768
  0
LINE
  8
0
 10
-1.63153
 20
295.768
 11
-1.6147
 21
295.5
  0
LINE
  8
0
 10
-1.6147
 20
295.5
 11
-1.63153
 21
295.232
  0
LINE
  8
0
 10
-1.63153
 20
295.232
 11
-1.68178
 21
294.969
  0
LINE
  8
0
 10
-1.68178
 20
294.969
 11
-1.76465
 21
294.714
  0
LINE
  8
0
 10
-1.76465
 20
294.714
 11
-1.87881
 21
294.471
  0
LINE
  8
0
 10
-1.87881
 20
294.471
 11
-2.02251
 21
294.245
  0
LINE
  8
0
 10
-2.02251
 20
294.245
 11
-2.19344
 21
294.038
  0
LINE
  8
0
 10
-2.19344
 20
294.038
 11
-2.3889
 21
293.855
  0
LINE
  8
0
 10
-2.3889
 20
293.855
 11
-2.60585
 21
293.697
  0
LINE
  8
0
 10
-2.60585
 20
293.697
 11
-2.84084
 21
293.568
  0
LINE
  8
0
 10
-2.84084
 20
293.568
 11
-3.09015
 21
293.469
  0
LINE
  8
0
 10
-3.09015
 20
293.469
 11
-3.34988
 21
293.403
  0
LINE
  8
0
 10
-3.34988
 20
293.403
 11
-3.61592
 21
293.369
  0
LINE
  8
0
 10
-3.61592
 20
293.369
 11
-3.88406
 21
293.369
  0
ENDSEC
  0
SECTION
  2
OBJECTS
  0
DICTIONARY
  0
ENDSEC
  0
EOF
