<?xml version="1.0" standalone="no"?>
<!DOCTYPE svg PUBLIC "-//W3C//DTD SVG 1.1//EN" "http://www.w3.org/Graphics/SVG/1.1/DTD/svg11.dtd">
<svg width="196mm" height="460mm" viewBox="-98 -815 196 460" xmlns="http://www.w3.org/2000/svg" version="1.1">
<title>OpenSCAD Model</title>
<path d="
M 93.4369,-589.589 L 94.0451,-589.745 L 94.6289,-589.976 L 95.1791,-590.278 L 95.6871,-590.647 L 96.1448,-591.077
 L 96.5451,-591.561 L 96.8815,-592.091 L 97.1489,-592.659 L 97.3429,-593.257 L 97.4606,-593.873 L 97.5,-594.5
 L 97.5,-809.5 L 97.4606,-810.127 L 97.3429,-810.743 L 97.1489,-811.341 L 96.8815,-811.909 L 96.5451,-812.439
 L 96.1448,-812.923 L 95.6871,-813.353 L 95.1791,-813.722 L 94.6289,-814.024 L 94.0451,-814.255 L 93.4369,-814.411
 L 92.8139,-814.49 L -92.8139,-814.49 L -93.4369,-814.411 L -94.0451,-814.255 L -94.6289,-814.024 L -95.1791,-813.722
 L -95.6871,-813.353 L -96.1448,-812.923 L -96.5451,-812.439 L -96.8815,-811.909 L -97.1489,-811.341 L -97.3429,-810.743
 L -97.4606,-810.127 L -97.5,-809.5 L -97.5,-594.5 L -97.4606,-593.873 L -97.3429,-593.257 L -97.1489,-592.659
 L -96.8815,-592.091 L -96.5451,-591.561 L -96.1448,-591.077 L -95.6871,-590.647 L -95.1791,-590.278 L -94.6289,-589.976
 L -94.0451,-589.745 L -93.4369,-589.589 L -92.8139,-589.51 L 92.8139,-589.51 z
M -92.1955,-591.893 L -92.5833,-591.942 L -92.9619,-592.039 L -93.3254,-592.183 L -93.668,-592.372 L -93.9843,-592.601
 L -94.2692,-592.869 L -94.5184,-593.17 L -94.7279,-593.5 L -94.8943,-593.854 L -95.0151,-594.226 L -95.0884,-594.61
 L -95.1129,-595 L -95.1129,-809 L -95.0884,-809.39 L -95.0151,-809.774 L -94.8943,-810.146 L -94.7279,-810.5
 L -94.5184,-810.83 L -94.2692,-811.131 L -93.9843,-811.399 L -93.668,-811.628 L -93.3254,-811.817 L -92.9619,-811.961
 L -92.5833,-812.058 L -92.1955,-812.107 L 92.1955,-812.107 L 92.5833,-812.058 L 92.9619,-811.961 L 93.3254,-811.817
 L 93.668,-811.628 L 93.9843,-811.399 L 94.2692,-811.131 L 94.5184,-810.83 L 94.7279,-810.5 L 94.8943,-810.146
 L 95.0151,-809.774 L 95.0884,-809.39 L 95.1129,-809 L 95.1129,-595 L 95.0884,-594.61 L 95.0151,-594.226
 L 94.8943,-593.854 L 94.7279,-593.5 L 94.5184,-593.17 L 94.2692,-592.869 L 93.9843,-592.601 L 93.668,-592.372
 L 93.3254,-592.183 L 92.9619,-592.039 L 92.5833,-591.942 L 92.1955,-591.893 z
M 93.4369,-355.589 L 94.0451,-355.745 L 94.6289,-355.976 L 95.1791,-356.278 L 95.6871,-356.647 L 96.1448,-357.077
 L 96.5451,-357.561 L 96.8815,-358.091 L 97.1489,-358.659 L 97.3429,-359.257 L 97.4606,-359.873 L 97.5,-360.5
 L 97.5,-575.5 L 97.4606,-576.127 L 97.3429,-576.743 L 97.1489,-577.341 L 96.8815,-577.909 L 96.5451,-578.439
 L 96.1448,-578.923 L 95.6871,-579.353 L 95.1791,-579.722 L 94.6289,-580.024 L 94.0451,-580.255 L 93.4369,-580.411
 L 92.8139,-580.49 L -92.8139,-580.49 L -93.4369,-580.411 L -94.0451,-580.255 L -94.6289,-580.024 L -95.1791,-579.722
 L -95.6871,-579.353 L -96.1448,-578.923 L -96.5451,-578.439 L -96.8815,-577.909 L -97.1489,-577.341 L -97.3429,-576.743
 L -97.4606,-576.127 L -97.5,-575.5 L -97.5,-360.5 L -97.4606,-359.873 L -97.3429,-359.257 L -97.1489,-358.659
 L -96.8815,-358.091 L -96.5451,-357.561 L -96.1448,-357.077 L -95.6871,-356.647 L -95.1791,-356.278 L -94.6289,-355.976
 L -94.0451,-355.745 L -93.4369,-355.589 L -92.8139,-355.51 L 92.8139,-355.51 z
M 89.8659,-570.869 L 89.5999,-570.903 L 89.3401,-570.969 L 89.0908,-571.068 L 88.8559,-571.197 L 88.6389,-571.355
 L 88.4434,-571.538 L 88.2725,-571.745 L 88.1288,-571.971 L 88.0146,-572.214 L 87.9318,-572.469 L 87.8815,-572.732
 L 87.8647,-573 L 87.8815,-573.268 L 87.9318,-573.531 L 88.0146,-573.786 L 88.1288,-574.029 L 88.2725,-574.255
 L 88.4434,-574.462 L 88.6389,-574.645 L 88.8559,-574.803 L 89.0908,-574.932 L 89.3401,-575.031 L 89.5999,-575.097
 L 89.8659,-575.131 L 90.1341,-575.131 L 90.4001,-575.097 L 90.6598,-575.031 L 90.9092,-574.932 L 91.1441,-574.803
 L 91.3611,-574.645 L 91.5566,-574.462 L 91.7275,-574.255 L 91.8712,-574.029 L 91.9853,-573.786 L 92.0682,-573.531
 L 92.1185,-573.268 L 92.1353,-573 L 92.1185,-572.732 L 92.0682,-572.469 L 91.9853,-572.214 L 91.8712,-571.971
 L 91.7275,-571.745 L 91.5566,-571.538 L 91.3611,-571.355 L 91.1441,-571.197 L 90.9092,-571.068 L 90.6598,-570.969
 L 90.4001,-570.903 L 90.1341,-570.869 z
M -90.1341,-570.869 L -90.4001,-570.903 L -90.6598,-570.969 L -90.9092,-571.068 L -91.1441,-571.197 L -91.3611,-571.355
 L -91.5566,-571.538 L -91.7275,-571.745 L -91.8712,-571.971 L -91.9853,-572.214 L -92.0682,-572.469 L -92.1185,-572.732
 L -92.1353,-573 L -92.1185,-573.268 L -92.0682,-573.531 L -91.9853,-573.786 L -91.8712,-574.029 L -91.7275,-574.255
 L -91.5566,-574.462 L -91.3611,-574.645 L -91.1441,-574.803 L -90.9092,-574.932 L -90.6598,-575.031 L -90.4001,-575.097
 L -90.1341,-575.131 L -89.8659,-575.131 L -89.5999,-575.097 L -89.3401,-575.031 L -89.0908,-574.932 L -88.8559,-574.803
 L -88.6389,-574.645 L -88.4434,-574.462 L -88.2725,-574.255 L -88.1288,-574.029 L -88.0146,-573.786 L -87.9318,-573.531
 L -87.8815,-573.268 L -87.8647,-573 L -87.8815,-572.732 L -87.9318,-572.469 L -88.0146,-572.214 L -88.1288,-571.971
 L -88.2725,-571.745 L -88.4434,-571.538 L -88.6389,-571.355 L -88.8559,-571.197 L -89.0908,-571.068 L -89.3401,-570.969
 L -89.5999,-570.903 L -89.8659,-570.869 z
M 89.8659,-360.869 L 89.5999,-360.903 L 89.3401,-360.969 L 89.0908,-361.068 L 88.8559,-361.197 L 88.6389,-361.355
 L 88.4434,-361.538 L 88.2725,-361.745 L 88.1288,-361.971 L 88.0146,-362.214 L 87.9318,-362.469 L 87.8815,-362.732
 L 87.8647,-363 L 87.8815,-363.268 L 87.9318,-363.531 L 88.0146,-363.786 L 88.1288,-364.029 L 88.2725,-364.255
 L 88.4434,-364.462 L 88.6389,-364.645 L 88.8559,-364.803 L 89.0908,-364.932 L 89.3401,-365.031 L 89.5999,-365.097
 L 89.8659,-365.131 L 90.1341,-365.131 L 90.4001,-365.097 L 90.6598,-365.031 L 90.9092,-364.932 L 91.1441,-364.803
 L 91.3611,-364.645 L 91.5566,-364.462 L 91.7275,-364.255 L 91.8712,-364.029 L 91.9853,-363.786 L 92.0682,-363.531
 L 92.1185,-363.268 L 92.1353,-363 L 92.1185,-362.732 L 92.0682,-362.469 L 91.9853,-362.214 L 91.8712,-361.971
 L 91.7275,-361.745 L 91.5566,-361.538 L 91.3611,-361.355 L 91.1441,-361.197 L 90.9092,-361.068 L 90.6598,-360.969
 L 90.4001,-360.903 L 90.1341,-360.869 z
M -90.1341,-360.869 L -90.4001,-360.903 L -90.6598,-360.969 L -90.9092,-361.068 L -91.1441,-361.197 L -91.3611,-361.355
 L -91.5566,-361.538 L -91.7275,-361.745 L -91.8712,-361.971 L -91.9853,-362.214 L -92.0682,-362.469 L -92.1185,-362.732
 L -92.1353,-363 L -92.1185,-363.268 L -92.0682,-363.531 L -91.9853,-363.786 L -91.8712,-364.029 L -91.7275,-364.255
 L -91.5566,-364.462 L -91.3611,-364.645 L -91.1441,-364.803 L -90.9092,-364.932 L -90.6598,-365.031 L -90.4001,-365.097
 L -90.1341,-365.131 L -89.8659,-365.131 L -89.5999,-365.097 L -89.3401,-365.031 L -89.0908,-364.932 L -88.8559,-364.803
 L -88.6389,-364.645 L -88.4434,-364.462 L -88.2725,-364.255 L -88.1288,-364.029 L -88.0146,-363.786 L -87.9318,-363.531
 L -87.8815,-363.268 L -87.8647,-363 L -87.8815,-362.732 L -87.9318,-362.469 L -88.0146,-362.214 L -88.1288,-361.971
 L -88.2725,-361.745 L -88.4434,-361.538 L -88.6389,-361.355 L -88.8559,-361.197 L -89.0908,-361.068 L -89.3401,-360.969
 L -89.5999,-360.903 L -89.8659,-360.869 z
" stroke="black" fill="lightgray" stroke-width="0.5"/>
</svg>
