<?xml version="1.0" standalone="no"?>
<!DOCTYPE svg PUBLIC "-//W3C//DTD SVG 1.1//EN" "http://www.w3.org/Graphics/SVG/1.1/DTD/svg11.dtd">
<svg width="106mm" height="627mm" viewBox="-53 -1029 106 627" xmlns="http://www.w3.org/2000/svg" version="1.1">
<title>OpenSCAD Model</title>
<path d="
M 48.4369,-879.089 L 49.0451,-879.245 L 49.6289,-879.476 L 50.1791,-879.778 L 50.6871,-880.147 L 51.1448,-880.577
 L 51.5451,-881.061 L 51.8815,-881.591 L 52.1489,-882.159 L 52.3429,-882.757 L 52.4606,-883.373 L 52.5,-884
 L 52.5,-1024 L 52.4606,-1024.63 L 52.3429,-1025.24 L 52.1489,-1025.84 L 51.8815,-1026.41 L 51.5451,-1026.94
 L 51.1448,-1027.42 L 50.6871,-1027.85 L 50.1791,-1028.22 L 49.6289,-1028.52 L 49.0451,-1028.76 L 48.4369,-1028.91
 L 47.8139,-1028.99 L -47.8139,-1028.99 L -48.4369,-1028.91 L -49.0451,-1028.76 L -49.6289,-1028.52 L -50.1791,-1028.22
 L -50.6871,-1027.85 L -51.1448,-1027.42 L -51.5451,-1026.94 L -51.8815,-1026.41 L -52.1489,-1025.84 L -52.3429,-1025.24
 L -52.4606,-1024.63 L -52.5,-1024 L -52.5,-884 L -52.4606,-883.373 L -52.3429,-882.757 L -52.1489,-882.159
 L -51.8815,-881.591 L -51.5451,-881.061 L -51.1448,-880.577 L -50.6871,-880.147 L -50.1791,-879.778 L -49.6289,-879.476
 L -49.0451,-879.245 L -48.4369,-879.089 L -47.8139,-879.01 L 47.8139,-879.01 z
M -47.2512,-880.508 L -47.7495,-880.571 L -48.2361,-880.696 L -48.7031,-880.881 L -49.1433,-881.123 L -49.5497,-881.418
 L -49.9159,-881.762 L -50.2361,-882.149 L -50.5052,-882.573 L -50.7191,-883.028 L -50.8743,-883.505 L -50.9685,-883.999
 L -51,-884.5 L -51,-1023.5 L -50.9685,-1024 L -50.8743,-1024.49 L -50.7191,-1024.97 L -50.5052,-1025.43
 L -50.2361,-1025.85 L -49.9159,-1026.24 L -49.5497,-1026.58 L -49.1433,-1026.88 L -48.7031,-1027.12 L -48.2361,-1027.3
 L -47.7495,-1027.43 L -47.2512,-1027.49 L 47.2512,-1027.49 L 47.7495,-1027.43 L 48.2361,-1027.3 L 48.7031,-1027.12
 L 49.1433,-1026.88 L 49.5497,-1026.58 L 49.9159,-1026.24 L 50.2361,-1025.85 L 50.5052,-1025.43 L 50.7191,-1024.97
 L 50.8743,-1024.49 L 50.9685,-1024 L 51,-1023.5 L 51,-884.5 L 50.9685,-883.999 L 50.8743,-883.505
 L 50.7191,-883.028 L 50.5052,-882.573 L 50.2361,-882.149 L 49.9159,-881.762 L 49.5497,-881.418 L 49.1433,-881.123
 L 48.7031,-880.881 L 48.2361,-880.696 L 47.7495,-880.571 L 47.2512,-880.508 z
M 48.4369,-720.089 L 49.0451,-720.245 L 49.6289,-720.476 L 50.1791,-720.778 L 50.6871,-721.147 L 51.1448,-721.577
 L 51.5451,-722.061 L 51.8815,-722.591 L 52.1489,-723.159 L 52.3429,-723.757 L 52.4606,-724.373 L 52.5,-725
 L 52.5,-865 L 52.4606,-865.627 L 52.3429,-866.243 L 52.1489,-866.841 L 51.8815,-867.409 L 51.5451,-867.939
 L 51.1448,-868.423 L 50.6871,-868.853 L 50.1791,-869.222 L 49.6289,-869.524 L 49.0451,-869.755 L 48.4369,-869.911
 L 47.8139,-869.99 L -47.8139,-869.99 L -48.4369,-869.911 L -49.0451,-869.755 L -49.6289,-869.524 L -50.1791,-869.222
 L -50.6871,-868.853 L -51.1448,-868.423 L -51.5451,-867.939 L -51.8815,-867.409 L -52.1489,-866.841 L -52.3429,-866.243
 L -52.4606,-865.627 L -52.5,-865 L -52.5,-725 L -52.4606,-724.373 L -52.3429,-723.757 L -52.1489,-723.159
 L -51.8815,-722.591 L -51.5451,-722.061 L -51.1448,-721.577 L -50.6871,-721.147 L -50.1791,-720.778 L -49.6289,-720.476
 L -49.0451,-720.245 L -48.4369,-720.089 L -47.8139,-720.01 L 47.8139,-720.01 z
M -47.2432,-721.635 L -47.7256,-721.696 L -48.1967,-721.817 L -48.6489,-721.996 L -49.0751,-722.23 L -49.4685,-722.516
 L -49.823,-722.849 L -50.133,-723.224 L -50.3936,-723.634 L -50.6007,-724.074 L -50.751,-724.537 L -50.8421,-725.015
 L -50.8726,-725.5 L -50.8726,-864.5 L -50.8421,-864.985 L -50.751,-865.463 L -50.6007,-865.926 L -50.3936,-866.366
 L -50.133,-866.776 L -49.823,-867.151 L -49.4685,-867.484 L -49.0751,-867.77 L -48.6489,-868.004 L -48.1967,-868.183
 L -47.7256,-868.304 L -47.2432,-868.365 L 47.2432,-868.365 L 47.7256,-868.304 L 48.1967,-868.183 L 48.6489,-868.004
 L 49.0751,-867.77 L 49.4685,-867.484 L 49.823,-867.151 L 50.133,-866.776 L 50.3936,-866.366 L 50.6007,-865.926
 L 50.751,-865.463 L 50.8421,-864.985 L 50.8726,-864.5 L 50.8726,-725.5 L 50.8421,-725.015 L 50.751,-724.537
 L 50.6007,-724.074 L 50.3936,-723.634 L 50.133,-723.224 L 49.823,-722.849 L 49.4685,-722.516 L 49.0751,-722.23
 L 48.6489,-721.996 L 48.1967,-721.817 L 47.7256,-721.696 L 47.2432,-721.635 z
M 48.4369,-561.089 L 49.0451,-561.245 L 49.6289,-561.476 L 50.1791,-561.778 L 50.6871,-562.147 L 51.1448,-562.577
 L 51.5451,-563.061 L 51.8815,-563.591 L 52.1489,-564.159 L 52.3429,-564.757 L 52.4606,-565.373 L 52.5,-566
 L 52.5,-706 L 52.4606,-706.627 L 52.3429,-707.243 L 52.1489,-707.841 L 51.8815,-708.409 L 51.5451,-708.939
 L 51.1448,-709.423 L 50.6871,-709.853 L 50.1791,-710.222 L 49.6289,-710.524 L 49.0451,-710.755 L 48.4369,-710.911
 L 47.8139,-710.99 L -47.8139,-710.99 L -48.4369,-710.911 L -49.0451,-710.755 L -49.6289,-710.524 L -50.1791,-710.222
 L -50.6871,-709.853 L -51.1448,-709.423 L -51.5451,-708.939 L -51.8815,-708.409 L -52.1489,-707.841 L -52.3429,-707.243
 L -52.4606,-706.627 L -52.5,-706 L -52.5,-566 L -52.4606,-565.373 L -52.3429,-564.757 L -52.1489,-564.159
 L -51.8815,-563.591 L -51.5451,-563.061 L -51.1448,-562.577 L -50.6871,-562.147 L -50.1791,-561.778 L -49.6289,-561.476
 L -49.0451,-561.245 L -48.4369,-561.089 L -47.8139,-561.01 L 47.8139,-561.01 z
M 44.8493,-701.105 L 44.5503,-701.143 L 44.2584,-701.217 L 43.9781,-701.328 L 43.714,-701.474 L 43.4702,-701.651
 L 43.2505,-701.857 L 43.0583,-702.089 L 42.8969,-702.344 L 42.7685,-702.617 L 42.6754,-702.903 L 42.6189,-703.199
 L 42.6,-703.5 L 42.6189,-703.801 L 42.6754,-704.097 L 42.7685,-704.383 L 42.8969,-704.656 L 43.0583,-704.911
 L 43.2505,-705.143 L 43.4702,-705.349 L 43.714,-705.526 L 43.9781,-705.672 L 44.2584,-705.783 L 44.5503,-705.857
 L 44.8493,-705.895 L 45.1507,-705.895 L 45.4497,-705.857 L 45.7416,-705.783 L 46.0219,-705.672 L 46.286,-705.526
 L 46.5298,-705.349 L 46.7495,-705.143 L 46.9416,-704.911 L 47.1031,-704.656 L 47.2315,-704.383 L 47.3246,-704.097
 L 47.3811,-703.801 L 47.4,-703.5 L 47.3811,-703.199 L 47.3246,-702.903 L 47.2315,-702.617 L 47.1031,-702.344
 L 46.9416,-702.089 L 46.7495,-701.857 L 46.5298,-701.651 L 46.286,-701.474 L 46.0219,-701.328 L 45.7416,-701.217
 L 45.4497,-701.143 L 45.1507,-701.105 z
M -45.1507,-701.105 L -45.4497,-701.143 L -45.7416,-701.217 L -46.0219,-701.328 L -46.286,-701.474 L -46.5298,-701.651
 L -46.7495,-701.857 L -46.9416,-702.089 L -47.1031,-702.344 L -47.2315,-702.617 L -47.3246,-702.903 L -47.3811,-703.199
 L -47.4,-703.5 L -47.3811,-703.801 L -47.3246,-704.097 L -47.2315,-704.383 L -47.1031,-704.656 L -46.9416,-704.911
 L -46.7495,-705.143 L -46.5298,-705.349 L -46.286,-705.526 L -46.0219,-705.672 L -45.7416,-705.783 L -45.4497,-705.857
 L -45.1507,-705.895 L -44.8493,-705.895 L -44.5503,-705.857 L -44.2584,-705.783 L -43.9781,-705.672 L -43.714,-705.526
 L -43.4702,-705.349 L -43.2505,-705.143 L -43.0583,-704.911 L -42.8969,-704.656 L -42.7685,-704.383 L -42.6754,-704.097
 L -42.6189,-703.801 L -42.6,-703.5 L -42.6189,-703.199 L -42.6754,-702.903 L -42.7685,-702.617 L -42.8969,-702.344
 L -43.0583,-702.089 L -43.2505,-701.857 L -43.4702,-701.651 L -43.714,-701.474 L -43.9781,-701.328 L -44.2584,-701.217
 L -44.5503,-701.143 L -44.8493,-701.105 z
M 44.8493,-566.105 L 44.5503,-566.143 L 44.2584,-566.217 L 43.9781,-566.328 L 43.714,-566.474 L 43.4702,-566.651
 L 43.2505,-566.857 L 43.0583,-567.089 L 42.8969,-567.344 L 42.7685,-567.617 L 42.6754,-567.903 L 42.6189,-568.199
 L 42.6,-568.5 L 42.6189,-568.801 L 42.6754,-569.097 L 42.7685,-569.383 L 42.8969,-569.656 L 43.0583,-569.911
 L 43.2505,-570.143 L 43.4702,-570.349 L 43.714,-570.526 L 43.9781,-570.672 L 44.2584,-570.783 L 44.5503,-570.857
 L 44.8493,-570.895 L 45.1507,-570.895 L 45.4497,-570.857 L 45.7416,-570.783 L 46.0219,-570.672 L 46.286,-570.526
 L 46.5298,-570.349 L 46.7495,-570.143 L 46.9416,-569.911 L 47.1031,-569.656 L 47.2315,-569.383 L 47.3246,-569.097
 L 47.3811,-568.801 L 47.4,-568.5 L 47.3811,-568.199 L 47.3246,-567.903 L 47.2315,-567.617 L 47.1031,-567.344
 L 46.9416,-567.089 L 46.7495,-566.857 L 46.5298,-566.651 L 46.286,-566.474 L 46.0219,-566.328 L 45.7416,-566.217
 L 45.4497,-566.143 L 45.1507,-566.105 z
M -45.1507,-566.105 L -45.4497,-566.143 L -45.7416,-566.217 L -46.0219,-566.328 L -46.286,-566.474 L -46.5298,-566.651
 L -46.7495,-566.857 L -46.9416,-567.089 L -47.1031,-567.344 L -47.2315,-567.617 L -47.3246,-567.903 L -47.3811,-568.199
 L -47.4,-568.5 L -47.3811,-568.801 L -47.3246,-569.097 L -47.2315,-569.383 L -47.1031,-569.656 L -46.9416,-569.911
 L -46.7495,-570.143 L -46.5298,-570.349 L -46.286,-570.526 L -46.0219,-570.672 L -45.7416,-570.783 L -45.4497,-570.857
 L -45.1507,-570.895 L -44.8493,-570.895 L -44.5503,-570.857 L -44.2584,-570.783 L -43.9781,-570.672 L -43.714,-570.526
 L -43.4702,-570.349 L -43.2505,-570.143 L -43.0583,-569.911 L -42.8969,-569.656 L -42.7685,-569.383 L -42.6754,-569.097
 L -42.6189,-568.801 L -42.6,-568.5 L -42.6189,-568.199 L -42.6754,-567.903 L -42.7685,-567.617 L -42.8969,-567.344
 L -43.0583,-567.089 L -43.2505,-566.857 L -43.4702,-566.651 L -43.714,-566.474 L -43.9781,-566.328 L -44.2584,-566.217
 L -44.5503,-566.143 L -44.8493,-566.105 z
M 48.4369,-402.089 L 49.0451,-402.245 L 49.6289,-402.476 L 50.1791,-402.778 L 50.6871,-403.147 L 51.1448,-403.577
 L 51.5451,-404.061 L 51.8815,-404.591 L 52.1489,-405.159 L 52.3429,-405.757 L 52.4606,-406.373 L 52.5,-407
 L 52.5,-547 L 52.4606,-547.627 L 52.3429,-548.243 L 52.1489,-548.841 L 51.8815,-549.409 L 51.5451,-549.939
 L 51.1448,-550.423 L 50.6871,-550.853 L 50.1791,-551.222 L 49.6289,-551.524 L 49.0451,-551.755 L 48.4369,-551.911
 L 47.8139,-551.99 L -47.8139,-551.99 L -48.4369,-551.911 L -49.0451,-551.755 L -49.6289,-551.524 L -50.1791,-551.222
 L -50.6871,-550.853 L -51.1448,-550.423 L -51.5451,-549.939 L -51.8815,-549.409 L -52.1489,-548.841 L -52.3429,-548.243
 L -52.4606,-547.627 L -52.5,-547 L -52.5,-407 L -52.4606,-406.373 L -52.3429,-405.757 L -52.1489,-405.159
 L -51.8815,-404.591 L -51.5451,-404.061 L -51.1448,-403.577 L -50.6871,-403.147 L -50.1791,-402.778 L -49.6289,-402.476
 L -49.0451,-402.245 L -48.4369,-402.089 L -47.8139,-402.01 L 47.8139,-402.01 z
M 44.887,-542.704 L 44.6627,-542.732 L 44.4438,-542.788 L 44.2336,-542.871 L 44.0355,-542.98 L 43.8526,-543.113
 L 43.6879,-543.268 L 43.5438,-543.442 L 43.4226,-543.633 L 43.3264,-543.837 L 43.2565,-544.052 L 43.2142,-544.274
 L 43.2,-544.5 L 43.2142,-544.726 L 43.2565,-544.948 L 43.3264,-545.163 L 43.4226,-545.367 L 43.5438,-545.558
 L 43.6879,-545.732 L 43.8526,-545.887 L 44.0355,-546.02 L 44.2336,-546.129 L 44.4438,-546.212 L 44.6627,-546.268
 L 44.887,-546.296 L 45.113,-546.296 L 45.3373,-546.268 L 45.5562,-546.212 L 45.7664,-546.129 L 45.9645,-546.02
 L 46.1474,-545.887 L 46.3121,-545.732 L 46.4562,-545.558 L 46.5773,-545.367 L 46.6736,-545.163 L 46.7434,-544.948
 L 46.7858,-544.726 L 46.8,-544.5 L 46.7858,-544.274 L 46.7434,-544.052 L 46.6736,-543.837 L 46.5773,-543.633
 L 46.4562,-543.442 L 46.3121,-543.268 L 46.1474,-543.113 L 45.9645,-542.98 L 45.7664,-542.871 L 45.5562,-542.788
 L 45.3373,-542.732 L 45.113,-542.704 z
M -45.113,-542.704 L -45.3373,-542.732 L -45.5562,-542.788 L -45.7664,-542.871 L -45.9645,-542.98 L -46.1474,-543.113
 L -46.3121,-543.268 L -46.4562,-543.442 L -46.5773,-543.633 L -46.6736,-543.837 L -46.7434,-544.052 L -46.7858,-544.274
 L -46.8,-544.5 L -46.7858,-544.726 L -46.7434,-544.948 L -46.6736,-545.163 L -46.5773,-545.367 L -46.4562,-545.558
 L -46.3121,-545.732 L -46.1474,-545.887 L -45.9645,-546.02 L -45.7664,-546.129 L -45.5562,-546.212 L -45.3373,-546.268
 L -45.113,-546.296 L -44.887,-546.296 L -44.6627,-546.268 L -44.4438,-546.212 L -44.2336,-546.129 L -44.0355,-546.02
 L -43.8526,-545.887 L -43.6879,-545.732 L -43.5438,-545.558 L -43.4226,-545.367 L -43.3264,-545.163 L -43.2565,-544.948
 L -43.2142,-544.726 L -43.2,-544.5 L -43.2142,-544.274 L -43.2565,-544.052 L -43.3264,-543.837 L -43.4226,-543.633
 L -43.5438,-543.442 L -43.6879,-543.268 L -43.8526,-543.113 L -44.0355,-542.98 L -44.2336,-542.871 L -44.4438,-542.788
 L -44.6627,-542.732 L -44.887,-542.704 z
M -45.113,-407.704 L -45.3373,-407.732 L -45.5562,-407.788 L -45.7664,-407.871 L -45.9645,-407.98 L -46.1474,-408.113
 L -46.3121,-408.268 L -46.4562,-408.442 L -46.5773,-408.633 L -46.6736,-408.837 L -46.7434,-409.052 L -46.7858,-409.274
 L -46.8,-409.5 L -46.7858,-409.726 L -46.7434,-409.948 L -46.6736,-410.163 L -46.5773,-410.367 L -46.4562,-410.558
 L -46.3121,-410.732 L -46.1474,-410.887 L -45.9645,-411.02 L -45.7664,-411.129 L -45.5562,-411.212 L -45.3373,-411.268
 L -45.113,-411.296 L -44.887,-411.296 L -44.6627,-411.268 L -44.4438,-411.212 L -44.2336,-411.129 L -44.0355,-411.02
 L -43.8526,-410.887 L -43.6879,-410.732 L -43.5438,-410.558 L -43.4226,-410.367 L -43.3264,-410.163 L -43.2565,-409.948
 L -43.2142,-409.726 L -43.2,-409.5 L -43.2142,-409.274 L -43.2565,-409.052 L -43.3264,-408.837 L -43.4226,-408.633
 L -43.5438,-408.442 L -43.6879,-408.268 L -43.8526,-408.113 L -44.0355,-407.98 L -44.2336,-407.871 L -44.4438,-407.788
 L -44.6627,-407.732 L -44.887,-407.704 z
M 44.887,-407.704 L 44.6627,-407.732 L 44.4438,-407.788 L 44.2336,-407.871 L 44.0355,-407.98 L 43.8526,-408.113
 L 43.6879,-408.268 L 43.5438,-408.442 L 43.4226,-408.633 L 43.3264,-408.837 L 43.2565,-409.052 L 43.2142,-409.274
 L 43.2,-409.5 L 43.2142,-409.726 L 43.2565,-409.948 L 43.3264,-410.163 L 43.4226,-410.367 L 43.5438,-410.558
 L 43.6879,-410.732 L 43.8526,-410.887 L 44.0355,-411.02 L 44.2336,-411.129 L 44.4438,-411.212 L 44.6627,-411.268
 L 44.887,-411.296 L 45.113,-411.296 L 45.3373,-411.268 L 45.5562,-411.212 L 45.7664,-411.129 L 45.9645,-411.02
 L 46.1474,-410.887 L 46.3121,-410.732 L 46.4562,-410.558 L 46.5773,-410.367 L 46.6736,-410.163 L 46.7434,-409.948
 L 46.7858,-409.726 L 46.8,-409.5 L 46.7858,-409.274 L 46.7434,-409.052 L 46.6736,-408.837 L 46.5773,-408.633
 L 46.4562,-408.442 L 46.3121,-408.268 L 46.1474,-408.113 L 45.9645,-407.98 L 45.7664,-407.871 L 45.5562,-407.788
 L 45.3373,-407.732 L 45.113,-407.704 z
" stroke="black" fill="lightgray" stroke-width="0.5"/>
</svg>
