<?xml version="1.0" standalone="no"?>
<!DOCTYPE svg PUBLIC "-//W3C//DTD SVG 1.1//EN" "http://www.w3.org/Graphics/SVG/1.1/DTD/svg11.dtd">
<svg width="90mm" height="288mm" viewBox="-45 -441 90 288" xmlns="http://www.w3.org/2000/svg" version="1.1">
<title>OpenSCAD Model</title>
<path d="
M 40.9369,-351.089 L 41.5451,-351.245 L 42.1289,-351.476 L 42.6791,-351.778 L 43.1871,-352.147 L 43.6448,-352.577
 L 44.0451,-353.061 L 44.3815,-353.591 L 44.6489,-354.159 L 44.8429,-354.757 L 44.9606,-355.373 L 45,-356
 L 45,-436 L 44.9606,-436.627 L 44.8429,-437.243 L 44.6489,-437.841 L 44.3815,-438.409 L 44.0451,-438.939
 L 43.6448,-439.423 L 43.1871,-439.853 L 42.6791,-440.222 L 42.1289,-440.524 L 41.5451,-440.755 L 40.9369,-440.911
 L 40.3139,-440.99 L -40.3139,-440.99 L -40.9369,-440.911 L -41.5451,-440.755 L -42.1289,-440.524 L -42.6791,-440.222
 L -43.1871,-439.853 L -43.6448,-439.423 L -44.0451,-438.939 L -44.3815,-438.409 L -44.6489,-437.841 L -44.8429,-437.243
 L -44.9606,-436.627 L -45,-436 L -45,-356 L -44.9606,-355.373 L -44.8429,-354.757 L -44.6489,-354.159
 L -44.3815,-353.591 L -44.0451,-353.061 L -43.6448,-352.577 L -43.1871,-352.147 L -42.6791,-351.778 L -42.1289,-351.476
 L -41.5451,-351.245 L -40.9369,-351.089 L -40.3139,-351.01 L 40.3139,-351.01 z
M -40.0482,-351.509 L -40.6401,-351.584 L -41.2178,-351.732 L -41.7724,-351.952 L -42.2952,-352.239 L -42.7778,-352.59
 L -43.2126,-352.998 L -43.5928,-353.458 L -43.9124,-353.962 L -44.1664,-354.501 L -44.3508,-355.069 L -44.4625,-355.655
 L -44.5,-356.25 L -44.5,-435.75 L -44.4625,-436.345 L -44.3508,-436.931 L -44.1664,-437.499 L -43.9124,-438.038
 L -43.5928,-438.542 L -43.2126,-439.002 L -42.7778,-439.41 L -42.2952,-439.761 L -41.7724,-440.048 L -41.2178,-440.268
 L -40.6401,-440.416 L -40.0482,-440.491 L 40.0482,-440.491 L 40.6401,-440.416 L 41.2178,-440.268 L 41.7724,-440.048
 L 42.2952,-439.761 L 42.7778,-439.41 L 43.2126,-439.002 L 43.5928,-438.542 L 43.9124,-438.038 L 44.1664,-437.499
 L 44.3508,-436.931 L 44.4625,-436.345 L 44.5,-435.75 L 44.5,-356.25 L 44.4625,-355.655 L 44.3508,-355.069
 L 44.1664,-354.501 L 43.9124,-353.962 L 43.5928,-353.458 L 43.2126,-352.998 L 42.7778,-352.59 L 42.2952,-352.239
 L 41.7724,-351.952 L 41.2178,-351.732 L 40.6401,-351.584 L 40.0482,-351.509 z
M 40.9369,-252.089 L 41.5451,-252.245 L 42.1289,-252.476 L 42.6791,-252.778 L 43.1871,-253.147 L 43.6448,-253.577
 L 44.0451,-254.061 L 44.3815,-254.591 L 44.6489,-255.159 L 44.8429,-255.757 L 44.9606,-256.373 L 45,-257
 L 45,-337 L 44.9606,-337.627 L 44.8429,-338.243 L 44.6489,-338.841 L 44.3815,-339.409 L 44.0451,-339.939
 L 43.6448,-340.423 L 43.1871,-340.853 L 42.6791,-341.222 L 42.1289,-341.524 L 41.5451,-341.755 L 40.9369,-341.911
 L 40.3139,-341.99 L -40.3139,-341.99 L -40.9369,-341.911 L -41.5451,-341.755 L -42.1289,-341.524 L -42.6791,-341.222
 L -43.1871,-340.853 L -43.6448,-340.423 L -44.0451,-339.939 L -44.3815,-339.409 L -44.6489,-338.841 L -44.8429,-338.243
 L -44.9606,-337.627 L -45,-337 L -45,-257 L -44.9606,-256.373 L -44.8429,-255.757 L -44.6489,-255.159
 L -44.3815,-254.591 L -44.0451,-254.061 L -43.6448,-253.577 L -43.1871,-253.147 L -42.6791,-252.778 L -42.1289,-252.476
 L -41.5451,-252.245 L -40.9369,-252.089 L -40.3139,-252.01 L 40.3139,-252.01 z
M -39.993,-253.388 L -40.4751,-253.449 L -40.9457,-253.57 L -41.3975,-253.749 L -41.8234,-253.983 L -42.2165,-254.269
 L -42.5707,-254.601 L -42.8805,-254.976 L -43.1408,-255.386 L -43.3477,-255.826 L -43.4979,-256.288 L -43.589,-256.765
 L -43.6195,-257.25 L -43.6195,-336.75 L -43.589,-337.235 L -43.4979,-337.712 L -43.3477,-338.174 L -43.1408,-338.614
 L -42.8805,-339.024 L -42.5707,-339.399 L -42.2165,-339.731 L -41.8234,-340.017 L -41.3975,-340.251 L -40.9457,-340.43
 L -40.4751,-340.551 L -39.993,-340.612 L 39.993,-340.612 L 40.4751,-340.551 L 40.9457,-340.43 L 41.3975,-340.251
 L 41.8234,-340.017 L 42.2165,-339.731 L 42.5707,-339.399 L 42.8805,-339.024 L 43.1408,-338.614 L 43.3477,-338.174
 L 43.4979,-337.712 L 43.589,-337.235 L 43.6195,-336.75 L 43.6195,-257.25 L 43.589,-256.765 L 43.4979,-256.288
 L 43.3477,-255.826 L 43.1408,-255.386 L 42.8805,-254.976 L 42.5707,-254.601 L 42.2165,-254.269 L 41.8234,-253.983
 L 41.3975,-253.749 L 40.9457,-253.57 L 40.4751,-253.449 L 39.993,-253.388 z
M 40.9369,-153.089 L 41.5451,-153.245 L 42.1289,-153.476 L 42.6791,-153.778 L 43.1871,-154.147 L 43.6448,-154.577
 L 44.0451,-155.061 L 44.3815,-155.591 L 44.6489,-156.159 L 44.8429,-156.757 L 44.9606,-157.373 L 45,-158
 L 45,-238 L 44.9606,-238.627 L 44.8429,-239.243 L 44.6489,-239.841 L 44.3815,-240.409 L 44.0451,-240.939
 L 43.6448,-241.423 L 43.1871,-241.853 L 42.6791,-242.222 L 42.1289,-242.524 L 41.5451,-242.755 L 40.9369,-242.911
 L 40.3139,-242.99 L -40.3139,-242.99 L -40.9369,-242.911 L -41.5451,-242.755 L -42.1289,-242.524 L -42.6791,-242.222
 L -43.1871,-241.853 L -43.6448,-241.423 L -44.0451,-240.939 L -44.3815,-240.409 L -44.6489,-239.841 L -44.8429,-239.243
 L -44.9606,-238.627 L -45,-238 L -45,-158 L -44.9606,-157.373 L -44.8429,-156.757 L -44.6489,-156.159
 L -44.3815,-155.591 L -44.0451,-155.061 L -43.6448,-154.577 L -43.1871,-154.147 L -42.6791,-153.778 L -42.1289,-153.476
 L -41.5451,-153.245 L -40.9369,-153.089 L -40.3139,-153.01 L 40.3139,-153.01 z
M -37.613,-233.704 L -37.8373,-233.732 L -38.0562,-233.788 L -38.2664,-233.871 L -38.4645,-233.98 L -38.6474,-234.113
 L -38.8121,-234.268 L -38.9562,-234.442 L -39.0773,-234.633 L -39.1736,-234.837 L -39.2434,-235.052 L -39.2858,-235.274
 L -39.3,-235.5 L -39.2858,-235.726 L -39.2434,-235.948 L -39.1736,-236.163 L -39.0773,-236.367 L -38.9562,-236.558
 L -38.8121,-236.732 L -38.6474,-236.887 L -38.4645,-237.02 L -38.2664,-237.129 L -38.0562,-237.212 L -37.8373,-237.268
 L -37.613,-237.296 L -37.387,-237.296 L -37.1627,-237.268 L -36.9438,-237.212 L -36.7336,-237.129 L -36.5355,-237.02
 L -36.3526,-236.887 L -36.1879,-236.732 L -36.0438,-236.558 L -35.9226,-236.367 L -35.8264,-236.163 L -35.7565,-235.948
 L -35.7142,-235.726 L -35.7,-235.5 L -35.7142,-235.274 L -35.7565,-235.052 L -35.8264,-234.837 L -35.9226,-234.633
 L -36.0438,-234.442 L -36.1879,-234.268 L -36.3526,-234.113 L -36.5355,-233.98 L -36.7336,-233.871 L -36.9438,-233.788
 L -37.1627,-233.732 L -37.387,-233.704 z
M 37.387,-233.704 L 37.1627,-233.732 L 36.9438,-233.788 L 36.7336,-233.871 L 36.5355,-233.98 L 36.3526,-234.113
 L 36.1879,-234.268 L 36.0438,-234.442 L 35.9226,-234.633 L 35.8264,-234.837 L 35.7565,-235.052 L 35.7142,-235.274
 L 35.7,-235.5 L 35.7142,-235.726 L 35.7565,-235.948 L 35.8264,-236.163 L 35.9226,-236.367 L 36.0438,-236.558
 L 36.1879,-236.732 L 36.3526,-236.887 L 36.5355,-237.02 L 36.7336,-237.129 L 36.9438,-237.212 L 37.1627,-237.268
 L 37.387,-237.296 L 37.613,-237.296 L 37.8373,-237.268 L 38.0562,-237.212 L 38.2664,-237.129 L 38.4645,-237.02
 L 38.6474,-236.887 L 38.8121,-236.732 L 38.9562,-236.558 L 39.0773,-236.367 L 39.1736,-236.163 L 39.2434,-235.948
 L 39.2858,-235.726 L 39.3,-235.5 L 39.2858,-235.274 L 39.2434,-235.052 L 39.1736,-234.837 L 39.0773,-234.633
 L 38.9562,-234.442 L 38.8121,-234.268 L 38.6474,-234.113 L 38.4645,-233.98 L 38.2664,-233.871 L 38.0562,-233.788
 L 37.8373,-233.732 L 37.613,-233.704 z
M -37.613,-158.704 L -37.8373,-158.732 L -38.0562,-158.788 L -38.2664,-158.871 L -38.4645,-158.98 L -38.6474,-159.113
 L -38.8121,-159.268 L -38.9562,-159.442 L -39.0773,-159.633 L -39.1736,-159.837 L -39.2434,-160.052 L -39.2858,-160.274
 L -39.3,-160.5 L -39.2858,-160.726 L -39.2434,-160.948 L -39.1736,-161.163 L -39.0773,-161.367 L -38.9562,-161.558
 L -38.8121,-161.732 L -38.6474,-161.887 L -38.4645,-162.02 L -38.2664,-162.129 L -38.0562,-162.212 L -37.8373,-162.268
 L -37.613,-162.296 L -37.387,-162.296 L -37.1627,-162.268 L -36.9438,-162.212 L -36.7336,-162.129 L -36.5355,-162.02
 L -36.3526,-161.887 L -36.1879,-161.732 L -36.0438,-161.558 L -35.9226,-161.367 L -35.8264,-161.163 L -35.7565,-160.948
 L -35.7142,-160.726 L -35.7,-160.5 L -35.7142,-160.274 L -35.7565,-160.052 L -35.8264,-159.837 L -35.9226,-159.633
 L -36.0438,-159.442 L -36.1879,-159.268 L -36.3526,-159.113 L -36.5355,-158.98 L -36.7336,-158.871 L -36.9438,-158.788
 L -37.1627,-158.732 L -37.387,-158.704 z
M 37.387,-158.704 L 37.1627,-158.732 L 36.9438,-158.788 L 36.7336,-158.871 L 36.5355,-158.98 L 36.3526,-159.113
 L 36.1879,-159.268 L 36.0438,-159.442 L 35.9226,-159.633 L 35.8264,-159.837 L 35.7565,-160.052 L 35.7142,-160.274
 L 35.7,-160.5 L 35.7142,-160.726 L 35.7565,-160.948 L 35.8264,-161.163 L 35.9226,-161.367 L 36.0438,-161.558
 L 36.1879,-161.732 L 36.3526,-161.887 L 36.5355,-162.02 L 36.7336,-162.129 L 36.9438,-162.212 L 37.1627,-162.268
 L 37.387,-162.296 L 37.613,-162.296 L 37.8373,-162.268 L 38.0562,-162.212 L 38.2664,-162.129 L 38.4645,-162.02
 L 38.6474,-161.887 L 38.8121,-161.732 L 38.9562,-161.558 L 39.0773,-161.367 L 39.1736,-161.163 L 39.2434,-160.948
 L 39.2858,-160.726 L 39.3,-160.5 L 39.2858,-160.274 L 39.2434,-160.052 L 39.1736,-159.837 L 39.0773,-159.633
 L 38.9562,-159.442 L 38.8121,-159.268 L 38.6474,-159.113 L 38.4645,-158.98 L 38.2664,-158.871 L 38.0562,-158.788
 L 37.8373,-158.732 L 37.613,-158.704 z
" stroke="black" fill="lightgray" stroke-width="0.5"/>
</svg>
