  0
SECTION
  2
BLOCKS
  0
ENDSEC
  0
SECTION
  2
ENTITIES
  0
LINE
  8
0
 10
100.937
 20
1116.09
 11
101.545
 21
1116.24
  0
LINE
  8
0
 10
101.545
 20
1116.24
 11
102.129
 21
1116.48
  0
LINE
  8
0
 10
102.129
 20
1116.48
 11
102.679
 21
1116.78
  0
LINE
  8
0
 10
102.679
 20
1116.78
 11
103.187
 21
1117.15
  0
LINE
  8
0
 10
103.187
 20
1117.15
 11
103.645
 21
1117.58
  0
LINE
  8
0
 10
103.645
 20
1117.58
 11
104.045
 21
1118.06
  0
LINE
  8
0
 10
104.045
 20
1118.06
 11
104.382
 21
1118.59
  0
LINE
  8
0
 10
104.382
 20
1118.59
 11
104.649
 21
1119.16
  0
LINE
  8
0
 10
104.649
 20
1119.16
 11
104.843
 21
1119.76
  0
LINE
  8
0
 10
104.843
 20
1119.76
 11
104.961
 21
1120.37
  0
LINE
  8
0
 10
104.961
 20
1120.37
 11
105
 21
1121
  0
LINE
  8
0
 10
105
 20
1121
 11
105
 21
1141
  0
LINE
  8
0
 10
105
 20
1141
 11
104.961
 21
1141.63
  0
LINE
  8
0
 10
104.961
 20
1141.63
 11
104.843
 21
1142.24
  0
LINE
  8
0
 10
104.843
 20
1142.24
 11
104.649
 21
1142.84
  0
LINE
  8
0
 10
104.649
 20
1142.84
 11
104.382
 21
1143.41
  0
LINE
  8
0
 10
104.382
 20
1143.41
 11
104.045
 21
1143.94
  0
LINE
  8
0
 10
104.045
 20
1143.94
 11
103.645
 21
1144.42
  0
LINE
  8
0
 10
103.645
 20
1144.42
 11
103.187
 21
1144.85
  0
LINE
  8
0
 10
103.187
 20
1144.85
 11
102.679
 21
1145.22
  0
LINE
  8
0
 10
102.679
 20
1145.22
 11
102.129
 21
1145.52
  0
LINE
  8
0
 10
102.129
 20
1145.52
 11
101.545
 21
1145.76
  0
LINE
  8
0
 10
101.545
 20
1145.76
 11
100.937
 21
1145.91
  0
LINE
  8
0
 10
100.937
 20
1145.91
 11
100.314
 21
1145.99
  0
LINE
  8
0
 10
100.314
 20
1145.99
 11
-100.314
 21
1145.99
  0
LINE
  8
0
 10
-100.314
 20
1145.99
 11
-100.937
 21
1145.91
  0
LINE
  8
0
 10
-100.937
 20
1145.91
 11
-101.545
 21
1145.76
  0
LINE
  8
0
 10
-101.545
 20
1145.76
 11
-102.129
 21
1145.52
  0
LINE
  8
0
 10
-102.129
 20
1145.52
 11
-102.679
 21
1145.22
  0
LINE
  8
0
 10
-102.679
 20
1145.22
 11
-103.187
 21
1144.85
  0
LINE
  8
0
 10
-103.187
 20
1144.85
 11
-103.645
 21
1144.42
  0
LINE
  8
0
 10
-103.645
 20
1144.42
 11
-104.045
 21
1143.94
  0
LINE
  8
0
 10
-104.045
 20
1143.94
 11
-104.382
 21
1143.41
  0
LINE
  8
0
 10
-104.382
 20
1143.41
 11
-104.649
 21
1142.84
  0
LINE
  8
0
 10
-104.649
 20
1142.84
 11
-104.843
 21
1142.24
  0
LINE
  8
0
 10
-104.843
 20
1142.24
 11
-104.961
 21
1141.63
  0
LINE
  8
0
 10
-104.961
 20
1141.63
 11
-105
 21
1141
  0
LINE
  8
0
 10
-105
 20
1141
 11
-105
 21
1121
  0
LINE
  8
0
 10
-105
 20
1121
 11
-104.961
 21
1120.37
  0
LINE
  8
0
 10
-104.961
 20
1120.37
 11
-104.843
 21
1119.76
  0
LINE
  8
0
 10
-104.843
 20
1119.76
 11
-104.649
 21
1119.16
  0
LINE
  8
0
 10
-104.649
 20
1119.16
 11
-104.382
 21
1118.59
  0
LINE
  8
0
 10
-104.382
 20
1118.59
 11
-104.045
 21
1118.06
  0
LINE
  8
0
 10
-104.045
 20
1118.06
 11
-103.645
 21
1117.58
  0
LINE
  8
0
 10
-103.645
 20
1117.58
 11
-103.187
 21
1117.15
  0
LINE
  8
0
 10
-103.187
 20
1117.15
 11
-102.679
 21
1116.78
  0
LINE
  8
0
 10
-102.679
 20
1116.78
 11
-102.129
 21
1116.48
  0
LINE
  8
0
 10
-102.129
 20
1116.48
 11
-101.545
 21
1116.24
  0
LINE
  8
0
 10
-101.545
 20
1116.24
 11
-100.937
 21
1116.09
  0
LINE
  8
0
 10
-100.937
 20
1116.09
 11
-100.314
 21
1116.01
  0
LINE
  8
0
 10
-100.314
 20
1116.01
 11
100.314
 21
1116.01
  0
LINE
  8
0
 10
100.314
 20
1116.01
 11
100.937
 21
1116.09
  0
LINE
  8
0
 10
-99.7512
 20
1117.51
 11
-100.25
 21
1117.57
  0
LINE
  8
0
 10
-100.25
 20
1117.57
 11
-100.736
 21
1117.7
  0
LINE
  8
0
 10
-100.736
 20
1117.7
 11
-101.203
 21
1117.88
  0
LINE
  8
0
 10
-101.203
 20
1117.88
 11
-101.643
 21
1118.12
  0
LINE
  8
0
 10
-101.643
 20
1118.12
 11
-102.05
 21
1118.42
  0
LINE
  8
0
 10
-102.05
 20
1118.42
 11
-102.416
 21
1118.76
  0
LINE
  8
0
 10
-102.416
 20
1118.76
 11
-102.736
 21
1119.15
  0
LINE
  8
0
 10
-102.736
 20
1119.15
 11
-103.005
 21
1119.57
  0
LINE
  8
0
 10
-103.005
 20
1119.57
 11
-103.219
 21
1120.03
  0
LINE
  8
0
 10
-103.219
 20
1120.03
 11
-103.374
 21
1120.51
  0
LINE
  8
0
 10
-103.374
 20
1120.51
 11
-103.468
 21
1121
  0
LINE
  8
0
 10
-103.468
 20
1121
 11
-103.5
 21
1121.5
  0
LINE
  8
0
 10
-103.5
 20
1121.5
 11
-103.5
 21
1140.5
  0
LINE
  8
0
 10
-103.5
 20
1140.5
 11
-103.468
 21
1141
  0
LINE
  8
0
 10
-103.468
 20
1141
 11
-103.374
 21
1141.49
  0
LINE
  8
0
 10
-103.374
 20
1141.49
 11
-103.219
 21
1141.97
  0
LINE
  8
0
 10
-103.219
 20
1141.97
 11
-103.005
 21
1142.43
  0
LINE
  8
0
 10
-103.005
 20
1142.43
 11
-102.736
 21
1142.85
  0
LINE
  8
0
 10
-102.736
 20
1142.85
 11
-102.416
 21
1143.24
  0
LINE
  8
0
 10
-102.416
 20
1143.24
 11
-102.05
 21
1143.58
  0
LINE
  8
0
 10
-102.05
 20
1143.58
 11
-101.643
 21
1143.88
  0
LINE
  8
0
 10
-101.643
 20
1143.88
 11
-101.203
 21
1144.12
  0
LINE
  8
0
 10
-101.203
 20
1144.12
 11
-100.736
 21
1144.3
  0
LINE
  8
0
 10
-100.736
 20
1144.3
 11
-100.25
 21
1144.43
  0
LINE
  8
0
 10
-100.25
 20
1144.43
 11
-99.7512
 21
1144.49
  0
LINE
  8
0
 10
-99.7512
 20
1144.49
 11
99.7512
 21
1144.49
  0
LINE
  8
0
 10
99.7512
 20
1144.49
 11
100.25
 21
1144.43
  0
LINE
  8
0
 10
100.25
 20
1144.43
 11
100.736
 21
1144.3
  0
LINE
  8
0
 10
100.736
 20
1144.3
 11
101.203
 21
1144.12
  0
LINE
  8
0
 10
101.203
 20
1144.12
 11
101.643
 21
1143.88
  0
LINE
  8
0
 10
101.643
 20
1143.88
 11
102.05
 21
1143.58
  0
LINE
  8
0
 10
102.05
 20
1143.58
 11
102.416
 21
1143.24
  0
LINE
  8
0
 10
102.416
 20
1143.24
 11
102.736
 21
1142.85
  0
LINE
  8
0
 10
102.736
 20
1142.85
 11
103.005
 21
1142.43
  0
LINE
  8
0
 10
103.005
 20
1142.43
 11
103.219
 21
1141.97
  0
LINE
  8
0
 10
103.219
 20
1141.97
 11
103.374
 21
1141.49
  0
LINE
  8
0
 10
103.374
 20
1141.49
 11
103.468
 21
1141
  0
LINE
  8
0
 10
103.468
 20
1141
 11
103.5
 21
1140.5
  0
LINE
  8
0
 10
103.5
 20
1140.5
 11
103.5
 21
1121.5
  0
LINE
  8
0
 10
103.5
 20
1121.5
 11
103.468
 21
1121
  0
LINE
  8
0
 10
103.468
 20
1121
 11
103.374
 21
1120.51
  0
LINE
  8
0
 10
103.374
 20
1120.51
 11
103.219
 21
1120.03
  0
LINE
  8
0
 10
103.219
 20
1120.03
 11
103.005
 21
1119.57
  0
LINE
  8
0
 10
103.005
 20
1119.57
 11
102.736
 21
1119.15
  0
LINE
  8
0
 10
102.736
 20
1119.15
 11
102.416
 21
1118.76
  0
LINE
  8
0
 10
102.416
 20
1118.76
 11
102.05
 21
1118.42
  0
LINE
  8
0
 10
102.05
 20
1118.42
 11
101.643
 21
1118.12
  0
LINE
  8
0
 10
101.643
 20
1118.12
 11
101.203
 21
1117.88
  0
LINE
  8
0
 10
101.203
 20
1117.88
 11
100.736
 21
1117.7
  0
LINE
  8
0
 10
100.736
 20
1117.7
 11
100.25
 21
1117.57
  0
LINE
  8
0
 10
100.25
 20
1117.57
 11
99.7512
 21
1117.51
  0
LINE
  8
0
 10
99.7512
 20
1117.51
 11
-99.7512
 21
1117.51
  0
LINE
  8
0
 10
100.937
 20
1077.09
 11
101.545
 21
1077.24
  0
LINE
  8
0
 10
101.545
 20
1077.24
 11
102.129
 21
1077.48
  0
LINE
  8
0
 10
102.129
 20
1077.48
 11
102.679
 21
1077.78
  0
LINE
  8
0
 10
102.679
 20
1077.78
 11
103.187
 21
1078.15
  0
LINE
  8
0
 10
103.187
 20
1078.15
 11
103.645
 21
1078.58
  0
LINE
  8
0
 10
103.645
 20
1078.58
 11
104.045
 21
1079.06
  0
LINE
  8
0
 10
104.045
 20
1079.06
 11
104.382
 21
1079.59
  0
LINE
  8
0
 10
104.382
 20
1079.59
 11
104.649
 21
1080.16
  0
LINE
  8
0
 10
104.649
 20
1080.16
 11
104.843
 21
1080.76
  0
LINE
  8
0
 10
104.843
 20
1080.76
 11
104.961
 21
1081.37
  0
LINE
  8
0
 10
104.961
 20
1081.37
 11
105
 21
1082
  0
LINE
  8
0
 10
105
 20
1082
 11
105
 21
1102
  0
LINE
  8
0
 10
105
 20
1102
 11
104.961
 21
1102.63
  0
LINE
  8
0
 10
104.961
 20
1102.63
 11
104.843
 21
1103.24
  0
LINE
  8
0
 10
104.843
 20
1103.24
 11
104.649
 21
1103.84
  0
LINE
  8
0
 10
104.649
 20
1103.84
 11
104.382
 21
1104.41
  0
LINE
  8
0
 10
104.382
 20
1104.41
 11
104.045
 21
1104.94
  0
LINE
  8
0
 10
104.045
 20
1104.94
 11
103.645
 21
1105.42
  0
LINE
  8
0
 10
103.645
 20
1105.42
 11
103.187
 21
1105.85
  0
LINE
  8
0
 10
103.187
 20
1105.85
 11
102.679
 21
1106.22
  0
LINE
  8
0
 10
102.679
 20
1106.22
 11
102.129
 21
1106.52
  0
LINE
  8
0
 10
102.129
 20
1106.52
 11
101.545
 21
1106.76
  0
LINE
  8
0
 10
101.545
 20
1106.76
 11
100.937
 21
1106.91
  0
LINE
  8
0
 10
100.937
 20
1106.91
 11
100.314
 21
1106.99
  0
LINE
  8
0
 10
100.314
 20
1106.99
 11
-100.314
 21
1106.99
  0
LINE
  8
0
 10
-100.314
 20
1106.99
 11
-100.937
 21
1106.91
  0
LINE
  8
0
 10
-100.937
 20
1106.91
 11
-101.545
 21
1106.76
  0
LINE
  8
0
 10
-101.545
 20
1106.76
 11
-102.129
 21
1106.52
  0
LINE
  8
0
 10
-102.129
 20
1106.52
 11
-102.679
 21
1106.22
  0
LINE
  8
0
 10
-102.679
 20
1106.22
 11
-103.187
 21
1105.85
  0
LINE
  8
0
 10
-103.187
 20
1105.85
 11
-103.645
 21
1105.42
  0
LINE
  8
0
 10
-103.645
 20
1105.42
 11
-104.045
 21
1104.94
  0
LINE
  8
0
 10
-104.045
 20
1104.94
 11
-104.382
 21
1104.41
  0
LINE
  8
0
 10
-104.382
 20
1104.41
 11
-104.649
 21
1103.84
  0
LINE
  8
0
 10
-104.649
 20
1103.84
 11
-104.843
 21
1103.24
  0
LINE
  8
0
 10
-104.843
 20
1103.24
 11
-104.961
 21
1102.63
  0
LINE
  8
0
 10
-104.961
 20
1102.63
 11
-105
 21
1102
  0
LINE
  8
0
 10
-105
 20
1102
 11
-105
 21
1082
  0
LINE
  8
0
 10
-105
 20
1082
 11
-104.961
 21
1081.37
  0
LINE
  8
0
 10
-104.961
 20
1081.37
 11
-104.843
 21
1080.76
  0
LINE
  8
0
 10
-104.843
 20
1080.76
 11
-104.649
 21
1080.16
  0
LINE
  8
0
 10
-104.649
 20
1080.16
 11
-104.382
 21
1079.59
  0
LINE
  8
0
 10
-104.382
 20
1079.59
 11
-104.045
 21
1079.06
  0
LINE
  8
0
 10
-104.045
 20
1079.06
 11
-103.645
 21
1078.58
  0
LINE
  8
0
 10
-103.645
 20
1078.58
 11
-103.187
 21
1078.15
  0
LINE
  8
0
 10
-103.187
 20
1078.15
 11
-102.679
 21
1077.78
  0
LINE
  8
0
 10
-102.679
 20
1077.78
 11
-102.129
 21
1077.48
  0
LINE
  8
0
 10
-102.129
 20
1077.48
 11
-101.545
 21
1077.24
  0
LINE
  8
0
 10
-101.545
 20
1077.24
 11
-100.937
 21
1077.09
  0
LINE
  8
0
 10
-100.937
 20
1077.09
 11
-100.314
 21
1077.01
  0
LINE
  8
0
 10
-100.314
 20
1077.01
 11
100.314
 21
1077.01
  0
LINE
  8
0
 10
100.314
 20
1077.01
 11
100.937
 21
1077.09
  0
LINE
  8
0
 10
-99.7512
 20
1078.51
 11
-100.25
 21
1078.57
  0
LINE
  8
0
 10
-100.25
 20
1078.57
 11
-100.736
 21
1078.7
  0
LINE
  8
0
 10
-100.736
 20
1078.7
 11
-101.203
 21
1078.88
  0
LINE
  8
0
 10
-101.203
 20
1078.88
 11
-101.643
 21
1079.12
  0
LINE
  8
0
 10
-101.643
 20
1079.12
 11
-102.05
 21
1079.42
  0
LINE
  8
0
 10
-102.05
 20
1079.42
 11
-102.416
 21
1079.76
  0
LINE
  8
0
 10
-102.416
 20
1079.76
 11
-102.736
 21
1080.15
  0
LINE
  8
0
 10
-102.736
 20
1080.15
 11
-103.005
 21
1080.57
  0
LINE
  8
0
 10
-103.005
 20
1080.57
 11
-103.219
 21
1081.03
  0
LINE
  8
0
 10
-103.219
 20
1081.03
 11
-103.374
 21
1081.51
  0
LINE
  8
0
 10
-103.374
 20
1081.51
 11
-103.468
 21
1082
  0
LINE
  8
0
 10
-103.468
 20
1082
 11
-103.5
 21
1082.5
  0
LINE
  8
0
 10
-103.5
 20
1082.5
 11
-103.5
 21
1101.5
  0
LINE
  8
0
 10
-103.5
 20
1101.5
 11
-103.468
 21
1102
  0
LINE
  8
0
 10
-103.468
 20
1102
 11
-103.374
 21
1102.49
  0
LINE
  8
0
 10
-103.374
 20
1102.49
 11
-103.219
 21
1102.97
  0
LINE
  8
0
 10
-103.219
 20
1102.97
 11
-103.005
 21
1103.43
  0
LINE
  8
0
 10
-103.005
 20
1103.43
 11
-102.736
 21
1103.85
  0
LINE
  8
0
 10
-102.736
 20
1103.85
 11
-102.416
 21
1104.24
  0
LINE
  8
0
 10
-102.416
 20
1104.24
 11
-102.05
 21
1104.58
  0
LINE
  8
0
 10
-102.05
 20
1104.58
 11
-101.643
 21
1104.88
  0
LINE
  8
0
 10
-101.643
 20
1104.88
 11
-101.203
 21
1105.12
  0
LINE
  8
0
 10
-101.203
 20
1105.12
 11
-100.736
 21
1105.3
  0
LINE
  8
0
 10
-100.736
 20
1105.3
 11
-100.25
 21
1105.43
  0
LINE
  8
0
 10
-100.25
 20
1105.43
 11
-99.7512
 21
1105.49
  0
LINE
  8
0
 10
-99.7512
 20
1105.49
 11
99.7512
 21
1105.49
  0
LINE
  8
0
 10
99.7512
 20
1105.49
 11
100.25
 21
1105.43
  0
LINE
  8
0
 10
100.25
 20
1105.43
 11
100.736
 21
1105.3
  0
LINE
  8
0
 10
100.736
 20
1105.3
 11
101.203
 21
1105.12
  0
LINE
  8
0
 10
101.203
 20
1105.12
 11
101.643
 21
1104.88
  0
LINE
  8
0
 10
101.643
 20
1104.88
 11
102.05
 21
1104.58
  0
LINE
  8
0
 10
102.05
 20
1104.58
 11
102.416
 21
1104.24
  0
LINE
  8
0
 10
102.416
 20
1104.24
 11
102.736
 21
1103.85
  0
LINE
  8
0
 10
102.736
 20
1103.85
 11
103.005
 21
1103.43
  0
LINE
  8
0
 10
103.005
 20
1103.43
 11
103.219
 21
1102.97
  0
LINE
  8
0
 10
103.219
 20
1102.97
 11
103.374
 21
1102.49
  0
LINE
  8
0
 10
103.374
 20
1102.49
 11
103.468
 21
1102
  0
LINE
  8
0
 10
103.468
 20
1102
 11
103.5
 21
1101.5
  0
LINE
  8
0
 10
103.5
 20
1101.5
 11
103.5
 21
1082.5
  0
LINE
  8
0
 10
103.5
 20
1082.5
 11
103.468
 21
1082
  0
LINE
  8
0
 10
103.468
 20
1082
 11
103.374
 21
1081.51
  0
LINE
  8
0
 10
103.374
 20
1081.51
 11
103.219
 21
1081.03
  0
LINE
  8
0
 10
103.219
 20
1081.03
 11
103.005
 21
1080.57
  0
LINE
  8
0
 10
103.005
 20
1080.57
 11
102.736
 21
1080.15
  0
LINE
  8
0
 10
102.736
 20
1080.15
 11
102.416
 21
1079.76
  0
LINE
  8
0
 10
102.416
 20
1079.76
 11
102.05
 21
1079.42
  0
LINE
  8
0
 10
102.05
 20
1079.42
 11
101.643
 21
1079.12
  0
LINE
  8
0
 10
101.643
 20
1079.12
 11
101.203
 21
1078.88
  0
LINE
  8
0
 10
101.203
 20
1078.88
 11
100.736
 21
1078.7
  0
LINE
  8
0
 10
100.736
 20
1078.7
 11
100.25
 21
1078.57
  0
LINE
  8
0
 10
100.25
 20
1078.57
 11
99.7512
 21
1078.51
  0
LINE
  8
0
 10
99.7512
 20
1078.51
 11
-99.7512
 21
1078.51
  0
LINE
  8
0
 10
100.937
 20
1038.09
 11
101.545
 21
1038.24
  0
LINE
  8
0
 10
101.545
 20
1038.24
 11
102.129
 21
1038.48
  0
LINE
  8
0
 10
102.129
 20
1038.48
 11
102.679
 21
1038.78
  0
LINE
  8
0
 10
102.679
 20
1038.78
 11
103.187
 21
1039.15
  0
LINE
  8
0
 10
103.187
 20
1039.15
 11
103.645
 21
1039.58
  0
LINE
  8
0
 10
103.645
 20
1039.58
 11
104.045
 21
1040.06
  0
LINE
  8
0
 10
104.045
 20
1040.06
 11
104.382
 21
1040.59
  0
LINE
  8
0
 10
104.382
 20
1040.59
 11
104.649
 21
1041.16
  0
LINE
  8
0
 10
104.649
 20
1041.16
 11
104.843
 21
1041.76
  0
LINE
  8
0
 10
104.843
 20
1041.76
 11
104.961
 21
1042.37
  0
LINE
  8
0
 10
104.961
 20
1042.37
 11
105
 21
1043
  0
LINE
  8
0
 10
105
 20
1043
 11
105
 21
1063
  0
LINE
  8
0
 10
105
 20
1063
 11
104.961
 21
1063.63
  0
LINE
  8
0
 10
104.961
 20
1063.63
 11
104.843
 21
1064.24
  0
LINE
  8
0
 10
104.843
 20
1064.24
 11
104.649
 21
1064.84
  0
LINE
  8
0
 10
104.649
 20
1064.84
 11
104.382
 21
1065.41
  0
LINE
  8
0
 10
104.382
 20
1065.41
 11
104.045
 21
1065.94
  0
LINE
  8
0
 10
104.045
 20
1065.94
 11
103.645
 21
1066.42
  0
LINE
  8
0
 10
103.645
 20
1066.42
 11
103.187
 21
1066.85
  0
LINE
  8
0
 10
103.187
 20
1066.85
 11
102.679
 21
1067.22
  0
LINE
  8
0
 10
102.679
 20
1067.22
 11
102.129
 21
1067.52
  0
LINE
  8
0
 10
102.129
 20
1067.52
 11
101.545
 21
1067.76
  0
LINE
  8
0
 10
101.545
 20
1067.76
 11
100.937
 21
1067.91
  0
LINE
  8
0
 10
100.937
 20
1067.91
 11
100.314
 21
1067.99
  0
LINE
  8
0
 10
100.314
 20
1067.99
 11
-100.314
 21
1067.99
  0
LINE
  8
0
 10
-100.314
 20
1067.99
 11
-100.937
 21
1067.91
  0
LINE
  8
0
 10
-100.937
 20
1067.91
 11
-101.545
 21
1067.76
  0
LINE
  8
0
 10
-101.545
 20
1067.76
 11
-102.129
 21
1067.52
  0
LINE
  8
0
 10
-102.129
 20
1067.52
 11
-102.679
 21
1067.22
  0
LINE
  8
0
 10
-102.679
 20
1067.22
 11
-103.187
 21
1066.85
  0
LINE
  8
0
 10
-103.187
 20
1066.85
 11
-103.645
 21
1066.42
  0
LINE
  8
0
 10
-103.645
 20
1066.42
 11
-104.045
 21
1065.94
  0
LINE
  8
0
 10
-104.045
 20
1065.94
 11
-104.382
 21
1065.41
  0
LINE
  8
0
 10
-104.382
 20
1065.41
 11
-104.649
 21
1064.84
  0
LINE
  8
0
 10
-104.649
 20
1064.84
 11
-104.843
 21
1064.24
  0
LINE
  8
0
 10
-104.843
 20
1064.24
 11
-104.961
 21
1063.63
  0
LINE
  8
0
 10
-104.961
 20
1063.63
 11
-105
 21
1063
  0
LINE
  8
0
 10
-105
 20
1063
 11
-105
 21
1043
  0
LINE
  8
0
 10
-105
 20
1043
 11
-104.961
 21
1042.37
  0
LINE
  8
0
 10
-104.961
 20
1042.37
 11
-104.843
 21
1041.76
  0
LINE
  8
0
 10
-104.843
 20
1041.76
 11
-104.649
 21
1041.16
  0
LINE
  8
0
 10
-104.649
 20
1041.16
 11
-104.382
 21
1040.59
  0
LINE
  8
0
 10
-104.382
 20
1040.59
 11
-104.045
 21
1040.06
  0
LINE
  8
0
 10
-104.045
 20
1040.06
 11
-103.645
 21
1039.58
  0
LINE
  8
0
 10
-103.645
 20
1039.58
 11
-103.187
 21
1039.15
  0
LINE
  8
0
 10
-103.187
 20
1039.15
 11
-102.679
 21
1038.78
  0
LINE
  8
0
 10
-102.679
 20
1038.78
 11
-102.129
 21
1038.48
  0
LINE
  8
0
 10
-102.129
 20
1038.48
 11
-101.545
 21
1038.24
  0
LINE
  8
0
 10
-101.545
 20
1038.24
 11
-100.937
 21
1038.09
  0
LINE
  8
0
 10
-100.937
 20
1038.09
 11
-100.314
 21
1038.01
  0
LINE
  8
0
 10
-100.314
 20
1038.01
 11
100.314
 21
1038.01
  0
LINE
  8
0
 10
100.314
 20
1038.01
 11
100.937
 21
1038.09
  0
LINE
  8
0
 10
-99.7512
 20
1039.51
 11
-100.25
 21
1039.57
  0
LINE
  8
0
 10
-100.25
 20
1039.57
 11
-100.736
 21
1039.7
  0
LINE
  8
0
 10
-100.736
 20
1039.7
 11
-101.203
 21
1039.88
  0
LINE
  8
0
 10
-101.203
 20
1039.88
 11
-101.643
 21
1040.12
  0
LINE
  8
0
 10
-101.643
 20
1040.12
 11
-102.05
 21
1040.42
  0
LINE
  8
0
 10
-102.05
 20
1040.42
 11
-102.416
 21
1040.76
  0
LINE
  8
0
 10
-102.416
 20
1040.76
 11
-102.736
 21
1041.15
  0
LINE
  8
0
 10
-102.736
 20
1041.15
 11
-103.005
 21
1041.57
  0
LINE
  8
0
 10
-103.005
 20
1041.57
 11
-103.219
 21
1042.03
  0
LINE
  8
0
 10
-103.219
 20
1042.03
 11
-103.374
 21
1042.51
  0
LINE
  8
0
 10
-103.374
 20
1042.51
 11
-103.468
 21
1043
  0
LINE
  8
0
 10
-103.468
 20
1043
 11
-103.5
 21
1043.5
  0
LINE
  8
0
 10
-103.5
 20
1043.5
 11
-103.5
 21
1062.5
  0
LINE
  8
0
 10
-103.5
 20
1062.5
 11
-103.468
 21
1063
  0
LINE
  8
0
 10
-103.468
 20
1063
 11
-103.374
 21
1063.49
  0
LINE
  8
0
 10
-103.374
 20
1063.49
 11
-103.219
 21
1063.97
  0
LINE
  8
0
 10
-103.219
 20
1063.97
 11
-103.005
 21
1064.43
  0
LINE
  8
0
 10
-103.005
 20
1064.43
 11
-102.736
 21
1064.85
  0
LINE
  8
0
 10
-102.736
 20
1064.85
 11
-102.416
 21
1065.24
  0
LINE
  8
0
 10
-102.416
 20
1065.24
 11
-102.05
 21
1065.58
  0
LINE
  8
0
 10
-102.05
 20
1065.58
 11
-101.643
 21
1065.88
  0
LINE
  8
0
 10
-101.643
 20
1065.88
 11
-101.203
 21
1066.12
  0
LINE
  8
0
 10
-101.203
 20
1066.12
 11
-100.736
 21
1066.3
  0
LINE
  8
0
 10
-100.736
 20
1066.3
 11
-100.25
 21
1066.43
  0
LINE
  8
0
 10
-100.25
 20
1066.43
 11
-99.7512
 21
1066.49
  0
LINE
  8
0
 10
-99.7512
 20
1066.49
 11
99.7512
 21
1066.49
  0
LINE
  8
0
 10
99.7512
 20
1066.49
 11
100.25
 21
1066.43
  0
LINE
  8
0
 10
100.25
 20
1066.43
 11
100.736
 21
1066.3
  0
LINE
  8
0
 10
100.736
 20
1066.3
 11
101.203
 21
1066.12
  0
LINE
  8
0
 10
101.203
 20
1066.12
 11
101.643
 21
1065.88
  0
LINE
  8
0
 10
101.643
 20
1065.88
 11
102.05
 21
1065.58
  0
LINE
  8
0
 10
102.05
 20
1065.58
 11
102.416
 21
1065.24
  0
LINE
  8
0
 10
102.416
 20
1065.24
 11
102.736
 21
1064.85
  0
LINE
  8
0
 10
102.736
 20
1064.85
 11
103.005
 21
1064.43
  0
LINE
  8
0
 10
103.005
 20
1064.43
 11
103.219
 21
1063.97
  0
LINE
  8
0
 10
103.219
 20
1063.97
 11
103.374
 21
1063.49
  0
LINE
  8
0
 10
103.374
 20
1063.49
 11
103.468
 21
1063
  0
LINE
  8
0
 10
103.468
 20
1063
 11
103.5
 21
1062.5
  0
LINE
  8
0
 10
103.5
 20
1062.5
 11
103.5
 21
1043.5
  0
LINE
  8
0
 10
103.5
 20
1043.5
 11
103.468
 21
1043
  0
LINE
  8
0
 10
103.468
 20
1043
 11
103.374
 21
1042.51
  0
LINE
  8
0
 10
103.374
 20
1042.51
 11
103.219
 21
1042.03
  0
LINE
  8
0
 10
103.219
 20
1042.03
 11
103.005
 21
1041.57
  0
LINE
  8
0
 10
103.005
 20
1041.57
 11
102.736
 21
1041.15
  0
LINE
  8
0
 10
102.736
 20
1041.15
 11
102.416
 21
1040.76
  0
LINE
  8
0
 10
102.416
 20
1040.76
 11
102.05
 21
1040.42
  0
LINE
  8
0
 10
102.05
 20
1040.42
 11
101.643
 21
1040.12
  0
LINE
  8
0
 10
101.643
 20
1040.12
 11
101.203
 21
1039.88
  0
LINE
  8
0
 10
101.203
 20
1039.88
 11
100.736
 21
1039.7
  0
LINE
  8
0
 10
100.736
 20
1039.7
 11
100.25
 21
1039.57
  0
LINE
  8
0
 10
100.25
 20
1039.57
 11
99.7512
 21
1039.51
  0
LINE
  8
0
 10
99.7512
 20
1039.51
 11
-99.7512
 21
1039.51
  0
LINE
  8
0
 10
100.937
 20
999.089
 11
101.545
 21
999.245
  0
LINE
  8
0
 10
101.545
 20
999.245
 11
102.129
 21
999.476
  0
LINE
  8
0
 10
102.129
 20
999.476
 11
102.679
 21
999.778
  0
LINE
  8
0
 10
102.679
 20
999.778
 11
103.187
 21
1000.15
  0
LINE
  8
0
 10
103.187
 20
1000.15
 11
103.645
 21
1000.58
  0
LINE
  8
0
 10
103.645
 20
1000.58
 11
104.045
 21
1001.06
  0
LINE
  8
0
 10
104.045
 20
1001.06
 11
104.382
 21
1001.59
  0
LINE
  8
0
 10
104.382
 20
1001.59
 11
104.649
 21
1002.16
  0
LINE
  8
0
 10
104.649
 20
1002.16
 11
104.843
 21
1002.76
  0
LINE
  8
0
 10
104.843
 20
1002.76
 11
104.961
 21
1003.37
  0
LINE
  8
0
 10
104.961
 20
1003.37
 11
105
 21
1004
  0
LINE
  8
0
 10
105
 20
1004
 11
105
 21
1024
  0
LINE
  8
0
 10
105
 20
1024
 11
104.961
 21
1024.63
  0
LINE
  8
0
 10
104.961
 20
1024.63
 11
104.843
 21
1025.24
  0
LINE
  8
0
 10
104.843
 20
1025.24
 11
104.649
 21
1025.84
  0
LINE
  8
0
 10
104.649
 20
1025.84
 11
104.382
 21
1026.41
  0
LINE
  8
0
 10
104.382
 20
1026.41
 11
104.045
 21
1026.94
  0
LINE
  8
0
 10
104.045
 20
1026.94
 11
103.645
 21
1027.42
  0
LINE
  8
0
 10
103.645
 20
1027.42
 11
103.187
 21
1027.85
  0
LINE
  8
0
 10
103.187
 20
1027.85
 11
102.679
 21
1028.22
  0
LINE
  8
0
 10
102.679
 20
1028.22
 11
102.129
 21
1028.52
  0
LINE
  8
0
 10
102.129
 20
1028.52
 11
101.545
 21
1028.76
  0
LINE
  8
0
 10
101.545
 20
1028.76
 11
100.937
 21
1028.91
  0
LINE
  8
0
 10
100.937
 20
1028.91
 11
100.314
 21
1028.99
  0
LINE
  8
0
 10
100.314
 20
1028.99
 11
-100.314
 21
1028.99
  0
LINE
  8
0
 10
-100.314
 20
1028.99
 11
-100.937
 21
1028.91
  0
LINE
  8
0
 10
-100.937
 20
1028.91
 11
-101.545
 21
1028.76
  0
LINE
  8
0
 10
-101.545
 20
1028.76
 11
-102.129
 21
1028.52
  0
LINE
  8
0
 10
-102.129
 20
1028.52
 11
-102.679
 21
1028.22
  0
LINE
  8
0
 10
-102.679
 20
1028.22
 11
-103.187
 21
1027.85
  0
LINE
  8
0
 10
-103.187
 20
1027.85
 11
-103.645
 21
1027.42
  0
LINE
  8
0
 10
-103.645
 20
1027.42
 11
-104.045
 21
1026.94
  0
LINE
  8
0
 10
-104.045
 20
1026.94
 11
-104.382
 21
1026.41
  0
LINE
  8
0
 10
-104.382
 20
1026.41
 11
-104.649
 21
1025.84
  0
LINE
  8
0
 10
-104.649
 20
1025.84
 11
-104.843
 21
1025.24
  0
LINE
  8
0
 10
-104.843
 20
1025.24
 11
-104.961
 21
1024.63
  0
LINE
  8
0
 10
-104.961
 20
1024.63
 11
-105
 21
1024
  0
LINE
  8
0
 10
-105
 20
1024
 11
-105
 21
1004
  0
LINE
  8
0
 10
-105
 20
1004
 11
-104.961
 21
1003.37
  0
LINE
  8
0
 10
-104.961
 20
1003.37
 11
-104.843
 21
1002.76
  0
LINE
  8
0
 10
-104.843
 20
1002.76
 11
-104.649
 21
1002.16
  0
LINE
  8
0
 10
-104.649
 20
1002.16
 11
-104.382
 21
1001.59
  0
LINE
  8
0
 10
-104.382
 20
1001.59
 11
-104.045
 21
1001.06
  0
LINE
  8
0
 10
-104.045
 20
1001.06
 11
-103.645
 21
1000.58
  0
LINE
  8
0
 10
-103.645
 20
1000.58
 11
-103.187
 21
1000.15
  0
LINE
  8
0
 10
-103.187
 20
1000.15
 11
-102.679
 21
999.778
  0
LINE
  8
0
 10
-102.679
 20
999.778
 11
-102.129
 21
999.476
  0
LINE
  8
0
 10
-102.129
 20
999.476
 11
-101.545
 21
999.245
  0
LINE
  8
0
 10
-101.545
 20
999.245
 11
-100.937
 21
999.089
  0
LINE
  8
0
 10
-100.937
 20
999.089
 11
-100.314
 21
999.01
  0
LINE
  8
0
 10
-100.314
 20
999.01
 11
100.314
 21
999.01
  0
LINE
  8
0
 10
100.314
 20
999.01
 11
100.937
 21
999.089
  0
LINE
  8
0
 10
-99.7512
 20
1000.51
 11
-100.25
 21
1000.57
  0
LINE
  8
0
 10
-100.25
 20
1000.57
 11
-100.736
 21
1000.7
  0
LINE
  8
0
 10
-100.736
 20
1000.7
 11
-101.203
 21
1000.88
  0
LINE
  8
0
 10
-101.203
 20
1000.88
 11
-101.643
 21
1001.12
  0
LINE
  8
0
 10
-101.643
 20
1001.12
 11
-102.05
 21
1001.42
  0
LINE
  8
0
 10
-102.05
 20
1001.42
 11
-102.416
 21
1001.76
  0
LINE
  8
0
 10
-102.416
 20
1001.76
 11
-102.736
 21
1002.15
  0
LINE
  8
0
 10
-102.736
 20
1002.15
 11
-103.005
 21
1002.57
  0
LINE
  8
0
 10
-103.005
 20
1002.57
 11
-103.219
 21
1003.03
  0
LINE
  8
0
 10
-103.219
 20
1003.03
 11
-103.374
 21
1003.51
  0
LINE
  8
0
 10
-103.374
 20
1003.51
 11
-103.468
 21
1004
  0
LINE
  8
0
 10
-103.468
 20
1004
 11
-103.5
 21
1004.5
  0
LINE
  8
0
 10
-103.5
 20
1004.5
 11
-103.5
 21
1023.5
  0
LINE
  8
0
 10
-103.5
 20
1023.5
 11
-103.468
 21
1024
  0
LINE
  8
0
 10
-103.468
 20
1024
 11
-103.374
 21
1024.49
  0
LINE
  8
0
 10
-103.374
 20
1024.49
 11
-103.219
 21
1024.97
  0
LINE
  8
0
 10
-103.219
 20
1024.97
 11
-103.005
 21
1025.43
  0
LINE
  8
0
 10
-103.005
 20
1025.43
 11
-102.736
 21
1025.85
  0
LINE
  8
0
 10
-102.736
 20
1025.85
 11
-102.416
 21
1026.24
  0
LINE
  8
0
 10
-102.416
 20
1026.24
 11
-102.05
 21
1026.58
  0
LINE
  8
0
 10
-102.05
 20
1026.58
 11
-101.643
 21
1026.88
  0
LINE
  8
0
 10
-101.643
 20
1026.88
 11
-101.203
 21
1027.12
  0
LINE
  8
0
 10
-101.203
 20
1027.12
 11
-100.736
 21
1027.3
  0
LINE
  8
0
 10
-100.736
 20
1027.3
 11
-100.25
 21
1027.43
  0
LINE
  8
0
 10
-100.25
 20
1027.43
 11
-99.7512
 21
1027.49
  0
LINE
  8
0
 10
-99.7512
 20
1027.49
 11
99.7512
 21
1027.49
  0
LINE
  8
0
 10
99.7512
 20
1027.49
 11
100.25
 21
1027.43
  0
LINE
  8
0
 10
100.25
 20
1027.43
 11
100.736
 21
1027.3
  0
LINE
  8
0
 10
100.736
 20
1027.3
 11
101.203
 21
1027.12
  0
LINE
  8
0
 10
101.203
 20
1027.12
 11
101.643
 21
1026.88
  0
LINE
  8
0
 10
101.643
 20
1026.88
 11
102.05
 21
1026.58
  0
LINE
  8
0
 10
102.05
 20
1026.58
 11
102.416
 21
1026.24
  0
LINE
  8
0
 10
102.416
 20
1026.24
 11
102.736
 21
1025.85
  0
LINE
  8
0
 10
102.736
 20
1025.85
 11
103.005
 21
1025.43
  0
LINE
  8
0
 10
103.005
 20
1025.43
 11
103.219
 21
1024.97
  0
LINE
  8
0
 10
103.219
 20
1024.97
 11
103.374
 21
1024.49
  0
LINE
  8
0
 10
103.374
 20
1024.49
 11
103.468
 21
1024
  0
LINE
  8
0
 10
103.468
 20
1024
 11
103.5
 21
1023.5
  0
LINE
  8
0
 10
103.5
 20
1023.5
 11
103.5
 21
1004.5
  0
LINE
  8
0
 10
103.5
 20
1004.5
 11
103.468
 21
1004
  0
LINE
  8
0
 10
103.468
 20
1004
 11
103.374
 21
1003.51
  0
LINE
  8
0
 10
103.374
 20
1003.51
 11
103.219
 21
1003.03
  0
LINE
  8
0
 10
103.219
 20
1003.03
 11
103.005
 21
1002.57
  0
LINE
  8
0
 10
103.005
 20
1002.57
 11
102.736
 21
1002.15
  0
LINE
  8
0
 10
102.736
 20
1002.15
 11
102.416
 21
1001.76
  0
LINE
  8
0
 10
102.416
 20
1001.76
 11
102.05
 21
1001.42
  0
LINE
  8
0
 10
102.05
 20
1001.42
 11
101.643
 21
1001.12
  0
LINE
  8
0
 10
101.643
 20
1001.12
 11
101.203
 21
1000.88
  0
LINE
  8
0
 10
101.203
 20
1000.88
 11
100.736
 21
1000.7
  0
LINE
  8
0
 10
100.736
 20
1000.7
 11
100.25
 21
1000.57
  0
LINE
  8
0
 10
100.25
 20
1000.57
 11
99.7512
 21
1000.51
  0
LINE
  8
0
 10
99.7512
 20
1000.51
 11
-99.7512
 21
1000.51
  0
LINE
  8
0
 10
100.937
 20
960.089
 11
101.545
 21
960.245
  0
LINE
  8
0
 10
101.545
 20
960.245
 11
102.129
 21
960.476
  0
LINE
  8
0
 10
102.129
 20
960.476
 11
102.679
 21
960.778
  0
LINE
  8
0
 10
102.679
 20
960.778
 11
103.187
 21
961.147
  0
LINE
  8
0
 10
103.187
 20
961.147
 11
103.645
 21
961.577
  0
LINE
  8
0
 10
103.645
 20
961.577
 11
104.045
 21
962.061
  0
LINE
  8
0
 10
104.045
 20
962.061
 11
104.382
 21
962.591
  0
LINE
  8
0
 10
104.382
 20
962.591
 11
104.649
 21
963.159
  0
LINE
  8
0
 10
104.649
 20
963.159
 11
104.843
 21
963.757
  0
LINE
  8
0
 10
104.843
 20
963.757
 11
104.961
 21
964.373
  0
LINE
  8
0
 10
104.961
 20
964.373
 11
105
 21
965
  0
LINE
  8
0
 10
105
 20
965
 11
105
 21
985
  0
LINE
  8
0
 10
105
 20
985
 11
104.961
 21
985.627
  0
LINE
  8
0
 10
104.961
 20
985.627
 11
104.843
 21
986.243
  0
LINE
  8
0
 10
104.843
 20
986.243
 11
104.649
 21
986.841
  0
LINE
  8
0
 10
104.649
 20
986.841
 11
104.382
 21
987.409
  0
LINE
  8
0
 10
104.382
 20
987.409
 11
104.045
 21
987.939
  0
LINE
  8
0
 10
104.045
 20
987.939
 11
103.645
 21
988.423
  0
LINE
  8
0
 10
103.645
 20
988.423
 11
103.187
 21
988.853
  0
LINE
  8
0
 10
103.187
 20
988.853
 11
102.679
 21
989.222
  0
LINE
  8
0
 10
102.679
 20
989.222
 11
102.129
 21
989.524
  0
LINE
  8
0
 10
102.129
 20
989.524
 11
101.545
 21
989.755
  0
LINE
  8
0
 10
101.545
 20
989.755
 11
100.937
 21
989.911
  0
LINE
  8
0
 10
100.937
 20
989.911
 11
100.314
 21
989.99
  0
LINE
  8
0
 10
100.314
 20
989.99
 11
-100.314
 21
989.99
  0
LINE
  8
0
 10
-100.314
 20
989.99
 11
-100.937
 21
989.911
  0
LINE
  8
0
 10
-100.937
 20
989.911
 11
-101.545
 21
989.755
  0
LINE
  8
0
 10
-101.545
 20
989.755
 11
-102.129
 21
989.524
  0
LINE
  8
0
 10
-102.129
 20
989.524
 11
-102.679
 21
989.222
  0
LINE
  8
0
 10
-102.679
 20
989.222
 11
-103.187
 21
988.853
  0
LINE
  8
0
 10
-103.187
 20
988.853
 11
-103.645
 21
988.423
  0
LINE
  8
0
 10
-103.645
 20
988.423
 11
-104.045
 21
987.939
  0
LINE
  8
0
 10
-104.045
 20
987.939
 11
-104.382
 21
987.409
  0
LINE
  8
0
 10
-104.382
 20
987.409
 11
-104.649
 21
986.841
  0
LINE
  8
0
 10
-104.649
 20
986.841
 11
-104.843
 21
986.243
  0
LINE
  8
0
 10
-104.843
 20
986.243
 11
-104.961
 21
985.627
  0
LINE
  8
0
 10
-104.961
 20
985.627
 11
-105
 21
985
  0
LINE
  8
0
 10
-105
 20
985
 11
-105
 21
965
  0
LINE
  8
0
 10
-105
 20
965
 11
-104.961
 21
964.373
  0
LINE
  8
0
 10
-104.961
 20
964.373
 11
-104.843
 21
963.757
  0
LINE
  8
0
 10
-104.843
 20
963.757
 11
-104.649
 21
963.159
  0
LINE
  8
0
 10
-104.649
 20
963.159
 11
-104.382
 21
962.591
  0
LINE
  8
0
 10
-104.382
 20
962.591
 11
-104.045
 21
962.061
  0
LINE
  8
0
 10
-104.045
 20
962.061
 11
-103.645
 21
961.577
  0
LINE
  8
0
 10
-103.645
 20
961.577
 11
-103.187
 21
961.147
  0
LINE
  8
0
 10
-103.187
 20
961.147
 11
-102.679
 21
960.778
  0
LINE
  8
0
 10
-102.679
 20
960.778
 11
-102.129
 21
960.476
  0
LINE
  8
0
 10
-102.129
 20
960.476
 11
-101.545
 21
960.245
  0
LINE
  8
0
 10
-101.545
 20
960.245
 11
-100.937
 21
960.089
  0
LINE
  8
0
 10
-100.937
 20
960.089
 11
-100.314
 21
960.01
  0
LINE
  8
0
 10
-100.314
 20
960.01
 11
100.314
 21
960.01
  0
LINE
  8
0
 10
100.314
 20
960.01
 11
100.937
 21
960.089
  0
LINE
  8
0
 10
-99.7512
 20
961.508
 11
-100.25
 21
961.571
  0
LINE
  8
0
 10
-100.25
 20
961.571
 11
-100.736
 21
961.696
  0
LINE
  8
0
 10
-100.736
 20
961.696
 11
-101.203
 21
961.881
  0
LINE
  8
0
 10
-101.203
 20
961.881
 11
-101.643
 21
962.123
  0
LINE
  8
0
 10
-101.643
 20
962.123
 11
-102.05
 21
962.418
  0
LINE
  8
0
 10
-102.05
 20
962.418
 11
-102.416
 21
962.762
  0
LINE
  8
0
 10
-102.416
 20
962.762
 11
-102.736
 21
963.149
  0
LINE
  8
0
 10
-102.736
 20
963.149
 11
-103.005
 21
963.573
  0
LINE
  8
0
 10
-103.005
 20
963.573
 11
-103.219
 21
964.028
  0
LINE
  8
0
 10
-103.219
 20
964.028
 11
-103.374
 21
964.505
  0
LINE
  8
0
 10
-103.374
 20
964.505
 11
-103.468
 21
964.999
  0
LINE
  8
0
 10
-103.468
 20
964.999
 11
-103.5
 21
965.5
  0
LINE
  8
0
 10
-103.5
 20
965.5
 11
-103.5
 21
984.5
  0
LINE
  8
0
 10
-103.5
 20
984.5
 11
-103.468
 21
985.001
  0
LINE
  8
0
 10
-103.468
 20
985.001
 11
-103.374
 21
985.495
  0
LINE
  8
0
 10
-103.374
 20
985.495
 11
-103.219
 21
985.972
  0
LINE
  8
0
 10
-103.219
 20
985.972
 11
-103.005
 21
986.427
  0
LINE
  8
0
 10
-103.005
 20
986.427
 11
-102.736
 21
986.851
  0
LINE
  8
0
 10
-102.736
 20
986.851
 11
-102.416
 21
987.238
  0
LINE
  8
0
 10
-102.416
 20
987.238
 11
-102.05
 21
987.582
  0
LINE
  8
0
 10
-102.05
 20
987.582
 11
-101.643
 21
987.877
  0
LINE
  8
0
 10
-101.643
 20
987.877
 11
-101.203
 21
988.119
  0
LINE
  8
0
 10
-101.203
 20
988.119
 11
-100.736
 21
988.304
  0
LINE
  8
0
 10
-100.736
 20
988.304
 11
-100.25
 21
988.429
  0
LINE
  8
0
 10
-100.25
 20
988.429
 11
-99.7512
 21
988.492
  0
LINE
  8
0
 10
-99.7512
 20
988.492
 11
99.7512
 21
988.492
  0
LINE
  8
0
 10
99.7512
 20
988.492
 11
100.25
 21
988.429
  0
LINE
  8
0
 10
100.25
 20
988.429
 11
100.736
 21
988.304
  0
LINE
  8
0
 10
100.736
 20
988.304
 11
101.203
 21
988.119
  0
LINE
  8
0
 10
101.203
 20
988.119
 11
101.643
 21
987.877
  0
LINE
  8
0
 10
101.643
 20
987.877
 11
102.05
 21
987.582
  0
LINE
  8
0
 10
102.05
 20
987.582
 11
102.416
 21
987.238
  0
LINE
  8
0
 10
102.416
 20
987.238
 11
102.736
 21
986.851
  0
LINE
  8
0
 10
102.736
 20
986.851
 11
103.005
 21
986.427
  0
LINE
  8
0
 10
103.005
 20
986.427
 11
103.219
 21
985.972
  0
LINE
  8
0
 10
103.219
 20
985.972
 11
103.374
 21
985.495
  0
LINE
  8
0
 10
103.374
 20
985.495
 11
103.468
 21
985.001
  0
LINE
  8
0
 10
103.468
 20
985.001
 11
103.5
 21
984.5
  0
LINE
  8
0
 10
103.5
 20
984.5
 11
103.5
 21
965.5
  0
LINE
  8
0
 10
103.5
 20
965.5
 11
103.468
 21
964.999
  0
LINE
  8
0
 10
103.468
 20
964.999
 11
103.374
 21
964.505
  0
LINE
  8
0
 10
103.374
 20
964.505
 11
103.219
 21
964.028
  0
LINE
  8
0
 10
103.219
 20
964.028
 11
103.005
 21
963.573
  0
LINE
  8
0
 10
103.005
 20
963.573
 11
102.736
 21
963.149
  0
LINE
  8
0
 10
102.736
 20
963.149
 11
102.416
 21
962.762
  0
LINE
  8
0
 10
102.416
 20
962.762
 11
102.05
 21
962.418
  0
LINE
  8
0
 10
102.05
 20
962.418
 11
101.643
 21
962.123
  0
LINE
  8
0
 10
101.643
 20
962.123
 11
101.203
 21
961.881
  0
LINE
  8
0
 10
101.203
 20
961.881
 11
100.736
 21
961.696
  0
LINE
  8
0
 10
100.736
 20
961.696
 11
100.25
 21
961.571
  0
LINE
  8
0
 10
100.25
 20
961.571
 11
99.7512
 21
961.508
  0
LINE
  8
0
 10
99.7512
 20
961.508
 11
-99.7512
 21
961.508
  0
LINE
  8
0
 10
100.937
 20
921.089
 11
101.545
 21
921.245
  0
LINE
  8
0
 10
101.545
 20
921.245
 11
102.129
 21
921.476
  0
LINE
  8
0
 10
102.129
 20
921.476
 11
102.679
 21
921.778
  0
LINE
  8
0
 10
102.679
 20
921.778
 11
103.187
 21
922.147
  0
LINE
  8
0
 10
103.187
 20
922.147
 11
103.645
 21
922.577
  0
LINE
  8
0
 10
103.645
 20
922.577
 11
104.045
 21
923.061
  0
LINE
  8
0
 10
104.045
 20
923.061
 11
104.382
 21
923.591
  0
LINE
  8
0
 10
104.382
 20
923.591
 11
104.649
 21
924.159
  0
LINE
  8
0
 10
104.649
 20
924.159
 11
104.843
 21
924.757
  0
LINE
  8
0
 10
104.843
 20
924.757
 11
104.961
 21
925.373
  0
LINE
  8
0
 10
104.961
 20
925.373
 11
105
 21
926
  0
LINE
  8
0
 10
105
 20
926
 11
105
 21
946
  0
LINE
  8
0
 10
105
 20
946
 11
104.961
 21
946.627
  0
LINE
  8
0
 10
104.961
 20
946.627
 11
104.843
 21
947.243
  0
LINE
  8
0
 10
104.843
 20
947.243
 11
104.649
 21
947.841
  0
LINE
  8
0
 10
104.649
 20
947.841
 11
104.382
 21
948.409
  0
LINE
  8
0
 10
104.382
 20
948.409
 11
104.045
 21
948.939
  0
LINE
  8
0
 10
104.045
 20
948.939
 11
103.645
 21
949.423
  0
LINE
  8
0
 10
103.645
 20
949.423
 11
103.187
 21
949.853
  0
LINE
  8
0
 10
103.187
 20
949.853
 11
102.679
 21
950.222
  0
LINE
  8
0
 10
102.679
 20
950.222
 11
102.129
 21
950.524
  0
LINE
  8
0
 10
102.129
 20
950.524
 11
101.545
 21
950.755
  0
LINE
  8
0
 10
101.545
 20
950.755
 11
100.937
 21
950.911
  0
LINE
  8
0
 10
100.937
 20
950.911
 11
100.314
 21
950.99
  0
LINE
  8
0
 10
100.314
 20
950.99
 11
-100.314
 21
950.99
  0
LINE
  8
0
 10
-100.314
 20
950.99
 11
-100.937
 21
950.911
  0
LINE
  8
0
 10
-100.937
 20
950.911
 11
-101.545
 21
950.755
  0
LINE
  8
0
 10
-101.545
 20
950.755
 11
-102.129
 21
950.524
  0
LINE
  8
0
 10
-102.129
 20
950.524
 11
-102.679
 21
950.222
  0
LINE
  8
0
 10
-102.679
 20
950.222
 11
-103.187
 21
949.853
  0
LINE
  8
0
 10
-103.187
 20
949.853
 11
-103.645
 21
949.423
  0
LINE
  8
0
 10
-103.645
 20
949.423
 11
-104.045
 21
948.939
  0
LINE
  8
0
 10
-104.045
 20
948.939
 11
-104.382
 21
948.409
  0
LINE
  8
0
 10
-104.382
 20
948.409
 11
-104.649
 21
947.841
  0
LINE
  8
0
 10
-104.649
 20
947.841
 11
-104.843
 21
947.243
  0
LINE
  8
0
 10
-104.843
 20
947.243
 11
-104.961
 21
946.627
  0
LINE
  8
0
 10
-104.961
 20
946.627
 11
-105
 21
946
  0
LINE
  8
0
 10
-105
 20
946
 11
-105
 21
926
  0
LINE
  8
0
 10
-105
 20
926
 11
-104.961
 21
925.373
  0
LINE
  8
0
 10
-104.961
 20
925.373
 11
-104.843
 21
924.757
  0
LINE
  8
0
 10
-104.843
 20
924.757
 11
-104.649
 21
924.159
  0
LINE
  8
0
 10
-104.649
 20
924.159
 11
-104.382
 21
923.591
  0
LINE
  8
0
 10
-104.382
 20
923.591
 11
-104.045
 21
923.061
  0
LINE
  8
0
 10
-104.045
 20
923.061
 11
-103.645
 21
922.577
  0
LINE
  8
0
 10
-103.645
 20
922.577
 11
-103.187
 21
922.147
  0
LINE
  8
0
 10
-103.187
 20
922.147
 11
-102.679
 21
921.778
  0
LINE
  8
0
 10
-102.679
 20
921.778
 11
-102.129
 21
921.476
  0
LINE
  8
0
 10
-102.129
 20
921.476
 11
-101.545
 21
921.245
  0
LINE
  8
0
 10
-101.545
 20
921.245
 11
-100.937
 21
921.089
  0
LINE
  8
0
 10
-100.937
 20
921.089
 11
-100.314
 21
921.01
  0
LINE
  8
0
 10
-100.314
 20
921.01
 11
100.314
 21
921.01
  0
LINE
  8
0
 10
100.314
 20
921.01
 11
100.937
 21
921.089
  0
LINE
  8
0
 10
-99.7512
 20
922.508
 11
-100.25
 21
922.571
  0
LINE
  8
0
 10
-100.25
 20
922.571
 11
-100.736
 21
922.696
  0
LINE
  8
0
 10
-100.736
 20
922.696
 11
-101.203
 21
922.881
  0
LINE
  8
0
 10
-101.203
 20
922.881
 11
-101.643
 21
923.123
  0
LINE
  8
0
 10
-101.643
 20
923.123
 11
-102.05
 21
923.418
  0
LINE
  8
0
 10
-102.05
 20
923.418
 11
-102.416
 21
923.762
  0
LINE
  8
0
 10
-102.416
 20
923.762
 11
-102.736
 21
924.149
  0
LINE
  8
0
 10
-102.736
 20
924.149
 11
-103.005
 21
924.573
  0
LINE
  8
0
 10
-103.005
 20
924.573
 11
-103.219
 21
925.028
  0
LINE
  8
0
 10
-103.219
 20
925.028
 11
-103.374
 21
925.505
  0
LINE
  8
0
 10
-103.374
 20
925.505
 11
-103.468
 21
925.999
  0
LINE
  8
0
 10
-103.468
 20
925.999
 11
-103.5
 21
926.5
  0
LINE
  8
0
 10
-103.5
 20
926.5
 11
-103.5
 21
945.5
  0
LINE
  8
0
 10
-103.5
 20
945.5
 11
-103.468
 21
946.001
  0
LINE
  8
0
 10
-103.468
 20
946.001
 11
-103.374
 21
946.495
  0
LINE
  8
0
 10
-103.374
 20
946.495
 11
-103.219
 21
946.972
  0
LINE
  8
0
 10
-103.219
 20
946.972
 11
-103.005
 21
947.427
  0
LINE
  8
0
 10
-103.005
 20
947.427
 11
-102.736
 21
947.851
  0
LINE
  8
0
 10
-102.736
 20
947.851
 11
-102.416
 21
948.238
  0
LINE
  8
0
 10
-102.416
 20
948.238
 11
-102.05
 21
948.582
  0
LINE
  8
0
 10
-102.05
 20
948.582
 11
-101.643
 21
948.877
  0
LINE
  8
0
 10
-101.643
 20
948.877
 11
-101.203
 21
949.119
  0
LINE
  8
0
 10
-101.203
 20
949.119
 11
-100.736
 21
949.304
  0
LINE
  8
0
 10
-100.736
 20
949.304
 11
-100.25
 21
949.429
  0
LINE
  8
0
 10
-100.25
 20
949.429
 11
-99.7512
 21
949.492
  0
LINE
  8
0
 10
-99.7512
 20
949.492
 11
99.7512
 21
949.492
  0
LINE
  8
0
 10
99.7512
 20
949.492
 11
100.25
 21
949.429
  0
LINE
  8
0
 10
100.25
 20
949.429
 11
100.736
 21
949.304
  0
LINE
  8
0
 10
100.736
 20
949.304
 11
101.203
 21
949.119
  0
LINE
  8
0
 10
101.203
 20
949.119
 11
101.643
 21
948.877
  0
LINE
  8
0
 10
101.643
 20
948.877
 11
102.05
 21
948.582
  0
LINE
  8
0
 10
102.05
 20
948.582
 11
102.416
 21
948.238
  0
LINE
  8
0
 10
102.416
 20
948.238
 11
102.736
 21
947.851
  0
LINE
  8
0
 10
102.736
 20
947.851
 11
103.005
 21
947.427
  0
LINE
  8
0
 10
103.005
 20
947.427
 11
103.219
 21
946.972
  0
LINE
  8
0
 10
103.219
 20
946.972
 11
103.374
 21
946.495
  0
LINE
  8
0
 10
103.374
 20
946.495
 11
103.468
 21
946.001
  0
LINE
  8
0
 10
103.468
 20
946.001
 11
103.5
 21
945.5
  0
LINE
  8
0
 10
103.5
 20
945.5
 11
103.5
 21
926.5
  0
LINE
  8
0
 10
103.5
 20
926.5
 11
103.468
 21
925.999
  0
LINE
  8
0
 10
103.468
 20
925.999
 11
103.374
 21
925.505
  0
LINE
  8
0
 10
103.374
 20
925.505
 11
103.219
 21
925.028
  0
LINE
  8
0
 10
103.219
 20
925.028
 11
103.005
 21
924.573
  0
LINE
  8
0
 10
103.005
 20
924.573
 11
102.736
 21
924.149
  0
LINE
  8
0
 10
102.736
 20
924.149
 11
102.416
 21
923.762
  0
LINE
  8
0
 10
102.416
 20
923.762
 11
102.05
 21
923.418
  0
LINE
  8
0
 10
102.05
 20
923.418
 11
101.643
 21
923.123
  0
LINE
  8
0
 10
101.643
 20
923.123
 11
101.203
 21
922.881
  0
LINE
  8
0
 10
101.203
 20
922.881
 11
100.736
 21
922.696
  0
LINE
  8
0
 10
100.736
 20
922.696
 11
100.25
 21
922.571
  0
LINE
  8
0
 10
100.25
 20
922.571
 11
99.7512
 21
922.508
  0
LINE
  8
0
 10
99.7512
 20
922.508
 11
-99.7512
 21
922.508
  0
LINE
  8
0
 10
100.937
 20
882.089
 11
101.545
 21
882.245
  0
LINE
  8
0
 10
101.545
 20
882.245
 11
102.129
 21
882.476
  0
LINE
  8
0
 10
102.129
 20
882.476
 11
102.679
 21
882.778
  0
LINE
  8
0
 10
102.679
 20
882.778
 11
103.187
 21
883.147
  0
LINE
  8
0
 10
103.187
 20
883.147
 11
103.645
 21
883.577
  0
LINE
  8
0
 10
103.645
 20
883.577
 11
104.045
 21
884.061
  0
LINE
  8
0
 10
104.045
 20
884.061
 11
104.382
 21
884.591
  0
LINE
  8
0
 10
104.382
 20
884.591
 11
104.649
 21
885.159
  0
LINE
  8
0
 10
104.649
 20
885.159
 11
104.843
 21
885.757
  0
LINE
  8
0
 10
104.843
 20
885.757
 11
104.961
 21
886.373
  0
LINE
  8
0
 10
104.961
 20
886.373
 11
105
 21
887
  0
LINE
  8
0
 10
105
 20
887
 11
105
 21
907
  0
LINE
  8
0
 10
105
 20
907
 11
104.961
 21
907.627
  0
LINE
  8
0
 10
104.961
 20
907.627
 11
104.843
 21
908.243
  0
LINE
  8
0
 10
104.843
 20
908.243
 11
104.649
 21
908.841
  0
LINE
  8
0
 10
104.649
 20
908.841
 11
104.382
 21
909.409
  0
LINE
  8
0
 10
104.382
 20
909.409
 11
104.045
 21
909.939
  0
LINE
  8
0
 10
104.045
 20
909.939
 11
103.645
 21
910.423
  0
LINE
  8
0
 10
103.645
 20
910.423
 11
103.187
 21
910.853
  0
LINE
  8
0
 10
103.187
 20
910.853
 11
102.679
 21
911.222
  0
LINE
  8
0
 10
102.679
 20
911.222
 11
102.129
 21
911.524
  0
LINE
  8
0
 10
102.129
 20
911.524
 11
101.545
 21
911.755
  0
LINE
  8
0
 10
101.545
 20
911.755
 11
100.937
 21
911.911
  0
LINE
  8
0
 10
100.937
 20
911.911
 11
100.314
 21
911.99
  0
LINE
  8
0
 10
100.314
 20
911.99
 11
-100.314
 21
911.99
  0
LINE
  8
0
 10
-100.314
 20
911.99
 11
-100.937
 21
911.911
  0
LINE
  8
0
 10
-100.937
 20
911.911
 11
-101.545
 21
911.755
  0
LINE
  8
0
 10
-101.545
 20
911.755
 11
-102.129
 21
911.524
  0
LINE
  8
0
 10
-102.129
 20
911.524
 11
-102.679
 21
911.222
  0
LINE
  8
0
 10
-102.679
 20
911.222
 11
-103.187
 21
910.853
  0
LINE
  8
0
 10
-103.187
 20
910.853
 11
-103.645
 21
910.423
  0
LINE
  8
0
 10
-103.645
 20
910.423
 11
-104.045
 21
909.939
  0
LINE
  8
0
 10
-104.045
 20
909.939
 11
-104.382
 21
909.409
  0
LINE
  8
0
 10
-104.382
 20
909.409
 11
-104.649
 21
908.841
  0
LINE
  8
0
 10
-104.649
 20
908.841
 11
-104.843
 21
908.243
  0
LINE
  8
0
 10
-104.843
 20
908.243
 11
-104.961
 21
907.627
  0
LINE
  8
0
 10
-104.961
 20
907.627
 11
-105
 21
907
  0
LINE
  8
0
 10
-105
 20
907
 11
-105
 21
887
  0
LINE
  8
0
 10
-105
 20
887
 11
-104.961
 21
886.373
  0
LINE
  8
0
 10
-104.961
 20
886.373
 11
-104.843
 21
885.757
  0
LINE
  8
0
 10
-104.843
 20
885.757
 11
-104.649
 21
885.159
  0
LINE
  8
0
 10
-104.649
 20
885.159
 11
-104.382
 21
884.591
  0
LINE
  8
0
 10
-104.382
 20
884.591
 11
-104.045
 21
884.061
  0
LINE
  8
0
 10
-104.045
 20
884.061
 11
-103.645
 21
883.577
  0
LINE
  8
0
 10
-103.645
 20
883.577
 11
-103.187
 21
883.147
  0
LINE
  8
0
 10
-103.187
 20
883.147
 11
-102.679
 21
882.778
  0
LINE
  8
0
 10
-102.679
 20
882.778
 11
-102.129
 21
882.476
  0
LINE
  8
0
 10
-102.129
 20
882.476
 11
-101.545
 21
882.245
  0
LINE
  8
0
 10
-101.545
 20
882.245
 11
-100.937
 21
882.089
  0
LINE
  8
0
 10
-100.937
 20
882.089
 11
-100.314
 21
882.01
  0
LINE
  8
0
 10
-100.314
 20
882.01
 11
100.314
 21
882.01
  0
LINE
  8
0
 10
100.314
 20
882.01
 11
100.937
 21
882.089
  0
LINE
  8
0
 10
-99.7512
 20
883.508
 11
-100.25
 21
883.571
  0
LINE
  8
0
 10
-100.25
 20
883.571
 11
-100.736
 21
883.696
  0
LINE
  8
0
 10
-100.736
 20
883.696
 11
-101.203
 21
883.881
  0
LINE
  8
0
 10
-101.203
 20
883.881
 11
-101.643
 21
884.123
  0
LINE
  8
0
 10
-101.643
 20
884.123
 11
-102.05
 21
884.418
  0
LINE
  8
0
 10
-102.05
 20
884.418
 11
-102.416
 21
884.762
  0
LINE
  8
0
 10
-102.416
 20
884.762
 11
-102.736
 21
885.149
  0
LINE
  8
0
 10
-102.736
 20
885.149
 11
-103.005
 21
885.573
  0
LINE
  8
0
 10
-103.005
 20
885.573
 11
-103.219
 21
886.028
  0
LINE
  8
0
 10
-103.219
 20
886.028
 11
-103.374
 21
886.505
  0
LINE
  8
0
 10
-103.374
 20
886.505
 11
-103.468
 21
886.999
  0
LINE
  8
0
 10
-103.468
 20
886.999
 11
-103.5
 21
887.5
  0
LINE
  8
0
 10
-103.5
 20
887.5
 11
-103.5
 21
906.5
  0
LINE
  8
0
 10
-103.5
 20
906.5
 11
-103.468
 21
907.001
  0
LINE
  8
0
 10
-103.468
 20
907.001
 11
-103.374
 21
907.495
  0
LINE
  8
0
 10
-103.374
 20
907.495
 11
-103.219
 21
907.972
  0
LINE
  8
0
 10
-103.219
 20
907.972
 11
-103.005
 21
908.427
  0
LINE
  8
0
 10
-103.005
 20
908.427
 11
-102.736
 21
908.851
  0
LINE
  8
0
 10
-102.736
 20
908.851
 11
-102.416
 21
909.238
  0
LINE
  8
0
 10
-102.416
 20
909.238
 11
-102.05
 21
909.582
  0
LINE
  8
0
 10
-102.05
 20
909.582
 11
-101.643
 21
909.877
  0
LINE
  8
0
 10
-101.643
 20
909.877
 11
-101.203
 21
910.119
  0
LINE
  8
0
 10
-101.203
 20
910.119
 11
-100.736
 21
910.304
  0
LINE
  8
0
 10
-100.736
 20
910.304
 11
-100.25
 21
910.429
  0
LINE
  8
0
 10
-100.25
 20
910.429
 11
-99.7512
 21
910.492
  0
LINE
  8
0
 10
-99.7512
 20
910.492
 11
99.7512
 21
910.492
  0
LINE
  8
0
 10
99.7512
 20
910.492
 11
100.25
 21
910.429
  0
LINE
  8
0
 10
100.25
 20
910.429
 11
100.736
 21
910.304
  0
LINE
  8
0
 10
100.736
 20
910.304
 11
101.203
 21
910.119
  0
LINE
  8
0
 10
101.203
 20
910.119
 11
101.643
 21
909.877
  0
LINE
  8
0
 10
101.643
 20
909.877
 11
102.05
 21
909.582
  0
LINE
  8
0
 10
102.05
 20
909.582
 11
102.416
 21
909.238
  0
LINE
  8
0
 10
102.416
 20
909.238
 11
102.736
 21
908.851
  0
LINE
  8
0
 10
102.736
 20
908.851
 11
103.005
 21
908.427
  0
LINE
  8
0
 10
103.005
 20
908.427
 11
103.219
 21
907.972
  0
LINE
  8
0
 10
103.219
 20
907.972
 11
103.374
 21
907.495
  0
LINE
  8
0
 10
103.374
 20
907.495
 11
103.468
 21
907.001
  0
LINE
  8
0
 10
103.468
 20
907.001
 11
103.5
 21
906.5
  0
LINE
  8
0
 10
103.5
 20
906.5
 11
103.5
 21
887.5
  0
LINE
  8
0
 10
103.5
 20
887.5
 11
103.468
 21
886.999
  0
LINE
  8
0
 10
103.468
 20
886.999
 11
103.374
 21
886.505
  0
LINE
  8
0
 10
103.374
 20
886.505
 11
103.219
 21
886.028
  0
LINE
  8
0
 10
103.219
 20
886.028
 11
103.005
 21
885.573
  0
LINE
  8
0
 10
103.005
 20
885.573
 11
102.736
 21
885.149
  0
LINE
  8
0
 10
102.736
 20
885.149
 11
102.416
 21
884.762
  0
LINE
  8
0
 10
102.416
 20
884.762
 11
102.05
 21
884.418
  0
LINE
  8
0
 10
102.05
 20
884.418
 11
101.643
 21
884.123
  0
LINE
  8
0
 10
101.643
 20
884.123
 11
101.203
 21
883.881
  0
LINE
  8
0
 10
101.203
 20
883.881
 11
100.736
 21
883.696
  0
LINE
  8
0
 10
100.736
 20
883.696
 11
100.25
 21
883.571
  0
LINE
  8
0
 10
100.25
 20
883.571
 11
99.7512
 21
883.508
  0
LINE
  8
0
 10
99.7512
 20
883.508
 11
-99.7512
 21
883.508
  0
LINE
  8
0
 10
100.937
 20
843.089
 11
101.545
 21
843.245
  0
LINE
  8
0
 10
101.545
 20
843.245
 11
102.129
 21
843.476
  0
LINE
  8
0
 10
102.129
 20
843.476
 11
102.679
 21
843.778
  0
LINE
  8
0
 10
102.679
 20
843.778
 11
103.187
 21
844.147
  0
LINE
  8
0
 10
103.187
 20
844.147
 11
103.645
 21
844.577
  0
LINE
  8
0
 10
103.645
 20
844.577
 11
104.045
 21
845.061
  0
LINE
  8
0
 10
104.045
 20
845.061
 11
104.382
 21
845.591
  0
LINE
  8
0
 10
104.382
 20
845.591
 11
104.649
 21
846.159
  0
LINE
  8
0
 10
104.649
 20
846.159
 11
104.843
 21
846.757
  0
LINE
  8
0
 10
104.843
 20
846.757
 11
104.961
 21
847.373
  0
LINE
  8
0
 10
104.961
 20
847.373
 11
105
 21
848
  0
LINE
  8
0
 10
105
 20
848
 11
105
 21
868
  0
LINE
  8
0
 10
105
 20
868
 11
104.961
 21
868.627
  0
LINE
  8
0
 10
104.961
 20
868.627
 11
104.843
 21
869.243
  0
LINE
  8
0
 10
104.843
 20
869.243
 11
104.649
 21
869.841
  0
LINE
  8
0
 10
104.649
 20
869.841
 11
104.382
 21
870.409
  0
LINE
  8
0
 10
104.382
 20
870.409
 11
104.045
 21
870.939
  0
LINE
  8
0
 10
104.045
 20
870.939
 11
103.645
 21
871.423
  0
LINE
  8
0
 10
103.645
 20
871.423
 11
103.187
 21
871.853
  0
LINE
  8
0
 10
103.187
 20
871.853
 11
102.679
 21
872.222
  0
LINE
  8
0
 10
102.679
 20
872.222
 11
102.129
 21
872.524
  0
LINE
  8
0
 10
102.129
 20
872.524
 11
101.545
 21
872.755
  0
LINE
  8
0
 10
101.545
 20
872.755
 11
100.937
 21
872.911
  0
LINE
  8
0
 10
100.937
 20
872.911
 11
100.314
 21
872.99
  0
LINE
  8
0
 10
100.314
 20
872.99
 11
-100.314
 21
872.99
  0
LINE
  8
0
 10
-100.314
 20
872.99
 11
-100.937
 21
872.911
  0
LINE
  8
0
 10
-100.937
 20
872.911
 11
-101.545
 21
872.755
  0
LINE
  8
0
 10
-101.545
 20
872.755
 11
-102.129
 21
872.524
  0
LINE
  8
0
 10
-102.129
 20
872.524
 11
-102.679
 21
872.222
  0
LINE
  8
0
 10
-102.679
 20
872.222
 11
-103.187
 21
871.853
  0
LINE
  8
0
 10
-103.187
 20
871.853
 11
-103.645
 21
871.423
  0
LINE
  8
0
 10
-103.645
 20
871.423
 11
-104.045
 21
870.939
  0
LINE
  8
0
 10
-104.045
 20
870.939
 11
-104.382
 21
870.409
  0
LINE
  8
0
 10
-104.382
 20
870.409
 11
-104.649
 21
869.841
  0
LINE
  8
0
 10
-104.649
 20
869.841
 11
-104.843
 21
869.243
  0
LINE
  8
0
 10
-104.843
 20
869.243
 11
-104.961
 21
868.627
  0
LINE
  8
0
 10
-104.961
 20
868.627
 11
-105
 21
868
  0
LINE
  8
0
 10
-105
 20
868
 11
-105
 21
848
  0
LINE
  8
0
 10
-105
 20
848
 11
-104.961
 21
847.373
  0
LINE
  8
0
 10
-104.961
 20
847.373
 11
-104.843
 21
846.757
  0
LINE
  8
0
 10
-104.843
 20
846.757
 11
-104.649
 21
846.159
  0
LINE
  8
0
 10
-104.649
 20
846.159
 11
-104.382
 21
845.591
  0
LINE
  8
0
 10
-104.382
 20
845.591
 11
-104.045
 21
845.061
  0
LINE
  8
0
 10
-104.045
 20
845.061
 11
-103.645
 21
844.577
  0
LINE
  8
0
 10
-103.645
 20
844.577
 11
-103.187
 21
844.147
  0
LINE
  8
0
 10
-103.187
 20
844.147
 11
-102.679
 21
843.778
  0
LINE
  8
0
 10
-102.679
 20
843.778
 11
-102.129
 21
843.476
  0
LINE
  8
0
 10
-102.129
 20
843.476
 11
-101.545
 21
843.245
  0
LINE
  8
0
 10
-101.545
 20
843.245
 11
-100.937
 21
843.089
  0
LINE
  8
0
 10
-100.937
 20
843.089
 11
-100.314
 21
843.01
  0
LINE
  8
0
 10
-100.314
 20
843.01
 11
100.314
 21
843.01
  0
LINE
  8
0
 10
100.314
 20
843.01
 11
100.937
 21
843.089
  0
LINE
  8
0
 10
-99.7512
 20
844.508
 11
-100.25
 21
844.571
  0
LINE
  8
0
 10
-100.25
 20
844.571
 11
-100.736
 21
844.696
  0
LINE
  8
0
 10
-100.736
 20
844.696
 11
-101.203
 21
844.881
  0
LINE
  8
0
 10
-101.203
 20
844.881
 11
-101.643
 21
845.123
  0
LINE
  8
0
 10
-101.643
 20
845.123
 11
-102.05
 21
845.418
  0
LINE
  8
0
 10
-102.05
 20
845.418
 11
-102.416
 21
845.762
  0
LINE
  8
0
 10
-102.416
 20
845.762
 11
-102.736
 21
846.149
  0
LINE
  8
0
 10
-102.736
 20
846.149
 11
-103.005
 21
846.573
  0
LINE
  8
0
 10
-103.005
 20
846.573
 11
-103.219
 21
847.028
  0
LINE
  8
0
 10
-103.219
 20
847.028
 11
-103.374
 21
847.505
  0
LINE
  8
0
 10
-103.374
 20
847.505
 11
-103.468
 21
847.999
  0
LINE
  8
0
 10
-103.468
 20
847.999
 11
-103.5
 21
848.5
  0
LINE
  8
0
 10
-103.5
 20
848.5
 11
-103.5
 21
867.5
  0
LINE
  8
0
 10
-103.5
 20
867.5
 11
-103.468
 21
868.001
  0
LINE
  8
0
 10
-103.468
 20
868.001
 11
-103.374
 21
868.495
  0
LINE
  8
0
 10
-103.374
 20
868.495
 11
-103.219
 21
868.972
  0
LINE
  8
0
 10
-103.219
 20
868.972
 11
-103.005
 21
869.427
  0
LINE
  8
0
 10
-103.005
 20
869.427
 11
-102.736
 21
869.851
  0
LINE
  8
0
 10
-102.736
 20
869.851
 11
-102.416
 21
870.238
  0
LINE
  8
0
 10
-102.416
 20
870.238
 11
-102.05
 21
870.582
  0
LINE
  8
0
 10
-102.05
 20
870.582
 11
-101.643
 21
870.877
  0
LINE
  8
0
 10
-101.643
 20
870.877
 11
-101.203
 21
871.119
  0
LINE
  8
0
 10
-101.203
 20
871.119
 11
-100.736
 21
871.304
  0
LINE
  8
0
 10
-100.736
 20
871.304
 11
-100.25
 21
871.429
  0
LINE
  8
0
 10
-100.25
 20
871.429
 11
-99.7512
 21
871.492
  0
LINE
  8
0
 10
-99.7512
 20
871.492
 11
99.7512
 21
871.492
  0
LINE
  8
0
 10
99.7512
 20
871.492
 11
100.25
 21
871.429
  0
LINE
  8
0
 10
100.25
 20
871.429
 11
100.736
 21
871.304
  0
LINE
  8
0
 10
100.736
 20
871.304
 11
101.203
 21
871.119
  0
LINE
  8
0
 10
101.203
 20
871.119
 11
101.643
 21
870.877
  0
LINE
  8
0
 10
101.643
 20
870.877
 11
102.05
 21
870.582
  0
LINE
  8
0
 10
102.05
 20
870.582
 11
102.416
 21
870.238
  0
LINE
  8
0
 10
102.416
 20
870.238
 11
102.736
 21
869.851
  0
LINE
  8
0
 10
102.736
 20
869.851
 11
103.005
 21
869.427
  0
LINE
  8
0
 10
103.005
 20
869.427
 11
103.219
 21
868.972
  0
LINE
  8
0
 10
103.219
 20
868.972
 11
103.374
 21
868.495
  0
LINE
  8
0
 10
103.374
 20
868.495
 11
103.468
 21
868.001
  0
LINE
  8
0
 10
103.468
 20
868.001
 11
103.5
 21
867.5
  0
LINE
  8
0
 10
103.5
 20
867.5
 11
103.5
 21
848.5
  0
LINE
  8
0
 10
103.5
 20
848.5
 11
103.468
 21
847.999
  0
LINE
  8
0
 10
103.468
 20
847.999
 11
103.374
 21
847.505
  0
LINE
  8
0
 10
103.374
 20
847.505
 11
103.219
 21
847.028
  0
LINE
  8
0
 10
103.219
 20
847.028
 11
103.005
 21
846.573
  0
LINE
  8
0
 10
103.005
 20
846.573
 11
102.736
 21
846.149
  0
LINE
  8
0
 10
102.736
 20
846.149
 11
102.416
 21
845.762
  0
LINE
  8
0
 10
102.416
 20
845.762
 11
102.05
 21
845.418
  0
LINE
  8
0
 10
102.05
 20
845.418
 11
101.643
 21
845.123
  0
LINE
  8
0
 10
101.643
 20
845.123
 11
101.203
 21
844.881
  0
LINE
  8
0
 10
101.203
 20
844.881
 11
100.736
 21
844.696
  0
LINE
  8
0
 10
100.736
 20
844.696
 11
100.25
 21
844.571
  0
LINE
  8
0
 10
100.25
 20
844.571
 11
99.7512
 21
844.508
  0
LINE
  8
0
 10
99.7512
 20
844.508
 11
-99.7512
 21
844.508
  0
LINE
  8
0
 10
100.937
 20
804.089
 11
101.545
 21
804.245
  0
LINE
  8
0
 10
101.545
 20
804.245
 11
102.129
 21
804.476
  0
LINE
  8
0
 10
102.129
 20
804.476
 11
102.679
 21
804.778
  0
LINE
  8
0
 10
102.679
 20
804.778
 11
103.187
 21
805.147
  0
LINE
  8
0
 10
103.187
 20
805.147
 11
103.645
 21
805.577
  0
LINE
  8
0
 10
103.645
 20
805.577
 11
104.045
 21
806.061
  0
LINE
  8
0
 10
104.045
 20
806.061
 11
104.382
 21
806.591
  0
LINE
  8
0
 10
104.382
 20
806.591
 11
104.649
 21
807.159
  0
LINE
  8
0
 10
104.649
 20
807.159
 11
104.843
 21
807.757
  0
LINE
  8
0
 10
104.843
 20
807.757
 11
104.961
 21
808.373
  0
LINE
  8
0
 10
104.961
 20
808.373
 11
105
 21
809
  0
LINE
  8
0
 10
105
 20
809
 11
105
 21
829
  0
LINE
  8
0
 10
105
 20
829
 11
104.961
 21
829.627
  0
LINE
  8
0
 10
104.961
 20
829.627
 11
104.843
 21
830.243
  0
LINE
  8
0
 10
104.843
 20
830.243
 11
104.649
 21
830.841
  0
LINE
  8
0
 10
104.649
 20
830.841
 11
104.382
 21
831.409
  0
LINE
  8
0
 10
104.382
 20
831.409
 11
104.045
 21
831.939
  0
LINE
  8
0
 10
104.045
 20
831.939
 11
103.645
 21
832.423
  0
LINE
  8
0
 10
103.645
 20
832.423
 11
103.187
 21
832.853
  0
LINE
  8
0
 10
103.187
 20
832.853
 11
102.679
 21
833.222
  0
LINE
  8
0
 10
102.679
 20
833.222
 11
102.129
 21
833.524
  0
LINE
  8
0
 10
102.129
 20
833.524
 11
101.545
 21
833.755
  0
LINE
  8
0
 10
101.545
 20
833.755
 11
100.937
 21
833.911
  0
LINE
  8
0
 10
100.937
 20
833.911
 11
100.314
 21
833.99
  0
LINE
  8
0
 10
100.314
 20
833.99
 11
-100.314
 21
833.99
  0
LINE
  8
0
 10
-100.314
 20
833.99
 11
-100.937
 21
833.911
  0
LINE
  8
0
 10
-100.937
 20
833.911
 11
-101.545
 21
833.755
  0
LINE
  8
0
 10
-101.545
 20
833.755
 11
-102.129
 21
833.524
  0
LINE
  8
0
 10
-102.129
 20
833.524
 11
-102.679
 21
833.222
  0
LINE
  8
0
 10
-102.679
 20
833.222
 11
-103.187
 21
832.853
  0
LINE
  8
0
 10
-103.187
 20
832.853
 11
-103.645
 21
832.423
  0
LINE
  8
0
 10
-103.645
 20
832.423
 11
-104.045
 21
831.939
  0
LINE
  8
0
 10
-104.045
 20
831.939
 11
-104.382
 21
831.409
  0
LINE
  8
0
 10
-104.382
 20
831.409
 11
-104.649
 21
830.841
  0
LINE
  8
0
 10
-104.649
 20
830.841
 11
-104.843
 21
830.243
  0
LINE
  8
0
 10
-104.843
 20
830.243
 11
-104.961
 21
829.627
  0
LINE
  8
0
 10
-104.961
 20
829.627
 11
-105
 21
829
  0
LINE
  8
0
 10
-105
 20
829
 11
-105
 21
809
  0
LINE
  8
0
 10
-105
 20
809
 11
-104.961
 21
808.373
  0
LINE
  8
0
 10
-104.961
 20
808.373
 11
-104.843
 21
807.757
  0
LINE
  8
0
 10
-104.843
 20
807.757
 11
-104.649
 21
807.159
  0
LINE
  8
0
 10
-104.649
 20
807.159
 11
-104.382
 21
806.591
  0
LINE
  8
0
 10
-104.382
 20
806.591
 11
-104.045
 21
806.061
  0
LINE
  8
0
 10
-104.045
 20
806.061
 11
-103.645
 21
805.577
  0
LINE
  8
0
 10
-103.645
 20
805.577
 11
-103.187
 21
805.147
  0
LINE
  8
0
 10
-103.187
 20
805.147
 11
-102.679
 21
804.778
  0
LINE
  8
0
 10
-102.679
 20
804.778
 11
-102.129
 21
804.476
  0
LINE
  8
0
 10
-102.129
 20
804.476
 11
-101.545
 21
804.245
  0
LINE
  8
0
 10
-101.545
 20
804.245
 11
-100.937
 21
804.089
  0
LINE
  8
0
 10
-100.937
 20
804.089
 11
-100.314
 21
804.01
  0
LINE
  8
0
 10
-100.314
 20
804.01
 11
100.314
 21
804.01
  0
LINE
  8
0
 10
100.314
 20
804.01
 11
100.937
 21
804.089
  0
LINE
  8
0
 10
-99.7512
 20
805.508
 11
-100.25
 21
805.571
  0
LINE
  8
0
 10
-100.25
 20
805.571
 11
-100.736
 21
805.696
  0
LINE
  8
0
 10
-100.736
 20
805.696
 11
-101.203
 21
805.881
  0
LINE
  8
0
 10
-101.203
 20
805.881
 11
-101.643
 21
806.123
  0
LINE
  8
0
 10
-101.643
 20
806.123
 11
-102.05
 21
806.418
  0
LINE
  8
0
 10
-102.05
 20
806.418
 11
-102.416
 21
806.762
  0
LINE
  8
0
 10
-102.416
 20
806.762
 11
-102.736
 21
807.149
  0
LINE
  8
0
 10
-102.736
 20
807.149
 11
-103.005
 21
807.573
  0
LINE
  8
0
 10
-103.005
 20
807.573
 11
-103.219
 21
808.028
  0
LINE
  8
0
 10
-103.219
 20
808.028
 11
-103.374
 21
808.505
  0
LINE
  8
0
 10
-103.374
 20
808.505
 11
-103.468
 21
808.999
  0
LINE
  8
0
 10
-103.468
 20
808.999
 11
-103.5
 21
809.5
  0
LINE
  8
0
 10
-103.5
 20
809.5
 11
-103.5
 21
828.5
  0
LINE
  8
0
 10
-103.5
 20
828.5
 11
-103.468
 21
829.001
  0
LINE
  8
0
 10
-103.468
 20
829.001
 11
-103.374
 21
829.495
  0
LINE
  8
0
 10
-103.374
 20
829.495
 11
-103.219
 21
829.972
  0
LINE
  8
0
 10
-103.219
 20
829.972
 11
-103.005
 21
830.427
  0
LINE
  8
0
 10
-103.005
 20
830.427
 11
-102.736
 21
830.851
  0
LINE
  8
0
 10
-102.736
 20
830.851
 11
-102.416
 21
831.238
  0
LINE
  8
0
 10
-102.416
 20
831.238
 11
-102.05
 21
831.582
  0
LINE
  8
0
 10
-102.05
 20
831.582
 11
-101.643
 21
831.877
  0
LINE
  8
0
 10
-101.643
 20
831.877
 11
-101.203
 21
832.119
  0
LINE
  8
0
 10
-101.203
 20
832.119
 11
-100.736
 21
832.304
  0
LINE
  8
0
 10
-100.736
 20
832.304
 11
-100.25
 21
832.429
  0
LINE
  8
0
 10
-100.25
 20
832.429
 11
-99.7512
 21
832.492
  0
LINE
  8
0
 10
-99.7512
 20
832.492
 11
99.7512
 21
832.492
  0
LINE
  8
0
 10
99.7512
 20
832.492
 11
100.25
 21
832.429
  0
LINE
  8
0
 10
100.25
 20
832.429
 11
100.736
 21
832.304
  0
LINE
  8
0
 10
100.736
 20
832.304
 11
101.203
 21
832.119
  0
LINE
  8
0
 10
101.203
 20
832.119
 11
101.643
 21
831.877
  0
LINE
  8
0
 10
101.643
 20
831.877
 11
102.05
 21
831.582
  0
LINE
  8
0
 10
102.05
 20
831.582
 11
102.416
 21
831.238
  0
LINE
  8
0
 10
102.416
 20
831.238
 11
102.736
 21
830.851
  0
LINE
  8
0
 10
102.736
 20
830.851
 11
103.005
 21
830.427
  0
LINE
  8
0
 10
103.005
 20
830.427
 11
103.219
 21
829.972
  0
LINE
  8
0
 10
103.219
 20
829.972
 11
103.374
 21
829.495
  0
LINE
  8
0
 10
103.374
 20
829.495
 11
103.468
 21
829.001
  0
LINE
  8
0
 10
103.468
 20
829.001
 11
103.5
 21
828.5
  0
LINE
  8
0
 10
103.5
 20
828.5
 11
103.5
 21
809.5
  0
LINE
  8
0
 10
103.5
 20
809.5
 11
103.468
 21
808.999
  0
LINE
  8
0
 10
103.468
 20
808.999
 11
103.374
 21
808.505
  0
LINE
  8
0
 10
103.374
 20
808.505
 11
103.219
 21
808.028
  0
LINE
  8
0
 10
103.219
 20
808.028
 11
103.005
 21
807.573
  0
LINE
  8
0
 10
103.005
 20
807.573
 11
102.736
 21
807.149
  0
LINE
  8
0
 10
102.736
 20
807.149
 11
102.416
 21
806.762
  0
LINE
  8
0
 10
102.416
 20
806.762
 11
102.05
 21
806.418
  0
LINE
  8
0
 10
102.05
 20
806.418
 11
101.643
 21
806.123
  0
LINE
  8
0
 10
101.643
 20
806.123
 11
101.203
 21
805.881
  0
LINE
  8
0
 10
101.203
 20
805.881
 11
100.736
 21
805.696
  0
LINE
  8
0
 10
100.736
 20
805.696
 11
100.25
 21
805.571
  0
LINE
  8
0
 10
100.25
 20
805.571
 11
99.7512
 21
805.508
  0
LINE
  8
0
 10
99.7512
 20
805.508
 11
-99.7512
 21
805.508
  0
LINE
  8
0
 10
100.937
 20
765.089
 11
101.545
 21
765.245
  0
LINE
  8
0
 10
101.545
 20
765.245
 11
102.129
 21
765.476
  0
LINE
  8
0
 10
102.129
 20
765.476
 11
102.679
 21
765.778
  0
LINE
  8
0
 10
102.679
 20
765.778
 11
103.187
 21
766.147
  0
LINE
  8
0
 10
103.187
 20
766.147
 11
103.645
 21
766.577
  0
LINE
  8
0
 10
103.645
 20
766.577
 11
104.045
 21
767.061
  0
LINE
  8
0
 10
104.045
 20
767.061
 11
104.382
 21
767.591
  0
LINE
  8
0
 10
104.382
 20
767.591
 11
104.649
 21
768.159
  0
LINE
  8
0
 10
104.649
 20
768.159
 11
104.843
 21
768.757
  0
LINE
  8
0
 10
104.843
 20
768.757
 11
104.961
 21
769.373
  0
LINE
  8
0
 10
104.961
 20
769.373
 11
105
 21
770
  0
LINE
  8
0
 10
105
 20
770
 11
105
 21
790
  0
LINE
  8
0
 10
105
 20
790
 11
104.961
 21
790.627
  0
LINE
  8
0
 10
104.961
 20
790.627
 11
104.843
 21
791.243
  0
LINE
  8
0
 10
104.843
 20
791.243
 11
104.649
 21
791.841
  0
LINE
  8
0
 10
104.649
 20
791.841
 11
104.382
 21
792.409
  0
LINE
  8
0
 10
104.382
 20
792.409
 11
104.045
 21
792.939
  0
LINE
  8
0
 10
104.045
 20
792.939
 11
103.645
 21
793.423
  0
LINE
  8
0
 10
103.645
 20
793.423
 11
103.187
 21
793.853
  0
LINE
  8
0
 10
103.187
 20
793.853
 11
102.679
 21
794.222
  0
LINE
  8
0
 10
102.679
 20
794.222
 11
102.129
 21
794.524
  0
LINE
  8
0
 10
102.129
 20
794.524
 11
101.545
 21
794.755
  0
LINE
  8
0
 10
101.545
 20
794.755
 11
100.937
 21
794.911
  0
LINE
  8
0
 10
100.937
 20
794.911
 11
100.314
 21
794.99
  0
LINE
  8
0
 10
100.314
 20
794.99
 11
-100.314
 21
794.99
  0
LINE
  8
0
 10
-100.314
 20
794.99
 11
-100.937
 21
794.911
  0
LINE
  8
0
 10
-100.937
 20
794.911
 11
-101.545
 21
794.755
  0
LINE
  8
0
 10
-101.545
 20
794.755
 11
-102.129
 21
794.524
  0
LINE
  8
0
 10
-102.129
 20
794.524
 11
-102.679
 21
794.222
  0
LINE
  8
0
 10
-102.679
 20
794.222
 11
-103.187
 21
793.853
  0
LINE
  8
0
 10
-103.187
 20
793.853
 11
-103.645
 21
793.423
  0
LINE
  8
0
 10
-103.645
 20
793.423
 11
-104.045
 21
792.939
  0
LINE
  8
0
 10
-104.045
 20
792.939
 11
-104.382
 21
792.409
  0
LINE
  8
0
 10
-104.382
 20
792.409
 11
-104.649
 21
791.841
  0
LINE
  8
0
 10
-104.649
 20
791.841
 11
-104.843
 21
791.243
  0
LINE
  8
0
 10
-104.843
 20
791.243
 11
-104.961
 21
790.627
  0
LINE
  8
0
 10
-104.961
 20
790.627
 11
-105
 21
790
  0
LINE
  8
0
 10
-105
 20
790
 11
-105
 21
770
  0
LINE
  8
0
 10
-105
 20
770
 11
-104.961
 21
769.373
  0
LINE
  8
0
 10
-104.961
 20
769.373
 11
-104.843
 21
768.757
  0
LINE
  8
0
 10
-104.843
 20
768.757
 11
-104.649
 21
768.159
  0
LINE
  8
0
 10
-104.649
 20
768.159
 11
-104.382
 21
767.591
  0
LINE
  8
0
 10
-104.382
 20
767.591
 11
-104.045
 21
767.061
  0
LINE
  8
0
 10
-104.045
 20
767.061
 11
-103.645
 21
766.577
  0
LINE
  8
0
 10
-103.645
 20
766.577
 11
-103.187
 21
766.147
  0
LINE
  8
0
 10
-103.187
 20
766.147
 11
-102.679
 21
765.778
  0
LINE
  8
0
 10
-102.679
 20
765.778
 11
-102.129
 21
765.476
  0
LINE
  8
0
 10
-102.129
 20
765.476
 11
-101.545
 21
765.245
  0
LINE
  8
0
 10
-101.545
 20
765.245
 11
-100.937
 21
765.089
  0
LINE
  8
0
 10
-100.937
 20
765.089
 11
-100.314
 21
765.01
  0
LINE
  8
0
 10
-100.314
 20
765.01
 11
100.314
 21
765.01
  0
LINE
  8
0
 10
100.314
 20
765.01
 11
100.937
 21
765.089
  0
LINE
  8
0
 10
-99.7512
 20
766.508
 11
-100.25
 21
766.571
  0
LINE
  8
0
 10
-100.25
 20
766.571
 11
-100.736
 21
766.696
  0
LINE
  8
0
 10
-100.736
 20
766.696
 11
-101.203
 21
766.881
  0
LINE
  8
0
 10
-101.203
 20
766.881
 11
-101.643
 21
767.123
  0
LINE
  8
0
 10
-101.643
 20
767.123
 11
-102.05
 21
767.418
  0
LINE
  8
0
 10
-102.05
 20
767.418
 11
-102.416
 21
767.762
  0
LINE
  8
0
 10
-102.416
 20
767.762
 11
-102.736
 21
768.149
  0
LINE
  8
0
 10
-102.736
 20
768.149
 11
-103.005
 21
768.573
  0
LINE
  8
0
 10
-103.005
 20
768.573
 11
-103.219
 21
769.028
  0
LINE
  8
0
 10
-103.219
 20
769.028
 11
-103.374
 21
769.505
  0
LINE
  8
0
 10
-103.374
 20
769.505
 11
-103.468
 21
769.999
  0
LINE
  8
0
 10
-103.468
 20
769.999
 11
-103.5
 21
770.5
  0
LINE
  8
0
 10
-103.5
 20
770.5
 11
-103.5
 21
789.5
  0
LINE
  8
0
 10
-103.5
 20
789.5
 11
-103.468
 21
790.001
  0
LINE
  8
0
 10
-103.468
 20
790.001
 11
-103.374
 21
790.495
  0
LINE
  8
0
 10
-103.374
 20
790.495
 11
-103.219
 21
790.972
  0
LINE
  8
0
 10
-103.219
 20
790.972
 11
-103.005
 21
791.427
  0
LINE
  8
0
 10
-103.005
 20
791.427
 11
-102.736
 21
791.851
  0
LINE
  8
0
 10
-102.736
 20
791.851
 11
-102.416
 21
792.238
  0
LINE
  8
0
 10
-102.416
 20
792.238
 11
-102.05
 21
792.582
  0
LINE
  8
0
 10
-102.05
 20
792.582
 11
-101.643
 21
792.877
  0
LINE
  8
0
 10
-101.643
 20
792.877
 11
-101.203
 21
793.119
  0
LINE
  8
0
 10
-101.203
 20
793.119
 11
-100.736
 21
793.304
  0
LINE
  8
0
 10
-100.736
 20
793.304
 11
-100.25
 21
793.429
  0
LINE
  8
0
 10
-100.25
 20
793.429
 11
-99.7512
 21
793.492
  0
LINE
  8
0
 10
-99.7512
 20
793.492
 11
99.7512
 21
793.492
  0
LINE
  8
0
 10
99.7512
 20
793.492
 11
100.25
 21
793.429
  0
LINE
  8
0
 10
100.25
 20
793.429
 11
100.736
 21
793.304
  0
LINE
  8
0
 10
100.736
 20
793.304
 11
101.203
 21
793.119
  0
LINE
  8
0
 10
101.203
 20
793.119
 11
101.643
 21
792.877
  0
LINE
  8
0
 10
101.643
 20
792.877
 11
102.05
 21
792.582
  0
LINE
  8
0
 10
102.05
 20
792.582
 11
102.416
 21
792.238
  0
LINE
  8
0
 10
102.416
 20
792.238
 11
102.736
 21
791.851
  0
LINE
  8
0
 10
102.736
 20
791.851
 11
103.005
 21
791.427
  0
LINE
  8
0
 10
103.005
 20
791.427
 11
103.219
 21
790.972
  0
LINE
  8
0
 10
103.219
 20
790.972
 11
103.374
 21
790.495
  0
LINE
  8
0
 10
103.374
 20
790.495
 11
103.468
 21
790.001
  0
LINE
  8
0
 10
103.468
 20
790.001
 11
103.5
 21
789.5
  0
LINE
  8
0
 10
103.5
 20
789.5
 11
103.5
 21
770.5
  0
LINE
  8
0
 10
103.5
 20
770.5
 11
103.468
 21
769.999
  0
LINE
  8
0
 10
103.468
 20
769.999
 11
103.374
 21
769.505
  0
LINE
  8
0
 10
103.374
 20
769.505
 11
103.219
 21
769.028
  0
LINE
  8
0
 10
103.219
 20
769.028
 11
103.005
 21
768.573
  0
LINE
  8
0
 10
103.005
 20
768.573
 11
102.736
 21
768.149
  0
LINE
  8
0
 10
102.736
 20
768.149
 11
102.416
 21
767.762
  0
LINE
  8
0
 10
102.416
 20
767.762
 11
102.05
 21
767.418
  0
LINE
  8
0
 10
102.05
 20
767.418
 11
101.643
 21
767.123
  0
LINE
  8
0
 10
101.643
 20
767.123
 11
101.203
 21
766.881
  0
LINE
  8
0
 10
101.203
 20
766.881
 11
100.736
 21
766.696
  0
LINE
  8
0
 10
100.736
 20
766.696
 11
100.25
 21
766.571
  0
LINE
  8
0
 10
100.25
 20
766.571
 11
99.7512
 21
766.508
  0
LINE
  8
0
 10
99.7512
 20
766.508
 11
-99.7512
 21
766.508
  0
LINE
  8
0
 10
100.937
 20
726.089
 11
101.545
 21
726.245
  0
LINE
  8
0
 10
101.545
 20
726.245
 11
102.129
 21
726.476
  0
LINE
  8
0
 10
102.129
 20
726.476
 11
102.679
 21
726.778
  0
LINE
  8
0
 10
102.679
 20
726.778
 11
103.187
 21
727.147
  0
LINE
  8
0
 10
103.187
 20
727.147
 11
103.645
 21
727.577
  0
LINE
  8
0
 10
103.645
 20
727.577
 11
104.045
 21
728.061
  0
LINE
  8
0
 10
104.045
 20
728.061
 11
104.382
 21
728.591
  0
LINE
  8
0
 10
104.382
 20
728.591
 11
104.649
 21
729.159
  0
LINE
  8
0
 10
104.649
 20
729.159
 11
104.843
 21
729.757
  0
LINE
  8
0
 10
104.843
 20
729.757
 11
104.961
 21
730.373
  0
LINE
  8
0
 10
104.961
 20
730.373
 11
105
 21
731
  0
LINE
  8
0
 10
105
 20
731
 11
105
 21
751
  0
LINE
  8
0
 10
105
 20
751
 11
104.961
 21
751.627
  0
LINE
  8
0
 10
104.961
 20
751.627
 11
104.843
 21
752.243
  0
LINE
  8
0
 10
104.843
 20
752.243
 11
104.649
 21
752.841
  0
LINE
  8
0
 10
104.649
 20
752.841
 11
104.382
 21
753.409
  0
LINE
  8
0
 10
104.382
 20
753.409
 11
104.045
 21
753.939
  0
LINE
  8
0
 10
104.045
 20
753.939
 11
103.645
 21
754.423
  0
LINE
  8
0
 10
103.645
 20
754.423
 11
103.187
 21
754.853
  0
LINE
  8
0
 10
103.187
 20
754.853
 11
102.679
 21
755.222
  0
LINE
  8
0
 10
102.679
 20
755.222
 11
102.129
 21
755.524
  0
LINE
  8
0
 10
102.129
 20
755.524
 11
101.545
 21
755.755
  0
LINE
  8
0
 10
101.545
 20
755.755
 11
100.937
 21
755.911
  0
LINE
  8
0
 10
100.937
 20
755.911
 11
100.314
 21
755.99
  0
LINE
  8
0
 10
100.314
 20
755.99
 11
-100.314
 21
755.99
  0
LINE
  8
0
 10
-100.314
 20
755.99
 11
-100.937
 21
755.911
  0
LINE
  8
0
 10
-100.937
 20
755.911
 11
-101.545
 21
755.755
  0
LINE
  8
0
 10
-101.545
 20
755.755
 11
-102.129
 21
755.524
  0
LINE
  8
0
 10
-102.129
 20
755.524
 11
-102.679
 21
755.222
  0
LINE
  8
0
 10
-102.679
 20
755.222
 11
-103.187
 21
754.853
  0
LINE
  8
0
 10
-103.187
 20
754.853
 11
-103.645
 21
754.423
  0
LINE
  8
0
 10
-103.645
 20
754.423
 11
-104.045
 21
753.939
  0
LINE
  8
0
 10
-104.045
 20
753.939
 11
-104.382
 21
753.409
  0
LINE
  8
0
 10
-104.382
 20
753.409
 11
-104.649
 21
752.841
  0
LINE
  8
0
 10
-104.649
 20
752.841
 11
-104.843
 21
752.243
  0
LINE
  8
0
 10
-104.843
 20
752.243
 11
-104.961
 21
751.627
  0
LINE
  8
0
 10
-104.961
 20
751.627
 11
-105
 21
751
  0
LINE
  8
0
 10
-105
 20
751
 11
-105
 21
731
  0
LINE
  8
0
 10
-105
 20
731
 11
-104.961
 21
730.373
  0
LINE
  8
0
 10
-104.961
 20
730.373
 11
-104.843
 21
729.757
  0
LINE
  8
0
 10
-104.843
 20
729.757
 11
-104.649
 21
729.159
  0
LINE
  8
0
 10
-104.649
 20
729.159
 11
-104.382
 21
728.591
  0
LINE
  8
0
 10
-104.382
 20
728.591
 11
-104.045
 21
728.061
  0
LINE
  8
0
 10
-104.045
 20
728.061
 11
-103.645
 21
727.577
  0
LINE
  8
0
 10
-103.645
 20
727.577
 11
-103.187
 21
727.147
  0
LINE
  8
0
 10
-103.187
 20
727.147
 11
-102.679
 21
726.778
  0
LINE
  8
0
 10
-102.679
 20
726.778
 11
-102.129
 21
726.476
  0
LINE
  8
0
 10
-102.129
 20
726.476
 11
-101.545
 21
726.245
  0
LINE
  8
0
 10
-101.545
 20
726.245
 11
-100.937
 21
726.089
  0
LINE
  8
0
 10
-100.937
 20
726.089
 11
-100.314
 21
726.01
  0
LINE
  8
0
 10
-100.314
 20
726.01
 11
100.314
 21
726.01
  0
LINE
  8
0
 10
100.314
 20
726.01
 11
100.937
 21
726.089
  0
LINE
  8
0
 10
-99.7512
 20
727.508
 11
-100.25
 21
727.571
  0
LINE
  8
0
 10
-100.25
 20
727.571
 11
-100.736
 21
727.696
  0
LINE
  8
0
 10
-100.736
 20
727.696
 11
-101.203
 21
727.881
  0
LINE
  8
0
 10
-101.203
 20
727.881
 11
-101.643
 21
728.123
  0
LINE
  8
0
 10
-101.643
 20
728.123
 11
-102.05
 21
728.418
  0
LINE
  8
0
 10
-102.05
 20
728.418
 11
-102.416
 21
728.762
  0
LINE
  8
0
 10
-102.416
 20
728.762
 11
-102.736
 21
729.149
  0
LINE
  8
0
 10
-102.736
 20
729.149
 11
-103.005
 21
729.573
  0
LINE
  8
0
 10
-103.005
 20
729.573
 11
-103.219
 21
730.028
  0
LINE
  8
0
 10
-103.219
 20
730.028
 11
-103.374
 21
730.505
  0
LINE
  8
0
 10
-103.374
 20
730.505
 11
-103.468
 21
730.999
  0
LINE
  8
0
 10
-103.468
 20
730.999
 11
-103.5
 21
731.5
  0
LINE
  8
0
 10
-103.5
 20
731.5
 11
-103.5
 21
750.5
  0
LINE
  8
0
 10
-103.5
 20
750.5
 11
-103.468
 21
751.001
  0
LINE
  8
0
 10
-103.468
 20
751.001
 11
-103.374
 21
751.495
  0
LINE
  8
0
 10
-103.374
 20
751.495
 11
-103.219
 21
751.972
  0
LINE
  8
0
 10
-103.219
 20
751.972
 11
-103.005
 21
752.427
  0
LINE
  8
0
 10
-103.005
 20
752.427
 11
-102.736
 21
752.851
  0
LINE
  8
0
 10
-102.736
 20
752.851
 11
-102.416
 21
753.238
  0
LINE
  8
0
 10
-102.416
 20
753.238
 11
-102.05
 21
753.582
  0
LINE
  8
0
 10
-102.05
 20
753.582
 11
-101.643
 21
753.877
  0
LINE
  8
0
 10
-101.643
 20
753.877
 11
-101.203
 21
754.119
  0
LINE
  8
0
 10
-101.203
 20
754.119
 11
-100.736
 21
754.304
  0
LINE
  8
0
 10
-100.736
 20
754.304
 11
-100.25
 21
754.429
  0
LINE
  8
0
 10
-100.25
 20
754.429
 11
-99.7512
 21
754.492
  0
LINE
  8
0
 10
-99.7512
 20
754.492
 11
99.7512
 21
754.492
  0
LINE
  8
0
 10
99.7512
 20
754.492
 11
100.25
 21
754.429
  0
LINE
  8
0
 10
100.25
 20
754.429
 11
100.736
 21
754.304
  0
LINE
  8
0
 10
100.736
 20
754.304
 11
101.203
 21
754.119
  0
LINE
  8
0
 10
101.203
 20
754.119
 11
101.643
 21
753.877
  0
LINE
  8
0
 10
101.643
 20
753.877
 11
102.05
 21
753.582
  0
LINE
  8
0
 10
102.05
 20
753.582
 11
102.416
 21
753.238
  0
LINE
  8
0
 10
102.416
 20
753.238
 11
102.736
 21
752.851
  0
LINE
  8
0
 10
102.736
 20
752.851
 11
103.005
 21
752.427
  0
LINE
  8
0
 10
103.005
 20
752.427
 11
103.219
 21
751.972
  0
LINE
  8
0
 10
103.219
 20
751.972
 11
103.374
 21
751.495
  0
LINE
  8
0
 10
103.374
 20
751.495
 11
103.468
 21
751.001
  0
LINE
  8
0
 10
103.468
 20
751.001
 11
103.5
 21
750.5
  0
LINE
  8
0
 10
103.5
 20
750.5
 11
103.5
 21
731.5
  0
LINE
  8
0
 10
103.5
 20
731.5
 11
103.468
 21
730.999
  0
LINE
  8
0
 10
103.468
 20
730.999
 11
103.374
 21
730.505
  0
LINE
  8
0
 10
103.374
 20
730.505
 11
103.219
 21
730.028
  0
LINE
  8
0
 10
103.219
 20
730.028
 11
103.005
 21
729.573
  0
LINE
  8
0
 10
103.005
 20
729.573
 11
102.736
 21
729.149
  0
LINE
  8
0
 10
102.736
 20
729.149
 11
102.416
 21
728.762
  0
LINE
  8
0
 10
102.416
 20
728.762
 11
102.05
 21
728.418
  0
LINE
  8
0
 10
102.05
 20
728.418
 11
101.643
 21
728.123
  0
LINE
  8
0
 10
101.643
 20
728.123
 11
101.203
 21
727.881
  0
LINE
  8
0
 10
101.203
 20
727.881
 11
100.736
 21
727.696
  0
LINE
  8
0
 10
100.736
 20
727.696
 11
100.25
 21
727.571
  0
LINE
  8
0
 10
100.25
 20
727.571
 11
99.7512
 21
727.508
  0
LINE
  8
0
 10
99.7512
 20
727.508
 11
-99.7512
 21
727.508
  0
LINE
  8
0
 10
100.937
 20
687.089
 11
101.545
 21
687.245
  0
LINE
  8
0
 10
101.545
 20
687.245
 11
102.129
 21
687.476
  0
LINE
  8
0
 10
102.129
 20
687.476
 11
102.679
 21
687.778
  0
LINE
  8
0
 10
102.679
 20
687.778
 11
103.187
 21
688.147
  0
LINE
  8
0
 10
103.187
 20
688.147
 11
103.645
 21
688.577
  0
LINE
  8
0
 10
103.645
 20
688.577
 11
104.045
 21
689.061
  0
LINE
  8
0
 10
104.045
 20
689.061
 11
104.382
 21
689.591
  0
LINE
  8
0
 10
104.382
 20
689.591
 11
104.649
 21
690.159
  0
LINE
  8
0
 10
104.649
 20
690.159
 11
104.843
 21
690.757
  0
LINE
  8
0
 10
104.843
 20
690.757
 11
104.961
 21
691.373
  0
LINE
  8
0
 10
104.961
 20
691.373
 11
105
 21
692
  0
LINE
  8
0
 10
105
 20
692
 11
105
 21
712
  0
LINE
  8
0
 10
105
 20
712
 11
104.961
 21
712.627
  0
LINE
  8
0
 10
104.961
 20
712.627
 11
104.843
 21
713.243
  0
LINE
  8
0
 10
104.843
 20
713.243
 11
104.649
 21
713.841
  0
LINE
  8
0
 10
104.649
 20
713.841
 11
104.382
 21
714.409
  0
LINE
  8
0
 10
104.382
 20
714.409
 11
104.045
 21
714.939
  0
LINE
  8
0
 10
104.045
 20
714.939
 11
103.645
 21
715.423
  0
LINE
  8
0
 10
103.645
 20
715.423
 11
103.187
 21
715.853
  0
LINE
  8
0
 10
103.187
 20
715.853
 11
102.679
 21
716.222
  0
LINE
  8
0
 10
102.679
 20
716.222
 11
102.129
 21
716.524
  0
LINE
  8
0
 10
102.129
 20
716.524
 11
101.545
 21
716.755
  0
LINE
  8
0
 10
101.545
 20
716.755
 11
100.937
 21
716.911
  0
LINE
  8
0
 10
100.937
 20
716.911
 11
100.314
 21
716.99
  0
LINE
  8
0
 10
100.314
 20
716.99
 11
-100.314
 21
716.99
  0
LINE
  8
0
 10
-100.314
 20
716.99
 11
-100.937
 21
716.911
  0
LINE
  8
0
 10
-100.937
 20
716.911
 11
-101.545
 21
716.755
  0
LINE
  8
0
 10
-101.545
 20
716.755
 11
-102.129
 21
716.524
  0
LINE
  8
0
 10
-102.129
 20
716.524
 11
-102.679
 21
716.222
  0
LINE
  8
0
 10
-102.679
 20
716.222
 11
-103.187
 21
715.853
  0
LINE
  8
0
 10
-103.187
 20
715.853
 11
-103.645
 21
715.423
  0
LINE
  8
0
 10
-103.645
 20
715.423
 11
-104.045
 21
714.939
  0
LINE
  8
0
 10
-104.045
 20
714.939
 11
-104.382
 21
714.409
  0
LINE
  8
0
 10
-104.382
 20
714.409
 11
-104.649
 21
713.841
  0
LINE
  8
0
 10
-104.649
 20
713.841
 11
-104.843
 21
713.243
  0
LINE
  8
0
 10
-104.843
 20
713.243
 11
-104.961
 21
712.627
  0
LINE
  8
0
 10
-104.961
 20
712.627
 11
-105
 21
712
  0
LINE
  8
0
 10
-105
 20
712
 11
-105
 21
692
  0
LINE
  8
0
 10
-105
 20
692
 11
-104.961
 21
691.373
  0
LINE
  8
0
 10
-104.961
 20
691.373
 11
-104.843
 21
690.757
  0
LINE
  8
0
 10
-104.843
 20
690.757
 11
-104.649
 21
690.159
  0
LINE
  8
0
 10
-104.649
 20
690.159
 11
-104.382
 21
689.591
  0
LINE
  8
0
 10
-104.382
 20
689.591
 11
-104.045
 21
689.061
  0
LINE
  8
0
 10
-104.045
 20
689.061
 11
-103.645
 21
688.577
  0
LINE
  8
0
 10
-103.645
 20
688.577
 11
-103.187
 21
688.147
  0
LINE
  8
0
 10
-103.187
 20
688.147
 11
-102.679
 21
687.778
  0
LINE
  8
0
 10
-102.679
 20
687.778
 11
-102.129
 21
687.476
  0
LINE
  8
0
 10
-102.129
 20
687.476
 11
-101.545
 21
687.245
  0
LINE
  8
0
 10
-101.545
 20
687.245
 11
-100.937
 21
687.089
  0
LINE
  8
0
 10
-100.937
 20
687.089
 11
-100.314
 21
687.01
  0
LINE
  8
0
 10
-100.314
 20
687.01
 11
100.314
 21
687.01
  0
LINE
  8
0
 10
100.314
 20
687.01
 11
100.937
 21
687.089
  0
LINE
  8
0
 10
-99.7512
 20
688.508
 11
-100.25
 21
688.571
  0
LINE
  8
0
 10
-100.25
 20
688.571
 11
-100.736
 21
688.696
  0
LINE
  8
0
 10
-100.736
 20
688.696
 11
-101.203
 21
688.881
  0
LINE
  8
0
 10
-101.203
 20
688.881
 11
-101.643
 21
689.123
  0
LINE
  8
0
 10
-101.643
 20
689.123
 11
-102.05
 21
689.418
  0
LINE
  8
0
 10
-102.05
 20
689.418
 11
-102.416
 21
689.762
  0
LINE
  8
0
 10
-102.416
 20
689.762
 11
-102.736
 21
690.149
  0
LINE
  8
0
 10
-102.736
 20
690.149
 11
-103.005
 21
690.573
  0
LINE
  8
0
 10
-103.005
 20
690.573
 11
-103.219
 21
691.028
  0
LINE
  8
0
 10
-103.219
 20
691.028
 11
-103.374
 21
691.505
  0
LINE
  8
0
 10
-103.374
 20
691.505
 11
-103.468
 21
691.999
  0
LINE
  8
0
 10
-103.468
 20
691.999
 11
-103.5
 21
692.5
  0
LINE
  8
0
 10
-103.5
 20
692.5
 11
-103.5
 21
711.5
  0
LINE
  8
0
 10
-103.5
 20
711.5
 11
-103.468
 21
712.001
  0
LINE
  8
0
 10
-103.468
 20
712.001
 11
-103.374
 21
712.495
  0
LINE
  8
0
 10
-103.374
 20
712.495
 11
-103.219
 21
712.972
  0
LINE
  8
0
 10
-103.219
 20
712.972
 11
-103.005
 21
713.427
  0
LINE
  8
0
 10
-103.005
 20
713.427
 11
-102.736
 21
713.851
  0
LINE
  8
0
 10
-102.736
 20
713.851
 11
-102.416
 21
714.238
  0
LINE
  8
0
 10
-102.416
 20
714.238
 11
-102.05
 21
714.582
  0
LINE
  8
0
 10
-102.05
 20
714.582
 11
-101.643
 21
714.877
  0
LINE
  8
0
 10
-101.643
 20
714.877
 11
-101.203
 21
715.119
  0
LINE
  8
0
 10
-101.203
 20
715.119
 11
-100.736
 21
715.304
  0
LINE
  8
0
 10
-100.736
 20
715.304
 11
-100.25
 21
715.429
  0
LINE
  8
0
 10
-100.25
 20
715.429
 11
-99.7512
 21
715.492
  0
LINE
  8
0
 10
-99.7512
 20
715.492
 11
99.7512
 21
715.492
  0
LINE
  8
0
 10
99.7512
 20
715.492
 11
100.25
 21
715.429
  0
LINE
  8
0
 10
100.25
 20
715.429
 11
100.736
 21
715.304
  0
LINE
  8
0
 10
100.736
 20
715.304
 11
101.203
 21
715.119
  0
LINE
  8
0
 10
101.203
 20
715.119
 11
101.643
 21
714.877
  0
LINE
  8
0
 10
101.643
 20
714.877
 11
102.05
 21
714.582
  0
LINE
  8
0
 10
102.05
 20
714.582
 11
102.416
 21
714.238
  0
LINE
  8
0
 10
102.416
 20
714.238
 11
102.736
 21
713.851
  0
LINE
  8
0
 10
102.736
 20
713.851
 11
103.005
 21
713.427
  0
LINE
  8
0
 10
103.005
 20
713.427
 11
103.219
 21
712.972
  0
LINE
  8
0
 10
103.219
 20
712.972
 11
103.374
 21
712.495
  0
LINE
  8
0
 10
103.374
 20
712.495
 11
103.468
 21
712.001
  0
LINE
  8
0
 10
103.468
 20
712.001
 11
103.5
 21
711.5
  0
LINE
  8
0
 10
103.5
 20
711.5
 11
103.5
 21
692.5
  0
LINE
  8
0
 10
103.5
 20
692.5
 11
103.468
 21
691.999
  0
LINE
  8
0
 10
103.468
 20
691.999
 11
103.374
 21
691.505
  0
LINE
  8
0
 10
103.374
 20
691.505
 11
103.219
 21
691.028
  0
LINE
  8
0
 10
103.219
 20
691.028
 11
103.005
 21
690.573
  0
LINE
  8
0
 10
103.005
 20
690.573
 11
102.736
 21
690.149
  0
LINE
  8
0
 10
102.736
 20
690.149
 11
102.416
 21
689.762
  0
LINE
  8
0
 10
102.416
 20
689.762
 11
102.05
 21
689.418
  0
LINE
  8
0
 10
102.05
 20
689.418
 11
101.643
 21
689.123
  0
LINE
  8
0
 10
101.643
 20
689.123
 11
101.203
 21
688.881
  0
LINE
  8
0
 10
101.203
 20
688.881
 11
100.736
 21
688.696
  0
LINE
  8
0
 10
100.736
 20
688.696
 11
100.25
 21
688.571
  0
LINE
  8
0
 10
100.25
 20
688.571
 11
99.7512
 21
688.508
  0
LINE
  8
0
 10
99.7512
 20
688.508
 11
-99.7512
 21
688.508
  0
LINE
  8
0
 10
100.937
 20
648.089
 11
101.545
 21
648.245
  0
LINE
  8
0
 10
101.545
 20
648.245
 11
102.129
 21
648.476
  0
LINE
  8
0
 10
102.129
 20
648.476
 11
102.679
 21
648.778
  0
LINE
  8
0
 10
102.679
 20
648.778
 11
103.187
 21
649.147
  0
LINE
  8
0
 10
103.187
 20
649.147
 11
103.645
 21
649.577
  0
LINE
  8
0
 10
103.645
 20
649.577
 11
104.045
 21
650.061
  0
LINE
  8
0
 10
104.045
 20
650.061
 11
104.382
 21
650.591
  0
LINE
  8
0
 10
104.382
 20
650.591
 11
104.649
 21
651.159
  0
LINE
  8
0
 10
104.649
 20
651.159
 11
104.843
 21
651.757
  0
LINE
  8
0
 10
104.843
 20
651.757
 11
104.961
 21
652.373
  0
LINE
  8
0
 10
104.961
 20
652.373
 11
105
 21
653
  0
LINE
  8
0
 10
105
 20
653
 11
105
 21
673
  0
LINE
  8
0
 10
105
 20
673
 11
104.961
 21
673.627
  0
LINE
  8
0
 10
104.961
 20
673.627
 11
104.843
 21
674.243
  0
LINE
  8
0
 10
104.843
 20
674.243
 11
104.649
 21
674.841
  0
LINE
  8
0
 10
104.649
 20
674.841
 11
104.382
 21
675.409
  0
LINE
  8
0
 10
104.382
 20
675.409
 11
104.045
 21
675.939
  0
LINE
  8
0
 10
104.045
 20
675.939
 11
103.645
 21
676.423
  0
LINE
  8
0
 10
103.645
 20
676.423
 11
103.187
 21
676.853
  0
LINE
  8
0
 10
103.187
 20
676.853
 11
102.679
 21
677.222
  0
LINE
  8
0
 10
102.679
 20
677.222
 11
102.129
 21
677.524
  0
LINE
  8
0
 10
102.129
 20
677.524
 11
101.545
 21
677.755
  0
LINE
  8
0
 10
101.545
 20
677.755
 11
100.937
 21
677.911
  0
LINE
  8
0
 10
100.937
 20
677.911
 11
100.314
 21
677.99
  0
LINE
  8
0
 10
100.314
 20
677.99
 11
-100.314
 21
677.99
  0
LINE
  8
0
 10
-100.314
 20
677.99
 11
-100.937
 21
677.911
  0
LINE
  8
0
 10
-100.937
 20
677.911
 11
-101.545
 21
677.755
  0
LINE
  8
0
 10
-101.545
 20
677.755
 11
-102.129
 21
677.524
  0
LINE
  8
0
 10
-102.129
 20
677.524
 11
-102.679
 21
677.222
  0
LINE
  8
0
 10
-102.679
 20
677.222
 11
-103.187
 21
676.853
  0
LINE
  8
0
 10
-103.187
 20
676.853
 11
-103.645
 21
676.423
  0
LINE
  8
0
 10
-103.645
 20
676.423
 11
-104.045
 21
675.939
  0
LINE
  8
0
 10
-104.045
 20
675.939
 11
-104.382
 21
675.409
  0
LINE
  8
0
 10
-104.382
 20
675.409
 11
-104.649
 21
674.841
  0
LINE
  8
0
 10
-104.649
 20
674.841
 11
-104.843
 21
674.243
  0
LINE
  8
0
 10
-104.843
 20
674.243
 11
-104.961
 21
673.627
  0
LINE
  8
0
 10
-104.961
 20
673.627
 11
-105
 21
673
  0
LINE
  8
0
 10
-105
 20
673
 11
-105
 21
653
  0
LINE
  8
0
 10
-105
 20
653
 11
-104.961
 21
652.373
  0
LINE
  8
0
 10
-104.961
 20
652.373
 11
-104.843
 21
651.757
  0
LINE
  8
0
 10
-104.843
 20
651.757
 11
-104.649
 21
651.159
  0
LINE
  8
0
 10
-104.649
 20
651.159
 11
-104.382
 21
650.591
  0
LINE
  8
0
 10
-104.382
 20
650.591
 11
-104.045
 21
650.061
  0
LINE
  8
0
 10
-104.045
 20
650.061
 11
-103.645
 21
649.577
  0
LINE
  8
0
 10
-103.645
 20
649.577
 11
-103.187
 21
649.147
  0
LINE
  8
0
 10
-103.187
 20
649.147
 11
-102.679
 21
648.778
  0
LINE
  8
0
 10
-102.679
 20
648.778
 11
-102.129
 21
648.476
  0
LINE
  8
0
 10
-102.129
 20
648.476
 11
-101.545
 21
648.245
  0
LINE
  8
0
 10
-101.545
 20
648.245
 11
-100.937
 21
648.089
  0
LINE
  8
0
 10
-100.937
 20
648.089
 11
-100.314
 21
648.01
  0
LINE
  8
0
 10
-100.314
 20
648.01
 11
100.314
 21
648.01
  0
LINE
  8
0
 10
100.314
 20
648.01
 11
100.937
 21
648.089
  0
LINE
  8
0
 10
-99.7512
 20
649.508
 11
-100.25
 21
649.571
  0
LINE
  8
0
 10
-100.25
 20
649.571
 11
-100.736
 21
649.696
  0
LINE
  8
0
 10
-100.736
 20
649.696
 11
-101.203
 21
649.881
  0
LINE
  8
0
 10
-101.203
 20
649.881
 11
-101.643
 21
650.123
  0
LINE
  8
0
 10
-101.643
 20
650.123
 11
-102.05
 21
650.418
  0
LINE
  8
0
 10
-102.05
 20
650.418
 11
-102.416
 21
650.762
  0
LINE
  8
0
 10
-102.416
 20
650.762
 11
-102.736
 21
651.149
  0
LINE
  8
0
 10
-102.736
 20
651.149
 11
-103.005
 21
651.573
  0
LINE
  8
0
 10
-103.005
 20
651.573
 11
-103.219
 21
652.028
  0
LINE
  8
0
 10
-103.219
 20
652.028
 11
-103.374
 21
652.505
  0
LINE
  8
0
 10
-103.374
 20
652.505
 11
-103.468
 21
652.999
  0
LINE
  8
0
 10
-103.468
 20
652.999
 11
-103.5
 21
653.5
  0
LINE
  8
0
 10
-103.5
 20
653.5
 11
-103.5
 21
672.5
  0
LINE
  8
0
 10
-103.5
 20
672.5
 11
-103.468
 21
673.001
  0
LINE
  8
0
 10
-103.468
 20
673.001
 11
-103.374
 21
673.495
  0
LINE
  8
0
 10
-103.374
 20
673.495
 11
-103.219
 21
673.972
  0
LINE
  8
0
 10
-103.219
 20
673.972
 11
-103.005
 21
674.427
  0
LINE
  8
0
 10
-103.005
 20
674.427
 11
-102.736
 21
674.851
  0
LINE
  8
0
 10
-102.736
 20
674.851
 11
-102.416
 21
675.238
  0
LINE
  8
0
 10
-102.416
 20
675.238
 11
-102.05
 21
675.582
  0
LINE
  8
0
 10
-102.05
 20
675.582
 11
-101.643
 21
675.877
  0
LINE
  8
0
 10
-101.643
 20
675.877
 11
-101.203
 21
676.119
  0
LINE
  8
0
 10
-101.203
 20
676.119
 11
-100.736
 21
676.304
  0
LINE
  8
0
 10
-100.736
 20
676.304
 11
-100.25
 21
676.429
  0
LINE
  8
0
 10
-100.25
 20
676.429
 11
-99.7512
 21
676.492
  0
LINE
  8
0
 10
-99.7512
 20
676.492
 11
99.7512
 21
676.492
  0
LINE
  8
0
 10
99.7512
 20
676.492
 11
100.25
 21
676.429
  0
LINE
  8
0
 10
100.25
 20
676.429
 11
100.736
 21
676.304
  0
LINE
  8
0
 10
100.736
 20
676.304
 11
101.203
 21
676.119
  0
LINE
  8
0
 10
101.203
 20
676.119
 11
101.643
 21
675.877
  0
LINE
  8
0
 10
101.643
 20
675.877
 11
102.05
 21
675.582
  0
LINE
  8
0
 10
102.05
 20
675.582
 11
102.416
 21
675.238
  0
LINE
  8
0
 10
102.416
 20
675.238
 11
102.736
 21
674.851
  0
LINE
  8
0
 10
102.736
 20
674.851
 11
103.005
 21
674.427
  0
LINE
  8
0
 10
103.005
 20
674.427
 11
103.219
 21
673.972
  0
LINE
  8
0
 10
103.219
 20
673.972
 11
103.374
 21
673.495
  0
LINE
  8
0
 10
103.374
 20
673.495
 11
103.468
 21
673.001
  0
LINE
  8
0
 10
103.468
 20
673.001
 11
103.5
 21
672.5
  0
LINE
  8
0
 10
103.5
 20
672.5
 11
103.5
 21
653.5
  0
LINE
  8
0
 10
103.5
 20
653.5
 11
103.468
 21
652.999
  0
LINE
  8
0
 10
103.468
 20
652.999
 11
103.374
 21
652.505
  0
LINE
  8
0
 10
103.374
 20
652.505
 11
103.219
 21
652.028
  0
LINE
  8
0
 10
103.219
 20
652.028
 11
103.005
 21
651.573
  0
LINE
  8
0
 10
103.005
 20
651.573
 11
102.736
 21
651.149
  0
LINE
  8
0
 10
102.736
 20
651.149
 11
102.416
 21
650.762
  0
LINE
  8
0
 10
102.416
 20
650.762
 11
102.05
 21
650.418
  0
LINE
  8
0
 10
102.05
 20
650.418
 11
101.643
 21
650.123
  0
LINE
  8
0
 10
101.643
 20
650.123
 11
101.203
 21
649.881
  0
LINE
  8
0
 10
101.203
 20
649.881
 11
100.736
 21
649.696
  0
LINE
  8
0
 10
100.736
 20
649.696
 11
100.25
 21
649.571
  0
LINE
  8
0
 10
100.25
 20
649.571
 11
99.7512
 21
649.508
  0
LINE
  8
0
 10
99.7512
 20
649.508
 11
-99.7512
 21
649.508
  0
LINE
  8
0
 10
100.937
 20
609.089
 11
101.545
 21
609.245
  0
LINE
  8
0
 10
101.545
 20
609.245
 11
102.129
 21
609.476
  0
LINE
  8
0
 10
102.129
 20
609.476
 11
102.679
 21
609.778
  0
LINE
  8
0
 10
102.679
 20
609.778
 11
103.187
 21
610.147
  0
LINE
  8
0
 10
103.187
 20
610.147
 11
103.645
 21
610.577
  0
LINE
  8
0
 10
103.645
 20
610.577
 11
104.045
 21
611.061
  0
LINE
  8
0
 10
104.045
 20
611.061
 11
104.382
 21
611.591
  0
LINE
  8
0
 10
104.382
 20
611.591
 11
104.649
 21
612.159
  0
LINE
  8
0
 10
104.649
 20
612.159
 11
104.843
 21
612.757
  0
LINE
  8
0
 10
104.843
 20
612.757
 11
104.961
 21
613.373
  0
LINE
  8
0
 10
104.961
 20
613.373
 11
105
 21
614
  0
LINE
  8
0
 10
105
 20
614
 11
105
 21
634
  0
LINE
  8
0
 10
105
 20
634
 11
104.961
 21
634.627
  0
LINE
  8
0
 10
104.961
 20
634.627
 11
104.843
 21
635.243
  0
LINE
  8
0
 10
104.843
 20
635.243
 11
104.649
 21
635.841
  0
LINE
  8
0
 10
104.649
 20
635.841
 11
104.382
 21
636.409
  0
LINE
  8
0
 10
104.382
 20
636.409
 11
104.045
 21
636.939
  0
LINE
  8
0
 10
104.045
 20
636.939
 11
103.645
 21
637.423
  0
LINE
  8
0
 10
103.645
 20
637.423
 11
103.187
 21
637.853
  0
LINE
  8
0
 10
103.187
 20
637.853
 11
102.679
 21
638.222
  0
LINE
  8
0
 10
102.679
 20
638.222
 11
102.129
 21
638.524
  0
LINE
  8
0
 10
102.129
 20
638.524
 11
101.545
 21
638.755
  0
LINE
  8
0
 10
101.545
 20
638.755
 11
100.937
 21
638.911
  0
LINE
  8
0
 10
100.937
 20
638.911
 11
100.314
 21
638.99
  0
LINE
  8
0
 10
100.314
 20
638.99
 11
-100.314
 21
638.99
  0
LINE
  8
0
 10
-100.314
 20
638.99
 11
-100.937
 21
638.911
  0
LINE
  8
0
 10
-100.937
 20
638.911
 11
-101.545
 21
638.755
  0
LINE
  8
0
 10
-101.545
 20
638.755
 11
-102.129
 21
638.524
  0
LINE
  8
0
 10
-102.129
 20
638.524
 11
-102.679
 21
638.222
  0
LINE
  8
0
 10
-102.679
 20
638.222
 11
-103.187
 21
637.853
  0
LINE
  8
0
 10
-103.187
 20
637.853
 11
-103.645
 21
637.423
  0
LINE
  8
0
 10
-103.645
 20
637.423
 11
-104.045
 21
636.939
  0
LINE
  8
0
 10
-104.045
 20
636.939
 11
-104.382
 21
636.409
  0
LINE
  8
0
 10
-104.382
 20
636.409
 11
-104.649
 21
635.841
  0
LINE
  8
0
 10
-104.649
 20
635.841
 11
-104.843
 21
635.243
  0
LINE
  8
0
 10
-104.843
 20
635.243
 11
-104.961
 21
634.627
  0
LINE
  8
0
 10
-104.961
 20
634.627
 11
-105
 21
634
  0
LINE
  8
0
 10
-105
 20
634
 11
-105
 21
614
  0
LINE
  8
0
 10
-105
 20
614
 11
-104.961
 21
613.373
  0
LINE
  8
0
 10
-104.961
 20
613.373
 11
-104.843
 21
612.757
  0
LINE
  8
0
 10
-104.843
 20
612.757
 11
-104.649
 21
612.159
  0
LINE
  8
0
 10
-104.649
 20
612.159
 11
-104.382
 21
611.591
  0
LINE
  8
0
 10
-104.382
 20
611.591
 11
-104.045
 21
611.061
  0
LINE
  8
0
 10
-104.045
 20
611.061
 11
-103.645
 21
610.577
  0
LINE
  8
0
 10
-103.645
 20
610.577
 11
-103.187
 21
610.147
  0
LINE
  8
0
 10
-103.187
 20
610.147
 11
-102.679
 21
609.778
  0
LINE
  8
0
 10
-102.679
 20
609.778
 11
-102.129
 21
609.476
  0
LINE
  8
0
 10
-102.129
 20
609.476
 11
-101.545
 21
609.245
  0
LINE
  8
0
 10
-101.545
 20
609.245
 11
-100.937
 21
609.089
  0
LINE
  8
0
 10
-100.937
 20
609.089
 11
-100.314
 21
609.01
  0
LINE
  8
0
 10
-100.314
 20
609.01
 11
100.314
 21
609.01
  0
LINE
  8
0
 10
100.314
 20
609.01
 11
100.937
 21
609.089
  0
LINE
  8
0
 10
-99.6955
 20
611.393
 11
-100.083
 21
611.442
  0
LINE
  8
0
 10
-100.083
 20
611.442
 11
-100.462
 21
611.539
  0
LINE
  8
0
 10
-100.462
 20
611.539
 11
-100.825
 21
611.683
  0
LINE
  8
0
 10
-100.825
 20
611.683
 11
-101.168
 21
611.872
  0
LINE
  8
0
 10
-101.168
 20
611.872
 11
-101.484
 21
612.101
  0
LINE
  8
0
 10
-101.484
 20
612.101
 11
-101.769
 21
612.369
  0
LINE
  8
0
 10
-101.769
 20
612.369
 11
-102.018
 21
612.67
  0
LINE
  8
0
 10
-102.018
 20
612.67
 11
-102.228
 21
613
  0
LINE
  8
0
 10
-102.228
 20
613
 11
-102.394
 21
613.354
  0
LINE
  8
0
 10
-102.394
 20
613.354
 11
-102.515
 21
613.726
  0
LINE
  8
0
 10
-102.515
 20
613.726
 11
-102.588
 21
614.11
  0
LINE
  8
0
 10
-102.588
 20
614.11
 11
-102.613
 21
614.5
  0
LINE
  8
0
 10
-102.613
 20
614.5
 11
-102.613
 21
633.5
  0
LINE
  8
0
 10
-102.613
 20
633.5
 11
-102.588
 21
633.89
  0
LINE
  8
0
 10
-102.588
 20
633.89
 11
-102.515
 21
634.274
  0
LINE
  8
0
 10
-102.515
 20
634.274
 11
-102.394
 21
634.646
  0
LINE
  8
0
 10
-102.394
 20
634.646
 11
-102.228
 21
635
  0
LINE
  8
0
 10
-102.228
 20
635
 11
-102.018
 21
635.33
  0
LINE
  8
0
 10
-102.018
 20
635.33
 11
-101.769
 21
635.631
  0
LINE
  8
0
 10
-101.769
 20
635.631
 11
-101.484
 21
635.899
  0
LINE
  8
0
 10
-101.484
 20
635.899
 11
-101.168
 21
636.128
  0
LINE
  8
0
 10
-101.168
 20
636.128
 11
-100.825
 21
636.317
  0
LINE
  8
0
 10
-100.825
 20
636.317
 11
-100.462
 21
636.461
  0
LINE
  8
0
 10
-100.462
 20
636.461
 11
-100.083
 21
636.558
  0
LINE
  8
0
 10
-100.083
 20
636.558
 11
-99.6955
 21
636.607
  0
LINE
  8
0
 10
-99.6955
 20
636.607
 11
99.6955
 21
636.607
  0
LINE
  8
0
 10
99.6955
 20
636.607
 11
100.083
 21
636.558
  0
LINE
  8
0
 10
100.083
 20
636.558
 11
100.462
 21
636.461
  0
LINE
  8
0
 10
100.462
 20
636.461
 11
100.825
 21
636.317
  0
LINE
  8
0
 10
100.825
 20
636.317
 11
101.168
 21
636.128
  0
LINE
  8
0
 10
101.168
 20
636.128
 11
101.484
 21
635.899
  0
LINE
  8
0
 10
101.484
 20
635.899
 11
101.769
 21
635.631
  0
LINE
  8
0
 10
101.769
 20
635.631
 11
102.018
 21
635.33
  0
LINE
  8
0
 10
102.018
 20
635.33
 11
102.228
 21
635
  0
LINE
  8
0
 10
102.228
 20
635
 11
102.394
 21
634.646
  0
LINE
  8
0
 10
102.394
 20
634.646
 11
102.515
 21
634.274
  0
LINE
  8
0
 10
102.515
 20
634.274
 11
102.588
 21
633.89
  0
LINE
  8
0
 10
102.588
 20
633.89
 11
102.613
 21
633.5
  0
LINE
  8
0
 10
102.613
 20
633.5
 11
102.613
 21
614.5
  0
LINE
  8
0
 10
102.613
 20
614.5
 11
102.588
 21
614.11
  0
LINE
  8
0
 10
102.588
 20
614.11
 11
102.515
 21
613.726
  0
LINE
  8
0
 10
102.515
 20
613.726
 11
102.394
 21
613.354
  0
LINE
  8
0
 10
102.394
 20
613.354
 11
102.228
 21
613
  0
LINE
  8
0
 10
102.228
 20
613
 11
102.018
 21
612.67
  0
LINE
  8
0
 10
102.018
 20
612.67
 11
101.769
 21
612.369
  0
LINE
  8
0
 10
101.769
 20
612.369
 11
101.484
 21
612.101
  0
LINE
  8
0
 10
101.484
 20
612.101
 11
101.168
 21
611.872
  0
LINE
  8
0
 10
101.168
 20
611.872
 11
100.825
 21
611.683
  0
LINE
  8
0
 10
100.825
 20
611.683
 11
100.462
 21
611.539
  0
LINE
  8
0
 10
100.462
 20
611.539
 11
100.083
 21
611.442
  0
LINE
  8
0
 10
100.083
 20
611.442
 11
99.6955
 21
611.393
  0
LINE
  8
0
 10
99.6955
 20
611.393
 11
-99.6955
 21
611.393
  0
LINE
  8
0
 10
100.937
 20
570.089
 11
101.545
 21
570.245
  0
LINE
  8
0
 10
101.545
 20
570.245
 11
102.129
 21
570.476
  0
LINE
  8
0
 10
102.129
 20
570.476
 11
102.679
 21
570.778
  0
LINE
  8
0
 10
102.679
 20
570.778
 11
103.187
 21
571.147
  0
LINE
  8
0
 10
103.187
 20
571.147
 11
103.645
 21
571.577
  0
LINE
  8
0
 10
103.645
 20
571.577
 11
104.045
 21
572.061
  0
LINE
  8
0
 10
104.045
 20
572.061
 11
104.382
 21
572.591
  0
LINE
  8
0
 10
104.382
 20
572.591
 11
104.649
 21
573.159
  0
LINE
  8
0
 10
104.649
 20
573.159
 11
104.843
 21
573.757
  0
LINE
  8
0
 10
104.843
 20
573.757
 11
104.961
 21
574.373
  0
LINE
  8
0
 10
104.961
 20
574.373
 11
105
 21
575
  0
LINE
  8
0
 10
105
 20
575
 11
105
 21
595
  0
LINE
  8
0
 10
105
 20
595
 11
104.961
 21
595.627
  0
LINE
  8
0
 10
104.961
 20
595.627
 11
104.843
 21
596.243
  0
LINE
  8
0
 10
104.843
 20
596.243
 11
104.649
 21
596.841
  0
LINE
  8
0
 10
104.649
 20
596.841
 11
104.382
 21
597.409
  0
LINE
  8
0
 10
104.382
 20
597.409
 11
104.045
 21
597.939
  0
LINE
  8
0
 10
104.045
 20
597.939
 11
103.645
 21
598.423
  0
LINE
  8
0
 10
103.645
 20
598.423
 11
103.187
 21
598.853
  0
LINE
  8
0
 10
103.187
 20
598.853
 11
102.679
 21
599.222
  0
LINE
  8
0
 10
102.679
 20
599.222
 11
102.129
 21
599.524
  0
LINE
  8
0
 10
102.129
 20
599.524
 11
101.545
 21
599.755
  0
LINE
  8
0
 10
101.545
 20
599.755
 11
100.937
 21
599.911
  0
LINE
  8
0
 10
100.937
 20
599.911
 11
100.314
 21
599.99
  0
LINE
  8
0
 10
100.314
 20
599.99
 11
-100.314
 21
599.99
  0
LINE
  8
0
 10
-100.314
 20
599.99
 11
-100.937
 21
599.911
  0
LINE
  8
0
 10
-100.937
 20
599.911
 11
-101.545
 21
599.755
  0
LINE
  8
0
 10
-101.545
 20
599.755
 11
-102.129
 21
599.524
  0
LINE
  8
0
 10
-102.129
 20
599.524
 11
-102.679
 21
599.222
  0
LINE
  8
0
 10
-102.679
 20
599.222
 11
-103.187
 21
598.853
  0
LINE
  8
0
 10
-103.187
 20
598.853
 11
-103.645
 21
598.423
  0
LINE
  8
0
 10
-103.645
 20
598.423
 11
-104.045
 21
597.939
  0
LINE
  8
0
 10
-104.045
 20
597.939
 11
-104.382
 21
597.409
  0
LINE
  8
0
 10
-104.382
 20
597.409
 11
-104.649
 21
596.841
  0
LINE
  8
0
 10
-104.649
 20
596.841
 11
-104.843
 21
596.243
  0
LINE
  8
0
 10
-104.843
 20
596.243
 11
-104.961
 21
595.627
  0
LINE
  8
0
 10
-104.961
 20
595.627
 11
-105
 21
595
  0
LINE
  8
0
 10
-105
 20
595
 11
-105
 21
575
  0
LINE
  8
0
 10
-105
 20
575
 11
-104.961
 21
574.373
  0
LINE
  8
0
 10
-104.961
 20
574.373
 11
-104.843
 21
573.757
  0
LINE
  8
0
 10
-104.843
 20
573.757
 11
-104.649
 21
573.159
  0
LINE
  8
0
 10
-104.649
 20
573.159
 11
-104.382
 21
572.591
  0
LINE
  8
0
 10
-104.382
 20
572.591
 11
-104.045
 21
572.061
  0
LINE
  8
0
 10
-104.045
 20
572.061
 11
-103.645
 21
571.577
  0
LINE
  8
0
 10
-103.645
 20
571.577
 11
-103.187
 21
571.147
  0
LINE
  8
0
 10
-103.187
 20
571.147
 11
-102.679
 21
570.778
  0
LINE
  8
0
 10
-102.679
 20
570.778
 11
-102.129
 21
570.476
  0
LINE
  8
0
 10
-102.129
 20
570.476
 11
-101.545
 21
570.245
  0
LINE
  8
0
 10
-101.545
 20
570.245
 11
-100.937
 21
570.089
  0
LINE
  8
0
 10
-100.937
 20
570.089
 11
-100.314
 21
570.01
  0
LINE
  8
0
 10
-100.314
 20
570.01
 11
100.314
 21
570.01
  0
LINE
  8
0
 10
100.314
 20
570.01
 11
100.937
 21
570.089
  0
LINE
  8
0
 10
-97.6341
 20
590.369
 11
-97.9001
 21
590.403
  0
LINE
  8
0
 10
-97.9001
 20
590.403
 11
-98.1598
 21
590.469
  0
LINE
  8
0
 10
-98.1598
 20
590.469
 11
-98.4092
 21
590.568
  0
LINE
  8
0
 10
-98.4092
 20
590.568
 11
-98.6441
 21
590.697
  0
LINE
  8
0
 10
-98.6441
 20
590.697
 11
-98.8611
 21
590.855
  0
LINE
  8
0
 10
-98.8611
 20
590.855
 11
-99.0566
 21
591.038
  0
LINE
  8
0
 10
-99.0566
 20
591.038
 11
-99.2275
 21
591.245
  0
LINE
  8
0
 10
-99.2275
 20
591.245
 11
-99.3712
 21
591.471
  0
LINE
  8
0
 10
-99.3712
 20
591.471
 11
-99.4853
 21
591.714
  0
LINE
  8
0
 10
-99.4853
 20
591.714
 11
-99.5682
 21
591.969
  0
LINE
  8
0
 10
-99.5682
 20
591.969
 11
-99.6185
 21
592.232
  0
LINE
  8
0
 10
-99.6185
 20
592.232
 11
-99.6353
 21
592.5
  0
LINE
  8
0
 10
-99.6353
 20
592.5
 11
-99.6185
 21
592.768
  0
LINE
  8
0
 10
-99.6185
 20
592.768
 11
-99.5682
 21
593.031
  0
LINE
  8
0
 10
-99.5682
 20
593.031
 11
-99.4853
 21
593.286
  0
LINE
  8
0
 10
-99.4853
 20
593.286
 11
-99.3712
 21
593.529
  0
LINE
  8
0
 10
-99.3712
 20
593.529
 11
-99.2275
 21
593.755
  0
LINE
  8
0
 10
-99.2275
 20
593.755
 11
-99.0566
 21
593.962
  0
LINE
  8
0
 10
-99.0566
 20
593.962
 11
-98.8611
 21
594.145
  0
LINE
  8
0
 10
-98.8611
 20
594.145
 11
-98.6441
 21
594.303
  0
LINE
  8
0
 10
-98.6441
 20
594.303
 11
-98.4092
 21
594.432
  0
LINE
  8
0
 10
-98.4092
 20
594.432
 11
-98.1598
 21
594.531
  0
LINE
  8
0
 10
-98.1598
 20
594.531
 11
-97.9001
 21
594.597
  0
LINE
  8
0
 10
-97.9001
 20
594.597
 11
-97.6341
 21
594.631
  0
LINE
  8
0
 10
-97.6341
 20
594.631
 11
-97.3659
 21
594.631
  0
LINE
  8
0
 10
-97.3659
 20
594.631
 11
-97.0999
 21
594.597
  0
LINE
  8
0
 10
-97.0999
 20
594.597
 11
-96.8401
 21
594.531
  0
LINE
  8
0
 10
-96.8401
 20
594.531
 11
-96.5908
 21
594.432
  0
LINE
  8
0
 10
-96.5908
 20
594.432
 11
-96.3559
 21
594.303
  0
LINE
  8
0
 10
-96.3559
 20
594.303
 11
-96.1389
 21
594.145
  0
LINE
  8
0
 10
-96.1389
 20
594.145
 11
-95.9434
 21
593.962
  0
LINE
  8
0
 10
-95.9434
 20
593.962
 11
-95.7725
 21
593.755
  0
LINE
  8
0
 10
-95.7725
 20
593.755
 11
-95.6288
 21
593.529
  0
LINE
  8
0
 10
-95.6288
 20
593.529
 11
-95.5146
 21
593.286
  0
LINE
  8
0
 10
-95.5146
 20
593.286
 11
-95.4318
 21
593.031
  0
LINE
  8
0
 10
-95.4318
 20
593.031
 11
-95.3815
 21
592.768
  0
LINE
  8
0
 10
-95.3815
 20
592.768
 11
-95.3647
 21
592.5
  0
LINE
  8
0
 10
-95.3647
 20
592.5
 11
-95.3815
 21
592.232
  0
LINE
  8
0
 10
-95.3815
 20
592.232
 11
-95.4318
 21
591.969
  0
LINE
  8
0
 10
-95.4318
 20
591.969
 11
-95.5146
 21
591.714
  0
LINE
  8
0
 10
-95.5146
 20
591.714
 11
-95.6288
 21
591.471
  0
LINE
  8
0
 10
-95.6288
 20
591.471
 11
-95.7725
 21
591.245
  0
LINE
  8
0
 10
-95.7725
 20
591.245
 11
-95.9434
 21
591.038
  0
LINE
  8
0
 10
-95.9434
 20
591.038
 11
-96.1389
 21
590.855
  0
LINE
  8
0
 10
-96.1389
 20
590.855
 11
-96.3559
 21
590.697
  0
LINE
  8
0
 10
-96.3559
 20
590.697
 11
-96.5908
 21
590.568
  0
LINE
  8
0
 10
-96.5908
 20
590.568
 11
-96.8401
 21
590.469
  0
LINE
  8
0
 10
-96.8401
 20
590.469
 11
-97.0999
 21
590.403
  0
LINE
  8
0
 10
-97.0999
 20
590.403
 11
-97.3659
 21
590.369
  0
LINE
  8
0
 10
-97.3659
 20
590.369
 11
-97.6341
 21
590.369
  0
LINE
  8
0
 10
97.3659
 20
590.369
 11
97.0999
 21
590.403
  0
LINE
  8
0
 10
97.0999
 20
590.403
 11
96.8401
 21
590.469
  0
LINE
  8
0
 10
96.8401
 20
590.469
 11
96.5908
 21
590.568
  0
LINE
  8
0
 10
96.5908
 20
590.568
 11
96.3559
 21
590.697
  0
LINE
  8
0
 10
96.3559
 20
590.697
 11
96.1389
 21
590.855
  0
LINE
  8
0
 10
96.1389
 20
590.855
 11
95.9434
 21
591.038
  0
LINE
  8
0
 10
95.9434
 20
591.038
 11
95.7725
 21
591.245
  0
LINE
  8
0
 10
95.7725
 20
591.245
 11
95.6288
 21
591.471
  0
LINE
  8
0
 10
95.6288
 20
591.471
 11
95.5146
 21
591.714
  0
LINE
  8
0
 10
95.5146
 20
591.714
 11
95.4318
 21
591.969
  0
LINE
  8
0
 10
95.4318
 20
591.969
 11
95.3815
 21
592.232
  0
LINE
  8
0
 10
95.3815
 20
592.232
 11
95.3647
 21
592.5
  0
LINE
  8
0
 10
95.3647
 20
592.5
 11
95.3815
 21
592.768
  0
LINE
  8
0
 10
95.3815
 20
592.768
 11
95.4318
 21
593.031
  0
LINE
  8
0
 10
95.4318
 20
593.031
 11
95.5146
 21
593.286
  0
LINE
  8
0
 10
95.5146
 20
593.286
 11
95.6288
 21
593.529
  0
LINE
  8
0
 10
95.6288
 20
593.529
 11
95.7725
 21
593.755
  0
LINE
  8
0
 10
95.7725
 20
593.755
 11
95.9434
 21
593.962
  0
LINE
  8
0
 10
95.9434
 20
593.962
 11
96.1389
 21
594.145
  0
LINE
  8
0
 10
96.1389
 20
594.145
 11
96.3559
 21
594.303
  0
LINE
  8
0
 10
96.3559
 20
594.303
 11
96.5908
 21
594.432
  0
LINE
  8
0
 10
96.5908
 20
594.432
 11
96.8401
 21
594.531
  0
LINE
  8
0
 10
96.8401
 20
594.531
 11
97.0999
 21
594.597
  0
LINE
  8
0
 10
97.0999
 20
594.597
 11
97.3659
 21
594.631
  0
LINE
  8
0
 10
97.3659
 20
594.631
 11
97.6341
 21
594.631
  0
LINE
  8
0
 10
97.6341
 20
594.631
 11
97.9001
 21
594.597
  0
LINE
  8
0
 10
97.9001
 20
594.597
 11
98.1598
 21
594.531
  0
LINE
  8
0
 10
98.1598
 20
594.531
 11
98.4092
 21
594.432
  0
LINE
  8
0
 10
98.4092
 20
594.432
 11
98.6441
 21
594.303
  0
LINE
  8
0
 10
98.6441
 20
594.303
 11
98.8611
 21
594.145
  0
LINE
  8
0
 10
98.8611
 20
594.145
 11
99.0566
 21
593.962
  0
LINE
  8
0
 10
99.0566
 20
593.962
 11
99.2275
 21
593.755
  0
LINE
  8
0
 10
99.2275
 20
593.755
 11
99.3712
 21
593.529
  0
LINE
  8
0
 10
99.3712
 20
593.529
 11
99.4853
 21
593.286
  0
LINE
  8
0
 10
99.4853
 20
593.286
 11
99.5682
 21
593.031
  0
LINE
  8
0
 10
99.5682
 20
593.031
 11
99.6185
 21
592.768
  0
LINE
  8
0
 10
99.6185
 20
592.768
 11
99.6353
 21
592.5
  0
LINE
  8
0
 10
99.6353
 20
592.5
 11
99.6185
 21
592.232
  0
LINE
  8
0
 10
99.6185
 20
592.232
 11
99.5682
 21
591.969
  0
LINE
  8
0
 10
99.5682
 20
591.969
 11
99.4853
 21
591.714
  0
LINE
  8
0
 10
99.4853
 20
591.714
 11
99.3712
 21
591.471
  0
LINE
  8
0
 10
99.3712
 20
591.471
 11
99.2275
 21
591.245
  0
LINE
  8
0
 10
99.2275
 20
591.245
 11
99.0566
 21
591.038
  0
LINE
  8
0
 10
99.0566
 20
591.038
 11
98.8611
 21
590.855
  0
LINE
  8
0
 10
98.8611
 20
590.855
 11
98.6441
 21
590.697
  0
LINE
  8
0
 10
98.6441
 20
590.697
 11
98.4092
 21
590.568
  0
LINE
  8
0
 10
98.4092
 20
590.568
 11
98.1598
 21
590.469
  0
LINE
  8
0
 10
98.1598
 20
590.469
 11
97.9001
 21
590.403
  0
LINE
  8
0
 10
97.9001
 20
590.403
 11
97.6341
 21
590.369
  0
LINE
  8
0
 10
97.6341
 20
590.369
 11
97.3659
 21
590.369
  0
LINE
  8
0
 10
-97.6341
 20
575.369
 11
-97.9001
 21
575.403
  0
LINE
  8
0
 10
-97.9001
 20
575.403
 11
-98.1598
 21
575.469
  0
LINE
  8
0
 10
-98.1598
 20
575.469
 11
-98.4092
 21
575.568
  0
LINE
  8
0
 10
-98.4092
 20
575.568
 11
-98.6441
 21
575.697
  0
LINE
  8
0
 10
-98.6441
 20
575.697
 11
-98.8611
 21
575.855
  0
LINE
  8
0
 10
-98.8611
 20
575.855
 11
-99.0566
 21
576.038
  0
LINE
  8
0
 10
-99.0566
 20
576.038
 11
-99.2275
 21
576.245
  0
LINE
  8
0
 10
-99.2275
 20
576.245
 11
-99.3712
 21
576.471
  0
LINE
  8
0
 10
-99.3712
 20
576.471
 11
-99.4853
 21
576.714
  0
LINE
  8
0
 10
-99.4853
 20
576.714
 11
-99.5682
 21
576.969
  0
LINE
  8
0
 10
-99.5682
 20
576.969
 11
-99.6185
 21
577.232
  0
LINE
  8
0
 10
-99.6185
 20
577.232
 11
-99.6353
 21
577.5
  0
LINE
  8
0
 10
-99.6353
 20
577.5
 11
-99.6185
 21
577.768
  0
LINE
  8
0
 10
-99.6185
 20
577.768
 11
-99.5682
 21
578.031
  0
LINE
  8
0
 10
-99.5682
 20
578.031
 11
-99.4853
 21
578.286
  0
LINE
  8
0
 10
-99.4853
 20
578.286
 11
-99.3712
 21
578.529
  0
LINE
  8
0
 10
-99.3712
 20
578.529
 11
-99.2275
 21
578.755
  0
LINE
  8
0
 10
-99.2275
 20
578.755
 11
-99.0566
 21
578.962
  0
LINE
  8
0
 10
-99.0566
 20
578.962
 11
-98.8611
 21
579.145
  0
LINE
  8
0
 10
-98.8611
 20
579.145
 11
-98.6441
 21
579.303
  0
LINE
  8
0
 10
-98.6441
 20
579.303
 11
-98.4092
 21
579.432
  0
LINE
  8
0
 10
-98.4092
 20
579.432
 11
-98.1598
 21
579.531
  0
LINE
  8
0
 10
-98.1598
 20
579.531
 11
-97.9001
 21
579.597
  0
LINE
  8
0
 10
-97.9001
 20
579.597
 11
-97.6341
 21
579.631
  0
LINE
  8
0
 10
-97.6341
 20
579.631
 11
-97.3659
 21
579.631
  0
LINE
  8
0
 10
-97.3659
 20
579.631
 11
-97.0999
 21
579.597
  0
LINE
  8
0
 10
-97.0999
 20
579.597
 11
-96.8401
 21
579.531
  0
LINE
  8
0
 10
-96.8401
 20
579.531
 11
-96.5908
 21
579.432
  0
LINE
  8
0
 10
-96.5908
 20
579.432
 11
-96.3559
 21
579.303
  0
LINE
  8
0
 10
-96.3559
 20
579.303
 11
-96.1389
 21
579.145
  0
LINE
  8
0
 10
-96.1389
 20
579.145
 11
-95.9434
 21
578.962
  0
LINE
  8
0
 10
-95.9434
 20
578.962
 11
-95.7725
 21
578.755
  0
LINE
  8
0
 10
-95.7725
 20
578.755
 11
-95.6288
 21
578.529
  0
LINE
  8
0
 10
-95.6288
 20
578.529
 11
-95.5146
 21
578.286
  0
LINE
  8
0
 10
-95.5146
 20
578.286
 11
-95.4318
 21
578.031
  0
LINE
  8
0
 10
-95.4318
 20
578.031
 11
-95.3815
 21
577.768
  0
LINE
  8
0
 10
-95.3815
 20
577.768
 11
-95.3647
 21
577.5
  0
LINE
  8
0
 10
-95.3647
 20
577.5
 11
-95.3815
 21
577.232
  0
LINE
  8
0
 10
-95.3815
 20
577.232
 11
-95.4318
 21
576.969
  0
LINE
  8
0
 10
-95.4318
 20
576.969
 11
-95.5146
 21
576.714
  0
LINE
  8
0
 10
-95.5146
 20
576.714
 11
-95.6288
 21
576.471
  0
LINE
  8
0
 10
-95.6288
 20
576.471
 11
-95.7725
 21
576.245
  0
LINE
  8
0
 10
-95.7725
 20
576.245
 11
-95.9434
 21
576.038
  0
LINE
  8
0
 10
-95.9434
 20
576.038
 11
-96.1389
 21
575.855
  0
LINE
  8
0
 10
-96.1389
 20
575.855
 11
-96.3559
 21
575.697
  0
LINE
  8
0
 10
-96.3559
 20
575.697
 11
-96.5908
 21
575.568
  0
LINE
  8
0
 10
-96.5908
 20
575.568
 11
-96.8401
 21
575.469
  0
LINE
  8
0
 10
-96.8401
 20
575.469
 11
-97.0999
 21
575.403
  0
LINE
  8
0
 10
-97.0999
 20
575.403
 11
-97.3659
 21
575.369
  0
LINE
  8
0
 10
-97.3659
 20
575.369
 11
-97.6341
 21
575.369
  0
LINE
  8
0
 10
97.3659
 20
575.369
 11
97.0999
 21
575.403
  0
LINE
  8
0
 10
97.0999
 20
575.403
 11
96.8401
 21
575.469
  0
LINE
  8
0
 10
96.8401
 20
575.469
 11
96.5908
 21
575.568
  0
LINE
  8
0
 10
96.5908
 20
575.568
 11
96.3559
 21
575.697
  0
LINE
  8
0
 10
96.3559
 20
575.697
 11
96.1389
 21
575.855
  0
LINE
  8
0
 10
96.1389
 20
575.855
 11
95.9434
 21
576.038
  0
LINE
  8
0
 10
95.9434
 20
576.038
 11
95.7725
 21
576.245
  0
LINE
  8
0
 10
95.7725
 20
576.245
 11
95.6288
 21
576.471
  0
LINE
  8
0
 10
95.6288
 20
576.471
 11
95.5146
 21
576.714
  0
LINE
  8
0
 10
95.5146
 20
576.714
 11
95.4318
 21
576.969
  0
LINE
  8
0
 10
95.4318
 20
576.969
 11
95.3815
 21
577.232
  0
LINE
  8
0
 10
95.3815
 20
577.232
 11
95.3647
 21
577.5
  0
LINE
  8
0
 10
95.3647
 20
577.5
 11
95.3815
 21
577.768
  0
LINE
  8
0
 10
95.3815
 20
577.768
 11
95.4318
 21
578.031
  0
LINE
  8
0
 10
95.4318
 20
578.031
 11
95.5146
 21
578.286
  0
LINE
  8
0
 10
95.5146
 20
578.286
 11
95.6288
 21
578.529
  0
LINE
  8
0
 10
95.6288
 20
578.529
 11
95.7725
 21
578.755
  0
LINE
  8
0
 10
95.7725
 20
578.755
 11
95.9434
 21
578.962
  0
LINE
  8
0
 10
95.9434
 20
578.962
 11
96.1389
 21
579.145
  0
LINE
  8
0
 10
96.1389
 20
579.145
 11
96.3559
 21
579.303
  0
LINE
  8
0
 10
96.3559
 20
579.303
 11
96.5908
 21
579.432
  0
LINE
  8
0
 10
96.5908
 20
579.432
 11
96.8401
 21
579.531
  0
LINE
  8
0
 10
96.8401
 20
579.531
 11
97.0999
 21
579.597
  0
LINE
  8
0
 10
97.0999
 20
579.597
 11
97.3659
 21
579.631
  0
LINE
  8
0
 10
97.3659
 20
579.631
 11
97.6341
 21
579.631
  0
LINE
  8
0
 10
97.6341
 20
579.631
 11
97.9001
 21
579.597
  0
LINE
  8
0
 10
97.9001
 20
579.597
 11
98.1598
 21
579.531
  0
LINE
  8
0
 10
98.1598
 20
579.531
 11
98.4092
 21
579.432
  0
LINE
  8
0
 10
98.4092
 20
579.432
 11
98.6441
 21
579.303
  0
LINE
  8
0
 10
98.6441
 20
579.303
 11
98.8611
 21
579.145
  0
LINE
  8
0
 10
98.8611
 20
579.145
 11
99.0566
 21
578.962
  0
LINE
  8
0
 10
99.0566
 20
578.962
 11
99.2275
 21
578.755
  0
LINE
  8
0
 10
99.2275
 20
578.755
 11
99.3712
 21
578.529
  0
LINE
  8
0
 10
99.3712
 20
578.529
 11
99.4853
 21
578.286
  0
LINE
  8
0
 10
99.4853
 20
578.286
 11
99.5682
 21
578.031
  0
LINE
  8
0
 10
99.5682
 20
578.031
 11
99.6185
 21
577.768
  0
LINE
  8
0
 10
99.6185
 20
577.768
 11
99.6353
 21
577.5
  0
LINE
  8
0
 10
99.6353
 20
577.5
 11
99.6185
 21
577.232
  0
LINE
  8
0
 10
99.6185
 20
577.232
 11
99.5682
 21
576.969
  0
LINE
  8
0
 10
99.5682
 20
576.969
 11
99.4853
 21
576.714
  0
LINE
  8
0
 10
99.4853
 20
576.714
 11
99.3712
 21
576.471
  0
LINE
  8
0
 10
99.3712
 20
576.471
 11
99.2275
 21
576.245
  0
LINE
  8
0
 10
99.2275
 20
576.245
 11
99.0566
 21
576.038
  0
LINE
  8
0
 10
99.0566
 20
576.038
 11
98.8611
 21
575.855
  0
LINE
  8
0
 10
98.8611
 20
575.855
 11
98.6441
 21
575.697
  0
LINE
  8
0
 10
98.6441
 20
575.697
 11
98.4092
 21
575.568
  0
LINE
  8
0
 10
98.4092
 20
575.568
 11
98.1598
 21
575.469
  0
LINE
  8
0
 10
98.1598
 20
575.469
 11
97.9001
 21
575.403
  0
LINE
  8
0
 10
97.9001
 20
575.403
 11
97.6341
 21
575.369
  0
LINE
  8
0
 10
97.6341
 20
575.369
 11
97.3659
 21
575.369
  0
ENDSEC
  0
SECTION
  2
OBJECTS
  0
DICTIONARY
  0
ENDSEC
  0
EOF
