<?xml version="1.0" standalone="no"?>
<!DOCTYPE svg PUBLIC "-//W3C//DTD SVG 1.1//EN" "http://www.w3.org/Graphics/SVG/1.1/DTD/svg11.dtd">
<svg width="196mm" height="828mm" viewBox="-98 -1530 196 828" xmlns="http://www.w3.org/2000/svg" version="1.1">
<title>OpenSCAD Model</title>
<path d="
M 93.4369,-1260.09 L 94.0451,-1260.24 L 94.6289,-1260.48 L 95.1791,-1260.78 L 95.6871,-1261.15 L 96.1448,-1261.58
 L 96.5451,-1262.06 L 96.8815,-1262.59 L 97.1489,-1263.16 L 97.3429,-1263.76 L 97.4606,-1264.37 L 97.5,-1265
 L 97.5,-1525 L 97.4606,-1525.63 L 97.3429,-1526.24 L 97.1489,-1526.84 L 96.8815,-1527.41 L 96.5451,-1527.94
 L 96.1448,-1528.42 L 95.6871,-1528.85 L 95.1791,-1529.22 L 94.6289,-1529.52 L 94.0451,-1529.76 L 93.4369,-1529.91
 L 92.8139,-1529.99 L -92.8139,-1529.99 L -93.4369,-1529.91 L -94.0451,-1529.76 L -94.6289,-1529.52 L -95.1791,-1529.22
 L -95.6871,-1528.85 L -96.1448,-1528.42 L -96.5451,-1527.94 L -96.8815,-1527.41 L -97.1489,-1526.84 L -97.3429,-1526.24
 L -97.4606,-1525.63 L -97.5,-1525 L -97.5,-1265 L -97.4606,-1264.37 L -97.3429,-1263.76 L -97.1489,-1263.16
 L -96.8815,-1262.59 L -96.5451,-1262.06 L -96.1448,-1261.58 L -95.6871,-1261.15 L -95.1791,-1260.78 L -94.6289,-1260.48
 L -94.0451,-1260.24 L -93.4369,-1260.09 L -92.8139,-1260.01 L 92.8139,-1260.01 z
M -92.2512,-1261.51 L -92.7495,-1261.57 L -93.2361,-1261.7 L -93.7031,-1261.88 L -94.1433,-1262.12 L -94.5497,-1262.42
 L -94.9159,-1262.76 L -95.2361,-1263.15 L -95.5052,-1263.57 L -95.7191,-1264.03 L -95.8743,-1264.51 L -95.9685,-1265
 L -96,-1265.5 L -96,-1524.5 L -95.9685,-1525 L -95.8743,-1525.49 L -95.7191,-1525.97 L -95.5052,-1526.43
 L -95.2361,-1526.85 L -94.9159,-1527.24 L -94.5497,-1527.58 L -94.1433,-1527.88 L -93.7031,-1528.12 L -93.2361,-1528.3
 L -92.7495,-1528.43 L -92.2512,-1528.49 L 92.2512,-1528.49 L 92.7495,-1528.43 L 93.2361,-1528.3 L 93.7031,-1528.12
 L 94.1433,-1527.88 L 94.5497,-1527.58 L 94.9159,-1527.24 L 95.2361,-1526.85 L 95.5052,-1526.43 L 95.7191,-1525.97
 L 95.8743,-1525.49 L 95.9685,-1525 L 96,-1524.5 L 96,-1265.5 L 95.9685,-1265 L 95.8743,-1264.51
 L 95.7191,-1264.03 L 95.5052,-1263.57 L 95.2361,-1263.15 L 94.9159,-1262.76 L 94.5497,-1262.42 L 94.1433,-1262.12
 L 93.7031,-1261.88 L 93.2361,-1261.7 L 92.7495,-1261.57 L 92.2512,-1261.51 z
M 93.4369,-981.089 L 94.0451,-981.245 L 94.6289,-981.476 L 95.1791,-981.778 L 95.6871,-982.147 L 96.1448,-982.577
 L 96.5451,-983.061 L 96.8815,-983.591 L 97.1489,-984.159 L 97.3429,-984.757 L 97.4606,-985.373 L 97.5,-986
 L 97.5,-1246 L 97.4606,-1246.63 L 97.3429,-1247.24 L 97.1489,-1247.84 L 96.8815,-1248.41 L 96.5451,-1248.94
 L 96.1448,-1249.42 L 95.6871,-1249.85 L 95.1791,-1250.22 L 94.6289,-1250.52 L 94.0451,-1250.76 L 93.4369,-1250.91
 L 92.8139,-1250.99 L -92.8139,-1250.99 L -93.4369,-1250.91 L -94.0451,-1250.76 L -94.6289,-1250.52 L -95.1791,-1250.22
 L -95.6871,-1249.85 L -96.1448,-1249.42 L -96.5451,-1248.94 L -96.8815,-1248.41 L -97.1489,-1247.84 L -97.3429,-1247.24
 L -97.4606,-1246.63 L -97.5,-1246 L -97.5,-986 L -97.4606,-985.373 L -97.3429,-984.757 L -97.1489,-984.159
 L -96.8815,-983.591 L -96.5451,-983.061 L -96.1448,-982.577 L -95.6871,-982.147 L -95.1791,-981.778 L -94.6289,-981.476
 L -94.0451,-981.245 L -93.4369,-981.089 L -92.8139,-981.01 L 92.8139,-981.01 z
M -92.1955,-983.393 L -92.5833,-983.442 L -92.9619,-983.539 L -93.3254,-983.683 L -93.668,-983.872 L -93.9843,-984.101
 L -94.2692,-984.369 L -94.5184,-984.67 L -94.7279,-985 L -94.8943,-985.354 L -95.0151,-985.726 L -95.0884,-986.11
 L -95.1129,-986.5 L -95.1129,-1245.5 L -95.0884,-1245.89 L -95.0151,-1246.27 L -94.8943,-1246.65 L -94.7279,-1247
 L -94.5184,-1247.33 L -94.2692,-1247.63 L -93.9843,-1247.9 L -93.668,-1248.13 L -93.3254,-1248.32 L -92.9619,-1248.46
 L -92.5833,-1248.56 L -92.1955,-1248.61 L 92.1955,-1248.61 L 92.5833,-1248.56 L 92.9619,-1248.46 L 93.3254,-1248.32
 L 93.668,-1248.13 L 93.9843,-1247.9 L 94.2692,-1247.63 L 94.5184,-1247.33 L 94.7279,-1247 L 94.8943,-1246.65
 L 95.0151,-1246.27 L 95.0884,-1245.89 L 95.1129,-1245.5 L 95.1129,-986.5 L 95.0884,-986.11 L 95.0151,-985.726
 L 94.8943,-985.354 L 94.7279,-985 L 94.5184,-984.67 L 94.2692,-984.369 L 93.9843,-984.101 L 93.668,-983.872
 L 93.3254,-983.683 L 92.9619,-983.539 L 92.5833,-983.442 L 92.1955,-983.393 z
M 93.4369,-702.089 L 94.0451,-702.245 L 94.6289,-702.476 L 95.1791,-702.778 L 95.6871,-703.147 L 96.1448,-703.577
 L 96.5451,-704.061 L 96.8815,-704.591 L 97.1489,-705.159 L 97.3429,-705.757 L 97.4606,-706.373 L 97.5,-707
 L 97.5,-967 L 97.4606,-967.627 L 97.3429,-968.243 L 97.1489,-968.841 L 96.8815,-969.409 L 96.5451,-969.939
 L 96.1448,-970.423 L 95.6871,-970.853 L 95.1791,-971.222 L 94.6289,-971.524 L 94.0451,-971.755 L 93.4369,-971.911
 L 92.8139,-971.99 L -92.8139,-971.99 L -93.4369,-971.911 L -94.0451,-971.755 L -94.6289,-971.524 L -95.1791,-971.222
 L -95.6871,-970.853 L -96.1448,-970.423 L -96.5451,-969.939 L -96.8815,-969.409 L -97.1489,-968.841 L -97.3429,-968.243
 L -97.4606,-967.627 L -97.5,-967 L -97.5,-707 L -97.4606,-706.373 L -97.3429,-705.757 L -97.1489,-705.159
 L -96.8815,-704.591 L -96.5451,-704.061 L -96.1448,-703.577 L -95.6871,-703.147 L -95.1791,-702.778 L -94.6289,-702.476
 L -94.0451,-702.245 L -93.4369,-702.089 L -92.8139,-702.01 L 92.8139,-702.01 z
M 89.8659,-962.369 L 89.5999,-962.403 L 89.3401,-962.469 L 89.0908,-962.568 L 88.8559,-962.697 L 88.6389,-962.855
 L 88.4434,-963.038 L 88.2725,-963.245 L 88.1288,-963.471 L 88.0146,-963.714 L 87.9318,-963.969 L 87.8815,-964.232
 L 87.8647,-964.5 L 87.8815,-964.768 L 87.9318,-965.031 L 88.0146,-965.286 L 88.1288,-965.529 L 88.2725,-965.755
 L 88.4434,-965.962 L 88.6389,-966.145 L 88.8559,-966.303 L 89.0908,-966.432 L 89.3401,-966.531 L 89.5999,-966.597
 L 89.8659,-966.631 L 90.1341,-966.631 L 90.4001,-966.597 L 90.6598,-966.531 L 90.9092,-966.432 L 91.1441,-966.303
 L 91.3611,-966.145 L 91.5566,-965.962 L 91.7275,-965.755 L 91.8712,-965.529 L 91.9853,-965.286 L 92.0682,-965.031
 L 92.1185,-964.768 L 92.1353,-964.5 L 92.1185,-964.232 L 92.0682,-963.969 L 91.9853,-963.714 L 91.8712,-963.471
 L 91.7275,-963.245 L 91.5566,-963.038 L 91.3611,-962.855 L 91.1441,-962.697 L 90.9092,-962.568 L 90.6598,-962.469
 L 90.4001,-962.403 L 90.1341,-962.369 z
M -90.1341,-962.369 L -90.4001,-962.403 L -90.6598,-962.469 L -90.9092,-962.568 L -91.1441,-962.697 L -91.3611,-962.855
 L -91.5566,-963.038 L -91.7275,-963.245 L -91.8712,-963.471 L -91.9853,-963.714 L -92.0682,-963.969 L -92.1185,-964.232
 L -92.1353,-964.5 L -92.1185,-964.768 L -92.0682,-965.031 L -91.9853,-965.286 L -91.8712,-965.529 L -91.7275,-965.755
 L -91.5566,-965.962 L -91.3611,-966.145 L -91.1441,-966.303 L -90.9092,-966.432 L -90.6598,-966.531 L -90.4001,-966.597
 L -90.1341,-966.631 L -89.8659,-966.631 L -89.5999,-966.597 L -89.3401,-966.531 L -89.0908,-966.432 L -88.8559,-966.303
 L -88.6389,-966.145 L -88.4434,-965.962 L -88.2725,-965.755 L -88.1288,-965.529 L -88.0146,-965.286 L -87.9318,-965.031
 L -87.8815,-964.768 L -87.8647,-964.5 L -87.8815,-964.232 L -87.9318,-963.969 L -88.0146,-963.714 L -88.1288,-963.471
 L -88.2725,-963.245 L -88.4434,-963.038 L -88.6389,-962.855 L -88.8559,-962.697 L -89.0908,-962.568 L -89.3401,-962.469
 L -89.5999,-962.403 L -89.8659,-962.369 z
M 89.8659,-707.369 L 89.5999,-707.403 L 89.3401,-707.469 L 89.0908,-707.568 L 88.8559,-707.697 L 88.6389,-707.855
 L 88.4434,-708.038 L 88.2725,-708.245 L 88.1288,-708.471 L 88.0146,-708.714 L 87.9318,-708.969 L 87.8815,-709.232
 L 87.8647,-709.5 L 87.8815,-709.768 L 87.9318,-710.031 L 88.0146,-710.286 L 88.1288,-710.529 L 88.2725,-710.755
 L 88.4434,-710.962 L 88.6389,-711.145 L 88.8559,-711.303 L 89.0908,-711.432 L 89.3401,-711.531 L 89.5999,-711.597
 L 89.8659,-711.631 L 90.1341,-711.631 L 90.4001,-711.597 L 90.6598,-711.531 L 90.9092,-711.432 L 91.1441,-711.303
 L 91.3611,-711.145 L 91.5566,-710.962 L 91.7275,-710.755 L 91.8712,-710.529 L 91.9853,-710.286 L 92.0682,-710.031
 L 92.1185,-709.768 L 92.1353,-709.5 L 92.1185,-709.232 L 92.0682,-708.969 L 91.9853,-708.714 L 91.8712,-708.471
 L 91.7275,-708.245 L 91.5566,-708.038 L 91.3611,-707.855 L 91.1441,-707.697 L 90.9092,-707.568 L 90.6598,-707.469
 L 90.4001,-707.403 L 90.1341,-707.369 z
M -90.1341,-707.369 L -90.4001,-707.403 L -90.6598,-707.469 L -90.9092,-707.568 L -91.1441,-707.697 L -91.3611,-707.855
 L -91.5566,-708.038 L -91.7275,-708.245 L -91.8712,-708.471 L -91.9853,-708.714 L -92.0682,-708.969 L -92.1185,-709.232
 L -92.1353,-709.5 L -92.1185,-709.768 L -92.0682,-710.031 L -91.9853,-710.286 L -91.8712,-710.529 L -91.7275,-710.755
 L -91.5566,-710.962 L -91.3611,-711.145 L -91.1441,-711.303 L -90.9092,-711.432 L -90.6598,-711.531 L -90.4001,-711.597
 L -90.1341,-711.631 L -89.8659,-711.631 L -89.5999,-711.597 L -89.3401,-711.531 L -89.0908,-711.432 L -88.8559,-711.303
 L -88.6389,-711.145 L -88.4434,-710.962 L -88.2725,-710.755 L -88.1288,-710.529 L -88.0146,-710.286 L -87.9318,-710.031
 L -87.8815,-709.768 L -87.8647,-709.5 L -87.8815,-709.232 L -87.9318,-708.969 L -88.0146,-708.714 L -88.1288,-708.471
 L -88.2725,-708.245 L -88.4434,-708.038 L -88.6389,-707.855 L -88.8559,-707.697 L -89.0908,-707.568 L -89.3401,-707.469
 L -89.5999,-707.403 L -89.8659,-707.369 z
" stroke="black" fill="lightgray" stroke-width="0.5"/>
</svg>
