  0
SECTION
  2
BLOCKS
  0
ENDSEC
  0
SECTION
  2
ENTITIES
  0
LINE
  8
0
 10
93.4369
 20
1260.09
 11
94.0451
 21
1260.24
  0
LINE
  8
0
 10
94.0451
 20
1260.24
 11
94.6289
 21
1260.48
  0
LINE
  8
0
 10
94.6289
 20
1260.48
 11
95.1791
 21
1260.78
  0
LINE
  8
0
 10
95.1791
 20
1260.78
 11
95.6871
 21
1261.15
  0
LINE
  8
0
 10
95.6871
 20
1261.15
 11
96.1448
 21
1261.58
  0
LINE
  8
0
 10
96.1448
 20
1261.58
 11
96.5451
 21
1262.06
  0
LINE
  8
0
 10
96.5451
 20
1262.06
 11
96.8815
 21
1262.59
  0
LINE
  8
0
 10
96.8815
 20
1262.59
 11
97.1489
 21
1263.16
  0
LINE
  8
0
 10
97.1489
 20
1263.16
 11
97.3429
 21
1263.76
  0
LINE
  8
0
 10
97.3429
 20
1263.76
 11
97.4606
 21
1264.37
  0
LINE
  8
0
 10
97.4606
 20
1264.37
 11
97.5
 21
1265
  0
LINE
  8
0
 10
97.5
 20
1265
 11
97.5
 21
1525
  0
LINE
  8
0
 10
97.5
 20
1525
 11
97.4606
 21
1525.63
  0
LINE
  8
0
 10
97.4606
 20
1525.63
 11
97.3429
 21
1526.24
  0
LINE
  8
0
 10
97.3429
 20
1526.24
 11
97.1489
 21
1526.84
  0
LINE
  8
0
 10
97.1489
 20
1526.84
 11
96.8815
 21
1527.41
  0
LINE
  8
0
 10
96.8815
 20
1527.41
 11
96.5451
 21
1527.94
  0
LINE
  8
0
 10
96.5451
 20
1527.94
 11
96.1448
 21
1528.42
  0
LINE
  8
0
 10
96.1448
 20
1528.42
 11
95.6871
 21
1528.85
  0
LINE
  8
0
 10
95.6871
 20
1528.85
 11
95.1791
 21
1529.22
  0
LINE
  8
0
 10
95.1791
 20
1529.22
 11
94.6289
 21
1529.52
  0
LINE
  8
0
 10
94.6289
 20
1529.52
 11
94.0451
 21
1529.76
  0
LINE
  8
0
 10
94.0451
 20
1529.76
 11
93.4369
 21
1529.91
  0
LINE
  8
0
 10
93.4369
 20
1529.91
 11
92.8139
 21
1529.99
  0
LINE
  8
0
 10
92.8139
 20
1529.99
 11
-92.8139
 21
1529.99
  0
LINE
  8
0
 10
-92.8139
 20
1529.99
 11
-93.4369
 21
1529.91
  0
LINE
  8
0
 10
-93.4369
 20
1529.91
 11
-94.0451
 21
1529.76
  0
LINE
  8
0
 10
-94.0451
 20
1529.76
 11
-94.6289
 21
1529.52
  0
LINE
  8
0
 10
-94.6289
 20
1529.52
 11
-95.1791
 21
1529.22
  0
LINE
  8
0
 10
-95.1791
 20
1529.22
 11
-95.6871
 21
1528.85
  0
LINE
  8
0
 10
-95.6871
 20
1528.85
 11
-96.1448
 21
1528.42
  0
LINE
  8
0
 10
-96.1448
 20
1528.42
 11
-96.5451
 21
1527.94
  0
LINE
  8
0
 10
-96.5451
 20
1527.94
 11
-96.8815
 21
1527.41
  0
LINE
  8
0
 10
-96.8815
 20
1527.41
 11
-97.1489
 21
1526.84
  0
LINE
  8
0
 10
-97.1489
 20
1526.84
 11
-97.3429
 21
1526.24
  0
LINE
  8
0
 10
-97.3429
 20
1526.24
 11
-97.4606
 21
1525.63
  0
LINE
  8
0
 10
-97.4606
 20
1525.63
 11
-97.5
 21
1525
  0
LINE
  8
0
 10
-97.5
 20
1525
 11
-97.5
 21
1265
  0
LINE
  8
0
 10
-97.5
 20
1265
 11
-97.4606
 21
1264.37
  0
LINE
  8
0
 10
-97.4606
 20
1264.37
 11
-97.3429
 21
1263.76
  0
LINE
  8
0
 10
-97.3429
 20
1263.76
 11
-97.1489
 21
1263.16
  0
LINE
  8
0
 10
-97.1489
 20
1263.16
 11
-96.8815
 21
1262.59
  0
LINE
  8
0
 10
-96.8815
 20
1262.59
 11
-96.5451
 21
1262.06
  0
LINE
  8
0
 10
-96.5451
 20
1262.06
 11
-96.1448
 21
1261.58
  0
LINE
  8
0
 10
-96.1448
 20
1261.58
 11
-95.6871
 21
1261.15
  0
LINE
  8
0
 10
-95.6871
 20
1261.15
 11
-95.1791
 21
1260.78
  0
LINE
  8
0
 10
-95.1791
 20
1260.78
 11
-94.6289
 21
1260.48
  0
LINE
  8
0
 10
-94.6289
 20
1260.48
 11
-94.0451
 21
1260.24
  0
LINE
  8
0
 10
-94.0451
 20
1260.24
 11
-93.4369
 21
1260.09
  0
LINE
  8
0
 10
-93.4369
 20
1260.09
 11
-92.8139
 21
1260.01
  0
LINE
  8
0
 10
-92.8139
 20
1260.01
 11
92.8139
 21
1260.01
  0
LINE
  8
0
 10
92.8139
 20
1260.01
 11
93.4369
 21
1260.09
  0
LINE
  8
0
 10
-92.2512
 20
1261.51
 11
-92.7495
 21
1261.57
  0
LINE
  8
0
 10
-92.7495
 20
1261.57
 11
-93.2361
 21
1261.7
  0
LINE
  8
0
 10
-93.2361
 20
1261.7
 11
-93.7031
 21
1261.88
  0
LINE
  8
0
 10
-93.7031
 20
1261.88
 11
-94.1433
 21
1262.12
  0
LINE
  8
0
 10
-94.1433
 20
1262.12
 11
-94.5497
 21
1262.42
  0
LINE
  8
0
 10
-94.5497
 20
1262.42
 11
-94.9159
 21
1262.76
  0
LINE
  8
0
 10
-94.9159
 20
1262.76
 11
-95.2361
 21
1263.15
  0
LINE
  8
0
 10
-95.2361
 20
1263.15
 11
-95.5052
 21
1263.57
  0
LINE
  8
0
 10
-95.5052
 20
1263.57
 11
-95.7191
 21
1264.03
  0
LINE
  8
0
 10
-95.7191
 20
1264.03
 11
-95.8743
 21
1264.51
  0
LINE
  8
0
 10
-95.8743
 20
1264.51
 11
-95.9685
 21
1265
  0
LINE
  8
0
 10
-95.9685
 20
1265
 11
-96
 21
1265.5
  0
LINE
  8
0
 10
-96
 20
1265.5
 11
-96
 21
1524.5
  0
LINE
  8
0
 10
-96
 20
1524.5
 11
-95.9685
 21
1525
  0
LINE
  8
0
 10
-95.9685
 20
1525
 11
-95.8743
 21
1525.49
  0
LINE
  8
0
 10
-95.8743
 20
1525.49
 11
-95.7191
 21
1525.97
  0
LINE
  8
0
 10
-95.7191
 20
1525.97
 11
-95.5052
 21
1526.43
  0
LINE
  8
0
 10
-95.5052
 20
1526.43
 11
-95.2361
 21
1526.85
  0
LINE
  8
0
 10
-95.2361
 20
1526.85
 11
-94.9159
 21
1527.24
  0
LINE
  8
0
 10
-94.9159
 20
1527.24
 11
-94.5497
 21
1527.58
  0
LINE
  8
0
 10
-94.5497
 20
1527.58
 11
-94.1433
 21
1527.88
  0
LINE
  8
0
 10
-94.1433
 20
1527.88
 11
-93.7031
 21
1528.12
  0
LINE
  8
0
 10
-93.7031
 20
1528.12
 11
-93.2361
 21
1528.3
  0
LINE
  8
0
 10
-93.2361
 20
1528.3
 11
-92.7495
 21
1528.43
  0
LINE
  8
0
 10
-92.7495
 20
1528.43
 11
-92.2512
 21
1528.49
  0
LINE
  8
0
 10
-92.2512
 20
1528.49
 11
92.2512
 21
1528.49
  0
LINE
  8
0
 10
92.2512
 20
1528.49
 11
92.7495
 21
1528.43
  0
LINE
  8
0
 10
92.7495
 20
1528.43
 11
93.2361
 21
1528.3
  0
LINE
  8
0
 10
93.2361
 20
1528.3
 11
93.7031
 21
1528.12
  0
LINE
  8
0
 10
93.7031
 20
1528.12
 11
94.1433
 21
1527.88
  0
LINE
  8
0
 10
94.1433
 20
1527.88
 11
94.5497
 21
1527.58
  0
LINE
  8
0
 10
94.5497
 20
1527.58
 11
94.9159
 21
1527.24
  0
LINE
  8
0
 10
94.9159
 20
1527.24
 11
95.2361
 21
1526.85
  0
LINE
  8
0
 10
95.2361
 20
1526.85
 11
95.5052
 21
1526.43
  0
LINE
  8
0
 10
95.5052
 20
1526.43
 11
95.7191
 21
1525.97
  0
LINE
  8
0
 10
95.7191
 20
1525.97
 11
95.8743
 21
1525.49
  0
LINE
  8
0
 10
95.8743
 20
1525.49
 11
95.9685
 21
1525
  0
LINE
  8
0
 10
95.9685
 20
1525
 11
96
 21
1524.5
  0
LINE
  8
0
 10
96
 20
1524.5
 11
96
 21
1265.5
  0
LINE
  8
0
 10
96
 20
1265.5
 11
95.9685
 21
1265
  0
LINE
  8
0
 10
95.9685
 20
1265
 11
95.8743
 21
1264.51
  0
LINE
  8
0
 10
95.8743
 20
1264.51
 11
95.7191
 21
1264.03
  0
LINE
  8
0
 10
95.7191
 20
1264.03
 11
95.5052
 21
1263.57
  0
LINE
  8
0
 10
95.5052
 20
1263.57
 11
95.2361
 21
1263.15
  0
LINE
  8
0
 10
95.2361
 20
1263.15
 11
94.9159
 21
1262.76
  0
LINE
  8
0
 10
94.9159
 20
1262.76
 11
94.5497
 21
1262.42
  0
LINE
  8
0
 10
94.5497
 20
1262.42
 11
94.1433
 21
1262.12
  0
LINE
  8
0
 10
94.1433
 20
1262.12
 11
93.7031
 21
1261.88
  0
LINE
  8
0
 10
93.7031
 20
1261.88
 11
93.2361
 21
1261.7
  0
LINE
  8
0
 10
93.2361
 20
1261.7
 11
92.7495
 21
1261.57
  0
LINE
  8
0
 10
92.7495
 20
1261.57
 11
92.2512
 21
1261.51
  0
LINE
  8
0
 10
92.2512
 20
1261.51
 11
-92.2512
 21
1261.51
  0
LINE
  8
0
 10
93.4369
 20
981.089
 11
94.0451
 21
981.245
  0
LINE
  8
0
 10
94.0451
 20
981.245
 11
94.6289
 21
981.476
  0
LINE
  8
0
 10
94.6289
 20
981.476
 11
95.1791
 21
981.778
  0
LINE
  8
0
 10
95.1791
 20
981.778
 11
95.6871
 21
982.147
  0
LINE
  8
0
 10
95.6871
 20
982.147
 11
96.1448
 21
982.577
  0
LINE
  8
0
 10
96.1448
 20
982.577
 11
96.5451
 21
983.061
  0
LINE
  8
0
 10
96.5451
 20
983.061
 11
96.8815
 21
983.591
  0
LINE
  8
0
 10
96.8815
 20
983.591
 11
97.1489
 21
984.159
  0
LINE
  8
0
 10
97.1489
 20
984.159
 11
97.3429
 21
984.757
  0
LINE
  8
0
 10
97.3429
 20
984.757
 11
97.4606
 21
985.373
  0
LINE
  8
0
 10
97.4606
 20
985.373
 11
97.5
 21
986
  0
LINE
  8
0
 10
97.5
 20
986
 11
97.5
 21
1246
  0
LINE
  8
0
 10
97.5
 20
1246
 11
97.4606
 21
1246.63
  0
LINE
  8
0
 10
97.4606
 20
1246.63
 11
97.3429
 21
1247.24
  0
LINE
  8
0
 10
97.3429
 20
1247.24
 11
97.1489
 21
1247.84
  0
LINE
  8
0
 10
97.1489
 20
1247.84
 11
96.8815
 21
1248.41
  0
LINE
  8
0
 10
96.8815
 20
1248.41
 11
96.5451
 21
1248.94
  0
LINE
  8
0
 10
96.5451
 20
1248.94
 11
96.1448
 21
1249.42
  0
LINE
  8
0
 10
96.1448
 20
1249.42
 11
95.6871
 21
1249.85
  0
LINE
  8
0
 10
95.6871
 20
1249.85
 11
95.1791
 21
1250.22
  0
LINE
  8
0
 10
95.1791
 20
1250.22
 11
94.6289
 21
1250.52
  0
LINE
  8
0
 10
94.6289
 20
1250.52
 11
94.0451
 21
1250.76
  0
LINE
  8
0
 10
94.0451
 20
1250.76
 11
93.4369
 21
1250.91
  0
LINE
  8
0
 10
93.4369
 20
1250.91
 11
92.8139
 21
1250.99
  0
LINE
  8
0
 10
92.8139
 20
1250.99
 11
-92.8139
 21
1250.99
  0
LINE
  8
0
 10
-92.8139
 20
1250.99
 11
-93.4369
 21
1250.91
  0
LINE
  8
0
 10
-93.4369
 20
1250.91
 11
-94.0451
 21
1250.76
  0
LINE
  8
0
 10
-94.0451
 20
1250.76
 11
-94.6289
 21
1250.52
  0
LINE
  8
0
 10
-94.6289
 20
1250.52
 11
-95.1791
 21
1250.22
  0
LINE
  8
0
 10
-95.1791
 20
1250.22
 11
-95.6871
 21
1249.85
  0
LINE
  8
0
 10
-95.6871
 20
1249.85
 11
-96.1448
 21
1249.42
  0
LINE
  8
0
 10
-96.1448
 20
1249.42
 11
-96.5451
 21
1248.94
  0
LINE
  8
0
 10
-96.5451
 20
1248.94
 11
-96.8815
 21
1248.41
  0
LINE
  8
0
 10
-96.8815
 20
1248.41
 11
-97.1489
 21
1247.84
  0
LINE
  8
0
 10
-97.1489
 20
1247.84
 11
-97.3429
 21
1247.24
  0
LINE
  8
0
 10
-97.3429
 20
1247.24
 11
-97.4606
 21
1246.63
  0
LINE
  8
0
 10
-97.4606
 20
1246.63
 11
-97.5
 21
1246
  0
LINE
  8
0
 10
-97.5
 20
1246
 11
-97.5
 21
986
  0
LINE
  8
0
 10
-97.5
 20
986
 11
-97.4606
 21
985.373
  0
LINE
  8
0
 10
-97.4606
 20
985.373
 11
-97.3429
 21
984.757
  0
LINE
  8
0
 10
-97.3429
 20
984.757
 11
-97.1489
 21
984.159
  0
LINE
  8
0
 10
-97.1489
 20
984.159
 11
-96.8815
 21
983.591
  0
LINE
  8
0
 10
-96.8815
 20
983.591
 11
-96.5451
 21
983.061
  0
LINE
  8
0
 10
-96.5451
 20
983.061
 11
-96.1448
 21
982.577
  0
LINE
  8
0
 10
-96.1448
 20
982.577
 11
-95.6871
 21
982.147
  0
LINE
  8
0
 10
-95.6871
 20
982.147
 11
-95.1791
 21
981.778
  0
LINE
  8
0
 10
-95.1791
 20
981.778
 11
-94.6289
 21
981.476
  0
LINE
  8
0
 10
-94.6289
 20
981.476
 11
-94.0451
 21
981.245
  0
LINE
  8
0
 10
-94.0451
 20
981.245
 11
-93.4369
 21
981.089
  0
LINE
  8
0
 10
-93.4369
 20
981.089
 11
-92.8139
 21
981.01
  0
LINE
  8
0
 10
-92.8139
 20
981.01
 11
92.8139
 21
981.01
  0
LINE
  8
0
 10
92.8139
 20
981.01
 11
93.4369
 21
981.089
  0
LINE
  8
0
 10
-92.1955
 20
983.393
 11
-92.5833
 21
983.442
  0
LINE
  8
0
 10
-92.5833
 20
983.442
 11
-92.9619
 21
983.539
  0
LINE
  8
0
 10
-92.9619
 20
983.539
 11
-93.3254
 21
983.683
  0
LINE
  8
0
 10
-93.3254
 20
983.683
 11
-93.668
 21
983.872
  0
LINE
  8
0
 10
-93.668
 20
983.872
 11
-93.9843
 21
984.101
  0
LINE
  8
0
 10
-93.9843
 20
984.101
 11
-94.2692
 21
984.369
  0
LINE
  8
0
 10
-94.2692
 20
984.369
 11
-94.5184
 21
984.67
  0
LINE
  8
0
 10
-94.5184
 20
984.67
 11
-94.7279
 21
985
  0
LINE
  8
0
 10
-94.7279
 20
985
 11
-94.8943
 21
985.354
  0
LINE
  8
0
 10
-94.8943
 20
985.354
 11
-95.0151
 21
985.726
  0
LINE
  8
0
 10
-95.0151
 20
985.726
 11
-95.0884
 21
986.11
  0
LINE
  8
0
 10
-95.0884
 20
986.11
 11
-95.1129
 21
986.5
  0
LINE
  8
0
 10
-95.1129
 20
986.5
 11
-95.1129
 21
1245.5
  0
LINE
  8
0
 10
-95.1129
 20
1245.5
 11
-95.0884
 21
1245.89
  0
LINE
  8
0
 10
-95.0884
 20
1245.89
 11
-95.0151
 21
1246.27
  0
LINE
  8
0
 10
-95.0151
 20
1246.27
 11
-94.8943
 21
1246.65
  0
LINE
  8
0
 10
-94.8943
 20
1246.65
 11
-94.7279
 21
1247
  0
LINE
  8
0
 10
-94.7279
 20
1247
 11
-94.5184
 21
1247.33
  0
LINE
  8
0
 10
-94.5184
 20
1247.33
 11
-94.2692
 21
1247.63
  0
LINE
  8
0
 10
-94.2692
 20
1247.63
 11
-93.9843
 21
1247.9
  0
LINE
  8
0
 10
-93.9843
 20
1247.9
 11
-93.668
 21
1248.13
  0
LINE
  8
0
 10
-93.668
 20
1248.13
 11
-93.3254
 21
1248.32
  0
LINE
  8
0
 10
-93.3254
 20
1248.32
 11
-92.9619
 21
1248.46
  0
LINE
  8
0
 10
-92.9619
 20
1248.46
 11
-92.5833
 21
1248.56
  0
LINE
  8
0
 10
-92.5833
 20
1248.56
 11
-92.1955
 21
1248.61
  0
LINE
  8
0
 10
-92.1955
 20
1248.61
 11
92.1955
 21
1248.61
  0
LINE
  8
0
 10
92.1955
 20
1248.61
 11
92.5833
 21
1248.56
  0
LINE
  8
0
 10
92.5833
 20
1248.56
 11
92.9619
 21
1248.46
  0
LINE
  8
0
 10
92.9619
 20
1248.46
 11
93.3254
 21
1248.32
  0
LINE
  8
0
 10
93.3254
 20
1248.32
 11
93.668
 21
1248.13
  0
LINE
  8
0
 10
93.668
 20
1248.13
 11
93.9843
 21
1247.9
  0
LINE
  8
0
 10
93.9843
 20
1247.9
 11
94.2692
 21
1247.63
  0
LINE
  8
0
 10
94.2692
 20
1247.63
 11
94.5184
 21
1247.33
  0
LINE
  8
0
 10
94.5184
 20
1247.33
 11
94.7279
 21
1247
  0
LINE
  8
0
 10
94.7279
 20
1247
 11
94.8943
 21
1246.65
  0
LINE
  8
0
 10
94.8943
 20
1246.65
 11
95.0151
 21
1246.27
  0
LINE
  8
0
 10
95.0151
 20
1246.27
 11
95.0884
 21
1245.89
  0
LINE
  8
0
 10
95.0884
 20
1245.89
 11
95.1129
 21
1245.5
  0
LINE
  8
0
 10
95.1129
 20
1245.5
 11
95.1129
 21
986.5
  0
LINE
  8
0
 10
95.1129
 20
986.5
 11
95.0884
 21
986.11
  0
LINE
  8
0
 10
95.0884
 20
986.11
 11
95.0151
 21
985.726
  0
LINE
  8
0
 10
95.0151
 20
985.726
 11
94.8943
 21
985.354
  0
LINE
  8
0
 10
94.8943
 20
985.354
 11
94.7279
 21
985
  0
LINE
  8
0
 10
94.7279
 20
985
 11
94.5184
 21
984.67
  0
LINE
  8
0
 10
94.5184
 20
984.67
 11
94.2692
 21
984.369
  0
LINE
  8
0
 10
94.2692
 20
984.369
 11
93.9843
 21
984.101
  0
LINE
  8
0
 10
93.9843
 20
984.101
 11
93.668
 21
983.872
  0
LINE
  8
0
 10
93.668
 20
983.872
 11
93.3254
 21
983.683
  0
LINE
  8
0
 10
93.3254
 20
983.683
 11
92.9619
 21
983.539
  0
LINE
  8
0
 10
92.9619
 20
983.539
 11
92.5833
 21
983.442
  0
LINE
  8
0
 10
92.5833
 20
983.442
 11
92.1955
 21
983.393
  0
LINE
  8
0
 10
92.1955
 20
983.393
 11
-92.1955
 21
983.393
  0
LINE
  8
0
 10
93.4369
 20
702.089
 11
94.0451
 21
702.245
  0
LINE
  8
0
 10
94.0451
 20
702.245
 11
94.6289
 21
702.476
  0
LINE
  8
0
 10
94.6289
 20
702.476
 11
95.1791
 21
702.778
  0
LINE
  8
0
 10
95.1791
 20
702.778
 11
95.6871
 21
703.147
  0
LINE
  8
0
 10
95.6871
 20
703.147
 11
96.1448
 21
703.577
  0
LINE
  8
0
 10
96.1448
 20
703.577
 11
96.5451
 21
704.061
  0
LINE
  8
0
 10
96.5451
 20
704.061
 11
96.8815
 21
704.591
  0
LINE
  8
0
 10
96.8815
 20
704.591
 11
97.1489
 21
705.159
  0
LINE
  8
0
 10
97.1489
 20
705.159
 11
97.3429
 21
705.757
  0
LINE
  8
0
 10
97.3429
 20
705.757
 11
97.4606
 21
706.373
  0
LINE
  8
0
 10
97.4606
 20
706.373
 11
97.5
 21
707
  0
LINE
  8
0
 10
97.5
 20
707
 11
97.5
 21
967
  0
LINE
  8
0
 10
97.5
 20
967
 11
97.4606
 21
967.627
  0
LINE
  8
0
 10
97.4606
 20
967.627
 11
97.3429
 21
968.243
  0
LINE
  8
0
 10
97.3429
 20
968.243
 11
97.1489
 21
968.841
  0
LINE
  8
0
 10
97.1489
 20
968.841
 11
96.8815
 21
969.409
  0
LINE
  8
0
 10
96.8815
 20
969.409
 11
96.5451
 21
969.939
  0
LINE
  8
0
 10
96.5451
 20
969.939
 11
96.1448
 21
970.423
  0
LINE
  8
0
 10
96.1448
 20
970.423
 11
95.6871
 21
970.853
  0
LINE
  8
0
 10
95.6871
 20
970.853
 11
95.1791
 21
971.222
  0
LINE
  8
0
 10
95.1791
 20
971.222
 11
94.6289
 21
971.524
  0
LINE
  8
0
 10
94.6289
 20
971.524
 11
94.0451
 21
971.755
  0
LINE
  8
0
 10
94.0451
 20
971.755
 11
93.4369
 21
971.911
  0
LINE
  8
0
 10
93.4369
 20
971.911
 11
92.8139
 21
971.99
  0
LINE
  8
0
 10
92.8139
 20
971.99
 11
-92.8139
 21
971.99
  0
LINE
  8
0
 10
-92.8139
 20
971.99
 11
-93.4369
 21
971.911
  0
LINE
  8
0
 10
-93.4369
 20
971.911
 11
-94.0451
 21
971.755
  0
LINE
  8
0
 10
-94.0451
 20
971.755
 11
-94.6289
 21
971.524
  0
LINE
  8
0
 10
-94.6289
 20
971.524
 11
-95.1791
 21
971.222
  0
LINE
  8
0
 10
-95.1791
 20
971.222
 11
-95.6871
 21
970.853
  0
LINE
  8
0
 10
-95.6871
 20
970.853
 11
-96.1448
 21
970.423
  0
LINE
  8
0
 10
-96.1448
 20
970.423
 11
-96.5451
 21
969.939
  0
LINE
  8
0
 10
-96.5451
 20
969.939
 11
-96.8815
 21
969.409
  0
LINE
  8
0
 10
-96.8815
 20
969.409
 11
-97.1489
 21
968.841
  0
LINE
  8
0
 10
-97.1489
 20
968.841
 11
-97.3429
 21
968.243
  0
LINE
  8
0
 10
-97.3429
 20
968.243
 11
-97.4606
 21
967.627
  0
LINE
  8
0
 10
-97.4606
 20
967.627
 11
-97.5
 21
967
  0
LINE
  8
0
 10
-97.5
 20
967
 11
-97.5
 21
707
  0
LINE
  8
0
 10
-97.5
 20
707
 11
-97.4606
 21
706.373
  0
LINE
  8
0
 10
-97.4606
 20
706.373
 11
-97.3429
 21
705.757
  0
LINE
  8
0
 10
-97.3429
 20
705.757
 11
-97.1489
 21
705.159
  0
LINE
  8
0
 10
-97.1489
 20
705.159
 11
-96.8815
 21
704.591
  0
LINE
  8
0
 10
-96.8815
 20
704.591
 11
-96.5451
 21
704.061
  0
LINE
  8
0
 10
-96.5451
 20
704.061
 11
-96.1448
 21
703.577
  0
LINE
  8
0
 10
-96.1448
 20
703.577
 11
-95.6871
 21
703.147
  0
LINE
  8
0
 10
-95.6871
 20
703.147
 11
-95.1791
 21
702.778
  0
LINE
  8
0
 10
-95.1791
 20
702.778
 11
-94.6289
 21
702.476
  0
LINE
  8
0
 10
-94.6289
 20
702.476
 11
-94.0451
 21
702.245
  0
LINE
  8
0
 10
-94.0451
 20
702.245
 11
-93.4369
 21
702.089
  0
LINE
  8
0
 10
-93.4369
 20
702.089
 11
-92.8139
 21
702.01
  0
LINE
  8
0
 10
-92.8139
 20
702.01
 11
92.8139
 21
702.01
  0
LINE
  8
0
 10
92.8139
 20
702.01
 11
93.4369
 21
702.089
  0
LINE
  8
0
 10
89.8659
 20
962.369
 11
89.5999
 21
962.403
  0
LINE
  8
0
 10
89.5999
 20
962.403
 11
89.3401
 21
962.469
  0
LINE
  8
0
 10
89.3401
 20
962.469
 11
89.0908
 21
962.568
  0
LINE
  8
0
 10
89.0908
 20
962.568
 11
88.8559
 21
962.697
  0
LINE
  8
0
 10
88.8559
 20
962.697
 11
88.6389
 21
962.855
  0
LINE
  8
0
 10
88.6389
 20
962.855
 11
88.4434
 21
963.038
  0
LINE
  8
0
 10
88.4434
 20
963.038
 11
88.2725
 21
963.245
  0
LINE
  8
0
 10
88.2725
 20
963.245
 11
88.1288
 21
963.471
  0
LINE
  8
0
 10
88.1288
 20
963.471
 11
88.0146
 21
963.714
  0
LINE
  8
0
 10
88.0146
 20
963.714
 11
87.9318
 21
963.969
  0
LINE
  8
0
 10
87.9318
 20
963.969
 11
87.8815
 21
964.232
  0
LINE
  8
0
 10
87.8815
 20
964.232
 11
87.8647
 21
964.5
  0
LINE
  8
0
 10
87.8647
 20
964.5
 11
87.8815
 21
964.768
  0
LINE
  8
0
 10
87.8815
 20
964.768
 11
87.9318
 21
965.031
  0
LINE
  8
0
 10
87.9318
 20
965.031
 11
88.0146
 21
965.286
  0
LINE
  8
0
 10
88.0146
 20
965.286
 11
88.1288
 21
965.529
  0
LINE
  8
0
 10
88.1288
 20
965.529
 11
88.2725
 21
965.755
  0
LINE
  8
0
 10
88.2725
 20
965.755
 11
88.4434
 21
965.962
  0
LINE
  8
0
 10
88.4434
 20
965.962
 11
88.6389
 21
966.145
  0
LINE
  8
0
 10
88.6389
 20
966.145
 11
88.8559
 21
966.303
  0
LINE
  8
0
 10
88.8559
 20
966.303
 11
89.0908
 21
966.432
  0
LINE
  8
0
 10
89.0908
 20
966.432
 11
89.3401
 21
966.531
  0
LINE
  8
0
 10
89.3401
 20
966.531
 11
89.5999
 21
966.597
  0
LINE
  8
0
 10
89.5999
 20
966.597
 11
89.8659
 21
966.631
  0
LINE
  8
0
 10
89.8659
 20
966.631
 11
90.1341
 21
966.631
  0
LINE
  8
0
 10
90.1341
 20
966.631
 11
90.4001
 21
966.597
  0
LINE
  8
0
 10
90.4001
 20
966.597
 11
90.6598
 21
966.531
  0
LINE
  8
0
 10
90.6598
 20
966.531
 11
90.9092
 21
966.432
  0
LINE
  8
0
 10
90.9092
 20
966.432
 11
91.1441
 21
966.303
  0
LINE
  8
0
 10
91.1441
 20
966.303
 11
91.3611
 21
966.145
  0
LINE
  8
0
 10
91.3611
 20
966.145
 11
91.5566
 21
965.962
  0
LINE
  8
0
 10
91.5566
 20
965.962
 11
91.7275
 21
965.755
  0
LINE
  8
0
 10
91.7275
 20
965.755
 11
91.8712
 21
965.529
  0
LINE
  8
0
 10
91.8712
 20
965.529
 11
91.9853
 21
965.286
  0
LINE
  8
0
 10
91.9853
 20
965.286
 11
92.0682
 21
965.031
  0
LINE
  8
0
 10
92.0682
 20
965.031
 11
92.1185
 21
964.768
  0
LINE
  8
0
 10
92.1185
 20
964.768
 11
92.1353
 21
964.5
  0
LINE
  8
0
 10
92.1353
 20
964.5
 11
92.1185
 21
964.232
  0
LINE
  8
0
 10
92.1185
 20
964.232
 11
92.0682
 21
963.969
  0
LINE
  8
0
 10
92.0682
 20
963.969
 11
91.9853
 21
963.714
  0
LINE
  8
0
 10
91.9853
 20
963.714
 11
91.8712
 21
963.471
  0
LINE
  8
0
 10
91.8712
 20
963.471
 11
91.7275
 21
963.245
  0
LINE
  8
0
 10
91.7275
 20
963.245
 11
91.5566
 21
963.038
  0
LINE
  8
0
 10
91.5566
 20
963.038
 11
91.3611
 21
962.855
  0
LINE
  8
0
 10
91.3611
 20
962.855
 11
91.1441
 21
962.697
  0
LINE
  8
0
 10
91.1441
 20
962.697
 11
90.9092
 21
962.568
  0
LINE
  8
0
 10
90.9092
 20
962.568
 11
90.6598
 21
962.469
  0
LINE
  8
0
 10
90.6598
 20
962.469
 11
90.4001
 21
962.403
  0
LINE
  8
0
 10
90.4001
 20
962.403
 11
90.1341
 21
962.369
  0
LINE
  8
0
 10
90.1341
 20
962.369
 11
89.8659
 21
962.369
  0
LINE
  8
0
 10
-90.1341
 20
962.369
 11
-90.4001
 21
962.403
  0
LINE
  8
0
 10
-90.4001
 20
962.403
 11
-90.6598
 21
962.469
  0
LINE
  8
0
 10
-90.6598
 20
962.469
 11
-90.9092
 21
962.568
  0
LINE
  8
0
 10
-90.9092
 20
962.568
 11
-91.1441
 21
962.697
  0
LINE
  8
0
 10
-91.1441
 20
962.697
 11
-91.3611
 21
962.855
  0
LINE
  8
0
 10
-91.3611
 20
962.855
 11
-91.5566
 21
963.038
  0
LINE
  8
0
 10
-91.5566
 20
963.038
 11
-91.7275
 21
963.245
  0
LINE
  8
0
 10
-91.7275
 20
963.245
 11
-91.8712
 21
963.471
  0
LINE
  8
0
 10
-91.8712
 20
963.471
 11
-91.9853
 21
963.714
  0
LINE
  8
0
 10
-91.9853
 20
963.714
 11
-92.0682
 21
963.969
  0
LINE
  8
0
 10
-92.0682
 20
963.969
 11
-92.1185
 21
964.232
  0
LINE
  8
0
 10
-92.1185
 20
964.232
 11
-92.1353
 21
964.5
  0
LINE
  8
0
 10
-92.1353
 20
964.5
 11
-92.1185
 21
964.768
  0
LINE
  8
0
 10
-92.1185
 20
964.768
 11
-92.0682
 21
965.031
  0
LINE
  8
0
 10
-92.0682
 20
965.031
 11
-91.9853
 21
965.286
  0
LINE
  8
0
 10
-91.9853
 20
965.286
 11
-91.8712
 21
965.529
  0
LINE
  8
0
 10
-91.8712
 20
965.529
 11
-91.7275
 21
965.755
  0
LINE
  8
0
 10
-91.7275
 20
965.755
 11
-91.5566
 21
965.962
  0
LINE
  8
0
 10
-91.5566
 20
965.962
 11
-91.3611
 21
966.145
  0
LINE
  8
0
 10
-91.3611
 20
966.145
 11
-91.1441
 21
966.303
  0
LINE
  8
0
 10
-91.1441
 20
966.303
 11
-90.9092
 21
966.432
  0
LINE
  8
0
 10
-90.9092
 20
966.432
 11
-90.6598
 21
966.531
  0
LINE
  8
0
 10
-90.6598
 20
966.531
 11
-90.4001
 21
966.597
  0
LINE
  8
0
 10
-90.4001
 20
966.597
 11
-90.1341
 21
966.631
  0
LINE
  8
0
 10
-90.1341
 20
966.631
 11
-89.8659
 21
966.631
  0
LINE
  8
0
 10
-89.8659
 20
966.631
 11
-89.5999
 21
966.597
  0
LINE
  8
0
 10
-89.5999
 20
966.597
 11
-89.3401
 21
966.531
  0
LINE
  8
0
 10
-89.3401
 20
966.531
 11
-89.0908
 21
966.432
  0
LINE
  8
0
 10
-89.0908
 20
966.432
 11
-88.8559
 21
966.303
  0
LINE
  8
0
 10
-88.8559
 20
966.303
 11
-88.6389
 21
966.145
  0
LINE
  8
0
 10
-88.6389
 20
966.145
 11
-88.4434
 21
965.962
  0
LINE
  8
0
 10
-88.4434
 20
965.962
 11
-88.2725
 21
965.755
  0
LINE
  8
0
 10
-88.2725
 20
965.755
 11
-88.1288
 21
965.529
  0
LINE
  8
0
 10
-88.1288
 20
965.529
 11
-88.0146
 21
965.286
  0
LINE
  8
0
 10
-88.0146
 20
965.286
 11
-87.9318
 21
965.031
  0
LINE
  8
0
 10
-87.9318
 20
965.031
 11
-87.8815
 21
964.768
  0
LINE
  8
0
 10
-87.8815
 20
964.768
 11
-87.8647
 21
964.5
  0
LINE
  8
0
 10
-87.8647
 20
964.5
 11
-87.8815
 21
964.232
  0
LINE
  8
0
 10
-87.8815
 20
964.232
 11
-87.9318
 21
963.969
  0
LINE
  8
0
 10
-87.9318
 20
963.969
 11
-88.0146
 21
963.714
  0
LINE
  8
0
 10
-88.0146
 20
963.714
 11
-88.1288
 21
963.471
  0
LINE
  8
0
 10
-88.1288
 20
963.471
 11
-88.2725
 21
963.245
  0
LINE
  8
0
 10
-88.2725
 20
963.245
 11
-88.4434
 21
963.038
  0
LINE
  8
0
 10
-88.4434
 20
963.038
 11
-88.6389
 21
962.855
  0
LINE
  8
0
 10
-88.6389
 20
962.855
 11
-88.8559
 21
962.697
  0
LINE
  8
0
 10
-88.8559
 20
962.697
 11
-89.0908
 21
962.568
  0
LINE
  8
0
 10
-89.0908
 20
962.568
 11
-89.3401
 21
962.469
  0
LINE
  8
0
 10
-89.3401
 20
962.469
 11
-89.5999
 21
962.403
  0
LINE
  8
0
 10
-89.5999
 20
962.403
 11
-89.8659
 21
962.369
  0
LINE
  8
0
 10
-89.8659
 20
962.369
 11
-90.1341
 21
962.369
  0
LINE
  8
0
 10
89.8659
 20
707.369
 11
89.5999
 21
707.403
  0
LINE
  8
0
 10
89.5999
 20
707.403
 11
89.3401
 21
707.469
  0
LINE
  8
0
 10
89.3401
 20
707.469
 11
89.0908
 21
707.568
  0
LINE
  8
0
 10
89.0908
 20
707.568
 11
88.8559
 21
707.697
  0
LINE
  8
0
 10
88.8559
 20
707.697
 11
88.6389
 21
707.855
  0
LINE
  8
0
 10
88.6389
 20
707.855
 11
88.4434
 21
708.038
  0
LINE
  8
0
 10
88.4434
 20
708.038
 11
88.2725
 21
708.245
  0
LINE
  8
0
 10
88.2725
 20
708.245
 11
88.1288
 21
708.471
  0
LINE
  8
0
 10
88.1288
 20
708.471
 11
88.0146
 21
708.714
  0
LINE
  8
0
 10
88.0146
 20
708.714
 11
87.9318
 21
708.969
  0
LINE
  8
0
 10
87.9318
 20
708.969
 11
87.8815
 21
709.232
  0
LINE
  8
0
 10
87.8815
 20
709.232
 11
87.8647
 21
709.5
  0
LINE
  8
0
 10
87.8647
 20
709.5
 11
87.8815
 21
709.768
  0
LINE
  8
0
 10
87.8815
 20
709.768
 11
87.9318
 21
710.031
  0
LINE
  8
0
 10
87.9318
 20
710.031
 11
88.0146
 21
710.286
  0
LINE
  8
0
 10
88.0146
 20
710.286
 11
88.1288
 21
710.529
  0
LINE
  8
0
 10
88.1288
 20
710.529
 11
88.2725
 21
710.755
  0
LINE
  8
0
 10
88.2725
 20
710.755
 11
88.4434
 21
710.962
  0
LINE
  8
0
 10
88.4434
 20
710.962
 11
88.6389
 21
711.145
  0
LINE
  8
0
 10
88.6389
 20
711.145
 11
88.8559
 21
711.303
  0
LINE
  8
0
 10
88.8559
 20
711.303
 11
89.0908
 21
711.432
  0
LINE
  8
0
 10
89.0908
 20
711.432
 11
89.3401
 21
711.531
  0
LINE
  8
0
 10
89.3401
 20
711.531
 11
89.5999
 21
711.597
  0
LINE
  8
0
 10
89.5999
 20
711.597
 11
89.8659
 21
711.631
  0
LINE
  8
0
 10
89.8659
 20
711.631
 11
90.1341
 21
711.631
  0
LINE
  8
0
 10
90.1341
 20
711.631
 11
90.4001
 21
711.597
  0
LINE
  8
0
 10
90.4001
 20
711.597
 11
90.6598
 21
711.531
  0
LINE
  8
0
 10
90.6598
 20
711.531
 11
90.9092
 21
711.432
  0
LINE
  8
0
 10
90.9092
 20
711.432
 11
91.1441
 21
711.303
  0
LINE
  8
0
 10
91.1441
 20
711.303
 11
91.3611
 21
711.145
  0
LINE
  8
0
 10
91.3611
 20
711.145
 11
91.5566
 21
710.962
  0
LINE
  8
0
 10
91.5566
 20
710.962
 11
91.7275
 21
710.755
  0
LINE
  8
0
 10
91.7275
 20
710.755
 11
91.8712
 21
710.529
  0
LINE
  8
0
 10
91.8712
 20
710.529
 11
91.9853
 21
710.286
  0
LINE
  8
0
 10
91.9853
 20
710.286
 11
92.0682
 21
710.031
  0
LINE
  8
0
 10
92.0682
 20
710.031
 11
92.1185
 21
709.768
  0
LINE
  8
0
 10
92.1185
 20
709.768
 11
92.1353
 21
709.5
  0
LINE
  8
0
 10
92.1353
 20
709.5
 11
92.1185
 21
709.232
  0
LINE
  8
0
 10
92.1185
 20
709.232
 11
92.0682
 21
708.969
  0
LINE
  8
0
 10
92.0682
 20
708.969
 11
91.9853
 21
708.714
  0
LINE
  8
0
 10
91.9853
 20
708.714
 11
91.8712
 21
708.471
  0
LINE
  8
0
 10
91.8712
 20
708.471
 11
91.7275
 21
708.245
  0
LINE
  8
0
 10
91.7275
 20
708.245
 11
91.5566
 21
708.038
  0
LINE
  8
0
 10
91.5566
 20
708.038
 11
91.3611
 21
707.855
  0
LINE
  8
0
 10
91.3611
 20
707.855
 11
91.1441
 21
707.697
  0
LINE
  8
0
 10
91.1441
 20
707.697
 11
90.9092
 21
707.568
  0
LINE
  8
0
 10
90.9092
 20
707.568
 11
90.6598
 21
707.469
  0
LINE
  8
0
 10
90.6598
 20
707.469
 11
90.4001
 21
707.403
  0
LINE
  8
0
 10
90.4001
 20
707.403
 11
90.1341
 21
707.369
  0
LINE
  8
0
 10
90.1341
 20
707.369
 11
89.8659
 21
707.369
  0
LINE
  8
0
 10
-90.1341
 20
707.369
 11
-90.4001
 21
707.403
  0
LINE
  8
0
 10
-90.4001
 20
707.403
 11
-90.6598
 21
707.469
  0
LINE
  8
0
 10
-90.6598
 20
707.469
 11
-90.9092
 21
707.568
  0
LINE
  8
0
 10
-90.9092
 20
707.568
 11
-91.1441
 21
707.697
  0
LINE
  8
0
 10
-91.1441
 20
707.697
 11
-91.3611
 21
707.855
  0
LINE
  8
0
 10
-91.3611
 20
707.855
 11
-91.5566
 21
708.038
  0
LINE
  8
0
 10
-91.5566
 20
708.038
 11
-91.7275
 21
708.245
  0
LINE
  8
0
 10
-91.7275
 20
708.245
 11
-91.8712
 21
708.471
  0
LINE
  8
0
 10
-91.8712
 20
708.471
 11
-91.9853
 21
708.714
  0
LINE
  8
0
 10
-91.9853
 20
708.714
 11
-92.0682
 21
708.969
  0
LINE
  8
0
 10
-92.0682
 20
708.969
 11
-92.1185
 21
709.232
  0
LINE
  8
0
 10
-92.1185
 20
709.232
 11
-92.1353
 21
709.5
  0
LINE
  8
0
 10
-92.1353
 20
709.5
 11
-92.1185
 21
709.768
  0
LINE
  8
0
 10
-92.1185
 20
709.768
 11
-92.0682
 21
710.031
  0
LINE
  8
0
 10
-92.0682
 20
710.031
 11
-91.9853
 21
710.286
  0
LINE
  8
0
 10
-91.9853
 20
710.286
 11
-91.8712
 21
710.529
  0
LINE
  8
0
 10
-91.8712
 20
710.529
 11
-91.7275
 21
710.755
  0
LINE
  8
0
 10
-91.7275
 20
710.755
 11
-91.5566
 21
710.962
  0
LINE
  8
0
 10
-91.5566
 20
710.962
 11
-91.3611
 21
711.145
  0
LINE
  8
0
 10
-91.3611
 20
711.145
 11
-91.1441
 21
711.303
  0
LINE
  8
0
 10
-91.1441
 20
711.303
 11
-90.9092
 21
711.432
  0
LINE
  8
0
 10
-90.9092
 20
711.432
 11
-90.6598
 21
711.531
  0
LINE
  8
0
 10
-90.6598
 20
711.531
 11
-90.4001
 21
711.597
  0
LINE
  8
0
 10
-90.4001
 20
711.597
 11
-90.1341
 21
711.631
  0
LINE
  8
0
 10
-90.1341
 20
711.631
 11
-89.8659
 21
711.631
  0
LINE
  8
0
 10
-89.8659
 20
711.631
 11
-89.5999
 21
711.597
  0
LINE
  8
0
 10
-89.5999
 20
711.597
 11
-89.3401
 21
711.531
  0
LINE
  8
0
 10
-89.3401
 20
711.531
 11
-89.0908
 21
711.432
  0
LINE
  8
0
 10
-89.0908
 20
711.432
 11
-88.8559
 21
711.303
  0
LINE
  8
0
 10
-88.8559
 20
711.303
 11
-88.6389
 21
711.145
  0
LINE
  8
0
 10
-88.6389
 20
711.145
 11
-88.4434
 21
710.962
  0
LINE
  8
0
 10
-88.4434
 20
710.962
 11
-88.2725
 21
710.755
  0
LINE
  8
0
 10
-88.2725
 20
710.755
 11
-88.1288
 21
710.529
  0
LINE
  8
0
 10
-88.1288
 20
710.529
 11
-88.0146
 21
710.286
  0
LINE
  8
0
 10
-88.0146
 20
710.286
 11
-87.9318
 21
710.031
  0
LINE
  8
0
 10
-87.9318
 20
710.031
 11
-87.8815
 21
709.768
  0
LINE
  8
0
 10
-87.8815
 20
709.768
 11
-87.8647
 21
709.5
  0
LINE
  8
0
 10
-87.8647
 20
709.5
 11
-87.8815
 21
709.232
  0
LINE
  8
0
 10
-87.8815
 20
709.232
 11
-87.9318
 21
708.969
  0
LINE
  8
0
 10
-87.9318
 20
708.969
 11
-88.0146
 21
708.714
  0
LINE
  8
0
 10
-88.0146
 20
708.714
 11
-88.1288
 21
708.471
  0
LINE
  8
0
 10
-88.1288
 20
708.471
 11
-88.2725
 21
708.245
  0
LINE
  8
0
 10
-88.2725
 20
708.245
 11
-88.4434
 21
708.038
  0
LINE
  8
0
 10
-88.4434
 20
708.038
 11
-88.6389
 21
707.855
  0
LINE
  8
0
 10
-88.6389
 20
707.855
 11
-88.8559
 21
707.697
  0
LINE
  8
0
 10
-88.8559
 20
707.697
 11
-89.0908
 21
707.568
  0
LINE
  8
0
 10
-89.0908
 20
707.568
 11
-89.3401
 21
707.469
  0
LINE
  8
0
 10
-89.3401
 20
707.469
 11
-89.5999
 21
707.403
  0
LINE
  8
0
 10
-89.5999
 20
707.403
 11
-89.8659
 21
707.369
  0
LINE
  8
0
 10
-89.8659
 20
707.369
 11
-90.1341
 21
707.369
  0
ENDSEC
  0
SECTION
  2
OBJECTS
  0
DICTIONARY
  0
ENDSEC
  0
EOF
