<?xml version="1.0" standalone="no"?>
<!DOCTYPE svg PUBLIC "-//W3C//DTD SVG 1.1//EN" "http://www.w3.org/Graphics/SVG/1.1/DTD/svg11.dtd">
<svg width="136mm" height="636mm" viewBox="-68 -1092 136 636" xmlns="http://www.w3.org/2000/svg" version="1.1">
<title>OpenSCAD Model</title>
<path d="
M 63.4369,-972.089 L 64.0451,-972.245 L 64.6289,-972.476 L 65.1791,-972.778 L 65.6871,-973.147 L 66.1448,-973.577
 L 66.5451,-974.061 L 66.8815,-974.591 L 67.1489,-975.159 L 67.3429,-975.757 L 67.4606,-976.373 L 67.5,-977
 L 67.5,-1087 L 67.4606,-1087.63 L 67.3429,-1088.24 L 67.1489,-1088.84 L 66.8815,-1089.41 L 66.5451,-1089.94
 L 66.1448,-1090.42 L 65.6871,-1090.85 L 65.1791,-1091.22 L 64.6289,-1091.52 L 64.0451,-1091.76 L 63.4369,-1091.91
 L 62.8139,-1091.99 L -62.8139,-1091.99 L -63.4369,-1091.91 L -64.0451,-1091.76 L -64.6289,-1091.52 L -65.1791,-1091.22
 L -65.6871,-1090.85 L -66.1448,-1090.42 L -66.5451,-1089.94 L -66.8815,-1089.41 L -67.1489,-1088.84 L -67.3429,-1088.24
 L -67.4606,-1087.63 L -67.5,-1087 L -67.5,-977 L -67.4606,-976.373 L -67.3429,-975.757 L -67.1489,-975.159
 L -66.8815,-974.591 L -66.5451,-974.061 L -66.1448,-973.577 L -65.6871,-973.147 L -65.1791,-972.778 L -64.6289,-972.476
 L -64.0451,-972.245 L -63.4369,-972.089 L -62.8139,-972.01 L 62.8139,-972.01 z
M -62.5482,-972.509 L -63.1401,-972.584 L -63.7178,-972.732 L -64.2724,-972.952 L -64.7952,-973.239 L -65.2778,-973.59
 L -65.7126,-973.998 L -66.0928,-974.458 L -66.4125,-974.962 L -66.6664,-975.501 L -66.8508,-976.069 L -66.9625,-976.655
 L -67,-977.25 L -67,-1086.75 L -66.9625,-1087.35 L -66.8508,-1087.93 L -66.6664,-1088.5 L -66.4125,-1089.04
 L -66.0928,-1089.54 L -65.7126,-1090 L -65.2778,-1090.41 L -64.7952,-1090.76 L -64.2724,-1091.05 L -63.7178,-1091.27
 L -63.1401,-1091.42 L -62.5482,-1091.49 L 62.5482,-1091.49 L 63.1401,-1091.42 L 63.7178,-1091.27 L 64.2724,-1091.05
 L 64.7952,-1090.76 L 65.2778,-1090.41 L 65.7126,-1090 L 66.0928,-1089.54 L 66.4125,-1089.04 L 66.6664,-1088.5
 L 66.8508,-1087.93 L 66.9625,-1087.35 L 67,-1086.75 L 67,-977.25 L 66.9625,-976.655 L 66.8508,-976.069
 L 66.6664,-975.501 L 66.4125,-974.962 L 66.0928,-974.458 L 65.7126,-973.998 L 65.2778,-973.59 L 64.7952,-973.239
 L 64.2724,-972.952 L 63.7178,-972.732 L 63.1401,-972.584 L 62.5482,-972.509 z
M 63.4369,-843.089 L 64.0451,-843.245 L 64.6289,-843.476 L 65.1791,-843.778 L 65.6871,-844.147 L 66.1448,-844.577
 L 66.5451,-845.061 L 66.8815,-845.591 L 67.1489,-846.159 L 67.3429,-846.757 L 67.4606,-847.373 L 67.5,-848
 L 67.5,-958 L 67.4606,-958.627 L 67.3429,-959.243 L 67.1489,-959.841 L 66.8815,-960.409 L 66.5451,-960.939
 L 66.1448,-961.423 L 65.6871,-961.853 L 65.1791,-962.222 L 64.6289,-962.524 L 64.0451,-962.755 L 63.4369,-962.911
 L 62.8139,-962.99 L -62.8139,-962.99 L -63.4369,-962.911 L -64.0451,-962.755 L -64.6289,-962.524 L -65.1791,-962.222
 L -65.6871,-961.853 L -66.1448,-961.423 L -66.5451,-960.939 L -66.8815,-960.409 L -67.1489,-959.841 L -67.3429,-959.243
 L -67.4606,-958.627 L -67.5,-958 L -67.5,-848 L -67.4606,-847.373 L -67.3429,-846.757 L -67.1489,-846.159
 L -66.8815,-845.591 L -66.5451,-845.061 L -66.1448,-844.577 L -65.6871,-844.147 L -65.1791,-843.778 L -64.6289,-843.476
 L -64.0451,-843.245 L -63.4369,-843.089 L -62.8139,-843.01 L 62.8139,-843.01 z
M -62.5482,-843.509 L -63.1401,-843.584 L -63.7178,-843.732 L -64.2724,-843.952 L -64.7952,-844.239 L -65.2778,-844.59
 L -65.7126,-844.998 L -66.0928,-845.458 L -66.4125,-845.962 L -66.6664,-846.501 L -66.8508,-847.069 L -66.9625,-847.655
 L -67,-848.25 L -67,-957.75 L -66.9625,-958.345 L -66.8508,-958.931 L -66.6664,-959.499 L -66.4125,-960.038
 L -66.0928,-960.542 L -65.7126,-961.002 L -65.2778,-961.41 L -64.7952,-961.761 L -64.2724,-962.048 L -63.7178,-962.268
 L -63.1401,-962.416 L -62.5482,-962.491 L 62.5482,-962.491 L 63.1401,-962.416 L 63.7178,-962.268 L 64.2724,-962.048
 L 64.7952,-961.761 L 65.2778,-961.41 L 65.7126,-961.002 L 66.0928,-960.542 L 66.4125,-960.038 L 66.6664,-959.499
 L 66.8508,-958.931 L 66.9625,-958.345 L 67,-957.75 L 67,-848.25 L 66.9625,-847.655 L 66.8508,-847.069
 L 66.6664,-846.501 L 66.4125,-845.962 L 66.0928,-845.458 L 65.7126,-844.998 L 65.2778,-844.59 L 64.7952,-844.239
 L 64.2724,-843.952 L 63.7178,-843.732 L 63.1401,-843.584 L 62.5482,-843.509 z
M 63.4369,-714.089 L 64.0451,-714.245 L 64.6289,-714.476 L 65.1791,-714.778 L 65.6871,-715.147 L 66.1448,-715.577
 L 66.5451,-716.061 L 66.8815,-716.591 L 67.1489,-717.159 L 67.3429,-717.757 L 67.4606,-718.373 L 67.5,-719
 L 67.5,-829 L 67.4606,-829.627 L 67.3429,-830.243 L 67.1489,-830.841 L 66.8815,-831.409 L 66.5451,-831.939
 L 66.1448,-832.423 L 65.6871,-832.853 L 65.1791,-833.222 L 64.6289,-833.524 L 64.0451,-833.755 L 63.4369,-833.911
 L 62.8139,-833.99 L -62.8139,-833.99 L -63.4369,-833.911 L -64.0451,-833.755 L -64.6289,-833.524 L -65.1791,-833.222
 L -65.6871,-832.853 L -66.1448,-832.423 L -66.5451,-831.939 L -66.8815,-831.409 L -67.1489,-830.841 L -67.3429,-830.243
 L -67.4606,-829.627 L -67.5,-829 L -67.5,-719 L -67.4606,-718.373 L -67.3429,-717.757 L -67.1489,-717.159
 L -66.8815,-716.591 L -66.5451,-716.061 L -66.1448,-715.577 L -65.6871,-715.147 L -65.1791,-714.778 L -64.6289,-714.476
 L -64.0451,-714.245 L -63.4369,-714.089 L -62.8139,-714.01 L 62.8139,-714.01 z
M -62.5482,-714.509 L -63.1401,-714.584 L -63.7178,-714.732 L -64.2724,-714.952 L -64.7952,-715.239 L -65.2778,-715.59
 L -65.7126,-715.998 L -66.0928,-716.458 L -66.4125,-716.962 L -66.6664,-717.501 L -66.8508,-718.069 L -66.9625,-718.655
 L -67,-719.25 L -67,-828.75 L -66.9625,-829.345 L -66.8508,-829.931 L -66.6664,-830.499 L -66.4125,-831.038
 L -66.0928,-831.542 L -65.7126,-832.002 L -65.2778,-832.41 L -64.7952,-832.761 L -64.2724,-833.048 L -63.7178,-833.268
 L -63.1401,-833.416 L -62.5482,-833.491 L 62.5482,-833.491 L 63.1401,-833.416 L 63.7178,-833.268 L 64.2724,-833.048
 L 64.7952,-832.761 L 65.2778,-832.41 L 65.7126,-832.002 L 66.0928,-831.542 L 66.4125,-831.038 L 66.6664,-830.499
 L 66.8508,-829.931 L 66.9625,-829.345 L 67,-828.75 L 67,-719.25 L 66.9625,-718.655 L 66.8508,-718.069
 L 66.6664,-717.501 L 66.4125,-716.962 L 66.0928,-716.458 L 65.7126,-715.998 L 65.2778,-715.59 L 64.7952,-715.239
 L 64.2724,-714.952 L 63.7178,-714.732 L 63.1401,-714.584 L 62.5482,-714.509 z
M 63.4369,-585.089 L 64.0451,-585.245 L 64.6289,-585.476 L 65.1791,-585.778 L 65.6871,-586.147 L 66.1448,-586.577
 L 66.5451,-587.061 L 66.8815,-587.591 L 67.1489,-588.159 L 67.3429,-588.757 L 67.4606,-589.373 L 67.5,-590
 L 67.5,-700 L 67.4606,-700.627 L 67.3429,-701.243 L 67.1489,-701.841 L 66.8815,-702.409 L 66.5451,-702.939
 L 66.1448,-703.423 L 65.6871,-703.853 L 65.1791,-704.222 L 64.6289,-704.524 L 64.0451,-704.755 L 63.4369,-704.911
 L 62.8139,-704.99 L -62.8139,-704.99 L -63.4369,-704.911 L -64.0451,-704.755 L -64.6289,-704.524 L -65.1791,-704.222
 L -65.6871,-703.853 L -66.1448,-703.423 L -66.5451,-702.939 L -66.8815,-702.409 L -67.1489,-701.841 L -67.3429,-701.243
 L -67.4606,-700.627 L -67.5,-700 L -67.5,-590 L -67.4606,-589.373 L -67.3429,-588.757 L -67.1489,-588.159
 L -66.8815,-587.591 L -66.5451,-587.061 L -66.1448,-586.577 L -65.6871,-586.147 L -65.1791,-585.778 L -64.6289,-585.476
 L -64.0451,-585.245 L -63.4369,-585.089 L -62.8139,-585.01 L 62.8139,-585.01 z
M -62.493,-586.388 L -62.9751,-586.449 L -63.4457,-586.57 L -63.8975,-586.749 L -64.3234,-586.983 L -64.7165,-587.269
 L -65.0707,-587.601 L -65.3805,-587.976 L -65.6408,-588.386 L -65.8477,-588.826 L -65.9979,-589.288 L -66.089,-589.765
 L -66.1195,-590.25 L -66.1195,-699.75 L -66.089,-700.235 L -65.9979,-700.712 L -65.8477,-701.174 L -65.6408,-701.614
 L -65.3805,-702.024 L -65.0707,-702.399 L -64.7165,-702.731 L -64.3234,-703.017 L -63.8975,-703.251 L -63.4457,-703.43
 L -62.9751,-703.551 L -62.493,-703.612 L 62.493,-703.612 L 62.9751,-703.551 L 63.4457,-703.43 L 63.8975,-703.251
 L 64.3234,-703.017 L 64.7165,-702.731 L 65.0707,-702.399 L 65.3805,-702.024 L 65.6408,-701.614 L 65.8477,-701.174
 L 65.9979,-700.712 L 66.089,-700.235 L 66.1195,-699.75 L 66.1195,-590.25 L 66.089,-589.765 L 65.9979,-589.288
 L 65.8477,-588.826 L 65.6408,-588.386 L 65.3805,-587.976 L 65.0707,-587.601 L 64.7165,-587.269 L 64.3234,-586.983
 L 63.8975,-586.749 L 63.4457,-586.57 L 62.9751,-586.449 L 62.493,-586.388 z
M 63.4369,-456.089 L 64.0451,-456.245 L 64.6289,-456.476 L 65.1791,-456.778 L 65.6871,-457.147 L 66.1448,-457.577
 L 66.5451,-458.061 L 66.8815,-458.591 L 67.1489,-459.159 L 67.3429,-459.757 L 67.4606,-460.373 L 67.5,-461
 L 67.5,-571 L 67.4606,-571.627 L 67.3429,-572.243 L 67.1489,-572.841 L 66.8815,-573.409 L 66.5451,-573.939
 L 66.1448,-574.423 L 65.6871,-574.853 L 65.1791,-575.222 L 64.6289,-575.524 L 64.0451,-575.755 L 63.4369,-575.911
 L 62.8139,-575.99 L -62.8139,-575.99 L -63.4369,-575.911 L -64.0451,-575.755 L -64.6289,-575.524 L -65.1791,-575.222
 L -65.6871,-574.853 L -66.1448,-574.423 L -66.5451,-573.939 L -66.8815,-573.409 L -67.1489,-572.841 L -67.3429,-572.243
 L -67.4606,-571.627 L -67.5,-571 L -67.5,-461 L -67.4606,-460.373 L -67.3429,-459.757 L -67.1489,-459.159
 L -66.8815,-458.591 L -66.5451,-458.061 L -66.1448,-457.577 L -65.6871,-457.147 L -65.1791,-456.778 L -64.6289,-456.476
 L -64.0451,-456.245 L -63.4369,-456.089 L -62.8139,-456.01 L 62.8139,-456.01 z
M 59.887,-566.704 L 59.6627,-566.732 L 59.4438,-566.788 L 59.2336,-566.871 L 59.0355,-566.98 L 58.8526,-567.113
 L 58.6879,-567.268 L 58.5438,-567.442 L 58.4226,-567.633 L 58.3264,-567.837 L 58.2565,-568.052 L 58.2142,-568.274
 L 58.2,-568.5 L 58.2142,-568.726 L 58.2565,-568.948 L 58.3264,-569.163 L 58.4226,-569.367 L 58.5438,-569.558
 L 58.6879,-569.732 L 58.8526,-569.887 L 59.0355,-570.02 L 59.2336,-570.129 L 59.4438,-570.212 L 59.6627,-570.268
 L 59.887,-570.296 L 60.113,-570.296 L 60.3373,-570.268 L 60.5562,-570.212 L 60.7664,-570.129 L 60.9645,-570.02
 L 61.1474,-569.887 L 61.3121,-569.732 L 61.4562,-569.558 L 61.5773,-569.367 L 61.6736,-569.163 L 61.7434,-568.948
 L 61.7858,-568.726 L 61.8,-568.5 L 61.7858,-568.274 L 61.7434,-568.052 L 61.6736,-567.837 L 61.5773,-567.633
 L 61.4562,-567.442 L 61.3121,-567.268 L 61.1474,-567.113 L 60.9645,-566.98 L 60.7664,-566.871 L 60.5562,-566.788
 L 60.3373,-566.732 L 60.113,-566.704 z
M -60.113,-566.704 L -60.3373,-566.732 L -60.5562,-566.788 L -60.7664,-566.871 L -60.9645,-566.98 L -61.1474,-567.113
 L -61.3121,-567.268 L -61.4562,-567.442 L -61.5773,-567.633 L -61.6736,-567.837 L -61.7434,-568.052 L -61.7858,-568.274
 L -61.8,-568.5 L -61.7858,-568.726 L -61.7434,-568.948 L -61.6736,-569.163 L -61.5773,-569.367 L -61.4562,-569.558
 L -61.3121,-569.732 L -61.1474,-569.887 L -60.9645,-570.02 L -60.7664,-570.129 L -60.5562,-570.212 L -60.3373,-570.268
 L -60.113,-570.296 L -59.887,-570.296 L -59.6627,-570.268 L -59.4438,-570.212 L -59.2336,-570.129 L -59.0355,-570.02
 L -58.8526,-569.887 L -58.6879,-569.732 L -58.5438,-569.558 L -58.4226,-569.367 L -58.3264,-569.163 L -58.2565,-568.948
 L -58.2142,-568.726 L -58.2,-568.5 L -58.2142,-568.274 L -58.2565,-568.052 L -58.3264,-567.837 L -58.4226,-567.633
 L -58.5438,-567.442 L -58.6879,-567.268 L -58.8526,-567.113 L -59.0355,-566.98 L -59.2336,-566.871 L -59.4438,-566.788
 L -59.6627,-566.732 L -59.887,-566.704 z
M -60.113,-461.704 L -60.3373,-461.732 L -60.5562,-461.788 L -60.7664,-461.871 L -60.9645,-461.98 L -61.1474,-462.113
 L -61.3121,-462.268 L -61.4562,-462.442 L -61.5773,-462.633 L -61.6736,-462.837 L -61.7434,-463.052 L -61.7858,-463.274
 L -61.8,-463.5 L -61.7858,-463.726 L -61.7434,-463.948 L -61.6736,-464.163 L -61.5773,-464.367 L -61.4562,-464.558
 L -61.3121,-464.732 L -61.1474,-464.887 L -60.9645,-465.02 L -60.7664,-465.129 L -60.5562,-465.212 L -60.3373,-465.268
 L -60.113,-465.296 L -59.887,-465.296 L -59.6627,-465.268 L -59.4438,-465.212 L -59.2336,-465.129 L -59.0355,-465.02
 L -58.8526,-464.887 L -58.6879,-464.732 L -58.5438,-464.558 L -58.4226,-464.367 L -58.3264,-464.163 L -58.2565,-463.948
 L -58.2142,-463.726 L -58.2,-463.5 L -58.2142,-463.274 L -58.2565,-463.052 L -58.3264,-462.837 L -58.4226,-462.633
 L -58.5438,-462.442 L -58.6879,-462.268 L -58.8526,-462.113 L -59.0355,-461.98 L -59.2336,-461.871 L -59.4438,-461.788
 L -59.6627,-461.732 L -59.887,-461.704 z
M 59.887,-461.704 L 59.6627,-461.732 L 59.4438,-461.788 L 59.2336,-461.871 L 59.0355,-461.98 L 58.8526,-462.113
 L 58.6879,-462.268 L 58.5438,-462.442 L 58.4226,-462.633 L 58.3264,-462.837 L 58.2565,-463.052 L 58.2142,-463.274
 L 58.2,-463.5 L 58.2142,-463.726 L 58.2565,-463.948 L 58.3264,-464.163 L 58.4226,-464.367 L 58.5438,-464.558
 L 58.6879,-464.732 L 58.8526,-464.887 L 59.0355,-465.02 L 59.2336,-465.129 L 59.4438,-465.212 L 59.6627,-465.268
 L 59.887,-465.296 L 60.113,-465.296 L 60.3373,-465.268 L 60.5562,-465.212 L 60.7664,-465.129 L 60.9645,-465.02
 L 61.1474,-464.887 L 61.3121,-464.732 L 61.4562,-464.558 L 61.5773,-464.367 L 61.6736,-464.163 L 61.7434,-463.948
 L 61.7858,-463.726 L 61.8,-463.5 L 61.7858,-463.274 L 61.7434,-463.052 L 61.6736,-462.837 L 61.5773,-462.633
 L 61.4562,-462.442 L 61.3121,-462.268 L 61.1474,-462.113 L 60.9645,-461.98 L 60.7664,-461.871 L 60.5562,-461.788
 L 60.3373,-461.732 L 60.113,-461.704 z
" stroke="black" fill="lightgray" stroke-width="0.5"/>
</svg>
