  0
SECTION
  2
BLOCKS
  0
ENDSEC
  0
SECTION
  2
ENTITIES
  0
LINE
  8
0
 10
100.937
 20
2398.59
 11
101.545
 21
2398.74
  0
LINE
  8
0
 10
101.545
 20
2398.74
 11
102.129
 21
2398.98
  0
LINE
  8
0
 10
102.129
 20
2398.98
 11
102.679
 21
2399.28
  0
LINE
  8
0
 10
102.679
 20
2399.28
 11
103.187
 21
2399.65
  0
LINE
  8
0
 10
103.187
 20
2399.65
 11
103.645
 21
2400.08
  0
LINE
  8
0
 10
103.645
 20
2400.08
 11
104.045
 21
2400.56
  0
LINE
  8
0
 10
104.045
 20
2400.56
 11
104.382
 21
2401.09
  0
LINE
  8
0
 10
104.382
 20
2401.09
 11
104.649
 21
2401.66
  0
LINE
  8
0
 10
104.649
 20
2401.66
 11
104.843
 21
2402.26
  0
LINE
  8
0
 10
104.843
 20
2402.26
 11
104.961
 21
2402.87
  0
LINE
  8
0
 10
104.961
 20
2402.87
 11
105
 21
2403.5
  0
LINE
  8
0
 10
105
 20
2403.5
 11
105
 21
2468.5
  0
LINE
  8
0
 10
105
 20
2468.5
 11
104.961
 21
2469.13
  0
LINE
  8
0
 10
104.961
 20
2469.13
 11
104.843
 21
2469.74
  0
LINE
  8
0
 10
104.843
 20
2469.74
 11
104.649
 21
2470.34
  0
LINE
  8
0
 10
104.649
 20
2470.34
 11
104.382
 21
2470.91
  0
LINE
  8
0
 10
104.382
 20
2470.91
 11
104.045
 21
2471.44
  0
LINE
  8
0
 10
104.045
 20
2471.44
 11
103.645
 21
2471.92
  0
LINE
  8
0
 10
103.645
 20
2471.92
 11
103.187
 21
2472.35
  0
LINE
  8
0
 10
103.187
 20
2472.35
 11
102.679
 21
2472.72
  0
LINE
  8
0
 10
102.679
 20
2472.72
 11
102.129
 21
2473.02
  0
LINE
  8
0
 10
102.129
 20
2473.02
 11
101.545
 21
2473.26
  0
LINE
  8
0
 10
101.545
 20
2473.26
 11
100.937
 21
2473.41
  0
LINE
  8
0
 10
100.937
 20
2473.41
 11
100.314
 21
2473.49
  0
LINE
  8
0
 10
100.314
 20
2473.49
 11
-100.314
 21
2473.49
  0
LINE
  8
0
 10
-100.314
 20
2473.49
 11
-100.937
 21
2473.41
  0
LINE
  8
0
 10
-100.937
 20
2473.41
 11
-101.545
 21
2473.26
  0
LINE
  8
0
 10
-101.545
 20
2473.26
 11
-102.129
 21
2473.02
  0
LINE
  8
0
 10
-102.129
 20
2473.02
 11
-102.679
 21
2472.72
  0
LINE
  8
0
 10
-102.679
 20
2472.72
 11
-103.187
 21
2472.35
  0
LINE
  8
0
 10
-103.187
 20
2472.35
 11
-103.645
 21
2471.92
  0
LINE
  8
0
 10
-103.645
 20
2471.92
 11
-104.045
 21
2471.44
  0
LINE
  8
0
 10
-104.045
 20
2471.44
 11
-104.382
 21
2470.91
  0
LINE
  8
0
 10
-104.382
 20
2470.91
 11
-104.649
 21
2470.34
  0
LINE
  8
0
 10
-104.649
 20
2470.34
 11
-104.843
 21
2469.74
  0
LINE
  8
0
 10
-104.843
 20
2469.74
 11
-104.961
 21
2469.13
  0
LINE
  8
0
 10
-104.961
 20
2469.13
 11
-105
 21
2468.5
  0
LINE
  8
0
 10
-105
 20
2468.5
 11
-105
 21
2403.5
  0
LINE
  8
0
 10
-105
 20
2403.5
 11
-104.961
 21
2402.87
  0
LINE
  8
0
 10
-104.961
 20
2402.87
 11
-104.843
 21
2402.26
  0
LINE
  8
0
 10
-104.843
 20
2402.26
 11
-104.649
 21
2401.66
  0
LINE
  8
0
 10
-104.649
 20
2401.66
 11
-104.382
 21
2401.09
  0
LINE
  8
0
 10
-104.382
 20
2401.09
 11
-104.045
 21
2400.56
  0
LINE
  8
0
 10
-104.045
 20
2400.56
 11
-103.645
 21
2400.08
  0
LINE
  8
0
 10
-103.645
 20
2400.08
 11
-103.187
 21
2399.65
  0
LINE
  8
0
 10
-103.187
 20
2399.65
 11
-102.679
 21
2399.28
  0
LINE
  8
0
 10
-102.679
 20
2399.28
 11
-102.129
 21
2398.98
  0
LINE
  8
0
 10
-102.129
 20
2398.98
 11
-101.545
 21
2398.74
  0
LINE
  8
0
 10
-101.545
 20
2398.74
 11
-100.937
 21
2398.59
  0
LINE
  8
0
 10
-100.937
 20
2398.59
 11
-100.314
 21
2398.51
  0
LINE
  8
0
 10
-100.314
 20
2398.51
 11
100.314
 21
2398.51
  0
LINE
  8
0
 10
100.314
 20
2398.51
 11
100.937
 21
2398.59
  0
LINE
  8
0
 10
-99.7512
 20
2400.01
 11
-100.25
 21
2400.07
  0
LINE
  8
0
 10
-100.25
 20
2400.07
 11
-100.736
 21
2400.2
  0
LINE
  8
0
 10
-100.736
 20
2400.2
 11
-101.203
 21
2400.38
  0
LINE
  8
0
 10
-101.203
 20
2400.38
 11
-101.643
 21
2400.62
  0
LINE
  8
0
 10
-101.643
 20
2400.62
 11
-102.05
 21
2400.92
  0
LINE
  8
0
 10
-102.05
 20
2400.92
 11
-102.416
 21
2401.26
  0
LINE
  8
0
 10
-102.416
 20
2401.26
 11
-102.736
 21
2401.65
  0
LINE
  8
0
 10
-102.736
 20
2401.65
 11
-103.005
 21
2402.07
  0
LINE
  8
0
 10
-103.005
 20
2402.07
 11
-103.219
 21
2402.53
  0
LINE
  8
0
 10
-103.219
 20
2402.53
 11
-103.374
 21
2403.01
  0
LINE
  8
0
 10
-103.374
 20
2403.01
 11
-103.468
 21
2403.5
  0
LINE
  8
0
 10
-103.468
 20
2403.5
 11
-103.5
 21
2404
  0
LINE
  8
0
 10
-103.5
 20
2404
 11
-103.5
 21
2468
  0
LINE
  8
0
 10
-103.5
 20
2468
 11
-103.468
 21
2468.5
  0
LINE
  8
0
 10
-103.468
 20
2468.5
 11
-103.374
 21
2468.99
  0
LINE
  8
0
 10
-103.374
 20
2468.99
 11
-103.219
 21
2469.47
  0
LINE
  8
0
 10
-103.219
 20
2469.47
 11
-103.005
 21
2469.93
  0
LINE
  8
0
 10
-103.005
 20
2469.93
 11
-102.736
 21
2470.35
  0
LINE
  8
0
 10
-102.736
 20
2470.35
 11
-102.416
 21
2470.74
  0
LINE
  8
0
 10
-102.416
 20
2470.74
 11
-102.05
 21
2471.08
  0
LINE
  8
0
 10
-102.05
 20
2471.08
 11
-101.643
 21
2471.38
  0
LINE
  8
0
 10
-101.643
 20
2471.38
 11
-101.203
 21
2471.62
  0
LINE
  8
0
 10
-101.203
 20
2471.62
 11
-100.736
 21
2471.8
  0
LINE
  8
0
 10
-100.736
 20
2471.8
 11
-100.25
 21
2471.93
  0
LINE
  8
0
 10
-100.25
 20
2471.93
 11
-99.7512
 21
2471.99
  0
LINE
  8
0
 10
-99.7512
 20
2471.99
 11
99.7512
 21
2471.99
  0
LINE
  8
0
 10
99.7512
 20
2471.99
 11
100.25
 21
2471.93
  0
LINE
  8
0
 10
100.25
 20
2471.93
 11
100.736
 21
2471.8
  0
LINE
  8
0
 10
100.736
 20
2471.8
 11
101.203
 21
2471.62
  0
LINE
  8
0
 10
101.203
 20
2471.62
 11
101.643
 21
2471.38
  0
LINE
  8
0
 10
101.643
 20
2471.38
 11
102.05
 21
2471.08
  0
LINE
  8
0
 10
102.05
 20
2471.08
 11
102.416
 21
2470.74
  0
LINE
  8
0
 10
102.416
 20
2470.74
 11
102.736
 21
2470.35
  0
LINE
  8
0
 10
102.736
 20
2470.35
 11
103.005
 21
2469.93
  0
LINE
  8
0
 10
103.005
 20
2469.93
 11
103.219
 21
2469.47
  0
LINE
  8
0
 10
103.219
 20
2469.47
 11
103.374
 21
2468.99
  0
LINE
  8
0
 10
103.374
 20
2468.99
 11
103.468
 21
2468.5
  0
LINE
  8
0
 10
103.468
 20
2468.5
 11
103.5
 21
2468
  0
LINE
  8
0
 10
103.5
 20
2468
 11
103.5
 21
2404
  0
LINE
  8
0
 10
103.5
 20
2404
 11
103.468
 21
2403.5
  0
LINE
  8
0
 10
103.468
 20
2403.5
 11
103.374
 21
2403.01
  0
LINE
  8
0
 10
103.374
 20
2403.01
 11
103.219
 21
2402.53
  0
LINE
  8
0
 10
103.219
 20
2402.53
 11
103.005
 21
2402.07
  0
LINE
  8
0
 10
103.005
 20
2402.07
 11
102.736
 21
2401.65
  0
LINE
  8
0
 10
102.736
 20
2401.65
 11
102.416
 21
2401.26
  0
LINE
  8
0
 10
102.416
 20
2401.26
 11
102.05
 21
2400.92
  0
LINE
  8
0
 10
102.05
 20
2400.92
 11
101.643
 21
2400.62
  0
LINE
  8
0
 10
101.643
 20
2400.62
 11
101.203
 21
2400.38
  0
LINE
  8
0
 10
101.203
 20
2400.38
 11
100.736
 21
2400.2
  0
LINE
  8
0
 10
100.736
 20
2400.2
 11
100.25
 21
2400.07
  0
LINE
  8
0
 10
100.25
 20
2400.07
 11
99.7512
 21
2400.01
  0
LINE
  8
0
 10
99.7512
 20
2400.01
 11
-99.7512
 21
2400.01
  0
LINE
  8
0
 10
100.937
 20
2314.59
 11
101.545
 21
2314.74
  0
LINE
  8
0
 10
101.545
 20
2314.74
 11
102.129
 21
2314.98
  0
LINE
  8
0
 10
102.129
 20
2314.98
 11
102.679
 21
2315.28
  0
LINE
  8
0
 10
102.679
 20
2315.28
 11
103.187
 21
2315.65
  0
LINE
  8
0
 10
103.187
 20
2315.65
 11
103.645
 21
2316.08
  0
LINE
  8
0
 10
103.645
 20
2316.08
 11
104.045
 21
2316.56
  0
LINE
  8
0
 10
104.045
 20
2316.56
 11
104.382
 21
2317.09
  0
LINE
  8
0
 10
104.382
 20
2317.09
 11
104.649
 21
2317.66
  0
LINE
  8
0
 10
104.649
 20
2317.66
 11
104.843
 21
2318.26
  0
LINE
  8
0
 10
104.843
 20
2318.26
 11
104.961
 21
2318.87
  0
LINE
  8
0
 10
104.961
 20
2318.87
 11
105
 21
2319.5
  0
LINE
  8
0
 10
105
 20
2319.5
 11
105
 21
2384.5
  0
LINE
  8
0
 10
105
 20
2384.5
 11
104.961
 21
2385.13
  0
LINE
  8
0
 10
104.961
 20
2385.13
 11
104.843
 21
2385.74
  0
LINE
  8
0
 10
104.843
 20
2385.74
 11
104.649
 21
2386.34
  0
LINE
  8
0
 10
104.649
 20
2386.34
 11
104.382
 21
2386.91
  0
LINE
  8
0
 10
104.382
 20
2386.91
 11
104.045
 21
2387.44
  0
LINE
  8
0
 10
104.045
 20
2387.44
 11
103.645
 21
2387.92
  0
LINE
  8
0
 10
103.645
 20
2387.92
 11
103.187
 21
2388.35
  0
LINE
  8
0
 10
103.187
 20
2388.35
 11
102.679
 21
2388.72
  0
LINE
  8
0
 10
102.679
 20
2388.72
 11
102.129
 21
2389.02
  0
LINE
  8
0
 10
102.129
 20
2389.02
 11
101.545
 21
2389.26
  0
LINE
  8
0
 10
101.545
 20
2389.26
 11
100.937
 21
2389.41
  0
LINE
  8
0
 10
100.937
 20
2389.41
 11
100.314
 21
2389.49
  0
LINE
  8
0
 10
100.314
 20
2389.49
 11
-100.314
 21
2389.49
  0
LINE
  8
0
 10
-100.314
 20
2389.49
 11
-100.937
 21
2389.41
  0
LINE
  8
0
 10
-100.937
 20
2389.41
 11
-101.545
 21
2389.26
  0
LINE
  8
0
 10
-101.545
 20
2389.26
 11
-102.129
 21
2389.02
  0
LINE
  8
0
 10
-102.129
 20
2389.02
 11
-102.679
 21
2388.72
  0
LINE
  8
0
 10
-102.679
 20
2388.72
 11
-103.187
 21
2388.35
  0
LINE
  8
0
 10
-103.187
 20
2388.35
 11
-103.645
 21
2387.92
  0
LINE
  8
0
 10
-103.645
 20
2387.92
 11
-104.045
 21
2387.44
  0
LINE
  8
0
 10
-104.045
 20
2387.44
 11
-104.382
 21
2386.91
  0
LINE
  8
0
 10
-104.382
 20
2386.91
 11
-104.649
 21
2386.34
  0
LINE
  8
0
 10
-104.649
 20
2386.34
 11
-104.843
 21
2385.74
  0
LINE
  8
0
 10
-104.843
 20
2385.74
 11
-104.961
 21
2385.13
  0
LINE
  8
0
 10
-104.961
 20
2385.13
 11
-105
 21
2384.5
  0
LINE
  8
0
 10
-105
 20
2384.5
 11
-105
 21
2319.5
  0
LINE
  8
0
 10
-105
 20
2319.5
 11
-104.961
 21
2318.87
  0
LINE
  8
0
 10
-104.961
 20
2318.87
 11
-104.843
 21
2318.26
  0
LINE
  8
0
 10
-104.843
 20
2318.26
 11
-104.649
 21
2317.66
  0
LINE
  8
0
 10
-104.649
 20
2317.66
 11
-104.382
 21
2317.09
  0
LINE
  8
0
 10
-104.382
 20
2317.09
 11
-104.045
 21
2316.56
  0
LINE
  8
0
 10
-104.045
 20
2316.56
 11
-103.645
 21
2316.08
  0
LINE
  8
0
 10
-103.645
 20
2316.08
 11
-103.187
 21
2315.65
  0
LINE
  8
0
 10
-103.187
 20
2315.65
 11
-102.679
 21
2315.28
  0
LINE
  8
0
 10
-102.679
 20
2315.28
 11
-102.129
 21
2314.98
  0
LINE
  8
0
 10
-102.129
 20
2314.98
 11
-101.545
 21
2314.74
  0
LINE
  8
0
 10
-101.545
 20
2314.74
 11
-100.937
 21
2314.59
  0
LINE
  8
0
 10
-100.937
 20
2314.59
 11
-100.314
 21
2314.51
  0
LINE
  8
0
 10
-100.314
 20
2314.51
 11
100.314
 21
2314.51
  0
LINE
  8
0
 10
100.314
 20
2314.51
 11
100.937
 21
2314.59
  0
LINE
  8
0
 10
-99.7512
 20
2316.01
 11
-100.25
 21
2316.07
  0
LINE
  8
0
 10
-100.25
 20
2316.07
 11
-100.736
 21
2316.2
  0
LINE
  8
0
 10
-100.736
 20
2316.2
 11
-101.203
 21
2316.38
  0
LINE
  8
0
 10
-101.203
 20
2316.38
 11
-101.643
 21
2316.62
  0
LINE
  8
0
 10
-101.643
 20
2316.62
 11
-102.05
 21
2316.92
  0
LINE
  8
0
 10
-102.05
 20
2316.92
 11
-102.416
 21
2317.26
  0
LINE
  8
0
 10
-102.416
 20
2317.26
 11
-102.736
 21
2317.65
  0
LINE
  8
0
 10
-102.736
 20
2317.65
 11
-103.005
 21
2318.07
  0
LINE
  8
0
 10
-103.005
 20
2318.07
 11
-103.219
 21
2318.53
  0
LINE
  8
0
 10
-103.219
 20
2318.53
 11
-103.374
 21
2319.01
  0
LINE
  8
0
 10
-103.374
 20
2319.01
 11
-103.468
 21
2319.5
  0
LINE
  8
0
 10
-103.468
 20
2319.5
 11
-103.5
 21
2320
  0
LINE
  8
0
 10
-103.5
 20
2320
 11
-103.5
 21
2384
  0
LINE
  8
0
 10
-103.5
 20
2384
 11
-103.468
 21
2384.5
  0
LINE
  8
0
 10
-103.468
 20
2384.5
 11
-103.374
 21
2384.99
  0
LINE
  8
0
 10
-103.374
 20
2384.99
 11
-103.219
 21
2385.47
  0
LINE
  8
0
 10
-103.219
 20
2385.47
 11
-103.005
 21
2385.93
  0
LINE
  8
0
 10
-103.005
 20
2385.93
 11
-102.736
 21
2386.35
  0
LINE
  8
0
 10
-102.736
 20
2386.35
 11
-102.416
 21
2386.74
  0
LINE
  8
0
 10
-102.416
 20
2386.74
 11
-102.05
 21
2387.08
  0
LINE
  8
0
 10
-102.05
 20
2387.08
 11
-101.643
 21
2387.38
  0
LINE
  8
0
 10
-101.643
 20
2387.38
 11
-101.203
 21
2387.62
  0
LINE
  8
0
 10
-101.203
 20
2387.62
 11
-100.736
 21
2387.8
  0
LINE
  8
0
 10
-100.736
 20
2387.8
 11
-100.25
 21
2387.93
  0
LINE
  8
0
 10
-100.25
 20
2387.93
 11
-99.7512
 21
2387.99
  0
LINE
  8
0
 10
-99.7512
 20
2387.99
 11
99.7512
 21
2387.99
  0
LINE
  8
0
 10
99.7512
 20
2387.99
 11
100.25
 21
2387.93
  0
LINE
  8
0
 10
100.25
 20
2387.93
 11
100.736
 21
2387.8
  0
LINE
  8
0
 10
100.736
 20
2387.8
 11
101.203
 21
2387.62
  0
LINE
  8
0
 10
101.203
 20
2387.62
 11
101.643
 21
2387.38
  0
LINE
  8
0
 10
101.643
 20
2387.38
 11
102.05
 21
2387.08
  0
LINE
  8
0
 10
102.05
 20
2387.08
 11
102.416
 21
2386.74
  0
LINE
  8
0
 10
102.416
 20
2386.74
 11
102.736
 21
2386.35
  0
LINE
  8
0
 10
102.736
 20
2386.35
 11
103.005
 21
2385.93
  0
LINE
  8
0
 10
103.005
 20
2385.93
 11
103.219
 21
2385.47
  0
LINE
  8
0
 10
103.219
 20
2385.47
 11
103.374
 21
2384.99
  0
LINE
  8
0
 10
103.374
 20
2384.99
 11
103.468
 21
2384.5
  0
LINE
  8
0
 10
103.468
 20
2384.5
 11
103.5
 21
2384
  0
LINE
  8
0
 10
103.5
 20
2384
 11
103.5
 21
2320
  0
LINE
  8
0
 10
103.5
 20
2320
 11
103.468
 21
2319.5
  0
LINE
  8
0
 10
103.468
 20
2319.5
 11
103.374
 21
2319.01
  0
LINE
  8
0
 10
103.374
 20
2319.01
 11
103.219
 21
2318.53
  0
LINE
  8
0
 10
103.219
 20
2318.53
 11
103.005
 21
2318.07
  0
LINE
  8
0
 10
103.005
 20
2318.07
 11
102.736
 21
2317.65
  0
LINE
  8
0
 10
102.736
 20
2317.65
 11
102.416
 21
2317.26
  0
LINE
  8
0
 10
102.416
 20
2317.26
 11
102.05
 21
2316.92
  0
LINE
  8
0
 10
102.05
 20
2316.92
 11
101.643
 21
2316.62
  0
LINE
  8
0
 10
101.643
 20
2316.62
 11
101.203
 21
2316.38
  0
LINE
  8
0
 10
101.203
 20
2316.38
 11
100.736
 21
2316.2
  0
LINE
  8
0
 10
100.736
 20
2316.2
 11
100.25
 21
2316.07
  0
LINE
  8
0
 10
100.25
 20
2316.07
 11
99.7512
 21
2316.01
  0
LINE
  8
0
 10
99.7512
 20
2316.01
 11
-99.7512
 21
2316.01
  0
LINE
  8
0
 10
100.937
 20
2230.59
 11
101.545
 21
2230.74
  0
LINE
  8
0
 10
101.545
 20
2230.74
 11
102.129
 21
2230.98
  0
LINE
  8
0
 10
102.129
 20
2230.98
 11
102.679
 21
2231.28
  0
LINE
  8
0
 10
102.679
 20
2231.28
 11
103.187
 21
2231.65
  0
LINE
  8
0
 10
103.187
 20
2231.65
 11
103.645
 21
2232.08
  0
LINE
  8
0
 10
103.645
 20
2232.08
 11
104.045
 21
2232.56
  0
LINE
  8
0
 10
104.045
 20
2232.56
 11
104.382
 21
2233.09
  0
LINE
  8
0
 10
104.382
 20
2233.09
 11
104.649
 21
2233.66
  0
LINE
  8
0
 10
104.649
 20
2233.66
 11
104.843
 21
2234.26
  0
LINE
  8
0
 10
104.843
 20
2234.26
 11
104.961
 21
2234.87
  0
LINE
  8
0
 10
104.961
 20
2234.87
 11
105
 21
2235.5
  0
LINE
  8
0
 10
105
 20
2235.5
 11
105
 21
2300.5
  0
LINE
  8
0
 10
105
 20
2300.5
 11
104.961
 21
2301.13
  0
LINE
  8
0
 10
104.961
 20
2301.13
 11
104.843
 21
2301.74
  0
LINE
  8
0
 10
104.843
 20
2301.74
 11
104.649
 21
2302.34
  0
LINE
  8
0
 10
104.649
 20
2302.34
 11
104.382
 21
2302.91
  0
LINE
  8
0
 10
104.382
 20
2302.91
 11
104.045
 21
2303.44
  0
LINE
  8
0
 10
104.045
 20
2303.44
 11
103.645
 21
2303.92
  0
LINE
  8
0
 10
103.645
 20
2303.92
 11
103.187
 21
2304.35
  0
LINE
  8
0
 10
103.187
 20
2304.35
 11
102.679
 21
2304.72
  0
LINE
  8
0
 10
102.679
 20
2304.72
 11
102.129
 21
2305.02
  0
LINE
  8
0
 10
102.129
 20
2305.02
 11
101.545
 21
2305.26
  0
LINE
  8
0
 10
101.545
 20
2305.26
 11
100.937
 21
2305.41
  0
LINE
  8
0
 10
100.937
 20
2305.41
 11
100.314
 21
2305.49
  0
LINE
  8
0
 10
100.314
 20
2305.49
 11
-100.314
 21
2305.49
  0
LINE
  8
0
 10
-100.314
 20
2305.49
 11
-100.937
 21
2305.41
  0
LINE
  8
0
 10
-100.937
 20
2305.41
 11
-101.545
 21
2305.26
  0
LINE
  8
0
 10
-101.545
 20
2305.26
 11
-102.129
 21
2305.02
  0
LINE
  8
0
 10
-102.129
 20
2305.02
 11
-102.679
 21
2304.72
  0
LINE
  8
0
 10
-102.679
 20
2304.72
 11
-103.187
 21
2304.35
  0
LINE
  8
0
 10
-103.187
 20
2304.35
 11
-103.645
 21
2303.92
  0
LINE
  8
0
 10
-103.645
 20
2303.92
 11
-104.045
 21
2303.44
  0
LINE
  8
0
 10
-104.045
 20
2303.44
 11
-104.382
 21
2302.91
  0
LINE
  8
0
 10
-104.382
 20
2302.91
 11
-104.649
 21
2302.34
  0
LINE
  8
0
 10
-104.649
 20
2302.34
 11
-104.843
 21
2301.74
  0
LINE
  8
0
 10
-104.843
 20
2301.74
 11
-104.961
 21
2301.13
  0
LINE
  8
0
 10
-104.961
 20
2301.13
 11
-105
 21
2300.5
  0
LINE
  8
0
 10
-105
 20
2300.5
 11
-105
 21
2235.5
  0
LINE
  8
0
 10
-105
 20
2235.5
 11
-104.961
 21
2234.87
  0
LINE
  8
0
 10
-104.961
 20
2234.87
 11
-104.843
 21
2234.26
  0
LINE
  8
0
 10
-104.843
 20
2234.26
 11
-104.649
 21
2233.66
  0
LINE
  8
0
 10
-104.649
 20
2233.66
 11
-104.382
 21
2233.09
  0
LINE
  8
0
 10
-104.382
 20
2233.09
 11
-104.045
 21
2232.56
  0
LINE
  8
0
 10
-104.045
 20
2232.56
 11
-103.645
 21
2232.08
  0
LINE
  8
0
 10
-103.645
 20
2232.08
 11
-103.187
 21
2231.65
  0
LINE
  8
0
 10
-103.187
 20
2231.65
 11
-102.679
 21
2231.28
  0
LINE
  8
0
 10
-102.679
 20
2231.28
 11
-102.129
 21
2230.98
  0
LINE
  8
0
 10
-102.129
 20
2230.98
 11
-101.545
 21
2230.74
  0
LINE
  8
0
 10
-101.545
 20
2230.74
 11
-100.937
 21
2230.59
  0
LINE
  8
0
 10
-100.937
 20
2230.59
 11
-100.314
 21
2230.51
  0
LINE
  8
0
 10
-100.314
 20
2230.51
 11
100.314
 21
2230.51
  0
LINE
  8
0
 10
100.314
 20
2230.51
 11
100.937
 21
2230.59
  0
LINE
  8
0
 10
-99.7512
 20
2232.01
 11
-100.25
 21
2232.07
  0
LINE
  8
0
 10
-100.25
 20
2232.07
 11
-100.736
 21
2232.2
  0
LINE
  8
0
 10
-100.736
 20
2232.2
 11
-101.203
 21
2232.38
  0
LINE
  8
0
 10
-101.203
 20
2232.38
 11
-101.643
 21
2232.62
  0
LINE
  8
0
 10
-101.643
 20
2232.62
 11
-102.05
 21
2232.92
  0
LINE
  8
0
 10
-102.05
 20
2232.92
 11
-102.416
 21
2233.26
  0
LINE
  8
0
 10
-102.416
 20
2233.26
 11
-102.736
 21
2233.65
  0
LINE
  8
0
 10
-102.736
 20
2233.65
 11
-103.005
 21
2234.07
  0
LINE
  8
0
 10
-103.005
 20
2234.07
 11
-103.219
 21
2234.53
  0
LINE
  8
0
 10
-103.219
 20
2234.53
 11
-103.374
 21
2235.01
  0
LINE
  8
0
 10
-103.374
 20
2235.01
 11
-103.468
 21
2235.5
  0
LINE
  8
0
 10
-103.468
 20
2235.5
 11
-103.5
 21
2236
  0
LINE
  8
0
 10
-103.5
 20
2236
 11
-103.5
 21
2300
  0
LINE
  8
0
 10
-103.5
 20
2300
 11
-103.468
 21
2300.5
  0
LINE
  8
0
 10
-103.468
 20
2300.5
 11
-103.374
 21
2300.99
  0
LINE
  8
0
 10
-103.374
 20
2300.99
 11
-103.219
 21
2301.47
  0
LINE
  8
0
 10
-103.219
 20
2301.47
 11
-103.005
 21
2301.93
  0
LINE
  8
0
 10
-103.005
 20
2301.93
 11
-102.736
 21
2302.35
  0
LINE
  8
0
 10
-102.736
 20
2302.35
 11
-102.416
 21
2302.74
  0
LINE
  8
0
 10
-102.416
 20
2302.74
 11
-102.05
 21
2303.08
  0
LINE
  8
0
 10
-102.05
 20
2303.08
 11
-101.643
 21
2303.38
  0
LINE
  8
0
 10
-101.643
 20
2303.38
 11
-101.203
 21
2303.62
  0
LINE
  8
0
 10
-101.203
 20
2303.62
 11
-100.736
 21
2303.8
  0
LINE
  8
0
 10
-100.736
 20
2303.8
 11
-100.25
 21
2303.93
  0
LINE
  8
0
 10
-100.25
 20
2303.93
 11
-99.7512
 21
2303.99
  0
LINE
  8
0
 10
-99.7512
 20
2303.99
 11
99.7512
 21
2303.99
  0
LINE
  8
0
 10
99.7512
 20
2303.99
 11
100.25
 21
2303.93
  0
LINE
  8
0
 10
100.25
 20
2303.93
 11
100.736
 21
2303.8
  0
LINE
  8
0
 10
100.736
 20
2303.8
 11
101.203
 21
2303.62
  0
LINE
  8
0
 10
101.203
 20
2303.62
 11
101.643
 21
2303.38
  0
LINE
  8
0
 10
101.643
 20
2303.38
 11
102.05
 21
2303.08
  0
LINE
  8
0
 10
102.05
 20
2303.08
 11
102.416
 21
2302.74
  0
LINE
  8
0
 10
102.416
 20
2302.74
 11
102.736
 21
2302.35
  0
LINE
  8
0
 10
102.736
 20
2302.35
 11
103.005
 21
2301.93
  0
LINE
  8
0
 10
103.005
 20
2301.93
 11
103.219
 21
2301.47
  0
LINE
  8
0
 10
103.219
 20
2301.47
 11
103.374
 21
2300.99
  0
LINE
  8
0
 10
103.374
 20
2300.99
 11
103.468
 21
2300.5
  0
LINE
  8
0
 10
103.468
 20
2300.5
 11
103.5
 21
2300
  0
LINE
  8
0
 10
103.5
 20
2300
 11
103.5
 21
2236
  0
LINE
  8
0
 10
103.5
 20
2236
 11
103.468
 21
2235.5
  0
LINE
  8
0
 10
103.468
 20
2235.5
 11
103.374
 21
2235.01
  0
LINE
  8
0
 10
103.374
 20
2235.01
 11
103.219
 21
2234.53
  0
LINE
  8
0
 10
103.219
 20
2234.53
 11
103.005
 21
2234.07
  0
LINE
  8
0
 10
103.005
 20
2234.07
 11
102.736
 21
2233.65
  0
LINE
  8
0
 10
102.736
 20
2233.65
 11
102.416
 21
2233.26
  0
LINE
  8
0
 10
102.416
 20
2233.26
 11
102.05
 21
2232.92
  0
LINE
  8
0
 10
102.05
 20
2232.92
 11
101.643
 21
2232.62
  0
LINE
  8
0
 10
101.643
 20
2232.62
 11
101.203
 21
2232.38
  0
LINE
  8
0
 10
101.203
 20
2232.38
 11
100.736
 21
2232.2
  0
LINE
  8
0
 10
100.736
 20
2232.2
 11
100.25
 21
2232.07
  0
LINE
  8
0
 10
100.25
 20
2232.07
 11
99.7512
 21
2232.01
  0
LINE
  8
0
 10
99.7512
 20
2232.01
 11
-99.7512
 21
2232.01
  0
LINE
  8
0
 10
100.937
 20
2146.59
 11
101.545
 21
2146.74
  0
LINE
  8
0
 10
101.545
 20
2146.74
 11
102.129
 21
2146.98
  0
LINE
  8
0
 10
102.129
 20
2146.98
 11
102.679
 21
2147.28
  0
LINE
  8
0
 10
102.679
 20
2147.28
 11
103.187
 21
2147.65
  0
LINE
  8
0
 10
103.187
 20
2147.65
 11
103.645
 21
2148.08
  0
LINE
  8
0
 10
103.645
 20
2148.08
 11
104.045
 21
2148.56
  0
LINE
  8
0
 10
104.045
 20
2148.56
 11
104.382
 21
2149.09
  0
LINE
  8
0
 10
104.382
 20
2149.09
 11
104.649
 21
2149.66
  0
LINE
  8
0
 10
104.649
 20
2149.66
 11
104.843
 21
2150.26
  0
LINE
  8
0
 10
104.843
 20
2150.26
 11
104.961
 21
2150.87
  0
LINE
  8
0
 10
104.961
 20
2150.87
 11
105
 21
2151.5
  0
LINE
  8
0
 10
105
 20
2151.5
 11
105
 21
2216.5
  0
LINE
  8
0
 10
105
 20
2216.5
 11
104.961
 21
2217.13
  0
LINE
  8
0
 10
104.961
 20
2217.13
 11
104.843
 21
2217.74
  0
LINE
  8
0
 10
104.843
 20
2217.74
 11
104.649
 21
2218.34
  0
LINE
  8
0
 10
104.649
 20
2218.34
 11
104.382
 21
2218.91
  0
LINE
  8
0
 10
104.382
 20
2218.91
 11
104.045
 21
2219.44
  0
LINE
  8
0
 10
104.045
 20
2219.44
 11
103.645
 21
2219.92
  0
LINE
  8
0
 10
103.645
 20
2219.92
 11
103.187
 21
2220.35
  0
LINE
  8
0
 10
103.187
 20
2220.35
 11
102.679
 21
2220.72
  0
LINE
  8
0
 10
102.679
 20
2220.72
 11
102.129
 21
2221.02
  0
LINE
  8
0
 10
102.129
 20
2221.02
 11
101.545
 21
2221.26
  0
LINE
  8
0
 10
101.545
 20
2221.26
 11
100.937
 21
2221.41
  0
LINE
  8
0
 10
100.937
 20
2221.41
 11
100.314
 21
2221.49
  0
LINE
  8
0
 10
100.314
 20
2221.49
 11
-100.314
 21
2221.49
  0
LINE
  8
0
 10
-100.314
 20
2221.49
 11
-100.937
 21
2221.41
  0
LINE
  8
0
 10
-100.937
 20
2221.41
 11
-101.545
 21
2221.26
  0
LINE
  8
0
 10
-101.545
 20
2221.26
 11
-102.129
 21
2221.02
  0
LINE
  8
0
 10
-102.129
 20
2221.02
 11
-102.679
 21
2220.72
  0
LINE
  8
0
 10
-102.679
 20
2220.72
 11
-103.187
 21
2220.35
  0
LINE
  8
0
 10
-103.187
 20
2220.35
 11
-103.645
 21
2219.92
  0
LINE
  8
0
 10
-103.645
 20
2219.92
 11
-104.045
 21
2219.44
  0
LINE
  8
0
 10
-104.045
 20
2219.44
 11
-104.382
 21
2218.91
  0
LINE
  8
0
 10
-104.382
 20
2218.91
 11
-104.649
 21
2218.34
  0
LINE
  8
0
 10
-104.649
 20
2218.34
 11
-104.843
 21
2217.74
  0
LINE
  8
0
 10
-104.843
 20
2217.74
 11
-104.961
 21
2217.13
  0
LINE
  8
0
 10
-104.961
 20
2217.13
 11
-105
 21
2216.5
  0
LINE
  8
0
 10
-105
 20
2216.5
 11
-105
 21
2151.5
  0
LINE
  8
0
 10
-105
 20
2151.5
 11
-104.961
 21
2150.87
  0
LINE
  8
0
 10
-104.961
 20
2150.87
 11
-104.843
 21
2150.26
  0
LINE
  8
0
 10
-104.843
 20
2150.26
 11
-104.649
 21
2149.66
  0
LINE
  8
0
 10
-104.649
 20
2149.66
 11
-104.382
 21
2149.09
  0
LINE
  8
0
 10
-104.382
 20
2149.09
 11
-104.045
 21
2148.56
  0
LINE
  8
0
 10
-104.045
 20
2148.56
 11
-103.645
 21
2148.08
  0
LINE
  8
0
 10
-103.645
 20
2148.08
 11
-103.187
 21
2147.65
  0
LINE
  8
0
 10
-103.187
 20
2147.65
 11
-102.679
 21
2147.28
  0
LINE
  8
0
 10
-102.679
 20
2147.28
 11
-102.129
 21
2146.98
  0
LINE
  8
0
 10
-102.129
 20
2146.98
 11
-101.545
 21
2146.74
  0
LINE
  8
0
 10
-101.545
 20
2146.74
 11
-100.937
 21
2146.59
  0
LINE
  8
0
 10
-100.937
 20
2146.59
 11
-100.314
 21
2146.51
  0
LINE
  8
0
 10
-100.314
 20
2146.51
 11
100.314
 21
2146.51
  0
LINE
  8
0
 10
100.314
 20
2146.51
 11
100.937
 21
2146.59
  0
LINE
  8
0
 10
-99.7512
 20
2148.01
 11
-100.25
 21
2148.07
  0
LINE
  8
0
 10
-100.25
 20
2148.07
 11
-100.736
 21
2148.2
  0
LINE
  8
0
 10
-100.736
 20
2148.2
 11
-101.203
 21
2148.38
  0
LINE
  8
0
 10
-101.203
 20
2148.38
 11
-101.643
 21
2148.62
  0
LINE
  8
0
 10
-101.643
 20
2148.62
 11
-102.05
 21
2148.92
  0
LINE
  8
0
 10
-102.05
 20
2148.92
 11
-102.416
 21
2149.26
  0
LINE
  8
0
 10
-102.416
 20
2149.26
 11
-102.736
 21
2149.65
  0
LINE
  8
0
 10
-102.736
 20
2149.65
 11
-103.005
 21
2150.07
  0
LINE
  8
0
 10
-103.005
 20
2150.07
 11
-103.219
 21
2150.53
  0
LINE
  8
0
 10
-103.219
 20
2150.53
 11
-103.374
 21
2151.01
  0
LINE
  8
0
 10
-103.374
 20
2151.01
 11
-103.468
 21
2151.5
  0
LINE
  8
0
 10
-103.468
 20
2151.5
 11
-103.5
 21
2152
  0
LINE
  8
0
 10
-103.5
 20
2152
 11
-103.5
 21
2216
  0
LINE
  8
0
 10
-103.5
 20
2216
 11
-103.468
 21
2216.5
  0
LINE
  8
0
 10
-103.468
 20
2216.5
 11
-103.374
 21
2216.99
  0
LINE
  8
0
 10
-103.374
 20
2216.99
 11
-103.219
 21
2217.47
  0
LINE
  8
0
 10
-103.219
 20
2217.47
 11
-103.005
 21
2217.93
  0
LINE
  8
0
 10
-103.005
 20
2217.93
 11
-102.736
 21
2218.35
  0
LINE
  8
0
 10
-102.736
 20
2218.35
 11
-102.416
 21
2218.74
  0
LINE
  8
0
 10
-102.416
 20
2218.74
 11
-102.05
 21
2219.08
  0
LINE
  8
0
 10
-102.05
 20
2219.08
 11
-101.643
 21
2219.38
  0
LINE
  8
0
 10
-101.643
 20
2219.38
 11
-101.203
 21
2219.62
  0
LINE
  8
0
 10
-101.203
 20
2219.62
 11
-100.736
 21
2219.8
  0
LINE
  8
0
 10
-100.736
 20
2219.8
 11
-100.25
 21
2219.93
  0
LINE
  8
0
 10
-100.25
 20
2219.93
 11
-99.7512
 21
2219.99
  0
LINE
  8
0
 10
-99.7512
 20
2219.99
 11
99.7512
 21
2219.99
  0
LINE
  8
0
 10
99.7512
 20
2219.99
 11
100.25
 21
2219.93
  0
LINE
  8
0
 10
100.25
 20
2219.93
 11
100.736
 21
2219.8
  0
LINE
  8
0
 10
100.736
 20
2219.8
 11
101.203
 21
2219.62
  0
LINE
  8
0
 10
101.203
 20
2219.62
 11
101.643
 21
2219.38
  0
LINE
  8
0
 10
101.643
 20
2219.38
 11
102.05
 21
2219.08
  0
LINE
  8
0
 10
102.05
 20
2219.08
 11
102.416
 21
2218.74
  0
LINE
  8
0
 10
102.416
 20
2218.74
 11
102.736
 21
2218.35
  0
LINE
  8
0
 10
102.736
 20
2218.35
 11
103.005
 21
2217.93
  0
LINE
  8
0
 10
103.005
 20
2217.93
 11
103.219
 21
2217.47
  0
LINE
  8
0
 10
103.219
 20
2217.47
 11
103.374
 21
2216.99
  0
LINE
  8
0
 10
103.374
 20
2216.99
 11
103.468
 21
2216.5
  0
LINE
  8
0
 10
103.468
 20
2216.5
 11
103.5
 21
2216
  0
LINE
  8
0
 10
103.5
 20
2216
 11
103.5
 21
2152
  0
LINE
  8
0
 10
103.5
 20
2152
 11
103.468
 21
2151.5
  0
LINE
  8
0
 10
103.468
 20
2151.5
 11
103.374
 21
2151.01
  0
LINE
  8
0
 10
103.374
 20
2151.01
 11
103.219
 21
2150.53
  0
LINE
  8
0
 10
103.219
 20
2150.53
 11
103.005
 21
2150.07
  0
LINE
  8
0
 10
103.005
 20
2150.07
 11
102.736
 21
2149.65
  0
LINE
  8
0
 10
102.736
 20
2149.65
 11
102.416
 21
2149.26
  0
LINE
  8
0
 10
102.416
 20
2149.26
 11
102.05
 21
2148.92
  0
LINE
  8
0
 10
102.05
 20
2148.92
 11
101.643
 21
2148.62
  0
LINE
  8
0
 10
101.643
 20
2148.62
 11
101.203
 21
2148.38
  0
LINE
  8
0
 10
101.203
 20
2148.38
 11
100.736
 21
2148.2
  0
LINE
  8
0
 10
100.736
 20
2148.2
 11
100.25
 21
2148.07
  0
LINE
  8
0
 10
100.25
 20
2148.07
 11
99.7512
 21
2148.01
  0
LINE
  8
0
 10
99.7512
 20
2148.01
 11
-99.7512
 21
2148.01
  0
LINE
  8
0
 10
100.937
 20
2062.59
 11
101.545
 21
2062.74
  0
LINE
  8
0
 10
101.545
 20
2062.74
 11
102.129
 21
2062.98
  0
LINE
  8
0
 10
102.129
 20
2062.98
 11
102.679
 21
2063.28
  0
LINE
  8
0
 10
102.679
 20
2063.28
 11
103.187
 21
2063.65
  0
LINE
  8
0
 10
103.187
 20
2063.65
 11
103.645
 21
2064.08
  0
LINE
  8
0
 10
103.645
 20
2064.08
 11
104.045
 21
2064.56
  0
LINE
  8
0
 10
104.045
 20
2064.56
 11
104.382
 21
2065.09
  0
LINE
  8
0
 10
104.382
 20
2065.09
 11
104.649
 21
2065.66
  0
LINE
  8
0
 10
104.649
 20
2065.66
 11
104.843
 21
2066.26
  0
LINE
  8
0
 10
104.843
 20
2066.26
 11
104.961
 21
2066.87
  0
LINE
  8
0
 10
104.961
 20
2066.87
 11
105
 21
2067.5
  0
LINE
  8
0
 10
105
 20
2067.5
 11
105
 21
2132.5
  0
LINE
  8
0
 10
105
 20
2132.5
 11
104.961
 21
2133.13
  0
LINE
  8
0
 10
104.961
 20
2133.13
 11
104.843
 21
2133.74
  0
LINE
  8
0
 10
104.843
 20
2133.74
 11
104.649
 21
2134.34
  0
LINE
  8
0
 10
104.649
 20
2134.34
 11
104.382
 21
2134.91
  0
LINE
  8
0
 10
104.382
 20
2134.91
 11
104.045
 21
2135.44
  0
LINE
  8
0
 10
104.045
 20
2135.44
 11
103.645
 21
2135.92
  0
LINE
  8
0
 10
103.645
 20
2135.92
 11
103.187
 21
2136.35
  0
LINE
  8
0
 10
103.187
 20
2136.35
 11
102.679
 21
2136.72
  0
LINE
  8
0
 10
102.679
 20
2136.72
 11
102.129
 21
2137.02
  0
LINE
  8
0
 10
102.129
 20
2137.02
 11
101.545
 21
2137.26
  0
LINE
  8
0
 10
101.545
 20
2137.26
 11
100.937
 21
2137.41
  0
LINE
  8
0
 10
100.937
 20
2137.41
 11
100.314
 21
2137.49
  0
LINE
  8
0
 10
100.314
 20
2137.49
 11
-100.314
 21
2137.49
  0
LINE
  8
0
 10
-100.314
 20
2137.49
 11
-100.937
 21
2137.41
  0
LINE
  8
0
 10
-100.937
 20
2137.41
 11
-101.545
 21
2137.26
  0
LINE
  8
0
 10
-101.545
 20
2137.26
 11
-102.129
 21
2137.02
  0
LINE
  8
0
 10
-102.129
 20
2137.02
 11
-102.679
 21
2136.72
  0
LINE
  8
0
 10
-102.679
 20
2136.72
 11
-103.187
 21
2136.35
  0
LINE
  8
0
 10
-103.187
 20
2136.35
 11
-103.645
 21
2135.92
  0
LINE
  8
0
 10
-103.645
 20
2135.92
 11
-104.045
 21
2135.44
  0
LINE
  8
0
 10
-104.045
 20
2135.44
 11
-104.382
 21
2134.91
  0
LINE
  8
0
 10
-104.382
 20
2134.91
 11
-104.649
 21
2134.34
  0
LINE
  8
0
 10
-104.649
 20
2134.34
 11
-104.843
 21
2133.74
  0
LINE
  8
0
 10
-104.843
 20
2133.74
 11
-104.961
 21
2133.13
  0
LINE
  8
0
 10
-104.961
 20
2133.13
 11
-105
 21
2132.5
  0
LINE
  8
0
 10
-105
 20
2132.5
 11
-105
 21
2067.5
  0
LINE
  8
0
 10
-105
 20
2067.5
 11
-104.961
 21
2066.87
  0
LINE
  8
0
 10
-104.961
 20
2066.87
 11
-104.843
 21
2066.26
  0
LINE
  8
0
 10
-104.843
 20
2066.26
 11
-104.649
 21
2065.66
  0
LINE
  8
0
 10
-104.649
 20
2065.66
 11
-104.382
 21
2065.09
  0
LINE
  8
0
 10
-104.382
 20
2065.09
 11
-104.045
 21
2064.56
  0
LINE
  8
0
 10
-104.045
 20
2064.56
 11
-103.645
 21
2064.08
  0
LINE
  8
0
 10
-103.645
 20
2064.08
 11
-103.187
 21
2063.65
  0
LINE
  8
0
 10
-103.187
 20
2063.65
 11
-102.679
 21
2063.28
  0
LINE
  8
0
 10
-102.679
 20
2063.28
 11
-102.129
 21
2062.98
  0
LINE
  8
0
 10
-102.129
 20
2062.98
 11
-101.545
 21
2062.74
  0
LINE
  8
0
 10
-101.545
 20
2062.74
 11
-100.937
 21
2062.59
  0
LINE
  8
0
 10
-100.937
 20
2062.59
 11
-100.314
 21
2062.51
  0
LINE
  8
0
 10
-100.314
 20
2062.51
 11
100.314
 21
2062.51
  0
LINE
  8
0
 10
100.314
 20
2062.51
 11
100.937
 21
2062.59
  0
LINE
  8
0
 10
-99.7512
 20
2064.01
 11
-100.25
 21
2064.07
  0
LINE
  8
0
 10
-100.25
 20
2064.07
 11
-100.736
 21
2064.2
  0
LINE
  8
0
 10
-100.736
 20
2064.2
 11
-101.203
 21
2064.38
  0
LINE
  8
0
 10
-101.203
 20
2064.38
 11
-101.643
 21
2064.62
  0
LINE
  8
0
 10
-101.643
 20
2064.62
 11
-102.05
 21
2064.92
  0
LINE
  8
0
 10
-102.05
 20
2064.92
 11
-102.416
 21
2065.26
  0
LINE
  8
0
 10
-102.416
 20
2065.26
 11
-102.736
 21
2065.65
  0
LINE
  8
0
 10
-102.736
 20
2065.65
 11
-103.005
 21
2066.07
  0
LINE
  8
0
 10
-103.005
 20
2066.07
 11
-103.219
 21
2066.53
  0
LINE
  8
0
 10
-103.219
 20
2066.53
 11
-103.374
 21
2067.01
  0
LINE
  8
0
 10
-103.374
 20
2067.01
 11
-103.468
 21
2067.5
  0
LINE
  8
0
 10
-103.468
 20
2067.5
 11
-103.5
 21
2068
  0
LINE
  8
0
 10
-103.5
 20
2068
 11
-103.5
 21
2132
  0
LINE
  8
0
 10
-103.5
 20
2132
 11
-103.468
 21
2132.5
  0
LINE
  8
0
 10
-103.468
 20
2132.5
 11
-103.374
 21
2132.99
  0
LINE
  8
0
 10
-103.374
 20
2132.99
 11
-103.219
 21
2133.47
  0
LINE
  8
0
 10
-103.219
 20
2133.47
 11
-103.005
 21
2133.93
  0
LINE
  8
0
 10
-103.005
 20
2133.93
 11
-102.736
 21
2134.35
  0
LINE
  8
0
 10
-102.736
 20
2134.35
 11
-102.416
 21
2134.74
  0
LINE
  8
0
 10
-102.416
 20
2134.74
 11
-102.05
 21
2135.08
  0
LINE
  8
0
 10
-102.05
 20
2135.08
 11
-101.643
 21
2135.38
  0
LINE
  8
0
 10
-101.643
 20
2135.38
 11
-101.203
 21
2135.62
  0
LINE
  8
0
 10
-101.203
 20
2135.62
 11
-100.736
 21
2135.8
  0
LINE
  8
0
 10
-100.736
 20
2135.8
 11
-100.25
 21
2135.93
  0
LINE
  8
0
 10
-100.25
 20
2135.93
 11
-99.7512
 21
2135.99
  0
LINE
  8
0
 10
-99.7512
 20
2135.99
 11
99.7512
 21
2135.99
  0
LINE
  8
0
 10
99.7512
 20
2135.99
 11
100.25
 21
2135.93
  0
LINE
  8
0
 10
100.25
 20
2135.93
 11
100.736
 21
2135.8
  0
LINE
  8
0
 10
100.736
 20
2135.8
 11
101.203
 21
2135.62
  0
LINE
  8
0
 10
101.203
 20
2135.62
 11
101.643
 21
2135.38
  0
LINE
  8
0
 10
101.643
 20
2135.38
 11
102.05
 21
2135.08
  0
LINE
  8
0
 10
102.05
 20
2135.08
 11
102.416
 21
2134.74
  0
LINE
  8
0
 10
102.416
 20
2134.74
 11
102.736
 21
2134.35
  0
LINE
  8
0
 10
102.736
 20
2134.35
 11
103.005
 21
2133.93
  0
LINE
  8
0
 10
103.005
 20
2133.93
 11
103.219
 21
2133.47
  0
LINE
  8
0
 10
103.219
 20
2133.47
 11
103.374
 21
2132.99
  0
LINE
  8
0
 10
103.374
 20
2132.99
 11
103.468
 21
2132.5
  0
LINE
  8
0
 10
103.468
 20
2132.5
 11
103.5
 21
2132
  0
LINE
  8
0
 10
103.5
 20
2132
 11
103.5
 21
2068
  0
LINE
  8
0
 10
103.5
 20
2068
 11
103.468
 21
2067.5
  0
LINE
  8
0
 10
103.468
 20
2067.5
 11
103.374
 21
2067.01
  0
LINE
  8
0
 10
103.374
 20
2067.01
 11
103.219
 21
2066.53
  0
LINE
  8
0
 10
103.219
 20
2066.53
 11
103.005
 21
2066.07
  0
LINE
  8
0
 10
103.005
 20
2066.07
 11
102.736
 21
2065.65
  0
LINE
  8
0
 10
102.736
 20
2065.65
 11
102.416
 21
2065.26
  0
LINE
  8
0
 10
102.416
 20
2065.26
 11
102.05
 21
2064.92
  0
LINE
  8
0
 10
102.05
 20
2064.92
 11
101.643
 21
2064.62
  0
LINE
  8
0
 10
101.643
 20
2064.62
 11
101.203
 21
2064.38
  0
LINE
  8
0
 10
101.203
 20
2064.38
 11
100.736
 21
2064.2
  0
LINE
  8
0
 10
100.736
 20
2064.2
 11
100.25
 21
2064.07
  0
LINE
  8
0
 10
100.25
 20
2064.07
 11
99.7512
 21
2064.01
  0
LINE
  8
0
 10
99.7512
 20
2064.01
 11
-99.7512
 21
2064.01
  0
LINE
  8
0
 10
100.937
 20
1978.59
 11
101.545
 21
1978.74
  0
LINE
  8
0
 10
101.545
 20
1978.74
 11
102.129
 21
1978.98
  0
LINE
  8
0
 10
102.129
 20
1978.98
 11
102.679
 21
1979.28
  0
LINE
  8
0
 10
102.679
 20
1979.28
 11
103.187
 21
1979.65
  0
LINE
  8
0
 10
103.187
 20
1979.65
 11
103.645
 21
1980.08
  0
LINE
  8
0
 10
103.645
 20
1980.08
 11
104.045
 21
1980.56
  0
LINE
  8
0
 10
104.045
 20
1980.56
 11
104.382
 21
1981.09
  0
LINE
  8
0
 10
104.382
 20
1981.09
 11
104.649
 21
1981.66
  0
LINE
  8
0
 10
104.649
 20
1981.66
 11
104.843
 21
1982.26
  0
LINE
  8
0
 10
104.843
 20
1982.26
 11
104.961
 21
1982.87
  0
LINE
  8
0
 10
104.961
 20
1982.87
 11
105
 21
1983.5
  0
LINE
  8
0
 10
105
 20
1983.5
 11
105
 21
2048.5
  0
LINE
  8
0
 10
105
 20
2048.5
 11
104.961
 21
2049.13
  0
LINE
  8
0
 10
104.961
 20
2049.13
 11
104.843
 21
2049.74
  0
LINE
  8
0
 10
104.843
 20
2049.74
 11
104.649
 21
2050.34
  0
LINE
  8
0
 10
104.649
 20
2050.34
 11
104.382
 21
2050.91
  0
LINE
  8
0
 10
104.382
 20
2050.91
 11
104.045
 21
2051.44
  0
LINE
  8
0
 10
104.045
 20
2051.44
 11
103.645
 21
2051.92
  0
LINE
  8
0
 10
103.645
 20
2051.92
 11
103.187
 21
2052.35
  0
LINE
  8
0
 10
103.187
 20
2052.35
 11
102.679
 21
2052.72
  0
LINE
  8
0
 10
102.679
 20
2052.72
 11
102.129
 21
2053.02
  0
LINE
  8
0
 10
102.129
 20
2053.02
 11
101.545
 21
2053.26
  0
LINE
  8
0
 10
101.545
 20
2053.26
 11
100.937
 21
2053.41
  0
LINE
  8
0
 10
100.937
 20
2053.41
 11
100.314
 21
2053.49
  0
LINE
  8
0
 10
100.314
 20
2053.49
 11
-100.314
 21
2053.49
  0
LINE
  8
0
 10
-100.314
 20
2053.49
 11
-100.937
 21
2053.41
  0
LINE
  8
0
 10
-100.937
 20
2053.41
 11
-101.545
 21
2053.26
  0
LINE
  8
0
 10
-101.545
 20
2053.26
 11
-102.129
 21
2053.02
  0
LINE
  8
0
 10
-102.129
 20
2053.02
 11
-102.679
 21
2052.72
  0
LINE
  8
0
 10
-102.679
 20
2052.72
 11
-103.187
 21
2052.35
  0
LINE
  8
0
 10
-103.187
 20
2052.35
 11
-103.645
 21
2051.92
  0
LINE
  8
0
 10
-103.645
 20
2051.92
 11
-104.045
 21
2051.44
  0
LINE
  8
0
 10
-104.045
 20
2051.44
 11
-104.382
 21
2050.91
  0
LINE
  8
0
 10
-104.382
 20
2050.91
 11
-104.649
 21
2050.34
  0
LINE
  8
0
 10
-104.649
 20
2050.34
 11
-104.843
 21
2049.74
  0
LINE
  8
0
 10
-104.843
 20
2049.74
 11
-104.961
 21
2049.13
  0
LINE
  8
0
 10
-104.961
 20
2049.13
 11
-105
 21
2048.5
  0
LINE
  8
0
 10
-105
 20
2048.5
 11
-105
 21
1983.5
  0
LINE
  8
0
 10
-105
 20
1983.5
 11
-104.961
 21
1982.87
  0
LINE
  8
0
 10
-104.961
 20
1982.87
 11
-104.843
 21
1982.26
  0
LINE
  8
0
 10
-104.843
 20
1982.26
 11
-104.649
 21
1981.66
  0
LINE
  8
0
 10
-104.649
 20
1981.66
 11
-104.382
 21
1981.09
  0
LINE
  8
0
 10
-104.382
 20
1981.09
 11
-104.045
 21
1980.56
  0
LINE
  8
0
 10
-104.045
 20
1980.56
 11
-103.645
 21
1980.08
  0
LINE
  8
0
 10
-103.645
 20
1980.08
 11
-103.187
 21
1979.65
  0
LINE
  8
0
 10
-103.187
 20
1979.65
 11
-102.679
 21
1979.28
  0
LINE
  8
0
 10
-102.679
 20
1979.28
 11
-102.129
 21
1978.98
  0
LINE
  8
0
 10
-102.129
 20
1978.98
 11
-101.545
 21
1978.74
  0
LINE
  8
0
 10
-101.545
 20
1978.74
 11
-100.937
 21
1978.59
  0
LINE
  8
0
 10
-100.937
 20
1978.59
 11
-100.314
 21
1978.51
  0
LINE
  8
0
 10
-100.314
 20
1978.51
 11
100.314
 21
1978.51
  0
LINE
  8
0
 10
100.314
 20
1978.51
 11
100.937
 21
1978.59
  0
LINE
  8
0
 10
-99.7512
 20
1980.01
 11
-100.25
 21
1980.07
  0
LINE
  8
0
 10
-100.25
 20
1980.07
 11
-100.736
 21
1980.2
  0
LINE
  8
0
 10
-100.736
 20
1980.2
 11
-101.203
 21
1980.38
  0
LINE
  8
0
 10
-101.203
 20
1980.38
 11
-101.643
 21
1980.62
  0
LINE
  8
0
 10
-101.643
 20
1980.62
 11
-102.05
 21
1980.92
  0
LINE
  8
0
 10
-102.05
 20
1980.92
 11
-102.416
 21
1981.26
  0
LINE
  8
0
 10
-102.416
 20
1981.26
 11
-102.736
 21
1981.65
  0
LINE
  8
0
 10
-102.736
 20
1981.65
 11
-103.005
 21
1982.07
  0
LINE
  8
0
 10
-103.005
 20
1982.07
 11
-103.219
 21
1982.53
  0
LINE
  8
0
 10
-103.219
 20
1982.53
 11
-103.374
 21
1983.01
  0
LINE
  8
0
 10
-103.374
 20
1983.01
 11
-103.468
 21
1983.5
  0
LINE
  8
0
 10
-103.468
 20
1983.5
 11
-103.5
 21
1984
  0
LINE
  8
0
 10
-103.5
 20
1984
 11
-103.5
 21
2048
  0
LINE
  8
0
 10
-103.5
 20
2048
 11
-103.468
 21
2048.5
  0
LINE
  8
0
 10
-103.468
 20
2048.5
 11
-103.374
 21
2048.99
  0
LINE
  8
0
 10
-103.374
 20
2048.99
 11
-103.219
 21
2049.47
  0
LINE
  8
0
 10
-103.219
 20
2049.47
 11
-103.005
 21
2049.93
  0
LINE
  8
0
 10
-103.005
 20
2049.93
 11
-102.736
 21
2050.35
  0
LINE
  8
0
 10
-102.736
 20
2050.35
 11
-102.416
 21
2050.74
  0
LINE
  8
0
 10
-102.416
 20
2050.74
 11
-102.05
 21
2051.08
  0
LINE
  8
0
 10
-102.05
 20
2051.08
 11
-101.643
 21
2051.38
  0
LINE
  8
0
 10
-101.643
 20
2051.38
 11
-101.203
 21
2051.62
  0
LINE
  8
0
 10
-101.203
 20
2051.62
 11
-100.736
 21
2051.8
  0
LINE
  8
0
 10
-100.736
 20
2051.8
 11
-100.25
 21
2051.93
  0
LINE
  8
0
 10
-100.25
 20
2051.93
 11
-99.7512
 21
2051.99
  0
LINE
  8
0
 10
-99.7512
 20
2051.99
 11
99.7512
 21
2051.99
  0
LINE
  8
0
 10
99.7512
 20
2051.99
 11
100.25
 21
2051.93
  0
LINE
  8
0
 10
100.25
 20
2051.93
 11
100.736
 21
2051.8
  0
LINE
  8
0
 10
100.736
 20
2051.8
 11
101.203
 21
2051.62
  0
LINE
  8
0
 10
101.203
 20
2051.62
 11
101.643
 21
2051.38
  0
LINE
  8
0
 10
101.643
 20
2051.38
 11
102.05
 21
2051.08
  0
LINE
  8
0
 10
102.05
 20
2051.08
 11
102.416
 21
2050.74
  0
LINE
  8
0
 10
102.416
 20
2050.74
 11
102.736
 21
2050.35
  0
LINE
  8
0
 10
102.736
 20
2050.35
 11
103.005
 21
2049.93
  0
LINE
  8
0
 10
103.005
 20
2049.93
 11
103.219
 21
2049.47
  0
LINE
  8
0
 10
103.219
 20
2049.47
 11
103.374
 21
2048.99
  0
LINE
  8
0
 10
103.374
 20
2048.99
 11
103.468
 21
2048.5
  0
LINE
  8
0
 10
103.468
 20
2048.5
 11
103.5
 21
2048
  0
LINE
  8
0
 10
103.5
 20
2048
 11
103.5
 21
1984
  0
LINE
  8
0
 10
103.5
 20
1984
 11
103.468
 21
1983.5
  0
LINE
  8
0
 10
103.468
 20
1983.5
 11
103.374
 21
1983.01
  0
LINE
  8
0
 10
103.374
 20
1983.01
 11
103.219
 21
1982.53
  0
LINE
  8
0
 10
103.219
 20
1982.53
 11
103.005
 21
1982.07
  0
LINE
  8
0
 10
103.005
 20
1982.07
 11
102.736
 21
1981.65
  0
LINE
  8
0
 10
102.736
 20
1981.65
 11
102.416
 21
1981.26
  0
LINE
  8
0
 10
102.416
 20
1981.26
 11
102.05
 21
1980.92
  0
LINE
  8
0
 10
102.05
 20
1980.92
 11
101.643
 21
1980.62
  0
LINE
  8
0
 10
101.643
 20
1980.62
 11
101.203
 21
1980.38
  0
LINE
  8
0
 10
101.203
 20
1980.38
 11
100.736
 21
1980.2
  0
LINE
  8
0
 10
100.736
 20
1980.2
 11
100.25
 21
1980.07
  0
LINE
  8
0
 10
100.25
 20
1980.07
 11
99.7512
 21
1980.01
  0
LINE
  8
0
 10
99.7512
 20
1980.01
 11
-99.7512
 21
1980.01
  0
LINE
  8
0
 10
100.937
 20
1894.59
 11
101.545
 21
1894.74
  0
LINE
  8
0
 10
101.545
 20
1894.74
 11
102.129
 21
1894.98
  0
LINE
  8
0
 10
102.129
 20
1894.98
 11
102.679
 21
1895.28
  0
LINE
  8
0
 10
102.679
 20
1895.28
 11
103.187
 21
1895.65
  0
LINE
  8
0
 10
103.187
 20
1895.65
 11
103.645
 21
1896.08
  0
LINE
  8
0
 10
103.645
 20
1896.08
 11
104.045
 21
1896.56
  0
LINE
  8
0
 10
104.045
 20
1896.56
 11
104.382
 21
1897.09
  0
LINE
  8
0
 10
104.382
 20
1897.09
 11
104.649
 21
1897.66
  0
LINE
  8
0
 10
104.649
 20
1897.66
 11
104.843
 21
1898.26
  0
LINE
  8
0
 10
104.843
 20
1898.26
 11
104.961
 21
1898.87
  0
LINE
  8
0
 10
104.961
 20
1898.87
 11
105
 21
1899.5
  0
LINE
  8
0
 10
105
 20
1899.5
 11
105
 21
1964.5
  0
LINE
  8
0
 10
105
 20
1964.5
 11
104.961
 21
1965.13
  0
LINE
  8
0
 10
104.961
 20
1965.13
 11
104.843
 21
1965.74
  0
LINE
  8
0
 10
104.843
 20
1965.74
 11
104.649
 21
1966.34
  0
LINE
  8
0
 10
104.649
 20
1966.34
 11
104.382
 21
1966.91
  0
LINE
  8
0
 10
104.382
 20
1966.91
 11
104.045
 21
1967.44
  0
LINE
  8
0
 10
104.045
 20
1967.44
 11
103.645
 21
1967.92
  0
LINE
  8
0
 10
103.645
 20
1967.92
 11
103.187
 21
1968.35
  0
LINE
  8
0
 10
103.187
 20
1968.35
 11
102.679
 21
1968.72
  0
LINE
  8
0
 10
102.679
 20
1968.72
 11
102.129
 21
1969.02
  0
LINE
  8
0
 10
102.129
 20
1969.02
 11
101.545
 21
1969.26
  0
LINE
  8
0
 10
101.545
 20
1969.26
 11
100.937
 21
1969.41
  0
LINE
  8
0
 10
100.937
 20
1969.41
 11
100.314
 21
1969.49
  0
LINE
  8
0
 10
100.314
 20
1969.49
 11
-100.314
 21
1969.49
  0
LINE
  8
0
 10
-100.314
 20
1969.49
 11
-100.937
 21
1969.41
  0
LINE
  8
0
 10
-100.937
 20
1969.41
 11
-101.545
 21
1969.26
  0
LINE
  8
0
 10
-101.545
 20
1969.26
 11
-102.129
 21
1969.02
  0
LINE
  8
0
 10
-102.129
 20
1969.02
 11
-102.679
 21
1968.72
  0
LINE
  8
0
 10
-102.679
 20
1968.72
 11
-103.187
 21
1968.35
  0
LINE
  8
0
 10
-103.187
 20
1968.35
 11
-103.645
 21
1967.92
  0
LINE
  8
0
 10
-103.645
 20
1967.92
 11
-104.045
 21
1967.44
  0
LINE
  8
0
 10
-104.045
 20
1967.44
 11
-104.382
 21
1966.91
  0
LINE
  8
0
 10
-104.382
 20
1966.91
 11
-104.649
 21
1966.34
  0
LINE
  8
0
 10
-104.649
 20
1966.34
 11
-104.843
 21
1965.74
  0
LINE
  8
0
 10
-104.843
 20
1965.74
 11
-104.961
 21
1965.13
  0
LINE
  8
0
 10
-104.961
 20
1965.13
 11
-105
 21
1964.5
  0
LINE
  8
0
 10
-105
 20
1964.5
 11
-105
 21
1899.5
  0
LINE
  8
0
 10
-105
 20
1899.5
 11
-104.961
 21
1898.87
  0
LINE
  8
0
 10
-104.961
 20
1898.87
 11
-104.843
 21
1898.26
  0
LINE
  8
0
 10
-104.843
 20
1898.26
 11
-104.649
 21
1897.66
  0
LINE
  8
0
 10
-104.649
 20
1897.66
 11
-104.382
 21
1897.09
  0
LINE
  8
0
 10
-104.382
 20
1897.09
 11
-104.045
 21
1896.56
  0
LINE
  8
0
 10
-104.045
 20
1896.56
 11
-103.645
 21
1896.08
  0
LINE
  8
0
 10
-103.645
 20
1896.08
 11
-103.187
 21
1895.65
  0
LINE
  8
0
 10
-103.187
 20
1895.65
 11
-102.679
 21
1895.28
  0
LINE
  8
0
 10
-102.679
 20
1895.28
 11
-102.129
 21
1894.98
  0
LINE
  8
0
 10
-102.129
 20
1894.98
 11
-101.545
 21
1894.74
  0
LINE
  8
0
 10
-101.545
 20
1894.74
 11
-100.937
 21
1894.59
  0
LINE
  8
0
 10
-100.937
 20
1894.59
 11
-100.314
 21
1894.51
  0
LINE
  8
0
 10
-100.314
 20
1894.51
 11
100.314
 21
1894.51
  0
LINE
  8
0
 10
100.314
 20
1894.51
 11
100.937
 21
1894.59
  0
LINE
  8
0
 10
-99.7512
 20
1896.01
 11
-100.25
 21
1896.07
  0
LINE
  8
0
 10
-100.25
 20
1896.07
 11
-100.736
 21
1896.2
  0
LINE
  8
0
 10
-100.736
 20
1896.2
 11
-101.203
 21
1896.38
  0
LINE
  8
0
 10
-101.203
 20
1896.38
 11
-101.643
 21
1896.62
  0
LINE
  8
0
 10
-101.643
 20
1896.62
 11
-102.05
 21
1896.92
  0
LINE
  8
0
 10
-102.05
 20
1896.92
 11
-102.416
 21
1897.26
  0
LINE
  8
0
 10
-102.416
 20
1897.26
 11
-102.736
 21
1897.65
  0
LINE
  8
0
 10
-102.736
 20
1897.65
 11
-103.005
 21
1898.07
  0
LINE
  8
0
 10
-103.005
 20
1898.07
 11
-103.219
 21
1898.53
  0
LINE
  8
0
 10
-103.219
 20
1898.53
 11
-103.374
 21
1899.01
  0
LINE
  8
0
 10
-103.374
 20
1899.01
 11
-103.468
 21
1899.5
  0
LINE
  8
0
 10
-103.468
 20
1899.5
 11
-103.5
 21
1900
  0
LINE
  8
0
 10
-103.5
 20
1900
 11
-103.5
 21
1964
  0
LINE
  8
0
 10
-103.5
 20
1964
 11
-103.468
 21
1964.5
  0
LINE
  8
0
 10
-103.468
 20
1964.5
 11
-103.374
 21
1964.99
  0
LINE
  8
0
 10
-103.374
 20
1964.99
 11
-103.219
 21
1965.47
  0
LINE
  8
0
 10
-103.219
 20
1965.47
 11
-103.005
 21
1965.93
  0
LINE
  8
0
 10
-103.005
 20
1965.93
 11
-102.736
 21
1966.35
  0
LINE
  8
0
 10
-102.736
 20
1966.35
 11
-102.416
 21
1966.74
  0
LINE
  8
0
 10
-102.416
 20
1966.74
 11
-102.05
 21
1967.08
  0
LINE
  8
0
 10
-102.05
 20
1967.08
 11
-101.643
 21
1967.38
  0
LINE
  8
0
 10
-101.643
 20
1967.38
 11
-101.203
 21
1967.62
  0
LINE
  8
0
 10
-101.203
 20
1967.62
 11
-100.736
 21
1967.8
  0
LINE
  8
0
 10
-100.736
 20
1967.8
 11
-100.25
 21
1967.93
  0
LINE
  8
0
 10
-100.25
 20
1967.93
 11
-99.7512
 21
1967.99
  0
LINE
  8
0
 10
-99.7512
 20
1967.99
 11
99.7512
 21
1967.99
  0
LINE
  8
0
 10
99.7512
 20
1967.99
 11
100.25
 21
1967.93
  0
LINE
  8
0
 10
100.25
 20
1967.93
 11
100.736
 21
1967.8
  0
LINE
  8
0
 10
100.736
 20
1967.8
 11
101.203
 21
1967.62
  0
LINE
  8
0
 10
101.203
 20
1967.62
 11
101.643
 21
1967.38
  0
LINE
  8
0
 10
101.643
 20
1967.38
 11
102.05
 21
1967.08
  0
LINE
  8
0
 10
102.05
 20
1967.08
 11
102.416
 21
1966.74
  0
LINE
  8
0
 10
102.416
 20
1966.74
 11
102.736
 21
1966.35
  0
LINE
  8
0
 10
102.736
 20
1966.35
 11
103.005
 21
1965.93
  0
LINE
  8
0
 10
103.005
 20
1965.93
 11
103.219
 21
1965.47
  0
LINE
  8
0
 10
103.219
 20
1965.47
 11
103.374
 21
1964.99
  0
LINE
  8
0
 10
103.374
 20
1964.99
 11
103.468
 21
1964.5
  0
LINE
  8
0
 10
103.468
 20
1964.5
 11
103.5
 21
1964
  0
LINE
  8
0
 10
103.5
 20
1964
 11
103.5
 21
1900
  0
LINE
  8
0
 10
103.5
 20
1900
 11
103.468
 21
1899.5
  0
LINE
  8
0
 10
103.468
 20
1899.5
 11
103.374
 21
1899.01
  0
LINE
  8
0
 10
103.374
 20
1899.01
 11
103.219
 21
1898.53
  0
LINE
  8
0
 10
103.219
 20
1898.53
 11
103.005
 21
1898.07
  0
LINE
  8
0
 10
103.005
 20
1898.07
 11
102.736
 21
1897.65
  0
LINE
  8
0
 10
102.736
 20
1897.65
 11
102.416
 21
1897.26
  0
LINE
  8
0
 10
102.416
 20
1897.26
 11
102.05
 21
1896.92
  0
LINE
  8
0
 10
102.05
 20
1896.92
 11
101.643
 21
1896.62
  0
LINE
  8
0
 10
101.643
 20
1896.62
 11
101.203
 21
1896.38
  0
LINE
  8
0
 10
101.203
 20
1896.38
 11
100.736
 21
1896.2
  0
LINE
  8
0
 10
100.736
 20
1896.2
 11
100.25
 21
1896.07
  0
LINE
  8
0
 10
100.25
 20
1896.07
 11
99.7512
 21
1896.01
  0
LINE
  8
0
 10
99.7512
 20
1896.01
 11
-99.7512
 21
1896.01
  0
LINE
  8
0
 10
100.937
 20
1810.59
 11
101.545
 21
1810.74
  0
LINE
  8
0
 10
101.545
 20
1810.74
 11
102.129
 21
1810.98
  0
LINE
  8
0
 10
102.129
 20
1810.98
 11
102.679
 21
1811.28
  0
LINE
  8
0
 10
102.679
 20
1811.28
 11
103.187
 21
1811.65
  0
LINE
  8
0
 10
103.187
 20
1811.65
 11
103.645
 21
1812.08
  0
LINE
  8
0
 10
103.645
 20
1812.08
 11
104.045
 21
1812.56
  0
LINE
  8
0
 10
104.045
 20
1812.56
 11
104.382
 21
1813.09
  0
LINE
  8
0
 10
104.382
 20
1813.09
 11
104.649
 21
1813.66
  0
LINE
  8
0
 10
104.649
 20
1813.66
 11
104.843
 21
1814.26
  0
LINE
  8
0
 10
104.843
 20
1814.26
 11
104.961
 21
1814.87
  0
LINE
  8
0
 10
104.961
 20
1814.87
 11
105
 21
1815.5
  0
LINE
  8
0
 10
105
 20
1815.5
 11
105
 21
1880.5
  0
LINE
  8
0
 10
105
 20
1880.5
 11
104.961
 21
1881.13
  0
LINE
  8
0
 10
104.961
 20
1881.13
 11
104.843
 21
1881.74
  0
LINE
  8
0
 10
104.843
 20
1881.74
 11
104.649
 21
1882.34
  0
LINE
  8
0
 10
104.649
 20
1882.34
 11
104.382
 21
1882.91
  0
LINE
  8
0
 10
104.382
 20
1882.91
 11
104.045
 21
1883.44
  0
LINE
  8
0
 10
104.045
 20
1883.44
 11
103.645
 21
1883.92
  0
LINE
  8
0
 10
103.645
 20
1883.92
 11
103.187
 21
1884.35
  0
LINE
  8
0
 10
103.187
 20
1884.35
 11
102.679
 21
1884.72
  0
LINE
  8
0
 10
102.679
 20
1884.72
 11
102.129
 21
1885.02
  0
LINE
  8
0
 10
102.129
 20
1885.02
 11
101.545
 21
1885.26
  0
LINE
  8
0
 10
101.545
 20
1885.26
 11
100.937
 21
1885.41
  0
LINE
  8
0
 10
100.937
 20
1885.41
 11
100.314
 21
1885.49
  0
LINE
  8
0
 10
100.314
 20
1885.49
 11
-100.314
 21
1885.49
  0
LINE
  8
0
 10
-100.314
 20
1885.49
 11
-100.937
 21
1885.41
  0
LINE
  8
0
 10
-100.937
 20
1885.41
 11
-101.545
 21
1885.26
  0
LINE
  8
0
 10
-101.545
 20
1885.26
 11
-102.129
 21
1885.02
  0
LINE
  8
0
 10
-102.129
 20
1885.02
 11
-102.679
 21
1884.72
  0
LINE
  8
0
 10
-102.679
 20
1884.72
 11
-103.187
 21
1884.35
  0
LINE
  8
0
 10
-103.187
 20
1884.35
 11
-103.645
 21
1883.92
  0
LINE
  8
0
 10
-103.645
 20
1883.92
 11
-104.045
 21
1883.44
  0
LINE
  8
0
 10
-104.045
 20
1883.44
 11
-104.382
 21
1882.91
  0
LINE
  8
0
 10
-104.382
 20
1882.91
 11
-104.649
 21
1882.34
  0
LINE
  8
0
 10
-104.649
 20
1882.34
 11
-104.843
 21
1881.74
  0
LINE
  8
0
 10
-104.843
 20
1881.74
 11
-104.961
 21
1881.13
  0
LINE
  8
0
 10
-104.961
 20
1881.13
 11
-105
 21
1880.5
  0
LINE
  8
0
 10
-105
 20
1880.5
 11
-105
 21
1815.5
  0
LINE
  8
0
 10
-105
 20
1815.5
 11
-104.961
 21
1814.87
  0
LINE
  8
0
 10
-104.961
 20
1814.87
 11
-104.843
 21
1814.26
  0
LINE
  8
0
 10
-104.843
 20
1814.26
 11
-104.649
 21
1813.66
  0
LINE
  8
0
 10
-104.649
 20
1813.66
 11
-104.382
 21
1813.09
  0
LINE
  8
0
 10
-104.382
 20
1813.09
 11
-104.045
 21
1812.56
  0
LINE
  8
0
 10
-104.045
 20
1812.56
 11
-103.645
 21
1812.08
  0
LINE
  8
0
 10
-103.645
 20
1812.08
 11
-103.187
 21
1811.65
  0
LINE
  8
0
 10
-103.187
 20
1811.65
 11
-102.679
 21
1811.28
  0
LINE
  8
0
 10
-102.679
 20
1811.28
 11
-102.129
 21
1810.98
  0
LINE
  8
0
 10
-102.129
 20
1810.98
 11
-101.545
 21
1810.74
  0
LINE
  8
0
 10
-101.545
 20
1810.74
 11
-100.937
 21
1810.59
  0
LINE
  8
0
 10
-100.937
 20
1810.59
 11
-100.314
 21
1810.51
  0
LINE
  8
0
 10
-100.314
 20
1810.51
 11
100.314
 21
1810.51
  0
LINE
  8
0
 10
100.314
 20
1810.51
 11
100.937
 21
1810.59
  0
LINE
  8
0
 10
-99.7512
 20
1812.01
 11
-100.25
 21
1812.07
  0
LINE
  8
0
 10
-100.25
 20
1812.07
 11
-100.736
 21
1812.2
  0
LINE
  8
0
 10
-100.736
 20
1812.2
 11
-101.203
 21
1812.38
  0
LINE
  8
0
 10
-101.203
 20
1812.38
 11
-101.643
 21
1812.62
  0
LINE
  8
0
 10
-101.643
 20
1812.62
 11
-102.05
 21
1812.92
  0
LINE
  8
0
 10
-102.05
 20
1812.92
 11
-102.416
 21
1813.26
  0
LINE
  8
0
 10
-102.416
 20
1813.26
 11
-102.736
 21
1813.65
  0
LINE
  8
0
 10
-102.736
 20
1813.65
 11
-103.005
 21
1814.07
  0
LINE
  8
0
 10
-103.005
 20
1814.07
 11
-103.219
 21
1814.53
  0
LINE
  8
0
 10
-103.219
 20
1814.53
 11
-103.374
 21
1815.01
  0
LINE
  8
0
 10
-103.374
 20
1815.01
 11
-103.468
 21
1815.5
  0
LINE
  8
0
 10
-103.468
 20
1815.5
 11
-103.5
 21
1816
  0
LINE
  8
0
 10
-103.5
 20
1816
 11
-103.5
 21
1880
  0
LINE
  8
0
 10
-103.5
 20
1880
 11
-103.468
 21
1880.5
  0
LINE
  8
0
 10
-103.468
 20
1880.5
 11
-103.374
 21
1880.99
  0
LINE
  8
0
 10
-103.374
 20
1880.99
 11
-103.219
 21
1881.47
  0
LINE
  8
0
 10
-103.219
 20
1881.47
 11
-103.005
 21
1881.93
  0
LINE
  8
0
 10
-103.005
 20
1881.93
 11
-102.736
 21
1882.35
  0
LINE
  8
0
 10
-102.736
 20
1882.35
 11
-102.416
 21
1882.74
  0
LINE
  8
0
 10
-102.416
 20
1882.74
 11
-102.05
 21
1883.08
  0
LINE
  8
0
 10
-102.05
 20
1883.08
 11
-101.643
 21
1883.38
  0
LINE
  8
0
 10
-101.643
 20
1883.38
 11
-101.203
 21
1883.62
  0
LINE
  8
0
 10
-101.203
 20
1883.62
 11
-100.736
 21
1883.8
  0
LINE
  8
0
 10
-100.736
 20
1883.8
 11
-100.25
 21
1883.93
  0
LINE
  8
0
 10
-100.25
 20
1883.93
 11
-99.7512
 21
1883.99
  0
LINE
  8
0
 10
-99.7512
 20
1883.99
 11
99.7512
 21
1883.99
  0
LINE
  8
0
 10
99.7512
 20
1883.99
 11
100.25
 21
1883.93
  0
LINE
  8
0
 10
100.25
 20
1883.93
 11
100.736
 21
1883.8
  0
LINE
  8
0
 10
100.736
 20
1883.8
 11
101.203
 21
1883.62
  0
LINE
  8
0
 10
101.203
 20
1883.62
 11
101.643
 21
1883.38
  0
LINE
  8
0
 10
101.643
 20
1883.38
 11
102.05
 21
1883.08
  0
LINE
  8
0
 10
102.05
 20
1883.08
 11
102.416
 21
1882.74
  0
LINE
  8
0
 10
102.416
 20
1882.74
 11
102.736
 21
1882.35
  0
LINE
  8
0
 10
102.736
 20
1882.35
 11
103.005
 21
1881.93
  0
LINE
  8
0
 10
103.005
 20
1881.93
 11
103.219
 21
1881.47
  0
LINE
  8
0
 10
103.219
 20
1881.47
 11
103.374
 21
1880.99
  0
LINE
  8
0
 10
103.374
 20
1880.99
 11
103.468
 21
1880.5
  0
LINE
  8
0
 10
103.468
 20
1880.5
 11
103.5
 21
1880
  0
LINE
  8
0
 10
103.5
 20
1880
 11
103.5
 21
1816
  0
LINE
  8
0
 10
103.5
 20
1816
 11
103.468
 21
1815.5
  0
LINE
  8
0
 10
103.468
 20
1815.5
 11
103.374
 21
1815.01
  0
LINE
  8
0
 10
103.374
 20
1815.01
 11
103.219
 21
1814.53
  0
LINE
  8
0
 10
103.219
 20
1814.53
 11
103.005
 21
1814.07
  0
LINE
  8
0
 10
103.005
 20
1814.07
 11
102.736
 21
1813.65
  0
LINE
  8
0
 10
102.736
 20
1813.65
 11
102.416
 21
1813.26
  0
LINE
  8
0
 10
102.416
 20
1813.26
 11
102.05
 21
1812.92
  0
LINE
  8
0
 10
102.05
 20
1812.92
 11
101.643
 21
1812.62
  0
LINE
  8
0
 10
101.643
 20
1812.62
 11
101.203
 21
1812.38
  0
LINE
  8
0
 10
101.203
 20
1812.38
 11
100.736
 21
1812.2
  0
LINE
  8
0
 10
100.736
 20
1812.2
 11
100.25
 21
1812.07
  0
LINE
  8
0
 10
100.25
 20
1812.07
 11
99.7512
 21
1812.01
  0
LINE
  8
0
 10
99.7512
 20
1812.01
 11
-99.7512
 21
1812.01
  0
LINE
  8
0
 10
100.937
 20
1726.59
 11
101.545
 21
1726.74
  0
LINE
  8
0
 10
101.545
 20
1726.74
 11
102.129
 21
1726.98
  0
LINE
  8
0
 10
102.129
 20
1726.98
 11
102.679
 21
1727.28
  0
LINE
  8
0
 10
102.679
 20
1727.28
 11
103.187
 21
1727.65
  0
LINE
  8
0
 10
103.187
 20
1727.65
 11
103.645
 21
1728.08
  0
LINE
  8
0
 10
103.645
 20
1728.08
 11
104.045
 21
1728.56
  0
LINE
  8
0
 10
104.045
 20
1728.56
 11
104.382
 21
1729.09
  0
LINE
  8
0
 10
104.382
 20
1729.09
 11
104.649
 21
1729.66
  0
LINE
  8
0
 10
104.649
 20
1729.66
 11
104.843
 21
1730.26
  0
LINE
  8
0
 10
104.843
 20
1730.26
 11
104.961
 21
1730.87
  0
LINE
  8
0
 10
104.961
 20
1730.87
 11
105
 21
1731.5
  0
LINE
  8
0
 10
105
 20
1731.5
 11
105
 21
1796.5
  0
LINE
  8
0
 10
105
 20
1796.5
 11
104.961
 21
1797.13
  0
LINE
  8
0
 10
104.961
 20
1797.13
 11
104.843
 21
1797.74
  0
LINE
  8
0
 10
104.843
 20
1797.74
 11
104.649
 21
1798.34
  0
LINE
  8
0
 10
104.649
 20
1798.34
 11
104.382
 21
1798.91
  0
LINE
  8
0
 10
104.382
 20
1798.91
 11
104.045
 21
1799.44
  0
LINE
  8
0
 10
104.045
 20
1799.44
 11
103.645
 21
1799.92
  0
LINE
  8
0
 10
103.645
 20
1799.92
 11
103.187
 21
1800.35
  0
LINE
  8
0
 10
103.187
 20
1800.35
 11
102.679
 21
1800.72
  0
LINE
  8
0
 10
102.679
 20
1800.72
 11
102.129
 21
1801.02
  0
LINE
  8
0
 10
102.129
 20
1801.02
 11
101.545
 21
1801.26
  0
LINE
  8
0
 10
101.545
 20
1801.26
 11
100.937
 21
1801.41
  0
LINE
  8
0
 10
100.937
 20
1801.41
 11
100.314
 21
1801.49
  0
LINE
  8
0
 10
100.314
 20
1801.49
 11
-100.314
 21
1801.49
  0
LINE
  8
0
 10
-100.314
 20
1801.49
 11
-100.937
 21
1801.41
  0
LINE
  8
0
 10
-100.937
 20
1801.41
 11
-101.545
 21
1801.26
  0
LINE
  8
0
 10
-101.545
 20
1801.26
 11
-102.129
 21
1801.02
  0
LINE
  8
0
 10
-102.129
 20
1801.02
 11
-102.679
 21
1800.72
  0
LINE
  8
0
 10
-102.679
 20
1800.72
 11
-103.187
 21
1800.35
  0
LINE
  8
0
 10
-103.187
 20
1800.35
 11
-103.645
 21
1799.92
  0
LINE
  8
0
 10
-103.645
 20
1799.92
 11
-104.045
 21
1799.44
  0
LINE
  8
0
 10
-104.045
 20
1799.44
 11
-104.382
 21
1798.91
  0
LINE
  8
0
 10
-104.382
 20
1798.91
 11
-104.649
 21
1798.34
  0
LINE
  8
0
 10
-104.649
 20
1798.34
 11
-104.843
 21
1797.74
  0
LINE
  8
0
 10
-104.843
 20
1797.74
 11
-104.961
 21
1797.13
  0
LINE
  8
0
 10
-104.961
 20
1797.13
 11
-105
 21
1796.5
  0
LINE
  8
0
 10
-105
 20
1796.5
 11
-105
 21
1731.5
  0
LINE
  8
0
 10
-105
 20
1731.5
 11
-104.961
 21
1730.87
  0
LINE
  8
0
 10
-104.961
 20
1730.87
 11
-104.843
 21
1730.26
  0
LINE
  8
0
 10
-104.843
 20
1730.26
 11
-104.649
 21
1729.66
  0
LINE
  8
0
 10
-104.649
 20
1729.66
 11
-104.382
 21
1729.09
  0
LINE
  8
0
 10
-104.382
 20
1729.09
 11
-104.045
 21
1728.56
  0
LINE
  8
0
 10
-104.045
 20
1728.56
 11
-103.645
 21
1728.08
  0
LINE
  8
0
 10
-103.645
 20
1728.08
 11
-103.187
 21
1727.65
  0
LINE
  8
0
 10
-103.187
 20
1727.65
 11
-102.679
 21
1727.28
  0
LINE
  8
0
 10
-102.679
 20
1727.28
 11
-102.129
 21
1726.98
  0
LINE
  8
0
 10
-102.129
 20
1726.98
 11
-101.545
 21
1726.74
  0
LINE
  8
0
 10
-101.545
 20
1726.74
 11
-100.937
 21
1726.59
  0
LINE
  8
0
 10
-100.937
 20
1726.59
 11
-100.314
 21
1726.51
  0
LINE
  8
0
 10
-100.314
 20
1726.51
 11
100.314
 21
1726.51
  0
LINE
  8
0
 10
100.314
 20
1726.51
 11
100.937
 21
1726.59
  0
LINE
  8
0
 10
-99.7512
 20
1728.01
 11
-100.25
 21
1728.07
  0
LINE
  8
0
 10
-100.25
 20
1728.07
 11
-100.736
 21
1728.2
  0
LINE
  8
0
 10
-100.736
 20
1728.2
 11
-101.203
 21
1728.38
  0
LINE
  8
0
 10
-101.203
 20
1728.38
 11
-101.643
 21
1728.62
  0
LINE
  8
0
 10
-101.643
 20
1728.62
 11
-102.05
 21
1728.92
  0
LINE
  8
0
 10
-102.05
 20
1728.92
 11
-102.416
 21
1729.26
  0
LINE
  8
0
 10
-102.416
 20
1729.26
 11
-102.736
 21
1729.65
  0
LINE
  8
0
 10
-102.736
 20
1729.65
 11
-103.005
 21
1730.07
  0
LINE
  8
0
 10
-103.005
 20
1730.07
 11
-103.219
 21
1730.53
  0
LINE
  8
0
 10
-103.219
 20
1730.53
 11
-103.374
 21
1731.01
  0
LINE
  8
0
 10
-103.374
 20
1731.01
 11
-103.468
 21
1731.5
  0
LINE
  8
0
 10
-103.468
 20
1731.5
 11
-103.5
 21
1732
  0
LINE
  8
0
 10
-103.5
 20
1732
 11
-103.5
 21
1796
  0
LINE
  8
0
 10
-103.5
 20
1796
 11
-103.468
 21
1796.5
  0
LINE
  8
0
 10
-103.468
 20
1796.5
 11
-103.374
 21
1796.99
  0
LINE
  8
0
 10
-103.374
 20
1796.99
 11
-103.219
 21
1797.47
  0
LINE
  8
0
 10
-103.219
 20
1797.47
 11
-103.005
 21
1797.93
  0
LINE
  8
0
 10
-103.005
 20
1797.93
 11
-102.736
 21
1798.35
  0
LINE
  8
0
 10
-102.736
 20
1798.35
 11
-102.416
 21
1798.74
  0
LINE
  8
0
 10
-102.416
 20
1798.74
 11
-102.05
 21
1799.08
  0
LINE
  8
0
 10
-102.05
 20
1799.08
 11
-101.643
 21
1799.38
  0
LINE
  8
0
 10
-101.643
 20
1799.38
 11
-101.203
 21
1799.62
  0
LINE
  8
0
 10
-101.203
 20
1799.62
 11
-100.736
 21
1799.8
  0
LINE
  8
0
 10
-100.736
 20
1799.8
 11
-100.25
 21
1799.93
  0
LINE
  8
0
 10
-100.25
 20
1799.93
 11
-99.7512
 21
1799.99
  0
LINE
  8
0
 10
-99.7512
 20
1799.99
 11
99.7512
 21
1799.99
  0
LINE
  8
0
 10
99.7512
 20
1799.99
 11
100.25
 21
1799.93
  0
LINE
  8
0
 10
100.25
 20
1799.93
 11
100.736
 21
1799.8
  0
LINE
  8
0
 10
100.736
 20
1799.8
 11
101.203
 21
1799.62
  0
LINE
  8
0
 10
101.203
 20
1799.62
 11
101.643
 21
1799.38
  0
LINE
  8
0
 10
101.643
 20
1799.38
 11
102.05
 21
1799.08
  0
LINE
  8
0
 10
102.05
 20
1799.08
 11
102.416
 21
1798.74
  0
LINE
  8
0
 10
102.416
 20
1798.74
 11
102.736
 21
1798.35
  0
LINE
  8
0
 10
102.736
 20
1798.35
 11
103.005
 21
1797.93
  0
LINE
  8
0
 10
103.005
 20
1797.93
 11
103.219
 21
1797.47
  0
LINE
  8
0
 10
103.219
 20
1797.47
 11
103.374
 21
1796.99
  0
LINE
  8
0
 10
103.374
 20
1796.99
 11
103.468
 21
1796.5
  0
LINE
  8
0
 10
103.468
 20
1796.5
 11
103.5
 21
1796
  0
LINE
  8
0
 10
103.5
 20
1796
 11
103.5
 21
1732
  0
LINE
  8
0
 10
103.5
 20
1732
 11
103.468
 21
1731.5
  0
LINE
  8
0
 10
103.468
 20
1731.5
 11
103.374
 21
1731.01
  0
LINE
  8
0
 10
103.374
 20
1731.01
 11
103.219
 21
1730.53
  0
LINE
  8
0
 10
103.219
 20
1730.53
 11
103.005
 21
1730.07
  0
LINE
  8
0
 10
103.005
 20
1730.07
 11
102.736
 21
1729.65
  0
LINE
  8
0
 10
102.736
 20
1729.65
 11
102.416
 21
1729.26
  0
LINE
  8
0
 10
102.416
 20
1729.26
 11
102.05
 21
1728.92
  0
LINE
  8
0
 10
102.05
 20
1728.92
 11
101.643
 21
1728.62
  0
LINE
  8
0
 10
101.643
 20
1728.62
 11
101.203
 21
1728.38
  0
LINE
  8
0
 10
101.203
 20
1728.38
 11
100.736
 21
1728.2
  0
LINE
  8
0
 10
100.736
 20
1728.2
 11
100.25
 21
1728.07
  0
LINE
  8
0
 10
100.25
 20
1728.07
 11
99.7512
 21
1728.01
  0
LINE
  8
0
 10
99.7512
 20
1728.01
 11
-99.7512
 21
1728.01
  0
LINE
  8
0
 10
100.937
 20
1642.59
 11
101.545
 21
1642.74
  0
LINE
  8
0
 10
101.545
 20
1642.74
 11
102.129
 21
1642.98
  0
LINE
  8
0
 10
102.129
 20
1642.98
 11
102.679
 21
1643.28
  0
LINE
  8
0
 10
102.679
 20
1643.28
 11
103.187
 21
1643.65
  0
LINE
  8
0
 10
103.187
 20
1643.65
 11
103.645
 21
1644.08
  0
LINE
  8
0
 10
103.645
 20
1644.08
 11
104.045
 21
1644.56
  0
LINE
  8
0
 10
104.045
 20
1644.56
 11
104.382
 21
1645.09
  0
LINE
  8
0
 10
104.382
 20
1645.09
 11
104.649
 21
1645.66
  0
LINE
  8
0
 10
104.649
 20
1645.66
 11
104.843
 21
1646.26
  0
LINE
  8
0
 10
104.843
 20
1646.26
 11
104.961
 21
1646.87
  0
LINE
  8
0
 10
104.961
 20
1646.87
 11
105
 21
1647.5
  0
LINE
  8
0
 10
105
 20
1647.5
 11
105
 21
1712.5
  0
LINE
  8
0
 10
105
 20
1712.5
 11
104.961
 21
1713.13
  0
LINE
  8
0
 10
104.961
 20
1713.13
 11
104.843
 21
1713.74
  0
LINE
  8
0
 10
104.843
 20
1713.74
 11
104.649
 21
1714.34
  0
LINE
  8
0
 10
104.649
 20
1714.34
 11
104.382
 21
1714.91
  0
LINE
  8
0
 10
104.382
 20
1714.91
 11
104.045
 21
1715.44
  0
LINE
  8
0
 10
104.045
 20
1715.44
 11
103.645
 21
1715.92
  0
LINE
  8
0
 10
103.645
 20
1715.92
 11
103.187
 21
1716.35
  0
LINE
  8
0
 10
103.187
 20
1716.35
 11
102.679
 21
1716.72
  0
LINE
  8
0
 10
102.679
 20
1716.72
 11
102.129
 21
1717.02
  0
LINE
  8
0
 10
102.129
 20
1717.02
 11
101.545
 21
1717.26
  0
LINE
  8
0
 10
101.545
 20
1717.26
 11
100.937
 21
1717.41
  0
LINE
  8
0
 10
100.937
 20
1717.41
 11
100.314
 21
1717.49
  0
LINE
  8
0
 10
100.314
 20
1717.49
 11
-100.314
 21
1717.49
  0
LINE
  8
0
 10
-100.314
 20
1717.49
 11
-100.937
 21
1717.41
  0
LINE
  8
0
 10
-100.937
 20
1717.41
 11
-101.545
 21
1717.26
  0
LINE
  8
0
 10
-101.545
 20
1717.26
 11
-102.129
 21
1717.02
  0
LINE
  8
0
 10
-102.129
 20
1717.02
 11
-102.679
 21
1716.72
  0
LINE
  8
0
 10
-102.679
 20
1716.72
 11
-103.187
 21
1716.35
  0
LINE
  8
0
 10
-103.187
 20
1716.35
 11
-103.645
 21
1715.92
  0
LINE
  8
0
 10
-103.645
 20
1715.92
 11
-104.045
 21
1715.44
  0
LINE
  8
0
 10
-104.045
 20
1715.44
 11
-104.382
 21
1714.91
  0
LINE
  8
0
 10
-104.382
 20
1714.91
 11
-104.649
 21
1714.34
  0
LINE
  8
0
 10
-104.649
 20
1714.34
 11
-104.843
 21
1713.74
  0
LINE
  8
0
 10
-104.843
 20
1713.74
 11
-104.961
 21
1713.13
  0
LINE
  8
0
 10
-104.961
 20
1713.13
 11
-105
 21
1712.5
  0
LINE
  8
0
 10
-105
 20
1712.5
 11
-105
 21
1647.5
  0
LINE
  8
0
 10
-105
 20
1647.5
 11
-104.961
 21
1646.87
  0
LINE
  8
0
 10
-104.961
 20
1646.87
 11
-104.843
 21
1646.26
  0
LINE
  8
0
 10
-104.843
 20
1646.26
 11
-104.649
 21
1645.66
  0
LINE
  8
0
 10
-104.649
 20
1645.66
 11
-104.382
 21
1645.09
  0
LINE
  8
0
 10
-104.382
 20
1645.09
 11
-104.045
 21
1644.56
  0
LINE
  8
0
 10
-104.045
 20
1644.56
 11
-103.645
 21
1644.08
  0
LINE
  8
0
 10
-103.645
 20
1644.08
 11
-103.187
 21
1643.65
  0
LINE
  8
0
 10
-103.187
 20
1643.65
 11
-102.679
 21
1643.28
  0
LINE
  8
0
 10
-102.679
 20
1643.28
 11
-102.129
 21
1642.98
  0
LINE
  8
0
 10
-102.129
 20
1642.98
 11
-101.545
 21
1642.74
  0
LINE
  8
0
 10
-101.545
 20
1642.74
 11
-100.937
 21
1642.59
  0
LINE
  8
0
 10
-100.937
 20
1642.59
 11
-100.314
 21
1642.51
  0
LINE
  8
0
 10
-100.314
 20
1642.51
 11
100.314
 21
1642.51
  0
LINE
  8
0
 10
100.314
 20
1642.51
 11
100.937
 21
1642.59
  0
LINE
  8
0
 10
-99.7512
 20
1644.01
 11
-100.25
 21
1644.07
  0
LINE
  8
0
 10
-100.25
 20
1644.07
 11
-100.736
 21
1644.2
  0
LINE
  8
0
 10
-100.736
 20
1644.2
 11
-101.203
 21
1644.38
  0
LINE
  8
0
 10
-101.203
 20
1644.38
 11
-101.643
 21
1644.62
  0
LINE
  8
0
 10
-101.643
 20
1644.62
 11
-102.05
 21
1644.92
  0
LINE
  8
0
 10
-102.05
 20
1644.92
 11
-102.416
 21
1645.26
  0
LINE
  8
0
 10
-102.416
 20
1645.26
 11
-102.736
 21
1645.65
  0
LINE
  8
0
 10
-102.736
 20
1645.65
 11
-103.005
 21
1646.07
  0
LINE
  8
0
 10
-103.005
 20
1646.07
 11
-103.219
 21
1646.53
  0
LINE
  8
0
 10
-103.219
 20
1646.53
 11
-103.374
 21
1647.01
  0
LINE
  8
0
 10
-103.374
 20
1647.01
 11
-103.468
 21
1647.5
  0
LINE
  8
0
 10
-103.468
 20
1647.5
 11
-103.5
 21
1648
  0
LINE
  8
0
 10
-103.5
 20
1648
 11
-103.5
 21
1712
  0
LINE
  8
0
 10
-103.5
 20
1712
 11
-103.468
 21
1712.5
  0
LINE
  8
0
 10
-103.468
 20
1712.5
 11
-103.374
 21
1712.99
  0
LINE
  8
0
 10
-103.374
 20
1712.99
 11
-103.219
 21
1713.47
  0
LINE
  8
0
 10
-103.219
 20
1713.47
 11
-103.005
 21
1713.93
  0
LINE
  8
0
 10
-103.005
 20
1713.93
 11
-102.736
 21
1714.35
  0
LINE
  8
0
 10
-102.736
 20
1714.35
 11
-102.416
 21
1714.74
  0
LINE
  8
0
 10
-102.416
 20
1714.74
 11
-102.05
 21
1715.08
  0
LINE
  8
0
 10
-102.05
 20
1715.08
 11
-101.643
 21
1715.38
  0
LINE
  8
0
 10
-101.643
 20
1715.38
 11
-101.203
 21
1715.62
  0
LINE
  8
0
 10
-101.203
 20
1715.62
 11
-100.736
 21
1715.8
  0
LINE
  8
0
 10
-100.736
 20
1715.8
 11
-100.25
 21
1715.93
  0
LINE
  8
0
 10
-100.25
 20
1715.93
 11
-99.7512
 21
1715.99
  0
LINE
  8
0
 10
-99.7512
 20
1715.99
 11
99.7512
 21
1715.99
  0
LINE
  8
0
 10
99.7512
 20
1715.99
 11
100.25
 21
1715.93
  0
LINE
  8
0
 10
100.25
 20
1715.93
 11
100.736
 21
1715.8
  0
LINE
  8
0
 10
100.736
 20
1715.8
 11
101.203
 21
1715.62
  0
LINE
  8
0
 10
101.203
 20
1715.62
 11
101.643
 21
1715.38
  0
LINE
  8
0
 10
101.643
 20
1715.38
 11
102.05
 21
1715.08
  0
LINE
  8
0
 10
102.05
 20
1715.08
 11
102.416
 21
1714.74
  0
LINE
  8
0
 10
102.416
 20
1714.74
 11
102.736
 21
1714.35
  0
LINE
  8
0
 10
102.736
 20
1714.35
 11
103.005
 21
1713.93
  0
LINE
  8
0
 10
103.005
 20
1713.93
 11
103.219
 21
1713.47
  0
LINE
  8
0
 10
103.219
 20
1713.47
 11
103.374
 21
1712.99
  0
LINE
  8
0
 10
103.374
 20
1712.99
 11
103.468
 21
1712.5
  0
LINE
  8
0
 10
103.468
 20
1712.5
 11
103.5
 21
1712
  0
LINE
  8
0
 10
103.5
 20
1712
 11
103.5
 21
1648
  0
LINE
  8
0
 10
103.5
 20
1648
 11
103.468
 21
1647.5
  0
LINE
  8
0
 10
103.468
 20
1647.5
 11
103.374
 21
1647.01
  0
LINE
  8
0
 10
103.374
 20
1647.01
 11
103.219
 21
1646.53
  0
LINE
  8
0
 10
103.219
 20
1646.53
 11
103.005
 21
1646.07
  0
LINE
  8
0
 10
103.005
 20
1646.07
 11
102.736
 21
1645.65
  0
LINE
  8
0
 10
102.736
 20
1645.65
 11
102.416
 21
1645.26
  0
LINE
  8
0
 10
102.416
 20
1645.26
 11
102.05
 21
1644.92
  0
LINE
  8
0
 10
102.05
 20
1644.92
 11
101.643
 21
1644.62
  0
LINE
  8
0
 10
101.643
 20
1644.62
 11
101.203
 21
1644.38
  0
LINE
  8
0
 10
101.203
 20
1644.38
 11
100.736
 21
1644.2
  0
LINE
  8
0
 10
100.736
 20
1644.2
 11
100.25
 21
1644.07
  0
LINE
  8
0
 10
100.25
 20
1644.07
 11
99.7512
 21
1644.01
  0
LINE
  8
0
 10
99.7512
 20
1644.01
 11
-99.7512
 21
1644.01
  0
LINE
  8
0
 10
100.937
 20
1558.59
 11
101.545
 21
1558.74
  0
LINE
  8
0
 10
101.545
 20
1558.74
 11
102.129
 21
1558.98
  0
LINE
  8
0
 10
102.129
 20
1558.98
 11
102.679
 21
1559.28
  0
LINE
  8
0
 10
102.679
 20
1559.28
 11
103.187
 21
1559.65
  0
LINE
  8
0
 10
103.187
 20
1559.65
 11
103.645
 21
1560.08
  0
LINE
  8
0
 10
103.645
 20
1560.08
 11
104.045
 21
1560.56
  0
LINE
  8
0
 10
104.045
 20
1560.56
 11
104.382
 21
1561.09
  0
LINE
  8
0
 10
104.382
 20
1561.09
 11
104.649
 21
1561.66
  0
LINE
  8
0
 10
104.649
 20
1561.66
 11
104.843
 21
1562.26
  0
LINE
  8
0
 10
104.843
 20
1562.26
 11
104.961
 21
1562.87
  0
LINE
  8
0
 10
104.961
 20
1562.87
 11
105
 21
1563.5
  0
LINE
  8
0
 10
105
 20
1563.5
 11
105
 21
1628.5
  0
LINE
  8
0
 10
105
 20
1628.5
 11
104.961
 21
1629.13
  0
LINE
  8
0
 10
104.961
 20
1629.13
 11
104.843
 21
1629.74
  0
LINE
  8
0
 10
104.843
 20
1629.74
 11
104.649
 21
1630.34
  0
LINE
  8
0
 10
104.649
 20
1630.34
 11
104.382
 21
1630.91
  0
LINE
  8
0
 10
104.382
 20
1630.91
 11
104.045
 21
1631.44
  0
LINE
  8
0
 10
104.045
 20
1631.44
 11
103.645
 21
1631.92
  0
LINE
  8
0
 10
103.645
 20
1631.92
 11
103.187
 21
1632.35
  0
LINE
  8
0
 10
103.187
 20
1632.35
 11
102.679
 21
1632.72
  0
LINE
  8
0
 10
102.679
 20
1632.72
 11
102.129
 21
1633.02
  0
LINE
  8
0
 10
102.129
 20
1633.02
 11
101.545
 21
1633.26
  0
LINE
  8
0
 10
101.545
 20
1633.26
 11
100.937
 21
1633.41
  0
LINE
  8
0
 10
100.937
 20
1633.41
 11
100.314
 21
1633.49
  0
LINE
  8
0
 10
100.314
 20
1633.49
 11
-100.314
 21
1633.49
  0
LINE
  8
0
 10
-100.314
 20
1633.49
 11
-100.937
 21
1633.41
  0
LINE
  8
0
 10
-100.937
 20
1633.41
 11
-101.545
 21
1633.26
  0
LINE
  8
0
 10
-101.545
 20
1633.26
 11
-102.129
 21
1633.02
  0
LINE
  8
0
 10
-102.129
 20
1633.02
 11
-102.679
 21
1632.72
  0
LINE
  8
0
 10
-102.679
 20
1632.72
 11
-103.187
 21
1632.35
  0
LINE
  8
0
 10
-103.187
 20
1632.35
 11
-103.645
 21
1631.92
  0
LINE
  8
0
 10
-103.645
 20
1631.92
 11
-104.045
 21
1631.44
  0
LINE
  8
0
 10
-104.045
 20
1631.44
 11
-104.382
 21
1630.91
  0
LINE
  8
0
 10
-104.382
 20
1630.91
 11
-104.649
 21
1630.34
  0
LINE
  8
0
 10
-104.649
 20
1630.34
 11
-104.843
 21
1629.74
  0
LINE
  8
0
 10
-104.843
 20
1629.74
 11
-104.961
 21
1629.13
  0
LINE
  8
0
 10
-104.961
 20
1629.13
 11
-105
 21
1628.5
  0
LINE
  8
0
 10
-105
 20
1628.5
 11
-105
 21
1563.5
  0
LINE
  8
0
 10
-105
 20
1563.5
 11
-104.961
 21
1562.87
  0
LINE
  8
0
 10
-104.961
 20
1562.87
 11
-104.843
 21
1562.26
  0
LINE
  8
0
 10
-104.843
 20
1562.26
 11
-104.649
 21
1561.66
  0
LINE
  8
0
 10
-104.649
 20
1561.66
 11
-104.382
 21
1561.09
  0
LINE
  8
0
 10
-104.382
 20
1561.09
 11
-104.045
 21
1560.56
  0
LINE
  8
0
 10
-104.045
 20
1560.56
 11
-103.645
 21
1560.08
  0
LINE
  8
0
 10
-103.645
 20
1560.08
 11
-103.187
 21
1559.65
  0
LINE
  8
0
 10
-103.187
 20
1559.65
 11
-102.679
 21
1559.28
  0
LINE
  8
0
 10
-102.679
 20
1559.28
 11
-102.129
 21
1558.98
  0
LINE
  8
0
 10
-102.129
 20
1558.98
 11
-101.545
 21
1558.74
  0
LINE
  8
0
 10
-101.545
 20
1558.74
 11
-100.937
 21
1558.59
  0
LINE
  8
0
 10
-100.937
 20
1558.59
 11
-100.314
 21
1558.51
  0
LINE
  8
0
 10
-100.314
 20
1558.51
 11
100.314
 21
1558.51
  0
LINE
  8
0
 10
100.314
 20
1558.51
 11
100.937
 21
1558.59
  0
LINE
  8
0
 10
-99.7512
 20
1560.01
 11
-100.25
 21
1560.07
  0
LINE
  8
0
 10
-100.25
 20
1560.07
 11
-100.736
 21
1560.2
  0
LINE
  8
0
 10
-100.736
 20
1560.2
 11
-101.203
 21
1560.38
  0
LINE
  8
0
 10
-101.203
 20
1560.38
 11
-101.643
 21
1560.62
  0
LINE
  8
0
 10
-101.643
 20
1560.62
 11
-102.05
 21
1560.92
  0
LINE
  8
0
 10
-102.05
 20
1560.92
 11
-102.416
 21
1561.26
  0
LINE
  8
0
 10
-102.416
 20
1561.26
 11
-102.736
 21
1561.65
  0
LINE
  8
0
 10
-102.736
 20
1561.65
 11
-103.005
 21
1562.07
  0
LINE
  8
0
 10
-103.005
 20
1562.07
 11
-103.219
 21
1562.53
  0
LINE
  8
0
 10
-103.219
 20
1562.53
 11
-103.374
 21
1563.01
  0
LINE
  8
0
 10
-103.374
 20
1563.01
 11
-103.468
 21
1563.5
  0
LINE
  8
0
 10
-103.468
 20
1563.5
 11
-103.5
 21
1564
  0
LINE
  8
0
 10
-103.5
 20
1564
 11
-103.5
 21
1628
  0
LINE
  8
0
 10
-103.5
 20
1628
 11
-103.468
 21
1628.5
  0
LINE
  8
0
 10
-103.468
 20
1628.5
 11
-103.374
 21
1628.99
  0
LINE
  8
0
 10
-103.374
 20
1628.99
 11
-103.219
 21
1629.47
  0
LINE
  8
0
 10
-103.219
 20
1629.47
 11
-103.005
 21
1629.93
  0
LINE
  8
0
 10
-103.005
 20
1629.93
 11
-102.736
 21
1630.35
  0
LINE
  8
0
 10
-102.736
 20
1630.35
 11
-102.416
 21
1630.74
  0
LINE
  8
0
 10
-102.416
 20
1630.74
 11
-102.05
 21
1631.08
  0
LINE
  8
0
 10
-102.05
 20
1631.08
 11
-101.643
 21
1631.38
  0
LINE
  8
0
 10
-101.643
 20
1631.38
 11
-101.203
 21
1631.62
  0
LINE
  8
0
 10
-101.203
 20
1631.62
 11
-100.736
 21
1631.8
  0
LINE
  8
0
 10
-100.736
 20
1631.8
 11
-100.25
 21
1631.93
  0
LINE
  8
0
 10
-100.25
 20
1631.93
 11
-99.7512
 21
1631.99
  0
LINE
  8
0
 10
-99.7512
 20
1631.99
 11
99.7512
 21
1631.99
  0
LINE
  8
0
 10
99.7512
 20
1631.99
 11
100.25
 21
1631.93
  0
LINE
  8
0
 10
100.25
 20
1631.93
 11
100.736
 21
1631.8
  0
LINE
  8
0
 10
100.736
 20
1631.8
 11
101.203
 21
1631.62
  0
LINE
  8
0
 10
101.203
 20
1631.62
 11
101.643
 21
1631.38
  0
LINE
  8
0
 10
101.643
 20
1631.38
 11
102.05
 21
1631.08
  0
LINE
  8
0
 10
102.05
 20
1631.08
 11
102.416
 21
1630.74
  0
LINE
  8
0
 10
102.416
 20
1630.74
 11
102.736
 21
1630.35
  0
LINE
  8
0
 10
102.736
 20
1630.35
 11
103.005
 21
1629.93
  0
LINE
  8
0
 10
103.005
 20
1629.93
 11
103.219
 21
1629.47
  0
LINE
  8
0
 10
103.219
 20
1629.47
 11
103.374
 21
1628.99
  0
LINE
  8
0
 10
103.374
 20
1628.99
 11
103.468
 21
1628.5
  0
LINE
  8
0
 10
103.468
 20
1628.5
 11
103.5
 21
1628
  0
LINE
  8
0
 10
103.5
 20
1628
 11
103.5
 21
1564
  0
LINE
  8
0
 10
103.5
 20
1564
 11
103.468
 21
1563.5
  0
LINE
  8
0
 10
103.468
 20
1563.5
 11
103.374
 21
1563.01
  0
LINE
  8
0
 10
103.374
 20
1563.01
 11
103.219
 21
1562.53
  0
LINE
  8
0
 10
103.219
 20
1562.53
 11
103.005
 21
1562.07
  0
LINE
  8
0
 10
103.005
 20
1562.07
 11
102.736
 21
1561.65
  0
LINE
  8
0
 10
102.736
 20
1561.65
 11
102.416
 21
1561.26
  0
LINE
  8
0
 10
102.416
 20
1561.26
 11
102.05
 21
1560.92
  0
LINE
  8
0
 10
102.05
 20
1560.92
 11
101.643
 21
1560.62
  0
LINE
  8
0
 10
101.643
 20
1560.62
 11
101.203
 21
1560.38
  0
LINE
  8
0
 10
101.203
 20
1560.38
 11
100.736
 21
1560.2
  0
LINE
  8
0
 10
100.736
 20
1560.2
 11
100.25
 21
1560.07
  0
LINE
  8
0
 10
100.25
 20
1560.07
 11
99.7512
 21
1560.01
  0
LINE
  8
0
 10
99.7512
 20
1560.01
 11
-99.7512
 21
1560.01
  0
LINE
  8
0
 10
100.937
 20
1474.59
 11
101.545
 21
1474.74
  0
LINE
  8
0
 10
101.545
 20
1474.74
 11
102.129
 21
1474.98
  0
LINE
  8
0
 10
102.129
 20
1474.98
 11
102.679
 21
1475.28
  0
LINE
  8
0
 10
102.679
 20
1475.28
 11
103.187
 21
1475.65
  0
LINE
  8
0
 10
103.187
 20
1475.65
 11
103.645
 21
1476.08
  0
LINE
  8
0
 10
103.645
 20
1476.08
 11
104.045
 21
1476.56
  0
LINE
  8
0
 10
104.045
 20
1476.56
 11
104.382
 21
1477.09
  0
LINE
  8
0
 10
104.382
 20
1477.09
 11
104.649
 21
1477.66
  0
LINE
  8
0
 10
104.649
 20
1477.66
 11
104.843
 21
1478.26
  0
LINE
  8
0
 10
104.843
 20
1478.26
 11
104.961
 21
1478.87
  0
LINE
  8
0
 10
104.961
 20
1478.87
 11
105
 21
1479.5
  0
LINE
  8
0
 10
105
 20
1479.5
 11
105
 21
1544.5
  0
LINE
  8
0
 10
105
 20
1544.5
 11
104.961
 21
1545.13
  0
LINE
  8
0
 10
104.961
 20
1545.13
 11
104.843
 21
1545.74
  0
LINE
  8
0
 10
104.843
 20
1545.74
 11
104.649
 21
1546.34
  0
LINE
  8
0
 10
104.649
 20
1546.34
 11
104.382
 21
1546.91
  0
LINE
  8
0
 10
104.382
 20
1546.91
 11
104.045
 21
1547.44
  0
LINE
  8
0
 10
104.045
 20
1547.44
 11
103.645
 21
1547.92
  0
LINE
  8
0
 10
103.645
 20
1547.92
 11
103.187
 21
1548.35
  0
LINE
  8
0
 10
103.187
 20
1548.35
 11
102.679
 21
1548.72
  0
LINE
  8
0
 10
102.679
 20
1548.72
 11
102.129
 21
1549.02
  0
LINE
  8
0
 10
102.129
 20
1549.02
 11
101.545
 21
1549.26
  0
LINE
  8
0
 10
101.545
 20
1549.26
 11
100.937
 21
1549.41
  0
LINE
  8
0
 10
100.937
 20
1549.41
 11
100.314
 21
1549.49
  0
LINE
  8
0
 10
100.314
 20
1549.49
 11
-100.314
 21
1549.49
  0
LINE
  8
0
 10
-100.314
 20
1549.49
 11
-100.937
 21
1549.41
  0
LINE
  8
0
 10
-100.937
 20
1549.41
 11
-101.545
 21
1549.26
  0
LINE
  8
0
 10
-101.545
 20
1549.26
 11
-102.129
 21
1549.02
  0
LINE
  8
0
 10
-102.129
 20
1549.02
 11
-102.679
 21
1548.72
  0
LINE
  8
0
 10
-102.679
 20
1548.72
 11
-103.187
 21
1548.35
  0
LINE
  8
0
 10
-103.187
 20
1548.35
 11
-103.645
 21
1547.92
  0
LINE
  8
0
 10
-103.645
 20
1547.92
 11
-104.045
 21
1547.44
  0
LINE
  8
0
 10
-104.045
 20
1547.44
 11
-104.382
 21
1546.91
  0
LINE
  8
0
 10
-104.382
 20
1546.91
 11
-104.649
 21
1546.34
  0
LINE
  8
0
 10
-104.649
 20
1546.34
 11
-104.843
 21
1545.74
  0
LINE
  8
0
 10
-104.843
 20
1545.74
 11
-104.961
 21
1545.13
  0
LINE
  8
0
 10
-104.961
 20
1545.13
 11
-105
 21
1544.5
  0
LINE
  8
0
 10
-105
 20
1544.5
 11
-105
 21
1479.5
  0
LINE
  8
0
 10
-105
 20
1479.5
 11
-104.961
 21
1478.87
  0
LINE
  8
0
 10
-104.961
 20
1478.87
 11
-104.843
 21
1478.26
  0
LINE
  8
0
 10
-104.843
 20
1478.26
 11
-104.649
 21
1477.66
  0
LINE
  8
0
 10
-104.649
 20
1477.66
 11
-104.382
 21
1477.09
  0
LINE
  8
0
 10
-104.382
 20
1477.09
 11
-104.045
 21
1476.56
  0
LINE
  8
0
 10
-104.045
 20
1476.56
 11
-103.645
 21
1476.08
  0
LINE
  8
0
 10
-103.645
 20
1476.08
 11
-103.187
 21
1475.65
  0
LINE
  8
0
 10
-103.187
 20
1475.65
 11
-102.679
 21
1475.28
  0
LINE
  8
0
 10
-102.679
 20
1475.28
 11
-102.129
 21
1474.98
  0
LINE
  8
0
 10
-102.129
 20
1474.98
 11
-101.545
 21
1474.74
  0
LINE
  8
0
 10
-101.545
 20
1474.74
 11
-100.937
 21
1474.59
  0
LINE
  8
0
 10
-100.937
 20
1474.59
 11
-100.314
 21
1474.51
  0
LINE
  8
0
 10
-100.314
 20
1474.51
 11
100.314
 21
1474.51
  0
LINE
  8
0
 10
100.314
 20
1474.51
 11
100.937
 21
1474.59
  0
LINE
  8
0
 10
-99.7512
 20
1476.01
 11
-100.25
 21
1476.07
  0
LINE
  8
0
 10
-100.25
 20
1476.07
 11
-100.736
 21
1476.2
  0
LINE
  8
0
 10
-100.736
 20
1476.2
 11
-101.203
 21
1476.38
  0
LINE
  8
0
 10
-101.203
 20
1476.38
 11
-101.643
 21
1476.62
  0
LINE
  8
0
 10
-101.643
 20
1476.62
 11
-102.05
 21
1476.92
  0
LINE
  8
0
 10
-102.05
 20
1476.92
 11
-102.416
 21
1477.26
  0
LINE
  8
0
 10
-102.416
 20
1477.26
 11
-102.736
 21
1477.65
  0
LINE
  8
0
 10
-102.736
 20
1477.65
 11
-103.005
 21
1478.07
  0
LINE
  8
0
 10
-103.005
 20
1478.07
 11
-103.219
 21
1478.53
  0
LINE
  8
0
 10
-103.219
 20
1478.53
 11
-103.374
 21
1479.01
  0
LINE
  8
0
 10
-103.374
 20
1479.01
 11
-103.468
 21
1479.5
  0
LINE
  8
0
 10
-103.468
 20
1479.5
 11
-103.5
 21
1480
  0
LINE
  8
0
 10
-103.5
 20
1480
 11
-103.5
 21
1544
  0
LINE
  8
0
 10
-103.5
 20
1544
 11
-103.468
 21
1544.5
  0
LINE
  8
0
 10
-103.468
 20
1544.5
 11
-103.374
 21
1544.99
  0
LINE
  8
0
 10
-103.374
 20
1544.99
 11
-103.219
 21
1545.47
  0
LINE
  8
0
 10
-103.219
 20
1545.47
 11
-103.005
 21
1545.93
  0
LINE
  8
0
 10
-103.005
 20
1545.93
 11
-102.736
 21
1546.35
  0
LINE
  8
0
 10
-102.736
 20
1546.35
 11
-102.416
 21
1546.74
  0
LINE
  8
0
 10
-102.416
 20
1546.74
 11
-102.05
 21
1547.08
  0
LINE
  8
0
 10
-102.05
 20
1547.08
 11
-101.643
 21
1547.38
  0
LINE
  8
0
 10
-101.643
 20
1547.38
 11
-101.203
 21
1547.62
  0
LINE
  8
0
 10
-101.203
 20
1547.62
 11
-100.736
 21
1547.8
  0
LINE
  8
0
 10
-100.736
 20
1547.8
 11
-100.25
 21
1547.93
  0
LINE
  8
0
 10
-100.25
 20
1547.93
 11
-99.7512
 21
1547.99
  0
LINE
  8
0
 10
-99.7512
 20
1547.99
 11
99.7512
 21
1547.99
  0
LINE
  8
0
 10
99.7512
 20
1547.99
 11
100.25
 21
1547.93
  0
LINE
  8
0
 10
100.25
 20
1547.93
 11
100.736
 21
1547.8
  0
LINE
  8
0
 10
100.736
 20
1547.8
 11
101.203
 21
1547.62
  0
LINE
  8
0
 10
101.203
 20
1547.62
 11
101.643
 21
1547.38
  0
LINE
  8
0
 10
101.643
 20
1547.38
 11
102.05
 21
1547.08
  0
LINE
  8
0
 10
102.05
 20
1547.08
 11
102.416
 21
1546.74
  0
LINE
  8
0
 10
102.416
 20
1546.74
 11
102.736
 21
1546.35
  0
LINE
  8
0
 10
102.736
 20
1546.35
 11
103.005
 21
1545.93
  0
LINE
  8
0
 10
103.005
 20
1545.93
 11
103.219
 21
1545.47
  0
LINE
  8
0
 10
103.219
 20
1545.47
 11
103.374
 21
1544.99
  0
LINE
  8
0
 10
103.374
 20
1544.99
 11
103.468
 21
1544.5
  0
LINE
  8
0
 10
103.468
 20
1544.5
 11
103.5
 21
1544
  0
LINE
  8
0
 10
103.5
 20
1544
 11
103.5
 21
1480
  0
LINE
  8
0
 10
103.5
 20
1480
 11
103.468
 21
1479.5
  0
LINE
  8
0
 10
103.468
 20
1479.5
 11
103.374
 21
1479.01
  0
LINE
  8
0
 10
103.374
 20
1479.01
 11
103.219
 21
1478.53
  0
LINE
  8
0
 10
103.219
 20
1478.53
 11
103.005
 21
1478.07
  0
LINE
  8
0
 10
103.005
 20
1478.07
 11
102.736
 21
1477.65
  0
LINE
  8
0
 10
102.736
 20
1477.65
 11
102.416
 21
1477.26
  0
LINE
  8
0
 10
102.416
 20
1477.26
 11
102.05
 21
1476.92
  0
LINE
  8
0
 10
102.05
 20
1476.92
 11
101.643
 21
1476.62
  0
LINE
  8
0
 10
101.643
 20
1476.62
 11
101.203
 21
1476.38
  0
LINE
  8
0
 10
101.203
 20
1476.38
 11
100.736
 21
1476.2
  0
LINE
  8
0
 10
100.736
 20
1476.2
 11
100.25
 21
1476.07
  0
LINE
  8
0
 10
100.25
 20
1476.07
 11
99.7512
 21
1476.01
  0
LINE
  8
0
 10
99.7512
 20
1476.01
 11
-99.7512
 21
1476.01
  0
LINE
  8
0
 10
100.937
 20
1390.59
 11
101.545
 21
1390.74
  0
LINE
  8
0
 10
101.545
 20
1390.74
 11
102.129
 21
1390.98
  0
LINE
  8
0
 10
102.129
 20
1390.98
 11
102.679
 21
1391.28
  0
LINE
  8
0
 10
102.679
 20
1391.28
 11
103.187
 21
1391.65
  0
LINE
  8
0
 10
103.187
 20
1391.65
 11
103.645
 21
1392.08
  0
LINE
  8
0
 10
103.645
 20
1392.08
 11
104.045
 21
1392.56
  0
LINE
  8
0
 10
104.045
 20
1392.56
 11
104.382
 21
1393.09
  0
LINE
  8
0
 10
104.382
 20
1393.09
 11
104.649
 21
1393.66
  0
LINE
  8
0
 10
104.649
 20
1393.66
 11
104.843
 21
1394.26
  0
LINE
  8
0
 10
104.843
 20
1394.26
 11
104.961
 21
1394.87
  0
LINE
  8
0
 10
104.961
 20
1394.87
 11
105
 21
1395.5
  0
LINE
  8
0
 10
105
 20
1395.5
 11
105
 21
1460.5
  0
LINE
  8
0
 10
105
 20
1460.5
 11
104.961
 21
1461.13
  0
LINE
  8
0
 10
104.961
 20
1461.13
 11
104.843
 21
1461.74
  0
LINE
  8
0
 10
104.843
 20
1461.74
 11
104.649
 21
1462.34
  0
LINE
  8
0
 10
104.649
 20
1462.34
 11
104.382
 21
1462.91
  0
LINE
  8
0
 10
104.382
 20
1462.91
 11
104.045
 21
1463.44
  0
LINE
  8
0
 10
104.045
 20
1463.44
 11
103.645
 21
1463.92
  0
LINE
  8
0
 10
103.645
 20
1463.92
 11
103.187
 21
1464.35
  0
LINE
  8
0
 10
103.187
 20
1464.35
 11
102.679
 21
1464.72
  0
LINE
  8
0
 10
102.679
 20
1464.72
 11
102.129
 21
1465.02
  0
LINE
  8
0
 10
102.129
 20
1465.02
 11
101.545
 21
1465.26
  0
LINE
  8
0
 10
101.545
 20
1465.26
 11
100.937
 21
1465.41
  0
LINE
  8
0
 10
100.937
 20
1465.41
 11
100.314
 21
1465.49
  0
LINE
  8
0
 10
100.314
 20
1465.49
 11
-100.314
 21
1465.49
  0
LINE
  8
0
 10
-100.314
 20
1465.49
 11
-100.937
 21
1465.41
  0
LINE
  8
0
 10
-100.937
 20
1465.41
 11
-101.545
 21
1465.26
  0
LINE
  8
0
 10
-101.545
 20
1465.26
 11
-102.129
 21
1465.02
  0
LINE
  8
0
 10
-102.129
 20
1465.02
 11
-102.679
 21
1464.72
  0
LINE
  8
0
 10
-102.679
 20
1464.72
 11
-103.187
 21
1464.35
  0
LINE
  8
0
 10
-103.187
 20
1464.35
 11
-103.645
 21
1463.92
  0
LINE
  8
0
 10
-103.645
 20
1463.92
 11
-104.045
 21
1463.44
  0
LINE
  8
0
 10
-104.045
 20
1463.44
 11
-104.382
 21
1462.91
  0
LINE
  8
0
 10
-104.382
 20
1462.91
 11
-104.649
 21
1462.34
  0
LINE
  8
0
 10
-104.649
 20
1462.34
 11
-104.843
 21
1461.74
  0
LINE
  8
0
 10
-104.843
 20
1461.74
 11
-104.961
 21
1461.13
  0
LINE
  8
0
 10
-104.961
 20
1461.13
 11
-105
 21
1460.5
  0
LINE
  8
0
 10
-105
 20
1460.5
 11
-105
 21
1395.5
  0
LINE
  8
0
 10
-105
 20
1395.5
 11
-104.961
 21
1394.87
  0
LINE
  8
0
 10
-104.961
 20
1394.87
 11
-104.843
 21
1394.26
  0
LINE
  8
0
 10
-104.843
 20
1394.26
 11
-104.649
 21
1393.66
  0
LINE
  8
0
 10
-104.649
 20
1393.66
 11
-104.382
 21
1393.09
  0
LINE
  8
0
 10
-104.382
 20
1393.09
 11
-104.045
 21
1392.56
  0
LINE
  8
0
 10
-104.045
 20
1392.56
 11
-103.645
 21
1392.08
  0
LINE
  8
0
 10
-103.645
 20
1392.08
 11
-103.187
 21
1391.65
  0
LINE
  8
0
 10
-103.187
 20
1391.65
 11
-102.679
 21
1391.28
  0
LINE
  8
0
 10
-102.679
 20
1391.28
 11
-102.129
 21
1390.98
  0
LINE
  8
0
 10
-102.129
 20
1390.98
 11
-101.545
 21
1390.74
  0
LINE
  8
0
 10
-101.545
 20
1390.74
 11
-100.937
 21
1390.59
  0
LINE
  8
0
 10
-100.937
 20
1390.59
 11
-100.314
 21
1390.51
  0
LINE
  8
0
 10
-100.314
 20
1390.51
 11
100.314
 21
1390.51
  0
LINE
  8
0
 10
100.314
 20
1390.51
 11
100.937
 21
1390.59
  0
LINE
  8
0
 10
-99.7512
 20
1392.01
 11
-100.25
 21
1392.07
  0
LINE
  8
0
 10
-100.25
 20
1392.07
 11
-100.736
 21
1392.2
  0
LINE
  8
0
 10
-100.736
 20
1392.2
 11
-101.203
 21
1392.38
  0
LINE
  8
0
 10
-101.203
 20
1392.38
 11
-101.643
 21
1392.62
  0
LINE
  8
0
 10
-101.643
 20
1392.62
 11
-102.05
 21
1392.92
  0
LINE
  8
0
 10
-102.05
 20
1392.92
 11
-102.416
 21
1393.26
  0
LINE
  8
0
 10
-102.416
 20
1393.26
 11
-102.736
 21
1393.65
  0
LINE
  8
0
 10
-102.736
 20
1393.65
 11
-103.005
 21
1394.07
  0
LINE
  8
0
 10
-103.005
 20
1394.07
 11
-103.219
 21
1394.53
  0
LINE
  8
0
 10
-103.219
 20
1394.53
 11
-103.374
 21
1395.01
  0
LINE
  8
0
 10
-103.374
 20
1395.01
 11
-103.468
 21
1395.5
  0
LINE
  8
0
 10
-103.468
 20
1395.5
 11
-103.5
 21
1396
  0
LINE
  8
0
 10
-103.5
 20
1396
 11
-103.5
 21
1460
  0
LINE
  8
0
 10
-103.5
 20
1460
 11
-103.468
 21
1460.5
  0
LINE
  8
0
 10
-103.468
 20
1460.5
 11
-103.374
 21
1460.99
  0
LINE
  8
0
 10
-103.374
 20
1460.99
 11
-103.219
 21
1461.47
  0
LINE
  8
0
 10
-103.219
 20
1461.47
 11
-103.005
 21
1461.93
  0
LINE
  8
0
 10
-103.005
 20
1461.93
 11
-102.736
 21
1462.35
  0
LINE
  8
0
 10
-102.736
 20
1462.35
 11
-102.416
 21
1462.74
  0
LINE
  8
0
 10
-102.416
 20
1462.74
 11
-102.05
 21
1463.08
  0
LINE
  8
0
 10
-102.05
 20
1463.08
 11
-101.643
 21
1463.38
  0
LINE
  8
0
 10
-101.643
 20
1463.38
 11
-101.203
 21
1463.62
  0
LINE
  8
0
 10
-101.203
 20
1463.62
 11
-100.736
 21
1463.8
  0
LINE
  8
0
 10
-100.736
 20
1463.8
 11
-100.25
 21
1463.93
  0
LINE
  8
0
 10
-100.25
 20
1463.93
 11
-99.7512
 21
1463.99
  0
LINE
  8
0
 10
-99.7512
 20
1463.99
 11
99.7512
 21
1463.99
  0
LINE
  8
0
 10
99.7512
 20
1463.99
 11
100.25
 21
1463.93
  0
LINE
  8
0
 10
100.25
 20
1463.93
 11
100.736
 21
1463.8
  0
LINE
  8
0
 10
100.736
 20
1463.8
 11
101.203
 21
1463.62
  0
LINE
  8
0
 10
101.203
 20
1463.62
 11
101.643
 21
1463.38
  0
LINE
  8
0
 10
101.643
 20
1463.38
 11
102.05
 21
1463.08
  0
LINE
  8
0
 10
102.05
 20
1463.08
 11
102.416
 21
1462.74
  0
LINE
  8
0
 10
102.416
 20
1462.74
 11
102.736
 21
1462.35
  0
LINE
  8
0
 10
102.736
 20
1462.35
 11
103.005
 21
1461.93
  0
LINE
  8
0
 10
103.005
 20
1461.93
 11
103.219
 21
1461.47
  0
LINE
  8
0
 10
103.219
 20
1461.47
 11
103.374
 21
1460.99
  0
LINE
  8
0
 10
103.374
 20
1460.99
 11
103.468
 21
1460.5
  0
LINE
  8
0
 10
103.468
 20
1460.5
 11
103.5
 21
1460
  0
LINE
  8
0
 10
103.5
 20
1460
 11
103.5
 21
1396
  0
LINE
  8
0
 10
103.5
 20
1396
 11
103.468
 21
1395.5
  0
LINE
  8
0
 10
103.468
 20
1395.5
 11
103.374
 21
1395.01
  0
LINE
  8
0
 10
103.374
 20
1395.01
 11
103.219
 21
1394.53
  0
LINE
  8
0
 10
103.219
 20
1394.53
 11
103.005
 21
1394.07
  0
LINE
  8
0
 10
103.005
 20
1394.07
 11
102.736
 21
1393.65
  0
LINE
  8
0
 10
102.736
 20
1393.65
 11
102.416
 21
1393.26
  0
LINE
  8
0
 10
102.416
 20
1393.26
 11
102.05
 21
1392.92
  0
LINE
  8
0
 10
102.05
 20
1392.92
 11
101.643
 21
1392.62
  0
LINE
  8
0
 10
101.643
 20
1392.62
 11
101.203
 21
1392.38
  0
LINE
  8
0
 10
101.203
 20
1392.38
 11
100.736
 21
1392.2
  0
LINE
  8
0
 10
100.736
 20
1392.2
 11
100.25
 21
1392.07
  0
LINE
  8
0
 10
100.25
 20
1392.07
 11
99.7512
 21
1392.01
  0
LINE
  8
0
 10
99.7512
 20
1392.01
 11
-99.7512
 21
1392.01
  0
LINE
  8
0
 10
100.937
 20
1306.59
 11
101.545
 21
1306.74
  0
LINE
  8
0
 10
101.545
 20
1306.74
 11
102.129
 21
1306.98
  0
LINE
  8
0
 10
102.129
 20
1306.98
 11
102.679
 21
1307.28
  0
LINE
  8
0
 10
102.679
 20
1307.28
 11
103.187
 21
1307.65
  0
LINE
  8
0
 10
103.187
 20
1307.65
 11
103.645
 21
1308.08
  0
LINE
  8
0
 10
103.645
 20
1308.08
 11
104.045
 21
1308.56
  0
LINE
  8
0
 10
104.045
 20
1308.56
 11
104.382
 21
1309.09
  0
LINE
  8
0
 10
104.382
 20
1309.09
 11
104.649
 21
1309.66
  0
LINE
  8
0
 10
104.649
 20
1309.66
 11
104.843
 21
1310.26
  0
LINE
  8
0
 10
104.843
 20
1310.26
 11
104.961
 21
1310.87
  0
LINE
  8
0
 10
104.961
 20
1310.87
 11
105
 21
1311.5
  0
LINE
  8
0
 10
105
 20
1311.5
 11
105
 21
1376.5
  0
LINE
  8
0
 10
105
 20
1376.5
 11
104.961
 21
1377.13
  0
LINE
  8
0
 10
104.961
 20
1377.13
 11
104.843
 21
1377.74
  0
LINE
  8
0
 10
104.843
 20
1377.74
 11
104.649
 21
1378.34
  0
LINE
  8
0
 10
104.649
 20
1378.34
 11
104.382
 21
1378.91
  0
LINE
  8
0
 10
104.382
 20
1378.91
 11
104.045
 21
1379.44
  0
LINE
  8
0
 10
104.045
 20
1379.44
 11
103.645
 21
1379.92
  0
LINE
  8
0
 10
103.645
 20
1379.92
 11
103.187
 21
1380.35
  0
LINE
  8
0
 10
103.187
 20
1380.35
 11
102.679
 21
1380.72
  0
LINE
  8
0
 10
102.679
 20
1380.72
 11
102.129
 21
1381.02
  0
LINE
  8
0
 10
102.129
 20
1381.02
 11
101.545
 21
1381.26
  0
LINE
  8
0
 10
101.545
 20
1381.26
 11
100.937
 21
1381.41
  0
LINE
  8
0
 10
100.937
 20
1381.41
 11
100.314
 21
1381.49
  0
LINE
  8
0
 10
100.314
 20
1381.49
 11
-100.314
 21
1381.49
  0
LINE
  8
0
 10
-100.314
 20
1381.49
 11
-100.937
 21
1381.41
  0
LINE
  8
0
 10
-100.937
 20
1381.41
 11
-101.545
 21
1381.26
  0
LINE
  8
0
 10
-101.545
 20
1381.26
 11
-102.129
 21
1381.02
  0
LINE
  8
0
 10
-102.129
 20
1381.02
 11
-102.679
 21
1380.72
  0
LINE
  8
0
 10
-102.679
 20
1380.72
 11
-103.187
 21
1380.35
  0
LINE
  8
0
 10
-103.187
 20
1380.35
 11
-103.645
 21
1379.92
  0
LINE
  8
0
 10
-103.645
 20
1379.92
 11
-104.045
 21
1379.44
  0
LINE
  8
0
 10
-104.045
 20
1379.44
 11
-104.382
 21
1378.91
  0
LINE
  8
0
 10
-104.382
 20
1378.91
 11
-104.649
 21
1378.34
  0
LINE
  8
0
 10
-104.649
 20
1378.34
 11
-104.843
 21
1377.74
  0
LINE
  8
0
 10
-104.843
 20
1377.74
 11
-104.961
 21
1377.13
  0
LINE
  8
0
 10
-104.961
 20
1377.13
 11
-105
 21
1376.5
  0
LINE
  8
0
 10
-105
 20
1376.5
 11
-105
 21
1311.5
  0
LINE
  8
0
 10
-105
 20
1311.5
 11
-104.961
 21
1310.87
  0
LINE
  8
0
 10
-104.961
 20
1310.87
 11
-104.843
 21
1310.26
  0
LINE
  8
0
 10
-104.843
 20
1310.26
 11
-104.649
 21
1309.66
  0
LINE
  8
0
 10
-104.649
 20
1309.66
 11
-104.382
 21
1309.09
  0
LINE
  8
0
 10
-104.382
 20
1309.09
 11
-104.045
 21
1308.56
  0
LINE
  8
0
 10
-104.045
 20
1308.56
 11
-103.645
 21
1308.08
  0
LINE
  8
0
 10
-103.645
 20
1308.08
 11
-103.187
 21
1307.65
  0
LINE
  8
0
 10
-103.187
 20
1307.65
 11
-102.679
 21
1307.28
  0
LINE
  8
0
 10
-102.679
 20
1307.28
 11
-102.129
 21
1306.98
  0
LINE
  8
0
 10
-102.129
 20
1306.98
 11
-101.545
 21
1306.74
  0
LINE
  8
0
 10
-101.545
 20
1306.74
 11
-100.937
 21
1306.59
  0
LINE
  8
0
 10
-100.937
 20
1306.59
 11
-100.314
 21
1306.51
  0
LINE
  8
0
 10
-100.314
 20
1306.51
 11
100.314
 21
1306.51
  0
LINE
  8
0
 10
100.314
 20
1306.51
 11
100.937
 21
1306.59
  0
LINE
  8
0
 10
-99.6955
 20
1308.89
 11
-100.083
 21
1308.94
  0
LINE
  8
0
 10
-100.083
 20
1308.94
 11
-100.462
 21
1309.04
  0
LINE
  8
0
 10
-100.462
 20
1309.04
 11
-100.825
 21
1309.18
  0
LINE
  8
0
 10
-100.825
 20
1309.18
 11
-101.168
 21
1309.37
  0
LINE
  8
0
 10
-101.168
 20
1309.37
 11
-101.484
 21
1309.6
  0
LINE
  8
0
 10
-101.484
 20
1309.6
 11
-101.769
 21
1309.87
  0
LINE
  8
0
 10
-101.769
 20
1309.87
 11
-102.018
 21
1310.17
  0
LINE
  8
0
 10
-102.018
 20
1310.17
 11
-102.228
 21
1310.5
  0
LINE
  8
0
 10
-102.228
 20
1310.5
 11
-102.394
 21
1310.85
  0
LINE
  8
0
 10
-102.394
 20
1310.85
 11
-102.515
 21
1311.23
  0
LINE
  8
0
 10
-102.515
 20
1311.23
 11
-102.588
 21
1311.61
  0
LINE
  8
0
 10
-102.588
 20
1311.61
 11
-102.613
 21
1312
  0
LINE
  8
0
 10
-102.613
 20
1312
 11
-102.613
 21
1376
  0
LINE
  8
0
 10
-102.613
 20
1376
 11
-102.588
 21
1376.39
  0
LINE
  8
0
 10
-102.588
 20
1376.39
 11
-102.515
 21
1376.77
  0
LINE
  8
0
 10
-102.515
 20
1376.77
 11
-102.394
 21
1377.15
  0
LINE
  8
0
 10
-102.394
 20
1377.15
 11
-102.228
 21
1377.5
  0
LINE
  8
0
 10
-102.228
 20
1377.5
 11
-102.018
 21
1377.83
  0
LINE
  8
0
 10
-102.018
 20
1377.83
 11
-101.769
 21
1378.13
  0
LINE
  8
0
 10
-101.769
 20
1378.13
 11
-101.484
 21
1378.4
  0
LINE
  8
0
 10
-101.484
 20
1378.4
 11
-101.168
 21
1378.63
  0
LINE
  8
0
 10
-101.168
 20
1378.63
 11
-100.825
 21
1378.82
  0
LINE
  8
0
 10
-100.825
 20
1378.82
 11
-100.462
 21
1378.96
  0
LINE
  8
0
 10
-100.462
 20
1378.96
 11
-100.083
 21
1379.06
  0
LINE
  8
0
 10
-100.083
 20
1379.06
 11
-99.6955
 21
1379.11
  0
LINE
  8
0
 10
-99.6955
 20
1379.11
 11
99.6955
 21
1379.11
  0
LINE
  8
0
 10
99.6955
 20
1379.11
 11
100.083
 21
1379.06
  0
LINE
  8
0
 10
100.083
 20
1379.06
 11
100.462
 21
1378.96
  0
LINE
  8
0
 10
100.462
 20
1378.96
 11
100.825
 21
1378.82
  0
LINE
  8
0
 10
100.825
 20
1378.82
 11
101.168
 21
1378.63
  0
LINE
  8
0
 10
101.168
 20
1378.63
 11
101.484
 21
1378.4
  0
LINE
  8
0
 10
101.484
 20
1378.4
 11
101.769
 21
1378.13
  0
LINE
  8
0
 10
101.769
 20
1378.13
 11
102.018
 21
1377.83
  0
LINE
  8
0
 10
102.018
 20
1377.83
 11
102.228
 21
1377.5
  0
LINE
  8
0
 10
102.228
 20
1377.5
 11
102.394
 21
1377.15
  0
LINE
  8
0
 10
102.394
 20
1377.15
 11
102.515
 21
1376.77
  0
LINE
  8
0
 10
102.515
 20
1376.77
 11
102.588
 21
1376.39
  0
LINE
  8
0
 10
102.588
 20
1376.39
 11
102.613
 21
1376
  0
LINE
  8
0
 10
102.613
 20
1376
 11
102.613
 21
1312
  0
LINE
  8
0
 10
102.613
 20
1312
 11
102.588
 21
1311.61
  0
LINE
  8
0
 10
102.588
 20
1311.61
 11
102.515
 21
1311.23
  0
LINE
  8
0
 10
102.515
 20
1311.23
 11
102.394
 21
1310.85
  0
LINE
  8
0
 10
102.394
 20
1310.85
 11
102.228
 21
1310.5
  0
LINE
  8
0
 10
102.228
 20
1310.5
 11
102.018
 21
1310.17
  0
LINE
  8
0
 10
102.018
 20
1310.17
 11
101.769
 21
1309.87
  0
LINE
  8
0
 10
101.769
 20
1309.87
 11
101.484
 21
1309.6
  0
LINE
  8
0
 10
101.484
 20
1309.6
 11
101.168
 21
1309.37
  0
LINE
  8
0
 10
101.168
 20
1309.37
 11
100.825
 21
1309.18
  0
LINE
  8
0
 10
100.825
 20
1309.18
 11
100.462
 21
1309.04
  0
LINE
  8
0
 10
100.462
 20
1309.04
 11
100.083
 21
1308.94
  0
LINE
  8
0
 10
100.083
 20
1308.94
 11
99.6955
 21
1308.89
  0
LINE
  8
0
 10
99.6955
 20
1308.89
 11
-99.6955
 21
1308.89
  0
LINE
  8
0
 10
100.937
 20
1222.59
 11
101.545
 21
1222.74
  0
LINE
  8
0
 10
101.545
 20
1222.74
 11
102.129
 21
1222.98
  0
LINE
  8
0
 10
102.129
 20
1222.98
 11
102.679
 21
1223.28
  0
LINE
  8
0
 10
102.679
 20
1223.28
 11
103.187
 21
1223.65
  0
LINE
  8
0
 10
103.187
 20
1223.65
 11
103.645
 21
1224.08
  0
LINE
  8
0
 10
103.645
 20
1224.08
 11
104.045
 21
1224.56
  0
LINE
  8
0
 10
104.045
 20
1224.56
 11
104.382
 21
1225.09
  0
LINE
  8
0
 10
104.382
 20
1225.09
 11
104.649
 21
1225.66
  0
LINE
  8
0
 10
104.649
 20
1225.66
 11
104.843
 21
1226.26
  0
LINE
  8
0
 10
104.843
 20
1226.26
 11
104.961
 21
1226.87
  0
LINE
  8
0
 10
104.961
 20
1226.87
 11
105
 21
1227.5
  0
LINE
  8
0
 10
105
 20
1227.5
 11
105
 21
1292.5
  0
LINE
  8
0
 10
105
 20
1292.5
 11
104.961
 21
1293.13
  0
LINE
  8
0
 10
104.961
 20
1293.13
 11
104.843
 21
1293.74
  0
LINE
  8
0
 10
104.843
 20
1293.74
 11
104.649
 21
1294.34
  0
LINE
  8
0
 10
104.649
 20
1294.34
 11
104.382
 21
1294.91
  0
LINE
  8
0
 10
104.382
 20
1294.91
 11
104.045
 21
1295.44
  0
LINE
  8
0
 10
104.045
 20
1295.44
 11
103.645
 21
1295.92
  0
LINE
  8
0
 10
103.645
 20
1295.92
 11
103.187
 21
1296.35
  0
LINE
  8
0
 10
103.187
 20
1296.35
 11
102.679
 21
1296.72
  0
LINE
  8
0
 10
102.679
 20
1296.72
 11
102.129
 21
1297.02
  0
LINE
  8
0
 10
102.129
 20
1297.02
 11
101.545
 21
1297.26
  0
LINE
  8
0
 10
101.545
 20
1297.26
 11
100.937
 21
1297.41
  0
LINE
  8
0
 10
100.937
 20
1297.41
 11
100.314
 21
1297.49
  0
LINE
  8
0
 10
100.314
 20
1297.49
 11
-100.314
 21
1297.49
  0
LINE
  8
0
 10
-100.314
 20
1297.49
 11
-100.937
 21
1297.41
  0
LINE
  8
0
 10
-100.937
 20
1297.41
 11
-101.545
 21
1297.26
  0
LINE
  8
0
 10
-101.545
 20
1297.26
 11
-102.129
 21
1297.02
  0
LINE
  8
0
 10
-102.129
 20
1297.02
 11
-102.679
 21
1296.72
  0
LINE
  8
0
 10
-102.679
 20
1296.72
 11
-103.187
 21
1296.35
  0
LINE
  8
0
 10
-103.187
 20
1296.35
 11
-103.645
 21
1295.92
  0
LINE
  8
0
 10
-103.645
 20
1295.92
 11
-104.045
 21
1295.44
  0
LINE
  8
0
 10
-104.045
 20
1295.44
 11
-104.382
 21
1294.91
  0
LINE
  8
0
 10
-104.382
 20
1294.91
 11
-104.649
 21
1294.34
  0
LINE
  8
0
 10
-104.649
 20
1294.34
 11
-104.843
 21
1293.74
  0
LINE
  8
0
 10
-104.843
 20
1293.74
 11
-104.961
 21
1293.13
  0
LINE
  8
0
 10
-104.961
 20
1293.13
 11
-105
 21
1292.5
  0
LINE
  8
0
 10
-105
 20
1292.5
 11
-105
 21
1227.5
  0
LINE
  8
0
 10
-105
 20
1227.5
 11
-104.961
 21
1226.87
  0
LINE
  8
0
 10
-104.961
 20
1226.87
 11
-104.843
 21
1226.26
  0
LINE
  8
0
 10
-104.843
 20
1226.26
 11
-104.649
 21
1225.66
  0
LINE
  8
0
 10
-104.649
 20
1225.66
 11
-104.382
 21
1225.09
  0
LINE
  8
0
 10
-104.382
 20
1225.09
 11
-104.045
 21
1224.56
  0
LINE
  8
0
 10
-104.045
 20
1224.56
 11
-103.645
 21
1224.08
  0
LINE
  8
0
 10
-103.645
 20
1224.08
 11
-103.187
 21
1223.65
  0
LINE
  8
0
 10
-103.187
 20
1223.65
 11
-102.679
 21
1223.28
  0
LINE
  8
0
 10
-102.679
 20
1223.28
 11
-102.129
 21
1222.98
  0
LINE
  8
0
 10
-102.129
 20
1222.98
 11
-101.545
 21
1222.74
  0
LINE
  8
0
 10
-101.545
 20
1222.74
 11
-100.937
 21
1222.59
  0
LINE
  8
0
 10
-100.937
 20
1222.59
 11
-100.314
 21
1222.51
  0
LINE
  8
0
 10
-100.314
 20
1222.51
 11
100.314
 21
1222.51
  0
LINE
  8
0
 10
100.314
 20
1222.51
 11
100.937
 21
1222.59
  0
LINE
  8
0
 10
-97.6341
 20
1287.87
 11
-97.9001
 21
1287.9
  0
LINE
  8
0
 10
-97.9001
 20
1287.9
 11
-98.1598
 21
1287.97
  0
LINE
  8
0
 10
-98.1598
 20
1287.97
 11
-98.4092
 21
1288.07
  0
LINE
  8
0
 10
-98.4092
 20
1288.07
 11
-98.6441
 21
1288.2
  0
LINE
  8
0
 10
-98.6441
 20
1288.2
 11
-98.8611
 21
1288.35
  0
LINE
  8
0
 10
-98.8611
 20
1288.35
 11
-99.0566
 21
1288.54
  0
LINE
  8
0
 10
-99.0566
 20
1288.54
 11
-99.2275
 21
1288.74
  0
LINE
  8
0
 10
-99.2275
 20
1288.74
 11
-99.3712
 21
1288.97
  0
LINE
  8
0
 10
-99.3712
 20
1288.97
 11
-99.4853
 21
1289.21
  0
LINE
  8
0
 10
-99.4853
 20
1289.21
 11
-99.5682
 21
1289.47
  0
LINE
  8
0
 10
-99.5682
 20
1289.47
 11
-99.6185
 21
1289.73
  0
LINE
  8
0
 10
-99.6185
 20
1289.73
 11
-99.6353
 21
1290
  0
LINE
  8
0
 10
-99.6353
 20
1290
 11
-99.6185
 21
1290.27
  0
LINE
  8
0
 10
-99.6185
 20
1290.27
 11
-99.5682
 21
1290.53
  0
LINE
  8
0
 10
-99.5682
 20
1290.53
 11
-99.4853
 21
1290.79
  0
LINE
  8
0
 10
-99.4853
 20
1290.79
 11
-99.3712
 21
1291.03
  0
LINE
  8
0
 10
-99.3712
 20
1291.03
 11
-99.2275
 21
1291.26
  0
LINE
  8
0
 10
-99.2275
 20
1291.26
 11
-99.0566
 21
1291.46
  0
LINE
  8
0
 10
-99.0566
 20
1291.46
 11
-98.8611
 21
1291.65
  0
LINE
  8
0
 10
-98.8611
 20
1291.65
 11
-98.6441
 21
1291.8
  0
LINE
  8
0
 10
-98.6441
 20
1291.8
 11
-98.4092
 21
1291.93
  0
LINE
  8
0
 10
-98.4092
 20
1291.93
 11
-98.1598
 21
1292.03
  0
LINE
  8
0
 10
-98.1598
 20
1292.03
 11
-97.9001
 21
1292.1
  0
LINE
  8
0
 10
-97.9001
 20
1292.1
 11
-97.6341
 21
1292.13
  0
LINE
  8
0
 10
-97.6341
 20
1292.13
 11
-97.3659
 21
1292.13
  0
LINE
  8
0
 10
-97.3659
 20
1292.13
 11
-97.0999
 21
1292.1
  0
LINE
  8
0
 10
-97.0999
 20
1292.1
 11
-96.8401
 21
1292.03
  0
LINE
  8
0
 10
-96.8401
 20
1292.03
 11
-96.5908
 21
1291.93
  0
LINE
  8
0
 10
-96.5908
 20
1291.93
 11
-96.3559
 21
1291.8
  0
LINE
  8
0
 10
-96.3559
 20
1291.8
 11
-96.1389
 21
1291.65
  0
LINE
  8
0
 10
-96.1389
 20
1291.65
 11
-95.9434
 21
1291.46
  0
LINE
  8
0
 10
-95.9434
 20
1291.46
 11
-95.7725
 21
1291.26
  0
LINE
  8
0
 10
-95.7725
 20
1291.26
 11
-95.6288
 21
1291.03
  0
LINE
  8
0
 10
-95.6288
 20
1291.03
 11
-95.5146
 21
1290.79
  0
LINE
  8
0
 10
-95.5146
 20
1290.79
 11
-95.4318
 21
1290.53
  0
LINE
  8
0
 10
-95.4318
 20
1290.53
 11
-95.3815
 21
1290.27
  0
LINE
  8
0
 10
-95.3815
 20
1290.27
 11
-95.3647
 21
1290
  0
LINE
  8
0
 10
-95.3647
 20
1290
 11
-95.3815
 21
1289.73
  0
LINE
  8
0
 10
-95.3815
 20
1289.73
 11
-95.4318
 21
1289.47
  0
LINE
  8
0
 10
-95.4318
 20
1289.47
 11
-95.5146
 21
1289.21
  0
LINE
  8
0
 10
-95.5146
 20
1289.21
 11
-95.6288
 21
1288.97
  0
LINE
  8
0
 10
-95.6288
 20
1288.97
 11
-95.7725
 21
1288.74
  0
LINE
  8
0
 10
-95.7725
 20
1288.74
 11
-95.9434
 21
1288.54
  0
LINE
  8
0
 10
-95.9434
 20
1288.54
 11
-96.1389
 21
1288.35
  0
LINE
  8
0
 10
-96.1389
 20
1288.35
 11
-96.3559
 21
1288.2
  0
LINE
  8
0
 10
-96.3559
 20
1288.2
 11
-96.5908
 21
1288.07
  0
LINE
  8
0
 10
-96.5908
 20
1288.07
 11
-96.8401
 21
1287.97
  0
LINE
  8
0
 10
-96.8401
 20
1287.97
 11
-97.0999
 21
1287.9
  0
LINE
  8
0
 10
-97.0999
 20
1287.9
 11
-97.3659
 21
1287.87
  0
LINE
  8
0
 10
-97.3659
 20
1287.87
 11
-97.6341
 21
1287.87
  0
LINE
  8
0
 10
97.3659
 20
1287.87
 11
97.0999
 21
1287.9
  0
LINE
  8
0
 10
97.0999
 20
1287.9
 11
96.8401
 21
1287.97
  0
LINE
  8
0
 10
96.8401
 20
1287.97
 11
96.5908
 21
1288.07
  0
LINE
  8
0
 10
96.5908
 20
1288.07
 11
96.3559
 21
1288.2
  0
LINE
  8
0
 10
96.3559
 20
1288.2
 11
96.1389
 21
1288.35
  0
LINE
  8
0
 10
96.1389
 20
1288.35
 11
95.9434
 21
1288.54
  0
LINE
  8
0
 10
95.9434
 20
1288.54
 11
95.7725
 21
1288.74
  0
LINE
  8
0
 10
95.7725
 20
1288.74
 11
95.6288
 21
1288.97
  0
LINE
  8
0
 10
95.6288
 20
1288.97
 11
95.5146
 21
1289.21
  0
LINE
  8
0
 10
95.5146
 20
1289.21
 11
95.4318
 21
1289.47
  0
LINE
  8
0
 10
95.4318
 20
1289.47
 11
95.3815
 21
1289.73
  0
LINE
  8
0
 10
95.3815
 20
1289.73
 11
95.3647
 21
1290
  0
LINE
  8
0
 10
95.3647
 20
1290
 11
95.3815
 21
1290.27
  0
LINE
  8
0
 10
95.3815
 20
1290.27
 11
95.4318
 21
1290.53
  0
LINE
  8
0
 10
95.4318
 20
1290.53
 11
95.5146
 21
1290.79
  0
LINE
  8
0
 10
95.5146
 20
1290.79
 11
95.6288
 21
1291.03
  0
LINE
  8
0
 10
95.6288
 20
1291.03
 11
95.7725
 21
1291.26
  0
LINE
  8
0
 10
95.7725
 20
1291.26
 11
95.9434
 21
1291.46
  0
LINE
  8
0
 10
95.9434
 20
1291.46
 11
96.1389
 21
1291.65
  0
LINE
  8
0
 10
96.1389
 20
1291.65
 11
96.3559
 21
1291.8
  0
LINE
  8
0
 10
96.3559
 20
1291.8
 11
96.5908
 21
1291.93
  0
LINE
  8
0
 10
96.5908
 20
1291.93
 11
96.8401
 21
1292.03
  0
LINE
  8
0
 10
96.8401
 20
1292.03
 11
97.0999
 21
1292.1
  0
LINE
  8
0
 10
97.0999
 20
1292.1
 11
97.3659
 21
1292.13
  0
LINE
  8
0
 10
97.3659
 20
1292.13
 11
97.6341
 21
1292.13
  0
LINE
  8
0
 10
97.6341
 20
1292.13
 11
97.9001
 21
1292.1
  0
LINE
  8
0
 10
97.9001
 20
1292.1
 11
98.1598
 21
1292.03
  0
LINE
  8
0
 10
98.1598
 20
1292.03
 11
98.4092
 21
1291.93
  0
LINE
  8
0
 10
98.4092
 20
1291.93
 11
98.6441
 21
1291.8
  0
LINE
  8
0
 10
98.6441
 20
1291.8
 11
98.8611
 21
1291.65
  0
LINE
  8
0
 10
98.8611
 20
1291.65
 11
99.0566
 21
1291.46
  0
LINE
  8
0
 10
99.0566
 20
1291.46
 11
99.2275
 21
1291.26
  0
LINE
  8
0
 10
99.2275
 20
1291.26
 11
99.3712
 21
1291.03
  0
LINE
  8
0
 10
99.3712
 20
1291.03
 11
99.4853
 21
1290.79
  0
LINE
  8
0
 10
99.4853
 20
1290.79
 11
99.5682
 21
1290.53
  0
LINE
  8
0
 10
99.5682
 20
1290.53
 11
99.6185
 21
1290.27
  0
LINE
  8
0
 10
99.6185
 20
1290.27
 11
99.6353
 21
1290
  0
LINE
  8
0
 10
99.6353
 20
1290
 11
99.6185
 21
1289.73
  0
LINE
  8
0
 10
99.6185
 20
1289.73
 11
99.5682
 21
1289.47
  0
LINE
  8
0
 10
99.5682
 20
1289.47
 11
99.4853
 21
1289.21
  0
LINE
  8
0
 10
99.4853
 20
1289.21
 11
99.3712
 21
1288.97
  0
LINE
  8
0
 10
99.3712
 20
1288.97
 11
99.2275
 21
1288.74
  0
LINE
  8
0
 10
99.2275
 20
1288.74
 11
99.0566
 21
1288.54
  0
LINE
  8
0
 10
99.0566
 20
1288.54
 11
98.8611
 21
1288.35
  0
LINE
  8
0
 10
98.8611
 20
1288.35
 11
98.6441
 21
1288.2
  0
LINE
  8
0
 10
98.6441
 20
1288.2
 11
98.4092
 21
1288.07
  0
LINE
  8
0
 10
98.4092
 20
1288.07
 11
98.1598
 21
1287.97
  0
LINE
  8
0
 10
98.1598
 20
1287.97
 11
97.9001
 21
1287.9
  0
LINE
  8
0
 10
97.9001
 20
1287.9
 11
97.6341
 21
1287.87
  0
LINE
  8
0
 10
97.6341
 20
1287.87
 11
97.3659
 21
1287.87
  0
LINE
  8
0
 10
-97.6341
 20
1227.87
 11
-97.9001
 21
1227.9
  0
LINE
  8
0
 10
-97.9001
 20
1227.9
 11
-98.1598
 21
1227.97
  0
LINE
  8
0
 10
-98.1598
 20
1227.97
 11
-98.4092
 21
1228.07
  0
LINE
  8
0
 10
-98.4092
 20
1228.07
 11
-98.6441
 21
1228.2
  0
LINE
  8
0
 10
-98.6441
 20
1228.2
 11
-98.8611
 21
1228.35
  0
LINE
  8
0
 10
-98.8611
 20
1228.35
 11
-99.0566
 21
1228.54
  0
LINE
  8
0
 10
-99.0566
 20
1228.54
 11
-99.2275
 21
1228.74
  0
LINE
  8
0
 10
-99.2275
 20
1228.74
 11
-99.3712
 21
1228.97
  0
LINE
  8
0
 10
-99.3712
 20
1228.97
 11
-99.4853
 21
1229.21
  0
LINE
  8
0
 10
-99.4853
 20
1229.21
 11
-99.5682
 21
1229.47
  0
LINE
  8
0
 10
-99.5682
 20
1229.47
 11
-99.6185
 21
1229.73
  0
LINE
  8
0
 10
-99.6185
 20
1229.73
 11
-99.6353
 21
1230
  0
LINE
  8
0
 10
-99.6353
 20
1230
 11
-99.6185
 21
1230.27
  0
LINE
  8
0
 10
-99.6185
 20
1230.27
 11
-99.5682
 21
1230.53
  0
LINE
  8
0
 10
-99.5682
 20
1230.53
 11
-99.4853
 21
1230.79
  0
LINE
  8
0
 10
-99.4853
 20
1230.79
 11
-99.3712
 21
1231.03
  0
LINE
  8
0
 10
-99.3712
 20
1231.03
 11
-99.2275
 21
1231.26
  0
LINE
  8
0
 10
-99.2275
 20
1231.26
 11
-99.0566
 21
1231.46
  0
LINE
  8
0
 10
-99.0566
 20
1231.46
 11
-98.8611
 21
1231.65
  0
LINE
  8
0
 10
-98.8611
 20
1231.65
 11
-98.6441
 21
1231.8
  0
LINE
  8
0
 10
-98.6441
 20
1231.8
 11
-98.4092
 21
1231.93
  0
LINE
  8
0
 10
-98.4092
 20
1231.93
 11
-98.1598
 21
1232.03
  0
LINE
  8
0
 10
-98.1598
 20
1232.03
 11
-97.9001
 21
1232.1
  0
LINE
  8
0
 10
-97.9001
 20
1232.1
 11
-97.6341
 21
1232.13
  0
LINE
  8
0
 10
-97.6341
 20
1232.13
 11
-97.3659
 21
1232.13
  0
LINE
  8
0
 10
-97.3659
 20
1232.13
 11
-97.0999
 21
1232.1
  0
LINE
  8
0
 10
-97.0999
 20
1232.1
 11
-96.8401
 21
1232.03
  0
LINE
  8
0
 10
-96.8401
 20
1232.03
 11
-96.5908
 21
1231.93
  0
LINE
  8
0
 10
-96.5908
 20
1231.93
 11
-96.3559
 21
1231.8
  0
LINE
  8
0
 10
-96.3559
 20
1231.8
 11
-96.1389
 21
1231.65
  0
LINE
  8
0
 10
-96.1389
 20
1231.65
 11
-95.9434
 21
1231.46
  0
LINE
  8
0
 10
-95.9434
 20
1231.46
 11
-95.7725
 21
1231.26
  0
LINE
  8
0
 10
-95.7725
 20
1231.26
 11
-95.6288
 21
1231.03
  0
LINE
  8
0
 10
-95.6288
 20
1231.03
 11
-95.5146
 21
1230.79
  0
LINE
  8
0
 10
-95.5146
 20
1230.79
 11
-95.4318
 21
1230.53
  0
LINE
  8
0
 10
-95.4318
 20
1230.53
 11
-95.3815
 21
1230.27
  0
LINE
  8
0
 10
-95.3815
 20
1230.27
 11
-95.3647
 21
1230
  0
LINE
  8
0
 10
-95.3647
 20
1230
 11
-95.3815
 21
1229.73
  0
LINE
  8
0
 10
-95.3815
 20
1229.73
 11
-95.4318
 21
1229.47
  0
LINE
  8
0
 10
-95.4318
 20
1229.47
 11
-95.5146
 21
1229.21
  0
LINE
  8
0
 10
-95.5146
 20
1229.21
 11
-95.6288
 21
1228.97
  0
LINE
  8
0
 10
-95.6288
 20
1228.97
 11
-95.7725
 21
1228.74
  0
LINE
  8
0
 10
-95.7725
 20
1228.74
 11
-95.9434
 21
1228.54
  0
LINE
  8
0
 10
-95.9434
 20
1228.54
 11
-96.1389
 21
1228.35
  0
LINE
  8
0
 10
-96.1389
 20
1228.35
 11
-96.3559
 21
1228.2
  0
LINE
  8
0
 10
-96.3559
 20
1228.2
 11
-96.5908
 21
1228.07
  0
LINE
  8
0
 10
-96.5908
 20
1228.07
 11
-96.8401
 21
1227.97
  0
LINE
  8
0
 10
-96.8401
 20
1227.97
 11
-97.0999
 21
1227.9
  0
LINE
  8
0
 10
-97.0999
 20
1227.9
 11
-97.3659
 21
1227.87
  0
LINE
  8
0
 10
-97.3659
 20
1227.87
 11
-97.6341
 21
1227.87
  0
LINE
  8
0
 10
97.3659
 20
1227.87
 11
97.0999
 21
1227.9
  0
LINE
  8
0
 10
97.0999
 20
1227.9
 11
96.8401
 21
1227.97
  0
LINE
  8
0
 10
96.8401
 20
1227.97
 11
96.5908
 21
1228.07
  0
LINE
  8
0
 10
96.5908
 20
1228.07
 11
96.3559
 21
1228.2
  0
LINE
  8
0
 10
96.3559
 20
1228.2
 11
96.1389
 21
1228.35
  0
LINE
  8
0
 10
96.1389
 20
1228.35
 11
95.9434
 21
1228.54
  0
LINE
  8
0
 10
95.9434
 20
1228.54
 11
95.7725
 21
1228.74
  0
LINE
  8
0
 10
95.7725
 20
1228.74
 11
95.6288
 21
1228.97
  0
LINE
  8
0
 10
95.6288
 20
1228.97
 11
95.5146
 21
1229.21
  0
LINE
  8
0
 10
95.5146
 20
1229.21
 11
95.4318
 21
1229.47
  0
LINE
  8
0
 10
95.4318
 20
1229.47
 11
95.3815
 21
1229.73
  0
LINE
  8
0
 10
95.3815
 20
1229.73
 11
95.3647
 21
1230
  0
LINE
  8
0
 10
95.3647
 20
1230
 11
95.3815
 21
1230.27
  0
LINE
  8
0
 10
95.3815
 20
1230.27
 11
95.4318
 21
1230.53
  0
LINE
  8
0
 10
95.4318
 20
1230.53
 11
95.5146
 21
1230.79
  0
LINE
  8
0
 10
95.5146
 20
1230.79
 11
95.6288
 21
1231.03
  0
LINE
  8
0
 10
95.6288
 20
1231.03
 11
95.7725
 21
1231.26
  0
LINE
  8
0
 10
95.7725
 20
1231.26
 11
95.9434
 21
1231.46
  0
LINE
  8
0
 10
95.9434
 20
1231.46
 11
96.1389
 21
1231.65
  0
LINE
  8
0
 10
96.1389
 20
1231.65
 11
96.3559
 21
1231.8
  0
LINE
  8
0
 10
96.3559
 20
1231.8
 11
96.5908
 21
1231.93
  0
LINE
  8
0
 10
96.5908
 20
1231.93
 11
96.8401
 21
1232.03
  0
LINE
  8
0
 10
96.8401
 20
1232.03
 11
97.0999
 21
1232.1
  0
LINE
  8
0
 10
97.0999
 20
1232.1
 11
97.3659
 21
1232.13
  0
LINE
  8
0
 10
97.3659
 20
1232.13
 11
97.6341
 21
1232.13
  0
LINE
  8
0
 10
97.6341
 20
1232.13
 11
97.9001
 21
1232.1
  0
LINE
  8
0
 10
97.9001
 20
1232.1
 11
98.1598
 21
1232.03
  0
LINE
  8
0
 10
98.1598
 20
1232.03
 11
98.4092
 21
1231.93
  0
LINE
  8
0
 10
98.4092
 20
1231.93
 11
98.6441
 21
1231.8
  0
LINE
  8
0
 10
98.6441
 20
1231.8
 11
98.8611
 21
1231.65
  0
LINE
  8
0
 10
98.8611
 20
1231.65
 11
99.0566
 21
1231.46
  0
LINE
  8
0
 10
99.0566
 20
1231.46
 11
99.2275
 21
1231.26
  0
LINE
  8
0
 10
99.2275
 20
1231.26
 11
99.3712
 21
1231.03
  0
LINE
  8
0
 10
99.3712
 20
1231.03
 11
99.4853
 21
1230.79
  0
LINE
  8
0
 10
99.4853
 20
1230.79
 11
99.5682
 21
1230.53
  0
LINE
  8
0
 10
99.5682
 20
1230.53
 11
99.6185
 21
1230.27
  0
LINE
  8
0
 10
99.6185
 20
1230.27
 11
99.6353
 21
1230
  0
LINE
  8
0
 10
99.6353
 20
1230
 11
99.6185
 21
1229.73
  0
LINE
  8
0
 10
99.6185
 20
1229.73
 11
99.5682
 21
1229.47
  0
LINE
  8
0
 10
99.5682
 20
1229.47
 11
99.4853
 21
1229.21
  0
LINE
  8
0
 10
99.4853
 20
1229.21
 11
99.3712
 21
1228.97
  0
LINE
  8
0
 10
99.3712
 20
1228.97
 11
99.2275
 21
1228.74
  0
LINE
  8
0
 10
99.2275
 20
1228.74
 11
99.0566
 21
1228.54
  0
LINE
  8
0
 10
99.0566
 20
1228.54
 11
98.8611
 21
1228.35
  0
LINE
  8
0
 10
98.8611
 20
1228.35
 11
98.6441
 21
1228.2
  0
LINE
  8
0
 10
98.6441
 20
1228.2
 11
98.4092
 21
1228.07
  0
LINE
  8
0
 10
98.4092
 20
1228.07
 11
98.1598
 21
1227.97
  0
LINE
  8
0
 10
98.1598
 20
1227.97
 11
97.9001
 21
1227.9
  0
LINE
  8
0
 10
97.9001
 20
1227.9
 11
97.6341
 21
1227.87
  0
LINE
  8
0
 10
97.6341
 20
1227.87
 11
97.3659
 21
1227.87
  0
ENDSEC
  0
SECTION
  2
OBJECTS
  0
DICTIONARY
  0
ENDSEC
  0
EOF
