<?xml version="1.0" standalone="no"?>
<!DOCTYPE svg PUBLIC "-//W3C//DTD SVG 1.1//EN" "http://www.w3.org/Graphics/SVG/1.1/DTD/svg11.dtd">
<svg width="150mm" height="160mm" viewBox="-75 -206 150 160" xmlns="http://www.w3.org/2000/svg" version="1.1">
<title>OpenSCAD Model</title>
<path d="
M 70.9369,-130.589 L 71.5451,-130.745 L 72.1289,-130.976 L 72.6791,-131.278 L 73.1871,-131.647 L 73.6448,-132.077
 L 74.0451,-132.561 L 74.3815,-133.091 L 74.6489,-133.659 L 74.8429,-134.257 L 74.9606,-134.873 L 75,-135.5
 L 75,-200.5 L 74.9606,-201.127 L 74.8429,-201.743 L 74.6489,-202.341 L 74.3815,-202.909 L 74.0451,-203.439
 L 73.6448,-203.923 L 73.1871,-204.353 L 72.6791,-204.722 L 72.1289,-205.024 L 71.5451,-205.255 L 70.9369,-205.411
 L 70.3139,-205.49 L -70.3139,-205.49 L -70.9369,-205.411 L -71.5451,-205.255 L -72.1289,-205.024 L -72.6791,-204.722
 L -73.1871,-204.353 L -73.6448,-203.923 L -74.0451,-203.439 L -74.3815,-202.909 L -74.6489,-202.341 L -74.8429,-201.743
 L -74.9606,-201.127 L -75,-200.5 L -75,-135.5 L -74.9606,-134.873 L -74.8429,-134.257 L -74.6489,-133.659
 L -74.3815,-133.091 L -74.0451,-132.561 L -73.6448,-132.077 L -73.1871,-131.647 L -72.6791,-131.278 L -72.1289,-130.976
 L -71.5451,-130.745 L -70.9369,-130.589 L -70.3139,-130.51 L 70.3139,-130.51 z
M -69.993,-131.888 L -70.4751,-131.949 L -70.9457,-132.07 L -71.3975,-132.249 L -71.8234,-132.483 L -72.2165,-132.769
 L -72.5707,-133.101 L -72.8805,-133.476 L -73.1408,-133.886 L -73.3477,-134.326 L -73.4979,-134.788 L -73.589,-135.265
 L -73.6195,-135.75 L -73.6195,-200.25 L -73.589,-200.735 L -73.4979,-201.212 L -73.3477,-201.674 L -73.1408,-202.114
 L -72.8805,-202.524 L -72.5707,-202.899 L -72.2165,-203.231 L -71.8234,-203.517 L -71.3975,-203.751 L -70.9457,-203.93
 L -70.4751,-204.051 L -69.993,-204.112 L 69.993,-204.112 L 70.4751,-204.051 L 70.9457,-203.93 L 71.3975,-203.751
 L 71.8234,-203.517 L 72.2165,-203.231 L 72.5707,-202.899 L 72.8805,-202.524 L 73.1408,-202.114 L 73.3477,-201.674
 L 73.4979,-201.212 L 73.589,-200.735 L 73.6195,-200.25 L 73.6195,-135.75 L 73.589,-135.265 L 73.4979,-134.788
 L 73.3477,-134.326 L 73.1408,-133.886 L 72.8805,-133.476 L 72.5707,-133.101 L 72.2165,-132.769 L 71.8234,-132.483
 L 71.3975,-132.249 L 70.9457,-132.07 L 70.4751,-131.949 L 69.993,-131.888 z
M 70.9369,-46.5886 L 71.5451,-46.7447 L 72.1289,-46.9759 L 72.6791,-47.2784 L 73.1871,-47.6474 L 73.6448,-48.0773
 L 74.0451,-48.5611 L 74.3815,-49.0912 L 74.6489,-49.6594 L 74.8429,-50.2566 L 74.9606,-50.8733 L 75,-51.5
 L 75,-116.5 L 74.9606,-117.127 L 74.8429,-117.743 L 74.6489,-118.341 L 74.3815,-118.909 L 74.0451,-119.439
 L 73.6448,-119.923 L 73.1871,-120.353 L 72.6791,-120.722 L 72.1289,-121.024 L 71.5451,-121.255 L 70.9369,-121.411
 L 70.3139,-121.49 L -70.3139,-121.49 L -70.9369,-121.411 L -71.5451,-121.255 L -72.1289,-121.024 L -72.6791,-120.722
 L -73.1871,-120.353 L -73.6448,-119.923 L -74.0451,-119.439 L -74.3815,-118.909 L -74.6489,-118.341 L -74.8429,-117.743
 L -74.9606,-117.127 L -75,-116.5 L -75,-51.5 L -74.9606,-50.8733 L -74.8429,-50.2566 L -74.6489,-49.6594
 L -74.3815,-49.0912 L -74.0451,-48.5611 L -73.6448,-48.0773 L -73.1871,-47.6474 L -72.6791,-47.2784 L -72.1289,-46.9759
 L -71.5451,-46.7447 L -70.9369,-46.5886 L -70.3139,-46.5099 L 70.3139,-46.5099 z
M 67.387,-112.204 L 67.1627,-112.232 L 66.9438,-112.288 L 66.7336,-112.371 L 66.5355,-112.48 L 66.3526,-112.613
 L 66.1879,-112.768 L 66.0438,-112.942 L 65.9226,-113.133 L 65.8264,-113.337 L 65.7565,-113.552 L 65.7142,-113.774
 L 65.7,-114 L 65.7142,-114.226 L 65.7565,-114.448 L 65.8264,-114.663 L 65.9226,-114.867 L 66.0438,-115.058
 L 66.1879,-115.232 L 66.3526,-115.387 L 66.5355,-115.52 L 66.7336,-115.629 L 66.9438,-115.712 L 67.1627,-115.768
 L 67.387,-115.796 L 67.613,-115.796 L 67.8373,-115.768 L 68.0562,-115.712 L 68.2664,-115.629 L 68.4645,-115.52
 L 68.6474,-115.387 L 68.8121,-115.232 L 68.9562,-115.058 L 69.0773,-114.867 L 69.1736,-114.663 L 69.2434,-114.448
 L 69.2858,-114.226 L 69.3,-114 L 69.2858,-113.774 L 69.2434,-113.552 L 69.1736,-113.337 L 69.0773,-113.133
 L 68.9562,-112.942 L 68.8121,-112.768 L 68.6474,-112.613 L 68.4645,-112.48 L 68.2664,-112.371 L 68.0562,-112.288
 L 67.8373,-112.232 L 67.613,-112.204 z
M -67.613,-112.204 L -67.8373,-112.232 L -68.0562,-112.288 L -68.2664,-112.371 L -68.4645,-112.48 L -68.6474,-112.613
 L -68.8121,-112.768 L -68.9562,-112.942 L -69.0773,-113.133 L -69.1736,-113.337 L -69.2434,-113.552 L -69.2858,-113.774
 L -69.3,-114 L -69.2858,-114.226 L -69.2434,-114.448 L -69.1736,-114.663 L -69.0773,-114.867 L -68.9562,-115.058
 L -68.8121,-115.232 L -68.6474,-115.387 L -68.4645,-115.52 L -68.2664,-115.629 L -68.0562,-115.712 L -67.8373,-115.768
 L -67.613,-115.796 L -67.387,-115.796 L -67.1627,-115.768 L -66.9438,-115.712 L -66.7336,-115.629 L -66.5355,-115.52
 L -66.3526,-115.387 L -66.1879,-115.232 L -66.0438,-115.058 L -65.9226,-114.867 L -65.8264,-114.663 L -65.7565,-114.448
 L -65.7142,-114.226 L -65.7,-114 L -65.7142,-113.774 L -65.7565,-113.552 L -65.8264,-113.337 L -65.9226,-113.133
 L -66.0438,-112.942 L -66.1879,-112.768 L -66.3526,-112.613 L -66.5355,-112.48 L -66.7336,-112.371 L -66.9438,-112.288
 L -67.1627,-112.232 L -67.387,-112.204 z
M 67.387,-52.2036 L 67.1627,-52.2319 L 66.9438,-52.2881 L 66.7336,-52.3713 L 66.5355,-52.4802 L 66.3526,-52.6131
 L 66.1879,-52.7678 L 66.0438,-52.942 L 65.9226,-53.1328 L 65.8264,-53.3374 L 65.7565,-53.5524 L 65.7142,-53.7744
 L 65.7,-54 L 65.7142,-54.2256 L 65.7565,-54.4476 L 65.8264,-54.6626 L 65.9226,-54.8672 L 66.0438,-55.058
 L 66.1879,-55.2322 L 66.3526,-55.3869 L 66.5355,-55.5198 L 66.7336,-55.6287 L 66.9438,-55.7119 L 67.1627,-55.7681
 L 67.387,-55.7964 L 67.613,-55.7964 L 67.8373,-55.7681 L 68.0562,-55.7119 L 68.2664,-55.6287 L 68.4645,-55.5198
 L 68.6474,-55.3869 L 68.8121,-55.2322 L 68.9562,-55.058 L 69.0773,-54.8672 L 69.1736,-54.6626 L 69.2434,-54.4476
 L 69.2858,-54.2256 L 69.3,-54 L 69.2858,-53.7744 L 69.2434,-53.5524 L 69.1736,-53.3374 L 69.0773,-53.1328
 L 68.9562,-52.942 L 68.8121,-52.7678 L 68.6474,-52.6131 L 68.4645,-52.4802 L 68.2664,-52.3713 L 68.0562,-52.2881
 L 67.8373,-52.2319 L 67.613,-52.2036 z
M -67.613,-52.2036 L -67.8373,-52.2319 L -68.0562,-52.2881 L -68.2664,-52.3713 L -68.4645,-52.4802 L -68.6474,-52.6131
 L -68.8121,-52.7678 L -68.9562,-52.942 L -69.0773,-53.1328 L -69.1736,-53.3374 L -69.2434,-53.5524 L -69.2858,-53.7744
 L -69.3,-54 L -69.2858,-54.2256 L -69.2434,-54.4476 L -69.1736,-54.6626 L -69.0773,-54.8672 L -68.9562,-55.058
 L -68.8121,-55.2322 L -68.6474,-55.3869 L -68.4645,-55.5198 L -68.2664,-55.6287 L -68.0562,-55.7119 L -67.8373,-55.7681
 L -67.613,-55.7964 L -67.387,-55.7964 L -67.1627,-55.7681 L -66.9438,-55.7119 L -66.7336,-55.6287 L -66.5355,-55.5198
 L -66.3526,-55.3869 L -66.1879,-55.2322 L -66.0438,-55.058 L -65.9226,-54.8672 L -65.8264,-54.6626 L -65.7565,-54.4476
 L -65.7142,-54.2256 L -65.7,-54 L -65.7142,-53.7744 L -65.7565,-53.5524 L -65.8264,-53.3374 L -65.9226,-53.1328
 L -66.0438,-52.942 L -66.1879,-52.7678 L -66.3526,-52.6131 L -66.5355,-52.4802 L -66.7336,-52.3713 L -66.9438,-52.2881
 L -67.1627,-52.2319 L -67.387,-52.2036 z
" stroke="black" fill="lightgray" stroke-width="0.5"/>
</svg>
