<?xml version="1.0" standalone="no"?>
<!DOCTYPE svg PUBLIC "-//W3C//DTD SVG 1.1//EN" "http://www.w3.org/Graphics/SVG/1.1/DTD/svg11.dtd">
<svg width="136mm" height="85mm" viewBox="-68 -106 136 85" xmlns="http://www.w3.org/2000/svg" version="1.1">
<title>OpenSCAD Model</title>
<path d="
M -64.5,-83.6748 L -64.0451,-83.4947 L -63.4369,-83.3386 L -62.8139,-83.2599 L 62.8139,-83.2599 L 63.4369,-83.3386
 L 64.0451,-83.4947 L 64.6289,-83.7259 L 65.1791,-84.0284 L 65.6871,-84.3974 L 66.1448,-84.8273 L 66.5451,-85.3111
 L 66.8815,-85.8412 L 67.1489,-86.4094 L 67.3429,-87.0066 L 67.4606,-87.6233 L 67.5,-88.25 L 67.5,-100.75
 L 67.4606,-101.377 L 67.3429,-101.993 L 67.1489,-102.591 L 66.8815,-103.159 L 66.5451,-103.689 L 66.1448,-104.173
 L 65.6871,-104.603 L 65.1791,-104.972 L 64.6289,-105.274 L 64.0451,-105.505 L 63.4369,-105.661 L 62.8139,-105.74
 L -62.8139,-105.74 L -63.4369,-105.661 L -64.0451,-105.505 L -64.5,-105.325 L -64.5,-105.74 L -67.5,-105.74
 L -67.5,-83.2599 L -64.5,-83.2599 z
M -62.1954,-85.6432 L -62.5833,-85.6922 L -62.9619,-85.7894 L -63.3254,-85.9333 L -63.668,-86.1217 L -63.9842,-86.3515
 L -64.2692,-86.6191 L -64.5184,-86.9203 L -64.7279,-87.2504 L -64.8943,-87.6041 L -65.0151,-87.9759 L -65.0884,-88.3598
 L -65.1129,-88.75 L -65.1129,-100.25 L -65.0884,-100.64 L -65.0151,-101.024 L -64.8943,-101.396 L -64.7279,-101.75
 L -64.5184,-102.08 L -64.2692,-102.381 L -63.9842,-102.649 L -63.668,-102.878 L -63.3254,-103.067 L -62.9619,-103.211
 L -62.5833,-103.308 L -62.1954,-103.357 L 62.1954,-103.357 L 62.5833,-103.308 L 62.9619,-103.211 L 63.3254,-103.067
 L 63.668,-102.878 L 63.9842,-102.649 L 64.2692,-102.381 L 64.5184,-102.08 L 64.7279,-101.75 L 64.8943,-101.396
 L 65.0151,-101.024 L 65.0884,-100.64 L 65.1129,-100.25 L 65.1129,-88.75 L 65.0884,-88.3598 L 65.0151,-87.9759
 L 64.8943,-87.6041 L 64.7279,-87.2504 L 64.5184,-86.9203 L 64.2692,-86.6191 L 63.9842,-86.3515 L 63.668,-86.1217
 L 63.3254,-85.9333 L 62.9619,-85.7894 L 62.5833,-85.6922 L 62.1954,-85.6432 z
M 63.4369,-51.8386 L 64.0451,-51.9947 L 64.6289,-52.2259 L 65.1791,-52.5284 L 65.6871,-52.8974 L 66.1448,-53.3273
 L 66.5451,-53.8111 L 66.8815,-54.3412 L 67.1489,-54.9094 L 67.3429,-55.5066 L 67.4606,-56.1233 L 67.5,-56.75
 L 67.5,-69.25 L 67.4606,-69.8767 L 67.3429,-70.4934 L 67.1489,-71.0906 L 66.8815,-71.6588 L 66.5451,-72.1889
 L 66.1448,-72.6727 L 65.6871,-73.1026 L 65.1791,-73.4716 L 64.6289,-73.7741 L 64.0451,-74.0053 L 63.4369,-74.1614
 L 62.8139,-74.2401 L -62.8139,-74.2401 L -63.4369,-74.1614 L -64.0451,-74.0053 L -64.5,-73.8252 L -64.5,-74.2293
 L -67.5,-74.2293 L -67.5,-51.7707 L -64.5,-51.7707 L -64.5,-52.1748 L -64.0451,-51.9947 L -63.4369,-51.8386
 L -62.8139,-51.7599 L 62.8139,-51.7599 z
M 59.8659,-64.6189 L 59.5999,-64.6525 L 59.3401,-64.7192 L 59.0908,-64.8179 L 58.8559,-64.9471 L 58.6389,-65.1047
 L 58.4434,-65.2883 L 58.2725,-65.4949 L 58.1288,-65.7213 L 58.0146,-65.9639 L 57.9318,-66.219 L 57.8815,-66.4824
 L 57.8647,-66.75 L 57.8815,-67.0176 L 57.9318,-67.281 L 58.0146,-67.536 L 58.1288,-67.7787 L 58.2725,-68.0051
 L 58.4434,-68.2117 L 58.6389,-68.3953 L 58.8559,-68.5529 L 59.0908,-68.6821 L 59.3401,-68.7808 L 59.5999,-68.8475
 L 59.8659,-68.8811 L 60.1341,-68.8811 L 60.4001,-68.8475 L 60.6598,-68.7808 L 60.9092,-68.6821 L 61.1441,-68.5529
 L 61.3611,-68.3953 L 61.5565,-68.2117 L 61.7275,-68.0051 L 61.8712,-67.7787 L 61.9853,-67.536 L 62.0682,-67.281
 L 62.1185,-67.0176 L 62.1353,-66.75 L 62.1185,-66.4824 L 62.0682,-66.219 L 61.9853,-65.9639 L 61.8712,-65.7213
 L 61.7275,-65.4949 L 61.5565,-65.2883 L 61.3611,-65.1047 L 61.1441,-64.9471 L 60.9092,-64.8179 L 60.6598,-64.7192
 L 60.4001,-64.6525 L 60.1341,-64.6189 z
M -60.1341,-64.6189 L -60.4001,-64.6525 L -60.6598,-64.7192 L -60.9092,-64.8179 L -61.1441,-64.9471 L -61.3611,-65.1047
 L -61.5565,-65.2883 L -61.7275,-65.4949 L -61.8712,-65.7213 L -61.9853,-65.9639 L -62.0682,-66.219 L -62.1185,-66.4824
 L -62.1353,-66.75 L -62.1185,-67.0176 L -62.0682,-67.281 L -61.9853,-67.536 L -61.8712,-67.7787 L -61.7275,-68.0051
 L -61.5565,-68.2117 L -61.3611,-68.3953 L -61.1441,-68.5529 L -60.9092,-68.6821 L -60.6598,-68.7808 L -60.4001,-68.8475
 L -60.1341,-68.8811 L -59.8659,-68.8811 L -59.5999,-68.8475 L -59.3401,-68.7808 L -59.0908,-68.6821 L -58.8559,-68.5529
 L -58.6389,-68.3953 L -58.4434,-68.2117 L -58.2725,-68.0051 L -58.1288,-67.7787 L -58.0146,-67.536 L -57.9318,-67.281
 L -57.8815,-67.0176 L -57.8647,-66.75 L -57.8815,-66.4824 L -57.9318,-66.219 L -58.0146,-65.9639 L -58.1288,-65.7213
 L -58.2725,-65.4949 L -58.4434,-65.2883 L -58.6389,-65.1047 L -58.8559,-64.9471 L -59.0908,-64.8179 L -59.3401,-64.7192
 L -59.5999,-64.6525 L -59.8659,-64.6189 z
M 59.8659,-57.1189 L 59.5999,-57.1525 L 59.3401,-57.2192 L 59.0908,-57.3179 L 58.8559,-57.4471 L 58.6389,-57.6047
 L 58.4434,-57.7883 L 58.2725,-57.9949 L 58.1288,-58.2213 L 58.0146,-58.464 L 57.9318,-58.719 L 57.8815,-58.9824
 L 57.8647,-59.25 L 57.8815,-59.5176 L 57.9318,-59.781 L 58.0146,-60.0361 L 58.1288,-60.2787 L 58.2725,-60.5051
 L 58.4434,-60.7117 L 58.6389,-60.8953 L 58.8559,-61.0529 L 59.0908,-61.1821 L 59.3401,-61.2808 L 59.5999,-61.3475
 L 59.8659,-61.3811 L 60.1341,-61.3811 L 60.4001,-61.3475 L 60.6598,-61.2808 L 60.9092,-61.1821 L 61.1441,-61.0529
 L 61.3611,-60.8953 L 61.5565,-60.7117 L 61.7275,-60.5051 L 61.8712,-60.2787 L 61.9853,-60.0361 L 62.0682,-59.781
 L 62.1185,-59.5176 L 62.1353,-59.25 L 62.1185,-58.9824 L 62.0682,-58.719 L 61.9853,-58.464 L 61.8712,-58.2213
 L 61.7275,-57.9949 L 61.5565,-57.7883 L 61.3611,-57.6047 L 61.1441,-57.4471 L 60.9092,-57.3179 L 60.6598,-57.2192
 L 60.4001,-57.1525 L 60.1341,-57.1189 z
M -60.1341,-57.1189 L -60.4001,-57.1525 L -60.6598,-57.2192 L -60.9092,-57.3179 L -61.1441,-57.4471 L -61.3611,-57.6047
 L -61.5565,-57.7883 L -61.7275,-57.9949 L -61.8712,-58.2213 L -61.9853,-58.464 L -62.0682,-58.719 L -62.1185,-58.9824
 L -62.1353,-59.25 L -62.1185,-59.5176 L -62.0682,-59.781 L -61.9853,-60.0361 L -61.8712,-60.2787 L -61.7275,-60.5051
 L -61.5565,-60.7117 L -61.3611,-60.8953 L -61.1441,-61.0529 L -60.9092,-61.1821 L -60.6598,-61.2808 L -60.4001,-61.3475
 L -60.1341,-61.3811 L -59.8659,-61.3811 L -59.5999,-61.3475 L -59.3401,-61.2808 L -59.0908,-61.1821 L -58.8559,-61.0529
 L -58.6389,-60.8953 L -58.4434,-60.7117 L -58.2725,-60.5051 L -58.1288,-60.2787 L -58.0146,-60.0361 L -57.9318,-59.781
 L -57.8815,-59.5176 L -57.8647,-59.25 L -57.8815,-58.9824 L -57.9318,-58.719 L -58.0146,-58.464 L -58.1288,-58.2213
 L -58.2725,-57.9949 L -58.4434,-57.7883 L -58.6389,-57.6047 L -58.8559,-57.4471 L -59.0908,-57.3179 L -59.3401,-57.2192
 L -59.5999,-57.1525 L -59.8659,-57.1189 z
M -64.5,-41.4026 L -67.5,-41.4026 L -67.5,-21.5974 L -64.5,-21.5974 z
" stroke="black" fill="lightgray" stroke-width="0.5"/>
</svg>
