<?xml version="1.0" standalone="no"?>
<!DOCTYPE svg PUBLIC "-//W3C//DTD SVG 1.1//EN" "http://www.w3.org/Graphics/SVG/1.1/DTD/svg11.dtd">
<svg width="90mm" height="918mm" viewBox="-45 -1695 90 918" xmlns="http://www.w3.org/2000/svg" version="1.1">
<title>OpenSCAD Model</title>
<path d="
M 40.9369,-1395.09 L 41.5451,-1395.24 L 42.1289,-1395.48 L 42.6791,-1395.78 L 43.1871,-1396.15 L 43.6448,-1396.58
 L 44.0451,-1397.06 L 44.3815,-1397.59 L 44.6489,-1398.16 L 44.8429,-1398.76 L 44.9606,-1399.37 L 45,-1400
 L 45,-1690 L 44.9606,-1690.63 L 44.8429,-1691.24 L 44.6489,-1691.84 L 44.3815,-1692.41 L 44.0451,-1692.94
 L 43.6448,-1693.42 L 43.1871,-1693.85 L 42.6791,-1694.22 L 42.1289,-1694.52 L 41.5451,-1694.76 L 40.9369,-1694.91
 L 40.3139,-1694.99 L -40.3139,-1694.99 L -40.9369,-1694.91 L -41.5451,-1694.76 L -42.1289,-1694.52 L -42.6791,-1694.22
 L -43.1871,-1693.85 L -43.6448,-1693.42 L -44.0451,-1692.94 L -44.3815,-1692.41 L -44.6489,-1691.84 L -44.8429,-1691.24
 L -44.9606,-1690.63 L -45,-1690 L -45,-1400 L -44.9606,-1399.37 L -44.8429,-1398.76 L -44.6489,-1398.16
 L -44.3815,-1397.59 L -44.0451,-1397.06 L -43.6448,-1396.58 L -43.1871,-1396.15 L -42.6791,-1395.78 L -42.1289,-1395.48
 L -41.5451,-1395.24 L -40.9369,-1395.09 L -40.3139,-1395.01 L 40.3139,-1395.01 z
M -39.7512,-1396.51 L -40.2495,-1396.57 L -40.7361,-1396.7 L -41.2031,-1396.88 L -41.6433,-1397.12 L -42.0497,-1397.42
 L -42.4159,-1397.76 L -42.7361,-1398.15 L -43.0052,-1398.57 L -43.2191,-1399.03 L -43.3743,-1399.51 L -43.4685,-1400
 L -43.5,-1400.5 L -43.5,-1689.5 L -43.4685,-1690 L -43.3743,-1690.49 L -43.2191,-1690.97 L -43.0052,-1691.43
 L -42.7361,-1691.85 L -42.4159,-1692.24 L -42.0497,-1692.58 L -41.6433,-1692.88 L -41.2031,-1693.12 L -40.7361,-1693.3
 L -40.2495,-1693.43 L -39.7512,-1693.49 L 39.7512,-1693.49 L 40.2495,-1693.43 L 40.7361,-1693.3 L 41.2031,-1693.12
 L 41.6433,-1692.88 L 42.0497,-1692.58 L 42.4159,-1692.24 L 42.7361,-1691.85 L 43.0052,-1691.43 L 43.2191,-1690.97
 L 43.3743,-1690.49 L 43.4685,-1690 L 43.5,-1689.5 L 43.5,-1400.5 L 43.4685,-1400 L 43.3743,-1399.51
 L 43.2191,-1399.03 L 43.0052,-1398.57 L 42.7361,-1398.15 L 42.4159,-1397.76 L 42.0497,-1397.42 L 41.6433,-1397.12
 L 41.2031,-1396.88 L 40.7361,-1396.7 L 40.2495,-1396.57 L 39.7512,-1396.51 z
M 40.9369,-1086.09 L 41.5451,-1086.24 L 42.1289,-1086.48 L 42.6791,-1086.78 L 43.1871,-1087.15 L 43.6448,-1087.58
 L 44.0451,-1088.06 L 44.3815,-1088.59 L 44.6489,-1089.16 L 44.8429,-1089.76 L 44.9606,-1090.37 L 45,-1091
 L 45,-1381 L 44.9606,-1381.63 L 44.8429,-1382.24 L 44.6489,-1382.84 L 44.3815,-1383.41 L 44.0451,-1383.94
 L 43.6448,-1384.42 L 43.1871,-1384.85 L 42.6791,-1385.22 L 42.1289,-1385.52 L 41.5451,-1385.76 L 40.9369,-1385.91
 L 40.3139,-1385.99 L -40.3139,-1385.99 L -40.9369,-1385.91 L -41.5451,-1385.76 L -42.1289,-1385.52 L -42.6791,-1385.22
 L -43.1871,-1384.85 L -43.6448,-1384.42 L -44.0451,-1383.94 L -44.3815,-1383.41 L -44.6489,-1382.84 L -44.8429,-1382.24
 L -44.9606,-1381.63 L -45,-1381 L -45,-1091 L -44.9606,-1090.37 L -44.8429,-1089.76 L -44.6489,-1089.16
 L -44.3815,-1088.59 L -44.0451,-1088.06 L -43.6448,-1087.58 L -43.1871,-1087.15 L -42.6791,-1086.78 L -42.1289,-1086.48
 L -41.5451,-1086.24 L -40.9369,-1086.09 L -40.3139,-1086.01 L 40.3139,-1086.01 z
M -39.6954,-1088.39 L -40.0833,-1088.44 L -40.4619,-1088.54 L -40.8254,-1088.68 L -41.168,-1088.87 L -41.4842,-1089.1
 L -41.7692,-1089.37 L -42.0184,-1089.67 L -42.2279,-1090 L -42.3943,-1090.35 L -42.5151,-1090.73 L -42.5884,-1091.11
 L -42.6129,-1091.5 L -42.6129,-1380.5 L -42.5884,-1380.89 L -42.5151,-1381.27 L -42.3943,-1381.65 L -42.2279,-1382
 L -42.0184,-1382.33 L -41.7692,-1382.63 L -41.4842,-1382.9 L -41.168,-1383.13 L -40.8254,-1383.32 L -40.4619,-1383.46
 L -40.0833,-1383.56 L -39.6954,-1383.61 L 39.6954,-1383.61 L 40.0833,-1383.56 L 40.4619,-1383.46 L 40.8254,-1383.32
 L 41.168,-1383.13 L 41.4842,-1382.9 L 41.7692,-1382.63 L 42.0184,-1382.33 L 42.2279,-1382 L 42.3943,-1381.65
 L 42.5151,-1381.27 L 42.5884,-1380.89 L 42.6129,-1380.5 L 42.6129,-1091.5 L 42.5884,-1091.11 L 42.5151,-1090.73
 L 42.3943,-1090.35 L 42.2279,-1090 L 42.0184,-1089.67 L 41.7692,-1089.37 L 41.4842,-1089.1 L 41.168,-1088.87
 L 40.8254,-1088.68 L 40.4619,-1088.54 L 40.0833,-1088.44 L 39.6954,-1088.39 z
M 40.9369,-777.089 L 41.5451,-777.245 L 42.1289,-777.476 L 42.6791,-777.778 L 43.1871,-778.147 L 43.6448,-778.577
 L 44.0451,-779.061 L 44.3815,-779.591 L 44.6489,-780.159 L 44.8429,-780.757 L 44.9606,-781.373 L 45,-782
 L 45,-1072 L 44.9606,-1072.63 L 44.8429,-1073.24 L 44.6489,-1073.84 L 44.3815,-1074.41 L 44.0451,-1074.94
 L 43.6448,-1075.42 L 43.1871,-1075.85 L 42.6791,-1076.22 L 42.1289,-1076.52 L 41.5451,-1076.76 L 40.9369,-1076.91
 L 40.3139,-1076.99 L -40.3139,-1076.99 L -40.9369,-1076.91 L -41.5451,-1076.76 L -42.1289,-1076.52 L -42.6791,-1076.22
 L -43.1871,-1075.85 L -43.6448,-1075.42 L -44.0451,-1074.94 L -44.3815,-1074.41 L -44.6489,-1073.84 L -44.8429,-1073.24
 L -44.9606,-1072.63 L -45,-1072 L -45,-782 L -44.9606,-781.373 L -44.8429,-780.757 L -44.6489,-780.159
 L -44.3815,-779.591 L -44.0451,-779.061 L -43.6448,-778.577 L -43.1871,-778.147 L -42.6791,-777.778 L -42.1289,-777.476
 L -41.5451,-777.245 L -40.9369,-777.089 L -40.3139,-777.01 L 40.3139,-777.01 z
M 37.3659,-1067.37 L 37.0999,-1067.4 L 36.8401,-1067.47 L 36.5908,-1067.57 L 36.3559,-1067.7 L 36.1389,-1067.85
 L 35.9434,-1068.04 L 35.7725,-1068.24 L 35.6288,-1068.47 L 35.5146,-1068.71 L 35.4318,-1068.97 L 35.3815,-1069.23
 L 35.3647,-1069.5 L 35.3815,-1069.77 L 35.4318,-1070.03 L 35.5146,-1070.29 L 35.6288,-1070.53 L 35.7725,-1070.76
 L 35.9434,-1070.96 L 36.1389,-1071.15 L 36.3559,-1071.3 L 36.5908,-1071.43 L 36.8401,-1071.53 L 37.0999,-1071.6
 L 37.3659,-1071.63 L 37.6341,-1071.63 L 37.9001,-1071.6 L 38.1598,-1071.53 L 38.4092,-1071.43 L 38.6441,-1071.3
 L 38.8611,-1071.15 L 39.0565,-1070.96 L 39.2275,-1070.76 L 39.3712,-1070.53 L 39.4853,-1070.29 L 39.5682,-1070.03
 L 39.6185,-1069.77 L 39.6353,-1069.5 L 39.6185,-1069.23 L 39.5682,-1068.97 L 39.4853,-1068.71 L 39.3712,-1068.47
 L 39.2275,-1068.24 L 39.0565,-1068.04 L 38.8611,-1067.85 L 38.6441,-1067.7 L 38.4092,-1067.57 L 38.1598,-1067.47
 L 37.9001,-1067.4 L 37.6341,-1067.37 z
M -37.6341,-1067.37 L -37.9001,-1067.4 L -38.1598,-1067.47 L -38.4092,-1067.57 L -38.6441,-1067.7 L -38.8611,-1067.85
 L -39.0565,-1068.04 L -39.2275,-1068.24 L -39.3712,-1068.47 L -39.4853,-1068.71 L -39.5682,-1068.97 L -39.6185,-1069.23
 L -39.6353,-1069.5 L -39.6185,-1069.77 L -39.5682,-1070.03 L -39.4853,-1070.29 L -39.3712,-1070.53 L -39.2275,-1070.76
 L -39.0565,-1070.96 L -38.8611,-1071.15 L -38.6441,-1071.3 L -38.4092,-1071.43 L -38.1598,-1071.53 L -37.9001,-1071.6
 L -37.6341,-1071.63 L -37.3659,-1071.63 L -37.0999,-1071.6 L -36.8401,-1071.53 L -36.5908,-1071.43 L -36.3559,-1071.3
 L -36.1389,-1071.15 L -35.9434,-1070.96 L -35.7725,-1070.76 L -35.6288,-1070.53 L -35.5146,-1070.29 L -35.4318,-1070.03
 L -35.3815,-1069.77 L -35.3647,-1069.5 L -35.3815,-1069.23 L -35.4318,-1068.97 L -35.5146,-1068.71 L -35.6288,-1068.47
 L -35.7725,-1068.24 L -35.9434,-1068.04 L -36.1389,-1067.85 L -36.3559,-1067.7 L -36.5908,-1067.57 L -36.8401,-1067.47
 L -37.0999,-1067.4 L -37.3659,-1067.37 z
M 37.3659,-782.369 L 37.0999,-782.403 L 36.8401,-782.469 L 36.5908,-782.568 L 36.3559,-782.697 L 36.1389,-782.855
 L 35.9434,-783.038 L 35.7725,-783.245 L 35.6288,-783.471 L 35.5146,-783.714 L 35.4318,-783.969 L 35.3815,-784.232
 L 35.3647,-784.5 L 35.3815,-784.768 L 35.4318,-785.031 L 35.5146,-785.286 L 35.6288,-785.529 L 35.7725,-785.755
 L 35.9434,-785.962 L 36.1389,-786.145 L 36.3559,-786.303 L 36.5908,-786.432 L 36.8401,-786.531 L 37.0999,-786.597
 L 37.3659,-786.631 L 37.6341,-786.631 L 37.9001,-786.597 L 38.1598,-786.531 L 38.4092,-786.432 L 38.6441,-786.303
 L 38.8611,-786.145 L 39.0565,-785.962 L 39.2275,-785.755 L 39.3712,-785.529 L 39.4853,-785.286 L 39.5682,-785.031
 L 39.6185,-784.768 L 39.6353,-784.5 L 39.6185,-784.232 L 39.5682,-783.969 L 39.4853,-783.714 L 39.3712,-783.471
 L 39.2275,-783.245 L 39.0565,-783.038 L 38.8611,-782.855 L 38.6441,-782.697 L 38.4092,-782.568 L 38.1598,-782.469
 L 37.9001,-782.403 L 37.6341,-782.369 z
M -37.6341,-782.369 L -37.9001,-782.403 L -38.1598,-782.469 L -38.4092,-782.568 L -38.6441,-782.697 L -38.8611,-782.855
 L -39.0565,-783.038 L -39.2275,-783.245 L -39.3712,-783.471 L -39.4853,-783.714 L -39.5682,-783.969 L -39.6185,-784.232
 L -39.6353,-784.5 L -39.6185,-784.768 L -39.5682,-785.031 L -39.4853,-785.286 L -39.3712,-785.529 L -39.2275,-785.755
 L -39.0565,-785.962 L -38.8611,-786.145 L -38.6441,-786.303 L -38.4092,-786.432 L -38.1598,-786.531 L -37.9001,-786.597
 L -37.6341,-786.631 L -37.3659,-786.631 L -37.0999,-786.597 L -36.8401,-786.531 L -36.5908,-786.432 L -36.3559,-786.303
 L -36.1389,-786.145 L -35.9434,-785.962 L -35.7725,-785.755 L -35.6288,-785.529 L -35.5146,-785.286 L -35.4318,-785.031
 L -35.3815,-784.768 L -35.3647,-784.5 L -35.3815,-784.232 L -35.4318,-783.969 L -35.5146,-783.714 L -35.6288,-783.471
 L -35.7725,-783.245 L -35.9434,-783.038 L -36.1389,-782.855 L -36.3559,-782.697 L -36.5908,-782.568 L -36.8401,-782.469
 L -37.0999,-782.403 L -37.3659,-782.369 z
" stroke="black" fill="lightgray" stroke-width="0.5"/>
</svg>
