  0
SECTION
  2
BLOCKS
  0
ENDSEC
  0
SECTION
  2
ENTITIES
  0
LINE
  8
0
 10
40.9369
 20
2376.09
 11
41.5451
 21
2376.24
  0
LINE
  8
0
 10
41.5451
 20
2376.24
 11
42.1289
 21
2376.48
  0
LINE
  8
0
 10
42.1289
 20
2376.48
 11
42.6791
 21
2376.78
  0
LINE
  8
0
 10
42.6791
 20
2376.78
 11
43.1871
 21
2377.15
  0
LINE
  8
0
 10
43.1871
 20
2377.15
 11
43.6448
 21
2377.58
  0
LINE
  8
0
 10
43.6448
 20
2377.58
 11
44.0451
 21
2378.06
  0
LINE
  8
0
 10
44.0451
 20
2378.06
 11
44.3815
 21
2378.59
  0
LINE
  8
0
 10
44.3815
 20
2378.59
 11
44.6489
 21
2379.16
  0
LINE
  8
0
 10
44.6489
 20
2379.16
 11
44.8429
 21
2379.76
  0
LINE
  8
0
 10
44.8429
 20
2379.76
 11
44.9606
 21
2380.37
  0
LINE
  8
0
 10
44.9606
 20
2380.37
 11
45
 21
2381
  0
LINE
  8
0
 10
45
 20
2381
 11
45
 21
2641
  0
LINE
  8
0
 10
45
 20
2641
 11
44.9606
 21
2641.63
  0
LINE
  8
0
 10
44.9606
 20
2641.63
 11
44.8429
 21
2642.24
  0
LINE
  8
0
 10
44.8429
 20
2642.24
 11
44.6489
 21
2642.84
  0
LINE
  8
0
 10
44.6489
 20
2642.84
 11
44.3815
 21
2643.41
  0
LINE
  8
0
 10
44.3815
 20
2643.41
 11
44.0451
 21
2643.94
  0
LINE
  8
0
 10
44.0451
 20
2643.94
 11
43.6448
 21
2644.42
  0
LINE
  8
0
 10
43.6448
 20
2644.42
 11
43.1871
 21
2644.85
  0
LINE
  8
0
 10
43.1871
 20
2644.85
 11
42.6791
 21
2645.22
  0
LINE
  8
0
 10
42.6791
 20
2645.22
 11
42.1289
 21
2645.52
  0
LINE
  8
0
 10
42.1289
 20
2645.52
 11
41.5451
 21
2645.76
  0
LINE
  8
0
 10
41.5451
 20
2645.76
 11
40.9369
 21
2645.91
  0
LINE
  8
0
 10
40.9369
 20
2645.91
 11
40.3139
 21
2645.99
  0
LINE
  8
0
 10
40.3139
 20
2645.99
 11
-40.3139
 21
2645.99
  0
LINE
  8
0
 10
-40.3139
 20
2645.99
 11
-40.9369
 21
2645.91
  0
LINE
  8
0
 10
-40.9369
 20
2645.91
 11
-41.5451
 21
2645.76
  0
LINE
  8
0
 10
-41.5451
 20
2645.76
 11
-42.1289
 21
2645.52
  0
LINE
  8
0
 10
-42.1289
 20
2645.52
 11
-42.6791
 21
2645.22
  0
LINE
  8
0
 10
-42.6791
 20
2645.22
 11
-43.1871
 21
2644.85
  0
LINE
  8
0
 10
-43.1871
 20
2644.85
 11
-43.6448
 21
2644.42
  0
LINE
  8
0
 10
-43.6448
 20
2644.42
 11
-44.0451
 21
2643.94
  0
LINE
  8
0
 10
-44.0451
 20
2643.94
 11
-44.3815
 21
2643.41
  0
LINE
  8
0
 10
-44.3815
 20
2643.41
 11
-44.6489
 21
2642.84
  0
LINE
  8
0
 10
-44.6489
 20
2642.84
 11
-44.8429
 21
2642.24
  0
LINE
  8
0
 10
-44.8429
 20
2642.24
 11
-44.9606
 21
2641.63
  0
LINE
  8
0
 10
-44.9606
 20
2641.63
 11
-45
 21
2641
  0
LINE
  8
0
 10
-45
 20
2641
 11
-45
 21
2381
  0
LINE
  8
0
 10
-45
 20
2381
 11
-44.9606
 21
2380.37
  0
LINE
  8
0
 10
-44.9606
 20
2380.37
 11
-44.8429
 21
2379.76
  0
LINE
  8
0
 10
-44.8429
 20
2379.76
 11
-44.6489
 21
2379.16
  0
LINE
  8
0
 10
-44.6489
 20
2379.16
 11
-44.3815
 21
2378.59
  0
LINE
  8
0
 10
-44.3815
 20
2378.59
 11
-44.0451
 21
2378.06
  0
LINE
  8
0
 10
-44.0451
 20
2378.06
 11
-43.6448
 21
2377.58
  0
LINE
  8
0
 10
-43.6448
 20
2377.58
 11
-43.1871
 21
2377.15
  0
LINE
  8
0
 10
-43.1871
 20
2377.15
 11
-42.6791
 21
2376.78
  0
LINE
  8
0
 10
-42.6791
 20
2376.78
 11
-42.1289
 21
2376.48
  0
LINE
  8
0
 10
-42.1289
 20
2376.48
 11
-41.5451
 21
2376.24
  0
LINE
  8
0
 10
-41.5451
 20
2376.24
 11
-40.9369
 21
2376.09
  0
LINE
  8
0
 10
-40.9369
 20
2376.09
 11
-40.3139
 21
2376.01
  0
LINE
  8
0
 10
-40.3139
 20
2376.01
 11
40.3139
 21
2376.01
  0
LINE
  8
0
 10
40.3139
 20
2376.01
 11
40.9369
 21
2376.09
  0
LINE
  8
0
 10
-39.7512
 20
2377.51
 11
-40.2495
 21
2377.57
  0
LINE
  8
0
 10
-40.2495
 20
2377.57
 11
-40.7361
 21
2377.7
  0
LINE
  8
0
 10
-40.7361
 20
2377.7
 11
-41.2031
 21
2377.88
  0
LINE
  8
0
 10
-41.2031
 20
2377.88
 11
-41.6433
 21
2378.12
  0
LINE
  8
0
 10
-41.6433
 20
2378.12
 11
-42.0497
 21
2378.42
  0
LINE
  8
0
 10
-42.0497
 20
2378.42
 11
-42.4159
 21
2378.76
  0
LINE
  8
0
 10
-42.4159
 20
2378.76
 11
-42.7361
 21
2379.15
  0
LINE
  8
0
 10
-42.7361
 20
2379.15
 11
-43.0052
 21
2379.57
  0
LINE
  8
0
 10
-43.0052
 20
2379.57
 11
-43.2191
 21
2380.03
  0
LINE
  8
0
 10
-43.2191
 20
2380.03
 11
-43.3743
 21
2380.51
  0
LINE
  8
0
 10
-43.3743
 20
2380.51
 11
-43.4685
 21
2381
  0
LINE
  8
0
 10
-43.4685
 20
2381
 11
-43.5
 21
2381.5
  0
LINE
  8
0
 10
-43.5
 20
2381.5
 11
-43.5
 21
2640.5
  0
LINE
  8
0
 10
-43.5
 20
2640.5
 11
-43.4685
 21
2641
  0
LINE
  8
0
 10
-43.4685
 20
2641
 11
-43.3743
 21
2641.49
  0
LINE
  8
0
 10
-43.3743
 20
2641.49
 11
-43.2191
 21
2641.97
  0
LINE
  8
0
 10
-43.2191
 20
2641.97
 11
-43.0052
 21
2642.43
  0
LINE
  8
0
 10
-43.0052
 20
2642.43
 11
-42.7361
 21
2642.85
  0
LINE
  8
0
 10
-42.7361
 20
2642.85
 11
-42.4159
 21
2643.24
  0
LINE
  8
0
 10
-42.4159
 20
2643.24
 11
-42.0497
 21
2643.58
  0
LINE
  8
0
 10
-42.0497
 20
2643.58
 11
-41.6433
 21
2643.88
  0
LINE
  8
0
 10
-41.6433
 20
2643.88
 11
-41.2031
 21
2644.12
  0
LINE
  8
0
 10
-41.2031
 20
2644.12
 11
-40.7361
 21
2644.3
  0
LINE
  8
0
 10
-40.7361
 20
2644.3
 11
-40.2495
 21
2644.43
  0
LINE
  8
0
 10
-40.2495
 20
2644.43
 11
-39.7512
 21
2644.49
  0
LINE
  8
0
 10
-39.7512
 20
2644.49
 11
39.7512
 21
2644.49
  0
LINE
  8
0
 10
39.7512
 20
2644.49
 11
40.2495
 21
2644.43
  0
LINE
  8
0
 10
40.2495
 20
2644.43
 11
40.7361
 21
2644.3
  0
LINE
  8
0
 10
40.7361
 20
2644.3
 11
41.2031
 21
2644.12
  0
LINE
  8
0
 10
41.2031
 20
2644.12
 11
41.6433
 21
2643.88
  0
LINE
  8
0
 10
41.6433
 20
2643.88
 11
42.0497
 21
2643.58
  0
LINE
  8
0
 10
42.0497
 20
2643.58
 11
42.4159
 21
2643.24
  0
LINE
  8
0
 10
42.4159
 20
2643.24
 11
42.7361
 21
2642.85
  0
LINE
  8
0
 10
42.7361
 20
2642.85
 11
43.0052
 21
2642.43
  0
LINE
  8
0
 10
43.0052
 20
2642.43
 11
43.2191
 21
2641.97
  0
LINE
  8
0
 10
43.2191
 20
2641.97
 11
43.3743
 21
2641.49
  0
LINE
  8
0
 10
43.3743
 20
2641.49
 11
43.4685
 21
2641
  0
LINE
  8
0
 10
43.4685
 20
2641
 11
43.5
 21
2640.5
  0
LINE
  8
0
 10
43.5
 20
2640.5
 11
43.5
 21
2381.5
  0
LINE
  8
0
 10
43.5
 20
2381.5
 11
43.4685
 21
2381
  0
LINE
  8
0
 10
43.4685
 20
2381
 11
43.3743
 21
2380.51
  0
LINE
  8
0
 10
43.3743
 20
2380.51
 11
43.2191
 21
2380.03
  0
LINE
  8
0
 10
43.2191
 20
2380.03
 11
43.0052
 21
2379.57
  0
LINE
  8
0
 10
43.0052
 20
2379.57
 11
42.7361
 21
2379.15
  0
LINE
  8
0
 10
42.7361
 20
2379.15
 11
42.4159
 21
2378.76
  0
LINE
  8
0
 10
42.4159
 20
2378.76
 11
42.0497
 21
2378.42
  0
LINE
  8
0
 10
42.0497
 20
2378.42
 11
41.6433
 21
2378.12
  0
LINE
  8
0
 10
41.6433
 20
2378.12
 11
41.2031
 21
2377.88
  0
LINE
  8
0
 10
41.2031
 20
2377.88
 11
40.7361
 21
2377.7
  0
LINE
  8
0
 10
40.7361
 20
2377.7
 11
40.2495
 21
2377.57
  0
LINE
  8
0
 10
40.2495
 20
2377.57
 11
39.7512
 21
2377.51
  0
LINE
  8
0
 10
39.7512
 20
2377.51
 11
-39.7512
 21
2377.51
  0
LINE
  8
0
 10
40.9369
 20
2097.09
 11
41.5451
 21
2097.24
  0
LINE
  8
0
 10
41.5451
 20
2097.24
 11
42.1289
 21
2097.48
  0
LINE
  8
0
 10
42.1289
 20
2097.48
 11
42.6791
 21
2097.78
  0
LINE
  8
0
 10
42.6791
 20
2097.78
 11
43.1871
 21
2098.15
  0
LINE
  8
0
 10
43.1871
 20
2098.15
 11
43.6448
 21
2098.58
  0
LINE
  8
0
 10
43.6448
 20
2098.58
 11
44.0451
 21
2099.06
  0
LINE
  8
0
 10
44.0451
 20
2099.06
 11
44.3815
 21
2099.59
  0
LINE
  8
0
 10
44.3815
 20
2099.59
 11
44.6489
 21
2100.16
  0
LINE
  8
0
 10
44.6489
 20
2100.16
 11
44.8429
 21
2100.76
  0
LINE
  8
0
 10
44.8429
 20
2100.76
 11
44.9606
 21
2101.37
  0
LINE
  8
0
 10
44.9606
 20
2101.37
 11
45
 21
2102
  0
LINE
  8
0
 10
45
 20
2102
 11
45
 21
2362
  0
LINE
  8
0
 10
45
 20
2362
 11
44.9606
 21
2362.63
  0
LINE
  8
0
 10
44.9606
 20
2362.63
 11
44.8429
 21
2363.24
  0
LINE
  8
0
 10
44.8429
 20
2363.24
 11
44.6489
 21
2363.84
  0
LINE
  8
0
 10
44.6489
 20
2363.84
 11
44.3815
 21
2364.41
  0
LINE
  8
0
 10
44.3815
 20
2364.41
 11
44.0451
 21
2364.94
  0
LINE
  8
0
 10
44.0451
 20
2364.94
 11
43.6448
 21
2365.42
  0
LINE
  8
0
 10
43.6448
 20
2365.42
 11
43.1871
 21
2365.85
  0
LINE
  8
0
 10
43.1871
 20
2365.85
 11
42.6791
 21
2366.22
  0
LINE
  8
0
 10
42.6791
 20
2366.22
 11
42.1289
 21
2366.52
  0
LINE
  8
0
 10
42.1289
 20
2366.52
 11
41.5451
 21
2366.76
  0
LINE
  8
0
 10
41.5451
 20
2366.76
 11
40.9369
 21
2366.91
  0
LINE
  8
0
 10
40.9369
 20
2366.91
 11
40.3139
 21
2366.99
  0
LINE
  8
0
 10
40.3139
 20
2366.99
 11
-40.3139
 21
2366.99
  0
LINE
  8
0
 10
-40.3139
 20
2366.99
 11
-40.9369
 21
2366.91
  0
LINE
  8
0
 10
-40.9369
 20
2366.91
 11
-41.5451
 21
2366.76
  0
LINE
  8
0
 10
-41.5451
 20
2366.76
 11
-42.1289
 21
2366.52
  0
LINE
  8
0
 10
-42.1289
 20
2366.52
 11
-42.6791
 21
2366.22
  0
LINE
  8
0
 10
-42.6791
 20
2366.22
 11
-43.1871
 21
2365.85
  0
LINE
  8
0
 10
-43.1871
 20
2365.85
 11
-43.6448
 21
2365.42
  0
LINE
  8
0
 10
-43.6448
 20
2365.42
 11
-44.0451
 21
2364.94
  0
LINE
  8
0
 10
-44.0451
 20
2364.94
 11
-44.3815
 21
2364.41
  0
LINE
  8
0
 10
-44.3815
 20
2364.41
 11
-44.6489
 21
2363.84
  0
LINE
  8
0
 10
-44.6489
 20
2363.84
 11
-44.8429
 21
2363.24
  0
LINE
  8
0
 10
-44.8429
 20
2363.24
 11
-44.9606
 21
2362.63
  0
LINE
  8
0
 10
-44.9606
 20
2362.63
 11
-45
 21
2362
  0
LINE
  8
0
 10
-45
 20
2362
 11
-45
 21
2102
  0
LINE
  8
0
 10
-45
 20
2102
 11
-44.9606
 21
2101.37
  0
LINE
  8
0
 10
-44.9606
 20
2101.37
 11
-44.8429
 21
2100.76
  0
LINE
  8
0
 10
-44.8429
 20
2100.76
 11
-44.6489
 21
2100.16
  0
LINE
  8
0
 10
-44.6489
 20
2100.16
 11
-44.3815
 21
2099.59
  0
LINE
  8
0
 10
-44.3815
 20
2099.59
 11
-44.0451
 21
2099.06
  0
LINE
  8
0
 10
-44.0451
 20
2099.06
 11
-43.6448
 21
2098.58
  0
LINE
  8
0
 10
-43.6448
 20
2098.58
 11
-43.1871
 21
2098.15
  0
LINE
  8
0
 10
-43.1871
 20
2098.15
 11
-42.6791
 21
2097.78
  0
LINE
  8
0
 10
-42.6791
 20
2097.78
 11
-42.1289
 21
2097.48
  0
LINE
  8
0
 10
-42.1289
 20
2097.48
 11
-41.5451
 21
2097.24
  0
LINE
  8
0
 10
-41.5451
 20
2097.24
 11
-40.9369
 21
2097.09
  0
LINE
  8
0
 10
-40.9369
 20
2097.09
 11
-40.3139
 21
2097.01
  0
LINE
  8
0
 10
-40.3139
 20
2097.01
 11
40.3139
 21
2097.01
  0
LINE
  8
0
 10
40.3139
 20
2097.01
 11
40.9369
 21
2097.09
  0
LINE
  8
0
 10
-39.7512
 20
2098.51
 11
-40.2495
 21
2098.57
  0
LINE
  8
0
 10
-40.2495
 20
2098.57
 11
-40.7361
 21
2098.7
  0
LINE
  8
0
 10
-40.7361
 20
2098.7
 11
-41.2031
 21
2098.88
  0
LINE
  8
0
 10
-41.2031
 20
2098.88
 11
-41.6433
 21
2099.12
  0
LINE
  8
0
 10
-41.6433
 20
2099.12
 11
-42.0497
 21
2099.42
  0
LINE
  8
0
 10
-42.0497
 20
2099.42
 11
-42.4159
 21
2099.76
  0
LINE
  8
0
 10
-42.4159
 20
2099.76
 11
-42.7361
 21
2100.15
  0
LINE
  8
0
 10
-42.7361
 20
2100.15
 11
-43.0052
 21
2100.57
  0
LINE
  8
0
 10
-43.0052
 20
2100.57
 11
-43.2191
 21
2101.03
  0
LINE
  8
0
 10
-43.2191
 20
2101.03
 11
-43.3743
 21
2101.51
  0
LINE
  8
0
 10
-43.3743
 20
2101.51
 11
-43.4685
 21
2102
  0
LINE
  8
0
 10
-43.4685
 20
2102
 11
-43.5
 21
2102.5
  0
LINE
  8
0
 10
-43.5
 20
2102.5
 11
-43.5
 21
2361.5
  0
LINE
  8
0
 10
-43.5
 20
2361.5
 11
-43.4685
 21
2362
  0
LINE
  8
0
 10
-43.4685
 20
2362
 11
-43.3743
 21
2362.49
  0
LINE
  8
0
 10
-43.3743
 20
2362.49
 11
-43.2191
 21
2362.97
  0
LINE
  8
0
 10
-43.2191
 20
2362.97
 11
-43.0052
 21
2363.43
  0
LINE
  8
0
 10
-43.0052
 20
2363.43
 11
-42.7361
 21
2363.85
  0
LINE
  8
0
 10
-42.7361
 20
2363.85
 11
-42.4159
 21
2364.24
  0
LINE
  8
0
 10
-42.4159
 20
2364.24
 11
-42.0497
 21
2364.58
  0
LINE
  8
0
 10
-42.0497
 20
2364.58
 11
-41.6433
 21
2364.88
  0
LINE
  8
0
 10
-41.6433
 20
2364.88
 11
-41.2031
 21
2365.12
  0
LINE
  8
0
 10
-41.2031
 20
2365.12
 11
-40.7361
 21
2365.3
  0
LINE
  8
0
 10
-40.7361
 20
2365.3
 11
-40.2495
 21
2365.43
  0
LINE
  8
0
 10
-40.2495
 20
2365.43
 11
-39.7512
 21
2365.49
  0
LINE
  8
0
 10
-39.7512
 20
2365.49
 11
39.7512
 21
2365.49
  0
LINE
  8
0
 10
39.7512
 20
2365.49
 11
40.2495
 21
2365.43
  0
LINE
  8
0
 10
40.2495
 20
2365.43
 11
40.7361
 21
2365.3
  0
LINE
  8
0
 10
40.7361
 20
2365.3
 11
41.2031
 21
2365.12
  0
LINE
  8
0
 10
41.2031
 20
2365.12
 11
41.6433
 21
2364.88
  0
LINE
  8
0
 10
41.6433
 20
2364.88
 11
42.0497
 21
2364.58
  0
LINE
  8
0
 10
42.0497
 20
2364.58
 11
42.4159
 21
2364.24
  0
LINE
  8
0
 10
42.4159
 20
2364.24
 11
42.7361
 21
2363.85
  0
LINE
  8
0
 10
42.7361
 20
2363.85
 11
43.0052
 21
2363.43
  0
LINE
  8
0
 10
43.0052
 20
2363.43
 11
43.2191
 21
2362.97
  0
LINE
  8
0
 10
43.2191
 20
2362.97
 11
43.3743
 21
2362.49
  0
LINE
  8
0
 10
43.3743
 20
2362.49
 11
43.4685
 21
2362
  0
LINE
  8
0
 10
43.4685
 20
2362
 11
43.5
 21
2361.5
  0
LINE
  8
0
 10
43.5
 20
2361.5
 11
43.5
 21
2102.5
  0
LINE
  8
0
 10
43.5
 20
2102.5
 11
43.4685
 21
2102
  0
LINE
  8
0
 10
43.4685
 20
2102
 11
43.3743
 21
2101.51
  0
LINE
  8
0
 10
43.3743
 20
2101.51
 11
43.2191
 21
2101.03
  0
LINE
  8
0
 10
43.2191
 20
2101.03
 11
43.0052
 21
2100.57
  0
LINE
  8
0
 10
43.0052
 20
2100.57
 11
42.7361
 21
2100.15
  0
LINE
  8
0
 10
42.7361
 20
2100.15
 11
42.4159
 21
2099.76
  0
LINE
  8
0
 10
42.4159
 20
2099.76
 11
42.0497
 21
2099.42
  0
LINE
  8
0
 10
42.0497
 20
2099.42
 11
41.6433
 21
2099.12
  0
LINE
  8
0
 10
41.6433
 20
2099.12
 11
41.2031
 21
2098.88
  0
LINE
  8
0
 10
41.2031
 20
2098.88
 11
40.7361
 21
2098.7
  0
LINE
  8
0
 10
40.7361
 20
2098.7
 11
40.2495
 21
2098.57
  0
LINE
  8
0
 10
40.2495
 20
2098.57
 11
39.7512
 21
2098.51
  0
LINE
  8
0
 10
39.7512
 20
2098.51
 11
-39.7512
 21
2098.51
  0
LINE
  8
0
 10
40.9369
 20
1818.09
 11
41.5451
 21
1818.24
  0
LINE
  8
0
 10
41.5451
 20
1818.24
 11
42.1289
 21
1818.48
  0
LINE
  8
0
 10
42.1289
 20
1818.48
 11
42.6791
 21
1818.78
  0
LINE
  8
0
 10
42.6791
 20
1818.78
 11
43.1871
 21
1819.15
  0
LINE
  8
0
 10
43.1871
 20
1819.15
 11
43.6448
 21
1819.58
  0
LINE
  8
0
 10
43.6448
 20
1819.58
 11
44.0451
 21
1820.06
  0
LINE
  8
0
 10
44.0451
 20
1820.06
 11
44.3815
 21
1820.59
  0
LINE
  8
0
 10
44.3815
 20
1820.59
 11
44.6489
 21
1821.16
  0
LINE
  8
0
 10
44.6489
 20
1821.16
 11
44.8429
 21
1821.76
  0
LINE
  8
0
 10
44.8429
 20
1821.76
 11
44.9606
 21
1822.37
  0
LINE
  8
0
 10
44.9606
 20
1822.37
 11
45
 21
1823
  0
LINE
  8
0
 10
45
 20
1823
 11
45
 21
2083
  0
LINE
  8
0
 10
45
 20
2083
 11
44.9606
 21
2083.63
  0
LINE
  8
0
 10
44.9606
 20
2083.63
 11
44.8429
 21
2084.24
  0
LINE
  8
0
 10
44.8429
 20
2084.24
 11
44.6489
 21
2084.84
  0
LINE
  8
0
 10
44.6489
 20
2084.84
 11
44.3815
 21
2085.41
  0
LINE
  8
0
 10
44.3815
 20
2085.41
 11
44.0451
 21
2085.94
  0
LINE
  8
0
 10
44.0451
 20
2085.94
 11
43.6448
 21
2086.42
  0
LINE
  8
0
 10
43.6448
 20
2086.42
 11
43.1871
 21
2086.85
  0
LINE
  8
0
 10
43.1871
 20
2086.85
 11
42.6791
 21
2087.22
  0
LINE
  8
0
 10
42.6791
 20
2087.22
 11
42.1289
 21
2087.52
  0
LINE
  8
0
 10
42.1289
 20
2087.52
 11
41.5451
 21
2087.76
  0
LINE
  8
0
 10
41.5451
 20
2087.76
 11
40.9369
 21
2087.91
  0
LINE
  8
0
 10
40.9369
 20
2087.91
 11
40.3139
 21
2087.99
  0
LINE
  8
0
 10
40.3139
 20
2087.99
 11
-40.3139
 21
2087.99
  0
LINE
  8
0
 10
-40.3139
 20
2087.99
 11
-40.9369
 21
2087.91
  0
LINE
  8
0
 10
-40.9369
 20
2087.91
 11
-41.5451
 21
2087.76
  0
LINE
  8
0
 10
-41.5451
 20
2087.76
 11
-42.1289
 21
2087.52
  0
LINE
  8
0
 10
-42.1289
 20
2087.52
 11
-42.6791
 21
2087.22
  0
LINE
  8
0
 10
-42.6791
 20
2087.22
 11
-43.1871
 21
2086.85
  0
LINE
  8
0
 10
-43.1871
 20
2086.85
 11
-43.6448
 21
2086.42
  0
LINE
  8
0
 10
-43.6448
 20
2086.42
 11
-44.0451
 21
2085.94
  0
LINE
  8
0
 10
-44.0451
 20
2085.94
 11
-44.3815
 21
2085.41
  0
LINE
  8
0
 10
-44.3815
 20
2085.41
 11
-44.6489
 21
2084.84
  0
LINE
  8
0
 10
-44.6489
 20
2084.84
 11
-44.8429
 21
2084.24
  0
LINE
  8
0
 10
-44.8429
 20
2084.24
 11
-44.9606
 21
2083.63
  0
LINE
  8
0
 10
-44.9606
 20
2083.63
 11
-45
 21
2083
  0
LINE
  8
0
 10
-45
 20
2083
 11
-45
 21
1823
  0
LINE
  8
0
 10
-45
 20
1823
 11
-44.9606
 21
1822.37
  0
LINE
  8
0
 10
-44.9606
 20
1822.37
 11
-44.8429
 21
1821.76
  0
LINE
  8
0
 10
-44.8429
 20
1821.76
 11
-44.6489
 21
1821.16
  0
LINE
  8
0
 10
-44.6489
 20
1821.16
 11
-44.3815
 21
1820.59
  0
LINE
  8
0
 10
-44.3815
 20
1820.59
 11
-44.0451
 21
1820.06
  0
LINE
  8
0
 10
-44.0451
 20
1820.06
 11
-43.6448
 21
1819.58
  0
LINE
  8
0
 10
-43.6448
 20
1819.58
 11
-43.1871
 21
1819.15
  0
LINE
  8
0
 10
-43.1871
 20
1819.15
 11
-42.6791
 21
1818.78
  0
LINE
  8
0
 10
-42.6791
 20
1818.78
 11
-42.1289
 21
1818.48
  0
LINE
  8
0
 10
-42.1289
 20
1818.48
 11
-41.5451
 21
1818.24
  0
LINE
  8
0
 10
-41.5451
 20
1818.24
 11
-40.9369
 21
1818.09
  0
LINE
  8
0
 10
-40.9369
 20
1818.09
 11
-40.3139
 21
1818.01
  0
LINE
  8
0
 10
-40.3139
 20
1818.01
 11
40.3139
 21
1818.01
  0
LINE
  8
0
 10
40.3139
 20
1818.01
 11
40.9369
 21
1818.09
  0
LINE
  8
0
 10
-39.7512
 20
1819.51
 11
-40.2495
 21
1819.57
  0
LINE
  8
0
 10
-40.2495
 20
1819.57
 11
-40.7361
 21
1819.7
  0
LINE
  8
0
 10
-40.7361
 20
1819.7
 11
-41.2031
 21
1819.88
  0
LINE
  8
0
 10
-41.2031
 20
1819.88
 11
-41.6433
 21
1820.12
  0
LINE
  8
0
 10
-41.6433
 20
1820.12
 11
-42.0497
 21
1820.42
  0
LINE
  8
0
 10
-42.0497
 20
1820.42
 11
-42.4159
 21
1820.76
  0
LINE
  8
0
 10
-42.4159
 20
1820.76
 11
-42.7361
 21
1821.15
  0
LINE
  8
0
 10
-42.7361
 20
1821.15
 11
-43.0052
 21
1821.57
  0
LINE
  8
0
 10
-43.0052
 20
1821.57
 11
-43.2191
 21
1822.03
  0
LINE
  8
0
 10
-43.2191
 20
1822.03
 11
-43.3743
 21
1822.51
  0
LINE
  8
0
 10
-43.3743
 20
1822.51
 11
-43.4685
 21
1823
  0
LINE
  8
0
 10
-43.4685
 20
1823
 11
-43.5
 21
1823.5
  0
LINE
  8
0
 10
-43.5
 20
1823.5
 11
-43.5
 21
2082.5
  0
LINE
  8
0
 10
-43.5
 20
2082.5
 11
-43.4685
 21
2083
  0
LINE
  8
0
 10
-43.4685
 20
2083
 11
-43.3743
 21
2083.49
  0
LINE
  8
0
 10
-43.3743
 20
2083.49
 11
-43.2191
 21
2083.97
  0
LINE
  8
0
 10
-43.2191
 20
2083.97
 11
-43.0052
 21
2084.43
  0
LINE
  8
0
 10
-43.0052
 20
2084.43
 11
-42.7361
 21
2084.85
  0
LINE
  8
0
 10
-42.7361
 20
2084.85
 11
-42.4159
 21
2085.24
  0
LINE
  8
0
 10
-42.4159
 20
2085.24
 11
-42.0497
 21
2085.58
  0
LINE
  8
0
 10
-42.0497
 20
2085.58
 11
-41.6433
 21
2085.88
  0
LINE
  8
0
 10
-41.6433
 20
2085.88
 11
-41.2031
 21
2086.12
  0
LINE
  8
0
 10
-41.2031
 20
2086.12
 11
-40.7361
 21
2086.3
  0
LINE
  8
0
 10
-40.7361
 20
2086.3
 11
-40.2495
 21
2086.43
  0
LINE
  8
0
 10
-40.2495
 20
2086.43
 11
-39.7512
 21
2086.49
  0
LINE
  8
0
 10
-39.7512
 20
2086.49
 11
39.7512
 21
2086.49
  0
LINE
  8
0
 10
39.7512
 20
2086.49
 11
40.2495
 21
2086.43
  0
LINE
  8
0
 10
40.2495
 20
2086.43
 11
40.7361
 21
2086.3
  0
LINE
  8
0
 10
40.7361
 20
2086.3
 11
41.2031
 21
2086.12
  0
LINE
  8
0
 10
41.2031
 20
2086.12
 11
41.6433
 21
2085.88
  0
LINE
  8
0
 10
41.6433
 20
2085.88
 11
42.0497
 21
2085.58
  0
LINE
  8
0
 10
42.0497
 20
2085.58
 11
42.4159
 21
2085.24
  0
LINE
  8
0
 10
42.4159
 20
2085.24
 11
42.7361
 21
2084.85
  0
LINE
  8
0
 10
42.7361
 20
2084.85
 11
43.0052
 21
2084.43
  0
LINE
  8
0
 10
43.0052
 20
2084.43
 11
43.2191
 21
2083.97
  0
LINE
  8
0
 10
43.2191
 20
2083.97
 11
43.3743
 21
2083.49
  0
LINE
  8
0
 10
43.3743
 20
2083.49
 11
43.4685
 21
2083
  0
LINE
  8
0
 10
43.4685
 20
2083
 11
43.5
 21
2082.5
  0
LINE
  8
0
 10
43.5
 20
2082.5
 11
43.5
 21
1823.5
  0
LINE
  8
0
 10
43.5
 20
1823.5
 11
43.4685
 21
1823
  0
LINE
  8
0
 10
43.4685
 20
1823
 11
43.3743
 21
1822.51
  0
LINE
  8
0
 10
43.3743
 20
1822.51
 11
43.2191
 21
1822.03
  0
LINE
  8
0
 10
43.2191
 20
1822.03
 11
43.0052
 21
1821.57
  0
LINE
  8
0
 10
43.0052
 20
1821.57
 11
42.7361
 21
1821.15
  0
LINE
  8
0
 10
42.7361
 20
1821.15
 11
42.4159
 21
1820.76
  0
LINE
  8
0
 10
42.4159
 20
1820.76
 11
42.0497
 21
1820.42
  0
LINE
  8
0
 10
42.0497
 20
1820.42
 11
41.6433
 21
1820.12
  0
LINE
  8
0
 10
41.6433
 20
1820.12
 11
41.2031
 21
1819.88
  0
LINE
  8
0
 10
41.2031
 20
1819.88
 11
40.7361
 21
1819.7
  0
LINE
  8
0
 10
40.7361
 20
1819.7
 11
40.2495
 21
1819.57
  0
LINE
  8
0
 10
40.2495
 20
1819.57
 11
39.7512
 21
1819.51
  0
LINE
  8
0
 10
39.7512
 20
1819.51
 11
-39.7512
 21
1819.51
  0
LINE
  8
0
 10
40.9369
 20
1539.09
 11
41.5451
 21
1539.24
  0
LINE
  8
0
 10
41.5451
 20
1539.24
 11
42.1289
 21
1539.48
  0
LINE
  8
0
 10
42.1289
 20
1539.48
 11
42.6791
 21
1539.78
  0
LINE
  8
0
 10
42.6791
 20
1539.78
 11
43.1871
 21
1540.15
  0
LINE
  8
0
 10
43.1871
 20
1540.15
 11
43.6448
 21
1540.58
  0
LINE
  8
0
 10
43.6448
 20
1540.58
 11
44.0451
 21
1541.06
  0
LINE
  8
0
 10
44.0451
 20
1541.06
 11
44.3815
 21
1541.59
  0
LINE
  8
0
 10
44.3815
 20
1541.59
 11
44.6489
 21
1542.16
  0
LINE
  8
0
 10
44.6489
 20
1542.16
 11
44.8429
 21
1542.76
  0
LINE
  8
0
 10
44.8429
 20
1542.76
 11
44.9606
 21
1543.37
  0
LINE
  8
0
 10
44.9606
 20
1543.37
 11
45
 21
1544
  0
LINE
  8
0
 10
45
 20
1544
 11
45
 21
1804
  0
LINE
  8
0
 10
45
 20
1804
 11
44.9606
 21
1804.63
  0
LINE
  8
0
 10
44.9606
 20
1804.63
 11
44.8429
 21
1805.24
  0
LINE
  8
0
 10
44.8429
 20
1805.24
 11
44.6489
 21
1805.84
  0
LINE
  8
0
 10
44.6489
 20
1805.84
 11
44.3815
 21
1806.41
  0
LINE
  8
0
 10
44.3815
 20
1806.41
 11
44.0451
 21
1806.94
  0
LINE
  8
0
 10
44.0451
 20
1806.94
 11
43.6448
 21
1807.42
  0
LINE
  8
0
 10
43.6448
 20
1807.42
 11
43.1871
 21
1807.85
  0
LINE
  8
0
 10
43.1871
 20
1807.85
 11
42.6791
 21
1808.22
  0
LINE
  8
0
 10
42.6791
 20
1808.22
 11
42.1289
 21
1808.52
  0
LINE
  8
0
 10
42.1289
 20
1808.52
 11
41.5451
 21
1808.76
  0
LINE
  8
0
 10
41.5451
 20
1808.76
 11
40.9369
 21
1808.91
  0
LINE
  8
0
 10
40.9369
 20
1808.91
 11
40.3139
 21
1808.99
  0
LINE
  8
0
 10
40.3139
 20
1808.99
 11
-40.3139
 21
1808.99
  0
LINE
  8
0
 10
-40.3139
 20
1808.99
 11
-40.9369
 21
1808.91
  0
LINE
  8
0
 10
-40.9369
 20
1808.91
 11
-41.5451
 21
1808.76
  0
LINE
  8
0
 10
-41.5451
 20
1808.76
 11
-42.1289
 21
1808.52
  0
LINE
  8
0
 10
-42.1289
 20
1808.52
 11
-42.6791
 21
1808.22
  0
LINE
  8
0
 10
-42.6791
 20
1808.22
 11
-43.1871
 21
1807.85
  0
LINE
  8
0
 10
-43.1871
 20
1807.85
 11
-43.6448
 21
1807.42
  0
LINE
  8
0
 10
-43.6448
 20
1807.42
 11
-44.0451
 21
1806.94
  0
LINE
  8
0
 10
-44.0451
 20
1806.94
 11
-44.3815
 21
1806.41
  0
LINE
  8
0
 10
-44.3815
 20
1806.41
 11
-44.6489
 21
1805.84
  0
LINE
  8
0
 10
-44.6489
 20
1805.84
 11
-44.8429
 21
1805.24
  0
LINE
  8
0
 10
-44.8429
 20
1805.24
 11
-44.9606
 21
1804.63
  0
LINE
  8
0
 10
-44.9606
 20
1804.63
 11
-45
 21
1804
  0
LINE
  8
0
 10
-45
 20
1804
 11
-45
 21
1544
  0
LINE
  8
0
 10
-45
 20
1544
 11
-44.9606
 21
1543.37
  0
LINE
  8
0
 10
-44.9606
 20
1543.37
 11
-44.8429
 21
1542.76
  0
LINE
  8
0
 10
-44.8429
 20
1542.76
 11
-44.6489
 21
1542.16
  0
LINE
  8
0
 10
-44.6489
 20
1542.16
 11
-44.3815
 21
1541.59
  0
LINE
  8
0
 10
-44.3815
 20
1541.59
 11
-44.0451
 21
1541.06
  0
LINE
  8
0
 10
-44.0451
 20
1541.06
 11
-43.6448
 21
1540.58
  0
LINE
  8
0
 10
-43.6448
 20
1540.58
 11
-43.1871
 21
1540.15
  0
LINE
  8
0
 10
-43.1871
 20
1540.15
 11
-42.6791
 21
1539.78
  0
LINE
  8
0
 10
-42.6791
 20
1539.78
 11
-42.1289
 21
1539.48
  0
LINE
  8
0
 10
-42.1289
 20
1539.48
 11
-41.5451
 21
1539.24
  0
LINE
  8
0
 10
-41.5451
 20
1539.24
 11
-40.9369
 21
1539.09
  0
LINE
  8
0
 10
-40.9369
 20
1539.09
 11
-40.3139
 21
1539.01
  0
LINE
  8
0
 10
-40.3139
 20
1539.01
 11
40.3139
 21
1539.01
  0
LINE
  8
0
 10
40.3139
 20
1539.01
 11
40.9369
 21
1539.09
  0
LINE
  8
0
 10
-39.6954
 20
1541.39
 11
-40.0833
 21
1541.44
  0
LINE
  8
0
 10
-40.0833
 20
1541.44
 11
-40.4619
 21
1541.54
  0
LINE
  8
0
 10
-40.4619
 20
1541.54
 11
-40.8254
 21
1541.68
  0
LINE
  8
0
 10
-40.8254
 20
1541.68
 11
-41.168
 21
1541.87
  0
LINE
  8
0
 10
-41.168
 20
1541.87
 11
-41.4842
 21
1542.1
  0
LINE
  8
0
 10
-41.4842
 20
1542.1
 11
-41.7692
 21
1542.37
  0
LINE
  8
0
 10
-41.7692
 20
1542.37
 11
-42.0184
 21
1542.67
  0
LINE
  8
0
 10
-42.0184
 20
1542.67
 11
-42.2279
 21
1543
  0
LINE
  8
0
 10
-42.2279
 20
1543
 11
-42.3943
 21
1543.35
  0
LINE
  8
0
 10
-42.3943
 20
1543.35
 11
-42.5151
 21
1543.73
  0
LINE
  8
0
 10
-42.5151
 20
1543.73
 11
-42.5884
 21
1544.11
  0
LINE
  8
0
 10
-42.5884
 20
1544.11
 11
-42.6129
 21
1544.5
  0
LINE
  8
0
 10
-42.6129
 20
1544.5
 11
-42.6129
 21
1803.5
  0
LINE
  8
0
 10
-42.6129
 20
1803.5
 11
-42.5884
 21
1803.89
  0
LINE
  8
0
 10
-42.5884
 20
1803.89
 11
-42.5151
 21
1804.27
  0
LINE
  8
0
 10
-42.5151
 20
1804.27
 11
-42.3943
 21
1804.65
  0
LINE
  8
0
 10
-42.3943
 20
1804.65
 11
-42.2279
 21
1805
  0
LINE
  8
0
 10
-42.2279
 20
1805
 11
-42.0184
 21
1805.33
  0
LINE
  8
0
 10
-42.0184
 20
1805.33
 11
-41.7692
 21
1805.63
  0
LINE
  8
0
 10
-41.7692
 20
1805.63
 11
-41.4842
 21
1805.9
  0
LINE
  8
0
 10
-41.4842
 20
1805.9
 11
-41.168
 21
1806.13
  0
LINE
  8
0
 10
-41.168
 20
1806.13
 11
-40.8254
 21
1806.32
  0
LINE
  8
0
 10
-40.8254
 20
1806.32
 11
-40.4619
 21
1806.46
  0
LINE
  8
0
 10
-40.4619
 20
1806.46
 11
-40.0833
 21
1806.56
  0
LINE
  8
0
 10
-40.0833
 20
1806.56
 11
-39.6954
 21
1806.61
  0
LINE
  8
0
 10
-39.6954
 20
1806.61
 11
39.6954
 21
1806.61
  0
LINE
  8
0
 10
39.6954
 20
1806.61
 11
40.0833
 21
1806.56
  0
LINE
  8
0
 10
40.0833
 20
1806.56
 11
40.4619
 21
1806.46
  0
LINE
  8
0
 10
40.4619
 20
1806.46
 11
40.8254
 21
1806.32
  0
LINE
  8
0
 10
40.8254
 20
1806.32
 11
41.168
 21
1806.13
  0
LINE
  8
0
 10
41.168
 20
1806.13
 11
41.4842
 21
1805.9
  0
LINE
  8
0
 10
41.4842
 20
1805.9
 11
41.7692
 21
1805.63
  0
LINE
  8
0
 10
41.7692
 20
1805.63
 11
42.0184
 21
1805.33
  0
LINE
  8
0
 10
42.0184
 20
1805.33
 11
42.2279
 21
1805
  0
LINE
  8
0
 10
42.2279
 20
1805
 11
42.3943
 21
1804.65
  0
LINE
  8
0
 10
42.3943
 20
1804.65
 11
42.5151
 21
1804.27
  0
LINE
  8
0
 10
42.5151
 20
1804.27
 11
42.5884
 21
1803.89
  0
LINE
  8
0
 10
42.5884
 20
1803.89
 11
42.6129
 21
1803.5
  0
LINE
  8
0
 10
42.6129
 20
1803.5
 11
42.6129
 21
1544.5
  0
LINE
  8
0
 10
42.6129
 20
1544.5
 11
42.5884
 21
1544.11
  0
LINE
  8
0
 10
42.5884
 20
1544.11
 11
42.5151
 21
1543.73
  0
LINE
  8
0
 10
42.5151
 20
1543.73
 11
42.3943
 21
1543.35
  0
LINE
  8
0
 10
42.3943
 20
1543.35
 11
42.2279
 21
1543
  0
LINE
  8
0
 10
42.2279
 20
1543
 11
42.0184
 21
1542.67
  0
LINE
  8
0
 10
42.0184
 20
1542.67
 11
41.7692
 21
1542.37
  0
LINE
  8
0
 10
41.7692
 20
1542.37
 11
41.4842
 21
1542.1
  0
LINE
  8
0
 10
41.4842
 20
1542.1
 11
41.168
 21
1541.87
  0
LINE
  8
0
 10
41.168
 20
1541.87
 11
40.8254
 21
1541.68
  0
LINE
  8
0
 10
40.8254
 20
1541.68
 11
40.4619
 21
1541.54
  0
LINE
  8
0
 10
40.4619
 20
1541.54
 11
40.0833
 21
1541.44
  0
LINE
  8
0
 10
40.0833
 20
1541.44
 11
39.6954
 21
1541.39
  0
LINE
  8
0
 10
39.6954
 20
1541.39
 11
-39.6954
 21
1541.39
  0
LINE
  8
0
 10
40.9369
 20
1260.09
 11
41.5451
 21
1260.24
  0
LINE
  8
0
 10
41.5451
 20
1260.24
 11
42.1289
 21
1260.48
  0
LINE
  8
0
 10
42.1289
 20
1260.48
 11
42.6791
 21
1260.78
  0
LINE
  8
0
 10
42.6791
 20
1260.78
 11
43.1871
 21
1261.15
  0
LINE
  8
0
 10
43.1871
 20
1261.15
 11
43.6448
 21
1261.58
  0
LINE
  8
0
 10
43.6448
 20
1261.58
 11
44.0451
 21
1262.06
  0
LINE
  8
0
 10
44.0451
 20
1262.06
 11
44.3815
 21
1262.59
  0
LINE
  8
0
 10
44.3815
 20
1262.59
 11
44.6489
 21
1263.16
  0
LINE
  8
0
 10
44.6489
 20
1263.16
 11
44.8429
 21
1263.76
  0
LINE
  8
0
 10
44.8429
 20
1263.76
 11
44.9606
 21
1264.37
  0
LINE
  8
0
 10
44.9606
 20
1264.37
 11
45
 21
1265
  0
LINE
  8
0
 10
45
 20
1265
 11
45
 21
1525
  0
LINE
  8
0
 10
45
 20
1525
 11
44.9606
 21
1525.63
  0
LINE
  8
0
 10
44.9606
 20
1525.63
 11
44.8429
 21
1526.24
  0
LINE
  8
0
 10
44.8429
 20
1526.24
 11
44.6489
 21
1526.84
  0
LINE
  8
0
 10
44.6489
 20
1526.84
 11
44.3815
 21
1527.41
  0
LINE
  8
0
 10
44.3815
 20
1527.41
 11
44.0451
 21
1527.94
  0
LINE
  8
0
 10
44.0451
 20
1527.94
 11
43.6448
 21
1528.42
  0
LINE
  8
0
 10
43.6448
 20
1528.42
 11
43.1871
 21
1528.85
  0
LINE
  8
0
 10
43.1871
 20
1528.85
 11
42.6791
 21
1529.22
  0
LINE
  8
0
 10
42.6791
 20
1529.22
 11
42.1289
 21
1529.52
  0
LINE
  8
0
 10
42.1289
 20
1529.52
 11
41.5451
 21
1529.76
  0
LINE
  8
0
 10
41.5451
 20
1529.76
 11
40.9369
 21
1529.91
  0
LINE
  8
0
 10
40.9369
 20
1529.91
 11
40.3139
 21
1529.99
  0
LINE
  8
0
 10
40.3139
 20
1529.99
 11
-40.3139
 21
1529.99
  0
LINE
  8
0
 10
-40.3139
 20
1529.99
 11
-40.9369
 21
1529.91
  0
LINE
  8
0
 10
-40.9369
 20
1529.91
 11
-41.5451
 21
1529.76
  0
LINE
  8
0
 10
-41.5451
 20
1529.76
 11
-42.1289
 21
1529.52
  0
LINE
  8
0
 10
-42.1289
 20
1529.52
 11
-42.6791
 21
1529.22
  0
LINE
  8
0
 10
-42.6791
 20
1529.22
 11
-43.1871
 21
1528.85
  0
LINE
  8
0
 10
-43.1871
 20
1528.85
 11
-43.6448
 21
1528.42
  0
LINE
  8
0
 10
-43.6448
 20
1528.42
 11
-44.0451
 21
1527.94
  0
LINE
  8
0
 10
-44.0451
 20
1527.94
 11
-44.3815
 21
1527.41
  0
LINE
  8
0
 10
-44.3815
 20
1527.41
 11
-44.6489
 21
1526.84
  0
LINE
  8
0
 10
-44.6489
 20
1526.84
 11
-44.8429
 21
1526.24
  0
LINE
  8
0
 10
-44.8429
 20
1526.24
 11
-44.9606
 21
1525.63
  0
LINE
  8
0
 10
-44.9606
 20
1525.63
 11
-45
 21
1525
  0
LINE
  8
0
 10
-45
 20
1525
 11
-45
 21
1265
  0
LINE
  8
0
 10
-45
 20
1265
 11
-44.9606
 21
1264.37
  0
LINE
  8
0
 10
-44.9606
 20
1264.37
 11
-44.8429
 21
1263.76
  0
LINE
  8
0
 10
-44.8429
 20
1263.76
 11
-44.6489
 21
1263.16
  0
LINE
  8
0
 10
-44.6489
 20
1263.16
 11
-44.3815
 21
1262.59
  0
LINE
  8
0
 10
-44.3815
 20
1262.59
 11
-44.0451
 21
1262.06
  0
LINE
  8
0
 10
-44.0451
 20
1262.06
 11
-43.6448
 21
1261.58
  0
LINE
  8
0
 10
-43.6448
 20
1261.58
 11
-43.1871
 21
1261.15
  0
LINE
  8
0
 10
-43.1871
 20
1261.15
 11
-42.6791
 21
1260.78
  0
LINE
  8
0
 10
-42.6791
 20
1260.78
 11
-42.1289
 21
1260.48
  0
LINE
  8
0
 10
-42.1289
 20
1260.48
 11
-41.5451
 21
1260.24
  0
LINE
  8
0
 10
-41.5451
 20
1260.24
 11
-40.9369
 21
1260.09
  0
LINE
  8
0
 10
-40.9369
 20
1260.09
 11
-40.3139
 21
1260.01
  0
LINE
  8
0
 10
-40.3139
 20
1260.01
 11
40.3139
 21
1260.01
  0
LINE
  8
0
 10
40.3139
 20
1260.01
 11
40.9369
 21
1260.09
  0
LINE
  8
0
 10
37.3659
 20
1520.37
 11
37.0999
 21
1520.4
  0
LINE
  8
0
 10
37.0999
 20
1520.4
 11
36.8401
 21
1520.47
  0
LINE
  8
0
 10
36.8401
 20
1520.47
 11
36.5908
 21
1520.57
  0
LINE
  8
0
 10
36.5908
 20
1520.57
 11
36.3559
 21
1520.7
  0
LINE
  8
0
 10
36.3559
 20
1520.7
 11
36.1389
 21
1520.85
  0
LINE
  8
0
 10
36.1389
 20
1520.85
 11
35.9434
 21
1521.04
  0
LINE
  8
0
 10
35.9434
 20
1521.04
 11
35.7725
 21
1521.24
  0
LINE
  8
0
 10
35.7725
 20
1521.24
 11
35.6288
 21
1521.47
  0
LINE
  8
0
 10
35.6288
 20
1521.47
 11
35.5146
 21
1521.71
  0
LINE
  8
0
 10
35.5146
 20
1521.71
 11
35.4318
 21
1521.97
  0
LINE
  8
0
 10
35.4318
 20
1521.97
 11
35.3815
 21
1522.23
  0
LINE
  8
0
 10
35.3815
 20
1522.23
 11
35.3647
 21
1522.5
  0
LINE
  8
0
 10
35.3647
 20
1522.5
 11
35.3815
 21
1522.77
  0
LINE
  8
0
 10
35.3815
 20
1522.77
 11
35.4318
 21
1523.03
  0
LINE
  8
0
 10
35.4318
 20
1523.03
 11
35.5146
 21
1523.29
  0
LINE
  8
0
 10
35.5146
 20
1523.29
 11
35.6288
 21
1523.53
  0
LINE
  8
0
 10
35.6288
 20
1523.53
 11
35.7725
 21
1523.76
  0
LINE
  8
0
 10
35.7725
 20
1523.76
 11
35.9434
 21
1523.96
  0
LINE
  8
0
 10
35.9434
 20
1523.96
 11
36.1389
 21
1524.15
  0
LINE
  8
0
 10
36.1389
 20
1524.15
 11
36.3559
 21
1524.3
  0
LINE
  8
0
 10
36.3559
 20
1524.3
 11
36.5908
 21
1524.43
  0
LINE
  8
0
 10
36.5908
 20
1524.43
 11
36.8401
 21
1524.53
  0
LINE
  8
0
 10
36.8401
 20
1524.53
 11
37.0999
 21
1524.6
  0
LINE
  8
0
 10
37.0999
 20
1524.6
 11
37.3659
 21
1524.63
  0
LINE
  8
0
 10
37.3659
 20
1524.63
 11
37.6341
 21
1524.63
  0
LINE
  8
0
 10
37.6341
 20
1524.63
 11
37.9001
 21
1524.6
  0
LINE
  8
0
 10
37.9001
 20
1524.6
 11
38.1598
 21
1524.53
  0
LINE
  8
0
 10
38.1598
 20
1524.53
 11
38.4092
 21
1524.43
  0
LINE
  8
0
 10
38.4092
 20
1524.43
 11
38.6441
 21
1524.3
  0
LINE
  8
0
 10
38.6441
 20
1524.3
 11
38.8611
 21
1524.15
  0
LINE
  8
0
 10
38.8611
 20
1524.15
 11
39.0565
 21
1523.96
  0
LINE
  8
0
 10
39.0565
 20
1523.96
 11
39.2275
 21
1523.76
  0
LINE
  8
0
 10
39.2275
 20
1523.76
 11
39.3712
 21
1523.53
  0
LINE
  8
0
 10
39.3712
 20
1523.53
 11
39.4853
 21
1523.29
  0
LINE
  8
0
 10
39.4853
 20
1523.29
 11
39.5682
 21
1523.03
  0
LINE
  8
0
 10
39.5682
 20
1523.03
 11
39.6185
 21
1522.77
  0
LINE
  8
0
 10
39.6185
 20
1522.77
 11
39.6353
 21
1522.5
  0
LINE
  8
0
 10
39.6353
 20
1522.5
 11
39.6185
 21
1522.23
  0
LINE
  8
0
 10
39.6185
 20
1522.23
 11
39.5682
 21
1521.97
  0
LINE
  8
0
 10
39.5682
 20
1521.97
 11
39.4853
 21
1521.71
  0
LINE
  8
0
 10
39.4853
 20
1521.71
 11
39.3712
 21
1521.47
  0
LINE
  8
0
 10
39.3712
 20
1521.47
 11
39.2275
 21
1521.24
  0
LINE
  8
0
 10
39.2275
 20
1521.24
 11
39.0565
 21
1521.04
  0
LINE
  8
0
 10
39.0565
 20
1521.04
 11
38.8611
 21
1520.85
  0
LINE
  8
0
 10
38.8611
 20
1520.85
 11
38.6441
 21
1520.7
  0
LINE
  8
0
 10
38.6441
 20
1520.7
 11
38.4092
 21
1520.57
  0
LINE
  8
0
 10
38.4092
 20
1520.57
 11
38.1598
 21
1520.47
  0
LINE
  8
0
 10
38.1598
 20
1520.47
 11
37.9001
 21
1520.4
  0
LINE
  8
0
 10
37.9001
 20
1520.4
 11
37.6341
 21
1520.37
  0
LINE
  8
0
 10
37.6341
 20
1520.37
 11
37.3659
 21
1520.37
  0
LINE
  8
0
 10
-37.6341
 20
1520.37
 11
-37.9001
 21
1520.4
  0
LINE
  8
0
 10
-37.9001
 20
1520.4
 11
-38.1598
 21
1520.47
  0
LINE
  8
0
 10
-38.1598
 20
1520.47
 11
-38.4092
 21
1520.57
  0
LINE
  8
0
 10
-38.4092
 20
1520.57
 11
-38.6441
 21
1520.7
  0
LINE
  8
0
 10
-38.6441
 20
1520.7
 11
-38.8611
 21
1520.85
  0
LINE
  8
0
 10
-38.8611
 20
1520.85
 11
-39.0565
 21
1521.04
  0
LINE
  8
0
 10
-39.0565
 20
1521.04
 11
-39.2275
 21
1521.24
  0
LINE
  8
0
 10
-39.2275
 20
1521.24
 11
-39.3712
 21
1521.47
  0
LINE
  8
0
 10
-39.3712
 20
1521.47
 11
-39.4853
 21
1521.71
  0
LINE
  8
0
 10
-39.4853
 20
1521.71
 11
-39.5682
 21
1521.97
  0
LINE
  8
0
 10
-39.5682
 20
1521.97
 11
-39.6185
 21
1522.23
  0
LINE
  8
0
 10
-39.6185
 20
1522.23
 11
-39.6353
 21
1522.5
  0
LINE
  8
0
 10
-39.6353
 20
1522.5
 11
-39.6185
 21
1522.77
  0
LINE
  8
0
 10
-39.6185
 20
1522.77
 11
-39.5682
 21
1523.03
  0
LINE
  8
0
 10
-39.5682
 20
1523.03
 11
-39.4853
 21
1523.29
  0
LINE
  8
0
 10
-39.4853
 20
1523.29
 11
-39.3712
 21
1523.53
  0
LINE
  8
0
 10
-39.3712
 20
1523.53
 11
-39.2275
 21
1523.76
  0
LINE
  8
0
 10
-39.2275
 20
1523.76
 11
-39.0565
 21
1523.96
  0
LINE
  8
0
 10
-39.0565
 20
1523.96
 11
-38.8611
 21
1524.15
  0
LINE
  8
0
 10
-38.8611
 20
1524.15
 11
-38.6441
 21
1524.3
  0
LINE
  8
0
 10
-38.6441
 20
1524.3
 11
-38.4092
 21
1524.43
  0
LINE
  8
0
 10
-38.4092
 20
1524.43
 11
-38.1598
 21
1524.53
  0
LINE
  8
0
 10
-38.1598
 20
1524.53
 11
-37.9001
 21
1524.6
  0
LINE
  8
0
 10
-37.9001
 20
1524.6
 11
-37.6341
 21
1524.63
  0
LINE
  8
0
 10
-37.6341
 20
1524.63
 11
-37.3659
 21
1524.63
  0
LINE
  8
0
 10
-37.3659
 20
1524.63
 11
-37.0999
 21
1524.6
  0
LINE
  8
0
 10
-37.0999
 20
1524.6
 11
-36.8401
 21
1524.53
  0
LINE
  8
0
 10
-36.8401
 20
1524.53
 11
-36.5908
 21
1524.43
  0
LINE
  8
0
 10
-36.5908
 20
1524.43
 11
-36.3559
 21
1524.3
  0
LINE
  8
0
 10
-36.3559
 20
1524.3
 11
-36.1389
 21
1524.15
  0
LINE
  8
0
 10
-36.1389
 20
1524.15
 11
-35.9434
 21
1523.96
  0
LINE
  8
0
 10
-35.9434
 20
1523.96
 11
-35.7725
 21
1523.76
  0
LINE
  8
0
 10
-35.7725
 20
1523.76
 11
-35.6288
 21
1523.53
  0
LINE
  8
0
 10
-35.6288
 20
1523.53
 11
-35.5146
 21
1523.29
  0
LINE
  8
0
 10
-35.5146
 20
1523.29
 11
-35.4318
 21
1523.03
  0
LINE
  8
0
 10
-35.4318
 20
1523.03
 11
-35.3815
 21
1522.77
  0
LINE
  8
0
 10
-35.3815
 20
1522.77
 11
-35.3647
 21
1522.5
  0
LINE
  8
0
 10
-35.3647
 20
1522.5
 11
-35.3815
 21
1522.23
  0
LINE
  8
0
 10
-35.3815
 20
1522.23
 11
-35.4318
 21
1521.97
  0
LINE
  8
0
 10
-35.4318
 20
1521.97
 11
-35.5146
 21
1521.71
  0
LINE
  8
0
 10
-35.5146
 20
1521.71
 11
-35.6288
 21
1521.47
  0
LINE
  8
0
 10
-35.6288
 20
1521.47
 11
-35.7725
 21
1521.24
  0
LINE
  8
0
 10
-35.7725
 20
1521.24
 11
-35.9434
 21
1521.04
  0
LINE
  8
0
 10
-35.9434
 20
1521.04
 11
-36.1389
 21
1520.85
  0
LINE
  8
0
 10
-36.1389
 20
1520.85
 11
-36.3559
 21
1520.7
  0
LINE
  8
0
 10
-36.3559
 20
1520.7
 11
-36.5908
 21
1520.57
  0
LINE
  8
0
 10
-36.5908
 20
1520.57
 11
-36.8401
 21
1520.47
  0
LINE
  8
0
 10
-36.8401
 20
1520.47
 11
-37.0999
 21
1520.4
  0
LINE
  8
0
 10
-37.0999
 20
1520.4
 11
-37.3659
 21
1520.37
  0
LINE
  8
0
 10
-37.3659
 20
1520.37
 11
-37.6341
 21
1520.37
  0
LINE
  8
0
 10
37.3659
 20
1265.37
 11
37.0999
 21
1265.4
  0
LINE
  8
0
 10
37.0999
 20
1265.4
 11
36.8401
 21
1265.47
  0
LINE
  8
0
 10
36.8401
 20
1265.47
 11
36.5908
 21
1265.57
  0
LINE
  8
0
 10
36.5908
 20
1265.57
 11
36.3559
 21
1265.7
  0
LINE
  8
0
 10
36.3559
 20
1265.7
 11
36.1389
 21
1265.85
  0
LINE
  8
0
 10
36.1389
 20
1265.85
 11
35.9434
 21
1266.04
  0
LINE
  8
0
 10
35.9434
 20
1266.04
 11
35.7725
 21
1266.24
  0
LINE
  8
0
 10
35.7725
 20
1266.24
 11
35.6288
 21
1266.47
  0
LINE
  8
0
 10
35.6288
 20
1266.47
 11
35.5146
 21
1266.71
  0
LINE
  8
0
 10
35.5146
 20
1266.71
 11
35.4318
 21
1266.97
  0
LINE
  8
0
 10
35.4318
 20
1266.97
 11
35.3815
 21
1267.23
  0
LINE
  8
0
 10
35.3815
 20
1267.23
 11
35.3647
 21
1267.5
  0
LINE
  8
0
 10
35.3647
 20
1267.5
 11
35.3815
 21
1267.77
  0
LINE
  8
0
 10
35.3815
 20
1267.77
 11
35.4318
 21
1268.03
  0
LINE
  8
0
 10
35.4318
 20
1268.03
 11
35.5146
 21
1268.29
  0
LINE
  8
0
 10
35.5146
 20
1268.29
 11
35.6288
 21
1268.53
  0
LINE
  8
0
 10
35.6288
 20
1268.53
 11
35.7725
 21
1268.76
  0
LINE
  8
0
 10
35.7725
 20
1268.76
 11
35.9434
 21
1268.96
  0
LINE
  8
0
 10
35.9434
 20
1268.96
 11
36.1389
 21
1269.15
  0
LINE
  8
0
 10
36.1389
 20
1269.15
 11
36.3559
 21
1269.3
  0
LINE
  8
0
 10
36.3559
 20
1269.3
 11
36.5908
 21
1269.43
  0
LINE
  8
0
 10
36.5908
 20
1269.43
 11
36.8401
 21
1269.53
  0
LINE
  8
0
 10
36.8401
 20
1269.53
 11
37.0999
 21
1269.6
  0
LINE
  8
0
 10
37.0999
 20
1269.6
 11
37.3659
 21
1269.63
  0
LINE
  8
0
 10
37.3659
 20
1269.63
 11
37.6341
 21
1269.63
  0
LINE
  8
0
 10
37.6341
 20
1269.63
 11
37.9001
 21
1269.6
  0
LINE
  8
0
 10
37.9001
 20
1269.6
 11
38.1598
 21
1269.53
  0
LINE
  8
0
 10
38.1598
 20
1269.53
 11
38.4092
 21
1269.43
  0
LINE
  8
0
 10
38.4092
 20
1269.43
 11
38.6441
 21
1269.3
  0
LINE
  8
0
 10
38.6441
 20
1269.3
 11
38.8611
 21
1269.15
  0
LINE
  8
0
 10
38.8611
 20
1269.15
 11
39.0565
 21
1268.96
  0
LINE
  8
0
 10
39.0565
 20
1268.96
 11
39.2275
 21
1268.76
  0
LINE
  8
0
 10
39.2275
 20
1268.76
 11
39.3712
 21
1268.53
  0
LINE
  8
0
 10
39.3712
 20
1268.53
 11
39.4853
 21
1268.29
  0
LINE
  8
0
 10
39.4853
 20
1268.29
 11
39.5682
 21
1268.03
  0
LINE
  8
0
 10
39.5682
 20
1268.03
 11
39.6185
 21
1267.77
  0
LINE
  8
0
 10
39.6185
 20
1267.77
 11
39.6353
 21
1267.5
  0
LINE
  8
0
 10
39.6353
 20
1267.5
 11
39.6185
 21
1267.23
  0
LINE
  8
0
 10
39.6185
 20
1267.23
 11
39.5682
 21
1266.97
  0
LINE
  8
0
 10
39.5682
 20
1266.97
 11
39.4853
 21
1266.71
  0
LINE
  8
0
 10
39.4853
 20
1266.71
 11
39.3712
 21
1266.47
  0
LINE
  8
0
 10
39.3712
 20
1266.47
 11
39.2275
 21
1266.24
  0
LINE
  8
0
 10
39.2275
 20
1266.24
 11
39.0565
 21
1266.04
  0
LINE
  8
0
 10
39.0565
 20
1266.04
 11
38.8611
 21
1265.85
  0
LINE
  8
0
 10
38.8611
 20
1265.85
 11
38.6441
 21
1265.7
  0
LINE
  8
0
 10
38.6441
 20
1265.7
 11
38.4092
 21
1265.57
  0
LINE
  8
0
 10
38.4092
 20
1265.57
 11
38.1598
 21
1265.47
  0
LINE
  8
0
 10
38.1598
 20
1265.47
 11
37.9001
 21
1265.4
  0
LINE
  8
0
 10
37.9001
 20
1265.4
 11
37.6341
 21
1265.37
  0
LINE
  8
0
 10
37.6341
 20
1265.37
 11
37.3659
 21
1265.37
  0
LINE
  8
0
 10
-37.6341
 20
1265.37
 11
-37.9001
 21
1265.4
  0
LINE
  8
0
 10
-37.9001
 20
1265.4
 11
-38.1598
 21
1265.47
  0
LINE
  8
0
 10
-38.1598
 20
1265.47
 11
-38.4092
 21
1265.57
  0
LINE
  8
0
 10
-38.4092
 20
1265.57
 11
-38.6441
 21
1265.7
  0
LINE
  8
0
 10
-38.6441
 20
1265.7
 11
-38.8611
 21
1265.85
  0
LINE
  8
0
 10
-38.8611
 20
1265.85
 11
-39.0565
 21
1266.04
  0
LINE
  8
0
 10
-39.0565
 20
1266.04
 11
-39.2275
 21
1266.24
  0
LINE
  8
0
 10
-39.2275
 20
1266.24
 11
-39.3712
 21
1266.47
  0
LINE
  8
0
 10
-39.3712
 20
1266.47
 11
-39.4853
 21
1266.71
  0
LINE
  8
0
 10
-39.4853
 20
1266.71
 11
-39.5682
 21
1266.97
  0
LINE
  8
0
 10
-39.5682
 20
1266.97
 11
-39.6185
 21
1267.23
  0
LINE
  8
0
 10
-39.6185
 20
1267.23
 11
-39.6353
 21
1267.5
  0
LINE
  8
0
 10
-39.6353
 20
1267.5
 11
-39.6185
 21
1267.77
  0
LINE
  8
0
 10
-39.6185
 20
1267.77
 11
-39.5682
 21
1268.03
  0
LINE
  8
0
 10
-39.5682
 20
1268.03
 11
-39.4853
 21
1268.29
  0
LINE
  8
0
 10
-39.4853
 20
1268.29
 11
-39.3712
 21
1268.53
  0
LINE
  8
0
 10
-39.3712
 20
1268.53
 11
-39.2275
 21
1268.76
  0
LINE
  8
0
 10
-39.2275
 20
1268.76
 11
-39.0565
 21
1268.96
  0
LINE
  8
0
 10
-39.0565
 20
1268.96
 11
-38.8611
 21
1269.15
  0
LINE
  8
0
 10
-38.8611
 20
1269.15
 11
-38.6441
 21
1269.3
  0
LINE
  8
0
 10
-38.6441
 20
1269.3
 11
-38.4092
 21
1269.43
  0
LINE
  8
0
 10
-38.4092
 20
1269.43
 11
-38.1598
 21
1269.53
  0
LINE
  8
0
 10
-38.1598
 20
1269.53
 11
-37.9001
 21
1269.6
  0
LINE
  8
0
 10
-37.9001
 20
1269.6
 11
-37.6341
 21
1269.63
  0
LINE
  8
0
 10
-37.6341
 20
1269.63
 11
-37.3659
 21
1269.63
  0
LINE
  8
0
 10
-37.3659
 20
1269.63
 11
-37.0999
 21
1269.6
  0
LINE
  8
0
 10
-37.0999
 20
1269.6
 11
-36.8401
 21
1269.53
  0
LINE
  8
0
 10
-36.8401
 20
1269.53
 11
-36.5908
 21
1269.43
  0
LINE
  8
0
 10
-36.5908
 20
1269.43
 11
-36.3559
 21
1269.3
  0
LINE
  8
0
 10
-36.3559
 20
1269.3
 11
-36.1389
 21
1269.15
  0
LINE
  8
0
 10
-36.1389
 20
1269.15
 11
-35.9434
 21
1268.96
  0
LINE
  8
0
 10
-35.9434
 20
1268.96
 11
-35.7725
 21
1268.76
  0
LINE
  8
0
 10
-35.7725
 20
1268.76
 11
-35.6288
 21
1268.53
  0
LINE
  8
0
 10
-35.6288
 20
1268.53
 11
-35.5146
 21
1268.29
  0
LINE
  8
0
 10
-35.5146
 20
1268.29
 11
-35.4318
 21
1268.03
  0
LINE
  8
0
 10
-35.4318
 20
1268.03
 11
-35.3815
 21
1267.77
  0
LINE
  8
0
 10
-35.3815
 20
1267.77
 11
-35.3647
 21
1267.5
  0
LINE
  8
0
 10
-35.3647
 20
1267.5
 11
-35.3815
 21
1267.23
  0
LINE
  8
0
 10
-35.3815
 20
1267.23
 11
-35.4318
 21
1266.97
  0
LINE
  8
0
 10
-35.4318
 20
1266.97
 11
-35.5146
 21
1266.71
  0
LINE
  8
0
 10
-35.5146
 20
1266.71
 11
-35.6288
 21
1266.47
  0
LINE
  8
0
 10
-35.6288
 20
1266.47
 11
-35.7725
 21
1266.24
  0
LINE
  8
0
 10
-35.7725
 20
1266.24
 11
-35.9434
 21
1266.04
  0
LINE
  8
0
 10
-35.9434
 20
1266.04
 11
-36.1389
 21
1265.85
  0
LINE
  8
0
 10
-36.1389
 20
1265.85
 11
-36.3559
 21
1265.7
  0
LINE
  8
0
 10
-36.3559
 20
1265.7
 11
-36.5908
 21
1265.57
  0
LINE
  8
0
 10
-36.5908
 20
1265.57
 11
-36.8401
 21
1265.47
  0
LINE
  8
0
 10
-36.8401
 20
1265.47
 11
-37.0999
 21
1265.4
  0
LINE
  8
0
 10
-37.0999
 20
1265.4
 11
-37.3659
 21
1265.37
  0
LINE
  8
0
 10
-37.3659
 20
1265.37
 11
-37.6341
 21
1265.37
  0
ENDSEC
  0
SECTION
  2
OBJECTS
  0
DICTIONARY
  0
ENDSEC
  0
EOF
