  0
SECTION
  2
BLOCKS
  0
ENDSEC
  0
SECTION
  2
ENTITIES
  0
LINE
  8
0
 10
40.9369
 20
961.589
 11
41.5451
 21
961.745
  0
LINE
  8
0
 10
41.5451
 20
961.745
 11
42.1289
 21
961.976
  0
LINE
  8
0
 10
42.1289
 20
961.976
 11
42.6791
 21
962.278
  0
LINE
  8
0
 10
42.6791
 20
962.278
 11
43.1871
 21
962.647
  0
LINE
  8
0
 10
43.1871
 20
962.647
 11
43.6448
 21
963.077
  0
LINE
  8
0
 10
43.6448
 20
963.077
 11
44.0451
 21
963.561
  0
LINE
  8
0
 10
44.0451
 20
963.561
 11
44.3815
 21
964.091
  0
LINE
  8
0
 10
44.3815
 20
964.091
 11
44.6489
 21
964.659
  0
LINE
  8
0
 10
44.6489
 20
964.659
 11
44.8429
 21
965.257
  0
LINE
  8
0
 10
44.8429
 20
965.257
 11
44.9606
 21
965.873
  0
LINE
  8
0
 10
44.9606
 20
965.873
 11
45
 21
966.5
  0
LINE
  8
0
 10
45
 20
966.5
 11
45
 21
1121.5
  0
LINE
  8
0
 10
45
 20
1121.5
 11
44.9606
 21
1122.13
  0
LINE
  8
0
 10
44.9606
 20
1122.13
 11
44.8429
 21
1122.74
  0
LINE
  8
0
 10
44.8429
 20
1122.74
 11
44.6489
 21
1123.34
  0
LINE
  8
0
 10
44.6489
 20
1123.34
 11
44.3815
 21
1123.91
  0
LINE
  8
0
 10
44.3815
 20
1123.91
 11
44.0451
 21
1124.44
  0
LINE
  8
0
 10
44.0451
 20
1124.44
 11
43.6448
 21
1124.92
  0
LINE
  8
0
 10
43.6448
 20
1124.92
 11
43.1871
 21
1125.35
  0
LINE
  8
0
 10
43.1871
 20
1125.35
 11
42.6791
 21
1125.72
  0
LINE
  8
0
 10
42.6791
 20
1125.72
 11
42.1289
 21
1126.02
  0
LINE
  8
0
 10
42.1289
 20
1126.02
 11
41.5451
 21
1126.26
  0
LINE
  8
0
 10
41.5451
 20
1126.26
 11
40.9369
 21
1126.41
  0
LINE
  8
0
 10
40.9369
 20
1126.41
 11
40.3139
 21
1126.49
  0
LINE
  8
0
 10
40.3139
 20
1126.49
 11
-40.3139
 21
1126.49
  0
LINE
  8
0
 10
-40.3139
 20
1126.49
 11
-40.9369
 21
1126.41
  0
LINE
  8
0
 10
-40.9369
 20
1126.41
 11
-41.5451
 21
1126.26
  0
LINE
  8
0
 10
-41.5451
 20
1126.26
 11
-42
 21
1126.08
  0
LINE
  8
0
 10
-42
 20
1126.08
 11
-42
 21
1126.11
  0
LINE
  8
0
 10
-42
 20
1126.11
 11
-45
 21
1126.11
  0
LINE
  8
0
 10
-45
 20
1126.11
 11
-45
 21
961.885
  0
LINE
  8
0
 10
-45
 20
961.885
 11
-42
 21
961.885
  0
LINE
  8
0
 10
-42
 20
961.885
 11
-42
 21
961.925
  0
LINE
  8
0
 10
-42
 20
961.925
 11
-41.5451
 21
961.745
  0
LINE
  8
0
 10
-41.5451
 20
961.745
 11
-40.9369
 21
961.589
  0
LINE
  8
0
 10
-40.9369
 20
961.589
 11
-40.3139
 21
961.51
  0
LINE
  8
0
 10
-40.3139
 20
961.51
 11
40.3139
 21
961.51
  0
LINE
  8
0
 10
40.3139
 20
961.51
 11
40.9369
 21
961.589
  0
LINE
  8
0
 10
-39.7512
 20
963.008
 11
-40.2495
 21
963.071
  0
LINE
  8
0
 10
-40.2495
 20
963.071
 11
-40.7361
 21
963.196
  0
LINE
  8
0
 10
-40.7361
 20
963.196
 11
-41.2031
 21
963.381
  0
LINE
  8
0
 10
-41.2031
 20
963.381
 11
-41.6433
 21
963.623
  0
LINE
  8
0
 10
-41.6433
 20
963.623
 11
-42.0497
 21
963.918
  0
LINE
  8
0
 10
-42.0497
 20
963.918
 11
-42.4159
 21
964.262
  0
LINE
  8
0
 10
-42.4159
 20
964.262
 11
-42.7361
 21
964.649
  0
LINE
  8
0
 10
-42.7361
 20
964.649
 11
-43.0052
 21
965.073
  0
LINE
  8
0
 10
-43.0052
 20
965.073
 11
-43.2191
 21
965.528
  0
LINE
  8
0
 10
-43.2191
 20
965.528
 11
-43.3743
 21
966.005
  0
LINE
  8
0
 10
-43.3743
 20
966.005
 11
-43.4685
 21
966.499
  0
LINE
  8
0
 10
-43.4685
 20
966.499
 11
-43.5
 21
967
  0
LINE
  8
0
 10
-43.5
 20
967
 11
-43.5
 21
1121
  0
LINE
  8
0
 10
-43.5
 20
1121
 11
-43.4685
 21
1121.5
  0
LINE
  8
0
 10
-43.4685
 20
1121.5
 11
-43.3743
 21
1121.99
  0
LINE
  8
0
 10
-43.3743
 20
1121.99
 11
-43.2191
 21
1122.47
  0
LINE
  8
0
 10
-43.2191
 20
1122.47
 11
-43.0052
 21
1122.93
  0
LINE
  8
0
 10
-43.0052
 20
1122.93
 11
-42.7361
 21
1123.35
  0
LINE
  8
0
 10
-42.7361
 20
1123.35
 11
-42.4159
 21
1123.74
  0
LINE
  8
0
 10
-42.4159
 20
1123.74
 11
-42.0497
 21
1124.08
  0
LINE
  8
0
 10
-42.0497
 20
1124.08
 11
-41.6433
 21
1124.38
  0
LINE
  8
0
 10
-41.6433
 20
1124.38
 11
-41.2031
 21
1124.62
  0
LINE
  8
0
 10
-41.2031
 20
1124.62
 11
-40.7361
 21
1124.8
  0
LINE
  8
0
 10
-40.7361
 20
1124.8
 11
-40.2495
 21
1124.93
  0
LINE
  8
0
 10
-40.2495
 20
1124.93
 11
-39.7512
 21
1124.99
  0
LINE
  8
0
 10
-39.7512
 20
1124.99
 11
39.7512
 21
1124.99
  0
LINE
  8
0
 10
39.7512
 20
1124.99
 11
40.2495
 21
1124.93
  0
LINE
  8
0
 10
40.2495
 20
1124.93
 11
40.7361
 21
1124.8
  0
LINE
  8
0
 10
40.7361
 20
1124.8
 11
41.2031
 21
1124.62
  0
LINE
  8
0
 10
41.2031
 20
1124.62
 11
41.6433
 21
1124.38
  0
LINE
  8
0
 10
41.6433
 20
1124.38
 11
42.0497
 21
1124.08
  0
LINE
  8
0
 10
42.0497
 20
1124.08
 11
42.4159
 21
1123.74
  0
LINE
  8
0
 10
42.4159
 20
1123.74
 11
42.7361
 21
1123.35
  0
LINE
  8
0
 10
42.7361
 20
1123.35
 11
43.0052
 21
1122.93
  0
LINE
  8
0
 10
43.0052
 20
1122.93
 11
43.2191
 21
1122.47
  0
LINE
  8
0
 10
43.2191
 20
1122.47
 11
43.3743
 21
1121.99
  0
LINE
  8
0
 10
43.3743
 20
1121.99
 11
43.4685
 21
1121.5
  0
LINE
  8
0
 10
43.4685
 20
1121.5
 11
43.5
 21
1121
  0
LINE
  8
0
 10
43.5
 20
1121
 11
43.5
 21
967
  0
LINE
  8
0
 10
43.5
 20
967
 11
43.4685
 21
966.499
  0
LINE
  8
0
 10
43.4685
 20
966.499
 11
43.3743
 21
966.005
  0
LINE
  8
0
 10
43.3743
 20
966.005
 11
43.2191
 21
965.528
  0
LINE
  8
0
 10
43.2191
 20
965.528
 11
43.0052
 21
965.073
  0
LINE
  8
0
 10
43.0052
 20
965.073
 11
42.7361
 21
964.649
  0
LINE
  8
0
 10
42.7361
 20
964.649
 11
42.4159
 21
964.262
  0
LINE
  8
0
 10
42.4159
 20
964.262
 11
42.0497
 21
963.918
  0
LINE
  8
0
 10
42.0497
 20
963.918
 11
41.6433
 21
963.623
  0
LINE
  8
0
 10
41.6433
 20
963.623
 11
41.2031
 21
963.381
  0
LINE
  8
0
 10
41.2031
 20
963.381
 11
40.7361
 21
963.196
  0
LINE
  8
0
 10
40.7361
 20
963.196
 11
40.2495
 21
963.071
  0
LINE
  8
0
 10
40.2495
 20
963.071
 11
39.7512
 21
963.008
  0
LINE
  8
0
 10
39.7512
 20
963.008
 11
-39.7512
 21
963.008
  0
LINE
  8
0
 10
40.9369
 20
787.589
 11
41.5451
 21
787.745
  0
LINE
  8
0
 10
41.5451
 20
787.745
 11
42.1289
 21
787.976
  0
LINE
  8
0
 10
42.1289
 20
787.976
 11
42.6791
 21
788.278
  0
LINE
  8
0
 10
42.6791
 20
788.278
 11
43.1871
 21
788.647
  0
LINE
  8
0
 10
43.1871
 20
788.647
 11
43.6448
 21
789.077
  0
LINE
  8
0
 10
43.6448
 20
789.077
 11
44.0451
 21
789.561
  0
LINE
  8
0
 10
44.0451
 20
789.561
 11
44.3815
 21
790.091
  0
LINE
  8
0
 10
44.3815
 20
790.091
 11
44.6489
 21
790.659
  0
LINE
  8
0
 10
44.6489
 20
790.659
 11
44.8429
 21
791.257
  0
LINE
  8
0
 10
44.8429
 20
791.257
 11
44.9606
 21
791.873
  0
LINE
  8
0
 10
44.9606
 20
791.873
 11
45
 21
792.5
  0
LINE
  8
0
 10
45
 20
792.5
 11
45
 21
947.5
  0
LINE
  8
0
 10
45
 20
947.5
 11
44.9606
 21
948.127
  0
LINE
  8
0
 10
44.9606
 20
948.127
 11
44.8429
 21
948.743
  0
LINE
  8
0
 10
44.8429
 20
948.743
 11
44.6489
 21
949.341
  0
LINE
  8
0
 10
44.6489
 20
949.341
 11
44.3815
 21
949.909
  0
LINE
  8
0
 10
44.3815
 20
949.909
 11
44.0451
 21
950.439
  0
LINE
  8
0
 10
44.0451
 20
950.439
 11
43.6448
 21
950.923
  0
LINE
  8
0
 10
43.6448
 20
950.923
 11
43.1871
 21
951.353
  0
LINE
  8
0
 10
43.1871
 20
951.353
 11
42.6791
 21
951.722
  0
LINE
  8
0
 10
42.6791
 20
951.722
 11
42.1289
 21
952.024
  0
LINE
  8
0
 10
42.1289
 20
952.024
 11
41.5451
 21
952.255
  0
LINE
  8
0
 10
41.5451
 20
952.255
 11
40.9369
 21
952.411
  0
LINE
  8
0
 10
40.9369
 20
952.411
 11
40.3139
 21
952.49
  0
LINE
  8
0
 10
40.3139
 20
952.49
 11
-40.3139
 21
952.49
  0
LINE
  8
0
 10
-40.3139
 20
952.49
 11
-40.9369
 21
952.411
  0
LINE
  8
0
 10
-40.9369
 20
952.411
 11
-41.5451
 21
952.255
  0
LINE
  8
0
 10
-41.5451
 20
952.255
 11
-42.1289
 21
952.024
  0
LINE
  8
0
 10
-42.1289
 20
952.024
 11
-42.6791
 21
951.722
  0
LINE
  8
0
 10
-42.6791
 20
951.722
 11
-43.1871
 21
951.353
  0
LINE
  8
0
 10
-43.1871
 20
951.353
 11
-43.6448
 21
950.923
  0
LINE
  8
0
 10
-43.6448
 20
950.923
 11
-44.0451
 21
950.439
  0
LINE
  8
0
 10
-44.0451
 20
950.439
 11
-44.3815
 21
949.909
  0
LINE
  8
0
 10
-44.3815
 20
949.909
 11
-44.6489
 21
949.341
  0
LINE
  8
0
 10
-44.6489
 20
949.341
 11
-44.8429
 21
948.743
  0
LINE
  8
0
 10
-44.8429
 20
948.743
 11
-44.9
 21
948.444
  0
LINE
  8
0
 10
-44.9
 20
948.444
 11
-45
 21
948.444
  0
LINE
  8
0
 10
-45
 20
948.444
 11
-45
 21
791.556
  0
LINE
  8
0
 10
-45
 20
791.556
 11
-44.9
 21
791.556
  0
LINE
  8
0
 10
-44.9
 20
791.556
 11
-44.8429
 21
791.257
  0
LINE
  8
0
 10
-44.8429
 20
791.257
 11
-44.6489
 21
790.659
  0
LINE
  8
0
 10
-44.6489
 20
790.659
 11
-44.3815
 21
790.091
  0
LINE
  8
0
 10
-44.3815
 20
790.091
 11
-44.0451
 21
789.561
  0
LINE
  8
0
 10
-44.0451
 20
789.561
 11
-43.6448
 21
789.077
  0
LINE
  8
0
 10
-43.6448
 20
789.077
 11
-43.1871
 21
788.647
  0
LINE
  8
0
 10
-43.1871
 20
788.647
 11
-42.6791
 21
788.278
  0
LINE
  8
0
 10
-42.6791
 20
788.278
 11
-42.1289
 21
787.976
  0
LINE
  8
0
 10
-42.1289
 20
787.976
 11
-41.5451
 21
787.745
  0
LINE
  8
0
 10
-41.5451
 20
787.745
 11
-40.9369
 21
787.589
  0
LINE
  8
0
 10
-40.9369
 20
787.589
 11
-40.3139
 21
787.51
  0
LINE
  8
0
 10
-40.3139
 20
787.51
 11
40.3139
 21
787.51
  0
LINE
  8
0
 10
40.3139
 20
787.51
 11
40.9369
 21
787.589
  0
LINE
  8
0
 10
-39.7432
 20
789.135
 11
-40.2256
 21
789.196
  0
LINE
  8
0
 10
-40.2256
 20
789.196
 11
-40.6967
 21
789.317
  0
LINE
  8
0
 10
-40.6967
 20
789.317
 11
-41.1489
 21
789.496
  0
LINE
  8
0
 10
-41.1489
 20
789.496
 11
-41.5751
 21
789.73
  0
LINE
  8
0
 10
-41.5751
 20
789.73
 11
-41.9685
 21
790.016
  0
LINE
  8
0
 10
-41.9685
 20
790.016
 11
-42.323
 21
790.349
  0
LINE
  8
0
 10
-42.323
 20
790.349
 11
-42.633
 21
790.724
  0
LINE
  8
0
 10
-42.633
 20
790.724
 11
-42.8936
 21
791.134
  0
LINE
  8
0
 10
-42.8936
 20
791.134
 11
-43.1007
 21
791.574
  0
LINE
  8
0
 10
-43.1007
 20
791.574
 11
-43.251
 21
792.037
  0
LINE
  8
0
 10
-43.251
 20
792.037
 11
-43.3421
 21
792.515
  0
LINE
  8
0
 10
-43.3421
 20
792.515
 11
-43.3726
 21
793
  0
LINE
  8
0
 10
-43.3726
 20
793
 11
-43.3726
 21
947
  0
LINE
  8
0
 10
-43.3726
 20
947
 11
-43.3421
 21
947.485
  0
LINE
  8
0
 10
-43.3421
 20
947.485
 11
-43.251
 21
947.963
  0
LINE
  8
0
 10
-43.251
 20
947.963
 11
-43.1007
 21
948.426
  0
LINE
  8
0
 10
-43.1007
 20
948.426
 11
-42.8936
 21
948.866
  0
LINE
  8
0
 10
-42.8936
 20
948.866
 11
-42.633
 21
949.276
  0
LINE
  8
0
 10
-42.633
 20
949.276
 11
-42.323
 21
949.651
  0
LINE
  8
0
 10
-42.323
 20
949.651
 11
-41.9685
 21
949.984
  0
LINE
  8
0
 10
-41.9685
 20
949.984
 11
-41.5751
 21
950.27
  0
LINE
  8
0
 10
-41.5751
 20
950.27
 11
-41.1489
 21
950.504
  0
LINE
  8
0
 10
-41.1489
 20
950.504
 11
-40.6967
 21
950.683
  0
LINE
  8
0
 10
-40.6967
 20
950.683
 11
-40.2256
 21
950.804
  0
LINE
  8
0
 10
-40.2256
 20
950.804
 11
-39.7432
 21
950.865
  0
LINE
  8
0
 10
-39.7432
 20
950.865
 11
39.7432
 21
950.865
  0
LINE
  8
0
 10
39.7432
 20
950.865
 11
40.2256
 21
950.804
  0
LINE
  8
0
 10
40.2256
 20
950.804
 11
40.6967
 21
950.683
  0
LINE
  8
0
 10
40.6967
 20
950.683
 11
41.1489
 21
950.504
  0
LINE
  8
0
 10
41.1489
 20
950.504
 11
41.5751
 21
950.27
  0
LINE
  8
0
 10
41.5751
 20
950.27
 11
41.9685
 21
949.984
  0
LINE
  8
0
 10
41.9685
 20
949.984
 11
42.323
 21
949.651
  0
LINE
  8
0
 10
42.323
 20
949.651
 11
42.633
 21
949.276
  0
LINE
  8
0
 10
42.633
 20
949.276
 11
42.8936
 21
948.866
  0
LINE
  8
0
 10
42.8936
 20
948.866
 11
43.1007
 21
948.426
  0
LINE
  8
0
 10
43.1007
 20
948.426
 11
43.251
 21
947.963
  0
LINE
  8
0
 10
43.251
 20
947.963
 11
43.3421
 21
947.485
  0
LINE
  8
0
 10
43.3421
 20
947.485
 11
43.3726
 21
947
  0
LINE
  8
0
 10
43.3726
 20
947
 11
43.3726
 21
793
  0
LINE
  8
0
 10
43.3726
 20
793
 11
43.3421
 21
792.515
  0
LINE
  8
0
 10
43.3421
 20
792.515
 11
43.251
 21
792.037
  0
LINE
  8
0
 10
43.251
 20
792.037
 11
43.1007
 21
791.574
  0
LINE
  8
0
 10
43.1007
 20
791.574
 11
42.8936
 21
791.134
  0
LINE
  8
0
 10
42.8936
 20
791.134
 11
42.633
 21
790.724
  0
LINE
  8
0
 10
42.633
 20
790.724
 11
42.323
 21
790.349
  0
LINE
  8
0
 10
42.323
 20
790.349
 11
41.9685
 21
790.016
  0
LINE
  8
0
 10
41.9685
 20
790.016
 11
41.5751
 21
789.73
  0
LINE
  8
0
 10
41.5751
 20
789.73
 11
41.1489
 21
789.496
  0
LINE
  8
0
 10
41.1489
 20
789.496
 11
40.6967
 21
789.317
  0
LINE
  8
0
 10
40.6967
 20
789.317
 11
40.2256
 21
789.196
  0
LINE
  8
0
 10
40.2256
 20
789.196
 11
39.7432
 21
789.135
  0
LINE
  8
0
 10
39.7432
 20
789.135
 11
-39.7432
 21
789.135
  0
LINE
  8
0
 10
40.9369
 20
613.589
 11
41.5451
 21
613.745
  0
LINE
  8
0
 10
41.5451
 20
613.745
 11
42.1289
 21
613.976
  0
LINE
  8
0
 10
42.1289
 20
613.976
 11
42.6791
 21
614.278
  0
LINE
  8
0
 10
42.6791
 20
614.278
 11
43.1871
 21
614.647
  0
LINE
  8
0
 10
43.1871
 20
614.647
 11
43.6448
 21
615.077
  0
LINE
  8
0
 10
43.6448
 20
615.077
 11
44.0451
 21
615.561
  0
LINE
  8
0
 10
44.0451
 20
615.561
 11
44.3815
 21
616.091
  0
LINE
  8
0
 10
44.3815
 20
616.091
 11
44.6489
 21
616.659
  0
LINE
  8
0
 10
44.6489
 20
616.659
 11
44.8429
 21
617.257
  0
LINE
  8
0
 10
44.8429
 20
617.257
 11
44.9606
 21
617.873
  0
LINE
  8
0
 10
44.9606
 20
617.873
 11
45
 21
618.5
  0
LINE
  8
0
 10
45
 20
618.5
 11
45
 21
773.5
  0
LINE
  8
0
 10
45
 20
773.5
 11
44.9606
 21
774.127
  0
LINE
  8
0
 10
44.9606
 20
774.127
 11
44.8429
 21
774.743
  0
LINE
  8
0
 10
44.8429
 20
774.743
 11
44.6489
 21
775.341
  0
LINE
  8
0
 10
44.6489
 20
775.341
 11
44.3815
 21
775.909
  0
LINE
  8
0
 10
44.3815
 20
775.909
 11
44.0451
 21
776.439
  0
LINE
  8
0
 10
44.0451
 20
776.439
 11
43.6448
 21
776.923
  0
LINE
  8
0
 10
43.6448
 20
776.923
 11
43.1871
 21
777.353
  0
LINE
  8
0
 10
43.1871
 20
777.353
 11
42.6791
 21
777.722
  0
LINE
  8
0
 10
42.6791
 20
777.722
 11
42.1289
 21
778.024
  0
LINE
  8
0
 10
42.1289
 20
778.024
 11
41.5451
 21
778.255
  0
LINE
  8
0
 10
41.5451
 20
778.255
 11
40.9369
 21
778.411
  0
LINE
  8
0
 10
40.9369
 20
778.411
 11
40.3139
 21
778.49
  0
LINE
  8
0
 10
40.3139
 20
778.49
 11
-40.3139
 21
778.49
  0
LINE
  8
0
 10
-40.3139
 20
778.49
 11
-40.9369
 21
778.411
  0
LINE
  8
0
 10
-40.9369
 20
778.411
 11
-41.5451
 21
778.255
  0
LINE
  8
0
 10
-41.5451
 20
778.255
 11
-42.1289
 21
778.024
  0
LINE
  8
0
 10
-42.1289
 20
778.024
 11
-42.6791
 21
777.722
  0
LINE
  8
0
 10
-42.6791
 20
777.722
 11
-43.1871
 21
777.353
  0
LINE
  8
0
 10
-43.1871
 20
777.353
 11
-43.6448
 21
776.923
  0
LINE
  8
0
 10
-43.6448
 20
776.923
 11
-44.0451
 21
776.439
  0
LINE
  8
0
 10
-44.0451
 20
776.439
 11
-44.3815
 21
775.909
  0
LINE
  8
0
 10
-44.3815
 20
775.909
 11
-44.6489
 21
775.341
  0
LINE
  8
0
 10
-44.6489
 20
775.341
 11
-44.8429
 21
774.743
  0
LINE
  8
0
 10
-44.8429
 20
774.743
 11
-44.9606
 21
774.127
  0
LINE
  8
0
 10
-44.9606
 20
774.127
 11
-45
 21
773.5
  0
LINE
  8
0
 10
-45
 20
773.5
 11
-45
 21
618.5
  0
LINE
  8
0
 10
-45
 20
618.5
 11
-44.9606
 21
617.873
  0
LINE
  8
0
 10
-44.9606
 20
617.873
 11
-44.8429
 21
617.257
  0
LINE
  8
0
 10
-44.8429
 20
617.257
 11
-44.6489
 21
616.659
  0
LINE
  8
0
 10
-44.6489
 20
616.659
 11
-44.3815
 21
616.091
  0
LINE
  8
0
 10
-44.3815
 20
616.091
 11
-44.0451
 21
615.561
  0
LINE
  8
0
 10
-44.0451
 20
615.561
 11
-43.6448
 21
615.077
  0
LINE
  8
0
 10
-43.6448
 20
615.077
 11
-43.1871
 21
614.647
  0
LINE
  8
0
 10
-43.1871
 20
614.647
 11
-42.6791
 21
614.278
  0
LINE
  8
0
 10
-42.6791
 20
614.278
 11
-42.1289
 21
613.976
  0
LINE
  8
0
 10
-42.1289
 20
613.976
 11
-41.5451
 21
613.745
  0
LINE
  8
0
 10
-41.5451
 20
613.745
 11
-40.9369
 21
613.589
  0
LINE
  8
0
 10
-40.9369
 20
613.589
 11
-40.3139
 21
613.51
  0
LINE
  8
0
 10
-40.3139
 20
613.51
 11
40.3139
 21
613.51
  0
LINE
  8
0
 10
40.3139
 20
613.51
 11
40.9369
 21
613.589
  0
LINE
  8
0
 10
37.3493
 20
768.605
 11
37.0503
 21
768.643
  0
LINE
  8
0
 10
37.0503
 20
768.643
 11
36.7584
 21
768.717
  0
LINE
  8
0
 10
36.7584
 20
768.717
 11
36.4781
 21
768.828
  0
LINE
  8
0
 10
36.4781
 20
768.828
 11
36.214
 21
768.974
  0
LINE
  8
0
 10
36.214
 20
768.974
 11
35.9702
 21
769.151
  0
LINE
  8
0
 10
35.9702
 20
769.151
 11
35.7505
 21
769.357
  0
LINE
  8
0
 10
35.7505
 20
769.357
 11
35.5583
 21
769.589
  0
LINE
  8
0
 10
35.5583
 20
769.589
 11
35.3969
 21
769.844
  0
LINE
  8
0
 10
35.3969
 20
769.844
 11
35.2685
 21
770.117
  0
LINE
  8
0
 10
35.2685
 20
770.117
 11
35.1754
 21
770.403
  0
LINE
  8
0
 10
35.1754
 20
770.403
 11
35.1189
 21
770.699
  0
LINE
  8
0
 10
35.1189
 20
770.699
 11
35.1
 21
771
  0
LINE
  8
0
 10
35.1
 20
771
 11
35.1189
 21
771.301
  0
LINE
  8
0
 10
35.1189
 20
771.301
 11
35.1754
 21
771.597
  0
LINE
  8
0
 10
35.1754
 20
771.597
 11
35.2685
 21
771.883
  0
LINE
  8
0
 10
35.2685
 20
771.883
 11
35.3969
 21
772.156
  0
LINE
  8
0
 10
35.3969
 20
772.156
 11
35.5583
 21
772.411
  0
LINE
  8
0
 10
35.5583
 20
772.411
 11
35.7505
 21
772.643
  0
LINE
  8
0
 10
35.7505
 20
772.643
 11
35.9702
 21
772.849
  0
LINE
  8
0
 10
35.9702
 20
772.849
 11
36.214
 21
773.026
  0
LINE
  8
0
 10
36.214
 20
773.026
 11
36.4781
 21
773.172
  0
LINE
  8
0
 10
36.4781
 20
773.172
 11
36.7584
 21
773.283
  0
LINE
  8
0
 10
36.7584
 20
773.283
 11
37.0503
 21
773.357
  0
LINE
  8
0
 10
37.0503
 20
773.357
 11
37.3493
 21
773.395
  0
LINE
  8
0
 10
37.3493
 20
773.395
 11
37.6507
 21
773.395
  0
LINE
  8
0
 10
37.6507
 20
773.395
 11
37.9497
 21
773.357
  0
LINE
  8
0
 10
37.9497
 20
773.357
 11
38.2416
 21
773.283
  0
LINE
  8
0
 10
38.2416
 20
773.283
 11
38.5219
 21
773.172
  0
LINE
  8
0
 10
38.5219
 20
773.172
 11
38.786
 21
773.026
  0
LINE
  8
0
 10
38.786
 20
773.026
 11
39.0298
 21
772.849
  0
LINE
  8
0
 10
39.0298
 20
772.849
 11
39.2495
 21
772.643
  0
LINE
  8
0
 10
39.2495
 20
772.643
 11
39.4416
 21
772.411
  0
LINE
  8
0
 10
39.4416
 20
772.411
 11
39.6031
 21
772.156
  0
LINE
  8
0
 10
39.6031
 20
772.156
 11
39.7315
 21
771.883
  0
LINE
  8
0
 10
39.7315
 20
771.883
 11
39.8246
 21
771.597
  0
LINE
  8
0
 10
39.8246
 20
771.597
 11
39.8811
 21
771.301
  0
LINE
  8
0
 10
39.8811
 20
771.301
 11
39.9
 21
771
  0
LINE
  8
0
 10
39.9
 20
771
 11
39.8811
 21
770.699
  0
LINE
  8
0
 10
39.8811
 20
770.699
 11
39.8246
 21
770.403
  0
LINE
  8
0
 10
39.8246
 20
770.403
 11
39.7315
 21
770.117
  0
LINE
  8
0
 10
39.7315
 20
770.117
 11
39.6031
 21
769.844
  0
LINE
  8
0
 10
39.6031
 20
769.844
 11
39.4416
 21
769.589
  0
LINE
  8
0
 10
39.4416
 20
769.589
 11
39.2495
 21
769.357
  0
LINE
  8
0
 10
39.2495
 20
769.357
 11
39.0298
 21
769.151
  0
LINE
  8
0
 10
39.0298
 20
769.151
 11
38.786
 21
768.974
  0
LINE
  8
0
 10
38.786
 20
768.974
 11
38.5219
 21
768.828
  0
LINE
  8
0
 10
38.5219
 20
768.828
 11
38.2416
 21
768.717
  0
LINE
  8
0
 10
38.2416
 20
768.717
 11
37.9497
 21
768.643
  0
LINE
  8
0
 10
37.9497
 20
768.643
 11
37.6507
 21
768.605
  0
LINE
  8
0
 10
37.6507
 20
768.605
 11
37.3493
 21
768.605
  0
LINE
  8
0
 10
-37.6507
 20
768.605
 11
-37.9497
 21
768.643
  0
LINE
  8
0
 10
-37.9497
 20
768.643
 11
-38.2416
 21
768.717
  0
LINE
  8
0
 10
-38.2416
 20
768.717
 11
-38.5219
 21
768.828
  0
LINE
  8
0
 10
-38.5219
 20
768.828
 11
-38.786
 21
768.974
  0
LINE
  8
0
 10
-38.786
 20
768.974
 11
-39.0298
 21
769.151
  0
LINE
  8
0
 10
-39.0298
 20
769.151
 11
-39.2495
 21
769.357
  0
LINE
  8
0
 10
-39.2495
 20
769.357
 11
-39.4416
 21
769.589
  0
LINE
  8
0
 10
-39.4416
 20
769.589
 11
-39.6031
 21
769.844
  0
LINE
  8
0
 10
-39.6031
 20
769.844
 11
-39.7315
 21
770.117
  0
LINE
  8
0
 10
-39.7315
 20
770.117
 11
-39.8246
 21
770.403
  0
LINE
  8
0
 10
-39.8246
 20
770.403
 11
-39.8811
 21
770.699
  0
LINE
  8
0
 10
-39.8811
 20
770.699
 11
-39.9
 21
771
  0
LINE
  8
0
 10
-39.9
 20
771
 11
-39.8811
 21
771.301
  0
LINE
  8
0
 10
-39.8811
 20
771.301
 11
-39.8246
 21
771.597
  0
LINE
  8
0
 10
-39.8246
 20
771.597
 11
-39.7315
 21
771.883
  0
LINE
  8
0
 10
-39.7315
 20
771.883
 11
-39.6031
 21
772.156
  0
LINE
  8
0
 10
-39.6031
 20
772.156
 11
-39.4416
 21
772.411
  0
LINE
  8
0
 10
-39.4416
 20
772.411
 11
-39.2495
 21
772.643
  0
LINE
  8
0
 10
-39.2495
 20
772.643
 11
-39.0298
 21
772.849
  0
LINE
  8
0
 10
-39.0298
 20
772.849
 11
-38.786
 21
773.026
  0
LINE
  8
0
 10
-38.786
 20
773.026
 11
-38.5219
 21
773.172
  0
LINE
  8
0
 10
-38.5219
 20
773.172
 11
-38.2416
 21
773.283
  0
LINE
  8
0
 10
-38.2416
 20
773.283
 11
-37.9497
 21
773.357
  0
LINE
  8
0
 10
-37.9497
 20
773.357
 11
-37.6507
 21
773.395
  0
LINE
  8
0
 10
-37.6507
 20
773.395
 11
-37.3493
 21
773.395
  0
LINE
  8
0
 10
-37.3493
 20
773.395
 11
-37.0503
 21
773.357
  0
LINE
  8
0
 10
-37.0503
 20
773.357
 11
-36.7584
 21
773.283
  0
LINE
  8
0
 10
-36.7584
 20
773.283
 11
-36.4781
 21
773.172
  0
LINE
  8
0
 10
-36.4781
 20
773.172
 11
-36.214
 21
773.026
  0
LINE
  8
0
 10
-36.214
 20
773.026
 11
-35.9702
 21
772.849
  0
LINE
  8
0
 10
-35.9702
 20
772.849
 11
-35.7505
 21
772.643
  0
LINE
  8
0
 10
-35.7505
 20
772.643
 11
-35.5583
 21
772.411
  0
LINE
  8
0
 10
-35.5583
 20
772.411
 11
-35.3969
 21
772.156
  0
LINE
  8
0
 10
-35.3969
 20
772.156
 11
-35.2685
 21
771.883
  0
LINE
  8
0
 10
-35.2685
 20
771.883
 11
-35.1754
 21
771.597
  0
LINE
  8
0
 10
-35.1754
 20
771.597
 11
-35.1189
 21
771.301
  0
LINE
  8
0
 10
-35.1189
 20
771.301
 11
-35.1
 21
771
  0
LINE
  8
0
 10
-35.1
 20
771
 11
-35.1189
 21
770.699
  0
LINE
  8
0
 10
-35.1189
 20
770.699
 11
-35.1754
 21
770.403
  0
LINE
  8
0
 10
-35.1754
 20
770.403
 11
-35.2685
 21
770.117
  0
LINE
  8
0
 10
-35.2685
 20
770.117
 11
-35.3969
 21
769.844
  0
LINE
  8
0
 10
-35.3969
 20
769.844
 11
-35.5583
 21
769.589
  0
LINE
  8
0
 10
-35.5583
 20
769.589
 11
-35.7505
 21
769.357
  0
LINE
  8
0
 10
-35.7505
 20
769.357
 11
-35.9702
 21
769.151
  0
LINE
  8
0
 10
-35.9702
 20
769.151
 11
-36.214
 21
768.974
  0
LINE
  8
0
 10
-36.214
 20
768.974
 11
-36.4781
 21
768.828
  0
LINE
  8
0
 10
-36.4781
 20
768.828
 11
-36.7584
 21
768.717
  0
LINE
  8
0
 10
-36.7584
 20
768.717
 11
-37.0503
 21
768.643
  0
LINE
  8
0
 10
-37.0503
 20
768.643
 11
-37.3493
 21
768.605
  0
LINE
  8
0
 10
-37.3493
 20
768.605
 11
-37.6507
 21
768.605
  0
LINE
  8
0
 10
37.3493
 20
618.605
 11
37.0503
 21
618.643
  0
LINE
  8
0
 10
37.0503
 20
618.643
 11
36.7584
 21
618.717
  0
LINE
  8
0
 10
36.7584
 20
618.717
 11
36.4781
 21
618.828
  0
LINE
  8
0
 10
36.4781
 20
618.828
 11
36.214
 21
618.974
  0
LINE
  8
0
 10
36.214
 20
618.974
 11
35.9702
 21
619.151
  0
LINE
  8
0
 10
35.9702
 20
619.151
 11
35.7505
 21
619.357
  0
LINE
  8
0
 10
35.7505
 20
619.357
 11
35.5583
 21
619.589
  0
LINE
  8
0
 10
35.5583
 20
619.589
 11
35.3969
 21
619.844
  0
LINE
  8
0
 10
35.3969
 20
619.844
 11
35.2685
 21
620.117
  0
LINE
  8
0
 10
35.2685
 20
620.117
 11
35.1754
 21
620.403
  0
LINE
  8
0
 10
35.1754
 20
620.403
 11
35.1189
 21
620.699
  0
LINE
  8
0
 10
35.1189
 20
620.699
 11
35.1
 21
621
  0
LINE
  8
0
 10
35.1
 20
621
 11
35.1189
 21
621.301
  0
LINE
  8
0
 10
35.1189
 20
621.301
 11
35.1754
 21
621.597
  0
LINE
  8
0
 10
35.1754
 20
621.597
 11
35.2685
 21
621.883
  0
LINE
  8
0
 10
35.2685
 20
621.883
 11
35.3969
 21
622.156
  0
LINE
  8
0
 10
35.3969
 20
622.156
 11
35.5583
 21
622.411
  0
LINE
  8
0
 10
35.5583
 20
622.411
 11
35.7505
 21
622.643
  0
LINE
  8
0
 10
35.7505
 20
622.643
 11
35.9702
 21
622.849
  0
LINE
  8
0
 10
35.9702
 20
622.849
 11
36.214
 21
623.026
  0
LINE
  8
0
 10
36.214
 20
623.026
 11
36.4781
 21
623.172
  0
LINE
  8
0
 10
36.4781
 20
623.172
 11
36.7584
 21
623.283
  0
LINE
  8
0
 10
36.7584
 20
623.283
 11
37.0503
 21
623.357
  0
LINE
  8
0
 10
37.0503
 20
623.357
 11
37.3493
 21
623.395
  0
LINE
  8
0
 10
37.3493
 20
623.395
 11
37.6507
 21
623.395
  0
LINE
  8
0
 10
37.6507
 20
623.395
 11
37.9497
 21
623.357
  0
LINE
  8
0
 10
37.9497
 20
623.357
 11
38.2416
 21
623.283
  0
LINE
  8
0
 10
38.2416
 20
623.283
 11
38.5219
 21
623.172
  0
LINE
  8
0
 10
38.5219
 20
623.172
 11
38.786
 21
623.026
  0
LINE
  8
0
 10
38.786
 20
623.026
 11
39.0298
 21
622.849
  0
LINE
  8
0
 10
39.0298
 20
622.849
 11
39.2495
 21
622.643
  0
LINE
  8
0
 10
39.2495
 20
622.643
 11
39.4416
 21
622.411
  0
LINE
  8
0
 10
39.4416
 20
622.411
 11
39.6031
 21
622.156
  0
LINE
  8
0
 10
39.6031
 20
622.156
 11
39.7315
 21
621.883
  0
LINE
  8
0
 10
39.7315
 20
621.883
 11
39.8246
 21
621.597
  0
LINE
  8
0
 10
39.8246
 20
621.597
 11
39.8811
 21
621.301
  0
LINE
  8
0
 10
39.8811
 20
621.301
 11
39.9
 21
621
  0
LINE
  8
0
 10
39.9
 20
621
 11
39.8811
 21
620.699
  0
LINE
  8
0
 10
39.8811
 20
620.699
 11
39.8246
 21
620.403
  0
LINE
  8
0
 10
39.8246
 20
620.403
 11
39.7315
 21
620.117
  0
LINE
  8
0
 10
39.7315
 20
620.117
 11
39.6031
 21
619.844
  0
LINE
  8
0
 10
39.6031
 20
619.844
 11
39.4416
 21
619.589
  0
LINE
  8
0
 10
39.4416
 20
619.589
 11
39.2495
 21
619.357
  0
LINE
  8
0
 10
39.2495
 20
619.357
 11
39.0298
 21
619.151
  0
LINE
  8
0
 10
39.0298
 20
619.151
 11
38.786
 21
618.974
  0
LINE
  8
0
 10
38.786
 20
618.974
 11
38.5219
 21
618.828
  0
LINE
  8
0
 10
38.5219
 20
618.828
 11
38.2416
 21
618.717
  0
LINE
  8
0
 10
38.2416
 20
618.717
 11
37.9497
 21
618.643
  0
LINE
  8
0
 10
37.9497
 20
618.643
 11
37.6507
 21
618.605
  0
LINE
  8
0
 10
37.6507
 20
618.605
 11
37.3493
 21
618.605
  0
LINE
  8
0
 10
-37.6507
 20
618.605
 11
-37.9497
 21
618.643
  0
LINE
  8
0
 10
-37.9497
 20
618.643
 11
-38.2416
 21
618.717
  0
LINE
  8
0
 10
-38.2416
 20
618.717
 11
-38.5219
 21
618.828
  0
LINE
  8
0
 10
-38.5219
 20
618.828
 11
-38.786
 21
618.974
  0
LINE
  8
0
 10
-38.786
 20
618.974
 11
-39.0298
 21
619.151
  0
LINE
  8
0
 10
-39.0298
 20
619.151
 11
-39.2495
 21
619.357
  0
LINE
  8
0
 10
-39.2495
 20
619.357
 11
-39.4416
 21
619.589
  0
LINE
  8
0
 10
-39.4416
 20
619.589
 11
-39.6031
 21
619.844
  0
LINE
  8
0
 10
-39.6031
 20
619.844
 11
-39.7315
 21
620.117
  0
LINE
  8
0
 10
-39.7315
 20
620.117
 11
-39.8246
 21
620.403
  0
LINE
  8
0
 10
-39.8246
 20
620.403
 11
-39.8811
 21
620.699
  0
LINE
  8
0
 10
-39.8811
 20
620.699
 11
-39.9
 21
621
  0
LINE
  8
0
 10
-39.9
 20
621
 11
-39.8811
 21
621.301
  0
LINE
  8
0
 10
-39.8811
 20
621.301
 11
-39.8246
 21
621.597
  0
LINE
  8
0
 10
-39.8246
 20
621.597
 11
-39.7315
 21
621.883
  0
LINE
  8
0
 10
-39.7315
 20
621.883
 11
-39.6031
 21
622.156
  0
LINE
  8
0
 10
-39.6031
 20
622.156
 11
-39.4416
 21
622.411
  0
LINE
  8
0
 10
-39.4416
 20
622.411
 11
-39.2495
 21
622.643
  0
LINE
  8
0
 10
-39.2495
 20
622.643
 11
-39.0298
 21
622.849
  0
LINE
  8
0
 10
-39.0298
 20
622.849
 11
-38.786
 21
623.026
  0
LINE
  8
0
 10
-38.786
 20
623.026
 11
-38.5219
 21
623.172
  0
LINE
  8
0
 10
-38.5219
 20
623.172
 11
-38.2416
 21
623.283
  0
LINE
  8
0
 10
-38.2416
 20
623.283
 11
-37.9497
 21
623.357
  0
LINE
  8
0
 10
-37.9497
 20
623.357
 11
-37.6507
 21
623.395
  0
LINE
  8
0
 10
-37.6507
 20
623.395
 11
-37.3493
 21
623.395
  0
LINE
  8
0
 10
-37.3493
 20
623.395
 11
-37.0503
 21
623.357
  0
LINE
  8
0
 10
-37.0503
 20
623.357
 11
-36.7584
 21
623.283
  0
LINE
  8
0
 10
-36.7584
 20
623.283
 11
-36.4781
 21
623.172
  0
LINE
  8
0
 10
-36.4781
 20
623.172
 11
-36.214
 21
623.026
  0
LINE
  8
0
 10
-36.214
 20
623.026
 11
-35.9702
 21
622.849
  0
LINE
  8
0
 10
-35.9702
 20
622.849
 11
-35.7505
 21
622.643
  0
LINE
  8
0
 10
-35.7505
 20
622.643
 11
-35.5583
 21
622.411
  0
LINE
  8
0
 10
-35.5583
 20
622.411
 11
-35.3969
 21
622.156
  0
LINE
  8
0
 10
-35.3969
 20
622.156
 11
-35.2685
 21
621.883
  0
LINE
  8
0
 10
-35.2685
 20
621.883
 11
-35.1754
 21
621.597
  0
LINE
  8
0
 10
-35.1754
 20
621.597
 11
-35.1189
 21
621.301
  0
LINE
  8
0
 10
-35.1189
 20
621.301
 11
-35.1
 21
621
  0
LINE
  8
0
 10
-35.1
 20
621
 11
-35.1189
 21
620.699
  0
LINE
  8
0
 10
-35.1189
 20
620.699
 11
-35.1754
 21
620.403
  0
LINE
  8
0
 10
-35.1754
 20
620.403
 11
-35.2685
 21
620.117
  0
LINE
  8
0
 10
-35.2685
 20
620.117
 11
-35.3969
 21
619.844
  0
LINE
  8
0
 10
-35.3969
 20
619.844
 11
-35.5583
 21
619.589
  0
LINE
  8
0
 10
-35.5583
 20
619.589
 11
-35.7505
 21
619.357
  0
LINE
  8
0
 10
-35.7505
 20
619.357
 11
-35.9702
 21
619.151
  0
LINE
  8
0
 10
-35.9702
 20
619.151
 11
-36.214
 21
618.974
  0
LINE
  8
0
 10
-36.214
 20
618.974
 11
-36.4781
 21
618.828
  0
LINE
  8
0
 10
-36.4781
 20
618.828
 11
-36.7584
 21
618.717
  0
LINE
  8
0
 10
-36.7584
 20
618.717
 11
-37.0503
 21
618.643
  0
LINE
  8
0
 10
-37.0503
 20
618.643
 11
-37.3493
 21
618.605
  0
LINE
  8
0
 10
-37.3493
 20
618.605
 11
-37.6507
 21
618.605
  0
LINE
  8
0
 10
40.9369
 20
439.589
 11
41.5451
 21
439.745
  0
LINE
  8
0
 10
41.5451
 20
439.745
 11
42.1289
 21
439.976
  0
LINE
  8
0
 10
42.1289
 20
439.976
 11
42.6791
 21
440.278
  0
LINE
  8
0
 10
42.6791
 20
440.278
 11
43.1871
 21
440.647
  0
LINE
  8
0
 10
43.1871
 20
440.647
 11
43.6448
 21
441.077
  0
LINE
  8
0
 10
43.6448
 20
441.077
 11
44.0451
 21
441.561
  0
LINE
  8
0
 10
44.0451
 20
441.561
 11
44.3815
 21
442.091
  0
LINE
  8
0
 10
44.3815
 20
442.091
 11
44.6489
 21
442.659
  0
LINE
  8
0
 10
44.6489
 20
442.659
 11
44.8429
 21
443.257
  0
LINE
  8
0
 10
44.8429
 20
443.257
 11
44.9606
 21
443.873
  0
LINE
  8
0
 10
44.9606
 20
443.873
 11
45
 21
444.5
  0
LINE
  8
0
 10
45
 20
444.5
 11
45
 21
599.5
  0
LINE
  8
0
 10
45
 20
599.5
 11
44.9606
 21
600.127
  0
LINE
  8
0
 10
44.9606
 20
600.127
 11
44.8429
 21
600.743
  0
LINE
  8
0
 10
44.8429
 20
600.743
 11
44.6489
 21
601.341
  0
LINE
  8
0
 10
44.6489
 20
601.341
 11
44.3815
 21
601.909
  0
LINE
  8
0
 10
44.3815
 20
601.909
 11
44.0451
 21
602.439
  0
LINE
  8
0
 10
44.0451
 20
602.439
 11
43.6448
 21
602.923
  0
LINE
  8
0
 10
43.6448
 20
602.923
 11
43.1871
 21
603.353
  0
LINE
  8
0
 10
43.1871
 20
603.353
 11
42.6791
 21
603.722
  0
LINE
  8
0
 10
42.6791
 20
603.722
 11
42.1289
 21
604.024
  0
LINE
  8
0
 10
42.1289
 20
604.024
 11
41.5451
 21
604.255
  0
LINE
  8
0
 10
41.5451
 20
604.255
 11
40.9369
 21
604.411
  0
LINE
  8
0
 10
40.9369
 20
604.411
 11
40.3139
 21
604.49
  0
LINE
  8
0
 10
40.3139
 20
604.49
 11
-40.3139
 21
604.49
  0
LINE
  8
0
 10
-40.3139
 20
604.49
 11
-40.9369
 21
604.411
  0
LINE
  8
0
 10
-40.9369
 20
604.411
 11
-41.5451
 21
604.255
  0
LINE
  8
0
 10
-41.5451
 20
604.255
 11
-42.1289
 21
604.024
  0
LINE
  8
0
 10
-42.1289
 20
604.024
 11
-42.6791
 21
603.722
  0
LINE
  8
0
 10
-42.6791
 20
603.722
 11
-43.1871
 21
603.353
  0
LINE
  8
0
 10
-43.1871
 20
603.353
 11
-43.6448
 21
602.923
  0
LINE
  8
0
 10
-43.6448
 20
602.923
 11
-44.0451
 21
602.439
  0
LINE
  8
0
 10
-44.0451
 20
602.439
 11
-44.3815
 21
601.909
  0
LINE
  8
0
 10
-44.3815
 20
601.909
 11
-44.6489
 21
601.341
  0
LINE
  8
0
 10
-44.6489
 20
601.341
 11
-44.8429
 21
600.743
  0
LINE
  8
0
 10
-44.8429
 20
600.743
 11
-44.9606
 21
600.127
  0
LINE
  8
0
 10
-44.9606
 20
600.127
 11
-45
 21
599.5
  0
LINE
  8
0
 10
-45
 20
599.5
 11
-45
 21
444.5
  0
LINE
  8
0
 10
-45
 20
444.5
 11
-44.9606
 21
443.873
  0
LINE
  8
0
 10
-44.9606
 20
443.873
 11
-44.8429
 21
443.257
  0
LINE
  8
0
 10
-44.8429
 20
443.257
 11
-44.6489
 21
442.659
  0
LINE
  8
0
 10
-44.6489
 20
442.659
 11
-44.3815
 21
442.091
  0
LINE
  8
0
 10
-44.3815
 20
442.091
 11
-44.0451
 21
441.561
  0
LINE
  8
0
 10
-44.0451
 20
441.561
 11
-43.6448
 21
441.077
  0
LINE
  8
0
 10
-43.6448
 20
441.077
 11
-43.1871
 21
440.647
  0
LINE
  8
0
 10
-43.1871
 20
440.647
 11
-42.6791
 21
440.278
  0
LINE
  8
0
 10
-42.6791
 20
440.278
 11
-42.1289
 21
439.976
  0
LINE
  8
0
 10
-42.1289
 20
439.976
 11
-41.5451
 21
439.745
  0
LINE
  8
0
 10
-41.5451
 20
439.745
 11
-40.9369
 21
439.589
  0
LINE
  8
0
 10
-40.9369
 20
439.589
 11
-40.3139
 21
439.51
  0
LINE
  8
0
 10
-40.3139
 20
439.51
 11
40.3139
 21
439.51
  0
LINE
  8
0
 10
40.3139
 20
439.51
 11
40.9369
 21
439.589
  0
LINE
  8
0
 10
-37.613
 20
595.204
 11
-37.8373
 21
595.232
  0
LINE
  8
0
 10
-37.8373
 20
595.232
 11
-38.0562
 21
595.288
  0
LINE
  8
0
 10
-38.0562
 20
595.288
 11
-38.2664
 21
595.371
  0
LINE
  8
0
 10
-38.2664
 20
595.371
 11
-38.4645
 21
595.48
  0
LINE
  8
0
 10
-38.4645
 20
595.48
 11
-38.6474
 21
595.613
  0
LINE
  8
0
 10
-38.6474
 20
595.613
 11
-38.8121
 21
595.768
  0
LINE
  8
0
 10
-38.8121
 20
595.768
 11
-38.9562
 21
595.942
  0
LINE
  8
0
 10
-38.9562
 20
595.942
 11
-39.0773
 21
596.133
  0
LINE
  8
0
 10
-39.0773
 20
596.133
 11
-39.1736
 21
596.337
  0
LINE
  8
0
 10
-39.1736
 20
596.337
 11
-39.2434
 21
596.552
  0
LINE
  8
0
 10
-39.2434
 20
596.552
 11
-39.2858
 21
596.774
  0
LINE
  8
0
 10
-39.2858
 20
596.774
 11
-39.3
 21
597
  0
LINE
  8
0
 10
-39.3
 20
597
 11
-39.2858
 21
597.226
  0
LINE
  8
0
 10
-39.2858
 20
597.226
 11
-39.2434
 21
597.448
  0
LINE
  8
0
 10
-39.2434
 20
597.448
 11
-39.1736
 21
597.663
  0
LINE
  8
0
 10
-39.1736
 20
597.663
 11
-39.0773
 21
597.867
  0
LINE
  8
0
 10
-39.0773
 20
597.867
 11
-38.9562
 21
598.058
  0
LINE
  8
0
 10
-38.9562
 20
598.058
 11
-38.8121
 21
598.232
  0
LINE
  8
0
 10
-38.8121
 20
598.232
 11
-38.6474
 21
598.387
  0
LINE
  8
0
 10
-38.6474
 20
598.387
 11
-38.4645
 21
598.52
  0
LINE
  8
0
 10
-38.4645
 20
598.52
 11
-38.2664
 21
598.629
  0
LINE
  8
0
 10
-38.2664
 20
598.629
 11
-38.0562
 21
598.712
  0
LINE
  8
0
 10
-38.0562
 20
598.712
 11
-37.8373
 21
598.768
  0
LINE
  8
0
 10
-37.8373
 20
598.768
 11
-37.613
 21
598.796
  0
LINE
  8
0
 10
-37.613
 20
598.796
 11
-37.387
 21
598.796
  0
LINE
  8
0
 10
-37.387
 20
598.796
 11
-37.1627
 21
598.768
  0
LINE
  8
0
 10
-37.1627
 20
598.768
 11
-36.9438
 21
598.712
  0
LINE
  8
0
 10
-36.9438
 20
598.712
 11
-36.7336
 21
598.629
  0
LINE
  8
0
 10
-36.7336
 20
598.629
 11
-36.5355
 21
598.52
  0
LINE
  8
0
 10
-36.5355
 20
598.52
 11
-36.3526
 21
598.387
  0
LINE
  8
0
 10
-36.3526
 20
598.387
 11
-36.1879
 21
598.232
  0
LINE
  8
0
 10
-36.1879
 20
598.232
 11
-36.0438
 21
598.058
  0
LINE
  8
0
 10
-36.0438
 20
598.058
 11
-35.9226
 21
597.867
  0
LINE
  8
0
 10
-35.9226
 20
597.867
 11
-35.8264
 21
597.663
  0
LINE
  8
0
 10
-35.8264
 20
597.663
 11
-35.7565
 21
597.448
  0
LINE
  8
0
 10
-35.7565
 20
597.448
 11
-35.7142
 21
597.226
  0
LINE
  8
0
 10
-35.7142
 20
597.226
 11
-35.7
 21
597
  0
LINE
  8
0
 10
-35.7
 20
597
 11
-35.7142
 21
596.774
  0
LINE
  8
0
 10
-35.7142
 20
596.774
 11
-35.7565
 21
596.552
  0
LINE
  8
0
 10
-35.7565
 20
596.552
 11
-35.8264
 21
596.337
  0
LINE
  8
0
 10
-35.8264
 20
596.337
 11
-35.9226
 21
596.133
  0
LINE
  8
0
 10
-35.9226
 20
596.133
 11
-36.0438
 21
595.942
  0
LINE
  8
0
 10
-36.0438
 20
595.942
 11
-36.1879
 21
595.768
  0
LINE
  8
0
 10
-36.1879
 20
595.768
 11
-36.3526
 21
595.613
  0
LINE
  8
0
 10
-36.3526
 20
595.613
 11
-36.5355
 21
595.48
  0
LINE
  8
0
 10
-36.5355
 20
595.48
 11
-36.7336
 21
595.371
  0
LINE
  8
0
 10
-36.7336
 20
595.371
 11
-36.9438
 21
595.288
  0
LINE
  8
0
 10
-36.9438
 20
595.288
 11
-37.1627
 21
595.232
  0
LINE
  8
0
 10
-37.1627
 20
595.232
 11
-37.387
 21
595.204
  0
LINE
  8
0
 10
-37.387
 20
595.204
 11
-37.613
 21
595.204
  0
LINE
  8
0
 10
37.387
 20
595.204
 11
37.1627
 21
595.232
  0
LINE
  8
0
 10
37.1627
 20
595.232
 11
36.9438
 21
595.288
  0
LINE
  8
0
 10
36.9438
 20
595.288
 11
36.7336
 21
595.371
  0
LINE
  8
0
 10
36.7336
 20
595.371
 11
36.5355
 21
595.48
  0
LINE
  8
0
 10
36.5355
 20
595.48
 11
36.3526
 21
595.613
  0
LINE
  8
0
 10
36.3526
 20
595.613
 11
36.1879
 21
595.768
  0
LINE
  8
0
 10
36.1879
 20
595.768
 11
36.0438
 21
595.942
  0
LINE
  8
0
 10
36.0438
 20
595.942
 11
35.9226
 21
596.133
  0
LINE
  8
0
 10
35.9226
 20
596.133
 11
35.8264
 21
596.337
  0
LINE
  8
0
 10
35.8264
 20
596.337
 11
35.7565
 21
596.552
  0
LINE
  8
0
 10
35.7565
 20
596.552
 11
35.7142
 21
596.774
  0
LINE
  8
0
 10
35.7142
 20
596.774
 11
35.7
 21
597
  0
LINE
  8
0
 10
35.7
 20
597
 11
35.7142
 21
597.226
  0
LINE
  8
0
 10
35.7142
 20
597.226
 11
35.7565
 21
597.448
  0
LINE
  8
0
 10
35.7565
 20
597.448
 11
35.8264
 21
597.663
  0
LINE
  8
0
 10
35.8264
 20
597.663
 11
35.9226
 21
597.867
  0
LINE
  8
0
 10
35.9226
 20
597.867
 11
36.0438
 21
598.058
  0
LINE
  8
0
 10
36.0438
 20
598.058
 11
36.1879
 21
598.232
  0
LINE
  8
0
 10
36.1879
 20
598.232
 11
36.3526
 21
598.387
  0
LINE
  8
0
 10
36.3526
 20
598.387
 11
36.5355
 21
598.52
  0
LINE
  8
0
 10
36.5355
 20
598.52
 11
36.7336
 21
598.629
  0
LINE
  8
0
 10
36.7336
 20
598.629
 11
36.9438
 21
598.712
  0
LINE
  8
0
 10
36.9438
 20
598.712
 11
37.1627
 21
598.768
  0
LINE
  8
0
 10
37.1627
 20
598.768
 11
37.387
 21
598.796
  0
LINE
  8
0
 10
37.387
 20
598.796
 11
37.613
 21
598.796
  0
LINE
  8
0
 10
37.613
 20
598.796
 11
37.8373
 21
598.768
  0
LINE
  8
0
 10
37.8373
 20
598.768
 11
38.0562
 21
598.712
  0
LINE
  8
0
 10
38.0562
 20
598.712
 11
38.2664
 21
598.629
  0
LINE
  8
0
 10
38.2664
 20
598.629
 11
38.4645
 21
598.52
  0
LINE
  8
0
 10
38.4645
 20
598.52
 11
38.6474
 21
598.387
  0
LINE
  8
0
 10
38.6474
 20
598.387
 11
38.8121
 21
598.232
  0
LINE
  8
0
 10
38.8121
 20
598.232
 11
38.9562
 21
598.058
  0
LINE
  8
0
 10
38.9562
 20
598.058
 11
39.0773
 21
597.867
  0
LINE
  8
0
 10
39.0773
 20
597.867
 11
39.1736
 21
597.663
  0
LINE
  8
0
 10
39.1736
 20
597.663
 11
39.2434
 21
597.448
  0
LINE
  8
0
 10
39.2434
 20
597.448
 11
39.2858
 21
597.226
  0
LINE
  8
0
 10
39.2858
 20
597.226
 11
39.3
 21
597
  0
LINE
  8
0
 10
39.3
 20
597
 11
39.2858
 21
596.774
  0
LINE
  8
0
 10
39.2858
 20
596.774
 11
39.2434
 21
596.552
  0
LINE
  8
0
 10
39.2434
 20
596.552
 11
39.1736
 21
596.337
  0
LINE
  8
0
 10
39.1736
 20
596.337
 11
39.0773
 21
596.133
  0
LINE
  8
0
 10
39.0773
 20
596.133
 11
38.9562
 21
595.942
  0
LINE
  8
0
 10
38.9562
 20
595.942
 11
38.8121
 21
595.768
  0
LINE
  8
0
 10
38.8121
 20
595.768
 11
38.6474
 21
595.613
  0
LINE
  8
0
 10
38.6474
 20
595.613
 11
38.4645
 21
595.48
  0
LINE
  8
0
 10
38.4645
 20
595.48
 11
38.2664
 21
595.371
  0
LINE
  8
0
 10
38.2664
 20
595.371
 11
38.0562
 21
595.288
  0
LINE
  8
0
 10
38.0562
 20
595.288
 11
37.8373
 21
595.232
  0
LINE
  8
0
 10
37.8373
 20
595.232
 11
37.613
 21
595.204
  0
LINE
  8
0
 10
37.613
 20
595.204
 11
37.387
 21
595.204
  0
LINE
  8
0
 10
-37.613
 20
445.204
 11
-37.8373
 21
445.232
  0
LINE
  8
0
 10
-37.8373
 20
445.232
 11
-38.0562
 21
445.288
  0
LINE
  8
0
 10
-38.0562
 20
445.288
 11
-38.2664
 21
445.371
  0
LINE
  8
0
 10
-38.2664
 20
445.371
 11
-38.4645
 21
445.48
  0
LINE
  8
0
 10
-38.4645
 20
445.48
 11
-38.6474
 21
445.613
  0
LINE
  8
0
 10
-38.6474
 20
445.613
 11
-38.8121
 21
445.768
  0
LINE
  8
0
 10
-38.8121
 20
445.768
 11
-38.9562
 21
445.942
  0
LINE
  8
0
 10
-38.9562
 20
445.942
 11
-39.0773
 21
446.133
  0
LINE
  8
0
 10
-39.0773
 20
446.133
 11
-39.1736
 21
446.337
  0
LINE
  8
0
 10
-39.1736
 20
446.337
 11
-39.2434
 21
446.552
  0
LINE
  8
0
 10
-39.2434
 20
446.552
 11
-39.2858
 21
446.774
  0
LINE
  8
0
 10
-39.2858
 20
446.774
 11
-39.3
 21
447
  0
LINE
  8
0
 10
-39.3
 20
447
 11
-39.2858
 21
447.226
  0
LINE
  8
0
 10
-39.2858
 20
447.226
 11
-39.2434
 21
447.448
  0
LINE
  8
0
 10
-39.2434
 20
447.448
 11
-39.1736
 21
447.663
  0
LINE
  8
0
 10
-39.1736
 20
447.663
 11
-39.0773
 21
447.867
  0
LINE
  8
0
 10
-39.0773
 20
447.867
 11
-38.9562
 21
448.058
  0
LINE
  8
0
 10
-38.9562
 20
448.058
 11
-38.8121
 21
448.232
  0
LINE
  8
0
 10
-38.8121
 20
448.232
 11
-38.6474
 21
448.387
  0
LINE
  8
0
 10
-38.6474
 20
448.387
 11
-38.4645
 21
448.52
  0
LINE
  8
0
 10
-38.4645
 20
448.52
 11
-38.2664
 21
448.629
  0
LINE
  8
0
 10
-38.2664
 20
448.629
 11
-38.0562
 21
448.712
  0
LINE
  8
0
 10
-38.0562
 20
448.712
 11
-37.8373
 21
448.768
  0
LINE
  8
0
 10
-37.8373
 20
448.768
 11
-37.613
 21
448.796
  0
LINE
  8
0
 10
-37.613
 20
448.796
 11
-37.387
 21
448.796
  0
LINE
  8
0
 10
-37.387
 20
448.796
 11
-37.1627
 21
448.768
  0
LINE
  8
0
 10
-37.1627
 20
448.768
 11
-36.9438
 21
448.712
  0
LINE
  8
0
 10
-36.9438
 20
448.712
 11
-36.7336
 21
448.629
  0
LINE
  8
0
 10
-36.7336
 20
448.629
 11
-36.5355
 21
448.52
  0
LINE
  8
0
 10
-36.5355
 20
448.52
 11
-36.3526
 21
448.387
  0
LINE
  8
0
 10
-36.3526
 20
448.387
 11
-36.1879
 21
448.232
  0
LINE
  8
0
 10
-36.1879
 20
448.232
 11
-36.0438
 21
448.058
  0
LINE
  8
0
 10
-36.0438
 20
448.058
 11
-35.9226
 21
447.867
  0
LINE
  8
0
 10
-35.9226
 20
447.867
 11
-35.8264
 21
447.663
  0
LINE
  8
0
 10
-35.8264
 20
447.663
 11
-35.7565
 21
447.448
  0
LINE
  8
0
 10
-35.7565
 20
447.448
 11
-35.7142
 21
447.226
  0
LINE
  8
0
 10
-35.7142
 20
447.226
 11
-35.7
 21
447
  0
LINE
  8
0
 10
-35.7
 20
447
 11
-35.7142
 21
446.774
  0
LINE
  8
0
 10
-35.7142
 20
446.774
 11
-35.7565
 21
446.552
  0
LINE
  8
0
 10
-35.7565
 20
446.552
 11
-35.8264
 21
446.337
  0
LINE
  8
0
 10
-35.8264
 20
446.337
 11
-35.9226
 21
446.133
  0
LINE
  8
0
 10
-35.9226
 20
446.133
 11
-36.0438
 21
445.942
  0
LINE
  8
0
 10
-36.0438
 20
445.942
 11
-36.1879
 21
445.768
  0
LINE
  8
0
 10
-36.1879
 20
445.768
 11
-36.3526
 21
445.613
  0
LINE
  8
0
 10
-36.3526
 20
445.613
 11
-36.5355
 21
445.48
  0
LINE
  8
0
 10
-36.5355
 20
445.48
 11
-36.7336
 21
445.371
  0
LINE
  8
0
 10
-36.7336
 20
445.371
 11
-36.9438
 21
445.288
  0
LINE
  8
0
 10
-36.9438
 20
445.288
 11
-37.1627
 21
445.232
  0
LINE
  8
0
 10
-37.1627
 20
445.232
 11
-37.387
 21
445.204
  0
LINE
  8
0
 10
-37.387
 20
445.204
 11
-37.613
 21
445.204
  0
LINE
  8
0
 10
37.387
 20
445.204
 11
37.1627
 21
445.232
  0
LINE
  8
0
 10
37.1627
 20
445.232
 11
36.9438
 21
445.288
  0
LINE
  8
0
 10
36.9438
 20
445.288
 11
36.7336
 21
445.371
  0
LINE
  8
0
 10
36.7336
 20
445.371
 11
36.5355
 21
445.48
  0
LINE
  8
0
 10
36.5355
 20
445.48
 11
36.3526
 21
445.613
  0
LINE
  8
0
 10
36.3526
 20
445.613
 11
36.1879
 21
445.768
  0
LINE
  8
0
 10
36.1879
 20
445.768
 11
36.0438
 21
445.942
  0
LINE
  8
0
 10
36.0438
 20
445.942
 11
35.9226
 21
446.133
  0
LINE
  8
0
 10
35.9226
 20
446.133
 11
35.8264
 21
446.337
  0
LINE
  8
0
 10
35.8264
 20
446.337
 11
35.7565
 21
446.552
  0
LINE
  8
0
 10
35.7565
 20
446.552
 11
35.7142
 21
446.774
  0
LINE
  8
0
 10
35.7142
 20
446.774
 11
35.7
 21
447
  0
LINE
  8
0
 10
35.7
 20
447
 11
35.7142
 21
447.226
  0
LINE
  8
0
 10
35.7142
 20
447.226
 11
35.7565
 21
447.448
  0
LINE
  8
0
 10
35.7565
 20
447.448
 11
35.8264
 21
447.663
  0
LINE
  8
0
 10
35.8264
 20
447.663
 11
35.9226
 21
447.867
  0
LINE
  8
0
 10
35.9226
 20
447.867
 11
36.0438
 21
448.058
  0
LINE
  8
0
 10
36.0438
 20
448.058
 11
36.1879
 21
448.232
  0
LINE
  8
0
 10
36.1879
 20
448.232
 11
36.3526
 21
448.387
  0
LINE
  8
0
 10
36.3526
 20
448.387
 11
36.5355
 21
448.52
  0
LINE
  8
0
 10
36.5355
 20
448.52
 11
36.7336
 21
448.629
  0
LINE
  8
0
 10
36.7336
 20
448.629
 11
36.9438
 21
448.712
  0
LINE
  8
0
 10
36.9438
 20
448.712
 11
37.1627
 21
448.768
  0
LINE
  8
0
 10
37.1627
 20
448.768
 11
37.387
 21
448.796
  0
LINE
  8
0
 10
37.387
 20
448.796
 11
37.613
 21
448.796
  0
LINE
  8
0
 10
37.613
 20
448.796
 11
37.8373
 21
448.768
  0
LINE
  8
0
 10
37.8373
 20
448.768
 11
38.0562
 21
448.712
  0
LINE
  8
0
 10
38.0562
 20
448.712
 11
38.2664
 21
448.629
  0
LINE
  8
0
 10
38.2664
 20
448.629
 11
38.4645
 21
448.52
  0
LINE
  8
0
 10
38.4645
 20
448.52
 11
38.6474
 21
448.387
  0
LINE
  8
0
 10
38.6474
 20
448.387
 11
38.8121
 21
448.232
  0
LINE
  8
0
 10
38.8121
 20
448.232
 11
38.9562
 21
448.058
  0
LINE
  8
0
 10
38.9562
 20
448.058
 11
39.0773
 21
447.867
  0
LINE
  8
0
 10
39.0773
 20
447.867
 11
39.1736
 21
447.663
  0
LINE
  8
0
 10
39.1736
 20
447.663
 11
39.2434
 21
447.448
  0
LINE
  8
0
 10
39.2434
 20
447.448
 11
39.2858
 21
447.226
  0
LINE
  8
0
 10
39.2858
 20
447.226
 11
39.3
 21
447
  0
LINE
  8
0
 10
39.3
 20
447
 11
39.2858
 21
446.774
  0
LINE
  8
0
 10
39.2858
 20
446.774
 11
39.2434
 21
446.552
  0
LINE
  8
0
 10
39.2434
 20
446.552
 11
39.1736
 21
446.337
  0
LINE
  8
0
 10
39.1736
 20
446.337
 11
39.0773
 21
446.133
  0
LINE
  8
0
 10
39.0773
 20
446.133
 11
38.9562
 21
445.942
  0
LINE
  8
0
 10
38.9562
 20
445.942
 11
38.8121
 21
445.768
  0
LINE
  8
0
 10
38.8121
 20
445.768
 11
38.6474
 21
445.613
  0
LINE
  8
0
 10
38.6474
 20
445.613
 11
38.4645
 21
445.48
  0
LINE
  8
0
 10
38.4645
 20
445.48
 11
38.2664
 21
445.371
  0
LINE
  8
0
 10
38.2664
 20
445.371
 11
38.0562
 21
445.288
  0
LINE
  8
0
 10
38.0562
 20
445.288
 11
37.8373
 21
445.232
  0
LINE
  8
0
 10
37.8373
 20
445.232
 11
37.613
 21
445.204
  0
LINE
  8
0
 10
37.613
 20
445.204
 11
37.387
 21
445.204
  0
ENDSEC
  0
SECTION
  2
OBJECTS
  0
DICTIONARY
  0
ENDSEC
  0
EOF
