<?xml version="1.0" standalone="no"?>
<!DOCTYPE svg PUBLIC "-//W3C//DTD SVG 1.1//EN" "http://www.w3.org/Graphics/SVG/1.1/DTD/svg11.dtd">
<svg width="16mm" height="1227mm" viewBox="-8 -2004 16 1227" xmlns="http://www.w3.org/2000/svg" version="1.1">
<title>OpenSCAD Model</title>
<path d="
M 3.4369,-1704.09 L 4.04507,-1704.24 L 4.62889,-1704.48 L 5.17912,-1704.78 L 5.68712,-1705.15 L 6.14484,-1705.58
 L 6.54507,-1706.06 L 6.88153,-1706.59 L 7.14888,-1707.16 L 7.34291,-1707.76 L 7.46057,-1708.37 L 7.5,-1709
 L 7.5,-1999 L 7.46057,-1999.63 L 7.34291,-2000.24 L 7.14888,-2000.84 L 6.88153,-2001.41 L 6.54507,-2001.94
 L 6.14484,-2002.42 L 5.68712,-2002.85 L 5.17912,-2003.22 L 4.62889,-2003.52 L 4.04507,-2003.76 L 3.4369,-2003.91
 L 2.81395,-2003.99 L -2.81395,-2003.99 L -3.4369,-2003.91 L -4.04507,-2003.76 L -4.62889,-2003.52 L -5.17912,-2003.22
 L -5.68712,-2002.85 L -6.14484,-2002.42 L -6.54507,-2001.94 L -6.88153,-2001.41 L -7.14888,-2000.84 L -7.34291,-2000.24
 L -7.46057,-1999.63 L -7.5,-1999 L -7.5,-1709 L -7.46057,-1708.37 L -7.34291,-1707.76 L -7.14888,-1707.16
 L -6.88153,-1706.59 L -6.54507,-1706.06 L -6.14484,-1705.58 L -5.68712,-1705.15 L -5.17912,-1704.78 L -4.62889,-1704.48
 L -4.04507,-1704.24 L -3.4369,-1704.09 L -2.81395,-1704.01 L 2.81395,-1704.01 z
M -2.25116,-1705.51 L -2.74951,-1705.57 L -3.23605,-1705.7 L -3.70311,-1705.88 L -4.1433,-1706.12 L -4.54968,-1706.42
 L -4.91586,-1706.76 L -5.23605,-1707.15 L -5.50522,-1707.57 L -5.7191,-1708.03 L -5.87433,-1708.51 L -5.96844,-1709
 L -6,-1709.5 L -6,-1998.5 L -5.96844,-1999 L -5.87433,-1999.49 L -5.7191,-1999.97 L -5.50522,-2000.43
 L -5.23605,-2000.85 L -4.91586,-2001.24 L -4.54968,-2001.58 L -4.1433,-2001.88 L -3.70311,-2002.12 L -3.23605,-2002.3
 L -2.74951,-2002.43 L -2.25116,-2002.49 L 2.25116,-2002.49 L 2.74951,-2002.43 L 3.23605,-2002.3 L 3.70311,-2002.12
 L 4.1433,-2001.88 L 4.54968,-2001.58 L 4.91586,-2001.24 L 5.23605,-2000.85 L 5.50522,-2000.43 L 5.7191,-1999.97
 L 5.87433,-1999.49 L 5.96844,-1999 L 6,-1998.5 L 6,-1709.5 L 5.96844,-1709 L 5.87433,-1708.51
 L 5.7191,-1708.03 L 5.50522,-1707.57 L 5.23605,-1707.15 L 4.91586,-1706.76 L 4.54968,-1706.42 L 4.1433,-1706.12
 L 3.70311,-1705.88 L 3.23605,-1705.7 L 2.74951,-1705.57 L 2.25116,-1705.51 z
M 3.4369,-1395.09 L 4.04507,-1395.24 L 4.62889,-1395.48 L 5.17912,-1395.78 L 5.68712,-1396.15 L 6.14484,-1396.58
 L 6.54507,-1397.06 L 6.88153,-1397.59 L 7.14888,-1398.16 L 7.34291,-1398.76 L 7.46057,-1399.37 L 7.5,-1400
 L 7.5,-1690 L 7.46057,-1690.63 L 7.34291,-1691.24 L 7.14888,-1691.84 L 6.88153,-1692.41 L 6.54507,-1692.94
 L 6.14484,-1693.42 L 5.68712,-1693.85 L 5.17912,-1694.22 L 4.62889,-1694.52 L 4.04507,-1694.76 L 3.4369,-1694.91
 L 2.81395,-1694.99 L -2.81395,-1694.99 L -3.4369,-1694.91 L -4.04507,-1694.76 L -4.62889,-1694.52 L -5.17912,-1694.22
 L -5.68712,-1693.85 L -6.14484,-1693.42 L -6.54507,-1692.94 L -6.88153,-1692.41 L -7.14888,-1691.84 L -7.34291,-1691.24
 L -7.46057,-1690.63 L -7.5,-1690 L -7.5,-1400 L -7.46057,-1399.37 L -7.34291,-1398.76 L -7.14888,-1398.16
 L -6.88153,-1397.59 L -6.54507,-1397.06 L -6.14484,-1396.58 L -5.68712,-1396.15 L -5.17912,-1395.78 L -4.62889,-1395.48
 L -4.04507,-1395.24 L -3.4369,-1395.09 L -2.81395,-1395.01 L 2.81395,-1395.01 z
M -2.24316,-1396.64 L -2.72565,-1396.7 L -3.1967,-1396.82 L -3.64888,-1397 L -4.07506,-1397.23 L -4.46851,-1397.52
 L -4.82301,-1397.85 L -5.13301,-1398.22 L -5.3936,-1398.63 L -5.60068,-1399.07 L -5.75096,-1399.54 L -5.84209,-1400.01
 L -5.87262,-1400.5 L -5.87262,-1689.5 L -5.84209,-1689.99 L -5.75096,-1690.46 L -5.60068,-1690.93 L -5.3936,-1691.37
 L -5.13301,-1691.78 L -4.82301,-1692.15 L -4.46851,-1692.48 L -4.07506,-1692.77 L -3.64888,-1693 L -3.1967,-1693.18
 L -2.72565,-1693.3 L -2.24316,-1693.36 L 2.24316,-1693.36 L 2.72565,-1693.3 L 3.1967,-1693.18 L 3.64888,-1693
 L 4.07506,-1692.77 L 4.46851,-1692.48 L 4.82301,-1692.15 L 5.13301,-1691.78 L 5.3936,-1691.37 L 5.60068,-1690.93
 L 5.75096,-1690.46 L 5.84209,-1689.99 L 5.87262,-1689.5 L 5.87262,-1400.5 L 5.84209,-1400.01 L 5.75096,-1399.54
 L 5.60068,-1399.07 L 5.3936,-1398.63 L 5.13301,-1398.22 L 4.82301,-1397.85 L 4.46851,-1397.52 L 4.07506,-1397.23
 L 3.64888,-1397 L 3.1967,-1396.82 L 2.72565,-1396.7 L 2.24316,-1396.64 z
M 3.4369,-1086.09 L 4.04507,-1086.24 L 4.62889,-1086.48 L 5.17912,-1086.78 L 5.68712,-1087.15 L 6.14484,-1087.58
 L 6.54507,-1088.06 L 6.88153,-1088.59 L 7.14888,-1089.16 L 7.34291,-1089.76 L 7.46057,-1090.37 L 7.5,-1091
 L 7.5,-1381 L 7.46057,-1381.63 L 7.34291,-1382.24 L 7.14888,-1382.84 L 6.88153,-1383.41 L 6.54507,-1383.94
 L 6.14484,-1384.42 L 5.68712,-1384.85 L 5.17912,-1385.22 L 4.62889,-1385.52 L 4.04507,-1385.76 L 3.4369,-1385.91
 L 2.81395,-1385.99 L -2.81395,-1385.99 L -3.4369,-1385.91 L -4.04507,-1385.76 L -4.62889,-1385.52 L -5.17912,-1385.22
 L -5.68712,-1384.85 L -6.14484,-1384.42 L -6.54507,-1383.94 L -6.88153,-1383.41 L -7.14888,-1382.84 L -7.34291,-1382.24
 L -7.46057,-1381.63 L -7.5,-1381 L -7.5,-1091 L -7.46057,-1090.37 L -7.34291,-1089.76 L -7.14888,-1089.16
 L -6.88153,-1088.59 L -6.54507,-1088.06 L -6.14484,-1087.58 L -5.68712,-1087.15 L -5.17912,-1086.78 L -4.62889,-1086.48
 L -4.04507,-1086.24 L -3.4369,-1086.09 L -2.81395,-1086.01 L 2.81395,-1086.01 z
M -0.150696,-1376.1 L -0.449707,-1376.14 L -0.741638,-1376.22 L -1.02187,-1376.33 L -1.28598,-1376.47 L -1.52982,-1376.65
 L -1.74951,-1376.86 L -1.94164,-1377.09 L -2.10313,-1377.34 L -2.23146,-1377.62 L -2.32458,-1377.9 L -2.38107,-1378.2
 L -2.39999,-1378.5 L -2.38107,-1378.8 L -2.32458,-1379.1 L -2.23146,-1379.38 L -2.10313,-1379.66 L -1.94164,-1379.91
 L -1.74951,-1380.14 L -1.52982,-1380.35 L -1.28598,-1380.53 L -1.02187,-1380.67 L -0.741638,-1380.78 L -0.449707,-1380.86
 L -0.150696,-1380.9 L 0.150696,-1380.9 L 0.449707,-1380.86 L 0.741638,-1380.78 L 1.02187,-1380.67 L 1.28598,-1380.53
 L 1.52982,-1380.35 L 1.74951,-1380.14 L 1.94164,-1379.91 L 2.10313,-1379.66 L 2.23146,-1379.38 L 2.32458,-1379.1
 L 2.38107,-1378.8 L 2.39999,-1378.5 L 2.38107,-1378.2 L 2.32458,-1377.9 L 2.23146,-1377.62 L 2.10313,-1377.34
 L 1.94164,-1377.09 L 1.74951,-1376.86 L 1.52982,-1376.65 L 1.28598,-1376.47 L 1.02187,-1376.33 L 0.741638,-1376.22
 L 0.449707,-1376.14 L 0.150696,-1376.1 z
M -0.150696,-1091.1 L -0.449707,-1091.14 L -0.741638,-1091.22 L -1.02187,-1091.33 L -1.28598,-1091.47 L -1.52982,-1091.65
 L -1.74951,-1091.86 L -1.94164,-1092.09 L -2.10313,-1092.34 L -2.23146,-1092.62 L -2.32458,-1092.9 L -2.38107,-1093.2
 L -2.39999,-1093.5 L -2.38107,-1093.8 L -2.32458,-1094.1 L -2.23146,-1094.38 L -2.10313,-1094.66 L -1.94164,-1094.91
 L -1.74951,-1095.14 L -1.52982,-1095.35 L -1.28598,-1095.53 L -1.02187,-1095.67 L -0.741638,-1095.78 L -0.449707,-1095.86
 L -0.150696,-1095.9 L 0.150696,-1095.9 L 0.449707,-1095.86 L 0.741638,-1095.78 L 1.02187,-1095.67 L 1.28598,-1095.53
 L 1.52982,-1095.35 L 1.74951,-1095.14 L 1.94164,-1094.91 L 2.10313,-1094.66 L 2.23146,-1094.38 L 2.32458,-1094.1
 L 2.38107,-1093.8 L 2.39999,-1093.5 L 2.38107,-1093.2 L 2.32458,-1092.9 L 2.23146,-1092.62 L 2.10313,-1092.34
 L 1.94164,-1092.09 L 1.74951,-1091.86 L 1.52982,-1091.65 L 1.28598,-1091.47 L 1.02187,-1091.33 L 0.741638,-1091.22
 L 0.449707,-1091.14 L 0.150696,-1091.1 z
M 3.4369,-777.089 L 4.04507,-777.245 L 4.62889,-777.476 L 5.17912,-777.778 L 5.68712,-778.147 L 6.14484,-778.577
 L 6.54507,-779.061 L 6.88153,-779.591 L 7.14888,-780.159 L 7.34291,-780.757 L 7.46057,-781.373 L 7.5,-782
 L 7.5,-1072 L 7.46057,-1072.63 L 7.34291,-1073.24 L 7.14888,-1073.84 L 6.88153,-1074.41 L 6.54507,-1074.94
 L 6.14484,-1075.42 L 5.68712,-1075.85 L 5.17912,-1076.22 L 4.62889,-1076.52 L 4.04507,-1076.76 L 3.4369,-1076.91
 L 2.81395,-1076.99 L -2.81395,-1076.99 L -3.4369,-1076.91 L -4.04507,-1076.76 L -4.62889,-1076.52 L -5.17912,-1076.22
 L -5.68712,-1075.85 L -6.14484,-1075.42 L -6.54507,-1074.94 L -6.88153,-1074.41 L -7.14888,-1073.84 L -7.34291,-1073.24
 L -7.46057,-1072.63 L -7.5,-1072 L -7.5,-782 L -7.46057,-781.373 L -7.34291,-780.757 L -7.14888,-780.159
 L -6.88153,-779.591 L -6.54507,-779.061 L -6.14484,-778.577 L -5.68712,-778.147 L -5.17912,-777.778 L -4.62889,-777.476
 L -4.04507,-777.245 L -3.4369,-777.089 L -2.81395,-777.01 L 2.81395,-777.01 z
M -0.113022,-1067.7 L -0.33728,-1067.73 L -0.556229,-1067.79 L -0.766388,-1067.87 L -0.964478,-1067.98 L -1.14735,-1068.11
 L -1.31213,-1068.27 L -1.45622,-1068.44 L -1.57735,-1068.63 L -1.67358,-1068.84 L -1.74344,-1069.05 L -1.7858,-1069.27
 L -1.79999,-1069.5 L -1.7858,-1069.73 L -1.74344,-1069.95 L -1.67358,-1070.16 L -1.57735,-1070.37 L -1.45622,-1070.56
 L -1.31213,-1070.73 L -1.14735,-1070.89 L -0.964478,-1071.02 L -0.766388,-1071.13 L -0.556229,-1071.21 L -0.33728,-1071.27
 L -0.113022,-1071.3 L 0.113022,-1071.3 L 0.33728,-1071.27 L 0.556229,-1071.21 L 0.766388,-1071.13 L 0.964478,-1071.02
 L 1.14735,-1070.89 L 1.31213,-1070.73 L 1.45622,-1070.56 L 1.57735,-1070.37 L 1.67358,-1070.16 L 1.74344,-1069.95
 L 1.7858,-1069.73 L 1.79999,-1069.5 L 1.7858,-1069.27 L 1.74344,-1069.05 L 1.67358,-1068.84 L 1.57735,-1068.63
 L 1.45622,-1068.44 L 1.31213,-1068.27 L 1.14735,-1068.11 L 0.964478,-1067.98 L 0.766388,-1067.87 L 0.556229,-1067.79
 L 0.33728,-1067.73 L 0.113022,-1067.7 z
M -0.113022,-782.704 L -0.33728,-782.732 L -0.556229,-782.788 L -0.766388,-782.871 L -0.964478,-782.98 L -1.14735,-783.113
 L -1.31213,-783.268 L -1.45622,-783.442 L -1.57735,-783.633 L -1.67358,-783.837 L -1.74344,-784.052 L -1.7858,-784.274
 L -1.79999,-784.5 L -1.7858,-784.726 L -1.74344,-784.948 L -1.67358,-785.163 L -1.57735,-785.367 L -1.45622,-785.558
 L -1.31213,-785.732 L -1.14735,-785.887 L -0.964478,-786.02 L -0.766388,-786.129 L -0.556229,-786.212 L -0.33728,-786.268
 L -0.113022,-786.296 L 0.113022,-786.296 L 0.33728,-786.268 L 0.556229,-786.212 L 0.766388,-786.129 L 0.964478,-786.02
 L 1.14735,-785.887 L 1.31213,-785.732 L 1.45622,-785.558 L 1.57735,-785.367 L 1.67358,-785.163 L 1.74344,-784.948
 L 1.7858,-784.726 L 1.79999,-784.5 L 1.7858,-784.274 L 1.74344,-784.052 L 1.67358,-783.837 L 1.57735,-783.633
 L 1.45622,-783.442 L 1.31213,-783.268 L 1.14735,-783.113 L 0.964478,-782.98 L 0.766388,-782.871 L 0.556229,-782.788
 L 0.33728,-782.732 L 0.113022,-782.704 z
" stroke="black" fill="lightgray" stroke-width="0.5"/>
</svg>
