<?xml version="1.0" standalone="no"?>
<!DOCTYPE svg PUBLIC "-//W3C//DTD SVG 1.1//EN" "http://www.w3.org/Graphics/SVG/1.1/DTD/svg11.dtd">
<svg width="196mm" height="604mm" viewBox="-98 -914 196 604" xmlns="http://www.w3.org/2000/svg" version="1.1">
<title>OpenSCAD Model</title>
<path d="
M -94.5,-718.925 L -94.0451,-718.745 L -93.4369,-718.589 L -92.8139,-718.51 L 92.8139,-718.51 L 93.4369,-718.589
 L 94.0451,-718.745 L 94.6289,-718.976 L 95.1791,-719.278 L 95.6871,-719.647 L 96.1448,-720.077 L 96.5451,-720.561
 L 96.8815,-721.091 L 97.1489,-721.659 L 97.3429,-722.257 L 97.4606,-722.873 L 97.5,-723.5 L 97.5,-908.5
 L 97.4606,-909.127 L 97.3429,-909.743 L 97.1489,-910.341 L 96.8815,-910.909 L 96.5451,-911.439 L 96.1448,-911.923
 L 95.6871,-912.353 L 95.1791,-912.722 L 94.6289,-913.024 L 94.0451,-913.255 L 93.4369,-913.411 L 92.8139,-913.49
 L -92.8139,-913.49 L -93.4369,-913.411 L -94.0451,-913.255 L -94.5,-913.075 L -94.5,-913.49 L -97.5,-913.49
 L -97.5,-718.51 L -94.5,-718.51 z
M -92.2432,-720.135 L -92.7256,-720.196 L -93.1967,-720.317 L -93.6489,-720.496 L -94.0751,-720.73 L -94.4685,-721.016
 L -94.823,-721.349 L -95.133,-721.724 L -95.3936,-722.134 L -95.6007,-722.574 L -95.751,-723.037 L -95.8421,-723.515
 L -95.8726,-724 L -95.8726,-908 L -95.8421,-908.485 L -95.751,-908.963 L -95.6007,-909.426 L -95.3936,-909.866
 L -95.133,-910.276 L -94.823,-910.651 L -94.4685,-910.984 L -94.0751,-911.27 L -93.6489,-911.504 L -93.1967,-911.683
 L -92.7256,-911.804 L -92.2432,-911.865 L 92.2432,-911.865 L 92.7256,-911.804 L 93.1967,-911.683 L 93.6489,-911.504
 L 94.0751,-911.27 L 94.4685,-910.984 L 94.823,-910.651 L 95.133,-910.276 L 95.3936,-909.866 L 95.6007,-909.426
 L 95.751,-908.963 L 95.8421,-908.485 L 95.8726,-908 L 95.8726,-724 L 95.8421,-723.515 L 95.751,-723.037
 L 95.6007,-722.574 L 95.3936,-722.134 L 95.133,-721.724 L 94.823,-721.349 L 94.4685,-721.016 L 94.0751,-720.73
 L 93.6489,-720.496 L 93.1967,-720.317 L 92.7256,-720.196 L 92.2432,-720.135 z
M 93.4369,-514.589 L 94.0451,-514.745 L 94.6289,-514.976 L 95.1791,-515.278 L 95.6871,-515.647 L 96.1448,-516.077
 L 96.5451,-516.561 L 96.8815,-517.091 L 97.1489,-517.659 L 97.3429,-518.257 L 97.4606,-518.873 L 97.5,-519.5
 L 97.5,-704.5 L 97.4606,-705.127 L 97.3429,-705.743 L 97.1489,-706.341 L 96.8815,-706.909 L 96.5451,-707.439
 L 96.1448,-707.923 L 95.6871,-708.353 L 95.1791,-708.722 L 94.6289,-709.024 L 94.0451,-709.255 L 93.4369,-709.411
 L 92.8139,-709.49 L -92.8139,-709.49 L -93.4369,-709.411 L -94.0451,-709.255 L -94.5,-709.075 L -94.5,-709.115
 L -97.5,-709.115 L -97.5,-514.885 L -94.5,-514.885 L -94.5,-514.925 L -94.0451,-514.745 L -93.4369,-514.589
 L -92.8139,-514.51 L 92.8139,-514.51 z
M -90.1507,-699.605 L -90.4497,-699.643 L -90.7416,-699.717 L -91.0219,-699.828 L -91.286,-699.974 L -91.5298,-700.151
 L -91.7495,-700.357 L -91.9416,-700.589 L -92.1031,-700.844 L -92.2315,-701.117 L -92.3246,-701.403 L -92.3811,-701.699
 L -92.4,-702 L -92.3811,-702.301 L -92.3246,-702.597 L -92.2315,-702.883 L -92.1031,-703.156 L -91.9416,-703.411
 L -91.7495,-703.643 L -91.5298,-703.849 L -91.286,-704.026 L -91.0219,-704.172 L -90.7416,-704.283 L -90.4497,-704.357
 L -90.1507,-704.395 L -89.8493,-704.395 L -89.5503,-704.357 L -89.2584,-704.283 L -88.9781,-704.172 L -88.714,-704.026
 L -88.4702,-703.849 L -88.2505,-703.643 L -88.0583,-703.411 L -87.8969,-703.156 L -87.7685,-702.883 L -87.6754,-702.597
 L -87.6189,-702.301 L -87.6,-702 L -87.6189,-701.699 L -87.6754,-701.403 L -87.7685,-701.117 L -87.8969,-700.844
 L -88.0583,-700.589 L -88.2505,-700.357 L -88.4702,-700.151 L -88.714,-699.974 L -88.9781,-699.828 L -89.2584,-699.717
 L -89.5503,-699.643 L -89.8493,-699.605 z
M 89.8493,-699.605 L 89.5503,-699.643 L 89.2584,-699.717 L 88.9781,-699.828 L 88.714,-699.974 L 88.4702,-700.151
 L 88.2505,-700.357 L 88.0583,-700.589 L 87.8969,-700.844 L 87.7685,-701.117 L 87.6754,-701.403 L 87.6189,-701.699
 L 87.6,-702 L 87.6189,-702.301 L 87.6754,-702.597 L 87.7685,-702.883 L 87.8969,-703.156 L 88.0583,-703.411
 L 88.2505,-703.643 L 88.4702,-703.849 L 88.714,-704.026 L 88.9781,-704.172 L 89.2584,-704.283 L 89.5503,-704.357
 L 89.8493,-704.395 L 90.1507,-704.395 L 90.4497,-704.357 L 90.7416,-704.283 L 91.0219,-704.172 L 91.286,-704.026
 L 91.5298,-703.849 L 91.7495,-703.643 L 91.9416,-703.411 L 92.1031,-703.156 L 92.2315,-702.883 L 92.3246,-702.597
 L 92.3811,-702.301 L 92.4,-702 L 92.3811,-701.699 L 92.3246,-701.403 L 92.2315,-701.117 L 92.1031,-700.844
 L 91.9416,-700.589 L 91.7495,-700.357 L 91.5298,-700.151 L 91.286,-699.974 L 91.0219,-699.828 L 90.7416,-699.717
 L 90.4497,-699.643 L 90.1507,-699.605 z
M 89.8493,-519.605 L 89.5503,-519.643 L 89.2584,-519.717 L 88.9781,-519.828 L 88.714,-519.974 L 88.4702,-520.151
 L 88.2505,-520.357 L 88.0583,-520.589 L 87.8969,-520.844 L 87.7685,-521.117 L 87.6754,-521.403 L 87.6189,-521.699
 L 87.6,-522 L 87.6189,-522.301 L 87.6754,-522.597 L 87.7685,-522.883 L 87.8969,-523.156 L 88.0583,-523.411
 L 88.2505,-523.643 L 88.4702,-523.849 L 88.714,-524.026 L 88.9781,-524.172 L 89.2584,-524.283 L 89.5503,-524.357
 L 89.8493,-524.395 L 90.1507,-524.395 L 90.4497,-524.357 L 90.7416,-524.283 L 91.0219,-524.172 L 91.286,-524.026
 L 91.5298,-523.849 L 91.7495,-523.643 L 91.9416,-523.411 L 92.1031,-523.156 L 92.2315,-522.883 L 92.3246,-522.597
 L 92.3811,-522.301 L 92.4,-522 L 92.3811,-521.699 L 92.3246,-521.403 L 92.2315,-521.117 L 92.1031,-520.844
 L 91.9416,-520.589 L 91.7495,-520.357 L 91.5298,-520.151 L 91.286,-519.974 L 91.0219,-519.828 L 90.7416,-519.717
 L 90.4497,-519.643 L 90.1507,-519.605 z
M -90.1507,-519.605 L -90.4497,-519.643 L -90.7416,-519.717 L -91.0219,-519.828 L -91.286,-519.974 L -91.5298,-520.151
 L -91.7495,-520.357 L -91.9416,-520.589 L -92.1031,-520.844 L -92.2315,-521.117 L -92.3246,-521.403 L -92.3811,-521.699
 L -92.4,-522 L -92.3811,-522.301 L -92.3246,-522.597 L -92.2315,-522.883 L -92.1031,-523.156 L -91.9416,-523.411
 L -91.7495,-523.643 L -91.5298,-523.849 L -91.286,-524.026 L -91.0219,-524.172 L -90.7416,-524.283 L -90.4497,-524.357
 L -90.1507,-524.395 L -89.8493,-524.395 L -89.5503,-524.357 L -89.2584,-524.283 L -88.9781,-524.172 L -88.714,-524.026
 L -88.4702,-523.849 L -88.2505,-523.643 L -88.0583,-523.411 L -87.8969,-523.156 L -87.7685,-522.883 L -87.6754,-522.597
 L -87.6189,-522.301 L -87.6,-522 L -87.6189,-521.699 L -87.6754,-521.403 L -87.7685,-521.117 L -87.8969,-520.844
 L -88.0583,-520.589 L -88.2505,-520.357 L -88.4702,-520.151 L -88.714,-519.974 L -88.9781,-519.828 L -89.2584,-519.717
 L -89.5503,-519.643 L -89.8493,-519.605 z
M 93.4369,-310.589 L 94.0451,-310.745 L 94.6289,-310.976 L 95.1791,-311.278 L 95.6871,-311.647 L 96.1448,-312.077
 L 96.5451,-312.561 L 96.8815,-313.091 L 97.1489,-313.659 L 97.3429,-314.257 L 97.4606,-314.873 L 97.5,-315.5
 L 97.5,-500.5 L 97.4606,-501.127 L 97.3429,-501.743 L 97.1489,-502.341 L 96.8815,-502.909 L 96.5451,-503.439
 L 96.1448,-503.923 L 95.6871,-504.353 L 95.1791,-504.722 L 94.6289,-505.024 L 94.0451,-505.255 L 93.4369,-505.411
 L 92.8139,-505.49 L -92.8139,-505.49 L -93.4369,-505.411 L -94.0451,-505.255 L -94.6289,-505.024 L -95.1791,-504.722
 L -95.6871,-504.353 L -96.1448,-503.923 L -96.5451,-503.439 L -96.8815,-502.909 L -97.1489,-502.341 L -97.3429,-501.743
 L -97.4,-501.444 L -97.5,-501.444 L -97.5,-314.556 L -97.4,-314.556 L -97.3429,-314.257 L -97.1489,-313.659
 L -96.8815,-313.091 L -96.5451,-312.561 L -96.1448,-312.077 L -95.6871,-311.647 L -95.1791,-311.278 L -94.6289,-310.976
 L -94.0451,-310.745 L -93.4369,-310.589 L -92.8139,-310.51 L 92.8139,-310.51 z
M 89.887,-496.204 L 89.6627,-496.232 L 89.4438,-496.288 L 89.2336,-496.371 L 89.0355,-496.48 L 88.8526,-496.613
 L 88.6879,-496.768 L 88.5438,-496.942 L 88.4226,-497.133 L 88.3264,-497.337 L 88.2565,-497.552 L 88.2142,-497.774
 L 88.2,-498 L 88.2142,-498.226 L 88.2565,-498.448 L 88.3264,-498.663 L 88.4226,-498.867 L 88.5438,-499.058
 L 88.6879,-499.232 L 88.8526,-499.387 L 89.0355,-499.52 L 89.2336,-499.629 L 89.4438,-499.712 L 89.6627,-499.768
 L 89.887,-499.796 L 90.113,-499.796 L 90.3373,-499.768 L 90.5562,-499.712 L 90.7664,-499.629 L 90.9645,-499.52
 L 91.1474,-499.387 L 91.3121,-499.232 L 91.4562,-499.058 L 91.5773,-498.867 L 91.6736,-498.663 L 91.7434,-498.448
 L 91.7858,-498.226 L 91.8,-498 L 91.7858,-497.774 L 91.7434,-497.552 L 91.6736,-497.337 L 91.5773,-497.133
 L 91.4562,-496.942 L 91.3121,-496.768 L 91.1474,-496.613 L 90.9645,-496.48 L 90.7664,-496.371 L 90.5562,-496.288
 L 90.3373,-496.232 L 90.113,-496.204 z
M -90.113,-496.204 L -90.3373,-496.232 L -90.5562,-496.288 L -90.7664,-496.371 L -90.9645,-496.48 L -91.1474,-496.613
 L -91.3121,-496.768 L -91.4562,-496.942 L -91.5773,-497.133 L -91.6736,-497.337 L -91.7434,-497.552 L -91.7858,-497.774
 L -91.8,-498 L -91.7858,-498.226 L -91.7434,-498.448 L -91.6736,-498.663 L -91.5773,-498.867 L -91.4562,-499.058
 L -91.3121,-499.232 L -91.1474,-499.387 L -90.9645,-499.52 L -90.7664,-499.629 L -90.5562,-499.712 L -90.3373,-499.768
 L -90.113,-499.796 L -89.887,-499.796 L -89.6627,-499.768 L -89.4438,-499.712 L -89.2336,-499.629 L -89.0355,-499.52
 L -88.8526,-499.387 L -88.6879,-499.232 L -88.5438,-499.058 L -88.4226,-498.867 L -88.3264,-498.663 L -88.2565,-498.448
 L -88.2142,-498.226 L -88.2,-498 L -88.2142,-497.774 L -88.2565,-497.552 L -88.3264,-497.337 L -88.4226,-497.133
 L -88.5438,-496.942 L -88.6879,-496.768 L -88.8526,-496.613 L -89.0355,-496.48 L -89.2336,-496.371 L -89.4438,-496.288
 L -89.6627,-496.232 L -89.887,-496.204 z
M 89.887,-316.204 L 89.6627,-316.232 L 89.4438,-316.288 L 89.2336,-316.371 L 89.0355,-316.48 L 88.8526,-316.613
 L 88.6879,-316.768 L 88.5438,-316.942 L 88.4226,-317.133 L 88.3264,-317.337 L 88.2565,-317.552 L 88.2142,-317.774
 L 88.2,-318 L 88.2142,-318.226 L 88.2565,-318.448 L 88.3264,-318.663 L 88.4226,-318.867 L 88.5438,-319.058
 L 88.6879,-319.232 L 88.8526,-319.387 L 89.0355,-319.52 L 89.2336,-319.629 L 89.4438,-319.712 L 89.6627,-319.768
 L 89.887,-319.796 L 90.113,-319.796 L 90.3373,-319.768 L 90.5562,-319.712 L 90.7664,-319.629 L 90.9645,-319.52
 L 91.1474,-319.387 L 91.3121,-319.232 L 91.4562,-319.058 L 91.5773,-318.867 L 91.6736,-318.663 L 91.7434,-318.448
 L 91.7858,-318.226 L 91.8,-318 L 91.7858,-317.774 L 91.7434,-317.552 L 91.6736,-317.337 L 91.5773,-317.133
 L 91.4562,-316.942 L 91.3121,-316.768 L 91.1474,-316.613 L 90.9645,-316.48 L 90.7664,-316.371 L 90.5562,-316.288
 L 90.3373,-316.232 L 90.113,-316.204 z
M -90.113,-316.204 L -90.3373,-316.232 L -90.5562,-316.288 L -90.7664,-316.371 L -90.9645,-316.48 L -91.1474,-316.613
 L -91.3121,-316.768 L -91.4562,-316.942 L -91.5773,-317.133 L -91.6736,-317.337 L -91.7434,-317.552 L -91.7858,-317.774
 L -91.8,-318 L -91.7858,-318.226 L -91.7434,-318.448 L -91.6736,-318.663 L -91.5773,-318.867 L -91.4562,-319.058
 L -91.3121,-319.232 L -91.1474,-319.387 L -90.9645,-319.52 L -90.7664,-319.629 L -90.5562,-319.712 L -90.3373,-319.768
 L -90.113,-319.796 L -89.887,-319.796 L -89.6627,-319.768 L -89.4438,-319.712 L -89.2336,-319.629 L -89.0355,-319.52
 L -88.8526,-319.387 L -88.6879,-319.232 L -88.5438,-319.058 L -88.4226,-318.867 L -88.3264,-318.663 L -88.2565,-318.448
 L -88.2142,-318.226 L -88.2,-318 L -88.2142,-317.774 L -88.2565,-317.552 L -88.3264,-317.337 L -88.4226,-317.133
 L -88.5438,-316.942 L -88.6879,-316.768 L -88.8526,-316.613 L -89.0355,-316.48 L -89.2336,-316.371 L -89.4438,-316.288
 L -89.6627,-316.232 L -89.887,-316.204 z
" stroke="black" fill="lightgray" stroke-width="0.5"/>
</svg>
