<?xml version="1.0" standalone="no"?>
<!DOCTYPE svg PUBLIC "-//W3C//DTD SVG 1.1//EN" "http://www.w3.org/Graphics/SVG/1.1/DTD/svg11.dtd">
<svg width="106mm" height="448mm" viewBox="-53 -851 106 448" xmlns="http://www.w3.org/2000/svg" version="1.1">
<title>OpenSCAD Model</title>
<path d="
M 48.4369,-745.589 L 49.0451,-745.745 L 49.6289,-745.976 L 50.1791,-746.278 L 50.6871,-746.647 L 51.1448,-747.077
 L 51.5451,-747.561 L 51.8815,-748.091 L 52.1489,-748.659 L 52.3429,-749.257 L 52.4606,-749.873 L 52.5,-750.5
 L 52.5,-845.5 L 52.4606,-846.127 L 52.3429,-846.743 L 52.1489,-847.341 L 51.8815,-847.909 L 51.5451,-848.439
 L 51.1448,-848.923 L 50.6871,-849.353 L 50.1791,-849.722 L 49.6289,-850.024 L 49.0451,-850.255 L 48.4369,-850.411
 L 47.8139,-850.49 L -47.8139,-850.49 L -48.4369,-850.411 L -49.0451,-850.255 L -49.6289,-850.024 L -50.1791,-849.722
 L -50.6871,-849.353 L -51.1448,-848.923 L -51.5451,-848.439 L -51.8815,-847.909 L -52.1489,-847.341 L -52.3429,-846.743
 L -52.4606,-846.127 L -52.5,-845.5 L -52.5,-750.5 L -52.4606,-749.873 L -52.3429,-749.257 L -52.1489,-748.659
 L -51.8815,-748.091 L -51.5451,-747.561 L -51.1448,-747.077 L -50.6871,-746.647 L -50.1791,-746.278 L -49.6289,-745.976
 L -49.0451,-745.745 L -48.4369,-745.589 L -47.8139,-745.51 L 47.8139,-745.51 z
M -47.2512,-747.008 L -47.7495,-747.071 L -48.2361,-747.196 L -48.7031,-747.381 L -49.1433,-747.623 L -49.5497,-747.918
 L -49.9159,-748.262 L -50.2361,-748.649 L -50.5052,-749.073 L -50.7191,-749.528 L -50.8743,-750.005 L -50.9685,-750.499
 L -51,-751 L -51,-845 L -50.9685,-845.501 L -50.8743,-845.995 L -50.7191,-846.472 L -50.5052,-846.927
 L -50.2361,-847.351 L -49.9159,-847.738 L -49.5497,-848.082 L -49.1433,-848.377 L -48.7031,-848.619 L -48.2361,-848.804
 L -47.7495,-848.929 L -47.2512,-848.992 L 47.2512,-848.992 L 47.7495,-848.929 L 48.2361,-848.804 L 48.7031,-848.619
 L 49.1433,-848.377 L 49.5497,-848.082 L 49.9159,-847.738 L 50.2361,-847.351 L 50.5052,-846.927 L 50.7191,-846.472
 L 50.8743,-845.995 L 50.9685,-845.501 L 51,-845 L 51,-751 L 50.9685,-750.499 L 50.8743,-750.005
 L 50.7191,-749.528 L 50.5052,-749.073 L 50.2361,-748.649 L 49.9159,-748.262 L 49.5497,-747.918 L 49.1433,-747.623
 L 48.7031,-747.381 L 48.2361,-747.196 L 47.7495,-747.071 L 47.2512,-747.008 z
M 48.4369,-631.589 L 49.0451,-631.745 L 49.6289,-631.976 L 50.1791,-632.278 L 50.6871,-632.647 L 51.1448,-633.077
 L 51.5451,-633.561 L 51.8815,-634.091 L 52.1489,-634.659 L 52.3429,-635.257 L 52.4606,-635.873 L 52.5,-636.5
 L 52.5,-731.5 L 52.4606,-732.127 L 52.3429,-732.743 L 52.1489,-733.341 L 51.8815,-733.909 L 51.5451,-734.439
 L 51.1448,-734.923 L 50.6871,-735.353 L 50.1791,-735.722 L 49.6289,-736.024 L 49.0451,-736.255 L 48.4369,-736.411
 L 47.8139,-736.49 L -47.8139,-736.49 L -48.4369,-736.411 L -49.0451,-736.255 L -49.6289,-736.024 L -50.1791,-735.722
 L -50.6871,-735.353 L -51.1448,-734.923 L -51.5451,-734.439 L -51.8815,-733.909 L -52.1489,-733.341 L -52.3429,-732.743
 L -52.4606,-732.127 L -52.5,-731.5 L -52.5,-636.5 L -52.4606,-635.873 L -52.3429,-635.257 L -52.1489,-634.659
 L -51.8815,-634.091 L -51.5451,-633.561 L -51.1448,-633.077 L -50.6871,-632.647 L -50.1791,-632.278 L -49.6289,-631.976
 L -49.0451,-631.745 L -48.4369,-631.589 L -47.8139,-631.51 L 47.8139,-631.51 z
M -47.2512,-633.008 L -47.7495,-633.071 L -48.2361,-633.196 L -48.7031,-633.381 L -49.1433,-633.623 L -49.5497,-633.918
 L -49.9159,-634.262 L -50.2361,-634.649 L -50.5052,-635.073 L -50.7191,-635.528 L -50.8743,-636.005 L -50.9685,-636.499
 L -51,-637 L -51,-731 L -50.9685,-731.501 L -50.8743,-731.995 L -50.7191,-732.472 L -50.5052,-732.927
 L -50.2361,-733.351 L -49.9159,-733.738 L -49.5497,-734.082 L -49.1433,-734.377 L -48.7031,-734.619 L -48.2361,-734.804
 L -47.7495,-734.929 L -47.2512,-734.992 L 47.2512,-734.992 L 47.7495,-734.929 L 48.2361,-734.804 L 48.7031,-734.619
 L 49.1433,-734.377 L 49.5497,-734.082 L 49.9159,-733.738 L 50.2361,-733.351 L 50.5052,-732.927 L 50.7191,-732.472
 L 50.8743,-731.995 L 50.9685,-731.501 L 51,-731 L 51,-637 L 50.9685,-636.499 L 50.8743,-636.005
 L 50.7191,-635.528 L 50.5052,-635.073 L 50.2361,-634.649 L 49.9159,-634.262 L 49.5497,-633.918 L 49.1433,-633.623
 L 48.7031,-633.381 L 48.2361,-633.196 L 47.7495,-633.071 L 47.2512,-633.008 z
M 48.4369,-517.589 L 49.0451,-517.745 L 49.6289,-517.976 L 50.1791,-518.278 L 50.6871,-518.647 L 51.1448,-519.077
 L 51.5451,-519.561 L 51.8815,-520.091 L 52.1489,-520.659 L 52.3429,-521.257 L 52.4606,-521.873 L 52.5,-522.5
 L 52.5,-617.5 L 52.4606,-618.127 L 52.3429,-618.743 L 52.1489,-619.341 L 51.8815,-619.909 L 51.5451,-620.439
 L 51.1448,-620.923 L 50.6871,-621.353 L 50.1791,-621.722 L 49.6289,-622.024 L 49.0451,-622.255 L 48.4369,-622.411
 L 47.8139,-622.49 L -47.8139,-622.49 L -48.4369,-622.411 L -49.0451,-622.255 L -49.6289,-622.024 L -50.1791,-621.722
 L -50.6871,-621.353 L -51.1448,-620.923 L -51.5451,-620.439 L -51.8815,-619.909 L -52.1489,-619.341 L -52.3429,-618.743
 L -52.4606,-618.127 L -52.5,-617.5 L -52.5,-522.5 L -52.4606,-521.873 L -52.3429,-521.257 L -52.1489,-520.659
 L -51.8815,-520.091 L -51.5451,-519.561 L -51.1448,-519.077 L -50.6871,-518.647 L -50.1791,-518.278 L -49.6289,-517.976
 L -49.0451,-517.745 L -48.4369,-517.589 L -47.8139,-517.51 L 47.8139,-517.51 z
M -47.1954,-519.893 L -47.5833,-519.942 L -47.9619,-520.039 L -48.3254,-520.183 L -48.668,-520.372 L -48.9842,-520.601
 L -49.2692,-520.869 L -49.5184,-521.17 L -49.7279,-521.5 L -49.8943,-521.854 L -50.0151,-522.226 L -50.0884,-522.61
 L -50.1129,-523 L -50.1129,-617 L -50.0884,-617.39 L -50.0151,-617.774 L -49.8943,-618.146 L -49.7279,-618.5
 L -49.5184,-618.83 L -49.2692,-619.131 L -48.9842,-619.399 L -48.668,-619.628 L -48.3254,-619.817 L -47.9619,-619.961
 L -47.5833,-620.058 L -47.1954,-620.107 L 47.1954,-620.107 L 47.5833,-620.058 L 47.9619,-619.961 L 48.3254,-619.817
 L 48.668,-619.628 L 48.9842,-619.399 L 49.2692,-619.131 L 49.5184,-618.83 L 49.7279,-618.5 L 49.8943,-618.146
 L 50.0151,-617.774 L 50.0884,-617.39 L 50.1129,-617 L 50.1129,-523 L 50.0884,-522.61 L 50.0151,-522.226
 L 49.8943,-521.854 L 49.7279,-521.5 L 49.5184,-521.17 L 49.2692,-520.869 L 48.9842,-520.601 L 48.668,-520.372
 L 48.3254,-520.183 L 47.9619,-520.039 L 47.5833,-519.942 L 47.1954,-519.893 z
M 48.4369,-403.589 L 49.0451,-403.745 L 49.6289,-403.976 L 50.1791,-404.278 L 50.6871,-404.647 L 51.1448,-405.077
 L 51.5451,-405.561 L 51.8815,-406.091 L 52.1489,-406.659 L 52.3429,-407.257 L 52.4606,-407.873 L 52.5,-408.5
 L 52.5,-503.5 L 52.4606,-504.127 L 52.3429,-504.743 L 52.1489,-505.341 L 51.8815,-505.909 L 51.5451,-506.439
 L 51.1448,-506.923 L 50.6871,-507.353 L 50.1791,-507.722 L 49.6289,-508.024 L 49.0451,-508.255 L 48.4369,-508.411
 L 47.8139,-508.49 L -47.8139,-508.49 L -48.4369,-508.411 L -49.0451,-508.255 L -49.6289,-508.024 L -50.1791,-507.722
 L -50.6871,-507.353 L -51.1448,-506.923 L -51.5451,-506.439 L -51.8815,-505.909 L -52.1489,-505.341 L -52.3429,-504.743
 L -52.4606,-504.127 L -52.5,-503.5 L -52.5,-408.5 L -52.4606,-407.873 L -52.3429,-407.257 L -52.1489,-406.659
 L -51.8815,-406.091 L -51.5451,-405.561 L -51.1448,-405.077 L -50.6871,-404.647 L -50.1791,-404.278 L -49.6289,-403.976
 L -49.0451,-403.745 L -48.4369,-403.589 L -47.8139,-403.51 L 47.8139,-403.51 z
M 44.8659,-498.869 L 44.5999,-498.903 L 44.3401,-498.969 L 44.0908,-499.068 L 43.8559,-499.197 L 43.6389,-499.355
 L 43.4434,-499.538 L 43.2725,-499.745 L 43.1288,-499.971 L 43.0146,-500.214 L 42.9318,-500.469 L 42.8815,-500.732
 L 42.8647,-501 L 42.8815,-501.268 L 42.9318,-501.531 L 43.0146,-501.786 L 43.1288,-502.029 L 43.2725,-502.255
 L 43.4434,-502.462 L 43.6389,-502.645 L 43.8559,-502.803 L 44.0908,-502.932 L 44.3401,-503.031 L 44.5999,-503.097
 L 44.8659,-503.131 L 45.1341,-503.131 L 45.4001,-503.097 L 45.6598,-503.031 L 45.9092,-502.932 L 46.1441,-502.803
 L 46.3611,-502.645 L 46.5565,-502.462 L 46.7275,-502.255 L 46.8712,-502.029 L 46.9853,-501.786 L 47.0682,-501.531
 L 47.1185,-501.268 L 47.1353,-501 L 47.1185,-500.732 L 47.0682,-500.469 L 46.9853,-500.214 L 46.8712,-499.971
 L 46.7275,-499.745 L 46.5565,-499.538 L 46.3611,-499.355 L 46.1441,-499.197 L 45.9092,-499.068 L 45.6598,-498.969
 L 45.4001,-498.903 L 45.1341,-498.869 z
M -45.1341,-498.869 L -45.4001,-498.903 L -45.6598,-498.969 L -45.9092,-499.068 L -46.1441,-499.197 L -46.3611,-499.355
 L -46.5565,-499.538 L -46.7275,-499.745 L -46.8712,-499.971 L -46.9853,-500.214 L -47.0682,-500.469 L -47.1185,-500.732
 L -47.1353,-501 L -47.1185,-501.268 L -47.0682,-501.531 L -46.9853,-501.786 L -46.8712,-502.029 L -46.7275,-502.255
 L -46.5565,-502.462 L -46.3611,-502.645 L -46.1441,-502.803 L -45.9092,-502.932 L -45.6598,-503.031 L -45.4001,-503.097
 L -45.1341,-503.131 L -44.8659,-503.131 L -44.5999,-503.097 L -44.3401,-503.031 L -44.0908,-502.932 L -43.8559,-502.803
 L -43.6389,-502.645 L -43.4434,-502.462 L -43.2725,-502.255 L -43.1288,-502.029 L -43.0146,-501.786 L -42.9318,-501.531
 L -42.8815,-501.268 L -42.8647,-501 L -42.8815,-500.732 L -42.9318,-500.469 L -43.0146,-500.214 L -43.1288,-499.971
 L -43.2725,-499.745 L -43.4434,-499.538 L -43.6389,-499.355 L -43.8559,-499.197 L -44.0908,-499.068 L -44.3401,-498.969
 L -44.5999,-498.903 L -44.8659,-498.869 z
M 44.8659,-408.869 L 44.5999,-408.903 L 44.3401,-408.969 L 44.0908,-409.068 L 43.8559,-409.197 L 43.6389,-409.355
 L 43.4434,-409.538 L 43.2725,-409.745 L 43.1288,-409.971 L 43.0146,-410.214 L 42.9318,-410.469 L 42.8815,-410.732
 L 42.8647,-411 L 42.8815,-411.268 L 42.9318,-411.531 L 43.0146,-411.786 L 43.1288,-412.029 L 43.2725,-412.255
 L 43.4434,-412.462 L 43.6389,-412.645 L 43.8559,-412.803 L 44.0908,-412.932 L 44.3401,-413.031 L 44.5999,-413.097
 L 44.8659,-413.131 L 45.1341,-413.131 L 45.4001,-413.097 L 45.6598,-413.031 L 45.9092,-412.932 L 46.1441,-412.803
 L 46.3611,-412.645 L 46.5565,-412.462 L 46.7275,-412.255 L 46.8712,-412.029 L 46.9853,-411.786 L 47.0682,-411.531
 L 47.1185,-411.268 L 47.1353,-411 L 47.1185,-410.732 L 47.0682,-410.469 L 46.9853,-410.214 L 46.8712,-409.971
 L 46.7275,-409.745 L 46.5565,-409.538 L 46.3611,-409.355 L 46.1441,-409.197 L 45.9092,-409.068 L 45.6598,-408.969
 L 45.4001,-408.903 L 45.1341,-408.869 z
M -45.1341,-408.869 L -45.4001,-408.903 L -45.6598,-408.969 L -45.9092,-409.068 L -46.1441,-409.197 L -46.3611,-409.355
 L -46.5565,-409.538 L -46.7275,-409.745 L -46.8712,-409.971 L -46.9853,-410.214 L -47.0682,-410.469 L -47.1185,-410.732
 L -47.1353,-411 L -47.1185,-411.268 L -47.0682,-411.531 L -46.9853,-411.786 L -46.8712,-412.029 L -46.7275,-412.255
 L -46.5565,-412.462 L -46.3611,-412.645 L -46.1441,-412.803 L -45.9092,-412.932 L -45.6598,-413.031 L -45.4001,-413.097
 L -45.1341,-413.131 L -44.8659,-413.131 L -44.5999,-413.097 L -44.3401,-413.031 L -44.0908,-412.932 L -43.8559,-412.803
 L -43.6389,-412.645 L -43.4434,-412.462 L -43.2725,-412.255 L -43.1288,-412.029 L -43.0146,-411.786 L -42.9318,-411.531
 L -42.8815,-411.268 L -42.8647,-411 L -42.8815,-410.732 L -42.9318,-410.469 L -43.0146,-410.214 L -43.1288,-409.971
 L -43.2725,-409.745 L -43.4434,-409.538 L -43.6389,-409.355 L -43.8559,-409.197 L -44.0908,-409.068 L -44.3401,-408.969
 L -44.5999,-408.903 L -44.8659,-408.869 z
" stroke="black" fill="lightgray" stroke-width="0.5"/>
</svg>
