solid OpenSCAD_Model
  facet normal 0.998027 0.0627936 0
    outer loop
      vertex 87.5 0 18
      vertex 86.81 10.9667 0
      vertex 86.81 10.9667 18
    endloop
  endfacet
  facet normal 0.998027 0.0627936 0
    outer loop
      vertex 86.81 10.9667 0
      vertex 87.5 0 18
      vertex 87.5 0 0
    endloop
  endfacet
  facet normal -0.998027 0.0627936 0
    outer loop
      vertex -87.5 0 0
      vertex -86.81 10.9667 18
      vertex -86.81 10.9667 0
    endloop
  endfacet
  facet normal -0.998027 0.0627936 0
    outer loop
      vertex -86.81 10.9667 18
      vertex -87.5 0 0
      vertex -87.5 0 18
    endloop
  endfacet
  facet normal 0 1 -0
    outer loop
      vertex 5.49417 87.3273 0
      vertex -5.49417 87.3273 18
      vertex 5.49417 87.3273 18
    endloop
  endfacet
  facet normal 0 1 0
    outer loop
      vertex -5.49417 87.3273 18
      vertex 5.49417 87.3273 0
      vertex -5.49417 87.3273 0
    endloop
  endfacet
  facet normal 0 -1 0
    outer loop
      vertex -5.49417 -87.3273 0
      vertex 5.49417 -87.3273 18
      vertex -5.49417 -87.3273 18
    endloop
  endfacet
  facet normal 0 -1 -0
    outer loop
      vertex 5.49417 -87.3273 18
      vertex -5.49417 -87.3273 0
      vertex 5.49417 -87.3273 0
    endloop
  endfacet
  facet normal 0.684543 0.728972 -0
    outer loop
      vertex 63.7848 59.8979 0
      vertex 55.7746 67.4199 18
      vertex 63.7848 59.8979 18
    endloop
  endfacet
  facet normal 0.684543 0.728972 0
    outer loop
      vertex 55.7746 67.4199 18
      vertex 63.7848 59.8979 0
      vertex 55.7746 67.4199 0
    endloop
  endfacet
  facet normal -0.684543 0.728972 0
    outer loop
      vertex -55.7746 67.4199 0
      vertex -63.7848 59.8979 18
      vertex -55.7746 67.4199 18
    endloop
  endfacet
  facet normal -0.684543 0.728972 0
    outer loop
      vertex -63.7848 59.8979 18
      vertex -55.7746 67.4199 0
      vertex -63.7848 59.8979 0
    endloop
  endfacet
  facet normal -0.368118 0.929779 0
    outer loop
      vertex -27.039 83.2174 0
      vertex -37.2557 79.1724 18
      vertex -27.039 83.2174 18
    endloop
  endfacet
  facet normal -0.368118 0.929779 0
    outer loop
      vertex -37.2557 79.1724 18
      vertex -27.039 83.2174 0
      vertex -37.2557 79.1724 0
    endloop
  endfacet
  facet normal 0.904827 0.42578 0
    outer loop
      vertex 81.3554 32.2109 18
      vertex 76.6768 42.1534 0
      vertex 76.6768 42.1534 18
    endloop
  endfacet
  facet normal 0.904827 0.42578 0
    outer loop
      vertex 76.6768 42.1534 0
      vertex 81.3554 32.2109 18
      vertex 81.3554 32.2109 0
    endloop
  endfacet
  facet normal 0.982287 0.187381 0
    outer loop
      vertex 86.81 10.9667 18
      vertex 84.751 21.7604 0
      vertex 84.751 21.7604 18
    endloop
  endfacet
  facet normal 0.982287 0.187381 0
    outer loop
      vertex 84.751 21.7604 0
      vertex 86.81 10.9667 18
      vertex 86.81 10.9667 0
    endloop
  endfacet
  facet normal 0.844331 0.535822 0
    outer loop
      vertex 76.6768 42.1534 18
      vertex 70.789 51.4312 0
      vertex 70.789 51.4312 18
    endloop
  endfacet
  facet normal 0.844331 0.535822 0
    outer loop
      vertex 70.789 51.4312 0
      vertex 76.6768 42.1534 18
      vertex 76.6768 42.1534 0
    endloop
  endfacet
  facet normal 0.368118 0.929779 -0
    outer loop
      vertex 37.2557 79.1724 0
      vertex 27.039 83.2174 18
      vertex 37.2557 79.1724 18
    endloop
  endfacet
  facet normal 0.368118 0.929779 0
    outer loop
      vertex 27.039 83.2174 18
      vertex 37.2557 79.1724 0
      vertex 27.039 83.2174 0
    endloop
  endfacet
  facet normal 0.248691 0.968583 -0
    outer loop
      vertex 27.039 83.2174 0
      vertex 16.3959 85.9501 18
      vertex 27.039 83.2174 18
    endloop
  endfacet
  facet normal 0.248691 0.968583 0
    outer loop
      vertex 16.3959 85.9501 18
      vertex 27.039 83.2174 0
      vertex 16.3959 85.9501 0
    endloop
  endfacet
  facet normal 0.481758 0.876304 -0
    outer loop
      vertex 46.8848 73.8787 0
      vertex 37.2557 79.1724 18
      vertex 46.8848 73.8787 18
    endloop
  endfacet
  facet normal 0.481758 0.876304 0
    outer loop
      vertex 37.2557 79.1724 18
      vertex 46.8848 73.8787 0
      vertex 37.2557 79.1724 0
    endloop
  endfacet
  facet normal -0.904827 0.42578 0
    outer loop
      vertex -81.3554 32.2109 0
      vertex -76.6768 42.1534 18
      vertex -76.6768 42.1534 0
    endloop
  endfacet
  facet normal -0.904827 0.42578 0
    outer loop
      vertex -76.6768 42.1534 18
      vertex -81.3554 32.2109 0
      vertex -81.3554 32.2109 18
    endloop
  endfacet
  facet normal -0.951056 0.309019 0
    outer loop
      vertex -84.751 21.7604 0
      vertex -81.3554 32.2109 18
      vertex -81.3554 32.2109 0
    endloop
  endfacet
  facet normal -0.951056 0.309019 0
    outer loop
      vertex -81.3554 32.2109 18
      vertex -84.751 21.7604 0
      vertex -84.751 21.7604 18
    endloop
  endfacet
  facet normal -0.125332 0.992115 0
    outer loop
      vertex -5.49417 87.3273 0
      vertex -16.3959 85.9501 18
      vertex -5.49417 87.3273 18
    endloop
  endfacet
  facet normal -0.125332 0.992115 0
    outer loop
      vertex -16.3959 85.9501 18
      vertex -5.49417 87.3273 0
      vertex -16.3959 85.9501 0
    endloop
  endfacet
  facet normal 0.125332 -0.992115 0
    outer loop
      vertex 5.49417 -87.3273 0
      vertex 16.3959 -85.9501 18
      vertex 5.49417 -87.3273 18
    endloop
  endfacet
  facet normal 0.125332 -0.992115 0
    outer loop
      vertex 16.3959 -85.9501 18
      vertex 5.49417 -87.3273 0
      vertex 16.3959 -85.9501 0
    endloop
  endfacet
  facet normal 0.368118 -0.929779 0
    outer loop
      vertex 27.039 -83.2174 0
      vertex 37.2557 -79.1724 18
      vertex 27.039 -83.2174 18
    endloop
  endfacet
  facet normal 0.368118 -0.929779 0
    outer loop
      vertex 37.2557 -79.1724 18
      vertex 27.039 -83.2174 0
      vertex 37.2557 -79.1724 0
    endloop
  endfacet
  facet normal 0.951056 0.309019 0
    outer loop
      vertex 84.751 21.7604 18
      vertex 81.3554 32.2109 0
      vertex 81.3554 32.2109 18
    endloop
  endfacet
  facet normal 0.951056 0.309019 0
    outer loop
      vertex 81.3554 32.2109 0
      vertex 84.751 21.7604 18
      vertex 84.751 21.7604 0
    endloop
  endfacet
  facet normal 0.770516 0.637421 0
    outer loop
      vertex 70.789 51.4312 18
      vertex 63.7848 59.8979 0
      vertex 63.7848 59.8979 18
    endloop
  endfacet
  facet normal 0.770516 0.637421 0
    outer loop
      vertex 63.7848 59.8979 0
      vertex 70.789 51.4312 18
      vertex 70.789 51.4312 0
    endloop
  endfacet
  facet normal 0.125332 0.992115 -0
    outer loop
      vertex 16.3959 85.9501 0
      vertex 5.49417 87.3273 18
      vertex 16.3959 85.9501 18
    endloop
  endfacet
  facet normal 0.125332 0.992115 0
    outer loop
      vertex 5.49417 87.3273 18
      vertex 16.3959 85.9501 0
      vertex 5.49417 87.3273 0
    endloop
  endfacet
  facet normal 0.587784 0.809018 -0
    outer loop
      vertex 55.7746 67.4199 0
      vertex 46.8848 73.8787 18
      vertex 55.7746 67.4199 18
    endloop
  endfacet
  facet normal 0.587784 0.809018 0
    outer loop
      vertex 46.8848 73.8787 18
      vertex 55.7746 67.4199 0
      vertex 46.8848 73.8787 0
    endloop
  endfacet
  facet normal -0.844331 0.535822 0
    outer loop
      vertex -76.6768 42.1534 0
      vertex -70.789 51.4312 18
      vertex -70.789 51.4312 0
    endloop
  endfacet
  facet normal -0.844331 0.535822 0
    outer loop
      vertex -70.789 51.4312 18
      vertex -76.6768 42.1534 0
      vertex -76.6768 42.1534 18
    endloop
  endfacet
  facet normal -0.770516 0.637421 0
    outer loop
      vertex -70.789 51.4312 0
      vertex -63.7848 59.8979 18
      vertex -63.7848 59.8979 0
    endloop
  endfacet
  facet normal -0.770516 0.637421 0
    outer loop
      vertex -63.7848 59.8979 18
      vertex -70.789 51.4312 0
      vertex -70.789 51.4312 18
    endloop
  endfacet
  facet normal -0.982287 0.187381 0
    outer loop
      vertex -86.81 10.9667 0
      vertex -84.751 21.7604 18
      vertex -84.751 21.7604 0
    endloop
  endfacet
  facet normal -0.982287 0.187381 0
    outer loop
      vertex -84.751 21.7604 18
      vertex -86.81 10.9667 0
      vertex -86.81 10.9667 18
    endloop
  endfacet
  facet normal 0 0 1
    outer loop
      vertex 70 0 18
      vertex 87.5 0 18
      vertex 86.81 10.9667 18
    endloop
  endfacet
  facet normal 0 0 1
    outer loop
      vertex 69.448 8.77333 18
      vertex 86.81 10.9667 18
      vertex 84.751 21.7604 18
    endloop
  endfacet
  facet normal 0 0 1
    outer loop
      vertex 87.5 0 18
      vertex 70 0 18
      vertex 86.81 -10.9667 18
    endloop
  endfacet
  facet normal 0 0 1
    outer loop
      vertex 67.8008 17.4083 18
      vertex 84.751 21.7604 18
      vertex 81.3554 32.2109 18
    endloop
  endfacet
  facet normal -0 0 1
    outer loop
      vertex 69.448 -8.77333 18
      vertex 86.81 -10.9667 18
      vertex 70 0 18
    endloop
  endfacet
  facet normal 0 0 1
    outer loop
      vertex 65.0844 25.7687 18
      vertex 81.3554 32.2109 18
      vertex 76.6768 42.1534 18
    endloop
  endfacet
  facet normal 0 0 1
    outer loop
      vertex 86.81 -10.9667 18
      vertex 69.448 -8.77333 18
      vertex 84.751 -21.7604 18
    endloop
  endfacet
  facet normal 0 0 1
    outer loop
      vertex 61.3415 33.7228 18
      vertex 76.6768 42.1534 18
      vertex 70.789 51.4312 18
    endloop
  endfacet
  facet normal -0 0 1
    outer loop
      vertex 67.8008 -17.4083 18
      vertex 84.751 -21.7604 18
      vertex 69.448 -8.77333 18
    endloop
  endfacet
  facet normal 0 0 1
    outer loop
      vertex 84.751 -21.7604 18
      vertex 67.8008 -17.4083 18
      vertex 81.3554 -32.2109 18
    endloop
  endfacet
  facet normal 0 0 1
    outer loop
      vertex 86.81 10.9667 18
      vertex 69.448 8.77333 18
      vertex 70 0 18
    endloop
  endfacet
  facet normal 0 0 1
    outer loop
      vertex 84.751 21.7604 18
      vertex 67.8008 17.4083 18
      vertex 69.448 8.77333 18
    endloop
  endfacet
  facet normal 0 0 1
    outer loop
      vertex 81.3554 32.2109 18
      vertex 65.0844 25.7687 18
      vertex 67.8008 17.4083 18
    endloop
  endfacet
  facet normal 0 0 1
    outer loop
      vertex 56.6312 41.145 18
      vertex 70.789 51.4312 18
      vertex 63.7848 59.8979 18
    endloop
  endfacet
  facet normal 0 0 1
    outer loop
      vertex 76.6768 42.1534 18
      vertex 61.3415 33.7228 18
      vertex 65.0844 25.7687 18
    endloop
  endfacet
  facet normal 0 0 1
    outer loop
      vertex 70.789 51.4312 18
      vertex 56.6312 41.145 18
      vertex 61.3415 33.7228 18
    endloop
  endfacet
  facet normal 0 0 1
    outer loop
      vertex 51.0278 47.9183 18
      vertex 63.7848 59.8979 18
      vertex 55.7746 67.4199 18
    endloop
  endfacet
  facet normal 0 0 1
    outer loop
      vertex 63.7848 59.8979 18
      vertex 51.0278 47.9183 18
      vertex 56.6312 41.145 18
    endloop
  endfacet
  facet normal 0 0 1
    outer loop
      vertex 44.6197 53.9359 18
      vertex 55.7746 67.4199 18
      vertex 46.8848 73.8787 18
    endloop
  endfacet
  facet normal 0 0 1
    outer loop
      vertex 55.7746 67.4199 18
      vertex 44.6197 53.9359 18
      vertex 51.0278 47.9183 18
    endloop
  endfacet
  facet normal 0 0 1
    outer loop
      vertex 46.8848 73.8787 18
      vertex 37.5079 59.103 18
      vertex 44.6197 53.9359 18
    endloop
  endfacet
  facet normal 0 0 1
    outer loop
      vertex 37.2557 79.1724 18
      vertex 37.5079 59.103 18
      vertex 46.8848 73.8787 18
    endloop
  endfacet
  facet normal 0 0 1
    outer loop
      vertex 37.2557 79.1724 18
      vertex 29.8046 63.3379 18
      vertex 37.5079 59.103 18
    endloop
  endfacet
  facet normal 0 0 1
    outer loop
      vertex 27.039 83.2174 18
      vertex 29.8046 63.3379 18
      vertex 37.2557 79.1724 18
    endloop
  endfacet
  facet normal 0 0 1
    outer loop
      vertex 27.039 83.2174 18
      vertex 21.6312 66.574 18
      vertex 29.8046 63.3379 18
    endloop
  endfacet
  facet normal 0 0 1
    outer loop
      vertex 16.3959 85.9501 18
      vertex 21.6312 66.574 18
      vertex 27.039 83.2174 18
    endloop
  endfacet
  facet normal 0 0 1
    outer loop
      vertex 16.3959 85.9501 18
      vertex 13.1167 68.7601 18
      vertex 21.6312 66.574 18
    endloop
  endfacet
  facet normal 0 0 1
    outer loop
      vertex 5.49417 87.3273 18
      vertex 13.1167 68.7601 18
      vertex 16.3959 85.9501 18
    endloop
  endfacet
  facet normal 0 0 1
    outer loop
      vertex 5.49417 87.3273 18
      vertex 4.39534 69.8619 18
      vertex 13.1167 68.7601 18
    endloop
  endfacet
  facet normal 0 0 1
    outer loop
      vertex 5.49417 87.3273 18
      vertex -4.39534 69.8619 18
      vertex 4.39534 69.8619 18
    endloop
  endfacet
  facet normal -0 0 1
    outer loop
      vertex -5.49417 87.3273 18
      vertex -4.39534 69.8619 18
      vertex 5.49417 87.3273 18
    endloop
  endfacet
  facet normal 0 0 1
    outer loop
      vertex -5.49417 87.3273 18
      vertex -13.1167 68.7601 18
      vertex -4.39534 69.8619 18
    endloop
  endfacet
  facet normal -0 0 1
    outer loop
      vertex -16.3959 85.9501 18
      vertex -13.1167 68.7601 18
      vertex -5.49417 87.3273 18
    endloop
  endfacet
  facet normal 0 0 1
    outer loop
      vertex -16.3959 85.9501 18
      vertex -21.6312 66.574 18
      vertex -13.1167 68.7601 18
    endloop
  endfacet
  facet normal -0 0 1
    outer loop
      vertex -27.039 83.2174 18
      vertex -21.6312 66.574 18
      vertex -16.3959 85.9501 18
    endloop
  endfacet
  facet normal 0 0 1
    outer loop
      vertex -27.039 83.2174 18
      vertex -29.8046 63.3379 18
      vertex -21.6312 66.574 18
    endloop
  endfacet
  facet normal -0 0 1
    outer loop
      vertex -37.2557 79.1724 18
      vertex -29.8046 63.3379 18
      vertex -27.039 83.2174 18
    endloop
  endfacet
  facet normal 0 0 1
    outer loop
      vertex -37.2557 79.1724 18
      vertex -37.5079 59.103 18
      vertex -29.8046 63.3379 18
    endloop
  endfacet
  facet normal -0 0 1
    outer loop
      vertex -46.8848 73.8787 18
      vertex -37.5079 59.103 18
      vertex -37.2557 79.1724 18
    endloop
  endfacet
  facet normal 0 0 1
    outer loop
      vertex -37.5079 59.103 18
      vertex -46.8848 73.8787 18
      vertex -44.6197 53.9359 18
    endloop
  endfacet
  facet normal -0 0 1
    outer loop
      vertex -55.7746 67.4199 18
      vertex -44.6197 53.9359 18
      vertex -46.8848 73.8787 18
    endloop
  endfacet
  facet normal 0 0 1
    outer loop
      vertex -44.6197 53.9359 18
      vertex -55.7746 67.4199 18
      vertex -51.0278 47.9183 18
    endloop
  endfacet
  facet normal -0 0 1
    outer loop
      vertex -63.7848 59.8979 18
      vertex -51.0278 47.9183 18
      vertex -55.7746 67.4199 18
    endloop
  endfacet
  facet normal 0 0 1
    outer loop
      vertex -51.0278 47.9183 18
      vertex -63.7848 59.8979 18
      vertex -56.6312 41.145 18
    endloop
  endfacet
  facet normal -0 0 1
    outer loop
      vertex -70.789 51.4312 18
      vertex -56.6312 41.145 18
      vertex -63.7848 59.8979 18
    endloop
  endfacet
  facet normal 0 0 1
    outer loop
      vertex -56.6312 41.145 18
      vertex -70.789 51.4312 18
      vertex -61.3415 33.7228 18
    endloop
  endfacet
  facet normal -0 0 1
    outer loop
      vertex -76.6768 42.1534 18
      vertex -61.3415 33.7228 18
      vertex -70.789 51.4312 18
    endloop
  endfacet
  facet normal 0 0 1
    outer loop
      vertex -61.3415 33.7228 18
      vertex -76.6768 42.1534 18
      vertex -65.0844 25.7687 18
    endloop
  endfacet
  facet normal 0 0 1
    outer loop
      vertex -65.0844 25.7687 18
      vertex -81.3554 32.2109 18
      vertex -67.8008 17.4083 18
    endloop
  endfacet
  facet normal -0 0 1
    outer loop
      vertex -81.3554 32.2109 18
      vertex -65.0844 25.7687 18
      vertex -76.6768 42.1534 18
    endloop
  endfacet
  facet normal -0 0 1
    outer loop
      vertex 65.0844 -25.7687 18
      vertex 81.3554 -32.2109 18
      vertex 67.8008 -17.4083 18
    endloop
  endfacet
  facet normal 0 0 1
    outer loop
      vertex 81.3554 -32.2109 18
      vertex 65.0844 -25.7687 18
      vertex 76.6768 -42.1534 18
    endloop
  endfacet
  facet normal -0 0 1
    outer loop
      vertex 61.3415 -33.7228 18
      vertex 76.6768 -42.1534 18
      vertex 65.0844 -25.7687 18
    endloop
  endfacet
  facet normal 0 0 1
    outer loop
      vertex 76.6768 -42.1534 18
      vertex 61.3415 -33.7228 18
      vertex 70.789 -51.4312 18
    endloop
  endfacet
  facet normal -0 0 1
    outer loop
      vertex 56.6312 -41.145 18
      vertex 70.789 -51.4312 18
      vertex 61.3415 -33.7228 18
    endloop
  endfacet
  facet normal 0 0 1
    outer loop
      vertex 70.789 -51.4312 18
      vertex 56.6312 -41.145 18
      vertex 63.7848 -59.8979 18
    endloop
  endfacet
  facet normal -0 0 1
    outer loop
      vertex 51.0278 -47.9183 18
      vertex 63.7848 -59.8979 18
      vertex 56.6312 -41.145 18
    endloop
  endfacet
  facet normal 0 0 1
    outer loop
      vertex 63.7848 -59.8979 18
      vertex 51.0278 -47.9183 18
      vertex 55.7746 -67.4199 18
    endloop
  endfacet
  facet normal -0 0 1
    outer loop
      vertex 44.6197 -53.9359 18
      vertex 55.7746 -67.4199 18
      vertex 51.0278 -47.9183 18
    endloop
  endfacet
  facet normal 0 0 1
    outer loop
      vertex 55.7746 -67.4199 18
      vertex 44.6197 -53.9359 18
      vertex 46.8848 -73.8787 18
    endloop
  endfacet
  facet normal -0 0 1
    outer loop
      vertex 37.5079 -59.103 18
      vertex 46.8848 -73.8787 18
      vertex 44.6197 -53.9359 18
    endloop
  endfacet
  facet normal 0 0 1
    outer loop
      vertex 37.5079 -59.103 18
      vertex 37.2557 -79.1724 18
      vertex 46.8848 -73.8787 18
    endloop
  endfacet
  facet normal -0 0 1
    outer loop
      vertex 29.8046 -63.3379 18
      vertex 37.2557 -79.1724 18
      vertex 37.5079 -59.103 18
    endloop
  endfacet
  facet normal 0 0 1
    outer loop
      vertex 29.8046 -63.3379 18
      vertex 27.039 -83.2174 18
      vertex 37.2557 -79.1724 18
    endloop
  endfacet
  facet normal -0 0 1
    outer loop
      vertex 21.6312 -66.574 18
      vertex 27.039 -83.2174 18
      vertex 29.8046 -63.3379 18
    endloop
  endfacet
  facet normal 0 0 1
    outer loop
      vertex 21.6312 -66.574 18
      vertex 16.3959 -85.9501 18
      vertex 27.039 -83.2174 18
    endloop
  endfacet
  facet normal -0 0 1
    outer loop
      vertex 13.1167 -68.7601 18
      vertex 16.3959 -85.9501 18
      vertex 21.6312 -66.574 18
    endloop
  endfacet
  facet normal 0 0 1
    outer loop
      vertex 13.1167 -68.7601 18
      vertex 5.49417 -87.3273 18
      vertex 16.3959 -85.9501 18
    endloop
  endfacet
  facet normal -0 0 1
    outer loop
      vertex 4.39534 -69.8619 18
      vertex 5.49417 -87.3273 18
      vertex 13.1167 -68.7601 18
    endloop
  endfacet
  facet normal -0 0 1
    outer loop
      vertex -4.39534 -69.8619 18
      vertex 5.49417 -87.3273 18
      vertex 4.39534 -69.8619 18
    endloop
  endfacet
  facet normal 0 0 1
    outer loop
      vertex -4.39534 -69.8619 18
      vertex -5.49417 -87.3273 18
      vertex 5.49417 -87.3273 18
    endloop
  endfacet
  facet normal 0 0 1
    outer loop
      vertex -13.1167 -68.7601 18
      vertex -5.49417 -87.3273 18
      vertex -4.39534 -69.8619 18
    endloop
  endfacet
  facet normal 0 0 1
    outer loop
      vertex -13.1167 -68.7601 18
      vertex -16.3959 -85.9501 18
      vertex -5.49417 -87.3273 18
    endloop
  endfacet
  facet normal 0 0 1
    outer loop
      vertex -21.6312 -66.574 18
      vertex -16.3959 -85.9501 18
      vertex -13.1167 -68.7601 18
    endloop
  endfacet
  facet normal 0 0 1
    outer loop
      vertex -21.6312 -66.574 18
      vertex -27.039 -83.2174 18
      vertex -16.3959 -85.9501 18
    endloop
  endfacet
  facet normal 0 0 1
    outer loop
      vertex -29.8046 -63.3379 18
      vertex -27.039 -83.2174 18
      vertex -21.6312 -66.574 18
    endloop
  endfacet
  facet normal 0 0 1
    outer loop
      vertex -29.8046 -63.3379 18
      vertex -37.2557 -79.1724 18
      vertex -27.039 -83.2174 18
    endloop
  endfacet
  facet normal 0 0 1
    outer loop
      vertex -37.5079 -59.103 18
      vertex -37.2557 -79.1724 18
      vertex -29.8046 -63.3379 18
    endloop
  endfacet
  facet normal 0 0 1
    outer loop
      vertex -46.8848 -73.8787 18
      vertex -37.5079 -59.103 18
      vertex -44.6197 -53.9359 18
    endloop
  endfacet
  facet normal 0 0 1
    outer loop
      vertex -37.5079 -59.103 18
      vertex -46.8848 -73.8787 18
      vertex -37.2557 -79.1724 18
    endloop
  endfacet
  facet normal 0 0 1
    outer loop
      vertex -55.7746 -67.4199 18
      vertex -44.6197 -53.9359 18
      vertex -51.0278 -47.9183 18
    endloop
  endfacet
  facet normal 0 0 1
    outer loop
      vertex -44.6197 -53.9359 18
      vertex -55.7746 -67.4199 18
      vertex -46.8848 -73.8787 18
    endloop
  endfacet
  facet normal 0 0 1
    outer loop
      vertex -63.7848 -59.8979 18
      vertex -51.0278 -47.9183 18
      vertex -56.6312 -41.145 18
    endloop
  endfacet
  facet normal 0 0 1
    outer loop
      vertex -70.789 -51.4312 18
      vertex -56.6312 -41.145 18
      vertex -61.3415 -33.7228 18
    endloop
  endfacet
  facet normal 0 0 1
    outer loop
      vertex -51.0278 -47.9183 18
      vertex -63.7848 -59.8979 18
      vertex -55.7746 -67.4199 18
    endloop
  endfacet
  facet normal 0 0 1
    outer loop
      vertex -76.6768 -42.1534 18
      vertex -61.3415 -33.7228 18
      vertex -65.0844 -25.7687 18
    endloop
  endfacet
  facet normal 0 0 1
    outer loop
      vertex -81.3554 -32.2109 18
      vertex -65.0844 -25.7687 18
      vertex -67.8008 -17.4083 18
    endloop
  endfacet
  facet normal 0 0 1
    outer loop
      vertex -84.751 -21.7604 18
      vertex -67.8008 -17.4083 18
      vertex -69.448 -8.77333 18
    endloop
  endfacet
  facet normal 0 0 1
    outer loop
      vertex -56.6312 -41.145 18
      vertex -70.789 -51.4312 18
      vertex -63.7848 -59.8979 18
    endloop
  endfacet
  facet normal 0 0 1
    outer loop
      vertex -86.81 -10.9667 18
      vertex -69.448 -8.77333 18
      vertex -70 0 18
    endloop
  endfacet
  facet normal -0 0 1
    outer loop
      vertex -84.751 21.7604 18
      vertex -67.8008 17.4083 18
      vertex -81.3554 32.2109 18
    endloop
  endfacet
  facet normal 0 0 1
    outer loop
      vertex -67.8008 17.4083 18
      vertex -84.751 21.7604 18
      vertex -69.448 8.77333 18
    endloop
  endfacet
  facet normal 0 0 1
    outer loop
      vertex -61.3415 -33.7228 18
      vertex -76.6768 -42.1534 18
      vertex -70.789 -51.4312 18
    endloop
  endfacet
  facet normal -0 0 1
    outer loop
      vertex -86.81 10.9667 18
      vertex -69.448 8.77333 18
      vertex -84.751 21.7604 18
    endloop
  endfacet
  facet normal 0 0 1
    outer loop
      vertex -65.0844 -25.7687 18
      vertex -81.3554 -32.2109 18
      vertex -76.6768 -42.1534 18
    endloop
  endfacet
  facet normal 0 0 1
    outer loop
      vertex -69.448 8.77333 18
      vertex -86.81 10.9667 18
      vertex -70 0 18
    endloop
  endfacet
  facet normal 0 0 1
    outer loop
      vertex -67.8008 -17.4083 18
      vertex -84.751 -21.7604 18
      vertex -81.3554 -32.2109 18
    endloop
  endfacet
  facet normal 0 0 1
    outer loop
      vertex -87.5 0 18
      vertex -70 0 18
      vertex -86.81 10.9667 18
    endloop
  endfacet
  facet normal 0 0 1
    outer loop
      vertex -69.448 -8.77333 18
      vertex -86.81 -10.9667 18
      vertex -84.751 -21.7604 18
    endloop
  endfacet
  facet normal 0 0 1
    outer loop
      vertex -70 0 18
      vertex -87.5 0 18
      vertex -86.81 -10.9667 18
    endloop
  endfacet
  facet normal -0.481758 0.876304 0
    outer loop
      vertex -37.2557 79.1724 0
      vertex -46.8848 73.8787 18
      vertex -37.2557 79.1724 18
    endloop
  endfacet
  facet normal -0.481758 0.876304 0
    outer loop
      vertex -46.8848 73.8787 18
      vertex -37.2557 79.1724 0
      vertex -46.8848 73.8787 0
    endloop
  endfacet
  facet normal -0.587784 0.809018 0
    outer loop
      vertex -46.8848 73.8787 0
      vertex -55.7746 67.4199 18
      vertex -46.8848 73.8787 18
    endloop
  endfacet
  facet normal -0.587784 0.809018 0
    outer loop
      vertex -55.7746 67.4199 18
      vertex -46.8848 73.8787 0
      vertex -55.7746 67.4199 0
    endloop
  endfacet
  facet normal -0.248691 0.968583 0
    outer loop
      vertex -16.3959 85.9501 0
      vertex -27.039 83.2174 18
      vertex -16.3959 85.9501 18
    endloop
  endfacet
  facet normal -0.248691 0.968583 0
    outer loop
      vertex -27.039 83.2174 18
      vertex -16.3959 85.9501 0
      vertex -27.039 83.2174 0
    endloop
  endfacet
  facet normal 0.998027 -0.0627936 0
    outer loop
      vertex 86.81 -10.9667 18
      vertex 87.5 0 0
      vertex 87.5 0 18
    endloop
  endfacet
  facet normal 0.998027 -0.0627936 0
    outer loop
      vertex 87.5 0 0
      vertex 86.81 -10.9667 18
      vertex 86.81 -10.9667 0
    endloop
  endfacet
  facet normal 0.481758 -0.876304 0
    outer loop
      vertex 37.2557 -79.1724 0
      vertex 46.8848 -73.8787 18
      vertex 37.2557 -79.1724 18
    endloop
  endfacet
  facet normal 0.481758 -0.876304 0
    outer loop
      vertex 46.8848 -73.8787 18
      vertex 37.2557 -79.1724 0
      vertex 46.8848 -73.8787 0
    endloop
  endfacet
  facet normal 0.684543 -0.728972 0
    outer loop
      vertex 55.7746 -67.4199 0
      vertex 63.7848 -59.8979 18
      vertex 55.7746 -67.4199 18
    endloop
  endfacet
  facet normal 0.684543 -0.728972 0
    outer loop
      vertex 63.7848 -59.8979 18
      vertex 55.7746 -67.4199 0
      vertex 63.7848 -59.8979 0
    endloop
  endfacet
  facet normal 0.982287 -0.187381 0
    outer loop
      vertex 84.751 -21.7604 18
      vertex 86.81 -10.9667 0
      vertex 86.81 -10.9667 18
    endloop
  endfacet
  facet normal 0.982287 -0.187381 0
    outer loop
      vertex 86.81 -10.9667 0
      vertex 84.751 -21.7604 18
      vertex 84.751 -21.7604 0
    endloop
  endfacet
  facet normal 0 0 -1
    outer loop
      vertex 70 0 0
      vertex 87.5 0 0
      vertex 86.81 -10.9667 0
    endloop
  endfacet
  facet normal 0 0 -1
    outer loop
      vertex 69.448 -8.77333 0
      vertex 86.81 -10.9667 0
      vertex 84.751 -21.7604 0
    endloop
  endfacet
  facet normal 0 0 -1
    outer loop
      vertex 87.5 0 0
      vertex 70 0 0
      vertex 86.81 10.9667 0
    endloop
  endfacet
  facet normal 0 0 -1
    outer loop
      vertex 67.8008 -17.4083 0
      vertex 84.751 -21.7604 0
      vertex 81.3554 -32.2109 0
    endloop
  endfacet
  facet normal 0 0 -1
    outer loop
      vertex 69.448 8.77333 0
      vertex 86.81 10.9667 0
      vertex 70 0 0
    endloop
  endfacet
  facet normal 0 0 -1
    outer loop
      vertex 65.0844 -25.7687 0
      vertex 81.3554 -32.2109 0
      vertex 76.6768 -42.1534 0
    endloop
  endfacet
  facet normal -0 0 -1
    outer loop
      vertex 86.81 10.9667 0
      vertex 69.448 8.77333 0
      vertex 84.751 21.7604 0
    endloop
  endfacet
  facet normal 0 0 -1
    outer loop
      vertex 61.3415 -33.7228 0
      vertex 76.6768 -42.1534 0
      vertex 70.789 -51.4312 0
    endloop
  endfacet
  facet normal 0 0 -1
    outer loop
      vertex 67.8008 17.4083 0
      vertex 84.751 21.7604 0
      vertex 69.448 8.77333 0
    endloop
  endfacet
  facet normal -0 0 -1
    outer loop
      vertex 84.751 21.7604 0
      vertex 67.8008 17.4083 0
      vertex 81.3554 32.2109 0
    endloop
  endfacet
  facet normal 0 0 -1
    outer loop
      vertex 86.81 -10.9667 0
      vertex 69.448 -8.77333 0
      vertex 70 0 0
    endloop
  endfacet
  facet normal 0 0 -1
    outer loop
      vertex 84.751 -21.7604 0
      vertex 67.8008 -17.4083 0
      vertex 69.448 -8.77333 0
    endloop
  endfacet
  facet normal 0 0 -1
    outer loop
      vertex 81.3554 -32.2109 0
      vertex 65.0844 -25.7687 0
      vertex 67.8008 -17.4083 0
    endloop
  endfacet
  facet normal 0 0 -1
    outer loop
      vertex 56.6312 -41.145 0
      vertex 70.789 -51.4312 0
      vertex 63.7848 -59.8979 0
    endloop
  endfacet
  facet normal 0 0 -1
    outer loop
      vertex 76.6768 -42.1534 0
      vertex 61.3415 -33.7228 0
      vertex 65.0844 -25.7687 0
    endloop
  endfacet
  facet normal 0 0 -1
    outer loop
      vertex 70.789 -51.4312 0
      vertex 56.6312 -41.145 0
      vertex 61.3415 -33.7228 0
    endloop
  endfacet
  facet normal 0 0 -1
    outer loop
      vertex 51.0278 -47.9183 0
      vertex 63.7848 -59.8979 0
      vertex 55.7746 -67.4199 0
    endloop
  endfacet
  facet normal 0 0 -1
    outer loop
      vertex 63.7848 -59.8979 0
      vertex 51.0278 -47.9183 0
      vertex 56.6312 -41.145 0
    endloop
  endfacet
  facet normal 0 0 -1
    outer loop
      vertex 44.6197 -53.9359 0
      vertex 55.7746 -67.4199 0
      vertex 46.8848 -73.8787 0
    endloop
  endfacet
  facet normal 0 0 -1
    outer loop
      vertex 55.7746 -67.4199 0
      vertex 44.6197 -53.9359 0
      vertex 51.0278 -47.9183 0
    endloop
  endfacet
  facet normal 0 0 -1
    outer loop
      vertex 46.8848 -73.8787 0
      vertex 37.5079 -59.103 0
      vertex 44.6197 -53.9359 0
    endloop
  endfacet
  facet normal 0 0 -1
    outer loop
      vertex 37.2557 -79.1724 0
      vertex 37.5079 -59.103 0
      vertex 46.8848 -73.8787 0
    endloop
  endfacet
  facet normal 0 0 -1
    outer loop
      vertex 37.2557 -79.1724 0
      vertex 29.8046 -63.3379 0
      vertex 37.5079 -59.103 0
    endloop
  endfacet
  facet normal 0 0 -1
    outer loop
      vertex 27.039 -83.2174 0
      vertex 29.8046 -63.3379 0
      vertex 37.2557 -79.1724 0
    endloop
  endfacet
  facet normal 0 0 -1
    outer loop
      vertex 27.039 -83.2174 0
      vertex 21.6312 -66.574 0
      vertex 29.8046 -63.3379 0
    endloop
  endfacet
  facet normal 0 0 -1
    outer loop
      vertex 16.3959 -85.9501 0
      vertex 21.6312 -66.574 0
      vertex 27.039 -83.2174 0
    endloop
  endfacet
  facet normal 0 0 -1
    outer loop
      vertex 16.3959 -85.9501 0
      vertex 13.1167 -68.7601 0
      vertex 21.6312 -66.574 0
    endloop
  endfacet
  facet normal 0 0 -1
    outer loop
      vertex 5.49417 -87.3273 0
      vertex 13.1167 -68.7601 0
      vertex 16.3959 -85.9501 0
    endloop
  endfacet
  facet normal 0 0 -1
    outer loop
      vertex 5.49417 -87.3273 0
      vertex 4.39534 -69.8619 0
      vertex 13.1167 -68.7601 0
    endloop
  endfacet
  facet normal 0 0 -1
    outer loop
      vertex 5.49417 -87.3273 0
      vertex -4.39534 -69.8619 0
      vertex 4.39534 -69.8619 0
    endloop
  endfacet
  facet normal 0 0 -1
    outer loop
      vertex -5.49417 -87.3273 0
      vertex -4.39534 -69.8619 0
      vertex 5.49417 -87.3273 0
    endloop
  endfacet
  facet normal 0 0 -1
    outer loop
      vertex -5.49417 -87.3273 0
      vertex -13.1167 -68.7601 0
      vertex -4.39534 -69.8619 0
    endloop
  endfacet
  facet normal 0 0 -1
    outer loop
      vertex -16.3959 -85.9501 0
      vertex -13.1167 -68.7601 0
      vertex -5.49417 -87.3273 0
    endloop
  endfacet
  facet normal 0 0 -1
    outer loop
      vertex -16.3959 -85.9501 0
      vertex -21.6312 -66.574 0
      vertex -13.1167 -68.7601 0
    endloop
  endfacet
  facet normal 0 0 -1
    outer loop
      vertex -27.039 -83.2174 0
      vertex -21.6312 -66.574 0
      vertex -16.3959 -85.9501 0
    endloop
  endfacet
  facet normal 0 0 -1
    outer loop
      vertex -27.039 -83.2174 0
      vertex -29.8046 -63.3379 0
      vertex -21.6312 -66.574 0
    endloop
  endfacet
  facet normal 0 0 -1
    outer loop
      vertex -37.2557 -79.1724 0
      vertex -29.8046 -63.3379 0
      vertex -27.039 -83.2174 0
    endloop
  endfacet
  facet normal 0 0 -1
    outer loop
      vertex -37.2557 -79.1724 0
      vertex -37.5079 -59.103 0
      vertex -29.8046 -63.3379 0
    endloop
  endfacet
  facet normal 0 0 -1
    outer loop
      vertex -46.8848 -73.8787 0
      vertex -37.5079 -59.103 0
      vertex -37.2557 -79.1724 0
    endloop
  endfacet
  facet normal -0 0 -1
    outer loop
      vertex -37.5079 -59.103 0
      vertex -46.8848 -73.8787 0
      vertex -44.6197 -53.9359 0
    endloop
  endfacet
  facet normal 0 0 -1
    outer loop
      vertex -55.7746 -67.4199 0
      vertex -44.6197 -53.9359 0
      vertex -46.8848 -73.8787 0
    endloop
  endfacet
  facet normal -0 0 -1
    outer loop
      vertex -44.6197 -53.9359 0
      vertex -55.7746 -67.4199 0
      vertex -51.0278 -47.9183 0
    endloop
  endfacet
  facet normal 0 0 -1
    outer loop
      vertex -63.7848 -59.8979 0
      vertex -51.0278 -47.9183 0
      vertex -55.7746 -67.4199 0
    endloop
  endfacet
  facet normal -0 0 -1
    outer loop
      vertex -51.0278 -47.9183 0
      vertex -63.7848 -59.8979 0
      vertex -56.6312 -41.145 0
    endloop
  endfacet
  facet normal 0 0 -1
    outer loop
      vertex -70.789 -51.4312 0
      vertex -56.6312 -41.145 0
      vertex -63.7848 -59.8979 0
    endloop
  endfacet
  facet normal -0 0 -1
    outer loop
      vertex -56.6312 -41.145 0
      vertex -70.789 -51.4312 0
      vertex -61.3415 -33.7228 0
    endloop
  endfacet
  facet normal 0 0 -1
    outer loop
      vertex -76.6768 -42.1534 0
      vertex -61.3415 -33.7228 0
      vertex -70.789 -51.4312 0
    endloop
  endfacet
  facet normal -0 0 -1
    outer loop
      vertex -61.3415 -33.7228 0
      vertex -76.6768 -42.1534 0
      vertex -65.0844 -25.7687 0
    endloop
  endfacet
  facet normal -0 0 -1
    outer loop
      vertex -65.0844 -25.7687 0
      vertex -81.3554 -32.2109 0
      vertex -67.8008 -17.4083 0
    endloop
  endfacet
  facet normal 0 0 -1
    outer loop
      vertex -81.3554 -32.2109 0
      vertex -65.0844 -25.7687 0
      vertex -76.6768 -42.1534 0
    endloop
  endfacet
  facet normal 0 0 -1
    outer loop
      vertex 65.0844 25.7687 0
      vertex 81.3554 32.2109 0
      vertex 67.8008 17.4083 0
    endloop
  endfacet
  facet normal -0 0 -1
    outer loop
      vertex 81.3554 32.2109 0
      vertex 65.0844 25.7687 0
      vertex 76.6768 42.1534 0
    endloop
  endfacet
  facet normal 0 0 -1
    outer loop
      vertex 61.3415 33.7228 0
      vertex 76.6768 42.1534 0
      vertex 65.0844 25.7687 0
    endloop
  endfacet
  facet normal -0 0 -1
    outer loop
      vertex 76.6768 42.1534 0
      vertex 61.3415 33.7228 0
      vertex 70.789 51.4312 0
    endloop
  endfacet
  facet normal 0 0 -1
    outer loop
      vertex 56.6312 41.145 0
      vertex 70.789 51.4312 0
      vertex 61.3415 33.7228 0
    endloop
  endfacet
  facet normal -0 0 -1
    outer loop
      vertex 70.789 51.4312 0
      vertex 56.6312 41.145 0
      vertex 63.7848 59.8979 0
    endloop
  endfacet
  facet normal 0 0 -1
    outer loop
      vertex 51.0278 47.9183 0
      vertex 63.7848 59.8979 0
      vertex 56.6312 41.145 0
    endloop
  endfacet
  facet normal -0 0 -1
    outer loop
      vertex 63.7848 59.8979 0
      vertex 51.0278 47.9183 0
      vertex 55.7746 67.4199 0
    endloop
  endfacet
  facet normal 0 0 -1
    outer loop
      vertex 44.6197 53.9359 0
      vertex 55.7746 67.4199 0
      vertex 51.0278 47.9183 0
    endloop
  endfacet
  facet normal -0 0 -1
    outer loop
      vertex 55.7746 67.4199 0
      vertex 44.6197 53.9359 0
      vertex 46.8848 73.8787 0
    endloop
  endfacet
  facet normal 0 0 -1
    outer loop
      vertex 37.5079 59.103 0
      vertex 46.8848 73.8787 0
      vertex 44.6197 53.9359 0
    endloop
  endfacet
  facet normal 0 0 -1
    outer loop
      vertex 37.5079 59.103 0
      vertex 37.2557 79.1724 0
      vertex 46.8848 73.8787 0
    endloop
  endfacet
  facet normal 0 0 -1
    outer loop
      vertex 29.8046 63.3379 0
      vertex 37.2557 79.1724 0
      vertex 37.5079 59.103 0
    endloop
  endfacet
  facet normal 0 0 -1
    outer loop
      vertex 29.8046 63.3379 0
      vertex 27.039 83.2174 0
      vertex 37.2557 79.1724 0
    endloop
  endfacet
  facet normal 0 0 -1
    outer loop
      vertex 21.6312 66.574 0
      vertex 27.039 83.2174 0
      vertex 29.8046 63.3379 0
    endloop
  endfacet
  facet normal 0 0 -1
    outer loop
      vertex 21.6312 66.574 0
      vertex 16.3959 85.9501 0
      vertex 27.039 83.2174 0
    endloop
  endfacet
  facet normal 0 0 -1
    outer loop
      vertex 13.1167 68.7601 0
      vertex 16.3959 85.9501 0
      vertex 21.6312 66.574 0
    endloop
  endfacet
  facet normal 0 0 -1
    outer loop
      vertex 13.1167 68.7601 0
      vertex 5.49417 87.3273 0
      vertex 16.3959 85.9501 0
    endloop
  endfacet
  facet normal 0 0 -1
    outer loop
      vertex 4.39534 69.8619 0
      vertex 5.49417 87.3273 0
      vertex 13.1167 68.7601 0
    endloop
  endfacet
  facet normal 0 0 -1
    outer loop
      vertex -4.39534 69.8619 0
      vertex 5.49417 87.3273 0
      vertex 4.39534 69.8619 0
    endloop
  endfacet
  facet normal 0 0 -1
    outer loop
      vertex -4.39534 69.8619 0
      vertex -5.49417 87.3273 0
      vertex 5.49417 87.3273 0
    endloop
  endfacet
  facet normal 0 0 -1
    outer loop
      vertex -13.1167 68.7601 0
      vertex -5.49417 87.3273 0
      vertex -4.39534 69.8619 0
    endloop
  endfacet
  facet normal 0 0 -1
    outer loop
      vertex -13.1167 68.7601 0
      vertex -16.3959 85.9501 0
      vertex -5.49417 87.3273 0
    endloop
  endfacet
  facet normal 0 0 -1
    outer loop
      vertex -21.6312 66.574 0
      vertex -16.3959 85.9501 0
      vertex -13.1167 68.7601 0
    endloop
  endfacet
  facet normal 0 0 -1
    outer loop
      vertex -21.6312 66.574 0
      vertex -27.039 83.2174 0
      vertex -16.3959 85.9501 0
    endloop
  endfacet
  facet normal 0 0 -1
    outer loop
      vertex -29.8046 63.3379 0
      vertex -27.039 83.2174 0
      vertex -21.6312 66.574 0
    endloop
  endfacet
  facet normal 0 0 -1
    outer loop
      vertex -29.8046 63.3379 0
      vertex -37.2557 79.1724 0
      vertex -27.039 83.2174 0
    endloop
  endfacet
  facet normal 0 0 -1
    outer loop
      vertex -37.5079 59.103 0
      vertex -37.2557 79.1724 0
      vertex -29.8046 63.3379 0
    endloop
  endfacet
  facet normal 0 0 -1
    outer loop
      vertex -46.8848 73.8787 0
      vertex -37.5079 59.103 0
      vertex -44.6197 53.9359 0
    endloop
  endfacet
  facet normal 0 0 -1
    outer loop
      vertex -37.5079 59.103 0
      vertex -46.8848 73.8787 0
      vertex -37.2557 79.1724 0
    endloop
  endfacet
  facet normal 0 0 -1
    outer loop
      vertex -55.7746 67.4199 0
      vertex -44.6197 53.9359 0
      vertex -51.0278 47.9183 0
    endloop
  endfacet
  facet normal 0 0 -1
    outer loop
      vertex -44.6197 53.9359 0
      vertex -55.7746 67.4199 0
      vertex -46.8848 73.8787 0
    endloop
  endfacet
  facet normal 0 0 -1
    outer loop
      vertex -63.7848 59.8979 0
      vertex -51.0278 47.9183 0
      vertex -56.6312 41.145 0
    endloop
  endfacet
  facet normal 0 0 -1
    outer loop
      vertex -70.789 51.4312 0
      vertex -56.6312 41.145 0
      vertex -61.3415 33.7228 0
    endloop
  endfacet
  facet normal 0 0 -1
    outer loop
      vertex -51.0278 47.9183 0
      vertex -63.7848 59.8979 0
      vertex -55.7746 67.4199 0
    endloop
  endfacet
  facet normal 0 0 -1
    outer loop
      vertex -76.6768 42.1534 0
      vertex -61.3415 33.7228 0
      vertex -65.0844 25.7687 0
    endloop
  endfacet
  facet normal 0 0 -1
    outer loop
      vertex -81.3554 32.2109 0
      vertex -65.0844 25.7687 0
      vertex -67.8008 17.4083 0
    endloop
  endfacet
  facet normal 0 0 -1
    outer loop
      vertex -84.751 21.7604 0
      vertex -67.8008 17.4083 0
      vertex -69.448 8.77333 0
    endloop
  endfacet
  facet normal 0 0 -1
    outer loop
      vertex -56.6312 41.145 0
      vertex -70.789 51.4312 0
      vertex -63.7848 59.8979 0
    endloop
  endfacet
  facet normal 0 0 -1
    outer loop
      vertex -86.81 10.9667 0
      vertex -69.448 8.77333 0
      vertex -70 0 0
    endloop
  endfacet
  facet normal 0 0 -1
    outer loop
      vertex -84.751 -21.7604 0
      vertex -67.8008 -17.4083 0
      vertex -81.3554 -32.2109 0
    endloop
  endfacet
  facet normal -0 0 -1
    outer loop
      vertex -67.8008 -17.4083 0
      vertex -84.751 -21.7604 0
      vertex -69.448 -8.77333 0
    endloop
  endfacet
  facet normal 0 0 -1
    outer loop
      vertex -61.3415 33.7228 0
      vertex -76.6768 42.1534 0
      vertex -70.789 51.4312 0
    endloop
  endfacet
  facet normal 0 0 -1
    outer loop
      vertex -86.81 -10.9667 0
      vertex -69.448 -8.77333 0
      vertex -84.751 -21.7604 0
    endloop
  endfacet
  facet normal 0 0 -1
    outer loop
      vertex -65.0844 25.7687 0
      vertex -81.3554 32.2109 0
      vertex -76.6768 42.1534 0
    endloop
  endfacet
  facet normal -0 0 -1
    outer loop
      vertex -69.448 -8.77333 0
      vertex -86.81 -10.9667 0
      vertex -70 0 0
    endloop
  endfacet
  facet normal 0 0 -1
    outer loop
      vertex -67.8008 17.4083 0
      vertex -84.751 21.7604 0
      vertex -81.3554 32.2109 0
    endloop
  endfacet
  facet normal 0 0 -1
    outer loop
      vertex -87.5 0 0
      vertex -70 0 0
      vertex -86.81 -10.9667 0
    endloop
  endfacet
  facet normal 0 0 -1
    outer loop
      vertex -69.448 8.77333 0
      vertex -86.81 10.9667 0
      vertex -84.751 21.7604 0
    endloop
  endfacet
  facet normal 0 0 -1
    outer loop
      vertex -70 0 0
      vertex -87.5 0 0
      vertex -86.81 10.9667 0
    endloop
  endfacet
  facet normal 0.770516 -0.637421 0
    outer loop
      vertex 63.7848 -59.8979 18
      vertex 70.789 -51.4312 0
      vertex 70.789 -51.4312 18
    endloop
  endfacet
  facet normal 0.770516 -0.637421 0
    outer loop
      vertex 70.789 -51.4312 0
      vertex 63.7848 -59.8979 18
      vertex 63.7848 -59.8979 0
    endloop
  endfacet
  facet normal 0.904827 -0.42578 0
    outer loop
      vertex 76.6768 -42.1534 18
      vertex 81.3554 -32.2109 0
      vertex 81.3554 -32.2109 18
    endloop
  endfacet
  facet normal 0.904827 -0.42578 0
    outer loop
      vertex 81.3554 -32.2109 0
      vertex 76.6768 -42.1534 18
      vertex 76.6768 -42.1534 0
    endloop
  endfacet
  facet normal -0.770516 -0.637421 0
    outer loop
      vertex -63.7848 -59.8979 0
      vertex -70.789 -51.4312 18
      vertex -70.789 -51.4312 0
    endloop
  endfacet
  facet normal -0.770516 -0.637421 0
    outer loop
      vertex -70.789 -51.4312 18
      vertex -63.7848 -59.8979 0
      vertex -63.7848 -59.8979 18
    endloop
  endfacet
  facet normal -0.844331 -0.535822 0
    outer loop
      vertex -70.789 -51.4312 0
      vertex -76.6768 -42.1534 18
      vertex -76.6768 -42.1534 0
    endloop
  endfacet
  facet normal -0.844331 -0.535822 0
    outer loop
      vertex -76.6768 -42.1534 18
      vertex -70.789 -51.4312 0
      vertex -70.789 -51.4312 18
    endloop
  endfacet
  facet normal -0.951056 -0.309019 0
    outer loop
      vertex -81.3554 -32.2109 0
      vertex -84.751 -21.7604 18
      vertex -84.751 -21.7604 0
    endloop
  endfacet
  facet normal -0.951056 -0.309019 0
    outer loop
      vertex -84.751 -21.7604 18
      vertex -81.3554 -32.2109 0
      vertex -81.3554 -32.2109 18
    endloop
  endfacet
  facet normal 0.248691 -0.968583 0
    outer loop
      vertex 16.3959 -85.9501 0
      vertex 27.039 -83.2174 18
      vertex 16.3959 -85.9501 18
    endloop
  endfacet
  facet normal 0.248691 -0.968583 0
    outer loop
      vertex 27.039 -83.2174 18
      vertex 16.3959 -85.9501 0
      vertex 27.039 -83.2174 0
    endloop
  endfacet
  facet normal 0.844331 -0.535822 0
    outer loop
      vertex 70.789 -51.4312 18
      vertex 76.6768 -42.1534 0
      vertex 76.6768 -42.1534 18
    endloop
  endfacet
  facet normal 0.844331 -0.535822 0
    outer loop
      vertex 76.6768 -42.1534 0
      vertex 70.789 -51.4312 18
      vertex 70.789 -51.4312 0
    endloop
  endfacet
  facet normal 0.587784 -0.809018 0
    outer loop
      vertex 46.8848 -73.8787 0
      vertex 55.7746 -67.4199 18
      vertex 46.8848 -73.8787 18
    endloop
  endfacet
  facet normal 0.587784 -0.809018 0
    outer loop
      vertex 55.7746 -67.4199 18
      vertex 46.8848 -73.8787 0
      vertex 55.7746 -67.4199 0
    endloop
  endfacet
  facet normal 0.951056 -0.309019 0
    outer loop
      vertex 81.3554 -32.2109 18
      vertex 84.751 -21.7604 0
      vertex 84.751 -21.7604 18
    endloop
  endfacet
  facet normal 0.951056 -0.309019 0
    outer loop
      vertex 84.751 -21.7604 0
      vertex 81.3554 -32.2109 18
      vertex 81.3554 -32.2109 0
    endloop
  endfacet
  facet normal -0.368118 -0.929779 0
    outer loop
      vertex -37.2557 -79.1724 0
      vertex -27.039 -83.2174 18
      vertex -37.2557 -79.1724 18
    endloop
  endfacet
  facet normal -0.368118 -0.929779 -0
    outer loop
      vertex -27.039 -83.2174 18
      vertex -37.2557 -79.1724 0
      vertex -27.039 -83.2174 0
    endloop
  endfacet
  facet normal -0.248691 -0.968583 0
    outer loop
      vertex -27.039 -83.2174 0
      vertex -16.3959 -85.9501 18
      vertex -27.039 -83.2174 18
    endloop
  endfacet
  facet normal -0.248691 -0.968583 -0
    outer loop
      vertex -16.3959 -85.9501 18
      vertex -27.039 -83.2174 0
      vertex -16.3959 -85.9501 0
    endloop
  endfacet
  facet normal -0.684543 -0.728972 0
    outer loop
      vertex -63.7848 -59.8979 0
      vertex -55.7746 -67.4199 18
      vertex -63.7848 -59.8979 18
    endloop
  endfacet
  facet normal -0.684543 -0.728972 -0
    outer loop
      vertex -55.7746 -67.4199 18
      vertex -63.7848 -59.8979 0
      vertex -55.7746 -67.4199 0
    endloop
  endfacet
  facet normal -0.904827 -0.42578 0
    outer loop
      vertex -76.6768 -42.1534 0
      vertex -81.3554 -32.2109 18
      vertex -81.3554 -32.2109 0
    endloop
  endfacet
  facet normal -0.904827 -0.42578 0
    outer loop
      vertex -81.3554 -32.2109 18
      vertex -76.6768 -42.1534 0
      vertex -76.6768 -42.1534 18
    endloop
  endfacet
  facet normal -0.982287 -0.187381 0
    outer loop
      vertex -84.751 -21.7604 0
      vertex -86.81 -10.9667 18
      vertex -86.81 -10.9667 0
    endloop
  endfacet
  facet normal -0.982287 -0.187381 0
    outer loop
      vertex -86.81 -10.9667 18
      vertex -84.751 -21.7604 0
      vertex -84.751 -21.7604 18
    endloop
  endfacet
  facet normal -0.998027 -0.0627936 0
    outer loop
      vertex -86.81 -10.9667 0
      vertex -87.5 0 18
      vertex -87.5 0 0
    endloop
  endfacet
  facet normal -0.998027 -0.0627936 0
    outer loop
      vertex -87.5 0 18
      vertex -86.81 -10.9667 0
      vertex -86.81 -10.9667 18
    endloop
  endfacet
  facet normal -0.125332 -0.992115 0
    outer loop
      vertex -16.3959 -85.9501 0
      vertex -5.49417 -87.3273 18
      vertex -16.3959 -85.9501 18
    endloop
  endfacet
  facet normal -0.125332 -0.992115 -0
    outer loop
      vertex -5.49417 -87.3273 18
      vertex -16.3959 -85.9501 0
      vertex -5.49417 -87.3273 0
    endloop
  endfacet
  facet normal -0.481758 -0.876304 0
    outer loop
      vertex -46.8848 -73.8787 0
      vertex -37.2557 -79.1724 18
      vertex -46.8848 -73.8787 18
    endloop
  endfacet
  facet normal -0.481758 -0.876304 -0
    outer loop
      vertex -37.2557 -79.1724 18
      vertex -46.8848 -73.8787 0
      vertex -37.2557 -79.1724 0
    endloop
  endfacet
  facet normal -0.587784 -0.809018 0
    outer loop
      vertex -55.7746 -67.4199 0
      vertex -46.8848 -73.8787 18
      vertex -55.7746 -67.4199 18
    endloop
  endfacet
  facet normal -0.587784 -0.809018 -0
    outer loop
      vertex -46.8848 -73.8787 18
      vertex -55.7746 -67.4199 0
      vertex -46.8848 -73.8787 0
    endloop
  endfacet
  facet normal -0.998027 -0.0627938 0
    outer loop
      vertex 70 0 0
      vertex 69.448 8.77333 18
      vertex 69.448 8.77333 0
    endloop
  endfacet
  facet normal -0.998027 -0.0627938 0
    outer loop
      vertex 69.448 8.77333 18
      vertex 70 0 0
      vertex 70 0 18
    endloop
  endfacet
  facet normal 0.998027 -0.0627938 0
    outer loop
      vertex -70 0 18
      vertex -69.448 8.77333 0
      vertex -69.448 8.77333 18
    endloop
  endfacet
  facet normal 0.998027 -0.0627938 0
    outer loop
      vertex -69.448 8.77333 0
      vertex -70 0 18
      vertex -70 0 0
    endloop
  endfacet
  facet normal 0 -1 0
    outer loop
      vertex -4.39534 69.8619 0
      vertex 4.39534 69.8619 18
      vertex -4.39534 69.8619 18
    endloop
  endfacet
  facet normal 0 -1 -0
    outer loop
      vertex 4.39534 69.8619 18
      vertex -4.39534 69.8619 0
      vertex 4.39534 69.8619 0
    endloop
  endfacet
  facet normal 0 1 -0
    outer loop
      vertex 4.39534 -69.8619 0
      vertex -4.39534 -69.8619 18
      vertex 4.39534 -69.8619 18
    endloop
  endfacet
  facet normal 0 1 0
    outer loop
      vertex -4.39534 -69.8619 18
      vertex 4.39534 -69.8619 0
      vertex -4.39534 -69.8619 0
    endloop
  endfacet
  facet normal -0.684547 -0.728969 0
    outer loop
      vertex 44.6197 53.9359 0
      vertex 51.0278 47.9183 18
      vertex 44.6197 53.9359 18
    endloop
  endfacet
  facet normal -0.684547 -0.728969 -0
    outer loop
      vertex 51.0278 47.9183 18
      vertex 44.6197 53.9359 0
      vertex 51.0278 47.9183 0
    endloop
  endfacet
  facet normal 0.684547 -0.728969 0
    outer loop
      vertex -51.0278 47.9183 0
      vertex -44.6197 53.9359 18
      vertex -51.0278 47.9183 18
    endloop
  endfacet
  facet normal 0.684547 -0.728969 0
    outer loop
      vertex -44.6197 53.9359 18
      vertex -51.0278 47.9183 0
      vertex -44.6197 53.9359 0
    endloop
  endfacet
  facet normal 0.368127 -0.929776 0
    outer loop
      vertex -29.8046 63.3379 0
      vertex -21.6312 66.574 18
      vertex -29.8046 63.3379 18
    endloop
  endfacet
  facet normal 0.368127 -0.929776 0
    outer loop
      vertex -21.6312 66.574 18
      vertex -29.8046 63.3379 0
      vertex -21.6312 66.574 0
    endloop
  endfacet
  facet normal -0.904828 0.425778 0
    outer loop
      vertex 61.3415 -33.7228 0
      vertex 65.0844 -25.7687 18
      vertex 65.0844 -25.7687 0
    endloop
  endfacet
  facet normal -0.904828 0.425778 0
    outer loop
      vertex 65.0844 -25.7687 18
      vertex 61.3415 -33.7228 0
      vertex 61.3415 -33.7228 18
    endloop
  endfacet
  facet normal -0.904828 -0.425778 0
    outer loop
      vertex 65.0844 25.7687 0
      vertex 61.3415 33.7228 18
      vertex 61.3415 33.7228 0
    endloop
  endfacet
  facet normal -0.904828 -0.425778 0
    outer loop
      vertex 61.3415 33.7228 18
      vertex 65.0844 25.7687 0
      vertex 65.0844 25.7687 18
    endloop
  endfacet
  facet normal -0.844326 -0.535829 0
    outer loop
      vertex 61.3415 33.7228 0
      vertex 56.6312 41.145 18
      vertex 56.6312 41.145 0
    endloop
  endfacet
  facet normal -0.844326 -0.535829 0
    outer loop
      vertex 56.6312 41.145 18
      vertex 61.3415 33.7228 0
      vertex 61.3415 33.7228 18
    endloop
  endfacet
  facet normal -0.368127 -0.929776 0
    outer loop
      vertex 21.6312 66.574 0
      vertex 29.8046 63.3379 18
      vertex 21.6312 66.574 18
    endloop
  endfacet
  facet normal -0.368127 -0.929776 -0
    outer loop
      vertex 29.8046 63.3379 18
      vertex 21.6312 66.574 0
      vertex 29.8046 63.3379 0
    endloop
  endfacet
  facet normal -0.481751 -0.876308 0
    outer loop
      vertex 29.8046 63.3379 0
      vertex 37.5079 59.103 18
      vertex 29.8046 63.3379 18
    endloop
  endfacet
  facet normal -0.481751 -0.876308 -0
    outer loop
      vertex 37.5079 59.103 18
      vertex 29.8046 63.3379 0
      vertex 37.5079 59.103 0
    endloop
  endfacet
  facet normal 0.904828 -0.425778 0
    outer loop
      vertex -65.0844 25.7687 18
      vertex -61.3415 33.7228 0
      vertex -61.3415 33.7228 18
    endloop
  endfacet
  facet normal 0.904828 -0.425778 0
    outer loop
      vertex -61.3415 33.7228 0
      vertex -65.0844 25.7687 18
      vertex -65.0844 25.7687 0
    endloop
  endfacet
  facet normal 0.770511 -0.637427 0
    outer loop
      vertex -56.6312 41.145 18
      vertex -51.0278 47.9183 0
      vertex -51.0278 47.9183 18
    endloop
  endfacet
  facet normal 0.770511 -0.637427 0
    outer loop
      vertex -51.0278 47.9183 0
      vertex -56.6312 41.145 18
      vertex -56.6312 41.145 0
    endloop
  endfacet
  facet normal 0.125337 -0.992114 0
    outer loop
      vertex -13.1167 68.7601 0
      vertex -4.39534 69.8619 18
      vertex -13.1167 68.7601 18
    endloop
  endfacet
  facet normal 0.125337 -0.992114 0
    outer loop
      vertex -4.39534 69.8619 18
      vertex -13.1167 68.7601 0
      vertex -4.39534 69.8619 0
    endloop
  endfacet
  facet normal -0.982287 0.18738 0
    outer loop
      vertex 67.8008 -17.4083 0
      vertex 69.448 -8.77333 18
      vertex 69.448 -8.77333 0
    endloop
  endfacet
  facet normal -0.982287 0.18738 0
    outer loop
      vertex 69.448 -8.77333 18
      vertex 67.8008 -17.4083 0
      vertex 67.8008 -17.4083 18
    endloop
  endfacet
  facet normal -0.125337 0.992114 0
    outer loop
      vertex 13.1167 -68.7601 0
      vertex 4.39534 -69.8619 18
      vertex 13.1167 -68.7601 18
    endloop
  endfacet
  facet normal -0.125337 0.992114 0
    outer loop
      vertex 4.39534 -69.8619 18
      vertex 13.1167 -68.7601 0
      vertex 4.39534 -69.8619 0
    endloop
  endfacet
  facet normal -0.951058 -0.309011 0
    outer loop
      vertex 67.8008 17.4083 0
      vertex 65.0844 25.7687 18
      vertex 65.0844 25.7687 0
    endloop
  endfacet
  facet normal -0.951058 -0.309011 0
    outer loop
      vertex 65.0844 25.7687 18
      vertex 67.8008 17.4083 0
      vertex 67.8008 17.4083 18
    endloop
  endfacet
  facet normal -0.982287 -0.18738 0
    outer loop
      vertex 69.448 8.77333 0
      vertex 67.8008 17.4083 18
      vertex 67.8008 17.4083 0
    endloop
  endfacet
  facet normal -0.982287 -0.18738 0
    outer loop
      vertex 67.8008 17.4083 18
      vertex 69.448 8.77333 0
      vertex 69.448 8.77333 18
    endloop
  endfacet
  facet normal -0.770511 -0.637427 0
    outer loop
      vertex 56.6312 41.145 0
      vertex 51.0278 47.9183 18
      vertex 51.0278 47.9183 0
    endloop
  endfacet
  facet normal -0.770511 -0.637427 0
    outer loop
      vertex 51.0278 47.9183 18
      vertex 56.6312 41.145 0
      vertex 56.6312 41.145 18
    endloop
  endfacet
  facet normal -0.248684 -0.968585 0
    outer loop
      vertex 13.1167 68.7601 0
      vertex 21.6312 66.574 18
      vertex 13.1167 68.7601 18
    endloop
  endfacet
  facet normal -0.248684 -0.968585 -0
    outer loop
      vertex 21.6312 66.574 18
      vertex 13.1167 68.7601 0
      vertex 21.6312 66.574 0
    endloop
  endfacet
  facet normal -0.125337 -0.992114 0
    outer loop
      vertex 4.39534 69.8619 0
      vertex 13.1167 68.7601 18
      vertex 4.39534 69.8619 18
    endloop
  endfacet
  facet normal -0.125337 -0.992114 -0
    outer loop
      vertex 13.1167 68.7601 18
      vertex 4.39534 69.8619 0
      vertex 13.1167 68.7601 0
    endloop
  endfacet
  facet normal -0.587791 -0.809013 0
    outer loop
      vertex 37.5079 59.103 0
      vertex 44.6197 53.9359 18
      vertex 37.5079 59.103 18
    endloop
  endfacet
  facet normal -0.587791 -0.809013 -0
    outer loop
      vertex 44.6197 53.9359 18
      vertex 37.5079 59.103 0
      vertex 44.6197 53.9359 0
    endloop
  endfacet
  facet normal 0.844326 -0.535829 0
    outer loop
      vertex -61.3415 33.7228 18
      vertex -56.6312 41.145 0
      vertex -56.6312 41.145 18
    endloop
  endfacet
  facet normal 0.844326 -0.535829 0
    outer loop
      vertex -56.6312 41.145 0
      vertex -61.3415 33.7228 18
      vertex -61.3415 33.7228 0
    endloop
  endfacet
  facet normal 0.951058 -0.309011 0
    outer loop
      vertex -67.8008 17.4083 18
      vertex -65.0844 25.7687 0
      vertex -65.0844 25.7687 18
    endloop
  endfacet
  facet normal 0.951058 -0.309011 0
    outer loop
      vertex -65.0844 25.7687 0
      vertex -67.8008 17.4083 18
      vertex -67.8008 17.4083 0
    endloop
  endfacet
  facet normal 0.982287 -0.18738 0
    outer loop
      vertex -69.448 8.77333 18
      vertex -67.8008 17.4083 0
      vertex -67.8008 17.4083 18
    endloop
  endfacet
  facet normal 0.982287 -0.18738 0
    outer loop
      vertex -67.8008 17.4083 0
      vertex -69.448 8.77333 18
      vertex -69.448 8.77333 0
    endloop
  endfacet
  facet normal 0.481751 -0.876308 0
    outer loop
      vertex -37.5079 59.103 0
      vertex -29.8046 63.3379 18
      vertex -37.5079 59.103 18
    endloop
  endfacet
  facet normal 0.481751 -0.876308 0
    outer loop
      vertex -29.8046 63.3379 18
      vertex -37.5079 59.103 0
      vertex -29.8046 63.3379 0
    endloop
  endfacet
  facet normal 0.587791 -0.809013 0
    outer loop
      vertex -44.6197 53.9359 0
      vertex -37.5079 59.103 18
      vertex -44.6197 53.9359 18
    endloop
  endfacet
  facet normal 0.587791 -0.809013 0
    outer loop
      vertex -37.5079 59.103 18
      vertex -44.6197 53.9359 0
      vertex -37.5079 59.103 0
    endloop
  endfacet
  facet normal 0.248684 -0.968585 0
    outer loop
      vertex -21.6312 66.574 0
      vertex -13.1167 68.7601 18
      vertex -21.6312 66.574 18
    endloop
  endfacet
  facet normal 0.248684 -0.968585 0
    outer loop
      vertex -13.1167 68.7601 18
      vertex -21.6312 66.574 0
      vertex -13.1167 68.7601 0
    endloop
  endfacet
  facet normal -0.770511 0.637427 0
    outer loop
      vertex 51.0278 -47.9183 0
      vertex 56.6312 -41.145 18
      vertex 56.6312 -41.145 0
    endloop
  endfacet
  facet normal -0.770511 0.637427 0
    outer loop
      vertex 56.6312 -41.145 18
      vertex 51.0278 -47.9183 0
      vertex 51.0278 -47.9183 18
    endloop
  endfacet
  facet normal -0.951058 0.309011 0
    outer loop
      vertex 65.0844 -25.7687 0
      vertex 67.8008 -17.4083 18
      vertex 67.8008 -17.4083 0
    endloop
  endfacet
  facet normal -0.951058 0.309011 0
    outer loop
      vertex 67.8008 -17.4083 18
      vertex 65.0844 -25.7687 0
      vertex 65.0844 -25.7687 18
    endloop
  endfacet
  facet normal 0.684547 0.728969 -0
    outer loop
      vertex -44.6197 -53.9359 0
      vertex -51.0278 -47.9183 18
      vertex -44.6197 -53.9359 18
    endloop
  endfacet
  facet normal 0.684547 0.728969 0
    outer loop
      vertex -51.0278 -47.9183 18
      vertex -44.6197 -53.9359 0
      vertex -51.0278 -47.9183 0
    endloop
  endfacet
  facet normal 0.904828 0.425778 0
    outer loop
      vertex -61.3415 -33.7228 18
      vertex -65.0844 -25.7687 0
      vertex -65.0844 -25.7687 18
    endloop
  endfacet
  facet normal 0.904828 0.425778 0
    outer loop
      vertex -65.0844 -25.7687 0
      vertex -61.3415 -33.7228 18
      vertex -61.3415 -33.7228 0
    endloop
  endfacet
  facet normal 0.770511 0.637427 0
    outer loop
      vertex -51.0278 -47.9183 18
      vertex -56.6312 -41.145 0
      vertex -56.6312 -41.145 18
    endloop
  endfacet
  facet normal 0.770511 0.637427 0
    outer loop
      vertex -56.6312 -41.145 0
      vertex -51.0278 -47.9183 18
      vertex -51.0278 -47.9183 0
    endloop
  endfacet
  facet normal 0.998027 0.0627938 0
    outer loop
      vertex -69.448 -8.77333 18
      vertex -70 0 0
      vertex -70 0 18
    endloop
  endfacet
  facet normal 0.998027 0.0627938 0
    outer loop
      vertex -70 0 0
      vertex -69.448 -8.77333 18
      vertex -69.448 -8.77333 0
    endloop
  endfacet
  facet normal -0.998027 0.0627938 0
    outer loop
      vertex 69.448 -8.77333 0
      vertex 70 0 18
      vertex 70 0 0
    endloop
  endfacet
  facet normal -0.998027 0.0627938 0
    outer loop
      vertex 70 0 18
      vertex 69.448 -8.77333 0
      vertex 69.448 -8.77333 18
    endloop
  endfacet
  facet normal -0.481751 0.876308 0
    outer loop
      vertex 37.5079 -59.103 0
      vertex 29.8046 -63.3379 18
      vertex 37.5079 -59.103 18
    endloop
  endfacet
  facet normal -0.481751 0.876308 0
    outer loop
      vertex 29.8046 -63.3379 18
      vertex 37.5079 -59.103 0
      vertex 29.8046 -63.3379 0
    endloop
  endfacet
  facet normal -0.684547 0.728969 0
    outer loop
      vertex 51.0278 -47.9183 0
      vertex 44.6197 -53.9359 18
      vertex 51.0278 -47.9183 18
    endloop
  endfacet
  facet normal -0.684547 0.728969 0
    outer loop
      vertex 44.6197 -53.9359 18
      vertex 51.0278 -47.9183 0
      vertex 44.6197 -53.9359 0
    endloop
  endfacet
  facet normal -0.844326 0.535829 0
    outer loop
      vertex 56.6312 -41.145 0
      vertex 61.3415 -33.7228 18
      vertex 61.3415 -33.7228 0
    endloop
  endfacet
  facet normal -0.844326 0.535829 0
    outer loop
      vertex 61.3415 -33.7228 18
      vertex 56.6312 -41.145 0
      vertex 56.6312 -41.145 18
    endloop
  endfacet
  facet normal 0.368127 0.929776 -0
    outer loop
      vertex -21.6312 -66.574 0
      vertex -29.8046 -63.3379 18
      vertex -21.6312 -66.574 18
    endloop
  endfacet
  facet normal 0.368127 0.929776 0
    outer loop
      vertex -29.8046 -63.3379 18
      vertex -21.6312 -66.574 0
      vertex -29.8046 -63.3379 0
    endloop
  endfacet
  facet normal 0.481751 0.876308 -0
    outer loop
      vertex -29.8046 -63.3379 0
      vertex -37.5079 -59.103 18
      vertex -29.8046 -63.3379 18
    endloop
  endfacet
  facet normal 0.481751 0.876308 0
    outer loop
      vertex -37.5079 -59.103 18
      vertex -29.8046 -63.3379 0
      vertex -37.5079 -59.103 0
    endloop
  endfacet
  facet normal 0.982287 0.18738 0
    outer loop
      vertex -67.8008 -17.4083 18
      vertex -69.448 -8.77333 0
      vertex -69.448 -8.77333 18
    endloop
  endfacet
  facet normal 0.982287 0.18738 0
    outer loop
      vertex -69.448 -8.77333 0
      vertex -67.8008 -17.4083 18
      vertex -67.8008 -17.4083 0
    endloop
  endfacet
  facet normal 0.951058 0.309011 0
    outer loop
      vertex -65.0844 -25.7687 18
      vertex -67.8008 -17.4083 0
      vertex -67.8008 -17.4083 18
    endloop
  endfacet
  facet normal 0.951058 0.309011 0
    outer loop
      vertex -67.8008 -17.4083 0
      vertex -65.0844 -25.7687 18
      vertex -65.0844 -25.7687 0
    endloop
  endfacet
  facet normal -0.368127 0.929776 0
    outer loop
      vertex 29.8046 -63.3379 0
      vertex 21.6312 -66.574 18
      vertex 29.8046 -63.3379 18
    endloop
  endfacet
  facet normal -0.368127 0.929776 0
    outer loop
      vertex 21.6312 -66.574 18
      vertex 29.8046 -63.3379 0
      vertex 21.6312 -66.574 0
    endloop
  endfacet
  facet normal -0.248684 0.968585 0
    outer loop
      vertex 21.6312 -66.574 0
      vertex 13.1167 -68.7601 18
      vertex 21.6312 -66.574 18
    endloop
  endfacet
  facet normal -0.248684 0.968585 0
    outer loop
      vertex 13.1167 -68.7601 18
      vertex 21.6312 -66.574 0
      vertex 13.1167 -68.7601 0
    endloop
  endfacet
  facet normal 0.125337 0.992114 -0
    outer loop
      vertex -4.39534 -69.8619 0
      vertex -13.1167 -68.7601 18
      vertex -4.39534 -69.8619 18
    endloop
  endfacet
  facet normal 0.125337 0.992114 0
    outer loop
      vertex -13.1167 -68.7601 18
      vertex -4.39534 -69.8619 0
      vertex -13.1167 -68.7601 0
    endloop
  endfacet
  facet normal 0.587791 0.809013 -0
    outer loop
      vertex -37.5079 -59.103 0
      vertex -44.6197 -53.9359 18
      vertex -37.5079 -59.103 18
    endloop
  endfacet
  facet normal 0.587791 0.809013 0
    outer loop
      vertex -44.6197 -53.9359 18
      vertex -37.5079 -59.103 0
      vertex -44.6197 -53.9359 0
    endloop
  endfacet
  facet normal 0.844326 0.535829 0
    outer loop
      vertex -56.6312 -41.145 18
      vertex -61.3415 -33.7228 0
      vertex -61.3415 -33.7228 18
    endloop
  endfacet
  facet normal 0.844326 0.535829 0
    outer loop
      vertex -61.3415 -33.7228 0
      vertex -56.6312 -41.145 18
      vertex -56.6312 -41.145 0
    endloop
  endfacet
  facet normal -0.587791 0.809013 0
    outer loop
      vertex 44.6197 -53.9359 0
      vertex 37.5079 -59.103 18
      vertex 44.6197 -53.9359 18
    endloop
  endfacet
  facet normal -0.587791 0.809013 0
    outer loop
      vertex 37.5079 -59.103 18
      vertex 44.6197 -53.9359 0
      vertex 37.5079 -59.103 0
    endloop
  endfacet
  facet normal 0.248684 0.968585 -0
    outer loop
      vertex -13.1167 -68.7601 0
      vertex -21.6312 -66.574 18
      vertex -13.1167 -68.7601 18
    endloop
  endfacet
  facet normal 0.248684 0.968585 0
    outer loop
      vertex -21.6312 -66.574 18
      vertex -13.1167 -68.7601 0
      vertex -21.6312 -66.574 0
    endloop
  endfacet
endsolid OpenSCAD_Model
