<?xml version="1.0" standalone="no"?>
<!DOCTYPE svg PUBLIC "-//W3C//DTD SVG 1.1//EN" "http://www.w3.org/Graphics/SVG/1.1/DTD/svg11.dtd">
<svg width="16mm" height="400mm" viewBox="-8 -710 16 400" xmlns="http://www.w3.org/2000/svg" version="1.1">
<title>OpenSCAD Model</title>
<path d="
M 3.4369,-514.589 L 4.04507,-514.745 L 4.62889,-514.976 L 5.17912,-515.278 L 5.68712,-515.647 L 6.14484,-516.077
 L 6.54507,-516.561 L 6.88153,-517.091 L 7.14888,-517.659 L 7.34291,-518.257 L 7.46057,-518.873 L 7.5,-519.5
 L 7.5,-704.5 L 7.46057,-705.127 L 7.34291,-705.743 L 7.14888,-706.341 L 6.88153,-706.909 L 6.54507,-707.439
 L 6.14484,-707.923 L 5.68712,-708.353 L 5.17912,-708.722 L 4.62889,-709.024 L 4.04507,-709.255 L 3.4369,-709.411
 L 2.81395,-709.49 L -2.81395,-709.49 L -3.4369,-709.411 L -4.04507,-709.255 L -4.62889,-709.024 L -5.17912,-708.722
 L -5.68712,-708.353 L -6.14484,-707.923 L -6.54507,-707.439 L -6.88153,-706.909 L -7.14888,-706.341 L -7.34291,-705.743
 L -7.46057,-705.127 L -7.5,-704.5 L -7.5,-519.5 L -7.46057,-518.873 L -7.34291,-518.257 L -7.14888,-517.659
 L -6.88153,-517.091 L -6.54507,-516.561 L -6.14484,-516.077 L -5.68712,-515.647 L -5.17912,-515.278 L -4.62889,-514.976
 L -4.04507,-514.745 L -3.4369,-514.589 L -2.81395,-514.51 L 2.81395,-514.51 z
M -2.19545,-516.893 L -2.5833,-516.942 L -2.96194,-517.039 L -3.32541,-517.183 L -3.66798,-517.372 L -3.98424,-517.601
 L -4.26921,-517.869 L -4.5184,-518.17 L -4.72786,-518.5 L -4.89432,-518.854 L -5.01512,-519.226 L -5.08836,-519.61
 L -5.11292,-520 L -5.11292,-704 L -5.08836,-704.39 L -5.01512,-704.774 L -4.89432,-705.146 L -4.72786,-705.5
 L -4.5184,-705.83 L -4.26921,-706.131 L -3.98424,-706.399 L -3.66798,-706.628 L -3.32541,-706.817 L -2.96194,-706.961
 L -2.5833,-707.058 L -2.19545,-707.107 L 2.19545,-707.107 L 2.5833,-707.058 L 2.96194,-706.961 L 3.32541,-706.817
 L 3.66798,-706.628 L 3.98424,-706.399 L 4.26921,-706.131 L 4.5184,-705.83 L 4.72786,-705.5 L 4.89432,-705.146
 L 5.01512,-704.774 L 5.08836,-704.39 L 5.11292,-704 L 5.11292,-520 L 5.08836,-519.61 L 5.01512,-519.226
 L 4.89432,-518.854 L 4.72786,-518.5 L 4.5184,-518.17 L 4.26921,-517.869 L 3.98424,-517.601 L 3.66798,-517.372
 L 3.32541,-517.183 L 2.96194,-517.039 L 2.5833,-516.942 L 2.19545,-516.893 z
M 3.4369,-310.589 L 4.04507,-310.745 L 4.62889,-310.976 L 5.17912,-311.278 L 5.68712,-311.647 L 6.14484,-312.077
 L 6.54507,-312.561 L 6.88153,-313.091 L 7.14888,-313.659 L 7.34291,-314.257 L 7.46057,-314.873 L 7.5,-315.5
 L 7.5,-500.5 L 7.46057,-501.127 L 7.34291,-501.743 L 7.14888,-502.341 L 6.88153,-502.909 L 6.54507,-503.439
 L 6.14484,-503.923 L 5.68712,-504.353 L 5.17912,-504.722 L 4.62889,-505.024 L 4.04507,-505.255 L 3.4369,-505.411
 L 2.81395,-505.49 L -2.81395,-505.49 L -3.4369,-505.411 L -4.04507,-505.255 L -4.62889,-505.024 L -5.17912,-504.722
 L -5.68712,-504.353 L -6.14484,-503.923 L -6.54507,-503.439 L -6.88153,-502.909 L -7.14888,-502.341 L -7.34291,-501.743
 L -7.46057,-501.127 L -7.5,-500.5 L -7.5,-315.5 L -7.46057,-314.873 L -7.34291,-314.257 L -7.14888,-313.659
 L -6.88153,-313.091 L -6.54507,-312.561 L -6.14484,-312.077 L -5.68712,-311.647 L -5.17912,-311.278 L -4.62889,-310.976
 L -4.04507,-310.745 L -3.4369,-310.589 L -2.81395,-310.51 L 2.81395,-310.51 z
M -0.134064,-495.869 L -0.400101,-495.903 L -0.659836,-495.969 L -0.909149,-496.068 L -1.14413,-496.197 L -1.36108,-496.355
 L -1.55655,-496.538 L -1.72748,-496.745 L -1.87117,-496.971 L -1.98534,-497.214 L -2.06821,-497.469 L -2.11845,-497.732
 L -2.13528,-498 L -2.11845,-498.268 L -2.06821,-498.531 L -1.98534,-498.786 L -1.87117,-499.029 L -1.72748,-499.255
 L -1.55655,-499.462 L -1.36108,-499.645 L -1.14413,-499.803 L -0.909149,-499.932 L -0.659836,-500.031 L -0.400101,-500.097
 L -0.134064,-500.131 L 0.134064,-500.131 L 0.400101,-500.097 L 0.659836,-500.031 L 0.909149,-499.932 L 1.14413,-499.803
 L 1.36108,-499.645 L 1.55655,-499.462 L 1.72748,-499.255 L 1.87117,-499.029 L 1.98534,-498.786 L 2.06821,-498.531
 L 2.11845,-498.268 L 2.13528,-498 L 2.11845,-497.732 L 2.06821,-497.469 L 1.98534,-497.214 L 1.87117,-496.971
 L 1.72748,-496.745 L 1.55655,-496.538 L 1.36108,-496.355 L 1.14413,-496.197 L 0.909149,-496.068 L 0.659836,-495.969
 L 0.400101,-495.903 L 0.134064,-495.869 z
M -0.134064,-315.869 L -0.400101,-315.903 L -0.659836,-315.969 L -0.909149,-316.068 L -1.14413,-316.197 L -1.36108,-316.355
 L -1.55655,-316.538 L -1.72748,-316.745 L -1.87117,-316.971 L -1.98534,-317.214 L -2.06821,-317.469 L -2.11845,-317.732
 L -2.13528,-318 L -2.11845,-318.268 L -2.06821,-318.531 L -1.98534,-318.786 L -1.87117,-319.029 L -1.72748,-319.255
 L -1.55655,-319.462 L -1.36108,-319.645 L -1.14413,-319.803 L -0.909149,-319.932 L -0.659836,-320.031 L -0.400101,-320.097
 L -0.134064,-320.131 L 0.134064,-320.131 L 0.400101,-320.097 L 0.659836,-320.031 L 0.909149,-319.932 L 1.14413,-319.803
 L 1.36108,-319.645 L 1.55655,-319.462 L 1.72748,-319.255 L 1.87117,-319.029 L 1.98534,-318.786 L 2.06821,-318.531
 L 2.11845,-318.268 L 2.13528,-318 L 2.11845,-317.732 L 2.06821,-317.469 L 1.98534,-317.214 L 1.87117,-316.971
 L 1.72748,-316.745 L 1.55655,-316.538 L 1.36108,-316.355 L 1.14413,-316.197 L 0.909149,-316.068 L 0.659836,-315.969
 L 0.400101,-315.903 L 0.134064,-315.869 z
" stroke="black" fill="lightgray" stroke-width="0.5"/>
</svg>
