<?xml version="1.0" standalone="no"?>
<!DOCTYPE svg PUBLIC "-//W3C//DTD SVG 1.1//EN" "http://www.w3.org/Graphics/SVG/1.1/DTD/svg11.dtd">
<svg width="26mm" height="26mm" viewBox="-13 -13 26 26" xmlns="http://www.w3.org/2000/svg" version="1.1">
<title>OpenSCAD Model</title>
<path d="
M 0.881302,12.4472 L 0.979034,12.4399 L 1.07671,12.4319 L 1.11101,12.4287 L 1.21602,12.3745 L 1.25708,12.2735
 L 1.26227,12.1635 L 1.28096,12.0546 L 1.31281,11.9476 L 1.35741,11.8433 L 1.44673,11.7308 L 1.55872,11.6418
 L 1.6877,11.5781 L 1.82796,11.5413 L 1.97273,11.533 L 2.11508,11.5537 L 2.24907,11.6037 L 2.3688,11.6831
 L 2.44327,11.7685 L 2.50664,11.8604 L 2.55817,11.9582 L 2.59717,12.0613 L 2.66728,12.1447 L 2.78404,12.1638
 L 2.81763,12.1561 L 2.91301,12.1336 L 3.00822,12.1104 L 3.04161,12.1019 L 3.13686,12.0319 L 3.16162,11.9258
 L 3.14952,11.8163 L 3.15094,11.7058 L 3.16565,11.5951 L 3.19341,11.4852 L 3.26402,11.36 L 3.3607,11.2547
 L 3.47813,11.1716 L 3.6109,11.1132 L 3.75259,11.0824 L 3.89644,11.0806 L 4.03661,11.109 L 4.16728,11.1687
 L 4.2542,11.2414 L 4.33116,11.3223 L 4.39735,11.4108 L 4.452,11.5065 L 4.53429,11.5779 L 4.6526,11.5785
 L 4.68457,11.5657 L 4.77527,11.5285 L 4.86566,11.4907 L 4.89732,11.4771 L 4.98044,11.3931 L 4.9883,11.2844
 L 4.95921,11.1781 L 4.94334,11.0687 L 4.94055,10.9571 L 4.95076,10.8442 L 5.00095,10.7096 L 5.07996,10.5904
 L 5.18292,10.4899 L 5.30495,10.4115 L 5.44006,10.3589 L 5.58186,10.3346 L 5.72475,10.3408 L 5.86316,10.3793
 L 5.96037,10.4375 L 6.04903,10.5054 L 6.12827,10.5824 L 6.19719,10.6684 L 6.28964,10.726 L 6.4066,10.7081
 L 6.43617,10.6904 L 6.51994,10.6396 L 6.6033,10.588 L 6.63245,10.5697 L 6.7014,10.4737 L 6.69214,10.3651
 L 6.64679,10.2647 L 6.61401,10.1591 L 6.59381,10.0494 L 6.58621,9.93622 L 6.61473,9.79541 L 6.6741,9.6653
 L 6.7601,9.54997 L 6.86835,9.45348 L 6.99358,9.38034 L 7.12982,9.3342 L 7.27193,9.31793 L 7.41466,9.33434
 L 7.51978,9.37662 L 7.61795,9.42973 L 7.70827,9.49347 L 7.78981,9.5676 L 7.89012,9.61005 L 8.00284,9.57405
 L 8.02928,9.552 L 8.10406,9.48863 L 8.17833,9.4247 L 8.20425,9.40202 L 8.25734,9.29643 L 8.23122,9.1906
 L 8.17072,9.09851 L 8.12183,8.99942 L 8.08469,8.89413 L 8.05949,8.78358 L 8.06563,8.64003 L 8.10393,8.50224
 L 8.17082,8.37488 L 8.26263,8.26263 L 8.37488,8.17082 L 8.50224,8.10393 L 8.64003,8.06563 L 8.78358,8.05949
 L 8.89401,8.08481 L 8.9993,8.12193 L 9.09848,8.17075 L 9.1906,8.23122 L 9.29633,8.25745 L 9.40202,8.20425
 L 9.4247,8.17833 L 9.48863,8.10406 L 9.552,8.02928 L 9.57405,8.00284 L 9.60997,7.89024 L 9.5676,7.78981
 L 9.49344,7.70831 L 9.42964,7.61809 L 9.37651,7.51991 L 9.33434,7.41466 L 9.31793,7.27193 L 9.3342,7.12982
 L 9.38034,6.99358 L 9.45348,6.86835 L 9.54997,6.7601 L 9.6653,6.6741 L 9.79541,6.61473 L 9.93622,6.58621
 L 10.0493,6.59395 L 10.1591,6.61414 L 10.2646,6.64684 L 10.3651,6.69214 L 10.4736,6.70151 L 10.5697,6.63245
 L 10.588,6.6033 L 10.6396,6.51994 L 10.6904,6.43617 L 10.7081,6.4066 L 10.726,6.28976 L 10.6684,6.19719
 L 10.5824,6.12831 L 10.5053,6.04916 L 10.4374,5.96053 L 10.3793,5.86316 L 10.3408,5.72475 L 10.3346,5.58186
 L 10.3589,5.44006 L 10.4115,5.30495 L 10.4899,5.18292 L 10.5904,5.07996 L 10.7096,5.00095 L 10.8442,4.95076
 L 10.9571,4.9407 L 11.0687,4.94348 L 11.1781,4.95926 L 11.2844,4.9883 L 11.393,4.98058 L 11.4771,4.89732
 L 11.4907,4.86566 L 11.5285,4.77527 L 11.5657,4.68457 L 11.5785,4.6526 L 11.5778,4.53441 L 11.5065,4.452
 L 11.4108,4.3974 L 11.3223,4.3313 L 11.2414,4.25436 L 11.1687,4.16728 L 11.109,4.03661 L 11.0806,3.89644
 L 11.0824,3.75259 L 11.1132,3.6109 L 11.1716,3.47813 L 11.2547,3.3607 L 11.36,3.26402 L 11.4852,3.19341
 L 11.5951,3.16582 L 11.7057,3.15109 L 11.8163,3.14957 L 11.9258,3.16162 L 12.0319,3.13699 L 12.1019,3.04161
 L 12.1104,3.00822 L 12.1336,2.91301 L 12.1561,2.81763 L 12.1638,2.78404 L 12.1446,2.66742 L 12.0613,2.59717
 L 11.9582,2.55823 L 11.8604,2.50679 L 11.7685,2.44344 L 11.6831,2.3688 L 11.6037,2.24907 L 11.5537,2.11508
 L 11.533,1.97273 L 11.5413,1.82796 L 11.5781,1.6877 L 11.6418,1.55872 L 11.7308,1.44673 L 11.8433,1.35741
 L 11.9476,1.31297 L 12.0546,1.28111 L 12.1635,1.26231 L 12.2735,1.25708 L 12.3745,1.21616 L 12.4287,1.11101
 L 12.4319,1.07671 L 12.4399,0.979034 L 12.4472,0.881302 L 12.4495,0.846939 L 12.4124,0.734741 L 12.3191,0.678375
 L 12.2112,0.656052 L 12.1066,0.620544 L 12.0059,0.572357 L 11.9099,0.511993 L 11.8127,0.406158 L 11.7423,0.281647
 L 11.6996,0.144287 L 11.6852,-0 L 11.6996,-0.144287 L 11.7423,-0.281647 L 11.8127,-0.406158 L 11.9099,-0.511993
 L 12.0059,-0.572189 L 12.1066,-0.620392 L 12.2112,-0.655991 L 12.3191,-0.678375 L 12.4124,-0.734589 L 12.4495,-0.846939
 L 12.4472,-0.881302 L 12.4399,-0.979034 L 12.4319,-1.07671 L 12.4287,-1.11101 L 12.3745,-1.21602 L 12.2735,-1.25708
 L 12.1635,-1.26227 L 12.0546,-1.28096 L 11.9476,-1.31281 L 11.8433,-1.35741 L 11.7308,-1.44673 L 11.6418,-1.55872
 L 11.5781,-1.6877 L 11.5413,-1.82796 L 11.533,-1.97273 L 11.5537,-2.11508 L 11.6037,-2.24907 L 11.6831,-2.3688
 L 11.7685,-2.44327 L 11.8604,-2.50664 L 11.9582,-2.55817 L 12.0613,-2.59717 L 12.1447,-2.66728 L 12.1638,-2.78404
 L 12.1561,-2.81763 L 12.1336,-2.91301 L 12.1104,-3.00822 L 12.1019,-3.04161 L 12.0319,-3.13686 L 11.9258,-3.16162
 L 11.8163,-3.14952 L 11.7058,-3.15094 L 11.5951,-3.16565 L 11.4852,-3.19341 L 11.36,-3.26402 L 11.2547,-3.3607
 L 11.1716,-3.47813 L 11.1132,-3.6109 L 11.0824,-3.75259 L 11.0806,-3.89644 L 11.109,-4.03661 L 11.1687,-4.16728
 L 11.2414,-4.2542 L 11.3223,-4.33116 L 11.4108,-4.39735 L 11.5065,-4.452 L 11.5779,-4.53429 L 11.5785,-4.6526
 L 11.5657,-4.68457 L 11.5285,-4.77527 L 11.4907,-4.86566 L 11.4771,-4.89732 L 11.3931,-4.98044 L 11.2844,-4.9883
 L 11.1781,-4.95921 L 11.0687,-4.94334 L 10.9571,-4.94055 L 10.8442,-4.95076 L 10.7096,-5.00095 L 10.5904,-5.07996
 L 10.4899,-5.18292 L 10.4115,-5.30495 L 10.3589,-5.44006 L 10.3346,-5.58186 L 10.3408,-5.72475 L 10.3793,-5.86316
 L 10.4375,-5.96037 L 10.5054,-6.04903 L 10.5824,-6.12827 L 10.6684,-6.19719 L 10.726,-6.28964 L 10.7081,-6.4066
 L 10.6904,-6.43617 L 10.6396,-6.51994 L 10.588,-6.6033 L 10.5697,-6.63245 L 10.4737,-6.7014 L 10.3651,-6.69214
 L 10.2647,-6.64679 L 10.1591,-6.61401 L 10.0494,-6.59381 L 9.93622,-6.58621 L 9.79541,-6.61473 L 9.6653,-6.6741
 L 9.54997,-6.7601 L 9.45348,-6.86835 L 9.38034,-6.99358 L 9.3342,-7.12982 L 9.31793,-7.27193 L 9.33434,-7.41466
 L 9.37662,-7.51978 L 9.42973,-7.61795 L 9.49347,-7.70827 L 9.5676,-7.78981 L 9.61005,-7.89012 L 9.57405,-8.00284
 L 9.552,-8.02928 L 9.48863,-8.10406 L 9.4247,-8.17833 L 9.40202,-8.20425 L 9.29643,-8.25734 L 9.1906,-8.23122
 L 9.09851,-8.17072 L 8.99942,-8.12183 L 8.89413,-8.08469 L 8.78358,-8.05949 L 8.64003,-8.06563 L 8.50224,-8.10393
 L 8.37488,-8.17082 L 8.26263,-8.26263 L 8.17082,-8.37488 L 8.10393,-8.50224 L 8.06563,-8.64003 L 8.05949,-8.78358
 L 8.08481,-8.89401 L 8.12193,-8.9993 L 8.17075,-9.09848 L 8.23122,-9.1906 L 8.25745,-9.29633 L 8.20425,-9.40202
 L 8.17833,-9.4247 L 8.10406,-9.48863 L 8.02928,-9.552 L 8.00284,-9.57405 L 7.89024,-9.60997 L 7.78981,-9.5676
 L 7.70831,-9.49344 L 7.61809,-9.42964 L 7.51991,-9.37651 L 7.41466,-9.33434 L 7.27193,-9.31793 L 7.12982,-9.3342
 L 6.99358,-9.38034 L 6.86835,-9.45348 L 6.7601,-9.54997 L 6.6741,-9.6653 L 6.61473,-9.79541 L 6.58621,-9.93622
 L 6.59395,-10.0493 L 6.61414,-10.1591 L 6.64684,-10.2646 L 6.69214,-10.3651 L 6.70151,-10.4736 L 6.63245,-10.5697
 L 6.6033,-10.588 L 6.51994,-10.6396 L 6.43617,-10.6904 L 6.4066,-10.7081 L 6.28976,-10.726 L 6.19719,-10.6684
 L 6.12831,-10.5824 L 6.04916,-10.5053 L 5.96053,-10.4374 L 5.86316,-10.3793 L 5.72475,-10.3408 L 5.58186,-10.3346
 L 5.44006,-10.3589 L 5.30495,-10.4115 L 5.18292,-10.4899 L 5.07996,-10.5904 L 5.00095,-10.7096 L 4.95076,-10.8442
 L 4.9407,-10.9571 L 4.94348,-11.0687 L 4.95926,-11.1781 L 4.9883,-11.2844 L 4.98058,-11.393 L 4.89732,-11.4771
 L 4.86566,-11.4907 L 4.77527,-11.5285 L 4.68457,-11.5657 L 4.6526,-11.5785 L 4.53441,-11.5778 L 4.452,-11.5065
 L 4.3974,-11.4108 L 4.3313,-11.3223 L 4.25436,-11.2414 L 4.16728,-11.1687 L 4.03661,-11.109 L 3.89644,-11.0806
 L 3.75259,-11.0824 L 3.6109,-11.1132 L 3.47813,-11.1716 L 3.3607,-11.2547 L 3.26402,-11.36 L 3.19341,-11.4852
 L 3.16582,-11.5951 L 3.15109,-11.7057 L 3.14957,-11.8163 L 3.16162,-11.9258 L 3.13699,-12.0319 L 3.04161,-12.1019
 L 3.00822,-12.1104 L 2.91301,-12.1336 L 2.81763,-12.1561 L 2.78404,-12.1638 L 2.66742,-12.1446 L 2.59717,-12.0613
 L 2.55823,-11.9582 L 2.50679,-11.8604 L 2.44344,-11.7685 L 2.3688,-11.6831 L 2.24907,-11.6037 L 2.11508,-11.5537
 L 1.97273,-11.533 L 1.82796,-11.5413 L 1.6877,-11.5781 L 1.55872,-11.6418 L 1.44673,-11.7308 L 1.35741,-11.8433
 L 1.31297,-11.9476 L 1.28111,-12.0546 L 1.26231,-12.1635 L 1.25708,-12.2735 L 1.21616,-12.3745 L 1.11101,-12.4287
 L 1.07671,-12.4319 L 0.979034,-12.4399 L 0.881302,-12.4472 L 0.846939,-12.4495 L 0.734741,-12.4124 L 0.678375,-12.3191
 L 0.656052,-12.2112 L 0.620544,-12.1066 L 0.572357,-12.0059 L 0.511993,-11.9099 L 0.406158,-11.8127 L 0.281647,-11.7423
 L 0.144287,-11.6996 L 0,-11.6852 L -0.144287,-11.6996 L -0.281647,-11.7423 L -0.406158,-11.8127 L -0.511993,-11.9099
 L -0.572189,-12.0059 L -0.620392,-12.1066 L -0.655991,-12.2112 L -0.678375,-12.3191 L -0.734589,-12.4124 L -0.846939,-12.4495
 L -0.881302,-12.4472 L -0.979034,-12.4399 L -1.07671,-12.4319 L -1.11101,-12.4287 L -1.21602,-12.3745 L -1.25708,-12.2735
 L -1.26227,-12.1635 L -1.28096,-12.0546 L -1.31281,-11.9476 L -1.35741,-11.8433 L -1.44673,-11.7308 L -1.55872,-11.6418
 L -1.6877,-11.5781 L -1.82796,-11.5413 L -1.97273,-11.533 L -2.11508,-11.5537 L -2.24907,-11.6037 L -2.3688,-11.6831
 L -2.44327,-11.7685 L -2.50664,-11.8604 L -2.55817,-11.9582 L -2.59717,-12.0613 L -2.66728,-12.1447 L -2.78404,-12.1638
 L -2.81763,-12.1561 L -2.91301,-12.1336 L -3.00822,-12.1104 L -3.04161,-12.1019 L -3.13686,-12.0319 L -3.16162,-11.9258
 L -3.14952,-11.8163 L -3.15094,-11.7058 L -3.16565,-11.5951 L -3.19341,-11.4852 L -3.26402,-11.36 L -3.3607,-11.2547
 L -3.47813,-11.1716 L -3.6109,-11.1132 L -3.75259,-11.0824 L -3.89644,-11.0806 L -4.03661,-11.109 L -4.16728,-11.1687
 L -4.2542,-11.2414 L -4.33116,-11.3223 L -4.39735,-11.4108 L -4.452,-11.5065 L -4.53429,-11.5779 L -4.6526,-11.5785
 L -4.68457,-11.5657 L -4.77527,-11.5285 L -4.86566,-11.4907 L -4.89732,-11.4771 L -4.98044,-11.3931 L -4.9883,-11.2844
 L -4.95921,-11.1781 L -4.94334,-11.0687 L -4.94055,-10.9571 L -4.95076,-10.8442 L -5.00095,-10.7096 L -5.07996,-10.5904
 L -5.18292,-10.4899 L -5.30495,-10.4115 L -5.44006,-10.3589 L -5.58186,-10.3346 L -5.72475,-10.3408 L -5.86316,-10.3793
 L -5.96037,-10.4375 L -6.04903,-10.5054 L -6.12827,-10.5824 L -6.19719,-10.6684 L -6.28964,-10.726 L -6.4066,-10.7081
 L -6.43617,-10.6904 L -6.51994,-10.6396 L -6.6033,-10.588 L -6.63245,-10.5697 L -6.7014,-10.4737 L -6.69214,-10.3651
 L -6.64679,-10.2647 L -6.61401,-10.1591 L -6.59381,-10.0494 L -6.58621,-9.93622 L -6.61473,-9.79541 L -6.6741,-9.6653
 L -6.7601,-9.54997 L -6.86835,-9.45348 L -6.99358,-9.38034 L -7.12982,-9.3342 L -7.27193,-9.31793 L -7.41466,-9.33434
 L -7.51978,-9.37662 L -7.61795,-9.42973 L -7.70827,-9.49347 L -7.78981,-9.5676 L -7.89012,-9.61005 L -8.00284,-9.57405
 L -8.02928,-9.552 L -8.10406,-9.48863 L -8.17833,-9.4247 L -8.20425,-9.40202 L -8.25734,-9.29643 L -8.23122,-9.1906
 L -8.17072,-9.09851 L -8.12183,-8.99942 L -8.08469,-8.89413 L -8.05949,-8.78358 L -8.06563,-8.64003 L -8.10393,-8.50224
 L -8.17082,-8.37488 L -8.26263,-8.26263 L -8.37488,-8.17082 L -8.50224,-8.10393 L -8.64003,-8.06563 L -8.78358,-8.05949
 L -8.89401,-8.08481 L -8.9993,-8.12193 L -9.09848,-8.17075 L -9.1906,-8.23122 L -9.29633,-8.25745 L -9.40202,-8.20425
 L -9.4247,-8.17833 L -9.48863,-8.10406 L -9.552,-8.02928 L -9.57405,-8.00284 L -9.60997,-7.89024 L -9.5676,-7.78981
 L -9.49344,-7.70831 L -9.42964,-7.61809 L -9.37651,-7.51991 L -9.33434,-7.41466 L -9.31793,-7.27193 L -9.3342,-7.12982
 L -9.38034,-6.99358 L -9.45348,-6.86835 L -9.54997,-6.7601 L -9.6653,-6.6741 L -9.79541,-6.61473 L -9.93622,-6.58621
 L -10.0493,-6.59395 L -10.1591,-6.61414 L -10.2646,-6.64684 L -10.3651,-6.69214 L -10.4736,-6.70151 L -10.5697,-6.63245
 L -10.588,-6.6033 L -10.6396,-6.51994 L -10.6904,-6.43617 L -10.7081,-6.4066 L -10.726,-6.28976 L -10.6684,-6.19719
 L -10.5824,-6.12831 L -10.5053,-6.04916 L -10.4374,-5.96053 L -10.3793,-5.86316 L -10.3408,-5.72475 L -10.3346,-5.58186
 L -10.3589,-5.44006 L -10.4115,-5.30495 L -10.4899,-5.18292 L -10.5904,-5.07996 L -10.7096,-5.00095 L -10.8442,-4.95076
 L -10.9571,-4.9407 L -11.0687,-4.94348 L -11.1781,-4.95926 L -11.2844,-4.9883 L -11.393,-4.98058 L -11.4771,-4.89732
 L -11.4907,-4.86566 L -11.5285,-4.77527 L -11.5657,-4.68457 L -11.5785,-4.6526 L -11.5778,-4.53441 L -11.5065,-4.452
 L -11.4108,-4.3974 L -11.3223,-4.3313 L -11.2414,-4.25436 L -11.1687,-4.16728 L -11.109,-4.03661 L -11.0806,-3.89644
 L -11.0824,-3.75259 L -11.1132,-3.6109 L -11.1716,-3.47813 L -11.2547,-3.3607 L -11.36,-3.26402 L -11.4852,-3.19341
 L -11.5951,-3.16582 L -11.7057,-3.15109 L -11.8163,-3.14957 L -11.9258,-3.16162 L -12.0319,-3.13699 L -12.1019,-3.04161
 L -12.1104,-3.00822 L -12.1336,-2.91301 L -12.1561,-2.81763 L -12.1638,-2.78404 L -12.1446,-2.66742 L -12.0613,-2.59717
 L -11.9582,-2.55823 L -11.8604,-2.50679 L -11.7685,-2.44344 L -11.6831,-2.3688 L -11.6037,-2.24907 L -11.5537,-2.11508
 L -11.533,-1.97273 L -11.5413,-1.82796 L -11.5781,-1.6877 L -11.6418,-1.55872 L -11.7308,-1.44673 L -11.8433,-1.35741
 L -11.9476,-1.31297 L -12.0546,-1.28111 L -12.1635,-1.26231 L -12.2735,-1.25708 L -12.3745,-1.21616 L -12.4287,-1.11101
 L -12.4319,-1.07671 L -12.4399,-0.979034 L -12.4472,-0.881302 L -12.4495,-0.846939 L -12.4124,-0.734741 L -12.3191,-0.678375
 L -12.2112,-0.656052 L -12.1066,-0.620544 L -12.0059,-0.572357 L -11.9099,-0.511993 L -11.8127,-0.406158 L -11.7423,-0.281647
 L -11.6996,-0.144287 L -11.6852,-0 L -11.6996,0.144287 L -11.7423,0.281647 L -11.8127,0.406158 L -11.9099,0.511993
 L -12.0059,0.572189 L -12.1066,0.620392 L -12.2112,0.655991 L -12.3191,0.678375 L -12.4124,0.734589 L -12.4495,0.846939
 L -12.4472,0.881302 L -12.4399,0.979034 L -12.4319,1.07671 L -12.4287,1.11101 L -12.3745,1.21602 L -12.2735,1.25708
 L -12.1635,1.26227 L -12.0546,1.28096 L -11.9476,1.31281 L -11.8433,1.35741 L -11.7308,1.44673 L -11.6418,1.55872
 L -11.5781,1.6877 L -11.5413,1.82796 L -11.533,1.97273 L -11.5537,2.11508 L -11.6037,2.24907 L -11.6831,2.3688
 L -11.7685,2.44327 L -11.8604,2.50664 L -11.9582,2.55817 L -12.0613,2.59717 L -12.1447,2.66728 L -12.1638,2.78404
 L -12.1561,2.81763 L -12.1336,2.91301 L -12.1104,3.00822 L -12.1019,3.04161 L -12.0319,3.13686 L -11.9258,3.16162
 L -11.8163,3.14952 L -11.7058,3.15094 L -11.5951,3.16565 L -11.4852,3.19341 L -11.36,3.26402 L -11.2547,3.3607
 L -11.1716,3.47813 L -11.1132,3.6109 L -11.0824,3.75259 L -11.0806,3.89644 L -11.109,4.03661 L -11.1687,4.16728
 L -11.2414,4.2542 L -11.3223,4.33116 L -11.4108,4.39735 L -11.5065,4.452 L -11.5779,4.53429 L -11.5785,4.6526
 L -11.5657,4.68457 L -11.5285,4.77527 L -11.4907,4.86566 L -11.4771,4.89732 L -11.3931,4.98044 L -11.2844,4.9883
 L -11.1781,4.95921 L -11.0687,4.94334 L -10.9571,4.94055 L -10.8442,4.95076 L -10.7096,5.00095 L -10.5904,5.07996
 L -10.4899,5.18292 L -10.4115,5.30495 L -10.3589,5.44006 L -10.3346,5.58186 L -10.3408,5.72475 L -10.3793,5.86316
 L -10.4375,5.96037 L -10.5054,6.04903 L -10.5824,6.12827 L -10.6684,6.19719 L -10.726,6.28964 L -10.7081,6.4066
 L -10.6904,6.43617 L -10.6396,6.51994 L -10.588,6.6033 L -10.5697,6.63245 L -10.4737,6.7014 L -10.3651,6.69214
 L -10.2647,6.64679 L -10.1591,6.61401 L -10.0494,6.59381 L -9.93622,6.58621 L -9.79541,6.61473 L -9.6653,6.6741
 L -9.54997,6.7601 L -9.45348,6.86835 L -9.38034,6.99358 L -9.3342,7.12982 L -9.31793,7.27193 L -9.33434,7.41466
 L -9.37662,7.51978 L -9.42973,7.61795 L -9.49347,7.70827 L -9.5676,7.78981 L -9.61005,7.89012 L -9.57405,8.00284
 L -9.552,8.02928 L -9.48863,8.10406 L -9.4247,8.17833 L -9.40202,8.20425 L -9.29643,8.25734 L -9.1906,8.23122
 L -9.09851,8.17072 L -8.99942,8.12183 L -8.89413,8.08469 L -8.78358,8.05949 L -8.64003,8.06563 L -8.50224,8.10393
 L -8.37488,8.17082 L -8.26263,8.26263 L -8.17082,8.37488 L -8.10393,8.50224 L -8.06563,8.64003 L -8.05949,8.78358
 L -8.08481,8.89401 L -8.12193,8.9993 L -8.17075,9.09848 L -8.23122,9.1906 L -8.25745,9.29633 L -8.20425,9.40202
 L -8.17833,9.4247 L -8.10406,9.48863 L -8.02928,9.552 L -8.00284,9.57405 L -7.89024,9.60997 L -7.78981,9.5676
 L -7.70831,9.49344 L -7.61809,9.42964 L -7.51991,9.37651 L -7.41466,9.33434 L -7.27193,9.31793 L -7.12982,9.3342
 L -6.99358,9.38034 L -6.86835,9.45348 L -6.7601,9.54997 L -6.6741,9.6653 L -6.61473,9.79541 L -6.58621,9.93622
 L -6.59395,10.0493 L -6.61414,10.1591 L -6.64684,10.2646 L -6.69214,10.3651 L -6.70151,10.4736 L -6.63245,10.5697
 L -6.6033,10.588 L -6.51994,10.6396 L -6.43617,10.6904 L -6.4066,10.7081 L -6.28976,10.726 L -6.19719,10.6684
 L -6.12831,10.5824 L -6.04916,10.5053 L -5.96053,10.4374 L -5.86316,10.3793 L -5.72475,10.3408 L -5.58186,10.3346
 L -5.44006,10.3589 L -5.30495,10.4115 L -5.18292,10.4899 L -5.07996,10.5904 L -5.00095,10.7096 L -4.95076,10.8442
 L -4.9407,10.9571 L -4.94348,11.0687 L -4.95926,11.1781 L -4.9883,11.2844 L -4.98058,11.393 L -4.89732,11.4771
 L -4.86566,11.4907 L -4.77527,11.5285 L -4.68457,11.5657 L -4.6526,11.5785 L -4.53441,11.5778 L -4.452,11.5065
 L -4.3974,11.4108 L -4.3313,11.3223 L -4.25436,11.2414 L -4.16728,11.1687 L -4.03661,11.109 L -3.89644,11.0806
 L -3.75259,11.0824 L -3.6109,11.1132 L -3.47813,11.1716 L -3.3607,11.2547 L -3.26402,11.36 L -3.19341,11.4852
 L -3.16582,11.5951 L -3.15109,11.7057 L -3.14957,11.8163 L -3.16162,11.9258 L -3.13699,12.0319 L -3.04161,12.1019
 L -3.00822,12.1104 L -2.91301,12.1336 L -2.81763,12.1561 L -2.78404,12.1638 L -2.66742,12.1446 L -2.59717,12.0613
 L -2.55823,11.9582 L -2.50679,11.8604 L -2.44344,11.7685 L -2.3688,11.6831 L -2.24907,11.6037 L -2.11508,11.5537
 L -1.97273,11.533 L -1.82796,11.5413 L -1.6877,11.5781 L -1.55872,11.6418 L -1.44673,11.7308 L -1.35741,11.8433
 L -1.31297,11.9476 L -1.28111,12.0546 L -1.26231,12.1635 L -1.25708,12.2735 L -1.21616,12.3745 L -1.11101,12.4287
 L -1.07671,12.4319 L -0.979034,12.4399 L -0.881302,12.4472 L -0.846939,12.4495 L -0.734741,12.4124 L -0.678375,12.3191
 L -0.656052,12.2112 L -0.620544,12.1066 L -0.572357,12.0059 L -0.511993,11.9099 L -0.406158,11.8127 L -0.281647,11.7423
 L -0.144287,11.6996 L 0,11.6852 L 0.144287,11.6996 L 0.281647,11.7423 L 0.406158,11.8127 L 0.511993,11.9099
 L 0.572189,12.0059 L 0.620392,12.1066 L 0.655991,12.2112 L 0.678375,12.3191 L 0.734589,12.4124 L 0.846939,12.4495
 z
M -0.0941772,-6.00294 L -0.281067,-6.02657 L -0.463516,-6.07341 L -0.638657,-6.14275 L -0.803726,-6.23351 L -0.956131,-6.34422
 L -1.09344,-6.47318 L -1.21352,-6.61832 L -1.31445,-6.77736 L -1.39465,-6.9478 L -1.45287,-7.12695 L -1.48816,-7.312
 L -1.5,-7.5 L -1.48816,-7.68799 L -1.45287,-7.87303 L -1.39465,-8.05219 L -1.31445,-8.22263 L -1.21352,-8.38167
 L -1.09344,-8.52681 L -0.956131,-8.65576 L -0.803726,-8.76648 L -0.638657,-8.85724 L -0.463516,-8.92657 L -0.281067,-8.97342
 L -0.0941772,-8.99704 L 0.0941772,-8.99704 L 0.281067,-8.97342 L 0.463516,-8.92657 L 0.638657,-8.85724 L 0.803726,-8.76648
 L 0.956131,-8.65576 L 1.09344,-8.52681 L 1.21352,-8.38167 L 1.31445,-8.22263 L 1.39465,-8.05219 L 1.45287,-7.87303
 L 1.48816,-7.68799 L 1.5,-7.5 L 1.48816,-7.312 L 1.45287,-7.12695 L 1.39465,-6.9478 L 1.31445,-6.77736
 L 1.21352,-6.61832 L 1.09344,-6.47318 L 0.956131,-6.34422 L 0.803726,-6.23351 L 0.638657,-6.14275 L 0.463516,-6.07341
 L 0.281067,-6.02657 L 0.0941772,-6.00294 z
M 5.18997,-3.50655 L 4.96571,-3.53488 L 4.74677,-3.59109 L 4.53659,-3.6743 L 4.3385,-3.7832 L 4.15562,-3.91606
 L 3.99084,-4.0708 L 3.84676,-4.24498 L 3.72565,-4.43584 L 3.62939,-4.64037 L 3.55954,-4.85535 L 3.51718,-5.07739
 L 3.50299,-5.30299 L 3.51718,-5.52859 L 3.55954,-5.75064 L 3.62939,-5.96562 L 3.72565,-6.17015 L 3.84676,-6.36101
 L 3.99084,-6.53517 L 4.15562,-6.68991 L 4.3385,-6.82278 L 4.53659,-6.93169 L 4.74677,-7.01489 L 4.96571,-7.07111
 L 5.18997,-7.09944 L 5.41602,-7.09944 L 5.64027,-7.07111 L 5.85922,-7.01489 L 6.0694,-6.93169 L 6.26749,-6.82278
 L 6.45035,-6.68991 L 6.61514,-6.53517 L 6.75922,-6.36101 L 6.88034,-6.17015 L 6.97659,-5.96562 L 7.04645,-5.75064
 L 7.08879,-5.52859 L 7.103,-5.30299 L 7.08879,-5.07739 L 7.04645,-4.85535 L 6.97659,-4.64037 L 6.88034,-4.43584
 L 6.75922,-4.24498 L 6.61514,-4.0708 L 6.45035,-3.91606 L 6.26749,-3.7832 L 6.0694,-3.6743 L 5.85922,-3.59109
 L 5.64027,-3.53488 L 5.41602,-3.50655 z
M -5.41602,-3.50655 L -5.64027,-3.53488 L -5.85922,-3.59109 L -6.0694,-3.6743 L -6.26749,-3.7832 L -6.45035,-3.91606
 L -6.61514,-4.0708 L -6.75922,-4.24498 L -6.88034,-4.43584 L -6.97659,-4.64037 L -7.04645,-4.85535 L -7.08879,-5.07739
 L -7.103,-5.30299 L -7.08879,-5.52859 L -7.04645,-5.75064 L -6.97659,-5.96562 L -6.88034,-6.17015 L -6.75922,-6.36101
 L -6.61514,-6.53517 L -6.45035,-6.68991 L -6.26749,-6.82278 L -6.0694,-6.93169 L -5.85922,-7.01489 L -5.64027,-7.07111
 L -5.41602,-7.09944 L -5.18997,-7.09944 L -4.96571,-7.07111 L -4.74677,-7.01489 L -4.53659,-6.93169 L -4.3385,-6.82278
 L -4.15562,-6.68991 L -3.99084,-6.53517 L -3.84676,-6.36101 L -3.72565,-6.17015 L -3.62939,-5.96562 L -3.55954,-5.75064
 L -3.51718,-5.52859 L -3.50299,-5.30299 L -3.51718,-5.07739 L -3.55954,-4.85535 L -3.62939,-4.64037 L -3.72565,-4.43584
 L -3.84676,-4.24498 L -3.99084,-4.0708 L -4.15562,-3.91606 L -4.3385,-3.7832 L -4.53659,-3.6743 L -4.74677,-3.59109
 L -4.96571,-3.53488 L -5.18997,-3.50655 z
M -7.59418,1.49704 L -7.78107,1.47342 L -7.96352,1.42657 L -8.13866,1.35724 L -8.30373,1.26648 L -8.45613,1.15576
 L -8.59344,1.02681 L -8.71352,0.881668 L -8.81445,0.722626 L -8.89465,0.552185 L -8.95287,0.373032 L -8.98816,0.187988
 L -9,-0 L -8.98816,-0.187988 L -8.95287,-0.373032 L -8.89465,-0.552185 L -8.81445,-0.722626 L -8.71352,-0.881668
 L -8.59344,-1.02681 L -8.45613,-1.15576 L -8.30373,-1.26648 L -8.13866,-1.35724 L -7.96352,-1.42657 L -7.78107,-1.47342
 L -7.59418,-1.49704 L -7.40581,-1.49704 L -7.21892,-1.47342 L -7.03647,-1.42657 L -6.86133,-1.35724 L -6.69626,-1.26648
 L -6.54385,-1.15576 L -6.40654,-1.02681 L -6.28647,-0.881668 L -6.18553,-0.722626 L -6.10533,-0.552185 L -6.04712,-0.373032
 L -6.01183,-0.187988 L -6,-0 L -6.01183,0.187988 L -6.04712,0.373032 L -6.10533,0.552185 L -6.18553,0.722626
 L -6.28647,0.881668 L -6.40654,1.02681 L -6.54385,1.15576 L -6.69626,1.26648 L -6.86133,1.35724 L -7.03647,1.42657
 L -7.21892,1.47342 L -7.40581,1.49704 z
M 7.40581,1.49704 L 7.21892,1.47342 L 7.03647,1.42657 L 6.86133,1.35724 L 6.69626,1.26648 L 6.54385,1.15576
 L 6.40654,1.02681 L 6.28647,0.881668 L 6.18553,0.722626 L 6.10533,0.552185 L 6.04712,0.373032 L 6.01183,0.187988
 L 6,-0 L 6.01183,-0.187988 L 6.04712,-0.373032 L 6.10533,-0.552185 L 6.18553,-0.722626 L 6.28647,-0.881668
 L 6.40654,-1.02681 L 6.54385,-1.15576 L 6.69626,-1.26648 L 6.86133,-1.35724 L 7.03647,-1.42657 L 7.21892,-1.47342
 L 7.40581,-1.49704 L 7.59418,-1.49704 L 7.78107,-1.47342 L 7.96352,-1.42657 L 8.13866,-1.35724 L 8.30373,-1.26648
 L 8.45613,-1.15576 L 8.59344,-1.02681 L 8.71352,-0.881668 L 8.81445,-0.722626 L 8.89465,-0.552185 L 8.95287,-0.373032
 L 8.98816,-0.187988 L 9,-0 L 8.98816,0.187988 L 8.95287,0.373032 L 8.89465,0.552185 L 8.81445,0.722626
 L 8.71352,0.881668 L 8.59344,1.02681 L 8.45613,1.15576 L 8.30373,1.26648 L 8.13866,1.35724 L 7.96352,1.42657
 L 7.78107,1.47342 L 7.59418,1.49704 z
M -0.0941772,1.49704 L -0.281067,1.47342 L -0.463516,1.42657 L -0.638657,1.35724 L -0.803726,1.26648 L -0.956131,1.15576
 L -1.09344,1.02681 L -1.21352,0.881668 L -1.31445,0.722626 L -1.39465,0.552185 L -1.45287,0.373032 L -1.48816,0.187988
 L -1.5,-0 L -1.48816,-0.187988 L -1.45287,-0.373032 L -1.39465,-0.552185 L -1.31445,-0.722626 L -1.21352,-0.881668
 L -1.09344,-1.02681 L -0.956131,-1.15576 L -0.803726,-1.26648 L -0.638657,-1.35724 L -0.463516,-1.42657 L -0.281067,-1.47342
 L -0.0941772,-1.49704 L 0.0941772,-1.49704 L 0.281067,-1.47342 L 0.463516,-1.42657 L 0.638657,-1.35724 L 0.803726,-1.26648
 L 0.956131,-1.15576 L 1.09344,-1.02681 L 1.21352,-0.881668 L 1.31445,-0.722626 L 1.39465,-0.552185 L 1.45287,-0.373032
 L 1.48816,-0.187988 L 1.5,-0 L 1.48816,0.187988 L 1.45287,0.373032 L 1.39465,0.552185 L 1.31445,0.722626
 L 1.21352,0.881668 L 1.09344,1.02681 L 0.956131,1.15576 L 0.803726,1.26648 L 0.638657,1.35724 L 0.463516,1.42657
 L 0.281067,1.47342 L 0.0941772,1.49704 z
M -5.41602,7.09944 L -5.64027,7.07111 L -5.85922,7.01489 L -6.0694,6.93169 L -6.26749,6.82278 L -6.45035,6.68991
 L -6.61514,6.53517 L -6.75922,6.36101 L -6.88034,6.17015 L -6.97659,5.96562 L -7.04645,5.75064 L -7.08879,5.52859
 L -7.103,5.30299 L -7.08879,5.07739 L -7.04645,4.85535 L -6.97659,4.64037 L -6.88034,4.43584 L -6.75922,4.24498
 L -6.61514,4.0708 L -6.45035,3.91606 L -6.26749,3.7832 L -6.0694,3.6743 L -5.85922,3.59109 L -5.64027,3.53488
 L -5.41602,3.50655 L -5.18997,3.50655 L -4.96571,3.53488 L -4.74677,3.59109 L -4.53659,3.6743 L -4.3385,3.7832
 L -4.15562,3.91606 L -3.99084,4.0708 L -3.84676,4.24498 L -3.72565,4.43584 L -3.62939,4.64037 L -3.55954,4.85535
 L -3.51718,5.07739 L -3.50299,5.30299 L -3.51718,5.52859 L -3.55954,5.75064 L -3.62939,5.96562 L -3.72565,6.17015
 L -3.84676,6.36101 L -3.99084,6.53517 L -4.15562,6.68991 L -4.3385,6.82278 L -4.53659,6.93169 L -4.74677,7.01489
 L -4.96571,7.07111 L -5.18997,7.09944 z
M 5.18997,7.09944 L 4.96571,7.07111 L 4.74677,7.01489 L 4.53659,6.93169 L 4.3385,6.82278 L 4.15562,6.68991
 L 3.99084,6.53517 L 3.84676,6.36101 L 3.72565,6.17015 L 3.62939,5.96562 L 3.55954,5.75064 L 3.51718,5.52859
 L 3.50299,5.30299 L 3.51718,5.07739 L 3.55954,4.85535 L 3.62939,4.64037 L 3.72565,4.43584 L 3.84676,4.24498
 L 3.99084,4.0708 L 4.15562,3.91606 L 4.3385,3.7832 L 4.53659,3.6743 L 4.74677,3.59109 L 4.96571,3.53488
 L 5.18997,3.50655 L 5.41602,3.50655 L 5.64027,3.53488 L 5.85922,3.59109 L 6.0694,3.6743 L 6.26749,3.7832
 L 6.45035,3.91606 L 6.61514,4.0708 L 6.75922,4.24498 L 6.88034,4.43584 L 6.97659,4.64037 L 7.04645,4.85535
 L 7.08879,5.07739 L 7.103,5.30299 L 7.08879,5.52859 L 7.04645,5.75064 L 6.97659,5.96562 L 6.88034,6.17015
 L 6.75922,6.36101 L 6.61514,6.53517 L 6.45035,6.68991 L 6.26749,6.82278 L 6.0694,6.93169 L 5.85922,7.01489
 L 5.64027,7.07111 L 5.41602,7.09944 z
M -0.0941772,8.99704 L -0.281067,8.97342 L -0.463516,8.92657 L -0.638657,8.85724 L -0.803726,8.76648 L -0.956131,8.65576
 L -1.09344,8.52681 L -1.21352,8.38167 L -1.31445,8.22263 L -1.39465,8.05219 L -1.45287,7.87303 L -1.48816,7.68799
 L -1.5,7.5 L -1.48816,7.312 L -1.45287,7.12695 L -1.39465,6.9478 L -1.31445,6.77736 L -1.21352,6.61832
 L -1.09344,6.47318 L -0.956131,6.34422 L -0.803726,6.23351 L -0.638657,6.14275 L -0.463516,6.07341 L -0.281067,6.02657
 L -0.0941772,6.00294 L 0.0941772,6.00294 L 0.281067,6.02657 L 0.463516,6.07341 L 0.638657,6.14275 L 0.803726,6.23351
 L 0.956131,6.34422 L 1.09344,6.47318 L 1.21352,6.61832 L 1.31445,6.77736 L 1.39465,6.9478 L 1.45287,7.12695
 L 1.48816,7.312 L 1.5,7.5 L 1.48816,7.68799 L 1.45287,7.87303 L 1.39465,8.05219 L 1.31445,8.22263
 L 1.21352,8.38167 L 1.09344,8.52681 L 0.956131,8.65576 L 0.803726,8.76648 L 0.638657,8.85724 L 0.463516,8.92657
 L 0.281067,8.97342 L 0.0941772,8.99704 z
" stroke="black" fill="lightgray" stroke-width="0.5"/>
</svg>
