solid OpenSCAD_Model
  facet normal 0 0 1
    outer loop
      vertex 2.87713 0.363466 0
      vertex 2.87713 -0.363466 0
      vertex 2.9 0 0
    endloop
  endfacet
  facet normal 0 0 1
    outer loop
      vertex 2.80889 0.7212 0
      vertex 2.87713 -0.363466 0
      vertex 2.87713 0.363466 0
    endloop
  endfacet
  facet normal 0 0 1
    outer loop
      vertex 2.80889 0.7212 0
      vertex 2.80889 -0.7212 0
      vertex 2.87713 -0.363466 0
    endloop
  endfacet
  facet normal 0 0 1
    outer loop
      vertex 2.69635 1.06756 0
      vertex 2.80889 -0.7212 0
      vertex 2.80889 0.7212 0
    endloop
  endfacet
  facet normal 0 0 1
    outer loop
      vertex 2.69635 1.06756 0
      vertex 2.69635 -1.06756 0
      vertex 2.80889 -0.7212 0
    endloop
  endfacet
  facet normal 0 0 1
    outer loop
      vertex 2.54129 1.39709 0
      vertex 2.69635 -1.06756 0
      vertex 2.69635 1.06756 0
    endloop
  endfacet
  facet normal 0 0 1
    outer loop
      vertex 2.54129 1.39709 0
      vertex 2.54129 -1.39709 0
      vertex 2.69635 -1.06756 0
    endloop
  endfacet
  facet normal 0 0 1
    outer loop
      vertex 2.34615 1.70458 0
      vertex 2.54129 -1.39709 0
      vertex 2.54129 1.39709 0
    endloop
  endfacet
  facet normal 0 0 1
    outer loop
      vertex 2.34615 1.70458 0
      vertex 2.34615 -1.70458 0
      vertex 2.54129 -1.39709 0
    endloop
  endfacet
  facet normal 0 0 1
    outer loop
      vertex 2.11401 1.98519 0
      vertex 2.34615 -1.70458 0
      vertex 2.34615 1.70458 0
    endloop
  endfacet
  facet normal 0 0 1
    outer loop
      vertex 2.11401 1.98519 0
      vertex 2.11401 -1.98519 0
      vertex 2.34615 -1.70458 0
    endloop
  endfacet
  facet normal 0 0 1
    outer loop
      vertex 1.84853 2.23449 0
      vertex 2.11401 -1.98519 0
      vertex 2.11401 1.98519 0
    endloop
  endfacet
  facet normal 0 0 1
    outer loop
      vertex 1.84853 2.23449 0
      vertex 1.84853 -2.23449 0
      vertex 2.11401 -1.98519 0
    endloop
  endfacet
  facet normal 0 0 1
    outer loop
      vertex 1.5539 2.44855 0
      vertex 1.84853 -2.23449 0
      vertex 1.84853 2.23449 0
    endloop
  endfacet
  facet normal 0 0 1
    outer loop
      vertex 1.5539 2.44855 0
      vertex 1.5539 -2.44855 0
      vertex 1.84853 -2.23449 0
    endloop
  endfacet
  facet normal 0 0 1
    outer loop
      vertex 1.23476 2.624 0
      vertex 1.5539 -2.44855 0
      vertex 1.5539 2.44855 0
    endloop
  endfacet
  facet normal 0 0 1
    outer loop
      vertex 1.23476 2.624 0
      vertex 1.23476 -2.624 0
      vertex 1.5539 -2.44855 0
    endloop
  endfacet
  facet normal 0 0 1
    outer loop
      vertex 0.896149 2.75806 0
      vertex 1.23476 -2.624 0
      vertex 1.23476 2.624 0
    endloop
  endfacet
  facet normal 0 0 1
    outer loop
      vertex 0.896149 2.75806 0
      vertex 0.896149 -2.75806 0
      vertex 1.23476 -2.624 0
    endloop
  endfacet
  facet normal 0 0 1
    outer loop
      vertex 0.543406 2.84863 0
      vertex 0.896149 -2.75806 0
      vertex 0.896149 2.75806 0
    endloop
  endfacet
  facet normal 0 0 1
    outer loop
      vertex 0.543406 2.84863 0
      vertex 0.543406 -2.84863 0
      vertex 0.896149 -2.75806 0
    endloop
  endfacet
  facet normal 0 0 1
    outer loop
      vertex 0.182092 2.89428 0
      vertex 0.543406 -2.84863 0
      vertex 0.543406 2.84863 0
    endloop
  endfacet
  facet normal 0 0 1
    outer loop
      vertex 0.182092 2.89428 0
      vertex 0.182092 -2.89428 0
      vertex 0.543406 -2.84863 0
    endloop
  endfacet
  facet normal -0 0 1
    outer loop
      vertex -0.182092 2.89428 0
      vertex 0.182092 -2.89428 0
      vertex 0.182092 2.89428 0
    endloop
  endfacet
  facet normal 0 0 1
    outer loop
      vertex -0.182092 2.89428 0
      vertex -0.182092 -2.89428 0
      vertex 0.182092 -2.89428 0
    endloop
  endfacet
  facet normal -0 0 1
    outer loop
      vertex -0.543406 2.84863 0
      vertex -0.182092 -2.89428 0
      vertex -0.182092 2.89428 0
    endloop
  endfacet
  facet normal 0 0 1
    outer loop
      vertex -0.543406 2.84863 0
      vertex -0.543406 -2.84863 0
      vertex -0.182092 -2.89428 0
    endloop
  endfacet
  facet normal -0 0 1
    outer loop
      vertex -0.896149 2.75806 0
      vertex -0.543406 -2.84863 0
      vertex -0.543406 2.84863 0
    endloop
  endfacet
  facet normal 0 0 1
    outer loop
      vertex -0.896149 2.75806 0
      vertex -0.896149 -2.75806 0
      vertex -0.543406 -2.84863 0
    endloop
  endfacet
  facet normal -0 0 1
    outer loop
      vertex -1.23476 2.624 0
      vertex -0.896149 -2.75806 0
      vertex -0.896149 2.75806 0
    endloop
  endfacet
  facet normal 0 0 1
    outer loop
      vertex -1.23476 2.624 0
      vertex -1.23476 -2.624 0
      vertex -0.896149 -2.75806 0
    endloop
  endfacet
  facet normal -0 0 1
    outer loop
      vertex -1.5539 2.44855 0
      vertex -1.23476 -2.624 0
      vertex -1.23476 2.624 0
    endloop
  endfacet
  facet normal 0 0 1
    outer loop
      vertex -1.5539 2.44855 0
      vertex -1.5539 -2.44855 0
      vertex -1.23476 -2.624 0
    endloop
  endfacet
  facet normal -0 0 1
    outer loop
      vertex -1.84853 2.23449 0
      vertex -1.5539 -2.44855 0
      vertex -1.5539 2.44855 0
    endloop
  endfacet
  facet normal 0 0 1
    outer loop
      vertex -1.84853 2.23449 0
      vertex -1.84853 -2.23449 0
      vertex -1.5539 -2.44855 0
    endloop
  endfacet
  facet normal -0 0 1
    outer loop
      vertex -2.11401 1.98519 0
      vertex -1.84853 -2.23449 0
      vertex -1.84853 2.23449 0
    endloop
  endfacet
  facet normal 0 0 1
    outer loop
      vertex -2.11401 1.98519 0
      vertex -2.11401 -1.98519 0
      vertex -1.84853 -2.23449 0
    endloop
  endfacet
  facet normal -0 0 1
    outer loop
      vertex -2.34615 1.70458 0
      vertex -2.11401 -1.98519 0
      vertex -2.11401 1.98519 0
    endloop
  endfacet
  facet normal 0 0 1
    outer loop
      vertex -2.34615 1.70458 0
      vertex -2.34615 -1.70458 0
      vertex -2.11401 -1.98519 0
    endloop
  endfacet
  facet normal -0 0 1
    outer loop
      vertex -2.54129 1.39709 0
      vertex -2.34615 -1.70458 0
      vertex -2.34615 1.70458 0
    endloop
  endfacet
  facet normal 0 0 1
    outer loop
      vertex -2.54129 1.39709 0
      vertex -2.54129 -1.39709 0
      vertex -2.34615 -1.70458 0
    endloop
  endfacet
  facet normal -0 0 1
    outer loop
      vertex -2.69635 1.06756 0
      vertex -2.54129 -1.39709 0
      vertex -2.54129 1.39709 0
    endloop
  endfacet
  facet normal 0 0 1
    outer loop
      vertex -2.69635 1.06756 0
      vertex -2.69635 -1.06756 0
      vertex -2.54129 -1.39709 0
    endloop
  endfacet
  facet normal -0 0 1
    outer loop
      vertex -2.80889 0.7212 0
      vertex -2.69635 -1.06756 0
      vertex -2.69635 1.06756 0
    endloop
  endfacet
  facet normal 0 0 1
    outer loop
      vertex -2.80889 0.7212 0
      vertex -2.80889 -0.7212 0
      vertex -2.69635 -1.06756 0
    endloop
  endfacet
  facet normal -0 0 1
    outer loop
      vertex -2.87713 0.363466 0
      vertex -2.80889 -0.7212 0
      vertex -2.80889 0.7212 0
    endloop
  endfacet
  facet normal 0 0 1
    outer loop
      vertex -2.87713 0.363466 0
      vertex -2.87713 -0.363466 0
      vertex -2.80889 -0.7212 0
    endloop
  endfacet
  facet normal 0 -0 1
    outer loop
      vertex -2.87713 -0.363466 0
      vertex -2.87713 0.363466 0
      vertex -2.9 0 0
    endloop
  endfacet
  facet normal 0 0 -1
    outer loop
      vertex 1.78581 -0.225599 -18
      vertex 1.78581 0.225599 -18
      vertex 1.8 0 -18
    endloop
  endfacet
  facet normal 0 0 -1
    outer loop
      vertex 1.74345 -0.447641 -18
      vertex 1.78581 0.225599 -18
      vertex 1.78581 -0.225599 -18
    endloop
  endfacet
  facet normal 0 0 -1
    outer loop
      vertex 1.74345 -0.447641 -18
      vertex 1.74345 0.447641 -18
      vertex 1.78581 0.225599 -18
    endloop
  endfacet
  facet normal 0 0 -1
    outer loop
      vertex 1.6736 -0.662623 -18
      vertex 1.74345 0.447641 -18
      vertex 1.74345 -0.447641 -18
    endloop
  endfacet
  facet normal 0 0 -1
    outer loop
      vertex 1.6736 -0.662623 -18
      vertex 1.6736 0.662623 -18
      vertex 1.74345 0.447641 -18
    endloop
  endfacet
  facet normal 0 0 -1
    outer loop
      vertex 1.57735 -0.867156 -18
      vertex 1.6736 0.662623 -18
      vertex 1.6736 -0.662623 -18
    endloop
  endfacet
  facet normal 0 0 -1
    outer loop
      vertex 1.57735 -0.867156 -18
      vertex 1.57735 0.867156 -18
      vertex 1.6736 0.662623 -18
    endloop
  endfacet
  facet normal 0 0 -1
    outer loop
      vertex 1.45623 -1.05801 -18
      vertex 1.57735 0.867156 -18
      vertex 1.57735 -0.867156 -18
    endloop
  endfacet
  facet normal 0 0 -1
    outer loop
      vertex 1.45623 -1.05801 -18
      vertex 1.45623 1.05801 -18
      vertex 1.57735 0.867156 -18
    endloop
  endfacet
  facet normal 0 0 -1
    outer loop
      vertex 1.31214 -1.23218 -18
      vertex 1.45623 1.05801 -18
      vertex 1.45623 -1.05801 -18
    endloop
  endfacet
  facet normal 0 0 -1
    outer loop
      vertex 1.31214 -1.23218 -18
      vertex 1.31214 1.23218 -18
      vertex 1.45623 1.05801 -18
    endloop
  endfacet
  facet normal 0 0 -1
    outer loop
      vertex 1.14736 -1.38692 -18
      vertex 1.31214 1.23218 -18
      vertex 1.31214 -1.23218 -18
    endloop
  endfacet
  facet normal 0 0 -1
    outer loop
      vertex 1.14736 -1.38692 -18
      vertex 1.14736 1.38692 -18
      vertex 1.31214 1.23218 -18
    endloop
  endfacet
  facet normal 0 0 -1
    outer loop
      vertex 0.964488 -1.51979 -18
      vertex 1.14736 1.38692 -18
      vertex 1.14736 -1.38692 -18
    endloop
  endfacet
  facet normal 0 0 -1
    outer loop
      vertex 0.964488 -1.51979 -18
      vertex 0.964488 1.51979 -18
      vertex 1.14736 1.38692 -18
    endloop
  endfacet
  facet normal 0 0 -1
    outer loop
      vertex 0.766402 -1.62869 -18
      vertex 0.964488 1.51979 -18
      vertex 0.964488 -1.51979 -18
    endloop
  endfacet
  facet normal 0 0 -1
    outer loop
      vertex 0.766402 -1.62869 -18
      vertex 0.766402 1.62869 -18
      vertex 0.964488 1.51979 -18
    endloop
  endfacet
  facet normal 0 0 -1
    outer loop
      vertex 0.556231 -1.7119 -18
      vertex 0.766402 1.62869 -18
      vertex 0.766402 -1.62869 -18
    endloop
  endfacet
  facet normal 0 0 -1
    outer loop
      vertex 0.556231 -1.7119 -18
      vertex 0.556231 1.7119 -18
      vertex 0.766402 1.62869 -18
    endloop
  endfacet
  facet normal 0 0 -1
    outer loop
      vertex 0.337286 -1.76812 -18
      vertex 0.556231 1.7119 -18
      vertex 0.556231 -1.7119 -18
    endloop
  endfacet
  facet normal 0 0 -1
    outer loop
      vertex 0.337286 -1.76812 -18
      vertex 0.337286 1.76812 -18
      vertex 0.556231 1.7119 -18
    endloop
  endfacet
  facet normal 0 0 -1
    outer loop
      vertex 0.113023 -1.79645 -18
      vertex 0.337286 1.76812 -18
      vertex 0.337286 -1.76812 -18
    endloop
  endfacet
  facet normal 0 0 -1
    outer loop
      vertex 0.113023 -1.79645 -18
      vertex 0.113023 1.79645 -18
      vertex 0.337286 1.76812 -18
    endloop
  endfacet
  facet normal 0 0 -1
    outer loop
      vertex -0.113023 -1.79645 -18
      vertex 0.113023 1.79645 -18
      vertex 0.113023 -1.79645 -18
    endloop
  endfacet
  facet normal 0 0 -1
    outer loop
      vertex -0.113023 -1.79645 -18
      vertex -0.113023 1.79645 -18
      vertex 0.113023 1.79645 -18
    endloop
  endfacet
  facet normal 0 0 -1
    outer loop
      vertex -0.337286 -1.76812 -18
      vertex -0.113023 1.79645 -18
      vertex -0.113023 -1.79645 -18
    endloop
  endfacet
  facet normal 0 0 -1
    outer loop
      vertex -0.337286 -1.76812 -18
      vertex -0.337286 1.76812 -18
      vertex -0.113023 1.79645 -18
    endloop
  endfacet
  facet normal 0 0 -1
    outer loop
      vertex -0.556231 -1.7119 -18
      vertex -0.337286 1.76812 -18
      vertex -0.337286 -1.76812 -18
    endloop
  endfacet
  facet normal 0 0 -1
    outer loop
      vertex -0.556231 -1.7119 -18
      vertex -0.556231 1.7119 -18
      vertex -0.337286 1.76812 -18
    endloop
  endfacet
  facet normal 0 0 -1
    outer loop
      vertex -0.766402 -1.62869 -18
      vertex -0.556231 1.7119 -18
      vertex -0.556231 -1.7119 -18
    endloop
  endfacet
  facet normal 0 0 -1
    outer loop
      vertex -0.766402 -1.62869 -18
      vertex -0.766402 1.62869 -18
      vertex -0.556231 1.7119 -18
    endloop
  endfacet
  facet normal 0 0 -1
    outer loop
      vertex -0.964488 -1.51979 -18
      vertex -0.766402 1.62869 -18
      vertex -0.766402 -1.62869 -18
    endloop
  endfacet
  facet normal 0 0 -1
    outer loop
      vertex -0.964488 -1.51979 -18
      vertex -0.964488 1.51979 -18
      vertex -0.766402 1.62869 -18
    endloop
  endfacet
  facet normal 0 0 -1
    outer loop
      vertex -1.14736 -1.38692 -18
      vertex -0.964488 1.51979 -18
      vertex -0.964488 -1.51979 -18
    endloop
  endfacet
  facet normal 0 0 -1
    outer loop
      vertex -1.14736 -1.38692 -18
      vertex -1.14736 1.38692 -18
      vertex -0.964488 1.51979 -18
    endloop
  endfacet
  facet normal 0 0 -1
    outer loop
      vertex -1.31214 -1.23218 -18
      vertex -1.14736 1.38692 -18
      vertex -1.14736 -1.38692 -18
    endloop
  endfacet
  facet normal 0 0 -1
    outer loop
      vertex -1.31214 -1.23218 -18
      vertex -1.31214 1.23218 -18
      vertex -1.14736 1.38692 -18
    endloop
  endfacet
  facet normal 0 0 -1
    outer loop
      vertex -1.45623 -1.05801 -18
      vertex -1.31214 1.23218 -18
      vertex -1.31214 -1.23218 -18
    endloop
  endfacet
  facet normal 0 0 -1
    outer loop
      vertex -1.45623 -1.05801 -18
      vertex -1.45623 1.05801 -18
      vertex -1.31214 1.23218 -18
    endloop
  endfacet
  facet normal 0 0 -1
    outer loop
      vertex -1.57735 -0.867156 -18
      vertex -1.45623 1.05801 -18
      vertex -1.45623 -1.05801 -18
    endloop
  endfacet
  facet normal 0 0 -1
    outer loop
      vertex -1.57735 -0.867156 -18
      vertex -1.57735 0.867156 -18
      vertex -1.45623 1.05801 -18
    endloop
  endfacet
  facet normal 0 0 -1
    outer loop
      vertex -1.6736 -0.662623 -18
      vertex -1.57735 0.867156 -18
      vertex -1.57735 -0.867156 -18
    endloop
  endfacet
  facet normal 0 0 -1
    outer loop
      vertex -1.6736 -0.662623 -18
      vertex -1.6736 0.662623 -18
      vertex -1.57735 0.867156 -18
    endloop
  endfacet
  facet normal 0 0 -1
    outer loop
      vertex -1.74345 -0.447641 -18
      vertex -1.6736 0.662623 -18
      vertex -1.6736 -0.662623 -18
    endloop
  endfacet
  facet normal 0 0 -1
    outer loop
      vertex -1.74345 -0.447641 -18
      vertex -1.74345 0.447641 -18
      vertex -1.6736 0.662623 -18
    endloop
  endfacet
  facet normal 0 0 -1
    outer loop
      vertex -1.78581 -0.225599 -18
      vertex -1.74345 0.447641 -18
      vertex -1.74345 -0.447641 -18
    endloop
  endfacet
  facet normal 0 0 -1
    outer loop
      vertex -1.78581 -0.225599 -18
      vertex -1.78581 0.225599 -18
      vertex -1.74345 0.447641 -18
    endloop
  endfacet
  facet normal 0 -0 -1
    outer loop
      vertex -1.78581 0.225599 -18
      vertex -1.78581 -0.225599 -18
      vertex -1.8 0 -18
    endloop
  endfacet
  facet normal 0.998028 0.062768 1.72573e-20
    outer loop
      vertex 1.7951 0.0778854 -1.33572
      vertex 1.78581 0.225599 -18
      vertex 1.78581 0.225599 -1.33571
    endloop
  endfacet
  facet normal 0.998027 0.0627888 1.85528e-07
    outer loop
      vertex 1.8 0 -1.33571
      vertex 1.78581 0.225599 -18
      vertex 1.7951 0.0778854 -1.33572
    endloop
  endfacet
  facet normal 0.998028 0.0627752 2.92323e-20
    outer loop
      vertex 1.78581 0.225599 -18
      vertex 1.8 0 -1.33571
      vertex 1.8 0 -18
    endloop
  endfacet
  facet normal -0.998028 0.062768 0
    outer loop
      vertex -1.78581 0.225599 -18
      vertex -1.7951 0.0778854 -1.33572
      vertex -1.78581 0.225599 -1.33571
    endloop
  endfacet
  facet normal -0.998028 0.0627752 6.40515e-08
    outer loop
      vertex -1.8 0 -18
      vertex -1.7951 0.0778854 -1.33572
      vertex -1.78581 0.225599 -18
    endloop
  endfacet
  facet normal -0.998027 0.0627888 4.43717e-21
    outer loop
      vertex -1.7951 0.0778854 -1.33572
      vertex -1.8 0 -18
      vertex -1.8 0 -1.33571
    endloop
  endfacet
  facet normal 0 1 0
    outer loop
      vertex 0.113022 1.79645 -1.33571
      vertex 0.113023 1.79645 -18
      vertex -0.113022 1.79645 -1.33571
    endloop
  endfacet
  facet normal 0 1 -0
    outer loop
      vertex 0.113023 1.79645 -18
      vertex 0.113022 1.79645 -1.33571
      vertex 0.113023 1.79645 -1.33571
    endloop
  endfacet
  facet normal 0 1 0
    outer loop
      vertex -0.113023 1.79645 -18
      vertex -0.113022 1.79645 -1.33571
      vertex 0.113023 1.79645 -18
    endloop
  endfacet
  facet normal 0 1 0
    outer loop
      vertex -0.113022 1.79645 -1.33571
      vertex -0.113023 1.79645 -18
      vertex -0.113023 1.79645 -1.33571
    endloop
  endfacet
  facet normal 0 -1 -0
    outer loop
      vertex -0.113022 -1.79645 -1.33571
      vertex -0.113023 -1.79645 -18
      vertex 0.113022 -1.79645 -1.33571
    endloop
  endfacet
  facet normal 0 -1 0
    outer loop
      vertex -0.113023 -1.79645 -18
      vertex -0.113022 -1.79645 -1.33571
      vertex -0.113023 -1.79645 -1.33571
    endloop
  endfacet
  facet normal 0 -1 0
    outer loop
      vertex 0.113023 -1.79645 -18
      vertex 0.113022 -1.79645 -1.33571
      vertex -0.113023 -1.79645 -18
    endloop
  endfacet
  facet normal 0 -1 0
    outer loop
      vertex 0.113022 -1.79645 -1.33571
      vertex 0.113023 -1.79645 -18
      vertex 0.113023 -1.79645 -1.33571
    endloop
  endfacet
  facet normal 0.684563 0.728953 -1.03028e-20
    outer loop
      vertex 1.20425 1.3335 -1.33571
      vertex 1.31214 1.23218 -1.33571
      vertex 1.31214 1.23218 -18
    endloop
  endfacet
  facet normal 0.684525 0.72899 -4.69829e-07
    outer loop
      vertex 1.31214 1.23218 -18
      vertex 1.14736 1.38692 -1.33571
      vertex 1.20425 1.3335 -1.33571
    endloop
  endfacet
  facet normal 0.68455 0.728966 0
    outer loop
      vertex 1.14736 1.38692 -1.33571
      vertex 1.31214 1.23218 -18
      vertex 1.14736 1.38692 -18
    endloop
  endfacet
  facet normal -0.684525 0.72899 9.2814e-21
    outer loop
      vertex -1.20425 1.3335 -1.33571
      vertex -1.14736 1.38692 -1.33571
      vertex -1.14736 1.38692 -18
    endloop
  endfacet
  facet normal -0.684563 0.728953 -2.47727e-07
    outer loop
      vertex -1.14736 1.38692 -18
      vertex -1.31214 1.23218 -1.33571
      vertex -1.20425 1.3335 -1.33571
    endloop
  endfacet
  facet normal -0.68455 0.728966 0
    outer loop
      vertex -1.31214 1.23218 -1.33571
      vertex -1.14736 1.38692 -18
      vertex -1.31214 1.23218 -18
    endloop
  endfacet
  facet normal -0.368145 0.929768 0
    outer loop
      vertex -0.556231 1.7119 -18
      vertex -0.62879 1.68317 -1.33571
      vertex -0.556231 1.7119 -1.33571
    endloop
  endfacet
  facet normal -0.368099 0.929787 2.3453e-07
    outer loop
      vertex -0.556231 1.7119 -18
      vertex -0.766402 1.62869 -1.33571
      vertex -0.62879 1.68317 -1.33571
    endloop
  endfacet
  facet normal -0.368115 0.92978 0
    outer loop
      vertex -0.766402 1.62869 -18
      vertex -0.766402 1.62869 -1.33571
      vertex -0.556231 1.7119 -18
    endloop
  endfacet
  facet normal 0.904815 0.425806 -7.99496e-20
    outer loop
      vertex 1.61058 0.796544 -1.33571
      vertex 1.57735 0.867156 -18
      vertex 1.57735 0.867156 -1.33571
    endloop
  endfacet
  facet normal 0.904822 0.425791 -7.83966e-08
    outer loop
      vertex 1.6736 0.662624 -1.33571
      vertex 1.57735 0.867156 -18
      vertex 1.61058 0.796544 -1.33571
    endloop
  endfacet
  facet normal 1 0 0
    outer loop
      vertex 1.6736 0.662623 -18
      vertex 1.6736 0.662624 -1.33571
      vertex 1.6736 0.662623 -1.33571
    endloop
  endfacet
  facet normal 0.90482 0.425794 -2.55513e-08
    outer loop
      vertex 1.6736 0.662624 -1.33571
      vertex 1.6736 0.662623 -18
      vertex 1.57735 0.867156 -18
    endloop
  endfacet
  facet normal 0.982295 0.187343 -5.69917e-22
    outer loop
      vertex 1.75807 0.370984 -1.33571
      vertex 1.74345 0.447641 -18
      vertex 1.74345 0.447641 -1.33571
    endloop
  endfacet
  facet normal 0.982279 0.187424 3.85618e-07
    outer loop
      vertex 1.78581 0.2256 -1.33571
      vertex 1.74345 0.447641 -18
      vertex 1.75807 0.370984 -1.33571
    endloop
  endfacet
  facet normal 1 0 0
    outer loop
      vertex 1.78581 0.225599 -18
      vertex 1.78581 0.2256 -1.33571
      vertex 1.78581 0.225599 -1.33571
    endloop
  endfacet
  facet normal 0.982285 0.187395 -1.12453e-08
    outer loop
      vertex 1.78581 0.2256 -1.33571
      vertex 1.78581 0.225599 -18
      vertex 1.74345 0.447641 -18
    endloop
  endfacet
  facet normal 0.368099 0.929787 -0
    outer loop
      vertex 0.766402 1.62869 -18
      vertex 0.62879 1.68317 -1.33571
      vertex 0.766402 1.62869 -1.33571
    endloop
  endfacet
  facet normal 0.368145 0.929768 4.4479e-07
    outer loop
      vertex 0.766402 1.62869 -18
      vertex 0.556231 1.7119 -1.33571
      vertex 0.62879 1.68317 -1.33571
    endloop
  endfacet
  facet normal 0.368115 0.92978 0
    outer loop
      vertex 0.556231 1.7119 -1.33571
      vertex 0.766402 1.62869 -18
      vertex 0.556231 1.7119 -18
    endloop
  endfacet
  facet normal 0 1 -0
    outer loop
      vertex 0.556231 1.7119 -18
      vertex 0.55623 1.7119 -1.33571
      vertex 0.556231 1.7119 -1.33571
    endloop
  endfacet
  facet normal 0.248705 0.968579 1.49244e-08
    outer loop
      vertex 0.556231 1.7119 -18
      vertex 0.412874 1.74871 -1.33571
      vertex 0.55623 1.7119 -1.33571
    endloop
  endfacet
  facet normal 0.248718 0.968576 1.26945e-07
    outer loop
      vertex 0.556231 1.7119 -18
      vertex 0.337286 1.76812 -1.33571
      vertex 0.412874 1.74871 -1.33571
    endloop
  endfacet
  facet normal 0.248708 0.968578 -0
    outer loop
      vertex 0.337286 1.76812 -18
      vertex 0.337286 1.76812 -1.33571
      vertex 0.556231 1.7119 -18
    endloop
  endfacet
  facet normal 0.587814 0.808996 0
    outer loop
      vertex 1.14736 1.38692 -1.33571
      vertex 1.14736 1.38692 -18
      vertex 1.08423 1.43279 -1.33571
    endloop
  endfacet
  facet normal 0.587796 0.809009 -1.03605e-07
    outer loop
      vertex 1.14736 1.38692 -18
      vertex 0.964488 1.51979 -1.33571
      vertex 1.08423 1.43279 -1.33571
    endloop
  endfacet
  facet normal 0.587802 0.809005 0
    outer loop
      vertex 0.964488 1.51979 -1.33571
      vertex 1.14736 1.38692 -18
      vertex 0.964488 1.51979 -18
    endloop
  endfacet
  facet normal -0.904815 0.425806 0
    outer loop
      vertex -1.57735 0.867156 -18
      vertex -1.61058 0.796544 -1.33571
      vertex -1.57735 0.867156 -1.33571
    endloop
  endfacet
  facet normal -0.904822 0.425791 -7.83966e-08
    outer loop
      vertex -1.57735 0.867156 -18
      vertex -1.6736 0.662624 -1.33571
      vertex -1.61058 0.796544 -1.33571
    endloop
  endfacet
  facet normal -0.90482 0.425794 -2.55513e-08
    outer loop
      vertex -1.6736 0.662623 -18
      vertex -1.6736 0.662624 -1.33571
      vertex -1.57735 0.867156 -18
    endloop
  endfacet
  facet normal -1 -0 0
    outer loop
      vertex -1.6736 0.662624 -1.33571
      vertex -1.6736 0.662623 -18
      vertex -1.6736 0.662623 -1.33571
    endloop
  endfacet
  facet normal -0.844309 0.535856 0
    outer loop
      vertex -1.45623 1.05801 -18
      vertex -1.53554 0.933047 -1.33571
      vertex -1.45623 1.05801 -1.33571
    endloop
  endfacet
  facet normal -0.844361 0.535775 -8.55245e-07
    outer loop
      vertex -1.45623 1.05801 -18
      vertex -1.57735 0.867156 -1.33571
      vertex -1.53554 0.933047 -1.33571
    endloop
  endfacet
  facet normal -0.844327 0.535828 0
    outer loop
      vertex -1.57735 0.867156 -18
      vertex -1.57735 0.867156 -1.33571
      vertex -1.45623 1.05801 -18
    endloop
  endfacet
  facet normal -0.951068 0.30898 0
    outer loop
      vertex -1.6736 0.662623 -18
      vertex -1.71933 0.521862 -1.33571
      vertex -1.6736 0.662623 -1.33571
    endloop
  endfacet
  facet normal -0.951041 0.309065 7.91219e-07
    outer loop
      vertex -1.6736 0.662623 -18
      vertex -1.74345 0.447641 -1.33571
      vertex -1.71933 0.521862 -1.33571
    endloop
  endfacet
  facet normal -0.951059 0.309009 0
    outer loop
      vertex -1.74345 0.447641 -18
      vertex -1.74345 0.447641 -1.33571
      vertex -1.6736 0.662623 -18
    endloop
  endfacet
  facet normal -0.587796 0.809009 0
    outer loop
      vertex -0.964488 1.51979 -1.33571
      vertex -0.964488 1.51979 -18
      vertex -1.08423 1.43279 -1.33571
    endloop
  endfacet
  facet normal -0.587814 0.808996 -1.96509e-07
    outer loop
      vertex -0.964488 1.51979 -18
      vertex -1.14736 1.38692 -1.33571
      vertex -1.08423 1.43279 -1.33571
    endloop
  endfacet
  facet normal -0.587802 0.809005 0
    outer loop
      vertex -1.14736 1.38692 -1.33571
      vertex -0.964488 1.51979 -18
      vertex -1.14736 1.38692 -18
    endloop
  endfacet
  facet normal -0.248718 0.968576 0
    outer loop
      vertex -0.337286 1.76812 -18
      vertex -0.412874 1.74871 -1.33571
      vertex -0.337286 1.76812 -1.33571
    endloop
  endfacet
  facet normal -0.248705 0.968579 5.90653e-08
    outer loop
      vertex -0.337286 1.76812 -18
      vertex -0.55623 1.7119 -1.33571
      vertex -0.412874 1.74871 -1.33571
    endloop
  endfacet
  facet normal -0.248708 0.968578 1.49246e-08
    outer loop
      vertex -0.556231 1.7119 -18
      vertex -0.55623 1.7119 -1.33571
      vertex -0.337286 1.76812 -18
    endloop
  endfacet
  facet normal 0 1 0
    outer loop
      vertex -0.55623 1.7119 -1.33571
      vertex -0.556231 1.7119 -18
      vertex -0.556231 1.7119 -1.33571
    endloop
  endfacet
  facet normal 0.125323 -0.992116 0
    outer loop
      vertex 0.113023 -1.79645 -18
      vertex 0.190446 -1.78667 -1.33571
      vertex 0.113023 -1.79645 -1.33571
    endloop
  endfacet
  facet normal 0.125332 -0.992115 -4.11323e-08
    outer loop
      vertex 0.190446 -1.78667 -1.33571
      vertex 0.113023 -1.79645 -18
      vertex 0.337286 -1.76812 -1.33571
    endloop
  endfacet
  facet normal 0.125329 -0.992115 0
    outer loop
      vertex 0.337286 -1.76812 -1.33571
      vertex 0.113023 -1.79645 -18
      vertex 0.337286 -1.76812 -18
    endloop
  endfacet
  facet normal 0.951068 0.30898 -9.03231e-20
    outer loop
      vertex 1.71933 0.521862 -1.33571
      vertex 1.6736 0.662623 -18
      vertex 1.6736 0.662623 -1.33571
    endloop
  endfacet
  facet normal 0.951041 0.309065 7.91219e-07
    outer loop
      vertex 1.74345 0.447641 -1.33571
      vertex 1.6736 0.662623 -18
      vertex 1.71933 0.521862 -1.33571
    endloop
  endfacet
  facet normal 0.951059 0.309009 0
    outer loop
      vertex 1.74345 0.447641 -1.33571
      vertex 1.74345 0.447641 -18
      vertex 1.6736 0.662623 -18
    endloop
  endfacet
  facet normal 0.770487 0.637456 1.07833e-19
    outer loop
      vertex 1.40649 1.11814 -1.33571
      vertex 1.31214 1.23218 -18
      vertex 1.31214 1.23218 -1.33571
    endloop
  endfacet
  facet normal 0.770538 0.637395 -7.0431e-07
    outer loop
      vertex 1.45623 1.05801 -1.33571
      vertex 1.31214 1.23218 -18
      vertex 1.40649 1.11814 -1.33571
    endloop
  endfacet
  facet normal 0.770504 0.637435 0
    outer loop
      vertex 1.45623 1.05801 -1.33571
      vertex 1.45623 1.05801 -18
      vertex 1.31214 1.23218 -18
    endloop
  endfacet
  facet normal 0.844309 0.535856 1.4939e-19
    outer loop
      vertex 1.53554 0.933047 -1.33571
      vertex 1.45623 1.05801 -18
      vertex 1.45623 1.05801 -1.33571
    endloop
  endfacet
  facet normal 0.844361 0.535775 -8.55245e-07
    outer loop
      vertex 1.57735 0.867156 -1.33571
      vertex 1.45623 1.05801 -18
      vertex 1.53554 0.933047 -1.33571
    endloop
  endfacet
  facet normal 0.844327 0.535828 0
    outer loop
      vertex 1.57735 0.867156 -1.33571
      vertex 1.57735 0.867156 -18
      vertex 1.45623 1.05801 -18
    endloop
  endfacet
  facet normal 0.125332 0.992115 -0
    outer loop
      vertex 0.337286 1.76812 -18
      vertex 0.190446 1.78667 -1.33571
      vertex 0.337286 1.76812 -1.33571
    endloop
  endfacet
  facet normal 0.125323 0.992116 -7.80113e-08
    outer loop
      vertex 0.190446 1.78667 -1.33571
      vertex 0.337286 1.76812 -18
      vertex 0.113023 1.79645 -1.33571
    endloop
  endfacet
  facet normal 0.125329 0.992115 0
    outer loop
      vertex 0.113023 1.79645 -1.33571
      vertex 0.337286 1.76812 -18
      vertex 0.113023 1.79645 -18
    endloop
  endfacet
  facet normal 0.481792 0.876285 -0
    outer loop
      vertex 0.964488 1.51979 -18
      vertex 0.896101 1.55739 -1.33571
      vertex 0.964488 1.51979 -1.33571
    endloop
  endfacet
  facet normal 0.48174 0.876314 -2.79476e-07
    outer loop
      vertex 0.896101 1.55739 -1.33571
      vertex 0.964488 1.51979 -18
      vertex 0.766402 1.62869 -1.33571
    endloop
  endfacet
  facet normal 0.481758 0.876304 0
    outer loop
      vertex 0.766402 1.62869 -1.33571
      vertex 0.964488 1.51979 -18
      vertex 0.766402 1.62869 -18
    endloop
  endfacet
  facet normal -0.770487 0.637456 0
    outer loop
      vertex -1.31214 1.23218 -18
      vertex -1.40649 1.11814 -1.33571
      vertex -1.31214 1.23218 -1.33571
    endloop
  endfacet
  facet normal -0.770538 0.637395 -7.0431e-07
    outer loop
      vertex -1.31214 1.23218 -18
      vertex -1.45623 1.05801 -1.33571
      vertex -1.40649 1.11814 -1.33571
    endloop
  endfacet
  facet normal -0.770504 0.637435 0
    outer loop
      vertex -1.45623 1.05801 -18
      vertex -1.45623 1.05801 -1.33571
      vertex -1.31214 1.23218 -18
    endloop
  endfacet
  facet normal -0.982295 0.187343 0
    outer loop
      vertex -1.74345 0.447641 -18
      vertex -1.75807 0.370984 -1.33571
      vertex -1.74345 0.447641 -1.33571
    endloop
  endfacet
  facet normal -0.982279 0.187424 3.85618e-07
    outer loop
      vertex -1.74345 0.447641 -18
      vertex -1.78581 0.2256 -1.33571
      vertex -1.75807 0.370984 -1.33571
    endloop
  endfacet
  facet normal -0.982285 0.187395 -1.12453e-08
    outer loop
      vertex -1.78581 0.225599 -18
      vertex -1.78581 0.2256 -1.33571
      vertex -1.74345 0.447641 -18
    endloop
  endfacet
  facet normal -1 -0 0
    outer loop
      vertex -1.78581 0.2256 -1.33571
      vertex -1.78581 0.225599 -18
      vertex -1.78581 0.225599 -1.33571
    endloop
  endfacet
  facet normal -0.48174 0.876314 0
    outer loop
      vertex -0.766402 1.62869 -18
      vertex -0.896101 1.55739 -1.33571
      vertex -0.766402 1.62869 -1.33571
    endloop
  endfacet
  facet normal -0.481792 0.876285 -5.30022e-07
    outer loop
      vertex -0.896101 1.55739 -1.33571
      vertex -0.766402 1.62869 -18
      vertex -0.964488 1.51979 -1.33571
    endloop
  endfacet
  facet normal -0.481758 0.876304 0
    outer loop
      vertex -0.964488 1.51979 -1.33571
      vertex -0.766402 1.62869 -18
      vertex -0.964488 1.51979 -18
    endloop
  endfacet
  facet normal -0.125323 0.992116 0
    outer loop
      vertex -0.113023 1.79645 -18
      vertex -0.190446 1.78667 -1.33571
      vertex -0.113023 1.79645 -1.33571
    endloop
  endfacet
  facet normal -0.125332 0.992115 -4.11323e-08
    outer loop
      vertex -0.190446 1.78667 -1.33571
      vertex -0.113023 1.79645 -18
      vertex -0.337286 1.76812 -1.33571
    endloop
  endfacet
  facet normal -0.125329 0.992115 0
    outer loop
      vertex -0.337286 1.76812 -1.33571
      vertex -0.113023 1.79645 -18
      vertex -0.337286 1.76812 -18
    endloop
  endfacet
  facet normal 0.998027 -0.0627888 4.43717e-21
    outer loop
      vertex 1.7951 -0.0778854 -1.33572
      vertex 1.8 0 -18
      vertex 1.8 0 -1.33571
    endloop
  endfacet
  facet normal 0.998028 -0.062768 9.78242e-08
    outer loop
      vertex 1.78581 -0.225599 -1.33571
      vertex 1.8 0 -18
      vertex 1.7951 -0.0778854 -1.33572
    endloop
  endfacet
  facet normal 0.998028 -0.0627752 -2.92323e-20
    outer loop
      vertex 1.8 0 -18
      vertex 1.78581 -0.225599 -1.33571
      vertex 1.78581 -0.225599 -18
    endloop
  endfacet
  facet normal 0.684525 -0.72899 9.2814e-21
    outer loop
      vertex 1.20425 -1.3335 -1.33571
      vertex 1.14736 -1.38692 -1.33571
      vertex 1.14736 -1.38692 -18
    endloop
  endfacet
  facet normal 0.684563 -0.728953 -2.47727e-07
    outer loop
      vertex 1.14736 -1.38692 -18
      vertex 1.31214 -1.23218 -1.33571
      vertex 1.20425 -1.3335 -1.33571
    endloop
  endfacet
  facet normal 0.68455 -0.728966 0
    outer loop
      vertex 1.31214 -1.23218 -1.33571
      vertex 1.14736 -1.38692 -18
      vertex 1.31214 -1.23218 -18
    endloop
  endfacet
  facet normal 1 -0 0
    outer loop
      vertex 1.78581 -0.2256 -1.33571
      vertex 1.78581 -0.225599 -18
      vertex 1.78581 -0.225599 -1.33571
    endloop
  endfacet
  facet normal 0.982279 -0.187424 -1.1247e-08
    outer loop
      vertex 1.75807 -0.370984 -1.33571
      vertex 1.78581 -0.225599 -18
      vertex 1.78581 -0.2256 -1.33571
    endloop
  endfacet
  facet normal 0.982295 -0.187343 7.20115e-07
    outer loop
      vertex 1.74345 -0.447641 -1.33571
      vertex 1.78581 -0.225599 -18
      vertex 1.75807 -0.370984 -1.33571
    endloop
  endfacet
  facet normal 0.982285 -0.187395 1.34467e-19
    outer loop
      vertex 1.78581 -0.225599 -18
      vertex 1.74345 -0.447641 -1.33571
      vertex 1.74345 -0.447641 -18
    endloop
  endfacet
  facet normal 0.368145 -0.929768 0
    outer loop
      vertex 0.556231 -1.7119 -18
      vertex 0.62879 -1.68317 -1.33571
      vertex 0.556231 -1.7119 -1.33571
    endloop
  endfacet
  facet normal 0.368099 -0.929787 2.3453e-07
    outer loop
      vertex 0.556231 -1.7119 -18
      vertex 0.766402 -1.62869 -1.33571
      vertex 0.62879 -1.68317 -1.33571
    endloop
  endfacet
  facet normal 0.368115 -0.92978 0
    outer loop
      vertex 0.766402 -1.62869 -18
      vertex 0.766402 -1.62869 -1.33571
      vertex 0.556231 -1.7119 -18
    endloop
  endfacet
  facet normal 0.48174 -0.876314 0
    outer loop
      vertex 0.766402 -1.62869 -18
      vertex 0.896101 -1.55739 -1.33571
      vertex 0.766402 -1.62869 -1.33571
    endloop
  endfacet
  facet normal 0.481792 -0.876285 -5.30022e-07
    outer loop
      vertex 0.896101 -1.55739 -1.33571
      vertex 0.766402 -1.62869 -18
      vertex 0.964488 -1.51979 -1.33571
    endloop
  endfacet
  facet normal 0.481758 -0.876304 0
    outer loop
      vertex 0.964488 -1.51979 -1.33571
      vertex 0.766402 -1.62869 -18
      vertex 0.964488 -1.51979 -18
    endloop
  endfacet
  facet normal 1 -0 0
    outer loop
      vertex 1.6736 -0.662624 -1.33571
      vertex 1.6736 -0.662623 -18
      vertex 1.6736 -0.662623 -1.33571
    endloop
  endfacet
  facet normal 0.904822 -0.425791 -2.55511e-08
    outer loop
      vertex 1.61058 -0.796544 -1.33571
      vertex 1.6736 -0.662623 -18
      vertex 1.6736 -0.662624 -1.33571
    endloop
  endfacet
  facet normal 0.904815 -0.425806 -1.74235e-07
    outer loop
      vertex 1.57735 -0.867156 -1.33571
      vertex 1.6736 -0.662623 -18
      vertex 1.61058 -0.796544 -1.33571
    endloop
  endfacet
  facet normal 0.90482 -0.425794 -5.39664e-20
    outer loop
      vertex 1.6736 -0.662623 -18
      vertex 1.57735 -0.867156 -1.33571
      vertex 1.57735 -0.867156 -18
    endloop
  endfacet
  facet normal 0.770538 -0.637395 -7.99535e-20
    outer loop
      vertex 1.40649 -1.11814 -1.33571
      vertex 1.45623 -1.05801 -18
      vertex 1.45623 -1.05801 -1.33571
    endloop
  endfacet
  facet normal 0.770487 -0.637456 -3.71338e-07
    outer loop
      vertex 1.31214 -1.23218 -1.33571
      vertex 1.45623 -1.05801 -18
      vertex 1.40649 -1.11814 -1.33571
    endloop
  endfacet
  facet normal 0.770504 -0.637435 -2.60839e-19
    outer loop
      vertex 1.45623 -1.05801 -18
      vertex 1.31214 -1.23218 -1.33571
      vertex 1.31214 -1.23218 -18
    endloop
  endfacet
  facet normal -0.368099 -0.929787 0
    outer loop
      vertex -0.766402 -1.62869 -18
      vertex -0.62879 -1.68317 -1.33571
      vertex -0.766402 -1.62869 -1.33571
    endloop
  endfacet
  facet normal -0.368145 -0.929768 4.4479e-07
    outer loop
      vertex -0.766402 -1.62869 -18
      vertex -0.556231 -1.7119 -1.33571
      vertex -0.62879 -1.68317 -1.33571
    endloop
  endfacet
  facet normal -0.368115 -0.92978 -0
    outer loop
      vertex -0.556231 -1.7119 -1.33571
      vertex -0.766402 -1.62869 -18
      vertex -0.556231 -1.7119 -18
    endloop
  endfacet
  facet normal 0 -1 0
    outer loop
      vertex -0.556231 -1.7119 -18
      vertex -0.55623 -1.7119 -1.33571
      vertex -0.556231 -1.7119 -1.33571
    endloop
  endfacet
  facet normal -0.248705 -0.968579 1.49244e-08
    outer loop
      vertex -0.556231 -1.7119 -18
      vertex -0.412874 -1.74871 -1.33571
      vertex -0.55623 -1.7119 -1.33571
    endloop
  endfacet
  facet normal -0.248718 -0.968576 1.26945e-07
    outer loop
      vertex -0.556231 -1.7119 -18
      vertex -0.337286 -1.76812 -1.33571
      vertex -0.412874 -1.74871 -1.33571
    endloop
  endfacet
  facet normal -0.248708 -0.968578 0
    outer loop
      vertex -0.337286 -1.76812 -18
      vertex -0.337286 -1.76812 -1.33571
      vertex -0.556231 -1.7119 -18
    endloop
  endfacet
  facet normal -0.770538 -0.637395 0
    outer loop
      vertex -1.45623 -1.05801 -18
      vertex -1.40649 -1.11814 -1.33571
      vertex -1.45623 -1.05801 -1.33571
    endloop
  endfacet
  facet normal -0.770504 -0.637435 -2.43144e-07
    outer loop
      vertex -1.31214 -1.23218 -18
      vertex -1.40649 -1.11814 -1.33571
      vertex -1.45623 -1.05801 -18
    endloop
  endfacet
  facet normal -0.770487 -0.637456 1.07833e-19
    outer loop
      vertex -1.40649 -1.11814 -1.33571
      vertex -1.31214 -1.23218 -18
      vertex -1.31214 -1.23218 -1.33571
    endloop
  endfacet
  facet normal -0.951041 -0.309065 0
    outer loop
      vertex -1.74345 -0.447641 -18
      vertex -1.71933 -0.521862 -1.33571
      vertex -1.74345 -0.447641 -1.33571
    endloop
  endfacet
  facet normal -0.951059 -0.309009 2.73168e-07
    outer loop
      vertex -1.6736 -0.662623 -18
      vertex -1.71933 -0.521862 -1.33571
      vertex -1.74345 -0.447641 -18
    endloop
  endfacet
  facet normal -0.951068 -0.30898 -9.03231e-20
    outer loop
      vertex -1.71933 -0.521862 -1.33571
      vertex -1.6736 -0.662623 -18
      vertex -1.6736 -0.662623 -1.33571
    endloop
  endfacet
  facet normal 0.248718 -0.968576 0
    outer loop
      vertex 0.337286 -1.76812 -18
      vertex 0.412874 -1.74871 -1.33571
      vertex 0.337286 -1.76812 -1.33571
    endloop
  endfacet
  facet normal 0.248705 -0.968579 5.90653e-08
    outer loop
      vertex 0.337286 -1.76812 -18
      vertex 0.55623 -1.7119 -1.33571
      vertex 0.412874 -1.74871 -1.33571
    endloop
  endfacet
  facet normal 0.248708 -0.968578 1.49246e-08
    outer loop
      vertex 0.556231 -1.7119 -18
      vertex 0.55623 -1.7119 -1.33571
      vertex 0.337286 -1.76812 -18
    endloop
  endfacet
  facet normal 0 -1 0
    outer loop
      vertex 0.55623 -1.7119 -1.33571
      vertex 0.556231 -1.7119 -18
      vertex 0.556231 -1.7119 -1.33571
    endloop
  endfacet
  facet normal 0.587796 -0.809009 0
    outer loop
      vertex 0.964488 -1.51979 -1.33571
      vertex 0.964488 -1.51979 -18
      vertex 1.08423 -1.43279 -1.33571
    endloop
  endfacet
  facet normal 0.587814 -0.808996 -1.96509e-07
    outer loop
      vertex 0.964488 -1.51979 -18
      vertex 1.14736 -1.38692 -1.33571
      vertex 1.08423 -1.43279 -1.33571
    endloop
  endfacet
  facet normal 0.587802 -0.809005 0
    outer loop
      vertex 1.14736 -1.38692 -1.33571
      vertex 0.964488 -1.51979 -18
      vertex 1.14736 -1.38692 -18
    endloop
  endfacet
  facet normal 0.951041 -0.309065 -2.71921e-20
    outer loop
      vertex 1.71933 -0.521862 -1.33571
      vertex 1.74345 -0.447641 -18
      vertex 1.74345 -0.447641 -1.33571
    endloop
  endfacet
  facet normal 0.951068 -0.30898 4.17209e-07
    outer loop
      vertex 1.6736 -0.662623 -1.33571
      vertex 1.74345 -0.447641 -18
      vertex 1.71933 -0.521862 -1.33571
    endloop
  endfacet
  facet normal 0.951059 -0.309009 -4.27241e-21
    outer loop
      vertex 1.74345 -0.447641 -18
      vertex 1.6736 -0.662623 -1.33571
      vertex 1.6736 -0.662623 -18
    endloop
  endfacet
  facet normal 0.844361 -0.535775 4.28264e-20
    outer loop
      vertex 1.53554 -0.933047 -1.33571
      vertex 1.57735 -0.867156 -18
      vertex 1.57735 -0.867156 -1.33571
    endloop
  endfacet
  facet normal 0.844309 -0.535856 -4.50929e-07
    outer loop
      vertex 1.45623 -1.05801 -1.33571
      vertex 1.57735 -0.867156 -18
      vertex 1.53554 -0.933047 -1.33571
    endloop
  endfacet
  facet normal 0.844327 -0.535828 -4.13303e-19
    outer loop
      vertex 1.57735 -0.867156 -18
      vertex 1.45623 -1.05801 -1.33571
      vertex 1.45623 -1.05801 -18
    endloop
  endfacet
  facet normal -0.125332 -0.992115 0
    outer loop
      vertex -0.337286 -1.76812 -18
      vertex -0.190446 -1.78667 -1.33571
      vertex -0.337286 -1.76812 -1.33571
    endloop
  endfacet
  facet normal -0.125323 -0.992116 -7.80113e-08
    outer loop
      vertex -0.190446 -1.78667 -1.33571
      vertex -0.337286 -1.76812 -18
      vertex -0.113023 -1.79645 -1.33571
    endloop
  endfacet
  facet normal -0.125329 -0.992115 -0
    outer loop
      vertex -0.113023 -1.79645 -1.33571
      vertex -0.337286 -1.76812 -18
      vertex -0.113023 -1.79645 -18
    endloop
  endfacet
  facet normal -0.587814 -0.808996 -0
    outer loop
      vertex -1.14736 -1.38692 -1.33571
      vertex -1.14736 -1.38692 -18
      vertex -1.08423 -1.43279 -1.33571
    endloop
  endfacet
  facet normal -0.587796 -0.809009 -1.03605e-07
    outer loop
      vertex -1.14736 -1.38692 -18
      vertex -0.964488 -1.51979 -1.33571
      vertex -1.08423 -1.43279 -1.33571
    endloop
  endfacet
  facet normal -0.587802 -0.809005 -0
    outer loop
      vertex -0.964488 -1.51979 -1.33571
      vertex -1.14736 -1.38692 -18
      vertex -0.964488 -1.51979 -18
    endloop
  endfacet
  facet normal -0.684563 -0.728953 -1.03028e-20
    outer loop
      vertex -1.20425 -1.3335 -1.33571
      vertex -1.31214 -1.23218 -1.33571
      vertex -1.31214 -1.23218 -18
    endloop
  endfacet
  facet normal -0.684525 -0.72899 -4.69829e-07
    outer loop
      vertex -1.31214 -1.23218 -18
      vertex -1.14736 -1.38692 -1.33571
      vertex -1.20425 -1.3335 -1.33571
    endloop
  endfacet
  facet normal -0.68455 -0.728966 -0
    outer loop
      vertex -1.14736 -1.38692 -1.33571
      vertex -1.31214 -1.23218 -18
      vertex -1.14736 -1.38692 -18
    endloop
  endfacet
  facet normal -1 0 0
    outer loop
      vertex -1.78581 -0.225599 -18
      vertex -1.78581 -0.2256 -1.33571
      vertex -1.78581 -0.225599 -1.33571
    endloop
  endfacet
  facet normal -0.982279 -0.187424 -1.1247e-08
    outer loop
      vertex -1.78581 -0.225599 -18
      vertex -1.75807 -0.370984 -1.33571
      vertex -1.78581 -0.2256 -1.33571
    endloop
  endfacet
  facet normal -0.982285 -0.187395 2.48607e-07
    outer loop
      vertex -1.74345 -0.447641 -18
      vertex -1.75807 -0.370984 -1.33571
      vertex -1.78581 -0.225599 -18
    endloop
  endfacet
  facet normal -0.982295 -0.187343 -5.69917e-22
    outer loop
      vertex -1.75807 -0.370984 -1.33571
      vertex -1.74345 -0.447641 -18
      vertex -1.74345 -0.447641 -1.33571
    endloop
  endfacet
  facet normal -0.998027 -0.0627888 0
    outer loop
      vertex -1.8 0 -18
      vertex -1.7951 -0.0778854 -1.33572
      vertex -1.8 0 -1.33571
    endloop
  endfacet
  facet normal -0.998028 -0.0627752 6.40515e-08
    outer loop
      vertex -1.78581 -0.225599 -18
      vertex -1.7951 -0.0778854 -1.33572
      vertex -1.8 0 -18
    endloop
  endfacet
  facet normal -0.998028 -0.062768 1.72573e-20
    outer loop
      vertex -1.7951 -0.0778854 -1.33572
      vertex -1.78581 -0.225599 -18
      vertex -1.78581 -0.225599 -1.33571
    endloop
  endfacet
  facet normal -0.481792 -0.876285 0
    outer loop
      vertex -0.964488 -1.51979 -18
      vertex -0.896101 -1.55739 -1.33571
      vertex -0.964488 -1.51979 -1.33571
    endloop
  endfacet
  facet normal -0.48174 -0.876314 -2.79476e-07
    outer loop
      vertex -0.896101 -1.55739 -1.33571
      vertex -0.964488 -1.51979 -18
      vertex -0.766402 -1.62869 -1.33571
    endloop
  endfacet
  facet normal -0.481758 -0.876304 -0
    outer loop
      vertex -0.766402 -1.62869 -1.33571
      vertex -0.964488 -1.51979 -18
      vertex -0.766402 -1.62869 -18
    endloop
  endfacet
  facet normal -0.844361 -0.535775 0
    outer loop
      vertex -1.57735 -0.867156 -18
      vertex -1.53554 -0.933047 -1.33571
      vertex -1.57735 -0.867156 -1.33571
    endloop
  endfacet
  facet normal -0.844327 -0.535828 -2.95255e-07
    outer loop
      vertex -1.45623 -1.05801 -18
      vertex -1.53554 -0.933047 -1.33571
      vertex -1.57735 -0.867156 -18
    endloop
  endfacet
  facet normal -0.844309 -0.535856 1.4939e-19
    outer loop
      vertex -1.53554 -0.933047 -1.33571
      vertex -1.45623 -1.05801 -18
      vertex -1.45623 -1.05801 -1.33571
    endloop
  endfacet
  facet normal -1 0 0
    outer loop
      vertex -1.6736 -0.662623 -18
      vertex -1.6736 -0.662624 -1.33571
      vertex -1.6736 -0.662623 -1.33571
    endloop
  endfacet
  facet normal -0.904822 -0.425791 -2.55511e-08
    outer loop
      vertex -1.6736 -0.662623 -18
      vertex -1.61058 -0.796544 -1.33571
      vertex -1.6736 -0.662624 -1.33571
    endloop
  endfacet
  facet normal -0.90482 -0.425794 -6.01524e-08
    outer loop
      vertex -1.57735 -0.867156 -18
      vertex -1.61058 -0.796544 -1.33571
      vertex -1.6736 -0.662623 -18
    endloop
  endfacet
  facet normal -0.904815 -0.425806 -7.99496e-20
    outer loop
      vertex -1.61058 -0.796544 -1.33571
      vertex -1.57735 -0.867156 -18
      vertex -1.57735 -0.867156 -1.33571
    endloop
  endfacet
  facet normal 0.0968177 -0.766454 -0.634961
    outer loop
      vertex 0.190446 -1.78667 -1.33571
      vertex 0.182092 -2.89428 0
      vertex 0.113023 -1.79645 -1.33571
    endloop
  endfacet
  facet normal -0 -0.772545 -0.63496
    outer loop
      vertex 0.113023 -1.79645 -1.33571
      vertex 0.182092 -2.89428 0
      vertex 0.113022 -1.79645 -1.33571
    endloop
  endfacet
  facet normal 0.096837 -0.766452 -0.634959
    outer loop
      vertex 0.182092 -2.89428 0
      vertex 0.190446 -1.78667 -1.33571
      vertex 0.543406 -2.84863 0
    endloop
  endfacet
  facet normal 0.771023 0.0485143 -0.634957
    outer loop
      vertex 2.9 0 0
      vertex 1.7951 0.0778854 -1.33572
      vertex 2.87713 0.363466 0
    endloop
  endfacet
  facet normal 0.771024 0.0484258 -0.634963
    outer loop
      vertex 1.7951 0.0778854 -1.33572
      vertex 2.9 0 0
      vertex 1.8 0 -1.33571
    endloop
  endfacet
  facet normal 0.774393 1.89202e-11 -0.632705
    outer loop
      vertex 2.87713 0.363466 0
      vertex 1.78581 0.225599 -1.33571
      vertex 1.78581 0.2256 -1.33571
    endloop
  endfacet
  facet normal 0.77102 0.048534 -0.634959
    outer loop
      vertex 1.78581 0.225599 -1.33571
      vertex 2.87713 0.363466 0
      vertex 1.7951 0.0778854 -1.33572
    endloop
  endfacet
  facet normal 0.774393 0 -0.632705
    outer loop
      vertex 1.78581 -0.225599 -1.33571
      vertex 2.87713 -0.363466 0
      vertex 1.78581 -0.2256 -1.33571
    endloop
  endfacet
  facet normal 0.77102 -0.048534 -0.634959
    outer loop
      vertex 2.87713 -0.363466 0
      vertex 1.78581 -0.225599 -1.33571
      vertex 1.7951 -0.0778854 -1.33572
    endloop
  endfacet
  facet normal -0.758857 -0.144794 -0.634957
    outer loop
      vertex -1.75807 -0.370984 -1.33571
      vertex -2.87713 -0.363466 0
      vertex -1.78581 -0.2256 -1.33571
    endloop
  endfacet
  facet normal -0.192126 0.748275 -0.634959
    outer loop
      vertex -0.543406 2.84863 0
      vertex -0.412874 1.74871 -1.33571
      vertex -0.896149 2.75806 0
    endloop
  endfacet
  facet normal -0.192146 0.748271 -0.634957
    outer loop
      vertex -0.412874 1.74871 -1.33571
      vertex -0.543406 2.84863 0
      vertex -0.337286 1.76812 -1.33571
    endloop
  endfacet
  facet normal 0.595233 -0.492461 -0.634964
    outer loop
      vertex 2.11401 -1.98519 0
      vertex 1.31214 -1.23218 -1.33571
      vertex 1.40649 -1.11814 -1.33571
    endloop
  endfacet
  facet normal 0.734723 -0.238767 -0.634958
    outer loop
      vertex 2.80889 -0.7212 0
      vertex 1.71933 -0.521862 -1.33571
      vertex 1.74345 -0.447641 -1.33571
    endloop
  endfacet
  facet normal 0.734733 -0.238731 -0.634961
    outer loop
      vertex 1.71933 -0.521862 -1.33571
      vertex 2.80889 -0.7212 0
      vertex 2.69635 -1.06756 0
    endloop
  endfacet
  facet normal 0.771024 -0.0484258 -0.634963
    outer loop
      vertex 2.9 0 0
      vertex 1.7951 -0.0778854 -1.33572
      vertex 1.8 0 -1.33571
    endloop
  endfacet
  facet normal 0.771023 -0.0485143 -0.634957
    outer loop
      vertex 1.7951 -0.0778854 -1.33572
      vertex 2.9 0 0
      vertex 2.87713 -0.363466 0
    endloop
  endfacet
  facet normal 0.699012 -0.328955 -0.634957
    outer loop
      vertex 2.69635 -1.06756 0
      vertex 1.57735 -0.867156 -1.33571
      vertex 1.61058 -0.796544 -1.33571
    endloop
  endfacet
  facet normal 0.699023 -0.328924 -0.634961
    outer loop
      vertex 1.57735 -0.867156 -1.33571
      vertex 2.69635 -1.06756 0
      vertex 2.54129 -1.39709 0
    endloop
  endfacet
  facet normal 0.652265 -0.413972 -0.634962
    outer loop
      vertex 2.34615 -1.70458 0
      vertex 1.45623 -1.05801 -1.33571
      vertex 1.53554 -0.933047 -1.33571
    endloop
  endfacet
  facet normal 0.284409 -0.718289 -0.634959
    outer loop
      vertex 0.62879 -1.68317 -1.33571
      vertex 0.896149 -2.75806 0
      vertex 0.556231 -1.7119 -1.33571
    endloop
  endfacet
  facet normal -0 -0.78727 -0.616609
    outer loop
      vertex 0.556231 -1.7119 -1.33571
      vertex 0.896149 -2.75806 0
      vertex 0.55623 -1.7119 -1.33571
    endloop
  endfacet
  facet normal 0.284382 -0.718298 -0.634961
    outer loop
      vertex 0.896149 -2.75806 0
      vertex 0.62879 -1.68317 -1.33571
      vertex 1.23476 -2.624 0
    endloop
  endfacet
  facet normal 0.372178 -0.676985 -0.63496
    outer loop
      vertex 1.23476 -2.624 0
      vertex 0.964488 -1.51979 -1.33571
      vertex 1.5539 -2.44855 0
    endloop
  endfacet
  facet normal 0.372208 -0.676973 -0.634956
    outer loop
      vertex 0.964488 -1.51979 -1.33571
      vertex 1.23476 -2.624 0
      vertex 0.896101 -1.55739 -1.33571
    endloop
  endfacet
  facet normal 0.372166 -0.676992 -0.634961
    outer loop
      vertex 1.23476 -2.624 0
      vertex 0.766402 -1.62869 -1.33571
      vertex 0.896101 -1.55739 -1.33571
    endloop
  endfacet
  facet normal -0.595233 -0.492461 -0.634964
    outer loop
      vertex -1.31214 -1.23218 -1.33571
      vertex -2.11401 -1.98519 0
      vertex -1.40649 -1.11814 -1.33571
    endloop
  endfacet
  facet normal 0.793978 0 -0.607947
    outer loop
      vertex 1.6736 -0.662623 -1.33571
      vertex 2.69635 -1.06756 0
      vertex 1.6736 -0.662624 -1.33571
    endloop
  endfacet
  facet normal 0.734745 -0.238702 -0.634958
    outer loop
      vertex 2.69635 -1.06756 0
      vertex 1.6736 -0.662623 -1.33571
      vertex 1.71933 -0.521862 -1.33571
    endloop
  endfacet
  facet normal 0.192136 -0.748271 -0.63496
    outer loop
      vertex 0.896149 -2.75806 0
      vertex 0.412874 -1.74871 -1.33571
      vertex 0.55623 -1.7119 -1.33571
    endloop
  endfacet
  facet normal 0.52884 -0.563162 -0.634962
    outer loop
      vertex 1.84853 -2.23449 0
      vertex 1.20425 -1.3335 -1.33571
      vertex 2.11401 -1.98519 0
    endloop
  endfacet
  facet normal 0.528825 -0.563175 -0.634963
    outer loop
      vertex 1.20425 -1.3335 -1.33571
      vertex 1.84853 -2.23449 0
      vertex 1.14736 -1.38692 -1.33571
    endloop
  endfacet
  facet normal -0.192136 -0.748271 -0.63496
    outer loop
      vertex -0.412874 -1.74871 -1.33571
      vertex -0.896149 -2.75806 0
      vertex -0.55623 -1.7119 -1.33571
    endloop
  endfacet
  facet normal -0.652305 -0.413909 -0.634963
    outer loop
      vertex -1.53554 -0.933047 -1.33571
      vertex -2.54129 -1.39709 0
      vertex -1.57735 -0.867156 -1.33571
    endloop
  endfacet
  facet normal -0.65228 -0.413952 -0.63496
    outer loop
      vertex -2.54129 -1.39709 0
      vertex -1.53554 -0.933047 -1.33571
      vertex -2.34615 -1.70458 0
    endloop
  endfacet
  facet normal -0.454111 0.624984 -0.634963
    outer loop
      vertex -1.84853 2.23449 0
      vertex -1.08423 1.43279 -1.33571
      vertex -1.14736 1.38692 -1.33571
    endloop
  endfacet
  facet normal -0.454088 0.625002 -0.634961
    outer loop
      vertex -1.08423 1.43279 -1.33571
      vertex -1.84853 2.23449 0
      vertex -1.5539 2.44855 0
    endloop
  endfacet
  facet normal -0.65228 0.413952 -0.63496
    outer loop
      vertex -1.53554 0.933047 -1.33571
      vertex -2.54129 1.39709 0
      vertex -2.34615 1.70458 0
    endloop
  endfacet
  facet normal -0.652305 0.413909 -0.634963
    outer loop
      vertex -2.54129 1.39709 0
      vertex -1.53554 0.933047 -1.33571
      vertex -1.57735 0.867156 -1.33571
    endloop
  endfacet
  facet normal 0.454099 0.624996 -0.63496
    outer loop
      vertex 0.964488 1.51979 -1.33571
      vertex 1.5539 2.44855 0
      vertex 1.08423 1.43279 -1.33571
    endloop
  endfacet
  facet normal 0.758857 -0.144794 -0.634957
    outer loop
      vertex 2.87713 -0.363466 0
      vertex 1.75807 -0.370984 -1.33571
      vertex 1.78581 -0.2256 -1.33571
    endloop
  endfacet
  facet normal 0.758864 -0.14473 -0.634963
    outer loop
      vertex 2.87713 -0.363466 0
      vertex 1.74345 -0.447641 -1.33571
      vertex 1.75807 -0.370984 -1.33571
    endloop
  endfacet
  facet normal 0.758862 -0.144758 -0.63496
    outer loop
      vertex 1.74345 -0.447641 -1.33571
      vertex 2.87713 -0.363466 0
      vertex 2.80889 -0.7212 0
    endloop
  endfacet
  facet normal 0.652305 -0.413909 -0.634963
    outer loop
      vertex 2.54129 -1.39709 0
      vertex 1.53554 -0.933047 -1.33571
      vertex 1.57735 -0.867156 -1.33571
    endloop
  endfacet
  facet normal 0.65228 -0.413952 -0.63496
    outer loop
      vertex 1.53554 -0.933047 -1.33571
      vertex 2.54129 -1.39709 0
      vertex 2.34615 -1.70458 0
    endloop
  endfacet
  facet normal 0.595256 -0.492437 -0.634961
    outer loop
      vertex 1.40649 -1.11814 -1.33571
      vertex 2.34615 -1.70458 0
      vertex 2.11401 -1.98519 0
    endloop
  endfacet
  facet normal 0.595273 -0.492415 -0.634963
    outer loop
      vertex 2.34615 -1.70458 0
      vertex 1.40649 -1.11814 -1.33571
      vertex 1.45623 -1.05801 -1.33571
    endloop
  endfacet
  facet normal 0.192126 -0.748275 -0.634959
    outer loop
      vertex 0.543406 -2.84863 0
      vertex 0.412874 -1.74871 -1.33571
      vertex 0.896149 -2.75806 0
    endloop
  endfacet
  facet normal 0.192146 -0.748271 -0.634957
    outer loop
      vertex 0.412874 -1.74871 -1.33571
      vertex 0.543406 -2.84863 0
      vertex 0.337286 -1.76812 -1.33571
    endloop
  endfacet
  facet normal 0.0968247 -0.766455 -0.634958
    outer loop
      vertex 0.337286 -1.76812 -1.33571
      vertex 0.543406 -2.84863 0
      vertex 0.190446 -1.78667 -1.33571
    endloop
  endfacet
  facet normal 0.454088 -0.625002 -0.634961
    outer loop
      vertex 1.08423 -1.43279 -1.33571
      vertex 1.84853 -2.23449 0
      vertex 1.5539 -2.44855 0
    endloop
  endfacet
  facet normal 0.454111 -0.624984 -0.634963
    outer loop
      vertex 1.84853 -2.23449 0
      vertex 1.08423 -1.43279 -1.33571
      vertex 1.14736 -1.38692 -1.33571
    endloop
  endfacet
  facet normal 0.454099 -0.624996 -0.63496
    outer loop
      vertex 1.5539 -2.44855 0
      vertex 0.964488 -1.51979 -1.33571
      vertex 1.08423 -1.43279 -1.33571
    endloop
  endfacet
  facet normal -0.699012 -0.328955 -0.634957
    outer loop
      vertex -1.57735 -0.867156 -1.33571
      vertex -2.69635 -1.06756 0
      vertex -1.61058 -0.796544 -1.33571
    endloop
  endfacet
  facet normal -0.699023 -0.328924 -0.634961
    outer loop
      vertex -2.69635 -1.06756 0
      vertex -1.57735 -0.867156 -1.33571
      vertex -2.54129 -1.39709 0
    endloop
  endfacet
  facet normal -0.734745 -0.238702 -0.634958
    outer loop
      vertex -1.6736 -0.662623 -1.33571
      vertex -2.69635 -1.06756 0
      vertex -1.71933 -0.521862 -1.33571
    endloop
  endfacet
  facet normal -0.793978 2.99037e-11 -0.607947
    outer loop
      vertex -2.69635 -1.06756 0
      vertex -1.6736 -0.662623 -1.33571
      vertex -1.6736 -0.662624 -1.33571
    endloop
  endfacet
  facet normal -0.192126 -0.748275 -0.634959
    outer loop
      vertex -0.412874 -1.74871 -1.33571
      vertex -0.543406 -2.84863 0
      vertex -0.896149 -2.75806 0
    endloop
  endfacet
  facet normal -0.192146 -0.748271 -0.634957
    outer loop
      vertex -0.543406 -2.84863 0
      vertex -0.412874 -1.74871 -1.33571
      vertex -0.337286 -1.76812 -1.33571
    endloop
  endfacet
  facet normal -0.454099 -0.624996 -0.63496
    outer loop
      vertex -0.964488 -1.51979 -1.33571
      vertex -1.5539 -2.44855 0
      vertex -1.08423 -1.43279 -1.33571
    endloop
  endfacet
  facet normal -0.454088 -0.625002 -0.634961
    outer loop
      vertex -1.84853 -2.23449 0
      vertex -1.08423 -1.43279 -1.33571
      vertex -1.5539 -2.44855 0
    endloop
  endfacet
  facet normal -0.454111 -0.624984 -0.634963
    outer loop
      vertex -1.08423 -1.43279 -1.33571
      vertex -1.84853 -2.23449 0
      vertex -1.14736 -1.38692 -1.33571
    endloop
  endfacet
  facet normal -0.528854 -0.563147 -0.634964
    outer loop
      vertex -1.20425 -1.3335 -1.33571
      vertex -2.11401 -1.98519 0
      vertex -1.31214 -1.23218 -1.33571
    endloop
  endfacet
  facet normal -0.528825 -0.563175 -0.634963
    outer loop
      vertex -1.84853 -2.23449 0
      vertex -1.20425 -1.3335 -1.33571
      vertex -1.14736 -1.38692 -1.33571
    endloop
  endfacet
  facet normal -0.52884 -0.563162 -0.634962
    outer loop
      vertex -1.20425 -1.3335 -1.33571
      vertex -1.84853 -2.23449 0
      vertex -2.11401 -1.98519 0
    endloop
  endfacet
  facet normal -0.758857 0.144794 -0.634957
    outer loop
      vertex -1.78581 0.2256 -1.33571
      vertex -2.87713 0.363466 0
      vertex -1.75807 0.370984 -1.33571
    endloop
  endfacet
  facet normal -0.454099 0.624996 -0.63496
    outer loop
      vertex -1.5539 2.44855 0
      vertex -0.964488 1.51979 -1.33571
      vertex -1.08423 1.43279 -1.33571
    endloop
  endfacet
  facet normal 0.65228 0.413952 -0.63496
    outer loop
      vertex 2.54129 1.39709 0
      vertex 1.53554 0.933047 -1.33571
      vertex 2.34615 1.70458 0
    endloop
  endfacet
  facet normal 0.652305 0.413909 -0.634963
    outer loop
      vertex 1.53554 0.933047 -1.33571
      vertex 2.54129 1.39709 0
      vertex 1.57735 0.867156 -1.33571
    endloop
  endfacet
  facet normal 0.096837 0.766452 -0.634959
    outer loop
      vertex 0.190446 1.78667 -1.33571
      vertex 0.182092 2.89428 0
      vertex 0.543406 2.84863 0
    endloop
  endfacet
  facet normal 0.0968177 0.766454 -0.634961
    outer loop
      vertex 0.113023 1.79645 -1.33571
      vertex 0.182092 2.89428 0
      vertex 0.190446 1.78667 -1.33571
    endloop
  endfacet
  facet normal -1.98784e-11 0.772545 -0.63496
    outer loop
      vertex 0.182092 2.89428 0
      vertex 0.113023 1.79645 -1.33571
      vertex 0.113022 1.79645 -1.33571
    endloop
  endfacet
  facet normal 0.192126 0.748275 -0.634959
    outer loop
      vertex 0.412874 1.74871 -1.33571
      vertex 0.543406 2.84863 0
      vertex 0.896149 2.75806 0
    endloop
  endfacet
  facet normal 0.192146 0.748271 -0.634957
    outer loop
      vertex 0.543406 2.84863 0
      vertex 0.412874 1.74871 -1.33571
      vertex 0.337286 1.76812 -1.33571
    endloop
  endfacet
  facet normal 0.699017 -0.328943 -0.634958
    outer loop
      vertex 2.69635 -1.06756 0
      vertex 1.61058 -0.796544 -1.33571
      vertex 1.6736 -0.662624 -1.33571
    endloop
  endfacet
  facet normal 0.284373 -0.718302 -0.63496
    outer loop
      vertex 1.23476 -2.624 0
      vertex 0.62879 -1.68317 -1.33571
      vertex 0.766402 -1.62869 -1.33571
    endloop
  endfacet
  facet normal 0.528854 -0.563147 -0.634964
    outer loop
      vertex 2.11401 -1.98519 0
      vertex 1.20425 -1.3335 -1.33571
      vertex 1.31214 -1.23218 -1.33571
    endloop
  endfacet
  facet normal -0.734723 -0.238767 -0.634958
    outer loop
      vertex -1.71933 -0.521862 -1.33571
      vertex -2.80889 -0.7212 0
      vertex -1.74345 -0.447641 -1.33571
    endloop
  endfacet
  facet normal -0.734733 -0.238731 -0.634961
    outer loop
      vertex -2.80889 -0.7212 0
      vertex -1.71933 -0.521862 -1.33571
      vertex -2.69635 -1.06756 0
    endloop
  endfacet
  facet normal -0.758864 -0.14473 -0.634963
    outer loop
      vertex -1.74345 -0.447641 -1.33571
      vertex -2.87713 -0.363466 0
      vertex -1.75807 -0.370984 -1.33571
    endloop
  endfacet
  facet normal -0.758862 -0.144758 -0.63496
    outer loop
      vertex -2.87713 -0.363466 0
      vertex -1.74345 -0.447641 -1.33571
      vertex -2.80889 -0.7212 0
    endloop
  endfacet
  facet normal -0.372178 -0.676985 -0.63496
    outer loop
      vertex -0.964488 -1.51979 -1.33571
      vertex -1.23476 -2.624 0
      vertex -1.5539 -2.44855 0
    endloop
  endfacet
  facet normal -0.372208 -0.676973 -0.634956
    outer loop
      vertex -1.23476 -2.624 0
      vertex -0.964488 -1.51979 -1.33571
      vertex -0.896101 -1.55739 -1.33571
    endloop
  endfacet
  facet normal -0.595256 -0.492437 -0.634961
    outer loop
      vertex -2.34615 -1.70458 0
      vertex -1.40649 -1.11814 -1.33571
      vertex -2.11401 -1.98519 0
    endloop
  endfacet
  facet normal -0.595273 -0.492415 -0.634963
    outer loop
      vertex -1.40649 -1.11814 -1.33571
      vertex -2.34615 -1.70458 0
      vertex -1.45623 -1.05801 -1.33571
    endloop
  endfacet
  facet normal -0.771024 0.0484258 -0.634963
    outer loop
      vertex -2.9 0 0
      vertex -1.7951 0.0778854 -1.33572
      vertex -1.8 0 -1.33571
    endloop
  endfacet
  facet normal -0.771023 0.0485143 -0.634957
    outer loop
      vertex -1.7951 0.0778854 -1.33572
      vertex -2.9 0 0
      vertex -2.87713 0.363466 0
    endloop
  endfacet
  facet normal -0.528854 0.563147 -0.634964
    outer loop
      vertex -1.31214 1.23218 -1.33571
      vertex -2.11401 1.98519 0
      vertex -1.20425 1.3335 -1.33571
    endloop
  endfacet
  facet normal -0.528825 0.563175 -0.634963
    outer loop
      vertex -1.20425 1.3335 -1.33571
      vertex -1.84853 2.23449 0
      vertex -1.14736 1.38692 -1.33571
    endloop
  endfacet
  facet normal -0.52884 0.563162 -0.634962
    outer loop
      vertex -1.84853 2.23449 0
      vertex -1.20425 1.3335 -1.33571
      vertex -2.11401 1.98519 0
    endloop
  endfacet
  facet normal -0.372178 0.676985 -0.63496
    outer loop
      vertex -1.23476 2.624 0
      vertex -0.964488 1.51979 -1.33571
      vertex -1.5539 2.44855 0
    endloop
  endfacet
  facet normal -0.372208 0.676973 -0.634956
    outer loop
      vertex -0.964488 1.51979 -1.33571
      vertex -1.23476 2.624 0
      vertex -0.896101 1.55739 -1.33571
    endloop
  endfacet
  facet normal -0.284373 0.718302 -0.63496
    outer loop
      vertex -0.766402 1.62869 -1.33571
      vertex -1.23476 2.624 0
      vertex -0.62879 1.68317 -1.33571
    endloop
  endfacet
  facet normal 0.699023 0.328924 -0.634961
    outer loop
      vertex 2.69635 1.06756 0
      vertex 1.57735 0.867156 -1.33571
      vertex 2.54129 1.39709 0
    endloop
  endfacet
  facet normal 0.699012 0.328955 -0.634957
    outer loop
      vertex 1.57735 0.867156 -1.33571
      vertex 2.69635 1.06756 0
      vertex 1.61058 0.796544 -1.33571
    endloop
  endfacet
  facet normal 0.528854 0.563147 -0.634964
    outer loop
      vertex 1.31214 1.23218 -1.33571
      vertex 1.20425 1.3335 -1.33571
      vertex 2.11401 1.98519 0
    endloop
  endfacet
  facet normal -0.699017 -0.328943 -0.634958
    outer loop
      vertex -1.61058 -0.796544 -1.33571
      vertex -2.69635 -1.06756 0
      vertex -1.6736 -0.662624 -1.33571
    endloop
  endfacet
  facet normal -0.284382 -0.718298 -0.634961
    outer loop
      vertex -0.62879 -1.68317 -1.33571
      vertex -0.896149 -2.75806 0
      vertex -1.23476 -2.624 0
    endloop
  endfacet
  facet normal -0.284409 -0.718289 -0.634959
    outer loop
      vertex -0.896149 -2.75806 0
      vertex -0.62879 -1.68317 -1.33571
      vertex -0.556231 -1.7119 -1.33571
    endloop
  endfacet
  facet normal -6.58202e-12 -0.78727 -0.616609
    outer loop
      vertex -0.896149 -2.75806 0
      vertex -0.556231 -1.7119 -1.33571
      vertex -0.55623 -1.7119 -1.33571
    endloop
  endfacet
  facet normal -0.096837 -0.766452 -0.634959
    outer loop
      vertex -0.190446 -1.78667 -1.33571
      vertex -0.182092 -2.89428 0
      vertex -0.543406 -2.84863 0
    endloop
  endfacet
  facet normal -0.0968177 -0.766454 -0.634961
    outer loop
      vertex -0.113023 -1.79645 -1.33571
      vertex -0.182092 -2.89428 0
      vertex -0.190446 -1.78667 -1.33571
    endloop
  endfacet
  facet normal 1.98784e-11 -0.772545 -0.63496
    outer loop
      vertex -0.182092 -2.89428 0
      vertex -0.113023 -1.79645 -1.33571
      vertex -0.113022 -1.79645 -1.33571
    endloop
  endfacet
  facet normal 5.45833e-17 -0.772545 -0.63496
    outer loop
      vertex -0.113022 -1.79645 -1.33571
      vertex 0.182092 -2.89428 0
      vertex -0.182092 -2.89428 0
    endloop
  endfacet
  facet normal 8.79403e-17 -0.772545 -0.63496
    outer loop
      vertex 0.182092 -2.89428 0
      vertex -0.113022 -1.79645 -1.33571
      vertex 0.113022 -1.79645 -1.33571
    endloop
  endfacet
  facet normal -0.652265 -0.413972 -0.634962
    outer loop
      vertex -1.45623 -1.05801 -1.33571
      vertex -2.34615 -1.70458 0
      vertex -1.53554 -0.933047 -1.33571
    endloop
  endfacet
  facet normal -0.284409 0.718289 -0.634959
    outer loop
      vertex -0.62879 1.68317 -1.33571
      vertex -0.896149 2.75806 0
      vertex -0.556231 1.7119 -1.33571
    endloop
  endfacet
  facet normal 0 0.78727 -0.616609
    outer loop
      vertex -0.556231 1.7119 -1.33571
      vertex -0.896149 2.75806 0
      vertex -0.55623 1.7119 -1.33571
    endloop
  endfacet
  facet normal -0.284382 0.718298 -0.634961
    outer loop
      vertex -0.896149 2.75806 0
      vertex -0.62879 1.68317 -1.33571
      vertex -1.23476 2.624 0
    endloop
  endfacet
  facet normal -0.192136 0.748271 -0.63496
    outer loop
      vertex -0.55623 1.7119 -1.33571
      vertex -0.896149 2.75806 0
      vertex -0.412874 1.74871 -1.33571
    endloop
  endfacet
  facet normal -0.699023 0.328924 -0.634961
    outer loop
      vertex -1.57735 0.867156 -1.33571
      vertex -2.69635 1.06756 0
      vertex -2.54129 1.39709 0
    endloop
  endfacet
  facet normal -0.699012 0.328955 -0.634957
    outer loop
      vertex -2.69635 1.06756 0
      vertex -1.57735 0.867156 -1.33571
      vertex -1.61058 0.796544 -1.33571
    endloop
  endfacet
  facet normal -0.758864 0.14473 -0.634963
    outer loop
      vertex -2.87713 0.363466 0
      vertex -1.74345 0.447641 -1.33571
      vertex -1.75807 0.370984 -1.33571
    endloop
  endfacet
  facet normal -0.758862 0.144758 -0.63496
    outer loop
      vertex -1.74345 0.447641 -1.33571
      vertex -2.87713 0.363466 0
      vertex -2.80889 0.7212 0
    endloop
  endfacet
  facet normal -0.652265 0.413972 -0.634962
    outer loop
      vertex -2.34615 1.70458 0
      vertex -1.45623 1.05801 -1.33571
      vertex -1.53554 0.933047 -1.33571
    endloop
  endfacet
  facet normal -0.595233 0.492461 -0.634964
    outer loop
      vertex -2.11401 1.98519 0
      vertex -1.31214 1.23218 -1.33571
      vertex -1.40649 1.11814 -1.33571
    endloop
  endfacet
  facet normal -0.595273 0.492415 -0.634963
    outer loop
      vertex -2.34615 1.70458 0
      vertex -1.40649 1.11814 -1.33571
      vertex -1.45623 1.05801 -1.33571
    endloop
  endfacet
  facet normal -0.595256 0.492437 -0.634961
    outer loop
      vertex -1.40649 1.11814 -1.33571
      vertex -2.34615 1.70458 0
      vertex -2.11401 1.98519 0
    endloop
  endfacet
  facet normal 0.595233 0.492461 -0.634964
    outer loop
      vertex 1.31214 1.23218 -1.33571
      vertex 2.11401 1.98519 0
      vertex 1.40649 1.11814 -1.33571
    endloop
  endfacet
  facet normal 0.52884 0.563162 -0.634962
    outer loop
      vertex 1.20425 1.3335 -1.33571
      vertex 1.84853 2.23449 0
      vertex 2.11401 1.98519 0
    endloop
  endfacet
  facet normal 0.528825 0.563175 -0.634963
    outer loop
      vertex 1.84853 2.23449 0
      vertex 1.20425 1.3335 -1.33571
      vertex 1.14736 1.38692 -1.33571
    endloop
  endfacet
  facet normal 0.454111 0.624984 -0.634963
    outer loop
      vertex 1.08423 1.43279 -1.33571
      vertex 1.84853 2.23449 0
      vertex 1.14736 1.38692 -1.33571
    endloop
  endfacet
  facet normal 0.454088 0.625002 -0.634961
    outer loop
      vertex 1.84853 2.23449 0
      vertex 1.08423 1.43279 -1.33571
      vertex 1.5539 2.44855 0
    endloop
  endfacet
  facet normal 0.284373 0.718302 -0.63496
    outer loop
      vertex 0.766402 1.62869 -1.33571
      vertex 0.62879 1.68317 -1.33571
      vertex 1.23476 2.624 0
    endloop
  endfacet
  facet normal 0.372178 0.676985 -0.63496
    outer loop
      vertex 0.964488 1.51979 -1.33571
      vertex 1.23476 2.624 0
      vertex 1.5539 2.44855 0
    endloop
  endfacet
  facet normal 0.372208 0.676973 -0.634956
    outer loop
      vertex 1.23476 2.624 0
      vertex 0.964488 1.51979 -1.33571
      vertex 0.896101 1.55739 -1.33571
    endloop
  endfacet
  facet normal 0.284382 0.718298 -0.634961
    outer loop
      vertex 0.62879 1.68317 -1.33571
      vertex 0.896149 2.75806 0
      vertex 1.23476 2.624 0
    endloop
  endfacet
  facet normal 0.284409 0.718289 -0.634959
    outer loop
      vertex 0.896149 2.75806 0
      vertex 0.62879 1.68317 -1.33571
      vertex 0.556231 1.7119 -1.33571
    endloop
  endfacet
  facet normal 6.58202e-12 0.78727 -0.616609
    outer loop
      vertex 0.896149 2.75806 0
      vertex 0.556231 1.7119 -1.33571
      vertex 0.55623 1.7119 -1.33571
    endloop
  endfacet
  facet normal 0.192136 0.748271 -0.63496
    outer loop
      vertex 0.55623 1.7119 -1.33571
      vertex 0.412874 1.74871 -1.33571
      vertex 0.896149 2.75806 0
    endloop
  endfacet
  facet normal -0.0968177 0.766454 -0.634961
    outer loop
      vertex -0.190446 1.78667 -1.33571
      vertex -0.182092 2.89428 0
      vertex -0.113023 1.79645 -1.33571
    endloop
  endfacet
  facet normal 0 0.772545 -0.63496
    outer loop
      vertex -0.113023 1.79645 -1.33571
      vertex -0.182092 2.89428 0
      vertex -0.113022 1.79645 -1.33571
    endloop
  endfacet
  facet normal -0.096837 0.766452 -0.634959
    outer loop
      vertex -0.182092 2.89428 0
      vertex -0.190446 1.78667 -1.33571
      vertex -0.543406 2.84863 0
    endloop
  endfacet
  facet normal -5.45833e-17 0.772545 -0.63496
    outer loop
      vertex 0.113022 1.79645 -1.33571
      vertex -0.182092 2.89428 0
      vertex 0.182092 2.89428 0
    endloop
  endfacet
  facet normal -8.79403e-17 0.772545 -0.63496
    outer loop
      vertex -0.182092 2.89428 0
      vertex 0.113022 1.79645 -1.33571
      vertex -0.113022 1.79645 -1.33571
    endloop
  endfacet
  facet normal 0.0968247 0.766455 -0.634958
    outer loop
      vertex 0.543406 2.84863 0
      vertex 0.337286 1.76812 -1.33571
      vertex 0.190446 1.78667 -1.33571
    endloop
  endfacet
  facet normal -0.284373 -0.718302 -0.63496
    outer loop
      vertex -0.62879 -1.68317 -1.33571
      vertex -1.23476 -2.624 0
      vertex -0.766402 -1.62869 -1.33571
    endloop
  endfacet
  facet normal -0.372166 -0.676992 -0.634961
    outer loop
      vertex -0.766402 -1.62869 -1.33571
      vertex -1.23476 -2.624 0
      vertex -0.896101 -1.55739 -1.33571
    endloop
  endfacet
  facet normal -0.0968247 -0.766455 -0.634958
    outer loop
      vertex -0.543406 -2.84863 0
      vertex -0.337286 -1.76812 -1.33571
      vertex -0.190446 -1.78667 -1.33571
    endloop
  endfacet
  facet normal -0.372166 0.676992 -0.634961
    outer loop
      vertex -1.23476 2.624 0
      vertex -0.766402 1.62869 -1.33571
      vertex -0.896101 1.55739 -1.33571
    endloop
  endfacet
  facet normal -0.734733 0.238731 -0.634961
    outer loop
      vertex -1.71933 0.521862 -1.33571
      vertex -2.80889 0.7212 0
      vertex -2.69635 1.06756 0
    endloop
  endfacet
  facet normal -0.734723 0.238767 -0.634958
    outer loop
      vertex -2.80889 0.7212 0
      vertex -1.71933 0.521862 -1.33571
      vertex -1.74345 0.447641 -1.33571
    endloop
  endfacet
  facet normal -0.793978 0 -0.607947
    outer loop
      vertex -1.6736 0.662623 -1.33571
      vertex -2.69635 1.06756 0
      vertex -1.6736 0.662624 -1.33571
    endloop
  endfacet
  facet normal -0.734745 0.238702 -0.634958
    outer loop
      vertex -2.69635 1.06756 0
      vertex -1.6736 0.662623 -1.33571
      vertex -1.71933 0.521862 -1.33571
    endloop
  endfacet
  facet normal -0.774393 0 -0.632705
    outer loop
      vertex -1.78581 0.225599 -1.33571
      vertex -2.87713 0.363466 0
      vertex -1.78581 0.2256 -1.33571
    endloop
  endfacet
  facet normal -0.77102 0.048534 -0.634959
    outer loop
      vertex -2.87713 0.363466 0
      vertex -1.78581 0.225599 -1.33571
      vertex -1.7951 0.0778854 -1.33572
    endloop
  endfacet
  facet normal 0.734733 0.238731 -0.634961
    outer loop
      vertex 2.80889 0.7212 0
      vertex 1.71933 0.521862 -1.33571
      vertex 2.69635 1.06756 0
    endloop
  endfacet
  facet normal 0.734723 0.238767 -0.634958
    outer loop
      vertex 1.71933 0.521862 -1.33571
      vertex 2.80889 0.7212 0
      vertex 1.74345 0.447641 -1.33571
    endloop
  endfacet
  facet normal 0.758857 0.144794 -0.634957
    outer loop
      vertex 1.78581 0.2256 -1.33571
      vertex 1.75807 0.370984 -1.33571
      vertex 2.87713 0.363466 0
    endloop
  endfacet
  facet normal 0.595273 0.492415 -0.634963
    outer loop
      vertex 1.40649 1.11814 -1.33571
      vertex 2.34615 1.70458 0
      vertex 1.45623 1.05801 -1.33571
    endloop
  endfacet
  facet normal 0.595256 0.492437 -0.634961
    outer loop
      vertex 2.34615 1.70458 0
      vertex 1.40649 1.11814 -1.33571
      vertex 2.11401 1.98519 0
    endloop
  endfacet
  facet normal 0.652265 0.413972 -0.634962
    outer loop
      vertex 1.45623 1.05801 -1.33571
      vertex 2.34615 1.70458 0
      vertex 1.53554 0.933047 -1.33571
    endloop
  endfacet
  facet normal 0.372166 0.676992 -0.634961
    outer loop
      vertex 0.766402 1.62869 -1.33571
      vertex 1.23476 2.624 0
      vertex 0.896101 1.55739 -1.33571
    endloop
  endfacet
  facet normal -0.0968247 0.766455 -0.634958
    outer loop
      vertex -0.337286 1.76812 -1.33571
      vertex -0.543406 2.84863 0
      vertex -0.190446 1.78667 -1.33571
    endloop
  endfacet
  facet normal -0.699017 0.328943 -0.634958
    outer loop
      vertex -1.6736 0.662624 -1.33571
      vertex -2.69635 1.06756 0
      vertex -1.61058 0.796544 -1.33571
    endloop
  endfacet
  facet normal -0.77102 -0.048534 -0.634959
    outer loop
      vertex -1.78581 -0.225599 -1.33571
      vertex -2.87713 -0.363466 0
      vertex -1.7951 -0.0778854 -1.33572
    endloop
  endfacet
  facet normal -0.774393 -1.89202e-11 -0.632705
    outer loop
      vertex -2.87713 -0.363466 0
      vertex -1.78581 -0.225599 -1.33571
      vertex -1.78581 -0.2256 -1.33571
    endloop
  endfacet
  facet normal -0.771024 -0.0484258 -0.634963
    outer loop
      vertex -1.7951 -0.0778854 -1.33572
      vertex -2.9 0 0
      vertex -1.8 0 -1.33571
    endloop
  endfacet
  facet normal -0.771023 -0.0485143 -0.634957
    outer loop
      vertex -2.9 0 0
      vertex -1.7951 -0.0778854 -1.33572
      vertex -2.87713 -0.363466 0
    endloop
  endfacet
  facet normal 0.699017 0.328943 -0.634958
    outer loop
      vertex 1.6736 0.662624 -1.33571
      vertex 1.61058 0.796544 -1.33571
      vertex 2.69635 1.06756 0
    endloop
  endfacet
  facet normal 0.793978 -2.99037e-11 -0.607947
    outer loop
      vertex 2.69635 1.06756 0
      vertex 1.6736 0.662623 -1.33571
      vertex 1.6736 0.662624 -1.33571
    endloop
  endfacet
  facet normal 0.734745 0.238702 -0.634958
    outer loop
      vertex 1.6736 0.662623 -1.33571
      vertex 2.69635 1.06756 0
      vertex 1.71933 0.521862 -1.33571
    endloop
  endfacet
  facet normal 0.758862 0.144758 -0.63496
    outer loop
      vertex 2.87713 0.363466 0
      vertex 1.74345 0.447641 -1.33571
      vertex 2.80889 0.7212 0
    endloop
  endfacet
  facet normal 0.758864 0.14473 -0.634963
    outer loop
      vertex 1.74345 0.447641 -1.33571
      vertex 2.87713 0.363466 0
      vertex 1.75807 0.370984 -1.33571
    endloop
  endfacet
endsolid OpenSCAD_Model
