<?xml version="1.0" standalone="no"?>
<!DOCTYPE svg PUBLIC "-//W3C//DTD SVG 1.1//EN" "http://www.w3.org/Graphics/SVG/1.1/DTD/svg11.dtd">
<svg width="196mm" height="220mm" viewBox="-98 -281 196 220" xmlns="http://www.w3.org/2000/svg" version="1.1">
<title>OpenSCAD Model</title>
<path d="
M 93.4369,-175.589 L 94.0451,-175.745 L 94.6289,-175.976 L 95.1791,-176.278 L 95.6871,-176.647 L 96.1448,-177.077
 L 96.5451,-177.561 L 96.8815,-178.091 L 97.1489,-178.659 L 97.3429,-179.257 L 97.4606,-179.873 L 97.5,-180.5
 L 97.5,-275.5 L 97.4606,-276.127 L 97.3429,-276.743 L 97.1489,-277.341 L 96.8815,-277.909 L 96.5451,-278.439
 L 96.1448,-278.923 L 95.6871,-279.353 L 95.1791,-279.722 L 94.6289,-280.024 L 94.0451,-280.255 L 93.4369,-280.411
 L 92.8139,-280.49 L -92.8139,-280.49 L -93.4369,-280.411 L -94.0451,-280.255 L -94.6289,-280.024 L -95.1791,-279.722
 L -95.6871,-279.353 L -96.1448,-278.923 L -96.5451,-278.439 L -96.8815,-277.909 L -97.1489,-277.341 L -97.3429,-276.743
 L -97.4606,-276.127 L -97.5,-275.5 L -97.5,-180.5 L -97.4606,-179.873 L -97.3429,-179.257 L -97.1489,-178.659
 L -96.8815,-178.091 L -96.5451,-177.561 L -96.1448,-177.077 L -95.6871,-176.647 L -95.1791,-176.278 L -94.6289,-175.976
 L -94.0451,-175.745 L -93.4369,-175.589 L -92.8139,-175.51 L 92.8139,-175.51 z
M -92.493,-176.888 L -92.9751,-176.949 L -93.4457,-177.07 L -93.8975,-177.249 L -94.3234,-177.483 L -94.7165,-177.769
 L -95.0707,-178.101 L -95.3805,-178.476 L -95.6408,-178.886 L -95.8477,-179.326 L -95.9979,-179.788 L -96.089,-180.265
 L -96.1195,-180.75 L -96.1195,-275.25 L -96.089,-275.735 L -95.9979,-276.212 L -95.8477,-276.674 L -95.6408,-277.114
 L -95.3805,-277.524 L -95.0707,-277.899 L -94.7165,-278.231 L -94.3234,-278.517 L -93.8975,-278.751 L -93.4457,-278.93
 L -92.9751,-279.051 L -92.493,-279.112 L 92.493,-279.112 L 92.9751,-279.051 L 93.4457,-278.93 L 93.8975,-278.751
 L 94.3234,-278.517 L 94.7165,-278.231 L 95.0707,-277.899 L 95.3805,-277.524 L 95.6408,-277.114 L 95.8477,-276.674
 L 95.9979,-276.212 L 96.089,-275.735 L 96.1195,-275.25 L 96.1195,-180.75 L 96.089,-180.265 L 95.9979,-179.788
 L 95.8477,-179.326 L 95.6408,-178.886 L 95.3805,-178.476 L 95.0707,-178.101 L 94.7165,-177.769 L 94.3234,-177.483
 L 93.8975,-177.249 L 93.4457,-177.07 L 92.9751,-176.949 L 92.493,-176.888 z
M 93.4369,-61.5886 L 94.0451,-61.7447 L 94.6289,-61.9759 L 95.1791,-62.2784 L 95.6871,-62.6474 L 96.1448,-63.0773
 L 96.5451,-63.5611 L 96.8815,-64.0912 L 97.1489,-64.6594 L 97.3429,-65.2566 L 97.4606,-65.8733 L 97.5,-66.5
 L 97.5,-161.5 L 97.4606,-162.127 L 97.3429,-162.743 L 97.1489,-163.341 L 96.8815,-163.909 L 96.5451,-164.439
 L 96.1448,-164.923 L 95.6871,-165.353 L 95.1791,-165.722 L 94.6289,-166.024 L 94.0451,-166.255 L 93.4369,-166.411
 L 92.8139,-166.49 L -92.8139,-166.49 L -93.4369,-166.411 L -94.0451,-166.255 L -94.6289,-166.024 L -95.1791,-165.722
 L -95.6871,-165.353 L -96.1448,-164.923 L -96.5451,-164.439 L -96.8815,-163.909 L -97.1489,-163.341 L -97.3429,-162.743
 L -97.4606,-162.127 L -97.5,-161.5 L -97.5,-66.5 L -97.4606,-65.8733 L -97.3429,-65.2566 L -97.1489,-64.6594
 L -96.8815,-64.0912 L -96.5451,-63.5611 L -96.1448,-63.0773 L -95.6871,-62.6474 L -95.1791,-62.2784 L -94.6289,-61.9759
 L -94.0451,-61.7447 L -93.4369,-61.5886 L -92.8139,-61.5099 L 92.8139,-61.5099 z
M 89.887,-157.204 L 89.6627,-157.232 L 89.4438,-157.288 L 89.2336,-157.371 L 89.0355,-157.48 L 88.8526,-157.613
 L 88.6879,-157.768 L 88.5438,-157.942 L 88.4226,-158.133 L 88.3264,-158.337 L 88.2565,-158.552 L 88.2142,-158.774
 L 88.2,-159 L 88.2142,-159.226 L 88.2565,-159.448 L 88.3264,-159.663 L 88.4226,-159.867 L 88.5438,-160.058
 L 88.6879,-160.232 L 88.8526,-160.387 L 89.0355,-160.52 L 89.2336,-160.629 L 89.4438,-160.712 L 89.6627,-160.768
 L 89.887,-160.796 L 90.113,-160.796 L 90.3373,-160.768 L 90.5562,-160.712 L 90.7664,-160.629 L 90.9645,-160.52
 L 91.1474,-160.387 L 91.3121,-160.232 L 91.4562,-160.058 L 91.5773,-159.867 L 91.6736,-159.663 L 91.7434,-159.448
 L 91.7858,-159.226 L 91.8,-159 L 91.7858,-158.774 L 91.7434,-158.552 L 91.6736,-158.337 L 91.5773,-158.133
 L 91.4562,-157.942 L 91.3121,-157.768 L 91.1474,-157.613 L 90.9645,-157.48 L 90.7664,-157.371 L 90.5562,-157.288
 L 90.3373,-157.232 L 90.113,-157.204 z
M -90.113,-157.204 L -90.3373,-157.232 L -90.5562,-157.288 L -90.7664,-157.371 L -90.9645,-157.48 L -91.1474,-157.613
 L -91.3121,-157.768 L -91.4562,-157.942 L -91.5773,-158.133 L -91.6736,-158.337 L -91.7434,-158.552 L -91.7858,-158.774
 L -91.8,-159 L -91.7858,-159.226 L -91.7434,-159.448 L -91.6736,-159.663 L -91.5773,-159.867 L -91.4562,-160.058
 L -91.3121,-160.232 L -91.1474,-160.387 L -90.9645,-160.52 L -90.7664,-160.629 L -90.5562,-160.712 L -90.3373,-160.768
 L -90.113,-160.796 L -89.887,-160.796 L -89.6627,-160.768 L -89.4438,-160.712 L -89.2336,-160.629 L -89.0355,-160.52
 L -88.8526,-160.387 L -88.6879,-160.232 L -88.5438,-160.058 L -88.4226,-159.867 L -88.3264,-159.663 L -88.2565,-159.448
 L -88.2142,-159.226 L -88.2,-159 L -88.2142,-158.774 L -88.2565,-158.552 L -88.3264,-158.337 L -88.4226,-158.133
 L -88.5438,-157.942 L -88.6879,-157.768 L -88.8526,-157.613 L -89.0355,-157.48 L -89.2336,-157.371 L -89.4438,-157.288
 L -89.6627,-157.232 L -89.887,-157.204 z
M -90.113,-67.2036 L -90.3373,-67.2319 L -90.5562,-67.2881 L -90.7664,-67.3713 L -90.9645,-67.4802 L -91.1474,-67.6131
 L -91.3121,-67.7678 L -91.4562,-67.942 L -91.5773,-68.1328 L -91.6736,-68.3374 L -91.7434,-68.5524 L -91.7858,-68.7744
 L -91.8,-69 L -91.7858,-69.2256 L -91.7434,-69.4476 L -91.6736,-69.6626 L -91.5773,-69.8672 L -91.4562,-70.058
 L -91.3121,-70.2322 L -91.1474,-70.3869 L -90.9645,-70.5198 L -90.7664,-70.6287 L -90.5562,-70.7119 L -90.3373,-70.7681
 L -90.113,-70.7964 L -89.887,-70.7964 L -89.6627,-70.7681 L -89.4438,-70.7119 L -89.2336,-70.6287 L -89.0355,-70.5198
 L -88.8526,-70.3869 L -88.6879,-70.2322 L -88.5438,-70.058 L -88.4226,-69.8672 L -88.3264,-69.6626 L -88.2565,-69.4476
 L -88.2142,-69.2256 L -88.2,-69 L -88.2142,-68.7744 L -88.2565,-68.5524 L -88.3264,-68.3374 L -88.4226,-68.1328
 L -88.5438,-67.942 L -88.6879,-67.7678 L -88.8526,-67.6131 L -89.0355,-67.4802 L -89.2336,-67.3713 L -89.4438,-67.2881
 L -89.6627,-67.2319 L -89.887,-67.2036 z
M 89.887,-67.2036 L 89.6627,-67.2319 L 89.4438,-67.2881 L 89.2336,-67.3713 L 89.0355,-67.4802 L 88.8526,-67.6131
 L 88.6879,-67.7678 L 88.5438,-67.942 L 88.4226,-68.1328 L 88.3264,-68.3374 L 88.2565,-68.5524 L 88.2142,-68.7744
 L 88.2,-69 L 88.2142,-69.2256 L 88.2565,-69.4476 L 88.3264,-69.6626 L 88.4226,-69.8672 L 88.5438,-70.058
 L 88.6879,-70.2322 L 88.8526,-70.3869 L 89.0355,-70.5198 L 89.2336,-70.6287 L 89.4438,-70.7119 L 89.6627,-70.7681
 L 89.887,-70.7964 L 90.113,-70.7964 L 90.3373,-70.7681 L 90.5562,-70.7119 L 90.7664,-70.6287 L 90.9645,-70.5198
 L 91.1474,-70.3869 L 91.3121,-70.2322 L 91.4562,-70.058 L 91.5773,-69.8672 L 91.6736,-69.6626 L 91.7434,-69.4476
 L 91.7858,-69.2256 L 91.8,-69 L 91.7858,-68.7744 L 91.7434,-68.5524 L 91.6736,-68.3374 L 91.5773,-68.1328
 L 91.4562,-67.942 L 91.3121,-67.7678 L 91.1474,-67.6131 L 90.9645,-67.4802 L 90.7664,-67.3713 L 90.5562,-67.2881
 L 90.3373,-67.2319 L 90.113,-67.2036 z
" stroke="black" fill="lightgray" stroke-width="0.5"/>
</svg>
