<?xml version="1.0" standalone="no"?>
<!DOCTYPE svg PUBLIC "-//W3C//DTD SVG 1.1//EN" "http://www.w3.org/Graphics/SVG/1.1/DTD/svg11.dtd">
<svg width="106mm" height="244mm" viewBox="-53 -206 106 244" xmlns="http://www.w3.org/2000/svg" version="1.1">
<title>OpenSCAD Model</title>
<path d="
M -49.5,-130.925 L -49.0451,-130.745 L -48.4369,-130.589 L -47.8139,-130.51 L 47.8139,-130.51 L 48.4369,-130.589
 L 49.0451,-130.745 L 49.6289,-130.976 L 50.1791,-131.278 L 50.6871,-131.647 L 51.1448,-132.077 L 51.5451,-132.561
 L 51.8815,-133.091 L 52.1489,-133.659 L 52.3429,-134.257 L 52.4606,-134.873 L 52.5,-135.5 L 52.5,-200.5
 L 52.4606,-201.127 L 52.3429,-201.743 L 52.1489,-202.341 L 51.8815,-202.909 L 51.5451,-203.439 L 51.1448,-203.923
 L 50.6871,-204.353 L 50.1791,-204.722 L 49.6289,-205.024 L 49.0451,-205.255 L 48.4369,-205.411 L 47.8139,-205.49
 L -47.8139,-205.49 L -48.4369,-205.411 L -49.0451,-205.255 L -49.5,-205.075 L -49.5,-205.49 L -52.5,-205.49
 L -52.5,-130.51 L -49.5,-130.51 z
M -45.1507,-195.605 L -45.4497,-195.643 L -45.7416,-195.717 L -46.0219,-195.828 L -46.286,-195.974 L -46.5298,-196.151
 L -46.7495,-196.357 L -46.9416,-196.589 L -47.1031,-196.844 L -47.2315,-197.117 L -47.3246,-197.403 L -47.3811,-197.699
 L -47.4,-198 L -47.3811,-198.301 L -47.3246,-198.597 L -47.2315,-198.883 L -47.1031,-199.156 L -46.9416,-199.411
 L -46.7495,-199.643 L -46.5298,-199.849 L -46.286,-200.026 L -46.0219,-200.172 L -45.7416,-200.283 L -45.4497,-200.357
 L -45.1507,-200.395 L -44.8493,-200.395 L -44.5503,-200.357 L -44.2584,-200.283 L -43.9781,-200.172 L -43.714,-200.026
 L -43.4702,-199.849 L -43.2505,-199.643 L -43.0583,-199.411 L -42.8969,-199.156 L -42.7685,-198.883 L -42.6754,-198.597
 L -42.6189,-198.301 L -42.6,-198 L -42.6189,-197.699 L -42.6754,-197.403 L -42.7685,-197.117 L -42.8969,-196.844
 L -43.0583,-196.589 L -43.2505,-196.357 L -43.4702,-196.151 L -43.714,-195.974 L -43.9781,-195.828 L -44.2584,-195.717
 L -44.5503,-195.643 L -44.8493,-195.605 z
M 44.8493,-195.605 L 44.5503,-195.643 L 44.2584,-195.717 L 43.9781,-195.828 L 43.714,-195.974 L 43.4702,-196.151
 L 43.2505,-196.357 L 43.0583,-196.589 L 42.8969,-196.844 L 42.7685,-197.117 L 42.6754,-197.403 L 42.6189,-197.699
 L 42.6,-198 L 42.6189,-198.301 L 42.6754,-198.597 L 42.7685,-198.883 L 42.8969,-199.156 L 43.0583,-199.411
 L 43.2505,-199.643 L 43.4702,-199.849 L 43.714,-200.026 L 43.9781,-200.172 L 44.2584,-200.283 L 44.5503,-200.357
 L 44.8493,-200.395 L 45.1507,-200.395 L 45.4497,-200.357 L 45.7416,-200.283 L 46.0219,-200.172 L 46.286,-200.026
 L 46.5298,-199.849 L 46.7495,-199.643 L 46.9416,-199.411 L 47.1031,-199.156 L 47.2315,-198.883 L 47.3246,-198.597
 L 47.3811,-198.301 L 47.4,-198 L 47.3811,-197.699 L 47.3246,-197.403 L 47.2315,-197.117 L 47.1031,-196.844
 L 46.9416,-196.589 L 46.7495,-196.357 L 46.5298,-196.151 L 46.286,-195.974 L 46.0219,-195.828 L 45.7416,-195.717
 L 45.4497,-195.643 L 45.1507,-195.605 z
M 44.8493,-135.605 L 44.5503,-135.643 L 44.2584,-135.717 L 43.9781,-135.828 L 43.714,-135.974 L 43.4702,-136.151
 L 43.2505,-136.357 L 43.0583,-136.589 L 42.8969,-136.844 L 42.7685,-137.117 L 42.6754,-137.403 L 42.6189,-137.699
 L 42.6,-138 L 42.6189,-138.301 L 42.6754,-138.597 L 42.7685,-138.883 L 42.8969,-139.156 L 43.0583,-139.411
 L 43.2505,-139.643 L 43.4702,-139.849 L 43.714,-140.026 L 43.9781,-140.172 L 44.2584,-140.283 L 44.5503,-140.357
 L 44.8493,-140.395 L 45.1507,-140.395 L 45.4497,-140.357 L 45.7416,-140.283 L 46.0219,-140.172 L 46.286,-140.026
 L 46.5298,-139.849 L 46.7495,-139.643 L 46.9416,-139.411 L 47.1031,-139.156 L 47.2315,-138.883 L 47.3246,-138.597
 L 47.3811,-138.301 L 47.4,-138 L 47.3811,-137.699 L 47.3246,-137.403 L 47.2315,-137.117 L 47.1031,-136.844
 L 46.9416,-136.589 L 46.7495,-136.357 L 46.5298,-136.151 L 46.286,-135.974 L 46.0219,-135.828 L 45.7416,-135.717
 L 45.4497,-135.643 L 45.1507,-135.605 z
M -45.1507,-135.605 L -45.4497,-135.643 L -45.7416,-135.717 L -46.0219,-135.828 L -46.286,-135.974 L -46.5298,-136.151
 L -46.7495,-136.357 L -46.9416,-136.589 L -47.1031,-136.844 L -47.2315,-137.117 L -47.3246,-137.403 L -47.3811,-137.699
 L -47.4,-138 L -47.3811,-138.301 L -47.3246,-138.597 L -47.2315,-138.883 L -47.1031,-139.156 L -46.9416,-139.411
 L -46.7495,-139.643 L -46.5298,-139.849 L -46.286,-140.026 L -46.0219,-140.172 L -45.7416,-140.283 L -45.4497,-140.357
 L -45.1507,-140.395 L -44.8493,-140.395 L -44.5503,-140.357 L -44.2584,-140.283 L -43.9781,-140.172 L -43.714,-140.026
 L -43.4702,-139.849 L -43.2505,-139.643 L -43.0583,-139.411 L -42.8969,-139.156 L -42.7685,-138.883 L -42.6754,-138.597
 L -42.6189,-138.301 L -42.6,-138 L -42.6189,-137.699 L -42.6754,-137.403 L -42.7685,-137.117 L -42.8969,-136.844
 L -43.0583,-136.589 L -43.2505,-136.357 L -43.4702,-136.151 L -43.714,-135.974 L -43.9781,-135.828 L -44.2584,-135.717
 L -44.5503,-135.643 L -44.8493,-135.605 z
M -49.5,-46.9248 L -49.0451,-46.7447 L -48.4369,-46.5886 L -47.8139,-46.5099 L 47.8139,-46.5099 L 48.4369,-46.5886
 L 49.0451,-46.7447 L 49.6289,-46.9759 L 50.1791,-47.2784 L 50.6871,-47.6474 L 51.1448,-48.0773 L 51.5451,-48.5611
 L 51.8815,-49.0912 L 52.1489,-49.6594 L 52.3429,-50.2566 L 52.4606,-50.8733 L 52.5,-51.5 L 52.5,-116.5
 L 52.4606,-117.127 L 52.3429,-117.743 L 52.1489,-118.341 L 51.8815,-118.909 L 51.5451,-119.439 L 51.1448,-119.923
 L 50.6871,-120.353 L 50.1791,-120.722 L 49.6289,-121.024 L 49.0451,-121.255 L 48.4369,-121.411 L 47.8139,-121.49
 L -47.8139,-121.49 L -48.4369,-121.411 L -49.0451,-121.255 L -49.5,-121.075 L -49.5,-121.49 L -52.5,-121.49
 L -52.5,-46.5099 L -49.5,-46.5099 z
M -45.113,-112.204 L -45.3373,-112.232 L -45.5562,-112.288 L -45.7664,-112.371 L -45.9645,-112.48 L -46.1474,-112.613
 L -46.3121,-112.768 L -46.4562,-112.942 L -46.5773,-113.133 L -46.6736,-113.337 L -46.7434,-113.552 L -46.7858,-113.774
 L -46.8,-114 L -46.7858,-114.226 L -46.7434,-114.448 L -46.6736,-114.663 L -46.5773,-114.867 L -46.4562,-115.058
 L -46.3121,-115.232 L -46.1474,-115.387 L -45.9645,-115.52 L -45.7664,-115.629 L -45.5562,-115.712 L -45.3373,-115.768
 L -45.113,-115.796 L -44.887,-115.796 L -44.6627,-115.768 L -44.4438,-115.712 L -44.2336,-115.629 L -44.0355,-115.52
 L -43.8526,-115.387 L -43.6879,-115.232 L -43.5438,-115.058 L -43.4226,-114.867 L -43.3264,-114.663 L -43.2565,-114.448
 L -43.2142,-114.226 L -43.2,-114 L -43.2142,-113.774 L -43.2565,-113.552 L -43.3264,-113.337 L -43.4226,-113.133
 L -43.5438,-112.942 L -43.6879,-112.768 L -43.8526,-112.613 L -44.0355,-112.48 L -44.2336,-112.371 L -44.4438,-112.288
 L -44.6627,-112.232 L -44.887,-112.204 z
M 44.887,-112.204 L 44.6627,-112.232 L 44.4438,-112.288 L 44.2336,-112.371 L 44.0355,-112.48 L 43.8526,-112.613
 L 43.6879,-112.768 L 43.5438,-112.942 L 43.4226,-113.133 L 43.3264,-113.337 L 43.2565,-113.552 L 43.2142,-113.774
 L 43.2,-114 L 43.2142,-114.226 L 43.2565,-114.448 L 43.3264,-114.663 L 43.4226,-114.867 L 43.5438,-115.058
 L 43.6879,-115.232 L 43.8526,-115.387 L 44.0355,-115.52 L 44.2336,-115.629 L 44.4438,-115.712 L 44.6627,-115.768
 L 44.887,-115.796 L 45.113,-115.796 L 45.3373,-115.768 L 45.5562,-115.712 L 45.7664,-115.629 L 45.9645,-115.52
 L 46.1474,-115.387 L 46.3121,-115.232 L 46.4562,-115.058 L 46.5773,-114.867 L 46.6736,-114.663 L 46.7434,-114.448
 L 46.7858,-114.226 L 46.8,-114 L 46.7858,-113.774 L 46.7434,-113.552 L 46.6736,-113.337 L 46.5773,-113.133
 L 46.4562,-112.942 L 46.3121,-112.768 L 46.1474,-112.613 L 45.9645,-112.48 L 45.7664,-112.371 L 45.5562,-112.288
 L 45.3373,-112.232 L 45.113,-112.204 z
M -45.113,-52.2036 L -45.3373,-52.2319 L -45.5562,-52.2881 L -45.7664,-52.3713 L -45.9645,-52.4802 L -46.1474,-52.6131
 L -46.3121,-52.7678 L -46.4562,-52.942 L -46.5773,-53.1328 L -46.6736,-53.3374 L -46.7434,-53.5524 L -46.7858,-53.7744
 L -46.8,-54 L -46.7858,-54.2256 L -46.7434,-54.4476 L -46.6736,-54.6626 L -46.5773,-54.8672 L -46.4562,-55.058
 L -46.3121,-55.2322 L -46.1474,-55.3869 L -45.9645,-55.5198 L -45.7664,-55.6287 L -45.5562,-55.7119 L -45.3373,-55.7681
 L -45.113,-55.7964 L -44.887,-55.7964 L -44.6627,-55.7681 L -44.4438,-55.7119 L -44.2336,-55.6287 L -44.0355,-55.5198
 L -43.8526,-55.3869 L -43.6879,-55.2322 L -43.5438,-55.058 L -43.4226,-54.8672 L -43.3264,-54.6626 L -43.2565,-54.4476
 L -43.2142,-54.2256 L -43.2,-54 L -43.2142,-53.7744 L -43.2565,-53.5524 L -43.3264,-53.3374 L -43.4226,-53.1328
 L -43.5438,-52.942 L -43.6879,-52.7678 L -43.8526,-52.6131 L -44.0355,-52.4802 L -44.2336,-52.3713 L -44.4438,-52.2881
 L -44.6627,-52.2319 L -44.887,-52.2036 z
M 44.887,-52.2036 L 44.6627,-52.2319 L 44.4438,-52.2881 L 44.2336,-52.3713 L 44.0355,-52.4802 L 43.8526,-52.6131
 L 43.6879,-52.7678 L 43.5438,-52.942 L 43.4226,-53.1328 L 43.3264,-53.3374 L 43.2565,-53.5524 L 43.2142,-53.7744
 L 43.2,-54 L 43.2142,-54.2256 L 43.2565,-54.4476 L 43.3264,-54.6626 L 43.4226,-54.8672 L 43.5438,-55.058
 L 43.6879,-55.2322 L 43.8526,-55.3869 L 44.0355,-55.5198 L 44.2336,-55.6287 L 44.4438,-55.7119 L 44.6627,-55.7681
 L 44.887,-55.7964 L 45.113,-55.7964 L 45.3373,-55.7681 L 45.5562,-55.7119 L 45.7664,-55.6287 L 45.9645,-55.5198
 L 46.1474,-55.3869 L 46.3121,-55.2322 L 46.4562,-55.058 L 46.5773,-54.8672 L 46.6736,-54.6626 L 46.7434,-54.4476
 L 46.7858,-54.2256 L 46.8,-54 L 46.7858,-53.7744 L 46.7434,-53.5524 L 46.6736,-53.3374 L 46.5773,-53.1328
 L 46.4562,-52.942 L 46.3121,-52.7678 L 46.1474,-52.6131 L 45.9645,-52.4802 L 45.7664,-52.3713 L 45.5562,-52.2881
 L 45.3373,-52.2319 L 45.113,-52.2036 z
M -49.5,-37.1148 L -52.5,-37.1148 L -52.5,37.1148 L -49.5,37.1148 z
" stroke="black" fill="lightgray" stroke-width="0.5"/>
</svg>
