  0
SECTION
  2
BLOCKS
  0
ENDSEC
  0
SECTION
  2
ENTITIES
  0
LINE
  8
0
 10
7.1869
 20
258.089
 11
7.79507
 21
258.245
  0
LINE
  8
0
 10
7.79507
 20
258.245
 11
8.37889
 21
258.476
  0
LINE
  8
0
 10
8.37889
 20
258.476
 11
8.92912
 21
258.778
  0
LINE
  8
0
 10
8.92912
 20
258.778
 11
9.43712
 21
259.147
  0
LINE
  8
0
 10
9.43712
 20
259.147
 11
9.89484
 21
259.577
  0
LINE
  8
0
 10
9.89484
 20
259.577
 11
10.2951
 21
260.061
  0
LINE
  8
0
 10
10.2951
 20
260.061
 11
10.6315
 21
260.591
  0
LINE
  8
0
 10
10.6315
 20
260.591
 11
10.8989
 21
261.159
  0
LINE
  8
0
 10
10.8989
 20
261.159
 11
11.0929
 21
261.757
  0
LINE
  8
0
 10
11.0929
 20
261.757
 11
11.2106
 21
262.373
  0
LINE
  8
0
 10
11.2106
 20
262.373
 11
11.25
 21
263
  0
LINE
  8
0
 10
11.25
 20
263
 11
11.25
 21
283
  0
LINE
  8
0
 10
11.25
 20
283
 11
11.2106
 21
283.627
  0
LINE
  8
0
 10
11.2106
 20
283.627
 11
11.0929
 21
284.243
  0
LINE
  8
0
 10
11.0929
 20
284.243
 11
10.8989
 21
284.841
  0
LINE
  8
0
 10
10.8989
 20
284.841
 11
10.6315
 21
285.409
  0
LINE
  8
0
 10
10.6315
 20
285.409
 11
10.2951
 21
285.939
  0
LINE
  8
0
 10
10.2951
 20
285.939
 11
9.89484
 21
286.423
  0
LINE
  8
0
 10
9.89484
 20
286.423
 11
9.43712
 21
286.853
  0
LINE
  8
0
 10
9.43712
 20
286.853
 11
8.92912
 21
287.222
  0
LINE
  8
0
 10
8.92912
 20
287.222
 11
8.37889
 21
287.524
  0
LINE
  8
0
 10
8.37889
 20
287.524
 11
7.79507
 21
287.755
  0
LINE
  8
0
 10
7.79507
 20
287.755
 11
7.1869
 21
287.911
  0
LINE
  8
0
 10
7.1869
 20
287.911
 11
6.56395
 21
287.99
  0
LINE
  8
0
 10
6.56395
 20
287.99
 11
-6.56395
 21
287.99
  0
LINE
  8
0
 10
-6.56395
 20
287.99
 11
-7.1869
 21
287.911
  0
LINE
  8
0
 10
-7.1869
 20
287.911
 11
-7.79507
 21
287.755
  0
LINE
  8
0
 10
-7.79507
 20
287.755
 11
-8.37889
 21
287.524
  0
LINE
  8
0
 10
-8.37889
 20
287.524
 11
-8.92912
 21
287.222
  0
LINE
  8
0
 10
-8.92912
 20
287.222
 11
-9.43712
 21
286.853
  0
LINE
  8
0
 10
-9.43712
 20
286.853
 11
-9.89484
 21
286.423
  0
LINE
  8
0
 10
-9.89484
 20
286.423
 11
-10.2951
 21
285.939
  0
LINE
  8
0
 10
-10.2951
 20
285.939
 11
-10.6315
 21
285.409
  0
LINE
  8
0
 10
-10.6315
 20
285.409
 11
-10.8989
 21
284.841
  0
LINE
  8
0
 10
-10.8989
 20
284.841
 11
-11.0929
 21
284.243
  0
LINE
  8
0
 10
-11.0929
 20
284.243
 11
-11.2106
 21
283.627
  0
LINE
  8
0
 10
-11.2106
 20
283.627
 11
-11.25
 21
283
  0
LINE
  8
0
 10
-11.25
 20
283
 11
-11.25
 21
263
  0
LINE
  8
0
 10
-11.25
 20
263
 11
-11.2106
 21
262.373
  0
LINE
  8
0
 10
-11.2106
 20
262.373
 11
-11.0929
 21
261.757
  0
LINE
  8
0
 10
-11.0929
 20
261.757
 11
-10.8989
 21
261.159
  0
LINE
  8
0
 10
-10.8989
 20
261.159
 11
-10.6315
 21
260.591
  0
LINE
  8
0
 10
-10.6315
 20
260.591
 11
-10.2951
 21
260.061
  0
LINE
  8
0
 10
-10.2951
 20
260.061
 11
-9.89484
 21
259.577
  0
LINE
  8
0
 10
-9.89484
 20
259.577
 11
-9.43712
 21
259.147
  0
LINE
  8
0
 10
-9.43712
 20
259.147
 11
-8.92912
 21
258.778
  0
LINE
  8
0
 10
-8.92912
 20
258.778
 11
-8.37889
 21
258.476
  0
LINE
  8
0
 10
-8.37889
 20
258.476
 11
-7.79507
 21
258.245
  0
LINE
  8
0
 10
-7.79507
 20
258.245
 11
-7.1869
 21
258.089
  0
LINE
  8
0
 10
-7.1869
 20
258.089
 11
-6.56395
 21
258.01
  0
LINE
  8
0
 10
-6.56395
 20
258.01
 11
6.56395
 21
258.01
  0
LINE
  8
0
 10
6.56395
 20
258.01
 11
7.1869
 21
258.089
  0
LINE
  8
0
 10
-6.00116
 20
259.508
 11
-6.49951
 21
259.571
  0
LINE
  8
0
 10
-6.49951
 20
259.571
 11
-6.98605
 21
259.696
  0
LINE
  8
0
 10
-6.98605
 20
259.696
 11
-7.45311
 21
259.881
  0
LINE
  8
0
 10
-7.45311
 20
259.881
 11
-7.8933
 21
260.123
  0
LINE
  8
0
 10
-7.8933
 20
260.123
 11
-8.29968
 21
260.418
  0
LINE
  8
0
 10
-8.29968
 20
260.418
 11
-8.66586
 21
260.762
  0
LINE
  8
0
 10
-8.66586
 20
260.762
 11
-8.98605
 21
261.149
  0
LINE
  8
0
 10
-8.98605
 20
261.149
 11
-9.25522
 21
261.573
  0
LINE
  8
0
 10
-9.25522
 20
261.573
 11
-9.4691
 21
262.028
  0
LINE
  8
0
 10
-9.4691
 20
262.028
 11
-9.62433
 21
262.505
  0
LINE
  8
0
 10
-9.62433
 20
262.505
 11
-9.71844
 21
262.999
  0
LINE
  8
0
 10
-9.71844
 20
262.999
 11
-9.75
 21
263.5
  0
LINE
  8
0
 10
-9.75
 20
263.5
 11
-9.75
 21
282.5
  0
LINE
  8
0
 10
-9.75
 20
282.5
 11
-9.71844
 21
283.001
  0
LINE
  8
0
 10
-9.71844
 20
283.001
 11
-9.62433
 21
283.495
  0
LINE
  8
0
 10
-9.62433
 20
283.495
 11
-9.4691
 21
283.972
  0
LINE
  8
0
 10
-9.4691
 20
283.972
 11
-9.25522
 21
284.427
  0
LINE
  8
0
 10
-9.25522
 20
284.427
 11
-8.98605
 21
284.851
  0
LINE
  8
0
 10
-8.98605
 20
284.851
 11
-8.66586
 21
285.238
  0
LINE
  8
0
 10
-8.66586
 20
285.238
 11
-8.29968
 21
285.582
  0
LINE
  8
0
 10
-8.29968
 20
285.582
 11
-7.8933
 21
285.877
  0
LINE
  8
0
 10
-7.8933
 20
285.877
 11
-7.45311
 21
286.119
  0
LINE
  8
0
 10
-7.45311
 20
286.119
 11
-6.98605
 21
286.304
  0
LINE
  8
0
 10
-6.98605
 20
286.304
 11
-6.49951
 21
286.429
  0
LINE
  8
0
 10
-6.49951
 20
286.429
 11
-6.00116
 21
286.492
  0
LINE
  8
0
 10
-6.00116
 20
286.492
 11
6.00116
 21
286.492
  0
LINE
  8
0
 10
6.00116
 20
286.492
 11
6.49951
 21
286.429
  0
LINE
  8
0
 10
6.49951
 20
286.429
 11
6.98605
 21
286.304
  0
LINE
  8
0
 10
6.98605
 20
286.304
 11
7.45311
 21
286.119
  0
LINE
  8
0
 10
7.45311
 20
286.119
 11
7.8933
 21
285.877
  0
LINE
  8
0
 10
7.8933
 20
285.877
 11
8.29968
 21
285.582
  0
LINE
  8
0
 10
8.29968
 20
285.582
 11
8.66586
 21
285.238
  0
LINE
  8
0
 10
8.66586
 20
285.238
 11
8.98605
 21
284.851
  0
LINE
  8
0
 10
8.98605
 20
284.851
 11
9.25522
 21
284.427
  0
LINE
  8
0
 10
9.25522
 20
284.427
 11
9.4691
 21
283.972
  0
LINE
  8
0
 10
9.4691
 20
283.972
 11
9.62433
 21
283.495
  0
LINE
  8
0
 10
9.62433
 20
283.495
 11
9.71844
 21
283.001
  0
LINE
  8
0
 10
9.71844
 20
283.001
 11
9.75
 21
282.5
  0
LINE
  8
0
 10
9.75
 20
282.5
 11
9.75
 21
263.5
  0
LINE
  8
0
 10
9.75
 20
263.5
 11
9.71844
 21
262.999
  0
LINE
  8
0
 10
9.71844
 20
262.999
 11
9.62433
 21
262.505
  0
LINE
  8
0
 10
9.62433
 20
262.505
 11
9.4691
 21
262.028
  0
LINE
  8
0
 10
9.4691
 20
262.028
 11
9.25522
 21
261.573
  0
LINE
  8
0
 10
9.25522
 20
261.573
 11
8.98605
 21
261.149
  0
LINE
  8
0
 10
8.98605
 20
261.149
 11
8.66586
 21
260.762
  0
LINE
  8
0
 10
8.66586
 20
260.762
 11
8.29968
 21
260.418
  0
LINE
  8
0
 10
8.29968
 20
260.418
 11
7.8933
 21
260.123
  0
LINE
  8
0
 10
7.8933
 20
260.123
 11
7.45311
 21
259.881
  0
LINE
  8
0
 10
7.45311
 20
259.881
 11
6.98605
 21
259.696
  0
LINE
  8
0
 10
6.98605
 20
259.696
 11
6.49951
 21
259.571
  0
LINE
  8
0
 10
6.49951
 20
259.571
 11
6.00116
 21
259.508
  0
LINE
  8
0
 10
6.00116
 20
259.508
 11
-6.00116
 21
259.508
  0
LINE
  8
0
 10
7.1869
 20
219.089
 11
7.79507
 21
219.245
  0
LINE
  8
0
 10
7.79507
 20
219.245
 11
8.37889
 21
219.476
  0
LINE
  8
0
 10
8.37889
 20
219.476
 11
8.92912
 21
219.778
  0
LINE
  8
0
 10
8.92912
 20
219.778
 11
9.43712
 21
220.147
  0
LINE
  8
0
 10
9.43712
 20
220.147
 11
9.89484
 21
220.577
  0
LINE
  8
0
 10
9.89484
 20
220.577
 11
10.2951
 21
221.061
  0
LINE
  8
0
 10
10.2951
 20
221.061
 11
10.6315
 21
221.591
  0
LINE
  8
0
 10
10.6315
 20
221.591
 11
10.8989
 21
222.159
  0
LINE
  8
0
 10
10.8989
 20
222.159
 11
11.0929
 21
222.757
  0
LINE
  8
0
 10
11.0929
 20
222.757
 11
11.2106
 21
223.373
  0
LINE
  8
0
 10
11.2106
 20
223.373
 11
11.25
 21
224
  0
LINE
  8
0
 10
11.25
 20
224
 11
11.25
 21
244
  0
LINE
  8
0
 10
11.25
 20
244
 11
11.2106
 21
244.627
  0
LINE
  8
0
 10
11.2106
 20
244.627
 11
11.0929
 21
245.243
  0
LINE
  8
0
 10
11.0929
 20
245.243
 11
10.8989
 21
245.841
  0
LINE
  8
0
 10
10.8989
 20
245.841
 11
10.6315
 21
246.409
  0
LINE
  8
0
 10
10.6315
 20
246.409
 11
10.2951
 21
246.939
  0
LINE
  8
0
 10
10.2951
 20
246.939
 11
9.89484
 21
247.423
  0
LINE
  8
0
 10
9.89484
 20
247.423
 11
9.43712
 21
247.853
  0
LINE
  8
0
 10
9.43712
 20
247.853
 11
8.92912
 21
248.222
  0
LINE
  8
0
 10
8.92912
 20
248.222
 11
8.37889
 21
248.524
  0
LINE
  8
0
 10
8.37889
 20
248.524
 11
7.79507
 21
248.755
  0
LINE
  8
0
 10
7.79507
 20
248.755
 11
7.1869
 21
248.911
  0
LINE
  8
0
 10
7.1869
 20
248.911
 11
6.56395
 21
248.99
  0
LINE
  8
0
 10
6.56395
 20
248.99
 11
-6.56395
 21
248.99
  0
LINE
  8
0
 10
-6.56395
 20
248.99
 11
-7.1869
 21
248.911
  0
LINE
  8
0
 10
-7.1869
 20
248.911
 11
-7.79507
 21
248.755
  0
LINE
  8
0
 10
-7.79507
 20
248.755
 11
-8.37889
 21
248.524
  0
LINE
  8
0
 10
-8.37889
 20
248.524
 11
-8.92912
 21
248.222
  0
LINE
  8
0
 10
-8.92912
 20
248.222
 11
-9.43712
 21
247.853
  0
LINE
  8
0
 10
-9.43712
 20
247.853
 11
-9.89484
 21
247.423
  0
LINE
  8
0
 10
-9.89484
 20
247.423
 11
-10.2951
 21
246.939
  0
LINE
  8
0
 10
-10.2951
 20
246.939
 11
-10.6315
 21
246.409
  0
LINE
  8
0
 10
-10.6315
 20
246.409
 11
-10.8989
 21
245.841
  0
LINE
  8
0
 10
-10.8989
 20
245.841
 11
-11.0929
 21
245.243
  0
LINE
  8
0
 10
-11.0929
 20
245.243
 11
-11.2106
 21
244.627
  0
LINE
  8
0
 10
-11.2106
 20
244.627
 11
-11.25
 21
244
  0
LINE
  8
0
 10
-11.25
 20
244
 11
-11.25
 21
224
  0
LINE
  8
0
 10
-11.25
 20
224
 11
-11.2106
 21
223.373
  0
LINE
  8
0
 10
-11.2106
 20
223.373
 11
-11.0929
 21
222.757
  0
LINE
  8
0
 10
-11.0929
 20
222.757
 11
-10.8989
 21
222.159
  0
LINE
  8
0
 10
-10.8989
 20
222.159
 11
-10.6315
 21
221.591
  0
LINE
  8
0
 10
-10.6315
 20
221.591
 11
-10.2951
 21
221.061
  0
LINE
  8
0
 10
-10.2951
 20
221.061
 11
-9.89484
 21
220.577
  0
LINE
  8
0
 10
-9.89484
 20
220.577
 11
-9.43712
 21
220.147
  0
LINE
  8
0
 10
-9.43712
 20
220.147
 11
-8.92912
 21
219.778
  0
LINE
  8
0
 10
-8.92912
 20
219.778
 11
-8.37889
 21
219.476
  0
LINE
  8
0
 10
-8.37889
 20
219.476
 11
-7.79507
 21
219.245
  0
LINE
  8
0
 10
-7.79507
 20
219.245
 11
-7.1869
 21
219.089
  0
LINE
  8
0
 10
-7.1869
 20
219.089
 11
-6.56395
 21
219.01
  0
LINE
  8
0
 10
-6.56395
 20
219.01
 11
6.56395
 21
219.01
  0
LINE
  8
0
 10
6.56395
 20
219.01
 11
7.1869
 21
219.089
  0
LINE
  8
0
 10
-6.00116
 20
220.508
 11
-6.49951
 21
220.571
  0
LINE
  8
0
 10
-6.49951
 20
220.571
 11
-6.98605
 21
220.696
  0
LINE
  8
0
 10
-6.98605
 20
220.696
 11
-7.45311
 21
220.881
  0
LINE
  8
0
 10
-7.45311
 20
220.881
 11
-7.8933
 21
221.123
  0
LINE
  8
0
 10
-7.8933
 20
221.123
 11
-8.29968
 21
221.418
  0
LINE
  8
0
 10
-8.29968
 20
221.418
 11
-8.66586
 21
221.762
  0
LINE
  8
0
 10
-8.66586
 20
221.762
 11
-8.98605
 21
222.149
  0
LINE
  8
0
 10
-8.98605
 20
222.149
 11
-9.25522
 21
222.573
  0
LINE
  8
0
 10
-9.25522
 20
222.573
 11
-9.4691
 21
223.028
  0
LINE
  8
0
 10
-9.4691
 20
223.028
 11
-9.62433
 21
223.505
  0
LINE
  8
0
 10
-9.62433
 20
223.505
 11
-9.71844
 21
223.999
  0
LINE
  8
0
 10
-9.71844
 20
223.999
 11
-9.75
 21
224.5
  0
LINE
  8
0
 10
-9.75
 20
224.5
 11
-9.75
 21
243.5
  0
LINE
  8
0
 10
-9.75
 20
243.5
 11
-9.71844
 21
244.001
  0
LINE
  8
0
 10
-9.71844
 20
244.001
 11
-9.62433
 21
244.495
  0
LINE
  8
0
 10
-9.62433
 20
244.495
 11
-9.4691
 21
244.972
  0
LINE
  8
0
 10
-9.4691
 20
244.972
 11
-9.25522
 21
245.427
  0
LINE
  8
0
 10
-9.25522
 20
245.427
 11
-8.98605
 21
245.851
  0
LINE
  8
0
 10
-8.98605
 20
245.851
 11
-8.66586
 21
246.238
  0
LINE
  8
0
 10
-8.66586
 20
246.238
 11
-8.29968
 21
246.582
  0
LINE
  8
0
 10
-8.29968
 20
246.582
 11
-7.8933
 21
246.877
  0
LINE
  8
0
 10
-7.8933
 20
246.877
 11
-7.45311
 21
247.119
  0
LINE
  8
0
 10
-7.45311
 20
247.119
 11
-6.98605
 21
247.304
  0
LINE
  8
0
 10
-6.98605
 20
247.304
 11
-6.49951
 21
247.429
  0
LINE
  8
0
 10
-6.49951
 20
247.429
 11
-6.00116
 21
247.492
  0
LINE
  8
0
 10
-6.00116
 20
247.492
 11
6.00116
 21
247.492
  0
LINE
  8
0
 10
6.00116
 20
247.492
 11
6.49951
 21
247.429
  0
LINE
  8
0
 10
6.49951
 20
247.429
 11
6.98605
 21
247.304
  0
LINE
  8
0
 10
6.98605
 20
247.304
 11
7.45311
 21
247.119
  0
LINE
  8
0
 10
7.45311
 20
247.119
 11
7.8933
 21
246.877
  0
LINE
  8
0
 10
7.8933
 20
246.877
 11
8.29968
 21
246.582
  0
LINE
  8
0
 10
8.29968
 20
246.582
 11
8.66586
 21
246.238
  0
LINE
  8
0
 10
8.66586
 20
246.238
 11
8.98605
 21
245.851
  0
LINE
  8
0
 10
8.98605
 20
245.851
 11
9.25522
 21
245.427
  0
LINE
  8
0
 10
9.25522
 20
245.427
 11
9.4691
 21
244.972
  0
LINE
  8
0
 10
9.4691
 20
244.972
 11
9.62433
 21
244.495
  0
LINE
  8
0
 10
9.62433
 20
244.495
 11
9.71844
 21
244.001
  0
LINE
  8
0
 10
9.71844
 20
244.001
 11
9.75
 21
243.5
  0
LINE
  8
0
 10
9.75
 20
243.5
 11
9.75
 21
224.5
  0
LINE
  8
0
 10
9.75
 20
224.5
 11
9.71844
 21
223.999
  0
LINE
  8
0
 10
9.71844
 20
223.999
 11
9.62433
 21
223.505
  0
LINE
  8
0
 10
9.62433
 20
223.505
 11
9.4691
 21
223.028
  0
LINE
  8
0
 10
9.4691
 20
223.028
 11
9.25522
 21
222.573
  0
LINE
  8
0
 10
9.25522
 20
222.573
 11
8.98605
 21
222.149
  0
LINE
  8
0
 10
8.98605
 20
222.149
 11
8.66586
 21
221.762
  0
LINE
  8
0
 10
8.66586
 20
221.762
 11
8.29968
 21
221.418
  0
LINE
  8
0
 10
8.29968
 20
221.418
 11
7.8933
 21
221.123
  0
LINE
  8
0
 10
7.8933
 20
221.123
 11
7.45311
 21
220.881
  0
LINE
  8
0
 10
7.45311
 20
220.881
 11
6.98605
 21
220.696
  0
LINE
  8
0
 10
6.98605
 20
220.696
 11
6.49951
 21
220.571
  0
LINE
  8
0
 10
6.49951
 20
220.571
 11
6.00116
 21
220.508
  0
LINE
  8
0
 10
6.00116
 20
220.508
 11
-6.00116
 21
220.508
  0
LINE
  8
0
 10
7.1869
 20
180.089
 11
7.79507
 21
180.245
  0
LINE
  8
0
 10
7.79507
 20
180.245
 11
8.37889
 21
180.476
  0
LINE
  8
0
 10
8.37889
 20
180.476
 11
8.92912
 21
180.778
  0
LINE
  8
0
 10
8.92912
 20
180.778
 11
9.43712
 21
181.147
  0
LINE
  8
0
 10
9.43712
 20
181.147
 11
9.89484
 21
181.577
  0
LINE
  8
0
 10
9.89484
 20
181.577
 11
10.2951
 21
182.061
  0
LINE
  8
0
 10
10.2951
 20
182.061
 11
10.6315
 21
182.591
  0
LINE
  8
0
 10
10.6315
 20
182.591
 11
10.8989
 21
183.159
  0
LINE
  8
0
 10
10.8989
 20
183.159
 11
11.0929
 21
183.757
  0
LINE
  8
0
 10
11.0929
 20
183.757
 11
11.2106
 21
184.373
  0
LINE
  8
0
 10
11.2106
 20
184.373
 11
11.25
 21
185
  0
LINE
  8
0
 10
11.25
 20
185
 11
11.25
 21
205
  0
LINE
  8
0
 10
11.25
 20
205
 11
11.2106
 21
205.627
  0
LINE
  8
0
 10
11.2106
 20
205.627
 11
11.0929
 21
206.243
  0
LINE
  8
0
 10
11.0929
 20
206.243
 11
10.8989
 21
206.841
  0
LINE
  8
0
 10
10.8989
 20
206.841
 11
10.6315
 21
207.409
  0
LINE
  8
0
 10
10.6315
 20
207.409
 11
10.2951
 21
207.939
  0
LINE
  8
0
 10
10.2951
 20
207.939
 11
9.89484
 21
208.423
  0
LINE
  8
0
 10
9.89484
 20
208.423
 11
9.43712
 21
208.853
  0
LINE
  8
0
 10
9.43712
 20
208.853
 11
8.92912
 21
209.222
  0
LINE
  8
0
 10
8.92912
 20
209.222
 11
8.37889
 21
209.524
  0
LINE
  8
0
 10
8.37889
 20
209.524
 11
7.79507
 21
209.755
  0
LINE
  8
0
 10
7.79507
 20
209.755
 11
7.1869
 21
209.911
  0
LINE
  8
0
 10
7.1869
 20
209.911
 11
6.56395
 21
209.99
  0
LINE
  8
0
 10
6.56395
 20
209.99
 11
-6.56395
 21
209.99
  0
LINE
  8
0
 10
-6.56395
 20
209.99
 11
-7.1869
 21
209.911
  0
LINE
  8
0
 10
-7.1869
 20
209.911
 11
-7.79507
 21
209.755
  0
LINE
  8
0
 10
-7.79507
 20
209.755
 11
-8.37889
 21
209.524
  0
LINE
  8
0
 10
-8.37889
 20
209.524
 11
-8.92912
 21
209.222
  0
LINE
  8
0
 10
-8.92912
 20
209.222
 11
-9.43712
 21
208.853
  0
LINE
  8
0
 10
-9.43712
 20
208.853
 11
-9.89484
 21
208.423
  0
LINE
  8
0
 10
-9.89484
 20
208.423
 11
-10.2951
 21
207.939
  0
LINE
  8
0
 10
-10.2951
 20
207.939
 11
-10.6315
 21
207.409
  0
LINE
  8
0
 10
-10.6315
 20
207.409
 11
-10.8989
 21
206.841
  0
LINE
  8
0
 10
-10.8989
 20
206.841
 11
-11.0929
 21
206.243
  0
LINE
  8
0
 10
-11.0929
 20
206.243
 11
-11.2106
 21
205.627
  0
LINE
  8
0
 10
-11.2106
 20
205.627
 11
-11.25
 21
205
  0
LINE
  8
0
 10
-11.25
 20
205
 11
-11.25
 21
185
  0
LINE
  8
0
 10
-11.25
 20
185
 11
-11.2106
 21
184.373
  0
LINE
  8
0
 10
-11.2106
 20
184.373
 11
-11.0929
 21
183.757
  0
LINE
  8
0
 10
-11.0929
 20
183.757
 11
-10.8989
 21
183.159
  0
LINE
  8
0
 10
-10.8989
 20
183.159
 11
-10.6315
 21
182.591
  0
LINE
  8
0
 10
-10.6315
 20
182.591
 11
-10.2951
 21
182.061
  0
LINE
  8
0
 10
-10.2951
 20
182.061
 11
-9.89484
 21
181.577
  0
LINE
  8
0
 10
-9.89484
 20
181.577
 11
-9.43712
 21
181.147
  0
LINE
  8
0
 10
-9.43712
 20
181.147
 11
-8.92912
 21
180.778
  0
LINE
  8
0
 10
-8.92912
 20
180.778
 11
-8.37889
 21
180.476
  0
LINE
  8
0
 10
-8.37889
 20
180.476
 11
-7.79507
 21
180.245
  0
LINE
  8
0
 10
-7.79507
 20
180.245
 11
-7.1869
 21
180.089
  0
LINE
  8
0
 10
-7.1869
 20
180.089
 11
-6.56395
 21
180.01
  0
LINE
  8
0
 10
-6.56395
 20
180.01
 11
6.56395
 21
180.01
  0
LINE
  8
0
 10
6.56395
 20
180.01
 11
7.1869
 21
180.089
  0
LINE
  8
0
 10
-5.94545
 20
182.393
 11
-6.3333
 21
182.442
  0
LINE
  8
0
 10
-6.3333
 20
182.442
 11
-6.71194
 21
182.539
  0
LINE
  8
0
 10
-6.71194
 20
182.539
 11
-7.07541
 21
182.683
  0
LINE
  8
0
 10
-7.07541
 20
182.683
 11
-7.41798
 21
182.872
  0
LINE
  8
0
 10
-7.41798
 20
182.872
 11
-7.73424
 21
183.101
  0
LINE
  8
0
 10
-7.73424
 20
183.101
 11
-8.01921
 21
183.369
  0
LINE
  8
0
 10
-8.01921
 20
183.369
 11
-8.2684
 21
183.67
  0
LINE
  8
0
 10
-8.2684
 20
183.67
 11
-8.47786
 21
184
  0
LINE
  8
0
 10
-8.47786
 20
184
 11
-8.64432
 21
184.354
  0
LINE
  8
0
 10
-8.64432
 20
184.354
 11
-8.76512
 21
184.726
  0
LINE
  8
0
 10
-8.76512
 20
184.726
 11
-8.83836
 21
185.11
  0
LINE
  8
0
 10
-8.83836
 20
185.11
 11
-8.86292
 21
185.5
  0
LINE
  8
0
 10
-8.86292
 20
185.5
 11
-8.86292
 21
204.5
  0
LINE
  8
0
 10
-8.86292
 20
204.5
 11
-8.83836
 21
204.89
  0
LINE
  8
0
 10
-8.83836
 20
204.89
 11
-8.76512
 21
205.274
  0
LINE
  8
0
 10
-8.76512
 20
205.274
 11
-8.64432
 21
205.646
  0
LINE
  8
0
 10
-8.64432
 20
205.646
 11
-8.47786
 21
206
  0
LINE
  8
0
 10
-8.47786
 20
206
 11
-8.2684
 21
206.33
  0
LINE
  8
0
 10
-8.2684
 20
206.33
 11
-8.01921
 21
206.631
  0
LINE
  8
0
 10
-8.01921
 20
206.631
 11
-7.73424
 21
206.899
  0
LINE
  8
0
 10
-7.73424
 20
206.899
 11
-7.41798
 21
207.128
  0
LINE
  8
0
 10
-7.41798
 20
207.128
 11
-7.07541
 21
207.317
  0
LINE
  8
0
 10
-7.07541
 20
207.317
 11
-6.71194
 21
207.461
  0
LINE
  8
0
 10
-6.71194
 20
207.461
 11
-6.3333
 21
207.558
  0
LINE
  8
0
 10
-6.3333
 20
207.558
 11
-5.94545
 21
207.607
  0
LINE
  8
0
 10
-5.94545
 20
207.607
 11
5.94545
 21
207.607
  0
LINE
  8
0
 10
5.94545
 20
207.607
 11
6.3333
 21
207.558
  0
LINE
  8
0
 10
6.3333
 20
207.558
 11
6.71194
 21
207.461
  0
LINE
  8
0
 10
6.71194
 20
207.461
 11
7.07541
 21
207.317
  0
LINE
  8
0
 10
7.07541
 20
207.317
 11
7.41798
 21
207.128
  0
LINE
  8
0
 10
7.41798
 20
207.128
 11
7.73424
 21
206.899
  0
LINE
  8
0
 10
7.73424
 20
206.899
 11
8.01921
 21
206.631
  0
LINE
  8
0
 10
8.01921
 20
206.631
 11
8.2684
 21
206.33
  0
LINE
  8
0
 10
8.2684
 20
206.33
 11
8.47786
 21
206
  0
LINE
  8
0
 10
8.47786
 20
206
 11
8.64432
 21
205.646
  0
LINE
  8
0
 10
8.64432
 20
205.646
 11
8.76512
 21
205.274
  0
LINE
  8
0
 10
8.76512
 20
205.274
 11
8.83836
 21
204.89
  0
LINE
  8
0
 10
8.83836
 20
204.89
 11
8.86292
 21
204.5
  0
LINE
  8
0
 10
8.86292
 20
204.5
 11
8.86292
 21
185.5
  0
LINE
  8
0
 10
8.86292
 20
185.5
 11
8.83836
 21
185.11
  0
LINE
  8
0
 10
8.83836
 20
185.11
 11
8.76512
 21
184.726
  0
LINE
  8
0
 10
8.76512
 20
184.726
 11
8.64432
 21
184.354
  0
LINE
  8
0
 10
8.64432
 20
184.354
 11
8.47786
 21
184
  0
LINE
  8
0
 10
8.47786
 20
184
 11
8.2684
 21
183.67
  0
LINE
  8
0
 10
8.2684
 20
183.67
 11
8.01921
 21
183.369
  0
LINE
  8
0
 10
8.01921
 20
183.369
 11
7.73424
 21
183.101
  0
LINE
  8
0
 10
7.73424
 20
183.101
 11
7.41798
 21
182.872
  0
LINE
  8
0
 10
7.41798
 20
182.872
 11
7.07541
 21
182.683
  0
LINE
  8
0
 10
7.07541
 20
182.683
 11
6.71194
 21
182.539
  0
LINE
  8
0
 10
6.71194
 20
182.539
 11
6.3333
 21
182.442
  0
LINE
  8
0
 10
6.3333
 20
182.442
 11
5.94545
 21
182.393
  0
LINE
  8
0
 10
5.94545
 20
182.393
 11
-5.94545
 21
182.393
  0
LINE
  8
0
 10
7.1869
 20
141.089
 11
7.79507
 21
141.245
  0
LINE
  8
0
 10
7.79507
 20
141.245
 11
8.37889
 21
141.476
  0
LINE
  8
0
 10
8.37889
 20
141.476
 11
8.92912
 21
141.778
  0
LINE
  8
0
 10
8.92912
 20
141.778
 11
9.43712
 21
142.147
  0
LINE
  8
0
 10
9.43712
 20
142.147
 11
9.89484
 21
142.577
  0
LINE
  8
0
 10
9.89484
 20
142.577
 11
10.2951
 21
143.061
  0
LINE
  8
0
 10
10.2951
 20
143.061
 11
10.6315
 21
143.591
  0
LINE
  8
0
 10
10.6315
 20
143.591
 11
10.8989
 21
144.159
  0
LINE
  8
0
 10
10.8989
 20
144.159
 11
11.0929
 21
144.757
  0
LINE
  8
0
 10
11.0929
 20
144.757
 11
11.2106
 21
145.373
  0
LINE
  8
0
 10
11.2106
 20
145.373
 11
11.25
 21
146
  0
LINE
  8
0
 10
11.25
 20
146
 11
11.25
 21
166
  0
LINE
  8
0
 10
11.25
 20
166
 11
11.2106
 21
166.627
  0
LINE
  8
0
 10
11.2106
 20
166.627
 11
11.0929
 21
167.243
  0
LINE
  8
0
 10
11.0929
 20
167.243
 11
10.8989
 21
167.841
  0
LINE
  8
0
 10
10.8989
 20
167.841
 11
10.6315
 21
168.409
  0
LINE
  8
0
 10
10.6315
 20
168.409
 11
10.2951
 21
168.939
  0
LINE
  8
0
 10
10.2951
 20
168.939
 11
9.89484
 21
169.423
  0
LINE
  8
0
 10
9.89484
 20
169.423
 11
9.43712
 21
169.853
  0
LINE
  8
0
 10
9.43712
 20
169.853
 11
8.92912
 21
170.222
  0
LINE
  8
0
 10
8.92912
 20
170.222
 11
8.37889
 21
170.524
  0
LINE
  8
0
 10
8.37889
 20
170.524
 11
7.79507
 21
170.755
  0
LINE
  8
0
 10
7.79507
 20
170.755
 11
7.1869
 21
170.911
  0
LINE
  8
0
 10
7.1869
 20
170.911
 11
6.56395
 21
170.99
  0
LINE
  8
0
 10
6.56395
 20
170.99
 11
-6.56395
 21
170.99
  0
LINE
  8
0
 10
-6.56395
 20
170.99
 11
-7.1869
 21
170.911
  0
LINE
  8
0
 10
-7.1869
 20
170.911
 11
-7.79507
 21
170.755
  0
LINE
  8
0
 10
-7.79507
 20
170.755
 11
-8.37889
 21
170.524
  0
LINE
  8
0
 10
-8.37889
 20
170.524
 11
-8.92912
 21
170.222
  0
LINE
  8
0
 10
-8.92912
 20
170.222
 11
-9.43712
 21
169.853
  0
LINE
  8
0
 10
-9.43712
 20
169.853
 11
-9.89484
 21
169.423
  0
LINE
  8
0
 10
-9.89484
 20
169.423
 11
-10.2951
 21
168.939
  0
LINE
  8
0
 10
-10.2951
 20
168.939
 11
-10.6315
 21
168.409
  0
LINE
  8
0
 10
-10.6315
 20
168.409
 11
-10.8989
 21
167.841
  0
LINE
  8
0
 10
-10.8989
 20
167.841
 11
-11.0929
 21
167.243
  0
LINE
  8
0
 10
-11.0929
 20
167.243
 11
-11.2106
 21
166.627
  0
LINE
  8
0
 10
-11.2106
 20
166.627
 11
-11.25
 21
166
  0
LINE
  8
0
 10
-11.25
 20
166
 11
-11.25
 21
146
  0
LINE
  8
0
 10
-11.25
 20
146
 11
-11.2106
 21
145.373
  0
LINE
  8
0
 10
-11.2106
 20
145.373
 11
-11.0929
 21
144.757
  0
LINE
  8
0
 10
-11.0929
 20
144.757
 11
-10.8989
 21
144.159
  0
LINE
  8
0
 10
-10.8989
 20
144.159
 11
-10.6315
 21
143.591
  0
LINE
  8
0
 10
-10.6315
 20
143.591
 11
-10.2951
 21
143.061
  0
LINE
  8
0
 10
-10.2951
 20
143.061
 11
-9.89484
 21
142.577
  0
LINE
  8
0
 10
-9.89484
 20
142.577
 11
-9.43712
 21
142.147
  0
LINE
  8
0
 10
-9.43712
 20
142.147
 11
-8.92912
 21
141.778
  0
LINE
  8
0
 10
-8.92912
 20
141.778
 11
-8.37889
 21
141.476
  0
LINE
  8
0
 10
-8.37889
 20
141.476
 11
-7.79507
 21
141.245
  0
LINE
  8
0
 10
-7.79507
 20
141.245
 11
-7.1869
 21
141.089
  0
LINE
  8
0
 10
-7.1869
 20
141.089
 11
-6.56395
 21
141.01
  0
LINE
  8
0
 10
-6.56395
 20
141.01
 11
6.56395
 21
141.01
  0
LINE
  8
0
 10
6.56395
 20
141.01
 11
7.1869
 21
141.089
  0
LINE
  8
0
 10
3.61592
 20
161.369
 11
3.34988
 21
161.403
  0
LINE
  8
0
 10
3.34988
 20
161.403
 11
3.09015
 21
161.469
  0
LINE
  8
0
 10
3.09015
 20
161.469
 11
2.84084
 21
161.568
  0
LINE
  8
0
 10
2.84084
 20
161.568
 11
2.60585
 21
161.697
  0
LINE
  8
0
 10
2.60585
 20
161.697
 11
2.3889
 21
161.855
  0
LINE
  8
0
 10
2.3889
 20
161.855
 11
2.19344
 21
162.038
  0
LINE
  8
0
 10
2.19344
 20
162.038
 11
2.02251
 21
162.245
  0
LINE
  8
0
 10
2.02251
 20
162.245
 11
1.87881
 21
162.471
  0
LINE
  8
0
 10
1.87881
 20
162.471
 11
1.76465
 21
162.714
  0
LINE
  8
0
 10
1.76465
 20
162.714
 11
1.68178
 21
162.969
  0
LINE
  8
0
 10
1.68178
 20
162.969
 11
1.63153
 21
163.232
  0
LINE
  8
0
 10
1.63153
 20
163.232
 11
1.6147
 21
163.5
  0
LINE
  8
0
 10
1.6147
 20
163.5
 11
1.63153
 21
163.768
  0
LINE
  8
0
 10
1.63153
 20
163.768
 11
1.68178
 21
164.031
  0
LINE
  8
0
 10
1.68178
 20
164.031
 11
1.76465
 21
164.286
  0
LINE
  8
0
 10
1.76465
 20
164.286
 11
1.87881
 21
164.529
  0
LINE
  8
0
 10
1.87881
 20
164.529
 11
2.02251
 21
164.755
  0
LINE
  8
0
 10
2.02251
 20
164.755
 11
2.19344
 21
164.962
  0
LINE
  8
0
 10
2.19344
 20
164.962
 11
2.3889
 21
165.145
  0
LINE
  8
0
 10
2.3889
 20
165.145
 11
2.60585
 21
165.303
  0
LINE
  8
0
 10
2.60585
 20
165.303
 11
2.84084
 21
165.432
  0
LINE
  8
0
 10
2.84084
 20
165.432
 11
3.09015
 21
165.531
  0
LINE
  8
0
 10
3.09015
 20
165.531
 11
3.34988
 21
165.597
  0
LINE
  8
0
 10
3.34988
 20
165.597
 11
3.61592
 21
165.631
  0
LINE
  8
0
 10
3.61592
 20
165.631
 11
3.88406
 21
165.631
  0
LINE
  8
0
 10
3.88406
 20
165.631
 11
4.1501
 21
165.597
  0
LINE
  8
0
 10
4.1501
 20
165.597
 11
4.40984
 21
165.531
  0
LINE
  8
0
 10
4.40984
 20
165.531
 11
4.65915
 21
165.432
  0
LINE
  8
0
 10
4.65915
 20
165.432
 11
4.89413
 21
165.303
  0
LINE
  8
0
 10
4.89413
 20
165.303
 11
5.11108
 21
165.145
  0
LINE
  8
0
 10
5.11108
 20
165.145
 11
5.30655
 21
164.962
  0
LINE
  8
0
 10
5.30655
 20
164.962
 11
5.47748
 21
164.755
  0
LINE
  8
0
 10
5.47748
 20
164.755
 11
5.62117
 21
164.529
  0
LINE
  8
0
 10
5.62117
 20
164.529
 11
5.73534
 21
164.286
  0
LINE
  8
0
 10
5.73534
 20
164.286
 11
5.81821
 21
164.031
  0
LINE
  8
0
 10
5.81821
 20
164.031
 11
5.86845
 21
163.768
  0
LINE
  8
0
 10
5.86845
 20
163.768
 11
5.88528
 21
163.5
  0
LINE
  8
0
 10
5.88528
 20
163.5
 11
5.86845
 21
163.232
  0
LINE
  8
0
 10
5.86845
 20
163.232
 11
5.81821
 21
162.969
  0
LINE
  8
0
 10
5.81821
 20
162.969
 11
5.73534
 21
162.714
  0
LINE
  8
0
 10
5.73534
 20
162.714
 11
5.62117
 21
162.471
  0
LINE
  8
0
 10
5.62117
 20
162.471
 11
5.47748
 21
162.245
  0
LINE
  8
0
 10
5.47748
 20
162.245
 11
5.30655
 21
162.038
  0
LINE
  8
0
 10
5.30655
 20
162.038
 11
5.11108
 21
161.855
  0
LINE
  8
0
 10
5.11108
 20
161.855
 11
4.89413
 21
161.697
  0
LINE
  8
0
 10
4.89413
 20
161.697
 11
4.65915
 21
161.568
  0
LINE
  8
0
 10
4.65915
 20
161.568
 11
4.40984
 21
161.469
  0
LINE
  8
0
 10
4.40984
 20
161.469
 11
4.1501
 21
161.403
  0
LINE
  8
0
 10
4.1501
 20
161.403
 11
3.88406
 21
161.369
  0
LINE
  8
0
 10
3.88406
 20
161.369
 11
3.61592
 21
161.369
  0
LINE
  8
0
 10
-3.88406
 20
161.369
 11
-4.1501
 21
161.403
  0
LINE
  8
0
 10
-4.1501
 20
161.403
 11
-4.40984
 21
161.469
  0
LINE
  8
0
 10
-4.40984
 20
161.469
 11
-4.65915
 21
161.568
  0
LINE
  8
0
 10
-4.65915
 20
161.568
 11
-4.89413
 21
161.697
  0
LINE
  8
0
 10
-4.89413
 20
161.697
 11
-5.11108
 21
161.855
  0
LINE
  8
0
 10
-5.11108
 20
161.855
 11
-5.30655
 21
162.038
  0
LINE
  8
0
 10
-5.30655
 20
162.038
 11
-5.47748
 21
162.245
  0
LINE
  8
0
 10
-5.47748
 20
162.245
 11
-5.62117
 21
162.471
  0
LINE
  8
0
 10
-5.62117
 20
162.471
 11
-5.73534
 21
162.714
  0
LINE
  8
0
 10
-5.73534
 20
162.714
 11
-5.81821
 21
162.969
  0
LINE
  8
0
 10
-5.81821
 20
162.969
 11
-5.86845
 21
163.232
  0
LINE
  8
0
 10
-5.86845
 20
163.232
 11
-5.88528
 21
163.5
  0
LINE
  8
0
 10
-5.88528
 20
163.5
 11
-5.86845
 21
163.768
  0
LINE
  8
0
 10
-5.86845
 20
163.768
 11
-5.81821
 21
164.031
  0
LINE
  8
0
 10
-5.81821
 20
164.031
 11
-5.73534
 21
164.286
  0
LINE
  8
0
 10
-5.73534
 20
164.286
 11
-5.62117
 21
164.529
  0
LINE
  8
0
 10
-5.62117
 20
164.529
 11
-5.47748
 21
164.755
  0
LINE
  8
0
 10
-5.47748
 20
164.755
 11
-5.30655
 21
164.962
  0
LINE
  8
0
 10
-5.30655
 20
164.962
 11
-5.11108
 21
165.145
  0
LINE
  8
0
 10
-5.11108
 20
165.145
 11
-4.89413
 21
165.303
  0
LINE
  8
0
 10
-4.89413
 20
165.303
 11
-4.65915
 21
165.432
  0
LINE
  8
0
 10
-4.65915
 20
165.432
 11
-4.40984
 21
165.531
  0
LINE
  8
0
 10
-4.40984
 20
165.531
 11
-4.1501
 21
165.597
  0
LINE
  8
0
 10
-4.1501
 20
165.597
 11
-3.88406
 21
165.631
  0
LINE
  8
0
 10
-3.88406
 20
165.631
 11
-3.61592
 21
165.631
  0
LINE
  8
0
 10
-3.61592
 20
165.631
 11
-3.34988
 21
165.597
  0
LINE
  8
0
 10
-3.34988
 20
165.597
 11
-3.09015
 21
165.531
  0
LINE
  8
0
 10
-3.09015
 20
165.531
 11
-2.84084
 21
165.432
  0
LINE
  8
0
 10
-2.84084
 20
165.432
 11
-2.60585
 21
165.303
  0
LINE
  8
0
 10
-2.60585
 20
165.303
 11
-2.3889
 21
165.145
  0
LINE
  8
0
 10
-2.3889
 20
165.145
 11
-2.19344
 21
164.962
  0
LINE
  8
0
 10
-2.19344
 20
164.962
 11
-2.02251
 21
164.755
  0
LINE
  8
0
 10
-2.02251
 20
164.755
 11
-1.87881
 21
164.529
  0
LINE
  8
0
 10
-1.87881
 20
164.529
 11
-1.76465
 21
164.286
  0
LINE
  8
0
 10
-1.76465
 20
164.286
 11
-1.68178
 21
164.031
  0
LINE
  8
0
 10
-1.68178
 20
164.031
 11
-1.63153
 21
163.768
  0
LINE
  8
0
 10
-1.63153
 20
163.768
 11
-1.6147
 21
163.5
  0
LINE
  8
0
 10
-1.6147
 20
163.5
 11
-1.63153
 21
163.232
  0
LINE
  8
0
 10
-1.63153
 20
163.232
 11
-1.68178
 21
162.969
  0
LINE
  8
0
 10
-1.68178
 20
162.969
 11
-1.76465
 21
162.714
  0
LINE
  8
0
 10
-1.76465
 20
162.714
 11
-1.87881
 21
162.471
  0
LINE
  8
0
 10
-1.87881
 20
162.471
 11
-2.02251
 21
162.245
  0
LINE
  8
0
 10
-2.02251
 20
162.245
 11
-2.19344
 21
162.038
  0
LINE
  8
0
 10
-2.19344
 20
162.038
 11
-2.3889
 21
161.855
  0
LINE
  8
0
 10
-2.3889
 20
161.855
 11
-2.60585
 21
161.697
  0
LINE
  8
0
 10
-2.60585
 20
161.697
 11
-2.84084
 21
161.568
  0
LINE
  8
0
 10
-2.84084
 20
161.568
 11
-3.09015
 21
161.469
  0
LINE
  8
0
 10
-3.09015
 20
161.469
 11
-3.34988
 21
161.403
  0
LINE
  8
0
 10
-3.34988
 20
161.403
 11
-3.61592
 21
161.369
  0
LINE
  8
0
 10
-3.61592
 20
161.369
 11
-3.88406
 21
161.369
  0
LINE
  8
0
 10
3.61592
 20
146.369
 11
3.34988
 21
146.403
  0
LINE
  8
0
 10
3.34988
 20
146.403
 11
3.09015
 21
146.469
  0
LINE
  8
0
 10
3.09015
 20
146.469
 11
2.84084
 21
146.568
  0
LINE
  8
0
 10
2.84084
 20
146.568
 11
2.60585
 21
146.697
  0
LINE
  8
0
 10
2.60585
 20
146.697
 11
2.3889
 21
146.855
  0
LINE
  8
0
 10
2.3889
 20
146.855
 11
2.19344
 21
147.038
  0
LINE
  8
0
 10
2.19344
 20
147.038
 11
2.02251
 21
147.245
  0
LINE
  8
0
 10
2.02251
 20
147.245
 11
1.87881
 21
147.471
  0
LINE
  8
0
 10
1.87881
 20
147.471
 11
1.76465
 21
147.714
  0
LINE
  8
0
 10
1.76465
 20
147.714
 11
1.68178
 21
147.969
  0
LINE
  8
0
 10
1.68178
 20
147.969
 11
1.63153
 21
148.232
  0
LINE
  8
0
 10
1.63153
 20
148.232
 11
1.6147
 21
148.5
  0
LINE
  8
0
 10
1.6147
 20
148.5
 11
1.63153
 21
148.768
  0
LINE
  8
0
 10
1.63153
 20
148.768
 11
1.68178
 21
149.031
  0
LINE
  8
0
 10
1.68178
 20
149.031
 11
1.76465
 21
149.286
  0
LINE
  8
0
 10
1.76465
 20
149.286
 11
1.87881
 21
149.529
  0
LINE
  8
0
 10
1.87881
 20
149.529
 11
2.02251
 21
149.755
  0
LINE
  8
0
 10
2.02251
 20
149.755
 11
2.19344
 21
149.962
  0
LINE
  8
0
 10
2.19344
 20
149.962
 11
2.3889
 21
150.145
  0
LINE
  8
0
 10
2.3889
 20
150.145
 11
2.60585
 21
150.303
  0
LINE
  8
0
 10
2.60585
 20
150.303
 11
2.84084
 21
150.432
  0
LINE
  8
0
 10
2.84084
 20
150.432
 11
3.09015
 21
150.531
  0
LINE
  8
0
 10
3.09015
 20
150.531
 11
3.34988
 21
150.597
  0
LINE
  8
0
 10
3.34988
 20
150.597
 11
3.61592
 21
150.631
  0
LINE
  8
0
 10
3.61592
 20
150.631
 11
3.88406
 21
150.631
  0
LINE
  8
0
 10
3.88406
 20
150.631
 11
4.1501
 21
150.597
  0
LINE
  8
0
 10
4.1501
 20
150.597
 11
4.40984
 21
150.531
  0
LINE
  8
0
 10
4.40984
 20
150.531
 11
4.65915
 21
150.432
  0
LINE
  8
0
 10
4.65915
 20
150.432
 11
4.89413
 21
150.303
  0
LINE
  8
0
 10
4.89413
 20
150.303
 11
5.11108
 21
150.145
  0
LINE
  8
0
 10
5.11108
 20
150.145
 11
5.30655
 21
149.962
  0
LINE
  8
0
 10
5.30655
 20
149.962
 11
5.47748
 21
149.755
  0
LINE
  8
0
 10
5.47748
 20
149.755
 11
5.62117
 21
149.529
  0
LINE
  8
0
 10
5.62117
 20
149.529
 11
5.73534
 21
149.286
  0
LINE
  8
0
 10
5.73534
 20
149.286
 11
5.81821
 21
149.031
  0
LINE
  8
0
 10
5.81821
 20
149.031
 11
5.86845
 21
148.768
  0
LINE
  8
0
 10
5.86845
 20
148.768
 11
5.88528
 21
148.5
  0
LINE
  8
0
 10
5.88528
 20
148.5
 11
5.86845
 21
148.232
  0
LINE
  8
0
 10
5.86845
 20
148.232
 11
5.81821
 21
147.969
  0
LINE
  8
0
 10
5.81821
 20
147.969
 11
5.73534
 21
147.714
  0
LINE
  8
0
 10
5.73534
 20
147.714
 11
5.62117
 21
147.471
  0
LINE
  8
0
 10
5.62117
 20
147.471
 11
5.47748
 21
147.245
  0
LINE
  8
0
 10
5.47748
 20
147.245
 11
5.30655
 21
147.038
  0
LINE
  8
0
 10
5.30655
 20
147.038
 11
5.11108
 21
146.855
  0
LINE
  8
0
 10
5.11108
 20
146.855
 11
4.89413
 21
146.697
  0
LINE
  8
0
 10
4.89413
 20
146.697
 11
4.65915
 21
146.568
  0
LINE
  8
0
 10
4.65915
 20
146.568
 11
4.40984
 21
146.469
  0
LINE
  8
0
 10
4.40984
 20
146.469
 11
4.1501
 21
146.403
  0
LINE
  8
0
 10
4.1501
 20
146.403
 11
3.88406
 21
146.369
  0
LINE
  8
0
 10
3.88406
 20
146.369
 11
3.61592
 21
146.369
  0
LINE
  8
0
 10
-3.88406
 20
146.369
 11
-4.1501
 21
146.403
  0
LINE
  8
0
 10
-4.1501
 20
146.403
 11
-4.40984
 21
146.469
  0
LINE
  8
0
 10
-4.40984
 20
146.469
 11
-4.65915
 21
146.568
  0
LINE
  8
0
 10
-4.65915
 20
146.568
 11
-4.89413
 21
146.697
  0
LINE
  8
0
 10
-4.89413
 20
146.697
 11
-5.11108
 21
146.855
  0
LINE
  8
0
 10
-5.11108
 20
146.855
 11
-5.30655
 21
147.038
  0
LINE
  8
0
 10
-5.30655
 20
147.038
 11
-5.47748
 21
147.245
  0
LINE
  8
0
 10
-5.47748
 20
147.245
 11
-5.62117
 21
147.471
  0
LINE
  8
0
 10
-5.62117
 20
147.471
 11
-5.73534
 21
147.714
  0
LINE
  8
0
 10
-5.73534
 20
147.714
 11
-5.81821
 21
147.969
  0
LINE
  8
0
 10
-5.81821
 20
147.969
 11
-5.86845
 21
148.232
  0
LINE
  8
0
 10
-5.86845
 20
148.232
 11
-5.88528
 21
148.5
  0
LINE
  8
0
 10
-5.88528
 20
148.5
 11
-5.86845
 21
148.768
  0
LINE
  8
0
 10
-5.86845
 20
148.768
 11
-5.81821
 21
149.031
  0
LINE
  8
0
 10
-5.81821
 20
149.031
 11
-5.73534
 21
149.286
  0
LINE
  8
0
 10
-5.73534
 20
149.286
 11
-5.62117
 21
149.529
  0
LINE
  8
0
 10
-5.62117
 20
149.529
 11
-5.47748
 21
149.755
  0
LINE
  8
0
 10
-5.47748
 20
149.755
 11
-5.30655
 21
149.962
  0
LINE
  8
0
 10
-5.30655
 20
149.962
 11
-5.11108
 21
150.145
  0
LINE
  8
0
 10
-5.11108
 20
150.145
 11
-4.89413
 21
150.303
  0
LINE
  8
0
 10
-4.89413
 20
150.303
 11
-4.65915
 21
150.432
  0
LINE
  8
0
 10
-4.65915
 20
150.432
 11
-4.40984
 21
150.531
  0
LINE
  8
0
 10
-4.40984
 20
150.531
 11
-4.1501
 21
150.597
  0
LINE
  8
0
 10
-4.1501
 20
150.597
 11
-3.88406
 21
150.631
  0
LINE
  8
0
 10
-3.88406
 20
150.631
 11
-3.61592
 21
150.631
  0
LINE
  8
0
 10
-3.61592
 20
150.631
 11
-3.34988
 21
150.597
  0
LINE
  8
0
 10
-3.34988
 20
150.597
 11
-3.09015
 21
150.531
  0
LINE
  8
0
 10
-3.09015
 20
150.531
 11
-2.84084
 21
150.432
  0
LINE
  8
0
 10
-2.84084
 20
150.432
 11
-2.60585
 21
150.303
  0
LINE
  8
0
 10
-2.60585
 20
150.303
 11
-2.3889
 21
150.145
  0
LINE
  8
0
 10
-2.3889
 20
150.145
 11
-2.19344
 21
149.962
  0
LINE
  8
0
 10
-2.19344
 20
149.962
 11
-2.02251
 21
149.755
  0
LINE
  8
0
 10
-2.02251
 20
149.755
 11
-1.87881
 21
149.529
  0
LINE
  8
0
 10
-1.87881
 20
149.529
 11
-1.76465
 21
149.286
  0
LINE
  8
0
 10
-1.76465
 20
149.286
 11
-1.68178
 21
149.031
  0
LINE
  8
0
 10
-1.68178
 20
149.031
 11
-1.63153
 21
148.768
  0
LINE
  8
0
 10
-1.63153
 20
148.768
 11
-1.6147
 21
148.5
  0
LINE
  8
0
 10
-1.6147
 20
148.5
 11
-1.63153
 21
148.232
  0
LINE
  8
0
 10
-1.63153
 20
148.232
 11
-1.68178
 21
147.969
  0
LINE
  8
0
 10
-1.68178
 20
147.969
 11
-1.76465
 21
147.714
  0
LINE
  8
0
 10
-1.76465
 20
147.714
 11
-1.87881
 21
147.471
  0
LINE
  8
0
 10
-1.87881
 20
147.471
 11
-2.02251
 21
147.245
  0
LINE
  8
0
 10
-2.02251
 20
147.245
 11
-2.19344
 21
147.038
  0
LINE
  8
0
 10
-2.19344
 20
147.038
 11
-2.3889
 21
146.855
  0
LINE
  8
0
 10
-2.3889
 20
146.855
 11
-2.60585
 21
146.697
  0
LINE
  8
0
 10
-2.60585
 20
146.697
 11
-2.84084
 21
146.568
  0
LINE
  8
0
 10
-2.84084
 20
146.568
 11
-3.09015
 21
146.469
  0
LINE
  8
0
 10
-3.09015
 20
146.469
 11
-3.34988
 21
146.403
  0
LINE
  8
0
 10
-3.34988
 20
146.403
 11
-3.61592
 21
146.369
  0
LINE
  8
0
 10
-3.61592
 20
146.369
 11
-3.88406
 21
146.369
  0
ENDSEC
  0
SECTION
  2
OBJECTS
  0
DICTIONARY
  0
ENDSEC
  0
EOF
