<?xml version="1.0" standalone="no"?>
<!DOCTYPE svg PUBLIC "-//W3C//DTD SVG 1.1//EN" "http://www.w3.org/Graphics/SVG/1.1/DTD/svg11.dtd">
<svg width="46mm" height="580mm" viewBox="-23 -1025 46 580" xmlns="http://www.w3.org/2000/svg" version="1.1">
<title>OpenSCAD Model</title>
<path d="
M 18.4369,-739.589 L 19.0451,-739.745 L 19.6289,-739.976 L 20.1791,-740.278 L 20.6871,-740.647 L 21.1448,-741.077
 L 21.5451,-741.561 L 21.8815,-742.091 L 22.1489,-742.659 L 22.3429,-743.257 L 22.4606,-743.873 L 22.5,-744.5
 L 22.5,-1019.5 L 22.4606,-1020.13 L 22.3429,-1020.74 L 22.1489,-1021.34 L 21.8815,-1021.91 L 21.5451,-1022.44
 L 21.1448,-1022.92 L 20.6871,-1023.35 L 20.1791,-1023.72 L 19.6289,-1024.02 L 19.0451,-1024.26 L 18.4369,-1024.41
 L 17.8139,-1024.49 L -17.8139,-1024.49 L -18.4369,-1024.41 L -19.0451,-1024.26 L -19.6289,-1024.02 L -20.1791,-1023.72
 L -20.6871,-1023.35 L -21.1448,-1022.92 L -21.5451,-1022.44 L -21.8815,-1021.91 L -22.1489,-1021.34 L -22.3429,-1020.74
 L -22.4606,-1020.13 L -22.5,-1019.5 L -22.5,-744.5 L -22.4606,-743.873 L -22.3429,-743.257 L -22.1489,-742.659
 L -21.8815,-742.091 L -21.5451,-741.561 L -21.1448,-741.077 L -20.6871,-740.647 L -20.1791,-740.278 L -19.6289,-739.976
 L -19.0451,-739.745 L -18.4369,-739.589 L -17.8139,-739.51 L 17.8139,-739.51 z
M -17.1954,-741.893 L -17.5833,-741.942 L -17.9619,-742.039 L -18.3254,-742.183 L -18.668,-742.372 L -18.9842,-742.601
 L -19.2692,-742.869 L -19.5184,-743.17 L -19.7279,-743.5 L -19.8943,-743.854 L -20.0151,-744.226 L -20.0884,-744.61
 L -20.1129,-745 L -20.1129,-1019 L -20.0884,-1019.39 L -20.0151,-1019.77 L -19.8943,-1020.15 L -19.7279,-1020.5
 L -19.5184,-1020.83 L -19.2692,-1021.13 L -18.9842,-1021.4 L -18.668,-1021.63 L -18.3254,-1021.82 L -17.9619,-1021.96
 L -17.5833,-1022.06 L -17.1954,-1022.11 L 17.1954,-1022.11 L 17.5833,-1022.06 L 17.9619,-1021.96 L 18.3254,-1021.82
 L 18.668,-1021.63 L 18.9842,-1021.4 L 19.2692,-1021.13 L 19.5184,-1020.83 L 19.7279,-1020.5 L 19.8943,-1020.15
 L 20.0151,-1019.77 L 20.0884,-1019.39 L 20.1129,-1019 L 20.1129,-745 L 20.0884,-744.61 L 20.0151,-744.226
 L 19.8943,-743.854 L 19.7279,-743.5 L 19.5184,-743.17 L 19.2692,-742.869 L 18.9842,-742.601 L 18.668,-742.372
 L 18.3254,-742.183 L 17.9619,-742.039 L 17.5833,-741.942 L 17.1954,-741.893 z
M 18.4369,-445.589 L 19.0451,-445.745 L 19.6289,-445.976 L 20.1791,-446.278 L 20.6871,-446.647 L 21.1448,-447.077
 L 21.5451,-447.561 L 21.8815,-448.091 L 22.1489,-448.659 L 22.3429,-449.257 L 22.4606,-449.873 L 22.5,-450.5
 L 22.5,-725.5 L 22.4606,-726.127 L 22.3429,-726.743 L 22.1489,-727.341 L 21.8815,-727.909 L 21.5451,-728.439
 L 21.1448,-728.923 L 20.6871,-729.353 L 20.1791,-729.722 L 19.6289,-730.024 L 19.0451,-730.255 L 18.4369,-730.411
 L 17.8139,-730.49 L -17.8139,-730.49 L -18.4369,-730.411 L -19.0451,-730.255 L -19.6289,-730.024 L -20.1791,-729.722
 L -20.6871,-729.353 L -21.1448,-728.923 L -21.5451,-728.439 L -21.8815,-727.909 L -22.1489,-727.341 L -22.3429,-726.743
 L -22.4606,-726.127 L -22.5,-725.5 L -22.5,-450.5 L -22.4606,-449.873 L -22.3429,-449.257 L -22.1489,-448.659
 L -21.8815,-448.091 L -21.5451,-447.561 L -21.1448,-447.077 L -20.6871,-446.647 L -20.1791,-446.278 L -19.6289,-445.976
 L -19.0451,-445.745 L -18.4369,-445.589 L -17.8139,-445.51 L 17.8139,-445.51 z
M 14.8659,-720.869 L 14.5999,-720.903 L 14.3401,-720.969 L 14.0908,-721.068 L 13.8559,-721.197 L 13.6389,-721.355
 L 13.4434,-721.538 L 13.2725,-721.745 L 13.1288,-721.971 L 13.0146,-722.214 L 12.9318,-722.469 L 12.8815,-722.732
 L 12.8647,-723 L 12.8815,-723.268 L 12.9318,-723.531 L 13.0146,-723.786 L 13.1288,-724.029 L 13.2725,-724.255
 L 13.4434,-724.462 L 13.6389,-724.645 L 13.8559,-724.803 L 14.0908,-724.932 L 14.3401,-725.031 L 14.5999,-725.097
 L 14.8659,-725.131 L 15.1341,-725.131 L 15.4001,-725.097 L 15.6598,-725.031 L 15.9091,-724.932 L 16.1441,-724.803
 L 16.3611,-724.645 L 16.5565,-724.462 L 16.7275,-724.255 L 16.8712,-724.029 L 16.9853,-723.786 L 17.0682,-723.531
 L 17.1185,-723.268 L 17.1353,-723 L 17.1185,-722.732 L 17.0682,-722.469 L 16.9853,-722.214 L 16.8712,-721.971
 L 16.7275,-721.745 L 16.5565,-721.538 L 16.3611,-721.355 L 16.1441,-721.197 L 15.9091,-721.068 L 15.6598,-720.969
 L 15.4001,-720.903 L 15.1341,-720.869 z
M -15.1341,-720.869 L -15.4001,-720.903 L -15.6598,-720.969 L -15.9091,-721.068 L -16.1441,-721.197 L -16.3611,-721.355
 L -16.5565,-721.538 L -16.7275,-721.745 L -16.8712,-721.971 L -16.9853,-722.214 L -17.0682,-722.469 L -17.1185,-722.732
 L -17.1353,-723 L -17.1185,-723.268 L -17.0682,-723.531 L -16.9853,-723.786 L -16.8712,-724.029 L -16.7275,-724.255
 L -16.5565,-724.462 L -16.3611,-724.645 L -16.1441,-724.803 L -15.9091,-724.932 L -15.6598,-725.031 L -15.4001,-725.097
 L -15.1341,-725.131 L -14.8659,-725.131 L -14.5999,-725.097 L -14.3401,-725.031 L -14.0908,-724.932 L -13.8559,-724.803
 L -13.6389,-724.645 L -13.4434,-724.462 L -13.2725,-724.255 L -13.1288,-724.029 L -13.0146,-723.786 L -12.9318,-723.531
 L -12.8815,-723.268 L -12.8647,-723 L -12.8815,-722.732 L -12.9318,-722.469 L -13.0146,-722.214 L -13.1288,-721.971
 L -13.2725,-721.745 L -13.4434,-721.538 L -13.6389,-721.355 L -13.8559,-721.197 L -14.0908,-721.068 L -14.3401,-720.969
 L -14.5999,-720.903 L -14.8659,-720.869 z
M 14.8659,-450.869 L 14.5999,-450.903 L 14.3401,-450.969 L 14.0908,-451.068 L 13.8559,-451.197 L 13.6389,-451.355
 L 13.4434,-451.538 L 13.2725,-451.745 L 13.1288,-451.971 L 13.0146,-452.214 L 12.9318,-452.469 L 12.8815,-452.732
 L 12.8647,-453 L 12.8815,-453.268 L 12.9318,-453.531 L 13.0146,-453.786 L 13.1288,-454.029 L 13.2725,-454.255
 L 13.4434,-454.462 L 13.6389,-454.645 L 13.8559,-454.803 L 14.0908,-454.932 L 14.3401,-455.031 L 14.5999,-455.097
 L 14.8659,-455.131 L 15.1341,-455.131 L 15.4001,-455.097 L 15.6598,-455.031 L 15.9091,-454.932 L 16.1441,-454.803
 L 16.3611,-454.645 L 16.5565,-454.462 L 16.7275,-454.255 L 16.8712,-454.029 L 16.9853,-453.786 L 17.0682,-453.531
 L 17.1185,-453.268 L 17.1353,-453 L 17.1185,-452.732 L 17.0682,-452.469 L 16.9853,-452.214 L 16.8712,-451.971
 L 16.7275,-451.745 L 16.5565,-451.538 L 16.3611,-451.355 L 16.1441,-451.197 L 15.9091,-451.068 L 15.6598,-450.969
 L 15.4001,-450.903 L 15.1341,-450.869 z
M -15.1341,-450.869 L -15.4001,-450.903 L -15.6598,-450.969 L -15.9091,-451.068 L -16.1441,-451.197 L -16.3611,-451.355
 L -16.5565,-451.538 L -16.7275,-451.745 L -16.8712,-451.971 L -16.9853,-452.214 L -17.0682,-452.469 L -17.1185,-452.732
 L -17.1353,-453 L -17.1185,-453.268 L -17.0682,-453.531 L -16.9853,-453.786 L -16.8712,-454.029 L -16.7275,-454.255
 L -16.5565,-454.462 L -16.3611,-454.645 L -16.1441,-454.803 L -15.9091,-454.932 L -15.6598,-455.031 L -15.4001,-455.097
 L -15.1341,-455.131 L -14.8659,-455.131 L -14.5999,-455.097 L -14.3401,-455.031 L -14.0908,-454.932 L -13.8559,-454.803
 L -13.6389,-454.645 L -13.4434,-454.462 L -13.2725,-454.255 L -13.1288,-454.029 L -13.0146,-453.786 L -12.9318,-453.531
 L -12.8815,-453.268 L -12.8647,-453 L -12.8815,-452.732 L -12.9318,-452.469 L -13.0146,-452.214 L -13.1288,-451.971
 L -13.2725,-451.745 L -13.4434,-451.538 L -13.6389,-451.355 L -13.8559,-451.197 L -14.0908,-451.068 L -14.3401,-450.969
 L -14.5999,-450.903 L -14.8659,-450.869 z
" stroke="black" fill="lightgray" stroke-width="0.5"/>
</svg>
