<?xml version="1.0" standalone="no"?>
<!DOCTYPE svg PUBLIC "-//W3C//DTD SVG 1.1//EN" "http://www.w3.org/Graphics/SVG/1.1/DTD/svg11.dtd">
<svg width="196mm" height="369mm" viewBox="-98 -468 196 369" xmlns="http://www.w3.org/2000/svg" version="1.1">
<title>OpenSCAD Model</title>
<path d="
M 93.4369,-288.089 L 94.0451,-288.245 L 94.6289,-288.476 L 95.1791,-288.778 L 95.6871,-289.147 L 96.1448,-289.577
 L 96.5451,-290.061 L 96.8815,-290.591 L 97.1489,-291.159 L 97.3429,-291.757 L 97.4606,-292.373 L 97.5,-293
 L 97.5,-463 L 97.4606,-463.627 L 97.3429,-464.243 L 97.1489,-464.841 L 96.8815,-465.409 L 96.5451,-465.939
 L 96.1448,-466.423 L 95.6871,-466.853 L 95.1791,-467.222 L 94.6289,-467.524 L 94.0451,-467.755 L 93.4369,-467.911
 L 92.8139,-467.99 L -92.8139,-467.99 L -93.4369,-467.911 L -94.0451,-467.755 L -94.6289,-467.524 L -95.1791,-467.222
 L -95.6871,-466.853 L -96.1448,-466.423 L -96.5451,-465.939 L -96.8815,-465.409 L -97.1489,-464.841 L -97.3429,-464.243
 L -97.4606,-463.627 L -97.5,-463 L -97.5,-293 L -97.4606,-292.373 L -97.3429,-291.757 L -97.1489,-291.159
 L -96.8815,-290.591 L -96.5451,-290.061 L -96.1448,-289.577 L -95.6871,-289.147 L -95.1791,-288.778 L -94.6289,-288.476
 L -94.0451,-288.245 L -93.4369,-288.089 L -92.8139,-288.01 L 92.8139,-288.01 z
M -92.493,-289.388 L -92.9751,-289.449 L -93.4457,-289.57 L -93.8975,-289.749 L -94.3234,-289.983 L -94.7165,-290.269
 L -95.0707,-290.601 L -95.3805,-290.976 L -95.6408,-291.386 L -95.8477,-291.826 L -95.9979,-292.288 L -96.089,-292.765
 L -96.1195,-293.25 L -96.1195,-462.75 L -96.089,-463.235 L -95.9979,-463.712 L -95.8477,-464.174 L -95.6408,-464.614
 L -95.3805,-465.024 L -95.0707,-465.399 L -94.7165,-465.731 L -94.3234,-466.017 L -93.8975,-466.251 L -93.4457,-466.43
 L -92.9751,-466.551 L -92.493,-466.612 L 92.493,-466.612 L 92.9751,-466.551 L 93.4457,-466.43 L 93.8975,-466.251
 L 94.3234,-466.017 L 94.7165,-465.731 L 95.0707,-465.399 L 95.3805,-465.024 L 95.6408,-464.614 L 95.8477,-464.174
 L 95.9979,-463.712 L 96.089,-463.235 L 96.1195,-462.75 L 96.1195,-293.25 L 96.089,-292.765 L 95.9979,-292.288
 L 95.8477,-291.826 L 95.6408,-291.386 L 95.3805,-290.976 L 95.0707,-290.601 L 94.7165,-290.269 L 94.3234,-289.983
 L 93.8975,-289.749 L 93.4457,-289.57 L 92.9751,-289.449 L 92.493,-289.388 z
M 93.4369,-99.0886 L 94.0451,-99.2447 L 94.6289,-99.4759 L 95.1791,-99.7784 L 95.6871,-100.147 L 96.1448,-100.577
 L 96.5451,-101.061 L 96.8815,-101.591 L 97.1489,-102.159 L 97.3429,-102.757 L 97.4606,-103.373 L 97.5,-104
 L 97.5,-274 L 97.4606,-274.627 L 97.3429,-275.243 L 97.1489,-275.841 L 96.8815,-276.409 L 96.5451,-276.939
 L 96.1448,-277.423 L 95.6871,-277.853 L 95.1791,-278.222 L 94.6289,-278.524 L 94.0451,-278.755 L 93.4369,-278.911
 L 92.8139,-278.99 L -92.8139,-278.99 L -93.4369,-278.911 L -94.0451,-278.755 L -94.6289,-278.524 L -95.1791,-278.222
 L -95.6871,-277.853 L -96.1448,-277.423 L -96.5451,-276.939 L -96.8815,-276.409 L -97.1489,-275.841 L -97.3429,-275.243
 L -97.4606,-274.627 L -97.5,-274 L -97.5,-104 L -97.4606,-103.373 L -97.3429,-102.757 L -97.1489,-102.159
 L -96.8815,-101.591 L -96.5451,-101.061 L -96.1448,-100.577 L -95.6871,-100.147 L -95.1791,-99.7784 L -94.6289,-99.4759
 L -94.0451,-99.2447 L -93.4369,-99.0886 L -92.8139,-99.0099 L 92.8139,-99.0099 z
M 89.887,-269.704 L 89.6627,-269.732 L 89.4438,-269.788 L 89.2336,-269.871 L 89.0355,-269.98 L 88.8526,-270.113
 L 88.6879,-270.268 L 88.5438,-270.442 L 88.4226,-270.633 L 88.3264,-270.837 L 88.2565,-271.052 L 88.2142,-271.274
 L 88.2,-271.5 L 88.2142,-271.726 L 88.2565,-271.948 L 88.3264,-272.163 L 88.4226,-272.367 L 88.5438,-272.558
 L 88.6879,-272.732 L 88.8526,-272.887 L 89.0355,-273.02 L 89.2336,-273.129 L 89.4438,-273.212 L 89.6627,-273.268
 L 89.887,-273.296 L 90.113,-273.296 L 90.3373,-273.268 L 90.5562,-273.212 L 90.7664,-273.129 L 90.9645,-273.02
 L 91.1474,-272.887 L 91.3121,-272.732 L 91.4562,-272.558 L 91.5773,-272.367 L 91.6736,-272.163 L 91.7434,-271.948
 L 91.7858,-271.726 L 91.8,-271.5 L 91.7858,-271.274 L 91.7434,-271.052 L 91.6736,-270.837 L 91.5773,-270.633
 L 91.4562,-270.442 L 91.3121,-270.268 L 91.1474,-270.113 L 90.9645,-269.98 L 90.7664,-269.871 L 90.5562,-269.788
 L 90.3373,-269.732 L 90.113,-269.704 z
M -90.113,-269.704 L -90.3373,-269.732 L -90.5562,-269.788 L -90.7664,-269.871 L -90.9645,-269.98 L -91.1474,-270.113
 L -91.3121,-270.268 L -91.4562,-270.442 L -91.5773,-270.633 L -91.6736,-270.837 L -91.7434,-271.052 L -91.7858,-271.274
 L -91.8,-271.5 L -91.7858,-271.726 L -91.7434,-271.948 L -91.6736,-272.163 L -91.5773,-272.367 L -91.4562,-272.558
 L -91.3121,-272.732 L -91.1474,-272.887 L -90.9645,-273.02 L -90.7664,-273.129 L -90.5562,-273.212 L -90.3373,-273.268
 L -90.113,-273.296 L -89.887,-273.296 L -89.6627,-273.268 L -89.4438,-273.212 L -89.2336,-273.129 L -89.0355,-273.02
 L -88.8526,-272.887 L -88.6879,-272.732 L -88.5438,-272.558 L -88.4226,-272.367 L -88.3264,-272.163 L -88.2565,-271.948
 L -88.2142,-271.726 L -88.2,-271.5 L -88.2142,-271.274 L -88.2565,-271.052 L -88.3264,-270.837 L -88.4226,-270.633
 L -88.5438,-270.442 L -88.6879,-270.268 L -88.8526,-270.113 L -89.0355,-269.98 L -89.2336,-269.871 L -89.4438,-269.788
 L -89.6627,-269.732 L -89.887,-269.704 z
M -90.113,-104.704 L -90.3373,-104.732 L -90.5562,-104.788 L -90.7664,-104.871 L -90.9645,-104.98 L -91.1474,-105.113
 L -91.3121,-105.268 L -91.4562,-105.442 L -91.5773,-105.633 L -91.6736,-105.837 L -91.7434,-106.052 L -91.7858,-106.274
 L -91.8,-106.5 L -91.7858,-106.726 L -91.7434,-106.948 L -91.6736,-107.163 L -91.5773,-107.367 L -91.4562,-107.558
 L -91.3121,-107.732 L -91.1474,-107.887 L -90.9645,-108.02 L -90.7664,-108.129 L -90.5562,-108.212 L -90.3373,-108.268
 L -90.113,-108.296 L -89.887,-108.296 L -89.6627,-108.268 L -89.4438,-108.212 L -89.2336,-108.129 L -89.0355,-108.02
 L -88.8526,-107.887 L -88.6879,-107.732 L -88.5438,-107.558 L -88.4226,-107.367 L -88.3264,-107.163 L -88.2565,-106.948
 L -88.2142,-106.726 L -88.2,-106.5 L -88.2142,-106.274 L -88.2565,-106.052 L -88.3264,-105.837 L -88.4226,-105.633
 L -88.5438,-105.442 L -88.6879,-105.268 L -88.8526,-105.113 L -89.0355,-104.98 L -89.2336,-104.871 L -89.4438,-104.788
 L -89.6627,-104.732 L -89.887,-104.704 z
M 89.887,-104.704 L 89.6627,-104.732 L 89.4438,-104.788 L 89.2336,-104.871 L 89.0355,-104.98 L 88.8526,-105.113
 L 88.6879,-105.268 L 88.5438,-105.442 L 88.4226,-105.633 L 88.3264,-105.837 L 88.2565,-106.052 L 88.2142,-106.274
 L 88.2,-106.5 L 88.2142,-106.726 L 88.2565,-106.948 L 88.3264,-107.163 L 88.4226,-107.367 L 88.5438,-107.558
 L 88.6879,-107.732 L 88.8526,-107.887 L 89.0355,-108.02 L 89.2336,-108.129 L 89.4438,-108.212 L 89.6627,-108.268
 L 89.887,-108.296 L 90.113,-108.296 L 90.3373,-108.268 L 90.5562,-108.212 L 90.7664,-108.129 L 90.9645,-108.02
 L 91.1474,-107.887 L 91.3121,-107.732 L 91.4562,-107.558 L 91.5773,-107.367 L 91.6736,-107.163 L 91.7434,-106.948
 L 91.7858,-106.726 L 91.8,-106.5 L 91.7858,-106.274 L 91.7434,-106.052 L 91.6736,-105.837 L 91.5773,-105.633
 L 91.4562,-105.442 L 91.3121,-105.268 L 91.1474,-105.113 L 90.9645,-104.98 L 90.7664,-104.871 L 90.5562,-104.788
 L 90.3373,-104.732 L 90.113,-104.704 z
" stroke="black" fill="lightgray" stroke-width="0.5"/>
</svg>
