<?xml version="1.0" standalone="no"?>
<!DOCTYPE svg PUBLIC "-//W3C//DTD SVG 1.1//EN" "http://www.w3.org/Graphics/SVG/1.1/DTD/svg11.dtd">
<svg width="180mm" height="1227mm" viewBox="-90 -2004 180 1227" xmlns="http://www.w3.org/2000/svg" version="1.1">
<title>OpenSCAD Model</title>
<path d="
M 85.9369,-1704.09 L 86.5451,-1704.24 L 87.1289,-1704.48 L 87.6791,-1704.78 L 88.1871,-1705.15 L 88.6448,-1705.58
 L 89.0451,-1706.06 L 89.3815,-1706.59 L 89.6489,-1707.16 L 89.8429,-1707.76 L 89.9606,-1708.37 L 90,-1709
 L 90,-1999 L 89.9606,-1999.63 L 89.8429,-2000.24 L 89.6489,-2000.84 L 89.3815,-2001.41 L 89.0451,-2001.94
 L 88.6448,-2002.42 L 88.1871,-2002.85 L 87.6791,-2003.22 L 87.1289,-2003.52 L 86.5451,-2003.76 L 85.9369,-2003.91
 L 85.3139,-2003.99 L -85.3139,-2003.99 L -85.9369,-2003.91 L -86.5451,-2003.76 L -87.1289,-2003.52 L -87.6791,-2003.22
 L -88.1871,-2002.85 L -88.6448,-2002.42 L -89.0451,-2001.94 L -89.3815,-2001.41 L -89.6489,-2000.84 L -89.8429,-2000.24
 L -89.9606,-1999.63 L -90,-1999 L -90,-1709 L -89.9606,-1708.37 L -89.8429,-1707.76 L -89.6489,-1707.16
 L -89.3815,-1706.59 L -89.0451,-1706.06 L -88.6448,-1705.58 L -88.1871,-1705.15 L -87.6791,-1704.78 L -87.1289,-1704.48
 L -86.5451,-1704.24 L -85.9369,-1704.09 L -85.3139,-1704.01 L 85.3139,-1704.01 z
M -84.7512,-1705.51 L -85.2495,-1705.57 L -85.7361,-1705.7 L -86.2031,-1705.88 L -86.6433,-1706.12 L -87.0497,-1706.42
 L -87.4159,-1706.76 L -87.7361,-1707.15 L -88.0052,-1707.57 L -88.2191,-1708.03 L -88.3743,-1708.51 L -88.4685,-1709
 L -88.5,-1709.5 L -88.5,-1998.5 L -88.4685,-1999 L -88.3743,-1999.49 L -88.2191,-1999.97 L -88.0052,-2000.43
 L -87.7361,-2000.85 L -87.4159,-2001.24 L -87.0497,-2001.58 L -86.6433,-2001.88 L -86.2031,-2002.12 L -85.7361,-2002.3
 L -85.2495,-2002.43 L -84.7512,-2002.49 L 84.7512,-2002.49 L 85.2495,-2002.43 L 85.7361,-2002.3 L 86.2031,-2002.12
 L 86.6433,-2001.88 L 87.0497,-2001.58 L 87.4159,-2001.24 L 87.7361,-2000.85 L 88.0052,-2000.43 L 88.2191,-1999.97
 L 88.3743,-1999.49 L 88.4685,-1999 L 88.5,-1998.5 L 88.5,-1709.5 L 88.4685,-1709 L 88.3743,-1708.51
 L 88.2191,-1708.03 L 88.0052,-1707.57 L 87.7361,-1707.15 L 87.4159,-1706.76 L 87.0497,-1706.42 L 86.6433,-1706.12
 L 86.2031,-1705.88 L 85.7361,-1705.7 L 85.2495,-1705.57 L 84.7512,-1705.51 z
M 85.9369,-1395.09 L 86.5451,-1395.24 L 87.1289,-1395.48 L 87.6791,-1395.78 L 88.1871,-1396.15 L 88.6448,-1396.58
 L 89.0451,-1397.06 L 89.3815,-1397.59 L 89.6489,-1398.16 L 89.8429,-1398.76 L 89.9606,-1399.37 L 90,-1400
 L 90,-1690 L 89.9606,-1690.63 L 89.8429,-1691.24 L 89.6489,-1691.84 L 89.3815,-1692.41 L 89.0451,-1692.94
 L 88.6448,-1693.42 L 88.1871,-1693.85 L 87.6791,-1694.22 L 87.1289,-1694.52 L 86.5451,-1694.76 L 85.9369,-1694.91
 L 85.3139,-1694.99 L -85.3139,-1694.99 L -85.9369,-1694.91 L -86.5451,-1694.76 L -87.1289,-1694.52 L -87.6791,-1694.22
 L -88.1871,-1693.85 L -88.6448,-1693.42 L -89.0451,-1692.94 L -89.3815,-1692.41 L -89.6489,-1691.84 L -89.8429,-1691.24
 L -89.9606,-1690.63 L -90,-1690 L -90,-1400 L -89.9606,-1399.37 L -89.8429,-1398.76 L -89.6489,-1398.16
 L -89.3815,-1397.59 L -89.0451,-1397.06 L -88.6448,-1396.58 L -88.1871,-1396.15 L -87.6791,-1395.78 L -87.1289,-1395.48
 L -86.5451,-1395.24 L -85.9369,-1395.09 L -85.3139,-1395.01 L 85.3139,-1395.01 z
M -84.7432,-1396.64 L -85.2256,-1396.7 L -85.6967,-1396.82 L -86.1489,-1397 L -86.5751,-1397.23 L -86.9685,-1397.52
 L -87.323,-1397.85 L -87.633,-1398.22 L -87.8936,-1398.63 L -88.1007,-1399.07 L -88.251,-1399.54 L -88.3421,-1400.01
 L -88.3726,-1400.5 L -88.3726,-1689.5 L -88.3421,-1689.99 L -88.251,-1690.46 L -88.1007,-1690.93 L -87.8936,-1691.37
 L -87.633,-1691.78 L -87.323,-1692.15 L -86.9685,-1692.48 L -86.5751,-1692.77 L -86.1489,-1693 L -85.6967,-1693.18
 L -85.2256,-1693.3 L -84.7432,-1693.36 L 84.7432,-1693.36 L 85.2256,-1693.3 L 85.6967,-1693.18 L 86.1489,-1693
 L 86.5751,-1692.77 L 86.9685,-1692.48 L 87.323,-1692.15 L 87.633,-1691.78 L 87.8936,-1691.37 L 88.1007,-1690.93
 L 88.251,-1690.46 L 88.3421,-1689.99 L 88.3726,-1689.5 L 88.3726,-1400.5 L 88.3421,-1400.01 L 88.251,-1399.54
 L 88.1007,-1399.07 L 87.8936,-1398.63 L 87.633,-1398.22 L 87.323,-1397.85 L 86.9685,-1397.52 L 86.5751,-1397.23
 L 86.1489,-1397 L 85.6967,-1396.82 L 85.2256,-1396.7 L 84.7432,-1396.64 z
M 85.9369,-1086.09 L 86.5451,-1086.24 L 87.1289,-1086.48 L 87.6791,-1086.78 L 88.1871,-1087.15 L 88.6448,-1087.58
 L 89.0451,-1088.06 L 89.3815,-1088.59 L 89.6489,-1089.16 L 89.8429,-1089.76 L 89.9606,-1090.37 L 90,-1091
 L 90,-1381 L 89.9606,-1381.63 L 89.8429,-1382.24 L 89.6489,-1382.84 L 89.3815,-1383.41 L 89.0451,-1383.94
 L 88.6448,-1384.42 L 88.1871,-1384.85 L 87.6791,-1385.22 L 87.1289,-1385.52 L 86.5451,-1385.76 L 85.9369,-1385.91
 L 85.3139,-1385.99 L -85.3139,-1385.99 L -85.9369,-1385.91 L -86.5451,-1385.76 L -87.1289,-1385.52 L -87.6791,-1385.22
 L -88.1871,-1384.85 L -88.6448,-1384.42 L -89.0451,-1383.94 L -89.3815,-1383.41 L -89.6489,-1382.84 L -89.8429,-1382.24
 L -89.9606,-1381.63 L -90,-1381 L -90,-1091 L -89.9606,-1090.37 L -89.8429,-1089.76 L -89.6489,-1089.16
 L -89.3815,-1088.59 L -89.0451,-1088.06 L -88.6448,-1087.58 L -88.1871,-1087.15 L -87.6791,-1086.78 L -87.1289,-1086.48
 L -86.5451,-1086.24 L -85.9369,-1086.09 L -85.3139,-1086.01 L 85.3139,-1086.01 z
M -82.6507,-1376.1 L -82.9497,-1376.14 L -83.2416,-1376.22 L -83.5219,-1376.33 L -83.786,-1376.47 L -84.0298,-1376.65
 L -84.2495,-1376.86 L -84.4416,-1377.09 L -84.6031,-1377.34 L -84.7315,-1377.62 L -84.8246,-1377.9 L -84.8811,-1378.2
 L -84.9,-1378.5 L -84.8811,-1378.8 L -84.8246,-1379.1 L -84.7315,-1379.38 L -84.6031,-1379.66 L -84.4416,-1379.91
 L -84.2495,-1380.14 L -84.0298,-1380.35 L -83.786,-1380.53 L -83.5219,-1380.67 L -83.2416,-1380.78 L -82.9497,-1380.86
 L -82.6507,-1380.9 L -82.3493,-1380.9 L -82.0503,-1380.86 L -81.7584,-1380.78 L -81.4781,-1380.67 L -81.214,-1380.53
 L -80.9702,-1380.35 L -80.7505,-1380.14 L -80.5583,-1379.91 L -80.3969,-1379.66 L -80.2685,-1379.38 L -80.1754,-1379.1
 L -80.1189,-1378.8 L -80.1,-1378.5 L -80.1189,-1378.2 L -80.1754,-1377.9 L -80.2685,-1377.62 L -80.3969,-1377.34
 L -80.5583,-1377.09 L -80.7505,-1376.86 L -80.9702,-1376.65 L -81.214,-1376.47 L -81.4781,-1376.33 L -81.7584,-1376.22
 L -82.0503,-1376.14 L -82.3493,-1376.1 z
M 82.3493,-1376.1 L 82.0503,-1376.14 L 81.7584,-1376.22 L 81.4781,-1376.33 L 81.214,-1376.47 L 80.9702,-1376.65
 L 80.7505,-1376.86 L 80.5583,-1377.09 L 80.3969,-1377.34 L 80.2685,-1377.62 L 80.1754,-1377.9 L 80.1189,-1378.2
 L 80.1,-1378.5 L 80.1189,-1378.8 L 80.1754,-1379.1 L 80.2685,-1379.38 L 80.3969,-1379.66 L 80.5583,-1379.91
 L 80.7505,-1380.14 L 80.9702,-1380.35 L 81.214,-1380.53 L 81.4781,-1380.67 L 81.7584,-1380.78 L 82.0503,-1380.86
 L 82.3493,-1380.9 L 82.6507,-1380.9 L 82.9497,-1380.86 L 83.2416,-1380.78 L 83.5219,-1380.67 L 83.786,-1380.53
 L 84.0298,-1380.35 L 84.2495,-1380.14 L 84.4416,-1379.91 L 84.6031,-1379.66 L 84.7315,-1379.38 L 84.8246,-1379.1
 L 84.8811,-1378.8 L 84.9,-1378.5 L 84.8811,-1378.2 L 84.8246,-1377.9 L 84.7315,-1377.62 L 84.6031,-1377.34
 L 84.4416,-1377.09 L 84.2495,-1376.86 L 84.0298,-1376.65 L 83.786,-1376.47 L 83.5219,-1376.33 L 83.2416,-1376.22
 L 82.9497,-1376.14 L 82.6507,-1376.1 z
M 82.3493,-1091.1 L 82.0503,-1091.14 L 81.7584,-1091.22 L 81.4781,-1091.33 L 81.214,-1091.47 L 80.9702,-1091.65
 L 80.7505,-1091.86 L 80.5583,-1092.09 L 80.3969,-1092.34 L 80.2685,-1092.62 L 80.1754,-1092.9 L 80.1189,-1093.2
 L 80.1,-1093.5 L 80.1189,-1093.8 L 80.1754,-1094.1 L 80.2685,-1094.38 L 80.3969,-1094.66 L 80.5583,-1094.91
 L 80.7505,-1095.14 L 80.9702,-1095.35 L 81.214,-1095.53 L 81.4781,-1095.67 L 81.7584,-1095.78 L 82.0503,-1095.86
 L 82.3493,-1095.9 L 82.6507,-1095.9 L 82.9497,-1095.86 L 83.2416,-1095.78 L 83.5219,-1095.67 L 83.786,-1095.53
 L 84.0298,-1095.35 L 84.2495,-1095.14 L 84.4416,-1094.91 L 84.6031,-1094.66 L 84.7315,-1094.38 L 84.8246,-1094.1
 L 84.8811,-1093.8 L 84.9,-1093.5 L 84.8811,-1093.2 L 84.8246,-1092.9 L 84.7315,-1092.62 L 84.6031,-1092.34
 L 84.4416,-1092.09 L 84.2495,-1091.86 L 84.0298,-1091.65 L 83.786,-1091.47 L 83.5219,-1091.33 L 83.2416,-1091.22
 L 82.9497,-1091.14 L 82.6507,-1091.1 z
M -82.6507,-1091.1 L -82.9497,-1091.14 L -83.2416,-1091.22 L -83.5219,-1091.33 L -83.786,-1091.47 L -84.0298,-1091.65
 L -84.2495,-1091.86 L -84.4416,-1092.09 L -84.6031,-1092.34 L -84.7315,-1092.62 L -84.8246,-1092.9 L -84.8811,-1093.2
 L -84.9,-1093.5 L -84.8811,-1093.8 L -84.8246,-1094.1 L -84.7315,-1094.38 L -84.6031,-1094.66 L -84.4416,-1094.91
 L -84.2495,-1095.14 L -84.0298,-1095.35 L -83.786,-1095.53 L -83.5219,-1095.67 L -83.2416,-1095.78 L -82.9497,-1095.86
 L -82.6507,-1095.9 L -82.3493,-1095.9 L -82.0503,-1095.86 L -81.7584,-1095.78 L -81.4781,-1095.67 L -81.214,-1095.53
 L -80.9702,-1095.35 L -80.7505,-1095.14 L -80.5583,-1094.91 L -80.3969,-1094.66 L -80.2685,-1094.38 L -80.1754,-1094.1
 L -80.1189,-1093.8 L -80.1,-1093.5 L -80.1189,-1093.2 L -80.1754,-1092.9 L -80.2685,-1092.62 L -80.3969,-1092.34
 L -80.5583,-1092.09 L -80.7505,-1091.86 L -80.9702,-1091.65 L -81.214,-1091.47 L -81.4781,-1091.33 L -81.7584,-1091.22
 L -82.0503,-1091.14 L -82.3493,-1091.1 z
M 85.9369,-777.089 L 86.5451,-777.245 L 87.1289,-777.476 L 87.6791,-777.778 L 88.1871,-778.147 L 88.6448,-778.577
 L 89.0451,-779.061 L 89.3815,-779.591 L 89.6489,-780.159 L 89.8429,-780.757 L 89.9606,-781.373 L 90,-782
 L 90,-1072 L 89.9606,-1072.63 L 89.8429,-1073.24 L 89.6489,-1073.84 L 89.3815,-1074.41 L 89.0451,-1074.94
 L 88.6448,-1075.42 L 88.1871,-1075.85 L 87.6791,-1076.22 L 87.1289,-1076.52 L 86.5451,-1076.76 L 85.9369,-1076.91
 L 85.3139,-1076.99 L -85.3139,-1076.99 L -85.9369,-1076.91 L -86.5451,-1076.76 L -87.1289,-1076.52 L -87.6791,-1076.22
 L -88.1871,-1075.85 L -88.6448,-1075.42 L -89.0451,-1074.94 L -89.3815,-1074.41 L -89.6489,-1073.84 L -89.8429,-1073.24
 L -89.9606,-1072.63 L -90,-1072 L -90,-782 L -89.9606,-781.373 L -89.8429,-780.757 L -89.6489,-780.159
 L -89.3815,-779.591 L -89.0451,-779.061 L -88.6448,-778.577 L -88.1871,-778.147 L -87.6791,-777.778 L -87.1289,-777.476
 L -86.5451,-777.245 L -85.9369,-777.089 L -85.3139,-777.01 L 85.3139,-777.01 z
M 82.387,-1067.7 L 82.1627,-1067.73 L 81.9438,-1067.79 L 81.7336,-1067.87 L 81.5355,-1067.98 L 81.3526,-1068.11
 L 81.1879,-1068.27 L 81.0438,-1068.44 L 80.9226,-1068.63 L 80.8264,-1068.84 L 80.7565,-1069.05 L 80.7142,-1069.27
 L 80.7,-1069.5 L 80.7142,-1069.73 L 80.7565,-1069.95 L 80.8264,-1070.16 L 80.9226,-1070.37 L 81.0438,-1070.56
 L 81.1879,-1070.73 L 81.3526,-1070.89 L 81.5355,-1071.02 L 81.7336,-1071.13 L 81.9438,-1071.21 L 82.1627,-1071.27
 L 82.387,-1071.3 L 82.613,-1071.3 L 82.8373,-1071.27 L 83.0562,-1071.21 L 83.2664,-1071.13 L 83.4645,-1071.02
 L 83.6474,-1070.89 L 83.8121,-1070.73 L 83.9562,-1070.56 L 84.0773,-1070.37 L 84.1736,-1070.16 L 84.2434,-1069.95
 L 84.2858,-1069.73 L 84.3,-1069.5 L 84.2858,-1069.27 L 84.2434,-1069.05 L 84.1736,-1068.84 L 84.0773,-1068.63
 L 83.9562,-1068.44 L 83.8121,-1068.27 L 83.6474,-1068.11 L 83.4645,-1067.98 L 83.2664,-1067.87 L 83.0562,-1067.79
 L 82.8373,-1067.73 L 82.613,-1067.7 z
M -82.613,-1067.7 L -82.8373,-1067.73 L -83.0562,-1067.79 L -83.2664,-1067.87 L -83.4645,-1067.98 L -83.6474,-1068.11
 L -83.8121,-1068.27 L -83.9562,-1068.44 L -84.0773,-1068.63 L -84.1736,-1068.84 L -84.2434,-1069.05 L -84.2858,-1069.27
 L -84.3,-1069.5 L -84.2858,-1069.73 L -84.2434,-1069.95 L -84.1736,-1070.16 L -84.0773,-1070.37 L -83.9562,-1070.56
 L -83.8121,-1070.73 L -83.6474,-1070.89 L -83.4645,-1071.02 L -83.2664,-1071.13 L -83.0562,-1071.21 L -82.8373,-1071.27
 L -82.613,-1071.3 L -82.387,-1071.3 L -82.1627,-1071.27 L -81.9438,-1071.21 L -81.7336,-1071.13 L -81.5355,-1071.02
 L -81.3526,-1070.89 L -81.1879,-1070.73 L -81.0438,-1070.56 L -80.9226,-1070.37 L -80.8264,-1070.16 L -80.7565,-1069.95
 L -80.7142,-1069.73 L -80.7,-1069.5 L -80.7142,-1069.27 L -80.7565,-1069.05 L -80.8264,-1068.84 L -80.9226,-1068.63
 L -81.0438,-1068.44 L -81.1879,-1068.27 L -81.3526,-1068.11 L -81.5355,-1067.98 L -81.7336,-1067.87 L -81.9438,-1067.79
 L -82.1627,-1067.73 L -82.387,-1067.7 z
M -82.613,-782.704 L -82.8373,-782.732 L -83.0562,-782.788 L -83.2664,-782.871 L -83.4645,-782.98 L -83.6474,-783.113
 L -83.8121,-783.268 L -83.9562,-783.442 L -84.0773,-783.633 L -84.1736,-783.837 L -84.2434,-784.052 L -84.2858,-784.274
 L -84.3,-784.5 L -84.2858,-784.726 L -84.2434,-784.948 L -84.1736,-785.163 L -84.0773,-785.367 L -83.9562,-785.558
 L -83.8121,-785.732 L -83.6474,-785.887 L -83.4645,-786.02 L -83.2664,-786.129 L -83.0562,-786.212 L -82.8373,-786.268
 L -82.613,-786.296 L -82.387,-786.296 L -82.1627,-786.268 L -81.9438,-786.212 L -81.7336,-786.129 L -81.5355,-786.02
 L -81.3526,-785.887 L -81.1879,-785.732 L -81.0438,-785.558 L -80.9226,-785.367 L -80.8264,-785.163 L -80.7565,-784.948
 L -80.7142,-784.726 L -80.7,-784.5 L -80.7142,-784.274 L -80.7565,-784.052 L -80.8264,-783.837 L -80.9226,-783.633
 L -81.0438,-783.442 L -81.1879,-783.268 L -81.3526,-783.113 L -81.5355,-782.98 L -81.7336,-782.871 L -81.9438,-782.788
 L -82.1627,-782.732 L -82.387,-782.704 z
M 82.387,-782.704 L 82.1627,-782.732 L 81.9438,-782.788 L 81.7336,-782.871 L 81.5355,-782.98 L 81.3526,-783.113
 L 81.1879,-783.268 L 81.0438,-783.442 L 80.9226,-783.633 L 80.8264,-783.837 L 80.7565,-784.052 L 80.7142,-784.274
 L 80.7,-784.5 L 80.7142,-784.726 L 80.7565,-784.948 L 80.8264,-785.163 L 80.9226,-785.367 L 81.0438,-785.558
 L 81.1879,-785.732 L 81.3526,-785.887 L 81.5355,-786.02 L 81.7336,-786.129 L 81.9438,-786.212 L 82.1627,-786.268
 L 82.387,-786.296 L 82.613,-786.296 L 82.8373,-786.268 L 83.0562,-786.212 L 83.2664,-786.129 L 83.4645,-786.02
 L 83.6474,-785.887 L 83.8121,-785.732 L 83.9562,-785.558 L 84.0773,-785.367 L 84.1736,-785.163 L 84.2434,-784.948
 L 84.2858,-784.726 L 84.3,-784.5 L 84.2858,-784.274 L 84.2434,-784.052 L 84.1736,-783.837 L 84.0773,-783.633
 L 83.9562,-783.442 L 83.8121,-783.268 L 83.6474,-783.113 L 83.4645,-782.98 L 83.2664,-782.871 L 83.0562,-782.788
 L 82.8373,-782.732 L 82.613,-782.704 z
" stroke="black" fill="lightgray" stroke-width="0.5"/>
</svg>
