<?xml version="1.0" standalone="no"?>
<!DOCTYPE svg PUBLIC "-//W3C//DTD SVG 1.1//EN" "http://www.w3.org/Graphics/SVG/1.1/DTD/svg11.dtd">
<svg width="120mm" height="1476mm" viewBox="-60 -2916 120 1476" xmlns="http://www.w3.org/2000/svg" version="1.1">
<title>OpenSCAD Model</title>
<path d="
M 55.9369,-2826.09 L 56.5451,-2826.24 L 57.1289,-2826.48 L 57.6791,-2826.78 L 58.1871,-2827.15 L 58.6448,-2827.58
 L 59.0451,-2828.06 L 59.3815,-2828.59 L 59.6489,-2829.16 L 59.8429,-2829.76 L 59.9606,-2830.37 L 60,-2831
 L 60,-2911 L 59.9606,-2911.63 L 59.8429,-2912.24 L 59.6489,-2912.84 L 59.3815,-2913.41 L 59.0451,-2913.94
 L 58.6448,-2914.42 L 58.1871,-2914.85 L 57.6791,-2915.22 L 57.1289,-2915.52 L 56.5451,-2915.76 L 55.9369,-2915.91
 L 55.3139,-2915.99 L -55.3139,-2915.99 L -55.9369,-2915.91 L -56.5451,-2915.76 L -57.1289,-2915.52 L -57.6791,-2915.22
 L -58.1871,-2914.85 L -58.6448,-2914.42 L -59.0451,-2913.94 L -59.3815,-2913.41 L -59.6489,-2912.84 L -59.8429,-2912.24
 L -59.9606,-2911.63 L -60,-2911 L -60,-2831 L -59.9606,-2830.37 L -59.8429,-2829.76 L -59.6489,-2829.16
 L -59.3815,-2828.59 L -59.0451,-2828.06 L -58.6448,-2827.58 L -58.1871,-2827.15 L -57.6791,-2826.78 L -57.1289,-2826.48
 L -56.5451,-2826.24 L -55.9369,-2826.09 L -55.3139,-2826.01 L 55.3139,-2826.01 z
M -54.7512,-2827.51 L -55.2495,-2827.57 L -55.7361,-2827.7 L -56.2031,-2827.88 L -56.6433,-2828.12 L -57.0497,-2828.42
 L -57.4159,-2828.76 L -57.7361,-2829.15 L -58.0052,-2829.57 L -58.2191,-2830.03 L -58.3743,-2830.51 L -58.4685,-2831
 L -58.5,-2831.5 L -58.5,-2910.5 L -58.4685,-2911 L -58.3743,-2911.49 L -58.2191,-2911.97 L -58.0052,-2912.43
 L -57.7361,-2912.85 L -57.4159,-2913.24 L -57.0497,-2913.58 L -56.6433,-2913.88 L -56.2031,-2914.12 L -55.7361,-2914.3
 L -55.2495,-2914.43 L -54.7512,-2914.49 L 54.7512,-2914.49 L 55.2495,-2914.43 L 55.7361,-2914.3 L 56.2031,-2914.12
 L 56.6433,-2913.88 L 57.0497,-2913.58 L 57.4159,-2913.24 L 57.7361,-2912.85 L 58.0052,-2912.43 L 58.2191,-2911.97
 L 58.3743,-2911.49 L 58.4685,-2911 L 58.5,-2910.5 L 58.5,-2831.5 L 58.4685,-2831 L 58.3743,-2830.51
 L 58.2191,-2830.03 L 58.0052,-2829.57 L 57.7361,-2829.15 L 57.4159,-2828.76 L 57.0497,-2828.42 L 56.6433,-2828.12
 L 56.2031,-2827.88 L 55.7361,-2827.7 L 55.2495,-2827.57 L 54.7512,-2827.51 z
M 55.9369,-2727.09 L 56.5451,-2727.24 L 57.1289,-2727.48 L 57.6791,-2727.78 L 58.1871,-2728.15 L 58.6448,-2728.58
 L 59.0451,-2729.06 L 59.3815,-2729.59 L 59.6489,-2730.16 L 59.8429,-2730.76 L 59.9606,-2731.37 L 60,-2732
 L 60,-2812 L 59.9606,-2812.63 L 59.8429,-2813.24 L 59.6489,-2813.84 L 59.3815,-2814.41 L 59.0451,-2814.94
 L 58.6448,-2815.42 L 58.1871,-2815.85 L 57.6791,-2816.22 L 57.1289,-2816.52 L 56.5451,-2816.76 L 55.9369,-2816.91
 L 55.3139,-2816.99 L -55.3139,-2816.99 L -55.9369,-2816.91 L -56.5451,-2816.76 L -57.1289,-2816.52 L -57.6791,-2816.22
 L -58.1871,-2815.85 L -58.6448,-2815.42 L -59.0451,-2814.94 L -59.3815,-2814.41 L -59.6489,-2813.84 L -59.8429,-2813.24
 L -59.9606,-2812.63 L -60,-2812 L -60,-2732 L -59.9606,-2731.37 L -59.8429,-2730.76 L -59.6489,-2730.16
 L -59.3815,-2729.59 L -59.0451,-2729.06 L -58.6448,-2728.58 L -58.1871,-2728.15 L -57.6791,-2727.78 L -57.1289,-2727.48
 L -56.5451,-2727.24 L -55.9369,-2727.09 L -55.3139,-2727.01 L 55.3139,-2727.01 z
M -54.7512,-2728.51 L -55.2495,-2728.57 L -55.7361,-2728.7 L -56.2031,-2728.88 L -56.6433,-2729.12 L -57.0497,-2729.42
 L -57.4159,-2729.76 L -57.7361,-2730.15 L -58.0052,-2730.57 L -58.2191,-2731.03 L -58.3743,-2731.51 L -58.4685,-2732
 L -58.5,-2732.5 L -58.5,-2811.5 L -58.4685,-2812 L -58.3743,-2812.49 L -58.2191,-2812.97 L -58.0052,-2813.43
 L -57.7361,-2813.85 L -57.4159,-2814.24 L -57.0497,-2814.58 L -56.6433,-2814.88 L -56.2031,-2815.12 L -55.7361,-2815.3
 L -55.2495,-2815.43 L -54.7512,-2815.49 L 54.7512,-2815.49 L 55.2495,-2815.43 L 55.7361,-2815.3 L 56.2031,-2815.12
 L 56.6433,-2814.88 L 57.0497,-2814.58 L 57.4159,-2814.24 L 57.7361,-2813.85 L 58.0052,-2813.43 L 58.2191,-2812.97
 L 58.3743,-2812.49 L 58.4685,-2812 L 58.5,-2811.5 L 58.5,-2732.5 L 58.4685,-2732 L 58.3743,-2731.51
 L 58.2191,-2731.03 L 58.0052,-2730.57 L 57.7361,-2730.15 L 57.4159,-2729.76 L 57.0497,-2729.42 L 56.6433,-2729.12
 L 56.2031,-2728.88 L 55.7361,-2728.7 L 55.2495,-2728.57 L 54.7512,-2728.51 z
M 55.9369,-2628.09 L 56.5451,-2628.24 L 57.1289,-2628.48 L 57.6791,-2628.78 L 58.1871,-2629.15 L 58.6448,-2629.58
 L 59.0451,-2630.06 L 59.3815,-2630.59 L 59.6489,-2631.16 L 59.8429,-2631.76 L 59.9606,-2632.37 L 60,-2633
 L 60,-2713 L 59.9606,-2713.63 L 59.8429,-2714.24 L 59.6489,-2714.84 L 59.3815,-2715.41 L 59.0451,-2715.94
 L 58.6448,-2716.42 L 58.1871,-2716.85 L 57.6791,-2717.22 L 57.1289,-2717.52 L 56.5451,-2717.76 L 55.9369,-2717.91
 L 55.3139,-2717.99 L -55.3139,-2717.99 L -55.9369,-2717.91 L -56.5451,-2717.76 L -57.1289,-2717.52 L -57.6791,-2717.22
 L -58.1871,-2716.85 L -58.6448,-2716.42 L -59.0451,-2715.94 L -59.3815,-2715.41 L -59.6489,-2714.84 L -59.8429,-2714.24
 L -59.9606,-2713.63 L -60,-2713 L -60,-2633 L -59.9606,-2632.37 L -59.8429,-2631.76 L -59.6489,-2631.16
 L -59.3815,-2630.59 L -59.0451,-2630.06 L -58.6448,-2629.58 L -58.1871,-2629.15 L -57.6791,-2628.78 L -57.1289,-2628.48
 L -56.5451,-2628.24 L -55.9369,-2628.09 L -55.3139,-2628.01 L 55.3139,-2628.01 z
M -54.7512,-2629.51 L -55.2495,-2629.57 L -55.7361,-2629.7 L -56.2031,-2629.88 L -56.6433,-2630.12 L -57.0497,-2630.42
 L -57.4159,-2630.76 L -57.7361,-2631.15 L -58.0052,-2631.57 L -58.2191,-2632.03 L -58.3743,-2632.51 L -58.4685,-2633
 L -58.5,-2633.5 L -58.5,-2712.5 L -58.4685,-2713 L -58.3743,-2713.49 L -58.2191,-2713.97 L -58.0052,-2714.43
 L -57.7361,-2714.85 L -57.4159,-2715.24 L -57.0497,-2715.58 L -56.6433,-2715.88 L -56.2031,-2716.12 L -55.7361,-2716.3
 L -55.2495,-2716.43 L -54.7512,-2716.49 L 54.7512,-2716.49 L 55.2495,-2716.43 L 55.7361,-2716.3 L 56.2031,-2716.12
 L 56.6433,-2715.88 L 57.0497,-2715.58 L 57.4159,-2715.24 L 57.7361,-2714.85 L 58.0052,-2714.43 L 58.2191,-2713.97
 L 58.3743,-2713.49 L 58.4685,-2713 L 58.5,-2712.5 L 58.5,-2633.5 L 58.4685,-2633 L 58.3743,-2632.51
 L 58.2191,-2632.03 L 58.0052,-2631.57 L 57.7361,-2631.15 L 57.4159,-2630.76 L 57.0497,-2630.42 L 56.6433,-2630.12
 L 56.2031,-2629.88 L 55.7361,-2629.7 L 55.2495,-2629.57 L 54.7512,-2629.51 z
M 55.9369,-2529.09 L 56.5451,-2529.24 L 57.1289,-2529.48 L 57.6791,-2529.78 L 58.1871,-2530.15 L 58.6448,-2530.58
 L 59.0451,-2531.06 L 59.3815,-2531.59 L 59.6489,-2532.16 L 59.8429,-2532.76 L 59.9606,-2533.37 L 60,-2534
 L 60,-2614 L 59.9606,-2614.63 L 59.8429,-2615.24 L 59.6489,-2615.84 L 59.3815,-2616.41 L 59.0451,-2616.94
 L 58.6448,-2617.42 L 58.1871,-2617.85 L 57.6791,-2618.22 L 57.1289,-2618.52 L 56.5451,-2618.76 L 55.9369,-2618.91
 L 55.3139,-2618.99 L -55.3139,-2618.99 L -55.9369,-2618.91 L -56.5451,-2618.76 L -57.1289,-2618.52 L -57.6791,-2618.22
 L -58.1871,-2617.85 L -58.6448,-2617.42 L -59.0451,-2616.94 L -59.3815,-2616.41 L -59.6489,-2615.84 L -59.8429,-2615.24
 L -59.9606,-2614.63 L -60,-2614 L -60,-2534 L -59.9606,-2533.37 L -59.8429,-2532.76 L -59.6489,-2532.16
 L -59.3815,-2531.59 L -59.0451,-2531.06 L -58.6448,-2530.58 L -58.1871,-2530.15 L -57.6791,-2529.78 L -57.1289,-2529.48
 L -56.5451,-2529.24 L -55.9369,-2529.09 L -55.3139,-2529.01 L 55.3139,-2529.01 z
M -54.7512,-2530.51 L -55.2495,-2530.57 L -55.7361,-2530.7 L -56.2031,-2530.88 L -56.6433,-2531.12 L -57.0497,-2531.42
 L -57.4159,-2531.76 L -57.7361,-2532.15 L -58.0052,-2532.57 L -58.2191,-2533.03 L -58.3743,-2533.51 L -58.4685,-2534
 L -58.5,-2534.5 L -58.5,-2613.5 L -58.4685,-2614 L -58.3743,-2614.49 L -58.2191,-2614.97 L -58.0052,-2615.43
 L -57.7361,-2615.85 L -57.4159,-2616.24 L -57.0497,-2616.58 L -56.6433,-2616.88 L -56.2031,-2617.12 L -55.7361,-2617.3
 L -55.2495,-2617.43 L -54.7512,-2617.49 L 54.7512,-2617.49 L 55.2495,-2617.43 L 55.7361,-2617.3 L 56.2031,-2617.12
 L 56.6433,-2616.88 L 57.0497,-2616.58 L 57.4159,-2616.24 L 57.7361,-2615.85 L 58.0052,-2615.43 L 58.2191,-2614.97
 L 58.3743,-2614.49 L 58.4685,-2614 L 58.5,-2613.5 L 58.5,-2534.5 L 58.4685,-2534 L 58.3743,-2533.51
 L 58.2191,-2533.03 L 58.0052,-2532.57 L 57.7361,-2532.15 L 57.4159,-2531.76 L 57.0497,-2531.42 L 56.6433,-2531.12
 L 56.2031,-2530.88 L 55.7361,-2530.7 L 55.2495,-2530.57 L 54.7512,-2530.51 z
M 55.9369,-2430.09 L 56.5451,-2430.24 L 57.1289,-2430.48 L 57.6791,-2430.78 L 58.1871,-2431.15 L 58.6448,-2431.58
 L 59.0451,-2432.06 L 59.3815,-2432.59 L 59.6489,-2433.16 L 59.8429,-2433.76 L 59.9606,-2434.37 L 60,-2435
 L 60,-2515 L 59.9606,-2515.63 L 59.8429,-2516.24 L 59.6489,-2516.84 L 59.3815,-2517.41 L 59.0451,-2517.94
 L 58.6448,-2518.42 L 58.1871,-2518.85 L 57.6791,-2519.22 L 57.1289,-2519.52 L 56.5451,-2519.76 L 55.9369,-2519.91
 L 55.3139,-2519.99 L -55.3139,-2519.99 L -55.9369,-2519.91 L -56.5451,-2519.76 L -57.1289,-2519.52 L -57.6791,-2519.22
 L -58.1871,-2518.85 L -58.6448,-2518.42 L -59.0451,-2517.94 L -59.3815,-2517.41 L -59.6489,-2516.84 L -59.8429,-2516.24
 L -59.9606,-2515.63 L -60,-2515 L -60,-2435 L -59.9606,-2434.37 L -59.8429,-2433.76 L -59.6489,-2433.16
 L -59.3815,-2432.59 L -59.0451,-2432.06 L -58.6448,-2431.58 L -58.1871,-2431.15 L -57.6791,-2430.78 L -57.1289,-2430.48
 L -56.5451,-2430.24 L -55.9369,-2430.09 L -55.3139,-2430.01 L 55.3139,-2430.01 z
M -54.7512,-2431.51 L -55.2495,-2431.57 L -55.7361,-2431.7 L -56.2031,-2431.88 L -56.6433,-2432.12 L -57.0497,-2432.42
 L -57.4159,-2432.76 L -57.7361,-2433.15 L -58.0052,-2433.57 L -58.2191,-2434.03 L -58.3743,-2434.51 L -58.4685,-2435
 L -58.5,-2435.5 L -58.5,-2514.5 L -58.4685,-2515 L -58.3743,-2515.49 L -58.2191,-2515.97 L -58.0052,-2516.43
 L -57.7361,-2516.85 L -57.4159,-2517.24 L -57.0497,-2517.58 L -56.6433,-2517.88 L -56.2031,-2518.12 L -55.7361,-2518.3
 L -55.2495,-2518.43 L -54.7512,-2518.49 L 54.7512,-2518.49 L 55.2495,-2518.43 L 55.7361,-2518.3 L 56.2031,-2518.12
 L 56.6433,-2517.88 L 57.0497,-2517.58 L 57.4159,-2517.24 L 57.7361,-2516.85 L 58.0052,-2516.43 L 58.2191,-2515.97
 L 58.3743,-2515.49 L 58.4685,-2515 L 58.5,-2514.5 L 58.5,-2435.5 L 58.4685,-2435 L 58.3743,-2434.51
 L 58.2191,-2434.03 L 58.0052,-2433.57 L 57.7361,-2433.15 L 57.4159,-2432.76 L 57.0497,-2432.42 L 56.6433,-2432.12
 L 56.2031,-2431.88 L 55.7361,-2431.7 L 55.2495,-2431.57 L 54.7512,-2431.51 z
M 55.9369,-2331.09 L 56.5451,-2331.24 L 57.1289,-2331.48 L 57.6791,-2331.78 L 58.1871,-2332.15 L 58.6448,-2332.58
 L 59.0451,-2333.06 L 59.3815,-2333.59 L 59.6489,-2334.16 L 59.8429,-2334.76 L 59.9606,-2335.37 L 60,-2336
 L 60,-2416 L 59.9606,-2416.63 L 59.8429,-2417.24 L 59.6489,-2417.84 L 59.3815,-2418.41 L 59.0451,-2418.94
 L 58.6448,-2419.42 L 58.1871,-2419.85 L 57.6791,-2420.22 L 57.1289,-2420.52 L 56.5451,-2420.76 L 55.9369,-2420.91
 L 55.3139,-2420.99 L -55.3139,-2420.99 L -55.9369,-2420.91 L -56.5451,-2420.76 L -57.1289,-2420.52 L -57.6791,-2420.22
 L -58.1871,-2419.85 L -58.6448,-2419.42 L -59.0451,-2418.94 L -59.3815,-2418.41 L -59.6489,-2417.84 L -59.8429,-2417.24
 L -59.9606,-2416.63 L -60,-2416 L -60,-2336 L -59.9606,-2335.37 L -59.8429,-2334.76 L -59.6489,-2334.16
 L -59.3815,-2333.59 L -59.0451,-2333.06 L -58.6448,-2332.58 L -58.1871,-2332.15 L -57.6791,-2331.78 L -57.1289,-2331.48
 L -56.5451,-2331.24 L -55.9369,-2331.09 L -55.3139,-2331.01 L 55.3139,-2331.01 z
M -54.7512,-2332.51 L -55.2495,-2332.57 L -55.7361,-2332.7 L -56.2031,-2332.88 L -56.6433,-2333.12 L -57.0497,-2333.42
 L -57.4159,-2333.76 L -57.7361,-2334.15 L -58.0052,-2334.57 L -58.2191,-2335.03 L -58.3743,-2335.51 L -58.4685,-2336
 L -58.5,-2336.5 L -58.5,-2415.5 L -58.4685,-2416 L -58.3743,-2416.49 L -58.2191,-2416.97 L -58.0052,-2417.43
 L -57.7361,-2417.85 L -57.4159,-2418.24 L -57.0497,-2418.58 L -56.6433,-2418.88 L -56.2031,-2419.12 L -55.7361,-2419.3
 L -55.2495,-2419.43 L -54.7512,-2419.49 L 54.7512,-2419.49 L 55.2495,-2419.43 L 55.7361,-2419.3 L 56.2031,-2419.12
 L 56.6433,-2418.88 L 57.0497,-2418.58 L 57.4159,-2418.24 L 57.7361,-2417.85 L 58.0052,-2417.43 L 58.2191,-2416.97
 L 58.3743,-2416.49 L 58.4685,-2416 L 58.5,-2415.5 L 58.5,-2336.5 L 58.4685,-2336 L 58.3743,-2335.51
 L 58.2191,-2335.03 L 58.0052,-2334.57 L 57.7361,-2334.15 L 57.4159,-2333.76 L 57.0497,-2333.42 L 56.6433,-2333.12
 L 56.2031,-2332.88 L 55.7361,-2332.7 L 55.2495,-2332.57 L 54.7512,-2332.51 z
M 55.9369,-2232.09 L 56.5451,-2232.24 L 57.1289,-2232.48 L 57.6791,-2232.78 L 58.1871,-2233.15 L 58.6448,-2233.58
 L 59.0451,-2234.06 L 59.3815,-2234.59 L 59.6489,-2235.16 L 59.8429,-2235.76 L 59.9606,-2236.37 L 60,-2237
 L 60,-2317 L 59.9606,-2317.63 L 59.8429,-2318.24 L 59.6489,-2318.84 L 59.3815,-2319.41 L 59.0451,-2319.94
 L 58.6448,-2320.42 L 58.1871,-2320.85 L 57.6791,-2321.22 L 57.1289,-2321.52 L 56.5451,-2321.76 L 55.9369,-2321.91
 L 55.3139,-2321.99 L -55.3139,-2321.99 L -55.9369,-2321.91 L -56.5451,-2321.76 L -57.1289,-2321.52 L -57.6791,-2321.22
 L -58.1871,-2320.85 L -58.6448,-2320.42 L -59.0451,-2319.94 L -59.3815,-2319.41 L -59.6489,-2318.84 L -59.8429,-2318.24
 L -59.9606,-2317.63 L -60,-2317 L -60,-2237 L -59.9606,-2236.37 L -59.8429,-2235.76 L -59.6489,-2235.16
 L -59.3815,-2234.59 L -59.0451,-2234.06 L -58.6448,-2233.58 L -58.1871,-2233.15 L -57.6791,-2232.78 L -57.1289,-2232.48
 L -56.5451,-2232.24 L -55.9369,-2232.09 L -55.3139,-2232.01 L 55.3139,-2232.01 z
M -54.7512,-2233.51 L -55.2495,-2233.57 L -55.7361,-2233.7 L -56.2031,-2233.88 L -56.6433,-2234.12 L -57.0497,-2234.42
 L -57.4159,-2234.76 L -57.7361,-2235.15 L -58.0052,-2235.57 L -58.2191,-2236.03 L -58.3743,-2236.51 L -58.4685,-2237
 L -58.5,-2237.5 L -58.5,-2316.5 L -58.4685,-2317 L -58.3743,-2317.49 L -58.2191,-2317.97 L -58.0052,-2318.43
 L -57.7361,-2318.85 L -57.4159,-2319.24 L -57.0497,-2319.58 L -56.6433,-2319.88 L -56.2031,-2320.12 L -55.7361,-2320.3
 L -55.2495,-2320.43 L -54.7512,-2320.49 L 54.7512,-2320.49 L 55.2495,-2320.43 L 55.7361,-2320.3 L 56.2031,-2320.12
 L 56.6433,-2319.88 L 57.0497,-2319.58 L 57.4159,-2319.24 L 57.7361,-2318.85 L 58.0052,-2318.43 L 58.2191,-2317.97
 L 58.3743,-2317.49 L 58.4685,-2317 L 58.5,-2316.5 L 58.5,-2237.5 L 58.4685,-2237 L 58.3743,-2236.51
 L 58.2191,-2236.03 L 58.0052,-2235.57 L 57.7361,-2235.15 L 57.4159,-2234.76 L 57.0497,-2234.42 L 56.6433,-2234.12
 L 56.2031,-2233.88 L 55.7361,-2233.7 L 55.2495,-2233.57 L 54.7512,-2233.51 z
M 55.9369,-2133.09 L 56.5451,-2133.24 L 57.1289,-2133.48 L 57.6791,-2133.78 L 58.1871,-2134.15 L 58.6448,-2134.58
 L 59.0451,-2135.06 L 59.3815,-2135.59 L 59.6489,-2136.16 L 59.8429,-2136.76 L 59.9606,-2137.37 L 60,-2138
 L 60,-2218 L 59.9606,-2218.63 L 59.8429,-2219.24 L 59.6489,-2219.84 L 59.3815,-2220.41 L 59.0451,-2220.94
 L 58.6448,-2221.42 L 58.1871,-2221.85 L 57.6791,-2222.22 L 57.1289,-2222.52 L 56.5451,-2222.76 L 55.9369,-2222.91
 L 55.3139,-2222.99 L -55.3139,-2222.99 L -55.9369,-2222.91 L -56.5451,-2222.76 L -57.1289,-2222.52 L -57.6791,-2222.22
 L -58.1871,-2221.85 L -58.6448,-2221.42 L -59.0451,-2220.94 L -59.3815,-2220.41 L -59.6489,-2219.84 L -59.8429,-2219.24
 L -59.9606,-2218.63 L -60,-2218 L -60,-2138 L -59.9606,-2137.37 L -59.8429,-2136.76 L -59.6489,-2136.16
 L -59.3815,-2135.59 L -59.0451,-2135.06 L -58.6448,-2134.58 L -58.1871,-2134.15 L -57.6791,-2133.78 L -57.1289,-2133.48
 L -56.5451,-2133.24 L -55.9369,-2133.09 L -55.3139,-2133.01 L 55.3139,-2133.01 z
M -54.7512,-2134.51 L -55.2495,-2134.57 L -55.7361,-2134.7 L -56.2031,-2134.88 L -56.6433,-2135.12 L -57.0497,-2135.42
 L -57.4159,-2135.76 L -57.7361,-2136.15 L -58.0052,-2136.57 L -58.2191,-2137.03 L -58.3743,-2137.51 L -58.4685,-2138
 L -58.5,-2138.5 L -58.5,-2217.5 L -58.4685,-2218 L -58.3743,-2218.49 L -58.2191,-2218.97 L -58.0052,-2219.43
 L -57.7361,-2219.85 L -57.4159,-2220.24 L -57.0497,-2220.58 L -56.6433,-2220.88 L -56.2031,-2221.12 L -55.7361,-2221.3
 L -55.2495,-2221.43 L -54.7512,-2221.49 L 54.7512,-2221.49 L 55.2495,-2221.43 L 55.7361,-2221.3 L 56.2031,-2221.12
 L 56.6433,-2220.88 L 57.0497,-2220.58 L 57.4159,-2220.24 L 57.7361,-2219.85 L 58.0052,-2219.43 L 58.2191,-2218.97
 L 58.3743,-2218.49 L 58.4685,-2218 L 58.5,-2217.5 L 58.5,-2138.5 L 58.4685,-2138 L 58.3743,-2137.51
 L 58.2191,-2137.03 L 58.0052,-2136.57 L 57.7361,-2136.15 L 57.4159,-2135.76 L 57.0497,-2135.42 L 56.6433,-2135.12
 L 56.2031,-2134.88 L 55.7361,-2134.7 L 55.2495,-2134.57 L 54.7512,-2134.51 z
M 55.9369,-2034.09 L 56.5451,-2034.24 L 57.1289,-2034.48 L 57.6791,-2034.78 L 58.1871,-2035.15 L 58.6448,-2035.58
 L 59.0451,-2036.06 L 59.3815,-2036.59 L 59.6489,-2037.16 L 59.8429,-2037.76 L 59.9606,-2038.37 L 60,-2039
 L 60,-2119 L 59.9606,-2119.63 L 59.8429,-2120.24 L 59.6489,-2120.84 L 59.3815,-2121.41 L 59.0451,-2121.94
 L 58.6448,-2122.42 L 58.1871,-2122.85 L 57.6791,-2123.22 L 57.1289,-2123.52 L 56.5451,-2123.76 L 55.9369,-2123.91
 L 55.3139,-2123.99 L -55.3139,-2123.99 L -55.9369,-2123.91 L -56.5451,-2123.76 L -57.1289,-2123.52 L -57.6791,-2123.22
 L -58.1871,-2122.85 L -58.6448,-2122.42 L -59.0451,-2121.94 L -59.3815,-2121.41 L -59.6489,-2120.84 L -59.8429,-2120.24
 L -59.9606,-2119.63 L -60,-2119 L -60,-2039 L -59.9606,-2038.37 L -59.8429,-2037.76 L -59.6489,-2037.16
 L -59.3815,-2036.59 L -59.0451,-2036.06 L -58.6448,-2035.58 L -58.1871,-2035.15 L -57.6791,-2034.78 L -57.1289,-2034.48
 L -56.5451,-2034.24 L -55.9369,-2034.09 L -55.3139,-2034.01 L 55.3139,-2034.01 z
M -54.7512,-2035.51 L -55.2495,-2035.57 L -55.7361,-2035.7 L -56.2031,-2035.88 L -56.6433,-2036.12 L -57.0497,-2036.42
 L -57.4159,-2036.76 L -57.7361,-2037.15 L -58.0052,-2037.57 L -58.2191,-2038.03 L -58.3743,-2038.51 L -58.4685,-2039
 L -58.5,-2039.5 L -58.5,-2118.5 L -58.4685,-2119 L -58.3743,-2119.49 L -58.2191,-2119.97 L -58.0052,-2120.43
 L -57.7361,-2120.85 L -57.4159,-2121.24 L -57.0497,-2121.58 L -56.6433,-2121.88 L -56.2031,-2122.12 L -55.7361,-2122.3
 L -55.2495,-2122.43 L -54.7512,-2122.49 L 54.7512,-2122.49 L 55.2495,-2122.43 L 55.7361,-2122.3 L 56.2031,-2122.12
 L 56.6433,-2121.88 L 57.0497,-2121.58 L 57.4159,-2121.24 L 57.7361,-2120.85 L 58.0052,-2120.43 L 58.2191,-2119.97
 L 58.3743,-2119.49 L 58.4685,-2119 L 58.5,-2118.5 L 58.5,-2039.5 L 58.4685,-2039 L 58.3743,-2038.51
 L 58.2191,-2038.03 L 58.0052,-2037.57 L 57.7361,-2037.15 L 57.4159,-2036.76 L 57.0497,-2036.42 L 56.6433,-2036.12
 L 56.2031,-2035.88 L 55.7361,-2035.7 L 55.2495,-2035.57 L 54.7512,-2035.51 z
M 55.9369,-1935.09 L 56.5451,-1935.24 L 57.1289,-1935.48 L 57.6791,-1935.78 L 58.1871,-1936.15 L 58.6448,-1936.58
 L 59.0451,-1937.06 L 59.3815,-1937.59 L 59.6489,-1938.16 L 59.8429,-1938.76 L 59.9606,-1939.37 L 60,-1940
 L 60,-2020 L 59.9606,-2020.63 L 59.8429,-2021.24 L 59.6489,-2021.84 L 59.3815,-2022.41 L 59.0451,-2022.94
 L 58.6448,-2023.42 L 58.1871,-2023.85 L 57.6791,-2024.22 L 57.1289,-2024.52 L 56.5451,-2024.76 L 55.9369,-2024.91
 L 55.3139,-2024.99 L -55.3139,-2024.99 L -55.9369,-2024.91 L -56.5451,-2024.76 L -57.1289,-2024.52 L -57.6791,-2024.22
 L -58.1871,-2023.85 L -58.6448,-2023.42 L -59.0451,-2022.94 L -59.3815,-2022.41 L -59.6489,-2021.84 L -59.8429,-2021.24
 L -59.9606,-2020.63 L -60,-2020 L -60,-1940 L -59.9606,-1939.37 L -59.8429,-1938.76 L -59.6489,-1938.16
 L -59.3815,-1937.59 L -59.0451,-1937.06 L -58.6448,-1936.58 L -58.1871,-1936.15 L -57.6791,-1935.78 L -57.1289,-1935.48
 L -56.5451,-1935.24 L -55.9369,-1935.09 L -55.3139,-1935.01 L 55.3139,-1935.01 z
M -54.7512,-1936.51 L -55.2495,-1936.57 L -55.7361,-1936.7 L -56.2031,-1936.88 L -56.6433,-1937.12 L -57.0497,-1937.42
 L -57.4159,-1937.76 L -57.7361,-1938.15 L -58.0052,-1938.57 L -58.2191,-1939.03 L -58.3743,-1939.51 L -58.4685,-1940
 L -58.5,-1940.5 L -58.5,-2019.5 L -58.4685,-2020 L -58.3743,-2020.49 L -58.2191,-2020.97 L -58.0052,-2021.43
 L -57.7361,-2021.85 L -57.4159,-2022.24 L -57.0497,-2022.58 L -56.6433,-2022.88 L -56.2031,-2023.12 L -55.7361,-2023.3
 L -55.2495,-2023.43 L -54.7512,-2023.49 L 54.7512,-2023.49 L 55.2495,-2023.43 L 55.7361,-2023.3 L 56.2031,-2023.12
 L 56.6433,-2022.88 L 57.0497,-2022.58 L 57.4159,-2022.24 L 57.7361,-2021.85 L 58.0052,-2021.43 L 58.2191,-2020.97
 L 58.3743,-2020.49 L 58.4685,-2020 L 58.5,-2019.5 L 58.5,-1940.5 L 58.4685,-1940 L 58.3743,-1939.51
 L 58.2191,-1939.03 L 58.0052,-1938.57 L 57.7361,-1938.15 L 57.4159,-1937.76 L 57.0497,-1937.42 L 56.6433,-1937.12
 L 56.2031,-1936.88 L 55.7361,-1936.7 L 55.2495,-1936.57 L 54.7512,-1936.51 z
M 55.9369,-1836.09 L 56.5451,-1836.24 L 57.1289,-1836.48 L 57.6791,-1836.78 L 58.1871,-1837.15 L 58.6448,-1837.58
 L 59.0451,-1838.06 L 59.3815,-1838.59 L 59.6489,-1839.16 L 59.8429,-1839.76 L 59.9606,-1840.37 L 60,-1841
 L 60,-1921 L 59.9606,-1921.63 L 59.8429,-1922.24 L 59.6489,-1922.84 L 59.3815,-1923.41 L 59.0451,-1923.94
 L 58.6448,-1924.42 L 58.1871,-1924.85 L 57.6791,-1925.22 L 57.1289,-1925.52 L 56.5451,-1925.76 L 55.9369,-1925.91
 L 55.3139,-1925.99 L -55.3139,-1925.99 L -55.9369,-1925.91 L -56.5451,-1925.76 L -57.1289,-1925.52 L -57.6791,-1925.22
 L -58.1871,-1924.85 L -58.6448,-1924.42 L -59.0451,-1923.94 L -59.3815,-1923.41 L -59.6489,-1922.84 L -59.8429,-1922.24
 L -59.9606,-1921.63 L -60,-1921 L -60,-1841 L -59.9606,-1840.37 L -59.8429,-1839.76 L -59.6489,-1839.16
 L -59.3815,-1838.59 L -59.0451,-1838.06 L -58.6448,-1837.58 L -58.1871,-1837.15 L -57.6791,-1836.78 L -57.1289,-1836.48
 L -56.5451,-1836.24 L -55.9369,-1836.09 L -55.3139,-1836.01 L 55.3139,-1836.01 z
M -54.7512,-1837.51 L -55.2495,-1837.57 L -55.7361,-1837.7 L -56.2031,-1837.88 L -56.6433,-1838.12 L -57.0497,-1838.42
 L -57.4159,-1838.76 L -57.7361,-1839.15 L -58.0052,-1839.57 L -58.2191,-1840.03 L -58.3743,-1840.51 L -58.4685,-1841
 L -58.5,-1841.5 L -58.5,-1920.5 L -58.4685,-1921 L -58.3743,-1921.49 L -58.2191,-1921.97 L -58.0052,-1922.43
 L -57.7361,-1922.85 L -57.4159,-1923.24 L -57.0497,-1923.58 L -56.6433,-1923.88 L -56.2031,-1924.12 L -55.7361,-1924.3
 L -55.2495,-1924.43 L -54.7512,-1924.49 L 54.7512,-1924.49 L 55.2495,-1924.43 L 55.7361,-1924.3 L 56.2031,-1924.12
 L 56.6433,-1923.88 L 57.0497,-1923.58 L 57.4159,-1923.24 L 57.7361,-1922.85 L 58.0052,-1922.43 L 58.2191,-1921.97
 L 58.3743,-1921.49 L 58.4685,-1921 L 58.5,-1920.5 L 58.5,-1841.5 L 58.4685,-1841 L 58.3743,-1840.51
 L 58.2191,-1840.03 L 58.0052,-1839.57 L 57.7361,-1839.15 L 57.4159,-1838.76 L 57.0497,-1838.42 L 56.6433,-1838.12
 L 56.2031,-1837.88 L 55.7361,-1837.7 L 55.2495,-1837.57 L 54.7512,-1837.51 z
M 55.9369,-1737.09 L 56.5451,-1737.24 L 57.1289,-1737.48 L 57.6791,-1737.78 L 58.1871,-1738.15 L 58.6448,-1738.58
 L 59.0451,-1739.06 L 59.3815,-1739.59 L 59.6489,-1740.16 L 59.8429,-1740.76 L 59.9606,-1741.37 L 60,-1742
 L 60,-1822 L 59.9606,-1822.63 L 59.8429,-1823.24 L 59.6489,-1823.84 L 59.3815,-1824.41 L 59.0451,-1824.94
 L 58.6448,-1825.42 L 58.1871,-1825.85 L 57.6791,-1826.22 L 57.1289,-1826.52 L 56.5451,-1826.76 L 55.9369,-1826.91
 L 55.3139,-1826.99 L -55.3139,-1826.99 L -55.9369,-1826.91 L -56.5451,-1826.76 L -57.1289,-1826.52 L -57.6791,-1826.22
 L -58.1871,-1825.85 L -58.6448,-1825.42 L -59.0451,-1824.94 L -59.3815,-1824.41 L -59.6489,-1823.84 L -59.8429,-1823.24
 L -59.9606,-1822.63 L -60,-1822 L -60,-1742 L -59.9606,-1741.37 L -59.8429,-1740.76 L -59.6489,-1740.16
 L -59.3815,-1739.59 L -59.0451,-1739.06 L -58.6448,-1738.58 L -58.1871,-1738.15 L -57.6791,-1737.78 L -57.1289,-1737.48
 L -56.5451,-1737.24 L -55.9369,-1737.09 L -55.3139,-1737.01 L 55.3139,-1737.01 z
M -54.7512,-1738.51 L -55.2495,-1738.57 L -55.7361,-1738.7 L -56.2031,-1738.88 L -56.6433,-1739.12 L -57.0497,-1739.42
 L -57.4159,-1739.76 L -57.7361,-1740.15 L -58.0052,-1740.57 L -58.2191,-1741.03 L -58.3743,-1741.51 L -58.4685,-1742
 L -58.5,-1742.5 L -58.5,-1821.5 L -58.4685,-1822 L -58.3743,-1822.49 L -58.2191,-1822.97 L -58.0052,-1823.43
 L -57.7361,-1823.85 L -57.4159,-1824.24 L -57.0497,-1824.58 L -56.6433,-1824.88 L -56.2031,-1825.12 L -55.7361,-1825.3
 L -55.2495,-1825.43 L -54.7512,-1825.49 L 54.7512,-1825.49 L 55.2495,-1825.43 L 55.7361,-1825.3 L 56.2031,-1825.12
 L 56.6433,-1824.88 L 57.0497,-1824.58 L 57.4159,-1824.24 L 57.7361,-1823.85 L 58.0052,-1823.43 L 58.2191,-1822.97
 L 58.3743,-1822.49 L 58.4685,-1822 L 58.5,-1821.5 L 58.5,-1742.5 L 58.4685,-1742 L 58.3743,-1741.51
 L 58.2191,-1741.03 L 58.0052,-1740.57 L 57.7361,-1740.15 L 57.4159,-1739.76 L 57.0497,-1739.42 L 56.6433,-1739.12
 L 56.2031,-1738.88 L 55.7361,-1738.7 L 55.2495,-1738.57 L 54.7512,-1738.51 z
M 55.9369,-1638.09 L 56.5451,-1638.24 L 57.1289,-1638.48 L 57.6791,-1638.78 L 58.1871,-1639.15 L 58.6448,-1639.58
 L 59.0451,-1640.06 L 59.3815,-1640.59 L 59.6489,-1641.16 L 59.8429,-1641.76 L 59.9606,-1642.37 L 60,-1643
 L 60,-1723 L 59.9606,-1723.63 L 59.8429,-1724.24 L 59.6489,-1724.84 L 59.3815,-1725.41 L 59.0451,-1725.94
 L 58.6448,-1726.42 L 58.1871,-1726.85 L 57.6791,-1727.22 L 57.1289,-1727.52 L 56.5451,-1727.76 L 55.9369,-1727.91
 L 55.3139,-1727.99 L -55.3139,-1727.99 L -55.9369,-1727.91 L -56.5451,-1727.76 L -57.1289,-1727.52 L -57.6791,-1727.22
 L -58.1871,-1726.85 L -58.6448,-1726.42 L -59.0451,-1725.94 L -59.3815,-1725.41 L -59.6489,-1724.84 L -59.8429,-1724.24
 L -59.9606,-1723.63 L -60,-1723 L -60,-1643 L -59.9606,-1642.37 L -59.8429,-1641.76 L -59.6489,-1641.16
 L -59.3815,-1640.59 L -59.0451,-1640.06 L -58.6448,-1639.58 L -58.1871,-1639.15 L -57.6791,-1638.78 L -57.1289,-1638.48
 L -56.5451,-1638.24 L -55.9369,-1638.09 L -55.3139,-1638.01 L 55.3139,-1638.01 z
M -54.7512,-1639.51 L -55.2495,-1639.57 L -55.7361,-1639.7 L -56.2031,-1639.88 L -56.6433,-1640.12 L -57.0497,-1640.42
 L -57.4159,-1640.76 L -57.7361,-1641.15 L -58.0052,-1641.57 L -58.2191,-1642.03 L -58.3743,-1642.51 L -58.4685,-1643
 L -58.5,-1643.5 L -58.5,-1722.5 L -58.4685,-1723 L -58.3743,-1723.49 L -58.2191,-1723.97 L -58.0052,-1724.43
 L -57.7361,-1724.85 L -57.4159,-1725.24 L -57.0497,-1725.58 L -56.6433,-1725.88 L -56.2031,-1726.12 L -55.7361,-1726.3
 L -55.2495,-1726.43 L -54.7512,-1726.49 L 54.7512,-1726.49 L 55.2495,-1726.43 L 55.7361,-1726.3 L 56.2031,-1726.12
 L 56.6433,-1725.88 L 57.0497,-1725.58 L 57.4159,-1725.24 L 57.7361,-1724.85 L 58.0052,-1724.43 L 58.2191,-1723.97
 L 58.3743,-1723.49 L 58.4685,-1723 L 58.5,-1722.5 L 58.5,-1643.5 L 58.4685,-1643 L 58.3743,-1642.51
 L 58.2191,-1642.03 L 58.0052,-1641.57 L 57.7361,-1641.15 L 57.4159,-1640.76 L 57.0497,-1640.42 L 56.6433,-1640.12
 L 56.2031,-1639.88 L 55.7361,-1639.7 L 55.2495,-1639.57 L 54.7512,-1639.51 z
M 55.9369,-1539.09 L 56.5451,-1539.24 L 57.1289,-1539.48 L 57.6791,-1539.78 L 58.1871,-1540.15 L 58.6448,-1540.58
 L 59.0451,-1541.06 L 59.3815,-1541.59 L 59.6489,-1542.16 L 59.8429,-1542.76 L 59.9606,-1543.37 L 60,-1544
 L 60,-1624 L 59.9606,-1624.63 L 59.8429,-1625.24 L 59.6489,-1625.84 L 59.3815,-1626.41 L 59.0451,-1626.94
 L 58.6448,-1627.42 L 58.1871,-1627.85 L 57.6791,-1628.22 L 57.1289,-1628.52 L 56.5451,-1628.76 L 55.9369,-1628.91
 L 55.3139,-1628.99 L -55.3139,-1628.99 L -55.9369,-1628.91 L -56.5451,-1628.76 L -57.1289,-1628.52 L -57.6791,-1628.22
 L -58.1871,-1627.85 L -58.6448,-1627.42 L -59.0451,-1626.94 L -59.3815,-1626.41 L -59.6489,-1625.84 L -59.8429,-1625.24
 L -59.9606,-1624.63 L -60,-1624 L -60,-1544 L -59.9606,-1543.37 L -59.8429,-1542.76 L -59.6489,-1542.16
 L -59.3815,-1541.59 L -59.0451,-1541.06 L -58.6448,-1540.58 L -58.1871,-1540.15 L -57.6791,-1539.78 L -57.1289,-1539.48
 L -56.5451,-1539.24 L -55.9369,-1539.09 L -55.3139,-1539.01 L 55.3139,-1539.01 z
M -54.6954,-1541.39 L -55.0833,-1541.44 L -55.4619,-1541.54 L -55.8254,-1541.68 L -56.168,-1541.87 L -56.4842,-1542.1
 L -56.7692,-1542.37 L -57.0184,-1542.67 L -57.2279,-1543 L -57.3943,-1543.35 L -57.5151,-1543.73 L -57.5884,-1544.11
 L -57.6129,-1544.5 L -57.6129,-1623.5 L -57.5884,-1623.89 L -57.5151,-1624.27 L -57.3943,-1624.65 L -57.2279,-1625
 L -57.0184,-1625.33 L -56.7692,-1625.63 L -56.4842,-1625.9 L -56.168,-1626.13 L -55.8254,-1626.32 L -55.4619,-1626.46
 L -55.0833,-1626.56 L -54.6954,-1626.61 L 54.6954,-1626.61 L 55.0833,-1626.56 L 55.4619,-1626.46 L 55.8254,-1626.32
 L 56.168,-1626.13 L 56.4842,-1625.9 L 56.7692,-1625.63 L 57.0184,-1625.33 L 57.2279,-1625 L 57.3943,-1624.65
 L 57.5151,-1624.27 L 57.5884,-1623.89 L 57.6129,-1623.5 L 57.6129,-1544.5 L 57.5884,-1544.11 L 57.5151,-1543.73
 L 57.3943,-1543.35 L 57.2279,-1543 L 57.0184,-1542.67 L 56.7692,-1542.37 L 56.4842,-1542.1 L 56.168,-1541.87
 L 55.8254,-1541.68 L 55.4619,-1541.54 L 55.0833,-1541.44 L 54.6954,-1541.39 z
M 55.9369,-1440.09 L 56.5451,-1440.24 L 57.1289,-1440.48 L 57.6791,-1440.78 L 58.1871,-1441.15 L 58.6448,-1441.58
 L 59.0451,-1442.06 L 59.3815,-1442.59 L 59.6489,-1443.16 L 59.8429,-1443.76 L 59.9606,-1444.37 L 60,-1445
 L 60,-1525 L 59.9606,-1525.63 L 59.8429,-1526.24 L 59.6489,-1526.84 L 59.3815,-1527.41 L 59.0451,-1527.94
 L 58.6448,-1528.42 L 58.1871,-1528.85 L 57.6791,-1529.22 L 57.1289,-1529.52 L 56.5451,-1529.76 L 55.9369,-1529.91
 L 55.3139,-1529.99 L -55.3139,-1529.99 L -55.9369,-1529.91 L -56.5451,-1529.76 L -57.1289,-1529.52 L -57.6791,-1529.22
 L -58.1871,-1528.85 L -58.6448,-1528.42 L -59.0451,-1527.94 L -59.3815,-1527.41 L -59.6489,-1526.84 L -59.8429,-1526.24
 L -59.9606,-1525.63 L -60,-1525 L -60,-1445 L -59.9606,-1444.37 L -59.8429,-1443.76 L -59.6489,-1443.16
 L -59.3815,-1442.59 L -59.0451,-1442.06 L -58.6448,-1441.58 L -58.1871,-1441.15 L -57.6791,-1440.78 L -57.1289,-1440.48
 L -56.5451,-1440.24 L -55.9369,-1440.09 L -55.3139,-1440.01 L 55.3139,-1440.01 z
M -52.6341,-1520.37 L -52.9001,-1520.4 L -53.1598,-1520.47 L -53.4092,-1520.57 L -53.6441,-1520.7 L -53.8611,-1520.85
 L -54.0565,-1521.04 L -54.2275,-1521.24 L -54.3712,-1521.47 L -54.4853,-1521.71 L -54.5682,-1521.97 L -54.6185,-1522.23
 L -54.6353,-1522.5 L -54.6185,-1522.77 L -54.5682,-1523.03 L -54.4853,-1523.29 L -54.3712,-1523.53 L -54.2275,-1523.76
 L -54.0565,-1523.96 L -53.8611,-1524.15 L -53.6441,-1524.3 L -53.4092,-1524.43 L -53.1598,-1524.53 L -52.9001,-1524.6
 L -52.6341,-1524.63 L -52.3659,-1524.63 L -52.0999,-1524.6 L -51.8401,-1524.53 L -51.5908,-1524.43 L -51.3559,-1524.3
 L -51.1389,-1524.15 L -50.9434,-1523.96 L -50.7725,-1523.76 L -50.6288,-1523.53 L -50.5146,-1523.29 L -50.4318,-1523.03
 L -50.3815,-1522.77 L -50.3647,-1522.5 L -50.3815,-1522.23 L -50.4318,-1521.97 L -50.5146,-1521.71 L -50.6288,-1521.47
 L -50.7725,-1521.24 L -50.9434,-1521.04 L -51.1389,-1520.85 L -51.3559,-1520.7 L -51.5908,-1520.57 L -51.8401,-1520.47
 L -52.0999,-1520.4 L -52.3659,-1520.37 z
M 52.3659,-1520.37 L 52.0999,-1520.4 L 51.8401,-1520.47 L 51.5908,-1520.57 L 51.3559,-1520.7 L 51.1389,-1520.85
 L 50.9434,-1521.04 L 50.7725,-1521.24 L 50.6288,-1521.47 L 50.5146,-1521.71 L 50.4318,-1521.97 L 50.3815,-1522.23
 L 50.3647,-1522.5 L 50.3815,-1522.77 L 50.4318,-1523.03 L 50.5146,-1523.29 L 50.6288,-1523.53 L 50.7725,-1523.76
 L 50.9434,-1523.96 L 51.1389,-1524.15 L 51.3559,-1524.3 L 51.5908,-1524.43 L 51.8401,-1524.53 L 52.0999,-1524.6
 L 52.3659,-1524.63 L 52.6341,-1524.63 L 52.9001,-1524.6 L 53.1598,-1524.53 L 53.4092,-1524.43 L 53.6441,-1524.3
 L 53.8611,-1524.15 L 54.0565,-1523.96 L 54.2275,-1523.76 L 54.3712,-1523.53 L 54.4853,-1523.29 L 54.5682,-1523.03
 L 54.6185,-1522.77 L 54.6353,-1522.5 L 54.6185,-1522.23 L 54.5682,-1521.97 L 54.4853,-1521.71 L 54.3712,-1521.47
 L 54.2275,-1521.24 L 54.0565,-1521.04 L 53.8611,-1520.85 L 53.6441,-1520.7 L 53.4092,-1520.57 L 53.1598,-1520.47
 L 52.9001,-1520.4 L 52.6341,-1520.37 z
M -52.6341,-1445.37 L -52.9001,-1445.4 L -53.1598,-1445.47 L -53.4092,-1445.57 L -53.6441,-1445.7 L -53.8611,-1445.85
 L -54.0565,-1446.04 L -54.2275,-1446.24 L -54.3712,-1446.47 L -54.4853,-1446.71 L -54.5682,-1446.97 L -54.6185,-1447.23
 L -54.6353,-1447.5 L -54.6185,-1447.77 L -54.5682,-1448.03 L -54.4853,-1448.29 L -54.3712,-1448.53 L -54.2275,-1448.76
 L -54.0565,-1448.96 L -53.8611,-1449.15 L -53.6441,-1449.3 L -53.4092,-1449.43 L -53.1598,-1449.53 L -52.9001,-1449.6
 L -52.6341,-1449.63 L -52.3659,-1449.63 L -52.0999,-1449.6 L -51.8401,-1449.53 L -51.5908,-1449.43 L -51.3559,-1449.3
 L -51.1389,-1449.15 L -50.9434,-1448.96 L -50.7725,-1448.76 L -50.6288,-1448.53 L -50.5146,-1448.29 L -50.4318,-1448.03
 L -50.3815,-1447.77 L -50.3647,-1447.5 L -50.3815,-1447.23 L -50.4318,-1446.97 L -50.5146,-1446.71 L -50.6288,-1446.47
 L -50.7725,-1446.24 L -50.9434,-1446.04 L -51.1389,-1445.85 L -51.3559,-1445.7 L -51.5908,-1445.57 L -51.8401,-1445.47
 L -52.0999,-1445.4 L -52.3659,-1445.37 z
M 52.3659,-1445.37 L 52.0999,-1445.4 L 51.8401,-1445.47 L 51.5908,-1445.57 L 51.3559,-1445.7 L 51.1389,-1445.85
 L 50.9434,-1446.04 L 50.7725,-1446.24 L 50.6288,-1446.47 L 50.5146,-1446.71 L 50.4318,-1446.97 L 50.3815,-1447.23
 L 50.3647,-1447.5 L 50.3815,-1447.77 L 50.4318,-1448.03 L 50.5146,-1448.29 L 50.6288,-1448.53 L 50.7725,-1448.76
 L 50.9434,-1448.96 L 51.1389,-1449.15 L 51.3559,-1449.3 L 51.5908,-1449.43 L 51.8401,-1449.53 L 52.0999,-1449.6
 L 52.3659,-1449.63 L 52.6341,-1449.63 L 52.9001,-1449.6 L 53.1598,-1449.53 L 53.4092,-1449.43 L 53.6441,-1449.3
 L 53.8611,-1449.15 L 54.0565,-1448.96 L 54.2275,-1448.76 L 54.3712,-1448.53 L 54.4853,-1448.29 L 54.5682,-1448.03
 L 54.6185,-1447.77 L 54.6353,-1447.5 L 54.6185,-1447.23 L 54.5682,-1446.97 L 54.4853,-1446.71 L 54.3712,-1446.47
 L 54.2275,-1446.24 L 54.0565,-1446.04 L 53.8611,-1445.85 L 53.6441,-1445.7 L 53.4092,-1445.57 L 53.1598,-1445.47
 L 52.9001,-1445.4 L 52.6341,-1445.37 z
" stroke="black" fill="lightgray" stroke-width="0.5"/>
</svg>
