solid OpenSCAD_Model
  facet normal 0.882424 0.055533 -0.467167
    outer loop
      vertex 2.4 0 0
      vertex 1.79369 0.100266 -1.13333
      vertex 2.38107 0.300799 0
    endloop
  endfacet
  facet normal 0.882424 0.0555332 -0.467167
    outer loop
      vertex 1.79369 0.100266 -1.13333
      vertex 2.4 0 0
      vertex 1.8 0 -1.13333
    endloop
  endfacet
  facet normal 0.885314 0 -0.464994
    outer loop
      vertex 2.38107 0.300799 0
      vertex 1.78581 0.225599 -1.13333
      vertex 1.78581 0.2256 -1.13333
    endloop
  endfacet
  facet normal 0.88243 0.0554806 -0.467161
    outer loop
      vertex 1.78581 0.225599 -1.13333
      vertex 2.38107 0.300799 0
      vertex 1.79369 0.100266 -1.13333
    endloop
  endfacet
  facet normal -0.88243 -0.0554806 -0.467161
    outer loop
      vertex -1.78581 -0.225599 -1.13333
      vertex -2.38107 -0.300799 0
      vertex -1.79369 -0.100266 -1.13333
    endloop
  endfacet
  facet normal -0.885314 0 -0.464994
    outer loop
      vertex -2.38107 -0.300799 0
      vertex -1.78581 -0.225599 -1.13333
      vertex -1.78581 -0.2256 -1.13333
    endloop
  endfacet
  facet normal -0.11082 0.877199 -0.467163
    outer loop
      vertex -0.150697 2.39526 0
      vertex -0.113023 1.79645 -1.13333
      vertex -0.237613 1.78071 -1.13333
    endloop
  endfacet
  facet normal 0 0.884171 -0.467163
    outer loop
      vertex -0.113023 1.79645 -1.13333
      vertex -0.150697 2.39526 0
      vertex -0.113022 1.79645 -1.13333
    endloop
  endfacet
  facet normal -0.681253 0.563604 -0.467168
    outer loop
      vertex -1.74952 1.64291 0
      vertex -1.31214 1.23218 -1.13333
      vertex -1.39219 1.13542 -1.13333
    endloop
  endfacet
  facet normal 0.885314 0 -0.464994
    outer loop
      vertex 1.78581 -0.225599 -1.13333
      vertex 2.38107 -0.300799 0
      vertex 1.78581 -0.2256 -1.13333
    endloop
  endfacet
  facet normal 0.88243 -0.0554806 -0.467161
    outer loop
      vertex 2.38107 -0.300799 0
      vertex 1.78581 -0.225599 -1.13333
      vertex 1.79369 -0.100266 -1.13333
    endloop
  endfacet
  facet normal 0.882424 -0.0555332 -0.467167
    outer loop
      vertex 2.4 0 0
      vertex 1.79369 -0.100266 -1.13333
      vertex 1.8 0 -1.13333
    endloop
  endfacet
  facet normal 0.882424 -0.055533 -0.467167
    outer loop
      vertex 1.79369 -0.100266 -1.13333
      vertex 2.4 0 0
      vertex 2.38107 -0.300799 0
    endloop
  endfacet
  facet normal 0.605286 -0.644502 -0.467169
    outer loop
      vertex 1.74952 -1.64291 0
      vertex 1.2206 -1.31815 -1.13333
      vertex 1.31214 -1.23218 -1.13333
    endloop
  endfacet
  facet normal -0.868503 -0.165718 -0.467161
    outer loop
      vertex -1.76698 -0.324285 -1.13333
      vertex -2.38107 -0.300799 0
      vertex -1.78581 -0.2256 -1.13333
    endloop
  endfacet
  facet normal -0.868512 -0.165661 -0.467166
    outer loop
      vertex -2.38107 -0.300799 0
      vertex -1.76698 -0.324285 -1.13333
      vertex -2.3246 -0.596855 0
    endloop
  endfacet
  facet normal 0.5197 0.715307 -0.46717
    outer loop
      vertex 1.14736 1.38692 -1.13333
      vertex 1.28598 2.02639 0
      vertex 1.52982 1.84923 0
    endloop
  endfacet
  facet normal 0.519786 0.715256 -0.467152
    outer loop
      vertex 1.28598 2.02639 0
      vertex 1.14736 1.38692 -1.13333
      vertex 1.06609 1.44598 -1.13333
    endloop
  endfacet
  facet normal -0.885314 0 -0.464994
    outer loop
      vertex -1.78581 0.225599 -1.13333
      vertex -2.38107 0.300799 0
      vertex -1.78581 0.2256 -1.13333
    endloop
  endfacet
  facet normal -0.88243 0.0554806 -0.467161
    outer loop
      vertex -2.38107 0.300799 0
      vertex -1.78581 0.225599 -1.13333
      vertex -1.79369 0.100266 -1.13333
    endloop
  endfacet
  facet normal 0.800021 -0.376463 -0.467164
    outer loop
      vertex 2.23146 -0.883498 0
      vertex 1.62013 -0.776253 -1.13333
      vertex 1.6736 -0.662624 -1.13333
    endloop
  endfacet
  facet normal 0.868503 -0.165718 -0.467161
    outer loop
      vertex 2.38107 -0.300799 0
      vertex 1.76698 -0.324285 -1.13333
      vertex 1.78581 -0.2256 -1.13333
    endloop
  endfacet
  facet normal 0.868512 -0.165661 -0.467166
    outer loop
      vertex 1.76698 -0.324285 -1.13333
      vertex 2.38107 -0.300799 0
      vertex 2.3246 -0.596855 0
    endloop
  endfacet
  facet normal 0.681253 -0.563604 -0.467168
    outer loop
      vertex 1.74952 -1.64291 0
      vertex 1.31214 -1.23218 -1.13333
      vertex 1.39219 -1.13542 -1.13333
    endloop
  endfacet
  facet normal 0.519663 -0.715335 -0.467169
    outer loop
      vertex 1.28598 -2.02639 0
      vertex 0.964488 -1.51979 -1.13333
      vertex 1.06609 -1.44598 -1.13333
    endloop
  endfacet
  facet normal 0.110802 -0.8772 -0.467165
    outer loop
      vertex 0.150697 -2.39526 0
      vertex 0.337286 -1.76812 -1.13333
      vertex 0.449715 -2.35749 0
    endloop
  endfacet
  facet normal 0.110802 -0.8772 -0.467165
    outer loop
      vertex 0.337286 -1.76812 -1.13333
      vertex 0.150697 -2.39526 0
      vertex 0.237613 -1.78071 -1.13333
    endloop
  endfacet
  facet normal 0.425939 -0.774811 -0.467166
    outer loop
      vertex 1.02187 -2.17158 0
      vertex 0.85444 -1.58029 -1.13333
      vertex 1.28598 -2.02639 0
    endloop
  endfacet
  facet normal 0.425957 -0.774802 -0.467164
    outer loop
      vertex 1.02187 -2.17158 0
      vertex 0.766402 -1.62869 -1.13333
      vertex 0.85444 -1.58029 -1.13333
    endloop
  endfacet
  facet normal -0.800021 -0.376463 -0.467164
    outer loop
      vertex -1.62013 -0.776253 -1.13333
      vertex -2.23146 -0.883498 0
      vertex -1.6736 -0.662624 -1.13333
    endloop
  endfacet
  facet normal -0.746536 -0.473746 -0.467171
    outer loop
      vertex -1.52352 -0.951982 -1.13333
      vertex -2.10314 -1.15621 0
      vertex -1.57735 -0.867156 -1.13333
    endloop
  endfacet
  facet normal -0.746517 -0.473779 -0.467168
    outer loop
      vertex -2.10314 -1.15621 0
      vertex -1.52352 -0.951982 -1.13333
      vertex -1.94164 -1.41068 0
    endloop
  endfacet
  facet normal -0.11082 -0.877199 -0.467163
    outer loop
      vertex -0.113023 -1.79645 -1.13333
      vertex -0.150697 -2.39526 0
      vertex -0.237613 -1.78071 -1.13333
    endloop
  endfacet
  facet normal 0 -0.884171 -0.467163
    outer loop
      vertex -0.150697 -2.39526 0
      vertex -0.113023 -1.79645 -1.13333
      vertex -0.113022 -1.79645 -1.13333
    endloop
  endfacet
  facet normal 0 -0.884171 -0.467163
    outer loop
      vertex -0.113022 -1.79645 -1.13333
      vertex 0.150697 -2.39526 0
      vertex -0.150697 -2.39526 0
    endloop
  endfacet
  facet normal 0 -0.884171 -0.467163
    outer loop
      vertex 0.150697 -2.39526 0
      vertex -0.113022 -1.79645 -1.13333
      vertex 0.113022 -1.79645 -1.13333
    endloop
  endfacet
  facet normal -0.425939 0.774811 -0.467166
    outer loop
      vertex -1.02187 2.17158 0
      vertex -0.85444 1.58029 -1.13333
      vertex -1.28598 2.02639 0
    endloop
  endfacet
  facet normal -0.425957 0.774802 -0.467164
    outer loop
      vertex -1.02187 2.17158 0
      vertex -0.766402 1.62869 -1.13333
      vertex -0.85444 1.58029 -1.13333
    endloop
  endfacet
  facet normal -0.605221 0.64456 -0.467172
    outer loop
      vertex -1.2206 1.31815 -1.13333
      vertex -1.52982 1.84923 0
      vertex -1.14736 1.38692 -1.13333
    endloop
  endfacet
  facet normal -0.605268 0.64452 -0.467166
    outer loop
      vertex -1.52982 1.84923 0
      vertex -1.2206 1.31815 -1.13333
      vertex -1.74952 1.64291 0
    endloop
  endfacet
  facet normal -0.325455 0.822087 -0.467174
    outer loop
      vertex -0.766402 1.62869 -1.13333
      vertex -0.74164 2.28254 0
      vertex -0.672992 1.66567 -1.13333
    endloop
  endfacet
  facet normal -0.325508 0.822072 -0.467164
    outer loop
      vertex -0.74164 2.28254 0
      vertex -0.766402 1.62869 -1.13333
      vertex -1.02187 2.17158 0
    endloop
  endfacet
  facet normal 0 0 1
    outer loop
      vertex 2.38107 0.300799 0
      vertex 2.38107 -0.300799 0
      vertex 2.4 0 0
    endloop
  endfacet
  facet normal 0 0 1
    outer loop
      vertex 2.3246 0.596855 0
      vertex 2.38107 -0.300799 0
      vertex 2.38107 0.300799 0
    endloop
  endfacet
  facet normal 0 0 1
    outer loop
      vertex 2.3246 0.596855 0
      vertex 2.3246 -0.596855 0
      vertex 2.38107 -0.300799 0
    endloop
  endfacet
  facet normal 0 0 1
    outer loop
      vertex 2.23146 0.883498 0
      vertex 2.3246 -0.596855 0
      vertex 2.3246 0.596855 0
    endloop
  endfacet
  facet normal 0 0 1
    outer loop
      vertex 2.23146 0.883498 0
      vertex 2.23146 -0.883498 0
      vertex 2.3246 -0.596855 0
    endloop
  endfacet
  facet normal 0 0 1
    outer loop
      vertex 2.10314 1.15621 0
      vertex 2.23146 -0.883498 0
      vertex 2.23146 0.883498 0
    endloop
  endfacet
  facet normal 0 0 1
    outer loop
      vertex 2.10314 1.15621 0
      vertex 2.10314 -1.15621 0
      vertex 2.23146 -0.883498 0
    endloop
  endfacet
  facet normal 0 0 1
    outer loop
      vertex 1.94164 1.41068 0
      vertex 2.10314 -1.15621 0
      vertex 2.10314 1.15621 0
    endloop
  endfacet
  facet normal 0 0 1
    outer loop
      vertex 1.94164 1.41068 0
      vertex 1.94164 -1.41068 0
      vertex 2.10314 -1.15621 0
    endloop
  endfacet
  facet normal 0 0 1
    outer loop
      vertex 1.74952 1.64291 0
      vertex 1.94164 -1.41068 0
      vertex 1.94164 1.41068 0
    endloop
  endfacet
  facet normal 0 0 1
    outer loop
      vertex 1.74952 1.64291 0
      vertex 1.74952 -1.64291 0
      vertex 1.94164 -1.41068 0
    endloop
  endfacet
  facet normal 0 0 1
    outer loop
      vertex 1.52982 1.84923 0
      vertex 1.74952 -1.64291 0
      vertex 1.74952 1.64291 0
    endloop
  endfacet
  facet normal 0 0 1
    outer loop
      vertex 1.52982 1.84923 0
      vertex 1.52982 -1.84923 0
      vertex 1.74952 -1.64291 0
    endloop
  endfacet
  facet normal 0 0 1
    outer loop
      vertex 1.28598 2.02639 0
      vertex 1.52982 -1.84923 0
      vertex 1.52982 1.84923 0
    endloop
  endfacet
  facet normal 0 0 1
    outer loop
      vertex 1.28598 2.02639 0
      vertex 1.28598 -2.02639 0
      vertex 1.52982 -1.84923 0
    endloop
  endfacet
  facet normal 0 0 1
    outer loop
      vertex 1.02187 2.17158 0
      vertex 1.28598 -2.02639 0
      vertex 1.28598 2.02639 0
    endloop
  endfacet
  facet normal 0 0 1
    outer loop
      vertex 1.02187 2.17158 0
      vertex 1.02187 -2.17158 0
      vertex 1.28598 -2.02639 0
    endloop
  endfacet
  facet normal 0 0 1
    outer loop
      vertex 0.74164 2.28254 0
      vertex 1.02187 -2.17158 0
      vertex 1.02187 2.17158 0
    endloop
  endfacet
  facet normal 0 0 1
    outer loop
      vertex 0.74164 2.28254 0
      vertex 0.74164 -2.28254 0
      vertex 1.02187 -2.17158 0
    endloop
  endfacet
  facet normal 0 0 1
    outer loop
      vertex 0.449715 2.35749 0
      vertex 0.74164 -2.28254 0
      vertex 0.74164 2.28254 0
    endloop
  endfacet
  facet normal 0 0 1
    outer loop
      vertex 0.449715 2.35749 0
      vertex 0.449715 -2.35749 0
      vertex 0.74164 -2.28254 0
    endloop
  endfacet
  facet normal 0 0 1
    outer loop
      vertex 0.150697 2.39526 0
      vertex 0.449715 -2.35749 0
      vertex 0.449715 2.35749 0
    endloop
  endfacet
  facet normal 0 0 1
    outer loop
      vertex 0.150697 2.39526 0
      vertex 0.150697 -2.39526 0
      vertex 0.449715 -2.35749 0
    endloop
  endfacet
  facet normal -0 0 1
    outer loop
      vertex -0.150697 2.39526 0
      vertex 0.150697 -2.39526 0
      vertex 0.150697 2.39526 0
    endloop
  endfacet
  facet normal 0 0 1
    outer loop
      vertex -0.150697 2.39526 0
      vertex -0.150697 -2.39526 0
      vertex 0.150697 -2.39526 0
    endloop
  endfacet
  facet normal -0 0 1
    outer loop
      vertex -0.449715 2.35749 0
      vertex -0.150697 -2.39526 0
      vertex -0.150697 2.39526 0
    endloop
  endfacet
  facet normal 0 0 1
    outer loop
      vertex -0.449715 2.35749 0
      vertex -0.449715 -2.35749 0
      vertex -0.150697 -2.39526 0
    endloop
  endfacet
  facet normal -0 0 1
    outer loop
      vertex -0.74164 2.28254 0
      vertex -0.449715 -2.35749 0
      vertex -0.449715 2.35749 0
    endloop
  endfacet
  facet normal 0 0 1
    outer loop
      vertex -0.74164 2.28254 0
      vertex -0.74164 -2.28254 0
      vertex -0.449715 -2.35749 0
    endloop
  endfacet
  facet normal -0 0 1
    outer loop
      vertex -1.02187 2.17158 0
      vertex -0.74164 -2.28254 0
      vertex -0.74164 2.28254 0
    endloop
  endfacet
  facet normal 0 0 1
    outer loop
      vertex -1.02187 2.17158 0
      vertex -1.02187 -2.17158 0
      vertex -0.74164 -2.28254 0
    endloop
  endfacet
  facet normal -0 0 1
    outer loop
      vertex -1.28598 2.02639 0
      vertex -1.02187 -2.17158 0
      vertex -1.02187 2.17158 0
    endloop
  endfacet
  facet normal 0 0 1
    outer loop
      vertex -1.28598 2.02639 0
      vertex -1.28598 -2.02639 0
      vertex -1.02187 -2.17158 0
    endloop
  endfacet
  facet normal -0 0 1
    outer loop
      vertex -1.52982 1.84923 0
      vertex -1.28598 -2.02639 0
      vertex -1.28598 2.02639 0
    endloop
  endfacet
  facet normal 0 0 1
    outer loop
      vertex -1.52982 1.84923 0
      vertex -1.52982 -1.84923 0
      vertex -1.28598 -2.02639 0
    endloop
  endfacet
  facet normal -0 0 1
    outer loop
      vertex -1.74952 1.64291 0
      vertex -1.52982 -1.84923 0
      vertex -1.52982 1.84923 0
    endloop
  endfacet
  facet normal 0 0 1
    outer loop
      vertex -1.74952 1.64291 0
      vertex -1.74952 -1.64291 0
      vertex -1.52982 -1.84923 0
    endloop
  endfacet
  facet normal -0 0 1
    outer loop
      vertex -1.94164 1.41068 0
      vertex -1.74952 -1.64291 0
      vertex -1.74952 1.64291 0
    endloop
  endfacet
  facet normal 0 0 1
    outer loop
      vertex -1.94164 1.41068 0
      vertex -1.94164 -1.41068 0
      vertex -1.74952 -1.64291 0
    endloop
  endfacet
  facet normal -0 0 1
    outer loop
      vertex -2.10314 1.15621 0
      vertex -1.94164 -1.41068 0
      vertex -1.94164 1.41068 0
    endloop
  endfacet
  facet normal 0 0 1
    outer loop
      vertex -2.10314 1.15621 0
      vertex -2.10314 -1.15621 0
      vertex -1.94164 -1.41068 0
    endloop
  endfacet
  facet normal -0 0 1
    outer loop
      vertex -2.23146 0.883498 0
      vertex -2.10314 -1.15621 0
      vertex -2.10314 1.15621 0
    endloop
  endfacet
  facet normal 0 0 1
    outer loop
      vertex -2.23146 0.883498 0
      vertex -2.23146 -0.883498 0
      vertex -2.10314 -1.15621 0
    endloop
  endfacet
  facet normal -0 0 1
    outer loop
      vertex -2.3246 0.596855 0
      vertex -2.23146 -0.883498 0
      vertex -2.23146 0.883498 0
    endloop
  endfacet
  facet normal 0 0 1
    outer loop
      vertex -2.3246 0.596855 0
      vertex -2.3246 -0.596855 0
      vertex -2.23146 -0.883498 0
    endloop
  endfacet
  facet normal -0 0 1
    outer loop
      vertex -2.38107 0.300799 0
      vertex -2.3246 -0.596855 0
      vertex -2.3246 0.596855 0
    endloop
  endfacet
  facet normal 0 0 1
    outer loop
      vertex -2.38107 0.300799 0
      vertex -2.38107 -0.300799 0
      vertex -2.3246 -0.596855 0
    endloop
  endfacet
  facet normal 0 -0 1
    outer loop
      vertex -2.38107 -0.300799 0
      vertex -2.38107 0.300799 0
      vertex -2.4 0 0
    endloop
  endfacet
  facet normal 0.897198 0 -0.441629
    outer loop
      vertex 1.6736 -0.662623 -1.13333
      vertex 2.23146 -0.883498 0
      vertex 1.6736 -0.662624 -1.13333
    endloop
  endfacet
  facet normal 0.84091 -0.273183 -0.467163
    outer loop
      vertex 2.23146 -0.883498 0
      vertex 1.6736 -0.662623 -1.13333
      vertex 1.7124 -0.543189 -1.13333
    endloop
  endfacet
  facet normal 0.746536 -0.473746 -0.467171
    outer loop
      vertex 2.10314 -1.15621 0
      vertex 1.52352 -0.951982 -1.13333
      vertex 1.57735 -0.867156 -1.13333
    endloop
  endfacet
  facet normal 0.746517 -0.473779 -0.467168
    outer loop
      vertex 1.52352 -0.951982 -1.13333
      vertex 2.10314 -1.15621 0
      vertex 1.94164 -1.41068 0
    endloop
  endfacet
  facet normal 0.800009 -0.376493 -0.46716
    outer loop
      vertex 2.23146 -0.883498 0
      vertex 1.57735 -0.867156 -1.13333
      vertex 1.62013 -0.776253 -1.13333
    endloop
  endfacet
  facet normal 0.800028 -0.37644 -0.46717
    outer loop
      vertex 2.10314 -1.15621 0
      vertex 1.57735 -0.867156 -1.13333
      vertex 2.23146 -0.883498 0
    endloop
  endfacet
  facet normal 0.74652 -0.473774 -0.467167
    outer loop
      vertex 1.94164 -1.41068 0
      vertex 1.45623 -1.05801 -1.13333
      vertex 1.52352 -0.951982 -1.13333
    endloop
  endfacet
  facet normal 0.68126 -0.563595 -0.467166
    outer loop
      vertex 1.94164 -1.41068 0
      vertex 1.39219 -1.13542 -1.13333
      vertex 1.45623 -1.05801 -1.13333
    endloop
  endfacet
  facet normal 0.68126 -0.563595 -0.467166
    outer loop
      vertex 1.39219 -1.13542 -1.13333
      vertex 1.94164 -1.41068 0
      vertex 1.74952 -1.64291 0
    endloop
  endfacet
  facet normal 0.11082 -0.877199 -0.467163
    outer loop
      vertex 0.150697 -2.39526 0
      vertex 0.113023 -1.79645 -1.13333
      vertex 0.237613 -1.78071 -1.13333
    endloop
  endfacet
  facet normal -0 -0.884171 -0.467163
    outer loop
      vertex 0.113023 -1.79645 -1.13333
      vertex 0.150697 -2.39526 0
      vertex 0.113022 -1.79645 -1.13333
    endloop
  endfacet
  facet normal 0.325455 -0.822087 -0.467174
    outer loop
      vertex 0.766402 -1.62869 -1.13333
      vertex 0.74164 -2.28254 0
      vertex 0.672992 -1.66567 -1.13333
    endloop
  endfacet
  facet normal 0.325508 -0.822072 -0.467164
    outer loop
      vertex 0.74164 -2.28254 0
      vertex 0.766402 -1.62869 -1.13333
      vertex 1.02187 -2.17158 0
    endloop
  endfacet
  facet normal 0.519786 -0.715256 -0.467152
    outer loop
      vertex 1.14736 -1.38692 -1.13333
      vertex 1.28598 -2.02639 0
      vertex 1.06609 -1.44598 -1.13333
    endloop
  endfacet
  facet normal 0.5197 -0.715307 -0.46717
    outer loop
      vertex 1.28598 -2.02639 0
      vertex 1.14736 -1.38692 -1.13333
      vertex 1.52982 -1.84923 0
    endloop
  endfacet
  facet normal 0.605221 -0.64456 -0.467172
    outer loop
      vertex 1.2206 -1.31815 -1.13333
      vertex 1.52982 -1.84923 0
      vertex 1.14736 -1.38692 -1.13333
    endloop
  endfacet
  facet normal 0.605268 -0.64452 -0.467166
    outer loop
      vertex 1.52982 -1.84923 0
      vertex 1.2206 -1.31815 -1.13333
      vertex 1.74952 -1.64291 0
    endloop
  endfacet
  facet normal -0.86851 -0.165667 -0.467167
    outer loop
      vertex -1.74345 -0.447641 -1.13333
      vertex -2.3246 -0.596855 0
      vertex -1.76698 -0.324285 -1.13333
    endloop
  endfacet
  facet normal -0.325508 -0.822072 -0.467164
    outer loop
      vertex -0.766402 -1.62869 -1.13333
      vertex -0.74164 -2.28254 0
      vertex -1.02187 -2.17158 0
    endloop
  endfacet
  facet normal -0.325455 -0.822087 -0.467174
    outer loop
      vertex -0.74164 -2.28254 0
      vertex -0.766402 -1.62869 -1.13333
      vertex -0.672992 -1.66567 -1.13333
    endloop
  endfacet
  facet normal -0.681253 -0.563604 -0.467168
    outer loop
      vertex -1.31214 -1.23218 -1.13333
      vertex -1.74952 -1.64291 0
      vertex -1.39219 -1.13542 -1.13333
    endloop
  endfacet
  facet normal -0.800009 -0.376493 -0.46716
    outer loop
      vertex -1.57735 -0.867156 -1.13333
      vertex -2.23146 -0.883498 0
      vertex -1.62013 -0.776253 -1.13333
    endloop
  endfacet
  facet normal -0.800028 -0.37644 -0.46717
    outer loop
      vertex -1.57735 -0.867156 -1.13333
      vertex -2.10314 -1.15621 0
      vertex -2.23146 -0.883498 0
    endloop
  endfacet
  facet normal -0.219874 -0.856392 -0.46717
    outer loop
      vertex -0.434595 -1.74313 -1.13333
      vertex -0.449715 -2.35749 0
      vertex -0.74164 -2.28254 0
    endloop
  endfacet
  facet normal -0.219928 -0.856381 -0.467165
    outer loop
      vertex -0.449715 -2.35749 0
      vertex -0.434595 -1.74313 -1.13333
      vertex -0.337286 -1.76812 -1.13333
    endloop
  endfacet
  facet normal -0.110802 -0.8772 -0.467165
    outer loop
      vertex -0.449715 -2.35749 0
      vertex -0.337286 -1.76812 -1.13333
      vertex -0.150697 -2.39526 0
    endloop
  endfacet
  facet normal -0.110802 -0.8772 -0.467165
    outer loop
      vertex -0.150697 -2.39526 0
      vertex -0.337286 -1.76812 -1.13333
      vertex -0.237613 -1.78071 -1.13333
    endloop
  endfacet
  facet normal 0.746517 0.473779 -0.467168
    outer loop
      vertex 2.10314 1.15621 0
      vertex 1.52352 0.951982 -1.13333
      vertex 1.94164 1.41068 0
    endloop
  endfacet
  facet normal 0.746536 0.473746 -0.467171
    outer loop
      vertex 1.52352 0.951982 -1.13333
      vertex 2.10314 1.15621 0
      vertex 1.57735 0.867156 -1.13333
    endloop
  endfacet
  facet normal 0.219874 0.856392 -0.46717
    outer loop
      vertex 0.434595 1.74313 -1.13333
      vertex 0.449715 2.35749 0
      vertex 0.74164 2.28254 0
    endloop
  endfacet
  facet normal 0.219928 0.856381 -0.467165
    outer loop
      vertex 0.449715 2.35749 0
      vertex 0.434595 1.74313 -1.13333
      vertex 0.337286 1.76812 -1.13333
    endloop
  endfacet
  facet normal 0 0.884171 -0.467163
    outer loop
      vertex 0.113022 1.79645 -1.13333
      vertex -0.150697 2.39526 0
      vertex 0.150697 2.39526 0
    endloop
  endfacet
  facet normal 0 0.884171 -0.467163
    outer loop
      vertex -0.150697 2.39526 0
      vertex 0.113022 1.79645 -1.13333
      vertex -0.113022 1.79645 -1.13333
    endloop
  endfacet
  facet normal 0 0.893171 -0.449718
    outer loop
      vertex -0.74164 2.28254 0
      vertex -0.55623 1.7119 -1.13333
      vertex -0.556231 1.7119 -1.13333
    endloop
  endfacet
  facet normal -0.32549 0.822076 -0.46717
    outer loop
      vertex -0.74164 2.28254 0
      vertex -0.556231 1.7119 -1.13333
      vertex -0.672992 1.66567 -1.13333
    endloop
  endfacet
  facet normal -0.519786 0.715256 -0.467152
    outer loop
      vertex -1.14736 1.38692 -1.13333
      vertex -1.28598 2.02639 0
      vertex -1.06609 1.44598 -1.13333
    endloop
  endfacet
  facet normal -0.5197 0.715307 -0.46717
    outer loop
      vertex -1.28598 2.02639 0
      vertex -1.14736 1.38692 -1.13333
      vertex -1.52982 1.84923 0
    endloop
  endfacet
  facet normal -0.425955 0.774801 -0.467168
    outer loop
      vertex -0.964488 1.51979 -1.13333
      vertex -1.28598 2.02639 0
      vertex -0.85444 1.58029 -1.13333
    endloop
  endfacet
  facet normal -0.605286 0.644502 -0.467169
    outer loop
      vertex -1.31214 1.23218 -1.13333
      vertex -1.74952 1.64291 0
      vertex -1.2206 1.31815 -1.13333
    endloop
  endfacet
  facet normal -0.21988 0.85639 -0.467171
    outer loop
      vertex -0.55623 1.7119 -1.13333
      vertex -0.74164 2.28254 0
      vertex -0.434595 1.74313 -1.13333
    endloop
  endfacet
  facet normal -0.800028 0.37644 -0.46717
    outer loop
      vertex -2.10314 1.15621 0
      vertex -1.57735 0.867156 -1.13333
      vertex -2.23146 0.883498 0
    endloop
  endfacet
  facet normal -0.800009 0.376493 -0.46716
    outer loop
      vertex -2.23146 0.883498 0
      vertex -1.57735 0.867156 -1.13333
      vertex -1.62013 0.776253 -1.13333
    endloop
  endfacet
  facet normal -0.68126 0.563595 -0.467166
    outer loop
      vertex -1.39219 1.13542 -1.13333
      vertex -1.94164 1.41068 0
      vertex -1.74952 1.64291 0
    endloop
  endfacet
  facet normal -0.68126 0.563595 -0.467166
    outer loop
      vertex -1.94164 1.41068 0
      vertex -1.39219 1.13542 -1.13333
      vertex -1.45623 1.05801 -1.13333
    endloop
  endfacet
  facet normal -0.868512 0.165661 -0.467166
    outer loop
      vertex -1.76698 0.324285 -1.13333
      vertex -2.38107 0.300799 0
      vertex -2.3246 0.596855 0
    endloop
  endfacet
  facet normal -0.868503 0.165718 -0.467161
    outer loop
      vertex -2.38107 0.300799 0
      vertex -1.76698 0.324285 -1.13333
      vertex -1.78581 0.2256 -1.13333
    endloop
  endfacet
  facet normal -0.882424 0.0555332 -0.467167
    outer loop
      vertex -2.4 0 0
      vertex -1.79369 0.100266 -1.13333
      vertex -1.8 0 -1.13333
    endloop
  endfacet
  facet normal -0.882424 0.055533 -0.467167
    outer loop
      vertex -1.79369 0.100266 -1.13333
      vertex -2.4 0 0
      vertex -2.38107 0.300799 0
    endloop
  endfacet
  facet normal -0.882424 -0.0555332 -0.467167
    outer loop
      vertex -1.79369 -0.100266 -1.13333
      vertex -2.4 0 0
      vertex -1.8 0 -1.13333
    endloop
  endfacet
  facet normal -0.882424 -0.055533 -0.467167
    outer loop
      vertex -2.4 0 0
      vertex -1.79369 -0.100266 -1.13333
      vertex -2.38107 -0.300799 0
    endloop
  endfacet
  facet normal 0.86851 -0.165667 -0.467167
    outer loop
      vertex 2.3246 -0.596855 0
      vertex 1.74345 -0.447641 -1.13333
      vertex 1.76698 -0.324285 -1.13333
    endloop
  endfacet
  facet normal 0.840883 -0.27326 -0.467166
    outer loop
      vertex 2.3246 -0.596855 0
      vertex 1.7124 -0.543189 -1.13333
      vertex 1.74345 -0.447641 -1.13333
    endloop
  endfacet
  facet normal 0.84089 -0.273234 -0.467169
    outer loop
      vertex 1.7124 -0.543189 -1.13333
      vertex 2.3246 -0.596855 0
      vertex 2.23146 -0.883498 0
    endloop
  endfacet
  facet normal 0.425955 -0.774801 -0.467168
    outer loop
      vertex 1.28598 -2.02639 0
      vertex 0.85444 -1.58029 -1.13333
      vertex 0.964488 -1.51979 -1.13333
    endloop
  endfacet
  facet normal 0.219928 -0.856381 -0.467165
    outer loop
      vertex 0.434595 -1.74313 -1.13333
      vertex 0.449715 -2.35749 0
      vertex 0.337286 -1.76812 -1.13333
    endloop
  endfacet
  facet normal 0.219874 -0.856392 -0.46717
    outer loop
      vertex 0.449715 -2.35749 0
      vertex 0.434595 -1.74313 -1.13333
      vertex 0.74164 -2.28254 0
    endloop
  endfacet
  facet normal 0 -0.893171 -0.449718
    outer loop
      vertex 0.74164 -2.28254 0
      vertex 0.55623 -1.7119 -1.13333
      vertex 0.556231 -1.7119 -1.13333
    endloop
  endfacet
  facet normal 0.32549 -0.822076 -0.46717
    outer loop
      vertex 0.74164 -2.28254 0
      vertex 0.556231 -1.7119 -1.13333
      vertex 0.672992 -1.66567 -1.13333
    endloop
  endfacet
  facet normal 0.21988 -0.85639 -0.467171
    outer loop
      vertex 0.74164 -2.28254 0
      vertex 0.434595 -1.74313 -1.13333
      vertex 0.55623 -1.7119 -1.13333
    endloop
  endfacet
  facet normal -0.425939 -0.774811 -0.467166
    outer loop
      vertex -0.85444 -1.58029 -1.13333
      vertex -1.02187 -2.17158 0
      vertex -1.28598 -2.02639 0
    endloop
  endfacet
  facet normal -0.425957 -0.774802 -0.467164
    outer loop
      vertex -0.766402 -1.62869 -1.13333
      vertex -1.02187 -2.17158 0
      vertex -0.85444 -1.58029 -1.13333
    endloop
  endfacet
  facet normal -0.425955 -0.774801 -0.467168
    outer loop
      vertex -0.85444 -1.58029 -1.13333
      vertex -1.28598 -2.02639 0
      vertex -0.964488 -1.51979 -1.13333
    endloop
  endfacet
  facet normal -0.519663 -0.715335 -0.467169
    outer loop
      vertex -1.28598 -2.02639 0
      vertex -1.06609 -1.44598 -1.13333
      vertex -0.964488 -1.51979 -1.13333
    endloop
  endfacet
  facet normal -0.5197 -0.715307 -0.46717
    outer loop
      vertex -1.14736 -1.38692 -1.13333
      vertex -1.28598 -2.02639 0
      vertex -1.52982 -1.84923 0
    endloop
  endfacet
  facet normal -0.519786 -0.715256 -0.467152
    outer loop
      vertex -1.28598 -2.02639 0
      vertex -1.14736 -1.38692 -1.13333
      vertex -1.06609 -1.44598 -1.13333
    endloop
  endfacet
  facet normal -0.840883 -0.27326 -0.467166
    outer loop
      vertex -1.7124 -0.543189 -1.13333
      vertex -2.3246 -0.596855 0
      vertex -1.74345 -0.447641 -1.13333
    endloop
  endfacet
  facet normal -0.84089 -0.273234 -0.467169
    outer loop
      vertex -2.3246 -0.596855 0
      vertex -1.7124 -0.543189 -1.13333
      vertex -2.23146 -0.883498 0
    endloop
  endfacet
  facet normal -0.84091 -0.273183 -0.467163
    outer loop
      vertex -1.6736 -0.662623 -1.13333
      vertex -2.23146 -0.883498 0
      vertex -1.7124 -0.543189 -1.13333
    endloop
  endfacet
  facet normal -0.897198 0 -0.441629
    outer loop
      vertex -2.23146 -0.883498 0
      vertex -1.6736 -0.662623 -1.13333
      vertex -1.6736 -0.662624 -1.13333
    endloop
  endfacet
  facet normal -0.21988 -0.85639 -0.467171
    outer loop
      vertex -0.434595 -1.74313 -1.13333
      vertex -0.74164 -2.28254 0
      vertex -0.55623 -1.7119 -1.13333
    endloop
  endfacet
  facet normal 0.800028 0.37644 -0.46717
    outer loop
      vertex 1.57735 0.867156 -1.13333
      vertex 2.10314 1.15621 0
      vertex 2.23146 0.883498 0
    endloop
  endfacet
  facet normal 0.800009 0.376493 -0.46716
    outer loop
      vertex 1.57735 0.867156 -1.13333
      vertex 2.23146 0.883498 0
      vertex 1.62013 0.776253 -1.13333
    endloop
  endfacet
  facet normal 0.325508 0.822072 -0.467164
    outer loop
      vertex 0.766402 1.62869 -1.13333
      vertex 0.74164 2.28254 0
      vertex 1.02187 2.17158 0
    endloop
  endfacet
  facet normal 0.325455 0.822087 -0.467174
    outer loop
      vertex 0.74164 2.28254 0
      vertex 0.766402 1.62869 -1.13333
      vertex 0.672992 1.66567 -1.13333
    endloop
  endfacet
  facet normal 0.425955 0.774801 -0.467168
    outer loop
      vertex 0.964488 1.51979 -1.13333
      vertex 0.85444 1.58029 -1.13333
      vertex 1.28598 2.02639 0
    endloop
  endfacet
  facet normal 0.425939 0.774811 -0.467166
    outer loop
      vertex 0.85444 1.58029 -1.13333
      vertex 1.02187 2.17158 0
      vertex 1.28598 2.02639 0
    endloop
  endfacet
  facet normal 0.425957 0.774802 -0.467164
    outer loop
      vertex 0.766402 1.62869 -1.13333
      vertex 1.02187 2.17158 0
      vertex 0.85444 1.58029 -1.13333
    endloop
  endfacet
  facet normal 0.519663 0.715335 -0.467169
    outer loop
      vertex 1.28598 2.02639 0
      vertex 1.06609 1.44598 -1.13333
      vertex 0.964488 1.51979 -1.13333
    endloop
  endfacet
  facet normal 0.110802 0.8772 -0.467165
    outer loop
      vertex 0.449715 2.35749 0
      vertex 0.337286 1.76812 -1.13333
      vertex 0.150697 2.39526 0
    endloop
  endfacet
  facet normal 0.110802 0.8772 -0.467165
    outer loop
      vertex 0.150697 2.39526 0
      vertex 0.337286 1.76812 -1.13333
      vertex 0.237613 1.78071 -1.13333
    endloop
  endfacet
  facet normal -0.219928 0.856381 -0.467165
    outer loop
      vertex -0.434595 1.74313 -1.13333
      vertex -0.449715 2.35749 0
      vertex -0.337286 1.76812 -1.13333
    endloop
  endfacet
  facet normal -0.219874 0.856392 -0.46717
    outer loop
      vertex -0.449715 2.35749 0
      vertex -0.434595 1.74313 -1.13333
      vertex -0.74164 2.28254 0
    endloop
  endfacet
  facet normal -0.110802 0.8772 -0.467165
    outer loop
      vertex -0.150697 2.39526 0
      vertex -0.337286 1.76812 -1.13333
      vertex -0.449715 2.35749 0
    endloop
  endfacet
  facet normal -0.110802 0.8772 -0.467165
    outer loop
      vertex -0.337286 1.76812 -1.13333
      vertex -0.150697 2.39526 0
      vertex -0.237613 1.78071 -1.13333
    endloop
  endfacet
  facet normal -0.519663 0.715335 -0.467169
    outer loop
      vertex -1.28598 2.02639 0
      vertex -0.964488 1.51979 -1.13333
      vertex -1.06609 1.44598 -1.13333
    endloop
  endfacet
  facet normal -0.746517 0.473779 -0.467168
    outer loop
      vertex -1.52352 0.951982 -1.13333
      vertex -2.10314 1.15621 0
      vertex -1.94164 1.41068 0
    endloop
  endfacet
  facet normal -0.746536 0.473746 -0.467171
    outer loop
      vertex -2.10314 1.15621 0
      vertex -1.52352 0.951982 -1.13333
      vertex -1.57735 0.867156 -1.13333
    endloop
  endfacet
  facet normal -0.74652 0.473774 -0.467167
    outer loop
      vertex -1.94164 1.41068 0
      vertex -1.45623 1.05801 -1.13333
      vertex -1.52352 0.951982 -1.13333
    endloop
  endfacet
  facet normal -0.897198 0 -0.441629
    outer loop
      vertex -1.6736 0.662623 -1.13333
      vertex -2.23146 0.883498 0
      vertex -1.6736 0.662624 -1.13333
    endloop
  endfacet
  facet normal -0.84091 0.273183 -0.467163
    outer loop
      vertex -2.23146 0.883498 0
      vertex -1.6736 0.662623 -1.13333
      vertex -1.7124 0.543189 -1.13333
    endloop
  endfacet
  facet normal -0.32549 -0.822076 -0.46717
    outer loop
      vertex -0.74164 -2.28254 0
      vertex -0.672992 -1.66567 -1.13333
      vertex -0.556231 -1.7119 -1.13333
    endloop
  endfacet
  facet normal 0 -0.893171 -0.449718
    outer loop
      vertex -0.74164 -2.28254 0
      vertex -0.556231 -1.7119 -1.13333
      vertex -0.55623 -1.7119 -1.13333
    endloop
  endfacet
  facet normal -0.68126 -0.563595 -0.467166
    outer loop
      vertex -1.39219 -1.13542 -1.13333
      vertex -1.94164 -1.41068 0
      vertex -1.45623 -1.05801 -1.13333
    endloop
  endfacet
  facet normal -0.68126 -0.563595 -0.467166
    outer loop
      vertex -1.94164 -1.41068 0
      vertex -1.39219 -1.13542 -1.13333
      vertex -1.74952 -1.64291 0
    endloop
  endfacet
  facet normal -0.74652 -0.473774 -0.467167
    outer loop
      vertex -1.45623 -1.05801 -1.13333
      vertex -1.94164 -1.41068 0
      vertex -1.52352 -0.951982 -1.13333
    endloop
  endfacet
  facet normal -0.605286 -0.644502 -0.467169
    outer loop
      vertex -1.2206 -1.31815 -1.13333
      vertex -1.74952 -1.64291 0
      vertex -1.31214 -1.23218 -1.13333
    endloop
  endfacet
  facet normal -0.605268 -0.64452 -0.467166
    outer loop
      vertex -1.2206 -1.31815 -1.13333
      vertex -1.52982 -1.84923 0
      vertex -1.74952 -1.64291 0
    endloop
  endfacet
  facet normal -0.605221 -0.64456 -0.467172
    outer loop
      vertex -1.52982 -1.84923 0
      vertex -1.2206 -1.31815 -1.13333
      vertex -1.14736 -1.38692 -1.13333
    endloop
  endfacet
  facet normal 0.605286 0.644502 -0.467169
    outer loop
      vertex 1.31214 1.23218 -1.13333
      vertex 1.2206 1.31815 -1.13333
      vertex 1.74952 1.64291 0
    endloop
  endfacet
  facet normal 0.605268 0.64452 -0.467166
    outer loop
      vertex 1.2206 1.31815 -1.13333
      vertex 1.52982 1.84923 0
      vertex 1.74952 1.64291 0
    endloop
  endfacet
  facet normal 0.605221 0.64456 -0.467172
    outer loop
      vertex 1.52982 1.84923 0
      vertex 1.2206 1.31815 -1.13333
      vertex 1.14736 1.38692 -1.13333
    endloop
  endfacet
  facet normal 0.800021 0.376463 -0.467164
    outer loop
      vertex 1.6736 0.662624 -1.13333
      vertex 1.62013 0.776253 -1.13333
      vertex 2.23146 0.883498 0
    endloop
  endfacet
  facet normal 0.32549 0.822076 -0.46717
    outer loop
      vertex 0.74164 2.28254 0
      vertex 0.672992 1.66567 -1.13333
      vertex 0.556231 1.7119 -1.13333
    endloop
  endfacet
  facet normal 0 0.893171 -0.449718
    outer loop
      vertex 0.74164 2.28254 0
      vertex 0.556231 1.7119 -1.13333
      vertex 0.55623 1.7119 -1.13333
    endloop
  endfacet
  facet normal 0.21988 0.85639 -0.467171
    outer loop
      vertex 0.55623 1.7119 -1.13333
      vertex 0.434595 1.74313 -1.13333
      vertex 0.74164 2.28254 0
    endloop
  endfacet
  facet normal -0.800021 0.376463 -0.467164
    outer loop
      vertex -1.6736 0.662624 -1.13333
      vertex -2.23146 0.883498 0
      vertex -1.62013 0.776253 -1.13333
    endloop
  endfacet
  facet normal -0.86851 0.165667 -0.467167
    outer loop
      vertex -1.76698 0.324285 -1.13333
      vertex -2.3246 0.596855 0
      vertex -1.74345 0.447641 -1.13333
    endloop
  endfacet
  facet normal -0.84089 0.273234 -0.467169
    outer loop
      vertex -1.7124 0.543189 -1.13333
      vertex -2.3246 0.596855 0
      vertex -2.23146 0.883498 0
    endloop
  endfacet
  facet normal -0.840883 0.27326 -0.467166
    outer loop
      vertex -2.3246 0.596855 0
      vertex -1.7124 0.543189 -1.13333
      vertex -1.74345 0.447641 -1.13333
    endloop
  endfacet
  facet normal 0.681253 0.563604 -0.467168
    outer loop
      vertex 1.31214 1.23218 -1.13333
      vertex 1.74952 1.64291 0
      vertex 1.39219 1.13542 -1.13333
    endloop
  endfacet
  facet normal 0.86851 0.165667 -0.467167
    outer loop
      vertex 1.76698 0.324285 -1.13333
      vertex 1.74345 0.447641 -1.13333
      vertex 2.3246 0.596855 0
    endloop
  endfacet
  facet normal 0.84089 0.273234 -0.467169
    outer loop
      vertex 2.3246 0.596855 0
      vertex 1.7124 0.543189 -1.13333
      vertex 2.23146 0.883498 0
    endloop
  endfacet
  facet normal 0.840883 0.27326 -0.467166
    outer loop
      vertex 1.7124 0.543189 -1.13333
      vertex 2.3246 0.596855 0
      vertex 1.74345 0.447641 -1.13333
    endloop
  endfacet
  facet normal 0.11082 0.877199 -0.467163
    outer loop
      vertex 0.113023 1.79645 -1.13333
      vertex 0.150697 2.39526 0
      vertex 0.237613 1.78071 -1.13333
    endloop
  endfacet
  facet normal 0 0.884171 -0.467163
    outer loop
      vertex 0.150697 2.39526 0
      vertex 0.113023 1.79645 -1.13333
      vertex 0.113022 1.79645 -1.13333
    endloop
  endfacet
  facet normal 0.68126 0.563595 -0.467166
    outer loop
      vertex 1.94164 1.41068 0
      vertex 1.39219 1.13542 -1.13333
      vertex 1.74952 1.64291 0
    endloop
  endfacet
  facet normal 0.68126 0.563595 -0.467166
    outer loop
      vertex 1.39219 1.13542 -1.13333
      vertex 1.94164 1.41068 0
      vertex 1.45623 1.05801 -1.13333
    endloop
  endfacet
  facet normal 0.74652 0.473774 -0.467167
    outer loop
      vertex 1.45623 1.05801 -1.13333
      vertex 1.94164 1.41068 0
      vertex 1.52352 0.951982 -1.13333
    endloop
  endfacet
  facet normal 0.897198 0 -0.441629
    outer loop
      vertex 2.23146 0.883498 0
      vertex 1.6736 0.662623 -1.13333
      vertex 1.6736 0.662624 -1.13333
    endloop
  endfacet
  facet normal 0.84091 0.273183 -0.467163
    outer loop
      vertex 1.6736 0.662623 -1.13333
      vertex 2.23146 0.883498 0
      vertex 1.7124 0.543189 -1.13333
    endloop
  endfacet
  facet normal 0.868512 0.165661 -0.467166
    outer loop
      vertex 2.38107 0.300799 0
      vertex 1.76698 0.324285 -1.13333
      vertex 2.3246 0.596855 0
    endloop
  endfacet
  facet normal 0.868503 0.165718 -0.467161
    outer loop
      vertex 1.76698 0.324285 -1.13333
      vertex 2.38107 0.300799 0
      vertex 1.78581 0.2256 -1.13333
    endloop
  endfacet
  facet normal 0 0 -1
    outer loop
      vertex 1.78581 -0.225599 -12
      vertex 1.78581 0.225599 -12
      vertex 1.8 0 -12
    endloop
  endfacet
  facet normal 0 0 -1
    outer loop
      vertex 1.74345 -0.447641 -12
      vertex 1.78581 0.225599 -12
      vertex 1.78581 -0.225599 -12
    endloop
  endfacet
  facet normal 0 0 -1
    outer loop
      vertex 1.74345 -0.447641 -12
      vertex 1.74345 0.447641 -12
      vertex 1.78581 0.225599 -12
    endloop
  endfacet
  facet normal 0 0 -1
    outer loop
      vertex 1.6736 -0.662623 -12
      vertex 1.74345 0.447641 -12
      vertex 1.74345 -0.447641 -12
    endloop
  endfacet
  facet normal 0 0 -1
    outer loop
      vertex 1.6736 -0.662623 -12
      vertex 1.6736 0.662623 -12
      vertex 1.74345 0.447641 -12
    endloop
  endfacet
  facet normal 0 0 -1
    outer loop
      vertex 1.57735 -0.867156 -12
      vertex 1.6736 0.662623 -12
      vertex 1.6736 -0.662623 -12
    endloop
  endfacet
  facet normal 0 0 -1
    outer loop
      vertex 1.57735 -0.867156 -12
      vertex 1.57735 0.867156 -12
      vertex 1.6736 0.662623 -12
    endloop
  endfacet
  facet normal 0 0 -1
    outer loop
      vertex 1.45623 -1.05801 -12
      vertex 1.57735 0.867156 -12
      vertex 1.57735 -0.867156 -12
    endloop
  endfacet
  facet normal 0 0 -1
    outer loop
      vertex 1.45623 -1.05801 -12
      vertex 1.45623 1.05801 -12
      vertex 1.57735 0.867156 -12
    endloop
  endfacet
  facet normal 0 0 -1
    outer loop
      vertex 1.31214 -1.23218 -12
      vertex 1.45623 1.05801 -12
      vertex 1.45623 -1.05801 -12
    endloop
  endfacet
  facet normal 0 0 -1
    outer loop
      vertex 1.31214 -1.23218 -12
      vertex 1.31214 1.23218 -12
      vertex 1.45623 1.05801 -12
    endloop
  endfacet
  facet normal 0 0 -1
    outer loop
      vertex 1.14736 -1.38692 -12
      vertex 1.31214 1.23218 -12
      vertex 1.31214 -1.23218 -12
    endloop
  endfacet
  facet normal 0 0 -1
    outer loop
      vertex 1.14736 -1.38692 -12
      vertex 1.14736 1.38692 -12
      vertex 1.31214 1.23218 -12
    endloop
  endfacet
  facet normal 0 0 -1
    outer loop
      vertex 0.964488 -1.51979 -12
      vertex 1.14736 1.38692 -12
      vertex 1.14736 -1.38692 -12
    endloop
  endfacet
  facet normal 0 0 -1
    outer loop
      vertex 0.964488 -1.51979 -12
      vertex 0.964488 1.51979 -12
      vertex 1.14736 1.38692 -12
    endloop
  endfacet
  facet normal 0 0 -1
    outer loop
      vertex 0.766402 -1.62869 -12
      vertex 0.964488 1.51979 -12
      vertex 0.964488 -1.51979 -12
    endloop
  endfacet
  facet normal 0 0 -1
    outer loop
      vertex 0.766402 -1.62869 -12
      vertex 0.766402 1.62869 -12
      vertex 0.964488 1.51979 -12
    endloop
  endfacet
  facet normal 0 0 -1
    outer loop
      vertex 0.556231 -1.7119 -12
      vertex 0.766402 1.62869 -12
      vertex 0.766402 -1.62869 -12
    endloop
  endfacet
  facet normal 0 0 -1
    outer loop
      vertex 0.556231 -1.7119 -12
      vertex 0.556231 1.7119 -12
      vertex 0.766402 1.62869 -12
    endloop
  endfacet
  facet normal 0 0 -1
    outer loop
      vertex 0.337286 -1.76812 -12
      vertex 0.556231 1.7119 -12
      vertex 0.556231 -1.7119 -12
    endloop
  endfacet
  facet normal 0 0 -1
    outer loop
      vertex 0.337286 -1.76812 -12
      vertex 0.337286 1.76812 -12
      vertex 0.556231 1.7119 -12
    endloop
  endfacet
  facet normal 0 0 -1
    outer loop
      vertex 0.113023 -1.79645 -12
      vertex 0.337286 1.76812 -12
      vertex 0.337286 -1.76812 -12
    endloop
  endfacet
  facet normal 0 0 -1
    outer loop
      vertex 0.113023 -1.79645 -12
      vertex 0.113023 1.79645 -12
      vertex 0.337286 1.76812 -12
    endloop
  endfacet
  facet normal 0 0 -1
    outer loop
      vertex -0.113023 -1.79645 -12
      vertex 0.113023 1.79645 -12
      vertex 0.113023 -1.79645 -12
    endloop
  endfacet
  facet normal 0 0 -1
    outer loop
      vertex -0.113023 -1.79645 -12
      vertex -0.113023 1.79645 -12
      vertex 0.113023 1.79645 -12
    endloop
  endfacet
  facet normal 0 0 -1
    outer loop
      vertex -0.337286 -1.76812 -12
      vertex -0.113023 1.79645 -12
      vertex -0.113023 -1.79645 -12
    endloop
  endfacet
  facet normal 0 0 -1
    outer loop
      vertex -0.337286 -1.76812 -12
      vertex -0.337286 1.76812 -12
      vertex -0.113023 1.79645 -12
    endloop
  endfacet
  facet normal 0 0 -1
    outer loop
      vertex -0.556231 -1.7119 -12
      vertex -0.337286 1.76812 -12
      vertex -0.337286 -1.76812 -12
    endloop
  endfacet
  facet normal 0 0 -1
    outer loop
      vertex -0.556231 -1.7119 -12
      vertex -0.556231 1.7119 -12
      vertex -0.337286 1.76812 -12
    endloop
  endfacet
  facet normal 0 0 -1
    outer loop
      vertex -0.766402 -1.62869 -12
      vertex -0.556231 1.7119 -12
      vertex -0.556231 -1.7119 -12
    endloop
  endfacet
  facet normal 0 0 -1
    outer loop
      vertex -0.766402 -1.62869 -12
      vertex -0.766402 1.62869 -12
      vertex -0.556231 1.7119 -12
    endloop
  endfacet
  facet normal 0 0 -1
    outer loop
      vertex -0.964488 -1.51979 -12
      vertex -0.766402 1.62869 -12
      vertex -0.766402 -1.62869 -12
    endloop
  endfacet
  facet normal 0 0 -1
    outer loop
      vertex -0.964488 -1.51979 -12
      vertex -0.964488 1.51979 -12
      vertex -0.766402 1.62869 -12
    endloop
  endfacet
  facet normal 0 0 -1
    outer loop
      vertex -1.14736 -1.38692 -12
      vertex -0.964488 1.51979 -12
      vertex -0.964488 -1.51979 -12
    endloop
  endfacet
  facet normal 0 0 -1
    outer loop
      vertex -1.14736 -1.38692 -12
      vertex -1.14736 1.38692 -12
      vertex -0.964488 1.51979 -12
    endloop
  endfacet
  facet normal 0 0 -1
    outer loop
      vertex -1.31214 -1.23218 -12
      vertex -1.14736 1.38692 -12
      vertex -1.14736 -1.38692 -12
    endloop
  endfacet
  facet normal 0 0 -1
    outer loop
      vertex -1.31214 -1.23218 -12
      vertex -1.31214 1.23218 -12
      vertex -1.14736 1.38692 -12
    endloop
  endfacet
  facet normal 0 0 -1
    outer loop
      vertex -1.45623 -1.05801 -12
      vertex -1.31214 1.23218 -12
      vertex -1.31214 -1.23218 -12
    endloop
  endfacet
  facet normal 0 0 -1
    outer loop
      vertex -1.45623 -1.05801 -12
      vertex -1.45623 1.05801 -12
      vertex -1.31214 1.23218 -12
    endloop
  endfacet
  facet normal 0 0 -1
    outer loop
      vertex -1.57735 -0.867156 -12
      vertex -1.45623 1.05801 -12
      vertex -1.45623 -1.05801 -12
    endloop
  endfacet
  facet normal 0 0 -1
    outer loop
      vertex -1.57735 -0.867156 -12
      vertex -1.57735 0.867156 -12
      vertex -1.45623 1.05801 -12
    endloop
  endfacet
  facet normal 0 0 -1
    outer loop
      vertex -1.6736 -0.662623 -12
      vertex -1.57735 0.867156 -12
      vertex -1.57735 -0.867156 -12
    endloop
  endfacet
  facet normal 0 0 -1
    outer loop
      vertex -1.6736 -0.662623 -12
      vertex -1.6736 0.662623 -12
      vertex -1.57735 0.867156 -12
    endloop
  endfacet
  facet normal 0 0 -1
    outer loop
      vertex -1.74345 -0.447641 -12
      vertex -1.6736 0.662623 -12
      vertex -1.6736 -0.662623 -12
    endloop
  endfacet
  facet normal 0 0 -1
    outer loop
      vertex -1.74345 -0.447641 -12
      vertex -1.74345 0.447641 -12
      vertex -1.6736 0.662623 -12
    endloop
  endfacet
  facet normal 0 0 -1
    outer loop
      vertex -1.78581 -0.225599 -12
      vertex -1.74345 0.447641 -12
      vertex -1.74345 -0.447641 -12
    endloop
  endfacet
  facet normal 0 0 -1
    outer loop
      vertex -1.78581 -0.225599 -12
      vertex -1.78581 0.225599 -12
      vertex -1.74345 0.447641 -12
    endloop
  endfacet
  facet normal 0 -0 -1
    outer loop
      vertex -1.78581 0.225599 -12
      vertex -1.78581 -0.225599 -12
      vertex -1.8 0 -12
    endloop
  endfacet
  facet normal 0.844319 0.535841 0
    outer loop
      vertex 1.52352 0.951982 -1.13333
      vertex 1.45623 1.05801 -12
      vertex 1.45623 1.05801 -1.13333
    endloop
  endfacet
  facet normal 0.844338 0.535811 -4.16134e-07
    outer loop
      vertex 1.57735 0.867156 -1.13333
      vertex 1.45623 1.05801 -12
      vertex 1.52352 0.951982 -1.13333
    endloop
  endfacet
  facet normal 0.844327 0.535828 0
    outer loop
      vertex 1.57735 0.867156 -1.13333
      vertex 1.57735 0.867156 -12
      vertex 1.45623 1.05801 -12
    endloop
  endfacet
  facet normal 0.368093 0.929789 -0
    outer loop
      vertex 0.766402 1.62869 -12
      vertex 0.672992 1.66567 -1.13333
      vertex 0.766402 1.62869 -1.13333
    endloop
  endfacet
  facet normal 0.368132 0.929774 3.829e-07
    outer loop
      vertex 0.672992 1.66567 -1.13333
      vertex 0.766402 1.62869 -12
      vertex 0.556231 1.7119 -1.13333
    endloop
  endfacet
  facet normal 0.368115 0.92978 0
    outer loop
      vertex 0.556231 1.7119 -1.13333
      vertex 0.766402 1.62869 -12
      vertex 0.556231 1.7119 -12
    endloop
  endfacet
  facet normal -0.368132 0.929774 0
    outer loop
      vertex -0.556231 1.7119 -12
      vertex -0.672992 1.66567 -1.13333
      vertex -0.556231 1.7119 -1.13333
    endloop
  endfacet
  facet normal -0.368115 0.92978 2.12723e-07
    outer loop
      vertex -0.766402 1.62869 -12
      vertex -0.672992 1.66567 -1.13333
      vertex -0.556231 1.7119 -12
    endloop
  endfacet
  facet normal -0.368093 0.929789 0
    outer loop
      vertex -0.672992 1.66567 -1.13333
      vertex -0.766402 1.62869 -12
      vertex -0.766402 1.62869 -1.13333
    endloop
  endfacet
  facet normal -0.904811 0.425814 0
    outer loop
      vertex -1.57735 0.867156 -12
      vertex -1.62013 0.776253 -1.13333
      vertex -1.57735 0.867156 -1.13333
    endloop
  endfacet
  facet normal -0.904826 0.425781 -3.40901e-07
    outer loop
      vertex -1.57735 0.867156 -12
      vertex -1.6736 0.662624 -1.13333
      vertex -1.62013 0.776253 -1.13333
    endloop
  endfacet
  facet normal -0.90482 0.425794 -3.91835e-08
    outer loop
      vertex -1.6736 0.662623 -12
      vertex -1.6736 0.662624 -1.13333
      vertex -1.57735 0.867156 -12
    endloop
  endfacet
  facet normal -1 -0 0
    outer loop
      vertex -1.6736 0.662624 -1.13333
      vertex -1.6736 0.662623 -12
      vertex -1.6736 0.662623 -1.13333
    endloop
  endfacet
  facet normal 1 -0 0
    outer loop
      vertex 1.78581 -0.2256 -1.13333
      vertex 1.78581 -0.225599 -12
      vertex 1.78581 -0.225599 -1.13333
    endloop
  endfacet
  facet normal 0.982278 -0.187428 -1.72479e-08
    outer loop
      vertex 1.76698 -0.324285 -1.13333
      vertex 1.78581 -0.225599 -12
      vertex 1.78581 -0.2256 -1.13333
    endloop
  endfacet
  facet normal 0.982289 -0.18737 5.21677e-07
    outer loop
      vertex 1.74345 -0.447641 -1.13333
      vertex 1.78581 -0.225599 -12
      vertex 1.76698 -0.324285 -1.13333
    endloop
  endfacet
  facet normal 0.982285 -0.187395 0
    outer loop
      vertex 1.78581 -0.225599 -12
      vertex 1.74345 -0.447641 -1.13333
      vertex 1.74345 -0.447641 -12
    endloop
  endfacet
  facet normal 0.684582 0.728936 0
    outer loop
      vertex 1.31214 1.23218 -1.13333
      vertex 1.31214 1.23218 -12
      vertex 1.2206 1.31815 -1.13333
    endloop
  endfacet
  facet normal 0.68451 0.729003 -1.13306e-06
    outer loop
      vertex 1.31214 1.23218 -12
      vertex 1.14736 1.38692 -1.13333
      vertex 1.2206 1.31815 -1.13333
    endloop
  endfacet
  facet normal 0.68455 0.728966 0
    outer loop
      vertex 1.14736 1.38692 -1.13333
      vertex 1.31214 1.23218 -12
      vertex 1.14736 1.38692 -12
    endloop
  endfacet
  facet normal 0.125317 0.992117 -0
    outer loop
      vertex 0.337286 1.76812 -12
      vertex 0.237613 1.78071 -1.13333
      vertex 0.337286 1.76812 -1.13333
    endloop
  endfacet
  facet normal 0.125338 0.992114 1.94132e-07
    outer loop
      vertex 0.337286 1.76812 -12
      vertex 0.113023 1.79645 -1.13333
      vertex 0.237613 1.78071 -1.13333
    endloop
  endfacet
  facet normal 0.125329 0.992115 0
    outer loop
      vertex 0.113023 1.79645 -1.13333
      vertex 0.337286 1.76812 -12
      vertex 0.113023 1.79645 -12
    endloop
  endfacet
  facet normal 0.587876 0.808951 0
    outer loop
      vertex 1.14736 1.38692 -1.13333
      vertex 1.14736 1.38692 -12
      vertex 1.06609 1.44598 -1.13333
    endloop
  endfacet
  facet normal 0.587743 0.809048 -1.52083e-06
    outer loop
      vertex 1.14736 1.38692 -12
      vertex 0.964488 1.51979 -1.13333
      vertex 1.06609 1.44598 -1.13333
    endloop
  endfacet
  facet normal 0.587802 0.809005 0
    outer loop
      vertex 0.964488 1.51979 -1.13333
      vertex 1.14736 1.38692 -12
      vertex 0.964488 1.51979 -12
    endloop
  endfacet
  facet normal -0.982289 0.18737 0
    outer loop
      vertex -1.74345 0.447641 -12
      vertex -1.76698 0.324285 -1.13333
      vertex -1.74345 0.447641 -1.13333
    endloop
  endfacet
  facet normal -0.982285 0.187395 2.89818e-07
    outer loop
      vertex -1.78581 0.225599 -12
      vertex -1.76698 0.324285 -1.13333
      vertex -1.74345 0.447641 -12
    endloop
  endfacet
  facet normal -0.982278 0.187428 -1.72479e-08
    outer loop
      vertex -1.76698 0.324285 -1.13333
      vertex -1.78581 0.225599 -12
      vertex -1.78581 0.2256 -1.13333
    endloop
  endfacet
  facet normal -1 -0 0
    outer loop
      vertex -1.78581 0.2256 -1.13333
      vertex -1.78581 0.225599 -12
      vertex -1.78581 0.225599 -1.13333
    endloop
  endfacet
  facet normal -0.770501 0.637439 0
    outer loop
      vertex -1.31214 1.23218 -12
      vertex -1.39219 1.13542 -1.13333
      vertex -1.31214 1.23218 -1.13333
    endloop
  endfacet
  facet normal -0.770509 0.637429 -1.46648e-07
    outer loop
      vertex -1.31214 1.23218 -12
      vertex -1.45623 1.05801 -1.13333
      vertex -1.39219 1.13542 -1.13333
    endloop
  endfacet
  facet normal -0.770504 0.637435 0
    outer loop
      vertex -1.45623 1.05801 -12
      vertex -1.45623 1.05801 -1.13333
      vertex -1.31214 1.23218 -12
    endloop
  endfacet
  facet normal -0.248739 0.96857 0
    outer loop
      vertex -0.434595 1.74313 -1.13333
      vertex -0.337286 1.76812 -1.13333
      vertex -0.337286 1.76812 -12
    endloop
  endfacet
  facet normal -0.248686 0.968584 5.11916e-07
    outer loop
      vertex -0.337286 1.76812 -12
      vertex -0.55623 1.7119 -1.13333
      vertex -0.434595 1.74313 -1.13333
    endloop
  endfacet
  facet normal -0.248708 0.968578 2.28873e-08
    outer loop
      vertex -0.556231 1.7119 -12
      vertex -0.55623 1.7119 -1.13333
      vertex -0.337286 1.76812 -12
    endloop
  endfacet
  facet normal 0 1 0
    outer loop
      vertex -0.55623 1.7119 -1.13333
      vertex -0.556231 1.7119 -12
      vertex -0.556231 1.7119 -1.13333
    endloop
  endfacet
  facet normal -0.68451 0.729003 0
    outer loop
      vertex -1.2206 1.31815 -1.13333
      vertex -1.14736 1.38692 -1.13333
      vertex -1.14736 1.38692 -12
    endloop
  endfacet
  facet normal -0.684582 0.728936 -9.06466e-07
    outer loop
      vertex -1.14736 1.38692 -12
      vertex -1.31214 1.23218 -1.13333
      vertex -1.2206 1.31815 -1.13333
    endloop
  endfacet
  facet normal -0.68455 0.728966 0
    outer loop
      vertex -1.31214 1.23218 -12
      vertex -1.31214 1.23218 -1.13333
      vertex -1.14736 1.38692 -12
    endloop
  endfacet
  facet normal 0.998029 0.0627486 0
    outer loop
      vertex 1.79369 0.100266 -1.13333
      vertex 1.78581 0.225599 -12
      vertex 1.78581 0.225599 -1.13333
    endloop
  endfacet
  facet normal 0.998026 0.0628083 -0
    outer loop
      vertex 1.8 0 -12
      vertex 1.79369 0.100266 -1.13333
      vertex 1.8 0 -1.13333
    endloop
  endfacet
  facet normal 0.998028 0.0627752 3.07427e-07
    outer loop
      vertex 1.79369 0.100266 -1.13333
      vertex 1.8 0 -12
      vertex 1.78581 0.225599 -12
    endloop
  endfacet
  facet normal 0.481757 -0.876305 1.77334e-08
    outer loop
      vertex 0.766402 -1.62869 -12
      vertex 0.964488 -1.51979 -1.13333
      vertex 0.85444 -1.58029 -1.13333
    endloop
  endfacet
  facet normal 0.481759 -0.876304 0
    outer loop
      vertex 0.766402 -1.62869 -12
      vertex 0.85444 -1.58029 -1.13333
      vertex 0.766402 -1.62869 -1.13333
    endloop
  endfacet
  facet normal 0.481758 -0.876304 0
    outer loop
      vertex 0.964488 -1.51979 -12
      vertex 0.964488 -1.51979 -1.13333
      vertex 0.766402 -1.62869 -12
    endloop
  endfacet
  facet normal 0.770501 0.637439 0
    outer loop
      vertex 1.39219 1.13542 -1.13333
      vertex 1.31214 1.23218 -12
      vertex 1.31214 1.23218 -1.13333
    endloop
  endfacet
  facet normal 0.770509 0.637429 -1.46648e-07
    outer loop
      vertex 1.45623 1.05801 -1.13333
      vertex 1.31214 1.23218 -12
      vertex 1.39219 1.13542 -1.13333
    endloop
  endfacet
  facet normal 0.770504 0.637435 0
    outer loop
      vertex 1.45623 1.05801 -1.13333
      vertex 1.45623 1.05801 -12
      vertex 1.31214 1.23218 -12
    endloop
  endfacet
  facet normal 0 1 0
    outer loop
      vertex 0.113022 1.79645 -1.13333
      vertex 0.113023 1.79645 -12
      vertex -0.113022 1.79645 -1.13333
    endloop
  endfacet
  facet normal 0 1 -0
    outer loop
      vertex 0.113023 1.79645 -12
      vertex 0.113022 1.79645 -1.13333
      vertex 0.113023 1.79645 -1.13333
    endloop
  endfacet
  facet normal 0 1 0
    outer loop
      vertex -0.113023 1.79645 -12
      vertex -0.113022 1.79645 -1.13333
      vertex 0.113023 1.79645 -12
    endloop
  endfacet
  facet normal 0 1 0
    outer loop
      vertex -0.113022 1.79645 -1.13333
      vertex -0.113023 1.79645 -12
      vertex -0.113023 1.79645 -1.13333
    endloop
  endfacet
  facet normal 0.248686 0.968584 2.28852e-08
    outer loop
      vertex 0.55623 1.7119 -1.13333
      vertex 0.556231 1.7119 -12
      vertex 0.434595 1.74313 -1.13333
    endloop
  endfacet
  facet normal 0 1 -0
    outer loop
      vertex 0.556231 1.7119 -12
      vertex 0.55623 1.7119 -1.13333
      vertex 0.556231 1.7119 -1.13333
    endloop
  endfacet
  facet normal 0.248708 0.968578 2.94567e-07
    outer loop
      vertex 0.337286 1.76812 -12
      vertex 0.434595 1.74313 -1.13333
      vertex 0.556231 1.7119 -12
    endloop
  endfacet
  facet normal 0.248739 0.96857 0
    outer loop
      vertex 0.434595 1.74313 -1.13333
      vertex 0.337286 1.76812 -12
      vertex 0.337286 1.76812 -1.13333
    endloop
  endfacet
  facet normal 0.481757 0.876305 0
    outer loop
      vertex 0.964488 1.51979 -1.13333
      vertex 0.964488 1.51979 -12
      vertex 0.85444 1.58029 -1.13333
    endloop
  endfacet
  facet normal 0.481758 0.876304 9.8519e-09
    outer loop
      vertex 0.766402 1.62869 -12
      vertex 0.85444 1.58029 -1.13333
      vertex 0.964488 1.51979 -12
    endloop
  endfacet
  facet normal 0.481759 0.876304 0
    outer loop
      vertex 0.85444 1.58029 -1.13333
      vertex 0.766402 1.62869 -12
      vertex 0.766402 1.62869 -1.13333
    endloop
  endfacet
  facet normal -0.998029 0.0627486 0
    outer loop
      vertex -1.78581 0.225599 -12
      vertex -1.79369 0.100266 -1.13333
      vertex -1.78581 0.225599 -1.13333
    endloop
  endfacet
  facet normal -0.998028 0.0627752 3.07427e-07
    outer loop
      vertex -1.8 0 -12
      vertex -1.79369 0.100266 -1.13333
      vertex -1.78581 0.225599 -12
    endloop
  endfacet
  facet normal -0.998026 0.0628083 0
    outer loop
      vertex -1.79369 0.100266 -1.13333
      vertex -1.8 0 -12
      vertex -1.8 0 -1.13333
    endloop
  endfacet
  facet normal -0.951072 0.30897 0
    outer loop
      vertex -1.6736 0.662623 -12
      vertex -1.7124 0.543189 -1.13333
      vertex -1.6736 0.662623 -1.13333
    endloop
  endfacet
  facet normal -0.951059 0.309009 4.73588e-07
    outer loop
      vertex -1.74345 0.447641 -12
      vertex -1.7124 0.543189 -1.13333
      vertex -1.6736 0.662623 -12
    endloop
  endfacet
  facet normal -0.951043 0.309058 0
    outer loop
      vertex -1.7124 0.543189 -1.13333
      vertex -1.74345 0.447641 -12
      vertex -1.74345 0.447641 -1.13333
    endloop
  endfacet
  facet normal -0.844319 0.535841 0
    outer loop
      vertex -1.45623 1.05801 -12
      vertex -1.52352 0.951982 -1.13333
      vertex -1.45623 1.05801 -1.13333
    endloop
  endfacet
  facet normal -0.844338 0.535811 -4.16134e-07
    outer loop
      vertex -1.45623 1.05801 -12
      vertex -1.57735 0.867156 -1.13333
      vertex -1.52352 0.951982 -1.13333
    endloop
  endfacet
  facet normal -0.844327 0.535828 0
    outer loop
      vertex -1.57735 0.867156 -12
      vertex -1.57735 0.867156 -1.13333
      vertex -1.45623 1.05801 -12
    endloop
  endfacet
  facet normal -0.125338 0.992114 0
    outer loop
      vertex -0.113023 1.79645 -12
      vertex -0.237613 1.78071 -1.13333
      vertex -0.113023 1.79645 -1.13333
    endloop
  endfacet
  facet normal -0.125329 0.992115 1.07851e-07
    outer loop
      vertex -0.337286 1.76812 -12
      vertex -0.237613 1.78071 -1.13333
      vertex -0.113023 1.79645 -12
    endloop
  endfacet
  facet normal -0.125317 0.992117 0
    outer loop
      vertex -0.237613 1.78071 -1.13333
      vertex -0.337286 1.76812 -12
      vertex -0.337286 1.76812 -1.13333
    endloop
  endfacet
  facet normal -0.587743 0.809048 0
    outer loop
      vertex -0.964488 1.51979 -1.13333
      vertex -0.964488 1.51979 -12
      vertex -1.06609 1.44598 -1.13333
    endloop
  endfacet
  facet normal -0.587876 0.808951 -1.90109e-06
    outer loop
      vertex -0.964488 1.51979 -12
      vertex -1.14736 1.38692 -1.13333
      vertex -1.06609 1.44598 -1.13333
    endloop
  endfacet
  facet normal -0.587802 0.809005 0
    outer loop
      vertex -1.14736 1.38692 -1.13333
      vertex -0.964488 1.51979 -12
      vertex -1.14736 1.38692 -12
    endloop
  endfacet
  facet normal -0.481757 0.876305 1.77334e-08
    outer loop
      vertex -0.766402 1.62869 -12
      vertex -0.964488 1.51979 -1.13333
      vertex -0.85444 1.58029 -1.13333
    endloop
  endfacet
  facet normal -0.481759 0.876304 0
    outer loop
      vertex -0.766402 1.62869 -12
      vertex -0.85444 1.58029 -1.13333
      vertex -0.766402 1.62869 -1.13333
    endloop
  endfacet
  facet normal -0.481758 0.876304 0
    outer loop
      vertex -0.964488 1.51979 -12
      vertex -0.964488 1.51979 -1.13333
      vertex -0.766402 1.62869 -12
    endloop
  endfacet
  facet normal 0.998026 -0.0628083 0
    outer loop
      vertex 1.79369 -0.100266 -1.13333
      vertex 1.8 0 -12
      vertex 1.8 0 -1.13333
    endloop
  endfacet
  facet normal 0.998029 -0.0627486 5.53369e-07
    outer loop
      vertex 1.78581 -0.225599 -1.13333
      vertex 1.8 0 -12
      vertex 1.79369 -0.100266 -1.13333
    endloop
  endfacet
  facet normal 0.998028 -0.0627752 0
    outer loop
      vertex 1.8 0 -12
      vertex 1.78581 -0.225599 -1.13333
      vertex 1.78581 -0.225599 -12
    endloop
  endfacet
  facet normal -1 0 0
    outer loop
      vertex -1.6736 -0.662623 -12
      vertex -1.6736 -0.662624 -1.13333
      vertex -1.6736 -0.662623 -1.13333
    endloop
  endfacet
  facet normal -0.904826 -0.425781 -3.91823e-08
    outer loop
      vertex -1.6736 -0.662623 -12
      vertex -1.62013 -0.776253 -1.13333
      vertex -1.6736 -0.662624 -1.13333
    endloop
  endfacet
  facet normal -0.90482 -0.425794 -2.06803e-07
    outer loop
      vertex -1.57735 -0.867156 -12
      vertex -1.62013 -0.776253 -1.13333
      vertex -1.6736 -0.662623 -12
    endloop
  endfacet
  facet normal -0.904811 -0.425814 0
    outer loop
      vertex -1.62013 -0.776253 -1.13333
      vertex -1.57735 -0.867156 -12
      vertex -1.57735 -0.867156 -1.13333
    endloop
  endfacet
  facet normal 0.125338 -0.992114 0
    outer loop
      vertex 0.113023 -1.79645 -12
      vertex 0.237613 -1.78071 -1.13333
      vertex 0.113023 -1.79645 -1.13333
    endloop
  endfacet
  facet normal 0.125329 -0.992115 1.07851e-07
    outer loop
      vertex 0.337286 -1.76812 -12
      vertex 0.237613 -1.78071 -1.13333
      vertex 0.113023 -1.79645 -12
    endloop
  endfacet
  facet normal 0.125317 -0.992117 0
    outer loop
      vertex 0.237613 -1.78071 -1.13333
      vertex 0.337286 -1.76812 -12
      vertex 0.337286 -1.76812 -1.13333
    endloop
  endfacet
  facet normal 0.368132 -0.929774 0
    outer loop
      vertex 0.556231 -1.7119 -12
      vertex 0.672992 -1.66567 -1.13333
      vertex 0.556231 -1.7119 -1.13333
    endloop
  endfacet
  facet normal 0.368115 -0.92978 2.12723e-07
    outer loop
      vertex 0.766402 -1.62869 -12
      vertex 0.672992 -1.66567 -1.13333
      vertex 0.556231 -1.7119 -12
    endloop
  endfacet
  facet normal 0.368093 -0.929789 0
    outer loop
      vertex 0.672992 -1.66567 -1.13333
      vertex 0.766402 -1.62869 -12
      vertex 0.766402 -1.62869 -1.13333
    endloop
  endfacet
  facet normal 0.904811 0.425814 0
    outer loop
      vertex 1.62013 0.776253 -1.13333
      vertex 1.57735 0.867156 -12
      vertex 1.57735 0.867156 -1.13333
    endloop
  endfacet
  facet normal 0.904826 0.425781 -3.40901e-07
    outer loop
      vertex 1.6736 0.662624 -1.13333
      vertex 1.57735 0.867156 -12
      vertex 1.62013 0.776253 -1.13333
    endloop
  endfacet
  facet normal 1 0 0
    outer loop
      vertex 1.6736 0.662623 -12
      vertex 1.6736 0.662624 -1.13333
      vertex 1.6736 0.662623 -1.13333
    endloop
  endfacet
  facet normal 0.90482 0.425794 -3.91835e-08
    outer loop
      vertex 1.6736 0.662624 -1.13333
      vertex 1.6736 0.662623 -12
      vertex 1.57735 0.867156 -12
    endloop
  endfacet
  facet normal 0.951072 0.30897 0
    outer loop
      vertex 1.7124 0.543189 -1.13333
      vertex 1.6736 0.662623 -12
      vertex 1.6736 0.662623 -1.13333
    endloop
  endfacet
  facet normal 0.951043 0.309058 -0
    outer loop
      vertex 1.74345 0.447641 -12
      vertex 1.7124 0.543189 -1.13333
      vertex 1.74345 0.447641 -1.13333
    endloop
  endfacet
  facet normal 0.951059 0.309009 4.73588e-07
    outer loop
      vertex 1.7124 0.543189 -1.13333
      vertex 1.74345 0.447641 -12
      vertex 1.6736 0.662623 -12
    endloop
  endfacet
  facet normal 0.982289 0.18737 0
    outer loop
      vertex 1.76698 0.324285 -1.13333
      vertex 1.74345 0.447641 -12
      vertex 1.74345 0.447641 -1.13333
    endloop
  endfacet
  facet normal 0.982278 0.187428 -1.72479e-08
    outer loop
      vertex 1.78581 0.225599 -12
      vertex 1.76698 0.324285 -1.13333
      vertex 1.78581 0.2256 -1.13333
    endloop
  endfacet
  facet normal 1 0 0
    outer loop
      vertex 1.78581 0.225599 -12
      vertex 1.78581 0.2256 -1.13333
      vertex 1.78581 0.225599 -1.13333
    endloop
  endfacet
  facet normal 0.982285 0.187395 2.89818e-07
    outer loop
      vertex 1.76698 0.324285 -1.13333
      vertex 1.78581 0.225599 -12
      vertex 1.74345 0.447641 -12
    endloop
  endfacet
  facet normal 1 -0 0
    outer loop
      vertex 1.6736 -0.662624 -1.13333
      vertex 1.6736 -0.662623 -12
      vertex 1.6736 -0.662623 -1.13333
    endloop
  endfacet
  facet normal 0.904826 -0.425781 -3.91823e-08
    outer loop
      vertex 1.62013 -0.776253 -1.13333
      vertex 1.6736 -0.662623 -12
      vertex 1.6736 -0.662624 -1.13333
    endloop
  endfacet
  facet normal 0.904811 -0.425814 0
    outer loop
      vertex 1.57735 -0.867156 -12
      vertex 1.62013 -0.776253 -1.13333
      vertex 1.57735 -0.867156 -1.13333
    endloop
  endfacet
  facet normal 0.90482 -0.425794 -2.06803e-07
    outer loop
      vertex 1.62013 -0.776253 -1.13333
      vertex 1.57735 -0.867156 -12
      vertex 1.6736 -0.662623 -12
    endloop
  endfacet
  facet normal 0.951043 -0.309058 0
    outer loop
      vertex 1.7124 -0.543189 -1.13333
      vertex 1.74345 -0.447641 -12
      vertex 1.74345 -0.447641 -1.13333
    endloop
  endfacet
  facet normal 0.951072 -0.30897 8.52473e-07
    outer loop
      vertex 1.6736 -0.662623 -1.13333
      vertex 1.74345 -0.447641 -12
      vertex 1.7124 -0.543189 -1.13333
    endloop
  endfacet
  facet normal 0.951059 -0.309009 0
    outer loop
      vertex 1.74345 -0.447641 -12
      vertex 1.6736 -0.662623 -1.13333
      vertex 1.6736 -0.662623 -12
    endloop
  endfacet
  facet normal 0.68451 -0.729003 0
    outer loop
      vertex 1.2206 -1.31815 -1.13333
      vertex 1.14736 -1.38692 -1.13333
      vertex 1.14736 -1.38692 -12
    endloop
  endfacet
  facet normal 0.684582 -0.728936 -9.06466e-07
    outer loop
      vertex 1.14736 -1.38692 -12
      vertex 1.31214 -1.23218 -1.13333
      vertex 1.2206 -1.31815 -1.13333
    endloop
  endfacet
  facet normal 0.68455 -0.728966 0
    outer loop
      vertex 1.31214 -1.23218 -12
      vertex 1.31214 -1.23218 -1.13333
      vertex 1.14736 -1.38692 -12
    endloop
  endfacet
  facet normal 0.770509 -0.637429 0
    outer loop
      vertex 1.39219 -1.13542 -1.13333
      vertex 1.45623 -1.05801 -12
      vertex 1.45623 -1.05801 -1.13333
    endloop
  endfacet
  facet normal 0.770501 -0.637439 -1.1732e-07
    outer loop
      vertex 1.31214 -1.23218 -1.13333
      vertex 1.45623 -1.05801 -12
      vertex 1.39219 -1.13542 -1.13333
    endloop
  endfacet
  facet normal 0.770504 -0.637435 0
    outer loop
      vertex 1.45623 -1.05801 -12
      vertex 1.31214 -1.23218 -1.13333
      vertex 1.31214 -1.23218 -12
    endloop
  endfacet
  facet normal 0.844338 -0.535811 0
    outer loop
      vertex 1.52352 -0.951982 -1.13333
      vertex 1.57735 -0.867156 -12
      vertex 1.57735 -0.867156 -1.13333
    endloop
  endfacet
  facet normal 0.844319 -0.535841 -3.32914e-07
    outer loop
      vertex 1.45623 -1.05801 -1.13333
      vertex 1.57735 -0.867156 -12
      vertex 1.52352 -0.951982 -1.13333
    endloop
  endfacet
  facet normal 0.844327 -0.535828 0
    outer loop
      vertex 1.57735 -0.867156 -12
      vertex 1.45623 -1.05801 -1.13333
      vertex 1.45623 -1.05801 -12
    endloop
  endfacet
  facet normal -0.248686 -0.968584 2.28852e-08
    outer loop
      vertex -0.55623 -1.7119 -1.13333
      vertex -0.556231 -1.7119 -12
      vertex -0.434595 -1.74313 -1.13333
    endloop
  endfacet
  facet normal 0 -1 0
    outer loop
      vertex -0.556231 -1.7119 -12
      vertex -0.55623 -1.7119 -1.13333
      vertex -0.556231 -1.7119 -1.13333
    endloop
  endfacet
  facet normal -0.248708 -0.968578 2.94567e-07
    outer loop
      vertex -0.337286 -1.76812 -12
      vertex -0.434595 -1.74313 -1.13333
      vertex -0.556231 -1.7119 -12
    endloop
  endfacet
  facet normal -0.248739 -0.96857 0
    outer loop
      vertex -0.434595 -1.74313 -1.13333
      vertex -0.337286 -1.76812 -12
      vertex -0.337286 -1.76812 -1.13333
    endloop
  endfacet
  facet normal -0.998026 -0.0628083 0
    outer loop
      vertex -1.8 0 -12
      vertex -1.79369 -0.100266 -1.13333
      vertex -1.8 0 -1.13333
    endloop
  endfacet
  facet normal -0.998028 -0.0627752 3.07427e-07
    outer loop
      vertex -1.78581 -0.225599 -12
      vertex -1.79369 -0.100266 -1.13333
      vertex -1.8 0 -12
    endloop
  endfacet
  facet normal -0.998029 -0.0627486 0
    outer loop
      vertex -1.79369 -0.100266 -1.13333
      vertex -1.78581 -0.225599 -12
      vertex -1.78581 -0.225599 -1.13333
    endloop
  endfacet
  facet normal -0.844338 -0.535811 0
    outer loop
      vertex -1.57735 -0.867156 -12
      vertex -1.52352 -0.951982 -1.13333
      vertex -1.57735 -0.867156 -1.13333
    endloop
  endfacet
  facet normal -0.844327 -0.535828 -1.84951e-07
    outer loop
      vertex -1.45623 -1.05801 -12
      vertex -1.52352 -0.951982 -1.13333
      vertex -1.57735 -0.867156 -12
    endloop
  endfacet
  facet normal -0.844319 -0.535841 0
    outer loop
      vertex -1.52352 -0.951982 -1.13333
      vertex -1.45623 -1.05801 -12
      vertex -1.45623 -1.05801 -1.13333
    endloop
  endfacet
  facet normal -0.951043 -0.309058 0
    outer loop
      vertex -1.74345 -0.447641 -12
      vertex -1.7124 -0.543189 -1.13333
      vertex -1.74345 -0.447641 -1.13333
    endloop
  endfacet
  facet normal -0.951059 -0.309009 4.73588e-07
    outer loop
      vertex -1.6736 -0.662623 -12
      vertex -1.7124 -0.543189 -1.13333
      vertex -1.74345 -0.447641 -12
    endloop
  endfacet
  facet normal -0.951072 -0.30897 0
    outer loop
      vertex -1.7124 -0.543189 -1.13333
      vertex -1.6736 -0.662623 -12
      vertex -1.6736 -0.662623 -1.13333
    endloop
  endfacet
  facet normal 0.248739 -0.96857 0
    outer loop
      vertex 0.434595 -1.74313 -1.13333
      vertex 0.337286 -1.76812 -1.13333
      vertex 0.337286 -1.76812 -12
    endloop
  endfacet
  facet normal 0.248686 -0.968584 5.11916e-07
    outer loop
      vertex 0.337286 -1.76812 -12
      vertex 0.55623 -1.7119 -1.13333
      vertex 0.434595 -1.74313 -1.13333
    endloop
  endfacet
  facet normal 0.248708 -0.968578 2.28873e-08
    outer loop
      vertex 0.556231 -1.7119 -12
      vertex 0.55623 -1.7119 -1.13333
      vertex 0.337286 -1.76812 -12
    endloop
  endfacet
  facet normal 0 -1 0
    outer loop
      vertex 0.55623 -1.7119 -1.13333
      vertex 0.556231 -1.7119 -12
      vertex 0.556231 -1.7119 -1.13333
    endloop
  endfacet
  facet normal 0.587743 -0.809048 0
    outer loop
      vertex 0.964488 -1.51979 -1.13333
      vertex 0.964488 -1.51979 -12
      vertex 1.06609 -1.44598 -1.13333
    endloop
  endfacet
  facet normal 0.587876 -0.808951 -1.90109e-06
    outer loop
      vertex 0.964488 -1.51979 -12
      vertex 1.14736 -1.38692 -1.13333
      vertex 1.06609 -1.44598 -1.13333
    endloop
  endfacet
  facet normal 0.587802 -0.809005 0
    outer loop
      vertex 1.14736 -1.38692 -1.13333
      vertex 0.964488 -1.51979 -12
      vertex 1.14736 -1.38692 -12
    endloop
  endfacet
  facet normal -0.587876 -0.808951 -0
    outer loop
      vertex -1.14736 -1.38692 -1.13333
      vertex -1.14736 -1.38692 -12
      vertex -1.06609 -1.44598 -1.13333
    endloop
  endfacet
  facet normal -0.587743 -0.809048 -1.52083e-06
    outer loop
      vertex -1.14736 -1.38692 -12
      vertex -0.964488 -1.51979 -1.13333
      vertex -1.06609 -1.44598 -1.13333
    endloop
  endfacet
  facet normal -0.587802 -0.809005 -0
    outer loop
      vertex -0.964488 -1.51979 -1.13333
      vertex -1.14736 -1.38692 -12
      vertex -0.964488 -1.51979 -12
    endloop
  endfacet
  facet normal -0.481757 -0.876305 -0
    outer loop
      vertex -0.964488 -1.51979 -1.13333
      vertex -0.964488 -1.51979 -12
      vertex -0.85444 -1.58029 -1.13333
    endloop
  endfacet
  facet normal -0.481758 -0.876304 9.8519e-09
    outer loop
      vertex -0.766402 -1.62869 -12
      vertex -0.85444 -1.58029 -1.13333
      vertex -0.964488 -1.51979 -12
    endloop
  endfacet
  facet normal -0.481759 -0.876304 0
    outer loop
      vertex -0.85444 -1.58029 -1.13333
      vertex -0.766402 -1.62869 -12
      vertex -0.766402 -1.62869 -1.13333
    endloop
  endfacet
  facet normal 0 -1 -0
    outer loop
      vertex -0.113022 -1.79645 -1.13333
      vertex -0.113023 -1.79645 -12
      vertex 0.113022 -1.79645 -1.13333
    endloop
  endfacet
  facet normal 0 -1 0
    outer loop
      vertex -0.113023 -1.79645 -12
      vertex -0.113022 -1.79645 -1.13333
      vertex -0.113023 -1.79645 -1.13333
    endloop
  endfacet
  facet normal 0 -1 0
    outer loop
      vertex 0.113023 -1.79645 -12
      vertex 0.113022 -1.79645 -1.13333
      vertex -0.113023 -1.79645 -12
    endloop
  endfacet
  facet normal 0 -1 0
    outer loop
      vertex 0.113022 -1.79645 -1.13333
      vertex 0.113023 -1.79645 -12
      vertex 0.113023 -1.79645 -1.13333
    endloop
  endfacet
  facet normal -0.684582 -0.728936 -0
    outer loop
      vertex -1.31214 -1.23218 -1.13333
      vertex -1.31214 -1.23218 -12
      vertex -1.2206 -1.31815 -1.13333
    endloop
  endfacet
  facet normal -0.68451 -0.729003 -1.13306e-06
    outer loop
      vertex -1.31214 -1.23218 -12
      vertex -1.14736 -1.38692 -1.13333
      vertex -1.2206 -1.31815 -1.13333
    endloop
  endfacet
  facet normal -0.68455 -0.728966 -0
    outer loop
      vertex -1.14736 -1.38692 -1.13333
      vertex -1.31214 -1.23218 -12
      vertex -1.14736 -1.38692 -12
    endloop
  endfacet
  facet normal -1 0 0
    outer loop
      vertex -1.78581 -0.225599 -12
      vertex -1.78581 -0.2256 -1.13333
      vertex -1.78581 -0.225599 -1.13333
    endloop
  endfacet
  facet normal -0.982278 -0.187428 -1.72479e-08
    outer loop
      vertex -1.78581 -0.225599 -12
      vertex -1.76698 -0.324285 -1.13333
      vertex -1.78581 -0.2256 -1.13333
    endloop
  endfacet
  facet normal -0.982285 -0.187395 2.89818e-07
    outer loop
      vertex -1.74345 -0.447641 -12
      vertex -1.76698 -0.324285 -1.13333
      vertex -1.78581 -0.225599 -12
    endloop
  endfacet
  facet normal -0.982289 -0.18737 0
    outer loop
      vertex -1.76698 -0.324285 -1.13333
      vertex -1.74345 -0.447641 -12
      vertex -1.74345 -0.447641 -1.13333
    endloop
  endfacet
  facet normal -0.125317 -0.992117 0
    outer loop
      vertex -0.337286 -1.76812 -12
      vertex -0.237613 -1.78071 -1.13333
      vertex -0.337286 -1.76812 -1.13333
    endloop
  endfacet
  facet normal -0.125338 -0.992114 1.94132e-07
    outer loop
      vertex -0.337286 -1.76812 -12
      vertex -0.113023 -1.79645 -1.13333
      vertex -0.237613 -1.78071 -1.13333
    endloop
  endfacet
  facet normal -0.125329 -0.992115 -0
    outer loop
      vertex -0.113023 -1.79645 -1.13333
      vertex -0.337286 -1.76812 -12
      vertex -0.113023 -1.79645 -12
    endloop
  endfacet
  facet normal -0.770509 -0.637429 0
    outer loop
      vertex -1.45623 -1.05801 -12
      vertex -1.39219 -1.13542 -1.13333
      vertex -1.45623 -1.05801 -1.13333
    endloop
  endfacet
  facet normal -0.770504 -0.637435 -6.51773e-08
    outer loop
      vertex -1.31214 -1.23218 -12
      vertex -1.39219 -1.13542 -1.13333
      vertex -1.45623 -1.05801 -12
    endloop
  endfacet
  facet normal -0.770501 -0.637439 0
    outer loop
      vertex -1.39219 -1.13542 -1.13333
      vertex -1.31214 -1.23218 -12
      vertex -1.31214 -1.23218 -1.13333
    endloop
  endfacet
  facet normal -0.368093 -0.929789 0
    outer loop
      vertex -0.766402 -1.62869 -12
      vertex -0.672992 -1.66567 -1.13333
      vertex -0.766402 -1.62869 -1.13333
    endloop
  endfacet
  facet normal -0.368132 -0.929774 3.829e-07
    outer loop
      vertex -0.672992 -1.66567 -1.13333
      vertex -0.766402 -1.62869 -12
      vertex -0.556231 -1.7119 -1.13333
    endloop
  endfacet
  facet normal -0.368115 -0.92978 -0
    outer loop
      vertex -0.556231 -1.7119 -1.13333
      vertex -0.766402 -1.62869 -12
      vertex -0.556231 -1.7119 -12
    endloop
  endfacet
endsolid OpenSCAD_Model
