<?xml version="1.0" standalone="no"?>
<!DOCTYPE svg PUBLIC "-//W3C//DTD SVG 1.1//EN" "http://www.w3.org/Graphics/SVG/1.1/DTD/svg11.dtd">
<svg width="210mm" height="712mm" viewBox="-105 -1220 210 712" xmlns="http://www.w3.org/2000/svg" version="1.1">
<title>OpenSCAD Model</title>
<path d="
M 100.937,-1084.59 L 101.545,-1084.74 L 102.129,-1084.98 L 102.679,-1085.28 L 103.187,-1085.65 L 103.645,-1086.08
 L 104.045,-1086.56 L 104.382,-1087.09 L 104.649,-1087.66 L 104.843,-1088.26 L 104.961,-1088.87 L 105,-1089.5
 L 105,-1214.5 L 104.961,-1215.13 L 104.843,-1215.74 L 104.649,-1216.34 L 104.382,-1216.91 L 104.045,-1217.44
 L 103.645,-1217.92 L 103.187,-1218.35 L 102.679,-1218.72 L 102.129,-1219.02 L 101.545,-1219.26 L 100.937,-1219.41
 L 100.314,-1219.49 L -100.314,-1219.49 L -100.937,-1219.41 L -101.545,-1219.26 L -102.129,-1219.02 L -102.679,-1218.72
 L -103.187,-1218.35 L -103.645,-1217.92 L -104.045,-1217.44 L -104.382,-1216.91 L -104.649,-1216.34 L -104.843,-1215.74
 L -104.961,-1215.13 L -105,-1214.5 L -105,-1089.5 L -104.961,-1088.87 L -104.843,-1088.26 L -104.649,-1087.66
 L -104.382,-1087.09 L -104.045,-1086.56 L -103.645,-1086.08 L -103.187,-1085.65 L -102.679,-1085.28 L -102.129,-1084.98
 L -101.545,-1084.74 L -100.937,-1084.59 L -100.314,-1084.51 L 100.314,-1084.51 z
M -100.048,-1085.01 L -100.64,-1085.08 L -101.218,-1085.23 L -101.772,-1085.45 L -102.295,-1085.74 L -102.778,-1086.09
 L -103.213,-1086.5 L -103.593,-1086.96 L -103.912,-1087.46 L -104.166,-1088 L -104.351,-1088.57 L -104.463,-1089.15
 L -104.5,-1089.75 L -104.5,-1214.25 L -104.463,-1214.85 L -104.351,-1215.43 L -104.166,-1216 L -103.912,-1216.54
 L -103.593,-1217.04 L -103.213,-1217.5 L -102.778,-1217.91 L -102.295,-1218.26 L -101.772,-1218.55 L -101.218,-1218.77
 L -100.64,-1218.92 L -100.048,-1218.99 L 100.048,-1218.99 L 100.64,-1218.92 L 101.218,-1218.77 L 101.772,-1218.55
 L 102.295,-1218.26 L 102.778,-1217.91 L 103.213,-1217.5 L 103.593,-1217.04 L 103.912,-1216.54 L 104.166,-1216
 L 104.351,-1215.43 L 104.463,-1214.85 L 104.5,-1214.25 L 104.5,-1089.75 L 104.463,-1089.15 L 104.351,-1088.57
 L 104.166,-1088 L 103.912,-1087.46 L 103.593,-1086.96 L 103.213,-1086.5 L 102.778,-1086.09 L 102.295,-1085.74
 L 101.772,-1085.45 L 101.218,-1085.23 L 100.64,-1085.08 L 100.048,-1085.01 z
M 100.937,-940.589 L 101.545,-940.745 L 102.129,-940.976 L 102.679,-941.278 L 103.187,-941.647 L 103.645,-942.077
 L 104.045,-942.561 L 104.382,-943.091 L 104.649,-943.659 L 104.843,-944.257 L 104.961,-944.873 L 105,-945.5
 L 105,-1070.5 L 104.961,-1071.13 L 104.843,-1071.74 L 104.649,-1072.34 L 104.382,-1072.91 L 104.045,-1073.44
 L 103.645,-1073.92 L 103.187,-1074.35 L 102.679,-1074.72 L 102.129,-1075.02 L 101.545,-1075.26 L 100.937,-1075.41
 L 100.314,-1075.49 L -100.314,-1075.49 L -100.937,-1075.41 L -101.545,-1075.26 L -102.129,-1075.02 L -102.679,-1074.72
 L -103.187,-1074.35 L -103.645,-1073.92 L -104.045,-1073.44 L -104.382,-1072.91 L -104.649,-1072.34 L -104.843,-1071.74
 L -104.961,-1071.13 L -105,-1070.5 L -105,-945.5 L -104.961,-944.873 L -104.843,-944.257 L -104.649,-943.659
 L -104.382,-943.091 L -104.045,-942.561 L -103.645,-942.077 L -103.187,-941.647 L -102.679,-941.278 L -102.129,-940.976
 L -101.545,-940.745 L -100.937,-940.589 L -100.314,-940.51 L 100.314,-940.51 z
M -100.048,-941.009 L -100.64,-941.084 L -101.218,-941.232 L -101.772,-941.452 L -102.295,-941.739 L -102.778,-942.09
 L -103.213,-942.498 L -103.593,-942.958 L -103.912,-943.462 L -104.166,-944.001 L -104.351,-944.569 L -104.463,-945.155
 L -104.5,-945.75 L -104.5,-1070.25 L -104.463,-1070.85 L -104.351,-1071.43 L -104.166,-1072 L -103.912,-1072.54
 L -103.593,-1073.04 L -103.213,-1073.5 L -102.778,-1073.91 L -102.295,-1074.26 L -101.772,-1074.55 L -101.218,-1074.77
 L -100.64,-1074.92 L -100.048,-1074.99 L 100.048,-1074.99 L 100.64,-1074.92 L 101.218,-1074.77 L 101.772,-1074.55
 L 102.295,-1074.26 L 102.778,-1073.91 L 103.213,-1073.5 L 103.593,-1073.04 L 103.912,-1072.54 L 104.166,-1072
 L 104.351,-1071.43 L 104.463,-1070.85 L 104.5,-1070.25 L 104.5,-945.75 L 104.463,-945.155 L 104.351,-944.569
 L 104.166,-944.001 L 103.912,-943.462 L 103.593,-942.958 L 103.213,-942.498 L 102.778,-942.09 L 102.295,-941.739
 L 101.772,-941.452 L 101.218,-941.232 L 100.64,-941.084 L 100.048,-941.009 z
M 100.937,-796.589 L 101.545,-796.745 L 102.129,-796.976 L 102.679,-797.278 L 103.187,-797.647 L 103.645,-798.077
 L 104.045,-798.561 L 104.382,-799.091 L 104.649,-799.659 L 104.843,-800.257 L 104.961,-800.873 L 105,-801.5
 L 105,-926.5 L 104.961,-927.127 L 104.843,-927.743 L 104.649,-928.341 L 104.382,-928.909 L 104.045,-929.439
 L 103.645,-929.923 L 103.187,-930.353 L 102.679,-930.722 L 102.129,-931.024 L 101.545,-931.255 L 100.937,-931.411
 L 100.314,-931.49 L -100.314,-931.49 L -100.937,-931.411 L -101.545,-931.255 L -102.129,-931.024 L -102.679,-930.722
 L -103.187,-930.353 L -103.645,-929.923 L -104.045,-929.439 L -104.382,-928.909 L -104.649,-928.341 L -104.843,-927.743
 L -104.961,-927.127 L -105,-926.5 L -105,-801.5 L -104.961,-800.873 L -104.843,-800.257 L -104.649,-799.659
 L -104.382,-799.091 L -104.045,-798.561 L -103.645,-798.077 L -103.187,-797.647 L -102.679,-797.278 L -102.129,-796.976
 L -101.545,-796.745 L -100.937,-796.589 L -100.314,-796.51 L 100.314,-796.51 z
M -100.048,-797.009 L -100.64,-797.084 L -101.218,-797.232 L -101.772,-797.452 L -102.295,-797.739 L -102.778,-798.09
 L -103.213,-798.498 L -103.593,-798.958 L -103.912,-799.462 L -104.166,-800.001 L -104.351,-800.569 L -104.463,-801.155
 L -104.5,-801.75 L -104.5,-926.25 L -104.463,-926.845 L -104.351,-927.431 L -104.166,-927.999 L -103.912,-928.538
 L -103.593,-929.042 L -103.213,-929.502 L -102.778,-929.91 L -102.295,-930.261 L -101.772,-930.548 L -101.218,-930.768
 L -100.64,-930.916 L -100.048,-930.991 L 100.048,-930.991 L 100.64,-930.916 L 101.218,-930.768 L 101.772,-930.548
 L 102.295,-930.261 L 102.778,-929.91 L 103.213,-929.502 L 103.593,-929.042 L 103.912,-928.538 L 104.166,-927.999
 L 104.351,-927.431 L 104.463,-926.845 L 104.5,-926.25 L 104.5,-801.75 L 104.463,-801.155 L 104.351,-800.569
 L 104.166,-800.001 L 103.912,-799.462 L 103.593,-798.958 L 103.213,-798.498 L 102.778,-798.09 L 102.295,-797.739
 L 101.772,-797.452 L 101.218,-797.232 L 100.64,-797.084 L 100.048,-797.009 z
M 100.937,-652.589 L 101.545,-652.745 L 102.129,-652.976 L 102.679,-653.278 L 103.187,-653.647 L 103.645,-654.077
 L 104.045,-654.561 L 104.382,-655.091 L 104.649,-655.659 L 104.843,-656.257 L 104.961,-656.873 L 105,-657.5
 L 105,-782.5 L 104.961,-783.127 L 104.843,-783.743 L 104.649,-784.341 L 104.382,-784.909 L 104.045,-785.439
 L 103.645,-785.923 L 103.187,-786.353 L 102.679,-786.722 L 102.129,-787.024 L 101.545,-787.255 L 100.937,-787.411
 L 100.314,-787.49 L -100.314,-787.49 L -100.937,-787.411 L -101.545,-787.255 L -102.129,-787.024 L -102.679,-786.722
 L -103.187,-786.353 L -103.645,-785.923 L -104.045,-785.439 L -104.382,-784.909 L -104.649,-784.341 L -104.843,-783.743
 L -104.961,-783.127 L -105,-782.5 L -105,-657.5 L -104.961,-656.873 L -104.843,-656.257 L -104.649,-655.659
 L -104.382,-655.091 L -104.045,-654.561 L -103.645,-654.077 L -103.187,-653.647 L -102.679,-653.278 L -102.129,-652.976
 L -101.545,-652.745 L -100.937,-652.589 L -100.314,-652.51 L 100.314,-652.51 z
M -99.993,-653.888 L -100.475,-653.949 L -100.946,-654.07 L -101.398,-654.249 L -101.823,-654.483 L -102.216,-654.769
 L -102.571,-655.101 L -102.88,-655.476 L -103.141,-655.886 L -103.348,-656.326 L -103.498,-656.788 L -103.589,-657.265
 L -103.619,-657.75 L -103.619,-782.25 L -103.589,-782.735 L -103.498,-783.212 L -103.348,-783.674 L -103.141,-784.114
 L -102.88,-784.524 L -102.571,-784.899 L -102.216,-785.231 L -101.823,-785.517 L -101.398,-785.751 L -100.946,-785.93
 L -100.475,-786.051 L -99.993,-786.112 L 99.993,-786.112 L 100.475,-786.051 L 100.946,-785.93 L 101.398,-785.751
 L 101.823,-785.517 L 102.216,-785.231 L 102.571,-784.899 L 102.88,-784.524 L 103.141,-784.114 L 103.348,-783.674
 L 103.498,-783.212 L 103.589,-782.735 L 103.619,-782.25 L 103.619,-657.75 L 103.589,-657.265 L 103.498,-656.788
 L 103.348,-656.326 L 103.141,-655.886 L 102.88,-655.476 L 102.571,-655.101 L 102.216,-654.769 L 101.823,-654.483
 L 101.398,-654.249 L 100.946,-654.07 L 100.475,-653.949 L 99.993,-653.888 z
M 100.937,-508.589 L 101.545,-508.745 L 102.129,-508.976 L 102.679,-509.278 L 103.187,-509.647 L 103.645,-510.077
 L 104.045,-510.561 L 104.382,-511.091 L 104.649,-511.659 L 104.843,-512.257 L 104.961,-512.873 L 105,-513.5
 L 105,-638.5 L 104.961,-639.127 L 104.843,-639.743 L 104.649,-640.341 L 104.382,-640.909 L 104.045,-641.439
 L 103.645,-641.923 L 103.187,-642.353 L 102.679,-642.722 L 102.129,-643.024 L 101.545,-643.255 L 100.937,-643.411
 L 100.314,-643.49 L -100.314,-643.49 L -100.937,-643.411 L -101.545,-643.255 L -102.129,-643.024 L -102.679,-642.722
 L -103.187,-642.353 L -103.645,-641.923 L -104.045,-641.439 L -104.382,-640.909 L -104.649,-640.341 L -104.843,-639.743
 L -104.961,-639.127 L -105,-638.5 L -105,-513.5 L -104.961,-512.873 L -104.843,-512.257 L -104.649,-511.659
 L -104.382,-511.091 L -104.045,-510.561 L -103.645,-510.077 L -103.187,-509.647 L -102.679,-509.278 L -102.129,-508.976
 L -101.545,-508.745 L -100.937,-508.589 L -100.314,-508.51 L 100.314,-508.51 z
M -97.613,-634.204 L -97.8373,-634.232 L -98.0562,-634.288 L -98.2664,-634.371 L -98.4645,-634.48 L -98.6474,-634.613
 L -98.8121,-634.768 L -98.9562,-634.942 L -99.0773,-635.133 L -99.1736,-635.337 L -99.2434,-635.552 L -99.2858,-635.774
 L -99.3,-636 L -99.2858,-636.226 L -99.2434,-636.448 L -99.1736,-636.663 L -99.0773,-636.867 L -98.9562,-637.058
 L -98.8121,-637.232 L -98.6474,-637.387 L -98.4645,-637.52 L -98.2664,-637.629 L -98.0562,-637.712 L -97.8373,-637.768
 L -97.613,-637.796 L -97.387,-637.796 L -97.1627,-637.768 L -96.9438,-637.712 L -96.7336,-637.629 L -96.5355,-637.52
 L -96.3526,-637.387 L -96.1879,-637.232 L -96.0438,-637.058 L -95.9226,-636.867 L -95.8264,-636.663 L -95.7565,-636.448
 L -95.7142,-636.226 L -95.7,-636 L -95.7142,-635.774 L -95.7565,-635.552 L -95.8264,-635.337 L -95.9226,-635.133
 L -96.0438,-634.942 L -96.1879,-634.768 L -96.3526,-634.613 L -96.5355,-634.48 L -96.7336,-634.371 L -96.9438,-634.288
 L -97.1627,-634.232 L -97.387,-634.204 z
M 97.387,-634.204 L 97.1627,-634.232 L 96.9438,-634.288 L 96.7336,-634.371 L 96.5355,-634.48 L 96.3526,-634.613
 L 96.1879,-634.768 L 96.0438,-634.942 L 95.9226,-635.133 L 95.8264,-635.337 L 95.7565,-635.552 L 95.7142,-635.774
 L 95.7,-636 L 95.7142,-636.226 L 95.7565,-636.448 L 95.8264,-636.663 L 95.9226,-636.867 L 96.0438,-637.058
 L 96.1879,-637.232 L 96.3526,-637.387 L 96.5355,-637.52 L 96.7336,-637.629 L 96.9438,-637.712 L 97.1627,-637.768
 L 97.387,-637.796 L 97.613,-637.796 L 97.8373,-637.768 L 98.0562,-637.712 L 98.2664,-637.629 L 98.4645,-637.52
 L 98.6474,-637.387 L 98.8121,-637.232 L 98.9562,-637.058 L 99.0773,-636.867 L 99.1736,-636.663 L 99.2434,-636.448
 L 99.2858,-636.226 L 99.3,-636 L 99.2858,-635.774 L 99.2434,-635.552 L 99.1736,-635.337 L 99.0773,-635.133
 L 98.9562,-634.942 L 98.8121,-634.768 L 98.6474,-634.613 L 98.4645,-634.48 L 98.2664,-634.371 L 98.0562,-634.288
 L 97.8373,-634.232 L 97.613,-634.204 z
M -97.613,-514.204 L -97.8373,-514.232 L -98.0562,-514.288 L -98.2664,-514.371 L -98.4645,-514.48 L -98.6474,-514.613
 L -98.8121,-514.768 L -98.9562,-514.942 L -99.0773,-515.133 L -99.1736,-515.337 L -99.2434,-515.552 L -99.2858,-515.774
 L -99.3,-516 L -99.2858,-516.226 L -99.2434,-516.448 L -99.1736,-516.663 L -99.0773,-516.867 L -98.9562,-517.058
 L -98.8121,-517.232 L -98.6474,-517.387 L -98.4645,-517.52 L -98.2664,-517.629 L -98.0562,-517.712 L -97.8373,-517.768
 L -97.613,-517.796 L -97.387,-517.796 L -97.1627,-517.768 L -96.9438,-517.712 L -96.7336,-517.629 L -96.5355,-517.52
 L -96.3526,-517.387 L -96.1879,-517.232 L -96.0438,-517.058 L -95.9226,-516.867 L -95.8264,-516.663 L -95.7565,-516.448
 L -95.7142,-516.226 L -95.7,-516 L -95.7142,-515.774 L -95.7565,-515.552 L -95.8264,-515.337 L -95.9226,-515.133
 L -96.0438,-514.942 L -96.1879,-514.768 L -96.3526,-514.613 L -96.5355,-514.48 L -96.7336,-514.371 L -96.9438,-514.288
 L -97.1627,-514.232 L -97.387,-514.204 z
M 97.387,-514.204 L 97.1627,-514.232 L 96.9438,-514.288 L 96.7336,-514.371 L 96.5355,-514.48 L 96.3526,-514.613
 L 96.1879,-514.768 L 96.0438,-514.942 L 95.9226,-515.133 L 95.8264,-515.337 L 95.7565,-515.552 L 95.7142,-515.774
 L 95.7,-516 L 95.7142,-516.226 L 95.7565,-516.448 L 95.8264,-516.663 L 95.9226,-516.867 L 96.0438,-517.058
 L 96.1879,-517.232 L 96.3526,-517.387 L 96.5355,-517.52 L 96.7336,-517.629 L 96.9438,-517.712 L 97.1627,-517.768
 L 97.387,-517.796 L 97.613,-517.796 L 97.8373,-517.768 L 98.0562,-517.712 L 98.2664,-517.629 L 98.4645,-517.52
 L 98.6474,-517.387 L 98.8121,-517.232 L 98.9562,-517.058 L 99.0773,-516.867 L 99.1736,-516.663 L 99.2434,-516.448
 L 99.2858,-516.226 L 99.3,-516 L 99.2858,-515.774 L 99.2434,-515.552 L 99.1736,-515.337 L 99.0773,-515.133
 L 98.9562,-514.942 L 98.8121,-514.768 L 98.6474,-514.613 L 98.4645,-514.48 L 98.2664,-514.371 L 98.0562,-514.288
 L 97.8373,-514.232 L 97.613,-514.204 z
" stroke="black" fill="lightgray" stroke-width="0.5"/>
</svg>
