<?xml version="1.0" standalone="no"?>
<!DOCTYPE svg PUBLIC "-//W3C//DTD SVG 1.1//EN" "http://www.w3.org/Graphics/SVG/1.1/DTD/svg11.dtd">
<svg width="46mm" height="328mm" viewBox="-23 -542 46 328" xmlns="http://www.w3.org/2000/svg" version="1.1">
<title>OpenSCAD Model</title>
<path d="
M 18.4369,-466.589 L 19.0451,-466.745 L 19.6289,-466.976 L 20.1791,-467.278 L 20.6871,-467.647 L 21.1448,-468.077
 L 21.5451,-468.561 L 21.8815,-469.091 L 22.1489,-469.659 L 22.3429,-470.257 L 22.4606,-470.873 L 22.5,-471.5
 L 22.5,-536.5 L 22.4606,-537.127 L 22.3429,-537.743 L 22.1489,-538.341 L 21.8815,-538.909 L 21.5451,-539.439
 L 21.1448,-539.923 L 20.6871,-540.353 L 20.1791,-540.722 L 19.6289,-541.024 L 19.0451,-541.255 L 18.4369,-541.411
 L 17.8139,-541.49 L -17.8139,-541.49 L -18.4369,-541.411 L -19.0451,-541.255 L -19.5,-541.075 L -19.5,-541.115
 L -22.5,-541.115 L -22.5,-466.885 L -19.5,-466.885 L -19.5,-466.925 L -19.0451,-466.745 L -18.4369,-466.589
 L -17.8139,-466.51 L 17.8139,-466.51 z
M -17.2512,-468.008 L -17.7495,-468.071 L -18.2361,-468.196 L -18.7031,-468.381 L -19.1433,-468.623 L -19.5497,-468.918
 L -19.9159,-469.262 L -20.2361,-469.649 L -20.5052,-470.073 L -20.7191,-470.528 L -20.8743,-471.005 L -20.9684,-471.499
 L -21,-472 L -21,-536 L -20.9684,-536.501 L -20.8743,-536.995 L -20.7191,-537.472 L -20.5052,-537.927
 L -20.2361,-538.351 L -19.9159,-538.738 L -19.5497,-539.082 L -19.1433,-539.377 L -18.7031,-539.619 L -18.2361,-539.804
 L -17.7495,-539.929 L -17.2512,-539.992 L 17.2512,-539.992 L 17.7495,-539.929 L 18.2361,-539.804 L 18.7031,-539.619
 L 19.1433,-539.377 L 19.5497,-539.082 L 19.9159,-538.738 L 20.2361,-538.351 L 20.5052,-537.927 L 20.7191,-537.472
 L 20.8743,-536.995 L 20.9684,-536.501 L 21,-536 L 21,-472 L 20.9684,-471.499 L 20.8743,-471.005
 L 20.7191,-470.528 L 20.5052,-470.073 L 20.2361,-469.649 L 19.9159,-469.262 L 19.5497,-468.918 L 19.1433,-468.623
 L 18.7031,-468.381 L 18.2361,-468.196 L 17.7495,-468.071 L 17.2512,-468.008 z
M 18.4369,-382.589 L 19.0451,-382.745 L 19.6289,-382.976 L 20.1791,-383.278 L 20.6871,-383.647 L 21.1448,-384.077
 L 21.5451,-384.561 L 21.8815,-385.091 L 22.1489,-385.659 L 22.3429,-386.257 L 22.4606,-386.873 L 22.5,-387.5
 L 22.5,-452.5 L 22.4606,-453.127 L 22.3429,-453.743 L 22.1489,-454.341 L 21.8815,-454.909 L 21.5451,-455.439
 L 21.1448,-455.923 L 20.6871,-456.353 L 20.1791,-456.722 L 19.6289,-457.024 L 19.0451,-457.255 L 18.4369,-457.411
 L 17.8139,-457.49 L -17.8139,-457.49 L -18.4369,-457.411 L -19.0451,-457.255 L -19.6289,-457.024 L -20.1791,-456.722
 L -20.6871,-456.353 L -21.1448,-455.923 L -21.5451,-455.439 L -21.8815,-454.909 L -22.1489,-454.341 L -22.3429,-453.743
 L -22.4,-453.444 L -22.5,-453.444 L -22.5,-386.556 L -22.4,-386.556 L -22.3429,-386.257 L -22.1489,-385.659
 L -21.8815,-385.091 L -21.5451,-384.561 L -21.1448,-384.077 L -20.6871,-383.647 L -20.1791,-383.278 L -19.6289,-382.976
 L -19.0451,-382.745 L -18.4369,-382.589 L -17.8139,-382.51 L 17.8139,-382.51 z
M -17.2432,-384.135 L -17.7256,-384.196 L -18.1967,-384.317 L -18.6489,-384.496 L -19.0751,-384.73 L -19.4685,-385.016
 L -19.823,-385.349 L -20.133,-385.724 L -20.3936,-386.134 L -20.6007,-386.574 L -20.751,-387.037 L -20.8421,-387.515
 L -20.8726,-388 L -20.8726,-452 L -20.8421,-452.485 L -20.751,-452.963 L -20.6007,-453.426 L -20.3936,-453.866
 L -20.133,-454.276 L -19.823,-454.651 L -19.4685,-454.984 L -19.0751,-455.27 L -18.6489,-455.504 L -18.1967,-455.683
 L -17.7256,-455.804 L -17.2432,-455.865 L 17.2432,-455.865 L 17.7256,-455.804 L 18.1967,-455.683 L 18.6489,-455.504
 L 19.0751,-455.27 L 19.4685,-454.984 L 19.823,-454.651 L 20.133,-454.276 L 20.3936,-453.866 L 20.6007,-453.426
 L 20.751,-452.963 L 20.8421,-452.485 L 20.8726,-452 L 20.8726,-388 L 20.8421,-387.515 L 20.751,-387.037
 L 20.6007,-386.574 L 20.3936,-386.134 L 20.133,-385.724 L 19.823,-385.349 L 19.4685,-385.016 L 19.0751,-384.73
 L 18.6489,-384.496 L 18.1967,-384.317 L 17.7256,-384.196 L 17.2432,-384.135 z
M 18.4369,-298.589 L 19.0451,-298.745 L 19.6289,-298.976 L 20.1791,-299.278 L 20.6871,-299.647 L 21.1448,-300.077
 L 21.5451,-300.561 L 21.8815,-301.091 L 22.1489,-301.659 L 22.3429,-302.257 L 22.4606,-302.873 L 22.5,-303.5
 L 22.5,-368.5 L 22.4606,-369.127 L 22.3429,-369.743 L 22.1489,-370.341 L 21.8815,-370.909 L 21.5451,-371.439
 L 21.1448,-371.923 L 20.6871,-372.353 L 20.1791,-372.722 L 19.6289,-373.024 L 19.0451,-373.255 L 18.4369,-373.411
 L 17.8139,-373.49 L -17.8139,-373.49 L -18.4369,-373.411 L -19.0451,-373.255 L -19.6289,-373.024 L -20.1791,-372.722
 L -20.6871,-372.353 L -21.1448,-371.923 L -21.5451,-371.439 L -21.8815,-370.909 L -22.1489,-370.341 L -22.3429,-369.743
 L -22.4606,-369.127 L -22.5,-368.5 L -22.5,-303.5 L -22.4606,-302.873 L -22.3429,-302.257 L -22.1489,-301.659
 L -21.8815,-301.091 L -21.5451,-300.561 L -21.1448,-300.077 L -20.6871,-299.647 L -20.1791,-299.278 L -19.6289,-298.976
 L -19.0451,-298.745 L -18.4369,-298.589 L -17.8139,-298.51 L 17.8139,-298.51 z
M 14.8493,-363.605 L 14.5503,-363.643 L 14.2583,-363.717 L 13.9781,-363.828 L 13.714,-363.974 L 13.4702,-364.151
 L 13.2505,-364.357 L 13.0583,-364.589 L 12.8969,-364.844 L 12.7685,-365.117 L 12.6754,-365.403 L 12.6189,-365.699
 L 12.6,-366 L 12.6189,-366.301 L 12.6754,-366.597 L 12.7685,-366.883 L 12.8969,-367.156 L 13.0583,-367.411
 L 13.2505,-367.643 L 13.4702,-367.849 L 13.714,-368.026 L 13.9781,-368.172 L 14.2583,-368.283 L 14.5503,-368.357
 L 14.8493,-368.395 L 15.1507,-368.395 L 15.4497,-368.357 L 15.7416,-368.283 L 16.0219,-368.172 L 16.286,-368.026
 L 16.5298,-367.849 L 16.7495,-367.643 L 16.9416,-367.411 L 17.1031,-367.156 L 17.2315,-366.883 L 17.3246,-366.597
 L 17.3811,-366.301 L 17.4,-366 L 17.3811,-365.699 L 17.3246,-365.403 L 17.2315,-365.117 L 17.1031,-364.844
 L 16.9416,-364.589 L 16.7495,-364.357 L 16.5298,-364.151 L 16.286,-363.974 L 16.0219,-363.828 L 15.7416,-363.717
 L 15.4497,-363.643 L 15.1507,-363.605 z
M -15.1507,-363.605 L -15.4497,-363.643 L -15.7416,-363.717 L -16.0219,-363.828 L -16.286,-363.974 L -16.5298,-364.151
 L -16.7495,-364.357 L -16.9416,-364.589 L -17.1031,-364.844 L -17.2315,-365.117 L -17.3246,-365.403 L -17.3811,-365.699
 L -17.4,-366 L -17.3811,-366.301 L -17.3246,-366.597 L -17.2315,-366.883 L -17.1031,-367.156 L -16.9416,-367.411
 L -16.7495,-367.643 L -16.5298,-367.849 L -16.286,-368.026 L -16.0219,-368.172 L -15.7416,-368.283 L -15.4497,-368.357
 L -15.1507,-368.395 L -14.8493,-368.395 L -14.5503,-368.357 L -14.2583,-368.283 L -13.9781,-368.172 L -13.714,-368.026
 L -13.4702,-367.849 L -13.2505,-367.643 L -13.0583,-367.411 L -12.8969,-367.156 L -12.7685,-366.883 L -12.6754,-366.597
 L -12.6189,-366.301 L -12.6,-366 L -12.6189,-365.699 L -12.6754,-365.403 L -12.7685,-365.117 L -12.8969,-364.844
 L -13.0583,-364.589 L -13.2505,-364.357 L -13.4702,-364.151 L -13.714,-363.974 L -13.9781,-363.828 L -14.2583,-363.717
 L -14.5503,-363.643 L -14.8493,-363.605 z
M 14.8493,-303.605 L 14.5503,-303.643 L 14.2583,-303.717 L 13.9781,-303.828 L 13.714,-303.974 L 13.4702,-304.151
 L 13.2505,-304.357 L 13.0583,-304.589 L 12.8969,-304.844 L 12.7685,-305.117 L 12.6754,-305.403 L 12.6189,-305.699
 L 12.6,-306 L 12.6189,-306.301 L 12.6754,-306.597 L 12.7685,-306.883 L 12.8969,-307.156 L 13.0583,-307.411
 L 13.2505,-307.643 L 13.4702,-307.849 L 13.714,-308.026 L 13.9781,-308.172 L 14.2583,-308.283 L 14.5503,-308.357
 L 14.8493,-308.395 L 15.1507,-308.395 L 15.4497,-308.357 L 15.7416,-308.283 L 16.0219,-308.172 L 16.286,-308.026
 L 16.5298,-307.849 L 16.7495,-307.643 L 16.9416,-307.411 L 17.1031,-307.156 L 17.2315,-306.883 L 17.3246,-306.597
 L 17.3811,-306.301 L 17.4,-306 L 17.3811,-305.699 L 17.3246,-305.403 L 17.2315,-305.117 L 17.1031,-304.844
 L 16.9416,-304.589 L 16.7495,-304.357 L 16.5298,-304.151 L 16.286,-303.974 L 16.0219,-303.828 L 15.7416,-303.717
 L 15.4497,-303.643 L 15.1507,-303.605 z
M -15.1507,-303.605 L -15.4497,-303.643 L -15.7416,-303.717 L -16.0219,-303.828 L -16.286,-303.974 L -16.5298,-304.151
 L -16.7495,-304.357 L -16.9416,-304.589 L -17.1031,-304.844 L -17.2315,-305.117 L -17.3246,-305.403 L -17.3811,-305.699
 L -17.4,-306 L -17.3811,-306.301 L -17.3246,-306.597 L -17.2315,-306.883 L -17.1031,-307.156 L -16.9416,-307.411
 L -16.7495,-307.643 L -16.5298,-307.849 L -16.286,-308.026 L -16.0219,-308.172 L -15.7416,-308.283 L -15.4497,-308.357
 L -15.1507,-308.395 L -14.8493,-308.395 L -14.5503,-308.357 L -14.2583,-308.283 L -13.9781,-308.172 L -13.714,-308.026
 L -13.4702,-307.849 L -13.2505,-307.643 L -13.0583,-307.411 L -12.8969,-307.156 L -12.7685,-306.883 L -12.6754,-306.597
 L -12.6189,-306.301 L -12.6,-306 L -12.6189,-305.699 L -12.6754,-305.403 L -12.7685,-305.117 L -12.8969,-304.844
 L -13.0583,-304.589 L -13.2505,-304.357 L -13.4702,-304.151 L -13.714,-303.974 L -13.9781,-303.828 L -14.2583,-303.717
 L -14.5503,-303.643 L -14.8493,-303.605 z
M 18.4369,-214.589 L 19.0451,-214.745 L 19.6289,-214.976 L 20.1791,-215.278 L 20.6871,-215.647 L 21.1448,-216.077
 L 21.5451,-216.561 L 21.8815,-217.091 L 22.1489,-217.659 L 22.3429,-218.257 L 22.4606,-218.873 L 22.5,-219.5
 L 22.5,-284.5 L 22.4606,-285.127 L 22.3429,-285.743 L 22.1489,-286.341 L 21.8815,-286.909 L 21.5451,-287.439
 L 21.1448,-287.923 L 20.6871,-288.353 L 20.1791,-288.722 L 19.6289,-289.024 L 19.0451,-289.255 L 18.4369,-289.411
 L 17.8139,-289.49 L -17.8139,-289.49 L -18.4369,-289.411 L -19.0451,-289.255 L -19.6289,-289.024 L -20.1791,-288.722
 L -20.6871,-288.353 L -21.1448,-287.923 L -21.5451,-287.439 L -21.8815,-286.909 L -22.1489,-286.341 L -22.3429,-285.743
 L -22.4606,-285.127 L -22.5,-284.5 L -22.5,-219.5 L -22.4606,-218.873 L -22.3429,-218.257 L -22.1489,-217.659
 L -21.8815,-217.091 L -21.5451,-216.561 L -21.1448,-216.077 L -20.6871,-215.647 L -20.1791,-215.278 L -19.6289,-214.976
 L -19.0451,-214.745 L -18.4369,-214.589 L -17.8139,-214.51 L 17.8139,-214.51 z
M 14.887,-280.204 L 14.6627,-280.232 L 14.4438,-280.288 L 14.2336,-280.371 L 14.0355,-280.48 L 13.8526,-280.613
 L 13.6879,-280.768 L 13.5438,-280.942 L 13.4226,-281.133 L 13.3264,-281.337 L 13.2565,-281.552 L 13.2142,-281.774
 L 13.2,-282 L 13.2142,-282.226 L 13.2565,-282.448 L 13.3264,-282.663 L 13.4226,-282.867 L 13.5438,-283.058
 L 13.6879,-283.232 L 13.8526,-283.387 L 14.0355,-283.52 L 14.2336,-283.629 L 14.4438,-283.712 L 14.6627,-283.768
 L 14.887,-283.796 L 15.113,-283.796 L 15.3373,-283.768 L 15.5562,-283.712 L 15.7664,-283.629 L 15.9645,-283.52
 L 16.1474,-283.387 L 16.3121,-283.232 L 16.4562,-283.058 L 16.5773,-282.867 L 16.6736,-282.663 L 16.7434,-282.448
 L 16.7858,-282.226 L 16.8,-282 L 16.7858,-281.774 L 16.7434,-281.552 L 16.6736,-281.337 L 16.5773,-281.133
 L 16.4562,-280.942 L 16.3121,-280.768 L 16.1474,-280.613 L 15.9645,-280.48 L 15.7664,-280.371 L 15.5562,-280.288
 L 15.3373,-280.232 L 15.113,-280.204 z
M -15.113,-280.204 L -15.3373,-280.232 L -15.5562,-280.288 L -15.7664,-280.371 L -15.9645,-280.48 L -16.1474,-280.613
 L -16.3121,-280.768 L -16.4562,-280.942 L -16.5773,-281.133 L -16.6736,-281.337 L -16.7434,-281.552 L -16.7858,-281.774
 L -16.8,-282 L -16.7858,-282.226 L -16.7434,-282.448 L -16.6736,-282.663 L -16.5773,-282.867 L -16.4562,-283.058
 L -16.3121,-283.232 L -16.1474,-283.387 L -15.9645,-283.52 L -15.7664,-283.629 L -15.5562,-283.712 L -15.3373,-283.768
 L -15.113,-283.796 L -14.887,-283.796 L -14.6627,-283.768 L -14.4438,-283.712 L -14.2336,-283.629 L -14.0355,-283.52
 L -13.8526,-283.387 L -13.6879,-283.232 L -13.5438,-283.058 L -13.4226,-282.867 L -13.3264,-282.663 L -13.2565,-282.448
 L -13.2142,-282.226 L -13.2,-282 L -13.2142,-281.774 L -13.2565,-281.552 L -13.3264,-281.337 L -13.4226,-281.133
 L -13.5438,-280.942 L -13.6879,-280.768 L -13.8526,-280.613 L -14.0355,-280.48 L -14.2336,-280.371 L -14.4438,-280.288
 L -14.6627,-280.232 L -14.887,-280.204 z
M 14.887,-220.204 L 14.6627,-220.232 L 14.4438,-220.288 L 14.2336,-220.371 L 14.0355,-220.48 L 13.8526,-220.613
 L 13.6879,-220.768 L 13.5438,-220.942 L 13.4226,-221.133 L 13.3264,-221.337 L 13.2565,-221.552 L 13.2142,-221.774
 L 13.2,-222 L 13.2142,-222.226 L 13.2565,-222.448 L 13.3264,-222.663 L 13.4226,-222.867 L 13.5438,-223.058
 L 13.6879,-223.232 L 13.8526,-223.387 L 14.0355,-223.52 L 14.2336,-223.629 L 14.4438,-223.712 L 14.6627,-223.768
 L 14.887,-223.796 L 15.113,-223.796 L 15.3373,-223.768 L 15.5562,-223.712 L 15.7664,-223.629 L 15.9645,-223.52
 L 16.1474,-223.387 L 16.3121,-223.232 L 16.4562,-223.058 L 16.5773,-222.867 L 16.6736,-222.663 L 16.7434,-222.448
 L 16.7858,-222.226 L 16.8,-222 L 16.7858,-221.774 L 16.7434,-221.552 L 16.6736,-221.337 L 16.5773,-221.133
 L 16.4562,-220.942 L 16.3121,-220.768 L 16.1474,-220.613 L 15.9645,-220.48 L 15.7664,-220.371 L 15.5562,-220.288
 L 15.3373,-220.232 L 15.113,-220.204 z
M -15.113,-220.204 L -15.3373,-220.232 L -15.5562,-220.288 L -15.7664,-220.371 L -15.9645,-220.48 L -16.1474,-220.613
 L -16.3121,-220.768 L -16.4562,-220.942 L -16.5773,-221.133 L -16.6736,-221.337 L -16.7434,-221.552 L -16.7858,-221.774
 L -16.8,-222 L -16.7858,-222.226 L -16.7434,-222.448 L -16.6736,-222.663 L -16.5773,-222.867 L -16.4562,-223.058
 L -16.3121,-223.232 L -16.1474,-223.387 L -15.9645,-223.52 L -15.7664,-223.629 L -15.5562,-223.712 L -15.3373,-223.768
 L -15.113,-223.796 L -14.887,-223.796 L -14.6627,-223.768 L -14.4438,-223.712 L -14.2336,-223.629 L -14.0355,-223.52
 L -13.8526,-223.387 L -13.6879,-223.232 L -13.5438,-223.058 L -13.4226,-222.867 L -13.3264,-222.663 L -13.2565,-222.448
 L -13.2142,-222.226 L -13.2,-222 L -13.2142,-221.774 L -13.2565,-221.552 L -13.3264,-221.337 L -13.4226,-221.133
 L -13.5438,-220.942 L -13.6879,-220.768 L -13.8526,-220.613 L -14.0355,-220.48 L -14.2336,-220.371 L -14.4438,-220.288
 L -14.6627,-220.232 L -14.887,-220.204 z
" stroke="black" fill="lightgray" stroke-width="0.5"/>
</svg>
