<?xml version="1.0" standalone="no"?>
<!DOCTYPE svg PUBLIC "-//W3C//DTD SVG 1.1//EN" "http://www.w3.org/Graphics/SVG/1.1/DTD/svg11.dtd">
<svg width="210mm" height="262mm" viewBox="-105 -455 210 262" xmlns="http://www.w3.org/2000/svg" version="1.1">
<title>OpenSCAD Model</title>
<path d="
M 100.937,-409.589 L 101.545,-409.745 L 102.129,-409.976 L 102.679,-410.278 L 103.187,-410.647 L 103.645,-411.077
 L 104.045,-411.561 L 104.382,-412.091 L 104.649,-412.659 L 104.843,-413.257 L 104.961,-413.873 L 105,-414.5
 L 105,-449.5 L 104.961,-450.127 L 104.843,-450.743 L 104.649,-451.341 L 104.382,-451.909 L 104.045,-452.439
 L 103.645,-452.923 L 103.187,-453.353 L 102.679,-453.722 L 102.129,-454.024 L 101.545,-454.255 L 100.937,-454.411
 L 100.314,-454.49 L -100.314,-454.49 L -100.937,-454.411 L -101.545,-454.255 L -102.129,-454.024 L -102.679,-453.722
 L -103.187,-453.353 L -103.645,-452.923 L -104.045,-452.439 L -104.382,-451.909 L -104.649,-451.341 L -104.843,-450.743
 L -104.961,-450.127 L -105,-449.5 L -105,-414.5 L -104.961,-413.873 L -104.843,-413.257 L -104.649,-412.659
 L -104.382,-412.091 L -104.045,-411.561 L -103.645,-411.077 L -103.187,-410.647 L -102.679,-410.278 L -102.129,-409.976
 L -101.545,-409.745 L -100.937,-409.589 L -100.314,-409.51 L 100.314,-409.51 z
M -100.048,-410.009 L -100.64,-410.084 L -101.218,-410.232 L -101.772,-410.452 L -102.295,-410.739 L -102.778,-411.09
 L -103.213,-411.498 L -103.593,-411.958 L -103.912,-412.462 L -104.166,-413.001 L -104.351,-413.569 L -104.463,-414.155
 L -104.5,-414.75 L -104.5,-449.25 L -104.463,-449.845 L -104.351,-450.431 L -104.166,-450.999 L -103.912,-451.538
 L -103.593,-452.042 L -103.213,-452.502 L -102.778,-452.91 L -102.295,-453.261 L -101.772,-453.548 L -101.218,-453.768
 L -100.64,-453.916 L -100.048,-453.991 L 100.048,-453.991 L 100.64,-453.916 L 101.218,-453.768 L 101.772,-453.548
 L 102.295,-453.261 L 102.778,-452.91 L 103.213,-452.502 L 103.593,-452.042 L 103.912,-451.538 L 104.166,-450.999
 L 104.351,-450.431 L 104.463,-449.845 L 104.5,-449.25 L 104.5,-414.75 L 104.463,-414.155 L 104.351,-413.569
 L 104.166,-413.001 L 103.912,-412.462 L 103.593,-411.958 L 103.213,-411.498 L 102.778,-411.09 L 102.295,-410.739
 L 101.772,-410.452 L 101.218,-410.232 L 100.64,-410.084 L 100.048,-410.009 z
M 100.937,-355.589 L 101.545,-355.745 L 102.129,-355.976 L 102.679,-356.278 L 103.187,-356.647 L 103.645,-357.077
 L 104.045,-357.561 L 104.382,-358.091 L 104.649,-358.659 L 104.843,-359.257 L 104.961,-359.873 L 105,-360.5
 L 105,-395.5 L 104.961,-396.127 L 104.843,-396.743 L 104.649,-397.341 L 104.382,-397.909 L 104.045,-398.439
 L 103.645,-398.923 L 103.187,-399.353 L 102.679,-399.722 L 102.129,-400.024 L 101.545,-400.255 L 100.937,-400.411
 L 100.314,-400.49 L -100.314,-400.49 L -100.937,-400.411 L -101.545,-400.255 L -102.129,-400.024 L -102.679,-399.722
 L -103.187,-399.353 L -103.645,-398.923 L -104.045,-398.439 L -104.382,-397.909 L -104.649,-397.341 L -104.843,-396.743
 L -104.961,-396.127 L -105,-395.5 L -105,-360.5 L -104.961,-359.873 L -104.843,-359.257 L -104.649,-358.659
 L -104.382,-358.091 L -104.045,-357.561 L -103.645,-357.077 L -103.187,-356.647 L -102.679,-356.278 L -102.129,-355.976
 L -101.545,-355.745 L -100.937,-355.589 L -100.314,-355.51 L 100.314,-355.51 z
M -100.048,-356.009 L -100.64,-356.084 L -101.218,-356.232 L -101.772,-356.452 L -102.295,-356.739 L -102.778,-357.09
 L -103.213,-357.498 L -103.593,-357.958 L -103.912,-358.462 L -104.166,-359.001 L -104.351,-359.569 L -104.463,-360.155
 L -104.5,-360.75 L -104.5,-395.25 L -104.463,-395.845 L -104.351,-396.431 L -104.166,-396.999 L -103.912,-397.538
 L -103.593,-398.042 L -103.213,-398.502 L -102.778,-398.91 L -102.295,-399.261 L -101.772,-399.548 L -101.218,-399.768
 L -100.64,-399.916 L -100.048,-399.991 L 100.048,-399.991 L 100.64,-399.916 L 101.218,-399.768 L 101.772,-399.548
 L 102.295,-399.261 L 102.778,-398.91 L 103.213,-398.502 L 103.593,-398.042 L 103.912,-397.538 L 104.166,-396.999
 L 104.351,-396.431 L 104.463,-395.845 L 104.5,-395.25 L 104.5,-360.75 L 104.463,-360.155 L 104.351,-359.569
 L 104.166,-359.001 L 103.912,-358.462 L 103.593,-357.958 L 103.213,-357.498 L 102.778,-357.09 L 102.295,-356.739
 L 101.772,-356.452 L 101.218,-356.232 L 100.64,-356.084 L 100.048,-356.009 z
M 100.937,-301.589 L 101.545,-301.745 L 102.129,-301.976 L 102.679,-302.278 L 103.187,-302.647 L 103.645,-303.077
 L 104.045,-303.561 L 104.382,-304.091 L 104.649,-304.659 L 104.843,-305.257 L 104.961,-305.873 L 105,-306.5
 L 105,-341.5 L 104.961,-342.127 L 104.843,-342.743 L 104.649,-343.341 L 104.382,-343.909 L 104.045,-344.439
 L 103.645,-344.923 L 103.187,-345.353 L 102.679,-345.722 L 102.129,-346.024 L 101.545,-346.255 L 100.937,-346.411
 L 100.314,-346.49 L -100.314,-346.49 L -100.937,-346.411 L -101.545,-346.255 L -102.129,-346.024 L -102.679,-345.722
 L -103.187,-345.353 L -103.645,-344.923 L -104.045,-344.439 L -104.382,-343.909 L -104.649,-343.341 L -104.843,-342.743
 L -104.961,-342.127 L -105,-341.5 L -105,-306.5 L -104.961,-305.873 L -104.843,-305.257 L -104.649,-304.659
 L -104.382,-304.091 L -104.045,-303.561 L -103.645,-303.077 L -103.187,-302.647 L -102.679,-302.278 L -102.129,-301.976
 L -101.545,-301.745 L -100.937,-301.589 L -100.314,-301.51 L 100.314,-301.51 z
M -100.048,-302.009 L -100.64,-302.084 L -101.218,-302.232 L -101.772,-302.452 L -102.295,-302.739 L -102.778,-303.09
 L -103.213,-303.498 L -103.593,-303.958 L -103.912,-304.462 L -104.166,-305.001 L -104.351,-305.569 L -104.463,-306.155
 L -104.5,-306.75 L -104.5,-341.25 L -104.463,-341.845 L -104.351,-342.431 L -104.166,-342.999 L -103.912,-343.538
 L -103.593,-344.042 L -103.213,-344.502 L -102.778,-344.91 L -102.295,-345.261 L -101.772,-345.548 L -101.218,-345.768
 L -100.64,-345.916 L -100.048,-345.991 L 100.048,-345.991 L 100.64,-345.916 L 101.218,-345.768 L 101.772,-345.548
 L 102.295,-345.261 L 102.778,-344.91 L 103.213,-344.502 L 103.593,-344.042 L 103.912,-343.538 L 104.166,-342.999
 L 104.351,-342.431 L 104.463,-341.845 L 104.5,-341.25 L 104.5,-306.75 L 104.463,-306.155 L 104.351,-305.569
 L 104.166,-305.001 L 103.912,-304.462 L 103.593,-303.958 L 103.213,-303.498 L 102.778,-303.09 L 102.295,-302.739
 L 101.772,-302.452 L 101.218,-302.232 L 100.64,-302.084 L 100.048,-302.009 z
M 100.937,-247.589 L 101.545,-247.745 L 102.129,-247.976 L 102.679,-248.278 L 103.187,-248.647 L 103.645,-249.077
 L 104.045,-249.561 L 104.382,-250.091 L 104.649,-250.659 L 104.843,-251.257 L 104.961,-251.873 L 105,-252.5
 L 105,-287.5 L 104.961,-288.127 L 104.843,-288.743 L 104.649,-289.341 L 104.382,-289.909 L 104.045,-290.439
 L 103.645,-290.923 L 103.187,-291.353 L 102.679,-291.722 L 102.129,-292.024 L 101.545,-292.255 L 100.937,-292.411
 L 100.314,-292.49 L -100.314,-292.49 L -100.937,-292.411 L -101.545,-292.255 L -102.129,-292.024 L -102.679,-291.722
 L -103.187,-291.353 L -103.645,-290.923 L -104.045,-290.439 L -104.382,-289.909 L -104.649,-289.341 L -104.843,-288.743
 L -104.961,-288.127 L -105,-287.5 L -105,-252.5 L -104.961,-251.873 L -104.843,-251.257 L -104.649,-250.659
 L -104.382,-250.091 L -104.045,-249.561 L -103.645,-249.077 L -103.187,-248.647 L -102.679,-248.278 L -102.129,-247.976
 L -101.545,-247.745 L -100.937,-247.589 L -100.314,-247.51 L 100.314,-247.51 z
M -99.993,-248.888 L -100.475,-248.949 L -100.946,-249.07 L -101.398,-249.249 L -101.823,-249.483 L -102.216,-249.769
 L -102.571,-250.101 L -102.88,-250.476 L -103.141,-250.886 L -103.348,-251.326 L -103.498,-251.788 L -103.589,-252.265
 L -103.619,-252.75 L -103.619,-287.25 L -103.589,-287.735 L -103.498,-288.212 L -103.348,-288.674 L -103.141,-289.114
 L -102.88,-289.524 L -102.571,-289.899 L -102.216,-290.231 L -101.823,-290.517 L -101.398,-290.751 L -100.946,-290.93
 L -100.475,-291.051 L -99.993,-291.112 L 99.993,-291.112 L 100.475,-291.051 L 100.946,-290.93 L 101.398,-290.751
 L 101.823,-290.517 L 102.216,-290.231 L 102.571,-289.899 L 102.88,-289.524 L 103.141,-289.114 L 103.348,-288.674
 L 103.498,-288.212 L 103.589,-287.735 L 103.619,-287.25 L 103.619,-252.75 L 103.589,-252.265 L 103.498,-251.788
 L 103.348,-251.326 L 103.141,-250.886 L 102.88,-250.476 L 102.571,-250.101 L 102.216,-249.769 L 101.823,-249.483
 L 101.398,-249.249 L 100.946,-249.07 L 100.475,-248.949 L 99.993,-248.888 z
M 100.937,-193.589 L 101.545,-193.745 L 102.129,-193.976 L 102.679,-194.278 L 103.187,-194.647 L 103.645,-195.077
 L 104.045,-195.561 L 104.382,-196.091 L 104.649,-196.659 L 104.843,-197.257 L 104.961,-197.873 L 105,-198.5
 L 105,-233.5 L 104.961,-234.127 L 104.843,-234.743 L 104.649,-235.341 L 104.382,-235.909 L 104.045,-236.439
 L 103.645,-236.923 L 103.187,-237.353 L 102.679,-237.722 L 102.129,-238.024 L 101.545,-238.255 L 100.937,-238.411
 L 100.314,-238.49 L -100.314,-238.49 L -100.937,-238.411 L -101.545,-238.255 L -102.129,-238.024 L -102.679,-237.722
 L -103.187,-237.353 L -103.645,-236.923 L -104.045,-236.439 L -104.382,-235.909 L -104.649,-235.341 L -104.843,-234.743
 L -104.961,-234.127 L -105,-233.5 L -105,-198.5 L -104.961,-197.873 L -104.843,-197.257 L -104.649,-196.659
 L -104.382,-196.091 L -104.045,-195.561 L -103.645,-195.077 L -103.187,-194.647 L -102.679,-194.278 L -102.129,-193.976
 L -101.545,-193.745 L -100.937,-193.589 L -100.314,-193.51 L 100.314,-193.51 z
M -97.613,-229.204 L -97.8373,-229.232 L -98.0562,-229.288 L -98.2664,-229.371 L -98.4645,-229.48 L -98.6474,-229.613
 L -98.8121,-229.768 L -98.9562,-229.942 L -99.0773,-230.133 L -99.1736,-230.337 L -99.2434,-230.552 L -99.2858,-230.774
 L -99.3,-231 L -99.2858,-231.226 L -99.2434,-231.448 L -99.1736,-231.663 L -99.0773,-231.867 L -98.9562,-232.058
 L -98.8121,-232.232 L -98.6474,-232.387 L -98.4645,-232.52 L -98.2664,-232.629 L -98.0562,-232.712 L -97.8373,-232.768
 L -97.613,-232.796 L -97.387,-232.796 L -97.1627,-232.768 L -96.9438,-232.712 L -96.7336,-232.629 L -96.5355,-232.52
 L -96.3526,-232.387 L -96.1879,-232.232 L -96.0438,-232.058 L -95.9226,-231.867 L -95.8264,-231.663 L -95.7565,-231.448
 L -95.7142,-231.226 L -95.7,-231 L -95.7142,-230.774 L -95.7565,-230.552 L -95.8264,-230.337 L -95.9226,-230.133
 L -96.0438,-229.942 L -96.1879,-229.768 L -96.3526,-229.613 L -96.5355,-229.48 L -96.7336,-229.371 L -96.9438,-229.288
 L -97.1627,-229.232 L -97.387,-229.204 z
M 97.387,-229.204 L 97.1627,-229.232 L 96.9438,-229.288 L 96.7336,-229.371 L 96.5355,-229.48 L 96.3526,-229.613
 L 96.1879,-229.768 L 96.0438,-229.942 L 95.9226,-230.133 L 95.8264,-230.337 L 95.7565,-230.552 L 95.7142,-230.774
 L 95.7,-231 L 95.7142,-231.226 L 95.7565,-231.448 L 95.8264,-231.663 L 95.9226,-231.867 L 96.0438,-232.058
 L 96.1879,-232.232 L 96.3526,-232.387 L 96.5355,-232.52 L 96.7336,-232.629 L 96.9438,-232.712 L 97.1627,-232.768
 L 97.387,-232.796 L 97.613,-232.796 L 97.8373,-232.768 L 98.0562,-232.712 L 98.2664,-232.629 L 98.4645,-232.52
 L 98.6474,-232.387 L 98.8121,-232.232 L 98.9562,-232.058 L 99.0773,-231.867 L 99.1736,-231.663 L 99.2434,-231.448
 L 99.2858,-231.226 L 99.3,-231 L 99.2858,-230.774 L 99.2434,-230.552 L 99.1736,-230.337 L 99.0773,-230.133
 L 98.9562,-229.942 L 98.8121,-229.768 L 98.6474,-229.613 L 98.4645,-229.48 L 98.2664,-229.371 L 98.0562,-229.288
 L 97.8373,-229.232 L 97.613,-229.204 z
M 97.387,-199.204 L 97.1627,-199.232 L 96.9438,-199.288 L 96.7336,-199.371 L 96.5355,-199.48 L 96.3526,-199.613
 L 96.1879,-199.768 L 96.0438,-199.942 L 95.9226,-200.133 L 95.8264,-200.337 L 95.7565,-200.552 L 95.7142,-200.774
 L 95.7,-201 L 95.7142,-201.226 L 95.7565,-201.448 L 95.8264,-201.663 L 95.9226,-201.867 L 96.0438,-202.058
 L 96.1879,-202.232 L 96.3526,-202.387 L 96.5355,-202.52 L 96.7336,-202.629 L 96.9438,-202.712 L 97.1627,-202.768
 L 97.387,-202.796 L 97.613,-202.796 L 97.8373,-202.768 L 98.0562,-202.712 L 98.2664,-202.629 L 98.4645,-202.52
 L 98.6474,-202.387 L 98.8121,-202.232 L 98.9562,-202.058 L 99.0773,-201.867 L 99.1736,-201.663 L 99.2434,-201.448
 L 99.2858,-201.226 L 99.3,-201 L 99.2858,-200.774 L 99.2434,-200.552 L 99.1736,-200.337 L 99.0773,-200.133
 L 98.9562,-199.942 L 98.8121,-199.768 L 98.6474,-199.613 L 98.4645,-199.48 L 98.2664,-199.371 L 98.0562,-199.288
 L 97.8373,-199.232 L 97.613,-199.204 z
M -97.613,-199.204 L -97.8373,-199.232 L -98.0562,-199.288 L -98.2664,-199.371 L -98.4645,-199.48 L -98.6474,-199.613
 L -98.8121,-199.768 L -98.9562,-199.942 L -99.0773,-200.133 L -99.1736,-200.337 L -99.2434,-200.552 L -99.2858,-200.774
 L -99.3,-201 L -99.2858,-201.226 L -99.2434,-201.448 L -99.1736,-201.663 L -99.0773,-201.867 L -98.9562,-202.058
 L -98.8121,-202.232 L -98.6474,-202.387 L -98.4645,-202.52 L -98.2664,-202.629 L -98.0562,-202.712 L -97.8373,-202.768
 L -97.613,-202.796 L -97.387,-202.796 L -97.1627,-202.768 L -96.9438,-202.712 L -96.7336,-202.629 L -96.5355,-202.52
 L -96.3526,-202.387 L -96.1879,-202.232 L -96.0438,-202.058 L -95.9226,-201.867 L -95.8264,-201.663 L -95.7565,-201.448
 L -95.7142,-201.226 L -95.7,-201 L -95.7142,-200.774 L -95.7565,-200.552 L -95.8264,-200.337 L -95.9226,-200.133
 L -96.0438,-199.942 L -96.1879,-199.768 L -96.3526,-199.613 L -96.5355,-199.48 L -96.7336,-199.371 L -96.9438,-199.288
 L -97.1627,-199.232 L -97.387,-199.204 z
" stroke="black" fill="lightgray" stroke-width="0.5"/>
</svg>
