<?xml version="1.0" standalone="no"?>
<!DOCTYPE svg PUBLIC "-//W3C//DTD SVG 1.1//EN" "http://www.w3.org/Graphics/SVG/1.1/DTD/svg11.dtd">
<svg width="106mm" height="636mm" viewBox="-53 -1092 106 636" xmlns="http://www.w3.org/2000/svg" version="1.1">
<title>OpenSCAD Model</title>
<path d="
M 48.4369,-972.089 L 49.0451,-972.245 L 49.6289,-972.476 L 50.1791,-972.778 L 50.6871,-973.147 L 51.1448,-973.577
 L 51.5451,-974.061 L 51.8815,-974.591 L 52.1489,-975.159 L 52.3429,-975.757 L 52.4606,-976.373 L 52.5,-977
 L 52.5,-1087 L 52.4606,-1087.63 L 52.3429,-1088.24 L 52.1489,-1088.84 L 51.8815,-1089.41 L 51.5451,-1089.94
 L 51.1448,-1090.42 L 50.6871,-1090.85 L 50.1791,-1091.22 L 49.6289,-1091.52 L 49.0451,-1091.76 L 48.4369,-1091.91
 L 47.8139,-1091.99 L -47.8139,-1091.99 L -48.4369,-1091.91 L -49.0451,-1091.76 L -49.6289,-1091.52 L -50.1791,-1091.22
 L -50.6871,-1090.85 L -51.1448,-1090.42 L -51.5451,-1089.94 L -51.8815,-1089.41 L -52.1489,-1088.84 L -52.3429,-1088.24
 L -52.4606,-1087.63 L -52.5,-1087 L -52.5,-977 L -52.4606,-976.373 L -52.3429,-975.757 L -52.1489,-975.159
 L -51.8815,-974.591 L -51.5451,-974.061 L -51.1448,-973.577 L -50.6871,-973.147 L -50.1791,-972.778 L -49.6289,-972.476
 L -49.0451,-972.245 L -48.4369,-972.089 L -47.8139,-972.01 L 47.8139,-972.01 z
M -47.2512,-973.508 L -47.7495,-973.571 L -48.2361,-973.696 L -48.7031,-973.881 L -49.1433,-974.123 L -49.5497,-974.418
 L -49.9159,-974.762 L -50.2361,-975.149 L -50.5052,-975.573 L -50.7191,-976.028 L -50.8743,-976.505 L -50.9685,-976.999
 L -51,-977.5 L -51,-1086.5 L -50.9685,-1087 L -50.8743,-1087.49 L -50.7191,-1087.97 L -50.5052,-1088.43
 L -50.2361,-1088.85 L -49.9159,-1089.24 L -49.5497,-1089.58 L -49.1433,-1089.88 L -48.7031,-1090.12 L -48.2361,-1090.3
 L -47.7495,-1090.43 L -47.2512,-1090.49 L 47.2512,-1090.49 L 47.7495,-1090.43 L 48.2361,-1090.3 L 48.7031,-1090.12
 L 49.1433,-1089.88 L 49.5497,-1089.58 L 49.9159,-1089.24 L 50.2361,-1088.85 L 50.5052,-1088.43 L 50.7191,-1087.97
 L 50.8743,-1087.49 L 50.9685,-1087 L 51,-1086.5 L 51,-977.5 L 50.9685,-976.999 L 50.8743,-976.505
 L 50.7191,-976.028 L 50.5052,-975.573 L 50.2361,-975.149 L 49.9159,-974.762 L 49.5497,-974.418 L 49.1433,-974.123
 L 48.7031,-973.881 L 48.2361,-973.696 L 47.7495,-973.571 L 47.2512,-973.508 z
M 48.4369,-843.089 L 49.0451,-843.245 L 49.6289,-843.476 L 50.1791,-843.778 L 50.6871,-844.147 L 51.1448,-844.577
 L 51.5451,-845.061 L 51.8815,-845.591 L 52.1489,-846.159 L 52.3429,-846.757 L 52.4606,-847.373 L 52.5,-848
 L 52.5,-958 L 52.4606,-958.627 L 52.3429,-959.243 L 52.1489,-959.841 L 51.8815,-960.409 L 51.5451,-960.939
 L 51.1448,-961.423 L 50.6871,-961.853 L 50.1791,-962.222 L 49.6289,-962.524 L 49.0451,-962.755 L 48.4369,-962.911
 L 47.8139,-962.99 L -47.8139,-962.99 L -48.4369,-962.911 L -49.0451,-962.755 L -49.6289,-962.524 L -50.1791,-962.222
 L -50.6871,-961.853 L -51.1448,-961.423 L -51.5451,-960.939 L -51.8815,-960.409 L -52.1489,-959.841 L -52.3429,-959.243
 L -52.4606,-958.627 L -52.5,-958 L -52.5,-848 L -52.4606,-847.373 L -52.3429,-846.757 L -52.1489,-846.159
 L -51.8815,-845.591 L -51.5451,-845.061 L -51.1448,-844.577 L -50.6871,-844.147 L -50.1791,-843.778 L -49.6289,-843.476
 L -49.0451,-843.245 L -48.4369,-843.089 L -47.8139,-843.01 L 47.8139,-843.01 z
M -47.2512,-844.508 L -47.7495,-844.571 L -48.2361,-844.696 L -48.7031,-844.881 L -49.1433,-845.123 L -49.5497,-845.418
 L -49.9159,-845.762 L -50.2361,-846.149 L -50.5052,-846.573 L -50.7191,-847.028 L -50.8743,-847.505 L -50.9685,-847.999
 L -51,-848.5 L -51,-957.5 L -50.9685,-958.001 L -50.8743,-958.495 L -50.7191,-958.972 L -50.5052,-959.427
 L -50.2361,-959.851 L -49.9159,-960.238 L -49.5497,-960.582 L -49.1433,-960.877 L -48.7031,-961.119 L -48.2361,-961.304
 L -47.7495,-961.429 L -47.2512,-961.492 L 47.2512,-961.492 L 47.7495,-961.429 L 48.2361,-961.304 L 48.7031,-961.119
 L 49.1433,-960.877 L 49.5497,-960.582 L 49.9159,-960.238 L 50.2361,-959.851 L 50.5052,-959.427 L 50.7191,-958.972
 L 50.8743,-958.495 L 50.9685,-958.001 L 51,-957.5 L 51,-848.5 L 50.9685,-847.999 L 50.8743,-847.505
 L 50.7191,-847.028 L 50.5052,-846.573 L 50.2361,-846.149 L 49.9159,-845.762 L 49.5497,-845.418 L 49.1433,-845.123
 L 48.7031,-844.881 L 48.2361,-844.696 L 47.7495,-844.571 L 47.2512,-844.508 z
M 48.4369,-714.089 L 49.0451,-714.245 L 49.6289,-714.476 L 50.1791,-714.778 L 50.6871,-715.147 L 51.1448,-715.577
 L 51.5451,-716.061 L 51.8815,-716.591 L 52.1489,-717.159 L 52.3429,-717.757 L 52.4606,-718.373 L 52.5,-719
 L 52.5,-829 L 52.4606,-829.627 L 52.3429,-830.243 L 52.1489,-830.841 L 51.8815,-831.409 L 51.5451,-831.939
 L 51.1448,-832.423 L 50.6871,-832.853 L 50.1791,-833.222 L 49.6289,-833.524 L 49.0451,-833.755 L 48.4369,-833.911
 L 47.8139,-833.99 L -47.8139,-833.99 L -48.4369,-833.911 L -49.0451,-833.755 L -49.6289,-833.524 L -50.1791,-833.222
 L -50.6871,-832.853 L -51.1448,-832.423 L -51.5451,-831.939 L -51.8815,-831.409 L -52.1489,-830.841 L -52.3429,-830.243
 L -52.4606,-829.627 L -52.5,-829 L -52.5,-719 L -52.4606,-718.373 L -52.3429,-717.757 L -52.1489,-717.159
 L -51.8815,-716.591 L -51.5451,-716.061 L -51.1448,-715.577 L -50.6871,-715.147 L -50.1791,-714.778 L -49.6289,-714.476
 L -49.0451,-714.245 L -48.4369,-714.089 L -47.8139,-714.01 L 47.8139,-714.01 z
M -47.2432,-715.635 L -47.7256,-715.696 L -48.1967,-715.817 L -48.6489,-715.996 L -49.0751,-716.23 L -49.4685,-716.516
 L -49.823,-716.849 L -50.133,-717.224 L -50.3936,-717.634 L -50.6007,-718.074 L -50.751,-718.537 L -50.8421,-719.015
 L -50.8726,-719.5 L -50.8726,-828.5 L -50.8421,-828.985 L -50.751,-829.463 L -50.6007,-829.926 L -50.3936,-830.366
 L -50.133,-830.776 L -49.823,-831.151 L -49.4685,-831.484 L -49.0751,-831.77 L -48.6489,-832.004 L -48.1967,-832.183
 L -47.7256,-832.304 L -47.2432,-832.365 L 47.2432,-832.365 L 47.7256,-832.304 L 48.1967,-832.183 L 48.6489,-832.004
 L 49.0751,-831.77 L 49.4685,-831.484 L 49.823,-831.151 L 50.133,-830.776 L 50.3936,-830.366 L 50.6007,-829.926
 L 50.751,-829.463 L 50.8421,-828.985 L 50.8726,-828.5 L 50.8726,-719.5 L 50.8421,-719.015 L 50.751,-718.537
 L 50.6007,-718.074 L 50.3936,-717.634 L 50.133,-717.224 L 49.823,-716.849 L 49.4685,-716.516 L 49.0751,-716.23
 L 48.6489,-715.996 L 48.1967,-715.817 L 47.7256,-715.696 L 47.2432,-715.635 z
M 48.4369,-585.089 L 49.0451,-585.245 L 49.6289,-585.476 L 50.1791,-585.778 L 50.6871,-586.147 L 51.1448,-586.577
 L 51.5451,-587.061 L 51.8815,-587.591 L 52.1489,-588.159 L 52.3429,-588.757 L 52.4606,-589.373 L 52.5,-590
 L 52.5,-700 L 52.4606,-700.627 L 52.3429,-701.243 L 52.1489,-701.841 L 51.8815,-702.409 L 51.5451,-702.939
 L 51.1448,-703.423 L 50.6871,-703.853 L 50.1791,-704.222 L 49.6289,-704.524 L 49.0451,-704.755 L 48.4369,-704.911
 L 47.8139,-704.99 L -47.8139,-704.99 L -48.4369,-704.911 L -49.0451,-704.755 L -49.6289,-704.524 L -50.1791,-704.222
 L -50.6871,-703.853 L -51.1448,-703.423 L -51.5451,-702.939 L -51.8815,-702.409 L -52.1489,-701.841 L -52.3429,-701.243
 L -52.4606,-700.627 L -52.5,-700 L -52.5,-590 L -52.4606,-589.373 L -52.3429,-588.757 L -52.1489,-588.159
 L -51.8815,-587.591 L -51.5451,-587.061 L -51.1448,-586.577 L -50.6871,-586.147 L -50.1791,-585.778 L -49.6289,-585.476
 L -49.0451,-585.245 L -48.4369,-585.089 L -47.8139,-585.01 L 47.8139,-585.01 z
M 44.8493,-695.105 L 44.5503,-695.143 L 44.2584,-695.217 L 43.9781,-695.328 L 43.714,-695.474 L 43.4702,-695.651
 L 43.2505,-695.857 L 43.0583,-696.089 L 42.8969,-696.344 L 42.7685,-696.617 L 42.6754,-696.903 L 42.6189,-697.199
 L 42.6,-697.5 L 42.6189,-697.801 L 42.6754,-698.097 L 42.7685,-698.383 L 42.8969,-698.656 L 43.0583,-698.911
 L 43.2505,-699.143 L 43.4702,-699.349 L 43.714,-699.526 L 43.9781,-699.672 L 44.2584,-699.783 L 44.5503,-699.857
 L 44.8493,-699.895 L 45.1507,-699.895 L 45.4497,-699.857 L 45.7416,-699.783 L 46.0219,-699.672 L 46.286,-699.526
 L 46.5298,-699.349 L 46.7495,-699.143 L 46.9416,-698.911 L 47.1031,-698.656 L 47.2315,-698.383 L 47.3246,-698.097
 L 47.3811,-697.801 L 47.4,-697.5 L 47.3811,-697.199 L 47.3246,-696.903 L 47.2315,-696.617 L 47.1031,-696.344
 L 46.9416,-696.089 L 46.7495,-695.857 L 46.5298,-695.651 L 46.286,-695.474 L 46.0219,-695.328 L 45.7416,-695.217
 L 45.4497,-695.143 L 45.1507,-695.105 z
M -45.1507,-695.105 L -45.4497,-695.143 L -45.7416,-695.217 L -46.0219,-695.328 L -46.286,-695.474 L -46.5298,-695.651
 L -46.7495,-695.857 L -46.9416,-696.089 L -47.1031,-696.344 L -47.2315,-696.617 L -47.3246,-696.903 L -47.3811,-697.199
 L -47.4,-697.5 L -47.3811,-697.801 L -47.3246,-698.097 L -47.2315,-698.383 L -47.1031,-698.656 L -46.9416,-698.911
 L -46.7495,-699.143 L -46.5298,-699.349 L -46.286,-699.526 L -46.0219,-699.672 L -45.7416,-699.783 L -45.4497,-699.857
 L -45.1507,-699.895 L -44.8493,-699.895 L -44.5503,-699.857 L -44.2584,-699.783 L -43.9781,-699.672 L -43.714,-699.526
 L -43.4702,-699.349 L -43.2505,-699.143 L -43.0583,-698.911 L -42.8969,-698.656 L -42.7685,-698.383 L -42.6754,-698.097
 L -42.6189,-697.801 L -42.6,-697.5 L -42.6189,-697.199 L -42.6754,-696.903 L -42.7685,-696.617 L -42.8969,-696.344
 L -43.0583,-696.089 L -43.2505,-695.857 L -43.4702,-695.651 L -43.714,-695.474 L -43.9781,-695.328 L -44.2584,-695.217
 L -44.5503,-695.143 L -44.8493,-695.105 z
M 44.8493,-590.105 L 44.5503,-590.143 L 44.2584,-590.217 L 43.9781,-590.328 L 43.714,-590.474 L 43.4702,-590.651
 L 43.2505,-590.857 L 43.0583,-591.089 L 42.8969,-591.344 L 42.7685,-591.617 L 42.6754,-591.903 L 42.6189,-592.199
 L 42.6,-592.5 L 42.6189,-592.801 L 42.6754,-593.097 L 42.7685,-593.383 L 42.8969,-593.656 L 43.0583,-593.911
 L 43.2505,-594.143 L 43.4702,-594.349 L 43.714,-594.526 L 43.9781,-594.672 L 44.2584,-594.783 L 44.5503,-594.857
 L 44.8493,-594.895 L 45.1507,-594.895 L 45.4497,-594.857 L 45.7416,-594.783 L 46.0219,-594.672 L 46.286,-594.526
 L 46.5298,-594.349 L 46.7495,-594.143 L 46.9416,-593.911 L 47.1031,-593.656 L 47.2315,-593.383 L 47.3246,-593.097
 L 47.3811,-592.801 L 47.4,-592.5 L 47.3811,-592.199 L 47.3246,-591.903 L 47.2315,-591.617 L 47.1031,-591.344
 L 46.9416,-591.089 L 46.7495,-590.857 L 46.5298,-590.651 L 46.286,-590.474 L 46.0219,-590.328 L 45.7416,-590.217
 L 45.4497,-590.143 L 45.1507,-590.105 z
M -45.1507,-590.105 L -45.4497,-590.143 L -45.7416,-590.217 L -46.0219,-590.328 L -46.286,-590.474 L -46.5298,-590.651
 L -46.7495,-590.857 L -46.9416,-591.089 L -47.1031,-591.344 L -47.2315,-591.617 L -47.3246,-591.903 L -47.3811,-592.199
 L -47.4,-592.5 L -47.3811,-592.801 L -47.3246,-593.097 L -47.2315,-593.383 L -47.1031,-593.656 L -46.9416,-593.911
 L -46.7495,-594.143 L -46.5298,-594.349 L -46.286,-594.526 L -46.0219,-594.672 L -45.7416,-594.783 L -45.4497,-594.857
 L -45.1507,-594.895 L -44.8493,-594.895 L -44.5503,-594.857 L -44.2584,-594.783 L -43.9781,-594.672 L -43.714,-594.526
 L -43.4702,-594.349 L -43.2505,-594.143 L -43.0583,-593.911 L -42.8969,-593.656 L -42.7685,-593.383 L -42.6754,-593.097
 L -42.6189,-592.801 L -42.6,-592.5 L -42.6189,-592.199 L -42.6754,-591.903 L -42.7685,-591.617 L -42.8969,-591.344
 L -43.0583,-591.089 L -43.2505,-590.857 L -43.4702,-590.651 L -43.714,-590.474 L -43.9781,-590.328 L -44.2584,-590.217
 L -44.5503,-590.143 L -44.8493,-590.105 z
M 48.4369,-456.089 L 49.0451,-456.245 L 49.6289,-456.476 L 50.1791,-456.778 L 50.6871,-457.147 L 51.1448,-457.577
 L 51.5451,-458.061 L 51.8815,-458.591 L 52.1489,-459.159 L 52.3429,-459.757 L 52.4606,-460.373 L 52.5,-461
 L 52.5,-571 L 52.4606,-571.627 L 52.3429,-572.243 L 52.1489,-572.841 L 51.8815,-573.409 L 51.5451,-573.939
 L 51.1448,-574.423 L 50.6871,-574.853 L 50.1791,-575.222 L 49.6289,-575.524 L 49.0451,-575.755 L 48.4369,-575.911
 L 47.8139,-575.99 L -47.8139,-575.99 L -48.4369,-575.911 L -49.0451,-575.755 L -49.6289,-575.524 L -50.1791,-575.222
 L -50.6871,-574.853 L -51.1448,-574.423 L -51.5451,-573.939 L -51.8815,-573.409 L -52.1489,-572.841 L -52.3429,-572.243
 L -52.4606,-571.627 L -52.5,-571 L -52.5,-461 L -52.4606,-460.373 L -52.3429,-459.757 L -52.1489,-459.159
 L -51.8815,-458.591 L -51.5451,-458.061 L -51.1448,-457.577 L -50.6871,-457.147 L -50.1791,-456.778 L -49.6289,-456.476
 L -49.0451,-456.245 L -48.4369,-456.089 L -47.8139,-456.01 L 47.8139,-456.01 z
M 44.887,-566.704 L 44.6627,-566.732 L 44.4438,-566.788 L 44.2336,-566.871 L 44.0355,-566.98 L 43.8526,-567.113
 L 43.6879,-567.268 L 43.5438,-567.442 L 43.4226,-567.633 L 43.3264,-567.837 L 43.2565,-568.052 L 43.2142,-568.274
 L 43.2,-568.5 L 43.2142,-568.726 L 43.2565,-568.948 L 43.3264,-569.163 L 43.4226,-569.367 L 43.5438,-569.558
 L 43.6879,-569.732 L 43.8526,-569.887 L 44.0355,-570.02 L 44.2336,-570.129 L 44.4438,-570.212 L 44.6627,-570.268
 L 44.887,-570.296 L 45.113,-570.296 L 45.3373,-570.268 L 45.5562,-570.212 L 45.7664,-570.129 L 45.9645,-570.02
 L 46.1474,-569.887 L 46.3121,-569.732 L 46.4562,-569.558 L 46.5773,-569.367 L 46.6736,-569.163 L 46.7434,-568.948
 L 46.7858,-568.726 L 46.8,-568.5 L 46.7858,-568.274 L 46.7434,-568.052 L 46.6736,-567.837 L 46.5773,-567.633
 L 46.4562,-567.442 L 46.3121,-567.268 L 46.1474,-567.113 L 45.9645,-566.98 L 45.7664,-566.871 L 45.5562,-566.788
 L 45.3373,-566.732 L 45.113,-566.704 z
M -45.113,-566.704 L -45.3373,-566.732 L -45.5562,-566.788 L -45.7664,-566.871 L -45.9645,-566.98 L -46.1474,-567.113
 L -46.3121,-567.268 L -46.4562,-567.442 L -46.5773,-567.633 L -46.6736,-567.837 L -46.7434,-568.052 L -46.7858,-568.274
 L -46.8,-568.5 L -46.7858,-568.726 L -46.7434,-568.948 L -46.6736,-569.163 L -46.5773,-569.367 L -46.4562,-569.558
 L -46.3121,-569.732 L -46.1474,-569.887 L -45.9645,-570.02 L -45.7664,-570.129 L -45.5562,-570.212 L -45.3373,-570.268
 L -45.113,-570.296 L -44.887,-570.296 L -44.6627,-570.268 L -44.4438,-570.212 L -44.2336,-570.129 L -44.0355,-570.02
 L -43.8526,-569.887 L -43.6879,-569.732 L -43.5438,-569.558 L -43.4226,-569.367 L -43.3264,-569.163 L -43.2565,-568.948
 L -43.2142,-568.726 L -43.2,-568.5 L -43.2142,-568.274 L -43.2565,-568.052 L -43.3264,-567.837 L -43.4226,-567.633
 L -43.5438,-567.442 L -43.6879,-567.268 L -43.8526,-567.113 L -44.0355,-566.98 L -44.2336,-566.871 L -44.4438,-566.788
 L -44.6627,-566.732 L -44.887,-566.704 z
M -45.113,-461.704 L -45.3373,-461.732 L -45.5562,-461.788 L -45.7664,-461.871 L -45.9645,-461.98 L -46.1474,-462.113
 L -46.3121,-462.268 L -46.4562,-462.442 L -46.5773,-462.633 L -46.6736,-462.837 L -46.7434,-463.052 L -46.7858,-463.274
 L -46.8,-463.5 L -46.7858,-463.726 L -46.7434,-463.948 L -46.6736,-464.163 L -46.5773,-464.367 L -46.4562,-464.558
 L -46.3121,-464.732 L -46.1474,-464.887 L -45.9645,-465.02 L -45.7664,-465.129 L -45.5562,-465.212 L -45.3373,-465.268
 L -45.113,-465.296 L -44.887,-465.296 L -44.6627,-465.268 L -44.4438,-465.212 L -44.2336,-465.129 L -44.0355,-465.02
 L -43.8526,-464.887 L -43.6879,-464.732 L -43.5438,-464.558 L -43.4226,-464.367 L -43.3264,-464.163 L -43.2565,-463.948
 L -43.2142,-463.726 L -43.2,-463.5 L -43.2142,-463.274 L -43.2565,-463.052 L -43.3264,-462.837 L -43.4226,-462.633
 L -43.5438,-462.442 L -43.6879,-462.268 L -43.8526,-462.113 L -44.0355,-461.98 L -44.2336,-461.871 L -44.4438,-461.788
 L -44.6627,-461.732 L -44.887,-461.704 z
M 44.887,-461.704 L 44.6627,-461.732 L 44.4438,-461.788 L 44.2336,-461.871 L 44.0355,-461.98 L 43.8526,-462.113
 L 43.6879,-462.268 L 43.5438,-462.442 L 43.4226,-462.633 L 43.3264,-462.837 L 43.2565,-463.052 L 43.2142,-463.274
 L 43.2,-463.5 L 43.2142,-463.726 L 43.2565,-463.948 L 43.3264,-464.163 L 43.4226,-464.367 L 43.5438,-464.558
 L 43.6879,-464.732 L 43.8526,-464.887 L 44.0355,-465.02 L 44.2336,-465.129 L 44.4438,-465.212 L 44.6627,-465.268
 L 44.887,-465.296 L 45.113,-465.296 L 45.3373,-465.268 L 45.5562,-465.212 L 45.7664,-465.129 L 45.9645,-465.02
 L 46.1474,-464.887 L 46.3121,-464.732 L 46.4562,-464.558 L 46.5773,-464.367 L 46.6736,-464.163 L 46.7434,-463.948
 L 46.7858,-463.726 L 46.8,-463.5 L 46.7858,-463.274 L 46.7434,-463.052 L 46.6736,-462.837 L 46.5773,-462.633
 L 46.4562,-462.442 L 46.3121,-462.268 L 46.1474,-462.113 L 45.9645,-461.98 L 45.7664,-461.871 L 45.5562,-461.788
 L 45.3373,-461.732 L 45.113,-461.704 z
" stroke="black" fill="lightgray" stroke-width="0.5"/>
</svg>
