  0
SECTION
  2
BLOCKS
  0
ENDSEC
  0
SECTION
  2
ENTITIES
  0
LINE
  8
0
 10
14.6869
 20
246.089
 11
15.2951
 21
246.245
  0
LINE
  8
0
 10
15.2951
 20
246.245
 11
15.8789
 21
246.476
  0
LINE
  8
0
 10
15.8789
 20
246.476
 11
16.4291
 21
246.778
  0
LINE
  8
0
 10
16.4291
 20
246.778
 11
16.9371
 21
247.147
  0
LINE
  8
0
 10
16.9371
 20
247.147
 11
17.3948
 21
247.577
  0
LINE
  8
0
 10
17.3948
 20
247.577
 11
17.7951
 21
248.061
  0
LINE
  8
0
 10
17.7951
 20
248.061
 11
18.1315
 21
248.591
  0
LINE
  8
0
 10
18.1315
 20
248.591
 11
18.3989
 21
249.159
  0
LINE
  8
0
 10
18.3989
 20
249.159
 11
18.5929
 21
249.757
  0
LINE
  8
0
 10
18.5929
 20
249.757
 11
18.7106
 21
250.373
  0
LINE
  8
0
 10
18.7106
 20
250.373
 11
18.75
 21
251
  0
LINE
  8
0
 10
18.75
 20
251
 11
18.75
 21
301
  0
LINE
  8
0
 10
18.75
 20
301
 11
18.7106
 21
301.627
  0
LINE
  8
0
 10
18.7106
 20
301.627
 11
18.5929
 21
302.243
  0
LINE
  8
0
 10
18.5929
 20
302.243
 11
18.3989
 21
302.841
  0
LINE
  8
0
 10
18.3989
 20
302.841
 11
18.1315
 21
303.409
  0
LINE
  8
0
 10
18.1315
 20
303.409
 11
17.7951
 21
303.939
  0
LINE
  8
0
 10
17.7951
 20
303.939
 11
17.3948
 21
304.423
  0
LINE
  8
0
 10
17.3948
 20
304.423
 11
16.9371
 21
304.853
  0
LINE
  8
0
 10
16.9371
 20
304.853
 11
16.4291
 21
305.222
  0
LINE
  8
0
 10
16.4291
 20
305.222
 11
15.8789
 21
305.524
  0
LINE
  8
0
 10
15.8789
 20
305.524
 11
15.2951
 21
305.755
  0
LINE
  8
0
 10
15.2951
 20
305.755
 11
14.6869
 21
305.911
  0
LINE
  8
0
 10
14.6869
 20
305.911
 11
14.0639
 21
305.99
  0
LINE
  8
0
 10
14.0639
 20
305.99
 11
-14.0639
 21
305.99
  0
LINE
  8
0
 10
-14.0639
 20
305.99
 11
-14.6869
 21
305.911
  0
LINE
  8
0
 10
-14.6869
 20
305.911
 11
-15.2951
 21
305.755
  0
LINE
  8
0
 10
-15.2951
 20
305.755
 11
-15.8789
 21
305.524
  0
LINE
  8
0
 10
-15.8789
 20
305.524
 11
-16.4291
 21
305.222
  0
LINE
  8
0
 10
-16.4291
 20
305.222
 11
-16.9371
 21
304.853
  0
LINE
  8
0
 10
-16.9371
 20
304.853
 11
-17.3948
 21
304.423
  0
LINE
  8
0
 10
-17.3948
 20
304.423
 11
-17.7951
 21
303.939
  0
LINE
  8
0
 10
-17.7951
 20
303.939
 11
-18.1315
 21
303.409
  0
LINE
  8
0
 10
-18.1315
 20
303.409
 11
-18.3989
 21
302.841
  0
LINE
  8
0
 10
-18.3989
 20
302.841
 11
-18.5929
 21
302.243
  0
LINE
  8
0
 10
-18.5929
 20
302.243
 11
-18.7106
 21
301.627
  0
LINE
  8
0
 10
-18.7106
 20
301.627
 11
-18.75
 21
301
  0
LINE
  8
0
 10
-18.75
 20
301
 11
-18.75
 21
251
  0
LINE
  8
0
 10
-18.75
 20
251
 11
-18.7106
 21
250.373
  0
LINE
  8
0
 10
-18.7106
 20
250.373
 11
-18.5929
 21
249.757
  0
LINE
  8
0
 10
-18.5929
 20
249.757
 11
-18.3989
 21
249.159
  0
LINE
  8
0
 10
-18.3989
 20
249.159
 11
-18.1315
 21
248.591
  0
LINE
  8
0
 10
-18.1315
 20
248.591
 11
-17.7951
 21
248.061
  0
LINE
  8
0
 10
-17.7951
 20
248.061
 11
-17.3948
 21
247.577
  0
LINE
  8
0
 10
-17.3948
 20
247.577
 11
-16.9371
 21
247.147
  0
LINE
  8
0
 10
-16.9371
 20
247.147
 11
-16.4291
 21
246.778
  0
LINE
  8
0
 10
-16.4291
 20
246.778
 11
-15.8789
 21
246.476
  0
LINE
  8
0
 10
-15.8789
 20
246.476
 11
-15.2951
 21
246.245
  0
LINE
  8
0
 10
-15.2951
 20
246.245
 11
-14.6869
 21
246.089
  0
LINE
  8
0
 10
-14.6869
 20
246.089
 11
-14.0639
 21
246.01
  0
LINE
  8
0
 10
-14.0639
 20
246.01
 11
14.0639
 21
246.01
  0
LINE
  8
0
 10
14.0639
 20
246.01
 11
14.6869
 21
246.089
  0
LINE
  8
0
 10
-13.7982
 20
246.509
 11
-14.3901
 21
246.584
  0
LINE
  8
0
 10
-14.3901
 20
246.584
 11
-14.9678
 21
246.732
  0
LINE
  8
0
 10
-14.9678
 20
246.732
 11
-15.5224
 21
246.952
  0
LINE
  8
0
 10
-15.5224
 20
246.952
 11
-16.0452
 21
247.239
  0
LINE
  8
0
 10
-16.0452
 20
247.239
 11
-16.5278
 21
247.59
  0
LINE
  8
0
 10
-16.5278
 20
247.59
 11
-16.9626
 21
247.998
  0
LINE
  8
0
 10
-16.9626
 20
247.998
 11
-17.3428
 21
248.458
  0
LINE
  8
0
 10
-17.3428
 20
248.458
 11
-17.6624
 21
248.962
  0
LINE
  8
0
 10
-17.6624
 20
248.962
 11
-17.9164
 21
249.501
  0
LINE
  8
0
 10
-17.9164
 20
249.501
 11
-18.1008
 21
250.069
  0
LINE
  8
0
 10
-18.1008
 20
250.069
 11
-18.2125
 21
250.655
  0
LINE
  8
0
 10
-18.2125
 20
250.655
 11
-18.25
 21
251.25
  0
LINE
  8
0
 10
-18.25
 20
251.25
 11
-18.25
 21
300.75
  0
LINE
  8
0
 10
-18.25
 20
300.75
 11
-18.2125
 21
301.345
  0
LINE
  8
0
 10
-18.2125
 20
301.345
 11
-18.1008
 21
301.931
  0
LINE
  8
0
 10
-18.1008
 20
301.931
 11
-17.9164
 21
302.499
  0
LINE
  8
0
 10
-17.9164
 20
302.499
 11
-17.6624
 21
303.038
  0
LINE
  8
0
 10
-17.6624
 20
303.038
 11
-17.3428
 21
303.542
  0
LINE
  8
0
 10
-17.3428
 20
303.542
 11
-16.9626
 21
304.002
  0
LINE
  8
0
 10
-16.9626
 20
304.002
 11
-16.5278
 21
304.41
  0
LINE
  8
0
 10
-16.5278
 20
304.41
 11
-16.0452
 21
304.761
  0
LINE
  8
0
 10
-16.0452
 20
304.761
 11
-15.5224
 21
305.048
  0
LINE
  8
0
 10
-15.5224
 20
305.048
 11
-14.9678
 21
305.268
  0
LINE
  8
0
 10
-14.9678
 20
305.268
 11
-14.3901
 21
305.416
  0
LINE
  8
0
 10
-14.3901
 20
305.416
 11
-13.7982
 21
305.491
  0
LINE
  8
0
 10
-13.7982
 20
305.491
 11
13.7982
 21
305.491
  0
LINE
  8
0
 10
13.7982
 20
305.491
 11
14.3901
 21
305.416
  0
LINE
  8
0
 10
14.3901
 20
305.416
 11
14.9678
 21
305.268
  0
LINE
  8
0
 10
14.9678
 20
305.268
 11
15.5224
 21
305.048
  0
LINE
  8
0
 10
15.5224
 20
305.048
 11
16.0452
 21
304.761
  0
LINE
  8
0
 10
16.0452
 20
304.761
 11
16.5278
 21
304.41
  0
LINE
  8
0
 10
16.5278
 20
304.41
 11
16.9626
 21
304.002
  0
LINE
  8
0
 10
16.9626
 20
304.002
 11
17.3428
 21
303.542
  0
LINE
  8
0
 10
17.3428
 20
303.542
 11
17.6624
 21
303.038
  0
LINE
  8
0
 10
17.6624
 20
303.038
 11
17.9164
 21
302.499
  0
LINE
  8
0
 10
17.9164
 20
302.499
 11
18.1008
 21
301.931
  0
LINE
  8
0
 10
18.1008
 20
301.931
 11
18.2125
 21
301.345
  0
LINE
  8
0
 10
18.2125
 20
301.345
 11
18.25
 21
300.75
  0
LINE
  8
0
 10
18.25
 20
300.75
 11
18.25
 21
251.25
  0
LINE
  8
0
 10
18.25
 20
251.25
 11
18.2125
 21
250.655
  0
LINE
  8
0
 10
18.2125
 20
250.655
 11
18.1008
 21
250.069
  0
LINE
  8
0
 10
18.1008
 20
250.069
 11
17.9164
 21
249.501
  0
LINE
  8
0
 10
17.9164
 20
249.501
 11
17.6624
 21
248.962
  0
LINE
  8
0
 10
17.6624
 20
248.962
 11
17.3428
 21
248.458
  0
LINE
  8
0
 10
17.3428
 20
248.458
 11
16.9626
 21
247.998
  0
LINE
  8
0
 10
16.9626
 20
247.998
 11
16.5278
 21
247.59
  0
LINE
  8
0
 10
16.5278
 20
247.59
 11
16.0452
 21
247.239
  0
LINE
  8
0
 10
16.0452
 20
247.239
 11
15.5224
 21
246.952
  0
LINE
  8
0
 10
15.5224
 20
246.952
 11
14.9678
 21
246.732
  0
LINE
  8
0
 10
14.9678
 20
246.732
 11
14.3901
 21
246.584
  0
LINE
  8
0
 10
14.3901
 20
246.584
 11
13.7982
 21
246.509
  0
LINE
  8
0
 10
13.7982
 20
246.509
 11
-13.7982
 21
246.509
  0
LINE
  8
0
 10
14.6869
 20
177.089
 11
15.2951
 21
177.245
  0
LINE
  8
0
 10
15.2951
 20
177.245
 11
15.8789
 21
177.476
  0
LINE
  8
0
 10
15.8789
 20
177.476
 11
16.4291
 21
177.778
  0
LINE
  8
0
 10
16.4291
 20
177.778
 11
16.9371
 21
178.147
  0
LINE
  8
0
 10
16.9371
 20
178.147
 11
17.3948
 21
178.577
  0
LINE
  8
0
 10
17.3948
 20
178.577
 11
17.7951
 21
179.061
  0
LINE
  8
0
 10
17.7951
 20
179.061
 11
18.1315
 21
179.591
  0
LINE
  8
0
 10
18.1315
 20
179.591
 11
18.3989
 21
180.159
  0
LINE
  8
0
 10
18.3989
 20
180.159
 11
18.5929
 21
180.757
  0
LINE
  8
0
 10
18.5929
 20
180.757
 11
18.7106
 21
181.373
  0
LINE
  8
0
 10
18.7106
 20
181.373
 11
18.75
 21
182
  0
LINE
  8
0
 10
18.75
 20
182
 11
18.75
 21
232
  0
LINE
  8
0
 10
18.75
 20
232
 11
18.7106
 21
232.627
  0
LINE
  8
0
 10
18.7106
 20
232.627
 11
18.5929
 21
233.243
  0
LINE
  8
0
 10
18.5929
 20
233.243
 11
18.3989
 21
233.841
  0
LINE
  8
0
 10
18.3989
 20
233.841
 11
18.1315
 21
234.409
  0
LINE
  8
0
 10
18.1315
 20
234.409
 11
17.7951
 21
234.939
  0
LINE
  8
0
 10
17.7951
 20
234.939
 11
17.3948
 21
235.423
  0
LINE
  8
0
 10
17.3948
 20
235.423
 11
16.9371
 21
235.853
  0
LINE
  8
0
 10
16.9371
 20
235.853
 11
16.4291
 21
236.222
  0
LINE
  8
0
 10
16.4291
 20
236.222
 11
15.8789
 21
236.524
  0
LINE
  8
0
 10
15.8789
 20
236.524
 11
15.2951
 21
236.755
  0
LINE
  8
0
 10
15.2951
 20
236.755
 11
14.6869
 21
236.911
  0
LINE
  8
0
 10
14.6869
 20
236.911
 11
14.0639
 21
236.99
  0
LINE
  8
0
 10
14.0639
 20
236.99
 11
-14.0639
 21
236.99
  0
LINE
  8
0
 10
-14.0639
 20
236.99
 11
-14.6869
 21
236.911
  0
LINE
  8
0
 10
-14.6869
 20
236.911
 11
-15.2951
 21
236.755
  0
LINE
  8
0
 10
-15.2951
 20
236.755
 11
-15.8789
 21
236.524
  0
LINE
  8
0
 10
-15.8789
 20
236.524
 11
-16.4291
 21
236.222
  0
LINE
  8
0
 10
-16.4291
 20
236.222
 11
-16.9371
 21
235.853
  0
LINE
  8
0
 10
-16.9371
 20
235.853
 11
-17.3948
 21
235.423
  0
LINE
  8
0
 10
-17.3948
 20
235.423
 11
-17.7951
 21
234.939
  0
LINE
  8
0
 10
-17.7951
 20
234.939
 11
-18.1315
 21
234.409
  0
LINE
  8
0
 10
-18.1315
 20
234.409
 11
-18.3989
 21
233.841
  0
LINE
  8
0
 10
-18.3989
 20
233.841
 11
-18.5929
 21
233.243
  0
LINE
  8
0
 10
-18.5929
 20
233.243
 11
-18.7106
 21
232.627
  0
LINE
  8
0
 10
-18.7106
 20
232.627
 11
-18.75
 21
232
  0
LINE
  8
0
 10
-18.75
 20
232
 11
-18.75
 21
182
  0
LINE
  8
0
 10
-18.75
 20
182
 11
-18.7106
 21
181.373
  0
LINE
  8
0
 10
-18.7106
 20
181.373
 11
-18.5929
 21
180.757
  0
LINE
  8
0
 10
-18.5929
 20
180.757
 11
-18.3989
 21
180.159
  0
LINE
  8
0
 10
-18.3989
 20
180.159
 11
-18.1315
 21
179.591
  0
LINE
  8
0
 10
-18.1315
 20
179.591
 11
-17.7951
 21
179.061
  0
LINE
  8
0
 10
-17.7951
 20
179.061
 11
-17.3948
 21
178.577
  0
LINE
  8
0
 10
-17.3948
 20
178.577
 11
-16.9371
 21
178.147
  0
LINE
  8
0
 10
-16.9371
 20
178.147
 11
-16.4291
 21
177.778
  0
LINE
  8
0
 10
-16.4291
 20
177.778
 11
-15.8789
 21
177.476
  0
LINE
  8
0
 10
-15.8789
 20
177.476
 11
-15.2951
 21
177.245
  0
LINE
  8
0
 10
-15.2951
 20
177.245
 11
-14.6869
 21
177.089
  0
LINE
  8
0
 10
-14.6869
 20
177.089
 11
-14.0639
 21
177.01
  0
LINE
  8
0
 10
-14.0639
 20
177.01
 11
14.0639
 21
177.01
  0
LINE
  8
0
 10
14.0639
 20
177.01
 11
14.6869
 21
177.089
  0
LINE
  8
0
 10
-13.743
 20
178.388
 11
-14.2251
 21
178.449
  0
LINE
  8
0
 10
-14.2251
 20
178.449
 11
-14.6957
 21
178.57
  0
LINE
  8
0
 10
-14.6957
 20
178.57
 11
-15.1475
 21
178.749
  0
LINE
  8
0
 10
-15.1475
 20
178.749
 11
-15.5734
 21
178.983
  0
LINE
  8
0
 10
-15.5734
 20
178.983
 11
-15.9665
 21
179.269
  0
LINE
  8
0
 10
-15.9665
 20
179.269
 11
-16.3207
 21
179.601
  0
LINE
  8
0
 10
-16.3207
 20
179.601
 11
-16.6305
 21
179.976
  0
LINE
  8
0
 10
-16.6305
 20
179.976
 11
-16.8908
 21
180.386
  0
LINE
  8
0
 10
-16.8908
 20
180.386
 11
-17.0977
 21
180.826
  0
LINE
  8
0
 10
-17.0977
 20
180.826
 11
-17.2479
 21
181.288
  0
LINE
  8
0
 10
-17.2479
 20
181.288
 11
-17.339
 21
181.765
  0
LINE
  8
0
 10
-17.339
 20
181.765
 11
-17.3695
 21
182.25
  0
LINE
  8
0
 10
-17.3695
 20
182.25
 11
-17.3695
 21
231.75
  0
LINE
  8
0
 10
-17.3695
 20
231.75
 11
-17.339
 21
232.235
  0
LINE
  8
0
 10
-17.339
 20
232.235
 11
-17.2479
 21
232.712
  0
LINE
  8
0
 10
-17.2479
 20
232.712
 11
-17.0977
 21
233.174
  0
LINE
  8
0
 10
-17.0977
 20
233.174
 11
-16.8908
 21
233.614
  0
LINE
  8
0
 10
-16.8908
 20
233.614
 11
-16.6305
 21
234.024
  0
LINE
  8
0
 10
-16.6305
 20
234.024
 11
-16.3207
 21
234.399
  0
LINE
  8
0
 10
-16.3207
 20
234.399
 11
-15.9665
 21
234.731
  0
LINE
  8
0
 10
-15.9665
 20
234.731
 11
-15.5734
 21
235.017
  0
LINE
  8
0
 10
-15.5734
 20
235.017
 11
-15.1475
 21
235.251
  0
LINE
  8
0
 10
-15.1475
 20
235.251
 11
-14.6957
 21
235.43
  0
LINE
  8
0
 10
-14.6957
 20
235.43
 11
-14.2251
 21
235.551
  0
LINE
  8
0
 10
-14.2251
 20
235.551
 11
-13.743
 21
235.612
  0
LINE
  8
0
 10
-13.743
 20
235.612
 11
13.743
 21
235.612
  0
LINE
  8
0
 10
13.743
 20
235.612
 11
14.2251
 21
235.551
  0
LINE
  8
0
 10
14.2251
 20
235.551
 11
14.6957
 21
235.43
  0
LINE
  8
0
 10
14.6957
 20
235.43
 11
15.1475
 21
235.251
  0
LINE
  8
0
 10
15.1475
 20
235.251
 11
15.5734
 21
235.017
  0
LINE
  8
0
 10
15.5734
 20
235.017
 11
15.9665
 21
234.731
  0
LINE
  8
0
 10
15.9665
 20
234.731
 11
16.3207
 21
234.399
  0
LINE
  8
0
 10
16.3207
 20
234.399
 11
16.6305
 21
234.024
  0
LINE
  8
0
 10
16.6305
 20
234.024
 11
16.8908
 21
233.614
  0
LINE
  8
0
 10
16.8908
 20
233.614
 11
17.0977
 21
233.174
  0
LINE
  8
0
 10
17.0977
 20
233.174
 11
17.2479
 21
232.712
  0
LINE
  8
0
 10
17.2479
 20
232.712
 11
17.339
 21
232.235
  0
LINE
  8
0
 10
17.339
 20
232.235
 11
17.3695
 21
231.75
  0
LINE
  8
0
 10
17.3695
 20
231.75
 11
17.3695
 21
182.25
  0
LINE
  8
0
 10
17.3695
 20
182.25
 11
17.339
 21
181.765
  0
LINE
  8
0
 10
17.339
 20
181.765
 11
17.2479
 21
181.288
  0
LINE
  8
0
 10
17.2479
 20
181.288
 11
17.0977
 21
180.826
  0
LINE
  8
0
 10
17.0977
 20
180.826
 11
16.8908
 21
180.386
  0
LINE
  8
0
 10
16.8908
 20
180.386
 11
16.6305
 21
179.976
  0
LINE
  8
0
 10
16.6305
 20
179.976
 11
16.3207
 21
179.601
  0
LINE
  8
0
 10
16.3207
 20
179.601
 11
15.9665
 21
179.269
  0
LINE
  8
0
 10
15.9665
 20
179.269
 11
15.5734
 21
178.983
  0
LINE
  8
0
 10
15.5734
 20
178.983
 11
15.1475
 21
178.749
  0
LINE
  8
0
 10
15.1475
 20
178.749
 11
14.6957
 21
178.57
  0
LINE
  8
0
 10
14.6957
 20
178.57
 11
14.2251
 21
178.449
  0
LINE
  8
0
 10
14.2251
 20
178.449
 11
13.743
 21
178.388
  0
LINE
  8
0
 10
13.743
 20
178.388
 11
-13.743
 21
178.388
  0
LINE
  8
0
 10
14.6869
 20
108.089
 11
15.2951
 21
108.245
  0
LINE
  8
0
 10
15.2951
 20
108.245
 11
15.8789
 21
108.476
  0
LINE
  8
0
 10
15.8789
 20
108.476
 11
16.4291
 21
108.778
  0
LINE
  8
0
 10
16.4291
 20
108.778
 11
16.9371
 21
109.147
  0
LINE
  8
0
 10
16.9371
 20
109.147
 11
17.3948
 21
109.577
  0
LINE
  8
0
 10
17.3948
 20
109.577
 11
17.7951
 21
110.061
  0
LINE
  8
0
 10
17.7951
 20
110.061
 11
18.1315
 21
110.591
  0
LINE
  8
0
 10
18.1315
 20
110.591
 11
18.3989
 21
111.159
  0
LINE
  8
0
 10
18.3989
 20
111.159
 11
18.5929
 21
111.757
  0
LINE
  8
0
 10
18.5929
 20
111.757
 11
18.7106
 21
112.373
  0
LINE
  8
0
 10
18.7106
 20
112.373
 11
18.75
 21
113
  0
LINE
  8
0
 10
18.75
 20
113
 11
18.75
 21
163
  0
LINE
  8
0
 10
18.75
 20
163
 11
18.7106
 21
163.627
  0
LINE
  8
0
 10
18.7106
 20
163.627
 11
18.5929
 21
164.243
  0
LINE
  8
0
 10
18.5929
 20
164.243
 11
18.3989
 21
164.841
  0
LINE
  8
0
 10
18.3989
 20
164.841
 11
18.1315
 21
165.409
  0
LINE
  8
0
 10
18.1315
 20
165.409
 11
17.7951
 21
165.939
  0
LINE
  8
0
 10
17.7951
 20
165.939
 11
17.3948
 21
166.423
  0
LINE
  8
0
 10
17.3948
 20
166.423
 11
16.9371
 21
166.853
  0
LINE
  8
0
 10
16.9371
 20
166.853
 11
16.4291
 21
167.222
  0
LINE
  8
0
 10
16.4291
 20
167.222
 11
15.8789
 21
167.524
  0
LINE
  8
0
 10
15.8789
 20
167.524
 11
15.2951
 21
167.755
  0
LINE
  8
0
 10
15.2951
 20
167.755
 11
14.6869
 21
167.911
  0
LINE
  8
0
 10
14.6869
 20
167.911
 11
14.0639
 21
167.99
  0
LINE
  8
0
 10
14.0639
 20
167.99
 11
-14.0639
 21
167.99
  0
LINE
  8
0
 10
-14.0639
 20
167.99
 11
-14.6869
 21
167.911
  0
LINE
  8
0
 10
-14.6869
 20
167.911
 11
-15.2951
 21
167.755
  0
LINE
  8
0
 10
-15.2951
 20
167.755
 11
-15.8789
 21
167.524
  0
LINE
  8
0
 10
-15.8789
 20
167.524
 11
-16.4291
 21
167.222
  0
LINE
  8
0
 10
-16.4291
 20
167.222
 11
-16.9371
 21
166.853
  0
LINE
  8
0
 10
-16.9371
 20
166.853
 11
-17.3948
 21
166.423
  0
LINE
  8
0
 10
-17.3948
 20
166.423
 11
-17.7951
 21
165.939
  0
LINE
  8
0
 10
-17.7951
 20
165.939
 11
-18.1315
 21
165.409
  0
LINE
  8
0
 10
-18.1315
 20
165.409
 11
-18.3989
 21
164.841
  0
LINE
  8
0
 10
-18.3989
 20
164.841
 11
-18.5929
 21
164.243
  0
LINE
  8
0
 10
-18.5929
 20
164.243
 11
-18.7106
 21
163.627
  0
LINE
  8
0
 10
-18.7106
 20
163.627
 11
-18.75
 21
163
  0
LINE
  8
0
 10
-18.75
 20
163
 11
-18.75
 21
113
  0
LINE
  8
0
 10
-18.75
 20
113
 11
-18.7106
 21
112.373
  0
LINE
  8
0
 10
-18.7106
 20
112.373
 11
-18.5929
 21
111.757
  0
LINE
  8
0
 10
-18.5929
 20
111.757
 11
-18.3989
 21
111.159
  0
LINE
  8
0
 10
-18.3989
 20
111.159
 11
-18.1315
 21
110.591
  0
LINE
  8
0
 10
-18.1315
 20
110.591
 11
-17.7951
 21
110.061
  0
LINE
  8
0
 10
-17.7951
 20
110.061
 11
-17.3948
 21
109.577
  0
LINE
  8
0
 10
-17.3948
 20
109.577
 11
-16.9371
 21
109.147
  0
LINE
  8
0
 10
-16.9371
 20
109.147
 11
-16.4291
 21
108.778
  0
LINE
  8
0
 10
-16.4291
 20
108.778
 11
-15.8789
 21
108.476
  0
LINE
  8
0
 10
-15.8789
 20
108.476
 11
-15.2951
 21
108.245
  0
LINE
  8
0
 10
-15.2951
 20
108.245
 11
-14.6869
 21
108.089
  0
LINE
  8
0
 10
-14.6869
 20
108.089
 11
-14.0639
 21
108.01
  0
LINE
  8
0
 10
-14.0639
 20
108.01
 11
14.0639
 21
108.01
  0
LINE
  8
0
 10
14.0639
 20
108.01
 11
14.6869
 21
108.089
  0
LINE
  8
0
 10
11.137
 20
158.704
 11
10.9127
 21
158.732
  0
LINE
  8
0
 10
10.9127
 20
158.732
 11
10.6938
 21
158.788
  0
LINE
  8
0
 10
10.6938
 20
158.788
 11
10.4836
 21
158.871
  0
LINE
  8
0
 10
10.4836
 20
158.871
 11
10.2855
 21
158.98
  0
LINE
  8
0
 10
10.2855
 20
158.98
 11
10.1026
 21
159.113
  0
LINE
  8
0
 10
10.1026
 20
159.113
 11
9.93785
 21
159.268
  0
LINE
  8
0
 10
9.93785
 20
159.268
 11
9.79376
 21
159.442
  0
LINE
  8
0
 10
9.79376
 20
159.442
 11
9.67264
 21
159.633
  0
LINE
  8
0
 10
9.67264
 20
159.633
 11
9.5764
 21
159.837
  0
LINE
  8
0
 10
9.5764
 20
159.837
 11
9.50655
 21
160.052
  0
LINE
  8
0
 10
9.50655
 20
160.052
 11
9.46419
 21
160.274
  0
LINE
  8
0
 10
9.46419
 20
160.274
 11
9.45
 21
160.5
  0
LINE
  8
0
 10
9.45
 20
160.5
 11
9.46419
 21
160.726
  0
LINE
  8
0
 10
9.46419
 20
160.726
 11
9.50655
 21
160.948
  0
LINE
  8
0
 10
9.50655
 20
160.948
 11
9.5764
 21
161.163
  0
LINE
  8
0
 10
9.5764
 20
161.163
 11
9.67264
 21
161.367
  0
LINE
  8
0
 10
9.67264
 20
161.367
 11
9.79376
 21
161.558
  0
LINE
  8
0
 10
9.79376
 20
161.558
 11
9.93785
 21
161.732
  0
LINE
  8
0
 10
9.93785
 20
161.732
 11
10.1026
 21
161.887
  0
LINE
  8
0
 10
10.1026
 20
161.887
 11
10.2855
 21
162.02
  0
LINE
  8
0
 10
10.2855
 20
162.02
 11
10.4836
 21
162.129
  0
LINE
  8
0
 10
10.4836
 20
162.129
 11
10.6938
 21
162.212
  0
LINE
  8
0
 10
10.6938
 20
162.212
 11
10.9127
 21
162.268
  0
LINE
  8
0
 10
10.9127
 20
162.268
 11
11.137
 21
162.296
  0
LINE
  8
0
 10
11.137
 20
162.296
 11
11.363
 21
162.296
  0
LINE
  8
0
 10
11.363
 20
162.296
 11
11.5873
 21
162.268
  0
LINE
  8
0
 10
11.5873
 20
162.268
 11
11.8062
 21
162.212
  0
LINE
  8
0
 10
11.8062
 20
162.212
 11
12.0164
 21
162.129
  0
LINE
  8
0
 10
12.0164
 20
162.129
 11
12.2145
 21
162.02
  0
LINE
  8
0
 10
12.2145
 20
162.02
 11
12.3974
 21
161.887
  0
LINE
  8
0
 10
12.3974
 20
161.887
 11
12.5621
 21
161.732
  0
LINE
  8
0
 10
12.5621
 20
161.732
 11
12.7062
 21
161.558
  0
LINE
  8
0
 10
12.7062
 20
161.558
 11
12.8273
 21
161.367
  0
LINE
  8
0
 10
12.8273
 20
161.367
 11
12.9236
 21
161.163
  0
LINE
  8
0
 10
12.9236
 20
161.163
 11
12.9934
 21
160.948
  0
LINE
  8
0
 10
12.9934
 20
160.948
 11
13.0358
 21
160.726
  0
LINE
  8
0
 10
13.0358
 20
160.726
 11
13.05
 21
160.5
  0
LINE
  8
0
 10
13.05
 20
160.5
 11
13.0358
 21
160.274
  0
LINE
  8
0
 10
13.0358
 20
160.274
 11
12.9934
 21
160.052
  0
LINE
  8
0
 10
12.9934
 20
160.052
 11
12.9236
 21
159.837
  0
LINE
  8
0
 10
12.9236
 20
159.837
 11
12.8273
 21
159.633
  0
LINE
  8
0
 10
12.8273
 20
159.633
 11
12.7062
 21
159.442
  0
LINE
  8
0
 10
12.7062
 20
159.442
 11
12.5621
 21
159.268
  0
LINE
  8
0
 10
12.5621
 20
159.268
 11
12.3974
 21
159.113
  0
LINE
  8
0
 10
12.3974
 20
159.113
 11
12.2145
 21
158.98
  0
LINE
  8
0
 10
12.2145
 20
158.98
 11
12.0164
 21
158.871
  0
LINE
  8
0
 10
12.0164
 20
158.871
 11
11.8062
 21
158.788
  0
LINE
  8
0
 10
11.8062
 20
158.788
 11
11.5873
 21
158.732
  0
LINE
  8
0
 10
11.5873
 20
158.732
 11
11.363
 21
158.704
  0
LINE
  8
0
 10
11.363
 20
158.704
 11
11.137
 21
158.704
  0
LINE
  8
0
 10
-11.363
 20
158.704
 11
-11.5873
 21
158.732
  0
LINE
  8
0
 10
-11.5873
 20
158.732
 11
-11.8062
 21
158.788
  0
LINE
  8
0
 10
-11.8062
 20
158.788
 11
-12.0164
 21
158.871
  0
LINE
  8
0
 10
-12.0164
 20
158.871
 11
-12.2145
 21
158.98
  0
LINE
  8
0
 10
-12.2145
 20
158.98
 11
-12.3974
 21
159.113
  0
LINE
  8
0
 10
-12.3974
 20
159.113
 11
-12.5621
 21
159.268
  0
LINE
  8
0
 10
-12.5621
 20
159.268
 11
-12.7062
 21
159.442
  0
LINE
  8
0
 10
-12.7062
 20
159.442
 11
-12.8273
 21
159.633
  0
LINE
  8
0
 10
-12.8273
 20
159.633
 11
-12.9236
 21
159.837
  0
LINE
  8
0
 10
-12.9236
 20
159.837
 11
-12.9934
 21
160.052
  0
LINE
  8
0
 10
-12.9934
 20
160.052
 11
-13.0358
 21
160.274
  0
LINE
  8
0
 10
-13.0358
 20
160.274
 11
-13.05
 21
160.5
  0
LINE
  8
0
 10
-13.05
 20
160.5
 11
-13.0358
 21
160.726
  0
LINE
  8
0
 10
-13.0358
 20
160.726
 11
-12.9934
 21
160.948
  0
LINE
  8
0
 10
-12.9934
 20
160.948
 11
-12.9236
 21
161.163
  0
LINE
  8
0
 10
-12.9236
 20
161.163
 11
-12.8273
 21
161.367
  0
LINE
  8
0
 10
-12.8273
 20
161.367
 11
-12.7062
 21
161.558
  0
LINE
  8
0
 10
-12.7062
 20
161.558
 11
-12.5621
 21
161.732
  0
LINE
  8
0
 10
-12.5621
 20
161.732
 11
-12.3974
 21
161.887
  0
LINE
  8
0
 10
-12.3974
 20
161.887
 11
-12.2145
 21
162.02
  0
LINE
  8
0
 10
-12.2145
 20
162.02
 11
-12.0164
 21
162.129
  0
LINE
  8
0
 10
-12.0164
 20
162.129
 11
-11.8062
 21
162.212
  0
LINE
  8
0
 10
-11.8062
 20
162.212
 11
-11.5873
 21
162.268
  0
LINE
  8
0
 10
-11.5873
 20
162.268
 11
-11.363
 21
162.296
  0
LINE
  8
0
 10
-11.363
 20
162.296
 11
-11.137
 21
162.296
  0
LINE
  8
0
 10
-11.137
 20
162.296
 11
-10.9127
 21
162.268
  0
LINE
  8
0
 10
-10.9127
 20
162.268
 11
-10.6938
 21
162.212
  0
LINE
  8
0
 10
-10.6938
 20
162.212
 11
-10.4836
 21
162.129
  0
LINE
  8
0
 10
-10.4836
 20
162.129
 11
-10.2855
 21
162.02
  0
LINE
  8
0
 10
-10.2855
 20
162.02
 11
-10.1026
 21
161.887
  0
LINE
  8
0
 10
-10.1026
 20
161.887
 11
-9.93785
 21
161.732
  0
LINE
  8
0
 10
-9.93785
 20
161.732
 11
-9.79376
 21
161.558
  0
LINE
  8
0
 10
-9.79376
 20
161.558
 11
-9.67264
 21
161.367
  0
LINE
  8
0
 10
-9.67264
 20
161.367
 11
-9.5764
 21
161.163
  0
LINE
  8
0
 10
-9.5764
 20
161.163
 11
-9.50655
 21
160.948
  0
LINE
  8
0
 10
-9.50655
 20
160.948
 11
-9.46419
 21
160.726
  0
LINE
  8
0
 10
-9.46419
 20
160.726
 11
-9.45
 21
160.5
  0
LINE
  8
0
 10
-9.45
 20
160.5
 11
-9.46419
 21
160.274
  0
LINE
  8
0
 10
-9.46419
 20
160.274
 11
-9.50655
 21
160.052
  0
LINE
  8
0
 10
-9.50655
 20
160.052
 11
-9.5764
 21
159.837
  0
LINE
  8
0
 10
-9.5764
 20
159.837
 11
-9.67264
 21
159.633
  0
LINE
  8
0
 10
-9.67264
 20
159.633
 11
-9.79376
 21
159.442
  0
LINE
  8
0
 10
-9.79376
 20
159.442
 11
-9.93785
 21
159.268
  0
LINE
  8
0
 10
-9.93785
 20
159.268
 11
-10.1026
 21
159.113
  0
LINE
  8
0
 10
-10.1026
 20
159.113
 11
-10.2855
 21
158.98
  0
LINE
  8
0
 10
-10.2855
 20
158.98
 11
-10.4836
 21
158.871
  0
LINE
  8
0
 10
-10.4836
 20
158.871
 11
-10.6938
 21
158.788
  0
LINE
  8
0
 10
-10.6938
 20
158.788
 11
-10.9127
 21
158.732
  0
LINE
  8
0
 10
-10.9127
 20
158.732
 11
-11.137
 21
158.704
  0
LINE
  8
0
 10
-11.137
 20
158.704
 11
-11.363
 21
158.704
  0
LINE
  8
0
 10
11.137
 20
113.704
 11
10.9127
 21
113.732
  0
LINE
  8
0
 10
10.9127
 20
113.732
 11
10.6938
 21
113.788
  0
LINE
  8
0
 10
10.6938
 20
113.788
 11
10.4836
 21
113.871
  0
LINE
  8
0
 10
10.4836
 20
113.871
 11
10.2855
 21
113.98
  0
LINE
  8
0
 10
10.2855
 20
113.98
 11
10.1026
 21
114.113
  0
LINE
  8
0
 10
10.1026
 20
114.113
 11
9.93785
 21
114.268
  0
LINE
  8
0
 10
9.93785
 20
114.268
 11
9.79376
 21
114.442
  0
LINE
  8
0
 10
9.79376
 20
114.442
 11
9.67264
 21
114.633
  0
LINE
  8
0
 10
9.67264
 20
114.633
 11
9.5764
 21
114.837
  0
LINE
  8
0
 10
9.5764
 20
114.837
 11
9.50655
 21
115.052
  0
LINE
  8
0
 10
9.50655
 20
115.052
 11
9.46419
 21
115.274
  0
LINE
  8
0
 10
9.46419
 20
115.274
 11
9.45
 21
115.5
  0
LINE
  8
0
 10
9.45
 20
115.5
 11
9.46419
 21
115.726
  0
LINE
  8
0
 10
9.46419
 20
115.726
 11
9.50655
 21
115.948
  0
LINE
  8
0
 10
9.50655
 20
115.948
 11
9.5764
 21
116.163
  0
LINE
  8
0
 10
9.5764
 20
116.163
 11
9.67264
 21
116.367
  0
LINE
  8
0
 10
9.67264
 20
116.367
 11
9.79376
 21
116.558
  0
LINE
  8
0
 10
9.79376
 20
116.558
 11
9.93785
 21
116.732
  0
LINE
  8
0
 10
9.93785
 20
116.732
 11
10.1026
 21
116.887
  0
LINE
  8
0
 10
10.1026
 20
116.887
 11
10.2855
 21
117.02
  0
LINE
  8
0
 10
10.2855
 20
117.02
 11
10.4836
 21
117.129
  0
LINE
  8
0
 10
10.4836
 20
117.129
 11
10.6938
 21
117.212
  0
LINE
  8
0
 10
10.6938
 20
117.212
 11
10.9127
 21
117.268
  0
LINE
  8
0
 10
10.9127
 20
117.268
 11
11.137
 21
117.296
  0
LINE
  8
0
 10
11.137
 20
117.296
 11
11.363
 21
117.296
  0
LINE
  8
0
 10
11.363
 20
117.296
 11
11.5873
 21
117.268
  0
LINE
  8
0
 10
11.5873
 20
117.268
 11
11.8062
 21
117.212
  0
LINE
  8
0
 10
11.8062
 20
117.212
 11
12.0164
 21
117.129
  0
LINE
  8
0
 10
12.0164
 20
117.129
 11
12.2145
 21
117.02
  0
LINE
  8
0
 10
12.2145
 20
117.02
 11
12.3974
 21
116.887
  0
LINE
  8
0
 10
12.3974
 20
116.887
 11
12.5621
 21
116.732
  0
LINE
  8
0
 10
12.5621
 20
116.732
 11
12.7062
 21
116.558
  0
LINE
  8
0
 10
12.7062
 20
116.558
 11
12.8273
 21
116.367
  0
LINE
  8
0
 10
12.8273
 20
116.367
 11
12.9236
 21
116.163
  0
LINE
  8
0
 10
12.9236
 20
116.163
 11
12.9934
 21
115.948
  0
LINE
  8
0
 10
12.9934
 20
115.948
 11
13.0358
 21
115.726
  0
LINE
  8
0
 10
13.0358
 20
115.726
 11
13.05
 21
115.5
  0
LINE
  8
0
 10
13.05
 20
115.5
 11
13.0358
 21
115.274
  0
LINE
  8
0
 10
13.0358
 20
115.274
 11
12.9934
 21
115.052
  0
LINE
  8
0
 10
12.9934
 20
115.052
 11
12.9236
 21
114.837
  0
LINE
  8
0
 10
12.9236
 20
114.837
 11
12.8273
 21
114.633
  0
LINE
  8
0
 10
12.8273
 20
114.633
 11
12.7062
 21
114.442
  0
LINE
  8
0
 10
12.7062
 20
114.442
 11
12.5621
 21
114.268
  0
LINE
  8
0
 10
12.5621
 20
114.268
 11
12.3974
 21
114.113
  0
LINE
  8
0
 10
12.3974
 20
114.113
 11
12.2145
 21
113.98
  0
LINE
  8
0
 10
12.2145
 20
113.98
 11
12.0164
 21
113.871
  0
LINE
  8
0
 10
12.0164
 20
113.871
 11
11.8062
 21
113.788
  0
LINE
  8
0
 10
11.8062
 20
113.788
 11
11.5873
 21
113.732
  0
LINE
  8
0
 10
11.5873
 20
113.732
 11
11.363
 21
113.704
  0
LINE
  8
0
 10
11.363
 20
113.704
 11
11.137
 21
113.704
  0
LINE
  8
0
 10
-11.363
 20
113.704
 11
-11.5873
 21
113.732
  0
LINE
  8
0
 10
-11.5873
 20
113.732
 11
-11.8062
 21
113.788
  0
LINE
  8
0
 10
-11.8062
 20
113.788
 11
-12.0164
 21
113.871
  0
LINE
  8
0
 10
-12.0164
 20
113.871
 11
-12.2145
 21
113.98
  0
LINE
  8
0
 10
-12.2145
 20
113.98
 11
-12.3974
 21
114.113
  0
LINE
  8
0
 10
-12.3974
 20
114.113
 11
-12.5621
 21
114.268
  0
LINE
  8
0
 10
-12.5621
 20
114.268
 11
-12.7062
 21
114.442
  0
LINE
  8
0
 10
-12.7062
 20
114.442
 11
-12.8273
 21
114.633
  0
LINE
  8
0
 10
-12.8273
 20
114.633
 11
-12.9236
 21
114.837
  0
LINE
  8
0
 10
-12.9236
 20
114.837
 11
-12.9934
 21
115.052
  0
LINE
  8
0
 10
-12.9934
 20
115.052
 11
-13.0358
 21
115.274
  0
LINE
  8
0
 10
-13.0358
 20
115.274
 11
-13.05
 21
115.5
  0
LINE
  8
0
 10
-13.05
 20
115.5
 11
-13.0358
 21
115.726
  0
LINE
  8
0
 10
-13.0358
 20
115.726
 11
-12.9934
 21
115.948
  0
LINE
  8
0
 10
-12.9934
 20
115.948
 11
-12.9236
 21
116.163
  0
LINE
  8
0
 10
-12.9236
 20
116.163
 11
-12.8273
 21
116.367
  0
LINE
  8
0
 10
-12.8273
 20
116.367
 11
-12.7062
 21
116.558
  0
LINE
  8
0
 10
-12.7062
 20
116.558
 11
-12.5621
 21
116.732
  0
LINE
  8
0
 10
-12.5621
 20
116.732
 11
-12.3974
 21
116.887
  0
LINE
  8
0
 10
-12.3974
 20
116.887
 11
-12.2145
 21
117.02
  0
LINE
  8
0
 10
-12.2145
 20
117.02
 11
-12.0164
 21
117.129
  0
LINE
  8
0
 10
-12.0164
 20
117.129
 11
-11.8062
 21
117.212
  0
LINE
  8
0
 10
-11.8062
 20
117.212
 11
-11.5873
 21
117.268
  0
LINE
  8
0
 10
-11.5873
 20
117.268
 11
-11.363
 21
117.296
  0
LINE
  8
0
 10
-11.363
 20
117.296
 11
-11.137
 21
117.296
  0
LINE
  8
0
 10
-11.137
 20
117.296
 11
-10.9127
 21
117.268
  0
LINE
  8
0
 10
-10.9127
 20
117.268
 11
-10.6938
 21
117.212
  0
LINE
  8
0
 10
-10.6938
 20
117.212
 11
-10.4836
 21
117.129
  0
LINE
  8
0
 10
-10.4836
 20
117.129
 11
-10.2855
 21
117.02
  0
LINE
  8
0
 10
-10.2855
 20
117.02
 11
-10.1026
 21
116.887
  0
LINE
  8
0
 10
-10.1026
 20
116.887
 11
-9.93785
 21
116.732
  0
LINE
  8
0
 10
-9.93785
 20
116.732
 11
-9.79376
 21
116.558
  0
LINE
  8
0
 10
-9.79376
 20
116.558
 11
-9.67264
 21
116.367
  0
LINE
  8
0
 10
-9.67264
 20
116.367
 11
-9.5764
 21
116.163
  0
LINE
  8
0
 10
-9.5764
 20
116.163
 11
-9.50655
 21
115.948
  0
LINE
  8
0
 10
-9.50655
 20
115.948
 11
-9.46419
 21
115.726
  0
LINE
  8
0
 10
-9.46419
 20
115.726
 11
-9.45
 21
115.5
  0
LINE
  8
0
 10
-9.45
 20
115.5
 11
-9.46419
 21
115.274
  0
LINE
  8
0
 10
-9.46419
 20
115.274
 11
-9.50655
 21
115.052
  0
LINE
  8
0
 10
-9.50655
 20
115.052
 11
-9.5764
 21
114.837
  0
LINE
  8
0
 10
-9.5764
 20
114.837
 11
-9.67264
 21
114.633
  0
LINE
  8
0
 10
-9.67264
 20
114.633
 11
-9.79376
 21
114.442
  0
LINE
  8
0
 10
-9.79376
 20
114.442
 11
-9.93785
 21
114.268
  0
LINE
  8
0
 10
-9.93785
 20
114.268
 11
-10.1026
 21
114.113
  0
LINE
  8
0
 10
-10.1026
 20
114.113
 11
-10.2855
 21
113.98
  0
LINE
  8
0
 10
-10.2855
 20
113.98
 11
-10.4836
 21
113.871
  0
LINE
  8
0
 10
-10.4836
 20
113.871
 11
-10.6938
 21
113.788
  0
LINE
  8
0
 10
-10.6938
 20
113.788
 11
-10.9127
 21
113.732
  0
LINE
  8
0
 10
-10.9127
 20
113.732
 11
-11.137
 21
113.704
  0
LINE
  8
0
 10
-11.137
 20
113.704
 11
-11.363
 21
113.704
  0
ENDSEC
  0
SECTION
  2
OBJECTS
  0
DICTIONARY
  0
ENDSEC
  0
EOF
