solid OpenSCAD_Model
  facet normal 0.998027 0.0627938 0
    outer loop
      vertex 10.5 0 5
      vertex 10.4172 1.316 0
      vertex 10.4172 1.316 5
    endloop
  endfacet
  facet normal 0.998027 0.0627938 0
    outer loop
      vertex 10.4172 1.316 0
      vertex 10.5 0 5
      vertex 10.5 0 0
    endloop
  endfacet
  facet normal -0.998027 0.0627938 0
    outer loop
      vertex -10.5 0 0
      vertex -10.4172 1.316 5
      vertex -10.4172 1.316 0
    endloop
  endfacet
  facet normal -0.998027 0.0627938 0
    outer loop
      vertex -10.4172 1.316 5
      vertex -10.5 0 0
      vertex -10.5 0 5
    endloop
  endfacet
  facet normal 0 1 -0
    outer loop
      vertex 0.6593 10.4793 0
      vertex -0.6593 10.4793 5
      vertex 0.6593 10.4793 5
    endloop
  endfacet
  facet normal 0 1 0
    outer loop
      vertex -0.6593 10.4793 5
      vertex 0.6593 10.4793 0
      vertex -0.6593 10.4793 0
    endloop
  endfacet
  facet normal 0 -1 0
    outer loop
      vertex -0.6593 -10.4793 0
      vertex 0.6593 -10.4793 5
      vertex -0.6593 -10.4793 5
    endloop
  endfacet
  facet normal 0 -1 -0
    outer loop
      vertex 0.6593 -10.4793 5
      vertex -0.6593 -10.4793 0
      vertex 0.6593 -10.4793 0
    endloop
  endfacet
  facet normal 0.684549 0.728967 -0
    outer loop
      vertex 7.65417 7.18774 0
      vertex 6.69295 8.09039 5
      vertex 7.65417 7.18774 5
    endloop
  endfacet
  facet normal 0.684549 0.728967 0
    outer loop
      vertex 6.69295 8.09039 5
      vertex 7.65417 7.18774 0
      vertex 6.69295 8.09039 0
    endloop
  endfacet
  facet normal -0.684549 0.728967 0
    outer loop
      vertex -6.69295 8.09039 0
      vertex -7.65417 7.18774 5
      vertex -6.69295 8.09039 5
    endloop
  endfacet
  facet normal -0.684549 0.728967 0
    outer loop
      vertex -7.65417 7.18774 5
      vertex -6.69295 8.09039 0
      vertex -7.65417 7.18774 0
    endloop
  endfacet
  facet normal -0.368126 0.929776 0
    outer loop
      vertex -3.24468 9.98609 0
      vertex -4.47068 9.50068 5
      vertex -3.24468 9.98609 5
    endloop
  endfacet
  facet normal -0.368126 0.929776 0
    outer loop
      vertex -4.47068 9.50068 5
      vertex -3.24468 9.98609 0
      vertex -4.47068 9.50068 0
    endloop
  endfacet
  facet normal 0.904827 0.425779 0
    outer loop
      vertex 9.76265 3.86531 5
      vertex 9.20122 5.05841 0
      vertex 9.20122 5.05841 5
    endloop
  endfacet
  facet normal 0.904827 0.425779 0
    outer loop
      vertex 9.20122 5.05841 0
      vertex 9.76265 3.86531 5
      vertex 9.76265 3.86531 0
    endloop
  endfacet
  facet normal 0.982284 0.187396 0
    outer loop
      vertex 10.4172 1.316 5
      vertex 10.1701 2.61124 0
      vertex 10.1701 2.61124 5
    endloop
  endfacet
  facet normal 0.982284 0.187396 0
    outer loop
      vertex 10.1701 2.61124 0
      vertex 10.4172 1.316 5
      vertex 10.4172 1.316 0
    endloop
  endfacet
  facet normal 0.368126 0.929776 -0
    outer loop
      vertex 4.47068 9.50068 0
      vertex 3.24468 9.98609 5
      vertex 4.47068 9.50068 5
    endloop
  endfacet
  facet normal 0.368126 0.929776 0
    outer loop
      vertex 3.24468 9.98609 5
      vertex 4.47068 9.50068 0
      vertex 3.24468 9.98609 0
    endloop
  endfacet
  facet normal 0.481753 0.876307 -0
    outer loop
      vertex 5.62618 8.86544 0
      vertex 4.47068 9.50068 5
      vertex 5.62618 8.86544 5
    endloop
  endfacet
  facet normal 0.481753 0.876307 0
    outer loop
      vertex 4.47068 9.50068 5
      vertex 5.62618 8.86544 0
      vertex 4.47068 9.50068 0
    endloop
  endfacet
  facet normal -0.904827 0.425779 0
    outer loop
      vertex -9.76265 3.86531 0
      vertex -9.20122 5.05841 5
      vertex -9.20122 5.05841 0
    endloop
  endfacet
  facet normal -0.904827 0.425779 0
    outer loop
      vertex -9.20122 5.05841 5
      vertex -9.76265 3.86531 0
      vertex -9.76265 3.86531 5
    endloop
  endfacet
  facet normal -0.951061 0.309002 0
    outer loop
      vertex -10.1701 2.61124 0
      vertex -9.76265 3.86531 5
      vertex -9.76265 3.86531 0
    endloop
  endfacet
  facet normal -0.951061 0.309002 0
    outer loop
      vertex -9.76265 3.86531 5
      vertex -10.1701 2.61124 0
      vertex -10.1701 2.61124 5
    endloop
  endfacet
  facet normal -0.12536 0.992111 0
    outer loop
      vertex -0.6593 10.4793 0
      vertex -1.9675 10.314 5
      vertex -0.6593 10.4793 5
    endloop
  endfacet
  facet normal -0.12536 0.992111 0
    outer loop
      vertex -1.9675 10.314 5
      vertex -0.6593 10.4793 0
      vertex -1.9675 10.314 0
    endloop
  endfacet
  facet normal 0.12536 -0.992111 0
    outer loop
      vertex 0.6593 -10.4793 0
      vertex 1.9675 -10.314 5
      vertex 0.6593 -10.4793 5
    endloop
  endfacet
  facet normal 0.12536 -0.992111 0
    outer loop
      vertex 1.9675 -10.314 5
      vertex 0.6593 -10.4793 0
      vertex 1.9675 -10.314 0
    endloop
  endfacet
  facet normal 0.951061 0.309002 0
    outer loop
      vertex 10.1701 2.61124 5
      vertex 9.76265 3.86531 0
      vertex 9.76265 3.86531 5
    endloop
  endfacet
  facet normal 0.951061 0.309002 0
    outer loop
      vertex 9.76265 3.86531 0
      vertex 10.1701 2.61124 5
      vertex 10.1701 2.61124 0
    endloop
  endfacet
  facet normal 0.770513 0.637425 0
    outer loop
      vertex 8.49468 6.17174 5
      vertex 7.65417 7.18774 0
      vertex 7.65417 7.18774 5
    endloop
  endfacet
  facet normal 0.770513 0.637425 0
    outer loop
      vertex 7.65417 7.18774 0
      vertex 8.49468 6.17174 5
      vertex 8.49468 6.17174 0
    endloop
  endfacet
  facet normal 0.844328 0.535826 0
    outer loop
      vertex 9.20122 5.05841 5
      vertex 8.49468 6.17174 0
      vertex 8.49468 6.17174 5
    endloop
  endfacet
  facet normal 0.844328 0.535826 0
    outer loop
      vertex 8.49468 6.17174 0
      vertex 9.20122 5.05841 5
      vertex 9.20122 5.05841 0
    endloop
  endfacet
  facet normal 0.24868 0.968586 -0
    outer loop
      vertex 3.24468 9.98609 0
      vertex 1.9675 10.314 5
      vertex 3.24468 9.98609 5
    endloop
  endfacet
  facet normal 0.24868 0.968586 0
    outer loop
      vertex 1.9675 10.314 5
      vertex 3.24468 9.98609 0
      vertex 1.9675 10.314 0
    endloop
  endfacet
  facet normal 0.12536 0.992111 -0
    outer loop
      vertex 1.9675 10.314 0
      vertex 0.6593 10.4793 5
      vertex 1.9675 10.314 5
    endloop
  endfacet
  facet normal 0.12536 0.992111 0
    outer loop
      vertex 0.6593 10.4793 5
      vertex 1.9675 10.314 0
      vertex 0.6593 10.4793 0
    endloop
  endfacet
  facet normal 0.587783 0.809018 -0
    outer loop
      vertex 6.69295 8.09039 0
      vertex 5.62618 8.86544 5
      vertex 6.69295 8.09039 5
    endloop
  endfacet
  facet normal 0.587783 0.809018 0
    outer loop
      vertex 5.62618 8.86544 5
      vertex 6.69295 8.09039 0
      vertex 5.62618 8.86544 0
    endloop
  endfacet
  facet normal -0.844328 0.535826 0
    outer loop
      vertex -9.20122 5.05841 0
      vertex -8.49468 6.17174 5
      vertex -8.49468 6.17174 0
    endloop
  endfacet
  facet normal -0.844328 0.535826 0
    outer loop
      vertex -8.49468 6.17174 5
      vertex -9.20122 5.05841 0
      vertex -9.20122 5.05841 5
    endloop
  endfacet
  facet normal -0.770513 0.637425 0
    outer loop
      vertex -8.49468 6.17174 0
      vertex -7.65417 7.18774 5
      vertex -7.65417 7.18774 0
    endloop
  endfacet
  facet normal -0.770513 0.637425 0
    outer loop
      vertex -7.65417 7.18774 5
      vertex -8.49468 6.17174 0
      vertex -8.49468 6.17174 5
    endloop
  endfacet
  facet normal -0.982284 0.187396 0
    outer loop
      vertex -10.4172 1.316 0
      vertex -10.1701 2.61124 5
      vertex -10.1701 2.61124 0
    endloop
  endfacet
  facet normal -0.982284 0.187396 0
    outer loop
      vertex -10.1701 2.61124 5
      vertex -10.4172 1.316 0
      vertex -10.4172 1.316 5
    endloop
  endfacet
  facet normal 0 0 1
    outer loop
      vertex 6 0 5
      vertex 10.5 0 5
      vertex 10.4172 1.316 5
    endloop
  endfacet
  facet normal 0 0 1
    outer loop
      vertex 5.95269 0.751999 5
      vertex 10.4172 1.316 5
      vertex 10.1701 2.61124 5
    endloop
  endfacet
  facet normal 0 0 1
    outer loop
      vertex 10.5 0 5
      vertex 6 0 5
      vertex 10.4172 -1.316 5
    endloop
  endfacet
  facet normal 0 0 1
    outer loop
      vertex 5.8115 1.49214 5
      vertex 10.1701 2.61124 5
      vertex 9.76265 3.86531 5
    endloop
  endfacet
  facet normal -0 0 1
    outer loop
      vertex 5.95269 -0.751999 5
      vertex 10.4172 -1.316 5
      vertex 6 0 5
    endloop
  endfacet
  facet normal 0 0 1
    outer loop
      vertex 5.57866 2.20875 5
      vertex 9.76265 3.86531 5
      vertex 9.20122 5.05841 5
    endloop
  endfacet
  facet normal 0 0 1
    outer loop
      vertex 10.4172 -1.316 5
      vertex 5.95269 -0.751999 5
      vertex 10.1701 -2.61124 5
    endloop
  endfacet
  facet normal 0 0 1
    outer loop
      vertex 5.25784 2.89052 5
      vertex 9.20122 5.05841 5
      vertex 8.49468 6.17174 5
    endloop
  endfacet
  facet normal -0 0 1
    outer loop
      vertex 5.8115 -1.49214 5
      vertex 10.1701 -2.61124 5
      vertex 5.95269 -0.751999 5
    endloop
  endfacet
  facet normal 0 0 1
    outer loop
      vertex 4.8541 3.52671 5
      vertex 8.49468 6.17174 5
      vertex 7.65417 7.18774 5
    endloop
  endfacet
  facet normal 0 0 1
    outer loop
      vertex 10.1701 -2.61124 5
      vertex 5.8115 -1.49214 5
      vertex 9.76265 -3.86531 5
    endloop
  endfacet
  facet normal 0 0 1
    outer loop
      vertex 4.37381 4.10728 5
      vertex 7.65417 7.18774 5
      vertex 6.69295 8.09039 5
    endloop
  endfacet
  facet normal -0 0 1
    outer loop
      vertex 5.57866 -2.20875 5
      vertex 9.76265 -3.86531 5
      vertex 5.8115 -1.49214 5
    endloop
  endfacet
  facet normal 0 0 1
    outer loop
      vertex 9.76265 -3.86531 5
      vertex 5.57866 -2.20875 5
      vertex 9.20122 -5.05841 5
    endloop
  endfacet
  facet normal 0 0 1
    outer loop
      vertex 10.4172 1.316 5
      vertex 5.95269 0.751999 5
      vertex 6 0 5
    endloop
  endfacet
  facet normal 0 0 1
    outer loop
      vertex 10.1701 2.61124 5
      vertex 5.8115 1.49214 5
      vertex 5.95269 0.751999 5
    endloop
  endfacet
  facet normal 0 0 1
    outer loop
      vertex 3.82454 4.62308 5
      vertex 6.69295 8.09039 5
      vertex 5.62618 8.86544 5
    endloop
  endfacet
  facet normal 0 0 1
    outer loop
      vertex 9.76265 3.86531 5
      vertex 5.57866 2.20875 5
      vertex 5.8115 1.49214 5
    endloop
  endfacet
  facet normal 0 0 1
    outer loop
      vertex 9.20122 5.05841 5
      vertex 5.25784 2.89052 5
      vertex 5.57866 2.20875 5
    endloop
  endfacet
  facet normal 0 0 1
    outer loop
      vertex 8.49468 6.17174 5
      vertex 4.8541 3.52671 5
      vertex 5.25784 2.89052 5
    endloop
  endfacet
  facet normal 0 0 1
    outer loop
      vertex 3.21496 5.06597 5
      vertex 5.62618 8.86544 5
      vertex 4.47068 9.50068 5
    endloop
  endfacet
  facet normal 0 0 1
    outer loop
      vertex 7.65417 7.18774 5
      vertex 4.37381 4.10728 5
      vertex 4.8541 3.52671 5
    endloop
  endfacet
  facet normal 0 0 1
    outer loop
      vertex 6.69295 8.09039 5
      vertex 3.82454 4.62308 5
      vertex 4.37381 4.10728 5
    endloop
  endfacet
  facet normal 0 0 1
    outer loop
      vertex 2.55468 5.42896 5
      vertex 4.47068 9.50068 5
      vertex 3.24468 9.98609 5
    endloop
  endfacet
  facet normal 0 0 1
    outer loop
      vertex 5.62618 8.86544 5
      vertex 3.21496 5.06597 5
      vertex 3.82454 4.62308 5
    endloop
  endfacet
  facet normal 0 0 1
    outer loop
      vertex 4.47068 9.50068 5
      vertex 2.55468 5.42896 5
      vertex 3.21496 5.06597 5
    endloop
  endfacet
  facet normal 0 0 1
    outer loop
      vertex 1.8541 5.70634 5
      vertex 3.24468 9.98609 5
      vertex 1.9675 10.314 5
    endloop
  endfacet
  facet normal 0 0 1
    outer loop
      vertex 3.24468 9.98609 5
      vertex 1.8541 5.70634 5
      vertex 2.55468 5.42896 5
    endloop
  endfacet
  facet normal 0 0 1
    outer loop
      vertex 1.9675 10.314 5
      vertex 1.12429 5.89372 5
      vertex 1.8541 5.70634 5
    endloop
  endfacet
  facet normal 0 0 1
    outer loop
      vertex 0.6593 10.4793 5
      vertex 1.12429 5.89372 5
      vertex 1.9675 10.314 5
    endloop
  endfacet
  facet normal 0 0 1
    outer loop
      vertex 0.6593 10.4793 5
      vertex 0.376742 5.98816 5
      vertex 1.12429 5.89372 5
    endloop
  endfacet
  facet normal 0 0 1
    outer loop
      vertex 0.6593 10.4793 5
      vertex -0.376742 5.98816 5
      vertex 0.376742 5.98816 5
    endloop
  endfacet
  facet normal -0 0 1
    outer loop
      vertex -0.6593 10.4793 5
      vertex -0.376742 5.98816 5
      vertex 0.6593 10.4793 5
    endloop
  endfacet
  facet normal 0 0 1
    outer loop
      vertex -0.6593 10.4793 5
      vertex -1.12429 5.89372 5
      vertex -0.376742 5.98816 5
    endloop
  endfacet
  facet normal -0 0 1
    outer loop
      vertex -1.9675 10.314 5
      vertex -1.12429 5.89372 5
      vertex -0.6593 10.4793 5
    endloop
  endfacet
  facet normal 0 0 1
    outer loop
      vertex -1.12429 5.89372 5
      vertex -1.9675 10.314 5
      vertex -1.8541 5.70634 5
    endloop
  endfacet
  facet normal -0 0 1
    outer loop
      vertex -3.24468 9.98609 5
      vertex -1.8541 5.70634 5
      vertex -1.9675 10.314 5
    endloop
  endfacet
  facet normal 0 0 1
    outer loop
      vertex -1.8541 5.70634 5
      vertex -3.24468 9.98609 5
      vertex -2.55468 5.42896 5
    endloop
  endfacet
  facet normal -0 0 1
    outer loop
      vertex -4.47068 9.50068 5
      vertex -2.55468 5.42896 5
      vertex -3.24468 9.98609 5
    endloop
  endfacet
  facet normal 0 0 1
    outer loop
      vertex -2.55468 5.42896 5
      vertex -4.47068 9.50068 5
      vertex -3.21496 5.06597 5
    endloop
  endfacet
  facet normal -0 0 1
    outer loop
      vertex -5.62618 8.86544 5
      vertex -3.21496 5.06597 5
      vertex -4.47068 9.50068 5
    endloop
  endfacet
  facet normal 0 0 1
    outer loop
      vertex -3.21496 5.06597 5
      vertex -5.62618 8.86544 5
      vertex -3.82454 4.62308 5
    endloop
  endfacet
  facet normal -0 0 1
    outer loop
      vertex -6.69295 8.09039 5
      vertex -3.82454 4.62308 5
      vertex -5.62618 8.86544 5
    endloop
  endfacet
  facet normal 0 0 1
    outer loop
      vertex -3.82454 4.62308 5
      vertex -6.69295 8.09039 5
      vertex -4.37381 4.10728 5
    endloop
  endfacet
  facet normal -0 0 1
    outer loop
      vertex -7.65417 7.18774 5
      vertex -4.37381 4.10728 5
      vertex -6.69295 8.09039 5
    endloop
  endfacet
  facet normal 0 0 1
    outer loop
      vertex -4.37381 4.10728 5
      vertex -7.65417 7.18774 5
      vertex -4.8541 3.52671 5
    endloop
  endfacet
  facet normal -0 0 1
    outer loop
      vertex -8.49468 6.17174 5
      vertex -4.8541 3.52671 5
      vertex -7.65417 7.18774 5
    endloop
  endfacet
  facet normal 0 0 1
    outer loop
      vertex -4.8541 3.52671 5
      vertex -8.49468 6.17174 5
      vertex -5.25784 2.89052 5
    endloop
  endfacet
  facet normal -0 0 1
    outer loop
      vertex -9.20122 5.05841 5
      vertex -5.25784 2.89052 5
      vertex -8.49468 6.17174 5
    endloop
  endfacet
  facet normal 0 0 1
    outer loop
      vertex -5.25784 2.89052 5
      vertex -9.20122 5.05841 5
      vertex -5.57866 2.20875 5
    endloop
  endfacet
  facet normal -0 0 1
    outer loop
      vertex 5.25784 -2.89052 5
      vertex 9.20122 -5.05841 5
      vertex 5.57866 -2.20875 5
    endloop
  endfacet
  facet normal 0 0 1
    outer loop
      vertex 9.20122 -5.05841 5
      vertex 5.25784 -2.89052 5
      vertex 8.49468 -6.17174 5
    endloop
  endfacet
  facet normal -0 0 1
    outer loop
      vertex 4.8541 -3.52671 5
      vertex 8.49468 -6.17174 5
      vertex 5.25784 -2.89052 5
    endloop
  endfacet
  facet normal 0 0 1
    outer loop
      vertex 8.49468 -6.17174 5
      vertex 4.8541 -3.52671 5
      vertex 7.65417 -7.18774 5
    endloop
  endfacet
  facet normal -0 0 1
    outer loop
      vertex 4.37381 -4.10728 5
      vertex 7.65417 -7.18774 5
      vertex 4.8541 -3.52671 5
    endloop
  endfacet
  facet normal 0 0 1
    outer loop
      vertex 7.65417 -7.18774 5
      vertex 4.37381 -4.10728 5
      vertex 6.69295 -8.09039 5
    endloop
  endfacet
  facet normal -0 0 1
    outer loop
      vertex 3.82454 -4.62308 5
      vertex 6.69295 -8.09039 5
      vertex 4.37381 -4.10728 5
    endloop
  endfacet
  facet normal 0 0 1
    outer loop
      vertex 6.69295 -8.09039 5
      vertex 3.82454 -4.62308 5
      vertex 5.62618 -8.86544 5
    endloop
  endfacet
  facet normal -0 0 1
    outer loop
      vertex 3.21496 -5.06597 5
      vertex 5.62618 -8.86544 5
      vertex 3.82454 -4.62308 5
    endloop
  endfacet
  facet normal 0 0 1
    outer loop
      vertex 5.62618 -8.86544 5
      vertex 3.21496 -5.06597 5
      vertex 4.47068 -9.50068 5
    endloop
  endfacet
  facet normal -0 0 1
    outer loop
      vertex 2.55468 -5.42896 5
      vertex 4.47068 -9.50068 5
      vertex 3.21496 -5.06597 5
    endloop
  endfacet
  facet normal 0 0 1
    outer loop
      vertex 4.47068 -9.50068 5
      vertex 2.55468 -5.42896 5
      vertex 3.24468 -9.98609 5
    endloop
  endfacet
  facet normal -0 0 1
    outer loop
      vertex 1.8541 -5.70634 5
      vertex 3.24468 -9.98609 5
      vertex 2.55468 -5.42896 5
    endloop
  endfacet
  facet normal 0 0 1
    outer loop
      vertex 3.24468 -9.98609 5
      vertex 1.8541 -5.70634 5
      vertex 1.9675 -10.314 5
    endloop
  endfacet
  facet normal -0 0 1
    outer loop
      vertex 1.12429 -5.89372 5
      vertex 1.9675 -10.314 5
      vertex 1.8541 -5.70634 5
    endloop
  endfacet
  facet normal 0 0 1
    outer loop
      vertex 1.12429 -5.89372 5
      vertex 0.6593 -10.4793 5
      vertex 1.9675 -10.314 5
    endloop
  endfacet
  facet normal -0 0 1
    outer loop
      vertex 0.376742 -5.98816 5
      vertex 0.6593 -10.4793 5
      vertex 1.12429 -5.89372 5
    endloop
  endfacet
  facet normal -0 0 1
    outer loop
      vertex -0.376742 -5.98816 5
      vertex 0.6593 -10.4793 5
      vertex 0.376742 -5.98816 5
    endloop
  endfacet
  facet normal 0 0 1
    outer loop
      vertex -0.376742 -5.98816 5
      vertex -0.6593 -10.4793 5
      vertex 0.6593 -10.4793 5
    endloop
  endfacet
  facet normal 0 0 1
    outer loop
      vertex -1.12429 -5.89372 5
      vertex -0.6593 -10.4793 5
      vertex -0.376742 -5.98816 5
    endloop
  endfacet
  facet normal 0 0 1
    outer loop
      vertex -1.9675 -10.314 5
      vertex -1.12429 -5.89372 5
      vertex -1.8541 -5.70634 5
    endloop
  endfacet
  facet normal 0 0 1
    outer loop
      vertex -1.12429 -5.89372 5
      vertex -1.9675 -10.314 5
      vertex -0.6593 -10.4793 5
    endloop
  endfacet
  facet normal 0 0 1
    outer loop
      vertex -3.24468 -9.98609 5
      vertex -1.8541 -5.70634 5
      vertex -2.55468 -5.42896 5
    endloop
  endfacet
  facet normal 0 0 1
    outer loop
      vertex -4.47068 -9.50068 5
      vertex -2.55468 -5.42896 5
      vertex -3.21496 -5.06597 5
    endloop
  endfacet
  facet normal 0 0 1
    outer loop
      vertex -1.8541 -5.70634 5
      vertex -3.24468 -9.98609 5
      vertex -1.9675 -10.314 5
    endloop
  endfacet
  facet normal 0 0 1
    outer loop
      vertex -5.62618 -8.86544 5
      vertex -3.21496 -5.06597 5
      vertex -3.82454 -4.62308 5
    endloop
  endfacet
  facet normal 0 0 1
    outer loop
      vertex -6.69295 -8.09039 5
      vertex -3.82454 -4.62308 5
      vertex -4.37381 -4.10728 5
    endloop
  endfacet
  facet normal 0 0 1
    outer loop
      vertex -2.55468 -5.42896 5
      vertex -4.47068 -9.50068 5
      vertex -3.24468 -9.98609 5
    endloop
  endfacet
  facet normal 0 0 1
    outer loop
      vertex -7.65417 -7.18774 5
      vertex -4.37381 -4.10728 5
      vertex -4.8541 -3.52671 5
    endloop
  endfacet
  facet normal 0 0 1
    outer loop
      vertex -8.49468 -6.17174 5
      vertex -4.8541 -3.52671 5
      vertex -5.25784 -2.89052 5
    endloop
  endfacet
  facet normal 0 0 1
    outer loop
      vertex -9.20122 -5.05841 5
      vertex -5.25784 -2.89052 5
      vertex -5.57866 -2.20875 5
    endloop
  endfacet
  facet normal 0 0 1
    outer loop
      vertex -3.21496 -5.06597 5
      vertex -5.62618 -8.86544 5
      vertex -4.47068 -9.50068 5
    endloop
  endfacet
  facet normal 0 0 1
    outer loop
      vertex -9.76265 -3.86531 5
      vertex -5.57866 -2.20875 5
      vertex -5.8115 -1.49214 5
    endloop
  endfacet
  facet normal 0 0 1
    outer loop
      vertex -10.1701 -2.61124 5
      vertex -5.8115 -1.49214 5
      vertex -5.95269 -0.751999 5
    endloop
  endfacet
  facet normal 0 0 1
    outer loop
      vertex -10.4172 -1.316 5
      vertex -5.95269 -0.751999 5
      vertex -6 0 5
    endloop
  endfacet
  facet normal -0 0 1
    outer loop
      vertex -9.76265 3.86531 5
      vertex -5.57866 2.20875 5
      vertex -9.20122 5.05841 5
    endloop
  endfacet
  facet normal 0 0 1
    outer loop
      vertex -3.82454 -4.62308 5
      vertex -6.69295 -8.09039 5
      vertex -5.62618 -8.86544 5
    endloop
  endfacet
  facet normal 0 0 1
    outer loop
      vertex -5.57866 2.20875 5
      vertex -9.76265 3.86531 5
      vertex -5.8115 1.49214 5
    endloop
  endfacet
  facet normal 0 0 1
    outer loop
      vertex -4.37381 -4.10728 5
      vertex -7.65417 -7.18774 5
      vertex -6.69295 -8.09039 5
    endloop
  endfacet
  facet normal -0 0 1
    outer loop
      vertex -10.1701 2.61124 5
      vertex -5.8115 1.49214 5
      vertex -9.76265 3.86531 5
    endloop
  endfacet
  facet normal 0 0 1
    outer loop
      vertex -4.8541 -3.52671 5
      vertex -8.49468 -6.17174 5
      vertex -7.65417 -7.18774 5
    endloop
  endfacet
  facet normal 0 0 1
    outer loop
      vertex -5.8115 1.49214 5
      vertex -10.1701 2.61124 5
      vertex -5.95269 0.751999 5
    endloop
  endfacet
  facet normal 0 0 1
    outer loop
      vertex -5.25784 -2.89052 5
      vertex -9.20122 -5.05841 5
      vertex -8.49468 -6.17174 5
    endloop
  endfacet
  facet normal -0 0 1
    outer loop
      vertex -10.4172 1.316 5
      vertex -5.95269 0.751999 5
      vertex -10.1701 2.61124 5
    endloop
  endfacet
  facet normal 0 0 1
    outer loop
      vertex -5.57866 -2.20875 5
      vertex -9.76265 -3.86531 5
      vertex -9.20122 -5.05841 5
    endloop
  endfacet
  facet normal 0 0 1
    outer loop
      vertex -5.95269 0.751999 5
      vertex -10.4172 1.316 5
      vertex -6 0 5
    endloop
  endfacet
  facet normal 0 0 1
    outer loop
      vertex -5.8115 -1.49214 5
      vertex -10.1701 -2.61124 5
      vertex -9.76265 -3.86531 5
    endloop
  endfacet
  facet normal 0 0 1
    outer loop
      vertex -10.5 0 5
      vertex -6 0 5
      vertex -10.4172 1.316 5
    endloop
  endfacet
  facet normal 0 0 1
    outer loop
      vertex -5.95269 -0.751999 5
      vertex -10.4172 -1.316 5
      vertex -10.1701 -2.61124 5
    endloop
  endfacet
  facet normal 0 0 1
    outer loop
      vertex -6 0 5
      vertex -10.5 0 5
      vertex -10.4172 -1.316 5
    endloop
  endfacet
  facet normal -0.481753 0.876307 0
    outer loop
      vertex -4.47068 9.50068 0
      vertex -5.62618 8.86544 5
      vertex -4.47068 9.50068 5
    endloop
  endfacet
  facet normal -0.481753 0.876307 0
    outer loop
      vertex -5.62618 8.86544 5
      vertex -4.47068 9.50068 0
      vertex -5.62618 8.86544 0
    endloop
  endfacet
  facet normal -0.587783 0.809018 0
    outer loop
      vertex -5.62618 8.86544 0
      vertex -6.69295 8.09039 5
      vertex -5.62618 8.86544 5
    endloop
  endfacet
  facet normal -0.587783 0.809018 0
    outer loop
      vertex -6.69295 8.09039 5
      vertex -5.62618 8.86544 0
      vertex -6.69295 8.09039 0
    endloop
  endfacet
  facet normal -0.24868 0.968586 0
    outer loop
      vertex -1.9675 10.314 0
      vertex -3.24468 9.98609 5
      vertex -1.9675 10.314 5
    endloop
  endfacet
  facet normal -0.24868 0.968586 0
    outer loop
      vertex -3.24468 9.98609 5
      vertex -1.9675 10.314 0
      vertex -3.24468 9.98609 0
    endloop
  endfacet
  facet normal 0.998027 -0.0627938 0
    outer loop
      vertex 10.4172 -1.316 5
      vertex 10.5 0 0
      vertex 10.5 0 5
    endloop
  endfacet
  facet normal 0.998027 -0.0627938 0
    outer loop
      vertex 10.5 0 0
      vertex 10.4172 -1.316 5
      vertex 10.4172 -1.316 0
    endloop
  endfacet
  facet normal 0.982284 -0.187396 0
    outer loop
      vertex 10.1701 -2.61124 5
      vertex 10.4172 -1.316 0
      vertex 10.4172 -1.316 5
    endloop
  endfacet
  facet normal 0.982284 -0.187396 0
    outer loop
      vertex 10.4172 -1.316 0
      vertex 10.1701 -2.61124 5
      vertex 10.1701 -2.61124 0
    endloop
  endfacet
  facet normal -0.684549 -0.728967 0
    outer loop
      vertex -7.65417 -7.18774 0
      vertex -6.69295 -8.09039 5
      vertex -7.65417 -7.18774 5
    endloop
  endfacet
  facet normal -0.684549 -0.728967 -0
    outer loop
      vertex -6.69295 -8.09039 5
      vertex -7.65417 -7.18774 0
      vertex -6.69295 -8.09039 0
    endloop
  endfacet
  facet normal -0.904827 -0.425779 0
    outer loop
      vertex -9.20122 -5.05841 0
      vertex -9.76265 -3.86531 5
      vertex -9.76265 -3.86531 0
    endloop
  endfacet
  facet normal -0.904827 -0.425779 0
    outer loop
      vertex -9.76265 -3.86531 5
      vertex -9.20122 -5.05841 0
      vertex -9.20122 -5.05841 5
    endloop
  endfacet
  facet normal -0.844328 -0.535826 0
    outer loop
      vertex -8.49468 -6.17174 0
      vertex -9.20122 -5.05841 5
      vertex -9.20122 -5.05841 0
    endloop
  endfacet
  facet normal -0.844328 -0.535826 0
    outer loop
      vertex -9.20122 -5.05841 5
      vertex -8.49468 -6.17174 0
      vertex -8.49468 -6.17174 5
    endloop
  endfacet
  facet normal 0 0 -1
    outer loop
      vertex 6 0 0
      vertex 10.5 0 0
      vertex 10.4172 -1.316 0
    endloop
  endfacet
  facet normal 0 0 -1
    outer loop
      vertex 5.95269 -0.751999 0
      vertex 10.4172 -1.316 0
      vertex 10.1701 -2.61124 0
    endloop
  endfacet
  facet normal 0 0 -1
    outer loop
      vertex 10.5 0 0
      vertex 6 0 0
      vertex 10.4172 1.316 0
    endloop
  endfacet
  facet normal 0 0 -1
    outer loop
      vertex 5.8115 -1.49214 0
      vertex 10.1701 -2.61124 0
      vertex 9.76265 -3.86531 0
    endloop
  endfacet
  facet normal 0 0 -1
    outer loop
      vertex 5.95269 0.751999 0
      vertex 10.4172 1.316 0
      vertex 6 0 0
    endloop
  endfacet
  facet normal 0 0 -1
    outer loop
      vertex 5.57866 -2.20875 0
      vertex 9.76265 -3.86531 0
      vertex 9.20122 -5.05841 0
    endloop
  endfacet
  facet normal -0 0 -1
    outer loop
      vertex 10.4172 1.316 0
      vertex 5.95269 0.751999 0
      vertex 10.1701 2.61124 0
    endloop
  endfacet
  facet normal 0 0 -1
    outer loop
      vertex 5.25784 -2.89052 0
      vertex 9.20122 -5.05841 0
      vertex 8.49468 -6.17174 0
    endloop
  endfacet
  facet normal 0 0 -1
    outer loop
      vertex 5.8115 1.49214 0
      vertex 10.1701 2.61124 0
      vertex 5.95269 0.751999 0
    endloop
  endfacet
  facet normal 0 0 -1
    outer loop
      vertex 4.8541 -3.52671 0
      vertex 8.49468 -6.17174 0
      vertex 7.65417 -7.18774 0
    endloop
  endfacet
  facet normal -0 0 -1
    outer loop
      vertex 10.1701 2.61124 0
      vertex 5.8115 1.49214 0
      vertex 9.76265 3.86531 0
    endloop
  endfacet
  facet normal 0 0 -1
    outer loop
      vertex 4.37381 -4.10728 0
      vertex 7.65417 -7.18774 0
      vertex 6.69295 -8.09039 0
    endloop
  endfacet
  facet normal 0 0 -1
    outer loop
      vertex 5.57866 2.20875 0
      vertex 9.76265 3.86531 0
      vertex 5.8115 1.49214 0
    endloop
  endfacet
  facet normal -0 0 -1
    outer loop
      vertex 9.76265 3.86531 0
      vertex 5.57866 2.20875 0
      vertex 9.20122 5.05841 0
    endloop
  endfacet
  facet normal 0 0 -1
    outer loop
      vertex 10.4172 -1.316 0
      vertex 5.95269 -0.751999 0
      vertex 6 0 0
    endloop
  endfacet
  facet normal 0 0 -1
    outer loop
      vertex 10.1701 -2.61124 0
      vertex 5.8115 -1.49214 0
      vertex 5.95269 -0.751999 0
    endloop
  endfacet
  facet normal 0 0 -1
    outer loop
      vertex 3.82454 -4.62308 0
      vertex 6.69295 -8.09039 0
      vertex 5.62618 -8.86544 0
    endloop
  endfacet
  facet normal 0 0 -1
    outer loop
      vertex 9.76265 -3.86531 0
      vertex 5.57866 -2.20875 0
      vertex 5.8115 -1.49214 0
    endloop
  endfacet
  facet normal 0 0 -1
    outer loop
      vertex 9.20122 -5.05841 0
      vertex 5.25784 -2.89052 0
      vertex 5.57866 -2.20875 0
    endloop
  endfacet
  facet normal 0 0 -1
    outer loop
      vertex 8.49468 -6.17174 0
      vertex 4.8541 -3.52671 0
      vertex 5.25784 -2.89052 0
    endloop
  endfacet
  facet normal 0 0 -1
    outer loop
      vertex 3.21496 -5.06597 0
      vertex 5.62618 -8.86544 0
      vertex 4.47068 -9.50068 0
    endloop
  endfacet
  facet normal 0 0 -1
    outer loop
      vertex 7.65417 -7.18774 0
      vertex 4.37381 -4.10728 0
      vertex 4.8541 -3.52671 0
    endloop
  endfacet
  facet normal 0 0 -1
    outer loop
      vertex 6.69295 -8.09039 0
      vertex 3.82454 -4.62308 0
      vertex 4.37381 -4.10728 0
    endloop
  endfacet
  facet normal 0 0 -1
    outer loop
      vertex 2.55468 -5.42896 0
      vertex 4.47068 -9.50068 0
      vertex 3.24468 -9.98609 0
    endloop
  endfacet
  facet normal 0 0 -1
    outer loop
      vertex 5.62618 -8.86544 0
      vertex 3.21496 -5.06597 0
      vertex 3.82454 -4.62308 0
    endloop
  endfacet
  facet normal 0 0 -1
    outer loop
      vertex 4.47068 -9.50068 0
      vertex 2.55468 -5.42896 0
      vertex 3.21496 -5.06597 0
    endloop
  endfacet
  facet normal 0 0 -1
    outer loop
      vertex 1.8541 -5.70634 0
      vertex 3.24468 -9.98609 0
      vertex 1.9675 -10.314 0
    endloop
  endfacet
  facet normal 0 0 -1
    outer loop
      vertex 3.24468 -9.98609 0
      vertex 1.8541 -5.70634 0
      vertex 2.55468 -5.42896 0
    endloop
  endfacet
  facet normal 0 0 -1
    outer loop
      vertex 1.9675 -10.314 0
      vertex 1.12429 -5.89372 0
      vertex 1.8541 -5.70634 0
    endloop
  endfacet
  facet normal 0 0 -1
    outer loop
      vertex 0.6593 -10.4793 0
      vertex 1.12429 -5.89372 0
      vertex 1.9675 -10.314 0
    endloop
  endfacet
  facet normal 0 0 -1
    outer loop
      vertex 0.6593 -10.4793 0
      vertex 0.376742 -5.98816 0
      vertex 1.12429 -5.89372 0
    endloop
  endfacet
  facet normal 0 0 -1
    outer loop
      vertex 0.6593 -10.4793 0
      vertex -0.376742 -5.98816 0
      vertex 0.376742 -5.98816 0
    endloop
  endfacet
  facet normal 0 0 -1
    outer loop
      vertex -0.6593 -10.4793 0
      vertex -0.376742 -5.98816 0
      vertex 0.6593 -10.4793 0
    endloop
  endfacet
  facet normal 0 0 -1
    outer loop
      vertex -0.6593 -10.4793 0
      vertex -1.12429 -5.89372 0
      vertex -0.376742 -5.98816 0
    endloop
  endfacet
  facet normal 0 0 -1
    outer loop
      vertex -1.9675 -10.314 0
      vertex -1.12429 -5.89372 0
      vertex -0.6593 -10.4793 0
    endloop
  endfacet
  facet normal -0 0 -1
    outer loop
      vertex -1.12429 -5.89372 0
      vertex -1.9675 -10.314 0
      vertex -1.8541 -5.70634 0
    endloop
  endfacet
  facet normal 0 0 -1
    outer loop
      vertex -3.24468 -9.98609 0
      vertex -1.8541 -5.70634 0
      vertex -1.9675 -10.314 0
    endloop
  endfacet
  facet normal -0 0 -1
    outer loop
      vertex -1.8541 -5.70634 0
      vertex -3.24468 -9.98609 0
      vertex -2.55468 -5.42896 0
    endloop
  endfacet
  facet normal 0 0 -1
    outer loop
      vertex -4.47068 -9.50068 0
      vertex -2.55468 -5.42896 0
      vertex -3.24468 -9.98609 0
    endloop
  endfacet
  facet normal -0 0 -1
    outer loop
      vertex -2.55468 -5.42896 0
      vertex -4.47068 -9.50068 0
      vertex -3.21496 -5.06597 0
    endloop
  endfacet
  facet normal 0 0 -1
    outer loop
      vertex -5.62618 -8.86544 0
      vertex -3.21496 -5.06597 0
      vertex -4.47068 -9.50068 0
    endloop
  endfacet
  facet normal -0 0 -1
    outer loop
      vertex -3.21496 -5.06597 0
      vertex -5.62618 -8.86544 0
      vertex -3.82454 -4.62308 0
    endloop
  endfacet
  facet normal 0 0 -1
    outer loop
      vertex -6.69295 -8.09039 0
      vertex -3.82454 -4.62308 0
      vertex -5.62618 -8.86544 0
    endloop
  endfacet
  facet normal -0 0 -1
    outer loop
      vertex -3.82454 -4.62308 0
      vertex -6.69295 -8.09039 0
      vertex -4.37381 -4.10728 0
    endloop
  endfacet
  facet normal 0 0 -1
    outer loop
      vertex -7.65417 -7.18774 0
      vertex -4.37381 -4.10728 0
      vertex -6.69295 -8.09039 0
    endloop
  endfacet
  facet normal -0 0 -1
    outer loop
      vertex -4.37381 -4.10728 0
      vertex -7.65417 -7.18774 0
      vertex -4.8541 -3.52671 0
    endloop
  endfacet
  facet normal 0 0 -1
    outer loop
      vertex -8.49468 -6.17174 0
      vertex -4.8541 -3.52671 0
      vertex -7.65417 -7.18774 0
    endloop
  endfacet
  facet normal -0 0 -1
    outer loop
      vertex -4.8541 -3.52671 0
      vertex -8.49468 -6.17174 0
      vertex -5.25784 -2.89052 0
    endloop
  endfacet
  facet normal 0 0 -1
    outer loop
      vertex -9.20122 -5.05841 0
      vertex -5.25784 -2.89052 0
      vertex -8.49468 -6.17174 0
    endloop
  endfacet
  facet normal -0 0 -1
    outer loop
      vertex -5.25784 -2.89052 0
      vertex -9.20122 -5.05841 0
      vertex -5.57866 -2.20875 0
    endloop
  endfacet
  facet normal 0 0 -1
    outer loop
      vertex 5.25784 2.89052 0
      vertex 9.20122 5.05841 0
      vertex 5.57866 2.20875 0
    endloop
  endfacet
  facet normal -0 0 -1
    outer loop
      vertex 9.20122 5.05841 0
      vertex 5.25784 2.89052 0
      vertex 8.49468 6.17174 0
    endloop
  endfacet
  facet normal 0 0 -1
    outer loop
      vertex 4.8541 3.52671 0
      vertex 8.49468 6.17174 0
      vertex 5.25784 2.89052 0
    endloop
  endfacet
  facet normal -0 0 -1
    outer loop
      vertex 8.49468 6.17174 0
      vertex 4.8541 3.52671 0
      vertex 7.65417 7.18774 0
    endloop
  endfacet
  facet normal 0 0 -1
    outer loop
      vertex 4.37381 4.10728 0
      vertex 7.65417 7.18774 0
      vertex 4.8541 3.52671 0
    endloop
  endfacet
  facet normal -0 0 -1
    outer loop
      vertex 7.65417 7.18774 0
      vertex 4.37381 4.10728 0
      vertex 6.69295 8.09039 0
    endloop
  endfacet
  facet normal 0 0 -1
    outer loop
      vertex 3.82454 4.62308 0
      vertex 6.69295 8.09039 0
      vertex 4.37381 4.10728 0
    endloop
  endfacet
  facet normal -0 0 -1
    outer loop
      vertex 6.69295 8.09039 0
      vertex 3.82454 4.62308 0
      vertex 5.62618 8.86544 0
    endloop
  endfacet
  facet normal 0 0 -1
    outer loop
      vertex 3.21496 5.06597 0
      vertex 5.62618 8.86544 0
      vertex 3.82454 4.62308 0
    endloop
  endfacet
  facet normal -0 0 -1
    outer loop
      vertex 5.62618 8.86544 0
      vertex 3.21496 5.06597 0
      vertex 4.47068 9.50068 0
    endloop
  endfacet
  facet normal 0 0 -1
    outer loop
      vertex 2.55468 5.42896 0
      vertex 4.47068 9.50068 0
      vertex 3.21496 5.06597 0
    endloop
  endfacet
  facet normal -0 0 -1
    outer loop
      vertex 4.47068 9.50068 0
      vertex 2.55468 5.42896 0
      vertex 3.24468 9.98609 0
    endloop
  endfacet
  facet normal 0 0 -1
    outer loop
      vertex 1.8541 5.70634 0
      vertex 3.24468 9.98609 0
      vertex 2.55468 5.42896 0
    endloop
  endfacet
  facet normal -0 0 -1
    outer loop
      vertex 3.24468 9.98609 0
      vertex 1.8541 5.70634 0
      vertex 1.9675 10.314 0
    endloop
  endfacet
  facet normal 0 0 -1
    outer loop
      vertex 1.12429 5.89372 0
      vertex 1.9675 10.314 0
      vertex 1.8541 5.70634 0
    endloop
  endfacet
  facet normal 0 0 -1
    outer loop
      vertex 1.12429 5.89372 0
      vertex 0.6593 10.4793 0
      vertex 1.9675 10.314 0
    endloop
  endfacet
  facet normal 0 0 -1
    outer loop
      vertex 0.376742 5.98816 0
      vertex 0.6593 10.4793 0
      vertex 1.12429 5.89372 0
    endloop
  endfacet
  facet normal 0 0 -1
    outer loop
      vertex -0.376742 5.98816 0
      vertex 0.6593 10.4793 0
      vertex 0.376742 5.98816 0
    endloop
  endfacet
  facet normal 0 0 -1
    outer loop
      vertex -0.376742 5.98816 0
      vertex -0.6593 10.4793 0
      vertex 0.6593 10.4793 0
    endloop
  endfacet
  facet normal 0 0 -1
    outer loop
      vertex -1.12429 5.89372 0
      vertex -0.6593 10.4793 0
      vertex -0.376742 5.98816 0
    endloop
  endfacet
  facet normal 0 0 -1
    outer loop
      vertex -1.9675 10.314 0
      vertex -1.12429 5.89372 0
      vertex -1.8541 5.70634 0
    endloop
  endfacet
  facet normal 0 0 -1
    outer loop
      vertex -1.12429 5.89372 0
      vertex -1.9675 10.314 0
      vertex -0.6593 10.4793 0
    endloop
  endfacet
  facet normal 0 0 -1
    outer loop
      vertex -3.24468 9.98609 0
      vertex -1.8541 5.70634 0
      vertex -2.55468 5.42896 0
    endloop
  endfacet
  facet normal 0 0 -1
    outer loop
      vertex -4.47068 9.50068 0
      vertex -2.55468 5.42896 0
      vertex -3.21496 5.06597 0
    endloop
  endfacet
  facet normal 0 0 -1
    outer loop
      vertex -1.8541 5.70634 0
      vertex -3.24468 9.98609 0
      vertex -1.9675 10.314 0
    endloop
  endfacet
  facet normal 0 0 -1
    outer loop
      vertex -5.62618 8.86544 0
      vertex -3.21496 5.06597 0
      vertex -3.82454 4.62308 0
    endloop
  endfacet
  facet normal 0 0 -1
    outer loop
      vertex -6.69295 8.09039 0
      vertex -3.82454 4.62308 0
      vertex -4.37381 4.10728 0
    endloop
  endfacet
  facet normal 0 0 -1
    outer loop
      vertex -2.55468 5.42896 0
      vertex -4.47068 9.50068 0
      vertex -3.24468 9.98609 0
    endloop
  endfacet
  facet normal 0 0 -1
    outer loop
      vertex -7.65417 7.18774 0
      vertex -4.37381 4.10728 0
      vertex -4.8541 3.52671 0
    endloop
  endfacet
  facet normal 0 0 -1
    outer loop
      vertex -8.49468 6.17174 0
      vertex -4.8541 3.52671 0
      vertex -5.25784 2.89052 0
    endloop
  endfacet
  facet normal 0 0 -1
    outer loop
      vertex -9.20122 5.05841 0
      vertex -5.25784 2.89052 0
      vertex -5.57866 2.20875 0
    endloop
  endfacet
  facet normal 0 0 -1
    outer loop
      vertex -3.21496 5.06597 0
      vertex -5.62618 8.86544 0
      vertex -4.47068 9.50068 0
    endloop
  endfacet
  facet normal 0 0 -1
    outer loop
      vertex -9.76265 3.86531 0
      vertex -5.57866 2.20875 0
      vertex -5.8115 1.49214 0
    endloop
  endfacet
  facet normal 0 0 -1
    outer loop
      vertex -10.1701 2.61124 0
      vertex -5.8115 1.49214 0
      vertex -5.95269 0.751999 0
    endloop
  endfacet
  facet normal 0 0 -1
    outer loop
      vertex -10.4172 1.316 0
      vertex -5.95269 0.751999 0
      vertex -6 0 0
    endloop
  endfacet
  facet normal 0 0 -1
    outer loop
      vertex -9.76265 -3.86531 0
      vertex -5.57866 -2.20875 0
      vertex -9.20122 -5.05841 0
    endloop
  endfacet
  facet normal 0 0 -1
    outer loop
      vertex -3.82454 4.62308 0
      vertex -6.69295 8.09039 0
      vertex -5.62618 8.86544 0
    endloop
  endfacet
  facet normal -0 0 -1
    outer loop
      vertex -5.57866 -2.20875 0
      vertex -9.76265 -3.86531 0
      vertex -5.8115 -1.49214 0
    endloop
  endfacet
  facet normal 0 0 -1
    outer loop
      vertex -4.37381 4.10728 0
      vertex -7.65417 7.18774 0
      vertex -6.69295 8.09039 0
    endloop
  endfacet
  facet normal 0 0 -1
    outer loop
      vertex -10.1701 -2.61124 0
      vertex -5.8115 -1.49214 0
      vertex -9.76265 -3.86531 0
    endloop
  endfacet
  facet normal 0 0 -1
    outer loop
      vertex -4.8541 3.52671 0
      vertex -8.49468 6.17174 0
      vertex -7.65417 7.18774 0
    endloop
  endfacet
  facet normal -0 0 -1
    outer loop
      vertex -5.8115 -1.49214 0
      vertex -10.1701 -2.61124 0
      vertex -5.95269 -0.751999 0
    endloop
  endfacet
  facet normal 0 0 -1
    outer loop
      vertex -5.25784 2.89052 0
      vertex -9.20122 5.05841 0
      vertex -8.49468 6.17174 0
    endloop
  endfacet
  facet normal 0 0 -1
    outer loop
      vertex -10.4172 -1.316 0
      vertex -5.95269 -0.751999 0
      vertex -10.1701 -2.61124 0
    endloop
  endfacet
  facet normal 0 0 -1
    outer loop
      vertex -5.57866 2.20875 0
      vertex -9.76265 3.86531 0
      vertex -9.20122 5.05841 0
    endloop
  endfacet
  facet normal -0 0 -1
    outer loop
      vertex -5.95269 -0.751999 0
      vertex -10.4172 -1.316 0
      vertex -6 0 0
    endloop
  endfacet
  facet normal 0 0 -1
    outer loop
      vertex -5.8115 1.49214 0
      vertex -10.1701 2.61124 0
      vertex -9.76265 3.86531 0
    endloop
  endfacet
  facet normal 0 0 -1
    outer loop
      vertex -10.5 0 0
      vertex -6 0 0
      vertex -10.4172 -1.316 0
    endloop
  endfacet
  facet normal 0 0 -1
    outer loop
      vertex -5.95269 0.751999 0
      vertex -10.4172 1.316 0
      vertex -10.1701 2.61124 0
    endloop
  endfacet
  facet normal 0 0 -1
    outer loop
      vertex -6 0 0
      vertex -10.5 0 0
      vertex -10.4172 1.316 0
    endloop
  endfacet
  facet normal 0.481753 -0.876307 0
    outer loop
      vertex 4.47068 -9.50068 0
      vertex 5.62618 -8.86544 5
      vertex 4.47068 -9.50068 5
    endloop
  endfacet
  facet normal 0.481753 -0.876307 0
    outer loop
      vertex 5.62618 -8.86544 5
      vertex 4.47068 -9.50068 0
      vertex 5.62618 -8.86544 0
    endloop
  endfacet
  facet normal 0.904827 -0.425779 0
    outer loop
      vertex 9.20122 -5.05841 5
      vertex 9.76265 -3.86531 0
      vertex 9.76265 -3.86531 5
    endloop
  endfacet
  facet normal 0.904827 -0.425779 0
    outer loop
      vertex 9.76265 -3.86531 0
      vertex 9.20122 -5.05841 5
      vertex 9.20122 -5.05841 0
    endloop
  endfacet
  facet normal -0.770513 -0.637425 0
    outer loop
      vertex -7.65417 -7.18774 0
      vertex -8.49468 -6.17174 5
      vertex -8.49468 -6.17174 0
    endloop
  endfacet
  facet normal -0.770513 -0.637425 0
    outer loop
      vertex -8.49468 -6.17174 5
      vertex -7.65417 -7.18774 0
      vertex -7.65417 -7.18774 5
    endloop
  endfacet
  facet normal -0.951061 -0.309002 0
    outer loop
      vertex -9.76265 -3.86531 0
      vertex -10.1701 -2.61124 5
      vertex -10.1701 -2.61124 0
    endloop
  endfacet
  facet normal -0.951061 -0.309002 0
    outer loop
      vertex -10.1701 -2.61124 5
      vertex -9.76265 -3.86531 0
      vertex -9.76265 -3.86531 5
    endloop
  endfacet
  facet normal 0.684549 -0.728967 0
    outer loop
      vertex 6.69295 -8.09039 0
      vertex 7.65417 -7.18774 5
      vertex 6.69295 -8.09039 5
    endloop
  endfacet
  facet normal 0.684549 -0.728967 0
    outer loop
      vertex 7.65417 -7.18774 5
      vertex 6.69295 -8.09039 0
      vertex 7.65417 -7.18774 0
    endloop
  endfacet
  facet normal 0.368126 -0.929776 0
    outer loop
      vertex 3.24468 -9.98609 0
      vertex 4.47068 -9.50068 5
      vertex 3.24468 -9.98609 5
    endloop
  endfacet
  facet normal 0.368126 -0.929776 0
    outer loop
      vertex 4.47068 -9.50068 5
      vertex 3.24468 -9.98609 0
      vertex 4.47068 -9.50068 0
    endloop
  endfacet
  facet normal 0.24868 -0.968586 0
    outer loop
      vertex 1.9675 -10.314 0
      vertex 3.24468 -9.98609 5
      vertex 1.9675 -10.314 5
    endloop
  endfacet
  facet normal 0.24868 -0.968586 0
    outer loop
      vertex 3.24468 -9.98609 5
      vertex 1.9675 -10.314 0
      vertex 3.24468 -9.98609 0
    endloop
  endfacet
  facet normal 0.844328 -0.535826 0
    outer loop
      vertex 8.49468 -6.17174 5
      vertex 9.20122 -5.05841 0
      vertex 9.20122 -5.05841 5
    endloop
  endfacet
  facet normal 0.844328 -0.535826 0
    outer loop
      vertex 9.20122 -5.05841 0
      vertex 8.49468 -6.17174 5
      vertex 8.49468 -6.17174 0
    endloop
  endfacet
  facet normal 0.770513 -0.637425 0
    outer loop
      vertex 7.65417 -7.18774 5
      vertex 8.49468 -6.17174 0
      vertex 8.49468 -6.17174 5
    endloop
  endfacet
  facet normal 0.770513 -0.637425 0
    outer loop
      vertex 8.49468 -6.17174 0
      vertex 7.65417 -7.18774 5
      vertex 7.65417 -7.18774 0
    endloop
  endfacet
  facet normal 0.951061 -0.309002 0
    outer loop
      vertex 9.76265 -3.86531 5
      vertex 10.1701 -2.61124 0
      vertex 10.1701 -2.61124 5
    endloop
  endfacet
  facet normal 0.951061 -0.309002 0
    outer loop
      vertex 10.1701 -2.61124 0
      vertex 9.76265 -3.86531 5
      vertex 9.76265 -3.86531 0
    endloop
  endfacet
  facet normal -0.12536 -0.992111 0
    outer loop
      vertex -1.9675 -10.314 0
      vertex -0.6593 -10.4793 5
      vertex -1.9675 -10.314 5
    endloop
  endfacet
  facet normal -0.12536 -0.992111 -0
    outer loop
      vertex -0.6593 -10.4793 5
      vertex -1.9675 -10.314 0
      vertex -0.6593 -10.4793 0
    endloop
  endfacet
  facet normal -0.587783 -0.809018 0
    outer loop
      vertex -6.69295 -8.09039 0
      vertex -5.62618 -8.86544 5
      vertex -6.69295 -8.09039 5
    endloop
  endfacet
  facet normal -0.587783 -0.809018 -0
    outer loop
      vertex -5.62618 -8.86544 5
      vertex -6.69295 -8.09039 0
      vertex -5.62618 -8.86544 0
    endloop
  endfacet
  facet normal -0.982284 -0.187396 0
    outer loop
      vertex -10.1701 -2.61124 0
      vertex -10.4172 -1.316 5
      vertex -10.4172 -1.316 0
    endloop
  endfacet
  facet normal -0.982284 -0.187396 0
    outer loop
      vertex -10.4172 -1.316 5
      vertex -10.1701 -2.61124 0
      vertex -10.1701 -2.61124 5
    endloop
  endfacet
  facet normal -0.998027 -0.0627938 0
    outer loop
      vertex -10.4172 -1.316 0
      vertex -10.5 0 5
      vertex -10.5 0 0
    endloop
  endfacet
  facet normal -0.998027 -0.0627938 0
    outer loop
      vertex -10.5 0 5
      vertex -10.4172 -1.316 0
      vertex -10.4172 -1.316 5
    endloop
  endfacet
  facet normal 0.587783 -0.809018 0
    outer loop
      vertex 5.62618 -8.86544 0
      vertex 6.69295 -8.09039 5
      vertex 5.62618 -8.86544 5
    endloop
  endfacet
  facet normal 0.587783 -0.809018 0
    outer loop
      vertex 6.69295 -8.09039 5
      vertex 5.62618 -8.86544 0
      vertex 6.69295 -8.09039 0
    endloop
  endfacet
  facet normal -0.24868 -0.968586 0
    outer loop
      vertex -3.24468 -9.98609 0
      vertex -1.9675 -10.314 5
      vertex -3.24468 -9.98609 5
    endloop
  endfacet
  facet normal -0.24868 -0.968586 -0
    outer loop
      vertex -1.9675 -10.314 5
      vertex -3.24468 -9.98609 0
      vertex -1.9675 -10.314 0
    endloop
  endfacet
  facet normal -0.368126 -0.929776 0
    outer loop
      vertex -4.47068 -9.50068 0
      vertex -3.24468 -9.98609 5
      vertex -4.47068 -9.50068 5
    endloop
  endfacet
  facet normal -0.368126 -0.929776 -0
    outer loop
      vertex -3.24468 -9.98609 5
      vertex -4.47068 -9.50068 0
      vertex -3.24468 -9.98609 0
    endloop
  endfacet
  facet normal -0.481753 -0.876307 0
    outer loop
      vertex -5.62618 -8.86544 0
      vertex -4.47068 -9.50068 5
      vertex -5.62618 -8.86544 5
    endloop
  endfacet
  facet normal -0.481753 -0.876307 -0
    outer loop
      vertex -4.47068 -9.50068 5
      vertex -5.62618 -8.86544 0
      vertex -4.47068 -9.50068 0
    endloop
  endfacet
  facet normal 0.951057 -0.309016 0
    outer loop
      vertex -5.8115 1.49214 5
      vertex -5.57866 2.20875 0
      vertex -5.57866 2.20875 5
    endloop
  endfacet
  facet normal 0.951057 -0.309016 0
    outer loop
      vertex -5.57866 2.20875 0
      vertex -5.8115 1.49214 5
      vertex -5.8115 1.49214 0
    endloop
  endfacet
  facet normal -0.844327 -0.535828 0
    outer loop
      vertex 5.25784 2.89052 0
      vertex 4.8541 3.52671 5
      vertex 4.8541 3.52671 0
    endloop
  endfacet
  facet normal -0.844327 -0.535828 0
    outer loop
      vertex 4.8541 3.52671 5
      vertex 5.25784 2.89052 0
      vertex 5.25784 2.89052 5
    endloop
  endfacet
  facet normal -0.368125 -0.929776 0
    outer loop
      vertex 1.8541 5.70634 0
      vertex 2.55468 5.42896 5
      vertex 1.8541 5.70634 5
    endloop
  endfacet
  facet normal -0.368125 -0.929776 -0
    outer loop
      vertex 2.55468 5.42896 5
      vertex 1.8541 5.70634 0
      vertex 2.55468 5.42896 0
    endloop
  endfacet
  facet normal 0.368125 -0.929776 0
    outer loop
      vertex -2.55468 5.42896 0
      vertex -1.8541 5.70634 5
      vertex -2.55468 5.42896 5
    endloop
  endfacet
  facet normal 0.368125 -0.929776 0
    outer loop
      vertex -1.8541 5.70634 5
      vertex -2.55468 5.42896 0
      vertex -1.8541 5.70634 0
    endloop
  endfacet
  facet normal 0.904825 -0.425783 0
    outer loop
      vertex -5.57866 2.20875 5
      vertex -5.25784 2.89052 0
      vertex -5.25784 2.89052 5
    endloop
  endfacet
  facet normal 0.904825 -0.425783 0
    outer loop
      vertex -5.25784 2.89052 0
      vertex -5.57866 2.20875 5
      vertex -5.57866 2.20875 0
    endloop
  endfacet
  facet normal -0.998027 0.0627882 0
    outer loop
      vertex 5.95269 -0.751999 0
      vertex 6 0 5
      vertex 6 0 0
    endloop
  endfacet
  facet normal -0.998027 0.0627882 0
    outer loop
      vertex 6 0 5
      vertex 5.95269 -0.751999 0
      vertex 5.95269 -0.751999 5
    endloop
  endfacet
  facet normal -0.368125 0.929776 0
    outer loop
      vertex 2.55468 -5.42896 0
      vertex 1.8541 -5.70634 5
      vertex 2.55468 -5.42896 5
    endloop
  endfacet
  facet normal -0.368125 0.929776 0
    outer loop
      vertex 1.8541 -5.70634 5
      vertex 2.55468 -5.42896 0
      vertex 1.8541 -5.70634 0
    endloop
  endfacet
  facet normal -0.684548 -0.728968 0
    outer loop
      vertex 3.82454 4.62308 0
      vertex 4.37381 4.10728 5
      vertex 3.82454 4.62308 5
    endloop
  endfacet
  facet normal -0.684548 -0.728968 -0
    outer loop
      vertex 4.37381 4.10728 5
      vertex 3.82454 4.62308 0
      vertex 4.37381 4.10728 0
    endloop
  endfacet
  facet normal 0.770513 -0.637425 0
    outer loop
      vertex -4.8541 3.52671 5
      vertex -4.37381 4.10728 0
      vertex -4.37381 4.10728 5
    endloop
  endfacet
  facet normal 0.770513 -0.637425 0
    outer loop
      vertex -4.37381 4.10728 0
      vertex -4.8541 3.52671 5
      vertex -4.8541 3.52671 0
    endloop
  endfacet
  facet normal 0.125337 -0.992114 0
    outer loop
      vertex -1.12429 5.89372 0
      vertex -0.376742 5.98816 5
      vertex -1.12429 5.89372 5
    endloop
  endfacet
  facet normal 0.125337 -0.992114 0
    outer loop
      vertex -0.376742 5.98816 5
      vertex -1.12429 5.89372 0
      vertex -0.376742 5.98816 0
    endloop
  endfacet
  facet normal 0.684548 -0.728968 0
    outer loop
      vertex -4.37381 4.10728 0
      vertex -3.82454 4.62308 5
      vertex -4.37381 4.10728 5
    endloop
  endfacet
  facet normal 0.684548 -0.728968 0
    outer loop
      vertex -3.82454 4.62308 5
      vertex -4.37381 4.10728 0
      vertex -3.82454 4.62308 0
    endloop
  endfacet
  facet normal -0.998027 -0.0627882 0
    outer loop
      vertex 6 0 0
      vertex 5.95269 0.751999 5
      vertex 5.95269 0.751999 0
    endloop
  endfacet
  facet normal -0.998027 -0.0627882 0
    outer loop
      vertex 5.95269 0.751999 5
      vertex 6 0 0
      vertex 6 0 5
    endloop
  endfacet
  facet normal -0.904825 0.425783 0
    outer loop
      vertex 5.25784 -2.89052 0
      vertex 5.57866 -2.20875 5
      vertex 5.57866 -2.20875 0
    endloop
  endfacet
  facet normal -0.904825 0.425783 0
    outer loop
      vertex 5.57866 -2.20875 5
      vertex 5.25784 -2.89052 0
      vertex 5.25784 -2.89052 5
    endloop
  endfacet
  facet normal 0.125337 0.992114 -0
    outer loop
      vertex -0.376742 -5.98816 0
      vertex -1.12429 -5.89372 5
      vertex -0.376742 -5.98816 5
    endloop
  endfacet
  facet normal 0.125337 0.992114 0
    outer loop
      vertex -1.12429 -5.89372 5
      vertex -0.376742 -5.98816 0
      vertex -1.12429 -5.89372 0
    endloop
  endfacet
  facet normal -0.248686 0.968584 0
    outer loop
      vertex 1.8541 -5.70634 0
      vertex 1.12429 -5.89372 5
      vertex 1.8541 -5.70634 5
    endloop
  endfacet
  facet normal -0.248686 0.968584 0
    outer loop
      vertex 1.12429 -5.89372 5
      vertex 1.8541 -5.70634 0
      vertex 1.12429 -5.89372 0
    endloop
  endfacet
  facet normal -0.770513 -0.637425 0
    outer loop
      vertex 4.8541 3.52671 0
      vertex 4.37381 4.10728 5
      vertex 4.37381 4.10728 0
    endloop
  endfacet
  facet normal -0.770513 -0.637425 0
    outer loop
      vertex 4.37381 4.10728 5
      vertex 4.8541 3.52671 0
      vertex 4.8541 3.52671 5
    endloop
  endfacet
  facet normal 0 -1 0
    outer loop
      vertex -0.376742 5.98816 0
      vertex 0.376742 5.98816 5
      vertex -0.376742 5.98816 5
    endloop
  endfacet
  facet normal 0 -1 -0
    outer loop
      vertex 0.376742 5.98816 5
      vertex -0.376742 5.98816 0
      vertex 0.376742 5.98816 0
    endloop
  endfacet
  facet normal -0.248686 -0.968584 0
    outer loop
      vertex 1.12429 5.89372 0
      vertex 1.8541 5.70634 5
      vertex 1.12429 5.89372 5
    endloop
  endfacet
  facet normal -0.248686 -0.968584 -0
    outer loop
      vertex 1.8541 5.70634 5
      vertex 1.12429 5.89372 0
      vertex 1.8541 5.70634 0
    endloop
  endfacet
  facet normal -0.587789 -0.809014 0
    outer loop
      vertex 3.21496 5.06597 0
      vertex 3.82454 4.62308 5
      vertex 3.21496 5.06597 5
    endloop
  endfacet
  facet normal -0.587789 -0.809014 -0
    outer loop
      vertex 3.82454 4.62308 5
      vertex 3.21496 5.06597 0
      vertex 3.82454 4.62308 0
    endloop
  endfacet
  facet normal -0.481752 -0.876308 0
    outer loop
      vertex 2.55468 5.42896 0
      vertex 3.21496 5.06597 5
      vertex 2.55468 5.42896 5
    endloop
  endfacet
  facet normal -0.481752 -0.876308 -0
    outer loop
      vertex 3.21496 5.06597 5
      vertex 2.55468 5.42896 0
      vertex 3.21496 5.06597 0
    endloop
  endfacet
  facet normal 0.998027 -0.0627882 0
    outer loop
      vertex -6 0 5
      vertex -5.95269 0.751999 0
      vertex -5.95269 0.751999 5
    endloop
  endfacet
  facet normal 0.998027 -0.0627882 0
    outer loop
      vertex -5.95269 0.751999 0
      vertex -6 0 5
      vertex -6 0 0
    endloop
  endfacet
  facet normal 0.982287 -0.187382 0
    outer loop
      vertex -5.95269 0.751999 5
      vertex -5.8115 1.49214 0
      vertex -5.8115 1.49214 5
    endloop
  endfacet
  facet normal 0.982287 -0.187382 0
    outer loop
      vertex -5.8115 1.49214 0
      vertex -5.95269 0.751999 5
      vertex -5.95269 0.751999 0
    endloop
  endfacet
  facet normal 0.844327 -0.535828 0
    outer loop
      vertex -5.25784 2.89052 5
      vertex -4.8541 3.52671 0
      vertex -4.8541 3.52671 5
    endloop
  endfacet
  facet normal 0.844327 -0.535828 0
    outer loop
      vertex -4.8541 3.52671 0
      vertex -5.25784 2.89052 5
      vertex -5.25784 2.89052 0
    endloop
  endfacet
  facet normal 0.248686 -0.968584 0
    outer loop
      vertex -1.8541 5.70634 0
      vertex -1.12429 5.89372 5
      vertex -1.8541 5.70634 5
    endloop
  endfacet
  facet normal 0.248686 -0.968584 0
    outer loop
      vertex -1.12429 5.89372 5
      vertex -1.8541 5.70634 0
      vertex -1.12429 5.89372 0
    endloop
  endfacet
  facet normal 0.481752 -0.876308 0
    outer loop
      vertex -3.21496 5.06597 0
      vertex -2.55468 5.42896 5
      vertex -3.21496 5.06597 5
    endloop
  endfacet
  facet normal 0.481752 -0.876308 0
    outer loop
      vertex -2.55468 5.42896 5
      vertex -3.21496 5.06597 0
      vertex -2.55468 5.42896 0
    endloop
  endfacet
  facet normal 0.587789 -0.809014 0
    outer loop
      vertex -3.82454 4.62308 0
      vertex -3.21496 5.06597 5
      vertex -3.82454 4.62308 5
    endloop
  endfacet
  facet normal 0.587789 -0.809014 0
    outer loop
      vertex -3.21496 5.06597 5
      vertex -3.82454 4.62308 0
      vertex -3.21496 5.06597 0
    endloop
  endfacet
  facet normal -0.982287 0.187382 0
    outer loop
      vertex 5.8115 -1.49214 0
      vertex 5.95269 -0.751999 5
      vertex 5.95269 -0.751999 0
    endloop
  endfacet
  facet normal -0.982287 0.187382 0
    outer loop
      vertex 5.95269 -0.751999 5
      vertex 5.8115 -1.49214 0
      vertex 5.8115 -1.49214 5
    endloop
  endfacet
  facet normal 0.248686 0.968584 -0
    outer loop
      vertex -1.12429 -5.89372 0
      vertex -1.8541 -5.70634 5
      vertex -1.12429 -5.89372 5
    endloop
  endfacet
  facet normal 0.248686 0.968584 0
    outer loop
      vertex -1.8541 -5.70634 5
      vertex -1.12429 -5.89372 0
      vertex -1.8541 -5.70634 0
    endloop
  endfacet
  facet normal -0.125337 0.992114 0
    outer loop
      vertex 1.12429 -5.89372 0
      vertex 0.376742 -5.98816 5
      vertex 1.12429 -5.89372 5
    endloop
  endfacet
  facet normal -0.125337 0.992114 0
    outer loop
      vertex 0.376742 -5.98816 5
      vertex 1.12429 -5.89372 0
      vertex 0.376742 -5.98816 0
    endloop
  endfacet
  facet normal -0.904825 -0.425783 0
    outer loop
      vertex 5.57866 2.20875 0
      vertex 5.25784 2.89052 5
      vertex 5.25784 2.89052 0
    endloop
  endfacet
  facet normal -0.904825 -0.425783 0
    outer loop
      vertex 5.25784 2.89052 5
      vertex 5.57866 2.20875 0
      vertex 5.57866 2.20875 5
    endloop
  endfacet
  facet normal -0.951057 -0.309016 0
    outer loop
      vertex 5.8115 1.49214 0
      vertex 5.57866 2.20875 5
      vertex 5.57866 2.20875 0
    endloop
  endfacet
  facet normal -0.951057 -0.309016 0
    outer loop
      vertex 5.57866 2.20875 5
      vertex 5.8115 1.49214 0
      vertex 5.8115 1.49214 5
    endloop
  endfacet
  facet normal -0.982287 -0.187382 0
    outer loop
      vertex 5.95269 0.751999 0
      vertex 5.8115 1.49214 5
      vertex 5.8115 1.49214 0
    endloop
  endfacet
  facet normal -0.982287 -0.187382 0
    outer loop
      vertex 5.8115 1.49214 5
      vertex 5.95269 0.751999 0
      vertex 5.95269 0.751999 5
    endloop
  endfacet
  facet normal -0.125337 -0.992114 0
    outer loop
      vertex 0.376742 5.98816 0
      vertex 1.12429 5.89372 5
      vertex 0.376742 5.98816 5
    endloop
  endfacet
  facet normal -0.125337 -0.992114 -0
    outer loop
      vertex 1.12429 5.89372 5
      vertex 0.376742 5.98816 0
      vertex 1.12429 5.89372 0
    endloop
  endfacet
  facet normal -0.481752 0.876308 0
    outer loop
      vertex 3.21496 -5.06597 0
      vertex 2.55468 -5.42896 5
      vertex 3.21496 -5.06597 5
    endloop
  endfacet
  facet normal -0.481752 0.876308 0
    outer loop
      vertex 2.55468 -5.42896 5
      vertex 3.21496 -5.06597 0
      vertex 2.55468 -5.42896 0
    endloop
  endfacet
  facet normal -0.684548 0.728968 0
    outer loop
      vertex 4.37381 -4.10728 0
      vertex 3.82454 -4.62308 5
      vertex 4.37381 -4.10728 5
    endloop
  endfacet
  facet normal -0.684548 0.728968 0
    outer loop
      vertex 3.82454 -4.62308 5
      vertex 4.37381 -4.10728 0
      vertex 3.82454 -4.62308 0
    endloop
  endfacet
  facet normal -0.770513 0.637425 0
    outer loop
      vertex 4.37381 -4.10728 0
      vertex 4.8541 -3.52671 5
      vertex 4.8541 -3.52671 0
    endloop
  endfacet
  facet normal -0.770513 0.637425 0
    outer loop
      vertex 4.8541 -3.52671 5
      vertex 4.37381 -4.10728 0
      vertex 4.37381 -4.10728 5
    endloop
  endfacet
  facet normal 0.368125 0.929776 -0
    outer loop
      vertex -1.8541 -5.70634 0
      vertex -2.55468 -5.42896 5
      vertex -1.8541 -5.70634 5
    endloop
  endfacet
  facet normal 0.368125 0.929776 0
    outer loop
      vertex -2.55468 -5.42896 5
      vertex -1.8541 -5.70634 0
      vertex -2.55468 -5.42896 0
    endloop
  endfacet
  facet normal 0.998027 0.0627882 0
    outer loop
      vertex -5.95269 -0.751999 5
      vertex -6 0 0
      vertex -6 0 5
    endloop
  endfacet
  facet normal 0.998027 0.0627882 0
    outer loop
      vertex -6 0 0
      vertex -5.95269 -0.751999 5
      vertex -5.95269 -0.751999 0
    endloop
  endfacet
  facet normal 0.951057 0.309016 0
    outer loop
      vertex -5.57866 -2.20875 5
      vertex -5.8115 -1.49214 0
      vertex -5.8115 -1.49214 5
    endloop
  endfacet
  facet normal 0.951057 0.309016 0
    outer loop
      vertex -5.8115 -1.49214 0
      vertex -5.57866 -2.20875 5
      vertex -5.57866 -2.20875 0
    endloop
  endfacet
  facet normal 0.904825 0.425783 0
    outer loop
      vertex -5.25784 -2.89052 5
      vertex -5.57866 -2.20875 0
      vertex -5.57866 -2.20875 5
    endloop
  endfacet
  facet normal 0.904825 0.425783 0
    outer loop
      vertex -5.57866 -2.20875 0
      vertex -5.25784 -2.89052 5
      vertex -5.25784 -2.89052 0
    endloop
  endfacet
  facet normal -0.951057 0.309016 0
    outer loop
      vertex 5.57866 -2.20875 0
      vertex 5.8115 -1.49214 5
      vertex 5.8115 -1.49214 0
    endloop
  endfacet
  facet normal -0.951057 0.309016 0
    outer loop
      vertex 5.8115 -1.49214 5
      vertex 5.57866 -2.20875 0
      vertex 5.57866 -2.20875 5
    endloop
  endfacet
  facet normal -0.587789 0.809014 0
    outer loop
      vertex 3.82454 -4.62308 0
      vertex 3.21496 -5.06597 5
      vertex 3.82454 -4.62308 5
    endloop
  endfacet
  facet normal -0.587789 0.809014 0
    outer loop
      vertex 3.21496 -5.06597 5
      vertex 3.82454 -4.62308 0
      vertex 3.21496 -5.06597 0
    endloop
  endfacet
  facet normal -0.844327 0.535828 0
    outer loop
      vertex 4.8541 -3.52671 0
      vertex 5.25784 -2.89052 5
      vertex 5.25784 -2.89052 0
    endloop
  endfacet
  facet normal -0.844327 0.535828 0
    outer loop
      vertex 5.25784 -2.89052 5
      vertex 4.8541 -3.52671 0
      vertex 4.8541 -3.52671 5
    endloop
  endfacet
  facet normal 0.684548 0.728968 -0
    outer loop
      vertex -3.82454 -4.62308 0
      vertex -4.37381 -4.10728 5
      vertex -3.82454 -4.62308 5
    endloop
  endfacet
  facet normal 0.684548 0.728968 0
    outer loop
      vertex -4.37381 -4.10728 5
      vertex -3.82454 -4.62308 0
      vertex -4.37381 -4.10728 0
    endloop
  endfacet
  facet normal 0 1 -0
    outer loop
      vertex 0.376742 -5.98816 0
      vertex -0.376742 -5.98816 5
      vertex 0.376742 -5.98816 5
    endloop
  endfacet
  facet normal 0 1 0
    outer loop
      vertex -0.376742 -5.98816 5
      vertex 0.376742 -5.98816 0
      vertex -0.376742 -5.98816 0
    endloop
  endfacet
  facet normal 0.481752 0.876308 -0
    outer loop
      vertex -2.55468 -5.42896 0
      vertex -3.21496 -5.06597 5
      vertex -2.55468 -5.42896 5
    endloop
  endfacet
  facet normal 0.481752 0.876308 0
    outer loop
      vertex -3.21496 -5.06597 5
      vertex -2.55468 -5.42896 0
      vertex -3.21496 -5.06597 0
    endloop
  endfacet
  facet normal 0.982287 0.187382 0
    outer loop
      vertex -5.8115 -1.49214 5
      vertex -5.95269 -0.751999 0
      vertex -5.95269 -0.751999 5
    endloop
  endfacet
  facet normal 0.982287 0.187382 0
    outer loop
      vertex -5.95269 -0.751999 0
      vertex -5.8115 -1.49214 5
      vertex -5.8115 -1.49214 0
    endloop
  endfacet
  facet normal 0.770513 0.637425 0
    outer loop
      vertex -4.37381 -4.10728 5
      vertex -4.8541 -3.52671 0
      vertex -4.8541 -3.52671 5
    endloop
  endfacet
  facet normal 0.770513 0.637425 0
    outer loop
      vertex -4.8541 -3.52671 0
      vertex -4.37381 -4.10728 5
      vertex -4.37381 -4.10728 0
    endloop
  endfacet
  facet normal 0.844327 0.535828 0
    outer loop
      vertex -4.8541 -3.52671 5
      vertex -5.25784 -2.89052 0
      vertex -5.25784 -2.89052 5
    endloop
  endfacet
  facet normal 0.844327 0.535828 0
    outer loop
      vertex -5.25784 -2.89052 0
      vertex -4.8541 -3.52671 5
      vertex -4.8541 -3.52671 0
    endloop
  endfacet
  facet normal 0.587789 0.809014 -0
    outer loop
      vertex -3.21496 -5.06597 0
      vertex -3.82454 -4.62308 5
      vertex -3.21496 -5.06597 5
    endloop
  endfacet
  facet normal 0.587789 0.809014 0
    outer loop
      vertex -3.82454 -4.62308 5
      vertex -3.21496 -5.06597 0
      vertex -3.82454 -4.62308 0
    endloop
  endfacet
endsolid OpenSCAD_Model
