  0
SECTION
  2
BLOCKS
  0
ENDSEC
  0
SECTION
  2
ENTITIES
  0
LINE
  8
0
 10
14.6869
 20
175.589
 11
15.2951
 21
175.745
  0
LINE
  8
0
 10
15.2951
 20
175.745
 11
15.8789
 21
175.976
  0
LINE
  8
0
 10
15.8789
 20
175.976
 11
16.4291
 21
176.278
  0
LINE
  8
0
 10
16.4291
 20
176.278
 11
16.9371
 21
176.647
  0
LINE
  8
0
 10
16.9371
 20
176.647
 11
17.3948
 21
177.077
  0
LINE
  8
0
 10
17.3948
 20
177.077
 11
17.7951
 21
177.561
  0
LINE
  8
0
 10
17.7951
 20
177.561
 11
18.1315
 21
178.091
  0
LINE
  8
0
 10
18.1315
 20
178.091
 11
18.3989
 21
178.659
  0
LINE
  8
0
 10
18.3989
 20
178.659
 11
18.5929
 21
179.257
  0
LINE
  8
0
 10
18.5929
 20
179.257
 11
18.7106
 21
179.873
  0
LINE
  8
0
 10
18.7106
 20
179.873
 11
18.75
 21
180.5
  0
LINE
  8
0
 10
18.75
 20
180.5
 11
18.75
 21
275.5
  0
LINE
  8
0
 10
18.75
 20
275.5
 11
18.7106
 21
276.127
  0
LINE
  8
0
 10
18.7106
 20
276.127
 11
18.5929
 21
276.743
  0
LINE
  8
0
 10
18.5929
 20
276.743
 11
18.3989
 21
277.341
  0
LINE
  8
0
 10
18.3989
 20
277.341
 11
18.1315
 21
277.909
  0
LINE
  8
0
 10
18.1315
 20
277.909
 11
17.7951
 21
278.439
  0
LINE
  8
0
 10
17.7951
 20
278.439
 11
17.3948
 21
278.923
  0
LINE
  8
0
 10
17.3948
 20
278.923
 11
16.9371
 21
279.353
  0
LINE
  8
0
 10
16.9371
 20
279.353
 11
16.4291
 21
279.722
  0
LINE
  8
0
 10
16.4291
 20
279.722
 11
15.8789
 21
280.024
  0
LINE
  8
0
 10
15.8789
 20
280.024
 11
15.2951
 21
280.255
  0
LINE
  8
0
 10
15.2951
 20
280.255
 11
14.6869
 21
280.411
  0
LINE
  8
0
 10
14.6869
 20
280.411
 11
14.0639
 21
280.49
  0
LINE
  8
0
 10
14.0639
 20
280.49
 11
-14.0639
 21
280.49
  0
LINE
  8
0
 10
-14.0639
 20
280.49
 11
-14.6869
 21
280.411
  0
LINE
  8
0
 10
-14.6869
 20
280.411
 11
-15.2951
 21
280.255
  0
LINE
  8
0
 10
-15.2951
 20
280.255
 11
-15.8789
 21
280.024
  0
LINE
  8
0
 10
-15.8789
 20
280.024
 11
-16.4291
 21
279.722
  0
LINE
  8
0
 10
-16.4291
 20
279.722
 11
-16.9371
 21
279.353
  0
LINE
  8
0
 10
-16.9371
 20
279.353
 11
-17.3948
 21
278.923
  0
LINE
  8
0
 10
-17.3948
 20
278.923
 11
-17.7951
 21
278.439
  0
LINE
  8
0
 10
-17.7951
 20
278.439
 11
-18.1315
 21
277.909
  0
LINE
  8
0
 10
-18.1315
 20
277.909
 11
-18.3989
 21
277.341
  0
LINE
  8
0
 10
-18.3989
 20
277.341
 11
-18.5929
 21
276.743
  0
LINE
  8
0
 10
-18.5929
 20
276.743
 11
-18.7106
 21
276.127
  0
LINE
  8
0
 10
-18.7106
 20
276.127
 11
-18.75
 21
275.5
  0
LINE
  8
0
 10
-18.75
 20
275.5
 11
-18.75
 21
180.5
  0
LINE
  8
0
 10
-18.75
 20
180.5
 11
-18.7106
 21
179.873
  0
LINE
  8
0
 10
-18.7106
 20
179.873
 11
-18.5929
 21
179.257
  0
LINE
  8
0
 10
-18.5929
 20
179.257
 11
-18.3989
 21
178.659
  0
LINE
  8
0
 10
-18.3989
 20
178.659
 11
-18.1315
 21
178.091
  0
LINE
  8
0
 10
-18.1315
 20
178.091
 11
-17.7951
 21
177.561
  0
LINE
  8
0
 10
-17.7951
 20
177.561
 11
-17.3948
 21
177.077
  0
LINE
  8
0
 10
-17.3948
 20
177.077
 11
-16.9371
 21
176.647
  0
LINE
  8
0
 10
-16.9371
 20
176.647
 11
-16.4291
 21
176.278
  0
LINE
  8
0
 10
-16.4291
 20
176.278
 11
-15.8789
 21
175.976
  0
LINE
  8
0
 10
-15.8789
 20
175.976
 11
-15.2951
 21
175.745
  0
LINE
  8
0
 10
-15.2951
 20
175.745
 11
-14.6869
 21
175.589
  0
LINE
  8
0
 10
-14.6869
 20
175.589
 11
-14.0639
 21
175.51
  0
LINE
  8
0
 10
-14.0639
 20
175.51
 11
14.0639
 21
175.51
  0
LINE
  8
0
 10
14.0639
 20
175.51
 11
14.6869
 21
175.589
  0
LINE
  8
0
 10
-13.743
 20
176.888
 11
-14.2251
 21
176.949
  0
LINE
  8
0
 10
-14.2251
 20
176.949
 11
-14.6957
 21
177.07
  0
LINE
  8
0
 10
-14.6957
 20
177.07
 11
-15.1475
 21
177.249
  0
LINE
  8
0
 10
-15.1475
 20
177.249
 11
-15.5734
 21
177.483
  0
LINE
  8
0
 10
-15.5734
 20
177.483
 11
-15.9665
 21
177.769
  0
LINE
  8
0
 10
-15.9665
 20
177.769
 11
-16.3207
 21
178.101
  0
LINE
  8
0
 10
-16.3207
 20
178.101
 11
-16.6305
 21
178.476
  0
LINE
  8
0
 10
-16.6305
 20
178.476
 11
-16.8908
 21
178.886
  0
LINE
  8
0
 10
-16.8908
 20
178.886
 11
-17.0977
 21
179.326
  0
LINE
  8
0
 10
-17.0977
 20
179.326
 11
-17.2479
 21
179.788
  0
LINE
  8
0
 10
-17.2479
 20
179.788
 11
-17.339
 21
180.265
  0
LINE
  8
0
 10
-17.339
 20
180.265
 11
-17.3695
 21
180.75
  0
LINE
  8
0
 10
-17.3695
 20
180.75
 11
-17.3695
 21
275.25
  0
LINE
  8
0
 10
-17.3695
 20
275.25
 11
-17.339
 21
275.735
  0
LINE
  8
0
 10
-17.339
 20
275.735
 11
-17.2479
 21
276.212
  0
LINE
  8
0
 10
-17.2479
 20
276.212
 11
-17.0977
 21
276.674
  0
LINE
  8
0
 10
-17.0977
 20
276.674
 11
-16.8908
 21
277.114
  0
LINE
  8
0
 10
-16.8908
 20
277.114
 11
-16.6305
 21
277.524
  0
LINE
  8
0
 10
-16.6305
 20
277.524
 11
-16.3207
 21
277.899
  0
LINE
  8
0
 10
-16.3207
 20
277.899
 11
-15.9665
 21
278.231
  0
LINE
  8
0
 10
-15.9665
 20
278.231
 11
-15.5734
 21
278.517
  0
LINE
  8
0
 10
-15.5734
 20
278.517
 11
-15.1475
 21
278.751
  0
LINE
  8
0
 10
-15.1475
 20
278.751
 11
-14.6957
 21
278.93
  0
LINE
  8
0
 10
-14.6957
 20
278.93
 11
-14.2251
 21
279.051
  0
LINE
  8
0
 10
-14.2251
 20
279.051
 11
-13.743
 21
279.112
  0
LINE
  8
0
 10
-13.743
 20
279.112
 11
13.743
 21
279.112
  0
LINE
  8
0
 10
13.743
 20
279.112
 11
14.2251
 21
279.051
  0
LINE
  8
0
 10
14.2251
 20
279.051
 11
14.6957
 21
278.93
  0
LINE
  8
0
 10
14.6957
 20
278.93
 11
15.1475
 21
278.751
  0
LINE
  8
0
 10
15.1475
 20
278.751
 11
15.5734
 21
278.517
  0
LINE
  8
0
 10
15.5734
 20
278.517
 11
15.9665
 21
278.231
  0
LINE
  8
0
 10
15.9665
 20
278.231
 11
16.3207
 21
277.899
  0
LINE
  8
0
 10
16.3207
 20
277.899
 11
16.6305
 21
277.524
  0
LINE
  8
0
 10
16.6305
 20
277.524
 11
16.8908
 21
277.114
  0
LINE
  8
0
 10
16.8908
 20
277.114
 11
17.0977
 21
276.674
  0
LINE
  8
0
 10
17.0977
 20
276.674
 11
17.2479
 21
276.212
  0
LINE
  8
0
 10
17.2479
 20
276.212
 11
17.339
 21
275.735
  0
LINE
  8
0
 10
17.339
 20
275.735
 11
17.3695
 21
275.25
  0
LINE
  8
0
 10
17.3695
 20
275.25
 11
17.3695
 21
180.75
  0
LINE
  8
0
 10
17.3695
 20
180.75
 11
17.339
 21
180.265
  0
LINE
  8
0
 10
17.339
 20
180.265
 11
17.2479
 21
179.788
  0
LINE
  8
0
 10
17.2479
 20
179.788
 11
17.0977
 21
179.326
  0
LINE
  8
0
 10
17.0977
 20
179.326
 11
16.8908
 21
178.886
  0
LINE
  8
0
 10
16.8908
 20
178.886
 11
16.6305
 21
178.476
  0
LINE
  8
0
 10
16.6305
 20
178.476
 11
16.3207
 21
178.101
  0
LINE
  8
0
 10
16.3207
 20
178.101
 11
15.9665
 21
177.769
  0
LINE
  8
0
 10
15.9665
 20
177.769
 11
15.5734
 21
177.483
  0
LINE
  8
0
 10
15.5734
 20
177.483
 11
15.1475
 21
177.249
  0
LINE
  8
0
 10
15.1475
 20
177.249
 11
14.6957
 21
177.07
  0
LINE
  8
0
 10
14.6957
 20
177.07
 11
14.2251
 21
176.949
  0
LINE
  8
0
 10
14.2251
 20
176.949
 11
13.743
 21
176.888
  0
LINE
  8
0
 10
13.743
 20
176.888
 11
-13.743
 21
176.888
  0
LINE
  8
0
 10
14.6869
 20
61.5886
 11
15.2951
 21
61.7447
  0
LINE
  8
0
 10
15.2951
 20
61.7447
 11
15.8789
 21
61.9759
  0
LINE
  8
0
 10
15.8789
 20
61.9759
 11
16.4291
 21
62.2784
  0
LINE
  8
0
 10
16.4291
 20
62.2784
 11
16.9371
 21
62.6474
  0
LINE
  8
0
 10
16.9371
 20
62.6474
 11
17.3948
 21
63.0773
  0
LINE
  8
0
 10
17.3948
 20
63.0773
 11
17.7951
 21
63.5611
  0
LINE
  8
0
 10
17.7951
 20
63.5611
 11
18.1315
 21
64.0912
  0
LINE
  8
0
 10
18.1315
 20
64.0912
 11
18.3989
 21
64.6594
  0
LINE
  8
0
 10
18.3989
 20
64.6594
 11
18.5929
 21
65.2566
  0
LINE
  8
0
 10
18.5929
 20
65.2566
 11
18.7106
 21
65.8733
  0
LINE
  8
0
 10
18.7106
 20
65.8733
 11
18.75
 21
66.5
  0
LINE
  8
0
 10
18.75
 20
66.5
 11
18.75
 21
161.5
  0
LINE
  8
0
 10
18.75
 20
161.5
 11
18.7106
 21
162.127
  0
LINE
  8
0
 10
18.7106
 20
162.127
 11
18.5929
 21
162.743
  0
LINE
  8
0
 10
18.5929
 20
162.743
 11
18.3989
 21
163.341
  0
LINE
  8
0
 10
18.3989
 20
163.341
 11
18.1315
 21
163.909
  0
LINE
  8
0
 10
18.1315
 20
163.909
 11
17.7951
 21
164.439
  0
LINE
  8
0
 10
17.7951
 20
164.439
 11
17.3948
 21
164.923
  0
LINE
  8
0
 10
17.3948
 20
164.923
 11
16.9371
 21
165.353
  0
LINE
  8
0
 10
16.9371
 20
165.353
 11
16.4291
 21
165.722
  0
LINE
  8
0
 10
16.4291
 20
165.722
 11
15.8789
 21
166.024
  0
LINE
  8
0
 10
15.8789
 20
166.024
 11
15.2951
 21
166.255
  0
LINE
  8
0
 10
15.2951
 20
166.255
 11
14.6869
 21
166.411
  0
LINE
  8
0
 10
14.6869
 20
166.411
 11
14.0639
 21
166.49
  0
LINE
  8
0
 10
14.0639
 20
166.49
 11
-14.0639
 21
166.49
  0
LINE
  8
0
 10
-14.0639
 20
166.49
 11
-14.6869
 21
166.411
  0
LINE
  8
0
 10
-14.6869
 20
166.411
 11
-15.2951
 21
166.255
  0
LINE
  8
0
 10
-15.2951
 20
166.255
 11
-15.8789
 21
166.024
  0
LINE
  8
0
 10
-15.8789
 20
166.024
 11
-16.4291
 21
165.722
  0
LINE
  8
0
 10
-16.4291
 20
165.722
 11
-16.9371
 21
165.353
  0
LINE
  8
0
 10
-16.9371
 20
165.353
 11
-17.3948
 21
164.923
  0
LINE
  8
0
 10
-17.3948
 20
164.923
 11
-17.7951
 21
164.439
  0
LINE
  8
0
 10
-17.7951
 20
164.439
 11
-18.1315
 21
163.909
  0
LINE
  8
0
 10
-18.1315
 20
163.909
 11
-18.3989
 21
163.341
  0
LINE
  8
0
 10
-18.3989
 20
163.341
 11
-18.5929
 21
162.743
  0
LINE
  8
0
 10
-18.5929
 20
162.743
 11
-18.7106
 21
162.127
  0
LINE
  8
0
 10
-18.7106
 20
162.127
 11
-18.75
 21
161.5
  0
LINE
  8
0
 10
-18.75
 20
161.5
 11
-18.75
 21
66.5
  0
LINE
  8
0
 10
-18.75
 20
66.5
 11
-18.7106
 21
65.8733
  0
LINE
  8
0
 10
-18.7106
 20
65.8733
 11
-18.5929
 21
65.2566
  0
LINE
  8
0
 10
-18.5929
 20
65.2566
 11
-18.3989
 21
64.6594
  0
LINE
  8
0
 10
-18.3989
 20
64.6594
 11
-18.1315
 21
64.0912
  0
LINE
  8
0
 10
-18.1315
 20
64.0912
 11
-17.7951
 21
63.5611
  0
LINE
  8
0
 10
-17.7951
 20
63.5611
 11
-17.3948
 21
63.0773
  0
LINE
  8
0
 10
-17.3948
 20
63.0773
 11
-16.9371
 21
62.6474
  0
LINE
  8
0
 10
-16.9371
 20
62.6474
 11
-16.4291
 21
62.2784
  0
LINE
  8
0
 10
-16.4291
 20
62.2784
 11
-15.8789
 21
61.9759
  0
LINE
  8
0
 10
-15.8789
 20
61.9759
 11
-15.2951
 21
61.7447
  0
LINE
  8
0
 10
-15.2951
 20
61.7447
 11
-14.6869
 21
61.5886
  0
LINE
  8
0
 10
-14.6869
 20
61.5886
 11
-14.0639
 21
61.5099
  0
LINE
  8
0
 10
-14.0639
 20
61.5099
 11
14.0639
 21
61.5099
  0
LINE
  8
0
 10
14.0639
 20
61.5099
 11
14.6869
 21
61.5886
  0
LINE
  8
0
 10
11.137
 20
157.204
 11
10.9127
 21
157.232
  0
LINE
  8
0
 10
10.9127
 20
157.232
 11
10.6938
 21
157.288
  0
LINE
  8
0
 10
10.6938
 20
157.288
 11
10.4836
 21
157.371
  0
LINE
  8
0
 10
10.4836
 20
157.371
 11
10.2855
 21
157.48
  0
LINE
  8
0
 10
10.2855
 20
157.48
 11
10.1026
 21
157.613
  0
LINE
  8
0
 10
10.1026
 20
157.613
 11
9.93785
 21
157.768
  0
LINE
  8
0
 10
9.93785
 20
157.768
 11
9.79376
 21
157.942
  0
LINE
  8
0
 10
9.79376
 20
157.942
 11
9.67264
 21
158.133
  0
LINE
  8
0
 10
9.67264
 20
158.133
 11
9.5764
 21
158.337
  0
LINE
  8
0
 10
9.5764
 20
158.337
 11
9.50655
 21
158.552
  0
LINE
  8
0
 10
9.50655
 20
158.552
 11
9.46419
 21
158.774
  0
LINE
  8
0
 10
9.46419
 20
158.774
 11
9.45
 21
159
  0
LINE
  8
0
 10
9.45
 20
159
 11
9.46419
 21
159.226
  0
LINE
  8
0
 10
9.46419
 20
159.226
 11
9.50655
 21
159.448
  0
LINE
  8
0
 10
9.50655
 20
159.448
 11
9.5764
 21
159.663
  0
LINE
  8
0
 10
9.5764
 20
159.663
 11
9.67264
 21
159.867
  0
LINE
  8
0
 10
9.67264
 20
159.867
 11
9.79376
 21
160.058
  0
LINE
  8
0
 10
9.79376
 20
160.058
 11
9.93785
 21
160.232
  0
LINE
  8
0
 10
9.93785
 20
160.232
 11
10.1026
 21
160.387
  0
LINE
  8
0
 10
10.1026
 20
160.387
 11
10.2855
 21
160.52
  0
LINE
  8
0
 10
10.2855
 20
160.52
 11
10.4836
 21
160.629
  0
LINE
  8
0
 10
10.4836
 20
160.629
 11
10.6938
 21
160.712
  0
LINE
  8
0
 10
10.6938
 20
160.712
 11
10.9127
 21
160.768
  0
LINE
  8
0
 10
10.9127
 20
160.768
 11
11.137
 21
160.796
  0
LINE
  8
0
 10
11.137
 20
160.796
 11
11.363
 21
160.796
  0
LINE
  8
0
 10
11.363
 20
160.796
 11
11.5873
 21
160.768
  0
LINE
  8
0
 10
11.5873
 20
160.768
 11
11.8062
 21
160.712
  0
LINE
  8
0
 10
11.8062
 20
160.712
 11
12.0164
 21
160.629
  0
LINE
  8
0
 10
12.0164
 20
160.629
 11
12.2145
 21
160.52
  0
LINE
  8
0
 10
12.2145
 20
160.52
 11
12.3974
 21
160.387
  0
LINE
  8
0
 10
12.3974
 20
160.387
 11
12.5621
 21
160.232
  0
LINE
  8
0
 10
12.5621
 20
160.232
 11
12.7062
 21
160.058
  0
LINE
  8
0
 10
12.7062
 20
160.058
 11
12.8273
 21
159.867
  0
LINE
  8
0
 10
12.8273
 20
159.867
 11
12.9236
 21
159.663
  0
LINE
  8
0
 10
12.9236
 20
159.663
 11
12.9934
 21
159.448
  0
LINE
  8
0
 10
12.9934
 20
159.448
 11
13.0358
 21
159.226
  0
LINE
  8
0
 10
13.0358
 20
159.226
 11
13.05
 21
159
  0
LINE
  8
0
 10
13.05
 20
159
 11
13.0358
 21
158.774
  0
LINE
  8
0
 10
13.0358
 20
158.774
 11
12.9934
 21
158.552
  0
LINE
  8
0
 10
12.9934
 20
158.552
 11
12.9236
 21
158.337
  0
LINE
  8
0
 10
12.9236
 20
158.337
 11
12.8273
 21
158.133
  0
LINE
  8
0
 10
12.8273
 20
158.133
 11
12.7062
 21
157.942
  0
LINE
  8
0
 10
12.7062
 20
157.942
 11
12.5621
 21
157.768
  0
LINE
  8
0
 10
12.5621
 20
157.768
 11
12.3974
 21
157.613
  0
LINE
  8
0
 10
12.3974
 20
157.613
 11
12.2145
 21
157.48
  0
LINE
  8
0
 10
12.2145
 20
157.48
 11
12.0164
 21
157.371
  0
LINE
  8
0
 10
12.0164
 20
157.371
 11
11.8062
 21
157.288
  0
LINE
  8
0
 10
11.8062
 20
157.288
 11
11.5873
 21
157.232
  0
LINE
  8
0
 10
11.5873
 20
157.232
 11
11.363
 21
157.204
  0
LINE
  8
0
 10
11.363
 20
157.204
 11
11.137
 21
157.204
  0
LINE
  8
0
 10
-11.363
 20
157.204
 11
-11.5873
 21
157.232
  0
LINE
  8
0
 10
-11.5873
 20
157.232
 11
-11.8062
 21
157.288
  0
LINE
  8
0
 10
-11.8062
 20
157.288
 11
-12.0164
 21
157.371
  0
LINE
  8
0
 10
-12.0164
 20
157.371
 11
-12.2145
 21
157.48
  0
LINE
  8
0
 10
-12.2145
 20
157.48
 11
-12.3974
 21
157.613
  0
LINE
  8
0
 10
-12.3974
 20
157.613
 11
-12.5621
 21
157.768
  0
LINE
  8
0
 10
-12.5621
 20
157.768
 11
-12.7062
 21
157.942
  0
LINE
  8
0
 10
-12.7062
 20
157.942
 11
-12.8273
 21
158.133
  0
LINE
  8
0
 10
-12.8273
 20
158.133
 11
-12.9236
 21
158.337
  0
LINE
  8
0
 10
-12.9236
 20
158.337
 11
-12.9934
 21
158.552
  0
LINE
  8
0
 10
-12.9934
 20
158.552
 11
-13.0358
 21
158.774
  0
LINE
  8
0
 10
-13.0358
 20
158.774
 11
-13.05
 21
159
  0
LINE
  8
0
 10
-13.05
 20
159
 11
-13.0358
 21
159.226
  0
LINE
  8
0
 10
-13.0358
 20
159.226
 11
-12.9934
 21
159.448
  0
LINE
  8
0
 10
-12.9934
 20
159.448
 11
-12.9236
 21
159.663
  0
LINE
  8
0
 10
-12.9236
 20
159.663
 11
-12.8273
 21
159.867
  0
LINE
  8
0
 10
-12.8273
 20
159.867
 11
-12.7062
 21
160.058
  0
LINE
  8
0
 10
-12.7062
 20
160.058
 11
-12.5621
 21
160.232
  0
LINE
  8
0
 10
-12.5621
 20
160.232
 11
-12.3974
 21
160.387
  0
LINE
  8
0
 10
-12.3974
 20
160.387
 11
-12.2145
 21
160.52
  0
LINE
  8
0
 10
-12.2145
 20
160.52
 11
-12.0164
 21
160.629
  0
LINE
  8
0
 10
-12.0164
 20
160.629
 11
-11.8062
 21
160.712
  0
LINE
  8
0
 10
-11.8062
 20
160.712
 11
-11.5873
 21
160.768
  0
LINE
  8
0
 10
-11.5873
 20
160.768
 11
-11.363
 21
160.796
  0
LINE
  8
0
 10
-11.363
 20
160.796
 11
-11.137
 21
160.796
  0
LINE
  8
0
 10
-11.137
 20
160.796
 11
-10.9127
 21
160.768
  0
LINE
  8
0
 10
-10.9127
 20
160.768
 11
-10.6938
 21
160.712
  0
LINE
  8
0
 10
-10.6938
 20
160.712
 11
-10.4836
 21
160.629
  0
LINE
  8
0
 10
-10.4836
 20
160.629
 11
-10.2855
 21
160.52
  0
LINE
  8
0
 10
-10.2855
 20
160.52
 11
-10.1026
 21
160.387
  0
LINE
  8
0
 10
-10.1026
 20
160.387
 11
-9.93785
 21
160.232
  0
LINE
  8
0
 10
-9.93785
 20
160.232
 11
-9.79376
 21
160.058
  0
LINE
  8
0
 10
-9.79376
 20
160.058
 11
-9.67264
 21
159.867
  0
LINE
  8
0
 10
-9.67264
 20
159.867
 11
-9.5764
 21
159.663
  0
LINE
  8
0
 10
-9.5764
 20
159.663
 11
-9.50655
 21
159.448
  0
LINE
  8
0
 10
-9.50655
 20
159.448
 11
-9.46419
 21
159.226
  0
LINE
  8
0
 10
-9.46419
 20
159.226
 11
-9.45
 21
159
  0
LINE
  8
0
 10
-9.45
 20
159
 11
-9.46419
 21
158.774
  0
LINE
  8
0
 10
-9.46419
 20
158.774
 11
-9.50655
 21
158.552
  0
LINE
  8
0
 10
-9.50655
 20
158.552
 11
-9.5764
 21
158.337
  0
LINE
  8
0
 10
-9.5764
 20
158.337
 11
-9.67264
 21
158.133
  0
LINE
  8
0
 10
-9.67264
 20
158.133
 11
-9.79376
 21
157.942
  0
LINE
  8
0
 10
-9.79376
 20
157.942
 11
-9.93785
 21
157.768
  0
LINE
  8
0
 10
-9.93785
 20
157.768
 11
-10.1026
 21
157.613
  0
LINE
  8
0
 10
-10.1026
 20
157.613
 11
-10.2855
 21
157.48
  0
LINE
  8
0
 10
-10.2855
 20
157.48
 11
-10.4836
 21
157.371
  0
LINE
  8
0
 10
-10.4836
 20
157.371
 11
-10.6938
 21
157.288
  0
LINE
  8
0
 10
-10.6938
 20
157.288
 11
-10.9127
 21
157.232
  0
LINE
  8
0
 10
-10.9127
 20
157.232
 11
-11.137
 21
157.204
  0
LINE
  8
0
 10
-11.137
 20
157.204
 11
-11.363
 21
157.204
  0
LINE
  8
0
 10
-11.363
 20
67.2036
 11
-11.5873
 21
67.2319
  0
LINE
  8
0
 10
-11.5873
 20
67.2319
 11
-11.8062
 21
67.2881
  0
LINE
  8
0
 10
-11.8062
 20
67.2881
 11
-12.0164
 21
67.3713
  0
LINE
  8
0
 10
-12.0164
 20
67.3713
 11
-12.2145
 21
67.4802
  0
LINE
  8
0
 10
-12.2145
 20
67.4802
 11
-12.3974
 21
67.6131
  0
LINE
  8
0
 10
-12.3974
 20
67.6131
 11
-12.5621
 21
67.7678
  0
LINE
  8
0
 10
-12.5621
 20
67.7678
 11
-12.7062
 21
67.942
  0
LINE
  8
0
 10
-12.7062
 20
67.942
 11
-12.8273
 21
68.1328
  0
LINE
  8
0
 10
-12.8273
 20
68.1328
 11
-12.9236
 21
68.3374
  0
LINE
  8
0
 10
-12.9236
 20
68.3374
 11
-12.9934
 21
68.5524
  0
LINE
  8
0
 10
-12.9934
 20
68.5524
 11
-13.0358
 21
68.7744
  0
LINE
  8
0
 10
-13.0358
 20
68.7744
 11
-13.05
 21
69
  0
LINE
  8
0
 10
-13.05
 20
69
 11
-13.0358
 21
69.2256
  0
LINE
  8
0
 10
-13.0358
 20
69.2256
 11
-12.9934
 21
69.4476
  0
LINE
  8
0
 10
-12.9934
 20
69.4476
 11
-12.9236
 21
69.6626
  0
LINE
  8
0
 10
-12.9236
 20
69.6626
 11
-12.8273
 21
69.8672
  0
LINE
  8
0
 10
-12.8273
 20
69.8672
 11
-12.7062
 21
70.058
  0
LINE
  8
0
 10
-12.7062
 20
70.058
 11
-12.5621
 21
70.2322
  0
LINE
  8
0
 10
-12.5621
 20
70.2322
 11
-12.3974
 21
70.3869
  0
LINE
  8
0
 10
-12.3974
 20
70.3869
 11
-12.2145
 21
70.5198
  0
LINE
  8
0
 10
-12.2145
 20
70.5198
 11
-12.0164
 21
70.6287
  0
LINE
  8
0
 10
-12.0164
 20
70.6287
 11
-11.8062
 21
70.7119
  0
LINE
  8
0
 10
-11.8062
 20
70.7119
 11
-11.5873
 21
70.7681
  0
LINE
  8
0
 10
-11.5873
 20
70.7681
 11
-11.363
 21
70.7964
  0
LINE
  8
0
 10
-11.363
 20
70.7964
 11
-11.137
 21
70.7964
  0
LINE
  8
0
 10
-11.137
 20
70.7964
 11
-10.9127
 21
70.7681
  0
LINE
  8
0
 10
-10.9127
 20
70.7681
 11
-10.6938
 21
70.7119
  0
LINE
  8
0
 10
-10.6938
 20
70.7119
 11
-10.4836
 21
70.6287
  0
LINE
  8
0
 10
-10.4836
 20
70.6287
 11
-10.2855
 21
70.5198
  0
LINE
  8
0
 10
-10.2855
 20
70.5198
 11
-10.1026
 21
70.3869
  0
LINE
  8
0
 10
-10.1026
 20
70.3869
 11
-9.93785
 21
70.2322
  0
LINE
  8
0
 10
-9.93785
 20
70.2322
 11
-9.79376
 21
70.058
  0
LINE
  8
0
 10
-9.79376
 20
70.058
 11
-9.67264
 21
69.8672
  0
LINE
  8
0
 10
-9.67264
 20
69.8672
 11
-9.5764
 21
69.6626
  0
LINE
  8
0
 10
-9.5764
 20
69.6626
 11
-9.50655
 21
69.4476
  0
LINE
  8
0
 10
-9.50655
 20
69.4476
 11
-9.46419
 21
69.2256
  0
LINE
  8
0
 10
-9.46419
 20
69.2256
 11
-9.45
 21
69
  0
LINE
  8
0
 10
-9.45
 20
69
 11
-9.46419
 21
68.7744
  0
LINE
  8
0
 10
-9.46419
 20
68.7744
 11
-9.50655
 21
68.5524
  0
LINE
  8
0
 10
-9.50655
 20
68.5524
 11
-9.5764
 21
68.3374
  0
LINE
  8
0
 10
-9.5764
 20
68.3374
 11
-9.67264
 21
68.1328
  0
LINE
  8
0
 10
-9.67264
 20
68.1328
 11
-9.79376
 21
67.942
  0
LINE
  8
0
 10
-9.79376
 20
67.942
 11
-9.93785
 21
67.7678
  0
LINE
  8
0
 10
-9.93785
 20
67.7678
 11
-10.1026
 21
67.6131
  0
LINE
  8
0
 10
-10.1026
 20
67.6131
 11
-10.2855
 21
67.4802
  0
LINE
  8
0
 10
-10.2855
 20
67.4802
 11
-10.4836
 21
67.3713
  0
LINE
  8
0
 10
-10.4836
 20
67.3713
 11
-10.6938
 21
67.2881
  0
LINE
  8
0
 10
-10.6938
 20
67.2881
 11
-10.9127
 21
67.2319
  0
LINE
  8
0
 10
-10.9127
 20
67.2319
 11
-11.137
 21
67.2036
  0
LINE
  8
0
 10
-11.137
 20
67.2036
 11
-11.363
 21
67.2036
  0
LINE
  8
0
 10
11.137
 20
67.2036
 11
10.9127
 21
67.2319
  0
LINE
  8
0
 10
10.9127
 20
67.2319
 11
10.6938
 21
67.2881
  0
LINE
  8
0
 10
10.6938
 20
67.2881
 11
10.4836
 21
67.3713
  0
LINE
  8
0
 10
10.4836
 20
67.3713
 11
10.2855
 21
67.4802
  0
LINE
  8
0
 10
10.2855
 20
67.4802
 11
10.1026
 21
67.6131
  0
LINE
  8
0
 10
10.1026
 20
67.6131
 11
9.93785
 21
67.7678
  0
LINE
  8
0
 10
9.93785
 20
67.7678
 11
9.79376
 21
67.942
  0
LINE
  8
0
 10
9.79376
 20
67.942
 11
9.67264
 21
68.1328
  0
LINE
  8
0
 10
9.67264
 20
68.1328
 11
9.5764
 21
68.3374
  0
LINE
  8
0
 10
9.5764
 20
68.3374
 11
9.50655
 21
68.5524
  0
LINE
  8
0
 10
9.50655
 20
68.5524
 11
9.46419
 21
68.7744
  0
LINE
  8
0
 10
9.46419
 20
68.7744
 11
9.45
 21
69
  0
LINE
  8
0
 10
9.45
 20
69
 11
9.46419
 21
69.2256
  0
LINE
  8
0
 10
9.46419
 20
69.2256
 11
9.50655
 21
69.4476
  0
LINE
  8
0
 10
9.50655
 20
69.4476
 11
9.5764
 21
69.6626
  0
LINE
  8
0
 10
9.5764
 20
69.6626
 11
9.67264
 21
69.8672
  0
LINE
  8
0
 10
9.67264
 20
69.8672
 11
9.79376
 21
70.058
  0
LINE
  8
0
 10
9.79376
 20
70.058
 11
9.93785
 21
70.2322
  0
LINE
  8
0
 10
9.93785
 20
70.2322
 11
10.1026
 21
70.3869
  0
LINE
  8
0
 10
10.1026
 20
70.3869
 11
10.2855
 21
70.5198
  0
LINE
  8
0
 10
10.2855
 20
70.5198
 11
10.4836
 21
70.6287
  0
LINE
  8
0
 10
10.4836
 20
70.6287
 11
10.6938
 21
70.7119
  0
LINE
  8
0
 10
10.6938
 20
70.7119
 11
10.9127
 21
70.7681
  0
LINE
  8
0
 10
10.9127
 20
70.7681
 11
11.137
 21
70.7964
  0
LINE
  8
0
 10
11.137
 20
70.7964
 11
11.363
 21
70.7964
  0
LINE
  8
0
 10
11.363
 20
70.7964
 11
11.5873
 21
70.7681
  0
LINE
  8
0
 10
11.5873
 20
70.7681
 11
11.8062
 21
70.7119
  0
LINE
  8
0
 10
11.8062
 20
70.7119
 11
12.0164
 21
70.6287
  0
LINE
  8
0
 10
12.0164
 20
70.6287
 11
12.2145
 21
70.5198
  0
LINE
  8
0
 10
12.2145
 20
70.5198
 11
12.3974
 21
70.3869
  0
LINE
  8
0
 10
12.3974
 20
70.3869
 11
12.5621
 21
70.2322
  0
LINE
  8
0
 10
12.5621
 20
70.2322
 11
12.7062
 21
70.058
  0
LINE
  8
0
 10
12.7062
 20
70.058
 11
12.8273
 21
69.8672
  0
LINE
  8
0
 10
12.8273
 20
69.8672
 11
12.9236
 21
69.6626
  0
LINE
  8
0
 10
12.9236
 20
69.6626
 11
12.9934
 21
69.4476
  0
LINE
  8
0
 10
12.9934
 20
69.4476
 11
13.0358
 21
69.2256
  0
LINE
  8
0
 10
13.0358
 20
69.2256
 11
13.05
 21
69
  0
LINE
  8
0
 10
13.05
 20
69
 11
13.0358
 21
68.7744
  0
LINE
  8
0
 10
13.0358
 20
68.7744
 11
12.9934
 21
68.5524
  0
LINE
  8
0
 10
12.9934
 20
68.5524
 11
12.9236
 21
68.3374
  0
LINE
  8
0
 10
12.9236
 20
68.3374
 11
12.8273
 21
68.1328
  0
LINE
  8
0
 10
12.8273
 20
68.1328
 11
12.7062
 21
67.942
  0
LINE
  8
0
 10
12.7062
 20
67.942
 11
12.5621
 21
67.7678
  0
LINE
  8
0
 10
12.5621
 20
67.7678
 11
12.3974
 21
67.6131
  0
LINE
  8
0
 10
12.3974
 20
67.6131
 11
12.2145
 21
67.4802
  0
LINE
  8
0
 10
12.2145
 20
67.4802
 11
12.0164
 21
67.3713
  0
LINE
  8
0
 10
12.0164
 20
67.3713
 11
11.8062
 21
67.2881
  0
LINE
  8
0
 10
11.8062
 20
67.2881
 11
11.5873
 21
67.2319
  0
LINE
  8
0
 10
11.5873
 20
67.2319
 11
11.363
 21
67.2036
  0
LINE
  8
0
 10
11.363
 20
67.2036
 11
11.137
 21
67.2036
  0
ENDSEC
  0
SECTION
  2
OBJECTS
  0
DICTIONARY
  0
ENDSEC
  0
EOF
