  0
SECTION
  2
BLOCKS
  0
ENDSEC
  0
SECTION
  2
ENTITIES
  0
LINE
  8
0
 10
55.9369
 20
1872.09
 11
56.5451
 21
1872.24
  0
LINE
  8
0
 10
56.5451
 20
1872.24
 11
57.1289
 21
1872.48
  0
LINE
  8
0
 10
57.1289
 20
1872.48
 11
57.6791
 21
1872.78
  0
LINE
  8
0
 10
57.6791
 20
1872.78
 11
58.1871
 21
1873.15
  0
LINE
  8
0
 10
58.1871
 20
1873.15
 11
58.6448
 21
1873.58
  0
LINE
  8
0
 10
58.6448
 20
1873.58
 11
59.0451
 21
1874.06
  0
LINE
  8
0
 10
59.0451
 20
1874.06
 11
59.3815
 21
1874.59
  0
LINE
  8
0
 10
59.3815
 20
1874.59
 11
59.6489
 21
1875.16
  0
LINE
  8
0
 10
59.6489
 20
1875.16
 11
59.8429
 21
1875.76
  0
LINE
  8
0
 10
59.8429
 20
1875.76
 11
59.9606
 21
1876.37
  0
LINE
  8
0
 10
59.9606
 20
1876.37
 11
60
 21
1877
  0
LINE
  8
0
 10
60
 20
1877
 11
60
 21
2107
  0
LINE
  8
0
 10
60
 20
2107
 11
59.9606
 21
2107.63
  0
LINE
  8
0
 10
59.9606
 20
2107.63
 11
59.8429
 21
2108.24
  0
LINE
  8
0
 10
59.8429
 20
2108.24
 11
59.6489
 21
2108.84
  0
LINE
  8
0
 10
59.6489
 20
2108.84
 11
59.3815
 21
2109.41
  0
LINE
  8
0
 10
59.3815
 20
2109.41
 11
59.0451
 21
2109.94
  0
LINE
  8
0
 10
59.0451
 20
2109.94
 11
58.6448
 21
2110.42
  0
LINE
  8
0
 10
58.6448
 20
2110.42
 11
58.1871
 21
2110.85
  0
LINE
  8
0
 10
58.1871
 20
2110.85
 11
57.6791
 21
2111.22
  0
LINE
  8
0
 10
57.6791
 20
2111.22
 11
57.1289
 21
2111.52
  0
LINE
  8
0
 10
57.1289
 20
2111.52
 11
56.5451
 21
2111.76
  0
LINE
  8
0
 10
56.5451
 20
2111.76
 11
55.9369
 21
2111.91
  0
LINE
  8
0
 10
55.9369
 20
2111.91
 11
55.3139
 21
2111.99
  0
LINE
  8
0
 10
55.3139
 20
2111.99
 11
-55.3139
 21
2111.99
  0
LINE
  8
0
 10
-55.3139
 20
2111.99
 11
-55.9369
 21
2111.91
  0
LINE
  8
0
 10
-55.9369
 20
2111.91
 11
-56.5451
 21
2111.76
  0
LINE
  8
0
 10
-56.5451
 20
2111.76
 11
-57.1289
 21
2111.52
  0
LINE
  8
0
 10
-57.1289
 20
2111.52
 11
-57.6791
 21
2111.22
  0
LINE
  8
0
 10
-57.6791
 20
2111.22
 11
-58.1871
 21
2110.85
  0
LINE
  8
0
 10
-58.1871
 20
2110.85
 11
-58.6448
 21
2110.42
  0
LINE
  8
0
 10
-58.6448
 20
2110.42
 11
-59.0451
 21
2109.94
  0
LINE
  8
0
 10
-59.0451
 20
2109.94
 11
-59.3815
 21
2109.41
  0
LINE
  8
0
 10
-59.3815
 20
2109.41
 11
-59.6489
 21
2108.84
  0
LINE
  8
0
 10
-59.6489
 20
2108.84
 11
-59.8429
 21
2108.24
  0
LINE
  8
0
 10
-59.8429
 20
2108.24
 11
-59.9606
 21
2107.63
  0
LINE
  8
0
 10
-59.9606
 20
2107.63
 11
-60
 21
2107
  0
LINE
  8
0
 10
-60
 20
2107
 11
-60
 21
1877
  0
LINE
  8
0
 10
-60
 20
1877
 11
-59.9606
 21
1876.37
  0
LINE
  8
0
 10
-59.9606
 20
1876.37
 11
-59.8429
 21
1875.76
  0
LINE
  8
0
 10
-59.8429
 20
1875.76
 11
-59.6489
 21
1875.16
  0
LINE
  8
0
 10
-59.6489
 20
1875.16
 11
-59.3815
 21
1874.59
  0
LINE
  8
0
 10
-59.3815
 20
1874.59
 11
-59.0451
 21
1874.06
  0
LINE
  8
0
 10
-59.0451
 20
1874.06
 11
-58.6448
 21
1873.58
  0
LINE
  8
0
 10
-58.6448
 20
1873.58
 11
-58.1871
 21
1873.15
  0
LINE
  8
0
 10
-58.1871
 20
1873.15
 11
-57.6791
 21
1872.78
  0
LINE
  8
0
 10
-57.6791
 20
1872.78
 11
-57.1289
 21
1872.48
  0
LINE
  8
0
 10
-57.1289
 20
1872.48
 11
-56.5451
 21
1872.24
  0
LINE
  8
0
 10
-56.5451
 20
1872.24
 11
-55.9369
 21
1872.09
  0
LINE
  8
0
 10
-55.9369
 20
1872.09
 11
-55.3139
 21
1872.01
  0
LINE
  8
0
 10
-55.3139
 20
1872.01
 11
55.3139
 21
1872.01
  0
LINE
  8
0
 10
55.3139
 20
1872.01
 11
55.9369
 21
1872.09
  0
LINE
  8
0
 10
-54.7512
 20
1873.51
 11
-55.2495
 21
1873.57
  0
LINE
  8
0
 10
-55.2495
 20
1873.57
 11
-55.7361
 21
1873.7
  0
LINE
  8
0
 10
-55.7361
 20
1873.7
 11
-56.2031
 21
1873.88
  0
LINE
  8
0
 10
-56.2031
 20
1873.88
 11
-56.6433
 21
1874.12
  0
LINE
  8
0
 10
-56.6433
 20
1874.12
 11
-57.0497
 21
1874.42
  0
LINE
  8
0
 10
-57.0497
 20
1874.42
 11
-57.4159
 21
1874.76
  0
LINE
  8
0
 10
-57.4159
 20
1874.76
 11
-57.7361
 21
1875.15
  0
LINE
  8
0
 10
-57.7361
 20
1875.15
 11
-58.0052
 21
1875.57
  0
LINE
  8
0
 10
-58.0052
 20
1875.57
 11
-58.2191
 21
1876.03
  0
LINE
  8
0
 10
-58.2191
 20
1876.03
 11
-58.3743
 21
1876.51
  0
LINE
  8
0
 10
-58.3743
 20
1876.51
 11
-58.4685
 21
1877
  0
LINE
  8
0
 10
-58.4685
 20
1877
 11
-58.5
 21
1877.5
  0
LINE
  8
0
 10
-58.5
 20
1877.5
 11
-58.5
 21
2106.5
  0
LINE
  8
0
 10
-58.5
 20
2106.5
 11
-58.4685
 21
2107
  0
LINE
  8
0
 10
-58.4685
 20
2107
 11
-58.3743
 21
2107.49
  0
LINE
  8
0
 10
-58.3743
 20
2107.49
 11
-58.2191
 21
2107.97
  0
LINE
  8
0
 10
-58.2191
 20
2107.97
 11
-58.0052
 21
2108.43
  0
LINE
  8
0
 10
-58.0052
 20
2108.43
 11
-57.7361
 21
2108.85
  0
LINE
  8
0
 10
-57.7361
 20
2108.85
 11
-57.4159
 21
2109.24
  0
LINE
  8
0
 10
-57.4159
 20
2109.24
 11
-57.0497
 21
2109.58
  0
LINE
  8
0
 10
-57.0497
 20
2109.58
 11
-56.6433
 21
2109.88
  0
LINE
  8
0
 10
-56.6433
 20
2109.88
 11
-56.2031
 21
2110.12
  0
LINE
  8
0
 10
-56.2031
 20
2110.12
 11
-55.7361
 21
2110.3
  0
LINE
  8
0
 10
-55.7361
 20
2110.3
 11
-55.2495
 21
2110.43
  0
LINE
  8
0
 10
-55.2495
 20
2110.43
 11
-54.7512
 21
2110.49
  0
LINE
  8
0
 10
-54.7512
 20
2110.49
 11
54.7512
 21
2110.49
  0
LINE
  8
0
 10
54.7512
 20
2110.49
 11
55.2495
 21
2110.43
  0
LINE
  8
0
 10
55.2495
 20
2110.43
 11
55.7361
 21
2110.3
  0
LINE
  8
0
 10
55.7361
 20
2110.3
 11
56.2031
 21
2110.12
  0
LINE
  8
0
 10
56.2031
 20
2110.12
 11
56.6433
 21
2109.88
  0
LINE
  8
0
 10
56.6433
 20
2109.88
 11
57.0497
 21
2109.58
  0
LINE
  8
0
 10
57.0497
 20
2109.58
 11
57.4159
 21
2109.24
  0
LINE
  8
0
 10
57.4159
 20
2109.24
 11
57.7361
 21
2108.85
  0
LINE
  8
0
 10
57.7361
 20
2108.85
 11
58.0052
 21
2108.43
  0
LINE
  8
0
 10
58.0052
 20
2108.43
 11
58.2191
 21
2107.97
  0
LINE
  8
0
 10
58.2191
 20
2107.97
 11
58.3743
 21
2107.49
  0
LINE
  8
0
 10
58.3743
 20
2107.49
 11
58.4685
 21
2107
  0
LINE
  8
0
 10
58.4685
 20
2107
 11
58.5
 21
2106.5
  0
LINE
  8
0
 10
58.5
 20
2106.5
 11
58.5
 21
1877.5
  0
LINE
  8
0
 10
58.5
 20
1877.5
 11
58.4685
 21
1877
  0
LINE
  8
0
 10
58.4685
 20
1877
 11
58.3743
 21
1876.51
  0
LINE
  8
0
 10
58.3743
 20
1876.51
 11
58.2191
 21
1876.03
  0
LINE
  8
0
 10
58.2191
 20
1876.03
 11
58.0052
 21
1875.57
  0
LINE
  8
0
 10
58.0052
 20
1875.57
 11
57.7361
 21
1875.15
  0
LINE
  8
0
 10
57.7361
 20
1875.15
 11
57.4159
 21
1874.76
  0
LINE
  8
0
 10
57.4159
 20
1874.76
 11
57.0497
 21
1874.42
  0
LINE
  8
0
 10
57.0497
 20
1874.42
 11
56.6433
 21
1874.12
  0
LINE
  8
0
 10
56.6433
 20
1874.12
 11
56.2031
 21
1873.88
  0
LINE
  8
0
 10
56.2031
 20
1873.88
 11
55.7361
 21
1873.7
  0
LINE
  8
0
 10
55.7361
 20
1873.7
 11
55.2495
 21
1873.57
  0
LINE
  8
0
 10
55.2495
 20
1873.57
 11
54.7512
 21
1873.51
  0
LINE
  8
0
 10
54.7512
 20
1873.51
 11
-54.7512
 21
1873.51
  0
LINE
  8
0
 10
55.9369
 20
1623.09
 11
56.5451
 21
1623.24
  0
LINE
  8
0
 10
56.5451
 20
1623.24
 11
57.1289
 21
1623.48
  0
LINE
  8
0
 10
57.1289
 20
1623.48
 11
57.6791
 21
1623.78
  0
LINE
  8
0
 10
57.6791
 20
1623.78
 11
58.1871
 21
1624.15
  0
LINE
  8
0
 10
58.1871
 20
1624.15
 11
58.6448
 21
1624.58
  0
LINE
  8
0
 10
58.6448
 20
1624.58
 11
59.0451
 21
1625.06
  0
LINE
  8
0
 10
59.0451
 20
1625.06
 11
59.3815
 21
1625.59
  0
LINE
  8
0
 10
59.3815
 20
1625.59
 11
59.6489
 21
1626.16
  0
LINE
  8
0
 10
59.6489
 20
1626.16
 11
59.8429
 21
1626.76
  0
LINE
  8
0
 10
59.8429
 20
1626.76
 11
59.9606
 21
1627.37
  0
LINE
  8
0
 10
59.9606
 20
1627.37
 11
60
 21
1628
  0
LINE
  8
0
 10
60
 20
1628
 11
60
 21
1858
  0
LINE
  8
0
 10
60
 20
1858
 11
59.9606
 21
1858.63
  0
LINE
  8
0
 10
59.9606
 20
1858.63
 11
59.8429
 21
1859.24
  0
LINE
  8
0
 10
59.8429
 20
1859.24
 11
59.6489
 21
1859.84
  0
LINE
  8
0
 10
59.6489
 20
1859.84
 11
59.3815
 21
1860.41
  0
LINE
  8
0
 10
59.3815
 20
1860.41
 11
59.0451
 21
1860.94
  0
LINE
  8
0
 10
59.0451
 20
1860.94
 11
58.6448
 21
1861.42
  0
LINE
  8
0
 10
58.6448
 20
1861.42
 11
58.1871
 21
1861.85
  0
LINE
  8
0
 10
58.1871
 20
1861.85
 11
57.6791
 21
1862.22
  0
LINE
  8
0
 10
57.6791
 20
1862.22
 11
57.1289
 21
1862.52
  0
LINE
  8
0
 10
57.1289
 20
1862.52
 11
56.5451
 21
1862.76
  0
LINE
  8
0
 10
56.5451
 20
1862.76
 11
55.9369
 21
1862.91
  0
LINE
  8
0
 10
55.9369
 20
1862.91
 11
55.3139
 21
1862.99
  0
LINE
  8
0
 10
55.3139
 20
1862.99
 11
-55.3139
 21
1862.99
  0
LINE
  8
0
 10
-55.3139
 20
1862.99
 11
-55.9369
 21
1862.91
  0
LINE
  8
0
 10
-55.9369
 20
1862.91
 11
-56.5451
 21
1862.76
  0
LINE
  8
0
 10
-56.5451
 20
1862.76
 11
-57.1289
 21
1862.52
  0
LINE
  8
0
 10
-57.1289
 20
1862.52
 11
-57.6791
 21
1862.22
  0
LINE
  8
0
 10
-57.6791
 20
1862.22
 11
-58.1871
 21
1861.85
  0
LINE
  8
0
 10
-58.1871
 20
1861.85
 11
-58.6448
 21
1861.42
  0
LINE
  8
0
 10
-58.6448
 20
1861.42
 11
-59.0451
 21
1860.94
  0
LINE
  8
0
 10
-59.0451
 20
1860.94
 11
-59.3815
 21
1860.41
  0
LINE
  8
0
 10
-59.3815
 20
1860.41
 11
-59.6489
 21
1859.84
  0
LINE
  8
0
 10
-59.6489
 20
1859.84
 11
-59.8429
 21
1859.24
  0
LINE
  8
0
 10
-59.8429
 20
1859.24
 11
-59.9606
 21
1858.63
  0
LINE
  8
0
 10
-59.9606
 20
1858.63
 11
-60
 21
1858
  0
LINE
  8
0
 10
-60
 20
1858
 11
-60
 21
1628
  0
LINE
  8
0
 10
-60
 20
1628
 11
-59.9606
 21
1627.37
  0
LINE
  8
0
 10
-59.9606
 20
1627.37
 11
-59.8429
 21
1626.76
  0
LINE
  8
0
 10
-59.8429
 20
1626.76
 11
-59.6489
 21
1626.16
  0
LINE
  8
0
 10
-59.6489
 20
1626.16
 11
-59.3815
 21
1625.59
  0
LINE
  8
0
 10
-59.3815
 20
1625.59
 11
-59.0451
 21
1625.06
  0
LINE
  8
0
 10
-59.0451
 20
1625.06
 11
-58.6448
 21
1624.58
  0
LINE
  8
0
 10
-58.6448
 20
1624.58
 11
-58.1871
 21
1624.15
  0
LINE
  8
0
 10
-58.1871
 20
1624.15
 11
-57.6791
 21
1623.78
  0
LINE
  8
0
 10
-57.6791
 20
1623.78
 11
-57.1289
 21
1623.48
  0
LINE
  8
0
 10
-57.1289
 20
1623.48
 11
-56.5451
 21
1623.24
  0
LINE
  8
0
 10
-56.5451
 20
1623.24
 11
-55.9369
 21
1623.09
  0
LINE
  8
0
 10
-55.9369
 20
1623.09
 11
-55.3139
 21
1623.01
  0
LINE
  8
0
 10
-55.3139
 20
1623.01
 11
55.3139
 21
1623.01
  0
LINE
  8
0
 10
55.3139
 20
1623.01
 11
55.9369
 21
1623.09
  0
LINE
  8
0
 10
-54.7512
 20
1624.51
 11
-55.2495
 21
1624.57
  0
LINE
  8
0
 10
-55.2495
 20
1624.57
 11
-55.7361
 21
1624.7
  0
LINE
  8
0
 10
-55.7361
 20
1624.7
 11
-56.2031
 21
1624.88
  0
LINE
  8
0
 10
-56.2031
 20
1624.88
 11
-56.6433
 21
1625.12
  0
LINE
  8
0
 10
-56.6433
 20
1625.12
 11
-57.0497
 21
1625.42
  0
LINE
  8
0
 10
-57.0497
 20
1625.42
 11
-57.4159
 21
1625.76
  0
LINE
  8
0
 10
-57.4159
 20
1625.76
 11
-57.7361
 21
1626.15
  0
LINE
  8
0
 10
-57.7361
 20
1626.15
 11
-58.0052
 21
1626.57
  0
LINE
  8
0
 10
-58.0052
 20
1626.57
 11
-58.2191
 21
1627.03
  0
LINE
  8
0
 10
-58.2191
 20
1627.03
 11
-58.3743
 21
1627.51
  0
LINE
  8
0
 10
-58.3743
 20
1627.51
 11
-58.4685
 21
1628
  0
LINE
  8
0
 10
-58.4685
 20
1628
 11
-58.5
 21
1628.5
  0
LINE
  8
0
 10
-58.5
 20
1628.5
 11
-58.5
 21
1857.5
  0
LINE
  8
0
 10
-58.5
 20
1857.5
 11
-58.4685
 21
1858
  0
LINE
  8
0
 10
-58.4685
 20
1858
 11
-58.3743
 21
1858.49
  0
LINE
  8
0
 10
-58.3743
 20
1858.49
 11
-58.2191
 21
1858.97
  0
LINE
  8
0
 10
-58.2191
 20
1858.97
 11
-58.0052
 21
1859.43
  0
LINE
  8
0
 10
-58.0052
 20
1859.43
 11
-57.7361
 21
1859.85
  0
LINE
  8
0
 10
-57.7361
 20
1859.85
 11
-57.4159
 21
1860.24
  0
LINE
  8
0
 10
-57.4159
 20
1860.24
 11
-57.0497
 21
1860.58
  0
LINE
  8
0
 10
-57.0497
 20
1860.58
 11
-56.6433
 21
1860.88
  0
LINE
  8
0
 10
-56.6433
 20
1860.88
 11
-56.2031
 21
1861.12
  0
LINE
  8
0
 10
-56.2031
 20
1861.12
 11
-55.7361
 21
1861.3
  0
LINE
  8
0
 10
-55.7361
 20
1861.3
 11
-55.2495
 21
1861.43
  0
LINE
  8
0
 10
-55.2495
 20
1861.43
 11
-54.7512
 21
1861.49
  0
LINE
  8
0
 10
-54.7512
 20
1861.49
 11
54.7512
 21
1861.49
  0
LINE
  8
0
 10
54.7512
 20
1861.49
 11
55.2495
 21
1861.43
  0
LINE
  8
0
 10
55.2495
 20
1861.43
 11
55.7361
 21
1861.3
  0
LINE
  8
0
 10
55.7361
 20
1861.3
 11
56.2031
 21
1861.12
  0
LINE
  8
0
 10
56.2031
 20
1861.12
 11
56.6433
 21
1860.88
  0
LINE
  8
0
 10
56.6433
 20
1860.88
 11
57.0497
 21
1860.58
  0
LINE
  8
0
 10
57.0497
 20
1860.58
 11
57.4159
 21
1860.24
  0
LINE
  8
0
 10
57.4159
 20
1860.24
 11
57.7361
 21
1859.85
  0
LINE
  8
0
 10
57.7361
 20
1859.85
 11
58.0052
 21
1859.43
  0
LINE
  8
0
 10
58.0052
 20
1859.43
 11
58.2191
 21
1858.97
  0
LINE
  8
0
 10
58.2191
 20
1858.97
 11
58.3743
 21
1858.49
  0
LINE
  8
0
 10
58.3743
 20
1858.49
 11
58.4685
 21
1858
  0
LINE
  8
0
 10
58.4685
 20
1858
 11
58.5
 21
1857.5
  0
LINE
  8
0
 10
58.5
 20
1857.5
 11
58.5
 21
1628.5
  0
LINE
  8
0
 10
58.5
 20
1628.5
 11
58.4685
 21
1628
  0
LINE
  8
0
 10
58.4685
 20
1628
 11
58.3743
 21
1627.51
  0
LINE
  8
0
 10
58.3743
 20
1627.51
 11
58.2191
 21
1627.03
  0
LINE
  8
0
 10
58.2191
 20
1627.03
 11
58.0052
 21
1626.57
  0
LINE
  8
0
 10
58.0052
 20
1626.57
 11
57.7361
 21
1626.15
  0
LINE
  8
0
 10
57.7361
 20
1626.15
 11
57.4159
 21
1625.76
  0
LINE
  8
0
 10
57.4159
 20
1625.76
 11
57.0497
 21
1625.42
  0
LINE
  8
0
 10
57.0497
 20
1625.42
 11
56.6433
 21
1625.12
  0
LINE
  8
0
 10
56.6433
 20
1625.12
 11
56.2031
 21
1624.88
  0
LINE
  8
0
 10
56.2031
 20
1624.88
 11
55.7361
 21
1624.7
  0
LINE
  8
0
 10
55.7361
 20
1624.7
 11
55.2495
 21
1624.57
  0
LINE
  8
0
 10
55.2495
 20
1624.57
 11
54.7512
 21
1624.51
  0
LINE
  8
0
 10
54.7512
 20
1624.51
 11
-54.7512
 21
1624.51
  0
LINE
  8
0
 10
55.9369
 20
1374.09
 11
56.5451
 21
1374.24
  0
LINE
  8
0
 10
56.5451
 20
1374.24
 11
57.1289
 21
1374.48
  0
LINE
  8
0
 10
57.1289
 20
1374.48
 11
57.6791
 21
1374.78
  0
LINE
  8
0
 10
57.6791
 20
1374.78
 11
58.1871
 21
1375.15
  0
LINE
  8
0
 10
58.1871
 20
1375.15
 11
58.6448
 21
1375.58
  0
LINE
  8
0
 10
58.6448
 20
1375.58
 11
59.0451
 21
1376.06
  0
LINE
  8
0
 10
59.0451
 20
1376.06
 11
59.3815
 21
1376.59
  0
LINE
  8
0
 10
59.3815
 20
1376.59
 11
59.6489
 21
1377.16
  0
LINE
  8
0
 10
59.6489
 20
1377.16
 11
59.8429
 21
1377.76
  0
LINE
  8
0
 10
59.8429
 20
1377.76
 11
59.9606
 21
1378.37
  0
LINE
  8
0
 10
59.9606
 20
1378.37
 11
60
 21
1379
  0
LINE
  8
0
 10
60
 20
1379
 11
60
 21
1609
  0
LINE
  8
0
 10
60
 20
1609
 11
59.9606
 21
1609.63
  0
LINE
  8
0
 10
59.9606
 20
1609.63
 11
59.8429
 21
1610.24
  0
LINE
  8
0
 10
59.8429
 20
1610.24
 11
59.6489
 21
1610.84
  0
LINE
  8
0
 10
59.6489
 20
1610.84
 11
59.3815
 21
1611.41
  0
LINE
  8
0
 10
59.3815
 20
1611.41
 11
59.0451
 21
1611.94
  0
LINE
  8
0
 10
59.0451
 20
1611.94
 11
58.6448
 21
1612.42
  0
LINE
  8
0
 10
58.6448
 20
1612.42
 11
58.1871
 21
1612.85
  0
LINE
  8
0
 10
58.1871
 20
1612.85
 11
57.6791
 21
1613.22
  0
LINE
  8
0
 10
57.6791
 20
1613.22
 11
57.1289
 21
1613.52
  0
LINE
  8
0
 10
57.1289
 20
1613.52
 11
56.5451
 21
1613.76
  0
LINE
  8
0
 10
56.5451
 20
1613.76
 11
55.9369
 21
1613.91
  0
LINE
  8
0
 10
55.9369
 20
1613.91
 11
55.3139
 21
1613.99
  0
LINE
  8
0
 10
55.3139
 20
1613.99
 11
-55.3139
 21
1613.99
  0
LINE
  8
0
 10
-55.3139
 20
1613.99
 11
-55.9369
 21
1613.91
  0
LINE
  8
0
 10
-55.9369
 20
1613.91
 11
-56.5451
 21
1613.76
  0
LINE
  8
0
 10
-56.5451
 20
1613.76
 11
-57.1289
 21
1613.52
  0
LINE
  8
0
 10
-57.1289
 20
1613.52
 11
-57.6791
 21
1613.22
  0
LINE
  8
0
 10
-57.6791
 20
1613.22
 11
-58.1871
 21
1612.85
  0
LINE
  8
0
 10
-58.1871
 20
1612.85
 11
-58.6448
 21
1612.42
  0
LINE
  8
0
 10
-58.6448
 20
1612.42
 11
-59.0451
 21
1611.94
  0
LINE
  8
0
 10
-59.0451
 20
1611.94
 11
-59.3815
 21
1611.41
  0
LINE
  8
0
 10
-59.3815
 20
1611.41
 11
-59.6489
 21
1610.84
  0
LINE
  8
0
 10
-59.6489
 20
1610.84
 11
-59.8429
 21
1610.24
  0
LINE
  8
0
 10
-59.8429
 20
1610.24
 11
-59.9606
 21
1609.63
  0
LINE
  8
0
 10
-59.9606
 20
1609.63
 11
-60
 21
1609
  0
LINE
  8
0
 10
-60
 20
1609
 11
-60
 21
1379
  0
LINE
  8
0
 10
-60
 20
1379
 11
-59.9606
 21
1378.37
  0
LINE
  8
0
 10
-59.9606
 20
1378.37
 11
-59.8429
 21
1377.76
  0
LINE
  8
0
 10
-59.8429
 20
1377.76
 11
-59.6489
 21
1377.16
  0
LINE
  8
0
 10
-59.6489
 20
1377.16
 11
-59.3815
 21
1376.59
  0
LINE
  8
0
 10
-59.3815
 20
1376.59
 11
-59.0451
 21
1376.06
  0
LINE
  8
0
 10
-59.0451
 20
1376.06
 11
-58.6448
 21
1375.58
  0
LINE
  8
0
 10
-58.6448
 20
1375.58
 11
-58.1871
 21
1375.15
  0
LINE
  8
0
 10
-58.1871
 20
1375.15
 11
-57.6791
 21
1374.78
  0
LINE
  8
0
 10
-57.6791
 20
1374.78
 11
-57.1289
 21
1374.48
  0
LINE
  8
0
 10
-57.1289
 20
1374.48
 11
-56.5451
 21
1374.24
  0
LINE
  8
0
 10
-56.5451
 20
1374.24
 11
-55.9369
 21
1374.09
  0
LINE
  8
0
 10
-55.9369
 20
1374.09
 11
-55.3139
 21
1374.01
  0
LINE
  8
0
 10
-55.3139
 20
1374.01
 11
55.3139
 21
1374.01
  0
LINE
  8
0
 10
55.3139
 20
1374.01
 11
55.9369
 21
1374.09
  0
LINE
  8
0
 10
-54.7432
 20
1375.64
 11
-55.2256
 21
1375.7
  0
LINE
  8
0
 10
-55.2256
 20
1375.7
 11
-55.6967
 21
1375.82
  0
LINE
  8
0
 10
-55.6967
 20
1375.82
 11
-56.1489
 21
1376
  0
LINE
  8
0
 10
-56.1489
 20
1376
 11
-56.5751
 21
1376.23
  0
LINE
  8
0
 10
-56.5751
 20
1376.23
 11
-56.9685
 21
1376.52
  0
LINE
  8
0
 10
-56.9685
 20
1376.52
 11
-57.323
 21
1376.85
  0
LINE
  8
0
 10
-57.323
 20
1376.85
 11
-57.633
 21
1377.22
  0
LINE
  8
0
 10
-57.633
 20
1377.22
 11
-57.8936
 21
1377.63
  0
LINE
  8
0
 10
-57.8936
 20
1377.63
 11
-58.1007
 21
1378.07
  0
LINE
  8
0
 10
-58.1007
 20
1378.07
 11
-58.251
 21
1378.54
  0
LINE
  8
0
 10
-58.251
 20
1378.54
 11
-58.3421
 21
1379.01
  0
LINE
  8
0
 10
-58.3421
 20
1379.01
 11
-58.3726
 21
1379.5
  0
LINE
  8
0
 10
-58.3726
 20
1379.5
 11
-58.3726
 21
1608.5
  0
LINE
  8
0
 10
-58.3726
 20
1608.5
 11
-58.3421
 21
1608.99
  0
LINE
  8
0
 10
-58.3421
 20
1608.99
 11
-58.251
 21
1609.46
  0
LINE
  8
0
 10
-58.251
 20
1609.46
 11
-58.1007
 21
1609.93
  0
LINE
  8
0
 10
-58.1007
 20
1609.93
 11
-57.8936
 21
1610.37
  0
LINE
  8
0
 10
-57.8936
 20
1610.37
 11
-57.633
 21
1610.78
  0
LINE
  8
0
 10
-57.633
 20
1610.78
 11
-57.323
 21
1611.15
  0
LINE
  8
0
 10
-57.323
 20
1611.15
 11
-56.9685
 21
1611.48
  0
LINE
  8
0
 10
-56.9685
 20
1611.48
 11
-56.5751
 21
1611.77
  0
LINE
  8
0
 10
-56.5751
 20
1611.77
 11
-56.1489
 21
1612
  0
LINE
  8
0
 10
-56.1489
 20
1612
 11
-55.6967
 21
1612.18
  0
LINE
  8
0
 10
-55.6967
 20
1612.18
 11
-55.2256
 21
1612.3
  0
LINE
  8
0
 10
-55.2256
 20
1612.3
 11
-54.7432
 21
1612.36
  0
LINE
  8
0
 10
-54.7432
 20
1612.36
 11
54.7432
 21
1612.36
  0
LINE
  8
0
 10
54.7432
 20
1612.36
 11
55.2256
 21
1612.3
  0
LINE
  8
0
 10
55.2256
 20
1612.3
 11
55.6967
 21
1612.18
  0
LINE
  8
0
 10
55.6967
 20
1612.18
 11
56.1489
 21
1612
  0
LINE
  8
0
 10
56.1489
 20
1612
 11
56.5751
 21
1611.77
  0
LINE
  8
0
 10
56.5751
 20
1611.77
 11
56.9685
 21
1611.48
  0
LINE
  8
0
 10
56.9685
 20
1611.48
 11
57.323
 21
1611.15
  0
LINE
  8
0
 10
57.323
 20
1611.15
 11
57.633
 21
1610.78
  0
LINE
  8
0
 10
57.633
 20
1610.78
 11
57.8936
 21
1610.37
  0
LINE
  8
0
 10
57.8936
 20
1610.37
 11
58.1007
 21
1609.93
  0
LINE
  8
0
 10
58.1007
 20
1609.93
 11
58.251
 21
1609.46
  0
LINE
  8
0
 10
58.251
 20
1609.46
 11
58.3421
 21
1608.99
  0
LINE
  8
0
 10
58.3421
 20
1608.99
 11
58.3726
 21
1608.5
  0
LINE
  8
0
 10
58.3726
 20
1608.5
 11
58.3726
 21
1379.5
  0
LINE
  8
0
 10
58.3726
 20
1379.5
 11
58.3421
 21
1379.01
  0
LINE
  8
0
 10
58.3421
 20
1379.01
 11
58.251
 21
1378.54
  0
LINE
  8
0
 10
58.251
 20
1378.54
 11
58.1007
 21
1378.07
  0
LINE
  8
0
 10
58.1007
 20
1378.07
 11
57.8936
 21
1377.63
  0
LINE
  8
0
 10
57.8936
 20
1377.63
 11
57.633
 21
1377.22
  0
LINE
  8
0
 10
57.633
 20
1377.22
 11
57.323
 21
1376.85
  0
LINE
  8
0
 10
57.323
 20
1376.85
 11
56.9685
 21
1376.52
  0
LINE
  8
0
 10
56.9685
 20
1376.52
 11
56.5751
 21
1376.23
  0
LINE
  8
0
 10
56.5751
 20
1376.23
 11
56.1489
 21
1376
  0
LINE
  8
0
 10
56.1489
 20
1376
 11
55.6967
 21
1375.82
  0
LINE
  8
0
 10
55.6967
 20
1375.82
 11
55.2256
 21
1375.7
  0
LINE
  8
0
 10
55.2256
 20
1375.7
 11
54.7432
 21
1375.64
  0
LINE
  8
0
 10
54.7432
 20
1375.64
 11
-54.7432
 21
1375.64
  0
LINE
  8
0
 10
55.9369
 20
1125.09
 11
56.5451
 21
1125.24
  0
LINE
  8
0
 10
56.5451
 20
1125.24
 11
57.1289
 21
1125.48
  0
LINE
  8
0
 10
57.1289
 20
1125.48
 11
57.6791
 21
1125.78
  0
LINE
  8
0
 10
57.6791
 20
1125.78
 11
58.1871
 21
1126.15
  0
LINE
  8
0
 10
58.1871
 20
1126.15
 11
58.6448
 21
1126.58
  0
LINE
  8
0
 10
58.6448
 20
1126.58
 11
59.0451
 21
1127.06
  0
LINE
  8
0
 10
59.0451
 20
1127.06
 11
59.3815
 21
1127.59
  0
LINE
  8
0
 10
59.3815
 20
1127.59
 11
59.6489
 21
1128.16
  0
LINE
  8
0
 10
59.6489
 20
1128.16
 11
59.8429
 21
1128.76
  0
LINE
  8
0
 10
59.8429
 20
1128.76
 11
59.9606
 21
1129.37
  0
LINE
  8
0
 10
59.9606
 20
1129.37
 11
60
 21
1130
  0
LINE
  8
0
 10
60
 20
1130
 11
60
 21
1360
  0
LINE
  8
0
 10
60
 20
1360
 11
59.9606
 21
1360.63
  0
LINE
  8
0
 10
59.9606
 20
1360.63
 11
59.8429
 21
1361.24
  0
LINE
  8
0
 10
59.8429
 20
1361.24
 11
59.6489
 21
1361.84
  0
LINE
  8
0
 10
59.6489
 20
1361.84
 11
59.3815
 21
1362.41
  0
LINE
  8
0
 10
59.3815
 20
1362.41
 11
59.0451
 21
1362.94
  0
LINE
  8
0
 10
59.0451
 20
1362.94
 11
58.6448
 21
1363.42
  0
LINE
  8
0
 10
58.6448
 20
1363.42
 11
58.1871
 21
1363.85
  0
LINE
  8
0
 10
58.1871
 20
1363.85
 11
57.6791
 21
1364.22
  0
LINE
  8
0
 10
57.6791
 20
1364.22
 11
57.1289
 21
1364.52
  0
LINE
  8
0
 10
57.1289
 20
1364.52
 11
56.5451
 21
1364.76
  0
LINE
  8
0
 10
56.5451
 20
1364.76
 11
55.9369
 21
1364.91
  0
LINE
  8
0
 10
55.9369
 20
1364.91
 11
55.3139
 21
1364.99
  0
LINE
  8
0
 10
55.3139
 20
1364.99
 11
-55.3139
 21
1364.99
  0
LINE
  8
0
 10
-55.3139
 20
1364.99
 11
-55.9369
 21
1364.91
  0
LINE
  8
0
 10
-55.9369
 20
1364.91
 11
-56.5451
 21
1364.76
  0
LINE
  8
0
 10
-56.5451
 20
1364.76
 11
-57.1289
 21
1364.52
  0
LINE
  8
0
 10
-57.1289
 20
1364.52
 11
-57.6791
 21
1364.22
  0
LINE
  8
0
 10
-57.6791
 20
1364.22
 11
-58.1871
 21
1363.85
  0
LINE
  8
0
 10
-58.1871
 20
1363.85
 11
-58.6448
 21
1363.42
  0
LINE
  8
0
 10
-58.6448
 20
1363.42
 11
-59.0451
 21
1362.94
  0
LINE
  8
0
 10
-59.0451
 20
1362.94
 11
-59.3815
 21
1362.41
  0
LINE
  8
0
 10
-59.3815
 20
1362.41
 11
-59.6489
 21
1361.84
  0
LINE
  8
0
 10
-59.6489
 20
1361.84
 11
-59.8429
 21
1361.24
  0
LINE
  8
0
 10
-59.8429
 20
1361.24
 11
-59.9606
 21
1360.63
  0
LINE
  8
0
 10
-59.9606
 20
1360.63
 11
-60
 21
1360
  0
LINE
  8
0
 10
-60
 20
1360
 11
-60
 21
1130
  0
LINE
  8
0
 10
-60
 20
1130
 11
-59.9606
 21
1129.37
  0
LINE
  8
0
 10
-59.9606
 20
1129.37
 11
-59.8429
 21
1128.76
  0
LINE
  8
0
 10
-59.8429
 20
1128.76
 11
-59.6489
 21
1128.16
  0
LINE
  8
0
 10
-59.6489
 20
1128.16
 11
-59.3815
 21
1127.59
  0
LINE
  8
0
 10
-59.3815
 20
1127.59
 11
-59.0451
 21
1127.06
  0
LINE
  8
0
 10
-59.0451
 20
1127.06
 11
-58.6448
 21
1126.58
  0
LINE
  8
0
 10
-58.6448
 20
1126.58
 11
-58.1871
 21
1126.15
  0
LINE
  8
0
 10
-58.1871
 20
1126.15
 11
-57.6791
 21
1125.78
  0
LINE
  8
0
 10
-57.6791
 20
1125.78
 11
-57.1289
 21
1125.48
  0
LINE
  8
0
 10
-57.1289
 20
1125.48
 11
-56.5451
 21
1125.24
  0
LINE
  8
0
 10
-56.5451
 20
1125.24
 11
-55.9369
 21
1125.09
  0
LINE
  8
0
 10
-55.9369
 20
1125.09
 11
-55.3139
 21
1125.01
  0
LINE
  8
0
 10
-55.3139
 20
1125.01
 11
55.3139
 21
1125.01
  0
LINE
  8
0
 10
55.3139
 20
1125.01
 11
55.9369
 21
1125.09
  0
LINE
  8
0
 10
52.3493
 20
1355.1
 11
52.0503
 21
1355.14
  0
LINE
  8
0
 10
52.0503
 20
1355.14
 11
51.7584
 21
1355.22
  0
LINE
  8
0
 10
51.7584
 20
1355.22
 11
51.4781
 21
1355.33
  0
LINE
  8
0
 10
51.4781
 20
1355.33
 11
51.214
 21
1355.47
  0
LINE
  8
0
 10
51.214
 20
1355.47
 11
50.9702
 21
1355.65
  0
LINE
  8
0
 10
50.9702
 20
1355.65
 11
50.7505
 21
1355.86
  0
LINE
  8
0
 10
50.7505
 20
1355.86
 11
50.5583
 21
1356.09
  0
LINE
  8
0
 10
50.5583
 20
1356.09
 11
50.3969
 21
1356.34
  0
LINE
  8
0
 10
50.3969
 20
1356.34
 11
50.2685
 21
1356.62
  0
LINE
  8
0
 10
50.2685
 20
1356.62
 11
50.1754
 21
1356.9
  0
LINE
  8
0
 10
50.1754
 20
1356.9
 11
50.1189
 21
1357.2
  0
LINE
  8
0
 10
50.1189
 20
1357.2
 11
50.1
 21
1357.5
  0
LINE
  8
0
 10
50.1
 20
1357.5
 11
50.1189
 21
1357.8
  0
LINE
  8
0
 10
50.1189
 20
1357.8
 11
50.1754
 21
1358.1
  0
LINE
  8
0
 10
50.1754
 20
1358.1
 11
50.2685
 21
1358.38
  0
LINE
  8
0
 10
50.2685
 20
1358.38
 11
50.3969
 21
1358.66
  0
LINE
  8
0
 10
50.3969
 20
1358.66
 11
50.5583
 21
1358.91
  0
LINE
  8
0
 10
50.5583
 20
1358.91
 11
50.7505
 21
1359.14
  0
LINE
  8
0
 10
50.7505
 20
1359.14
 11
50.9702
 21
1359.35
  0
LINE
  8
0
 10
50.9702
 20
1359.35
 11
51.214
 21
1359.53
  0
LINE
  8
0
 10
51.214
 20
1359.53
 11
51.4781
 21
1359.67
  0
LINE
  8
0
 10
51.4781
 20
1359.67
 11
51.7584
 21
1359.78
  0
LINE
  8
0
 10
51.7584
 20
1359.78
 11
52.0503
 21
1359.86
  0
LINE
  8
0
 10
52.0503
 20
1359.86
 11
52.3493
 21
1359.9
  0
LINE
  8
0
 10
52.3493
 20
1359.9
 11
52.6507
 21
1359.9
  0
LINE
  8
0
 10
52.6507
 20
1359.9
 11
52.9497
 21
1359.86
  0
LINE
  8
0
 10
52.9497
 20
1359.86
 11
53.2416
 21
1359.78
  0
LINE
  8
0
 10
53.2416
 20
1359.78
 11
53.5219
 21
1359.67
  0
LINE
  8
0
 10
53.5219
 20
1359.67
 11
53.786
 21
1359.53
  0
LINE
  8
0
 10
53.786
 20
1359.53
 11
54.0298
 21
1359.35
  0
LINE
  8
0
 10
54.0298
 20
1359.35
 11
54.2495
 21
1359.14
  0
LINE
  8
0
 10
54.2495
 20
1359.14
 11
54.4416
 21
1358.91
  0
LINE
  8
0
 10
54.4416
 20
1358.91
 11
54.6031
 21
1358.66
  0
LINE
  8
0
 10
54.6031
 20
1358.66
 11
54.7315
 21
1358.38
  0
LINE
  8
0
 10
54.7315
 20
1358.38
 11
54.8246
 21
1358.1
  0
LINE
  8
0
 10
54.8246
 20
1358.1
 11
54.8811
 21
1357.8
  0
LINE
  8
0
 10
54.8811
 20
1357.8
 11
54.9
 21
1357.5
  0
LINE
  8
0
 10
54.9
 20
1357.5
 11
54.8811
 21
1357.2
  0
LINE
  8
0
 10
54.8811
 20
1357.2
 11
54.8246
 21
1356.9
  0
LINE
  8
0
 10
54.8246
 20
1356.9
 11
54.7315
 21
1356.62
  0
LINE
  8
0
 10
54.7315
 20
1356.62
 11
54.6031
 21
1356.34
  0
LINE
  8
0
 10
54.6031
 20
1356.34
 11
54.4416
 21
1356.09
  0
LINE
  8
0
 10
54.4416
 20
1356.09
 11
54.2495
 21
1355.86
  0
LINE
  8
0
 10
54.2495
 20
1355.86
 11
54.0298
 21
1355.65
  0
LINE
  8
0
 10
54.0298
 20
1355.65
 11
53.786
 21
1355.47
  0
LINE
  8
0
 10
53.786
 20
1355.47
 11
53.5219
 21
1355.33
  0
LINE
  8
0
 10
53.5219
 20
1355.33
 11
53.2416
 21
1355.22
  0
LINE
  8
0
 10
53.2416
 20
1355.22
 11
52.9497
 21
1355.14
  0
LINE
  8
0
 10
52.9497
 20
1355.14
 11
52.6507
 21
1355.1
  0
LINE
  8
0
 10
52.6507
 20
1355.1
 11
52.3493
 21
1355.1
  0
LINE
  8
0
 10
-52.6507
 20
1355.1
 11
-52.9497
 21
1355.14
  0
LINE
  8
0
 10
-52.9497
 20
1355.14
 11
-53.2416
 21
1355.22
  0
LINE
  8
0
 10
-53.2416
 20
1355.22
 11
-53.5219
 21
1355.33
  0
LINE
  8
0
 10
-53.5219
 20
1355.33
 11
-53.786
 21
1355.47
  0
LINE
  8
0
 10
-53.786
 20
1355.47
 11
-54.0298
 21
1355.65
  0
LINE
  8
0
 10
-54.0298
 20
1355.65
 11
-54.2495
 21
1355.86
  0
LINE
  8
0
 10
-54.2495
 20
1355.86
 11
-54.4416
 21
1356.09
  0
LINE
  8
0
 10
-54.4416
 20
1356.09
 11
-54.6031
 21
1356.34
  0
LINE
  8
0
 10
-54.6031
 20
1356.34
 11
-54.7315
 21
1356.62
  0
LINE
  8
0
 10
-54.7315
 20
1356.62
 11
-54.8246
 21
1356.9
  0
LINE
  8
0
 10
-54.8246
 20
1356.9
 11
-54.8811
 21
1357.2
  0
LINE
  8
0
 10
-54.8811
 20
1357.2
 11
-54.9
 21
1357.5
  0
LINE
  8
0
 10
-54.9
 20
1357.5
 11
-54.8811
 21
1357.8
  0
LINE
  8
0
 10
-54.8811
 20
1357.8
 11
-54.8246
 21
1358.1
  0
LINE
  8
0
 10
-54.8246
 20
1358.1
 11
-54.7315
 21
1358.38
  0
LINE
  8
0
 10
-54.7315
 20
1358.38
 11
-54.6031
 21
1358.66
  0
LINE
  8
0
 10
-54.6031
 20
1358.66
 11
-54.4416
 21
1358.91
  0
LINE
  8
0
 10
-54.4416
 20
1358.91
 11
-54.2495
 21
1359.14
  0
LINE
  8
0
 10
-54.2495
 20
1359.14
 11
-54.0298
 21
1359.35
  0
LINE
  8
0
 10
-54.0298
 20
1359.35
 11
-53.786
 21
1359.53
  0
LINE
  8
0
 10
-53.786
 20
1359.53
 11
-53.5219
 21
1359.67
  0
LINE
  8
0
 10
-53.5219
 20
1359.67
 11
-53.2416
 21
1359.78
  0
LINE
  8
0
 10
-53.2416
 20
1359.78
 11
-52.9497
 21
1359.86
  0
LINE
  8
0
 10
-52.9497
 20
1359.86
 11
-52.6507
 21
1359.9
  0
LINE
  8
0
 10
-52.6507
 20
1359.9
 11
-52.3493
 21
1359.9
  0
LINE
  8
0
 10
-52.3493
 20
1359.9
 11
-52.0503
 21
1359.86
  0
LINE
  8
0
 10
-52.0503
 20
1359.86
 11
-51.7584
 21
1359.78
  0
LINE
  8
0
 10
-51.7584
 20
1359.78
 11
-51.4781
 21
1359.67
  0
LINE
  8
0
 10
-51.4781
 20
1359.67
 11
-51.214
 21
1359.53
  0
LINE
  8
0
 10
-51.214
 20
1359.53
 11
-50.9702
 21
1359.35
  0
LINE
  8
0
 10
-50.9702
 20
1359.35
 11
-50.7505
 21
1359.14
  0
LINE
  8
0
 10
-50.7505
 20
1359.14
 11
-50.5583
 21
1358.91
  0
LINE
  8
0
 10
-50.5583
 20
1358.91
 11
-50.3969
 21
1358.66
  0
LINE
  8
0
 10
-50.3969
 20
1358.66
 11
-50.2685
 21
1358.38
  0
LINE
  8
0
 10
-50.2685
 20
1358.38
 11
-50.1754
 21
1358.1
  0
LINE
  8
0
 10
-50.1754
 20
1358.1
 11
-50.1189
 21
1357.8
  0
LINE
  8
0
 10
-50.1189
 20
1357.8
 11
-50.1
 21
1357.5
  0
LINE
  8
0
 10
-50.1
 20
1357.5
 11
-50.1189
 21
1357.2
  0
LINE
  8
0
 10
-50.1189
 20
1357.2
 11
-50.1754
 21
1356.9
  0
LINE
  8
0
 10
-50.1754
 20
1356.9
 11
-50.2685
 21
1356.62
  0
LINE
  8
0
 10
-50.2685
 20
1356.62
 11
-50.3969
 21
1356.34
  0
LINE
  8
0
 10
-50.3969
 20
1356.34
 11
-50.5583
 21
1356.09
  0
LINE
  8
0
 10
-50.5583
 20
1356.09
 11
-50.7505
 21
1355.86
  0
LINE
  8
0
 10
-50.7505
 20
1355.86
 11
-50.9702
 21
1355.65
  0
LINE
  8
0
 10
-50.9702
 20
1355.65
 11
-51.214
 21
1355.47
  0
LINE
  8
0
 10
-51.214
 20
1355.47
 11
-51.4781
 21
1355.33
  0
LINE
  8
0
 10
-51.4781
 20
1355.33
 11
-51.7584
 21
1355.22
  0
LINE
  8
0
 10
-51.7584
 20
1355.22
 11
-52.0503
 21
1355.14
  0
LINE
  8
0
 10
-52.0503
 20
1355.14
 11
-52.3493
 21
1355.1
  0
LINE
  8
0
 10
-52.3493
 20
1355.1
 11
-52.6507
 21
1355.1
  0
LINE
  8
0
 10
52.3493
 20
1130.1
 11
52.0503
 21
1130.14
  0
LINE
  8
0
 10
52.0503
 20
1130.14
 11
51.7584
 21
1130.22
  0
LINE
  8
0
 10
51.7584
 20
1130.22
 11
51.4781
 21
1130.33
  0
LINE
  8
0
 10
51.4781
 20
1130.33
 11
51.214
 21
1130.47
  0
LINE
  8
0
 10
51.214
 20
1130.47
 11
50.9702
 21
1130.65
  0
LINE
  8
0
 10
50.9702
 20
1130.65
 11
50.7505
 21
1130.86
  0
LINE
  8
0
 10
50.7505
 20
1130.86
 11
50.5583
 21
1131.09
  0
LINE
  8
0
 10
50.5583
 20
1131.09
 11
50.3969
 21
1131.34
  0
LINE
  8
0
 10
50.3969
 20
1131.34
 11
50.2685
 21
1131.62
  0
LINE
  8
0
 10
50.2685
 20
1131.62
 11
50.1754
 21
1131.9
  0
LINE
  8
0
 10
50.1754
 20
1131.9
 11
50.1189
 21
1132.2
  0
LINE
  8
0
 10
50.1189
 20
1132.2
 11
50.1
 21
1132.5
  0
LINE
  8
0
 10
50.1
 20
1132.5
 11
50.1189
 21
1132.8
  0
LINE
  8
0
 10
50.1189
 20
1132.8
 11
50.1754
 21
1133.1
  0
LINE
  8
0
 10
50.1754
 20
1133.1
 11
50.2685
 21
1133.38
  0
LINE
  8
0
 10
50.2685
 20
1133.38
 11
50.3969
 21
1133.66
  0
LINE
  8
0
 10
50.3969
 20
1133.66
 11
50.5583
 21
1133.91
  0
LINE
  8
0
 10
50.5583
 20
1133.91
 11
50.7505
 21
1134.14
  0
LINE
  8
0
 10
50.7505
 20
1134.14
 11
50.9702
 21
1134.35
  0
LINE
  8
0
 10
50.9702
 20
1134.35
 11
51.214
 21
1134.53
  0
LINE
  8
0
 10
51.214
 20
1134.53
 11
51.4781
 21
1134.67
  0
LINE
  8
0
 10
51.4781
 20
1134.67
 11
51.7584
 21
1134.78
  0
LINE
  8
0
 10
51.7584
 20
1134.78
 11
52.0503
 21
1134.86
  0
LINE
  8
0
 10
52.0503
 20
1134.86
 11
52.3493
 21
1134.9
  0
LINE
  8
0
 10
52.3493
 20
1134.9
 11
52.6507
 21
1134.9
  0
LINE
  8
0
 10
52.6507
 20
1134.9
 11
52.9497
 21
1134.86
  0
LINE
  8
0
 10
52.9497
 20
1134.86
 11
53.2416
 21
1134.78
  0
LINE
  8
0
 10
53.2416
 20
1134.78
 11
53.5219
 21
1134.67
  0
LINE
  8
0
 10
53.5219
 20
1134.67
 11
53.786
 21
1134.53
  0
LINE
  8
0
 10
53.786
 20
1134.53
 11
54.0298
 21
1134.35
  0
LINE
  8
0
 10
54.0298
 20
1134.35
 11
54.2495
 21
1134.14
  0
LINE
  8
0
 10
54.2495
 20
1134.14
 11
54.4416
 21
1133.91
  0
LINE
  8
0
 10
54.4416
 20
1133.91
 11
54.6031
 21
1133.66
  0
LINE
  8
0
 10
54.6031
 20
1133.66
 11
54.7315
 21
1133.38
  0
LINE
  8
0
 10
54.7315
 20
1133.38
 11
54.8246
 21
1133.1
  0
LINE
  8
0
 10
54.8246
 20
1133.1
 11
54.8811
 21
1132.8
  0
LINE
  8
0
 10
54.8811
 20
1132.8
 11
54.9
 21
1132.5
  0
LINE
  8
0
 10
54.9
 20
1132.5
 11
54.8811
 21
1132.2
  0
LINE
  8
0
 10
54.8811
 20
1132.2
 11
54.8246
 21
1131.9
  0
LINE
  8
0
 10
54.8246
 20
1131.9
 11
54.7315
 21
1131.62
  0
LINE
  8
0
 10
54.7315
 20
1131.62
 11
54.6031
 21
1131.34
  0
LINE
  8
0
 10
54.6031
 20
1131.34
 11
54.4416
 21
1131.09
  0
LINE
  8
0
 10
54.4416
 20
1131.09
 11
54.2495
 21
1130.86
  0
LINE
  8
0
 10
54.2495
 20
1130.86
 11
54.0298
 21
1130.65
  0
LINE
  8
0
 10
54.0298
 20
1130.65
 11
53.786
 21
1130.47
  0
LINE
  8
0
 10
53.786
 20
1130.47
 11
53.5219
 21
1130.33
  0
LINE
  8
0
 10
53.5219
 20
1130.33
 11
53.2416
 21
1130.22
  0
LINE
  8
0
 10
53.2416
 20
1130.22
 11
52.9497
 21
1130.14
  0
LINE
  8
0
 10
52.9497
 20
1130.14
 11
52.6507
 21
1130.1
  0
LINE
  8
0
 10
52.6507
 20
1130.1
 11
52.3493
 21
1130.1
  0
LINE
  8
0
 10
-52.6507
 20
1130.1
 11
-52.9497
 21
1130.14
  0
LINE
  8
0
 10
-52.9497
 20
1130.14
 11
-53.2416
 21
1130.22
  0
LINE
  8
0
 10
-53.2416
 20
1130.22
 11
-53.5219
 21
1130.33
  0
LINE
  8
0
 10
-53.5219
 20
1130.33
 11
-53.786
 21
1130.47
  0
LINE
  8
0
 10
-53.786
 20
1130.47
 11
-54.0298
 21
1130.65
  0
LINE
  8
0
 10
-54.0298
 20
1130.65
 11
-54.2495
 21
1130.86
  0
LINE
  8
0
 10
-54.2495
 20
1130.86
 11
-54.4416
 21
1131.09
  0
LINE
  8
0
 10
-54.4416
 20
1131.09
 11
-54.6031
 21
1131.34
  0
LINE
  8
0
 10
-54.6031
 20
1131.34
 11
-54.7315
 21
1131.62
  0
LINE
  8
0
 10
-54.7315
 20
1131.62
 11
-54.8246
 21
1131.9
  0
LINE
  8
0
 10
-54.8246
 20
1131.9
 11
-54.8811
 21
1132.2
  0
LINE
  8
0
 10
-54.8811
 20
1132.2
 11
-54.9
 21
1132.5
  0
LINE
  8
0
 10
-54.9
 20
1132.5
 11
-54.8811
 21
1132.8
  0
LINE
  8
0
 10
-54.8811
 20
1132.8
 11
-54.8246
 21
1133.1
  0
LINE
  8
0
 10
-54.8246
 20
1133.1
 11
-54.7315
 21
1133.38
  0
LINE
  8
0
 10
-54.7315
 20
1133.38
 11
-54.6031
 21
1133.66
  0
LINE
  8
0
 10
-54.6031
 20
1133.66
 11
-54.4416
 21
1133.91
  0
LINE
  8
0
 10
-54.4416
 20
1133.91
 11
-54.2495
 21
1134.14
  0
LINE
  8
0
 10
-54.2495
 20
1134.14
 11
-54.0298
 21
1134.35
  0
LINE
  8
0
 10
-54.0298
 20
1134.35
 11
-53.786
 21
1134.53
  0
LINE
  8
0
 10
-53.786
 20
1134.53
 11
-53.5219
 21
1134.67
  0
LINE
  8
0
 10
-53.5219
 20
1134.67
 11
-53.2416
 21
1134.78
  0
LINE
  8
0
 10
-53.2416
 20
1134.78
 11
-52.9497
 21
1134.86
  0
LINE
  8
0
 10
-52.9497
 20
1134.86
 11
-52.6507
 21
1134.9
  0
LINE
  8
0
 10
-52.6507
 20
1134.9
 11
-52.3493
 21
1134.9
  0
LINE
  8
0
 10
-52.3493
 20
1134.9
 11
-52.0503
 21
1134.86
  0
LINE
  8
0
 10
-52.0503
 20
1134.86
 11
-51.7584
 21
1134.78
  0
LINE
  8
0
 10
-51.7584
 20
1134.78
 11
-51.4781
 21
1134.67
  0
LINE
  8
0
 10
-51.4781
 20
1134.67
 11
-51.214
 21
1134.53
  0
LINE
  8
0
 10
-51.214
 20
1134.53
 11
-50.9702
 21
1134.35
  0
LINE
  8
0
 10
-50.9702
 20
1134.35
 11
-50.7505
 21
1134.14
  0
LINE
  8
0
 10
-50.7505
 20
1134.14
 11
-50.5583
 21
1133.91
  0
LINE
  8
0
 10
-50.5583
 20
1133.91
 11
-50.3969
 21
1133.66
  0
LINE
  8
0
 10
-50.3969
 20
1133.66
 11
-50.2685
 21
1133.38
  0
LINE
  8
0
 10
-50.2685
 20
1133.38
 11
-50.1754
 21
1133.1
  0
LINE
  8
0
 10
-50.1754
 20
1133.1
 11
-50.1189
 21
1132.8
  0
LINE
  8
0
 10
-50.1189
 20
1132.8
 11
-50.1
 21
1132.5
  0
LINE
  8
0
 10
-50.1
 20
1132.5
 11
-50.1189
 21
1132.2
  0
LINE
  8
0
 10
-50.1189
 20
1132.2
 11
-50.1754
 21
1131.9
  0
LINE
  8
0
 10
-50.1754
 20
1131.9
 11
-50.2685
 21
1131.62
  0
LINE
  8
0
 10
-50.2685
 20
1131.62
 11
-50.3969
 21
1131.34
  0
LINE
  8
0
 10
-50.3969
 20
1131.34
 11
-50.5583
 21
1131.09
  0
LINE
  8
0
 10
-50.5583
 20
1131.09
 11
-50.7505
 21
1130.86
  0
LINE
  8
0
 10
-50.7505
 20
1130.86
 11
-50.9702
 21
1130.65
  0
LINE
  8
0
 10
-50.9702
 20
1130.65
 11
-51.214
 21
1130.47
  0
LINE
  8
0
 10
-51.214
 20
1130.47
 11
-51.4781
 21
1130.33
  0
LINE
  8
0
 10
-51.4781
 20
1130.33
 11
-51.7584
 21
1130.22
  0
LINE
  8
0
 10
-51.7584
 20
1130.22
 11
-52.0503
 21
1130.14
  0
LINE
  8
0
 10
-52.0503
 20
1130.14
 11
-52.3493
 21
1130.1
  0
LINE
  8
0
 10
-52.3493
 20
1130.1
 11
-52.6507
 21
1130.1
  0
LINE
  8
0
 10
55.9369
 20
876.089
 11
56.5451
 21
876.245
  0
LINE
  8
0
 10
56.5451
 20
876.245
 11
57.1289
 21
876.476
  0
LINE
  8
0
 10
57.1289
 20
876.476
 11
57.6791
 21
876.778
  0
LINE
  8
0
 10
57.6791
 20
876.778
 11
58.1871
 21
877.147
  0
LINE
  8
0
 10
58.1871
 20
877.147
 11
58.6448
 21
877.577
  0
LINE
  8
0
 10
58.6448
 20
877.577
 11
59.0451
 21
878.061
  0
LINE
  8
0
 10
59.0451
 20
878.061
 11
59.3815
 21
878.591
  0
LINE
  8
0
 10
59.3815
 20
878.591
 11
59.6489
 21
879.159
  0
LINE
  8
0
 10
59.6489
 20
879.159
 11
59.8429
 21
879.757
  0
LINE
  8
0
 10
59.8429
 20
879.757
 11
59.9606
 21
880.373
  0
LINE
  8
0
 10
59.9606
 20
880.373
 11
60
 21
881
  0
LINE
  8
0
 10
60
 20
881
 11
60
 21
1111
  0
LINE
  8
0
 10
60
 20
1111
 11
59.9606
 21
1111.63
  0
LINE
  8
0
 10
59.9606
 20
1111.63
 11
59.8429
 21
1112.24
  0
LINE
  8
0
 10
59.8429
 20
1112.24
 11
59.6489
 21
1112.84
  0
LINE
  8
0
 10
59.6489
 20
1112.84
 11
59.3815
 21
1113.41
  0
LINE
  8
0
 10
59.3815
 20
1113.41
 11
59.0451
 21
1113.94
  0
LINE
  8
0
 10
59.0451
 20
1113.94
 11
58.6448
 21
1114.42
  0
LINE
  8
0
 10
58.6448
 20
1114.42
 11
58.1871
 21
1114.85
  0
LINE
  8
0
 10
58.1871
 20
1114.85
 11
57.6791
 21
1115.22
  0
LINE
  8
0
 10
57.6791
 20
1115.22
 11
57.1289
 21
1115.52
  0
LINE
  8
0
 10
57.1289
 20
1115.52
 11
56.5451
 21
1115.76
  0
LINE
  8
0
 10
56.5451
 20
1115.76
 11
55.9369
 21
1115.91
  0
LINE
  8
0
 10
55.9369
 20
1115.91
 11
55.3139
 21
1115.99
  0
LINE
  8
0
 10
55.3139
 20
1115.99
 11
-55.3139
 21
1115.99
  0
LINE
  8
0
 10
-55.3139
 20
1115.99
 11
-55.9369
 21
1115.91
  0
LINE
  8
0
 10
-55.9369
 20
1115.91
 11
-56.5451
 21
1115.76
  0
LINE
  8
0
 10
-56.5451
 20
1115.76
 11
-57.1289
 21
1115.52
  0
LINE
  8
0
 10
-57.1289
 20
1115.52
 11
-57.6791
 21
1115.22
  0
LINE
  8
0
 10
-57.6791
 20
1115.22
 11
-58.1871
 21
1114.85
  0
LINE
  8
0
 10
-58.1871
 20
1114.85
 11
-58.6448
 21
1114.42
  0
LINE
  8
0
 10
-58.6448
 20
1114.42
 11
-59.0451
 21
1113.94
  0
LINE
  8
0
 10
-59.0451
 20
1113.94
 11
-59.3815
 21
1113.41
  0
LINE
  8
0
 10
-59.3815
 20
1113.41
 11
-59.6489
 21
1112.84
  0
LINE
  8
0
 10
-59.6489
 20
1112.84
 11
-59.8429
 21
1112.24
  0
LINE
  8
0
 10
-59.8429
 20
1112.24
 11
-59.9606
 21
1111.63
  0
LINE
  8
0
 10
-59.9606
 20
1111.63
 11
-60
 21
1111
  0
LINE
  8
0
 10
-60
 20
1111
 11
-60
 21
881
  0
LINE
  8
0
 10
-60
 20
881
 11
-59.9606
 21
880.373
  0
LINE
  8
0
 10
-59.9606
 20
880.373
 11
-59.8429
 21
879.757
  0
LINE
  8
0
 10
-59.8429
 20
879.757
 11
-59.6489
 21
879.159
  0
LINE
  8
0
 10
-59.6489
 20
879.159
 11
-59.3815
 21
878.591
  0
LINE
  8
0
 10
-59.3815
 20
878.591
 11
-59.0451
 21
878.061
  0
LINE
  8
0
 10
-59.0451
 20
878.061
 11
-58.6448
 21
877.577
  0
LINE
  8
0
 10
-58.6448
 20
877.577
 11
-58.1871
 21
877.147
  0
LINE
  8
0
 10
-58.1871
 20
877.147
 11
-57.6791
 21
876.778
  0
LINE
  8
0
 10
-57.6791
 20
876.778
 11
-57.1289
 21
876.476
  0
LINE
  8
0
 10
-57.1289
 20
876.476
 11
-56.5451
 21
876.245
  0
LINE
  8
0
 10
-56.5451
 20
876.245
 11
-55.9369
 21
876.089
  0
LINE
  8
0
 10
-55.9369
 20
876.089
 11
-55.3139
 21
876.01
  0
LINE
  8
0
 10
-55.3139
 20
876.01
 11
55.3139
 21
876.01
  0
LINE
  8
0
 10
55.3139
 20
876.01
 11
55.9369
 21
876.089
  0
LINE
  8
0
 10
-52.613
 20
1106.7
 11
-52.8373
 21
1106.73
  0
LINE
  8
0
 10
-52.8373
 20
1106.73
 11
-53.0562
 21
1106.79
  0
LINE
  8
0
 10
-53.0562
 20
1106.79
 11
-53.2664
 21
1106.87
  0
LINE
  8
0
 10
-53.2664
 20
1106.87
 11
-53.4645
 21
1106.98
  0
LINE
  8
0
 10
-53.4645
 20
1106.98
 11
-53.6474
 21
1107.11
  0
LINE
  8
0
 10
-53.6474
 20
1107.11
 11
-53.8121
 21
1107.27
  0
LINE
  8
0
 10
-53.8121
 20
1107.27
 11
-53.9562
 21
1107.44
  0
LINE
  8
0
 10
-53.9562
 20
1107.44
 11
-54.0773
 21
1107.63
  0
LINE
  8
0
 10
-54.0773
 20
1107.63
 11
-54.1736
 21
1107.84
  0
LINE
  8
0
 10
-54.1736
 20
1107.84
 11
-54.2434
 21
1108.05
  0
LINE
  8
0
 10
-54.2434
 20
1108.05
 11
-54.2858
 21
1108.27
  0
LINE
  8
0
 10
-54.2858
 20
1108.27
 11
-54.3
 21
1108.5
  0
LINE
  8
0
 10
-54.3
 20
1108.5
 11
-54.2858
 21
1108.73
  0
LINE
  8
0
 10
-54.2858
 20
1108.73
 11
-54.2434
 21
1108.95
  0
LINE
  8
0
 10
-54.2434
 20
1108.95
 11
-54.1736
 21
1109.16
  0
LINE
  8
0
 10
-54.1736
 20
1109.16
 11
-54.0773
 21
1109.37
  0
LINE
  8
0
 10
-54.0773
 20
1109.37
 11
-53.9562
 21
1109.56
  0
LINE
  8
0
 10
-53.9562
 20
1109.56
 11
-53.8121
 21
1109.73
  0
LINE
  8
0
 10
-53.8121
 20
1109.73
 11
-53.6474
 21
1109.89
  0
LINE
  8
0
 10
-53.6474
 20
1109.89
 11
-53.4645
 21
1110.02
  0
LINE
  8
0
 10
-53.4645
 20
1110.02
 11
-53.2664
 21
1110.13
  0
LINE
  8
0
 10
-53.2664
 20
1110.13
 11
-53.0562
 21
1110.21
  0
LINE
  8
0
 10
-53.0562
 20
1110.21
 11
-52.8373
 21
1110.27
  0
LINE
  8
0
 10
-52.8373
 20
1110.27
 11
-52.613
 21
1110.3
  0
LINE
  8
0
 10
-52.613
 20
1110.3
 11
-52.387
 21
1110.3
  0
LINE
  8
0
 10
-52.387
 20
1110.3
 11
-52.1627
 21
1110.27
  0
LINE
  8
0
 10
-52.1627
 20
1110.27
 11
-51.9438
 21
1110.21
  0
LINE
  8
0
 10
-51.9438
 20
1110.21
 11
-51.7336
 21
1110.13
  0
LINE
  8
0
 10
-51.7336
 20
1110.13
 11
-51.5355
 21
1110.02
  0
LINE
  8
0
 10
-51.5355
 20
1110.02
 11
-51.3526
 21
1109.89
  0
LINE
  8
0
 10
-51.3526
 20
1109.89
 11
-51.1879
 21
1109.73
  0
LINE
  8
0
 10
-51.1879
 20
1109.73
 11
-51.0438
 21
1109.56
  0
LINE
  8
0
 10
-51.0438
 20
1109.56
 11
-50.9226
 21
1109.37
  0
LINE
  8
0
 10
-50.9226
 20
1109.37
 11
-50.8264
 21
1109.16
  0
LINE
  8
0
 10
-50.8264
 20
1109.16
 11
-50.7565
 21
1108.95
  0
LINE
  8
0
 10
-50.7565
 20
1108.95
 11
-50.7142
 21
1108.73
  0
LINE
  8
0
 10
-50.7142
 20
1108.73
 11
-50.7
 21
1108.5
  0
LINE
  8
0
 10
-50.7
 20
1108.5
 11
-50.7142
 21
1108.27
  0
LINE
  8
0
 10
-50.7142
 20
1108.27
 11
-50.7565
 21
1108.05
  0
LINE
  8
0
 10
-50.7565
 20
1108.05
 11
-50.8264
 21
1107.84
  0
LINE
  8
0
 10
-50.8264
 20
1107.84
 11
-50.9226
 21
1107.63
  0
LINE
  8
0
 10
-50.9226
 20
1107.63
 11
-51.0438
 21
1107.44
  0
LINE
  8
0
 10
-51.0438
 20
1107.44
 11
-51.1879
 21
1107.27
  0
LINE
  8
0
 10
-51.1879
 20
1107.27
 11
-51.3526
 21
1107.11
  0
LINE
  8
0
 10
-51.3526
 20
1107.11
 11
-51.5355
 21
1106.98
  0
LINE
  8
0
 10
-51.5355
 20
1106.98
 11
-51.7336
 21
1106.87
  0
LINE
  8
0
 10
-51.7336
 20
1106.87
 11
-51.9438
 21
1106.79
  0
LINE
  8
0
 10
-51.9438
 20
1106.79
 11
-52.1627
 21
1106.73
  0
LINE
  8
0
 10
-52.1627
 20
1106.73
 11
-52.387
 21
1106.7
  0
LINE
  8
0
 10
-52.387
 20
1106.7
 11
-52.613
 21
1106.7
  0
LINE
  8
0
 10
52.387
 20
1106.7
 11
52.1627
 21
1106.73
  0
LINE
  8
0
 10
52.1627
 20
1106.73
 11
51.9438
 21
1106.79
  0
LINE
  8
0
 10
51.9438
 20
1106.79
 11
51.7336
 21
1106.87
  0
LINE
  8
0
 10
51.7336
 20
1106.87
 11
51.5355
 21
1106.98
  0
LINE
  8
0
 10
51.5355
 20
1106.98
 11
51.3526
 21
1107.11
  0
LINE
  8
0
 10
51.3526
 20
1107.11
 11
51.1879
 21
1107.27
  0
LINE
  8
0
 10
51.1879
 20
1107.27
 11
51.0438
 21
1107.44
  0
LINE
  8
0
 10
51.0438
 20
1107.44
 11
50.9226
 21
1107.63
  0
LINE
  8
0
 10
50.9226
 20
1107.63
 11
50.8264
 21
1107.84
  0
LINE
  8
0
 10
50.8264
 20
1107.84
 11
50.7565
 21
1108.05
  0
LINE
  8
0
 10
50.7565
 20
1108.05
 11
50.7142
 21
1108.27
  0
LINE
  8
0
 10
50.7142
 20
1108.27
 11
50.7
 21
1108.5
  0
LINE
  8
0
 10
50.7
 20
1108.5
 11
50.7142
 21
1108.73
  0
LINE
  8
0
 10
50.7142
 20
1108.73
 11
50.7565
 21
1108.95
  0
LINE
  8
0
 10
50.7565
 20
1108.95
 11
50.8264
 21
1109.16
  0
LINE
  8
0
 10
50.8264
 20
1109.16
 11
50.9226
 21
1109.37
  0
LINE
  8
0
 10
50.9226
 20
1109.37
 11
51.0438
 21
1109.56
  0
LINE
  8
0
 10
51.0438
 20
1109.56
 11
51.1879
 21
1109.73
  0
LINE
  8
0
 10
51.1879
 20
1109.73
 11
51.3526
 21
1109.89
  0
LINE
  8
0
 10
51.3526
 20
1109.89
 11
51.5355
 21
1110.02
  0
LINE
  8
0
 10
51.5355
 20
1110.02
 11
51.7336
 21
1110.13
  0
LINE
  8
0
 10
51.7336
 20
1110.13
 11
51.9438
 21
1110.21
  0
LINE
  8
0
 10
51.9438
 20
1110.21
 11
52.1627
 21
1110.27
  0
LINE
  8
0
 10
52.1627
 20
1110.27
 11
52.387
 21
1110.3
  0
LINE
  8
0
 10
52.387
 20
1110.3
 11
52.613
 21
1110.3
  0
LINE
  8
0
 10
52.613
 20
1110.3
 11
52.8373
 21
1110.27
  0
LINE
  8
0
 10
52.8373
 20
1110.27
 11
53.0562
 21
1110.21
  0
LINE
  8
0
 10
53.0562
 20
1110.21
 11
53.2664
 21
1110.13
  0
LINE
  8
0
 10
53.2664
 20
1110.13
 11
53.4645
 21
1110.02
  0
LINE
  8
0
 10
53.4645
 20
1110.02
 11
53.6474
 21
1109.89
  0
LINE
  8
0
 10
53.6474
 20
1109.89
 11
53.8121
 21
1109.73
  0
LINE
  8
0
 10
53.8121
 20
1109.73
 11
53.9562
 21
1109.56
  0
LINE
  8
0
 10
53.9562
 20
1109.56
 11
54.0773
 21
1109.37
  0
LINE
  8
0
 10
54.0773
 20
1109.37
 11
54.1736
 21
1109.16
  0
LINE
  8
0
 10
54.1736
 20
1109.16
 11
54.2434
 21
1108.95
  0
LINE
  8
0
 10
54.2434
 20
1108.95
 11
54.2858
 21
1108.73
  0
LINE
  8
0
 10
54.2858
 20
1108.73
 11
54.3
 21
1108.5
  0
LINE
  8
0
 10
54.3
 20
1108.5
 11
54.2858
 21
1108.27
  0
LINE
  8
0
 10
54.2858
 20
1108.27
 11
54.2434
 21
1108.05
  0
LINE
  8
0
 10
54.2434
 20
1108.05
 11
54.1736
 21
1107.84
  0
LINE
  8
0
 10
54.1736
 20
1107.84
 11
54.0773
 21
1107.63
  0
LINE
  8
0
 10
54.0773
 20
1107.63
 11
53.9562
 21
1107.44
  0
LINE
  8
0
 10
53.9562
 20
1107.44
 11
53.8121
 21
1107.27
  0
LINE
  8
0
 10
53.8121
 20
1107.27
 11
53.6474
 21
1107.11
  0
LINE
  8
0
 10
53.6474
 20
1107.11
 11
53.4645
 21
1106.98
  0
LINE
  8
0
 10
53.4645
 20
1106.98
 11
53.2664
 21
1106.87
  0
LINE
  8
0
 10
53.2664
 20
1106.87
 11
53.0562
 21
1106.79
  0
LINE
  8
0
 10
53.0562
 20
1106.79
 11
52.8373
 21
1106.73
  0
LINE
  8
0
 10
52.8373
 20
1106.73
 11
52.613
 21
1106.7
  0
LINE
  8
0
 10
52.613
 20
1106.7
 11
52.387
 21
1106.7
  0
LINE
  8
0
 10
-52.613
 20
881.704
 11
-52.8373
 21
881.732
  0
LINE
  8
0
 10
-52.8373
 20
881.732
 11
-53.0562
 21
881.788
  0
LINE
  8
0
 10
-53.0562
 20
881.788
 11
-53.2664
 21
881.871
  0
LINE
  8
0
 10
-53.2664
 20
881.871
 11
-53.4645
 21
881.98
  0
LINE
  8
0
 10
-53.4645
 20
881.98
 11
-53.6474
 21
882.113
  0
LINE
  8
0
 10
-53.6474
 20
882.113
 11
-53.8121
 21
882.268
  0
LINE
  8
0
 10
-53.8121
 20
882.268
 11
-53.9562
 21
882.442
  0
LINE
  8
0
 10
-53.9562
 20
882.442
 11
-54.0773
 21
882.633
  0
LINE
  8
0
 10
-54.0773
 20
882.633
 11
-54.1736
 21
882.837
  0
LINE
  8
0
 10
-54.1736
 20
882.837
 11
-54.2434
 21
883.052
  0
LINE
  8
0
 10
-54.2434
 20
883.052
 11
-54.2858
 21
883.274
  0
LINE
  8
0
 10
-54.2858
 20
883.274
 11
-54.3
 21
883.5
  0
LINE
  8
0
 10
-54.3
 20
883.5
 11
-54.2858
 21
883.726
  0
LINE
  8
0
 10
-54.2858
 20
883.726
 11
-54.2434
 21
883.948
  0
LINE
  8
0
 10
-54.2434
 20
883.948
 11
-54.1736
 21
884.163
  0
LINE
  8
0
 10
-54.1736
 20
884.163
 11
-54.0773
 21
884.367
  0
LINE
  8
0
 10
-54.0773
 20
884.367
 11
-53.9562
 21
884.558
  0
LINE
  8
0
 10
-53.9562
 20
884.558
 11
-53.8121
 21
884.732
  0
LINE
  8
0
 10
-53.8121
 20
884.732
 11
-53.6474
 21
884.887
  0
LINE
  8
0
 10
-53.6474
 20
884.887
 11
-53.4645
 21
885.02
  0
LINE
  8
0
 10
-53.4645
 20
885.02
 11
-53.2664
 21
885.129
  0
LINE
  8
0
 10
-53.2664
 20
885.129
 11
-53.0562
 21
885.212
  0
LINE
  8
0
 10
-53.0562
 20
885.212
 11
-52.8373
 21
885.268
  0
LINE
  8
0
 10
-52.8373
 20
885.268
 11
-52.613
 21
885.296
  0
LINE
  8
0
 10
-52.613
 20
885.296
 11
-52.387
 21
885.296
  0
LINE
  8
0
 10
-52.387
 20
885.296
 11
-52.1627
 21
885.268
  0
LINE
  8
0
 10
-52.1627
 20
885.268
 11
-51.9438
 21
885.212
  0
LINE
  8
0
 10
-51.9438
 20
885.212
 11
-51.7336
 21
885.129
  0
LINE
  8
0
 10
-51.7336
 20
885.129
 11
-51.5355
 21
885.02
  0
LINE
  8
0
 10
-51.5355
 20
885.02
 11
-51.3526
 21
884.887
  0
LINE
  8
0
 10
-51.3526
 20
884.887
 11
-51.1879
 21
884.732
  0
LINE
  8
0
 10
-51.1879
 20
884.732
 11
-51.0438
 21
884.558
  0
LINE
  8
0
 10
-51.0438
 20
884.558
 11
-50.9226
 21
884.367
  0
LINE
  8
0
 10
-50.9226
 20
884.367
 11
-50.8264
 21
884.163
  0
LINE
  8
0
 10
-50.8264
 20
884.163
 11
-50.7565
 21
883.948
  0
LINE
  8
0
 10
-50.7565
 20
883.948
 11
-50.7142
 21
883.726
  0
LINE
  8
0
 10
-50.7142
 20
883.726
 11
-50.7
 21
883.5
  0
LINE
  8
0
 10
-50.7
 20
883.5
 11
-50.7142
 21
883.274
  0
LINE
  8
0
 10
-50.7142
 20
883.274
 11
-50.7565
 21
883.052
  0
LINE
  8
0
 10
-50.7565
 20
883.052
 11
-50.8264
 21
882.837
  0
LINE
  8
0
 10
-50.8264
 20
882.837
 11
-50.9226
 21
882.633
  0
LINE
  8
0
 10
-50.9226
 20
882.633
 11
-51.0438
 21
882.442
  0
LINE
  8
0
 10
-51.0438
 20
882.442
 11
-51.1879
 21
882.268
  0
LINE
  8
0
 10
-51.1879
 20
882.268
 11
-51.3526
 21
882.113
  0
LINE
  8
0
 10
-51.3526
 20
882.113
 11
-51.5355
 21
881.98
  0
LINE
  8
0
 10
-51.5355
 20
881.98
 11
-51.7336
 21
881.871
  0
LINE
  8
0
 10
-51.7336
 20
881.871
 11
-51.9438
 21
881.788
  0
LINE
  8
0
 10
-51.9438
 20
881.788
 11
-52.1627
 21
881.732
  0
LINE
  8
0
 10
-52.1627
 20
881.732
 11
-52.387
 21
881.704
  0
LINE
  8
0
 10
-52.387
 20
881.704
 11
-52.613
 21
881.704
  0
LINE
  8
0
 10
52.387
 20
881.704
 11
52.1627
 21
881.732
  0
LINE
  8
0
 10
52.1627
 20
881.732
 11
51.9438
 21
881.788
  0
LINE
  8
0
 10
51.9438
 20
881.788
 11
51.7336
 21
881.871
  0
LINE
  8
0
 10
51.7336
 20
881.871
 11
51.5355
 21
881.98
  0
LINE
  8
0
 10
51.5355
 20
881.98
 11
51.3526
 21
882.113
  0
LINE
  8
0
 10
51.3526
 20
882.113
 11
51.1879
 21
882.268
  0
LINE
  8
0
 10
51.1879
 20
882.268
 11
51.0438
 21
882.442
  0
LINE
  8
0
 10
51.0438
 20
882.442
 11
50.9226
 21
882.633
  0
LINE
  8
0
 10
50.9226
 20
882.633
 11
50.8264
 21
882.837
  0
LINE
  8
0
 10
50.8264
 20
882.837
 11
50.7565
 21
883.052
  0
LINE
  8
0
 10
50.7565
 20
883.052
 11
50.7142
 21
883.274
  0
LINE
  8
0
 10
50.7142
 20
883.274
 11
50.7
 21
883.5
  0
LINE
  8
0
 10
50.7
 20
883.5
 11
50.7142
 21
883.726
  0
LINE
  8
0
 10
50.7142
 20
883.726
 11
50.7565
 21
883.948
  0
LINE
  8
0
 10
50.7565
 20
883.948
 11
50.8264
 21
884.163
  0
LINE
  8
0
 10
50.8264
 20
884.163
 11
50.9226
 21
884.367
  0
LINE
  8
0
 10
50.9226
 20
884.367
 11
51.0438
 21
884.558
  0
LINE
  8
0
 10
51.0438
 20
884.558
 11
51.1879
 21
884.732
  0
LINE
  8
0
 10
51.1879
 20
884.732
 11
51.3526
 21
884.887
  0
LINE
  8
0
 10
51.3526
 20
884.887
 11
51.5355
 21
885.02
  0
LINE
  8
0
 10
51.5355
 20
885.02
 11
51.7336
 21
885.129
  0
LINE
  8
0
 10
51.7336
 20
885.129
 11
51.9438
 21
885.212
  0
LINE
  8
0
 10
51.9438
 20
885.212
 11
52.1627
 21
885.268
  0
LINE
  8
0
 10
52.1627
 20
885.268
 11
52.387
 21
885.296
  0
LINE
  8
0
 10
52.387
 20
885.296
 11
52.613
 21
885.296
  0
LINE
  8
0
 10
52.613
 20
885.296
 11
52.8373
 21
885.268
  0
LINE
  8
0
 10
52.8373
 20
885.268
 11
53.0562
 21
885.212
  0
LINE
  8
0
 10
53.0562
 20
885.212
 11
53.2664
 21
885.129
  0
LINE
  8
0
 10
53.2664
 20
885.129
 11
53.4645
 21
885.02
  0
LINE
  8
0
 10
53.4645
 20
885.02
 11
53.6474
 21
884.887
  0
LINE
  8
0
 10
53.6474
 20
884.887
 11
53.8121
 21
884.732
  0
LINE
  8
0
 10
53.8121
 20
884.732
 11
53.9562
 21
884.558
  0
LINE
  8
0
 10
53.9562
 20
884.558
 11
54.0773
 21
884.367
  0
LINE
  8
0
 10
54.0773
 20
884.367
 11
54.1736
 21
884.163
  0
LINE
  8
0
 10
54.1736
 20
884.163
 11
54.2434
 21
883.948
  0
LINE
  8
0
 10
54.2434
 20
883.948
 11
54.2858
 21
883.726
  0
LINE
  8
0
 10
54.2858
 20
883.726
 11
54.3
 21
883.5
  0
LINE
  8
0
 10
54.3
 20
883.5
 11
54.2858
 21
883.274
  0
LINE
  8
0
 10
54.2858
 20
883.274
 11
54.2434
 21
883.052
  0
LINE
  8
0
 10
54.2434
 20
883.052
 11
54.1736
 21
882.837
  0
LINE
  8
0
 10
54.1736
 20
882.837
 11
54.0773
 21
882.633
  0
LINE
  8
0
 10
54.0773
 20
882.633
 11
53.9562
 21
882.442
  0
LINE
  8
0
 10
53.9562
 20
882.442
 11
53.8121
 21
882.268
  0
LINE
  8
0
 10
53.8121
 20
882.268
 11
53.6474
 21
882.113
  0
LINE
  8
0
 10
53.6474
 20
882.113
 11
53.4645
 21
881.98
  0
LINE
  8
0
 10
53.4645
 20
881.98
 11
53.2664
 21
881.871
  0
LINE
  8
0
 10
53.2664
 20
881.871
 11
53.0562
 21
881.788
  0
LINE
  8
0
 10
53.0562
 20
881.788
 11
52.8373
 21
881.732
  0
LINE
  8
0
 10
52.8373
 20
881.732
 11
52.613
 21
881.704
  0
LINE
  8
0
 10
52.613
 20
881.704
 11
52.387
 21
881.704
  0
ENDSEC
  0
SECTION
  2
OBJECTS
  0
DICTIONARY
  0
ENDSEC
  0
EOF
