<?xml version="1.0" standalone="no"?>
<!DOCTYPE svg PUBLIC "-//W3C//DTD SVG 1.1//EN" "http://www.w3.org/Graphics/SVG/1.1/DTD/svg11.dtd">
<svg width="226mm" height="468mm" viewBox="-113 -711 226 468" xmlns="http://www.w3.org/2000/svg" version="1.1">
<title>OpenSCAD Model</title>
<path d="
M -109.5,-561.425 L -109.045,-561.245 L -108.437,-561.089 L -107.814,-561.01 L 107.814,-561.01 L 108.437,-561.089
 L 109.045,-561.245 L 109.629,-561.476 L 110.179,-561.778 L 110.687,-562.147 L 111.145,-562.577 L 111.545,-563.061
 L 111.882,-563.591 L 112.149,-564.159 L 112.343,-564.757 L 112.461,-565.373 L 112.5,-566 L 112.5,-706
 L 112.461,-706.627 L 112.343,-707.243 L 112.149,-707.841 L 111.882,-708.409 L 111.545,-708.939 L 111.145,-709.423
 L 110.687,-709.853 L 110.179,-710.222 L 109.629,-710.524 L 109.045,-710.755 L 108.437,-710.911 L 107.814,-710.99
 L -107.814,-710.99 L -108.437,-710.911 L -109.045,-710.755 L -109.5,-710.575 L -109.5,-710.99 L -112.5,-710.99
 L -112.5,-561.01 L -109.5,-561.01 z
M -107.243,-562.635 L -107.726,-562.696 L -108.197,-562.817 L -108.649,-562.996 L -109.075,-563.23 L -109.469,-563.516
 L -109.823,-563.849 L -110.133,-564.224 L -110.394,-564.634 L -110.601,-565.074 L -110.751,-565.537 L -110.842,-566.015
 L -110.873,-566.5 L -110.873,-705.5 L -110.842,-705.985 L -110.751,-706.463 L -110.601,-706.926 L -110.394,-707.366
 L -110.133,-707.776 L -109.823,-708.151 L -109.469,-708.484 L -109.075,-708.77 L -108.649,-709.004 L -108.197,-709.183
 L -107.726,-709.304 L -107.243,-709.365 L 107.243,-709.365 L 107.726,-709.304 L 108.197,-709.183 L 108.649,-709.004
 L 109.075,-708.77 L 109.469,-708.484 L 109.823,-708.151 L 110.133,-707.776 L 110.394,-707.366 L 110.601,-706.926
 L 110.751,-706.463 L 110.842,-705.985 L 110.873,-705.5 L 110.873,-566.5 L 110.842,-566.015 L 110.751,-565.537
 L 110.601,-565.074 L 110.394,-564.634 L 110.133,-564.224 L 109.823,-563.849 L 109.469,-563.516 L 109.075,-563.23
 L 108.649,-562.996 L 108.197,-562.817 L 107.726,-562.696 L 107.243,-562.635 z
M 108.437,-402.089 L 109.045,-402.245 L 109.629,-402.476 L 110.179,-402.778 L 110.687,-403.147 L 111.145,-403.577
 L 111.545,-404.061 L 111.882,-404.591 L 112.149,-405.159 L 112.343,-405.757 L 112.461,-406.373 L 112.5,-407
 L 112.5,-547 L 112.461,-547.627 L 112.343,-548.243 L 112.149,-548.841 L 111.882,-549.409 L 111.545,-549.939
 L 111.145,-550.423 L 110.687,-550.853 L 110.179,-551.222 L 109.629,-551.524 L 109.045,-551.755 L 108.437,-551.911
 L 107.814,-551.99 L -107.814,-551.99 L -108.437,-551.911 L -109.045,-551.755 L -109.5,-551.575 L -109.5,-551.615
 L -112.5,-551.615 L -112.5,-402.385 L -109.5,-402.385 L -109.5,-402.425 L -109.045,-402.245 L -108.437,-402.089
 L -107.814,-402.01 L 107.814,-402.01 z
M -105.151,-542.105 L -105.45,-542.143 L -105.742,-542.217 L -106.022,-542.328 L -106.286,-542.474 L -106.53,-542.651
 L -106.75,-542.857 L -106.942,-543.089 L -107.103,-543.344 L -107.231,-543.617 L -107.325,-543.903 L -107.381,-544.199
 L -107.4,-544.5 L -107.381,-544.801 L -107.325,-545.097 L -107.231,-545.383 L -107.103,-545.656 L -106.942,-545.911
 L -106.75,-546.143 L -106.53,-546.349 L -106.286,-546.526 L -106.022,-546.672 L -105.742,-546.783 L -105.45,-546.857
 L -105.151,-546.895 L -104.849,-546.895 L -104.55,-546.857 L -104.258,-546.783 L -103.978,-546.672 L -103.714,-546.526
 L -103.47,-546.349 L -103.25,-546.143 L -103.058,-545.911 L -102.897,-545.656 L -102.769,-545.383 L -102.675,-545.097
 L -102.619,-544.801 L -102.6,-544.5 L -102.619,-544.199 L -102.675,-543.903 L -102.769,-543.617 L -102.897,-543.344
 L -103.058,-543.089 L -103.25,-542.857 L -103.47,-542.651 L -103.714,-542.474 L -103.978,-542.328 L -104.258,-542.217
 L -104.55,-542.143 L -104.849,-542.105 z
M 104.849,-542.105 L 104.55,-542.143 L 104.258,-542.217 L 103.978,-542.328 L 103.714,-542.474 L 103.47,-542.651
 L 103.25,-542.857 L 103.058,-543.089 L 102.897,-543.344 L 102.769,-543.617 L 102.675,-543.903 L 102.619,-544.199
 L 102.6,-544.5 L 102.619,-544.801 L 102.675,-545.097 L 102.769,-545.383 L 102.897,-545.656 L 103.058,-545.911
 L 103.25,-546.143 L 103.47,-546.349 L 103.714,-546.526 L 103.978,-546.672 L 104.258,-546.783 L 104.55,-546.857
 L 104.849,-546.895 L 105.151,-546.895 L 105.45,-546.857 L 105.742,-546.783 L 106.022,-546.672 L 106.286,-546.526
 L 106.53,-546.349 L 106.75,-546.143 L 106.942,-545.911 L 107.103,-545.656 L 107.231,-545.383 L 107.325,-545.097
 L 107.381,-544.801 L 107.4,-544.5 L 107.381,-544.199 L 107.325,-543.903 L 107.231,-543.617 L 107.103,-543.344
 L 106.942,-543.089 L 106.75,-542.857 L 106.53,-542.651 L 106.286,-542.474 L 106.022,-542.328 L 105.742,-542.217
 L 105.45,-542.143 L 105.151,-542.105 z
M 104.849,-407.105 L 104.55,-407.143 L 104.258,-407.217 L 103.978,-407.328 L 103.714,-407.474 L 103.47,-407.651
 L 103.25,-407.857 L 103.058,-408.089 L 102.897,-408.344 L 102.769,-408.617 L 102.675,-408.903 L 102.619,-409.199
 L 102.6,-409.5 L 102.619,-409.801 L 102.675,-410.097 L 102.769,-410.383 L 102.897,-410.656 L 103.058,-410.911
 L 103.25,-411.143 L 103.47,-411.349 L 103.714,-411.526 L 103.978,-411.672 L 104.258,-411.783 L 104.55,-411.857
 L 104.849,-411.895 L 105.151,-411.895 L 105.45,-411.857 L 105.742,-411.783 L 106.022,-411.672 L 106.286,-411.526
 L 106.53,-411.349 L 106.75,-411.143 L 106.942,-410.911 L 107.103,-410.656 L 107.231,-410.383 L 107.325,-410.097
 L 107.381,-409.801 L 107.4,-409.5 L 107.381,-409.199 L 107.325,-408.903 L 107.231,-408.617 L 107.103,-408.344
 L 106.942,-408.089 L 106.75,-407.857 L 106.53,-407.651 L 106.286,-407.474 L 106.022,-407.328 L 105.742,-407.217
 L 105.45,-407.143 L 105.151,-407.105 z
M -105.151,-407.105 L -105.45,-407.143 L -105.742,-407.217 L -106.022,-407.328 L -106.286,-407.474 L -106.53,-407.651
 L -106.75,-407.857 L -106.942,-408.089 L -107.103,-408.344 L -107.231,-408.617 L -107.325,-408.903 L -107.381,-409.199
 L -107.4,-409.5 L -107.381,-409.801 L -107.325,-410.097 L -107.231,-410.383 L -107.103,-410.656 L -106.942,-410.911
 L -106.75,-411.143 L -106.53,-411.349 L -106.286,-411.526 L -106.022,-411.672 L -105.742,-411.783 L -105.45,-411.857
 L -105.151,-411.895 L -104.849,-411.895 L -104.55,-411.857 L -104.258,-411.783 L -103.978,-411.672 L -103.714,-411.526
 L -103.47,-411.349 L -103.25,-411.143 L -103.058,-410.911 L -102.897,-410.656 L -102.769,-410.383 L -102.675,-410.097
 L -102.619,-409.801 L -102.6,-409.5 L -102.619,-409.199 L -102.675,-408.903 L -102.769,-408.617 L -102.897,-408.344
 L -103.058,-408.089 L -103.25,-407.857 L -103.47,-407.651 L -103.714,-407.474 L -103.978,-407.328 L -104.258,-407.217
 L -104.55,-407.143 L -104.849,-407.105 z
M 108.437,-243.089 L 109.045,-243.245 L 109.629,-243.476 L 110.179,-243.778 L 110.687,-244.147 L 111.145,-244.577
 L 111.545,-245.061 L 111.882,-245.591 L 112.149,-246.159 L 112.343,-246.757 L 112.461,-247.373 L 112.5,-248
 L 112.5,-388 L 112.461,-388.627 L 112.343,-389.243 L 112.149,-389.841 L 111.882,-390.409 L 111.545,-390.939
 L 111.145,-391.423 L 110.687,-391.853 L 110.179,-392.222 L 109.629,-392.524 L 109.045,-392.755 L 108.437,-392.911
 L 107.814,-392.99 L -107.814,-392.99 L -108.437,-392.911 L -109.045,-392.755 L -109.629,-392.524 L -110.179,-392.222
 L -110.687,-391.853 L -111.145,-391.423 L -111.545,-390.939 L -111.882,-390.409 L -112.149,-389.841 L -112.343,-389.243
 L -112.4,-388.944 L -112.5,-388.944 L -112.5,-247.056 L -112.4,-247.056 L -112.343,-246.757 L -112.149,-246.159
 L -111.882,-245.591 L -111.545,-245.061 L -111.145,-244.577 L -110.687,-244.147 L -110.179,-243.778 L -109.629,-243.476
 L -109.045,-243.245 L -108.437,-243.089 L -107.814,-243.01 L 107.814,-243.01 z
M 104.887,-383.704 L 104.663,-383.732 L 104.444,-383.788 L 104.234,-383.871 L 104.036,-383.98 L 103.853,-384.113
 L 103.688,-384.268 L 103.544,-384.442 L 103.423,-384.633 L 103.326,-384.837 L 103.257,-385.052 L 103.214,-385.274
 L 103.2,-385.5 L 103.214,-385.726 L 103.257,-385.948 L 103.326,-386.163 L 103.423,-386.367 L 103.544,-386.558
 L 103.688,-386.732 L 103.853,-386.887 L 104.036,-387.02 L 104.234,-387.129 L 104.444,-387.212 L 104.663,-387.268
 L 104.887,-387.296 L 105.113,-387.296 L 105.337,-387.268 L 105.556,-387.212 L 105.766,-387.129 L 105.964,-387.02
 L 106.147,-386.887 L 106.312,-386.732 L 106.456,-386.558 L 106.577,-386.367 L 106.674,-386.163 L 106.743,-385.948
 L 106.786,-385.726 L 106.8,-385.5 L 106.786,-385.274 L 106.743,-385.052 L 106.674,-384.837 L 106.577,-384.633
 L 106.456,-384.442 L 106.312,-384.268 L 106.147,-384.113 L 105.964,-383.98 L 105.766,-383.871 L 105.556,-383.788
 L 105.337,-383.732 L 105.113,-383.704 z
M -105.113,-383.704 L -105.337,-383.732 L -105.556,-383.788 L -105.766,-383.871 L -105.964,-383.98 L -106.147,-384.113
 L -106.312,-384.268 L -106.456,-384.442 L -106.577,-384.633 L -106.674,-384.837 L -106.743,-385.052 L -106.786,-385.274
 L -106.8,-385.5 L -106.786,-385.726 L -106.743,-385.948 L -106.674,-386.163 L -106.577,-386.367 L -106.456,-386.558
 L -106.312,-386.732 L -106.147,-386.887 L -105.964,-387.02 L -105.766,-387.129 L -105.556,-387.212 L -105.337,-387.268
 L -105.113,-387.296 L -104.887,-387.296 L -104.663,-387.268 L -104.444,-387.212 L -104.234,-387.129 L -104.036,-387.02
 L -103.853,-386.887 L -103.688,-386.732 L -103.544,-386.558 L -103.423,-386.367 L -103.326,-386.163 L -103.257,-385.948
 L -103.214,-385.726 L -103.2,-385.5 L -103.214,-385.274 L -103.257,-385.052 L -103.326,-384.837 L -103.423,-384.633
 L -103.544,-384.442 L -103.688,-384.268 L -103.853,-384.113 L -104.036,-383.98 L -104.234,-383.871 L -104.444,-383.788
 L -104.663,-383.732 L -104.887,-383.704 z
M 104.887,-248.704 L 104.663,-248.732 L 104.444,-248.788 L 104.234,-248.871 L 104.036,-248.98 L 103.853,-249.113
 L 103.688,-249.268 L 103.544,-249.442 L 103.423,-249.633 L 103.326,-249.837 L 103.257,-250.052 L 103.214,-250.274
 L 103.2,-250.5 L 103.214,-250.726 L 103.257,-250.948 L 103.326,-251.163 L 103.423,-251.367 L 103.544,-251.558
 L 103.688,-251.732 L 103.853,-251.887 L 104.036,-252.02 L 104.234,-252.129 L 104.444,-252.212 L 104.663,-252.268
 L 104.887,-252.296 L 105.113,-252.296 L 105.337,-252.268 L 105.556,-252.212 L 105.766,-252.129 L 105.964,-252.02
 L 106.147,-251.887 L 106.312,-251.732 L 106.456,-251.558 L 106.577,-251.367 L 106.674,-251.163 L 106.743,-250.948
 L 106.786,-250.726 L 106.8,-250.5 L 106.786,-250.274 L 106.743,-250.052 L 106.674,-249.837 L 106.577,-249.633
 L 106.456,-249.442 L 106.312,-249.268 L 106.147,-249.113 L 105.964,-248.98 L 105.766,-248.871 L 105.556,-248.788
 L 105.337,-248.732 L 105.113,-248.704 z
M -105.113,-248.704 L -105.337,-248.732 L -105.556,-248.788 L -105.766,-248.871 L -105.964,-248.98 L -106.147,-249.113
 L -106.312,-249.268 L -106.456,-249.442 L -106.577,-249.633 L -106.674,-249.837 L -106.743,-250.052 L -106.786,-250.274
 L -106.8,-250.5 L -106.786,-250.726 L -106.743,-250.948 L -106.674,-251.163 L -106.577,-251.367 L -106.456,-251.558
 L -106.312,-251.732 L -106.147,-251.887 L -105.964,-252.02 L -105.766,-252.129 L -105.556,-252.212 L -105.337,-252.268
 L -105.113,-252.296 L -104.887,-252.296 L -104.663,-252.268 L -104.444,-252.212 L -104.234,-252.129 L -104.036,-252.02
 L -103.853,-251.887 L -103.688,-251.732 L -103.544,-251.558 L -103.423,-251.367 L -103.326,-251.163 L -103.257,-250.948
 L -103.214,-250.726 L -103.2,-250.5 L -103.214,-250.274 L -103.257,-250.052 L -103.326,-249.837 L -103.423,-249.633
 L -103.544,-249.442 L -103.688,-249.268 L -103.853,-249.113 L -104.036,-248.98 L -104.234,-248.871 L -104.444,-248.788
 L -104.663,-248.732 L -104.887,-248.704 z
" stroke="black" fill="lightgray" stroke-width="0.5"/>
</svg>
