<?xml version="1.0" standalone="no"?>
<!DOCTYPE svg PUBLIC "-//W3C//DTD SVG 1.1//EN" "http://www.w3.org/Graphics/SVG/1.1/DTD/svg11.dtd">
<svg width="120mm" height="808mm" viewBox="-60 -1322 120 808" xmlns="http://www.w3.org/2000/svg" version="1.1">
<title>OpenSCAD Model</title>
<path d="
M 55.9369,-1126.59 L 56.5451,-1126.74 L 57.1289,-1126.98 L 57.6791,-1127.28 L 58.1871,-1127.65 L 58.6448,-1128.08
 L 59.0451,-1128.56 L 59.3815,-1129.09 L 59.6489,-1129.66 L 59.8429,-1130.26 L 59.9606,-1130.87 L 60,-1131.5
 L 60,-1316.5 L 59.9606,-1317.13 L 59.8429,-1317.74 L 59.6489,-1318.34 L 59.3815,-1318.91 L 59.0451,-1319.44
 L 58.6448,-1319.92 L 58.1871,-1320.35 L 57.6791,-1320.72 L 57.1289,-1321.02 L 56.5451,-1321.26 L 55.9369,-1321.41
 L 55.3139,-1321.49 L -55.3139,-1321.49 L -55.9369,-1321.41 L -56.5451,-1321.26 L -57.1289,-1321.02 L -57.6791,-1320.72
 L -58.1871,-1320.35 L -58.6448,-1319.92 L -59.0451,-1319.44 L -59.3815,-1318.91 L -59.6489,-1318.34 L -59.8429,-1317.74
 L -59.9606,-1317.13 L -60,-1316.5 L -60,-1131.5 L -59.9606,-1130.87 L -59.8429,-1130.26 L -59.6489,-1129.66
 L -59.3815,-1129.09 L -59.0451,-1128.56 L -58.6448,-1128.08 L -58.1871,-1127.65 L -57.6791,-1127.28 L -57.1289,-1126.98
 L -56.5451,-1126.74 L -55.9369,-1126.59 L -55.3139,-1126.51 L 55.3139,-1126.51 z
M -54.7512,-1128.01 L -55.2495,-1128.07 L -55.7361,-1128.2 L -56.2031,-1128.38 L -56.6433,-1128.62 L -57.0497,-1128.92
 L -57.4159,-1129.26 L -57.7361,-1129.65 L -58.0052,-1130.07 L -58.2191,-1130.53 L -58.3743,-1131.01 L -58.4685,-1131.5
 L -58.5,-1132 L -58.5,-1316 L -58.4685,-1316.5 L -58.3743,-1316.99 L -58.2191,-1317.47 L -58.0052,-1317.93
 L -57.7361,-1318.35 L -57.4159,-1318.74 L -57.0497,-1319.08 L -56.6433,-1319.38 L -56.2031,-1319.62 L -55.7361,-1319.8
 L -55.2495,-1319.93 L -54.7512,-1319.99 L 54.7512,-1319.99 L 55.2495,-1319.93 L 55.7361,-1319.8 L 56.2031,-1319.62
 L 56.6433,-1319.38 L 57.0497,-1319.08 L 57.4159,-1318.74 L 57.7361,-1318.35 L 58.0052,-1317.93 L 58.2191,-1317.47
 L 58.3743,-1316.99 L 58.4685,-1316.5 L 58.5,-1316 L 58.5,-1132 L 58.4685,-1131.5 L 58.3743,-1131.01
 L 58.2191,-1130.53 L 58.0052,-1130.07 L 57.7361,-1129.65 L 57.4159,-1129.26 L 57.0497,-1128.92 L 56.6433,-1128.62
 L 56.2031,-1128.38 L 55.7361,-1128.2 L 55.2495,-1128.07 L 54.7512,-1128.01 z
M 55.9369,-922.589 L 56.5451,-922.745 L 57.1289,-922.976 L 57.6791,-923.278 L 58.1871,-923.647 L 58.6448,-924.077
 L 59.0451,-924.561 L 59.3815,-925.091 L 59.6489,-925.659 L 59.8429,-926.257 L 59.9606,-926.873 L 60,-927.5
 L 60,-1112.5 L 59.9606,-1113.13 L 59.8429,-1113.74 L 59.6489,-1114.34 L 59.3815,-1114.91 L 59.0451,-1115.44
 L 58.6448,-1115.92 L 58.1871,-1116.35 L 57.6791,-1116.72 L 57.1289,-1117.02 L 56.5451,-1117.26 L 55.9369,-1117.41
 L 55.3139,-1117.49 L -55.3139,-1117.49 L -55.9369,-1117.41 L -56.5451,-1117.26 L -57.1289,-1117.02 L -57.6791,-1116.72
 L -58.1871,-1116.35 L -58.6448,-1115.92 L -59.0451,-1115.44 L -59.3815,-1114.91 L -59.6489,-1114.34 L -59.8429,-1113.74
 L -59.9606,-1113.13 L -60,-1112.5 L -60,-927.5 L -59.9606,-926.873 L -59.8429,-926.257 L -59.6489,-925.659
 L -59.3815,-925.091 L -59.0451,-924.561 L -58.6448,-924.077 L -58.1871,-923.647 L -57.6791,-923.278 L -57.1289,-922.976
 L -56.5451,-922.745 L -55.9369,-922.589 L -55.3139,-922.51 L 55.3139,-922.51 z
M -54.7432,-924.135 L -55.2256,-924.196 L -55.6967,-924.317 L -56.1489,-924.496 L -56.5751,-924.73 L -56.9685,-925.016
 L -57.323,-925.349 L -57.633,-925.724 L -57.8936,-926.134 L -58.1007,-926.574 L -58.251,-927.037 L -58.3421,-927.515
 L -58.3726,-928 L -58.3726,-1112 L -58.3421,-1112.49 L -58.251,-1112.96 L -58.1007,-1113.43 L -57.8936,-1113.87
 L -57.633,-1114.28 L -57.323,-1114.65 L -56.9685,-1114.98 L -56.5751,-1115.27 L -56.1489,-1115.5 L -55.6967,-1115.68
 L -55.2256,-1115.8 L -54.7432,-1115.86 L 54.7432,-1115.86 L 55.2256,-1115.8 L 55.6967,-1115.68 L 56.1489,-1115.5
 L 56.5751,-1115.27 L 56.9685,-1114.98 L 57.323,-1114.65 L 57.633,-1114.28 L 57.8936,-1113.87 L 58.1007,-1113.43
 L 58.251,-1112.96 L 58.3421,-1112.49 L 58.3726,-1112 L 58.3726,-928 L 58.3421,-927.515 L 58.251,-927.037
 L 58.1007,-926.574 L 57.8936,-926.134 L 57.633,-925.724 L 57.323,-925.349 L 56.9685,-925.016 L 56.5751,-924.73
 L 56.1489,-924.496 L 55.6967,-924.317 L 55.2256,-924.196 L 54.7432,-924.135 z
M 55.9369,-718.589 L 56.5451,-718.745 L 57.1289,-718.976 L 57.6791,-719.278 L 58.1871,-719.647 L 58.6448,-720.077
 L 59.0451,-720.561 L 59.3815,-721.091 L 59.6489,-721.659 L 59.8429,-722.257 L 59.9606,-722.873 L 60,-723.5
 L 60,-908.5 L 59.9606,-909.127 L 59.8429,-909.743 L 59.6489,-910.341 L 59.3815,-910.909 L 59.0451,-911.439
 L 58.6448,-911.923 L 58.1871,-912.353 L 57.6791,-912.722 L 57.1289,-913.024 L 56.5451,-913.255 L 55.9369,-913.411
 L 55.3139,-913.49 L -55.3139,-913.49 L -55.9369,-913.411 L -56.5451,-913.255 L -57.1289,-913.024 L -57.6791,-912.722
 L -58.1871,-912.353 L -58.6448,-911.923 L -59.0451,-911.439 L -59.3815,-910.909 L -59.6489,-910.341 L -59.8429,-909.743
 L -59.9606,-909.127 L -60,-908.5 L -60,-723.5 L -59.9606,-722.873 L -59.8429,-722.257 L -59.6489,-721.659
 L -59.3815,-721.091 L -59.0451,-720.561 L -58.6448,-720.077 L -58.1871,-719.647 L -57.6791,-719.278 L -57.1289,-718.976
 L -56.5451,-718.745 L -55.9369,-718.589 L -55.3139,-718.51 L 55.3139,-718.51 z
M -52.6507,-903.605 L -52.9497,-903.643 L -53.2416,-903.717 L -53.5219,-903.828 L -53.786,-903.974 L -54.0298,-904.151
 L -54.2495,-904.357 L -54.4416,-904.589 L -54.6031,-904.844 L -54.7315,-905.117 L -54.8246,-905.403 L -54.8811,-905.699
 L -54.9,-906 L -54.8811,-906.301 L -54.8246,-906.597 L -54.7315,-906.883 L -54.6031,-907.156 L -54.4416,-907.411
 L -54.2495,-907.643 L -54.0298,-907.849 L -53.786,-908.026 L -53.5219,-908.172 L -53.2416,-908.283 L -52.9497,-908.357
 L -52.6507,-908.395 L -52.3493,-908.395 L -52.0503,-908.357 L -51.7584,-908.283 L -51.4781,-908.172 L -51.214,-908.026
 L -50.9702,-907.849 L -50.7505,-907.643 L -50.5583,-907.411 L -50.3969,-907.156 L -50.2685,-906.883 L -50.1754,-906.597
 L -50.1189,-906.301 L -50.1,-906 L -50.1189,-905.699 L -50.1754,-905.403 L -50.2685,-905.117 L -50.3969,-904.844
 L -50.5583,-904.589 L -50.7505,-904.357 L -50.9702,-904.151 L -51.214,-903.974 L -51.4781,-903.828 L -51.7584,-903.717
 L -52.0503,-903.643 L -52.3493,-903.605 z
M 52.3493,-903.605 L 52.0503,-903.643 L 51.7584,-903.717 L 51.4781,-903.828 L 51.214,-903.974 L 50.9702,-904.151
 L 50.7505,-904.357 L 50.5583,-904.589 L 50.3969,-904.844 L 50.2685,-905.117 L 50.1754,-905.403 L 50.1189,-905.699
 L 50.1,-906 L 50.1189,-906.301 L 50.1754,-906.597 L 50.2685,-906.883 L 50.3969,-907.156 L 50.5583,-907.411
 L 50.7505,-907.643 L 50.9702,-907.849 L 51.214,-908.026 L 51.4781,-908.172 L 51.7584,-908.283 L 52.0503,-908.357
 L 52.3493,-908.395 L 52.6507,-908.395 L 52.9497,-908.357 L 53.2416,-908.283 L 53.5219,-908.172 L 53.786,-908.026
 L 54.0298,-907.849 L 54.2495,-907.643 L 54.4416,-907.411 L 54.6031,-907.156 L 54.7315,-906.883 L 54.8246,-906.597
 L 54.8811,-906.301 L 54.9,-906 L 54.8811,-905.699 L 54.8246,-905.403 L 54.7315,-905.117 L 54.6031,-904.844
 L 54.4416,-904.589 L 54.2495,-904.357 L 54.0298,-904.151 L 53.786,-903.974 L 53.5219,-903.828 L 53.2416,-903.717
 L 52.9497,-903.643 L 52.6507,-903.605 z
M 52.3493,-723.605 L 52.0503,-723.643 L 51.7584,-723.717 L 51.4781,-723.828 L 51.214,-723.974 L 50.9702,-724.151
 L 50.7505,-724.357 L 50.5583,-724.589 L 50.3969,-724.844 L 50.2685,-725.117 L 50.1754,-725.403 L 50.1189,-725.699
 L 50.1,-726 L 50.1189,-726.301 L 50.1754,-726.597 L 50.2685,-726.883 L 50.3969,-727.156 L 50.5583,-727.411
 L 50.7505,-727.643 L 50.9702,-727.849 L 51.214,-728.026 L 51.4781,-728.172 L 51.7584,-728.283 L 52.0503,-728.357
 L 52.3493,-728.395 L 52.6507,-728.395 L 52.9497,-728.357 L 53.2416,-728.283 L 53.5219,-728.172 L 53.786,-728.026
 L 54.0298,-727.849 L 54.2495,-727.643 L 54.4416,-727.411 L 54.6031,-727.156 L 54.7315,-726.883 L 54.8246,-726.597
 L 54.8811,-726.301 L 54.9,-726 L 54.8811,-725.699 L 54.8246,-725.403 L 54.7315,-725.117 L 54.6031,-724.844
 L 54.4416,-724.589 L 54.2495,-724.357 L 54.0298,-724.151 L 53.786,-723.974 L 53.5219,-723.828 L 53.2416,-723.717
 L 52.9497,-723.643 L 52.6507,-723.605 z
M -52.6507,-723.605 L -52.9497,-723.643 L -53.2416,-723.717 L -53.5219,-723.828 L -53.786,-723.974 L -54.0298,-724.151
 L -54.2495,-724.357 L -54.4416,-724.589 L -54.6031,-724.844 L -54.7315,-725.117 L -54.8246,-725.403 L -54.8811,-725.699
 L -54.9,-726 L -54.8811,-726.301 L -54.8246,-726.597 L -54.7315,-726.883 L -54.6031,-727.156 L -54.4416,-727.411
 L -54.2495,-727.643 L -54.0298,-727.849 L -53.786,-728.026 L -53.5219,-728.172 L -53.2416,-728.283 L -52.9497,-728.357
 L -52.6507,-728.395 L -52.3493,-728.395 L -52.0503,-728.357 L -51.7584,-728.283 L -51.4781,-728.172 L -51.214,-728.026
 L -50.9702,-727.849 L -50.7505,-727.643 L -50.5583,-727.411 L -50.3969,-727.156 L -50.2685,-726.883 L -50.1754,-726.597
 L -50.1189,-726.301 L -50.1,-726 L -50.1189,-725.699 L -50.1754,-725.403 L -50.2685,-725.117 L -50.3969,-724.844
 L -50.5583,-724.589 L -50.7505,-724.357 L -50.9702,-724.151 L -51.214,-723.974 L -51.4781,-723.828 L -51.7584,-723.717
 L -52.0503,-723.643 L -52.3493,-723.605 z
M 55.9369,-514.589 L 56.5451,-514.745 L 57.1289,-514.976 L 57.6791,-515.278 L 58.1871,-515.647 L 58.6448,-516.077
 L 59.0451,-516.561 L 59.3815,-517.091 L 59.6489,-517.659 L 59.8429,-518.257 L 59.9606,-518.873 L 60,-519.5
 L 60,-704.5 L 59.9606,-705.127 L 59.8429,-705.743 L 59.6489,-706.341 L 59.3815,-706.909 L 59.0451,-707.439
 L 58.6448,-707.923 L 58.1871,-708.353 L 57.6791,-708.722 L 57.1289,-709.024 L 56.5451,-709.255 L 55.9369,-709.411
 L 55.3139,-709.49 L -55.3139,-709.49 L -55.9369,-709.411 L -56.5451,-709.255 L -57.1289,-709.024 L -57.6791,-708.722
 L -58.1871,-708.353 L -58.6448,-707.923 L -59.0451,-707.439 L -59.3815,-706.909 L -59.6489,-706.341 L -59.8429,-705.743
 L -59.9606,-705.127 L -60,-704.5 L -60,-519.5 L -59.9606,-518.873 L -59.8429,-518.257 L -59.6489,-517.659
 L -59.3815,-517.091 L -59.0451,-516.561 L -58.6448,-516.077 L -58.1871,-515.647 L -57.6791,-515.278 L -57.1289,-514.976
 L -56.5451,-514.745 L -55.9369,-514.589 L -55.3139,-514.51 L 55.3139,-514.51 z
M 52.387,-700.204 L 52.1627,-700.232 L 51.9438,-700.288 L 51.7336,-700.371 L 51.5355,-700.48 L 51.3526,-700.613
 L 51.1879,-700.768 L 51.0438,-700.942 L 50.9226,-701.133 L 50.8264,-701.337 L 50.7565,-701.552 L 50.7142,-701.774
 L 50.7,-702 L 50.7142,-702.226 L 50.7565,-702.448 L 50.8264,-702.663 L 50.9226,-702.867 L 51.0438,-703.058
 L 51.1879,-703.232 L 51.3526,-703.387 L 51.5355,-703.52 L 51.7336,-703.629 L 51.9438,-703.712 L 52.1627,-703.768
 L 52.387,-703.796 L 52.613,-703.796 L 52.8373,-703.768 L 53.0562,-703.712 L 53.2664,-703.629 L 53.4645,-703.52
 L 53.6474,-703.387 L 53.8121,-703.232 L 53.9562,-703.058 L 54.0773,-702.867 L 54.1736,-702.663 L 54.2434,-702.448
 L 54.2858,-702.226 L 54.3,-702 L 54.2858,-701.774 L 54.2434,-701.552 L 54.1736,-701.337 L 54.0773,-701.133
 L 53.9562,-700.942 L 53.8121,-700.768 L 53.6474,-700.613 L 53.4645,-700.48 L 53.2664,-700.371 L 53.0562,-700.288
 L 52.8373,-700.232 L 52.613,-700.204 z
M -52.613,-700.204 L -52.8373,-700.232 L -53.0562,-700.288 L -53.2664,-700.371 L -53.4645,-700.48 L -53.6474,-700.613
 L -53.8121,-700.768 L -53.9562,-700.942 L -54.0773,-701.133 L -54.1736,-701.337 L -54.2434,-701.552 L -54.2858,-701.774
 L -54.3,-702 L -54.2858,-702.226 L -54.2434,-702.448 L -54.1736,-702.663 L -54.0773,-702.867 L -53.9562,-703.058
 L -53.8121,-703.232 L -53.6474,-703.387 L -53.4645,-703.52 L -53.2664,-703.629 L -53.0562,-703.712 L -52.8373,-703.768
 L -52.613,-703.796 L -52.387,-703.796 L -52.1627,-703.768 L -51.9438,-703.712 L -51.7336,-703.629 L -51.5355,-703.52
 L -51.3526,-703.387 L -51.1879,-703.232 L -51.0438,-703.058 L -50.9226,-702.867 L -50.8264,-702.663 L -50.7565,-702.448
 L -50.7142,-702.226 L -50.7,-702 L -50.7142,-701.774 L -50.7565,-701.552 L -50.8264,-701.337 L -50.9226,-701.133
 L -51.0438,-700.942 L -51.1879,-700.768 L -51.3526,-700.613 L -51.5355,-700.48 L -51.7336,-700.371 L -51.9438,-700.288
 L -52.1627,-700.232 L -52.387,-700.204 z
M -52.613,-520.204 L -52.8373,-520.232 L -53.0562,-520.288 L -53.2664,-520.371 L -53.4645,-520.48 L -53.6474,-520.613
 L -53.8121,-520.768 L -53.9562,-520.942 L -54.0773,-521.133 L -54.1736,-521.337 L -54.2434,-521.552 L -54.2858,-521.774
 L -54.3,-522 L -54.2858,-522.226 L -54.2434,-522.448 L -54.1736,-522.663 L -54.0773,-522.867 L -53.9562,-523.058
 L -53.8121,-523.232 L -53.6474,-523.387 L -53.4645,-523.52 L -53.2664,-523.629 L -53.0562,-523.712 L -52.8373,-523.768
 L -52.613,-523.796 L -52.387,-523.796 L -52.1627,-523.768 L -51.9438,-523.712 L -51.7336,-523.629 L -51.5355,-523.52
 L -51.3526,-523.387 L -51.1879,-523.232 L -51.0438,-523.058 L -50.9226,-522.867 L -50.8264,-522.663 L -50.7565,-522.448
 L -50.7142,-522.226 L -50.7,-522 L -50.7142,-521.774 L -50.7565,-521.552 L -50.8264,-521.337 L -50.9226,-521.133
 L -51.0438,-520.942 L -51.1879,-520.768 L -51.3526,-520.613 L -51.5355,-520.48 L -51.7336,-520.371 L -51.9438,-520.288
 L -52.1627,-520.232 L -52.387,-520.204 z
M 52.387,-520.204 L 52.1627,-520.232 L 51.9438,-520.288 L 51.7336,-520.371 L 51.5355,-520.48 L 51.3526,-520.613
 L 51.1879,-520.768 L 51.0438,-520.942 L 50.9226,-521.133 L 50.8264,-521.337 L 50.7565,-521.552 L 50.7142,-521.774
 L 50.7,-522 L 50.7142,-522.226 L 50.7565,-522.448 L 50.8264,-522.663 L 50.9226,-522.867 L 51.0438,-523.058
 L 51.1879,-523.232 L 51.3526,-523.387 L 51.5355,-523.52 L 51.7336,-523.629 L 51.9438,-523.712 L 52.1627,-523.768
 L 52.387,-523.796 L 52.613,-523.796 L 52.8373,-523.768 L 53.0562,-523.712 L 53.2664,-523.629 L 53.4645,-523.52
 L 53.6474,-523.387 L 53.8121,-523.232 L 53.9562,-523.058 L 54.0773,-522.867 L 54.1736,-522.663 L 54.2434,-522.448
 L 54.2858,-522.226 L 54.3,-522 L 54.2858,-521.774 L 54.2434,-521.552 L 54.1736,-521.337 L 54.0773,-521.133
 L 53.9562,-520.942 L 53.8121,-520.768 L 53.6474,-520.613 L 53.4645,-520.48 L 53.2664,-520.371 L 53.0562,-520.288
 L 52.8373,-520.232 L 52.613,-520.204 z
" stroke="black" fill="lightgray" stroke-width="0.5"/>
</svg>
