<?xml version="1.0" standalone="no"?>
<!DOCTYPE svg PUBLIC "-//W3C//DTD SVG 1.1//EN" "http://www.w3.org/Graphics/SVG/1.1/DTD/svg11.dtd">
<svg width="44mm" height="118mm" viewBox="-22 -130 44 118" xmlns="http://www.w3.org/2000/svg" version="1.1">
<title>OpenSCAD Model</title>
<path d="
M 17.9369,-86.0886 L 18.5451,-86.2447 L 19.1289,-86.4759 L 19.6791,-86.7784 L 20.1871,-87.1474 L 20.6448,-87.5773
 L 21.0451,-88.0611 L 21.3815,-88.5912 L 21.6489,-89.1594 L 21.8429,-89.7566 L 21.9606,-90.3733 L 22,-91
 L 22,-125 L 11.5,-125 L 11.5,-124.995 L 11.343,-124.995 L 11.0315,-124.956 L 10.7274,-124.878
 L 10.4355,-124.762 L 10.1604,-124.611 L 9.90643,-124.426 L 9.67757,-124.211 L 9.47745,-123.969 L 9.30922,-123.704
 L 9.17555,-123.42 L 9.07854,-123.122 L 9.0197,-122.813 L 9,-122.5 L 9.0197,-122.187 L 9.07854,-121.878
 L 9.17555,-121.58 L 9.30922,-121.296 L 9.47745,-121.031 L 9.67757,-120.789 L 9.90643,-120.574 L 10.1604,-120.389
 L 10.4355,-120.238 L 10.7274,-120.122 L 11.0315,-120.044 L 11.343,-120.005 L 12.001,-120.005 L 12.3925,-119.637
 L 13.7533,-117.992 L 14.8972,-116.19 L 15.8062,-114.258 L 16.4659,-112.228 L 16.8659,-110.131 L 17,-108
 L 16.8659,-105.869 L 16.4659,-103.772 L 15.8062,-101.742 L 14.8972,-99.8102 L 13.7533,-98.0077 L 12.3925,-96.3627
 L 10.8362,-94.9013 L 9.10905,-93.6464 L 7.23824,-92.618 L 5.25328,-91.832 L 3.18547,-91.3011 L 1.06743,-91.0336
 L -1.06743,-91.0336 L -3.18547,-91.3011 L -5.25328,-91.832 L -7.23824,-92.618 L -9.10905,-93.6464 L -10.8362,-94.9013
 L -12.3925,-96.3627 L -13.7533,-98.0077 L -14.8972,-99.8102 L -15.8062,-101.742 L -16.4659,-103.772 L -16.8659,-105.869
 L -17,-108 L -16.8659,-110.131 L -16.4659,-112.228 L -15.8062,-114.258 L -14.8972,-116.19 L -13.7533,-117.992
 L -12.3925,-119.637 L -10.8362,-121.099 L -9.10905,-122.354 L -7.23824,-123.382 L -5.25328,-124.168 L -3.18547,-124.699
 L -1.06743,-124.966 L 0,-124.966 L 0,-127 L 6.99998,-127 L 4.00986,-129.99 L 3.5,-129.99
 L 3.5,-129 L -21.5,-129 L -21.5,-130 L -22,-130 L -22,-91 L -21.9606,-90.3733
 L -21.8429,-89.7566 L -21.6489,-89.1594 L -21.3815,-88.5912 L -21.0451,-88.0611 L -20.6448,-87.5773 L -20.1871,-87.1474
 L -19.6791,-86.7784 L -19.1289,-86.4759 L -18.5451,-86.2447 L -17.9369,-86.0886 L -17.3139,-86.0099 L 17.3139,-86.0099
 z
M 14.8116,-90.0059 L 14.4379,-90.0531 L 14.0729,-90.1468 L 13.7227,-90.2855 L 13.3925,-90.467 L 13.0877,-90.6885
 L 12.8131,-90.9464 L 12.5729,-91.2366 L 12.3711,-91.5547 L 12.2107,-91.8956 L 12.0942,-92.2539 L 12.0237,-92.624
 L 12,-93 L 12.0237,-93.376 L 12.0942,-93.7461 L 12.2107,-94.1044 L 12.3711,-94.4453 L 12.5729,-94.7634
 L 12.8131,-95.0536 L 13.0877,-95.3116 L 13.3925,-95.533 L 13.7227,-95.7145 L 14.0729,-95.8532 L 14.4379,-95.9469
 L 14.8116,-95.9941 L 15.1884,-95.9941 L 15.5621,-95.9469 L 15.927,-95.8532 L 16.2773,-95.7145 L 16.6075,-95.533
 L 16.9123,-95.3116 L 17.1869,-95.0536 L 17.427,-94.7634 L 17.6289,-94.4453 L 17.7893,-94.1044 L 17.9057,-93.7461
 L 17.9763,-93.376 L 18,-93 L 17.9763,-92.624 L 17.9057,-92.2539 L 17.7893,-91.8956 L 17.6289,-91.5547
 L 17.427,-91.2366 L 17.1869,-90.9464 L 16.9123,-90.6885 L 16.6075,-90.467 L 16.2773,-90.2855 L 15.927,-90.1468
 L 15.5621,-90.0531 L 15.1884,-90.0059 z
M 16,-129.99 L 6.13118,-129.99 L 9.12131,-127 L 16,-127 z
M 16.9684,-66.0443 L 17.2725,-66.1223 L 17.5644,-66.2379 L 17.8396,-66.3892 L 18.0936,-66.5737 L 18.3224,-66.7886
 L 18.5225,-67.0305 L 18.6908,-67.2956 L 18.8244,-67.5797 L 18.9214,-67.8783 L 18.9803,-68.1867 L 19,-68.5
 L 18.9803,-68.8133 L 18.9214,-69.1217 L 18.8244,-69.4203 L 18.6908,-69.7044 L 18.5225,-69.9695 L 18.3224,-70.2114
 L 18.0936,-70.4263 L 17.8396,-70.6108 L 17.5644,-70.7621 L 17.2725,-70.8776 L 16.9684,-70.9557 L 16.657,-70.9951
 L 11.343,-70.9951 L 11.0315,-70.9557 L 10.7274,-70.8776 L 10.4355,-70.7621 L 10.1604,-70.6108 L 9.90643,-70.4263
 L 9.67757,-70.2114 L 9.47745,-69.9695 L 9.30922,-69.7044 L 9.17555,-69.4203 L 9.07854,-69.1217 L 9.0197,-68.8133
 L 9,-68.5 L 9.0197,-68.1867 L 9.07854,-67.8783 L 9.17555,-67.5797 L 9.30922,-67.2956 L 9.47745,-67.0305
 L 9.67757,-66.7886 L 9.90643,-66.5737 L 10.1604,-66.3892 L 10.4355,-66.2379 L 10.7274,-66.1223 L 11.0315,-66.0443
 L 11.343,-66.0049 L 16.657,-66.0049 z
M 16.9684,-12.0443 L 17.2725,-12.1223 L 17.5644,-12.2379 L 17.8396,-12.3892 L 18.0936,-12.5737 L 18.3224,-12.7886
 L 18.5225,-13.0305 L 18.6908,-13.2956 L 18.8244,-13.5797 L 18.9214,-13.8783 L 18.9803,-14.1867 L 19,-14.5
 L 18.9803,-14.8133 L 18.9214,-15.1217 L 18.8244,-15.4203 L 18.6908,-15.7044 L 18.5225,-15.9695 L 18.3224,-16.2114
 L 18.0936,-16.4263 L 17.8396,-16.6108 L 17.5644,-16.7621 L 17.2725,-16.8776 L 16.9684,-16.9557 L 16.657,-16.9951
 L 11.343,-16.9951 L 11.0315,-16.9557 L 10.7274,-16.8776 L 10.4355,-16.7621 L 10.1604,-16.6108 L 9.90643,-16.4263
 L 9.67757,-16.2114 L 9.47745,-15.9695 L 9.30922,-15.7044 L 9.17555,-15.4203 L 9.07854,-15.1217 L 9.0197,-14.8133
 L 9,-14.5 L 9.0197,-14.1867 L 9.07854,-13.8783 L 9.17555,-13.5797 L 9.30922,-13.2956 L 9.47745,-13.0305
 L 9.67757,-12.7886 L 9.90643,-12.5737 L 10.1604,-12.3892 L 10.4355,-12.2379 L 10.7274,-12.1223 L 11.0315,-12.0443
 L 11.343,-12.0049 L 16.657,-12.0049 z
" stroke="black" fill="lightgray" stroke-width="0.5"/>
</svg>
