<?xml version="1.0" standalone="no"?>
<!DOCTYPE svg PUBLIC "-//W3C//DTD SVG 1.1//EN" "http://www.w3.org/Graphics/SVG/1.1/DTD/svg11.dtd">
<svg width="60mm" height="118mm" viewBox="-30 -232 60 118" xmlns="http://www.w3.org/2000/svg" version="1.1">
<title>OpenSCAD Model</title>
<path d="
M 25.9369,-209.339 L 26.5451,-209.495 L 27.1289,-209.726 L 27.6791,-210.028 L 28.1871,-210.397 L 28.6448,-210.827
 L 29.0451,-211.311 L 29.3815,-211.841 L 29.6489,-212.409 L 29.8429,-213.007 L 29.9606,-213.623 L 30,-214.25
 L 30,-226.75 L 29.9606,-227.377 L 29.8429,-227.993 L 29.6489,-228.591 L 29.3815,-229.159 L 29.0451,-229.689
 L 28.6448,-230.173 L 28.1871,-230.603 L 27.6791,-230.972 L 27.1289,-231.274 L 26.5451,-231.505 L 25.9369,-231.661
 L 25.3139,-231.74 L -25.3139,-231.74 L -25.9369,-231.661 L -26.5451,-231.505 L -27.1289,-231.274 L -27.6791,-230.972
 L -28.1871,-230.603 L -28.6448,-230.173 L -29.0451,-229.689 L -29.3815,-229.159 L -29.6489,-228.591 L -29.8429,-227.993
 L -29.9606,-227.377 L -30,-226.75 L -30,-214.25 L -29.9606,-213.623 L -29.8429,-213.007 L -29.6489,-212.409
 L -29.3815,-211.841 L -29.0451,-211.311 L -28.6448,-210.827 L -28.1871,-210.397 L -27.6791,-210.028 L -27.1289,-209.726
 L -26.5451,-209.495 L -25.9369,-209.339 L -25.3139,-209.26 L 25.3139,-209.26 z
M -25.0482,-209.759 L -25.6401,-209.834 L -26.2178,-209.982 L -26.7724,-210.202 L -27.2952,-210.489 L -27.7778,-210.84
 L -28.2126,-211.248 L -28.5928,-211.708 L -28.9124,-212.212 L -29.1664,-212.751 L -29.3508,-213.319 L -29.4625,-213.905
 L -29.5,-214.5 L -29.5,-226.5 L -29.4625,-227.095 L -29.3508,-227.681 L -29.1664,-228.249 L -28.9124,-228.788
 L -28.5928,-229.292 L -28.2126,-229.752 L -27.7778,-230.16 L -27.2952,-230.511 L -26.7724,-230.798 L -26.2178,-231.018
 L -25.6401,-231.166 L -25.0482,-231.241 L 25.0482,-231.241 L 25.6401,-231.166 L 26.2178,-231.018 L 26.7724,-230.798
 L 27.2952,-230.511 L 27.7778,-230.16 L 28.2126,-229.752 L 28.5928,-229.292 L 28.9124,-228.788 L 29.1664,-228.249
 L 29.3508,-227.681 L 29.4625,-227.095 L 29.5,-226.5 L 29.5,-214.5 L 29.4625,-213.905 L 29.3508,-213.319
 L 29.1664,-212.751 L 28.9124,-212.212 L 28.5928,-211.708 L 28.2126,-211.248 L 27.7778,-210.84 L 27.2952,-210.489
 L 26.7724,-210.202 L 26.2178,-209.982 L 25.6401,-209.834 L 25.0482,-209.759 z
M 25.9369,-177.839 L 26.5451,-177.995 L 27.1289,-178.226 L 27.6791,-178.528 L 28.1871,-178.897 L 28.6448,-179.327
 L 29.0451,-179.811 L 29.3815,-180.341 L 29.6489,-180.909 L 29.8429,-181.507 L 29.9606,-182.123 L 30,-182.75
 L 30,-195.25 L 29.9606,-195.877 L 29.8429,-196.493 L 29.6489,-197.091 L 29.3815,-197.659 L 29.0451,-198.189
 L 28.6448,-198.673 L 28.1871,-199.103 L 27.6791,-199.472 L 27.1289,-199.774 L 26.5451,-200.005 L 25.9369,-200.161
 L 25.3139,-200.24 L -25.3139,-200.24 L -25.9369,-200.161 L -26.5451,-200.005 L -27.1289,-199.774 L -27.6791,-199.472
 L -28.1871,-199.103 L -28.6448,-198.673 L -29.0451,-198.189 L -29.3815,-197.659 L -29.6489,-197.091 L -29.8429,-196.493
 L -29.9606,-195.877 L -30,-195.25 L -30,-182.75 L -29.9606,-182.123 L -29.8429,-181.507 L -29.6489,-180.909
 L -29.3815,-180.341 L -29.0451,-179.811 L -28.6448,-179.327 L -28.1871,-178.897 L -27.6791,-178.528 L -27.1289,-178.226
 L -26.5451,-177.995 L -25.9369,-177.839 L -25.3139,-177.76 L 25.3139,-177.76 z
M -25.0482,-178.259 L -25.6401,-178.334 L -26.2178,-178.482 L -26.7724,-178.702 L -27.2952,-178.989 L -27.7778,-179.34
 L -28.2126,-179.748 L -28.5928,-180.208 L -28.9124,-180.712 L -29.1664,-181.251 L -29.3508,-181.819 L -29.4625,-182.405
 L -29.5,-183 L -29.5,-195 L -29.4625,-195.595 L -29.3508,-196.181 L -29.1664,-196.749 L -28.9124,-197.288
 L -28.5928,-197.792 L -28.2126,-198.252 L -27.7778,-198.66 L -27.2952,-199.011 L -26.7724,-199.298 L -26.2178,-199.518
 L -25.6401,-199.666 L -25.0482,-199.741 L 25.0482,-199.741 L 25.6401,-199.666 L 26.2178,-199.518 L 26.7724,-199.298
 L 27.2952,-199.011 L 27.7778,-198.66 L 28.2126,-198.252 L 28.5928,-197.792 L 28.9124,-197.288 L 29.1664,-196.749
 L 29.3508,-196.181 L 29.4625,-195.595 L 29.5,-195 L 29.5,-183 L 29.4625,-182.405 L 29.3508,-181.819
 L 29.1664,-181.251 L 28.9124,-180.712 L 28.5928,-180.208 L 28.2126,-179.748 L 27.7778,-179.34 L 27.2952,-178.989
 L 26.7724,-178.702 L 26.2178,-178.482 L 25.6401,-178.334 L 25.0482,-178.259 z
M 25.9369,-146.339 L 26.5451,-146.495 L 27.1289,-146.726 L 27.6791,-147.028 L 28.1871,-147.397 L 28.6448,-147.827
 L 29.0451,-148.311 L 29.3815,-148.841 L 29.6489,-149.409 L 29.8429,-150.007 L 29.9606,-150.623 L 30,-151.25
 L 30,-163.75 L 29.9606,-164.377 L 29.8429,-164.993 L 29.6489,-165.591 L 29.3815,-166.159 L 29.0451,-166.689
 L 28.6448,-167.173 L 28.1871,-167.603 L 27.6791,-167.972 L 27.1289,-168.274 L 26.5451,-168.505 L 25.9369,-168.661
 L 25.3139,-168.74 L -25.3139,-168.74 L -25.9369,-168.661 L -26.5451,-168.505 L -27.1289,-168.274 L -27.6791,-167.972
 L -28.1871,-167.603 L -28.6448,-167.173 L -29.0451,-166.689 L -29.3815,-166.159 L -29.6489,-165.591 L -29.8429,-164.993
 L -29.9606,-164.377 L -30,-163.75 L -30,-151.25 L -29.9606,-150.623 L -29.8429,-150.007 L -29.6489,-149.409
 L -29.3815,-148.841 L -29.0451,-148.311 L -28.6448,-147.827 L -28.1871,-147.397 L -27.6791,-147.028 L -27.1289,-146.726
 L -26.5451,-146.495 L -25.9369,-146.339 L -25.3139,-146.26 L 25.3139,-146.26 z
M -25.0375,-146.931 L -25.6079,-147.003 L -26.1648,-147.146 L -26.6994,-147.357 L -27.2032,-147.634 L -27.6684,-147.972
 L -28.0875,-148.366 L -28.454,-148.809 L -28.7621,-149.294 L -29.0069,-149.815 L -29.1846,-150.361 L -29.2923,-150.926
 L -29.3284,-151.5 L -29.3284,-163.5 L -29.2923,-164.074 L -29.1846,-164.639 L -29.0069,-165.185 L -28.7621,-165.706
 L -28.454,-166.191 L -28.0875,-166.634 L -27.6684,-167.028 L -27.2032,-167.366 L -26.6994,-167.643 L -26.1648,-167.854
 L -25.6079,-167.997 L -25.0375,-168.069 L 25.0375,-168.069 L 25.6079,-167.997 L 26.1648,-167.854 L 26.6994,-167.643
 L 27.2032,-167.366 L 27.6684,-167.028 L 28.0875,-166.634 L 28.454,-166.191 L 28.7621,-165.706 L 29.0069,-165.185
 L 29.1846,-164.639 L 29.2923,-164.074 L 29.3284,-163.5 L 29.3284,-151.5 L 29.2923,-150.926 L 29.1846,-150.361
 L 29.0069,-149.815 L 28.7621,-149.294 L 28.454,-148.809 L 28.0875,-148.366 L 27.6684,-147.972 L 27.2032,-147.634
 L 26.6994,-147.357 L 26.1648,-147.146 L 25.6079,-147.003 L 25.0375,-146.931 z
M 25.9369,-114.839 L 26.5451,-114.995 L 27.1289,-115.226 L 27.6791,-115.528 L 28.1871,-115.897 L 28.6448,-116.327
 L 29.0451,-116.811 L 29.3815,-117.341 L 29.6489,-117.909 L 29.8429,-118.507 L 29.9606,-119.123 L 30,-119.75
 L 30,-132.25 L 29.9606,-132.877 L 29.8429,-133.493 L 29.6489,-134.091 L 29.3815,-134.659 L 29.0451,-135.189
 L 28.6448,-135.673 L 28.1871,-136.103 L 27.6791,-136.472 L 27.1289,-136.774 L 26.5451,-137.005 L 25.9369,-137.161
 L 25.3139,-137.24 L -25.3139,-137.24 L -25.9369,-137.161 L -26.5451,-137.005 L -27.1289,-136.774 L -27.6791,-136.472
 L -28.1871,-136.103 L -28.6448,-135.673 L -29.0451,-135.189 L -29.3815,-134.659 L -29.6489,-134.091 L -29.8429,-133.493
 L -29.9606,-132.877 L -30,-132.25 L -30,-119.75 L -29.9606,-119.123 L -29.8429,-118.507 L -29.6489,-117.909
 L -29.3815,-117.341 L -29.0451,-116.811 L -28.6448,-116.327 L -28.1871,-115.897 L -27.6791,-115.528 L -27.1289,-115.226
 L -26.5451,-114.995 L -25.9369,-114.839 L -25.3139,-114.76 L 25.3139,-114.76 z
M -24.8825,-117.895 L -25.1453,-117.928 L -25.4019,-117.994 L -25.6482,-118.091 L -25.8804,-118.219 L -26.0947,-118.375
 L -26.2879,-118.556 L -26.4567,-118.76 L -26.5987,-118.984 L -26.7115,-119.223 L -26.7934,-119.475 L -26.843,-119.736
 L -26.8596,-120 L -26.8596,-132 L -26.843,-132.264 L -26.7934,-132.525 L -26.7115,-132.777 L -26.5987,-133.016
 L -26.4567,-133.24 L -26.2879,-133.444 L -26.0947,-133.625 L -25.8804,-133.781 L -25.6482,-133.909 L -25.4019,-134.006
 L -25.1453,-134.072 L -24.8825,-134.105 L 24.8825,-134.105 L 25.1453,-134.072 L 25.4019,-134.006 L 25.6482,-133.909
 L 25.8804,-133.781 L 26.0947,-133.625 L 26.2879,-133.444 L 26.4567,-133.24 L 26.5987,-133.016 L 26.7115,-132.777
 L 26.7934,-132.525 L 26.843,-132.264 L 26.8596,-132 L 26.8596,-120 L 26.843,-119.736 L 26.7934,-119.475
 L 26.7115,-119.223 L 26.5987,-118.984 L 26.4567,-118.76 L 26.2879,-118.556 L 26.0947,-118.375 L 25.8804,-118.219
 L 25.6482,-118.091 L 25.4019,-117.994 L 25.1453,-117.928 L 24.8825,-117.895 z
" stroke="black" fill="lightgray" stroke-width="0.5"/>
</svg>
