solid OpenSCAD_Model
  facet normal 0.998026 0.0627978 0
    outer loop
      vertex 29 0 7
      vertex 28.7713 3.63466 0
      vertex 28.7713 3.63466 7
    endloop
  endfacet
  facet normal 0.998026 0.0627978 0
    outer loop
      vertex 28.7713 3.63466 0
      vertex 29 0 7
      vertex 29 0 0
    endloop
  endfacet
  facet normal -0.998026 0.0627978 0
    outer loop
      vertex -29 0 0
      vertex -28.7713 3.63466 7
      vertex -28.7713 3.63466 0
    endloop
  endfacet
  facet normal -0.998026 0.0627978 0
    outer loop
      vertex -28.7713 3.63466 7
      vertex -29 0 0
      vertex -29 0 7
    endloop
  endfacet
  facet normal 0 1 -0
    outer loop
      vertex 1.82092 28.9428 0
      vertex -1.82092 28.9428 7
      vertex 1.82092 28.9428 7
    endloop
  endfacet
  facet normal 0 1 0
    outer loop
      vertex -1.82092 28.9428 7
      vertex 1.82092 28.9428 0
      vertex -1.82092 28.9428 0
    endloop
  endfacet
  facet normal 0 -1 0
    outer loop
      vertex -1.82092 -28.9428 0
      vertex 1.82092 -28.9428 7
      vertex -1.82092 -28.9428 7
    endloop
  endfacet
  facet normal 0 -1 -0
    outer loop
      vertex 1.82092 -28.9428 7
      vertex -1.82092 -28.9428 0
      vertex 1.82092 -28.9428 0
    endloop
  endfacet
  facet normal 0.684544 0.728972 -0
    outer loop
      vertex 21.1401 19.8519 0
      vertex 18.4853 22.3449 7
      vertex 21.1401 19.8519 7
    endloop
  endfacet
  facet normal 0.684544 0.728972 0
    outer loop
      vertex 18.4853 22.3449 7
      vertex 21.1401 19.8519 0
      vertex 18.4853 22.3449 0
    endloop
  endfacet
  facet normal -0.684544 0.728972 0
    outer loop
      vertex -18.4853 22.3449 0
      vertex -21.1401 19.8519 7
      vertex -18.4853 22.3449 7
    endloop
  endfacet
  facet normal -0.684544 0.728972 0
    outer loop
      vertex -21.1401 19.8519 7
      vertex -18.4853 22.3449 0
      vertex -21.1401 19.8519 0
    endloop
  endfacet
  facet normal -0.368111 0.929782 0
    outer loop
      vertex -8.96149 27.5806 0
      vertex -12.3476 26.24 7
      vertex -8.96149 27.5806 7
    endloop
  endfacet
  facet normal -0.368111 0.929782 0
    outer loop
      vertex -12.3476 26.24 7
      vertex -8.96149 27.5806 0
      vertex -12.3476 26.24 0
    endloop
  endfacet
  facet normal 0.904832 0.425768 0
    outer loop
      vertex 26.9635 10.6756 7
      vertex 25.4129 13.9709 0
      vertex 25.4129 13.9709 7
    endloop
  endfacet
  facet normal 0.904832 0.425768 0
    outer loop
      vertex 25.4129 13.9709 0
      vertex 26.9635 10.6756 7
      vertex 26.9635 10.6756 0
    endloop
  endfacet
  facet normal 0.982288 0.187377 0
    outer loop
      vertex 28.7713 3.63466 7
      vertex 28.0889 7.21201 0
      vertex 28.0889 7.21201 7
    endloop
  endfacet
  facet normal 0.982288 0.187377 0
    outer loop
      vertex 28.0889 7.21201 0
      vertex 28.7713 3.63466 7
      vertex 28.7713 3.63466 0
    endloop
  endfacet
  facet normal 0.368111 0.929782 -0
    outer loop
      vertex 12.3476 26.24 0
      vertex 8.96149 27.5806 7
      vertex 12.3476 26.24 7
    endloop
  endfacet
  facet normal 0.368111 0.929782 0
    outer loop
      vertex 8.96149 27.5806 7
      vertex 12.3476 26.24 0
      vertex 8.96149 27.5806 0
    endloop
  endfacet
  facet normal 0.481756 0.876305 -0
    outer loop
      vertex 15.539 24.4855 0
      vertex 12.3476 26.24 7
      vertex 15.539 24.4855 7
    endloop
  endfacet
  facet normal 0.481756 0.876305 0
    outer loop
      vertex 12.3476 26.24 7
      vertex 15.539 24.4855 0
      vertex 12.3476 26.24 0
    endloop
  endfacet
  facet normal -0.904832 0.425768 0
    outer loop
      vertex -26.9635 10.6756 0
      vertex -25.4129 13.9709 7
      vertex -25.4129 13.9709 0
    endloop
  endfacet
  facet normal -0.904832 0.425768 0
    outer loop
      vertex -25.4129 13.9709 7
      vertex -26.9635 10.6756 0
      vertex -26.9635 10.6756 7
    endloop
  endfacet
  facet normal 0 0 1
    outer loop
      vertex 22.5 0 7
      vertex 29 0 7
      vertex 28.7713 3.63466 7
    endloop
  endfacet
  facet normal 0 0 1
    outer loop
      vertex 22.3226 2.82 7
      vertex 28.7713 3.63466 7
      vertex 28.0889 7.21201 7
    endloop
  endfacet
  facet normal 0 0 1
    outer loop
      vertex 29 0 7
      vertex 22.5 0 7
      vertex 28.7713 -3.63466 7
    endloop
  endfacet
  facet normal 0 0 1
    outer loop
      vertex 21.7931 5.59552 7
      vertex 28.0889 7.21201 7
      vertex 26.9635 10.6756 7
    endloop
  endfacet
  facet normal -0 0 1
    outer loop
      vertex 22.3226 -2.82 7
      vertex 28.7713 -3.63466 7
      vertex 22.5 0 7
    endloop
  endfacet
  facet normal 0 0 1
    outer loop
      vertex 20.92 8.2828 7
      vertex 26.9635 10.6756 7
      vertex 25.4129 13.9709 7
    endloop
  endfacet
  facet normal 0 0 1
    outer loop
      vertex 28.7713 -3.63466 7
      vertex 22.3226 -2.82 7
      vertex 28.0889 -7.21201 7
    endloop
  endfacet
  facet normal 0 0 1
    outer loop
      vertex 19.7169 10.8395 7
      vertex 25.4129 13.9709 7
      vertex 23.4615 17.0458 7
    endloop
  endfacet
  facet normal -0 0 1
    outer loop
      vertex 21.7931 -5.59552 7
      vertex 28.0889 -7.21201 7
      vertex 22.3226 -2.82 7
    endloop
  endfacet
  facet normal 0 0 1
    outer loop
      vertex 28.0889 -7.21201 7
      vertex 21.7931 -5.59552 7
      vertex 26.9635 -10.6756 7
    endloop
  endfacet
  facet normal 0 0 1
    outer loop
      vertex 28.7713 3.63466 7
      vertex 22.3226 2.82 7
      vertex 22.5 0 7
    endloop
  endfacet
  facet normal 0 0 1
    outer loop
      vertex 28.0889 7.21201 7
      vertex 21.7931 5.59552 7
      vertex 22.3226 2.82 7
    endloop
  endfacet
  facet normal 0 0 1
    outer loop
      vertex 18.2029 13.2252 7
      vertex 23.4615 17.0458 7
      vertex 21.1401 19.8519 7
    endloop
  endfacet
  facet normal 0 0 1
    outer loop
      vertex 26.9635 10.6756 7
      vertex 20.92 8.2828 7
      vertex 21.7931 5.59552 7
    endloop
  endfacet
  facet normal 0 0 1
    outer loop
      vertex 25.4129 13.9709 7
      vertex 19.7169 10.8395 7
      vertex 20.92 8.2828 7
    endloop
  endfacet
  facet normal 0 0 1
    outer loop
      vertex 16.4018 15.4023 7
      vertex 21.1401 19.8519 7
      vertex 18.4853 22.3449 7
    endloop
  endfacet
  facet normal 0 0 1
    outer loop
      vertex 23.4615 17.0458 7
      vertex 18.2029 13.2252 7
      vertex 19.7169 10.8395 7
    endloop
  endfacet
  facet normal 0 0 1
    outer loop
      vertex 21.1401 19.8519 7
      vertex 16.4018 15.4023 7
      vertex 18.2029 13.2252 7
    endloop
  endfacet
  facet normal 0 0 1
    outer loop
      vertex 14.342 17.3365 7
      vertex 18.4853 22.3449 7
      vertex 15.539 24.4855 7
    endloop
  endfacet
  facet normal 0 0 1
    outer loop
      vertex 18.4853 22.3449 7
      vertex 14.342 17.3365 7
      vertex 16.4018 15.4023 7
    endloop
  endfacet
  facet normal 0 0 1
    outer loop
      vertex 12.0561 18.9974 7
      vertex 15.539 24.4855 7
      vertex 12.3476 26.24 7
    endloop
  endfacet
  facet normal 0 0 1
    outer loop
      vertex 15.539 24.4855 7
      vertex 12.0561 18.9974 7
      vertex 14.342 17.3365 7
    endloop
  endfacet
  facet normal 0 0 1
    outer loop
      vertex 12.3476 26.24 7
      vertex 9.58003 20.3586 7
      vertex 12.0561 18.9974 7
    endloop
  endfacet
  facet normal 0 0 1
    outer loop
      vertex 8.96149 27.5806 7
      vertex 9.58003 20.3586 7
      vertex 12.3476 26.24 7
    endloop
  endfacet
  facet normal 0 0 1
    outer loop
      vertex 8.96149 27.5806 7
      vertex 6.95288 21.3988 7
      vertex 9.58003 20.3586 7
    endloop
  endfacet
  facet normal 0 0 1
    outer loop
      vertex 5.43406 28.4863 7
      vertex 6.95288 21.3988 7
      vertex 8.96149 27.5806 7
    endloop
  endfacet
  facet normal 0 0 1
    outer loop
      vertex 5.43406 28.4863 7
      vertex 4.21608 22.1015 7
      vertex 6.95288 21.3988 7
    endloop
  endfacet
  facet normal 0 0 1
    outer loop
      vertex 1.82092 28.9428 7
      vertex 4.21608 22.1015 7
      vertex 5.43406 28.4863 7
    endloop
  endfacet
  facet normal 0 0 1
    outer loop
      vertex 1.82092 28.9428 7
      vertex 1.41279 22.4556 7
      vertex 4.21608 22.1015 7
    endloop
  endfacet
  facet normal 0 0 1
    outer loop
      vertex 1.82092 28.9428 7
      vertex -1.41279 22.4556 7
      vertex 1.41279 22.4556 7
    endloop
  endfacet
  facet normal -0 0 1
    outer loop
      vertex -1.82092 28.9428 7
      vertex -1.41279 22.4556 7
      vertex 1.82092 28.9428 7
    endloop
  endfacet
  facet normal 0 0 1
    outer loop
      vertex -1.82092 28.9428 7
      vertex -4.21608 22.1015 7
      vertex -1.41279 22.4556 7
    endloop
  endfacet
  facet normal -0 0 1
    outer loop
      vertex -5.43406 28.4863 7
      vertex -4.21608 22.1015 7
      vertex -1.82092 28.9428 7
    endloop
  endfacet
  facet normal 0 0 1
    outer loop
      vertex -5.43406 28.4863 7
      vertex -6.95288 21.3988 7
      vertex -4.21608 22.1015 7
    endloop
  endfacet
  facet normal -0 0 1
    outer loop
      vertex -8.96149 27.5806 7
      vertex -6.95288 21.3988 7
      vertex -5.43406 28.4863 7
    endloop
  endfacet
  facet normal 0 0 1
    outer loop
      vertex -8.96149 27.5806 7
      vertex -9.58003 20.3586 7
      vertex -6.95288 21.3988 7
    endloop
  endfacet
  facet normal -0 0 1
    outer loop
      vertex -12.3476 26.24 7
      vertex -9.58003 20.3586 7
      vertex -8.96149 27.5806 7
    endloop
  endfacet
  facet normal 0 0 1
    outer loop
      vertex -9.58003 20.3586 7
      vertex -12.3476 26.24 7
      vertex -12.0561 18.9974 7
    endloop
  endfacet
  facet normal -0 0 1
    outer loop
      vertex -15.539 24.4855 7
      vertex -12.0561 18.9974 7
      vertex -12.3476 26.24 7
    endloop
  endfacet
  facet normal 0 0 1
    outer loop
      vertex -12.0561 18.9974 7
      vertex -15.539 24.4855 7
      vertex -14.342 17.3365 7
    endloop
  endfacet
  facet normal -0 0 1
    outer loop
      vertex -18.4853 22.3449 7
      vertex -14.342 17.3365 7
      vertex -15.539 24.4855 7
    endloop
  endfacet
  facet normal 0 0 1
    outer loop
      vertex -14.342 17.3365 7
      vertex -18.4853 22.3449 7
      vertex -16.4018 15.4023 7
    endloop
  endfacet
  facet normal -0 0 1
    outer loop
      vertex -21.1401 19.8519 7
      vertex -16.4018 15.4023 7
      vertex -18.4853 22.3449 7
    endloop
  endfacet
  facet normal 0 0 1
    outer loop
      vertex -16.4018 15.4023 7
      vertex -21.1401 19.8519 7
      vertex -18.2029 13.2252 7
    endloop
  endfacet
  facet normal -0 0 1
    outer loop
      vertex -23.4615 17.0458 7
      vertex -18.2029 13.2252 7
      vertex -21.1401 19.8519 7
    endloop
  endfacet
  facet normal 0 0 1
    outer loop
      vertex -18.2029 13.2252 7
      vertex -23.4615 17.0458 7
      vertex -19.7169 10.8395 7
    endloop
  endfacet
  facet normal -0 0 1
    outer loop
      vertex -25.4129 13.9709 7
      vertex -19.7169 10.8395 7
      vertex -23.4615 17.0458 7
    endloop
  endfacet
  facet normal 0 0 1
    outer loop
      vertex -19.7169 10.8395 7
      vertex -25.4129 13.9709 7
      vertex -20.92 8.2828 7
    endloop
  endfacet
  facet normal 0 0 1
    outer loop
      vertex -20.92 8.2828 7
      vertex -26.9635 10.6756 7
      vertex -21.7931 5.59552 7
    endloop
  endfacet
  facet normal -0 0 1
    outer loop
      vertex -26.9635 10.6756 7
      vertex -20.92 8.2828 7
      vertex -25.4129 13.9709 7
    endloop
  endfacet
  facet normal -0 0 1
    outer loop
      vertex 20.92 -8.2828 7
      vertex 26.9635 -10.6756 7
      vertex 21.7931 -5.59552 7
    endloop
  endfacet
  facet normal 0 0 1
    outer loop
      vertex 26.9635 -10.6756 7
      vertex 20.92 -8.2828 7
      vertex 25.4129 -13.9709 7
    endloop
  endfacet
  facet normal -0 0 1
    outer loop
      vertex 19.7169 -10.8395 7
      vertex 25.4129 -13.9709 7
      vertex 20.92 -8.2828 7
    endloop
  endfacet
  facet normal 0 0 1
    outer loop
      vertex 25.4129 -13.9709 7
      vertex 19.7169 -10.8395 7
      vertex 23.4615 -17.0458 7
    endloop
  endfacet
  facet normal -0 0 1
    outer loop
      vertex 18.2029 -13.2252 7
      vertex 23.4615 -17.0458 7
      vertex 19.7169 -10.8395 7
    endloop
  endfacet
  facet normal 0 0 1
    outer loop
      vertex 23.4615 -17.0458 7
      vertex 18.2029 -13.2252 7
      vertex 21.1401 -19.8519 7
    endloop
  endfacet
  facet normal -0 0 1
    outer loop
      vertex 16.4018 -15.4023 7
      vertex 21.1401 -19.8519 7
      vertex 18.2029 -13.2252 7
    endloop
  endfacet
  facet normal 0 0 1
    outer loop
      vertex 21.1401 -19.8519 7
      vertex 16.4018 -15.4023 7
      vertex 18.4853 -22.3449 7
    endloop
  endfacet
  facet normal -0 0 1
    outer loop
      vertex 14.342 -17.3365 7
      vertex 18.4853 -22.3449 7
      vertex 16.4018 -15.4023 7
    endloop
  endfacet
  facet normal 0 0 1
    outer loop
      vertex 18.4853 -22.3449 7
      vertex 14.342 -17.3365 7
      vertex 15.539 -24.4855 7
    endloop
  endfacet
  facet normal -0 0 1
    outer loop
      vertex 12.0561 -18.9974 7
      vertex 15.539 -24.4855 7
      vertex 14.342 -17.3365 7
    endloop
  endfacet
  facet normal 0 0 1
    outer loop
      vertex 15.539 -24.4855 7
      vertex 12.0561 -18.9974 7
      vertex 12.3476 -26.24 7
    endloop
  endfacet
  facet normal -0 0 1
    outer loop
      vertex 9.58003 -20.3586 7
      vertex 12.3476 -26.24 7
      vertex 12.0561 -18.9974 7
    endloop
  endfacet
  facet normal 0 0 1
    outer loop
      vertex 9.58003 -20.3586 7
      vertex 8.96149 -27.5806 7
      vertex 12.3476 -26.24 7
    endloop
  endfacet
  facet normal -0 0 1
    outer loop
      vertex 6.95288 -21.3988 7
      vertex 8.96149 -27.5806 7
      vertex 9.58003 -20.3586 7
    endloop
  endfacet
  facet normal 0 0 1
    outer loop
      vertex 6.95288 -21.3988 7
      vertex 5.43406 -28.4863 7
      vertex 8.96149 -27.5806 7
    endloop
  endfacet
  facet normal -0 0 1
    outer loop
      vertex 4.21608 -22.1015 7
      vertex 5.43406 -28.4863 7
      vertex 6.95288 -21.3988 7
    endloop
  endfacet
  facet normal 0 0 1
    outer loop
      vertex 4.21608 -22.1015 7
      vertex 1.82092 -28.9428 7
      vertex 5.43406 -28.4863 7
    endloop
  endfacet
  facet normal -0 0 1
    outer loop
      vertex 1.41279 -22.4556 7
      vertex 1.82092 -28.9428 7
      vertex 4.21608 -22.1015 7
    endloop
  endfacet
  facet normal -0 0 1
    outer loop
      vertex -1.41279 -22.4556 7
      vertex 1.82092 -28.9428 7
      vertex 1.41279 -22.4556 7
    endloop
  endfacet
  facet normal 0 0 1
    outer loop
      vertex -1.41279 -22.4556 7
      vertex -1.82092 -28.9428 7
      vertex 1.82092 -28.9428 7
    endloop
  endfacet
  facet normal 0 0 1
    outer loop
      vertex -4.21608 -22.1015 7
      vertex -1.82092 -28.9428 7
      vertex -1.41279 -22.4556 7
    endloop
  endfacet
  facet normal 0 0 1
    outer loop
      vertex -4.21608 -22.1015 7
      vertex -5.43406 -28.4863 7
      vertex -1.82092 -28.9428 7
    endloop
  endfacet
  facet normal 0 0 1
    outer loop
      vertex -6.95288 -21.3988 7
      vertex -5.43406 -28.4863 7
      vertex -4.21608 -22.1015 7
    endloop
  endfacet
  facet normal 0 0 1
    outer loop
      vertex -6.95288 -21.3988 7
      vertex -8.96149 -27.5806 7
      vertex -5.43406 -28.4863 7
    endloop
  endfacet
  facet normal 0 0 1
    outer loop
      vertex -9.58003 -20.3586 7
      vertex -8.96149 -27.5806 7
      vertex -6.95288 -21.3988 7
    endloop
  endfacet
  facet normal 0 0 1
    outer loop
      vertex -12.3476 -26.24 7
      vertex -9.58003 -20.3586 7
      vertex -12.0561 -18.9974 7
    endloop
  endfacet
  facet normal 0 0 1
    outer loop
      vertex -9.58003 -20.3586 7
      vertex -12.3476 -26.24 7
      vertex -8.96149 -27.5806 7
    endloop
  endfacet
  facet normal 0 0 1
    outer loop
      vertex -15.539 -24.4855 7
      vertex -12.0561 -18.9974 7
      vertex -14.342 -17.3365 7
    endloop
  endfacet
  facet normal 0 0 1
    outer loop
      vertex -12.0561 -18.9974 7
      vertex -15.539 -24.4855 7
      vertex -12.3476 -26.24 7
    endloop
  endfacet
  facet normal 0 0 1
    outer loop
      vertex -18.4853 -22.3449 7
      vertex -14.342 -17.3365 7
      vertex -16.4018 -15.4023 7
    endloop
  endfacet
  facet normal 0 0 1
    outer loop
      vertex -21.1401 -19.8519 7
      vertex -16.4018 -15.4023 7
      vertex -18.2029 -13.2252 7
    endloop
  endfacet
  facet normal 0 0 1
    outer loop
      vertex -14.342 -17.3365 7
      vertex -18.4853 -22.3449 7
      vertex -15.539 -24.4855 7
    endloop
  endfacet
  facet normal 0 0 1
    outer loop
      vertex -23.4615 -17.0458 7
      vertex -18.2029 -13.2252 7
      vertex -19.7169 -10.8395 7
    endloop
  endfacet
  facet normal 0 0 1
    outer loop
      vertex -25.4129 -13.9709 7
      vertex -19.7169 -10.8395 7
      vertex -20.92 -8.2828 7
    endloop
  endfacet
  facet normal 0 0 1
    outer loop
      vertex -16.4018 -15.4023 7
      vertex -21.1401 -19.8519 7
      vertex -18.4853 -22.3449 7
    endloop
  endfacet
  facet normal 0 0 1
    outer loop
      vertex -26.9635 -10.6756 7
      vertex -20.92 -8.2828 7
      vertex -21.7931 -5.59552 7
    endloop
  endfacet
  facet normal 0 0 1
    outer loop
      vertex -28.0889 -7.21201 7
      vertex -21.7931 -5.59552 7
      vertex -22.3226 -2.82 7
    endloop
  endfacet
  facet normal 0 0 1
    outer loop
      vertex -18.2029 -13.2252 7
      vertex -23.4615 -17.0458 7
      vertex -21.1401 -19.8519 7
    endloop
  endfacet
  facet normal 0 0 1
    outer loop
      vertex -28.7713 -3.63466 7
      vertex -22.3226 -2.82 7
      vertex -22.5 0 7
    endloop
  endfacet
  facet normal -0 0 1
    outer loop
      vertex -28.0889 7.21201 7
      vertex -21.7931 5.59552 7
      vertex -26.9635 10.6756 7
    endloop
  endfacet
  facet normal 0 0 1
    outer loop
      vertex -21.7931 5.59552 7
      vertex -28.0889 7.21201 7
      vertex -22.3226 2.82 7
    endloop
  endfacet
  facet normal 0 0 1
    outer loop
      vertex -19.7169 -10.8395 7
      vertex -25.4129 -13.9709 7
      vertex -23.4615 -17.0458 7
    endloop
  endfacet
  facet normal -0 0 1
    outer loop
      vertex -28.7713 3.63466 7
      vertex -22.3226 2.82 7
      vertex -28.0889 7.21201 7
    endloop
  endfacet
  facet normal 0 0 1
    outer loop
      vertex -20.92 -8.2828 7
      vertex -26.9635 -10.6756 7
      vertex -25.4129 -13.9709 7
    endloop
  endfacet
  facet normal 0 0 1
    outer loop
      vertex -22.3226 2.82 7
      vertex -28.7713 3.63466 7
      vertex -22.5 0 7
    endloop
  endfacet
  facet normal 0 0 1
    outer loop
      vertex -21.7931 -5.59552 7
      vertex -28.0889 -7.21201 7
      vertex -26.9635 -10.6756 7
    endloop
  endfacet
  facet normal 0 0 1
    outer loop
      vertex -29 0 7
      vertex -22.5 0 7
      vertex -28.7713 3.63466 7
    endloop
  endfacet
  facet normal 0 0 1
    outer loop
      vertex -22.3226 -2.82 7
      vertex -28.7713 -3.63466 7
      vertex -28.0889 -7.21201 7
    endloop
  endfacet
  facet normal 0 0 1
    outer loop
      vertex -22.5 0 7
      vertex -29 0 7
      vertex -28.7713 -3.63466 7
    endloop
  endfacet
  facet normal -0.248692 0.968583 0
    outer loop
      vertex -5.43406 28.4863 0
      vertex -8.96149 27.5806 7
      vertex -5.43406 28.4863 7
    endloop
  endfacet
  facet normal -0.248692 0.968583 0
    outer loop
      vertex -8.96149 27.5806 7
      vertex -5.43406 28.4863 0
      vertex -8.96149 27.5806 0
    endloop
  endfacet
  facet normal 0 0 -1
    outer loop
      vertex 22.5 0 0
      vertex 29 0 0
      vertex 28.7713 -3.63466 0
    endloop
  endfacet
  facet normal 0 0 -1
    outer loop
      vertex 22.3226 -2.82 0
      vertex 28.7713 -3.63466 0
      vertex 28.0889 -7.21201 0
    endloop
  endfacet
  facet normal 0 0 -1
    outer loop
      vertex 29 0 0
      vertex 22.5 0 0
      vertex 28.7713 3.63466 0
    endloop
  endfacet
  facet normal 0 0 -1
    outer loop
      vertex 21.7931 -5.59552 0
      vertex 28.0889 -7.21201 0
      vertex 26.9635 -10.6756 0
    endloop
  endfacet
  facet normal 0 0 -1
    outer loop
      vertex 22.3226 2.82 0
      vertex 28.7713 3.63466 0
      vertex 22.5 0 0
    endloop
  endfacet
  facet normal 0 0 -1
    outer loop
      vertex 20.92 -8.2828 0
      vertex 26.9635 -10.6756 0
      vertex 25.4129 -13.9709 0
    endloop
  endfacet
  facet normal -0 0 -1
    outer loop
      vertex 28.7713 3.63466 0
      vertex 22.3226 2.82 0
      vertex 28.0889 7.21201 0
    endloop
  endfacet
  facet normal 0 0 -1
    outer loop
      vertex 19.7169 -10.8395 0
      vertex 25.4129 -13.9709 0
      vertex 23.4615 -17.0458 0
    endloop
  endfacet
  facet normal 0 0 -1
    outer loop
      vertex 21.7931 5.59552 0
      vertex 28.0889 7.21201 0
      vertex 22.3226 2.82 0
    endloop
  endfacet
  facet normal -0 0 -1
    outer loop
      vertex 28.0889 7.21201 0
      vertex 21.7931 5.59552 0
      vertex 26.9635 10.6756 0
    endloop
  endfacet
  facet normal 0 0 -1
    outer loop
      vertex 28.7713 -3.63466 0
      vertex 22.3226 -2.82 0
      vertex 22.5 0 0
    endloop
  endfacet
  facet normal 0 0 -1
    outer loop
      vertex 28.0889 -7.21201 0
      vertex 21.7931 -5.59552 0
      vertex 22.3226 -2.82 0
    endloop
  endfacet
  facet normal 0 0 -1
    outer loop
      vertex 18.2029 -13.2252 0
      vertex 23.4615 -17.0458 0
      vertex 21.1401 -19.8519 0
    endloop
  endfacet
  facet normal 0 0 -1
    outer loop
      vertex 26.9635 -10.6756 0
      vertex 20.92 -8.2828 0
      vertex 21.7931 -5.59552 0
    endloop
  endfacet
  facet normal 0 0 -1
    outer loop
      vertex 25.4129 -13.9709 0
      vertex 19.7169 -10.8395 0
      vertex 20.92 -8.2828 0
    endloop
  endfacet
  facet normal 0 0 -1
    outer loop
      vertex 16.4018 -15.4023 0
      vertex 21.1401 -19.8519 0
      vertex 18.4853 -22.3449 0
    endloop
  endfacet
  facet normal 0 0 -1
    outer loop
      vertex 23.4615 -17.0458 0
      vertex 18.2029 -13.2252 0
      vertex 19.7169 -10.8395 0
    endloop
  endfacet
  facet normal 0 0 -1
    outer loop
      vertex 21.1401 -19.8519 0
      vertex 16.4018 -15.4023 0
      vertex 18.2029 -13.2252 0
    endloop
  endfacet
  facet normal 0 0 -1
    outer loop
      vertex 14.342 -17.3365 0
      vertex 18.4853 -22.3449 0
      vertex 15.539 -24.4855 0
    endloop
  endfacet
  facet normal 0 0 -1
    outer loop
      vertex 18.4853 -22.3449 0
      vertex 14.342 -17.3365 0
      vertex 16.4018 -15.4023 0
    endloop
  endfacet
  facet normal 0 0 -1
    outer loop
      vertex 12.0561 -18.9974 0
      vertex 15.539 -24.4855 0
      vertex 12.3476 -26.24 0
    endloop
  endfacet
  facet normal 0 0 -1
    outer loop
      vertex 15.539 -24.4855 0
      vertex 12.0561 -18.9974 0
      vertex 14.342 -17.3365 0
    endloop
  endfacet
  facet normal 0 0 -1
    outer loop
      vertex 12.3476 -26.24 0
      vertex 9.58003 -20.3586 0
      vertex 12.0561 -18.9974 0
    endloop
  endfacet
  facet normal 0 0 -1
    outer loop
      vertex 8.96149 -27.5806 0
      vertex 9.58003 -20.3586 0
      vertex 12.3476 -26.24 0
    endloop
  endfacet
  facet normal 0 0 -1
    outer loop
      vertex 8.96149 -27.5806 0
      vertex 6.95288 -21.3988 0
      vertex 9.58003 -20.3586 0
    endloop
  endfacet
  facet normal 0 0 -1
    outer loop
      vertex 5.43406 -28.4863 0
      vertex 6.95288 -21.3988 0
      vertex 8.96149 -27.5806 0
    endloop
  endfacet
  facet normal 0 0 -1
    outer loop
      vertex 5.43406 -28.4863 0
      vertex 4.21608 -22.1015 0
      vertex 6.95288 -21.3988 0
    endloop
  endfacet
  facet normal 0 0 -1
    outer loop
      vertex 1.82092 -28.9428 0
      vertex 4.21608 -22.1015 0
      vertex 5.43406 -28.4863 0
    endloop
  endfacet
  facet normal 0 0 -1
    outer loop
      vertex 1.82092 -28.9428 0
      vertex 1.41279 -22.4556 0
      vertex 4.21608 -22.1015 0
    endloop
  endfacet
  facet normal 0 0 -1
    outer loop
      vertex 1.82092 -28.9428 0
      vertex -1.41279 -22.4556 0
      vertex 1.41279 -22.4556 0
    endloop
  endfacet
  facet normal 0 0 -1
    outer loop
      vertex -1.82092 -28.9428 0
      vertex -1.41279 -22.4556 0
      vertex 1.82092 -28.9428 0
    endloop
  endfacet
  facet normal 0 0 -1
    outer loop
      vertex -1.82092 -28.9428 0
      vertex -4.21608 -22.1015 0
      vertex -1.41279 -22.4556 0
    endloop
  endfacet
  facet normal 0 0 -1
    outer loop
      vertex -5.43406 -28.4863 0
      vertex -4.21608 -22.1015 0
      vertex -1.82092 -28.9428 0
    endloop
  endfacet
  facet normal 0 0 -1
    outer loop
      vertex -5.43406 -28.4863 0
      vertex -6.95288 -21.3988 0
      vertex -4.21608 -22.1015 0
    endloop
  endfacet
  facet normal 0 0 -1
    outer loop
      vertex -8.96149 -27.5806 0
      vertex -6.95288 -21.3988 0
      vertex -5.43406 -28.4863 0
    endloop
  endfacet
  facet normal 0 0 -1
    outer loop
      vertex -8.96149 -27.5806 0
      vertex -9.58003 -20.3586 0
      vertex -6.95288 -21.3988 0
    endloop
  endfacet
  facet normal 0 0 -1
    outer loop
      vertex -12.3476 -26.24 0
      vertex -9.58003 -20.3586 0
      vertex -8.96149 -27.5806 0
    endloop
  endfacet
  facet normal -0 0 -1
    outer loop
      vertex -9.58003 -20.3586 0
      vertex -12.3476 -26.24 0
      vertex -12.0561 -18.9974 0
    endloop
  endfacet
  facet normal 0 0 -1
    outer loop
      vertex -15.539 -24.4855 0
      vertex -12.0561 -18.9974 0
      vertex -12.3476 -26.24 0
    endloop
  endfacet
  facet normal -0 0 -1
    outer loop
      vertex -12.0561 -18.9974 0
      vertex -15.539 -24.4855 0
      vertex -14.342 -17.3365 0
    endloop
  endfacet
  facet normal 0 0 -1
    outer loop
      vertex -18.4853 -22.3449 0
      vertex -14.342 -17.3365 0
      vertex -15.539 -24.4855 0
    endloop
  endfacet
  facet normal -0 0 -1
    outer loop
      vertex -14.342 -17.3365 0
      vertex -18.4853 -22.3449 0
      vertex -16.4018 -15.4023 0
    endloop
  endfacet
  facet normal 0 0 -1
    outer loop
      vertex -21.1401 -19.8519 0
      vertex -16.4018 -15.4023 0
      vertex -18.4853 -22.3449 0
    endloop
  endfacet
  facet normal -0 0 -1
    outer loop
      vertex -16.4018 -15.4023 0
      vertex -21.1401 -19.8519 0
      vertex -18.2029 -13.2252 0
    endloop
  endfacet
  facet normal 0 0 -1
    outer loop
      vertex -23.4615 -17.0458 0
      vertex -18.2029 -13.2252 0
      vertex -21.1401 -19.8519 0
    endloop
  endfacet
  facet normal -0 0 -1
    outer loop
      vertex -18.2029 -13.2252 0
      vertex -23.4615 -17.0458 0
      vertex -19.7169 -10.8395 0
    endloop
  endfacet
  facet normal 0 0 -1
    outer loop
      vertex -25.4129 -13.9709 0
      vertex -19.7169 -10.8395 0
      vertex -23.4615 -17.0458 0
    endloop
  endfacet
  facet normal -0 0 -1
    outer loop
      vertex -19.7169 -10.8395 0
      vertex -25.4129 -13.9709 0
      vertex -20.92 -8.2828 0
    endloop
  endfacet
  facet normal -0 0 -1
    outer loop
      vertex -20.92 -8.2828 0
      vertex -26.9635 -10.6756 0
      vertex -21.7931 -5.59552 0
    endloop
  endfacet
  facet normal 0 0 -1
    outer loop
      vertex -26.9635 -10.6756 0
      vertex -20.92 -8.2828 0
      vertex -25.4129 -13.9709 0
    endloop
  endfacet
  facet normal 0 0 -1
    outer loop
      vertex 20.92 8.2828 0
      vertex 26.9635 10.6756 0
      vertex 21.7931 5.59552 0
    endloop
  endfacet
  facet normal -0 0 -1
    outer loop
      vertex 26.9635 10.6756 0
      vertex 20.92 8.2828 0
      vertex 25.4129 13.9709 0
    endloop
  endfacet
  facet normal 0 0 -1
    outer loop
      vertex 19.7169 10.8395 0
      vertex 25.4129 13.9709 0
      vertex 20.92 8.2828 0
    endloop
  endfacet
  facet normal -0 0 -1
    outer loop
      vertex 25.4129 13.9709 0
      vertex 19.7169 10.8395 0
      vertex 23.4615 17.0458 0
    endloop
  endfacet
  facet normal 0 0 -1
    outer loop
      vertex 18.2029 13.2252 0
      vertex 23.4615 17.0458 0
      vertex 19.7169 10.8395 0
    endloop
  endfacet
  facet normal -0 0 -1
    outer loop
      vertex 23.4615 17.0458 0
      vertex 18.2029 13.2252 0
      vertex 21.1401 19.8519 0
    endloop
  endfacet
  facet normal 0 0 -1
    outer loop
      vertex 16.4018 15.4023 0
      vertex 21.1401 19.8519 0
      vertex 18.2029 13.2252 0
    endloop
  endfacet
  facet normal -0 0 -1
    outer loop
      vertex 21.1401 19.8519 0
      vertex 16.4018 15.4023 0
      vertex 18.4853 22.3449 0
    endloop
  endfacet
  facet normal 0 0 -1
    outer loop
      vertex 14.342 17.3365 0
      vertex 18.4853 22.3449 0
      vertex 16.4018 15.4023 0
    endloop
  endfacet
  facet normal -0 0 -1
    outer loop
      vertex 18.4853 22.3449 0
      vertex 14.342 17.3365 0
      vertex 15.539 24.4855 0
    endloop
  endfacet
  facet normal 0 0 -1
    outer loop
      vertex 12.0561 18.9974 0
      vertex 15.539 24.4855 0
      vertex 14.342 17.3365 0
    endloop
  endfacet
  facet normal -0 0 -1
    outer loop
      vertex 15.539 24.4855 0
      vertex 12.0561 18.9974 0
      vertex 12.3476 26.24 0
    endloop
  endfacet
  facet normal 0 0 -1
    outer loop
      vertex 9.58003 20.3586 0
      vertex 12.3476 26.24 0
      vertex 12.0561 18.9974 0
    endloop
  endfacet
  facet normal 0 0 -1
    outer loop
      vertex 9.58003 20.3586 0
      vertex 8.96149 27.5806 0
      vertex 12.3476 26.24 0
    endloop
  endfacet
  facet normal 0 0 -1
    outer loop
      vertex 6.95288 21.3988 0
      vertex 8.96149 27.5806 0
      vertex 9.58003 20.3586 0
    endloop
  endfacet
  facet normal 0 0 -1
    outer loop
      vertex 6.95288 21.3988 0
      vertex 5.43406 28.4863 0
      vertex 8.96149 27.5806 0
    endloop
  endfacet
  facet normal 0 0 -1
    outer loop
      vertex 4.21608 22.1015 0
      vertex 5.43406 28.4863 0
      vertex 6.95288 21.3988 0
    endloop
  endfacet
  facet normal 0 0 -1
    outer loop
      vertex 4.21608 22.1015 0
      vertex 1.82092 28.9428 0
      vertex 5.43406 28.4863 0
    endloop
  endfacet
  facet normal 0 0 -1
    outer loop
      vertex 1.41279 22.4556 0
      vertex 1.82092 28.9428 0
      vertex 4.21608 22.1015 0
    endloop
  endfacet
  facet normal 0 0 -1
    outer loop
      vertex -1.41279 22.4556 0
      vertex 1.82092 28.9428 0
      vertex 1.41279 22.4556 0
    endloop
  endfacet
  facet normal 0 0 -1
    outer loop
      vertex -1.41279 22.4556 0
      vertex -1.82092 28.9428 0
      vertex 1.82092 28.9428 0
    endloop
  endfacet
  facet normal 0 0 -1
    outer loop
      vertex -4.21608 22.1015 0
      vertex -1.82092 28.9428 0
      vertex -1.41279 22.4556 0
    endloop
  endfacet
  facet normal 0 0 -1
    outer loop
      vertex -4.21608 22.1015 0
      vertex -5.43406 28.4863 0
      vertex -1.82092 28.9428 0
    endloop
  endfacet
  facet normal 0 0 -1
    outer loop
      vertex -6.95288 21.3988 0
      vertex -5.43406 28.4863 0
      vertex -4.21608 22.1015 0
    endloop
  endfacet
  facet normal 0 0 -1
    outer loop
      vertex -6.95288 21.3988 0
      vertex -8.96149 27.5806 0
      vertex -5.43406 28.4863 0
    endloop
  endfacet
  facet normal 0 0 -1
    outer loop
      vertex -9.58003 20.3586 0
      vertex -8.96149 27.5806 0
      vertex -6.95288 21.3988 0
    endloop
  endfacet
  facet normal 0 0 -1
    outer loop
      vertex -12.3476 26.24 0
      vertex -9.58003 20.3586 0
      vertex -12.0561 18.9974 0
    endloop
  endfacet
  facet normal 0 0 -1
    outer loop
      vertex -9.58003 20.3586 0
      vertex -12.3476 26.24 0
      vertex -8.96149 27.5806 0
    endloop
  endfacet
  facet normal 0 0 -1
    outer loop
      vertex -15.539 24.4855 0
      vertex -12.0561 18.9974 0
      vertex -14.342 17.3365 0
    endloop
  endfacet
  facet normal 0 0 -1
    outer loop
      vertex -12.0561 18.9974 0
      vertex -15.539 24.4855 0
      vertex -12.3476 26.24 0
    endloop
  endfacet
  facet normal 0 0 -1
    outer loop
      vertex -18.4853 22.3449 0
      vertex -14.342 17.3365 0
      vertex -16.4018 15.4023 0
    endloop
  endfacet
  facet normal 0 0 -1
    outer loop
      vertex -21.1401 19.8519 0
      vertex -16.4018 15.4023 0
      vertex -18.2029 13.2252 0
    endloop
  endfacet
  facet normal 0 0 -1
    outer loop
      vertex -14.342 17.3365 0
      vertex -18.4853 22.3449 0
      vertex -15.539 24.4855 0
    endloop
  endfacet
  facet normal 0 0 -1
    outer loop
      vertex -23.4615 17.0458 0
      vertex -18.2029 13.2252 0
      vertex -19.7169 10.8395 0
    endloop
  endfacet
  facet normal 0 0 -1
    outer loop
      vertex -25.4129 13.9709 0
      vertex -19.7169 10.8395 0
      vertex -20.92 8.2828 0
    endloop
  endfacet
  facet normal 0 0 -1
    outer loop
      vertex -16.4018 15.4023 0
      vertex -21.1401 19.8519 0
      vertex -18.4853 22.3449 0
    endloop
  endfacet
  facet normal 0 0 -1
    outer loop
      vertex -26.9635 10.6756 0
      vertex -20.92 8.2828 0
      vertex -21.7931 5.59552 0
    endloop
  endfacet
  facet normal 0 0 -1
    outer loop
      vertex -28.0889 7.21201 0
      vertex -21.7931 5.59552 0
      vertex -22.3226 2.82 0
    endloop
  endfacet
  facet normal 0 0 -1
    outer loop
      vertex -18.2029 13.2252 0
      vertex -23.4615 17.0458 0
      vertex -21.1401 19.8519 0
    endloop
  endfacet
  facet normal 0 0 -1
    outer loop
      vertex -28.7713 3.63466 0
      vertex -22.3226 2.82 0
      vertex -22.5 0 0
    endloop
  endfacet
  facet normal 0 0 -1
    outer loop
      vertex -28.0889 -7.21201 0
      vertex -21.7931 -5.59552 0
      vertex -26.9635 -10.6756 0
    endloop
  endfacet
  facet normal -0 0 -1
    outer loop
      vertex -21.7931 -5.59552 0
      vertex -28.0889 -7.21201 0
      vertex -22.3226 -2.82 0
    endloop
  endfacet
  facet normal 0 0 -1
    outer loop
      vertex -19.7169 10.8395 0
      vertex -25.4129 13.9709 0
      vertex -23.4615 17.0458 0
    endloop
  endfacet
  facet normal 0 0 -1
    outer loop
      vertex -28.7713 -3.63466 0
      vertex -22.3226 -2.82 0
      vertex -28.0889 -7.21201 0
    endloop
  endfacet
  facet normal 0 0 -1
    outer loop
      vertex -20.92 8.2828 0
      vertex -26.9635 10.6756 0
      vertex -25.4129 13.9709 0
    endloop
  endfacet
  facet normal -0 0 -1
    outer loop
      vertex -22.3226 -2.82 0
      vertex -28.7713 -3.63466 0
      vertex -22.5 0 0
    endloop
  endfacet
  facet normal 0 0 -1
    outer loop
      vertex -21.7931 5.59552 0
      vertex -28.0889 7.21201 0
      vertex -26.9635 10.6756 0
    endloop
  endfacet
  facet normal 0 0 -1
    outer loop
      vertex -29 0 0
      vertex -22.5 0 0
      vertex -28.7713 -3.63466 0
    endloop
  endfacet
  facet normal 0 0 -1
    outer loop
      vertex -22.3226 2.82 0
      vertex -28.7713 3.63466 0
      vertex -28.0889 7.21201 0
    endloop
  endfacet
  facet normal 0 0 -1
    outer loop
      vertex -22.5 0 0
      vertex -29 0 0
      vertex -28.7713 3.63466 0
    endloop
  endfacet
  facet normal 0.125348 -0.992113 0
    outer loop
      vertex 1.82092 -28.9428 0
      vertex 5.43406 -28.4863 7
      vertex 1.82092 -28.9428 7
    endloop
  endfacet
  facet normal 0.125348 -0.992113 0
    outer loop
      vertex 5.43406 -28.4863 7
      vertex 1.82092 -28.9428 0
      vertex 5.43406 -28.4863 0
    endloop
  endfacet
  facet normal 0.951056 0.30902 0
    outer loop
      vertex 28.0889 7.21201 7
      vertex 26.9635 10.6756 0
      vertex 26.9635 10.6756 7
    endloop
  endfacet
  facet normal 0.951056 0.30902 0
    outer loop
      vertex 26.9635 10.6756 0
      vertex 28.0889 7.21201 7
      vertex 28.0889 7.21201 0
    endloop
  endfacet
  facet normal 0.770514 0.637423 0
    outer loop
      vertex 23.4615 17.0458 7
      vertex 21.1401 19.8519 0
      vertex 21.1401 19.8519 7
    endloop
  endfacet
  facet normal 0.770514 0.637423 0
    outer loop
      vertex 21.1401 19.8519 0
      vertex 23.4615 17.0458 7
      vertex 23.4615 17.0458 0
    endloop
  endfacet
  facet normal 0.844327 0.535829 0
    outer loop
      vertex 25.4129 13.9709 7
      vertex 23.4615 17.0458 0
      vertex 23.4615 17.0458 7
    endloop
  endfacet
  facet normal 0.844327 0.535829 0
    outer loop
      vertex 23.4615 17.0458 0
      vertex 25.4129 13.9709 7
      vertex 25.4129 13.9709 0
    endloop
  endfacet
  facet normal 0.248692 0.968583 -0
    outer loop
      vertex 8.96149 27.5806 0
      vertex 5.43406 28.4863 7
      vertex 8.96149 27.5806 7
    endloop
  endfacet
  facet normal 0.248692 0.968583 0
    outer loop
      vertex 5.43406 28.4863 7
      vertex 8.96149 27.5806 0
      vertex 5.43406 28.4863 0
    endloop
  endfacet
  facet normal 0.125348 0.992113 -0
    outer loop
      vertex 5.43406 28.4863 0
      vertex 1.82092 28.9428 7
      vertex 5.43406 28.4863 7
    endloop
  endfacet
  facet normal 0.125348 0.992113 0
    outer loop
      vertex 1.82092 28.9428 7
      vertex 5.43406 28.4863 0
      vertex 1.82092 28.9428 0
    endloop
  endfacet
  facet normal 0.587783 0.809019 -0
    outer loop
      vertex 18.4853 22.3449 0
      vertex 15.539 24.4855 7
      vertex 18.4853 22.3449 7
    endloop
  endfacet
  facet normal 0.587783 0.809019 0
    outer loop
      vertex 15.539 24.4855 7
      vertex 18.4853 22.3449 0
      vertex 15.539 24.4855 0
    endloop
  endfacet
  facet normal -0.844327 0.535829 0
    outer loop
      vertex -25.4129 13.9709 0
      vertex -23.4615 17.0458 7
      vertex -23.4615 17.0458 0
    endloop
  endfacet
  facet normal -0.844327 0.535829 0
    outer loop
      vertex -23.4615 17.0458 7
      vertex -25.4129 13.9709 0
      vertex -25.4129 13.9709 7
    endloop
  endfacet
  facet normal -0.770514 0.637423 0
    outer loop
      vertex -23.4615 17.0458 0
      vertex -21.1401 19.8519 7
      vertex -21.1401 19.8519 0
    endloop
  endfacet
  facet normal -0.770514 0.637423 0
    outer loop
      vertex -21.1401 19.8519 7
      vertex -23.4615 17.0458 0
      vertex -23.4615 17.0458 7
    endloop
  endfacet
  facet normal -0.951056 0.30902 0
    outer loop
      vertex -28.0889 7.21201 0
      vertex -26.9635 10.6756 7
      vertex -26.9635 10.6756 0
    endloop
  endfacet
  facet normal -0.951056 0.30902 0
    outer loop
      vertex -26.9635 10.6756 7
      vertex -28.0889 7.21201 0
      vertex -28.0889 7.21201 7
    endloop
  endfacet
  facet normal -0.982288 0.187377 0
    outer loop
      vertex -28.7713 3.63466 0
      vertex -28.0889 7.21201 7
      vertex -28.0889 7.21201 0
    endloop
  endfacet
  facet normal -0.982288 0.187377 0
    outer loop
      vertex -28.0889 7.21201 7
      vertex -28.7713 3.63466 0
      vertex -28.7713 3.63466 7
    endloop
  endfacet
  facet normal -0.481756 0.876305 0
    outer loop
      vertex -12.3476 26.24 0
      vertex -15.539 24.4855 7
      vertex -12.3476 26.24 7
    endloop
  endfacet
  facet normal -0.481756 0.876305 0
    outer loop
      vertex -15.539 24.4855 7
      vertex -12.3476 26.24 0
      vertex -15.539 24.4855 0
    endloop
  endfacet
  facet normal -0.587783 0.809019 0
    outer loop
      vertex -15.539 24.4855 0
      vertex -18.4853 22.3449 7
      vertex -15.539 24.4855 7
    endloop
  endfacet
  facet normal -0.587783 0.809019 0
    outer loop
      vertex -18.4853 22.3449 7
      vertex -15.539 24.4855 0
      vertex -18.4853 22.3449 0
    endloop
  endfacet
  facet normal -0.125348 0.992113 0
    outer loop
      vertex -1.82092 28.9428 0
      vertex -5.43406 28.4863 7
      vertex -1.82092 28.9428 7
    endloop
  endfacet
  facet normal -0.125348 0.992113 0
    outer loop
      vertex -5.43406 28.4863 7
      vertex -1.82092 28.9428 0
      vertex -5.43406 28.4863 0
    endloop
  endfacet
  facet normal 0.998026 -0.0627978 0
    outer loop
      vertex 28.7713 -3.63466 7
      vertex 29 0 0
      vertex 29 0 7
    endloop
  endfacet
  facet normal 0.998026 -0.0627978 0
    outer loop
      vertex 29 0 0
      vertex 28.7713 -3.63466 7
      vertex 28.7713 -3.63466 0
    endloop
  endfacet
  facet normal 0.982288 -0.187377 0
    outer loop
      vertex 28.0889 -7.21201 7
      vertex 28.7713 -3.63466 0
      vertex 28.7713 -3.63466 7
    endloop
  endfacet
  facet normal 0.982288 -0.187377 0
    outer loop
      vertex 28.7713 -3.63466 0
      vertex 28.0889 -7.21201 7
      vertex 28.0889 -7.21201 0
    endloop
  endfacet
  facet normal -0.684544 -0.728972 0
    outer loop
      vertex -21.1401 -19.8519 0
      vertex -18.4853 -22.3449 7
      vertex -21.1401 -19.8519 7
    endloop
  endfacet
  facet normal -0.684544 -0.728972 -0
    outer loop
      vertex -18.4853 -22.3449 7
      vertex -21.1401 -19.8519 0
      vertex -18.4853 -22.3449 0
    endloop
  endfacet
  facet normal -0.904832 -0.425768 0
    outer loop
      vertex -25.4129 -13.9709 0
      vertex -26.9635 -10.6756 7
      vertex -26.9635 -10.6756 0
    endloop
  endfacet
  facet normal -0.904832 -0.425768 0
    outer loop
      vertex -26.9635 -10.6756 7
      vertex -25.4129 -13.9709 0
      vertex -25.4129 -13.9709 7
    endloop
  endfacet
  facet normal -0.844327 -0.535829 0
    outer loop
      vertex -23.4615 -17.0458 0
      vertex -25.4129 -13.9709 7
      vertex -25.4129 -13.9709 0
    endloop
  endfacet
  facet normal -0.844327 -0.535829 0
    outer loop
      vertex -25.4129 -13.9709 7
      vertex -23.4615 -17.0458 0
      vertex -23.4615 -17.0458 7
    endloop
  endfacet
  facet normal 0.481756 -0.876305 0
    outer loop
      vertex 12.3476 -26.24 0
      vertex 15.539 -24.4855 7
      vertex 12.3476 -26.24 7
    endloop
  endfacet
  facet normal 0.481756 -0.876305 0
    outer loop
      vertex 15.539 -24.4855 7
      vertex 12.3476 -26.24 0
      vertex 15.539 -24.4855 0
    endloop
  endfacet
  facet normal 0.904832 -0.425768 0
    outer loop
      vertex 25.4129 -13.9709 7
      vertex 26.9635 -10.6756 0
      vertex 26.9635 -10.6756 7
    endloop
  endfacet
  facet normal 0.904832 -0.425768 0
    outer loop
      vertex 26.9635 -10.6756 0
      vertex 25.4129 -13.9709 7
      vertex 25.4129 -13.9709 0
    endloop
  endfacet
  facet normal -0.368111 -0.929782 0
    outer loop
      vertex -12.3476 -26.24 0
      vertex -8.96149 -27.5806 7
      vertex -12.3476 -26.24 7
    endloop
  endfacet
  facet normal -0.368111 -0.929782 -0
    outer loop
      vertex -8.96149 -27.5806 7
      vertex -12.3476 -26.24 0
      vertex -8.96149 -27.5806 0
    endloop
  endfacet
  facet normal -0.770514 -0.637423 0
    outer loop
      vertex -21.1401 -19.8519 0
      vertex -23.4615 -17.0458 7
      vertex -23.4615 -17.0458 0
    endloop
  endfacet
  facet normal -0.770514 -0.637423 0
    outer loop
      vertex -23.4615 -17.0458 7
      vertex -21.1401 -19.8519 0
      vertex -21.1401 -19.8519 7
    endloop
  endfacet
  facet normal -0.982288 -0.187377 0
    outer loop
      vertex -28.0889 -7.21201 0
      vertex -28.7713 -3.63466 7
      vertex -28.7713 -3.63466 0
    endloop
  endfacet
  facet normal -0.982288 -0.187377 0
    outer loop
      vertex -28.7713 -3.63466 7
      vertex -28.0889 -7.21201 0
      vertex -28.0889 -7.21201 7
    endloop
  endfacet
  facet normal -0.998026 -0.0627978 0
    outer loop
      vertex -28.7713 -3.63466 0
      vertex -29 0 7
      vertex -29 0 0
    endloop
  endfacet
  facet normal -0.998026 -0.0627978 0
    outer loop
      vertex -29 0 7
      vertex -28.7713 -3.63466 0
      vertex -28.7713 -3.63466 7
    endloop
  endfacet
  facet normal -0.951056 -0.30902 0
    outer loop
      vertex -26.9635 -10.6756 0
      vertex -28.0889 -7.21201 7
      vertex -28.0889 -7.21201 0
    endloop
  endfacet
  facet normal -0.951056 -0.30902 0
    outer loop
      vertex -28.0889 -7.21201 7
      vertex -26.9635 -10.6756 0
      vertex -26.9635 -10.6756 7
    endloop
  endfacet
  facet normal 0.684544 -0.728972 0
    outer loop
      vertex 18.4853 -22.3449 0
      vertex 21.1401 -19.8519 7
      vertex 18.4853 -22.3449 7
    endloop
  endfacet
  facet normal 0.684544 -0.728972 0
    outer loop
      vertex 21.1401 -19.8519 7
      vertex 18.4853 -22.3449 0
      vertex 21.1401 -19.8519 0
    endloop
  endfacet
  facet normal 0.368111 -0.929782 0
    outer loop
      vertex 8.96149 -27.5806 0
      vertex 12.3476 -26.24 7
      vertex 8.96149 -27.5806 7
    endloop
  endfacet
  facet normal 0.368111 -0.929782 0
    outer loop
      vertex 12.3476 -26.24 7
      vertex 8.96149 -27.5806 0
      vertex 12.3476 -26.24 0
    endloop
  endfacet
  facet normal 0.248692 -0.968583 0
    outer loop
      vertex 5.43406 -28.4863 0
      vertex 8.96149 -27.5806 7
      vertex 5.43406 -28.4863 7
    endloop
  endfacet
  facet normal 0.248692 -0.968583 0
    outer loop
      vertex 8.96149 -27.5806 7
      vertex 5.43406 -28.4863 0
      vertex 8.96149 -27.5806 0
    endloop
  endfacet
  facet normal 0.844327 -0.535829 0
    outer loop
      vertex 23.4615 -17.0458 7
      vertex 25.4129 -13.9709 0
      vertex 25.4129 -13.9709 7
    endloop
  endfacet
  facet normal 0.844327 -0.535829 0
    outer loop
      vertex 25.4129 -13.9709 0
      vertex 23.4615 -17.0458 7
      vertex 23.4615 -17.0458 0
    endloop
  endfacet
  facet normal 0.770514 -0.637423 0
    outer loop
      vertex 21.1401 -19.8519 7
      vertex 23.4615 -17.0458 0
      vertex 23.4615 -17.0458 7
    endloop
  endfacet
  facet normal 0.770514 -0.637423 0
    outer loop
      vertex 23.4615 -17.0458 0
      vertex 21.1401 -19.8519 7
      vertex 21.1401 -19.8519 0
    endloop
  endfacet
  facet normal 0.951056 -0.30902 0
    outer loop
      vertex 26.9635 -10.6756 7
      vertex 28.0889 -7.21201 0
      vertex 28.0889 -7.21201 7
    endloop
  endfacet
  facet normal 0.951056 -0.30902 0
    outer loop
      vertex 28.0889 -7.21201 0
      vertex 26.9635 -10.6756 7
      vertex 26.9635 -10.6756 0
    endloop
  endfacet
  facet normal -0.125348 -0.992113 0
    outer loop
      vertex -5.43406 -28.4863 0
      vertex -1.82092 -28.9428 7
      vertex -5.43406 -28.4863 7
    endloop
  endfacet
  facet normal -0.125348 -0.992113 -0
    outer loop
      vertex -1.82092 -28.9428 7
      vertex -5.43406 -28.4863 0
      vertex -1.82092 -28.9428 0
    endloop
  endfacet
  facet normal -0.587783 -0.809019 0
    outer loop
      vertex -18.4853 -22.3449 0
      vertex -15.539 -24.4855 7
      vertex -18.4853 -22.3449 7
    endloop
  endfacet
  facet normal -0.587783 -0.809019 -0
    outer loop
      vertex -15.539 -24.4855 7
      vertex -18.4853 -22.3449 0
      vertex -15.539 -24.4855 0
    endloop
  endfacet
  facet normal 0.587783 -0.809019 0
    outer loop
      vertex 15.539 -24.4855 0
      vertex 18.4853 -22.3449 7
      vertex 15.539 -24.4855 7
    endloop
  endfacet
  facet normal 0.587783 -0.809019 0
    outer loop
      vertex 18.4853 -22.3449 7
      vertex 15.539 -24.4855 0
      vertex 18.4853 -22.3449 0
    endloop
  endfacet
  facet normal -0.248692 -0.968583 0
    outer loop
      vertex -8.96149 -27.5806 0
      vertex -5.43406 -28.4863 7
      vertex -8.96149 -27.5806 7
    endloop
  endfacet
  facet normal -0.248692 -0.968583 -0
    outer loop
      vertex -5.43406 -28.4863 7
      vertex -8.96149 -27.5806 0
      vertex -5.43406 -28.4863 0
    endloop
  endfacet
  facet normal -0.481756 -0.876305 0
    outer loop
      vertex -15.539 -24.4855 0
      vertex -12.3476 -26.24 7
      vertex -15.539 -24.4855 7
    endloop
  endfacet
  facet normal -0.481756 -0.876305 -0
    outer loop
      vertex -12.3476 -26.24 7
      vertex -15.539 -24.4855 0
      vertex -12.3476 -26.24 0
    endloop
  endfacet
  facet normal -0.904826 -0.425782 0
    outer loop
      vertex 20.92 8.2828 0
      vertex 19.7169 10.8395 7
      vertex 19.7169 10.8395 0
    endloop
  endfacet
  facet normal -0.904826 -0.425782 0
    outer loop
      vertex 19.7169 10.8395 7
      vertex 20.92 8.2828 0
      vertex 20.92 8.2828 7
    endloop
  endfacet
  facet normal -0.84433 -0.535824 0
    outer loop
      vertex 19.7169 10.8395 0
      vertex 18.2029 13.2252 7
      vertex 18.2029 13.2252 0
    endloop
  endfacet
  facet normal -0.84433 -0.535824 0
    outer loop
      vertex 18.2029 13.2252 7
      vertex 19.7169 10.8395 0
      vertex 19.7169 10.8395 7
    endloop
  endfacet
  facet normal -0.368136 -0.929772 0
    outer loop
      vertex 6.95288 21.3988 0
      vertex 9.58003 20.3586 7
      vertex 6.95288 21.3988 7
    endloop
  endfacet
  facet normal -0.368136 -0.929772 -0
    outer loop
      vertex 9.58003 20.3586 7
      vertex 6.95288 21.3988 0
      vertex 9.58003 20.3586 0
    endloop
  endfacet
  facet normal 0.368136 -0.929772 0
    outer loop
      vertex -9.58003 20.3586 0
      vertex -6.95288 21.3988 7
      vertex -9.58003 20.3586 7
    endloop
  endfacet
  facet normal 0.368136 -0.929772 0
    outer loop
      vertex -6.95288 21.3988 7
      vertex -9.58003 20.3586 0
      vertex -6.95288 21.3988 0
    endloop
  endfacet
  facet normal 0.904826 -0.425782 0
    outer loop
      vertex -20.92 8.2828 7
      vertex -19.7169 10.8395 0
      vertex -19.7169 10.8395 7
    endloop
  endfacet
  facet normal 0.904826 -0.425782 0
    outer loop
      vertex -19.7169 10.8395 0
      vertex -20.92 8.2828 7
      vertex -20.92 8.2828 0
    endloop
  endfacet
  facet normal -0.998027 0.0627837 0
    outer loop
      vertex 22.3226 -2.82 0
      vertex 22.5 0 7
      vertex 22.5 0 0
    endloop
  endfacet
  facet normal -0.998027 0.0627837 0
    outer loop
      vertex 22.5 0 7
      vertex 22.3226 -2.82 0
      vertex 22.3226 -2.82 7
    endloop
  endfacet
  facet normal -0.368136 0.929772 0
    outer loop
      vertex 9.58003 -20.3586 0
      vertex 6.95288 -21.3988 7
      vertex 9.58003 -20.3586 7
    endloop
  endfacet
  facet normal -0.368136 0.929772 0
    outer loop
      vertex 6.95288 -21.3988 7
      vertex 9.58003 -20.3586 0
      vertex 6.95288 -21.3988 0
    endloop
  endfacet
  facet normal -0.684532 -0.728983 0
    outer loop
      vertex 14.342 17.3365 0
      vertex 16.4018 15.4023 7
      vertex 14.342 17.3365 7
    endloop
  endfacet
  facet normal -0.684532 -0.728983 -0
    outer loop
      vertex 16.4018 15.4023 7
      vertex 14.342 17.3365 0
      vertex 16.4018 15.4023 0
    endloop
  endfacet
  facet normal 0 -1 0
    outer loop
      vertex -1.41279 22.4556 0
      vertex 1.41279 22.4556 7
      vertex -1.41279 22.4556 7
    endloop
  endfacet
  facet normal 0 -1 -0
    outer loop
      vertex 1.41279 22.4556 7
      vertex -1.41279 22.4556 0
      vertex 1.41279 22.4556 0
    endloop
  endfacet
  facet normal 0.998027 -0.0627837 0
    outer loop
      vertex -22.5 0 7
      vertex -22.3226 2.82 0
      vertex -22.3226 2.82 7
    endloop
  endfacet
  facet normal 0.998027 -0.0627837 0
    outer loop
      vertex -22.3226 2.82 0
      vertex -22.5 0 7
      vertex -22.5 0 0
    endloop
  endfacet
  facet normal 0.982285 -0.187395 0
    outer loop
      vertex -22.3226 2.82 7
      vertex -21.7931 5.59552 0
      vertex -21.7931 5.59552 7
    endloop
  endfacet
  facet normal 0.982285 -0.187395 0
    outer loop
      vertex -21.7931 5.59552 0
      vertex -22.3226 2.82 7
      vertex -22.3226 2.82 0
    endloop
  endfacet
  facet normal 0.770505 -0.637434 0
    outer loop
      vertex -18.2029 13.2252 7
      vertex -16.4018 15.4023 0
      vertex -16.4018 15.4023 7
    endloop
  endfacet
  facet normal 0.770505 -0.637434 0
    outer loop
      vertex -16.4018 15.4023 0
      vertex -18.2029 13.2252 7
      vertex -18.2029 13.2252 0
    endloop
  endfacet
  facet normal 0.684532 -0.728983 0
    outer loop
      vertex -16.4018 15.4023 0
      vertex -14.342 17.3365 7
      vertex -16.4018 15.4023 7
    endloop
  endfacet
  facet normal 0.684532 -0.728983 0
    outer loop
      vertex -14.342 17.3365 7
      vertex -16.4018 15.4023 0
      vertex -14.342 17.3365 0
    endloop
  endfacet
  facet normal -0.904826 0.425782 0
    outer loop
      vertex 19.7169 -10.8395 0
      vertex 20.92 -8.2828 7
      vertex 20.92 -8.2828 0
    endloop
  endfacet
  facet normal -0.904826 0.425782 0
    outer loop
      vertex 20.92 -8.2828 7
      vertex 19.7169 -10.8395 0
      vertex 19.7169 -10.8395 7
    endloop
  endfacet
  facet normal -0.248693 0.968582 0
    outer loop
      vertex 6.95288 -21.3988 0
      vertex 4.21608 -22.1015 7
      vertex 6.95288 -21.3988 7
    endloop
  endfacet
  facet normal -0.248693 0.968582 0
    outer loop
      vertex 4.21608 -22.1015 7
      vertex 6.95288 -21.3988 0
      vertex 4.21608 -22.1015 0
    endloop
  endfacet
  facet normal -0.951062 -0.309001 0
    outer loop
      vertex 21.7931 5.59552 0
      vertex 20.92 8.2828 7
      vertex 20.92 8.2828 0
    endloop
  endfacet
  facet normal -0.951062 -0.309001 0
    outer loop
      vertex 20.92 8.2828 7
      vertex 21.7931 5.59552 0
      vertex 21.7931 5.59552 7
    endloop
  endfacet
  facet normal -0.770505 -0.637434 0
    outer loop
      vertex 18.2029 13.2252 0
      vertex 16.4018 15.4023 7
      vertex 16.4018 15.4023 0
    endloop
  endfacet
  facet normal -0.770505 -0.637434 0
    outer loop
      vertex 16.4018 15.4023 7
      vertex 18.2029 13.2252 0
      vertex 18.2029 13.2252 7
    endloop
  endfacet
  facet normal -0.248693 -0.968582 0
    outer loop
      vertex 4.21608 22.1015 0
      vertex 6.95288 21.3988 7
      vertex 4.21608 22.1015 7
    endloop
  endfacet
  facet normal -0.248693 -0.968582 -0
    outer loop
      vertex 6.95288 21.3988 7
      vertex 4.21608 22.1015 0
      vertex 6.95288 21.3988 0
    endloop
  endfacet
  facet normal -0.12532 -0.992116 0
    outer loop
      vertex 1.41279 22.4556 0
      vertex 4.21608 22.1015 7
      vertex 1.41279 22.4556 7
    endloop
  endfacet
  facet normal -0.12532 -0.992116 -0
    outer loop
      vertex 4.21608 22.1015 7
      vertex 1.41279 22.4556 0
      vertex 4.21608 22.1015 0
    endloop
  endfacet
  facet normal -0.587808 -0.809001 0
    outer loop
      vertex 12.0561 18.9974 0
      vertex 14.342 17.3365 7
      vertex 12.0561 18.9974 7
    endloop
  endfacet
  facet normal -0.587808 -0.809001 -0
    outer loop
      vertex 14.342 17.3365 7
      vertex 12.0561 18.9974 0
      vertex 14.342 17.3365 0
    endloop
  endfacet
  facet normal -0.481745 -0.876311 0
    outer loop
      vertex 9.58003 20.3586 0
      vertex 12.0561 18.9974 7
      vertex 9.58003 20.3586 7
    endloop
  endfacet
  facet normal -0.481745 -0.876311 -0
    outer loop
      vertex 12.0561 18.9974 7
      vertex 9.58003 20.3586 0
      vertex 12.0561 18.9974 0
    endloop
  endfacet
  facet normal 0.951062 -0.309001 0
    outer loop
      vertex -21.7931 5.59552 7
      vertex -20.92 8.2828 0
      vertex -20.92 8.2828 7
    endloop
  endfacet
  facet normal 0.951062 -0.309001 0
    outer loop
      vertex -20.92 8.2828 0
      vertex -21.7931 5.59552 7
      vertex -21.7931 5.59552 0
    endloop
  endfacet
  facet normal 0.84433 -0.535824 0
    outer loop
      vertex -19.7169 10.8395 7
      vertex -18.2029 13.2252 0
      vertex -18.2029 13.2252 7
    endloop
  endfacet
  facet normal 0.84433 -0.535824 0
    outer loop
      vertex -18.2029 13.2252 0
      vertex -19.7169 10.8395 7
      vertex -19.7169 10.8395 0
    endloop
  endfacet
  facet normal 0.12532 -0.992116 0
    outer loop
      vertex -4.21608 22.1015 0
      vertex -1.41279 22.4556 7
      vertex -4.21608 22.1015 7
    endloop
  endfacet
  facet normal 0.12532 -0.992116 0
    outer loop
      vertex -1.41279 22.4556 7
      vertex -4.21608 22.1015 0
      vertex -1.41279 22.4556 0
    endloop
  endfacet
  facet normal 0.248693 -0.968582 0
    outer loop
      vertex -6.95288 21.3988 0
      vertex -4.21608 22.1015 7
      vertex -6.95288 21.3988 7
    endloop
  endfacet
  facet normal 0.248693 -0.968582 0
    outer loop
      vertex -4.21608 22.1015 7
      vertex -6.95288 21.3988 0
      vertex -4.21608 22.1015 0
    endloop
  endfacet
  facet normal 0.481745 -0.876311 0
    outer loop
      vertex -12.0561 18.9974 0
      vertex -9.58003 20.3586 7
      vertex -12.0561 18.9974 7
    endloop
  endfacet
  facet normal 0.481745 -0.876311 0
    outer loop
      vertex -9.58003 20.3586 7
      vertex -12.0561 18.9974 0
      vertex -9.58003 20.3586 0
    endloop
  endfacet
  facet normal 0.587808 -0.809001 0
    outer loop
      vertex -14.342 17.3365 0
      vertex -12.0561 18.9974 7
      vertex -14.342 17.3365 7
    endloop
  endfacet
  facet normal 0.587808 -0.809001 0
    outer loop
      vertex -12.0561 18.9974 7
      vertex -14.342 17.3365 0
      vertex -12.0561 18.9974 0
    endloop
  endfacet
  facet normal -0.998027 -0.0627837 0
    outer loop
      vertex 22.5 0 0
      vertex 22.3226 2.82 7
      vertex 22.3226 2.82 0
    endloop
  endfacet
  facet normal -0.998027 -0.0627837 0
    outer loop
      vertex 22.3226 2.82 7
      vertex 22.5 0 0
      vertex 22.5 0 7
    endloop
  endfacet
  facet normal 0.998027 0.0627837 0
    outer loop
      vertex -22.3226 -2.82 7
      vertex -22.5 0 0
      vertex -22.5 0 7
    endloop
  endfacet
  facet normal 0.998027 0.0627837 0
    outer loop
      vertex -22.5 0 0
      vertex -22.3226 -2.82 7
      vertex -22.3226 -2.82 0
    endloop
  endfacet
  facet normal -0.12532 0.992116 0
    outer loop
      vertex 4.21608 -22.1015 0
      vertex 1.41279 -22.4556 7
      vertex 4.21608 -22.1015 7
    endloop
  endfacet
  facet normal -0.12532 0.992116 0
    outer loop
      vertex 1.41279 -22.4556 7
      vertex 4.21608 -22.1015 0
      vertex 1.41279 -22.4556 0
    endloop
  endfacet
  facet normal -0.982285 -0.187395 0
    outer loop
      vertex 22.3226 2.82 0
      vertex 21.7931 5.59552 7
      vertex 21.7931 5.59552 0
    endloop
  endfacet
  facet normal -0.982285 -0.187395 0
    outer loop
      vertex 21.7931 5.59552 7
      vertex 22.3226 2.82 0
      vertex 22.3226 2.82 7
    endloop
  endfacet
  facet normal -0.951062 0.309001 0
    outer loop
      vertex 20.92 -8.2828 0
      vertex 21.7931 -5.59552 7
      vertex 21.7931 -5.59552 0
    endloop
  endfacet
  facet normal -0.951062 0.309001 0
    outer loop
      vertex 21.7931 -5.59552 7
      vertex 20.92 -8.2828 0
      vertex 20.92 -8.2828 7
    endloop
  endfacet
  facet normal -0.481745 0.876311 0
    outer loop
      vertex 12.0561 -18.9974 0
      vertex 9.58003 -20.3586 7
      vertex 12.0561 -18.9974 7
    endloop
  endfacet
  facet normal -0.481745 0.876311 0
    outer loop
      vertex 9.58003 -20.3586 7
      vertex 12.0561 -18.9974 0
      vertex 9.58003 -20.3586 0
    endloop
  endfacet
  facet normal -0.684532 0.728983 0
    outer loop
      vertex 16.4018 -15.4023 0
      vertex 14.342 -17.3365 7
      vertex 16.4018 -15.4023 7
    endloop
  endfacet
  facet normal -0.684532 0.728983 0
    outer loop
      vertex 14.342 -17.3365 7
      vertex 16.4018 -15.4023 0
      vertex 14.342 -17.3365 0
    endloop
  endfacet
  facet normal -0.770505 0.637434 0
    outer loop
      vertex 16.4018 -15.4023 0
      vertex 18.2029 -13.2252 7
      vertex 18.2029 -13.2252 0
    endloop
  endfacet
  facet normal -0.770505 0.637434 0
    outer loop
      vertex 18.2029 -13.2252 7
      vertex 16.4018 -15.4023 0
      vertex 16.4018 -15.4023 7
    endloop
  endfacet
  facet normal 0.368136 0.929772 -0
    outer loop
      vertex -6.95288 -21.3988 0
      vertex -9.58003 -20.3586 7
      vertex -6.95288 -21.3988 7
    endloop
  endfacet
  facet normal 0.368136 0.929772 0
    outer loop
      vertex -9.58003 -20.3586 7
      vertex -6.95288 -21.3988 0
      vertex -9.58003 -20.3586 0
    endloop
  endfacet
  facet normal 0 1 -0
    outer loop
      vertex 1.41279 -22.4556 0
      vertex -1.41279 -22.4556 7
      vertex 1.41279 -22.4556 7
    endloop
  endfacet
  facet normal 0 1 0
    outer loop
      vertex -1.41279 -22.4556 7
      vertex 1.41279 -22.4556 0
      vertex -1.41279 -22.4556 0
    endloop
  endfacet
  facet normal 0.904826 0.425782 0
    outer loop
      vertex -19.7169 -10.8395 7
      vertex -20.92 -8.2828 0
      vertex -20.92 -8.2828 7
    endloop
  endfacet
  facet normal 0.904826 0.425782 0
    outer loop
      vertex -20.92 -8.2828 0
      vertex -19.7169 -10.8395 7
      vertex -19.7169 -10.8395 0
    endloop
  endfacet
  facet normal 0.684532 0.728983 -0
    outer loop
      vertex -14.342 -17.3365 0
      vertex -16.4018 -15.4023 7
      vertex -14.342 -17.3365 7
    endloop
  endfacet
  facet normal 0.684532 0.728983 0
    outer loop
      vertex -16.4018 -15.4023 7
      vertex -14.342 -17.3365 0
      vertex -16.4018 -15.4023 0
    endloop
  endfacet
  facet normal -0.982285 0.187395 0
    outer loop
      vertex 21.7931 -5.59552 0
      vertex 22.3226 -2.82 7
      vertex 22.3226 -2.82 0
    endloop
  endfacet
  facet normal -0.982285 0.187395 0
    outer loop
      vertex 22.3226 -2.82 7
      vertex 21.7931 -5.59552 0
      vertex 21.7931 -5.59552 7
    endloop
  endfacet
  facet normal -0.587808 0.809001 0
    outer loop
      vertex 14.342 -17.3365 0
      vertex 12.0561 -18.9974 7
      vertex 14.342 -17.3365 7
    endloop
  endfacet
  facet normal -0.587808 0.809001 0
    outer loop
      vertex 12.0561 -18.9974 7
      vertex 14.342 -17.3365 0
      vertex 12.0561 -18.9974 0
    endloop
  endfacet
  facet normal -0.84433 0.535824 0
    outer loop
      vertex 18.2029 -13.2252 0
      vertex 19.7169 -10.8395 7
      vertex 19.7169 -10.8395 0
    endloop
  endfacet
  facet normal -0.84433 0.535824 0
    outer loop
      vertex 19.7169 -10.8395 7
      vertex 18.2029 -13.2252 0
      vertex 18.2029 -13.2252 7
    endloop
  endfacet
  facet normal 0.587808 0.809001 -0
    outer loop
      vertex -12.0561 -18.9974 0
      vertex -14.342 -17.3365 7
      vertex -12.0561 -18.9974 7
    endloop
  endfacet
  facet normal 0.587808 0.809001 0
    outer loop
      vertex -14.342 -17.3365 7
      vertex -12.0561 -18.9974 0
      vertex -14.342 -17.3365 0
    endloop
  endfacet
  facet normal 0.248693 0.968582 -0
    outer loop
      vertex -4.21608 -22.1015 0
      vertex -6.95288 -21.3988 7
      vertex -4.21608 -22.1015 7
    endloop
  endfacet
  facet normal 0.248693 0.968582 0
    outer loop
      vertex -6.95288 -21.3988 7
      vertex -4.21608 -22.1015 0
      vertex -6.95288 -21.3988 0
    endloop
  endfacet
  facet normal 0.982285 0.187395 0
    outer loop
      vertex -21.7931 -5.59552 7
      vertex -22.3226 -2.82 0
      vertex -22.3226 -2.82 7
    endloop
  endfacet
  facet normal 0.982285 0.187395 0
    outer loop
      vertex -22.3226 -2.82 0
      vertex -21.7931 -5.59552 7
      vertex -21.7931 -5.59552 0
    endloop
  endfacet
  facet normal 0.951062 0.309001 0
    outer loop
      vertex -20.92 -8.2828 7
      vertex -21.7931 -5.59552 0
      vertex -21.7931 -5.59552 7
    endloop
  endfacet
  facet normal 0.951062 0.309001 0
    outer loop
      vertex -21.7931 -5.59552 0
      vertex -20.92 -8.2828 7
      vertex -20.92 -8.2828 0
    endloop
  endfacet
  facet normal 0.481745 0.876311 -0
    outer loop
      vertex -9.58003 -20.3586 0
      vertex -12.0561 -18.9974 7
      vertex -9.58003 -20.3586 7
    endloop
  endfacet
  facet normal 0.481745 0.876311 0
    outer loop
      vertex -12.0561 -18.9974 7
      vertex -9.58003 -20.3586 0
      vertex -12.0561 -18.9974 0
    endloop
  endfacet
  facet normal 0.12532 0.992116 -0
    outer loop
      vertex -1.41279 -22.4556 0
      vertex -4.21608 -22.1015 7
      vertex -1.41279 -22.4556 7
    endloop
  endfacet
  facet normal 0.12532 0.992116 0
    outer loop
      vertex -4.21608 -22.1015 7
      vertex -1.41279 -22.4556 0
      vertex -4.21608 -22.1015 0
    endloop
  endfacet
  facet normal 0.770505 0.637434 0
    outer loop
      vertex -16.4018 -15.4023 7
      vertex -18.2029 -13.2252 0
      vertex -18.2029 -13.2252 7
    endloop
  endfacet
  facet normal 0.770505 0.637434 0
    outer loop
      vertex -18.2029 -13.2252 0
      vertex -16.4018 -15.4023 7
      vertex -16.4018 -15.4023 0
    endloop
  endfacet
  facet normal 0.84433 0.535824 0
    outer loop
      vertex -18.2029 -13.2252 7
      vertex -19.7169 -10.8395 0
      vertex -19.7169 -10.8395 7
    endloop
  endfacet
  facet normal 0.84433 0.535824 0
    outer loop
      vertex -19.7169 -10.8395 0
      vertex -18.2029 -13.2252 7
      vertex -18.2029 -13.2252 0
    endloop
  endfacet
endsolid OpenSCAD_Model
