solid OpenSCAD_Model
  facet normal -0.998026 -0.0628015 0
    outer loop
      vertex 3 0 0
      vertex 2.97634 0.375999 12
      vertex 2.97634 0.375999 0
    endloop
  endfacet
  facet normal -0.998026 -0.0628015 0
    outer loop
      vertex 2.97634 0.375999 12
      vertex 3 0 0
      vertex 3 0 12
    endloop
  endfacet
  facet normal 0.998026 -0.0628015 0
    outer loop
      vertex -3 0 12
      vertex -2.97634 0.375999 0
      vertex -2.97634 0.375999 12
    endloop
  endfacet
  facet normal 0.998026 -0.0628015 0
    outer loop
      vertex -2.97634 0.375999 0
      vertex -3 0 12
      vertex -3 0 0
    endloop
  endfacet
  facet normal 0 -1 0
    outer loop
      vertex -0.188371 2.99408 0
      vertex 0.188371 2.99408 12
      vertex -0.188371 2.99408 12
    endloop
  endfacet
  facet normal 0 -1 -0
    outer loop
      vertex 0.188371 2.99408 12
      vertex -0.188371 2.99408 0
      vertex 0.188371 2.99408 0
    endloop
  endfacet
  facet normal 0 1 -0
    outer loop
      vertex 0.188371 -2.99408 0
      vertex -0.188371 -2.99408 12
      vertex 0.188371 -2.99408 12
    endloop
  endfacet
  facet normal 0 1 0
    outer loop
      vertex -0.188371 -2.99408 12
      vertex 0.188371 -2.99408 0
      vertex -0.188371 -2.99408 0
    endloop
  endfacet
  facet normal -0.684541 -0.728974 0
    outer loop
      vertex 1.91227 2.31154 0
      vertex 2.18691 2.05364 12
      vertex 1.91227 2.31154 12
    endloop
  endfacet
  facet normal -0.684541 -0.728974 -0
    outer loop
      vertex 2.18691 2.05364 12
      vertex 1.91227 2.31154 0
      vertex 2.18691 2.05364 0
    endloop
  endfacet
  facet normal 0.684541 -0.728974 0
    outer loop
      vertex -2.18691 2.05364 0
      vertex -1.91227 2.31154 12
      vertex -2.18691 2.05364 12
    endloop
  endfacet
  facet normal 0.684541 -0.728974 0
    outer loop
      vertex -1.91227 2.31154 12
      vertex -2.18691 2.05364 0
      vertex -1.91227 2.31154 0
    endloop
  endfacet
  facet normal 0.368126 -0.929776 0
    outer loop
      vertex -1.27734 2.71448 0
      vertex -0.927051 2.85317 12
      vertex -1.27734 2.71448 12
    endloop
  endfacet
  facet normal 0.368126 -0.929776 0
    outer loop
      vertex -0.927051 2.85317 12
      vertex -1.27734 2.71448 0
      vertex -0.927051 2.85317 0
    endloop
  endfacet
  facet normal -0.904828 -0.425778 0
    outer loop
      vertex 2.78933 1.10437 0
      vertex 2.62892 1.44526 12
      vertex 2.62892 1.44526 0
    endloop
  endfacet
  facet normal -0.904828 -0.425778 0
    outer loop
      vertex 2.62892 1.44526 12
      vertex 2.78933 1.10437 0
      vertex 2.78933 1.10437 12
    endloop
  endfacet
  facet normal -0.98229 -0.187369 0
    outer loop
      vertex 2.97634 0.375999 0
      vertex 2.90575 0.746069 12
      vertex 2.90575 0.746069 0
    endloop
  endfacet
  facet normal -0.98229 -0.187369 0
    outer loop
      vertex 2.90575 0.746069 12
      vertex 2.97634 0.375999 0
      vertex 2.97634 0.375999 12
    endloop
  endfacet
  facet normal -0.368126 -0.929776 0
    outer loop
      vertex 0.927051 2.85317 0
      vertex 1.27734 2.71448 12
      vertex 0.927051 2.85317 12
    endloop
  endfacet
  facet normal -0.368126 -0.929776 -0
    outer loop
      vertex 1.27734 2.71448 12
      vertex 0.927051 2.85317 0
      vertex 1.27734 2.71448 0
    endloop
  endfacet
  facet normal -0.248684 -0.968585 0
    outer loop
      vertex 0.562143 2.94686 0
      vertex 0.927051 2.85317 12
      vertex 0.562143 2.94686 12
    endloop
  endfacet
  facet normal -0.248684 -0.968585 -0
    outer loop
      vertex 0.927051 2.85317 12
      vertex 0.562143 2.94686 0
      vertex 0.927051 2.85317 0
    endloop
  endfacet
  facet normal -0.58778 -0.809021 0
    outer loop
      vertex 1.60748 2.53298 0
      vertex 1.91227 2.31154 12
      vertex 1.60748 2.53298 12
    endloop
  endfacet
  facet normal -0.58778 -0.809021 -0
    outer loop
      vertex 1.91227 2.31154 12
      vertex 1.60748 2.53298 0
      vertex 1.91227 2.31154 0
    endloop
  endfacet
  facet normal 0.904828 -0.425778 0
    outer loop
      vertex -2.78933 1.10437 12
      vertex -2.62892 1.44526 0
      vertex -2.62892 1.44526 12
    endloop
  endfacet
  facet normal 0.904828 -0.425778 0
    outer loop
      vertex -2.62892 1.44526 0
      vertex -2.78933 1.10437 12
      vertex -2.78933 1.10437 0
    endloop
  endfacet
  facet normal 0.951056 -0.309019 0
    outer loop
      vertex -2.90575 0.746069 12
      vertex -2.78933 1.10437 0
      vertex -2.78933 1.10437 12
    endloop
  endfacet
  facet normal 0.951056 -0.309019 0
    outer loop
      vertex -2.78933 1.10437 0
      vertex -2.90575 0.746069 12
      vertex -2.90575 0.746069 0
    endloop
  endfacet
  facet normal 0.248684 -0.968585 0
    outer loop
      vertex -0.927051 2.85317 0
      vertex -0.562143 2.94686 12
      vertex -0.927051 2.85317 12
    endloop
  endfacet
  facet normal 0.248684 -0.968585 0
    outer loop
      vertex -0.562143 2.94686 12
      vertex -0.927051 2.85317 0
      vertex -0.562143 2.94686 0
    endloop
  endfacet
  facet normal -0.125337 0.992114 0
    outer loop
      vertex 0.562143 -2.94686 0
      vertex 0.188371 -2.99408 12
      vertex 0.562143 -2.94686 12
    endloop
  endfacet
  facet normal -0.125337 0.992114 0
    outer loop
      vertex 0.188371 -2.99408 12
      vertex 0.562143 -2.94686 0
      vertex 0.188371 -2.99408 0
    endloop
  endfacet
  facet normal -0.368126 0.929776 0
    outer loop
      vertex 1.27734 -2.71448 0
      vertex 0.927051 -2.85317 12
      vertex 1.27734 -2.71448 12
    endloop
  endfacet
  facet normal -0.368126 0.929776 0
    outer loop
      vertex 0.927051 -2.85317 12
      vertex 1.27734 -2.71448 0
      vertex 0.927051 -2.85317 0
    endloop
  endfacet
  facet normal -0.951056 -0.309019 0
    outer loop
      vertex 2.90575 0.746069 0
      vertex 2.78933 1.10437 12
      vertex 2.78933 1.10437 0
    endloop
  endfacet
  facet normal -0.951056 -0.309019 0
    outer loop
      vertex 2.78933 1.10437 12
      vertex 2.90575 0.746069 0
      vertex 2.90575 0.746069 12
    endloop
  endfacet
  facet normal -0.770514 -0.637423 0
    outer loop
      vertex 2.42705 1.76336 0
      vertex 2.18691 2.05364 12
      vertex 2.18691 2.05364 0
    endloop
  endfacet
  facet normal -0.770514 -0.637423 0
    outer loop
      vertex 2.18691 2.05364 12
      vertex 2.42705 1.76336 0
      vertex 2.42705 1.76336 12
    endloop
  endfacet
  facet normal -0.844331 -0.535822 0
    outer loop
      vertex 2.62892 1.44526 0
      vertex 2.42705 1.76336 12
      vertex 2.42705 1.76336 0
    endloop
  endfacet
  facet normal -0.844331 -0.535822 0
    outer loop
      vertex 2.42705 1.76336 12
      vertex 2.62892 1.44526 0
      vertex 2.62892 1.44526 12
    endloop
  endfacet
  facet normal -0.125337 -0.992114 0
    outer loop
      vertex 0.188371 2.99408 0
      vertex 0.562143 2.94686 12
      vertex 0.188371 2.99408 12
    endloop
  endfacet
  facet normal -0.125337 -0.992114 -0
    outer loop
      vertex 0.562143 2.94686 12
      vertex 0.188371 2.99408 0
      vertex 0.562143 2.94686 0
    endloop
  endfacet
  facet normal -0.481762 -0.876302 0
    outer loop
      vertex 1.27734 2.71448 0
      vertex 1.60748 2.53298 12
      vertex 1.27734 2.71448 12
    endloop
  endfacet
  facet normal -0.481762 -0.876302 -0
    outer loop
      vertex 1.60748 2.53298 12
      vertex 1.27734 2.71448 0
      vertex 1.60748 2.53298 0
    endloop
  endfacet
  facet normal 0.844331 -0.535822 0
    outer loop
      vertex -2.62892 1.44526 12
      vertex -2.42705 1.76336 0
      vertex -2.42705 1.76336 12
    endloop
  endfacet
  facet normal 0.844331 -0.535822 0
    outer loop
      vertex -2.42705 1.76336 0
      vertex -2.62892 1.44526 12
      vertex -2.62892 1.44526 0
    endloop
  endfacet
  facet normal 0.770514 -0.637423 0
    outer loop
      vertex -2.42705 1.76336 12
      vertex -2.18691 2.05364 0
      vertex -2.18691 2.05364 12
    endloop
  endfacet
  facet normal 0.770514 -0.637423 0
    outer loop
      vertex -2.18691 2.05364 0
      vertex -2.42705 1.76336 12
      vertex -2.42705 1.76336 0
    endloop
  endfacet
  facet normal 0.98229 -0.187369 0
    outer loop
      vertex -2.97634 0.375999 12
      vertex -2.90575 0.746069 0
      vertex -2.90575 0.746069 12
    endloop
  endfacet
  facet normal 0.98229 -0.187369 0
    outer loop
      vertex -2.90575 0.746069 0
      vertex -2.97634 0.375999 12
      vertex -2.97634 0.375999 0
    endloop
  endfacet
  facet normal 0.481762 -0.876302 0
    outer loop
      vertex -1.60748 2.53298 0
      vertex -1.27734 2.71448 12
      vertex -1.60748 2.53298 12
    endloop
  endfacet
  facet normal 0.481762 -0.876302 0
    outer loop
      vertex -1.27734 2.71448 12
      vertex -1.60748 2.53298 0
      vertex -1.27734 2.71448 0
    endloop
  endfacet
  facet normal 0.58778 -0.809021 0
    outer loop
      vertex -1.91227 2.31154 0
      vertex -1.60748 2.53298 12
      vertex -1.91227 2.31154 12
    endloop
  endfacet
  facet normal 0.58778 -0.809021 0
    outer loop
      vertex -1.60748 2.53298 12
      vertex -1.91227 2.31154 0
      vertex -1.60748 2.53298 0
    endloop
  endfacet
  facet normal 0.125337 -0.992114 0
    outer loop
      vertex -0.562143 2.94686 0
      vertex -0.188371 2.99408 12
      vertex -0.562143 2.94686 12
    endloop
  endfacet
  facet normal 0.125337 -0.992114 0
    outer loop
      vertex -0.188371 2.99408 12
      vertex -0.562143 2.94686 0
      vertex -0.188371 2.99408 0
    endloop
  endfacet
  facet normal -0.998026 0.0628015 0
    outer loop
      vertex 2.97634 -0.375999 0
      vertex 3 0 12
      vertex 3 0 0
    endloop
  endfacet
  facet normal -0.998026 0.0628015 0
    outer loop
      vertex 3 0 12
      vertex 2.97634 -0.375999 0
      vertex 2.97634 -0.375999 12
    endloop
  endfacet
  facet normal -0.481762 0.876302 0
    outer loop
      vertex 1.60748 -2.53298 0
      vertex 1.27734 -2.71448 12
      vertex 1.60748 -2.53298 12
    endloop
  endfacet
  facet normal -0.481762 0.876302 0
    outer loop
      vertex 1.27734 -2.71448 12
      vertex 1.60748 -2.53298 0
      vertex 1.27734 -2.71448 0
    endloop
  endfacet
  facet normal -0.684541 0.728974 0
    outer loop
      vertex 2.18691 -2.05364 0
      vertex 1.91227 -2.31154 12
      vertex 2.18691 -2.05364 12
    endloop
  endfacet
  facet normal -0.684541 0.728974 0
    outer loop
      vertex 1.91227 -2.31154 12
      vertex 2.18691 -2.05364 0
      vertex 1.91227 -2.31154 0
    endloop
  endfacet
  facet normal -0.98229 0.187369 0
    outer loop
      vertex 2.90575 -0.746069 0
      vertex 2.97634 -0.375999 12
      vertex 2.97634 -0.375999 0
    endloop
  endfacet
  facet normal -0.98229 0.187369 0
    outer loop
      vertex 2.97634 -0.375999 12
      vertex 2.90575 -0.746069 0
      vertex 2.90575 -0.746069 12
    endloop
  endfacet
  facet normal -0.904828 0.425778 0
    outer loop
      vertex 2.62892 -1.44526 0
      vertex 2.78933 -1.10437 12
      vertex 2.78933 -1.10437 0
    endloop
  endfacet
  facet normal -0.904828 0.425778 0
    outer loop
      vertex 2.78933 -1.10437 12
      vertex 2.62892 -1.44526 0
      vertex 2.62892 -1.44526 12
    endloop
  endfacet
  facet normal -0.770514 0.637423 0
    outer loop
      vertex 2.18691 -2.05364 0
      vertex 2.42705 -1.76336 12
      vertex 2.42705 -1.76336 0
    endloop
  endfacet
  facet normal -0.770514 0.637423 0
    outer loop
      vertex 2.42705 -1.76336 12
      vertex 2.18691 -2.05364 0
      vertex 2.18691 -2.05364 12
    endloop
  endfacet
  facet normal 0.248684 0.968585 -0
    outer loop
      vertex -0.562143 -2.94686 0
      vertex -0.927051 -2.85317 12
      vertex -0.562143 -2.94686 12
    endloop
  endfacet
  facet normal 0.248684 0.968585 0
    outer loop
      vertex -0.927051 -2.85317 12
      vertex -0.562143 -2.94686 0
      vertex -0.927051 -2.85317 0
    endloop
  endfacet
  facet normal 0.684541 0.728974 -0
    outer loop
      vertex -1.91227 -2.31154 0
      vertex -2.18691 -2.05364 12
      vertex -1.91227 -2.31154 12
    endloop
  endfacet
  facet normal 0.684541 0.728974 0
    outer loop
      vertex -2.18691 -2.05364 12
      vertex -1.91227 -2.31154 0
      vertex -2.18691 -2.05364 0
    endloop
  endfacet
  facet normal 0.844331 0.535822 0
    outer loop
      vertex -2.42705 -1.76336 12
      vertex -2.62892 -1.44526 0
      vertex -2.62892 -1.44526 12
    endloop
  endfacet
  facet normal 0.844331 0.535822 0
    outer loop
      vertex -2.62892 -1.44526 0
      vertex -2.42705 -1.76336 12
      vertex -2.42705 -1.76336 0
    endloop
  endfacet
  facet normal 0.951056 0.309019 0
    outer loop
      vertex -2.78933 -1.10437 12
      vertex -2.90575 -0.746069 0
      vertex -2.90575 -0.746069 12
    endloop
  endfacet
  facet normal 0.951056 0.309019 0
    outer loop
      vertex -2.90575 -0.746069 0
      vertex -2.78933 -1.10437 12
      vertex -2.78933 -1.10437 0
    endloop
  endfacet
  facet normal -0.248684 0.968585 0
    outer loop
      vertex 0.927051 -2.85317 0
      vertex 0.562143 -2.94686 12
      vertex 0.927051 -2.85317 12
    endloop
  endfacet
  facet normal -0.248684 0.968585 0
    outer loop
      vertex 0.562143 -2.94686 12
      vertex 0.927051 -2.85317 0
      vertex 0.562143 -2.94686 0
    endloop
  endfacet
  facet normal -0.58778 0.809021 0
    outer loop
      vertex 1.91227 -2.31154 0
      vertex 1.60748 -2.53298 12
      vertex 1.91227 -2.31154 12
    endloop
  endfacet
  facet normal -0.58778 0.809021 0
    outer loop
      vertex 1.60748 -2.53298 12
      vertex 1.91227 -2.31154 0
      vertex 1.60748 -2.53298 0
    endloop
  endfacet
  facet normal -0.951056 0.309019 0
    outer loop
      vertex 2.78933 -1.10437 0
      vertex 2.90575 -0.746069 12
      vertex 2.90575 -0.746069 0
    endloop
  endfacet
  facet normal -0.951056 0.309019 0
    outer loop
      vertex 2.90575 -0.746069 12
      vertex 2.78933 -1.10437 0
      vertex 2.78933 -1.10437 12
    endloop
  endfacet
  facet normal -0.844331 0.535822 0
    outer loop
      vertex 2.42705 -1.76336 0
      vertex 2.62892 -1.44526 12
      vertex 2.62892 -1.44526 0
    endloop
  endfacet
  facet normal -0.844331 0.535822 0
    outer loop
      vertex 2.62892 -1.44526 12
      vertex 2.42705 -1.76336 0
      vertex 2.42705 -1.76336 12
    endloop
  endfacet
  facet normal 0.125337 0.992114 -0
    outer loop
      vertex -0.188371 -2.99408 0
      vertex -0.562143 -2.94686 12
      vertex -0.188371 -2.99408 12
    endloop
  endfacet
  facet normal 0.125337 0.992114 0
    outer loop
      vertex -0.562143 -2.94686 12
      vertex -0.188371 -2.99408 0
      vertex -0.562143 -2.94686 0
    endloop
  endfacet
  facet normal 0.368126 0.929776 -0
    outer loop
      vertex -0.927051 -2.85317 0
      vertex -1.27734 -2.71448 12
      vertex -0.927051 -2.85317 12
    endloop
  endfacet
  facet normal 0.368126 0.929776 0
    outer loop
      vertex -1.27734 -2.71448 12
      vertex -0.927051 -2.85317 0
      vertex -1.27734 -2.71448 0
    endloop
  endfacet
  facet normal 0.58778 0.809021 -0
    outer loop
      vertex -1.60748 -2.53298 0
      vertex -1.91227 -2.31154 12
      vertex -1.60748 -2.53298 12
    endloop
  endfacet
  facet normal 0.58778 0.809021 0
    outer loop
      vertex -1.91227 -2.31154 12
      vertex -1.60748 -2.53298 0
      vertex -1.91227 -2.31154 0
    endloop
  endfacet
  facet normal 0.770514 0.637423 0
    outer loop
      vertex -2.18691 -2.05364 12
      vertex -2.42705 -1.76336 0
      vertex -2.42705 -1.76336 12
    endloop
  endfacet
  facet normal 0.770514 0.637423 0
    outer loop
      vertex -2.42705 -1.76336 0
      vertex -2.18691 -2.05364 12
      vertex -2.18691 -2.05364 0
    endloop
  endfacet
  facet normal 0.904828 0.425778 0
    outer loop
      vertex -2.62892 -1.44526 12
      vertex -2.78933 -1.10437 0
      vertex -2.78933 -1.10437 12
    endloop
  endfacet
  facet normal 0.904828 0.425778 0
    outer loop
      vertex -2.78933 -1.10437 0
      vertex -2.62892 -1.44526 12
      vertex -2.62892 -1.44526 0
    endloop
  endfacet
  facet normal 0.98229 0.187369 0
    outer loop
      vertex -2.90575 -0.746069 12
      vertex -2.97634 -0.375999 0
      vertex -2.97634 -0.375999 12
    endloop
  endfacet
  facet normal 0.98229 0.187369 0
    outer loop
      vertex -2.97634 -0.375999 0
      vertex -2.90575 -0.746069 12
      vertex -2.90575 -0.746069 0
    endloop
  endfacet
  facet normal 0.998026 0.0628015 0
    outer loop
      vertex -2.97634 -0.375999 12
      vertex -3 0 0
      vertex -3 0 12
    endloop
  endfacet
  facet normal 0.998026 0.0628015 0
    outer loop
      vertex -3 0 0
      vertex -2.97634 -0.375999 12
      vertex -2.97634 -0.375999 0
    endloop
  endfacet
  facet normal 0.481762 0.876302 -0
    outer loop
      vertex -1.27734 -2.71448 0
      vertex -1.60748 -2.53298 12
      vertex -1.27734 -2.71448 12
    endloop
  endfacet
  facet normal 0.481762 0.876302 0
    outer loop
      vertex -1.60748 -2.53298 12
      vertex -1.27734 -2.71448 0
      vertex -1.60748 -2.53298 0
    endloop
  endfacet
  facet normal 0.998025 0.062815 0
    outer loop
      vertex 10.75 0 12
      vertex 10.6652 1.34733 0
      vertex 10.6652 1.34733 12
    endloop
  endfacet
  facet normal 0.998025 0.062815 0
    outer loop
      vertex 10.6652 1.34733 0
      vertex 10.75 0 12
      vertex 10.75 0 0
    endloop
  endfacet
  facet normal -0.998025 0.062815 0
    outer loop
      vertex -10.75 0 0
      vertex -10.6652 1.34733 12
      vertex -10.6652 1.34733 0
    endloop
  endfacet
  facet normal -0.998025 0.062815 0
    outer loop
      vertex -10.6652 1.34733 12
      vertex -10.75 0 0
      vertex -10.75 0 12
    endloop
  endfacet
  facet normal 0 1 -0
    outer loop
      vertex 0.674997 10.7288 0
      vertex -0.674997 10.7288 12
      vertex 0.674997 10.7288 12
    endloop
  endfacet
  facet normal 0 1 0
    outer loop
      vertex -0.674997 10.7288 12
      vertex 0.674997 10.7288 0
      vertex -0.674997 10.7288 0
    endloop
  endfacet
  facet normal 0.68455 0.728965 -0
    outer loop
      vertex 7.83641 7.35888 0
      vertex 6.85231 8.28302 12
      vertex 7.83641 7.35888 12
    endloop
  endfacet
  facet normal 0.68455 0.728965 0
    outer loop
      vertex 6.85231 8.28302 12
      vertex 7.83641 7.35888 0
      vertex 6.85231 8.28302 0
    endloop
  endfacet
  facet normal -0.68455 0.728965 0
    outer loop
      vertex -6.85231 8.28302 0
      vertex -7.83641 7.35888 12
      vertex -6.85231 8.28302 12
    endloop
  endfacet
  facet normal -0.68455 0.728965 0
    outer loop
      vertex -7.83641 7.35888 12
      vertex -6.85231 8.28302 0
      vertex -7.83641 7.35888 0
    endloop
  endfacet
  facet normal -0.368151 0.929766 0
    outer loop
      vertex -3.32193 10.2239 0
      vertex -4.57713 9.72689 12
      vertex -3.32193 10.2239 12
    endloop
  endfacet
  facet normal -0.368151 0.929766 0
    outer loop
      vertex -4.57713 9.72689 12
      vertex -3.32193 10.2239 0
      vertex -4.57713 9.72689 0
    endloop
  endfacet
  facet normal 0.770513 -0.637424 0
    outer loop
      vertex 7.83641 -7.35888 12
      vertex 8.69693 -6.31869 0
      vertex 8.69693 -6.31869 12
    endloop
  endfacet
  facet normal 0.770513 -0.637424 0
    outer loop
      vertex 8.69693 -6.31869 0
      vertex 7.83641 -7.35888 12
      vertex 7.83641 -7.35888 0
    endloop
  endfacet
  facet normal 0.904827 0.42578 0
    outer loop
      vertex 9.9951 3.95734 12
      vertex 9.4203 5.17885 0
      vertex 9.4203 5.17885 12
    endloop
  endfacet
  facet normal 0.904827 0.42578 0
    outer loop
      vertex 9.4203 5.17885 0
      vertex 9.9951 3.95734 12
      vertex 9.9951 3.95734 0
    endloop
  endfacet
  facet normal 0.368151 0.929766 -0
    outer loop
      vertex 4.57713 9.72689 0
      vertex 3.32193 10.2239 12
      vertex 4.57713 9.72689 12
    endloop
  endfacet
  facet normal 0.368151 0.929766 0
    outer loop
      vertex 3.32193 10.2239 12
      vertex 4.57713 9.72689 0
      vertex 3.32193 10.2239 0
    endloop
  endfacet
  facet normal 0.248669 0.968588 -0
    outer loop
      vertex 3.32193 10.2239 0
      vertex 2.01435 10.5596 12
      vertex 3.32193 10.2239 12
    endloop
  endfacet
  facet normal 0.248669 0.968588 0
    outer loop
      vertex 2.01435 10.5596 12
      vertex 3.32193 10.2239 0
      vertex 2.01435 10.5596 0
    endloop
  endfacet
  facet normal 0.587781 0.80902 -0
    outer loop
      vertex 6.85231 8.28302 0
      vertex 5.76014 9.07652 12
      vertex 6.85231 8.28302 12
    endloop
  endfacet
  facet normal 0.587781 0.80902 0
    outer loop
      vertex 5.76014 9.07652 12
      vertex 6.85231 8.28302 0
      vertex 5.76014 9.07652 0
    endloop
  endfacet
  facet normal -0.904827 0.42578 0
    outer loop
      vertex -9.9951 3.95734 0
      vertex -9.4203 5.17885 12
      vertex -9.4203 5.17885 0
    endloop
  endfacet
  facet normal -0.904827 0.42578 0
    outer loop
      vertex -9.4203 5.17885 12
      vertex -9.9951 3.95734 0
      vertex -9.9951 3.95734 12
    endloop
  endfacet
  facet normal -0.844326 0.53583 0
    outer loop
      vertex -9.4203 5.17885 0
      vertex -8.69693 6.31869 12
      vertex -8.69693 6.31869 0
    endloop
  endfacet
  facet normal -0.844326 0.53583 0
    outer loop
      vertex -8.69693 6.31869 12
      vertex -9.4203 5.17885 0
      vertex -9.4203 5.17885 12
    endloop
  endfacet
  facet normal -0.95105 0.309036 0
    outer loop
      vertex -10.4123 2.67342 0
      vertex -9.9951 3.95734 12
      vertex -9.9951 3.95734 0
    endloop
  endfacet
  facet normal -0.95105 0.309036 0
    outer loop
      vertex -9.9951 3.95734 12
      vertex -10.4123 2.67342 0
      vertex -10.4123 2.67342 12
    endloop
  endfacet
  facet normal -0.587781 0.80902 0
    outer loop
      vertex -5.76014 9.07652 0
      vertex -6.85231 8.28302 12
      vertex -5.76014 9.07652 12
    endloop
  endfacet
  facet normal -0.587781 0.80902 0
    outer loop
      vertex -6.85231 8.28302 12
      vertex -5.76014 9.07652 0
      vertex -6.85231 8.28302 0
    endloop
  endfacet
  facet normal -0.125334 0.992115 0
    outer loop
      vertex -0.674997 10.7288 0
      vertex -2.01435 10.5596 12
      vertex -0.674997 10.7288 12
    endloop
  endfacet
  facet normal -0.125334 0.992115 0
    outer loop
      vertex -2.01435 10.5596 12
      vertex -0.674997 10.7288 0
      vertex -2.01435 10.5596 0
    endloop
  endfacet
  facet normal 0.125334 -0.992115 0
    outer loop
      vertex 0.674997 -10.7288 0
      vertex 2.01435 -10.5596 12
      vertex 0.674997 -10.7288 12
    endloop
  endfacet
  facet normal 0.125334 -0.992115 0
    outer loop
      vertex 2.01435 -10.5596 12
      vertex 0.674997 -10.7288 0
      vertex 2.01435 -10.5596 0
    endloop
  endfacet
  facet normal 0.95105 0.309036 0
    outer loop
      vertex 10.4123 2.67342 12
      vertex 9.9951 3.95734 0
      vertex 9.9951 3.95734 12
    endloop
  endfacet
  facet normal 0.95105 0.309036 0
    outer loop
      vertex 9.9951 3.95734 0
      vertex 10.4123 2.67342 12
      vertex 10.4123 2.67342 0
    endloop
  endfacet
  facet normal 0.982296 0.187335 0
    outer loop
      vertex 10.6652 1.34733 12
      vertex 10.4123 2.67342 0
      vertex 10.4123 2.67342 12
    endloop
  endfacet
  facet normal 0.982296 0.187335 0
    outer loop
      vertex 10.4123 2.67342 0
      vertex 10.6652 1.34733 12
      vertex 10.6652 1.34733 0
    endloop
  endfacet
  facet normal 0.770513 0.637424 0
    outer loop
      vertex 8.69693 6.31869 12
      vertex 7.83641 7.35888 0
      vertex 7.83641 7.35888 12
    endloop
  endfacet
  facet normal 0.770513 0.637424 0
    outer loop
      vertex 7.83641 7.35888 0
      vertex 8.69693 6.31869 12
      vertex 8.69693 6.31869 0
    endloop
  endfacet
  facet normal 0.844326 0.53583 0
    outer loop
      vertex 9.4203 5.17885 12
      vertex 8.69693 6.31869 0
      vertex 8.69693 6.31869 12
    endloop
  endfacet
  facet normal 0.844326 0.53583 0
    outer loop
      vertex 8.69693 6.31869 0
      vertex 9.4203 5.17885 12
      vertex 9.4203 5.17885 0
    endloop
  endfacet
  facet normal 0.125334 0.992115 -0
    outer loop
      vertex 2.01435 10.5596 0
      vertex 0.674997 10.7288 12
      vertex 2.01435 10.5596 12
    endloop
  endfacet
  facet normal 0.125334 0.992115 0
    outer loop
      vertex 0.674997 10.7288 12
      vertex 2.01435 10.5596 0
      vertex 0.674997 10.7288 0
    endloop
  endfacet
  facet normal 0.481756 0.876305 -0
    outer loop
      vertex 5.76014 9.07652 0
      vertex 4.57713 9.72689 12
      vertex 5.76014 9.07652 12
    endloop
  endfacet
  facet normal 0.481756 0.876305 0
    outer loop
      vertex 4.57713 9.72689 12
      vertex 5.76014 9.07652 0
      vertex 4.57713 9.72689 0
    endloop
  endfacet
  facet normal -0.770513 0.637424 0
    outer loop
      vertex -8.69693 6.31869 0
      vertex -7.83641 7.35888 12
      vertex -7.83641 7.35888 0
    endloop
  endfacet
  facet normal -0.770513 0.637424 0
    outer loop
      vertex -7.83641 7.35888 12
      vertex -8.69693 6.31869 0
      vertex -8.69693 6.31869 12
    endloop
  endfacet
  facet normal -0.982296 0.187335 0
    outer loop
      vertex -10.6652 1.34733 0
      vertex -10.4123 2.67342 12
      vertex -10.4123 2.67342 0
    endloop
  endfacet
  facet normal -0.982296 0.187335 0
    outer loop
      vertex -10.4123 2.67342 12
      vertex -10.6652 1.34733 0
      vertex -10.6652 1.34733 12
    endloop
  endfacet
  facet normal -0.481756 0.876305 0
    outer loop
      vertex -4.57713 9.72689 0
      vertex -5.76014 9.07652 12
      vertex -4.57713 9.72689 12
    endloop
  endfacet
  facet normal -0.481756 0.876305 0
    outer loop
      vertex -5.76014 9.07652 12
      vertex -4.57713 9.72689 0
      vertex -5.76014 9.07652 0
    endloop
  endfacet
  facet normal -0.248669 0.968588 0
    outer loop
      vertex -2.01435 10.5596 0
      vertex -3.32193 10.2239 12
      vertex -2.01435 10.5596 12
    endloop
  endfacet
  facet normal -0.248669 0.968588 0
    outer loop
      vertex -3.32193 10.2239 12
      vertex -2.01435 10.5596 0
      vertex -3.32193 10.2239 0
    endloop
  endfacet
  facet normal 0.998025 -0.062815 0
    outer loop
      vertex 10.6652 -1.34733 12
      vertex 10.75 0 0
      vertex 10.75 0 12
    endloop
  endfacet
  facet normal 0.998025 -0.062815 0
    outer loop
      vertex 10.75 0 0
      vertex 10.6652 -1.34733 12
      vertex 10.6652 -1.34733 0
    endloop
  endfacet
  facet normal 0.904827 -0.42578 0
    outer loop
      vertex 9.4203 -5.17885 12
      vertex 9.9951 -3.95734 0
      vertex 9.9951 -3.95734 12
    endloop
  endfacet
  facet normal 0.904827 -0.42578 0
    outer loop
      vertex 9.9951 -3.95734 0
      vertex 9.4203 -5.17885 12
      vertex 9.4203 -5.17885 0
    endloop
  endfacet
  facet normal 0.844326 -0.53583 0
    outer loop
      vertex 8.69693 -6.31869 12
      vertex 9.4203 -5.17885 0
      vertex 9.4203 -5.17885 12
    endloop
  endfacet
  facet normal 0.844326 -0.53583 0
    outer loop
      vertex 9.4203 -5.17885 0
      vertex 8.69693 -6.31869 12
      vertex 8.69693 -6.31869 0
    endloop
  endfacet
  facet normal -0.844326 -0.53583 0
    outer loop
      vertex -8.69693 -6.31869 0
      vertex -9.4203 -5.17885 12
      vertex -9.4203 -5.17885 0
    endloop
  endfacet
  facet normal -0.844326 -0.53583 0
    outer loop
      vertex -9.4203 -5.17885 12
      vertex -8.69693 -6.31869 0
      vertex -8.69693 -6.31869 12
    endloop
  endfacet
  facet normal -0.904827 -0.42578 0
    outer loop
      vertex -9.4203 -5.17885 0
      vertex -9.9951 -3.95734 12
      vertex -9.9951 -3.95734 0
    endloop
  endfacet
  facet normal -0.904827 -0.42578 0
    outer loop
      vertex -9.9951 -3.95734 12
      vertex -9.4203 -5.17885 0
      vertex -9.4203 -5.17885 12
    endloop
  endfacet
  facet normal -0.95105 -0.309036 0
    outer loop
      vertex -9.9951 -3.95734 0
      vertex -10.4123 -2.67342 12
      vertex -10.4123 -2.67342 0
    endloop
  endfacet
  facet normal -0.95105 -0.309036 0
    outer loop
      vertex -10.4123 -2.67342 12
      vertex -9.9951 -3.95734 0
      vertex -9.9951 -3.95734 12
    endloop
  endfacet
  facet normal 0.68455 -0.728965 0
    outer loop
      vertex 6.85231 -8.28302 0
      vertex 7.83641 -7.35888 12
      vertex 6.85231 -8.28302 12
    endloop
  endfacet
  facet normal 0.68455 -0.728965 0
    outer loop
      vertex 7.83641 -7.35888 12
      vertex 6.85231 -8.28302 0
      vertex 7.83641 -7.35888 0
    endloop
  endfacet
  facet normal 0.368151 -0.929766 0
    outer loop
      vertex 3.32193 -10.2239 0
      vertex 4.57713 -9.72689 12
      vertex 3.32193 -10.2239 12
    endloop
  endfacet
  facet normal 0.368151 -0.929766 0
    outer loop
      vertex 4.57713 -9.72689 12
      vertex 3.32193 -10.2239 0
      vertex 4.57713 -9.72689 0
    endloop
  endfacet
  facet normal 0.248669 -0.968588 0
    outer loop
      vertex 2.01435 -10.5596 0
      vertex 3.32193 -10.2239 12
      vertex 2.01435 -10.5596 12
    endloop
  endfacet
  facet normal 0.248669 -0.968588 0
    outer loop
      vertex 3.32193 -10.2239 12
      vertex 2.01435 -10.5596 0
      vertex 3.32193 -10.2239 0
    endloop
  endfacet
  facet normal 0 0 1
    outer loop
      vertex 3 0 12
      vertex 10.75 0 12
      vertex 10.6652 1.34733 12
    endloop
  endfacet
  facet normal 0 0 1
    outer loop
      vertex 2.97634 0.375999 12
      vertex 10.6652 1.34733 12
      vertex 10.4123 2.67342 12
    endloop
  endfacet
  facet normal 0 0 1
    outer loop
      vertex 10.75 0 12
      vertex 3 0 12
      vertex 10.6652 -1.34733 12
    endloop
  endfacet
  facet normal 0 0 1
    outer loop
      vertex 2.90575 0.746069 12
      vertex 10.4123 2.67342 12
      vertex 9.9951 3.95734 12
    endloop
  endfacet
  facet normal -0 0 1
    outer loop
      vertex 2.97634 -0.375999 12
      vertex 10.6652 -1.34733 12
      vertex 3 0 12
    endloop
  endfacet
  facet normal 0 0 1
    outer loop
      vertex 2.78933 1.10437 12
      vertex 9.9951 3.95734 12
      vertex 9.4203 5.17885 12
    endloop
  endfacet
  facet normal 0 0 1
    outer loop
      vertex 10.6652 -1.34733 12
      vertex 2.97634 -0.375999 12
      vertex 10.4123 -2.67342 12
    endloop
  endfacet
  facet normal 0 0 1
    outer loop
      vertex 2.62892 1.44526 12
      vertex 9.4203 5.17885 12
      vertex 8.69693 6.31869 12
    endloop
  endfacet
  facet normal -0 0 1
    outer loop
      vertex 2.90575 -0.746069 12
      vertex 10.4123 -2.67342 12
      vertex 2.97634 -0.375999 12
    endloop
  endfacet
  facet normal 0 0 1
    outer loop
      vertex 2.42705 1.76336 12
      vertex 8.69693 6.31869 12
      vertex 7.83641 7.35888 12
    endloop
  endfacet
  facet normal 0 0 1
    outer loop
      vertex 10.4123 -2.67342 12
      vertex 2.90575 -0.746069 12
      vertex 9.9951 -3.95734 12
    endloop
  endfacet
  facet normal 0 0 1
    outer loop
      vertex 2.18691 2.05364 12
      vertex 7.83641 7.35888 12
      vertex 6.85231 8.28302 12
    endloop
  endfacet
  facet normal -0 0 1
    outer loop
      vertex 2.78933 -1.10437 12
      vertex 9.9951 -3.95734 12
      vertex 2.90575 -0.746069 12
    endloop
  endfacet
  facet normal 0 0 1
    outer loop
      vertex 1.91227 2.31154 12
      vertex 6.85231 8.28302 12
      vertex 5.76014 9.07652 12
    endloop
  endfacet
  facet normal 0 0 1
    outer loop
      vertex 9.9951 -3.95734 12
      vertex 2.78933 -1.10437 12
      vertex 9.4203 -5.17885 12
    endloop
  endfacet
  facet normal 0 0 1
    outer loop
      vertex 1.60748 2.53298 12
      vertex 5.76014 9.07652 12
      vertex 4.57713 9.72689 12
    endloop
  endfacet
  facet normal -0 0 1
    outer loop
      vertex 2.62892 -1.44526 12
      vertex 9.4203 -5.17885 12
      vertex 2.78933 -1.10437 12
    endloop
  endfacet
  facet normal 0 0 1
    outer loop
      vertex 1.27734 2.71448 12
      vertex 4.57713 9.72689 12
      vertex 3.32193 10.2239 12
    endloop
  endfacet
  facet normal 0 0 1
    outer loop
      vertex 9.4203 -5.17885 12
      vertex 2.62892 -1.44526 12
      vertex 8.69693 -6.31869 12
    endloop
  endfacet
  facet normal -0 0 1
    outer loop
      vertex 2.42705 -1.76336 12
      vertex 8.69693 -6.31869 12
      vertex 2.62892 -1.44526 12
    endloop
  endfacet
  facet normal 0 0 1
    outer loop
      vertex 10.6652 1.34733 12
      vertex 2.97634 0.375999 12
      vertex 3 0 12
    endloop
  endfacet
  facet normal 0 0 1
    outer loop
      vertex 10.4123 2.67342 12
      vertex 2.90575 0.746069 12
      vertex 2.97634 0.375999 12
    endloop
  endfacet
  facet normal 0 0 1
    outer loop
      vertex 9.9951 3.95734 12
      vertex 2.78933 1.10437 12
      vertex 2.90575 0.746069 12
    endloop
  endfacet
  facet normal 0 0 1
    outer loop
      vertex 9.4203 5.17885 12
      vertex 2.62892 1.44526 12
      vertex 2.78933 1.10437 12
    endloop
  endfacet
  facet normal 0 0 1
    outer loop
      vertex 8.69693 6.31869 12
      vertex 2.42705 1.76336 12
      vertex 2.62892 1.44526 12
    endloop
  endfacet
  facet normal 0 0 1
    outer loop
      vertex 7.83641 7.35888 12
      vertex 2.18691 2.05364 12
      vertex 2.42705 1.76336 12
    endloop
  endfacet
  facet normal 0 0 1
    outer loop
      vertex 0.927051 2.85317 12
      vertex 3.32193 10.2239 12
      vertex 2.01435 10.5596 12
    endloop
  endfacet
  facet normal 0 0 1
    outer loop
      vertex 6.85231 8.28302 12
      vertex 1.91227 2.31154 12
      vertex 2.18691 2.05364 12
    endloop
  endfacet
  facet normal 0 0 1
    outer loop
      vertex 5.76014 9.07652 12
      vertex 1.60748 2.53298 12
      vertex 1.91227 2.31154 12
    endloop
  endfacet
  facet normal 0 0 1
    outer loop
      vertex 4.57713 9.72689 12
      vertex 1.27734 2.71448 12
      vertex 1.60748 2.53298 12
    endloop
  endfacet
  facet normal 0 0 1
    outer loop
      vertex 3.32193 10.2239 12
      vertex 0.927051 2.85317 12
      vertex 1.27734 2.71448 12
    endloop
  endfacet
  facet normal 0 0 1
    outer loop
      vertex 0.562143 2.94686 12
      vertex 2.01435 10.5596 12
      vertex 0.674997 10.7288 12
    endloop
  endfacet
  facet normal 0 0 1
    outer loop
      vertex 2.01435 10.5596 12
      vertex 0.562143 2.94686 12
      vertex 0.927051 2.85317 12
    endloop
  endfacet
  facet normal 0 0 1
    outer loop
      vertex 0.674997 10.7288 12
      vertex 0.188371 2.99408 12
      vertex 0.562143 2.94686 12
    endloop
  endfacet
  facet normal 0 0 1
    outer loop
      vertex 0.674997 10.7288 12
      vertex -0.188371 2.99408 12
      vertex 0.188371 2.99408 12
    endloop
  endfacet
  facet normal -0 0 1
    outer loop
      vertex -0.674997 10.7288 12
      vertex -0.188371 2.99408 12
      vertex 0.674997 10.7288 12
    endloop
  endfacet
  facet normal 0 0 1
    outer loop
      vertex -0.188371 2.99408 12
      vertex -0.674997 10.7288 12
      vertex -0.562143 2.94686 12
    endloop
  endfacet
  facet normal -0 0 1
    outer loop
      vertex -2.01435 10.5596 12
      vertex -0.562143 2.94686 12
      vertex -0.674997 10.7288 12
    endloop
  endfacet
  facet normal 0 0 1
    outer loop
      vertex -0.562143 2.94686 12
      vertex -2.01435 10.5596 12
      vertex -0.927051 2.85317 12
    endloop
  endfacet
  facet normal -0 0 1
    outer loop
      vertex -3.32193 10.2239 12
      vertex -0.927051 2.85317 12
      vertex -2.01435 10.5596 12
    endloop
  endfacet
  facet normal 0 0 1
    outer loop
      vertex -0.927051 2.85317 12
      vertex -3.32193 10.2239 12
      vertex -1.27734 2.71448 12
    endloop
  endfacet
  facet normal -0 0 1
    outer loop
      vertex -4.57713 9.72689 12
      vertex -1.27734 2.71448 12
      vertex -3.32193 10.2239 12
    endloop
  endfacet
  facet normal 0 0 1
    outer loop
      vertex -1.27734 2.71448 12
      vertex -4.57713 9.72689 12
      vertex -1.60748 2.53298 12
    endloop
  endfacet
  facet normal -0 0 1
    outer loop
      vertex -5.76014 9.07652 12
      vertex -1.60748 2.53298 12
      vertex -4.57713 9.72689 12
    endloop
  endfacet
  facet normal 0 0 1
    outer loop
      vertex -1.60748 2.53298 12
      vertex -5.76014 9.07652 12
      vertex -1.91227 2.31154 12
    endloop
  endfacet
  facet normal -0 0 1
    outer loop
      vertex -6.85231 8.28302 12
      vertex -1.91227 2.31154 12
      vertex -5.76014 9.07652 12
    endloop
  endfacet
  facet normal 0 0 1
    outer loop
      vertex -1.91227 2.31154 12
      vertex -6.85231 8.28302 12
      vertex -2.18691 2.05364 12
    endloop
  endfacet
  facet normal -0 0 1
    outer loop
      vertex -7.83641 7.35888 12
      vertex -2.18691 2.05364 12
      vertex -6.85231 8.28302 12
    endloop
  endfacet
  facet normal -0 0 1
    outer loop
      vertex -8.69693 6.31869 12
      vertex -2.42705 1.76336 12
      vertex -7.83641 7.35888 12
    endloop
  endfacet
  facet normal 0 0 1
    outer loop
      vertex -2.18691 2.05364 12
      vertex -7.83641 7.35888 12
      vertex -2.42705 1.76336 12
    endloop
  endfacet
  facet normal 0 0 1
    outer loop
      vertex 8.69693 -6.31869 12
      vertex 2.42705 -1.76336 12
      vertex 7.83641 -7.35888 12
    endloop
  endfacet
  facet normal -0 0 1
    outer loop
      vertex 2.18691 -2.05364 12
      vertex 7.83641 -7.35888 12
      vertex 2.42705 -1.76336 12
    endloop
  endfacet
  facet normal 0 0 1
    outer loop
      vertex 7.83641 -7.35888 12
      vertex 2.18691 -2.05364 12
      vertex 6.85231 -8.28302 12
    endloop
  endfacet
  facet normal -0 0 1
    outer loop
      vertex 1.91227 -2.31154 12
      vertex 6.85231 -8.28302 12
      vertex 2.18691 -2.05364 12
    endloop
  endfacet
  facet normal 0 0 1
    outer loop
      vertex 6.85231 -8.28302 12
      vertex 1.91227 -2.31154 12
      vertex 5.76014 -9.07652 12
    endloop
  endfacet
  facet normal -0 0 1
    outer loop
      vertex 1.60748 -2.53298 12
      vertex 5.76014 -9.07652 12
      vertex 1.91227 -2.31154 12
    endloop
  endfacet
  facet normal 0 0 1
    outer loop
      vertex 5.76014 -9.07652 12
      vertex 1.60748 -2.53298 12
      vertex 4.57713 -9.72689 12
    endloop
  endfacet
  facet normal -0 0 1
    outer loop
      vertex 1.27734 -2.71448 12
      vertex 4.57713 -9.72689 12
      vertex 1.60748 -2.53298 12
    endloop
  endfacet
  facet normal 0 0 1
    outer loop
      vertex 4.57713 -9.72689 12
      vertex 1.27734 -2.71448 12
      vertex 3.32193 -10.2239 12
    endloop
  endfacet
  facet normal -0 0 1
    outer loop
      vertex 0.927051 -2.85317 12
      vertex 3.32193 -10.2239 12
      vertex 1.27734 -2.71448 12
    endloop
  endfacet
  facet normal 0 0 1
    outer loop
      vertex 3.32193 -10.2239 12
      vertex 0.927051 -2.85317 12
      vertex 2.01435 -10.5596 12
    endloop
  endfacet
  facet normal -0 0 1
    outer loop
      vertex 0.562143 -2.94686 12
      vertex 2.01435 -10.5596 12
      vertex 0.927051 -2.85317 12
    endloop
  endfacet
  facet normal 0 0 1
    outer loop
      vertex 2.01435 -10.5596 12
      vertex 0.562143 -2.94686 12
      vertex 0.674997 -10.7288 12
    endloop
  endfacet
  facet normal -0 0 1
    outer loop
      vertex 0.188371 -2.99408 12
      vertex 0.674997 -10.7288 12
      vertex 0.562143 -2.94686 12
    endloop
  endfacet
  facet normal -0 0 1
    outer loop
      vertex -0.188371 -2.99408 12
      vertex 0.674997 -10.7288 12
      vertex 0.188371 -2.99408 12
    endloop
  endfacet
  facet normal 0 0 1
    outer loop
      vertex -0.674997 -10.7288 12
      vertex -0.188371 -2.99408 12
      vertex -0.562143 -2.94686 12
    endloop
  endfacet
  facet normal 0 0 1
    outer loop
      vertex -0.188371 -2.99408 12
      vertex -0.674997 -10.7288 12
      vertex 0.674997 -10.7288 12
    endloop
  endfacet
  facet normal 0 0 1
    outer loop
      vertex -2.01435 -10.5596 12
      vertex -0.562143 -2.94686 12
      vertex -0.927051 -2.85317 12
    endloop
  endfacet
  facet normal 0 0 1
    outer loop
      vertex -3.32193 -10.2239 12
      vertex -0.927051 -2.85317 12
      vertex -1.27734 -2.71448 12
    endloop
  endfacet
  facet normal 0 0 1
    outer loop
      vertex -4.57713 -9.72689 12
      vertex -1.27734 -2.71448 12
      vertex -1.60748 -2.53298 12
    endloop
  endfacet
  facet normal 0 0 1
    outer loop
      vertex -5.76014 -9.07652 12
      vertex -1.60748 -2.53298 12
      vertex -1.91227 -2.31154 12
    endloop
  endfacet
  facet normal 0 0 1
    outer loop
      vertex -0.562143 -2.94686 12
      vertex -2.01435 -10.5596 12
      vertex -0.674997 -10.7288 12
    endloop
  endfacet
  facet normal 0 0 1
    outer loop
      vertex -6.85231 -8.28302 12
      vertex -1.91227 -2.31154 12
      vertex -2.18691 -2.05364 12
    endloop
  endfacet
  facet normal 0 0 1
    outer loop
      vertex -7.83641 -7.35888 12
      vertex -2.18691 -2.05364 12
      vertex -2.42705 -1.76336 12
    endloop
  endfacet
  facet normal 0 0 1
    outer loop
      vertex -8.69693 -6.31869 12
      vertex -2.42705 -1.76336 12
      vertex -2.62892 -1.44526 12
    endloop
  endfacet
  facet normal 0 0 1
    outer loop
      vertex -9.4203 -5.17885 12
      vertex -2.62892 -1.44526 12
      vertex -2.78933 -1.10437 12
    endloop
  endfacet
  facet normal 0 0 1
    outer loop
      vertex -9.9951 -3.95734 12
      vertex -2.78933 -1.10437 12
      vertex -2.90575 -0.746069 12
    endloop
  endfacet
  facet normal 0 0 1
    outer loop
      vertex -10.4123 -2.67342 12
      vertex -2.90575 -0.746069 12
      vertex -2.97634 -0.375999 12
    endloop
  endfacet
  facet normal 0 0 1
    outer loop
      vertex -0.927051 -2.85317 12
      vertex -3.32193 -10.2239 12
      vertex -2.01435 -10.5596 12
    endloop
  endfacet
  facet normal 0 0 1
    outer loop
      vertex -10.6652 -1.34733 12
      vertex -2.97634 -0.375999 12
      vertex -3 0 12
    endloop
  endfacet
  facet normal 0 0 1
    outer loop
      vertex -2.42705 1.76336 12
      vertex -8.69693 6.31869 12
      vertex -2.62892 1.44526 12
    endloop
  endfacet
  facet normal -0 0 1
    outer loop
      vertex -9.4203 5.17885 12
      vertex -2.62892 1.44526 12
      vertex -8.69693 6.31869 12
    endloop
  endfacet
  facet normal 0 0 1
    outer loop
      vertex -1.27734 -2.71448 12
      vertex -4.57713 -9.72689 12
      vertex -3.32193 -10.2239 12
    endloop
  endfacet
  facet normal 0 0 1
    outer loop
      vertex -2.62892 1.44526 12
      vertex -9.4203 5.17885 12
      vertex -2.78933 1.10437 12
    endloop
  endfacet
  facet normal 0 0 1
    outer loop
      vertex -1.60748 -2.53298 12
      vertex -5.76014 -9.07652 12
      vertex -4.57713 -9.72689 12
    endloop
  endfacet
  facet normal -0 0 1
    outer loop
      vertex -9.9951 3.95734 12
      vertex -2.78933 1.10437 12
      vertex -9.4203 5.17885 12
    endloop
  endfacet
  facet normal 0 0 1
    outer loop
      vertex -1.91227 -2.31154 12
      vertex -6.85231 -8.28302 12
      vertex -5.76014 -9.07652 12
    endloop
  endfacet
  facet normal 0 0 1
    outer loop
      vertex -2.78933 1.10437 12
      vertex -9.9951 3.95734 12
      vertex -2.90575 0.746069 12
    endloop
  endfacet
  facet normal 0 0 1
    outer loop
      vertex -2.18691 -2.05364 12
      vertex -7.83641 -7.35888 12
      vertex -6.85231 -8.28302 12
    endloop
  endfacet
  facet normal -0 0 1
    outer loop
      vertex -10.4123 2.67342 12
      vertex -2.90575 0.746069 12
      vertex -9.9951 3.95734 12
    endloop
  endfacet
  facet normal 0 0 1
    outer loop
      vertex -2.42705 -1.76336 12
      vertex -8.69693 -6.31869 12
      vertex -7.83641 -7.35888 12
    endloop
  endfacet
  facet normal 0 0 1
    outer loop
      vertex -2.90575 0.746069 12
      vertex -10.4123 2.67342 12
      vertex -2.97634 0.375999 12
    endloop
  endfacet
  facet normal 0 0 1
    outer loop
      vertex -2.62892 -1.44526 12
      vertex -9.4203 -5.17885 12
      vertex -8.69693 -6.31869 12
    endloop
  endfacet
  facet normal -0 0 1
    outer loop
      vertex -10.6652 1.34733 12
      vertex -2.97634 0.375999 12
      vertex -10.4123 2.67342 12
    endloop
  endfacet
  facet normal 0 0 1
    outer loop
      vertex -2.78933 -1.10437 12
      vertex -9.9951 -3.95734 12
      vertex -9.4203 -5.17885 12
    endloop
  endfacet
  facet normal 0 0 1
    outer loop
      vertex -2.97634 0.375999 12
      vertex -10.6652 1.34733 12
      vertex -3 0 12
    endloop
  endfacet
  facet normal 0 0 1
    outer loop
      vertex -2.90575 -0.746069 12
      vertex -10.4123 -2.67342 12
      vertex -9.9951 -3.95734 12
    endloop
  endfacet
  facet normal 0 0 1
    outer loop
      vertex -10.75 0 12
      vertex -3 0 12
      vertex -10.6652 1.34733 12
    endloop
  endfacet
  facet normal 0 0 1
    outer loop
      vertex -2.97634 -0.375999 12
      vertex -10.6652 -1.34733 12
      vertex -10.4123 -2.67342 12
    endloop
  endfacet
  facet normal 0 0 1
    outer loop
      vertex -3 0 12
      vertex -10.75 0 12
      vertex -10.6652 -1.34733 12
    endloop
  endfacet
  facet normal 0.95105 -0.309036 0
    outer loop
      vertex 9.9951 -3.95734 12
      vertex 10.4123 -2.67342 0
      vertex 10.4123 -2.67342 12
    endloop
  endfacet
  facet normal 0.95105 -0.309036 0
    outer loop
      vertex 10.4123 -2.67342 0
      vertex 9.9951 -3.95734 12
      vertex 9.9951 -3.95734 0
    endloop
  endfacet
  facet normal -0.125334 -0.992115 0
    outer loop
      vertex -2.01435 -10.5596 0
      vertex -0.674997 -10.7288 12
      vertex -2.01435 -10.5596 12
    endloop
  endfacet
  facet normal -0.125334 -0.992115 -0
    outer loop
      vertex -0.674997 -10.7288 12
      vertex -2.01435 -10.5596 0
      vertex -0.674997 -10.7288 0
    endloop
  endfacet
  facet normal -0.68455 -0.728965 0
    outer loop
      vertex -7.83641 -7.35888 0
      vertex -6.85231 -8.28302 12
      vertex -7.83641 -7.35888 12
    endloop
  endfacet
  facet normal -0.68455 -0.728965 -0
    outer loop
      vertex -6.85231 -8.28302 12
      vertex -7.83641 -7.35888 0
      vertex -6.85231 -8.28302 0
    endloop
  endfacet
  facet normal -0.998025 -0.062815 0
    outer loop
      vertex -10.6652 -1.34733 0
      vertex -10.75 0 12
      vertex -10.75 0 0
    endloop
  endfacet
  facet normal -0.998025 -0.062815 0
    outer loop
      vertex -10.75 0 12
      vertex -10.6652 -1.34733 0
      vertex -10.6652 -1.34733 12
    endloop
  endfacet
  facet normal 0.481756 -0.876305 0
    outer loop
      vertex 4.57713 -9.72689 0
      vertex 5.76014 -9.07652 12
      vertex 4.57713 -9.72689 12
    endloop
  endfacet
  facet normal 0.481756 -0.876305 0
    outer loop
      vertex 5.76014 -9.07652 12
      vertex 4.57713 -9.72689 0
      vertex 5.76014 -9.07652 0
    endloop
  endfacet
  facet normal 0.982296 -0.187335 0
    outer loop
      vertex 10.4123 -2.67342 12
      vertex 10.6652 -1.34733 0
      vertex 10.6652 -1.34733 12
    endloop
  endfacet
  facet normal 0.982296 -0.187335 0
    outer loop
      vertex 10.6652 -1.34733 0
      vertex 10.4123 -2.67342 12
      vertex 10.4123 -2.67342 0
    endloop
  endfacet
  facet normal 0 -1 0
    outer loop
      vertex -0.674997 -10.7288 0
      vertex 0.674997 -10.7288 12
      vertex -0.674997 -10.7288 12
    endloop
  endfacet
  facet normal 0 -1 -0
    outer loop
      vertex 0.674997 -10.7288 12
      vertex -0.674997 -10.7288 0
      vertex 0.674997 -10.7288 0
    endloop
  endfacet
  facet normal -0.368151 -0.929766 0
    outer loop
      vertex -4.57713 -9.72689 0
      vertex -3.32193 -10.2239 12
      vertex -4.57713 -9.72689 12
    endloop
  endfacet
  facet normal -0.368151 -0.929766 -0
    outer loop
      vertex -3.32193 -10.2239 12
      vertex -4.57713 -9.72689 0
      vertex -3.32193 -10.2239 0
    endloop
  endfacet
  facet normal -0.587781 -0.80902 0
    outer loop
      vertex -6.85231 -8.28302 0
      vertex -5.76014 -9.07652 12
      vertex -6.85231 -8.28302 12
    endloop
  endfacet
  facet normal -0.587781 -0.80902 -0
    outer loop
      vertex -5.76014 -9.07652 12
      vertex -6.85231 -8.28302 0
      vertex -5.76014 -9.07652 0
    endloop
  endfacet
  facet normal -0.770513 -0.637424 0
    outer loop
      vertex -7.83641 -7.35888 0
      vertex -8.69693 -6.31869 12
      vertex -8.69693 -6.31869 0
    endloop
  endfacet
  facet normal -0.770513 -0.637424 0
    outer loop
      vertex -8.69693 -6.31869 12
      vertex -7.83641 -7.35888 0
      vertex -7.83641 -7.35888 12
    endloop
  endfacet
  facet normal 0 0 -1
    outer loop
      vertex 3 0 0
      vertex 10.75 0 0
      vertex 10.6652 -1.34733 0
    endloop
  endfacet
  facet normal 0 0 -1
    outer loop
      vertex 2.97634 -0.375999 0
      vertex 10.6652 -1.34733 0
      vertex 10.4123 -2.67342 0
    endloop
  endfacet
  facet normal 0 0 -1
    outer loop
      vertex 10.75 0 0
      vertex 3 0 0
      vertex 10.6652 1.34733 0
    endloop
  endfacet
  facet normal 0 0 -1
    outer loop
      vertex 2.90575 -0.746069 0
      vertex 10.4123 -2.67342 0
      vertex 9.9951 -3.95734 0
    endloop
  endfacet
  facet normal 0 0 -1
    outer loop
      vertex 2.97634 0.375999 0
      vertex 10.6652 1.34733 0
      vertex 3 0 0
    endloop
  endfacet
  facet normal 0 0 -1
    outer loop
      vertex 2.78933 -1.10437 0
      vertex 9.9951 -3.95734 0
      vertex 9.4203 -5.17885 0
    endloop
  endfacet
  facet normal -0 0 -1
    outer loop
      vertex 10.6652 1.34733 0
      vertex 2.97634 0.375999 0
      vertex 10.4123 2.67342 0
    endloop
  endfacet
  facet normal 0 0 -1
    outer loop
      vertex 2.62892 -1.44526 0
      vertex 9.4203 -5.17885 0
      vertex 8.69693 -6.31869 0
    endloop
  endfacet
  facet normal 0 0 -1
    outer loop
      vertex 2.90575 0.746069 0
      vertex 10.4123 2.67342 0
      vertex 2.97634 0.375999 0
    endloop
  endfacet
  facet normal 0 0 -1
    outer loop
      vertex 2.42705 -1.76336 0
      vertex 8.69693 -6.31869 0
      vertex 7.83641 -7.35888 0
    endloop
  endfacet
  facet normal -0 0 -1
    outer loop
      vertex 10.4123 2.67342 0
      vertex 2.90575 0.746069 0
      vertex 9.9951 3.95734 0
    endloop
  endfacet
  facet normal 0 0 -1
    outer loop
      vertex 2.18691 -2.05364 0
      vertex 7.83641 -7.35888 0
      vertex 6.85231 -8.28302 0
    endloop
  endfacet
  facet normal 0 0 -1
    outer loop
      vertex 2.78933 1.10437 0
      vertex 9.9951 3.95734 0
      vertex 2.90575 0.746069 0
    endloop
  endfacet
  facet normal 0 0 -1
    outer loop
      vertex 1.91227 -2.31154 0
      vertex 6.85231 -8.28302 0
      vertex 5.76014 -9.07652 0
    endloop
  endfacet
  facet normal -0 0 -1
    outer loop
      vertex 9.9951 3.95734 0
      vertex 2.78933 1.10437 0
      vertex 9.4203 5.17885 0
    endloop
  endfacet
  facet normal 0 0 -1
    outer loop
      vertex 1.60748 -2.53298 0
      vertex 5.76014 -9.07652 0
      vertex 4.57713 -9.72689 0
    endloop
  endfacet
  facet normal 0 0 -1
    outer loop
      vertex 2.62892 1.44526 0
      vertex 9.4203 5.17885 0
      vertex 2.78933 1.10437 0
    endloop
  endfacet
  facet normal 0 0 -1
    outer loop
      vertex 1.27734 -2.71448 0
      vertex 4.57713 -9.72689 0
      vertex 3.32193 -10.2239 0
    endloop
  endfacet
  facet normal -0 0 -1
    outer loop
      vertex 9.4203 5.17885 0
      vertex 2.62892 1.44526 0
      vertex 8.69693 6.31869 0
    endloop
  endfacet
  facet normal 0 0 -1
    outer loop
      vertex 2.42705 1.76336 0
      vertex 8.69693 6.31869 0
      vertex 2.62892 1.44526 0
    endloop
  endfacet
  facet normal 0 0 -1
    outer loop
      vertex 10.6652 -1.34733 0
      vertex 2.97634 -0.375999 0
      vertex 3 0 0
    endloop
  endfacet
  facet normal 0 0 -1
    outer loop
      vertex 10.4123 -2.67342 0
      vertex 2.90575 -0.746069 0
      vertex 2.97634 -0.375999 0
    endloop
  endfacet
  facet normal 0 0 -1
    outer loop
      vertex 9.9951 -3.95734 0
      vertex 2.78933 -1.10437 0
      vertex 2.90575 -0.746069 0
    endloop
  endfacet
  facet normal 0 0 -1
    outer loop
      vertex 9.4203 -5.17885 0
      vertex 2.62892 -1.44526 0
      vertex 2.78933 -1.10437 0
    endloop
  endfacet
  facet normal 0 0 -1
    outer loop
      vertex 8.69693 -6.31869 0
      vertex 2.42705 -1.76336 0
      vertex 2.62892 -1.44526 0
    endloop
  endfacet
  facet normal 0 0 -1
    outer loop
      vertex 7.83641 -7.35888 0
      vertex 2.18691 -2.05364 0
      vertex 2.42705 -1.76336 0
    endloop
  endfacet
  facet normal 0 0 -1
    outer loop
      vertex 0.927051 -2.85317 0
      vertex 3.32193 -10.2239 0
      vertex 2.01435 -10.5596 0
    endloop
  endfacet
  facet normal 0 0 -1
    outer loop
      vertex 6.85231 -8.28302 0
      vertex 1.91227 -2.31154 0
      vertex 2.18691 -2.05364 0
    endloop
  endfacet
  facet normal 0 0 -1
    outer loop
      vertex 5.76014 -9.07652 0
      vertex 1.60748 -2.53298 0
      vertex 1.91227 -2.31154 0
    endloop
  endfacet
  facet normal 0 0 -1
    outer loop
      vertex 4.57713 -9.72689 0
      vertex 1.27734 -2.71448 0
      vertex 1.60748 -2.53298 0
    endloop
  endfacet
  facet normal 0 0 -1
    outer loop
      vertex 3.32193 -10.2239 0
      vertex 0.927051 -2.85317 0
      vertex 1.27734 -2.71448 0
    endloop
  endfacet
  facet normal 0 0 -1
    outer loop
      vertex 0.562143 -2.94686 0
      vertex 2.01435 -10.5596 0
      vertex 0.674997 -10.7288 0
    endloop
  endfacet
  facet normal 0 0 -1
    outer loop
      vertex 2.01435 -10.5596 0
      vertex 0.562143 -2.94686 0
      vertex 0.927051 -2.85317 0
    endloop
  endfacet
  facet normal 0 0 -1
    outer loop
      vertex 0.674997 -10.7288 0
      vertex 0.188371 -2.99408 0
      vertex 0.562143 -2.94686 0
    endloop
  endfacet
  facet normal 0 0 -1
    outer loop
      vertex 0.674997 -10.7288 0
      vertex -0.188371 -2.99408 0
      vertex 0.188371 -2.99408 0
    endloop
  endfacet
  facet normal 0 0 -1
    outer loop
      vertex -0.674997 -10.7288 0
      vertex -0.188371 -2.99408 0
      vertex 0.674997 -10.7288 0
    endloop
  endfacet
  facet normal -0 0 -1
    outer loop
      vertex -0.188371 -2.99408 0
      vertex -0.674997 -10.7288 0
      vertex -0.562143 -2.94686 0
    endloop
  endfacet
  facet normal 0 0 -1
    outer loop
      vertex -2.01435 -10.5596 0
      vertex -0.562143 -2.94686 0
      vertex -0.674997 -10.7288 0
    endloop
  endfacet
  facet normal -0 0 -1
    outer loop
      vertex -0.562143 -2.94686 0
      vertex -2.01435 -10.5596 0
      vertex -0.927051 -2.85317 0
    endloop
  endfacet
  facet normal 0 0 -1
    outer loop
      vertex -3.32193 -10.2239 0
      vertex -0.927051 -2.85317 0
      vertex -2.01435 -10.5596 0
    endloop
  endfacet
  facet normal -0 0 -1
    outer loop
      vertex -0.927051 -2.85317 0
      vertex -3.32193 -10.2239 0
      vertex -1.27734 -2.71448 0
    endloop
  endfacet
  facet normal 0 0 -1
    outer loop
      vertex -4.57713 -9.72689 0
      vertex -1.27734 -2.71448 0
      vertex -3.32193 -10.2239 0
    endloop
  endfacet
  facet normal -0 0 -1
    outer loop
      vertex -1.27734 -2.71448 0
      vertex -4.57713 -9.72689 0
      vertex -1.60748 -2.53298 0
    endloop
  endfacet
  facet normal 0 0 -1
    outer loop
      vertex -5.76014 -9.07652 0
      vertex -1.60748 -2.53298 0
      vertex -4.57713 -9.72689 0
    endloop
  endfacet
  facet normal -0 0 -1
    outer loop
      vertex -1.60748 -2.53298 0
      vertex -5.76014 -9.07652 0
      vertex -1.91227 -2.31154 0
    endloop
  endfacet
  facet normal 0 0 -1
    outer loop
      vertex -6.85231 -8.28302 0
      vertex -1.91227 -2.31154 0
      vertex -5.76014 -9.07652 0
    endloop
  endfacet
  facet normal -0 0 -1
    outer loop
      vertex -1.91227 -2.31154 0
      vertex -6.85231 -8.28302 0
      vertex -2.18691 -2.05364 0
    endloop
  endfacet
  facet normal 0 0 -1
    outer loop
      vertex -7.83641 -7.35888 0
      vertex -2.18691 -2.05364 0
      vertex -6.85231 -8.28302 0
    endloop
  endfacet
  facet normal 0 0 -1
    outer loop
      vertex -8.69693 -6.31869 0
      vertex -2.42705 -1.76336 0
      vertex -7.83641 -7.35888 0
    endloop
  endfacet
  facet normal -0 0 -1
    outer loop
      vertex -2.18691 -2.05364 0
      vertex -7.83641 -7.35888 0
      vertex -2.42705 -1.76336 0
    endloop
  endfacet
  facet normal -0 0 -1
    outer loop
      vertex 8.69693 6.31869 0
      vertex 2.42705 1.76336 0
      vertex 7.83641 7.35888 0
    endloop
  endfacet
  facet normal 0 0 -1
    outer loop
      vertex 2.18691 2.05364 0
      vertex 7.83641 7.35888 0
      vertex 2.42705 1.76336 0
    endloop
  endfacet
  facet normal -0 0 -1
    outer loop
      vertex 7.83641 7.35888 0
      vertex 2.18691 2.05364 0
      vertex 6.85231 8.28302 0
    endloop
  endfacet
  facet normal 0 0 -1
    outer loop
      vertex 1.91227 2.31154 0
      vertex 6.85231 8.28302 0
      vertex 2.18691 2.05364 0
    endloop
  endfacet
  facet normal -0 0 -1
    outer loop
      vertex 6.85231 8.28302 0
      vertex 1.91227 2.31154 0
      vertex 5.76014 9.07652 0
    endloop
  endfacet
  facet normal 0 0 -1
    outer loop
      vertex 1.60748 2.53298 0
      vertex 5.76014 9.07652 0
      vertex 1.91227 2.31154 0
    endloop
  endfacet
  facet normal -0 0 -1
    outer loop
      vertex 5.76014 9.07652 0
      vertex 1.60748 2.53298 0
      vertex 4.57713 9.72689 0
    endloop
  endfacet
  facet normal 0 0 -1
    outer loop
      vertex 1.27734 2.71448 0
      vertex 4.57713 9.72689 0
      vertex 1.60748 2.53298 0
    endloop
  endfacet
  facet normal -0 0 -1
    outer loop
      vertex 4.57713 9.72689 0
      vertex 1.27734 2.71448 0
      vertex 3.32193 10.2239 0
    endloop
  endfacet
  facet normal 0 0 -1
    outer loop
      vertex 0.927051 2.85317 0
      vertex 3.32193 10.2239 0
      vertex 1.27734 2.71448 0
    endloop
  endfacet
  facet normal -0 0 -1
    outer loop
      vertex 3.32193 10.2239 0
      vertex 0.927051 2.85317 0
      vertex 2.01435 10.5596 0
    endloop
  endfacet
  facet normal 0 0 -1
    outer loop
      vertex 0.562143 2.94686 0
      vertex 2.01435 10.5596 0
      vertex 0.927051 2.85317 0
    endloop
  endfacet
  facet normal -0 0 -1
    outer loop
      vertex 2.01435 10.5596 0
      vertex 0.562143 2.94686 0
      vertex 0.674997 10.7288 0
    endloop
  endfacet
  facet normal 0 0 -1
    outer loop
      vertex 0.188371 2.99408 0
      vertex 0.674997 10.7288 0
      vertex 0.562143 2.94686 0
    endloop
  endfacet
  facet normal 0 0 -1
    outer loop
      vertex -0.188371 2.99408 0
      vertex 0.674997 10.7288 0
      vertex 0.188371 2.99408 0
    endloop
  endfacet
  facet normal 0 0 -1
    outer loop
      vertex -0.674997 10.7288 0
      vertex -0.188371 2.99408 0
      vertex -0.562143 2.94686 0
    endloop
  endfacet
  facet normal 0 0 -1
    outer loop
      vertex -0.188371 2.99408 0
      vertex -0.674997 10.7288 0
      vertex 0.674997 10.7288 0
    endloop
  endfacet
  facet normal 0 0 -1
    outer loop
      vertex -2.01435 10.5596 0
      vertex -0.562143 2.94686 0
      vertex -0.927051 2.85317 0
    endloop
  endfacet
  facet normal 0 0 -1
    outer loop
      vertex -3.32193 10.2239 0
      vertex -0.927051 2.85317 0
      vertex -1.27734 2.71448 0
    endloop
  endfacet
  facet normal 0 0 -1
    outer loop
      vertex -4.57713 9.72689 0
      vertex -1.27734 2.71448 0
      vertex -1.60748 2.53298 0
    endloop
  endfacet
  facet normal 0 0 -1
    outer loop
      vertex -5.76014 9.07652 0
      vertex -1.60748 2.53298 0
      vertex -1.91227 2.31154 0
    endloop
  endfacet
  facet normal 0 0 -1
    outer loop
      vertex -0.562143 2.94686 0
      vertex -2.01435 10.5596 0
      vertex -0.674997 10.7288 0
    endloop
  endfacet
  facet normal 0 0 -1
    outer loop
      vertex -6.85231 8.28302 0
      vertex -1.91227 2.31154 0
      vertex -2.18691 2.05364 0
    endloop
  endfacet
  facet normal 0 0 -1
    outer loop
      vertex -7.83641 7.35888 0
      vertex -2.18691 2.05364 0
      vertex -2.42705 1.76336 0
    endloop
  endfacet
  facet normal 0 0 -1
    outer loop
      vertex -8.69693 6.31869 0
      vertex -2.42705 1.76336 0
      vertex -2.62892 1.44526 0
    endloop
  endfacet
  facet normal 0 0 -1
    outer loop
      vertex -9.4203 5.17885 0
      vertex -2.62892 1.44526 0
      vertex -2.78933 1.10437 0
    endloop
  endfacet
  facet normal 0 0 -1
    outer loop
      vertex -9.9951 3.95734 0
      vertex -2.78933 1.10437 0
      vertex -2.90575 0.746069 0
    endloop
  endfacet
  facet normal 0 0 -1
    outer loop
      vertex -10.4123 2.67342 0
      vertex -2.90575 0.746069 0
      vertex -2.97634 0.375999 0
    endloop
  endfacet
  facet normal 0 0 -1
    outer loop
      vertex -0.927051 2.85317 0
      vertex -3.32193 10.2239 0
      vertex -2.01435 10.5596 0
    endloop
  endfacet
  facet normal 0 0 -1
    outer loop
      vertex -10.6652 1.34733 0
      vertex -2.97634 0.375999 0
      vertex -3 0 0
    endloop
  endfacet
  facet normal -0 0 -1
    outer loop
      vertex -2.42705 -1.76336 0
      vertex -8.69693 -6.31869 0
      vertex -2.62892 -1.44526 0
    endloop
  endfacet
  facet normal 0 0 -1
    outer loop
      vertex -9.4203 -5.17885 0
      vertex -2.62892 -1.44526 0
      vertex -8.69693 -6.31869 0
    endloop
  endfacet
  facet normal 0 0 -1
    outer loop
      vertex -1.27734 2.71448 0
      vertex -4.57713 9.72689 0
      vertex -3.32193 10.2239 0
    endloop
  endfacet
  facet normal -0 0 -1
    outer loop
      vertex -2.62892 -1.44526 0
      vertex -9.4203 -5.17885 0
      vertex -2.78933 -1.10437 0
    endloop
  endfacet
  facet normal 0 0 -1
    outer loop
      vertex -1.60748 2.53298 0
      vertex -5.76014 9.07652 0
      vertex -4.57713 9.72689 0
    endloop
  endfacet
  facet normal 0 0 -1
    outer loop
      vertex -9.9951 -3.95734 0
      vertex -2.78933 -1.10437 0
      vertex -9.4203 -5.17885 0
    endloop
  endfacet
  facet normal 0 0 -1
    outer loop
      vertex -1.91227 2.31154 0
      vertex -6.85231 8.28302 0
      vertex -5.76014 9.07652 0
    endloop
  endfacet
  facet normal -0 0 -1
    outer loop
      vertex -2.78933 -1.10437 0
      vertex -9.9951 -3.95734 0
      vertex -2.90575 -0.746069 0
    endloop
  endfacet
  facet normal 0 0 -1
    outer loop
      vertex -2.18691 2.05364 0
      vertex -7.83641 7.35888 0
      vertex -6.85231 8.28302 0
    endloop
  endfacet
  facet normal 0 0 -1
    outer loop
      vertex -10.4123 -2.67342 0
      vertex -2.90575 -0.746069 0
      vertex -9.9951 -3.95734 0
    endloop
  endfacet
  facet normal 0 0 -1
    outer loop
      vertex -2.42705 1.76336 0
      vertex -8.69693 6.31869 0
      vertex -7.83641 7.35888 0
    endloop
  endfacet
  facet normal -0 0 -1
    outer loop
      vertex -2.90575 -0.746069 0
      vertex -10.4123 -2.67342 0
      vertex -2.97634 -0.375999 0
    endloop
  endfacet
  facet normal 0 0 -1
    outer loop
      vertex -2.62892 1.44526 0
      vertex -9.4203 5.17885 0
      vertex -8.69693 6.31869 0
    endloop
  endfacet
  facet normal 0 0 -1
    outer loop
      vertex -10.6652 -1.34733 0
      vertex -2.97634 -0.375999 0
      vertex -10.4123 -2.67342 0
    endloop
  endfacet
  facet normal 0 0 -1
    outer loop
      vertex -2.78933 1.10437 0
      vertex -9.9951 3.95734 0
      vertex -9.4203 5.17885 0
    endloop
  endfacet
  facet normal -0 0 -1
    outer loop
      vertex -2.97634 -0.375999 0
      vertex -10.6652 -1.34733 0
      vertex -3 0 0
    endloop
  endfacet
  facet normal 0 0 -1
    outer loop
      vertex -2.90575 0.746069 0
      vertex -10.4123 2.67342 0
      vertex -9.9951 3.95734 0
    endloop
  endfacet
  facet normal 0 0 -1
    outer loop
      vertex -10.75 0 0
      vertex -3 0 0
      vertex -10.6652 -1.34733 0
    endloop
  endfacet
  facet normal 0 0 -1
    outer loop
      vertex -2.97634 0.375999 0
      vertex -10.6652 1.34733 0
      vertex -10.4123 2.67342 0
    endloop
  endfacet
  facet normal 0 0 -1
    outer loop
      vertex -3 0 0
      vertex -10.75 0 0
      vertex -10.6652 1.34733 0
    endloop
  endfacet
  facet normal -0.982296 -0.187335 0
    outer loop
      vertex -10.4123 -2.67342 0
      vertex -10.6652 -1.34733 12
      vertex -10.6652 -1.34733 0
    endloop
  endfacet
  facet normal -0.982296 -0.187335 0
    outer loop
      vertex -10.6652 -1.34733 12
      vertex -10.4123 -2.67342 0
      vertex -10.4123 -2.67342 12
    endloop
  endfacet
  facet normal 0.587781 -0.80902 0
    outer loop
      vertex 5.76014 -9.07652 0
      vertex 6.85231 -8.28302 12
      vertex 5.76014 -9.07652 12
    endloop
  endfacet
  facet normal 0.587781 -0.80902 0
    outer loop
      vertex 6.85231 -8.28302 12
      vertex 5.76014 -9.07652 0
      vertex 6.85231 -8.28302 0
    endloop
  endfacet
  facet normal -0.248669 -0.968588 0
    outer loop
      vertex -3.32193 -10.2239 0
      vertex -2.01435 -10.5596 12
      vertex -3.32193 -10.2239 12
    endloop
  endfacet
  facet normal -0.248669 -0.968588 -0
    outer loop
      vertex -2.01435 -10.5596 12
      vertex -3.32193 -10.2239 0
      vertex -2.01435 -10.5596 0
    endloop
  endfacet
  facet normal -0.481756 -0.876305 0
    outer loop
      vertex -5.76014 -9.07652 0
      vertex -4.57713 -9.72689 12
      vertex -5.76014 -9.07652 12
    endloop
  endfacet
  facet normal -0.481756 -0.876305 -0
    outer loop
      vertex -4.57713 -9.72689 12
      vertex -5.76014 -9.07652 0
      vertex -4.57713 -9.72689 0
    endloop
  endfacet
endsolid OpenSCAD_Model
