<?xml version="1.0" standalone="no"?>
<!DOCTYPE svg PUBLIC "-//W3C//DTD SVG 1.1//EN" "http://www.w3.org/Graphics/SVG/1.1/DTD/svg11.dtd">
<svg width="210mm" height="118mm" viewBox="-105 -232 210 118" xmlns="http://www.w3.org/2000/svg" version="1.1">
<title>OpenSCAD Model</title>
<path d="
M 100.937,-209.339 L 101.545,-209.495 L 102.129,-209.726 L 102.679,-210.028 L 103.187,-210.397 L 103.645,-210.827
 L 104.045,-211.311 L 104.382,-211.841 L 104.649,-212.409 L 104.843,-213.007 L 104.961,-213.623 L 105,-214.25
 L 105,-226.75 L 104.961,-227.377 L 104.843,-227.993 L 104.649,-228.591 L 104.382,-229.159 L 104.045,-229.689
 L 103.645,-230.173 L 103.187,-230.603 L 102.679,-230.972 L 102.129,-231.274 L 101.545,-231.505 L 100.937,-231.661
 L 100.314,-231.74 L -100.314,-231.74 L -100.937,-231.661 L -101.545,-231.505 L -102.129,-231.274 L -102.679,-230.972
 L -103.187,-230.603 L -103.645,-230.173 L -104.045,-229.689 L -104.382,-229.159 L -104.649,-228.591 L -104.843,-227.993
 L -104.961,-227.377 L -105,-226.75 L -105,-214.25 L -104.961,-213.623 L -104.843,-213.007 L -104.649,-212.409
 L -104.382,-211.841 L -104.045,-211.311 L -103.645,-210.827 L -103.187,-210.397 L -102.679,-210.028 L -102.129,-209.726
 L -101.545,-209.495 L -100.937,-209.339 L -100.314,-209.26 L 100.314,-209.26 z
M -100.048,-209.759 L -100.64,-209.834 L -101.218,-209.982 L -101.772,-210.202 L -102.295,-210.489 L -102.778,-210.84
 L -103.213,-211.248 L -103.593,-211.708 L -103.912,-212.212 L -104.166,-212.751 L -104.351,-213.319 L -104.463,-213.905
 L -104.5,-214.5 L -104.5,-226.5 L -104.463,-227.095 L -104.351,-227.681 L -104.166,-228.249 L -103.912,-228.788
 L -103.593,-229.292 L -103.213,-229.752 L -102.778,-230.16 L -102.295,-230.511 L -101.772,-230.798 L -101.218,-231.018
 L -100.64,-231.166 L -100.048,-231.241 L 100.048,-231.241 L 100.64,-231.166 L 101.218,-231.018 L 101.772,-230.798
 L 102.295,-230.511 L 102.778,-230.16 L 103.213,-229.752 L 103.593,-229.292 L 103.912,-228.788 L 104.166,-228.249
 L 104.351,-227.681 L 104.463,-227.095 L 104.5,-226.5 L 104.5,-214.5 L 104.463,-213.905 L 104.351,-213.319
 L 104.166,-212.751 L 103.912,-212.212 L 103.593,-211.708 L 103.213,-211.248 L 102.778,-210.84 L 102.295,-210.489
 L 101.772,-210.202 L 101.218,-209.982 L 100.64,-209.834 L 100.048,-209.759 z
M 100.937,-177.839 L 101.545,-177.995 L 102.129,-178.226 L 102.679,-178.528 L 103.187,-178.897 L 103.645,-179.327
 L 104.045,-179.811 L 104.382,-180.341 L 104.649,-180.909 L 104.843,-181.507 L 104.961,-182.123 L 105,-182.75
 L 105,-195.25 L 104.961,-195.877 L 104.843,-196.493 L 104.649,-197.091 L 104.382,-197.659 L 104.045,-198.189
 L 103.645,-198.673 L 103.187,-199.103 L 102.679,-199.472 L 102.129,-199.774 L 101.545,-200.005 L 100.937,-200.161
 L 100.314,-200.24 L -100.314,-200.24 L -100.937,-200.161 L -101.545,-200.005 L -102.129,-199.774 L -102.679,-199.472
 L -103.187,-199.103 L -103.645,-198.673 L -104.045,-198.189 L -104.382,-197.659 L -104.649,-197.091 L -104.843,-196.493
 L -104.961,-195.877 L -105,-195.25 L -105,-182.75 L -104.961,-182.123 L -104.843,-181.507 L -104.649,-180.909
 L -104.382,-180.341 L -104.045,-179.811 L -103.645,-179.327 L -103.187,-178.897 L -102.679,-178.528 L -102.129,-178.226
 L -101.545,-177.995 L -100.937,-177.839 L -100.314,-177.76 L 100.314,-177.76 z
M -100.048,-178.259 L -100.64,-178.334 L -101.218,-178.482 L -101.772,-178.702 L -102.295,-178.989 L -102.778,-179.34
 L -103.213,-179.748 L -103.593,-180.208 L -103.912,-180.712 L -104.166,-181.251 L -104.351,-181.819 L -104.463,-182.405
 L -104.5,-183 L -104.5,-195 L -104.463,-195.595 L -104.351,-196.181 L -104.166,-196.749 L -103.912,-197.288
 L -103.593,-197.792 L -103.213,-198.252 L -102.778,-198.66 L -102.295,-199.011 L -101.772,-199.298 L -101.218,-199.518
 L -100.64,-199.666 L -100.048,-199.741 L 100.048,-199.741 L 100.64,-199.666 L 101.218,-199.518 L 101.772,-199.298
 L 102.295,-199.011 L 102.778,-198.66 L 103.213,-198.252 L 103.593,-197.792 L 103.912,-197.288 L 104.166,-196.749
 L 104.351,-196.181 L 104.463,-195.595 L 104.5,-195 L 104.5,-183 L 104.463,-182.405 L 104.351,-181.819
 L 104.166,-181.251 L 103.912,-180.712 L 103.593,-180.208 L 103.213,-179.748 L 102.778,-179.34 L 102.295,-178.989
 L 101.772,-178.702 L 101.218,-178.482 L 100.64,-178.334 L 100.048,-178.259 z
M 100.937,-146.339 L 101.545,-146.495 L 102.129,-146.726 L 102.679,-147.028 L 103.187,-147.397 L 103.645,-147.827
 L 104.045,-148.311 L 104.382,-148.841 L 104.649,-149.409 L 104.843,-150.007 L 104.961,-150.623 L 105,-151.25
 L 105,-163.75 L 104.961,-164.377 L 104.843,-164.993 L 104.649,-165.591 L 104.382,-166.159 L 104.045,-166.689
 L 103.645,-167.173 L 103.187,-167.603 L 102.679,-167.972 L 102.129,-168.274 L 101.545,-168.505 L 100.937,-168.661
 L 100.314,-168.74 L -100.314,-168.74 L -100.937,-168.661 L -101.545,-168.505 L -102.129,-168.274 L -102.679,-167.972
 L -103.187,-167.603 L -103.645,-167.173 L -104.045,-166.689 L -104.382,-166.159 L -104.649,-165.591 L -104.843,-164.993
 L -104.961,-164.377 L -105,-163.75 L -105,-151.25 L -104.961,-150.623 L -104.843,-150.007 L -104.649,-149.409
 L -104.382,-148.841 L -104.045,-148.311 L -103.645,-147.827 L -103.187,-147.397 L -102.679,-147.028 L -102.129,-146.726
 L -101.545,-146.495 L -100.937,-146.339 L -100.314,-146.26 L 100.314,-146.26 z
M -100.037,-146.931 L -100.608,-147.003 L -101.165,-147.146 L -101.699,-147.357 L -102.203,-147.634 L -102.668,-147.972
 L -103.088,-148.366 L -103.454,-148.809 L -103.762,-149.294 L -104.007,-149.815 L -104.185,-150.361 L -104.292,-150.926
 L -104.328,-151.5 L -104.328,-163.5 L -104.292,-164.074 L -104.185,-164.639 L -104.007,-165.185 L -103.762,-165.706
 L -103.454,-166.191 L -103.088,-166.634 L -102.668,-167.028 L -102.203,-167.366 L -101.699,-167.643 L -101.165,-167.854
 L -100.608,-167.997 L -100.037,-168.069 L 100.037,-168.069 L 100.608,-167.997 L 101.165,-167.854 L 101.699,-167.643
 L 102.203,-167.366 L 102.668,-167.028 L 103.088,-166.634 L 103.454,-166.191 L 103.762,-165.706 L 104.007,-165.185
 L 104.185,-164.639 L 104.292,-164.074 L 104.328,-163.5 L 104.328,-151.5 L 104.292,-150.926 L 104.185,-150.361
 L 104.007,-149.815 L 103.762,-149.294 L 103.454,-148.809 L 103.088,-148.366 L 102.668,-147.972 L 102.203,-147.634
 L 101.699,-147.357 L 101.165,-147.146 L 100.608,-147.003 L 100.037,-146.931 z
M 100.937,-114.839 L 101.545,-114.995 L 102.129,-115.226 L 102.679,-115.528 L 103.187,-115.897 L 103.645,-116.327
 L 104.045,-116.811 L 104.382,-117.341 L 104.649,-117.909 L 104.843,-118.507 L 104.961,-119.123 L 105,-119.75
 L 105,-132.25 L 104.961,-132.877 L 104.843,-133.493 L 104.649,-134.091 L 104.382,-134.659 L 104.045,-135.189
 L 103.645,-135.673 L 103.187,-136.103 L 102.679,-136.472 L 102.129,-136.774 L 101.545,-137.005 L 100.937,-137.161
 L 100.314,-137.24 L -100.314,-137.24 L -100.937,-137.161 L -101.545,-137.005 L -102.129,-136.774 L -102.679,-136.472
 L -103.187,-136.103 L -103.645,-135.673 L -104.045,-135.189 L -104.382,-134.659 L -104.649,-134.091 L -104.843,-133.493
 L -104.961,-132.877 L -105,-132.25 L -105,-119.75 L -104.961,-119.123 L -104.843,-118.507 L -104.649,-117.909
 L -104.382,-117.341 L -104.045,-116.811 L -103.645,-116.327 L -103.187,-115.897 L -102.679,-115.528 L -102.129,-115.226
 L -101.545,-114.995 L -100.937,-114.839 L -100.314,-114.76 L 100.314,-114.76 z
M -99.8825,-117.895 L -100.145,-117.928 L -100.402,-117.994 L -100.648,-118.091 L -100.88,-118.219 L -101.095,-118.375
 L -101.288,-118.556 L -101.457,-118.76 L -101.599,-118.984 L -101.711,-119.223 L -101.793,-119.475 L -101.843,-119.736
 L -101.86,-120 L -101.86,-132 L -101.843,-132.264 L -101.793,-132.525 L -101.711,-132.777 L -101.599,-133.016
 L -101.457,-133.24 L -101.288,-133.444 L -101.095,-133.625 L -100.88,-133.781 L -100.648,-133.909 L -100.402,-134.006
 L -100.145,-134.072 L -99.8825,-134.105 L 99.8825,-134.105 L 100.145,-134.072 L 100.402,-134.006 L 100.648,-133.909
 L 100.88,-133.781 L 101.095,-133.625 L 101.288,-133.444 L 101.457,-133.24 L 101.599,-133.016 L 101.711,-132.777
 L 101.793,-132.525 L 101.843,-132.264 L 101.86,-132 L 101.86,-120 L 101.843,-119.736 L 101.793,-119.475
 L 101.711,-119.223 L 101.599,-118.984 L 101.457,-118.76 L 101.288,-118.556 L 101.095,-118.375 L 100.88,-118.219
 L 100.648,-118.091 L 100.402,-117.994 L 100.145,-117.928 L 99.8825,-117.895 z
" stroke="black" fill="lightgray" stroke-width="0.5"/>
</svg>
