<?xml version="1.0" standalone="no"?>
<!DOCTYPE svg PUBLIC "-//W3C//DTD SVG 1.1//EN" "http://www.w3.org/Graphics/SVG/1.1/DTD/svg11.dtd">
<svg width="14mm" height="230mm" viewBox="-7 -333 14 230" xmlns="http://www.w3.org/2000/svg" version="1.1">
<title>OpenSCAD Model</title>
<path d="
M 0.562134,-327.053 L 0.927048,-327.147 L 1.27733,-327.286 L 1.60747,-327.467 L 1.91226,-327.688 L 2.1869,-327.946
 L 2.42705,-328.237 L 2.62891,-328.555 L 2.78932,-328.896 L 2.90575,-329.254 L 2.97633,-329.624 L 3,-330
 L 2.97633,-330.376 L 2.90575,-330.746 L 2.78932,-331.104 L 2.62891,-331.445 L 2.42705,-331.763 L 2.1869,-332.054
 L 1.91226,-332.312 L 1.60747,-332.533 L 1.27733,-332.714 L 0.927048,-332.853 L 0.562134,-332.947 L 0.18837,-332.994
 L -0.18837,-332.994 L -0.562134,-332.947 L -0.927048,-332.853 L -1.27733,-332.714 L -1.60747,-332.533 L -1.91226,-332.312
 L -2.1869,-332.054 L -2.42705,-331.763 L -2.62891,-331.445 L -2.78932,-331.104 L -2.90575,-330.746 L -2.97633,-330.376
 L -3,-330 L -2.97633,-329.624 L -2.90575,-329.254 L -2.78932,-328.896 L -2.62891,-328.555 L -2.42705,-328.237
 L -2.1869,-327.946 L -1.91226,-327.688 L -1.60747,-327.467 L -1.27733,-327.286 L -0.927048,-327.147 L -0.562134,-327.053
 L -0.18837,-327.006 L 0.18837,-327.006 z
M -0.0941772,-328.503 L -0.281067,-328.527 L -0.463516,-328.573 L -0.638657,-328.643 L -0.803726,-328.734 L -0.956131,-328.844
 L -1.09344,-328.973 L -1.21352,-329.118 L -1.31445,-329.277 L -1.39465,-329.448 L -1.45287,-329.627 L -1.48816,-329.812
 L -1.5,-330 L -1.48816,-330.188 L -1.45287,-330.373 L -1.39465,-330.552 L -1.31445,-330.723 L -1.21352,-330.882
 L -1.09344,-331.027 L -0.956131,-331.156 L -0.803726,-331.266 L -0.638657,-331.357 L -0.463516,-331.427 L -0.281067,-331.473
 L -0.0941772,-331.497 L 0.0941772,-331.497 L 0.281067,-331.473 L 0.463516,-331.427 L 0.638657,-331.357 L 0.803726,-331.266
 L 0.956131,-331.156 L 1.09344,-331.027 L 1.21352,-330.882 L 1.31445,-330.723 L 1.39465,-330.552 L 1.45287,-330.373
 L 1.48816,-330.188 L 1.5,-330 L 1.48816,-329.812 L 1.45287,-329.627 L 1.39465,-329.448 L 1.31445,-329.277
 L 1.21352,-329.118 L 1.09344,-328.973 L 0.956131,-328.844 L 0.803726,-328.734 L 0.638657,-328.643 L 0.463516,-328.573
 L 0.281067,-328.527 L 0.0941772,-328.503 z
M 1.31166,-213.124 L 2.16312,-213.343 L 2.98045,-213.666 L 3.75078,-214.09 L 4.46196,-214.606 L 5.10277,-215.208
 L 5.66312,-215.886 L 6.13414,-216.628 L 6.50842,-217.423 L 6.78008,-218.259 L 6.94479,-219.123 L 7,-220
 L 6.94479,-220.877 L 6.78008,-221.741 L 6.50842,-222.577 L 6.13414,-223.372 L 5.66312,-224.114 L 5.10277,-224.792
 L 4.46196,-225.394 L 3.75078,-225.91 L 2.98045,-226.334 L 2.16312,-226.657 L 1.31166,-226.876 L 0.439529,-226.986
 L -0.439529,-226.986 L -1.31166,-226.876 L -2.16312,-226.657 L -2.98045,-226.334 L -3.75078,-225.91 L -4.46196,-225.394
 L -5.10277,-224.792 L -5.66312,-224.114 L -6.13414,-223.372 L -6.50842,-222.577 L -6.78008,-221.741 L -6.94479,-220.877
 L -7,-220 L -6.94479,-219.123 L -6.78008,-218.259 L -6.50842,-217.423 L -6.13414,-216.628 L -5.66312,-215.886
 L -5.10277,-215.208 L -4.46196,-214.606 L -3.75078,-214.09 L -2.98045,-213.666 L -2.16312,-213.343 L -1.31166,-213.124
 L -0.439529,-213.014 L 0.439529,-213.014 z
M -0.0941772,-218.503 L -0.281067,-218.527 L -0.463516,-218.573 L -0.638657,-218.643 L -0.803726,-218.734 L -0.956131,-218.844
 L -1.09344,-218.973 L -1.21352,-219.118 L -1.31445,-219.277 L -1.39465,-219.448 L -1.45287,-219.627 L -1.48816,-219.812
 L -1.5,-220 L -1.48816,-220.188 L -1.45287,-220.373 L -1.39465,-220.552 L -1.31445,-220.723 L -1.21352,-220.882
 L -1.09344,-221.027 L -0.956131,-221.156 L -0.803726,-221.266 L -0.638657,-221.357 L -0.463516,-221.427 L -0.281067,-221.473
 L -0.0941772,-221.497 L 0.0941772,-221.497 L 0.281067,-221.473 L 0.463516,-221.427 L 0.638657,-221.357 L 0.803726,-221.266
 L 0.956131,-221.156 L 1.09344,-221.027 L 1.21352,-220.882 L 1.31445,-220.723 L 1.39465,-220.552 L 1.45287,-220.373
 L 1.48816,-220.188 L 1.5,-220 L 1.48816,-219.812 L 1.45287,-219.627 L 1.39465,-219.448 L 1.31445,-219.277
 L 1.21352,-219.118 L 1.09344,-218.973 L 0.956131,-218.844 L 0.803726,-218.734 L 0.638657,-218.643 L 0.463516,-218.573
 L 0.281067,-218.527 L 0.0941772,-218.503 z
M 1.31166,-103.124 L 2.16312,-103.343 L 2.98045,-103.666 L 3.75078,-104.09 L 4.46196,-104.606 L 5.10277,-105.208
 L 5.66312,-105.886 L 6.13414,-106.628 L 6.50842,-107.423 L 6.78008,-108.259 L 6.94479,-109.123 L 7,-110
 L 6.94479,-110.877 L 6.78008,-111.741 L 6.50842,-112.577 L 6.13414,-113.372 L 5.66312,-114.114 L 5.10277,-114.792
 L 4.46196,-115.394 L 3.75078,-115.91 L 2.98045,-116.334 L 2.16312,-116.657 L 1.31166,-116.876 L 0.439529,-116.986
 L -0.439529,-116.986 L -1.31166,-116.876 L -2.16312,-116.657 L -2.98045,-116.334 L -3.75078,-115.91 L -4.46196,-115.394
 L -5.10277,-114.792 L -5.66312,-114.114 L -6.13414,-113.372 L -6.50842,-112.577 L -6.78008,-111.741 L -6.94479,-110.877
 L -7,-110 L -6.94479,-109.123 L -6.78008,-108.259 L -6.50842,-107.423 L -6.13414,-106.628 L -5.66312,-105.886
 L -5.10277,-105.208 L -4.46196,-104.606 L -3.75078,-104.09 L -2.98045,-103.666 L -2.16312,-103.343 L -1.31166,-103.124
 L -0.439529,-103.014 L 0.439529,-103.014 z
M -1.58675,-107.252 L -3.17349,-110 L -1.58675,-112.748 L 1.58675,-112.748 L 3.17349,-110 L 1.58675,-107.252
 z
" stroke="black" fill="lightgray" stroke-width="0.5"/>
</svg>
