<?xml version="1.0" standalone="no"?>
<!DOCTYPE svg PUBLIC "-//W3C//DTD SVG 1.1//EN" "http://www.w3.org/Graphics/SVG/1.1/DTD/svg11.dtd">
<svg width="166mm" height="1312mm" viewBox="-83 -2240 166 1312" xmlns="http://www.w3.org/2000/svg" version="1.1">
<title>OpenSCAD Model</title>
<path d="
M 78.4369,-1984.59 L 79.0451,-1984.74 L 79.6289,-1984.98 L 80.1791,-1985.28 L 80.6871,-1985.65 L 81.1448,-1986.08
 L 81.5451,-1986.56 L 81.8815,-1987.09 L 82.1489,-1987.66 L 82.3429,-1988.26 L 82.4606,-1988.87 L 82.5,-1989.5
 L 82.5,-2234.5 L 82.4606,-2235.13 L 82.3429,-2235.74 L 82.1489,-2236.34 L 81.8815,-2236.91 L 81.5451,-2237.44
 L 81.1448,-2237.92 L 80.6871,-2238.35 L 80.1791,-2238.72 L 79.6289,-2239.02 L 79.0451,-2239.26 L 78.4369,-2239.41
 L 77.8139,-2239.49 L -77.8139,-2239.49 L -78.4369,-2239.41 L -79.0451,-2239.26 L -79.6289,-2239.02 L -80.1791,-2238.72
 L -80.6871,-2238.35 L -81.1448,-2237.92 L -81.5451,-2237.44 L -81.8815,-2236.91 L -82.1489,-2236.34 L -82.3429,-2235.74
 L -82.4606,-2235.13 L -82.5,-2234.5 L -82.5,-1989.5 L -82.4606,-1988.87 L -82.3429,-1988.26 L -82.1489,-1987.66
 L -81.8815,-1987.09 L -81.5451,-1986.56 L -81.1448,-1986.08 L -80.6871,-1985.65 L -80.1791,-1985.28 L -79.6289,-1984.98
 L -79.0451,-1984.74 L -78.4369,-1984.59 L -77.8139,-1984.51 L 77.8139,-1984.51 z
M -77.2512,-1986.01 L -77.7495,-1986.07 L -78.2361,-1986.2 L -78.7031,-1986.38 L -79.1433,-1986.62 L -79.5497,-1986.92
 L -79.9159,-1987.26 L -80.2361,-1987.65 L -80.5052,-1988.07 L -80.7191,-1988.53 L -80.8743,-1989.01 L -80.9685,-1989.5
 L -81,-1990 L -81,-2234 L -80.9685,-2234.5 L -80.8743,-2234.99 L -80.7191,-2235.47 L -80.5052,-2235.93
 L -80.2361,-2236.35 L -79.9159,-2236.74 L -79.5497,-2237.08 L -79.1433,-2237.38 L -78.7031,-2237.62 L -78.2361,-2237.8
 L -77.7495,-2237.93 L -77.2512,-2237.99 L 77.2512,-2237.99 L 77.7495,-2237.93 L 78.2361,-2237.8 L 78.7031,-2237.62
 L 79.1433,-2237.38 L 79.5497,-2237.08 L 79.9159,-2236.74 L 80.2361,-2236.35 L 80.5052,-2235.93 L 80.7191,-2235.47
 L 80.8743,-2234.99 L 80.9685,-2234.5 L 81,-2234 L 81,-1990 L 80.9685,-1989.5 L 80.8743,-1989.01
 L 80.7191,-1988.53 L 80.5052,-1988.07 L 80.2361,-1987.65 L 79.9159,-1987.26 L 79.5497,-1986.92 L 79.1433,-1986.62
 L 78.7031,-1986.38 L 78.2361,-1986.2 L 77.7495,-1986.07 L 77.2512,-1986.01 z
M 78.4369,-1720.59 L 79.0451,-1720.74 L 79.6289,-1720.98 L 80.1791,-1721.28 L 80.6871,-1721.65 L 81.1448,-1722.08
 L 81.5451,-1722.56 L 81.8815,-1723.09 L 82.1489,-1723.66 L 82.3429,-1724.26 L 82.4606,-1724.87 L 82.5,-1725.5
 L 82.5,-1970.5 L 82.4606,-1971.13 L 82.3429,-1971.74 L 82.1489,-1972.34 L 81.8815,-1972.91 L 81.5451,-1973.44
 L 81.1448,-1973.92 L 80.6871,-1974.35 L 80.1791,-1974.72 L 79.6289,-1975.02 L 79.0451,-1975.26 L 78.4369,-1975.41
 L 77.8139,-1975.49 L -77.8139,-1975.49 L -78.4369,-1975.41 L -79.0451,-1975.26 L -79.6289,-1975.02 L -80.1791,-1974.72
 L -80.6871,-1974.35 L -81.1448,-1973.92 L -81.5451,-1973.44 L -81.8815,-1972.91 L -82.1489,-1972.34 L -82.3429,-1971.74
 L -82.4606,-1971.13 L -82.5,-1970.5 L -82.5,-1725.5 L -82.4606,-1724.87 L -82.3429,-1724.26 L -82.1489,-1723.66
 L -81.8815,-1723.09 L -81.5451,-1722.56 L -81.1448,-1722.08 L -80.6871,-1721.65 L -80.1791,-1721.28 L -79.6289,-1720.98
 L -79.0451,-1720.74 L -78.4369,-1720.59 L -77.8139,-1720.51 L 77.8139,-1720.51 z
M -77.2512,-1722.01 L -77.7495,-1722.07 L -78.2361,-1722.2 L -78.7031,-1722.38 L -79.1433,-1722.62 L -79.5497,-1722.92
 L -79.9159,-1723.26 L -80.2361,-1723.65 L -80.5052,-1724.07 L -80.7191,-1724.53 L -80.8743,-1725.01 L -80.9685,-1725.5
 L -81,-1726 L -81,-1970 L -80.9685,-1970.5 L -80.8743,-1970.99 L -80.7191,-1971.47 L -80.5052,-1971.93
 L -80.2361,-1972.35 L -79.9159,-1972.74 L -79.5497,-1973.08 L -79.1433,-1973.38 L -78.7031,-1973.62 L -78.2361,-1973.8
 L -77.7495,-1973.93 L -77.2512,-1973.99 L 77.2512,-1973.99 L 77.7495,-1973.93 L 78.2361,-1973.8 L 78.7031,-1973.62
 L 79.1433,-1973.38 L 79.5497,-1973.08 L 79.9159,-1972.74 L 80.2361,-1972.35 L 80.5052,-1971.93 L 80.7191,-1971.47
 L 80.8743,-1970.99 L 80.9685,-1970.5 L 81,-1970 L 81,-1726 L 80.9685,-1725.5 L 80.8743,-1725.01
 L 80.7191,-1724.53 L 80.5052,-1724.07 L 80.2361,-1723.65 L 79.9159,-1723.26 L 79.5497,-1722.92 L 79.1433,-1722.62
 L 78.7031,-1722.38 L 78.2361,-1722.2 L 77.7495,-1722.07 L 77.2512,-1722.01 z
M 78.4369,-1456.59 L 79.0451,-1456.74 L 79.6289,-1456.98 L 80.1791,-1457.28 L 80.6871,-1457.65 L 81.1448,-1458.08
 L 81.5451,-1458.56 L 81.8815,-1459.09 L 82.1489,-1459.66 L 82.3429,-1460.26 L 82.4606,-1460.87 L 82.5,-1461.5
 L 82.5,-1706.5 L 82.4606,-1707.13 L 82.3429,-1707.74 L 82.1489,-1708.34 L 81.8815,-1708.91 L 81.5451,-1709.44
 L 81.1448,-1709.92 L 80.6871,-1710.35 L 80.1791,-1710.72 L 79.6289,-1711.02 L 79.0451,-1711.26 L 78.4369,-1711.41
 L 77.8139,-1711.49 L -77.8139,-1711.49 L -78.4369,-1711.41 L -79.0451,-1711.26 L -79.6289,-1711.02 L -80.1791,-1710.72
 L -80.6871,-1710.35 L -81.1448,-1709.92 L -81.5451,-1709.44 L -81.8815,-1708.91 L -82.1489,-1708.34 L -82.3429,-1707.74
 L -82.4606,-1707.13 L -82.5,-1706.5 L -82.5,-1461.5 L -82.4606,-1460.87 L -82.3429,-1460.26 L -82.1489,-1459.66
 L -81.8815,-1459.09 L -81.5451,-1458.56 L -81.1448,-1458.08 L -80.6871,-1457.65 L -80.1791,-1457.28 L -79.6289,-1456.98
 L -79.0451,-1456.74 L -78.4369,-1456.59 L -77.8139,-1456.51 L 77.8139,-1456.51 z
M -77.2432,-1458.14 L -77.7256,-1458.2 L -78.1967,-1458.32 L -78.6489,-1458.5 L -79.0751,-1458.73 L -79.4685,-1459.02
 L -79.823,-1459.35 L -80.133,-1459.72 L -80.3936,-1460.13 L -80.6007,-1460.57 L -80.751,-1461.04 L -80.8421,-1461.51
 L -80.8726,-1462 L -80.8726,-1706 L -80.8421,-1706.49 L -80.751,-1706.96 L -80.6007,-1707.43 L -80.3936,-1707.87
 L -80.133,-1708.28 L -79.823,-1708.65 L -79.4685,-1708.98 L -79.0751,-1709.27 L -78.6489,-1709.5 L -78.1967,-1709.68
 L -77.7256,-1709.8 L -77.2432,-1709.86 L 77.2432,-1709.86 L 77.7256,-1709.8 L 78.1967,-1709.68 L 78.6489,-1709.5
 L 79.0751,-1709.27 L 79.4685,-1708.98 L 79.823,-1708.65 L 80.133,-1708.28 L 80.3936,-1707.87 L 80.6007,-1707.43
 L 80.751,-1706.96 L 80.8421,-1706.49 L 80.8726,-1706 L 80.8726,-1462 L 80.8421,-1461.51 L 80.751,-1461.04
 L 80.6007,-1460.57 L 80.3936,-1460.13 L 80.133,-1459.72 L 79.823,-1459.35 L 79.4685,-1459.02 L 79.0751,-1458.73
 L 78.6489,-1458.5 L 78.1967,-1458.32 L 77.7256,-1458.2 L 77.2432,-1458.14 z
M 78.4369,-1192.59 L 79.0451,-1192.74 L 79.6289,-1192.98 L 80.1791,-1193.28 L 80.6871,-1193.65 L 81.1448,-1194.08
 L 81.5451,-1194.56 L 81.8815,-1195.09 L 82.1489,-1195.66 L 82.3429,-1196.26 L 82.4606,-1196.87 L 82.5,-1197.5
 L 82.5,-1442.5 L 82.4606,-1443.13 L 82.3429,-1443.74 L 82.1489,-1444.34 L 81.8815,-1444.91 L 81.5451,-1445.44
 L 81.1448,-1445.92 L 80.6871,-1446.35 L 80.1791,-1446.72 L 79.6289,-1447.02 L 79.0451,-1447.26 L 78.4369,-1447.41
 L 77.8139,-1447.49 L -77.8139,-1447.49 L -78.4369,-1447.41 L -79.0451,-1447.26 L -79.6289,-1447.02 L -80.1791,-1446.72
 L -80.6871,-1446.35 L -81.1448,-1445.92 L -81.5451,-1445.44 L -81.8815,-1444.91 L -82.1489,-1444.34 L -82.3429,-1443.74
 L -82.4606,-1443.13 L -82.5,-1442.5 L -82.5,-1197.5 L -82.4606,-1196.87 L -82.3429,-1196.26 L -82.1489,-1195.66
 L -81.8815,-1195.09 L -81.5451,-1194.56 L -81.1448,-1194.08 L -80.6871,-1193.65 L -80.1791,-1193.28 L -79.6289,-1192.98
 L -79.0451,-1192.74 L -78.4369,-1192.59 L -77.8139,-1192.51 L 77.8139,-1192.51 z
M 74.8493,-1437.6 L 74.5503,-1437.64 L 74.2584,-1437.72 L 73.9781,-1437.83 L 73.714,-1437.97 L 73.4702,-1438.15
 L 73.2505,-1438.36 L 73.0583,-1438.59 L 72.8969,-1438.84 L 72.7685,-1439.12 L 72.6754,-1439.4 L 72.6189,-1439.7
 L 72.6,-1440 L 72.6189,-1440.3 L 72.6754,-1440.6 L 72.7685,-1440.88 L 72.8969,-1441.16 L 73.0583,-1441.41
 L 73.2505,-1441.64 L 73.4702,-1441.85 L 73.714,-1442.03 L 73.9781,-1442.17 L 74.2584,-1442.28 L 74.5503,-1442.36
 L 74.8493,-1442.4 L 75.1507,-1442.4 L 75.4497,-1442.36 L 75.7416,-1442.28 L 76.0219,-1442.17 L 76.286,-1442.03
 L 76.5298,-1441.85 L 76.7495,-1441.64 L 76.9416,-1441.41 L 77.1031,-1441.16 L 77.2315,-1440.88 L 77.3246,-1440.6
 L 77.3811,-1440.3 L 77.4,-1440 L 77.3811,-1439.7 L 77.3246,-1439.4 L 77.2315,-1439.12 L 77.1031,-1438.84
 L 76.9416,-1438.59 L 76.7495,-1438.36 L 76.5298,-1438.15 L 76.286,-1437.97 L 76.0219,-1437.83 L 75.7416,-1437.72
 L 75.4497,-1437.64 L 75.1507,-1437.6 z
M -75.1507,-1437.6 L -75.4497,-1437.64 L -75.7416,-1437.72 L -76.0219,-1437.83 L -76.286,-1437.97 L -76.5298,-1438.15
 L -76.7495,-1438.36 L -76.9416,-1438.59 L -77.1031,-1438.84 L -77.2315,-1439.12 L -77.3246,-1439.4 L -77.3811,-1439.7
 L -77.4,-1440 L -77.3811,-1440.3 L -77.3246,-1440.6 L -77.2315,-1440.88 L -77.1031,-1441.16 L -76.9416,-1441.41
 L -76.7495,-1441.64 L -76.5298,-1441.85 L -76.286,-1442.03 L -76.0219,-1442.17 L -75.7416,-1442.28 L -75.4497,-1442.36
 L -75.1507,-1442.4 L -74.8493,-1442.4 L -74.5503,-1442.36 L -74.2584,-1442.28 L -73.9781,-1442.17 L -73.714,-1442.03
 L -73.4702,-1441.85 L -73.2505,-1441.64 L -73.0583,-1441.41 L -72.8969,-1441.16 L -72.7685,-1440.88 L -72.6754,-1440.6
 L -72.6189,-1440.3 L -72.6,-1440 L -72.6189,-1439.7 L -72.6754,-1439.4 L -72.7685,-1439.12 L -72.8969,-1438.84
 L -73.0583,-1438.59 L -73.2505,-1438.36 L -73.4702,-1438.15 L -73.714,-1437.97 L -73.9781,-1437.83 L -74.2584,-1437.72
 L -74.5503,-1437.64 L -74.8493,-1437.6 z
M 74.8493,-1197.6 L 74.5503,-1197.64 L 74.2584,-1197.72 L 73.9781,-1197.83 L 73.714,-1197.97 L 73.4702,-1198.15
 L 73.2505,-1198.36 L 73.0583,-1198.59 L 72.8969,-1198.84 L 72.7685,-1199.12 L 72.6754,-1199.4 L 72.6189,-1199.7
 L 72.6,-1200 L 72.6189,-1200.3 L 72.6754,-1200.6 L 72.7685,-1200.88 L 72.8969,-1201.16 L 73.0583,-1201.41
 L 73.2505,-1201.64 L 73.4702,-1201.85 L 73.714,-1202.03 L 73.9781,-1202.17 L 74.2584,-1202.28 L 74.5503,-1202.36
 L 74.8493,-1202.4 L 75.1507,-1202.4 L 75.4497,-1202.36 L 75.7416,-1202.28 L 76.0219,-1202.17 L 76.286,-1202.03
 L 76.5298,-1201.85 L 76.7495,-1201.64 L 76.9416,-1201.41 L 77.1031,-1201.16 L 77.2315,-1200.88 L 77.3246,-1200.6
 L 77.3811,-1200.3 L 77.4,-1200 L 77.3811,-1199.7 L 77.3246,-1199.4 L 77.2315,-1199.12 L 77.1031,-1198.84
 L 76.9416,-1198.59 L 76.7495,-1198.36 L 76.5298,-1198.15 L 76.286,-1197.97 L 76.0219,-1197.83 L 75.7416,-1197.72
 L 75.4497,-1197.64 L 75.1507,-1197.6 z
M -75.1507,-1197.6 L -75.4497,-1197.64 L -75.7416,-1197.72 L -76.0219,-1197.83 L -76.286,-1197.97 L -76.5298,-1198.15
 L -76.7495,-1198.36 L -76.9416,-1198.59 L -77.1031,-1198.84 L -77.2315,-1199.12 L -77.3246,-1199.4 L -77.3811,-1199.7
 L -77.4,-1200 L -77.3811,-1200.3 L -77.3246,-1200.6 L -77.2315,-1200.88 L -77.1031,-1201.16 L -76.9416,-1201.41
 L -76.7495,-1201.64 L -76.5298,-1201.85 L -76.286,-1202.03 L -76.0219,-1202.17 L -75.7416,-1202.28 L -75.4497,-1202.36
 L -75.1507,-1202.4 L -74.8493,-1202.4 L -74.5503,-1202.36 L -74.2584,-1202.28 L -73.9781,-1202.17 L -73.714,-1202.03
 L -73.4702,-1201.85 L -73.2505,-1201.64 L -73.0583,-1201.41 L -72.8969,-1201.16 L -72.7685,-1200.88 L -72.6754,-1200.6
 L -72.6189,-1200.3 L -72.6,-1200 L -72.6189,-1199.7 L -72.6754,-1199.4 L -72.7685,-1199.12 L -72.8969,-1198.84
 L -73.0583,-1198.59 L -73.2505,-1198.36 L -73.4702,-1198.15 L -73.714,-1197.97 L -73.9781,-1197.83 L -74.2584,-1197.72
 L -74.5503,-1197.64 L -74.8493,-1197.6 z
M 78.4369,-928.589 L 79.0451,-928.745 L 79.6289,-928.976 L 80.1791,-929.278 L 80.6871,-929.647 L 81.1448,-930.077
 L 81.5451,-930.561 L 81.8815,-931.091 L 82.1489,-931.659 L 82.3429,-932.257 L 82.4606,-932.873 L 82.5,-933.5
 L 82.5,-1178.5 L 82.4606,-1179.13 L 82.3429,-1179.74 L 82.1489,-1180.34 L 81.8815,-1180.91 L 81.5451,-1181.44
 L 81.1448,-1181.92 L 80.6871,-1182.35 L 80.1791,-1182.72 L 79.6289,-1183.02 L 79.0451,-1183.26 L 78.4369,-1183.41
 L 77.8139,-1183.49 L -77.8139,-1183.49 L -78.4369,-1183.41 L -79.0451,-1183.26 L -79.6289,-1183.02 L -80.1791,-1182.72
 L -80.6871,-1182.35 L -81.1448,-1181.92 L -81.5451,-1181.44 L -81.8815,-1180.91 L -82.1489,-1180.34 L -82.3429,-1179.74
 L -82.4606,-1179.13 L -82.5,-1178.5 L -82.5,-933.5 L -82.4606,-932.873 L -82.3429,-932.257 L -82.1489,-931.659
 L -81.8815,-931.091 L -81.5451,-930.561 L -81.1448,-930.077 L -80.6871,-929.647 L -80.1791,-929.278 L -79.6289,-928.976
 L -79.0451,-928.745 L -78.4369,-928.589 L -77.8139,-928.51 L 77.8139,-928.51 z
M 74.887,-1174.2 L 74.6627,-1174.23 L 74.4438,-1174.29 L 74.2336,-1174.37 L 74.0355,-1174.48 L 73.8526,-1174.61
 L 73.6879,-1174.77 L 73.5438,-1174.94 L 73.4226,-1175.13 L 73.3264,-1175.34 L 73.2565,-1175.55 L 73.2142,-1175.77
 L 73.2,-1176 L 73.2142,-1176.23 L 73.2565,-1176.45 L 73.3264,-1176.66 L 73.4226,-1176.87 L 73.5438,-1177.06
 L 73.6879,-1177.23 L 73.8526,-1177.39 L 74.0355,-1177.52 L 74.2336,-1177.63 L 74.4438,-1177.71 L 74.6627,-1177.77
 L 74.887,-1177.8 L 75.113,-1177.8 L 75.3373,-1177.77 L 75.5562,-1177.71 L 75.7664,-1177.63 L 75.9645,-1177.52
 L 76.1474,-1177.39 L 76.3121,-1177.23 L 76.4562,-1177.06 L 76.5773,-1176.87 L 76.6736,-1176.66 L 76.7434,-1176.45
 L 76.7858,-1176.23 L 76.8,-1176 L 76.7858,-1175.77 L 76.7434,-1175.55 L 76.6736,-1175.34 L 76.5773,-1175.13
 L 76.4562,-1174.94 L 76.3121,-1174.77 L 76.1474,-1174.61 L 75.9645,-1174.48 L 75.7664,-1174.37 L 75.5562,-1174.29
 L 75.3373,-1174.23 L 75.113,-1174.2 z
M -75.113,-1174.2 L -75.3373,-1174.23 L -75.5562,-1174.29 L -75.7664,-1174.37 L -75.9645,-1174.48 L -76.1474,-1174.61
 L -76.3121,-1174.77 L -76.4562,-1174.94 L -76.5773,-1175.13 L -76.6736,-1175.34 L -76.7434,-1175.55 L -76.7858,-1175.77
 L -76.8,-1176 L -76.7858,-1176.23 L -76.7434,-1176.45 L -76.6736,-1176.66 L -76.5773,-1176.87 L -76.4562,-1177.06
 L -76.3121,-1177.23 L -76.1474,-1177.39 L -75.9645,-1177.52 L -75.7664,-1177.63 L -75.5562,-1177.71 L -75.3373,-1177.77
 L -75.113,-1177.8 L -74.887,-1177.8 L -74.6627,-1177.77 L -74.4438,-1177.71 L -74.2336,-1177.63 L -74.0355,-1177.52
 L -73.8526,-1177.39 L -73.6879,-1177.23 L -73.5438,-1177.06 L -73.4226,-1176.87 L -73.3264,-1176.66 L -73.2565,-1176.45
 L -73.2142,-1176.23 L -73.2,-1176 L -73.2142,-1175.77 L -73.2565,-1175.55 L -73.3264,-1175.34 L -73.4226,-1175.13
 L -73.5438,-1174.94 L -73.6879,-1174.77 L -73.8526,-1174.61 L -74.0355,-1174.48 L -74.2336,-1174.37 L -74.4438,-1174.29
 L -74.6627,-1174.23 L -74.887,-1174.2 z
M -75.113,-934.204 L -75.3373,-934.232 L -75.5562,-934.288 L -75.7664,-934.371 L -75.9645,-934.48 L -76.1474,-934.613
 L -76.3121,-934.768 L -76.4562,-934.942 L -76.5773,-935.133 L -76.6736,-935.337 L -76.7434,-935.552 L -76.7858,-935.774
 L -76.8,-936 L -76.7858,-936.226 L -76.7434,-936.448 L -76.6736,-936.663 L -76.5773,-936.867 L -76.4562,-937.058
 L -76.3121,-937.232 L -76.1474,-937.387 L -75.9645,-937.52 L -75.7664,-937.629 L -75.5562,-937.712 L -75.3373,-937.768
 L -75.113,-937.796 L -74.887,-937.796 L -74.6627,-937.768 L -74.4438,-937.712 L -74.2336,-937.629 L -74.0355,-937.52
 L -73.8526,-937.387 L -73.6879,-937.232 L -73.5438,-937.058 L -73.4226,-936.867 L -73.3264,-936.663 L -73.2565,-936.448
 L -73.2142,-936.226 L -73.2,-936 L -73.2142,-935.774 L -73.2565,-935.552 L -73.3264,-935.337 L -73.4226,-935.133
 L -73.5438,-934.942 L -73.6879,-934.768 L -73.8526,-934.613 L -74.0355,-934.48 L -74.2336,-934.371 L -74.4438,-934.288
 L -74.6627,-934.232 L -74.887,-934.204 z
M 74.887,-934.204 L 74.6627,-934.232 L 74.4438,-934.288 L 74.2336,-934.371 L 74.0355,-934.48 L 73.8526,-934.613
 L 73.6879,-934.768 L 73.5438,-934.942 L 73.4226,-935.133 L 73.3264,-935.337 L 73.2565,-935.552 L 73.2142,-935.774
 L 73.2,-936 L 73.2142,-936.226 L 73.2565,-936.448 L 73.3264,-936.663 L 73.4226,-936.867 L 73.5438,-937.058
 L 73.6879,-937.232 L 73.8526,-937.387 L 74.0355,-937.52 L 74.2336,-937.629 L 74.4438,-937.712 L 74.6627,-937.768
 L 74.887,-937.796 L 75.113,-937.796 L 75.3373,-937.768 L 75.5562,-937.712 L 75.7664,-937.629 L 75.9645,-937.52
 L 76.1474,-937.387 L 76.3121,-937.232 L 76.4562,-937.058 L 76.5773,-936.867 L 76.6736,-936.663 L 76.7434,-936.448
 L 76.7858,-936.226 L 76.8,-936 L 76.7858,-935.774 L 76.7434,-935.552 L 76.6736,-935.337 L 76.5773,-935.133
 L 76.4562,-934.942 L 76.3121,-934.768 L 76.1474,-934.613 L 75.9645,-934.48 L 75.7664,-934.371 L 75.5562,-934.288
 L 75.3373,-934.232 L 75.113,-934.204 z
" stroke="black" fill="lightgray" stroke-width="0.5"/>
</svg>
