solid OpenSCAD_Model
  facet normal -0.866025 0.5 -1.9709e-18
    outer loop
      vertex -5.76999 0 0
      vertex -2.88499 4.99696 18
      vertex -2.88499 4.99696 0
    endloop
  endfacet
  facet normal -0.866025 0.5 -1.9709e-18
    outer loop
      vertex -2.88499 4.99696 18
      vertex -5.76999 0 0
      vertex -5.76999 0 18
    endloop
  endfacet
  facet normal 0 1 -0
    outer loop
      vertex 2.88499 4.99696 0
      vertex -2.88499 4.99696 18
      vertex 2.88499 4.99696 18
    endloop
  endfacet
  facet normal 0 1 0
    outer loop
      vertex -2.88499 4.99696 18
      vertex 2.88499 4.99696 0
      vertex -2.88499 4.99696 0
    endloop
  endfacet
  facet normal -0 0 -1
    outer loop
      vertex 5.76999 0 0
      vertex 2.97634 -0.375999 0
      vertex 3 0 0
    endloop
  endfacet
  facet normal 0 0 -1
    outer loop
      vertex 5.76999 0 0
      vertex 2.90575 -0.746069 0
      vertex 2.97634 -0.375999 0
    endloop
  endfacet
  facet normal 0 0 -1
    outer loop
      vertex 2.62892 -1.44526 0
      vertex 5.76999 0 0
      vertex 2.88499 -4.99696 0
    endloop
  endfacet
  facet normal 0 0 -1
    outer loop
      vertex 5.76999 0 0
      vertex 2.78933 -1.10437 0
      vertex 2.90575 -0.746069 0
    endloop
  endfacet
  facet normal 0 0 -1
    outer loop
      vertex 5.76999 0 0
      vertex 2.62892 -1.44526 0
      vertex 2.78933 -1.10437 0
    endloop
  endfacet
  facet normal 0 0 -1
    outer loop
      vertex 2.88499 -4.99696 0
      vertex 2.42705 -1.76336 0
      vertex 2.62892 -1.44526 0
    endloop
  endfacet
  facet normal 0 0 -1
    outer loop
      vertex 2.88499 -4.99696 0
      vertex 2.18691 -2.05364 0
      vertex 2.42705 -1.76336 0
    endloop
  endfacet
  facet normal 0 0 -1
    outer loop
      vertex 2.88499 -4.99696 0
      vertex 1.91227 -2.31154 0
      vertex 2.18691 -2.05364 0
    endloop
  endfacet
  facet normal 0 0 -1
    outer loop
      vertex 2.88499 -4.99696 0
      vertex 1.60748 -2.53298 0
      vertex 1.91227 -2.31154 0
    endloop
  endfacet
  facet normal 0 0 -1
    outer loop
      vertex 2.88499 -4.99696 0
      vertex 1.27734 -2.71448 0
      vertex 1.60748 -2.53298 0
    endloop
  endfacet
  facet normal 0 0 -1
    outer loop
      vertex 2.88499 -4.99696 0
      vertex 0.927051 -2.85317 0
      vertex 1.27734 -2.71448 0
    endloop
  endfacet
  facet normal 0 0 -1
    outer loop
      vertex 2.88499 -4.99696 0
      vertex 0.562143 -2.94686 0
      vertex 0.927051 -2.85317 0
    endloop
  endfacet
  facet normal 0 0 -1
    outer loop
      vertex 2.88499 -4.99696 0
      vertex 0.188371 -2.99408 0
      vertex 0.562143 -2.94686 0
    endloop
  endfacet
  facet normal 0 0 -1
    outer loop
      vertex 2.88499 -4.99696 0
      vertex -0.188371 -2.99408 0
      vertex 0.188371 -2.99408 0
    endloop
  endfacet
  facet normal 0 0 -1
    outer loop
      vertex -2.88499 -4.99696 0
      vertex -0.188371 -2.99408 0
      vertex 2.88499 -4.99696 0
    endloop
  endfacet
  facet normal -0 0 -1
    outer loop
      vertex -0.188371 -2.99408 0
      vertex -2.88499 -4.99696 0
      vertex -0.562143 -2.94686 0
    endloop
  endfacet
  facet normal -0 0 -1
    outer loop
      vertex -0.562143 -2.94686 0
      vertex -2.88499 -4.99696 0
      vertex -0.927051 -2.85317 0
    endloop
  endfacet
  facet normal -0 0 -1
    outer loop
      vertex -0.927051 -2.85317 0
      vertex -2.88499 -4.99696 0
      vertex -1.27734 -2.71448 0
    endloop
  endfacet
  facet normal 0 0 -1
    outer loop
      vertex -2.88499 -4.99696 0
      vertex -1.60748 -2.53298 0
      vertex -1.27734 -2.71448 0
    endloop
  endfacet
  facet normal 0 0 -1
    outer loop
      vertex -2.88499 -4.99696 0
      vertex -1.91227 -2.31154 0
      vertex -1.60748 -2.53298 0
    endloop
  endfacet
  facet normal 0 0 -1
    outer loop
      vertex -2.88499 -4.99696 0
      vertex -2.18691 -2.05364 0
      vertex -1.91227 -2.31154 0
    endloop
  endfacet
  facet normal 0 0 -1
    outer loop
      vertex -2.88499 -4.99696 0
      vertex -2.42705 -1.76336 0
      vertex -2.18691 -2.05364 0
    endloop
  endfacet
  facet normal 0 0 -1
    outer loop
      vertex -2.88499 -4.99696 0
      vertex -2.62892 -1.44526 0
      vertex -2.42705 -1.76336 0
    endloop
  endfacet
  facet normal 0 0 -1
    outer loop
      vertex -5.76999 0 0
      vertex -2.62892 -1.44526 0
      vertex -2.88499 -4.99696 0
    endloop
  endfacet
  facet normal 0 0 -1
    outer loop
      vertex -2.62892 -1.44526 0
      vertex -5.76999 0 0
      vertex -2.78933 -1.10437 0
    endloop
  endfacet
  facet normal 0 0 -1
    outer loop
      vertex -2.78933 -1.10437 0
      vertex -5.76999 0 0
      vertex -2.90575 -0.746069 0
    endloop
  endfacet
  facet normal 0 0 -1
    outer loop
      vertex -2.90575 -0.746069 0
      vertex -5.76999 0 0
      vertex -2.97634 -0.375999 0
    endloop
  endfacet
  facet normal 0 0 -1
    outer loop
      vertex -2.97634 -0.375999 0
      vertex -5.76999 0 0
      vertex -3 0 0
    endloop
  endfacet
  facet normal 0 0 -1
    outer loop
      vertex 2.97634 0.375999 0
      vertex 5.76999 0 0
      vertex 3 0 0
    endloop
  endfacet
  facet normal 0 0 -1
    outer loop
      vertex 2.90575 0.746069 0
      vertex 5.76999 0 0
      vertex 2.97634 0.375999 0
    endloop
  endfacet
  facet normal 0 0 -1
    outer loop
      vertex 2.78933 1.10437 0
      vertex 5.76999 0 0
      vertex 2.90575 0.746069 0
    endloop
  endfacet
  facet normal 0 0 -1
    outer loop
      vertex 2.62892 1.44526 0
      vertex 5.76999 0 0
      vertex 2.78933 1.10437 0
    endloop
  endfacet
  facet normal 0 0 -1
    outer loop
      vertex 5.76999 0 0
      vertex 2.62892 1.44526 0
      vertex 2.88499 4.99696 0
    endloop
  endfacet
  facet normal 0 0 -1
    outer loop
      vertex 2.42705 1.76336 0
      vertex 2.88499 4.99696 0
      vertex 2.62892 1.44526 0
    endloop
  endfacet
  facet normal 0 0 -1
    outer loop
      vertex 2.18691 2.05364 0
      vertex 2.88499 4.99696 0
      vertex 2.42705 1.76336 0
    endloop
  endfacet
  facet normal 0 0 -1
    outer loop
      vertex 1.91227 2.31154 0
      vertex 2.88499 4.99696 0
      vertex 2.18691 2.05364 0
    endloop
  endfacet
  facet normal 0 0 -1
    outer loop
      vertex 1.60748 2.53298 0
      vertex 2.88499 4.99696 0
      vertex 1.91227 2.31154 0
    endloop
  endfacet
  facet normal 0 0 -1
    outer loop
      vertex 1.27734 2.71448 0
      vertex 2.88499 4.99696 0
      vertex 1.60748 2.53298 0
    endloop
  endfacet
  facet normal 0 0 -1
    outer loop
      vertex 0.927051 2.85317 0
      vertex 2.88499 4.99696 0
      vertex 1.27734 2.71448 0
    endloop
  endfacet
  facet normal 0 0 -1
    outer loop
      vertex 0.562143 2.94686 0
      vertex 2.88499 4.99696 0
      vertex 0.927051 2.85317 0
    endloop
  endfacet
  facet normal 0 0 -1
    outer loop
      vertex 0.188371 2.99408 0
      vertex 2.88499 4.99696 0
      vertex 0.562143 2.94686 0
    endloop
  endfacet
  facet normal 0 0 -1
    outer loop
      vertex -0.188371 2.99408 0
      vertex 2.88499 4.99696 0
      vertex 0.188371 2.99408 0
    endloop
  endfacet
  facet normal 0 0 -1
    outer loop
      vertex -2.88499 4.99696 0
      vertex -0.188371 2.99408 0
      vertex -0.562143 2.94686 0
    endloop
  endfacet
  facet normal 0 0 -1
    outer loop
      vertex -2.88499 4.99696 0
      vertex -0.562143 2.94686 0
      vertex -0.927051 2.85317 0
    endloop
  endfacet
  facet normal 0 0 -1
    outer loop
      vertex -2.88499 4.99696 0
      vertex -0.927051 2.85317 0
      vertex -1.27734 2.71448 0
    endloop
  endfacet
  facet normal 0 0 -1
    outer loop
      vertex -0.188371 2.99408 0
      vertex -2.88499 4.99696 0
      vertex 2.88499 4.99696 0
    endloop
  endfacet
  facet normal 0 0 -1
    outer loop
      vertex -1.60748 2.53298 0
      vertex -2.88499 4.99696 0
      vertex -1.27734 2.71448 0
    endloop
  endfacet
  facet normal 0 0 -1
    outer loop
      vertex -1.91227 2.31154 0
      vertex -2.88499 4.99696 0
      vertex -1.60748 2.53298 0
    endloop
  endfacet
  facet normal 0 0 -1
    outer loop
      vertex -2.18691 2.05364 0
      vertex -2.88499 4.99696 0
      vertex -1.91227 2.31154 0
    endloop
  endfacet
  facet normal 0 0 -1
    outer loop
      vertex -2.42705 1.76336 0
      vertex -2.88499 4.99696 0
      vertex -2.18691 2.05364 0
    endloop
  endfacet
  facet normal 0 0 -1
    outer loop
      vertex -2.62892 1.44526 0
      vertex -2.88499 4.99696 0
      vertex -2.42705 1.76336 0
    endloop
  endfacet
  facet normal 0 0 -1
    outer loop
      vertex -5.76999 0 0
      vertex -2.62892 1.44526 0
      vertex -2.78933 1.10437 0
    endloop
  endfacet
  facet normal 0 0 -1
    outer loop
      vertex -5.76999 0 0
      vertex -2.78933 1.10437 0
      vertex -2.90575 0.746069 0
    endloop
  endfacet
  facet normal 0 0 -1
    outer loop
      vertex -5.76999 0 0
      vertex -2.90575 0.746069 0
      vertex -2.97634 0.375999 0
    endloop
  endfacet
  facet normal 0 0 -1
    outer loop
      vertex -5.76999 0 0
      vertex -2.97634 0.375999 0
      vertex -3 0 0
    endloop
  endfacet
  facet normal -0 0 -1
    outer loop
      vertex -2.62892 1.44526 0
      vertex -5.76999 0 0
      vertex -2.88499 4.99696 0
    endloop
  endfacet
  facet normal 0 0 1
    outer loop
      vertex 2.88499 4.99696 18
      vertex 2.88499 -4.99696 18
      vertex 5.76999 0 18
    endloop
  endfacet
  facet normal -0 0 1
    outer loop
      vertex -2.88499 4.99696 18
      vertex 2.88499 -4.99696 18
      vertex 2.88499 4.99696 18
    endloop
  endfacet
  facet normal 0 0 1
    outer loop
      vertex -2.88499 4.99696 18
      vertex -2.88499 -4.99696 18
      vertex 2.88499 -4.99696 18
    endloop
  endfacet
  facet normal 0 -0 1
    outer loop
      vertex -2.88499 -4.99696 18
      vertex -2.88499 4.99696 18
      vertex -5.76999 0 18
    endloop
  endfacet
  facet normal 0.866025 -0.5 -1.9709e-18
    outer loop
      vertex 2.88499 -4.99696 18
      vertex 5.76999 0 0
      vertex 5.76999 0 18
    endloop
  endfacet
  facet normal 0.866025 -0.5 -1.9709e-18
    outer loop
      vertex 5.76999 0 0
      vertex 2.88499 -4.99696 18
      vertex 2.88499 -4.99696 0
    endloop
  endfacet
  facet normal 0.866025 0.5 1.9709e-18
    outer loop
      vertex 5.76999 0 18
      vertex 2.88499 4.99696 0
      vertex 2.88499 4.99696 18
    endloop
  endfacet
  facet normal 0.866025 0.5 1.9709e-18
    outer loop
      vertex 2.88499 4.99696 0
      vertex 5.76999 0 18
      vertex 5.76999 0 0
    endloop
  endfacet
  facet normal 0 -1 0
    outer loop
      vertex -2.88499 -4.99696 0
      vertex 2.88499 -4.99696 18
      vertex -2.88499 -4.99696 18
    endloop
  endfacet
  facet normal 0 -1 -0
    outer loop
      vertex 2.88499 -4.99696 18
      vertex -2.88499 -4.99696 0
      vertex 2.88499 -4.99696 0
    endloop
  endfacet
  facet normal -0.866025 -0.5 1.9709e-18
    outer loop
      vertex -2.88499 -4.99696 0
      vertex -5.76999 0 18
      vertex -5.76999 0 0
    endloop
  endfacet
  facet normal -0.866025 -0.5 1.9709e-18
    outer loop
      vertex -5.76999 0 18
      vertex -2.88499 -4.99696 0
      vertex -2.88499 -4.99696 18
    endloop
  endfacet
  facet normal 0.844331 0.535822 3.79709e-19
    outer loop
      vertex 2.62892 1.44526 0
      vertex 2.42705 1.76336 -18
      vertex 2.42705 1.76336 0
    endloop
  endfacet
  facet normal 0.844331 0.535822 3.79709e-19
    outer loop
      vertex 2.42705 1.76336 -18
      vertex 2.62892 1.44526 0
      vertex 2.62892 1.44526 -18
    endloop
  endfacet
  facet normal 0.368126 0.929776 -0
    outer loop
      vertex 1.27734 2.71448 -18
      vertex 0.927051 2.85317 0
      vertex 1.27734 2.71448 0
    endloop
  endfacet
  facet normal 0.368126 0.929776 0
    outer loop
      vertex 0.927051 2.85317 0
      vertex 1.27734 2.71448 -18
      vertex 0.927051 2.85317 -18
    endloop
  endfacet
  facet normal -0.368126 0.929776 0
    outer loop
      vertex -0.927051 2.85317 -18
      vertex -1.27734 2.71448 0
      vertex -0.927051 2.85317 0
    endloop
  endfacet
  facet normal -0.368126 0.929776 0
    outer loop
      vertex -1.27734 2.71448 0
      vertex -0.927051 2.85317 -18
      vertex -1.27734 2.71448 -18
    endloop
  endfacet
  facet normal -0.904828 0.425778 4.30672e-19
    outer loop
      vertex -2.78933 1.10437 -18
      vertex -2.62892 1.44526 0
      vertex -2.62892 1.44526 -18
    endloop
  endfacet
  facet normal -0.904828 0.425778 4.30672e-19
    outer loop
      vertex -2.62892 1.44526 0
      vertex -2.78933 1.10437 -18
      vertex -2.78933 1.10437 0
    endloop
  endfacet
  facet normal 0.98229 -0.187369 1.78366e-19
    outer loop
      vertex 2.90575 -0.746069 0
      vertex 2.97634 -0.375999 -18
      vertex 2.97634 -0.375999 0
    endloop
  endfacet
  facet normal 0.98229 -0.187369 1.78366e-19
    outer loop
      vertex 2.97634 -0.375999 -18
      vertex 2.90575 -0.746069 0
      vertex 2.90575 -0.746069 -18
    endloop
  endfacet
  facet normal 0.98229 0.187369 -1.78366e-19
    outer loop
      vertex 2.97634 0.375999 0
      vertex 2.90575 0.746069 -18
      vertex 2.90575 0.746069 0
    endloop
  endfacet
  facet normal 0.98229 0.187369 -1.78366e-19
    outer loop
      vertex 2.90575 0.746069 -18
      vertex 2.97634 0.375999 0
      vertex 2.97634 0.375999 -18
    endloop
  endfacet
  facet normal 0.684541 0.728974 -0
    outer loop
      vertex 2.18691 2.05364 -18
      vertex 1.91227 2.31154 0
      vertex 2.18691 2.05364 0
    endloop
  endfacet
  facet normal 0.684541 0.728974 0
    outer loop
      vertex 1.91227 2.31154 0
      vertex 2.18691 2.05364 -18
      vertex 1.91227 2.31154 -18
    endloop
  endfacet
  facet normal 0.125337 0.992114 -0
    outer loop
      vertex 0.562143 2.94686 -18
      vertex 0.188371 2.99408 0
      vertex 0.562143 2.94686 0
    endloop
  endfacet
  facet normal 0.125337 0.992114 0
    outer loop
      vertex 0.188371 2.99408 0
      vertex 0.562143 2.94686 -18
      vertex 0.188371 2.99408 -18
    endloop
  endfacet
  facet normal 0.58778 0.809021 -0
    outer loop
      vertex 1.91227 2.31154 -18
      vertex 1.60748 2.53298 0
      vertex 1.91227 2.31154 0
    endloop
  endfacet
  facet normal 0.58778 0.809021 0
    outer loop
      vertex 1.60748 2.53298 0
      vertex 1.91227 2.31154 -18
      vertex 1.60748 2.53298 -18
    endloop
  endfacet
  facet normal -0.98229 0.187369 1.78366e-19
    outer loop
      vertex -2.97634 0.375999 -18
      vertex -2.90575 0.746069 0
      vertex -2.90575 0.746069 -18
    endloop
  endfacet
  facet normal -0.98229 0.187369 1.78366e-19
    outer loop
      vertex -2.90575 0.746069 0
      vertex -2.97634 0.375999 -18
      vertex -2.97634 0.375999 0
    endloop
  endfacet
  facet normal -0.770514 0.637423 6.99486e-19
    outer loop
      vertex -2.42705 1.76336 -18
      vertex -2.18691 2.05364 0
      vertex -2.18691 2.05364 -18
    endloop
  endfacet
  facet normal -0.770514 0.637423 6.99486e-19
    outer loop
      vertex -2.18691 2.05364 0
      vertex -2.42705 1.76336 -18
      vertex -2.42705 1.76336 0
    endloop
  endfacet
  facet normal -0.248684 0.968585 0
    outer loop
      vertex -0.562143 2.94686 -18
      vertex -0.927051 2.85317 0
      vertex -0.562143 2.94686 0
    endloop
  endfacet
  facet normal -0.248684 0.968585 0
    outer loop
      vertex -0.927051 2.85317 0
      vertex -0.562143 2.94686 -18
      vertex -0.927051 2.85317 -18
    endloop
  endfacet
  facet normal -0.684541 0.728974 0
    outer loop
      vertex -1.91227 2.31154 -18
      vertex -2.18691 2.05364 0
      vertex -1.91227 2.31154 0
    endloop
  endfacet
  facet normal -0.684541 0.728974 0
    outer loop
      vertex -2.18691 2.05364 0
      vertex -1.91227 2.31154 -18
      vertex -2.18691 2.05364 -18
    endloop
  endfacet
  facet normal 0.998026 0.0628015 -2.91031e-20
    outer loop
      vertex 3 0 0
      vertex 2.97634 0.375999 -18
      vertex 2.97634 0.375999 0
    endloop
  endfacet
  facet normal 0.998026 0.0628015 -2.91031e-20
    outer loop
      vertex 2.97634 0.375999 -18
      vertex 3 0 0
      vertex 3 0 -18
    endloop
  endfacet
  facet normal 0.481762 -0.876302 0
    outer loop
      vertex 1.27734 -2.71448 -18
      vertex 1.60748 -2.53298 0
      vertex 1.27734 -2.71448 0
    endloop
  endfacet
  facet normal 0.481762 -0.876302 0
    outer loop
      vertex 1.60748 -2.53298 0
      vertex 1.27734 -2.71448 -18
      vertex 1.60748 -2.53298 -18
    endloop
  endfacet
  facet normal 0.770514 0.637423 -6.99486e-19
    outer loop
      vertex 2.42705 1.76336 0
      vertex 2.18691 2.05364 -18
      vertex 2.18691 2.05364 0
    endloop
  endfacet
  facet normal 0.770514 0.637423 -6.99486e-19
    outer loop
      vertex 2.18691 2.05364 -18
      vertex 2.42705 1.76336 0
      vertex 2.42705 1.76336 -18
    endloop
  endfacet
  facet normal 0 1 -0
    outer loop
      vertex 0.188371 2.99408 -18
      vertex -0.188371 2.99408 0
      vertex 0.188371 2.99408 0
    endloop
  endfacet
  facet normal 0 1 0
    outer loop
      vertex -0.188371 2.99408 0
      vertex 0.188371 2.99408 -18
      vertex -0.188371 2.99408 -18
    endloop
  endfacet
  facet normal 0.248684 0.968585 -0
    outer loop
      vertex 0.927051 2.85317 -18
      vertex 0.562143 2.94686 0
      vertex 0.927051 2.85317 0
    endloop
  endfacet
  facet normal 0.248684 0.968585 0
    outer loop
      vertex 0.562143 2.94686 0
      vertex 0.927051 2.85317 -18
      vertex 0.562143 2.94686 -18
    endloop
  endfacet
  facet normal 0.481762 0.876302 -0
    outer loop
      vertex 1.60748 2.53298 -18
      vertex 1.27734 2.71448 0
      vertex 1.60748 2.53298 0
    endloop
  endfacet
  facet normal 0.481762 0.876302 0
    outer loop
      vertex 1.27734 2.71448 0
      vertex 1.60748 2.53298 -18
      vertex 1.27734 2.71448 -18
    endloop
  endfacet
  facet normal -0.998026 0.0628015 2.91031e-20
    outer loop
      vertex -3 0 -18
      vertex -2.97634 0.375999 0
      vertex -2.97634 0.375999 -18
    endloop
  endfacet
  facet normal -0.998026 0.0628015 2.91031e-20
    outer loop
      vertex -2.97634 0.375999 0
      vertex -3 0 -18
      vertex -3 0 0
    endloop
  endfacet
  facet normal -0.951056 0.309019 1.10917e-19
    outer loop
      vertex -2.90575 0.746069 -18
      vertex -2.78933 1.10437 0
      vertex -2.78933 1.10437 -18
    endloop
  endfacet
  facet normal -0.951056 0.309019 1.10917e-19
    outer loop
      vertex -2.78933 1.10437 0
      vertex -2.90575 0.746069 -18
      vertex -2.90575 0.746069 0
    endloop
  endfacet
  facet normal -0.844331 0.535822 -3.79709e-19
    outer loop
      vertex -2.62892 1.44526 -18
      vertex -2.42705 1.76336 0
      vertex -2.42705 1.76336 -18
    endloop
  endfacet
  facet normal -0.844331 0.535822 -3.79709e-19
    outer loop
      vertex -2.42705 1.76336 0
      vertex -2.62892 1.44526 -18
      vertex -2.62892 1.44526 0
    endloop
  endfacet
  facet normal -0.125337 0.992114 0
    outer loop
      vertex -0.188371 2.99408 -18
      vertex -0.562143 2.94686 0
      vertex -0.188371 2.99408 0
    endloop
  endfacet
  facet normal -0.125337 0.992114 0
    outer loop
      vertex -0.562143 2.94686 0
      vertex -0.188371 2.99408 -18
      vertex -0.562143 2.94686 -18
    endloop
  endfacet
  facet normal -0.58778 0.809021 0
    outer loop
      vertex -1.60748 2.53298 -18
      vertex -1.91227 2.31154 0
      vertex -1.60748 2.53298 0
    endloop
  endfacet
  facet normal -0.58778 0.809021 0
    outer loop
      vertex -1.91227 2.31154 0
      vertex -1.60748 2.53298 -18
      vertex -1.91227 2.31154 -18
    endloop
  endfacet
  facet normal -0.481762 0.876302 0
    outer loop
      vertex -1.27734 2.71448 -18
      vertex -1.60748 2.53298 0
      vertex -1.27734 2.71448 0
    endloop
  endfacet
  facet normal -0.481762 0.876302 0
    outer loop
      vertex -1.60748 2.53298 0
      vertex -1.27734 2.71448 -18
      vertex -1.60748 2.53298 -18
    endloop
  endfacet
  facet normal 0.998026 -0.0628015 2.91031e-20
    outer loop
      vertex 2.97634 -0.375999 0
      vertex 3 0 -18
      vertex 3 0 0
    endloop
  endfacet
  facet normal 0.998026 -0.0628015 2.91031e-20
    outer loop
      vertex 3 0 -18
      vertex 2.97634 -0.375999 0
      vertex 2.97634 -0.375999 -18
    endloop
  endfacet
  facet normal -0.844331 -0.535822 3.79709e-19
    outer loop
      vertex -2.42705 -1.76336 -18
      vertex -2.62892 -1.44526 0
      vertex -2.62892 -1.44526 -18
    endloop
  endfacet
  facet normal -0.844331 -0.535822 3.79709e-19
    outer loop
      vertex -2.62892 -1.44526 0
      vertex -2.42705 -1.76336 -18
      vertex -2.42705 -1.76336 0
    endloop
  endfacet
  facet normal 0.125337 -0.992114 0
    outer loop
      vertex 0.188371 -2.99408 -18
      vertex 0.562143 -2.94686 0
      vertex 0.188371 -2.99408 0
    endloop
  endfacet
  facet normal 0.125337 -0.992114 0
    outer loop
      vertex 0.562143 -2.94686 0
      vertex 0.188371 -2.99408 -18
      vertex 0.562143 -2.94686 -18
    endloop
  endfacet
  facet normal 0.368126 -0.929776 0
    outer loop
      vertex 0.927051 -2.85317 -18
      vertex 1.27734 -2.71448 0
      vertex 0.927051 -2.85317 0
    endloop
  endfacet
  facet normal 0.368126 -0.929776 0
    outer loop
      vertex 1.27734 -2.71448 0
      vertex 0.927051 -2.85317 -18
      vertex 1.27734 -2.71448 -18
    endloop
  endfacet
  facet normal 0.904828 0.425778 -4.30672e-19
    outer loop
      vertex 2.78933 1.10437 0
      vertex 2.62892 1.44526 -18
      vertex 2.62892 1.44526 0
    endloop
  endfacet
  facet normal 0.904828 0.425778 -4.30672e-19
    outer loop
      vertex 2.62892 1.44526 -18
      vertex 2.78933 1.10437 0
      vertex 2.78933 1.10437 -18
    endloop
  endfacet
  facet normal 0.951056 0.309019 -1.10917e-19
    outer loop
      vertex 2.90575 0.746069 0
      vertex 2.78933 1.10437 -18
      vertex 2.78933 1.10437 0
    endloop
  endfacet
  facet normal 0.951056 0.309019 -1.10917e-19
    outer loop
      vertex 2.78933 1.10437 -18
      vertex 2.90575 0.746069 0
      vertex 2.90575 0.746069 -18
    endloop
  endfacet
  facet normal 0.904828 -0.425778 4.30672e-19
    outer loop
      vertex 2.62892 -1.44526 0
      vertex 2.78933 -1.10437 -18
      vertex 2.78933 -1.10437 0
    endloop
  endfacet
  facet normal 0.904828 -0.425778 4.30672e-19
    outer loop
      vertex 2.78933 -1.10437 -18
      vertex 2.62892 -1.44526 0
      vertex 2.62892 -1.44526 -18
    endloop
  endfacet
  facet normal 0.951056 -0.309019 1.10917e-19
    outer loop
      vertex 2.78933 -1.10437 0
      vertex 2.90575 -0.746069 -18
      vertex 2.90575 -0.746069 0
    endloop
  endfacet
  facet normal 0.951056 -0.309019 1.10917e-19
    outer loop
      vertex 2.90575 -0.746069 -18
      vertex 2.78933 -1.10437 0
      vertex 2.78933 -1.10437 -18
    endloop
  endfacet
  facet normal 0.684541 -0.728974 0
    outer loop
      vertex 1.91227 -2.31154 -18
      vertex 2.18691 -2.05364 0
      vertex 1.91227 -2.31154 0
    endloop
  endfacet
  facet normal 0.684541 -0.728974 0
    outer loop
      vertex 2.18691 -2.05364 0
      vertex 1.91227 -2.31154 -18
      vertex 2.18691 -2.05364 -18
    endloop
  endfacet
  facet normal 0.770514 -0.637423 6.99486e-19
    outer loop
      vertex 2.18691 -2.05364 0
      vertex 2.42705 -1.76336 -18
      vertex 2.42705 -1.76336 0
    endloop
  endfacet
  facet normal 0.770514 -0.637423 6.99486e-19
    outer loop
      vertex 2.42705 -1.76336 -18
      vertex 2.18691 -2.05364 0
      vertex 2.18691 -2.05364 -18
    endloop
  endfacet
  facet normal 0.844331 -0.535822 -3.79709e-19
    outer loop
      vertex 2.42705 -1.76336 0
      vertex 2.62892 -1.44526 -18
      vertex 2.62892 -1.44526 0
    endloop
  endfacet
  facet normal 0.844331 -0.535822 -3.79709e-19
    outer loop
      vertex 2.62892 -1.44526 -18
      vertex 2.42705 -1.76336 0
      vertex 2.42705 -1.76336 -18
    endloop
  endfacet
  facet normal -0.248684 -0.968585 0
    outer loop
      vertex -0.927051 -2.85317 -18
      vertex -0.562143 -2.94686 0
      vertex -0.927051 -2.85317 0
    endloop
  endfacet
  facet normal -0.248684 -0.968585 -0
    outer loop
      vertex -0.562143 -2.94686 0
      vertex -0.927051 -2.85317 -18
      vertex -0.562143 -2.94686 -18
    endloop
  endfacet
  facet normal -0.125337 -0.992114 0
    outer loop
      vertex -0.562143 -2.94686 -18
      vertex -0.188371 -2.99408 0
      vertex -0.562143 -2.94686 0
    endloop
  endfacet
  facet normal -0.125337 -0.992114 -0
    outer loop
      vertex -0.188371 -2.99408 0
      vertex -0.562143 -2.94686 -18
      vertex -0.188371 -2.99408 -18
    endloop
  endfacet
  facet normal -0.998026 -0.0628015 -2.91031e-20
    outer loop
      vertex -2.97634 -0.375999 -18
      vertex -3 0 0
      vertex -3 0 -18
    endloop
  endfacet
  facet normal -0.998026 -0.0628015 -2.91031e-20
    outer loop
      vertex -3 0 0
      vertex -2.97634 -0.375999 -18
      vertex -2.97634 -0.375999 0
    endloop
  endfacet
  facet normal -0.98229 -0.187369 -1.78366e-19
    outer loop
      vertex -2.90575 -0.746069 -18
      vertex -2.97634 -0.375999 0
      vertex -2.97634 -0.375999 -18
    endloop
  endfacet
  facet normal -0.98229 -0.187369 -1.78366e-19
    outer loop
      vertex -2.97634 -0.375999 0
      vertex -2.90575 -0.746069 -18
      vertex -2.90575 -0.746069 0
    endloop
  endfacet
  facet normal -0.904828 -0.425778 -4.30672e-19
    outer loop
      vertex -2.62892 -1.44526 -18
      vertex -2.78933 -1.10437 0
      vertex -2.78933 -1.10437 -18
    endloop
  endfacet
  facet normal -0.904828 -0.425778 -4.30672e-19
    outer loop
      vertex -2.78933 -1.10437 0
      vertex -2.62892 -1.44526 -18
      vertex -2.62892 -1.44526 0
    endloop
  endfacet
  facet normal -0.684541 -0.728974 0
    outer loop
      vertex -2.18691 -2.05364 -18
      vertex -1.91227 -2.31154 0
      vertex -2.18691 -2.05364 0
    endloop
  endfacet
  facet normal -0.684541 -0.728974 -0
    outer loop
      vertex -1.91227 -2.31154 0
      vertex -2.18691 -2.05364 -18
      vertex -1.91227 -2.31154 -18
    endloop
  endfacet
  facet normal 0.248684 -0.968585 0
    outer loop
      vertex 0.562143 -2.94686 -18
      vertex 0.927051 -2.85317 0
      vertex 0.562143 -2.94686 0
    endloop
  endfacet
  facet normal 0.248684 -0.968585 0
    outer loop
      vertex 0.927051 -2.85317 0
      vertex 0.562143 -2.94686 -18
      vertex 0.927051 -2.85317 -18
    endloop
  endfacet
  facet normal 0.58778 -0.809021 0
    outer loop
      vertex 1.60748 -2.53298 -18
      vertex 1.91227 -2.31154 0
      vertex 1.60748 -2.53298 0
    endloop
  endfacet
  facet normal 0.58778 -0.809021 0
    outer loop
      vertex 1.91227 -2.31154 0
      vertex 1.60748 -2.53298 -18
      vertex 1.91227 -2.31154 -18
    endloop
  endfacet
  facet normal -0.58778 -0.809021 0
    outer loop
      vertex -1.91227 -2.31154 -18
      vertex -1.60748 -2.53298 0
      vertex -1.91227 -2.31154 0
    endloop
  endfacet
  facet normal -0.58778 -0.809021 -0
    outer loop
      vertex -1.60748 -2.53298 0
      vertex -1.91227 -2.31154 -18
      vertex -1.60748 -2.53298 -18
    endloop
  endfacet
  facet normal 0 -1 0
    outer loop
      vertex -0.188371 -2.99408 -18
      vertex 0.188371 -2.99408 0
      vertex -0.188371 -2.99408 0
    endloop
  endfacet
  facet normal 0 -1 -0
    outer loop
      vertex 0.188371 -2.99408 0
      vertex -0.188371 -2.99408 -18
      vertex 0.188371 -2.99408 -18
    endloop
  endfacet
  facet normal 0 0 -1
    outer loop
      vertex 2.97634 -0.375999 -18
      vertex 2.97634 0.375999 -18
      vertex 3 0 -18
    endloop
  endfacet
  facet normal 0 0 -1
    outer loop
      vertex 2.90575 -0.746069 -18
      vertex 2.97634 0.375999 -18
      vertex 2.97634 -0.375999 -18
    endloop
  endfacet
  facet normal 0 0 -1
    outer loop
      vertex 2.90575 -0.746069 -18
      vertex 2.90575 0.746069 -18
      vertex 2.97634 0.375999 -18
    endloop
  endfacet
  facet normal 0 0 -1
    outer loop
      vertex 2.78933 -1.10437 -18
      vertex 2.90575 0.746069 -18
      vertex 2.90575 -0.746069 -18
    endloop
  endfacet
  facet normal 0 0 -1
    outer loop
      vertex 2.78933 -1.10437 -18
      vertex 2.78933 1.10437 -18
      vertex 2.90575 0.746069 -18
    endloop
  endfacet
  facet normal 0 0 -1
    outer loop
      vertex 2.62892 -1.44526 -18
      vertex 2.78933 1.10437 -18
      vertex 2.78933 -1.10437 -18
    endloop
  endfacet
  facet normal 0 0 -1
    outer loop
      vertex 2.62892 -1.44526 -18
      vertex 2.62892 1.44526 -18
      vertex 2.78933 1.10437 -18
    endloop
  endfacet
  facet normal 0 0 -1
    outer loop
      vertex 2.42705 -1.76336 -18
      vertex 2.62892 1.44526 -18
      vertex 2.62892 -1.44526 -18
    endloop
  endfacet
  facet normal 0 0 -1
    outer loop
      vertex 2.42705 -1.76336 -18
      vertex 2.42705 1.76336 -18
      vertex 2.62892 1.44526 -18
    endloop
  endfacet
  facet normal 0 0 -1
    outer loop
      vertex 2.18691 -2.05364 -18
      vertex 2.42705 1.76336 -18
      vertex 2.42705 -1.76336 -18
    endloop
  endfacet
  facet normal 0 0 -1
    outer loop
      vertex 2.18691 -2.05364 -18
      vertex 2.18691 2.05364 -18
      vertex 2.42705 1.76336 -18
    endloop
  endfacet
  facet normal 0 0 -1
    outer loop
      vertex 1.91227 -2.31154 -18
      vertex 2.18691 2.05364 -18
      vertex 2.18691 -2.05364 -18
    endloop
  endfacet
  facet normal 0 0 -1
    outer loop
      vertex 1.91227 -2.31154 -18
      vertex 1.91227 2.31154 -18
      vertex 2.18691 2.05364 -18
    endloop
  endfacet
  facet normal 0 0 -1
    outer loop
      vertex 1.60748 -2.53298 -18
      vertex 1.91227 2.31154 -18
      vertex 1.91227 -2.31154 -18
    endloop
  endfacet
  facet normal 0 0 -1
    outer loop
      vertex 1.60748 -2.53298 -18
      vertex 1.60748 2.53298 -18
      vertex 1.91227 2.31154 -18
    endloop
  endfacet
  facet normal 0 0 -1
    outer loop
      vertex 1.27734 -2.71448 -18
      vertex 1.60748 2.53298 -18
      vertex 1.60748 -2.53298 -18
    endloop
  endfacet
  facet normal 0 0 -1
    outer loop
      vertex 1.27734 -2.71448 -18
      vertex 1.27734 2.71448 -18
      vertex 1.60748 2.53298 -18
    endloop
  endfacet
  facet normal 0 0 -1
    outer loop
      vertex 0.927051 -2.85317 -18
      vertex 1.27734 2.71448 -18
      vertex 1.27734 -2.71448 -18
    endloop
  endfacet
  facet normal 0 0 -1
    outer loop
      vertex 0.927051 -2.85317 -18
      vertex 0.927051 2.85317 -18
      vertex 1.27734 2.71448 -18
    endloop
  endfacet
  facet normal 0 0 -1
    outer loop
      vertex 0.562143 -2.94686 -18
      vertex 0.927051 2.85317 -18
      vertex 0.927051 -2.85317 -18
    endloop
  endfacet
  facet normal 0 0 -1
    outer loop
      vertex 0.562143 -2.94686 -18
      vertex 0.562143 2.94686 -18
      vertex 0.927051 2.85317 -18
    endloop
  endfacet
  facet normal 0 0 -1
    outer loop
      vertex 0.188371 -2.99408 -18
      vertex 0.562143 2.94686 -18
      vertex 0.562143 -2.94686 -18
    endloop
  endfacet
  facet normal 0 0 -1
    outer loop
      vertex 0.188371 -2.99408 -18
      vertex 0.188371 2.99408 -18
      vertex 0.562143 2.94686 -18
    endloop
  endfacet
  facet normal 0 0 -1
    outer loop
      vertex -0.188371 -2.99408 -18
      vertex 0.188371 2.99408 -18
      vertex 0.188371 -2.99408 -18
    endloop
  endfacet
  facet normal 0 0 -1
    outer loop
      vertex -0.188371 -2.99408 -18
      vertex -0.188371 2.99408 -18
      vertex 0.188371 2.99408 -18
    endloop
  endfacet
  facet normal 0 0 -1
    outer loop
      vertex -0.562143 -2.94686 -18
      vertex -0.188371 2.99408 -18
      vertex -0.188371 -2.99408 -18
    endloop
  endfacet
  facet normal 0 0 -1
    outer loop
      vertex -0.562143 -2.94686 -18
      vertex -0.562143 2.94686 -18
      vertex -0.188371 2.99408 -18
    endloop
  endfacet
  facet normal 0 0 -1
    outer loop
      vertex -0.927051 -2.85317 -18
      vertex -0.562143 2.94686 -18
      vertex -0.562143 -2.94686 -18
    endloop
  endfacet
  facet normal 0 0 -1
    outer loop
      vertex -0.927051 -2.85317 -18
      vertex -0.927051 2.85317 -18
      vertex -0.562143 2.94686 -18
    endloop
  endfacet
  facet normal 0 0 -1
    outer loop
      vertex -1.27734 -2.71448 -18
      vertex -0.927051 2.85317 -18
      vertex -0.927051 -2.85317 -18
    endloop
  endfacet
  facet normal 0 0 -1
    outer loop
      vertex -1.27734 -2.71448 -18
      vertex -1.27734 2.71448 -18
      vertex -0.927051 2.85317 -18
    endloop
  endfacet
  facet normal 0 0 -1
    outer loop
      vertex -1.60748 -2.53298 -18
      vertex -1.27734 2.71448 -18
      vertex -1.27734 -2.71448 -18
    endloop
  endfacet
  facet normal 0 0 -1
    outer loop
      vertex -1.60748 -2.53298 -18
      vertex -1.60748 2.53298 -18
      vertex -1.27734 2.71448 -18
    endloop
  endfacet
  facet normal 0 0 -1
    outer loop
      vertex -1.91227 -2.31154 -18
      vertex -1.60748 2.53298 -18
      vertex -1.60748 -2.53298 -18
    endloop
  endfacet
  facet normal 0 0 -1
    outer loop
      vertex -1.91227 -2.31154 -18
      vertex -1.91227 2.31154 -18
      vertex -1.60748 2.53298 -18
    endloop
  endfacet
  facet normal 0 0 -1
    outer loop
      vertex -2.18691 -2.05364 -18
      vertex -1.91227 2.31154 -18
      vertex -1.91227 -2.31154 -18
    endloop
  endfacet
  facet normal 0 0 -1
    outer loop
      vertex -2.18691 -2.05364 -18
      vertex -2.18691 2.05364 -18
      vertex -1.91227 2.31154 -18
    endloop
  endfacet
  facet normal 0 0 -1
    outer loop
      vertex -2.42705 -1.76336 -18
      vertex -2.18691 2.05364 -18
      vertex -2.18691 -2.05364 -18
    endloop
  endfacet
  facet normal 0 0 -1
    outer loop
      vertex -2.42705 -1.76336 -18
      vertex -2.42705 1.76336 -18
      vertex -2.18691 2.05364 -18
    endloop
  endfacet
  facet normal 0 0 -1
    outer loop
      vertex -2.62892 -1.44526 -18
      vertex -2.42705 1.76336 -18
      vertex -2.42705 -1.76336 -18
    endloop
  endfacet
  facet normal 0 0 -1
    outer loop
      vertex -2.62892 -1.44526 -18
      vertex -2.62892 1.44526 -18
      vertex -2.42705 1.76336 -18
    endloop
  endfacet
  facet normal 0 0 -1
    outer loop
      vertex -2.78933 -1.10437 -18
      vertex -2.62892 1.44526 -18
      vertex -2.62892 -1.44526 -18
    endloop
  endfacet
  facet normal 0 0 -1
    outer loop
      vertex -2.78933 -1.10437 -18
      vertex -2.78933 1.10437 -18
      vertex -2.62892 1.44526 -18
    endloop
  endfacet
  facet normal 0 0 -1
    outer loop
      vertex -2.90575 -0.746069 -18
      vertex -2.78933 1.10437 -18
      vertex -2.78933 -1.10437 -18
    endloop
  endfacet
  facet normal 0 0 -1
    outer loop
      vertex -2.90575 -0.746069 -18
      vertex -2.90575 0.746069 -18
      vertex -2.78933 1.10437 -18
    endloop
  endfacet
  facet normal 0 0 -1
    outer loop
      vertex -2.97634 -0.375999 -18
      vertex -2.90575 0.746069 -18
      vertex -2.90575 -0.746069 -18
    endloop
  endfacet
  facet normal 0 0 -1
    outer loop
      vertex -2.97634 -0.375999 -18
      vertex -2.97634 0.375999 -18
      vertex -2.90575 0.746069 -18
    endloop
  endfacet
  facet normal 0 -0 -1
    outer loop
      vertex -2.97634 0.375999 -18
      vertex -2.97634 -0.375999 -18
      vertex -3 0 -18
    endloop
  endfacet
  facet normal -0.481762 -0.876302 0
    outer loop
      vertex -1.60748 -2.53298 -18
      vertex -1.27734 -2.71448 0
      vertex -1.60748 -2.53298 0
    endloop
  endfacet
  facet normal -0.481762 -0.876302 -0
    outer loop
      vertex -1.27734 -2.71448 0
      vertex -1.60748 -2.53298 -18
      vertex -1.27734 -2.71448 -18
    endloop
  endfacet
  facet normal -0.951056 -0.309019 -1.10917e-19
    outer loop
      vertex -2.78933 -1.10437 -18
      vertex -2.90575 -0.746069 0
      vertex -2.90575 -0.746069 -18
    endloop
  endfacet
  facet normal -0.951056 -0.309019 -1.10917e-19
    outer loop
      vertex -2.90575 -0.746069 0
      vertex -2.78933 -1.10437 -18
      vertex -2.78933 -1.10437 0
    endloop
  endfacet
  facet normal -0.770514 -0.637423 -6.99486e-19
    outer loop
      vertex -2.18691 -2.05364 -18
      vertex -2.42705 -1.76336 0
      vertex -2.42705 -1.76336 -18
    endloop
  endfacet
  facet normal -0.770514 -0.637423 -6.99486e-19
    outer loop
      vertex -2.42705 -1.76336 0
      vertex -2.18691 -2.05364 -18
      vertex -2.18691 -2.05364 0
    endloop
  endfacet
  facet normal -0.368126 -0.929776 0
    outer loop
      vertex -1.27734 -2.71448 -18
      vertex -0.927051 -2.85317 0
      vertex -1.27734 -2.71448 0
    endloop
  endfacet
  facet normal -0.368126 -0.929776 -0
    outer loop
      vertex -0.927051 -2.85317 0
      vertex -1.27734 -2.71448 -18
      vertex -0.927051 -2.85317 -18
    endloop
  endfacet
endsolid OpenSCAD_Model
