<?xml version="1.0" standalone="no"?>
<!DOCTYPE svg PUBLIC "-//W3C//DTD SVG 1.1//EN" "http://www.w3.org/Graphics/SVG/1.1/DTD/svg11.dtd">
<svg width="76mm" height="609mm" viewBox="-38 -1077 76 609" xmlns="http://www.w3.org/2000/svg" version="1.1">
<title>OpenSCAD Model</title>
<path d="
M 33.4369,-777.089 L 34.0451,-777.245 L 34.6289,-777.476 L 35.1791,-777.778 L 35.6871,-778.147 L 36.1448,-778.577
 L 36.5451,-779.061 L 36.8815,-779.591 L 37.1489,-780.159 L 37.3429,-780.757 L 37.4606,-781.373 L 37.5,-782
 L 37.5,-1072 L 37.4606,-1072.63 L 37.3429,-1073.24 L 37.1489,-1073.84 L 36.8815,-1074.41 L 36.5451,-1074.94
 L 36.1448,-1075.42 L 35.6871,-1075.85 L 35.1791,-1076.22 L 34.6289,-1076.52 L 34.0451,-1076.76 L 33.4369,-1076.91
 L 32.8139,-1076.99 L -32.8139,-1076.99 L -33.4369,-1076.91 L -34.0451,-1076.76 L -34.6289,-1076.52 L -35.1791,-1076.22
 L -35.6871,-1075.85 L -36.1448,-1075.42 L -36.5451,-1074.94 L -36.8815,-1074.41 L -37.1489,-1073.84 L -37.3429,-1073.24
 L -37.4606,-1072.63 L -37.5,-1072 L -37.5,-782 L -37.4606,-781.373 L -37.3429,-780.757 L -37.1489,-780.159
 L -36.8815,-779.591 L -36.5451,-779.061 L -36.1448,-778.577 L -35.6871,-778.147 L -35.1791,-777.778 L -34.6289,-777.476
 L -34.0451,-777.245 L -33.4369,-777.089 L -32.8139,-777.01 L 32.8139,-777.01 z
M -32.1954,-779.393 L -32.5833,-779.442 L -32.9619,-779.539 L -33.3254,-779.683 L -33.668,-779.872 L -33.9842,-780.101
 L -34.2692,-780.369 L -34.5184,-780.67 L -34.7279,-781 L -34.8943,-781.354 L -35.0151,-781.726 L -35.0884,-782.11
 L -35.1129,-782.5 L -35.1129,-1071.5 L -35.0884,-1071.89 L -35.0151,-1072.27 L -34.8943,-1072.65 L -34.7279,-1073
 L -34.5184,-1073.33 L -34.2692,-1073.63 L -33.9842,-1073.9 L -33.668,-1074.13 L -33.3254,-1074.32 L -32.9619,-1074.46
 L -32.5833,-1074.56 L -32.1954,-1074.61 L 32.1954,-1074.61 L 32.5833,-1074.56 L 32.9619,-1074.46 L 33.3254,-1074.32
 L 33.668,-1074.13 L 33.9842,-1073.9 L 34.2692,-1073.63 L 34.5184,-1073.33 L 34.7279,-1073 L 34.8943,-1072.65
 L 35.0151,-1072.27 L 35.0884,-1071.89 L 35.1129,-1071.5 L 35.1129,-782.5 L 35.0884,-782.11 L 35.0151,-781.726
 L 34.8943,-781.354 L 34.7279,-781 L 34.5184,-780.67 L 34.2692,-780.369 L 33.9842,-780.101 L 33.668,-779.872
 L 33.3254,-779.683 L 32.9619,-779.539 L 32.5833,-779.442 L 32.1954,-779.393 z
M 33.4369,-468.089 L 34.0451,-468.245 L 34.6289,-468.476 L 35.1791,-468.778 L 35.6871,-469.147 L 36.1448,-469.577
 L 36.5451,-470.061 L 36.8815,-470.591 L 37.1489,-471.159 L 37.3429,-471.757 L 37.4606,-472.373 L 37.5,-473
 L 37.5,-763 L 37.4606,-763.627 L 37.3429,-764.243 L 37.1489,-764.841 L 36.8815,-765.409 L 36.5451,-765.939
 L 36.1448,-766.423 L 35.6871,-766.853 L 35.1791,-767.222 L 34.6289,-767.524 L 34.0451,-767.755 L 33.4369,-767.911
 L 32.8139,-767.99 L -32.8139,-767.99 L -33.4369,-767.911 L -34.0451,-767.755 L -34.6289,-767.524 L -35.1791,-767.222
 L -35.6871,-766.853 L -36.1448,-766.423 L -36.5451,-765.939 L -36.8815,-765.409 L -37.1489,-764.841 L -37.3429,-764.243
 L -37.4606,-763.627 L -37.5,-763 L -37.5,-473 L -37.4606,-472.373 L -37.3429,-471.757 L -37.1489,-471.159
 L -36.8815,-470.591 L -36.5451,-470.061 L -36.1448,-469.577 L -35.6871,-469.147 L -35.1791,-468.778 L -34.6289,-468.476
 L -34.0451,-468.245 L -33.4369,-468.089 L -32.8139,-468.01 L 32.8139,-468.01 z
M 29.8659,-758.369 L 29.5999,-758.403 L 29.3401,-758.469 L 29.0908,-758.568 L 28.8559,-758.697 L 28.6389,-758.855
 L 28.4434,-759.038 L 28.2725,-759.245 L 28.1288,-759.471 L 28.0146,-759.714 L 27.9318,-759.969 L 27.8815,-760.232
 L 27.8647,-760.5 L 27.8815,-760.768 L 27.9318,-761.031 L 28.0146,-761.286 L 28.1288,-761.529 L 28.2725,-761.755
 L 28.4434,-761.962 L 28.6389,-762.145 L 28.8559,-762.303 L 29.0908,-762.432 L 29.3401,-762.531 L 29.5999,-762.597
 L 29.8659,-762.631 L 30.1341,-762.631 L 30.4001,-762.597 L 30.6598,-762.531 L 30.9091,-762.432 L 31.1441,-762.303
 L 31.3611,-762.145 L 31.5565,-761.962 L 31.7275,-761.755 L 31.8712,-761.529 L 31.9853,-761.286 L 32.0682,-761.031
 L 32.1185,-760.768 L 32.1353,-760.5 L 32.1185,-760.232 L 32.0682,-759.969 L 31.9853,-759.714 L 31.8712,-759.471
 L 31.7275,-759.245 L 31.5565,-759.038 L 31.3611,-758.855 L 31.1441,-758.697 L 30.9091,-758.568 L 30.6598,-758.469
 L 30.4001,-758.403 L 30.1341,-758.369 z
M -30.1341,-758.369 L -30.4001,-758.403 L -30.6598,-758.469 L -30.9091,-758.568 L -31.1441,-758.697 L -31.3611,-758.855
 L -31.5565,-759.038 L -31.7275,-759.245 L -31.8712,-759.471 L -31.9853,-759.714 L -32.0682,-759.969 L -32.1185,-760.232
 L -32.1353,-760.5 L -32.1185,-760.768 L -32.0682,-761.031 L -31.9853,-761.286 L -31.8712,-761.529 L -31.7275,-761.755
 L -31.5565,-761.962 L -31.3611,-762.145 L -31.1441,-762.303 L -30.9091,-762.432 L -30.6598,-762.531 L -30.4001,-762.597
 L -30.1341,-762.631 L -29.8659,-762.631 L -29.5999,-762.597 L -29.3401,-762.531 L -29.0908,-762.432 L -28.8559,-762.303
 L -28.6389,-762.145 L -28.4434,-761.962 L -28.2725,-761.755 L -28.1288,-761.529 L -28.0146,-761.286 L -27.9318,-761.031
 L -27.8815,-760.768 L -27.8647,-760.5 L -27.8815,-760.232 L -27.9318,-759.969 L -28.0146,-759.714 L -28.1288,-759.471
 L -28.2725,-759.245 L -28.4434,-759.038 L -28.6389,-758.855 L -28.8559,-758.697 L -29.0908,-758.568 L -29.3401,-758.469
 L -29.5999,-758.403 L -29.8659,-758.369 z
M 29.8659,-473.369 L 29.5999,-473.403 L 29.3401,-473.469 L 29.0908,-473.568 L 28.8559,-473.697 L 28.6389,-473.855
 L 28.4434,-474.038 L 28.2725,-474.245 L 28.1288,-474.471 L 28.0146,-474.714 L 27.9318,-474.969 L 27.8815,-475.232
 L 27.8647,-475.5 L 27.8815,-475.768 L 27.9318,-476.031 L 28.0146,-476.286 L 28.1288,-476.529 L 28.2725,-476.755
 L 28.4434,-476.962 L 28.6389,-477.145 L 28.8559,-477.303 L 29.0908,-477.432 L 29.3401,-477.531 L 29.5999,-477.597
 L 29.8659,-477.631 L 30.1341,-477.631 L 30.4001,-477.597 L 30.6598,-477.531 L 30.9091,-477.432 L 31.1441,-477.303
 L 31.3611,-477.145 L 31.5565,-476.962 L 31.7275,-476.755 L 31.8712,-476.529 L 31.9853,-476.286 L 32.0682,-476.031
 L 32.1185,-475.768 L 32.1353,-475.5 L 32.1185,-475.232 L 32.0682,-474.969 L 31.9853,-474.714 L 31.8712,-474.471
 L 31.7275,-474.245 L 31.5565,-474.038 L 31.3611,-473.855 L 31.1441,-473.697 L 30.9091,-473.568 L 30.6598,-473.469
 L 30.4001,-473.403 L 30.1341,-473.369 z
M -30.1341,-473.369 L -30.4001,-473.403 L -30.6598,-473.469 L -30.9091,-473.568 L -31.1441,-473.697 L -31.3611,-473.855
 L -31.5565,-474.038 L -31.7275,-474.245 L -31.8712,-474.471 L -31.9853,-474.714 L -32.0682,-474.969 L -32.1185,-475.232
 L -32.1353,-475.5 L -32.1185,-475.768 L -32.0682,-476.031 L -31.9853,-476.286 L -31.8712,-476.529 L -31.7275,-476.755
 L -31.5565,-476.962 L -31.3611,-477.145 L -31.1441,-477.303 L -30.9091,-477.432 L -30.6598,-477.531 L -30.4001,-477.597
 L -30.1341,-477.631 L -29.8659,-477.631 L -29.5999,-477.597 L -29.3401,-477.531 L -29.0908,-477.432 L -28.8559,-477.303
 L -28.6389,-477.145 L -28.4434,-476.962 L -28.2725,-476.755 L -28.1288,-476.529 L -28.0146,-476.286 L -27.9318,-476.031
 L -27.8815,-475.768 L -27.8647,-475.5 L -27.8815,-475.232 L -27.9318,-474.969 L -28.0146,-474.714 L -28.1288,-474.471
 L -28.2725,-474.245 L -28.4434,-474.038 L -28.6389,-473.855 L -28.8559,-473.697 L -29.0908,-473.568 L -29.3401,-473.469
 L -29.5999,-473.403 L -29.8659,-473.369 z
" stroke="black" fill="lightgray" stroke-width="0.5"/>
</svg>
