solid OpenSCAD_Model
  facet normal 0.998027 0.0627852 0
    outer loop
      vertex 26 0 7
      vertex 25.795 3.25866 0
      vertex 25.795 3.25866 7
    endloop
  endfacet
  facet normal 0.998027 0.0627852 0
    outer loop
      vertex 25.795 3.25866 0
      vertex 26 0 7
      vertex 26 0 0
    endloop
  endfacet
  facet normal -0.998027 0.0627852 0
    outer loop
      vertex -26 0 0
      vertex -25.795 3.25866 7
      vertex -25.795 3.25866 0
    endloop
  endfacet
  facet normal -0.998027 0.0627852 0
    outer loop
      vertex -25.795 3.25866 7
      vertex -26 0 0
      vertex -26 0 7
    endloop
  endfacet
  facet normal 0 1 -0
    outer loop
      vertex 1.63255 25.9487 0
      vertex -1.63255 25.9487 7
      vertex 1.63255 25.9487 7
    endloop
  endfacet
  facet normal 0 1 0
    outer loop
      vertex -1.63255 25.9487 7
      vertex 1.63255 25.9487 0
      vertex -1.63255 25.9487 0
    endloop
  endfacet
  facet normal 0 -1 0
    outer loop
      vertex -1.63255 -25.9487 0
      vertex 1.63255 -25.9487 7
      vertex -1.63255 -25.9487 7
    endloop
  endfacet
  facet normal 0 -1 -0
    outer loop
      vertex 1.63255 -25.9487 7
      vertex -1.63255 -25.9487 0
      vertex 1.63255 -25.9487 0
    endloop
  endfacet
  facet normal 0.684538 0.728977 -0
    outer loop
      vertex 18.9532 17.7982 0
      vertex 16.573 20.0333 7
      vertex 18.9532 17.7982 7
    endloop
  endfacet
  facet normal 0.684538 0.728977 0
    outer loop
      vertex 16.573 20.0333 7
      vertex 18.9532 17.7982 0
      vertex 16.573 20.0333 0
    endloop
  endfacet
  facet normal -0.684538 0.728977 0
    outer loop
      vertex -16.573 20.0333 0
      vertex -18.9532 17.7982 7
      vertex -16.573 20.0333 7
    endloop
  endfacet
  facet normal -0.684538 0.728977 0
    outer loop
      vertex -18.9532 17.7982 7
      vertex -16.573 20.0333 0
      vertex -18.9532 17.7982 0
    endloop
  endfacet
  facet normal -0.368129 0.929775 0
    outer loop
      vertex -8.03444 24.7275 0
      vertex -11.0703 23.5255 7
      vertex -8.03444 24.7275 7
    endloop
  endfacet
  facet normal -0.368129 0.929775 0
    outer loop
      vertex -11.0703 23.5255 7
      vertex -8.03444 24.7275 0
      vertex -11.0703 23.5255 0
    endloop
  endfacet
  facet normal 0.904829 -0.425775 0
    outer loop
      vertex 22.784 -12.5256 7
      vertex 24.1742 -9.57124 0
      vertex 24.1742 -9.57124 7
    endloop
  endfacet
  facet normal 0.904829 -0.425775 0
    outer loop
      vertex 24.1742 -9.57124 0
      vertex 22.784 -12.5256 7
      vertex 22.784 -12.5256 0
    endloop
  endfacet
  facet normal 0.904829 0.425775 0
    outer loop
      vertex 24.1742 9.57124 7
      vertex 22.784 12.5256 0
      vertex 22.784 12.5256 7
    endloop
  endfacet
  facet normal 0.904829 0.425775 0
    outer loop
      vertex 22.784 12.5256 0
      vertex 24.1742 9.57124 7
      vertex 24.1742 9.57124 0
    endloop
  endfacet
  facet normal 0.368129 0.929775 -0
    outer loop
      vertex 11.0703 23.5255 0
      vertex 8.03444 24.7275 7
      vertex 11.0703 23.5255 7
    endloop
  endfacet
  facet normal 0.368129 0.929775 0
    outer loop
      vertex 8.03444 24.7275 7
      vertex 11.0703 23.5255 0
      vertex 8.03444 24.7275 0
    endloop
  endfacet
  facet normal 0.24869 0.968583 -0
    outer loop
      vertex 8.03444 24.7275 0
      vertex 4.87191 25.5395 7
      vertex 8.03444 24.7275 7
    endloop
  endfacet
  facet normal 0.24869 0.968583 0
    outer loop
      vertex 4.87191 25.5395 7
      vertex 8.03444 24.7275 0
      vertex 4.87191 25.5395 0
    endloop
  endfacet
  facet normal 0.481764 0.876301 -0
    outer loop
      vertex 13.9315 21.9525 0
      vertex 11.0703 23.5255 7
      vertex 13.9315 21.9525 7
    endloop
  endfacet
  facet normal 0.481764 0.876301 0
    outer loop
      vertex 11.0703 23.5255 7
      vertex 13.9315 21.9525 0
      vertex 11.0703 23.5255 0
    endloop
  endfacet
  facet normal -0.904829 0.425775 0
    outer loop
      vertex -24.1742 9.57124 0
      vertex -22.784 12.5256 7
      vertex -22.784 12.5256 0
    endloop
  endfacet
  facet normal -0.904829 0.425775 0
    outer loop
      vertex -22.784 12.5256 7
      vertex -24.1742 9.57124 0
      vertex -24.1742 9.57124 7
    endloop
  endfacet
  facet normal -0.770521 0.637415 0
    outer loop
      vertex -21.0344 15.2824 0
      vertex -18.9532 17.7982 7
      vertex -18.9532 17.7982 0
    endloop
  endfacet
  facet normal -0.770521 0.637415 0
    outer loop
      vertex -18.9532 17.7982 7
      vertex -21.0344 15.2824 0
      vertex -21.0344 15.2824 7
    endloop
  endfacet
  facet normal 0 0 1
    outer loop
      vertex 20 0 7
      vertex 26 0 7
      vertex 25.795 3.25866 7
    endloop
  endfacet
  facet normal 0 0 1
    outer loop
      vertex 19.8423 2.50666 7
      vertex 25.795 3.25866 7
      vertex 25.1832 6.46594 7
    endloop
  endfacet
  facet normal 0 0 1
    outer loop
      vertex 26 0 7
      vertex 20 0 7
      vertex 25.795 -3.25866 7
    endloop
  endfacet
  facet normal 0 0 1
    outer loop
      vertex 19.3717 4.9738 7
      vertex 25.1832 6.46594 7
      vertex 24.1742 9.57124 7
    endloop
  endfacet
  facet normal -0 0 1
    outer loop
      vertex 19.8423 -2.50666 7
      vertex 25.795 -3.25866 7
      vertex 20 0 7
    endloop
  endfacet
  facet normal 0 0 1
    outer loop
      vertex 18.5955 7.36249 7
      vertex 24.1742 9.57124 7
      vertex 22.784 12.5256 7
    endloop
  endfacet
  facet normal 0 0 1
    outer loop
      vertex 25.795 -3.25866 7
      vertex 19.8423 -2.50666 7
      vertex 25.1832 -6.46594 7
    endloop
  endfacet
  facet normal 0 0 1
    outer loop
      vertex 17.5261 9.63507 7
      vertex 22.784 12.5256 7
      vertex 21.0344 15.2824 7
    endloop
  endfacet
  facet normal -0 0 1
    outer loop
      vertex 19.3717 -4.9738 7
      vertex 25.1832 -6.46594 7
      vertex 19.8423 -2.50666 7
    endloop
  endfacet
  facet normal 0 0 1
    outer loop
      vertex 25.1832 -6.46594 7
      vertex 19.3717 -4.9738 7
      vertex 24.1742 -9.57124 7
    endloop
  endfacet
  facet normal 0 0 1
    outer loop
      vertex 25.795 3.25866 7
      vertex 19.8423 2.50666 7
      vertex 20 0 7
    endloop
  endfacet
  facet normal 0 0 1
    outer loop
      vertex 25.1832 6.46594 7
      vertex 19.3717 4.9738 7
      vertex 19.8423 2.50666 7
    endloop
  endfacet
  facet normal 0 0 1
    outer loop
      vertex 16.1803 11.7557 7
      vertex 21.0344 15.2824 7
      vertex 18.9532 17.7982 7
    endloop
  endfacet
  facet normal 0 0 1
    outer loop
      vertex 24.1742 9.57124 7
      vertex 18.5955 7.36249 7
      vertex 19.3717 4.9738 7
    endloop
  endfacet
  facet normal 0 0 1
    outer loop
      vertex 22.784 12.5256 7
      vertex 17.5261 9.63507 7
      vertex 18.5955 7.36249 7
    endloop
  endfacet
  facet normal 0 0 1
    outer loop
      vertex 14.5794 13.6909 7
      vertex 18.9532 17.7982 7
      vertex 16.573 20.0333 7
    endloop
  endfacet
  facet normal 0 0 1
    outer loop
      vertex 21.0344 15.2824 7
      vertex 16.1803 11.7557 7
      vertex 17.5261 9.63507 7
    endloop
  endfacet
  facet normal 0 0 1
    outer loop
      vertex 18.9532 17.7982 7
      vertex 14.5794 13.6909 7
      vertex 16.1803 11.7557 7
    endloop
  endfacet
  facet normal 0 0 1
    outer loop
      vertex 12.7485 15.4103 7
      vertex 16.573 20.0333 7
      vertex 13.9315 21.9525 7
    endloop
  endfacet
  facet normal 0 0 1
    outer loop
      vertex 16.573 20.0333 7
      vertex 12.7485 15.4103 7
      vertex 14.5794 13.6909 7
    endloop
  endfacet
  facet normal 0 0 1
    outer loop
      vertex 10.7165 16.8866 7
      vertex 13.9315 21.9525 7
      vertex 11.0703 23.5255 7
    endloop
  endfacet
  facet normal 0 0 1
    outer loop
      vertex 13.9315 21.9525 7
      vertex 10.7165 16.8866 7
      vertex 12.7485 15.4103 7
    endloop
  endfacet
  facet normal 0 0 1
    outer loop
      vertex 11.0703 23.5255 7
      vertex 8.51558 18.0965 7
      vertex 10.7165 16.8866 7
    endloop
  endfacet
  facet normal 0 0 1
    outer loop
      vertex 8.03444 24.7275 7
      vertex 8.51558 18.0965 7
      vertex 11.0703 23.5255 7
    endloop
  endfacet
  facet normal 0 0 1
    outer loop
      vertex 8.03444 24.7275 7
      vertex 6.18034 19.0211 7
      vertex 8.51558 18.0965 7
    endloop
  endfacet
  facet normal 0 0 1
    outer loop
      vertex 4.87191 25.5395 7
      vertex 6.18034 19.0211 7
      vertex 8.03444 24.7275 7
    endloop
  endfacet
  facet normal 0 0 1
    outer loop
      vertex 4.87191 25.5395 7
      vertex 3.74763 19.6457 7
      vertex 6.18034 19.0211 7
    endloop
  endfacet
  facet normal 0 0 1
    outer loop
      vertex 1.63255 25.9487 7
      vertex 3.74763 19.6457 7
      vertex 4.87191 25.5395 7
    endloop
  endfacet
  facet normal 0 0 1
    outer loop
      vertex 1.63255 25.9487 7
      vertex 1.25581 19.9605 7
      vertex 3.74763 19.6457 7
    endloop
  endfacet
  facet normal 0 0 1
    outer loop
      vertex 1.63255 25.9487 7
      vertex -1.25581 19.9605 7
      vertex 1.25581 19.9605 7
    endloop
  endfacet
  facet normal -0 0 1
    outer loop
      vertex -1.63255 25.9487 7
      vertex -1.25581 19.9605 7
      vertex 1.63255 25.9487 7
    endloop
  endfacet
  facet normal 0 0 1
    outer loop
      vertex -1.63255 25.9487 7
      vertex -3.74763 19.6457 7
      vertex -1.25581 19.9605 7
    endloop
  endfacet
  facet normal -0 0 1
    outer loop
      vertex -4.87191 25.5395 7
      vertex -3.74763 19.6457 7
      vertex -1.63255 25.9487 7
    endloop
  endfacet
  facet normal 0 0 1
    outer loop
      vertex -4.87191 25.5395 7
      vertex -6.18034 19.0211 7
      vertex -3.74763 19.6457 7
    endloop
  endfacet
  facet normal -0 0 1
    outer loop
      vertex -8.03444 24.7275 7
      vertex -6.18034 19.0211 7
      vertex -4.87191 25.5395 7
    endloop
  endfacet
  facet normal 0 0 1
    outer loop
      vertex -8.03444 24.7275 7
      vertex -8.51558 18.0965 7
      vertex -6.18034 19.0211 7
    endloop
  endfacet
  facet normal -0 0 1
    outer loop
      vertex -11.0703 23.5255 7
      vertex -8.51558 18.0965 7
      vertex -8.03444 24.7275 7
    endloop
  endfacet
  facet normal 0 0 1
    outer loop
      vertex -8.51558 18.0965 7
      vertex -11.0703 23.5255 7
      vertex -10.7165 16.8866 7
    endloop
  endfacet
  facet normal -0 0 1
    outer loop
      vertex -13.9315 21.9525 7
      vertex -10.7165 16.8866 7
      vertex -11.0703 23.5255 7
    endloop
  endfacet
  facet normal 0 0 1
    outer loop
      vertex -10.7165 16.8866 7
      vertex -13.9315 21.9525 7
      vertex -12.7485 15.4103 7
    endloop
  endfacet
  facet normal -0 0 1
    outer loop
      vertex -16.573 20.0333 7
      vertex -12.7485 15.4103 7
      vertex -13.9315 21.9525 7
    endloop
  endfacet
  facet normal 0 0 1
    outer loop
      vertex -12.7485 15.4103 7
      vertex -16.573 20.0333 7
      vertex -14.5794 13.6909 7
    endloop
  endfacet
  facet normal -0 0 1
    outer loop
      vertex -18.9532 17.7982 7
      vertex -14.5794 13.6909 7
      vertex -16.573 20.0333 7
    endloop
  endfacet
  facet normal 0 0 1
    outer loop
      vertex -14.5794 13.6909 7
      vertex -18.9532 17.7982 7
      vertex -16.1803 11.7557 7
    endloop
  endfacet
  facet normal -0 0 1
    outer loop
      vertex -21.0344 15.2824 7
      vertex -16.1803 11.7557 7
      vertex -18.9532 17.7982 7
    endloop
  endfacet
  facet normal 0 0 1
    outer loop
      vertex -16.1803 11.7557 7
      vertex -21.0344 15.2824 7
      vertex -17.5261 9.63507 7
    endloop
  endfacet
  facet normal -0 0 1
    outer loop
      vertex -22.784 12.5256 7
      vertex -17.5261 9.63507 7
      vertex -21.0344 15.2824 7
    endloop
  endfacet
  facet normal 0 0 1
    outer loop
      vertex -17.5261 9.63507 7
      vertex -22.784 12.5256 7
      vertex -18.5955 7.36249 7
    endloop
  endfacet
  facet normal -0 0 1
    outer loop
      vertex -24.1742 9.57124 7
      vertex -18.5955 7.36249 7
      vertex -22.784 12.5256 7
    endloop
  endfacet
  facet normal 0 0 1
    outer loop
      vertex -18.5955 7.36249 7
      vertex -24.1742 9.57124 7
      vertex -19.3717 4.9738 7
    endloop
  endfacet
  facet normal -0 0 1
    outer loop
      vertex 18.5955 -7.36249 7
      vertex 24.1742 -9.57124 7
      vertex 19.3717 -4.9738 7
    endloop
  endfacet
  facet normal 0 0 1
    outer loop
      vertex 24.1742 -9.57124 7
      vertex 18.5955 -7.36249 7
      vertex 22.784 -12.5256 7
    endloop
  endfacet
  facet normal -0 0 1
    outer loop
      vertex 17.5261 -9.63507 7
      vertex 22.784 -12.5256 7
      vertex 18.5955 -7.36249 7
    endloop
  endfacet
  facet normal 0 0 1
    outer loop
      vertex 22.784 -12.5256 7
      vertex 17.5261 -9.63507 7
      vertex 21.0344 -15.2824 7
    endloop
  endfacet
  facet normal -0 0 1
    outer loop
      vertex 16.1803 -11.7557 7
      vertex 21.0344 -15.2824 7
      vertex 17.5261 -9.63507 7
    endloop
  endfacet
  facet normal 0 0 1
    outer loop
      vertex 21.0344 -15.2824 7
      vertex 16.1803 -11.7557 7
      vertex 18.9532 -17.7982 7
    endloop
  endfacet
  facet normal -0 0 1
    outer loop
      vertex 14.5794 -13.6909 7
      vertex 18.9532 -17.7982 7
      vertex 16.1803 -11.7557 7
    endloop
  endfacet
  facet normal 0 0 1
    outer loop
      vertex 18.9532 -17.7982 7
      vertex 14.5794 -13.6909 7
      vertex 16.573 -20.0333 7
    endloop
  endfacet
  facet normal -0 0 1
    outer loop
      vertex 12.7485 -15.4103 7
      vertex 16.573 -20.0333 7
      vertex 14.5794 -13.6909 7
    endloop
  endfacet
  facet normal 0 0 1
    outer loop
      vertex 16.573 -20.0333 7
      vertex 12.7485 -15.4103 7
      vertex 13.9315 -21.9525 7
    endloop
  endfacet
  facet normal -0 0 1
    outer loop
      vertex 10.7165 -16.8866 7
      vertex 13.9315 -21.9525 7
      vertex 12.7485 -15.4103 7
    endloop
  endfacet
  facet normal 0 0 1
    outer loop
      vertex 13.9315 -21.9525 7
      vertex 10.7165 -16.8866 7
      vertex 11.0703 -23.5255 7
    endloop
  endfacet
  facet normal -0 0 1
    outer loop
      vertex 8.51558 -18.0965 7
      vertex 11.0703 -23.5255 7
      vertex 10.7165 -16.8866 7
    endloop
  endfacet
  facet normal 0 0 1
    outer loop
      vertex 8.51558 -18.0965 7
      vertex 8.03444 -24.7275 7
      vertex 11.0703 -23.5255 7
    endloop
  endfacet
  facet normal -0 0 1
    outer loop
      vertex 6.18034 -19.0211 7
      vertex 8.03444 -24.7275 7
      vertex 8.51558 -18.0965 7
    endloop
  endfacet
  facet normal 0 0 1
    outer loop
      vertex 6.18034 -19.0211 7
      vertex 4.87191 -25.5395 7
      vertex 8.03444 -24.7275 7
    endloop
  endfacet
  facet normal -0 0 1
    outer loop
      vertex 3.74763 -19.6457 7
      vertex 4.87191 -25.5395 7
      vertex 6.18034 -19.0211 7
    endloop
  endfacet
  facet normal 0 0 1
    outer loop
      vertex 3.74763 -19.6457 7
      vertex 1.63255 -25.9487 7
      vertex 4.87191 -25.5395 7
    endloop
  endfacet
  facet normal -0 0 1
    outer loop
      vertex 1.25581 -19.9605 7
      vertex 1.63255 -25.9487 7
      vertex 3.74763 -19.6457 7
    endloop
  endfacet
  facet normal -0 0 1
    outer loop
      vertex -1.25581 -19.9605 7
      vertex 1.63255 -25.9487 7
      vertex 1.25581 -19.9605 7
    endloop
  endfacet
  facet normal 0 0 1
    outer loop
      vertex -1.25581 -19.9605 7
      vertex -1.63255 -25.9487 7
      vertex 1.63255 -25.9487 7
    endloop
  endfacet
  facet normal 0 0 1
    outer loop
      vertex -3.74763 -19.6457 7
      vertex -1.63255 -25.9487 7
      vertex -1.25581 -19.9605 7
    endloop
  endfacet
  facet normal 0 0 1
    outer loop
      vertex -3.74763 -19.6457 7
      vertex -4.87191 -25.5395 7
      vertex -1.63255 -25.9487 7
    endloop
  endfacet
  facet normal 0 0 1
    outer loop
      vertex -6.18034 -19.0211 7
      vertex -4.87191 -25.5395 7
      vertex -3.74763 -19.6457 7
    endloop
  endfacet
  facet normal 0 0 1
    outer loop
      vertex -6.18034 -19.0211 7
      vertex -8.03444 -24.7275 7
      vertex -4.87191 -25.5395 7
    endloop
  endfacet
  facet normal 0 0 1
    outer loop
      vertex -8.51558 -18.0965 7
      vertex -8.03444 -24.7275 7
      vertex -6.18034 -19.0211 7
    endloop
  endfacet
  facet normal 0 0 1
    outer loop
      vertex -11.0703 -23.5255 7
      vertex -8.51558 -18.0965 7
      vertex -10.7165 -16.8866 7
    endloop
  endfacet
  facet normal 0 0 1
    outer loop
      vertex -8.51558 -18.0965 7
      vertex -11.0703 -23.5255 7
      vertex -8.03444 -24.7275 7
    endloop
  endfacet
  facet normal 0 0 1
    outer loop
      vertex -13.9315 -21.9525 7
      vertex -10.7165 -16.8866 7
      vertex -12.7485 -15.4103 7
    endloop
  endfacet
  facet normal 0 0 1
    outer loop
      vertex -10.7165 -16.8866 7
      vertex -13.9315 -21.9525 7
      vertex -11.0703 -23.5255 7
    endloop
  endfacet
  facet normal 0 0 1
    outer loop
      vertex -16.573 -20.0333 7
      vertex -12.7485 -15.4103 7
      vertex -14.5794 -13.6909 7
    endloop
  endfacet
  facet normal 0 0 1
    outer loop
      vertex -18.9532 -17.7982 7
      vertex -14.5794 -13.6909 7
      vertex -16.1803 -11.7557 7
    endloop
  endfacet
  facet normal 0 0 1
    outer loop
      vertex -12.7485 -15.4103 7
      vertex -16.573 -20.0333 7
      vertex -13.9315 -21.9525 7
    endloop
  endfacet
  facet normal 0 0 1
    outer loop
      vertex -21.0344 -15.2824 7
      vertex -16.1803 -11.7557 7
      vertex -17.5261 -9.63507 7
    endloop
  endfacet
  facet normal 0 0 1
    outer loop
      vertex -22.784 -12.5256 7
      vertex -17.5261 -9.63507 7
      vertex -18.5955 -7.36249 7
    endloop
  endfacet
  facet normal 0 0 1
    outer loop
      vertex -14.5794 -13.6909 7
      vertex -18.9532 -17.7982 7
      vertex -16.573 -20.0333 7
    endloop
  endfacet
  facet normal 0 0 1
    outer loop
      vertex -24.1742 -9.57124 7
      vertex -18.5955 -7.36249 7
      vertex -19.3717 -4.9738 7
    endloop
  endfacet
  facet normal 0 0 1
    outer loop
      vertex -25.1832 -6.46594 7
      vertex -19.3717 -4.9738 7
      vertex -19.8423 -2.50666 7
    endloop
  endfacet
  facet normal 0 0 1
    outer loop
      vertex -25.795 -3.25866 7
      vertex -19.8423 -2.50666 7
      vertex -20 0 7
    endloop
  endfacet
  facet normal -0 0 1
    outer loop
      vertex -25.1832 6.46594 7
      vertex -19.3717 4.9738 7
      vertex -24.1742 9.57124 7
    endloop
  endfacet
  facet normal 0 0 1
    outer loop
      vertex -16.1803 -11.7557 7
      vertex -21.0344 -15.2824 7
      vertex -18.9532 -17.7982 7
    endloop
  endfacet
  facet normal 0 0 1
    outer loop
      vertex -19.3717 4.9738 7
      vertex -25.1832 6.46594 7
      vertex -19.8423 2.50666 7
    endloop
  endfacet
  facet normal 0 0 1
    outer loop
      vertex -17.5261 -9.63507 7
      vertex -22.784 -12.5256 7
      vertex -21.0344 -15.2824 7
    endloop
  endfacet
  facet normal -0 0 1
    outer loop
      vertex -25.795 3.25866 7
      vertex -19.8423 2.50666 7
      vertex -25.1832 6.46594 7
    endloop
  endfacet
  facet normal 0 0 1
    outer loop
      vertex -18.5955 -7.36249 7
      vertex -24.1742 -9.57124 7
      vertex -22.784 -12.5256 7
    endloop
  endfacet
  facet normal 0 0 1
    outer loop
      vertex -19.8423 2.50666 7
      vertex -25.795 3.25866 7
      vertex -20 0 7
    endloop
  endfacet
  facet normal 0 0 1
    outer loop
      vertex -19.3717 -4.9738 7
      vertex -25.1832 -6.46594 7
      vertex -24.1742 -9.57124 7
    endloop
  endfacet
  facet normal 0 0 1
    outer loop
      vertex -26 0 7
      vertex -20 0 7
      vertex -25.795 3.25866 7
    endloop
  endfacet
  facet normal 0 0 1
    outer loop
      vertex -19.8423 -2.50666 7
      vertex -25.795 -3.25866 7
      vertex -25.1832 -6.46594 7
    endloop
  endfacet
  facet normal 0 0 1
    outer loop
      vertex -20 0 7
      vertex -26 0 7
      vertex -25.795 -3.25866 7
    endloop
  endfacet
  facet normal -0.125325 0.992116 0
    outer loop
      vertex -1.63255 25.9487 0
      vertex -4.87191 25.5395 7
      vertex -1.63255 25.9487 7
    endloop
  endfacet
  facet normal -0.125325 0.992116 0
    outer loop
      vertex -4.87191 25.5395 7
      vertex -1.63255 25.9487 0
      vertex -4.87191 25.5395 0
    endloop
  endfacet
  facet normal 0 0 -1
    outer loop
      vertex 20 0 0
      vertex 26 0 0
      vertex 25.795 -3.25866 0
    endloop
  endfacet
  facet normal 0 0 -1
    outer loop
      vertex 19.8423 -2.50666 0
      vertex 25.795 -3.25866 0
      vertex 25.1832 -6.46594 0
    endloop
  endfacet
  facet normal 0 0 -1
    outer loop
      vertex 26 0 0
      vertex 20 0 0
      vertex 25.795 3.25866 0
    endloop
  endfacet
  facet normal 0 0 -1
    outer loop
      vertex 19.3717 -4.9738 0
      vertex 25.1832 -6.46594 0
      vertex 24.1742 -9.57124 0
    endloop
  endfacet
  facet normal 0 0 -1
    outer loop
      vertex 19.8423 2.50666 0
      vertex 25.795 3.25866 0
      vertex 20 0 0
    endloop
  endfacet
  facet normal 0 0 -1
    outer loop
      vertex 18.5955 -7.36249 0
      vertex 24.1742 -9.57124 0
      vertex 22.784 -12.5256 0
    endloop
  endfacet
  facet normal -0 0 -1
    outer loop
      vertex 25.795 3.25866 0
      vertex 19.8423 2.50666 0
      vertex 25.1832 6.46594 0
    endloop
  endfacet
  facet normal 0 0 -1
    outer loop
      vertex 17.5261 -9.63507 0
      vertex 22.784 -12.5256 0
      vertex 21.0344 -15.2824 0
    endloop
  endfacet
  facet normal 0 0 -1
    outer loop
      vertex 19.3717 4.9738 0
      vertex 25.1832 6.46594 0
      vertex 19.8423 2.50666 0
    endloop
  endfacet
  facet normal -0 0 -1
    outer loop
      vertex 25.1832 6.46594 0
      vertex 19.3717 4.9738 0
      vertex 24.1742 9.57124 0
    endloop
  endfacet
  facet normal 0 0 -1
    outer loop
      vertex 25.795 -3.25866 0
      vertex 19.8423 -2.50666 0
      vertex 20 0 0
    endloop
  endfacet
  facet normal 0 0 -1
    outer loop
      vertex 25.1832 -6.46594 0
      vertex 19.3717 -4.9738 0
      vertex 19.8423 -2.50666 0
    endloop
  endfacet
  facet normal 0 0 -1
    outer loop
      vertex 16.1803 -11.7557 0
      vertex 21.0344 -15.2824 0
      vertex 18.9532 -17.7982 0
    endloop
  endfacet
  facet normal 0 0 -1
    outer loop
      vertex 24.1742 -9.57124 0
      vertex 18.5955 -7.36249 0
      vertex 19.3717 -4.9738 0
    endloop
  endfacet
  facet normal 0 0 -1
    outer loop
      vertex 22.784 -12.5256 0
      vertex 17.5261 -9.63507 0
      vertex 18.5955 -7.36249 0
    endloop
  endfacet
  facet normal 0 0 -1
    outer loop
      vertex 14.5794 -13.6909 0
      vertex 18.9532 -17.7982 0
      vertex 16.573 -20.0333 0
    endloop
  endfacet
  facet normal 0 0 -1
    outer loop
      vertex 21.0344 -15.2824 0
      vertex 16.1803 -11.7557 0
      vertex 17.5261 -9.63507 0
    endloop
  endfacet
  facet normal 0 0 -1
    outer loop
      vertex 18.9532 -17.7982 0
      vertex 14.5794 -13.6909 0
      vertex 16.1803 -11.7557 0
    endloop
  endfacet
  facet normal 0 0 -1
    outer loop
      vertex 12.7485 -15.4103 0
      vertex 16.573 -20.0333 0
      vertex 13.9315 -21.9525 0
    endloop
  endfacet
  facet normal 0 0 -1
    outer loop
      vertex 16.573 -20.0333 0
      vertex 12.7485 -15.4103 0
      vertex 14.5794 -13.6909 0
    endloop
  endfacet
  facet normal 0 0 -1
    outer loop
      vertex 10.7165 -16.8866 0
      vertex 13.9315 -21.9525 0
      vertex 11.0703 -23.5255 0
    endloop
  endfacet
  facet normal 0 0 -1
    outer loop
      vertex 13.9315 -21.9525 0
      vertex 10.7165 -16.8866 0
      vertex 12.7485 -15.4103 0
    endloop
  endfacet
  facet normal 0 0 -1
    outer loop
      vertex 11.0703 -23.5255 0
      vertex 8.51558 -18.0965 0
      vertex 10.7165 -16.8866 0
    endloop
  endfacet
  facet normal 0 0 -1
    outer loop
      vertex 8.03444 -24.7275 0
      vertex 8.51558 -18.0965 0
      vertex 11.0703 -23.5255 0
    endloop
  endfacet
  facet normal 0 0 -1
    outer loop
      vertex 8.03444 -24.7275 0
      vertex 6.18034 -19.0211 0
      vertex 8.51558 -18.0965 0
    endloop
  endfacet
  facet normal 0 0 -1
    outer loop
      vertex 4.87191 -25.5395 0
      vertex 6.18034 -19.0211 0
      vertex 8.03444 -24.7275 0
    endloop
  endfacet
  facet normal 0 0 -1
    outer loop
      vertex 4.87191 -25.5395 0
      vertex 3.74763 -19.6457 0
      vertex 6.18034 -19.0211 0
    endloop
  endfacet
  facet normal 0 0 -1
    outer loop
      vertex 1.63255 -25.9487 0
      vertex 3.74763 -19.6457 0
      vertex 4.87191 -25.5395 0
    endloop
  endfacet
  facet normal 0 0 -1
    outer loop
      vertex 1.63255 -25.9487 0
      vertex 1.25581 -19.9605 0
      vertex 3.74763 -19.6457 0
    endloop
  endfacet
  facet normal 0 0 -1
    outer loop
      vertex 1.63255 -25.9487 0
      vertex -1.25581 -19.9605 0
      vertex 1.25581 -19.9605 0
    endloop
  endfacet
  facet normal 0 0 -1
    outer loop
      vertex -1.63255 -25.9487 0
      vertex -1.25581 -19.9605 0
      vertex 1.63255 -25.9487 0
    endloop
  endfacet
  facet normal 0 0 -1
    outer loop
      vertex -1.63255 -25.9487 0
      vertex -3.74763 -19.6457 0
      vertex -1.25581 -19.9605 0
    endloop
  endfacet
  facet normal 0 0 -1
    outer loop
      vertex -4.87191 -25.5395 0
      vertex -3.74763 -19.6457 0
      vertex -1.63255 -25.9487 0
    endloop
  endfacet
  facet normal 0 0 -1
    outer loop
      vertex -4.87191 -25.5395 0
      vertex -6.18034 -19.0211 0
      vertex -3.74763 -19.6457 0
    endloop
  endfacet
  facet normal 0 0 -1
    outer loop
      vertex -8.03444 -24.7275 0
      vertex -6.18034 -19.0211 0
      vertex -4.87191 -25.5395 0
    endloop
  endfacet
  facet normal 0 0 -1
    outer loop
      vertex -8.03444 -24.7275 0
      vertex -8.51558 -18.0965 0
      vertex -6.18034 -19.0211 0
    endloop
  endfacet
  facet normal 0 0 -1
    outer loop
      vertex -11.0703 -23.5255 0
      vertex -8.51558 -18.0965 0
      vertex -8.03444 -24.7275 0
    endloop
  endfacet
  facet normal -0 0 -1
    outer loop
      vertex -8.51558 -18.0965 0
      vertex -11.0703 -23.5255 0
      vertex -10.7165 -16.8866 0
    endloop
  endfacet
  facet normal 0 0 -1
    outer loop
      vertex -13.9315 -21.9525 0
      vertex -10.7165 -16.8866 0
      vertex -11.0703 -23.5255 0
    endloop
  endfacet
  facet normal -0 0 -1
    outer loop
      vertex -10.7165 -16.8866 0
      vertex -13.9315 -21.9525 0
      vertex -12.7485 -15.4103 0
    endloop
  endfacet
  facet normal 0 0 -1
    outer loop
      vertex -16.573 -20.0333 0
      vertex -12.7485 -15.4103 0
      vertex -13.9315 -21.9525 0
    endloop
  endfacet
  facet normal -0 0 -1
    outer loop
      vertex -12.7485 -15.4103 0
      vertex -16.573 -20.0333 0
      vertex -14.5794 -13.6909 0
    endloop
  endfacet
  facet normal 0 0 -1
    outer loop
      vertex -18.9532 -17.7982 0
      vertex -14.5794 -13.6909 0
      vertex -16.573 -20.0333 0
    endloop
  endfacet
  facet normal -0 0 -1
    outer loop
      vertex -14.5794 -13.6909 0
      vertex -18.9532 -17.7982 0
      vertex -16.1803 -11.7557 0
    endloop
  endfacet
  facet normal 0 0 -1
    outer loop
      vertex -21.0344 -15.2824 0
      vertex -16.1803 -11.7557 0
      vertex -18.9532 -17.7982 0
    endloop
  endfacet
  facet normal -0 0 -1
    outer loop
      vertex -16.1803 -11.7557 0
      vertex -21.0344 -15.2824 0
      vertex -17.5261 -9.63507 0
    endloop
  endfacet
  facet normal 0 0 -1
    outer loop
      vertex -22.784 -12.5256 0
      vertex -17.5261 -9.63507 0
      vertex -21.0344 -15.2824 0
    endloop
  endfacet
  facet normal -0 0 -1
    outer loop
      vertex -17.5261 -9.63507 0
      vertex -22.784 -12.5256 0
      vertex -18.5955 -7.36249 0
    endloop
  endfacet
  facet normal 0 0 -1
    outer loop
      vertex -24.1742 -9.57124 0
      vertex -18.5955 -7.36249 0
      vertex -22.784 -12.5256 0
    endloop
  endfacet
  facet normal -0 0 -1
    outer loop
      vertex -18.5955 -7.36249 0
      vertex -24.1742 -9.57124 0
      vertex -19.3717 -4.9738 0
    endloop
  endfacet
  facet normal 0 0 -1
    outer loop
      vertex 18.5955 7.36249 0
      vertex 24.1742 9.57124 0
      vertex 19.3717 4.9738 0
    endloop
  endfacet
  facet normal -0 0 -1
    outer loop
      vertex 24.1742 9.57124 0
      vertex 18.5955 7.36249 0
      vertex 22.784 12.5256 0
    endloop
  endfacet
  facet normal 0 0 -1
    outer loop
      vertex 17.5261 9.63507 0
      vertex 22.784 12.5256 0
      vertex 18.5955 7.36249 0
    endloop
  endfacet
  facet normal -0 0 -1
    outer loop
      vertex 22.784 12.5256 0
      vertex 17.5261 9.63507 0
      vertex 21.0344 15.2824 0
    endloop
  endfacet
  facet normal 0 0 -1
    outer loop
      vertex 16.1803 11.7557 0
      vertex 21.0344 15.2824 0
      vertex 17.5261 9.63507 0
    endloop
  endfacet
  facet normal -0 0 -1
    outer loop
      vertex 21.0344 15.2824 0
      vertex 16.1803 11.7557 0
      vertex 18.9532 17.7982 0
    endloop
  endfacet
  facet normal 0 0 -1
    outer loop
      vertex 14.5794 13.6909 0
      vertex 18.9532 17.7982 0
      vertex 16.1803 11.7557 0
    endloop
  endfacet
  facet normal -0 0 -1
    outer loop
      vertex 18.9532 17.7982 0
      vertex 14.5794 13.6909 0
      vertex 16.573 20.0333 0
    endloop
  endfacet
  facet normal 0 0 -1
    outer loop
      vertex 12.7485 15.4103 0
      vertex 16.573 20.0333 0
      vertex 14.5794 13.6909 0
    endloop
  endfacet
  facet normal -0 0 -1
    outer loop
      vertex 16.573 20.0333 0
      vertex 12.7485 15.4103 0
      vertex 13.9315 21.9525 0
    endloop
  endfacet
  facet normal 0 0 -1
    outer loop
      vertex 10.7165 16.8866 0
      vertex 13.9315 21.9525 0
      vertex 12.7485 15.4103 0
    endloop
  endfacet
  facet normal -0 0 -1
    outer loop
      vertex 13.9315 21.9525 0
      vertex 10.7165 16.8866 0
      vertex 11.0703 23.5255 0
    endloop
  endfacet
  facet normal 0 0 -1
    outer loop
      vertex 8.51558 18.0965 0
      vertex 11.0703 23.5255 0
      vertex 10.7165 16.8866 0
    endloop
  endfacet
  facet normal 0 0 -1
    outer loop
      vertex 8.51558 18.0965 0
      vertex 8.03444 24.7275 0
      vertex 11.0703 23.5255 0
    endloop
  endfacet
  facet normal 0 0 -1
    outer loop
      vertex 6.18034 19.0211 0
      vertex 8.03444 24.7275 0
      vertex 8.51558 18.0965 0
    endloop
  endfacet
  facet normal 0 0 -1
    outer loop
      vertex 6.18034 19.0211 0
      vertex 4.87191 25.5395 0
      vertex 8.03444 24.7275 0
    endloop
  endfacet
  facet normal 0 0 -1
    outer loop
      vertex 3.74763 19.6457 0
      vertex 4.87191 25.5395 0
      vertex 6.18034 19.0211 0
    endloop
  endfacet
  facet normal 0 0 -1
    outer loop
      vertex 3.74763 19.6457 0
      vertex 1.63255 25.9487 0
      vertex 4.87191 25.5395 0
    endloop
  endfacet
  facet normal 0 0 -1
    outer loop
      vertex 1.25581 19.9605 0
      vertex 1.63255 25.9487 0
      vertex 3.74763 19.6457 0
    endloop
  endfacet
  facet normal 0 0 -1
    outer loop
      vertex -1.25581 19.9605 0
      vertex 1.63255 25.9487 0
      vertex 1.25581 19.9605 0
    endloop
  endfacet
  facet normal 0 0 -1
    outer loop
      vertex -1.25581 19.9605 0
      vertex -1.63255 25.9487 0
      vertex 1.63255 25.9487 0
    endloop
  endfacet
  facet normal 0 0 -1
    outer loop
      vertex -3.74763 19.6457 0
      vertex -1.63255 25.9487 0
      vertex -1.25581 19.9605 0
    endloop
  endfacet
  facet normal 0 0 -1
    outer loop
      vertex -3.74763 19.6457 0
      vertex -4.87191 25.5395 0
      vertex -1.63255 25.9487 0
    endloop
  endfacet
  facet normal 0 0 -1
    outer loop
      vertex -6.18034 19.0211 0
      vertex -4.87191 25.5395 0
      vertex -3.74763 19.6457 0
    endloop
  endfacet
  facet normal 0 0 -1
    outer loop
      vertex -6.18034 19.0211 0
      vertex -8.03444 24.7275 0
      vertex -4.87191 25.5395 0
    endloop
  endfacet
  facet normal 0 0 -1
    outer loop
      vertex -8.51558 18.0965 0
      vertex -8.03444 24.7275 0
      vertex -6.18034 19.0211 0
    endloop
  endfacet
  facet normal 0 0 -1
    outer loop
      vertex -11.0703 23.5255 0
      vertex -8.51558 18.0965 0
      vertex -10.7165 16.8866 0
    endloop
  endfacet
  facet normal 0 0 -1
    outer loop
      vertex -8.51558 18.0965 0
      vertex -11.0703 23.5255 0
      vertex -8.03444 24.7275 0
    endloop
  endfacet
  facet normal 0 0 -1
    outer loop
      vertex -13.9315 21.9525 0
      vertex -10.7165 16.8866 0
      vertex -12.7485 15.4103 0
    endloop
  endfacet
  facet normal 0 0 -1
    outer loop
      vertex -10.7165 16.8866 0
      vertex -13.9315 21.9525 0
      vertex -11.0703 23.5255 0
    endloop
  endfacet
  facet normal 0 0 -1
    outer loop
      vertex -16.573 20.0333 0
      vertex -12.7485 15.4103 0
      vertex -14.5794 13.6909 0
    endloop
  endfacet
  facet normal 0 0 -1
    outer loop
      vertex -18.9532 17.7982 0
      vertex -14.5794 13.6909 0
      vertex -16.1803 11.7557 0
    endloop
  endfacet
  facet normal 0 0 -1
    outer loop
      vertex -12.7485 15.4103 0
      vertex -16.573 20.0333 0
      vertex -13.9315 21.9525 0
    endloop
  endfacet
  facet normal 0 0 -1
    outer loop
      vertex -21.0344 15.2824 0
      vertex -16.1803 11.7557 0
      vertex -17.5261 9.63507 0
    endloop
  endfacet
  facet normal 0 0 -1
    outer loop
      vertex -22.784 12.5256 0
      vertex -17.5261 9.63507 0
      vertex -18.5955 7.36249 0
    endloop
  endfacet
  facet normal 0 0 -1
    outer loop
      vertex -14.5794 13.6909 0
      vertex -18.9532 17.7982 0
      vertex -16.573 20.0333 0
    endloop
  endfacet
  facet normal 0 0 -1
    outer loop
      vertex -24.1742 9.57124 0
      vertex -18.5955 7.36249 0
      vertex -19.3717 4.9738 0
    endloop
  endfacet
  facet normal 0 0 -1
    outer loop
      vertex -25.1832 6.46594 0
      vertex -19.3717 4.9738 0
      vertex -19.8423 2.50666 0
    endloop
  endfacet
  facet normal 0 0 -1
    outer loop
      vertex -25.795 3.25866 0
      vertex -19.8423 2.50666 0
      vertex -20 0 0
    endloop
  endfacet
  facet normal 0 0 -1
    outer loop
      vertex -25.1832 -6.46594 0
      vertex -19.3717 -4.9738 0
      vertex -24.1742 -9.57124 0
    endloop
  endfacet
  facet normal 0 0 -1
    outer loop
      vertex -16.1803 11.7557 0
      vertex -21.0344 15.2824 0
      vertex -18.9532 17.7982 0
    endloop
  endfacet
  facet normal -0 0 -1
    outer loop
      vertex -19.3717 -4.9738 0
      vertex -25.1832 -6.46594 0
      vertex -19.8423 -2.50666 0
    endloop
  endfacet
  facet normal 0 0 -1
    outer loop
      vertex -17.5261 9.63507 0
      vertex -22.784 12.5256 0
      vertex -21.0344 15.2824 0
    endloop
  endfacet
  facet normal 0 0 -1
    outer loop
      vertex -25.795 -3.25866 0
      vertex -19.8423 -2.50666 0
      vertex -25.1832 -6.46594 0
    endloop
  endfacet
  facet normal 0 0 -1
    outer loop
      vertex -18.5955 7.36249 0
      vertex -24.1742 9.57124 0
      vertex -22.784 12.5256 0
    endloop
  endfacet
  facet normal -0 0 -1
    outer loop
      vertex -19.8423 -2.50666 0
      vertex -25.795 -3.25866 0
      vertex -20 0 0
    endloop
  endfacet
  facet normal 0 0 -1
    outer loop
      vertex -19.3717 4.9738 0
      vertex -25.1832 6.46594 0
      vertex -24.1742 9.57124 0
    endloop
  endfacet
  facet normal 0 0 -1
    outer loop
      vertex -26 0 0
      vertex -20 0 0
      vertex -25.795 -3.25866 0
    endloop
  endfacet
  facet normal 0 0 -1
    outer loop
      vertex -19.8423 2.50666 0
      vertex -25.795 3.25866 0
      vertex -25.1832 6.46594 0
    endloop
  endfacet
  facet normal 0 0 -1
    outer loop
      vertex -20 0 0
      vertex -26 0 0
      vertex -25.795 3.25866 0
    endloop
  endfacet
  facet normal 0.125325 -0.992116 0
    outer loop
      vertex 1.63255 -25.9487 0
      vertex 4.87191 -25.5395 7
      vertex 1.63255 -25.9487 7
    endloop
  endfacet
  facet normal 0.125325 -0.992116 0
    outer loop
      vertex 4.87191 -25.5395 7
      vertex 1.63255 -25.9487 0
      vertex 4.87191 -25.5395 0
    endloop
  endfacet
  facet normal 0.951054 0.309024 0
    outer loop
      vertex 25.1832 6.46594 7
      vertex 24.1742 9.57124 0
      vertex 24.1742 9.57124 7
    endloop
  endfacet
  facet normal 0.951054 0.309024 0
    outer loop
      vertex 24.1742 9.57124 0
      vertex 25.1832 6.46594 7
      vertex 25.1832 6.46594 0
    endloop
  endfacet
  facet normal 0.982288 0.187375 0
    outer loop
      vertex 25.795 3.25866 7
      vertex 25.1832 6.46594 0
      vertex 25.1832 6.46594 7
    endloop
  endfacet
  facet normal 0.982288 0.187375 0
    outer loop
      vertex 25.1832 6.46594 0
      vertex 25.795 3.25866 7
      vertex 25.795 3.25866 0
    endloop
  endfacet
  facet normal 0.770521 0.637415 0
    outer loop
      vertex 21.0344 15.2824 7
      vertex 18.9532 17.7982 0
      vertex 18.9532 17.7982 7
    endloop
  endfacet
  facet normal 0.770521 0.637415 0
    outer loop
      vertex 18.9532 17.7982 0
      vertex 21.0344 15.2824 7
      vertex 21.0344 15.2824 0
    endloop
  endfacet
  facet normal 0.844317 0.535845 0
    outer loop
      vertex 22.784 12.5256 7
      vertex 21.0344 15.2824 0
      vertex 21.0344 15.2824 7
    endloop
  endfacet
  facet normal 0.844317 0.535845 0
    outer loop
      vertex 21.0344 15.2824 0
      vertex 22.784 12.5256 7
      vertex 22.784 12.5256 0
    endloop
  endfacet
  facet normal 0.125325 0.992116 -0
    outer loop
      vertex 4.87191 25.5395 0
      vertex 1.63255 25.9487 7
      vertex 4.87191 25.5395 7
    endloop
  endfacet
  facet normal 0.125325 0.992116 0
    outer loop
      vertex 1.63255 25.9487 7
      vertex 4.87191 25.5395 0
      vertex 1.63255 25.9487 0
    endloop
  endfacet
  facet normal 0.587793 0.809011 -0
    outer loop
      vertex 16.573 20.0333 0
      vertex 13.9315 21.9525 7
      vertex 16.573 20.0333 7
    endloop
  endfacet
  facet normal 0.587793 0.809011 0
    outer loop
      vertex 13.9315 21.9525 7
      vertex 16.573 20.0333 0
      vertex 13.9315 21.9525 0
    endloop
  endfacet
  facet normal -0.844317 0.535845 0
    outer loop
      vertex -22.784 12.5256 0
      vertex -21.0344 15.2824 7
      vertex -21.0344 15.2824 0
    endloop
  endfacet
  facet normal -0.844317 0.535845 0
    outer loop
      vertex -21.0344 15.2824 7
      vertex -22.784 12.5256 0
      vertex -22.784 12.5256 7
    endloop
  endfacet
  facet normal -0.951054 0.309024 0
    outer loop
      vertex -25.1832 6.46594 0
      vertex -24.1742 9.57124 7
      vertex -24.1742 9.57124 0
    endloop
  endfacet
  facet normal -0.951054 0.309024 0
    outer loop
      vertex -24.1742 9.57124 7
      vertex -25.1832 6.46594 0
      vertex -25.1832 6.46594 7
    endloop
  endfacet
  facet normal -0.982288 0.187375 0
    outer loop
      vertex -25.795 3.25866 0
      vertex -25.1832 6.46594 7
      vertex -25.1832 6.46594 0
    endloop
  endfacet
  facet normal -0.982288 0.187375 0
    outer loop
      vertex -25.1832 6.46594 7
      vertex -25.795 3.25866 0
      vertex -25.795 3.25866 7
    endloop
  endfacet
  facet normal -0.481764 0.876301 0
    outer loop
      vertex -11.0703 23.5255 0
      vertex -13.9315 21.9525 7
      vertex -11.0703 23.5255 7
    endloop
  endfacet
  facet normal -0.481764 0.876301 0
    outer loop
      vertex -13.9315 21.9525 7
      vertex -11.0703 23.5255 0
      vertex -13.9315 21.9525 0
    endloop
  endfacet
  facet normal -0.587793 0.809011 0
    outer loop
      vertex -13.9315 21.9525 0
      vertex -16.573 20.0333 7
      vertex -13.9315 21.9525 7
    endloop
  endfacet
  facet normal -0.587793 0.809011 0
    outer loop
      vertex -16.573 20.0333 7
      vertex -13.9315 21.9525 0
      vertex -16.573 20.0333 0
    endloop
  endfacet
  facet normal -0.24869 0.968583 0
    outer loop
      vertex -4.87191 25.5395 0
      vertex -8.03444 24.7275 7
      vertex -4.87191 25.5395 7
    endloop
  endfacet
  facet normal -0.24869 0.968583 0
    outer loop
      vertex -8.03444 24.7275 7
      vertex -4.87191 25.5395 0
      vertex -8.03444 24.7275 0
    endloop
  endfacet
  facet normal 0.998027 -0.0627852 0
    outer loop
      vertex 25.795 -3.25866 7
      vertex 26 0 0
      vertex 26 0 7
    endloop
  endfacet
  facet normal 0.998027 -0.0627852 0
    outer loop
      vertex 26 0 0
      vertex 25.795 -3.25866 7
      vertex 25.795 -3.25866 0
    endloop
  endfacet
  facet normal 0.770521 -0.637415 0
    outer loop
      vertex 18.9532 -17.7982 7
      vertex 21.0344 -15.2824 0
      vertex 21.0344 -15.2824 7
    endloop
  endfacet
  facet normal 0.770521 -0.637415 0
    outer loop
      vertex 21.0344 -15.2824 0
      vertex 18.9532 -17.7982 7
      vertex 18.9532 -17.7982 0
    endloop
  endfacet
  facet normal -0.684538 -0.728977 0
    outer loop
      vertex -18.9532 -17.7982 0
      vertex -16.573 -20.0333 7
      vertex -18.9532 -17.7982 7
    endloop
  endfacet
  facet normal -0.684538 -0.728977 -0
    outer loop
      vertex -16.573 -20.0333 7
      vertex -18.9532 -17.7982 0
      vertex -16.573 -20.0333 0
    endloop
  endfacet
  facet normal -0.904829 -0.425775 0
    outer loop
      vertex -22.784 -12.5256 0
      vertex -24.1742 -9.57124 7
      vertex -24.1742 -9.57124 0
    endloop
  endfacet
  facet normal -0.904829 -0.425775 0
    outer loop
      vertex -24.1742 -9.57124 7
      vertex -22.784 -12.5256 0
      vertex -22.784 -12.5256 7
    endloop
  endfacet
  facet normal -0.770521 -0.637415 0
    outer loop
      vertex -18.9532 -17.7982 0
      vertex -21.0344 -15.2824 7
      vertex -21.0344 -15.2824 0
    endloop
  endfacet
  facet normal -0.770521 -0.637415 0
    outer loop
      vertex -21.0344 -15.2824 7
      vertex -18.9532 -17.7982 0
      vertex -18.9532 -17.7982 7
    endloop
  endfacet
  facet normal 0.481764 -0.876301 0
    outer loop
      vertex 11.0703 -23.5255 0
      vertex 13.9315 -21.9525 7
      vertex 11.0703 -23.5255 7
    endloop
  endfacet
  facet normal 0.481764 -0.876301 0
    outer loop
      vertex 13.9315 -21.9525 7
      vertex 11.0703 -23.5255 0
      vertex 13.9315 -21.9525 0
    endloop
  endfacet
  facet normal 0.951054 -0.309024 0
    outer loop
      vertex 24.1742 -9.57124 7
      vertex 25.1832 -6.46594 0
      vertex 25.1832 -6.46594 7
    endloop
  endfacet
  facet normal 0.951054 -0.309024 0
    outer loop
      vertex 25.1832 -6.46594 0
      vertex 24.1742 -9.57124 7
      vertex 24.1742 -9.57124 0
    endloop
  endfacet
  facet normal 0.844317 -0.535845 0
    outer loop
      vertex 21.0344 -15.2824 7
      vertex 22.784 -12.5256 0
      vertex 22.784 -12.5256 7
    endloop
  endfacet
  facet normal 0.844317 -0.535845 0
    outer loop
      vertex 22.784 -12.5256 0
      vertex 21.0344 -15.2824 7
      vertex 21.0344 -15.2824 0
    endloop
  endfacet
  facet normal -0.982288 -0.187375 0
    outer loop
      vertex -25.1832 -6.46594 0
      vertex -25.795 -3.25866 7
      vertex -25.795 -3.25866 0
    endloop
  endfacet
  facet normal -0.982288 -0.187375 0
    outer loop
      vertex -25.795 -3.25866 7
      vertex -25.1832 -6.46594 0
      vertex -25.1832 -6.46594 7
    endloop
  endfacet
  facet normal -0.998027 -0.0627852 0
    outer loop
      vertex -25.795 -3.25866 0
      vertex -26 0 7
      vertex -26 0 0
    endloop
  endfacet
  facet normal -0.998027 -0.0627852 0
    outer loop
      vertex -26 0 7
      vertex -25.795 -3.25866 0
      vertex -25.795 -3.25866 7
    endloop
  endfacet
  facet normal -0.951054 -0.309024 0
    outer loop
      vertex -24.1742 -9.57124 0
      vertex -25.1832 -6.46594 7
      vertex -25.1832 -6.46594 0
    endloop
  endfacet
  facet normal -0.951054 -0.309024 0
    outer loop
      vertex -25.1832 -6.46594 7
      vertex -24.1742 -9.57124 0
      vertex -24.1742 -9.57124 7
    endloop
  endfacet
  facet normal 0.684538 -0.728977 0
    outer loop
      vertex 16.573 -20.0333 0
      vertex 18.9532 -17.7982 7
      vertex 16.573 -20.0333 7
    endloop
  endfacet
  facet normal 0.684538 -0.728977 0
    outer loop
      vertex 18.9532 -17.7982 7
      vertex 16.573 -20.0333 0
      vertex 18.9532 -17.7982 0
    endloop
  endfacet
  facet normal 0.368129 -0.929775 0
    outer loop
      vertex 8.03444 -24.7275 0
      vertex 11.0703 -23.5255 7
      vertex 8.03444 -24.7275 7
    endloop
  endfacet
  facet normal 0.368129 -0.929775 0
    outer loop
      vertex 11.0703 -23.5255 7
      vertex 8.03444 -24.7275 0
      vertex 11.0703 -23.5255 0
    endloop
  endfacet
  facet normal 0.24869 -0.968583 0
    outer loop
      vertex 4.87191 -25.5395 0
      vertex 8.03444 -24.7275 7
      vertex 4.87191 -25.5395 7
    endloop
  endfacet
  facet normal 0.24869 -0.968583 0
    outer loop
      vertex 8.03444 -24.7275 7
      vertex 4.87191 -25.5395 0
      vertex 8.03444 -24.7275 0
    endloop
  endfacet
  facet normal 0.982288 -0.187375 0
    outer loop
      vertex 25.1832 -6.46594 7
      vertex 25.795 -3.25866 0
      vertex 25.795 -3.25866 7
    endloop
  endfacet
  facet normal 0.982288 -0.187375 0
    outer loop
      vertex 25.795 -3.25866 0
      vertex 25.1832 -6.46594 7
      vertex 25.1832 -6.46594 0
    endloop
  endfacet
  facet normal -0.125325 -0.992116 0
    outer loop
      vertex -4.87191 -25.5395 0
      vertex -1.63255 -25.9487 7
      vertex -4.87191 -25.5395 7
    endloop
  endfacet
  facet normal -0.125325 -0.992116 -0
    outer loop
      vertex -1.63255 -25.9487 7
      vertex -4.87191 -25.5395 0
      vertex -1.63255 -25.9487 0
    endloop
  endfacet
  facet normal -0.587793 -0.809011 0
    outer loop
      vertex -16.573 -20.0333 0
      vertex -13.9315 -21.9525 7
      vertex -16.573 -20.0333 7
    endloop
  endfacet
  facet normal -0.587793 -0.809011 -0
    outer loop
      vertex -13.9315 -21.9525 7
      vertex -16.573 -20.0333 0
      vertex -13.9315 -21.9525 0
    endloop
  endfacet
  facet normal -0.844317 -0.535845 0
    outer loop
      vertex -21.0344 -15.2824 0
      vertex -22.784 -12.5256 7
      vertex -22.784 -12.5256 0
    endloop
  endfacet
  facet normal -0.844317 -0.535845 0
    outer loop
      vertex -22.784 -12.5256 7
      vertex -21.0344 -15.2824 0
      vertex -21.0344 -15.2824 7
    endloop
  endfacet
  facet normal 0.587793 -0.809011 0
    outer loop
      vertex 13.9315 -21.9525 0
      vertex 16.573 -20.0333 7
      vertex 13.9315 -21.9525 7
    endloop
  endfacet
  facet normal 0.587793 -0.809011 0
    outer loop
      vertex 16.573 -20.0333 7
      vertex 13.9315 -21.9525 0
      vertex 16.573 -20.0333 0
    endloop
  endfacet
  facet normal -0.24869 -0.968583 0
    outer loop
      vertex -8.03444 -24.7275 0
      vertex -4.87191 -25.5395 7
      vertex -8.03444 -24.7275 7
    endloop
  endfacet
  facet normal -0.24869 -0.968583 -0
    outer loop
      vertex -4.87191 -25.5395 7
      vertex -8.03444 -24.7275 0
      vertex -4.87191 -25.5395 0
    endloop
  endfacet
  facet normal -0.368129 -0.929775 0
    outer loop
      vertex -11.0703 -23.5255 0
      vertex -8.03444 -24.7275 7
      vertex -11.0703 -23.5255 7
    endloop
  endfacet
  facet normal -0.368129 -0.929775 -0
    outer loop
      vertex -8.03444 -24.7275 7
      vertex -11.0703 -23.5255 0
      vertex -8.03444 -24.7275 0
    endloop
  endfacet
  facet normal -0.481764 -0.876301 0
    outer loop
      vertex -13.9315 -21.9525 0
      vertex -11.0703 -23.5255 7
      vertex -13.9315 -21.9525 7
    endloop
  endfacet
  facet normal -0.481764 -0.876301 -0
    outer loop
      vertex -11.0703 -23.5255 7
      vertex -13.9315 -21.9525 0
      vertex -11.0703 -23.5255 0
    endloop
  endfacet
  facet normal -0.904826 -0.425781 0
    outer loop
      vertex 18.5955 7.36249 0
      vertex 17.5261 9.63507 7
      vertex 17.5261 9.63507 0
    endloop
  endfacet
  facet normal -0.904826 -0.425781 0
    outer loop
      vertex 17.5261 9.63507 7
      vertex 18.5955 7.36249 0
      vertex 18.5955 7.36249 7
    endloop
  endfacet
  facet normal -0.844327 -0.535829 0
    outer loop
      vertex 17.5261 9.63507 0
      vertex 16.1803 11.7557 7
      vertex 16.1803 11.7557 0
    endloop
  endfacet
  facet normal -0.844327 -0.535829 0
    outer loop
      vertex 16.1803 11.7557 7
      vertex 17.5261 9.63507 0
      vertex 17.5261 9.63507 7
    endloop
  endfacet
  facet normal -0.368129 -0.929775 0
    outer loop
      vertex 6.18034 19.0211 0
      vertex 8.51558 18.0965 7
      vertex 6.18034 19.0211 7
    endloop
  endfacet
  facet normal -0.368129 -0.929775 -0
    outer loop
      vertex 8.51558 18.0965 7
      vertex 6.18034 19.0211 0
      vertex 8.51558 18.0965 0
    endloop
  endfacet
  facet normal 0.368129 -0.929775 0
    outer loop
      vertex -8.51558 18.0965 0
      vertex -6.18034 19.0211 7
      vertex -8.51558 18.0965 7
    endloop
  endfacet
  facet normal 0.368129 -0.929775 0
    outer loop
      vertex -6.18034 19.0211 7
      vertex -8.51558 18.0965 0
      vertex -6.18034 19.0211 0
    endloop
  endfacet
  facet normal 0.904826 -0.425781 0
    outer loop
      vertex -18.5955 7.36249 7
      vertex -17.5261 9.63507 0
      vertex -17.5261 9.63507 7
    endloop
  endfacet
  facet normal 0.904826 -0.425781 0
    outer loop
      vertex -17.5261 9.63507 0
      vertex -18.5955 7.36249 7
      vertex -18.5955 7.36249 0
    endloop
  endfacet
  facet normal -0.98229 0.187369 0
    outer loop
      vertex 19.3717 -4.9738 0
      vertex 19.8423 -2.50666 7
      vertex 19.8423 -2.50666 0
    endloop
  endfacet
  facet normal -0.98229 0.187369 0
    outer loop
      vertex 19.8423 -2.50666 7
      vertex 19.3717 -4.9738 0
      vertex 19.3717 -4.9738 7
    endloop
  endfacet
  facet normal -0.684562 -0.728955 0
    outer loop
      vertex 12.7485 15.4103 0
      vertex 14.5794 13.6909 7
      vertex 12.7485 15.4103 7
    endloop
  endfacet
  facet normal -0.684562 -0.728955 -0
    outer loop
      vertex 14.5794 13.6909 7
      vertex 12.7485 15.4103 0
      vertex 14.5794 13.6909 0
    endloop
  endfacet
  facet normal 0 -1 0
    outer loop
      vertex -1.25581 19.9605 0
      vertex 1.25581 19.9605 7
      vertex -1.25581 19.9605 7
    endloop
  endfacet
  facet normal 0 -1 -0
    outer loop
      vertex 1.25581 19.9605 7
      vertex -1.25581 19.9605 0
      vertex 1.25581 19.9605 0
    endloop
  endfacet
  facet normal -0.587776 -0.809024 0
    outer loop
      vertex 10.7165 16.8866 0
      vertex 12.7485 15.4103 7
      vertex 10.7165 16.8866 7
    endloop
  endfacet
  facet normal -0.587776 -0.809024 -0
    outer loop
      vertex 12.7485 15.4103 7
      vertex 10.7165 16.8866 0
      vertex 12.7485 15.4103 0
    endloop
  endfacet
  facet normal 0.98229 -0.187369 0
    outer loop
      vertex -19.8423 2.50666 7
      vertex -19.3717 4.9738 0
      vertex -19.3717 4.9738 7
    endloop
  endfacet
  facet normal 0.98229 -0.187369 0
    outer loop
      vertex -19.3717 4.9738 0
      vertex -19.8423 2.50666 7
      vertex -19.8423 2.50666 0
    endloop
  endfacet
  facet normal 0.77052 -0.637415 0
    outer loop
      vertex -16.1803 11.7557 7
      vertex -14.5794 13.6909 0
      vertex -14.5794 13.6909 7
    endloop
  endfacet
  facet normal 0.77052 -0.637415 0
    outer loop
      vertex -14.5794 13.6909 0
      vertex -16.1803 11.7557 7
      vertex -16.1803 11.7557 0
    endloop
  endfacet
  facet normal 0.481733 -0.876318 0
    outer loop
      vertex -10.7165 16.8866 0
      vertex -8.51558 18.0965 7
      vertex -10.7165 16.8866 7
    endloop
  endfacet
  facet normal 0.481733 -0.876318 0
    outer loop
      vertex -8.51558 18.0965 7
      vertex -10.7165 16.8866 0
      vertex -8.51558 18.0965 0
    endloop
  endfacet
  facet normal 0.248685 -0.968584 0
    outer loop
      vertex -6.18034 19.0211 0
      vertex -3.74763 19.6457 7
      vertex -6.18034 19.0211 7
    endloop
  endfacet
  facet normal 0.248685 -0.968584 0
    outer loop
      vertex -3.74763 19.6457 7
      vertex -6.18034 19.0211 0
      vertex -3.74763 19.6457 0
    endloop
  endfacet
  facet normal -0.998027 -0.0627883 0
    outer loop
      vertex 20 0 0
      vertex 19.8423 2.50666 7
      vertex 19.8423 2.50666 0
    endloop
  endfacet
  facet normal -0.998027 -0.0627883 0
    outer loop
      vertex 19.8423 2.50666 7
      vertex 20 0 0
      vertex 20 0 7
    endloop
  endfacet
  facet normal -0.951049 0.309041 0
    outer loop
      vertex 18.5955 -7.36249 0
      vertex 19.3717 -4.9738 7
      vertex 19.3717 -4.9738 0
    endloop
  endfacet
  facet normal -0.951049 0.309041 0
    outer loop
      vertex 19.3717 -4.9738 7
      vertex 18.5955 -7.36249 0
      vertex 18.5955 -7.36249 7
    endloop
  endfacet
  facet normal 0.684562 0.728955 -0
    outer loop
      vertex -12.7485 -15.4103 0
      vertex -14.5794 -13.6909 7
      vertex -12.7485 -15.4103 7
    endloop
  endfacet
  facet normal 0.684562 0.728955 0
    outer loop
      vertex -14.5794 -13.6909 7
      vertex -12.7485 -15.4103 0
      vertex -14.5794 -13.6909 0
    endloop
  endfacet
  facet normal -0.98229 -0.187369 0
    outer loop
      vertex 19.8423 2.50666 0
      vertex 19.3717 4.9738 7
      vertex 19.3717 4.9738 0
    endloop
  endfacet
  facet normal -0.98229 -0.187369 0
    outer loop
      vertex 19.3717 4.9738 7
      vertex 19.8423 2.50666 0
      vertex 19.8423 2.50666 7
    endloop
  endfacet
  facet normal -0.951049 -0.309041 0
    outer loop
      vertex 19.3717 4.9738 0
      vertex 18.5955 7.36249 7
      vertex 18.5955 7.36249 0
    endloop
  endfacet
  facet normal -0.951049 -0.309041 0
    outer loop
      vertex 18.5955 7.36249 7
      vertex 19.3717 4.9738 0
      vertex 19.3717 4.9738 7
    endloop
  endfacet
  facet normal -0.77052 -0.637415 0
    outer loop
      vertex 16.1803 11.7557 0
      vertex 14.5794 13.6909 7
      vertex 14.5794 13.6909 0
    endloop
  endfacet
  facet normal -0.77052 -0.637415 0
    outer loop
      vertex 14.5794 13.6909 7
      vertex 16.1803 11.7557 0
      vertex 16.1803 11.7557 7
    endloop
  endfacet
  facet normal -0.248685 -0.968584 0
    outer loop
      vertex 3.74763 19.6457 0
      vertex 6.18034 19.0211 7
      vertex 3.74763 19.6457 7
    endloop
  endfacet
  facet normal -0.248685 -0.968584 -0
    outer loop
      vertex 6.18034 19.0211 7
      vertex 3.74763 19.6457 0
      vertex 6.18034 19.0211 0
    endloop
  endfacet
  facet normal -0.125337 -0.992114 0
    outer loop
      vertex 1.25581 19.9605 0
      vertex 3.74763 19.6457 7
      vertex 1.25581 19.9605 7
    endloop
  endfacet
  facet normal -0.125337 -0.992114 -0
    outer loop
      vertex 3.74763 19.6457 7
      vertex 1.25581 19.9605 0
      vertex 3.74763 19.6457 0
    endloop
  endfacet
  facet normal -0.481733 -0.876318 0
    outer loop
      vertex 8.51558 18.0965 0
      vertex 10.7165 16.8866 7
      vertex 8.51558 18.0965 7
    endloop
  endfacet
  facet normal -0.481733 -0.876318 -0
    outer loop
      vertex 10.7165 16.8866 7
      vertex 8.51558 18.0965 0
      vertex 10.7165 16.8866 0
    endloop
  endfacet
  facet normal 0.998027 -0.0627883 0
    outer loop
      vertex -20 0 7
      vertex -19.8423 2.50666 0
      vertex -19.8423 2.50666 7
    endloop
  endfacet
  facet normal 0.998027 -0.0627883 0
    outer loop
      vertex -19.8423 2.50666 0
      vertex -20 0 7
      vertex -20 0 0
    endloop
  endfacet
  facet normal 0.951049 -0.309041 0
    outer loop
      vertex -19.3717 4.9738 7
      vertex -18.5955 7.36249 0
      vertex -18.5955 7.36249 7
    endloop
  endfacet
  facet normal 0.951049 -0.309041 0
    outer loop
      vertex -18.5955 7.36249 0
      vertex -19.3717 4.9738 7
      vertex -19.3717 4.9738 0
    endloop
  endfacet
  facet normal 0.844327 -0.535829 0
    outer loop
      vertex -17.5261 9.63507 7
      vertex -16.1803 11.7557 0
      vertex -16.1803 11.7557 7
    endloop
  endfacet
  facet normal 0.844327 -0.535829 0
    outer loop
      vertex -16.1803 11.7557 0
      vertex -17.5261 9.63507 7
      vertex -17.5261 9.63507 0
    endloop
  endfacet
  facet normal 0.125337 -0.992114 0
    outer loop
      vertex -3.74763 19.6457 0
      vertex -1.25581 19.9605 7
      vertex -3.74763 19.6457 7
    endloop
  endfacet
  facet normal 0.125337 -0.992114 0
    outer loop
      vertex -1.25581 19.9605 7
      vertex -3.74763 19.6457 0
      vertex -1.25581 19.9605 0
    endloop
  endfacet
  facet normal 0.587776 -0.809024 0
    outer loop
      vertex -12.7485 15.4103 0
      vertex -10.7165 16.8866 7
      vertex -12.7485 15.4103 7
    endloop
  endfacet
  facet normal 0.587776 -0.809024 0
    outer loop
      vertex -10.7165 16.8866 7
      vertex -12.7485 15.4103 0
      vertex -10.7165 16.8866 0
    endloop
  endfacet
  facet normal 0.684562 -0.728955 0
    outer loop
      vertex -14.5794 13.6909 0
      vertex -12.7485 15.4103 7
      vertex -14.5794 13.6909 7
    endloop
  endfacet
  facet normal 0.684562 -0.728955 0
    outer loop
      vertex -12.7485 15.4103 7
      vertex -14.5794 13.6909 0
      vertex -12.7485 15.4103 0
    endloop
  endfacet
  facet normal -0.998027 0.0627883 0
    outer loop
      vertex 19.8423 -2.50666 0
      vertex 20 0 7
      vertex 20 0 0
    endloop
  endfacet
  facet normal -0.998027 0.0627883 0
    outer loop
      vertex 20 0 7
      vertex 19.8423 -2.50666 0
      vertex 19.8423 -2.50666 7
    endloop
  endfacet
  facet normal 0 1 -0
    outer loop
      vertex 1.25581 -19.9605 0
      vertex -1.25581 -19.9605 7
      vertex 1.25581 -19.9605 7
    endloop
  endfacet
  facet normal 0 1 0
    outer loop
      vertex -1.25581 -19.9605 7
      vertex 1.25581 -19.9605 0
      vertex -1.25581 -19.9605 0
    endloop
  endfacet
  facet normal 0.951049 0.309041 0
    outer loop
      vertex -18.5955 -7.36249 7
      vertex -19.3717 -4.9738 0
      vertex -19.3717 -4.9738 7
    endloop
  endfacet
  facet normal 0.951049 0.309041 0
    outer loop
      vertex -19.3717 -4.9738 0
      vertex -18.5955 -7.36249 7
      vertex -18.5955 -7.36249 0
    endloop
  endfacet
  facet normal 0.77052 0.637415 0
    outer loop
      vertex -14.5794 -13.6909 7
      vertex -16.1803 -11.7557 0
      vertex -16.1803 -11.7557 7
    endloop
  endfacet
  facet normal 0.77052 0.637415 0
    outer loop
      vertex -16.1803 -11.7557 0
      vertex -14.5794 -13.6909 7
      vertex -14.5794 -13.6909 0
    endloop
  endfacet
  facet normal -0.125337 0.992114 0
    outer loop
      vertex 3.74763 -19.6457 0
      vertex 1.25581 -19.9605 7
      vertex 3.74763 -19.6457 7
    endloop
  endfacet
  facet normal -0.125337 0.992114 0
    outer loop
      vertex 1.25581 -19.9605 7
      vertex 3.74763 -19.6457 0
      vertex 1.25581 -19.9605 0
    endloop
  endfacet
  facet normal -0.77052 0.637415 0
    outer loop
      vertex 14.5794 -13.6909 0
      vertex 16.1803 -11.7557 7
      vertex 16.1803 -11.7557 0
    endloop
  endfacet
  facet normal -0.77052 0.637415 0
    outer loop
      vertex 16.1803 -11.7557 7
      vertex 14.5794 -13.6909 0
      vertex 14.5794 -13.6909 7
    endloop
  endfacet
  facet normal -0.844327 0.535829 0
    outer loop
      vertex 16.1803 -11.7557 0
      vertex 17.5261 -9.63507 7
      vertex 17.5261 -9.63507 0
    endloop
  endfacet
  facet normal -0.844327 0.535829 0
    outer loop
      vertex 17.5261 -9.63507 7
      vertex 16.1803 -11.7557 0
      vertex 16.1803 -11.7557 7
    endloop
  endfacet
  facet normal 0.481733 0.876318 -0
    outer loop
      vertex -8.51558 -18.0965 0
      vertex -10.7165 -16.8866 7
      vertex -8.51558 -18.0965 7
    endloop
  endfacet
  facet normal 0.481733 0.876318 0
    outer loop
      vertex -10.7165 -16.8866 7
      vertex -8.51558 -18.0965 0
      vertex -10.7165 -16.8866 0
    endloop
  endfacet
  facet normal 0.125337 0.992114 -0
    outer loop
      vertex -1.25581 -19.9605 0
      vertex -3.74763 -19.6457 7
      vertex -1.25581 -19.9605 7
    endloop
  endfacet
  facet normal 0.125337 0.992114 0
    outer loop
      vertex -3.74763 -19.6457 7
      vertex -1.25581 -19.9605 0
      vertex -3.74763 -19.6457 0
    endloop
  endfacet
  facet normal 0.248685 0.968584 -0
    outer loop
      vertex -3.74763 -19.6457 0
      vertex -6.18034 -19.0211 7
      vertex -3.74763 -19.6457 7
    endloop
  endfacet
  facet normal 0.248685 0.968584 0
    outer loop
      vertex -6.18034 -19.0211 7
      vertex -3.74763 -19.6457 0
      vertex -6.18034 -19.0211 0
    endloop
  endfacet
  facet normal 0.998027 0.0627883 0
    outer loop
      vertex -19.8423 -2.50666 7
      vertex -20 0 0
      vertex -20 0 7
    endloop
  endfacet
  facet normal 0.998027 0.0627883 0
    outer loop
      vertex -20 0 0
      vertex -19.8423 -2.50666 7
      vertex -19.8423 -2.50666 0
    endloop
  endfacet
  facet normal -0.368129 0.929775 0
    outer loop
      vertex 8.51558 -18.0965 0
      vertex 6.18034 -19.0211 7
      vertex 8.51558 -18.0965 7
    endloop
  endfacet
  facet normal -0.368129 0.929775 0
    outer loop
      vertex 6.18034 -19.0211 7
      vertex 8.51558 -18.0965 0
      vertex 6.18034 -19.0211 0
    endloop
  endfacet
  facet normal -0.248685 0.968584 0
    outer loop
      vertex 6.18034 -19.0211 0
      vertex 3.74763 -19.6457 7
      vertex 6.18034 -19.0211 7
    endloop
  endfacet
  facet normal -0.248685 0.968584 0
    outer loop
      vertex 3.74763 -19.6457 7
      vertex 6.18034 -19.0211 0
      vertex 3.74763 -19.6457 0
    endloop
  endfacet
  facet normal -0.684562 0.728955 0
    outer loop
      vertex 14.5794 -13.6909 0
      vertex 12.7485 -15.4103 7
      vertex 14.5794 -13.6909 7
    endloop
  endfacet
  facet normal -0.684562 0.728955 0
    outer loop
      vertex 12.7485 -15.4103 7
      vertex 14.5794 -13.6909 0
      vertex 12.7485 -15.4103 0
    endloop
  endfacet
  facet normal -0.587776 0.809024 0
    outer loop
      vertex 12.7485 -15.4103 0
      vertex 10.7165 -16.8866 7
      vertex 12.7485 -15.4103 7
    endloop
  endfacet
  facet normal -0.587776 0.809024 0
    outer loop
      vertex 10.7165 -16.8866 7
      vertex 12.7485 -15.4103 0
      vertex 10.7165 -16.8866 0
    endloop
  endfacet
  facet normal -0.481733 0.876318 0
    outer loop
      vertex 10.7165 -16.8866 0
      vertex 8.51558 -18.0965 7
      vertex 10.7165 -16.8866 7
    endloop
  endfacet
  facet normal -0.481733 0.876318 0
    outer loop
      vertex 8.51558 -18.0965 7
      vertex 10.7165 -16.8866 0
      vertex 8.51558 -18.0965 0
    endloop
  endfacet
  facet normal -0.904826 0.425781 0
    outer loop
      vertex 17.5261 -9.63507 0
      vertex 18.5955 -7.36249 7
      vertex 18.5955 -7.36249 0
    endloop
  endfacet
  facet normal -0.904826 0.425781 0
    outer loop
      vertex 18.5955 -7.36249 7
      vertex 17.5261 -9.63507 0
      vertex 17.5261 -9.63507 7
    endloop
  endfacet
  facet normal 0.587776 0.809024 -0
    outer loop
      vertex -10.7165 -16.8866 0
      vertex -12.7485 -15.4103 7
      vertex -10.7165 -16.8866 7
    endloop
  endfacet
  facet normal 0.587776 0.809024 0
    outer loop
      vertex -12.7485 -15.4103 7
      vertex -10.7165 -16.8866 0
      vertex -12.7485 -15.4103 0
    endloop
  endfacet
  facet normal 0.98229 0.187369 0
    outer loop
      vertex -19.3717 -4.9738 7
      vertex -19.8423 -2.50666 0
      vertex -19.8423 -2.50666 7
    endloop
  endfacet
  facet normal 0.98229 0.187369 0
    outer loop
      vertex -19.8423 -2.50666 0
      vertex -19.3717 -4.9738 7
      vertex -19.3717 -4.9738 0
    endloop
  endfacet
  facet normal 0.844327 0.535829 0
    outer loop
      vertex -16.1803 -11.7557 7
      vertex -17.5261 -9.63507 0
      vertex -17.5261 -9.63507 7
    endloop
  endfacet
  facet normal 0.844327 0.535829 0
    outer loop
      vertex -17.5261 -9.63507 0
      vertex -16.1803 -11.7557 7
      vertex -16.1803 -11.7557 0
    endloop
  endfacet
  facet normal 0.904826 0.425781 0
    outer loop
      vertex -17.5261 -9.63507 7
      vertex -18.5955 -7.36249 0
      vertex -18.5955 -7.36249 7
    endloop
  endfacet
  facet normal 0.904826 0.425781 0
    outer loop
      vertex -18.5955 -7.36249 0
      vertex -17.5261 -9.63507 7
      vertex -17.5261 -9.63507 0
    endloop
  endfacet
  facet normal 0.368129 0.929775 -0
    outer loop
      vertex -6.18034 -19.0211 0
      vertex -8.51558 -18.0965 7
      vertex -6.18034 -19.0211 7
    endloop
  endfacet
  facet normal 0.368129 0.929775 0
    outer loop
      vertex -8.51558 -18.0965 7
      vertex -6.18034 -19.0211 0
      vertex -8.51558 -18.0965 0
    endloop
  endfacet
endsolid OpenSCAD_Model
