<?xml version="1.0" standalone="no"?>
<!DOCTYPE svg PUBLIC "-//W3C//DTD SVG 1.1//EN" "http://www.w3.org/Graphics/SVG/1.1/DTD/svg11.dtd">
<svg width="120mm" height="514mm" viewBox="-60 -953 120 514" xmlns="http://www.w3.org/2000/svg" version="1.1">
<title>OpenSCAD Model</title>
<path d="
M 55.9369,-787.589 L 56.5451,-787.745 L 57.1289,-787.976 L 57.6791,-788.278 L 58.1871,-788.647 L 58.6448,-789.077
 L 59.0451,-789.561 L 59.3815,-790.091 L 59.6489,-790.659 L 59.8429,-791.257 L 59.9606,-791.873 L 60,-792.5
 L 60,-947.5 L 59.9606,-948.127 L 59.8429,-948.743 L 59.6489,-949.341 L 59.3815,-949.909 L 59.0451,-950.439
 L 58.6448,-950.923 L 58.1871,-951.353 L 57.6791,-951.722 L 57.1289,-952.024 L 56.5451,-952.255 L 55.9369,-952.411
 L 55.3139,-952.49 L -55.3139,-952.49 L -55.9369,-952.411 L -56.5451,-952.255 L -57.1289,-952.024 L -57.6791,-951.722
 L -58.1871,-951.353 L -58.6448,-950.923 L -59.0451,-950.439 L -59.3815,-949.909 L -59.6489,-949.341 L -59.8429,-948.743
 L -59.9606,-948.127 L -60,-947.5 L -60,-792.5 L -59.9606,-791.873 L -59.8429,-791.257 L -59.6489,-790.659
 L -59.3815,-790.091 L -59.0451,-789.561 L -58.6448,-789.077 L -58.1871,-788.647 L -57.6791,-788.278 L -57.1289,-787.976
 L -56.5451,-787.745 L -55.9369,-787.589 L -55.3139,-787.51 L 55.3139,-787.51 z
M -54.7512,-789.008 L -55.2495,-789.071 L -55.7361,-789.196 L -56.2031,-789.381 L -56.6433,-789.623 L -57.0497,-789.918
 L -57.4159,-790.262 L -57.7361,-790.649 L -58.0052,-791.073 L -58.2191,-791.528 L -58.3743,-792.005 L -58.4685,-792.499
 L -58.5,-793 L -58.5,-947 L -58.4685,-947.501 L -58.3743,-947.995 L -58.2191,-948.472 L -58.0052,-948.927
 L -57.7361,-949.351 L -57.4159,-949.738 L -57.0497,-950.082 L -56.6433,-950.377 L -56.2031,-950.619 L -55.7361,-950.804
 L -55.2495,-950.929 L -54.7512,-950.992 L 54.7512,-950.992 L 55.2495,-950.929 L 55.7361,-950.804 L 56.2031,-950.619
 L 56.6433,-950.377 L 57.0497,-950.082 L 57.4159,-949.738 L 57.7361,-949.351 L 58.0052,-948.927 L 58.2191,-948.472
 L 58.3743,-947.995 L 58.4685,-947.501 L 58.5,-947 L 58.5,-793 L 58.4685,-792.499 L 58.3743,-792.005
 L 58.2191,-791.528 L 58.0052,-791.073 L 57.7361,-790.649 L 57.4159,-790.262 L 57.0497,-789.918 L 56.6433,-789.623
 L 56.2031,-789.381 L 55.7361,-789.196 L 55.2495,-789.071 L 54.7512,-789.008 z
M 55.9369,-613.589 L 56.5451,-613.745 L 57.1289,-613.976 L 57.6791,-614.278 L 58.1871,-614.647 L 58.6448,-615.077
 L 59.0451,-615.561 L 59.3815,-616.091 L 59.6489,-616.659 L 59.8429,-617.257 L 59.9606,-617.873 L 60,-618.5
 L 60,-773.5 L 59.9606,-774.127 L 59.8429,-774.743 L 59.6489,-775.341 L 59.3815,-775.909 L 59.0451,-776.439
 L 58.6448,-776.923 L 58.1871,-777.353 L 57.6791,-777.722 L 57.1289,-778.024 L 56.5451,-778.255 L 55.9369,-778.411
 L 55.3139,-778.49 L -55.3139,-778.49 L -55.9369,-778.411 L -56.5451,-778.255 L -57.1289,-778.024 L -57.6791,-777.722
 L -58.1871,-777.353 L -58.6448,-776.923 L -59.0451,-776.439 L -59.3815,-775.909 L -59.6489,-775.341 L -59.8429,-774.743
 L -59.9606,-774.127 L -60,-773.5 L -60,-618.5 L -59.9606,-617.873 L -59.8429,-617.257 L -59.6489,-616.659
 L -59.3815,-616.091 L -59.0451,-615.561 L -58.6448,-615.077 L -58.1871,-614.647 L -57.6791,-614.278 L -57.1289,-613.976
 L -56.5451,-613.745 L -55.9369,-613.589 L -55.3139,-613.51 L 55.3139,-613.51 z
M -54.6954,-615.893 L -55.0833,-615.942 L -55.4619,-616.039 L -55.8254,-616.183 L -56.168,-616.372 L -56.4842,-616.601
 L -56.7692,-616.869 L -57.0184,-617.17 L -57.2279,-617.5 L -57.3943,-617.854 L -57.5151,-618.226 L -57.5884,-618.61
 L -57.6129,-619 L -57.6129,-773 L -57.5884,-773.39 L -57.5151,-773.774 L -57.3943,-774.146 L -57.2279,-774.5
 L -57.0184,-774.83 L -56.7692,-775.131 L -56.4842,-775.399 L -56.168,-775.628 L -55.8254,-775.817 L -55.4619,-775.961
 L -55.0833,-776.058 L -54.6954,-776.107 L 54.6954,-776.107 L 55.0833,-776.058 L 55.4619,-775.961 L 55.8254,-775.817
 L 56.168,-775.628 L 56.4842,-775.399 L 56.7692,-775.131 L 57.0184,-774.83 L 57.2279,-774.5 L 57.3943,-774.146
 L 57.5151,-773.774 L 57.5884,-773.39 L 57.6129,-773 L 57.6129,-619 L 57.5884,-618.61 L 57.5151,-618.226
 L 57.3943,-617.854 L 57.2279,-617.5 L 57.0184,-617.17 L 56.7692,-616.869 L 56.4842,-616.601 L 56.168,-616.372
 L 55.8254,-616.183 L 55.4619,-616.039 L 55.0833,-615.942 L 54.6954,-615.893 z
M 55.9369,-439.589 L 56.5451,-439.745 L 57.1289,-439.976 L 57.6791,-440.278 L 58.1871,-440.647 L 58.6448,-441.077
 L 59.0451,-441.561 L 59.3815,-442.091 L 59.6489,-442.659 L 59.8429,-443.257 L 59.9606,-443.873 L 60,-444.5
 L 60,-599.5 L 59.9606,-600.127 L 59.8429,-600.743 L 59.6489,-601.341 L 59.3815,-601.909 L 59.0451,-602.439
 L 58.6448,-602.923 L 58.1871,-603.353 L 57.6791,-603.722 L 57.1289,-604.024 L 56.5451,-604.255 L 55.9369,-604.411
 L 55.3139,-604.49 L -55.3139,-604.49 L -55.9369,-604.411 L -56.5451,-604.255 L -57.1289,-604.024 L -57.6791,-603.722
 L -58.1871,-603.353 L -58.6448,-602.923 L -59.0451,-602.439 L -59.3815,-601.909 L -59.6489,-601.341 L -59.8429,-600.743
 L -59.9606,-600.127 L -60,-599.5 L -60,-444.5 L -59.9606,-443.873 L -59.8429,-443.257 L -59.6489,-442.659
 L -59.3815,-442.091 L -59.0451,-441.561 L -58.6448,-441.077 L -58.1871,-440.647 L -57.6791,-440.278 L -57.1289,-439.976
 L -56.5451,-439.745 L -55.9369,-439.589 L -55.3139,-439.51 L 55.3139,-439.51 z
M 52.3659,-594.869 L 52.0999,-594.903 L 51.8401,-594.969 L 51.5908,-595.068 L 51.3559,-595.197 L 51.1389,-595.355
 L 50.9434,-595.538 L 50.7725,-595.745 L 50.6288,-595.971 L 50.5146,-596.214 L 50.4318,-596.469 L 50.3815,-596.732
 L 50.3647,-597 L 50.3815,-597.268 L 50.4318,-597.531 L 50.5146,-597.786 L 50.6288,-598.029 L 50.7725,-598.255
 L 50.9434,-598.462 L 51.1389,-598.645 L 51.3559,-598.803 L 51.5908,-598.932 L 51.8401,-599.031 L 52.0999,-599.097
 L 52.3659,-599.131 L 52.6341,-599.131 L 52.9001,-599.097 L 53.1598,-599.031 L 53.4092,-598.932 L 53.6441,-598.803
 L 53.8611,-598.645 L 54.0565,-598.462 L 54.2275,-598.255 L 54.3712,-598.029 L 54.4853,-597.786 L 54.5682,-597.531
 L 54.6185,-597.268 L 54.6353,-597 L 54.6185,-596.732 L 54.5682,-596.469 L 54.4853,-596.214 L 54.3712,-595.971
 L 54.2275,-595.745 L 54.0565,-595.538 L 53.8611,-595.355 L 53.6441,-595.197 L 53.4092,-595.068 L 53.1598,-594.969
 L 52.9001,-594.903 L 52.6341,-594.869 z
M -52.6341,-594.869 L -52.9001,-594.903 L -53.1598,-594.969 L -53.4092,-595.068 L -53.6441,-595.197 L -53.8611,-595.355
 L -54.0565,-595.538 L -54.2275,-595.745 L -54.3712,-595.971 L -54.4853,-596.214 L -54.5682,-596.469 L -54.6185,-596.732
 L -54.6353,-597 L -54.6185,-597.268 L -54.5682,-597.531 L -54.4853,-597.786 L -54.3712,-598.029 L -54.2275,-598.255
 L -54.0565,-598.462 L -53.8611,-598.645 L -53.6441,-598.803 L -53.4092,-598.932 L -53.1598,-599.031 L -52.9001,-599.097
 L -52.6341,-599.131 L -52.3659,-599.131 L -52.0999,-599.097 L -51.8401,-599.031 L -51.5908,-598.932 L -51.3559,-598.803
 L -51.1389,-598.645 L -50.9434,-598.462 L -50.7725,-598.255 L -50.6288,-598.029 L -50.5146,-597.786 L -50.4318,-597.531
 L -50.3815,-597.268 L -50.3647,-597 L -50.3815,-596.732 L -50.4318,-596.469 L -50.5146,-596.214 L -50.6288,-595.971
 L -50.7725,-595.745 L -50.9434,-595.538 L -51.1389,-595.355 L -51.3559,-595.197 L -51.5908,-595.068 L -51.8401,-594.969
 L -52.0999,-594.903 L -52.3659,-594.869 z
M 52.3659,-444.869 L 52.0999,-444.903 L 51.8401,-444.969 L 51.5908,-445.068 L 51.3559,-445.197 L 51.1389,-445.355
 L 50.9434,-445.538 L 50.7725,-445.745 L 50.6288,-445.971 L 50.5146,-446.214 L 50.4318,-446.469 L 50.3815,-446.732
 L 50.3647,-447 L 50.3815,-447.268 L 50.4318,-447.531 L 50.5146,-447.786 L 50.6288,-448.029 L 50.7725,-448.255
 L 50.9434,-448.462 L 51.1389,-448.645 L 51.3559,-448.803 L 51.5908,-448.932 L 51.8401,-449.031 L 52.0999,-449.097
 L 52.3659,-449.131 L 52.6341,-449.131 L 52.9001,-449.097 L 53.1598,-449.031 L 53.4092,-448.932 L 53.6441,-448.803
 L 53.8611,-448.645 L 54.0565,-448.462 L 54.2275,-448.255 L 54.3712,-448.029 L 54.4853,-447.786 L 54.5682,-447.531
 L 54.6185,-447.268 L 54.6353,-447 L 54.6185,-446.732 L 54.5682,-446.469 L 54.4853,-446.214 L 54.3712,-445.971
 L 54.2275,-445.745 L 54.0565,-445.538 L 53.8611,-445.355 L 53.6441,-445.197 L 53.4092,-445.068 L 53.1598,-444.969
 L 52.9001,-444.903 L 52.6341,-444.869 z
M -52.6341,-444.869 L -52.9001,-444.903 L -53.1598,-444.969 L -53.4092,-445.068 L -53.6441,-445.197 L -53.8611,-445.355
 L -54.0565,-445.538 L -54.2275,-445.745 L -54.3712,-445.971 L -54.4853,-446.214 L -54.5682,-446.469 L -54.6185,-446.732
 L -54.6353,-447 L -54.6185,-447.268 L -54.5682,-447.531 L -54.4853,-447.786 L -54.3712,-448.029 L -54.2275,-448.255
 L -54.0565,-448.462 L -53.8611,-448.645 L -53.6441,-448.803 L -53.4092,-448.932 L -53.1598,-449.031 L -52.9001,-449.097
 L -52.6341,-449.131 L -52.3659,-449.131 L -52.0999,-449.097 L -51.8401,-449.031 L -51.5908,-448.932 L -51.3559,-448.803
 L -51.1389,-448.645 L -50.9434,-448.462 L -50.7725,-448.255 L -50.6288,-448.029 L -50.5146,-447.786 L -50.4318,-447.531
 L -50.3815,-447.268 L -50.3647,-447 L -50.3815,-446.732 L -50.4318,-446.469 L -50.5146,-446.214 L -50.6288,-445.971
 L -50.7725,-445.745 L -50.9434,-445.538 L -51.1389,-445.355 L -51.3559,-445.197 L -51.5908,-445.068 L -51.8401,-444.969
 L -52.0999,-444.903 L -52.3659,-444.869 z
" stroke="black" fill="lightgray" stroke-width="0.5"/>
</svg>
