solid OpenSCAD_Model
  facet normal 0.998026 0.062799 0
    outer loop
      vertex 22 0 5
      vertex 21.8265 2.75733 0
      vertex 21.8265 2.75733 5
    endloop
  endfacet
  facet normal 0.998026 0.062799 0
    outer loop
      vertex 21.8265 2.75733 0
      vertex 22 0 5
      vertex 22 0 0
    endloop
  endfacet
  facet normal -0.998026 0.062799 0
    outer loop
      vertex -22 0 0
      vertex -21.8265 2.75733 5
      vertex -21.8265 2.75733 0
    endloop
  endfacet
  facet normal -0.998026 0.062799 0
    outer loop
      vertex -21.8265 2.75733 5
      vertex -22 0 0
      vertex -22 0 5
    endloop
  endfacet
  facet normal 0 1 -0
    outer loop
      vertex 1.38139 21.9566 0
      vertex -1.38139 21.9566 5
      vertex 1.38139 21.9566 5
    endloop
  endfacet
  facet normal 0 1 0
    outer loop
      vertex -1.38139 21.9566 5
      vertex 1.38139 21.9566 0
      vertex -1.38139 21.9566 0
    endloop
  endfacet
  facet normal 0 -1 0
    outer loop
      vertex -1.38139 -21.9566 0
      vertex 1.38139 -21.9566 5
      vertex -1.38139 -21.9566 5
    endloop
  endfacet
  facet normal 0 -1 -0
    outer loop
      vertex 1.38139 -21.9566 5
      vertex -1.38139 -21.9566 0
      vertex 1.38139 -21.9566 0
    endloop
  endfacet
  facet normal 0.684553 0.728964 -0
    outer loop
      vertex 16.0373 15.06 0
      vertex 14.0233 16.9513 5
      vertex 16.0373 15.06 5
    endloop
  endfacet
  facet normal 0.684553 0.728964 0
    outer loop
      vertex 14.0233 16.9513 5
      vertex 16.0373 15.06 0
      vertex 14.0233 16.9513 0
    endloop
  endfacet
  facet normal -0.684553 0.728964 0
    outer loop
      vertex -14.0233 16.9513 0
      vertex -16.0373 15.06 5
      vertex -14.0233 16.9513 5
    endloop
  endfacet
  facet normal -0.684553 0.728964 0
    outer loop
      vertex -16.0373 15.06 5
      vertex -14.0233 16.9513 0
      vertex -16.0373 15.06 0
    endloop
  endfacet
  facet normal -0.36811 0.929782 0
    outer loop
      vertex -6.79837 20.9232 0
      vertex -9.36714 19.9062 5
      vertex -6.79837 20.9232 5
    endloop
  endfacet
  facet normal -0.36811 0.929782 0
    outer loop
      vertex -9.36714 19.9062 5
      vertex -6.79837 20.9232 0
      vertex -9.36714 19.9062 0
    endloop
  endfacet
  facet normal 0.904819 0.425796 0
    outer loop
      vertex 20.4551 8.09874 5
      vertex 19.2787 10.5986 0
      vertex 19.2787 10.5986 5
    endloop
  endfacet
  facet normal 0.904819 0.425796 0
    outer loop
      vertex 19.2787 10.5986 0
      vertex 20.4551 8.09874 5
      vertex 20.4551 8.09874 0
    endloop
  endfacet
  facet normal 0.982287 0.187383 0
    outer loop
      vertex 21.8265 2.75733 5
      vertex 21.3088 5.47118 0
      vertex 21.3088 5.47118 5
    endloop
  endfacet
  facet normal 0.982287 0.187383 0
    outer loop
      vertex 21.3088 5.47118 0
      vertex 21.8265 2.75733 5
      vertex 21.8265 2.75733 0
    endloop
  endfacet
  facet normal 0.36811 0.929782 -0
    outer loop
      vertex 9.36714 19.9062 0
      vertex 6.79837 20.9232 5
      vertex 9.36714 19.9062 5
    endloop
  endfacet
  facet normal 0.36811 0.929782 0
    outer loop
      vertex 6.79837 20.9232 5
      vertex 9.36714 19.9062 0
      vertex 6.79837 20.9232 0
    endloop
  endfacet
  facet normal 0.248698 0.968581 -0
    outer loop
      vertex 6.79837 20.9232 0
      vertex 4.12239 21.6103 5
      vertex 6.79837 20.9232 5
    endloop
  endfacet
  facet normal 0.248698 0.968581 0
    outer loop
      vertex 4.12239 21.6103 5
      vertex 6.79837 20.9232 0
      vertex 4.12239 21.6103 0
    endloop
  endfacet
  facet normal 0.481757 0.876305 -0
    outer loop
      vertex 11.7882 18.5752 0
      vertex 9.36714 19.9062 5
      vertex 11.7882 18.5752 5
    endloop
  endfacet
  facet normal 0.481757 0.876305 0
    outer loop
      vertex 9.36714 19.9062 5
      vertex 11.7882 18.5752 0
      vertex 9.36714 19.9062 0
    endloop
  endfacet
  facet normal -0.904819 0.425796 0
    outer loop
      vertex -20.4551 8.09874 0
      vertex -19.2787 10.5986 5
      vertex -19.2787 10.5986 0
    endloop
  endfacet
  facet normal -0.904819 0.425796 0
    outer loop
      vertex -19.2787 10.5986 5
      vertex -20.4551 8.09874 0
      vertex -20.4551 8.09874 5
    endloop
  endfacet
  facet normal -0.951061 0.309002 0
    outer loop
      vertex -21.3088 5.47118 0
      vertex -20.4551 8.09874 5
      vertex -20.4551 8.09874 0
    endloop
  endfacet
  facet normal -0.951061 0.309002 0
    outer loop
      vertex -20.4551 8.09874 5
      vertex -21.3088 5.47118 0
      vertex -21.3088 5.47118 5
    endloop
  endfacet
  facet normal -0.125344 0.992113 0
    outer loop
      vertex -1.38139 21.9566 0
      vertex -4.12239 21.6103 5
      vertex -1.38139 21.9566 5
    endloop
  endfacet
  facet normal -0.125344 0.992113 0
    outer loop
      vertex -4.12239 21.6103 5
      vertex -1.38139 21.9566 0
      vertex -4.12239 21.6103 0
    endloop
  endfacet
  facet normal 0.125344 -0.992113 0
    outer loop
      vertex 1.38139 -21.9566 0
      vertex 4.12239 -21.6103 5
      vertex 1.38139 -21.9566 5
    endloop
  endfacet
  facet normal 0.125344 -0.992113 0
    outer loop
      vertex 4.12239 -21.6103 5
      vertex 1.38139 -21.9566 0
      vertex 4.12239 -21.6103 0
    endloop
  endfacet
  facet normal 0.951061 0.309002 0
    outer loop
      vertex 21.3088 5.47118 5
      vertex 20.4551 8.09874 0
      vertex 20.4551 8.09874 5
    endloop
  endfacet
  facet normal 0.951061 0.309002 0
    outer loop
      vertex 20.4551 8.09874 0
      vertex 21.3088 5.47118 5
      vertex 21.3088 5.47118 0
    endloop
  endfacet
  facet normal 0.770498 0.637443 0
    outer loop
      vertex 17.7984 12.9313 5
      vertex 16.0373 15.06 0
      vertex 16.0373 15.06 5
    endloop
  endfacet
  facet normal 0.770498 0.637443 0
    outer loop
      vertex 16.0373 15.06 0
      vertex 17.7984 12.9313 5
      vertex 17.7984 12.9313 0
    endloop
  endfacet
  facet normal 0.84434 0.535807 0
    outer loop
      vertex 19.2787 10.5986 5
      vertex 17.7984 12.9313 0
      vertex 17.7984 12.9313 5
    endloop
  endfacet
  facet normal 0.84434 0.535807 0
    outer loop
      vertex 17.7984 12.9313 0
      vertex 19.2787 10.5986 5
      vertex 19.2787 10.5986 0
    endloop
  endfacet
  facet normal 0.125344 0.992113 -0
    outer loop
      vertex 4.12239 21.6103 0
      vertex 1.38139 21.9566 5
      vertex 4.12239 21.6103 5
    endloop
  endfacet
  facet normal 0.125344 0.992113 0
    outer loop
      vertex 1.38139 21.9566 5
      vertex 4.12239 21.6103 0
      vertex 1.38139 21.9566 0
    endloop
  endfacet
  facet normal 0.587786 0.809016 -0
    outer loop
      vertex 14.0233 16.9513 0
      vertex 11.7882 18.5752 5
      vertex 14.0233 16.9513 5
    endloop
  endfacet
  facet normal 0.587786 0.809016 0
    outer loop
      vertex 11.7882 18.5752 5
      vertex 14.0233 16.9513 0
      vertex 11.7882 18.5752 0
    endloop
  endfacet
  facet normal -0.84434 0.535807 0
    outer loop
      vertex -19.2787 10.5986 0
      vertex -17.7984 12.9313 5
      vertex -17.7984 12.9313 0
    endloop
  endfacet
  facet normal -0.84434 0.535807 0
    outer loop
      vertex -17.7984 12.9313 5
      vertex -19.2787 10.5986 0
      vertex -19.2787 10.5986 5
    endloop
  endfacet
  facet normal -0.770498 0.637443 0
    outer loop
      vertex -17.7984 12.9313 0
      vertex -16.0373 15.06 5
      vertex -16.0373 15.06 0
    endloop
  endfacet
  facet normal -0.770498 0.637443 0
    outer loop
      vertex -16.0373 15.06 5
      vertex -17.7984 12.9313 0
      vertex -17.7984 12.9313 5
    endloop
  endfacet
  facet normal -0.982287 0.187383 0
    outer loop
      vertex -21.8265 2.75733 0
      vertex -21.3088 5.47118 5
      vertex -21.3088 5.47118 0
    endloop
  endfacet
  facet normal -0.982287 0.187383 0
    outer loop
      vertex -21.3088 5.47118 5
      vertex -21.8265 2.75733 0
      vertex -21.8265 2.75733 5
    endloop
  endfacet
  facet normal 0 0 1
    outer loop
      vertex 17.5 0 5
      vertex 22 0 5
      vertex 21.8265 2.75733 5
    endloop
  endfacet
  facet normal 0 0 1
    outer loop
      vertex 17.362 2.19333 5
      vertex 21.8265 2.75733 5
      vertex 21.3088 5.47118 5
    endloop
  endfacet
  facet normal 0 0 1
    outer loop
      vertex 22 0 5
      vertex 17.5 0 5
      vertex 21.8265 -2.75733 5
    endloop
  endfacet
  facet normal 0 0 1
    outer loop
      vertex 16.9502 4.35207 5
      vertex 21.3088 5.47118 5
      vertex 20.4551 8.09874 5
    endloop
  endfacet
  facet normal -0 0 1
    outer loop
      vertex 17.362 -2.19333 5
      vertex 21.8265 -2.75733 5
      vertex 17.5 0 5
    endloop
  endfacet
  facet normal 0 0 1
    outer loop
      vertex 16.2711 6.44218 5
      vertex 20.4551 8.09874 5
      vertex 19.2787 10.5986 5
    endloop
  endfacet
  facet normal 0 0 1
    outer loop
      vertex 21.8265 -2.75733 5
      vertex 17.362 -2.19333 5
      vertex 21.3088 -5.47118 5
    endloop
  endfacet
  facet normal 0 0 1
    outer loop
      vertex 15.3354 8.43069 5
      vertex 19.2787 10.5986 5
      vertex 17.7984 12.9313 5
    endloop
  endfacet
  facet normal -0 0 1
    outer loop
      vertex 16.9502 -4.35207 5
      vertex 21.3088 -5.47118 5
      vertex 17.362 -2.19333 5
    endloop
  endfacet
  facet normal 0 0 1
    outer loop
      vertex 21.3088 -5.47118 5
      vertex 16.9502 -4.35207 5
      vertex 20.4551 -8.09874 5
    endloop
  endfacet
  facet normal 0 0 1
    outer loop
      vertex 21.8265 2.75733 5
      vertex 17.362 2.19333 5
      vertex 17.5 0 5
    endloop
  endfacet
  facet normal 0 0 1
    outer loop
      vertex 21.3088 5.47118 5
      vertex 16.9502 4.35207 5
      vertex 17.362 2.19333 5
    endloop
  endfacet
  facet normal 0 0 1
    outer loop
      vertex 20.4551 8.09874 5
      vertex 16.2711 6.44218 5
      vertex 16.9502 4.35207 5
    endloop
  endfacet
  facet normal 0 0 1
    outer loop
      vertex 14.1578 10.2862 5
      vertex 17.7984 12.9313 5
      vertex 16.0373 15.06 5
    endloop
  endfacet
  facet normal 0 0 1
    outer loop
      vertex 19.2787 10.5986 5
      vertex 15.3354 8.43069 5
      vertex 16.2711 6.44218 5
    endloop
  endfacet
  facet normal 0 0 1
    outer loop
      vertex 17.7984 12.9313 5
      vertex 14.1578 10.2862 5
      vertex 15.3354 8.43069 5
    endloop
  endfacet
  facet normal 0 0 1
    outer loop
      vertex 12.757 11.9796 5
      vertex 16.0373 15.06 5
      vertex 14.0233 16.9513 5
    endloop
  endfacet
  facet normal 0 0 1
    outer loop
      vertex 16.0373 15.06 5
      vertex 12.757 11.9796 5
      vertex 14.1578 10.2862 5
    endloop
  endfacet
  facet normal 0 0 1
    outer loop
      vertex 11.1549 13.484 5
      vertex 14.0233 16.9513 5
      vertex 11.7882 18.5752 5
    endloop
  endfacet
  facet normal 0 0 1
    outer loop
      vertex 14.0233 16.9513 5
      vertex 11.1549 13.484 5
      vertex 12.757 11.9796 5
    endloop
  endfacet
  facet normal 0 0 1
    outer loop
      vertex 11.7882 18.5752 5
      vertex 9.37697 14.7757 5
      vertex 11.1549 13.484 5
    endloop
  endfacet
  facet normal 0 0 1
    outer loop
      vertex 9.36714 19.9062 5
      vertex 9.37697 14.7757 5
      vertex 11.7882 18.5752 5
    endloop
  endfacet
  facet normal 0 0 1
    outer loop
      vertex 9.36714 19.9062 5
      vertex 7.45114 15.8345 5
      vertex 9.37697 14.7757 5
    endloop
  endfacet
  facet normal 0 0 1
    outer loop
      vertex 6.79837 20.9232 5
      vertex 7.45114 15.8345 5
      vertex 9.36714 19.9062 5
    endloop
  endfacet
  facet normal 0 0 1
    outer loop
      vertex 6.79837 20.9232 5
      vertex 5.4078 16.6435 5
      vertex 7.45114 15.8345 5
    endloop
  endfacet
  facet normal 0 0 1
    outer loop
      vertex 4.12239 21.6103 5
      vertex 5.4078 16.6435 5
      vertex 6.79837 20.9232 5
    endloop
  endfacet
  facet normal 0 0 1
    outer loop
      vertex 4.12239 21.6103 5
      vertex 3.27917 17.19 5
      vertex 5.4078 16.6435 5
    endloop
  endfacet
  facet normal 0 0 1
    outer loop
      vertex 1.38139 21.9566 5
      vertex 3.27917 17.19 5
      vertex 4.12239 21.6103 5
    endloop
  endfacet
  facet normal 0 0 1
    outer loop
      vertex 1.38139 21.9566 5
      vertex 1.09883 17.4655 5
      vertex 3.27917 17.19 5
    endloop
  endfacet
  facet normal 0 0 1
    outer loop
      vertex 1.38139 21.9566 5
      vertex -1.09883 17.4655 5
      vertex 1.09883 17.4655 5
    endloop
  endfacet
  facet normal -0 0 1
    outer loop
      vertex -1.38139 21.9566 5
      vertex -1.09883 17.4655 5
      vertex 1.38139 21.9566 5
    endloop
  endfacet
  facet normal 0 0 1
    outer loop
      vertex -1.38139 21.9566 5
      vertex -3.27917 17.19 5
      vertex -1.09883 17.4655 5
    endloop
  endfacet
  facet normal -0 0 1
    outer loop
      vertex -4.12239 21.6103 5
      vertex -3.27917 17.19 5
      vertex -1.38139 21.9566 5
    endloop
  endfacet
  facet normal 0 0 1
    outer loop
      vertex -4.12239 21.6103 5
      vertex -5.4078 16.6435 5
      vertex -3.27917 17.19 5
    endloop
  endfacet
  facet normal -0 0 1
    outer loop
      vertex -6.79837 20.9232 5
      vertex -5.4078 16.6435 5
      vertex -4.12239 21.6103 5
    endloop
  endfacet
  facet normal 0 0 1
    outer loop
      vertex -6.79837 20.9232 5
      vertex -7.45114 15.8345 5
      vertex -5.4078 16.6435 5
    endloop
  endfacet
  facet normal -0 0 1
    outer loop
      vertex -9.36714 19.9062 5
      vertex -7.45114 15.8345 5
      vertex -6.79837 20.9232 5
    endloop
  endfacet
  facet normal 0 0 1
    outer loop
      vertex -9.36714 19.9062 5
      vertex -9.37697 14.7757 5
      vertex -7.45114 15.8345 5
    endloop
  endfacet
  facet normal -0 0 1
    outer loop
      vertex -11.7882 18.5752 5
      vertex -9.37697 14.7757 5
      vertex -9.36714 19.9062 5
    endloop
  endfacet
  facet normal 0 0 1
    outer loop
      vertex -9.37697 14.7757 5
      vertex -11.7882 18.5752 5
      vertex -11.1549 13.484 5
    endloop
  endfacet
  facet normal -0 0 1
    outer loop
      vertex -14.0233 16.9513 5
      vertex -11.1549 13.484 5
      vertex -11.7882 18.5752 5
    endloop
  endfacet
  facet normal 0 0 1
    outer loop
      vertex -11.1549 13.484 5
      vertex -14.0233 16.9513 5
      vertex -12.757 11.9796 5
    endloop
  endfacet
  facet normal -0 0 1
    outer loop
      vertex -16.0373 15.06 5
      vertex -12.757 11.9796 5
      vertex -14.0233 16.9513 5
    endloop
  endfacet
  facet normal 0 0 1
    outer loop
      vertex -12.757 11.9796 5
      vertex -16.0373 15.06 5
      vertex -14.1578 10.2862 5
    endloop
  endfacet
  facet normal -0 0 1
    outer loop
      vertex -17.7984 12.9313 5
      vertex -14.1578 10.2862 5
      vertex -16.0373 15.06 5
    endloop
  endfacet
  facet normal 0 0 1
    outer loop
      vertex -14.1578 10.2862 5
      vertex -17.7984 12.9313 5
      vertex -15.3354 8.43069 5
    endloop
  endfacet
  facet normal -0 0 1
    outer loop
      vertex -19.2787 10.5986 5
      vertex -15.3354 8.43069 5
      vertex -17.7984 12.9313 5
    endloop
  endfacet
  facet normal 0 0 1
    outer loop
      vertex -15.3354 8.43069 5
      vertex -19.2787 10.5986 5
      vertex -16.2711 6.44218 5
    endloop
  endfacet
  facet normal 0 0 1
    outer loop
      vertex -16.2711 6.44218 5
      vertex -20.4551 8.09874 5
      vertex -16.9502 4.35207 5
    endloop
  endfacet
  facet normal -0 0 1
    outer loop
      vertex -20.4551 8.09874 5
      vertex -16.2711 6.44218 5
      vertex -19.2787 10.5986 5
    endloop
  endfacet
  facet normal -0 0 1
    outer loop
      vertex 16.2711 -6.44218 5
      vertex 20.4551 -8.09874 5
      vertex 16.9502 -4.35207 5
    endloop
  endfacet
  facet normal 0 0 1
    outer loop
      vertex 20.4551 -8.09874 5
      vertex 16.2711 -6.44218 5
      vertex 19.2787 -10.5986 5
    endloop
  endfacet
  facet normal -0 0 1
    outer loop
      vertex 15.3354 -8.43069 5
      vertex 19.2787 -10.5986 5
      vertex 16.2711 -6.44218 5
    endloop
  endfacet
  facet normal 0 0 1
    outer loop
      vertex 19.2787 -10.5986 5
      vertex 15.3354 -8.43069 5
      vertex 17.7984 -12.9313 5
    endloop
  endfacet
  facet normal -0 0 1
    outer loop
      vertex 14.1578 -10.2862 5
      vertex 17.7984 -12.9313 5
      vertex 15.3354 -8.43069 5
    endloop
  endfacet
  facet normal 0 0 1
    outer loop
      vertex 17.7984 -12.9313 5
      vertex 14.1578 -10.2862 5
      vertex 16.0373 -15.06 5
    endloop
  endfacet
  facet normal -0 0 1
    outer loop
      vertex 12.757 -11.9796 5
      vertex 16.0373 -15.06 5
      vertex 14.1578 -10.2862 5
    endloop
  endfacet
  facet normal 0 0 1
    outer loop
      vertex 16.0373 -15.06 5
      vertex 12.757 -11.9796 5
      vertex 14.0233 -16.9513 5
    endloop
  endfacet
  facet normal -0 0 1
    outer loop
      vertex 11.1549 -13.484 5
      vertex 14.0233 -16.9513 5
      vertex 12.757 -11.9796 5
    endloop
  endfacet
  facet normal 0 0 1
    outer loop
      vertex 14.0233 -16.9513 5
      vertex 11.1549 -13.484 5
      vertex 11.7882 -18.5752 5
    endloop
  endfacet
  facet normal -0 0 1
    outer loop
      vertex 9.37697 -14.7757 5
      vertex 11.7882 -18.5752 5
      vertex 11.1549 -13.484 5
    endloop
  endfacet
  facet normal 0 0 1
    outer loop
      vertex 9.37697 -14.7757 5
      vertex 9.36714 -19.9062 5
      vertex 11.7882 -18.5752 5
    endloop
  endfacet
  facet normal -0 0 1
    outer loop
      vertex 7.45114 -15.8345 5
      vertex 9.36714 -19.9062 5
      vertex 9.37697 -14.7757 5
    endloop
  endfacet
  facet normal 0 0 1
    outer loop
      vertex 7.45114 -15.8345 5
      vertex 6.79837 -20.9232 5
      vertex 9.36714 -19.9062 5
    endloop
  endfacet
  facet normal -0 0 1
    outer loop
      vertex 5.4078 -16.6435 5
      vertex 6.79837 -20.9232 5
      vertex 7.45114 -15.8345 5
    endloop
  endfacet
  facet normal 0 0 1
    outer loop
      vertex 5.4078 -16.6435 5
      vertex 4.12239 -21.6103 5
      vertex 6.79837 -20.9232 5
    endloop
  endfacet
  facet normal -0 0 1
    outer loop
      vertex 3.27917 -17.19 5
      vertex 4.12239 -21.6103 5
      vertex 5.4078 -16.6435 5
    endloop
  endfacet
  facet normal 0 0 1
    outer loop
      vertex 3.27917 -17.19 5
      vertex 1.38139 -21.9566 5
      vertex 4.12239 -21.6103 5
    endloop
  endfacet
  facet normal -0 0 1
    outer loop
      vertex 1.09883 -17.4655 5
      vertex 1.38139 -21.9566 5
      vertex 3.27917 -17.19 5
    endloop
  endfacet
  facet normal -0 0 1
    outer loop
      vertex -1.09883 -17.4655 5
      vertex 1.38139 -21.9566 5
      vertex 1.09883 -17.4655 5
    endloop
  endfacet
  facet normal 0 0 1
    outer loop
      vertex -1.09883 -17.4655 5
      vertex -1.38139 -21.9566 5
      vertex 1.38139 -21.9566 5
    endloop
  endfacet
  facet normal 0 0 1
    outer loop
      vertex -3.27917 -17.19 5
      vertex -1.38139 -21.9566 5
      vertex -1.09883 -17.4655 5
    endloop
  endfacet
  facet normal 0 0 1
    outer loop
      vertex -3.27917 -17.19 5
      vertex -4.12239 -21.6103 5
      vertex -1.38139 -21.9566 5
    endloop
  endfacet
  facet normal 0 0 1
    outer loop
      vertex -5.4078 -16.6435 5
      vertex -4.12239 -21.6103 5
      vertex -3.27917 -17.19 5
    endloop
  endfacet
  facet normal 0 0 1
    outer loop
      vertex -5.4078 -16.6435 5
      vertex -6.79837 -20.9232 5
      vertex -4.12239 -21.6103 5
    endloop
  endfacet
  facet normal 0 0 1
    outer loop
      vertex -7.45114 -15.8345 5
      vertex -6.79837 -20.9232 5
      vertex -5.4078 -16.6435 5
    endloop
  endfacet
  facet normal 0 0 1
    outer loop
      vertex -7.45114 -15.8345 5
      vertex -9.36714 -19.9062 5
      vertex -6.79837 -20.9232 5
    endloop
  endfacet
  facet normal 0 0 1
    outer loop
      vertex -9.37697 -14.7757 5
      vertex -9.36714 -19.9062 5
      vertex -7.45114 -15.8345 5
    endloop
  endfacet
  facet normal 0 0 1
    outer loop
      vertex -11.7882 -18.5752 5
      vertex -9.37697 -14.7757 5
      vertex -11.1549 -13.484 5
    endloop
  endfacet
  facet normal 0 0 1
    outer loop
      vertex -9.37697 -14.7757 5
      vertex -11.7882 -18.5752 5
      vertex -9.36714 -19.9062 5
    endloop
  endfacet
  facet normal 0 0 1
    outer loop
      vertex -14.0233 -16.9513 5
      vertex -11.1549 -13.484 5
      vertex -12.757 -11.9796 5
    endloop
  endfacet
  facet normal 0 0 1
    outer loop
      vertex -11.1549 -13.484 5
      vertex -14.0233 -16.9513 5
      vertex -11.7882 -18.5752 5
    endloop
  endfacet
  facet normal 0 0 1
    outer loop
      vertex -16.0373 -15.06 5
      vertex -12.757 -11.9796 5
      vertex -14.1578 -10.2862 5
    endloop
  endfacet
  facet normal 0 0 1
    outer loop
      vertex -17.7984 -12.9313 5
      vertex -14.1578 -10.2862 5
      vertex -15.3354 -8.43069 5
    endloop
  endfacet
  facet normal 0 0 1
    outer loop
      vertex -12.757 -11.9796 5
      vertex -16.0373 -15.06 5
      vertex -14.0233 -16.9513 5
    endloop
  endfacet
  facet normal 0 0 1
    outer loop
      vertex -19.2787 -10.5986 5
      vertex -15.3354 -8.43069 5
      vertex -16.2711 -6.44218 5
    endloop
  endfacet
  facet normal 0 0 1
    outer loop
      vertex -20.4551 -8.09874 5
      vertex -16.2711 -6.44218 5
      vertex -16.9502 -4.35207 5
    endloop
  endfacet
  facet normal 0 0 1
    outer loop
      vertex -21.3088 -5.47118 5
      vertex -16.9502 -4.35207 5
      vertex -17.362 -2.19333 5
    endloop
  endfacet
  facet normal 0 0 1
    outer loop
      vertex -14.1578 -10.2862 5
      vertex -17.7984 -12.9313 5
      vertex -16.0373 -15.06 5
    endloop
  endfacet
  facet normal 0 0 1
    outer loop
      vertex -21.8265 -2.75733 5
      vertex -17.362 -2.19333 5
      vertex -17.5 0 5
    endloop
  endfacet
  facet normal -0 0 1
    outer loop
      vertex -21.3088 5.47118 5
      vertex -16.9502 4.35207 5
      vertex -20.4551 8.09874 5
    endloop
  endfacet
  facet normal 0 0 1
    outer loop
      vertex -16.9502 4.35207 5
      vertex -21.3088 5.47118 5
      vertex -17.362 2.19333 5
    endloop
  endfacet
  facet normal 0 0 1
    outer loop
      vertex -15.3354 -8.43069 5
      vertex -19.2787 -10.5986 5
      vertex -17.7984 -12.9313 5
    endloop
  endfacet
  facet normal -0 0 1
    outer loop
      vertex -21.8265 2.75733 5
      vertex -17.362 2.19333 5
      vertex -21.3088 5.47118 5
    endloop
  endfacet
  facet normal 0 0 1
    outer loop
      vertex -16.2711 -6.44218 5
      vertex -20.4551 -8.09874 5
      vertex -19.2787 -10.5986 5
    endloop
  endfacet
  facet normal 0 0 1
    outer loop
      vertex -17.362 2.19333 5
      vertex -21.8265 2.75733 5
      vertex -17.5 0 5
    endloop
  endfacet
  facet normal 0 0 1
    outer loop
      vertex -16.9502 -4.35207 5
      vertex -21.3088 -5.47118 5
      vertex -20.4551 -8.09874 5
    endloop
  endfacet
  facet normal 0 0 1
    outer loop
      vertex -22 0 5
      vertex -17.5 0 5
      vertex -21.8265 2.75733 5
    endloop
  endfacet
  facet normal 0 0 1
    outer loop
      vertex -17.362 -2.19333 5
      vertex -21.8265 -2.75733 5
      vertex -21.3088 -5.47118 5
    endloop
  endfacet
  facet normal 0 0 1
    outer loop
      vertex -17.5 0 5
      vertex -22 0 5
      vertex -21.8265 -2.75733 5
    endloop
  endfacet
  facet normal -0.481757 0.876305 0
    outer loop
      vertex -9.36714 19.9062 0
      vertex -11.7882 18.5752 5
      vertex -9.36714 19.9062 5
    endloop
  endfacet
  facet normal -0.481757 0.876305 0
    outer loop
      vertex -11.7882 18.5752 5
      vertex -9.36714 19.9062 0
      vertex -11.7882 18.5752 0
    endloop
  endfacet
  facet normal -0.587786 0.809016 0
    outer loop
      vertex -11.7882 18.5752 0
      vertex -14.0233 16.9513 5
      vertex -11.7882 18.5752 5
    endloop
  endfacet
  facet normal -0.587786 0.809016 0
    outer loop
      vertex -14.0233 16.9513 5
      vertex -11.7882 18.5752 0
      vertex -14.0233 16.9513 0
    endloop
  endfacet
  facet normal -0.248698 0.968581 0
    outer loop
      vertex -4.12239 21.6103 0
      vertex -6.79837 20.9232 5
      vertex -4.12239 21.6103 5
    endloop
  endfacet
  facet normal -0.248698 0.968581 0
    outer loop
      vertex -6.79837 20.9232 5
      vertex -4.12239 21.6103 0
      vertex -6.79837 20.9232 0
    endloop
  endfacet
  facet normal 0.998026 -0.062799 0
    outer loop
      vertex 21.8265 -2.75733 5
      vertex 22 0 0
      vertex 22 0 5
    endloop
  endfacet
  facet normal 0.998026 -0.062799 0
    outer loop
      vertex 22 0 0
      vertex 21.8265 -2.75733 5
      vertex 21.8265 -2.75733 0
    endloop
  endfacet
  facet normal 0.982287 -0.187383 0
    outer loop
      vertex 21.3088 -5.47118 5
      vertex 21.8265 -2.75733 0
      vertex 21.8265 -2.75733 5
    endloop
  endfacet
  facet normal 0.982287 -0.187383 0
    outer loop
      vertex 21.8265 -2.75733 0
      vertex 21.3088 -5.47118 5
      vertex 21.3088 -5.47118 0
    endloop
  endfacet
  facet normal -0.684553 -0.728964 0
    outer loop
      vertex -16.0373 -15.06 0
      vertex -14.0233 -16.9513 5
      vertex -16.0373 -15.06 5
    endloop
  endfacet
  facet normal -0.684553 -0.728964 -0
    outer loop
      vertex -14.0233 -16.9513 5
      vertex -16.0373 -15.06 0
      vertex -14.0233 -16.9513 0
    endloop
  endfacet
  facet normal -0.904819 -0.425796 0
    outer loop
      vertex -19.2787 -10.5986 0
      vertex -20.4551 -8.09874 5
      vertex -20.4551 -8.09874 0
    endloop
  endfacet
  facet normal -0.904819 -0.425796 0
    outer loop
      vertex -20.4551 -8.09874 5
      vertex -19.2787 -10.5986 0
      vertex -19.2787 -10.5986 5
    endloop
  endfacet
  facet normal -0.84434 -0.535807 0
    outer loop
      vertex -17.7984 -12.9313 0
      vertex -19.2787 -10.5986 5
      vertex -19.2787 -10.5986 0
    endloop
  endfacet
  facet normal -0.84434 -0.535807 0
    outer loop
      vertex -19.2787 -10.5986 5
      vertex -17.7984 -12.9313 0
      vertex -17.7984 -12.9313 5
    endloop
  endfacet
  facet normal 0 0 -1
    outer loop
      vertex 17.5 0 0
      vertex 22 0 0
      vertex 21.8265 -2.75733 0
    endloop
  endfacet
  facet normal 0 0 -1
    outer loop
      vertex 17.362 -2.19333 0
      vertex 21.8265 -2.75733 0
      vertex 21.3088 -5.47118 0
    endloop
  endfacet
  facet normal 0 0 -1
    outer loop
      vertex 22 0 0
      vertex 17.5 0 0
      vertex 21.8265 2.75733 0
    endloop
  endfacet
  facet normal 0 0 -1
    outer loop
      vertex 16.9502 -4.35207 0
      vertex 21.3088 -5.47118 0
      vertex 20.4551 -8.09874 0
    endloop
  endfacet
  facet normal 0 0 -1
    outer loop
      vertex 17.362 2.19333 0
      vertex 21.8265 2.75733 0
      vertex 17.5 0 0
    endloop
  endfacet
  facet normal 0 0 -1
    outer loop
      vertex 16.2711 -6.44218 0
      vertex 20.4551 -8.09874 0
      vertex 19.2787 -10.5986 0
    endloop
  endfacet
  facet normal -0 0 -1
    outer loop
      vertex 21.8265 2.75733 0
      vertex 17.362 2.19333 0
      vertex 21.3088 5.47118 0
    endloop
  endfacet
  facet normal 0 0 -1
    outer loop
      vertex 15.3354 -8.43069 0
      vertex 19.2787 -10.5986 0
      vertex 17.7984 -12.9313 0
    endloop
  endfacet
  facet normal 0 0 -1
    outer loop
      vertex 16.9502 4.35207 0
      vertex 21.3088 5.47118 0
      vertex 17.362 2.19333 0
    endloop
  endfacet
  facet normal -0 0 -1
    outer loop
      vertex 21.3088 5.47118 0
      vertex 16.9502 4.35207 0
      vertex 20.4551 8.09874 0
    endloop
  endfacet
  facet normal 0 0 -1
    outer loop
      vertex 21.8265 -2.75733 0
      vertex 17.362 -2.19333 0
      vertex 17.5 0 0
    endloop
  endfacet
  facet normal 0 0 -1
    outer loop
      vertex 21.3088 -5.47118 0
      vertex 16.9502 -4.35207 0
      vertex 17.362 -2.19333 0
    endloop
  endfacet
  facet normal 0 0 -1
    outer loop
      vertex 20.4551 -8.09874 0
      vertex 16.2711 -6.44218 0
      vertex 16.9502 -4.35207 0
    endloop
  endfacet
  facet normal 0 0 -1
    outer loop
      vertex 14.1578 -10.2862 0
      vertex 17.7984 -12.9313 0
      vertex 16.0373 -15.06 0
    endloop
  endfacet
  facet normal 0 0 -1
    outer loop
      vertex 19.2787 -10.5986 0
      vertex 15.3354 -8.43069 0
      vertex 16.2711 -6.44218 0
    endloop
  endfacet
  facet normal 0 0 -1
    outer loop
      vertex 17.7984 -12.9313 0
      vertex 14.1578 -10.2862 0
      vertex 15.3354 -8.43069 0
    endloop
  endfacet
  facet normal 0 0 -1
    outer loop
      vertex 12.757 -11.9796 0
      vertex 16.0373 -15.06 0
      vertex 14.0233 -16.9513 0
    endloop
  endfacet
  facet normal 0 0 -1
    outer loop
      vertex 16.0373 -15.06 0
      vertex 12.757 -11.9796 0
      vertex 14.1578 -10.2862 0
    endloop
  endfacet
  facet normal 0 0 -1
    outer loop
      vertex 11.1549 -13.484 0
      vertex 14.0233 -16.9513 0
      vertex 11.7882 -18.5752 0
    endloop
  endfacet
  facet normal 0 0 -1
    outer loop
      vertex 14.0233 -16.9513 0
      vertex 11.1549 -13.484 0
      vertex 12.757 -11.9796 0
    endloop
  endfacet
  facet normal 0 0 -1
    outer loop
      vertex 11.7882 -18.5752 0
      vertex 9.37697 -14.7757 0
      vertex 11.1549 -13.484 0
    endloop
  endfacet
  facet normal 0 0 -1
    outer loop
      vertex 9.36714 -19.9062 0
      vertex 9.37697 -14.7757 0
      vertex 11.7882 -18.5752 0
    endloop
  endfacet
  facet normal 0 0 -1
    outer loop
      vertex 9.36714 -19.9062 0
      vertex 7.45114 -15.8345 0
      vertex 9.37697 -14.7757 0
    endloop
  endfacet
  facet normal 0 0 -1
    outer loop
      vertex 6.79837 -20.9232 0
      vertex 7.45114 -15.8345 0
      vertex 9.36714 -19.9062 0
    endloop
  endfacet
  facet normal 0 0 -1
    outer loop
      vertex 6.79837 -20.9232 0
      vertex 5.4078 -16.6435 0
      vertex 7.45114 -15.8345 0
    endloop
  endfacet
  facet normal 0 0 -1
    outer loop
      vertex 4.12239 -21.6103 0
      vertex 5.4078 -16.6435 0
      vertex 6.79837 -20.9232 0
    endloop
  endfacet
  facet normal 0 0 -1
    outer loop
      vertex 4.12239 -21.6103 0
      vertex 3.27917 -17.19 0
      vertex 5.4078 -16.6435 0
    endloop
  endfacet
  facet normal 0 0 -1
    outer loop
      vertex 1.38139 -21.9566 0
      vertex 3.27917 -17.19 0
      vertex 4.12239 -21.6103 0
    endloop
  endfacet
  facet normal 0 0 -1
    outer loop
      vertex 1.38139 -21.9566 0
      vertex 1.09883 -17.4655 0
      vertex 3.27917 -17.19 0
    endloop
  endfacet
  facet normal 0 0 -1
    outer loop
      vertex 1.38139 -21.9566 0
      vertex -1.09883 -17.4655 0
      vertex 1.09883 -17.4655 0
    endloop
  endfacet
  facet normal 0 0 -1
    outer loop
      vertex -1.38139 -21.9566 0
      vertex -1.09883 -17.4655 0
      vertex 1.38139 -21.9566 0
    endloop
  endfacet
  facet normal 0 0 -1
    outer loop
      vertex -1.38139 -21.9566 0
      vertex -3.27917 -17.19 0
      vertex -1.09883 -17.4655 0
    endloop
  endfacet
  facet normal 0 0 -1
    outer loop
      vertex -4.12239 -21.6103 0
      vertex -3.27917 -17.19 0
      vertex -1.38139 -21.9566 0
    endloop
  endfacet
  facet normal 0 0 -1
    outer loop
      vertex -4.12239 -21.6103 0
      vertex -5.4078 -16.6435 0
      vertex -3.27917 -17.19 0
    endloop
  endfacet
  facet normal 0 0 -1
    outer loop
      vertex -6.79837 -20.9232 0
      vertex -5.4078 -16.6435 0
      vertex -4.12239 -21.6103 0
    endloop
  endfacet
  facet normal 0 0 -1
    outer loop
      vertex -6.79837 -20.9232 0
      vertex -7.45114 -15.8345 0
      vertex -5.4078 -16.6435 0
    endloop
  endfacet
  facet normal 0 0 -1
    outer loop
      vertex -9.36714 -19.9062 0
      vertex -7.45114 -15.8345 0
      vertex -6.79837 -20.9232 0
    endloop
  endfacet
  facet normal 0 0 -1
    outer loop
      vertex -9.36714 -19.9062 0
      vertex -9.37697 -14.7757 0
      vertex -7.45114 -15.8345 0
    endloop
  endfacet
  facet normal 0 0 -1
    outer loop
      vertex -11.7882 -18.5752 0
      vertex -9.37697 -14.7757 0
      vertex -9.36714 -19.9062 0
    endloop
  endfacet
  facet normal -0 0 -1
    outer loop
      vertex -9.37697 -14.7757 0
      vertex -11.7882 -18.5752 0
      vertex -11.1549 -13.484 0
    endloop
  endfacet
  facet normal 0 0 -1
    outer loop
      vertex -14.0233 -16.9513 0
      vertex -11.1549 -13.484 0
      vertex -11.7882 -18.5752 0
    endloop
  endfacet
  facet normal -0 0 -1
    outer loop
      vertex -11.1549 -13.484 0
      vertex -14.0233 -16.9513 0
      vertex -12.757 -11.9796 0
    endloop
  endfacet
  facet normal 0 0 -1
    outer loop
      vertex -16.0373 -15.06 0
      vertex -12.757 -11.9796 0
      vertex -14.0233 -16.9513 0
    endloop
  endfacet
  facet normal -0 0 -1
    outer loop
      vertex -12.757 -11.9796 0
      vertex -16.0373 -15.06 0
      vertex -14.1578 -10.2862 0
    endloop
  endfacet
  facet normal 0 0 -1
    outer loop
      vertex -17.7984 -12.9313 0
      vertex -14.1578 -10.2862 0
      vertex -16.0373 -15.06 0
    endloop
  endfacet
  facet normal -0 0 -1
    outer loop
      vertex -14.1578 -10.2862 0
      vertex -17.7984 -12.9313 0
      vertex -15.3354 -8.43069 0
    endloop
  endfacet
  facet normal 0 0 -1
    outer loop
      vertex -19.2787 -10.5986 0
      vertex -15.3354 -8.43069 0
      vertex -17.7984 -12.9313 0
    endloop
  endfacet
  facet normal -0 0 -1
    outer loop
      vertex -15.3354 -8.43069 0
      vertex -19.2787 -10.5986 0
      vertex -16.2711 -6.44218 0
    endloop
  endfacet
  facet normal -0 0 -1
    outer loop
      vertex -16.2711 -6.44218 0
      vertex -20.4551 -8.09874 0
      vertex -16.9502 -4.35207 0
    endloop
  endfacet
  facet normal 0 0 -1
    outer loop
      vertex -20.4551 -8.09874 0
      vertex -16.2711 -6.44218 0
      vertex -19.2787 -10.5986 0
    endloop
  endfacet
  facet normal 0 0 -1
    outer loop
      vertex 16.2711 6.44218 0
      vertex 20.4551 8.09874 0
      vertex 16.9502 4.35207 0
    endloop
  endfacet
  facet normal -0 0 -1
    outer loop
      vertex 20.4551 8.09874 0
      vertex 16.2711 6.44218 0
      vertex 19.2787 10.5986 0
    endloop
  endfacet
  facet normal 0 0 -1
    outer loop
      vertex 15.3354 8.43069 0
      vertex 19.2787 10.5986 0
      vertex 16.2711 6.44218 0
    endloop
  endfacet
  facet normal -0 0 -1
    outer loop
      vertex 19.2787 10.5986 0
      vertex 15.3354 8.43069 0
      vertex 17.7984 12.9313 0
    endloop
  endfacet
  facet normal 0 0 -1
    outer loop
      vertex 14.1578 10.2862 0
      vertex 17.7984 12.9313 0
      vertex 15.3354 8.43069 0
    endloop
  endfacet
  facet normal -0 0 -1
    outer loop
      vertex 17.7984 12.9313 0
      vertex 14.1578 10.2862 0
      vertex 16.0373 15.06 0
    endloop
  endfacet
  facet normal 0 0 -1
    outer loop
      vertex 12.757 11.9796 0
      vertex 16.0373 15.06 0
      vertex 14.1578 10.2862 0
    endloop
  endfacet
  facet normal -0 0 -1
    outer loop
      vertex 16.0373 15.06 0
      vertex 12.757 11.9796 0
      vertex 14.0233 16.9513 0
    endloop
  endfacet
  facet normal 0 0 -1
    outer loop
      vertex 11.1549 13.484 0
      vertex 14.0233 16.9513 0
      vertex 12.757 11.9796 0
    endloop
  endfacet
  facet normal -0 0 -1
    outer loop
      vertex 14.0233 16.9513 0
      vertex 11.1549 13.484 0
      vertex 11.7882 18.5752 0
    endloop
  endfacet
  facet normal 0 0 -1
    outer loop
      vertex 9.37697 14.7757 0
      vertex 11.7882 18.5752 0
      vertex 11.1549 13.484 0
    endloop
  endfacet
  facet normal 0 0 -1
    outer loop
      vertex 9.37697 14.7757 0
      vertex 9.36714 19.9062 0
      vertex 11.7882 18.5752 0
    endloop
  endfacet
  facet normal 0 0 -1
    outer loop
      vertex 7.45114 15.8345 0
      vertex 9.36714 19.9062 0
      vertex 9.37697 14.7757 0
    endloop
  endfacet
  facet normal 0 0 -1
    outer loop
      vertex 7.45114 15.8345 0
      vertex 6.79837 20.9232 0
      vertex 9.36714 19.9062 0
    endloop
  endfacet
  facet normal 0 0 -1
    outer loop
      vertex 5.4078 16.6435 0
      vertex 6.79837 20.9232 0
      vertex 7.45114 15.8345 0
    endloop
  endfacet
  facet normal 0 0 -1
    outer loop
      vertex 5.4078 16.6435 0
      vertex 4.12239 21.6103 0
      vertex 6.79837 20.9232 0
    endloop
  endfacet
  facet normal 0 0 -1
    outer loop
      vertex 3.27917 17.19 0
      vertex 4.12239 21.6103 0
      vertex 5.4078 16.6435 0
    endloop
  endfacet
  facet normal 0 0 -1
    outer loop
      vertex 3.27917 17.19 0
      vertex 1.38139 21.9566 0
      vertex 4.12239 21.6103 0
    endloop
  endfacet
  facet normal 0 0 -1
    outer loop
      vertex 1.09883 17.4655 0
      vertex 1.38139 21.9566 0
      vertex 3.27917 17.19 0
    endloop
  endfacet
  facet normal 0 0 -1
    outer loop
      vertex -1.09883 17.4655 0
      vertex 1.38139 21.9566 0
      vertex 1.09883 17.4655 0
    endloop
  endfacet
  facet normal 0 0 -1
    outer loop
      vertex -1.09883 17.4655 0
      vertex -1.38139 21.9566 0
      vertex 1.38139 21.9566 0
    endloop
  endfacet
  facet normal 0 0 -1
    outer loop
      vertex -3.27917 17.19 0
      vertex -1.38139 21.9566 0
      vertex -1.09883 17.4655 0
    endloop
  endfacet
  facet normal 0 0 -1
    outer loop
      vertex -3.27917 17.19 0
      vertex -4.12239 21.6103 0
      vertex -1.38139 21.9566 0
    endloop
  endfacet
  facet normal 0 0 -1
    outer loop
      vertex -5.4078 16.6435 0
      vertex -4.12239 21.6103 0
      vertex -3.27917 17.19 0
    endloop
  endfacet
  facet normal 0 0 -1
    outer loop
      vertex -5.4078 16.6435 0
      vertex -6.79837 20.9232 0
      vertex -4.12239 21.6103 0
    endloop
  endfacet
  facet normal 0 0 -1
    outer loop
      vertex -7.45114 15.8345 0
      vertex -6.79837 20.9232 0
      vertex -5.4078 16.6435 0
    endloop
  endfacet
  facet normal 0 0 -1
    outer loop
      vertex -7.45114 15.8345 0
      vertex -9.36714 19.9062 0
      vertex -6.79837 20.9232 0
    endloop
  endfacet
  facet normal 0 0 -1
    outer loop
      vertex -9.37697 14.7757 0
      vertex -9.36714 19.9062 0
      vertex -7.45114 15.8345 0
    endloop
  endfacet
  facet normal 0 0 -1
    outer loop
      vertex -11.7882 18.5752 0
      vertex -9.37697 14.7757 0
      vertex -11.1549 13.484 0
    endloop
  endfacet
  facet normal 0 0 -1
    outer loop
      vertex -9.37697 14.7757 0
      vertex -11.7882 18.5752 0
      vertex -9.36714 19.9062 0
    endloop
  endfacet
  facet normal 0 0 -1
    outer loop
      vertex -14.0233 16.9513 0
      vertex -11.1549 13.484 0
      vertex -12.757 11.9796 0
    endloop
  endfacet
  facet normal 0 0 -1
    outer loop
      vertex -11.1549 13.484 0
      vertex -14.0233 16.9513 0
      vertex -11.7882 18.5752 0
    endloop
  endfacet
  facet normal 0 0 -1
    outer loop
      vertex -16.0373 15.06 0
      vertex -12.757 11.9796 0
      vertex -14.1578 10.2862 0
    endloop
  endfacet
  facet normal 0 0 -1
    outer loop
      vertex -17.7984 12.9313 0
      vertex -14.1578 10.2862 0
      vertex -15.3354 8.43069 0
    endloop
  endfacet
  facet normal 0 0 -1
    outer loop
      vertex -12.757 11.9796 0
      vertex -16.0373 15.06 0
      vertex -14.0233 16.9513 0
    endloop
  endfacet
  facet normal 0 0 -1
    outer loop
      vertex -19.2787 10.5986 0
      vertex -15.3354 8.43069 0
      vertex -16.2711 6.44218 0
    endloop
  endfacet
  facet normal 0 0 -1
    outer loop
      vertex -20.4551 8.09874 0
      vertex -16.2711 6.44218 0
      vertex -16.9502 4.35207 0
    endloop
  endfacet
  facet normal 0 0 -1
    outer loop
      vertex -21.3088 5.47118 0
      vertex -16.9502 4.35207 0
      vertex -17.362 2.19333 0
    endloop
  endfacet
  facet normal 0 0 -1
    outer loop
      vertex -14.1578 10.2862 0
      vertex -17.7984 12.9313 0
      vertex -16.0373 15.06 0
    endloop
  endfacet
  facet normal 0 0 -1
    outer loop
      vertex -21.8265 2.75733 0
      vertex -17.362 2.19333 0
      vertex -17.5 0 0
    endloop
  endfacet
  facet normal 0 0 -1
    outer loop
      vertex -21.3088 -5.47118 0
      vertex -16.9502 -4.35207 0
      vertex -20.4551 -8.09874 0
    endloop
  endfacet
  facet normal -0 0 -1
    outer loop
      vertex -16.9502 -4.35207 0
      vertex -21.3088 -5.47118 0
      vertex -17.362 -2.19333 0
    endloop
  endfacet
  facet normal 0 0 -1
    outer loop
      vertex -15.3354 8.43069 0
      vertex -19.2787 10.5986 0
      vertex -17.7984 12.9313 0
    endloop
  endfacet
  facet normal 0 0 -1
    outer loop
      vertex -21.8265 -2.75733 0
      vertex -17.362 -2.19333 0
      vertex -21.3088 -5.47118 0
    endloop
  endfacet
  facet normal 0 0 -1
    outer loop
      vertex -16.2711 6.44218 0
      vertex -20.4551 8.09874 0
      vertex -19.2787 10.5986 0
    endloop
  endfacet
  facet normal -0 0 -1
    outer loop
      vertex -17.362 -2.19333 0
      vertex -21.8265 -2.75733 0
      vertex -17.5 0 0
    endloop
  endfacet
  facet normal 0 0 -1
    outer loop
      vertex -16.9502 4.35207 0
      vertex -21.3088 5.47118 0
      vertex -20.4551 8.09874 0
    endloop
  endfacet
  facet normal 0 0 -1
    outer loop
      vertex -22 0 0
      vertex -17.5 0 0
      vertex -21.8265 -2.75733 0
    endloop
  endfacet
  facet normal 0 0 -1
    outer loop
      vertex -17.362 2.19333 0
      vertex -21.8265 2.75733 0
      vertex -21.3088 5.47118 0
    endloop
  endfacet
  facet normal 0 0 -1
    outer loop
      vertex -17.5 0 0
      vertex -22 0 0
      vertex -21.8265 2.75733 0
    endloop
  endfacet
  facet normal 0.481757 -0.876305 0
    outer loop
      vertex 9.36714 -19.9062 0
      vertex 11.7882 -18.5752 5
      vertex 9.36714 -19.9062 5
    endloop
  endfacet
  facet normal 0.481757 -0.876305 0
    outer loop
      vertex 11.7882 -18.5752 5
      vertex 9.36714 -19.9062 0
      vertex 11.7882 -18.5752 0
    endloop
  endfacet
  facet normal 0.904819 -0.425796 0
    outer loop
      vertex 19.2787 -10.5986 5
      vertex 20.4551 -8.09874 0
      vertex 20.4551 -8.09874 5
    endloop
  endfacet
  facet normal 0.904819 -0.425796 0
    outer loop
      vertex 20.4551 -8.09874 0
      vertex 19.2787 -10.5986 5
      vertex 19.2787 -10.5986 0
    endloop
  endfacet
  facet normal -0.770498 -0.637443 0
    outer loop
      vertex -16.0373 -15.06 0
      vertex -17.7984 -12.9313 5
      vertex -17.7984 -12.9313 0
    endloop
  endfacet
  facet normal -0.770498 -0.637443 0
    outer loop
      vertex -17.7984 -12.9313 5
      vertex -16.0373 -15.06 0
      vertex -16.0373 -15.06 5
    endloop
  endfacet
  facet normal -0.951061 -0.309002 0
    outer loop
      vertex -20.4551 -8.09874 0
      vertex -21.3088 -5.47118 5
      vertex -21.3088 -5.47118 0
    endloop
  endfacet
  facet normal -0.951061 -0.309002 0
    outer loop
      vertex -21.3088 -5.47118 5
      vertex -20.4551 -8.09874 0
      vertex -20.4551 -8.09874 5
    endloop
  endfacet
  facet normal 0.684553 -0.728964 0
    outer loop
      vertex 14.0233 -16.9513 0
      vertex 16.0373 -15.06 5
      vertex 14.0233 -16.9513 5
    endloop
  endfacet
  facet normal 0.684553 -0.728964 0
    outer loop
      vertex 16.0373 -15.06 5
      vertex 14.0233 -16.9513 0
      vertex 16.0373 -15.06 0
    endloop
  endfacet
  facet normal 0.36811 -0.929782 0
    outer loop
      vertex 6.79837 -20.9232 0
      vertex 9.36714 -19.9062 5
      vertex 6.79837 -20.9232 5
    endloop
  endfacet
  facet normal 0.36811 -0.929782 0
    outer loop
      vertex 9.36714 -19.9062 5
      vertex 6.79837 -20.9232 0
      vertex 9.36714 -19.9062 0
    endloop
  endfacet
  facet normal 0.248698 -0.968581 0
    outer loop
      vertex 4.12239 -21.6103 0
      vertex 6.79837 -20.9232 5
      vertex 4.12239 -21.6103 5
    endloop
  endfacet
  facet normal 0.248698 -0.968581 0
    outer loop
      vertex 6.79837 -20.9232 5
      vertex 4.12239 -21.6103 0
      vertex 6.79837 -20.9232 0
    endloop
  endfacet
  facet normal 0.84434 -0.535807 0
    outer loop
      vertex 17.7984 -12.9313 5
      vertex 19.2787 -10.5986 0
      vertex 19.2787 -10.5986 5
    endloop
  endfacet
  facet normal 0.84434 -0.535807 0
    outer loop
      vertex 19.2787 -10.5986 0
      vertex 17.7984 -12.9313 5
      vertex 17.7984 -12.9313 0
    endloop
  endfacet
  facet normal 0.770498 -0.637443 0
    outer loop
      vertex 16.0373 -15.06 5
      vertex 17.7984 -12.9313 0
      vertex 17.7984 -12.9313 5
    endloop
  endfacet
  facet normal 0.770498 -0.637443 0
    outer loop
      vertex 17.7984 -12.9313 0
      vertex 16.0373 -15.06 5
      vertex 16.0373 -15.06 0
    endloop
  endfacet
  facet normal 0.951061 -0.309002 0
    outer loop
      vertex 20.4551 -8.09874 5
      vertex 21.3088 -5.47118 0
      vertex 21.3088 -5.47118 5
    endloop
  endfacet
  facet normal 0.951061 -0.309002 0
    outer loop
      vertex 21.3088 -5.47118 0
      vertex 20.4551 -8.09874 5
      vertex 20.4551 -8.09874 0
    endloop
  endfacet
  facet normal -0.125344 -0.992113 0
    outer loop
      vertex -4.12239 -21.6103 0
      vertex -1.38139 -21.9566 5
      vertex -4.12239 -21.6103 5
    endloop
  endfacet
  facet normal -0.125344 -0.992113 -0
    outer loop
      vertex -1.38139 -21.9566 5
      vertex -4.12239 -21.6103 0
      vertex -1.38139 -21.9566 0
    endloop
  endfacet
  facet normal -0.587786 -0.809016 0
    outer loop
      vertex -14.0233 -16.9513 0
      vertex -11.7882 -18.5752 5
      vertex -14.0233 -16.9513 5
    endloop
  endfacet
  facet normal -0.587786 -0.809016 -0
    outer loop
      vertex -11.7882 -18.5752 5
      vertex -14.0233 -16.9513 0
      vertex -11.7882 -18.5752 0
    endloop
  endfacet
  facet normal -0.982287 -0.187383 0
    outer loop
      vertex -21.3088 -5.47118 0
      vertex -21.8265 -2.75733 5
      vertex -21.8265 -2.75733 0
    endloop
  endfacet
  facet normal -0.982287 -0.187383 0
    outer loop
      vertex -21.8265 -2.75733 5
      vertex -21.3088 -5.47118 0
      vertex -21.3088 -5.47118 5
    endloop
  endfacet
  facet normal -0.998026 -0.062799 0
    outer loop
      vertex -21.8265 -2.75733 0
      vertex -22 0 5
      vertex -22 0 0
    endloop
  endfacet
  facet normal -0.998026 -0.062799 0
    outer loop
      vertex -22 0 5
      vertex -21.8265 -2.75733 0
      vertex -21.8265 -2.75733 5
    endloop
  endfacet
  facet normal 0.587786 -0.809016 0
    outer loop
      vertex 11.7882 -18.5752 0
      vertex 14.0233 -16.9513 5
      vertex 11.7882 -18.5752 5
    endloop
  endfacet
  facet normal 0.587786 -0.809016 0
    outer loop
      vertex 14.0233 -16.9513 5
      vertex 11.7882 -18.5752 0
      vertex 14.0233 -16.9513 0
    endloop
  endfacet
  facet normal -0.248698 -0.968581 0
    outer loop
      vertex -6.79837 -20.9232 0
      vertex -4.12239 -21.6103 5
      vertex -6.79837 -20.9232 5
    endloop
  endfacet
  facet normal -0.248698 -0.968581 -0
    outer loop
      vertex -4.12239 -21.6103 5
      vertex -6.79837 -20.9232 0
      vertex -4.12239 -21.6103 0
    endloop
  endfacet
  facet normal -0.36811 -0.929782 0
    outer loop
      vertex -9.36714 -19.9062 0
      vertex -6.79837 -20.9232 5
      vertex -9.36714 -19.9062 5
    endloop
  endfacet
  facet normal -0.36811 -0.929782 -0
    outer loop
      vertex -6.79837 -20.9232 5
      vertex -9.36714 -19.9062 0
      vertex -6.79837 -20.9232 0
    endloop
  endfacet
  facet normal -0.481757 -0.876305 0
    outer loop
      vertex -11.7882 -18.5752 0
      vertex -9.36714 -19.9062 5
      vertex -11.7882 -18.5752 5
    endloop
  endfacet
  facet normal -0.481757 -0.876305 -0
    outer loop
      vertex -9.36714 -19.9062 5
      vertex -11.7882 -18.5752 0
      vertex -9.36714 -19.9062 0
    endloop
  endfacet
  facet normal 0.951059 -0.30901 0
    outer loop
      vertex -16.9502 4.35207 5
      vertex -16.2711 6.44218 0
      vertex -16.2711 6.44218 5
    endloop
  endfacet
  facet normal 0.951059 -0.30901 0
    outer loop
      vertex -16.2711 6.44218 0
      vertex -16.9502 4.35207 5
      vertex -16.9502 4.35207 0
    endloop
  endfacet
  facet normal -0.844316 -0.535845 0
    outer loop
      vertex 15.3354 8.43069 0
      vertex 14.1578 10.2862 5
      vertex 14.1578 10.2862 0
    endloop
  endfacet
  facet normal -0.844316 -0.535845 0
    outer loop
      vertex 14.1578 10.2862 5
      vertex 15.3354 8.43069 0
      vertex 15.3354 8.43069 5
    endloop
  endfacet
  facet normal -0.368118 -0.929779 0
    outer loop
      vertex 5.4078 16.6435 0
      vertex 7.45114 15.8345 5
      vertex 5.4078 16.6435 5
    endloop
  endfacet
  facet normal -0.368118 -0.929779 -0
    outer loop
      vertex 7.45114 15.8345 5
      vertex 5.4078 16.6435 0
      vertex 7.45114 15.8345 0
    endloop
  endfacet
  facet normal 0.368118 -0.929779 0
    outer loop
      vertex -7.45114 15.8345 0
      vertex -5.4078 16.6435 5
      vertex -7.45114 15.8345 5
    endloop
  endfacet
  facet normal 0.368118 -0.929779 0
    outer loop
      vertex -5.4078 16.6435 5
      vertex -7.45114 15.8345 0
      vertex -5.4078 16.6435 0
    endloop
  endfacet
  facet normal 0.904831 -0.425771 0
    outer loop
      vertex -16.2711 6.44218 5
      vertex -15.3354 8.43069 0
      vertex -15.3354 8.43069 5
    endloop
  endfacet
  facet normal 0.904831 -0.425771 0
    outer loop
      vertex -15.3354 8.43069 0
      vertex -16.2711 6.44218 5
      vertex -16.2711 6.44218 0
    endloop
  endfacet
  facet normal -0.998027 0.0627939 0
    outer loop
      vertex 17.362 -2.19333 0
      vertex 17.5 0 5
      vertex 17.5 0 0
    endloop
  endfacet
  facet normal -0.998027 0.0627939 0
    outer loop
      vertex 17.5 0 5
      vertex 17.362 -2.19333 0
      vertex 17.362 -2.19333 5
    endloop
  endfacet
  facet normal -0.368118 0.929779 0
    outer loop
      vertex 7.45114 -15.8345 0
      vertex 5.4078 -16.6435 5
      vertex 7.45114 -15.8345 5
    endloop
  endfacet
  facet normal -0.368118 0.929779 0
    outer loop
      vertex 5.4078 -16.6435 5
      vertex 7.45114 -15.8345 0
      vertex 5.4078 -16.6435 0
    endloop
  endfacet
  facet normal -0.982287 -0.187381 0
    outer loop
      vertex 17.362 2.19333 0
      vertex 16.9502 4.35207 5
      vertex 16.9502 4.35207 0
    endloop
  endfacet
  facet normal -0.982287 -0.187381 0
    outer loop
      vertex 16.9502 4.35207 5
      vertex 17.362 2.19333 0
      vertex 17.362 2.19333 5
    endloop
  endfacet
  facet normal -0.68453 -0.728985 0
    outer loop
      vertex 11.1549 13.484 0
      vertex 12.757 11.9796 5
      vertex 11.1549 13.484 5
    endloop
  endfacet
  facet normal -0.68453 -0.728985 -0
    outer loop
      vertex 12.757 11.9796 5
      vertex 11.1549 13.484 0
      vertex 12.757 11.9796 0
    endloop
  endfacet
  facet normal 0 -1 0
    outer loop
      vertex -1.09883 17.4655 0
      vertex 1.09883 17.4655 5
      vertex -1.09883 17.4655 5
    endloop
  endfacet
  facet normal 0 -1 -0
    outer loop
      vertex 1.09883 17.4655 5
      vertex -1.09883 17.4655 0
      vertex 1.09883 17.4655 0
    endloop
  endfacet
  facet normal 0.770536 -0.637396 0
    outer loop
      vertex -14.1578 10.2862 5
      vertex -12.757 11.9796 0
      vertex -12.757 11.9796 5
    endloop
  endfacet
  facet normal 0.770536 -0.637396 0
    outer loop
      vertex -12.757 11.9796 0
      vertex -14.1578 10.2862 5
      vertex -14.1578 10.2862 0
    endloop
  endfacet
  facet normal 0.68453 -0.728985 0
    outer loop
      vertex -12.757 11.9796 0
      vertex -11.1549 13.484 5
      vertex -12.757 11.9796 5
    endloop
  endfacet
  facet normal 0.68453 -0.728985 0
    outer loop
      vertex -11.1549 13.484 5
      vertex -12.757 11.9796 0
      vertex -11.1549 13.484 0
    endloop
  endfacet
  facet normal -0.998027 -0.0627939 0
    outer loop
      vertex 17.5 0 0
      vertex 17.362 2.19333 5
      vertex 17.362 2.19333 0
    endloop
  endfacet
  facet normal -0.998027 -0.0627939 0
    outer loop
      vertex 17.362 2.19333 5
      vertex 17.5 0 0
      vertex 17.5 0 5
    endloop
  endfacet
  facet normal -0.587773 0.809026 0
    outer loop
      vertex 11.1549 -13.484 0
      vertex 9.37697 -14.7757 5
      vertex 11.1549 -13.484 5
    endloop
  endfacet
  facet normal -0.587773 0.809026 0
    outer loop
      vertex 9.37697 -14.7757 5
      vertex 11.1549 -13.484 0
      vertex 9.37697 -14.7757 0
    endloop
  endfacet
  facet normal -0.904831 0.425771 0
    outer loop
      vertex 15.3354 -8.43069 0
      vertex 16.2711 -6.44218 5
      vertex 16.2711 -6.44218 0
    endloop
  endfacet
  facet normal -0.904831 0.425771 0
    outer loop
      vertex 16.2711 -6.44218 5
      vertex 15.3354 -8.43069 0
      vertex 15.3354 -8.43069 5
    endloop
  endfacet
  facet normal -0.248673 0.968587 0
    outer loop
      vertex 5.4078 -16.6435 0
      vertex 3.27917 -17.19 5
      vertex 5.4078 -16.6435 5
    endloop
  endfacet
  facet normal -0.248673 0.968587 0
    outer loop
      vertex 3.27917 -17.19 5
      vertex 5.4078 -16.6435 0
      vertex 3.27917 -17.19 0
    endloop
  endfacet
  facet normal -0.770536 -0.637396 0
    outer loop
      vertex 14.1578 10.2862 0
      vertex 12.757 11.9796 5
      vertex 12.757 11.9796 0
    endloop
  endfacet
  facet normal -0.770536 -0.637396 0
    outer loop
      vertex 12.757 11.9796 5
      vertex 14.1578 10.2862 0
      vertex 14.1578 10.2862 5
    endloop
  endfacet
  facet normal -0.248673 -0.968587 0
    outer loop
      vertex 3.27917 17.19 0
      vertex 5.4078 16.6435 5
      vertex 3.27917 17.19 5
    endloop
  endfacet
  facet normal -0.248673 -0.968587 -0
    outer loop
      vertex 5.4078 16.6435 5
      vertex 3.27917 17.19 0
      vertex 5.4078 16.6435 0
    endloop
  endfacet
  facet normal -0.12536 -0.992111 0
    outer loop
      vertex 1.09883 17.4655 0
      vertex 3.27917 17.19 5
      vertex 1.09883 17.4655 5
    endloop
  endfacet
  facet normal -0.12536 -0.992111 -0
    outer loop
      vertex 3.27917 17.19 5
      vertex 1.09883 17.4655 0
      vertex 3.27917 17.19 0
    endloop
  endfacet
  facet normal -0.587773 -0.809026 0
    outer loop
      vertex 9.37697 14.7757 0
      vertex 11.1549 13.484 5
      vertex 9.37697 14.7757 5
    endloop
  endfacet
  facet normal -0.587773 -0.809026 -0
    outer loop
      vertex 11.1549 13.484 5
      vertex 9.37697 14.7757 0
      vertex 11.1549 13.484 0
    endloop
  endfacet
  facet normal -0.481777 -0.876294 0
    outer loop
      vertex 7.45114 15.8345 0
      vertex 9.37697 14.7757 5
      vertex 7.45114 15.8345 5
    endloop
  endfacet
  facet normal -0.481777 -0.876294 -0
    outer loop
      vertex 9.37697 14.7757 5
      vertex 7.45114 15.8345 0
      vertex 9.37697 14.7757 0
    endloop
  endfacet
  facet normal 0.998027 -0.0627939 0
    outer loop
      vertex -17.5 0 5
      vertex -17.362 2.19333 0
      vertex -17.362 2.19333 5
    endloop
  endfacet
  facet normal 0.998027 -0.0627939 0
    outer loop
      vertex -17.362 2.19333 0
      vertex -17.5 0 5
      vertex -17.5 0 0
    endloop
  endfacet
  facet normal 0.982287 -0.187381 0
    outer loop
      vertex -17.362 2.19333 5
      vertex -16.9502 4.35207 0
      vertex -16.9502 4.35207 5
    endloop
  endfacet
  facet normal 0.982287 -0.187381 0
    outer loop
      vertex -16.9502 4.35207 0
      vertex -17.362 2.19333 5
      vertex -17.362 2.19333 0
    endloop
  endfacet
  facet normal 0.844316 -0.535845 0
    outer loop
      vertex -15.3354 8.43069 5
      vertex -14.1578 10.2862 0
      vertex -14.1578 10.2862 5
    endloop
  endfacet
  facet normal 0.844316 -0.535845 0
    outer loop
      vertex -14.1578 10.2862 0
      vertex -15.3354 8.43069 5
      vertex -15.3354 8.43069 0
    endloop
  endfacet
  facet normal 0.12536 -0.992111 0
    outer loop
      vertex -3.27917 17.19 0
      vertex -1.09883 17.4655 5
      vertex -3.27917 17.19 5
    endloop
  endfacet
  facet normal 0.12536 -0.992111 0
    outer loop
      vertex -1.09883 17.4655 5
      vertex -3.27917 17.19 0
      vertex -1.09883 17.4655 0
    endloop
  endfacet
  facet normal 0.248673 -0.968587 0
    outer loop
      vertex -5.4078 16.6435 0
      vertex -3.27917 17.19 5
      vertex -5.4078 16.6435 5
    endloop
  endfacet
  facet normal 0.248673 -0.968587 0
    outer loop
      vertex -3.27917 17.19 5
      vertex -5.4078 16.6435 0
      vertex -3.27917 17.19 0
    endloop
  endfacet
  facet normal 0.481777 -0.876294 0
    outer loop
      vertex -9.37697 14.7757 0
      vertex -7.45114 15.8345 5
      vertex -9.37697 14.7757 5
    endloop
  endfacet
  facet normal 0.481777 -0.876294 0
    outer loop
      vertex -7.45114 15.8345 5
      vertex -9.37697 14.7757 0
      vertex -7.45114 15.8345 0
    endloop
  endfacet
  facet normal 0.587773 -0.809026 0
    outer loop
      vertex -11.1549 13.484 0
      vertex -9.37697 14.7757 5
      vertex -11.1549 13.484 5
    endloop
  endfacet
  facet normal 0.587773 -0.809026 0
    outer loop
      vertex -9.37697 14.7757 5
      vertex -11.1549 13.484 0
      vertex -9.37697 14.7757 0
    endloop
  endfacet
  facet normal -0.982287 0.187381 0
    outer loop
      vertex 16.9502 -4.35207 0
      vertex 17.362 -2.19333 5
      vertex 17.362 -2.19333 0
    endloop
  endfacet
  facet normal -0.982287 0.187381 0
    outer loop
      vertex 17.362 -2.19333 5
      vertex 16.9502 -4.35207 0
      vertex 16.9502 -4.35207 5
    endloop
  endfacet
  facet normal -0.770536 0.637396 0
    outer loop
      vertex 12.757 -11.9796 0
      vertex 14.1578 -10.2862 5
      vertex 14.1578 -10.2862 0
    endloop
  endfacet
  facet normal -0.770536 0.637396 0
    outer loop
      vertex 14.1578 -10.2862 5
      vertex 12.757 -11.9796 0
      vertex 12.757 -11.9796 5
    endloop
  endfacet
  facet normal -0.844316 0.535845 0
    outer loop
      vertex 14.1578 -10.2862 0
      vertex 15.3354 -8.43069 5
      vertex 15.3354 -8.43069 0
    endloop
  endfacet
  facet normal -0.844316 0.535845 0
    outer loop
      vertex 15.3354 -8.43069 5
      vertex 14.1578 -10.2862 0
      vertex 14.1578 -10.2862 5
    endloop
  endfacet
  facet normal 0.844316 0.535845 0
    outer loop
      vertex -14.1578 -10.2862 5
      vertex -15.3354 -8.43069 0
      vertex -15.3354 -8.43069 5
    endloop
  endfacet
  facet normal 0.844316 0.535845 0
    outer loop
      vertex -15.3354 -8.43069 0
      vertex -14.1578 -10.2862 5
      vertex -14.1578 -10.2862 0
    endloop
  endfacet
  facet normal 0.904831 0.425771 0
    outer loop
      vertex -15.3354 -8.43069 5
      vertex -16.2711 -6.44218 0
      vertex -16.2711 -6.44218 5
    endloop
  endfacet
  facet normal 0.904831 0.425771 0
    outer loop
      vertex -16.2711 -6.44218 0
      vertex -15.3354 -8.43069 5
      vertex -15.3354 -8.43069 0
    endloop
  endfacet
  facet normal -0.12536 0.992111 0
    outer loop
      vertex 3.27917 -17.19 0
      vertex 1.09883 -17.4655 5
      vertex 3.27917 -17.19 5
    endloop
  endfacet
  facet normal -0.12536 0.992111 0
    outer loop
      vertex 1.09883 -17.4655 5
      vertex 3.27917 -17.19 0
      vertex 1.09883 -17.4655 0
    endloop
  endfacet
  facet normal -0.68453 0.728985 0
    outer loop
      vertex 12.757 -11.9796 0
      vertex 11.1549 -13.484 5
      vertex 12.757 -11.9796 5
    endloop
  endfacet
  facet normal -0.68453 0.728985 0
    outer loop
      vertex 11.1549 -13.484 5
      vertex 12.757 -11.9796 0
      vertex 11.1549 -13.484 0
    endloop
  endfacet
  facet normal -0.904831 -0.425771 0
    outer loop
      vertex 16.2711 6.44218 0
      vertex 15.3354 8.43069 5
      vertex 15.3354 8.43069 0
    endloop
  endfacet
  facet normal -0.904831 -0.425771 0
    outer loop
      vertex 15.3354 8.43069 5
      vertex 16.2711 6.44218 0
      vertex 16.2711 6.44218 5
    endloop
  endfacet
  facet normal -0.951059 -0.30901 0
    outer loop
      vertex 16.9502 4.35207 0
      vertex 16.2711 6.44218 5
      vertex 16.2711 6.44218 0
    endloop
  endfacet
  facet normal -0.951059 -0.30901 0
    outer loop
      vertex 16.2711 6.44218 5
      vertex 16.9502 4.35207 0
      vertex 16.9502 4.35207 5
    endloop
  endfacet
  facet normal 0 1 -0
    outer loop
      vertex 1.09883 -17.4655 0
      vertex -1.09883 -17.4655 5
      vertex 1.09883 -17.4655 5
    endloop
  endfacet
  facet normal 0 1 0
    outer loop
      vertex -1.09883 -17.4655 5
      vertex 1.09883 -17.4655 0
      vertex -1.09883 -17.4655 0
    endloop
  endfacet
  facet normal 0.368118 0.929779 -0
    outer loop
      vertex -5.4078 -16.6435 0
      vertex -7.45114 -15.8345 5
      vertex -5.4078 -16.6435 5
    endloop
  endfacet
  facet normal 0.368118 0.929779 0
    outer loop
      vertex -7.45114 -15.8345 5
      vertex -5.4078 -16.6435 0
      vertex -7.45114 -15.8345 0
    endloop
  endfacet
  facet normal 0.998027 0.0627939 0
    outer loop
      vertex -17.362 -2.19333 5
      vertex -17.5 0 0
      vertex -17.5 0 5
    endloop
  endfacet
  facet normal 0.998027 0.0627939 0
    outer loop
      vertex -17.5 0 0
      vertex -17.362 -2.19333 5
      vertex -17.362 -2.19333 0
    endloop
  endfacet
  facet normal 0.951059 0.30901 0
    outer loop
      vertex -16.2711 -6.44218 5
      vertex -16.9502 -4.35207 0
      vertex -16.9502 -4.35207 5
    endloop
  endfacet
  facet normal 0.951059 0.30901 0
    outer loop
      vertex -16.9502 -4.35207 0
      vertex -16.2711 -6.44218 5
      vertex -16.2711 -6.44218 0
    endloop
  endfacet
  facet normal -0.481777 0.876294 0
    outer loop
      vertex 9.37697 -14.7757 0
      vertex 7.45114 -15.8345 5
      vertex 9.37697 -14.7757 5
    endloop
  endfacet
  facet normal -0.481777 0.876294 0
    outer loop
      vertex 7.45114 -15.8345 5
      vertex 9.37697 -14.7757 0
      vertex 7.45114 -15.8345 0
    endloop
  endfacet
  facet normal -0.951059 0.30901 0
    outer loop
      vertex 16.2711 -6.44218 0
      vertex 16.9502 -4.35207 5
      vertex 16.9502 -4.35207 0
    endloop
  endfacet
  facet normal -0.951059 0.30901 0
    outer loop
      vertex 16.9502 -4.35207 5
      vertex 16.2711 -6.44218 0
      vertex 16.2711 -6.44218 5
    endloop
  endfacet
  facet normal 0.68453 0.728985 -0
    outer loop
      vertex -11.1549 -13.484 0
      vertex -12.757 -11.9796 5
      vertex -11.1549 -13.484 5
    endloop
  endfacet
  facet normal 0.68453 0.728985 0
    outer loop
      vertex -12.757 -11.9796 5
      vertex -11.1549 -13.484 0
      vertex -12.757 -11.9796 0
    endloop
  endfacet
  facet normal 0.248673 0.968587 -0
    outer loop
      vertex -3.27917 -17.19 0
      vertex -5.4078 -16.6435 5
      vertex -3.27917 -17.19 5
    endloop
  endfacet
  facet normal 0.248673 0.968587 0
    outer loop
      vertex -5.4078 -16.6435 5
      vertex -3.27917 -17.19 0
      vertex -5.4078 -16.6435 0
    endloop
  endfacet
  facet normal 0.587773 0.809026 -0
    outer loop
      vertex -9.37697 -14.7757 0
      vertex -11.1549 -13.484 5
      vertex -9.37697 -14.7757 5
    endloop
  endfacet
  facet normal 0.587773 0.809026 0
    outer loop
      vertex -11.1549 -13.484 5
      vertex -9.37697 -14.7757 0
      vertex -11.1549 -13.484 0
    endloop
  endfacet
  facet normal 0.481777 0.876294 -0
    outer loop
      vertex -7.45114 -15.8345 0
      vertex -9.37697 -14.7757 5
      vertex -7.45114 -15.8345 5
    endloop
  endfacet
  facet normal 0.481777 0.876294 0
    outer loop
      vertex -9.37697 -14.7757 5
      vertex -7.45114 -15.8345 0
      vertex -9.37697 -14.7757 0
    endloop
  endfacet
  facet normal 0.982287 0.187381 0
    outer loop
      vertex -16.9502 -4.35207 5
      vertex -17.362 -2.19333 0
      vertex -17.362 -2.19333 5
    endloop
  endfacet
  facet normal 0.982287 0.187381 0
    outer loop
      vertex -17.362 -2.19333 0
      vertex -16.9502 -4.35207 5
      vertex -16.9502 -4.35207 0
    endloop
  endfacet
  facet normal 0.770536 0.637396 0
    outer loop
      vertex -12.757 -11.9796 5
      vertex -14.1578 -10.2862 0
      vertex -14.1578 -10.2862 5
    endloop
  endfacet
  facet normal 0.770536 0.637396 0
    outer loop
      vertex -14.1578 -10.2862 0
      vertex -12.757 -11.9796 5
      vertex -12.757 -11.9796 0
    endloop
  endfacet
  facet normal 0.12536 0.992111 -0
    outer loop
      vertex -1.09883 -17.4655 0
      vertex -3.27917 -17.19 5
      vertex -1.09883 -17.4655 5
    endloop
  endfacet
  facet normal 0.12536 0.992111 0
    outer loop
      vertex -3.27917 -17.19 5
      vertex -1.09883 -17.4655 0
      vertex -3.27917 -17.19 0
    endloop
  endfacet
endsolid OpenSCAD_Model
