<?xml version="1.0" standalone="no"?>
<!DOCTYPE svg PUBLIC "-//W3C//DTD SVG 1.1//EN" "http://www.w3.org/Graphics/SVG/1.1/DTD/svg11.dtd">
<svg width="106mm" height="1168mm" viewBox="-53 -1907 106 1168" xmlns="http://www.w3.org/2000/svg" version="1.1">
<title>OpenSCAD Model</title>
<path d="
M 48.4369,-1621.59 L 49.0451,-1621.74 L 49.6289,-1621.98 L 50.1791,-1622.28 L 50.6871,-1622.65 L 51.1448,-1623.08
 L 51.5451,-1623.56 L 51.8815,-1624.09 L 52.1489,-1624.66 L 52.3429,-1625.26 L 52.4606,-1625.87 L 52.5,-1626.5
 L 52.5,-1901.5 L 52.4606,-1902.13 L 52.3429,-1902.74 L 52.1489,-1903.34 L 51.8815,-1903.91 L 51.5451,-1904.44
 L 51.1448,-1904.92 L 50.6871,-1905.35 L 50.1791,-1905.72 L 49.6289,-1906.02 L 49.0451,-1906.26 L 48.4369,-1906.41
 L 47.8139,-1906.49 L -47.8139,-1906.49 L -48.4369,-1906.41 L -49.0451,-1906.26 L -49.6289,-1906.02 L -50.1791,-1905.72
 L -50.6871,-1905.35 L -51.1448,-1904.92 L -51.5451,-1904.44 L -51.8815,-1903.91 L -52.1489,-1903.34 L -52.3429,-1902.74
 L -52.4606,-1902.13 L -52.5,-1901.5 L -52.5,-1626.5 L -52.4606,-1625.87 L -52.3429,-1625.26 L -52.1489,-1624.66
 L -51.8815,-1624.09 L -51.5451,-1623.56 L -51.1448,-1623.08 L -50.6871,-1622.65 L -50.1791,-1622.28 L -49.6289,-1621.98
 L -49.0451,-1621.74 L -48.4369,-1621.59 L -47.8139,-1621.51 L 47.8139,-1621.51 z
M -47.2512,-1623.01 L -47.7495,-1623.07 L -48.2361,-1623.2 L -48.7031,-1623.38 L -49.1433,-1623.62 L -49.5497,-1623.92
 L -49.9159,-1624.26 L -50.2361,-1624.65 L -50.5052,-1625.07 L -50.7191,-1625.53 L -50.8743,-1626.01 L -50.9685,-1626.5
 L -51,-1627 L -51,-1901 L -50.9685,-1901.5 L -50.8743,-1901.99 L -50.7191,-1902.47 L -50.5052,-1902.93
 L -50.2361,-1903.35 L -49.9159,-1903.74 L -49.5497,-1904.08 L -49.1433,-1904.38 L -48.7031,-1904.62 L -48.2361,-1904.8
 L -47.7495,-1904.93 L -47.2512,-1904.99 L 47.2512,-1904.99 L 47.7495,-1904.93 L 48.2361,-1904.8 L 48.7031,-1904.62
 L 49.1433,-1904.38 L 49.5497,-1904.08 L 49.9159,-1903.74 L 50.2361,-1903.35 L 50.5052,-1902.93 L 50.7191,-1902.47
 L 50.8743,-1901.99 L 50.9685,-1901.5 L 51,-1901 L 51,-1627 L 50.9685,-1626.5 L 50.8743,-1626.01
 L 50.7191,-1625.53 L 50.5052,-1625.07 L 50.2361,-1624.65 L 49.9159,-1624.26 L 49.5497,-1623.92 L 49.1433,-1623.62
 L 48.7031,-1623.38 L 48.2361,-1623.2 L 47.7495,-1623.07 L 47.2512,-1623.01 z
M 48.4369,-1327.59 L 49.0451,-1327.74 L 49.6289,-1327.98 L 50.1791,-1328.28 L 50.6871,-1328.65 L 51.1448,-1329.08
 L 51.5451,-1329.56 L 51.8815,-1330.09 L 52.1489,-1330.66 L 52.3429,-1331.26 L 52.4606,-1331.87 L 52.5,-1332.5
 L 52.5,-1607.5 L 52.4606,-1608.13 L 52.3429,-1608.74 L 52.1489,-1609.34 L 51.8815,-1609.91 L 51.5451,-1610.44
 L 51.1448,-1610.92 L 50.6871,-1611.35 L 50.1791,-1611.72 L 49.6289,-1612.02 L 49.0451,-1612.26 L 48.4369,-1612.41
 L 47.8139,-1612.49 L -47.8139,-1612.49 L -48.4369,-1612.41 L -49.0451,-1612.26 L -49.6289,-1612.02 L -50.1791,-1611.72
 L -50.6871,-1611.35 L -51.1448,-1610.92 L -51.5451,-1610.44 L -51.8815,-1609.91 L -52.1489,-1609.34 L -52.3429,-1608.74
 L -52.4606,-1608.13 L -52.5,-1607.5 L -52.5,-1332.5 L -52.4606,-1331.87 L -52.3429,-1331.26 L -52.1489,-1330.66
 L -51.8815,-1330.09 L -51.5451,-1329.56 L -51.1448,-1329.08 L -50.6871,-1328.65 L -50.1791,-1328.28 L -49.6289,-1327.98
 L -49.0451,-1327.74 L -48.4369,-1327.59 L -47.8139,-1327.51 L 47.8139,-1327.51 z
M -47.2432,-1329.14 L -47.7256,-1329.2 L -48.1967,-1329.32 L -48.6489,-1329.5 L -49.0751,-1329.73 L -49.4685,-1330.02
 L -49.823,-1330.35 L -50.133,-1330.72 L -50.3936,-1331.13 L -50.6007,-1331.57 L -50.751,-1332.04 L -50.8421,-1332.51
 L -50.8726,-1333 L -50.8726,-1607 L -50.8421,-1607.49 L -50.751,-1607.96 L -50.6007,-1608.43 L -50.3936,-1608.87
 L -50.133,-1609.28 L -49.823,-1609.65 L -49.4685,-1609.98 L -49.0751,-1610.27 L -48.6489,-1610.5 L -48.1967,-1610.68
 L -47.7256,-1610.8 L -47.2432,-1610.86 L 47.2432,-1610.86 L 47.7256,-1610.8 L 48.1967,-1610.68 L 48.6489,-1610.5
 L 49.0751,-1610.27 L 49.4685,-1609.98 L 49.823,-1609.65 L 50.133,-1609.28 L 50.3936,-1608.87 L 50.6007,-1608.43
 L 50.751,-1607.96 L 50.8421,-1607.49 L 50.8726,-1607 L 50.8726,-1333 L 50.8421,-1332.51 L 50.751,-1332.04
 L 50.6007,-1331.57 L 50.3936,-1331.13 L 50.133,-1330.72 L 49.823,-1330.35 L 49.4685,-1330.02 L 49.0751,-1329.73
 L 48.6489,-1329.5 L 48.1967,-1329.32 L 47.7256,-1329.2 L 47.2432,-1329.14 z
M 48.4369,-1033.59 L 49.0451,-1033.74 L 49.6289,-1033.98 L 50.1791,-1034.28 L 50.6871,-1034.65 L 51.1448,-1035.08
 L 51.5451,-1035.56 L 51.8815,-1036.09 L 52.1489,-1036.66 L 52.3429,-1037.26 L 52.4606,-1037.87 L 52.5,-1038.5
 L 52.5,-1313.5 L 52.4606,-1314.13 L 52.3429,-1314.74 L 52.1489,-1315.34 L 51.8815,-1315.91 L 51.5451,-1316.44
 L 51.1448,-1316.92 L 50.6871,-1317.35 L 50.1791,-1317.72 L 49.6289,-1318.02 L 49.0451,-1318.26 L 48.4369,-1318.41
 L 47.8139,-1318.49 L -47.8139,-1318.49 L -48.4369,-1318.41 L -49.0451,-1318.26 L -49.6289,-1318.02 L -50.1791,-1317.72
 L -50.6871,-1317.35 L -51.1448,-1316.92 L -51.5451,-1316.44 L -51.8815,-1315.91 L -52.1489,-1315.34 L -52.3429,-1314.74
 L -52.4606,-1314.13 L -52.5,-1313.5 L -52.5,-1038.5 L -52.4606,-1037.87 L -52.3429,-1037.26 L -52.1489,-1036.66
 L -51.8815,-1036.09 L -51.5451,-1035.56 L -51.1448,-1035.08 L -50.6871,-1034.65 L -50.1791,-1034.28 L -49.6289,-1033.98
 L -49.0451,-1033.74 L -48.4369,-1033.59 L -47.8139,-1033.51 L 47.8139,-1033.51 z
M 44.8493,-1308.6 L 44.5503,-1308.64 L 44.2584,-1308.72 L 43.9781,-1308.83 L 43.714,-1308.97 L 43.4702,-1309.15
 L 43.2505,-1309.36 L 43.0583,-1309.59 L 42.8969,-1309.84 L 42.7685,-1310.12 L 42.6754,-1310.4 L 42.6189,-1310.7
 L 42.6,-1311 L 42.6189,-1311.3 L 42.6754,-1311.6 L 42.7685,-1311.88 L 42.8969,-1312.16 L 43.0583,-1312.41
 L 43.2505,-1312.64 L 43.4702,-1312.85 L 43.714,-1313.03 L 43.9781,-1313.17 L 44.2584,-1313.28 L 44.5503,-1313.36
 L 44.8493,-1313.4 L 45.1507,-1313.4 L 45.4497,-1313.36 L 45.7416,-1313.28 L 46.0219,-1313.17 L 46.286,-1313.03
 L 46.5298,-1312.85 L 46.7495,-1312.64 L 46.9416,-1312.41 L 47.1031,-1312.16 L 47.2315,-1311.88 L 47.3246,-1311.6
 L 47.3811,-1311.3 L 47.4,-1311 L 47.3811,-1310.7 L 47.3246,-1310.4 L 47.2315,-1310.12 L 47.1031,-1309.84
 L 46.9416,-1309.59 L 46.7495,-1309.36 L 46.5298,-1309.15 L 46.286,-1308.97 L 46.0219,-1308.83 L 45.7416,-1308.72
 L 45.4497,-1308.64 L 45.1507,-1308.6 z
M -45.1507,-1308.6 L -45.4497,-1308.64 L -45.7416,-1308.72 L -46.0219,-1308.83 L -46.286,-1308.97 L -46.5298,-1309.15
 L -46.7495,-1309.36 L -46.9416,-1309.59 L -47.1031,-1309.84 L -47.2315,-1310.12 L -47.3246,-1310.4 L -47.3811,-1310.7
 L -47.4,-1311 L -47.3811,-1311.3 L -47.3246,-1311.6 L -47.2315,-1311.88 L -47.1031,-1312.16 L -46.9416,-1312.41
 L -46.7495,-1312.64 L -46.5298,-1312.85 L -46.286,-1313.03 L -46.0219,-1313.17 L -45.7416,-1313.28 L -45.4497,-1313.36
 L -45.1507,-1313.4 L -44.8493,-1313.4 L -44.5503,-1313.36 L -44.2584,-1313.28 L -43.9781,-1313.17 L -43.714,-1313.03
 L -43.4702,-1312.85 L -43.2505,-1312.64 L -43.0583,-1312.41 L -42.8969,-1312.16 L -42.7685,-1311.88 L -42.6754,-1311.6
 L -42.6189,-1311.3 L -42.6,-1311 L -42.6189,-1310.7 L -42.6754,-1310.4 L -42.7685,-1310.12 L -42.8969,-1309.84
 L -43.0583,-1309.59 L -43.2505,-1309.36 L -43.4702,-1309.15 L -43.714,-1308.97 L -43.9781,-1308.83 L -44.2584,-1308.72
 L -44.5503,-1308.64 L -44.8493,-1308.6 z
M 44.8493,-1038.6 L 44.5503,-1038.64 L 44.2584,-1038.72 L 43.9781,-1038.83 L 43.714,-1038.97 L 43.4702,-1039.15
 L 43.2505,-1039.36 L 43.0583,-1039.59 L 42.8969,-1039.84 L 42.7685,-1040.12 L 42.6754,-1040.4 L 42.6189,-1040.7
 L 42.6,-1041 L 42.6189,-1041.3 L 42.6754,-1041.6 L 42.7685,-1041.88 L 42.8969,-1042.16 L 43.0583,-1042.41
 L 43.2505,-1042.64 L 43.4702,-1042.85 L 43.714,-1043.03 L 43.9781,-1043.17 L 44.2584,-1043.28 L 44.5503,-1043.36
 L 44.8493,-1043.4 L 45.1507,-1043.4 L 45.4497,-1043.36 L 45.7416,-1043.28 L 46.0219,-1043.17 L 46.286,-1043.03
 L 46.5298,-1042.85 L 46.7495,-1042.64 L 46.9416,-1042.41 L 47.1031,-1042.16 L 47.2315,-1041.88 L 47.3246,-1041.6
 L 47.3811,-1041.3 L 47.4,-1041 L 47.3811,-1040.7 L 47.3246,-1040.4 L 47.2315,-1040.12 L 47.1031,-1039.84
 L 46.9416,-1039.59 L 46.7495,-1039.36 L 46.5298,-1039.15 L 46.286,-1038.97 L 46.0219,-1038.83 L 45.7416,-1038.72
 L 45.4497,-1038.64 L 45.1507,-1038.6 z
M -45.1507,-1038.6 L -45.4497,-1038.64 L -45.7416,-1038.72 L -46.0219,-1038.83 L -46.286,-1038.97 L -46.5298,-1039.15
 L -46.7495,-1039.36 L -46.9416,-1039.59 L -47.1031,-1039.84 L -47.2315,-1040.12 L -47.3246,-1040.4 L -47.3811,-1040.7
 L -47.4,-1041 L -47.3811,-1041.3 L -47.3246,-1041.6 L -47.2315,-1041.88 L -47.1031,-1042.16 L -46.9416,-1042.41
 L -46.7495,-1042.64 L -46.5298,-1042.85 L -46.286,-1043.03 L -46.0219,-1043.17 L -45.7416,-1043.28 L -45.4497,-1043.36
 L -45.1507,-1043.4 L -44.8493,-1043.4 L -44.5503,-1043.36 L -44.2584,-1043.28 L -43.9781,-1043.17 L -43.714,-1043.03
 L -43.4702,-1042.85 L -43.2505,-1042.64 L -43.0583,-1042.41 L -42.8969,-1042.16 L -42.7685,-1041.88 L -42.6754,-1041.6
 L -42.6189,-1041.3 L -42.6,-1041 L -42.6189,-1040.7 L -42.6754,-1040.4 L -42.7685,-1040.12 L -42.8969,-1039.84
 L -43.0583,-1039.59 L -43.2505,-1039.36 L -43.4702,-1039.15 L -43.714,-1038.97 L -43.9781,-1038.83 L -44.2584,-1038.72
 L -44.5503,-1038.64 L -44.8493,-1038.6 z
M 48.4369,-739.589 L 49.0451,-739.745 L 49.6289,-739.976 L 50.1791,-740.278 L 50.6871,-740.647 L 51.1448,-741.077
 L 51.5451,-741.561 L 51.8815,-742.091 L 52.1489,-742.659 L 52.3429,-743.257 L 52.4606,-743.873 L 52.5,-744.5
 L 52.5,-1019.5 L 52.4606,-1020.13 L 52.3429,-1020.74 L 52.1489,-1021.34 L 51.8815,-1021.91 L 51.5451,-1022.44
 L 51.1448,-1022.92 L 50.6871,-1023.35 L 50.1791,-1023.72 L 49.6289,-1024.02 L 49.0451,-1024.26 L 48.4369,-1024.41
 L 47.8139,-1024.49 L -47.8139,-1024.49 L -48.4369,-1024.41 L -49.0451,-1024.26 L -49.6289,-1024.02 L -50.1791,-1023.72
 L -50.6871,-1023.35 L -51.1448,-1022.92 L -51.5451,-1022.44 L -51.8815,-1021.91 L -52.1489,-1021.34 L -52.3429,-1020.74
 L -52.4606,-1020.13 L -52.5,-1019.5 L -52.5,-744.5 L -52.4606,-743.873 L -52.3429,-743.257 L -52.1489,-742.659
 L -51.8815,-742.091 L -51.5451,-741.561 L -51.1448,-741.077 L -50.6871,-740.647 L -50.1791,-740.278 L -49.6289,-739.976
 L -49.0451,-739.745 L -48.4369,-739.589 L -47.8139,-739.51 L 47.8139,-739.51 z
M 44.887,-1015.2 L 44.6627,-1015.23 L 44.4438,-1015.29 L 44.2336,-1015.37 L 44.0355,-1015.48 L 43.8526,-1015.61
 L 43.6879,-1015.77 L 43.5438,-1015.94 L 43.4226,-1016.13 L 43.3264,-1016.34 L 43.2565,-1016.55 L 43.2142,-1016.77
 L 43.2,-1017 L 43.2142,-1017.23 L 43.2565,-1017.45 L 43.3264,-1017.66 L 43.4226,-1017.87 L 43.5438,-1018.06
 L 43.6879,-1018.23 L 43.8526,-1018.39 L 44.0355,-1018.52 L 44.2336,-1018.63 L 44.4438,-1018.71 L 44.6627,-1018.77
 L 44.887,-1018.8 L 45.113,-1018.8 L 45.3373,-1018.77 L 45.5562,-1018.71 L 45.7664,-1018.63 L 45.9645,-1018.52
 L 46.1474,-1018.39 L 46.3121,-1018.23 L 46.4562,-1018.06 L 46.5773,-1017.87 L 46.6736,-1017.66 L 46.7434,-1017.45
 L 46.7858,-1017.23 L 46.8,-1017 L 46.7858,-1016.77 L 46.7434,-1016.55 L 46.6736,-1016.34 L 46.5773,-1016.13
 L 46.4562,-1015.94 L 46.3121,-1015.77 L 46.1474,-1015.61 L 45.9645,-1015.48 L 45.7664,-1015.37 L 45.5562,-1015.29
 L 45.3373,-1015.23 L 45.113,-1015.2 z
M -45.113,-1015.2 L -45.3373,-1015.23 L -45.5562,-1015.29 L -45.7664,-1015.37 L -45.9645,-1015.48 L -46.1474,-1015.61
 L -46.3121,-1015.77 L -46.4562,-1015.94 L -46.5773,-1016.13 L -46.6736,-1016.34 L -46.7434,-1016.55 L -46.7858,-1016.77
 L -46.8,-1017 L -46.7858,-1017.23 L -46.7434,-1017.45 L -46.6736,-1017.66 L -46.5773,-1017.87 L -46.4562,-1018.06
 L -46.3121,-1018.23 L -46.1474,-1018.39 L -45.9645,-1018.52 L -45.7664,-1018.63 L -45.5562,-1018.71 L -45.3373,-1018.77
 L -45.113,-1018.8 L -44.887,-1018.8 L -44.6627,-1018.77 L -44.4438,-1018.71 L -44.2336,-1018.63 L -44.0355,-1018.52
 L -43.8526,-1018.39 L -43.6879,-1018.23 L -43.5438,-1018.06 L -43.4226,-1017.87 L -43.3264,-1017.66 L -43.2565,-1017.45
 L -43.2142,-1017.23 L -43.2,-1017 L -43.2142,-1016.77 L -43.2565,-1016.55 L -43.3264,-1016.34 L -43.4226,-1016.13
 L -43.5438,-1015.94 L -43.6879,-1015.77 L -43.8526,-1015.61 L -44.0355,-1015.48 L -44.2336,-1015.37 L -44.4438,-1015.29
 L -44.6627,-1015.23 L -44.887,-1015.2 z
M 44.887,-745.204 L 44.6627,-745.232 L 44.4438,-745.288 L 44.2336,-745.371 L 44.0355,-745.48 L 43.8526,-745.613
 L 43.6879,-745.768 L 43.5438,-745.942 L 43.4226,-746.133 L 43.3264,-746.337 L 43.2565,-746.552 L 43.2142,-746.774
 L 43.2,-747 L 43.2142,-747.226 L 43.2565,-747.448 L 43.3264,-747.663 L 43.4226,-747.867 L 43.5438,-748.058
 L 43.6879,-748.232 L 43.8526,-748.387 L 44.0355,-748.52 L 44.2336,-748.629 L 44.4438,-748.712 L 44.6627,-748.768
 L 44.887,-748.796 L 45.113,-748.796 L 45.3373,-748.768 L 45.5562,-748.712 L 45.7664,-748.629 L 45.9645,-748.52
 L 46.1474,-748.387 L 46.3121,-748.232 L 46.4562,-748.058 L 46.5773,-747.867 L 46.6736,-747.663 L 46.7434,-747.448
 L 46.7858,-747.226 L 46.8,-747 L 46.7858,-746.774 L 46.7434,-746.552 L 46.6736,-746.337 L 46.5773,-746.133
 L 46.4562,-745.942 L 46.3121,-745.768 L 46.1474,-745.613 L 45.9645,-745.48 L 45.7664,-745.371 L 45.5562,-745.288
 L 45.3373,-745.232 L 45.113,-745.204 z
M -45.113,-745.204 L -45.3373,-745.232 L -45.5562,-745.288 L -45.7664,-745.371 L -45.9645,-745.48 L -46.1474,-745.613
 L -46.3121,-745.768 L -46.4562,-745.942 L -46.5773,-746.133 L -46.6736,-746.337 L -46.7434,-746.552 L -46.7858,-746.774
 L -46.8,-747 L -46.7858,-747.226 L -46.7434,-747.448 L -46.6736,-747.663 L -46.5773,-747.867 L -46.4562,-748.058
 L -46.3121,-748.232 L -46.1474,-748.387 L -45.9645,-748.52 L -45.7664,-748.629 L -45.5562,-748.712 L -45.3373,-748.768
 L -45.113,-748.796 L -44.887,-748.796 L -44.6627,-748.768 L -44.4438,-748.712 L -44.2336,-748.629 L -44.0355,-748.52
 L -43.8526,-748.387 L -43.6879,-748.232 L -43.5438,-748.058 L -43.4226,-747.867 L -43.3264,-747.663 L -43.2565,-747.448
 L -43.2142,-747.226 L -43.2,-747 L -43.2142,-746.774 L -43.2565,-746.552 L -43.3264,-746.337 L -43.4226,-746.133
 L -43.5438,-745.942 L -43.6879,-745.768 L -43.8526,-745.613 L -44.0355,-745.48 L -44.2336,-745.371 L -44.4438,-745.288
 L -44.6627,-745.232 L -44.887,-745.204 z
" stroke="black" fill="lightgray" stroke-width="0.5"/>
</svg>
