<?xml version="1.0" standalone="no"?>
<!DOCTYPE svg PUBLIC "-//W3C//DTD SVG 1.1//EN" "http://www.w3.org/Graphics/SVG/1.1/DTD/svg11.dtd">
<svg width="196mm" height="580mm" viewBox="-98 -731 196 580" xmlns="http://www.w3.org/2000/svg" version="1.1">
<title>OpenSCAD Model</title>
<path d="
M 93.4369,-445.589 L 94.0451,-445.745 L 94.6289,-445.976 L 95.1791,-446.278 L 95.6871,-446.647 L 96.1448,-447.077
 L 96.5451,-447.561 L 96.8815,-448.091 L 97.1489,-448.659 L 97.3429,-449.257 L 97.4606,-449.873 L 97.5,-450.5
 L 97.5,-725.5 L 97.4606,-726.127 L 97.3429,-726.743 L 97.1489,-727.341 L 96.8815,-727.909 L 96.5451,-728.439
 L 96.1448,-728.923 L 95.6871,-729.353 L 95.1791,-729.722 L 94.6289,-730.024 L 94.0451,-730.255 L 93.4369,-730.411
 L 92.8139,-730.49 L -92.8139,-730.49 L -93.4369,-730.411 L -94.0451,-730.255 L -94.6289,-730.024 L -95.1791,-729.722
 L -95.6871,-729.353 L -96.1448,-728.923 L -96.5451,-728.439 L -96.8815,-727.909 L -97.1489,-727.341 L -97.3429,-726.743
 L -97.4606,-726.127 L -97.5,-725.5 L -97.5,-450.5 L -97.4606,-449.873 L -97.3429,-449.257 L -97.1489,-448.659
 L -96.8815,-448.091 L -96.5451,-447.561 L -96.1448,-447.077 L -95.6871,-446.647 L -95.1791,-446.278 L -94.6289,-445.976
 L -94.0451,-445.745 L -93.4369,-445.589 L -92.8139,-445.51 L 92.8139,-445.51 z
M 89.8493,-720.605 L 89.5503,-720.643 L 89.2584,-720.717 L 88.9781,-720.828 L 88.714,-720.974 L 88.4702,-721.151
 L 88.2505,-721.357 L 88.0583,-721.589 L 87.8969,-721.844 L 87.7685,-722.117 L 87.6754,-722.403 L 87.6189,-722.699
 L 87.6,-723 L 87.6189,-723.301 L 87.6754,-723.597 L 87.7685,-723.883 L 87.8969,-724.156 L 88.0583,-724.411
 L 88.2505,-724.643 L 88.4702,-724.849 L 88.714,-725.026 L 88.9781,-725.172 L 89.2584,-725.283 L 89.5503,-725.357
 L 89.8493,-725.395 L 90.1507,-725.395 L 90.4497,-725.357 L 90.7416,-725.283 L 91.0219,-725.172 L 91.286,-725.026
 L 91.5298,-724.849 L 91.7495,-724.643 L 91.9416,-724.411 L 92.1031,-724.156 L 92.2315,-723.883 L 92.3246,-723.597
 L 92.3811,-723.301 L 92.4,-723 L 92.3811,-722.699 L 92.3246,-722.403 L 92.2315,-722.117 L 92.1031,-721.844
 L 91.9416,-721.589 L 91.7495,-721.357 L 91.5298,-721.151 L 91.286,-720.974 L 91.0219,-720.828 L 90.7416,-720.717
 L 90.4497,-720.643 L 90.1507,-720.605 z
M -90.1507,-720.605 L -90.4497,-720.643 L -90.7416,-720.717 L -91.0219,-720.828 L -91.286,-720.974 L -91.5298,-721.151
 L -91.7495,-721.357 L -91.9416,-721.589 L -92.1031,-721.844 L -92.2315,-722.117 L -92.3246,-722.403 L -92.3811,-722.699
 L -92.4,-723 L -92.3811,-723.301 L -92.3246,-723.597 L -92.2315,-723.883 L -92.1031,-724.156 L -91.9416,-724.411
 L -91.7495,-724.643 L -91.5298,-724.849 L -91.286,-725.026 L -91.0219,-725.172 L -90.7416,-725.283 L -90.4497,-725.357
 L -90.1507,-725.395 L -89.8493,-725.395 L -89.5503,-725.357 L -89.2584,-725.283 L -88.9781,-725.172 L -88.714,-725.026
 L -88.4702,-724.849 L -88.2505,-724.643 L -88.0583,-724.411 L -87.8969,-724.156 L -87.7685,-723.883 L -87.6754,-723.597
 L -87.6189,-723.301 L -87.6,-723 L -87.6189,-722.699 L -87.6754,-722.403 L -87.7685,-722.117 L -87.8969,-721.844
 L -88.0583,-721.589 L -88.2505,-721.357 L -88.4702,-721.151 L -88.714,-720.974 L -88.9781,-720.828 L -89.2584,-720.717
 L -89.5503,-720.643 L -89.8493,-720.605 z
M 89.8493,-450.605 L 89.5503,-450.643 L 89.2584,-450.717 L 88.9781,-450.828 L 88.714,-450.974 L 88.4702,-451.151
 L 88.2505,-451.357 L 88.0583,-451.589 L 87.8969,-451.844 L 87.7685,-452.117 L 87.6754,-452.403 L 87.6189,-452.699
 L 87.6,-453 L 87.6189,-453.301 L 87.6754,-453.597 L 87.7685,-453.883 L 87.8969,-454.156 L 88.0583,-454.411
 L 88.2505,-454.643 L 88.4702,-454.849 L 88.714,-455.026 L 88.9781,-455.172 L 89.2584,-455.283 L 89.5503,-455.357
 L 89.8493,-455.395 L 90.1507,-455.395 L 90.4497,-455.357 L 90.7416,-455.283 L 91.0219,-455.172 L 91.286,-455.026
 L 91.5298,-454.849 L 91.7495,-454.643 L 91.9416,-454.411 L 92.1031,-454.156 L 92.2315,-453.883 L 92.3246,-453.597
 L 92.3811,-453.301 L 92.4,-453 L 92.3811,-452.699 L 92.3246,-452.403 L 92.2315,-452.117 L 92.1031,-451.844
 L 91.9416,-451.589 L 91.7495,-451.357 L 91.5298,-451.151 L 91.286,-450.974 L 91.0219,-450.828 L 90.7416,-450.717
 L 90.4497,-450.643 L 90.1507,-450.605 z
M -90.1507,-450.605 L -90.4497,-450.643 L -90.7416,-450.717 L -91.0219,-450.828 L -91.286,-450.974 L -91.5298,-451.151
 L -91.7495,-451.357 L -91.9416,-451.589 L -92.1031,-451.844 L -92.2315,-452.117 L -92.3246,-452.403 L -92.3811,-452.699
 L -92.4,-453 L -92.3811,-453.301 L -92.3246,-453.597 L -92.2315,-453.883 L -92.1031,-454.156 L -91.9416,-454.411
 L -91.7495,-454.643 L -91.5298,-454.849 L -91.286,-455.026 L -91.0219,-455.172 L -90.7416,-455.283 L -90.4497,-455.357
 L -90.1507,-455.395 L -89.8493,-455.395 L -89.5503,-455.357 L -89.2584,-455.283 L -88.9781,-455.172 L -88.714,-455.026
 L -88.4702,-454.849 L -88.2505,-454.643 L -88.0583,-454.411 L -87.8969,-454.156 L -87.7685,-453.883 L -87.6754,-453.597
 L -87.6189,-453.301 L -87.6,-453 L -87.6189,-452.699 L -87.6754,-452.403 L -87.7685,-452.117 L -87.8969,-451.844
 L -88.0583,-451.589 L -88.2505,-451.357 L -88.4702,-451.151 L -88.714,-450.974 L -88.9781,-450.828 L -89.2584,-450.717
 L -89.5503,-450.643 L -89.8493,-450.605 z
M 93.4369,-151.589 L 94.0451,-151.745 L 94.6289,-151.976 L 95.1791,-152.278 L 95.6871,-152.647 L 96.1448,-153.077
 L 96.5451,-153.561 L 96.8815,-154.091 L 97.1489,-154.659 L 97.3429,-155.257 L 97.4606,-155.873 L 97.5,-156.5
 L 97.5,-431.5 L 97.4606,-432.127 L 97.3429,-432.743 L 97.1489,-433.341 L 96.8815,-433.909 L 96.5451,-434.439
 L 96.1448,-434.923 L 95.6871,-435.353 L 95.1791,-435.722 L 94.6289,-436.024 L 94.0451,-436.255 L 93.4369,-436.411
 L 92.8139,-436.49 L -92.8139,-436.49 L -93.4369,-436.411 L -94.0451,-436.255 L -94.6289,-436.024 L -95.1791,-435.722
 L -95.6871,-435.353 L -96.1448,-434.923 L -96.5451,-434.439 L -96.8815,-433.909 L -97.1489,-433.341 L -97.3429,-432.743
 L -97.4606,-432.127 L -97.5,-431.5 L -97.5,-156.5 L -97.4606,-155.873 L -97.3429,-155.257 L -97.1489,-154.659
 L -96.8815,-154.091 L -96.5451,-153.561 L -96.1448,-153.077 L -95.6871,-152.647 L -95.1791,-152.278 L -94.6289,-151.976
 L -94.0451,-151.745 L -93.4369,-151.589 L -92.8139,-151.51 L 92.8139,-151.51 z
M 89.887,-427.204 L 89.6627,-427.232 L 89.4438,-427.288 L 89.2336,-427.371 L 89.0355,-427.48 L 88.8526,-427.613
 L 88.6879,-427.768 L 88.5438,-427.942 L 88.4226,-428.133 L 88.3264,-428.337 L 88.2565,-428.552 L 88.2142,-428.774
 L 88.2,-429 L 88.2142,-429.226 L 88.2565,-429.448 L 88.3264,-429.663 L 88.4226,-429.867 L 88.5438,-430.058
 L 88.6879,-430.232 L 88.8526,-430.387 L 89.0355,-430.52 L 89.2336,-430.629 L 89.4438,-430.712 L 89.6627,-430.768
 L 89.887,-430.796 L 90.113,-430.796 L 90.3373,-430.768 L 90.5562,-430.712 L 90.7664,-430.629 L 90.9645,-430.52
 L 91.1474,-430.387 L 91.3121,-430.232 L 91.4562,-430.058 L 91.5773,-429.867 L 91.6736,-429.663 L 91.7434,-429.448
 L 91.7858,-429.226 L 91.8,-429 L 91.7858,-428.774 L 91.7434,-428.552 L 91.6736,-428.337 L 91.5773,-428.133
 L 91.4562,-427.942 L 91.3121,-427.768 L 91.1474,-427.613 L 90.9645,-427.48 L 90.7664,-427.371 L 90.5562,-427.288
 L 90.3373,-427.232 L 90.113,-427.204 z
M -90.113,-427.204 L -90.3373,-427.232 L -90.5562,-427.288 L -90.7664,-427.371 L -90.9645,-427.48 L -91.1474,-427.613
 L -91.3121,-427.768 L -91.4562,-427.942 L -91.5773,-428.133 L -91.6736,-428.337 L -91.7434,-428.552 L -91.7858,-428.774
 L -91.8,-429 L -91.7858,-429.226 L -91.7434,-429.448 L -91.6736,-429.663 L -91.5773,-429.867 L -91.4562,-430.058
 L -91.3121,-430.232 L -91.1474,-430.387 L -90.9645,-430.52 L -90.7664,-430.629 L -90.5562,-430.712 L -90.3373,-430.768
 L -90.113,-430.796 L -89.887,-430.796 L -89.6627,-430.768 L -89.4438,-430.712 L -89.2336,-430.629 L -89.0355,-430.52
 L -88.8526,-430.387 L -88.6879,-430.232 L -88.5438,-430.058 L -88.4226,-429.867 L -88.3264,-429.663 L -88.2565,-429.448
 L -88.2142,-429.226 L -88.2,-429 L -88.2142,-428.774 L -88.2565,-428.552 L -88.3264,-428.337 L -88.4226,-428.133
 L -88.5438,-427.942 L -88.6879,-427.768 L -88.8526,-427.613 L -89.0355,-427.48 L -89.2336,-427.371 L -89.4438,-427.288
 L -89.6627,-427.232 L -89.887,-427.204 z
M -90.113,-157.204 L -90.3373,-157.232 L -90.5562,-157.288 L -90.7664,-157.371 L -90.9645,-157.48 L -91.1474,-157.613
 L -91.3121,-157.768 L -91.4562,-157.942 L -91.5773,-158.133 L -91.6736,-158.337 L -91.7434,-158.552 L -91.7858,-158.774
 L -91.8,-159 L -91.7858,-159.226 L -91.7434,-159.448 L -91.6736,-159.663 L -91.5773,-159.867 L -91.4562,-160.058
 L -91.3121,-160.232 L -91.1474,-160.387 L -90.9645,-160.52 L -90.7664,-160.629 L -90.5562,-160.712 L -90.3373,-160.768
 L -90.113,-160.796 L -89.887,-160.796 L -89.6627,-160.768 L -89.4438,-160.712 L -89.2336,-160.629 L -89.0355,-160.52
 L -88.8526,-160.387 L -88.6879,-160.232 L -88.5438,-160.058 L -88.4226,-159.867 L -88.3264,-159.663 L -88.2565,-159.448
 L -88.2142,-159.226 L -88.2,-159 L -88.2142,-158.774 L -88.2565,-158.552 L -88.3264,-158.337 L -88.4226,-158.133
 L -88.5438,-157.942 L -88.6879,-157.768 L -88.8526,-157.613 L -89.0355,-157.48 L -89.2336,-157.371 L -89.4438,-157.288
 L -89.6627,-157.232 L -89.887,-157.204 z
M 89.887,-157.204 L 89.6627,-157.232 L 89.4438,-157.288 L 89.2336,-157.371 L 89.0355,-157.48 L 88.8526,-157.613
 L 88.6879,-157.768 L 88.5438,-157.942 L 88.4226,-158.133 L 88.3264,-158.337 L 88.2565,-158.552 L 88.2142,-158.774
 L 88.2,-159 L 88.2142,-159.226 L 88.2565,-159.448 L 88.3264,-159.663 L 88.4226,-159.867 L 88.5438,-160.058
 L 88.6879,-160.232 L 88.8526,-160.387 L 89.0355,-160.52 L 89.2336,-160.629 L 89.4438,-160.712 L 89.6627,-160.768
 L 89.887,-160.796 L 90.113,-160.796 L 90.3373,-160.768 L 90.5562,-160.712 L 90.7664,-160.629 L 90.9645,-160.52
 L 91.1474,-160.387 L 91.3121,-160.232 L 91.4562,-160.058 L 91.5773,-159.867 L 91.6736,-159.663 L 91.7434,-159.448
 L 91.7858,-159.226 L 91.8,-159 L 91.7858,-158.774 L 91.7434,-158.552 L 91.6736,-158.337 L 91.5773,-158.133
 L 91.4562,-157.942 L 91.3121,-157.768 L 91.1474,-157.613 L 90.9645,-157.48 L 90.7664,-157.371 L 90.5562,-157.288
 L 90.3373,-157.232 L 90.113,-157.204 z
" stroke="black" fill="lightgray" stroke-width="0.5"/>
</svg>
