<?xml version="1.0" standalone="no"?>
<!DOCTYPE svg PUBLIC "-//W3C//DTD SVG 1.1//EN" "http://www.w3.org/Graphics/SVG/1.1/DTD/svg11.dtd">
<svg width="24mm" height="280mm" viewBox="-12 -356 24 280" xmlns="http://www.w3.org/2000/svg" version="1.1">
<title>OpenSCAD Model</title>
<path d="
M 7.1869,-220.589 L 7.79507,-220.745 L 8.37889,-220.976 L 8.92912,-221.278 L 9.43712,-221.647 L 9.89484,-222.077
 L 10.2951,-222.561 L 10.6315,-223.091 L 10.8989,-223.659 L 11.0929,-224.257 L 11.2106,-224.873 L 11.25,-225.5
 L 11.25,-350.5 L 11.2106,-351.127 L 11.0929,-351.743 L 10.8989,-352.341 L 10.6315,-352.909 L 10.2951,-353.439
 L 9.89484,-353.923 L 9.43712,-354.353 L 8.92912,-354.722 L 8.37889,-355.024 L 7.79507,-355.255 L 7.1869,-355.411
 L 6.56395,-355.49 L -6.56395,-355.49 L -7.1869,-355.411 L -7.79507,-355.255 L -8.37889,-355.024 L -8.92912,-354.722
 L -9.43712,-354.353 L -9.89484,-353.923 L -10.2951,-353.439 L -10.6315,-352.909 L -10.8989,-352.341 L -11.0929,-351.743
 L -11.2106,-351.127 L -11.25,-350.5 L -11.25,-225.5 L -11.2106,-224.873 L -11.0929,-224.257 L -10.8989,-223.659
 L -10.6315,-223.091 L -10.2951,-222.561 L -9.89484,-222.077 L -9.43712,-221.647 L -8.92912,-221.278 L -8.37889,-220.976
 L -7.79507,-220.745 L -7.1869,-220.589 L -6.56395,-220.51 L 6.56395,-220.51 z
M 7.1869,-76.5886 L 7.79507,-76.7447 L 8.37889,-76.9759 L 8.92912,-77.2784 L 9.43712,-77.6474 L 9.89484,-78.0773
 L 10.2951,-78.5611 L 10.6315,-79.0912 L 10.8989,-79.6594 L 11.0929,-80.2566 L 11.2106,-80.8733 L 11.25,-81.5
 L 11.25,-206.5 L 11.2106,-207.127 L 11.0929,-207.743 L 10.8989,-208.341 L 10.6315,-208.909 L 10.2951,-209.439
 L 9.89484,-209.923 L 9.43712,-210.353 L 8.92912,-210.722 L 8.37889,-211.024 L 7.79507,-211.255 L 7.1869,-211.411
 L 6.56395,-211.49 L -6.56395,-211.49 L -7.1869,-211.411 L -7.79507,-211.255 L -8.37889,-211.024 L -8.92912,-210.722
 L -9.43712,-210.353 L -9.89484,-209.923 L -10.2951,-209.439 L -10.6315,-208.909 L -10.8989,-208.341 L -11.0929,-207.743
 L -11.2106,-207.127 L -11.25,-206.5 L -11.25,-81.5 L -11.2106,-80.8733 L -11.0929,-80.2566 L -10.8989,-79.6594
 L -10.6315,-79.0912 L -10.2951,-78.5611 L -9.89484,-78.0773 L -9.43712,-77.6474 L -8.92912,-77.2784 L -8.37889,-76.9759
 L -7.79507,-76.7447 L -7.1869,-76.5886 L -6.56395,-76.5099 L 6.56395,-76.5099 z
M 3.63696,-202.204 L 3.4127,-202.232 L 3.19376,-202.288 L 2.9836,-202.371 L 2.78551,-202.48 L 2.60263,-202.613
 L 2.43785,-202.768 L 2.29376,-202.942 L 2.17264,-203.133 L 2.0764,-203.337 L 2.00655,-203.552 L 1.96419,-203.774
 L 1.95,-204 L 1.96419,-204.226 L 2.00655,-204.448 L 2.0764,-204.663 L 2.17264,-204.867 L 2.29376,-205.058
 L 2.43785,-205.232 L 2.60263,-205.387 L 2.78551,-205.52 L 2.9836,-205.629 L 3.19376,-205.712 L 3.4127,-205.768
 L 3.63696,-205.796 L 3.86302,-205.796 L 4.08728,-205.768 L 4.30623,-205.712 L 4.51639,-205.629 L 4.71448,-205.52
 L 4.89735,-205.387 L 5.06213,-205.232 L 5.20622,-205.058 L 5.32735,-204.867 L 5.42358,-204.663 L 5.49344,-204.448
 L 5.5358,-204.226 L 5.54999,-204 L 5.5358,-203.774 L 5.49344,-203.552 L 5.42358,-203.337 L 5.32735,-203.133
 L 5.20622,-202.942 L 5.06213,-202.768 L 4.89735,-202.613 L 4.71448,-202.48 L 4.51639,-202.371 L 4.30623,-202.288
 L 4.08728,-202.232 L 3.86302,-202.204 z
M -3.86302,-202.204 L -4.08728,-202.232 L -4.30623,-202.288 L -4.51639,-202.371 L -4.71448,-202.48 L -4.89735,-202.613
 L -5.06213,-202.768 L -5.20622,-202.942 L -5.32735,-203.133 L -5.42358,-203.337 L -5.49344,-203.552 L -5.5358,-203.774
 L -5.54999,-204 L -5.5358,-204.226 L -5.49344,-204.448 L -5.42358,-204.663 L -5.32735,-204.867 L -5.20622,-205.058
 L -5.06213,-205.232 L -4.89735,-205.387 L -4.71448,-205.52 L -4.51639,-205.629 L -4.30623,-205.712 L -4.08728,-205.768
 L -3.86302,-205.796 L -3.63696,-205.796 L -3.4127,-205.768 L -3.19376,-205.712 L -2.9836,-205.629 L -2.78551,-205.52
 L -2.60263,-205.387 L -2.43785,-205.232 L -2.29376,-205.058 L -2.17264,-204.867 L -2.0764,-204.663 L -2.00655,-204.448
 L -1.96419,-204.226 L -1.95,-204 L -1.96419,-203.774 L -2.00655,-203.552 L -2.0764,-203.337 L -2.17264,-203.133
 L -2.29376,-202.942 L -2.43785,-202.768 L -2.60263,-202.613 L -2.78551,-202.48 L -2.9836,-202.371 L -3.19376,-202.288
 L -3.4127,-202.232 L -3.63696,-202.204 z
M -3.86302,-82.2036 L -4.08728,-82.2319 L -4.30623,-82.2881 L -4.51639,-82.3713 L -4.71448,-82.4802 L -4.89735,-82.6131
 L -5.06213,-82.7678 L -5.20622,-82.942 L -5.32735,-83.1328 L -5.42358,-83.3374 L -5.49344,-83.5524 L -5.5358,-83.7744
 L -5.54999,-84 L -5.5358,-84.2256 L -5.49344,-84.4476 L -5.42358,-84.6626 L -5.32735,-84.8672 L -5.20622,-85.058
 L -5.06213,-85.2322 L -4.89735,-85.3869 L -4.71448,-85.5198 L -4.51639,-85.6287 L -4.30623,-85.7119 L -4.08728,-85.7681
 L -3.86302,-85.7964 L -3.63696,-85.7964 L -3.4127,-85.7681 L -3.19376,-85.7119 L -2.9836,-85.6287 L -2.78551,-85.5198
 L -2.60263,-85.3869 L -2.43785,-85.2322 L -2.29376,-85.058 L -2.17264,-84.8672 L -2.0764,-84.6626 L -2.00655,-84.4476
 L -1.96419,-84.2256 L -1.95,-84 L -1.96419,-83.7744 L -2.00655,-83.5524 L -2.0764,-83.3374 L -2.17264,-83.1328
 L -2.29376,-82.942 L -2.43785,-82.7678 L -2.60263,-82.6131 L -2.78551,-82.4802 L -2.9836,-82.3713 L -3.19376,-82.2881
 L -3.4127,-82.2319 L -3.63696,-82.2036 z
M 3.63696,-82.2036 L 3.4127,-82.2319 L 3.19376,-82.2881 L 2.9836,-82.3713 L 2.78551,-82.4802 L 2.60263,-82.6131
 L 2.43785,-82.7678 L 2.29376,-82.942 L 2.17264,-83.1328 L 2.0764,-83.3374 L 2.00655,-83.5524 L 1.96419,-83.7744
 L 1.95,-84 L 1.96419,-84.2256 L 2.00655,-84.4476 L 2.0764,-84.6626 L 2.17264,-84.8672 L 2.29376,-85.058
 L 2.43785,-85.2322 L 2.60263,-85.3869 L 2.78551,-85.5198 L 2.9836,-85.6287 L 3.19376,-85.7119 L 3.4127,-85.7681
 L 3.63696,-85.7964 L 3.86302,-85.7964 L 4.08728,-85.7681 L 4.30623,-85.7119 L 4.51639,-85.6287 L 4.71448,-85.5198
 L 4.89735,-85.3869 L 5.06213,-85.2322 L 5.20622,-85.058 L 5.32735,-84.8672 L 5.42358,-84.6626 L 5.49344,-84.4476
 L 5.5358,-84.2256 L 5.54999,-84 L 5.5358,-83.7744 L 5.49344,-83.5524 L 5.42358,-83.3374 L 5.32735,-83.1328
 L 5.20622,-82.942 L 5.06213,-82.7678 L 4.89735,-82.6131 L 4.71448,-82.4802 L 4.51639,-82.3713 L 4.30623,-82.2881
 L 4.08728,-82.2319 L 3.86302,-82.2036 z
" stroke="black" fill="lightgray" stroke-width="0.5"/>
</svg>
