<?xml version="1.0" standalone="no"?>
<!DOCTYPE svg PUBLIC "-//W3C//DTD SVG 1.1//EN" "http://www.w3.org/Graphics/SVG/1.1/DTD/svg11.dtd">
<svg width="16mm" height="604mm" viewBox="-8 -914 16 604" xmlns="http://www.w3.org/2000/svg" version="1.1">
<title>OpenSCAD Model</title>
<path d="
M -4.5,-718.925 L -4.04507,-718.745 L -3.4369,-718.589 L -2.81395,-718.51 L 2.81395,-718.51 L 3.4369,-718.589
 L 4.04507,-718.745 L 4.62889,-718.976 L 5.17912,-719.278 L 5.68712,-719.647 L 6.14484,-720.077 L 6.54507,-720.561
 L 6.88153,-721.091 L 7.14888,-721.659 L 7.34291,-722.257 L 7.46057,-722.873 L 7.5,-723.5 L 7.5,-908.5
 L 7.46057,-909.127 L 7.34291,-909.743 L 7.14888,-910.341 L 6.88153,-910.909 L 6.54507,-911.439 L 6.14484,-911.923
 L 5.68712,-912.353 L 5.17912,-912.722 L 4.62889,-913.024 L 4.04507,-913.255 L 3.4369,-913.411 L 2.81395,-913.49
 L -2.81395,-913.49 L -3.4369,-913.411 L -4.04507,-913.255 L -4.5,-913.075 L -4.5,-913.49 L -7.5,-913.49
 L -7.5,-718.51 L -4.5,-718.51 z
M -2.24316,-720.135 L -2.72565,-720.196 L -3.1967,-720.317 L -3.64888,-720.496 L -4.07506,-720.73 L -4.46851,-721.016
 L -4.82301,-721.349 L -5.13301,-721.724 L -5.3936,-722.134 L -5.60068,-722.574 L -5.75096,-723.037 L -5.84209,-723.515
 L -5.87262,-724 L -5.87262,-908 L -5.84209,-908.485 L -5.75096,-908.963 L -5.60068,-909.426 L -5.3936,-909.866
 L -5.13301,-910.276 L -4.82301,-910.651 L -4.46851,-910.984 L -4.07506,-911.27 L -3.64888,-911.504 L -3.1967,-911.683
 L -2.72565,-911.804 L -2.24316,-911.865 L 2.24316,-911.865 L 2.72565,-911.804 L 3.1967,-911.683 L 3.64888,-911.504
 L 4.07506,-911.27 L 4.46851,-910.984 L 4.82301,-910.651 L 5.13301,-910.276 L 5.3936,-909.866 L 5.60068,-909.426
 L 5.75096,-908.963 L 5.84209,-908.485 L 5.87262,-908 L 5.87262,-724 L 5.84209,-723.515 L 5.75096,-723.037
 L 5.60068,-722.574 L 5.3936,-722.134 L 5.13301,-721.724 L 4.82301,-721.349 L 4.46851,-721.016 L 4.07506,-720.73
 L 3.64888,-720.496 L 3.1967,-720.317 L 2.72565,-720.196 L 2.24316,-720.135 z
M 3.4369,-514.589 L 4.04507,-514.745 L 4.62889,-514.976 L 5.17912,-515.278 L 5.68712,-515.647 L 6.14484,-516.077
 L 6.54507,-516.561 L 6.88153,-517.091 L 7.14888,-517.659 L 7.34291,-518.257 L 7.46057,-518.873 L 7.5,-519.5
 L 7.5,-704.5 L 7.46057,-705.127 L 7.34291,-705.743 L 7.14888,-706.341 L 6.88153,-706.909 L 6.54507,-707.439
 L 6.14484,-707.923 L 5.68712,-708.353 L 5.17912,-708.722 L 4.62889,-709.024 L 4.04507,-709.255 L 3.4369,-709.411
 L 2.81395,-709.49 L -2.81395,-709.49 L -3.4369,-709.411 L -4.04507,-709.255 L -4.5,-709.075 L -4.5,-709.115
 L -7.5,-709.115 L -7.5,-514.885 L -4.5,-514.885 L -4.5,-514.925 L -4.04507,-514.745 L -3.4369,-514.589
 L -2.81395,-514.51 L 2.81395,-514.51 z
M -0.150696,-699.605 L -0.449707,-699.643 L -0.741638,-699.717 L -1.02187,-699.828 L -1.28598,-699.974 L -1.52982,-700.151
 L -1.74951,-700.357 L -1.94164,-700.589 L -2.10313,-700.844 L -2.23146,-701.117 L -2.32458,-701.403 L -2.38107,-701.699
 L -2.39999,-702 L -2.38107,-702.301 L -2.32458,-702.597 L -2.23146,-702.883 L -2.10313,-703.156 L -1.94164,-703.411
 L -1.74951,-703.643 L -1.52982,-703.849 L -1.28598,-704.026 L -1.02187,-704.172 L -0.741638,-704.283 L -0.449707,-704.357
 L -0.150696,-704.395 L 0.150696,-704.395 L 0.449707,-704.357 L 0.741638,-704.283 L 1.02187,-704.172 L 1.28598,-704.026
 L 1.52982,-703.849 L 1.74951,-703.643 L 1.94164,-703.411 L 2.10313,-703.156 L 2.23146,-702.883 L 2.32458,-702.597
 L 2.38107,-702.301 L 2.39999,-702 L 2.38107,-701.699 L 2.32458,-701.403 L 2.23146,-701.117 L 2.10313,-700.844
 L 1.94164,-700.589 L 1.74951,-700.357 L 1.52982,-700.151 L 1.28598,-699.974 L 1.02187,-699.828 L 0.741638,-699.717
 L 0.449707,-699.643 L 0.150696,-699.605 z
M -0.150696,-519.605 L -0.449707,-519.643 L -0.741638,-519.717 L -1.02187,-519.828 L -1.28598,-519.974 L -1.52982,-520.151
 L -1.74951,-520.357 L -1.94164,-520.589 L -2.10313,-520.844 L -2.23146,-521.117 L -2.32458,-521.403 L -2.38107,-521.699
 L -2.39999,-522 L -2.38107,-522.301 L -2.32458,-522.597 L -2.23146,-522.883 L -2.10313,-523.156 L -1.94164,-523.411
 L -1.74951,-523.643 L -1.52982,-523.849 L -1.28598,-524.026 L -1.02187,-524.172 L -0.741638,-524.283 L -0.449707,-524.357
 L -0.150696,-524.395 L 0.150696,-524.395 L 0.449707,-524.357 L 0.741638,-524.283 L 1.02187,-524.172 L 1.28598,-524.026
 L 1.52982,-523.849 L 1.74951,-523.643 L 1.94164,-523.411 L 2.10313,-523.156 L 2.23146,-522.883 L 2.32458,-522.597
 L 2.38107,-522.301 L 2.39999,-522 L 2.38107,-521.699 L 2.32458,-521.403 L 2.23146,-521.117 L 2.10313,-520.844
 L 1.94164,-520.589 L 1.74951,-520.357 L 1.52982,-520.151 L 1.28598,-519.974 L 1.02187,-519.828 L 0.741638,-519.717
 L 0.449707,-519.643 L 0.150696,-519.605 z
M 3.4369,-310.589 L 4.04507,-310.745 L 4.62889,-310.976 L 5.17912,-311.278 L 5.68712,-311.647 L 6.14484,-312.077
 L 6.54507,-312.561 L 6.88153,-313.091 L 7.14888,-313.659 L 7.34291,-314.257 L 7.46057,-314.873 L 7.5,-315.5
 L 7.5,-500.5 L 7.46057,-501.127 L 7.34291,-501.743 L 7.14888,-502.341 L 6.88153,-502.909 L 6.54507,-503.439
 L 6.14484,-503.923 L 5.68712,-504.353 L 5.17912,-504.722 L 4.62889,-505.024 L 4.04507,-505.255 L 3.4369,-505.411
 L 2.81395,-505.49 L -2.81395,-505.49 L -3.4369,-505.411 L -4.04507,-505.255 L -4.62889,-505.024 L -5.17912,-504.722
 L -5.68712,-504.353 L -6.14484,-503.923 L -6.54507,-503.439 L -6.88153,-502.909 L -7.14888,-502.341 L -7.34291,-501.743
 L -7.39999,-501.444 L -7.5,-501.444 L -7.5,-314.556 L -7.39999,-314.556 L -7.34291,-314.257 L -7.14888,-313.659
 L -6.88153,-313.091 L -6.54507,-312.561 L -6.14484,-312.077 L -5.68712,-311.647 L -5.17912,-311.278 L -4.62889,-310.976
 L -4.04507,-310.745 L -3.4369,-310.589 L -2.81395,-310.51 L 2.81395,-310.51 z
M -0.113022,-496.204 L -0.33728,-496.232 L -0.556229,-496.288 L -0.766388,-496.371 L -0.964478,-496.48 L -1.14735,-496.613
 L -1.31213,-496.768 L -1.45622,-496.942 L -1.57735,-497.133 L -1.67358,-497.337 L -1.74344,-497.552 L -1.7858,-497.774
 L -1.79999,-498 L -1.7858,-498.226 L -1.74344,-498.448 L -1.67358,-498.663 L -1.57735,-498.867 L -1.45622,-499.058
 L -1.31213,-499.232 L -1.14735,-499.387 L -0.964478,-499.52 L -0.766388,-499.629 L -0.556229,-499.712 L -0.33728,-499.768
 L -0.113022,-499.796 L 0.113022,-499.796 L 0.33728,-499.768 L 0.556229,-499.712 L 0.766388,-499.629 L 0.964478,-499.52
 L 1.14735,-499.387 L 1.31213,-499.232 L 1.45622,-499.058 L 1.57735,-498.867 L 1.67358,-498.663 L 1.74344,-498.448
 L 1.7858,-498.226 L 1.79999,-498 L 1.7858,-497.774 L 1.74344,-497.552 L 1.67358,-497.337 L 1.57735,-497.133
 L 1.45622,-496.942 L 1.31213,-496.768 L 1.14735,-496.613 L 0.964478,-496.48 L 0.766388,-496.371 L 0.556229,-496.288
 L 0.33728,-496.232 L 0.113022,-496.204 z
M -0.113022,-316.204 L -0.33728,-316.232 L -0.556229,-316.288 L -0.766388,-316.371 L -0.964478,-316.48 L -1.14735,-316.613
 L -1.31213,-316.768 L -1.45622,-316.942 L -1.57735,-317.133 L -1.67358,-317.337 L -1.74344,-317.552 L -1.7858,-317.774
 L -1.79999,-318 L -1.7858,-318.226 L -1.74344,-318.448 L -1.67358,-318.663 L -1.57735,-318.867 L -1.45622,-319.058
 L -1.31213,-319.232 L -1.14735,-319.387 L -0.964478,-319.52 L -0.766388,-319.629 L -0.556229,-319.712 L -0.33728,-319.768
 L -0.113022,-319.796 L 0.113022,-319.796 L 0.33728,-319.768 L 0.556229,-319.712 L 0.766388,-319.629 L 0.964478,-319.52
 L 1.14735,-319.387 L 1.31213,-319.232 L 1.45622,-319.058 L 1.57735,-318.867 L 1.67358,-318.663 L 1.74344,-318.448
 L 1.7858,-318.226 L 1.79999,-318 L 1.7858,-317.774 L 1.74344,-317.552 L 1.67358,-317.337 L 1.57735,-317.133
 L 1.45622,-316.942 L 1.31213,-316.768 L 1.14735,-316.613 L 0.964478,-316.48 L 0.766388,-316.371 L 0.556229,-316.288
 L 0.33728,-316.232 L 0.113022,-316.204 z
" stroke="black" fill="lightgray" stroke-width="0.5"/>
</svg>
