  0
SECTION
  2
BLOCKS
  0
ENDSEC
  0
SECTION
  2
ENTITIES
  0
LINE
  8
0
 10
0.562134
 20
477.053
 11
0.927048
 21
477.147
  0
LINE
  8
0
 10
0.927048
 20
477.147
 11
1.27733
 21
477.286
  0
LINE
  8
0
 10
1.27733
 20
477.286
 11
1.60747
 21
477.467
  0
LINE
  8
0
 10
1.60747
 20
477.467
 11
1.91226
 21
477.688
  0
LINE
  8
0
 10
1.91226
 20
477.688
 11
2.1869
 21
477.946
  0
LINE
  8
0
 10
2.1869
 20
477.946
 11
2.42705
 21
478.237
  0
LINE
  8
0
 10
2.42705
 20
478.237
 11
2.62891
 21
478.555
  0
LINE
  8
0
 10
2.62891
 20
478.555
 11
2.78932
 21
478.896
  0
LINE
  8
0
 10
2.78932
 20
478.896
 11
2.90575
 21
479.254
  0
LINE
  8
0
 10
2.90575
 20
479.254
 11
2.97633
 21
479.624
  0
LINE
  8
0
 10
2.97633
 20
479.624
 11
3
 21
480
  0
LINE
  8
0
 10
3
 20
480
 11
2.97633
 21
480.376
  0
LINE
  8
0
 10
2.97633
 20
480.376
 11
2.90575
 21
480.746
  0
LINE
  8
0
 10
2.90575
 20
480.746
 11
2.78932
 21
481.104
  0
LINE
  8
0
 10
2.78932
 20
481.104
 11
2.62891
 21
481.445
  0
LINE
  8
0
 10
2.62891
 20
481.445
 11
2.42705
 21
481.763
  0
LINE
  8
0
 10
2.42705
 20
481.763
 11
2.1869
 21
482.054
  0
LINE
  8
0
 10
2.1869
 20
482.054
 11
1.91226
 21
482.312
  0
LINE
  8
0
 10
1.91226
 20
482.312
 11
1.60747
 21
482.533
  0
LINE
  8
0
 10
1.60747
 20
482.533
 11
1.27733
 21
482.714
  0
LINE
  8
0
 10
1.27733
 20
482.714
 11
0.927048
 21
482.853
  0
LINE
  8
0
 10
0.927048
 20
482.853
 11
0.562134
 21
482.947
  0
LINE
  8
0
 10
0.562134
 20
482.947
 11
0.18837
 21
482.994
  0
LINE
  8
0
 10
0.18837
 20
482.994
 11
-0.18837
 21
482.994
  0
LINE
  8
0
 10
-0.18837
 20
482.994
 11
-0.562134
 21
482.947
  0
LINE
  8
0
 10
-0.562134
 20
482.947
 11
-0.927048
 21
482.853
  0
LINE
  8
0
 10
-0.927048
 20
482.853
 11
-1.27733
 21
482.714
  0
LINE
  8
0
 10
-1.27733
 20
482.714
 11
-1.60747
 21
482.533
  0
LINE
  8
0
 10
-1.60747
 20
482.533
 11
-1.91226
 21
482.312
  0
LINE
  8
0
 10
-1.91226
 20
482.312
 11
-2.1869
 21
482.054
  0
LINE
  8
0
 10
-2.1869
 20
482.054
 11
-2.42705
 21
481.763
  0
LINE
  8
0
 10
-2.42705
 20
481.763
 11
-2.62891
 21
481.445
  0
LINE
  8
0
 10
-2.62891
 20
481.445
 11
-2.78932
 21
481.104
  0
LINE
  8
0
 10
-2.78932
 20
481.104
 11
-2.90575
 21
480.746
  0
LINE
  8
0
 10
-2.90575
 20
480.746
 11
-2.97633
 21
480.376
  0
LINE
  8
0
 10
-2.97633
 20
480.376
 11
-3
 21
480
  0
LINE
  8
0
 10
-3
 20
480
 11
-2.97633
 21
479.624
  0
LINE
  8
0
 10
-2.97633
 20
479.624
 11
-2.90575
 21
479.254
  0
LINE
  8
0
 10
-2.90575
 20
479.254
 11
-2.78932
 21
478.896
  0
LINE
  8
0
 10
-2.78932
 20
478.896
 11
-2.62891
 21
478.555
  0
LINE
  8
0
 10
-2.62891
 20
478.555
 11
-2.42705
 21
478.237
  0
LINE
  8
0
 10
-2.42705
 20
478.237
 11
-2.1869
 21
477.946
  0
LINE
  8
0
 10
-2.1869
 20
477.946
 11
-1.91226
 21
477.688
  0
LINE
  8
0
 10
-1.91226
 20
477.688
 11
-1.60747
 21
477.467
  0
LINE
  8
0
 10
-1.60747
 20
477.467
 11
-1.27733
 21
477.286
  0
LINE
  8
0
 10
-1.27733
 20
477.286
 11
-0.927048
 21
477.147
  0
LINE
  8
0
 10
-0.927048
 20
477.147
 11
-0.562134
 21
477.053
  0
LINE
  8
0
 10
-0.562134
 20
477.053
 11
-0.18837
 21
477.006
  0
LINE
  8
0
 10
-0.18837
 20
477.006
 11
0.18837
 21
477.006
  0
LINE
  8
0
 10
0.18837
 20
477.006
 11
0.562134
 21
477.053
  0
LINE
  8
0
 10
301.5
 20
482.592
 11
300
 21
482.592
  0
LINE
  8
0
 10
300
 20
482.592
 11
300
 21
477.408
  0
LINE
  8
0
 10
300
 20
477.408
 11
301.5
 21
477.408
  0
LINE
  8
0
 10
301.5
 20
477.408
 11
301.5
 21
482.592
  0
LINE
  8
0
 10
452.844
 20
480.95
 11
452.811
 21
480.987
  0
LINE
  8
0
 10
452.811
 20
480.987
 11
452.295
 21
481.484
  0
LINE
  8
0
 10
452.295
 20
481.484
 11
451.766
 21
481.925
  0
LINE
  8
0
 10
451.766
 20
481.925
 11
451.494
 21
482.117
  0
LINE
  8
0
 10
451.494
 20
482.117
 11
451.394
 21
482.117
  0
LINE
  8
0
 10
451.394
 20
482.117
 11
447.542
 21
479.393
  0
LINE
  8
0
 10
447.542
 20
479.393
 11
447.505
 21
479.296
  0
LINE
  8
0
 10
447.505
 20
479.296
 11
447.555
 21
479.106
  0
LINE
  8
0
 10
447.555
 20
479.106
 11
447.782
 21
478.464
  0
LINE
  8
0
 10
447.782
 20
478.464
 11
448.068
 21
477.812
  0
LINE
  8
0
 10
448.068
 20
477.812
 11
448.159
 21
477.637
  0
LINE
  8
0
 10
448.159
 20
477.637
 11
452.844
 21
480.95
  0
LINE
  8
0
 10
150.281
 20
478.527
 11
150.464
 21
478.573
  0
LINE
  8
0
 10
150.464
 20
478.573
 11
150.639
 21
478.643
  0
LINE
  8
0
 10
150.639
 20
478.643
 11
150.804
 21
478.734
  0
LINE
  8
0
 10
150.804
 20
478.734
 11
150.956
 21
478.844
  0
LINE
  8
0
 10
150.956
 20
478.844
 11
151.093
 21
478.973
  0
LINE
  8
0
 10
151.093
 20
478.973
 11
151.214
 21
479.118
  0
LINE
  8
0
 10
151.214
 20
479.118
 11
151.314
 21
479.277
  0
LINE
  8
0
 10
151.314
 20
479.277
 11
151.395
 21
479.448
  0
LINE
  8
0
 10
151.395
 20
479.448
 11
151.453
 21
479.627
  0
LINE
  8
0
 10
151.453
 20
479.627
 11
151.488
 21
479.812
  0
LINE
  8
0
 10
151.488
 20
479.812
 11
151.5
 21
480
  0
LINE
  8
0
 10
151.5
 20
480
 11
151.488
 21
480.188
  0
LINE
  8
0
 10
151.488
 20
480.188
 11
151.453
 21
480.373
  0
LINE
  8
0
 10
151.453
 20
480.373
 11
151.395
 21
480.552
  0
LINE
  8
0
 10
151.395
 20
480.552
 11
151.314
 21
480.723
  0
LINE
  8
0
 10
151.314
 20
480.723
 11
151.214
 21
480.882
  0
LINE
  8
0
 10
151.214
 20
480.882
 11
151.093
 21
481.027
  0
LINE
  8
0
 10
151.093
 20
481.027
 11
150.956
 21
481.156
  0
LINE
  8
0
 10
150.956
 20
481.156
 11
150.804
 21
481.266
  0
LINE
  8
0
 10
150.804
 20
481.266
 11
150.639
 21
481.357
  0
LINE
  8
0
 10
150.639
 20
481.357
 11
150.464
 21
481.427
  0
LINE
  8
0
 10
150.464
 20
481.427
 11
150.281
 21
481.473
  0
LINE
  8
0
 10
150.281
 20
481.473
 11
150.094
 21
481.497
  0
LINE
  8
0
 10
150.094
 20
481.497
 11
149.906
 21
481.497
  0
LINE
  8
0
 10
149.906
 20
481.497
 11
149.719
 21
481.473
  0
LINE
  8
0
 10
149.719
 20
481.473
 11
149.536
 21
481.427
  0
LINE
  8
0
 10
149.536
 20
481.427
 11
149.361
 21
481.357
  0
LINE
  8
0
 10
149.361
 20
481.357
 11
149.196
 21
481.266
  0
LINE
  8
0
 10
149.196
 20
481.266
 11
149.044
 21
481.156
  0
LINE
  8
0
 10
149.044
 20
481.156
 11
148.907
 21
481.027
  0
LINE
  8
0
 10
148.907
 20
481.027
 11
148.786
 21
480.882
  0
LINE
  8
0
 10
148.786
 20
480.882
 11
148.686
 21
480.723
  0
LINE
  8
0
 10
148.686
 20
480.723
 11
148.605
 21
480.552
  0
LINE
  8
0
 10
148.605
 20
480.552
 11
148.547
 21
480.373
  0
LINE
  8
0
 10
148.547
 20
480.373
 11
148.512
 21
480.188
  0
LINE
  8
0
 10
148.512
 20
480.188
 11
148.5
 21
480
  0
LINE
  8
0
 10
148.5
 20
480
 11
148.512
 21
479.812
  0
LINE
  8
0
 10
148.512
 20
479.812
 11
148.547
 21
479.627
  0
LINE
  8
0
 10
148.547
 20
479.627
 11
148.605
 21
479.448
  0
LINE
  8
0
 10
148.605
 20
479.448
 11
148.686
 21
479.277
  0
LINE
  8
0
 10
148.686
 20
479.277
 11
148.786
 21
479.118
  0
LINE
  8
0
 10
148.786
 20
479.118
 11
148.907
 21
478.973
  0
LINE
  8
0
 10
148.907
 20
478.973
 11
149.044
 21
478.844
  0
LINE
  8
0
 10
149.044
 20
478.844
 11
149.196
 21
478.734
  0
LINE
  8
0
 10
149.196
 20
478.734
 11
149.361
 21
478.643
  0
LINE
  8
0
 10
149.361
 20
478.643
 11
149.536
 21
478.573
  0
LINE
  8
0
 10
149.536
 20
478.573
 11
149.719
 21
478.527
  0
LINE
  8
0
 10
149.719
 20
478.527
 11
149.906
 21
478.503
  0
LINE
  8
0
 10
149.906
 20
478.503
 11
150.094
 21
478.503
  0
LINE
  8
0
 10
150.094
 20
478.503
 11
150.281
 21
478.527
  0
LINE
  8
0
 10
302.5
 20
422.748
 11
300
 21
422.748
  0
LINE
  8
0
 10
300
 20
422.748
 11
300
 21
417.252
  0
LINE
  8
0
 10
300
 20
417.252
 11
302.5
 21
417.252
  0
LINE
  8
0
 10
302.5
 20
417.252
 11
302.5
 21
422.748
  0
LINE
  8
0
 10
313.5
 20
422.592
 11
312
 21
422.592
  0
LINE
  8
0
 10
312
 20
422.592
 11
312
 21
417.408
  0
LINE
  8
0
 10
312
 20
417.408
 11
313.5
 21
417.408
  0
LINE
  8
0
 10
313.5
 20
417.408
 11
313.5
 21
422.592
  0
LINE
  8
0
 10
452.952
 20
415.147
 11
453.146
 21
415.192
  0
LINE
  8
0
 10
453.146
 20
415.192
 11
453.316
 21
415.277
  0
LINE
  8
0
 10
453.316
 20
415.277
 11
453.459
 21
415.401
  0
LINE
  8
0
 10
453.459
 20
415.401
 11
453.572
 21
415.562
  0
LINE
  8
0
 10
453.572
 20
415.562
 11
453.655
 21
415.757
  0
LINE
  8
0
 10
453.655
 20
415.757
 11
453.705
 21
415.983
  0
LINE
  8
0
 10
453.705
 20
415.983
 11
453.721
 21
416.237
  0
LINE
  8
0
 10
453.721
 20
416.237
 11
453.705
 21
416.515
  0
LINE
  8
0
 10
453.705
 20
416.515
 11
453.655
 21
416.812
  0
LINE
  8
0
 10
453.655
 20
416.812
 11
453.572
 21
417.124
  0
LINE
  8
0
 10
453.572
 20
417.124
 11
453.459
 21
417.445
  0
LINE
  8
0
 10
453.459
 20
417.445
 11
453.316
 21
417.771
  0
LINE
  8
0
 10
453.316
 20
417.771
 11
453.146
 21
418.096
  0
LINE
  8
0
 10
453.146
 20
418.096
 11
452.952
 21
418.416
  0
LINE
  8
0
 10
452.952
 20
418.416
 11
452.737
 21
418.725
  0
LINE
  8
0
 10
452.737
 20
418.725
 11
452.637
 21
418.866
  0
LINE
  8
0
 10
452.637
 20
418.866
 11
452.403
 21
419.159
  0
LINE
  8
0
 10
452.403
 20
419.159
 11
452.367
 21
419.199
  0
LINE
  8
0
 10
452.367
 20
419.199
 11
453.746
 21
420.174
  0
LINE
  8
0
 10
453.746
 20
420.174
 11
453.746
 21
420.176
  0
LINE
  8
0
 10
453.746
 20
420.176
 11
453.744
 21
420.179
  0
LINE
  8
0
 10
453.744
 20
420.179
 11
451.248
 21
421.943
  0
LINE
  8
0
 10
451.248
 20
421.943
 11
451.148
 21
421.943
  0
LINE
  8
0
 10
451.148
 20
421.943
 11
447.691
 21
419.499
  0
LINE
  8
0
 10
447.691
 20
419.499
 11
447.681
 21
419.421
  0
LINE
  8
0
 10
447.681
 20
419.421
 11
448.805
 21
416.68
  0
LINE
  8
0
 10
448.805
 20
416.68
 11
449.965
 21
417.501
  0
LINE
  8
0
 10
449.965
 20
417.501
 11
450.148
 21
417.2
  0
LINE
  8
0
 10
450.148
 20
417.2
 11
450.363
 21
416.891
  0
LINE
  8
0
 10
450.363
 20
416.891
 11
450.463
 21
416.75
  0
LINE
  8
0
 10
450.463
 20
416.75
 11
450.697
 21
416.457
  0
LINE
  8
0
 10
450.697
 20
416.457
 11
450.944
 21
416.183
  0
LINE
  8
0
 10
450.944
 20
416.183
 11
451.203
 21
415.935
  0
LINE
  8
0
 10
451.203
 20
415.935
 11
451.467
 21
415.714
  0
LINE
  8
0
 10
451.467
 20
415.714
 11
451.733
 21
415.526
  0
LINE
  8
0
 10
451.733
 20
415.526
 11
451.997
 21
415.372
  0
LINE
  8
0
 10
451.997
 20
415.372
 11
452.256
 21
415.256
  0
LINE
  8
0
 10
452.256
 20
415.256
 11
452.503
 21
415.179
  0
LINE
  8
0
 10
452.503
 20
415.179
 11
452.737
 21
415.142
  0
LINE
  8
0
 10
452.737
 20
415.142
 11
452.952
 21
415.147
  0
LINE
  8
0
 10
3.17349
 20
360
 11
1.58675
 21
362.748
  0
LINE
  8
0
 10
1.58675
 20
362.748
 11
-1.58675
 21
362.748
  0
LINE
  8
0
 10
-1.58675
 20
362.748
 11
-3.17349
 21
360
  0
LINE
  8
0
 10
-3.17349
 20
360
 11
-1.58675
 21
357.252
  0
LINE
  8
0
 10
-1.58675
 20
357.252
 11
1.58675
 21
357.252
  0
LINE
  8
0
 10
1.58675
 20
357.252
 11
3.17349
 21
360
  0
LINE
  8
0
 10
302.5
 20
362.748
 11
300
 21
362.748
  0
LINE
  8
0
 10
300
 20
362.748
 11
300
 21
357.252
  0
LINE
  8
0
 10
300
 20
357.252
 11
302.5
 21
357.252
  0
LINE
  8
0
 10
302.5
 20
357.252
 11
302.5
 21
362.748
  0
LINE
  8
0
 10
313.5
 20
362.592
 11
312
 21
362.592
  0
LINE
  8
0
 10
312
 20
362.592
 11
312
 21
357.408
  0
LINE
  8
0
 10
312
 20
357.408
 11
313.5
 21
357.408
  0
LINE
  8
0
 10
313.5
 20
357.408
 11
313.5
 21
362.592
  0
LINE
  8
0
 10
452.952
 20
355.147
 11
453.146
 21
355.192
  0
LINE
  8
0
 10
453.146
 20
355.192
 11
453.316
 21
355.277
  0
LINE
  8
0
 10
453.316
 20
355.277
 11
453.459
 21
355.401
  0
LINE
  8
0
 10
453.459
 20
355.401
 11
453.572
 21
355.562
  0
LINE
  8
0
 10
453.572
 20
355.562
 11
453.655
 21
355.757
  0
LINE
  8
0
 10
453.655
 20
355.757
 11
453.705
 21
355.983
  0
LINE
  8
0
 10
453.705
 20
355.983
 11
453.721
 21
356.237
  0
LINE
  8
0
 10
453.721
 20
356.237
 11
453.705
 21
356.515
  0
LINE
  8
0
 10
453.705
 20
356.515
 11
453.655
 21
356.812
  0
LINE
  8
0
 10
453.655
 20
356.812
 11
453.572
 21
357.124
  0
LINE
  8
0
 10
453.572
 20
357.124
 11
453.459
 21
357.445
  0
LINE
  8
0
 10
453.459
 20
357.445
 11
453.316
 21
357.771
  0
LINE
  8
0
 10
453.316
 20
357.771
 11
453.146
 21
358.096
  0
LINE
  8
0
 10
453.146
 20
358.096
 11
452.952
 21
358.416
  0
LINE
  8
0
 10
452.952
 20
358.416
 11
452.737
 21
358.725
  0
LINE
  8
0
 10
452.737
 20
358.725
 11
452.637
 21
358.866
  0
LINE
  8
0
 10
452.637
 20
358.866
 11
452.403
 21
359.159
  0
LINE
  8
0
 10
452.403
 20
359.159
 11
452.367
 21
359.199
  0
LINE
  8
0
 10
452.367
 20
359.199
 11
453.746
 21
360.174
  0
LINE
  8
0
 10
453.746
 20
360.174
 11
453.746
 21
360.176
  0
LINE
  8
0
 10
453.746
 20
360.176
 11
453.744
 21
360.179
  0
LINE
  8
0
 10
453.744
 20
360.179
 11
451.248
 21
361.943
  0
LINE
  8
0
 10
451.248
 20
361.943
 11
451.148
 21
361.943
  0
LINE
  8
0
 10
451.148
 20
361.943
 11
447.691
 21
359.499
  0
LINE
  8
0
 10
447.691
 20
359.499
 11
447.681
 21
359.421
  0
LINE
  8
0
 10
447.681
 20
359.421
 11
448.805
 21
356.68
  0
LINE
  8
0
 10
448.805
 20
356.68
 11
449.965
 21
357.501
  0
LINE
  8
0
 10
449.965
 20
357.501
 11
450.148
 21
357.2
  0
LINE
  8
0
 10
450.148
 20
357.2
 11
450.363
 21
356.891
  0
LINE
  8
0
 10
450.363
 20
356.891
 11
450.463
 21
356.75
  0
LINE
  8
0
 10
450.463
 20
356.75
 11
450.697
 21
356.457
  0
LINE
  8
0
 10
450.697
 20
356.457
 11
450.944
 21
356.183
  0
LINE
  8
0
 10
450.944
 20
356.183
 11
451.203
 21
355.935
  0
LINE
  8
0
 10
451.203
 20
355.935
 11
451.467
 21
355.714
  0
LINE
  8
0
 10
451.467
 20
355.714
 11
451.733
 21
355.526
  0
LINE
  8
0
 10
451.733
 20
355.526
 11
451.997
 21
355.372
  0
LINE
  8
0
 10
451.997
 20
355.372
 11
452.256
 21
355.256
  0
LINE
  8
0
 10
452.256
 20
355.256
 11
452.503
 21
355.179
  0
LINE
  8
0
 10
452.503
 20
355.179
 11
452.737
 21
355.142
  0
LINE
  8
0
 10
452.737
 20
355.142
 11
452.952
 21
355.147
  0
LINE
  8
0
 10
150.562
 20
297.053
 11
150.927
 21
297.147
  0
LINE
  8
0
 10
150.927
 20
297.147
 11
151.277
 21
297.286
  0
LINE
  8
0
 10
151.277
 20
297.286
 11
151.607
 21
297.467
  0
LINE
  8
0
 10
151.607
 20
297.467
 11
151.912
 21
297.688
  0
LINE
  8
0
 10
151.912
 20
297.688
 11
152.187
 21
297.946
  0
LINE
  8
0
 10
152.187
 20
297.946
 11
152.427
 21
298.237
  0
LINE
  8
0
 10
152.427
 20
298.237
 11
152.629
 21
298.555
  0
LINE
  8
0
 10
152.629
 20
298.555
 11
152.789
 21
298.896
  0
LINE
  8
0
 10
152.789
 20
298.896
 11
152.906
 21
299.254
  0
LINE
  8
0
 10
152.906
 20
299.254
 11
152.976
 21
299.624
  0
LINE
  8
0
 10
152.976
 20
299.624
 11
153
 21
300
  0
LINE
  8
0
 10
153
 20
300
 11
152.976
 21
300.376
  0
LINE
  8
0
 10
152.976
 20
300.376
 11
152.906
 21
300.746
  0
LINE
  8
0
 10
152.906
 20
300.746
 11
152.789
 21
301.104
  0
LINE
  8
0
 10
152.789
 20
301.104
 11
152.629
 21
301.445
  0
LINE
  8
0
 10
152.629
 20
301.445
 11
152.427
 21
301.763
  0
LINE
  8
0
 10
152.427
 20
301.763
 11
152.187
 21
302.054
  0
LINE
  8
0
 10
152.187
 20
302.054
 11
151.912
 21
302.312
  0
LINE
  8
0
 10
151.912
 20
302.312
 11
151.607
 21
302.533
  0
LINE
  8
0
 10
151.607
 20
302.533
 11
151.277
 21
302.714
  0
LINE
  8
0
 10
151.277
 20
302.714
 11
150.927
 21
302.853
  0
LINE
  8
0
 10
150.927
 20
302.853
 11
150.562
 21
302.947
  0
LINE
  8
0
 10
150.562
 20
302.947
 11
150.188
 21
302.994
  0
LINE
  8
0
 10
150.188
 20
302.994
 11
149.812
 21
302.994
  0
LINE
  8
0
 10
149.812
 20
302.994
 11
149.438
 21
302.947
  0
LINE
  8
0
 10
149.438
 20
302.947
 11
149.073
 21
302.853
  0
LINE
  8
0
 10
149.073
 20
302.853
 11
148.723
 21
302.714
  0
LINE
  8
0
 10
148.723
 20
302.714
 11
148.393
 21
302.533
  0
LINE
  8
0
 10
148.393
 20
302.533
 11
148.088
 21
302.312
  0
LINE
  8
0
 10
148.088
 20
302.312
 11
147.813
 21
302.054
  0
LINE
  8
0
 10
147.813
 20
302.054
 11
147.573
 21
301.763
  0
LINE
  8
0
 10
147.573
 20
301.763
 11
147.371
 21
301.445
  0
LINE
  8
0
 10
147.371
 20
301.445
 11
147.211
 21
301.104
  0
LINE
  8
0
 10
147.211
 20
301.104
 11
147.094
 21
300.746
  0
LINE
  8
0
 10
147.094
 20
300.746
 11
147.024
 21
300.376
  0
LINE
  8
0
 10
147.024
 20
300.376
 11
147
 21
300
  0
LINE
  8
0
 10
147
 20
300
 11
147.024
 21
299.624
  0
LINE
  8
0
 10
147.024
 20
299.624
 11
147.094
 21
299.254
  0
LINE
  8
0
 10
147.094
 20
299.254
 11
147.211
 21
298.896
  0
LINE
  8
0
 10
147.211
 20
298.896
 11
147.371
 21
298.555
  0
LINE
  8
0
 10
147.371
 20
298.555
 11
147.573
 21
298.237
  0
LINE
  8
0
 10
147.573
 20
298.237
 11
147.813
 21
297.946
  0
LINE
  8
0
 10
147.813
 20
297.946
 11
148.088
 21
297.688
  0
LINE
  8
0
 10
148.088
 20
297.688
 11
148.393
 21
297.467
  0
LINE
  8
0
 10
148.393
 20
297.467
 11
148.723
 21
297.286
  0
LINE
  8
0
 10
148.723
 20
297.286
 11
149.073
 21
297.147
  0
LINE
  8
0
 10
149.073
 20
297.147
 11
149.438
 21
297.053
  0
LINE
  8
0
 10
149.438
 20
297.053
 11
149.812
 21
297.006
  0
LINE
  8
0
 10
149.812
 20
297.006
 11
150.188
 21
297.006
  0
LINE
  8
0
 10
150.188
 20
297.006
 11
150.562
 21
297.053
  0
LINE
  8
0
 10
451.494
 20
302.117
 11
451.234
 21
302.301
  0
LINE
  8
0
 10
451.234
 20
302.301
 11
450.705
 21
302.608
  0
LINE
  8
0
 10
450.705
 20
302.608
 11
450.189
 21
302.841
  0
LINE
  8
0
 10
450.189
 20
302.841
 11
449.723
 21
302.986
  0
LINE
  8
0
 10
449.723
 20
302.986
 11
449.704
 21
302.98
  0
LINE
  8
0
 10
449.704
 20
302.98
 11
449.501
 21
302.9
  0
LINE
  8
0
 10
449.501
 20
302.9
 11
447.433
 21
301.438
  0
LINE
  8
0
 10
447.433
 20
301.438
 11
447.333
 21
301.327
  0
LINE
  8
0
 10
447.333
 20
301.327
 11
447.283
 21
301.26
  0
LINE
  8
0
 10
447.283
 20
301.26
 11
447.257
 21
300.879
  0
LINE
  8
0
 10
447.257
 20
300.879
 11
447.291
 21
300.323
  0
LINE
  8
0
 10
447.291
 20
300.323
 11
447.391
 21
299.729
  0
LINE
  8
0
 10
447.391
 20
299.729
 11
447.505
 21
299.296
  0
LINE
  8
0
 10
447.505
 20
299.296
 11
451.494
 21
302.117
  0
LINE
  8
0
 10
289
 20
302.748
 11
286
 21
302.748
  0
LINE
  8
0
 10
286
 20
302.748
 11
286
 21
297.252
  0
LINE
  8
0
 10
286
 20
297.252
 11
289
 21
297.252
  0
LINE
  8
0
 10
289
 20
297.252
 11
289
 21
302.748
  0
LINE
  8
0
 10
300
 20
302.592
 11
298.5
 21
302.592
  0
LINE
  8
0
 10
298.5
 20
302.592
 11
298.5
 21
297.408
  0
LINE
  8
0
 10
298.5
 20
297.408
 11
300
 21
297.408
  0
LINE
  8
0
 10
300
 20
297.408
 11
300
 21
302.592
  0
LINE
  8
0
 10
313.5
 20
242.592
 11
312
 21
242.592
  0
LINE
  8
0
 10
312
 20
242.592
 11
312
 21
237.408
  0
LINE
  8
0
 10
312
 20
237.408
 11
313.5
 21
237.408
  0
LINE
  8
0
 10
313.5
 20
237.408
 11
313.5
 21
242.592
  0
LINE
  8
0
 10
0.281067
 20
238.527
 11
0.463516
 21
238.573
  0
LINE
  8
0
 10
0.463516
 20
238.573
 11
0.638657
 21
238.643
  0
LINE
  8
0
 10
0.638657
 20
238.643
 11
0.803726
 21
238.734
  0
LINE
  8
0
 10
0.803726
 20
238.734
 11
0.956131
 21
238.844
  0
LINE
  8
0
 10
0.956131
 20
238.844
 11
1.09344
 21
238.973
  0
LINE
  8
0
 10
1.09344
 20
238.973
 11
1.21352
 21
239.118
  0
LINE
  8
0
 10
1.21352
 20
239.118
 11
1.31445
 21
239.277
  0
LINE
  8
0
 10
1.31445
 20
239.277
 11
1.39465
 21
239.448
  0
LINE
  8
0
 10
1.39465
 20
239.448
 11
1.45287
 21
239.627
  0
LINE
  8
0
 10
1.45287
 20
239.627
 11
1.48816
 21
239.812
  0
LINE
  8
0
 10
1.48816
 20
239.812
 11
1.5
 21
240
  0
LINE
  8
0
 10
1.5
 20
240
 11
1.48816
 21
240.188
  0
LINE
  8
0
 10
1.48816
 20
240.188
 11
1.45287
 21
240.373
  0
LINE
  8
0
 10
1.45287
 20
240.373
 11
1.39465
 21
240.552
  0
LINE
  8
0
 10
1.39465
 20
240.552
 11
1.31445
 21
240.723
  0
LINE
  8
0
 10
1.31445
 20
240.723
 11
1.21352
 21
240.882
  0
LINE
  8
0
 10
1.21352
 20
240.882
 11
1.09344
 21
241.027
  0
LINE
  8
0
 10
1.09344
 20
241.027
 11
0.956131
 21
241.156
  0
LINE
  8
0
 10
0.956131
 20
241.156
 11
0.803726
 21
241.266
  0
LINE
  8
0
 10
0.803726
 20
241.266
 11
0.638657
 21
241.357
  0
LINE
  8
0
 10
0.638657
 20
241.357
 11
0.463516
 21
241.427
  0
LINE
  8
0
 10
0.463516
 20
241.427
 11
0.281067
 21
241.473
  0
LINE
  8
0
 10
0.281067
 20
241.473
 11
0.0941772
 21
241.497
  0
LINE
  8
0
 10
0.0941772
 20
241.497
 11
-0.0941772
 21
241.497
  0
LINE
  8
0
 10
-0.0941772
 20
241.497
 11
-0.281067
 21
241.473
  0
LINE
  8
0
 10
-0.281067
 20
241.473
 11
-0.463516
 21
241.427
  0
LINE
  8
0
 10
-0.463516
 20
241.427
 11
-0.638657
 21
241.357
  0
LINE
  8
0
 10
-0.638657
 20
241.357
 11
-0.803726
 21
241.266
  0
LINE
  8
0
 10
-0.803726
 20
241.266
 11
-0.956131
 21
241.156
  0
LINE
  8
0
 10
-0.956131
 20
241.156
 11
-1.09344
 21
241.027
  0
LINE
  8
0
 10
-1.09344
 20
241.027
 11
-1.21352
 21
240.882
  0
LINE
  8
0
 10
-1.21352
 20
240.882
 11
-1.31445
 21
240.723
  0
LINE
  8
0
 10
-1.31445
 20
240.723
 11
-1.39465
 21
240.552
  0
LINE
  8
0
 10
-1.39465
 20
240.552
 11
-1.45287
 21
240.373
  0
LINE
  8
0
 10
-1.45287
 20
240.373
 11
-1.48816
 21
240.188
  0
LINE
  8
0
 10
-1.48816
 20
240.188
 11
-1.5
 21
240
  0
LINE
  8
0
 10
-1.5
 20
240
 11
-1.48816
 21
239.812
  0
LINE
  8
0
 10
-1.48816
 20
239.812
 11
-1.45287
 21
239.627
  0
LINE
  8
0
 10
-1.45287
 20
239.627
 11
-1.39465
 21
239.448
  0
LINE
  8
0
 10
-1.39465
 20
239.448
 11
-1.31445
 21
239.277
  0
LINE
  8
0
 10
-1.31445
 20
239.277
 11
-1.21352
 21
239.118
  0
LINE
  8
0
 10
-1.21352
 20
239.118
 11
-1.09344
 21
238.973
  0
LINE
  8
0
 10
-1.09344
 20
238.973
 11
-0.956131
 21
238.844
  0
LINE
  8
0
 10
-0.956131
 20
238.844
 11
-0.803726
 21
238.734
  0
LINE
  8
0
 10
-0.803726
 20
238.734
 11
-0.638657
 21
238.643
  0
LINE
  8
0
 10
-0.638657
 20
238.643
 11
-0.463516
 21
238.573
  0
LINE
  8
0
 10
-0.463516
 20
238.573
 11
-0.281067
 21
238.527
  0
LINE
  8
0
 10
-0.281067
 20
238.527
 11
-0.0941772
 21
238.503
  0
LINE
  8
0
 10
-0.0941772
 20
238.503
 11
0.0941772
 21
238.503
  0
LINE
  8
0
 10
0.0941772
 20
238.503
 11
0.281067
 21
238.527
  0
LINE
  8
0
 10
452.952
 20
235.147
 11
453.146
 21
235.192
  0
LINE
  8
0
 10
453.146
 20
235.192
 11
453.316
 21
235.277
  0
LINE
  8
0
 10
453.316
 20
235.277
 11
453.459
 21
235.401
  0
LINE
  8
0
 10
453.459
 20
235.401
 11
453.572
 21
235.562
  0
LINE
  8
0
 10
453.572
 20
235.562
 11
453.655
 21
235.757
  0
LINE
  8
0
 10
453.655
 20
235.757
 11
453.705
 21
235.983
  0
LINE
  8
0
 10
453.705
 20
235.983
 11
453.721
 21
236.237
  0
LINE
  8
0
 10
453.721
 20
236.237
 11
453.705
 21
236.515
  0
LINE
  8
0
 10
453.705
 20
236.515
 11
453.655
 21
236.812
  0
LINE
  8
0
 10
453.655
 20
236.812
 11
453.572
 21
237.124
  0
LINE
  8
0
 10
453.572
 20
237.124
 11
453.459
 21
237.445
  0
LINE
  8
0
 10
453.459
 20
237.445
 11
453.316
 21
237.771
  0
LINE
  8
0
 10
453.316
 20
237.771
 11
453.146
 21
238.096
  0
LINE
  8
0
 10
453.146
 20
238.096
 11
452.952
 21
238.416
  0
LINE
  8
0
 10
452.952
 20
238.416
 11
452.737
 21
238.725
  0
LINE
  8
0
 10
452.737
 20
238.725
 11
452.637
 21
238.866
  0
LINE
  8
0
 10
452.637
 20
238.866
 11
452.403
 21
239.159
  0
LINE
  8
0
 10
452.403
 20
239.159
 11
452.156
 21
239.433
  0
LINE
  8
0
 10
452.156
 20
239.433
 11
451.897
 21
239.681
  0
LINE
  8
0
 10
451.897
 20
239.681
 11
451.633
 21
239.902
  0
LINE
  8
0
 10
451.633
 20
239.902
 11
451.367
 21
240.09
  0
LINE
  8
0
 10
451.367
 20
240.09
 11
451.103
 21
240.243
  0
LINE
  8
0
 10
451.103
 20
240.243
 11
450.844
 21
240.36
  0
LINE
  8
0
 10
450.844
 20
240.36
 11
450.597
 21
240.437
  0
LINE
  8
0
 10
450.597
 20
240.437
 11
450.363
 21
240.474
  0
LINE
  8
0
 10
450.363
 20
240.474
 11
450.148
 21
240.469
  0
LINE
  8
0
 10
450.148
 20
240.469
 11
449.954
 21
240.424
  0
LINE
  8
0
 10
449.954
 20
240.424
 11
449.784
 21
240.339
  0
LINE
  8
0
 10
449.784
 20
240.339
 11
449.641
 21
240.215
  0
LINE
  8
0
 10
449.641
 20
240.215
 11
449.528
 21
240.054
  0
LINE
  8
0
 10
449.528
 20
240.054
 11
449.445
 21
239.859
  0
LINE
  8
0
 10
449.445
 20
239.859
 11
449.395
 21
239.633
  0
LINE
  8
0
 10
449.395
 20
239.633
 11
449.379
 21
239.379
  0
LINE
  8
0
 10
449.379
 20
239.379
 11
449.395
 21
239.101
  0
LINE
  8
0
 10
449.395
 20
239.101
 11
449.445
 21
238.804
  0
LINE
  8
0
 10
449.445
 20
238.804
 11
449.528
 21
238.492
  0
LINE
  8
0
 10
449.528
 20
238.492
 11
449.641
 21
238.171
  0
LINE
  8
0
 10
449.641
 20
238.171
 11
449.784
 21
237.845
  0
LINE
  8
0
 10
449.784
 20
237.845
 11
449.954
 21
237.52
  0
LINE
  8
0
 10
449.954
 20
237.52
 11
450.148
 21
237.2
  0
LINE
  8
0
 10
450.148
 20
237.2
 11
450.363
 21
236.891
  0
LINE
  8
0
 10
450.363
 20
236.891
 11
450.463
 21
236.75
  0
LINE
  8
0
 10
450.463
 20
236.75
 11
450.697
 21
236.456
  0
LINE
  8
0
 10
450.697
 20
236.456
 11
450.944
 21
236.183
  0
LINE
  8
0
 10
450.944
 20
236.183
 11
451.203
 21
235.935
  0
LINE
  8
0
 10
451.203
 20
235.935
 11
451.467
 21
235.714
  0
LINE
  8
0
 10
451.467
 20
235.714
 11
451.733
 21
235.526
  0
LINE
  8
0
 10
451.733
 20
235.526
 11
451.997
 21
235.372
  0
LINE
  8
0
 10
451.997
 20
235.372
 11
452.256
 21
235.256
  0
LINE
  8
0
 10
452.256
 20
235.256
 11
452.503
 21
235.179
  0
LINE
  8
0
 10
452.503
 20
235.179
 11
452.737
 21
235.142
  0
LINE
  8
0
 10
452.737
 20
235.142
 11
452.952
 21
235.147
  0
LINE
  8
0
 10
150.562
 20
177.053
 11
150.927
 21
177.147
  0
LINE
  8
0
 10
150.927
 20
177.147
 11
151.277
 21
177.286
  0
LINE
  8
0
 10
151.277
 20
177.286
 11
151.607
 21
177.467
  0
LINE
  8
0
 10
151.607
 20
177.467
 11
151.912
 21
177.688
  0
LINE
  8
0
 10
151.912
 20
177.688
 11
152.187
 21
177.946
  0
LINE
  8
0
 10
152.187
 20
177.946
 11
152.427
 21
178.237
  0
LINE
  8
0
 10
152.427
 20
178.237
 11
152.629
 21
178.555
  0
LINE
  8
0
 10
152.629
 20
178.555
 11
152.789
 21
178.896
  0
LINE
  8
0
 10
152.789
 20
178.896
 11
152.906
 21
179.254
  0
LINE
  8
0
 10
152.906
 20
179.254
 11
152.976
 21
179.624
  0
LINE
  8
0
 10
152.976
 20
179.624
 11
153
 21
180
  0
LINE
  8
0
 10
153
 20
180
 11
152.976
 21
180.376
  0
LINE
  8
0
 10
152.976
 20
180.376
 11
152.906
 21
180.746
  0
LINE
  8
0
 10
152.906
 20
180.746
 11
152.789
 21
181.104
  0
LINE
  8
0
 10
152.789
 20
181.104
 11
152.629
 21
181.445
  0
LINE
  8
0
 10
152.629
 20
181.445
 11
152.427
 21
181.763
  0
LINE
  8
0
 10
152.427
 20
181.763
 11
152.187
 21
182.054
  0
LINE
  8
0
 10
152.187
 20
182.054
 11
151.912
 21
182.312
  0
LINE
  8
0
 10
151.912
 20
182.312
 11
151.607
 21
182.533
  0
LINE
  8
0
 10
151.607
 20
182.533
 11
151.277
 21
182.714
  0
LINE
  8
0
 10
151.277
 20
182.714
 11
150.927
 21
182.853
  0
LINE
  8
0
 10
150.927
 20
182.853
 11
150.562
 21
182.947
  0
LINE
  8
0
 10
150.562
 20
182.947
 11
150.188
 21
182.994
  0
LINE
  8
0
 10
150.188
 20
182.994
 11
149.812
 21
182.994
  0
LINE
  8
0
 10
149.812
 20
182.994
 11
149.438
 21
182.947
  0
LINE
  8
0
 10
149.438
 20
182.947
 11
149.073
 21
182.853
  0
LINE
  8
0
 10
149.073
 20
182.853
 11
148.723
 21
182.714
  0
LINE
  8
0
 10
148.723
 20
182.714
 11
148.393
 21
182.533
  0
LINE
  8
0
 10
148.393
 20
182.533
 11
148.088
 21
182.312
  0
LINE
  8
0
 10
148.088
 20
182.312
 11
147.813
 21
182.054
  0
LINE
  8
0
 10
147.813
 20
182.054
 11
147.573
 21
181.763
  0
LINE
  8
0
 10
147.573
 20
181.763
 11
147.371
 21
181.445
  0
LINE
  8
0
 10
147.371
 20
181.445
 11
147.211
 21
181.104
  0
LINE
  8
0
 10
147.211
 20
181.104
 11
147.094
 21
180.746
  0
LINE
  8
0
 10
147.094
 20
180.746
 11
147.024
 21
180.376
  0
LINE
  8
0
 10
147.024
 20
180.376
 11
147
 21
180
  0
LINE
  8
0
 10
147
 20
180
 11
147.024
 21
179.624
  0
LINE
  8
0
 10
147.024
 20
179.624
 11
147.094
 21
179.254
  0
LINE
  8
0
 10
147.094
 20
179.254
 11
147.211
 21
178.896
  0
LINE
  8
0
 10
147.211
 20
178.896
 11
147.371
 21
178.555
  0
LINE
  8
0
 10
147.371
 20
178.555
 11
147.573
 21
178.237
  0
LINE
  8
0
 10
147.573
 20
178.237
 11
147.813
 21
177.946
  0
LINE
  8
0
 10
147.813
 20
177.946
 11
148.088
 21
177.688
  0
LINE
  8
0
 10
148.088
 20
177.688
 11
148.393
 21
177.467
  0
LINE
  8
0
 10
148.393
 20
177.467
 11
148.723
 21
177.286
  0
LINE
  8
0
 10
148.723
 20
177.286
 11
149.073
 21
177.147
  0
LINE
  8
0
 10
149.073
 20
177.147
 11
149.438
 21
177.053
  0
LINE
  8
0
 10
149.438
 20
177.053
 11
149.812
 21
177.006
  0
LINE
  8
0
 10
149.812
 20
177.006
 11
150.188
 21
177.006
  0
LINE
  8
0
 10
150.188
 20
177.006
 11
150.562
 21
177.053
  0
LINE
  8
0
 10
451.494
 20
182.117
 11
451.234
 21
182.301
  0
LINE
  8
0
 10
451.234
 20
182.301
 11
450.705
 21
182.608
  0
LINE
  8
0
 10
450.705
 20
182.608
 11
450.189
 21
182.841
  0
LINE
  8
0
 10
450.189
 20
182.841
 11
449.723
 21
182.986
  0
LINE
  8
0
 10
449.723
 20
182.986
 11
449.704
 21
182.98
  0
LINE
  8
0
 10
449.704
 20
182.98
 11
449.501
 21
182.9
  0
LINE
  8
0
 10
449.501
 20
182.9
 11
447.433
 21
181.438
  0
LINE
  8
0
 10
447.433
 20
181.438
 11
447.333
 21
181.327
  0
LINE
  8
0
 10
447.333
 20
181.327
 11
447.283
 21
181.26
  0
LINE
  8
0
 10
447.283
 20
181.26
 11
447.257
 21
180.879
  0
LINE
  8
0
 10
447.257
 20
180.879
 11
447.291
 21
180.323
  0
LINE
  8
0
 10
447.291
 20
180.323
 11
447.391
 21
179.729
  0
LINE
  8
0
 10
447.391
 20
179.729
 11
447.505
 21
179.296
  0
LINE
  8
0
 10
447.505
 20
179.296
 11
451.494
 21
182.117
  0
LINE
  8
0
 10
300
 20
182.592
 11
298.5
 21
182.592
  0
LINE
  8
0
 10
298.5
 20
182.592
 11
298.5
 21
177.408
  0
LINE
  8
0
 10
298.5
 20
177.408
 11
300
 21
177.408
  0
LINE
  8
0
 10
300
 20
177.408
 11
300
 21
182.592
  0
LINE
  8
0
 10
0.562134
 20
117.053
 11
0.927048
 21
117.147
  0
LINE
  8
0
 10
0.927048
 20
117.147
 11
1.27733
 21
117.286
  0
LINE
  8
0
 10
1.27733
 20
117.286
 11
1.60747
 21
117.467
  0
LINE
  8
0
 10
1.60747
 20
117.467
 11
1.91226
 21
117.688
  0
LINE
  8
0
 10
1.91226
 20
117.688
 11
2.1869
 21
117.946
  0
LINE
  8
0
 10
2.1869
 20
117.946
 11
2.42705
 21
118.237
  0
LINE
  8
0
 10
2.42705
 20
118.237
 11
2.62891
 21
118.555
  0
LINE
  8
0
 10
2.62891
 20
118.555
 11
2.78932
 21
118.896
  0
LINE
  8
0
 10
2.78932
 20
118.896
 11
2.90575
 21
119.254
  0
LINE
  8
0
 10
2.90575
 20
119.254
 11
2.97633
 21
119.624
  0
LINE
  8
0
 10
2.97633
 20
119.624
 11
3
 21
120
  0
LINE
  8
0
 10
3
 20
120
 11
2.97633
 21
120.376
  0
LINE
  8
0
 10
2.97633
 20
120.376
 11
2.90575
 21
120.746
  0
LINE
  8
0
 10
2.90575
 20
120.746
 11
2.78932
 21
121.104
  0
LINE
  8
0
 10
2.78932
 20
121.104
 11
2.62891
 21
121.445
  0
LINE
  8
0
 10
2.62891
 20
121.445
 11
2.42705
 21
121.763
  0
LINE
  8
0
 10
2.42705
 20
121.763
 11
2.1869
 21
122.054
  0
LINE
  8
0
 10
2.1869
 20
122.054
 11
1.91226
 21
122.312
  0
LINE
  8
0
 10
1.91226
 20
122.312
 11
1.60747
 21
122.533
  0
LINE
  8
0
 10
1.60747
 20
122.533
 11
1.27733
 21
122.714
  0
LINE
  8
0
 10
1.27733
 20
122.714
 11
0.927048
 21
122.853
  0
LINE
  8
0
 10
0.927048
 20
122.853
 11
0.562134
 21
122.947
  0
LINE
  8
0
 10
0.562134
 20
122.947
 11
0.18837
 21
122.994
  0
LINE
  8
0
 10
0.18837
 20
122.994
 11
-0.18837
 21
122.994
  0
LINE
  8
0
 10
-0.18837
 20
122.994
 11
-0.562134
 21
122.947
  0
LINE
  8
0
 10
-0.562134
 20
122.947
 11
-0.927048
 21
122.853
  0
LINE
  8
0
 10
-0.927048
 20
122.853
 11
-1.27733
 21
122.714
  0
LINE
  8
0
 10
-1.27733
 20
122.714
 11
-1.60747
 21
122.533
  0
LINE
  8
0
 10
-1.60747
 20
122.533
 11
-1.91226
 21
122.312
  0
LINE
  8
0
 10
-1.91226
 20
122.312
 11
-2.1869
 21
122.054
  0
LINE
  8
0
 10
-2.1869
 20
122.054
 11
-2.42705
 21
121.763
  0
LINE
  8
0
 10
-2.42705
 20
121.763
 11
-2.62891
 21
121.445
  0
LINE
  8
0
 10
-2.62891
 20
121.445
 11
-2.78932
 21
121.104
  0
LINE
  8
0
 10
-2.78932
 20
121.104
 11
-2.90575
 21
120.746
  0
LINE
  8
0
 10
-2.90575
 20
120.746
 11
-2.97633
 21
120.376
  0
LINE
  8
0
 10
-2.97633
 20
120.376
 11
-3
 21
120
  0
LINE
  8
0
 10
-3
 20
120
 11
-2.97633
 21
119.624
  0
LINE
  8
0
 10
-2.97633
 20
119.624
 11
-2.90575
 21
119.254
  0
LINE
  8
0
 10
-2.90575
 20
119.254
 11
-2.78932
 21
118.896
  0
LINE
  8
0
 10
-2.78932
 20
118.896
 11
-2.62891
 21
118.555
  0
LINE
  8
0
 10
-2.62891
 20
118.555
 11
-2.42705
 21
118.237
  0
LINE
  8
0
 10
-2.42705
 20
118.237
 11
-2.1869
 21
117.946
  0
LINE
  8
0
 10
-2.1869
 20
117.946
 11
-1.91226
 21
117.688
  0
LINE
  8
0
 10
-1.91226
 20
117.688
 11
-1.60747
 21
117.467
  0
LINE
  8
0
 10
-1.60747
 20
117.467
 11
-1.27733
 21
117.286
  0
LINE
  8
0
 10
-1.27733
 20
117.286
 11
-0.927048
 21
117.147
  0
LINE
  8
0
 10
-0.927048
 20
117.147
 11
-0.562134
 21
117.053
  0
LINE
  8
0
 10
-0.562134
 20
117.053
 11
-0.18837
 21
117.006
  0
LINE
  8
0
 10
-0.18837
 20
117.006
 11
0.18837
 21
117.006
  0
LINE
  8
0
 10
0.18837
 20
117.006
 11
0.562134
 21
117.053
  0
LINE
  8
0
 10
290.5
 20
122.748
 11
288
 21
122.748
  0
LINE
  8
0
 10
288
 20
122.748
 11
288
 21
117.252
  0
LINE
  8
0
 10
288
 20
117.252
 11
290.5
 21
117.252
  0
LINE
  8
0
 10
290.5
 20
117.252
 11
290.5
 21
122.748
  0
LINE
  8
0
 10
301.5
 20
122.592
 11
300
 21
122.592
  0
LINE
  8
0
 10
300
 20
122.592
 11
300
 21
117.408
  0
LINE
  8
0
 10
300
 20
117.408
 11
301.5
 21
117.408
  0
LINE
  8
0
 10
301.5
 20
117.408
 11
301.5
 21
122.592
  0
LINE
  8
0
 10
452.844
 20
120.95
 11
452.811
 21
120.987
  0
LINE
  8
0
 10
452.811
 20
120.987
 11
452.295
 21
121.484
  0
LINE
  8
0
 10
452.295
 20
121.484
 11
451.766
 21
121.925
  0
LINE
  8
0
 10
451.766
 20
121.925
 11
451.494
 21
122.117
  0
LINE
  8
0
 10
451.494
 20
122.117
 11
451.394
 21
122.117
  0
LINE
  8
0
 10
451.394
 20
122.117
 11
447.542
 21
119.393
  0
LINE
  8
0
 10
447.542
 20
119.393
 11
447.505
 21
119.296
  0
LINE
  8
0
 10
447.505
 20
119.296
 11
447.555
 21
119.106
  0
LINE
  8
0
 10
447.555
 20
119.106
 11
447.782
 21
118.464
  0
LINE
  8
0
 10
447.782
 20
118.464
 11
448.068
 21
117.812
  0
LINE
  8
0
 10
448.068
 20
117.812
 11
448.159
 21
117.637
  0
LINE
  8
0
 10
448.159
 20
117.637
 11
452.844
 21
120.95
  0
LINE
  8
0
 10
150.281
 20
118.527
 11
150.464
 21
118.573
  0
LINE
  8
0
 10
150.464
 20
118.573
 11
150.639
 21
118.643
  0
LINE
  8
0
 10
150.639
 20
118.643
 11
150.804
 21
118.734
  0
LINE
  8
0
 10
150.804
 20
118.734
 11
150.956
 21
118.844
  0
LINE
  8
0
 10
150.956
 20
118.844
 11
151.093
 21
118.973
  0
LINE
  8
0
 10
151.093
 20
118.973
 11
151.214
 21
119.118
  0
LINE
  8
0
 10
151.214
 20
119.118
 11
151.314
 21
119.277
  0
LINE
  8
0
 10
151.314
 20
119.277
 11
151.395
 21
119.448
  0
LINE
  8
0
 10
151.395
 20
119.448
 11
151.453
 21
119.627
  0
LINE
  8
0
 10
151.453
 20
119.627
 11
151.488
 21
119.812
  0
LINE
  8
0
 10
151.488
 20
119.812
 11
151.5
 21
120
  0
LINE
  8
0
 10
151.5
 20
120
 11
151.488
 21
120.188
  0
LINE
  8
0
 10
151.488
 20
120.188
 11
151.453
 21
120.373
  0
LINE
  8
0
 10
151.453
 20
120.373
 11
151.395
 21
120.552
  0
LINE
  8
0
 10
151.395
 20
120.552
 11
151.314
 21
120.723
  0
LINE
  8
0
 10
151.314
 20
120.723
 11
151.214
 21
120.882
  0
LINE
  8
0
 10
151.214
 20
120.882
 11
151.093
 21
121.027
  0
LINE
  8
0
 10
151.093
 20
121.027
 11
150.956
 21
121.156
  0
LINE
  8
0
 10
150.956
 20
121.156
 11
150.804
 21
121.266
  0
LINE
  8
0
 10
150.804
 20
121.266
 11
150.639
 21
121.357
  0
LINE
  8
0
 10
150.639
 20
121.357
 11
150.464
 21
121.427
  0
LINE
  8
0
 10
150.464
 20
121.427
 11
150.281
 21
121.473
  0
LINE
  8
0
 10
150.281
 20
121.473
 11
150.094
 21
121.497
  0
LINE
  8
0
 10
150.094
 20
121.497
 11
149.906
 21
121.497
  0
LINE
  8
0
 10
149.906
 20
121.497
 11
149.719
 21
121.473
  0
LINE
  8
0
 10
149.719
 20
121.473
 11
149.536
 21
121.427
  0
LINE
  8
0
 10
149.536
 20
121.427
 11
149.361
 21
121.357
  0
LINE
  8
0
 10
149.361
 20
121.357
 11
149.196
 21
121.266
  0
LINE
  8
0
 10
149.196
 20
121.266
 11
149.044
 21
121.156
  0
LINE
  8
0
 10
149.044
 20
121.156
 11
148.907
 21
121.027
  0
LINE
  8
0
 10
148.907
 20
121.027
 11
148.786
 21
120.882
  0
LINE
  8
0
 10
148.786
 20
120.882
 11
148.686
 21
120.723
  0
LINE
  8
0
 10
148.686
 20
120.723
 11
148.605
 21
120.552
  0
LINE
  8
0
 10
148.605
 20
120.552
 11
148.547
 21
120.373
  0
LINE
  8
0
 10
148.547
 20
120.373
 11
148.512
 21
120.188
  0
LINE
  8
0
 10
148.512
 20
120.188
 11
148.5
 21
120
  0
LINE
  8
0
 10
148.5
 20
120
 11
148.512
 21
119.812
  0
LINE
  8
0
 10
148.512
 20
119.812
 11
148.547
 21
119.627
  0
LINE
  8
0
 10
148.547
 20
119.627
 11
148.605
 21
119.448
  0
LINE
  8
0
 10
148.605
 20
119.448
 11
148.686
 21
119.277
  0
LINE
  8
0
 10
148.686
 20
119.277
 11
148.786
 21
119.118
  0
LINE
  8
0
 10
148.786
 20
119.118
 11
148.907
 21
118.973
  0
LINE
  8
0
 10
148.907
 20
118.973
 11
149.044
 21
118.844
  0
LINE
  8
0
 10
149.044
 20
118.844
 11
149.196
 21
118.734
  0
LINE
  8
0
 10
149.196
 20
118.734
 11
149.361
 21
118.643
  0
LINE
  8
0
 10
149.361
 20
118.643
 11
149.536
 21
118.573
  0
LINE
  8
0
 10
149.536
 20
118.573
 11
149.719
 21
118.527
  0
LINE
  8
0
 10
149.719
 20
118.527
 11
149.906
 21
118.503
  0
LINE
  8
0
 10
149.906
 20
118.503
 11
150.094
 21
118.503
  0
LINE
  8
0
 10
150.094
 20
118.503
 11
150.281
 21
118.527
  0
LINE
  8
0
 10
0.562134
 20
57.0531
 11
0.927048
 21
57.1468
  0
LINE
  8
0
 10
0.927048
 20
57.1468
 11
1.27733
 21
57.2855
  0
LINE
  8
0
 10
1.27733
 20
57.2855
 11
1.60747
 21
57.467
  0
LINE
  8
0
 10
1.60747
 20
57.467
 11
1.91226
 21
57.6885
  0
LINE
  8
0
 10
1.91226
 20
57.6885
 11
2.1869
 21
57.9464
  0
LINE
  8
0
 10
2.1869
 20
57.9464
 11
2.42705
 21
58.2366
  0
LINE
  8
0
 10
2.42705
 20
58.2366
 11
2.62891
 21
58.5547
  0
LINE
  8
0
 10
2.62891
 20
58.5547
 11
2.78932
 21
58.8956
  0
LINE
  8
0
 10
2.78932
 20
58.8956
 11
2.90575
 21
59.2539
  0
LINE
  8
0
 10
2.90575
 20
59.2539
 11
2.97633
 21
59.624
  0
LINE
  8
0
 10
2.97633
 20
59.624
 11
3
 21
60
  0
LINE
  8
0
 10
3
 20
60
 11
2.97633
 21
60.376
  0
LINE
  8
0
 10
2.97633
 20
60.376
 11
2.90575
 21
60.7461
  0
LINE
  8
0
 10
2.90575
 20
60.7461
 11
2.78932
 21
61.1044
  0
LINE
  8
0
 10
2.78932
 20
61.1044
 11
2.62891
 21
61.4453
  0
LINE
  8
0
 10
2.62891
 20
61.4453
 11
2.42705
 21
61.7634
  0
LINE
  8
0
 10
2.42705
 20
61.7634
 11
2.1869
 21
62.0536
  0
LINE
  8
0
 10
2.1869
 20
62.0536
 11
1.91226
 21
62.3115
  0
LINE
  8
0
 10
1.91226
 20
62.3115
 11
1.60747
 21
62.533
  0
LINE
  8
0
 10
1.60747
 20
62.533
 11
1.27733
 21
62.7145
  0
LINE
  8
0
 10
1.27733
 20
62.7145
 11
0.927048
 21
62.8532
  0
LINE
  8
0
 10
0.927048
 20
62.8532
 11
0.562134
 21
62.9469
  0
LINE
  8
0
 10
0.562134
 20
62.9469
 11
0.18837
 21
62.9941
  0
LINE
  8
0
 10
0.18837
 20
62.9941
 11
-0.18837
 21
62.9941
  0
LINE
  8
0
 10
-0.18837
 20
62.9941
 11
-0.562134
 21
62.9469
  0
LINE
  8
0
 10
-0.562134
 20
62.9469
 11
-0.927048
 21
62.8532
  0
LINE
  8
0
 10
-0.927048
 20
62.8532
 11
-1.27733
 21
62.7145
  0
LINE
  8
0
 10
-1.27733
 20
62.7145
 11
-1.60747
 21
62.533
  0
LINE
  8
0
 10
-1.60747
 20
62.533
 11
-1.91226
 21
62.3115
  0
LINE
  8
0
 10
-1.91226
 20
62.3115
 11
-2.1869
 21
62.0536
  0
LINE
  8
0
 10
-2.1869
 20
62.0536
 11
-2.42705
 21
61.7634
  0
LINE
  8
0
 10
-2.42705
 20
61.7634
 11
-2.62891
 21
61.4453
  0
LINE
  8
0
 10
-2.62891
 20
61.4453
 11
-2.78932
 21
61.1044
  0
LINE
  8
0
 10
-2.78932
 20
61.1044
 11
-2.90575
 21
60.7461
  0
LINE
  8
0
 10
-2.90575
 20
60.7461
 11
-2.97633
 21
60.376
  0
LINE
  8
0
 10
-2.97633
 20
60.376
 11
-3
 21
60
  0
LINE
  8
0
 10
-3
 20
60
 11
-2.97633
 21
59.624
  0
LINE
  8
0
 10
-2.97633
 20
59.624
 11
-2.90575
 21
59.2539
  0
LINE
  8
0
 10
-2.90575
 20
59.2539
 11
-2.78932
 21
58.8956
  0
LINE
  8
0
 10
-2.78932
 20
58.8956
 11
-2.62891
 21
58.5547
  0
LINE
  8
0
 10
-2.62891
 20
58.5547
 11
-2.42705
 21
58.2366
  0
LINE
  8
0
 10
-2.42705
 20
58.2366
 11
-2.1869
 21
57.9464
  0
LINE
  8
0
 10
-2.1869
 20
57.9464
 11
-1.91226
 21
57.6885
  0
LINE
  8
0
 10
-1.91226
 20
57.6885
 11
-1.60747
 21
57.467
  0
LINE
  8
0
 10
-1.60747
 20
57.467
 11
-1.27733
 21
57.2855
  0
LINE
  8
0
 10
-1.27733
 20
57.2855
 11
-0.927048
 21
57.1468
  0
LINE
  8
0
 10
-0.927048
 20
57.1468
 11
-0.562134
 21
57.0531
  0
LINE
  8
0
 10
-0.562134
 20
57.0531
 11
-0.18837
 21
57.0059
  0
LINE
  8
0
 10
-0.18837
 20
57.0059
 11
0.18837
 21
57.0059
  0
LINE
  8
0
 10
0.18837
 20
57.0059
 11
0.562134
 21
57.0531
  0
LINE
  8
0
 10
290.5
 20
62.7483
 11
288
 21
62.7483
  0
LINE
  8
0
 10
288
 20
62.7483
 11
288
 21
57.2517
  0
LINE
  8
0
 10
288
 20
57.2517
 11
290.5
 21
57.2517
  0
LINE
  8
0
 10
290.5
 20
57.2517
 11
290.5
 21
62.7483
  0
LINE
  8
0
 10
301.5
 20
62.5921
 11
300
 21
62.5921
  0
LINE
  8
0
 10
300
 20
62.5921
 11
300
 21
57.4079
  0
LINE
  8
0
 10
300
 20
57.4079
 11
301.5
 21
57.4079
  0
LINE
  8
0
 10
301.5
 20
57.4079
 11
301.5
 21
62.5921
  0
LINE
  8
0
 10
452.844
 20
60.9503
 11
452.811
 21
60.9866
  0
LINE
  8
0
 10
452.811
 20
60.9866
 11
452.295
 21
61.484
  0
LINE
  8
0
 10
452.295
 20
61.484
 11
451.766
 21
61.9246
  0
LINE
  8
0
 10
451.766
 20
61.9246
 11
451.494
 21
62.1171
  0
LINE
  8
0
 10
451.494
 20
62.1171
 11
451.394
 21
62.1171
  0
LINE
  8
0
 10
451.394
 20
62.1171
 11
447.542
 21
59.3933
  0
LINE
  8
0
 10
447.542
 20
59.3933
 11
447.505
 21
59.2964
  0
LINE
  8
0
 10
447.505
 20
59.2964
 11
447.555
 21
59.1062
  0
LINE
  8
0
 10
447.555
 20
59.1062
 11
447.782
 21
58.4637
  0
LINE
  8
0
 10
447.782
 20
58.4637
 11
448.068
 21
57.812
  0
LINE
  8
0
 10
448.068
 20
57.812
 11
448.159
 21
57.6374
  0
LINE
  8
0
 10
448.159
 20
57.6374
 11
452.844
 21
60.9503
  0
LINE
  8
0
 10
150.281
 20
58.5266
 11
150.464
 21
58.5734
  0
LINE
  8
0
 10
150.464
 20
58.5734
 11
150.639
 21
58.6428
  0
LINE
  8
0
 10
150.639
 20
58.6428
 11
150.804
 21
58.7335
  0
LINE
  8
0
 10
150.804
 20
58.7335
 11
150.956
 21
58.8442
  0
LINE
  8
0
 10
150.956
 20
58.8442
 11
151.093
 21
58.9732
  0
LINE
  8
0
 10
151.093
 20
58.9732
 11
151.214
 21
59.1183
  0
LINE
  8
0
 10
151.214
 20
59.1183
 11
151.314
 21
59.2774
  0
LINE
  8
0
 10
151.314
 20
59.2774
 11
151.395
 21
59.4478
  0
LINE
  8
0
 10
151.395
 20
59.4478
 11
151.453
 21
59.627
  0
LINE
  8
0
 10
151.453
 20
59.627
 11
151.488
 21
59.812
  0
LINE
  8
0
 10
151.488
 20
59.812
 11
151.5
 21
60
  0
LINE
  8
0
 10
151.5
 20
60
 11
151.488
 21
60.188
  0
LINE
  8
0
 10
151.488
 20
60.188
 11
151.453
 21
60.373
  0
LINE
  8
0
 10
151.453
 20
60.373
 11
151.395
 21
60.5522
  0
LINE
  8
0
 10
151.395
 20
60.5522
 11
151.314
 21
60.7226
  0
LINE
  8
0
 10
151.314
 20
60.7226
 11
151.214
 21
60.8817
  0
LINE
  8
0
 10
151.214
 20
60.8817
 11
151.093
 21
61.0268
  0
LINE
  8
0
 10
151.093
 20
61.0268
 11
150.956
 21
61.1558
  0
LINE
  8
0
 10
150.956
 20
61.1558
 11
150.804
 21
61.2665
  0
LINE
  8
0
 10
150.804
 20
61.2665
 11
150.639
 21
61.3572
  0
LINE
  8
0
 10
150.639
 20
61.3572
 11
150.464
 21
61.4266
  0
LINE
  8
0
 10
150.464
 20
61.4266
 11
150.281
 21
61.4734
  0
LINE
  8
0
 10
150.281
 20
61.4734
 11
150.094
 21
61.497
  0
LINE
  8
0
 10
150.094
 20
61.497
 11
149.906
 21
61.497
  0
LINE
  8
0
 10
149.906
 20
61.497
 11
149.719
 21
61.4734
  0
LINE
  8
0
 10
149.719
 20
61.4734
 11
149.536
 21
61.4266
  0
LINE
  8
0
 10
149.536
 20
61.4266
 11
149.361
 21
61.3572
  0
LINE
  8
0
 10
149.361
 20
61.3572
 11
149.196
 21
61.2665
  0
LINE
  8
0
 10
149.196
 20
61.2665
 11
149.044
 21
61.1558
  0
LINE
  8
0
 10
149.044
 20
61.1558
 11
148.907
 21
61.0268
  0
LINE
  8
0
 10
148.907
 20
61.0268
 11
148.786
 21
60.8817
  0
LINE
  8
0
 10
148.786
 20
60.8817
 11
148.686
 21
60.7226
  0
LINE
  8
0
 10
148.686
 20
60.7226
 11
148.605
 21
60.5522
  0
LINE
  8
0
 10
148.605
 20
60.5522
 11
148.547
 21
60.373
  0
LINE
  8
0
 10
148.547
 20
60.373
 11
148.512
 21
60.188
  0
LINE
  8
0
 10
148.512
 20
60.188
 11
148.5
 21
60
  0
LINE
  8
0
 10
148.5
 20
60
 11
148.512
 21
59.812
  0
LINE
  8
0
 10
148.512
 20
59.812
 11
148.547
 21
59.627
  0
LINE
  8
0
 10
148.547
 20
59.627
 11
148.605
 21
59.4478
  0
LINE
  8
0
 10
148.605
 20
59.4478
 11
148.686
 21
59.2774
  0
LINE
  8
0
 10
148.686
 20
59.2774
 11
148.786
 21
59.1183
  0
LINE
  8
0
 10
148.786
 20
59.1183
 11
148.907
 21
58.9732
  0
LINE
  8
0
 10
148.907
 20
58.9732
 11
149.044
 21
58.8442
  0
LINE
  8
0
 10
149.044
 20
58.8442
 11
149.196
 21
58.7335
  0
LINE
  8
0
 10
149.196
 20
58.7335
 11
149.361
 21
58.6428
  0
LINE
  8
0
 10
149.361
 20
58.6428
 11
149.536
 21
58.5734
  0
LINE
  8
0
 10
149.536
 20
58.5734
 11
149.719
 21
58.5266
  0
LINE
  8
0
 10
149.719
 20
58.5266
 11
149.906
 21
58.503
  0
LINE
  8
0
 10
149.906
 20
58.503
 11
150.094
 21
58.503
  0
LINE
  8
0
 10
150.094
 20
58.503
 11
150.281
 21
58.5266
  0
LINE
  8
0
 10
0.562134
 20
-2.94685
 11
0.927048
 21
-2.85316
  0
LINE
  8
0
 10
0.927048
 20
-2.85316
 11
1.27733
 21
-2.71448
  0
LINE
  8
0
 10
1.27733
 20
-2.71448
 11
1.60747
 21
-2.53297
  0
LINE
  8
0
 10
1.60747
 20
-2.53297
 11
1.91226
 21
-2.31154
  0
LINE
  8
0
 10
1.91226
 20
-2.31154
 11
2.1869
 21
-2.05363
  0
LINE
  8
0
 10
2.1869
 20
-2.05363
 11
2.42705
 21
-1.76335
  0
LINE
  8
0
 10
2.42705
 20
-1.76335
 11
2.62891
 21
-1.44525
  0
LINE
  8
0
 10
2.62891
 20
-1.44525
 11
2.78932
 21
-1.10437
  0
LINE
  8
0
 10
2.78932
 20
-1.10437
 11
2.90575
 21
-0.746063
  0
LINE
  8
0
 10
2.90575
 20
-0.746063
 11
2.97633
 21
-0.375992
  0
LINE
  8
0
 10
2.97633
 20
-0.375992
 11
3
 21
0
  0
LINE
  8
0
 10
3
 20
0
 11
2.97633
 21
0.375992
  0
LINE
  8
0
 10
2.97633
 20
0.375992
 11
2.90575
 21
0.746063
  0
LINE
  8
0
 10
2.90575
 20
0.746063
 11
2.78932
 21
1.10437
  0
LINE
  8
0
 10
2.78932
 20
1.10437
 11
2.62891
 21
1.44525
  0
LINE
  8
0
 10
2.62891
 20
1.44525
 11
2.42705
 21
1.76335
  0
LINE
  8
0
 10
2.42705
 20
1.76335
 11
2.1869
 21
2.05363
  0
LINE
  8
0
 10
2.1869
 20
2.05363
 11
1.91226
 21
2.31154
  0
LINE
  8
0
 10
1.91226
 20
2.31154
 11
1.60747
 21
2.53297
  0
LINE
  8
0
 10
1.60747
 20
2.53297
 11
1.27733
 21
2.71448
  0
LINE
  8
0
 10
1.27733
 20
2.71448
 11
0.927048
 21
2.85316
  0
LINE
  8
0
 10
0.927048
 20
2.85316
 11
0.562134
 21
2.94685
  0
LINE
  8
0
 10
0.562134
 20
2.94685
 11
0.18837
 21
2.99408
  0
LINE
  8
0
 10
0.18837
 20
2.99408
 11
-0.18837
 21
2.99408
  0
LINE
  8
0
 10
-0.18837
 20
2.99408
 11
-0.562134
 21
2.94685
  0
LINE
  8
0
 10
-0.562134
 20
2.94685
 11
-0.927048
 21
2.85316
  0
LINE
  8
0
 10
-0.927048
 20
2.85316
 11
-1.27733
 21
2.71448
  0
LINE
  8
0
 10
-1.27733
 20
2.71448
 11
-1.60747
 21
2.53297
  0
LINE
  8
0
 10
-1.60747
 20
2.53297
 11
-1.91226
 21
2.31154
  0
LINE
  8
0
 10
-1.91226
 20
2.31154
 11
-2.1869
 21
2.05363
  0
LINE
  8
0
 10
-2.1869
 20
2.05363
 11
-2.42705
 21
1.76335
  0
LINE
  8
0
 10
-2.42705
 20
1.76335
 11
-2.62891
 21
1.44525
  0
LINE
  8
0
 10
-2.62891
 20
1.44525
 11
-2.78932
 21
1.10437
  0
LINE
  8
0
 10
-2.78932
 20
1.10437
 11
-2.90575
 21
0.746063
  0
LINE
  8
0
 10
-2.90575
 20
0.746063
 11
-2.97633
 21
0.375992
  0
LINE
  8
0
 10
-2.97633
 20
0.375992
 11
-3
 21
0
  0
LINE
  8
0
 10
-3
 20
0
 11
-2.97633
 21
-0.375992
  0
LINE
  8
0
 10
-2.97633
 20
-0.375992
 11
-2.90575
 21
-0.746063
  0
LINE
  8
0
 10
-2.90575
 20
-0.746063
 11
-2.78932
 21
-1.10437
  0
LINE
  8
0
 10
-2.78932
 20
-1.10437
 11
-2.62891
 21
-1.44525
  0
LINE
  8
0
 10
-2.62891
 20
-1.44525
 11
-2.42705
 21
-1.76335
  0
LINE
  8
0
 10
-2.42705
 20
-1.76335
 11
-2.1869
 21
-2.05363
  0
LINE
  8
0
 10
-2.1869
 20
-2.05363
 11
-1.91226
 21
-2.31154
  0
LINE
  8
0
 10
-1.91226
 20
-2.31154
 11
-1.60747
 21
-2.53297
  0
LINE
  8
0
 10
-1.60747
 20
-2.53297
 11
-1.27733
 21
-2.71448
  0
LINE
  8
0
 10
-1.27733
 20
-2.71448
 11
-0.927048
 21
-2.85316
  0
LINE
  8
0
 10
-0.927048
 20
-2.85316
 11
-0.562134
 21
-2.94685
  0
LINE
  8
0
 10
-0.562134
 20
-2.94685
 11
-0.18837
 21
-2.99408
  0
LINE
  8
0
 10
-0.18837
 20
-2.99408
 11
0.18837
 21
-2.99408
  0
LINE
  8
0
 10
0.18837
 20
-2.99408
 11
0.562134
 21
-2.94685
  0
LINE
  8
0
 10
301.5
 20
2.59206
 11
300
 21
2.59206
  0
LINE
  8
0
 10
300
 20
2.59206
 11
300
 21
-2.59206
  0
LINE
  8
0
 10
300
 20
-2.59206
 11
301.5
 21
-2.59206
  0
LINE
  8
0
 10
301.5
 20
-2.59206
 11
301.5
 21
2.59206
  0
LINE
  8
0
 10
452.844
 20
0.950317
 11
452.811
 21
0.986618
  0
LINE
  8
0
 10
452.811
 20
0.986618
 11
452.295
 21
1.48402
  0
LINE
  8
0
 10
452.295
 20
1.48402
 11
451.766
 21
1.92458
  0
LINE
  8
0
 10
451.766
 20
1.92458
 11
451.494
 21
2.11713
  0
LINE
  8
0
 10
451.494
 20
2.11713
 11
451.394
 21
2.11713
  0
LINE
  8
0
 10
451.394
 20
2.11713
 11
447.542
 21
-0.606644
  0
LINE
  8
0
 10
447.542
 20
-0.606644
 11
447.505
 21
-0.703552
  0
LINE
  8
0
 10
447.505
 20
-0.703552
 11
447.555
 21
-0.893799
  0
LINE
  8
0
 10
447.555
 20
-0.893799
 11
447.782
 21
-1.5363
  0
LINE
  8
0
 10
447.782
 20
-1.5363
 11
448.068
 21
-2.18802
  0
LINE
  8
0
 10
448.068
 20
-2.18802
 11
448.159
 21
-2.36261
  0
LINE
  8
0
 10
448.159
 20
-2.36261
 11
452.844
 21
0.950317
  0
LINE
  8
0
 10
150.281
 20
-1.47342
 11
150.464
 21
-1.42657
  0
LINE
  8
0
 10
150.464
 20
-1.42657
 11
150.639
 21
-1.35724
  0
LINE
  8
0
 10
150.639
 20
-1.35724
 11
150.804
 21
-1.26648
  0
LINE
  8
0
 10
150.804
 20
-1.26648
 11
150.956
 21
-1.15576
  0
LINE
  8
0
 10
150.956
 20
-1.15576
 11
151.093
 21
-1.02681
  0
LINE
  8
0
 10
151.093
 20
-1.02681
 11
151.214
 21
-0.881668
  0
LINE
  8
0
 10
151.214
 20
-0.881668
 11
151.314
 21
-0.722626
  0
LINE
  8
0
 10
151.314
 20
-0.722626
 11
151.395
 21
-0.552185
  0
LINE
  8
0
 10
151.395
 20
-0.552185
 11
151.453
 21
-0.373032
  0
LINE
  8
0
 10
151.453
 20
-0.373032
 11
151.488
 21
-0.187988
  0
LINE
  8
0
 10
151.488
 20
-0.187988
 11
151.5
 21
0
  0
LINE
  8
0
 10
151.5
 20
0
 11
151.488
 21
0.187988
  0
LINE
  8
0
 10
151.488
 20
0.187988
 11
151.453
 21
0.373032
  0
LINE
  8
0
 10
151.453
 20
0.373032
 11
151.395
 21
0.552185
  0
LINE
  8
0
 10
151.395
 20
0.552185
 11
151.314
 21
0.722626
  0
LINE
  8
0
 10
151.314
 20
0.722626
 11
151.214
 21
0.881668
  0
LINE
  8
0
 10
151.214
 20
0.881668
 11
151.093
 21
1.02681
  0
LINE
  8
0
 10
151.093
 20
1.02681
 11
150.956
 21
1.15576
  0
LINE
  8
0
 10
150.956
 20
1.15576
 11
150.804
 21
1.26648
  0
LINE
  8
0
 10
150.804
 20
1.26648
 11
150.639
 21
1.35724
  0
LINE
  8
0
 10
150.639
 20
1.35724
 11
150.464
 21
1.42657
  0
LINE
  8
0
 10
150.464
 20
1.42657
 11
150.281
 21
1.47342
  0
LINE
  8
0
 10
150.281
 20
1.47342
 11
150.094
 21
1.49704
  0
LINE
  8
0
 10
150.094
 20
1.49704
 11
149.906
 21
1.49704
  0
LINE
  8
0
 10
149.906
 20
1.49704
 11
149.719
 21
1.47342
  0
LINE
  8
0
 10
149.719
 20
1.47342
 11
149.536
 21
1.42657
  0
LINE
  8
0
 10
149.536
 20
1.42657
 11
149.361
 21
1.35724
  0
LINE
  8
0
 10
149.361
 20
1.35724
 11
149.196
 21
1.26648
  0
LINE
  8
0
 10
149.196
 20
1.26648
 11
149.044
 21
1.15576
  0
LINE
  8
0
 10
149.044
 20
1.15576
 11
148.907
 21
1.02681
  0
LINE
  8
0
 10
148.907
 20
1.02681
 11
148.786
 21
0.881668
  0
LINE
  8
0
 10
148.786
 20
0.881668
 11
148.686
 21
0.722626
  0
LINE
  8
0
 10
148.686
 20
0.722626
 11
148.605
 21
0.552185
  0
LINE
  8
0
 10
148.605
 20
0.552185
 11
148.547
 21
0.373032
  0
LINE
  8
0
 10
148.547
 20
0.373032
 11
148.512
 21
0.187988
  0
LINE
  8
0
 10
148.512
 20
0.187988
 11
148.5
 21
0
  0
LINE
  8
0
 10
148.5
 20
0
 11
148.512
 21
-0.187988
  0
LINE
  8
0
 10
148.512
 20
-0.187988
 11
148.547
 21
-0.373032
  0
LINE
  8
0
 10
148.547
 20
-0.373032
 11
148.605
 21
-0.552185
  0
LINE
  8
0
 10
148.605
 20
-0.552185
 11
148.686
 21
-0.722626
  0
LINE
  8
0
 10
148.686
 20
-0.722626
 11
148.786
 21
-0.881668
  0
LINE
  8
0
 10
148.786
 20
-0.881668
 11
148.907
 21
-1.02681
  0
LINE
  8
0
 10
148.907
 20
-1.02681
 11
149.044
 21
-1.15576
  0
LINE
  8
0
 10
149.044
 20
-1.15576
 11
149.196
 21
-1.26648
  0
LINE
  8
0
 10
149.196
 20
-1.26648
 11
149.361
 21
-1.35724
  0
LINE
  8
0
 10
149.361
 20
-1.35724
 11
149.536
 21
-1.42657
  0
LINE
  8
0
 10
149.536
 20
-1.42657
 11
149.719
 21
-1.47342
  0
LINE
  8
0
 10
149.719
 20
-1.47342
 11
149.906
 21
-1.49704
  0
LINE
  8
0
 10
149.906
 20
-1.49704
 11
150.094
 21
-1.49704
  0
LINE
  8
0
 10
150.094
 20
-1.49704
 11
150.281
 21
-1.47342
  0
ENDSEC
  0
SECTION
  2
OBJECTS
  0
DICTIONARY
  0
ENDSEC
  0
EOF
