  0
SECTION
  2
BLOCKS
  0
ENDSEC
  0
SECTION
  2
ENTITIES
  0
LINE
  8
0
 10
4.96844
 20
213.544
 11
5.27254
 21
213.622
  0
LINE
  8
0
 10
5.27254
 20
213.622
 11
5.56444
 21
213.738
  0
LINE
  8
0
 10
5.56444
 20
213.738
 11
5.83955
 21
213.889
  0
LINE
  8
0
 10
5.83955
 20
213.889
 11
6.09355
 21
214.074
  0
LINE
  8
0
 10
6.09355
 20
214.074
 11
6.32242
 21
214.289
  0
LINE
  8
0
 10
6.32242
 20
214.289
 11
6.52254
 21
214.531
  0
LINE
  8
0
 10
6.52254
 20
214.531
 11
6.69077
 21
214.796
  0
LINE
  8
0
 10
6.69077
 20
214.796
 11
6.82443
 21
215.08
  0
LINE
  8
0
 10
6.82443
 20
215.08
 11
6.92145
 21
215.378
  0
LINE
  8
0
 10
6.92145
 20
215.378
 11
6.98029
 21
215.687
  0
LINE
  8
0
 10
6.98029
 20
215.687
 11
7
 21
216
  0
LINE
  8
0
 10
7
 20
216
 11
7
 21
288
  0
LINE
  8
0
 10
7
 20
288
 11
6.98029
 21
288.313
  0
LINE
  8
0
 10
6.98029
 20
288.313
 11
6.92145
 21
288.622
  0
LINE
  8
0
 10
6.92145
 20
288.622
 11
6.82443
 21
288.92
  0
LINE
  8
0
 10
6.82443
 20
288.92
 11
6.69077
 21
289.204
  0
LINE
  8
0
 10
6.69077
 20
289.204
 11
6.52254
 21
289.469
  0
LINE
  8
0
 10
6.52254
 20
289.469
 11
6.32242
 21
289.711
  0
LINE
  8
0
 10
6.32242
 20
289.711
 11
6.09355
 21
289.926
  0
LINE
  8
0
 10
6.09355
 20
289.926
 11
5.83955
 21
290.111
  0
LINE
  8
0
 10
5.83955
 20
290.111
 11
5.56444
 21
290.262
  0
LINE
  8
0
 10
5.56444
 20
290.262
 11
5.27254
 21
290.378
  0
LINE
  8
0
 10
5.27254
 20
290.378
 11
4.96844
 21
290.456
  0
LINE
  8
0
 10
4.96844
 20
290.456
 11
4.65697
 21
290.495
  0
LINE
  8
0
 10
4.65697
 20
290.495
 11
-4.65697
 21
290.495
  0
LINE
  8
0
 10
-4.65697
 20
290.495
 11
-4.96844
 21
290.456
  0
LINE
  8
0
 10
-4.96844
 20
290.456
 11
-5.27254
 21
290.378
  0
LINE
  8
0
 10
-5.27254
 20
290.378
 11
-5.56444
 21
290.262
  0
LINE
  8
0
 10
-5.56444
 20
290.262
 11
-5.83955
 21
290.111
  0
LINE
  8
0
 10
-5.83955
 20
290.111
 11
-6.09355
 21
289.926
  0
LINE
  8
0
 10
-6.09355
 20
289.926
 11
-6.32242
 21
289.711
  0
LINE
  8
0
 10
-6.32242
 20
289.711
 11
-6.52254
 21
289.469
  0
LINE
  8
0
 10
-6.52254
 20
289.469
 11
-6.69077
 21
289.204
  0
LINE
  8
0
 10
-6.69077
 20
289.204
 11
-6.82443
 21
288.92
  0
LINE
  8
0
 10
-6.82443
 20
288.92
 11
-6.92145
 21
288.622
  0
LINE
  8
0
 10
-6.92145
 20
288.622
 11
-6.98029
 21
288.313
  0
LINE
  8
0
 10
-6.98029
 20
288.313
 11
-7
 21
288
  0
LINE
  8
0
 10
-7
 20
288
 11
-7
 21
285.242
  0
LINE
  8
0
 10
-7
 20
285.242
 11
0
 21
285.242
  0
LINE
  8
0
 10
0
 20
285.242
 11
0
 21
278.758
  0
LINE
  8
0
 10
0
 20
278.758
 11
-7
 21
278.758
  0
LINE
  8
0
 10
-7
 20
278.758
 11
-7
 21
216
  0
LINE
  8
0
 10
-7
 20
216
 11
-6.98029
 21
215.687
  0
LINE
  8
0
 10
-6.98029
 20
215.687
 11
-6.92145
 21
215.378
  0
LINE
  8
0
 10
-6.92145
 20
215.378
 11
-6.82443
 21
215.08
  0
LINE
  8
0
 10
-6.82443
 20
215.08
 11
-6.69077
 21
214.796
  0
LINE
  8
0
 10
-6.69077
 20
214.796
 11
-6.52254
 21
214.531
  0
LINE
  8
0
 10
-6.52254
 20
214.531
 11
-6.32242
 21
214.289
  0
LINE
  8
0
 10
-6.32242
 20
214.289
 11
-6.09355
 21
214.074
  0
LINE
  8
0
 10
-6.09355
 20
214.074
 11
-5.83955
 21
213.889
  0
LINE
  8
0
 10
-5.83955
 20
213.889
 11
-5.56444
 21
213.738
  0
LINE
  8
0
 10
-5.56444
 20
213.738
 11
-5.27254
 21
213.622
  0
LINE
  8
0
 10
-5.27254
 20
213.622
 11
-4.96844
 21
213.544
  0
LINE
  8
0
 10
-4.96844
 20
213.544
 11
-4.65697
 21
213.505
  0
LINE
  8
0
 10
-4.65697
 20
213.505
 11
4.65697
 21
213.505
  0
LINE
  8
0
 10
4.65697
 20
213.505
 11
4.96844
 21
213.544
  0
LINE
  8
0
 10
-0.18837
 20
264.006
 11
-0.562134
 21
264.053
  0
LINE
  8
0
 10
-0.562134
 20
264.053
 11
-0.927048
 21
264.147
  0
LINE
  8
0
 10
-0.927048
 20
264.147
 11
-1.27733
 21
264.286
  0
LINE
  8
0
 10
-1.27733
 20
264.286
 11
-1.60747
 21
264.467
  0
LINE
  8
0
 10
-1.60747
 20
264.467
 11
-1.91226
 21
264.688
  0
LINE
  8
0
 10
-1.91226
 20
264.688
 11
-2.1869
 21
264.946
  0
LINE
  8
0
 10
-2.1869
 20
264.946
 11
-2.42705
 21
265.237
  0
LINE
  8
0
 10
-2.42705
 20
265.237
 11
-2.62891
 21
265.555
  0
LINE
  8
0
 10
-2.62891
 20
265.555
 11
-2.78932
 21
265.896
  0
LINE
  8
0
 10
-2.78932
 20
265.896
 11
-2.90575
 21
266.254
  0
LINE
  8
0
 10
-2.90575
 20
266.254
 11
-2.97633
 21
266.624
  0
LINE
  8
0
 10
-2.97633
 20
266.624
 11
-3
 21
267
  0
LINE
  8
0
 10
-3
 20
267
 11
-2.97633
 21
267.376
  0
LINE
  8
0
 10
-2.97633
 20
267.376
 11
-2.90575
 21
267.746
  0
LINE
  8
0
 10
-2.90575
 20
267.746
 11
-2.78932
 21
268.104
  0
LINE
  8
0
 10
-2.78932
 20
268.104
 11
-2.62891
 21
268.445
  0
LINE
  8
0
 10
-2.62891
 20
268.445
 11
-2.42705
 21
268.763
  0
LINE
  8
0
 10
-2.42705
 20
268.763
 11
-2.1869
 21
269.054
  0
LINE
  8
0
 10
-2.1869
 20
269.054
 11
-1.91226
 21
269.312
  0
LINE
  8
0
 10
-1.91226
 20
269.312
 11
-1.60747
 21
269.533
  0
LINE
  8
0
 10
-1.60747
 20
269.533
 11
-1.27733
 21
269.714
  0
LINE
  8
0
 10
-1.27733
 20
269.714
 11
-0.927048
 21
269.853
  0
LINE
  8
0
 10
-0.927048
 20
269.853
 11
-0.562134
 21
269.947
  0
LINE
  8
0
 10
-0.562134
 20
269.947
 11
-0.18837
 21
269.994
  0
LINE
  8
0
 10
-0.18837
 20
269.994
 11
0.18837
 21
269.994
  0
LINE
  8
0
 10
0.18837
 20
269.994
 11
0.562134
 21
269.947
  0
LINE
  8
0
 10
0.562134
 20
269.947
 11
0.927048
 21
269.853
  0
LINE
  8
0
 10
0.927048
 20
269.853
 11
1.27733
 21
269.714
  0
LINE
  8
0
 10
1.27733
 20
269.714
 11
1.60747
 21
269.533
  0
LINE
  8
0
 10
1.60747
 20
269.533
 11
1.91226
 21
269.312
  0
LINE
  8
0
 10
1.91226
 20
269.312
 11
2.1869
 21
269.054
  0
LINE
  8
0
 10
2.1869
 20
269.054
 11
2.42705
 21
268.763
  0
LINE
  8
0
 10
2.42705
 20
268.763
 11
2.62891
 21
268.445
  0
LINE
  8
0
 10
2.62891
 20
268.445
 11
2.78932
 21
268.104
  0
LINE
  8
0
 10
2.78932
 20
268.104
 11
2.90575
 21
267.746
  0
LINE
  8
0
 10
2.90575
 20
267.746
 11
2.97633
 21
267.376
  0
LINE
  8
0
 10
2.97633
 20
267.376
 11
3
 21
267
  0
LINE
  8
0
 10
3
 20
267
 11
2.97633
 21
266.624
  0
LINE
  8
0
 10
2.97633
 20
266.624
 11
2.90575
 21
266.254
  0
LINE
  8
0
 10
2.90575
 20
266.254
 11
2.78932
 21
265.896
  0
LINE
  8
0
 10
2.78932
 20
265.896
 11
2.62891
 21
265.555
  0
LINE
  8
0
 10
2.62891
 20
265.555
 11
2.42705
 21
265.237
  0
LINE
  8
0
 10
2.42705
 20
265.237
 11
2.1869
 21
264.946
  0
LINE
  8
0
 10
2.1869
 20
264.946
 11
1.91226
 21
264.688
  0
LINE
  8
0
 10
1.91226
 20
264.688
 11
1.60747
 21
264.467
  0
LINE
  8
0
 10
1.60747
 20
264.467
 11
1.27733
 21
264.286
  0
LINE
  8
0
 10
1.27733
 20
264.286
 11
0.927048
 21
264.147
  0
LINE
  8
0
 10
0.927048
 20
264.147
 11
0.562134
 21
264.053
  0
LINE
  8
0
 10
0.562134
 20
264.053
 11
0.18837
 21
264.006
  0
LINE
  8
0
 10
0.18837
 20
264.006
 11
-0.18837
 21
264.006
  0
LINE
  8
0
 10
-0.18837
 20
249.006
 11
-0.562134
 21
249.053
  0
LINE
  8
0
 10
-0.562134
 20
249.053
 11
-0.927048
 21
249.147
  0
LINE
  8
0
 10
-0.927048
 20
249.147
 11
-1.27733
 21
249.286
  0
LINE
  8
0
 10
-1.27733
 20
249.286
 11
-1.60747
 21
249.467
  0
LINE
  8
0
 10
-1.60747
 20
249.467
 11
-1.91226
 21
249.688
  0
LINE
  8
0
 10
-1.91226
 20
249.688
 11
-2.1869
 21
249.946
  0
LINE
  8
0
 10
-2.1869
 20
249.946
 11
-2.42705
 21
250.237
  0
LINE
  8
0
 10
-2.42705
 20
250.237
 11
-2.62891
 21
250.555
  0
LINE
  8
0
 10
-2.62891
 20
250.555
 11
-2.78932
 21
250.896
  0
LINE
  8
0
 10
-2.78932
 20
250.896
 11
-2.90575
 21
251.254
  0
LINE
  8
0
 10
-2.90575
 20
251.254
 11
-2.97633
 21
251.624
  0
LINE
  8
0
 10
-2.97633
 20
251.624
 11
-3
 21
252
  0
LINE
  8
0
 10
-3
 20
252
 11
-2.97633
 21
252.376
  0
LINE
  8
0
 10
-2.97633
 20
252.376
 11
-2.90575
 21
252.746
  0
LINE
  8
0
 10
-2.90575
 20
252.746
 11
-2.78932
 21
253.104
  0
LINE
  8
0
 10
-2.78932
 20
253.104
 11
-2.62891
 21
253.445
  0
LINE
  8
0
 10
-2.62891
 20
253.445
 11
-2.42705
 21
253.763
  0
LINE
  8
0
 10
-2.42705
 20
253.763
 11
-2.1869
 21
254.054
  0
LINE
  8
0
 10
-2.1869
 20
254.054
 11
-1.91226
 21
254.312
  0
LINE
  8
0
 10
-1.91226
 20
254.312
 11
-1.60747
 21
254.533
  0
LINE
  8
0
 10
-1.60747
 20
254.533
 11
-1.27733
 21
254.714
  0
LINE
  8
0
 10
-1.27733
 20
254.714
 11
-0.927048
 21
254.853
  0
LINE
  8
0
 10
-0.927048
 20
254.853
 11
-0.562134
 21
254.947
  0
LINE
  8
0
 10
-0.562134
 20
254.947
 11
-0.18837
 21
254.994
  0
LINE
  8
0
 10
-0.18837
 20
254.994
 11
0.18837
 21
254.994
  0
LINE
  8
0
 10
0.18837
 20
254.994
 11
0.562134
 21
254.947
  0
LINE
  8
0
 10
0.562134
 20
254.947
 11
0.927048
 21
254.853
  0
LINE
  8
0
 10
0.927048
 20
254.853
 11
1.27733
 21
254.714
  0
LINE
  8
0
 10
1.27733
 20
254.714
 11
1.60747
 21
254.533
  0
LINE
  8
0
 10
1.60747
 20
254.533
 11
1.91226
 21
254.312
  0
LINE
  8
0
 10
1.91226
 20
254.312
 11
2.1869
 21
254.054
  0
LINE
  8
0
 10
2.1869
 20
254.054
 11
2.42705
 21
253.763
  0
LINE
  8
0
 10
2.42705
 20
253.763
 11
2.62891
 21
253.445
  0
LINE
  8
0
 10
2.62891
 20
253.445
 11
2.78932
 21
253.104
  0
LINE
  8
0
 10
2.78932
 20
253.104
 11
2.90575
 21
252.746
  0
LINE
  8
0
 10
2.90575
 20
252.746
 11
2.97633
 21
252.376
  0
LINE
  8
0
 10
2.97633
 20
252.376
 11
3
 21
252
  0
LINE
  8
0
 10
3
 20
252
 11
2.97633
 21
251.624
  0
LINE
  8
0
 10
2.97633
 20
251.624
 11
2.90575
 21
251.254
  0
LINE
  8
0
 10
2.90575
 20
251.254
 11
2.78932
 21
250.896
  0
LINE
  8
0
 10
2.78932
 20
250.896
 11
2.62891
 21
250.555
  0
LINE
  8
0
 10
2.62891
 20
250.555
 11
2.42705
 21
250.237
  0
LINE
  8
0
 10
2.42705
 20
250.237
 11
2.1869
 21
249.946
  0
LINE
  8
0
 10
2.1869
 20
249.946
 11
1.91226
 21
249.688
  0
LINE
  8
0
 10
1.91226
 20
249.688
 11
1.60747
 21
249.467
  0
LINE
  8
0
 10
1.60747
 20
249.467
 11
1.27733
 21
249.286
  0
LINE
  8
0
 10
1.27733
 20
249.286
 11
0.927048
 21
249.147
  0
LINE
  8
0
 10
0.927048
 20
249.147
 11
0.562134
 21
249.053
  0
LINE
  8
0
 10
0.562134
 20
249.053
 11
0.18837
 21
249.006
  0
LINE
  8
0
 10
0.18837
 20
249.006
 11
-0.18837
 21
249.006
  0
LINE
  8
0
 10
-0.18837
 20
234.006
 11
-0.562134
 21
234.053
  0
LINE
  8
0
 10
-0.562134
 20
234.053
 11
-0.927048
 21
234.147
  0
LINE
  8
0
 10
-0.927048
 20
234.147
 11
-1.27733
 21
234.286
  0
LINE
  8
0
 10
-1.27733
 20
234.286
 11
-1.60747
 21
234.467
  0
LINE
  8
0
 10
-1.60747
 20
234.467
 11
-1.91226
 21
234.688
  0
LINE
  8
0
 10
-1.91226
 20
234.688
 11
-2.1869
 21
234.946
  0
LINE
  8
0
 10
-2.1869
 20
234.946
 11
-2.42705
 21
235.237
  0
LINE
  8
0
 10
-2.42705
 20
235.237
 11
-2.62891
 21
235.555
  0
LINE
  8
0
 10
-2.62891
 20
235.555
 11
-2.78932
 21
235.896
  0
LINE
  8
0
 10
-2.78932
 20
235.896
 11
-2.90575
 21
236.254
  0
LINE
  8
0
 10
-2.90575
 20
236.254
 11
-2.97633
 21
236.624
  0
LINE
  8
0
 10
-2.97633
 20
236.624
 11
-3
 21
237
  0
LINE
  8
0
 10
-3
 20
237
 11
-2.97633
 21
237.376
  0
LINE
  8
0
 10
-2.97633
 20
237.376
 11
-2.90575
 21
237.746
  0
LINE
  8
0
 10
-2.90575
 20
237.746
 11
-2.78932
 21
238.104
  0
LINE
  8
0
 10
-2.78932
 20
238.104
 11
-2.62891
 21
238.445
  0
LINE
  8
0
 10
-2.62891
 20
238.445
 11
-2.42705
 21
238.763
  0
LINE
  8
0
 10
-2.42705
 20
238.763
 11
-2.1869
 21
239.054
  0
LINE
  8
0
 10
-2.1869
 20
239.054
 11
-1.91226
 21
239.312
  0
LINE
  8
0
 10
-1.91226
 20
239.312
 11
-1.60747
 21
239.533
  0
LINE
  8
0
 10
-1.60747
 20
239.533
 11
-1.27733
 21
239.714
  0
LINE
  8
0
 10
-1.27733
 20
239.714
 11
-0.927048
 21
239.853
  0
LINE
  8
0
 10
-0.927048
 20
239.853
 11
-0.562134
 21
239.947
  0
LINE
  8
0
 10
-0.562134
 20
239.947
 11
-0.18837
 21
239.994
  0
LINE
  8
0
 10
-0.18837
 20
239.994
 11
0.18837
 21
239.994
  0
LINE
  8
0
 10
0.18837
 20
239.994
 11
0.562134
 21
239.947
  0
LINE
  8
0
 10
0.562134
 20
239.947
 11
0.927048
 21
239.853
  0
LINE
  8
0
 10
0.927048
 20
239.853
 11
1.27733
 21
239.714
  0
LINE
  8
0
 10
1.27733
 20
239.714
 11
1.60747
 21
239.533
  0
LINE
  8
0
 10
1.60747
 20
239.533
 11
1.91226
 21
239.312
  0
LINE
  8
0
 10
1.91226
 20
239.312
 11
2.1869
 21
239.054
  0
LINE
  8
0
 10
2.1869
 20
239.054
 11
2.42705
 21
238.763
  0
LINE
  8
0
 10
2.42705
 20
238.763
 11
2.62891
 21
238.445
  0
LINE
  8
0
 10
2.62891
 20
238.445
 11
2.78932
 21
238.104
  0
LINE
  8
0
 10
2.78932
 20
238.104
 11
2.90575
 21
237.746
  0
LINE
  8
0
 10
2.90575
 20
237.746
 11
2.97633
 21
237.376
  0
LINE
  8
0
 10
2.97633
 20
237.376
 11
3
 21
237
  0
LINE
  8
0
 10
3
 20
237
 11
2.97633
 21
236.624
  0
LINE
  8
0
 10
2.97633
 20
236.624
 11
2.90575
 21
236.254
  0
LINE
  8
0
 10
2.90575
 20
236.254
 11
2.78932
 21
235.896
  0
LINE
  8
0
 10
2.78932
 20
235.896
 11
2.62891
 21
235.555
  0
LINE
  8
0
 10
2.62891
 20
235.555
 11
2.42705
 21
235.237
  0
LINE
  8
0
 10
2.42705
 20
235.237
 11
2.1869
 21
234.946
  0
LINE
  8
0
 10
2.1869
 20
234.946
 11
1.91226
 21
234.688
  0
LINE
  8
0
 10
1.91226
 20
234.688
 11
1.60747
 21
234.467
  0
LINE
  8
0
 10
1.60747
 20
234.467
 11
1.27733
 21
234.286
  0
LINE
  8
0
 10
1.27733
 20
234.286
 11
0.927048
 21
234.147
  0
LINE
  8
0
 10
0.927048
 20
234.147
 11
0.562134
 21
234.053
  0
LINE
  8
0
 10
0.562134
 20
234.053
 11
0.18837
 21
234.006
  0
LINE
  8
0
 10
0.18837
 20
234.006
 11
-0.18837
 21
234.006
  0
LINE
  8
0
 10
-0.18837
 20
219.006
 11
-0.562134
 21
219.053
  0
LINE
  8
0
 10
-0.562134
 20
219.053
 11
-0.927048
 21
219.147
  0
LINE
  8
0
 10
-0.927048
 20
219.147
 11
-1.27733
 21
219.286
  0
LINE
  8
0
 10
-1.27733
 20
219.286
 11
-1.60747
 21
219.467
  0
LINE
  8
0
 10
-1.60747
 20
219.467
 11
-1.91226
 21
219.688
  0
LINE
  8
0
 10
-1.91226
 20
219.688
 11
-2.1869
 21
219.946
  0
LINE
  8
0
 10
-2.1869
 20
219.946
 11
-2.42705
 21
220.237
  0
LINE
  8
0
 10
-2.42705
 20
220.237
 11
-2.62891
 21
220.555
  0
LINE
  8
0
 10
-2.62891
 20
220.555
 11
-2.78932
 21
220.896
  0
LINE
  8
0
 10
-2.78932
 20
220.896
 11
-2.90575
 21
221.254
  0
LINE
  8
0
 10
-2.90575
 20
221.254
 11
-2.97633
 21
221.624
  0
LINE
  8
0
 10
-2.97633
 20
221.624
 11
-3
 21
222
  0
LINE
  8
0
 10
-3
 20
222
 11
-2.97633
 21
222.376
  0
LINE
  8
0
 10
-2.97633
 20
222.376
 11
-2.90575
 21
222.746
  0
LINE
  8
0
 10
-2.90575
 20
222.746
 11
-2.78932
 21
223.104
  0
LINE
  8
0
 10
-2.78932
 20
223.104
 11
-2.62891
 21
223.445
  0
LINE
  8
0
 10
-2.62891
 20
223.445
 11
-2.42705
 21
223.763
  0
LINE
  8
0
 10
-2.42705
 20
223.763
 11
-2.1869
 21
224.054
  0
LINE
  8
0
 10
-2.1869
 20
224.054
 11
-1.91226
 21
224.312
  0
LINE
  8
0
 10
-1.91226
 20
224.312
 11
-1.60747
 21
224.533
  0
LINE
  8
0
 10
-1.60747
 20
224.533
 11
-1.27733
 21
224.714
  0
LINE
  8
0
 10
-1.27733
 20
224.714
 11
-0.927048
 21
224.853
  0
LINE
  8
0
 10
-0.927048
 20
224.853
 11
-0.562134
 21
224.947
  0
LINE
  8
0
 10
-0.562134
 20
224.947
 11
-0.18837
 21
224.994
  0
LINE
  8
0
 10
-0.18837
 20
224.994
 11
0.18837
 21
224.994
  0
LINE
  8
0
 10
0.18837
 20
224.994
 11
0.562134
 21
224.947
  0
LINE
  8
0
 10
0.562134
 20
224.947
 11
0.927048
 21
224.853
  0
LINE
  8
0
 10
0.927048
 20
224.853
 11
1.27733
 21
224.714
  0
LINE
  8
0
 10
1.27733
 20
224.714
 11
1.60747
 21
224.533
  0
LINE
  8
0
 10
1.60747
 20
224.533
 11
1.91226
 21
224.312
  0
LINE
  8
0
 10
1.91226
 20
224.312
 11
2.1869
 21
224.054
  0
LINE
  8
0
 10
2.1869
 20
224.054
 11
2.42705
 21
223.763
  0
LINE
  8
0
 10
2.42705
 20
223.763
 11
2.62891
 21
223.445
  0
LINE
  8
0
 10
2.62891
 20
223.445
 11
2.78932
 21
223.104
  0
LINE
  8
0
 10
2.78932
 20
223.104
 11
2.90575
 21
222.746
  0
LINE
  8
0
 10
2.90575
 20
222.746
 11
2.97633
 21
222.376
  0
LINE
  8
0
 10
2.97633
 20
222.376
 11
3
 21
222
  0
LINE
  8
0
 10
3
 20
222
 11
2.97633
 21
221.624
  0
LINE
  8
0
 10
2.97633
 20
221.624
 11
2.90575
 21
221.254
  0
LINE
  8
0
 10
2.90575
 20
221.254
 11
2.78932
 21
220.896
  0
LINE
  8
0
 10
2.78932
 20
220.896
 11
2.62891
 21
220.555
  0
LINE
  8
0
 10
2.62891
 20
220.555
 11
2.42705
 21
220.237
  0
LINE
  8
0
 10
2.42705
 20
220.237
 11
2.1869
 21
219.946
  0
LINE
  8
0
 10
2.1869
 20
219.946
 11
1.91226
 21
219.688
  0
LINE
  8
0
 10
1.91226
 20
219.688
 11
1.60747
 21
219.467
  0
LINE
  8
0
 10
1.60747
 20
219.467
 11
1.27733
 21
219.286
  0
LINE
  8
0
 10
1.27733
 20
219.286
 11
0.927048
 21
219.147
  0
LINE
  8
0
 10
0.927048
 20
219.147
 11
0.562134
 21
219.053
  0
LINE
  8
0
 10
0.562134
 20
219.053
 11
0.18837
 21
219.006
  0
LINE
  8
0
 10
0.18837
 20
219.006
 11
-0.18837
 21
219.006
  0
LINE
  8
0
 10
7
 20
204
 11
6.98029
 21
204.313
  0
LINE
  8
0
 10
6.98029
 20
204.313
 11
6.92145
 21
204.622
  0
LINE
  8
0
 10
6.92145
 20
204.622
 11
6.82443
 21
204.92
  0
LINE
  8
0
 10
6.82443
 20
204.92
 11
6.69077
 21
205.204
  0
LINE
  8
0
 10
6.69077
 20
205.204
 11
6.52254
 21
205.469
  0
LINE
  8
0
 10
6.52254
 20
205.469
 11
6.32242
 21
205.711
  0
LINE
  8
0
 10
6.32242
 20
205.711
 11
6.09355
 21
205.926
  0
LINE
  8
0
 10
6.09355
 20
205.926
 11
5.83955
 21
206.111
  0
LINE
  8
0
 10
5.83955
 20
206.111
 11
5.56444
 21
206.262
  0
LINE
  8
0
 10
5.56444
 20
206.262
 11
5.27254
 21
206.378
  0
LINE
  8
0
 10
5.27254
 20
206.378
 11
4.96844
 21
206.456
  0
LINE
  8
0
 10
4.96844
 20
206.456
 11
4.65697
 21
206.495
  0
LINE
  8
0
 10
4.65697
 20
206.495
 11
-4.65697
 21
206.495
  0
LINE
  8
0
 10
-4.65697
 20
206.495
 11
-4.96844
 21
206.456
  0
LINE
  8
0
 10
-4.96844
 20
206.456
 11
-5.27254
 21
206.378
  0
LINE
  8
0
 10
-5.27254
 20
206.378
 11
-5.56444
 21
206.262
  0
LINE
  8
0
 10
-5.56444
 20
206.262
 11
-5.83955
 21
206.111
  0
LINE
  8
0
 10
-5.83955
 20
206.111
 11
-6.09355
 21
205.926
  0
LINE
  8
0
 10
-6.09355
 20
205.926
 11
-6.32242
 21
205.711
  0
LINE
  8
0
 10
-6.32242
 20
205.711
 11
-6.52254
 21
205.469
  0
LINE
  8
0
 10
-6.52254
 20
205.469
 11
-6.69077
 21
205.204
  0
LINE
  8
0
 10
-6.69077
 20
205.204
 11
-6.82443
 21
204.92
  0
LINE
  8
0
 10
-6.82443
 20
204.92
 11
-6.92145
 21
204.622
  0
LINE
  8
0
 10
-6.92145
 20
204.622
 11
-6.98029
 21
204.313
  0
LINE
  8
0
 10
-6.98029
 20
204.313
 11
-7
 21
204
  0
LINE
  8
0
 10
-7
 20
204
 11
-7
 21
202.803
  0
LINE
  8
0
 10
-7
 20
202.803
 11
0
 21
202.803
  0
LINE
  8
0
 10
0
 20
202.803
 11
0
 21
199.373
  0
LINE
  8
0
 10
0
 20
199.373
 11
7
 21
199.373
  0
LINE
  8
0
 10
7
 20
199.373
 11
7
 21
204
  0
LINE
  8
0
 10
4.96844
 20
129.544
 11
5.27254
 21
129.622
  0
LINE
  8
0
 10
5.27254
 20
129.622
 11
5.56444
 21
129.738
  0
LINE
  8
0
 10
5.56444
 20
129.738
 11
5.83955
 21
129.889
  0
LINE
  8
0
 10
5.83955
 20
129.889
 11
6.09355
 21
130.074
  0
LINE
  8
0
 10
6.09355
 20
130.074
 11
6.32242
 21
130.289
  0
LINE
  8
0
 10
6.32242
 20
130.289
 11
6.52254
 21
130.531
  0
LINE
  8
0
 10
6.52254
 20
130.531
 11
6.69077
 21
130.796
  0
LINE
  8
0
 10
6.69077
 20
130.796
 11
6.82443
 21
131.08
  0
LINE
  8
0
 10
6.82443
 20
131.08
 11
6.92145
 21
131.378
  0
LINE
  8
0
 10
6.92145
 20
131.378
 11
6.98029
 21
131.687
  0
LINE
  8
0
 10
6.98029
 20
131.687
 11
7
 21
132
  0
LINE
  8
0
 10
7
 20
132
 11
7
 21
196.627
  0
LINE
  8
0
 10
7
 20
196.627
 11
0
 21
196.627
  0
LINE
  8
0
 10
0
 20
196.627
 11
0
 21
193.197
  0
LINE
  8
0
 10
0
 20
193.197
 11
-7
 21
193.197
  0
LINE
  8
0
 10
-7
 20
193.197
 11
-7
 21
132
  0
LINE
  8
0
 10
-7
 20
132
 11
-6.98029
 21
131.687
  0
LINE
  8
0
 10
-6.98029
 20
131.687
 11
-6.92145
 21
131.378
  0
LINE
  8
0
 10
-6.92145
 20
131.378
 11
-6.82443
 21
131.08
  0
LINE
  8
0
 10
-6.82443
 20
131.08
 11
-6.69077
 21
130.796
  0
LINE
  8
0
 10
-6.69077
 20
130.796
 11
-6.52254
 21
130.531
  0
LINE
  8
0
 10
-6.52254
 20
130.531
 11
-6.32242
 21
130.289
  0
LINE
  8
0
 10
-6.32242
 20
130.289
 11
-6.09355
 21
130.074
  0
LINE
  8
0
 10
-6.09355
 20
130.074
 11
-5.83955
 21
129.889
  0
LINE
  8
0
 10
-5.83955
 20
129.889
 11
-5.56444
 21
129.738
  0
LINE
  8
0
 10
-5.56444
 20
129.738
 11
-5.27254
 21
129.622
  0
LINE
  8
0
 10
-5.27254
 20
129.622
 11
-4.96844
 21
129.544
  0
LINE
  8
0
 10
-4.96844
 20
129.544
 11
-4.65697
 21
129.505
  0
LINE
  8
0
 10
-4.65697
 20
129.505
 11
4.65697
 21
129.505
  0
LINE
  8
0
 10
4.65697
 20
129.505
 11
4.96844
 21
129.544
  0
LINE
  8
0
 10
-0.18837
 20
180.006
 11
-0.562134
 21
180.053
  0
LINE
  8
0
 10
-0.562134
 20
180.053
 11
-0.927048
 21
180.147
  0
LINE
  8
0
 10
-0.927048
 20
180.147
 11
-1.27733
 21
180.286
  0
LINE
  8
0
 10
-1.27733
 20
180.286
 11
-1.60747
 21
180.467
  0
LINE
  8
0
 10
-1.60747
 20
180.467
 11
-1.91226
 21
180.688
  0
LINE
  8
0
 10
-1.91226
 20
180.688
 11
-2.1869
 21
180.946
  0
LINE
  8
0
 10
-2.1869
 20
180.946
 11
-2.42705
 21
181.237
  0
LINE
  8
0
 10
-2.42705
 20
181.237
 11
-2.62891
 21
181.555
  0
LINE
  8
0
 10
-2.62891
 20
181.555
 11
-2.78932
 21
181.896
  0
LINE
  8
0
 10
-2.78932
 20
181.896
 11
-2.90575
 21
182.254
  0
LINE
  8
0
 10
-2.90575
 20
182.254
 11
-2.97633
 21
182.624
  0
LINE
  8
0
 10
-2.97633
 20
182.624
 11
-3
 21
183
  0
LINE
  8
0
 10
-3
 20
183
 11
-2.97633
 21
183.376
  0
LINE
  8
0
 10
-2.97633
 20
183.376
 11
-2.90575
 21
183.746
  0
LINE
  8
0
 10
-2.90575
 20
183.746
 11
-2.78932
 21
184.104
  0
LINE
  8
0
 10
-2.78932
 20
184.104
 11
-2.62891
 21
184.445
  0
LINE
  8
0
 10
-2.62891
 20
184.445
 11
-2.42705
 21
184.763
  0
LINE
  8
0
 10
-2.42705
 20
184.763
 11
-2.1869
 21
185.054
  0
LINE
  8
0
 10
-2.1869
 20
185.054
 11
-1.91226
 21
185.312
  0
LINE
  8
0
 10
-1.91226
 20
185.312
 11
-1.60747
 21
185.533
  0
LINE
  8
0
 10
-1.60747
 20
185.533
 11
-1.27733
 21
185.714
  0
LINE
  8
0
 10
-1.27733
 20
185.714
 11
-0.927048
 21
185.853
  0
LINE
  8
0
 10
-0.927048
 20
185.853
 11
-0.562134
 21
185.947
  0
LINE
  8
0
 10
-0.562134
 20
185.947
 11
-0.18837
 21
185.994
  0
LINE
  8
0
 10
-0.18837
 20
185.994
 11
0.18837
 21
185.994
  0
LINE
  8
0
 10
0.18837
 20
185.994
 11
0.562134
 21
185.947
  0
LINE
  8
0
 10
0.562134
 20
185.947
 11
0.927048
 21
185.853
  0
LINE
  8
0
 10
0.927048
 20
185.853
 11
1.27733
 21
185.714
  0
LINE
  8
0
 10
1.27733
 20
185.714
 11
1.60747
 21
185.533
  0
LINE
  8
0
 10
1.60747
 20
185.533
 11
1.91226
 21
185.312
  0
LINE
  8
0
 10
1.91226
 20
185.312
 11
2.1869
 21
185.054
  0
LINE
  8
0
 10
2.1869
 20
185.054
 11
2.42705
 21
184.763
  0
LINE
  8
0
 10
2.42705
 20
184.763
 11
2.62891
 21
184.445
  0
LINE
  8
0
 10
2.62891
 20
184.445
 11
2.78932
 21
184.104
  0
LINE
  8
0
 10
2.78932
 20
184.104
 11
2.90575
 21
183.746
  0
LINE
  8
0
 10
2.90575
 20
183.746
 11
2.97633
 21
183.376
  0
LINE
  8
0
 10
2.97633
 20
183.376
 11
3
 21
183
  0
LINE
  8
0
 10
3
 20
183
 11
2.97633
 21
182.624
  0
LINE
  8
0
 10
2.97633
 20
182.624
 11
2.90575
 21
182.254
  0
LINE
  8
0
 10
2.90575
 20
182.254
 11
2.78932
 21
181.896
  0
LINE
  8
0
 10
2.78932
 20
181.896
 11
2.62891
 21
181.555
  0
LINE
  8
0
 10
2.62891
 20
181.555
 11
2.42705
 21
181.237
  0
LINE
  8
0
 10
2.42705
 20
181.237
 11
2.1869
 21
180.946
  0
LINE
  8
0
 10
2.1869
 20
180.946
 11
1.91226
 21
180.688
  0
LINE
  8
0
 10
1.91226
 20
180.688
 11
1.60747
 21
180.467
  0
LINE
  8
0
 10
1.60747
 20
180.467
 11
1.27733
 21
180.286
  0
LINE
  8
0
 10
1.27733
 20
180.286
 11
0.927048
 21
180.147
  0
LINE
  8
0
 10
0.927048
 20
180.147
 11
0.562134
 21
180.053
  0
LINE
  8
0
 10
0.562134
 20
180.053
 11
0.18837
 21
180.006
  0
LINE
  8
0
 10
0.18837
 20
180.006
 11
-0.18837
 21
180.006
  0
LINE
  8
0
 10
-0.18837
 20
165.006
 11
-0.562134
 21
165.053
  0
LINE
  8
0
 10
-0.562134
 20
165.053
 11
-0.927048
 21
165.147
  0
LINE
  8
0
 10
-0.927048
 20
165.147
 11
-1.27733
 21
165.286
  0
LINE
  8
0
 10
-1.27733
 20
165.286
 11
-1.60747
 21
165.467
  0
LINE
  8
0
 10
-1.60747
 20
165.467
 11
-1.91226
 21
165.688
  0
LINE
  8
0
 10
-1.91226
 20
165.688
 11
-2.1869
 21
165.946
  0
LINE
  8
0
 10
-2.1869
 20
165.946
 11
-2.42705
 21
166.237
  0
LINE
  8
0
 10
-2.42705
 20
166.237
 11
-2.62891
 21
166.555
  0
LINE
  8
0
 10
-2.62891
 20
166.555
 11
-2.78932
 21
166.896
  0
LINE
  8
0
 10
-2.78932
 20
166.896
 11
-2.90575
 21
167.254
  0
LINE
  8
0
 10
-2.90575
 20
167.254
 11
-2.97633
 21
167.624
  0
LINE
  8
0
 10
-2.97633
 20
167.624
 11
-3
 21
168
  0
LINE
  8
0
 10
-3
 20
168
 11
-2.97633
 21
168.376
  0
LINE
  8
0
 10
-2.97633
 20
168.376
 11
-2.90575
 21
168.746
  0
LINE
  8
0
 10
-2.90575
 20
168.746
 11
-2.78932
 21
169.104
  0
LINE
  8
0
 10
-2.78932
 20
169.104
 11
-2.62891
 21
169.445
  0
LINE
  8
0
 10
-2.62891
 20
169.445
 11
-2.42705
 21
169.763
  0
LINE
  8
0
 10
-2.42705
 20
169.763
 11
-2.1869
 21
170.054
  0
LINE
  8
0
 10
-2.1869
 20
170.054
 11
-1.91226
 21
170.312
  0
LINE
  8
0
 10
-1.91226
 20
170.312
 11
-1.60747
 21
170.533
  0
LINE
  8
0
 10
-1.60747
 20
170.533
 11
-1.27733
 21
170.714
  0
LINE
  8
0
 10
-1.27733
 20
170.714
 11
-0.927048
 21
170.853
  0
LINE
  8
0
 10
-0.927048
 20
170.853
 11
-0.562134
 21
170.947
  0
LINE
  8
0
 10
-0.562134
 20
170.947
 11
-0.18837
 21
170.994
  0
LINE
  8
0
 10
-0.18837
 20
170.994
 11
0.18837
 21
170.994
  0
LINE
  8
0
 10
0.18837
 20
170.994
 11
0.562134
 21
170.947
  0
LINE
  8
0
 10
0.562134
 20
170.947
 11
0.927048
 21
170.853
  0
LINE
  8
0
 10
0.927048
 20
170.853
 11
1.27733
 21
170.714
  0
LINE
  8
0
 10
1.27733
 20
170.714
 11
1.60747
 21
170.533
  0
LINE
  8
0
 10
1.60747
 20
170.533
 11
1.91226
 21
170.312
  0
LINE
  8
0
 10
1.91226
 20
170.312
 11
2.1869
 21
170.054
  0
LINE
  8
0
 10
2.1869
 20
170.054
 11
2.42705
 21
169.763
  0
LINE
  8
0
 10
2.42705
 20
169.763
 11
2.62891
 21
169.445
  0
LINE
  8
0
 10
2.62891
 20
169.445
 11
2.78932
 21
169.104
  0
LINE
  8
0
 10
2.78932
 20
169.104
 11
2.90575
 21
168.746
  0
LINE
  8
0
 10
2.90575
 20
168.746
 11
2.97633
 21
168.376
  0
LINE
  8
0
 10
2.97633
 20
168.376
 11
3
 21
168
  0
LINE
  8
0
 10
3
 20
168
 11
2.97633
 21
167.624
  0
LINE
  8
0
 10
2.97633
 20
167.624
 11
2.90575
 21
167.254
  0
LINE
  8
0
 10
2.90575
 20
167.254
 11
2.78932
 21
166.896
  0
LINE
  8
0
 10
2.78932
 20
166.896
 11
2.62891
 21
166.555
  0
LINE
  8
0
 10
2.62891
 20
166.555
 11
2.42705
 21
166.237
  0
LINE
  8
0
 10
2.42705
 20
166.237
 11
2.1869
 21
165.946
  0
LINE
  8
0
 10
2.1869
 20
165.946
 11
1.91226
 21
165.688
  0
LINE
  8
0
 10
1.91226
 20
165.688
 11
1.60747
 21
165.467
  0
LINE
  8
0
 10
1.60747
 20
165.467
 11
1.27733
 21
165.286
  0
LINE
  8
0
 10
1.27733
 20
165.286
 11
0.927048
 21
165.147
  0
LINE
  8
0
 10
0.927048
 20
165.147
 11
0.562134
 21
165.053
  0
LINE
  8
0
 10
0.562134
 20
165.053
 11
0.18837
 21
165.006
  0
LINE
  8
0
 10
0.18837
 20
165.006
 11
-0.18837
 21
165.006
  0
LINE
  8
0
 10
-0.18837
 20
150.006
 11
-0.562134
 21
150.053
  0
LINE
  8
0
 10
-0.562134
 20
150.053
 11
-0.927048
 21
150.147
  0
LINE
  8
0
 10
-0.927048
 20
150.147
 11
-1.27733
 21
150.286
  0
LINE
  8
0
 10
-1.27733
 20
150.286
 11
-1.60747
 21
150.467
  0
LINE
  8
0
 10
-1.60747
 20
150.467
 11
-1.91226
 21
150.688
  0
LINE
  8
0
 10
-1.91226
 20
150.688
 11
-2.1869
 21
150.946
  0
LINE
  8
0
 10
-2.1869
 20
150.946
 11
-2.42705
 21
151.237
  0
LINE
  8
0
 10
-2.42705
 20
151.237
 11
-2.62891
 21
151.555
  0
LINE
  8
0
 10
-2.62891
 20
151.555
 11
-2.78932
 21
151.896
  0
LINE
  8
0
 10
-2.78932
 20
151.896
 11
-2.90575
 21
152.254
  0
LINE
  8
0
 10
-2.90575
 20
152.254
 11
-2.97633
 21
152.624
  0
LINE
  8
0
 10
-2.97633
 20
152.624
 11
-3
 21
153
  0
LINE
  8
0
 10
-3
 20
153
 11
-2.97633
 21
153.376
  0
LINE
  8
0
 10
-2.97633
 20
153.376
 11
-2.90575
 21
153.746
  0
LINE
  8
0
 10
-2.90575
 20
153.746
 11
-2.78932
 21
154.104
  0
LINE
  8
0
 10
-2.78932
 20
154.104
 11
-2.62891
 21
154.445
  0
LINE
  8
0
 10
-2.62891
 20
154.445
 11
-2.42705
 21
154.763
  0
LINE
  8
0
 10
-2.42705
 20
154.763
 11
-2.1869
 21
155.054
  0
LINE
  8
0
 10
-2.1869
 20
155.054
 11
-1.91226
 21
155.312
  0
LINE
  8
0
 10
-1.91226
 20
155.312
 11
-1.60747
 21
155.533
  0
LINE
  8
0
 10
-1.60747
 20
155.533
 11
-1.27733
 21
155.714
  0
LINE
  8
0
 10
-1.27733
 20
155.714
 11
-0.927048
 21
155.853
  0
LINE
  8
0
 10
-0.927048
 20
155.853
 11
-0.562134
 21
155.947
  0
LINE
  8
0
 10
-0.562134
 20
155.947
 11
-0.18837
 21
155.994
  0
LINE
  8
0
 10
-0.18837
 20
155.994
 11
0.18837
 21
155.994
  0
LINE
  8
0
 10
0.18837
 20
155.994
 11
0.562134
 21
155.947
  0
LINE
  8
0
 10
0.562134
 20
155.947
 11
0.927048
 21
155.853
  0
LINE
  8
0
 10
0.927048
 20
155.853
 11
1.27733
 21
155.714
  0
LINE
  8
0
 10
1.27733
 20
155.714
 11
1.60747
 21
155.533
  0
LINE
  8
0
 10
1.60747
 20
155.533
 11
1.91226
 21
155.312
  0
LINE
  8
0
 10
1.91226
 20
155.312
 11
2.1869
 21
155.054
  0
LINE
  8
0
 10
2.1869
 20
155.054
 11
2.42705
 21
154.763
  0
LINE
  8
0
 10
2.42705
 20
154.763
 11
2.62891
 21
154.445
  0
LINE
  8
0
 10
2.62891
 20
154.445
 11
2.78932
 21
154.104
  0
LINE
  8
0
 10
2.78932
 20
154.104
 11
2.90575
 21
153.746
  0
LINE
  8
0
 10
2.90575
 20
153.746
 11
2.97633
 21
153.376
  0
LINE
  8
0
 10
2.97633
 20
153.376
 11
3
 21
153
  0
LINE
  8
0
 10
3
 20
153
 11
2.97633
 21
152.624
  0
LINE
  8
0
 10
2.97633
 20
152.624
 11
2.90575
 21
152.254
  0
LINE
  8
0
 10
2.90575
 20
152.254
 11
2.78932
 21
151.896
  0
LINE
  8
0
 10
2.78932
 20
151.896
 11
2.62891
 21
151.555
  0
LINE
  8
0
 10
2.62891
 20
151.555
 11
2.42705
 21
151.237
  0
LINE
  8
0
 10
2.42705
 20
151.237
 11
2.1869
 21
150.946
  0
LINE
  8
0
 10
2.1869
 20
150.946
 11
1.91226
 21
150.688
  0
LINE
  8
0
 10
1.91226
 20
150.688
 11
1.60747
 21
150.467
  0
LINE
  8
0
 10
1.60747
 20
150.467
 11
1.27733
 21
150.286
  0
LINE
  8
0
 10
1.27733
 20
150.286
 11
0.927048
 21
150.147
  0
LINE
  8
0
 10
0.927048
 20
150.147
 11
0.562134
 21
150.053
  0
LINE
  8
0
 10
0.562134
 20
150.053
 11
0.18837
 21
150.006
  0
LINE
  8
0
 10
0.18837
 20
150.006
 11
-0.18837
 21
150.006
  0
LINE
  8
0
 10
-0.18837
 20
135.006
 11
-0.562134
 21
135.053
  0
LINE
  8
0
 10
-0.562134
 20
135.053
 11
-0.927048
 21
135.147
  0
LINE
  8
0
 10
-0.927048
 20
135.147
 11
-1.27733
 21
135.286
  0
LINE
  8
0
 10
-1.27733
 20
135.286
 11
-1.60747
 21
135.467
  0
LINE
  8
0
 10
-1.60747
 20
135.467
 11
-1.91226
 21
135.688
  0
LINE
  8
0
 10
-1.91226
 20
135.688
 11
-2.1869
 21
135.946
  0
LINE
  8
0
 10
-2.1869
 20
135.946
 11
-2.42705
 21
136.237
  0
LINE
  8
0
 10
-2.42705
 20
136.237
 11
-2.62891
 21
136.555
  0
LINE
  8
0
 10
-2.62891
 20
136.555
 11
-2.78932
 21
136.896
  0
LINE
  8
0
 10
-2.78932
 20
136.896
 11
-2.90575
 21
137.254
  0
LINE
  8
0
 10
-2.90575
 20
137.254
 11
-2.97633
 21
137.624
  0
LINE
  8
0
 10
-2.97633
 20
137.624
 11
-3
 21
138
  0
LINE
  8
0
 10
-3
 20
138
 11
-2.97633
 21
138.376
  0
LINE
  8
0
 10
-2.97633
 20
138.376
 11
-2.90575
 21
138.746
  0
LINE
  8
0
 10
-2.90575
 20
138.746
 11
-2.78932
 21
139.104
  0
LINE
  8
0
 10
-2.78932
 20
139.104
 11
-2.62891
 21
139.445
  0
LINE
  8
0
 10
-2.62891
 20
139.445
 11
-2.42705
 21
139.763
  0
LINE
  8
0
 10
-2.42705
 20
139.763
 11
-2.1869
 21
140.054
  0
LINE
  8
0
 10
-2.1869
 20
140.054
 11
-1.91226
 21
140.312
  0
LINE
  8
0
 10
-1.91226
 20
140.312
 11
-1.60747
 21
140.533
  0
LINE
  8
0
 10
-1.60747
 20
140.533
 11
-1.27733
 21
140.714
  0
LINE
  8
0
 10
-1.27733
 20
140.714
 11
-0.927048
 21
140.853
  0
LINE
  8
0
 10
-0.927048
 20
140.853
 11
-0.562134
 21
140.947
  0
LINE
  8
0
 10
-0.562134
 20
140.947
 11
-0.18837
 21
140.994
  0
LINE
  8
0
 10
-0.18837
 20
140.994
 11
0.18837
 21
140.994
  0
LINE
  8
0
 10
0.18837
 20
140.994
 11
0.562134
 21
140.947
  0
LINE
  8
0
 10
0.562134
 20
140.947
 11
0.927048
 21
140.853
  0
LINE
  8
0
 10
0.927048
 20
140.853
 11
1.27733
 21
140.714
  0
LINE
  8
0
 10
1.27733
 20
140.714
 11
1.60747
 21
140.533
  0
LINE
  8
0
 10
1.60747
 20
140.533
 11
1.91226
 21
140.312
  0
LINE
  8
0
 10
1.91226
 20
140.312
 11
2.1869
 21
140.054
  0
LINE
  8
0
 10
2.1869
 20
140.054
 11
2.42705
 21
139.763
  0
LINE
  8
0
 10
2.42705
 20
139.763
 11
2.62891
 21
139.445
  0
LINE
  8
0
 10
2.62891
 20
139.445
 11
2.78932
 21
139.104
  0
LINE
  8
0
 10
2.78932
 20
139.104
 11
2.90575
 21
138.746
  0
LINE
  8
0
 10
2.90575
 20
138.746
 11
2.97633
 21
138.376
  0
LINE
  8
0
 10
2.97633
 20
138.376
 11
3
 21
138
  0
LINE
  8
0
 10
3
 20
138
 11
2.97633
 21
137.624
  0
LINE
  8
0
 10
2.97633
 20
137.624
 11
2.90575
 21
137.254
  0
LINE
  8
0
 10
2.90575
 20
137.254
 11
2.78932
 21
136.896
  0
LINE
  8
0
 10
2.78932
 20
136.896
 11
2.62891
 21
136.555
  0
LINE
  8
0
 10
2.62891
 20
136.555
 11
2.42705
 21
136.237
  0
LINE
  8
0
 10
2.42705
 20
136.237
 11
2.1869
 21
135.946
  0
LINE
  8
0
 10
2.1869
 20
135.946
 11
1.91226
 21
135.688
  0
LINE
  8
0
 10
1.91226
 20
135.688
 11
1.60747
 21
135.467
  0
LINE
  8
0
 10
1.60747
 20
135.467
 11
1.27733
 21
135.286
  0
LINE
  8
0
 10
1.27733
 20
135.286
 11
0.927048
 21
135.147
  0
LINE
  8
0
 10
0.927048
 20
135.147
 11
0.562134
 21
135.053
  0
LINE
  8
0
 10
0.562134
 20
135.053
 11
0.18837
 21
135.006
  0
LINE
  8
0
 10
0.18837
 20
135.006
 11
-0.18837
 21
135.006
  0
LINE
  8
0
 10
4.96844
 20
45.5443
 11
5.27254
 21
45.6224
  0
LINE
  8
0
 10
5.27254
 20
45.6224
 11
5.56444
 21
45.7379
  0
LINE
  8
0
 10
5.56444
 20
45.7379
 11
5.83955
 21
45.8892
  0
LINE
  8
0
 10
5.83955
 20
45.8892
 11
6.09355
 21
46.0737
  0
LINE
  8
0
 10
6.09355
 20
46.0737
 11
6.32242
 21
46.2886
  0
LINE
  8
0
 10
6.32242
 20
46.2886
 11
6.52254
 21
46.5305
  0
LINE
  8
0
 10
6.52254
 20
46.5305
 11
6.69077
 21
46.7956
  0
LINE
  8
0
 10
6.69077
 20
46.7956
 11
6.82443
 21
47.0797
  0
LINE
  8
0
 10
6.82443
 20
47.0797
 11
6.92145
 21
47.3783
  0
LINE
  8
0
 10
6.92145
 20
47.3783
 11
6.98029
 21
47.6867
  0
LINE
  8
0
 10
6.98029
 20
47.6867
 11
7
 21
48
  0
LINE
  8
0
 10
7
 20
48
 11
7
 21
120
  0
LINE
  8
0
 10
7
 20
120
 11
6.98029
 21
120.313
  0
LINE
  8
0
 10
6.98029
 20
120.313
 11
6.92145
 21
120.622
  0
LINE
  8
0
 10
6.92145
 20
120.622
 11
6.82443
 21
120.92
  0
LINE
  8
0
 10
6.82443
 20
120.92
 11
6.69077
 21
121.204
  0
LINE
  8
0
 10
6.69077
 20
121.204
 11
6.52254
 21
121.469
  0
LINE
  8
0
 10
6.52254
 20
121.469
 11
6.32242
 21
121.711
  0
LINE
  8
0
 10
6.32242
 20
121.711
 11
6.09355
 21
121.926
  0
LINE
  8
0
 10
6.09355
 20
121.926
 11
5.83955
 21
122.111
  0
LINE
  8
0
 10
5.83955
 20
122.111
 11
5.56444
 21
122.262
  0
LINE
  8
0
 10
5.56444
 20
122.262
 11
5.27254
 21
122.378
  0
LINE
  8
0
 10
5.27254
 20
122.378
 11
4.96844
 21
122.456
  0
LINE
  8
0
 10
4.96844
 20
122.456
 11
4.65697
 21
122.495
  0
LINE
  8
0
 10
4.65697
 20
122.495
 11
-4.65697
 21
122.495
  0
LINE
  8
0
 10
-4.65697
 20
122.495
 11
-4.96844
 21
122.456
  0
LINE
  8
0
 10
-4.96844
 20
122.456
 11
-5.27254
 21
122.378
  0
LINE
  8
0
 10
-5.27254
 20
122.378
 11
-5.56444
 21
122.262
  0
LINE
  8
0
 10
-5.56444
 20
122.262
 11
-5.83955
 21
122.111
  0
LINE
  8
0
 10
-5.83955
 20
122.111
 11
-6.09355
 21
121.926
  0
LINE
  8
0
 10
-6.09355
 20
121.926
 11
-6.32242
 21
121.711
  0
LINE
  8
0
 10
-6.32242
 20
121.711
 11
-6.52254
 21
121.469
  0
LINE
  8
0
 10
-6.52254
 20
121.469
 11
-6.69077
 21
121.204
  0
LINE
  8
0
 10
-6.69077
 20
121.204
 11
-6.82443
 21
120.92
  0
LINE
  8
0
 10
-6.82443
 20
120.92
 11
-6.92145
 21
120.622
  0
LINE
  8
0
 10
-6.92145
 20
120.622
 11
-6.98029
 21
120.313
  0
LINE
  8
0
 10
-6.98029
 20
120.313
 11
-7
 21
120
  0
LINE
  8
0
 10
-7
 20
120
 11
-7
 21
118.149
  0
LINE
  8
0
 10
-7
 20
118.149
 11
0
 21
118.149
  0
LINE
  8
0
 10
0
 20
118.149
 11
0
 21
109.851
  0
LINE
  8
0
 10
0
 20
109.851
 11
-7
 21
109.851
  0
LINE
  8
0
 10
-7
 20
109.851
 11
-7
 21
48
  0
LINE
  8
0
 10
-7
 20
48
 11
-6.98029
 21
47.6867
  0
LINE
  8
0
 10
-6.98029
 20
47.6867
 11
-6.92145
 21
47.3783
  0
LINE
  8
0
 10
-6.92145
 20
47.3783
 11
-6.82443
 21
47.0797
  0
LINE
  8
0
 10
-6.82443
 20
47.0797
 11
-6.69077
 21
46.7956
  0
LINE
  8
0
 10
-6.69077
 20
46.7956
 11
-6.52254
 21
46.5305
  0
LINE
  8
0
 10
-6.52254
 20
46.5305
 11
-6.32242
 21
46.2886
  0
LINE
  8
0
 10
-6.32242
 20
46.2886
 11
-6.09355
 21
46.0737
  0
LINE
  8
0
 10
-6.09355
 20
46.0737
 11
-5.83955
 21
45.8892
  0
LINE
  8
0
 10
-5.83955
 20
45.8892
 11
-5.56444
 21
45.7379
  0
LINE
  8
0
 10
-5.56444
 20
45.7379
 11
-5.27254
 21
45.6224
  0
LINE
  8
0
 10
-5.27254
 20
45.6224
 11
-4.96844
 21
45.5443
  0
LINE
  8
0
 10
-4.96844
 20
45.5443
 11
-4.65697
 21
45.5049
  0
LINE
  8
0
 10
-4.65697
 20
45.5049
 11
4.65697
 21
45.5049
  0
LINE
  8
0
 10
4.65697
 20
45.5049
 11
4.96844
 21
45.5443
  0
LINE
  8
0
 10
4.96844
 20
-38.4557
 11
5.27254
 21
-38.3776
  0
LINE
  8
0
 10
5.27254
 20
-38.3776
 11
5.56444
 21
-38.2621
  0
LINE
  8
0
 10
5.56444
 20
-38.2621
 11
5.83955
 21
-38.1108
  0
LINE
  8
0
 10
5.83955
 20
-38.1108
 11
6.09355
 21
-37.9263
  0
LINE
  8
0
 10
6.09355
 20
-37.9263
 11
6.32242
 21
-37.7114
  0
LINE
  8
0
 10
6.32242
 20
-37.7114
 11
6.52254
 21
-37.4695
  0
LINE
  8
0
 10
6.52254
 20
-37.4695
 11
6.69077
 21
-37.2044
  0
LINE
  8
0
 10
6.69077
 20
-37.2044
 11
6.82443
 21
-36.9203
  0
LINE
  8
0
 10
6.82443
 20
-36.9203
 11
6.92145
 21
-36.6217
  0
LINE
  8
0
 10
6.92145
 20
-36.6217
 11
6.98029
 21
-36.3133
  0
LINE
  8
0
 10
6.98029
 20
-36.3133
 11
7
 21
-36
  0
LINE
  8
0
 10
7
 20
-36
 11
7
 21
36
  0
LINE
  8
0
 10
7
 20
36
 11
6.98029
 21
36.3133
  0
LINE
  8
0
 10
6.98029
 20
36.3133
 11
6.92145
 21
36.6217
  0
LINE
  8
0
 10
6.92145
 20
36.6217
 11
6.82443
 21
36.9203
  0
LINE
  8
0
 10
6.82443
 20
36.9203
 11
6.69077
 21
37.2044
  0
LINE
  8
0
 10
6.69077
 20
37.2044
 11
6.52254
 21
37.4695
  0
LINE
  8
0
 10
6.52254
 20
37.4695
 11
6.32242
 21
37.7114
  0
LINE
  8
0
 10
6.32242
 20
37.7114
 11
6.09355
 21
37.9263
  0
LINE
  8
0
 10
6.09355
 20
37.9263
 11
5.83955
 21
38.1108
  0
LINE
  8
0
 10
5.83955
 20
38.1108
 11
5.56444
 21
38.2621
  0
LINE
  8
0
 10
5.56444
 20
38.2621
 11
5.27254
 21
38.3776
  0
LINE
  8
0
 10
5.27254
 20
38.3776
 11
4.96844
 21
38.4557
  0
LINE
  8
0
 10
4.96844
 20
38.4557
 11
4.65697
 21
38.4951
  0
LINE
  8
0
 10
4.65697
 20
38.4951
 11
-4.65697
 21
38.4951
  0
LINE
  8
0
 10
-4.65697
 20
38.4951
 11
-4.96844
 21
38.4557
  0
LINE
  8
0
 10
-4.96844
 20
38.4557
 11
-5.27254
 21
38.3776
  0
LINE
  8
0
 10
-5.27254
 20
38.3776
 11
-5.56444
 21
38.2621
  0
LINE
  8
0
 10
-5.56444
 20
38.2621
 11
-5.83955
 21
38.1108
  0
LINE
  8
0
 10
-5.83955
 20
38.1108
 11
-6.09355
 21
37.9263
  0
LINE
  8
0
 10
-6.09355
 20
37.9263
 11
-6.32242
 21
37.7114
  0
LINE
  8
0
 10
-6.32242
 20
37.7114
 11
-6.52254
 21
37.4695
  0
LINE
  8
0
 10
-6.52254
 20
37.4695
 11
-6.69077
 21
37.2044
  0
LINE
  8
0
 10
-6.69077
 20
37.2044
 11
-6.82443
 21
36.9203
  0
LINE
  8
0
 10
-6.82443
 20
36.9203
 11
-6.92145
 21
36.6217
  0
LINE
  8
0
 10
-6.92145
 20
36.6217
 11
-6.98029
 21
36.3133
  0
LINE
  8
0
 10
-6.98029
 20
36.3133
 11
-7
 21
36
  0
LINE
  8
0
 10
-7
 20
36
 11
-7
 21
-36
  0
LINE
  8
0
 10
-7
 20
-36
 11
-6.98029
 21
-36.3133
  0
LINE
  8
0
 10
-6.98029
 20
-36.3133
 11
-6.92145
 21
-36.6217
  0
LINE
  8
0
 10
-6.92145
 20
-36.6217
 11
-6.82443
 21
-36.9203
  0
LINE
  8
0
 10
-6.82443
 20
-36.9203
 11
-6.69077
 21
-37.2044
  0
LINE
  8
0
 10
-6.69077
 20
-37.2044
 11
-6.52254
 21
-37.4695
  0
LINE
  8
0
 10
-6.52254
 20
-37.4695
 11
-6.32242
 21
-37.7114
  0
LINE
  8
0
 10
-6.32242
 20
-37.7114
 11
-6.09355
 21
-37.9263
  0
LINE
  8
0
 10
-6.09355
 20
-37.9263
 11
-5.83955
 21
-38.1108
  0
LINE
  8
0
 10
-5.83955
 20
-38.1108
 11
-5.56444
 21
-38.2621
  0
LINE
  8
0
 10
-5.56444
 20
-38.2621
 11
-5.27254
 21
-38.3776
  0
LINE
  8
0
 10
-5.27254
 20
-38.3776
 11
-4.96844
 21
-38.4557
  0
LINE
  8
0
 10
-4.96844
 20
-38.4557
 11
-4.65697
 21
-38.4951
  0
LINE
  8
0
 10
-4.65697
 20
-38.4951
 11
4.65697
 21
-38.4951
  0
LINE
  8
0
 10
4.65697
 20
-38.4951
 11
4.96844
 21
-38.4557
  0
ENDSEC
  0
SECTION
  2
OBJECTS
  0
DICTIONARY
  0
ENDSEC
  0
EOF
