<?xml version="1.0" standalone="no"?>
<!DOCTYPE svg PUBLIC "-//W3C//DTD SVG 1.1//EN" "http://www.w3.org/Graphics/SVG/1.1/DTD/svg11.dtd">
<svg width="18mm" height="326mm" viewBox="-9 -289 18 326" xmlns="http://www.w3.org/2000/svg" version="1.1">
<title>OpenSCAD Model</title>
<path d="
M 4.4369,-215.089 L 5.04507,-215.245 L 5.62889,-215.476 L 6.17912,-215.778 L 6.68712,-216.147 L 7.14484,-216.577
 L 7.54507,-217.061 L 7.88153,-217.591 L 8.14888,-218.159 L 8.34291,-218.757 L 8.46057,-219.373 L 8.5,-220
 L 8.5,-284 L 8.46057,-284.627 L 8.34291,-285.243 L 8.14888,-285.841 L 7.88153,-286.409 L 7.54507,-286.939
 L 7.14484,-287.423 L 6.68712,-287.853 L 6.17912,-288.222 L 5.62889,-288.524 L 5.04507,-288.755 L 4.4369,-288.911
 L 3.81395,-288.99 L -3.81395,-288.99 L -4.4369,-288.911 L -5.04507,-288.755 L -5.62889,-288.524 L -6.17912,-288.222
 L -6.68712,-287.853 L -7.14484,-287.423 L -7.54507,-286.939 L -7.88153,-286.409 L -8.14888,-285.841 L -8.34291,-285.243
 L -8.46057,-284.627 L -8.5,-284 L -8.5,-220 L -8.46057,-219.373 L -8.34291,-218.757 L -8.14888,-218.159
 L -7.88153,-217.591 L -7.54507,-217.061 L -7.14484,-216.577 L -6.68712,-216.147 L -6.17912,-215.778 L -5.62889,-215.476
 L -5.04507,-215.245 L -4.4369,-215.089 L -3.81395,-215.01 L 3.81395,-215.01 z
M -0.30452,-277.16 L -0.908798,-277.236 L -1.49872,-277.387 L -2.06502,-277.612 L -2.59875,-277.905 L -3.09149,-278.263
 L -3.53549,-278.68 L -3.92372,-279.149 L -4.25008,-279.663 L -4.50941,-280.215 L -4.69762,-280.794 L -4.81175,-281.392
 L -4.84999,-282 L -4.81175,-282.608 L -4.69762,-283.206 L -4.50941,-283.785 L -4.25008,-284.337 L -3.92372,-284.851
 L -3.53549,-285.32 L -3.09149,-285.737 L -2.59875,-286.095 L -2.06502,-286.388 L -1.49872,-286.613 L -0.908798,-286.764
 L -0.30452,-286.84 L 0.30452,-286.84 L 0.908798,-286.764 L 1.49872,-286.613 L 2.06502,-286.388 L 2.59875,-286.095
 L 3.09149,-285.737 L 3.53549,-285.32 L 3.92372,-284.851 L 4.25008,-284.337 L 4.50941,-283.785 L 4.69762,-283.206
 L 4.81175,-282.608 L 4.84999,-282 L 4.81175,-281.392 L 4.69762,-280.794 L 4.50941,-280.215 L 4.25008,-279.663
 L 3.92372,-279.149 L 3.53549,-278.68 L 3.09149,-278.263 L 2.59875,-277.905 L 2.06502,-277.612 L 1.49872,-277.387
 L 0.908798,-277.236 L 0.30452,-277.16 z
M -0.18837,-264.006 L -0.562134,-264.053 L -0.927048,-264.147 L -1.27733,-264.286 L -1.60747,-264.467 L -1.91226,-264.688
 L -2.1869,-264.946 L -2.42705,-265.237 L -2.62891,-265.555 L -2.78932,-265.896 L -2.90575,-266.254 L -2.97633,-266.624
 L -3,-267 L -2.97633,-267.376 L -2.90575,-267.746 L -2.78932,-268.104 L -2.62891,-268.445 L -2.42705,-268.763
 L -2.1869,-269.054 L -1.91226,-269.312 L -1.60747,-269.533 L -1.27733,-269.714 L -0.927048,-269.853 L -0.562134,-269.947
 L -0.18837,-269.994 L 0.18837,-269.994 L 0.562134,-269.947 L 0.927048,-269.853 L 1.27733,-269.714 L 1.60747,-269.533
 L 1.91226,-269.312 L 2.1869,-269.054 L 2.42705,-268.763 L 2.62891,-268.445 L 2.78932,-268.104 L 2.90575,-267.746
 L 2.97633,-267.376 L 3,-267 L 2.97633,-266.624 L 2.90575,-266.254 L 2.78932,-265.896 L 2.62891,-265.555
 L 2.42705,-265.237 L 2.1869,-264.946 L 1.91226,-264.688 L 1.60747,-264.467 L 1.27733,-264.286 L 0.927048,-264.147
 L 0.562134,-264.053 L 0.18837,-264.006 z
M -0.18837,-249.006 L -0.562134,-249.053 L -0.927048,-249.147 L -1.27733,-249.286 L -1.60747,-249.467 L -1.91226,-249.688
 L -2.1869,-249.946 L -2.42705,-250.237 L -2.62891,-250.555 L -2.78932,-250.896 L -2.90575,-251.254 L -2.97633,-251.624
 L -3,-252 L -2.97633,-252.376 L -2.90575,-252.746 L -2.78932,-253.104 L -2.62891,-253.445 L -2.42705,-253.763
 L -2.1869,-254.054 L -1.91226,-254.312 L -1.60747,-254.533 L -1.27733,-254.714 L -0.927048,-254.853 L -0.562134,-254.947
 L -0.18837,-254.994 L 0.18837,-254.994 L 0.562134,-254.947 L 0.927048,-254.853 L 1.27733,-254.714 L 1.60747,-254.533
 L 1.91226,-254.312 L 2.1869,-254.054 L 2.42705,-253.763 L 2.62891,-253.445 L 2.78932,-253.104 L 2.90575,-252.746
 L 2.97633,-252.376 L 3,-252 L 2.97633,-251.624 L 2.90575,-251.254 L 2.78932,-250.896 L 2.62891,-250.555
 L 2.42705,-250.237 L 2.1869,-249.946 L 1.91226,-249.688 L 1.60747,-249.467 L 1.27733,-249.286 L 0.927048,-249.147
 L 0.562134,-249.053 L 0.18837,-249.006 z
M -0.18837,-234.006 L -0.562134,-234.053 L -0.927048,-234.147 L -1.27733,-234.286 L -1.60747,-234.467 L -1.91226,-234.688
 L -2.1869,-234.946 L -2.42705,-235.237 L -2.62891,-235.555 L -2.78932,-235.896 L -2.90575,-236.254 L -2.97633,-236.624
 L -3,-237 L -2.97633,-237.376 L -2.90575,-237.746 L -2.78932,-238.104 L -2.62891,-238.445 L -2.42705,-238.763
 L -2.1869,-239.054 L -1.91226,-239.312 L -1.60747,-239.533 L -1.27733,-239.714 L -0.927048,-239.853 L -0.562134,-239.947
 L -0.18837,-239.994 L 0.18837,-239.994 L 0.562134,-239.947 L 0.927048,-239.853 L 1.27733,-239.714 L 1.60747,-239.533
 L 1.91226,-239.312 L 2.1869,-239.054 L 2.42705,-238.763 L 2.62891,-238.445 L 2.78932,-238.104 L 2.90575,-237.746
 L 2.97633,-237.376 L 3,-237 L 2.97633,-236.624 L 2.90575,-236.254 L 2.78932,-235.896 L 2.62891,-235.555
 L 2.42705,-235.237 L 2.1869,-234.946 L 1.91226,-234.688 L 1.60747,-234.467 L 1.27733,-234.286 L 0.927048,-234.147
 L 0.562134,-234.053 L 0.18837,-234.006 z
M -0.18837,-219.006 L -0.562134,-219.053 L -0.927048,-219.147 L -1.27733,-219.286 L -1.60747,-219.467 L -1.91226,-219.688
 L -2.1869,-219.946 L -2.42705,-220.237 L -2.62891,-220.555 L -2.78932,-220.896 L -2.90575,-221.254 L -2.97633,-221.624
 L -3,-222 L -2.97633,-222.376 L -2.90575,-222.746 L -2.78932,-223.104 L -2.62891,-223.445 L -2.42705,-223.763
 L -2.1869,-224.054 L -1.91226,-224.312 L -1.60747,-224.533 L -1.27733,-224.714 L -0.927048,-224.853 L -0.562134,-224.947
 L -0.18837,-224.994 L 0.18837,-224.994 L 0.562134,-224.947 L 0.927048,-224.853 L 1.27733,-224.714 L 1.60747,-224.533
 L 1.91226,-224.312 L 2.1869,-224.054 L 2.42705,-223.763 L 2.62891,-223.445 L 2.78932,-223.104 L 2.90575,-222.746
 L 2.97633,-222.376 L 3,-222 L 2.97633,-221.624 L 2.90575,-221.254 L 2.78932,-220.896 L 2.62891,-220.555
 L 2.42705,-220.237 L 2.1869,-219.946 L 1.91226,-219.688 L 1.60747,-219.467 L 1.27733,-219.286 L 0.927048,-219.147
 L 0.562134,-219.053 L 0.18837,-219.006 z
M 4.4369,-131.089 L 5.04507,-131.245 L 5.62889,-131.476 L 6.17912,-131.778 L 6.68712,-132.147 L 7.14484,-132.577
 L 7.54507,-133.061 L 7.88153,-133.591 L 8.14888,-134.159 L 8.34291,-134.757 L 8.46057,-135.373 L 8.5,-136
 L 8.5,-200 L 8.46057,-200.627 L 8.34291,-201.243 L 8.14888,-201.841 L 7.88153,-202.409 L 7.54507,-202.939
 L 7.14484,-203.423 L 6.68712,-203.853 L 6.17912,-204.222 L 5.62889,-204.524 L 5.04507,-204.755 L 4.4369,-204.911
 L 3.81395,-204.99 L -3.81395,-204.99 L -4.4369,-204.911 L -5.04507,-204.755 L -5.62889,-204.524 L -6.17912,-204.222
 L -6.68712,-203.853 L -7.14484,-203.423 L -7.54507,-202.939 L -7.88153,-202.409 L -8.14888,-201.841 L -8.34291,-201.243
 L -8.46057,-200.627 L -8.5,-200 L -8.5,-136 L -8.46057,-135.373 L -8.34291,-134.757 L -8.14888,-134.159
 L -7.88153,-133.591 L -7.54507,-133.061 L -7.14484,-132.577 L -6.68712,-132.147 L -6.17912,-131.778 L -5.62889,-131.476
 L -5.04507,-131.245 L -4.4369,-131.089 L -3.81395,-131.01 L 3.81395,-131.01 z
M -0.30452,-193.16 L -0.908798,-193.236 L -1.49872,-193.387 L -2.06502,-193.612 L -2.59875,-193.905 L -3.09149,-194.263
 L -3.53549,-194.68 L -3.92372,-195.149 L -4.25008,-195.663 L -4.50941,-196.215 L -4.69762,-196.794 L -4.81175,-197.392
 L -4.84999,-198 L -4.81175,-198.608 L -4.69762,-199.206 L -4.50941,-199.785 L -4.25008,-200.337 L -3.92372,-200.851
 L -3.53549,-201.32 L -3.09149,-201.737 L -2.59875,-202.095 L -2.06502,-202.388 L -1.49872,-202.613 L -0.908798,-202.764
 L -0.30452,-202.84 L 0.30452,-202.84 L 0.908798,-202.764 L 1.49872,-202.613 L 2.06502,-202.388 L 2.59875,-202.095
 L 3.09149,-201.737 L 3.53549,-201.32 L 3.92372,-200.851 L 4.25008,-200.337 L 4.50941,-199.785 L 4.69762,-199.206
 L 4.81175,-198.608 L 4.84999,-198 L 4.81175,-197.392 L 4.69762,-196.794 L 4.50941,-196.215 L 4.25008,-195.663
 L 3.92372,-195.149 L 3.53549,-194.68 L 3.09149,-194.263 L 2.59875,-193.905 L 2.06502,-193.612 L 1.49872,-193.387
 L 0.908798,-193.236 L 0.30452,-193.16 z
M -0.18837,-180.006 L -0.562134,-180.053 L -0.927048,-180.147 L -1.27733,-180.286 L -1.60747,-180.467 L -1.91226,-180.688
 L -2.1869,-180.946 L -2.42705,-181.237 L -2.62891,-181.555 L -2.78932,-181.896 L -2.90575,-182.254 L -2.97633,-182.624
 L -3,-183 L -2.97633,-183.376 L -2.90575,-183.746 L -2.78932,-184.104 L -2.62891,-184.445 L -2.42705,-184.763
 L -2.1869,-185.054 L -1.91226,-185.312 L -1.60747,-185.533 L -1.27733,-185.714 L -0.927048,-185.853 L -0.562134,-185.947
 L -0.18837,-185.994 L 0.18837,-185.994 L 0.562134,-185.947 L 0.927048,-185.853 L 1.27733,-185.714 L 1.60747,-185.533
 L 1.91226,-185.312 L 2.1869,-185.054 L 2.42705,-184.763 L 2.62891,-184.445 L 2.78932,-184.104 L 2.90575,-183.746
 L 2.97633,-183.376 L 3,-183 L 2.97633,-182.624 L 2.90575,-182.254 L 2.78932,-181.896 L 2.62891,-181.555
 L 2.42705,-181.237 L 2.1869,-180.946 L 1.91226,-180.688 L 1.60747,-180.467 L 1.27733,-180.286 L 0.927048,-180.147
 L 0.562134,-180.053 L 0.18837,-180.006 z
M -0.18837,-165.006 L -0.562134,-165.053 L -0.927048,-165.147 L -1.27733,-165.286 L -1.60747,-165.467 L -1.91226,-165.688
 L -2.1869,-165.946 L -2.42705,-166.237 L -2.62891,-166.555 L -2.78932,-166.896 L -2.90575,-167.254 L -2.97633,-167.624
 L -3,-168 L -2.97633,-168.376 L -2.90575,-168.746 L -2.78932,-169.104 L -2.62891,-169.445 L -2.42705,-169.763
 L -2.1869,-170.054 L -1.91226,-170.312 L -1.60747,-170.533 L -1.27733,-170.714 L -0.927048,-170.853 L -0.562134,-170.947
 L -0.18837,-170.994 L 0.18837,-170.994 L 0.562134,-170.947 L 0.927048,-170.853 L 1.27733,-170.714 L 1.60747,-170.533
 L 1.91226,-170.312 L 2.1869,-170.054 L 2.42705,-169.763 L 2.62891,-169.445 L 2.78932,-169.104 L 2.90575,-168.746
 L 2.97633,-168.376 L 3,-168 L 2.97633,-167.624 L 2.90575,-167.254 L 2.78932,-166.896 L 2.62891,-166.555
 L 2.42705,-166.237 L 2.1869,-165.946 L 1.91226,-165.688 L 1.60747,-165.467 L 1.27733,-165.286 L 0.927048,-165.147
 L 0.562134,-165.053 L 0.18837,-165.006 z
M -0.18837,-150.006 L -0.562134,-150.053 L -0.927048,-150.147 L -1.27733,-150.286 L -1.60747,-150.467 L -1.91226,-150.688
 L -2.1869,-150.946 L -2.42705,-151.237 L -2.62891,-151.555 L -2.78932,-151.896 L -2.90575,-152.254 L -2.97633,-152.624
 L -3,-153 L -2.97633,-153.376 L -2.90575,-153.746 L -2.78932,-154.104 L -2.62891,-154.445 L -2.42705,-154.763
 L -2.1869,-155.054 L -1.91226,-155.312 L -1.60747,-155.533 L -1.27733,-155.714 L -0.927048,-155.853 L -0.562134,-155.947
 L -0.18837,-155.994 L 0.18837,-155.994 L 0.562134,-155.947 L 0.927048,-155.853 L 1.27733,-155.714 L 1.60747,-155.533
 L 1.91226,-155.312 L 2.1869,-155.054 L 2.42705,-154.763 L 2.62891,-154.445 L 2.78932,-154.104 L 2.90575,-153.746
 L 2.97633,-153.376 L 3,-153 L 2.97633,-152.624 L 2.90575,-152.254 L 2.78932,-151.896 L 2.62891,-151.555
 L 2.42705,-151.237 L 2.1869,-150.946 L 1.91226,-150.688 L 1.60747,-150.467 L 1.27733,-150.286 L 0.927048,-150.147
 L 0.562134,-150.053 L 0.18837,-150.006 z
M -0.18837,-135.006 L -0.562134,-135.053 L -0.927048,-135.147 L -1.27733,-135.286 L -1.60747,-135.467 L -1.91226,-135.688
 L -2.1869,-135.946 L -2.42705,-136.237 L -2.62891,-136.555 L -2.78932,-136.896 L -2.90575,-137.254 L -2.97633,-137.624
 L -3,-138 L -2.97633,-138.376 L -2.90575,-138.746 L -2.78932,-139.104 L -2.62891,-139.445 L -2.42705,-139.763
 L -2.1869,-140.054 L -1.91226,-140.312 L -1.60747,-140.533 L -1.27733,-140.714 L -0.927048,-140.853 L -0.562134,-140.947
 L -0.18837,-140.994 L 0.18837,-140.994 L 0.562134,-140.947 L 0.927048,-140.853 L 1.27733,-140.714 L 1.60747,-140.533
 L 1.91226,-140.312 L 2.1869,-140.054 L 2.42705,-139.763 L 2.62891,-139.445 L 2.78932,-139.104 L 2.90575,-138.746
 L 2.97633,-138.376 L 3,-138 L 2.97633,-137.624 L 2.90575,-137.254 L 2.78932,-136.896 L 2.62891,-136.555
 L 2.42705,-136.237 L 2.1869,-135.946 L 1.91226,-135.688 L 1.60747,-135.467 L 1.27733,-135.286 L 0.927048,-135.147
 L 0.562134,-135.053 L 0.18837,-135.006 z
M 4.4369,-47.0886 L 5.04507,-47.2447 L 5.62889,-47.4759 L 6.17912,-47.7784 L 6.68712,-48.1474 L 7.14484,-48.5773
 L 7.54507,-49.0611 L 7.88153,-49.5912 L 8.14888,-50.1594 L 8.34291,-50.7566 L 8.46057,-51.3733 L 8.5,-52
 L 8.5,-116 L 8.46057,-116.627 L 8.34291,-117.243 L 8.14888,-117.841 L 7.88153,-118.409 L 7.54507,-118.939
 L 7.14484,-119.423 L 6.68712,-119.853 L 6.17912,-120.222 L 5.62889,-120.524 L 5.04507,-120.755 L 4.4369,-120.911
 L 3.81395,-120.99 L -3.81395,-120.99 L -4.4369,-120.911 L -5.04507,-120.755 L -5.62889,-120.524 L -6.17912,-120.222
 L -6.68712,-119.853 L -7.14484,-119.423 L -7.54507,-118.939 L -7.88153,-118.409 L -8.14888,-117.841 L -8.34291,-117.243
 L -8.46057,-116.627 L -8.5,-116 L -8.5,-52 L -8.46057,-51.3733 L -8.34291,-50.7566 L -8.14888,-50.1594
 L -7.88153,-49.5912 L -7.54507,-49.0611 L -7.14484,-48.5773 L -6.68712,-48.1474 L -6.17912,-47.7784 L -5.62889,-47.4759
 L -5.04507,-47.2447 L -4.4369,-47.0886 L -3.81395,-47.0099 L 3.81395,-47.0099 z
M -0.30452,-109.16 L -0.908798,-109.236 L -1.49872,-109.387 L -2.06502,-109.612 L -2.59875,-109.905 L -3.09149,-110.263
 L -3.53549,-110.68 L -3.92372,-111.149 L -4.25008,-111.663 L -4.50941,-112.215 L -4.69762,-112.794 L -4.81175,-113.392
 L -4.84999,-114 L -4.81175,-114.608 L -4.69762,-115.206 L -4.50941,-115.785 L -4.25008,-116.337 L -3.92372,-116.851
 L -3.53549,-117.32 L -3.09149,-117.737 L -2.59875,-118.095 L -2.06502,-118.388 L -1.49872,-118.613 L -0.908798,-118.764
 L -0.30452,-118.84 L 0.30452,-118.84 L 0.908798,-118.764 L 1.49872,-118.613 L 2.06502,-118.388 L 2.59875,-118.095
 L 3.09149,-117.737 L 3.53549,-117.32 L 3.92372,-116.851 L 4.25008,-116.337 L 4.50941,-115.785 L 4.69762,-115.206
 L 4.81175,-114.608 L 4.84999,-114 L 4.81175,-113.392 L 4.69762,-112.794 L 4.50941,-112.215 L 4.25008,-111.663
 L 3.92372,-111.149 L 3.53549,-110.68 L 3.09149,-110.263 L 2.59875,-109.905 L 2.06502,-109.612 L 1.49872,-109.387
 L 0.908798,-109.236 L 0.30452,-109.16 z
M -0.18837,-96.0059 L -0.562134,-96.0531 L -0.927048,-96.1468 L -1.27733,-96.2855 L -1.60747,-96.467 L -1.91226,-96.6884
 L -2.1869,-96.9464 L -2.42705,-97.2366 L -2.62891,-97.5547 L -2.78932,-97.8956 L -2.90575,-98.2539 L -2.97633,-98.624
 L -3,-99 L -2.97633,-99.376 L -2.90575,-99.7461 L -2.78932,-100.104 L -2.62891,-100.445 L -2.42705,-100.763
 L -2.1869,-101.054 L -1.91226,-101.312 L -1.60747,-101.533 L -1.27733,-101.714 L -0.927048,-101.853 L -0.562134,-101.947
 L -0.18837,-101.994 L 0.18837,-101.994 L 0.562134,-101.947 L 0.927048,-101.853 L 1.27733,-101.714 L 1.60747,-101.533
 L 1.91226,-101.312 L 2.1869,-101.054 L 2.42705,-100.763 L 2.62891,-100.445 L 2.78932,-100.104 L 2.90575,-99.7461
 L 2.97633,-99.376 L 3,-99 L 2.97633,-98.624 L 2.90575,-98.2539 L 2.78932,-97.8956 L 2.62891,-97.5547
 L 2.42705,-97.2366 L 2.1869,-96.9464 L 1.91226,-96.6884 L 1.60747,-96.467 L 1.27733,-96.2855 L 0.927048,-96.1468
 L 0.562134,-96.0531 L 0.18837,-96.0059 z
M -0.18837,-81.0059 L -0.562134,-81.0531 L -0.927048,-81.1468 L -1.27733,-81.2855 L -1.60747,-81.467 L -1.91226,-81.6885
 L -2.1869,-81.9464 L -2.42705,-82.2366 L -2.62891,-82.5547 L -2.78932,-82.8956 L -2.90575,-83.2539 L -2.97633,-83.624
 L -3,-84 L -2.97633,-84.376 L -2.90575,-84.7461 L -2.78932,-85.1044 L -2.62891,-85.4453 L -2.42705,-85.7634
 L -2.1869,-86.0536 L -1.91226,-86.3115 L -1.60747,-86.533 L -1.27733,-86.7145 L -0.927048,-86.8532 L -0.562134,-86.9469
 L -0.18837,-86.9941 L 0.18837,-86.9941 L 0.562134,-86.9469 L 0.927048,-86.8532 L 1.27733,-86.7145 L 1.60747,-86.533
 L 1.91226,-86.3115 L 2.1869,-86.0536 L 2.42705,-85.7634 L 2.62891,-85.4453 L 2.78932,-85.1044 L 2.90575,-84.7461
 L 2.97633,-84.376 L 3,-84 L 2.97633,-83.624 L 2.90575,-83.2539 L 2.78932,-82.8956 L 2.62891,-82.5547
 L 2.42705,-82.2366 L 2.1869,-81.9464 L 1.91226,-81.6885 L 1.60747,-81.467 L 1.27733,-81.2855 L 0.927048,-81.1468
 L 0.562134,-81.0531 L 0.18837,-81.0059 z
M -0.18837,-66.0059 L -0.562134,-66.0531 L -0.927048,-66.1468 L -1.27733,-66.2855 L -1.60747,-66.467 L -1.91226,-66.6885
 L -2.1869,-66.9464 L -2.42705,-67.2366 L -2.62891,-67.5547 L -2.78932,-67.8956 L -2.90575,-68.2539 L -2.97633,-68.624
 L -3,-69 L -2.97633,-69.376 L -2.90575,-69.7461 L -2.78932,-70.1044 L -2.62891,-70.4453 L -2.42705,-70.7634
 L -2.1869,-71.0536 L -1.91226,-71.3116 L -1.60747,-71.533 L -1.27733,-71.7145 L -0.927048,-71.8532 L -0.562134,-71.9469
 L -0.18837,-71.9941 L 0.18837,-71.9941 L 0.562134,-71.9469 L 0.927048,-71.8532 L 1.27733,-71.7145 L 1.60747,-71.533
 L 1.91226,-71.3116 L 2.1869,-71.0536 L 2.42705,-70.7634 L 2.62891,-70.4453 L 2.78932,-70.1044 L 2.90575,-69.7461
 L 2.97633,-69.376 L 3,-69 L 2.97633,-68.624 L 2.90575,-68.2539 L 2.78932,-67.8956 L 2.62891,-67.5547
 L 2.42705,-67.2366 L 2.1869,-66.9464 L 1.91226,-66.6885 L 1.60747,-66.467 L 1.27733,-66.2855 L 0.927048,-66.1468
 L 0.562134,-66.0531 L 0.18837,-66.0059 z
M -0.18837,-51.0059 L -0.562134,-51.0531 L -0.927048,-51.1468 L -1.27733,-51.2855 L -1.60747,-51.467 L -1.91226,-51.6885
 L -2.1869,-51.9464 L -2.42705,-52.2366 L -2.62891,-52.5547 L -2.78932,-52.8956 L -2.90575,-53.2539 L -2.97633,-53.624
 L -3,-54 L -2.97633,-54.376 L -2.90575,-54.7461 L -2.78932,-55.1044 L -2.62891,-55.4453 L -2.42705,-55.7634
 L -2.1869,-56.0536 L -1.91226,-56.3116 L -1.60747,-56.533 L -1.27733,-56.7145 L -0.927048,-56.8532 L -0.562134,-56.9469
 L -0.18837,-56.9941 L 0.18837,-56.9941 L 0.562134,-56.9469 L 0.927048,-56.8532 L 1.27733,-56.7145 L 1.60747,-56.533
 L 1.91226,-56.3116 L 2.1869,-56.0536 L 2.42705,-55.7634 L 2.62891,-55.4453 L 2.78932,-55.1044 L 2.90575,-54.7461
 L 2.97633,-54.376 L 3,-54 L 2.97633,-53.624 L 2.90575,-53.2539 L 2.78932,-52.8956 L 2.62891,-52.5547
 L 2.42705,-52.2366 L 2.1869,-51.9464 L 1.91226,-51.6885 L 1.60747,-51.467 L 1.27733,-51.2855 L 0.927048,-51.1468
 L 0.562134,-51.0531 L 0.18837,-51.0059 z
M 4.4369,36.9114 L 5.04507,36.7553 L 5.62889,36.5241 L 6.17912,36.2216 L 6.68712,35.8526 L 7.14484,35.4227
 L 7.54507,34.9389 L 7.88153,34.4088 L 8.14888,33.8406 L 8.34291,33.2434 L 8.46057,32.6267 L 8.5,32
 L 8.5,-32 L 8.46057,-32.6267 L 8.34291,-33.2434 L 8.14888,-33.8406 L 7.88153,-34.4088 L 7.54507,-34.9389
 L 7.14484,-35.4227 L 6.68712,-35.8526 L 6.17912,-36.2216 L 5.62889,-36.5241 L 5.04507,-36.7553 L 4.4369,-36.9114
 L 3.81395,-36.9901 L -3.81395,-36.9901 L -4.4369,-36.9114 L -5.04507,-36.7553 L -5.62889,-36.5241 L -6.17912,-36.2216
 L -6.68712,-35.8526 L -7.14484,-35.4227 L -7.54507,-34.9389 L -7.88153,-34.4088 L -8.14888,-33.8406 L -8.34291,-33.2434
 L -8.46057,-32.6267 L -8.5,-32 L -8.5,32 L -8.46057,32.6267 L -8.34291,33.2434 L -8.14888,33.8406
 L -7.88153,34.4088 L -7.54507,34.9389 L -7.14484,35.4227 L -6.68712,35.8526 L -6.17912,36.2216 L -5.62889,36.5241
 L -5.04507,36.7553 L -4.4369,36.9114 L -3.81395,36.9901 L 3.81395,36.9901 z
M -0.30452,-25.1596 L -0.908798,-25.2359 L -1.49872,-25.3874 L -2.06502,-25.6116 L -2.59875,-25.905 L -3.09149,-26.263
 L -3.53549,-26.6799 L -3.92372,-27.1492 L -4.25008,-27.6635 L -4.50941,-28.2146 L -4.69762,-28.7939 L -4.81175,-29.3921
 L -4.84999,-30 L -4.81175,-30.6079 L -4.69762,-31.2061 L -4.50941,-31.7854 L -4.25008,-32.3365 L -3.92372,-32.8508
 L -3.53549,-33.3201 L -3.09149,-33.737 L -2.59875,-34.095 L -2.06502,-34.3884 L -1.49872,-34.6126 L -0.908798,-34.7641
 L -0.30452,-34.8404 L 0.30452,-34.8404 L 0.908798,-34.7641 L 1.49872,-34.6126 L 2.06502,-34.3884 L 2.59875,-34.095
 L 3.09149,-33.737 L 3.53549,-33.3201 L 3.92372,-32.8508 L 4.25008,-32.3365 L 4.50941,-31.7854 L 4.69762,-31.2061
 L 4.81175,-30.6079 L 4.84999,-30 L 4.81175,-29.3921 L 4.69762,-28.7939 L 4.50941,-28.2146 L 4.25008,-27.6635
 L 3.92372,-27.1492 L 3.53549,-26.6799 L 3.09149,-26.263 L 2.59875,-25.905 L 2.06502,-25.6116 L 1.49872,-25.3874
 L 0.908798,-25.2359 L 0.30452,-25.1596 z
M -0.18837,-12.0059 L -0.562134,-12.0531 L -0.927048,-12.1468 L -1.27733,-12.2855 L -1.60747,-12.467 L -1.91226,-12.6884
 L -2.1869,-12.9464 L -2.42705,-13.2366 L -2.62891,-13.5547 L -2.78932,-13.8956 L -2.90575,-14.2539 L -2.97633,-14.624
 L -3,-15 L -2.97633,-15.376 L -2.90575,-15.7461 L -2.78932,-16.1044 L -2.62891,-16.4453 L -2.42705,-16.7634
 L -2.1869,-17.0536 L -1.91226,-17.3115 L -1.60747,-17.533 L -1.27733,-17.7145 L -0.927048,-17.8532 L -0.562134,-17.9469
 L -0.18837,-17.9941 L 0.18837,-17.9941 L 0.562134,-17.9469 L 0.927048,-17.8532 L 1.27733,-17.7145 L 1.60747,-17.533
 L 1.91226,-17.3115 L 2.1869,-17.0536 L 2.42705,-16.7634 L 2.62891,-16.4453 L 2.78932,-16.1044 L 2.90575,-15.7461
 L 2.97633,-15.376 L 3,-15 L 2.97633,-14.624 L 2.90575,-14.2539 L 2.78932,-13.8956 L 2.62891,-13.5547
 L 2.42705,-13.2366 L 2.1869,-12.9464 L 1.91226,-12.6884 L 1.60747,-12.467 L 1.27733,-12.2855 L 0.927048,-12.1468
 L 0.562134,-12.0531 L 0.18837,-12.0059 z
M -0.18837,2.99408 L -0.562134,2.94685 L -0.927048,2.85316 L -1.27733,2.71448 L -1.60747,2.53297 L -1.91226,2.31154
 L -2.1869,2.05363 L -2.42705,1.76335 L -2.62891,1.44525 L -2.78932,1.10437 L -2.90575,0.746063 L -2.97633,0.375992
 L -3,-0 L -2.97633,-0.375992 L -2.90575,-0.746063 L -2.78932,-1.10437 L -2.62891,-1.44525 L -2.42705,-1.76335
 L -2.1869,-2.05363 L -1.91226,-2.31154 L -1.60747,-2.53297 L -1.27733,-2.71448 L -0.927048,-2.85316 L -0.562134,-2.94685
 L -0.18837,-2.99408 L 0.18837,-2.99408 L 0.562134,-2.94685 L 0.927048,-2.85316 L 1.27733,-2.71448 L 1.60747,-2.53297
 L 1.91226,-2.31154 L 2.1869,-2.05363 L 2.42705,-1.76335 L 2.62891,-1.44525 L 2.78932,-1.10437 L 2.90575,-0.746063
 L 2.97633,-0.375992 L 3,-0 L 2.97633,0.375992 L 2.90575,0.746063 L 2.78932,1.10437 L 2.62891,1.44525
 L 2.42705,1.76335 L 2.1869,2.05363 L 1.91226,2.31154 L 1.60747,2.53297 L 1.27733,2.71448 L 0.927048,2.85316
 L 0.562134,2.94685 L 0.18837,2.99408 z
M -0.18837,17.9941 L -0.562134,17.9469 L -0.927048,17.8532 L -1.27733,17.7145 L -1.60747,17.533 L -1.91226,17.3115
 L -2.1869,17.0536 L -2.42705,16.7634 L -2.62891,16.4453 L -2.78932,16.1044 L -2.90575,15.7461 L -2.97633,15.376
 L -3,15 L -2.97633,14.624 L -2.90575,14.2539 L -2.78932,13.8956 L -2.62891,13.5547 L -2.42705,13.2366
 L -2.1869,12.9464 L -1.91226,12.6884 L -1.60747,12.467 L -1.27733,12.2855 L -0.927048,12.1468 L -0.562134,12.0531
 L -0.18837,12.0059 L 0.18837,12.0059 L 0.562134,12.0531 L 0.927048,12.1468 L 1.27733,12.2855 L 1.60747,12.467
 L 1.91226,12.6884 L 2.1869,12.9464 L 2.42705,13.2366 L 2.62891,13.5547 L 2.78932,13.8956 L 2.90575,14.2539
 L 2.97633,14.624 L 3,15 L 2.97633,15.376 L 2.90575,15.7461 L 2.78932,16.1044 L 2.62891,16.4453
 L 2.42705,16.7634 L 2.1869,17.0536 L 1.91226,17.3115 L 1.60747,17.533 L 1.27733,17.7145 L 0.927048,17.8532
 L 0.562134,17.9469 L 0.18837,17.9941 z
M -0.18837,32.9941 L -0.562134,32.9469 L -0.927048,32.8532 L -1.27733,32.7145 L -1.60747,32.533 L -1.91226,32.3115
 L -2.1869,32.0536 L -2.42705,31.7634 L -2.62891,31.4453 L -2.78932,31.1044 L -2.90575,30.7461 L -2.97633,30.376
 L -3,30 L -2.97633,29.624 L -2.90575,29.2539 L -2.78932,28.8956 L -2.62891,28.5547 L -2.42705,28.2366
 L -2.1869,27.9464 L -1.91226,27.6884 L -1.60747,27.467 L -1.27733,27.2855 L -0.927048,27.1468 L -0.562134,27.0531
 L -0.18837,27.0059 L 0.18837,27.0059 L 0.562134,27.0531 L 0.927048,27.1468 L 1.27733,27.2855 L 1.60747,27.467
 L 1.91226,27.6884 L 2.1869,27.9464 L 2.42705,28.2366 L 2.62891,28.5547 L 2.78932,28.8956 L 2.90575,29.2539
 L 2.97633,29.624 L 3,30 L 2.97633,30.376 L 2.90575,30.7461 L 2.78932,31.1044 L 2.62891,31.4453
 L 2.42705,31.7634 L 2.1869,32.0536 L 1.91226,32.3115 L 1.60747,32.533 L 1.27733,32.7145 L 0.927048,32.8532
 L 0.562134,32.9469 L 0.18837,32.9941 z
" stroke="black" fill="lightgray" stroke-width="0.5"/>
</svg>
