<?xml version="1.0" standalone="no"?>
<!DOCTYPE svg PUBLIC "-//W3C//DTD SVG 1.1//EN" "http://www.w3.org/Graphics/SVG/1.1/DTD/svg11.dtd">
<svg width="24mm" height="568mm" viewBox="-12 -1076 24 568" xmlns="http://www.w3.org/2000/svg" version="1.1">
<title>OpenSCAD Model</title>
<path d="
M 7.1869,-940.589 L 7.79507,-940.745 L 8.37889,-940.976 L 8.92912,-941.278 L 9.43712,-941.647 L 9.89484,-942.077
 L 10.2951,-942.561 L 10.6315,-943.091 L 10.8989,-943.659 L 11.0929,-944.257 L 11.2106,-944.873 L 11.25,-945.5
 L 11.25,-1070.5 L 11.2106,-1071.13 L 11.0929,-1071.74 L 10.8989,-1072.34 L 10.6315,-1072.91 L 10.2951,-1073.44
 L 9.89484,-1073.92 L 9.43712,-1074.35 L 8.92912,-1074.72 L 8.37889,-1075.02 L 7.79507,-1075.26 L 7.1869,-1075.41
 L 6.56395,-1075.49 L -6.56395,-1075.49 L -7.1869,-1075.41 L -7.79507,-1075.26 L -8.37889,-1075.02 L -8.92912,-1074.72
 L -9.43712,-1074.35 L -9.89484,-1073.92 L -10.2951,-1073.44 L -10.6315,-1072.91 L -10.8989,-1072.34 L -11.0929,-1071.74
 L -11.2106,-1071.13 L -11.25,-1070.5 L -11.25,-945.5 L -11.2106,-944.873 L -11.0929,-944.257 L -10.8989,-943.659
 L -10.6315,-943.091 L -10.2951,-942.561 L -9.89484,-942.077 L -9.43712,-941.647 L -8.92912,-941.278 L -8.37889,-940.976
 L -7.79507,-940.745 L -7.1869,-940.589 L -6.56395,-940.51 L 6.56395,-940.51 z
M -6.00116,-942.008 L -6.49951,-942.071 L -6.98605,-942.196 L -7.45311,-942.381 L -7.8933,-942.623 L -8.29968,-942.918
 L -8.66586,-943.262 L -8.98605,-943.649 L -9.25522,-944.073 L -9.4691,-944.528 L -9.62433,-945.005 L -9.71844,-945.499
 L -9.75,-946 L -9.75,-1070 L -9.71844,-1070.5 L -9.62433,-1070.99 L -9.4691,-1071.47 L -9.25522,-1071.93
 L -8.98605,-1072.35 L -8.66586,-1072.74 L -8.29968,-1073.08 L -7.8933,-1073.38 L -7.45311,-1073.62 L -6.98605,-1073.8
 L -6.49951,-1073.93 L -6.00116,-1073.99 L 6.00116,-1073.99 L 6.49951,-1073.93 L 6.98605,-1073.8 L 7.45311,-1073.62
 L 7.8933,-1073.38 L 8.29968,-1073.08 L 8.66586,-1072.74 L 8.98605,-1072.35 L 9.25522,-1071.93 L 9.4691,-1071.47
 L 9.62433,-1070.99 L 9.71844,-1070.5 L 9.75,-1070 L 9.75,-946 L 9.71844,-945.499 L 9.62433,-945.005
 L 9.4691,-944.528 L 9.25522,-944.073 L 8.98605,-943.649 L 8.66586,-943.262 L 8.29968,-942.918 L 7.8933,-942.623
 L 7.45311,-942.381 L 6.98605,-942.196 L 6.49951,-942.071 L 6.00116,-942.008 z
M 7.1869,-796.589 L 7.79507,-796.745 L 8.37889,-796.976 L 8.92912,-797.278 L 9.43712,-797.647 L 9.89484,-798.077
 L 10.2951,-798.561 L 10.6315,-799.091 L 10.8989,-799.659 L 11.0929,-800.257 L 11.2106,-800.873 L 11.25,-801.5
 L 11.25,-926.5 L 11.2106,-927.127 L 11.0929,-927.743 L 10.8989,-928.341 L 10.6315,-928.909 L 10.2951,-929.439
 L 9.89484,-929.923 L 9.43712,-930.353 L 8.92912,-930.722 L 8.37889,-931.024 L 7.79507,-931.255 L 7.1869,-931.411
 L 6.56395,-931.49 L -6.56395,-931.49 L -7.1869,-931.411 L -7.79507,-931.255 L -8.37889,-931.024 L -8.92912,-930.722
 L -9.43712,-930.353 L -9.89484,-929.923 L -10.2951,-929.439 L -10.6315,-928.909 L -10.8989,-928.341 L -11.0929,-927.743
 L -11.2106,-927.127 L -11.25,-926.5 L -11.25,-801.5 L -11.2106,-800.873 L -11.0929,-800.257 L -10.8989,-799.659
 L -10.6315,-799.091 L -10.2951,-798.561 L -9.89484,-798.077 L -9.43712,-797.647 L -8.92912,-797.278 L -8.37889,-796.976
 L -7.79507,-796.745 L -7.1869,-796.589 L -6.56395,-796.51 L 6.56395,-796.51 z
M -6.00116,-798.008 L -6.49951,-798.071 L -6.98605,-798.196 L -7.45311,-798.381 L -7.8933,-798.623 L -8.29968,-798.918
 L -8.66586,-799.262 L -8.98605,-799.649 L -9.25522,-800.073 L -9.4691,-800.528 L -9.62433,-801.005 L -9.71844,-801.499
 L -9.75,-802 L -9.75,-926 L -9.71844,-926.501 L -9.62433,-926.995 L -9.4691,-927.472 L -9.25522,-927.927
 L -8.98605,-928.351 L -8.66586,-928.738 L -8.29968,-929.082 L -7.8933,-929.377 L -7.45311,-929.619 L -6.98605,-929.804
 L -6.49951,-929.929 L -6.00116,-929.992 L 6.00116,-929.992 L 6.49951,-929.929 L 6.98605,-929.804 L 7.45311,-929.619
 L 7.8933,-929.377 L 8.29968,-929.082 L 8.66586,-928.738 L 8.98605,-928.351 L 9.25522,-927.927 L 9.4691,-927.472
 L 9.62433,-926.995 L 9.71844,-926.501 L 9.75,-926 L 9.75,-802 L 9.71844,-801.499 L 9.62433,-801.005
 L 9.4691,-800.528 L 9.25522,-800.073 L 8.98605,-799.649 L 8.66586,-799.262 L 8.29968,-798.918 L 7.8933,-798.623
 L 7.45311,-798.381 L 6.98605,-798.196 L 6.49951,-798.071 L 6.00116,-798.008 z
M 7.1869,-652.589 L 7.79507,-652.745 L 8.37889,-652.976 L 8.92912,-653.278 L 9.43712,-653.647 L 9.89484,-654.077
 L 10.2951,-654.561 L 10.6315,-655.091 L 10.8989,-655.659 L 11.0929,-656.257 L 11.2106,-656.873 L 11.25,-657.5
 L 11.25,-782.5 L 11.2106,-783.127 L 11.0929,-783.743 L 10.8989,-784.341 L 10.6315,-784.909 L 10.2951,-785.439
 L 9.89484,-785.923 L 9.43712,-786.353 L 8.92912,-786.722 L 8.37889,-787.024 L 7.79507,-787.255 L 7.1869,-787.411
 L 6.56395,-787.49 L -6.56395,-787.49 L -7.1869,-787.411 L -7.79507,-787.255 L -8.37889,-787.024 L -8.92912,-786.722
 L -9.43712,-786.353 L -9.89484,-785.923 L -10.2951,-785.439 L -10.6315,-784.909 L -10.8989,-784.341 L -11.0929,-783.743
 L -11.2106,-783.127 L -11.25,-782.5 L -11.25,-657.5 L -11.2106,-656.873 L -11.0929,-656.257 L -10.8989,-655.659
 L -10.6315,-655.091 L -10.2951,-654.561 L -9.89484,-654.077 L -9.43712,-653.647 L -8.92912,-653.278 L -8.37889,-652.976
 L -7.79507,-652.745 L -7.1869,-652.589 L -6.56395,-652.51 L 6.56395,-652.51 z
M -5.94545,-654.893 L -6.3333,-654.942 L -6.71194,-655.039 L -7.07541,-655.183 L -7.41798,-655.372 L -7.73424,-655.601
 L -8.01921,-655.869 L -8.2684,-656.17 L -8.47786,-656.5 L -8.64432,-656.854 L -8.76512,-657.226 L -8.83836,-657.61
 L -8.86292,-658 L -8.86292,-782 L -8.83836,-782.39 L -8.76512,-782.774 L -8.64432,-783.146 L -8.47786,-783.5
 L -8.2684,-783.83 L -8.01921,-784.131 L -7.73424,-784.399 L -7.41798,-784.628 L -7.07541,-784.817 L -6.71194,-784.961
 L -6.3333,-785.058 L -5.94545,-785.107 L 5.94545,-785.107 L 6.3333,-785.058 L 6.71194,-784.961 L 7.07541,-784.817
 L 7.41798,-784.628 L 7.73424,-784.399 L 8.01921,-784.131 L 8.2684,-783.83 L 8.47786,-783.5 L 8.64432,-783.146
 L 8.76512,-782.774 L 8.83836,-782.39 L 8.86292,-782 L 8.86292,-658 L 8.83836,-657.61 L 8.76512,-657.226
 L 8.64432,-656.854 L 8.47786,-656.5 L 8.2684,-656.17 L 8.01921,-655.869 L 7.73424,-655.601 L 7.41798,-655.372
 L 7.07541,-655.183 L 6.71194,-655.039 L 6.3333,-654.942 L 5.94545,-654.893 z
M 7.1869,-508.589 L 7.79507,-508.745 L 8.37889,-508.976 L 8.92912,-509.278 L 9.43712,-509.647 L 9.89484,-510.077
 L 10.2951,-510.561 L 10.6315,-511.091 L 10.8989,-511.659 L 11.0929,-512.257 L 11.2106,-512.873 L 11.25,-513.5
 L 11.25,-638.5 L 11.2106,-639.127 L 11.0929,-639.743 L 10.8989,-640.341 L 10.6315,-640.909 L 10.2951,-641.439
 L 9.89484,-641.923 L 9.43712,-642.353 L 8.92912,-642.722 L 8.37889,-643.024 L 7.79507,-643.255 L 7.1869,-643.411
 L 6.56395,-643.49 L -6.56395,-643.49 L -7.1869,-643.411 L -7.79507,-643.255 L -8.37889,-643.024 L -8.92912,-642.722
 L -9.43712,-642.353 L -9.89484,-641.923 L -10.2951,-641.439 L -10.6315,-640.909 L -10.8989,-640.341 L -11.0929,-639.743
 L -11.2106,-639.127 L -11.25,-638.5 L -11.25,-513.5 L -11.2106,-512.873 L -11.0929,-512.257 L -10.8989,-511.659
 L -10.6315,-511.091 L -10.2951,-510.561 L -9.89484,-510.077 L -9.43712,-509.647 L -8.92912,-509.278 L -8.37889,-508.976
 L -7.79507,-508.745 L -7.1869,-508.589 L -6.56395,-508.51 L 6.56395,-508.51 z
M 3.61592,-633.869 L 3.34988,-633.903 L 3.09015,-633.969 L 2.84084,-634.068 L 2.60585,-634.197 L 2.3889,-634.355
 L 2.19344,-634.538 L 2.02251,-634.745 L 1.87881,-634.971 L 1.76465,-635.214 L 1.68178,-635.469 L 1.63153,-635.732
 L 1.6147,-636 L 1.63153,-636.268 L 1.68178,-636.531 L 1.76465,-636.786 L 1.87881,-637.029 L 2.02251,-637.255
 L 2.19344,-637.462 L 2.3889,-637.645 L 2.60585,-637.803 L 2.84084,-637.932 L 3.09015,-638.031 L 3.34988,-638.097
 L 3.61592,-638.131 L 3.88406,-638.131 L 4.1501,-638.097 L 4.40984,-638.031 L 4.65915,-637.932 L 4.89413,-637.803
 L 5.11108,-637.645 L 5.30655,-637.462 L 5.47748,-637.255 L 5.62117,-637.029 L 5.73534,-636.786 L 5.81821,-636.531
 L 5.86845,-636.268 L 5.88528,-636 L 5.86845,-635.732 L 5.81821,-635.469 L 5.73534,-635.214 L 5.62117,-634.971
 L 5.47748,-634.745 L 5.30655,-634.538 L 5.11108,-634.355 L 4.89413,-634.197 L 4.65915,-634.068 L 4.40984,-633.969
 L 4.1501,-633.903 L 3.88406,-633.869 z
M -3.88406,-633.869 L -4.1501,-633.903 L -4.40984,-633.969 L -4.65915,-634.068 L -4.89413,-634.197 L -5.11108,-634.355
 L -5.30655,-634.538 L -5.47748,-634.745 L -5.62117,-634.971 L -5.73534,-635.214 L -5.81821,-635.469 L -5.86845,-635.732
 L -5.88528,-636 L -5.86845,-636.268 L -5.81821,-636.531 L -5.73534,-636.786 L -5.62117,-637.029 L -5.47748,-637.255
 L -5.30655,-637.462 L -5.11108,-637.645 L -4.89413,-637.803 L -4.65915,-637.932 L -4.40984,-638.031 L -4.1501,-638.097
 L -3.88406,-638.131 L -3.61592,-638.131 L -3.34988,-638.097 L -3.09015,-638.031 L -2.84084,-637.932 L -2.60585,-637.803
 L -2.3889,-637.645 L -2.19344,-637.462 L -2.02251,-637.255 L -1.87881,-637.029 L -1.76465,-636.786 L -1.68178,-636.531
 L -1.63153,-636.268 L -1.6147,-636 L -1.63153,-635.732 L -1.68178,-635.469 L -1.76465,-635.214 L -1.87881,-634.971
 L -2.02251,-634.745 L -2.19344,-634.538 L -2.3889,-634.355 L -2.60585,-634.197 L -2.84084,-634.068 L -3.09015,-633.969
 L -3.34988,-633.903 L -3.61592,-633.869 z
M 3.61592,-513.869 L 3.34988,-513.903 L 3.09015,-513.969 L 2.84084,-514.068 L 2.60585,-514.197 L 2.3889,-514.355
 L 2.19344,-514.538 L 2.02251,-514.745 L 1.87881,-514.971 L 1.76465,-515.214 L 1.68178,-515.469 L 1.63153,-515.732
 L 1.6147,-516 L 1.63153,-516.268 L 1.68178,-516.531 L 1.76465,-516.786 L 1.87881,-517.029 L 2.02251,-517.255
 L 2.19344,-517.462 L 2.3889,-517.645 L 2.60585,-517.803 L 2.84084,-517.932 L 3.09015,-518.031 L 3.34988,-518.097
 L 3.61592,-518.131 L 3.88406,-518.131 L 4.1501,-518.097 L 4.40984,-518.031 L 4.65915,-517.932 L 4.89413,-517.803
 L 5.11108,-517.645 L 5.30655,-517.462 L 5.47748,-517.255 L 5.62117,-517.029 L 5.73534,-516.786 L 5.81821,-516.531
 L 5.86845,-516.268 L 5.88528,-516 L 5.86845,-515.732 L 5.81821,-515.469 L 5.73534,-515.214 L 5.62117,-514.971
 L 5.47748,-514.745 L 5.30655,-514.538 L 5.11108,-514.355 L 4.89413,-514.197 L 4.65915,-514.068 L 4.40984,-513.969
 L 4.1501,-513.903 L 3.88406,-513.869 z
M -3.88406,-513.869 L -4.1501,-513.903 L -4.40984,-513.969 L -4.65915,-514.068 L -4.89413,-514.197 L -5.11108,-514.355
 L -5.30655,-514.538 L -5.47748,-514.745 L -5.62117,-514.971 L -5.73534,-515.214 L -5.81821,-515.469 L -5.86845,-515.732
 L -5.88528,-516 L -5.86845,-516.268 L -5.81821,-516.531 L -5.73534,-516.786 L -5.62117,-517.029 L -5.47748,-517.255
 L -5.30655,-517.462 L -5.11108,-517.645 L -4.89413,-517.803 L -4.65915,-517.932 L -4.40984,-518.031 L -4.1501,-518.097
 L -3.88406,-518.131 L -3.61592,-518.131 L -3.34988,-518.097 L -3.09015,-518.031 L -2.84084,-517.932 L -2.60585,-517.803
 L -2.3889,-517.645 L -2.19344,-517.462 L -2.02251,-517.255 L -1.87881,-517.029 L -1.76465,-516.786 L -1.68178,-516.531
 L -1.63153,-516.268 L -1.6147,-516 L -1.63153,-515.732 L -1.68178,-515.469 L -1.76465,-515.214 L -1.87881,-514.971
 L -2.02251,-514.745 L -2.19344,-514.538 L -2.3889,-514.355 L -2.60585,-514.197 L -2.84084,-514.068 L -3.09015,-513.969
 L -3.34988,-513.903 L -3.61592,-513.869 z
" stroke="black" fill="lightgray" stroke-width="0.5"/>
</svg>
