  0
SECTION
  2
BLOCKS
  0
ENDSEC
  0
SECTION
  2
ENTITIES
  0
LINE
  8
0
 10
85.9369
 20
879.089
 11
86.5451
 21
879.245
  0
LINE
  8
0
 10
86.5451
 20
879.245
 11
87.1289
 21
879.476
  0
LINE
  8
0
 10
87.1289
 20
879.476
 11
87.6791
 21
879.778
  0
LINE
  8
0
 10
87.6791
 20
879.778
 11
88.1871
 21
880.147
  0
LINE
  8
0
 10
88.1871
 20
880.147
 11
88.6448
 21
880.577
  0
LINE
  8
0
 10
88.6448
 20
880.577
 11
89.0451
 21
881.061
  0
LINE
  8
0
 10
89.0451
 20
881.061
 11
89.3815
 21
881.591
  0
LINE
  8
0
 10
89.3815
 20
881.591
 11
89.6489
 21
882.159
  0
LINE
  8
0
 10
89.6489
 20
882.159
 11
89.8429
 21
882.757
  0
LINE
  8
0
 10
89.8429
 20
882.757
 11
89.9606
 21
883.373
  0
LINE
  8
0
 10
89.9606
 20
883.373
 11
90
 21
884
  0
LINE
  8
0
 10
90
 20
884
 11
90
 21
1024
  0
LINE
  8
0
 10
90
 20
1024
 11
89.9606
 21
1024.63
  0
LINE
  8
0
 10
89.9606
 20
1024.63
 11
89.8429
 21
1025.24
  0
LINE
  8
0
 10
89.8429
 20
1025.24
 11
89.6489
 21
1025.84
  0
LINE
  8
0
 10
89.6489
 20
1025.84
 11
89.3815
 21
1026.41
  0
LINE
  8
0
 10
89.3815
 20
1026.41
 11
89.0451
 21
1026.94
  0
LINE
  8
0
 10
89.0451
 20
1026.94
 11
88.6448
 21
1027.42
  0
LINE
  8
0
 10
88.6448
 20
1027.42
 11
88.1871
 21
1027.85
  0
LINE
  8
0
 10
88.1871
 20
1027.85
 11
87.6791
 21
1028.22
  0
LINE
  8
0
 10
87.6791
 20
1028.22
 11
87.1289
 21
1028.52
  0
LINE
  8
0
 10
87.1289
 20
1028.52
 11
86.5451
 21
1028.76
  0
LINE
  8
0
 10
86.5451
 20
1028.76
 11
85.9369
 21
1028.91
  0
LINE
  8
0
 10
85.9369
 20
1028.91
 11
85.3139
 21
1028.99
  0
LINE
  8
0
 10
85.3139
 20
1028.99
 11
-85.3139
 21
1028.99
  0
LINE
  8
0
 10
-85.3139
 20
1028.99
 11
-85.9369
 21
1028.91
  0
LINE
  8
0
 10
-85.9369
 20
1028.91
 11
-86.5451
 21
1028.76
  0
LINE
  8
0
 10
-86.5451
 20
1028.76
 11
-87
 21
1028.58
  0
LINE
  8
0
 10
-87
 20
1028.58
 11
-87
 21
1028.61
  0
LINE
  8
0
 10
-87
 20
1028.61
 11
-90
 21
1028.61
  0
LINE
  8
0
 10
-90
 20
1028.61
 11
-90
 21
879.385
  0
LINE
  8
0
 10
-90
 20
879.385
 11
-87
 21
879.385
  0
LINE
  8
0
 10
-87
 20
879.385
 11
-87
 21
879.425
  0
LINE
  8
0
 10
-87
 20
879.425
 11
-86.5451
 21
879.245
  0
LINE
  8
0
 10
-86.5451
 20
879.245
 11
-85.9369
 21
879.089
  0
LINE
  8
0
 10
-85.9369
 20
879.089
 11
-85.3139
 21
879.01
  0
LINE
  8
0
 10
-85.3139
 20
879.01
 11
85.3139
 21
879.01
  0
LINE
  8
0
 10
85.3139
 20
879.01
 11
85.9369
 21
879.089
  0
LINE
  8
0
 10
-84.7512
 20
880.508
 11
-85.2495
 21
880.571
  0
LINE
  8
0
 10
-85.2495
 20
880.571
 11
-85.7361
 21
880.696
  0
LINE
  8
0
 10
-85.7361
 20
880.696
 11
-86.2031
 21
880.881
  0
LINE
  8
0
 10
-86.2031
 20
880.881
 11
-86.6433
 21
881.123
  0
LINE
  8
0
 10
-86.6433
 20
881.123
 11
-87.0497
 21
881.418
  0
LINE
  8
0
 10
-87.0497
 20
881.418
 11
-87.4159
 21
881.762
  0
LINE
  8
0
 10
-87.4159
 20
881.762
 11
-87.7361
 21
882.149
  0
LINE
  8
0
 10
-87.7361
 20
882.149
 11
-88.0052
 21
882.573
  0
LINE
  8
0
 10
-88.0052
 20
882.573
 11
-88.2191
 21
883.028
  0
LINE
  8
0
 10
-88.2191
 20
883.028
 11
-88.3743
 21
883.505
  0
LINE
  8
0
 10
-88.3743
 20
883.505
 11
-88.4685
 21
883.999
  0
LINE
  8
0
 10
-88.4685
 20
883.999
 11
-88.5
 21
884.5
  0
LINE
  8
0
 10
-88.5
 20
884.5
 11
-88.5
 21
1023.5
  0
LINE
  8
0
 10
-88.5
 20
1023.5
 11
-88.4685
 21
1024
  0
LINE
  8
0
 10
-88.4685
 20
1024
 11
-88.3743
 21
1024.49
  0
LINE
  8
0
 10
-88.3743
 20
1024.49
 11
-88.2191
 21
1024.97
  0
LINE
  8
0
 10
-88.2191
 20
1024.97
 11
-88.0052
 21
1025.43
  0
LINE
  8
0
 10
-88.0052
 20
1025.43
 11
-87.7361
 21
1025.85
  0
LINE
  8
0
 10
-87.7361
 20
1025.85
 11
-87.4159
 21
1026.24
  0
LINE
  8
0
 10
-87.4159
 20
1026.24
 11
-87.0497
 21
1026.58
  0
LINE
  8
0
 10
-87.0497
 20
1026.58
 11
-86.6433
 21
1026.88
  0
LINE
  8
0
 10
-86.6433
 20
1026.88
 11
-86.2031
 21
1027.12
  0
LINE
  8
0
 10
-86.2031
 20
1027.12
 11
-85.7361
 21
1027.3
  0
LINE
  8
0
 10
-85.7361
 20
1027.3
 11
-85.2495
 21
1027.43
  0
LINE
  8
0
 10
-85.2495
 20
1027.43
 11
-84.7512
 21
1027.49
  0
LINE
  8
0
 10
-84.7512
 20
1027.49
 11
84.7512
 21
1027.49
  0
LINE
  8
0
 10
84.7512
 20
1027.49
 11
85.2495
 21
1027.43
  0
LINE
  8
0
 10
85.2495
 20
1027.43
 11
85.7361
 21
1027.3
  0
LINE
  8
0
 10
85.7361
 20
1027.3
 11
86.2031
 21
1027.12
  0
LINE
  8
0
 10
86.2031
 20
1027.12
 11
86.6433
 21
1026.88
  0
LINE
  8
0
 10
86.6433
 20
1026.88
 11
87.0497
 21
1026.58
  0
LINE
  8
0
 10
87.0497
 20
1026.58
 11
87.4159
 21
1026.24
  0
LINE
  8
0
 10
87.4159
 20
1026.24
 11
87.7361
 21
1025.85
  0
LINE
  8
0
 10
87.7361
 20
1025.85
 11
88.0052
 21
1025.43
  0
LINE
  8
0
 10
88.0052
 20
1025.43
 11
88.2191
 21
1024.97
  0
LINE
  8
0
 10
88.2191
 20
1024.97
 11
88.3743
 21
1024.49
  0
LINE
  8
0
 10
88.3743
 20
1024.49
 11
88.4685
 21
1024
  0
LINE
  8
0
 10
88.4685
 20
1024
 11
88.5
 21
1023.5
  0
LINE
  8
0
 10
88.5
 20
1023.5
 11
88.5
 21
884.5
  0
LINE
  8
0
 10
88.5
 20
884.5
 11
88.4685
 21
883.999
  0
LINE
  8
0
 10
88.4685
 20
883.999
 11
88.3743
 21
883.505
  0
LINE
  8
0
 10
88.3743
 20
883.505
 11
88.2191
 21
883.028
  0
LINE
  8
0
 10
88.2191
 20
883.028
 11
88.0052
 21
882.573
  0
LINE
  8
0
 10
88.0052
 20
882.573
 11
87.7361
 21
882.149
  0
LINE
  8
0
 10
87.7361
 20
882.149
 11
87.4159
 21
881.762
  0
LINE
  8
0
 10
87.4159
 20
881.762
 11
87.0497
 21
881.418
  0
LINE
  8
0
 10
87.0497
 20
881.418
 11
86.6433
 21
881.123
  0
LINE
  8
0
 10
86.6433
 20
881.123
 11
86.2031
 21
880.881
  0
LINE
  8
0
 10
86.2031
 20
880.881
 11
85.7361
 21
880.696
  0
LINE
  8
0
 10
85.7361
 20
880.696
 11
85.2495
 21
880.571
  0
LINE
  8
0
 10
85.2495
 20
880.571
 11
84.7512
 21
880.508
  0
LINE
  8
0
 10
84.7512
 20
880.508
 11
-84.7512
 21
880.508
  0
LINE
  8
0
 10
85.9369
 20
720.089
 11
86.5451
 21
720.245
  0
LINE
  8
0
 10
86.5451
 20
720.245
 11
87.1289
 21
720.476
  0
LINE
  8
0
 10
87.1289
 20
720.476
 11
87.6791
 21
720.778
  0
LINE
  8
0
 10
87.6791
 20
720.778
 11
88.1871
 21
721.147
  0
LINE
  8
0
 10
88.1871
 20
721.147
 11
88.6448
 21
721.577
  0
LINE
  8
0
 10
88.6448
 20
721.577
 11
89.0451
 21
722.061
  0
LINE
  8
0
 10
89.0451
 20
722.061
 11
89.3815
 21
722.591
  0
LINE
  8
0
 10
89.3815
 20
722.591
 11
89.6489
 21
723.159
  0
LINE
  8
0
 10
89.6489
 20
723.159
 11
89.8429
 21
723.757
  0
LINE
  8
0
 10
89.8429
 20
723.757
 11
89.9606
 21
724.373
  0
LINE
  8
0
 10
89.9606
 20
724.373
 11
90
 21
725
  0
LINE
  8
0
 10
90
 20
725
 11
90
 21
865
  0
LINE
  8
0
 10
90
 20
865
 11
89.9606
 21
865.627
  0
LINE
  8
0
 10
89.9606
 20
865.627
 11
89.8429
 21
866.243
  0
LINE
  8
0
 10
89.8429
 20
866.243
 11
89.6489
 21
866.841
  0
LINE
  8
0
 10
89.6489
 20
866.841
 11
89.3815
 21
867.409
  0
LINE
  8
0
 10
89.3815
 20
867.409
 11
89.0451
 21
867.939
  0
LINE
  8
0
 10
89.0451
 20
867.939
 11
88.6448
 21
868.423
  0
LINE
  8
0
 10
88.6448
 20
868.423
 11
88.1871
 21
868.853
  0
LINE
  8
0
 10
88.1871
 20
868.853
 11
87.6791
 21
869.222
  0
LINE
  8
0
 10
87.6791
 20
869.222
 11
87.1289
 21
869.524
  0
LINE
  8
0
 10
87.1289
 20
869.524
 11
86.5451
 21
869.755
  0
LINE
  8
0
 10
86.5451
 20
869.755
 11
85.9369
 21
869.911
  0
LINE
  8
0
 10
85.9369
 20
869.911
 11
85.3139
 21
869.99
  0
LINE
  8
0
 10
85.3139
 20
869.99
 11
-85.3139
 21
869.99
  0
LINE
  8
0
 10
-85.3139
 20
869.99
 11
-85.9369
 21
869.911
  0
LINE
  8
0
 10
-85.9369
 20
869.911
 11
-86.5451
 21
869.755
  0
LINE
  8
0
 10
-86.5451
 20
869.755
 11
-87.1289
 21
869.524
  0
LINE
  8
0
 10
-87.1289
 20
869.524
 11
-87.6791
 21
869.222
  0
LINE
  8
0
 10
-87.6791
 20
869.222
 11
-88.1871
 21
868.853
  0
LINE
  8
0
 10
-88.1871
 20
868.853
 11
-88.6448
 21
868.423
  0
LINE
  8
0
 10
-88.6448
 20
868.423
 11
-89.0451
 21
867.939
  0
LINE
  8
0
 10
-89.0451
 20
867.939
 11
-89.3815
 21
867.409
  0
LINE
  8
0
 10
-89.3815
 20
867.409
 11
-89.6489
 21
866.841
  0
LINE
  8
0
 10
-89.6489
 20
866.841
 11
-89.8429
 21
866.243
  0
LINE
  8
0
 10
-89.8429
 20
866.243
 11
-89.9
 21
865.944
  0
LINE
  8
0
 10
-89.9
 20
865.944
 11
-90
 21
865.944
  0
LINE
  8
0
 10
-90
 20
865.944
 11
-90
 21
724.056
  0
LINE
  8
0
 10
-90
 20
724.056
 11
-89.9
 21
724.056
  0
LINE
  8
0
 10
-89.9
 20
724.056
 11
-89.8429
 21
723.757
  0
LINE
  8
0
 10
-89.8429
 20
723.757
 11
-89.6489
 21
723.159
  0
LINE
  8
0
 10
-89.6489
 20
723.159
 11
-89.3815
 21
722.591
  0
LINE
  8
0
 10
-89.3815
 20
722.591
 11
-89.0451
 21
722.061
  0
LINE
  8
0
 10
-89.0451
 20
722.061
 11
-88.6448
 21
721.577
  0
LINE
  8
0
 10
-88.6448
 20
721.577
 11
-88.1871
 21
721.147
  0
LINE
  8
0
 10
-88.1871
 20
721.147
 11
-87.6791
 21
720.778
  0
LINE
  8
0
 10
-87.6791
 20
720.778
 11
-87.1289
 21
720.476
  0
LINE
  8
0
 10
-87.1289
 20
720.476
 11
-86.5451
 21
720.245
  0
LINE
  8
0
 10
-86.5451
 20
720.245
 11
-85.9369
 21
720.089
  0
LINE
  8
0
 10
-85.9369
 20
720.089
 11
-85.3139
 21
720.01
  0
LINE
  8
0
 10
-85.3139
 20
720.01
 11
85.3139
 21
720.01
  0
LINE
  8
0
 10
85.3139
 20
720.01
 11
85.9369
 21
720.089
  0
LINE
  8
0
 10
-84.7432
 20
721.635
 11
-85.2256
 21
721.696
  0
LINE
  8
0
 10
-85.2256
 20
721.696
 11
-85.6967
 21
721.817
  0
LINE
  8
0
 10
-85.6967
 20
721.817
 11
-86.1489
 21
721.996
  0
LINE
  8
0
 10
-86.1489
 20
721.996
 11
-86.5751
 21
722.23
  0
LINE
  8
0
 10
-86.5751
 20
722.23
 11
-86.9685
 21
722.516
  0
LINE
  8
0
 10
-86.9685
 20
722.516
 11
-87.323
 21
722.849
  0
LINE
  8
0
 10
-87.323
 20
722.849
 11
-87.633
 21
723.224
  0
LINE
  8
0
 10
-87.633
 20
723.224
 11
-87.8936
 21
723.634
  0
LINE
  8
0
 10
-87.8936
 20
723.634
 11
-88.1007
 21
724.074
  0
LINE
  8
0
 10
-88.1007
 20
724.074
 11
-88.251
 21
724.537
  0
LINE
  8
0
 10
-88.251
 20
724.537
 11
-88.3421
 21
725.015
  0
LINE
  8
0
 10
-88.3421
 20
725.015
 11
-88.3726
 21
725.5
  0
LINE
  8
0
 10
-88.3726
 20
725.5
 11
-88.3726
 21
864.5
  0
LINE
  8
0
 10
-88.3726
 20
864.5
 11
-88.3421
 21
864.985
  0
LINE
  8
0
 10
-88.3421
 20
864.985
 11
-88.251
 21
865.463
  0
LINE
  8
0
 10
-88.251
 20
865.463
 11
-88.1007
 21
865.926
  0
LINE
  8
0
 10
-88.1007
 20
865.926
 11
-87.8936
 21
866.366
  0
LINE
  8
0
 10
-87.8936
 20
866.366
 11
-87.633
 21
866.776
  0
LINE
  8
0
 10
-87.633
 20
866.776
 11
-87.323
 21
867.151
  0
LINE
  8
0
 10
-87.323
 20
867.151
 11
-86.9685
 21
867.484
  0
LINE
  8
0
 10
-86.9685
 20
867.484
 11
-86.5751
 21
867.77
  0
LINE
  8
0
 10
-86.5751
 20
867.77
 11
-86.1489
 21
868.004
  0
LINE
  8
0
 10
-86.1489
 20
868.004
 11
-85.6967
 21
868.183
  0
LINE
  8
0
 10
-85.6967
 20
868.183
 11
-85.2256
 21
868.304
  0
LINE
  8
0
 10
-85.2256
 20
868.304
 11
-84.7432
 21
868.365
  0
LINE
  8
0
 10
-84.7432
 20
868.365
 11
84.7432
 21
868.365
  0
LINE
  8
0
 10
84.7432
 20
868.365
 11
85.2256
 21
868.304
  0
LINE
  8
0
 10
85.2256
 20
868.304
 11
85.6967
 21
868.183
  0
LINE
  8
0
 10
85.6967
 20
868.183
 11
86.1489
 21
868.004
  0
LINE
  8
0
 10
86.1489
 20
868.004
 11
86.5751
 21
867.77
  0
LINE
  8
0
 10
86.5751
 20
867.77
 11
86.9685
 21
867.484
  0
LINE
  8
0
 10
86.9685
 20
867.484
 11
87.323
 21
867.151
  0
LINE
  8
0
 10
87.323
 20
867.151
 11
87.633
 21
866.776
  0
LINE
  8
0
 10
87.633
 20
866.776
 11
87.8936
 21
866.366
  0
LINE
  8
0
 10
87.8936
 20
866.366
 11
88.1007
 21
865.926
  0
LINE
  8
0
 10
88.1007
 20
865.926
 11
88.251
 21
865.463
  0
LINE
  8
0
 10
88.251
 20
865.463
 11
88.3421
 21
864.985
  0
LINE
  8
0
 10
88.3421
 20
864.985
 11
88.3726
 21
864.5
  0
LINE
  8
0
 10
88.3726
 20
864.5
 11
88.3726
 21
725.5
  0
LINE
  8
0
 10
88.3726
 20
725.5
 11
88.3421
 21
725.015
  0
LINE
  8
0
 10
88.3421
 20
725.015
 11
88.251
 21
724.537
  0
LINE
  8
0
 10
88.251
 20
724.537
 11
88.1007
 21
724.074
  0
LINE
  8
0
 10
88.1007
 20
724.074
 11
87.8936
 21
723.634
  0
LINE
  8
0
 10
87.8936
 20
723.634
 11
87.633
 21
723.224
  0
LINE
  8
0
 10
87.633
 20
723.224
 11
87.323
 21
722.849
  0
LINE
  8
0
 10
87.323
 20
722.849
 11
86.9685
 21
722.516
  0
LINE
  8
0
 10
86.9685
 20
722.516
 11
86.5751
 21
722.23
  0
LINE
  8
0
 10
86.5751
 20
722.23
 11
86.1489
 21
721.996
  0
LINE
  8
0
 10
86.1489
 20
721.996
 11
85.6967
 21
721.817
  0
LINE
  8
0
 10
85.6967
 20
721.817
 11
85.2256
 21
721.696
  0
LINE
  8
0
 10
85.2256
 20
721.696
 11
84.7432
 21
721.635
  0
LINE
  8
0
 10
84.7432
 20
721.635
 11
-84.7432
 21
721.635
  0
LINE
  8
0
 10
85.9369
 20
561.089
 11
86.5451
 21
561.245
  0
LINE
  8
0
 10
86.5451
 20
561.245
 11
87.1289
 21
561.476
  0
LINE
  8
0
 10
87.1289
 20
561.476
 11
87.6791
 21
561.778
  0
LINE
  8
0
 10
87.6791
 20
561.778
 11
88.1871
 21
562.147
  0
LINE
  8
0
 10
88.1871
 20
562.147
 11
88.6448
 21
562.577
  0
LINE
  8
0
 10
88.6448
 20
562.577
 11
89.0451
 21
563.061
  0
LINE
  8
0
 10
89.0451
 20
563.061
 11
89.3815
 21
563.591
  0
LINE
  8
0
 10
89.3815
 20
563.591
 11
89.6489
 21
564.159
  0
LINE
  8
0
 10
89.6489
 20
564.159
 11
89.8429
 21
564.757
  0
LINE
  8
0
 10
89.8429
 20
564.757
 11
89.9606
 21
565.373
  0
LINE
  8
0
 10
89.9606
 20
565.373
 11
90
 21
566
  0
LINE
  8
0
 10
90
 20
566
 11
90
 21
706
  0
LINE
  8
0
 10
90
 20
706
 11
89.9606
 21
706.627
  0
LINE
  8
0
 10
89.9606
 20
706.627
 11
89.8429
 21
707.243
  0
LINE
  8
0
 10
89.8429
 20
707.243
 11
89.6489
 21
707.841
  0
LINE
  8
0
 10
89.6489
 20
707.841
 11
89.3815
 21
708.409
  0
LINE
  8
0
 10
89.3815
 20
708.409
 11
89.0451
 21
708.939
  0
LINE
  8
0
 10
89.0451
 20
708.939
 11
88.6448
 21
709.423
  0
LINE
  8
0
 10
88.6448
 20
709.423
 11
88.1871
 21
709.853
  0
LINE
  8
0
 10
88.1871
 20
709.853
 11
87.6791
 21
710.222
  0
LINE
  8
0
 10
87.6791
 20
710.222
 11
87.1289
 21
710.524
  0
LINE
  8
0
 10
87.1289
 20
710.524
 11
86.5451
 21
710.755
  0
LINE
  8
0
 10
86.5451
 20
710.755
 11
85.9369
 21
710.911
  0
LINE
  8
0
 10
85.9369
 20
710.911
 11
85.3139
 21
710.99
  0
LINE
  8
0
 10
85.3139
 20
710.99
 11
-85.3139
 21
710.99
  0
LINE
  8
0
 10
-85.3139
 20
710.99
 11
-85.9369
 21
710.911
  0
LINE
  8
0
 10
-85.9369
 20
710.911
 11
-86.5451
 21
710.755
  0
LINE
  8
0
 10
-86.5451
 20
710.755
 11
-87.1289
 21
710.524
  0
LINE
  8
0
 10
-87.1289
 20
710.524
 11
-87.6791
 21
710.222
  0
LINE
  8
0
 10
-87.6791
 20
710.222
 11
-88.1871
 21
709.853
  0
LINE
  8
0
 10
-88.1871
 20
709.853
 11
-88.6448
 21
709.423
  0
LINE
  8
0
 10
-88.6448
 20
709.423
 11
-89.0451
 21
708.939
  0
LINE
  8
0
 10
-89.0451
 20
708.939
 11
-89.3815
 21
708.409
  0
LINE
  8
0
 10
-89.3815
 20
708.409
 11
-89.6489
 21
707.841
  0
LINE
  8
0
 10
-89.6489
 20
707.841
 11
-89.8429
 21
707.243
  0
LINE
  8
0
 10
-89.8429
 20
707.243
 11
-89.9606
 21
706.627
  0
LINE
  8
0
 10
-89.9606
 20
706.627
 11
-90
 21
706
  0
LINE
  8
0
 10
-90
 20
706
 11
-90
 21
566
  0
LINE
  8
0
 10
-90
 20
566
 11
-89.9606
 21
565.373
  0
LINE
  8
0
 10
-89.9606
 20
565.373
 11
-89.8429
 21
564.757
  0
LINE
  8
0
 10
-89.8429
 20
564.757
 11
-89.6489
 21
564.159
  0
LINE
  8
0
 10
-89.6489
 20
564.159
 11
-89.3815
 21
563.591
  0
LINE
  8
0
 10
-89.3815
 20
563.591
 11
-89.0451
 21
563.061
  0
LINE
  8
0
 10
-89.0451
 20
563.061
 11
-88.6448
 21
562.577
  0
LINE
  8
0
 10
-88.6448
 20
562.577
 11
-88.1871
 21
562.147
  0
LINE
  8
0
 10
-88.1871
 20
562.147
 11
-87.6791
 21
561.778
  0
LINE
  8
0
 10
-87.6791
 20
561.778
 11
-87.1289
 21
561.476
  0
LINE
  8
0
 10
-87.1289
 20
561.476
 11
-86.5451
 21
561.245
  0
LINE
  8
0
 10
-86.5451
 20
561.245
 11
-85.9369
 21
561.089
  0
LINE
  8
0
 10
-85.9369
 20
561.089
 11
-85.3139
 21
561.01
  0
LINE
  8
0
 10
-85.3139
 20
561.01
 11
85.3139
 21
561.01
  0
LINE
  8
0
 10
85.3139
 20
561.01
 11
85.9369
 21
561.089
  0
LINE
  8
0
 10
-82.6507
 20
701.105
 11
-82.9497
 21
701.143
  0
LINE
  8
0
 10
-82.9497
 20
701.143
 11
-83.2416
 21
701.217
  0
LINE
  8
0
 10
-83.2416
 20
701.217
 11
-83.5219
 21
701.328
  0
LINE
  8
0
 10
-83.5219
 20
701.328
 11
-83.786
 21
701.474
  0
LINE
  8
0
 10
-83.786
 20
701.474
 11
-84.0298
 21
701.651
  0
LINE
  8
0
 10
-84.0298
 20
701.651
 11
-84.2495
 21
701.857
  0
LINE
  8
0
 10
-84.2495
 20
701.857
 11
-84.4416
 21
702.089
  0
LINE
  8
0
 10
-84.4416
 20
702.089
 11
-84.6031
 21
702.344
  0
LINE
  8
0
 10
-84.6031
 20
702.344
 11
-84.7315
 21
702.617
  0
LINE
  8
0
 10
-84.7315
 20
702.617
 11
-84.8246
 21
702.903
  0
LINE
  8
0
 10
-84.8246
 20
702.903
 11
-84.8811
 21
703.199
  0
LINE
  8
0
 10
-84.8811
 20
703.199
 11
-84.9
 21
703.5
  0
LINE
  8
0
 10
-84.9
 20
703.5
 11
-84.8811
 21
703.801
  0
LINE
  8
0
 10
-84.8811
 20
703.801
 11
-84.8246
 21
704.097
  0
LINE
  8
0
 10
-84.8246
 20
704.097
 11
-84.7315
 21
704.383
  0
LINE
  8
0
 10
-84.7315
 20
704.383
 11
-84.6031
 21
704.656
  0
LINE
  8
0
 10
-84.6031
 20
704.656
 11
-84.4416
 21
704.911
  0
LINE
  8
0
 10
-84.4416
 20
704.911
 11
-84.2495
 21
705.143
  0
LINE
  8
0
 10
-84.2495
 20
705.143
 11
-84.0298
 21
705.349
  0
LINE
  8
0
 10
-84.0298
 20
705.349
 11
-83.786
 21
705.526
  0
LINE
  8
0
 10
-83.786
 20
705.526
 11
-83.5219
 21
705.672
  0
LINE
  8
0
 10
-83.5219
 20
705.672
 11
-83.2416
 21
705.783
  0
LINE
  8
0
 10
-83.2416
 20
705.783
 11
-82.9497
 21
705.857
  0
LINE
  8
0
 10
-82.9497
 20
705.857
 11
-82.6507
 21
705.895
  0
LINE
  8
0
 10
-82.6507
 20
705.895
 11
-82.3493
 21
705.895
  0
LINE
  8
0
 10
-82.3493
 20
705.895
 11
-82.0503
 21
705.857
  0
LINE
  8
0
 10
-82.0503
 20
705.857
 11
-81.7584
 21
705.783
  0
LINE
  8
0
 10
-81.7584
 20
705.783
 11
-81.4781
 21
705.672
  0
LINE
  8
0
 10
-81.4781
 20
705.672
 11
-81.214
 21
705.526
  0
LINE
  8
0
 10
-81.214
 20
705.526
 11
-80.9702
 21
705.349
  0
LINE
  8
0
 10
-80.9702
 20
705.349
 11
-80.7505
 21
705.143
  0
LINE
  8
0
 10
-80.7505
 20
705.143
 11
-80.5583
 21
704.911
  0
LINE
  8
0
 10
-80.5583
 20
704.911
 11
-80.3969
 21
704.656
  0
LINE
  8
0
 10
-80.3969
 20
704.656
 11
-80.2685
 21
704.383
  0
LINE
  8
0
 10
-80.2685
 20
704.383
 11
-80.1754
 21
704.097
  0
LINE
  8
0
 10
-80.1754
 20
704.097
 11
-80.1189
 21
703.801
  0
LINE
  8
0
 10
-80.1189
 20
703.801
 11
-80.1
 21
703.5
  0
LINE
  8
0
 10
-80.1
 20
703.5
 11
-80.1189
 21
703.199
  0
LINE
  8
0
 10
-80.1189
 20
703.199
 11
-80.1754
 21
702.903
  0
LINE
  8
0
 10
-80.1754
 20
702.903
 11
-80.2685
 21
702.617
  0
LINE
  8
0
 10
-80.2685
 20
702.617
 11
-80.3969
 21
702.344
  0
LINE
  8
0
 10
-80.3969
 20
702.344
 11
-80.5583
 21
702.089
  0
LINE
  8
0
 10
-80.5583
 20
702.089
 11
-80.7505
 21
701.857
  0
LINE
  8
0
 10
-80.7505
 20
701.857
 11
-80.9702
 21
701.651
  0
LINE
  8
0
 10
-80.9702
 20
701.651
 11
-81.214
 21
701.474
  0
LINE
  8
0
 10
-81.214
 20
701.474
 11
-81.4781
 21
701.328
  0
LINE
  8
0
 10
-81.4781
 20
701.328
 11
-81.7584
 21
701.217
  0
LINE
  8
0
 10
-81.7584
 20
701.217
 11
-82.0503
 21
701.143
  0
LINE
  8
0
 10
-82.0503
 20
701.143
 11
-82.3493
 21
701.105
  0
LINE
  8
0
 10
-82.3493
 20
701.105
 11
-82.6507
 21
701.105
  0
LINE
  8
0
 10
82.3493
 20
701.105
 11
82.0503
 21
701.143
  0
LINE
  8
0
 10
82.0503
 20
701.143
 11
81.7584
 21
701.217
  0
LINE
  8
0
 10
81.7584
 20
701.217
 11
81.4781
 21
701.328
  0
LINE
  8
0
 10
81.4781
 20
701.328
 11
81.214
 21
701.474
  0
LINE
  8
0
 10
81.214
 20
701.474
 11
80.9702
 21
701.651
  0
LINE
  8
0
 10
80.9702
 20
701.651
 11
80.7505
 21
701.857
  0
LINE
  8
0
 10
80.7505
 20
701.857
 11
80.5583
 21
702.089
  0
LINE
  8
0
 10
80.5583
 20
702.089
 11
80.3969
 21
702.344
  0
LINE
  8
0
 10
80.3969
 20
702.344
 11
80.2685
 21
702.617
  0
LINE
  8
0
 10
80.2685
 20
702.617
 11
80.1754
 21
702.903
  0
LINE
  8
0
 10
80.1754
 20
702.903
 11
80.1189
 21
703.199
  0
LINE
  8
0
 10
80.1189
 20
703.199
 11
80.1
 21
703.5
  0
LINE
  8
0
 10
80.1
 20
703.5
 11
80.1189
 21
703.801
  0
LINE
  8
0
 10
80.1189
 20
703.801
 11
80.1754
 21
704.097
  0
LINE
  8
0
 10
80.1754
 20
704.097
 11
80.2685
 21
704.383
  0
LINE
  8
0
 10
80.2685
 20
704.383
 11
80.3969
 21
704.656
  0
LINE
  8
0
 10
80.3969
 20
704.656
 11
80.5583
 21
704.911
  0
LINE
  8
0
 10
80.5583
 20
704.911
 11
80.7505
 21
705.143
  0
LINE
  8
0
 10
80.7505
 20
705.143
 11
80.9702
 21
705.349
  0
LINE
  8
0
 10
80.9702
 20
705.349
 11
81.214
 21
705.526
  0
LINE
  8
0
 10
81.214
 20
705.526
 11
81.4781
 21
705.672
  0
LINE
  8
0
 10
81.4781
 20
705.672
 11
81.7584
 21
705.783
  0
LINE
  8
0
 10
81.7584
 20
705.783
 11
82.0503
 21
705.857
  0
LINE
  8
0
 10
82.0503
 20
705.857
 11
82.3493
 21
705.895
  0
LINE
  8
0
 10
82.3493
 20
705.895
 11
82.6507
 21
705.895
  0
LINE
  8
0
 10
82.6507
 20
705.895
 11
82.9497
 21
705.857
  0
LINE
  8
0
 10
82.9497
 20
705.857
 11
83.2416
 21
705.783
  0
LINE
  8
0
 10
83.2416
 20
705.783
 11
83.5219
 21
705.672
  0
LINE
  8
0
 10
83.5219
 20
705.672
 11
83.786
 21
705.526
  0
LINE
  8
0
 10
83.786
 20
705.526
 11
84.0298
 21
705.349
  0
LINE
  8
0
 10
84.0298
 20
705.349
 11
84.2495
 21
705.143
  0
LINE
  8
0
 10
84.2495
 20
705.143
 11
84.4416
 21
704.911
  0
LINE
  8
0
 10
84.4416
 20
704.911
 11
84.6031
 21
704.656
  0
LINE
  8
0
 10
84.6031
 20
704.656
 11
84.7315
 21
704.383
  0
LINE
  8
0
 10
84.7315
 20
704.383
 11
84.8246
 21
704.097
  0
LINE
  8
0
 10
84.8246
 20
704.097
 11
84.8811
 21
703.801
  0
LINE
  8
0
 10
84.8811
 20
703.801
 11
84.9
 21
703.5
  0
LINE
  8
0
 10
84.9
 20
703.5
 11
84.8811
 21
703.199
  0
LINE
  8
0
 10
84.8811
 20
703.199
 11
84.8246
 21
702.903
  0
LINE
  8
0
 10
84.8246
 20
702.903
 11
84.7315
 21
702.617
  0
LINE
  8
0
 10
84.7315
 20
702.617
 11
84.6031
 21
702.344
  0
LINE
  8
0
 10
84.6031
 20
702.344
 11
84.4416
 21
702.089
  0
LINE
  8
0
 10
84.4416
 20
702.089
 11
84.2495
 21
701.857
  0
LINE
  8
0
 10
84.2495
 20
701.857
 11
84.0298
 21
701.651
  0
LINE
  8
0
 10
84.0298
 20
701.651
 11
83.786
 21
701.474
  0
LINE
  8
0
 10
83.786
 20
701.474
 11
83.5219
 21
701.328
  0
LINE
  8
0
 10
83.5219
 20
701.328
 11
83.2416
 21
701.217
  0
LINE
  8
0
 10
83.2416
 20
701.217
 11
82.9497
 21
701.143
  0
LINE
  8
0
 10
82.9497
 20
701.143
 11
82.6507
 21
701.105
  0
LINE
  8
0
 10
82.6507
 20
701.105
 11
82.3493
 21
701.105
  0
LINE
  8
0
 10
82.3493
 20
566.105
 11
82.0503
 21
566.143
  0
LINE
  8
0
 10
82.0503
 20
566.143
 11
81.7584
 21
566.217
  0
LINE
  8
0
 10
81.7584
 20
566.217
 11
81.4781
 21
566.328
  0
LINE
  8
0
 10
81.4781
 20
566.328
 11
81.214
 21
566.474
  0
LINE
  8
0
 10
81.214
 20
566.474
 11
80.9702
 21
566.651
  0
LINE
  8
0
 10
80.9702
 20
566.651
 11
80.7505
 21
566.857
  0
LINE
  8
0
 10
80.7505
 20
566.857
 11
80.5583
 21
567.089
  0
LINE
  8
0
 10
80.5583
 20
567.089
 11
80.3969
 21
567.344
  0
LINE
  8
0
 10
80.3969
 20
567.344
 11
80.2685
 21
567.617
  0
LINE
  8
0
 10
80.2685
 20
567.617
 11
80.1754
 21
567.903
  0
LINE
  8
0
 10
80.1754
 20
567.903
 11
80.1189
 21
568.199
  0
LINE
  8
0
 10
80.1189
 20
568.199
 11
80.1
 21
568.5
  0
LINE
  8
0
 10
80.1
 20
568.5
 11
80.1189
 21
568.801
  0
LINE
  8
0
 10
80.1189
 20
568.801
 11
80.1754
 21
569.097
  0
LINE
  8
0
 10
80.1754
 20
569.097
 11
80.2685
 21
569.383
  0
LINE
  8
0
 10
80.2685
 20
569.383
 11
80.3969
 21
569.656
  0
LINE
  8
0
 10
80.3969
 20
569.656
 11
80.5583
 21
569.911
  0
LINE
  8
0
 10
80.5583
 20
569.911
 11
80.7505
 21
570.143
  0
LINE
  8
0
 10
80.7505
 20
570.143
 11
80.9702
 21
570.349
  0
LINE
  8
0
 10
80.9702
 20
570.349
 11
81.214
 21
570.526
  0
LINE
  8
0
 10
81.214
 20
570.526
 11
81.4781
 21
570.672
  0
LINE
  8
0
 10
81.4781
 20
570.672
 11
81.7584
 21
570.783
  0
LINE
  8
0
 10
81.7584
 20
570.783
 11
82.0503
 21
570.857
  0
LINE
  8
0
 10
82.0503
 20
570.857
 11
82.3493
 21
570.895
  0
LINE
  8
0
 10
82.3493
 20
570.895
 11
82.6507
 21
570.895
  0
LINE
  8
0
 10
82.6507
 20
570.895
 11
82.9497
 21
570.857
  0
LINE
  8
0
 10
82.9497
 20
570.857
 11
83.2416
 21
570.783
  0
LINE
  8
0
 10
83.2416
 20
570.783
 11
83.5219
 21
570.672
  0
LINE
  8
0
 10
83.5219
 20
570.672
 11
83.786
 21
570.526
  0
LINE
  8
0
 10
83.786
 20
570.526
 11
84.0298
 21
570.349
  0
LINE
  8
0
 10
84.0298
 20
570.349
 11
84.2495
 21
570.143
  0
LINE
  8
0
 10
84.2495
 20
570.143
 11
84.4416
 21
569.911
  0
LINE
  8
0
 10
84.4416
 20
569.911
 11
84.6031
 21
569.656
  0
LINE
  8
0
 10
84.6031
 20
569.656
 11
84.7315
 21
569.383
  0
LINE
  8
0
 10
84.7315
 20
569.383
 11
84.8246
 21
569.097
  0
LINE
  8
0
 10
84.8246
 20
569.097
 11
84.8811
 21
568.801
  0
LINE
  8
0
 10
84.8811
 20
568.801
 11
84.9
 21
568.5
  0
LINE
  8
0
 10
84.9
 20
568.5
 11
84.8811
 21
568.199
  0
LINE
  8
0
 10
84.8811
 20
568.199
 11
84.8246
 21
567.903
  0
LINE
  8
0
 10
84.8246
 20
567.903
 11
84.7315
 21
567.617
  0
LINE
  8
0
 10
84.7315
 20
567.617
 11
84.6031
 21
567.344
  0
LINE
  8
0
 10
84.6031
 20
567.344
 11
84.4416
 21
567.089
  0
LINE
  8
0
 10
84.4416
 20
567.089
 11
84.2495
 21
566.857
  0
LINE
  8
0
 10
84.2495
 20
566.857
 11
84.0298
 21
566.651
  0
LINE
  8
0
 10
84.0298
 20
566.651
 11
83.786
 21
566.474
  0
LINE
  8
0
 10
83.786
 20
566.474
 11
83.5219
 21
566.328
  0
LINE
  8
0
 10
83.5219
 20
566.328
 11
83.2416
 21
566.217
  0
LINE
  8
0
 10
83.2416
 20
566.217
 11
82.9497
 21
566.143
  0
LINE
  8
0
 10
82.9497
 20
566.143
 11
82.6507
 21
566.105
  0
LINE
  8
0
 10
82.6507
 20
566.105
 11
82.3493
 21
566.105
  0
LINE
  8
0
 10
-82.6507
 20
566.105
 11
-82.9497
 21
566.143
  0
LINE
  8
0
 10
-82.9497
 20
566.143
 11
-83.2416
 21
566.217
  0
LINE
  8
0
 10
-83.2416
 20
566.217
 11
-83.5219
 21
566.328
  0
LINE
  8
0
 10
-83.5219
 20
566.328
 11
-83.786
 21
566.474
  0
LINE
  8
0
 10
-83.786
 20
566.474
 11
-84.0298
 21
566.651
  0
LINE
  8
0
 10
-84.0298
 20
566.651
 11
-84.2495
 21
566.857
  0
LINE
  8
0
 10
-84.2495
 20
566.857
 11
-84.4416
 21
567.089
  0
LINE
  8
0
 10
-84.4416
 20
567.089
 11
-84.6031
 21
567.344
  0
LINE
  8
0
 10
-84.6031
 20
567.344
 11
-84.7315
 21
567.617
  0
LINE
  8
0
 10
-84.7315
 20
567.617
 11
-84.8246
 21
567.903
  0
LINE
  8
0
 10
-84.8246
 20
567.903
 11
-84.8811
 21
568.199
  0
LINE
  8
0
 10
-84.8811
 20
568.199
 11
-84.9
 21
568.5
  0
LINE
  8
0
 10
-84.9
 20
568.5
 11
-84.8811
 21
568.801
  0
LINE
  8
0
 10
-84.8811
 20
568.801
 11
-84.8246
 21
569.097
  0
LINE
  8
0
 10
-84.8246
 20
569.097
 11
-84.7315
 21
569.383
  0
LINE
  8
0
 10
-84.7315
 20
569.383
 11
-84.6031
 21
569.656
  0
LINE
  8
0
 10
-84.6031
 20
569.656
 11
-84.4416
 21
569.911
  0
LINE
  8
0
 10
-84.4416
 20
569.911
 11
-84.2495
 21
570.143
  0
LINE
  8
0
 10
-84.2495
 20
570.143
 11
-84.0298
 21
570.349
  0
LINE
  8
0
 10
-84.0298
 20
570.349
 11
-83.786
 21
570.526
  0
LINE
  8
0
 10
-83.786
 20
570.526
 11
-83.5219
 21
570.672
  0
LINE
  8
0
 10
-83.5219
 20
570.672
 11
-83.2416
 21
570.783
  0
LINE
  8
0
 10
-83.2416
 20
570.783
 11
-82.9497
 21
570.857
  0
LINE
  8
0
 10
-82.9497
 20
570.857
 11
-82.6507
 21
570.895
  0
LINE
  8
0
 10
-82.6507
 20
570.895
 11
-82.3493
 21
570.895
  0
LINE
  8
0
 10
-82.3493
 20
570.895
 11
-82.0503
 21
570.857
  0
LINE
  8
0
 10
-82.0503
 20
570.857
 11
-81.7584
 21
570.783
  0
LINE
  8
0
 10
-81.7584
 20
570.783
 11
-81.4781
 21
570.672
  0
LINE
  8
0
 10
-81.4781
 20
570.672
 11
-81.214
 21
570.526
  0
LINE
  8
0
 10
-81.214
 20
570.526
 11
-80.9702
 21
570.349
  0
LINE
  8
0
 10
-80.9702
 20
570.349
 11
-80.7505
 21
570.143
  0
LINE
  8
0
 10
-80.7505
 20
570.143
 11
-80.5583
 21
569.911
  0
LINE
  8
0
 10
-80.5583
 20
569.911
 11
-80.3969
 21
569.656
  0
LINE
  8
0
 10
-80.3969
 20
569.656
 11
-80.2685
 21
569.383
  0
LINE
  8
0
 10
-80.2685
 20
569.383
 11
-80.1754
 21
569.097
  0
LINE
  8
0
 10
-80.1754
 20
569.097
 11
-80.1189
 21
568.801
  0
LINE
  8
0
 10
-80.1189
 20
568.801
 11
-80.1
 21
568.5
  0
LINE
  8
0
 10
-80.1
 20
568.5
 11
-80.1189
 21
568.199
  0
LINE
  8
0
 10
-80.1189
 20
568.199
 11
-80.1754
 21
567.903
  0
LINE
  8
0
 10
-80.1754
 20
567.903
 11
-80.2685
 21
567.617
  0
LINE
  8
0
 10
-80.2685
 20
567.617
 11
-80.3969
 21
567.344
  0
LINE
  8
0
 10
-80.3969
 20
567.344
 11
-80.5583
 21
567.089
  0
LINE
  8
0
 10
-80.5583
 20
567.089
 11
-80.7505
 21
566.857
  0
LINE
  8
0
 10
-80.7505
 20
566.857
 11
-80.9702
 21
566.651
  0
LINE
  8
0
 10
-80.9702
 20
566.651
 11
-81.214
 21
566.474
  0
LINE
  8
0
 10
-81.214
 20
566.474
 11
-81.4781
 21
566.328
  0
LINE
  8
0
 10
-81.4781
 20
566.328
 11
-81.7584
 21
566.217
  0
LINE
  8
0
 10
-81.7584
 20
566.217
 11
-82.0503
 21
566.143
  0
LINE
  8
0
 10
-82.0503
 20
566.143
 11
-82.3493
 21
566.105
  0
LINE
  8
0
 10
-82.3493
 20
566.105
 11
-82.6507
 21
566.105
  0
LINE
  8
0
 10
85.9369
 20
402.089
 11
86.5451
 21
402.245
  0
LINE
  8
0
 10
86.5451
 20
402.245
 11
87.1289
 21
402.476
  0
LINE
  8
0
 10
87.1289
 20
402.476
 11
87.6791
 21
402.778
  0
LINE
  8
0
 10
87.6791
 20
402.778
 11
88.1871
 21
403.147
  0
LINE
  8
0
 10
88.1871
 20
403.147
 11
88.6448
 21
403.577
  0
LINE
  8
0
 10
88.6448
 20
403.577
 11
89.0451
 21
404.061
  0
LINE
  8
0
 10
89.0451
 20
404.061
 11
89.3815
 21
404.591
  0
LINE
  8
0
 10
89.3815
 20
404.591
 11
89.6489
 21
405.159
  0
LINE
  8
0
 10
89.6489
 20
405.159
 11
89.8429
 21
405.757
  0
LINE
  8
0
 10
89.8429
 20
405.757
 11
89.9606
 21
406.373
  0
LINE
  8
0
 10
89.9606
 20
406.373
 11
90
 21
407
  0
LINE
  8
0
 10
90
 20
407
 11
90
 21
547
  0
LINE
  8
0
 10
90
 20
547
 11
89.9606
 21
547.627
  0
LINE
  8
0
 10
89.9606
 20
547.627
 11
89.8429
 21
548.243
  0
LINE
  8
0
 10
89.8429
 20
548.243
 11
89.6489
 21
548.841
  0
LINE
  8
0
 10
89.6489
 20
548.841
 11
89.3815
 21
549.409
  0
LINE
  8
0
 10
89.3815
 20
549.409
 11
89.0451
 21
549.939
  0
LINE
  8
0
 10
89.0451
 20
549.939
 11
88.6448
 21
550.423
  0
LINE
  8
0
 10
88.6448
 20
550.423
 11
88.1871
 21
550.853
  0
LINE
  8
0
 10
88.1871
 20
550.853
 11
87.6791
 21
551.222
  0
LINE
  8
0
 10
87.6791
 20
551.222
 11
87.1289
 21
551.524
  0
LINE
  8
0
 10
87.1289
 20
551.524
 11
86.5451
 21
551.755
  0
LINE
  8
0
 10
86.5451
 20
551.755
 11
85.9369
 21
551.911
  0
LINE
  8
0
 10
85.9369
 20
551.911
 11
85.3139
 21
551.99
  0
LINE
  8
0
 10
85.3139
 20
551.99
 11
-85.3139
 21
551.99
  0
LINE
  8
0
 10
-85.3139
 20
551.99
 11
-85.9369
 21
551.911
  0
LINE
  8
0
 10
-85.9369
 20
551.911
 11
-86.5451
 21
551.755
  0
LINE
  8
0
 10
-86.5451
 20
551.755
 11
-87.1289
 21
551.524
  0
LINE
  8
0
 10
-87.1289
 20
551.524
 11
-87.6791
 21
551.222
  0
LINE
  8
0
 10
-87.6791
 20
551.222
 11
-88.1871
 21
550.853
  0
LINE
  8
0
 10
-88.1871
 20
550.853
 11
-88.6448
 21
550.423
  0
LINE
  8
0
 10
-88.6448
 20
550.423
 11
-89.0451
 21
549.939
  0
LINE
  8
0
 10
-89.0451
 20
549.939
 11
-89.3815
 21
549.409
  0
LINE
  8
0
 10
-89.3815
 20
549.409
 11
-89.6489
 21
548.841
  0
LINE
  8
0
 10
-89.6489
 20
548.841
 11
-89.8429
 21
548.243
  0
LINE
  8
0
 10
-89.8429
 20
548.243
 11
-89.9606
 21
547.627
  0
LINE
  8
0
 10
-89.9606
 20
547.627
 11
-90
 21
547
  0
LINE
  8
0
 10
-90
 20
547
 11
-90
 21
407
  0
LINE
  8
0
 10
-90
 20
407
 11
-89.9606
 21
406.373
  0
LINE
  8
0
 10
-89.9606
 20
406.373
 11
-89.8429
 21
405.757
  0
LINE
  8
0
 10
-89.8429
 20
405.757
 11
-89.6489
 21
405.159
  0
LINE
  8
0
 10
-89.6489
 20
405.159
 11
-89.3815
 21
404.591
  0
LINE
  8
0
 10
-89.3815
 20
404.591
 11
-89.0451
 21
404.061
  0
LINE
  8
0
 10
-89.0451
 20
404.061
 11
-88.6448
 21
403.577
  0
LINE
  8
0
 10
-88.6448
 20
403.577
 11
-88.1871
 21
403.147
  0
LINE
  8
0
 10
-88.1871
 20
403.147
 11
-87.6791
 21
402.778
  0
LINE
  8
0
 10
-87.6791
 20
402.778
 11
-87.1289
 21
402.476
  0
LINE
  8
0
 10
-87.1289
 20
402.476
 11
-86.5451
 21
402.245
  0
LINE
  8
0
 10
-86.5451
 20
402.245
 11
-85.9369
 21
402.089
  0
LINE
  8
0
 10
-85.9369
 20
402.089
 11
-85.3139
 21
402.01
  0
LINE
  8
0
 10
-85.3139
 20
402.01
 11
85.3139
 21
402.01
  0
LINE
  8
0
 10
85.3139
 20
402.01
 11
85.9369
 21
402.089
  0
LINE
  8
0
 10
82.387
 20
542.704
 11
82.1627
 21
542.732
  0
LINE
  8
0
 10
82.1627
 20
542.732
 11
81.9438
 21
542.788
  0
LINE
  8
0
 10
81.9438
 20
542.788
 11
81.7336
 21
542.871
  0
LINE
  8
0
 10
81.7336
 20
542.871
 11
81.5355
 21
542.98
  0
LINE
  8
0
 10
81.5355
 20
542.98
 11
81.3526
 21
543.113
  0
LINE
  8
0
 10
81.3526
 20
543.113
 11
81.1879
 21
543.268
  0
LINE
  8
0
 10
81.1879
 20
543.268
 11
81.0438
 21
543.442
  0
LINE
  8
0
 10
81.0438
 20
543.442
 11
80.9226
 21
543.633
  0
LINE
  8
0
 10
80.9226
 20
543.633
 11
80.8264
 21
543.837
  0
LINE
  8
0
 10
80.8264
 20
543.837
 11
80.7565
 21
544.052
  0
LINE
  8
0
 10
80.7565
 20
544.052
 11
80.7142
 21
544.274
  0
LINE
  8
0
 10
80.7142
 20
544.274
 11
80.7
 21
544.5
  0
LINE
  8
0
 10
80.7
 20
544.5
 11
80.7142
 21
544.726
  0
LINE
  8
0
 10
80.7142
 20
544.726
 11
80.7565
 21
544.948
  0
LINE
  8
0
 10
80.7565
 20
544.948
 11
80.8264
 21
545.163
  0
LINE
  8
0
 10
80.8264
 20
545.163
 11
80.9226
 21
545.367
  0
LINE
  8
0
 10
80.9226
 20
545.367
 11
81.0438
 21
545.558
  0
LINE
  8
0
 10
81.0438
 20
545.558
 11
81.1879
 21
545.732
  0
LINE
  8
0
 10
81.1879
 20
545.732
 11
81.3526
 21
545.887
  0
LINE
  8
0
 10
81.3526
 20
545.887
 11
81.5355
 21
546.02
  0
LINE
  8
0
 10
81.5355
 20
546.02
 11
81.7336
 21
546.129
  0
LINE
  8
0
 10
81.7336
 20
546.129
 11
81.9438
 21
546.212
  0
LINE
  8
0
 10
81.9438
 20
546.212
 11
82.1627
 21
546.268
  0
LINE
  8
0
 10
82.1627
 20
546.268
 11
82.387
 21
546.296
  0
LINE
  8
0
 10
82.387
 20
546.296
 11
82.613
 21
546.296
  0
LINE
  8
0
 10
82.613
 20
546.296
 11
82.8373
 21
546.268
  0
LINE
  8
0
 10
82.8373
 20
546.268
 11
83.0562
 21
546.212
  0
LINE
  8
0
 10
83.0562
 20
546.212
 11
83.2664
 21
546.129
  0
LINE
  8
0
 10
83.2664
 20
546.129
 11
83.4645
 21
546.02
  0
LINE
  8
0
 10
83.4645
 20
546.02
 11
83.6474
 21
545.887
  0
LINE
  8
0
 10
83.6474
 20
545.887
 11
83.8121
 21
545.732
  0
LINE
  8
0
 10
83.8121
 20
545.732
 11
83.9562
 21
545.558
  0
LINE
  8
0
 10
83.9562
 20
545.558
 11
84.0773
 21
545.367
  0
LINE
  8
0
 10
84.0773
 20
545.367
 11
84.1736
 21
545.163
  0
LINE
  8
0
 10
84.1736
 20
545.163
 11
84.2434
 21
544.948
  0
LINE
  8
0
 10
84.2434
 20
544.948
 11
84.2858
 21
544.726
  0
LINE
  8
0
 10
84.2858
 20
544.726
 11
84.3
 21
544.5
  0
LINE
  8
0
 10
84.3
 20
544.5
 11
84.2858
 21
544.274
  0
LINE
  8
0
 10
84.2858
 20
544.274
 11
84.2434
 21
544.052
  0
LINE
  8
0
 10
84.2434
 20
544.052
 11
84.1736
 21
543.837
  0
LINE
  8
0
 10
84.1736
 20
543.837
 11
84.0773
 21
543.633
  0
LINE
  8
0
 10
84.0773
 20
543.633
 11
83.9562
 21
543.442
  0
LINE
  8
0
 10
83.9562
 20
543.442
 11
83.8121
 21
543.268
  0
LINE
  8
0
 10
83.8121
 20
543.268
 11
83.6474
 21
543.113
  0
LINE
  8
0
 10
83.6474
 20
543.113
 11
83.4645
 21
542.98
  0
LINE
  8
0
 10
83.4645
 20
542.98
 11
83.2664
 21
542.871
  0
LINE
  8
0
 10
83.2664
 20
542.871
 11
83.0562
 21
542.788
  0
LINE
  8
0
 10
83.0562
 20
542.788
 11
82.8373
 21
542.732
  0
LINE
  8
0
 10
82.8373
 20
542.732
 11
82.613
 21
542.704
  0
LINE
  8
0
 10
82.613
 20
542.704
 11
82.387
 21
542.704
  0
LINE
  8
0
 10
-82.613
 20
542.704
 11
-82.8373
 21
542.732
  0
LINE
  8
0
 10
-82.8373
 20
542.732
 11
-83.0562
 21
542.788
  0
LINE
  8
0
 10
-83.0562
 20
542.788
 11
-83.2664
 21
542.871
  0
LINE
  8
0
 10
-83.2664
 20
542.871
 11
-83.4645
 21
542.98
  0
LINE
  8
0
 10
-83.4645
 20
542.98
 11
-83.6474
 21
543.113
  0
LINE
  8
0
 10
-83.6474
 20
543.113
 11
-83.8121
 21
543.268
  0
LINE
  8
0
 10
-83.8121
 20
543.268
 11
-83.9562
 21
543.442
  0
LINE
  8
0
 10
-83.9562
 20
543.442
 11
-84.0773
 21
543.633
  0
LINE
  8
0
 10
-84.0773
 20
543.633
 11
-84.1736
 21
543.837
  0
LINE
  8
0
 10
-84.1736
 20
543.837
 11
-84.2434
 21
544.052
  0
LINE
  8
0
 10
-84.2434
 20
544.052
 11
-84.2858
 21
544.274
  0
LINE
  8
0
 10
-84.2858
 20
544.274
 11
-84.3
 21
544.5
  0
LINE
  8
0
 10
-84.3
 20
544.5
 11
-84.2858
 21
544.726
  0
LINE
  8
0
 10
-84.2858
 20
544.726
 11
-84.2434
 21
544.948
  0
LINE
  8
0
 10
-84.2434
 20
544.948
 11
-84.1736
 21
545.163
  0
LINE
  8
0
 10
-84.1736
 20
545.163
 11
-84.0773
 21
545.367
  0
LINE
  8
0
 10
-84.0773
 20
545.367
 11
-83.9562
 21
545.558
  0
LINE
  8
0
 10
-83.9562
 20
545.558
 11
-83.8121
 21
545.732
  0
LINE
  8
0
 10
-83.8121
 20
545.732
 11
-83.6474
 21
545.887
  0
LINE
  8
0
 10
-83.6474
 20
545.887
 11
-83.4645
 21
546.02
  0
LINE
  8
0
 10
-83.4645
 20
546.02
 11
-83.2664
 21
546.129
  0
LINE
  8
0
 10
-83.2664
 20
546.129
 11
-83.0562
 21
546.212
  0
LINE
  8
0
 10
-83.0562
 20
546.212
 11
-82.8373
 21
546.268
  0
LINE
  8
0
 10
-82.8373
 20
546.268
 11
-82.613
 21
546.296
  0
LINE
  8
0
 10
-82.613
 20
546.296
 11
-82.387
 21
546.296
  0
LINE
  8
0
 10
-82.387
 20
546.296
 11
-82.1627
 21
546.268
  0
LINE
  8
0
 10
-82.1627
 20
546.268
 11
-81.9438
 21
546.212
  0
LINE
  8
0
 10
-81.9438
 20
546.212
 11
-81.7336
 21
546.129
  0
LINE
  8
0
 10
-81.7336
 20
546.129
 11
-81.5355
 21
546.02
  0
LINE
  8
0
 10
-81.5355
 20
546.02
 11
-81.3526
 21
545.887
  0
LINE
  8
0
 10
-81.3526
 20
545.887
 11
-81.1879
 21
545.732
  0
LINE
  8
0
 10
-81.1879
 20
545.732
 11
-81.0438
 21
545.558
  0
LINE
  8
0
 10
-81.0438
 20
545.558
 11
-80.9226
 21
545.367
  0
LINE
  8
0
 10
-80.9226
 20
545.367
 11
-80.8264
 21
545.163
  0
LINE
  8
0
 10
-80.8264
 20
545.163
 11
-80.7565
 21
544.948
  0
LINE
  8
0
 10
-80.7565
 20
544.948
 11
-80.7142
 21
544.726
  0
LINE
  8
0
 10
-80.7142
 20
544.726
 11
-80.7
 21
544.5
  0
LINE
  8
0
 10
-80.7
 20
544.5
 11
-80.7142
 21
544.274
  0
LINE
  8
0
 10
-80.7142
 20
544.274
 11
-80.7565
 21
544.052
  0
LINE
  8
0
 10
-80.7565
 20
544.052
 11
-80.8264
 21
543.837
  0
LINE
  8
0
 10
-80.8264
 20
543.837
 11
-80.9226
 21
543.633
  0
LINE
  8
0
 10
-80.9226
 20
543.633
 11
-81.0438
 21
543.442
  0
LINE
  8
0
 10
-81.0438
 20
543.442
 11
-81.1879
 21
543.268
  0
LINE
  8
0
 10
-81.1879
 20
543.268
 11
-81.3526
 21
543.113
  0
LINE
  8
0
 10
-81.3526
 20
543.113
 11
-81.5355
 21
542.98
  0
LINE
  8
0
 10
-81.5355
 20
542.98
 11
-81.7336
 21
542.871
  0
LINE
  8
0
 10
-81.7336
 20
542.871
 11
-81.9438
 21
542.788
  0
LINE
  8
0
 10
-81.9438
 20
542.788
 11
-82.1627
 21
542.732
  0
LINE
  8
0
 10
-82.1627
 20
542.732
 11
-82.387
 21
542.704
  0
LINE
  8
0
 10
-82.387
 20
542.704
 11
-82.613
 21
542.704
  0
LINE
  8
0
 10
-82.613
 20
407.704
 11
-82.8373
 21
407.732
  0
LINE
  8
0
 10
-82.8373
 20
407.732
 11
-83.0562
 21
407.788
  0
LINE
  8
0
 10
-83.0562
 20
407.788
 11
-83.2664
 21
407.871
  0
LINE
  8
0
 10
-83.2664
 20
407.871
 11
-83.4645
 21
407.98
  0
LINE
  8
0
 10
-83.4645
 20
407.98
 11
-83.6474
 21
408.113
  0
LINE
  8
0
 10
-83.6474
 20
408.113
 11
-83.8121
 21
408.268
  0
LINE
  8
0
 10
-83.8121
 20
408.268
 11
-83.9562
 21
408.442
  0
LINE
  8
0
 10
-83.9562
 20
408.442
 11
-84.0773
 21
408.633
  0
LINE
  8
0
 10
-84.0773
 20
408.633
 11
-84.1736
 21
408.837
  0
LINE
  8
0
 10
-84.1736
 20
408.837
 11
-84.2434
 21
409.052
  0
LINE
  8
0
 10
-84.2434
 20
409.052
 11
-84.2858
 21
409.274
  0
LINE
  8
0
 10
-84.2858
 20
409.274
 11
-84.3
 21
409.5
  0
LINE
  8
0
 10
-84.3
 20
409.5
 11
-84.2858
 21
409.726
  0
LINE
  8
0
 10
-84.2858
 20
409.726
 11
-84.2434
 21
409.948
  0
LINE
  8
0
 10
-84.2434
 20
409.948
 11
-84.1736
 21
410.163
  0
LINE
  8
0
 10
-84.1736
 20
410.163
 11
-84.0773
 21
410.367
  0
LINE
  8
0
 10
-84.0773
 20
410.367
 11
-83.9562
 21
410.558
  0
LINE
  8
0
 10
-83.9562
 20
410.558
 11
-83.8121
 21
410.732
  0
LINE
  8
0
 10
-83.8121
 20
410.732
 11
-83.6474
 21
410.887
  0
LINE
  8
0
 10
-83.6474
 20
410.887
 11
-83.4645
 21
411.02
  0
LINE
  8
0
 10
-83.4645
 20
411.02
 11
-83.2664
 21
411.129
  0
LINE
  8
0
 10
-83.2664
 20
411.129
 11
-83.0562
 21
411.212
  0
LINE
  8
0
 10
-83.0562
 20
411.212
 11
-82.8373
 21
411.268
  0
LINE
  8
0
 10
-82.8373
 20
411.268
 11
-82.613
 21
411.296
  0
LINE
  8
0
 10
-82.613
 20
411.296
 11
-82.387
 21
411.296
  0
LINE
  8
0
 10
-82.387
 20
411.296
 11
-82.1627
 21
411.268
  0
LINE
  8
0
 10
-82.1627
 20
411.268
 11
-81.9438
 21
411.212
  0
LINE
  8
0
 10
-81.9438
 20
411.212
 11
-81.7336
 21
411.129
  0
LINE
  8
0
 10
-81.7336
 20
411.129
 11
-81.5355
 21
411.02
  0
LINE
  8
0
 10
-81.5355
 20
411.02
 11
-81.3526
 21
410.887
  0
LINE
  8
0
 10
-81.3526
 20
410.887
 11
-81.1879
 21
410.732
  0
LINE
  8
0
 10
-81.1879
 20
410.732
 11
-81.0438
 21
410.558
  0
LINE
  8
0
 10
-81.0438
 20
410.558
 11
-80.9226
 21
410.367
  0
LINE
  8
0
 10
-80.9226
 20
410.367
 11
-80.8264
 21
410.163
  0
LINE
  8
0
 10
-80.8264
 20
410.163
 11
-80.7565
 21
409.948
  0
LINE
  8
0
 10
-80.7565
 20
409.948
 11
-80.7142
 21
409.726
  0
LINE
  8
0
 10
-80.7142
 20
409.726
 11
-80.7
 21
409.5
  0
LINE
  8
0
 10
-80.7
 20
409.5
 11
-80.7142
 21
409.274
  0
LINE
  8
0
 10
-80.7142
 20
409.274
 11
-80.7565
 21
409.052
  0
LINE
  8
0
 10
-80.7565
 20
409.052
 11
-80.8264
 21
408.837
  0
LINE
  8
0
 10
-80.8264
 20
408.837
 11
-80.9226
 21
408.633
  0
LINE
  8
0
 10
-80.9226
 20
408.633
 11
-81.0438
 21
408.442
  0
LINE
  8
0
 10
-81.0438
 20
408.442
 11
-81.1879
 21
408.268
  0
LINE
  8
0
 10
-81.1879
 20
408.268
 11
-81.3526
 21
408.113
  0
LINE
  8
0
 10
-81.3526
 20
408.113
 11
-81.5355
 21
407.98
  0
LINE
  8
0
 10
-81.5355
 20
407.98
 11
-81.7336
 21
407.871
  0
LINE
  8
0
 10
-81.7336
 20
407.871
 11
-81.9438
 21
407.788
  0
LINE
  8
0
 10
-81.9438
 20
407.788
 11
-82.1627
 21
407.732
  0
LINE
  8
0
 10
-82.1627
 20
407.732
 11
-82.387
 21
407.704
  0
LINE
  8
0
 10
-82.387
 20
407.704
 11
-82.613
 21
407.704
  0
LINE
  8
0
 10
82.387
 20
407.704
 11
82.1627
 21
407.732
  0
LINE
  8
0
 10
82.1627
 20
407.732
 11
81.9438
 21
407.788
  0
LINE
  8
0
 10
81.9438
 20
407.788
 11
81.7336
 21
407.871
  0
LINE
  8
0
 10
81.7336
 20
407.871
 11
81.5355
 21
407.98
  0
LINE
  8
0
 10
81.5355
 20
407.98
 11
81.3526
 21
408.113
  0
LINE
  8
0
 10
81.3526
 20
408.113
 11
81.1879
 21
408.268
  0
LINE
  8
0
 10
81.1879
 20
408.268
 11
81.0438
 21
408.442
  0
LINE
  8
0
 10
81.0438
 20
408.442
 11
80.9226
 21
408.633
  0
LINE
  8
0
 10
80.9226
 20
408.633
 11
80.8264
 21
408.837
  0
LINE
  8
0
 10
80.8264
 20
408.837
 11
80.7565
 21
409.052
  0
LINE
  8
0
 10
80.7565
 20
409.052
 11
80.7142
 21
409.274
  0
LINE
  8
0
 10
80.7142
 20
409.274
 11
80.7
 21
409.5
  0
LINE
  8
0
 10
80.7
 20
409.5
 11
80.7142
 21
409.726
  0
LINE
  8
0
 10
80.7142
 20
409.726
 11
80.7565
 21
409.948
  0
LINE
  8
0
 10
80.7565
 20
409.948
 11
80.8264
 21
410.163
  0
LINE
  8
0
 10
80.8264
 20
410.163
 11
80.9226
 21
410.367
  0
LINE
  8
0
 10
80.9226
 20
410.367
 11
81.0438
 21
410.558
  0
LINE
  8
0
 10
81.0438
 20
410.558
 11
81.1879
 21
410.732
  0
LINE
  8
0
 10
81.1879
 20
410.732
 11
81.3526
 21
410.887
  0
LINE
  8
0
 10
81.3526
 20
410.887
 11
81.5355
 21
411.02
  0
LINE
  8
0
 10
81.5355
 20
411.02
 11
81.7336
 21
411.129
  0
LINE
  8
0
 10
81.7336
 20
411.129
 11
81.9438
 21
411.212
  0
LINE
  8
0
 10
81.9438
 20
411.212
 11
82.1627
 21
411.268
  0
LINE
  8
0
 10
82.1627
 20
411.268
 11
82.387
 21
411.296
  0
LINE
  8
0
 10
82.387
 20
411.296
 11
82.613
 21
411.296
  0
LINE
  8
0
 10
82.613
 20
411.296
 11
82.8373
 21
411.268
  0
LINE
  8
0
 10
82.8373
 20
411.268
 11
83.0562
 21
411.212
  0
LINE
  8
0
 10
83.0562
 20
411.212
 11
83.2664
 21
411.129
  0
LINE
  8
0
 10
83.2664
 20
411.129
 11
83.4645
 21
411.02
  0
LINE
  8
0
 10
83.4645
 20
411.02
 11
83.6474
 21
410.887
  0
LINE
  8
0
 10
83.6474
 20
410.887
 11
83.8121
 21
410.732
  0
LINE
  8
0
 10
83.8121
 20
410.732
 11
83.9562
 21
410.558
  0
LINE
  8
0
 10
83.9562
 20
410.558
 11
84.0773
 21
410.367
  0
LINE
  8
0
 10
84.0773
 20
410.367
 11
84.1736
 21
410.163
  0
LINE
  8
0
 10
84.1736
 20
410.163
 11
84.2434
 21
409.948
  0
LINE
  8
0
 10
84.2434
 20
409.948
 11
84.2858
 21
409.726
  0
LINE
  8
0
 10
84.2858
 20
409.726
 11
84.3
 21
409.5
  0
LINE
  8
0
 10
84.3
 20
409.5
 11
84.2858
 21
409.274
  0
LINE
  8
0
 10
84.2858
 20
409.274
 11
84.2434
 21
409.052
  0
LINE
  8
0
 10
84.2434
 20
409.052
 11
84.1736
 21
408.837
  0
LINE
  8
0
 10
84.1736
 20
408.837
 11
84.0773
 21
408.633
  0
LINE
  8
0
 10
84.0773
 20
408.633
 11
83.9562
 21
408.442
  0
LINE
  8
0
 10
83.9562
 20
408.442
 11
83.8121
 21
408.268
  0
LINE
  8
0
 10
83.8121
 20
408.268
 11
83.6474
 21
408.113
  0
LINE
  8
0
 10
83.6474
 20
408.113
 11
83.4645
 21
407.98
  0
LINE
  8
0
 10
83.4645
 20
407.98
 11
83.2664
 21
407.871
  0
LINE
  8
0
 10
83.2664
 20
407.871
 11
83.0562
 21
407.788
  0
LINE
  8
0
 10
83.0562
 20
407.788
 11
82.8373
 21
407.732
  0
LINE
  8
0
 10
82.8373
 20
407.732
 11
82.613
 21
407.704
  0
LINE
  8
0
 10
82.613
 20
407.704
 11
82.387
 21
407.704
  0
ENDSEC
  0
SECTION
  2
OBJECTS
  0
DICTIONARY
  0
ENDSEC
  0
EOF
