<?xml version="1.0" standalone="no"?>
<!DOCTYPE svg PUBLIC "-//W3C//DTD SVG 1.1//EN" "http://www.w3.org/Graphics/SVG/1.1/DTD/svg11.dtd">
<svg width="226mm" height="2826mm" viewBox="-113 -5571 226 2826" xmlns="http://www.w3.org/2000/svg" version="1.1">
<title>OpenSCAD Model</title>
<path d="
M 108.437,-5391.09 L 109.045,-5391.24 L 109.629,-5391.48 L 110.179,-5391.78 L 110.687,-5392.15 L 111.145,-5392.58
 L 111.545,-5393.06 L 111.882,-5393.59 L 112.149,-5394.16 L 112.343,-5394.76 L 112.461,-5395.37 L 112.5,-5396
 L 112.5,-5566 L 112.461,-5566.63 L 112.343,-5567.24 L 112.149,-5567.84 L 111.882,-5568.41 L 111.545,-5568.94
 L 111.145,-5569.42 L 110.687,-5569.85 L 110.179,-5570.22 L 109.629,-5570.52 L 109.045,-5570.76 L 108.437,-5570.91
 L 107.814,-5570.99 L -107.814,-5570.99 L -108.437,-5570.91 L -109.045,-5570.76 L -109.629,-5570.52 L -110.179,-5570.22
 L -110.687,-5569.85 L -111.145,-5569.42 L -111.545,-5568.94 L -111.882,-5568.41 L -112.149,-5567.84 L -112.343,-5567.24
 L -112.461,-5566.63 L -112.5,-5566 L -112.5,-5396 L -112.461,-5395.37 L -112.343,-5394.76 L -112.149,-5394.16
 L -111.882,-5393.59 L -111.545,-5393.06 L -111.145,-5392.58 L -110.687,-5392.15 L -110.179,-5391.78 L -109.629,-5391.48
 L -109.045,-5391.24 L -108.437,-5391.09 L -107.814,-5391.01 L 107.814,-5391.01 z
M -107.251,-5392.51 L -107.75,-5392.57 L -108.236,-5392.7 L -108.703,-5392.88 L -109.143,-5393.12 L -109.55,-5393.42
 L -109.916,-5393.76 L -110.236,-5394.15 L -110.505,-5394.57 L -110.719,-5395.03 L -110.874,-5395.51 L -110.968,-5396
 L -111,-5396.5 L -111,-5565.5 L -110.968,-5566 L -110.874,-5566.49 L -110.719,-5566.97 L -110.505,-5567.43
 L -110.236,-5567.85 L -109.916,-5568.24 L -109.55,-5568.58 L -109.143,-5568.88 L -108.703,-5569.12 L -108.236,-5569.3
 L -107.75,-5569.43 L -107.251,-5569.49 L 107.251,-5569.49 L 107.75,-5569.43 L 108.236,-5569.3 L 108.703,-5569.12
 L 109.143,-5568.88 L 109.55,-5568.58 L 109.916,-5568.24 L 110.236,-5567.85 L 110.505,-5567.43 L 110.719,-5566.97
 L 110.874,-5566.49 L 110.968,-5566 L 111,-5565.5 L 111,-5396.5 L 110.968,-5396 L 110.874,-5395.51
 L 110.719,-5395.03 L 110.505,-5394.57 L 110.236,-5394.15 L 109.916,-5393.76 L 109.55,-5393.42 L 109.143,-5393.12
 L 108.703,-5392.88 L 108.236,-5392.7 L 107.75,-5392.57 L 107.251,-5392.51 z
M 108.437,-5202.09 L 109.045,-5202.24 L 109.629,-5202.48 L 110.179,-5202.78 L 110.687,-5203.15 L 111.145,-5203.58
 L 111.545,-5204.06 L 111.882,-5204.59 L 112.149,-5205.16 L 112.343,-5205.76 L 112.461,-5206.37 L 112.5,-5207
 L 112.5,-5377 L 112.461,-5377.63 L 112.343,-5378.24 L 112.149,-5378.84 L 111.882,-5379.41 L 111.545,-5379.94
 L 111.145,-5380.42 L 110.687,-5380.85 L 110.179,-5381.22 L 109.629,-5381.52 L 109.045,-5381.76 L 108.437,-5381.91
 L 107.814,-5381.99 L -107.814,-5381.99 L -108.437,-5381.91 L -109.045,-5381.76 L -109.629,-5381.52 L -110.179,-5381.22
 L -110.687,-5380.85 L -111.145,-5380.42 L -111.545,-5379.94 L -111.882,-5379.41 L -112.149,-5378.84 L -112.343,-5378.24
 L -112.461,-5377.63 L -112.5,-5377 L -112.5,-5207 L -112.461,-5206.37 L -112.343,-5205.76 L -112.149,-5205.16
 L -111.882,-5204.59 L -111.545,-5204.06 L -111.145,-5203.58 L -110.687,-5203.15 L -110.179,-5202.78 L -109.629,-5202.48
 L -109.045,-5202.24 L -108.437,-5202.09 L -107.814,-5202.01 L 107.814,-5202.01 z
M -107.251,-5203.51 L -107.75,-5203.57 L -108.236,-5203.7 L -108.703,-5203.88 L -109.143,-5204.12 L -109.55,-5204.42
 L -109.916,-5204.76 L -110.236,-5205.15 L -110.505,-5205.57 L -110.719,-5206.03 L -110.874,-5206.51 L -110.968,-5207
 L -111,-5207.5 L -111,-5376.5 L -110.968,-5377 L -110.874,-5377.49 L -110.719,-5377.97 L -110.505,-5378.43
 L -110.236,-5378.85 L -109.916,-5379.24 L -109.55,-5379.58 L -109.143,-5379.88 L -108.703,-5380.12 L -108.236,-5380.3
 L -107.75,-5380.43 L -107.251,-5380.49 L 107.251,-5380.49 L 107.75,-5380.43 L 108.236,-5380.3 L 108.703,-5380.12
 L 109.143,-5379.88 L 109.55,-5379.58 L 109.916,-5379.24 L 110.236,-5378.85 L 110.505,-5378.43 L 110.719,-5377.97
 L 110.874,-5377.49 L 110.968,-5377 L 111,-5376.5 L 111,-5207.5 L 110.968,-5207 L 110.874,-5206.51
 L 110.719,-5206.03 L 110.505,-5205.57 L 110.236,-5205.15 L 109.916,-5204.76 L 109.55,-5204.42 L 109.143,-5204.12
 L 108.703,-5203.88 L 108.236,-5203.7 L 107.75,-5203.57 L 107.251,-5203.51 z
M 108.437,-5013.09 L 109.045,-5013.24 L 109.629,-5013.48 L 110.179,-5013.78 L 110.687,-5014.15 L 111.145,-5014.58
 L 111.545,-5015.06 L 111.882,-5015.59 L 112.149,-5016.16 L 112.343,-5016.76 L 112.461,-5017.37 L 112.5,-5018
 L 112.5,-5188 L 112.461,-5188.63 L 112.343,-5189.24 L 112.149,-5189.84 L 111.882,-5190.41 L 111.545,-5190.94
 L 111.145,-5191.42 L 110.687,-5191.85 L 110.179,-5192.22 L 109.629,-5192.52 L 109.045,-5192.76 L 108.437,-5192.91
 L 107.814,-5192.99 L -107.814,-5192.99 L -108.437,-5192.91 L -109.045,-5192.76 L -109.629,-5192.52 L -110.179,-5192.22
 L -110.687,-5191.85 L -111.145,-5191.42 L -111.545,-5190.94 L -111.882,-5190.41 L -112.149,-5189.84 L -112.343,-5189.24
 L -112.461,-5188.63 L -112.5,-5188 L -112.5,-5018 L -112.461,-5017.37 L -112.343,-5016.76 L -112.149,-5016.16
 L -111.882,-5015.59 L -111.545,-5015.06 L -111.145,-5014.58 L -110.687,-5014.15 L -110.179,-5013.78 L -109.629,-5013.48
 L -109.045,-5013.24 L -108.437,-5013.09 L -107.814,-5013.01 L 107.814,-5013.01 z
M -107.251,-5014.51 L -107.75,-5014.57 L -108.236,-5014.7 L -108.703,-5014.88 L -109.143,-5015.12 L -109.55,-5015.42
 L -109.916,-5015.76 L -110.236,-5016.15 L -110.505,-5016.57 L -110.719,-5017.03 L -110.874,-5017.51 L -110.968,-5018
 L -111,-5018.5 L -111,-5187.5 L -110.968,-5188 L -110.874,-5188.49 L -110.719,-5188.97 L -110.505,-5189.43
 L -110.236,-5189.85 L -109.916,-5190.24 L -109.55,-5190.58 L -109.143,-5190.88 L -108.703,-5191.12 L -108.236,-5191.3
 L -107.75,-5191.43 L -107.251,-5191.49 L 107.251,-5191.49 L 107.75,-5191.43 L 108.236,-5191.3 L 108.703,-5191.12
 L 109.143,-5190.88 L 109.55,-5190.58 L 109.916,-5190.24 L 110.236,-5189.85 L 110.505,-5189.43 L 110.719,-5188.97
 L 110.874,-5188.49 L 110.968,-5188 L 111,-5187.5 L 111,-5018.5 L 110.968,-5018 L 110.874,-5017.51
 L 110.719,-5017.03 L 110.505,-5016.57 L 110.236,-5016.15 L 109.916,-5015.76 L 109.55,-5015.42 L 109.143,-5015.12
 L 108.703,-5014.88 L 108.236,-5014.7 L 107.75,-5014.57 L 107.251,-5014.51 z
M 108.437,-4824.09 L 109.045,-4824.24 L 109.629,-4824.48 L 110.179,-4824.78 L 110.687,-4825.15 L 111.145,-4825.58
 L 111.545,-4826.06 L 111.882,-4826.59 L 112.149,-4827.16 L 112.343,-4827.76 L 112.461,-4828.37 L 112.5,-4829
 L 112.5,-4999 L 112.461,-4999.63 L 112.343,-5000.24 L 112.149,-5000.84 L 111.882,-5001.41 L 111.545,-5001.94
 L 111.145,-5002.42 L 110.687,-5002.85 L 110.179,-5003.22 L 109.629,-5003.52 L 109.045,-5003.76 L 108.437,-5003.91
 L 107.814,-5003.99 L -107.814,-5003.99 L -108.437,-5003.91 L -109.045,-5003.76 L -109.629,-5003.52 L -110.179,-5003.22
 L -110.687,-5002.85 L -111.145,-5002.42 L -111.545,-5001.94 L -111.882,-5001.41 L -112.149,-5000.84 L -112.343,-5000.24
 L -112.461,-4999.63 L -112.5,-4999 L -112.5,-4829 L -112.461,-4828.37 L -112.343,-4827.76 L -112.149,-4827.16
 L -111.882,-4826.59 L -111.545,-4826.06 L -111.145,-4825.58 L -110.687,-4825.15 L -110.179,-4824.78 L -109.629,-4824.48
 L -109.045,-4824.24 L -108.437,-4824.09 L -107.814,-4824.01 L 107.814,-4824.01 z
M -107.251,-4825.51 L -107.75,-4825.57 L -108.236,-4825.7 L -108.703,-4825.88 L -109.143,-4826.12 L -109.55,-4826.42
 L -109.916,-4826.76 L -110.236,-4827.15 L -110.505,-4827.57 L -110.719,-4828.03 L -110.874,-4828.51 L -110.968,-4829
 L -111,-4829.5 L -111,-4998.5 L -110.968,-4999 L -110.874,-4999.49 L -110.719,-4999.97 L -110.505,-5000.43
 L -110.236,-5000.85 L -109.916,-5001.24 L -109.55,-5001.58 L -109.143,-5001.88 L -108.703,-5002.12 L -108.236,-5002.3
 L -107.75,-5002.43 L -107.251,-5002.49 L 107.251,-5002.49 L 107.75,-5002.43 L 108.236,-5002.3 L 108.703,-5002.12
 L 109.143,-5001.88 L 109.55,-5001.58 L 109.916,-5001.24 L 110.236,-5000.85 L 110.505,-5000.43 L 110.719,-4999.97
 L 110.874,-4999.49 L 110.968,-4999 L 111,-4998.5 L 111,-4829.5 L 110.968,-4829 L 110.874,-4828.51
 L 110.719,-4828.03 L 110.505,-4827.57 L 110.236,-4827.15 L 109.916,-4826.76 L 109.55,-4826.42 L 109.143,-4826.12
 L 108.703,-4825.88 L 108.236,-4825.7 L 107.75,-4825.57 L 107.251,-4825.51 z
M 108.437,-4635.09 L 109.045,-4635.24 L 109.629,-4635.48 L 110.179,-4635.78 L 110.687,-4636.15 L 111.145,-4636.58
 L 111.545,-4637.06 L 111.882,-4637.59 L 112.149,-4638.16 L 112.343,-4638.76 L 112.461,-4639.37 L 112.5,-4640
 L 112.5,-4810 L 112.461,-4810.63 L 112.343,-4811.24 L 112.149,-4811.84 L 111.882,-4812.41 L 111.545,-4812.94
 L 111.145,-4813.42 L 110.687,-4813.85 L 110.179,-4814.22 L 109.629,-4814.52 L 109.045,-4814.76 L 108.437,-4814.91
 L 107.814,-4814.99 L -107.814,-4814.99 L -108.437,-4814.91 L -109.045,-4814.76 L -109.629,-4814.52 L -110.179,-4814.22
 L -110.687,-4813.85 L -111.145,-4813.42 L -111.545,-4812.94 L -111.882,-4812.41 L -112.149,-4811.84 L -112.343,-4811.24
 L -112.461,-4810.63 L -112.5,-4810 L -112.5,-4640 L -112.461,-4639.37 L -112.343,-4638.76 L -112.149,-4638.16
 L -111.882,-4637.59 L -111.545,-4637.06 L -111.145,-4636.58 L -110.687,-4636.15 L -110.179,-4635.78 L -109.629,-4635.48
 L -109.045,-4635.24 L -108.437,-4635.09 L -107.814,-4635.01 L 107.814,-4635.01 z
M -107.251,-4636.51 L -107.75,-4636.57 L -108.236,-4636.7 L -108.703,-4636.88 L -109.143,-4637.12 L -109.55,-4637.42
 L -109.916,-4637.76 L -110.236,-4638.15 L -110.505,-4638.57 L -110.719,-4639.03 L -110.874,-4639.51 L -110.968,-4640
 L -111,-4640.5 L -111,-4809.5 L -110.968,-4810 L -110.874,-4810.49 L -110.719,-4810.97 L -110.505,-4811.43
 L -110.236,-4811.85 L -109.916,-4812.24 L -109.55,-4812.58 L -109.143,-4812.88 L -108.703,-4813.12 L -108.236,-4813.3
 L -107.75,-4813.43 L -107.251,-4813.49 L 107.251,-4813.49 L 107.75,-4813.43 L 108.236,-4813.3 L 108.703,-4813.12
 L 109.143,-4812.88 L 109.55,-4812.58 L 109.916,-4812.24 L 110.236,-4811.85 L 110.505,-4811.43 L 110.719,-4810.97
 L 110.874,-4810.49 L 110.968,-4810 L 111,-4809.5 L 111,-4640.5 L 110.968,-4640 L 110.874,-4639.51
 L 110.719,-4639.03 L 110.505,-4638.57 L 110.236,-4638.15 L 109.916,-4637.76 L 109.55,-4637.42 L 109.143,-4637.12
 L 108.703,-4636.88 L 108.236,-4636.7 L 107.75,-4636.57 L 107.251,-4636.51 z
M 108.437,-4446.09 L 109.045,-4446.24 L 109.629,-4446.48 L 110.179,-4446.78 L 110.687,-4447.15 L 111.145,-4447.58
 L 111.545,-4448.06 L 111.882,-4448.59 L 112.149,-4449.16 L 112.343,-4449.76 L 112.461,-4450.37 L 112.5,-4451
 L 112.5,-4621 L 112.461,-4621.63 L 112.343,-4622.24 L 112.149,-4622.84 L 111.882,-4623.41 L 111.545,-4623.94
 L 111.145,-4624.42 L 110.687,-4624.85 L 110.179,-4625.22 L 109.629,-4625.52 L 109.045,-4625.76 L 108.437,-4625.91
 L 107.814,-4625.99 L -107.814,-4625.99 L -108.437,-4625.91 L -109.045,-4625.76 L -109.629,-4625.52 L -110.179,-4625.22
 L -110.687,-4624.85 L -111.145,-4624.42 L -111.545,-4623.94 L -111.882,-4623.41 L -112.149,-4622.84 L -112.343,-4622.24
 L -112.461,-4621.63 L -112.5,-4621 L -112.5,-4451 L -112.461,-4450.37 L -112.343,-4449.76 L -112.149,-4449.16
 L -111.882,-4448.59 L -111.545,-4448.06 L -111.145,-4447.58 L -110.687,-4447.15 L -110.179,-4446.78 L -109.629,-4446.48
 L -109.045,-4446.24 L -108.437,-4446.09 L -107.814,-4446.01 L 107.814,-4446.01 z
M -107.251,-4447.51 L -107.75,-4447.57 L -108.236,-4447.7 L -108.703,-4447.88 L -109.143,-4448.12 L -109.55,-4448.42
 L -109.916,-4448.76 L -110.236,-4449.15 L -110.505,-4449.57 L -110.719,-4450.03 L -110.874,-4450.51 L -110.968,-4451
 L -111,-4451.5 L -111,-4620.5 L -110.968,-4621 L -110.874,-4621.49 L -110.719,-4621.97 L -110.505,-4622.43
 L -110.236,-4622.85 L -109.916,-4623.24 L -109.55,-4623.58 L -109.143,-4623.88 L -108.703,-4624.12 L -108.236,-4624.3
 L -107.75,-4624.43 L -107.251,-4624.49 L 107.251,-4624.49 L 107.75,-4624.43 L 108.236,-4624.3 L 108.703,-4624.12
 L 109.143,-4623.88 L 109.55,-4623.58 L 109.916,-4623.24 L 110.236,-4622.85 L 110.505,-4622.43 L 110.719,-4621.97
 L 110.874,-4621.49 L 110.968,-4621 L 111,-4620.5 L 111,-4451.5 L 110.968,-4451 L 110.874,-4450.51
 L 110.719,-4450.03 L 110.505,-4449.57 L 110.236,-4449.15 L 109.916,-4448.76 L 109.55,-4448.42 L 109.143,-4448.12
 L 108.703,-4447.88 L 108.236,-4447.7 L 107.75,-4447.57 L 107.251,-4447.51 z
M 108.437,-4257.09 L 109.045,-4257.24 L 109.629,-4257.48 L 110.179,-4257.78 L 110.687,-4258.15 L 111.145,-4258.58
 L 111.545,-4259.06 L 111.882,-4259.59 L 112.149,-4260.16 L 112.343,-4260.76 L 112.461,-4261.37 L 112.5,-4262
 L 112.5,-4432 L 112.461,-4432.63 L 112.343,-4433.24 L 112.149,-4433.84 L 111.882,-4434.41 L 111.545,-4434.94
 L 111.145,-4435.42 L 110.687,-4435.85 L 110.179,-4436.22 L 109.629,-4436.52 L 109.045,-4436.76 L 108.437,-4436.91
 L 107.814,-4436.99 L -107.814,-4436.99 L -108.437,-4436.91 L -109.045,-4436.76 L -109.629,-4436.52 L -110.179,-4436.22
 L -110.687,-4435.85 L -111.145,-4435.42 L -111.545,-4434.94 L -111.882,-4434.41 L -112.149,-4433.84 L -112.343,-4433.24
 L -112.461,-4432.63 L -112.5,-4432 L -112.5,-4262 L -112.461,-4261.37 L -112.343,-4260.76 L -112.149,-4260.16
 L -111.882,-4259.59 L -111.545,-4259.06 L -111.145,-4258.58 L -110.687,-4258.15 L -110.179,-4257.78 L -109.629,-4257.48
 L -109.045,-4257.24 L -108.437,-4257.09 L -107.814,-4257.01 L 107.814,-4257.01 z
M -107.251,-4258.51 L -107.75,-4258.57 L -108.236,-4258.7 L -108.703,-4258.88 L -109.143,-4259.12 L -109.55,-4259.42
 L -109.916,-4259.76 L -110.236,-4260.15 L -110.505,-4260.57 L -110.719,-4261.03 L -110.874,-4261.51 L -110.968,-4262
 L -111,-4262.5 L -111,-4431.5 L -110.968,-4432 L -110.874,-4432.49 L -110.719,-4432.97 L -110.505,-4433.43
 L -110.236,-4433.85 L -109.916,-4434.24 L -109.55,-4434.58 L -109.143,-4434.88 L -108.703,-4435.12 L -108.236,-4435.3
 L -107.75,-4435.43 L -107.251,-4435.49 L 107.251,-4435.49 L 107.75,-4435.43 L 108.236,-4435.3 L 108.703,-4435.12
 L 109.143,-4434.88 L 109.55,-4434.58 L 109.916,-4434.24 L 110.236,-4433.85 L 110.505,-4433.43 L 110.719,-4432.97
 L 110.874,-4432.49 L 110.968,-4432 L 111,-4431.5 L 111,-4262.5 L 110.968,-4262 L 110.874,-4261.51
 L 110.719,-4261.03 L 110.505,-4260.57 L 110.236,-4260.15 L 109.916,-4259.76 L 109.55,-4259.42 L 109.143,-4259.12
 L 108.703,-4258.88 L 108.236,-4258.7 L 107.75,-4258.57 L 107.251,-4258.51 z
M 108.437,-4068.09 L 109.045,-4068.24 L 109.629,-4068.48 L 110.179,-4068.78 L 110.687,-4069.15 L 111.145,-4069.58
 L 111.545,-4070.06 L 111.882,-4070.59 L 112.149,-4071.16 L 112.343,-4071.76 L 112.461,-4072.37 L 112.5,-4073
 L 112.5,-4243 L 112.461,-4243.63 L 112.343,-4244.24 L 112.149,-4244.84 L 111.882,-4245.41 L 111.545,-4245.94
 L 111.145,-4246.42 L 110.687,-4246.85 L 110.179,-4247.22 L 109.629,-4247.52 L 109.045,-4247.76 L 108.437,-4247.91
 L 107.814,-4247.99 L -107.814,-4247.99 L -108.437,-4247.91 L -109.045,-4247.76 L -109.629,-4247.52 L -110.179,-4247.22
 L -110.687,-4246.85 L -111.145,-4246.42 L -111.545,-4245.94 L -111.882,-4245.41 L -112.149,-4244.84 L -112.343,-4244.24
 L -112.461,-4243.63 L -112.5,-4243 L -112.5,-4073 L -112.461,-4072.37 L -112.343,-4071.76 L -112.149,-4071.16
 L -111.882,-4070.59 L -111.545,-4070.06 L -111.145,-4069.58 L -110.687,-4069.15 L -110.179,-4068.78 L -109.629,-4068.48
 L -109.045,-4068.24 L -108.437,-4068.09 L -107.814,-4068.01 L 107.814,-4068.01 z
M -107.251,-4069.51 L -107.75,-4069.57 L -108.236,-4069.7 L -108.703,-4069.88 L -109.143,-4070.12 L -109.55,-4070.42
 L -109.916,-4070.76 L -110.236,-4071.15 L -110.505,-4071.57 L -110.719,-4072.03 L -110.874,-4072.51 L -110.968,-4073
 L -111,-4073.5 L -111,-4242.5 L -110.968,-4243 L -110.874,-4243.49 L -110.719,-4243.97 L -110.505,-4244.43
 L -110.236,-4244.85 L -109.916,-4245.24 L -109.55,-4245.58 L -109.143,-4245.88 L -108.703,-4246.12 L -108.236,-4246.3
 L -107.75,-4246.43 L -107.251,-4246.49 L 107.251,-4246.49 L 107.75,-4246.43 L 108.236,-4246.3 L 108.703,-4246.12
 L 109.143,-4245.88 L 109.55,-4245.58 L 109.916,-4245.24 L 110.236,-4244.85 L 110.505,-4244.43 L 110.719,-4243.97
 L 110.874,-4243.49 L 110.968,-4243 L 111,-4242.5 L 111,-4073.5 L 110.968,-4073 L 110.874,-4072.51
 L 110.719,-4072.03 L 110.505,-4071.57 L 110.236,-4071.15 L 109.916,-4070.76 L 109.55,-4070.42 L 109.143,-4070.12
 L 108.703,-4069.88 L 108.236,-4069.7 L 107.75,-4069.57 L 107.251,-4069.51 z
M 108.437,-3879.09 L 109.045,-3879.24 L 109.629,-3879.48 L 110.179,-3879.78 L 110.687,-3880.15 L 111.145,-3880.58
 L 111.545,-3881.06 L 111.882,-3881.59 L 112.149,-3882.16 L 112.343,-3882.76 L 112.461,-3883.37 L 112.5,-3884
 L 112.5,-4054 L 112.461,-4054.63 L 112.343,-4055.24 L 112.149,-4055.84 L 111.882,-4056.41 L 111.545,-4056.94
 L 111.145,-4057.42 L 110.687,-4057.85 L 110.179,-4058.22 L 109.629,-4058.52 L 109.045,-4058.76 L 108.437,-4058.91
 L 107.814,-4058.99 L -107.814,-4058.99 L -108.437,-4058.91 L -109.045,-4058.76 L -109.629,-4058.52 L -110.179,-4058.22
 L -110.687,-4057.85 L -111.145,-4057.42 L -111.545,-4056.94 L -111.882,-4056.41 L -112.149,-4055.84 L -112.343,-4055.24
 L -112.461,-4054.63 L -112.5,-4054 L -112.5,-3884 L -112.461,-3883.37 L -112.343,-3882.76 L -112.149,-3882.16
 L -111.882,-3881.59 L -111.545,-3881.06 L -111.145,-3880.58 L -110.687,-3880.15 L -110.179,-3879.78 L -109.629,-3879.48
 L -109.045,-3879.24 L -108.437,-3879.09 L -107.814,-3879.01 L 107.814,-3879.01 z
M -107.251,-3880.51 L -107.75,-3880.57 L -108.236,-3880.7 L -108.703,-3880.88 L -109.143,-3881.12 L -109.55,-3881.42
 L -109.916,-3881.76 L -110.236,-3882.15 L -110.505,-3882.57 L -110.719,-3883.03 L -110.874,-3883.51 L -110.968,-3884
 L -111,-3884.5 L -111,-4053.5 L -110.968,-4054 L -110.874,-4054.49 L -110.719,-4054.97 L -110.505,-4055.43
 L -110.236,-4055.85 L -109.916,-4056.24 L -109.55,-4056.58 L -109.143,-4056.88 L -108.703,-4057.12 L -108.236,-4057.3
 L -107.75,-4057.43 L -107.251,-4057.49 L 107.251,-4057.49 L 107.75,-4057.43 L 108.236,-4057.3 L 108.703,-4057.12
 L 109.143,-4056.88 L 109.55,-4056.58 L 109.916,-4056.24 L 110.236,-4055.85 L 110.505,-4055.43 L 110.719,-4054.97
 L 110.874,-4054.49 L 110.968,-4054 L 111,-4053.5 L 111,-3884.5 L 110.968,-3884 L 110.874,-3883.51
 L 110.719,-3883.03 L 110.505,-3882.57 L 110.236,-3882.15 L 109.916,-3881.76 L 109.55,-3881.42 L 109.143,-3881.12
 L 108.703,-3880.88 L 108.236,-3880.7 L 107.75,-3880.57 L 107.251,-3880.51 z
M 108.437,-3690.09 L 109.045,-3690.24 L 109.629,-3690.48 L 110.179,-3690.78 L 110.687,-3691.15 L 111.145,-3691.58
 L 111.545,-3692.06 L 111.882,-3692.59 L 112.149,-3693.16 L 112.343,-3693.76 L 112.461,-3694.37 L 112.5,-3695
 L 112.5,-3865 L 112.461,-3865.63 L 112.343,-3866.24 L 112.149,-3866.84 L 111.882,-3867.41 L 111.545,-3867.94
 L 111.145,-3868.42 L 110.687,-3868.85 L 110.179,-3869.22 L 109.629,-3869.52 L 109.045,-3869.76 L 108.437,-3869.91
 L 107.814,-3869.99 L -107.814,-3869.99 L -108.437,-3869.91 L -109.045,-3869.76 L -109.629,-3869.52 L -110.179,-3869.22
 L -110.687,-3868.85 L -111.145,-3868.42 L -111.545,-3867.94 L -111.882,-3867.41 L -112.149,-3866.84 L -112.343,-3866.24
 L -112.461,-3865.63 L -112.5,-3865 L -112.5,-3695 L -112.461,-3694.37 L -112.343,-3693.76 L -112.149,-3693.16
 L -111.882,-3692.59 L -111.545,-3692.06 L -111.145,-3691.58 L -110.687,-3691.15 L -110.179,-3690.78 L -109.629,-3690.48
 L -109.045,-3690.24 L -108.437,-3690.09 L -107.814,-3690.01 L 107.814,-3690.01 z
M -107.251,-3691.51 L -107.75,-3691.57 L -108.236,-3691.7 L -108.703,-3691.88 L -109.143,-3692.12 L -109.55,-3692.42
 L -109.916,-3692.76 L -110.236,-3693.15 L -110.505,-3693.57 L -110.719,-3694.03 L -110.874,-3694.51 L -110.968,-3695
 L -111,-3695.5 L -111,-3864.5 L -110.968,-3865 L -110.874,-3865.49 L -110.719,-3865.97 L -110.505,-3866.43
 L -110.236,-3866.85 L -109.916,-3867.24 L -109.55,-3867.58 L -109.143,-3867.88 L -108.703,-3868.12 L -108.236,-3868.3
 L -107.75,-3868.43 L -107.251,-3868.49 L 107.251,-3868.49 L 107.75,-3868.43 L 108.236,-3868.3 L 108.703,-3868.12
 L 109.143,-3867.88 L 109.55,-3867.58 L 109.916,-3867.24 L 110.236,-3866.85 L 110.505,-3866.43 L 110.719,-3865.97
 L 110.874,-3865.49 L 110.968,-3865 L 111,-3864.5 L 111,-3695.5 L 110.968,-3695 L 110.874,-3694.51
 L 110.719,-3694.03 L 110.505,-3693.57 L 110.236,-3693.15 L 109.916,-3692.76 L 109.55,-3692.42 L 109.143,-3692.12
 L 108.703,-3691.88 L 108.236,-3691.7 L 107.75,-3691.57 L 107.251,-3691.51 z
M 108.437,-3501.09 L 109.045,-3501.24 L 109.629,-3501.48 L 110.179,-3501.78 L 110.687,-3502.15 L 111.145,-3502.58
 L 111.545,-3503.06 L 111.882,-3503.59 L 112.149,-3504.16 L 112.343,-3504.76 L 112.461,-3505.37 L 112.5,-3506
 L 112.5,-3676 L 112.461,-3676.63 L 112.343,-3677.24 L 112.149,-3677.84 L 111.882,-3678.41 L 111.545,-3678.94
 L 111.145,-3679.42 L 110.687,-3679.85 L 110.179,-3680.22 L 109.629,-3680.52 L 109.045,-3680.76 L 108.437,-3680.91
 L 107.814,-3680.99 L -107.814,-3680.99 L -108.437,-3680.91 L -109.045,-3680.76 L -109.629,-3680.52 L -110.179,-3680.22
 L -110.687,-3679.85 L -111.145,-3679.42 L -111.545,-3678.94 L -111.882,-3678.41 L -112.149,-3677.84 L -112.343,-3677.24
 L -112.461,-3676.63 L -112.5,-3676 L -112.5,-3506 L -112.461,-3505.37 L -112.343,-3504.76 L -112.149,-3504.16
 L -111.882,-3503.59 L -111.545,-3503.06 L -111.145,-3502.58 L -110.687,-3502.15 L -110.179,-3501.78 L -109.629,-3501.48
 L -109.045,-3501.24 L -108.437,-3501.09 L -107.814,-3501.01 L 107.814,-3501.01 z
M -107.251,-3502.51 L -107.75,-3502.57 L -108.236,-3502.7 L -108.703,-3502.88 L -109.143,-3503.12 L -109.55,-3503.42
 L -109.916,-3503.76 L -110.236,-3504.15 L -110.505,-3504.57 L -110.719,-3505.03 L -110.874,-3505.51 L -110.968,-3506
 L -111,-3506.5 L -111,-3675.5 L -110.968,-3676 L -110.874,-3676.49 L -110.719,-3676.97 L -110.505,-3677.43
 L -110.236,-3677.85 L -109.916,-3678.24 L -109.55,-3678.58 L -109.143,-3678.88 L -108.703,-3679.12 L -108.236,-3679.3
 L -107.75,-3679.43 L -107.251,-3679.49 L 107.251,-3679.49 L 107.75,-3679.43 L 108.236,-3679.3 L 108.703,-3679.12
 L 109.143,-3678.88 L 109.55,-3678.58 L 109.916,-3678.24 L 110.236,-3677.85 L 110.505,-3677.43 L 110.719,-3676.97
 L 110.874,-3676.49 L 110.968,-3676 L 111,-3675.5 L 111,-3506.5 L 110.968,-3506 L 110.874,-3505.51
 L 110.719,-3505.03 L 110.505,-3504.57 L 110.236,-3504.15 L 109.916,-3503.76 L 109.55,-3503.42 L 109.143,-3503.12
 L 108.703,-3502.88 L 108.236,-3502.7 L 107.75,-3502.57 L 107.251,-3502.51 z
M 108.437,-3312.09 L 109.045,-3312.24 L 109.629,-3312.48 L 110.179,-3312.78 L 110.687,-3313.15 L 111.145,-3313.58
 L 111.545,-3314.06 L 111.882,-3314.59 L 112.149,-3315.16 L 112.343,-3315.76 L 112.461,-3316.37 L 112.5,-3317
 L 112.5,-3487 L 112.461,-3487.63 L 112.343,-3488.24 L 112.149,-3488.84 L 111.882,-3489.41 L 111.545,-3489.94
 L 111.145,-3490.42 L 110.687,-3490.85 L 110.179,-3491.22 L 109.629,-3491.52 L 109.045,-3491.76 L 108.437,-3491.91
 L 107.814,-3491.99 L -107.814,-3491.99 L -108.437,-3491.91 L -109.045,-3491.76 L -109.629,-3491.52 L -110.179,-3491.22
 L -110.687,-3490.85 L -111.145,-3490.42 L -111.545,-3489.94 L -111.882,-3489.41 L -112.149,-3488.84 L -112.343,-3488.24
 L -112.461,-3487.63 L -112.5,-3487 L -112.5,-3317 L -112.461,-3316.37 L -112.343,-3315.76 L -112.149,-3315.16
 L -111.882,-3314.59 L -111.545,-3314.06 L -111.145,-3313.58 L -110.687,-3313.15 L -110.179,-3312.78 L -109.629,-3312.48
 L -109.045,-3312.24 L -108.437,-3312.09 L -107.814,-3312.01 L 107.814,-3312.01 z
M -107.251,-3313.51 L -107.75,-3313.57 L -108.236,-3313.7 L -108.703,-3313.88 L -109.143,-3314.12 L -109.55,-3314.42
 L -109.916,-3314.76 L -110.236,-3315.15 L -110.505,-3315.57 L -110.719,-3316.03 L -110.874,-3316.51 L -110.968,-3317
 L -111,-3317.5 L -111,-3486.5 L -110.968,-3487 L -110.874,-3487.49 L -110.719,-3487.97 L -110.505,-3488.43
 L -110.236,-3488.85 L -109.916,-3489.24 L -109.55,-3489.58 L -109.143,-3489.88 L -108.703,-3490.12 L -108.236,-3490.3
 L -107.75,-3490.43 L -107.251,-3490.49 L 107.251,-3490.49 L 107.75,-3490.43 L 108.236,-3490.3 L 108.703,-3490.12
 L 109.143,-3489.88 L 109.55,-3489.58 L 109.916,-3489.24 L 110.236,-3488.85 L 110.505,-3488.43 L 110.719,-3487.97
 L 110.874,-3487.49 L 110.968,-3487 L 111,-3486.5 L 111,-3317.5 L 110.968,-3317 L 110.874,-3316.51
 L 110.719,-3316.03 L 110.505,-3315.57 L 110.236,-3315.15 L 109.916,-3314.76 L 109.55,-3314.42 L 109.143,-3314.12
 L 108.703,-3313.88 L 108.236,-3313.7 L 107.75,-3313.57 L 107.251,-3313.51 z
M 108.437,-3123.09 L 109.045,-3123.24 L 109.629,-3123.48 L 110.179,-3123.78 L 110.687,-3124.15 L 111.145,-3124.58
 L 111.545,-3125.06 L 111.882,-3125.59 L 112.149,-3126.16 L 112.343,-3126.76 L 112.461,-3127.37 L 112.5,-3128
 L 112.5,-3298 L 112.461,-3298.63 L 112.343,-3299.24 L 112.149,-3299.84 L 111.882,-3300.41 L 111.545,-3300.94
 L 111.145,-3301.42 L 110.687,-3301.85 L 110.179,-3302.22 L 109.629,-3302.52 L 109.045,-3302.76 L 108.437,-3302.91
 L 107.814,-3302.99 L -107.814,-3302.99 L -108.437,-3302.91 L -109.045,-3302.76 L -109.629,-3302.52 L -110.179,-3302.22
 L -110.687,-3301.85 L -111.145,-3301.42 L -111.545,-3300.94 L -111.882,-3300.41 L -112.149,-3299.84 L -112.343,-3299.24
 L -112.461,-3298.63 L -112.5,-3298 L -112.5,-3128 L -112.461,-3127.37 L -112.343,-3126.76 L -112.149,-3126.16
 L -111.882,-3125.59 L -111.545,-3125.06 L -111.145,-3124.58 L -110.687,-3124.15 L -110.179,-3123.78 L -109.629,-3123.48
 L -109.045,-3123.24 L -108.437,-3123.09 L -107.814,-3123.01 L 107.814,-3123.01 z
M -107.251,-3124.51 L -107.75,-3124.57 L -108.236,-3124.7 L -108.703,-3124.88 L -109.143,-3125.12 L -109.55,-3125.42
 L -109.916,-3125.76 L -110.236,-3126.15 L -110.505,-3126.57 L -110.719,-3127.03 L -110.874,-3127.51 L -110.968,-3128
 L -111,-3128.5 L -111,-3297.5 L -110.968,-3298 L -110.874,-3298.49 L -110.719,-3298.97 L -110.505,-3299.43
 L -110.236,-3299.85 L -109.916,-3300.24 L -109.55,-3300.58 L -109.143,-3300.88 L -108.703,-3301.12 L -108.236,-3301.3
 L -107.75,-3301.43 L -107.251,-3301.49 L 107.251,-3301.49 L 107.75,-3301.43 L 108.236,-3301.3 L 108.703,-3301.12
 L 109.143,-3300.88 L 109.55,-3300.58 L 109.916,-3300.24 L 110.236,-3299.85 L 110.505,-3299.43 L 110.719,-3298.97
 L 110.874,-3298.49 L 110.968,-3298 L 111,-3297.5 L 111,-3128.5 L 110.968,-3128 L 110.874,-3127.51
 L 110.719,-3127.03 L 110.505,-3126.57 L 110.236,-3126.15 L 109.916,-3125.76 L 109.55,-3125.42 L 109.143,-3125.12
 L 108.703,-3124.88 L 108.236,-3124.7 L 107.75,-3124.57 L 107.251,-3124.51 z
M 108.437,-2934.09 L 109.045,-2934.24 L 109.629,-2934.48 L 110.179,-2934.78 L 110.687,-2935.15 L 111.145,-2935.58
 L 111.545,-2936.06 L 111.882,-2936.59 L 112.149,-2937.16 L 112.343,-2937.76 L 112.461,-2938.37 L 112.5,-2939
 L 112.5,-3109 L 112.461,-3109.63 L 112.343,-3110.24 L 112.149,-3110.84 L 111.882,-3111.41 L 111.545,-3111.94
 L 111.145,-3112.42 L 110.687,-3112.85 L 110.179,-3113.22 L 109.629,-3113.52 L 109.045,-3113.76 L 108.437,-3113.91
 L 107.814,-3113.99 L -107.814,-3113.99 L -108.437,-3113.91 L -109.045,-3113.76 L -109.629,-3113.52 L -110.179,-3113.22
 L -110.687,-3112.85 L -111.145,-3112.42 L -111.545,-3111.94 L -111.882,-3111.41 L -112.149,-3110.84 L -112.343,-3110.24
 L -112.461,-3109.63 L -112.5,-3109 L -112.5,-2939 L -112.461,-2938.37 L -112.343,-2937.76 L -112.149,-2937.16
 L -111.882,-2936.59 L -111.545,-2936.06 L -111.145,-2935.58 L -110.687,-2935.15 L -110.179,-2934.78 L -109.629,-2934.48
 L -109.045,-2934.24 L -108.437,-2934.09 L -107.814,-2934.01 L 107.814,-2934.01 z
M -107.195,-2936.39 L -107.583,-2936.44 L -107.962,-2936.54 L -108.325,-2936.68 L -108.668,-2936.87 L -108.984,-2937.1
 L -109.269,-2937.37 L -109.518,-2937.67 L -109.728,-2938 L -109.894,-2938.35 L -110.015,-2938.73 L -110.088,-2939.11
 L -110.113,-2939.5 L -110.113,-3108.5 L -110.088,-3108.89 L -110.015,-3109.27 L -109.894,-3109.65 L -109.728,-3110
 L -109.518,-3110.33 L -109.269,-3110.63 L -108.984,-3110.9 L -108.668,-3111.13 L -108.325,-3111.32 L -107.962,-3111.46
 L -107.583,-3111.56 L -107.195,-3111.61 L 107.195,-3111.61 L 107.583,-3111.56 L 107.962,-3111.46 L 108.325,-3111.32
 L 108.668,-3111.13 L 108.984,-3110.9 L 109.269,-3110.63 L 109.518,-3110.33 L 109.728,-3110 L 109.894,-3109.65
 L 110.015,-3109.27 L 110.088,-3108.89 L 110.113,-3108.5 L 110.113,-2939.5 L 110.088,-2939.11 L 110.015,-2938.73
 L 109.894,-2938.35 L 109.728,-2938 L 109.518,-2937.67 L 109.269,-2937.37 L 108.984,-2937.1 L 108.668,-2936.87
 L 108.325,-2936.68 L 107.962,-2936.54 L 107.583,-2936.44 L 107.195,-2936.39 z
M 108.437,-2745.09 L 109.045,-2745.24 L 109.629,-2745.48 L 110.179,-2745.78 L 110.687,-2746.15 L 111.145,-2746.58
 L 111.545,-2747.06 L 111.882,-2747.59 L 112.149,-2748.16 L 112.343,-2748.76 L 112.461,-2749.37 L 112.5,-2750
 L 112.5,-2920 L 112.461,-2920.63 L 112.343,-2921.24 L 112.149,-2921.84 L 111.882,-2922.41 L 111.545,-2922.94
 L 111.145,-2923.42 L 110.687,-2923.85 L 110.179,-2924.22 L 109.629,-2924.52 L 109.045,-2924.76 L 108.437,-2924.91
 L 107.814,-2924.99 L -107.814,-2924.99 L -108.437,-2924.91 L -109.045,-2924.76 L -109.629,-2924.52 L -110.179,-2924.22
 L -110.687,-2923.85 L -111.145,-2923.42 L -111.545,-2922.94 L -111.882,-2922.41 L -112.149,-2921.84 L -112.343,-2921.24
 L -112.461,-2920.63 L -112.5,-2920 L -112.5,-2750 L -112.461,-2749.37 L -112.343,-2748.76 L -112.149,-2748.16
 L -111.882,-2747.59 L -111.545,-2747.06 L -111.145,-2746.58 L -110.687,-2746.15 L -110.179,-2745.78 L -109.629,-2745.48
 L -109.045,-2745.24 L -108.437,-2745.09 L -107.814,-2745.01 L 107.814,-2745.01 z
M -105.134,-2915.37 L -105.4,-2915.4 L -105.66,-2915.47 L -105.909,-2915.57 L -106.144,-2915.7 L -106.361,-2915.85
 L -106.557,-2916.04 L -106.727,-2916.24 L -106.871,-2916.47 L -106.985,-2916.71 L -107.068,-2916.97 L -107.118,-2917.23
 L -107.135,-2917.5 L -107.118,-2917.77 L -107.068,-2918.03 L -106.985,-2918.29 L -106.871,-2918.53 L -106.727,-2918.76
 L -106.557,-2918.96 L -106.361,-2919.15 L -106.144,-2919.3 L -105.909,-2919.43 L -105.66,-2919.53 L -105.4,-2919.6
 L -105.134,-2919.63 L -104.866,-2919.63 L -104.6,-2919.6 L -104.34,-2919.53 L -104.091,-2919.43 L -103.856,-2919.3
 L -103.639,-2919.15 L -103.443,-2918.96 L -103.273,-2918.76 L -103.129,-2918.53 L -103.015,-2918.29 L -102.932,-2918.03
 L -102.882,-2917.77 L -102.865,-2917.5 L -102.882,-2917.23 L -102.932,-2916.97 L -103.015,-2916.71 L -103.129,-2916.47
 L -103.273,-2916.24 L -103.443,-2916.04 L -103.639,-2915.85 L -103.856,-2915.7 L -104.091,-2915.57 L -104.34,-2915.47
 L -104.6,-2915.4 L -104.866,-2915.37 z
M 104.866,-2915.37 L 104.6,-2915.4 L 104.34,-2915.47 L 104.091,-2915.57 L 103.856,-2915.7 L 103.639,-2915.85
 L 103.443,-2916.04 L 103.273,-2916.24 L 103.129,-2916.47 L 103.015,-2916.71 L 102.932,-2916.97 L 102.882,-2917.23
 L 102.865,-2917.5 L 102.882,-2917.77 L 102.932,-2918.03 L 103.015,-2918.29 L 103.129,-2918.53 L 103.273,-2918.76
 L 103.443,-2918.96 L 103.639,-2919.15 L 103.856,-2919.3 L 104.091,-2919.43 L 104.34,-2919.53 L 104.6,-2919.6
 L 104.866,-2919.63 L 105.134,-2919.63 L 105.4,-2919.6 L 105.66,-2919.53 L 105.909,-2919.43 L 106.144,-2919.3
 L 106.361,-2919.15 L 106.557,-2918.96 L 106.727,-2918.76 L 106.871,-2918.53 L 106.985,-2918.29 L 107.068,-2918.03
 L 107.118,-2917.77 L 107.135,-2917.5 L 107.118,-2917.23 L 107.068,-2916.97 L 106.985,-2916.71 L 106.871,-2916.47
 L 106.727,-2916.24 L 106.557,-2916.04 L 106.361,-2915.85 L 106.144,-2915.7 L 105.909,-2915.57 L 105.66,-2915.47
 L 105.4,-2915.4 L 105.134,-2915.37 z
M -105.134,-2750.37 L -105.4,-2750.4 L -105.66,-2750.47 L -105.909,-2750.57 L -106.144,-2750.7 L -106.361,-2750.85
 L -106.557,-2751.04 L -106.727,-2751.24 L -106.871,-2751.47 L -106.985,-2751.71 L -107.068,-2751.97 L -107.118,-2752.23
 L -107.135,-2752.5 L -107.118,-2752.77 L -107.068,-2753.03 L -106.985,-2753.29 L -106.871,-2753.53 L -106.727,-2753.76
 L -106.557,-2753.96 L -106.361,-2754.15 L -106.144,-2754.3 L -105.909,-2754.43 L -105.66,-2754.53 L -105.4,-2754.6
 L -105.134,-2754.63 L -104.866,-2754.63 L -104.6,-2754.6 L -104.34,-2754.53 L -104.091,-2754.43 L -103.856,-2754.3
 L -103.639,-2754.15 L -103.443,-2753.96 L -103.273,-2753.76 L -103.129,-2753.53 L -103.015,-2753.29 L -102.932,-2753.03
 L -102.882,-2752.77 L -102.865,-2752.5 L -102.882,-2752.23 L -102.932,-2751.97 L -103.015,-2751.71 L -103.129,-2751.47
 L -103.273,-2751.24 L -103.443,-2751.04 L -103.639,-2750.85 L -103.856,-2750.7 L -104.091,-2750.57 L -104.34,-2750.47
 L -104.6,-2750.4 L -104.866,-2750.37 z
M 104.866,-2750.37 L 104.6,-2750.4 L 104.34,-2750.47 L 104.091,-2750.57 L 103.856,-2750.7 L 103.639,-2750.85
 L 103.443,-2751.04 L 103.273,-2751.24 L 103.129,-2751.47 L 103.015,-2751.71 L 102.932,-2751.97 L 102.882,-2752.23
 L 102.865,-2752.5 L 102.882,-2752.77 L 102.932,-2753.03 L 103.015,-2753.29 L 103.129,-2753.53 L 103.273,-2753.76
 L 103.443,-2753.96 L 103.639,-2754.15 L 103.856,-2754.3 L 104.091,-2754.43 L 104.34,-2754.53 L 104.6,-2754.6
 L 104.866,-2754.63 L 105.134,-2754.63 L 105.4,-2754.6 L 105.66,-2754.53 L 105.909,-2754.43 L 106.144,-2754.3
 L 106.361,-2754.15 L 106.557,-2753.96 L 106.727,-2753.76 L 106.871,-2753.53 L 106.985,-2753.29 L 107.068,-2753.03
 L 107.118,-2752.77 L 107.135,-2752.5 L 107.118,-2752.23 L 107.068,-2751.97 L 106.985,-2751.71 L 106.871,-2751.47
 L 106.727,-2751.24 L 106.557,-2751.04 L 106.361,-2750.85 L 106.144,-2750.7 L 105.909,-2750.57 L 105.66,-2750.47
 L 105.4,-2750.4 L 105.134,-2750.37 z
" stroke="black" fill="lightgray" stroke-width="0.5"/>
</svg>
