<?xml version="1.0" standalone="no"?>
<!DOCTYPE svg PUBLIC "-//W3C//DTD SVG 1.1//EN" "http://www.w3.org/Graphics/SVG/1.1/DTD/svg11.dtd">
<svg width="120mm" height="448mm" viewBox="-60 -737 120 448" xmlns="http://www.w3.org/2000/svg" version="1.1">
<title>OpenSCAD Model</title>
<path d="
M 55.9369,-631.589 L 56.5451,-631.745 L 57.1289,-631.976 L 57.6791,-632.278 L 58.1871,-632.647 L 58.6448,-633.077
 L 59.0451,-633.561 L 59.3815,-634.091 L 59.6489,-634.659 L 59.8429,-635.257 L 59.9606,-635.873 L 60,-636.5
 L 60,-731.5 L 59.9606,-732.127 L 59.8429,-732.743 L 59.6489,-733.341 L 59.3815,-733.909 L 59.0451,-734.439
 L 58.6448,-734.923 L 58.1871,-735.353 L 57.6791,-735.722 L 57.1289,-736.024 L 56.5451,-736.255 L 55.9369,-736.411
 L 55.3139,-736.49 L -55.3139,-736.49 L -55.9369,-736.411 L -56.5451,-736.255 L -57.1289,-736.024 L -57.6791,-735.722
 L -58.1871,-735.353 L -58.6448,-734.923 L -59.0451,-734.439 L -59.3815,-733.909 L -59.6489,-733.341 L -59.8429,-732.743
 L -59.9606,-732.127 L -60,-731.5 L -60,-636.5 L -59.9606,-635.873 L -59.8429,-635.257 L -59.6489,-634.659
 L -59.3815,-634.091 L -59.0451,-633.561 L -58.6448,-633.077 L -58.1871,-632.647 L -57.6791,-632.278 L -57.1289,-631.976
 L -56.5451,-631.745 L -55.9369,-631.589 L -55.3139,-631.51 L 55.3139,-631.51 z
M -55.0482,-632.009 L -55.6401,-632.084 L -56.2178,-632.232 L -56.7724,-632.452 L -57.2952,-632.739 L -57.7778,-633.09
 L -58.2126,-633.498 L -58.5928,-633.958 L -58.9124,-634.462 L -59.1664,-635.001 L -59.3508,-635.569 L -59.4625,-636.155
 L -59.5,-636.75 L -59.5,-731.25 L -59.4625,-731.845 L -59.3508,-732.431 L -59.1664,-732.999 L -58.9124,-733.538
 L -58.5928,-734.042 L -58.2126,-734.502 L -57.7778,-734.91 L -57.2952,-735.261 L -56.7724,-735.548 L -56.2178,-735.768
 L -55.6401,-735.916 L -55.0482,-735.991 L 55.0482,-735.991 L 55.6401,-735.916 L 56.2178,-735.768 L 56.7724,-735.548
 L 57.2952,-735.261 L 57.7778,-734.91 L 58.2126,-734.502 L 58.5928,-734.042 L 58.9124,-733.538 L 59.1664,-732.999
 L 59.3508,-732.431 L 59.4625,-731.845 L 59.5,-731.25 L 59.5,-636.75 L 59.4625,-636.155 L 59.3508,-635.569
 L 59.1664,-635.001 L 58.9124,-634.462 L 58.5928,-633.958 L 58.2126,-633.498 L 57.7778,-633.09 L 57.2952,-632.739
 L 56.7724,-632.452 L 56.2178,-632.232 L 55.6401,-632.084 L 55.0482,-632.009 z
M 55.9369,-517.589 L 56.5451,-517.745 L 57.1289,-517.976 L 57.6791,-518.278 L 58.1871,-518.647 L 58.6448,-519.077
 L 59.0451,-519.561 L 59.3815,-520.091 L 59.6489,-520.659 L 59.8429,-521.257 L 59.9606,-521.873 L 60,-522.5
 L 60,-617.5 L 59.9606,-618.127 L 59.8429,-618.743 L 59.6489,-619.341 L 59.3815,-619.909 L 59.0451,-620.439
 L 58.6448,-620.923 L 58.1871,-621.353 L 57.6791,-621.722 L 57.1289,-622.024 L 56.5451,-622.255 L 55.9369,-622.411
 L 55.3139,-622.49 L -55.3139,-622.49 L -55.9369,-622.411 L -56.5451,-622.255 L -57.1289,-622.024 L -57.6791,-621.722
 L -58.1871,-621.353 L -58.6448,-620.923 L -59.0451,-620.439 L -59.3815,-619.909 L -59.6489,-619.341 L -59.8429,-618.743
 L -59.9606,-618.127 L -60,-617.5 L -60,-522.5 L -59.9606,-521.873 L -59.8429,-521.257 L -59.6489,-520.659
 L -59.3815,-520.091 L -59.0451,-519.561 L -58.6448,-519.077 L -58.1871,-518.647 L -57.6791,-518.278 L -57.1289,-517.976
 L -56.5451,-517.745 L -55.9369,-517.589 L -55.3139,-517.51 L 55.3139,-517.51 z
M -55.0482,-518.009 L -55.6401,-518.084 L -56.2178,-518.232 L -56.7724,-518.452 L -57.2952,-518.739 L -57.7778,-519.09
 L -58.2126,-519.498 L -58.5928,-519.958 L -58.9124,-520.462 L -59.1664,-521.001 L -59.3508,-521.569 L -59.4625,-522.155
 L -59.5,-522.75 L -59.5,-617.25 L -59.4625,-617.845 L -59.3508,-618.431 L -59.1664,-618.999 L -58.9124,-619.538
 L -58.5928,-620.042 L -58.2126,-620.502 L -57.7778,-620.91 L -57.2952,-621.261 L -56.7724,-621.548 L -56.2178,-621.768
 L -55.6401,-621.916 L -55.0482,-621.991 L 55.0482,-621.991 L 55.6401,-621.916 L 56.2178,-621.768 L 56.7724,-621.548
 L 57.2952,-621.261 L 57.7778,-620.91 L 58.2126,-620.502 L 58.5928,-620.042 L 58.9124,-619.538 L 59.1664,-618.999
 L 59.3508,-618.431 L 59.4625,-617.845 L 59.5,-617.25 L 59.5,-522.75 L 59.4625,-522.155 L 59.3508,-521.569
 L 59.1664,-521.001 L 58.9124,-520.462 L 58.5928,-519.958 L 58.2126,-519.498 L 57.7778,-519.09 L 57.2952,-518.739
 L 56.7724,-518.452 L 56.2178,-518.232 L 55.6401,-518.084 L 55.0482,-518.009 z
M 55.9369,-403.589 L 56.5451,-403.745 L 57.1289,-403.976 L 57.6791,-404.278 L 58.1871,-404.647 L 58.6448,-405.077
 L 59.0451,-405.561 L 59.3815,-406.091 L 59.6489,-406.659 L 59.8429,-407.257 L 59.9606,-407.873 L 60,-408.5
 L 60,-503.5 L 59.9606,-504.127 L 59.8429,-504.743 L 59.6489,-505.341 L 59.3815,-505.909 L 59.0451,-506.439
 L 58.6448,-506.923 L 58.1871,-507.353 L 57.6791,-507.722 L 57.1289,-508.024 L 56.5451,-508.255 L 55.9369,-508.411
 L 55.3139,-508.49 L -55.3139,-508.49 L -55.9369,-508.411 L -56.5451,-508.255 L -57.1289,-508.024 L -57.6791,-507.722
 L -58.1871,-507.353 L -58.6448,-506.923 L -59.0451,-506.439 L -59.3815,-505.909 L -59.6489,-505.341 L -59.8429,-504.743
 L -59.9606,-504.127 L -60,-503.5 L -60,-408.5 L -59.9606,-407.873 L -59.8429,-407.257 L -59.6489,-406.659
 L -59.3815,-406.091 L -59.0451,-405.561 L -58.6448,-405.077 L -58.1871,-404.647 L -57.6791,-404.278 L -57.1289,-403.976
 L -56.5451,-403.745 L -55.9369,-403.589 L -55.3139,-403.51 L 55.3139,-403.51 z
M -54.993,-404.888 L -55.4751,-404.949 L -55.9457,-405.07 L -56.3975,-405.249 L -56.8234,-405.483 L -57.2165,-405.769
 L -57.5707,-406.101 L -57.8805,-406.476 L -58.1408,-406.886 L -58.3477,-407.326 L -58.4979,-407.788 L -58.589,-408.265
 L -58.6195,-408.75 L -58.6195,-503.25 L -58.589,-503.735 L -58.4979,-504.212 L -58.3477,-504.674 L -58.1408,-505.114
 L -57.8805,-505.524 L -57.5707,-505.899 L -57.2165,-506.231 L -56.8234,-506.517 L -56.3975,-506.751 L -55.9457,-506.93
 L -55.4751,-507.051 L -54.993,-507.112 L 54.993,-507.112 L 55.4751,-507.051 L 55.9457,-506.93 L 56.3975,-506.751
 L 56.8234,-506.517 L 57.2165,-506.231 L 57.5707,-505.899 L 57.8805,-505.524 L 58.1408,-505.114 L 58.3477,-504.674
 L 58.4979,-504.212 L 58.589,-503.735 L 58.6195,-503.25 L 58.6195,-408.75 L 58.589,-408.265 L 58.4979,-407.788
 L 58.3477,-407.326 L 58.1408,-406.886 L 57.8805,-406.476 L 57.5707,-406.101 L 57.2165,-405.769 L 56.8234,-405.483
 L 56.3975,-405.249 L 55.9457,-405.07 L 55.4751,-404.949 L 54.993,-404.888 z
M 55.9369,-289.589 L 56.5451,-289.745 L 57.1289,-289.976 L 57.6791,-290.278 L 58.1871,-290.647 L 58.6448,-291.077
 L 59.0451,-291.561 L 59.3815,-292.091 L 59.6489,-292.659 L 59.8429,-293.257 L 59.9606,-293.873 L 60,-294.5
 L 60,-389.5 L 59.9606,-390.127 L 59.8429,-390.743 L 59.6489,-391.341 L 59.3815,-391.909 L 59.0451,-392.439
 L 58.6448,-392.923 L 58.1871,-393.353 L 57.6791,-393.722 L 57.1289,-394.024 L 56.5451,-394.255 L 55.9369,-394.411
 L 55.3139,-394.49 L -55.3139,-394.49 L -55.9369,-394.411 L -56.5451,-394.255 L -57.1289,-394.024 L -57.6791,-393.722
 L -58.1871,-393.353 L -58.6448,-392.923 L -59.0451,-392.439 L -59.3815,-391.909 L -59.6489,-391.341 L -59.8429,-390.743
 L -59.9606,-390.127 L -60,-389.5 L -60,-294.5 L -59.9606,-293.873 L -59.8429,-293.257 L -59.6489,-292.659
 L -59.3815,-292.091 L -59.0451,-291.561 L -58.6448,-291.077 L -58.1871,-290.647 L -57.6791,-290.278 L -57.1289,-289.976
 L -56.5451,-289.745 L -55.9369,-289.589 L -55.3139,-289.51 L 55.3139,-289.51 z
M -52.613,-385.204 L -52.8373,-385.232 L -53.0562,-385.288 L -53.2664,-385.371 L -53.4645,-385.48 L -53.6474,-385.613
 L -53.8121,-385.768 L -53.9562,-385.942 L -54.0773,-386.133 L -54.1736,-386.337 L -54.2434,-386.552 L -54.2858,-386.774
 L -54.3,-387 L -54.2858,-387.226 L -54.2434,-387.448 L -54.1736,-387.663 L -54.0773,-387.867 L -53.9562,-388.058
 L -53.8121,-388.232 L -53.6474,-388.387 L -53.4645,-388.52 L -53.2664,-388.629 L -53.0562,-388.712 L -52.8373,-388.768
 L -52.613,-388.796 L -52.387,-388.796 L -52.1627,-388.768 L -51.9438,-388.712 L -51.7336,-388.629 L -51.5355,-388.52
 L -51.3526,-388.387 L -51.1879,-388.232 L -51.0438,-388.058 L -50.9226,-387.867 L -50.8264,-387.663 L -50.7565,-387.448
 L -50.7142,-387.226 L -50.7,-387 L -50.7142,-386.774 L -50.7565,-386.552 L -50.8264,-386.337 L -50.9226,-386.133
 L -51.0438,-385.942 L -51.1879,-385.768 L -51.3526,-385.613 L -51.5355,-385.48 L -51.7336,-385.371 L -51.9438,-385.288
 L -52.1627,-385.232 L -52.387,-385.204 z
M 52.387,-385.204 L 52.1627,-385.232 L 51.9438,-385.288 L 51.7336,-385.371 L 51.5355,-385.48 L 51.3526,-385.613
 L 51.1879,-385.768 L 51.0438,-385.942 L 50.9226,-386.133 L 50.8264,-386.337 L 50.7565,-386.552 L 50.7142,-386.774
 L 50.7,-387 L 50.7142,-387.226 L 50.7565,-387.448 L 50.8264,-387.663 L 50.9226,-387.867 L 51.0438,-388.058
 L 51.1879,-388.232 L 51.3526,-388.387 L 51.5355,-388.52 L 51.7336,-388.629 L 51.9438,-388.712 L 52.1627,-388.768
 L 52.387,-388.796 L 52.613,-388.796 L 52.8373,-388.768 L 53.0562,-388.712 L 53.2664,-388.629 L 53.4645,-388.52
 L 53.6474,-388.387 L 53.8121,-388.232 L 53.9562,-388.058 L 54.0773,-387.867 L 54.1736,-387.663 L 54.2434,-387.448
 L 54.2858,-387.226 L 54.3,-387 L 54.2858,-386.774 L 54.2434,-386.552 L 54.1736,-386.337 L 54.0773,-386.133
 L 53.9562,-385.942 L 53.8121,-385.768 L 53.6474,-385.613 L 53.4645,-385.48 L 53.2664,-385.371 L 53.0562,-385.288
 L 52.8373,-385.232 L 52.613,-385.204 z
M -52.613,-295.204 L -52.8373,-295.232 L -53.0562,-295.288 L -53.2664,-295.371 L -53.4645,-295.48 L -53.6474,-295.613
 L -53.8121,-295.768 L -53.9562,-295.942 L -54.0773,-296.133 L -54.1736,-296.337 L -54.2434,-296.552 L -54.2858,-296.774
 L -54.3,-297 L -54.2858,-297.226 L -54.2434,-297.448 L -54.1736,-297.663 L -54.0773,-297.867 L -53.9562,-298.058
 L -53.8121,-298.232 L -53.6474,-298.387 L -53.4645,-298.52 L -53.2664,-298.629 L -53.0562,-298.712 L -52.8373,-298.768
 L -52.613,-298.796 L -52.387,-298.796 L -52.1627,-298.768 L -51.9438,-298.712 L -51.7336,-298.629 L -51.5355,-298.52
 L -51.3526,-298.387 L -51.1879,-298.232 L -51.0438,-298.058 L -50.9226,-297.867 L -50.8264,-297.663 L -50.7565,-297.448
 L -50.7142,-297.226 L -50.7,-297 L -50.7142,-296.774 L -50.7565,-296.552 L -50.8264,-296.337 L -50.9226,-296.133
 L -51.0438,-295.942 L -51.1879,-295.768 L -51.3526,-295.613 L -51.5355,-295.48 L -51.7336,-295.371 L -51.9438,-295.288
 L -52.1627,-295.232 L -52.387,-295.204 z
M 52.387,-295.204 L 52.1627,-295.232 L 51.9438,-295.288 L 51.7336,-295.371 L 51.5355,-295.48 L 51.3526,-295.613
 L 51.1879,-295.768 L 51.0438,-295.942 L 50.9226,-296.133 L 50.8264,-296.337 L 50.7565,-296.552 L 50.7142,-296.774
 L 50.7,-297 L 50.7142,-297.226 L 50.7565,-297.448 L 50.8264,-297.663 L 50.9226,-297.867 L 51.0438,-298.058
 L 51.1879,-298.232 L 51.3526,-298.387 L 51.5355,-298.52 L 51.7336,-298.629 L 51.9438,-298.712 L 52.1627,-298.768
 L 52.387,-298.796 L 52.613,-298.796 L 52.8373,-298.768 L 53.0562,-298.712 L 53.2664,-298.629 L 53.4645,-298.52
 L 53.6474,-298.387 L 53.8121,-298.232 L 53.9562,-298.058 L 54.0773,-297.867 L 54.1736,-297.663 L 54.2434,-297.448
 L 54.2858,-297.226 L 54.3,-297 L 54.2858,-296.774 L 54.2434,-296.552 L 54.1736,-296.337 L 54.0773,-296.133
 L 53.9562,-295.942 L 53.8121,-295.768 L 53.6474,-295.613 L 53.4645,-295.48 L 53.2664,-295.371 L 53.0562,-295.288
 L 52.8373,-295.232 L 52.613,-295.204 z
" stroke="black" fill="lightgray" stroke-width="0.5"/>
</svg>
