<?xml version="1.0" standalone="no"?>
<!DOCTYPE svg PUBLIC "-//W3C//DTD SVG 1.1//EN" "http://www.w3.org/Graphics/SVG/1.1/DTD/svg11.dtd">
<svg width="24mm" height="88mm" viewBox="-12 -152 24 88" xmlns="http://www.w3.org/2000/svg" version="1.1">
<title>OpenSCAD Model</title>
<path d="
M 7.1869,-136.589 L 7.79507,-136.745 L 8.37889,-136.976 L 8.92912,-137.278 L 9.43712,-137.647 L 9.89484,-138.077
 L 10.2951,-138.561 L 10.6315,-139.091 L 10.8989,-139.659 L 11.0929,-140.257 L 11.2106,-140.873 L 11.25,-141.5
 L 11.25,-146.5 L 11.2106,-147.127 L 11.0929,-147.743 L 10.8989,-148.341 L 10.6315,-148.909 L 10.2951,-149.439
 L 9.89484,-149.923 L 9.43712,-150.353 L 8.92912,-150.722 L 8.37889,-151.024 L 7.79507,-151.255 L 7.1869,-151.411
 L 6.56395,-151.49 L -6.56395,-151.49 L -7.1869,-151.411 L -7.79507,-151.255 L -8.37889,-151.024 L -8.92912,-150.722
 L -9.43712,-150.353 L -9.89484,-149.923 L -10.2951,-149.439 L -10.6315,-148.909 L -10.8989,-148.341 L -11.0929,-147.743
 L -11.2106,-147.127 L -11.25,-146.5 L -11.25,-141.5 L -11.2106,-140.873 L -11.0929,-140.257 L -10.8989,-139.659
 L -10.6315,-139.091 L -10.2951,-138.561 L -9.89484,-138.077 L -9.43712,-137.647 L -8.92912,-137.278 L -8.37889,-136.976
 L -7.79507,-136.745 L -7.1869,-136.589 L -6.56395,-136.51 L 6.56395,-136.51 z
M -6.00116,-138.008 L -6.49951,-138.071 L -6.98605,-138.196 L -7.45311,-138.381 L -7.8933,-138.623 L -8.29968,-138.918
 L -8.66586,-139.262 L -8.98605,-139.649 L -9.25522,-140.073 L -9.4691,-140.528 L -9.62433,-141.005 L -9.71844,-141.499
 L -9.75,-142 L -9.75,-146 L -9.71844,-146.501 L -9.62433,-146.995 L -9.4691,-147.472 L -9.25522,-147.927
 L -8.98605,-148.351 L -8.66586,-148.738 L -8.29968,-149.082 L -7.8933,-149.377 L -7.45311,-149.619 L -6.98605,-149.804
 L -6.49951,-149.929 L -6.00116,-149.992 L 6.00116,-149.992 L 6.49951,-149.929 L 6.98605,-149.804 L 7.45311,-149.619
 L 7.8933,-149.377 L 8.29968,-149.082 L 8.66586,-148.738 L 8.98605,-148.351 L 9.25522,-147.927 L 9.4691,-147.472
 L 9.62433,-146.995 L 9.71844,-146.501 L 9.75,-146 L 9.75,-142 L 9.71844,-141.499 L 9.62433,-141.005
 L 9.4691,-140.528 L 9.25522,-140.073 L 8.98605,-139.649 L 8.66586,-139.262 L 8.29968,-138.918 L 7.8933,-138.623
 L 7.45311,-138.381 L 6.98605,-138.196 L 6.49951,-138.071 L 6.00116,-138.008 z
M 7.1869,-112.589 L 7.79507,-112.745 L 8.37889,-112.976 L 8.92912,-113.278 L 9.43712,-113.647 L 9.89484,-114.077
 L 10.2951,-114.561 L 10.6315,-115.091 L 10.8989,-115.659 L 11.0929,-116.257 L 11.2106,-116.873 L 11.25,-117.5
 L 11.25,-122.5 L 11.2106,-123.127 L 11.0929,-123.743 L 10.8989,-124.341 L 10.6315,-124.909 L 10.2951,-125.439
 L 9.89484,-125.923 L 9.43712,-126.353 L 8.92912,-126.722 L 8.37889,-127.024 L 7.79507,-127.255 L 7.1869,-127.411
 L 6.56395,-127.49 L -6.56395,-127.49 L -7.1869,-127.411 L -7.79507,-127.255 L -8.37889,-127.024 L -8.92912,-126.722
 L -9.43712,-126.353 L -9.89484,-125.923 L -10.2951,-125.439 L -10.6315,-124.909 L -10.8989,-124.341 L -11.0929,-123.743
 L -11.2106,-123.127 L -11.25,-122.5 L -11.25,-117.5 L -11.2106,-116.873 L -11.0929,-116.257 L -10.8989,-115.659
 L -10.6315,-115.091 L -10.2951,-114.561 L -9.89484,-114.077 L -9.43712,-113.647 L -8.92912,-113.278 L -8.37889,-112.976
 L -7.79507,-112.745 L -7.1869,-112.589 L -6.56395,-112.51 L 6.56395,-112.51 z
M -5.99316,-114.135 L -6.47565,-114.196 L -6.9467,-114.317 L -7.39888,-114.496 L -7.82506,-114.73 L -8.21851,-115.016
 L -8.57301,-115.349 L -8.88301,-115.724 L -9.1436,-116.134 L -9.35068,-116.574 L -9.50096,-117.037 L -9.59209,-117.515
 L -9.62262,-118 L -9.62262,-122 L -9.59209,-122.485 L -9.50096,-122.963 L -9.35068,-123.426 L -9.1436,-123.866
 L -8.88301,-124.276 L -8.57301,-124.651 L -8.21851,-124.984 L -7.82506,-125.27 L -7.39888,-125.504 L -6.9467,-125.683
 L -6.47565,-125.804 L -5.99316,-125.865 L 5.99316,-125.865 L 6.47565,-125.804 L 6.9467,-125.683 L 7.39888,-125.504
 L 7.82506,-125.27 L 8.21851,-124.984 L 8.57301,-124.651 L 8.88301,-124.276 L 9.1436,-123.866 L 9.35068,-123.426
 L 9.50096,-122.963 L 9.59209,-122.485 L 9.62262,-122 L 9.62262,-118 L 9.59209,-117.515 L 9.50096,-117.037
 L 9.35068,-116.574 L 9.1436,-116.134 L 8.88301,-115.724 L 8.57301,-115.349 L 8.21851,-115.016 L 7.82506,-114.73
 L 7.39888,-114.496 L 6.9467,-114.317 L 6.47565,-114.196 L 5.99316,-114.135 z
M 7.1869,-88.5886 L 7.79507,-88.7447 L 8.37889,-88.9759 L 8.92912,-89.2784 L 9.43712,-89.6474 L 9.89484,-90.0773
 L 10.2951,-90.5611 L 10.6315,-91.0912 L 10.8989,-91.6594 L 11.0929,-92.2566 L 11.2106,-92.8733 L 11.25,-93.5
 L 11.25,-98.5 L 11.2106,-99.1267 L 11.0929,-99.7434 L 10.8989,-100.341 L 10.6315,-100.909 L 10.2951,-101.439
 L 9.89484,-101.923 L 9.43712,-102.353 L 8.92912,-102.722 L 8.37889,-103.024 L 7.79507,-103.255 L 7.1869,-103.411
 L 6.56395,-103.49 L -6.56395,-103.49 L -7.1869,-103.411 L -7.79507,-103.255 L -8.37889,-103.024 L -8.92912,-102.722
 L -9.43712,-102.353 L -9.89484,-101.923 L -10.2951,-101.439 L -10.6315,-100.909 L -10.8989,-100.341 L -11.0929,-99.7434
 L -11.2106,-99.1267 L -11.25,-98.5 L -11.25,-93.5 L -11.2106,-92.8733 L -11.0929,-92.2566 L -10.8989,-91.6594
 L -10.6315,-91.0912 L -10.2951,-90.5611 L -9.89484,-90.0773 L -9.43712,-89.6474 L -8.92912,-89.2784 L -8.37889,-88.9759
 L -7.79507,-88.7447 L -7.1869,-88.5886 L -6.56395,-88.5099 L 6.56395,-88.5099 z
M 3.59929,-93.6047 L 3.30028,-93.6425 L 3.00835,-93.7175 L 2.72812,-93.8284 L 2.464,-93.9736 L 2.22017,-94.1508
 L 2.00047,-94.3571 L 1.80835,-94.5893 L 1.64685,-94.8438 L 1.51852,-95.1165 L 1.4254,-95.4032 L 1.36891,-95.6992
 L 1.34999,-96 L 1.36891,-96.3008 L 1.4254,-96.5968 L 1.51852,-96.8835 L 1.64685,-97.1562 L 1.80835,-97.4107
 L 2.00047,-97.6429 L 2.22017,-97.8492 L 2.464,-98.0264 L 2.72812,-98.1716 L 3.00835,-98.2825 L 3.30028,-98.3575
 L 3.59929,-98.3953 L 3.9007,-98.3953 L 4.19971,-98.3575 L 4.49164,-98.2825 L 4.77187,-98.1716 L 5.03598,-98.0264
 L 5.27982,-97.8492 L 5.49951,-97.6429 L 5.69164,-97.4107 L 5.85313,-97.1562 L 5.98146,-96.8835 L 6.07458,-96.5968
 L 6.13107,-96.3008 L 6.14999,-96 L 6.13107,-95.6992 L 6.07458,-95.4032 L 5.98146,-95.1165 L 5.85313,-94.8438
 L 5.69164,-94.5893 L 5.49951,-94.3571 L 5.27982,-94.1508 L 5.03598,-93.9736 L 4.77187,-93.8284 L 4.49164,-93.7175
 L 4.19971,-93.6425 L 3.9007,-93.6047 z
M -3.9007,-93.6047 L -4.19971,-93.6425 L -4.49164,-93.7175 L -4.77187,-93.8284 L -5.03598,-93.9736 L -5.27982,-94.1508
 L -5.49951,-94.3571 L -5.69164,-94.5893 L -5.85313,-94.8438 L -5.98146,-95.1165 L -6.07458,-95.4032 L -6.13107,-95.6992
 L -6.14999,-96 L -6.13107,-96.3008 L -6.07458,-96.5968 L -5.98146,-96.8835 L -5.85313,-97.1562 L -5.69164,-97.4107
 L -5.49951,-97.6429 L -5.27982,-97.8492 L -5.03598,-98.0264 L -4.77187,-98.1716 L -4.49164,-98.2825 L -4.19971,-98.3575
 L -3.9007,-98.3953 L -3.59929,-98.3953 L -3.30028,-98.3575 L -3.00835,-98.2825 L -2.72812,-98.1716 L -2.464,-98.0264
 L -2.22017,-97.8492 L -2.00047,-97.6429 L -1.80835,-97.4107 L -1.64685,-97.1562 L -1.51852,-96.8835 L -1.4254,-96.5968
 L -1.36891,-96.3008 L -1.34999,-96 L -1.36891,-95.6992 L -1.4254,-95.4032 L -1.51852,-95.1165 L -1.64685,-94.8438
 L -1.80835,-94.5893 L -2.00047,-94.3571 L -2.22017,-94.1508 L -2.464,-93.9736 L -2.72812,-93.8284 L -3.00835,-93.7175
 L -3.30028,-93.6425 L -3.59929,-93.6047 z
M 7.1869,-64.5886 L 7.79507,-64.7447 L 8.37889,-64.9759 L 8.92912,-65.2784 L 9.43712,-65.6474 L 9.89484,-66.0773
 L 10.2951,-66.5611 L 10.6315,-67.0912 L 10.8989,-67.6594 L 11.0929,-68.2566 L 11.2106,-68.8733 L 11.25,-69.5
 L 11.25,-74.5 L 11.2106,-75.1267 L 11.0929,-75.7434 L 10.8989,-76.3406 L 10.6315,-76.9088 L 10.2951,-77.4389
 L 9.89484,-77.9227 L 9.43712,-78.3526 L 8.92912,-78.7216 L 8.37889,-79.0241 L 7.79507,-79.2553 L 7.1869,-79.4114
 L 6.56395,-79.4901 L -6.56395,-79.4901 L -7.1869,-79.4114 L -7.79507,-79.2553 L -8.37889,-79.0241 L -8.92912,-78.7216
 L -9.43712,-78.3526 L -9.89484,-77.9227 L -10.2951,-77.4389 L -10.6315,-76.9088 L -10.8989,-76.3406 L -11.0929,-75.7434
 L -11.2106,-75.1267 L -11.25,-74.5 L -11.25,-69.5 L -11.2106,-68.8733 L -11.0929,-68.2566 L -10.8989,-67.6594
 L -10.6315,-67.0912 L -10.2951,-66.5611 L -9.89484,-66.0773 L -9.43712,-65.6474 L -8.92912,-65.2784 L -8.37889,-64.9759
 L -7.79507,-64.7447 L -7.1869,-64.5886 L -6.56395,-64.5099 L 6.56395,-64.5099 z
M 3.63696,-70.2036 L 3.4127,-70.2319 L 3.19376,-70.2881 L 2.9836,-70.3713 L 2.78551,-70.4802 L 2.60263,-70.6131
 L 2.43785,-70.7678 L 2.29376,-70.942 L 2.17264,-71.1329 L 2.0764,-71.3374 L 2.00655,-71.5524 L 1.96419,-71.7744
 L 1.95,-72 L 1.96419,-72.2256 L 2.00655,-72.4476 L 2.0764,-72.6626 L 2.17264,-72.8671 L 2.29376,-73.058
 L 2.43785,-73.2322 L 2.60263,-73.3869 L 2.78551,-73.5198 L 2.9836,-73.6287 L 3.19376,-73.7119 L 3.4127,-73.7681
 L 3.63696,-73.7964 L 3.86302,-73.7964 L 4.08728,-73.7681 L 4.30623,-73.7119 L 4.51639,-73.6287 L 4.71448,-73.5198
 L 4.89735,-73.3869 L 5.06213,-73.2322 L 5.20622,-73.058 L 5.32735,-72.8671 L 5.42358,-72.6626 L 5.49344,-72.4476
 L 5.5358,-72.2256 L 5.54999,-72 L 5.5358,-71.7744 L 5.49344,-71.5524 L 5.42358,-71.3374 L 5.32735,-71.1329
 L 5.20622,-70.942 L 5.06213,-70.7678 L 4.89735,-70.6131 L 4.71448,-70.4802 L 4.51639,-70.3713 L 4.30623,-70.2881
 L 4.08728,-70.2319 L 3.86302,-70.2036 z
M -3.86302,-70.2036 L -4.08728,-70.2319 L -4.30623,-70.2881 L -4.51639,-70.3713 L -4.71448,-70.4802 L -4.89735,-70.6131
 L -5.06213,-70.7678 L -5.20622,-70.942 L -5.32735,-71.1329 L -5.42358,-71.3374 L -5.49344,-71.5524 L -5.5358,-71.7744
 L -5.54999,-72 L -5.5358,-72.2256 L -5.49344,-72.4476 L -5.42358,-72.6626 L -5.32735,-72.8671 L -5.20622,-73.058
 L -5.06213,-73.2322 L -4.89735,-73.3869 L -4.71448,-73.5198 L -4.51639,-73.6287 L -4.30623,-73.7119 L -4.08728,-73.7681
 L -3.86302,-73.7964 L -3.63696,-73.7964 L -3.4127,-73.7681 L -3.19376,-73.7119 L -2.9836,-73.6287 L -2.78551,-73.5198
 L -2.60263,-73.3869 L -2.43785,-73.2322 L -2.29376,-73.058 L -2.17264,-72.8671 L -2.0764,-72.6626 L -2.00655,-72.4476
 L -1.96419,-72.2256 L -1.95,-72 L -1.96419,-71.7744 L -2.00655,-71.5524 L -2.0764,-71.3374 L -2.17264,-71.1329
 L -2.29376,-70.942 L -2.43785,-70.7678 L -2.60263,-70.6131 L -2.78551,-70.4802 L -2.9836,-70.3713 L -3.19376,-70.2881
 L -3.4127,-70.2319 L -3.63696,-70.2036 z
" stroke="black" fill="lightgray" stroke-width="0.5"/>
</svg>
