solid OpenSCAD_Model
  facet normal 0 -1 0
    outer loop
      vertex -1.58675 -2.74832 0
      vertex 1.58675 -2.74832 2.5
      vertex -1.58675 -2.74832 2.5
    endloop
  endfacet
  facet normal 0 -1 -0
    outer loop
      vertex 1.58675 -2.74832 2.5
      vertex -1.58675 -2.74832 0
      vertex 1.58675 -2.74832 0
    endloop
  endfacet
  facet normal 0.866026 -0.499999 0
    outer loop
      vertex 1.58675 -2.74832 2.5
      vertex 3.17349 0 0
      vertex 3.17349 0 2.5
    endloop
  endfacet
  facet normal 0.866026 -0.499999 0
    outer loop
      vertex 3.17349 0 0
      vertex 1.58675 -2.74832 2.5
      vertex 1.58675 -2.74832 0
    endloop
  endfacet
  facet normal 0 0 -1
    outer loop
      vertex 1.31446 -0.722631 0
      vertex 3.17349 0 0
      vertex 1.58675 -2.74832 0
    endloop
  endfacet
  facet normal 0 0 -1
    outer loop
      vertex 1.48817 0.188 0
      vertex 3.17349 0 0
      vertex 1.5 0 0
    endloop
  endfacet
  facet normal -0 0 -1
    outer loop
      vertex 3.17349 0 0
      vertex 1.48817 -0.188 0
      vertex 1.5 0 0
    endloop
  endfacet
  facet normal 0 0 -1
    outer loop
      vertex 3.17349 0 0
      vertex 1.45287 -0.373034 0
      vertex 1.48817 -0.188 0
    endloop
  endfacet
  facet normal 0 0 -1
    outer loop
      vertex 3.17349 0 0
      vertex 1.39466 -0.552186 0
      vertex 1.45287 -0.373034 0
    endloop
  endfacet
  facet normal 0 0 -1
    outer loop
      vertex 3.17349 0 0
      vertex 1.31446 -0.722631 0
      vertex 1.39466 -0.552186 0
    endloop
  endfacet
  facet normal 0 0 -1
    outer loop
      vertex 1.58675 -2.74832 0
      vertex 1.21352 -0.881678 0
      vertex 1.31446 -0.722631 0
    endloop
  endfacet
  facet normal 0 0 -1
    outer loop
      vertex 1.58675 -2.74832 0
      vertex 1.09345 -1.02682 0
      vertex 1.21352 -0.881678 0
    endloop
  endfacet
  facet normal 0 0 -1
    outer loop
      vertex 1.58675 -2.74832 0
      vertex 0.956136 -1.15577 0
      vertex 1.09345 -1.02682 0
    endloop
  endfacet
  facet normal 0 0 -1
    outer loop
      vertex 1.58675 -2.74832 0
      vertex 0.80374 -1.26649 0
      vertex 0.956136 -1.15577 0
    endloop
  endfacet
  facet normal 0 0 -1
    outer loop
      vertex 1.58675 -2.74832 0
      vertex 0.638668 -1.35724 0
      vertex 0.80374 -1.26649 0
    endloop
  endfacet
  facet normal 0 0 -1
    outer loop
      vertex 1.58675 -2.74832 0
      vertex 0.463525 -1.42658 0
      vertex 0.638668 -1.35724 0
    endloop
  endfacet
  facet normal 0 0 -1
    outer loop
      vertex 1.58675 -2.74832 0
      vertex 0.281072 -1.47343 0
      vertex 0.463525 -1.42658 0
    endloop
  endfacet
  facet normal 0 0 -1
    outer loop
      vertex 1.58675 -2.74832 0
      vertex 0.0941849 -1.49704 0
      vertex 0.281072 -1.47343 0
    endloop
  endfacet
  facet normal 0 0 -1
    outer loop
      vertex 1.58675 -2.74832 0
      vertex -0.0941849 -1.49704 0
      vertex 0.0941849 -1.49704 0
    endloop
  endfacet
  facet normal 0 0 -1
    outer loop
      vertex -1.58675 -2.74832 0
      vertex -0.0941849 -1.49704 0
      vertex 1.58675 -2.74832 0
    endloop
  endfacet
  facet normal -0 0 -1
    outer loop
      vertex -0.0941849 -1.49704 0
      vertex -1.58675 -2.74832 0
      vertex -0.281072 -1.47343 0
    endloop
  endfacet
  facet normal -0 0 -1
    outer loop
      vertex -0.281072 -1.47343 0
      vertex -1.58675 -2.74832 0
      vertex -0.463525 -1.42658 0
    endloop
  endfacet
  facet normal -0 0 -1
    outer loop
      vertex -0.463525 -1.42658 0
      vertex -1.58675 -2.74832 0
      vertex -0.638668 -1.35724 0
    endloop
  endfacet
  facet normal 0 0 -1
    outer loop
      vertex -1.45287 -0.373034 0
      vertex -3.17349 0 0
      vertex -1.48817 -0.188 0
    endloop
  endfacet
  facet normal 0 0 -1
    outer loop
      vertex -1.39466 -0.552186 0
      vertex -3.17349 0 0
      vertex -1.45287 -0.373034 0
    endloop
  endfacet
  facet normal 0 0 -1
    outer loop
      vertex -1.31446 -0.722631 0
      vertex -3.17349 0 0
      vertex -1.39466 -0.552186 0
    endloop
  endfacet
  facet normal 0 0 -1
    outer loop
      vertex -3.17349 0 0
      vertex -1.31446 -0.722631 0
      vertex -1.58675 -2.74832 0
    endloop
  endfacet
  facet normal -0 0 -1
    outer loop
      vertex -1.21352 -0.881678 0
      vertex -1.58675 -2.74832 0
      vertex -1.31446 -0.722631 0
    endloop
  endfacet
  facet normal -0 0 -1
    outer loop
      vertex -1.09345 -1.02682 0
      vertex -1.58675 -2.74832 0
      vertex -1.21352 -0.881678 0
    endloop
  endfacet
  facet normal -0 0 -1
    outer loop
      vertex -0.956136 -1.15577 0
      vertex -1.58675 -2.74832 0
      vertex -1.09345 -1.02682 0
    endloop
  endfacet
  facet normal -0 0 -1
    outer loop
      vertex -0.80374 -1.26649 0
      vertex -1.58675 -2.74832 0
      vertex -0.956136 -1.15577 0
    endloop
  endfacet
  facet normal -0 0 -1
    outer loop
      vertex -0.638668 -1.35724 0
      vertex -1.58675 -2.74832 0
      vertex -0.80374 -1.26649 0
    endloop
  endfacet
  facet normal 0 0 -1
    outer loop
      vertex 1.45287 0.373034 0
      vertex 3.17349 0 0
      vertex 1.48817 0.188 0
    endloop
  endfacet
  facet normal 0 0 -1
    outer loop
      vertex 1.39466 0.552186 0
      vertex 3.17349 0 0
      vertex 1.45287 0.373034 0
    endloop
  endfacet
  facet normal 0 0 -1
    outer loop
      vertex 1.31446 0.722631 0
      vertex 3.17349 0 0
      vertex 1.39466 0.552186 0
    endloop
  endfacet
  facet normal 0 0 -1
    outer loop
      vertex 3.17349 0 0
      vertex 1.31446 0.722631 0
      vertex 1.58675 2.74832 0
    endloop
  endfacet
  facet normal 0 0 -1
    outer loop
      vertex 1.21352 0.881678 0
      vertex 1.58675 2.74832 0
      vertex 1.31446 0.722631 0
    endloop
  endfacet
  facet normal 0 0 -1
    outer loop
      vertex 1.09345 1.02682 0
      vertex 1.58675 2.74832 0
      vertex 1.21352 0.881678 0
    endloop
  endfacet
  facet normal 0 0 -1
    outer loop
      vertex 0.956136 1.15577 0
      vertex 1.58675 2.74832 0
      vertex 1.09345 1.02682 0
    endloop
  endfacet
  facet normal 0 0 -1
    outer loop
      vertex 0.80374 1.26649 0
      vertex 1.58675 2.74832 0
      vertex 0.956136 1.15577 0
    endloop
  endfacet
  facet normal 0 0 -1
    outer loop
      vertex 0.638668 1.35724 0
      vertex 1.58675 2.74832 0
      vertex 0.80374 1.26649 0
    endloop
  endfacet
  facet normal 0 0 -1
    outer loop
      vertex 0.463525 1.42658 0
      vertex 1.58675 2.74832 0
      vertex 0.638668 1.35724 0
    endloop
  endfacet
  facet normal 0 0 -1
    outer loop
      vertex 0.281072 1.47343 0
      vertex 1.58675 2.74832 0
      vertex 0.463525 1.42658 0
    endloop
  endfacet
  facet normal 0 0 -1
    outer loop
      vertex 0.0941849 1.49704 0
      vertex 1.58675 2.74832 0
      vertex 0.281072 1.47343 0
    endloop
  endfacet
  facet normal 0 0 -1
    outer loop
      vertex -0.0941849 1.49704 0
      vertex 1.58675 2.74832 0
      vertex 0.0941849 1.49704 0
    endloop
  endfacet
  facet normal 0 0 -1
    outer loop
      vertex -1.58675 2.74832 0
      vertex -0.0941849 1.49704 0
      vertex -0.281072 1.47343 0
    endloop
  endfacet
  facet normal 0 0 -1
    outer loop
      vertex -1.58675 2.74832 0
      vertex -0.281072 1.47343 0
      vertex -0.463525 1.42658 0
    endloop
  endfacet
  facet normal 0 0 -1
    outer loop
      vertex -1.58675 2.74832 0
      vertex -0.463525 1.42658 0
      vertex -0.638668 1.35724 0
    endloop
  endfacet
  facet normal 0 0 -1
    outer loop
      vertex -1.58675 2.74832 0
      vertex -0.638668 1.35724 0
      vertex -0.80374 1.26649 0
    endloop
  endfacet
  facet normal 0 0 -1
    outer loop
      vertex -0.0941849 1.49704 0
      vertex -1.58675 2.74832 0
      vertex 1.58675 2.74832 0
    endloop
  endfacet
  facet normal 0 0 -1
    outer loop
      vertex -0.956136 1.15577 0
      vertex -1.58675 2.74832 0
      vertex -0.80374 1.26649 0
    endloop
  endfacet
  facet normal 0 0 -1
    outer loop
      vertex -1.09345 1.02682 0
      vertex -1.58675 2.74832 0
      vertex -0.956136 1.15577 0
    endloop
  endfacet
  facet normal 0 0 -1
    outer loop
      vertex -1.21352 0.881678 0
      vertex -1.58675 2.74832 0
      vertex -1.09345 1.02682 0
    endloop
  endfacet
  facet normal 0 0 -1
    outer loop
      vertex -1.31446 0.722631 0
      vertex -1.58675 2.74832 0
      vertex -1.21352 0.881678 0
    endloop
  endfacet
  facet normal 0 0 -1
    outer loop
      vertex -3.17349 0 0
      vertex -1.31446 0.722631 0
      vertex -1.39466 0.552186 0
    endloop
  endfacet
  facet normal 0 0 -1
    outer loop
      vertex -3.17349 0 0
      vertex -1.39466 0.552186 0
      vertex -1.45287 0.373034 0
    endloop
  endfacet
  facet normal 0 0 -1
    outer loop
      vertex -3.17349 0 0
      vertex -1.45287 0.373034 0
      vertex -1.48817 0.188 0
    endloop
  endfacet
  facet normal 0 0 -1
    outer loop
      vertex -3.17349 0 0
      vertex -1.48817 0.188 0
      vertex -1.5 0 0
    endloop
  endfacet
  facet normal 0 0 -1
    outer loop
      vertex -1.48817 -0.188 0
      vertex -3.17349 0 0
      vertex -1.5 0 0
    endloop
  endfacet
  facet normal -0 0 -1
    outer loop
      vertex -1.31446 0.722631 0
      vertex -3.17349 0 0
      vertex -1.58675 2.74832 0
    endloop
  endfacet
  facet normal 0.866026 0.499999 0
    outer loop
      vertex 3.17349 0 2.5
      vertex 1.58675 2.74832 0
      vertex 1.58675 2.74832 2.5
    endloop
  endfacet
  facet normal 0.866026 0.499999 0
    outer loop
      vertex 1.58675 2.74832 0
      vertex 3.17349 0 2.5
      vertex 3.17349 0 0
    endloop
  endfacet
  facet normal -0.866026 0.499999 0
    outer loop
      vertex -3.17349 0 0
      vertex -1.58675 2.74832 2.5
      vertex -1.58675 2.74832 0
    endloop
  endfacet
  facet normal -0.866026 0.499999 0
    outer loop
      vertex -1.58675 2.74832 2.5
      vertex -3.17349 0 0
      vertex -3.17349 0 2.5
    endloop
  endfacet
  facet normal -0.866026 -0.499999 0
    outer loop
      vertex -1.58675 -2.74832 0
      vertex -3.17349 0 2.5
      vertex -3.17349 0 0
    endloop
  endfacet
  facet normal -0.866026 -0.499999 0
    outer loop
      vertex -3.17349 0 2.5
      vertex -1.58675 -2.74832 0
      vertex -1.58675 -2.74832 2.5
    endloop
  endfacet
  facet normal 0 1 -0
    outer loop
      vertex 1.58675 2.74832 0
      vertex -1.58675 2.74832 2.5
      vertex 1.58675 2.74832 2.5
    endloop
  endfacet
  facet normal 0 1 0
    outer loop
      vertex -1.58675 2.74832 2.5
      vertex 1.58675 2.74832 0
      vertex -1.58675 2.74832 0
    endloop
  endfacet
  facet normal -0 0 1
    outer loop
      vertex 1.31446 0.722631 2.5
      vertex 3.17349 0 2.5
      vertex 1.58675 2.74832 2.5
    endloop
  endfacet
  facet normal 0 0 1
    outer loop
      vertex 1.48817 -0.188 2.5
      vertex 3.17349 0 2.5
      vertex 1.5 0 2.5
    endloop
  endfacet
  facet normal 0 0 1
    outer loop
      vertex 3.17349 0 2.5
      vertex 1.48817 0.188 2.5
      vertex 1.5 0 2.5
    endloop
  endfacet
  facet normal 0 0 1
    outer loop
      vertex 3.17349 0 2.5
      vertex 1.45287 0.373034 2.5
      vertex 1.48817 0.188 2.5
    endloop
  endfacet
  facet normal 0 0 1
    outer loop
      vertex 3.17349 0 2.5
      vertex 1.39466 0.552186 2.5
      vertex 1.45287 0.373034 2.5
    endloop
  endfacet
  facet normal 0 0 1
    outer loop
      vertex 3.17349 0 2.5
      vertex 1.31446 0.722631 2.5
      vertex 1.39466 0.552186 2.5
    endloop
  endfacet
  facet normal 0 0 1
    outer loop
      vertex 1.58675 2.74832 2.5
      vertex 1.21352 0.881678 2.5
      vertex 1.31446 0.722631 2.5
    endloop
  endfacet
  facet normal 0 0 1
    outer loop
      vertex 1.58675 2.74832 2.5
      vertex 1.09345 1.02682 2.5
      vertex 1.21352 0.881678 2.5
    endloop
  endfacet
  facet normal 0 0 1
    outer loop
      vertex 1.58675 2.74832 2.5
      vertex 0.956136 1.15577 2.5
      vertex 1.09345 1.02682 2.5
    endloop
  endfacet
  facet normal 0 0 1
    outer loop
      vertex 1.58675 2.74832 2.5
      vertex 0.80374 1.26649 2.5
      vertex 0.956136 1.15577 2.5
    endloop
  endfacet
  facet normal 0 0 1
    outer loop
      vertex 1.58675 2.74832 2.5
      vertex 0.638668 1.35724 2.5
      vertex 0.80374 1.26649 2.5
    endloop
  endfacet
  facet normal 0 0 1
    outer loop
      vertex 1.58675 2.74832 2.5
      vertex 0.463525 1.42658 2.5
      vertex 0.638668 1.35724 2.5
    endloop
  endfacet
  facet normal 0 0 1
    outer loop
      vertex 1.58675 2.74832 2.5
      vertex 0.281072 1.47343 2.5
      vertex 0.463525 1.42658 2.5
    endloop
  endfacet
  facet normal 0 0 1
    outer loop
      vertex 1.58675 2.74832 2.5
      vertex 0.0941849 1.49704 2.5
      vertex 0.281072 1.47343 2.5
    endloop
  endfacet
  facet normal 0 0 1
    outer loop
      vertex 1.58675 2.74832 2.5
      vertex -0.0941849 1.49704 2.5
      vertex 0.0941849 1.49704 2.5
    endloop
  endfacet
  facet normal -0 0 1
    outer loop
      vertex -1.58675 2.74832 2.5
      vertex -0.0941849 1.49704 2.5
      vertex 1.58675 2.74832 2.5
    endloop
  endfacet
  facet normal 0 0 1
    outer loop
      vertex -0.0941849 1.49704 2.5
      vertex -1.58675 2.74832 2.5
      vertex -0.281072 1.47343 2.5
    endloop
  endfacet
  facet normal 0 0 1
    outer loop
      vertex -0.281072 1.47343 2.5
      vertex -1.58675 2.74832 2.5
      vertex -0.463525 1.42658 2.5
    endloop
  endfacet
  facet normal 0 0 1
    outer loop
      vertex -0.463525 1.42658 2.5
      vertex -1.58675 2.74832 2.5
      vertex -0.638668 1.35724 2.5
    endloop
  endfacet
  facet normal 0 0 1
    outer loop
      vertex -1.45287 0.373034 2.5
      vertex -3.17349 0 2.5
      vertex -1.48817 0.188 2.5
    endloop
  endfacet
  facet normal 0 0 1
    outer loop
      vertex -1.39466 0.552186 2.5
      vertex -3.17349 0 2.5
      vertex -1.45287 0.373034 2.5
    endloop
  endfacet
  facet normal 0 0 1
    outer loop
      vertex -1.31446 0.722631 2.5
      vertex -3.17349 0 2.5
      vertex -1.39466 0.552186 2.5
    endloop
  endfacet
  facet normal 0 0 1
    outer loop
      vertex -3.17349 0 2.5
      vertex -1.31446 0.722631 2.5
      vertex -1.58675 2.74832 2.5
    endloop
  endfacet
  facet normal 0 0 1
    outer loop
      vertex -1.21352 0.881678 2.5
      vertex -1.58675 2.74832 2.5
      vertex -1.31446 0.722631 2.5
    endloop
  endfacet
  facet normal 0 0 1
    outer loop
      vertex -1.09345 1.02682 2.5
      vertex -1.58675 2.74832 2.5
      vertex -1.21352 0.881678 2.5
    endloop
  endfacet
  facet normal 0 0 1
    outer loop
      vertex -0.956136 1.15577 2.5
      vertex -1.58675 2.74832 2.5
      vertex -1.09345 1.02682 2.5
    endloop
  endfacet
  facet normal 0 0 1
    outer loop
      vertex -0.80374 1.26649 2.5
      vertex -1.58675 2.74832 2.5
      vertex -0.956136 1.15577 2.5
    endloop
  endfacet
  facet normal 0 0 1
    outer loop
      vertex -0.638668 1.35724 2.5
      vertex -1.58675 2.74832 2.5
      vertex -0.80374 1.26649 2.5
    endloop
  endfacet
  facet normal 0 0 1
    outer loop
      vertex 1.45287 -0.373034 2.5
      vertex 3.17349 0 2.5
      vertex 1.48817 -0.188 2.5
    endloop
  endfacet
  facet normal 0 0 1
    outer loop
      vertex 1.39466 -0.552186 2.5
      vertex 3.17349 0 2.5
      vertex 1.45287 -0.373034 2.5
    endloop
  endfacet
  facet normal 0 0 1
    outer loop
      vertex 1.31446 -0.722631 2.5
      vertex 3.17349 0 2.5
      vertex 1.39466 -0.552186 2.5
    endloop
  endfacet
  facet normal 0 0 1
    outer loop
      vertex 3.17349 0 2.5
      vertex 1.31446 -0.722631 2.5
      vertex 1.58675 -2.74832 2.5
    endloop
  endfacet
  facet normal -0 0 1
    outer loop
      vertex 1.21352 -0.881678 2.5
      vertex 1.58675 -2.74832 2.5
      vertex 1.31446 -0.722631 2.5
    endloop
  endfacet
  facet normal -0 0 1
    outer loop
      vertex 1.09345 -1.02682 2.5
      vertex 1.58675 -2.74832 2.5
      vertex 1.21352 -0.881678 2.5
    endloop
  endfacet
  facet normal -0 0 1
    outer loop
      vertex 0.956136 -1.15577 2.5
      vertex 1.58675 -2.74832 2.5
      vertex 1.09345 -1.02682 2.5
    endloop
  endfacet
  facet normal -0 0 1
    outer loop
      vertex 0.80374 -1.26649 2.5
      vertex 1.58675 -2.74832 2.5
      vertex 0.956136 -1.15577 2.5
    endloop
  endfacet
  facet normal -0 0 1
    outer loop
      vertex 0.638668 -1.35724 2.5
      vertex 1.58675 -2.74832 2.5
      vertex 0.80374 -1.26649 2.5
    endloop
  endfacet
  facet normal -0 0 1
    outer loop
      vertex 0.463525 -1.42658 2.5
      vertex 1.58675 -2.74832 2.5
      vertex 0.638668 -1.35724 2.5
    endloop
  endfacet
  facet normal -0 0 1
    outer loop
      vertex 0.281072 -1.47343 2.5
      vertex 1.58675 -2.74832 2.5
      vertex 0.463525 -1.42658 2.5
    endloop
  endfacet
  facet normal -0 0 1
    outer loop
      vertex 0.0941849 -1.49704 2.5
      vertex 1.58675 -2.74832 2.5
      vertex 0.281072 -1.47343 2.5
    endloop
  endfacet
  facet normal -0 0 1
    outer loop
      vertex -0.0941849 -1.49704 2.5
      vertex 1.58675 -2.74832 2.5
      vertex 0.0941849 -1.49704 2.5
    endloop
  endfacet
  facet normal 0 0 1
    outer loop
      vertex -1.58675 -2.74832 2.5
      vertex -0.0941849 -1.49704 2.5
      vertex -0.281072 -1.47343 2.5
    endloop
  endfacet
  facet normal 0 0 1
    outer loop
      vertex -1.58675 -2.74832 2.5
      vertex -0.281072 -1.47343 2.5
      vertex -0.463525 -1.42658 2.5
    endloop
  endfacet
  facet normal 0 0 1
    outer loop
      vertex -1.58675 -2.74832 2.5
      vertex -0.463525 -1.42658 2.5
      vertex -0.638668 -1.35724 2.5
    endloop
  endfacet
  facet normal 0 0 1
    outer loop
      vertex -1.58675 -2.74832 2.5
      vertex -0.638668 -1.35724 2.5
      vertex -0.80374 -1.26649 2.5
    endloop
  endfacet
  facet normal 0 0 1
    outer loop
      vertex -0.0941849 -1.49704 2.5
      vertex -1.58675 -2.74832 2.5
      vertex 1.58675 -2.74832 2.5
    endloop
  endfacet
  facet normal 0 0 1
    outer loop
      vertex -0.956136 -1.15577 2.5
      vertex -1.58675 -2.74832 2.5
      vertex -0.80374 -1.26649 2.5
    endloop
  endfacet
  facet normal 0 0 1
    outer loop
      vertex -1.09345 -1.02682 2.5
      vertex -1.58675 -2.74832 2.5
      vertex -0.956136 -1.15577 2.5
    endloop
  endfacet
  facet normal 0 0 1
    outer loop
      vertex -1.21352 -0.881678 2.5
      vertex -1.58675 -2.74832 2.5
      vertex -1.09345 -1.02682 2.5
    endloop
  endfacet
  facet normal 0 0 1
    outer loop
      vertex -1.31446 -0.722631 2.5
      vertex -1.58675 -2.74832 2.5
      vertex -1.21352 -0.881678 2.5
    endloop
  endfacet
  facet normal 0 0 1
    outer loop
      vertex -3.17349 0 2.5
      vertex -1.31446 -0.722631 2.5
      vertex -1.39466 -0.552186 2.5
    endloop
  endfacet
  facet normal 0 0 1
    outer loop
      vertex -3.17349 0 2.5
      vertex -1.39466 -0.552186 2.5
      vertex -1.45287 -0.373034 2.5
    endloop
  endfacet
  facet normal 0 0 1
    outer loop
      vertex -3.17349 0 2.5
      vertex -1.45287 -0.373034 2.5
      vertex -1.48817 -0.188 2.5
    endloop
  endfacet
  facet normal -0 0 1
    outer loop
      vertex -3.17349 0 2.5
      vertex -1.48817 -0.188 2.5
      vertex -1.5 0 2.5
    endloop
  endfacet
  facet normal 0 0 1
    outer loop
      vertex -1.48817 0.188 2.5
      vertex -3.17349 0 2.5
      vertex -1.5 0 2.5
    endloop
  endfacet
  facet normal 0 0 1
    outer loop
      vertex -1.31446 -0.722631 2.5
      vertex -3.17349 0 2.5
      vertex -1.58675 -2.74832 2.5
    endloop
  endfacet
  facet normal -0.998026 -0.0628013 0
    outer loop
      vertex 1.5 0 0
      vertex 1.48817 0.188 2.5
      vertex 1.48817 0.188 0
    endloop
  endfacet
  facet normal -0.998026 -0.0628013 0
    outer loop
      vertex 1.48817 0.188 2.5
      vertex 1.5 0 0
      vertex 1.5 0 2.5
    endloop
  endfacet
  facet normal 0.998026 -0.0628013 0
    outer loop
      vertex -1.5 0 2.5
      vertex -1.48817 0.188 0
      vertex -1.48817 0.188 2.5
    endloop
  endfacet
  facet normal 0.998026 -0.0628013 0
    outer loop
      vertex -1.48817 0.188 0
      vertex -1.5 0 2.5
      vertex -1.5 0 0
    endloop
  endfacet
  facet normal 0 -1 0
    outer loop
      vertex -0.0941849 1.49704 0
      vertex 0.0941849 1.49704 2.5
      vertex -0.0941849 1.49704 2.5
    endloop
  endfacet
  facet normal 0 -1 -0
    outer loop
      vertex 0.0941849 1.49704 2.5
      vertex -0.0941849 1.49704 0
      vertex 0.0941849 1.49704 0
    endloop
  endfacet
  facet normal 0 1 -0
    outer loop
      vertex 0.0941849 -1.49704 0
      vertex -0.0941849 -1.49704 2.5
      vertex 0.0941849 -1.49704 2.5
    endloop
  endfacet
  facet normal 0 1 0
    outer loop
      vertex -0.0941849 -1.49704 2.5
      vertex 0.0941849 -1.49704 0
      vertex -0.0941849 -1.49704 0
    endloop
  endfacet
  facet normal -0.684557 -0.728959 0
    outer loop
      vertex 0.956136 1.15577 0
      vertex 1.09345 1.02682 2.5
      vertex 0.956136 1.15577 2.5
    endloop
  endfacet
  facet normal -0.684557 -0.728959 -0
    outer loop
      vertex 1.09345 1.02682 2.5
      vertex 0.956136 1.15577 0
      vertex 1.09345 1.02682 0
    endloop
  endfacet
  facet normal 0.684557 -0.728959 0
    outer loop
      vertex -1.09345 1.02682 0
      vertex -0.956136 1.15577 2.5
      vertex -1.09345 1.02682 2.5
    endloop
  endfacet
  facet normal 0.684557 -0.728959 0
    outer loop
      vertex -0.956136 1.15577 2.5
      vertex -1.09345 1.02682 0
      vertex -0.956136 1.15577 0
    endloop
  endfacet
  facet normal 0.368106 -0.929784 0
    outer loop
      vertex -0.638668 1.35724 0
      vertex -0.463525 1.42658 2.5
      vertex -0.638668 1.35724 2.5
    endloop
  endfacet
  facet normal 0.368106 -0.929784 0
    outer loop
      vertex -0.463525 1.42658 2.5
      vertex -0.638668 1.35724 0
      vertex -0.463525 1.42658 0
    endloop
  endfacet
  facet normal -0.904838 -0.425756 0
    outer loop
      vertex 1.39466 0.552186 0
      vertex 1.31446 0.722631 2.5
      vertex 1.31446 0.722631 0
    endloop
  endfacet
  facet normal -0.904838 -0.425756 0
    outer loop
      vertex 1.31446 0.722631 2.5
      vertex 1.39466 0.552186 0
      vertex 1.39466 0.552186 2.5
    endloop
  endfacet
  facet normal -0.982284 -0.187396 0
    outer loop
      vertex 1.48817 0.188 0
      vertex 1.45287 0.373034 2.5
      vertex 1.45287 0.373034 0
    endloop
  endfacet
  facet normal -0.982284 -0.187396 0
    outer loop
      vertex 1.45287 0.373034 2.5
      vertex 1.48817 0.188 0
      vertex 1.48817 0.188 2.5
    endloop
  endfacet
  facet normal -0.368106 -0.929784 0
    outer loop
      vertex 0.463525 1.42658 0
      vertex 0.638668 1.35724 2.5
      vertex 0.463525 1.42658 2.5
    endloop
  endfacet
  facet normal -0.368106 -0.929784 -0
    outer loop
      vertex 0.638668 1.35724 2.5
      vertex 0.463525 1.42658 0
      vertex 0.638668 1.35724 0
    endloop
  endfacet
  facet normal -0.24871 -0.968578 0
    outer loop
      vertex 0.281072 1.47343 0
      vertex 0.463525 1.42658 2.5
      vertex 0.281072 1.47343 2.5
    endloop
  endfacet
  facet normal -0.24871 -0.968578 -0
    outer loop
      vertex 0.463525 1.42658 2.5
      vertex 0.281072 1.47343 0
      vertex 0.463525 1.42658 0
    endloop
  endfacet
  facet normal -0.481757 -0.876305 0
    outer loop
      vertex 0.638668 1.35724 0
      vertex 0.80374 1.26649 2.5
      vertex 0.638668 1.35724 2.5
    endloop
  endfacet
  facet normal -0.481757 -0.876305 -0
    outer loop
      vertex 0.80374 1.26649 2.5
      vertex 0.638668 1.35724 0
      vertex 0.80374 1.26649 0
    endloop
  endfacet
  facet normal 0.904838 -0.425756 0
    outer loop
      vertex -1.39466 0.552186 2.5
      vertex -1.31446 0.722631 0
      vertex -1.31446 0.722631 2.5
    endloop
  endfacet
  facet normal 0.904838 -0.425756 0
    outer loop
      vertex -1.31446 0.722631 0
      vertex -1.39466 0.552186 2.5
      vertex -1.39466 0.552186 0
    endloop
  endfacet
  facet normal 0.844314 -0.535848 0
    outer loop
      vertex -1.31446 0.722631 2.5
      vertex -1.21352 0.881678 0
      vertex -1.21352 0.881678 2.5
    endloop
  endfacet
  facet normal 0.844314 -0.535848 0
    outer loop
      vertex -1.21352 0.881678 0
      vertex -1.31446 0.722631 2.5
      vertex -1.31446 0.722631 0
    endloop
  endfacet
  facet normal 0.951057 -0.309017 0
    outer loop
      vertex -1.45287 0.373034 2.5
      vertex -1.39466 0.552186 0
      vertex -1.39466 0.552186 2.5
    endloop
  endfacet
  facet normal 0.951057 -0.309017 0
    outer loop
      vertex -1.39466 0.552186 0
      vertex -1.45287 0.373034 2.5
      vertex -1.45287 0.373034 0
    endloop
  endfacet
  facet normal 0.587778 -0.809022 0
    outer loop
      vertex -0.956136 1.15577 0
      vertex -0.80374 1.26649 2.5
      vertex -0.956136 1.15577 2.5
    endloop
  endfacet
  facet normal 0.587778 -0.809022 0
    outer loop
      vertex -0.80374 1.26649 2.5
      vertex -0.956136 1.15577 0
      vertex -0.80374 1.26649 0
    endloop
  endfacet
  facet normal 0.125337 -0.992114 0
    outer loop
      vertex -0.281072 1.47343 0
      vertex -0.0941849 1.49704 2.5
      vertex -0.281072 1.47343 2.5
    endloop
  endfacet
  facet normal 0.125337 -0.992114 0
    outer loop
      vertex -0.0941849 1.49704 2.5
      vertex -0.281072 1.47343 0
      vertex -0.0941849 1.49704 0
    endloop
  endfacet
  facet normal -0.951057 0.309017 0
    outer loop
      vertex 1.39466 -0.552186 0
      vertex 1.45287 -0.373034 2.5
      vertex 1.45287 -0.373034 0
    endloop
  endfacet
  facet normal -0.951057 0.309017 0
    outer loop
      vertex 1.45287 -0.373034 2.5
      vertex 1.39466 -0.552186 0
      vertex 1.39466 -0.552186 2.5
    endloop
  endfacet
  facet normal -0.125337 0.992114 0
    outer loop
      vertex 0.281072 -1.47343 0
      vertex 0.0941849 -1.49704 2.5
      vertex 0.281072 -1.47343 2.5
    endloop
  endfacet
  facet normal -0.125337 0.992114 0
    outer loop
      vertex 0.0941849 -1.49704 2.5
      vertex 0.281072 -1.47343 0
      vertex 0.0941849 -1.49704 0
    endloop
  endfacet
  facet normal -0.951057 -0.309017 0
    outer loop
      vertex 1.45287 0.373034 0
      vertex 1.39466 0.552186 2.5
      vertex 1.39466 0.552186 0
    endloop
  endfacet
  facet normal -0.951057 -0.309017 0
    outer loop
      vertex 1.39466 0.552186 2.5
      vertex 1.45287 0.373034 0
      vertex 1.45287 0.373034 2.5
    endloop
  endfacet
  facet normal -0.770518 -0.637418 0
    outer loop
      vertex 1.21352 0.881678 0
      vertex 1.09345 1.02682 2.5
      vertex 1.09345 1.02682 0
    endloop
  endfacet
  facet normal -0.770518 -0.637418 0
    outer loop
      vertex 1.09345 1.02682 2.5
      vertex 1.21352 0.881678 0
      vertex 1.21352 0.881678 2.5
    endloop
  endfacet
  facet normal -0.844314 -0.535848 0
    outer loop
      vertex 1.31446 0.722631 0
      vertex 1.21352 0.881678 2.5
      vertex 1.21352 0.881678 0
    endloop
  endfacet
  facet normal -0.844314 -0.535848 0
    outer loop
      vertex 1.21352 0.881678 2.5
      vertex 1.31446 0.722631 0
      vertex 1.31446 0.722631 2.5
    endloop
  endfacet
  facet normal -0.125337 -0.992114 0
    outer loop
      vertex 0.0941849 1.49704 0
      vertex 0.281072 1.47343 2.5
      vertex 0.0941849 1.49704 2.5
    endloop
  endfacet
  facet normal -0.125337 -0.992114 -0
    outer loop
      vertex 0.281072 1.47343 2.5
      vertex 0.0941849 1.49704 0
      vertex 0.281072 1.47343 0
    endloop
  endfacet
  facet normal -0.587778 -0.809022 0
    outer loop
      vertex 0.80374 1.26649 0
      vertex 0.956136 1.15577 2.5
      vertex 0.80374 1.26649 2.5
    endloop
  endfacet
  facet normal -0.587778 -0.809022 -0
    outer loop
      vertex 0.956136 1.15577 2.5
      vertex 0.80374 1.26649 0
      vertex 0.956136 1.15577 0
    endloop
  endfacet
  facet normal 0.982284 -0.187396 0
    outer loop
      vertex -1.48817 0.188 2.5
      vertex -1.45287 0.373034 0
      vertex -1.45287 0.373034 2.5
    endloop
  endfacet
  facet normal 0.982284 -0.187396 0
    outer loop
      vertex -1.45287 0.373034 0
      vertex -1.48817 0.188 2.5
      vertex -1.48817 0.188 0
    endloop
  endfacet
  facet normal -0.998026 0.0628013 0
    outer loop
      vertex 1.48817 -0.188 0
      vertex 1.5 0 2.5
      vertex 1.5 0 0
    endloop
  endfacet
  facet normal -0.998026 0.0628013 0
    outer loop
      vertex 1.5 0 2.5
      vertex 1.48817 -0.188 0
      vertex 1.48817 -0.188 2.5
    endloop
  endfacet
  facet normal -0.684557 0.728959 0
    outer loop
      vertex 1.09345 -1.02682 0
      vertex 0.956136 -1.15577 2.5
      vertex 1.09345 -1.02682 2.5
    endloop
  endfacet
  facet normal -0.684557 0.728959 0
    outer loop
      vertex 0.956136 -1.15577 2.5
      vertex 1.09345 -1.02682 0
      vertex 0.956136 -1.15577 0
    endloop
  endfacet
  facet normal -0.982284 0.187396 0
    outer loop
      vertex 1.45287 -0.373034 0
      vertex 1.48817 -0.188 2.5
      vertex 1.48817 -0.188 0
    endloop
  endfacet
  facet normal -0.982284 0.187396 0
    outer loop
      vertex 1.48817 -0.188 2.5
      vertex 1.45287 -0.373034 0
      vertex 1.45287 -0.373034 2.5
    endloop
  endfacet
  facet normal 0.904838 0.425756 0
    outer loop
      vertex -1.31446 -0.722631 2.5
      vertex -1.39466 -0.552186 0
      vertex -1.39466 -0.552186 2.5
    endloop
  endfacet
  facet normal 0.904838 0.425756 0
    outer loop
      vertex -1.39466 -0.552186 0
      vertex -1.31446 -0.722631 2.5
      vertex -1.31446 -0.722631 0
    endloop
  endfacet
  facet normal -0.368106 0.929784 0
    outer loop
      vertex 0.638668 -1.35724 0
      vertex 0.463525 -1.42658 2.5
      vertex 0.638668 -1.35724 2.5
    endloop
  endfacet
  facet normal -0.368106 0.929784 0
    outer loop
      vertex 0.463525 -1.42658 2.5
      vertex 0.638668 -1.35724 0
      vertex 0.463525 -1.42658 0
    endloop
  endfacet
  facet normal 0.770518 -0.637418 0
    outer loop
      vertex -1.21352 0.881678 2.5
      vertex -1.09345 1.02682 0
      vertex -1.09345 1.02682 2.5
    endloop
  endfacet
  facet normal 0.770518 -0.637418 0
    outer loop
      vertex -1.09345 1.02682 0
      vertex -1.21352 0.881678 2.5
      vertex -1.21352 0.881678 0
    endloop
  endfacet
  facet normal 0.481757 -0.876305 0
    outer loop
      vertex -0.80374 1.26649 0
      vertex -0.638668 1.35724 2.5
      vertex -0.80374 1.26649 2.5
    endloop
  endfacet
  facet normal 0.481757 -0.876305 0
    outer loop
      vertex -0.638668 1.35724 2.5
      vertex -0.80374 1.26649 0
      vertex -0.638668 1.35724 0
    endloop
  endfacet
  facet normal 0.24871 -0.968578 0
    outer loop
      vertex -0.463525 1.42658 0
      vertex -0.281072 1.47343 2.5
      vertex -0.463525 1.42658 2.5
    endloop
  endfacet
  facet normal 0.24871 -0.968578 0
    outer loop
      vertex -0.281072 1.47343 2.5
      vertex -0.463525 1.42658 0
      vertex -0.281072 1.47343 0
    endloop
  endfacet
  facet normal -0.481757 0.876305 0
    outer loop
      vertex 0.80374 -1.26649 0
      vertex 0.638668 -1.35724 2.5
      vertex 0.80374 -1.26649 2.5
    endloop
  endfacet
  facet normal -0.481757 0.876305 0
    outer loop
      vertex 0.638668 -1.35724 2.5
      vertex 0.80374 -1.26649 0
      vertex 0.638668 -1.35724 0
    endloop
  endfacet
  facet normal -0.904838 0.425756 0
    outer loop
      vertex 1.31446 -0.722631 0
      vertex 1.39466 -0.552186 2.5
      vertex 1.39466 -0.552186 0
    endloop
  endfacet
  facet normal -0.904838 0.425756 0
    outer loop
      vertex 1.39466 -0.552186 2.5
      vertex 1.31446 -0.722631 0
      vertex 1.31446 -0.722631 2.5
    endloop
  endfacet
  facet normal -0.770518 0.637418 0
    outer loop
      vertex 1.09345 -1.02682 0
      vertex 1.21352 -0.881678 2.5
      vertex 1.21352 -0.881678 0
    endloop
  endfacet
  facet normal -0.770518 0.637418 0
    outer loop
      vertex 1.21352 -0.881678 2.5
      vertex 1.09345 -1.02682 0
      vertex 1.09345 -1.02682 2.5
    endloop
  endfacet
  facet normal 0.368106 0.929784 -0
    outer loop
      vertex -0.463525 -1.42658 0
      vertex -0.638668 -1.35724 2.5
      vertex -0.463525 -1.42658 2.5
    endloop
  endfacet
  facet normal 0.368106 0.929784 0
    outer loop
      vertex -0.638668 -1.35724 2.5
      vertex -0.463525 -1.42658 0
      vertex -0.638668 -1.35724 0
    endloop
  endfacet
  facet normal 0.684557 0.728959 -0
    outer loop
      vertex -0.956136 -1.15577 0
      vertex -1.09345 -1.02682 2.5
      vertex -0.956136 -1.15577 2.5
    endloop
  endfacet
  facet normal 0.684557 0.728959 0
    outer loop
      vertex -1.09345 -1.02682 2.5
      vertex -0.956136 -1.15577 0
      vertex -1.09345 -1.02682 0
    endloop
  endfacet
  facet normal 0.951057 0.309017 0
    outer loop
      vertex -1.39466 -0.552186 2.5
      vertex -1.45287 -0.373034 0
      vertex -1.45287 -0.373034 2.5
    endloop
  endfacet
  facet normal 0.951057 0.309017 0
    outer loop
      vertex -1.45287 -0.373034 0
      vertex -1.39466 -0.552186 2.5
      vertex -1.39466 -0.552186 0
    endloop
  endfacet
  facet normal -0.24871 0.968578 0
    outer loop
      vertex 0.463525 -1.42658 0
      vertex 0.281072 -1.47343 2.5
      vertex 0.463525 -1.42658 2.5
    endloop
  endfacet
  facet normal -0.24871 0.968578 0
    outer loop
      vertex 0.281072 -1.47343 2.5
      vertex 0.463525 -1.42658 0
      vertex 0.281072 -1.47343 0
    endloop
  endfacet
  facet normal -0.587778 0.809022 0
    outer loop
      vertex 0.956136 -1.15577 0
      vertex 0.80374 -1.26649 2.5
      vertex 0.956136 -1.15577 2.5
    endloop
  endfacet
  facet normal -0.587778 0.809022 0
    outer loop
      vertex 0.80374 -1.26649 2.5
      vertex 0.956136 -1.15577 0
      vertex 0.80374 -1.26649 0
    endloop
  endfacet
  facet normal -0.844314 0.535848 0
    outer loop
      vertex 1.21352 -0.881678 0
      vertex 1.31446 -0.722631 2.5
      vertex 1.31446 -0.722631 0
    endloop
  endfacet
  facet normal -0.844314 0.535848 0
    outer loop
      vertex 1.31446 -0.722631 2.5
      vertex 1.21352 -0.881678 0
      vertex 1.21352 -0.881678 2.5
    endloop
  endfacet
  facet normal 0.125337 0.992114 -0
    outer loop
      vertex -0.0941849 -1.49704 0
      vertex -0.281072 -1.47343 2.5
      vertex -0.0941849 -1.49704 2.5
    endloop
  endfacet
  facet normal 0.125337 0.992114 0
    outer loop
      vertex -0.281072 -1.47343 2.5
      vertex -0.0941849 -1.49704 0
      vertex -0.281072 -1.47343 0
    endloop
  endfacet
  facet normal 0.587778 0.809022 -0
    outer loop
      vertex -0.80374 -1.26649 0
      vertex -0.956136 -1.15577 2.5
      vertex -0.80374 -1.26649 2.5
    endloop
  endfacet
  facet normal 0.587778 0.809022 0
    outer loop
      vertex -0.956136 -1.15577 2.5
      vertex -0.80374 -1.26649 0
      vertex -0.956136 -1.15577 0
    endloop
  endfacet
  facet normal 0.24871 0.968578 -0
    outer loop
      vertex -0.281072 -1.47343 0
      vertex -0.463525 -1.42658 2.5
      vertex -0.281072 -1.47343 2.5
    endloop
  endfacet
  facet normal 0.24871 0.968578 0
    outer loop
      vertex -0.463525 -1.42658 2.5
      vertex -0.281072 -1.47343 0
      vertex -0.463525 -1.42658 0
    endloop
  endfacet
  facet normal 0.844314 0.535848 0
    outer loop
      vertex -1.21352 -0.881678 2.5
      vertex -1.31446 -0.722631 0
      vertex -1.31446 -0.722631 2.5
    endloop
  endfacet
  facet normal 0.844314 0.535848 0
    outer loop
      vertex -1.31446 -0.722631 0
      vertex -1.21352 -0.881678 2.5
      vertex -1.21352 -0.881678 0
    endloop
  endfacet
  facet normal 0.982284 0.187396 0
    outer loop
      vertex -1.45287 -0.373034 2.5
      vertex -1.48817 -0.188 0
      vertex -1.48817 -0.188 2.5
    endloop
  endfacet
  facet normal 0.982284 0.187396 0
    outer loop
      vertex -1.48817 -0.188 0
      vertex -1.45287 -0.373034 2.5
      vertex -1.45287 -0.373034 0
    endloop
  endfacet
  facet normal 0.998026 0.0628013 0
    outer loop
      vertex -1.48817 -0.188 2.5
      vertex -1.5 0 0
      vertex -1.5 0 2.5
    endloop
  endfacet
  facet normal 0.998026 0.0628013 0
    outer loop
      vertex -1.5 0 0
      vertex -1.48817 -0.188 2.5
      vertex -1.48817 -0.188 0
    endloop
  endfacet
  facet normal 0.770518 0.637418 0
    outer loop
      vertex -1.09345 -1.02682 2.5
      vertex -1.21352 -0.881678 0
      vertex -1.21352 -0.881678 2.5
    endloop
  endfacet
  facet normal 0.770518 0.637418 0
    outer loop
      vertex -1.21352 -0.881678 0
      vertex -1.09345 -1.02682 2.5
      vertex -1.09345 -1.02682 0
    endloop
  endfacet
  facet normal 0.481757 0.876305 -0
    outer loop
      vertex -0.638668 -1.35724 0
      vertex -0.80374 -1.26649 2.5
      vertex -0.638668 -1.35724 2.5
    endloop
  endfacet
  facet normal 0.481757 0.876305 0
    outer loop
      vertex -0.80374 -1.26649 2.5
      vertex -0.638668 -1.35724 0
      vertex -0.80374 -1.26649 0
    endloop
  endfacet
endsolid OpenSCAD_Model
