<?xml version="1.0" standalone="no"?>
<!DOCTYPE svg PUBLIC "-//W3C//DTD SVG 1.1//EN" "http://www.w3.org/Graphics/SVG/1.1/DTD/svg11.dtd">
<svg width="180mm" height="448mm" viewBox="-90 -737 180 448" xmlns="http://www.w3.org/2000/svg" version="1.1">
<title>OpenSCAD Model</title>
<path d="
M 85.9369,-631.589 L 86.5451,-631.745 L 87.1289,-631.976 L 87.6791,-632.278 L 88.1871,-632.647 L 88.6448,-633.077
 L 89.0451,-633.561 L 89.3815,-634.091 L 89.6489,-634.659 L 89.8429,-635.257 L 89.9606,-635.873 L 90,-636.5
 L 90,-731.5 L 89.9606,-732.127 L 89.8429,-732.743 L 89.6489,-733.341 L 89.3815,-733.909 L 89.0451,-734.439
 L 88.6448,-734.923 L 88.1871,-735.353 L 87.6791,-735.722 L 87.1289,-736.024 L 86.5451,-736.255 L 85.9369,-736.411
 L 85.3139,-736.49 L -85.3139,-736.49 L -85.9369,-736.411 L -86.5451,-736.255 L -87.1289,-736.024 L -87.6791,-735.722
 L -88.1871,-735.353 L -88.6448,-734.923 L -89.0451,-734.439 L -89.3815,-733.909 L -89.6489,-733.341 L -89.8429,-732.743
 L -89.9606,-732.127 L -90,-731.5 L -90,-636.5 L -89.9606,-635.873 L -89.8429,-635.257 L -89.6489,-634.659
 L -89.3815,-634.091 L -89.0451,-633.561 L -88.6448,-633.077 L -88.1871,-632.647 L -87.6791,-632.278 L -87.1289,-631.976
 L -86.5451,-631.745 L -85.9369,-631.589 L -85.3139,-631.51 L 85.3139,-631.51 z
M -85.0482,-632.009 L -85.6401,-632.084 L -86.2178,-632.232 L -86.7724,-632.452 L -87.2952,-632.739 L -87.7778,-633.09
 L -88.2126,-633.498 L -88.5928,-633.958 L -88.9125,-634.462 L -89.1664,-635.001 L -89.3508,-635.569 L -89.4625,-636.155
 L -89.5,-636.75 L -89.5,-731.25 L -89.4625,-731.845 L -89.3508,-732.431 L -89.1664,-732.999 L -88.9125,-733.538
 L -88.5928,-734.042 L -88.2126,-734.502 L -87.7778,-734.91 L -87.2952,-735.261 L -86.7724,-735.548 L -86.2178,-735.768
 L -85.6401,-735.916 L -85.0482,-735.991 L 85.0482,-735.991 L 85.6401,-735.916 L 86.2178,-735.768 L 86.7724,-735.548
 L 87.2952,-735.261 L 87.7778,-734.91 L 88.2126,-734.502 L 88.5928,-734.042 L 88.9125,-733.538 L 89.1664,-732.999
 L 89.3508,-732.431 L 89.4625,-731.845 L 89.5,-731.25 L 89.5,-636.75 L 89.4625,-636.155 L 89.3508,-635.569
 L 89.1664,-635.001 L 88.9125,-634.462 L 88.5928,-633.958 L 88.2126,-633.498 L 87.7778,-633.09 L 87.2952,-632.739
 L 86.7724,-632.452 L 86.2178,-632.232 L 85.6401,-632.084 L 85.0482,-632.009 z
M 85.9369,-517.589 L 86.5451,-517.745 L 87.1289,-517.976 L 87.6791,-518.278 L 88.1871,-518.647 L 88.6448,-519.077
 L 89.0451,-519.561 L 89.3815,-520.091 L 89.6489,-520.659 L 89.8429,-521.257 L 89.9606,-521.873 L 90,-522.5
 L 90,-617.5 L 89.9606,-618.127 L 89.8429,-618.743 L 89.6489,-619.341 L 89.3815,-619.909 L 89.0451,-620.439
 L 88.6448,-620.923 L 88.1871,-621.353 L 87.6791,-621.722 L 87.1289,-622.024 L 86.5451,-622.255 L 85.9369,-622.411
 L 85.3139,-622.49 L -85.3139,-622.49 L -85.9369,-622.411 L -86.5451,-622.255 L -87.1289,-622.024 L -87.6791,-621.722
 L -88.1871,-621.353 L -88.6448,-620.923 L -89.0451,-620.439 L -89.3815,-619.909 L -89.6489,-619.341 L -89.8429,-618.743
 L -89.9606,-618.127 L -90,-617.5 L -90,-522.5 L -89.9606,-521.873 L -89.8429,-521.257 L -89.6489,-520.659
 L -89.3815,-520.091 L -89.0451,-519.561 L -88.6448,-519.077 L -88.1871,-518.647 L -87.6791,-518.278 L -87.1289,-517.976
 L -86.5451,-517.745 L -85.9369,-517.589 L -85.3139,-517.51 L 85.3139,-517.51 z
M -85.0482,-518.009 L -85.6401,-518.084 L -86.2178,-518.232 L -86.7724,-518.452 L -87.2952,-518.739 L -87.7778,-519.09
 L -88.2126,-519.498 L -88.5928,-519.958 L -88.9125,-520.462 L -89.1664,-521.001 L -89.3508,-521.569 L -89.4625,-522.155
 L -89.5,-522.75 L -89.5,-617.25 L -89.4625,-617.845 L -89.3508,-618.431 L -89.1664,-618.999 L -88.9125,-619.538
 L -88.5928,-620.042 L -88.2126,-620.502 L -87.7778,-620.91 L -87.2952,-621.261 L -86.7724,-621.548 L -86.2178,-621.768
 L -85.6401,-621.916 L -85.0482,-621.991 L 85.0482,-621.991 L 85.6401,-621.916 L 86.2178,-621.768 L 86.7724,-621.548
 L 87.2952,-621.261 L 87.7778,-620.91 L 88.2126,-620.502 L 88.5928,-620.042 L 88.9125,-619.538 L 89.1664,-618.999
 L 89.3508,-618.431 L 89.4625,-617.845 L 89.5,-617.25 L 89.5,-522.75 L 89.4625,-522.155 L 89.3508,-521.569
 L 89.1664,-521.001 L 88.9125,-520.462 L 88.5928,-519.958 L 88.2126,-519.498 L 87.7778,-519.09 L 87.2952,-518.739
 L 86.7724,-518.452 L 86.2178,-518.232 L 85.6401,-518.084 L 85.0482,-518.009 z
M 85.9369,-403.589 L 86.5451,-403.745 L 87.1289,-403.976 L 87.6791,-404.278 L 88.1871,-404.647 L 88.6448,-405.077
 L 89.0451,-405.561 L 89.3815,-406.091 L 89.6489,-406.659 L 89.8429,-407.257 L 89.9606,-407.873 L 90,-408.5
 L 90,-503.5 L 89.9606,-504.127 L 89.8429,-504.743 L 89.6489,-505.341 L 89.3815,-505.909 L 89.0451,-506.439
 L 88.6448,-506.923 L 88.1871,-507.353 L 87.6791,-507.722 L 87.1289,-508.024 L 86.5451,-508.255 L 85.9369,-508.411
 L 85.3139,-508.49 L -85.3139,-508.49 L -85.9369,-508.411 L -86.5451,-508.255 L -87.1289,-508.024 L -87.6791,-507.722
 L -88.1871,-507.353 L -88.6448,-506.923 L -89.0451,-506.439 L -89.3815,-505.909 L -89.6489,-505.341 L -89.8429,-504.743
 L -89.9606,-504.127 L -90,-503.5 L -90,-408.5 L -89.9606,-407.873 L -89.8429,-407.257 L -89.6489,-406.659
 L -89.3815,-406.091 L -89.0451,-405.561 L -88.6448,-405.077 L -88.1871,-404.647 L -87.6791,-404.278 L -87.1289,-403.976
 L -86.5451,-403.745 L -85.9369,-403.589 L -85.3139,-403.51 L 85.3139,-403.51 z
M -84.993,-404.888 L -85.4751,-404.949 L -85.9457,-405.07 L -86.3975,-405.249 L -86.8234,-405.483 L -87.2165,-405.769
 L -87.5707,-406.101 L -87.8805,-406.476 L -88.1408,-406.886 L -88.3477,-407.326 L -88.4979,-407.788 L -88.589,-408.265
 L -88.6195,-408.75 L -88.6195,-503.25 L -88.589,-503.735 L -88.4979,-504.212 L -88.3477,-504.674 L -88.1408,-505.114
 L -87.8805,-505.524 L -87.5707,-505.899 L -87.2165,-506.231 L -86.8234,-506.517 L -86.3975,-506.751 L -85.9457,-506.93
 L -85.4751,-507.051 L -84.993,-507.112 L 84.993,-507.112 L 85.4751,-507.051 L 85.9457,-506.93 L 86.3975,-506.751
 L 86.8234,-506.517 L 87.2165,-506.231 L 87.5707,-505.899 L 87.8805,-505.524 L 88.1408,-505.114 L 88.3477,-504.674
 L 88.4979,-504.212 L 88.589,-503.735 L 88.6195,-503.25 L 88.6195,-408.75 L 88.589,-408.265 L 88.4979,-407.788
 L 88.3477,-407.326 L 88.1408,-406.886 L 87.8805,-406.476 L 87.5707,-406.101 L 87.2165,-405.769 L 86.8234,-405.483
 L 86.3975,-405.249 L 85.9457,-405.07 L 85.4751,-404.949 L 84.993,-404.888 z
M 85.9369,-289.589 L 86.5451,-289.745 L 87.1289,-289.976 L 87.6791,-290.278 L 88.1871,-290.647 L 88.6448,-291.077
 L 89.0451,-291.561 L 89.3815,-292.091 L 89.6489,-292.659 L 89.8429,-293.257 L 89.9606,-293.873 L 90,-294.5
 L 90,-389.5 L 89.9606,-390.127 L 89.8429,-390.743 L 89.6489,-391.341 L 89.3815,-391.909 L 89.0451,-392.439
 L 88.6448,-392.923 L 88.1871,-393.353 L 87.6791,-393.722 L 87.1289,-394.024 L 86.5451,-394.255 L 85.9369,-394.411
 L 85.3139,-394.49 L -85.3139,-394.49 L -85.9369,-394.411 L -86.5451,-394.255 L -87.1289,-394.024 L -87.6791,-393.722
 L -88.1871,-393.353 L -88.6448,-392.923 L -89.0451,-392.439 L -89.3815,-391.909 L -89.6489,-391.341 L -89.8429,-390.743
 L -89.9606,-390.127 L -90,-389.5 L -90,-294.5 L -89.9606,-293.873 L -89.8429,-293.257 L -89.6489,-292.659
 L -89.3815,-292.091 L -89.0451,-291.561 L -88.6448,-291.077 L -88.1871,-290.647 L -87.6791,-290.278 L -87.1289,-289.976
 L -86.5451,-289.745 L -85.9369,-289.589 L -85.3139,-289.51 L 85.3139,-289.51 z
M 82.387,-385.204 L 82.1627,-385.232 L 81.9438,-385.288 L 81.7336,-385.371 L 81.5355,-385.48 L 81.3526,-385.613
 L 81.1879,-385.768 L 81.0438,-385.942 L 80.9226,-386.133 L 80.8264,-386.337 L 80.7565,-386.552 L 80.7142,-386.774
 L 80.7,-387 L 80.7142,-387.226 L 80.7565,-387.448 L 80.8264,-387.663 L 80.9226,-387.867 L 81.0438,-388.058
 L 81.1879,-388.232 L 81.3526,-388.387 L 81.5355,-388.52 L 81.7336,-388.629 L 81.9438,-388.712 L 82.1627,-388.768
 L 82.387,-388.796 L 82.613,-388.796 L 82.8373,-388.768 L 83.0562,-388.712 L 83.2664,-388.629 L 83.4645,-388.52
 L 83.6474,-388.387 L 83.8121,-388.232 L 83.9562,-388.058 L 84.0773,-387.867 L 84.1736,-387.663 L 84.2434,-387.448
 L 84.2858,-387.226 L 84.3,-387 L 84.2858,-386.774 L 84.2434,-386.552 L 84.1736,-386.337 L 84.0773,-386.133
 L 83.9562,-385.942 L 83.8121,-385.768 L 83.6474,-385.613 L 83.4645,-385.48 L 83.2664,-385.371 L 83.0562,-385.288
 L 82.8373,-385.232 L 82.613,-385.204 z
M -82.613,-385.204 L -82.8373,-385.232 L -83.0562,-385.288 L -83.2664,-385.371 L -83.4645,-385.48 L -83.6474,-385.613
 L -83.8121,-385.768 L -83.9562,-385.942 L -84.0773,-386.133 L -84.1736,-386.337 L -84.2434,-386.552 L -84.2858,-386.774
 L -84.3,-387 L -84.2858,-387.226 L -84.2434,-387.448 L -84.1736,-387.663 L -84.0773,-387.867 L -83.9562,-388.058
 L -83.8121,-388.232 L -83.6474,-388.387 L -83.4645,-388.52 L -83.2664,-388.629 L -83.0562,-388.712 L -82.8373,-388.768
 L -82.613,-388.796 L -82.387,-388.796 L -82.1627,-388.768 L -81.9438,-388.712 L -81.7336,-388.629 L -81.5355,-388.52
 L -81.3526,-388.387 L -81.1879,-388.232 L -81.0438,-388.058 L -80.9226,-387.867 L -80.8264,-387.663 L -80.7565,-387.448
 L -80.7142,-387.226 L -80.7,-387 L -80.7142,-386.774 L -80.7565,-386.552 L -80.8264,-386.337 L -80.9226,-386.133
 L -81.0438,-385.942 L -81.1879,-385.768 L -81.3526,-385.613 L -81.5355,-385.48 L -81.7336,-385.371 L -81.9438,-385.288
 L -82.1627,-385.232 L -82.387,-385.204 z
M -82.613,-295.204 L -82.8373,-295.232 L -83.0562,-295.288 L -83.2664,-295.371 L -83.4645,-295.48 L -83.6474,-295.613
 L -83.8121,-295.768 L -83.9562,-295.942 L -84.0773,-296.133 L -84.1736,-296.337 L -84.2434,-296.552 L -84.2858,-296.774
 L -84.3,-297 L -84.2858,-297.226 L -84.2434,-297.448 L -84.1736,-297.663 L -84.0773,-297.867 L -83.9562,-298.058
 L -83.8121,-298.232 L -83.6474,-298.387 L -83.4645,-298.52 L -83.2664,-298.629 L -83.0562,-298.712 L -82.8373,-298.768
 L -82.613,-298.796 L -82.387,-298.796 L -82.1627,-298.768 L -81.9438,-298.712 L -81.7336,-298.629 L -81.5355,-298.52
 L -81.3526,-298.387 L -81.1879,-298.232 L -81.0438,-298.058 L -80.9226,-297.867 L -80.8264,-297.663 L -80.7565,-297.448
 L -80.7142,-297.226 L -80.7,-297 L -80.7142,-296.774 L -80.7565,-296.552 L -80.8264,-296.337 L -80.9226,-296.133
 L -81.0438,-295.942 L -81.1879,-295.768 L -81.3526,-295.613 L -81.5355,-295.48 L -81.7336,-295.371 L -81.9438,-295.288
 L -82.1627,-295.232 L -82.387,-295.204 z
M 82.387,-295.204 L 82.1627,-295.232 L 81.9438,-295.288 L 81.7336,-295.371 L 81.5355,-295.48 L 81.3526,-295.613
 L 81.1879,-295.768 L 81.0438,-295.942 L 80.9226,-296.133 L 80.8264,-296.337 L 80.7565,-296.552 L 80.7142,-296.774
 L 80.7,-297 L 80.7142,-297.226 L 80.7565,-297.448 L 80.8264,-297.663 L 80.9226,-297.867 L 81.0438,-298.058
 L 81.1879,-298.232 L 81.3526,-298.387 L 81.5355,-298.52 L 81.7336,-298.629 L 81.9438,-298.712 L 82.1627,-298.768
 L 82.387,-298.796 L 82.613,-298.796 L 82.8373,-298.768 L 83.0562,-298.712 L 83.2664,-298.629 L 83.4645,-298.52
 L 83.6474,-298.387 L 83.8121,-298.232 L 83.9562,-298.058 L 84.0773,-297.867 L 84.1736,-297.663 L 84.2434,-297.448
 L 84.2858,-297.226 L 84.3,-297 L 84.2858,-296.774 L 84.2434,-296.552 L 84.1736,-296.337 L 84.0773,-296.133
 L 83.9562,-295.942 L 83.8121,-295.768 L 83.6474,-295.613 L 83.4645,-295.48 L 83.2664,-295.371 L 83.0562,-295.288
 L 82.8373,-295.232 L 82.613,-295.204 z
" stroke="black" fill="lightgray" stroke-width="0.5"/>
</svg>
