  0
SECTION
  2
BLOCKS
  0
ENDSEC
  0
SECTION
  2
ENTITIES
  0
LINE
  8
0
 10
100.937
 20
477.089
 11
101.545
 21
477.245
  0
LINE
  8
0
 10
101.545
 20
477.245
 11
102.129
 21
477.476
  0
LINE
  8
0
 10
102.129
 20
477.476
 11
102.679
 21
477.778
  0
LINE
  8
0
 10
102.679
 20
477.778
 11
103.187
 21
478.147
  0
LINE
  8
0
 10
103.187
 20
478.147
 11
103.645
 21
478.577
  0
LINE
  8
0
 10
103.645
 20
478.577
 11
104.045
 21
479.061
  0
LINE
  8
0
 10
104.045
 20
479.061
 11
104.382
 21
479.591
  0
LINE
  8
0
 10
104.382
 20
479.591
 11
104.649
 21
480.159
  0
LINE
  8
0
 10
104.649
 20
480.159
 11
104.843
 21
480.757
  0
LINE
  8
0
 10
104.843
 20
480.757
 11
104.961
 21
481.373
  0
LINE
  8
0
 10
104.961
 20
481.373
 11
105
 21
482
  0
LINE
  8
0
 10
105
 20
482
 11
105
 21
652
  0
LINE
  8
0
 10
105
 20
652
 11
104.961
 21
652.627
  0
LINE
  8
0
 10
104.961
 20
652.627
 11
104.843
 21
653.243
  0
LINE
  8
0
 10
104.843
 20
653.243
 11
104.649
 21
653.841
  0
LINE
  8
0
 10
104.649
 20
653.841
 11
104.382
 21
654.409
  0
LINE
  8
0
 10
104.382
 20
654.409
 11
104.045
 21
654.939
  0
LINE
  8
0
 10
104.045
 20
654.939
 11
103.645
 21
655.423
  0
LINE
  8
0
 10
103.645
 20
655.423
 11
103.187
 21
655.853
  0
LINE
  8
0
 10
103.187
 20
655.853
 11
102.679
 21
656.222
  0
LINE
  8
0
 10
102.679
 20
656.222
 11
102.129
 21
656.524
  0
LINE
  8
0
 10
102.129
 20
656.524
 11
101.545
 21
656.755
  0
LINE
  8
0
 10
101.545
 20
656.755
 11
100.937
 21
656.911
  0
LINE
  8
0
 10
100.937
 20
656.911
 11
100.314
 21
656.99
  0
LINE
  8
0
 10
100.314
 20
656.99
 11
-100.314
 21
656.99
  0
LINE
  8
0
 10
-100.314
 20
656.99
 11
-100.937
 21
656.911
  0
LINE
  8
0
 10
-100.937
 20
656.911
 11
-101.545
 21
656.755
  0
LINE
  8
0
 10
-101.545
 20
656.755
 11
-102.129
 21
656.524
  0
LINE
  8
0
 10
-102.129
 20
656.524
 11
-102.679
 21
656.222
  0
LINE
  8
0
 10
-102.679
 20
656.222
 11
-103.187
 21
655.853
  0
LINE
  8
0
 10
-103.187
 20
655.853
 11
-103.645
 21
655.423
  0
LINE
  8
0
 10
-103.645
 20
655.423
 11
-104.045
 21
654.939
  0
LINE
  8
0
 10
-104.045
 20
654.939
 11
-104.382
 21
654.409
  0
LINE
  8
0
 10
-104.382
 20
654.409
 11
-104.649
 21
653.841
  0
LINE
  8
0
 10
-104.649
 20
653.841
 11
-104.843
 21
653.243
  0
LINE
  8
0
 10
-104.843
 20
653.243
 11
-104.961
 21
652.627
  0
LINE
  8
0
 10
-104.961
 20
652.627
 11
-105
 21
652
  0
LINE
  8
0
 10
-105
 20
652
 11
-105
 21
482
  0
LINE
  8
0
 10
-105
 20
482
 11
-104.961
 21
481.373
  0
LINE
  8
0
 10
-104.961
 20
481.373
 11
-104.843
 21
480.757
  0
LINE
  8
0
 10
-104.843
 20
480.757
 11
-104.649
 21
480.159
  0
LINE
  8
0
 10
-104.649
 20
480.159
 11
-104.382
 21
479.591
  0
LINE
  8
0
 10
-104.382
 20
479.591
 11
-104.045
 21
479.061
  0
LINE
  8
0
 10
-104.045
 20
479.061
 11
-103.645
 21
478.577
  0
LINE
  8
0
 10
-103.645
 20
478.577
 11
-103.187
 21
478.147
  0
LINE
  8
0
 10
-103.187
 20
478.147
 11
-102.679
 21
477.778
  0
LINE
  8
0
 10
-102.679
 20
477.778
 11
-102.129
 21
477.476
  0
LINE
  8
0
 10
-102.129
 20
477.476
 11
-101.545
 21
477.245
  0
LINE
  8
0
 10
-101.545
 20
477.245
 11
-100.937
 21
477.089
  0
LINE
  8
0
 10
-100.937
 20
477.089
 11
-100.314
 21
477.01
  0
LINE
  8
0
 10
-100.314
 20
477.01
 11
100.314
 21
477.01
  0
LINE
  8
0
 10
100.314
 20
477.01
 11
100.937
 21
477.089
  0
LINE
  8
0
 10
-100.037
 20
477.681
 11
-100.608
 21
477.753
  0
LINE
  8
0
 10
-100.608
 20
477.753
 11
-101.165
 21
477.896
  0
LINE
  8
0
 10
-101.165
 20
477.896
 11
-101.699
 21
478.107
  0
LINE
  8
0
 10
-101.699
 20
478.107
 11
-102.203
 21
478.384
  0
LINE
  8
0
 10
-102.203
 20
478.384
 11
-102.668
 21
478.722
  0
LINE
  8
0
 10
-102.668
 20
478.722
 11
-103.088
 21
479.116
  0
LINE
  8
0
 10
-103.088
 20
479.116
 11
-103.454
 21
479.559
  0
LINE
  8
0
 10
-103.454
 20
479.559
 11
-103.762
 21
480.044
  0
LINE
  8
0
 10
-103.762
 20
480.044
 11
-104.007
 21
480.565
  0
LINE
  8
0
 10
-104.007
 20
480.565
 11
-104.185
 21
481.111
  0
LINE
  8
0
 10
-104.185
 20
481.111
 11
-104.292
 21
481.676
  0
LINE
  8
0
 10
-104.292
 20
481.676
 11
-104.328
 21
482.25
  0
LINE
  8
0
 10
-104.328
 20
482.25
 11
-104.328
 21
651.75
  0
LINE
  8
0
 10
-104.328
 20
651.75
 11
-104.292
 21
652.324
  0
LINE
  8
0
 10
-104.292
 20
652.324
 11
-104.185
 21
652.889
  0
LINE
  8
0
 10
-104.185
 20
652.889
 11
-104.007
 21
653.435
  0
LINE
  8
0
 10
-104.007
 20
653.435
 11
-103.762
 21
653.956
  0
LINE
  8
0
 10
-103.762
 20
653.956
 11
-103.454
 21
654.441
  0
LINE
  8
0
 10
-103.454
 20
654.441
 11
-103.088
 21
654.884
  0
LINE
  8
0
 10
-103.088
 20
654.884
 11
-102.668
 21
655.278
  0
LINE
  8
0
 10
-102.668
 20
655.278
 11
-102.203
 21
655.616
  0
LINE
  8
0
 10
-102.203
 20
655.616
 11
-101.699
 21
655.893
  0
LINE
  8
0
 10
-101.699
 20
655.893
 11
-101.165
 21
656.104
  0
LINE
  8
0
 10
-101.165
 20
656.104
 11
-100.608
 21
656.247
  0
LINE
  8
0
 10
-100.608
 20
656.247
 11
-100.037
 21
656.319
  0
LINE
  8
0
 10
-100.037
 20
656.319
 11
100.037
 21
656.319
  0
LINE
  8
0
 10
100.037
 20
656.319
 11
100.608
 21
656.247
  0
LINE
  8
0
 10
100.608
 20
656.247
 11
101.165
 21
656.104
  0
LINE
  8
0
 10
101.165
 20
656.104
 11
101.699
 21
655.893
  0
LINE
  8
0
 10
101.699
 20
655.893
 11
102.203
 21
655.616
  0
LINE
  8
0
 10
102.203
 20
655.616
 11
102.668
 21
655.278
  0
LINE
  8
0
 10
102.668
 20
655.278
 11
103.088
 21
654.884
  0
LINE
  8
0
 10
103.088
 20
654.884
 11
103.454
 21
654.441
  0
LINE
  8
0
 10
103.454
 20
654.441
 11
103.762
 21
653.956
  0
LINE
  8
0
 10
103.762
 20
653.956
 11
104.007
 21
653.435
  0
LINE
  8
0
 10
104.007
 20
653.435
 11
104.185
 21
652.889
  0
LINE
  8
0
 10
104.185
 20
652.889
 11
104.292
 21
652.324
  0
LINE
  8
0
 10
104.292
 20
652.324
 11
104.328
 21
651.75
  0
LINE
  8
0
 10
104.328
 20
651.75
 11
104.328
 21
482.25
  0
LINE
  8
0
 10
104.328
 20
482.25
 11
104.292
 21
481.676
  0
LINE
  8
0
 10
104.292
 20
481.676
 11
104.185
 21
481.111
  0
LINE
  8
0
 10
104.185
 20
481.111
 11
104.007
 21
480.565
  0
LINE
  8
0
 10
104.007
 20
480.565
 11
103.762
 21
480.044
  0
LINE
  8
0
 10
103.762
 20
480.044
 11
103.454
 21
479.559
  0
LINE
  8
0
 10
103.454
 20
479.559
 11
103.088
 21
479.116
  0
LINE
  8
0
 10
103.088
 20
479.116
 11
102.668
 21
478.722
  0
LINE
  8
0
 10
102.668
 20
478.722
 11
102.203
 21
478.384
  0
LINE
  8
0
 10
102.203
 20
478.384
 11
101.699
 21
478.107
  0
LINE
  8
0
 10
101.699
 20
478.107
 11
101.165
 21
477.896
  0
LINE
  8
0
 10
101.165
 20
477.896
 11
100.608
 21
477.753
  0
LINE
  8
0
 10
100.608
 20
477.753
 11
100.037
 21
477.681
  0
LINE
  8
0
 10
100.037
 20
477.681
 11
-100.037
 21
477.681
  0
LINE
  8
0
 10
100.937
 20
288.089
 11
101.545
 21
288.245
  0
LINE
  8
0
 10
101.545
 20
288.245
 11
102.129
 21
288.476
  0
LINE
  8
0
 10
102.129
 20
288.476
 11
102.679
 21
288.778
  0
LINE
  8
0
 10
102.679
 20
288.778
 11
103.187
 21
289.147
  0
LINE
  8
0
 10
103.187
 20
289.147
 11
103.645
 21
289.577
  0
LINE
  8
0
 10
103.645
 20
289.577
 11
104.045
 21
290.061
  0
LINE
  8
0
 10
104.045
 20
290.061
 11
104.382
 21
290.591
  0
LINE
  8
0
 10
104.382
 20
290.591
 11
104.649
 21
291.159
  0
LINE
  8
0
 10
104.649
 20
291.159
 11
104.843
 21
291.757
  0
LINE
  8
0
 10
104.843
 20
291.757
 11
104.961
 21
292.373
  0
LINE
  8
0
 10
104.961
 20
292.373
 11
105
 21
293
  0
LINE
  8
0
 10
105
 20
293
 11
105
 21
463
  0
LINE
  8
0
 10
105
 20
463
 11
104.961
 21
463.627
  0
LINE
  8
0
 10
104.961
 20
463.627
 11
104.843
 21
464.243
  0
LINE
  8
0
 10
104.843
 20
464.243
 11
104.649
 21
464.841
  0
LINE
  8
0
 10
104.649
 20
464.841
 11
104.382
 21
465.409
  0
LINE
  8
0
 10
104.382
 20
465.409
 11
104.045
 21
465.939
  0
LINE
  8
0
 10
104.045
 20
465.939
 11
103.645
 21
466.423
  0
LINE
  8
0
 10
103.645
 20
466.423
 11
103.187
 21
466.853
  0
LINE
  8
0
 10
103.187
 20
466.853
 11
102.679
 21
467.222
  0
LINE
  8
0
 10
102.679
 20
467.222
 11
102.129
 21
467.524
  0
LINE
  8
0
 10
102.129
 20
467.524
 11
101.545
 21
467.755
  0
LINE
  8
0
 10
101.545
 20
467.755
 11
100.937
 21
467.911
  0
LINE
  8
0
 10
100.937
 20
467.911
 11
100.314
 21
467.99
  0
LINE
  8
0
 10
100.314
 20
467.99
 11
-100.314
 21
467.99
  0
LINE
  8
0
 10
-100.314
 20
467.99
 11
-100.937
 21
467.911
  0
LINE
  8
0
 10
-100.937
 20
467.911
 11
-101.545
 21
467.755
  0
LINE
  8
0
 10
-101.545
 20
467.755
 11
-102.129
 21
467.524
  0
LINE
  8
0
 10
-102.129
 20
467.524
 11
-102.679
 21
467.222
  0
LINE
  8
0
 10
-102.679
 20
467.222
 11
-103.187
 21
466.853
  0
LINE
  8
0
 10
-103.187
 20
466.853
 11
-103.645
 21
466.423
  0
LINE
  8
0
 10
-103.645
 20
466.423
 11
-104.045
 21
465.939
  0
LINE
  8
0
 10
-104.045
 20
465.939
 11
-104.382
 21
465.409
  0
LINE
  8
0
 10
-104.382
 20
465.409
 11
-104.649
 21
464.841
  0
LINE
  8
0
 10
-104.649
 20
464.841
 11
-104.843
 21
464.243
  0
LINE
  8
0
 10
-104.843
 20
464.243
 11
-104.961
 21
463.627
  0
LINE
  8
0
 10
-104.961
 20
463.627
 11
-105
 21
463
  0
LINE
  8
0
 10
-105
 20
463
 11
-105
 21
293
  0
LINE
  8
0
 10
-105
 20
293
 11
-104.961
 21
292.373
  0
LINE
  8
0
 10
-104.961
 20
292.373
 11
-104.843
 21
291.757
  0
LINE
  8
0
 10
-104.843
 20
291.757
 11
-104.649
 21
291.159
  0
LINE
  8
0
 10
-104.649
 20
291.159
 11
-104.382
 21
290.591
  0
LINE
  8
0
 10
-104.382
 20
290.591
 11
-104.045
 21
290.061
  0
LINE
  8
0
 10
-104.045
 20
290.061
 11
-103.645
 21
289.577
  0
LINE
  8
0
 10
-103.645
 20
289.577
 11
-103.187
 21
289.147
  0
LINE
  8
0
 10
-103.187
 20
289.147
 11
-102.679
 21
288.778
  0
LINE
  8
0
 10
-102.679
 20
288.778
 11
-102.129
 21
288.476
  0
LINE
  8
0
 10
-102.129
 20
288.476
 11
-101.545
 21
288.245
  0
LINE
  8
0
 10
-101.545
 20
288.245
 11
-100.937
 21
288.089
  0
LINE
  8
0
 10
-100.937
 20
288.089
 11
-100.314
 21
288.01
  0
LINE
  8
0
 10
-100.314
 20
288.01
 11
100.314
 21
288.01
  0
LINE
  8
0
 10
100.314
 20
288.01
 11
100.937
 21
288.089
  0
LINE
  8
0
 10
-99.8825
 20
291.145
 11
-100.145
 21
291.178
  0
LINE
  8
0
 10
-100.145
 20
291.178
 11
-100.402
 21
291.244
  0
LINE
  8
0
 10
-100.402
 20
291.244
 11
-100.648
 21
291.341
  0
LINE
  8
0
 10
-100.648
 20
291.341
 11
-100.88
 21
291.469
  0
LINE
  8
0
 10
-100.88
 20
291.469
 11
-101.095
 21
291.624
  0
LINE
  8
0
 10
-101.095
 20
291.624
 11
-101.288
 21
291.806
  0
LINE
  8
0
 10
-101.288
 20
291.806
 11
-101.457
 21
292.01
  0
LINE
  8
0
 10
-101.457
 20
292.01
 11
-101.599
 21
292.234
  0
LINE
  8
0
 10
-101.599
 20
292.234
 11
-101.711
 21
292.473
  0
LINE
  8
0
 10
-101.711
 20
292.473
 11
-101.793
 21
292.725
  0
LINE
  8
0
 10
-101.793
 20
292.725
 11
-101.843
 21
292.986
  0
LINE
  8
0
 10
-101.843
 20
292.986
 11
-101.86
 21
293.25
  0
LINE
  8
0
 10
-101.86
 20
293.25
 11
-101.86
 21
462.75
  0
LINE
  8
0
 10
-101.86
 20
462.75
 11
-101.843
 21
463.014
  0
LINE
  8
0
 10
-101.843
 20
463.014
 11
-101.793
 21
463.275
  0
LINE
  8
0
 10
-101.793
 20
463.275
 11
-101.711
 21
463.527
  0
LINE
  8
0
 10
-101.711
 20
463.527
 11
-101.599
 21
463.766
  0
LINE
  8
0
 10
-101.599
 20
463.766
 11
-101.457
 21
463.99
  0
LINE
  8
0
 10
-101.457
 20
463.99
 11
-101.288
 21
464.194
  0
LINE
  8
0
 10
-101.288
 20
464.194
 11
-101.095
 21
464.376
  0
LINE
  8
0
 10
-101.095
 20
464.376
 11
-100.88
 21
464.531
  0
LINE
  8
0
 10
-100.88
 20
464.531
 11
-100.648
 21
464.659
  0
LINE
  8
0
 10
-100.648
 20
464.659
 11
-100.402
 21
464.756
  0
LINE
  8
0
 10
-100.402
 20
464.756
 11
-100.145
 21
464.822
  0
LINE
  8
0
 10
-100.145
 20
464.822
 11
-99.8825
 21
464.855
  0
LINE
  8
0
 10
-99.8825
 20
464.855
 11
99.8825
 21
464.855
  0
LINE
  8
0
 10
99.8825
 20
464.855
 11
100.145
 21
464.822
  0
LINE
  8
0
 10
100.145
 20
464.822
 11
100.402
 21
464.756
  0
LINE
  8
0
 10
100.402
 20
464.756
 11
100.648
 21
464.659
  0
LINE
  8
0
 10
100.648
 20
464.659
 11
100.88
 21
464.531
  0
LINE
  8
0
 10
100.88
 20
464.531
 11
101.095
 21
464.376
  0
LINE
  8
0
 10
101.095
 20
464.376
 11
101.288
 21
464.194
  0
LINE
  8
0
 10
101.288
 20
464.194
 11
101.457
 21
463.99
  0
LINE
  8
0
 10
101.457
 20
463.99
 11
101.599
 21
463.766
  0
LINE
  8
0
 10
101.599
 20
463.766
 11
101.711
 21
463.527
  0
LINE
  8
0
 10
101.711
 20
463.527
 11
101.793
 21
463.275
  0
LINE
  8
0
 10
101.793
 20
463.275
 11
101.843
 21
463.014
  0
LINE
  8
0
 10
101.843
 20
463.014
 11
101.86
 21
462.75
  0
LINE
  8
0
 10
101.86
 20
462.75
 11
101.86
 21
293.25
  0
LINE
  8
0
 10
101.86
 20
293.25
 11
101.843
 21
292.986
  0
LINE
  8
0
 10
101.843
 20
292.986
 11
101.793
 21
292.725
  0
LINE
  8
0
 10
101.793
 20
292.725
 11
101.711
 21
292.473
  0
LINE
  8
0
 10
101.711
 20
292.473
 11
101.599
 21
292.234
  0
LINE
  8
0
 10
101.599
 20
292.234
 11
101.457
 21
292.01
  0
LINE
  8
0
 10
101.457
 20
292.01
 11
101.288
 21
291.806
  0
LINE
  8
0
 10
101.288
 20
291.806
 11
101.095
 21
291.624
  0
LINE
  8
0
 10
101.095
 20
291.624
 11
100.88
 21
291.469
  0
LINE
  8
0
 10
100.88
 20
291.469
 11
100.648
 21
291.341
  0
LINE
  8
0
 10
100.648
 20
291.341
 11
100.402
 21
291.244
  0
LINE
  8
0
 10
100.402
 20
291.244
 11
100.145
 21
291.178
  0
LINE
  8
0
 10
100.145
 20
291.178
 11
99.8825
 21
291.145
  0
LINE
  8
0
 10
99.8825
 20
291.145
 11
-99.8825
 21
291.145
  0
ENDSEC
  0
SECTION
  2
OBJECTS
  0
DICTIONARY
  0
ENDSEC
  0
EOF
