<?xml version="1.0" standalone="no"?>
<!DOCTYPE svg PUBLIC "-//W3C//DTD SVG 1.1//EN" "http://www.w3.org/Graphics/SVG/1.1/DTD/svg11.dtd">
<svg width="180mm" height="580mm" viewBox="-90 -731 180 580" xmlns="http://www.w3.org/2000/svg" version="1.1">
<title>OpenSCAD Model</title>
<path d="
M 85.9369,-445.589 L 86.5451,-445.745 L 87.1289,-445.976 L 87.6791,-446.278 L 88.1871,-446.647 L 88.6448,-447.077
 L 89.0451,-447.561 L 89.3815,-448.091 L 89.6489,-448.659 L 89.8429,-449.257 L 89.9606,-449.873 L 90,-450.5
 L 90,-725.5 L 89.9606,-726.127 L 89.8429,-726.743 L 89.6489,-727.341 L 89.3815,-727.909 L 89.0451,-728.439
 L 88.6448,-728.923 L 88.1871,-729.353 L 87.6791,-729.722 L 87.1289,-730.024 L 86.5451,-730.255 L 85.9369,-730.411
 L 85.3139,-730.49 L -85.3139,-730.49 L -85.9369,-730.411 L -86.5451,-730.255 L -87.1289,-730.024 L -87.6791,-729.722
 L -88.1871,-729.353 L -88.6448,-728.923 L -89.0451,-728.439 L -89.3815,-727.909 L -89.6489,-727.341 L -89.8429,-726.743
 L -89.9606,-726.127 L -90,-725.5 L -90,-450.5 L -89.9606,-449.873 L -89.8429,-449.257 L -89.6489,-448.659
 L -89.3815,-448.091 L -89.0451,-447.561 L -88.6448,-447.077 L -88.1871,-446.647 L -87.6791,-446.278 L -87.1289,-445.976
 L -86.5451,-445.745 L -85.9369,-445.589 L -85.3139,-445.51 L 85.3139,-445.51 z
M -82.6507,-720.605 L -82.9497,-720.643 L -83.2416,-720.717 L -83.5219,-720.828 L -83.786,-720.974 L -84.0298,-721.151
 L -84.2495,-721.357 L -84.4416,-721.589 L -84.6031,-721.844 L -84.7315,-722.117 L -84.8246,-722.403 L -84.8811,-722.699
 L -84.9,-723 L -84.8811,-723.301 L -84.8246,-723.597 L -84.7315,-723.883 L -84.6031,-724.156 L -84.4416,-724.411
 L -84.2495,-724.643 L -84.0298,-724.849 L -83.786,-725.026 L -83.5219,-725.172 L -83.2416,-725.283 L -82.9497,-725.357
 L -82.6507,-725.395 L -82.3493,-725.395 L -82.0503,-725.357 L -81.7584,-725.283 L -81.4781,-725.172 L -81.214,-725.026
 L -80.9702,-724.849 L -80.7505,-724.643 L -80.5583,-724.411 L -80.3969,-724.156 L -80.2685,-723.883 L -80.1754,-723.597
 L -80.1189,-723.301 L -80.1,-723 L -80.1189,-722.699 L -80.1754,-722.403 L -80.2685,-722.117 L -80.3969,-721.844
 L -80.5583,-721.589 L -80.7505,-721.357 L -80.9702,-721.151 L -81.214,-720.974 L -81.4781,-720.828 L -81.7584,-720.717
 L -82.0503,-720.643 L -82.3493,-720.605 z
M 82.3493,-720.605 L 82.0503,-720.643 L 81.7584,-720.717 L 81.4781,-720.828 L 81.214,-720.974 L 80.9702,-721.151
 L 80.7505,-721.357 L 80.5583,-721.589 L 80.3969,-721.844 L 80.2685,-722.117 L 80.1754,-722.403 L 80.1189,-722.699
 L 80.1,-723 L 80.1189,-723.301 L 80.1754,-723.597 L 80.2685,-723.883 L 80.3969,-724.156 L 80.5583,-724.411
 L 80.7505,-724.643 L 80.9702,-724.849 L 81.214,-725.026 L 81.4781,-725.172 L 81.7584,-725.283 L 82.0503,-725.357
 L 82.3493,-725.395 L 82.6507,-725.395 L 82.9497,-725.357 L 83.2416,-725.283 L 83.5219,-725.172 L 83.786,-725.026
 L 84.0298,-724.849 L 84.2495,-724.643 L 84.4416,-724.411 L 84.6031,-724.156 L 84.7315,-723.883 L 84.8246,-723.597
 L 84.8811,-723.301 L 84.9,-723 L 84.8811,-722.699 L 84.8246,-722.403 L 84.7315,-722.117 L 84.6031,-721.844
 L 84.4416,-721.589 L 84.2495,-721.357 L 84.0298,-721.151 L 83.786,-720.974 L 83.5219,-720.828 L 83.2416,-720.717
 L 82.9497,-720.643 L 82.6507,-720.605 z
M 82.3493,-450.605 L 82.0503,-450.643 L 81.7584,-450.717 L 81.4781,-450.828 L 81.214,-450.974 L 80.9702,-451.151
 L 80.7505,-451.357 L 80.5583,-451.589 L 80.3969,-451.844 L 80.2685,-452.117 L 80.1754,-452.403 L 80.1189,-452.699
 L 80.1,-453 L 80.1189,-453.301 L 80.1754,-453.597 L 80.2685,-453.883 L 80.3969,-454.156 L 80.5583,-454.411
 L 80.7505,-454.643 L 80.9702,-454.849 L 81.214,-455.026 L 81.4781,-455.172 L 81.7584,-455.283 L 82.0503,-455.357
 L 82.3493,-455.395 L 82.6507,-455.395 L 82.9497,-455.357 L 83.2416,-455.283 L 83.5219,-455.172 L 83.786,-455.026
 L 84.0298,-454.849 L 84.2495,-454.643 L 84.4416,-454.411 L 84.6031,-454.156 L 84.7315,-453.883 L 84.8246,-453.597
 L 84.8811,-453.301 L 84.9,-453 L 84.8811,-452.699 L 84.8246,-452.403 L 84.7315,-452.117 L 84.6031,-451.844
 L 84.4416,-451.589 L 84.2495,-451.357 L 84.0298,-451.151 L 83.786,-450.974 L 83.5219,-450.828 L 83.2416,-450.717
 L 82.9497,-450.643 L 82.6507,-450.605 z
M -82.6507,-450.605 L -82.9497,-450.643 L -83.2416,-450.717 L -83.5219,-450.828 L -83.786,-450.974 L -84.0298,-451.151
 L -84.2495,-451.357 L -84.4416,-451.589 L -84.6031,-451.844 L -84.7315,-452.117 L -84.8246,-452.403 L -84.8811,-452.699
 L -84.9,-453 L -84.8811,-453.301 L -84.8246,-453.597 L -84.7315,-453.883 L -84.6031,-454.156 L -84.4416,-454.411
 L -84.2495,-454.643 L -84.0298,-454.849 L -83.786,-455.026 L -83.5219,-455.172 L -83.2416,-455.283 L -82.9497,-455.357
 L -82.6507,-455.395 L -82.3493,-455.395 L -82.0503,-455.357 L -81.7584,-455.283 L -81.4781,-455.172 L -81.214,-455.026
 L -80.9702,-454.849 L -80.7505,-454.643 L -80.5583,-454.411 L -80.3969,-454.156 L -80.2685,-453.883 L -80.1754,-453.597
 L -80.1189,-453.301 L -80.1,-453 L -80.1189,-452.699 L -80.1754,-452.403 L -80.2685,-452.117 L -80.3969,-451.844
 L -80.5583,-451.589 L -80.7505,-451.357 L -80.9702,-451.151 L -81.214,-450.974 L -81.4781,-450.828 L -81.7584,-450.717
 L -82.0503,-450.643 L -82.3493,-450.605 z
M 85.9369,-151.589 L 86.5451,-151.745 L 87.1289,-151.976 L 87.6791,-152.278 L 88.1871,-152.647 L 88.6448,-153.077
 L 89.0451,-153.561 L 89.3815,-154.091 L 89.6489,-154.659 L 89.8429,-155.257 L 89.9606,-155.873 L 90,-156.5
 L 90,-431.5 L 89.9606,-432.127 L 89.8429,-432.743 L 89.6489,-433.341 L 89.3815,-433.909 L 89.0451,-434.439
 L 88.6448,-434.923 L 88.1871,-435.353 L 87.6791,-435.722 L 87.1289,-436.024 L 86.5451,-436.255 L 85.9369,-436.411
 L 85.3139,-436.49 L -85.3139,-436.49 L -85.9369,-436.411 L -86.5451,-436.255 L -87.1289,-436.024 L -87.6791,-435.722
 L -88.1871,-435.353 L -88.6448,-434.923 L -89.0451,-434.439 L -89.3815,-433.909 L -89.6489,-433.341 L -89.8429,-432.743
 L -89.9606,-432.127 L -90,-431.5 L -90,-156.5 L -89.9606,-155.873 L -89.8429,-155.257 L -89.6489,-154.659
 L -89.3815,-154.091 L -89.0451,-153.561 L -88.6448,-153.077 L -88.1871,-152.647 L -87.6791,-152.278 L -87.1289,-151.976
 L -86.5451,-151.745 L -85.9369,-151.589 L -85.3139,-151.51 L 85.3139,-151.51 z
M 82.387,-427.204 L 82.1627,-427.232 L 81.9438,-427.288 L 81.7336,-427.371 L 81.5355,-427.48 L 81.3526,-427.613
 L 81.1879,-427.768 L 81.0438,-427.942 L 80.9226,-428.133 L 80.8264,-428.337 L 80.7565,-428.552 L 80.7142,-428.774
 L 80.7,-429 L 80.7142,-429.226 L 80.7565,-429.448 L 80.8264,-429.663 L 80.9226,-429.867 L 81.0438,-430.058
 L 81.1879,-430.232 L 81.3526,-430.387 L 81.5355,-430.52 L 81.7336,-430.629 L 81.9438,-430.712 L 82.1627,-430.768
 L 82.387,-430.796 L 82.613,-430.796 L 82.8373,-430.768 L 83.0562,-430.712 L 83.2664,-430.629 L 83.4645,-430.52
 L 83.6474,-430.387 L 83.8121,-430.232 L 83.9562,-430.058 L 84.0773,-429.867 L 84.1736,-429.663 L 84.2434,-429.448
 L 84.2858,-429.226 L 84.3,-429 L 84.2858,-428.774 L 84.2434,-428.552 L 84.1736,-428.337 L 84.0773,-428.133
 L 83.9562,-427.942 L 83.8121,-427.768 L 83.6474,-427.613 L 83.4645,-427.48 L 83.2664,-427.371 L 83.0562,-427.288
 L 82.8373,-427.232 L 82.613,-427.204 z
M -82.613,-427.204 L -82.8373,-427.232 L -83.0562,-427.288 L -83.2664,-427.371 L -83.4645,-427.48 L -83.6474,-427.613
 L -83.8121,-427.768 L -83.9562,-427.942 L -84.0773,-428.133 L -84.1736,-428.337 L -84.2434,-428.552 L -84.2858,-428.774
 L -84.3,-429 L -84.2858,-429.226 L -84.2434,-429.448 L -84.1736,-429.663 L -84.0773,-429.867 L -83.9562,-430.058
 L -83.8121,-430.232 L -83.6474,-430.387 L -83.4645,-430.52 L -83.2664,-430.629 L -83.0562,-430.712 L -82.8373,-430.768
 L -82.613,-430.796 L -82.387,-430.796 L -82.1627,-430.768 L -81.9438,-430.712 L -81.7336,-430.629 L -81.5355,-430.52
 L -81.3526,-430.387 L -81.1879,-430.232 L -81.0438,-430.058 L -80.9226,-429.867 L -80.8264,-429.663 L -80.7565,-429.448
 L -80.7142,-429.226 L -80.7,-429 L -80.7142,-428.774 L -80.7565,-428.552 L -80.8264,-428.337 L -80.9226,-428.133
 L -81.0438,-427.942 L -81.1879,-427.768 L -81.3526,-427.613 L -81.5355,-427.48 L -81.7336,-427.371 L -81.9438,-427.288
 L -82.1627,-427.232 L -82.387,-427.204 z
M -82.613,-157.204 L -82.8373,-157.232 L -83.0562,-157.288 L -83.2664,-157.371 L -83.4645,-157.48 L -83.6474,-157.613
 L -83.8121,-157.768 L -83.9562,-157.942 L -84.0773,-158.133 L -84.1736,-158.337 L -84.2434,-158.552 L -84.2858,-158.774
 L -84.3,-159 L -84.2858,-159.226 L -84.2434,-159.448 L -84.1736,-159.663 L -84.0773,-159.867 L -83.9562,-160.058
 L -83.8121,-160.232 L -83.6474,-160.387 L -83.4645,-160.52 L -83.2664,-160.629 L -83.0562,-160.712 L -82.8373,-160.768
 L -82.613,-160.796 L -82.387,-160.796 L -82.1627,-160.768 L -81.9438,-160.712 L -81.7336,-160.629 L -81.5355,-160.52
 L -81.3526,-160.387 L -81.1879,-160.232 L -81.0438,-160.058 L -80.9226,-159.867 L -80.8264,-159.663 L -80.7565,-159.448
 L -80.7142,-159.226 L -80.7,-159 L -80.7142,-158.774 L -80.7565,-158.552 L -80.8264,-158.337 L -80.9226,-158.133
 L -81.0438,-157.942 L -81.1879,-157.768 L -81.3526,-157.613 L -81.5355,-157.48 L -81.7336,-157.371 L -81.9438,-157.288
 L -82.1627,-157.232 L -82.387,-157.204 z
M 82.387,-157.204 L 82.1627,-157.232 L 81.9438,-157.288 L 81.7336,-157.371 L 81.5355,-157.48 L 81.3526,-157.613
 L 81.1879,-157.768 L 81.0438,-157.942 L 80.9226,-158.133 L 80.8264,-158.337 L 80.7565,-158.552 L 80.7142,-158.774
 L 80.7,-159 L 80.7142,-159.226 L 80.7565,-159.448 L 80.8264,-159.663 L 80.9226,-159.867 L 81.0438,-160.058
 L 81.1879,-160.232 L 81.3526,-160.387 L 81.5355,-160.52 L 81.7336,-160.629 L 81.9438,-160.712 L 82.1627,-160.768
 L 82.387,-160.796 L 82.613,-160.796 L 82.8373,-160.768 L 83.0562,-160.712 L 83.2664,-160.629 L 83.4645,-160.52
 L 83.6474,-160.387 L 83.8121,-160.232 L 83.9562,-160.058 L 84.0773,-159.867 L 84.1736,-159.663 L 84.2434,-159.448
 L 84.2858,-159.226 L 84.3,-159 L 84.2858,-158.774 L 84.2434,-158.552 L 84.1736,-158.337 L 84.0773,-158.133
 L 83.9562,-157.942 L 83.8121,-157.768 L 83.6474,-157.613 L 83.4645,-157.48 L 83.2664,-157.371 L 83.0562,-157.288
 L 82.8373,-157.232 L 82.613,-157.204 z
" stroke="black" fill="lightgray" stroke-width="0.5"/>
</svg>
