  0
SECTION
  2
BLOCKS
  0
ENDSEC
  0
SECTION
  2
ENTITIES
  0
LINE
  8
0
 10
-87
 20
508.925
 11
-86.5451
 21
508.745
  0
LINE
  8
0
 10
-86.5451
 20
508.745
 11
-85.9369
 21
508.589
  0
LINE
  8
0
 10
-85.9369
 20
508.589
 11
-85.3139
 21
508.51
  0
LINE
  8
0
 10
-85.3139
 20
508.51
 11
85.3139
 21
508.51
  0
LINE
  8
0
 10
85.3139
 20
508.51
 11
85.9369
 21
508.589
  0
LINE
  8
0
 10
85.9369
 20
508.589
 11
86.5451
 21
508.745
  0
LINE
  8
0
 10
86.5451
 20
508.745
 11
87.1289
 21
508.976
  0
LINE
  8
0
 10
87.1289
 20
508.976
 11
87.6791
 21
509.278
  0
LINE
  8
0
 10
87.6791
 20
509.278
 11
88.1871
 21
509.647
  0
LINE
  8
0
 10
88.1871
 20
509.647
 11
88.6448
 21
510.077
  0
LINE
  8
0
 10
88.6448
 20
510.077
 11
89.0451
 21
510.561
  0
LINE
  8
0
 10
89.0451
 20
510.561
 11
89.3815
 21
511.091
  0
LINE
  8
0
 10
89.3815
 20
511.091
 11
89.6489
 21
511.659
  0
LINE
  8
0
 10
89.6489
 20
511.659
 11
89.8429
 21
512.257
  0
LINE
  8
0
 10
89.8429
 20
512.257
 11
89.9606
 21
512.873
  0
LINE
  8
0
 10
89.9606
 20
512.873
 11
90
 21
513.5
  0
LINE
  8
0
 10
90
 20
513.5
 11
90
 21
638.5
  0
LINE
  8
0
 10
90
 20
638.5
 11
89.9606
 21
639.127
  0
LINE
  8
0
 10
89.9606
 20
639.127
 11
89.8429
 21
639.743
  0
LINE
  8
0
 10
89.8429
 20
639.743
 11
89.6489
 21
640.341
  0
LINE
  8
0
 10
89.6489
 20
640.341
 11
89.3815
 21
640.909
  0
LINE
  8
0
 10
89.3815
 20
640.909
 11
89.0451
 21
641.439
  0
LINE
  8
0
 10
89.0451
 20
641.439
 11
88.6448
 21
641.923
  0
LINE
  8
0
 10
88.6448
 20
641.923
 11
88.1871
 21
642.353
  0
LINE
  8
0
 10
88.1871
 20
642.353
 11
87.6791
 21
642.722
  0
LINE
  8
0
 10
87.6791
 20
642.722
 11
87.1289
 21
643.024
  0
LINE
  8
0
 10
87.1289
 20
643.024
 11
86.5451
 21
643.255
  0
LINE
  8
0
 10
86.5451
 20
643.255
 11
85.9369
 21
643.411
  0
LINE
  8
0
 10
85.9369
 20
643.411
 11
85.3139
 21
643.49
  0
LINE
  8
0
 10
85.3139
 20
643.49
 11
-85.3139
 21
643.49
  0
LINE
  8
0
 10
-85.3139
 20
643.49
 11
-85.9369
 21
643.411
  0
LINE
  8
0
 10
-85.9369
 20
643.411
 11
-86.5451
 21
643.255
  0
LINE
  8
0
 10
-86.5451
 20
643.255
 11
-87
 21
643.075
  0
LINE
  8
0
 10
-87
 20
643.075
 11
-87
 21
643.49
  0
LINE
  8
0
 10
-87
 20
643.49
 11
-90
 21
643.49
  0
LINE
  8
0
 10
-90
 20
643.49
 11
-90
 21
508.51
  0
LINE
  8
0
 10
-90
 20
508.51
 11
-87
 21
508.51
  0
LINE
  8
0
 10
-87
 20
508.51
 11
-87
 21
508.925
  0
LINE
  8
0
 10
-84.7432
 20
510.135
 11
-85.2256
 21
510.196
  0
LINE
  8
0
 10
-85.2256
 20
510.196
 11
-85.6967
 21
510.317
  0
LINE
  8
0
 10
-85.6967
 20
510.317
 11
-86.1489
 21
510.496
  0
LINE
  8
0
 10
-86.1489
 20
510.496
 11
-86.5751
 21
510.73
  0
LINE
  8
0
 10
-86.5751
 20
510.73
 11
-86.9685
 21
511.016
  0
LINE
  8
0
 10
-86.9685
 20
511.016
 11
-87.323
 21
511.349
  0
LINE
  8
0
 10
-87.323
 20
511.349
 11
-87.633
 21
511.724
  0
LINE
  8
0
 10
-87.633
 20
511.724
 11
-87.8936
 21
512.134
  0
LINE
  8
0
 10
-87.8936
 20
512.134
 11
-88.1007
 21
512.574
  0
LINE
  8
0
 10
-88.1007
 20
512.574
 11
-88.251
 21
513.037
  0
LINE
  8
0
 10
-88.251
 20
513.037
 11
-88.3421
 21
513.515
  0
LINE
  8
0
 10
-88.3421
 20
513.515
 11
-88.3726
 21
514
  0
LINE
  8
0
 10
-88.3726
 20
514
 11
-88.3726
 21
638
  0
LINE
  8
0
 10
-88.3726
 20
638
 11
-88.3421
 21
638.485
  0
LINE
  8
0
 10
-88.3421
 20
638.485
 11
-88.251
 21
638.963
  0
LINE
  8
0
 10
-88.251
 20
638.963
 11
-88.1007
 21
639.426
  0
LINE
  8
0
 10
-88.1007
 20
639.426
 11
-87.8936
 21
639.866
  0
LINE
  8
0
 10
-87.8936
 20
639.866
 11
-87.633
 21
640.276
  0
LINE
  8
0
 10
-87.633
 20
640.276
 11
-87.323
 21
640.651
  0
LINE
  8
0
 10
-87.323
 20
640.651
 11
-86.9685
 21
640.984
  0
LINE
  8
0
 10
-86.9685
 20
640.984
 11
-86.5751
 21
641.27
  0
LINE
  8
0
 10
-86.5751
 20
641.27
 11
-86.1489
 21
641.504
  0
LINE
  8
0
 10
-86.1489
 20
641.504
 11
-85.6967
 21
641.683
  0
LINE
  8
0
 10
-85.6967
 20
641.683
 11
-85.2256
 21
641.804
  0
LINE
  8
0
 10
-85.2256
 20
641.804
 11
-84.7432
 21
641.865
  0
LINE
  8
0
 10
-84.7432
 20
641.865
 11
84.7432
 21
641.865
  0
LINE
  8
0
 10
84.7432
 20
641.865
 11
85.2256
 21
641.804
  0
LINE
  8
0
 10
85.2256
 20
641.804
 11
85.6967
 21
641.683
  0
LINE
  8
0
 10
85.6967
 20
641.683
 11
86.1489
 21
641.504
  0
LINE
  8
0
 10
86.1489
 20
641.504
 11
86.5751
 21
641.27
  0
LINE
  8
0
 10
86.5751
 20
641.27
 11
86.9685
 21
640.984
  0
LINE
  8
0
 10
86.9685
 20
640.984
 11
87.323
 21
640.651
  0
LINE
  8
0
 10
87.323
 20
640.651
 11
87.633
 21
640.276
  0
LINE
  8
0
 10
87.633
 20
640.276
 11
87.8936
 21
639.866
  0
LINE
  8
0
 10
87.8936
 20
639.866
 11
88.1007
 21
639.426
  0
LINE
  8
0
 10
88.1007
 20
639.426
 11
88.251
 21
638.963
  0
LINE
  8
0
 10
88.251
 20
638.963
 11
88.3421
 21
638.485
  0
LINE
  8
0
 10
88.3421
 20
638.485
 11
88.3726
 21
638
  0
LINE
  8
0
 10
88.3726
 20
638
 11
88.3726
 21
514
  0
LINE
  8
0
 10
88.3726
 20
514
 11
88.3421
 21
513.515
  0
LINE
  8
0
 10
88.3421
 20
513.515
 11
88.251
 21
513.037
  0
LINE
  8
0
 10
88.251
 20
513.037
 11
88.1007
 21
512.574
  0
LINE
  8
0
 10
88.1007
 20
512.574
 11
87.8936
 21
512.134
  0
LINE
  8
0
 10
87.8936
 20
512.134
 11
87.633
 21
511.724
  0
LINE
  8
0
 10
87.633
 20
511.724
 11
87.323
 21
511.349
  0
LINE
  8
0
 10
87.323
 20
511.349
 11
86.9685
 21
511.016
  0
LINE
  8
0
 10
86.9685
 20
511.016
 11
86.5751
 21
510.73
  0
LINE
  8
0
 10
86.5751
 20
510.73
 11
86.1489
 21
510.496
  0
LINE
  8
0
 10
86.1489
 20
510.496
 11
85.6967
 21
510.317
  0
LINE
  8
0
 10
85.6967
 20
510.317
 11
85.2256
 21
510.196
  0
LINE
  8
0
 10
85.2256
 20
510.196
 11
84.7432
 21
510.135
  0
LINE
  8
0
 10
84.7432
 20
510.135
 11
-84.7432
 21
510.135
  0
LINE
  8
0
 10
85.9369
 20
364.589
 11
86.5451
 21
364.745
  0
LINE
  8
0
 10
86.5451
 20
364.745
 11
87.1289
 21
364.976
  0
LINE
  8
0
 10
87.1289
 20
364.976
 11
87.6791
 21
365.278
  0
LINE
  8
0
 10
87.6791
 20
365.278
 11
88.1871
 21
365.647
  0
LINE
  8
0
 10
88.1871
 20
365.647
 11
88.6448
 21
366.077
  0
LINE
  8
0
 10
88.6448
 20
366.077
 11
89.0451
 21
366.561
  0
LINE
  8
0
 10
89.0451
 20
366.561
 11
89.3815
 21
367.091
  0
LINE
  8
0
 10
89.3815
 20
367.091
 11
89.6489
 21
367.659
  0
LINE
  8
0
 10
89.6489
 20
367.659
 11
89.8429
 21
368.257
  0
LINE
  8
0
 10
89.8429
 20
368.257
 11
89.9606
 21
368.873
  0
LINE
  8
0
 10
89.9606
 20
368.873
 11
90
 21
369.5
  0
LINE
  8
0
 10
90
 20
369.5
 11
90
 21
494.5
  0
LINE
  8
0
 10
90
 20
494.5
 11
89.9606
 21
495.127
  0
LINE
  8
0
 10
89.9606
 20
495.127
 11
89.8429
 21
495.743
  0
LINE
  8
0
 10
89.8429
 20
495.743
 11
89.6489
 21
496.341
  0
LINE
  8
0
 10
89.6489
 20
496.341
 11
89.3815
 21
496.909
  0
LINE
  8
0
 10
89.3815
 20
496.909
 11
89.0451
 21
497.439
  0
LINE
  8
0
 10
89.0451
 20
497.439
 11
88.6448
 21
497.923
  0
LINE
  8
0
 10
88.6448
 20
497.923
 11
88.1871
 21
498.353
  0
LINE
  8
0
 10
88.1871
 20
498.353
 11
87.6791
 21
498.722
  0
LINE
  8
0
 10
87.6791
 20
498.722
 11
87.1289
 21
499.024
  0
LINE
  8
0
 10
87.1289
 20
499.024
 11
86.5451
 21
499.255
  0
LINE
  8
0
 10
86.5451
 20
499.255
 11
85.9369
 21
499.411
  0
LINE
  8
0
 10
85.9369
 20
499.411
 11
85.3139
 21
499.49
  0
LINE
  8
0
 10
85.3139
 20
499.49
 11
-85.3139
 21
499.49
  0
LINE
  8
0
 10
-85.3139
 20
499.49
 11
-85.9369
 21
499.411
  0
LINE
  8
0
 10
-85.9369
 20
499.411
 11
-86.5451
 21
499.255
  0
LINE
  8
0
 10
-86.5451
 20
499.255
 11
-87
 21
499.075
  0
LINE
  8
0
 10
-87
 20
499.075
 11
-87
 21
499.115
  0
LINE
  8
0
 10
-87
 20
499.115
 11
-90
 21
499.115
  0
LINE
  8
0
 10
-90
 20
499.115
 11
-90
 21
364.885
  0
LINE
  8
0
 10
-90
 20
364.885
 11
-87
 21
364.885
  0
LINE
  8
0
 10
-87
 20
364.885
 11
-87
 21
364.925
  0
LINE
  8
0
 10
-87
 20
364.925
 11
-86.5451
 21
364.745
  0
LINE
  8
0
 10
-86.5451
 20
364.745
 11
-85.9369
 21
364.589
  0
LINE
  8
0
 10
-85.9369
 20
364.589
 11
-85.3139
 21
364.51
  0
LINE
  8
0
 10
-85.3139
 20
364.51
 11
85.3139
 21
364.51
  0
LINE
  8
0
 10
85.3139
 20
364.51
 11
85.9369
 21
364.589
  0
LINE
  8
0
 10
82.3493
 20
489.605
 11
82.0503
 21
489.643
  0
LINE
  8
0
 10
82.0503
 20
489.643
 11
81.7584
 21
489.717
  0
LINE
  8
0
 10
81.7584
 20
489.717
 11
81.4781
 21
489.828
  0
LINE
  8
0
 10
81.4781
 20
489.828
 11
81.214
 21
489.974
  0
LINE
  8
0
 10
81.214
 20
489.974
 11
80.9702
 21
490.151
  0
LINE
  8
0
 10
80.9702
 20
490.151
 11
80.7505
 21
490.357
  0
LINE
  8
0
 10
80.7505
 20
490.357
 11
80.5583
 21
490.589
  0
LINE
  8
0
 10
80.5583
 20
490.589
 11
80.3969
 21
490.844
  0
LINE
  8
0
 10
80.3969
 20
490.844
 11
80.2685
 21
491.117
  0
LINE
  8
0
 10
80.2685
 20
491.117
 11
80.1754
 21
491.403
  0
LINE
  8
0
 10
80.1754
 20
491.403
 11
80.1189
 21
491.699
  0
LINE
  8
0
 10
80.1189
 20
491.699
 11
80.1
 21
492
  0
LINE
  8
0
 10
80.1
 20
492
 11
80.1189
 21
492.301
  0
LINE
  8
0
 10
80.1189
 20
492.301
 11
80.1754
 21
492.597
  0
LINE
  8
0
 10
80.1754
 20
492.597
 11
80.2685
 21
492.883
  0
LINE
  8
0
 10
80.2685
 20
492.883
 11
80.3969
 21
493.156
  0
LINE
  8
0
 10
80.3969
 20
493.156
 11
80.5583
 21
493.411
  0
LINE
  8
0
 10
80.5583
 20
493.411
 11
80.7505
 21
493.643
  0
LINE
  8
0
 10
80.7505
 20
493.643
 11
80.9702
 21
493.849
  0
LINE
  8
0
 10
80.9702
 20
493.849
 11
81.214
 21
494.026
  0
LINE
  8
0
 10
81.214
 20
494.026
 11
81.4781
 21
494.172
  0
LINE
  8
0
 10
81.4781
 20
494.172
 11
81.7584
 21
494.283
  0
LINE
  8
0
 10
81.7584
 20
494.283
 11
82.0503
 21
494.357
  0
LINE
  8
0
 10
82.0503
 20
494.357
 11
82.3493
 21
494.395
  0
LINE
  8
0
 10
82.3493
 20
494.395
 11
82.6507
 21
494.395
  0
LINE
  8
0
 10
82.6507
 20
494.395
 11
82.9497
 21
494.357
  0
LINE
  8
0
 10
82.9497
 20
494.357
 11
83.2416
 21
494.283
  0
LINE
  8
0
 10
83.2416
 20
494.283
 11
83.5219
 21
494.172
  0
LINE
  8
0
 10
83.5219
 20
494.172
 11
83.786
 21
494.026
  0
LINE
  8
0
 10
83.786
 20
494.026
 11
84.0298
 21
493.849
  0
LINE
  8
0
 10
84.0298
 20
493.849
 11
84.2495
 21
493.643
  0
LINE
  8
0
 10
84.2495
 20
493.643
 11
84.4416
 21
493.411
  0
LINE
  8
0
 10
84.4416
 20
493.411
 11
84.6031
 21
493.156
  0
LINE
  8
0
 10
84.6031
 20
493.156
 11
84.7315
 21
492.883
  0
LINE
  8
0
 10
84.7315
 20
492.883
 11
84.8246
 21
492.597
  0
LINE
  8
0
 10
84.8246
 20
492.597
 11
84.8811
 21
492.301
  0
LINE
  8
0
 10
84.8811
 20
492.301
 11
84.9
 21
492
  0
LINE
  8
0
 10
84.9
 20
492
 11
84.8811
 21
491.699
  0
LINE
  8
0
 10
84.8811
 20
491.699
 11
84.8246
 21
491.403
  0
LINE
  8
0
 10
84.8246
 20
491.403
 11
84.7315
 21
491.117
  0
LINE
  8
0
 10
84.7315
 20
491.117
 11
84.6031
 21
490.844
  0
LINE
  8
0
 10
84.6031
 20
490.844
 11
84.4416
 21
490.589
  0
LINE
  8
0
 10
84.4416
 20
490.589
 11
84.2495
 21
490.357
  0
LINE
  8
0
 10
84.2495
 20
490.357
 11
84.0298
 21
490.151
  0
LINE
  8
0
 10
84.0298
 20
490.151
 11
83.786
 21
489.974
  0
LINE
  8
0
 10
83.786
 20
489.974
 11
83.5219
 21
489.828
  0
LINE
  8
0
 10
83.5219
 20
489.828
 11
83.2416
 21
489.717
  0
LINE
  8
0
 10
83.2416
 20
489.717
 11
82.9497
 21
489.643
  0
LINE
  8
0
 10
82.9497
 20
489.643
 11
82.6507
 21
489.605
  0
LINE
  8
0
 10
82.6507
 20
489.605
 11
82.3493
 21
489.605
  0
LINE
  8
0
 10
-82.6507
 20
489.605
 11
-82.9497
 21
489.643
  0
LINE
  8
0
 10
-82.9497
 20
489.643
 11
-83.2416
 21
489.717
  0
LINE
  8
0
 10
-83.2416
 20
489.717
 11
-83.5219
 21
489.828
  0
LINE
  8
0
 10
-83.5219
 20
489.828
 11
-83.786
 21
489.974
  0
LINE
  8
0
 10
-83.786
 20
489.974
 11
-84.0298
 21
490.151
  0
LINE
  8
0
 10
-84.0298
 20
490.151
 11
-84.2495
 21
490.357
  0
LINE
  8
0
 10
-84.2495
 20
490.357
 11
-84.4416
 21
490.589
  0
LINE
  8
0
 10
-84.4416
 20
490.589
 11
-84.6031
 21
490.844
  0
LINE
  8
0
 10
-84.6031
 20
490.844
 11
-84.7315
 21
491.117
  0
LINE
  8
0
 10
-84.7315
 20
491.117
 11
-84.8246
 21
491.403
  0
LINE
  8
0
 10
-84.8246
 20
491.403
 11
-84.8811
 21
491.699
  0
LINE
  8
0
 10
-84.8811
 20
491.699
 11
-84.9
 21
492
  0
LINE
  8
0
 10
-84.9
 20
492
 11
-84.8811
 21
492.301
  0
LINE
  8
0
 10
-84.8811
 20
492.301
 11
-84.8246
 21
492.597
  0
LINE
  8
0
 10
-84.8246
 20
492.597
 11
-84.7315
 21
492.883
  0
LINE
  8
0
 10
-84.7315
 20
492.883
 11
-84.6031
 21
493.156
  0
LINE
  8
0
 10
-84.6031
 20
493.156
 11
-84.4416
 21
493.411
  0
LINE
  8
0
 10
-84.4416
 20
493.411
 11
-84.2495
 21
493.643
  0
LINE
  8
0
 10
-84.2495
 20
493.643
 11
-84.0298
 21
493.849
  0
LINE
  8
0
 10
-84.0298
 20
493.849
 11
-83.786
 21
494.026
  0
LINE
  8
0
 10
-83.786
 20
494.026
 11
-83.5219
 21
494.172
  0
LINE
  8
0
 10
-83.5219
 20
494.172
 11
-83.2416
 21
494.283
  0
LINE
  8
0
 10
-83.2416
 20
494.283
 11
-82.9497
 21
494.357
  0
LINE
  8
0
 10
-82.9497
 20
494.357
 11
-82.6507
 21
494.395
  0
LINE
  8
0
 10
-82.6507
 20
494.395
 11
-82.3493
 21
494.395
  0
LINE
  8
0
 10
-82.3493
 20
494.395
 11
-82.0503
 21
494.357
  0
LINE
  8
0
 10
-82.0503
 20
494.357
 11
-81.7584
 21
494.283
  0
LINE
  8
0
 10
-81.7584
 20
494.283
 11
-81.4781
 21
494.172
  0
LINE
  8
0
 10
-81.4781
 20
494.172
 11
-81.214
 21
494.026
  0
LINE
  8
0
 10
-81.214
 20
494.026
 11
-80.9702
 21
493.849
  0
LINE
  8
0
 10
-80.9702
 20
493.849
 11
-80.7505
 21
493.643
  0
LINE
  8
0
 10
-80.7505
 20
493.643
 11
-80.5583
 21
493.411
  0
LINE
  8
0
 10
-80.5583
 20
493.411
 11
-80.3969
 21
493.156
  0
LINE
  8
0
 10
-80.3969
 20
493.156
 11
-80.2685
 21
492.883
  0
LINE
  8
0
 10
-80.2685
 20
492.883
 11
-80.1754
 21
492.597
  0
LINE
  8
0
 10
-80.1754
 20
492.597
 11
-80.1189
 21
492.301
  0
LINE
  8
0
 10
-80.1189
 20
492.301
 11
-80.1
 21
492
  0
LINE
  8
0
 10
-80.1
 20
492
 11
-80.1189
 21
491.699
  0
LINE
  8
0
 10
-80.1189
 20
491.699
 11
-80.1754
 21
491.403
  0
LINE
  8
0
 10
-80.1754
 20
491.403
 11
-80.2685
 21
491.117
  0
LINE
  8
0
 10
-80.2685
 20
491.117
 11
-80.3969
 21
490.844
  0
LINE
  8
0
 10
-80.3969
 20
490.844
 11
-80.5583
 21
490.589
  0
LINE
  8
0
 10
-80.5583
 20
490.589
 11
-80.7505
 21
490.357
  0
LINE
  8
0
 10
-80.7505
 20
490.357
 11
-80.9702
 21
490.151
  0
LINE
  8
0
 10
-80.9702
 20
490.151
 11
-81.214
 21
489.974
  0
LINE
  8
0
 10
-81.214
 20
489.974
 11
-81.4781
 21
489.828
  0
LINE
  8
0
 10
-81.4781
 20
489.828
 11
-81.7584
 21
489.717
  0
LINE
  8
0
 10
-81.7584
 20
489.717
 11
-82.0503
 21
489.643
  0
LINE
  8
0
 10
-82.0503
 20
489.643
 11
-82.3493
 21
489.605
  0
LINE
  8
0
 10
-82.3493
 20
489.605
 11
-82.6507
 21
489.605
  0
LINE
  8
0
 10
82.3493
 20
369.605
 11
82.0503
 21
369.643
  0
LINE
  8
0
 10
82.0503
 20
369.643
 11
81.7584
 21
369.717
  0
LINE
  8
0
 10
81.7584
 20
369.717
 11
81.4781
 21
369.828
  0
LINE
  8
0
 10
81.4781
 20
369.828
 11
81.214
 21
369.974
  0
LINE
  8
0
 10
81.214
 20
369.974
 11
80.9702
 21
370.151
  0
LINE
  8
0
 10
80.9702
 20
370.151
 11
80.7505
 21
370.357
  0
LINE
  8
0
 10
80.7505
 20
370.357
 11
80.5583
 21
370.589
  0
LINE
  8
0
 10
80.5583
 20
370.589
 11
80.3969
 21
370.844
  0
LINE
  8
0
 10
80.3969
 20
370.844
 11
80.2685
 21
371.117
  0
LINE
  8
0
 10
80.2685
 20
371.117
 11
80.1754
 21
371.403
  0
LINE
  8
0
 10
80.1754
 20
371.403
 11
80.1189
 21
371.699
  0
LINE
  8
0
 10
80.1189
 20
371.699
 11
80.1
 21
372
  0
LINE
  8
0
 10
80.1
 20
372
 11
80.1189
 21
372.301
  0
LINE
  8
0
 10
80.1189
 20
372.301
 11
80.1754
 21
372.597
  0
LINE
  8
0
 10
80.1754
 20
372.597
 11
80.2685
 21
372.883
  0
LINE
  8
0
 10
80.2685
 20
372.883
 11
80.3969
 21
373.156
  0
LINE
  8
0
 10
80.3969
 20
373.156
 11
80.5583
 21
373.411
  0
LINE
  8
0
 10
80.5583
 20
373.411
 11
80.7505
 21
373.643
  0
LINE
  8
0
 10
80.7505
 20
373.643
 11
80.9702
 21
373.849
  0
LINE
  8
0
 10
80.9702
 20
373.849
 11
81.214
 21
374.026
  0
LINE
  8
0
 10
81.214
 20
374.026
 11
81.4781
 21
374.172
  0
LINE
  8
0
 10
81.4781
 20
374.172
 11
81.7584
 21
374.283
  0
LINE
  8
0
 10
81.7584
 20
374.283
 11
82.0503
 21
374.357
  0
LINE
  8
0
 10
82.0503
 20
374.357
 11
82.3493
 21
374.395
  0
LINE
  8
0
 10
82.3493
 20
374.395
 11
82.6507
 21
374.395
  0
LINE
  8
0
 10
82.6507
 20
374.395
 11
82.9497
 21
374.357
  0
LINE
  8
0
 10
82.9497
 20
374.357
 11
83.2416
 21
374.283
  0
LINE
  8
0
 10
83.2416
 20
374.283
 11
83.5219
 21
374.172
  0
LINE
  8
0
 10
83.5219
 20
374.172
 11
83.786
 21
374.026
  0
LINE
  8
0
 10
83.786
 20
374.026
 11
84.0298
 21
373.849
  0
LINE
  8
0
 10
84.0298
 20
373.849
 11
84.2495
 21
373.643
  0
LINE
  8
0
 10
84.2495
 20
373.643
 11
84.4416
 21
373.411
  0
LINE
  8
0
 10
84.4416
 20
373.411
 11
84.6031
 21
373.156
  0
LINE
  8
0
 10
84.6031
 20
373.156
 11
84.7315
 21
372.883
  0
LINE
  8
0
 10
84.7315
 20
372.883
 11
84.8246
 21
372.597
  0
LINE
  8
0
 10
84.8246
 20
372.597
 11
84.8811
 21
372.301
  0
LINE
  8
0
 10
84.8811
 20
372.301
 11
84.9
 21
372
  0
LINE
  8
0
 10
84.9
 20
372
 11
84.8811
 21
371.699
  0
LINE
  8
0
 10
84.8811
 20
371.699
 11
84.8246
 21
371.403
  0
LINE
  8
0
 10
84.8246
 20
371.403
 11
84.7315
 21
371.117
  0
LINE
  8
0
 10
84.7315
 20
371.117
 11
84.6031
 21
370.844
  0
LINE
  8
0
 10
84.6031
 20
370.844
 11
84.4416
 21
370.589
  0
LINE
  8
0
 10
84.4416
 20
370.589
 11
84.2495
 21
370.357
  0
LINE
  8
0
 10
84.2495
 20
370.357
 11
84.0298
 21
370.151
  0
LINE
  8
0
 10
84.0298
 20
370.151
 11
83.786
 21
369.974
  0
LINE
  8
0
 10
83.786
 20
369.974
 11
83.5219
 21
369.828
  0
LINE
  8
0
 10
83.5219
 20
369.828
 11
83.2416
 21
369.717
  0
LINE
  8
0
 10
83.2416
 20
369.717
 11
82.9497
 21
369.643
  0
LINE
  8
0
 10
82.9497
 20
369.643
 11
82.6507
 21
369.605
  0
LINE
  8
0
 10
82.6507
 20
369.605
 11
82.3493
 21
369.605
  0
LINE
  8
0
 10
-82.6507
 20
369.605
 11
-82.9497
 21
369.643
  0
LINE
  8
0
 10
-82.9497
 20
369.643
 11
-83.2416
 21
369.717
  0
LINE
  8
0
 10
-83.2416
 20
369.717
 11
-83.5219
 21
369.828
  0
LINE
  8
0
 10
-83.5219
 20
369.828
 11
-83.786
 21
369.974
  0
LINE
  8
0
 10
-83.786
 20
369.974
 11
-84.0298
 21
370.151
  0
LINE
  8
0
 10
-84.0298
 20
370.151
 11
-84.2495
 21
370.357
  0
LINE
  8
0
 10
-84.2495
 20
370.357
 11
-84.4416
 21
370.589
  0
LINE
  8
0
 10
-84.4416
 20
370.589
 11
-84.6031
 21
370.844
  0
LINE
  8
0
 10
-84.6031
 20
370.844
 11
-84.7315
 21
371.117
  0
LINE
  8
0
 10
-84.7315
 20
371.117
 11
-84.8246
 21
371.403
  0
LINE
  8
0
 10
-84.8246
 20
371.403
 11
-84.8811
 21
371.699
  0
LINE
  8
0
 10
-84.8811
 20
371.699
 11
-84.9
 21
372
  0
LINE
  8
0
 10
-84.9
 20
372
 11
-84.8811
 21
372.301
  0
LINE
  8
0
 10
-84.8811
 20
372.301
 11
-84.8246
 21
372.597
  0
LINE
  8
0
 10
-84.8246
 20
372.597
 11
-84.7315
 21
372.883
  0
LINE
  8
0
 10
-84.7315
 20
372.883
 11
-84.6031
 21
373.156
  0
LINE
  8
0
 10
-84.6031
 20
373.156
 11
-84.4416
 21
373.411
  0
LINE
  8
0
 10
-84.4416
 20
373.411
 11
-84.2495
 21
373.643
  0
LINE
  8
0
 10
-84.2495
 20
373.643
 11
-84.0298
 21
373.849
  0
LINE
  8
0
 10
-84.0298
 20
373.849
 11
-83.786
 21
374.026
  0
LINE
  8
0
 10
-83.786
 20
374.026
 11
-83.5219
 21
374.172
  0
LINE
  8
0
 10
-83.5219
 20
374.172
 11
-83.2416
 21
374.283
  0
LINE
  8
0
 10
-83.2416
 20
374.283
 11
-82.9497
 21
374.357
  0
LINE
  8
0
 10
-82.9497
 20
374.357
 11
-82.6507
 21
374.395
  0
LINE
  8
0
 10
-82.6507
 20
374.395
 11
-82.3493
 21
374.395
  0
LINE
  8
0
 10
-82.3493
 20
374.395
 11
-82.0503
 21
374.357
  0
LINE
  8
0
 10
-82.0503
 20
374.357
 11
-81.7584
 21
374.283
  0
LINE
  8
0
 10
-81.7584
 20
374.283
 11
-81.4781
 21
374.172
  0
LINE
  8
0
 10
-81.4781
 20
374.172
 11
-81.214
 21
374.026
  0
LINE
  8
0
 10
-81.214
 20
374.026
 11
-80.9702
 21
373.849
  0
LINE
  8
0
 10
-80.9702
 20
373.849
 11
-80.7505
 21
373.643
  0
LINE
  8
0
 10
-80.7505
 20
373.643
 11
-80.5583
 21
373.411
  0
LINE
  8
0
 10
-80.5583
 20
373.411
 11
-80.3969
 21
373.156
  0
LINE
  8
0
 10
-80.3969
 20
373.156
 11
-80.2685
 21
372.883
  0
LINE
  8
0
 10
-80.2685
 20
372.883
 11
-80.1754
 21
372.597
  0
LINE
  8
0
 10
-80.1754
 20
372.597
 11
-80.1189
 21
372.301
  0
LINE
  8
0
 10
-80.1189
 20
372.301
 11
-80.1
 21
372
  0
LINE
  8
0
 10
-80.1
 20
372
 11
-80.1189
 21
371.699
  0
LINE
  8
0
 10
-80.1189
 20
371.699
 11
-80.1754
 21
371.403
  0
LINE
  8
0
 10
-80.1754
 20
371.403
 11
-80.2685
 21
371.117
  0
LINE
  8
0
 10
-80.2685
 20
371.117
 11
-80.3969
 21
370.844
  0
LINE
  8
0
 10
-80.3969
 20
370.844
 11
-80.5583
 21
370.589
  0
LINE
  8
0
 10
-80.5583
 20
370.589
 11
-80.7505
 21
370.357
  0
LINE
  8
0
 10
-80.7505
 20
370.357
 11
-80.9702
 21
370.151
  0
LINE
  8
0
 10
-80.9702
 20
370.151
 11
-81.214
 21
369.974
  0
LINE
  8
0
 10
-81.214
 20
369.974
 11
-81.4781
 21
369.828
  0
LINE
  8
0
 10
-81.4781
 20
369.828
 11
-81.7584
 21
369.717
  0
LINE
  8
0
 10
-81.7584
 20
369.717
 11
-82.0503
 21
369.643
  0
LINE
  8
0
 10
-82.0503
 20
369.643
 11
-82.3493
 21
369.605
  0
LINE
  8
0
 10
-82.3493
 20
369.605
 11
-82.6507
 21
369.605
  0
LINE
  8
0
 10
85.9369
 20
220.589
 11
86.5451
 21
220.745
  0
LINE
  8
0
 10
86.5451
 20
220.745
 11
87.1289
 21
220.976
  0
LINE
  8
0
 10
87.1289
 20
220.976
 11
87.6791
 21
221.278
  0
LINE
  8
0
 10
87.6791
 20
221.278
 11
88.1871
 21
221.647
  0
LINE
  8
0
 10
88.1871
 20
221.647
 11
88.6448
 21
222.077
  0
LINE
  8
0
 10
88.6448
 20
222.077
 11
89.0451
 21
222.561
  0
LINE
  8
0
 10
89.0451
 20
222.561
 11
89.3815
 21
223.091
  0
LINE
  8
0
 10
89.3815
 20
223.091
 11
89.6489
 21
223.659
  0
LINE
  8
0
 10
89.6489
 20
223.659
 11
89.8429
 21
224.257
  0
LINE
  8
0
 10
89.8429
 20
224.257
 11
89.9606
 21
224.873
  0
LINE
  8
0
 10
89.9606
 20
224.873
 11
90
 21
225.5
  0
LINE
  8
0
 10
90
 20
225.5
 11
90
 21
350.5
  0
LINE
  8
0
 10
90
 20
350.5
 11
89.9606
 21
351.127
  0
LINE
  8
0
 10
89.9606
 20
351.127
 11
89.8429
 21
351.743
  0
LINE
  8
0
 10
89.8429
 20
351.743
 11
89.6489
 21
352.341
  0
LINE
  8
0
 10
89.6489
 20
352.341
 11
89.3815
 21
352.909
  0
LINE
  8
0
 10
89.3815
 20
352.909
 11
89.0451
 21
353.439
  0
LINE
  8
0
 10
89.0451
 20
353.439
 11
88.6448
 21
353.923
  0
LINE
  8
0
 10
88.6448
 20
353.923
 11
88.1871
 21
354.353
  0
LINE
  8
0
 10
88.1871
 20
354.353
 11
87.6791
 21
354.722
  0
LINE
  8
0
 10
87.6791
 20
354.722
 11
87.1289
 21
355.024
  0
LINE
  8
0
 10
87.1289
 20
355.024
 11
86.5451
 21
355.255
  0
LINE
  8
0
 10
86.5451
 20
355.255
 11
85.9369
 21
355.411
  0
LINE
  8
0
 10
85.9369
 20
355.411
 11
85.3139
 21
355.49
  0
LINE
  8
0
 10
85.3139
 20
355.49
 11
-85.3139
 21
355.49
  0
LINE
  8
0
 10
-85.3139
 20
355.49
 11
-85.9369
 21
355.411
  0
LINE
  8
0
 10
-85.9369
 20
355.411
 11
-86.5451
 21
355.255
  0
LINE
  8
0
 10
-86.5451
 20
355.255
 11
-87.1289
 21
355.024
  0
LINE
  8
0
 10
-87.1289
 20
355.024
 11
-87.6791
 21
354.722
  0
LINE
  8
0
 10
-87.6791
 20
354.722
 11
-88.1871
 21
354.353
  0
LINE
  8
0
 10
-88.1871
 20
354.353
 11
-88.6448
 21
353.923
  0
LINE
  8
0
 10
-88.6448
 20
353.923
 11
-89.0451
 21
353.439
  0
LINE
  8
0
 10
-89.0451
 20
353.439
 11
-89.3815
 21
352.909
  0
LINE
  8
0
 10
-89.3815
 20
352.909
 11
-89.6489
 21
352.341
  0
LINE
  8
0
 10
-89.6489
 20
352.341
 11
-89.8429
 21
351.743
  0
LINE
  8
0
 10
-89.8429
 20
351.743
 11
-89.9
 21
351.444
  0
LINE
  8
0
 10
-89.9
 20
351.444
 11
-90
 21
351.444
  0
LINE
  8
0
 10
-90
 20
351.444
 11
-90
 21
224.556
  0
LINE
  8
0
 10
-90
 20
224.556
 11
-89.9
 21
224.556
  0
LINE
  8
0
 10
-89.9
 20
224.556
 11
-89.8429
 21
224.257
  0
LINE
  8
0
 10
-89.8429
 20
224.257
 11
-89.6489
 21
223.659
  0
LINE
  8
0
 10
-89.6489
 20
223.659
 11
-89.3815
 21
223.091
  0
LINE
  8
0
 10
-89.3815
 20
223.091
 11
-89.0451
 21
222.561
  0
LINE
  8
0
 10
-89.0451
 20
222.561
 11
-88.6448
 21
222.077
  0
LINE
  8
0
 10
-88.6448
 20
222.077
 11
-88.1871
 21
221.647
  0
LINE
  8
0
 10
-88.1871
 20
221.647
 11
-87.6791
 21
221.278
  0
LINE
  8
0
 10
-87.6791
 20
221.278
 11
-87.1289
 21
220.976
  0
LINE
  8
0
 10
-87.1289
 20
220.976
 11
-86.5451
 21
220.745
  0
LINE
  8
0
 10
-86.5451
 20
220.745
 11
-85.9369
 21
220.589
  0
LINE
  8
0
 10
-85.9369
 20
220.589
 11
-85.3139
 21
220.51
  0
LINE
  8
0
 10
-85.3139
 20
220.51
 11
85.3139
 21
220.51
  0
LINE
  8
0
 10
85.3139
 20
220.51
 11
85.9369
 21
220.589
  0
LINE
  8
0
 10
82.387
 20
346.204
 11
82.1627
 21
346.232
  0
LINE
  8
0
 10
82.1627
 20
346.232
 11
81.9438
 21
346.288
  0
LINE
  8
0
 10
81.9438
 20
346.288
 11
81.7336
 21
346.371
  0
LINE
  8
0
 10
81.7336
 20
346.371
 11
81.5355
 21
346.48
  0
LINE
  8
0
 10
81.5355
 20
346.48
 11
81.3526
 21
346.613
  0
LINE
  8
0
 10
81.3526
 20
346.613
 11
81.1879
 21
346.768
  0
LINE
  8
0
 10
81.1879
 20
346.768
 11
81.0438
 21
346.942
  0
LINE
  8
0
 10
81.0438
 20
346.942
 11
80.9226
 21
347.133
  0
LINE
  8
0
 10
80.9226
 20
347.133
 11
80.8264
 21
347.337
  0
LINE
  8
0
 10
80.8264
 20
347.337
 11
80.7565
 21
347.552
  0
LINE
  8
0
 10
80.7565
 20
347.552
 11
80.7142
 21
347.774
  0
LINE
  8
0
 10
80.7142
 20
347.774
 11
80.7
 21
348
  0
LINE
  8
0
 10
80.7
 20
348
 11
80.7142
 21
348.226
  0
LINE
  8
0
 10
80.7142
 20
348.226
 11
80.7565
 21
348.448
  0
LINE
  8
0
 10
80.7565
 20
348.448
 11
80.8264
 21
348.663
  0
LINE
  8
0
 10
80.8264
 20
348.663
 11
80.9226
 21
348.867
  0
LINE
  8
0
 10
80.9226
 20
348.867
 11
81.0438
 21
349.058
  0
LINE
  8
0
 10
81.0438
 20
349.058
 11
81.1879
 21
349.232
  0
LINE
  8
0
 10
81.1879
 20
349.232
 11
81.3526
 21
349.387
  0
LINE
  8
0
 10
81.3526
 20
349.387
 11
81.5355
 21
349.52
  0
LINE
  8
0
 10
81.5355
 20
349.52
 11
81.7336
 21
349.629
  0
LINE
  8
0
 10
81.7336
 20
349.629
 11
81.9438
 21
349.712
  0
LINE
  8
0
 10
81.9438
 20
349.712
 11
82.1627
 21
349.768
  0
LINE
  8
0
 10
82.1627
 20
349.768
 11
82.387
 21
349.796
  0
LINE
  8
0
 10
82.387
 20
349.796
 11
82.613
 21
349.796
  0
LINE
  8
0
 10
82.613
 20
349.796
 11
82.8373
 21
349.768
  0
LINE
  8
0
 10
82.8373
 20
349.768
 11
83.0562
 21
349.712
  0
LINE
  8
0
 10
83.0562
 20
349.712
 11
83.2664
 21
349.629
  0
LINE
  8
0
 10
83.2664
 20
349.629
 11
83.4645
 21
349.52
  0
LINE
  8
0
 10
83.4645
 20
349.52
 11
83.6474
 21
349.387
  0
LINE
  8
0
 10
83.6474
 20
349.387
 11
83.8121
 21
349.232
  0
LINE
  8
0
 10
83.8121
 20
349.232
 11
83.9562
 21
349.058
  0
LINE
  8
0
 10
83.9562
 20
349.058
 11
84.0773
 21
348.867
  0
LINE
  8
0
 10
84.0773
 20
348.867
 11
84.1736
 21
348.663
  0
LINE
  8
0
 10
84.1736
 20
348.663
 11
84.2434
 21
348.448
  0
LINE
  8
0
 10
84.2434
 20
348.448
 11
84.2858
 21
348.226
  0
LINE
  8
0
 10
84.2858
 20
348.226
 11
84.3
 21
348
  0
LINE
  8
0
 10
84.3
 20
348
 11
84.2858
 21
347.774
  0
LINE
  8
0
 10
84.2858
 20
347.774
 11
84.2434
 21
347.552
  0
LINE
  8
0
 10
84.2434
 20
347.552
 11
84.1736
 21
347.337
  0
LINE
  8
0
 10
84.1736
 20
347.337
 11
84.0773
 21
347.133
  0
LINE
  8
0
 10
84.0773
 20
347.133
 11
83.9562
 21
346.942
  0
LINE
  8
0
 10
83.9562
 20
346.942
 11
83.8121
 21
346.768
  0
LINE
  8
0
 10
83.8121
 20
346.768
 11
83.6474
 21
346.613
  0
LINE
  8
0
 10
83.6474
 20
346.613
 11
83.4645
 21
346.48
  0
LINE
  8
0
 10
83.4645
 20
346.48
 11
83.2664
 21
346.371
  0
LINE
  8
0
 10
83.2664
 20
346.371
 11
83.0562
 21
346.288
  0
LINE
  8
0
 10
83.0562
 20
346.288
 11
82.8373
 21
346.232
  0
LINE
  8
0
 10
82.8373
 20
346.232
 11
82.613
 21
346.204
  0
LINE
  8
0
 10
82.613
 20
346.204
 11
82.387
 21
346.204
  0
LINE
  8
0
 10
-82.613
 20
346.204
 11
-82.8373
 21
346.232
  0
LINE
  8
0
 10
-82.8373
 20
346.232
 11
-83.0562
 21
346.288
  0
LINE
  8
0
 10
-83.0562
 20
346.288
 11
-83.2664
 21
346.371
  0
LINE
  8
0
 10
-83.2664
 20
346.371
 11
-83.4645
 21
346.48
  0
LINE
  8
0
 10
-83.4645
 20
346.48
 11
-83.6474
 21
346.613
  0
LINE
  8
0
 10
-83.6474
 20
346.613
 11
-83.8121
 21
346.768
  0
LINE
  8
0
 10
-83.8121
 20
346.768
 11
-83.9562
 21
346.942
  0
LINE
  8
0
 10
-83.9562
 20
346.942
 11
-84.0773
 21
347.133
  0
LINE
  8
0
 10
-84.0773
 20
347.133
 11
-84.1736
 21
347.337
  0
LINE
  8
0
 10
-84.1736
 20
347.337
 11
-84.2434
 21
347.552
  0
LINE
  8
0
 10
-84.2434
 20
347.552
 11
-84.2858
 21
347.774
  0
LINE
  8
0
 10
-84.2858
 20
347.774
 11
-84.3
 21
348
  0
LINE
  8
0
 10
-84.3
 20
348
 11
-84.2858
 21
348.226
  0
LINE
  8
0
 10
-84.2858
 20
348.226
 11
-84.2434
 21
348.448
  0
LINE
  8
0
 10
-84.2434
 20
348.448
 11
-84.1736
 21
348.663
  0
LINE
  8
0
 10
-84.1736
 20
348.663
 11
-84.0773
 21
348.867
  0
LINE
  8
0
 10
-84.0773
 20
348.867
 11
-83.9562
 21
349.058
  0
LINE
  8
0
 10
-83.9562
 20
349.058
 11
-83.8121
 21
349.232
  0
LINE
  8
0
 10
-83.8121
 20
349.232
 11
-83.6474
 21
349.387
  0
LINE
  8
0
 10
-83.6474
 20
349.387
 11
-83.4645
 21
349.52
  0
LINE
  8
0
 10
-83.4645
 20
349.52
 11
-83.2664
 21
349.629
  0
LINE
  8
0
 10
-83.2664
 20
349.629
 11
-83.0562
 21
349.712
  0
LINE
  8
0
 10
-83.0562
 20
349.712
 11
-82.8373
 21
349.768
  0
LINE
  8
0
 10
-82.8373
 20
349.768
 11
-82.613
 21
349.796
  0
LINE
  8
0
 10
-82.613
 20
349.796
 11
-82.387
 21
349.796
  0
LINE
  8
0
 10
-82.387
 20
349.796
 11
-82.1627
 21
349.768
  0
LINE
  8
0
 10
-82.1627
 20
349.768
 11
-81.9438
 21
349.712
  0
LINE
  8
0
 10
-81.9438
 20
349.712
 11
-81.7336
 21
349.629
  0
LINE
  8
0
 10
-81.7336
 20
349.629
 11
-81.5355
 21
349.52
  0
LINE
  8
0
 10
-81.5355
 20
349.52
 11
-81.3526
 21
349.387
  0
LINE
  8
0
 10
-81.3526
 20
349.387
 11
-81.1879
 21
349.232
  0
LINE
  8
0
 10
-81.1879
 20
349.232
 11
-81.0438
 21
349.058
  0
LINE
  8
0
 10
-81.0438
 20
349.058
 11
-80.9226
 21
348.867
  0
LINE
  8
0
 10
-80.9226
 20
348.867
 11
-80.8264
 21
348.663
  0
LINE
  8
0
 10
-80.8264
 20
348.663
 11
-80.7565
 21
348.448
  0
LINE
  8
0
 10
-80.7565
 20
348.448
 11
-80.7142
 21
348.226
  0
LINE
  8
0
 10
-80.7142
 20
348.226
 11
-80.7
 21
348
  0
LINE
  8
0
 10
-80.7
 20
348
 11
-80.7142
 21
347.774
  0
LINE
  8
0
 10
-80.7142
 20
347.774
 11
-80.7565
 21
347.552
  0
LINE
  8
0
 10
-80.7565
 20
347.552
 11
-80.8264
 21
347.337
  0
LINE
  8
0
 10
-80.8264
 20
347.337
 11
-80.9226
 21
347.133
  0
LINE
  8
0
 10
-80.9226
 20
347.133
 11
-81.0438
 21
346.942
  0
LINE
  8
0
 10
-81.0438
 20
346.942
 11
-81.1879
 21
346.768
  0
LINE
  8
0
 10
-81.1879
 20
346.768
 11
-81.3526
 21
346.613
  0
LINE
  8
0
 10
-81.3526
 20
346.613
 11
-81.5355
 21
346.48
  0
LINE
  8
0
 10
-81.5355
 20
346.48
 11
-81.7336
 21
346.371
  0
LINE
  8
0
 10
-81.7336
 20
346.371
 11
-81.9438
 21
346.288
  0
LINE
  8
0
 10
-81.9438
 20
346.288
 11
-82.1627
 21
346.232
  0
LINE
  8
0
 10
-82.1627
 20
346.232
 11
-82.387
 21
346.204
  0
LINE
  8
0
 10
-82.387
 20
346.204
 11
-82.613
 21
346.204
  0
LINE
  8
0
 10
82.387
 20
226.204
 11
82.1627
 21
226.232
  0
LINE
  8
0
 10
82.1627
 20
226.232
 11
81.9438
 21
226.288
  0
LINE
  8
0
 10
81.9438
 20
226.288
 11
81.7336
 21
226.371
  0
LINE
  8
0
 10
81.7336
 20
226.371
 11
81.5355
 21
226.48
  0
LINE
  8
0
 10
81.5355
 20
226.48
 11
81.3526
 21
226.613
  0
LINE
  8
0
 10
81.3526
 20
226.613
 11
81.1879
 21
226.768
  0
LINE
  8
0
 10
81.1879
 20
226.768
 11
81.0438
 21
226.942
  0
LINE
  8
0
 10
81.0438
 20
226.942
 11
80.9226
 21
227.133
  0
LINE
  8
0
 10
80.9226
 20
227.133
 11
80.8264
 21
227.337
  0
LINE
  8
0
 10
80.8264
 20
227.337
 11
80.7565
 21
227.552
  0
LINE
  8
0
 10
80.7565
 20
227.552
 11
80.7142
 21
227.774
  0
LINE
  8
0
 10
80.7142
 20
227.774
 11
80.7
 21
228
  0
LINE
  8
0
 10
80.7
 20
228
 11
80.7142
 21
228.226
  0
LINE
  8
0
 10
80.7142
 20
228.226
 11
80.7565
 21
228.448
  0
LINE
  8
0
 10
80.7565
 20
228.448
 11
80.8264
 21
228.663
  0
LINE
  8
0
 10
80.8264
 20
228.663
 11
80.9226
 21
228.867
  0
LINE
  8
0
 10
80.9226
 20
228.867
 11
81.0438
 21
229.058
  0
LINE
  8
0
 10
81.0438
 20
229.058
 11
81.1879
 21
229.232
  0
LINE
  8
0
 10
81.1879
 20
229.232
 11
81.3526
 21
229.387
  0
LINE
  8
0
 10
81.3526
 20
229.387
 11
81.5355
 21
229.52
  0
LINE
  8
0
 10
81.5355
 20
229.52
 11
81.7336
 21
229.629
  0
LINE
  8
0
 10
81.7336
 20
229.629
 11
81.9438
 21
229.712
  0
LINE
  8
0
 10
81.9438
 20
229.712
 11
82.1627
 21
229.768
  0
LINE
  8
0
 10
82.1627
 20
229.768
 11
82.387
 21
229.796
  0
LINE
  8
0
 10
82.387
 20
229.796
 11
82.613
 21
229.796
  0
LINE
  8
0
 10
82.613
 20
229.796
 11
82.8373
 21
229.768
  0
LINE
  8
0
 10
82.8373
 20
229.768
 11
83.0562
 21
229.712
  0
LINE
  8
0
 10
83.0562
 20
229.712
 11
83.2664
 21
229.629
  0
LINE
  8
0
 10
83.2664
 20
229.629
 11
83.4645
 21
229.52
  0
LINE
  8
0
 10
83.4645
 20
229.52
 11
83.6474
 21
229.387
  0
LINE
  8
0
 10
83.6474
 20
229.387
 11
83.8121
 21
229.232
  0
LINE
  8
0
 10
83.8121
 20
229.232
 11
83.9562
 21
229.058
  0
LINE
  8
0
 10
83.9562
 20
229.058
 11
84.0773
 21
228.867
  0
LINE
  8
0
 10
84.0773
 20
228.867
 11
84.1736
 21
228.663
  0
LINE
  8
0
 10
84.1736
 20
228.663
 11
84.2434
 21
228.448
  0
LINE
  8
0
 10
84.2434
 20
228.448
 11
84.2858
 21
228.226
  0
LINE
  8
0
 10
84.2858
 20
228.226
 11
84.3
 21
228
  0
LINE
  8
0
 10
84.3
 20
228
 11
84.2858
 21
227.774
  0
LINE
  8
0
 10
84.2858
 20
227.774
 11
84.2434
 21
227.552
  0
LINE
  8
0
 10
84.2434
 20
227.552
 11
84.1736
 21
227.337
  0
LINE
  8
0
 10
84.1736
 20
227.337
 11
84.0773
 21
227.133
  0
LINE
  8
0
 10
84.0773
 20
227.133
 11
83.9562
 21
226.942
  0
LINE
  8
0
 10
83.9562
 20
226.942
 11
83.8121
 21
226.768
  0
LINE
  8
0
 10
83.8121
 20
226.768
 11
83.6474
 21
226.613
  0
LINE
  8
0
 10
83.6474
 20
226.613
 11
83.4645
 21
226.48
  0
LINE
  8
0
 10
83.4645
 20
226.48
 11
83.2664
 21
226.371
  0
LINE
  8
0
 10
83.2664
 20
226.371
 11
83.0562
 21
226.288
  0
LINE
  8
0
 10
83.0562
 20
226.288
 11
82.8373
 21
226.232
  0
LINE
  8
0
 10
82.8373
 20
226.232
 11
82.613
 21
226.204
  0
LINE
  8
0
 10
82.613
 20
226.204
 11
82.387
 21
226.204
  0
LINE
  8
0
 10
-82.613
 20
226.204
 11
-82.8373
 21
226.232
  0
LINE
  8
0
 10
-82.8373
 20
226.232
 11
-83.0562
 21
226.288
  0
LINE
  8
0
 10
-83.0562
 20
226.288
 11
-83.2664
 21
226.371
  0
LINE
  8
0
 10
-83.2664
 20
226.371
 11
-83.4645
 21
226.48
  0
LINE
  8
0
 10
-83.4645
 20
226.48
 11
-83.6474
 21
226.613
  0
LINE
  8
0
 10
-83.6474
 20
226.613
 11
-83.8121
 21
226.768
  0
LINE
  8
0
 10
-83.8121
 20
226.768
 11
-83.9562
 21
226.942
  0
LINE
  8
0
 10
-83.9562
 20
226.942
 11
-84.0773
 21
227.133
  0
LINE
  8
0
 10
-84.0773
 20
227.133
 11
-84.1736
 21
227.337
  0
LINE
  8
0
 10
-84.1736
 20
227.337
 11
-84.2434
 21
227.552
  0
LINE
  8
0
 10
-84.2434
 20
227.552
 11
-84.2858
 21
227.774
  0
LINE
  8
0
 10
-84.2858
 20
227.774
 11
-84.3
 21
228
  0
LINE
  8
0
 10
-84.3
 20
228
 11
-84.2858
 21
228.226
  0
LINE
  8
0
 10
-84.2858
 20
228.226
 11
-84.2434
 21
228.448
  0
LINE
  8
0
 10
-84.2434
 20
228.448
 11
-84.1736
 21
228.663
  0
LINE
  8
0
 10
-84.1736
 20
228.663
 11
-84.0773
 21
228.867
  0
LINE
  8
0
 10
-84.0773
 20
228.867
 11
-83.9562
 21
229.058
  0
LINE
  8
0
 10
-83.9562
 20
229.058
 11
-83.8121
 21
229.232
  0
LINE
  8
0
 10
-83.8121
 20
229.232
 11
-83.6474
 21
229.387
  0
LINE
  8
0
 10
-83.6474
 20
229.387
 11
-83.4645
 21
229.52
  0
LINE
  8
0
 10
-83.4645
 20
229.52
 11
-83.2664
 21
229.629
  0
LINE
  8
0
 10
-83.2664
 20
229.629
 11
-83.0562
 21
229.712
  0
LINE
  8
0
 10
-83.0562
 20
229.712
 11
-82.8373
 21
229.768
  0
LINE
  8
0
 10
-82.8373
 20
229.768
 11
-82.613
 21
229.796
  0
LINE
  8
0
 10
-82.613
 20
229.796
 11
-82.387
 21
229.796
  0
LINE
  8
0
 10
-82.387
 20
229.796
 11
-82.1627
 21
229.768
  0
LINE
  8
0
 10
-82.1627
 20
229.768
 11
-81.9438
 21
229.712
  0
LINE
  8
0
 10
-81.9438
 20
229.712
 11
-81.7336
 21
229.629
  0
LINE
  8
0
 10
-81.7336
 20
229.629
 11
-81.5355
 21
229.52
  0
LINE
  8
0
 10
-81.5355
 20
229.52
 11
-81.3526
 21
229.387
  0
LINE
  8
0
 10
-81.3526
 20
229.387
 11
-81.1879
 21
229.232
  0
LINE
  8
0
 10
-81.1879
 20
229.232
 11
-81.0438
 21
229.058
  0
LINE
  8
0
 10
-81.0438
 20
229.058
 11
-80.9226
 21
228.867
  0
LINE
  8
0
 10
-80.9226
 20
228.867
 11
-80.8264
 21
228.663
  0
LINE
  8
0
 10
-80.8264
 20
228.663
 11
-80.7565
 21
228.448
  0
LINE
  8
0
 10
-80.7565
 20
228.448
 11
-80.7142
 21
228.226
  0
LINE
  8
0
 10
-80.7142
 20
228.226
 11
-80.7
 21
228
  0
LINE
  8
0
 10
-80.7
 20
228
 11
-80.7142
 21
227.774
  0
LINE
  8
0
 10
-80.7142
 20
227.774
 11
-80.7565
 21
227.552
  0
LINE
  8
0
 10
-80.7565
 20
227.552
 11
-80.8264
 21
227.337
  0
LINE
  8
0
 10
-80.8264
 20
227.337
 11
-80.9226
 21
227.133
  0
LINE
  8
0
 10
-80.9226
 20
227.133
 11
-81.0438
 21
226.942
  0
LINE
  8
0
 10
-81.0438
 20
226.942
 11
-81.1879
 21
226.768
  0
LINE
  8
0
 10
-81.1879
 20
226.768
 11
-81.3526
 21
226.613
  0
LINE
  8
0
 10
-81.3526
 20
226.613
 11
-81.5355
 21
226.48
  0
LINE
  8
0
 10
-81.5355
 20
226.48
 11
-81.7336
 21
226.371
  0
LINE
  8
0
 10
-81.7336
 20
226.371
 11
-81.9438
 21
226.288
  0
LINE
  8
0
 10
-81.9438
 20
226.288
 11
-82.1627
 21
226.232
  0
LINE
  8
0
 10
-82.1627
 20
226.232
 11
-82.387
 21
226.204
  0
LINE
  8
0
 10
-82.387
 20
226.204
 11
-82.613
 21
226.204
  0
ENDSEC
  0
SECTION
  2
OBJECTS
  0
DICTIONARY
  0
ENDSEC
  0
EOF
