solid OpenSCAD_Model
  facet normal 0.998027 0.0627851 -2.34994e-18
    outer loop
      vertex 65 0 13
      vertex 64.4875 8.14666 0
      vertex 64.4875 8.14666 13
    endloop
  endfacet
  facet normal 0.998027 0.0627851 -2.34994e-18
    outer loop
      vertex 64.4875 8.14666 0
      vertex 65 0 13
      vertex 65 0 0
    endloop
  endfacet
  facet normal -0.998027 0.0627851 2.34994e-18
    outer loop
      vertex -65 0 0
      vertex -64.4875 8.14666 13
      vertex -64.4875 8.14666 0
    endloop
  endfacet
  facet normal -0.998027 0.0627851 2.34994e-18
    outer loop
      vertex -64.4875 8.14666 13
      vertex -65 0 0
      vertex -65 0 13
    endloop
  endfacet
  facet normal 0 1 -0
    outer loop
      vertex 4.08138 64.8717 0
      vertex -4.08138 64.8717 13
      vertex 4.08138 64.8717 13
    endloop
  endfacet
  facet normal 0 1 0
    outer loop
      vertex -4.08138 64.8717 13
      vertex 4.08138 64.8717 0
      vertex -4.08138 64.8717 0
    endloop
  endfacet
  facet normal 0 -1 0
    outer loop
      vertex -4.08138 -64.8717 0
      vertex 4.08138 -64.8717 13
      vertex -4.08138 -64.8717 13
    endloop
  endfacet
  facet normal 0 -1 -0
    outer loop
      vertex 4.08138 -64.8717 13
      vertex -4.08138 -64.8717 0
      vertex 4.08138 -64.8717 0
    endloop
  endfacet
  facet normal 0.684547 0.728968 -0
    outer loop
      vertex 47.383 44.4956 0
      vertex 41.4326 50.0834 13
      vertex 47.383 44.4956 13
    endloop
  endfacet
  facet normal 0.684547 0.728968 0
    outer loop
      vertex 41.4326 50.0834 13
      vertex 47.383 44.4956 0
      vertex 41.4326 50.0834 0
    endloop
  endfacet
  facet normal -0.684547 0.728968 0
    outer loop
      vertex -41.4326 50.0834 0
      vertex -47.383 44.4956 13
      vertex -41.4326 50.0834 13
    endloop
  endfacet
  facet normal -0.684547 0.728968 0
    outer loop
      vertex -47.383 44.4956 13
      vertex -41.4326 50.0834 0
      vertex -47.383 44.4956 0
    endloop
  endfacet
  facet normal -0.368121 0.929778 0
    outer loop
      vertex -20.0861 61.8187 0
      vertex -27.6757 58.8138 13
      vertex -20.0861 61.8187 13
    endloop
  endfacet
  facet normal -0.368121 0.929778 0
    outer loop
      vertex -27.6757 58.8138 13
      vertex -20.0861 61.8187 0
      vertex -27.6757 58.8138 0
    endloop
  endfacet
  facet normal 0.904824 0.425785 -1.5481e-17
    outer loop
      vertex 60.4355 23.9281 13
      vertex 56.9599 31.314 0
      vertex 56.9599 31.314 13
    endloop
  endfacet
  facet normal 0.904824 0.425785 -1.5481e-17
    outer loop
      vertex 56.9599 31.314 0
      vertex 60.4355 23.9281 13
      vertex 60.4355 23.9281 0
    endloop
  endfacet
  facet normal 0.844328 0.535827 -1.40262e-17
    outer loop
      vertex 56.9599 31.314 13
      vertex 52.5861 38.206 0
      vertex 52.5861 38.206 13
    endloop
  endfacet
  facet normal 0.844328 0.535827 -1.40262e-17
    outer loop
      vertex 52.5861 38.206 0
      vertex 56.9599 31.314 13
      vertex 56.9599 31.314 0
    endloop
  endfacet
  facet normal 0.368121 0.929778 -0
    outer loop
      vertex 27.6757 58.8138 0
      vertex 20.0861 61.8187 13
      vertex 27.6757 58.8138 13
    endloop
  endfacet
  facet normal 0.368121 0.929778 0
    outer loop
      vertex 20.0861 61.8187 13
      vertex 27.6757 58.8138 0
      vertex 20.0861 61.8187 0
    endloop
  endfacet
  facet normal 0.248691 0.968583 -0
    outer loop
      vertex 20.0861 61.8187 0
      vertex 12.1798 63.8487 13
      vertex 20.0861 61.8187 13
    endloop
  endfacet
  facet normal 0.248691 0.968583 0
    outer loop
      vertex 12.1798 63.8487 13
      vertex 20.0861 61.8187 0
      vertex 12.1798 63.8487 0
    endloop
  endfacet
  facet normal 0.481764 0.876301 -0
    outer loop
      vertex 34.8287 54.8813 0
      vertex 27.6757 58.8138 13
      vertex 34.8287 54.8813 13
    endloop
  endfacet
  facet normal 0.481764 0.876301 0
    outer loop
      vertex 27.6757 58.8138 13
      vertex 34.8287 54.8813 0
      vertex 27.6757 58.8138 0
    endloop
  endfacet
  facet normal -0.844328 0.535827 1.40262e-17
    outer loop
      vertex -56.9599 31.314 0
      vertex -52.5861 38.206 13
      vertex -52.5861 38.206 0
    endloop
  endfacet
  facet normal -0.844328 0.535827 1.40262e-17
    outer loop
      vertex -52.5861 38.206 13
      vertex -56.9599 31.314 0
      vertex -56.9599 31.314 13
    endloop
  endfacet
  facet normal -0.77052 0.637416 -2.98176e-17
    outer loop
      vertex -52.5861 38.206 0
      vertex -47.383 44.4956 13
      vertex -47.383 44.4956 0
    endloop
  endfacet
  facet normal -0.77052 0.637416 -2.98176e-17
    outer loop
      vertex -47.383 44.4956 13
      vertex -52.5861 38.206 0
      vertex -52.5861 38.206 13
    endloop
  endfacet
  facet normal 0 0 1
    outer loop
      vertex 52.5 0 13
      vertex 65 0 13
      vertex 64.4875 8.14666 13
    endloop
  endfacet
  facet normal 0 0 1
    outer loop
      vertex 52.086 6.57999 13
      vertex 64.4875 8.14666 13
      vertex 62.9579 16.1648 13
    endloop
  endfacet
  facet normal 0 0 1
    outer loop
      vertex 65 0 13
      vertex 52.5 0 13
      vertex 64.4875 -8.14666 13
    endloop
  endfacet
  facet normal 0 0 1
    outer loop
      vertex 50.8506 13.0562 13
      vertex 62.9579 16.1648 13
      vertex 60.4355 23.9281 13
    endloop
  endfacet
  facet normal -0 0 1
    outer loop
      vertex 52.086 -6.57999 13
      vertex 64.4875 -8.14666 13
      vertex 52.5 0 13
    endloop
  endfacet
  facet normal 0 0 1
    outer loop
      vertex 48.8133 19.3265 13
      vertex 60.4355 23.9281 13
      vertex 56.9599 31.314 13
    endloop
  endfacet
  facet normal 0 0 1
    outer loop
      vertex 64.4875 -8.14666 13
      vertex 52.086 -6.57999 13
      vertex 62.9579 -16.1648 13
    endloop
  endfacet
  facet normal 0 0 1
    outer loop
      vertex 46.0061 25.2921 13
      vertex 56.9599 31.314 13
      vertex 52.5861 38.206 13
    endloop
  endfacet
  facet normal -0 0 1
    outer loop
      vertex 50.8506 -13.0562 13
      vertex 62.9579 -16.1648 13
      vertex 52.086 -6.57999 13
    endloop
  endfacet
  facet normal 0 0 1
    outer loop
      vertex 62.9579 -16.1648 13
      vertex 50.8506 -13.0562 13
      vertex 60.4355 -23.9281 13
    endloop
  endfacet
  facet normal 0 0 1
    outer loop
      vertex 64.4875 8.14666 13
      vertex 52.086 6.57999 13
      vertex 52.5 0 13
    endloop
  endfacet
  facet normal 0 0 1
    outer loop
      vertex 62.9579 16.1648 13
      vertex 50.8506 13.0562 13
      vertex 52.086 6.57999 13
    endloop
  endfacet
  facet normal 0 0 1
    outer loop
      vertex 60.4355 23.9281 13
      vertex 48.8133 19.3265 13
      vertex 50.8506 13.0562 13
    endloop
  endfacet
  facet normal 0 0 1
    outer loop
      vertex 42.4734 30.8587 13
      vertex 52.5861 38.206 13
      vertex 47.383 44.4956 13
    endloop
  endfacet
  facet normal 0 0 1
    outer loop
      vertex 56.9599 31.314 13
      vertex 46.0061 25.2921 13
      vertex 48.8133 19.3265 13
    endloop
  endfacet
  facet normal 0 0 1
    outer loop
      vertex 52.5861 38.206 13
      vertex 42.4734 30.8587 13
      vertex 46.0061 25.2921 13
    endloop
  endfacet
  facet normal 0 0 1
    outer loop
      vertex 38.2709 35.9387 13
      vertex 47.383 44.4956 13
      vertex 41.4326 50.0834 13
    endloop
  endfacet
  facet normal 0 0 1
    outer loop
      vertex 47.383 44.4956 13
      vertex 38.2709 35.9387 13
      vertex 42.4734 30.8587 13
    endloop
  endfacet
  facet normal 0 0 1
    outer loop
      vertex 33.4648 40.4519 13
      vertex 41.4326 50.0834 13
      vertex 34.8287 54.8813 13
    endloop
  endfacet
  facet normal 0 0 1
    outer loop
      vertex 41.4326 50.0834 13
      vertex 33.4648 40.4519 13
      vertex 38.2709 35.9387 13
    endloop
  endfacet
  facet normal 0 0 1
    outer loop
      vertex 34.8287 54.8813 13
      vertex 28.1309 44.3272 13
      vertex 33.4648 40.4519 13
    endloop
  endfacet
  facet normal 0 0 1
    outer loop
      vertex 27.6757 58.8138 13
      vertex 28.1309 44.3272 13
      vertex 34.8287 54.8813 13
    endloop
  endfacet
  facet normal 0 0 1
    outer loop
      vertex 27.6757 58.8138 13
      vertex 22.3534 47.5034 13
      vertex 28.1309 44.3272 13
    endloop
  endfacet
  facet normal 0 0 1
    outer loop
      vertex 20.0861 61.8187 13
      vertex 22.3534 47.5034 13
      vertex 27.6757 58.8138 13
    endloop
  endfacet
  facet normal 0 0 1
    outer loop
      vertex 20.0861 61.8187 13
      vertex 16.2234 49.9305 13
      vertex 22.3534 47.5034 13
    endloop
  endfacet
  facet normal 0 0 1
    outer loop
      vertex 12.1798 63.8487 13
      vertex 16.2234 49.9305 13
      vertex 20.0861 61.8187 13
    endloop
  endfacet
  facet normal 0 0 1
    outer loop
      vertex 12.1798 63.8487 13
      vertex 9.83752 51.5701 13
      vertex 16.2234 49.9305 13
    endloop
  endfacet
  facet normal 0 0 1
    outer loop
      vertex 4.08138 64.8717 13
      vertex 9.83752 51.5701 13
      vertex 12.1798 63.8487 13
    endloop
  endfacet
  facet normal 0 0 1
    outer loop
      vertex 4.08138 64.8717 13
      vertex 3.2965 52.3964 13
      vertex 9.83752 51.5701 13
    endloop
  endfacet
  facet normal 0 0 1
    outer loop
      vertex 4.08138 64.8717 13
      vertex -3.2965 52.3964 13
      vertex 3.2965 52.3964 13
    endloop
  endfacet
  facet normal -0 0 1
    outer loop
      vertex -4.08138 64.8717 13
      vertex -3.2965 52.3964 13
      vertex 4.08138 64.8717 13
    endloop
  endfacet
  facet normal 0 0 1
    outer loop
      vertex -4.08138 64.8717 13
      vertex -9.83752 51.5701 13
      vertex -3.2965 52.3964 13
    endloop
  endfacet
  facet normal -0 0 1
    outer loop
      vertex -12.1798 63.8487 13
      vertex -9.83752 51.5701 13
      vertex -4.08138 64.8717 13
    endloop
  endfacet
  facet normal 0 0 1
    outer loop
      vertex -12.1798 63.8487 13
      vertex -16.2234 49.9305 13
      vertex -9.83752 51.5701 13
    endloop
  endfacet
  facet normal -0 0 1
    outer loop
      vertex -20.0861 61.8187 13
      vertex -16.2234 49.9305 13
      vertex -12.1798 63.8487 13
    endloop
  endfacet
  facet normal 0 0 1
    outer loop
      vertex -20.0861 61.8187 13
      vertex -22.3534 47.5034 13
      vertex -16.2234 49.9305 13
    endloop
  endfacet
  facet normal -0 0 1
    outer loop
      vertex -27.6757 58.8138 13
      vertex -22.3534 47.5034 13
      vertex -20.0861 61.8187 13
    endloop
  endfacet
  facet normal 0 0 1
    outer loop
      vertex -27.6757 58.8138 13
      vertex -28.1309 44.3272 13
      vertex -22.3534 47.5034 13
    endloop
  endfacet
  facet normal -0 0 1
    outer loop
      vertex -34.8287 54.8813 13
      vertex -28.1309 44.3272 13
      vertex -27.6757 58.8138 13
    endloop
  endfacet
  facet normal 0 0 1
    outer loop
      vertex -28.1309 44.3272 13
      vertex -34.8287 54.8813 13
      vertex -33.4648 40.4519 13
    endloop
  endfacet
  facet normal -0 0 1
    outer loop
      vertex -41.4326 50.0834 13
      vertex -33.4648 40.4519 13
      vertex -34.8287 54.8813 13
    endloop
  endfacet
  facet normal 0 0 1
    outer loop
      vertex -33.4648 40.4519 13
      vertex -41.4326 50.0834 13
      vertex -38.2709 35.9387 13
    endloop
  endfacet
  facet normal -0 0 1
    outer loop
      vertex -47.383 44.4956 13
      vertex -38.2709 35.9387 13
      vertex -41.4326 50.0834 13
    endloop
  endfacet
  facet normal 0 0 1
    outer loop
      vertex -38.2709 35.9387 13
      vertex -47.383 44.4956 13
      vertex -42.4734 30.8587 13
    endloop
  endfacet
  facet normal -0 0 1
    outer loop
      vertex -52.5861 38.206 13
      vertex -42.4734 30.8587 13
      vertex -47.383 44.4956 13
    endloop
  endfacet
  facet normal 0 0 1
    outer loop
      vertex -42.4734 30.8587 13
      vertex -52.5861 38.206 13
      vertex -46.0061 25.2921 13
    endloop
  endfacet
  facet normal -0 0 1
    outer loop
      vertex -56.9599 31.314 13
      vertex -46.0061 25.2921 13
      vertex -52.5861 38.206 13
    endloop
  endfacet
  facet normal 0 0 1
    outer loop
      vertex -46.0061 25.2921 13
      vertex -56.9599 31.314 13
      vertex -48.8133 19.3265 13
    endloop
  endfacet
  facet normal 0 0 1
    outer loop
      vertex -48.8133 19.3265 13
      vertex -60.4355 23.9281 13
      vertex -50.8506 13.0562 13
    endloop
  endfacet
  facet normal -0 0 1
    outer loop
      vertex -60.4355 23.9281 13
      vertex -48.8133 19.3265 13
      vertex -56.9599 31.314 13
    endloop
  endfacet
  facet normal -0 0 1
    outer loop
      vertex 48.8133 -19.3265 13
      vertex 60.4355 -23.9281 13
      vertex 50.8506 -13.0562 13
    endloop
  endfacet
  facet normal 0 0 1
    outer loop
      vertex 60.4355 -23.9281 13
      vertex 48.8133 -19.3265 13
      vertex 56.9599 -31.314 13
    endloop
  endfacet
  facet normal -0 0 1
    outer loop
      vertex 46.0061 -25.2921 13
      vertex 56.9599 -31.314 13
      vertex 48.8133 -19.3265 13
    endloop
  endfacet
  facet normal 0 0 1
    outer loop
      vertex 56.9599 -31.314 13
      vertex 46.0061 -25.2921 13
      vertex 52.5861 -38.206 13
    endloop
  endfacet
  facet normal -0 0 1
    outer loop
      vertex 42.4734 -30.8587 13
      vertex 52.5861 -38.206 13
      vertex 46.0061 -25.2921 13
    endloop
  endfacet
  facet normal 0 0 1
    outer loop
      vertex 52.5861 -38.206 13
      vertex 42.4734 -30.8587 13
      vertex 47.383 -44.4956 13
    endloop
  endfacet
  facet normal -0 0 1
    outer loop
      vertex 38.2709 -35.9387 13
      vertex 47.383 -44.4956 13
      vertex 42.4734 -30.8587 13
    endloop
  endfacet
  facet normal 0 0 1
    outer loop
      vertex 47.383 -44.4956 13
      vertex 38.2709 -35.9387 13
      vertex 41.4326 -50.0834 13
    endloop
  endfacet
  facet normal -0 0 1
    outer loop
      vertex 33.4648 -40.4519 13
      vertex 41.4326 -50.0834 13
      vertex 38.2709 -35.9387 13
    endloop
  endfacet
  facet normal 0 0 1
    outer loop
      vertex 41.4326 -50.0834 13
      vertex 33.4648 -40.4519 13
      vertex 34.8287 -54.8813 13
    endloop
  endfacet
  facet normal -0 0 1
    outer loop
      vertex 28.1309 -44.3272 13
      vertex 34.8287 -54.8813 13
      vertex 33.4648 -40.4519 13
    endloop
  endfacet
  facet normal 0 0 1
    outer loop
      vertex 28.1309 -44.3272 13
      vertex 27.6757 -58.8138 13
      vertex 34.8287 -54.8813 13
    endloop
  endfacet
  facet normal -0 0 1
    outer loop
      vertex 22.3534 -47.5034 13
      vertex 27.6757 -58.8138 13
      vertex 28.1309 -44.3272 13
    endloop
  endfacet
  facet normal 0 0 1
    outer loop
      vertex 22.3534 -47.5034 13
      vertex 20.0861 -61.8187 13
      vertex 27.6757 -58.8138 13
    endloop
  endfacet
  facet normal -0 0 1
    outer loop
      vertex 16.2234 -49.9305 13
      vertex 20.0861 -61.8187 13
      vertex 22.3534 -47.5034 13
    endloop
  endfacet
  facet normal 0 0 1
    outer loop
      vertex 16.2234 -49.9305 13
      vertex 12.1798 -63.8487 13
      vertex 20.0861 -61.8187 13
    endloop
  endfacet
  facet normal -0 0 1
    outer loop
      vertex 9.83752 -51.5701 13
      vertex 12.1798 -63.8487 13
      vertex 16.2234 -49.9305 13
    endloop
  endfacet
  facet normal 0 0 1
    outer loop
      vertex 9.83752 -51.5701 13
      vertex 4.08138 -64.8717 13
      vertex 12.1798 -63.8487 13
    endloop
  endfacet
  facet normal -0 0 1
    outer loop
      vertex 3.2965 -52.3964 13
      vertex 4.08138 -64.8717 13
      vertex 9.83752 -51.5701 13
    endloop
  endfacet
  facet normal -0 0 1
    outer loop
      vertex -3.2965 -52.3964 13
      vertex 4.08138 -64.8717 13
      vertex 3.2965 -52.3964 13
    endloop
  endfacet
  facet normal 0 0 1
    outer loop
      vertex -3.2965 -52.3964 13
      vertex -4.08138 -64.8717 13
      vertex 4.08138 -64.8717 13
    endloop
  endfacet
  facet normal 0 0 1
    outer loop
      vertex -9.83752 -51.5701 13
      vertex -4.08138 -64.8717 13
      vertex -3.2965 -52.3964 13
    endloop
  endfacet
  facet normal 0 0 1
    outer loop
      vertex -9.83752 -51.5701 13
      vertex -12.1798 -63.8487 13
      vertex -4.08138 -64.8717 13
    endloop
  endfacet
  facet normal 0 0 1
    outer loop
      vertex -16.2234 -49.9305 13
      vertex -12.1798 -63.8487 13
      vertex -9.83752 -51.5701 13
    endloop
  endfacet
  facet normal 0 0 1
    outer loop
      vertex -16.2234 -49.9305 13
      vertex -20.0861 -61.8187 13
      vertex -12.1798 -63.8487 13
    endloop
  endfacet
  facet normal 0 0 1
    outer loop
      vertex -22.3534 -47.5034 13
      vertex -20.0861 -61.8187 13
      vertex -16.2234 -49.9305 13
    endloop
  endfacet
  facet normal 0 0 1
    outer loop
      vertex -22.3534 -47.5034 13
      vertex -27.6757 -58.8138 13
      vertex -20.0861 -61.8187 13
    endloop
  endfacet
  facet normal 0 0 1
    outer loop
      vertex -28.1309 -44.3272 13
      vertex -27.6757 -58.8138 13
      vertex -22.3534 -47.5034 13
    endloop
  endfacet
  facet normal 0 0 1
    outer loop
      vertex -34.8287 -54.8813 13
      vertex -28.1309 -44.3272 13
      vertex -33.4648 -40.4519 13
    endloop
  endfacet
  facet normal 0 0 1
    outer loop
      vertex -28.1309 -44.3272 13
      vertex -34.8287 -54.8813 13
      vertex -27.6757 -58.8138 13
    endloop
  endfacet
  facet normal 0 0 1
    outer loop
      vertex -41.4326 -50.0834 13
      vertex -33.4648 -40.4519 13
      vertex -38.2709 -35.9387 13
    endloop
  endfacet
  facet normal 0 0 1
    outer loop
      vertex -33.4648 -40.4519 13
      vertex -41.4326 -50.0834 13
      vertex -34.8287 -54.8813 13
    endloop
  endfacet
  facet normal 0 0 1
    outer loop
      vertex -47.383 -44.4956 13
      vertex -38.2709 -35.9387 13
      vertex -42.4734 -30.8587 13
    endloop
  endfacet
  facet normal 0 0 1
    outer loop
      vertex -52.5861 -38.206 13
      vertex -42.4734 -30.8587 13
      vertex -46.0061 -25.2921 13
    endloop
  endfacet
  facet normal 0 0 1
    outer loop
      vertex -38.2709 -35.9387 13
      vertex -47.383 -44.4956 13
      vertex -41.4326 -50.0834 13
    endloop
  endfacet
  facet normal 0 0 1
    outer loop
      vertex -56.9599 -31.314 13
      vertex -46.0061 -25.2921 13
      vertex -48.8133 -19.3265 13
    endloop
  endfacet
  facet normal 0 0 1
    outer loop
      vertex -60.4355 -23.9281 13
      vertex -48.8133 -19.3265 13
      vertex -50.8506 -13.0562 13
    endloop
  endfacet
  facet normal 0 0 1
    outer loop
      vertex -62.9579 -16.1648 13
      vertex -50.8506 -13.0562 13
      vertex -52.086 -6.57999 13
    endloop
  endfacet
  facet normal 0 0 1
    outer loop
      vertex -42.4734 -30.8587 13
      vertex -52.5861 -38.206 13
      vertex -47.383 -44.4956 13
    endloop
  endfacet
  facet normal 0 0 1
    outer loop
      vertex -64.4875 -8.14666 13
      vertex -52.086 -6.57999 13
      vertex -52.5 0 13
    endloop
  endfacet
  facet normal -0 0 1
    outer loop
      vertex -62.9579 16.1648 13
      vertex -50.8506 13.0562 13
      vertex -60.4355 23.9281 13
    endloop
  endfacet
  facet normal 0 0 1
    outer loop
      vertex -50.8506 13.0562 13
      vertex -62.9579 16.1648 13
      vertex -52.086 6.57999 13
    endloop
  endfacet
  facet normal 0 0 1
    outer loop
      vertex -46.0061 -25.2921 13
      vertex -56.9599 -31.314 13
      vertex -52.5861 -38.206 13
    endloop
  endfacet
  facet normal -0 0 1
    outer loop
      vertex -64.4875 8.14666 13
      vertex -52.086 6.57999 13
      vertex -62.9579 16.1648 13
    endloop
  endfacet
  facet normal 0 0 1
    outer loop
      vertex -48.8133 -19.3265 13
      vertex -60.4355 -23.9281 13
      vertex -56.9599 -31.314 13
    endloop
  endfacet
  facet normal 0 0 1
    outer loop
      vertex -52.086 6.57999 13
      vertex -64.4875 8.14666 13
      vertex -52.5 0 13
    endloop
  endfacet
  facet normal 0 0 1
    outer loop
      vertex -50.8506 -13.0562 13
      vertex -62.9579 -16.1648 13
      vertex -60.4355 -23.9281 13
    endloop
  endfacet
  facet normal 0 0 1
    outer loop
      vertex -65 0 13
      vertex -52.5 0 13
      vertex -64.4875 8.14666 13
    endloop
  endfacet
  facet normal 0 0 1
    outer loop
      vertex -52.086 -6.57999 13
      vertex -64.4875 -8.14666 13
      vertex -62.9579 -16.1648 13
    endloop
  endfacet
  facet normal 0 0 1
    outer loop
      vertex -52.5 0 13
      vertex -65 0 13
      vertex -64.4875 -8.14666 13
    endloop
  endfacet
  facet normal -0.587776 0.809024 0
    outer loop
      vertex -34.8287 54.8813 0
      vertex -41.4326 50.0834 13
      vertex -34.8287 54.8813 13
    endloop
  endfacet
  facet normal -0.587776 0.809024 0
    outer loop
      vertex -41.4326 50.0834 13
      vertex -34.8287 54.8813 0
      vertex -41.4326 50.0834 0
    endloop
  endfacet
  facet normal -0.125325 0.992116 0
    outer loop
      vertex -4.08138 64.8717 0
      vertex -12.1798 63.8487 13
      vertex -4.08138 64.8717 13
    endloop
  endfacet
  facet normal -0.125325 0.992116 0
    outer loop
      vertex -12.1798 63.8487 13
      vertex -4.08138 64.8717 0
      vertex -12.1798 63.8487 0
    endloop
  endfacet
  facet normal 0 0 -1
    outer loop
      vertex 52.5 0 0
      vertex 65 0 0
      vertex 64.4875 -8.14666 0
    endloop
  endfacet
  facet normal 0 0 -1
    outer loop
      vertex 52.086 -6.57999 0
      vertex 64.4875 -8.14666 0
      vertex 62.9579 -16.1648 0
    endloop
  endfacet
  facet normal 0 0 -1
    outer loop
      vertex 65 0 0
      vertex 52.5 0 0
      vertex 64.4875 8.14666 0
    endloop
  endfacet
  facet normal 0 0 -1
    outer loop
      vertex 50.8506 -13.0562 0
      vertex 62.9579 -16.1648 0
      vertex 60.4355 -23.9281 0
    endloop
  endfacet
  facet normal 0 0 -1
    outer loop
      vertex 52.086 6.57999 0
      vertex 64.4875 8.14666 0
      vertex 52.5 0 0
    endloop
  endfacet
  facet normal 0 0 -1
    outer loop
      vertex 48.8133 -19.3265 0
      vertex 60.4355 -23.9281 0
      vertex 56.9599 -31.314 0
    endloop
  endfacet
  facet normal -0 0 -1
    outer loop
      vertex 64.4875 8.14666 0
      vertex 52.086 6.57999 0
      vertex 62.9579 16.1648 0
    endloop
  endfacet
  facet normal 0 0 -1
    outer loop
      vertex 46.0061 -25.2921 0
      vertex 56.9599 -31.314 0
      vertex 52.5861 -38.206 0
    endloop
  endfacet
  facet normal 0 0 -1
    outer loop
      vertex 50.8506 13.0562 0
      vertex 62.9579 16.1648 0
      vertex 52.086 6.57999 0
    endloop
  endfacet
  facet normal -0 0 -1
    outer loop
      vertex 62.9579 16.1648 0
      vertex 50.8506 13.0562 0
      vertex 60.4355 23.9281 0
    endloop
  endfacet
  facet normal 0 0 -1
    outer loop
      vertex 64.4875 -8.14666 0
      vertex 52.086 -6.57999 0
      vertex 52.5 0 0
    endloop
  endfacet
  facet normal 0 0 -1
    outer loop
      vertex 62.9579 -16.1648 0
      vertex 50.8506 -13.0562 0
      vertex 52.086 -6.57999 0
    endloop
  endfacet
  facet normal 0 0 -1
    outer loop
      vertex 60.4355 -23.9281 0
      vertex 48.8133 -19.3265 0
      vertex 50.8506 -13.0562 0
    endloop
  endfacet
  facet normal 0 0 -1
    outer loop
      vertex 42.4734 -30.8587 0
      vertex 52.5861 -38.206 0
      vertex 47.383 -44.4956 0
    endloop
  endfacet
  facet normal 0 0 -1
    outer loop
      vertex 56.9599 -31.314 0
      vertex 46.0061 -25.2921 0
      vertex 48.8133 -19.3265 0
    endloop
  endfacet
  facet normal 0 0 -1
    outer loop
      vertex 52.5861 -38.206 0
      vertex 42.4734 -30.8587 0
      vertex 46.0061 -25.2921 0
    endloop
  endfacet
  facet normal 0 0 -1
    outer loop
      vertex 38.2709 -35.9387 0
      vertex 47.383 -44.4956 0
      vertex 41.4326 -50.0834 0
    endloop
  endfacet
  facet normal 0 0 -1
    outer loop
      vertex 47.383 -44.4956 0
      vertex 38.2709 -35.9387 0
      vertex 42.4734 -30.8587 0
    endloop
  endfacet
  facet normal 0 0 -1
    outer loop
      vertex 33.4648 -40.4519 0
      vertex 41.4326 -50.0834 0
      vertex 34.8287 -54.8813 0
    endloop
  endfacet
  facet normal 0 0 -1
    outer loop
      vertex 41.4326 -50.0834 0
      vertex 33.4648 -40.4519 0
      vertex 38.2709 -35.9387 0
    endloop
  endfacet
  facet normal 0 0 -1
    outer loop
      vertex 34.8287 -54.8813 0
      vertex 28.1309 -44.3272 0
      vertex 33.4648 -40.4519 0
    endloop
  endfacet
  facet normal 0 0 -1
    outer loop
      vertex 27.6757 -58.8138 0
      vertex 28.1309 -44.3272 0
      vertex 34.8287 -54.8813 0
    endloop
  endfacet
  facet normal 0 0 -1
    outer loop
      vertex 27.6757 -58.8138 0
      vertex 22.3534 -47.5034 0
      vertex 28.1309 -44.3272 0
    endloop
  endfacet
  facet normal 0 0 -1
    outer loop
      vertex 20.0861 -61.8187 0
      vertex 22.3534 -47.5034 0
      vertex 27.6757 -58.8138 0
    endloop
  endfacet
  facet normal 0 0 -1
    outer loop
      vertex 20.0861 -61.8187 0
      vertex 16.2234 -49.9305 0
      vertex 22.3534 -47.5034 0
    endloop
  endfacet
  facet normal 0 0 -1
    outer loop
      vertex 12.1798 -63.8487 0
      vertex 16.2234 -49.9305 0
      vertex 20.0861 -61.8187 0
    endloop
  endfacet
  facet normal 0 0 -1
    outer loop
      vertex 12.1798 -63.8487 0
      vertex 9.83752 -51.5701 0
      vertex 16.2234 -49.9305 0
    endloop
  endfacet
  facet normal 0 0 -1
    outer loop
      vertex 4.08138 -64.8717 0
      vertex 9.83752 -51.5701 0
      vertex 12.1798 -63.8487 0
    endloop
  endfacet
  facet normal 0 0 -1
    outer loop
      vertex 4.08138 -64.8717 0
      vertex 3.2965 -52.3964 0
      vertex 9.83752 -51.5701 0
    endloop
  endfacet
  facet normal 0 0 -1
    outer loop
      vertex 4.08138 -64.8717 0
      vertex -3.2965 -52.3964 0
      vertex 3.2965 -52.3964 0
    endloop
  endfacet
  facet normal 0 0 -1
    outer loop
      vertex -4.08138 -64.8717 0
      vertex -3.2965 -52.3964 0
      vertex 4.08138 -64.8717 0
    endloop
  endfacet
  facet normal 0 0 -1
    outer loop
      vertex -4.08138 -64.8717 0
      vertex -9.83752 -51.5701 0
      vertex -3.2965 -52.3964 0
    endloop
  endfacet
  facet normal 0 0 -1
    outer loop
      vertex -12.1798 -63.8487 0
      vertex -9.83752 -51.5701 0
      vertex -4.08138 -64.8717 0
    endloop
  endfacet
  facet normal 0 0 -1
    outer loop
      vertex -12.1798 -63.8487 0
      vertex -16.2234 -49.9305 0
      vertex -9.83752 -51.5701 0
    endloop
  endfacet
  facet normal 0 0 -1
    outer loop
      vertex -20.0861 -61.8187 0
      vertex -16.2234 -49.9305 0
      vertex -12.1798 -63.8487 0
    endloop
  endfacet
  facet normal 0 0 -1
    outer loop
      vertex -20.0861 -61.8187 0
      vertex -22.3534 -47.5034 0
      vertex -16.2234 -49.9305 0
    endloop
  endfacet
  facet normal 0 0 -1
    outer loop
      vertex -27.6757 -58.8138 0
      vertex -22.3534 -47.5034 0
      vertex -20.0861 -61.8187 0
    endloop
  endfacet
  facet normal 0 0 -1
    outer loop
      vertex -27.6757 -58.8138 0
      vertex -28.1309 -44.3272 0
      vertex -22.3534 -47.5034 0
    endloop
  endfacet
  facet normal 0 0 -1
    outer loop
      vertex -34.8287 -54.8813 0
      vertex -28.1309 -44.3272 0
      vertex -27.6757 -58.8138 0
    endloop
  endfacet
  facet normal -0 0 -1
    outer loop
      vertex -28.1309 -44.3272 0
      vertex -34.8287 -54.8813 0
      vertex -33.4648 -40.4519 0
    endloop
  endfacet
  facet normal 0 0 -1
    outer loop
      vertex -41.4326 -50.0834 0
      vertex -33.4648 -40.4519 0
      vertex -34.8287 -54.8813 0
    endloop
  endfacet
  facet normal -0 0 -1
    outer loop
      vertex -33.4648 -40.4519 0
      vertex -41.4326 -50.0834 0
      vertex -38.2709 -35.9387 0
    endloop
  endfacet
  facet normal 0 0 -1
    outer loop
      vertex -47.383 -44.4956 0
      vertex -38.2709 -35.9387 0
      vertex -41.4326 -50.0834 0
    endloop
  endfacet
  facet normal -0 0 -1
    outer loop
      vertex -38.2709 -35.9387 0
      vertex -47.383 -44.4956 0
      vertex -42.4734 -30.8587 0
    endloop
  endfacet
  facet normal 0 0 -1
    outer loop
      vertex -52.5861 -38.206 0
      vertex -42.4734 -30.8587 0
      vertex -47.383 -44.4956 0
    endloop
  endfacet
  facet normal -0 0 -1
    outer loop
      vertex -42.4734 -30.8587 0
      vertex -52.5861 -38.206 0
      vertex -46.0061 -25.2921 0
    endloop
  endfacet
  facet normal 0 0 -1
    outer loop
      vertex -56.9599 -31.314 0
      vertex -46.0061 -25.2921 0
      vertex -52.5861 -38.206 0
    endloop
  endfacet
  facet normal -0 0 -1
    outer loop
      vertex -46.0061 -25.2921 0
      vertex -56.9599 -31.314 0
      vertex -48.8133 -19.3265 0
    endloop
  endfacet
  facet normal -0 0 -1
    outer loop
      vertex -48.8133 -19.3265 0
      vertex -60.4355 -23.9281 0
      vertex -50.8506 -13.0562 0
    endloop
  endfacet
  facet normal 0 0 -1
    outer loop
      vertex -60.4355 -23.9281 0
      vertex -48.8133 -19.3265 0
      vertex -56.9599 -31.314 0
    endloop
  endfacet
  facet normal 0 0 -1
    outer loop
      vertex 48.8133 19.3265 0
      vertex 60.4355 23.9281 0
      vertex 50.8506 13.0562 0
    endloop
  endfacet
  facet normal -0 0 -1
    outer loop
      vertex 60.4355 23.9281 0
      vertex 48.8133 19.3265 0
      vertex 56.9599 31.314 0
    endloop
  endfacet
  facet normal 0 0 -1
    outer loop
      vertex 46.0061 25.2921 0
      vertex 56.9599 31.314 0
      vertex 48.8133 19.3265 0
    endloop
  endfacet
  facet normal -0 0 -1
    outer loop
      vertex 56.9599 31.314 0
      vertex 46.0061 25.2921 0
      vertex 52.5861 38.206 0
    endloop
  endfacet
  facet normal 0 0 -1
    outer loop
      vertex 42.4734 30.8587 0
      vertex 52.5861 38.206 0
      vertex 46.0061 25.2921 0
    endloop
  endfacet
  facet normal -0 0 -1
    outer loop
      vertex 52.5861 38.206 0
      vertex 42.4734 30.8587 0
      vertex 47.383 44.4956 0
    endloop
  endfacet
  facet normal 0 0 -1
    outer loop
      vertex 38.2709 35.9387 0
      vertex 47.383 44.4956 0
      vertex 42.4734 30.8587 0
    endloop
  endfacet
  facet normal -0 0 -1
    outer loop
      vertex 47.383 44.4956 0
      vertex 38.2709 35.9387 0
      vertex 41.4326 50.0834 0
    endloop
  endfacet
  facet normal 0 0 -1
    outer loop
      vertex 33.4648 40.4519 0
      vertex 41.4326 50.0834 0
      vertex 38.2709 35.9387 0
    endloop
  endfacet
  facet normal -0 0 -1
    outer loop
      vertex 41.4326 50.0834 0
      vertex 33.4648 40.4519 0
      vertex 34.8287 54.8813 0
    endloop
  endfacet
  facet normal 0 0 -1
    outer loop
      vertex 28.1309 44.3272 0
      vertex 34.8287 54.8813 0
      vertex 33.4648 40.4519 0
    endloop
  endfacet
  facet normal 0 0 -1
    outer loop
      vertex 28.1309 44.3272 0
      vertex 27.6757 58.8138 0
      vertex 34.8287 54.8813 0
    endloop
  endfacet
  facet normal 0 0 -1
    outer loop
      vertex 22.3534 47.5034 0
      vertex 27.6757 58.8138 0
      vertex 28.1309 44.3272 0
    endloop
  endfacet
  facet normal 0 0 -1
    outer loop
      vertex 22.3534 47.5034 0
      vertex 20.0861 61.8187 0
      vertex 27.6757 58.8138 0
    endloop
  endfacet
  facet normal 0 0 -1
    outer loop
      vertex 16.2234 49.9305 0
      vertex 20.0861 61.8187 0
      vertex 22.3534 47.5034 0
    endloop
  endfacet
  facet normal 0 0 -1
    outer loop
      vertex 16.2234 49.9305 0
      vertex 12.1798 63.8487 0
      vertex 20.0861 61.8187 0
    endloop
  endfacet
  facet normal 0 0 -1
    outer loop
      vertex 9.83752 51.5701 0
      vertex 12.1798 63.8487 0
      vertex 16.2234 49.9305 0
    endloop
  endfacet
  facet normal 0 0 -1
    outer loop
      vertex 9.83752 51.5701 0
      vertex 4.08138 64.8717 0
      vertex 12.1798 63.8487 0
    endloop
  endfacet
  facet normal 0 0 -1
    outer loop
      vertex 3.2965 52.3964 0
      vertex 4.08138 64.8717 0
      vertex 9.83752 51.5701 0
    endloop
  endfacet
  facet normal 0 0 -1
    outer loop
      vertex -3.2965 52.3964 0
      vertex 4.08138 64.8717 0
      vertex 3.2965 52.3964 0
    endloop
  endfacet
  facet normal 0 0 -1
    outer loop
      vertex -3.2965 52.3964 0
      vertex -4.08138 64.8717 0
      vertex 4.08138 64.8717 0
    endloop
  endfacet
  facet normal 0 0 -1
    outer loop
      vertex -9.83752 51.5701 0
      vertex -4.08138 64.8717 0
      vertex -3.2965 52.3964 0
    endloop
  endfacet
  facet normal 0 0 -1
    outer loop
      vertex -9.83752 51.5701 0
      vertex -12.1798 63.8487 0
      vertex -4.08138 64.8717 0
    endloop
  endfacet
  facet normal 0 0 -1
    outer loop
      vertex -16.2234 49.9305 0
      vertex -12.1798 63.8487 0
      vertex -9.83752 51.5701 0
    endloop
  endfacet
  facet normal 0 0 -1
    outer loop
      vertex -16.2234 49.9305 0
      vertex -20.0861 61.8187 0
      vertex -12.1798 63.8487 0
    endloop
  endfacet
  facet normal 0 0 -1
    outer loop
      vertex -22.3534 47.5034 0
      vertex -20.0861 61.8187 0
      vertex -16.2234 49.9305 0
    endloop
  endfacet
  facet normal 0 0 -1
    outer loop
      vertex -22.3534 47.5034 0
      vertex -27.6757 58.8138 0
      vertex -20.0861 61.8187 0
    endloop
  endfacet
  facet normal 0 0 -1
    outer loop
      vertex -28.1309 44.3272 0
      vertex -27.6757 58.8138 0
      vertex -22.3534 47.5034 0
    endloop
  endfacet
  facet normal 0 0 -1
    outer loop
      vertex -34.8287 54.8813 0
      vertex -28.1309 44.3272 0
      vertex -33.4648 40.4519 0
    endloop
  endfacet
  facet normal 0 0 -1
    outer loop
      vertex -28.1309 44.3272 0
      vertex -34.8287 54.8813 0
      vertex -27.6757 58.8138 0
    endloop
  endfacet
  facet normal 0 0 -1
    outer loop
      vertex -41.4326 50.0834 0
      vertex -33.4648 40.4519 0
      vertex -38.2709 35.9387 0
    endloop
  endfacet
  facet normal 0 0 -1
    outer loop
      vertex -33.4648 40.4519 0
      vertex -41.4326 50.0834 0
      vertex -34.8287 54.8813 0
    endloop
  endfacet
  facet normal 0 0 -1
    outer loop
      vertex -47.383 44.4956 0
      vertex -38.2709 35.9387 0
      vertex -42.4734 30.8587 0
    endloop
  endfacet
  facet normal 0 0 -1
    outer loop
      vertex -52.5861 38.206 0
      vertex -42.4734 30.8587 0
      vertex -46.0061 25.2921 0
    endloop
  endfacet
  facet normal 0 0 -1
    outer loop
      vertex -38.2709 35.9387 0
      vertex -47.383 44.4956 0
      vertex -41.4326 50.0834 0
    endloop
  endfacet
  facet normal 0 0 -1
    outer loop
      vertex -56.9599 31.314 0
      vertex -46.0061 25.2921 0
      vertex -48.8133 19.3265 0
    endloop
  endfacet
  facet normal 0 0 -1
    outer loop
      vertex -60.4355 23.9281 0
      vertex -48.8133 19.3265 0
      vertex -50.8506 13.0562 0
    endloop
  endfacet
  facet normal 0 0 -1
    outer loop
      vertex -62.9579 16.1648 0
      vertex -50.8506 13.0562 0
      vertex -52.086 6.57999 0
    endloop
  endfacet
  facet normal 0 0 -1
    outer loop
      vertex -42.4734 30.8587 0
      vertex -52.5861 38.206 0
      vertex -47.383 44.4956 0
    endloop
  endfacet
  facet normal 0 0 -1
    outer loop
      vertex -64.4875 8.14666 0
      vertex -52.086 6.57999 0
      vertex -52.5 0 0
    endloop
  endfacet
  facet normal 0 0 -1
    outer loop
      vertex -62.9579 -16.1648 0
      vertex -50.8506 -13.0562 0
      vertex -60.4355 -23.9281 0
    endloop
  endfacet
  facet normal -0 0 -1
    outer loop
      vertex -50.8506 -13.0562 0
      vertex -62.9579 -16.1648 0
      vertex -52.086 -6.57999 0
    endloop
  endfacet
  facet normal 0 0 -1
    outer loop
      vertex -46.0061 25.2921 0
      vertex -56.9599 31.314 0
      vertex -52.5861 38.206 0
    endloop
  endfacet
  facet normal 0 0 -1
    outer loop
      vertex -64.4875 -8.14666 0
      vertex -52.086 -6.57999 0
      vertex -62.9579 -16.1648 0
    endloop
  endfacet
  facet normal 0 0 -1
    outer loop
      vertex -48.8133 19.3265 0
      vertex -60.4355 23.9281 0
      vertex -56.9599 31.314 0
    endloop
  endfacet
  facet normal -0 0 -1
    outer loop
      vertex -52.086 -6.57999 0
      vertex -64.4875 -8.14666 0
      vertex -52.5 0 0
    endloop
  endfacet
  facet normal 0 0 -1
    outer loop
      vertex -50.8506 13.0562 0
      vertex -62.9579 16.1648 0
      vertex -60.4355 23.9281 0
    endloop
  endfacet
  facet normal 0 0 -1
    outer loop
      vertex -65 0 0
      vertex -52.5 0 0
      vertex -64.4875 -8.14666 0
    endloop
  endfacet
  facet normal 0 0 -1
    outer loop
      vertex -52.086 6.57999 0
      vertex -64.4875 8.14666 0
      vertex -62.9579 16.1648 0
    endloop
  endfacet
  facet normal 0 0 -1
    outer loop
      vertex -52.5 0 0
      vertex -65 0 0
      vertex -64.4875 8.14666 0
    endloop
  endfacet
  facet normal 0.125325 -0.992116 0
    outer loop
      vertex 4.08138 -64.8717 0
      vertex 12.1798 -63.8487 13
      vertex 4.08138 -64.8717 13
    endloop
  endfacet
  facet normal 0.125325 -0.992116 0
    outer loop
      vertex 12.1798 -63.8487 13
      vertex 4.08138 -64.8717 0
      vertex 12.1798 -63.8487 0
    endloop
  endfacet
  facet normal 0.951058 0.309012 -1.13124e-17
    outer loop
      vertex 62.9579 16.1648 13
      vertex 60.4355 23.9281 0
      vertex 60.4355 23.9281 13
    endloop
  endfacet
  facet normal 0.951058 0.309012 -1.13124e-17
    outer loop
      vertex 60.4355 23.9281 0
      vertex 62.9579 16.1648 13
      vertex 62.9579 16.1648 0
    endloop
  endfacet
  facet normal 0.982286 0.187388 -3.62097e-18
    outer loop
      vertex 64.4875 8.14666 13
      vertex 62.9579 16.1648 0
      vertex 62.9579 16.1648 13
    endloop
  endfacet
  facet normal 0.982286 0.187388 -3.62097e-18
    outer loop
      vertex 62.9579 16.1648 0
      vertex 64.4875 8.14666 13
      vertex 64.4875 8.14666 0
    endloop
  endfacet
  facet normal 0.77052 0.637416 2.98176e-17
    outer loop
      vertex 52.5861 38.206 13
      vertex 47.383 44.4956 0
      vertex 47.383 44.4956 13
    endloop
  endfacet
  facet normal 0.77052 0.637416 2.98176e-17
    outer loop
      vertex 47.383 44.4956 0
      vertex 52.5861 38.206 13
      vertex 52.5861 38.206 0
    endloop
  endfacet
  facet normal 0.125325 0.992116 -0
    outer loop
      vertex 12.1798 63.8487 0
      vertex 4.08138 64.8717 13
      vertex 12.1798 63.8487 13
    endloop
  endfacet
  facet normal 0.125325 0.992116 0
    outer loop
      vertex 4.08138 64.8717 13
      vertex 12.1798 63.8487 0
      vertex 4.08138 64.8717 0
    endloop
  endfacet
  facet normal 0.587776 0.809024 -0
    outer loop
      vertex 41.4326 50.0834 0
      vertex 34.8287 54.8813 13
      vertex 41.4326 50.0834 13
    endloop
  endfacet
  facet normal 0.587776 0.809024 0
    outer loop
      vertex 34.8287 54.8813 13
      vertex 41.4326 50.0834 0
      vertex 34.8287 54.8813 0
    endloop
  endfacet
  facet normal -0.904824 0.425785 1.5481e-17
    outer loop
      vertex -60.4355 23.9281 0
      vertex -56.9599 31.314 13
      vertex -56.9599 31.314 0
    endloop
  endfacet
  facet normal -0.904824 0.425785 1.5481e-17
    outer loop
      vertex -56.9599 31.314 13
      vertex -60.4355 23.9281 0
      vertex -60.4355 23.9281 13
    endloop
  endfacet
  facet normal -0.982286 0.187388 3.62097e-18
    outer loop
      vertex -64.4875 8.14666 0
      vertex -62.9579 16.1648 13
      vertex -62.9579 16.1648 0
    endloop
  endfacet
  facet normal -0.982286 0.187388 3.62097e-18
    outer loop
      vertex -62.9579 16.1648 13
      vertex -64.4875 8.14666 0
      vertex -64.4875 8.14666 13
    endloop
  endfacet
  facet normal 0.998027 -0.0627851 2.34994e-18
    outer loop
      vertex 64.4875 -8.14666 13
      vertex 65 0 0
      vertex 65 0 13
    endloop
  endfacet
  facet normal 0.998027 -0.0627851 2.34994e-18
    outer loop
      vertex 65 0 0
      vertex 64.4875 -8.14666 13
      vertex 64.4875 -8.14666 0
    endloop
  endfacet
  facet normal 0.77052 -0.637416 -2.98176e-17
    outer loop
      vertex 47.383 -44.4956 13
      vertex 52.5861 -38.206 0
      vertex 52.5861 -38.206 13
    endloop
  endfacet
  facet normal 0.77052 -0.637416 -2.98176e-17
    outer loop
      vertex 52.5861 -38.206 0
      vertex 47.383 -44.4956 13
      vertex 47.383 -44.4956 0
    endloop
  endfacet
  facet normal 0.951058 -0.309012 1.13124e-17
    outer loop
      vertex 60.4355 -23.9281 13
      vertex 62.9579 -16.1648 0
      vertex 62.9579 -16.1648 13
    endloop
  endfacet
  facet normal 0.951058 -0.309012 1.13124e-17
    outer loop
      vertex 62.9579 -16.1648 0
      vertex 60.4355 -23.9281 13
      vertex 60.4355 -23.9281 0
    endloop
  endfacet
  facet normal 0.368121 -0.929778 0
    outer loop
      vertex 20.0861 -61.8187 0
      vertex 27.6757 -58.8138 13
      vertex 20.0861 -61.8187 13
    endloop
  endfacet
  facet normal 0.368121 -0.929778 0
    outer loop
      vertex 27.6757 -58.8138 13
      vertex 20.0861 -61.8187 0
      vertex 27.6757 -58.8138 0
    endloop
  endfacet
  facet normal -0.951058 0.309012 1.13124e-17
    outer loop
      vertex -62.9579 16.1648 0
      vertex -60.4355 23.9281 13
      vertex -60.4355 23.9281 0
    endloop
  endfacet
  facet normal -0.951058 0.309012 1.13124e-17
    outer loop
      vertex -60.4355 23.9281 13
      vertex -62.9579 16.1648 0
      vertex -62.9579 16.1648 13
    endloop
  endfacet
  facet normal -0.481764 0.876301 0
    outer loop
      vertex -27.6757 58.8138 0
      vertex -34.8287 54.8813 13
      vertex -27.6757 58.8138 13
    endloop
  endfacet
  facet normal -0.481764 0.876301 0
    outer loop
      vertex -34.8287 54.8813 13
      vertex -27.6757 58.8138 0
      vertex -34.8287 54.8813 0
    endloop
  endfacet
  facet normal -0.248691 0.968583 0
    outer loop
      vertex -12.1798 63.8487 0
      vertex -20.0861 61.8187 13
      vertex -12.1798 63.8487 13
    endloop
  endfacet
  facet normal -0.248691 0.968583 0
    outer loop
      vertex -20.0861 61.8187 13
      vertex -12.1798 63.8487 0
      vertex -20.0861 61.8187 0
    endloop
  endfacet
  facet normal 0.982286 -0.187388 3.62097e-18
    outer loop
      vertex 62.9579 -16.1648 13
      vertex 64.4875 -8.14666 0
      vertex 64.4875 -8.14666 13
    endloop
  endfacet
  facet normal 0.982286 -0.187388 3.62097e-18
    outer loop
      vertex 64.4875 -8.14666 0
      vertex 62.9579 -16.1648 13
      vertex 62.9579 -16.1648 0
    endloop
  endfacet
  facet normal 0.684547 -0.728968 0
    outer loop
      vertex 41.4326 -50.0834 0
      vertex 47.383 -44.4956 13
      vertex 41.4326 -50.0834 13
    endloop
  endfacet
  facet normal 0.684547 -0.728968 0
    outer loop
      vertex 47.383 -44.4956 13
      vertex 41.4326 -50.0834 0
      vertex 47.383 -44.4956 0
    endloop
  endfacet
  facet normal 0.844328 -0.535827 1.40262e-17
    outer loop
      vertex 52.5861 -38.206 13
      vertex 56.9599 -31.314 0
      vertex 56.9599 -31.314 13
    endloop
  endfacet
  facet normal 0.844328 -0.535827 1.40262e-17
    outer loop
      vertex 56.9599 -31.314 0
      vertex 52.5861 -38.206 13
      vertex 52.5861 -38.206 0
    endloop
  endfacet
  facet normal -0.368121 -0.929778 0
    outer loop
      vertex -27.6757 -58.8138 0
      vertex -20.0861 -61.8187 13
      vertex -27.6757 -58.8138 13
    endloop
  endfacet
  facet normal -0.368121 -0.929778 -0
    outer loop
      vertex -20.0861 -61.8187 13
      vertex -27.6757 -58.8138 0
      vertex -20.0861 -61.8187 0
    endloop
  endfacet
  facet normal -0.77052 -0.637416 2.98176e-17
    outer loop
      vertex -47.383 -44.4956 0
      vertex -52.5861 -38.206 13
      vertex -52.5861 -38.206 0
    endloop
  endfacet
  facet normal -0.77052 -0.637416 2.98176e-17
    outer loop
      vertex -52.5861 -38.206 13
      vertex -47.383 -44.4956 0
      vertex -47.383 -44.4956 13
    endloop
  endfacet
  facet normal -0.998027 -0.0627851 -2.34994e-18
    outer loop
      vertex -64.4875 -8.14666 0
      vertex -65 0 13
      vertex -65 0 0
    endloop
  endfacet
  facet normal -0.998027 -0.0627851 -2.34994e-18
    outer loop
      vertex -65 0 13
      vertex -64.4875 -8.14666 0
      vertex -64.4875 -8.14666 13
    endloop
  endfacet
  facet normal -0.982286 -0.187388 -3.62097e-18
    outer loop
      vertex -62.9579 -16.1648 0
      vertex -64.4875 -8.14666 13
      vertex -64.4875 -8.14666 0
    endloop
  endfacet
  facet normal -0.982286 -0.187388 -3.62097e-18
    outer loop
      vertex -64.4875 -8.14666 13
      vertex -62.9579 -16.1648 0
      vertex -62.9579 -16.1648 13
    endloop
  endfacet
  facet normal -0.951058 -0.309012 -1.13124e-17
    outer loop
      vertex -60.4355 -23.9281 0
      vertex -62.9579 -16.1648 13
      vertex -62.9579 -16.1648 0
    endloop
  endfacet
  facet normal -0.951058 -0.309012 -1.13124e-17
    outer loop
      vertex -62.9579 -16.1648 13
      vertex -60.4355 -23.9281 0
      vertex -60.4355 -23.9281 13
    endloop
  endfacet
  facet normal 0.248691 -0.968583 0
    outer loop
      vertex 12.1798 -63.8487 0
      vertex 20.0861 -61.8187 13
      vertex 12.1798 -63.8487 13
    endloop
  endfacet
  facet normal 0.248691 -0.968583 0
    outer loop
      vertex 20.0861 -61.8187 13
      vertex 12.1798 -63.8487 0
      vertex 20.0861 -61.8187 0
    endloop
  endfacet
  facet normal 0.481764 -0.876301 0
    outer loop
      vertex 27.6757 -58.8138 0
      vertex 34.8287 -54.8813 13
      vertex 27.6757 -58.8138 13
    endloop
  endfacet
  facet normal 0.481764 -0.876301 0
    outer loop
      vertex 34.8287 -54.8813 13
      vertex 27.6757 -58.8138 0
      vertex 34.8287 -54.8813 0
    endloop
  endfacet
  facet normal 0.587776 -0.809024 0
    outer loop
      vertex 34.8287 -54.8813 0
      vertex 41.4326 -50.0834 13
      vertex 34.8287 -54.8813 13
    endloop
  endfacet
  facet normal 0.587776 -0.809024 0
    outer loop
      vertex 41.4326 -50.0834 13
      vertex 34.8287 -54.8813 0
      vertex 41.4326 -50.0834 0
    endloop
  endfacet
  facet normal 0.904824 -0.425785 1.5481e-17
    outer loop
      vertex 56.9599 -31.314 13
      vertex 60.4355 -23.9281 0
      vertex 60.4355 -23.9281 13
    endloop
  endfacet
  facet normal 0.904824 -0.425785 1.5481e-17
    outer loop
      vertex 60.4355 -23.9281 0
      vertex 56.9599 -31.314 13
      vertex 56.9599 -31.314 0
    endloop
  endfacet
  facet normal -0.125325 -0.992116 0
    outer loop
      vertex -12.1798 -63.8487 0
      vertex -4.08138 -64.8717 13
      vertex -12.1798 -63.8487 13
    endloop
  endfacet
  facet normal -0.125325 -0.992116 -0
    outer loop
      vertex -4.08138 -64.8717 13
      vertex -12.1798 -63.8487 0
      vertex -4.08138 -64.8717 0
    endloop
  endfacet
  facet normal -0.587776 -0.809024 0
    outer loop
      vertex -41.4326 -50.0834 0
      vertex -34.8287 -54.8813 13
      vertex -41.4326 -50.0834 13
    endloop
  endfacet
  facet normal -0.587776 -0.809024 -0
    outer loop
      vertex -34.8287 -54.8813 13
      vertex -41.4326 -50.0834 0
      vertex -34.8287 -54.8813 0
    endloop
  endfacet
  facet normal -0.248691 -0.968583 0
    outer loop
      vertex -20.0861 -61.8187 0
      vertex -12.1798 -63.8487 13
      vertex -20.0861 -61.8187 13
    endloop
  endfacet
  facet normal -0.248691 -0.968583 -0
    outer loop
      vertex -12.1798 -63.8487 13
      vertex -20.0861 -61.8187 0
      vertex -12.1798 -63.8487 0
    endloop
  endfacet
  facet normal -0.684547 -0.728968 0
    outer loop
      vertex -47.383 -44.4956 0
      vertex -41.4326 -50.0834 13
      vertex -47.383 -44.4956 13
    endloop
  endfacet
  facet normal -0.684547 -0.728968 -0
    outer loop
      vertex -41.4326 -50.0834 13
      vertex -47.383 -44.4956 0
      vertex -41.4326 -50.0834 0
    endloop
  endfacet
  facet normal -0.904824 -0.425785 -1.5481e-17
    outer loop
      vertex -56.9599 -31.314 0
      vertex -60.4355 -23.9281 13
      vertex -60.4355 -23.9281 0
    endloop
  endfacet
  facet normal -0.904824 -0.425785 -1.5481e-17
    outer loop
      vertex -60.4355 -23.9281 13
      vertex -56.9599 -31.314 0
      vertex -56.9599 -31.314 13
    endloop
  endfacet
  facet normal -0.481764 -0.876301 0
    outer loop
      vertex -34.8287 -54.8813 0
      vertex -27.6757 -58.8138 13
      vertex -34.8287 -54.8813 13
    endloop
  endfacet
  facet normal -0.481764 -0.876301 -0
    outer loop
      vertex -27.6757 -58.8138 13
      vertex -34.8287 -54.8813 0
      vertex -27.6757 -58.8138 0
    endloop
  endfacet
  facet normal -0.844328 -0.535827 -1.40262e-17
    outer loop
      vertex -52.5861 -38.206 0
      vertex -56.9599 -31.314 13
      vertex -56.9599 -31.314 0
    endloop
  endfacet
  facet normal -0.844328 -0.535827 -1.40262e-17
    outer loop
      vertex -56.9599 -31.314 13
      vertex -52.5861 -38.206 0
      vertex -52.5861 -38.206 13
    endloop
  endfacet
  facet normal -0.998027 -0.0627939 -1.99867e-18
    outer loop
      vertex 52.5 0 0
      vertex 52.086 6.57999 13
      vertex 52.086 6.57999 0
    endloop
  endfacet
  facet normal -0.998027 -0.0627939 -1.99867e-18
    outer loop
      vertex 52.086 6.57999 13
      vertex 52.5 0 0
      vertex 52.5 0 13
    endloop
  endfacet
  facet normal 0.998027 -0.0627939 1.99867e-18
    outer loop
      vertex -52.5 0 13
      vertex -52.086 6.57999 0
      vertex -52.086 6.57999 13
    endloop
  endfacet
  facet normal 0.998027 -0.0627939 1.99867e-18
    outer loop
      vertex -52.086 6.57999 0
      vertex -52.5 0 13
      vertex -52.5 0 0
    endloop
  endfacet
  facet normal 0 -1 0
    outer loop
      vertex -3.2965 52.3964 0
      vertex 3.2965 52.3964 13
      vertex -3.2965 52.3964 13
    endloop
  endfacet
  facet normal 0 -1 -0
    outer loop
      vertex 3.2965 52.3964 13
      vertex -3.2965 52.3964 0
      vertex 3.2965 52.3964 0
    endloop
  endfacet
  facet normal -0.684545 -0.728971 0
    outer loop
      vertex 33.4648 40.4519 0
      vertex 38.2709 35.9387 13
      vertex 33.4648 40.4519 13
    endloop
  endfacet
  facet normal -0.684545 -0.728971 -0
    outer loop
      vertex 38.2709 35.9387 13
      vertex 33.4648 40.4519 0
      vertex 38.2709 35.9387 0
    endloop
  endfacet
  facet normal 0.684545 -0.728971 0
    outer loop
      vertex -38.2709 35.9387 0
      vertex -33.4648 40.4519 13
      vertex -38.2709 35.9387 13
    endloop
  endfacet
  facet normal 0.684545 -0.728971 0
    outer loop
      vertex -33.4648 40.4519 13
      vertex -38.2709 35.9387 0
      vertex -33.4648 40.4519 0
    endloop
  endfacet
  facet normal 0.368133 -0.929773 0
    outer loop
      vertex -22.3534 47.5034 0
      vertex -16.2234 49.9305 13
      vertex -22.3534 47.5034 13
    endloop
  endfacet
  facet normal 0.368133 -0.929773 0
    outer loop
      vertex -16.2234 49.9305 13
      vertex -22.3534 47.5034 0
      vertex -16.2234 49.9305 0
    endloop
  endfacet
  facet normal -0.904827 -0.42578 -1.81952e-17
    outer loop
      vertex 48.8133 19.3265 0
      vertex 46.0061 25.2921 13
      vertex 46.0061 25.2921 0
    endloop
  endfacet
  facet normal -0.904827 -0.42578 -1.81952e-17
    outer loop
      vertex 46.0061 25.2921 13
      vertex 48.8133 19.3265 0
      vertex 48.8133 19.3265 13
    endloop
  endfacet
  facet normal -0.982287 -0.187381 5.26233e-19
    outer loop
      vertex 52.086 6.57999 0
      vertex 50.8506 13.0562 13
      vertex 50.8506 13.0562 0
    endloop
  endfacet
  facet normal -0.982287 -0.187381 5.26233e-19
    outer loop
      vertex 50.8506 13.0562 13
      vertex 52.086 6.57999 0
      vertex 52.086 6.57999 13
    endloop
  endfacet
  facet normal -0.844326 -0.53583 -1.73455e-17
    outer loop
      vertex 46.0061 25.2921 0
      vertex 42.4734 30.8587 13
      vertex 42.4734 30.8587 0
    endloop
  endfacet
  facet normal -0.844326 -0.53583 -1.73455e-17
    outer loop
      vertex 42.4734 30.8587 13
      vertex 46.0061 25.2921 0
      vertex 46.0061 25.2921 13
    endloop
  endfacet
  facet normal -0.368133 -0.929773 0
    outer loop
      vertex 16.2234 49.9305 0
      vertex 22.3534 47.5034 13
      vertex 16.2234 49.9305 13
    endloop
  endfacet
  facet normal -0.368133 -0.929773 -0
    outer loop
      vertex 22.3534 47.5034 13
      vertex 16.2234 49.9305 0
      vertex 22.3534 47.5034 0
    endloop
  endfacet
  facet normal -0.587785 -0.809017 0
    outer loop
      vertex 28.1309 44.3272 0
      vertex 33.4648 40.4519 13
      vertex 28.1309 44.3272 13
    endloop
  endfacet
  facet normal -0.587785 -0.809017 -0
    outer loop
      vertex 33.4648 40.4519 13
      vertex 28.1309 44.3272 0
      vertex 33.4648 40.4519 0
    endloop
  endfacet
  facet normal 0.904827 -0.42578 1.81952e-17
    outer loop
      vertex -48.8133 19.3265 13
      vertex -46.0061 25.2921 0
      vertex -46.0061 25.2921 13
    endloop
  endfacet
  facet normal 0.904827 -0.42578 1.81952e-17
    outer loop
      vertex -46.0061 25.2921 0
      vertex -48.8133 19.3265 13
      vertex -48.8133 19.3265 0
    endloop
  endfacet
  facet normal 0.844326 -0.53583 1.73455e-17
    outer loop
      vertex -46.0061 25.2921 13
      vertex -42.4734 30.8587 0
      vertex -42.4734 30.8587 13
    endloop
  endfacet
  facet normal 0.844326 -0.53583 1.73455e-17
    outer loop
      vertex -42.4734 30.8587 0
      vertex -46.0061 25.2921 13
      vertex -46.0061 25.2921 0
    endloop
  endfacet
  facet normal 0.951058 -0.309011 -1.6799e-18
    outer loop
      vertex -50.8506 13.0562 13
      vertex -48.8133 19.3265 0
      vertex -48.8133 19.3265 13
    endloop
  endfacet
  facet normal 0.951058 -0.309011 -1.6799e-18
    outer loop
      vertex -48.8133 19.3265 0
      vertex -50.8506 13.0562 13
      vertex -50.8506 13.0562 0
    endloop
  endfacet
  facet normal 0.587785 -0.809017 0
    outer loop
      vertex -33.4648 40.4519 0
      vertex -28.1309 44.3272 13
      vertex -33.4648 40.4519 13
    endloop
  endfacet
  facet normal 0.587785 -0.809017 0
    outer loop
      vertex -28.1309 44.3272 13
      vertex -33.4648 40.4519 0
      vertex -28.1309 44.3272 0
    endloop
  endfacet
  facet normal 0.12533 -0.992115 0
    outer loop
      vertex -9.83752 51.5701 0
      vertex -3.2965 52.3964 13
      vertex -9.83752 51.5701 13
    endloop
  endfacet
  facet normal 0.12533 -0.992115 0
    outer loop
      vertex -3.2965 52.3964 13
      vertex -9.83752 51.5701 0
      vertex -3.2965 52.3964 0
    endloop
  endfacet
  facet normal -0.998027 0.0627939 1.99867e-18
    outer loop
      vertex 52.086 -6.57999 0
      vertex 52.5 0 13
      vertex 52.5 0 0
    endloop
  endfacet
  facet normal -0.998027 0.0627939 1.99867e-18
    outer loop
      vertex 52.5 0 13
      vertex 52.086 -6.57999 0
      vertex 52.086 -6.57999 13
    endloop
  endfacet
  facet normal -0.12533 0.992115 0
    outer loop
      vertex 9.83752 -51.5701 0
      vertex 3.2965 -52.3964 13
      vertex 9.83752 -51.5701 13
    endloop
  endfacet
  facet normal -0.12533 0.992115 0
    outer loop
      vertex 3.2965 -52.3964 13
      vertex 9.83752 -51.5701 0
      vertex 3.2965 -52.3964 0
    endloop
  endfacet
  facet normal -0.951058 -0.309011 1.6799e-18
    outer loop
      vertex 50.8506 13.0562 0
      vertex 48.8133 19.3265 13
      vertex 48.8133 19.3265 0
    endloop
  endfacet
  facet normal -0.951058 -0.309011 1.6799e-18
    outer loop
      vertex 48.8133 19.3265 13
      vertex 50.8506 13.0562 0
      vertex 50.8506 13.0562 13
    endloop
  endfacet
  facet normal -0.770516 -0.63742 -1.89444e-17
    outer loop
      vertex 42.4734 30.8587 0
      vertex 38.2709 35.9387 13
      vertex 38.2709 35.9387 0
    endloop
  endfacet
  facet normal -0.770516 -0.63742 -1.89444e-17
    outer loop
      vertex 38.2709 35.9387 13
      vertex 42.4734 30.8587 0
      vertex 42.4734 30.8587 13
    endloop
  endfacet
  facet normal -0.248688 -0.968584 0
    outer loop
      vertex 9.83752 51.5701 0
      vertex 16.2234 49.9305 13
      vertex 9.83752 51.5701 13
    endloop
  endfacet
  facet normal -0.248688 -0.968584 -0
    outer loop
      vertex 16.2234 49.9305 13
      vertex 9.83752 51.5701 0
      vertex 16.2234 49.9305 0
    endloop
  endfacet
  facet normal -0.12533 -0.992115 0
    outer loop
      vertex 3.2965 52.3964 0
      vertex 9.83752 51.5701 13
      vertex 3.2965 52.3964 13
    endloop
  endfacet
  facet normal -0.12533 -0.992115 -0
    outer loop
      vertex 9.83752 51.5701 13
      vertex 3.2965 52.3964 0
      vertex 9.83752 51.5701 0
    endloop
  endfacet
  facet normal -0.481753 -0.876307 0
    outer loop
      vertex 22.3534 47.5034 0
      vertex 28.1309 44.3272 13
      vertex 22.3534 47.5034 13
    endloop
  endfacet
  facet normal -0.481753 -0.876307 -0
    outer loop
      vertex 28.1309 44.3272 13
      vertex 22.3534 47.5034 0
      vertex 28.1309 44.3272 0
    endloop
  endfacet
  facet normal 0.770516 -0.63742 1.89444e-17
    outer loop
      vertex -42.4734 30.8587 13
      vertex -38.2709 35.9387 0
      vertex -38.2709 35.9387 13
    endloop
  endfacet
  facet normal 0.770516 -0.63742 1.89444e-17
    outer loop
      vertex -38.2709 35.9387 0
      vertex -42.4734 30.8587 13
      vertex -42.4734 30.8587 0
    endloop
  endfacet
  facet normal 0.982287 -0.187381 -5.26233e-19
    outer loop
      vertex -52.086 6.57999 13
      vertex -50.8506 13.0562 0
      vertex -50.8506 13.0562 13
    endloop
  endfacet
  facet normal 0.982287 -0.187381 -5.26233e-19
    outer loop
      vertex -50.8506 13.0562 0
      vertex -52.086 6.57999 13
      vertex -52.086 6.57999 0
    endloop
  endfacet
  facet normal 0.481753 -0.876307 0
    outer loop
      vertex -28.1309 44.3272 0
      vertex -22.3534 47.5034 13
      vertex -28.1309 44.3272 13
    endloop
  endfacet
  facet normal 0.481753 -0.876307 0
    outer loop
      vertex -22.3534 47.5034 13
      vertex -28.1309 44.3272 0
      vertex -22.3534 47.5034 0
    endloop
  endfacet
  facet normal 0.248688 -0.968584 0
    outer loop
      vertex -16.2234 49.9305 0
      vertex -9.83752 51.5701 13
      vertex -16.2234 49.9305 13
    endloop
  endfacet
  facet normal 0.248688 -0.968584 0
    outer loop
      vertex -9.83752 51.5701 13
      vertex -16.2234 49.9305 0
      vertex -9.83752 51.5701 0
    endloop
  endfacet
  facet normal -0.982287 0.187381 -5.26233e-19
    outer loop
      vertex 50.8506 -13.0562 0
      vertex 52.086 -6.57999 13
      vertex 52.086 -6.57999 0
    endloop
  endfacet
  facet normal -0.982287 0.187381 -5.26233e-19
    outer loop
      vertex 52.086 -6.57999 13
      vertex 50.8506 -13.0562 0
      vertex 50.8506 -13.0562 13
    endloop
  endfacet
  facet normal 0.844326 0.53583 -1.73455e-17
    outer loop
      vertex -42.4734 -30.8587 13
      vertex -46.0061 -25.2921 0
      vertex -46.0061 -25.2921 13
    endloop
  endfacet
  facet normal 0.844326 0.53583 -1.73455e-17
    outer loop
      vertex -46.0061 -25.2921 0
      vertex -42.4734 -30.8587 13
      vertex -42.4734 -30.8587 0
    endloop
  endfacet
  facet normal 0.904827 0.42578 -1.81952e-17
    outer loop
      vertex -46.0061 -25.2921 13
      vertex -48.8133 -19.3265 0
      vertex -48.8133 -19.3265 13
    endloop
  endfacet
  facet normal 0.904827 0.42578 -1.81952e-17
    outer loop
      vertex -48.8133 -19.3265 0
      vertex -46.0061 -25.2921 13
      vertex -46.0061 -25.2921 0
    endloop
  endfacet
  facet normal 0.951058 0.309011 1.6799e-18
    outer loop
      vertex -48.8133 -19.3265 13
      vertex -50.8506 -13.0562 0
      vertex -50.8506 -13.0562 13
    endloop
  endfacet
  facet normal 0.951058 0.309011 1.6799e-18
    outer loop
      vertex -50.8506 -13.0562 0
      vertex -48.8133 -19.3265 13
      vertex -48.8133 -19.3265 0
    endloop
  endfacet
  facet normal -0.368133 0.929773 0
    outer loop
      vertex 22.3534 -47.5034 0
      vertex 16.2234 -49.9305 13
      vertex 22.3534 -47.5034 13
    endloop
  endfacet
  facet normal -0.368133 0.929773 0
    outer loop
      vertex 16.2234 -49.9305 13
      vertex 22.3534 -47.5034 0
      vertex 16.2234 -49.9305 0
    endloop
  endfacet
  facet normal -0.248688 0.968584 0
    outer loop
      vertex 16.2234 -49.9305 0
      vertex 9.83752 -51.5701 13
      vertex 16.2234 -49.9305 13
    endloop
  endfacet
  facet normal -0.248688 0.968584 0
    outer loop
      vertex 9.83752 -51.5701 13
      vertex 16.2234 -49.9305 0
      vertex 9.83752 -51.5701 0
    endloop
  endfacet
  facet normal -0.844326 0.53583 1.73455e-17
    outer loop
      vertex 42.4734 -30.8587 0
      vertex 46.0061 -25.2921 13
      vertex 46.0061 -25.2921 0
    endloop
  endfacet
  facet normal -0.844326 0.53583 1.73455e-17
    outer loop
      vertex 46.0061 -25.2921 13
      vertex 42.4734 -30.8587 0
      vertex 42.4734 -30.8587 13
    endloop
  endfacet
  facet normal -0.684545 0.728971 0
    outer loop
      vertex 38.2709 -35.9387 0
      vertex 33.4648 -40.4519 13
      vertex 38.2709 -35.9387 13
    endloop
  endfacet
  facet normal -0.684545 0.728971 0
    outer loop
      vertex 33.4648 -40.4519 13
      vertex 38.2709 -35.9387 0
      vertex 33.4648 -40.4519 0
    endloop
  endfacet
  facet normal -0.904827 0.42578 1.81952e-17
    outer loop
      vertex 46.0061 -25.2921 0
      vertex 48.8133 -19.3265 13
      vertex 48.8133 -19.3265 0
    endloop
  endfacet
  facet normal -0.904827 0.42578 1.81952e-17
    outer loop
      vertex 48.8133 -19.3265 13
      vertex 46.0061 -25.2921 0
      vertex 46.0061 -25.2921 13
    endloop
  endfacet
  facet normal 0.12533 0.992115 -0
    outer loop
      vertex -3.2965 -52.3964 0
      vertex -9.83752 -51.5701 13
      vertex -3.2965 -52.3964 13
    endloop
  endfacet
  facet normal 0.12533 0.992115 0
    outer loop
      vertex -9.83752 -51.5701 13
      vertex -3.2965 -52.3964 0
      vertex -9.83752 -51.5701 0
    endloop
  endfacet
  facet normal 0.684545 0.728971 -0
    outer loop
      vertex -33.4648 -40.4519 0
      vertex -38.2709 -35.9387 13
      vertex -33.4648 -40.4519 13
    endloop
  endfacet
  facet normal 0.684545 0.728971 0
    outer loop
      vertex -38.2709 -35.9387 13
      vertex -33.4648 -40.4519 0
      vertex -38.2709 -35.9387 0
    endloop
  endfacet
  facet normal 0.998027 0.0627939 -1.99867e-18
    outer loop
      vertex -52.086 -6.57999 13
      vertex -52.5 0 0
      vertex -52.5 0 13
    endloop
  endfacet
  facet normal 0.998027 0.0627939 -1.99867e-18
    outer loop
      vertex -52.5 0 0
      vertex -52.086 -6.57999 13
      vertex -52.086 -6.57999 0
    endloop
  endfacet
  facet normal -0.481753 0.876307 0
    outer loop
      vertex 28.1309 -44.3272 0
      vertex 22.3534 -47.5034 13
      vertex 28.1309 -44.3272 13
    endloop
  endfacet
  facet normal -0.481753 0.876307 0
    outer loop
      vertex 22.3534 -47.5034 13
      vertex 28.1309 -44.3272 0
      vertex 22.3534 -47.5034 0
    endloop
  endfacet
  facet normal -0.951058 0.309011 -1.6799e-18
    outer loop
      vertex 48.8133 -19.3265 0
      vertex 50.8506 -13.0562 13
      vertex 50.8506 -13.0562 0
    endloop
  endfacet
  facet normal -0.951058 0.309011 -1.6799e-18
    outer loop
      vertex 50.8506 -13.0562 13
      vertex 48.8133 -19.3265 0
      vertex 48.8133 -19.3265 13
    endloop
  endfacet
  facet normal 0 1 -0
    outer loop
      vertex 3.2965 -52.3964 0
      vertex -3.2965 -52.3964 13
      vertex 3.2965 -52.3964 13
    endloop
  endfacet
  facet normal 0 1 0
    outer loop
      vertex -3.2965 -52.3964 13
      vertex 3.2965 -52.3964 0
      vertex -3.2965 -52.3964 0
    endloop
  endfacet
  facet normal 0.368133 0.929773 -0
    outer loop
      vertex -16.2234 -49.9305 0
      vertex -22.3534 -47.5034 13
      vertex -16.2234 -49.9305 13
    endloop
  endfacet
  facet normal 0.368133 0.929773 0
    outer loop
      vertex -22.3534 -47.5034 13
      vertex -16.2234 -49.9305 0
      vertex -22.3534 -47.5034 0
    endloop
  endfacet
  facet normal 0.587785 0.809017 -0
    outer loop
      vertex -28.1309 -44.3272 0
      vertex -33.4648 -40.4519 13
      vertex -28.1309 -44.3272 13
    endloop
  endfacet
  facet normal 0.587785 0.809017 0
    outer loop
      vertex -33.4648 -40.4519 13
      vertex -28.1309 -44.3272 0
      vertex -33.4648 -40.4519 0
    endloop
  endfacet
  facet normal 0.770516 0.63742 -1.89444e-17
    outer loop
      vertex -38.2709 -35.9387 13
      vertex -42.4734 -30.8587 0
      vertex -42.4734 -30.8587 13
    endloop
  endfacet
  facet normal 0.770516 0.63742 -1.89444e-17
    outer loop
      vertex -42.4734 -30.8587 0
      vertex -38.2709 -35.9387 13
      vertex -38.2709 -35.9387 0
    endloop
  endfacet
  facet normal 0.982287 0.187381 5.26233e-19
    outer loop
      vertex -50.8506 -13.0562 13
      vertex -52.086 -6.57999 0
      vertex -52.086 -6.57999 13
    endloop
  endfacet
  facet normal 0.982287 0.187381 5.26233e-19
    outer loop
      vertex -52.086 -6.57999 0
      vertex -50.8506 -13.0562 13
      vertex -50.8506 -13.0562 0
    endloop
  endfacet
  facet normal -0.587785 0.809017 0
    outer loop
      vertex 33.4648 -40.4519 0
      vertex 28.1309 -44.3272 13
      vertex 33.4648 -40.4519 13
    endloop
  endfacet
  facet normal -0.587785 0.809017 0
    outer loop
      vertex 28.1309 -44.3272 13
      vertex 33.4648 -40.4519 0
      vertex 28.1309 -44.3272 0
    endloop
  endfacet
  facet normal -0.770516 0.63742 1.89444e-17
    outer loop
      vertex 38.2709 -35.9387 0
      vertex 42.4734 -30.8587 13
      vertex 42.4734 -30.8587 0
    endloop
  endfacet
  facet normal -0.770516 0.63742 1.89444e-17
    outer loop
      vertex 42.4734 -30.8587 13
      vertex 38.2709 -35.9387 0
      vertex 38.2709 -35.9387 13
    endloop
  endfacet
  facet normal 0.248688 0.968584 -0
    outer loop
      vertex -9.83752 -51.5701 0
      vertex -16.2234 -49.9305 13
      vertex -9.83752 -51.5701 13
    endloop
  endfacet
  facet normal 0.248688 0.968584 0
    outer loop
      vertex -16.2234 -49.9305 13
      vertex -9.83752 -51.5701 0
      vertex -16.2234 -49.9305 0
    endloop
  endfacet
  facet normal 0.481753 0.876307 -0
    outer loop
      vertex -22.3534 -47.5034 0
      vertex -28.1309 -44.3272 13
      vertex -22.3534 -47.5034 13
    endloop
  endfacet
  facet normal 0.481753 0.876307 0
    outer loop
      vertex -28.1309 -44.3272 13
      vertex -22.3534 -47.5034 0
      vertex -28.1309 -44.3272 0
    endloop
  endfacet
endsolid OpenSCAD_Model
