<?xml version="1.0" standalone="no"?>
<!DOCTYPE svg PUBLIC "-//W3C//DTD SVG 1.1//EN" "http://www.w3.org/Graphics/SVG/1.1/DTD/svg11.dtd">
<svg width="38mm" height="186mm" viewBox="-19 -327 38 186" xmlns="http://www.w3.org/2000/svg" version="1.1">
<title>OpenSCAD Model</title>
<path d="
M 14.6869,-297.089 L 15.2951,-297.245 L 15.8789,-297.476 L 16.4291,-297.778 L 16.9371,-298.147 L 17.3948,-298.577
 L 17.7951,-299.061 L 18.1315,-299.591 L 18.3989,-300.159 L 18.5929,-300.757 L 18.7106,-301.373 L 18.75,-302
 L 18.75,-322 L 18.7106,-322.627 L 18.5929,-323.243 L 18.3989,-323.841 L 18.1315,-324.409 L 17.7951,-324.939
 L 17.3948,-325.423 L 16.9371,-325.853 L 16.4291,-326.222 L 15.8789,-326.524 L 15.2951,-326.755 L 14.6869,-326.911
 L 14.0639,-326.99 L -14.0639,-326.99 L -14.6869,-326.911 L -15.2951,-326.755 L -15.8789,-326.524 L -16.4291,-326.222
 L -16.9371,-325.853 L -17.3948,-325.423 L -17.7951,-324.939 L -18.1315,-324.409 L -18.3989,-323.841 L -18.5929,-323.243
 L -18.65,-322.944 L -18.75,-322.944 L -18.75,-301.056 L -18.65,-301.056 L -18.5929,-300.757 L -18.3989,-300.159
 L -18.1315,-299.591 L -17.7951,-299.061 L -17.3948,-298.577 L -16.9371,-298.147 L -16.4291,-297.778 L -15.8789,-297.476
 L -15.2951,-297.245 L -14.6869,-297.089 L -14.0639,-297.01 L 14.0639,-297.01 z
M -13.5012,-298.508 L -13.9995,-298.571 L -14.4861,-298.696 L -14.9531,-298.881 L -15.3933,-299.123 L -15.7997,-299.418
 L -16.1659,-299.762 L -16.4861,-300.149 L -16.7552,-300.573 L -16.9691,-301.028 L -17.1243,-301.505 L -17.2184,-301.999
 L -17.25,-302.5 L -17.25,-321.5 L -17.2184,-322.001 L -17.1243,-322.495 L -16.9691,-322.972 L -16.7552,-323.427
 L -16.4861,-323.851 L -16.1659,-324.238 L -15.7997,-324.582 L -15.3933,-324.877 L -14.9531,-325.119 L -14.4861,-325.304
 L -13.9995,-325.429 L -13.5012,-325.492 L 13.5012,-325.492 L 13.9995,-325.429 L 14.4861,-325.304 L 14.9531,-325.119
 L 15.3933,-324.877 L 15.7997,-324.582 L 16.1659,-324.238 L 16.4861,-323.851 L 16.7552,-323.427 L 16.9691,-322.972
 L 17.1243,-322.495 L 17.2184,-322.001 L 17.25,-321.5 L 17.25,-302.5 L 17.2184,-301.999 L 17.1243,-301.505
 L 16.9691,-301.028 L 16.7552,-300.573 L 16.4861,-300.149 L 16.1659,-299.762 L 15.7997,-299.418 L 15.3933,-299.123
 L 14.9531,-298.881 L 14.4861,-298.696 L 13.9995,-298.571 L 13.5012,-298.508 z
M 14.6869,-258.089 L 15.2951,-258.245 L 15.8789,-258.476 L 16.4291,-258.778 L 16.9371,-259.147 L 17.3948,-259.577
 L 17.7951,-260.061 L 18.1315,-260.591 L 18.3989,-261.159 L 18.5929,-261.757 L 18.7106,-262.373 L 18.75,-263
 L 18.75,-283 L 18.7106,-283.627 L 18.5929,-284.243 L 18.3989,-284.841 L 18.1315,-285.409 L 17.7951,-285.939
 L 17.3948,-286.423 L 16.9371,-286.853 L 16.4291,-287.222 L 15.8789,-287.524 L 15.2951,-287.755 L 14.6869,-287.911
 L 14.0639,-287.99 L -14.0639,-287.99 L -14.6869,-287.911 L -15.2951,-287.755 L -15.8789,-287.524 L -16.4291,-287.222
 L -16.9371,-286.853 L -17.3948,-286.423 L -17.7951,-285.939 L -18.1315,-285.409 L -18.3989,-284.841 L -18.5929,-284.243
 L -18.7106,-283.627 L -18.75,-283 L -18.75,-263 L -18.7106,-262.373 L -18.5929,-261.757 L -18.3989,-261.159
 L -18.1315,-260.591 L -17.7951,-260.061 L -17.3948,-259.577 L -16.9371,-259.147 L -16.4291,-258.778 L -15.8789,-258.476
 L -15.2951,-258.245 L -14.6869,-258.089 L -14.0639,-258.01 L 14.0639,-258.01 z
M -13.5012,-259.508 L -13.9995,-259.571 L -14.4861,-259.696 L -14.9531,-259.881 L -15.3933,-260.123 L -15.7997,-260.418
 L -16.1659,-260.762 L -16.4861,-261.149 L -16.7552,-261.573 L -16.9691,-262.028 L -17.1243,-262.505 L -17.2184,-262.999
 L -17.25,-263.5 L -17.25,-282.5 L -17.2184,-283.001 L -17.1243,-283.495 L -16.9691,-283.972 L -16.7552,-284.427
 L -16.4861,-284.851 L -16.1659,-285.238 L -15.7997,-285.582 L -15.3933,-285.877 L -14.9531,-286.119 L -14.4861,-286.304
 L -13.9995,-286.429 L -13.5012,-286.492 L 13.5012,-286.492 L 13.9995,-286.429 L 14.4861,-286.304 L 14.9531,-286.119
 L 15.3933,-285.877 L 15.7997,-285.582 L 16.1659,-285.238 L 16.4861,-284.851 L 16.7552,-284.427 L 16.9691,-283.972
 L 17.1243,-283.495 L 17.2184,-283.001 L 17.25,-282.5 L 17.25,-263.5 L 17.2184,-262.999 L 17.1243,-262.505
 L 16.9691,-262.028 L 16.7552,-261.573 L 16.4861,-261.149 L 16.1659,-260.762 L 15.7997,-260.418 L 15.3933,-260.123
 L 14.9531,-259.881 L 14.4861,-259.696 L 13.9995,-259.571 L 13.5012,-259.508 z
M 14.6869,-219.089 L 15.2951,-219.245 L 15.8789,-219.476 L 16.4291,-219.778 L 16.9371,-220.147 L 17.3948,-220.577
 L 17.7951,-221.061 L 18.1315,-221.591 L 18.3989,-222.159 L 18.5929,-222.757 L 18.7106,-223.373 L 18.75,-224
 L 18.75,-244 L 18.7106,-244.627 L 18.5929,-245.243 L 18.3989,-245.841 L 18.1315,-246.409 L 17.7951,-246.939
 L 17.3948,-247.423 L 16.9371,-247.853 L 16.4291,-248.222 L 15.8789,-248.524 L 15.2951,-248.755 L 14.6869,-248.911
 L 14.0639,-248.99 L -14.0639,-248.99 L -14.6869,-248.911 L -15.2951,-248.755 L -15.8789,-248.524 L -16.4291,-248.222
 L -16.9371,-247.853 L -17.3948,-247.423 L -17.7951,-246.939 L -18.1315,-246.409 L -18.3989,-245.841 L -18.5929,-245.243
 L -18.7106,-244.627 L -18.75,-244 L -18.75,-224 L -18.7106,-223.373 L -18.5929,-222.757 L -18.3989,-222.159
 L -18.1315,-221.591 L -17.7951,-221.061 L -17.3948,-220.577 L -16.9371,-220.147 L -16.4291,-219.778 L -15.8789,-219.476
 L -15.2951,-219.245 L -14.6869,-219.089 L -14.0639,-219.01 L 14.0639,-219.01 z
M -13.4932,-220.635 L -13.9756,-220.696 L -14.4467,-220.817 L -14.8989,-220.996 L -15.3251,-221.23 L -15.7185,-221.516
 L -16.073,-221.849 L -16.383,-222.224 L -16.6436,-222.634 L -16.8507,-223.074 L -17.001,-223.537 L -17.0921,-224.015
 L -17.1226,-224.5 L -17.1226,-243.5 L -17.0921,-243.985 L -17.001,-244.463 L -16.8507,-244.926 L -16.6436,-245.366
 L -16.383,-245.776 L -16.073,-246.151 L -15.7185,-246.484 L -15.3251,-246.77 L -14.8989,-247.004 L -14.4467,-247.183
 L -13.9756,-247.304 L -13.4932,-247.365 L 13.4932,-247.365 L 13.9756,-247.304 L 14.4467,-247.183 L 14.8989,-247.004
 L 15.3251,-246.77 L 15.7185,-246.484 L 16.073,-246.151 L 16.383,-245.776 L 16.6436,-245.366 L 16.8507,-244.926
 L 17.001,-244.463 L 17.0921,-243.985 L 17.1226,-243.5 L 17.1226,-224.5 L 17.0921,-224.015 L 17.001,-223.537
 L 16.8507,-223.074 L 16.6436,-222.634 L 16.383,-222.224 L 16.073,-221.849 L 15.7185,-221.516 L 15.3251,-221.23
 L 14.8989,-220.996 L 14.4467,-220.817 L 13.9756,-220.696 L 13.4932,-220.635 z
M 14.6869,-180.089 L 15.2951,-180.245 L 15.8789,-180.476 L 16.4291,-180.778 L 16.9371,-181.147 L 17.3948,-181.577
 L 17.7951,-182.061 L 18.1315,-182.591 L 18.3989,-183.159 L 18.5929,-183.757 L 18.7106,-184.373 L 18.75,-185
 L 18.75,-205 L 18.7106,-205.627 L 18.5929,-206.243 L 18.3989,-206.841 L 18.1315,-207.409 L 17.7951,-207.939
 L 17.3948,-208.423 L 16.9371,-208.853 L 16.4291,-209.222 L 15.8789,-209.524 L 15.2951,-209.755 L 14.6869,-209.911
 L 14.0639,-209.99 L -14.0639,-209.99 L -14.6869,-209.911 L -15.2951,-209.755 L -15.8789,-209.524 L -16.4291,-209.222
 L -16.9371,-208.853 L -17.3948,-208.423 L -17.7951,-207.939 L -18.1315,-207.409 L -18.3989,-206.841 L -18.5929,-206.243
 L -18.7106,-205.627 L -18.75,-205 L -18.75,-185 L -18.7106,-184.373 L -18.5929,-183.757 L -18.3989,-183.159
 L -18.1315,-182.591 L -17.7951,-182.061 L -17.3948,-181.577 L -16.9371,-181.147 L -16.4291,-180.778 L -15.8789,-180.476
 L -15.2951,-180.245 L -14.6869,-180.089 L -14.0639,-180.01 L 14.0639,-180.01 z
M -11.4007,-200.105 L -11.6997,-200.143 L -11.9916,-200.217 L -12.2719,-200.328 L -12.536,-200.474 L -12.7798,-200.651
 L -12.9995,-200.857 L -13.1916,-201.089 L -13.3531,-201.344 L -13.4815,-201.617 L -13.5746,-201.903 L -13.6311,-202.199
 L -13.65,-202.5 L -13.6311,-202.801 L -13.5746,-203.097 L -13.4815,-203.383 L -13.3531,-203.656 L -13.1916,-203.911
 L -12.9995,-204.143 L -12.7798,-204.349 L -12.536,-204.526 L -12.2719,-204.672 L -11.9916,-204.783 L -11.6997,-204.857
 L -11.4007,-204.895 L -11.0993,-204.895 L -10.8003,-204.857 L -10.5083,-204.783 L -10.2281,-204.672 L -9.964,-204.526
 L -9.72017,-204.349 L -9.50047,-204.143 L -9.30835,-203.911 L -9.14685,-203.656 L -9.01852,-203.383 L -8.9254,-203.097
 L -8.86891,-202.801 L -8.84999,-202.5 L -8.86891,-202.199 L -8.9254,-201.903 L -9.01852,-201.617 L -9.14685,-201.344
 L -9.30835,-201.089 L -9.50047,-200.857 L -9.72017,-200.651 L -9.964,-200.474 L -10.2281,-200.328 L -10.5083,-200.217
 L -10.8003,-200.143 L -11.0993,-200.105 z
M 11.0993,-200.105 L 10.8003,-200.143 L 10.5083,-200.217 L 10.2281,-200.328 L 9.964,-200.474 L 9.72017,-200.651
 L 9.50047,-200.857 L 9.30835,-201.089 L 9.14685,-201.344 L 9.01852,-201.617 L 8.9254,-201.903 L 8.86891,-202.199
 L 8.84999,-202.5 L 8.86891,-202.801 L 8.9254,-203.097 L 9.01852,-203.383 L 9.14685,-203.656 L 9.30835,-203.911
 L 9.50047,-204.143 L 9.72017,-204.349 L 9.964,-204.526 L 10.2281,-204.672 L 10.5083,-204.783 L 10.8003,-204.857
 L 11.0993,-204.895 L 11.4007,-204.895 L 11.6997,-204.857 L 11.9916,-204.783 L 12.2719,-204.672 L 12.536,-204.526
 L 12.7798,-204.349 L 12.9995,-204.143 L 13.1916,-203.911 L 13.3531,-203.656 L 13.4815,-203.383 L 13.5746,-203.097
 L 13.6311,-202.801 L 13.65,-202.5 L 13.6311,-202.199 L 13.5746,-201.903 L 13.4815,-201.617 L 13.3531,-201.344
 L 13.1916,-201.089 L 12.9995,-200.857 L 12.7798,-200.651 L 12.536,-200.474 L 12.2719,-200.328 L 11.9916,-200.217
 L 11.6997,-200.143 L 11.4007,-200.105 z
M 11.0993,-185.105 L 10.8003,-185.143 L 10.5083,-185.217 L 10.2281,-185.328 L 9.964,-185.474 L 9.72017,-185.651
 L 9.50047,-185.857 L 9.30835,-186.089 L 9.14685,-186.344 L 9.01852,-186.617 L 8.9254,-186.903 L 8.86891,-187.199
 L 8.84999,-187.5 L 8.86891,-187.801 L 8.9254,-188.097 L 9.01852,-188.383 L 9.14685,-188.656 L 9.30835,-188.911
 L 9.50047,-189.143 L 9.72017,-189.349 L 9.964,-189.526 L 10.2281,-189.672 L 10.5083,-189.783 L 10.8003,-189.857
 L 11.0993,-189.895 L 11.4007,-189.895 L 11.6997,-189.857 L 11.9916,-189.783 L 12.2719,-189.672 L 12.536,-189.526
 L 12.7798,-189.349 L 12.9995,-189.143 L 13.1916,-188.911 L 13.3531,-188.656 L 13.4815,-188.383 L 13.5746,-188.097
 L 13.6311,-187.801 L 13.65,-187.5 L 13.6311,-187.199 L 13.5746,-186.903 L 13.4815,-186.617 L 13.3531,-186.344
 L 13.1916,-186.089 L 12.9995,-185.857 L 12.7798,-185.651 L 12.536,-185.474 L 12.2719,-185.328 L 11.9916,-185.217
 L 11.6997,-185.143 L 11.4007,-185.105 z
M -11.4007,-185.105 L -11.6997,-185.143 L -11.9916,-185.217 L -12.2719,-185.328 L -12.536,-185.474 L -12.7798,-185.651
 L -12.9995,-185.857 L -13.1916,-186.089 L -13.3531,-186.344 L -13.4815,-186.617 L -13.5746,-186.903 L -13.6311,-187.199
 L -13.65,-187.5 L -13.6311,-187.801 L -13.5746,-188.097 L -13.4815,-188.383 L -13.3531,-188.656 L -13.1916,-188.911
 L -12.9995,-189.143 L -12.7798,-189.349 L -12.536,-189.526 L -12.2719,-189.672 L -11.9916,-189.783 L -11.6997,-189.857
 L -11.4007,-189.895 L -11.0993,-189.895 L -10.8003,-189.857 L -10.5083,-189.783 L -10.2281,-189.672 L -9.964,-189.526
 L -9.72017,-189.349 L -9.50047,-189.143 L -9.30835,-188.911 L -9.14685,-188.656 L -9.01852,-188.383 L -8.9254,-188.097
 L -8.86891,-187.801 L -8.84999,-187.5 L -8.86891,-187.199 L -8.9254,-186.903 L -9.01852,-186.617 L -9.14685,-186.344
 L -9.30835,-186.089 L -9.50047,-185.857 L -9.72017,-185.651 L -9.964,-185.474 L -10.2281,-185.328 L -10.5083,-185.217
 L -10.8003,-185.143 L -11.0993,-185.105 z
M 14.6869,-141.089 L 15.2951,-141.245 L 15.8789,-141.476 L 16.4291,-141.778 L 16.9371,-142.147 L 17.3948,-142.577
 L 17.7951,-143.061 L 18.1315,-143.591 L 18.3989,-144.159 L 18.5929,-144.757 L 18.7106,-145.373 L 18.75,-146
 L 18.75,-166 L 18.7106,-166.627 L 18.5929,-167.243 L 18.3989,-167.841 L 18.1315,-168.409 L 17.7951,-168.939
 L 17.3948,-169.423 L 16.9371,-169.853 L 16.4291,-170.222 L 15.8789,-170.524 L 15.2951,-170.755 L 14.6869,-170.911
 L 14.0639,-170.99 L -14.0639,-170.99 L -14.6869,-170.911 L -15.2951,-170.755 L -15.8789,-170.524 L -16.4291,-170.222
 L -16.9371,-169.853 L -17.3948,-169.423 L -17.7951,-168.939 L -18.1315,-168.409 L -18.3989,-167.841 L -18.5929,-167.243
 L -18.7106,-166.627 L -18.75,-166 L -18.75,-146 L -18.7106,-145.373 L -18.5929,-144.757 L -18.3989,-144.159
 L -18.1315,-143.591 L -17.7951,-143.061 L -17.3948,-142.577 L -16.9371,-142.147 L -16.4291,-141.778 L -15.8789,-141.476
 L -15.2951,-141.245 L -14.6869,-141.089 L -14.0639,-141.01 L 14.0639,-141.01 z
M -11.363,-161.704 L -11.5873,-161.732 L -11.8062,-161.788 L -12.0164,-161.871 L -12.2145,-161.98 L -12.3974,-162.113
 L -12.5621,-162.268 L -12.7062,-162.442 L -12.8273,-162.633 L -12.9236,-162.837 L -12.9934,-163.052 L -13.0358,-163.274
 L -13.05,-163.5 L -13.0358,-163.726 L -12.9934,-163.948 L -12.9236,-164.163 L -12.8273,-164.367 L -12.7062,-164.558
 L -12.5621,-164.732 L -12.3974,-164.887 L -12.2145,-165.02 L -12.0164,-165.129 L -11.8062,-165.212 L -11.5873,-165.268
 L -11.363,-165.296 L -11.137,-165.296 L -10.9127,-165.268 L -10.6938,-165.212 L -10.4836,-165.129 L -10.2855,-165.02
 L -10.1026,-164.887 L -9.93785,-164.732 L -9.79376,-164.558 L -9.67264,-164.367 L -9.5764,-164.163 L -9.50655,-163.948
 L -9.46419,-163.726 L -9.45,-163.5 L -9.46419,-163.274 L -9.50655,-163.052 L -9.5764,-162.837 L -9.67264,-162.633
 L -9.79376,-162.442 L -9.93785,-162.268 L -10.1026,-162.113 L -10.2855,-161.98 L -10.4836,-161.871 L -10.6938,-161.788
 L -10.9127,-161.732 L -11.137,-161.704 z
M 11.137,-161.704 L 10.9127,-161.732 L 10.6938,-161.788 L 10.4836,-161.871 L 10.2855,-161.98 L 10.1026,-162.113
 L 9.93785,-162.268 L 9.79376,-162.442 L 9.67264,-162.633 L 9.5764,-162.837 L 9.50655,-163.052 L 9.46419,-163.274
 L 9.45,-163.5 L 9.46419,-163.726 L 9.50655,-163.948 L 9.5764,-164.163 L 9.67264,-164.367 L 9.79376,-164.558
 L 9.93785,-164.732 L 10.1026,-164.887 L 10.2855,-165.02 L 10.4836,-165.129 L 10.6938,-165.212 L 10.9127,-165.268
 L 11.137,-165.296 L 11.363,-165.296 L 11.5873,-165.268 L 11.8062,-165.212 L 12.0164,-165.129 L 12.2145,-165.02
 L 12.3974,-164.887 L 12.5621,-164.732 L 12.7062,-164.558 L 12.8273,-164.367 L 12.9236,-164.163 L 12.9934,-163.948
 L 13.0358,-163.726 L 13.05,-163.5 L 13.0358,-163.274 L 12.9934,-163.052 L 12.9236,-162.837 L 12.8273,-162.633
 L 12.7062,-162.442 L 12.5621,-162.268 L 12.3974,-162.113 L 12.2145,-161.98 L 12.0164,-161.871 L 11.8062,-161.788
 L 11.5873,-161.732 L 11.363,-161.704 z
M 11.137,-146.704 L 10.9127,-146.732 L 10.6938,-146.788 L 10.4836,-146.871 L 10.2855,-146.98 L 10.1026,-147.113
 L 9.93785,-147.268 L 9.79376,-147.442 L 9.67264,-147.633 L 9.5764,-147.837 L 9.50655,-148.052 L 9.46419,-148.274
 L 9.45,-148.5 L 9.46419,-148.726 L 9.50655,-148.948 L 9.5764,-149.163 L 9.67264,-149.367 L 9.79376,-149.558
 L 9.93785,-149.732 L 10.1026,-149.887 L 10.2855,-150.02 L 10.4836,-150.129 L 10.6938,-150.212 L 10.9127,-150.268
 L 11.137,-150.296 L 11.363,-150.296 L 11.5873,-150.268 L 11.8062,-150.212 L 12.0164,-150.129 L 12.2145,-150.02
 L 12.3974,-149.887 L 12.5621,-149.732 L 12.7062,-149.558 L 12.8273,-149.367 L 12.9236,-149.163 L 12.9934,-148.948
 L 13.0358,-148.726 L 13.05,-148.5 L 13.0358,-148.274 L 12.9934,-148.052 L 12.9236,-147.837 L 12.8273,-147.633
 L 12.7062,-147.442 L 12.5621,-147.268 L 12.3974,-147.113 L 12.2145,-146.98 L 12.0164,-146.871 L 11.8062,-146.788
 L 11.5873,-146.732 L 11.363,-146.704 z
M -11.363,-146.704 L -11.5873,-146.732 L -11.8062,-146.788 L -12.0164,-146.871 L -12.2145,-146.98 L -12.3974,-147.113
 L -12.5621,-147.268 L -12.7062,-147.442 L -12.8273,-147.633 L -12.9236,-147.837 L -12.9934,-148.052 L -13.0358,-148.274
 L -13.05,-148.5 L -13.0358,-148.726 L -12.9934,-148.948 L -12.9236,-149.163 L -12.8273,-149.367 L -12.7062,-149.558
 L -12.5621,-149.732 L -12.3974,-149.887 L -12.2145,-150.02 L -12.0164,-150.129 L -11.8062,-150.212 L -11.5873,-150.268
 L -11.363,-150.296 L -11.137,-150.296 L -10.9127,-150.268 L -10.6938,-150.212 L -10.4836,-150.129 L -10.2855,-150.02
 L -10.1026,-149.887 L -9.93785,-149.732 L -9.79376,-149.558 L -9.67264,-149.367 L -9.5764,-149.163 L -9.50655,-148.948
 L -9.46419,-148.726 L -9.45,-148.5 L -9.46419,-148.274 L -9.50655,-148.052 L -9.5764,-147.837 L -9.67264,-147.633
 L -9.79376,-147.442 L -9.93785,-147.268 L -10.1026,-147.113 L -10.2855,-146.98 L -10.4836,-146.871 L -10.6938,-146.788
 L -10.9127,-146.732 L -11.137,-146.704 z
" stroke="black" fill="lightgray" stroke-width="0.5"/>
</svg>
