<?xml version="1.0" standalone="no"?>
<!DOCTYPE svg PUBLIC "-//W3C//DTD SVG 1.1//EN" "http://www.w3.org/Graphics/SVG/1.1/DTD/svg11.dtd">
<svg width="90mm" height="387mm" viewBox="-45 -639 90 387" xmlns="http://www.w3.org/2000/svg" version="1.1">
<title>OpenSCAD Model</title>
<path d="
M 40.9369,-549.089 L 41.5451,-549.245 L 42.1289,-549.476 L 42.6791,-549.778 L 43.1871,-550.147 L 43.6448,-550.577
 L 44.0451,-551.061 L 44.3815,-551.591 L 44.6489,-552.159 L 44.8429,-552.757 L 44.9606,-553.373 L 45,-554
 L 45,-634 L 44.9606,-634.627 L 44.8429,-635.243 L 44.6489,-635.841 L 44.3815,-636.409 L 44.0451,-636.939
 L 43.6448,-637.423 L 43.1871,-637.853 L 42.6791,-638.222 L 42.1289,-638.524 L 41.5451,-638.755 L 40.9369,-638.911
 L 40.3139,-638.99 L -40.3139,-638.99 L -40.9369,-638.911 L -41.5451,-638.755 L -42.1289,-638.524 L -42.6791,-638.222
 L -43.1871,-637.853 L -43.6448,-637.423 L -44.0451,-636.939 L -44.3815,-636.409 L -44.6489,-635.841 L -44.8429,-635.243
 L -44.9606,-634.627 L -45,-634 L -45,-554 L -44.9606,-553.373 L -44.8429,-552.757 L -44.6489,-552.159
 L -44.3815,-551.591 L -44.0451,-551.061 L -43.6448,-550.577 L -43.1871,-550.147 L -42.6791,-549.778 L -42.1289,-549.476
 L -41.5451,-549.245 L -40.9369,-549.089 L -40.3139,-549.01 L 40.3139,-549.01 z
M -40.0482,-549.509 L -40.6401,-549.584 L -41.2178,-549.732 L -41.7724,-549.952 L -42.2952,-550.239 L -42.7778,-550.59
 L -43.2126,-550.998 L -43.5928,-551.458 L -43.9124,-551.962 L -44.1664,-552.501 L -44.3508,-553.069 L -44.4625,-553.655
 L -44.5,-554.25 L -44.5,-633.75 L -44.4625,-634.345 L -44.3508,-634.931 L -44.1664,-635.499 L -43.9124,-636.038
 L -43.5928,-636.542 L -43.2126,-637.002 L -42.7778,-637.41 L -42.2952,-637.761 L -41.7724,-638.048 L -41.2178,-638.268
 L -40.6401,-638.416 L -40.0482,-638.491 L 40.0482,-638.491 L 40.6401,-638.416 L 41.2178,-638.268 L 41.7724,-638.048
 L 42.2952,-637.761 L 42.7778,-637.41 L 43.2126,-637.002 L 43.5928,-636.542 L 43.9124,-636.038 L 44.1664,-635.499
 L 44.3508,-634.931 L 44.4625,-634.345 L 44.5,-633.75 L 44.5,-554.25 L 44.4625,-553.655 L 44.3508,-553.069
 L 44.1664,-552.501 L 43.9124,-551.962 L 43.5928,-551.458 L 43.2126,-550.998 L 42.7778,-550.59 L 42.2952,-550.239
 L 41.7724,-549.952 L 41.2178,-549.732 L 40.6401,-549.584 L 40.0482,-549.509 z
M 40.9369,-450.089 L 41.5451,-450.245 L 42.1289,-450.476 L 42.6791,-450.778 L 43.1871,-451.147 L 43.6448,-451.577
 L 44.0451,-452.061 L 44.3815,-452.591 L 44.6489,-453.159 L 44.8429,-453.757 L 44.9606,-454.373 L 45,-455
 L 45,-535 L 44.9606,-535.627 L 44.8429,-536.243 L 44.6489,-536.841 L 44.3815,-537.409 L 44.0451,-537.939
 L 43.6448,-538.423 L 43.1871,-538.853 L 42.6791,-539.222 L 42.1289,-539.524 L 41.5451,-539.755 L 40.9369,-539.911
 L 40.3139,-539.99 L -40.3139,-539.99 L -40.9369,-539.911 L -41.5451,-539.755 L -42.1289,-539.524 L -42.6791,-539.222
 L -43.1871,-538.853 L -43.6448,-538.423 L -44.0451,-537.939 L -44.3815,-537.409 L -44.6489,-536.841 L -44.8429,-536.243
 L -44.9606,-535.627 L -45,-535 L -45,-455 L -44.9606,-454.373 L -44.8429,-453.757 L -44.6489,-453.159
 L -44.3815,-452.591 L -44.0451,-452.061 L -43.6448,-451.577 L -43.1871,-451.147 L -42.6791,-450.778 L -42.1289,-450.476
 L -41.5451,-450.245 L -40.9369,-450.089 L -40.3139,-450.01 L 40.3139,-450.01 z
M -40.0482,-450.509 L -40.6401,-450.584 L -41.2178,-450.732 L -41.7724,-450.952 L -42.2952,-451.239 L -42.7778,-451.59
 L -43.2126,-451.998 L -43.5928,-452.458 L -43.9124,-452.962 L -44.1664,-453.501 L -44.3508,-454.069 L -44.4625,-454.655
 L -44.5,-455.25 L -44.5,-534.75 L -44.4625,-535.345 L -44.3508,-535.931 L -44.1664,-536.499 L -43.9124,-537.038
 L -43.5928,-537.542 L -43.2126,-538.002 L -42.7778,-538.41 L -42.2952,-538.761 L -41.7724,-539.048 L -41.2178,-539.268
 L -40.6401,-539.416 L -40.0482,-539.491 L 40.0482,-539.491 L 40.6401,-539.416 L 41.2178,-539.268 L 41.7724,-539.048
 L 42.2952,-538.761 L 42.7778,-538.41 L 43.2126,-538.002 L 43.5928,-537.542 L 43.9124,-537.038 L 44.1664,-536.499
 L 44.3508,-535.931 L 44.4625,-535.345 L 44.5,-534.75 L 44.5,-455.25 L 44.4625,-454.655 L 44.3508,-454.069
 L 44.1664,-453.501 L 43.9124,-452.962 L 43.5928,-452.458 L 43.2126,-451.998 L 42.7778,-451.59 L 42.2952,-451.239
 L 41.7724,-450.952 L 41.2178,-450.732 L 40.6401,-450.584 L 40.0482,-450.509 z
M 40.9369,-351.089 L 41.5451,-351.245 L 42.1289,-351.476 L 42.6791,-351.778 L 43.1871,-352.147 L 43.6448,-352.577
 L 44.0451,-353.061 L 44.3815,-353.591 L 44.6489,-354.159 L 44.8429,-354.757 L 44.9606,-355.373 L 45,-356
 L 45,-436 L 44.9606,-436.627 L 44.8429,-437.243 L 44.6489,-437.841 L 44.3815,-438.409 L 44.0451,-438.939
 L 43.6448,-439.423 L 43.1871,-439.853 L 42.6791,-440.222 L 42.1289,-440.524 L 41.5451,-440.755 L 40.9369,-440.911
 L 40.3139,-440.99 L -40.3139,-440.99 L -40.9369,-440.911 L -41.5451,-440.755 L -42.1289,-440.524 L -42.6791,-440.222
 L -43.1871,-439.853 L -43.6448,-439.423 L -44.0451,-438.939 L -44.3815,-438.409 L -44.6489,-437.841 L -44.8429,-437.243
 L -44.9606,-436.627 L -45,-436 L -45,-356 L -44.9606,-355.373 L -44.8429,-354.757 L -44.6489,-354.159
 L -44.3815,-353.591 L -44.0451,-353.061 L -43.6448,-352.577 L -43.1871,-352.147 L -42.6791,-351.778 L -42.1289,-351.476
 L -41.5451,-351.245 L -40.9369,-351.089 L -40.3139,-351.01 L 40.3139,-351.01 z
M -39.993,-352.388 L -40.4751,-352.449 L -40.9457,-352.57 L -41.3975,-352.749 L -41.8234,-352.983 L -42.2165,-353.269
 L -42.5707,-353.601 L -42.8805,-353.976 L -43.1408,-354.386 L -43.3477,-354.826 L -43.4979,-355.288 L -43.589,-355.765
 L -43.6195,-356.25 L -43.6195,-435.75 L -43.589,-436.235 L -43.4979,-436.712 L -43.3477,-437.174 L -43.1408,-437.614
 L -42.8805,-438.024 L -42.5707,-438.399 L -42.2165,-438.731 L -41.8234,-439.017 L -41.3975,-439.251 L -40.9457,-439.43
 L -40.4751,-439.551 L -39.993,-439.612 L 39.993,-439.612 L 40.4751,-439.551 L 40.9457,-439.43 L 41.3975,-439.251
 L 41.8234,-439.017 L 42.2165,-438.731 L 42.5707,-438.399 L 42.8805,-438.024 L 43.1408,-437.614 L 43.3477,-437.174
 L 43.4979,-436.712 L 43.589,-436.235 L 43.6195,-435.75 L 43.6195,-356.25 L 43.589,-355.765 L 43.4979,-355.288
 L 43.3477,-354.826 L 43.1408,-354.386 L 42.8805,-353.976 L 42.5707,-353.601 L 42.2165,-353.269 L 41.8234,-352.983
 L 41.3975,-352.749 L 40.9457,-352.57 L 40.4751,-352.449 L 39.993,-352.388 z
M 40.9369,-252.089 L 41.5451,-252.245 L 42.1289,-252.476 L 42.6791,-252.778 L 43.1871,-253.147 L 43.6448,-253.577
 L 44.0451,-254.061 L 44.3815,-254.591 L 44.6489,-255.159 L 44.8429,-255.757 L 44.9606,-256.373 L 45,-257
 L 45,-337 L 44.9606,-337.627 L 44.8429,-338.243 L 44.6489,-338.841 L 44.3815,-339.409 L 44.0451,-339.939
 L 43.6448,-340.423 L 43.1871,-340.853 L 42.6791,-341.222 L 42.1289,-341.524 L 41.5451,-341.755 L 40.9369,-341.911
 L 40.3139,-341.99 L -40.3139,-341.99 L -40.9369,-341.911 L -41.5451,-341.755 L -42.1289,-341.524 L -42.6791,-341.222
 L -43.1871,-340.853 L -43.6448,-340.423 L -44.0451,-339.939 L -44.3815,-339.409 L -44.6489,-338.841 L -44.8429,-338.243
 L -44.9606,-337.627 L -45,-337 L -45,-257 L -44.9606,-256.373 L -44.8429,-255.757 L -44.6489,-255.159
 L -44.3815,-254.591 L -44.0451,-254.061 L -43.6448,-253.577 L -43.1871,-253.147 L -42.6791,-252.778 L -42.1289,-252.476
 L -41.5451,-252.245 L -40.9369,-252.089 L -40.3139,-252.01 L 40.3139,-252.01 z
M -37.613,-332.704 L -37.8373,-332.732 L -38.0562,-332.788 L -38.2664,-332.871 L -38.4645,-332.98 L -38.6474,-333.113
 L -38.8121,-333.268 L -38.9562,-333.442 L -39.0773,-333.633 L -39.1736,-333.837 L -39.2434,-334.052 L -39.2858,-334.274
 L -39.3,-334.5 L -39.2858,-334.726 L -39.2434,-334.948 L -39.1736,-335.163 L -39.0773,-335.367 L -38.9562,-335.558
 L -38.8121,-335.732 L -38.6474,-335.887 L -38.4645,-336.02 L -38.2664,-336.129 L -38.0562,-336.212 L -37.8373,-336.268
 L -37.613,-336.296 L -37.387,-336.296 L -37.1627,-336.268 L -36.9438,-336.212 L -36.7336,-336.129 L -36.5355,-336.02
 L -36.3526,-335.887 L -36.1879,-335.732 L -36.0438,-335.558 L -35.9226,-335.367 L -35.8264,-335.163 L -35.7565,-334.948
 L -35.7142,-334.726 L -35.7,-334.5 L -35.7142,-334.274 L -35.7565,-334.052 L -35.8264,-333.837 L -35.9226,-333.633
 L -36.0438,-333.442 L -36.1879,-333.268 L -36.3526,-333.113 L -36.5355,-332.98 L -36.7336,-332.871 L -36.9438,-332.788
 L -37.1627,-332.732 L -37.387,-332.704 z
M 37.387,-332.704 L 37.1627,-332.732 L 36.9438,-332.788 L 36.7336,-332.871 L 36.5355,-332.98 L 36.3526,-333.113
 L 36.1879,-333.268 L 36.0438,-333.442 L 35.9226,-333.633 L 35.8264,-333.837 L 35.7565,-334.052 L 35.7142,-334.274
 L 35.7,-334.5 L 35.7142,-334.726 L 35.7565,-334.948 L 35.8264,-335.163 L 35.9226,-335.367 L 36.0438,-335.558
 L 36.1879,-335.732 L 36.3526,-335.887 L 36.5355,-336.02 L 36.7336,-336.129 L 36.9438,-336.212 L 37.1627,-336.268
 L 37.387,-336.296 L 37.613,-336.296 L 37.8373,-336.268 L 38.0562,-336.212 L 38.2664,-336.129 L 38.4645,-336.02
 L 38.6474,-335.887 L 38.8121,-335.732 L 38.9562,-335.558 L 39.0773,-335.367 L 39.1736,-335.163 L 39.2434,-334.948
 L 39.2858,-334.726 L 39.3,-334.5 L 39.2858,-334.274 L 39.2434,-334.052 L 39.1736,-333.837 L 39.0773,-333.633
 L 38.9562,-333.442 L 38.8121,-333.268 L 38.6474,-333.113 L 38.4645,-332.98 L 38.2664,-332.871 L 38.0562,-332.788
 L 37.8373,-332.732 L 37.613,-332.704 z
M -37.613,-257.704 L -37.8373,-257.732 L -38.0562,-257.788 L -38.2664,-257.871 L -38.4645,-257.98 L -38.6474,-258.113
 L -38.8121,-258.268 L -38.9562,-258.442 L -39.0773,-258.633 L -39.1736,-258.837 L -39.2434,-259.052 L -39.2858,-259.274
 L -39.3,-259.5 L -39.2858,-259.726 L -39.2434,-259.948 L -39.1736,-260.163 L -39.0773,-260.367 L -38.9562,-260.558
 L -38.8121,-260.732 L -38.6474,-260.887 L -38.4645,-261.02 L -38.2664,-261.129 L -38.0562,-261.212 L -37.8373,-261.268
 L -37.613,-261.296 L -37.387,-261.296 L -37.1627,-261.268 L -36.9438,-261.212 L -36.7336,-261.129 L -36.5355,-261.02
 L -36.3526,-260.887 L -36.1879,-260.732 L -36.0438,-260.558 L -35.9226,-260.367 L -35.8264,-260.163 L -35.7565,-259.948
 L -35.7142,-259.726 L -35.7,-259.5 L -35.7142,-259.274 L -35.7565,-259.052 L -35.8264,-258.837 L -35.9226,-258.633
 L -36.0438,-258.442 L -36.1879,-258.268 L -36.3526,-258.113 L -36.5355,-257.98 L -36.7336,-257.871 L -36.9438,-257.788
 L -37.1627,-257.732 L -37.387,-257.704 z
M 37.387,-257.704 L 37.1627,-257.732 L 36.9438,-257.788 L 36.7336,-257.871 L 36.5355,-257.98 L 36.3526,-258.113
 L 36.1879,-258.268 L 36.0438,-258.442 L 35.9226,-258.633 L 35.8264,-258.837 L 35.7565,-259.052 L 35.7142,-259.274
 L 35.7,-259.5 L 35.7142,-259.726 L 35.7565,-259.948 L 35.8264,-260.163 L 35.9226,-260.367 L 36.0438,-260.558
 L 36.1879,-260.732 L 36.3526,-260.887 L 36.5355,-261.02 L 36.7336,-261.129 L 36.9438,-261.212 L 37.1627,-261.268
 L 37.387,-261.296 L 37.613,-261.296 L 37.8373,-261.268 L 38.0562,-261.212 L 38.2664,-261.129 L 38.4645,-261.02
 L 38.6474,-260.887 L 38.8121,-260.732 L 38.9562,-260.558 L 39.0773,-260.367 L 39.1736,-260.163 L 39.2434,-259.948
 L 39.2858,-259.726 L 39.3,-259.5 L 39.2858,-259.274 L 39.2434,-259.052 L 39.1736,-258.837 L 39.0773,-258.633
 L 38.9562,-258.442 L 38.8121,-258.268 L 38.6474,-258.113 L 38.4645,-257.98 L 38.2664,-257.871 L 38.0562,-257.788
 L 37.8373,-257.732 L 37.613,-257.704 z
" stroke="black" fill="lightgray" stroke-width="0.5"/>
</svg>
