<?xml version="1.0" standalone="no"?>
<!DOCTYPE svg PUBLIC "-//W3C//DTD SVG 1.1//EN" "http://www.w3.org/Graphics/SVG/1.1/DTD/svg11.dtd">
<svg width="60mm" height="603mm" viewBox="-30 -710 60 603" xmlns="http://www.w3.org/2000/svg" version="1.1">
<title>OpenSCAD Model</title>
<path d="
M -27,-514.925 L -26.5451,-514.745 L -25.9369,-514.589 L -25.3139,-514.51 L 25.3139,-514.51 L 25.9369,-514.589
 L 26.5451,-514.745 L 27.1289,-514.976 L 27.6791,-515.278 L 28.1871,-515.647 L 28.6448,-516.077 L 29.0451,-516.561
 L 29.3815,-517.091 L 29.6489,-517.659 L 29.8429,-518.257 L 29.9606,-518.873 L 30,-519.5 L 30,-704.5
 L 29.9606,-705.127 L 29.8429,-705.743 L 29.6489,-706.341 L 29.3815,-706.909 L 29.0451,-707.439 L 28.6448,-707.923
 L 28.1871,-708.353 L 27.6791,-708.722 L 27.1289,-709.024 L 26.5451,-709.255 L 25.9369,-709.411 L 25.3139,-709.49
 L -25.3139,-709.49 L -25.9369,-709.411 L -26.5451,-709.255 L -27,-709.075 L -27,-709.49 L -30,-709.49
 L -30,-514.51 L -27,-514.51 z
M -24.6954,-516.893 L -25.0833,-516.942 L -25.4619,-517.039 L -25.8254,-517.183 L -26.168,-517.372 L -26.4842,-517.601
 L -26.7692,-517.869 L -27.0184,-518.17 L -27.2279,-518.5 L -27.3943,-518.854 L -27.5151,-519.226 L -27.5884,-519.61
 L -27.6129,-520 L -27.6129,-704 L -27.5884,-704.39 L -27.5151,-704.774 L -27.3943,-705.146 L -27.2279,-705.5
 L -27.0184,-705.83 L -26.7692,-706.131 L -26.4842,-706.399 L -26.168,-706.628 L -25.8254,-706.817 L -25.4619,-706.961
 L -25.0833,-707.058 L -24.6954,-707.107 L 24.6954,-707.107 L 25.0833,-707.058 L 25.4619,-706.961 L 25.8254,-706.817
 L 26.168,-706.628 L 26.4842,-706.399 L 26.7692,-706.131 L 27.0184,-705.83 L 27.2279,-705.5 L 27.3943,-705.146
 L 27.5151,-704.774 L 27.5884,-704.39 L 27.6129,-704 L 27.6129,-520 L 27.5884,-519.61 L 27.5151,-519.226
 L 27.3943,-518.854 L 27.2279,-518.5 L 27.0184,-518.17 L 26.7692,-517.869 L 26.4842,-517.601 L 26.168,-517.372
 L 25.8254,-517.183 L 25.4619,-517.039 L 25.0833,-516.942 L 24.6954,-516.893 z
M 25.9369,-310.589 L 26.5451,-310.745 L 27.1289,-310.976 L 27.6791,-311.278 L 28.1871,-311.647 L 28.6448,-312.077
 L 29.0451,-312.561 L 29.3815,-313.091 L 29.6489,-313.659 L 29.8429,-314.257 L 29.9606,-314.873 L 30,-315.5
 L 30,-500.5 L 29.9606,-501.127 L 29.8429,-501.743 L 29.6489,-502.341 L 29.3815,-502.909 L 29.0451,-503.439
 L 28.6448,-503.923 L 28.1871,-504.353 L 27.6791,-504.722 L 27.1289,-505.024 L 26.5451,-505.255 L 25.9369,-505.411
 L 25.3139,-505.49 L -25.3139,-505.49 L -25.9369,-505.411 L -26.5451,-505.255 L -27,-505.075 L -27,-505.479
 L -30,-505.479 L -30,-310.521 L -27,-310.521 L -27,-310.925 L -26.5451,-310.745 L -25.9369,-310.589
 L -25.3139,-310.51 L 25.3139,-310.51 z
M 22.3659,-495.869 L 22.0999,-495.903 L 21.8401,-495.969 L 21.5908,-496.068 L 21.3559,-496.197 L 21.1389,-496.355
 L 20.9434,-496.538 L 20.7725,-496.745 L 20.6288,-496.971 L 20.5146,-497.214 L 20.4318,-497.469 L 20.3815,-497.732
 L 20.3647,-498 L 20.3815,-498.268 L 20.4318,-498.531 L 20.5146,-498.786 L 20.6288,-499.029 L 20.7725,-499.255
 L 20.9434,-499.462 L 21.1389,-499.645 L 21.3559,-499.803 L 21.5908,-499.932 L 21.8401,-500.031 L 22.0999,-500.097
 L 22.3659,-500.131 L 22.6341,-500.131 L 22.9001,-500.097 L 23.1598,-500.031 L 23.4091,-499.932 L 23.6441,-499.803
 L 23.8611,-499.645 L 24.0565,-499.462 L 24.2275,-499.255 L 24.3712,-499.029 L 24.4853,-498.786 L 24.5682,-498.531
 L 24.6185,-498.268 L 24.6353,-498 L 24.6185,-497.732 L 24.5682,-497.469 L 24.4853,-497.214 L 24.3712,-496.971
 L 24.2275,-496.745 L 24.0565,-496.538 L 23.8611,-496.355 L 23.6441,-496.197 L 23.4091,-496.068 L 23.1598,-495.969
 L 22.9001,-495.903 L 22.6341,-495.869 z
M -22.6341,-495.869 L -22.9001,-495.903 L -23.1598,-495.969 L -23.4091,-496.068 L -23.6441,-496.197 L -23.8611,-496.355
 L -24.0565,-496.538 L -24.2275,-496.745 L -24.3712,-496.971 L -24.4853,-497.214 L -24.5682,-497.469 L -24.6185,-497.732
 L -24.6353,-498 L -24.6185,-498.268 L -24.5682,-498.531 L -24.4853,-498.786 L -24.3712,-499.029 L -24.2275,-499.255
 L -24.0565,-499.462 L -23.8611,-499.645 L -23.6441,-499.803 L -23.4091,-499.932 L -23.1598,-500.031 L -22.9001,-500.097
 L -22.6341,-500.131 L -22.3659,-500.131 L -22.0999,-500.097 L -21.8401,-500.031 L -21.5908,-499.932 L -21.3559,-499.803
 L -21.1389,-499.645 L -20.9434,-499.462 L -20.7725,-499.255 L -20.6288,-499.029 L -20.5146,-498.786 L -20.4318,-498.531
 L -20.3815,-498.268 L -20.3647,-498 L -20.3815,-497.732 L -20.4318,-497.469 L -20.5146,-497.214 L -20.6288,-496.971
 L -20.7725,-496.745 L -20.9434,-496.538 L -21.1389,-496.355 L -21.3559,-496.197 L -21.5908,-496.068 L -21.8401,-495.969
 L -22.0999,-495.903 L -22.3659,-495.869 z
M 22.3659,-315.869 L 22.0999,-315.903 L 21.8401,-315.969 L 21.5908,-316.068 L 21.3559,-316.197 L 21.1389,-316.355
 L 20.9434,-316.538 L 20.7725,-316.745 L 20.6288,-316.971 L 20.5146,-317.214 L 20.4318,-317.469 L 20.3815,-317.732
 L 20.3647,-318 L 20.3815,-318.268 L 20.4318,-318.531 L 20.5146,-318.786 L 20.6288,-319.029 L 20.7725,-319.255
 L 20.9434,-319.462 L 21.1389,-319.645 L 21.3559,-319.803 L 21.5908,-319.932 L 21.8401,-320.031 L 22.0999,-320.097
 L 22.3659,-320.131 L 22.6341,-320.131 L 22.9001,-320.097 L 23.1598,-320.031 L 23.4091,-319.932 L 23.6441,-319.803
 L 23.8611,-319.645 L 24.0565,-319.462 L 24.2275,-319.255 L 24.3712,-319.029 L 24.4853,-318.786 L 24.5682,-318.531
 L 24.6185,-318.268 L 24.6353,-318 L 24.6185,-317.732 L 24.5682,-317.469 L 24.4853,-317.214 L 24.3712,-316.971
 L 24.2275,-316.745 L 24.0565,-316.538 L 23.8611,-316.355 L 23.6441,-316.197 L 23.4091,-316.068 L 23.1598,-315.969
 L 22.9001,-315.903 L 22.6341,-315.869 z
M -22.6341,-315.869 L -22.9001,-315.903 L -23.1598,-315.969 L -23.4091,-316.068 L -23.6441,-316.197 L -23.8611,-316.355
 L -24.0565,-316.538 L -24.2275,-316.745 L -24.3712,-316.971 L -24.4853,-317.214 L -24.5682,-317.469 L -24.6185,-317.732
 L -24.6353,-318 L -24.6185,-318.268 L -24.5682,-318.531 L -24.4853,-318.786 L -24.3712,-319.029 L -24.2275,-319.255
 L -24.0565,-319.462 L -23.8611,-319.645 L -23.6441,-319.803 L -23.4091,-319.932 L -23.1598,-320.031 L -22.9001,-320.097
 L -22.6341,-320.131 L -22.3659,-320.131 L -22.0999,-320.097 L -21.8401,-320.031 L -21.5908,-319.932 L -21.3559,-319.803
 L -21.1389,-319.645 L -20.9434,-319.462 L -20.7725,-319.255 L -20.6288,-319.029 L -20.5146,-318.786 L -20.4318,-318.531
 L -20.3815,-318.268 L -20.3647,-318 L -20.3815,-317.732 L -20.4318,-317.469 L -20.5146,-317.214 L -20.6288,-316.971
 L -20.7725,-316.745 L -20.9434,-316.538 L -21.1389,-316.355 L -21.3559,-316.197 L -21.5908,-316.068 L -21.8401,-315.969
 L -22.0999,-315.903 L -22.3659,-315.869 z
M -27,-300.153 L -30,-300.153 L -30,-107.847 L -27,-107.847 z
" stroke="black" fill="lightgray" stroke-width="0.5"/>
</svg>
