<?xml version="1.0" standalone="no"?>
<!DOCTYPE svg PUBLIC "-//W3C//DTD SVG 1.1//EN" "http://www.w3.org/Graphics/SVG/1.1/DTD/svg11.dtd">
<svg width="136mm" height="558mm" viewBox="-68 -1035 136 558" xmlns="http://www.w3.org/2000/svg" version="1.1">
<title>OpenSCAD Model</title>
<path d="
M 63.4369,-855.089 L 64.0451,-855.245 L 64.6289,-855.476 L 65.1791,-855.778 L 65.6871,-856.147 L 66.1448,-856.577
 L 66.5451,-857.061 L 66.8815,-857.591 L 67.1489,-858.159 L 67.3429,-858.757 L 67.4606,-859.373 L 67.5,-860
 L 67.5,-1030 L 67.4606,-1030.63 L 67.3429,-1031.24 L 67.1489,-1031.84 L 66.8815,-1032.41 L 66.5451,-1032.94
 L 66.1448,-1033.42 L 65.6871,-1033.85 L 65.1791,-1034.22 L 64.6289,-1034.52 L 64.0451,-1034.76 L 63.4369,-1034.91
 L 62.8139,-1034.99 L -62.8139,-1034.99 L -63.4369,-1034.91 L -64.0451,-1034.76 L -64.5,-1034.58 L -64.5,-1034.98
 L -67.5,-1034.98 L -67.5,-855.021 L -64.5,-855.021 L -64.5,-855.425 L -64.0451,-855.245 L -63.4369,-855.089
 L -62.8139,-855.01 L 62.8139,-855.01 z
M -62.2512,-856.508 L -62.7495,-856.571 L -63.2361,-856.696 L -63.7031,-856.881 L -64.1433,-857.123 L -64.5497,-857.418
 L -64.9159,-857.762 L -65.2361,-858.149 L -65.5052,-858.573 L -65.7191,-859.028 L -65.8743,-859.505 L -65.9685,-859.999
 L -66,-860.5 L -66,-1029.5 L -65.9685,-1030 L -65.8743,-1030.49 L -65.7191,-1030.97 L -65.5052,-1031.43
 L -65.2361,-1031.85 L -64.9159,-1032.24 L -64.5497,-1032.58 L -64.1433,-1032.88 L -63.7031,-1033.12 L -63.2361,-1033.3
 L -62.7495,-1033.43 L -62.2512,-1033.49 L 62.2512,-1033.49 L 62.7495,-1033.43 L 63.2361,-1033.3 L 63.7031,-1033.12
 L 64.1433,-1032.88 L 64.5497,-1032.58 L 64.9159,-1032.24 L 65.2361,-1031.85 L 65.5052,-1031.43 L 65.7191,-1030.97
 L 65.8743,-1030.49 L 65.9685,-1030 L 66,-1029.5 L 66,-860.5 L 65.9685,-859.999 L 65.8743,-859.505
 L 65.7191,-859.028 L 65.5052,-858.573 L 65.2361,-858.149 L 64.9159,-857.762 L 64.5497,-857.418 L 64.1433,-857.123
 L 63.7031,-856.881 L 63.2361,-856.696 L 62.7495,-856.571 L 62.2512,-856.508 z
M 63.4369,-666.089 L 64.0451,-666.245 L 64.6289,-666.476 L 65.1791,-666.778 L 65.6871,-667.147 L 66.1448,-667.577
 L 66.5451,-668.061 L 66.8815,-668.591 L 67.1489,-669.159 L 67.3429,-669.757 L 67.4606,-670.373 L 67.5,-671
 L 67.5,-841 L 67.4606,-841.627 L 67.3429,-842.243 L 67.1489,-842.841 L 66.8815,-843.409 L 66.5451,-843.939
 L 66.1448,-844.423 L 65.6871,-844.853 L 65.1791,-845.222 L 64.6289,-845.524 L 64.0451,-845.755 L 63.4369,-845.911
 L 62.8139,-845.99 L -62.8139,-845.99 L -63.4369,-845.911 L -64.0451,-845.755 L -64.6289,-845.524 L -65.1791,-845.222
 L -65.6871,-844.853 L -65.9,-844.653 L -67.5,-844.653 L -67.5,-667.347 L -65.9,-667.347 L -65.6871,-667.147
 L -65.1791,-666.778 L -64.6289,-666.476 L -64.0451,-666.245 L -63.4369,-666.089 L -62.8139,-666.01 L 62.8139,-666.01
 z
M -62.1954,-668.393 L -62.5833,-668.442 L -62.9619,-668.539 L -63.3254,-668.683 L -63.668,-668.872 L -63.9842,-669.101
 L -64.2692,-669.369 L -64.5184,-669.67 L -64.7279,-670 L -64.8943,-670.354 L -65.0151,-670.726 L -65.0884,-671.11
 L -65.1129,-671.5 L -65.1129,-840.5 L -65.0884,-840.89 L -65.0151,-841.274 L -64.8943,-841.646 L -64.7279,-842
 L -64.5184,-842.33 L -64.2692,-842.631 L -63.9842,-842.899 L -63.668,-843.128 L -63.3254,-843.317 L -62.9619,-843.461
 L -62.5833,-843.558 L -62.1954,-843.607 L 62.1954,-843.607 L 62.5833,-843.558 L 62.9619,-843.461 L 63.3254,-843.317
 L 63.668,-843.128 L 63.9842,-842.899 L 64.2692,-842.631 L 64.5184,-842.33 L 64.7279,-842 L 64.8943,-841.646
 L 65.0151,-841.274 L 65.0884,-840.89 L 65.1129,-840.5 L 65.1129,-671.5 L 65.0884,-671.11 L 65.0151,-670.726
 L 64.8943,-670.354 L 64.7279,-670 L 64.5184,-669.67 L 64.2692,-669.369 L 63.9842,-669.101 L 63.668,-668.872
 L 63.3254,-668.683 L 62.9619,-668.539 L 62.5833,-668.442 L 62.1954,-668.393 z
M 63.4369,-477.089 L 64.0451,-477.245 L 64.6289,-477.476 L 65.1791,-477.778 L 65.6871,-478.147 L 66.1448,-478.577
 L 66.5451,-479.061 L 66.8815,-479.591 L 67.1489,-480.159 L 67.3429,-480.757 L 67.4606,-481.373 L 67.5,-482
 L 67.5,-652 L 67.4606,-652.627 L 67.3429,-653.243 L 67.1489,-653.841 L 66.8815,-654.409 L 66.5451,-654.939
 L 66.1448,-655.423 L 65.6871,-655.853 L 65.1791,-656.222 L 64.6289,-656.524 L 64.0451,-656.755 L 63.4369,-656.911
 L 62.8139,-656.99 L -62.8139,-656.99 L -63.4369,-656.911 L -64.0451,-656.755 L -64.6289,-656.524 L -65.1791,-656.222
 L -65.6871,-655.853 L -66.1448,-655.423 L -66.5451,-654.939 L -66.8815,-654.409 L -67.1489,-653.841 L -67.3429,-653.243
 L -67.4606,-652.627 L -67.5,-652 L -67.5,-482 L -67.4606,-481.373 L -67.3429,-480.757 L -67.1489,-480.159
 L -66.8815,-479.591 L -66.5451,-479.061 L -66.1448,-478.577 L -65.6871,-478.147 L -65.1791,-477.778 L -64.6289,-477.476
 L -64.0451,-477.245 L -63.4369,-477.089 L -62.8139,-477.01 L 62.8139,-477.01 z
M 59.8659,-647.369 L 59.5999,-647.403 L 59.3401,-647.469 L 59.0908,-647.568 L 58.8559,-647.697 L 58.6389,-647.855
 L 58.4434,-648.038 L 58.2725,-648.245 L 58.1288,-648.471 L 58.0146,-648.714 L 57.9318,-648.969 L 57.8815,-649.232
 L 57.8647,-649.5 L 57.8815,-649.768 L 57.9318,-650.031 L 58.0146,-650.286 L 58.1288,-650.529 L 58.2725,-650.755
 L 58.4434,-650.962 L 58.6389,-651.145 L 58.8559,-651.303 L 59.0908,-651.432 L 59.3401,-651.531 L 59.5999,-651.597
 L 59.8659,-651.631 L 60.1341,-651.631 L 60.4001,-651.597 L 60.6598,-651.531 L 60.9092,-651.432 L 61.1441,-651.303
 L 61.3611,-651.145 L 61.5565,-650.962 L 61.7275,-650.755 L 61.8712,-650.529 L 61.9853,-650.286 L 62.0682,-650.031
 L 62.1185,-649.768 L 62.1353,-649.5 L 62.1185,-649.232 L 62.0682,-648.969 L 61.9853,-648.714 L 61.8712,-648.471
 L 61.7275,-648.245 L 61.5565,-648.038 L 61.3611,-647.855 L 61.1441,-647.697 L 60.9092,-647.568 L 60.6598,-647.469
 L 60.4001,-647.403 L 60.1341,-647.369 z
M -60.1341,-647.369 L -60.4001,-647.403 L -60.6598,-647.469 L -60.9092,-647.568 L -61.1441,-647.697 L -61.3611,-647.855
 L -61.5565,-648.038 L -61.7275,-648.245 L -61.8712,-648.471 L -61.9853,-648.714 L -62.0682,-648.969 L -62.1185,-649.232
 L -62.1353,-649.5 L -62.1185,-649.768 L -62.0682,-650.031 L -61.9853,-650.286 L -61.8712,-650.529 L -61.7275,-650.755
 L -61.5565,-650.962 L -61.3611,-651.145 L -61.1441,-651.303 L -60.9092,-651.432 L -60.6598,-651.531 L -60.4001,-651.597
 L -60.1341,-651.631 L -59.8659,-651.631 L -59.5999,-651.597 L -59.3401,-651.531 L -59.0908,-651.432 L -58.8559,-651.303
 L -58.6389,-651.145 L -58.4434,-650.962 L -58.2725,-650.755 L -58.1288,-650.529 L -58.0146,-650.286 L -57.9318,-650.031
 L -57.8815,-649.768 L -57.8647,-649.5 L -57.8815,-649.232 L -57.9318,-648.969 L -58.0146,-648.714 L -58.1288,-648.471
 L -58.2725,-648.245 L -58.4434,-648.038 L -58.6389,-647.855 L -58.8559,-647.697 L -59.0908,-647.568 L -59.3401,-647.469
 L -59.5999,-647.403 L -59.8659,-647.369 z
M 59.8659,-482.369 L 59.5999,-482.403 L 59.3401,-482.469 L 59.0908,-482.568 L 58.8559,-482.697 L 58.6389,-482.855
 L 58.4434,-483.038 L 58.2725,-483.245 L 58.1288,-483.471 L 58.0146,-483.714 L 57.9318,-483.969 L 57.8815,-484.232
 L 57.8647,-484.5 L 57.8815,-484.768 L 57.9318,-485.031 L 58.0146,-485.286 L 58.1288,-485.529 L 58.2725,-485.755
 L 58.4434,-485.962 L 58.6389,-486.145 L 58.8559,-486.303 L 59.0908,-486.432 L 59.3401,-486.531 L 59.5999,-486.597
 L 59.8659,-486.631 L 60.1341,-486.631 L 60.4001,-486.597 L 60.6598,-486.531 L 60.9092,-486.432 L 61.1441,-486.303
 L 61.3611,-486.145 L 61.5565,-485.962 L 61.7275,-485.755 L 61.8712,-485.529 L 61.9853,-485.286 L 62.0682,-485.031
 L 62.1185,-484.768 L 62.1353,-484.5 L 62.1185,-484.232 L 62.0682,-483.969 L 61.9853,-483.714 L 61.8712,-483.471
 L 61.7275,-483.245 L 61.5565,-483.038 L 61.3611,-482.855 L 61.1441,-482.697 L 60.9092,-482.568 L 60.6598,-482.469
 L 60.4001,-482.403 L 60.1341,-482.369 z
M -60.1341,-482.369 L -60.4001,-482.403 L -60.6598,-482.469 L -60.9092,-482.568 L -61.1441,-482.697 L -61.3611,-482.855
 L -61.5565,-483.038 L -61.7275,-483.245 L -61.8712,-483.471 L -61.9853,-483.714 L -62.0682,-483.969 L -62.1185,-484.232
 L -62.1353,-484.5 L -62.1185,-484.768 L -62.0682,-485.031 L -61.9853,-485.286 L -61.8712,-485.529 L -61.7275,-485.755
 L -61.5565,-485.962 L -61.3611,-486.145 L -61.1441,-486.303 L -60.9092,-486.432 L -60.6598,-486.531 L -60.4001,-486.597
 L -60.1341,-486.631 L -59.8659,-486.631 L -59.5999,-486.597 L -59.3401,-486.531 L -59.0908,-486.432 L -58.8559,-486.303
 L -58.6389,-486.145 L -58.4434,-485.962 L -58.2725,-485.755 L -58.1288,-485.529 L -58.0146,-485.286 L -57.9318,-485.031
 L -57.8815,-484.768 L -57.8647,-484.5 L -57.8815,-484.232 L -57.9318,-483.969 L -58.0146,-483.714 L -58.1288,-483.471
 L -58.2725,-483.245 L -58.4434,-483.038 L -58.6389,-482.855 L -58.8559,-482.697 L -59.0908,-482.568 L -59.3401,-482.469
 L -59.5999,-482.403 L -59.8659,-482.369 z
" stroke="black" fill="lightgray" stroke-width="0.5"/>
</svg>
