solid OpenSCAD_Model
  facet normal 0.998026 0.062808 0
    outer loop
      vertex 16 0 4
      vertex 15.8738 2.00533 0
      vertex 15.8738 2.00533 4
    endloop
  endfacet
  facet normal 0.998026 0.062808 0
    outer loop
      vertex 15.8738 2.00533 0
      vertex 16 0 4
      vertex 16 0 0
    endloop
  endfacet
  facet normal -0.998026 0.062808 0
    outer loop
      vertex -16 0 0
      vertex -15.8738 2.00533 4
      vertex -15.8738 2.00533 0
    endloop
  endfacet
  facet normal -0.998026 0.062808 0
    outer loop
      vertex -15.8738 2.00533 4
      vertex -16 0 0
      vertex -16 0 4
    endloop
  endfacet
  facet normal 0 1 -0
    outer loop
      vertex 1.00465 15.9684 0
      vertex -1.00465 15.9684 4
      vertex 1.00465 15.9684 4
    endloop
  endfacet
  facet normal 0 1 0
    outer loop
      vertex -1.00465 15.9684 4
      vertex 1.00465 15.9684 0
      vertex -1.00465 15.9684 0
    endloop
  endfacet
  facet normal 0 -1 0
    outer loop
      vertex -1.00465 -15.9684 0
      vertex 1.00465 -15.9684 4
      vertex -1.00465 -15.9684 4
    endloop
  endfacet
  facet normal 0 -1 -0
    outer loop
      vertex 1.00465 -15.9684 4
      vertex -1.00465 -15.9684 0
      vertex 1.00465 -15.9684 0
    endloop
  endfacet
  facet normal 0.684535 0.72898 -0
    outer loop
      vertex 11.6635 10.9528 0
      vertex 10.1988 12.3282 4
      vertex 11.6635 10.9528 4
    endloop
  endfacet
  facet normal 0.684535 0.72898 0
    outer loop
      vertex 10.1988 12.3282 4
      vertex 11.6635 10.9528 0
      vertex 10.1988 12.3282 0
    endloop
  endfacet
  facet normal -0.684535 0.72898 0
    outer loop
      vertex -10.1988 12.3282 0
      vertex -11.6635 10.9528 4
      vertex -10.1988 12.3282 4
    endloop
  endfacet
  facet normal -0.684535 0.72898 0
    outer loop
      vertex -11.6635 10.9528 4
      vertex -10.1988 12.3282 0
      vertex -11.6635 10.9528 0
    endloop
  endfacet
  facet normal -0.368136 0.929772 0
    outer loop
      vertex -4.94427 15.2169 0
      vertex -6.81247 14.4772 4
      vertex -4.94427 15.2169 4
    endloop
  endfacet
  facet normal -0.368136 0.929772 0
    outer loop
      vertex -6.81247 14.4772 4
      vertex -4.94427 15.2169 0
      vertex -6.81247 14.4772 0
    endloop
  endfacet
  facet normal 0.904831 0.425772 0
    outer loop
      vertex 14.8764 5.88999 4
      vertex 14.0209 7.70806 0
      vertex 14.0209 7.70806 4
    endloop
  endfacet
  facet normal 0.904831 0.425772 0
    outer loop
      vertex 14.0209 7.70806 0
      vertex 14.8764 5.88999 4
      vertex 14.8764 5.88999 0
    endloop
  endfacet
  facet normal 0.368136 0.929772 -0
    outer loop
      vertex 6.81247 14.4772 0
      vertex 4.94427 15.2169 4
      vertex 6.81247 14.4772 4
    endloop
  endfacet
  facet normal 0.368136 0.929772 0
    outer loop
      vertex 4.94427 15.2169 4
      vertex 6.81247 14.4772 0
      vertex 4.94427 15.2169 0
    endloop
  endfacet
  facet normal 0.248694 0.968582 -0
    outer loop
      vertex 4.94427 15.2169 0
      vertex 2.9981 15.7166 4
      vertex 4.94427 15.2169 4
    endloop
  endfacet
  facet normal 0.248694 0.968582 0
    outer loop
      vertex 2.9981 15.7166 4
      vertex 4.94427 15.2169 0
      vertex 2.9981 15.7166 0
    endloop
  endfacet
  facet normal 0.481759 0.876304 -0
    outer loop
      vertex 8.57323 13.5092 0
      vertex 6.81247 14.4772 4
      vertex 8.57323 13.5092 4
    endloop
  endfacet
  facet normal 0.481759 0.876304 0
    outer loop
      vertex 6.81247 14.4772 4
      vertex 8.57323 13.5092 0
      vertex 6.81247 14.4772 0
    endloop
  endfacet
  facet normal -0.904831 0.425772 0
    outer loop
      vertex -14.8764 5.88999 0
      vertex -14.0209 7.70806 4
      vertex -14.0209 7.70806 0
    endloop
  endfacet
  facet normal -0.904831 0.425772 0
    outer loop
      vertex -14.0209 7.70806 4
      vertex -14.8764 5.88999 0
      vertex -14.8764 5.88999 4
    endloop
  endfacet
  facet normal -0.951057 0.309015 0
    outer loop
      vertex -15.4973 3.97904 0
      vertex -14.8764 5.88999 4
      vertex -14.8764 5.88999 0
    endloop
  endfacet
  facet normal -0.951057 0.309015 0
    outer loop
      vertex -14.8764 5.88999 4
      vertex -15.4973 3.97904 0
      vertex -15.4973 3.97904 4
    endloop
  endfacet
  facet normal -0.125318 0.992117 0
    outer loop
      vertex -1.00465 15.9684 0
      vertex -2.9981 15.7166 4
      vertex -1.00465 15.9684 4
    endloop
  endfacet
  facet normal -0.125318 0.992117 0
    outer loop
      vertex -2.9981 15.7166 4
      vertex -1.00465 15.9684 0
      vertex -2.9981 15.7166 0
    endloop
  endfacet
  facet normal 0.125318 -0.992117 0
    outer loop
      vertex 1.00465 -15.9684 0
      vertex 2.9981 -15.7166 4
      vertex 1.00465 -15.9684 4
    endloop
  endfacet
  facet normal 0.125318 -0.992117 0
    outer loop
      vertex 2.9981 -15.7166 4
      vertex 1.00465 -15.9684 0
      vertex 2.9981 -15.7166 0
    endloop
  endfacet
  facet normal 0.951057 0.309015 0
    outer loop
      vertex 15.4973 3.97904 4
      vertex 14.8764 5.88999 0
      vertex 14.8764 5.88999 4
    endloop
  endfacet
  facet normal 0.951057 0.309015 0
    outer loop
      vertex 14.8764 5.88999 0
      vertex 15.4973 3.97904 4
      vertex 15.4973 3.97904 0
    endloop
  endfacet
  facet normal 0.982288 0.187379 0
    outer loop
      vertex 15.8738 2.00533 4
      vertex 15.4973 3.97904 0
      vertex 15.4973 3.97904 4
    endloop
  endfacet
  facet normal 0.982288 0.187379 0
    outer loop
      vertex 15.4973 3.97904 0
      vertex 15.8738 2.00533 4
      vertex 15.8738 2.00533 0
    endloop
  endfacet
  facet normal 0.770517 0.637419 0
    outer loop
      vertex 12.9443 9.40456 4
      vertex 11.6635 10.9528 0
      vertex 11.6635 10.9528 4
    endloop
  endfacet
  facet normal 0.770517 0.637419 0
    outer loop
      vertex 11.6635 10.9528 0
      vertex 12.9443 9.40456 4
      vertex 12.9443 9.40456 0
    endloop
  endfacet
  facet normal 0.844335 0.535816 0
    outer loop
      vertex 14.0209 7.70806 4
      vertex 12.9443 9.40456 0
      vertex 12.9443 9.40456 4
    endloop
  endfacet
  facet normal 0.844335 0.535816 0
    outer loop
      vertex 12.9443 9.40456 0
      vertex 14.0209 7.70806 4
      vertex 14.0209 7.70806 0
    endloop
  endfacet
  facet normal 0.125318 0.992117 -0
    outer loop
      vertex 2.9981 15.7166 0
      vertex 1.00465 15.9684 4
      vertex 2.9981 15.7166 4
    endloop
  endfacet
  facet normal 0.125318 0.992117 0
    outer loop
      vertex 1.00465 15.9684 4
      vertex 2.9981 15.7166 0
      vertex 1.00465 15.9684 0
    endloop
  endfacet
  facet normal 0.58777 0.809028 -0
    outer loop
      vertex 10.1988 12.3282 0
      vertex 8.57323 13.5092 4
      vertex 10.1988 12.3282 4
    endloop
  endfacet
  facet normal 0.58777 0.809028 0
    outer loop
      vertex 8.57323 13.5092 4
      vertex 10.1988 12.3282 0
      vertex 8.57323 13.5092 0
    endloop
  endfacet
  facet normal -0.844335 0.535816 0
    outer loop
      vertex -14.0209 7.70806 0
      vertex -12.9443 9.40456 4
      vertex -12.9443 9.40456 0
    endloop
  endfacet
  facet normal -0.844335 0.535816 0
    outer loop
      vertex -12.9443 9.40456 4
      vertex -14.0209 7.70806 0
      vertex -14.0209 7.70806 4
    endloop
  endfacet
  facet normal -0.770517 0.637419 0
    outer loop
      vertex -12.9443 9.40456 0
      vertex -11.6635 10.9528 4
      vertex -11.6635 10.9528 0
    endloop
  endfacet
  facet normal -0.770517 0.637419 0
    outer loop
      vertex -11.6635 10.9528 4
      vertex -12.9443 9.40456 0
      vertex -12.9443 9.40456 4
    endloop
  endfacet
  facet normal -0.982288 0.187379 0
    outer loop
      vertex -15.8738 2.00533 0
      vertex -15.4973 3.97904 4
      vertex -15.4973 3.97904 0
    endloop
  endfacet
  facet normal -0.982288 0.187379 0
    outer loop
      vertex -15.4973 3.97904 4
      vertex -15.8738 2.00533 0
      vertex -15.8738 2.00533 4
    endloop
  endfacet
  facet normal 0 0 1
    outer loop
      vertex 12.5 0 4
      vertex 16 0 4
      vertex 15.8738 2.00533 4
    endloop
  endfacet
  facet normal 0 0 1
    outer loop
      vertex 12.4014 1.56666 4
      vertex 15.8738 2.00533 4
      vertex 15.4973 3.97904 4
    endloop
  endfacet
  facet normal 0 0 1
    outer loop
      vertex 16 0 4
      vertex 12.5 0 4
      vertex 15.8738 -2.00533 4
    endloop
  endfacet
  facet normal 0 0 1
    outer loop
      vertex 12.1073 3.10862 4
      vertex 15.4973 3.97904 4
      vertex 14.8764 5.88999 4
    endloop
  endfacet
  facet normal -0 0 1
    outer loop
      vertex 12.4014 -1.56666 4
      vertex 15.8738 -2.00533 4
      vertex 12.5 0 4
    endloop
  endfacet
  facet normal 0 0 1
    outer loop
      vertex 11.6222 4.60156 4
      vertex 14.8764 5.88999 4
      vertex 14.0209 7.70806 4
    endloop
  endfacet
  facet normal 0 0 1
    outer loop
      vertex 15.8738 -2.00533 4
      vertex 12.4014 -1.56666 4
      vertex 15.4973 -3.97904 4
    endloop
  endfacet
  facet normal 0 0 1
    outer loop
      vertex 10.9538 6.02192 4
      vertex 14.0209 7.70806 4
      vertex 12.9443 9.40456 4
    endloop
  endfacet
  facet normal -0 0 1
    outer loop
      vertex 12.1073 -3.10862 4
      vertex 15.4973 -3.97904 4
      vertex 12.4014 -1.56666 4
    endloop
  endfacet
  facet normal 0 0 1
    outer loop
      vertex 15.4973 -3.97904 4
      vertex 12.1073 -3.10862 4
      vertex 14.8764 -5.88999 4
    endloop
  endfacet
  facet normal 0 0 1
    outer loop
      vertex 15.8738 2.00533 4
      vertex 12.4014 1.56666 4
      vertex 12.5 0 4
    endloop
  endfacet
  facet normal 0 0 1
    outer loop
      vertex 15.4973 3.97904 4
      vertex 12.1073 3.10862 4
      vertex 12.4014 1.56666 4
    endloop
  endfacet
  facet normal 0 0 1
    outer loop
      vertex 10.1127 7.34731 4
      vertex 12.9443 9.40456 4
      vertex 11.6635 10.9528 4
    endloop
  endfacet
  facet normal 0 0 1
    outer loop
      vertex 14.8764 5.88999 4
      vertex 11.6222 4.60156 4
      vertex 12.1073 3.10862 4
    endloop
  endfacet
  facet normal 0 0 1
    outer loop
      vertex 14.0209 7.70806 4
      vertex 10.9538 6.02192 4
      vertex 11.6222 4.60156 4
    endloop
  endfacet
  facet normal 0 0 1
    outer loop
      vertex 9.11211 8.55684 4
      vertex 11.6635 10.9528 4
      vertex 10.1988 12.3282 4
    endloop
  endfacet
  facet normal 0 0 1
    outer loop
      vertex 12.9443 9.40456 4
      vertex 10.1127 7.34731 4
      vertex 10.9538 6.02192 4
    endloop
  endfacet
  facet normal 0 0 1
    outer loop
      vertex 11.6635 10.9528 4
      vertex 9.11211 8.55684 4
      vertex 10.1127 7.34731 4
    endloop
  endfacet
  facet normal 0 0 1
    outer loop
      vertex 7.9678 9.63142 4
      vertex 10.1988 12.3282 4
      vertex 8.57323 13.5092 4
    endloop
  endfacet
  facet normal 0 0 1
    outer loop
      vertex 10.1988 12.3282 4
      vertex 7.9678 9.63142 4
      vertex 9.11211 8.55684 4
    endloop
  endfacet
  facet normal 0 0 1
    outer loop
      vertex 6.69783 10.5541 4
      vertex 8.57323 13.5092 4
      vertex 6.81247 14.4772 4
    endloop
  endfacet
  facet normal 0 0 1
    outer loop
      vertex 8.57323 13.5092 4
      vertex 6.69783 10.5541 4
      vertex 7.9678 9.63142 4
    endloop
  endfacet
  facet normal 0 0 1
    outer loop
      vertex 6.81247 14.4772 4
      vertex 5.32224 11.3103 4
      vertex 6.69783 10.5541 4
    endloop
  endfacet
  facet normal 0 0 1
    outer loop
      vertex 4.94427 15.2169 4
      vertex 5.32224 11.3103 4
      vertex 6.81247 14.4772 4
    endloop
  endfacet
  facet normal 0 0 1
    outer loop
      vertex 4.94427 15.2169 4
      vertex 3.86271 11.8882 4
      vertex 5.32224 11.3103 4
    endloop
  endfacet
  facet normal 0 0 1
    outer loop
      vertex 2.9981 15.7166 4
      vertex 3.86271 11.8882 4
      vertex 4.94427 15.2169 4
    endloop
  endfacet
  facet normal 0 0 1
    outer loop
      vertex 2.9981 15.7166 4
      vertex 2.34227 12.2786 4
      vertex 3.86271 11.8882 4
    endloop
  endfacet
  facet normal 0 0 1
    outer loop
      vertex 1.00465 15.9684 4
      vertex 2.34227 12.2786 4
      vertex 2.9981 15.7166 4
    endloop
  endfacet
  facet normal 0 0 1
    outer loop
      vertex 1.00465 15.9684 4
      vertex 0.784881 12.4753 4
      vertex 2.34227 12.2786 4
    endloop
  endfacet
  facet normal 0 0 1
    outer loop
      vertex 1.00465 15.9684 4
      vertex -0.784881 12.4753 4
      vertex 0.784881 12.4753 4
    endloop
  endfacet
  facet normal -0 0 1
    outer loop
      vertex -1.00465 15.9684 4
      vertex -0.784881 12.4753 4
      vertex 1.00465 15.9684 4
    endloop
  endfacet
  facet normal 0 0 1
    outer loop
      vertex -1.00465 15.9684 4
      vertex -2.34227 12.2786 4
      vertex -0.784881 12.4753 4
    endloop
  endfacet
  facet normal -0 0 1
    outer loop
      vertex -2.9981 15.7166 4
      vertex -2.34227 12.2786 4
      vertex -1.00465 15.9684 4
    endloop
  endfacet
  facet normal 0 0 1
    outer loop
      vertex -2.9981 15.7166 4
      vertex -3.86271 11.8882 4
      vertex -2.34227 12.2786 4
    endloop
  endfacet
  facet normal -0 0 1
    outer loop
      vertex -4.94427 15.2169 4
      vertex -3.86271 11.8882 4
      vertex -2.9981 15.7166 4
    endloop
  endfacet
  facet normal 0 0 1
    outer loop
      vertex -4.94427 15.2169 4
      vertex -5.32224 11.3103 4
      vertex -3.86271 11.8882 4
    endloop
  endfacet
  facet normal -0 0 1
    outer loop
      vertex -6.81247 14.4772 4
      vertex -5.32224 11.3103 4
      vertex -4.94427 15.2169 4
    endloop
  endfacet
  facet normal 0 0 1
    outer loop
      vertex -5.32224 11.3103 4
      vertex -6.81247 14.4772 4
      vertex -6.69783 10.5541 4
    endloop
  endfacet
  facet normal -0 0 1
    outer loop
      vertex -8.57323 13.5092 4
      vertex -6.69783 10.5541 4
      vertex -6.81247 14.4772 4
    endloop
  endfacet
  facet normal 0 0 1
    outer loop
      vertex -6.69783 10.5541 4
      vertex -8.57323 13.5092 4
      vertex -7.9678 9.63142 4
    endloop
  endfacet
  facet normal -0 0 1
    outer loop
      vertex -10.1988 12.3282 4
      vertex -7.9678 9.63142 4
      vertex -8.57323 13.5092 4
    endloop
  endfacet
  facet normal 0 0 1
    outer loop
      vertex -7.9678 9.63142 4
      vertex -10.1988 12.3282 4
      vertex -9.11211 8.55684 4
    endloop
  endfacet
  facet normal -0 0 1
    outer loop
      vertex -11.6635 10.9528 4
      vertex -9.11211 8.55684 4
      vertex -10.1988 12.3282 4
    endloop
  endfacet
  facet normal 0 0 1
    outer loop
      vertex -9.11211 8.55684 4
      vertex -11.6635 10.9528 4
      vertex -10.1127 7.34731 4
    endloop
  endfacet
  facet normal -0 0 1
    outer loop
      vertex -12.9443 9.40456 4
      vertex -10.1127 7.34731 4
      vertex -11.6635 10.9528 4
    endloop
  endfacet
  facet normal 0 0 1
    outer loop
      vertex -10.1127 7.34731 4
      vertex -12.9443 9.40456 4
      vertex -10.9538 6.02192 4
    endloop
  endfacet
  facet normal -0 0 1
    outer loop
      vertex -14.0209 7.70806 4
      vertex -10.9538 6.02192 4
      vertex -12.9443 9.40456 4
    endloop
  endfacet
  facet normal 0 0 1
    outer loop
      vertex -10.9538 6.02192 4
      vertex -14.0209 7.70806 4
      vertex -11.6222 4.60156 4
    endloop
  endfacet
  facet normal 0 0 1
    outer loop
      vertex -11.6222 4.60156 4
      vertex -14.8764 5.88999 4
      vertex -12.1073 3.10862 4
    endloop
  endfacet
  facet normal -0 0 1
    outer loop
      vertex -14.8764 5.88999 4
      vertex -11.6222 4.60156 4
      vertex -14.0209 7.70806 4
    endloop
  endfacet
  facet normal -0 0 1
    outer loop
      vertex 11.6222 -4.60156 4
      vertex 14.8764 -5.88999 4
      vertex 12.1073 -3.10862 4
    endloop
  endfacet
  facet normal 0 0 1
    outer loop
      vertex 14.8764 -5.88999 4
      vertex 11.6222 -4.60156 4
      vertex 14.0209 -7.70806 4
    endloop
  endfacet
  facet normal -0 0 1
    outer loop
      vertex 10.9538 -6.02192 4
      vertex 14.0209 -7.70806 4
      vertex 11.6222 -4.60156 4
    endloop
  endfacet
  facet normal 0 0 1
    outer loop
      vertex 14.0209 -7.70806 4
      vertex 10.9538 -6.02192 4
      vertex 12.9443 -9.40456 4
    endloop
  endfacet
  facet normal -0 0 1
    outer loop
      vertex 10.1127 -7.34731 4
      vertex 12.9443 -9.40456 4
      vertex 10.9538 -6.02192 4
    endloop
  endfacet
  facet normal 0 0 1
    outer loop
      vertex 12.9443 -9.40456 4
      vertex 10.1127 -7.34731 4
      vertex 11.6635 -10.9528 4
    endloop
  endfacet
  facet normal -0 0 1
    outer loop
      vertex 9.11211 -8.55684 4
      vertex 11.6635 -10.9528 4
      vertex 10.1127 -7.34731 4
    endloop
  endfacet
  facet normal 0 0 1
    outer loop
      vertex 11.6635 -10.9528 4
      vertex 9.11211 -8.55684 4
      vertex 10.1988 -12.3282 4
    endloop
  endfacet
  facet normal -0 0 1
    outer loop
      vertex 7.9678 -9.63142 4
      vertex 10.1988 -12.3282 4
      vertex 9.11211 -8.55684 4
    endloop
  endfacet
  facet normal 0 0 1
    outer loop
      vertex 10.1988 -12.3282 4
      vertex 7.9678 -9.63142 4
      vertex 8.57323 -13.5092 4
    endloop
  endfacet
  facet normal -0 0 1
    outer loop
      vertex 6.69783 -10.5541 4
      vertex 8.57323 -13.5092 4
      vertex 7.9678 -9.63142 4
    endloop
  endfacet
  facet normal 0 0 1
    outer loop
      vertex 8.57323 -13.5092 4
      vertex 6.69783 -10.5541 4
      vertex 6.81247 -14.4772 4
    endloop
  endfacet
  facet normal -0 0 1
    outer loop
      vertex 5.32224 -11.3103 4
      vertex 6.81247 -14.4772 4
      vertex 6.69783 -10.5541 4
    endloop
  endfacet
  facet normal 0 0 1
    outer loop
      vertex 5.32224 -11.3103 4
      vertex 4.94427 -15.2169 4
      vertex 6.81247 -14.4772 4
    endloop
  endfacet
  facet normal -0 0 1
    outer loop
      vertex 3.86271 -11.8882 4
      vertex 4.94427 -15.2169 4
      vertex 5.32224 -11.3103 4
    endloop
  endfacet
  facet normal 0 0 1
    outer loop
      vertex 3.86271 -11.8882 4
      vertex 2.9981 -15.7166 4
      vertex 4.94427 -15.2169 4
    endloop
  endfacet
  facet normal -0 0 1
    outer loop
      vertex 2.34227 -12.2786 4
      vertex 2.9981 -15.7166 4
      vertex 3.86271 -11.8882 4
    endloop
  endfacet
  facet normal 0 0 1
    outer loop
      vertex 2.34227 -12.2786 4
      vertex 1.00465 -15.9684 4
      vertex 2.9981 -15.7166 4
    endloop
  endfacet
  facet normal -0 0 1
    outer loop
      vertex 0.784881 -12.4753 4
      vertex 1.00465 -15.9684 4
      vertex 2.34227 -12.2786 4
    endloop
  endfacet
  facet normal -0 0 1
    outer loop
      vertex -0.784881 -12.4753 4
      vertex 1.00465 -15.9684 4
      vertex 0.784881 -12.4753 4
    endloop
  endfacet
  facet normal 0 0 1
    outer loop
      vertex -0.784881 -12.4753 4
      vertex -1.00465 -15.9684 4
      vertex 1.00465 -15.9684 4
    endloop
  endfacet
  facet normal 0 0 1
    outer loop
      vertex -2.34227 -12.2786 4
      vertex -1.00465 -15.9684 4
      vertex -0.784881 -12.4753 4
    endloop
  endfacet
  facet normal 0 0 1
    outer loop
      vertex -2.34227 -12.2786 4
      vertex -2.9981 -15.7166 4
      vertex -1.00465 -15.9684 4
    endloop
  endfacet
  facet normal 0 0 1
    outer loop
      vertex -3.86271 -11.8882 4
      vertex -2.9981 -15.7166 4
      vertex -2.34227 -12.2786 4
    endloop
  endfacet
  facet normal 0 0 1
    outer loop
      vertex -3.86271 -11.8882 4
      vertex -4.94427 -15.2169 4
      vertex -2.9981 -15.7166 4
    endloop
  endfacet
  facet normal 0 0 1
    outer loop
      vertex -5.32224 -11.3103 4
      vertex -4.94427 -15.2169 4
      vertex -3.86271 -11.8882 4
    endloop
  endfacet
  facet normal 0 0 1
    outer loop
      vertex -6.81247 -14.4772 4
      vertex -5.32224 -11.3103 4
      vertex -6.69783 -10.5541 4
    endloop
  endfacet
  facet normal 0 0 1
    outer loop
      vertex -5.32224 -11.3103 4
      vertex -6.81247 -14.4772 4
      vertex -4.94427 -15.2169 4
    endloop
  endfacet
  facet normal 0 0 1
    outer loop
      vertex -8.57323 -13.5092 4
      vertex -6.69783 -10.5541 4
      vertex -7.9678 -9.63142 4
    endloop
  endfacet
  facet normal 0 0 1
    outer loop
      vertex -6.69783 -10.5541 4
      vertex -8.57323 -13.5092 4
      vertex -6.81247 -14.4772 4
    endloop
  endfacet
  facet normal 0 0 1
    outer loop
      vertex -10.1988 -12.3282 4
      vertex -7.9678 -9.63142 4
      vertex -9.11211 -8.55684 4
    endloop
  endfacet
  facet normal 0 0 1
    outer loop
      vertex -11.6635 -10.9528 4
      vertex -9.11211 -8.55684 4
      vertex -10.1127 -7.34731 4
    endloop
  endfacet
  facet normal 0 0 1
    outer loop
      vertex -7.9678 -9.63142 4
      vertex -10.1988 -12.3282 4
      vertex -8.57323 -13.5092 4
    endloop
  endfacet
  facet normal 0 0 1
    outer loop
      vertex -12.9443 -9.40456 4
      vertex -10.1127 -7.34731 4
      vertex -10.9538 -6.02192 4
    endloop
  endfacet
  facet normal 0 0 1
    outer loop
      vertex -14.0209 -7.70806 4
      vertex -10.9538 -6.02192 4
      vertex -11.6222 -4.60156 4
    endloop
  endfacet
  facet normal 0 0 1
    outer loop
      vertex -9.11211 -8.55684 4
      vertex -11.6635 -10.9528 4
      vertex -10.1988 -12.3282 4
    endloop
  endfacet
  facet normal 0 0 1
    outer loop
      vertex -14.8764 -5.88999 4
      vertex -11.6222 -4.60156 4
      vertex -12.1073 -3.10862 4
    endloop
  endfacet
  facet normal 0 0 1
    outer loop
      vertex -15.4973 -3.97904 4
      vertex -12.1073 -3.10862 4
      vertex -12.4014 -1.56666 4
    endloop
  endfacet
  facet normal 0 0 1
    outer loop
      vertex -10.1127 -7.34731 4
      vertex -12.9443 -9.40456 4
      vertex -11.6635 -10.9528 4
    endloop
  endfacet
  facet normal 0 0 1
    outer loop
      vertex -15.8738 -2.00533 4
      vertex -12.4014 -1.56666 4
      vertex -12.5 0 4
    endloop
  endfacet
  facet normal -0 0 1
    outer loop
      vertex -15.4973 3.97904 4
      vertex -12.1073 3.10862 4
      vertex -14.8764 5.88999 4
    endloop
  endfacet
  facet normal 0 0 1
    outer loop
      vertex -12.1073 3.10862 4
      vertex -15.4973 3.97904 4
      vertex -12.4014 1.56666 4
    endloop
  endfacet
  facet normal 0 0 1
    outer loop
      vertex -10.9538 -6.02192 4
      vertex -14.0209 -7.70806 4
      vertex -12.9443 -9.40456 4
    endloop
  endfacet
  facet normal -0 0 1
    outer loop
      vertex -15.8738 2.00533 4
      vertex -12.4014 1.56666 4
      vertex -15.4973 3.97904 4
    endloop
  endfacet
  facet normal 0 0 1
    outer loop
      vertex -11.6222 -4.60156 4
      vertex -14.8764 -5.88999 4
      vertex -14.0209 -7.70806 4
    endloop
  endfacet
  facet normal 0 0 1
    outer loop
      vertex -12.4014 1.56666 4
      vertex -15.8738 2.00533 4
      vertex -12.5 0 4
    endloop
  endfacet
  facet normal 0 0 1
    outer loop
      vertex -12.1073 -3.10862 4
      vertex -15.4973 -3.97904 4
      vertex -14.8764 -5.88999 4
    endloop
  endfacet
  facet normal 0 0 1
    outer loop
      vertex -16 0 4
      vertex -12.5 0 4
      vertex -15.8738 2.00533 4
    endloop
  endfacet
  facet normal 0 0 1
    outer loop
      vertex -12.4014 -1.56666 4
      vertex -15.8738 -2.00533 4
      vertex -15.4973 -3.97904 4
    endloop
  endfacet
  facet normal 0 0 1
    outer loop
      vertex -12.5 0 4
      vertex -16 0 4
      vertex -15.8738 -2.00533 4
    endloop
  endfacet
  facet normal -0.481759 0.876304 0
    outer loop
      vertex -6.81247 14.4772 0
      vertex -8.57323 13.5092 4
      vertex -6.81247 14.4772 4
    endloop
  endfacet
  facet normal -0.481759 0.876304 0
    outer loop
      vertex -8.57323 13.5092 4
      vertex -6.81247 14.4772 0
      vertex -8.57323 13.5092 0
    endloop
  endfacet
  facet normal -0.58777 0.809028 0
    outer loop
      vertex -8.57323 13.5092 0
      vertex -10.1988 12.3282 4
      vertex -8.57323 13.5092 4
    endloop
  endfacet
  facet normal -0.58777 0.809028 0
    outer loop
      vertex -10.1988 12.3282 4
      vertex -8.57323 13.5092 0
      vertex -10.1988 12.3282 0
    endloop
  endfacet
  facet normal -0.248694 0.968582 0
    outer loop
      vertex -2.9981 15.7166 0
      vertex -4.94427 15.2169 4
      vertex -2.9981 15.7166 4
    endloop
  endfacet
  facet normal -0.248694 0.968582 0
    outer loop
      vertex -4.94427 15.2169 4
      vertex -2.9981 15.7166 0
      vertex -4.94427 15.2169 0
    endloop
  endfacet
  facet normal 0.998026 -0.062808 0
    outer loop
      vertex 15.8738 -2.00533 4
      vertex 16 0 0
      vertex 16 0 4
    endloop
  endfacet
  facet normal 0.998026 -0.062808 0
    outer loop
      vertex 16 0 0
      vertex 15.8738 -2.00533 4
      vertex 15.8738 -2.00533 0
    endloop
  endfacet
  facet normal 0.904831 -0.425772 0
    outer loop
      vertex 14.0209 -7.70806 4
      vertex 14.8764 -5.88999 0
      vertex 14.8764 -5.88999 4
    endloop
  endfacet
  facet normal 0.904831 -0.425772 0
    outer loop
      vertex 14.8764 -5.88999 0
      vertex 14.0209 -7.70806 4
      vertex 14.0209 -7.70806 0
    endloop
  endfacet
  facet normal -0.684535 -0.72898 0
    outer loop
      vertex -11.6635 -10.9528 0
      vertex -10.1988 -12.3282 4
      vertex -11.6635 -10.9528 4
    endloop
  endfacet
  facet normal -0.684535 -0.72898 -0
    outer loop
      vertex -10.1988 -12.3282 4
      vertex -11.6635 -10.9528 0
      vertex -10.1988 -12.3282 0
    endloop
  endfacet
  facet normal -0.904831 -0.425772 0
    outer loop
      vertex -14.0209 -7.70806 0
      vertex -14.8764 -5.88999 4
      vertex -14.8764 -5.88999 0
    endloop
  endfacet
  facet normal -0.904831 -0.425772 0
    outer loop
      vertex -14.8764 -5.88999 4
      vertex -14.0209 -7.70806 0
      vertex -14.0209 -7.70806 4
    endloop
  endfacet
  facet normal -0.844335 -0.535816 0
    outer loop
      vertex -12.9443 -9.40456 0
      vertex -14.0209 -7.70806 4
      vertex -14.0209 -7.70806 0
    endloop
  endfacet
  facet normal -0.844335 -0.535816 0
    outer loop
      vertex -14.0209 -7.70806 4
      vertex -12.9443 -9.40456 0
      vertex -12.9443 -9.40456 4
    endloop
  endfacet
  facet normal 0 0 -1
    outer loop
      vertex 12.5 0 0
      vertex 16 0 0
      vertex 15.8738 -2.00533 0
    endloop
  endfacet
  facet normal 0 0 -1
    outer loop
      vertex 12.4014 -1.56666 0
      vertex 15.8738 -2.00533 0
      vertex 15.4973 -3.97904 0
    endloop
  endfacet
  facet normal 0 0 -1
    outer loop
      vertex 16 0 0
      vertex 12.5 0 0
      vertex 15.8738 2.00533 0
    endloop
  endfacet
  facet normal 0 0 -1
    outer loop
      vertex 12.1073 -3.10862 0
      vertex 15.4973 -3.97904 0
      vertex 14.8764 -5.88999 0
    endloop
  endfacet
  facet normal 0 0 -1
    outer loop
      vertex 12.4014 1.56666 0
      vertex 15.8738 2.00533 0
      vertex 12.5 0 0
    endloop
  endfacet
  facet normal 0 0 -1
    outer loop
      vertex 11.6222 -4.60156 0
      vertex 14.8764 -5.88999 0
      vertex 14.0209 -7.70806 0
    endloop
  endfacet
  facet normal -0 0 -1
    outer loop
      vertex 15.8738 2.00533 0
      vertex 12.4014 1.56666 0
      vertex 15.4973 3.97904 0
    endloop
  endfacet
  facet normal 0 0 -1
    outer loop
      vertex 10.9538 -6.02192 0
      vertex 14.0209 -7.70806 0
      vertex 12.9443 -9.40456 0
    endloop
  endfacet
  facet normal 0 0 -1
    outer loop
      vertex 12.1073 3.10862 0
      vertex 15.4973 3.97904 0
      vertex 12.4014 1.56666 0
    endloop
  endfacet
  facet normal -0 0 -1
    outer loop
      vertex 15.4973 3.97904 0
      vertex 12.1073 3.10862 0
      vertex 14.8764 5.88999 0
    endloop
  endfacet
  facet normal 0 0 -1
    outer loop
      vertex 15.8738 -2.00533 0
      vertex 12.4014 -1.56666 0
      vertex 12.5 0 0
    endloop
  endfacet
  facet normal 0 0 -1
    outer loop
      vertex 15.4973 -3.97904 0
      vertex 12.1073 -3.10862 0
      vertex 12.4014 -1.56666 0
    endloop
  endfacet
  facet normal 0 0 -1
    outer loop
      vertex 10.1127 -7.34731 0
      vertex 12.9443 -9.40456 0
      vertex 11.6635 -10.9528 0
    endloop
  endfacet
  facet normal 0 0 -1
    outer loop
      vertex 14.8764 -5.88999 0
      vertex 11.6222 -4.60156 0
      vertex 12.1073 -3.10862 0
    endloop
  endfacet
  facet normal 0 0 -1
    outer loop
      vertex 14.0209 -7.70806 0
      vertex 10.9538 -6.02192 0
      vertex 11.6222 -4.60156 0
    endloop
  endfacet
  facet normal 0 0 -1
    outer loop
      vertex 9.11211 -8.55684 0
      vertex 11.6635 -10.9528 0
      vertex 10.1988 -12.3282 0
    endloop
  endfacet
  facet normal 0 0 -1
    outer loop
      vertex 12.9443 -9.40456 0
      vertex 10.1127 -7.34731 0
      vertex 10.9538 -6.02192 0
    endloop
  endfacet
  facet normal 0 0 -1
    outer loop
      vertex 11.6635 -10.9528 0
      vertex 9.11211 -8.55684 0
      vertex 10.1127 -7.34731 0
    endloop
  endfacet
  facet normal 0 0 -1
    outer loop
      vertex 7.9678 -9.63142 0
      vertex 10.1988 -12.3282 0
      vertex 8.57323 -13.5092 0
    endloop
  endfacet
  facet normal 0 0 -1
    outer loop
      vertex 10.1988 -12.3282 0
      vertex 7.9678 -9.63142 0
      vertex 9.11211 -8.55684 0
    endloop
  endfacet
  facet normal 0 0 -1
    outer loop
      vertex 6.69783 -10.5541 0
      vertex 8.57323 -13.5092 0
      vertex 6.81247 -14.4772 0
    endloop
  endfacet
  facet normal 0 0 -1
    outer loop
      vertex 8.57323 -13.5092 0
      vertex 6.69783 -10.5541 0
      vertex 7.9678 -9.63142 0
    endloop
  endfacet
  facet normal 0 0 -1
    outer loop
      vertex 6.81247 -14.4772 0
      vertex 5.32224 -11.3103 0
      vertex 6.69783 -10.5541 0
    endloop
  endfacet
  facet normal 0 0 -1
    outer loop
      vertex 4.94427 -15.2169 0
      vertex 5.32224 -11.3103 0
      vertex 6.81247 -14.4772 0
    endloop
  endfacet
  facet normal 0 0 -1
    outer loop
      vertex 4.94427 -15.2169 0
      vertex 3.86271 -11.8882 0
      vertex 5.32224 -11.3103 0
    endloop
  endfacet
  facet normal 0 0 -1
    outer loop
      vertex 2.9981 -15.7166 0
      vertex 3.86271 -11.8882 0
      vertex 4.94427 -15.2169 0
    endloop
  endfacet
  facet normal 0 0 -1
    outer loop
      vertex 2.9981 -15.7166 0
      vertex 2.34227 -12.2786 0
      vertex 3.86271 -11.8882 0
    endloop
  endfacet
  facet normal 0 0 -1
    outer loop
      vertex 1.00465 -15.9684 0
      vertex 2.34227 -12.2786 0
      vertex 2.9981 -15.7166 0
    endloop
  endfacet
  facet normal 0 0 -1
    outer loop
      vertex 1.00465 -15.9684 0
      vertex 0.784881 -12.4753 0
      vertex 2.34227 -12.2786 0
    endloop
  endfacet
  facet normal 0 0 -1
    outer loop
      vertex 1.00465 -15.9684 0
      vertex -0.784881 -12.4753 0
      vertex 0.784881 -12.4753 0
    endloop
  endfacet
  facet normal 0 0 -1
    outer loop
      vertex -1.00465 -15.9684 0
      vertex -0.784881 -12.4753 0
      vertex 1.00465 -15.9684 0
    endloop
  endfacet
  facet normal 0 0 -1
    outer loop
      vertex -1.00465 -15.9684 0
      vertex -2.34227 -12.2786 0
      vertex -0.784881 -12.4753 0
    endloop
  endfacet
  facet normal 0 0 -1
    outer loop
      vertex -2.9981 -15.7166 0
      vertex -2.34227 -12.2786 0
      vertex -1.00465 -15.9684 0
    endloop
  endfacet
  facet normal 0 0 -1
    outer loop
      vertex -2.9981 -15.7166 0
      vertex -3.86271 -11.8882 0
      vertex -2.34227 -12.2786 0
    endloop
  endfacet
  facet normal 0 0 -1
    outer loop
      vertex -4.94427 -15.2169 0
      vertex -3.86271 -11.8882 0
      vertex -2.9981 -15.7166 0
    endloop
  endfacet
  facet normal 0 0 -1
    outer loop
      vertex -4.94427 -15.2169 0
      vertex -5.32224 -11.3103 0
      vertex -3.86271 -11.8882 0
    endloop
  endfacet
  facet normal 0 0 -1
    outer loop
      vertex -6.81247 -14.4772 0
      vertex -5.32224 -11.3103 0
      vertex -4.94427 -15.2169 0
    endloop
  endfacet
  facet normal -0 0 -1
    outer loop
      vertex -5.32224 -11.3103 0
      vertex -6.81247 -14.4772 0
      vertex -6.69783 -10.5541 0
    endloop
  endfacet
  facet normal 0 0 -1
    outer loop
      vertex -8.57323 -13.5092 0
      vertex -6.69783 -10.5541 0
      vertex -6.81247 -14.4772 0
    endloop
  endfacet
  facet normal -0 0 -1
    outer loop
      vertex -6.69783 -10.5541 0
      vertex -8.57323 -13.5092 0
      vertex -7.9678 -9.63142 0
    endloop
  endfacet
  facet normal 0 0 -1
    outer loop
      vertex -10.1988 -12.3282 0
      vertex -7.9678 -9.63142 0
      vertex -8.57323 -13.5092 0
    endloop
  endfacet
  facet normal -0 0 -1
    outer loop
      vertex -7.9678 -9.63142 0
      vertex -10.1988 -12.3282 0
      vertex -9.11211 -8.55684 0
    endloop
  endfacet
  facet normal 0 0 -1
    outer loop
      vertex -11.6635 -10.9528 0
      vertex -9.11211 -8.55684 0
      vertex -10.1988 -12.3282 0
    endloop
  endfacet
  facet normal -0 0 -1
    outer loop
      vertex -9.11211 -8.55684 0
      vertex -11.6635 -10.9528 0
      vertex -10.1127 -7.34731 0
    endloop
  endfacet
  facet normal 0 0 -1
    outer loop
      vertex -12.9443 -9.40456 0
      vertex -10.1127 -7.34731 0
      vertex -11.6635 -10.9528 0
    endloop
  endfacet
  facet normal -0 0 -1
    outer loop
      vertex -10.1127 -7.34731 0
      vertex -12.9443 -9.40456 0
      vertex -10.9538 -6.02192 0
    endloop
  endfacet
  facet normal 0 0 -1
    outer loop
      vertex -14.0209 -7.70806 0
      vertex -10.9538 -6.02192 0
      vertex -12.9443 -9.40456 0
    endloop
  endfacet
  facet normal -0 0 -1
    outer loop
      vertex -10.9538 -6.02192 0
      vertex -14.0209 -7.70806 0
      vertex -11.6222 -4.60156 0
    endloop
  endfacet
  facet normal -0 0 -1
    outer loop
      vertex -11.6222 -4.60156 0
      vertex -14.8764 -5.88999 0
      vertex -12.1073 -3.10862 0
    endloop
  endfacet
  facet normal 0 0 -1
    outer loop
      vertex -14.8764 -5.88999 0
      vertex -11.6222 -4.60156 0
      vertex -14.0209 -7.70806 0
    endloop
  endfacet
  facet normal 0 0 -1
    outer loop
      vertex 11.6222 4.60156 0
      vertex 14.8764 5.88999 0
      vertex 12.1073 3.10862 0
    endloop
  endfacet
  facet normal -0 0 -1
    outer loop
      vertex 14.8764 5.88999 0
      vertex 11.6222 4.60156 0
      vertex 14.0209 7.70806 0
    endloop
  endfacet
  facet normal 0 0 -1
    outer loop
      vertex 10.9538 6.02192 0
      vertex 14.0209 7.70806 0
      vertex 11.6222 4.60156 0
    endloop
  endfacet
  facet normal -0 0 -1
    outer loop
      vertex 14.0209 7.70806 0
      vertex 10.9538 6.02192 0
      vertex 12.9443 9.40456 0
    endloop
  endfacet
  facet normal 0 0 -1
    outer loop
      vertex 10.1127 7.34731 0
      vertex 12.9443 9.40456 0
      vertex 10.9538 6.02192 0
    endloop
  endfacet
  facet normal -0 0 -1
    outer loop
      vertex 12.9443 9.40456 0
      vertex 10.1127 7.34731 0
      vertex 11.6635 10.9528 0
    endloop
  endfacet
  facet normal 0 0 -1
    outer loop
      vertex 9.11211 8.55684 0
      vertex 11.6635 10.9528 0
      vertex 10.1127 7.34731 0
    endloop
  endfacet
  facet normal -0 0 -1
    outer loop
      vertex 11.6635 10.9528 0
      vertex 9.11211 8.55684 0
      vertex 10.1988 12.3282 0
    endloop
  endfacet
  facet normal 0 0 -1
    outer loop
      vertex 7.9678 9.63142 0
      vertex 10.1988 12.3282 0
      vertex 9.11211 8.55684 0
    endloop
  endfacet
  facet normal -0 0 -1
    outer loop
      vertex 10.1988 12.3282 0
      vertex 7.9678 9.63142 0
      vertex 8.57323 13.5092 0
    endloop
  endfacet
  facet normal 0 0 -1
    outer loop
      vertex 6.69783 10.5541 0
      vertex 8.57323 13.5092 0
      vertex 7.9678 9.63142 0
    endloop
  endfacet
  facet normal -0 0 -1
    outer loop
      vertex 8.57323 13.5092 0
      vertex 6.69783 10.5541 0
      vertex 6.81247 14.4772 0
    endloop
  endfacet
  facet normal 0 0 -1
    outer loop
      vertex 5.32224 11.3103 0
      vertex 6.81247 14.4772 0
      vertex 6.69783 10.5541 0
    endloop
  endfacet
  facet normal 0 0 -1
    outer loop
      vertex 5.32224 11.3103 0
      vertex 4.94427 15.2169 0
      vertex 6.81247 14.4772 0
    endloop
  endfacet
  facet normal 0 0 -1
    outer loop
      vertex 3.86271 11.8882 0
      vertex 4.94427 15.2169 0
      vertex 5.32224 11.3103 0
    endloop
  endfacet
  facet normal 0 0 -1
    outer loop
      vertex 3.86271 11.8882 0
      vertex 2.9981 15.7166 0
      vertex 4.94427 15.2169 0
    endloop
  endfacet
  facet normal 0 0 -1
    outer loop
      vertex 2.34227 12.2786 0
      vertex 2.9981 15.7166 0
      vertex 3.86271 11.8882 0
    endloop
  endfacet
  facet normal 0 0 -1
    outer loop
      vertex 2.34227 12.2786 0
      vertex 1.00465 15.9684 0
      vertex 2.9981 15.7166 0
    endloop
  endfacet
  facet normal 0 0 -1
    outer loop
      vertex 0.784881 12.4753 0
      vertex 1.00465 15.9684 0
      vertex 2.34227 12.2786 0
    endloop
  endfacet
  facet normal 0 0 -1
    outer loop
      vertex -0.784881 12.4753 0
      vertex 1.00465 15.9684 0
      vertex 0.784881 12.4753 0
    endloop
  endfacet
  facet normal 0 0 -1
    outer loop
      vertex -0.784881 12.4753 0
      vertex -1.00465 15.9684 0
      vertex 1.00465 15.9684 0
    endloop
  endfacet
  facet normal 0 0 -1
    outer loop
      vertex -2.34227 12.2786 0
      vertex -1.00465 15.9684 0
      vertex -0.784881 12.4753 0
    endloop
  endfacet
  facet normal 0 0 -1
    outer loop
      vertex -2.34227 12.2786 0
      vertex -2.9981 15.7166 0
      vertex -1.00465 15.9684 0
    endloop
  endfacet
  facet normal 0 0 -1
    outer loop
      vertex -3.86271 11.8882 0
      vertex -2.9981 15.7166 0
      vertex -2.34227 12.2786 0
    endloop
  endfacet
  facet normal 0 0 -1
    outer loop
      vertex -3.86271 11.8882 0
      vertex -4.94427 15.2169 0
      vertex -2.9981 15.7166 0
    endloop
  endfacet
  facet normal 0 0 -1
    outer loop
      vertex -5.32224 11.3103 0
      vertex -4.94427 15.2169 0
      vertex -3.86271 11.8882 0
    endloop
  endfacet
  facet normal 0 0 -1
    outer loop
      vertex -6.81247 14.4772 0
      vertex -5.32224 11.3103 0
      vertex -6.69783 10.5541 0
    endloop
  endfacet
  facet normal 0 0 -1
    outer loop
      vertex -5.32224 11.3103 0
      vertex -6.81247 14.4772 0
      vertex -4.94427 15.2169 0
    endloop
  endfacet
  facet normal 0 0 -1
    outer loop
      vertex -8.57323 13.5092 0
      vertex -6.69783 10.5541 0
      vertex -7.9678 9.63142 0
    endloop
  endfacet
  facet normal 0 0 -1
    outer loop
      vertex -6.69783 10.5541 0
      vertex -8.57323 13.5092 0
      vertex -6.81247 14.4772 0
    endloop
  endfacet
  facet normal 0 0 -1
    outer loop
      vertex -10.1988 12.3282 0
      vertex -7.9678 9.63142 0
      vertex -9.11211 8.55684 0
    endloop
  endfacet
  facet normal 0 0 -1
    outer loop
      vertex -11.6635 10.9528 0
      vertex -9.11211 8.55684 0
      vertex -10.1127 7.34731 0
    endloop
  endfacet
  facet normal 0 0 -1
    outer loop
      vertex -7.9678 9.63142 0
      vertex -10.1988 12.3282 0
      vertex -8.57323 13.5092 0
    endloop
  endfacet
  facet normal 0 0 -1
    outer loop
      vertex -12.9443 9.40456 0
      vertex -10.1127 7.34731 0
      vertex -10.9538 6.02192 0
    endloop
  endfacet
  facet normal 0 0 -1
    outer loop
      vertex -14.0209 7.70806 0
      vertex -10.9538 6.02192 0
      vertex -11.6222 4.60156 0
    endloop
  endfacet
  facet normal 0 0 -1
    outer loop
      vertex -9.11211 8.55684 0
      vertex -11.6635 10.9528 0
      vertex -10.1988 12.3282 0
    endloop
  endfacet
  facet normal 0 0 -1
    outer loop
      vertex -14.8764 5.88999 0
      vertex -11.6222 4.60156 0
      vertex -12.1073 3.10862 0
    endloop
  endfacet
  facet normal 0 0 -1
    outer loop
      vertex -15.4973 3.97904 0
      vertex -12.1073 3.10862 0
      vertex -12.4014 1.56666 0
    endloop
  endfacet
  facet normal 0 0 -1
    outer loop
      vertex -10.1127 7.34731 0
      vertex -12.9443 9.40456 0
      vertex -11.6635 10.9528 0
    endloop
  endfacet
  facet normal 0 0 -1
    outer loop
      vertex -15.8738 2.00533 0
      vertex -12.4014 1.56666 0
      vertex -12.5 0 0
    endloop
  endfacet
  facet normal 0 0 -1
    outer loop
      vertex -15.4973 -3.97904 0
      vertex -12.1073 -3.10862 0
      vertex -14.8764 -5.88999 0
    endloop
  endfacet
  facet normal -0 0 -1
    outer loop
      vertex -12.1073 -3.10862 0
      vertex -15.4973 -3.97904 0
      vertex -12.4014 -1.56666 0
    endloop
  endfacet
  facet normal 0 0 -1
    outer loop
      vertex -10.9538 6.02192 0
      vertex -14.0209 7.70806 0
      vertex -12.9443 9.40456 0
    endloop
  endfacet
  facet normal 0 0 -1
    outer loop
      vertex -15.8738 -2.00533 0
      vertex -12.4014 -1.56666 0
      vertex -15.4973 -3.97904 0
    endloop
  endfacet
  facet normal 0 0 -1
    outer loop
      vertex -11.6222 4.60156 0
      vertex -14.8764 5.88999 0
      vertex -14.0209 7.70806 0
    endloop
  endfacet
  facet normal -0 0 -1
    outer loop
      vertex -12.4014 -1.56666 0
      vertex -15.8738 -2.00533 0
      vertex -12.5 0 0
    endloop
  endfacet
  facet normal 0 0 -1
    outer loop
      vertex -12.1073 3.10862 0
      vertex -15.4973 3.97904 0
      vertex -14.8764 5.88999 0
    endloop
  endfacet
  facet normal 0 0 -1
    outer loop
      vertex -16 0 0
      vertex -12.5 0 0
      vertex -15.8738 -2.00533 0
    endloop
  endfacet
  facet normal 0 0 -1
    outer loop
      vertex -12.4014 1.56666 0
      vertex -15.8738 2.00533 0
      vertex -15.4973 3.97904 0
    endloop
  endfacet
  facet normal 0 0 -1
    outer loop
      vertex -12.5 0 0
      vertex -16 0 0
      vertex -15.8738 2.00533 0
    endloop
  endfacet
  facet normal 0.481759 -0.876304 0
    outer loop
      vertex 6.81247 -14.4772 0
      vertex 8.57323 -13.5092 4
      vertex 6.81247 -14.4772 4
    endloop
  endfacet
  facet normal 0.481759 -0.876304 0
    outer loop
      vertex 8.57323 -13.5092 4
      vertex 6.81247 -14.4772 0
      vertex 8.57323 -13.5092 0
    endloop
  endfacet
  facet normal 0.951057 -0.309015 0
    outer loop
      vertex 14.8764 -5.88999 4
      vertex 15.4973 -3.97904 0
      vertex 15.4973 -3.97904 4
    endloop
  endfacet
  facet normal 0.951057 -0.309015 0
    outer loop
      vertex 15.4973 -3.97904 0
      vertex 14.8764 -5.88999 4
      vertex 14.8764 -5.88999 0
    endloop
  endfacet
  facet normal -0.770517 -0.637419 0
    outer loop
      vertex -11.6635 -10.9528 0
      vertex -12.9443 -9.40456 4
      vertex -12.9443 -9.40456 0
    endloop
  endfacet
  facet normal -0.770517 -0.637419 0
    outer loop
      vertex -12.9443 -9.40456 4
      vertex -11.6635 -10.9528 0
      vertex -11.6635 -10.9528 4
    endloop
  endfacet
  facet normal -0.951057 -0.309015 0
    outer loop
      vertex -14.8764 -5.88999 0
      vertex -15.4973 -3.97904 4
      vertex -15.4973 -3.97904 0
    endloop
  endfacet
  facet normal -0.951057 -0.309015 0
    outer loop
      vertex -15.4973 -3.97904 4
      vertex -14.8764 -5.88999 0
      vertex -14.8764 -5.88999 4
    endloop
  endfacet
  facet normal 0.684535 -0.72898 0
    outer loop
      vertex 10.1988 -12.3282 0
      vertex 11.6635 -10.9528 4
      vertex 10.1988 -12.3282 4
    endloop
  endfacet
  facet normal 0.684535 -0.72898 0
    outer loop
      vertex 11.6635 -10.9528 4
      vertex 10.1988 -12.3282 0
      vertex 11.6635 -10.9528 0
    endloop
  endfacet
  facet normal 0.368136 -0.929772 0
    outer loop
      vertex 4.94427 -15.2169 0
      vertex 6.81247 -14.4772 4
      vertex 4.94427 -15.2169 4
    endloop
  endfacet
  facet normal 0.368136 -0.929772 0
    outer loop
      vertex 6.81247 -14.4772 4
      vertex 4.94427 -15.2169 0
      vertex 6.81247 -14.4772 0
    endloop
  endfacet
  facet normal 0.248694 -0.968582 0
    outer loop
      vertex 2.9981 -15.7166 0
      vertex 4.94427 -15.2169 4
      vertex 2.9981 -15.7166 4
    endloop
  endfacet
  facet normal 0.248694 -0.968582 0
    outer loop
      vertex 4.94427 -15.2169 4
      vertex 2.9981 -15.7166 0
      vertex 4.94427 -15.2169 0
    endloop
  endfacet
  facet normal 0.982288 -0.187379 0
    outer loop
      vertex 15.4973 -3.97904 4
      vertex 15.8738 -2.00533 0
      vertex 15.8738 -2.00533 4
    endloop
  endfacet
  facet normal 0.982288 -0.187379 0
    outer loop
      vertex 15.8738 -2.00533 0
      vertex 15.4973 -3.97904 4
      vertex 15.4973 -3.97904 0
    endloop
  endfacet
  facet normal 0.844335 -0.535816 0
    outer loop
      vertex 12.9443 -9.40456 4
      vertex 14.0209 -7.70806 0
      vertex 14.0209 -7.70806 4
    endloop
  endfacet
  facet normal 0.844335 -0.535816 0
    outer loop
      vertex 14.0209 -7.70806 0
      vertex 12.9443 -9.40456 4
      vertex 12.9443 -9.40456 0
    endloop
  endfacet
  facet normal 0.770517 -0.637419 0
    outer loop
      vertex 11.6635 -10.9528 4
      vertex 12.9443 -9.40456 0
      vertex 12.9443 -9.40456 4
    endloop
  endfacet
  facet normal 0.770517 -0.637419 0
    outer loop
      vertex 12.9443 -9.40456 0
      vertex 11.6635 -10.9528 4
      vertex 11.6635 -10.9528 0
    endloop
  endfacet
  facet normal -0.125318 -0.992117 0
    outer loop
      vertex -2.9981 -15.7166 0
      vertex -1.00465 -15.9684 4
      vertex -2.9981 -15.7166 4
    endloop
  endfacet
  facet normal -0.125318 -0.992117 -0
    outer loop
      vertex -1.00465 -15.9684 4
      vertex -2.9981 -15.7166 0
      vertex -1.00465 -15.9684 0
    endloop
  endfacet
  facet normal -0.368136 -0.929772 0
    outer loop
      vertex -6.81247 -14.4772 0
      vertex -4.94427 -15.2169 4
      vertex -6.81247 -14.4772 4
    endloop
  endfacet
  facet normal -0.368136 -0.929772 -0
    outer loop
      vertex -4.94427 -15.2169 4
      vertex -6.81247 -14.4772 0
      vertex -4.94427 -15.2169 0
    endloop
  endfacet
  facet normal -0.248694 -0.968582 0
    outer loop
      vertex -4.94427 -15.2169 0
      vertex -2.9981 -15.7166 4
      vertex -4.94427 -15.2169 4
    endloop
  endfacet
  facet normal -0.248694 -0.968582 -0
    outer loop
      vertex -2.9981 -15.7166 4
      vertex -4.94427 -15.2169 0
      vertex -2.9981 -15.7166 0
    endloop
  endfacet
  facet normal -0.982288 -0.187379 0
    outer loop
      vertex -15.4973 -3.97904 0
      vertex -15.8738 -2.00533 4
      vertex -15.8738 -2.00533 0
    endloop
  endfacet
  facet normal -0.982288 -0.187379 0
    outer loop
      vertex -15.8738 -2.00533 4
      vertex -15.4973 -3.97904 0
      vertex -15.4973 -3.97904 4
    endloop
  endfacet
  facet normal -0.998026 -0.062808 0
    outer loop
      vertex -15.8738 -2.00533 0
      vertex -16 0 4
      vertex -16 0 0
    endloop
  endfacet
  facet normal -0.998026 -0.062808 0
    outer loop
      vertex -16 0 4
      vertex -15.8738 -2.00533 0
      vertex -15.8738 -2.00533 4
    endloop
  endfacet
  facet normal 0.58777 -0.809028 0
    outer loop
      vertex 8.57323 -13.5092 0
      vertex 10.1988 -12.3282 4
      vertex 8.57323 -13.5092 4
    endloop
  endfacet
  facet normal 0.58777 -0.809028 0
    outer loop
      vertex 10.1988 -12.3282 4
      vertex 8.57323 -13.5092 0
      vertex 10.1988 -12.3282 0
    endloop
  endfacet
  facet normal -0.481759 -0.876304 0
    outer loop
      vertex -8.57323 -13.5092 0
      vertex -6.81247 -14.4772 4
      vertex -8.57323 -13.5092 4
    endloop
  endfacet
  facet normal -0.481759 -0.876304 -0
    outer loop
      vertex -6.81247 -14.4772 4
      vertex -8.57323 -13.5092 0
      vertex -6.81247 -14.4772 0
    endloop
  endfacet
  facet normal -0.58777 -0.809028 0
    outer loop
      vertex -10.1988 -12.3282 0
      vertex -8.57323 -13.5092 4
      vertex -10.1988 -12.3282 4
    endloop
  endfacet
  facet normal -0.58777 -0.809028 -0
    outer loop
      vertex -8.57323 -13.5092 4
      vertex -10.1988 -12.3282 0
      vertex -8.57323 -13.5092 0
    endloop
  endfacet
  facet normal -0.998025 -0.0628122 0
    outer loop
      vertex 12.5 0 0
      vertex 12.4014 1.56666 4
      vertex 12.4014 1.56666 0
    endloop
  endfacet
  facet normal -0.998025 -0.0628122 0
    outer loop
      vertex 12.4014 1.56666 4
      vertex 12.5 0 0
      vertex 12.5 0 4
    endloop
  endfacet
  facet normal 0.998025 -0.0628122 0
    outer loop
      vertex -12.5 0 4
      vertex -12.4014 1.56666 0
      vertex -12.4014 1.56666 4
    endloop
  endfacet
  facet normal 0.998025 -0.0628122 0
    outer loop
      vertex -12.4014 1.56666 0
      vertex -12.5 0 4
      vertex -12.5 0 0
    endloop
  endfacet
  facet normal 0 -1 0
    outer loop
      vertex -0.784881 12.4753 0
      vertex 0.784881 12.4753 4
      vertex -0.784881 12.4753 4
    endloop
  endfacet
  facet normal 0 -1 -0
    outer loop
      vertex 0.784881 12.4753 4
      vertex -0.784881 12.4753 0
      vertex 0.784881 12.4753 0
    endloop
  endfacet
  facet normal 0 1 -0
    outer loop
      vertex 0.784881 -12.4753 0
      vertex -0.784881 -12.4753 4
      vertex 0.784881 -12.4753 4
    endloop
  endfacet
  facet normal 0 1 0
    outer loop
      vertex -0.784881 -12.4753 4
      vertex 0.784881 -12.4753 0
      vertex -0.784881 -12.4753 0
    endloop
  endfacet
  facet normal -0.684548 -0.728968 0
    outer loop
      vertex 7.9678 9.63142 0
      vertex 9.11211 8.55684 4
      vertex 7.9678 9.63142 4
    endloop
  endfacet
  facet normal -0.684548 -0.728968 -0
    outer loop
      vertex 9.11211 8.55684 4
      vertex 7.9678 9.63142 0
      vertex 9.11211 8.55684 0
    endloop
  endfacet
  facet normal 0.684548 -0.728968 0
    outer loop
      vertex -9.11211 8.55684 0
      vertex -7.9678 9.63142 4
      vertex -9.11211 8.55684 4
    endloop
  endfacet
  facet normal 0.684548 -0.728968 0
    outer loop
      vertex -7.9678 9.63142 4
      vertex -9.11211 8.55684 0
      vertex -7.9678 9.63142 0
    endloop
  endfacet
  facet normal 0.368142 -0.92977 0
    outer loop
      vertex -5.32224 11.3103 0
      vertex -3.86271 11.8882 4
      vertex -5.32224 11.3103 4
    endloop
  endfacet
  facet normal 0.368142 -0.92977 0
    outer loop
      vertex -3.86271 11.8882 4
      vertex -5.32224 11.3103 0
      vertex -3.86271 11.8882 0
    endloop
  endfacet
  facet normal -0.90482 -0.425795 0
    outer loop
      vertex 11.6222 4.60156 0
      vertex 10.9538 6.02192 4
      vertex 10.9538 6.02192 0
    endloop
  endfacet
  facet normal -0.90482 -0.425795 0
    outer loop
      vertex 10.9538 6.02192 4
      vertex 11.6222 4.60156 0
      vertex 11.6222 4.60156 4
    endloop
  endfacet
  facet normal -0.982292 -0.187354 0
    outer loop
      vertex 12.4014 1.56666 0
      vertex 12.1073 3.10862 4
      vertex 12.1073 3.10862 0
    endloop
  endfacet
  facet normal -0.982292 -0.187354 0
    outer loop
      vertex 12.1073 3.10862 4
      vertex 12.4014 1.56666 0
      vertex 12.4014 1.56666 4
    endloop
  endfacet
  facet normal -0.844333 -0.535819 0
    outer loop
      vertex 10.9538 6.02192 0
      vertex 10.1127 7.34731 4
      vertex 10.1127 7.34731 0
    endloop
  endfacet
  facet normal -0.844333 -0.535819 0
    outer loop
      vertex 10.1127 7.34731 4
      vertex 10.9538 6.02192 0
      vertex 10.9538 6.02192 4
    endloop
  endfacet
  facet normal -0.368142 -0.92977 0
    outer loop
      vertex 3.86271 11.8882 0
      vertex 5.32224 11.3103 4
      vertex 3.86271 11.8882 4
    endloop
  endfacet
  facet normal -0.368142 -0.92977 -0
    outer loop
      vertex 5.32224 11.3103 4
      vertex 3.86271 11.8882 0
      vertex 5.32224 11.3103 0
    endloop
  endfacet
  facet normal -0.2487 -0.96858 0
    outer loop
      vertex 2.34227 12.2786 0
      vertex 3.86271 11.8882 4
      vertex 2.34227 12.2786 4
    endloop
  endfacet
  facet normal -0.2487 -0.96858 -0
    outer loop
      vertex 3.86271 11.8882 4
      vertex 2.34227 12.2786 0
      vertex 3.86271 11.8882 0
    endloop
  endfacet
  facet normal -0.481736 -0.876317 0
    outer loop
      vertex 5.32224 11.3103 0
      vertex 6.69783 10.5541 4
      vertex 5.32224 11.3103 4
    endloop
  endfacet
  facet normal -0.481736 -0.876317 -0
    outer loop
      vertex 6.69783 10.5541 4
      vertex 5.32224 11.3103 0
      vertex 6.69783 10.5541 0
    endloop
  endfacet
  facet normal 0.844333 -0.535819 0
    outer loop
      vertex -10.9538 6.02192 4
      vertex -10.1127 7.34731 0
      vertex -10.1127 7.34731 4
    endloop
  endfacet
  facet normal 0.844333 -0.535819 0
    outer loop
      vertex -10.1127 7.34731 0
      vertex -10.9538 6.02192 4
      vertex -10.9538 6.02192 0
    endloop
  endfacet
  facet normal 0.77052 -0.637416 0
    outer loop
      vertex -10.1127 7.34731 4
      vertex -9.11211 8.55684 0
      vertex -9.11211 8.55684 4
    endloop
  endfacet
  facet normal 0.77052 -0.637416 0
    outer loop
      vertex -9.11211 8.55684 0
      vertex -10.1127 7.34731 4
      vertex -10.1127 7.34731 0
    endloop
  endfacet
  facet normal 0.951054 -0.309025 0
    outer loop
      vertex -12.1073 3.10862 4
      vertex -11.6222 4.60156 0
      vertex -11.6222 4.60156 4
    endloop
  endfacet
  facet normal 0.951054 -0.309025 0
    outer loop
      vertex -11.6222 4.60156 0
      vertex -12.1073 3.10862 4
      vertex -12.1073 3.10862 0
    endloop
  endfacet
  facet normal 0.587782 -0.809019 0
    outer loop
      vertex -7.9678 9.63142 0
      vertex -6.69783 10.5541 4
      vertex -7.9678 9.63142 4
    endloop
  endfacet
  facet normal 0.587782 -0.809019 0
    outer loop
      vertex -6.69783 10.5541 4
      vertex -7.9678 9.63142 0
      vertex -6.69783 10.5541 0
    endloop
  endfacet
  facet normal 0.125306 -0.992118 0
    outer loop
      vertex -2.34227 12.2786 0
      vertex -0.784881 12.4753 4
      vertex -2.34227 12.2786 4
    endloop
  endfacet
  facet normal 0.125306 -0.992118 0
    outer loop
      vertex -0.784881 12.4753 4
      vertex -2.34227 12.2786 0
      vertex -0.784881 12.4753 0
    endloop
  endfacet
  facet normal -0.125306 0.992118 0
    outer loop
      vertex 2.34227 -12.2786 0
      vertex 0.784881 -12.4753 4
      vertex 2.34227 -12.2786 4
    endloop
  endfacet
  facet normal -0.125306 0.992118 0
    outer loop
      vertex 0.784881 -12.4753 4
      vertex 2.34227 -12.2786 0
      vertex 0.784881 -12.4753 0
    endloop
  endfacet
  facet normal -0.951054 -0.309025 0
    outer loop
      vertex 12.1073 3.10862 0
      vertex 11.6222 4.60156 4
      vertex 11.6222 4.60156 0
    endloop
  endfacet
  facet normal -0.951054 -0.309025 0
    outer loop
      vertex 11.6222 4.60156 4
      vertex 12.1073 3.10862 0
      vertex 12.1073 3.10862 4
    endloop
  endfacet
  facet normal -0.77052 -0.637416 0
    outer loop
      vertex 10.1127 7.34731 0
      vertex 9.11211 8.55684 4
      vertex 9.11211 8.55684 0
    endloop
  endfacet
  facet normal -0.77052 -0.637416 0
    outer loop
      vertex 9.11211 8.55684 4
      vertex 10.1127 7.34731 0
      vertex 10.1127 7.34731 4
    endloop
  endfacet
  facet normal -0.125306 -0.992118 0
    outer loop
      vertex 0.784881 12.4753 0
      vertex 2.34227 12.2786 4
      vertex 0.784881 12.4753 4
    endloop
  endfacet
  facet normal -0.125306 -0.992118 -0
    outer loop
      vertex 2.34227 12.2786 4
      vertex 0.784881 12.4753 0
      vertex 2.34227 12.2786 0
    endloop
  endfacet
  facet normal -0.587782 -0.809019 0
    outer loop
      vertex 6.69783 10.5541 0
      vertex 7.9678 9.63142 4
      vertex 6.69783 10.5541 4
    endloop
  endfacet
  facet normal -0.587782 -0.809019 -0
    outer loop
      vertex 7.9678 9.63142 4
      vertex 6.69783 10.5541 0
      vertex 7.9678 9.63142 0
    endloop
  endfacet
  facet normal 0.90482 -0.425795 0
    outer loop
      vertex -11.6222 4.60156 4
      vertex -10.9538 6.02192 0
      vertex -10.9538 6.02192 4
    endloop
  endfacet
  facet normal 0.90482 -0.425795 0
    outer loop
      vertex -10.9538 6.02192 0
      vertex -11.6222 4.60156 4
      vertex -11.6222 4.60156 0
    endloop
  endfacet
  facet normal 0.982292 -0.187354 0
    outer loop
      vertex -12.4014 1.56666 4
      vertex -12.1073 3.10862 0
      vertex -12.1073 3.10862 4
    endloop
  endfacet
  facet normal 0.982292 -0.187354 0
    outer loop
      vertex -12.1073 3.10862 0
      vertex -12.4014 1.56666 4
      vertex -12.4014 1.56666 0
    endloop
  endfacet
  facet normal 0.481736 -0.876317 0
    outer loop
      vertex -6.69783 10.5541 0
      vertex -5.32224 11.3103 4
      vertex -6.69783 10.5541 4
    endloop
  endfacet
  facet normal 0.481736 -0.876317 0
    outer loop
      vertex -5.32224 11.3103 4
      vertex -6.69783 10.5541 0
      vertex -5.32224 11.3103 0
    endloop
  endfacet
  facet normal 0.2487 -0.96858 0
    outer loop
      vertex -3.86271 11.8882 0
      vertex -2.34227 12.2786 4
      vertex -3.86271 11.8882 4
    endloop
  endfacet
  facet normal 0.2487 -0.96858 0
    outer loop
      vertex -2.34227 12.2786 4
      vertex -3.86271 11.8882 0
      vertex -2.34227 12.2786 0
    endloop
  endfacet
  facet normal -0.684548 0.728968 0
    outer loop
      vertex 9.11211 -8.55684 0
      vertex 7.9678 -9.63142 4
      vertex 9.11211 -8.55684 4
    endloop
  endfacet
  facet normal -0.684548 0.728968 0
    outer loop
      vertex 7.9678 -9.63142 4
      vertex 9.11211 -8.55684 0
      vertex 7.9678 -9.63142 0
    endloop
  endfacet
  facet normal -0.982292 0.187354 0
    outer loop
      vertex 12.1073 -3.10862 0
      vertex 12.4014 -1.56666 4
      vertex 12.4014 -1.56666 0
    endloop
  endfacet
  facet normal -0.982292 0.187354 0
    outer loop
      vertex 12.4014 -1.56666 4
      vertex 12.1073 -3.10862 0
      vertex 12.1073 -3.10862 4
    endloop
  endfacet
  facet normal -0.368142 0.92977 0
    outer loop
      vertex 5.32224 -11.3103 0
      vertex 3.86271 -11.8882 4
      vertex 5.32224 -11.3103 4
    endloop
  endfacet
  facet normal -0.368142 0.92977 0
    outer loop
      vertex 3.86271 -11.8882 4
      vertex 5.32224 -11.3103 0
      vertex 3.86271 -11.8882 0
    endloop
  endfacet
  facet normal -0.77052 0.637416 0
    outer loop
      vertex 9.11211 -8.55684 0
      vertex 10.1127 -7.34731 4
      vertex 10.1127 -7.34731 0
    endloop
  endfacet
  facet normal -0.77052 0.637416 0
    outer loop
      vertex 10.1127 -7.34731 4
      vertex 9.11211 -8.55684 0
      vertex 9.11211 -8.55684 4
    endloop
  endfacet
  facet normal -0.481736 0.876317 0
    outer loop
      vertex 6.69783 -10.5541 0
      vertex 5.32224 -11.3103 4
      vertex 6.69783 -10.5541 4
    endloop
  endfacet
  facet normal -0.481736 0.876317 0
    outer loop
      vertex 5.32224 -11.3103 4
      vertex 6.69783 -10.5541 0
      vertex 5.32224 -11.3103 0
    endloop
  endfacet
  facet normal -0.90482 0.425795 0
    outer loop
      vertex 10.9538 -6.02192 0
      vertex 11.6222 -4.60156 4
      vertex 11.6222 -4.60156 0
    endloop
  endfacet
  facet normal -0.90482 0.425795 0
    outer loop
      vertex 11.6222 -4.60156 4
      vertex 10.9538 -6.02192 0
      vertex 10.9538 -6.02192 4
    endloop
  endfacet
  facet normal -0.998025 0.0628122 0
    outer loop
      vertex 12.4014 -1.56666 0
      vertex 12.5 0 4
      vertex 12.5 0 0
    endloop
  endfacet
  facet normal -0.998025 0.0628122 0
    outer loop
      vertex 12.5 0 4
      vertex 12.4014 -1.56666 0
      vertex 12.4014 -1.56666 4
    endloop
  endfacet
  facet normal 0.368142 0.92977 -0
    outer loop
      vertex -3.86271 -11.8882 0
      vertex -5.32224 -11.3103 4
      vertex -3.86271 -11.8882 4
    endloop
  endfacet
  facet normal 0.368142 0.92977 0
    outer loop
      vertex -5.32224 -11.3103 4
      vertex -3.86271 -11.8882 0
      vertex -5.32224 -11.3103 0
    endloop
  endfacet
  facet normal 0.77052 0.637416 0
    outer loop
      vertex -9.11211 -8.55684 4
      vertex -10.1127 -7.34731 0
      vertex -10.1127 -7.34731 4
    endloop
  endfacet
  facet normal 0.77052 0.637416 0
    outer loop
      vertex -10.1127 -7.34731 0
      vertex -9.11211 -8.55684 4
      vertex -9.11211 -8.55684 0
    endloop
  endfacet
  facet normal 0.951054 0.309025 0
    outer loop
      vertex -11.6222 -4.60156 4
      vertex -12.1073 -3.10862 0
      vertex -12.1073 -3.10862 4
    endloop
  endfacet
  facet normal 0.951054 0.309025 0
    outer loop
      vertex -12.1073 -3.10862 0
      vertex -11.6222 -4.60156 4
      vertex -11.6222 -4.60156 0
    endloop
  endfacet
  facet normal 0.998025 0.0628122 0
    outer loop
      vertex -12.4014 -1.56666 4
      vertex -12.5 0 0
      vertex -12.5 0 4
    endloop
  endfacet
  facet normal 0.998025 0.0628122 0
    outer loop
      vertex -12.5 0 0
      vertex -12.4014 -1.56666 4
      vertex -12.4014 -1.56666 0
    endloop
  endfacet
  facet normal -0.2487 0.96858 0
    outer loop
      vertex 3.86271 -11.8882 0
      vertex 2.34227 -12.2786 4
      vertex 3.86271 -11.8882 4
    endloop
  endfacet
  facet normal -0.2487 0.96858 0
    outer loop
      vertex 2.34227 -12.2786 4
      vertex 3.86271 -11.8882 0
      vertex 2.34227 -12.2786 0
    endloop
  endfacet
  facet normal -0.844333 0.535819 0
    outer loop
      vertex 10.1127 -7.34731 0
      vertex 10.9538 -6.02192 4
      vertex 10.9538 -6.02192 0
    endloop
  endfacet
  facet normal -0.844333 0.535819 0
    outer loop
      vertex 10.9538 -6.02192 4
      vertex 10.1127 -7.34731 0
      vertex 10.1127 -7.34731 4
    endloop
  endfacet
  facet normal -0.587782 0.809019 0
    outer loop
      vertex 7.9678 -9.63142 0
      vertex 6.69783 -10.5541 4
      vertex 7.9678 -9.63142 4
    endloop
  endfacet
  facet normal -0.587782 0.809019 0
    outer loop
      vertex 6.69783 -10.5541 4
      vertex 7.9678 -9.63142 0
      vertex 6.69783 -10.5541 0
    endloop
  endfacet
  facet normal -0.951054 0.309025 0
    outer loop
      vertex 11.6222 -4.60156 0
      vertex 12.1073 -3.10862 4
      vertex 12.1073 -3.10862 0
    endloop
  endfacet
  facet normal -0.951054 0.309025 0
    outer loop
      vertex 12.1073 -3.10862 4
      vertex 11.6222 -4.60156 0
      vertex 11.6222 -4.60156 4
    endloop
  endfacet
  facet normal 0.125306 0.992118 -0
    outer loop
      vertex -0.784881 -12.4753 0
      vertex -2.34227 -12.2786 4
      vertex -0.784881 -12.4753 4
    endloop
  endfacet
  facet normal 0.125306 0.992118 0
    outer loop
      vertex -2.34227 -12.2786 4
      vertex -0.784881 -12.4753 0
      vertex -2.34227 -12.2786 0
    endloop
  endfacet
  facet normal 0.2487 0.96858 -0
    outer loop
      vertex -2.34227 -12.2786 0
      vertex -3.86271 -11.8882 4
      vertex -2.34227 -12.2786 4
    endloop
  endfacet
  facet normal 0.2487 0.96858 0
    outer loop
      vertex -3.86271 -11.8882 4
      vertex -2.34227 -12.2786 0
      vertex -3.86271 -11.8882 0
    endloop
  endfacet
  facet normal 0.684548 0.728968 -0
    outer loop
      vertex -7.9678 -9.63142 0
      vertex -9.11211 -8.55684 4
      vertex -7.9678 -9.63142 4
    endloop
  endfacet
  facet normal 0.684548 0.728968 0
    outer loop
      vertex -9.11211 -8.55684 4
      vertex -7.9678 -9.63142 0
      vertex -9.11211 -8.55684 0
    endloop
  endfacet
  facet normal 0.90482 0.425795 0
    outer loop
      vertex -10.9538 -6.02192 4
      vertex -11.6222 -4.60156 0
      vertex -11.6222 -4.60156 4
    endloop
  endfacet
  facet normal 0.90482 0.425795 0
    outer loop
      vertex -11.6222 -4.60156 0
      vertex -10.9538 -6.02192 4
      vertex -10.9538 -6.02192 0
    endloop
  endfacet
  facet normal 0.982292 0.187354 0
    outer loop
      vertex -12.1073 -3.10862 4
      vertex -12.4014 -1.56666 0
      vertex -12.4014 -1.56666 4
    endloop
  endfacet
  facet normal 0.982292 0.187354 0
    outer loop
      vertex -12.4014 -1.56666 0
      vertex -12.1073 -3.10862 4
      vertex -12.1073 -3.10862 0
    endloop
  endfacet
  facet normal 0.844333 0.535819 0
    outer loop
      vertex -10.1127 -7.34731 4
      vertex -10.9538 -6.02192 0
      vertex -10.9538 -6.02192 4
    endloop
  endfacet
  facet normal 0.844333 0.535819 0
    outer loop
      vertex -10.9538 -6.02192 0
      vertex -10.1127 -7.34731 4
      vertex -10.1127 -7.34731 0
    endloop
  endfacet
  facet normal 0.481736 0.876317 -0
    outer loop
      vertex -5.32224 -11.3103 0
      vertex -6.69783 -10.5541 4
      vertex -5.32224 -11.3103 4
    endloop
  endfacet
  facet normal 0.481736 0.876317 0
    outer loop
      vertex -6.69783 -10.5541 4
      vertex -5.32224 -11.3103 0
      vertex -6.69783 -10.5541 0
    endloop
  endfacet
  facet normal 0.587782 0.809019 -0
    outer loop
      vertex -6.69783 -10.5541 0
      vertex -7.9678 -9.63142 4
      vertex -6.69783 -10.5541 4
    endloop
  endfacet
  facet normal 0.587782 0.809019 0
    outer loop
      vertex -7.9678 -9.63142 4
      vertex -6.69783 -10.5541 0
      vertex -7.9678 -9.63142 0
    endloop
  endfacet
endsolid OpenSCAD_Model
