  0
SECTION
  2
BLOCKS
  0
ENDSEC
  0
SECTION
  2
ENTITIES
  0
LINE
  8
0
 10
0.562134
 20
107.053
 11
0.927048
 21
107.147
  0
LINE
  8
0
 10
0.927048
 20
107.147
 11
1.27733
 21
107.286
  0
LINE
  8
0
 10
1.27733
 20
107.286
 11
1.60747
 21
107.467
  0
LINE
  8
0
 10
1.60747
 20
107.467
 11
1.91226
 21
107.688
  0
LINE
  8
0
 10
1.91226
 20
107.688
 11
2.1869
 21
107.946
  0
LINE
  8
0
 10
2.1869
 20
107.946
 11
2.42705
 21
108.237
  0
LINE
  8
0
 10
2.42705
 20
108.237
 11
2.62891
 21
108.555
  0
LINE
  8
0
 10
2.62891
 20
108.555
 11
2.78932
 21
108.896
  0
LINE
  8
0
 10
2.78932
 20
108.896
 11
2.90575
 21
109.254
  0
LINE
  8
0
 10
2.90575
 20
109.254
 11
2.97633
 21
109.624
  0
LINE
  8
0
 10
2.97633
 20
109.624
 11
3
 21
110
  0
LINE
  8
0
 10
3
 20
110
 11
2.97633
 21
110.376
  0
LINE
  8
0
 10
2.97633
 20
110.376
 11
2.90575
 21
110.746
  0
LINE
  8
0
 10
2.90575
 20
110.746
 11
2.78932
 21
111.104
  0
LINE
  8
0
 10
2.78932
 20
111.104
 11
2.62891
 21
111.445
  0
LINE
  8
0
 10
2.62891
 20
111.445
 11
2.42705
 21
111.763
  0
LINE
  8
0
 10
2.42705
 20
111.763
 11
2.1869
 21
112.054
  0
LINE
  8
0
 10
2.1869
 20
112.054
 11
1.91226
 21
112.312
  0
LINE
  8
0
 10
1.91226
 20
112.312
 11
1.60747
 21
112.533
  0
LINE
  8
0
 10
1.60747
 20
112.533
 11
1.27733
 21
112.714
  0
LINE
  8
0
 10
1.27733
 20
112.714
 11
0.927048
 21
112.853
  0
LINE
  8
0
 10
0.927048
 20
112.853
 11
0.562134
 21
112.947
  0
LINE
  8
0
 10
0.562134
 20
112.947
 11
0.18837
 21
112.994
  0
LINE
  8
0
 10
0.18837
 20
112.994
 11
-0.18837
 21
112.994
  0
LINE
  8
0
 10
-0.18837
 20
112.994
 11
-0.562134
 21
112.947
  0
LINE
  8
0
 10
-0.562134
 20
112.947
 11
-0.927048
 21
112.853
  0
LINE
  8
0
 10
-0.927048
 20
112.853
 11
-1.27733
 21
112.714
  0
LINE
  8
0
 10
-1.27733
 20
112.714
 11
-1.60747
 21
112.533
  0
LINE
  8
0
 10
-1.60747
 20
112.533
 11
-1.91226
 21
112.312
  0
LINE
  8
0
 10
-1.91226
 20
112.312
 11
-2.1869
 21
112.054
  0
LINE
  8
0
 10
-2.1869
 20
112.054
 11
-2.42705
 21
111.763
  0
LINE
  8
0
 10
-2.42705
 20
111.763
 11
-2.62891
 21
111.445
  0
LINE
  8
0
 10
-2.62891
 20
111.445
 11
-2.78932
 21
111.104
  0
LINE
  8
0
 10
-2.78932
 20
111.104
 11
-2.90575
 21
110.746
  0
LINE
  8
0
 10
-2.90575
 20
110.746
 11
-2.97633
 21
110.376
  0
LINE
  8
0
 10
-2.97633
 20
110.376
 11
-3
 21
110
  0
LINE
  8
0
 10
-3
 20
110
 11
-2.97633
 21
109.624
  0
LINE
  8
0
 10
-2.97633
 20
109.624
 11
-2.90575
 21
109.254
  0
LINE
  8
0
 10
-2.90575
 20
109.254
 11
-2.78932
 21
108.896
  0
LINE
  8
0
 10
-2.78932
 20
108.896
 11
-2.62891
 21
108.555
  0
LINE
  8
0
 10
-2.62891
 20
108.555
 11
-2.42705
 21
108.237
  0
LINE
  8
0
 10
-2.42705
 20
108.237
 11
-2.1869
 21
107.946
  0
LINE
  8
0
 10
-2.1869
 20
107.946
 11
-1.91226
 21
107.688
  0
LINE
  8
0
 10
-1.91226
 20
107.688
 11
-1.60747
 21
107.467
  0
LINE
  8
0
 10
-1.60747
 20
107.467
 11
-1.27733
 21
107.286
  0
LINE
  8
0
 10
-1.27733
 20
107.286
 11
-0.927048
 21
107.147
  0
LINE
  8
0
 10
-0.927048
 20
107.147
 11
-0.562134
 21
107.053
  0
LINE
  8
0
 10
-0.562134
 20
107.053
 11
-0.18837
 21
107.006
  0
LINE
  8
0
 10
-0.18837
 20
107.006
 11
0.18837
 21
107.006
  0
LINE
  8
0
 10
0.18837
 20
107.006
 11
0.562134
 21
107.053
  0
LINE
  8
0
 10
-0.0941772
 20
108.503
 11
-0.281067
 21
108.527
  0
LINE
  8
0
 10
-0.281067
 20
108.527
 11
-0.463516
 21
108.573
  0
LINE
  8
0
 10
-0.463516
 20
108.573
 11
-0.638657
 21
108.643
  0
LINE
  8
0
 10
-0.638657
 20
108.643
 11
-0.803726
 21
108.734
  0
LINE
  8
0
 10
-0.803726
 20
108.734
 11
-0.956131
 21
108.844
  0
LINE
  8
0
 10
-0.956131
 20
108.844
 11
-1.09344
 21
108.973
  0
LINE
  8
0
 10
-1.09344
 20
108.973
 11
-1.21352
 21
109.118
  0
LINE
  8
0
 10
-1.21352
 20
109.118
 11
-1.31445
 21
109.277
  0
LINE
  8
0
 10
-1.31445
 20
109.277
 11
-1.39465
 21
109.448
  0
LINE
  8
0
 10
-1.39465
 20
109.448
 11
-1.45287
 21
109.627
  0
LINE
  8
0
 10
-1.45287
 20
109.627
 11
-1.48816
 21
109.812
  0
LINE
  8
0
 10
-1.48816
 20
109.812
 11
-1.5
 21
110
  0
LINE
  8
0
 10
-1.5
 20
110
 11
-1.48816
 21
110.188
  0
LINE
  8
0
 10
-1.48816
 20
110.188
 11
-1.45287
 21
110.373
  0
LINE
  8
0
 10
-1.45287
 20
110.373
 11
-1.39465
 21
110.552
  0
LINE
  8
0
 10
-1.39465
 20
110.552
 11
-1.31445
 21
110.723
  0
LINE
  8
0
 10
-1.31445
 20
110.723
 11
-1.21352
 21
110.882
  0
LINE
  8
0
 10
-1.21352
 20
110.882
 11
-1.09344
 21
111.027
  0
LINE
  8
0
 10
-1.09344
 20
111.027
 11
-0.956131
 21
111.156
  0
LINE
  8
0
 10
-0.956131
 20
111.156
 11
-0.803726
 21
111.266
  0
LINE
  8
0
 10
-0.803726
 20
111.266
 11
-0.638657
 21
111.357
  0
LINE
  8
0
 10
-0.638657
 20
111.357
 11
-0.463516
 21
111.427
  0
LINE
  8
0
 10
-0.463516
 20
111.427
 11
-0.281067
 21
111.473
  0
LINE
  8
0
 10
-0.281067
 20
111.473
 11
-0.0941772
 21
111.497
  0
LINE
  8
0
 10
-0.0941772
 20
111.497
 11
0.0941772
 21
111.497
  0
LINE
  8
0
 10
0.0941772
 20
111.497
 11
0.281067
 21
111.473
  0
LINE
  8
0
 10
0.281067
 20
111.473
 11
0.463516
 21
111.427
  0
LINE
  8
0
 10
0.463516
 20
111.427
 11
0.638657
 21
111.357
  0
LINE
  8
0
 10
0.638657
 20
111.357
 11
0.803726
 21
111.266
  0
LINE
  8
0
 10
0.803726
 20
111.266
 11
0.956131
 21
111.156
  0
LINE
  8
0
 10
0.956131
 20
111.156
 11
1.09344
 21
111.027
  0
LINE
  8
0
 10
1.09344
 20
111.027
 11
1.21352
 21
110.882
  0
LINE
  8
0
 10
1.21352
 20
110.882
 11
1.31445
 21
110.723
  0
LINE
  8
0
 10
1.31445
 20
110.723
 11
1.39465
 21
110.552
  0
LINE
  8
0
 10
1.39465
 20
110.552
 11
1.45287
 21
110.373
  0
LINE
  8
0
 10
1.45287
 20
110.373
 11
1.48816
 21
110.188
  0
LINE
  8
0
 10
1.48816
 20
110.188
 11
1.5
 21
110
  0
LINE
  8
0
 10
1.5
 20
110
 11
1.48816
 21
109.812
  0
LINE
  8
0
 10
1.48816
 20
109.812
 11
1.45287
 21
109.627
  0
LINE
  8
0
 10
1.45287
 20
109.627
 11
1.39465
 21
109.448
  0
LINE
  8
0
 10
1.39465
 20
109.448
 11
1.31445
 21
109.277
  0
LINE
  8
0
 10
1.31445
 20
109.277
 11
1.21352
 21
109.118
  0
LINE
  8
0
 10
1.21352
 20
109.118
 11
1.09344
 21
108.973
  0
LINE
  8
0
 10
1.09344
 20
108.973
 11
0.956131
 21
108.844
  0
LINE
  8
0
 10
0.956131
 20
108.844
 11
0.803726
 21
108.734
  0
LINE
  8
0
 10
0.803726
 20
108.734
 11
0.638657
 21
108.643
  0
LINE
  8
0
 10
0.638657
 20
108.643
 11
0.463516
 21
108.573
  0
LINE
  8
0
 10
0.463516
 20
108.573
 11
0.281067
 21
108.527
  0
LINE
  8
0
 10
0.281067
 20
108.527
 11
0.0941772
 21
108.503
  0
LINE
  8
0
 10
0.0941772
 20
108.503
 11
-0.0941772
 21
108.503
  0
LINE
  8
0
 10
0.562134
 20
-2.94685
 11
0.927048
 21
-2.85316
  0
LINE
  8
0
 10
0.927048
 20
-2.85316
 11
1.27733
 21
-2.71448
  0
LINE
  8
0
 10
1.27733
 20
-2.71448
 11
1.60747
 21
-2.53297
  0
LINE
  8
0
 10
1.60747
 20
-2.53297
 11
1.91226
 21
-2.31154
  0
LINE
  8
0
 10
1.91226
 20
-2.31154
 11
2.1869
 21
-2.05363
  0
LINE
  8
0
 10
2.1869
 20
-2.05363
 11
2.42705
 21
-1.76335
  0
LINE
  8
0
 10
2.42705
 20
-1.76335
 11
2.62891
 21
-1.44525
  0
LINE
  8
0
 10
2.62891
 20
-1.44525
 11
2.78932
 21
-1.10437
  0
LINE
  8
0
 10
2.78932
 20
-1.10437
 11
2.90575
 21
-0.746063
  0
LINE
  8
0
 10
2.90575
 20
-0.746063
 11
2.97633
 21
-0.375992
  0
LINE
  8
0
 10
2.97633
 20
-0.375992
 11
3
 21
0
  0
LINE
  8
0
 10
3
 20
0
 11
2.97633
 21
0.375992
  0
LINE
  8
0
 10
2.97633
 20
0.375992
 11
2.90575
 21
0.746063
  0
LINE
  8
0
 10
2.90575
 20
0.746063
 11
2.78932
 21
1.10437
  0
LINE
  8
0
 10
2.78932
 20
1.10437
 11
2.62891
 21
1.44525
  0
LINE
  8
0
 10
2.62891
 20
1.44525
 11
2.42705
 21
1.76335
  0
LINE
  8
0
 10
2.42705
 20
1.76335
 11
2.1869
 21
2.05363
  0
LINE
  8
0
 10
2.1869
 20
2.05363
 11
1.91226
 21
2.31154
  0
LINE
  8
0
 10
1.91226
 20
2.31154
 11
1.60747
 21
2.53297
  0
LINE
  8
0
 10
1.60747
 20
2.53297
 11
1.27733
 21
2.71448
  0
LINE
  8
0
 10
1.27733
 20
2.71448
 11
0.927048
 21
2.85316
  0
LINE
  8
0
 10
0.927048
 20
2.85316
 11
0.562134
 21
2.94685
  0
LINE
  8
0
 10
0.562134
 20
2.94685
 11
0.18837
 21
2.99408
  0
LINE
  8
0
 10
0.18837
 20
2.99408
 11
-0.18837
 21
2.99408
  0
LINE
  8
0
 10
-0.18837
 20
2.99408
 11
-0.562134
 21
2.94685
  0
LINE
  8
0
 10
-0.562134
 20
2.94685
 11
-0.927048
 21
2.85316
  0
LINE
  8
0
 10
-0.927048
 20
2.85316
 11
-1.27733
 21
2.71448
  0
LINE
  8
0
 10
-1.27733
 20
2.71448
 11
-1.60747
 21
2.53297
  0
LINE
  8
0
 10
-1.60747
 20
2.53297
 11
-1.91226
 21
2.31154
  0
LINE
  8
0
 10
-1.91226
 20
2.31154
 11
-2.1869
 21
2.05363
  0
LINE
  8
0
 10
-2.1869
 20
2.05363
 11
-2.42705
 21
1.76335
  0
LINE
  8
0
 10
-2.42705
 20
1.76335
 11
-2.62891
 21
1.44525
  0
LINE
  8
0
 10
-2.62891
 20
1.44525
 11
-2.78932
 21
1.10437
  0
LINE
  8
0
 10
-2.78932
 20
1.10437
 11
-2.90575
 21
0.746063
  0
LINE
  8
0
 10
-2.90575
 20
0.746063
 11
-2.97633
 21
0.375992
  0
LINE
  8
0
 10
-2.97633
 20
0.375992
 11
-3
 21
0
  0
LINE
  8
0
 10
-3
 20
0
 11
-2.97633
 21
-0.375992
  0
LINE
  8
0
 10
-2.97633
 20
-0.375992
 11
-2.90575
 21
-0.746063
  0
LINE
  8
0
 10
-2.90575
 20
-0.746063
 11
-2.78932
 21
-1.10437
  0
LINE
  8
0
 10
-2.78932
 20
-1.10437
 11
-2.62891
 21
-1.44525
  0
LINE
  8
0
 10
-2.62891
 20
-1.44525
 11
-2.42705
 21
-1.76335
  0
LINE
  8
0
 10
-2.42705
 20
-1.76335
 11
-2.1869
 21
-2.05363
  0
LINE
  8
0
 10
-2.1869
 20
-2.05363
 11
-1.91226
 21
-2.31154
  0
LINE
  8
0
 10
-1.91226
 20
-2.31154
 11
-1.60747
 21
-2.53297
  0
LINE
  8
0
 10
-1.60747
 20
-2.53297
 11
-1.27733
 21
-2.71448
  0
LINE
  8
0
 10
-1.27733
 20
-2.71448
 11
-0.927048
 21
-2.85316
  0
LINE
  8
0
 10
-0.927048
 20
-2.85316
 11
-0.562134
 21
-2.94685
  0
LINE
  8
0
 10
-0.562134
 20
-2.94685
 11
-0.18837
 21
-2.99408
  0
LINE
  8
0
 10
-0.18837
 20
-2.99408
 11
0.18837
 21
-2.99408
  0
LINE
  8
0
 10
0.18837
 20
-2.99408
 11
0.562134
 21
-2.94685
  0
LINE
  8
0
 10
-0.0941772
 20
-1.49704
 11
-0.281067
 21
-1.47342
  0
LINE
  8
0
 10
-0.281067
 20
-1.47342
 11
-0.463516
 21
-1.42657
  0
LINE
  8
0
 10
-0.463516
 20
-1.42657
 11
-0.638657
 21
-1.35724
  0
LINE
  8
0
 10
-0.638657
 20
-1.35724
 11
-0.803726
 21
-1.26648
  0
LINE
  8
0
 10
-0.803726
 20
-1.26648
 11
-0.956131
 21
-1.15576
  0
LINE
  8
0
 10
-0.956131
 20
-1.15576
 11
-1.09344
 21
-1.02681
  0
LINE
  8
0
 10
-1.09344
 20
-1.02681
 11
-1.21352
 21
-0.881668
  0
LINE
  8
0
 10
-1.21352
 20
-0.881668
 11
-1.31445
 21
-0.722626
  0
LINE
  8
0
 10
-1.31445
 20
-0.722626
 11
-1.39465
 21
-0.552185
  0
LINE
  8
0
 10
-1.39465
 20
-0.552185
 11
-1.45287
 21
-0.373032
  0
LINE
  8
0
 10
-1.45287
 20
-0.373032
 11
-1.48816
 21
-0.187988
  0
LINE
  8
0
 10
-1.48816
 20
-0.187988
 11
-1.5
 21
0
  0
LINE
  8
0
 10
-1.5
 20
0
 11
-1.48816
 21
0.187988
  0
LINE
  8
0
 10
-1.48816
 20
0.187988
 11
-1.45287
 21
0.373032
  0
LINE
  8
0
 10
-1.45287
 20
0.373032
 11
-1.39465
 21
0.552185
  0
LINE
  8
0
 10
-1.39465
 20
0.552185
 11
-1.31445
 21
0.722626
  0
LINE
  8
0
 10
-1.31445
 20
0.722626
 11
-1.21352
 21
0.881668
  0
LINE
  8
0
 10
-1.21352
 20
0.881668
 11
-1.09344
 21
1.02681
  0
LINE
  8
0
 10
-1.09344
 20
1.02681
 11
-0.956131
 21
1.15576
  0
LINE
  8
0
 10
-0.956131
 20
1.15576
 11
-0.803726
 21
1.26648
  0
LINE
  8
0
 10
-0.803726
 20
1.26648
 11
-0.638657
 21
1.35724
  0
LINE
  8
0
 10
-0.638657
 20
1.35724
 11
-0.463516
 21
1.42657
  0
LINE
  8
0
 10
-0.463516
 20
1.42657
 11
-0.281067
 21
1.47342
  0
LINE
  8
0
 10
-0.281067
 20
1.47342
 11
-0.0941772
 21
1.49704
  0
LINE
  8
0
 10
-0.0941772
 20
1.49704
 11
0.0941772
 21
1.49704
  0
LINE
  8
0
 10
0.0941772
 20
1.49704
 11
0.281067
 21
1.47342
  0
LINE
  8
0
 10
0.281067
 20
1.47342
 11
0.463516
 21
1.42657
  0
LINE
  8
0
 10
0.463516
 20
1.42657
 11
0.638657
 21
1.35724
  0
LINE
  8
0
 10
0.638657
 20
1.35724
 11
0.803726
 21
1.26648
  0
LINE
  8
0
 10
0.803726
 20
1.26648
 11
0.956131
 21
1.15576
  0
LINE
  8
0
 10
0.956131
 20
1.15576
 11
1.09344
 21
1.02681
  0
LINE
  8
0
 10
1.09344
 20
1.02681
 11
1.21352
 21
0.881668
  0
LINE
  8
0
 10
1.21352
 20
0.881668
 11
1.31445
 21
0.722626
  0
LINE
  8
0
 10
1.31445
 20
0.722626
 11
1.39465
 21
0.552185
  0
LINE
  8
0
 10
1.39465
 20
0.552185
 11
1.45287
 21
0.373032
  0
LINE
  8
0
 10
1.45287
 20
0.373032
 11
1.48816
 21
0.187988
  0
LINE
  8
0
 10
1.48816
 20
0.187988
 11
1.5
 21
0
  0
LINE
  8
0
 10
1.5
 20
0
 11
1.48816
 21
-0.187988
  0
LINE
  8
0
 10
1.48816
 20
-0.187988
 11
1.45287
 21
-0.373032
  0
LINE
  8
0
 10
1.45287
 20
-0.373032
 11
1.39465
 21
-0.552185
  0
LINE
  8
0
 10
1.39465
 20
-0.552185
 11
1.31445
 21
-0.722626
  0
LINE
  8
0
 10
1.31445
 20
-0.722626
 11
1.21352
 21
-0.881668
  0
LINE
  8
0
 10
1.21352
 20
-0.881668
 11
1.09344
 21
-1.02681
  0
LINE
  8
0
 10
1.09344
 20
-1.02681
 11
0.956131
 21
-1.15576
  0
LINE
  8
0
 10
0.956131
 20
-1.15576
 11
0.803726
 21
-1.26648
  0
LINE
  8
0
 10
0.803726
 20
-1.26648
 11
0.638657
 21
-1.35724
  0
LINE
  8
0
 10
0.638657
 20
-1.35724
 11
0.463516
 21
-1.42657
  0
LINE
  8
0
 10
0.463516
 20
-1.42657
 11
0.281067
 21
-1.47342
  0
LINE
  8
0
 10
0.281067
 20
-1.47342
 11
0.0941772
 21
-1.49704
  0
LINE
  8
0
 10
0.0941772
 20
-1.49704
 11
-0.0941772
 21
-1.49704
  0
ENDSEC
  0
SECTION
  2
OBJECTS
  0
DICTIONARY
  0
ENDSEC
  0
EOF
