  0
SECTION
  2
BLOCKS
  0
ENDSEC
  0
SECTION
  2
ENTITIES
  0
LINE
  8
0
 10
100.937
 20
688.589
 11
101.545
 21
688.745
  0
LINE
  8
0
 10
101.545
 20
688.745
 11
102.129
 21
688.976
  0
LINE
  8
0
 10
102.129
 20
688.976
 11
102.679
 21
689.278
  0
LINE
  8
0
 10
102.679
 20
689.278
 11
103.187
 21
689.647
  0
LINE
  8
0
 10
103.187
 20
689.647
 11
103.645
 21
690.077
  0
LINE
  8
0
 10
103.645
 20
690.077
 11
104.045
 21
690.561
  0
LINE
  8
0
 10
104.045
 20
690.561
 11
104.382
 21
691.091
  0
LINE
  8
0
 10
104.382
 20
691.091
 11
104.649
 21
691.659
  0
LINE
  8
0
 10
104.649
 20
691.659
 11
104.843
 21
692.257
  0
LINE
  8
0
 10
104.843
 20
692.257
 11
104.961
 21
692.873
  0
LINE
  8
0
 10
104.961
 20
692.873
 11
105
 21
693.5
  0
LINE
  8
0
 10
105
 20
693.5
 11
105
 21
698.5
  0
LINE
  8
0
 10
105
 20
698.5
 11
104.961
 21
699.127
  0
LINE
  8
0
 10
104.961
 20
699.127
 11
104.843
 21
699.743
  0
LINE
  8
0
 10
104.843
 20
699.743
 11
104.649
 21
700.341
  0
LINE
  8
0
 10
104.649
 20
700.341
 11
104.382
 21
700.909
  0
LINE
  8
0
 10
104.382
 20
700.909
 11
104.045
 21
701.439
  0
LINE
  8
0
 10
104.045
 20
701.439
 11
103.645
 21
701.923
  0
LINE
  8
0
 10
103.645
 20
701.923
 11
103.187
 21
702.353
  0
LINE
  8
0
 10
103.187
 20
702.353
 11
102.679
 21
702.722
  0
LINE
  8
0
 10
102.679
 20
702.722
 11
102.129
 21
703.024
  0
LINE
  8
0
 10
102.129
 20
703.024
 11
101.545
 21
703.255
  0
LINE
  8
0
 10
101.545
 20
703.255
 11
100.937
 21
703.411
  0
LINE
  8
0
 10
100.937
 20
703.411
 11
100.314
 21
703.49
  0
LINE
  8
0
 10
100.314
 20
703.49
 11
-100.314
 21
703.49
  0
LINE
  8
0
 10
-100.314
 20
703.49
 11
-100.937
 21
703.411
  0
LINE
  8
0
 10
-100.937
 20
703.411
 11
-101.545
 21
703.255
  0
LINE
  8
0
 10
-101.545
 20
703.255
 11
-102.129
 21
703.024
  0
LINE
  8
0
 10
-102.129
 20
703.024
 11
-102.679
 21
702.722
  0
LINE
  8
0
 10
-102.679
 20
702.722
 11
-103.187
 21
702.353
  0
LINE
  8
0
 10
-103.187
 20
702.353
 11
-103.645
 21
701.923
  0
LINE
  8
0
 10
-103.645
 20
701.923
 11
-104.045
 21
701.439
  0
LINE
  8
0
 10
-104.045
 20
701.439
 11
-104.382
 21
700.909
  0
LINE
  8
0
 10
-104.382
 20
700.909
 11
-104.649
 21
700.341
  0
LINE
  8
0
 10
-104.649
 20
700.341
 11
-104.843
 21
699.743
  0
LINE
  8
0
 10
-104.843
 20
699.743
 11
-104.961
 21
699.127
  0
LINE
  8
0
 10
-104.961
 20
699.127
 11
-105
 21
698.5
  0
LINE
  8
0
 10
-105
 20
698.5
 11
-105
 21
693.5
  0
LINE
  8
0
 10
-105
 20
693.5
 11
-104.961
 21
692.873
  0
LINE
  8
0
 10
-104.961
 20
692.873
 11
-104.843
 21
692.257
  0
LINE
  8
0
 10
-104.843
 20
692.257
 11
-104.649
 21
691.659
  0
LINE
  8
0
 10
-104.649
 20
691.659
 11
-104.382
 21
691.091
  0
LINE
  8
0
 10
-104.382
 20
691.091
 11
-104.045
 21
690.561
  0
LINE
  8
0
 10
-104.045
 20
690.561
 11
-103.645
 21
690.077
  0
LINE
  8
0
 10
-103.645
 20
690.077
 11
-103.187
 21
689.647
  0
LINE
  8
0
 10
-103.187
 20
689.647
 11
-102.679
 21
689.278
  0
LINE
  8
0
 10
-102.679
 20
689.278
 11
-102.129
 21
688.976
  0
LINE
  8
0
 10
-102.129
 20
688.976
 11
-101.545
 21
688.745
  0
LINE
  8
0
 10
-101.545
 20
688.745
 11
-100.937
 21
688.589
  0
LINE
  8
0
 10
-100.937
 20
688.589
 11
-100.314
 21
688.51
  0
LINE
  8
0
 10
-100.314
 20
688.51
 11
100.314
 21
688.51
  0
LINE
  8
0
 10
100.314
 20
688.51
 11
100.937
 21
688.589
  0
LINE
  8
0
 10
-99.7512
 20
690.008
 11
-100.25
 21
690.071
  0
LINE
  8
0
 10
-100.25
 20
690.071
 11
-100.736
 21
690.196
  0
LINE
  8
0
 10
-100.736
 20
690.196
 11
-101.203
 21
690.381
  0
LINE
  8
0
 10
-101.203
 20
690.381
 11
-101.643
 21
690.623
  0
LINE
  8
0
 10
-101.643
 20
690.623
 11
-102.05
 21
690.918
  0
LINE
  8
0
 10
-102.05
 20
690.918
 11
-102.416
 21
691.262
  0
LINE
  8
0
 10
-102.416
 20
691.262
 11
-102.736
 21
691.649
  0
LINE
  8
0
 10
-102.736
 20
691.649
 11
-103.005
 21
692.073
  0
LINE
  8
0
 10
-103.005
 20
692.073
 11
-103.219
 21
692.528
  0
LINE
  8
0
 10
-103.219
 20
692.528
 11
-103.374
 21
693.005
  0
LINE
  8
0
 10
-103.374
 20
693.005
 11
-103.468
 21
693.499
  0
LINE
  8
0
 10
-103.468
 20
693.499
 11
-103.5
 21
694
  0
LINE
  8
0
 10
-103.5
 20
694
 11
-103.5
 21
698
  0
LINE
  8
0
 10
-103.5
 20
698
 11
-103.468
 21
698.501
  0
LINE
  8
0
 10
-103.468
 20
698.501
 11
-103.374
 21
698.995
  0
LINE
  8
0
 10
-103.374
 20
698.995
 11
-103.219
 21
699.472
  0
LINE
  8
0
 10
-103.219
 20
699.472
 11
-103.005
 21
699.927
  0
LINE
  8
0
 10
-103.005
 20
699.927
 11
-102.736
 21
700.351
  0
LINE
  8
0
 10
-102.736
 20
700.351
 11
-102.416
 21
700.738
  0
LINE
  8
0
 10
-102.416
 20
700.738
 11
-102.05
 21
701.082
  0
LINE
  8
0
 10
-102.05
 20
701.082
 11
-101.643
 21
701.377
  0
LINE
  8
0
 10
-101.643
 20
701.377
 11
-101.203
 21
701.619
  0
LINE
  8
0
 10
-101.203
 20
701.619
 11
-100.736
 21
701.804
  0
LINE
  8
0
 10
-100.736
 20
701.804
 11
-100.25
 21
701.929
  0
LINE
  8
0
 10
-100.25
 20
701.929
 11
-99.7512
 21
701.992
  0
LINE
  8
0
 10
-99.7512
 20
701.992
 11
99.7512
 21
701.992
  0
LINE
  8
0
 10
99.7512
 20
701.992
 11
100.25
 21
701.929
  0
LINE
  8
0
 10
100.25
 20
701.929
 11
100.736
 21
701.804
  0
LINE
  8
0
 10
100.736
 20
701.804
 11
101.203
 21
701.619
  0
LINE
  8
0
 10
101.203
 20
701.619
 11
101.643
 21
701.377
  0
LINE
  8
0
 10
101.643
 20
701.377
 11
102.05
 21
701.082
  0
LINE
  8
0
 10
102.05
 20
701.082
 11
102.416
 21
700.738
  0
LINE
  8
0
 10
102.416
 20
700.738
 11
102.736
 21
700.351
  0
LINE
  8
0
 10
102.736
 20
700.351
 11
103.005
 21
699.927
  0
LINE
  8
0
 10
103.005
 20
699.927
 11
103.219
 21
699.472
  0
LINE
  8
0
 10
103.219
 20
699.472
 11
103.374
 21
698.995
  0
LINE
  8
0
 10
103.374
 20
698.995
 11
103.468
 21
698.501
  0
LINE
  8
0
 10
103.468
 20
698.501
 11
103.5
 21
698
  0
LINE
  8
0
 10
103.5
 20
698
 11
103.5
 21
694
  0
LINE
  8
0
 10
103.5
 20
694
 11
103.468
 21
693.499
  0
LINE
  8
0
 10
103.468
 20
693.499
 11
103.374
 21
693.005
  0
LINE
  8
0
 10
103.374
 20
693.005
 11
103.219
 21
692.528
  0
LINE
  8
0
 10
103.219
 20
692.528
 11
103.005
 21
692.073
  0
LINE
  8
0
 10
103.005
 20
692.073
 11
102.736
 21
691.649
  0
LINE
  8
0
 10
102.736
 20
691.649
 11
102.416
 21
691.262
  0
LINE
  8
0
 10
102.416
 20
691.262
 11
102.05
 21
690.918
  0
LINE
  8
0
 10
102.05
 20
690.918
 11
101.643
 21
690.623
  0
LINE
  8
0
 10
101.643
 20
690.623
 11
101.203
 21
690.381
  0
LINE
  8
0
 10
101.203
 20
690.381
 11
100.736
 21
690.196
  0
LINE
  8
0
 10
100.736
 20
690.196
 11
100.25
 21
690.071
  0
LINE
  8
0
 10
100.25
 20
690.071
 11
99.7512
 21
690.008
  0
LINE
  8
0
 10
99.7512
 20
690.008
 11
-99.7512
 21
690.008
  0
LINE
  8
0
 10
100.937
 20
664.589
 11
101.545
 21
664.745
  0
LINE
  8
0
 10
101.545
 20
664.745
 11
102.129
 21
664.976
  0
LINE
  8
0
 10
102.129
 20
664.976
 11
102.679
 21
665.278
  0
LINE
  8
0
 10
102.679
 20
665.278
 11
103.187
 21
665.647
  0
LINE
  8
0
 10
103.187
 20
665.647
 11
103.645
 21
666.077
  0
LINE
  8
0
 10
103.645
 20
666.077
 11
104.045
 21
666.561
  0
LINE
  8
0
 10
104.045
 20
666.561
 11
104.382
 21
667.091
  0
LINE
  8
0
 10
104.382
 20
667.091
 11
104.649
 21
667.659
  0
LINE
  8
0
 10
104.649
 20
667.659
 11
104.843
 21
668.257
  0
LINE
  8
0
 10
104.843
 20
668.257
 11
104.961
 21
668.873
  0
LINE
  8
0
 10
104.961
 20
668.873
 11
105
 21
669.5
  0
LINE
  8
0
 10
105
 20
669.5
 11
105
 21
674.5
  0
LINE
  8
0
 10
105
 20
674.5
 11
104.961
 21
675.127
  0
LINE
  8
0
 10
104.961
 20
675.127
 11
104.843
 21
675.743
  0
LINE
  8
0
 10
104.843
 20
675.743
 11
104.649
 21
676.341
  0
LINE
  8
0
 10
104.649
 20
676.341
 11
104.382
 21
676.909
  0
LINE
  8
0
 10
104.382
 20
676.909
 11
104.045
 21
677.439
  0
LINE
  8
0
 10
104.045
 20
677.439
 11
103.645
 21
677.923
  0
LINE
  8
0
 10
103.645
 20
677.923
 11
103.187
 21
678.353
  0
LINE
  8
0
 10
103.187
 20
678.353
 11
102.679
 21
678.722
  0
LINE
  8
0
 10
102.679
 20
678.722
 11
102.129
 21
679.024
  0
LINE
  8
0
 10
102.129
 20
679.024
 11
101.545
 21
679.255
  0
LINE
  8
0
 10
101.545
 20
679.255
 11
100.937
 21
679.411
  0
LINE
  8
0
 10
100.937
 20
679.411
 11
100.314
 21
679.49
  0
LINE
  8
0
 10
100.314
 20
679.49
 11
-100.314
 21
679.49
  0
LINE
  8
0
 10
-100.314
 20
679.49
 11
-100.937
 21
679.411
  0
LINE
  8
0
 10
-100.937
 20
679.411
 11
-101.545
 21
679.255
  0
LINE
  8
0
 10
-101.545
 20
679.255
 11
-102.129
 21
679.024
  0
LINE
  8
0
 10
-102.129
 20
679.024
 11
-102.679
 21
678.722
  0
LINE
  8
0
 10
-102.679
 20
678.722
 11
-103.187
 21
678.353
  0
LINE
  8
0
 10
-103.187
 20
678.353
 11
-103.645
 21
677.923
  0
LINE
  8
0
 10
-103.645
 20
677.923
 11
-104.045
 21
677.439
  0
LINE
  8
0
 10
-104.045
 20
677.439
 11
-104.382
 21
676.909
  0
LINE
  8
0
 10
-104.382
 20
676.909
 11
-104.649
 21
676.341
  0
LINE
  8
0
 10
-104.649
 20
676.341
 11
-104.843
 21
675.743
  0
LINE
  8
0
 10
-104.843
 20
675.743
 11
-104.961
 21
675.127
  0
LINE
  8
0
 10
-104.961
 20
675.127
 11
-105
 21
674.5
  0
LINE
  8
0
 10
-105
 20
674.5
 11
-105
 21
669.5
  0
LINE
  8
0
 10
-105
 20
669.5
 11
-104.961
 21
668.873
  0
LINE
  8
0
 10
-104.961
 20
668.873
 11
-104.843
 21
668.257
  0
LINE
  8
0
 10
-104.843
 20
668.257
 11
-104.649
 21
667.659
  0
LINE
  8
0
 10
-104.649
 20
667.659
 11
-104.382
 21
667.091
  0
LINE
  8
0
 10
-104.382
 20
667.091
 11
-104.045
 21
666.561
  0
LINE
  8
0
 10
-104.045
 20
666.561
 11
-103.645
 21
666.077
  0
LINE
  8
0
 10
-103.645
 20
666.077
 11
-103.187
 21
665.647
  0
LINE
  8
0
 10
-103.187
 20
665.647
 11
-102.679
 21
665.278
  0
LINE
  8
0
 10
-102.679
 20
665.278
 11
-102.129
 21
664.976
  0
LINE
  8
0
 10
-102.129
 20
664.976
 11
-101.545
 21
664.745
  0
LINE
  8
0
 10
-101.545
 20
664.745
 11
-100.937
 21
664.589
  0
LINE
  8
0
 10
-100.937
 20
664.589
 11
-100.314
 21
664.51
  0
LINE
  8
0
 10
-100.314
 20
664.51
 11
100.314
 21
664.51
  0
LINE
  8
0
 10
100.314
 20
664.51
 11
100.937
 21
664.589
  0
LINE
  8
0
 10
-99.7512
 20
666.008
 11
-100.25
 21
666.071
  0
LINE
  8
0
 10
-100.25
 20
666.071
 11
-100.736
 21
666.196
  0
LINE
  8
0
 10
-100.736
 20
666.196
 11
-101.203
 21
666.381
  0
LINE
  8
0
 10
-101.203
 20
666.381
 11
-101.643
 21
666.623
  0
LINE
  8
0
 10
-101.643
 20
666.623
 11
-102.05
 21
666.918
  0
LINE
  8
0
 10
-102.05
 20
666.918
 11
-102.416
 21
667.262
  0
LINE
  8
0
 10
-102.416
 20
667.262
 11
-102.736
 21
667.649
  0
LINE
  8
0
 10
-102.736
 20
667.649
 11
-103.005
 21
668.073
  0
LINE
  8
0
 10
-103.005
 20
668.073
 11
-103.219
 21
668.528
  0
LINE
  8
0
 10
-103.219
 20
668.528
 11
-103.374
 21
669.005
  0
LINE
  8
0
 10
-103.374
 20
669.005
 11
-103.468
 21
669.499
  0
LINE
  8
0
 10
-103.468
 20
669.499
 11
-103.5
 21
670
  0
LINE
  8
0
 10
-103.5
 20
670
 11
-103.5
 21
674
  0
LINE
  8
0
 10
-103.5
 20
674
 11
-103.468
 21
674.501
  0
LINE
  8
0
 10
-103.468
 20
674.501
 11
-103.374
 21
674.995
  0
LINE
  8
0
 10
-103.374
 20
674.995
 11
-103.219
 21
675.472
  0
LINE
  8
0
 10
-103.219
 20
675.472
 11
-103.005
 21
675.927
  0
LINE
  8
0
 10
-103.005
 20
675.927
 11
-102.736
 21
676.351
  0
LINE
  8
0
 10
-102.736
 20
676.351
 11
-102.416
 21
676.738
  0
LINE
  8
0
 10
-102.416
 20
676.738
 11
-102.05
 21
677.082
  0
LINE
  8
0
 10
-102.05
 20
677.082
 11
-101.643
 21
677.377
  0
LINE
  8
0
 10
-101.643
 20
677.377
 11
-101.203
 21
677.619
  0
LINE
  8
0
 10
-101.203
 20
677.619
 11
-100.736
 21
677.804
  0
LINE
  8
0
 10
-100.736
 20
677.804
 11
-100.25
 21
677.929
  0
LINE
  8
0
 10
-100.25
 20
677.929
 11
-99.7512
 21
677.992
  0
LINE
  8
0
 10
-99.7512
 20
677.992
 11
99.7512
 21
677.992
  0
LINE
  8
0
 10
99.7512
 20
677.992
 11
100.25
 21
677.929
  0
LINE
  8
0
 10
100.25
 20
677.929
 11
100.736
 21
677.804
  0
LINE
  8
0
 10
100.736
 20
677.804
 11
101.203
 21
677.619
  0
LINE
  8
0
 10
101.203
 20
677.619
 11
101.643
 21
677.377
  0
LINE
  8
0
 10
101.643
 20
677.377
 11
102.05
 21
677.082
  0
LINE
  8
0
 10
102.05
 20
677.082
 11
102.416
 21
676.738
  0
LINE
  8
0
 10
102.416
 20
676.738
 11
102.736
 21
676.351
  0
LINE
  8
0
 10
102.736
 20
676.351
 11
103.005
 21
675.927
  0
LINE
  8
0
 10
103.005
 20
675.927
 11
103.219
 21
675.472
  0
LINE
  8
0
 10
103.219
 20
675.472
 11
103.374
 21
674.995
  0
LINE
  8
0
 10
103.374
 20
674.995
 11
103.468
 21
674.501
  0
LINE
  8
0
 10
103.468
 20
674.501
 11
103.5
 21
674
  0
LINE
  8
0
 10
103.5
 20
674
 11
103.5
 21
670
  0
LINE
  8
0
 10
103.5
 20
670
 11
103.468
 21
669.499
  0
LINE
  8
0
 10
103.468
 20
669.499
 11
103.374
 21
669.005
  0
LINE
  8
0
 10
103.374
 20
669.005
 11
103.219
 21
668.528
  0
LINE
  8
0
 10
103.219
 20
668.528
 11
103.005
 21
668.073
  0
LINE
  8
0
 10
103.005
 20
668.073
 11
102.736
 21
667.649
  0
LINE
  8
0
 10
102.736
 20
667.649
 11
102.416
 21
667.262
  0
LINE
  8
0
 10
102.416
 20
667.262
 11
102.05
 21
666.918
  0
LINE
  8
0
 10
102.05
 20
666.918
 11
101.643
 21
666.623
  0
LINE
  8
0
 10
101.643
 20
666.623
 11
101.203
 21
666.381
  0
LINE
  8
0
 10
101.203
 20
666.381
 11
100.736
 21
666.196
  0
LINE
  8
0
 10
100.736
 20
666.196
 11
100.25
 21
666.071
  0
LINE
  8
0
 10
100.25
 20
666.071
 11
99.7512
 21
666.008
  0
LINE
  8
0
 10
99.7512
 20
666.008
 11
-99.7512
 21
666.008
  0
LINE
  8
0
 10
100.937
 20
640.589
 11
101.545
 21
640.745
  0
LINE
  8
0
 10
101.545
 20
640.745
 11
102.129
 21
640.976
  0
LINE
  8
0
 10
102.129
 20
640.976
 11
102.679
 21
641.278
  0
LINE
  8
0
 10
102.679
 20
641.278
 11
103.187
 21
641.647
  0
LINE
  8
0
 10
103.187
 20
641.647
 11
103.645
 21
642.077
  0
LINE
  8
0
 10
103.645
 20
642.077
 11
104.045
 21
642.561
  0
LINE
  8
0
 10
104.045
 20
642.561
 11
104.382
 21
643.091
  0
LINE
  8
0
 10
104.382
 20
643.091
 11
104.649
 21
643.659
  0
LINE
  8
0
 10
104.649
 20
643.659
 11
104.843
 21
644.257
  0
LINE
  8
0
 10
104.843
 20
644.257
 11
104.961
 21
644.873
  0
LINE
  8
0
 10
104.961
 20
644.873
 11
105
 21
645.5
  0
LINE
  8
0
 10
105
 20
645.5
 11
105
 21
650.5
  0
LINE
  8
0
 10
105
 20
650.5
 11
104.961
 21
651.127
  0
LINE
  8
0
 10
104.961
 20
651.127
 11
104.843
 21
651.743
  0
LINE
  8
0
 10
104.843
 20
651.743
 11
104.649
 21
652.341
  0
LINE
  8
0
 10
104.649
 20
652.341
 11
104.382
 21
652.909
  0
LINE
  8
0
 10
104.382
 20
652.909
 11
104.045
 21
653.439
  0
LINE
  8
0
 10
104.045
 20
653.439
 11
103.645
 21
653.923
  0
LINE
  8
0
 10
103.645
 20
653.923
 11
103.187
 21
654.353
  0
LINE
  8
0
 10
103.187
 20
654.353
 11
102.679
 21
654.722
  0
LINE
  8
0
 10
102.679
 20
654.722
 11
102.129
 21
655.024
  0
LINE
  8
0
 10
102.129
 20
655.024
 11
101.545
 21
655.255
  0
LINE
  8
0
 10
101.545
 20
655.255
 11
100.937
 21
655.411
  0
LINE
  8
0
 10
100.937
 20
655.411
 11
100.314
 21
655.49
  0
LINE
  8
0
 10
100.314
 20
655.49
 11
-100.314
 21
655.49
  0
LINE
  8
0
 10
-100.314
 20
655.49
 11
-100.937
 21
655.411
  0
LINE
  8
0
 10
-100.937
 20
655.411
 11
-101.545
 21
655.255
  0
LINE
  8
0
 10
-101.545
 20
655.255
 11
-102.129
 21
655.024
  0
LINE
  8
0
 10
-102.129
 20
655.024
 11
-102.679
 21
654.722
  0
LINE
  8
0
 10
-102.679
 20
654.722
 11
-103.187
 21
654.353
  0
LINE
  8
0
 10
-103.187
 20
654.353
 11
-103.645
 21
653.923
  0
LINE
  8
0
 10
-103.645
 20
653.923
 11
-104.045
 21
653.439
  0
LINE
  8
0
 10
-104.045
 20
653.439
 11
-104.382
 21
652.909
  0
LINE
  8
0
 10
-104.382
 20
652.909
 11
-104.649
 21
652.341
  0
LINE
  8
0
 10
-104.649
 20
652.341
 11
-104.843
 21
651.743
  0
LINE
  8
0
 10
-104.843
 20
651.743
 11
-104.961
 21
651.127
  0
LINE
  8
0
 10
-104.961
 20
651.127
 11
-105
 21
650.5
  0
LINE
  8
0
 10
-105
 20
650.5
 11
-105
 21
645.5
  0
LINE
  8
0
 10
-105
 20
645.5
 11
-104.961
 21
644.873
  0
LINE
  8
0
 10
-104.961
 20
644.873
 11
-104.843
 21
644.257
  0
LINE
  8
0
 10
-104.843
 20
644.257
 11
-104.649
 21
643.659
  0
LINE
  8
0
 10
-104.649
 20
643.659
 11
-104.382
 21
643.091
  0
LINE
  8
0
 10
-104.382
 20
643.091
 11
-104.045
 21
642.561
  0
LINE
  8
0
 10
-104.045
 20
642.561
 11
-103.645
 21
642.077
  0
LINE
  8
0
 10
-103.645
 20
642.077
 11
-103.187
 21
641.647
  0
LINE
  8
0
 10
-103.187
 20
641.647
 11
-102.679
 21
641.278
  0
LINE
  8
0
 10
-102.679
 20
641.278
 11
-102.129
 21
640.976
  0
LINE
  8
0
 10
-102.129
 20
640.976
 11
-101.545
 21
640.745
  0
LINE
  8
0
 10
-101.545
 20
640.745
 11
-100.937
 21
640.589
  0
LINE
  8
0
 10
-100.937
 20
640.589
 11
-100.314
 21
640.51
  0
LINE
  8
0
 10
-100.314
 20
640.51
 11
100.314
 21
640.51
  0
LINE
  8
0
 10
100.314
 20
640.51
 11
100.937
 21
640.589
  0
LINE
  8
0
 10
-99.7512
 20
642.008
 11
-100.25
 21
642.071
  0
LINE
  8
0
 10
-100.25
 20
642.071
 11
-100.736
 21
642.196
  0
LINE
  8
0
 10
-100.736
 20
642.196
 11
-101.203
 21
642.381
  0
LINE
  8
0
 10
-101.203
 20
642.381
 11
-101.643
 21
642.623
  0
LINE
  8
0
 10
-101.643
 20
642.623
 11
-102.05
 21
642.918
  0
LINE
  8
0
 10
-102.05
 20
642.918
 11
-102.416
 21
643.262
  0
LINE
  8
0
 10
-102.416
 20
643.262
 11
-102.736
 21
643.649
  0
LINE
  8
0
 10
-102.736
 20
643.649
 11
-103.005
 21
644.073
  0
LINE
  8
0
 10
-103.005
 20
644.073
 11
-103.219
 21
644.528
  0
LINE
  8
0
 10
-103.219
 20
644.528
 11
-103.374
 21
645.005
  0
LINE
  8
0
 10
-103.374
 20
645.005
 11
-103.468
 21
645.499
  0
LINE
  8
0
 10
-103.468
 20
645.499
 11
-103.5
 21
646
  0
LINE
  8
0
 10
-103.5
 20
646
 11
-103.5
 21
650
  0
LINE
  8
0
 10
-103.5
 20
650
 11
-103.468
 21
650.501
  0
LINE
  8
0
 10
-103.468
 20
650.501
 11
-103.374
 21
650.995
  0
LINE
  8
0
 10
-103.374
 20
650.995
 11
-103.219
 21
651.472
  0
LINE
  8
0
 10
-103.219
 20
651.472
 11
-103.005
 21
651.927
  0
LINE
  8
0
 10
-103.005
 20
651.927
 11
-102.736
 21
652.351
  0
LINE
  8
0
 10
-102.736
 20
652.351
 11
-102.416
 21
652.738
  0
LINE
  8
0
 10
-102.416
 20
652.738
 11
-102.05
 21
653.082
  0
LINE
  8
0
 10
-102.05
 20
653.082
 11
-101.643
 21
653.377
  0
LINE
  8
0
 10
-101.643
 20
653.377
 11
-101.203
 21
653.619
  0
LINE
  8
0
 10
-101.203
 20
653.619
 11
-100.736
 21
653.804
  0
LINE
  8
0
 10
-100.736
 20
653.804
 11
-100.25
 21
653.929
  0
LINE
  8
0
 10
-100.25
 20
653.929
 11
-99.7512
 21
653.992
  0
LINE
  8
0
 10
-99.7512
 20
653.992
 11
99.7512
 21
653.992
  0
LINE
  8
0
 10
99.7512
 20
653.992
 11
100.25
 21
653.929
  0
LINE
  8
0
 10
100.25
 20
653.929
 11
100.736
 21
653.804
  0
LINE
  8
0
 10
100.736
 20
653.804
 11
101.203
 21
653.619
  0
LINE
  8
0
 10
101.203
 20
653.619
 11
101.643
 21
653.377
  0
LINE
  8
0
 10
101.643
 20
653.377
 11
102.05
 21
653.082
  0
LINE
  8
0
 10
102.05
 20
653.082
 11
102.416
 21
652.738
  0
LINE
  8
0
 10
102.416
 20
652.738
 11
102.736
 21
652.351
  0
LINE
  8
0
 10
102.736
 20
652.351
 11
103.005
 21
651.927
  0
LINE
  8
0
 10
103.005
 20
651.927
 11
103.219
 21
651.472
  0
LINE
  8
0
 10
103.219
 20
651.472
 11
103.374
 21
650.995
  0
LINE
  8
0
 10
103.374
 20
650.995
 11
103.468
 21
650.501
  0
LINE
  8
0
 10
103.468
 20
650.501
 11
103.5
 21
650
  0
LINE
  8
0
 10
103.5
 20
650
 11
103.5
 21
646
  0
LINE
  8
0
 10
103.5
 20
646
 11
103.468
 21
645.499
  0
LINE
  8
0
 10
103.468
 20
645.499
 11
103.374
 21
645.005
  0
LINE
  8
0
 10
103.374
 20
645.005
 11
103.219
 21
644.528
  0
LINE
  8
0
 10
103.219
 20
644.528
 11
103.005
 21
644.073
  0
LINE
  8
0
 10
103.005
 20
644.073
 11
102.736
 21
643.649
  0
LINE
  8
0
 10
102.736
 20
643.649
 11
102.416
 21
643.262
  0
LINE
  8
0
 10
102.416
 20
643.262
 11
102.05
 21
642.918
  0
LINE
  8
0
 10
102.05
 20
642.918
 11
101.643
 21
642.623
  0
LINE
  8
0
 10
101.643
 20
642.623
 11
101.203
 21
642.381
  0
LINE
  8
0
 10
101.203
 20
642.381
 11
100.736
 21
642.196
  0
LINE
  8
0
 10
100.736
 20
642.196
 11
100.25
 21
642.071
  0
LINE
  8
0
 10
100.25
 20
642.071
 11
99.7512
 21
642.008
  0
LINE
  8
0
 10
99.7512
 20
642.008
 11
-99.7512
 21
642.008
  0
LINE
  8
0
 10
100.937
 20
616.589
 11
101.545
 21
616.745
  0
LINE
  8
0
 10
101.545
 20
616.745
 11
102.129
 21
616.976
  0
LINE
  8
0
 10
102.129
 20
616.976
 11
102.679
 21
617.278
  0
LINE
  8
0
 10
102.679
 20
617.278
 11
103.187
 21
617.647
  0
LINE
  8
0
 10
103.187
 20
617.647
 11
103.645
 21
618.077
  0
LINE
  8
0
 10
103.645
 20
618.077
 11
104.045
 21
618.561
  0
LINE
  8
0
 10
104.045
 20
618.561
 11
104.382
 21
619.091
  0
LINE
  8
0
 10
104.382
 20
619.091
 11
104.649
 21
619.659
  0
LINE
  8
0
 10
104.649
 20
619.659
 11
104.843
 21
620.257
  0
LINE
  8
0
 10
104.843
 20
620.257
 11
104.961
 21
620.873
  0
LINE
  8
0
 10
104.961
 20
620.873
 11
105
 21
621.5
  0
LINE
  8
0
 10
105
 20
621.5
 11
105
 21
626.5
  0
LINE
  8
0
 10
105
 20
626.5
 11
104.961
 21
627.127
  0
LINE
  8
0
 10
104.961
 20
627.127
 11
104.843
 21
627.743
  0
LINE
  8
0
 10
104.843
 20
627.743
 11
104.649
 21
628.341
  0
LINE
  8
0
 10
104.649
 20
628.341
 11
104.382
 21
628.909
  0
LINE
  8
0
 10
104.382
 20
628.909
 11
104.045
 21
629.439
  0
LINE
  8
0
 10
104.045
 20
629.439
 11
103.645
 21
629.923
  0
LINE
  8
0
 10
103.645
 20
629.923
 11
103.187
 21
630.353
  0
LINE
  8
0
 10
103.187
 20
630.353
 11
102.679
 21
630.722
  0
LINE
  8
0
 10
102.679
 20
630.722
 11
102.129
 21
631.024
  0
LINE
  8
0
 10
102.129
 20
631.024
 11
101.545
 21
631.255
  0
LINE
  8
0
 10
101.545
 20
631.255
 11
100.937
 21
631.411
  0
LINE
  8
0
 10
100.937
 20
631.411
 11
100.314
 21
631.49
  0
LINE
  8
0
 10
100.314
 20
631.49
 11
-100.314
 21
631.49
  0
LINE
  8
0
 10
-100.314
 20
631.49
 11
-100.937
 21
631.411
  0
LINE
  8
0
 10
-100.937
 20
631.411
 11
-101.545
 21
631.255
  0
LINE
  8
0
 10
-101.545
 20
631.255
 11
-102.129
 21
631.024
  0
LINE
  8
0
 10
-102.129
 20
631.024
 11
-102.679
 21
630.722
  0
LINE
  8
0
 10
-102.679
 20
630.722
 11
-103.187
 21
630.353
  0
LINE
  8
0
 10
-103.187
 20
630.353
 11
-103.645
 21
629.923
  0
LINE
  8
0
 10
-103.645
 20
629.923
 11
-104.045
 21
629.439
  0
LINE
  8
0
 10
-104.045
 20
629.439
 11
-104.382
 21
628.909
  0
LINE
  8
0
 10
-104.382
 20
628.909
 11
-104.649
 21
628.341
  0
LINE
  8
0
 10
-104.649
 20
628.341
 11
-104.843
 21
627.743
  0
LINE
  8
0
 10
-104.843
 20
627.743
 11
-104.961
 21
627.127
  0
LINE
  8
0
 10
-104.961
 20
627.127
 11
-105
 21
626.5
  0
LINE
  8
0
 10
-105
 20
626.5
 11
-105
 21
621.5
  0
LINE
  8
0
 10
-105
 20
621.5
 11
-104.961
 21
620.873
  0
LINE
  8
0
 10
-104.961
 20
620.873
 11
-104.843
 21
620.257
  0
LINE
  8
0
 10
-104.843
 20
620.257
 11
-104.649
 21
619.659
  0
LINE
  8
0
 10
-104.649
 20
619.659
 11
-104.382
 21
619.091
  0
LINE
  8
0
 10
-104.382
 20
619.091
 11
-104.045
 21
618.561
  0
LINE
  8
0
 10
-104.045
 20
618.561
 11
-103.645
 21
618.077
  0
LINE
  8
0
 10
-103.645
 20
618.077
 11
-103.187
 21
617.647
  0
LINE
  8
0
 10
-103.187
 20
617.647
 11
-102.679
 21
617.278
  0
LINE
  8
0
 10
-102.679
 20
617.278
 11
-102.129
 21
616.976
  0
LINE
  8
0
 10
-102.129
 20
616.976
 11
-101.545
 21
616.745
  0
LINE
  8
0
 10
-101.545
 20
616.745
 11
-100.937
 21
616.589
  0
LINE
  8
0
 10
-100.937
 20
616.589
 11
-100.314
 21
616.51
  0
LINE
  8
0
 10
-100.314
 20
616.51
 11
100.314
 21
616.51
  0
LINE
  8
0
 10
100.314
 20
616.51
 11
100.937
 21
616.589
  0
LINE
  8
0
 10
-99.7512
 20
618.008
 11
-100.25
 21
618.071
  0
LINE
  8
0
 10
-100.25
 20
618.071
 11
-100.736
 21
618.196
  0
LINE
  8
0
 10
-100.736
 20
618.196
 11
-101.203
 21
618.381
  0
LINE
  8
0
 10
-101.203
 20
618.381
 11
-101.643
 21
618.623
  0
LINE
  8
0
 10
-101.643
 20
618.623
 11
-102.05
 21
618.918
  0
LINE
  8
0
 10
-102.05
 20
618.918
 11
-102.416
 21
619.262
  0
LINE
  8
0
 10
-102.416
 20
619.262
 11
-102.736
 21
619.649
  0
LINE
  8
0
 10
-102.736
 20
619.649
 11
-103.005
 21
620.073
  0
LINE
  8
0
 10
-103.005
 20
620.073
 11
-103.219
 21
620.528
  0
LINE
  8
0
 10
-103.219
 20
620.528
 11
-103.374
 21
621.005
  0
LINE
  8
0
 10
-103.374
 20
621.005
 11
-103.468
 21
621.499
  0
LINE
  8
0
 10
-103.468
 20
621.499
 11
-103.5
 21
622
  0
LINE
  8
0
 10
-103.5
 20
622
 11
-103.5
 21
626
  0
LINE
  8
0
 10
-103.5
 20
626
 11
-103.468
 21
626.501
  0
LINE
  8
0
 10
-103.468
 20
626.501
 11
-103.374
 21
626.995
  0
LINE
  8
0
 10
-103.374
 20
626.995
 11
-103.219
 21
627.472
  0
LINE
  8
0
 10
-103.219
 20
627.472
 11
-103.005
 21
627.927
  0
LINE
  8
0
 10
-103.005
 20
627.927
 11
-102.736
 21
628.351
  0
LINE
  8
0
 10
-102.736
 20
628.351
 11
-102.416
 21
628.738
  0
LINE
  8
0
 10
-102.416
 20
628.738
 11
-102.05
 21
629.082
  0
LINE
  8
0
 10
-102.05
 20
629.082
 11
-101.643
 21
629.377
  0
LINE
  8
0
 10
-101.643
 20
629.377
 11
-101.203
 21
629.619
  0
LINE
  8
0
 10
-101.203
 20
629.619
 11
-100.736
 21
629.804
  0
LINE
  8
0
 10
-100.736
 20
629.804
 11
-100.25
 21
629.929
  0
LINE
  8
0
 10
-100.25
 20
629.929
 11
-99.7512
 21
629.992
  0
LINE
  8
0
 10
-99.7512
 20
629.992
 11
99.7512
 21
629.992
  0
LINE
  8
0
 10
99.7512
 20
629.992
 11
100.25
 21
629.929
  0
LINE
  8
0
 10
100.25
 20
629.929
 11
100.736
 21
629.804
  0
LINE
  8
0
 10
100.736
 20
629.804
 11
101.203
 21
629.619
  0
LINE
  8
0
 10
101.203
 20
629.619
 11
101.643
 21
629.377
  0
LINE
  8
0
 10
101.643
 20
629.377
 11
102.05
 21
629.082
  0
LINE
  8
0
 10
102.05
 20
629.082
 11
102.416
 21
628.738
  0
LINE
  8
0
 10
102.416
 20
628.738
 11
102.736
 21
628.351
  0
LINE
  8
0
 10
102.736
 20
628.351
 11
103.005
 21
627.927
  0
LINE
  8
0
 10
103.005
 20
627.927
 11
103.219
 21
627.472
  0
LINE
  8
0
 10
103.219
 20
627.472
 11
103.374
 21
626.995
  0
LINE
  8
0
 10
103.374
 20
626.995
 11
103.468
 21
626.501
  0
LINE
  8
0
 10
103.468
 20
626.501
 11
103.5
 21
626
  0
LINE
  8
0
 10
103.5
 20
626
 11
103.5
 21
622
  0
LINE
  8
0
 10
103.5
 20
622
 11
103.468
 21
621.499
  0
LINE
  8
0
 10
103.468
 20
621.499
 11
103.374
 21
621.005
  0
LINE
  8
0
 10
103.374
 20
621.005
 11
103.219
 21
620.528
  0
LINE
  8
0
 10
103.219
 20
620.528
 11
103.005
 21
620.073
  0
LINE
  8
0
 10
103.005
 20
620.073
 11
102.736
 21
619.649
  0
LINE
  8
0
 10
102.736
 20
619.649
 11
102.416
 21
619.262
  0
LINE
  8
0
 10
102.416
 20
619.262
 11
102.05
 21
618.918
  0
LINE
  8
0
 10
102.05
 20
618.918
 11
101.643
 21
618.623
  0
LINE
  8
0
 10
101.643
 20
618.623
 11
101.203
 21
618.381
  0
LINE
  8
0
 10
101.203
 20
618.381
 11
100.736
 21
618.196
  0
LINE
  8
0
 10
100.736
 20
618.196
 11
100.25
 21
618.071
  0
LINE
  8
0
 10
100.25
 20
618.071
 11
99.7512
 21
618.008
  0
LINE
  8
0
 10
99.7512
 20
618.008
 11
-99.7512
 21
618.008
  0
LINE
  8
0
 10
100.937
 20
592.589
 11
101.545
 21
592.745
  0
LINE
  8
0
 10
101.545
 20
592.745
 11
102.129
 21
592.976
  0
LINE
  8
0
 10
102.129
 20
592.976
 11
102.679
 21
593.278
  0
LINE
  8
0
 10
102.679
 20
593.278
 11
103.187
 21
593.647
  0
LINE
  8
0
 10
103.187
 20
593.647
 11
103.645
 21
594.077
  0
LINE
  8
0
 10
103.645
 20
594.077
 11
104.045
 21
594.561
  0
LINE
  8
0
 10
104.045
 20
594.561
 11
104.382
 21
595.091
  0
LINE
  8
0
 10
104.382
 20
595.091
 11
104.649
 21
595.659
  0
LINE
  8
0
 10
104.649
 20
595.659
 11
104.843
 21
596.257
  0
LINE
  8
0
 10
104.843
 20
596.257
 11
104.961
 21
596.873
  0
LINE
  8
0
 10
104.961
 20
596.873
 11
105
 21
597.5
  0
LINE
  8
0
 10
105
 20
597.5
 11
105
 21
602.5
  0
LINE
  8
0
 10
105
 20
602.5
 11
104.961
 21
603.127
  0
LINE
  8
0
 10
104.961
 20
603.127
 11
104.843
 21
603.743
  0
LINE
  8
0
 10
104.843
 20
603.743
 11
104.649
 21
604.341
  0
LINE
  8
0
 10
104.649
 20
604.341
 11
104.382
 21
604.909
  0
LINE
  8
0
 10
104.382
 20
604.909
 11
104.045
 21
605.439
  0
LINE
  8
0
 10
104.045
 20
605.439
 11
103.645
 21
605.923
  0
LINE
  8
0
 10
103.645
 20
605.923
 11
103.187
 21
606.353
  0
LINE
  8
0
 10
103.187
 20
606.353
 11
102.679
 21
606.722
  0
LINE
  8
0
 10
102.679
 20
606.722
 11
102.129
 21
607.024
  0
LINE
  8
0
 10
102.129
 20
607.024
 11
101.545
 21
607.255
  0
LINE
  8
0
 10
101.545
 20
607.255
 11
100.937
 21
607.411
  0
LINE
  8
0
 10
100.937
 20
607.411
 11
100.314
 21
607.49
  0
LINE
  8
0
 10
100.314
 20
607.49
 11
-100.314
 21
607.49
  0
LINE
  8
0
 10
-100.314
 20
607.49
 11
-100.937
 21
607.411
  0
LINE
  8
0
 10
-100.937
 20
607.411
 11
-101.545
 21
607.255
  0
LINE
  8
0
 10
-101.545
 20
607.255
 11
-102.129
 21
607.024
  0
LINE
  8
0
 10
-102.129
 20
607.024
 11
-102.679
 21
606.722
  0
LINE
  8
0
 10
-102.679
 20
606.722
 11
-103.187
 21
606.353
  0
LINE
  8
0
 10
-103.187
 20
606.353
 11
-103.645
 21
605.923
  0
LINE
  8
0
 10
-103.645
 20
605.923
 11
-104.045
 21
605.439
  0
LINE
  8
0
 10
-104.045
 20
605.439
 11
-104.382
 21
604.909
  0
LINE
  8
0
 10
-104.382
 20
604.909
 11
-104.649
 21
604.341
  0
LINE
  8
0
 10
-104.649
 20
604.341
 11
-104.843
 21
603.743
  0
LINE
  8
0
 10
-104.843
 20
603.743
 11
-104.961
 21
603.127
  0
LINE
  8
0
 10
-104.961
 20
603.127
 11
-105
 21
602.5
  0
LINE
  8
0
 10
-105
 20
602.5
 11
-105
 21
597.5
  0
LINE
  8
0
 10
-105
 20
597.5
 11
-104.961
 21
596.873
  0
LINE
  8
0
 10
-104.961
 20
596.873
 11
-104.843
 21
596.257
  0
LINE
  8
0
 10
-104.843
 20
596.257
 11
-104.649
 21
595.659
  0
LINE
  8
0
 10
-104.649
 20
595.659
 11
-104.382
 21
595.091
  0
LINE
  8
0
 10
-104.382
 20
595.091
 11
-104.045
 21
594.561
  0
LINE
  8
0
 10
-104.045
 20
594.561
 11
-103.645
 21
594.077
  0
LINE
  8
0
 10
-103.645
 20
594.077
 11
-103.187
 21
593.647
  0
LINE
  8
0
 10
-103.187
 20
593.647
 11
-102.679
 21
593.278
  0
LINE
  8
0
 10
-102.679
 20
593.278
 11
-102.129
 21
592.976
  0
LINE
  8
0
 10
-102.129
 20
592.976
 11
-101.545
 21
592.745
  0
LINE
  8
0
 10
-101.545
 20
592.745
 11
-100.937
 21
592.589
  0
LINE
  8
0
 10
-100.937
 20
592.589
 11
-100.314
 21
592.51
  0
LINE
  8
0
 10
-100.314
 20
592.51
 11
100.314
 21
592.51
  0
LINE
  8
0
 10
100.314
 20
592.51
 11
100.937
 21
592.589
  0
LINE
  8
0
 10
-99.7512
 20
594.008
 11
-100.25
 21
594.071
  0
LINE
  8
0
 10
-100.25
 20
594.071
 11
-100.736
 21
594.196
  0
LINE
  8
0
 10
-100.736
 20
594.196
 11
-101.203
 21
594.381
  0
LINE
  8
0
 10
-101.203
 20
594.381
 11
-101.643
 21
594.623
  0
LINE
  8
0
 10
-101.643
 20
594.623
 11
-102.05
 21
594.918
  0
LINE
  8
0
 10
-102.05
 20
594.918
 11
-102.416
 21
595.262
  0
LINE
  8
0
 10
-102.416
 20
595.262
 11
-102.736
 21
595.649
  0
LINE
  8
0
 10
-102.736
 20
595.649
 11
-103.005
 21
596.073
  0
LINE
  8
0
 10
-103.005
 20
596.073
 11
-103.219
 21
596.528
  0
LINE
  8
0
 10
-103.219
 20
596.528
 11
-103.374
 21
597.005
  0
LINE
  8
0
 10
-103.374
 20
597.005
 11
-103.468
 21
597.499
  0
LINE
  8
0
 10
-103.468
 20
597.499
 11
-103.5
 21
598
  0
LINE
  8
0
 10
-103.5
 20
598
 11
-103.5
 21
602
  0
LINE
  8
0
 10
-103.5
 20
602
 11
-103.468
 21
602.501
  0
LINE
  8
0
 10
-103.468
 20
602.501
 11
-103.374
 21
602.995
  0
LINE
  8
0
 10
-103.374
 20
602.995
 11
-103.219
 21
603.472
  0
LINE
  8
0
 10
-103.219
 20
603.472
 11
-103.005
 21
603.927
  0
LINE
  8
0
 10
-103.005
 20
603.927
 11
-102.736
 21
604.351
  0
LINE
  8
0
 10
-102.736
 20
604.351
 11
-102.416
 21
604.738
  0
LINE
  8
0
 10
-102.416
 20
604.738
 11
-102.05
 21
605.082
  0
LINE
  8
0
 10
-102.05
 20
605.082
 11
-101.643
 21
605.377
  0
LINE
  8
0
 10
-101.643
 20
605.377
 11
-101.203
 21
605.619
  0
LINE
  8
0
 10
-101.203
 20
605.619
 11
-100.736
 21
605.804
  0
LINE
  8
0
 10
-100.736
 20
605.804
 11
-100.25
 21
605.929
  0
LINE
  8
0
 10
-100.25
 20
605.929
 11
-99.7512
 21
605.992
  0
LINE
  8
0
 10
-99.7512
 20
605.992
 11
99.7512
 21
605.992
  0
LINE
  8
0
 10
99.7512
 20
605.992
 11
100.25
 21
605.929
  0
LINE
  8
0
 10
100.25
 20
605.929
 11
100.736
 21
605.804
  0
LINE
  8
0
 10
100.736
 20
605.804
 11
101.203
 21
605.619
  0
LINE
  8
0
 10
101.203
 20
605.619
 11
101.643
 21
605.377
  0
LINE
  8
0
 10
101.643
 20
605.377
 11
102.05
 21
605.082
  0
LINE
  8
0
 10
102.05
 20
605.082
 11
102.416
 21
604.738
  0
LINE
  8
0
 10
102.416
 20
604.738
 11
102.736
 21
604.351
  0
LINE
  8
0
 10
102.736
 20
604.351
 11
103.005
 21
603.927
  0
LINE
  8
0
 10
103.005
 20
603.927
 11
103.219
 21
603.472
  0
LINE
  8
0
 10
103.219
 20
603.472
 11
103.374
 21
602.995
  0
LINE
  8
0
 10
103.374
 20
602.995
 11
103.468
 21
602.501
  0
LINE
  8
0
 10
103.468
 20
602.501
 11
103.5
 21
602
  0
LINE
  8
0
 10
103.5
 20
602
 11
103.5
 21
598
  0
LINE
  8
0
 10
103.5
 20
598
 11
103.468
 21
597.499
  0
LINE
  8
0
 10
103.468
 20
597.499
 11
103.374
 21
597.005
  0
LINE
  8
0
 10
103.374
 20
597.005
 11
103.219
 21
596.528
  0
LINE
  8
0
 10
103.219
 20
596.528
 11
103.005
 21
596.073
  0
LINE
  8
0
 10
103.005
 20
596.073
 11
102.736
 21
595.649
  0
LINE
  8
0
 10
102.736
 20
595.649
 11
102.416
 21
595.262
  0
LINE
  8
0
 10
102.416
 20
595.262
 11
102.05
 21
594.918
  0
LINE
  8
0
 10
102.05
 20
594.918
 11
101.643
 21
594.623
  0
LINE
  8
0
 10
101.643
 20
594.623
 11
101.203
 21
594.381
  0
LINE
  8
0
 10
101.203
 20
594.381
 11
100.736
 21
594.196
  0
LINE
  8
0
 10
100.736
 20
594.196
 11
100.25
 21
594.071
  0
LINE
  8
0
 10
100.25
 20
594.071
 11
99.7512
 21
594.008
  0
LINE
  8
0
 10
99.7512
 20
594.008
 11
-99.7512
 21
594.008
  0
LINE
  8
0
 10
100.937
 20
568.589
 11
101.545
 21
568.745
  0
LINE
  8
0
 10
101.545
 20
568.745
 11
102.129
 21
568.976
  0
LINE
  8
0
 10
102.129
 20
568.976
 11
102.679
 21
569.278
  0
LINE
  8
0
 10
102.679
 20
569.278
 11
103.187
 21
569.647
  0
LINE
  8
0
 10
103.187
 20
569.647
 11
103.645
 21
570.077
  0
LINE
  8
0
 10
103.645
 20
570.077
 11
104.045
 21
570.561
  0
LINE
  8
0
 10
104.045
 20
570.561
 11
104.382
 21
571.091
  0
LINE
  8
0
 10
104.382
 20
571.091
 11
104.649
 21
571.659
  0
LINE
  8
0
 10
104.649
 20
571.659
 11
104.843
 21
572.257
  0
LINE
  8
0
 10
104.843
 20
572.257
 11
104.961
 21
572.873
  0
LINE
  8
0
 10
104.961
 20
572.873
 11
105
 21
573.5
  0
LINE
  8
0
 10
105
 20
573.5
 11
105
 21
578.5
  0
LINE
  8
0
 10
105
 20
578.5
 11
104.961
 21
579.127
  0
LINE
  8
0
 10
104.961
 20
579.127
 11
104.843
 21
579.743
  0
LINE
  8
0
 10
104.843
 20
579.743
 11
104.649
 21
580.341
  0
LINE
  8
0
 10
104.649
 20
580.341
 11
104.382
 21
580.909
  0
LINE
  8
0
 10
104.382
 20
580.909
 11
104.045
 21
581.439
  0
LINE
  8
0
 10
104.045
 20
581.439
 11
103.645
 21
581.923
  0
LINE
  8
0
 10
103.645
 20
581.923
 11
103.187
 21
582.353
  0
LINE
  8
0
 10
103.187
 20
582.353
 11
102.679
 21
582.722
  0
LINE
  8
0
 10
102.679
 20
582.722
 11
102.129
 21
583.024
  0
LINE
  8
0
 10
102.129
 20
583.024
 11
101.545
 21
583.255
  0
LINE
  8
0
 10
101.545
 20
583.255
 11
100.937
 21
583.411
  0
LINE
  8
0
 10
100.937
 20
583.411
 11
100.314
 21
583.49
  0
LINE
  8
0
 10
100.314
 20
583.49
 11
-100.314
 21
583.49
  0
LINE
  8
0
 10
-100.314
 20
583.49
 11
-100.937
 21
583.411
  0
LINE
  8
0
 10
-100.937
 20
583.411
 11
-101.545
 21
583.255
  0
LINE
  8
0
 10
-101.545
 20
583.255
 11
-102.129
 21
583.024
  0
LINE
  8
0
 10
-102.129
 20
583.024
 11
-102.679
 21
582.722
  0
LINE
  8
0
 10
-102.679
 20
582.722
 11
-103.187
 21
582.353
  0
LINE
  8
0
 10
-103.187
 20
582.353
 11
-103.645
 21
581.923
  0
LINE
  8
0
 10
-103.645
 20
581.923
 11
-104.045
 21
581.439
  0
LINE
  8
0
 10
-104.045
 20
581.439
 11
-104.382
 21
580.909
  0
LINE
  8
0
 10
-104.382
 20
580.909
 11
-104.649
 21
580.341
  0
LINE
  8
0
 10
-104.649
 20
580.341
 11
-104.843
 21
579.743
  0
LINE
  8
0
 10
-104.843
 20
579.743
 11
-104.961
 21
579.127
  0
LINE
  8
0
 10
-104.961
 20
579.127
 11
-105
 21
578.5
  0
LINE
  8
0
 10
-105
 20
578.5
 11
-105
 21
573.5
  0
LINE
  8
0
 10
-105
 20
573.5
 11
-104.961
 21
572.873
  0
LINE
  8
0
 10
-104.961
 20
572.873
 11
-104.843
 21
572.257
  0
LINE
  8
0
 10
-104.843
 20
572.257
 11
-104.649
 21
571.659
  0
LINE
  8
0
 10
-104.649
 20
571.659
 11
-104.382
 21
571.091
  0
LINE
  8
0
 10
-104.382
 20
571.091
 11
-104.045
 21
570.561
  0
LINE
  8
0
 10
-104.045
 20
570.561
 11
-103.645
 21
570.077
  0
LINE
  8
0
 10
-103.645
 20
570.077
 11
-103.187
 21
569.647
  0
LINE
  8
0
 10
-103.187
 20
569.647
 11
-102.679
 21
569.278
  0
LINE
  8
0
 10
-102.679
 20
569.278
 11
-102.129
 21
568.976
  0
LINE
  8
0
 10
-102.129
 20
568.976
 11
-101.545
 21
568.745
  0
LINE
  8
0
 10
-101.545
 20
568.745
 11
-100.937
 21
568.589
  0
LINE
  8
0
 10
-100.937
 20
568.589
 11
-100.314
 21
568.51
  0
LINE
  8
0
 10
-100.314
 20
568.51
 11
100.314
 21
568.51
  0
LINE
  8
0
 10
100.314
 20
568.51
 11
100.937
 21
568.589
  0
LINE
  8
0
 10
-99.7512
 20
570.008
 11
-100.25
 21
570.071
  0
LINE
  8
0
 10
-100.25
 20
570.071
 11
-100.736
 21
570.196
  0
LINE
  8
0
 10
-100.736
 20
570.196
 11
-101.203
 21
570.381
  0
LINE
  8
0
 10
-101.203
 20
570.381
 11
-101.643
 21
570.623
  0
LINE
  8
0
 10
-101.643
 20
570.623
 11
-102.05
 21
570.918
  0
LINE
  8
0
 10
-102.05
 20
570.918
 11
-102.416
 21
571.262
  0
LINE
  8
0
 10
-102.416
 20
571.262
 11
-102.736
 21
571.649
  0
LINE
  8
0
 10
-102.736
 20
571.649
 11
-103.005
 21
572.073
  0
LINE
  8
0
 10
-103.005
 20
572.073
 11
-103.219
 21
572.528
  0
LINE
  8
0
 10
-103.219
 20
572.528
 11
-103.374
 21
573.005
  0
LINE
  8
0
 10
-103.374
 20
573.005
 11
-103.468
 21
573.499
  0
LINE
  8
0
 10
-103.468
 20
573.499
 11
-103.5
 21
574
  0
LINE
  8
0
 10
-103.5
 20
574
 11
-103.5
 21
578
  0
LINE
  8
0
 10
-103.5
 20
578
 11
-103.468
 21
578.501
  0
LINE
  8
0
 10
-103.468
 20
578.501
 11
-103.374
 21
578.995
  0
LINE
  8
0
 10
-103.374
 20
578.995
 11
-103.219
 21
579.472
  0
LINE
  8
0
 10
-103.219
 20
579.472
 11
-103.005
 21
579.927
  0
LINE
  8
0
 10
-103.005
 20
579.927
 11
-102.736
 21
580.351
  0
LINE
  8
0
 10
-102.736
 20
580.351
 11
-102.416
 21
580.738
  0
LINE
  8
0
 10
-102.416
 20
580.738
 11
-102.05
 21
581.082
  0
LINE
  8
0
 10
-102.05
 20
581.082
 11
-101.643
 21
581.377
  0
LINE
  8
0
 10
-101.643
 20
581.377
 11
-101.203
 21
581.619
  0
LINE
  8
0
 10
-101.203
 20
581.619
 11
-100.736
 21
581.804
  0
LINE
  8
0
 10
-100.736
 20
581.804
 11
-100.25
 21
581.929
  0
LINE
  8
0
 10
-100.25
 20
581.929
 11
-99.7512
 21
581.992
  0
LINE
  8
0
 10
-99.7512
 20
581.992
 11
99.7512
 21
581.992
  0
LINE
  8
0
 10
99.7512
 20
581.992
 11
100.25
 21
581.929
  0
LINE
  8
0
 10
100.25
 20
581.929
 11
100.736
 21
581.804
  0
LINE
  8
0
 10
100.736
 20
581.804
 11
101.203
 21
581.619
  0
LINE
  8
0
 10
101.203
 20
581.619
 11
101.643
 21
581.377
  0
LINE
  8
0
 10
101.643
 20
581.377
 11
102.05
 21
581.082
  0
LINE
  8
0
 10
102.05
 20
581.082
 11
102.416
 21
580.738
  0
LINE
  8
0
 10
102.416
 20
580.738
 11
102.736
 21
580.351
  0
LINE
  8
0
 10
102.736
 20
580.351
 11
103.005
 21
579.927
  0
LINE
  8
0
 10
103.005
 20
579.927
 11
103.219
 21
579.472
  0
LINE
  8
0
 10
103.219
 20
579.472
 11
103.374
 21
578.995
  0
LINE
  8
0
 10
103.374
 20
578.995
 11
103.468
 21
578.501
  0
LINE
  8
0
 10
103.468
 20
578.501
 11
103.5
 21
578
  0
LINE
  8
0
 10
103.5
 20
578
 11
103.5
 21
574
  0
LINE
  8
0
 10
103.5
 20
574
 11
103.468
 21
573.499
  0
LINE
  8
0
 10
103.468
 20
573.499
 11
103.374
 21
573.005
  0
LINE
  8
0
 10
103.374
 20
573.005
 11
103.219
 21
572.528
  0
LINE
  8
0
 10
103.219
 20
572.528
 11
103.005
 21
572.073
  0
LINE
  8
0
 10
103.005
 20
572.073
 11
102.736
 21
571.649
  0
LINE
  8
0
 10
102.736
 20
571.649
 11
102.416
 21
571.262
  0
LINE
  8
0
 10
102.416
 20
571.262
 11
102.05
 21
570.918
  0
LINE
  8
0
 10
102.05
 20
570.918
 11
101.643
 21
570.623
  0
LINE
  8
0
 10
101.643
 20
570.623
 11
101.203
 21
570.381
  0
LINE
  8
0
 10
101.203
 20
570.381
 11
100.736
 21
570.196
  0
LINE
  8
0
 10
100.736
 20
570.196
 11
100.25
 21
570.071
  0
LINE
  8
0
 10
100.25
 20
570.071
 11
99.7512
 21
570.008
  0
LINE
  8
0
 10
99.7512
 20
570.008
 11
-99.7512
 21
570.008
  0
LINE
  8
0
 10
100.937
 20
544.589
 11
101.545
 21
544.745
  0
LINE
  8
0
 10
101.545
 20
544.745
 11
102.129
 21
544.976
  0
LINE
  8
0
 10
102.129
 20
544.976
 11
102.679
 21
545.278
  0
LINE
  8
0
 10
102.679
 20
545.278
 11
103.187
 21
545.647
  0
LINE
  8
0
 10
103.187
 20
545.647
 11
103.645
 21
546.077
  0
LINE
  8
0
 10
103.645
 20
546.077
 11
104.045
 21
546.561
  0
LINE
  8
0
 10
104.045
 20
546.561
 11
104.382
 21
547.091
  0
LINE
  8
0
 10
104.382
 20
547.091
 11
104.649
 21
547.659
  0
LINE
  8
0
 10
104.649
 20
547.659
 11
104.843
 21
548.257
  0
LINE
  8
0
 10
104.843
 20
548.257
 11
104.961
 21
548.873
  0
LINE
  8
0
 10
104.961
 20
548.873
 11
105
 21
549.5
  0
LINE
  8
0
 10
105
 20
549.5
 11
105
 21
554.5
  0
LINE
  8
0
 10
105
 20
554.5
 11
104.961
 21
555.127
  0
LINE
  8
0
 10
104.961
 20
555.127
 11
104.843
 21
555.743
  0
LINE
  8
0
 10
104.843
 20
555.743
 11
104.649
 21
556.341
  0
LINE
  8
0
 10
104.649
 20
556.341
 11
104.382
 21
556.909
  0
LINE
  8
0
 10
104.382
 20
556.909
 11
104.045
 21
557.439
  0
LINE
  8
0
 10
104.045
 20
557.439
 11
103.645
 21
557.923
  0
LINE
  8
0
 10
103.645
 20
557.923
 11
103.187
 21
558.353
  0
LINE
  8
0
 10
103.187
 20
558.353
 11
102.679
 21
558.722
  0
LINE
  8
0
 10
102.679
 20
558.722
 11
102.129
 21
559.024
  0
LINE
  8
0
 10
102.129
 20
559.024
 11
101.545
 21
559.255
  0
LINE
  8
0
 10
101.545
 20
559.255
 11
100.937
 21
559.411
  0
LINE
  8
0
 10
100.937
 20
559.411
 11
100.314
 21
559.49
  0
LINE
  8
0
 10
100.314
 20
559.49
 11
-100.314
 21
559.49
  0
LINE
  8
0
 10
-100.314
 20
559.49
 11
-100.937
 21
559.411
  0
LINE
  8
0
 10
-100.937
 20
559.411
 11
-101.545
 21
559.255
  0
LINE
  8
0
 10
-101.545
 20
559.255
 11
-102.129
 21
559.024
  0
LINE
  8
0
 10
-102.129
 20
559.024
 11
-102.679
 21
558.722
  0
LINE
  8
0
 10
-102.679
 20
558.722
 11
-103.187
 21
558.353
  0
LINE
  8
0
 10
-103.187
 20
558.353
 11
-103.645
 21
557.923
  0
LINE
  8
0
 10
-103.645
 20
557.923
 11
-104.045
 21
557.439
  0
LINE
  8
0
 10
-104.045
 20
557.439
 11
-104.382
 21
556.909
  0
LINE
  8
0
 10
-104.382
 20
556.909
 11
-104.649
 21
556.341
  0
LINE
  8
0
 10
-104.649
 20
556.341
 11
-104.843
 21
555.743
  0
LINE
  8
0
 10
-104.843
 20
555.743
 11
-104.961
 21
555.127
  0
LINE
  8
0
 10
-104.961
 20
555.127
 11
-105
 21
554.5
  0
LINE
  8
0
 10
-105
 20
554.5
 11
-105
 21
549.5
  0
LINE
  8
0
 10
-105
 20
549.5
 11
-104.961
 21
548.873
  0
LINE
  8
0
 10
-104.961
 20
548.873
 11
-104.843
 21
548.257
  0
LINE
  8
0
 10
-104.843
 20
548.257
 11
-104.649
 21
547.659
  0
LINE
  8
0
 10
-104.649
 20
547.659
 11
-104.382
 21
547.091
  0
LINE
  8
0
 10
-104.382
 20
547.091
 11
-104.045
 21
546.561
  0
LINE
  8
0
 10
-104.045
 20
546.561
 11
-103.645
 21
546.077
  0
LINE
  8
0
 10
-103.645
 20
546.077
 11
-103.187
 21
545.647
  0
LINE
  8
0
 10
-103.187
 20
545.647
 11
-102.679
 21
545.278
  0
LINE
  8
0
 10
-102.679
 20
545.278
 11
-102.129
 21
544.976
  0
LINE
  8
0
 10
-102.129
 20
544.976
 11
-101.545
 21
544.745
  0
LINE
  8
0
 10
-101.545
 20
544.745
 11
-100.937
 21
544.589
  0
LINE
  8
0
 10
-100.937
 20
544.589
 11
-100.314
 21
544.51
  0
LINE
  8
0
 10
-100.314
 20
544.51
 11
100.314
 21
544.51
  0
LINE
  8
0
 10
100.314
 20
544.51
 11
100.937
 21
544.589
  0
LINE
  8
0
 10
-99.7512
 20
546.008
 11
-100.25
 21
546.071
  0
LINE
  8
0
 10
-100.25
 20
546.071
 11
-100.736
 21
546.196
  0
LINE
  8
0
 10
-100.736
 20
546.196
 11
-101.203
 21
546.381
  0
LINE
  8
0
 10
-101.203
 20
546.381
 11
-101.643
 21
546.623
  0
LINE
  8
0
 10
-101.643
 20
546.623
 11
-102.05
 21
546.918
  0
LINE
  8
0
 10
-102.05
 20
546.918
 11
-102.416
 21
547.262
  0
LINE
  8
0
 10
-102.416
 20
547.262
 11
-102.736
 21
547.649
  0
LINE
  8
0
 10
-102.736
 20
547.649
 11
-103.005
 21
548.073
  0
LINE
  8
0
 10
-103.005
 20
548.073
 11
-103.219
 21
548.528
  0
LINE
  8
0
 10
-103.219
 20
548.528
 11
-103.374
 21
549.005
  0
LINE
  8
0
 10
-103.374
 20
549.005
 11
-103.468
 21
549.499
  0
LINE
  8
0
 10
-103.468
 20
549.499
 11
-103.5
 21
550
  0
LINE
  8
0
 10
-103.5
 20
550
 11
-103.5
 21
554
  0
LINE
  8
0
 10
-103.5
 20
554
 11
-103.468
 21
554.501
  0
LINE
  8
0
 10
-103.468
 20
554.501
 11
-103.374
 21
554.995
  0
LINE
  8
0
 10
-103.374
 20
554.995
 11
-103.219
 21
555.472
  0
LINE
  8
0
 10
-103.219
 20
555.472
 11
-103.005
 21
555.927
  0
LINE
  8
0
 10
-103.005
 20
555.927
 11
-102.736
 21
556.351
  0
LINE
  8
0
 10
-102.736
 20
556.351
 11
-102.416
 21
556.738
  0
LINE
  8
0
 10
-102.416
 20
556.738
 11
-102.05
 21
557.082
  0
LINE
  8
0
 10
-102.05
 20
557.082
 11
-101.643
 21
557.377
  0
LINE
  8
0
 10
-101.643
 20
557.377
 11
-101.203
 21
557.619
  0
LINE
  8
0
 10
-101.203
 20
557.619
 11
-100.736
 21
557.804
  0
LINE
  8
0
 10
-100.736
 20
557.804
 11
-100.25
 21
557.929
  0
LINE
  8
0
 10
-100.25
 20
557.929
 11
-99.7512
 21
557.992
  0
LINE
  8
0
 10
-99.7512
 20
557.992
 11
99.7512
 21
557.992
  0
LINE
  8
0
 10
99.7512
 20
557.992
 11
100.25
 21
557.929
  0
LINE
  8
0
 10
100.25
 20
557.929
 11
100.736
 21
557.804
  0
LINE
  8
0
 10
100.736
 20
557.804
 11
101.203
 21
557.619
  0
LINE
  8
0
 10
101.203
 20
557.619
 11
101.643
 21
557.377
  0
LINE
  8
0
 10
101.643
 20
557.377
 11
102.05
 21
557.082
  0
LINE
  8
0
 10
102.05
 20
557.082
 11
102.416
 21
556.738
  0
LINE
  8
0
 10
102.416
 20
556.738
 11
102.736
 21
556.351
  0
LINE
  8
0
 10
102.736
 20
556.351
 11
103.005
 21
555.927
  0
LINE
  8
0
 10
103.005
 20
555.927
 11
103.219
 21
555.472
  0
LINE
  8
0
 10
103.219
 20
555.472
 11
103.374
 21
554.995
  0
LINE
  8
0
 10
103.374
 20
554.995
 11
103.468
 21
554.501
  0
LINE
  8
0
 10
103.468
 20
554.501
 11
103.5
 21
554
  0
LINE
  8
0
 10
103.5
 20
554
 11
103.5
 21
550
  0
LINE
  8
0
 10
103.5
 20
550
 11
103.468
 21
549.499
  0
LINE
  8
0
 10
103.468
 20
549.499
 11
103.374
 21
549.005
  0
LINE
  8
0
 10
103.374
 20
549.005
 11
103.219
 21
548.528
  0
LINE
  8
0
 10
103.219
 20
548.528
 11
103.005
 21
548.073
  0
LINE
  8
0
 10
103.005
 20
548.073
 11
102.736
 21
547.649
  0
LINE
  8
0
 10
102.736
 20
547.649
 11
102.416
 21
547.262
  0
LINE
  8
0
 10
102.416
 20
547.262
 11
102.05
 21
546.918
  0
LINE
  8
0
 10
102.05
 20
546.918
 11
101.643
 21
546.623
  0
LINE
  8
0
 10
101.643
 20
546.623
 11
101.203
 21
546.381
  0
LINE
  8
0
 10
101.203
 20
546.381
 11
100.736
 21
546.196
  0
LINE
  8
0
 10
100.736
 20
546.196
 11
100.25
 21
546.071
  0
LINE
  8
0
 10
100.25
 20
546.071
 11
99.7512
 21
546.008
  0
LINE
  8
0
 10
99.7512
 20
546.008
 11
-99.7512
 21
546.008
  0
LINE
  8
0
 10
100.937
 20
520.589
 11
101.545
 21
520.745
  0
LINE
  8
0
 10
101.545
 20
520.745
 11
102.129
 21
520.976
  0
LINE
  8
0
 10
102.129
 20
520.976
 11
102.679
 21
521.278
  0
LINE
  8
0
 10
102.679
 20
521.278
 11
103.187
 21
521.647
  0
LINE
  8
0
 10
103.187
 20
521.647
 11
103.645
 21
522.077
  0
LINE
  8
0
 10
103.645
 20
522.077
 11
104.045
 21
522.561
  0
LINE
  8
0
 10
104.045
 20
522.561
 11
104.382
 21
523.091
  0
LINE
  8
0
 10
104.382
 20
523.091
 11
104.649
 21
523.659
  0
LINE
  8
0
 10
104.649
 20
523.659
 11
104.843
 21
524.257
  0
LINE
  8
0
 10
104.843
 20
524.257
 11
104.961
 21
524.873
  0
LINE
  8
0
 10
104.961
 20
524.873
 11
105
 21
525.5
  0
LINE
  8
0
 10
105
 20
525.5
 11
105
 21
530.5
  0
LINE
  8
0
 10
105
 20
530.5
 11
104.961
 21
531.127
  0
LINE
  8
0
 10
104.961
 20
531.127
 11
104.843
 21
531.743
  0
LINE
  8
0
 10
104.843
 20
531.743
 11
104.649
 21
532.341
  0
LINE
  8
0
 10
104.649
 20
532.341
 11
104.382
 21
532.909
  0
LINE
  8
0
 10
104.382
 20
532.909
 11
104.045
 21
533.439
  0
LINE
  8
0
 10
104.045
 20
533.439
 11
103.645
 21
533.923
  0
LINE
  8
0
 10
103.645
 20
533.923
 11
103.187
 21
534.353
  0
LINE
  8
0
 10
103.187
 20
534.353
 11
102.679
 21
534.722
  0
LINE
  8
0
 10
102.679
 20
534.722
 11
102.129
 21
535.024
  0
LINE
  8
0
 10
102.129
 20
535.024
 11
101.545
 21
535.255
  0
LINE
  8
0
 10
101.545
 20
535.255
 11
100.937
 21
535.411
  0
LINE
  8
0
 10
100.937
 20
535.411
 11
100.314
 21
535.49
  0
LINE
  8
0
 10
100.314
 20
535.49
 11
-100.314
 21
535.49
  0
LINE
  8
0
 10
-100.314
 20
535.49
 11
-100.937
 21
535.411
  0
LINE
  8
0
 10
-100.937
 20
535.411
 11
-101.545
 21
535.255
  0
LINE
  8
0
 10
-101.545
 20
535.255
 11
-102.129
 21
535.024
  0
LINE
  8
0
 10
-102.129
 20
535.024
 11
-102.679
 21
534.722
  0
LINE
  8
0
 10
-102.679
 20
534.722
 11
-103.187
 21
534.353
  0
LINE
  8
0
 10
-103.187
 20
534.353
 11
-103.645
 21
533.923
  0
LINE
  8
0
 10
-103.645
 20
533.923
 11
-104.045
 21
533.439
  0
LINE
  8
0
 10
-104.045
 20
533.439
 11
-104.382
 21
532.909
  0
LINE
  8
0
 10
-104.382
 20
532.909
 11
-104.649
 21
532.341
  0
LINE
  8
0
 10
-104.649
 20
532.341
 11
-104.843
 21
531.743
  0
LINE
  8
0
 10
-104.843
 20
531.743
 11
-104.961
 21
531.127
  0
LINE
  8
0
 10
-104.961
 20
531.127
 11
-105
 21
530.5
  0
LINE
  8
0
 10
-105
 20
530.5
 11
-105
 21
525.5
  0
LINE
  8
0
 10
-105
 20
525.5
 11
-104.961
 21
524.873
  0
LINE
  8
0
 10
-104.961
 20
524.873
 11
-104.843
 21
524.257
  0
LINE
  8
0
 10
-104.843
 20
524.257
 11
-104.649
 21
523.659
  0
LINE
  8
0
 10
-104.649
 20
523.659
 11
-104.382
 21
523.091
  0
LINE
  8
0
 10
-104.382
 20
523.091
 11
-104.045
 21
522.561
  0
LINE
  8
0
 10
-104.045
 20
522.561
 11
-103.645
 21
522.077
  0
LINE
  8
0
 10
-103.645
 20
522.077
 11
-103.187
 21
521.647
  0
LINE
  8
0
 10
-103.187
 20
521.647
 11
-102.679
 21
521.278
  0
LINE
  8
0
 10
-102.679
 20
521.278
 11
-102.129
 21
520.976
  0
LINE
  8
0
 10
-102.129
 20
520.976
 11
-101.545
 21
520.745
  0
LINE
  8
0
 10
-101.545
 20
520.745
 11
-100.937
 21
520.589
  0
LINE
  8
0
 10
-100.937
 20
520.589
 11
-100.314
 21
520.51
  0
LINE
  8
0
 10
-100.314
 20
520.51
 11
100.314
 21
520.51
  0
LINE
  8
0
 10
100.314
 20
520.51
 11
100.937
 21
520.589
  0
LINE
  8
0
 10
-99.7512
 20
522.008
 11
-100.25
 21
522.071
  0
LINE
  8
0
 10
-100.25
 20
522.071
 11
-100.736
 21
522.196
  0
LINE
  8
0
 10
-100.736
 20
522.196
 11
-101.203
 21
522.381
  0
LINE
  8
0
 10
-101.203
 20
522.381
 11
-101.643
 21
522.623
  0
LINE
  8
0
 10
-101.643
 20
522.623
 11
-102.05
 21
522.918
  0
LINE
  8
0
 10
-102.05
 20
522.918
 11
-102.416
 21
523.262
  0
LINE
  8
0
 10
-102.416
 20
523.262
 11
-102.736
 21
523.649
  0
LINE
  8
0
 10
-102.736
 20
523.649
 11
-103.005
 21
524.073
  0
LINE
  8
0
 10
-103.005
 20
524.073
 11
-103.219
 21
524.528
  0
LINE
  8
0
 10
-103.219
 20
524.528
 11
-103.374
 21
525.005
  0
LINE
  8
0
 10
-103.374
 20
525.005
 11
-103.468
 21
525.499
  0
LINE
  8
0
 10
-103.468
 20
525.499
 11
-103.5
 21
526
  0
LINE
  8
0
 10
-103.5
 20
526
 11
-103.5
 21
530
  0
LINE
  8
0
 10
-103.5
 20
530
 11
-103.468
 21
530.501
  0
LINE
  8
0
 10
-103.468
 20
530.501
 11
-103.374
 21
530.995
  0
LINE
  8
0
 10
-103.374
 20
530.995
 11
-103.219
 21
531.472
  0
LINE
  8
0
 10
-103.219
 20
531.472
 11
-103.005
 21
531.927
  0
LINE
  8
0
 10
-103.005
 20
531.927
 11
-102.736
 21
532.351
  0
LINE
  8
0
 10
-102.736
 20
532.351
 11
-102.416
 21
532.738
  0
LINE
  8
0
 10
-102.416
 20
532.738
 11
-102.05
 21
533.082
  0
LINE
  8
0
 10
-102.05
 20
533.082
 11
-101.643
 21
533.377
  0
LINE
  8
0
 10
-101.643
 20
533.377
 11
-101.203
 21
533.619
  0
LINE
  8
0
 10
-101.203
 20
533.619
 11
-100.736
 21
533.804
  0
LINE
  8
0
 10
-100.736
 20
533.804
 11
-100.25
 21
533.929
  0
LINE
  8
0
 10
-100.25
 20
533.929
 11
-99.7512
 21
533.992
  0
LINE
  8
0
 10
-99.7512
 20
533.992
 11
99.7512
 21
533.992
  0
LINE
  8
0
 10
99.7512
 20
533.992
 11
100.25
 21
533.929
  0
LINE
  8
0
 10
100.25
 20
533.929
 11
100.736
 21
533.804
  0
LINE
  8
0
 10
100.736
 20
533.804
 11
101.203
 21
533.619
  0
LINE
  8
0
 10
101.203
 20
533.619
 11
101.643
 21
533.377
  0
LINE
  8
0
 10
101.643
 20
533.377
 11
102.05
 21
533.082
  0
LINE
  8
0
 10
102.05
 20
533.082
 11
102.416
 21
532.738
  0
LINE
  8
0
 10
102.416
 20
532.738
 11
102.736
 21
532.351
  0
LINE
  8
0
 10
102.736
 20
532.351
 11
103.005
 21
531.927
  0
LINE
  8
0
 10
103.005
 20
531.927
 11
103.219
 21
531.472
  0
LINE
  8
0
 10
103.219
 20
531.472
 11
103.374
 21
530.995
  0
LINE
  8
0
 10
103.374
 20
530.995
 11
103.468
 21
530.501
  0
LINE
  8
0
 10
103.468
 20
530.501
 11
103.5
 21
530
  0
LINE
  8
0
 10
103.5
 20
530
 11
103.5
 21
526
  0
LINE
  8
0
 10
103.5
 20
526
 11
103.468
 21
525.499
  0
LINE
  8
0
 10
103.468
 20
525.499
 11
103.374
 21
525.005
  0
LINE
  8
0
 10
103.374
 20
525.005
 11
103.219
 21
524.528
  0
LINE
  8
0
 10
103.219
 20
524.528
 11
103.005
 21
524.073
  0
LINE
  8
0
 10
103.005
 20
524.073
 11
102.736
 21
523.649
  0
LINE
  8
0
 10
102.736
 20
523.649
 11
102.416
 21
523.262
  0
LINE
  8
0
 10
102.416
 20
523.262
 11
102.05
 21
522.918
  0
LINE
  8
0
 10
102.05
 20
522.918
 11
101.643
 21
522.623
  0
LINE
  8
0
 10
101.643
 20
522.623
 11
101.203
 21
522.381
  0
LINE
  8
0
 10
101.203
 20
522.381
 11
100.736
 21
522.196
  0
LINE
  8
0
 10
100.736
 20
522.196
 11
100.25
 21
522.071
  0
LINE
  8
0
 10
100.25
 20
522.071
 11
99.7512
 21
522.008
  0
LINE
  8
0
 10
99.7512
 20
522.008
 11
-99.7512
 21
522.008
  0
LINE
  8
0
 10
100.937
 20
496.589
 11
101.545
 21
496.745
  0
LINE
  8
0
 10
101.545
 20
496.745
 11
102.129
 21
496.976
  0
LINE
  8
0
 10
102.129
 20
496.976
 11
102.679
 21
497.278
  0
LINE
  8
0
 10
102.679
 20
497.278
 11
103.187
 21
497.647
  0
LINE
  8
0
 10
103.187
 20
497.647
 11
103.645
 21
498.077
  0
LINE
  8
0
 10
103.645
 20
498.077
 11
104.045
 21
498.561
  0
LINE
  8
0
 10
104.045
 20
498.561
 11
104.382
 21
499.091
  0
LINE
  8
0
 10
104.382
 20
499.091
 11
104.649
 21
499.659
  0
LINE
  8
0
 10
104.649
 20
499.659
 11
104.843
 21
500.257
  0
LINE
  8
0
 10
104.843
 20
500.257
 11
104.961
 21
500.873
  0
LINE
  8
0
 10
104.961
 20
500.873
 11
105
 21
501.5
  0
LINE
  8
0
 10
105
 20
501.5
 11
105
 21
506.5
  0
LINE
  8
0
 10
105
 20
506.5
 11
104.961
 21
507.127
  0
LINE
  8
0
 10
104.961
 20
507.127
 11
104.843
 21
507.743
  0
LINE
  8
0
 10
104.843
 20
507.743
 11
104.649
 21
508.341
  0
LINE
  8
0
 10
104.649
 20
508.341
 11
104.382
 21
508.909
  0
LINE
  8
0
 10
104.382
 20
508.909
 11
104.045
 21
509.439
  0
LINE
  8
0
 10
104.045
 20
509.439
 11
103.645
 21
509.923
  0
LINE
  8
0
 10
103.645
 20
509.923
 11
103.187
 21
510.353
  0
LINE
  8
0
 10
103.187
 20
510.353
 11
102.679
 21
510.722
  0
LINE
  8
0
 10
102.679
 20
510.722
 11
102.129
 21
511.024
  0
LINE
  8
0
 10
102.129
 20
511.024
 11
101.545
 21
511.255
  0
LINE
  8
0
 10
101.545
 20
511.255
 11
100.937
 21
511.411
  0
LINE
  8
0
 10
100.937
 20
511.411
 11
100.314
 21
511.49
  0
LINE
  8
0
 10
100.314
 20
511.49
 11
-100.314
 21
511.49
  0
LINE
  8
0
 10
-100.314
 20
511.49
 11
-100.937
 21
511.411
  0
LINE
  8
0
 10
-100.937
 20
511.411
 11
-101.545
 21
511.255
  0
LINE
  8
0
 10
-101.545
 20
511.255
 11
-102.129
 21
511.024
  0
LINE
  8
0
 10
-102.129
 20
511.024
 11
-102.679
 21
510.722
  0
LINE
  8
0
 10
-102.679
 20
510.722
 11
-103.187
 21
510.353
  0
LINE
  8
0
 10
-103.187
 20
510.353
 11
-103.645
 21
509.923
  0
LINE
  8
0
 10
-103.645
 20
509.923
 11
-104.045
 21
509.439
  0
LINE
  8
0
 10
-104.045
 20
509.439
 11
-104.382
 21
508.909
  0
LINE
  8
0
 10
-104.382
 20
508.909
 11
-104.649
 21
508.341
  0
LINE
  8
0
 10
-104.649
 20
508.341
 11
-104.843
 21
507.743
  0
LINE
  8
0
 10
-104.843
 20
507.743
 11
-104.961
 21
507.127
  0
LINE
  8
0
 10
-104.961
 20
507.127
 11
-105
 21
506.5
  0
LINE
  8
0
 10
-105
 20
506.5
 11
-105
 21
501.5
  0
LINE
  8
0
 10
-105
 20
501.5
 11
-104.961
 21
500.873
  0
LINE
  8
0
 10
-104.961
 20
500.873
 11
-104.843
 21
500.257
  0
LINE
  8
0
 10
-104.843
 20
500.257
 11
-104.649
 21
499.659
  0
LINE
  8
0
 10
-104.649
 20
499.659
 11
-104.382
 21
499.091
  0
LINE
  8
0
 10
-104.382
 20
499.091
 11
-104.045
 21
498.561
  0
LINE
  8
0
 10
-104.045
 20
498.561
 11
-103.645
 21
498.077
  0
LINE
  8
0
 10
-103.645
 20
498.077
 11
-103.187
 21
497.647
  0
LINE
  8
0
 10
-103.187
 20
497.647
 11
-102.679
 21
497.278
  0
LINE
  8
0
 10
-102.679
 20
497.278
 11
-102.129
 21
496.976
  0
LINE
  8
0
 10
-102.129
 20
496.976
 11
-101.545
 21
496.745
  0
LINE
  8
0
 10
-101.545
 20
496.745
 11
-100.937
 21
496.589
  0
LINE
  8
0
 10
-100.937
 20
496.589
 11
-100.314
 21
496.51
  0
LINE
  8
0
 10
-100.314
 20
496.51
 11
100.314
 21
496.51
  0
LINE
  8
0
 10
100.314
 20
496.51
 11
100.937
 21
496.589
  0
LINE
  8
0
 10
-99.7512
 20
498.008
 11
-100.25
 21
498.071
  0
LINE
  8
0
 10
-100.25
 20
498.071
 11
-100.736
 21
498.196
  0
LINE
  8
0
 10
-100.736
 20
498.196
 11
-101.203
 21
498.381
  0
LINE
  8
0
 10
-101.203
 20
498.381
 11
-101.643
 21
498.623
  0
LINE
  8
0
 10
-101.643
 20
498.623
 11
-102.05
 21
498.918
  0
LINE
  8
0
 10
-102.05
 20
498.918
 11
-102.416
 21
499.262
  0
LINE
  8
0
 10
-102.416
 20
499.262
 11
-102.736
 21
499.649
  0
LINE
  8
0
 10
-102.736
 20
499.649
 11
-103.005
 21
500.073
  0
LINE
  8
0
 10
-103.005
 20
500.073
 11
-103.219
 21
500.528
  0
LINE
  8
0
 10
-103.219
 20
500.528
 11
-103.374
 21
501.005
  0
LINE
  8
0
 10
-103.374
 20
501.005
 11
-103.468
 21
501.499
  0
LINE
  8
0
 10
-103.468
 20
501.499
 11
-103.5
 21
502
  0
LINE
  8
0
 10
-103.5
 20
502
 11
-103.5
 21
506
  0
LINE
  8
0
 10
-103.5
 20
506
 11
-103.468
 21
506.501
  0
LINE
  8
0
 10
-103.468
 20
506.501
 11
-103.374
 21
506.995
  0
LINE
  8
0
 10
-103.374
 20
506.995
 11
-103.219
 21
507.472
  0
LINE
  8
0
 10
-103.219
 20
507.472
 11
-103.005
 21
507.927
  0
LINE
  8
0
 10
-103.005
 20
507.927
 11
-102.736
 21
508.351
  0
LINE
  8
0
 10
-102.736
 20
508.351
 11
-102.416
 21
508.738
  0
LINE
  8
0
 10
-102.416
 20
508.738
 11
-102.05
 21
509.082
  0
LINE
  8
0
 10
-102.05
 20
509.082
 11
-101.643
 21
509.377
  0
LINE
  8
0
 10
-101.643
 20
509.377
 11
-101.203
 21
509.619
  0
LINE
  8
0
 10
-101.203
 20
509.619
 11
-100.736
 21
509.804
  0
LINE
  8
0
 10
-100.736
 20
509.804
 11
-100.25
 21
509.929
  0
LINE
  8
0
 10
-100.25
 20
509.929
 11
-99.7512
 21
509.992
  0
LINE
  8
0
 10
-99.7512
 20
509.992
 11
99.7512
 21
509.992
  0
LINE
  8
0
 10
99.7512
 20
509.992
 11
100.25
 21
509.929
  0
LINE
  8
0
 10
100.25
 20
509.929
 11
100.736
 21
509.804
  0
LINE
  8
0
 10
100.736
 20
509.804
 11
101.203
 21
509.619
  0
LINE
  8
0
 10
101.203
 20
509.619
 11
101.643
 21
509.377
  0
LINE
  8
0
 10
101.643
 20
509.377
 11
102.05
 21
509.082
  0
LINE
  8
0
 10
102.05
 20
509.082
 11
102.416
 21
508.738
  0
LINE
  8
0
 10
102.416
 20
508.738
 11
102.736
 21
508.351
  0
LINE
  8
0
 10
102.736
 20
508.351
 11
103.005
 21
507.927
  0
LINE
  8
0
 10
103.005
 20
507.927
 11
103.219
 21
507.472
  0
LINE
  8
0
 10
103.219
 20
507.472
 11
103.374
 21
506.995
  0
LINE
  8
0
 10
103.374
 20
506.995
 11
103.468
 21
506.501
  0
LINE
  8
0
 10
103.468
 20
506.501
 11
103.5
 21
506
  0
LINE
  8
0
 10
103.5
 20
506
 11
103.5
 21
502
  0
LINE
  8
0
 10
103.5
 20
502
 11
103.468
 21
501.499
  0
LINE
  8
0
 10
103.468
 20
501.499
 11
103.374
 21
501.005
  0
LINE
  8
0
 10
103.374
 20
501.005
 11
103.219
 21
500.528
  0
LINE
  8
0
 10
103.219
 20
500.528
 11
103.005
 21
500.073
  0
LINE
  8
0
 10
103.005
 20
500.073
 11
102.736
 21
499.649
  0
LINE
  8
0
 10
102.736
 20
499.649
 11
102.416
 21
499.262
  0
LINE
  8
0
 10
102.416
 20
499.262
 11
102.05
 21
498.918
  0
LINE
  8
0
 10
102.05
 20
498.918
 11
101.643
 21
498.623
  0
LINE
  8
0
 10
101.643
 20
498.623
 11
101.203
 21
498.381
  0
LINE
  8
0
 10
101.203
 20
498.381
 11
100.736
 21
498.196
  0
LINE
  8
0
 10
100.736
 20
498.196
 11
100.25
 21
498.071
  0
LINE
  8
0
 10
100.25
 20
498.071
 11
99.7512
 21
498.008
  0
LINE
  8
0
 10
99.7512
 20
498.008
 11
-99.7512
 21
498.008
  0
LINE
  8
0
 10
100.937
 20
472.589
 11
101.545
 21
472.745
  0
LINE
  8
0
 10
101.545
 20
472.745
 11
102.129
 21
472.976
  0
LINE
  8
0
 10
102.129
 20
472.976
 11
102.679
 21
473.278
  0
LINE
  8
0
 10
102.679
 20
473.278
 11
103.187
 21
473.647
  0
LINE
  8
0
 10
103.187
 20
473.647
 11
103.645
 21
474.077
  0
LINE
  8
0
 10
103.645
 20
474.077
 11
104.045
 21
474.561
  0
LINE
  8
0
 10
104.045
 20
474.561
 11
104.382
 21
475.091
  0
LINE
  8
0
 10
104.382
 20
475.091
 11
104.649
 21
475.659
  0
LINE
  8
0
 10
104.649
 20
475.659
 11
104.843
 21
476.257
  0
LINE
  8
0
 10
104.843
 20
476.257
 11
104.961
 21
476.873
  0
LINE
  8
0
 10
104.961
 20
476.873
 11
105
 21
477.5
  0
LINE
  8
0
 10
105
 20
477.5
 11
105
 21
482.5
  0
LINE
  8
0
 10
105
 20
482.5
 11
104.961
 21
483.127
  0
LINE
  8
0
 10
104.961
 20
483.127
 11
104.843
 21
483.743
  0
LINE
  8
0
 10
104.843
 20
483.743
 11
104.649
 21
484.341
  0
LINE
  8
0
 10
104.649
 20
484.341
 11
104.382
 21
484.909
  0
LINE
  8
0
 10
104.382
 20
484.909
 11
104.045
 21
485.439
  0
LINE
  8
0
 10
104.045
 20
485.439
 11
103.645
 21
485.923
  0
LINE
  8
0
 10
103.645
 20
485.923
 11
103.187
 21
486.353
  0
LINE
  8
0
 10
103.187
 20
486.353
 11
102.679
 21
486.722
  0
LINE
  8
0
 10
102.679
 20
486.722
 11
102.129
 21
487.024
  0
LINE
  8
0
 10
102.129
 20
487.024
 11
101.545
 21
487.255
  0
LINE
  8
0
 10
101.545
 20
487.255
 11
100.937
 21
487.411
  0
LINE
  8
0
 10
100.937
 20
487.411
 11
100.314
 21
487.49
  0
LINE
  8
0
 10
100.314
 20
487.49
 11
-100.314
 21
487.49
  0
LINE
  8
0
 10
-100.314
 20
487.49
 11
-100.937
 21
487.411
  0
LINE
  8
0
 10
-100.937
 20
487.411
 11
-101.545
 21
487.255
  0
LINE
  8
0
 10
-101.545
 20
487.255
 11
-102.129
 21
487.024
  0
LINE
  8
0
 10
-102.129
 20
487.024
 11
-102.679
 21
486.722
  0
LINE
  8
0
 10
-102.679
 20
486.722
 11
-103.187
 21
486.353
  0
LINE
  8
0
 10
-103.187
 20
486.353
 11
-103.645
 21
485.923
  0
LINE
  8
0
 10
-103.645
 20
485.923
 11
-104.045
 21
485.439
  0
LINE
  8
0
 10
-104.045
 20
485.439
 11
-104.382
 21
484.909
  0
LINE
  8
0
 10
-104.382
 20
484.909
 11
-104.649
 21
484.341
  0
LINE
  8
0
 10
-104.649
 20
484.341
 11
-104.843
 21
483.743
  0
LINE
  8
0
 10
-104.843
 20
483.743
 11
-104.961
 21
483.127
  0
LINE
  8
0
 10
-104.961
 20
483.127
 11
-105
 21
482.5
  0
LINE
  8
0
 10
-105
 20
482.5
 11
-105
 21
477.5
  0
LINE
  8
0
 10
-105
 20
477.5
 11
-104.961
 21
476.873
  0
LINE
  8
0
 10
-104.961
 20
476.873
 11
-104.843
 21
476.257
  0
LINE
  8
0
 10
-104.843
 20
476.257
 11
-104.649
 21
475.659
  0
LINE
  8
0
 10
-104.649
 20
475.659
 11
-104.382
 21
475.091
  0
LINE
  8
0
 10
-104.382
 20
475.091
 11
-104.045
 21
474.561
  0
LINE
  8
0
 10
-104.045
 20
474.561
 11
-103.645
 21
474.077
  0
LINE
  8
0
 10
-103.645
 20
474.077
 11
-103.187
 21
473.647
  0
LINE
  8
0
 10
-103.187
 20
473.647
 11
-102.679
 21
473.278
  0
LINE
  8
0
 10
-102.679
 20
473.278
 11
-102.129
 21
472.976
  0
LINE
  8
0
 10
-102.129
 20
472.976
 11
-101.545
 21
472.745
  0
LINE
  8
0
 10
-101.545
 20
472.745
 11
-100.937
 21
472.589
  0
LINE
  8
0
 10
-100.937
 20
472.589
 11
-100.314
 21
472.51
  0
LINE
  8
0
 10
-100.314
 20
472.51
 11
100.314
 21
472.51
  0
LINE
  8
0
 10
100.314
 20
472.51
 11
100.937
 21
472.589
  0
LINE
  8
0
 10
-99.7512
 20
474.008
 11
-100.25
 21
474.071
  0
LINE
  8
0
 10
-100.25
 20
474.071
 11
-100.736
 21
474.196
  0
LINE
  8
0
 10
-100.736
 20
474.196
 11
-101.203
 21
474.381
  0
LINE
  8
0
 10
-101.203
 20
474.381
 11
-101.643
 21
474.623
  0
LINE
  8
0
 10
-101.643
 20
474.623
 11
-102.05
 21
474.918
  0
LINE
  8
0
 10
-102.05
 20
474.918
 11
-102.416
 21
475.262
  0
LINE
  8
0
 10
-102.416
 20
475.262
 11
-102.736
 21
475.649
  0
LINE
  8
0
 10
-102.736
 20
475.649
 11
-103.005
 21
476.073
  0
LINE
  8
0
 10
-103.005
 20
476.073
 11
-103.219
 21
476.528
  0
LINE
  8
0
 10
-103.219
 20
476.528
 11
-103.374
 21
477.005
  0
LINE
  8
0
 10
-103.374
 20
477.005
 11
-103.468
 21
477.499
  0
LINE
  8
0
 10
-103.468
 20
477.499
 11
-103.5
 21
478
  0
LINE
  8
0
 10
-103.5
 20
478
 11
-103.5
 21
482
  0
LINE
  8
0
 10
-103.5
 20
482
 11
-103.468
 21
482.501
  0
LINE
  8
0
 10
-103.468
 20
482.501
 11
-103.374
 21
482.995
  0
LINE
  8
0
 10
-103.374
 20
482.995
 11
-103.219
 21
483.472
  0
LINE
  8
0
 10
-103.219
 20
483.472
 11
-103.005
 21
483.927
  0
LINE
  8
0
 10
-103.005
 20
483.927
 11
-102.736
 21
484.351
  0
LINE
  8
0
 10
-102.736
 20
484.351
 11
-102.416
 21
484.738
  0
LINE
  8
0
 10
-102.416
 20
484.738
 11
-102.05
 21
485.082
  0
LINE
  8
0
 10
-102.05
 20
485.082
 11
-101.643
 21
485.377
  0
LINE
  8
0
 10
-101.643
 20
485.377
 11
-101.203
 21
485.619
  0
LINE
  8
0
 10
-101.203
 20
485.619
 11
-100.736
 21
485.804
  0
LINE
  8
0
 10
-100.736
 20
485.804
 11
-100.25
 21
485.929
  0
LINE
  8
0
 10
-100.25
 20
485.929
 11
-99.7512
 21
485.992
  0
LINE
  8
0
 10
-99.7512
 20
485.992
 11
99.7512
 21
485.992
  0
LINE
  8
0
 10
99.7512
 20
485.992
 11
100.25
 21
485.929
  0
LINE
  8
0
 10
100.25
 20
485.929
 11
100.736
 21
485.804
  0
LINE
  8
0
 10
100.736
 20
485.804
 11
101.203
 21
485.619
  0
LINE
  8
0
 10
101.203
 20
485.619
 11
101.643
 21
485.377
  0
LINE
  8
0
 10
101.643
 20
485.377
 11
102.05
 21
485.082
  0
LINE
  8
0
 10
102.05
 20
485.082
 11
102.416
 21
484.738
  0
LINE
  8
0
 10
102.416
 20
484.738
 11
102.736
 21
484.351
  0
LINE
  8
0
 10
102.736
 20
484.351
 11
103.005
 21
483.927
  0
LINE
  8
0
 10
103.005
 20
483.927
 11
103.219
 21
483.472
  0
LINE
  8
0
 10
103.219
 20
483.472
 11
103.374
 21
482.995
  0
LINE
  8
0
 10
103.374
 20
482.995
 11
103.468
 21
482.501
  0
LINE
  8
0
 10
103.468
 20
482.501
 11
103.5
 21
482
  0
LINE
  8
0
 10
103.5
 20
482
 11
103.5
 21
478
  0
LINE
  8
0
 10
103.5
 20
478
 11
103.468
 21
477.499
  0
LINE
  8
0
 10
103.468
 20
477.499
 11
103.374
 21
477.005
  0
LINE
  8
0
 10
103.374
 20
477.005
 11
103.219
 21
476.528
  0
LINE
  8
0
 10
103.219
 20
476.528
 11
103.005
 21
476.073
  0
LINE
  8
0
 10
103.005
 20
476.073
 11
102.736
 21
475.649
  0
LINE
  8
0
 10
102.736
 20
475.649
 11
102.416
 21
475.262
  0
LINE
  8
0
 10
102.416
 20
475.262
 11
102.05
 21
474.918
  0
LINE
  8
0
 10
102.05
 20
474.918
 11
101.643
 21
474.623
  0
LINE
  8
0
 10
101.643
 20
474.623
 11
101.203
 21
474.381
  0
LINE
  8
0
 10
101.203
 20
474.381
 11
100.736
 21
474.196
  0
LINE
  8
0
 10
100.736
 20
474.196
 11
100.25
 21
474.071
  0
LINE
  8
0
 10
100.25
 20
474.071
 11
99.7512
 21
474.008
  0
LINE
  8
0
 10
99.7512
 20
474.008
 11
-99.7512
 21
474.008
  0
LINE
  8
0
 10
100.937
 20
448.589
 11
101.545
 21
448.745
  0
LINE
  8
0
 10
101.545
 20
448.745
 11
102.129
 21
448.976
  0
LINE
  8
0
 10
102.129
 20
448.976
 11
102.679
 21
449.278
  0
LINE
  8
0
 10
102.679
 20
449.278
 11
103.187
 21
449.647
  0
LINE
  8
0
 10
103.187
 20
449.647
 11
103.645
 21
450.077
  0
LINE
  8
0
 10
103.645
 20
450.077
 11
104.045
 21
450.561
  0
LINE
  8
0
 10
104.045
 20
450.561
 11
104.382
 21
451.091
  0
LINE
  8
0
 10
104.382
 20
451.091
 11
104.649
 21
451.659
  0
LINE
  8
0
 10
104.649
 20
451.659
 11
104.843
 21
452.257
  0
LINE
  8
0
 10
104.843
 20
452.257
 11
104.961
 21
452.873
  0
LINE
  8
0
 10
104.961
 20
452.873
 11
105
 21
453.5
  0
LINE
  8
0
 10
105
 20
453.5
 11
105
 21
458.5
  0
LINE
  8
0
 10
105
 20
458.5
 11
104.961
 21
459.127
  0
LINE
  8
0
 10
104.961
 20
459.127
 11
104.843
 21
459.743
  0
LINE
  8
0
 10
104.843
 20
459.743
 11
104.649
 21
460.341
  0
LINE
  8
0
 10
104.649
 20
460.341
 11
104.382
 21
460.909
  0
LINE
  8
0
 10
104.382
 20
460.909
 11
104.045
 21
461.439
  0
LINE
  8
0
 10
104.045
 20
461.439
 11
103.645
 21
461.923
  0
LINE
  8
0
 10
103.645
 20
461.923
 11
103.187
 21
462.353
  0
LINE
  8
0
 10
103.187
 20
462.353
 11
102.679
 21
462.722
  0
LINE
  8
0
 10
102.679
 20
462.722
 11
102.129
 21
463.024
  0
LINE
  8
0
 10
102.129
 20
463.024
 11
101.545
 21
463.255
  0
LINE
  8
0
 10
101.545
 20
463.255
 11
100.937
 21
463.411
  0
LINE
  8
0
 10
100.937
 20
463.411
 11
100.314
 21
463.49
  0
LINE
  8
0
 10
100.314
 20
463.49
 11
-100.314
 21
463.49
  0
LINE
  8
0
 10
-100.314
 20
463.49
 11
-100.937
 21
463.411
  0
LINE
  8
0
 10
-100.937
 20
463.411
 11
-101.545
 21
463.255
  0
LINE
  8
0
 10
-101.545
 20
463.255
 11
-102.129
 21
463.024
  0
LINE
  8
0
 10
-102.129
 20
463.024
 11
-102.679
 21
462.722
  0
LINE
  8
0
 10
-102.679
 20
462.722
 11
-103.187
 21
462.353
  0
LINE
  8
0
 10
-103.187
 20
462.353
 11
-103.645
 21
461.923
  0
LINE
  8
0
 10
-103.645
 20
461.923
 11
-104.045
 21
461.439
  0
LINE
  8
0
 10
-104.045
 20
461.439
 11
-104.382
 21
460.909
  0
LINE
  8
0
 10
-104.382
 20
460.909
 11
-104.649
 21
460.341
  0
LINE
  8
0
 10
-104.649
 20
460.341
 11
-104.843
 21
459.743
  0
LINE
  8
0
 10
-104.843
 20
459.743
 11
-104.961
 21
459.127
  0
LINE
  8
0
 10
-104.961
 20
459.127
 11
-105
 21
458.5
  0
LINE
  8
0
 10
-105
 20
458.5
 11
-105
 21
453.5
  0
LINE
  8
0
 10
-105
 20
453.5
 11
-104.961
 21
452.873
  0
LINE
  8
0
 10
-104.961
 20
452.873
 11
-104.843
 21
452.257
  0
LINE
  8
0
 10
-104.843
 20
452.257
 11
-104.649
 21
451.659
  0
LINE
  8
0
 10
-104.649
 20
451.659
 11
-104.382
 21
451.091
  0
LINE
  8
0
 10
-104.382
 20
451.091
 11
-104.045
 21
450.561
  0
LINE
  8
0
 10
-104.045
 20
450.561
 11
-103.645
 21
450.077
  0
LINE
  8
0
 10
-103.645
 20
450.077
 11
-103.187
 21
449.647
  0
LINE
  8
0
 10
-103.187
 20
449.647
 11
-102.679
 21
449.278
  0
LINE
  8
0
 10
-102.679
 20
449.278
 11
-102.129
 21
448.976
  0
LINE
  8
0
 10
-102.129
 20
448.976
 11
-101.545
 21
448.745
  0
LINE
  8
0
 10
-101.545
 20
448.745
 11
-100.937
 21
448.589
  0
LINE
  8
0
 10
-100.937
 20
448.589
 11
-100.314
 21
448.51
  0
LINE
  8
0
 10
-100.314
 20
448.51
 11
100.314
 21
448.51
  0
LINE
  8
0
 10
100.314
 20
448.51
 11
100.937
 21
448.589
  0
LINE
  8
0
 10
-99.7512
 20
450.008
 11
-100.25
 21
450.071
  0
LINE
  8
0
 10
-100.25
 20
450.071
 11
-100.736
 21
450.196
  0
LINE
  8
0
 10
-100.736
 20
450.196
 11
-101.203
 21
450.381
  0
LINE
  8
0
 10
-101.203
 20
450.381
 11
-101.643
 21
450.623
  0
LINE
  8
0
 10
-101.643
 20
450.623
 11
-102.05
 21
450.918
  0
LINE
  8
0
 10
-102.05
 20
450.918
 11
-102.416
 21
451.262
  0
LINE
  8
0
 10
-102.416
 20
451.262
 11
-102.736
 21
451.649
  0
LINE
  8
0
 10
-102.736
 20
451.649
 11
-103.005
 21
452.073
  0
LINE
  8
0
 10
-103.005
 20
452.073
 11
-103.219
 21
452.528
  0
LINE
  8
0
 10
-103.219
 20
452.528
 11
-103.374
 21
453.005
  0
LINE
  8
0
 10
-103.374
 20
453.005
 11
-103.468
 21
453.499
  0
LINE
  8
0
 10
-103.468
 20
453.499
 11
-103.5
 21
454
  0
LINE
  8
0
 10
-103.5
 20
454
 11
-103.5
 21
458
  0
LINE
  8
0
 10
-103.5
 20
458
 11
-103.468
 21
458.501
  0
LINE
  8
0
 10
-103.468
 20
458.501
 11
-103.374
 21
458.995
  0
LINE
  8
0
 10
-103.374
 20
458.995
 11
-103.219
 21
459.472
  0
LINE
  8
0
 10
-103.219
 20
459.472
 11
-103.005
 21
459.927
  0
LINE
  8
0
 10
-103.005
 20
459.927
 11
-102.736
 21
460.351
  0
LINE
  8
0
 10
-102.736
 20
460.351
 11
-102.416
 21
460.738
  0
LINE
  8
0
 10
-102.416
 20
460.738
 11
-102.05
 21
461.082
  0
LINE
  8
0
 10
-102.05
 20
461.082
 11
-101.643
 21
461.377
  0
LINE
  8
0
 10
-101.643
 20
461.377
 11
-101.203
 21
461.619
  0
LINE
  8
0
 10
-101.203
 20
461.619
 11
-100.736
 21
461.804
  0
LINE
  8
0
 10
-100.736
 20
461.804
 11
-100.25
 21
461.929
  0
LINE
  8
0
 10
-100.25
 20
461.929
 11
-99.7512
 21
461.992
  0
LINE
  8
0
 10
-99.7512
 20
461.992
 11
99.7512
 21
461.992
  0
LINE
  8
0
 10
99.7512
 20
461.992
 11
100.25
 21
461.929
  0
LINE
  8
0
 10
100.25
 20
461.929
 11
100.736
 21
461.804
  0
LINE
  8
0
 10
100.736
 20
461.804
 11
101.203
 21
461.619
  0
LINE
  8
0
 10
101.203
 20
461.619
 11
101.643
 21
461.377
  0
LINE
  8
0
 10
101.643
 20
461.377
 11
102.05
 21
461.082
  0
LINE
  8
0
 10
102.05
 20
461.082
 11
102.416
 21
460.738
  0
LINE
  8
0
 10
102.416
 20
460.738
 11
102.736
 21
460.351
  0
LINE
  8
0
 10
102.736
 20
460.351
 11
103.005
 21
459.927
  0
LINE
  8
0
 10
103.005
 20
459.927
 11
103.219
 21
459.472
  0
LINE
  8
0
 10
103.219
 20
459.472
 11
103.374
 21
458.995
  0
LINE
  8
0
 10
103.374
 20
458.995
 11
103.468
 21
458.501
  0
LINE
  8
0
 10
103.468
 20
458.501
 11
103.5
 21
458
  0
LINE
  8
0
 10
103.5
 20
458
 11
103.5
 21
454
  0
LINE
  8
0
 10
103.5
 20
454
 11
103.468
 21
453.499
  0
LINE
  8
0
 10
103.468
 20
453.499
 11
103.374
 21
453.005
  0
LINE
  8
0
 10
103.374
 20
453.005
 11
103.219
 21
452.528
  0
LINE
  8
0
 10
103.219
 20
452.528
 11
103.005
 21
452.073
  0
LINE
  8
0
 10
103.005
 20
452.073
 11
102.736
 21
451.649
  0
LINE
  8
0
 10
102.736
 20
451.649
 11
102.416
 21
451.262
  0
LINE
  8
0
 10
102.416
 20
451.262
 11
102.05
 21
450.918
  0
LINE
  8
0
 10
102.05
 20
450.918
 11
101.643
 21
450.623
  0
LINE
  8
0
 10
101.643
 20
450.623
 11
101.203
 21
450.381
  0
LINE
  8
0
 10
101.203
 20
450.381
 11
100.736
 21
450.196
  0
LINE
  8
0
 10
100.736
 20
450.196
 11
100.25
 21
450.071
  0
LINE
  8
0
 10
100.25
 20
450.071
 11
99.7512
 21
450.008
  0
LINE
  8
0
 10
99.7512
 20
450.008
 11
-99.7512
 21
450.008
  0
LINE
  8
0
 10
100.937
 20
424.589
 11
101.545
 21
424.745
  0
LINE
  8
0
 10
101.545
 20
424.745
 11
102.129
 21
424.976
  0
LINE
  8
0
 10
102.129
 20
424.976
 11
102.679
 21
425.278
  0
LINE
  8
0
 10
102.679
 20
425.278
 11
103.187
 21
425.647
  0
LINE
  8
0
 10
103.187
 20
425.647
 11
103.645
 21
426.077
  0
LINE
  8
0
 10
103.645
 20
426.077
 11
104.045
 21
426.561
  0
LINE
  8
0
 10
104.045
 20
426.561
 11
104.382
 21
427.091
  0
LINE
  8
0
 10
104.382
 20
427.091
 11
104.649
 21
427.659
  0
LINE
  8
0
 10
104.649
 20
427.659
 11
104.843
 21
428.257
  0
LINE
  8
0
 10
104.843
 20
428.257
 11
104.961
 21
428.873
  0
LINE
  8
0
 10
104.961
 20
428.873
 11
105
 21
429.5
  0
LINE
  8
0
 10
105
 20
429.5
 11
105
 21
434.5
  0
LINE
  8
0
 10
105
 20
434.5
 11
104.961
 21
435.127
  0
LINE
  8
0
 10
104.961
 20
435.127
 11
104.843
 21
435.743
  0
LINE
  8
0
 10
104.843
 20
435.743
 11
104.649
 21
436.341
  0
LINE
  8
0
 10
104.649
 20
436.341
 11
104.382
 21
436.909
  0
LINE
  8
0
 10
104.382
 20
436.909
 11
104.045
 21
437.439
  0
LINE
  8
0
 10
104.045
 20
437.439
 11
103.645
 21
437.923
  0
LINE
  8
0
 10
103.645
 20
437.923
 11
103.187
 21
438.353
  0
LINE
  8
0
 10
103.187
 20
438.353
 11
102.679
 21
438.722
  0
LINE
  8
0
 10
102.679
 20
438.722
 11
102.129
 21
439.024
  0
LINE
  8
0
 10
102.129
 20
439.024
 11
101.545
 21
439.255
  0
LINE
  8
0
 10
101.545
 20
439.255
 11
100.937
 21
439.411
  0
LINE
  8
0
 10
100.937
 20
439.411
 11
100.314
 21
439.49
  0
LINE
  8
0
 10
100.314
 20
439.49
 11
-100.314
 21
439.49
  0
LINE
  8
0
 10
-100.314
 20
439.49
 11
-100.937
 21
439.411
  0
LINE
  8
0
 10
-100.937
 20
439.411
 11
-101.545
 21
439.255
  0
LINE
  8
0
 10
-101.545
 20
439.255
 11
-102.129
 21
439.024
  0
LINE
  8
0
 10
-102.129
 20
439.024
 11
-102.679
 21
438.722
  0
LINE
  8
0
 10
-102.679
 20
438.722
 11
-103.187
 21
438.353
  0
LINE
  8
0
 10
-103.187
 20
438.353
 11
-103.645
 21
437.923
  0
LINE
  8
0
 10
-103.645
 20
437.923
 11
-104.045
 21
437.439
  0
LINE
  8
0
 10
-104.045
 20
437.439
 11
-104.382
 21
436.909
  0
LINE
  8
0
 10
-104.382
 20
436.909
 11
-104.649
 21
436.341
  0
LINE
  8
0
 10
-104.649
 20
436.341
 11
-104.843
 21
435.743
  0
LINE
  8
0
 10
-104.843
 20
435.743
 11
-104.961
 21
435.127
  0
LINE
  8
0
 10
-104.961
 20
435.127
 11
-105
 21
434.5
  0
LINE
  8
0
 10
-105
 20
434.5
 11
-105
 21
429.5
  0
LINE
  8
0
 10
-105
 20
429.5
 11
-104.961
 21
428.873
  0
LINE
  8
0
 10
-104.961
 20
428.873
 11
-104.843
 21
428.257
  0
LINE
  8
0
 10
-104.843
 20
428.257
 11
-104.649
 21
427.659
  0
LINE
  8
0
 10
-104.649
 20
427.659
 11
-104.382
 21
427.091
  0
LINE
  8
0
 10
-104.382
 20
427.091
 11
-104.045
 21
426.561
  0
LINE
  8
0
 10
-104.045
 20
426.561
 11
-103.645
 21
426.077
  0
LINE
  8
0
 10
-103.645
 20
426.077
 11
-103.187
 21
425.647
  0
LINE
  8
0
 10
-103.187
 20
425.647
 11
-102.679
 21
425.278
  0
LINE
  8
0
 10
-102.679
 20
425.278
 11
-102.129
 21
424.976
  0
LINE
  8
0
 10
-102.129
 20
424.976
 11
-101.545
 21
424.745
  0
LINE
  8
0
 10
-101.545
 20
424.745
 11
-100.937
 21
424.589
  0
LINE
  8
0
 10
-100.937
 20
424.589
 11
-100.314
 21
424.51
  0
LINE
  8
0
 10
-100.314
 20
424.51
 11
100.314
 21
424.51
  0
LINE
  8
0
 10
100.314
 20
424.51
 11
100.937
 21
424.589
  0
LINE
  8
0
 10
-99.7512
 20
426.008
 11
-100.25
 21
426.071
  0
LINE
  8
0
 10
-100.25
 20
426.071
 11
-100.736
 21
426.196
  0
LINE
  8
0
 10
-100.736
 20
426.196
 11
-101.203
 21
426.381
  0
LINE
  8
0
 10
-101.203
 20
426.381
 11
-101.643
 21
426.623
  0
LINE
  8
0
 10
-101.643
 20
426.623
 11
-102.05
 21
426.918
  0
LINE
  8
0
 10
-102.05
 20
426.918
 11
-102.416
 21
427.262
  0
LINE
  8
0
 10
-102.416
 20
427.262
 11
-102.736
 21
427.649
  0
LINE
  8
0
 10
-102.736
 20
427.649
 11
-103.005
 21
428.073
  0
LINE
  8
0
 10
-103.005
 20
428.073
 11
-103.219
 21
428.528
  0
LINE
  8
0
 10
-103.219
 20
428.528
 11
-103.374
 21
429.005
  0
LINE
  8
0
 10
-103.374
 20
429.005
 11
-103.468
 21
429.499
  0
LINE
  8
0
 10
-103.468
 20
429.499
 11
-103.5
 21
430
  0
LINE
  8
0
 10
-103.5
 20
430
 11
-103.5
 21
434
  0
LINE
  8
0
 10
-103.5
 20
434
 11
-103.468
 21
434.501
  0
LINE
  8
0
 10
-103.468
 20
434.501
 11
-103.374
 21
434.995
  0
LINE
  8
0
 10
-103.374
 20
434.995
 11
-103.219
 21
435.472
  0
LINE
  8
0
 10
-103.219
 20
435.472
 11
-103.005
 21
435.927
  0
LINE
  8
0
 10
-103.005
 20
435.927
 11
-102.736
 21
436.351
  0
LINE
  8
0
 10
-102.736
 20
436.351
 11
-102.416
 21
436.738
  0
LINE
  8
0
 10
-102.416
 20
436.738
 11
-102.05
 21
437.082
  0
LINE
  8
0
 10
-102.05
 20
437.082
 11
-101.643
 21
437.377
  0
LINE
  8
0
 10
-101.643
 20
437.377
 11
-101.203
 21
437.619
  0
LINE
  8
0
 10
-101.203
 20
437.619
 11
-100.736
 21
437.804
  0
LINE
  8
0
 10
-100.736
 20
437.804
 11
-100.25
 21
437.929
  0
LINE
  8
0
 10
-100.25
 20
437.929
 11
-99.7512
 21
437.992
  0
LINE
  8
0
 10
-99.7512
 20
437.992
 11
99.7512
 21
437.992
  0
LINE
  8
0
 10
99.7512
 20
437.992
 11
100.25
 21
437.929
  0
LINE
  8
0
 10
100.25
 20
437.929
 11
100.736
 21
437.804
  0
LINE
  8
0
 10
100.736
 20
437.804
 11
101.203
 21
437.619
  0
LINE
  8
0
 10
101.203
 20
437.619
 11
101.643
 21
437.377
  0
LINE
  8
0
 10
101.643
 20
437.377
 11
102.05
 21
437.082
  0
LINE
  8
0
 10
102.05
 20
437.082
 11
102.416
 21
436.738
  0
LINE
  8
0
 10
102.416
 20
436.738
 11
102.736
 21
436.351
  0
LINE
  8
0
 10
102.736
 20
436.351
 11
103.005
 21
435.927
  0
LINE
  8
0
 10
103.005
 20
435.927
 11
103.219
 21
435.472
  0
LINE
  8
0
 10
103.219
 20
435.472
 11
103.374
 21
434.995
  0
LINE
  8
0
 10
103.374
 20
434.995
 11
103.468
 21
434.501
  0
LINE
  8
0
 10
103.468
 20
434.501
 11
103.5
 21
434
  0
LINE
  8
0
 10
103.5
 20
434
 11
103.5
 21
430
  0
LINE
  8
0
 10
103.5
 20
430
 11
103.468
 21
429.499
  0
LINE
  8
0
 10
103.468
 20
429.499
 11
103.374
 21
429.005
  0
LINE
  8
0
 10
103.374
 20
429.005
 11
103.219
 21
428.528
  0
LINE
  8
0
 10
103.219
 20
428.528
 11
103.005
 21
428.073
  0
LINE
  8
0
 10
103.005
 20
428.073
 11
102.736
 21
427.649
  0
LINE
  8
0
 10
102.736
 20
427.649
 11
102.416
 21
427.262
  0
LINE
  8
0
 10
102.416
 20
427.262
 11
102.05
 21
426.918
  0
LINE
  8
0
 10
102.05
 20
426.918
 11
101.643
 21
426.623
  0
LINE
  8
0
 10
101.643
 20
426.623
 11
101.203
 21
426.381
  0
LINE
  8
0
 10
101.203
 20
426.381
 11
100.736
 21
426.196
  0
LINE
  8
0
 10
100.736
 20
426.196
 11
100.25
 21
426.071
  0
LINE
  8
0
 10
100.25
 20
426.071
 11
99.7512
 21
426.008
  0
LINE
  8
0
 10
99.7512
 20
426.008
 11
-99.7512
 21
426.008
  0
LINE
  8
0
 10
100.937
 20
400.589
 11
101.545
 21
400.745
  0
LINE
  8
0
 10
101.545
 20
400.745
 11
102.129
 21
400.976
  0
LINE
  8
0
 10
102.129
 20
400.976
 11
102.679
 21
401.278
  0
LINE
  8
0
 10
102.679
 20
401.278
 11
103.187
 21
401.647
  0
LINE
  8
0
 10
103.187
 20
401.647
 11
103.645
 21
402.077
  0
LINE
  8
0
 10
103.645
 20
402.077
 11
104.045
 21
402.561
  0
LINE
  8
0
 10
104.045
 20
402.561
 11
104.382
 21
403.091
  0
LINE
  8
0
 10
104.382
 20
403.091
 11
104.649
 21
403.659
  0
LINE
  8
0
 10
104.649
 20
403.659
 11
104.843
 21
404.257
  0
LINE
  8
0
 10
104.843
 20
404.257
 11
104.961
 21
404.873
  0
LINE
  8
0
 10
104.961
 20
404.873
 11
105
 21
405.5
  0
LINE
  8
0
 10
105
 20
405.5
 11
105
 21
410.5
  0
LINE
  8
0
 10
105
 20
410.5
 11
104.961
 21
411.127
  0
LINE
  8
0
 10
104.961
 20
411.127
 11
104.843
 21
411.743
  0
LINE
  8
0
 10
104.843
 20
411.743
 11
104.649
 21
412.341
  0
LINE
  8
0
 10
104.649
 20
412.341
 11
104.382
 21
412.909
  0
LINE
  8
0
 10
104.382
 20
412.909
 11
104.045
 21
413.439
  0
LINE
  8
0
 10
104.045
 20
413.439
 11
103.645
 21
413.923
  0
LINE
  8
0
 10
103.645
 20
413.923
 11
103.187
 21
414.353
  0
LINE
  8
0
 10
103.187
 20
414.353
 11
102.679
 21
414.722
  0
LINE
  8
0
 10
102.679
 20
414.722
 11
102.129
 21
415.024
  0
LINE
  8
0
 10
102.129
 20
415.024
 11
101.545
 21
415.255
  0
LINE
  8
0
 10
101.545
 20
415.255
 11
100.937
 21
415.411
  0
LINE
  8
0
 10
100.937
 20
415.411
 11
100.314
 21
415.49
  0
LINE
  8
0
 10
100.314
 20
415.49
 11
-100.314
 21
415.49
  0
LINE
  8
0
 10
-100.314
 20
415.49
 11
-100.937
 21
415.411
  0
LINE
  8
0
 10
-100.937
 20
415.411
 11
-101.545
 21
415.255
  0
LINE
  8
0
 10
-101.545
 20
415.255
 11
-102.129
 21
415.024
  0
LINE
  8
0
 10
-102.129
 20
415.024
 11
-102.679
 21
414.722
  0
LINE
  8
0
 10
-102.679
 20
414.722
 11
-103.187
 21
414.353
  0
LINE
  8
0
 10
-103.187
 20
414.353
 11
-103.645
 21
413.923
  0
LINE
  8
0
 10
-103.645
 20
413.923
 11
-104.045
 21
413.439
  0
LINE
  8
0
 10
-104.045
 20
413.439
 11
-104.382
 21
412.909
  0
LINE
  8
0
 10
-104.382
 20
412.909
 11
-104.649
 21
412.341
  0
LINE
  8
0
 10
-104.649
 20
412.341
 11
-104.843
 21
411.743
  0
LINE
  8
0
 10
-104.843
 20
411.743
 11
-104.961
 21
411.127
  0
LINE
  8
0
 10
-104.961
 20
411.127
 11
-105
 21
410.5
  0
LINE
  8
0
 10
-105
 20
410.5
 11
-105
 21
405.5
  0
LINE
  8
0
 10
-105
 20
405.5
 11
-104.961
 21
404.873
  0
LINE
  8
0
 10
-104.961
 20
404.873
 11
-104.843
 21
404.257
  0
LINE
  8
0
 10
-104.843
 20
404.257
 11
-104.649
 21
403.659
  0
LINE
  8
0
 10
-104.649
 20
403.659
 11
-104.382
 21
403.091
  0
LINE
  8
0
 10
-104.382
 20
403.091
 11
-104.045
 21
402.561
  0
LINE
  8
0
 10
-104.045
 20
402.561
 11
-103.645
 21
402.077
  0
LINE
  8
0
 10
-103.645
 20
402.077
 11
-103.187
 21
401.647
  0
LINE
  8
0
 10
-103.187
 20
401.647
 11
-102.679
 21
401.278
  0
LINE
  8
0
 10
-102.679
 20
401.278
 11
-102.129
 21
400.976
  0
LINE
  8
0
 10
-102.129
 20
400.976
 11
-101.545
 21
400.745
  0
LINE
  8
0
 10
-101.545
 20
400.745
 11
-100.937
 21
400.589
  0
LINE
  8
0
 10
-100.937
 20
400.589
 11
-100.314
 21
400.51
  0
LINE
  8
0
 10
-100.314
 20
400.51
 11
100.314
 21
400.51
  0
LINE
  8
0
 10
100.314
 20
400.51
 11
100.937
 21
400.589
  0
LINE
  8
0
 10
-99.7512
 20
402.008
 11
-100.25
 21
402.071
  0
LINE
  8
0
 10
-100.25
 20
402.071
 11
-100.736
 21
402.196
  0
LINE
  8
0
 10
-100.736
 20
402.196
 11
-101.203
 21
402.381
  0
LINE
  8
0
 10
-101.203
 20
402.381
 11
-101.643
 21
402.623
  0
LINE
  8
0
 10
-101.643
 20
402.623
 11
-102.05
 21
402.918
  0
LINE
  8
0
 10
-102.05
 20
402.918
 11
-102.416
 21
403.262
  0
LINE
  8
0
 10
-102.416
 20
403.262
 11
-102.736
 21
403.649
  0
LINE
  8
0
 10
-102.736
 20
403.649
 11
-103.005
 21
404.073
  0
LINE
  8
0
 10
-103.005
 20
404.073
 11
-103.219
 21
404.528
  0
LINE
  8
0
 10
-103.219
 20
404.528
 11
-103.374
 21
405.005
  0
LINE
  8
0
 10
-103.374
 20
405.005
 11
-103.468
 21
405.499
  0
LINE
  8
0
 10
-103.468
 20
405.499
 11
-103.5
 21
406
  0
LINE
  8
0
 10
-103.5
 20
406
 11
-103.5
 21
410
  0
LINE
  8
0
 10
-103.5
 20
410
 11
-103.468
 21
410.501
  0
LINE
  8
0
 10
-103.468
 20
410.501
 11
-103.374
 21
410.995
  0
LINE
  8
0
 10
-103.374
 20
410.995
 11
-103.219
 21
411.472
  0
LINE
  8
0
 10
-103.219
 20
411.472
 11
-103.005
 21
411.927
  0
LINE
  8
0
 10
-103.005
 20
411.927
 11
-102.736
 21
412.351
  0
LINE
  8
0
 10
-102.736
 20
412.351
 11
-102.416
 21
412.738
  0
LINE
  8
0
 10
-102.416
 20
412.738
 11
-102.05
 21
413.082
  0
LINE
  8
0
 10
-102.05
 20
413.082
 11
-101.643
 21
413.377
  0
LINE
  8
0
 10
-101.643
 20
413.377
 11
-101.203
 21
413.619
  0
LINE
  8
0
 10
-101.203
 20
413.619
 11
-100.736
 21
413.804
  0
LINE
  8
0
 10
-100.736
 20
413.804
 11
-100.25
 21
413.929
  0
LINE
  8
0
 10
-100.25
 20
413.929
 11
-99.7512
 21
413.992
  0
LINE
  8
0
 10
-99.7512
 20
413.992
 11
99.7512
 21
413.992
  0
LINE
  8
0
 10
99.7512
 20
413.992
 11
100.25
 21
413.929
  0
LINE
  8
0
 10
100.25
 20
413.929
 11
100.736
 21
413.804
  0
LINE
  8
0
 10
100.736
 20
413.804
 11
101.203
 21
413.619
  0
LINE
  8
0
 10
101.203
 20
413.619
 11
101.643
 21
413.377
  0
LINE
  8
0
 10
101.643
 20
413.377
 11
102.05
 21
413.082
  0
LINE
  8
0
 10
102.05
 20
413.082
 11
102.416
 21
412.738
  0
LINE
  8
0
 10
102.416
 20
412.738
 11
102.736
 21
412.351
  0
LINE
  8
0
 10
102.736
 20
412.351
 11
103.005
 21
411.927
  0
LINE
  8
0
 10
103.005
 20
411.927
 11
103.219
 21
411.472
  0
LINE
  8
0
 10
103.219
 20
411.472
 11
103.374
 21
410.995
  0
LINE
  8
0
 10
103.374
 20
410.995
 11
103.468
 21
410.501
  0
LINE
  8
0
 10
103.468
 20
410.501
 11
103.5
 21
410
  0
LINE
  8
0
 10
103.5
 20
410
 11
103.5
 21
406
  0
LINE
  8
0
 10
103.5
 20
406
 11
103.468
 21
405.499
  0
LINE
  8
0
 10
103.468
 20
405.499
 11
103.374
 21
405.005
  0
LINE
  8
0
 10
103.374
 20
405.005
 11
103.219
 21
404.528
  0
LINE
  8
0
 10
103.219
 20
404.528
 11
103.005
 21
404.073
  0
LINE
  8
0
 10
103.005
 20
404.073
 11
102.736
 21
403.649
  0
LINE
  8
0
 10
102.736
 20
403.649
 11
102.416
 21
403.262
  0
LINE
  8
0
 10
102.416
 20
403.262
 11
102.05
 21
402.918
  0
LINE
  8
0
 10
102.05
 20
402.918
 11
101.643
 21
402.623
  0
LINE
  8
0
 10
101.643
 20
402.623
 11
101.203
 21
402.381
  0
LINE
  8
0
 10
101.203
 20
402.381
 11
100.736
 21
402.196
  0
LINE
  8
0
 10
100.736
 20
402.196
 11
100.25
 21
402.071
  0
LINE
  8
0
 10
100.25
 20
402.071
 11
99.7512
 21
402.008
  0
LINE
  8
0
 10
99.7512
 20
402.008
 11
-99.7512
 21
402.008
  0
LINE
  8
0
 10
100.937
 20
376.589
 11
101.545
 21
376.745
  0
LINE
  8
0
 10
101.545
 20
376.745
 11
102.129
 21
376.976
  0
LINE
  8
0
 10
102.129
 20
376.976
 11
102.679
 21
377.278
  0
LINE
  8
0
 10
102.679
 20
377.278
 11
103.187
 21
377.647
  0
LINE
  8
0
 10
103.187
 20
377.647
 11
103.645
 21
378.077
  0
LINE
  8
0
 10
103.645
 20
378.077
 11
104.045
 21
378.561
  0
LINE
  8
0
 10
104.045
 20
378.561
 11
104.382
 21
379.091
  0
LINE
  8
0
 10
104.382
 20
379.091
 11
104.649
 21
379.659
  0
LINE
  8
0
 10
104.649
 20
379.659
 11
104.843
 21
380.257
  0
LINE
  8
0
 10
104.843
 20
380.257
 11
104.961
 21
380.873
  0
LINE
  8
0
 10
104.961
 20
380.873
 11
105
 21
381.5
  0
LINE
  8
0
 10
105
 20
381.5
 11
105
 21
386.5
  0
LINE
  8
0
 10
105
 20
386.5
 11
104.961
 21
387.127
  0
LINE
  8
0
 10
104.961
 20
387.127
 11
104.843
 21
387.743
  0
LINE
  8
0
 10
104.843
 20
387.743
 11
104.649
 21
388.341
  0
LINE
  8
0
 10
104.649
 20
388.341
 11
104.382
 21
388.909
  0
LINE
  8
0
 10
104.382
 20
388.909
 11
104.045
 21
389.439
  0
LINE
  8
0
 10
104.045
 20
389.439
 11
103.645
 21
389.923
  0
LINE
  8
0
 10
103.645
 20
389.923
 11
103.187
 21
390.353
  0
LINE
  8
0
 10
103.187
 20
390.353
 11
102.679
 21
390.722
  0
LINE
  8
0
 10
102.679
 20
390.722
 11
102.129
 21
391.024
  0
LINE
  8
0
 10
102.129
 20
391.024
 11
101.545
 21
391.255
  0
LINE
  8
0
 10
101.545
 20
391.255
 11
100.937
 21
391.411
  0
LINE
  8
0
 10
100.937
 20
391.411
 11
100.314
 21
391.49
  0
LINE
  8
0
 10
100.314
 20
391.49
 11
-100.314
 21
391.49
  0
LINE
  8
0
 10
-100.314
 20
391.49
 11
-100.937
 21
391.411
  0
LINE
  8
0
 10
-100.937
 20
391.411
 11
-101.545
 21
391.255
  0
LINE
  8
0
 10
-101.545
 20
391.255
 11
-102.129
 21
391.024
  0
LINE
  8
0
 10
-102.129
 20
391.024
 11
-102.679
 21
390.722
  0
LINE
  8
0
 10
-102.679
 20
390.722
 11
-103.187
 21
390.353
  0
LINE
  8
0
 10
-103.187
 20
390.353
 11
-103.645
 21
389.923
  0
LINE
  8
0
 10
-103.645
 20
389.923
 11
-104.045
 21
389.439
  0
LINE
  8
0
 10
-104.045
 20
389.439
 11
-104.382
 21
388.909
  0
LINE
  8
0
 10
-104.382
 20
388.909
 11
-104.649
 21
388.341
  0
LINE
  8
0
 10
-104.649
 20
388.341
 11
-104.843
 21
387.743
  0
LINE
  8
0
 10
-104.843
 20
387.743
 11
-104.961
 21
387.127
  0
LINE
  8
0
 10
-104.961
 20
387.127
 11
-105
 21
386.5
  0
LINE
  8
0
 10
-105
 20
386.5
 11
-105
 21
381.5
  0
LINE
  8
0
 10
-105
 20
381.5
 11
-104.961
 21
380.873
  0
LINE
  8
0
 10
-104.961
 20
380.873
 11
-104.843
 21
380.257
  0
LINE
  8
0
 10
-104.843
 20
380.257
 11
-104.649
 21
379.659
  0
LINE
  8
0
 10
-104.649
 20
379.659
 11
-104.382
 21
379.091
  0
LINE
  8
0
 10
-104.382
 20
379.091
 11
-104.045
 21
378.561
  0
LINE
  8
0
 10
-104.045
 20
378.561
 11
-103.645
 21
378.077
  0
LINE
  8
0
 10
-103.645
 20
378.077
 11
-103.187
 21
377.647
  0
LINE
  8
0
 10
-103.187
 20
377.647
 11
-102.679
 21
377.278
  0
LINE
  8
0
 10
-102.679
 20
377.278
 11
-102.129
 21
376.976
  0
LINE
  8
0
 10
-102.129
 20
376.976
 11
-101.545
 21
376.745
  0
LINE
  8
0
 10
-101.545
 20
376.745
 11
-100.937
 21
376.589
  0
LINE
  8
0
 10
-100.937
 20
376.589
 11
-100.314
 21
376.51
  0
LINE
  8
0
 10
-100.314
 20
376.51
 11
100.314
 21
376.51
  0
LINE
  8
0
 10
100.314
 20
376.51
 11
100.937
 21
376.589
  0
LINE
  8
0
 10
-99.6955
 20
378.893
 11
-100.083
 21
378.942
  0
LINE
  8
0
 10
-100.083
 20
378.942
 11
-100.462
 21
379.039
  0
LINE
  8
0
 10
-100.462
 20
379.039
 11
-100.825
 21
379.183
  0
LINE
  8
0
 10
-100.825
 20
379.183
 11
-101.168
 21
379.372
  0
LINE
  8
0
 10
-101.168
 20
379.372
 11
-101.484
 21
379.601
  0
LINE
  8
0
 10
-101.484
 20
379.601
 11
-101.769
 21
379.869
  0
LINE
  8
0
 10
-101.769
 20
379.869
 11
-102.018
 21
380.17
  0
LINE
  8
0
 10
-102.018
 20
380.17
 11
-102.228
 21
380.5
  0
LINE
  8
0
 10
-102.228
 20
380.5
 11
-102.394
 21
380.854
  0
LINE
  8
0
 10
-102.394
 20
380.854
 11
-102.515
 21
381.226
  0
LINE
  8
0
 10
-102.515
 20
381.226
 11
-102.588
 21
381.61
  0
LINE
  8
0
 10
-102.588
 20
381.61
 11
-102.613
 21
382
  0
LINE
  8
0
 10
-102.613
 20
382
 11
-102.613
 21
386
  0
LINE
  8
0
 10
-102.613
 20
386
 11
-102.588
 21
386.39
  0
LINE
  8
0
 10
-102.588
 20
386.39
 11
-102.515
 21
386.774
  0
LINE
  8
0
 10
-102.515
 20
386.774
 11
-102.394
 21
387.146
  0
LINE
  8
0
 10
-102.394
 20
387.146
 11
-102.228
 21
387.5
  0
LINE
  8
0
 10
-102.228
 20
387.5
 11
-102.018
 21
387.83
  0
LINE
  8
0
 10
-102.018
 20
387.83
 11
-101.769
 21
388.131
  0
LINE
  8
0
 10
-101.769
 20
388.131
 11
-101.484
 21
388.399
  0
LINE
  8
0
 10
-101.484
 20
388.399
 11
-101.168
 21
388.628
  0
LINE
  8
0
 10
-101.168
 20
388.628
 11
-100.825
 21
388.817
  0
LINE
  8
0
 10
-100.825
 20
388.817
 11
-100.462
 21
388.961
  0
LINE
  8
0
 10
-100.462
 20
388.961
 11
-100.083
 21
389.058
  0
LINE
  8
0
 10
-100.083
 20
389.058
 11
-99.6955
 21
389.107
  0
LINE
  8
0
 10
-99.6955
 20
389.107
 11
99.6955
 21
389.107
  0
LINE
  8
0
 10
99.6955
 20
389.107
 11
100.083
 21
389.058
  0
LINE
  8
0
 10
100.083
 20
389.058
 11
100.462
 21
388.961
  0
LINE
  8
0
 10
100.462
 20
388.961
 11
100.825
 21
388.817
  0
LINE
  8
0
 10
100.825
 20
388.817
 11
101.168
 21
388.628
  0
LINE
  8
0
 10
101.168
 20
388.628
 11
101.484
 21
388.399
  0
LINE
  8
0
 10
101.484
 20
388.399
 11
101.769
 21
388.131
  0
LINE
  8
0
 10
101.769
 20
388.131
 11
102.018
 21
387.83
  0
LINE
  8
0
 10
102.018
 20
387.83
 11
102.228
 21
387.5
  0
LINE
  8
0
 10
102.228
 20
387.5
 11
102.394
 21
387.146
  0
LINE
  8
0
 10
102.394
 20
387.146
 11
102.515
 21
386.774
  0
LINE
  8
0
 10
102.515
 20
386.774
 11
102.588
 21
386.39
  0
LINE
  8
0
 10
102.588
 20
386.39
 11
102.613
 21
386
  0
LINE
  8
0
 10
102.613
 20
386
 11
102.613
 21
382
  0
LINE
  8
0
 10
102.613
 20
382
 11
102.588
 21
381.61
  0
LINE
  8
0
 10
102.588
 20
381.61
 11
102.515
 21
381.226
  0
LINE
  8
0
 10
102.515
 20
381.226
 11
102.394
 21
380.854
  0
LINE
  8
0
 10
102.394
 20
380.854
 11
102.228
 21
380.5
  0
LINE
  8
0
 10
102.228
 20
380.5
 11
102.018
 21
380.17
  0
LINE
  8
0
 10
102.018
 20
380.17
 11
101.769
 21
379.869
  0
LINE
  8
0
 10
101.769
 20
379.869
 11
101.484
 21
379.601
  0
LINE
  8
0
 10
101.484
 20
379.601
 11
101.168
 21
379.372
  0
LINE
  8
0
 10
101.168
 20
379.372
 11
100.825
 21
379.183
  0
LINE
  8
0
 10
100.825
 20
379.183
 11
100.462
 21
379.039
  0
LINE
  8
0
 10
100.462
 20
379.039
 11
100.083
 21
378.942
  0
LINE
  8
0
 10
100.083
 20
378.942
 11
99.6955
 21
378.893
  0
LINE
  8
0
 10
99.6955
 20
378.893
 11
-99.6955
 21
378.893
  0
LINE
  8
0
 10
100.937
 20
352.589
 11
101.545
 21
352.745
  0
LINE
  8
0
 10
101.545
 20
352.745
 11
102.129
 21
352.976
  0
LINE
  8
0
 10
102.129
 20
352.976
 11
102.679
 21
353.278
  0
LINE
  8
0
 10
102.679
 20
353.278
 11
103.187
 21
353.647
  0
LINE
  8
0
 10
103.187
 20
353.647
 11
103.645
 21
354.077
  0
LINE
  8
0
 10
103.645
 20
354.077
 11
104.045
 21
354.561
  0
LINE
  8
0
 10
104.045
 20
354.561
 11
104.382
 21
355.091
  0
LINE
  8
0
 10
104.382
 20
355.091
 11
104.649
 21
355.659
  0
LINE
  8
0
 10
104.649
 20
355.659
 11
104.843
 21
356.257
  0
LINE
  8
0
 10
104.843
 20
356.257
 11
104.961
 21
356.873
  0
LINE
  8
0
 10
104.961
 20
356.873
 11
105
 21
357.5
  0
LINE
  8
0
 10
105
 20
357.5
 11
105
 21
362.5
  0
LINE
  8
0
 10
105
 20
362.5
 11
104.961
 21
363.127
  0
LINE
  8
0
 10
104.961
 20
363.127
 11
104.843
 21
363.743
  0
LINE
  8
0
 10
104.843
 20
363.743
 11
104.649
 21
364.341
  0
LINE
  8
0
 10
104.649
 20
364.341
 11
104.382
 21
364.909
  0
LINE
  8
0
 10
104.382
 20
364.909
 11
104.045
 21
365.439
  0
LINE
  8
0
 10
104.045
 20
365.439
 11
103.645
 21
365.923
  0
LINE
  8
0
 10
103.645
 20
365.923
 11
103.187
 21
366.353
  0
LINE
  8
0
 10
103.187
 20
366.353
 11
102.679
 21
366.722
  0
LINE
  8
0
 10
102.679
 20
366.722
 11
102.129
 21
367.024
  0
LINE
  8
0
 10
102.129
 20
367.024
 11
101.545
 21
367.255
  0
LINE
  8
0
 10
101.545
 20
367.255
 11
100.937
 21
367.411
  0
LINE
  8
0
 10
100.937
 20
367.411
 11
100.314
 21
367.49
  0
LINE
  8
0
 10
100.314
 20
367.49
 11
-100.314
 21
367.49
  0
LINE
  8
0
 10
-100.314
 20
367.49
 11
-100.937
 21
367.411
  0
LINE
  8
0
 10
-100.937
 20
367.411
 11
-101.545
 21
367.255
  0
LINE
  8
0
 10
-101.545
 20
367.255
 11
-102.129
 21
367.024
  0
LINE
  8
0
 10
-102.129
 20
367.024
 11
-102.679
 21
366.722
  0
LINE
  8
0
 10
-102.679
 20
366.722
 11
-103.187
 21
366.353
  0
LINE
  8
0
 10
-103.187
 20
366.353
 11
-103.645
 21
365.923
  0
LINE
  8
0
 10
-103.645
 20
365.923
 11
-104.045
 21
365.439
  0
LINE
  8
0
 10
-104.045
 20
365.439
 11
-104.382
 21
364.909
  0
LINE
  8
0
 10
-104.382
 20
364.909
 11
-104.649
 21
364.341
  0
LINE
  8
0
 10
-104.649
 20
364.341
 11
-104.843
 21
363.743
  0
LINE
  8
0
 10
-104.843
 20
363.743
 11
-104.961
 21
363.127
  0
LINE
  8
0
 10
-104.961
 20
363.127
 11
-105
 21
362.5
  0
LINE
  8
0
 10
-105
 20
362.5
 11
-105
 21
357.5
  0
LINE
  8
0
 10
-105
 20
357.5
 11
-104.961
 21
356.873
  0
LINE
  8
0
 10
-104.961
 20
356.873
 11
-104.843
 21
356.257
  0
LINE
  8
0
 10
-104.843
 20
356.257
 11
-104.649
 21
355.659
  0
LINE
  8
0
 10
-104.649
 20
355.659
 11
-104.382
 21
355.091
  0
LINE
  8
0
 10
-104.382
 20
355.091
 11
-104.045
 21
354.561
  0
LINE
  8
0
 10
-104.045
 20
354.561
 11
-103.645
 21
354.077
  0
LINE
  8
0
 10
-103.645
 20
354.077
 11
-103.187
 21
353.647
  0
LINE
  8
0
 10
-103.187
 20
353.647
 11
-102.679
 21
353.278
  0
LINE
  8
0
 10
-102.679
 20
353.278
 11
-102.129
 21
352.976
  0
LINE
  8
0
 10
-102.129
 20
352.976
 11
-101.545
 21
352.745
  0
LINE
  8
0
 10
-101.545
 20
352.745
 11
-100.937
 21
352.589
  0
LINE
  8
0
 10
-100.937
 20
352.589
 11
-100.314
 21
352.51
  0
LINE
  8
0
 10
-100.314
 20
352.51
 11
100.314
 21
352.51
  0
LINE
  8
0
 10
100.314
 20
352.51
 11
100.937
 21
352.589
  0
LINE
  8
0
 10
-97.6341
 20
357.869
 11
-97.9001
 21
357.903
  0
LINE
  8
0
 10
-97.9001
 20
357.903
 11
-98.1598
 21
357.969
  0
LINE
  8
0
 10
-98.1598
 20
357.969
 11
-98.4092
 21
358.068
  0
LINE
  8
0
 10
-98.4092
 20
358.068
 11
-98.6441
 21
358.197
  0
LINE
  8
0
 10
-98.6441
 20
358.197
 11
-98.8611
 21
358.355
  0
LINE
  8
0
 10
-98.8611
 20
358.355
 11
-99.0566
 21
358.538
  0
LINE
  8
0
 10
-99.0566
 20
358.538
 11
-99.2275
 21
358.745
  0
LINE
  8
0
 10
-99.2275
 20
358.745
 11
-99.3712
 21
358.971
  0
LINE
  8
0
 10
-99.3712
 20
358.971
 11
-99.4853
 21
359.214
  0
LINE
  8
0
 10
-99.4853
 20
359.214
 11
-99.5682
 21
359.469
  0
LINE
  8
0
 10
-99.5682
 20
359.469
 11
-99.6185
 21
359.732
  0
LINE
  8
0
 10
-99.6185
 20
359.732
 11
-99.6353
 21
360
  0
LINE
  8
0
 10
-99.6353
 20
360
 11
-99.6185
 21
360.268
  0
LINE
  8
0
 10
-99.6185
 20
360.268
 11
-99.5682
 21
360.531
  0
LINE
  8
0
 10
-99.5682
 20
360.531
 11
-99.4853
 21
360.786
  0
LINE
  8
0
 10
-99.4853
 20
360.786
 11
-99.3712
 21
361.029
  0
LINE
  8
0
 10
-99.3712
 20
361.029
 11
-99.2275
 21
361.255
  0
LINE
  8
0
 10
-99.2275
 20
361.255
 11
-99.0566
 21
361.462
  0
LINE
  8
0
 10
-99.0566
 20
361.462
 11
-98.8611
 21
361.645
  0
LINE
  8
0
 10
-98.8611
 20
361.645
 11
-98.6441
 21
361.803
  0
LINE
  8
0
 10
-98.6441
 20
361.803
 11
-98.4092
 21
361.932
  0
LINE
  8
0
 10
-98.4092
 20
361.932
 11
-98.1598
 21
362.031
  0
LINE
  8
0
 10
-98.1598
 20
362.031
 11
-97.9001
 21
362.097
  0
LINE
  8
0
 10
-97.9001
 20
362.097
 11
-97.6341
 21
362.131
  0
LINE
  8
0
 10
-97.6341
 20
362.131
 11
-97.3659
 21
362.131
  0
LINE
  8
0
 10
-97.3659
 20
362.131
 11
-97.0999
 21
362.097
  0
LINE
  8
0
 10
-97.0999
 20
362.097
 11
-96.8401
 21
362.031
  0
LINE
  8
0
 10
-96.8401
 20
362.031
 11
-96.5908
 21
361.932
  0
LINE
  8
0
 10
-96.5908
 20
361.932
 11
-96.3559
 21
361.803
  0
LINE
  8
0
 10
-96.3559
 20
361.803
 11
-96.1389
 21
361.645
  0
LINE
  8
0
 10
-96.1389
 20
361.645
 11
-95.9434
 21
361.462
  0
LINE
  8
0
 10
-95.9434
 20
361.462
 11
-95.7725
 21
361.255
  0
LINE
  8
0
 10
-95.7725
 20
361.255
 11
-95.6288
 21
361.029
  0
LINE
  8
0
 10
-95.6288
 20
361.029
 11
-95.5146
 21
360.786
  0
LINE
  8
0
 10
-95.5146
 20
360.786
 11
-95.4318
 21
360.531
  0
LINE
  8
0
 10
-95.4318
 20
360.531
 11
-95.3815
 21
360.268
  0
LINE
  8
0
 10
-95.3815
 20
360.268
 11
-95.3647
 21
360
  0
LINE
  8
0
 10
-95.3647
 20
360
 11
-95.3815
 21
359.732
  0
LINE
  8
0
 10
-95.3815
 20
359.732
 11
-95.4318
 21
359.469
  0
LINE
  8
0
 10
-95.4318
 20
359.469
 11
-95.5146
 21
359.214
  0
LINE
  8
0
 10
-95.5146
 20
359.214
 11
-95.6288
 21
358.971
  0
LINE
  8
0
 10
-95.6288
 20
358.971
 11
-95.7725
 21
358.745
  0
LINE
  8
0
 10
-95.7725
 20
358.745
 11
-95.9434
 21
358.538
  0
LINE
  8
0
 10
-95.9434
 20
358.538
 11
-96.1389
 21
358.355
  0
LINE
  8
0
 10
-96.1389
 20
358.355
 11
-96.3559
 21
358.197
  0
LINE
  8
0
 10
-96.3559
 20
358.197
 11
-96.5908
 21
358.068
  0
LINE
  8
0
 10
-96.5908
 20
358.068
 11
-96.8401
 21
357.969
  0
LINE
  8
0
 10
-96.8401
 20
357.969
 11
-97.0999
 21
357.903
  0
LINE
  8
0
 10
-97.0999
 20
357.903
 11
-97.3659
 21
357.869
  0
LINE
  8
0
 10
-97.3659
 20
357.869
 11
-97.6341
 21
357.869
  0
LINE
  8
0
 10
97.3659
 20
357.869
 11
97.0999
 21
357.903
  0
LINE
  8
0
 10
97.0999
 20
357.903
 11
96.8401
 21
357.969
  0
LINE
  8
0
 10
96.8401
 20
357.969
 11
96.5908
 21
358.068
  0
LINE
  8
0
 10
96.5908
 20
358.068
 11
96.3559
 21
358.197
  0
LINE
  8
0
 10
96.3559
 20
358.197
 11
96.1389
 21
358.355
  0
LINE
  8
0
 10
96.1389
 20
358.355
 11
95.9434
 21
358.538
  0
LINE
  8
0
 10
95.9434
 20
358.538
 11
95.7725
 21
358.745
  0
LINE
  8
0
 10
95.7725
 20
358.745
 11
95.6288
 21
358.971
  0
LINE
  8
0
 10
95.6288
 20
358.971
 11
95.5146
 21
359.214
  0
LINE
  8
0
 10
95.5146
 20
359.214
 11
95.4318
 21
359.469
  0
LINE
  8
0
 10
95.4318
 20
359.469
 11
95.3815
 21
359.732
  0
LINE
  8
0
 10
95.3815
 20
359.732
 11
95.3647
 21
360
  0
LINE
  8
0
 10
95.3647
 20
360
 11
95.3815
 21
360.268
  0
LINE
  8
0
 10
95.3815
 20
360.268
 11
95.4318
 21
360.531
  0
LINE
  8
0
 10
95.4318
 20
360.531
 11
95.5146
 21
360.786
  0
LINE
  8
0
 10
95.5146
 20
360.786
 11
95.6288
 21
361.029
  0
LINE
  8
0
 10
95.6288
 20
361.029
 11
95.7725
 21
361.255
  0
LINE
  8
0
 10
95.7725
 20
361.255
 11
95.9434
 21
361.462
  0
LINE
  8
0
 10
95.9434
 20
361.462
 11
96.1389
 21
361.645
  0
LINE
  8
0
 10
96.1389
 20
361.645
 11
96.3559
 21
361.803
  0
LINE
  8
0
 10
96.3559
 20
361.803
 11
96.5908
 21
361.932
  0
LINE
  8
0
 10
96.5908
 20
361.932
 11
96.8401
 21
362.031
  0
LINE
  8
0
 10
96.8401
 20
362.031
 11
97.0999
 21
362.097
  0
LINE
  8
0
 10
97.0999
 20
362.097
 11
97.3659
 21
362.131
  0
LINE
  8
0
 10
97.3659
 20
362.131
 11
97.6341
 21
362.131
  0
LINE
  8
0
 10
97.6341
 20
362.131
 11
97.9001
 21
362.097
  0
LINE
  8
0
 10
97.9001
 20
362.097
 11
98.1598
 21
362.031
  0
LINE
  8
0
 10
98.1598
 20
362.031
 11
98.4092
 21
361.932
  0
LINE
  8
0
 10
98.4092
 20
361.932
 11
98.6441
 21
361.803
  0
LINE
  8
0
 10
98.6441
 20
361.803
 11
98.8611
 21
361.645
  0
LINE
  8
0
 10
98.8611
 20
361.645
 11
99.0566
 21
361.462
  0
LINE
  8
0
 10
99.0566
 20
361.462
 11
99.2275
 21
361.255
  0
LINE
  8
0
 10
99.2275
 20
361.255
 11
99.3712
 21
361.029
  0
LINE
  8
0
 10
99.3712
 20
361.029
 11
99.4853
 21
360.786
  0
LINE
  8
0
 10
99.4853
 20
360.786
 11
99.5682
 21
360.531
  0
LINE
  8
0
 10
99.5682
 20
360.531
 11
99.6185
 21
360.268
  0
LINE
  8
0
 10
99.6185
 20
360.268
 11
99.6353
 21
360
  0
LINE
  8
0
 10
99.6353
 20
360
 11
99.6185
 21
359.732
  0
LINE
  8
0
 10
99.6185
 20
359.732
 11
99.5682
 21
359.469
  0
LINE
  8
0
 10
99.5682
 20
359.469
 11
99.4853
 21
359.214
  0
LINE
  8
0
 10
99.4853
 20
359.214
 11
99.3712
 21
358.971
  0
LINE
  8
0
 10
99.3712
 20
358.971
 11
99.2275
 21
358.745
  0
LINE
  8
0
 10
99.2275
 20
358.745
 11
99.0566
 21
358.538
  0
LINE
  8
0
 10
99.0566
 20
358.538
 11
98.8611
 21
358.355
  0
LINE
  8
0
 10
98.8611
 20
358.355
 11
98.6441
 21
358.197
  0
LINE
  8
0
 10
98.6441
 20
358.197
 11
98.4092
 21
358.068
  0
LINE
  8
0
 10
98.4092
 20
358.068
 11
98.1598
 21
357.969
  0
LINE
  8
0
 10
98.1598
 20
357.969
 11
97.9001
 21
357.903
  0
LINE
  8
0
 10
97.9001
 20
357.903
 11
97.6341
 21
357.869
  0
LINE
  8
0
 10
97.6341
 20
357.869
 11
97.3659
 21
357.869
  0
ENDSEC
  0
SECTION
  2
OBJECTS
  0
DICTIONARY
  0
ENDSEC
  0
EOF
