<?xml version="1.0" standalone="no"?>
<!DOCTYPE svg PUBLIC "-//W3C//DTD SVG 1.1//EN" "http://www.w3.org/Graphics/SVG/1.1/DTD/svg11.dtd">
<svg width="74mm" height="75mm" viewBox="-37 -45 74 75" xmlns="http://www.w3.org/2000/svg" version="1.1">
<title>OpenSCAD Model</title>
<path d="
M 32.9369,29.4114 L 33.5451,29.2553 L 34.1289,29.0241 L 34.6791,28.7216 L 35.1871,28.3526 L 35.6448,27.9227
 L 36.0451,27.4389 L 36.3815,26.9088 L 36.6489,26.3406 L 36.8429,25.7434 L 36.9606,25.1267 L 37,24.5
 L 37,-9.92 L 31.146,-9.92 L 31.146,-17.54 L 37,-17.54 L 37,-28.503 L 36.9058,-28.503
 L 36.7189,-28.5266 L 36.5365,-28.5734 L 36.3613,-28.6427 L 36.1963,-28.7335 L 36.0439,-28.8442 L 35.9065,-28.9732
 L 35.7865,-29.1183 L 35.6855,-29.2774 L 35.6053,-29.4478 L 35.5471,-29.627 L 35.5118,-29.812 L 35.5,-30
 L 35.5118,-30.188 L 35.5471,-30.373 L 35.6053,-30.5522 L 35.6855,-30.7226 L 35.7865,-30.8817 L 35.9065,-31.0268
 L 36.0439,-31.1558 L 36.1963,-31.2665 L 36.3613,-31.3572 L 36.5365,-31.4266 L 36.7189,-31.4734 L 36.9058,-31.497
 L 37,-31.497 L 37,-39.5 L 36.9606,-40.1267 L 36.8429,-40.7434 L 36.6489,-41.3406 L 36.3815,-41.9088
 L 36.0451,-42.4389 L 35.6448,-42.9227 L 35.1871,-43.3526 L 34.6791,-43.7216 L 34.1289,-44.0241 L 33.5451,-44.2553
 L 32.9369,-44.4114 L 32.3139,-44.4901 L -32.3139,-44.4901 L -32.9369,-44.4114 L -33.5451,-44.2553 L -34.1289,-44.0241
 L -34.6791,-43.7216 L -35.1871,-43.3526 L -35.6448,-42.9227 L -36.0451,-42.4389 L -36.3815,-41.9088 L -36.6489,-41.3406
 L -36.8429,-40.7434 L -36.9606,-40.1267 L -37,-39.5 L -37,24.5 L -36.9606,25.1267 L -36.8429,25.7434
 L -36.6489,26.3406 L -36.3815,26.9088 L -36.0451,27.4389 L -35.6448,27.9227 L -35.1871,28.3526 L -34.6791,28.7216
 L -34.1289,29.0241 L -33.5451,29.2553 L -32.9369,29.4114 L -32.3139,29.4901 L 32.3139,29.4901 z
M 29.8116,-34.5059 L 29.4379,-34.5531 L 29.0729,-34.6468 L 28.7227,-34.7855 L 28.3925,-34.967 L 28.0877,-35.1885
 L 27.8131,-35.4464 L 27.5729,-35.7366 L 27.3711,-36.0547 L 27.2107,-36.3956 L 27.0942,-36.7539 L 27.0237,-37.124
 L 27,-37.5 L 27.0237,-37.876 L 27.0942,-38.2461 L 27.2107,-38.6044 L 27.3711,-38.9453 L 27.5729,-39.2634
 L 27.8131,-39.5536 L 28.0877,-39.8115 L 28.3925,-40.033 L 28.7227,-40.2145 L 29.0729,-40.3532 L 29.4379,-40.4469
 L 29.8116,-40.4941 L 30.1884,-40.4941 L 30.5621,-40.4469 L 30.927,-40.3532 L 31.2773,-40.2145 L 31.6075,-40.033
 L 31.9123,-39.8115 L 32.1869,-39.5536 L 32.427,-39.2634 L 32.6289,-38.9453 L 32.7893,-38.6044 L 32.9057,-38.2461
 L 32.9763,-37.876 L 33,-37.5 L 32.9763,-37.124 L 32.9057,-36.7539 L 32.7893,-36.3956 L 32.6289,-36.0547
 L 32.427,-35.7366 L 32.1869,-35.4464 L 31.9123,-35.1885 L 31.6075,-34.967 L 31.2773,-34.7855 L 30.927,-34.6468
 L 30.5621,-34.5531 L 30.1884,-34.5059 z
M -30.1884,-34.5059 L -30.5621,-34.5531 L -30.927,-34.6468 L -31.2773,-34.7855 L -31.6075,-34.967 L -31.9123,-35.1885
 L -32.1869,-35.4464 L -32.427,-35.7366 L -32.6289,-36.0547 L -32.7893,-36.3956 L -32.9057,-36.7539 L -32.9763,-37.124
 L -33,-37.5 L -32.9763,-37.876 L -32.9057,-38.2461 L -32.7893,-38.6044 L -32.6289,-38.9453 L -32.427,-39.2634
 L -32.1869,-39.5536 L -31.9123,-39.8115 L -31.6075,-40.033 L -31.2773,-40.2145 L -30.927,-40.3532 L -30.5621,-40.4469
 L -30.1884,-40.4941 L -29.8116,-40.4941 L -29.4379,-40.4469 L -29.0729,-40.3532 L -28.7227,-40.2145 L -28.3925,-40.033
 L -28.0877,-39.8115 L -27.8131,-39.5536 L -27.5729,-39.2634 L -27.3711,-38.9453 L -27.2107,-38.6044 L -27.0942,-38.2461
 L -27.0237,-37.876 L -27,-37.5 L -27.0237,-37.124 L -27.0942,-36.7539 L -27.2107,-36.3956 L -27.3711,-36.0547
 L -27.5729,-35.7366 L -27.8131,-35.4464 L -28.0877,-35.1885 L -28.3925,-34.967 L -28.7227,-34.7855 L -29.0729,-34.6468
 L -29.4379,-34.5531 L -29.8116,-34.5059 z
M 14.8116,-34.5059 L 14.4379,-34.5531 L 14.0729,-34.6468 L 13.7227,-34.7855 L 13.3925,-34.967 L 13.0877,-35.1885
 L 12.8131,-35.4464 L 12.5729,-35.7366 L 12.3711,-36.0547 L 12.2107,-36.3956 L 12.0942,-36.7539 L 12.0237,-37.124
 L 12,-37.5 L 12.0237,-37.876 L 12.0942,-38.2461 L 12.2107,-38.6044 L 12.3711,-38.9453 L 12.5729,-39.2634
 L 12.8131,-39.5536 L 13.0877,-39.8115 L 13.3925,-40.033 L 13.7227,-40.2145 L 14.0729,-40.3532 L 14.4379,-40.4469
 L 14.8116,-40.4941 L 15.1884,-40.4941 L 15.5621,-40.4469 L 15.927,-40.3532 L 16.2773,-40.2145 L 16.6075,-40.033
 L 16.9123,-39.8115 L 17.1869,-39.5536 L 17.427,-39.2634 L 17.6289,-38.9453 L 17.7893,-38.6044 L 17.9057,-38.2461
 L 17.9763,-37.876 L 18,-37.5 L 17.9763,-37.124 L 17.9057,-36.7539 L 17.7893,-36.3956 L 17.6289,-36.0547
 L 17.427,-35.7366 L 17.1869,-35.4464 L 16.9123,-35.1885 L 16.6075,-34.967 L 16.2773,-34.7855 L 15.927,-34.6468
 L 15.5621,-34.5531 L 15.1884,-34.5059 z
M -15.1884,-34.5059 L -15.5621,-34.5531 L -15.927,-34.6468 L -16.2773,-34.7855 L -16.6075,-34.967 L -16.9123,-35.1885
 L -17.1869,-35.4464 L -17.427,-35.7366 L -17.6289,-36.0547 L -17.7893,-36.3956 L -17.9057,-36.7539 L -17.9763,-37.124
 L -18,-37.5 L -17.9763,-37.876 L -17.9057,-38.2461 L -17.7893,-38.6044 L -17.6289,-38.9453 L -17.427,-39.2634
 L -17.1869,-39.5536 L -16.9123,-39.8115 L -16.6075,-40.033 L -16.2773,-40.2145 L -15.927,-40.3532 L -15.5621,-40.4469
 L -15.1884,-40.4941 L -14.8116,-40.4941 L -14.4379,-40.4469 L -14.0729,-40.3532 L -13.7227,-40.2145 L -13.3925,-40.033
 L -13.0877,-39.8115 L -12.8131,-39.5536 L -12.5729,-39.2634 L -12.3711,-38.9453 L -12.2107,-38.6044 L -12.0942,-38.2461
 L -12.0237,-37.876 L -12,-37.5 L -12.0237,-37.124 L -12.0942,-36.7539 L -12.2107,-36.3956 L -12.3711,-36.0547
 L -12.5729,-35.7366 L -12.8131,-35.4464 L -13.0877,-35.1885 L -13.3925,-34.967 L -13.7227,-34.7855 L -14.0729,-34.6468
 L -14.4379,-34.5531 L -14.8116,-34.5059 z
M -2.90575,-38.2461 L -2.78932,-38.6044 L -2.62891,-38.9453 L -2.42705,-39.2634 L -2.1869,-39.5536 L -1.91226,-39.8115
 L -1.60747,-40.033 L -1.27733,-40.2145 L -0.927048,-40.3532 L -0.562134,-40.4469 L -0.18837,-40.4941 L 0.18837,-40.4941
 L 0.562134,-40.4469 L 0.927048,-40.3532 L 1.27733,-40.2145 L 1.60747,-40.033 L 1.91226,-39.8115 L 2.1869,-39.5536
 L 2.42705,-39.2634 L 2.62891,-38.9453 L 2.78932,-38.6044 L 2.90575,-38.2461 L 2.97633,-37.876 L 3,-37.5
 L 2.97633,-37.124 L 2.90575,-36.7539 L 2.78932,-36.3956 L 2.62891,-36.0547 L 2.42705,-35.7366 L 2.1869,-35.4464
 L 1.91226,-35.1885 L 1.60747,-34.967 L 1.27733,-34.7855 L 0.927048,-34.6468 L 0.562134,-34.5531 L 0.18837,-34.5059
 L -0.18837,-34.5059 L -0.562134,-34.5531 L -0.927048,-34.6468 L -1.27733,-34.7855 L -1.60747,-34.967 L -1.91226,-35.1885
 L -2.1869,-35.4464 L -2.42705,-35.7366 L -2.62891,-36.0547 L -2.78932,-36.3956 L -2.90575,-36.7539 L -2.97633,-37.124
 L -3,-37.5 L -2.97633,-37.876 z
M 7.40581,-36.003 L 7.21892,-36.0266 L 7.03647,-36.0734 L 6.86133,-36.1428 L 6.69626,-36.2335 L 6.54385,-36.3442
 L 6.40654,-36.4732 L 6.28647,-36.6183 L 6.18553,-36.7774 L 6.10533,-36.9478 L 6.04712,-37.127 L 6.01183,-37.312
 L 6,-37.5 L 6.01183,-37.688 L 6.04712,-37.873 L 6.10533,-38.0522 L 6.18553,-38.2226 L 6.28647,-38.3817
 L 6.40654,-38.5268 L 6.54385,-38.6558 L 6.69626,-38.7665 L 6.86133,-38.8572 L 7.03647,-38.9266 L 7.21892,-38.9734
 L 7.40581,-38.997 L 7.59418,-38.997 L 7.78107,-38.9734 L 7.96352,-38.9266 L 8.13866,-38.8572 L 8.30373,-38.7665
 L 8.45613,-38.6558 L 8.59344,-38.5268 L 8.71352,-38.3817 L 8.81445,-38.2226 L 8.89465,-38.0522 L 8.95287,-37.873
 L 8.98816,-37.688 L 9,-37.5 L 8.98816,-37.312 L 8.95287,-37.127 L 8.89465,-36.9478 L 8.81445,-36.7774
 L 8.71352,-36.6183 L 8.59344,-36.4732 L 8.45613,-36.3442 L 8.30373,-36.2335 L 8.13866,-36.1428 L 7.96352,-36.0734
 L 7.78107,-36.0266 L 7.59418,-36.003 z
M 22.4058,-36.003 L 22.2189,-36.0266 L 22.0365,-36.0734 L 21.8613,-36.1428 L 21.6963,-36.2335 L 21.5439,-36.3442
 L 21.4065,-36.4732 L 21.2865,-36.6183 L 21.1855,-36.7774 L 21.1053,-36.9478 L 21.0471,-37.127 L 21.0118,-37.312
 L 21,-37.5 L 21.0118,-37.688 L 21.0471,-37.873 L 21.1053,-38.0522 L 21.1855,-38.2226 L 21.2865,-38.3817
 L 21.4065,-38.5268 L 21.5439,-38.6558 L 21.6963,-38.7665 L 21.8613,-38.8572 L 22.0365,-38.9266 L 22.2189,-38.9734
 L 22.4058,-38.997 L 22.5942,-38.997 L 22.7811,-38.9734 L 22.9635,-38.9266 L 23.1387,-38.8572 L 23.3037,-38.7665
 L 23.4561,-38.6558 L 23.5934,-38.5268 L 23.7135,-38.3817 L 23.8145,-38.2226 L 23.8947,-38.0522 L 23.9529,-37.873
 L 23.9882,-37.688 L 24,-37.5 L 23.9882,-37.312 L 23.9529,-37.127 L 23.8947,-36.9478 L 23.8145,-36.7774
 L 23.7135,-36.6183 L 23.5934,-36.4732 L 23.4561,-36.3442 L 23.3037,-36.2335 L 23.1387,-36.1428 L 22.9635,-36.0734
 L 22.7811,-36.0266 L 22.5942,-36.003 z
M -22.5942,-36.003 L -22.7811,-36.0266 L -22.9635,-36.0734 L -23.1387,-36.1428 L -23.3037,-36.2335 L -23.4561,-36.3442
 L -23.5934,-36.4732 L -23.7135,-36.6183 L -23.8145,-36.7774 L -23.8947,-36.9478 L -23.9529,-37.127 L -23.9882,-37.312
 L -24,-37.5 L -23.9882,-37.688 L -23.9529,-37.873 L -23.8947,-38.0522 L -23.8145,-38.2226 L -23.7135,-38.3817
 L -23.5934,-38.5268 L -23.4561,-38.6558 L -23.3037,-38.7665 L -23.1387,-38.8572 L -22.9635,-38.9266 L -22.7811,-38.9734
 L -22.5942,-38.997 L -22.4058,-38.997 L -22.2189,-38.9734 L -22.0365,-38.9266 L -21.8613,-38.8572 L -21.6963,-38.7665
 L -21.5439,-38.6558 L -21.4065,-38.5268 L -21.2865,-38.3817 L -21.1855,-38.2226 L -21.1053,-38.0522 L -21.0471,-37.873
 L -21.0118,-37.688 L -21,-37.5 L -21.0118,-37.312 L -21.0471,-37.127 L -21.1053,-36.9478 L -21.1855,-36.7774
 L -21.2865,-36.6183 L -21.4065,-36.4732 L -21.5439,-36.3442 L -21.6963,-36.2335 L -21.8613,-36.1428 L -22.0365,-36.0734
 L -22.2189,-36.0266 L -22.4058,-36.003 z
M -30.0942,-28.503 L -30.2811,-28.5266 L -30.4635,-28.5734 L -30.6387,-28.6427 L -30.8037,-28.7335 L -30.9561,-28.8442
 L -31.0934,-28.9732 L -31.2135,-29.1183 L -31.3145,-29.2774 L -31.3947,-29.4478 L -31.4529,-29.627 L -31.4882,-29.812
 L -31.5,-30 L -31.4882,-30.188 L -31.4529,-30.373 L -31.3947,-30.5522 L -31.3145,-30.7226 L -31.2135,-30.8817
 L -31.0934,-31.0268 L -30.9561,-31.1558 L -30.8037,-31.2665 L -30.6387,-31.3572 L -30.4635,-31.4266 L -30.2811,-31.4734
 L -30.0942,-31.497 L -29.9058,-31.497 L -29.7189,-31.4734 L -29.5365,-31.4266 L -29.3613,-31.3572 L -29.1963,-31.2665
 L -29.0439,-31.1558 L -28.9065,-31.0268 L -28.7865,-30.8817 L -28.6855,-30.7226 L -28.6053,-30.5522 L -28.5471,-30.373
 L -28.5118,-30.188 L -28.5,-30 L -28.5118,-29.812 L -28.5471,-29.627 L -28.6053,-29.4478 L -28.6855,-29.2774
 L -28.7865,-29.1183 L -28.9065,-28.9732 L -29.0439,-28.8442 L -29.1963,-28.7335 L -29.3613,-28.6427 L -29.5365,-28.5734
 L -29.7189,-28.5266 L -29.9058,-28.503 z
M 5.45599,-10 L 5.45599,-19 L -3,-19 L -3,-29 L 27,-29 L 27,-19
 L 12.456,-19 L 12.456,-14 L 14.433,-14 L 14.433,-10.92 L 12.456,-10.92 L 12.456,-10
 z
M -30.1884,-19.5059 L -30.5621,-19.5531 L -30.927,-19.6468 L -31.2773,-19.7855 L -31.6075,-19.967 L -31.9123,-20.1884
 L -32.1869,-20.4464 L -32.427,-20.7366 L -32.6289,-21.0547 L -32.7893,-21.3956 L -32.9057,-21.7539 L -32.9763,-22.124
 L -33,-22.5 L -32.9763,-22.876 L -32.9057,-23.2461 L -32.7893,-23.6044 L -32.6289,-23.9453 L -32.427,-24.2634
 L -32.1869,-24.5536 L -31.9123,-24.8115 L -31.6075,-25.033 L -31.2773,-25.2145 L -30.927,-25.3532 L -30.5621,-25.4469
 L -30.1884,-25.4941 L -29.8116,-25.4941 L -29.4379,-25.4469 L -29.0729,-25.3532 L -28.7227,-25.2145 L -28.3925,-25.033
 L -28.0877,-24.8115 L -27.8131,-24.5536 L -27.5729,-24.2634 L -27.3711,-23.9453 L -27.2107,-23.6044 L -27.0942,-23.2461
 L -27.0237,-22.876 L -27,-22.5 L -27.0237,-22.124 L -27.0942,-21.7539 L -27.2107,-21.3956 L -27.3711,-21.0547
 L -27.5729,-20.7366 L -27.8131,-20.4464 L -28.0877,-20.1884 L -28.3925,-19.967 L -28.7227,-19.7855 L -29.0729,-19.6468
 L -29.4379,-19.5531 L -29.8116,-19.5059 z
M 28.46,-7.37999 L 28.46,-9.92 L 14.462,-9.92 L 14.462,-15 L 28.46,-15 L 28.46,-20.08
 L 31,-20.08 L 31,-7.37999 z
M -30.0942,-13.5029 L -30.2811,-13.5266 L -30.4635,-13.5734 L -30.6387,-13.6427 L -30.8037,-13.7335 L -30.9561,-13.8442
 L -31.0934,-13.9732 L -31.2135,-14.1183 L -31.3145,-14.2774 L -31.3947,-14.4478 L -31.4529,-14.627 L -31.4882,-14.812
 L -31.5,-15 L -31.4882,-15.188 L -31.4529,-15.373 L -31.3947,-15.5522 L -31.3145,-15.7226 L -31.2135,-15.8817
 L -31.0934,-16.0268 L -30.9561,-16.1558 L -30.8037,-16.2665 L -30.6387,-16.3572 L -30.4635,-16.4266 L -30.2811,-16.4734
 L -30.0942,-16.497 L -29.9058,-16.497 L -29.7189,-16.4734 L -29.5365,-16.4266 L -29.3613,-16.3572 L -29.1963,-16.2665
 L -29.0439,-16.1558 L -28.9065,-16.0268 L -28.7865,-15.8817 L -28.6855,-15.7226 L -28.6053,-15.5522 L -28.5471,-15.373
 L -28.5118,-15.188 L -28.5,-15 L -28.5118,-14.812 L -28.5471,-14.627 L -28.6053,-14.4478 L -28.6855,-14.2774
 L -28.7865,-14.1183 L -28.9065,-13.9732 L -29.0439,-13.8442 L -29.1963,-13.7335 L -29.3613,-13.6427 L -29.5365,-13.5734
 L -29.7189,-13.5266 L -29.9058,-13.5029 z
M -30.1884,-4.50591 L -30.5621,-4.55313 L -30.927,-4.64682 L -31.2773,-4.78551 L -31.6075,-4.96701 L -31.9123,-5.18845
 L -32.1869,-5.44635 L -32.427,-5.73663 L -32.6289,-6.05473 L -32.7893,-6.39561 L -32.9057,-6.75392 L -32.9763,-7.12399
 L -33,-7.5 L -32.9763,-7.87599 L -32.9057,-8.24606 L -32.7893,-8.60437 L -32.6289,-8.94525 L -32.427,-9.26335
 L -32.1869,-9.55363 L -31.9123,-9.81154 L -31.6075,-10.033 L -31.2773,-10.2145 L -30.927,-10.3532 L -30.5621,-10.4469
 L -30.1884,-10.4941 L -29.8116,-10.4941 L -29.4379,-10.4469 L -29.0729,-10.3532 L -28.7227,-10.2145 L -28.3925,-10.033
 L -28.0877,-9.81154 L -27.8131,-9.55363 L -27.5729,-9.26335 L -27.3711,-8.94525 L -27.2107,-8.60437 L -27.0942,-8.24606
 L -27.0237,-7.87599 L -27,-7.5 L -27.0237,-7.12399 L -27.0942,-6.75392 L -27.2107,-6.39561 L -27.3711,-6.05473
 L -27.5729,-5.73663 L -27.8131,-5.44635 L -28.0877,-5.18845 L -28.3925,-4.96701 L -28.7227,-4.78551 L -29.0729,-4.64682
 L -29.4379,-4.55313 L -29.8116,-4.50591 z
M 13.387,1.79645 L 13.1627,1.76811 L 12.9438,1.7119 L 12.7336,1.62868 L 12.5355,1.51978 L 12.3526,1.38692
 L 12.1879,1.23218 L 12.0438,1.058 L 11.9226,0.867142 L 11.8264,0.662613 L 11.7565,0.447632 L 11.7142,0.225586
 L 11.7,-0 L 11.7142,-0.225586 L 11.7565,-0.447632 L 11.8264,-0.662613 L 11.9226,-0.867142 L 12.0438,-1.058
 L 12.1879,-1.23218 L 12.3526,-1.38692 L 12.5355,-1.51978 L 12.7336,-1.62868 L 12.9438,-1.7119 L 13.1627,-1.76811
 L 13.387,-1.79645 L 13.613,-1.79645 L 13.8373,-1.76811 L 14.0562,-1.7119 L 14.2664,-1.62868 L 14.4645,-1.51978
 L 14.6474,-1.38692 L 14.8121,-1.23218 L 14.9562,-1.058 L 15.0773,-0.867142 L 15.1736,-0.662613 L 15.2434,-0.447632
 L 15.2858,-0.225586 L 15.3,-0 L 15.2858,0.225586 L 15.2434,0.447632 L 15.1736,0.662613 L 15.0773,0.867142
 L 14.9562,1.058 L 14.8121,1.23218 L 14.6474,1.38692 L 14.4645,1.51978 L 14.2664,1.62868 L 14.0562,1.7119
 L 13.8373,1.76811 L 13.613,1.79645 z
M -16.613,1.79645 L -16.8373,1.76811 L -17.0562,1.7119 L -17.2664,1.62868 L -17.4645,1.51978 L -17.6474,1.38692
 L -17.8121,1.23218 L -17.9562,1.058 L -18.0773,0.867142 L -18.1736,0.662613 L -18.2434,0.447632 L -18.2858,0.225586
 L -18.3,-0 L -18.2858,-0.225586 L -18.2434,-0.447632 L -18.1736,-0.662613 L -18.0773,-0.867142 L -17.9562,-1.058
 L -17.8121,-1.23218 L -17.6474,-1.38692 L -17.4645,-1.51978 L -17.2664,-1.62868 L -17.0562,-1.7119 L -16.8373,-1.76811
 L -16.613,-1.79645 L -16.387,-1.79645 L -16.1627,-1.76811 L -15.9438,-1.7119 L -15.7336,-1.62868 L -15.5355,-1.51978
 L -15.3526,-1.38692 L -15.1879,-1.23218 L -15.0438,-1.058 L -14.9226,-0.867142 L -14.8264,-0.662613 L -14.7565,-0.447632
 L -14.7142,-0.225586 L -14.7,-0 L -14.7142,0.225586 L -14.7565,0.447632 L -14.8264,0.662613 L -14.9226,0.867142
 L -15.0438,1.058 L -15.1879,1.23218 L -15.3526,1.38692 L -15.5355,1.51978 L -15.7336,1.62868 L -15.9438,1.7119
 L -16.1627,1.76811 L -16.387,1.79645 z
M -1.61302,1.79645 L -1.83728,1.76811 L -2.05623,1.7119 L -2.26639,1.62868 L -2.46448,1.51978 L -2.64735,1.38692
 L -2.81213,1.23218 L -2.95622,1.058 L -3.07735,0.867142 L -3.17358,0.662613 L -3.24344,0.447632 L -3.2858,0.225586
 L -3.29999,-0 L -3.2858,-0.225586 L -3.24344,-0.447632 L -3.17358,-0.662613 L -3.07735,-0.867142 L -2.95622,-1.058
 L -2.81213,-1.23218 L -2.64735,-1.38692 L -2.46448,-1.51978 L -2.26639,-1.62868 L -2.05623,-1.7119 L -1.83728,-1.76811
 L -1.61302,-1.79645 L -1.38696,-1.79645 L -1.1627,-1.76811 L -0.943756,-1.7119 L -0.733597,-1.62868 L -0.535507,-1.51978
 L -0.352631,-1.38692 L -0.187851,-1.23218 L -0.0437622,-1.058 L 0.0773468,-0.867142 L 0.173584,-0.662613 L 0.243439,-0.447632
 L 0.285797,-0.225586 L 0.299988,-0 L 0.285797,0.225586 L 0.243439,0.447632 L 0.173584,0.662613 L 0.0773468,0.867142
 L -0.0437622,1.058 L -0.187851,1.23218 L -0.352631,1.38692 L -0.535507,1.51978 L -0.733597,1.62868 L -0.943756,1.7119
 L -1.1627,1.76811 L -1.38696,1.79645 z
M 28.387,1.79645 L 28.1627,1.76811 L 27.9438,1.7119 L 27.7336,1.62868 L 27.5355,1.51978 L 27.3526,1.38692
 L 27.1879,1.23218 L 27.0438,1.058 L 26.9226,0.867142 L 26.8264,0.662613 L 26.7565,0.447632 L 26.7142,0.225586
 L 26.7,-0 L 26.7142,-0.225586 L 26.7565,-0.447632 L 26.8264,-0.662613 L 26.9226,-0.867142 L 27.0438,-1.058
 L 27.1879,-1.23218 L 27.3526,-1.38692 L 27.5355,-1.51978 L 27.7336,-1.62868 L 27.9438,-1.7119 L 28.1627,-1.76811
 L 28.387,-1.79645 L 28.613,-1.79645 L 28.8373,-1.76811 L 29.0562,-1.7119 L 29.2664,-1.62868 L 29.4645,-1.51978
 L 29.6474,-1.38692 L 29.8121,-1.23218 L 29.9562,-1.058 L 30.0773,-0.867142 L 30.1736,-0.662613 L 30.2434,-0.447632
 L 30.2858,-0.225586 L 30.3,-0 L 30.2858,0.225586 L 30.2434,0.447632 L 30.1736,0.662613 L 30.0773,0.867142
 L 29.9562,1.058 L 29.8121,1.23218 L 29.6474,1.38692 L 29.4645,1.51978 L 29.2664,1.62868 L 29.0562,1.7119
 L 28.8373,1.76811 L 28.613,1.79645 z
M -30.0942,1.49704 L -30.2811,1.47342 L -30.4635,1.42657 L -30.6387,1.35724 L -30.8037,1.26648 L -30.9561,1.15576
 L -31.0934,1.02681 L -31.2135,0.881668 L -31.3145,0.722626 L -31.3947,0.552185 L -31.4529,0.373032 L -31.4882,0.187988
 L -31.5,-0 L -31.4882,-0.187988 L -31.4529,-0.373032 L -31.3947,-0.552185 L -31.3145,-0.722626 L -31.2135,-0.881668
 L -31.0934,-1.02681 L -30.9561,-1.15576 L -30.8037,-1.26648 L -30.6387,-1.35724 L -30.4635,-1.42657 L -30.2811,-1.47342
 L -30.0942,-1.49704 L -29.9058,-1.49704 L -29.7189,-1.47342 L -29.5365,-1.42657 L -29.3613,-1.35724 L -29.1963,-1.26648
 L -29.0439,-1.15576 L -28.9065,-1.02681 L -28.7865,-0.881668 L -28.6855,-0.722626 L -28.6053,-0.552185 L -28.5471,-0.373032
 L -28.5118,-0.187988 L -28.5,-0 L -28.5118,0.187988 L -28.5471,0.373032 L -28.6053,0.552185 L -28.6855,0.722626
 L -28.7865,0.881668 L -28.9065,1.02681 L -29.0439,1.15576 L -29.1963,1.26648 L -29.3613,1.35724 L -29.5365,1.42657
 L -29.7189,1.47342 L -29.9058,1.49704 z
M -30.1884,10.4941 L -30.5621,10.4469 L -30.927,10.3532 L -31.2773,10.2145 L -31.6075,10.033 L -31.9123,9.81154
 L -32.1869,9.55363 L -32.427,9.26335 L -32.6289,8.94525 L -32.7893,8.60437 L -32.9057,8.24606 L -32.9763,7.87599
 L -33,7.5 L -32.9763,7.12399 L -32.9057,6.75392 L -32.7893,6.39561 L -32.6289,6.05473 L -32.427,5.73663
 L -32.1869,5.44635 L -31.9123,5.18845 L -31.6075,4.96701 L -31.2773,4.78551 L -30.927,4.64682 L -30.5621,4.55313
 L -30.1884,4.50591 L -29.8116,4.50591 L -29.4379,4.55313 L -29.0729,4.64682 L -28.7227,4.78551 L -28.3925,4.96701
 L -28.0877,5.18845 L -27.8131,5.44635 L -27.5729,5.73663 L -27.3711,6.05473 L -27.2107,6.39561 L -27.0942,6.75392
 L -27.0237,7.12399 L -27,7.5 L -27.0237,7.87599 L -27.0942,8.24606 L -27.2107,8.60437 L -27.3711,8.94525
 L -27.5729,9.26335 L -27.8131,9.55363 L -28.0877,9.81154 L -28.3925,10.033 L -28.7227,10.2145 L -29.0729,10.3532
 L -29.4379,10.4469 L -29.8116,10.4941 z
M -30.0942,16.497 L -30.2811,16.4734 L -30.4635,16.4266 L -30.6387,16.3572 L -30.8037,16.2665 L -30.9561,16.1558
 L -31.0934,16.0268 L -31.2135,15.8817 L -31.3145,15.7226 L -31.3947,15.5522 L -31.4529,15.373 L -31.4882,15.188
 L -31.5,15 L -31.4882,14.812 L -31.4529,14.627 L -31.3947,14.4478 L -31.3145,14.2774 L -31.2135,14.1183
 L -31.0934,13.9732 L -30.9561,13.8442 L -30.8037,13.7335 L -30.6387,13.6427 L -30.4635,13.5734 L -30.2811,13.5266
 L -30.0942,13.5029 L -29.9058,13.5029 L -29.7189,13.5266 L -29.5365,13.5734 L -29.3613,13.6427 L -29.1963,13.7335
 L -29.0439,13.8442 L -28.9065,13.9732 L -28.7865,14.1183 L -28.6855,14.2774 L -28.6053,14.4478 L -28.5471,14.627
 L -28.5118,14.812 L -28.5,15 L -28.5118,15.188 L -28.5471,15.373 L -28.6053,15.5522 L -28.6855,15.7226
 L -28.7865,15.8817 L -28.9065,16.0268 L -29.0439,16.1558 L -29.1963,16.2665 L -29.3613,16.3572 L -29.5365,16.4266
 L -29.7189,16.4734 L -29.9058,16.497 z
M -30.1884,25.4941 L -30.5621,25.4469 L -30.927,25.3532 L -31.2773,25.2145 L -31.6075,25.033 L -31.9123,24.8115
 L -32.1869,24.5536 L -32.427,24.2634 L -32.6289,23.9453 L -32.7893,23.6044 L -32.9057,23.2461 L -32.9763,22.876
 L -33,22.5 L -32.9763,22.124 L -32.9057,21.7539 L -32.7893,21.3956 L -32.6289,21.0547 L -32.427,20.7366
 L -32.1869,20.4464 L -31.9123,20.1884 L -31.6075,19.967 L -31.2773,19.7855 L -30.927,19.6468 L -30.5621,19.5531
 L -30.1884,19.5059 L -29.8116,19.5059 L -29.4379,19.5531 L -29.0729,19.6468 L -28.7227,19.7855 L -28.3925,19.967
 L -28.0877,20.1884 L -27.8131,20.4464 L -27.5729,20.7366 L -27.3711,21.0547 L -27.2107,21.3956 L -27.0942,21.7539
 L -27.0237,22.124 L -27,22.5 L -27.0237,22.876 L -27.0942,23.2461 L -27.2107,23.6044 L -27.3711,23.9453
 L -27.5729,24.2634 L -27.8131,24.5536 L -28.0877,24.8115 L -28.3925,25.033 L -28.7227,25.2145 L -29.0729,25.3532
 L -29.4379,25.4469 L -29.8116,25.4941 z
M -6.04712,-37.127 L -6.10533,-36.9478 L -6.18553,-36.7774 L -6.28647,-36.6183 L -6.40654,-36.4732 L -6.54385,-36.3442
 L -6.69626,-36.2335 L -6.86133,-36.1428 L -7.03647,-36.0734 L -7.21892,-36.0266 L -7.40581,-36.003 L -7.59418,-36.003
 L -7.78107,-36.0266 L -7.96352,-36.0734 L -8.13866,-36.1428 L -8.30373,-36.2335 L -8.45613,-36.3442 L -8.59344,-36.4732
 L -8.71352,-36.6183 L -8.81445,-36.7774 L -8.89465,-36.9478 L -8.95287,-37.127 L -8.98816,-37.312 L -9,-37.5
 L -8.98816,-37.688 L -8.95287,-37.873 L -8.89465,-38.0522 L -8.81445,-38.2226 L -8.71352,-38.3817 L -8.59344,-38.5268
 L -8.45613,-38.6558 L -8.30373,-38.7665 L -8.13866,-38.8572 L -7.96352,-38.9266 L -7.78107,-38.9734 L -7.59418,-38.997
 L -7.40581,-38.997 L -7.21892,-38.9734 L -7.03647,-38.9266 L -6.86133,-38.8572 L -6.69626,-38.7665 L -6.54385,-38.6558
 L -6.40654,-38.5268 L -6.28647,-38.3817 L -6.18553,-38.2226 L -6.10533,-38.0522 L -6.04712,-37.873 L -6.01183,-37.688
 L -6,-37.5 L -6.01183,-37.312 z
" stroke="black" fill="lightgray" stroke-width="0.5"/>
</svg>
