  0
SECTION
  2
BLOCKS
  0
ENDSEC
  0
SECTION
  2
ENTITIES
  0
LINE
  8
0
 10
14.6869
 20
972.089
 11
15.2951
 21
972.245
  0
LINE
  8
0
 10
15.2951
 20
972.245
 11
15.8789
 21
972.476
  0
LINE
  8
0
 10
15.8789
 20
972.476
 11
16.4291
 21
972.778
  0
LINE
  8
0
 10
16.4291
 20
972.778
 11
16.9371
 21
973.147
  0
LINE
  8
0
 10
16.9371
 20
973.147
 11
17.3948
 21
973.577
  0
LINE
  8
0
 10
17.3948
 20
973.577
 11
17.7951
 21
974.061
  0
LINE
  8
0
 10
17.7951
 20
974.061
 11
18.1315
 21
974.591
  0
LINE
  8
0
 10
18.1315
 20
974.591
 11
18.3989
 21
975.159
  0
LINE
  8
0
 10
18.3989
 20
975.159
 11
18.5929
 21
975.757
  0
LINE
  8
0
 10
18.5929
 20
975.757
 11
18.7106
 21
976.373
  0
LINE
  8
0
 10
18.7106
 20
976.373
 11
18.75
 21
977
  0
LINE
  8
0
 10
18.75
 20
977
 11
18.75
 21
1087
  0
LINE
  8
0
 10
18.75
 20
1087
 11
18.7106
 21
1087.63
  0
LINE
  8
0
 10
18.7106
 20
1087.63
 11
18.5929
 21
1088.24
  0
LINE
  8
0
 10
18.5929
 20
1088.24
 11
18.3989
 21
1088.84
  0
LINE
  8
0
 10
18.3989
 20
1088.84
 11
18.1315
 21
1089.41
  0
LINE
  8
0
 10
18.1315
 20
1089.41
 11
17.7951
 21
1089.94
  0
LINE
  8
0
 10
17.7951
 20
1089.94
 11
17.3948
 21
1090.42
  0
LINE
  8
0
 10
17.3948
 20
1090.42
 11
16.9371
 21
1090.85
  0
LINE
  8
0
 10
16.9371
 20
1090.85
 11
16.4291
 21
1091.22
  0
LINE
  8
0
 10
16.4291
 20
1091.22
 11
15.8789
 21
1091.52
  0
LINE
  8
0
 10
15.8789
 20
1091.52
 11
15.2951
 21
1091.76
  0
LINE
  8
0
 10
15.2951
 20
1091.76
 11
14.6869
 21
1091.91
  0
LINE
  8
0
 10
14.6869
 20
1091.91
 11
14.0639
 21
1091.99
  0
LINE
  8
0
 10
14.0639
 20
1091.99
 11
-14.0639
 21
1091.99
  0
LINE
  8
0
 10
-14.0639
 20
1091.99
 11
-14.6869
 21
1091.91
  0
LINE
  8
0
 10
-14.6869
 20
1091.91
 11
-15.2951
 21
1091.76
  0
LINE
  8
0
 10
-15.2951
 20
1091.76
 11
-15.8789
 21
1091.52
  0
LINE
  8
0
 10
-15.8789
 20
1091.52
 11
-16.4291
 21
1091.22
  0
LINE
  8
0
 10
-16.4291
 20
1091.22
 11
-16.9371
 21
1090.85
  0
LINE
  8
0
 10
-16.9371
 20
1090.85
 11
-17.3948
 21
1090.42
  0
LINE
  8
0
 10
-17.3948
 20
1090.42
 11
-17.7951
 21
1089.94
  0
LINE
  8
0
 10
-17.7951
 20
1089.94
 11
-18.1315
 21
1089.41
  0
LINE
  8
0
 10
-18.1315
 20
1089.41
 11
-18.3989
 21
1088.84
  0
LINE
  8
0
 10
-18.3989
 20
1088.84
 11
-18.5929
 21
1088.24
  0
LINE
  8
0
 10
-18.5929
 20
1088.24
 11
-18.65
 21
1087.94
  0
LINE
  8
0
 10
-18.65
 20
1087.94
 11
-18.75
 21
1087.94
  0
LINE
  8
0
 10
-18.75
 20
1087.94
 11
-18.75
 21
976.056
  0
LINE
  8
0
 10
-18.75
 20
976.056
 11
-18.65
 21
976.056
  0
LINE
  8
0
 10
-18.65
 20
976.056
 11
-18.5929
 21
975.757
  0
LINE
  8
0
 10
-18.5929
 20
975.757
 11
-18.3989
 21
975.159
  0
LINE
  8
0
 10
-18.3989
 20
975.159
 11
-18.1315
 21
974.591
  0
LINE
  8
0
 10
-18.1315
 20
974.591
 11
-17.7951
 21
974.061
  0
LINE
  8
0
 10
-17.7951
 20
974.061
 11
-17.3948
 21
973.577
  0
LINE
  8
0
 10
-17.3948
 20
973.577
 11
-16.9371
 21
973.147
  0
LINE
  8
0
 10
-16.9371
 20
973.147
 11
-16.4291
 21
972.778
  0
LINE
  8
0
 10
-16.4291
 20
972.778
 11
-15.8789
 21
972.476
  0
LINE
  8
0
 10
-15.8789
 20
972.476
 11
-15.2951
 21
972.245
  0
LINE
  8
0
 10
-15.2951
 20
972.245
 11
-14.6869
 21
972.089
  0
LINE
  8
0
 10
-14.6869
 20
972.089
 11
-14.0639
 21
972.01
  0
LINE
  8
0
 10
-14.0639
 20
972.01
 11
14.0639
 21
972.01
  0
LINE
  8
0
 10
14.0639
 20
972.01
 11
14.6869
 21
972.089
  0
LINE
  8
0
 10
-13.5012
 20
973.508
 11
-13.9995
 21
973.571
  0
LINE
  8
0
 10
-13.9995
 20
973.571
 11
-14.4861
 21
973.696
  0
LINE
  8
0
 10
-14.4861
 20
973.696
 11
-14.9531
 21
973.881
  0
LINE
  8
0
 10
-14.9531
 20
973.881
 11
-15.3933
 21
974.123
  0
LINE
  8
0
 10
-15.3933
 20
974.123
 11
-15.7997
 21
974.418
  0
LINE
  8
0
 10
-15.7997
 20
974.418
 11
-16.1659
 21
974.762
  0
LINE
  8
0
 10
-16.1659
 20
974.762
 11
-16.4861
 21
975.149
  0
LINE
  8
0
 10
-16.4861
 20
975.149
 11
-16.7552
 21
975.573
  0
LINE
  8
0
 10
-16.7552
 20
975.573
 11
-16.9691
 21
976.028
  0
LINE
  8
0
 10
-16.9691
 20
976.028
 11
-17.1243
 21
976.505
  0
LINE
  8
0
 10
-17.1243
 20
976.505
 11
-17.2184
 21
976.999
  0
LINE
  8
0
 10
-17.2184
 20
976.999
 11
-17.25
 21
977.5
  0
LINE
  8
0
 10
-17.25
 20
977.5
 11
-17.25
 21
1086.5
  0
LINE
  8
0
 10
-17.25
 20
1086.5
 11
-17.2184
 21
1087
  0
LINE
  8
0
 10
-17.2184
 20
1087
 11
-17.1243
 21
1087.49
  0
LINE
  8
0
 10
-17.1243
 20
1087.49
 11
-16.9691
 21
1087.97
  0
LINE
  8
0
 10
-16.9691
 20
1087.97
 11
-16.7552
 21
1088.43
  0
LINE
  8
0
 10
-16.7552
 20
1088.43
 11
-16.4861
 21
1088.85
  0
LINE
  8
0
 10
-16.4861
 20
1088.85
 11
-16.1659
 21
1089.24
  0
LINE
  8
0
 10
-16.1659
 20
1089.24
 11
-15.7997
 21
1089.58
  0
LINE
  8
0
 10
-15.7997
 20
1089.58
 11
-15.3933
 21
1089.88
  0
LINE
  8
0
 10
-15.3933
 20
1089.88
 11
-14.9531
 21
1090.12
  0
LINE
  8
0
 10
-14.9531
 20
1090.12
 11
-14.4861
 21
1090.3
  0
LINE
  8
0
 10
-14.4861
 20
1090.3
 11
-13.9995
 21
1090.43
  0
LINE
  8
0
 10
-13.9995
 20
1090.43
 11
-13.5012
 21
1090.49
  0
LINE
  8
0
 10
-13.5012
 20
1090.49
 11
13.5012
 21
1090.49
  0
LINE
  8
0
 10
13.5012
 20
1090.49
 11
13.9995
 21
1090.43
  0
LINE
  8
0
 10
13.9995
 20
1090.43
 11
14.4861
 21
1090.3
  0
LINE
  8
0
 10
14.4861
 20
1090.3
 11
14.9531
 21
1090.12
  0
LINE
  8
0
 10
14.9531
 20
1090.12
 11
15.3933
 21
1089.88
  0
LINE
  8
0
 10
15.3933
 20
1089.88
 11
15.7997
 21
1089.58
  0
LINE
  8
0
 10
15.7997
 20
1089.58
 11
16.1659
 21
1089.24
  0
LINE
  8
0
 10
16.1659
 20
1089.24
 11
16.4861
 21
1088.85
  0
LINE
  8
0
 10
16.4861
 20
1088.85
 11
16.7552
 21
1088.43
  0
LINE
  8
0
 10
16.7552
 20
1088.43
 11
16.9691
 21
1087.97
  0
LINE
  8
0
 10
16.9691
 20
1087.97
 11
17.1243
 21
1087.49
  0
LINE
  8
0
 10
17.1243
 20
1087.49
 11
17.2184
 21
1087
  0
LINE
  8
0
 10
17.2184
 20
1087
 11
17.25
 21
1086.5
  0
LINE
  8
0
 10
17.25
 20
1086.5
 11
17.25
 21
977.5
  0
LINE
  8
0
 10
17.25
 20
977.5
 11
17.2184
 21
976.999
  0
LINE
  8
0
 10
17.2184
 20
976.999
 11
17.1243
 21
976.505
  0
LINE
  8
0
 10
17.1243
 20
976.505
 11
16.9691
 21
976.028
  0
LINE
  8
0
 10
16.9691
 20
976.028
 11
16.7552
 21
975.573
  0
LINE
  8
0
 10
16.7552
 20
975.573
 11
16.4861
 21
975.149
  0
LINE
  8
0
 10
16.4861
 20
975.149
 11
16.1659
 21
974.762
  0
LINE
  8
0
 10
16.1659
 20
974.762
 11
15.7997
 21
974.418
  0
LINE
  8
0
 10
15.7997
 20
974.418
 11
15.3933
 21
974.123
  0
LINE
  8
0
 10
15.3933
 20
974.123
 11
14.9531
 21
973.881
  0
LINE
  8
0
 10
14.9531
 20
973.881
 11
14.4861
 21
973.696
  0
LINE
  8
0
 10
14.4861
 20
973.696
 11
13.9995
 21
973.571
  0
LINE
  8
0
 10
13.9995
 20
973.571
 11
13.5012
 21
973.508
  0
LINE
  8
0
 10
13.5012
 20
973.508
 11
-13.5012
 21
973.508
  0
LINE
  8
0
 10
14.6869
 20
843.089
 11
15.2951
 21
843.245
  0
LINE
  8
0
 10
15.2951
 20
843.245
 11
15.8789
 21
843.476
  0
LINE
  8
0
 10
15.8789
 20
843.476
 11
16.4291
 21
843.778
  0
LINE
  8
0
 10
16.4291
 20
843.778
 11
16.9371
 21
844.147
  0
LINE
  8
0
 10
16.9371
 20
844.147
 11
17.3948
 21
844.577
  0
LINE
  8
0
 10
17.3948
 20
844.577
 11
17.7951
 21
845.061
  0
LINE
  8
0
 10
17.7951
 20
845.061
 11
18.1315
 21
845.591
  0
LINE
  8
0
 10
18.1315
 20
845.591
 11
18.3989
 21
846.159
  0
LINE
  8
0
 10
18.3989
 20
846.159
 11
18.5929
 21
846.757
  0
LINE
  8
0
 10
18.5929
 20
846.757
 11
18.7106
 21
847.373
  0
LINE
  8
0
 10
18.7106
 20
847.373
 11
18.75
 21
848
  0
LINE
  8
0
 10
18.75
 20
848
 11
18.75
 21
958
  0
LINE
  8
0
 10
18.75
 20
958
 11
18.7106
 21
958.627
  0
LINE
  8
0
 10
18.7106
 20
958.627
 11
18.5929
 21
959.243
  0
LINE
  8
0
 10
18.5929
 20
959.243
 11
18.3989
 21
959.841
  0
LINE
  8
0
 10
18.3989
 20
959.841
 11
18.1315
 21
960.409
  0
LINE
  8
0
 10
18.1315
 20
960.409
 11
17.7951
 21
960.939
  0
LINE
  8
0
 10
17.7951
 20
960.939
 11
17.3948
 21
961.423
  0
LINE
  8
0
 10
17.3948
 20
961.423
 11
16.9371
 21
961.853
  0
LINE
  8
0
 10
16.9371
 20
961.853
 11
16.4291
 21
962.222
  0
LINE
  8
0
 10
16.4291
 20
962.222
 11
15.8789
 21
962.524
  0
LINE
  8
0
 10
15.8789
 20
962.524
 11
15.2951
 21
962.755
  0
LINE
  8
0
 10
15.2951
 20
962.755
 11
14.6869
 21
962.911
  0
LINE
  8
0
 10
14.6869
 20
962.911
 11
14.0639
 21
962.99
  0
LINE
  8
0
 10
14.0639
 20
962.99
 11
-14.0639
 21
962.99
  0
LINE
  8
0
 10
-14.0639
 20
962.99
 11
-14.6869
 21
962.911
  0
LINE
  8
0
 10
-14.6869
 20
962.911
 11
-15.2951
 21
962.755
  0
LINE
  8
0
 10
-15.2951
 20
962.755
 11
-15.8789
 21
962.524
  0
LINE
  8
0
 10
-15.8789
 20
962.524
 11
-16.4291
 21
962.222
  0
LINE
  8
0
 10
-16.4291
 20
962.222
 11
-16.9371
 21
961.853
  0
LINE
  8
0
 10
-16.9371
 20
961.853
 11
-17.3948
 21
961.423
  0
LINE
  8
0
 10
-17.3948
 20
961.423
 11
-17.7951
 21
960.939
  0
LINE
  8
0
 10
-17.7951
 20
960.939
 11
-18.1315
 21
960.409
  0
LINE
  8
0
 10
-18.1315
 20
960.409
 11
-18.3989
 21
959.841
  0
LINE
  8
0
 10
-18.3989
 20
959.841
 11
-18.5929
 21
959.243
  0
LINE
  8
0
 10
-18.5929
 20
959.243
 11
-18.7106
 21
958.627
  0
LINE
  8
0
 10
-18.7106
 20
958.627
 11
-18.75
 21
958
  0
LINE
  8
0
 10
-18.75
 20
958
 11
-18.75
 21
848
  0
LINE
  8
0
 10
-18.75
 20
848
 11
-18.7106
 21
847.373
  0
LINE
  8
0
 10
-18.7106
 20
847.373
 11
-18.5929
 21
846.757
  0
LINE
  8
0
 10
-18.5929
 20
846.757
 11
-18.3989
 21
846.159
  0
LINE
  8
0
 10
-18.3989
 20
846.159
 11
-18.1315
 21
845.591
  0
LINE
  8
0
 10
-18.1315
 20
845.591
 11
-17.7951
 21
845.061
  0
LINE
  8
0
 10
-17.7951
 20
845.061
 11
-17.3948
 21
844.577
  0
LINE
  8
0
 10
-17.3948
 20
844.577
 11
-16.9371
 21
844.147
  0
LINE
  8
0
 10
-16.9371
 20
844.147
 11
-16.4291
 21
843.778
  0
LINE
  8
0
 10
-16.4291
 20
843.778
 11
-15.8789
 21
843.476
  0
LINE
  8
0
 10
-15.8789
 20
843.476
 11
-15.2951
 21
843.245
  0
LINE
  8
0
 10
-15.2951
 20
843.245
 11
-14.6869
 21
843.089
  0
LINE
  8
0
 10
-14.6869
 20
843.089
 11
-14.0639
 21
843.01
  0
LINE
  8
0
 10
-14.0639
 20
843.01
 11
14.0639
 21
843.01
  0
LINE
  8
0
 10
14.0639
 20
843.01
 11
14.6869
 21
843.089
  0
LINE
  8
0
 10
-13.5012
 20
844.508
 11
-13.9995
 21
844.571
  0
LINE
  8
0
 10
-13.9995
 20
844.571
 11
-14.4861
 21
844.696
  0
LINE
  8
0
 10
-14.4861
 20
844.696
 11
-14.9531
 21
844.881
  0
LINE
  8
0
 10
-14.9531
 20
844.881
 11
-15.3933
 21
845.123
  0
LINE
  8
0
 10
-15.3933
 20
845.123
 11
-15.7997
 21
845.418
  0
LINE
  8
0
 10
-15.7997
 20
845.418
 11
-16.1659
 21
845.762
  0
LINE
  8
0
 10
-16.1659
 20
845.762
 11
-16.4861
 21
846.149
  0
LINE
  8
0
 10
-16.4861
 20
846.149
 11
-16.7552
 21
846.573
  0
LINE
  8
0
 10
-16.7552
 20
846.573
 11
-16.9691
 21
847.028
  0
LINE
  8
0
 10
-16.9691
 20
847.028
 11
-17.1243
 21
847.505
  0
LINE
  8
0
 10
-17.1243
 20
847.505
 11
-17.2184
 21
847.999
  0
LINE
  8
0
 10
-17.2184
 20
847.999
 11
-17.25
 21
848.5
  0
LINE
  8
0
 10
-17.25
 20
848.5
 11
-17.25
 21
957.5
  0
LINE
  8
0
 10
-17.25
 20
957.5
 11
-17.2184
 21
958.001
  0
LINE
  8
0
 10
-17.2184
 20
958.001
 11
-17.1243
 21
958.495
  0
LINE
  8
0
 10
-17.1243
 20
958.495
 11
-16.9691
 21
958.972
  0
LINE
  8
0
 10
-16.9691
 20
958.972
 11
-16.7552
 21
959.427
  0
LINE
  8
0
 10
-16.7552
 20
959.427
 11
-16.4861
 21
959.851
  0
LINE
  8
0
 10
-16.4861
 20
959.851
 11
-16.1659
 21
960.238
  0
LINE
  8
0
 10
-16.1659
 20
960.238
 11
-15.7997
 21
960.582
  0
LINE
  8
0
 10
-15.7997
 20
960.582
 11
-15.3933
 21
960.877
  0
LINE
  8
0
 10
-15.3933
 20
960.877
 11
-14.9531
 21
961.119
  0
LINE
  8
0
 10
-14.9531
 20
961.119
 11
-14.4861
 21
961.304
  0
LINE
  8
0
 10
-14.4861
 20
961.304
 11
-13.9995
 21
961.429
  0
LINE
  8
0
 10
-13.9995
 20
961.429
 11
-13.5012
 21
961.492
  0
LINE
  8
0
 10
-13.5012
 20
961.492
 11
13.5012
 21
961.492
  0
LINE
  8
0
 10
13.5012
 20
961.492
 11
13.9995
 21
961.429
  0
LINE
  8
0
 10
13.9995
 20
961.429
 11
14.4861
 21
961.304
  0
LINE
  8
0
 10
14.4861
 20
961.304
 11
14.9531
 21
961.119
  0
LINE
  8
0
 10
14.9531
 20
961.119
 11
15.3933
 21
960.877
  0
LINE
  8
0
 10
15.3933
 20
960.877
 11
15.7997
 21
960.582
  0
LINE
  8
0
 10
15.7997
 20
960.582
 11
16.1659
 21
960.238
  0
LINE
  8
0
 10
16.1659
 20
960.238
 11
16.4861
 21
959.851
  0
LINE
  8
0
 10
16.4861
 20
959.851
 11
16.7552
 21
959.427
  0
LINE
  8
0
 10
16.7552
 20
959.427
 11
16.9691
 21
958.972
  0
LINE
  8
0
 10
16.9691
 20
958.972
 11
17.1243
 21
958.495
  0
LINE
  8
0
 10
17.1243
 20
958.495
 11
17.2184
 21
958.001
  0
LINE
  8
0
 10
17.2184
 20
958.001
 11
17.25
 21
957.5
  0
LINE
  8
0
 10
17.25
 20
957.5
 11
17.25
 21
848.5
  0
LINE
  8
0
 10
17.25
 20
848.5
 11
17.2184
 21
847.999
  0
LINE
  8
0
 10
17.2184
 20
847.999
 11
17.1243
 21
847.505
  0
LINE
  8
0
 10
17.1243
 20
847.505
 11
16.9691
 21
847.028
  0
LINE
  8
0
 10
16.9691
 20
847.028
 11
16.7552
 21
846.573
  0
LINE
  8
0
 10
16.7552
 20
846.573
 11
16.4861
 21
846.149
  0
LINE
  8
0
 10
16.4861
 20
846.149
 11
16.1659
 21
845.762
  0
LINE
  8
0
 10
16.1659
 20
845.762
 11
15.7997
 21
845.418
  0
LINE
  8
0
 10
15.7997
 20
845.418
 11
15.3933
 21
845.123
  0
LINE
  8
0
 10
15.3933
 20
845.123
 11
14.9531
 21
844.881
  0
LINE
  8
0
 10
14.9531
 20
844.881
 11
14.4861
 21
844.696
  0
LINE
  8
0
 10
14.4861
 20
844.696
 11
13.9995
 21
844.571
  0
LINE
  8
0
 10
13.9995
 20
844.571
 11
13.5012
 21
844.508
  0
LINE
  8
0
 10
13.5012
 20
844.508
 11
-13.5012
 21
844.508
  0
LINE
  8
0
 10
14.6869
 20
714.089
 11
15.2951
 21
714.245
  0
LINE
  8
0
 10
15.2951
 20
714.245
 11
15.8789
 21
714.476
  0
LINE
  8
0
 10
15.8789
 20
714.476
 11
16.4291
 21
714.778
  0
LINE
  8
0
 10
16.4291
 20
714.778
 11
16.9371
 21
715.147
  0
LINE
  8
0
 10
16.9371
 20
715.147
 11
17.3948
 21
715.577
  0
LINE
  8
0
 10
17.3948
 20
715.577
 11
17.7951
 21
716.061
  0
LINE
  8
0
 10
17.7951
 20
716.061
 11
18.1315
 21
716.591
  0
LINE
  8
0
 10
18.1315
 20
716.591
 11
18.3989
 21
717.159
  0
LINE
  8
0
 10
18.3989
 20
717.159
 11
18.5929
 21
717.757
  0
LINE
  8
0
 10
18.5929
 20
717.757
 11
18.7106
 21
718.373
  0
LINE
  8
0
 10
18.7106
 20
718.373
 11
18.75
 21
719
  0
LINE
  8
0
 10
18.75
 20
719
 11
18.75
 21
829
  0
LINE
  8
0
 10
18.75
 20
829
 11
18.7106
 21
829.627
  0
LINE
  8
0
 10
18.7106
 20
829.627
 11
18.5929
 21
830.243
  0
LINE
  8
0
 10
18.5929
 20
830.243
 11
18.3989
 21
830.841
  0
LINE
  8
0
 10
18.3989
 20
830.841
 11
18.1315
 21
831.409
  0
LINE
  8
0
 10
18.1315
 20
831.409
 11
17.7951
 21
831.939
  0
LINE
  8
0
 10
17.7951
 20
831.939
 11
17.3948
 21
832.423
  0
LINE
  8
0
 10
17.3948
 20
832.423
 11
16.9371
 21
832.853
  0
LINE
  8
0
 10
16.9371
 20
832.853
 11
16.4291
 21
833.222
  0
LINE
  8
0
 10
16.4291
 20
833.222
 11
15.8789
 21
833.524
  0
LINE
  8
0
 10
15.8789
 20
833.524
 11
15.2951
 21
833.755
  0
LINE
  8
0
 10
15.2951
 20
833.755
 11
14.6869
 21
833.911
  0
LINE
  8
0
 10
14.6869
 20
833.911
 11
14.0639
 21
833.99
  0
LINE
  8
0
 10
14.0639
 20
833.99
 11
-14.0639
 21
833.99
  0
LINE
  8
0
 10
-14.0639
 20
833.99
 11
-14.6869
 21
833.911
  0
LINE
  8
0
 10
-14.6869
 20
833.911
 11
-15.2951
 21
833.755
  0
LINE
  8
0
 10
-15.2951
 20
833.755
 11
-15.8789
 21
833.524
  0
LINE
  8
0
 10
-15.8789
 20
833.524
 11
-16.4291
 21
833.222
  0
LINE
  8
0
 10
-16.4291
 20
833.222
 11
-16.9371
 21
832.853
  0
LINE
  8
0
 10
-16.9371
 20
832.853
 11
-17.3948
 21
832.423
  0
LINE
  8
0
 10
-17.3948
 20
832.423
 11
-17.7951
 21
831.939
  0
LINE
  8
0
 10
-17.7951
 20
831.939
 11
-18.1315
 21
831.409
  0
LINE
  8
0
 10
-18.1315
 20
831.409
 11
-18.3989
 21
830.841
  0
LINE
  8
0
 10
-18.3989
 20
830.841
 11
-18.5929
 21
830.243
  0
LINE
  8
0
 10
-18.5929
 20
830.243
 11
-18.7106
 21
829.627
  0
LINE
  8
0
 10
-18.7106
 20
829.627
 11
-18.75
 21
829
  0
LINE
  8
0
 10
-18.75
 20
829
 11
-18.75
 21
719
  0
LINE
  8
0
 10
-18.75
 20
719
 11
-18.7106
 21
718.373
  0
LINE
  8
0
 10
-18.7106
 20
718.373
 11
-18.5929
 21
717.757
  0
LINE
  8
0
 10
-18.5929
 20
717.757
 11
-18.3989
 21
717.159
  0
LINE
  8
0
 10
-18.3989
 20
717.159
 11
-18.1315
 21
716.591
  0
LINE
  8
0
 10
-18.1315
 20
716.591
 11
-17.7951
 21
716.061
  0
LINE
  8
0
 10
-17.7951
 20
716.061
 11
-17.3948
 21
715.577
  0
LINE
  8
0
 10
-17.3948
 20
715.577
 11
-16.9371
 21
715.147
  0
LINE
  8
0
 10
-16.9371
 20
715.147
 11
-16.4291
 21
714.778
  0
LINE
  8
0
 10
-16.4291
 20
714.778
 11
-15.8789
 21
714.476
  0
LINE
  8
0
 10
-15.8789
 20
714.476
 11
-15.2951
 21
714.245
  0
LINE
  8
0
 10
-15.2951
 20
714.245
 11
-14.6869
 21
714.089
  0
LINE
  8
0
 10
-14.6869
 20
714.089
 11
-14.0639
 21
714.01
  0
LINE
  8
0
 10
-14.0639
 20
714.01
 11
14.0639
 21
714.01
  0
LINE
  8
0
 10
14.0639
 20
714.01
 11
14.6869
 21
714.089
  0
LINE
  8
0
 10
-13.4932
 20
715.635
 11
-13.9756
 21
715.696
  0
LINE
  8
0
 10
-13.9756
 20
715.696
 11
-14.4467
 21
715.817
  0
LINE
  8
0
 10
-14.4467
 20
715.817
 11
-14.8989
 21
715.996
  0
LINE
  8
0
 10
-14.8989
 20
715.996
 11
-15.3251
 21
716.23
  0
LINE
  8
0
 10
-15.3251
 20
716.23
 11
-15.7185
 21
716.516
  0
LINE
  8
0
 10
-15.7185
 20
716.516
 11
-16.073
 21
716.849
  0
LINE
  8
0
 10
-16.073
 20
716.849
 11
-16.383
 21
717.224
  0
LINE
  8
0
 10
-16.383
 20
717.224
 11
-16.6436
 21
717.634
  0
LINE
  8
0
 10
-16.6436
 20
717.634
 11
-16.8507
 21
718.074
  0
LINE
  8
0
 10
-16.8507
 20
718.074
 11
-17.001
 21
718.537
  0
LINE
  8
0
 10
-17.001
 20
718.537
 11
-17.0921
 21
719.015
  0
LINE
  8
0
 10
-17.0921
 20
719.015
 11
-17.1226
 21
719.5
  0
LINE
  8
0
 10
-17.1226
 20
719.5
 11
-17.1226
 21
828.5
  0
LINE
  8
0
 10
-17.1226
 20
828.5
 11
-17.0921
 21
828.985
  0
LINE
  8
0
 10
-17.0921
 20
828.985
 11
-17.001
 21
829.463
  0
LINE
  8
0
 10
-17.001
 20
829.463
 11
-16.8507
 21
829.926
  0
LINE
  8
0
 10
-16.8507
 20
829.926
 11
-16.6436
 21
830.366
  0
LINE
  8
0
 10
-16.6436
 20
830.366
 11
-16.383
 21
830.776
  0
LINE
  8
0
 10
-16.383
 20
830.776
 11
-16.073
 21
831.151
  0
LINE
  8
0
 10
-16.073
 20
831.151
 11
-15.7185
 21
831.484
  0
LINE
  8
0
 10
-15.7185
 20
831.484
 11
-15.3251
 21
831.77
  0
LINE
  8
0
 10
-15.3251
 20
831.77
 11
-14.8989
 21
832.004
  0
LINE
  8
0
 10
-14.8989
 20
832.004
 11
-14.4467
 21
832.183
  0
LINE
  8
0
 10
-14.4467
 20
832.183
 11
-13.9756
 21
832.304
  0
LINE
  8
0
 10
-13.9756
 20
832.304
 11
-13.4932
 21
832.365
  0
LINE
  8
0
 10
-13.4932
 20
832.365
 11
13.4932
 21
832.365
  0
LINE
  8
0
 10
13.4932
 20
832.365
 11
13.9756
 21
832.304
  0
LINE
  8
0
 10
13.9756
 20
832.304
 11
14.4467
 21
832.183
  0
LINE
  8
0
 10
14.4467
 20
832.183
 11
14.8989
 21
832.004
  0
LINE
  8
0
 10
14.8989
 20
832.004
 11
15.3251
 21
831.77
  0
LINE
  8
0
 10
15.3251
 20
831.77
 11
15.7185
 21
831.484
  0
LINE
  8
0
 10
15.7185
 20
831.484
 11
16.073
 21
831.151
  0
LINE
  8
0
 10
16.073
 20
831.151
 11
16.383
 21
830.776
  0
LINE
  8
0
 10
16.383
 20
830.776
 11
16.6436
 21
830.366
  0
LINE
  8
0
 10
16.6436
 20
830.366
 11
16.8507
 21
829.926
  0
LINE
  8
0
 10
16.8507
 20
829.926
 11
17.001
 21
829.463
  0
LINE
  8
0
 10
17.001
 20
829.463
 11
17.0921
 21
828.985
  0
LINE
  8
0
 10
17.0921
 20
828.985
 11
17.1226
 21
828.5
  0
LINE
  8
0
 10
17.1226
 20
828.5
 11
17.1226
 21
719.5
  0
LINE
  8
0
 10
17.1226
 20
719.5
 11
17.0921
 21
719.015
  0
LINE
  8
0
 10
17.0921
 20
719.015
 11
17.001
 21
718.537
  0
LINE
  8
0
 10
17.001
 20
718.537
 11
16.8507
 21
718.074
  0
LINE
  8
0
 10
16.8507
 20
718.074
 11
16.6436
 21
717.634
  0
LINE
  8
0
 10
16.6436
 20
717.634
 11
16.383
 21
717.224
  0
LINE
  8
0
 10
16.383
 20
717.224
 11
16.073
 21
716.849
  0
LINE
  8
0
 10
16.073
 20
716.849
 11
15.7185
 21
716.516
  0
LINE
  8
0
 10
15.7185
 20
716.516
 11
15.3251
 21
716.23
  0
LINE
  8
0
 10
15.3251
 20
716.23
 11
14.8989
 21
715.996
  0
LINE
  8
0
 10
14.8989
 20
715.996
 11
14.4467
 21
715.817
  0
LINE
  8
0
 10
14.4467
 20
715.817
 11
13.9756
 21
715.696
  0
LINE
  8
0
 10
13.9756
 20
715.696
 11
13.4932
 21
715.635
  0
LINE
  8
0
 10
13.4932
 20
715.635
 11
-13.4932
 21
715.635
  0
LINE
  8
0
 10
14.6869
 20
585.089
 11
15.2951
 21
585.245
  0
LINE
  8
0
 10
15.2951
 20
585.245
 11
15.8789
 21
585.476
  0
LINE
  8
0
 10
15.8789
 20
585.476
 11
16.4291
 21
585.778
  0
LINE
  8
0
 10
16.4291
 20
585.778
 11
16.9371
 21
586.147
  0
LINE
  8
0
 10
16.9371
 20
586.147
 11
17.3948
 21
586.577
  0
LINE
  8
0
 10
17.3948
 20
586.577
 11
17.7951
 21
587.061
  0
LINE
  8
0
 10
17.7951
 20
587.061
 11
18.1315
 21
587.591
  0
LINE
  8
0
 10
18.1315
 20
587.591
 11
18.3989
 21
588.159
  0
LINE
  8
0
 10
18.3989
 20
588.159
 11
18.5929
 21
588.757
  0
LINE
  8
0
 10
18.5929
 20
588.757
 11
18.7106
 21
589.373
  0
LINE
  8
0
 10
18.7106
 20
589.373
 11
18.75
 21
590
  0
LINE
  8
0
 10
18.75
 20
590
 11
18.75
 21
700
  0
LINE
  8
0
 10
18.75
 20
700
 11
18.7106
 21
700.627
  0
LINE
  8
0
 10
18.7106
 20
700.627
 11
18.5929
 21
701.243
  0
LINE
  8
0
 10
18.5929
 20
701.243
 11
18.3989
 21
701.841
  0
LINE
  8
0
 10
18.3989
 20
701.841
 11
18.1315
 21
702.409
  0
LINE
  8
0
 10
18.1315
 20
702.409
 11
17.7951
 21
702.939
  0
LINE
  8
0
 10
17.7951
 20
702.939
 11
17.3948
 21
703.423
  0
LINE
  8
0
 10
17.3948
 20
703.423
 11
16.9371
 21
703.853
  0
LINE
  8
0
 10
16.9371
 20
703.853
 11
16.4291
 21
704.222
  0
LINE
  8
0
 10
16.4291
 20
704.222
 11
15.8789
 21
704.524
  0
LINE
  8
0
 10
15.8789
 20
704.524
 11
15.2951
 21
704.755
  0
LINE
  8
0
 10
15.2951
 20
704.755
 11
14.6869
 21
704.911
  0
LINE
  8
0
 10
14.6869
 20
704.911
 11
14.0639
 21
704.99
  0
LINE
  8
0
 10
14.0639
 20
704.99
 11
-14.0639
 21
704.99
  0
LINE
  8
0
 10
-14.0639
 20
704.99
 11
-14.6869
 21
704.911
  0
LINE
  8
0
 10
-14.6869
 20
704.911
 11
-15.2951
 21
704.755
  0
LINE
  8
0
 10
-15.2951
 20
704.755
 11
-15.8789
 21
704.524
  0
LINE
  8
0
 10
-15.8789
 20
704.524
 11
-16.4291
 21
704.222
  0
LINE
  8
0
 10
-16.4291
 20
704.222
 11
-16.9371
 21
703.853
  0
LINE
  8
0
 10
-16.9371
 20
703.853
 11
-17.3948
 21
703.423
  0
LINE
  8
0
 10
-17.3948
 20
703.423
 11
-17.7951
 21
702.939
  0
LINE
  8
0
 10
-17.7951
 20
702.939
 11
-18.1315
 21
702.409
  0
LINE
  8
0
 10
-18.1315
 20
702.409
 11
-18.3989
 21
701.841
  0
LINE
  8
0
 10
-18.3989
 20
701.841
 11
-18.5929
 21
701.243
  0
LINE
  8
0
 10
-18.5929
 20
701.243
 11
-18.7106
 21
700.627
  0
LINE
  8
0
 10
-18.7106
 20
700.627
 11
-18.75
 21
700
  0
LINE
  8
0
 10
-18.75
 20
700
 11
-18.75
 21
590
  0
LINE
  8
0
 10
-18.75
 20
590
 11
-18.7106
 21
589.373
  0
LINE
  8
0
 10
-18.7106
 20
589.373
 11
-18.5929
 21
588.757
  0
LINE
  8
0
 10
-18.5929
 20
588.757
 11
-18.3989
 21
588.159
  0
LINE
  8
0
 10
-18.3989
 20
588.159
 11
-18.1315
 21
587.591
  0
LINE
  8
0
 10
-18.1315
 20
587.591
 11
-17.7951
 21
587.061
  0
LINE
  8
0
 10
-17.7951
 20
587.061
 11
-17.3948
 21
586.577
  0
LINE
  8
0
 10
-17.3948
 20
586.577
 11
-16.9371
 21
586.147
  0
LINE
  8
0
 10
-16.9371
 20
586.147
 11
-16.4291
 21
585.778
  0
LINE
  8
0
 10
-16.4291
 20
585.778
 11
-15.8789
 21
585.476
  0
LINE
  8
0
 10
-15.8789
 20
585.476
 11
-15.2951
 21
585.245
  0
LINE
  8
0
 10
-15.2951
 20
585.245
 11
-14.6869
 21
585.089
  0
LINE
  8
0
 10
-14.6869
 20
585.089
 11
-14.0639
 21
585.01
  0
LINE
  8
0
 10
-14.0639
 20
585.01
 11
14.0639
 21
585.01
  0
LINE
  8
0
 10
14.0639
 20
585.01
 11
14.6869
 21
585.089
  0
LINE
  8
0
 10
11.0993
 20
695.105
 11
10.8003
 21
695.143
  0
LINE
  8
0
 10
10.8003
 20
695.143
 11
10.5083
 21
695.217
  0
LINE
  8
0
 10
10.5083
 20
695.217
 11
10.2281
 21
695.328
  0
LINE
  8
0
 10
10.2281
 20
695.328
 11
9.964
 21
695.474
  0
LINE
  8
0
 10
9.964
 20
695.474
 11
9.72017
 21
695.651
  0
LINE
  8
0
 10
9.72017
 20
695.651
 11
9.50047
 21
695.857
  0
LINE
  8
0
 10
9.50047
 20
695.857
 11
9.30835
 21
696.089
  0
LINE
  8
0
 10
9.30835
 20
696.089
 11
9.14685
 21
696.344
  0
LINE
  8
0
 10
9.14685
 20
696.344
 11
9.01852
 21
696.617
  0
LINE
  8
0
 10
9.01852
 20
696.617
 11
8.9254
 21
696.903
  0
LINE
  8
0
 10
8.9254
 20
696.903
 11
8.86891
 21
697.199
  0
LINE
  8
0
 10
8.86891
 20
697.199
 11
8.84999
 21
697.5
  0
LINE
  8
0
 10
8.84999
 20
697.5
 11
8.86891
 21
697.801
  0
LINE
  8
0
 10
8.86891
 20
697.801
 11
8.9254
 21
698.097
  0
LINE
  8
0
 10
8.9254
 20
698.097
 11
9.01852
 21
698.383
  0
LINE
  8
0
 10
9.01852
 20
698.383
 11
9.14685
 21
698.656
  0
LINE
  8
0
 10
9.14685
 20
698.656
 11
9.30835
 21
698.911
  0
LINE
  8
0
 10
9.30835
 20
698.911
 11
9.50047
 21
699.143
  0
LINE
  8
0
 10
9.50047
 20
699.143
 11
9.72017
 21
699.349
  0
LINE
  8
0
 10
9.72017
 20
699.349
 11
9.964
 21
699.526
  0
LINE
  8
0
 10
9.964
 20
699.526
 11
10.2281
 21
699.672
  0
LINE
  8
0
 10
10.2281
 20
699.672
 11
10.5083
 21
699.783
  0
LINE
  8
0
 10
10.5083
 20
699.783
 11
10.8003
 21
699.857
  0
LINE
  8
0
 10
10.8003
 20
699.857
 11
11.0993
 21
699.895
  0
LINE
  8
0
 10
11.0993
 20
699.895
 11
11.4007
 21
699.895
  0
LINE
  8
0
 10
11.4007
 20
699.895
 11
11.6997
 21
699.857
  0
LINE
  8
0
 10
11.6997
 20
699.857
 11
11.9916
 21
699.783
  0
LINE
  8
0
 10
11.9916
 20
699.783
 11
12.2719
 21
699.672
  0
LINE
  8
0
 10
12.2719
 20
699.672
 11
12.536
 21
699.526
  0
LINE
  8
0
 10
12.536
 20
699.526
 11
12.7798
 21
699.349
  0
LINE
  8
0
 10
12.7798
 20
699.349
 11
12.9995
 21
699.143
  0
LINE
  8
0
 10
12.9995
 20
699.143
 11
13.1916
 21
698.911
  0
LINE
  8
0
 10
13.1916
 20
698.911
 11
13.3531
 21
698.656
  0
LINE
  8
0
 10
13.3531
 20
698.656
 11
13.4815
 21
698.383
  0
LINE
  8
0
 10
13.4815
 20
698.383
 11
13.5746
 21
698.097
  0
LINE
  8
0
 10
13.5746
 20
698.097
 11
13.6311
 21
697.801
  0
LINE
  8
0
 10
13.6311
 20
697.801
 11
13.65
 21
697.5
  0
LINE
  8
0
 10
13.65
 20
697.5
 11
13.6311
 21
697.199
  0
LINE
  8
0
 10
13.6311
 20
697.199
 11
13.5746
 21
696.903
  0
LINE
  8
0
 10
13.5746
 20
696.903
 11
13.4815
 21
696.617
  0
LINE
  8
0
 10
13.4815
 20
696.617
 11
13.3531
 21
696.344
  0
LINE
  8
0
 10
13.3531
 20
696.344
 11
13.1916
 21
696.089
  0
LINE
  8
0
 10
13.1916
 20
696.089
 11
12.9995
 21
695.857
  0
LINE
  8
0
 10
12.9995
 20
695.857
 11
12.7798
 21
695.651
  0
LINE
  8
0
 10
12.7798
 20
695.651
 11
12.536
 21
695.474
  0
LINE
  8
0
 10
12.536
 20
695.474
 11
12.2719
 21
695.328
  0
LINE
  8
0
 10
12.2719
 20
695.328
 11
11.9916
 21
695.217
  0
LINE
  8
0
 10
11.9916
 20
695.217
 11
11.6997
 21
695.143
  0
LINE
  8
0
 10
11.6997
 20
695.143
 11
11.4007
 21
695.105
  0
LINE
  8
0
 10
11.4007
 20
695.105
 11
11.0993
 21
695.105
  0
LINE
  8
0
 10
-11.4007
 20
695.105
 11
-11.6997
 21
695.143
  0
LINE
  8
0
 10
-11.6997
 20
695.143
 11
-11.9916
 21
695.217
  0
LINE
  8
0
 10
-11.9916
 20
695.217
 11
-12.2719
 21
695.328
  0
LINE
  8
0
 10
-12.2719
 20
695.328
 11
-12.536
 21
695.474
  0
LINE
  8
0
 10
-12.536
 20
695.474
 11
-12.7798
 21
695.651
  0
LINE
  8
0
 10
-12.7798
 20
695.651
 11
-12.9995
 21
695.857
  0
LINE
  8
0
 10
-12.9995
 20
695.857
 11
-13.1916
 21
696.089
  0
LINE
  8
0
 10
-13.1916
 20
696.089
 11
-13.3531
 21
696.344
  0
LINE
  8
0
 10
-13.3531
 20
696.344
 11
-13.4815
 21
696.617
  0
LINE
  8
0
 10
-13.4815
 20
696.617
 11
-13.5746
 21
696.903
  0
LINE
  8
0
 10
-13.5746
 20
696.903
 11
-13.6311
 21
697.199
  0
LINE
  8
0
 10
-13.6311
 20
697.199
 11
-13.65
 21
697.5
  0
LINE
  8
0
 10
-13.65
 20
697.5
 11
-13.6311
 21
697.801
  0
LINE
  8
0
 10
-13.6311
 20
697.801
 11
-13.5746
 21
698.097
  0
LINE
  8
0
 10
-13.5746
 20
698.097
 11
-13.4815
 21
698.383
  0
LINE
  8
0
 10
-13.4815
 20
698.383
 11
-13.3531
 21
698.656
  0
LINE
  8
0
 10
-13.3531
 20
698.656
 11
-13.1916
 21
698.911
  0
LINE
  8
0
 10
-13.1916
 20
698.911
 11
-12.9995
 21
699.143
  0
LINE
  8
0
 10
-12.9995
 20
699.143
 11
-12.7798
 21
699.349
  0
LINE
  8
0
 10
-12.7798
 20
699.349
 11
-12.536
 21
699.526
  0
LINE
  8
0
 10
-12.536
 20
699.526
 11
-12.2719
 21
699.672
  0
LINE
  8
0
 10
-12.2719
 20
699.672
 11
-11.9916
 21
699.783
  0
LINE
  8
0
 10
-11.9916
 20
699.783
 11
-11.6997
 21
699.857
  0
LINE
  8
0
 10
-11.6997
 20
699.857
 11
-11.4007
 21
699.895
  0
LINE
  8
0
 10
-11.4007
 20
699.895
 11
-11.0993
 21
699.895
  0
LINE
  8
0
 10
-11.0993
 20
699.895
 11
-10.8003
 21
699.857
  0
LINE
  8
0
 10
-10.8003
 20
699.857
 11
-10.5083
 21
699.783
  0
LINE
  8
0
 10
-10.5083
 20
699.783
 11
-10.2281
 21
699.672
  0
LINE
  8
0
 10
-10.2281
 20
699.672
 11
-9.964
 21
699.526
  0
LINE
  8
0
 10
-9.964
 20
699.526
 11
-9.72017
 21
699.349
  0
LINE
  8
0
 10
-9.72017
 20
699.349
 11
-9.50047
 21
699.143
  0
LINE
  8
0
 10
-9.50047
 20
699.143
 11
-9.30835
 21
698.911
  0
LINE
  8
0
 10
-9.30835
 20
698.911
 11
-9.14685
 21
698.656
  0
LINE
  8
0
 10
-9.14685
 20
698.656
 11
-9.01852
 21
698.383
  0
LINE
  8
0
 10
-9.01852
 20
698.383
 11
-8.9254
 21
698.097
  0
LINE
  8
0
 10
-8.9254
 20
698.097
 11
-8.86891
 21
697.801
  0
LINE
  8
0
 10
-8.86891
 20
697.801
 11
-8.84999
 21
697.5
  0
LINE
  8
0
 10
-8.84999
 20
697.5
 11
-8.86891
 21
697.199
  0
LINE
  8
0
 10
-8.86891
 20
697.199
 11
-8.9254
 21
696.903
  0
LINE
  8
0
 10
-8.9254
 20
696.903
 11
-9.01852
 21
696.617
  0
LINE
  8
0
 10
-9.01852
 20
696.617
 11
-9.14685
 21
696.344
  0
LINE
  8
0
 10
-9.14685
 20
696.344
 11
-9.30835
 21
696.089
  0
LINE
  8
0
 10
-9.30835
 20
696.089
 11
-9.50047
 21
695.857
  0
LINE
  8
0
 10
-9.50047
 20
695.857
 11
-9.72017
 21
695.651
  0
LINE
  8
0
 10
-9.72017
 20
695.651
 11
-9.964
 21
695.474
  0
LINE
  8
0
 10
-9.964
 20
695.474
 11
-10.2281
 21
695.328
  0
LINE
  8
0
 10
-10.2281
 20
695.328
 11
-10.5083
 21
695.217
  0
LINE
  8
0
 10
-10.5083
 20
695.217
 11
-10.8003
 21
695.143
  0
LINE
  8
0
 10
-10.8003
 20
695.143
 11
-11.0993
 21
695.105
  0
LINE
  8
0
 10
-11.0993
 20
695.105
 11
-11.4007
 21
695.105
  0
LINE
  8
0
 10
11.0993
 20
590.105
 11
10.8003
 21
590.143
  0
LINE
  8
0
 10
10.8003
 20
590.143
 11
10.5083
 21
590.217
  0
LINE
  8
0
 10
10.5083
 20
590.217
 11
10.2281
 21
590.328
  0
LINE
  8
0
 10
10.2281
 20
590.328
 11
9.964
 21
590.474
  0
LINE
  8
0
 10
9.964
 20
590.474
 11
9.72017
 21
590.651
  0
LINE
  8
0
 10
9.72017
 20
590.651
 11
9.50047
 21
590.857
  0
LINE
  8
0
 10
9.50047
 20
590.857
 11
9.30835
 21
591.089
  0
LINE
  8
0
 10
9.30835
 20
591.089
 11
9.14685
 21
591.344
  0
LINE
  8
0
 10
9.14685
 20
591.344
 11
9.01852
 21
591.617
  0
LINE
  8
0
 10
9.01852
 20
591.617
 11
8.9254
 21
591.903
  0
LINE
  8
0
 10
8.9254
 20
591.903
 11
8.86891
 21
592.199
  0
LINE
  8
0
 10
8.86891
 20
592.199
 11
8.84999
 21
592.5
  0
LINE
  8
0
 10
8.84999
 20
592.5
 11
8.86891
 21
592.801
  0
LINE
  8
0
 10
8.86891
 20
592.801
 11
8.9254
 21
593.097
  0
LINE
  8
0
 10
8.9254
 20
593.097
 11
9.01852
 21
593.383
  0
LINE
  8
0
 10
9.01852
 20
593.383
 11
9.14685
 21
593.656
  0
LINE
  8
0
 10
9.14685
 20
593.656
 11
9.30835
 21
593.911
  0
LINE
  8
0
 10
9.30835
 20
593.911
 11
9.50047
 21
594.143
  0
LINE
  8
0
 10
9.50047
 20
594.143
 11
9.72017
 21
594.349
  0
LINE
  8
0
 10
9.72017
 20
594.349
 11
9.964
 21
594.526
  0
LINE
  8
0
 10
9.964
 20
594.526
 11
10.2281
 21
594.672
  0
LINE
  8
0
 10
10.2281
 20
594.672
 11
10.5083
 21
594.783
  0
LINE
  8
0
 10
10.5083
 20
594.783
 11
10.8003
 21
594.857
  0
LINE
  8
0
 10
10.8003
 20
594.857
 11
11.0993
 21
594.895
  0
LINE
  8
0
 10
11.0993
 20
594.895
 11
11.4007
 21
594.895
  0
LINE
  8
0
 10
11.4007
 20
594.895
 11
11.6997
 21
594.857
  0
LINE
  8
0
 10
11.6997
 20
594.857
 11
11.9916
 21
594.783
  0
LINE
  8
0
 10
11.9916
 20
594.783
 11
12.2719
 21
594.672
  0
LINE
  8
0
 10
12.2719
 20
594.672
 11
12.536
 21
594.526
  0
LINE
  8
0
 10
12.536
 20
594.526
 11
12.7798
 21
594.349
  0
LINE
  8
0
 10
12.7798
 20
594.349
 11
12.9995
 21
594.143
  0
LINE
  8
0
 10
12.9995
 20
594.143
 11
13.1916
 21
593.911
  0
LINE
  8
0
 10
13.1916
 20
593.911
 11
13.3531
 21
593.656
  0
LINE
  8
0
 10
13.3531
 20
593.656
 11
13.4815
 21
593.383
  0
LINE
  8
0
 10
13.4815
 20
593.383
 11
13.5746
 21
593.097
  0
LINE
  8
0
 10
13.5746
 20
593.097
 11
13.6311
 21
592.801
  0
LINE
  8
0
 10
13.6311
 20
592.801
 11
13.65
 21
592.5
  0
LINE
  8
0
 10
13.65
 20
592.5
 11
13.6311
 21
592.199
  0
LINE
  8
0
 10
13.6311
 20
592.199
 11
13.5746
 21
591.903
  0
LINE
  8
0
 10
13.5746
 20
591.903
 11
13.4815
 21
591.617
  0
LINE
  8
0
 10
13.4815
 20
591.617
 11
13.3531
 21
591.344
  0
LINE
  8
0
 10
13.3531
 20
591.344
 11
13.1916
 21
591.089
  0
LINE
  8
0
 10
13.1916
 20
591.089
 11
12.9995
 21
590.857
  0
LINE
  8
0
 10
12.9995
 20
590.857
 11
12.7798
 21
590.651
  0
LINE
  8
0
 10
12.7798
 20
590.651
 11
12.536
 21
590.474
  0
LINE
  8
0
 10
12.536
 20
590.474
 11
12.2719
 21
590.328
  0
LINE
  8
0
 10
12.2719
 20
590.328
 11
11.9916
 21
590.217
  0
LINE
  8
0
 10
11.9916
 20
590.217
 11
11.6997
 21
590.143
  0
LINE
  8
0
 10
11.6997
 20
590.143
 11
11.4007
 21
590.105
  0
LINE
  8
0
 10
11.4007
 20
590.105
 11
11.0993
 21
590.105
  0
LINE
  8
0
 10
-11.4007
 20
590.105
 11
-11.6997
 21
590.143
  0
LINE
  8
0
 10
-11.6997
 20
590.143
 11
-11.9916
 21
590.217
  0
LINE
  8
0
 10
-11.9916
 20
590.217
 11
-12.2719
 21
590.328
  0
LINE
  8
0
 10
-12.2719
 20
590.328
 11
-12.536
 21
590.474
  0
LINE
  8
0
 10
-12.536
 20
590.474
 11
-12.7798
 21
590.651
  0
LINE
  8
0
 10
-12.7798
 20
590.651
 11
-12.9995
 21
590.857
  0
LINE
  8
0
 10
-12.9995
 20
590.857
 11
-13.1916
 21
591.089
  0
LINE
  8
0
 10
-13.1916
 20
591.089
 11
-13.3531
 21
591.344
  0
LINE
  8
0
 10
-13.3531
 20
591.344
 11
-13.4815
 21
591.617
  0
LINE
  8
0
 10
-13.4815
 20
591.617
 11
-13.5746
 21
591.903
  0
LINE
  8
0
 10
-13.5746
 20
591.903
 11
-13.6311
 21
592.199
  0
LINE
  8
0
 10
-13.6311
 20
592.199
 11
-13.65
 21
592.5
  0
LINE
  8
0
 10
-13.65
 20
592.5
 11
-13.6311
 21
592.801
  0
LINE
  8
0
 10
-13.6311
 20
592.801
 11
-13.5746
 21
593.097
  0
LINE
  8
0
 10
-13.5746
 20
593.097
 11
-13.4815
 21
593.383
  0
LINE
  8
0
 10
-13.4815
 20
593.383
 11
-13.3531
 21
593.656
  0
LINE
  8
0
 10
-13.3531
 20
593.656
 11
-13.1916
 21
593.911
  0
LINE
  8
0
 10
-13.1916
 20
593.911
 11
-12.9995
 21
594.143
  0
LINE
  8
0
 10
-12.9995
 20
594.143
 11
-12.7798
 21
594.349
  0
LINE
  8
0
 10
-12.7798
 20
594.349
 11
-12.536
 21
594.526
  0
LINE
  8
0
 10
-12.536
 20
594.526
 11
-12.2719
 21
594.672
  0
LINE
  8
0
 10
-12.2719
 20
594.672
 11
-11.9916
 21
594.783
  0
LINE
  8
0
 10
-11.9916
 20
594.783
 11
-11.6997
 21
594.857
  0
LINE
  8
0
 10
-11.6997
 20
594.857
 11
-11.4007
 21
594.895
  0
LINE
  8
0
 10
-11.4007
 20
594.895
 11
-11.0993
 21
594.895
  0
LINE
  8
0
 10
-11.0993
 20
594.895
 11
-10.8003
 21
594.857
  0
LINE
  8
0
 10
-10.8003
 20
594.857
 11
-10.5083
 21
594.783
  0
LINE
  8
0
 10
-10.5083
 20
594.783
 11
-10.2281
 21
594.672
  0
LINE
  8
0
 10
-10.2281
 20
594.672
 11
-9.964
 21
594.526
  0
LINE
  8
0
 10
-9.964
 20
594.526
 11
-9.72017
 21
594.349
  0
LINE
  8
0
 10
-9.72017
 20
594.349
 11
-9.50047
 21
594.143
  0
LINE
  8
0
 10
-9.50047
 20
594.143
 11
-9.30835
 21
593.911
  0
LINE
  8
0
 10
-9.30835
 20
593.911
 11
-9.14685
 21
593.656
  0
LINE
  8
0
 10
-9.14685
 20
593.656
 11
-9.01852
 21
593.383
  0
LINE
  8
0
 10
-9.01852
 20
593.383
 11
-8.9254
 21
593.097
  0
LINE
  8
0
 10
-8.9254
 20
593.097
 11
-8.86891
 21
592.801
  0
LINE
  8
0
 10
-8.86891
 20
592.801
 11
-8.84999
 21
592.5
  0
LINE
  8
0
 10
-8.84999
 20
592.5
 11
-8.86891
 21
592.199
  0
LINE
  8
0
 10
-8.86891
 20
592.199
 11
-8.9254
 21
591.903
  0
LINE
  8
0
 10
-8.9254
 20
591.903
 11
-9.01852
 21
591.617
  0
LINE
  8
0
 10
-9.01852
 20
591.617
 11
-9.14685
 21
591.344
  0
LINE
  8
0
 10
-9.14685
 20
591.344
 11
-9.30835
 21
591.089
  0
LINE
  8
0
 10
-9.30835
 20
591.089
 11
-9.50047
 21
590.857
  0
LINE
  8
0
 10
-9.50047
 20
590.857
 11
-9.72017
 21
590.651
  0
LINE
  8
0
 10
-9.72017
 20
590.651
 11
-9.964
 21
590.474
  0
LINE
  8
0
 10
-9.964
 20
590.474
 11
-10.2281
 21
590.328
  0
LINE
  8
0
 10
-10.2281
 20
590.328
 11
-10.5083
 21
590.217
  0
LINE
  8
0
 10
-10.5083
 20
590.217
 11
-10.8003
 21
590.143
  0
LINE
  8
0
 10
-10.8003
 20
590.143
 11
-11.0993
 21
590.105
  0
LINE
  8
0
 10
-11.0993
 20
590.105
 11
-11.4007
 21
590.105
  0
LINE
  8
0
 10
14.6869
 20
456.089
 11
15.2951
 21
456.245
  0
LINE
  8
0
 10
15.2951
 20
456.245
 11
15.8789
 21
456.476
  0
LINE
  8
0
 10
15.8789
 20
456.476
 11
16.4291
 21
456.778
  0
LINE
  8
0
 10
16.4291
 20
456.778
 11
16.9371
 21
457.147
  0
LINE
  8
0
 10
16.9371
 20
457.147
 11
17.3948
 21
457.577
  0
LINE
  8
0
 10
17.3948
 20
457.577
 11
17.7951
 21
458.061
  0
LINE
  8
0
 10
17.7951
 20
458.061
 11
18.1315
 21
458.591
  0
LINE
  8
0
 10
18.1315
 20
458.591
 11
18.3989
 21
459.159
  0
LINE
  8
0
 10
18.3989
 20
459.159
 11
18.5929
 21
459.757
  0
LINE
  8
0
 10
18.5929
 20
459.757
 11
18.7106
 21
460.373
  0
LINE
  8
0
 10
18.7106
 20
460.373
 11
18.75
 21
461
  0
LINE
  8
0
 10
18.75
 20
461
 11
18.75
 21
571
  0
LINE
  8
0
 10
18.75
 20
571
 11
18.7106
 21
571.627
  0
LINE
  8
0
 10
18.7106
 20
571.627
 11
18.5929
 21
572.243
  0
LINE
  8
0
 10
18.5929
 20
572.243
 11
18.3989
 21
572.841
  0
LINE
  8
0
 10
18.3989
 20
572.841
 11
18.1315
 21
573.409
  0
LINE
  8
0
 10
18.1315
 20
573.409
 11
17.7951
 21
573.939
  0
LINE
  8
0
 10
17.7951
 20
573.939
 11
17.3948
 21
574.423
  0
LINE
  8
0
 10
17.3948
 20
574.423
 11
16.9371
 21
574.853
  0
LINE
  8
0
 10
16.9371
 20
574.853
 11
16.4291
 21
575.222
  0
LINE
  8
0
 10
16.4291
 20
575.222
 11
15.8789
 21
575.524
  0
LINE
  8
0
 10
15.8789
 20
575.524
 11
15.2951
 21
575.755
  0
LINE
  8
0
 10
15.2951
 20
575.755
 11
14.6869
 21
575.911
  0
LINE
  8
0
 10
14.6869
 20
575.911
 11
14.0639
 21
575.99
  0
LINE
  8
0
 10
14.0639
 20
575.99
 11
-14.0639
 21
575.99
  0
LINE
  8
0
 10
-14.0639
 20
575.99
 11
-14.6869
 21
575.911
  0
LINE
  8
0
 10
-14.6869
 20
575.911
 11
-15.2951
 21
575.755
  0
LINE
  8
0
 10
-15.2951
 20
575.755
 11
-15.8789
 21
575.524
  0
LINE
  8
0
 10
-15.8789
 20
575.524
 11
-16.4291
 21
575.222
  0
LINE
  8
0
 10
-16.4291
 20
575.222
 11
-16.9371
 21
574.853
  0
LINE
  8
0
 10
-16.9371
 20
574.853
 11
-17.3948
 21
574.423
  0
LINE
  8
0
 10
-17.3948
 20
574.423
 11
-17.7951
 21
573.939
  0
LINE
  8
0
 10
-17.7951
 20
573.939
 11
-18.1315
 21
573.409
  0
LINE
  8
0
 10
-18.1315
 20
573.409
 11
-18.3989
 21
572.841
  0
LINE
  8
0
 10
-18.3989
 20
572.841
 11
-18.5929
 21
572.243
  0
LINE
  8
0
 10
-18.5929
 20
572.243
 11
-18.7106
 21
571.627
  0
LINE
  8
0
 10
-18.7106
 20
571.627
 11
-18.75
 21
571
  0
LINE
  8
0
 10
-18.75
 20
571
 11
-18.75
 21
461
  0
LINE
  8
0
 10
-18.75
 20
461
 11
-18.7106
 21
460.373
  0
LINE
  8
0
 10
-18.7106
 20
460.373
 11
-18.5929
 21
459.757
  0
LINE
  8
0
 10
-18.5929
 20
459.757
 11
-18.3989
 21
459.159
  0
LINE
  8
0
 10
-18.3989
 20
459.159
 11
-18.1315
 21
458.591
  0
LINE
  8
0
 10
-18.1315
 20
458.591
 11
-17.7951
 21
458.061
  0
LINE
  8
0
 10
-17.7951
 20
458.061
 11
-17.3948
 21
457.577
  0
LINE
  8
0
 10
-17.3948
 20
457.577
 11
-16.9371
 21
457.147
  0
LINE
  8
0
 10
-16.9371
 20
457.147
 11
-16.4291
 21
456.778
  0
LINE
  8
0
 10
-16.4291
 20
456.778
 11
-15.8789
 21
456.476
  0
LINE
  8
0
 10
-15.8789
 20
456.476
 11
-15.2951
 21
456.245
  0
LINE
  8
0
 10
-15.2951
 20
456.245
 11
-14.6869
 21
456.089
  0
LINE
  8
0
 10
-14.6869
 20
456.089
 11
-14.0639
 21
456.01
  0
LINE
  8
0
 10
-14.0639
 20
456.01
 11
14.0639
 21
456.01
  0
LINE
  8
0
 10
14.0639
 20
456.01
 11
14.6869
 21
456.089
  0
LINE
  8
0
 10
11.137
 20
566.704
 11
10.9127
 21
566.732
  0
LINE
  8
0
 10
10.9127
 20
566.732
 11
10.6938
 21
566.788
  0
LINE
  8
0
 10
10.6938
 20
566.788
 11
10.4836
 21
566.871
  0
LINE
  8
0
 10
10.4836
 20
566.871
 11
10.2855
 21
566.98
  0
LINE
  8
0
 10
10.2855
 20
566.98
 11
10.1026
 21
567.113
  0
LINE
  8
0
 10
10.1026
 20
567.113
 11
9.93785
 21
567.268
  0
LINE
  8
0
 10
9.93785
 20
567.268
 11
9.79376
 21
567.442
  0
LINE
  8
0
 10
9.79376
 20
567.442
 11
9.67264
 21
567.633
  0
LINE
  8
0
 10
9.67264
 20
567.633
 11
9.5764
 21
567.837
  0
LINE
  8
0
 10
9.5764
 20
567.837
 11
9.50655
 21
568.052
  0
LINE
  8
0
 10
9.50655
 20
568.052
 11
9.46419
 21
568.274
  0
LINE
  8
0
 10
9.46419
 20
568.274
 11
9.45
 21
568.5
  0
LINE
  8
0
 10
9.45
 20
568.5
 11
9.46419
 21
568.726
  0
LINE
  8
0
 10
9.46419
 20
568.726
 11
9.50655
 21
568.948
  0
LINE
  8
0
 10
9.50655
 20
568.948
 11
9.5764
 21
569.163
  0
LINE
  8
0
 10
9.5764
 20
569.163
 11
9.67264
 21
569.367
  0
LINE
  8
0
 10
9.67264
 20
569.367
 11
9.79376
 21
569.558
  0
LINE
  8
0
 10
9.79376
 20
569.558
 11
9.93785
 21
569.732
  0
LINE
  8
0
 10
9.93785
 20
569.732
 11
10.1026
 21
569.887
  0
LINE
  8
0
 10
10.1026
 20
569.887
 11
10.2855
 21
570.02
  0
LINE
  8
0
 10
10.2855
 20
570.02
 11
10.4836
 21
570.129
  0
LINE
  8
0
 10
10.4836
 20
570.129
 11
10.6938
 21
570.212
  0
LINE
  8
0
 10
10.6938
 20
570.212
 11
10.9127
 21
570.268
  0
LINE
  8
0
 10
10.9127
 20
570.268
 11
11.137
 21
570.296
  0
LINE
  8
0
 10
11.137
 20
570.296
 11
11.363
 21
570.296
  0
LINE
  8
0
 10
11.363
 20
570.296
 11
11.5873
 21
570.268
  0
LINE
  8
0
 10
11.5873
 20
570.268
 11
11.8062
 21
570.212
  0
LINE
  8
0
 10
11.8062
 20
570.212
 11
12.0164
 21
570.129
  0
LINE
  8
0
 10
12.0164
 20
570.129
 11
12.2145
 21
570.02
  0
LINE
  8
0
 10
12.2145
 20
570.02
 11
12.3974
 21
569.887
  0
LINE
  8
0
 10
12.3974
 20
569.887
 11
12.5621
 21
569.732
  0
LINE
  8
0
 10
12.5621
 20
569.732
 11
12.7062
 21
569.558
  0
LINE
  8
0
 10
12.7062
 20
569.558
 11
12.8273
 21
569.367
  0
LINE
  8
0
 10
12.8273
 20
569.367
 11
12.9236
 21
569.163
  0
LINE
  8
0
 10
12.9236
 20
569.163
 11
12.9934
 21
568.948
  0
LINE
  8
0
 10
12.9934
 20
568.948
 11
13.0358
 21
568.726
  0
LINE
  8
0
 10
13.0358
 20
568.726
 11
13.05
 21
568.5
  0
LINE
  8
0
 10
13.05
 20
568.5
 11
13.0358
 21
568.274
  0
LINE
  8
0
 10
13.0358
 20
568.274
 11
12.9934
 21
568.052
  0
LINE
  8
0
 10
12.9934
 20
568.052
 11
12.9236
 21
567.837
  0
LINE
  8
0
 10
12.9236
 20
567.837
 11
12.8273
 21
567.633
  0
LINE
  8
0
 10
12.8273
 20
567.633
 11
12.7062
 21
567.442
  0
LINE
  8
0
 10
12.7062
 20
567.442
 11
12.5621
 21
567.268
  0
LINE
  8
0
 10
12.5621
 20
567.268
 11
12.3974
 21
567.113
  0
LINE
  8
0
 10
12.3974
 20
567.113
 11
12.2145
 21
566.98
  0
LINE
  8
0
 10
12.2145
 20
566.98
 11
12.0164
 21
566.871
  0
LINE
  8
0
 10
12.0164
 20
566.871
 11
11.8062
 21
566.788
  0
LINE
  8
0
 10
11.8062
 20
566.788
 11
11.5873
 21
566.732
  0
LINE
  8
0
 10
11.5873
 20
566.732
 11
11.363
 21
566.704
  0
LINE
  8
0
 10
11.363
 20
566.704
 11
11.137
 21
566.704
  0
LINE
  8
0
 10
-11.363
 20
566.704
 11
-11.5873
 21
566.732
  0
LINE
  8
0
 10
-11.5873
 20
566.732
 11
-11.8062
 21
566.788
  0
LINE
  8
0
 10
-11.8062
 20
566.788
 11
-12.0164
 21
566.871
  0
LINE
  8
0
 10
-12.0164
 20
566.871
 11
-12.2145
 21
566.98
  0
LINE
  8
0
 10
-12.2145
 20
566.98
 11
-12.3974
 21
567.113
  0
LINE
  8
0
 10
-12.3974
 20
567.113
 11
-12.5621
 21
567.268
  0
LINE
  8
0
 10
-12.5621
 20
567.268
 11
-12.7062
 21
567.442
  0
LINE
  8
0
 10
-12.7062
 20
567.442
 11
-12.8273
 21
567.633
  0
LINE
  8
0
 10
-12.8273
 20
567.633
 11
-12.9236
 21
567.837
  0
LINE
  8
0
 10
-12.9236
 20
567.837
 11
-12.9934
 21
568.052
  0
LINE
  8
0
 10
-12.9934
 20
568.052
 11
-13.0358
 21
568.274
  0
LINE
  8
0
 10
-13.0358
 20
568.274
 11
-13.05
 21
568.5
  0
LINE
  8
0
 10
-13.05
 20
568.5
 11
-13.0358
 21
568.726
  0
LINE
  8
0
 10
-13.0358
 20
568.726
 11
-12.9934
 21
568.948
  0
LINE
  8
0
 10
-12.9934
 20
568.948
 11
-12.9236
 21
569.163
  0
LINE
  8
0
 10
-12.9236
 20
569.163
 11
-12.8273
 21
569.367
  0
LINE
  8
0
 10
-12.8273
 20
569.367
 11
-12.7062
 21
569.558
  0
LINE
  8
0
 10
-12.7062
 20
569.558
 11
-12.5621
 21
569.732
  0
LINE
  8
0
 10
-12.5621
 20
569.732
 11
-12.3974
 21
569.887
  0
LINE
  8
0
 10
-12.3974
 20
569.887
 11
-12.2145
 21
570.02
  0
LINE
  8
0
 10
-12.2145
 20
570.02
 11
-12.0164
 21
570.129
  0
LINE
  8
0
 10
-12.0164
 20
570.129
 11
-11.8062
 21
570.212
  0
LINE
  8
0
 10
-11.8062
 20
570.212
 11
-11.5873
 21
570.268
  0
LINE
  8
0
 10
-11.5873
 20
570.268
 11
-11.363
 21
570.296
  0
LINE
  8
0
 10
-11.363
 20
570.296
 11
-11.137
 21
570.296
  0
LINE
  8
0
 10
-11.137
 20
570.296
 11
-10.9127
 21
570.268
  0
LINE
  8
0
 10
-10.9127
 20
570.268
 11
-10.6938
 21
570.212
  0
LINE
  8
0
 10
-10.6938
 20
570.212
 11
-10.4836
 21
570.129
  0
LINE
  8
0
 10
-10.4836
 20
570.129
 11
-10.2855
 21
570.02
  0
LINE
  8
0
 10
-10.2855
 20
570.02
 11
-10.1026
 21
569.887
  0
LINE
  8
0
 10
-10.1026
 20
569.887
 11
-9.93785
 21
569.732
  0
LINE
  8
0
 10
-9.93785
 20
569.732
 11
-9.79376
 21
569.558
  0
LINE
  8
0
 10
-9.79376
 20
569.558
 11
-9.67264
 21
569.367
  0
LINE
  8
0
 10
-9.67264
 20
569.367
 11
-9.5764
 21
569.163
  0
LINE
  8
0
 10
-9.5764
 20
569.163
 11
-9.50655
 21
568.948
  0
LINE
  8
0
 10
-9.50655
 20
568.948
 11
-9.46419
 21
568.726
  0
LINE
  8
0
 10
-9.46419
 20
568.726
 11
-9.45
 21
568.5
  0
LINE
  8
0
 10
-9.45
 20
568.5
 11
-9.46419
 21
568.274
  0
LINE
  8
0
 10
-9.46419
 20
568.274
 11
-9.50655
 21
568.052
  0
LINE
  8
0
 10
-9.50655
 20
568.052
 11
-9.5764
 21
567.837
  0
LINE
  8
0
 10
-9.5764
 20
567.837
 11
-9.67264
 21
567.633
  0
LINE
  8
0
 10
-9.67264
 20
567.633
 11
-9.79376
 21
567.442
  0
LINE
  8
0
 10
-9.79376
 20
567.442
 11
-9.93785
 21
567.268
  0
LINE
  8
0
 10
-9.93785
 20
567.268
 11
-10.1026
 21
567.113
  0
LINE
  8
0
 10
-10.1026
 20
567.113
 11
-10.2855
 21
566.98
  0
LINE
  8
0
 10
-10.2855
 20
566.98
 11
-10.4836
 21
566.871
  0
LINE
  8
0
 10
-10.4836
 20
566.871
 11
-10.6938
 21
566.788
  0
LINE
  8
0
 10
-10.6938
 20
566.788
 11
-10.9127
 21
566.732
  0
LINE
  8
0
 10
-10.9127
 20
566.732
 11
-11.137
 21
566.704
  0
LINE
  8
0
 10
-11.137
 20
566.704
 11
-11.363
 21
566.704
  0
LINE
  8
0
 10
-11.363
 20
461.704
 11
-11.5873
 21
461.732
  0
LINE
  8
0
 10
-11.5873
 20
461.732
 11
-11.8062
 21
461.788
  0
LINE
  8
0
 10
-11.8062
 20
461.788
 11
-12.0164
 21
461.871
  0
LINE
  8
0
 10
-12.0164
 20
461.871
 11
-12.2145
 21
461.98
  0
LINE
  8
0
 10
-12.2145
 20
461.98
 11
-12.3974
 21
462.113
  0
LINE
  8
0
 10
-12.3974
 20
462.113
 11
-12.5621
 21
462.268
  0
LINE
  8
0
 10
-12.5621
 20
462.268
 11
-12.7062
 21
462.442
  0
LINE
  8
0
 10
-12.7062
 20
462.442
 11
-12.8273
 21
462.633
  0
LINE
  8
0
 10
-12.8273
 20
462.633
 11
-12.9236
 21
462.837
  0
LINE
  8
0
 10
-12.9236
 20
462.837
 11
-12.9934
 21
463.052
  0
LINE
  8
0
 10
-12.9934
 20
463.052
 11
-13.0358
 21
463.274
  0
LINE
  8
0
 10
-13.0358
 20
463.274
 11
-13.05
 21
463.5
  0
LINE
  8
0
 10
-13.05
 20
463.5
 11
-13.0358
 21
463.726
  0
LINE
  8
0
 10
-13.0358
 20
463.726
 11
-12.9934
 21
463.948
  0
LINE
  8
0
 10
-12.9934
 20
463.948
 11
-12.9236
 21
464.163
  0
LINE
  8
0
 10
-12.9236
 20
464.163
 11
-12.8273
 21
464.367
  0
LINE
  8
0
 10
-12.8273
 20
464.367
 11
-12.7062
 21
464.558
  0
LINE
  8
0
 10
-12.7062
 20
464.558
 11
-12.5621
 21
464.732
  0
LINE
  8
0
 10
-12.5621
 20
464.732
 11
-12.3974
 21
464.887
  0
LINE
  8
0
 10
-12.3974
 20
464.887
 11
-12.2145
 21
465.02
  0
LINE
  8
0
 10
-12.2145
 20
465.02
 11
-12.0164
 21
465.129
  0
LINE
  8
0
 10
-12.0164
 20
465.129
 11
-11.8062
 21
465.212
  0
LINE
  8
0
 10
-11.8062
 20
465.212
 11
-11.5873
 21
465.268
  0
LINE
  8
0
 10
-11.5873
 20
465.268
 11
-11.363
 21
465.296
  0
LINE
  8
0
 10
-11.363
 20
465.296
 11
-11.137
 21
465.296
  0
LINE
  8
0
 10
-11.137
 20
465.296
 11
-10.9127
 21
465.268
  0
LINE
  8
0
 10
-10.9127
 20
465.268
 11
-10.6938
 21
465.212
  0
LINE
  8
0
 10
-10.6938
 20
465.212
 11
-10.4836
 21
465.129
  0
LINE
  8
0
 10
-10.4836
 20
465.129
 11
-10.2855
 21
465.02
  0
LINE
  8
0
 10
-10.2855
 20
465.02
 11
-10.1026
 21
464.887
  0
LINE
  8
0
 10
-10.1026
 20
464.887
 11
-9.93785
 21
464.732
  0
LINE
  8
0
 10
-9.93785
 20
464.732
 11
-9.79376
 21
464.558
  0
LINE
  8
0
 10
-9.79376
 20
464.558
 11
-9.67264
 21
464.367
  0
LINE
  8
0
 10
-9.67264
 20
464.367
 11
-9.5764
 21
464.163
  0
LINE
  8
0
 10
-9.5764
 20
464.163
 11
-9.50655
 21
463.948
  0
LINE
  8
0
 10
-9.50655
 20
463.948
 11
-9.46419
 21
463.726
  0
LINE
  8
0
 10
-9.46419
 20
463.726
 11
-9.45
 21
463.5
  0
LINE
  8
0
 10
-9.45
 20
463.5
 11
-9.46419
 21
463.274
  0
LINE
  8
0
 10
-9.46419
 20
463.274
 11
-9.50655
 21
463.052
  0
LINE
  8
0
 10
-9.50655
 20
463.052
 11
-9.5764
 21
462.837
  0
LINE
  8
0
 10
-9.5764
 20
462.837
 11
-9.67264
 21
462.633
  0
LINE
  8
0
 10
-9.67264
 20
462.633
 11
-9.79376
 21
462.442
  0
LINE
  8
0
 10
-9.79376
 20
462.442
 11
-9.93785
 21
462.268
  0
LINE
  8
0
 10
-9.93785
 20
462.268
 11
-10.1026
 21
462.113
  0
LINE
  8
0
 10
-10.1026
 20
462.113
 11
-10.2855
 21
461.98
  0
LINE
  8
0
 10
-10.2855
 20
461.98
 11
-10.4836
 21
461.871
  0
LINE
  8
0
 10
-10.4836
 20
461.871
 11
-10.6938
 21
461.788
  0
LINE
  8
0
 10
-10.6938
 20
461.788
 11
-10.9127
 21
461.732
  0
LINE
  8
0
 10
-10.9127
 20
461.732
 11
-11.137
 21
461.704
  0
LINE
  8
0
 10
-11.137
 20
461.704
 11
-11.363
 21
461.704
  0
LINE
  8
0
 10
11.137
 20
461.704
 11
10.9127
 21
461.732
  0
LINE
  8
0
 10
10.9127
 20
461.732
 11
10.6938
 21
461.788
  0
LINE
  8
0
 10
10.6938
 20
461.788
 11
10.4836
 21
461.871
  0
LINE
  8
0
 10
10.4836
 20
461.871
 11
10.2855
 21
461.98
  0
LINE
  8
0
 10
10.2855
 20
461.98
 11
10.1026
 21
462.113
  0
LINE
  8
0
 10
10.1026
 20
462.113
 11
9.93785
 21
462.268
  0
LINE
  8
0
 10
9.93785
 20
462.268
 11
9.79376
 21
462.442
  0
LINE
  8
0
 10
9.79376
 20
462.442
 11
9.67264
 21
462.633
  0
LINE
  8
0
 10
9.67264
 20
462.633
 11
9.5764
 21
462.837
  0
LINE
  8
0
 10
9.5764
 20
462.837
 11
9.50655
 21
463.052
  0
LINE
  8
0
 10
9.50655
 20
463.052
 11
9.46419
 21
463.274
  0
LINE
  8
0
 10
9.46419
 20
463.274
 11
9.45
 21
463.5
  0
LINE
  8
0
 10
9.45
 20
463.5
 11
9.46419
 21
463.726
  0
LINE
  8
0
 10
9.46419
 20
463.726
 11
9.50655
 21
463.948
  0
LINE
  8
0
 10
9.50655
 20
463.948
 11
9.5764
 21
464.163
  0
LINE
  8
0
 10
9.5764
 20
464.163
 11
9.67264
 21
464.367
  0
LINE
  8
0
 10
9.67264
 20
464.367
 11
9.79376
 21
464.558
  0
LINE
  8
0
 10
9.79376
 20
464.558
 11
9.93785
 21
464.732
  0
LINE
  8
0
 10
9.93785
 20
464.732
 11
10.1026
 21
464.887
  0
LINE
  8
0
 10
10.1026
 20
464.887
 11
10.2855
 21
465.02
  0
LINE
  8
0
 10
10.2855
 20
465.02
 11
10.4836
 21
465.129
  0
LINE
  8
0
 10
10.4836
 20
465.129
 11
10.6938
 21
465.212
  0
LINE
  8
0
 10
10.6938
 20
465.212
 11
10.9127
 21
465.268
  0
LINE
  8
0
 10
10.9127
 20
465.268
 11
11.137
 21
465.296
  0
LINE
  8
0
 10
11.137
 20
465.296
 11
11.363
 21
465.296
  0
LINE
  8
0
 10
11.363
 20
465.296
 11
11.5873
 21
465.268
  0
LINE
  8
0
 10
11.5873
 20
465.268
 11
11.8062
 21
465.212
  0
LINE
  8
0
 10
11.8062
 20
465.212
 11
12.0164
 21
465.129
  0
LINE
  8
0
 10
12.0164
 20
465.129
 11
12.2145
 21
465.02
  0
LINE
  8
0
 10
12.2145
 20
465.02
 11
12.3974
 21
464.887
  0
LINE
  8
0
 10
12.3974
 20
464.887
 11
12.5621
 21
464.732
  0
LINE
  8
0
 10
12.5621
 20
464.732
 11
12.7062
 21
464.558
  0
LINE
  8
0
 10
12.7062
 20
464.558
 11
12.8273
 21
464.367
  0
LINE
  8
0
 10
12.8273
 20
464.367
 11
12.9236
 21
464.163
  0
LINE
  8
0
 10
12.9236
 20
464.163
 11
12.9934
 21
463.948
  0
LINE
  8
0
 10
12.9934
 20
463.948
 11
13.0358
 21
463.726
  0
LINE
  8
0
 10
13.0358
 20
463.726
 11
13.05
 21
463.5
  0
LINE
  8
0
 10
13.05
 20
463.5
 11
13.0358
 21
463.274
  0
LINE
  8
0
 10
13.0358
 20
463.274
 11
12.9934
 21
463.052
  0
LINE
  8
0
 10
12.9934
 20
463.052
 11
12.9236
 21
462.837
  0
LINE
  8
0
 10
12.9236
 20
462.837
 11
12.8273
 21
462.633
  0
LINE
  8
0
 10
12.8273
 20
462.633
 11
12.7062
 21
462.442
  0
LINE
  8
0
 10
12.7062
 20
462.442
 11
12.5621
 21
462.268
  0
LINE
  8
0
 10
12.5621
 20
462.268
 11
12.3974
 21
462.113
  0
LINE
  8
0
 10
12.3974
 20
462.113
 11
12.2145
 21
461.98
  0
LINE
  8
0
 10
12.2145
 20
461.98
 11
12.0164
 21
461.871
  0
LINE
  8
0
 10
12.0164
 20
461.871
 11
11.8062
 21
461.788
  0
LINE
  8
0
 10
11.8062
 20
461.788
 11
11.5873
 21
461.732
  0
LINE
  8
0
 10
11.5873
 20
461.732
 11
11.363
 21
461.704
  0
LINE
  8
0
 10
11.363
 20
461.704
 11
11.137
 21
461.704
  0
ENDSEC
  0
SECTION
  2
OBJECTS
  0
DICTIONARY
  0
ENDSEC
  0
EOF
