  0
SECTION
  2
BLOCKS
  0
ENDSEC
  0
SECTION
  2
ENTITIES
  0
LINE
  8
0
 10
100.937
 20
981.089
 11
101.545
 21
981.245
  0
LINE
  8
0
 10
101.545
 20
981.245
 11
102.129
 21
981.476
  0
LINE
  8
0
 10
102.129
 20
981.476
 11
102.679
 21
981.778
  0
LINE
  8
0
 10
102.679
 20
981.778
 11
103.187
 21
982.147
  0
LINE
  8
0
 10
103.187
 20
982.147
 11
103.645
 21
982.577
  0
LINE
  8
0
 10
103.645
 20
982.577
 11
104.045
 21
983.061
  0
LINE
  8
0
 10
104.045
 20
983.061
 11
104.382
 21
983.591
  0
LINE
  8
0
 10
104.382
 20
983.591
 11
104.649
 21
984.159
  0
LINE
  8
0
 10
104.649
 20
984.159
 11
104.843
 21
984.757
  0
LINE
  8
0
 10
104.843
 20
984.757
 11
104.961
 21
985.373
  0
LINE
  8
0
 10
104.961
 20
985.373
 11
105
 21
986
  0
LINE
  8
0
 10
105
 20
986
 11
105
 21
1246
  0
LINE
  8
0
 10
105
 20
1246
 11
104.961
 21
1246.63
  0
LINE
  8
0
 10
104.961
 20
1246.63
 11
104.843
 21
1247.24
  0
LINE
  8
0
 10
104.843
 20
1247.24
 11
104.649
 21
1247.84
  0
LINE
  8
0
 10
104.649
 20
1247.84
 11
104.382
 21
1248.41
  0
LINE
  8
0
 10
104.382
 20
1248.41
 11
104.045
 21
1248.94
  0
LINE
  8
0
 10
104.045
 20
1248.94
 11
103.645
 21
1249.42
  0
LINE
  8
0
 10
103.645
 20
1249.42
 11
103.187
 21
1249.85
  0
LINE
  8
0
 10
103.187
 20
1249.85
 11
102.679
 21
1250.22
  0
LINE
  8
0
 10
102.679
 20
1250.22
 11
102.129
 21
1250.52
  0
LINE
  8
0
 10
102.129
 20
1250.52
 11
101.545
 21
1250.76
  0
LINE
  8
0
 10
101.545
 20
1250.76
 11
100.937
 21
1250.91
  0
LINE
  8
0
 10
100.937
 20
1250.91
 11
100.314
 21
1250.99
  0
LINE
  8
0
 10
100.314
 20
1250.99
 11
-100.314
 21
1250.99
  0
LINE
  8
0
 10
-100.314
 20
1250.99
 11
-100.937
 21
1250.91
  0
LINE
  8
0
 10
-100.937
 20
1250.91
 11
-101.545
 21
1250.76
  0
LINE
  8
0
 10
-101.545
 20
1250.76
 11
-102.129
 21
1250.52
  0
LINE
  8
0
 10
-102.129
 20
1250.52
 11
-102.679
 21
1250.22
  0
LINE
  8
0
 10
-102.679
 20
1250.22
 11
-103.187
 21
1249.85
  0
LINE
  8
0
 10
-103.187
 20
1249.85
 11
-103.645
 21
1249.42
  0
LINE
  8
0
 10
-103.645
 20
1249.42
 11
-104.045
 21
1248.94
  0
LINE
  8
0
 10
-104.045
 20
1248.94
 11
-104.382
 21
1248.41
  0
LINE
  8
0
 10
-104.382
 20
1248.41
 11
-104.649
 21
1247.84
  0
LINE
  8
0
 10
-104.649
 20
1247.84
 11
-104.843
 21
1247.24
  0
LINE
  8
0
 10
-104.843
 20
1247.24
 11
-104.961
 21
1246.63
  0
LINE
  8
0
 10
-104.961
 20
1246.63
 11
-105
 21
1246
  0
LINE
  8
0
 10
-105
 20
1246
 11
-105
 21
986
  0
LINE
  8
0
 10
-105
 20
986
 11
-104.961
 21
985.373
  0
LINE
  8
0
 10
-104.961
 20
985.373
 11
-104.843
 21
984.757
  0
LINE
  8
0
 10
-104.843
 20
984.757
 11
-104.649
 21
984.159
  0
LINE
  8
0
 10
-104.649
 20
984.159
 11
-104.382
 21
983.591
  0
LINE
  8
0
 10
-104.382
 20
983.591
 11
-104.045
 21
983.061
  0
LINE
  8
0
 10
-104.045
 20
983.061
 11
-103.645
 21
982.577
  0
LINE
  8
0
 10
-103.645
 20
982.577
 11
-103.187
 21
982.147
  0
LINE
  8
0
 10
-103.187
 20
982.147
 11
-102.679
 21
981.778
  0
LINE
  8
0
 10
-102.679
 20
981.778
 11
-102.129
 21
981.476
  0
LINE
  8
0
 10
-102.129
 20
981.476
 11
-101.545
 21
981.245
  0
LINE
  8
0
 10
-101.545
 20
981.245
 11
-100.937
 21
981.089
  0
LINE
  8
0
 10
-100.937
 20
981.089
 11
-100.314
 21
981.01
  0
LINE
  8
0
 10
-100.314
 20
981.01
 11
100.314
 21
981.01
  0
LINE
  8
0
 10
100.314
 20
981.01
 11
100.937
 21
981.089
  0
LINE
  8
0
 10
-99.7432
 20
982.635
 11
-100.226
 21
982.696
  0
LINE
  8
0
 10
-100.226
 20
982.696
 11
-100.697
 21
982.817
  0
LINE
  8
0
 10
-100.697
 20
982.817
 11
-101.149
 21
982.996
  0
LINE
  8
0
 10
-101.149
 20
982.996
 11
-101.575
 21
983.23
  0
LINE
  8
0
 10
-101.575
 20
983.23
 11
-101.969
 21
983.516
  0
LINE
  8
0
 10
-101.969
 20
983.516
 11
-102.323
 21
983.849
  0
LINE
  8
0
 10
-102.323
 20
983.849
 11
-102.633
 21
984.224
  0
LINE
  8
0
 10
-102.633
 20
984.224
 11
-102.894
 21
984.634
  0
LINE
  8
0
 10
-102.894
 20
984.634
 11
-103.101
 21
985.074
  0
LINE
  8
0
 10
-103.101
 20
985.074
 11
-103.251
 21
985.537
  0
LINE
  8
0
 10
-103.251
 20
985.537
 11
-103.342
 21
986.015
  0
LINE
  8
0
 10
-103.342
 20
986.015
 11
-103.373
 21
986.5
  0
LINE
  8
0
 10
-103.373
 20
986.5
 11
-103.373
 21
1245.5
  0
LINE
  8
0
 10
-103.373
 20
1245.5
 11
-103.342
 21
1245.99
  0
LINE
  8
0
 10
-103.342
 20
1245.99
 11
-103.251
 21
1246.46
  0
LINE
  8
0
 10
-103.251
 20
1246.46
 11
-103.101
 21
1246.93
  0
LINE
  8
0
 10
-103.101
 20
1246.93
 11
-102.894
 21
1247.37
  0
LINE
  8
0
 10
-102.894
 20
1247.37
 11
-102.633
 21
1247.78
  0
LINE
  8
0
 10
-102.633
 20
1247.78
 11
-102.323
 21
1248.15
  0
LINE
  8
0
 10
-102.323
 20
1248.15
 11
-101.969
 21
1248.48
  0
LINE
  8
0
 10
-101.969
 20
1248.48
 11
-101.575
 21
1248.77
  0
LINE
  8
0
 10
-101.575
 20
1248.77
 11
-101.149
 21
1249
  0
LINE
  8
0
 10
-101.149
 20
1249
 11
-100.697
 21
1249.18
  0
LINE
  8
0
 10
-100.697
 20
1249.18
 11
-100.226
 21
1249.3
  0
LINE
  8
0
 10
-100.226
 20
1249.3
 11
-99.7432
 21
1249.36
  0
LINE
  8
0
 10
-99.7432
 20
1249.36
 11
99.7432
 21
1249.36
  0
LINE
  8
0
 10
99.7432
 20
1249.36
 11
100.226
 21
1249.3
  0
LINE
  8
0
 10
100.226
 20
1249.3
 11
100.697
 21
1249.18
  0
LINE
  8
0
 10
100.697
 20
1249.18
 11
101.149
 21
1249
  0
LINE
  8
0
 10
101.149
 20
1249
 11
101.575
 21
1248.77
  0
LINE
  8
0
 10
101.575
 20
1248.77
 11
101.969
 21
1248.48
  0
LINE
  8
0
 10
101.969
 20
1248.48
 11
102.323
 21
1248.15
  0
LINE
  8
0
 10
102.323
 20
1248.15
 11
102.633
 21
1247.78
  0
LINE
  8
0
 10
102.633
 20
1247.78
 11
102.894
 21
1247.37
  0
LINE
  8
0
 10
102.894
 20
1247.37
 11
103.101
 21
1246.93
  0
LINE
  8
0
 10
103.101
 20
1246.93
 11
103.251
 21
1246.46
  0
LINE
  8
0
 10
103.251
 20
1246.46
 11
103.342
 21
1245.99
  0
LINE
  8
0
 10
103.342
 20
1245.99
 11
103.373
 21
1245.5
  0
LINE
  8
0
 10
103.373
 20
1245.5
 11
103.373
 21
986.5
  0
LINE
  8
0
 10
103.373
 20
986.5
 11
103.342
 21
986.015
  0
LINE
  8
0
 10
103.342
 20
986.015
 11
103.251
 21
985.537
  0
LINE
  8
0
 10
103.251
 20
985.537
 11
103.101
 21
985.074
  0
LINE
  8
0
 10
103.101
 20
985.074
 11
102.894
 21
984.634
  0
LINE
  8
0
 10
102.894
 20
984.634
 11
102.633
 21
984.224
  0
LINE
  8
0
 10
102.633
 20
984.224
 11
102.323
 21
983.849
  0
LINE
  8
0
 10
102.323
 20
983.849
 11
101.969
 21
983.516
  0
LINE
  8
0
 10
101.969
 20
983.516
 11
101.575
 21
983.23
  0
LINE
  8
0
 10
101.575
 20
983.23
 11
101.149
 21
982.996
  0
LINE
  8
0
 10
101.149
 20
982.996
 11
100.697
 21
982.817
  0
LINE
  8
0
 10
100.697
 20
982.817
 11
100.226
 21
982.696
  0
LINE
  8
0
 10
100.226
 20
982.696
 11
99.7432
 21
982.635
  0
LINE
  8
0
 10
99.7432
 20
982.635
 11
-99.7432
 21
982.635
  0
LINE
  8
0
 10
100.937
 20
702.089
 11
101.545
 21
702.245
  0
LINE
  8
0
 10
101.545
 20
702.245
 11
102.129
 21
702.476
  0
LINE
  8
0
 10
102.129
 20
702.476
 11
102.679
 21
702.778
  0
LINE
  8
0
 10
102.679
 20
702.778
 11
103.187
 21
703.147
  0
LINE
  8
0
 10
103.187
 20
703.147
 11
103.645
 21
703.577
  0
LINE
  8
0
 10
103.645
 20
703.577
 11
104.045
 21
704.061
  0
LINE
  8
0
 10
104.045
 20
704.061
 11
104.382
 21
704.591
  0
LINE
  8
0
 10
104.382
 20
704.591
 11
104.649
 21
705.159
  0
LINE
  8
0
 10
104.649
 20
705.159
 11
104.843
 21
705.757
  0
LINE
  8
0
 10
104.843
 20
705.757
 11
104.961
 21
706.373
  0
LINE
  8
0
 10
104.961
 20
706.373
 11
105
 21
707
  0
LINE
  8
0
 10
105
 20
707
 11
105
 21
967
  0
LINE
  8
0
 10
105
 20
967
 11
104.961
 21
967.627
  0
LINE
  8
0
 10
104.961
 20
967.627
 11
104.843
 21
968.243
  0
LINE
  8
0
 10
104.843
 20
968.243
 11
104.649
 21
968.841
  0
LINE
  8
0
 10
104.649
 20
968.841
 11
104.382
 21
969.409
  0
LINE
  8
0
 10
104.382
 20
969.409
 11
104.045
 21
969.939
  0
LINE
  8
0
 10
104.045
 20
969.939
 11
103.645
 21
970.423
  0
LINE
  8
0
 10
103.645
 20
970.423
 11
103.187
 21
970.853
  0
LINE
  8
0
 10
103.187
 20
970.853
 11
102.679
 21
971.222
  0
LINE
  8
0
 10
102.679
 20
971.222
 11
102.129
 21
971.524
  0
LINE
  8
0
 10
102.129
 20
971.524
 11
101.545
 21
971.755
  0
LINE
  8
0
 10
101.545
 20
971.755
 11
100.937
 21
971.911
  0
LINE
  8
0
 10
100.937
 20
971.911
 11
100.314
 21
971.99
  0
LINE
  8
0
 10
100.314
 20
971.99
 11
-100.314
 21
971.99
  0
LINE
  8
0
 10
-100.314
 20
971.99
 11
-100.937
 21
971.911
  0
LINE
  8
0
 10
-100.937
 20
971.911
 11
-101.545
 21
971.755
  0
LINE
  8
0
 10
-101.545
 20
971.755
 11
-102.129
 21
971.524
  0
LINE
  8
0
 10
-102.129
 20
971.524
 11
-102.679
 21
971.222
  0
LINE
  8
0
 10
-102.679
 20
971.222
 11
-103.187
 21
970.853
  0
LINE
  8
0
 10
-103.187
 20
970.853
 11
-103.645
 21
970.423
  0
LINE
  8
0
 10
-103.645
 20
970.423
 11
-104.045
 21
969.939
  0
LINE
  8
0
 10
-104.045
 20
969.939
 11
-104.382
 21
969.409
  0
LINE
  8
0
 10
-104.382
 20
969.409
 11
-104.649
 21
968.841
  0
LINE
  8
0
 10
-104.649
 20
968.841
 11
-104.843
 21
968.243
  0
LINE
  8
0
 10
-104.843
 20
968.243
 11
-104.961
 21
967.627
  0
LINE
  8
0
 10
-104.961
 20
967.627
 11
-105
 21
967
  0
LINE
  8
0
 10
-105
 20
967
 11
-105
 21
707
  0
LINE
  8
0
 10
-105
 20
707
 11
-104.961
 21
706.373
  0
LINE
  8
0
 10
-104.961
 20
706.373
 11
-104.843
 21
705.757
  0
LINE
  8
0
 10
-104.843
 20
705.757
 11
-104.649
 21
705.159
  0
LINE
  8
0
 10
-104.649
 20
705.159
 11
-104.382
 21
704.591
  0
LINE
  8
0
 10
-104.382
 20
704.591
 11
-104.045
 21
704.061
  0
LINE
  8
0
 10
-104.045
 20
704.061
 11
-103.645
 21
703.577
  0
LINE
  8
0
 10
-103.645
 20
703.577
 11
-103.187
 21
703.147
  0
LINE
  8
0
 10
-103.187
 20
703.147
 11
-102.679
 21
702.778
  0
LINE
  8
0
 10
-102.679
 20
702.778
 11
-102.129
 21
702.476
  0
LINE
  8
0
 10
-102.129
 20
702.476
 11
-101.545
 21
702.245
  0
LINE
  8
0
 10
-101.545
 20
702.245
 11
-100.937
 21
702.089
  0
LINE
  8
0
 10
-100.937
 20
702.089
 11
-100.314
 21
702.01
  0
LINE
  8
0
 10
-100.314
 20
702.01
 11
100.314
 21
702.01
  0
LINE
  8
0
 10
100.314
 20
702.01
 11
100.937
 21
702.089
  0
LINE
  8
0
 10
-97.6507
 20
962.105
 11
-97.9497
 21
962.143
  0
LINE
  8
0
 10
-97.9497
 20
962.143
 11
-98.2416
 21
962.217
  0
LINE
  8
0
 10
-98.2416
 20
962.217
 11
-98.5219
 21
962.328
  0
LINE
  8
0
 10
-98.5219
 20
962.328
 11
-98.786
 21
962.474
  0
LINE
  8
0
 10
-98.786
 20
962.474
 11
-99.0298
 21
962.651
  0
LINE
  8
0
 10
-99.0298
 20
962.651
 11
-99.2495
 21
962.857
  0
LINE
  8
0
 10
-99.2495
 20
962.857
 11
-99.4416
 21
963.089
  0
LINE
  8
0
 10
-99.4416
 20
963.089
 11
-99.6031
 21
963.344
  0
LINE
  8
0
 10
-99.6031
 20
963.344
 11
-99.7315
 21
963.617
  0
LINE
  8
0
 10
-99.7315
 20
963.617
 11
-99.8246
 21
963.903
  0
LINE
  8
0
 10
-99.8246
 20
963.903
 11
-99.8811
 21
964.199
  0
LINE
  8
0
 10
-99.8811
 20
964.199
 11
-99.9
 21
964.5
  0
LINE
  8
0
 10
-99.9
 20
964.5
 11
-99.8811
 21
964.801
  0
LINE
  8
0
 10
-99.8811
 20
964.801
 11
-99.8246
 21
965.097
  0
LINE
  8
0
 10
-99.8246
 20
965.097
 11
-99.7315
 21
965.383
  0
LINE
  8
0
 10
-99.7315
 20
965.383
 11
-99.6031
 21
965.656
  0
LINE
  8
0
 10
-99.6031
 20
965.656
 11
-99.4416
 21
965.911
  0
LINE
  8
0
 10
-99.4416
 20
965.911
 11
-99.2495
 21
966.143
  0
LINE
  8
0
 10
-99.2495
 20
966.143
 11
-99.0298
 21
966.349
  0
LINE
  8
0
 10
-99.0298
 20
966.349
 11
-98.786
 21
966.526
  0
LINE
  8
0
 10
-98.786
 20
966.526
 11
-98.5219
 21
966.672
  0
LINE
  8
0
 10
-98.5219
 20
966.672
 11
-98.2416
 21
966.783
  0
LINE
  8
0
 10
-98.2416
 20
966.783
 11
-97.9497
 21
966.857
  0
LINE
  8
0
 10
-97.9497
 20
966.857
 11
-97.6507
 21
966.895
  0
LINE
  8
0
 10
-97.6507
 20
966.895
 11
-97.3493
 21
966.895
  0
LINE
  8
0
 10
-97.3493
 20
966.895
 11
-97.0503
 21
966.857
  0
LINE
  8
0
 10
-97.0503
 20
966.857
 11
-96.7584
 21
966.783
  0
LINE
  8
0
 10
-96.7584
 20
966.783
 11
-96.4781
 21
966.672
  0
LINE
  8
0
 10
-96.4781
 20
966.672
 11
-96.214
 21
966.526
  0
LINE
  8
0
 10
-96.214
 20
966.526
 11
-95.9702
 21
966.349
  0
LINE
  8
0
 10
-95.9702
 20
966.349
 11
-95.7505
 21
966.143
  0
LINE
  8
0
 10
-95.7505
 20
966.143
 11
-95.5583
 21
965.911
  0
LINE
  8
0
 10
-95.5583
 20
965.911
 11
-95.3969
 21
965.656
  0
LINE
  8
0
 10
-95.3969
 20
965.656
 11
-95.2685
 21
965.383
  0
LINE
  8
0
 10
-95.2685
 20
965.383
 11
-95.1754
 21
965.097
  0
LINE
  8
0
 10
-95.1754
 20
965.097
 11
-95.1189
 21
964.801
  0
LINE
  8
0
 10
-95.1189
 20
964.801
 11
-95.1
 21
964.5
  0
LINE
  8
0
 10
-95.1
 20
964.5
 11
-95.1189
 21
964.199
  0
LINE
  8
0
 10
-95.1189
 20
964.199
 11
-95.1754
 21
963.903
  0
LINE
  8
0
 10
-95.1754
 20
963.903
 11
-95.2685
 21
963.617
  0
LINE
  8
0
 10
-95.2685
 20
963.617
 11
-95.3969
 21
963.344
  0
LINE
  8
0
 10
-95.3969
 20
963.344
 11
-95.5583
 21
963.089
  0
LINE
  8
0
 10
-95.5583
 20
963.089
 11
-95.7505
 21
962.857
  0
LINE
  8
0
 10
-95.7505
 20
962.857
 11
-95.9702
 21
962.651
  0
LINE
  8
0
 10
-95.9702
 20
962.651
 11
-96.214
 21
962.474
  0
LINE
  8
0
 10
-96.214
 20
962.474
 11
-96.4781
 21
962.328
  0
LINE
  8
0
 10
-96.4781
 20
962.328
 11
-96.7584
 21
962.217
  0
LINE
  8
0
 10
-96.7584
 20
962.217
 11
-97.0503
 21
962.143
  0
LINE
  8
0
 10
-97.0503
 20
962.143
 11
-97.3493
 21
962.105
  0
LINE
  8
0
 10
-97.3493
 20
962.105
 11
-97.6507
 21
962.105
  0
LINE
  8
0
 10
97.3493
 20
962.105
 11
97.0503
 21
962.143
  0
LINE
  8
0
 10
97.0503
 20
962.143
 11
96.7584
 21
962.217
  0
LINE
  8
0
 10
96.7584
 20
962.217
 11
96.4781
 21
962.328
  0
LINE
  8
0
 10
96.4781
 20
962.328
 11
96.214
 21
962.474
  0
LINE
  8
0
 10
96.214
 20
962.474
 11
95.9702
 21
962.651
  0
LINE
  8
0
 10
95.9702
 20
962.651
 11
95.7505
 21
962.857
  0
LINE
  8
0
 10
95.7505
 20
962.857
 11
95.5583
 21
963.089
  0
LINE
  8
0
 10
95.5583
 20
963.089
 11
95.3969
 21
963.344
  0
LINE
  8
0
 10
95.3969
 20
963.344
 11
95.2685
 21
963.617
  0
LINE
  8
0
 10
95.2685
 20
963.617
 11
95.1754
 21
963.903
  0
LINE
  8
0
 10
95.1754
 20
963.903
 11
95.1189
 21
964.199
  0
LINE
  8
0
 10
95.1189
 20
964.199
 11
95.1
 21
964.5
  0
LINE
  8
0
 10
95.1
 20
964.5
 11
95.1189
 21
964.801
  0
LINE
  8
0
 10
95.1189
 20
964.801
 11
95.1754
 21
965.097
  0
LINE
  8
0
 10
95.1754
 20
965.097
 11
95.2685
 21
965.383
  0
LINE
  8
0
 10
95.2685
 20
965.383
 11
95.3969
 21
965.656
  0
LINE
  8
0
 10
95.3969
 20
965.656
 11
95.5583
 21
965.911
  0
LINE
  8
0
 10
95.5583
 20
965.911
 11
95.7505
 21
966.143
  0
LINE
  8
0
 10
95.7505
 20
966.143
 11
95.9702
 21
966.349
  0
LINE
  8
0
 10
95.9702
 20
966.349
 11
96.214
 21
966.526
  0
LINE
  8
0
 10
96.214
 20
966.526
 11
96.4781
 21
966.672
  0
LINE
  8
0
 10
96.4781
 20
966.672
 11
96.7584
 21
966.783
  0
LINE
  8
0
 10
96.7584
 20
966.783
 11
97.0503
 21
966.857
  0
LINE
  8
0
 10
97.0503
 20
966.857
 11
97.3493
 21
966.895
  0
LINE
  8
0
 10
97.3493
 20
966.895
 11
97.6507
 21
966.895
  0
LINE
  8
0
 10
97.6507
 20
966.895
 11
97.9497
 21
966.857
  0
LINE
  8
0
 10
97.9497
 20
966.857
 11
98.2416
 21
966.783
  0
LINE
  8
0
 10
98.2416
 20
966.783
 11
98.5219
 21
966.672
  0
LINE
  8
0
 10
98.5219
 20
966.672
 11
98.786
 21
966.526
  0
LINE
  8
0
 10
98.786
 20
966.526
 11
99.0298
 21
966.349
  0
LINE
  8
0
 10
99.0298
 20
966.349
 11
99.2495
 21
966.143
  0
LINE
  8
0
 10
99.2495
 20
966.143
 11
99.4416
 21
965.911
  0
LINE
  8
0
 10
99.4416
 20
965.911
 11
99.6031
 21
965.656
  0
LINE
  8
0
 10
99.6031
 20
965.656
 11
99.7315
 21
965.383
  0
LINE
  8
0
 10
99.7315
 20
965.383
 11
99.8246
 21
965.097
  0
LINE
  8
0
 10
99.8246
 20
965.097
 11
99.8811
 21
964.801
  0
LINE
  8
0
 10
99.8811
 20
964.801
 11
99.9
 21
964.5
  0
LINE
  8
0
 10
99.9
 20
964.5
 11
99.8811
 21
964.199
  0
LINE
  8
0
 10
99.8811
 20
964.199
 11
99.8246
 21
963.903
  0
LINE
  8
0
 10
99.8246
 20
963.903
 11
99.7315
 21
963.617
  0
LINE
  8
0
 10
99.7315
 20
963.617
 11
99.6031
 21
963.344
  0
LINE
  8
0
 10
99.6031
 20
963.344
 11
99.4416
 21
963.089
  0
LINE
  8
0
 10
99.4416
 20
963.089
 11
99.2495
 21
962.857
  0
LINE
  8
0
 10
99.2495
 20
962.857
 11
99.0298
 21
962.651
  0
LINE
  8
0
 10
99.0298
 20
962.651
 11
98.786
 21
962.474
  0
LINE
  8
0
 10
98.786
 20
962.474
 11
98.5219
 21
962.328
  0
LINE
  8
0
 10
98.5219
 20
962.328
 11
98.2416
 21
962.217
  0
LINE
  8
0
 10
98.2416
 20
962.217
 11
97.9497
 21
962.143
  0
LINE
  8
0
 10
97.9497
 20
962.143
 11
97.6507
 21
962.105
  0
LINE
  8
0
 10
97.6507
 20
962.105
 11
97.3493
 21
962.105
  0
LINE
  8
0
 10
97.3493
 20
707.105
 11
97.0503
 21
707.143
  0
LINE
  8
0
 10
97.0503
 20
707.143
 11
96.7584
 21
707.217
  0
LINE
  8
0
 10
96.7584
 20
707.217
 11
96.4781
 21
707.328
  0
LINE
  8
0
 10
96.4781
 20
707.328
 11
96.214
 21
707.474
  0
LINE
  8
0
 10
96.214
 20
707.474
 11
95.9702
 21
707.651
  0
LINE
  8
0
 10
95.9702
 20
707.651
 11
95.7505
 21
707.857
  0
LINE
  8
0
 10
95.7505
 20
707.857
 11
95.5583
 21
708.089
  0
LINE
  8
0
 10
95.5583
 20
708.089
 11
95.3969
 21
708.344
  0
LINE
  8
0
 10
95.3969
 20
708.344
 11
95.2685
 21
708.617
  0
LINE
  8
0
 10
95.2685
 20
708.617
 11
95.1754
 21
708.903
  0
LINE
  8
0
 10
95.1754
 20
708.903
 11
95.1189
 21
709.199
  0
LINE
  8
0
 10
95.1189
 20
709.199
 11
95.1
 21
709.5
  0
LINE
  8
0
 10
95.1
 20
709.5
 11
95.1189
 21
709.801
  0
LINE
  8
0
 10
95.1189
 20
709.801
 11
95.1754
 21
710.097
  0
LINE
  8
0
 10
95.1754
 20
710.097
 11
95.2685
 21
710.383
  0
LINE
  8
0
 10
95.2685
 20
710.383
 11
95.3969
 21
710.656
  0
LINE
  8
0
 10
95.3969
 20
710.656
 11
95.5583
 21
710.911
  0
LINE
  8
0
 10
95.5583
 20
710.911
 11
95.7505
 21
711.143
  0
LINE
  8
0
 10
95.7505
 20
711.143
 11
95.9702
 21
711.349
  0
LINE
  8
0
 10
95.9702
 20
711.349
 11
96.214
 21
711.526
  0
LINE
  8
0
 10
96.214
 20
711.526
 11
96.4781
 21
711.672
  0
LINE
  8
0
 10
96.4781
 20
711.672
 11
96.7584
 21
711.783
  0
LINE
  8
0
 10
96.7584
 20
711.783
 11
97.0503
 21
711.857
  0
LINE
  8
0
 10
97.0503
 20
711.857
 11
97.3493
 21
711.895
  0
LINE
  8
0
 10
97.3493
 20
711.895
 11
97.6507
 21
711.895
  0
LINE
  8
0
 10
97.6507
 20
711.895
 11
97.9497
 21
711.857
  0
LINE
  8
0
 10
97.9497
 20
711.857
 11
98.2416
 21
711.783
  0
LINE
  8
0
 10
98.2416
 20
711.783
 11
98.5219
 21
711.672
  0
LINE
  8
0
 10
98.5219
 20
711.672
 11
98.786
 21
711.526
  0
LINE
  8
0
 10
98.786
 20
711.526
 11
99.0298
 21
711.349
  0
LINE
  8
0
 10
99.0298
 20
711.349
 11
99.2495
 21
711.143
  0
LINE
  8
0
 10
99.2495
 20
711.143
 11
99.4416
 21
710.911
  0
LINE
  8
0
 10
99.4416
 20
710.911
 11
99.6031
 21
710.656
  0
LINE
  8
0
 10
99.6031
 20
710.656
 11
99.7315
 21
710.383
  0
LINE
  8
0
 10
99.7315
 20
710.383
 11
99.8246
 21
710.097
  0
LINE
  8
0
 10
99.8246
 20
710.097
 11
99.8811
 21
709.801
  0
LINE
  8
0
 10
99.8811
 20
709.801
 11
99.9
 21
709.5
  0
LINE
  8
0
 10
99.9
 20
709.5
 11
99.8811
 21
709.199
  0
LINE
  8
0
 10
99.8811
 20
709.199
 11
99.8246
 21
708.903
  0
LINE
  8
0
 10
99.8246
 20
708.903
 11
99.7315
 21
708.617
  0
LINE
  8
0
 10
99.7315
 20
708.617
 11
99.6031
 21
708.344
  0
LINE
  8
0
 10
99.6031
 20
708.344
 11
99.4416
 21
708.089
  0
LINE
  8
0
 10
99.4416
 20
708.089
 11
99.2495
 21
707.857
  0
LINE
  8
0
 10
99.2495
 20
707.857
 11
99.0298
 21
707.651
  0
LINE
  8
0
 10
99.0298
 20
707.651
 11
98.786
 21
707.474
  0
LINE
  8
0
 10
98.786
 20
707.474
 11
98.5219
 21
707.328
  0
LINE
  8
0
 10
98.5219
 20
707.328
 11
98.2416
 21
707.217
  0
LINE
  8
0
 10
98.2416
 20
707.217
 11
97.9497
 21
707.143
  0
LINE
  8
0
 10
97.9497
 20
707.143
 11
97.6507
 21
707.105
  0
LINE
  8
0
 10
97.6507
 20
707.105
 11
97.3493
 21
707.105
  0
LINE
  8
0
 10
-97.6507
 20
707.105
 11
-97.9497
 21
707.143
  0
LINE
  8
0
 10
-97.9497
 20
707.143
 11
-98.2416
 21
707.217
  0
LINE
  8
0
 10
-98.2416
 20
707.217
 11
-98.5219
 21
707.328
  0
LINE
  8
0
 10
-98.5219
 20
707.328
 11
-98.786
 21
707.474
  0
LINE
  8
0
 10
-98.786
 20
707.474
 11
-99.0298
 21
707.651
  0
LINE
  8
0
 10
-99.0298
 20
707.651
 11
-99.2495
 21
707.857
  0
LINE
  8
0
 10
-99.2495
 20
707.857
 11
-99.4416
 21
708.089
  0
LINE
  8
0
 10
-99.4416
 20
708.089
 11
-99.6031
 21
708.344
  0
LINE
  8
0
 10
-99.6031
 20
708.344
 11
-99.7315
 21
708.617
  0
LINE
  8
0
 10
-99.7315
 20
708.617
 11
-99.8246
 21
708.903
  0
LINE
  8
0
 10
-99.8246
 20
708.903
 11
-99.8811
 21
709.199
  0
LINE
  8
0
 10
-99.8811
 20
709.199
 11
-99.9
 21
709.5
  0
LINE
  8
0
 10
-99.9
 20
709.5
 11
-99.8811
 21
709.801
  0
LINE
  8
0
 10
-99.8811
 20
709.801
 11
-99.8246
 21
710.097
  0
LINE
  8
0
 10
-99.8246
 20
710.097
 11
-99.7315
 21
710.383
  0
LINE
  8
0
 10
-99.7315
 20
710.383
 11
-99.6031
 21
710.656
  0
LINE
  8
0
 10
-99.6031
 20
710.656
 11
-99.4416
 21
710.911
  0
LINE
  8
0
 10
-99.4416
 20
710.911
 11
-99.2495
 21
711.143
  0
LINE
  8
0
 10
-99.2495
 20
711.143
 11
-99.0298
 21
711.349
  0
LINE
  8
0
 10
-99.0298
 20
711.349
 11
-98.786
 21
711.526
  0
LINE
  8
0
 10
-98.786
 20
711.526
 11
-98.5219
 21
711.672
  0
LINE
  8
0
 10
-98.5219
 20
711.672
 11
-98.2416
 21
711.783
  0
LINE
  8
0
 10
-98.2416
 20
711.783
 11
-97.9497
 21
711.857
  0
LINE
  8
0
 10
-97.9497
 20
711.857
 11
-97.6507
 21
711.895
  0
LINE
  8
0
 10
-97.6507
 20
711.895
 11
-97.3493
 21
711.895
  0
LINE
  8
0
 10
-97.3493
 20
711.895
 11
-97.0503
 21
711.857
  0
LINE
  8
0
 10
-97.0503
 20
711.857
 11
-96.7584
 21
711.783
  0
LINE
  8
0
 10
-96.7584
 20
711.783
 11
-96.4781
 21
711.672
  0
LINE
  8
0
 10
-96.4781
 20
711.672
 11
-96.214
 21
711.526
  0
LINE
  8
0
 10
-96.214
 20
711.526
 11
-95.9702
 21
711.349
  0
LINE
  8
0
 10
-95.9702
 20
711.349
 11
-95.7505
 21
711.143
  0
LINE
  8
0
 10
-95.7505
 20
711.143
 11
-95.5583
 21
710.911
  0
LINE
  8
0
 10
-95.5583
 20
710.911
 11
-95.3969
 21
710.656
  0
LINE
  8
0
 10
-95.3969
 20
710.656
 11
-95.2685
 21
710.383
  0
LINE
  8
0
 10
-95.2685
 20
710.383
 11
-95.1754
 21
710.097
  0
LINE
  8
0
 10
-95.1754
 20
710.097
 11
-95.1189
 21
709.801
  0
LINE
  8
0
 10
-95.1189
 20
709.801
 11
-95.1
 21
709.5
  0
LINE
  8
0
 10
-95.1
 20
709.5
 11
-95.1189
 21
709.199
  0
LINE
  8
0
 10
-95.1189
 20
709.199
 11
-95.1754
 21
708.903
  0
LINE
  8
0
 10
-95.1754
 20
708.903
 11
-95.2685
 21
708.617
  0
LINE
  8
0
 10
-95.2685
 20
708.617
 11
-95.3969
 21
708.344
  0
LINE
  8
0
 10
-95.3969
 20
708.344
 11
-95.5583
 21
708.089
  0
LINE
  8
0
 10
-95.5583
 20
708.089
 11
-95.7505
 21
707.857
  0
LINE
  8
0
 10
-95.7505
 20
707.857
 11
-95.9702
 21
707.651
  0
LINE
  8
0
 10
-95.9702
 20
707.651
 11
-96.214
 21
707.474
  0
LINE
  8
0
 10
-96.214
 20
707.474
 11
-96.4781
 21
707.328
  0
LINE
  8
0
 10
-96.4781
 20
707.328
 11
-96.7584
 21
707.217
  0
LINE
  8
0
 10
-96.7584
 20
707.217
 11
-97.0503
 21
707.143
  0
LINE
  8
0
 10
-97.0503
 20
707.143
 11
-97.3493
 21
707.105
  0
LINE
  8
0
 10
-97.3493
 20
707.105
 11
-97.6507
 21
707.105
  0
LINE
  8
0
 10
100.937
 20
423.089
 11
101.545
 21
423.245
  0
LINE
  8
0
 10
101.545
 20
423.245
 11
102.129
 21
423.476
  0
LINE
  8
0
 10
102.129
 20
423.476
 11
102.679
 21
423.778
  0
LINE
  8
0
 10
102.679
 20
423.778
 11
103.187
 21
424.147
  0
LINE
  8
0
 10
103.187
 20
424.147
 11
103.645
 21
424.577
  0
LINE
  8
0
 10
103.645
 20
424.577
 11
104.045
 21
425.061
  0
LINE
  8
0
 10
104.045
 20
425.061
 11
104.382
 21
425.591
  0
LINE
  8
0
 10
104.382
 20
425.591
 11
104.649
 21
426.159
  0
LINE
  8
0
 10
104.649
 20
426.159
 11
104.843
 21
426.757
  0
LINE
  8
0
 10
104.843
 20
426.757
 11
104.961
 21
427.373
  0
LINE
  8
0
 10
104.961
 20
427.373
 11
105
 21
428
  0
LINE
  8
0
 10
105
 20
428
 11
105
 21
688
  0
LINE
  8
0
 10
105
 20
688
 11
104.961
 21
688.627
  0
LINE
  8
0
 10
104.961
 20
688.627
 11
104.843
 21
689.243
  0
LINE
  8
0
 10
104.843
 20
689.243
 11
104.649
 21
689.841
  0
LINE
  8
0
 10
104.649
 20
689.841
 11
104.382
 21
690.409
  0
LINE
  8
0
 10
104.382
 20
690.409
 11
104.045
 21
690.939
  0
LINE
  8
0
 10
104.045
 20
690.939
 11
103.645
 21
691.423
  0
LINE
  8
0
 10
103.645
 20
691.423
 11
103.187
 21
691.853
  0
LINE
  8
0
 10
103.187
 20
691.853
 11
102.679
 21
692.222
  0
LINE
  8
0
 10
102.679
 20
692.222
 11
102.129
 21
692.524
  0
LINE
  8
0
 10
102.129
 20
692.524
 11
101.545
 21
692.755
  0
LINE
  8
0
 10
101.545
 20
692.755
 11
100.937
 21
692.911
  0
LINE
  8
0
 10
100.937
 20
692.911
 11
100.314
 21
692.99
  0
LINE
  8
0
 10
100.314
 20
692.99
 11
-100.314
 21
692.99
  0
LINE
  8
0
 10
-100.314
 20
692.99
 11
-100.937
 21
692.911
  0
LINE
  8
0
 10
-100.937
 20
692.911
 11
-101.545
 21
692.755
  0
LINE
  8
0
 10
-101.545
 20
692.755
 11
-102.129
 21
692.524
  0
LINE
  8
0
 10
-102.129
 20
692.524
 11
-102.679
 21
692.222
  0
LINE
  8
0
 10
-102.679
 20
692.222
 11
-103.187
 21
691.853
  0
LINE
  8
0
 10
-103.187
 20
691.853
 11
-103.645
 21
691.423
  0
LINE
  8
0
 10
-103.645
 20
691.423
 11
-104.045
 21
690.939
  0
LINE
  8
0
 10
-104.045
 20
690.939
 11
-104.382
 21
690.409
  0
LINE
  8
0
 10
-104.382
 20
690.409
 11
-104.649
 21
689.841
  0
LINE
  8
0
 10
-104.649
 20
689.841
 11
-104.843
 21
689.243
  0
LINE
  8
0
 10
-104.843
 20
689.243
 11
-104.961
 21
688.627
  0
LINE
  8
0
 10
-104.961
 20
688.627
 11
-105
 21
688
  0
LINE
  8
0
 10
-105
 20
688
 11
-105
 21
428
  0
LINE
  8
0
 10
-105
 20
428
 11
-104.961
 21
427.373
  0
LINE
  8
0
 10
-104.961
 20
427.373
 11
-104.843
 21
426.757
  0
LINE
  8
0
 10
-104.843
 20
426.757
 11
-104.649
 21
426.159
  0
LINE
  8
0
 10
-104.649
 20
426.159
 11
-104.382
 21
425.591
  0
LINE
  8
0
 10
-104.382
 20
425.591
 11
-104.045
 21
425.061
  0
LINE
  8
0
 10
-104.045
 20
425.061
 11
-103.645
 21
424.577
  0
LINE
  8
0
 10
-103.645
 20
424.577
 11
-103.187
 21
424.147
  0
LINE
  8
0
 10
-103.187
 20
424.147
 11
-102.679
 21
423.778
  0
LINE
  8
0
 10
-102.679
 20
423.778
 11
-102.129
 21
423.476
  0
LINE
  8
0
 10
-102.129
 20
423.476
 11
-101.545
 21
423.245
  0
LINE
  8
0
 10
-101.545
 20
423.245
 11
-100.937
 21
423.089
  0
LINE
  8
0
 10
-100.937
 20
423.089
 11
-100.314
 21
423.01
  0
LINE
  8
0
 10
-100.314
 20
423.01
 11
100.314
 21
423.01
  0
LINE
  8
0
 10
100.314
 20
423.01
 11
100.937
 21
423.089
  0
LINE
  8
0
 10
97.387
 20
683.704
 11
97.1627
 21
683.732
  0
LINE
  8
0
 10
97.1627
 20
683.732
 11
96.9438
 21
683.788
  0
LINE
  8
0
 10
96.9438
 20
683.788
 11
96.7336
 21
683.871
  0
LINE
  8
0
 10
96.7336
 20
683.871
 11
96.5355
 21
683.98
  0
LINE
  8
0
 10
96.5355
 20
683.98
 11
96.3526
 21
684.113
  0
LINE
  8
0
 10
96.3526
 20
684.113
 11
96.1879
 21
684.268
  0
LINE
  8
0
 10
96.1879
 20
684.268
 11
96.0438
 21
684.442
  0
LINE
  8
0
 10
96.0438
 20
684.442
 11
95.9226
 21
684.633
  0
LINE
  8
0
 10
95.9226
 20
684.633
 11
95.8264
 21
684.837
  0
LINE
  8
0
 10
95.8264
 20
684.837
 11
95.7565
 21
685.052
  0
LINE
  8
0
 10
95.7565
 20
685.052
 11
95.7142
 21
685.274
  0
LINE
  8
0
 10
95.7142
 20
685.274
 11
95.7
 21
685.5
  0
LINE
  8
0
 10
95.7
 20
685.5
 11
95.7142
 21
685.726
  0
LINE
  8
0
 10
95.7142
 20
685.726
 11
95.7565
 21
685.948
  0
LINE
  8
0
 10
95.7565
 20
685.948
 11
95.8264
 21
686.163
  0
LINE
  8
0
 10
95.8264
 20
686.163
 11
95.9226
 21
686.367
  0
LINE
  8
0
 10
95.9226
 20
686.367
 11
96.0438
 21
686.558
  0
LINE
  8
0
 10
96.0438
 20
686.558
 11
96.1879
 21
686.732
  0
LINE
  8
0
 10
96.1879
 20
686.732
 11
96.3526
 21
686.887
  0
LINE
  8
0
 10
96.3526
 20
686.887
 11
96.5355
 21
687.02
  0
LINE
  8
0
 10
96.5355
 20
687.02
 11
96.7336
 21
687.129
  0
LINE
  8
0
 10
96.7336
 20
687.129
 11
96.9438
 21
687.212
  0
LINE
  8
0
 10
96.9438
 20
687.212
 11
97.1627
 21
687.268
  0
LINE
  8
0
 10
97.1627
 20
687.268
 11
97.387
 21
687.296
  0
LINE
  8
0
 10
97.387
 20
687.296
 11
97.613
 21
687.296
  0
LINE
  8
0
 10
97.613
 20
687.296
 11
97.8373
 21
687.268
  0
LINE
  8
0
 10
97.8373
 20
687.268
 11
98.0562
 21
687.212
  0
LINE
  8
0
 10
98.0562
 20
687.212
 11
98.2664
 21
687.129
  0
LINE
  8
0
 10
98.2664
 20
687.129
 11
98.4645
 21
687.02
  0
LINE
  8
0
 10
98.4645
 20
687.02
 11
98.6474
 21
686.887
  0
LINE
  8
0
 10
98.6474
 20
686.887
 11
98.8121
 21
686.732
  0
LINE
  8
0
 10
98.8121
 20
686.732
 11
98.9562
 21
686.558
  0
LINE
  8
0
 10
98.9562
 20
686.558
 11
99.0773
 21
686.367
  0
LINE
  8
0
 10
99.0773
 20
686.367
 11
99.1736
 21
686.163
  0
LINE
  8
0
 10
99.1736
 20
686.163
 11
99.2434
 21
685.948
  0
LINE
  8
0
 10
99.2434
 20
685.948
 11
99.2858
 21
685.726
  0
LINE
  8
0
 10
99.2858
 20
685.726
 11
99.3
 21
685.5
  0
LINE
  8
0
 10
99.3
 20
685.5
 11
99.2858
 21
685.274
  0
LINE
  8
0
 10
99.2858
 20
685.274
 11
99.2434
 21
685.052
  0
LINE
  8
0
 10
99.2434
 20
685.052
 11
99.1736
 21
684.837
  0
LINE
  8
0
 10
99.1736
 20
684.837
 11
99.0773
 21
684.633
  0
LINE
  8
0
 10
99.0773
 20
684.633
 11
98.9562
 21
684.442
  0
LINE
  8
0
 10
98.9562
 20
684.442
 11
98.8121
 21
684.268
  0
LINE
  8
0
 10
98.8121
 20
684.268
 11
98.6474
 21
684.113
  0
LINE
  8
0
 10
98.6474
 20
684.113
 11
98.4645
 21
683.98
  0
LINE
  8
0
 10
98.4645
 20
683.98
 11
98.2664
 21
683.871
  0
LINE
  8
0
 10
98.2664
 20
683.871
 11
98.0562
 21
683.788
  0
LINE
  8
0
 10
98.0562
 20
683.788
 11
97.8373
 21
683.732
  0
LINE
  8
0
 10
97.8373
 20
683.732
 11
97.613
 21
683.704
  0
LINE
  8
0
 10
97.613
 20
683.704
 11
97.387
 21
683.704
  0
LINE
  8
0
 10
-97.613
 20
683.704
 11
-97.8373
 21
683.732
  0
LINE
  8
0
 10
-97.8373
 20
683.732
 11
-98.0562
 21
683.788
  0
LINE
  8
0
 10
-98.0562
 20
683.788
 11
-98.2664
 21
683.871
  0
LINE
  8
0
 10
-98.2664
 20
683.871
 11
-98.4645
 21
683.98
  0
LINE
  8
0
 10
-98.4645
 20
683.98
 11
-98.6474
 21
684.113
  0
LINE
  8
0
 10
-98.6474
 20
684.113
 11
-98.8121
 21
684.268
  0
LINE
  8
0
 10
-98.8121
 20
684.268
 11
-98.9562
 21
684.442
  0
LINE
  8
0
 10
-98.9562
 20
684.442
 11
-99.0773
 21
684.633
  0
LINE
  8
0
 10
-99.0773
 20
684.633
 11
-99.1736
 21
684.837
  0
LINE
  8
0
 10
-99.1736
 20
684.837
 11
-99.2434
 21
685.052
  0
LINE
  8
0
 10
-99.2434
 20
685.052
 11
-99.2858
 21
685.274
  0
LINE
  8
0
 10
-99.2858
 20
685.274
 11
-99.3
 21
685.5
  0
LINE
  8
0
 10
-99.3
 20
685.5
 11
-99.2858
 21
685.726
  0
LINE
  8
0
 10
-99.2858
 20
685.726
 11
-99.2434
 21
685.948
  0
LINE
  8
0
 10
-99.2434
 20
685.948
 11
-99.1736
 21
686.163
  0
LINE
  8
0
 10
-99.1736
 20
686.163
 11
-99.0773
 21
686.367
  0
LINE
  8
0
 10
-99.0773
 20
686.367
 11
-98.9562
 21
686.558
  0
LINE
  8
0
 10
-98.9562
 20
686.558
 11
-98.8121
 21
686.732
  0
LINE
  8
0
 10
-98.8121
 20
686.732
 11
-98.6474
 21
686.887
  0
LINE
  8
0
 10
-98.6474
 20
686.887
 11
-98.4645
 21
687.02
  0
LINE
  8
0
 10
-98.4645
 20
687.02
 11
-98.2664
 21
687.129
  0
LINE
  8
0
 10
-98.2664
 20
687.129
 11
-98.0562
 21
687.212
  0
LINE
  8
0
 10
-98.0562
 20
687.212
 11
-97.8373
 21
687.268
  0
LINE
  8
0
 10
-97.8373
 20
687.268
 11
-97.613
 21
687.296
  0
LINE
  8
0
 10
-97.613
 20
687.296
 11
-97.387
 21
687.296
  0
LINE
  8
0
 10
-97.387
 20
687.296
 11
-97.1627
 21
687.268
  0
LINE
  8
0
 10
-97.1627
 20
687.268
 11
-96.9438
 21
687.212
  0
LINE
  8
0
 10
-96.9438
 20
687.212
 11
-96.7336
 21
687.129
  0
LINE
  8
0
 10
-96.7336
 20
687.129
 11
-96.5355
 21
687.02
  0
LINE
  8
0
 10
-96.5355
 20
687.02
 11
-96.3526
 21
686.887
  0
LINE
  8
0
 10
-96.3526
 20
686.887
 11
-96.1879
 21
686.732
  0
LINE
  8
0
 10
-96.1879
 20
686.732
 11
-96.0438
 21
686.558
  0
LINE
  8
0
 10
-96.0438
 20
686.558
 11
-95.9226
 21
686.367
  0
LINE
  8
0
 10
-95.9226
 20
686.367
 11
-95.8264
 21
686.163
  0
LINE
  8
0
 10
-95.8264
 20
686.163
 11
-95.7565
 21
685.948
  0
LINE
  8
0
 10
-95.7565
 20
685.948
 11
-95.7142
 21
685.726
  0
LINE
  8
0
 10
-95.7142
 20
685.726
 11
-95.7
 21
685.5
  0
LINE
  8
0
 10
-95.7
 20
685.5
 11
-95.7142
 21
685.274
  0
LINE
  8
0
 10
-95.7142
 20
685.274
 11
-95.7565
 21
685.052
  0
LINE
  8
0
 10
-95.7565
 20
685.052
 11
-95.8264
 21
684.837
  0
LINE
  8
0
 10
-95.8264
 20
684.837
 11
-95.9226
 21
684.633
  0
LINE
  8
0
 10
-95.9226
 20
684.633
 11
-96.0438
 21
684.442
  0
LINE
  8
0
 10
-96.0438
 20
684.442
 11
-96.1879
 21
684.268
  0
LINE
  8
0
 10
-96.1879
 20
684.268
 11
-96.3526
 21
684.113
  0
LINE
  8
0
 10
-96.3526
 20
684.113
 11
-96.5355
 21
683.98
  0
LINE
  8
0
 10
-96.5355
 20
683.98
 11
-96.7336
 21
683.871
  0
LINE
  8
0
 10
-96.7336
 20
683.871
 11
-96.9438
 21
683.788
  0
LINE
  8
0
 10
-96.9438
 20
683.788
 11
-97.1627
 21
683.732
  0
LINE
  8
0
 10
-97.1627
 20
683.732
 11
-97.387
 21
683.704
  0
LINE
  8
0
 10
-97.387
 20
683.704
 11
-97.613
 21
683.704
  0
LINE
  8
0
 10
-97.613
 20
428.704
 11
-97.8373
 21
428.732
  0
LINE
  8
0
 10
-97.8373
 20
428.732
 11
-98.0562
 21
428.788
  0
LINE
  8
0
 10
-98.0562
 20
428.788
 11
-98.2664
 21
428.871
  0
LINE
  8
0
 10
-98.2664
 20
428.871
 11
-98.4645
 21
428.98
  0
LINE
  8
0
 10
-98.4645
 20
428.98
 11
-98.6474
 21
429.113
  0
LINE
  8
0
 10
-98.6474
 20
429.113
 11
-98.8121
 21
429.268
  0
LINE
  8
0
 10
-98.8121
 20
429.268
 11
-98.9562
 21
429.442
  0
LINE
  8
0
 10
-98.9562
 20
429.442
 11
-99.0773
 21
429.633
  0
LINE
  8
0
 10
-99.0773
 20
429.633
 11
-99.1736
 21
429.837
  0
LINE
  8
0
 10
-99.1736
 20
429.837
 11
-99.2434
 21
430.052
  0
LINE
  8
0
 10
-99.2434
 20
430.052
 11
-99.2858
 21
430.274
  0
LINE
  8
0
 10
-99.2858
 20
430.274
 11
-99.3
 21
430.5
  0
LINE
  8
0
 10
-99.3
 20
430.5
 11
-99.2858
 21
430.726
  0
LINE
  8
0
 10
-99.2858
 20
430.726
 11
-99.2434
 21
430.948
  0
LINE
  8
0
 10
-99.2434
 20
430.948
 11
-99.1736
 21
431.163
  0
LINE
  8
0
 10
-99.1736
 20
431.163
 11
-99.0773
 21
431.367
  0
LINE
  8
0
 10
-99.0773
 20
431.367
 11
-98.9562
 21
431.558
  0
LINE
  8
0
 10
-98.9562
 20
431.558
 11
-98.8121
 21
431.732
  0
LINE
  8
0
 10
-98.8121
 20
431.732
 11
-98.6474
 21
431.887
  0
LINE
  8
0
 10
-98.6474
 20
431.887
 11
-98.4645
 21
432.02
  0
LINE
  8
0
 10
-98.4645
 20
432.02
 11
-98.2664
 21
432.129
  0
LINE
  8
0
 10
-98.2664
 20
432.129
 11
-98.0562
 21
432.212
  0
LINE
  8
0
 10
-98.0562
 20
432.212
 11
-97.8373
 21
432.268
  0
LINE
  8
0
 10
-97.8373
 20
432.268
 11
-97.613
 21
432.296
  0
LINE
  8
0
 10
-97.613
 20
432.296
 11
-97.387
 21
432.296
  0
LINE
  8
0
 10
-97.387
 20
432.296
 11
-97.1627
 21
432.268
  0
LINE
  8
0
 10
-97.1627
 20
432.268
 11
-96.9438
 21
432.212
  0
LINE
  8
0
 10
-96.9438
 20
432.212
 11
-96.7336
 21
432.129
  0
LINE
  8
0
 10
-96.7336
 20
432.129
 11
-96.5355
 21
432.02
  0
LINE
  8
0
 10
-96.5355
 20
432.02
 11
-96.3526
 21
431.887
  0
LINE
  8
0
 10
-96.3526
 20
431.887
 11
-96.1879
 21
431.732
  0
LINE
  8
0
 10
-96.1879
 20
431.732
 11
-96.0438
 21
431.558
  0
LINE
  8
0
 10
-96.0438
 20
431.558
 11
-95.9226
 21
431.367
  0
LINE
  8
0
 10
-95.9226
 20
431.367
 11
-95.8264
 21
431.163
  0
LINE
  8
0
 10
-95.8264
 20
431.163
 11
-95.7565
 21
430.948
  0
LINE
  8
0
 10
-95.7565
 20
430.948
 11
-95.7142
 21
430.726
  0
LINE
  8
0
 10
-95.7142
 20
430.726
 11
-95.7
 21
430.5
  0
LINE
  8
0
 10
-95.7
 20
430.5
 11
-95.7142
 21
430.274
  0
LINE
  8
0
 10
-95.7142
 20
430.274
 11
-95.7565
 21
430.052
  0
LINE
  8
0
 10
-95.7565
 20
430.052
 11
-95.8264
 21
429.837
  0
LINE
  8
0
 10
-95.8264
 20
429.837
 11
-95.9226
 21
429.633
  0
LINE
  8
0
 10
-95.9226
 20
429.633
 11
-96.0438
 21
429.442
  0
LINE
  8
0
 10
-96.0438
 20
429.442
 11
-96.1879
 21
429.268
  0
LINE
  8
0
 10
-96.1879
 20
429.268
 11
-96.3526
 21
429.113
  0
LINE
  8
0
 10
-96.3526
 20
429.113
 11
-96.5355
 21
428.98
  0
LINE
  8
0
 10
-96.5355
 20
428.98
 11
-96.7336
 21
428.871
  0
LINE
  8
0
 10
-96.7336
 20
428.871
 11
-96.9438
 21
428.788
  0
LINE
  8
0
 10
-96.9438
 20
428.788
 11
-97.1627
 21
428.732
  0
LINE
  8
0
 10
-97.1627
 20
428.732
 11
-97.387
 21
428.704
  0
LINE
  8
0
 10
-97.387
 20
428.704
 11
-97.613
 21
428.704
  0
LINE
  8
0
 10
97.387
 20
428.704
 11
97.1627
 21
428.732
  0
LINE
  8
0
 10
97.1627
 20
428.732
 11
96.9438
 21
428.788
  0
LINE
  8
0
 10
96.9438
 20
428.788
 11
96.7336
 21
428.871
  0
LINE
  8
0
 10
96.7336
 20
428.871
 11
96.5355
 21
428.98
  0
LINE
  8
0
 10
96.5355
 20
428.98
 11
96.3526
 21
429.113
  0
LINE
  8
0
 10
96.3526
 20
429.113
 11
96.1879
 21
429.268
  0
LINE
  8
0
 10
96.1879
 20
429.268
 11
96.0438
 21
429.442
  0
LINE
  8
0
 10
96.0438
 20
429.442
 11
95.9226
 21
429.633
  0
LINE
  8
0
 10
95.9226
 20
429.633
 11
95.8264
 21
429.837
  0
LINE
  8
0
 10
95.8264
 20
429.837
 11
95.7565
 21
430.052
  0
LINE
  8
0
 10
95.7565
 20
430.052
 11
95.7142
 21
430.274
  0
LINE
  8
0
 10
95.7142
 20
430.274
 11
95.7
 21
430.5
  0
LINE
  8
0
 10
95.7
 20
430.5
 11
95.7142
 21
430.726
  0
LINE
  8
0
 10
95.7142
 20
430.726
 11
95.7565
 21
430.948
  0
LINE
  8
0
 10
95.7565
 20
430.948
 11
95.8264
 21
431.163
  0
LINE
  8
0
 10
95.8264
 20
431.163
 11
95.9226
 21
431.367
  0
LINE
  8
0
 10
95.9226
 20
431.367
 11
96.0438
 21
431.558
  0
LINE
  8
0
 10
96.0438
 20
431.558
 11
96.1879
 21
431.732
  0
LINE
  8
0
 10
96.1879
 20
431.732
 11
96.3526
 21
431.887
  0
LINE
  8
0
 10
96.3526
 20
431.887
 11
96.5355
 21
432.02
  0
LINE
  8
0
 10
96.5355
 20
432.02
 11
96.7336
 21
432.129
  0
LINE
  8
0
 10
96.7336
 20
432.129
 11
96.9438
 21
432.212
  0
LINE
  8
0
 10
96.9438
 20
432.212
 11
97.1627
 21
432.268
  0
LINE
  8
0
 10
97.1627
 20
432.268
 11
97.387
 21
432.296
  0
LINE
  8
0
 10
97.387
 20
432.296
 11
97.613
 21
432.296
  0
LINE
  8
0
 10
97.613
 20
432.296
 11
97.8373
 21
432.268
  0
LINE
  8
0
 10
97.8373
 20
432.268
 11
98.0562
 21
432.212
  0
LINE
  8
0
 10
98.0562
 20
432.212
 11
98.2664
 21
432.129
  0
LINE
  8
0
 10
98.2664
 20
432.129
 11
98.4645
 21
432.02
  0
LINE
  8
0
 10
98.4645
 20
432.02
 11
98.6474
 21
431.887
  0
LINE
  8
0
 10
98.6474
 20
431.887
 11
98.8121
 21
431.732
  0
LINE
  8
0
 10
98.8121
 20
431.732
 11
98.9562
 21
431.558
  0
LINE
  8
0
 10
98.9562
 20
431.558
 11
99.0773
 21
431.367
  0
LINE
  8
0
 10
99.0773
 20
431.367
 11
99.1736
 21
431.163
  0
LINE
  8
0
 10
99.1736
 20
431.163
 11
99.2434
 21
430.948
  0
LINE
  8
0
 10
99.2434
 20
430.948
 11
99.2858
 21
430.726
  0
LINE
  8
0
 10
99.2858
 20
430.726
 11
99.3
 21
430.5
  0
LINE
  8
0
 10
99.3
 20
430.5
 11
99.2858
 21
430.274
  0
LINE
  8
0
 10
99.2858
 20
430.274
 11
99.2434
 21
430.052
  0
LINE
  8
0
 10
99.2434
 20
430.052
 11
99.1736
 21
429.837
  0
LINE
  8
0
 10
99.1736
 20
429.837
 11
99.0773
 21
429.633
  0
LINE
  8
0
 10
99.0773
 20
429.633
 11
98.9562
 21
429.442
  0
LINE
  8
0
 10
98.9562
 20
429.442
 11
98.8121
 21
429.268
  0
LINE
  8
0
 10
98.8121
 20
429.268
 11
98.6474
 21
429.113
  0
LINE
  8
0
 10
98.6474
 20
429.113
 11
98.4645
 21
428.98
  0
LINE
  8
0
 10
98.4645
 20
428.98
 11
98.2664
 21
428.871
  0
LINE
  8
0
 10
98.2664
 20
428.871
 11
98.0562
 21
428.788
  0
LINE
  8
0
 10
98.0562
 20
428.788
 11
97.8373
 21
428.732
  0
LINE
  8
0
 10
97.8373
 20
428.732
 11
97.613
 21
428.704
  0
LINE
  8
0
 10
97.613
 20
428.704
 11
97.387
 21
428.704
  0
ENDSEC
  0
SECTION
  2
OBJECTS
  0
DICTIONARY
  0
ENDSEC
  0
EOF
