<?xml version="1.0" standalone="no"?>
<!DOCTYPE svg PUBLIC "-//W3C//DTD SVG 1.1//EN" "http://www.w3.org/Graphics/SVG/1.1/DTD/svg11.dtd">
<svg width="60mm" height="694mm" viewBox="-30 -581 60 694" xmlns="http://www.w3.org/2000/svg" version="1.1">
<title>OpenSCAD Model</title>
<path d="
M -27,-355.925 L -26.5451,-355.745 L -25.9369,-355.589 L -25.3139,-355.51 L 25.3139,-355.51 L 25.9369,-355.589
 L 26.5451,-355.745 L 27.1289,-355.976 L 27.6791,-356.278 L 28.1871,-356.647 L 28.6448,-357.077 L 29.0451,-357.561
 L 29.3815,-358.091 L 29.6489,-358.659 L 29.8429,-359.257 L 29.9606,-359.873 L 30,-360.5 L 30,-575.5
 L 29.9606,-576.127 L 29.8429,-576.743 L 29.6489,-577.341 L 29.3815,-577.909 L 29.0451,-578.439 L 28.6448,-578.923
 L 28.1871,-579.353 L 27.6791,-579.722 L 27.1289,-580.024 L 26.5451,-580.255 L 25.9369,-580.411 L 25.3139,-580.49
 L -25.3139,-580.49 L -25.9369,-580.411 L -26.5451,-580.255 L -27,-580.075 L -27,-580.49 L -30,-580.49
 L -30,-355.51 L -27,-355.51 z
M 22.3493,-570.605 L 22.0503,-570.643 L 21.7583,-570.717 L 21.4781,-570.828 L 21.214,-570.974 L 20.9702,-571.151
 L 20.7505,-571.357 L 20.5583,-571.589 L 20.3969,-571.844 L 20.2685,-572.117 L 20.1754,-572.403 L 20.1189,-572.699
 L 20.1,-573 L 20.1189,-573.301 L 20.1754,-573.597 L 20.2685,-573.883 L 20.3969,-574.156 L 20.5583,-574.411
 L 20.7505,-574.643 L 20.9702,-574.849 L 21.214,-575.026 L 21.4781,-575.172 L 21.7583,-575.283 L 22.0503,-575.357
 L 22.3493,-575.395 L 22.6507,-575.395 L 22.9497,-575.357 L 23.2416,-575.283 L 23.5219,-575.172 L 23.786,-575.026
 L 24.0298,-574.849 L 24.2495,-574.643 L 24.4416,-574.411 L 24.6031,-574.156 L 24.7315,-573.883 L 24.8246,-573.597
 L 24.8811,-573.301 L 24.9,-573 L 24.8811,-572.699 L 24.8246,-572.403 L 24.7315,-572.117 L 24.6031,-571.844
 L 24.4416,-571.589 L 24.2495,-571.357 L 24.0298,-571.151 L 23.786,-570.974 L 23.5219,-570.828 L 23.2416,-570.717
 L 22.9497,-570.643 L 22.6507,-570.605 z
M -22.6507,-570.605 L -22.9497,-570.643 L -23.2416,-570.717 L -23.5219,-570.828 L -23.786,-570.974 L -24.0298,-571.151
 L -24.2495,-571.357 L -24.4416,-571.589 L -24.6031,-571.844 L -24.7315,-572.117 L -24.8246,-572.403 L -24.8811,-572.699
 L -24.9,-573 L -24.8811,-573.301 L -24.8246,-573.597 L -24.7315,-573.883 L -24.6031,-574.156 L -24.4416,-574.411
 L -24.2495,-574.643 L -24.0298,-574.849 L -23.786,-575.026 L -23.5219,-575.172 L -23.2416,-575.283 L -22.9497,-575.357
 L -22.6507,-575.395 L -22.3493,-575.395 L -22.0503,-575.357 L -21.7583,-575.283 L -21.4781,-575.172 L -21.214,-575.026
 L -20.9702,-574.849 L -20.7505,-574.643 L -20.5583,-574.411 L -20.3969,-574.156 L -20.2685,-573.883 L -20.1754,-573.597
 L -20.1189,-573.301 L -20.1,-573 L -20.1189,-572.699 L -20.1754,-572.403 L -20.2685,-572.117 L -20.3969,-571.844
 L -20.5583,-571.589 L -20.7505,-571.357 L -20.9702,-571.151 L -21.214,-570.974 L -21.4781,-570.828 L -21.7583,-570.717
 L -22.0503,-570.643 L -22.3493,-570.605 z
M 22.3493,-360.605 L 22.0503,-360.643 L 21.7583,-360.717 L 21.4781,-360.828 L 21.214,-360.974 L 20.9702,-361.151
 L 20.7505,-361.357 L 20.5583,-361.589 L 20.3969,-361.844 L 20.2685,-362.117 L 20.1754,-362.403 L 20.1189,-362.699
 L 20.1,-363 L 20.1189,-363.301 L 20.1754,-363.597 L 20.2685,-363.883 L 20.3969,-364.156 L 20.5583,-364.411
 L 20.7505,-364.643 L 20.9702,-364.849 L 21.214,-365.026 L 21.4781,-365.172 L 21.7583,-365.283 L 22.0503,-365.357
 L 22.3493,-365.395 L 22.6507,-365.395 L 22.9497,-365.357 L 23.2416,-365.283 L 23.5219,-365.172 L 23.786,-365.026
 L 24.0298,-364.849 L 24.2495,-364.643 L 24.4416,-364.411 L 24.6031,-364.156 L 24.7315,-363.883 L 24.8246,-363.597
 L 24.8811,-363.301 L 24.9,-363 L 24.8811,-362.699 L 24.8246,-362.403 L 24.7315,-362.117 L 24.6031,-361.844
 L 24.4416,-361.589 L 24.2495,-361.357 L 24.0298,-361.151 L 23.786,-360.974 L 23.5219,-360.828 L 23.2416,-360.717
 L 22.9497,-360.643 L 22.6507,-360.605 z
M -22.6507,-360.605 L -22.9497,-360.643 L -23.2416,-360.717 L -23.5219,-360.828 L -23.786,-360.974 L -24.0298,-361.151
 L -24.2495,-361.357 L -24.4416,-361.589 L -24.6031,-361.844 L -24.7315,-362.117 L -24.8246,-362.403 L -24.8811,-362.699
 L -24.9,-363 L -24.8811,-363.301 L -24.8246,-363.597 L -24.7315,-363.883 L -24.6031,-364.156 L -24.4416,-364.411
 L -24.2495,-364.643 L -24.0298,-364.849 L -23.786,-365.026 L -23.5219,-365.172 L -23.2416,-365.283 L -22.9497,-365.357
 L -22.6507,-365.395 L -22.3493,-365.395 L -22.0503,-365.357 L -21.7583,-365.283 L -21.4781,-365.172 L -21.214,-365.026
 L -20.9702,-364.849 L -20.7505,-364.643 L -20.5583,-364.411 L -20.3969,-364.156 L -20.2685,-363.883 L -20.1754,-363.597
 L -20.1189,-363.301 L -20.1,-363 L -20.1189,-362.699 L -20.1754,-362.403 L -20.2685,-362.117 L -20.3969,-361.844
 L -20.5583,-361.589 L -20.7505,-361.357 L -20.9702,-361.151 L -21.214,-360.974 L -21.4781,-360.828 L -21.7583,-360.717
 L -22.0503,-360.643 L -22.3493,-360.605 z
M -27,-121.925 L -26.5451,-121.745 L -25.9369,-121.589 L -25.3139,-121.51 L 25.3139,-121.51 L 25.9369,-121.589
 L 26.5451,-121.745 L 27.1289,-121.976 L 27.6791,-122.278 L 28.1871,-122.647 L 28.6448,-123.077 L 29.0451,-123.561
 L 29.3815,-124.091 L 29.6489,-124.659 L 29.8429,-125.257 L 29.9606,-125.873 L 30,-126.5 L 30,-341.5
 L 29.9606,-342.127 L 29.8429,-342.743 L 29.6489,-343.341 L 29.3815,-343.909 L 29.0451,-344.439 L 28.6448,-344.923
 L 28.1871,-345.353 L 27.6791,-345.722 L 27.1289,-346.024 L 26.5451,-346.255 L 25.9369,-346.411 L 25.3139,-346.49
 L -25.3139,-346.49 L -25.9369,-346.411 L -26.5451,-346.255 L -27,-346.075 L -27,-346.49 L -30,-346.49
 L -30,-121.51 L -27,-121.51 z
M 22.387,-337.204 L 22.1627,-337.232 L 21.9438,-337.288 L 21.7336,-337.371 L 21.5355,-337.48 L 21.3526,-337.613
 L 21.1879,-337.768 L 21.0438,-337.942 L 20.9226,-338.133 L 20.8264,-338.337 L 20.7565,-338.552 L 20.7142,-338.774
 L 20.7,-339 L 20.7142,-339.226 L 20.7565,-339.448 L 20.8264,-339.663 L 20.9226,-339.867 L 21.0438,-340.058
 L 21.1879,-340.232 L 21.3526,-340.387 L 21.5355,-340.52 L 21.7336,-340.629 L 21.9438,-340.712 L 22.1627,-340.768
 L 22.387,-340.796 L 22.613,-340.796 L 22.8373,-340.768 L 23.0562,-340.712 L 23.2664,-340.629 L 23.4645,-340.52
 L 23.6474,-340.387 L 23.8121,-340.232 L 23.9562,-340.058 L 24.0773,-339.867 L 24.1736,-339.663 L 24.2434,-339.448
 L 24.2858,-339.226 L 24.3,-339 L 24.2858,-338.774 L 24.2434,-338.552 L 24.1736,-338.337 L 24.0773,-338.133
 L 23.9562,-337.942 L 23.8121,-337.768 L 23.6474,-337.613 L 23.4645,-337.48 L 23.2664,-337.371 L 23.0562,-337.288
 L 22.8373,-337.232 L 22.613,-337.204 z
M -22.613,-337.204 L -22.8373,-337.232 L -23.0562,-337.288 L -23.2664,-337.371 L -23.4645,-337.48 L -23.6474,-337.613
 L -23.8121,-337.768 L -23.9562,-337.942 L -24.0773,-338.133 L -24.1736,-338.337 L -24.2434,-338.552 L -24.2858,-338.774
 L -24.3,-339 L -24.2858,-339.226 L -24.2434,-339.448 L -24.1736,-339.663 L -24.0773,-339.867 L -23.9562,-340.058
 L -23.8121,-340.232 L -23.6474,-340.387 L -23.4645,-340.52 L -23.2664,-340.629 L -23.0562,-340.712 L -22.8373,-340.768
 L -22.613,-340.796 L -22.387,-340.796 L -22.1627,-340.768 L -21.9438,-340.712 L -21.7336,-340.629 L -21.5355,-340.52
 L -21.3526,-340.387 L -21.1879,-340.232 L -21.0438,-340.058 L -20.9226,-339.867 L -20.8264,-339.663 L -20.7565,-339.448
 L -20.7142,-339.226 L -20.7,-339 L -20.7142,-338.774 L -20.7565,-338.552 L -20.8264,-338.337 L -20.9226,-338.133
 L -21.0438,-337.942 L -21.1879,-337.768 L -21.3526,-337.613 L -21.5355,-337.48 L -21.7336,-337.371 L -21.9438,-337.288
 L -22.1627,-337.232 L -22.387,-337.204 z
M -22.613,-127.204 L -22.8373,-127.232 L -23.0562,-127.288 L -23.2664,-127.371 L -23.4645,-127.48 L -23.6474,-127.613
 L -23.8121,-127.768 L -23.9562,-127.942 L -24.0773,-128.133 L -24.1736,-128.337 L -24.2434,-128.552 L -24.2858,-128.774
 L -24.3,-129 L -24.2858,-129.226 L -24.2434,-129.448 L -24.1736,-129.663 L -24.0773,-129.867 L -23.9562,-130.058
 L -23.8121,-130.232 L -23.6474,-130.387 L -23.4645,-130.52 L -23.2664,-130.629 L -23.0562,-130.712 L -22.8373,-130.768
 L -22.613,-130.796 L -22.387,-130.796 L -22.1627,-130.768 L -21.9438,-130.712 L -21.7336,-130.629 L -21.5355,-130.52
 L -21.3526,-130.387 L -21.1879,-130.232 L -21.0438,-130.058 L -20.9226,-129.867 L -20.8264,-129.663 L -20.7565,-129.448
 L -20.7142,-129.226 L -20.7,-129 L -20.7142,-128.774 L -20.7565,-128.552 L -20.8264,-128.337 L -20.9226,-128.133
 L -21.0438,-127.942 L -21.1879,-127.768 L -21.3526,-127.613 L -21.5355,-127.48 L -21.7336,-127.371 L -21.9438,-127.288
 L -22.1627,-127.232 L -22.387,-127.204 z
M 22.387,-127.204 L 22.1627,-127.232 L 21.9438,-127.288 L 21.7336,-127.371 L 21.5355,-127.48 L 21.3526,-127.613
 L 21.1879,-127.768 L 21.0438,-127.942 L 20.9226,-128.133 L 20.8264,-128.337 L 20.7565,-128.552 L 20.7142,-128.774
 L 20.7,-129 L 20.7142,-129.226 L 20.7565,-129.448 L 20.8264,-129.663 L 20.9226,-129.867 L 21.0438,-130.058
 L 21.1879,-130.232 L 21.3526,-130.387 L 21.5355,-130.52 L 21.7336,-130.629 L 21.9438,-130.712 L 22.1627,-130.768
 L 22.387,-130.796 L 22.613,-130.796 L 22.8373,-130.768 L 23.0562,-130.712 L 23.2664,-130.629 L 23.4645,-130.52
 L 23.6474,-130.387 L 23.8121,-130.232 L 23.9562,-130.058 L 24.0773,-129.867 L 24.1736,-129.663 L 24.2434,-129.448
 L 24.2858,-129.226 L 24.3,-129 L 24.2858,-128.774 L 24.2434,-128.552 L 24.1736,-128.337 L 24.0773,-128.133
 L 23.9562,-127.942 L 23.8121,-127.768 L 23.6474,-127.613 L 23.4645,-127.48 L 23.2664,-127.371 L 23.0562,-127.288
 L 22.8373,-127.232 L 22.613,-127.204 z
M -27,-112.115 L -30,-112.115 L -30,112.115 L -27,112.115 z
" stroke="black" fill="lightgray" stroke-width="0.5"/>
</svg>
