<?xml version="1.0" standalone="no"?>
<!DOCTYPE svg PUBLIC "-//W3C//DTD SVG 1.1//EN" "http://www.w3.org/Graphics/SVG/1.1/DTD/svg11.dtd">
<svg width="210mm" height="340mm" viewBox="-105 -605 210 340" xmlns="http://www.w3.org/2000/svg" version="1.1">
<title>OpenSCAD Model</title>
<path d="
M 100.937,-439.589 L 101.545,-439.745 L 102.129,-439.976 L 102.679,-440.278 L 103.187,-440.647 L 103.645,-441.077
 L 104.045,-441.561 L 104.382,-442.091 L 104.649,-442.659 L 104.843,-443.257 L 104.961,-443.873 L 105,-444.5
 L 105,-599.5 L 104.961,-600.127 L 104.843,-600.743 L 104.649,-601.341 L 104.382,-601.909 L 104.045,-602.439
 L 103.645,-602.923 L 103.187,-603.353 L 102.679,-603.722 L 102.129,-604.024 L 101.545,-604.255 L 100.937,-604.411
 L 100.314,-604.49 L -100.314,-604.49 L -100.937,-604.411 L -101.545,-604.255 L -102.129,-604.024 L -102.679,-603.722
 L -103.187,-603.353 L -103.645,-602.923 L -104.045,-602.439 L -104.382,-601.909 L -104.649,-601.341 L -104.843,-600.743
 L -104.961,-600.127 L -105,-599.5 L -105,-444.5 L -104.961,-443.873 L -104.843,-443.257 L -104.649,-442.659
 L -104.382,-442.091 L -104.045,-441.561 L -103.645,-441.077 L -103.187,-440.647 L -102.679,-440.278 L -102.129,-439.976
 L -101.545,-439.745 L -100.937,-439.589 L -100.314,-439.51 L 100.314,-439.51 z
M -100.037,-440.181 L -100.608,-440.253 L -101.165,-440.396 L -101.699,-440.607 L -102.203,-440.884 L -102.668,-441.222
 L -103.088,-441.616 L -103.454,-442.059 L -103.762,-442.544 L -104.007,-443.065 L -104.185,-443.611 L -104.292,-444.176
 L -104.328,-444.75 L -104.328,-599.25 L -104.292,-599.824 L -104.185,-600.389 L -104.007,-600.935 L -103.762,-601.456
 L -103.454,-601.941 L -103.088,-602.384 L -102.668,-602.778 L -102.203,-603.116 L -101.699,-603.393 L -101.165,-603.604
 L -100.608,-603.747 L -100.037,-603.819 L 100.037,-603.819 L 100.608,-603.747 L 101.165,-603.604 L 101.699,-603.393
 L 102.203,-603.116 L 102.668,-602.778 L 103.088,-602.384 L 103.454,-601.941 L 103.762,-601.456 L 104.007,-600.935
 L 104.185,-600.389 L 104.292,-599.824 L 104.328,-599.25 L 104.328,-444.75 L 104.292,-444.176 L 104.185,-443.611
 L 104.007,-443.065 L 103.762,-442.544 L 103.454,-442.059 L 103.088,-441.616 L 102.668,-441.222 L 102.203,-440.884
 L 101.699,-440.607 L 101.165,-440.396 L 100.608,-440.253 L 100.037,-440.181 z
M 100.937,-265.589 L 101.545,-265.745 L 102.129,-265.976 L 102.679,-266.278 L 103.187,-266.647 L 103.645,-267.077
 L 104.045,-267.561 L 104.382,-268.091 L 104.649,-268.659 L 104.843,-269.257 L 104.961,-269.873 L 105,-270.5
 L 105,-425.5 L 104.961,-426.127 L 104.843,-426.743 L 104.649,-427.341 L 104.382,-427.909 L 104.045,-428.439
 L 103.645,-428.923 L 103.187,-429.353 L 102.679,-429.722 L 102.129,-430.024 L 101.545,-430.255 L 100.937,-430.411
 L 100.314,-430.49 L -100.314,-430.49 L -100.937,-430.411 L -101.545,-430.255 L -102.129,-430.024 L -102.679,-429.722
 L -103.187,-429.353 L -103.645,-428.923 L -104.045,-428.439 L -104.382,-427.909 L -104.649,-427.341 L -104.843,-426.743
 L -104.961,-426.127 L -105,-425.5 L -105,-270.5 L -104.961,-269.873 L -104.843,-269.257 L -104.649,-268.659
 L -104.382,-268.091 L -104.045,-267.561 L -103.645,-267.077 L -103.187,-266.647 L -102.679,-266.278 L -102.129,-265.976
 L -101.545,-265.745 L -100.937,-265.589 L -100.314,-265.51 L 100.314,-265.51 z
M -99.8825,-268.645 L -100.145,-268.678 L -100.402,-268.744 L -100.648,-268.841 L -100.88,-268.969 L -101.095,-269.124
 L -101.288,-269.306 L -101.457,-269.51 L -101.599,-269.734 L -101.711,-269.973 L -101.793,-270.225 L -101.843,-270.486
 L -101.86,-270.75 L -101.86,-425.25 L -101.843,-425.514 L -101.793,-425.775 L -101.711,-426.027 L -101.599,-426.266
 L -101.457,-426.49 L -101.288,-426.694 L -101.095,-426.876 L -100.88,-427.031 L -100.648,-427.159 L -100.402,-427.256
 L -100.145,-427.322 L -99.8825,-427.355 L 99.8825,-427.355 L 100.145,-427.322 L 100.402,-427.256 L 100.648,-427.159
 L 100.88,-427.031 L 101.095,-426.876 L 101.288,-426.694 L 101.457,-426.49 L 101.599,-426.266 L 101.711,-426.027
 L 101.793,-425.775 L 101.843,-425.514 L 101.86,-425.25 L 101.86,-270.75 L 101.843,-270.486 L 101.793,-270.225
 L 101.711,-269.973 L 101.599,-269.734 L 101.457,-269.51 L 101.288,-269.306 L 101.095,-269.124 L 100.88,-268.969
 L 100.648,-268.841 L 100.402,-268.744 L 100.145,-268.678 L 99.8825,-268.645 z
" stroke="black" fill="lightgray" stroke-width="0.5"/>
</svg>
