  0
SECTION
  2
BLOCKS
  0
ENDSEC
  0
SECTION
  2
ENTITIES
  0
LINE
  8
0
 10
55.9369
 20
1539.09
 11
56.5451
 21
1539.24
  0
LINE
  8
0
 10
56.5451
 20
1539.24
 11
57.1289
 21
1539.48
  0
LINE
  8
0
 10
57.1289
 20
1539.48
 11
57.6791
 21
1539.78
  0
LINE
  8
0
 10
57.6791
 20
1539.78
 11
58.1871
 21
1540.15
  0
LINE
  8
0
 10
58.1871
 20
1540.15
 11
58.6448
 21
1540.58
  0
LINE
  8
0
 10
58.6448
 20
1540.58
 11
59.0451
 21
1541.06
  0
LINE
  8
0
 10
59.0451
 20
1541.06
 11
59.3815
 21
1541.59
  0
LINE
  8
0
 10
59.3815
 20
1541.59
 11
59.6489
 21
1542.16
  0
LINE
  8
0
 10
59.6489
 20
1542.16
 11
59.8429
 21
1542.76
  0
LINE
  8
0
 10
59.8429
 20
1542.76
 11
59.9606
 21
1543.37
  0
LINE
  8
0
 10
59.9606
 20
1543.37
 11
60
 21
1544
  0
LINE
  8
0
 10
60
 20
1544
 11
60
 21
1804
  0
LINE
  8
0
 10
60
 20
1804
 11
59.9606
 21
1804.63
  0
LINE
  8
0
 10
59.9606
 20
1804.63
 11
59.8429
 21
1805.24
  0
LINE
  8
0
 10
59.8429
 20
1805.24
 11
59.6489
 21
1805.84
  0
LINE
  8
0
 10
59.6489
 20
1805.84
 11
59.3815
 21
1806.41
  0
LINE
  8
0
 10
59.3815
 20
1806.41
 11
59.0451
 21
1806.94
  0
LINE
  8
0
 10
59.0451
 20
1806.94
 11
58.6448
 21
1807.42
  0
LINE
  8
0
 10
58.6448
 20
1807.42
 11
58.1871
 21
1807.85
  0
LINE
  8
0
 10
58.1871
 20
1807.85
 11
57.6791
 21
1808.22
  0
LINE
  8
0
 10
57.6791
 20
1808.22
 11
57.1289
 21
1808.52
  0
LINE
  8
0
 10
57.1289
 20
1808.52
 11
56.5451
 21
1808.76
  0
LINE
  8
0
 10
56.5451
 20
1808.76
 11
55.9369
 21
1808.91
  0
LINE
  8
0
 10
55.9369
 20
1808.91
 11
55.3139
 21
1808.99
  0
LINE
  8
0
 10
55.3139
 20
1808.99
 11
-55.3139
 21
1808.99
  0
LINE
  8
0
 10
-55.3139
 20
1808.99
 11
-55.9369
 21
1808.91
  0
LINE
  8
0
 10
-55.9369
 20
1808.91
 11
-56.5451
 21
1808.76
  0
LINE
  8
0
 10
-56.5451
 20
1808.76
 11
-57.1289
 21
1808.52
  0
LINE
  8
0
 10
-57.1289
 20
1808.52
 11
-57.6791
 21
1808.22
  0
LINE
  8
0
 10
-57.6791
 20
1808.22
 11
-58.1871
 21
1807.85
  0
LINE
  8
0
 10
-58.1871
 20
1807.85
 11
-58.6448
 21
1807.42
  0
LINE
  8
0
 10
-58.6448
 20
1807.42
 11
-59.0451
 21
1806.94
  0
LINE
  8
0
 10
-59.0451
 20
1806.94
 11
-59.3815
 21
1806.41
  0
LINE
  8
0
 10
-59.3815
 20
1806.41
 11
-59.6489
 21
1805.84
  0
LINE
  8
0
 10
-59.6489
 20
1805.84
 11
-59.8429
 21
1805.24
  0
LINE
  8
0
 10
-59.8429
 20
1805.24
 11
-59.9606
 21
1804.63
  0
LINE
  8
0
 10
-59.9606
 20
1804.63
 11
-60
 21
1804
  0
LINE
  8
0
 10
-60
 20
1804
 11
-60
 21
1544
  0
LINE
  8
0
 10
-60
 20
1544
 11
-59.9606
 21
1543.37
  0
LINE
  8
0
 10
-59.9606
 20
1543.37
 11
-59.8429
 21
1542.76
  0
LINE
  8
0
 10
-59.8429
 20
1542.76
 11
-59.6489
 21
1542.16
  0
LINE
  8
0
 10
-59.6489
 20
1542.16
 11
-59.3815
 21
1541.59
  0
LINE
  8
0
 10
-59.3815
 20
1541.59
 11
-59.0451
 21
1541.06
  0
LINE
  8
0
 10
-59.0451
 20
1541.06
 11
-58.6448
 21
1540.58
  0
LINE
  8
0
 10
-58.6448
 20
1540.58
 11
-58.1871
 21
1540.15
  0
LINE
  8
0
 10
-58.1871
 20
1540.15
 11
-57.6791
 21
1539.78
  0
LINE
  8
0
 10
-57.6791
 20
1539.78
 11
-57.1289
 21
1539.48
  0
LINE
  8
0
 10
-57.1289
 20
1539.48
 11
-56.5451
 21
1539.24
  0
LINE
  8
0
 10
-56.5451
 20
1539.24
 11
-55.9369
 21
1539.09
  0
LINE
  8
0
 10
-55.9369
 20
1539.09
 11
-55.3139
 21
1539.01
  0
LINE
  8
0
 10
-55.3139
 20
1539.01
 11
55.3139
 21
1539.01
  0
LINE
  8
0
 10
55.3139
 20
1539.01
 11
55.9369
 21
1539.09
  0
LINE
  8
0
 10
-54.7512
 20
1540.51
 11
-55.2495
 21
1540.57
  0
LINE
  8
0
 10
-55.2495
 20
1540.57
 11
-55.7361
 21
1540.7
  0
LINE
  8
0
 10
-55.7361
 20
1540.7
 11
-56.2031
 21
1540.88
  0
LINE
  8
0
 10
-56.2031
 20
1540.88
 11
-56.6433
 21
1541.12
  0
LINE
  8
0
 10
-56.6433
 20
1541.12
 11
-57.0497
 21
1541.42
  0
LINE
  8
0
 10
-57.0497
 20
1541.42
 11
-57.4159
 21
1541.76
  0
LINE
  8
0
 10
-57.4159
 20
1541.76
 11
-57.7361
 21
1542.15
  0
LINE
  8
0
 10
-57.7361
 20
1542.15
 11
-58.0052
 21
1542.57
  0
LINE
  8
0
 10
-58.0052
 20
1542.57
 11
-58.2191
 21
1543.03
  0
LINE
  8
0
 10
-58.2191
 20
1543.03
 11
-58.3743
 21
1543.51
  0
LINE
  8
0
 10
-58.3743
 20
1543.51
 11
-58.4685
 21
1544
  0
LINE
  8
0
 10
-58.4685
 20
1544
 11
-58.5
 21
1544.5
  0
LINE
  8
0
 10
-58.5
 20
1544.5
 11
-58.5
 21
1803.5
  0
LINE
  8
0
 10
-58.5
 20
1803.5
 11
-58.4685
 21
1804
  0
LINE
  8
0
 10
-58.4685
 20
1804
 11
-58.3743
 21
1804.49
  0
LINE
  8
0
 10
-58.3743
 20
1804.49
 11
-58.2191
 21
1804.97
  0
LINE
  8
0
 10
-58.2191
 20
1804.97
 11
-58.0052
 21
1805.43
  0
LINE
  8
0
 10
-58.0052
 20
1805.43
 11
-57.7361
 21
1805.85
  0
LINE
  8
0
 10
-57.7361
 20
1805.85
 11
-57.4159
 21
1806.24
  0
LINE
  8
0
 10
-57.4159
 20
1806.24
 11
-57.0497
 21
1806.58
  0
LINE
  8
0
 10
-57.0497
 20
1806.58
 11
-56.6433
 21
1806.88
  0
LINE
  8
0
 10
-56.6433
 20
1806.88
 11
-56.2031
 21
1807.12
  0
LINE
  8
0
 10
-56.2031
 20
1807.12
 11
-55.7361
 21
1807.3
  0
LINE
  8
0
 10
-55.7361
 20
1807.3
 11
-55.2495
 21
1807.43
  0
LINE
  8
0
 10
-55.2495
 20
1807.43
 11
-54.7512
 21
1807.49
  0
LINE
  8
0
 10
-54.7512
 20
1807.49
 11
54.7512
 21
1807.49
  0
LINE
  8
0
 10
54.7512
 20
1807.49
 11
55.2495
 21
1807.43
  0
LINE
  8
0
 10
55.2495
 20
1807.43
 11
55.7361
 21
1807.3
  0
LINE
  8
0
 10
55.7361
 20
1807.3
 11
56.2031
 21
1807.12
  0
LINE
  8
0
 10
56.2031
 20
1807.12
 11
56.6433
 21
1806.88
  0
LINE
  8
0
 10
56.6433
 20
1806.88
 11
57.0497
 21
1806.58
  0
LINE
  8
0
 10
57.0497
 20
1806.58
 11
57.4159
 21
1806.24
  0
LINE
  8
0
 10
57.4159
 20
1806.24
 11
57.7361
 21
1805.85
  0
LINE
  8
0
 10
57.7361
 20
1805.85
 11
58.0052
 21
1805.43
  0
LINE
  8
0
 10
58.0052
 20
1805.43
 11
58.2191
 21
1804.97
  0
LINE
  8
0
 10
58.2191
 20
1804.97
 11
58.3743
 21
1804.49
  0
LINE
  8
0
 10
58.3743
 20
1804.49
 11
58.4685
 21
1804
  0
LINE
  8
0
 10
58.4685
 20
1804
 11
58.5
 21
1803.5
  0
LINE
  8
0
 10
58.5
 20
1803.5
 11
58.5
 21
1544.5
  0
LINE
  8
0
 10
58.5
 20
1544.5
 11
58.4685
 21
1544
  0
LINE
  8
0
 10
58.4685
 20
1544
 11
58.3743
 21
1543.51
  0
LINE
  8
0
 10
58.3743
 20
1543.51
 11
58.2191
 21
1543.03
  0
LINE
  8
0
 10
58.2191
 20
1543.03
 11
58.0052
 21
1542.57
  0
LINE
  8
0
 10
58.0052
 20
1542.57
 11
57.7361
 21
1542.15
  0
LINE
  8
0
 10
57.7361
 20
1542.15
 11
57.4159
 21
1541.76
  0
LINE
  8
0
 10
57.4159
 20
1541.76
 11
57.0497
 21
1541.42
  0
LINE
  8
0
 10
57.0497
 20
1541.42
 11
56.6433
 21
1541.12
  0
LINE
  8
0
 10
56.6433
 20
1541.12
 11
56.2031
 21
1540.88
  0
LINE
  8
0
 10
56.2031
 20
1540.88
 11
55.7361
 21
1540.7
  0
LINE
  8
0
 10
55.7361
 20
1540.7
 11
55.2495
 21
1540.57
  0
LINE
  8
0
 10
55.2495
 20
1540.57
 11
54.7512
 21
1540.51
  0
LINE
  8
0
 10
54.7512
 20
1540.51
 11
-54.7512
 21
1540.51
  0
LINE
  8
0
 10
55.9369
 20
1260.09
 11
56.5451
 21
1260.24
  0
LINE
  8
0
 10
56.5451
 20
1260.24
 11
57.1289
 21
1260.48
  0
LINE
  8
0
 10
57.1289
 20
1260.48
 11
57.6791
 21
1260.78
  0
LINE
  8
0
 10
57.6791
 20
1260.78
 11
58.1871
 21
1261.15
  0
LINE
  8
0
 10
58.1871
 20
1261.15
 11
58.6448
 21
1261.58
  0
LINE
  8
0
 10
58.6448
 20
1261.58
 11
59.0451
 21
1262.06
  0
LINE
  8
0
 10
59.0451
 20
1262.06
 11
59.3815
 21
1262.59
  0
LINE
  8
0
 10
59.3815
 20
1262.59
 11
59.6489
 21
1263.16
  0
LINE
  8
0
 10
59.6489
 20
1263.16
 11
59.8429
 21
1263.76
  0
LINE
  8
0
 10
59.8429
 20
1263.76
 11
59.9606
 21
1264.37
  0
LINE
  8
0
 10
59.9606
 20
1264.37
 11
60
 21
1265
  0
LINE
  8
0
 10
60
 20
1265
 11
60
 21
1525
  0
LINE
  8
0
 10
60
 20
1525
 11
59.9606
 21
1525.63
  0
LINE
  8
0
 10
59.9606
 20
1525.63
 11
59.8429
 21
1526.24
  0
LINE
  8
0
 10
59.8429
 20
1526.24
 11
59.6489
 21
1526.84
  0
LINE
  8
0
 10
59.6489
 20
1526.84
 11
59.3815
 21
1527.41
  0
LINE
  8
0
 10
59.3815
 20
1527.41
 11
59.0451
 21
1527.94
  0
LINE
  8
0
 10
59.0451
 20
1527.94
 11
58.6448
 21
1528.42
  0
LINE
  8
0
 10
58.6448
 20
1528.42
 11
58.1871
 21
1528.85
  0
LINE
  8
0
 10
58.1871
 20
1528.85
 11
57.6791
 21
1529.22
  0
LINE
  8
0
 10
57.6791
 20
1529.22
 11
57.1289
 21
1529.52
  0
LINE
  8
0
 10
57.1289
 20
1529.52
 11
56.5451
 21
1529.76
  0
LINE
  8
0
 10
56.5451
 20
1529.76
 11
55.9369
 21
1529.91
  0
LINE
  8
0
 10
55.9369
 20
1529.91
 11
55.3139
 21
1529.99
  0
LINE
  8
0
 10
55.3139
 20
1529.99
 11
-55.3139
 21
1529.99
  0
LINE
  8
0
 10
-55.3139
 20
1529.99
 11
-55.9369
 21
1529.91
  0
LINE
  8
0
 10
-55.9369
 20
1529.91
 11
-56.5451
 21
1529.76
  0
LINE
  8
0
 10
-56.5451
 20
1529.76
 11
-57.1289
 21
1529.52
  0
LINE
  8
0
 10
-57.1289
 20
1529.52
 11
-57.6791
 21
1529.22
  0
LINE
  8
0
 10
-57.6791
 20
1529.22
 11
-58.1871
 21
1528.85
  0
LINE
  8
0
 10
-58.1871
 20
1528.85
 11
-58.6448
 21
1528.42
  0
LINE
  8
0
 10
-58.6448
 20
1528.42
 11
-59.0451
 21
1527.94
  0
LINE
  8
0
 10
-59.0451
 20
1527.94
 11
-59.3815
 21
1527.41
  0
LINE
  8
0
 10
-59.3815
 20
1527.41
 11
-59.6489
 21
1526.84
  0
LINE
  8
0
 10
-59.6489
 20
1526.84
 11
-59.8429
 21
1526.24
  0
LINE
  8
0
 10
-59.8429
 20
1526.24
 11
-59.9606
 21
1525.63
  0
LINE
  8
0
 10
-59.9606
 20
1525.63
 11
-60
 21
1525
  0
LINE
  8
0
 10
-60
 20
1525
 11
-60
 21
1265
  0
LINE
  8
0
 10
-60
 20
1265
 11
-59.9606
 21
1264.37
  0
LINE
  8
0
 10
-59.9606
 20
1264.37
 11
-59.8429
 21
1263.76
  0
LINE
  8
0
 10
-59.8429
 20
1263.76
 11
-59.6489
 21
1263.16
  0
LINE
  8
0
 10
-59.6489
 20
1263.16
 11
-59.3815
 21
1262.59
  0
LINE
  8
0
 10
-59.3815
 20
1262.59
 11
-59.0451
 21
1262.06
  0
LINE
  8
0
 10
-59.0451
 20
1262.06
 11
-58.6448
 21
1261.58
  0
LINE
  8
0
 10
-58.6448
 20
1261.58
 11
-58.1871
 21
1261.15
  0
LINE
  8
0
 10
-58.1871
 20
1261.15
 11
-57.6791
 21
1260.78
  0
LINE
  8
0
 10
-57.6791
 20
1260.78
 11
-57.1289
 21
1260.48
  0
LINE
  8
0
 10
-57.1289
 20
1260.48
 11
-56.5451
 21
1260.24
  0
LINE
  8
0
 10
-56.5451
 20
1260.24
 11
-55.9369
 21
1260.09
  0
LINE
  8
0
 10
-55.9369
 20
1260.09
 11
-55.3139
 21
1260.01
  0
LINE
  8
0
 10
-55.3139
 20
1260.01
 11
55.3139
 21
1260.01
  0
LINE
  8
0
 10
55.3139
 20
1260.01
 11
55.9369
 21
1260.09
  0
LINE
  8
0
 10
-54.7432
 20
1261.64
 11
-55.2256
 21
1261.7
  0
LINE
  8
0
 10
-55.2256
 20
1261.7
 11
-55.6967
 21
1261.82
  0
LINE
  8
0
 10
-55.6967
 20
1261.82
 11
-56.1489
 21
1262
  0
LINE
  8
0
 10
-56.1489
 20
1262
 11
-56.5751
 21
1262.23
  0
LINE
  8
0
 10
-56.5751
 20
1262.23
 11
-56.9685
 21
1262.52
  0
LINE
  8
0
 10
-56.9685
 20
1262.52
 11
-57.323
 21
1262.85
  0
LINE
  8
0
 10
-57.323
 20
1262.85
 11
-57.633
 21
1263.22
  0
LINE
  8
0
 10
-57.633
 20
1263.22
 11
-57.8936
 21
1263.63
  0
LINE
  8
0
 10
-57.8936
 20
1263.63
 11
-58.1007
 21
1264.07
  0
LINE
  8
0
 10
-58.1007
 20
1264.07
 11
-58.251
 21
1264.54
  0
LINE
  8
0
 10
-58.251
 20
1264.54
 11
-58.3421
 21
1265.01
  0
LINE
  8
0
 10
-58.3421
 20
1265.01
 11
-58.3726
 21
1265.5
  0
LINE
  8
0
 10
-58.3726
 20
1265.5
 11
-58.3726
 21
1524.5
  0
LINE
  8
0
 10
-58.3726
 20
1524.5
 11
-58.3421
 21
1524.99
  0
LINE
  8
0
 10
-58.3421
 20
1524.99
 11
-58.251
 21
1525.46
  0
LINE
  8
0
 10
-58.251
 20
1525.46
 11
-58.1007
 21
1525.93
  0
LINE
  8
0
 10
-58.1007
 20
1525.93
 11
-57.8936
 21
1526.37
  0
LINE
  8
0
 10
-57.8936
 20
1526.37
 11
-57.633
 21
1526.78
  0
LINE
  8
0
 10
-57.633
 20
1526.78
 11
-57.323
 21
1527.15
  0
LINE
  8
0
 10
-57.323
 20
1527.15
 11
-56.9685
 21
1527.48
  0
LINE
  8
0
 10
-56.9685
 20
1527.48
 11
-56.5751
 21
1527.77
  0
LINE
  8
0
 10
-56.5751
 20
1527.77
 11
-56.1489
 21
1528
  0
LINE
  8
0
 10
-56.1489
 20
1528
 11
-55.6967
 21
1528.18
  0
LINE
  8
0
 10
-55.6967
 20
1528.18
 11
-55.2256
 21
1528.3
  0
LINE
  8
0
 10
-55.2256
 20
1528.3
 11
-54.7432
 21
1528.36
  0
LINE
  8
0
 10
-54.7432
 20
1528.36
 11
54.7432
 21
1528.36
  0
LINE
  8
0
 10
54.7432
 20
1528.36
 11
55.2256
 21
1528.3
  0
LINE
  8
0
 10
55.2256
 20
1528.3
 11
55.6967
 21
1528.18
  0
LINE
  8
0
 10
55.6967
 20
1528.18
 11
56.1489
 21
1528
  0
LINE
  8
0
 10
56.1489
 20
1528
 11
56.5751
 21
1527.77
  0
LINE
  8
0
 10
56.5751
 20
1527.77
 11
56.9685
 21
1527.48
  0
LINE
  8
0
 10
56.9685
 20
1527.48
 11
57.323
 21
1527.15
  0
LINE
  8
0
 10
57.323
 20
1527.15
 11
57.633
 21
1526.78
  0
LINE
  8
0
 10
57.633
 20
1526.78
 11
57.8936
 21
1526.37
  0
LINE
  8
0
 10
57.8936
 20
1526.37
 11
58.1007
 21
1525.93
  0
LINE
  8
0
 10
58.1007
 20
1525.93
 11
58.251
 21
1525.46
  0
LINE
  8
0
 10
58.251
 20
1525.46
 11
58.3421
 21
1524.99
  0
LINE
  8
0
 10
58.3421
 20
1524.99
 11
58.3726
 21
1524.5
  0
LINE
  8
0
 10
58.3726
 20
1524.5
 11
58.3726
 21
1265.5
  0
LINE
  8
0
 10
58.3726
 20
1265.5
 11
58.3421
 21
1265.01
  0
LINE
  8
0
 10
58.3421
 20
1265.01
 11
58.251
 21
1264.54
  0
LINE
  8
0
 10
58.251
 20
1264.54
 11
58.1007
 21
1264.07
  0
LINE
  8
0
 10
58.1007
 20
1264.07
 11
57.8936
 21
1263.63
  0
LINE
  8
0
 10
57.8936
 20
1263.63
 11
57.633
 21
1263.22
  0
LINE
  8
0
 10
57.633
 20
1263.22
 11
57.323
 21
1262.85
  0
LINE
  8
0
 10
57.323
 20
1262.85
 11
56.9685
 21
1262.52
  0
LINE
  8
0
 10
56.9685
 20
1262.52
 11
56.5751
 21
1262.23
  0
LINE
  8
0
 10
56.5751
 20
1262.23
 11
56.1489
 21
1262
  0
LINE
  8
0
 10
56.1489
 20
1262
 11
55.6967
 21
1261.82
  0
LINE
  8
0
 10
55.6967
 20
1261.82
 11
55.2256
 21
1261.7
  0
LINE
  8
0
 10
55.2256
 20
1261.7
 11
54.7432
 21
1261.64
  0
LINE
  8
0
 10
54.7432
 20
1261.64
 11
-54.7432
 21
1261.64
  0
LINE
  8
0
 10
55.9369
 20
981.089
 11
56.5451
 21
981.245
  0
LINE
  8
0
 10
56.5451
 20
981.245
 11
57.1289
 21
981.476
  0
LINE
  8
0
 10
57.1289
 20
981.476
 11
57.6791
 21
981.778
  0
LINE
  8
0
 10
57.6791
 20
981.778
 11
58.1871
 21
982.147
  0
LINE
  8
0
 10
58.1871
 20
982.147
 11
58.6448
 21
982.577
  0
LINE
  8
0
 10
58.6448
 20
982.577
 11
59.0451
 21
983.061
  0
LINE
  8
0
 10
59.0451
 20
983.061
 11
59.3815
 21
983.591
  0
LINE
  8
0
 10
59.3815
 20
983.591
 11
59.6489
 21
984.159
  0
LINE
  8
0
 10
59.6489
 20
984.159
 11
59.8429
 21
984.757
  0
LINE
  8
0
 10
59.8429
 20
984.757
 11
59.9606
 21
985.373
  0
LINE
  8
0
 10
59.9606
 20
985.373
 11
60
 21
986
  0
LINE
  8
0
 10
60
 20
986
 11
60
 21
1246
  0
LINE
  8
0
 10
60
 20
1246
 11
59.9606
 21
1246.63
  0
LINE
  8
0
 10
59.9606
 20
1246.63
 11
59.8429
 21
1247.24
  0
LINE
  8
0
 10
59.8429
 20
1247.24
 11
59.6489
 21
1247.84
  0
LINE
  8
0
 10
59.6489
 20
1247.84
 11
59.3815
 21
1248.41
  0
LINE
  8
0
 10
59.3815
 20
1248.41
 11
59.0451
 21
1248.94
  0
LINE
  8
0
 10
59.0451
 20
1248.94
 11
58.6448
 21
1249.42
  0
LINE
  8
0
 10
58.6448
 20
1249.42
 11
58.1871
 21
1249.85
  0
LINE
  8
0
 10
58.1871
 20
1249.85
 11
57.6791
 21
1250.22
  0
LINE
  8
0
 10
57.6791
 20
1250.22
 11
57.1289
 21
1250.52
  0
LINE
  8
0
 10
57.1289
 20
1250.52
 11
56.5451
 21
1250.76
  0
LINE
  8
0
 10
56.5451
 20
1250.76
 11
55.9369
 21
1250.91
  0
LINE
  8
0
 10
55.9369
 20
1250.91
 11
55.3139
 21
1250.99
  0
LINE
  8
0
 10
55.3139
 20
1250.99
 11
-55.3139
 21
1250.99
  0
LINE
  8
0
 10
-55.3139
 20
1250.99
 11
-55.9369
 21
1250.91
  0
LINE
  8
0
 10
-55.9369
 20
1250.91
 11
-56.5451
 21
1250.76
  0
LINE
  8
0
 10
-56.5451
 20
1250.76
 11
-57.1289
 21
1250.52
  0
LINE
  8
0
 10
-57.1289
 20
1250.52
 11
-57.6791
 21
1250.22
  0
LINE
  8
0
 10
-57.6791
 20
1250.22
 11
-58.1871
 21
1249.85
  0
LINE
  8
0
 10
-58.1871
 20
1249.85
 11
-58.6448
 21
1249.42
  0
LINE
  8
0
 10
-58.6448
 20
1249.42
 11
-59.0451
 21
1248.94
  0
LINE
  8
0
 10
-59.0451
 20
1248.94
 11
-59.3815
 21
1248.41
  0
LINE
  8
0
 10
-59.3815
 20
1248.41
 11
-59.6489
 21
1247.84
  0
LINE
  8
0
 10
-59.6489
 20
1247.84
 11
-59.8429
 21
1247.24
  0
LINE
  8
0
 10
-59.8429
 20
1247.24
 11
-59.9606
 21
1246.63
  0
LINE
  8
0
 10
-59.9606
 20
1246.63
 11
-60
 21
1246
  0
LINE
  8
0
 10
-60
 20
1246
 11
-60
 21
986
  0
LINE
  8
0
 10
-60
 20
986
 11
-59.9606
 21
985.373
  0
LINE
  8
0
 10
-59.9606
 20
985.373
 11
-59.8429
 21
984.757
  0
LINE
  8
0
 10
-59.8429
 20
984.757
 11
-59.6489
 21
984.159
  0
LINE
  8
0
 10
-59.6489
 20
984.159
 11
-59.3815
 21
983.591
  0
LINE
  8
0
 10
-59.3815
 20
983.591
 11
-59.0451
 21
983.061
  0
LINE
  8
0
 10
-59.0451
 20
983.061
 11
-58.6448
 21
982.577
  0
LINE
  8
0
 10
-58.6448
 20
982.577
 11
-58.1871
 21
982.147
  0
LINE
  8
0
 10
-58.1871
 20
982.147
 11
-57.6791
 21
981.778
  0
LINE
  8
0
 10
-57.6791
 20
981.778
 11
-57.1289
 21
981.476
  0
LINE
  8
0
 10
-57.1289
 20
981.476
 11
-56.5451
 21
981.245
  0
LINE
  8
0
 10
-56.5451
 20
981.245
 11
-55.9369
 21
981.089
  0
LINE
  8
0
 10
-55.9369
 20
981.089
 11
-55.3139
 21
981.01
  0
LINE
  8
0
 10
-55.3139
 20
981.01
 11
55.3139
 21
981.01
  0
LINE
  8
0
 10
55.3139
 20
981.01
 11
55.9369
 21
981.089
  0
LINE
  8
0
 10
52.3493
 20
1241.1
 11
52.0503
 21
1241.14
  0
LINE
  8
0
 10
52.0503
 20
1241.14
 11
51.7584
 21
1241.22
  0
LINE
  8
0
 10
51.7584
 20
1241.22
 11
51.4781
 21
1241.33
  0
LINE
  8
0
 10
51.4781
 20
1241.33
 11
51.214
 21
1241.47
  0
LINE
  8
0
 10
51.214
 20
1241.47
 11
50.9702
 21
1241.65
  0
LINE
  8
0
 10
50.9702
 20
1241.65
 11
50.7505
 21
1241.86
  0
LINE
  8
0
 10
50.7505
 20
1241.86
 11
50.5583
 21
1242.09
  0
LINE
  8
0
 10
50.5583
 20
1242.09
 11
50.3969
 21
1242.34
  0
LINE
  8
0
 10
50.3969
 20
1242.34
 11
50.2685
 21
1242.62
  0
LINE
  8
0
 10
50.2685
 20
1242.62
 11
50.1754
 21
1242.9
  0
LINE
  8
0
 10
50.1754
 20
1242.9
 11
50.1189
 21
1243.2
  0
LINE
  8
0
 10
50.1189
 20
1243.2
 11
50.1
 21
1243.5
  0
LINE
  8
0
 10
50.1
 20
1243.5
 11
50.1189
 21
1243.8
  0
LINE
  8
0
 10
50.1189
 20
1243.8
 11
50.1754
 21
1244.1
  0
LINE
  8
0
 10
50.1754
 20
1244.1
 11
50.2685
 21
1244.38
  0
LINE
  8
0
 10
50.2685
 20
1244.38
 11
50.3969
 21
1244.66
  0
LINE
  8
0
 10
50.3969
 20
1244.66
 11
50.5583
 21
1244.91
  0
LINE
  8
0
 10
50.5583
 20
1244.91
 11
50.7505
 21
1245.14
  0
LINE
  8
0
 10
50.7505
 20
1245.14
 11
50.9702
 21
1245.35
  0
LINE
  8
0
 10
50.9702
 20
1245.35
 11
51.214
 21
1245.53
  0
LINE
  8
0
 10
51.214
 20
1245.53
 11
51.4781
 21
1245.67
  0
LINE
  8
0
 10
51.4781
 20
1245.67
 11
51.7584
 21
1245.78
  0
LINE
  8
0
 10
51.7584
 20
1245.78
 11
52.0503
 21
1245.86
  0
LINE
  8
0
 10
52.0503
 20
1245.86
 11
52.3493
 21
1245.9
  0
LINE
  8
0
 10
52.3493
 20
1245.9
 11
52.6507
 21
1245.9
  0
LINE
  8
0
 10
52.6507
 20
1245.9
 11
52.9497
 21
1245.86
  0
LINE
  8
0
 10
52.9497
 20
1245.86
 11
53.2416
 21
1245.78
  0
LINE
  8
0
 10
53.2416
 20
1245.78
 11
53.5219
 21
1245.67
  0
LINE
  8
0
 10
53.5219
 20
1245.67
 11
53.786
 21
1245.53
  0
LINE
  8
0
 10
53.786
 20
1245.53
 11
54.0298
 21
1245.35
  0
LINE
  8
0
 10
54.0298
 20
1245.35
 11
54.2495
 21
1245.14
  0
LINE
  8
0
 10
54.2495
 20
1245.14
 11
54.4416
 21
1244.91
  0
LINE
  8
0
 10
54.4416
 20
1244.91
 11
54.6031
 21
1244.66
  0
LINE
  8
0
 10
54.6031
 20
1244.66
 11
54.7315
 21
1244.38
  0
LINE
  8
0
 10
54.7315
 20
1244.38
 11
54.8246
 21
1244.1
  0
LINE
  8
0
 10
54.8246
 20
1244.1
 11
54.8811
 21
1243.8
  0
LINE
  8
0
 10
54.8811
 20
1243.8
 11
54.9
 21
1243.5
  0
LINE
  8
0
 10
54.9
 20
1243.5
 11
54.8811
 21
1243.2
  0
LINE
  8
0
 10
54.8811
 20
1243.2
 11
54.8246
 21
1242.9
  0
LINE
  8
0
 10
54.8246
 20
1242.9
 11
54.7315
 21
1242.62
  0
LINE
  8
0
 10
54.7315
 20
1242.62
 11
54.6031
 21
1242.34
  0
LINE
  8
0
 10
54.6031
 20
1242.34
 11
54.4416
 21
1242.09
  0
LINE
  8
0
 10
54.4416
 20
1242.09
 11
54.2495
 21
1241.86
  0
LINE
  8
0
 10
54.2495
 20
1241.86
 11
54.0298
 21
1241.65
  0
LINE
  8
0
 10
54.0298
 20
1241.65
 11
53.786
 21
1241.47
  0
LINE
  8
0
 10
53.786
 20
1241.47
 11
53.5219
 21
1241.33
  0
LINE
  8
0
 10
53.5219
 20
1241.33
 11
53.2416
 21
1241.22
  0
LINE
  8
0
 10
53.2416
 20
1241.22
 11
52.9497
 21
1241.14
  0
LINE
  8
0
 10
52.9497
 20
1241.14
 11
52.6507
 21
1241.1
  0
LINE
  8
0
 10
52.6507
 20
1241.1
 11
52.3493
 21
1241.1
  0
LINE
  8
0
 10
-52.6507
 20
1241.1
 11
-52.9497
 21
1241.14
  0
LINE
  8
0
 10
-52.9497
 20
1241.14
 11
-53.2416
 21
1241.22
  0
LINE
  8
0
 10
-53.2416
 20
1241.22
 11
-53.5219
 21
1241.33
  0
LINE
  8
0
 10
-53.5219
 20
1241.33
 11
-53.786
 21
1241.47
  0
LINE
  8
0
 10
-53.786
 20
1241.47
 11
-54.0298
 21
1241.65
  0
LINE
  8
0
 10
-54.0298
 20
1241.65
 11
-54.2495
 21
1241.86
  0
LINE
  8
0
 10
-54.2495
 20
1241.86
 11
-54.4416
 21
1242.09
  0
LINE
  8
0
 10
-54.4416
 20
1242.09
 11
-54.6031
 21
1242.34
  0
LINE
  8
0
 10
-54.6031
 20
1242.34
 11
-54.7315
 21
1242.62
  0
LINE
  8
0
 10
-54.7315
 20
1242.62
 11
-54.8246
 21
1242.9
  0
LINE
  8
0
 10
-54.8246
 20
1242.9
 11
-54.8811
 21
1243.2
  0
LINE
  8
0
 10
-54.8811
 20
1243.2
 11
-54.9
 21
1243.5
  0
LINE
  8
0
 10
-54.9
 20
1243.5
 11
-54.8811
 21
1243.8
  0
LINE
  8
0
 10
-54.8811
 20
1243.8
 11
-54.8246
 21
1244.1
  0
LINE
  8
0
 10
-54.8246
 20
1244.1
 11
-54.7315
 21
1244.38
  0
LINE
  8
0
 10
-54.7315
 20
1244.38
 11
-54.6031
 21
1244.66
  0
LINE
  8
0
 10
-54.6031
 20
1244.66
 11
-54.4416
 21
1244.91
  0
LINE
  8
0
 10
-54.4416
 20
1244.91
 11
-54.2495
 21
1245.14
  0
LINE
  8
0
 10
-54.2495
 20
1245.14
 11
-54.0298
 21
1245.35
  0
LINE
  8
0
 10
-54.0298
 20
1245.35
 11
-53.786
 21
1245.53
  0
LINE
  8
0
 10
-53.786
 20
1245.53
 11
-53.5219
 21
1245.67
  0
LINE
  8
0
 10
-53.5219
 20
1245.67
 11
-53.2416
 21
1245.78
  0
LINE
  8
0
 10
-53.2416
 20
1245.78
 11
-52.9497
 21
1245.86
  0
LINE
  8
0
 10
-52.9497
 20
1245.86
 11
-52.6507
 21
1245.9
  0
LINE
  8
0
 10
-52.6507
 20
1245.9
 11
-52.3493
 21
1245.9
  0
LINE
  8
0
 10
-52.3493
 20
1245.9
 11
-52.0503
 21
1245.86
  0
LINE
  8
0
 10
-52.0503
 20
1245.86
 11
-51.7584
 21
1245.78
  0
LINE
  8
0
 10
-51.7584
 20
1245.78
 11
-51.4781
 21
1245.67
  0
LINE
  8
0
 10
-51.4781
 20
1245.67
 11
-51.214
 21
1245.53
  0
LINE
  8
0
 10
-51.214
 20
1245.53
 11
-50.9702
 21
1245.35
  0
LINE
  8
0
 10
-50.9702
 20
1245.35
 11
-50.7505
 21
1245.14
  0
LINE
  8
0
 10
-50.7505
 20
1245.14
 11
-50.5583
 21
1244.91
  0
LINE
  8
0
 10
-50.5583
 20
1244.91
 11
-50.3969
 21
1244.66
  0
LINE
  8
0
 10
-50.3969
 20
1244.66
 11
-50.2685
 21
1244.38
  0
LINE
  8
0
 10
-50.2685
 20
1244.38
 11
-50.1754
 21
1244.1
  0
LINE
  8
0
 10
-50.1754
 20
1244.1
 11
-50.1189
 21
1243.8
  0
LINE
  8
0
 10
-50.1189
 20
1243.8
 11
-50.1
 21
1243.5
  0
LINE
  8
0
 10
-50.1
 20
1243.5
 11
-50.1189
 21
1243.2
  0
LINE
  8
0
 10
-50.1189
 20
1243.2
 11
-50.1754
 21
1242.9
  0
LINE
  8
0
 10
-50.1754
 20
1242.9
 11
-50.2685
 21
1242.62
  0
LINE
  8
0
 10
-50.2685
 20
1242.62
 11
-50.3969
 21
1242.34
  0
LINE
  8
0
 10
-50.3969
 20
1242.34
 11
-50.5583
 21
1242.09
  0
LINE
  8
0
 10
-50.5583
 20
1242.09
 11
-50.7505
 21
1241.86
  0
LINE
  8
0
 10
-50.7505
 20
1241.86
 11
-50.9702
 21
1241.65
  0
LINE
  8
0
 10
-50.9702
 20
1241.65
 11
-51.214
 21
1241.47
  0
LINE
  8
0
 10
-51.214
 20
1241.47
 11
-51.4781
 21
1241.33
  0
LINE
  8
0
 10
-51.4781
 20
1241.33
 11
-51.7584
 21
1241.22
  0
LINE
  8
0
 10
-51.7584
 20
1241.22
 11
-52.0503
 21
1241.14
  0
LINE
  8
0
 10
-52.0503
 20
1241.14
 11
-52.3493
 21
1241.1
  0
LINE
  8
0
 10
-52.3493
 20
1241.1
 11
-52.6507
 21
1241.1
  0
LINE
  8
0
 10
52.3493
 20
986.105
 11
52.0503
 21
986.143
  0
LINE
  8
0
 10
52.0503
 20
986.143
 11
51.7584
 21
986.217
  0
LINE
  8
0
 10
51.7584
 20
986.217
 11
51.4781
 21
986.328
  0
LINE
  8
0
 10
51.4781
 20
986.328
 11
51.214
 21
986.474
  0
LINE
  8
0
 10
51.214
 20
986.474
 11
50.9702
 21
986.651
  0
LINE
  8
0
 10
50.9702
 20
986.651
 11
50.7505
 21
986.857
  0
LINE
  8
0
 10
50.7505
 20
986.857
 11
50.5583
 21
987.089
  0
LINE
  8
0
 10
50.5583
 20
987.089
 11
50.3969
 21
987.344
  0
LINE
  8
0
 10
50.3969
 20
987.344
 11
50.2685
 21
987.617
  0
LINE
  8
0
 10
50.2685
 20
987.617
 11
50.1754
 21
987.903
  0
LINE
  8
0
 10
50.1754
 20
987.903
 11
50.1189
 21
988.199
  0
LINE
  8
0
 10
50.1189
 20
988.199
 11
50.1
 21
988.5
  0
LINE
  8
0
 10
50.1
 20
988.5
 11
50.1189
 21
988.801
  0
LINE
  8
0
 10
50.1189
 20
988.801
 11
50.1754
 21
989.097
  0
LINE
  8
0
 10
50.1754
 20
989.097
 11
50.2685
 21
989.383
  0
LINE
  8
0
 10
50.2685
 20
989.383
 11
50.3969
 21
989.656
  0
LINE
  8
0
 10
50.3969
 20
989.656
 11
50.5583
 21
989.911
  0
LINE
  8
0
 10
50.5583
 20
989.911
 11
50.7505
 21
990.143
  0
LINE
  8
0
 10
50.7505
 20
990.143
 11
50.9702
 21
990.349
  0
LINE
  8
0
 10
50.9702
 20
990.349
 11
51.214
 21
990.526
  0
LINE
  8
0
 10
51.214
 20
990.526
 11
51.4781
 21
990.672
  0
LINE
  8
0
 10
51.4781
 20
990.672
 11
51.7584
 21
990.783
  0
LINE
  8
0
 10
51.7584
 20
990.783
 11
52.0503
 21
990.857
  0
LINE
  8
0
 10
52.0503
 20
990.857
 11
52.3493
 21
990.895
  0
LINE
  8
0
 10
52.3493
 20
990.895
 11
52.6507
 21
990.895
  0
LINE
  8
0
 10
52.6507
 20
990.895
 11
52.9497
 21
990.857
  0
LINE
  8
0
 10
52.9497
 20
990.857
 11
53.2416
 21
990.783
  0
LINE
  8
0
 10
53.2416
 20
990.783
 11
53.5219
 21
990.672
  0
LINE
  8
0
 10
53.5219
 20
990.672
 11
53.786
 21
990.526
  0
LINE
  8
0
 10
53.786
 20
990.526
 11
54.0298
 21
990.349
  0
LINE
  8
0
 10
54.0298
 20
990.349
 11
54.2495
 21
990.143
  0
LINE
  8
0
 10
54.2495
 20
990.143
 11
54.4416
 21
989.911
  0
LINE
  8
0
 10
54.4416
 20
989.911
 11
54.6031
 21
989.656
  0
LINE
  8
0
 10
54.6031
 20
989.656
 11
54.7315
 21
989.383
  0
LINE
  8
0
 10
54.7315
 20
989.383
 11
54.8246
 21
989.097
  0
LINE
  8
0
 10
54.8246
 20
989.097
 11
54.8811
 21
988.801
  0
LINE
  8
0
 10
54.8811
 20
988.801
 11
54.9
 21
988.5
  0
LINE
  8
0
 10
54.9
 20
988.5
 11
54.8811
 21
988.199
  0
LINE
  8
0
 10
54.8811
 20
988.199
 11
54.8246
 21
987.903
  0
LINE
  8
0
 10
54.8246
 20
987.903
 11
54.7315
 21
987.617
  0
LINE
  8
0
 10
54.7315
 20
987.617
 11
54.6031
 21
987.344
  0
LINE
  8
0
 10
54.6031
 20
987.344
 11
54.4416
 21
987.089
  0
LINE
  8
0
 10
54.4416
 20
987.089
 11
54.2495
 21
986.857
  0
LINE
  8
0
 10
54.2495
 20
986.857
 11
54.0298
 21
986.651
  0
LINE
  8
0
 10
54.0298
 20
986.651
 11
53.786
 21
986.474
  0
LINE
  8
0
 10
53.786
 20
986.474
 11
53.5219
 21
986.328
  0
LINE
  8
0
 10
53.5219
 20
986.328
 11
53.2416
 21
986.217
  0
LINE
  8
0
 10
53.2416
 20
986.217
 11
52.9497
 21
986.143
  0
LINE
  8
0
 10
52.9497
 20
986.143
 11
52.6507
 21
986.105
  0
LINE
  8
0
 10
52.6507
 20
986.105
 11
52.3493
 21
986.105
  0
LINE
  8
0
 10
-52.6507
 20
986.105
 11
-52.9497
 21
986.143
  0
LINE
  8
0
 10
-52.9497
 20
986.143
 11
-53.2416
 21
986.217
  0
LINE
  8
0
 10
-53.2416
 20
986.217
 11
-53.5219
 21
986.328
  0
LINE
  8
0
 10
-53.5219
 20
986.328
 11
-53.786
 21
986.474
  0
LINE
  8
0
 10
-53.786
 20
986.474
 11
-54.0298
 21
986.651
  0
LINE
  8
0
 10
-54.0298
 20
986.651
 11
-54.2495
 21
986.857
  0
LINE
  8
0
 10
-54.2495
 20
986.857
 11
-54.4416
 21
987.089
  0
LINE
  8
0
 10
-54.4416
 20
987.089
 11
-54.6031
 21
987.344
  0
LINE
  8
0
 10
-54.6031
 20
987.344
 11
-54.7315
 21
987.617
  0
LINE
  8
0
 10
-54.7315
 20
987.617
 11
-54.8246
 21
987.903
  0
LINE
  8
0
 10
-54.8246
 20
987.903
 11
-54.8811
 21
988.199
  0
LINE
  8
0
 10
-54.8811
 20
988.199
 11
-54.9
 21
988.5
  0
LINE
  8
0
 10
-54.9
 20
988.5
 11
-54.8811
 21
988.801
  0
LINE
  8
0
 10
-54.8811
 20
988.801
 11
-54.8246
 21
989.097
  0
LINE
  8
0
 10
-54.8246
 20
989.097
 11
-54.7315
 21
989.383
  0
LINE
  8
0
 10
-54.7315
 20
989.383
 11
-54.6031
 21
989.656
  0
LINE
  8
0
 10
-54.6031
 20
989.656
 11
-54.4416
 21
989.911
  0
LINE
  8
0
 10
-54.4416
 20
989.911
 11
-54.2495
 21
990.143
  0
LINE
  8
0
 10
-54.2495
 20
990.143
 11
-54.0298
 21
990.349
  0
LINE
  8
0
 10
-54.0298
 20
990.349
 11
-53.786
 21
990.526
  0
LINE
  8
0
 10
-53.786
 20
990.526
 11
-53.5219
 21
990.672
  0
LINE
  8
0
 10
-53.5219
 20
990.672
 11
-53.2416
 21
990.783
  0
LINE
  8
0
 10
-53.2416
 20
990.783
 11
-52.9497
 21
990.857
  0
LINE
  8
0
 10
-52.9497
 20
990.857
 11
-52.6507
 21
990.895
  0
LINE
  8
0
 10
-52.6507
 20
990.895
 11
-52.3493
 21
990.895
  0
LINE
  8
0
 10
-52.3493
 20
990.895
 11
-52.0503
 21
990.857
  0
LINE
  8
0
 10
-52.0503
 20
990.857
 11
-51.7584
 21
990.783
  0
LINE
  8
0
 10
-51.7584
 20
990.783
 11
-51.4781
 21
990.672
  0
LINE
  8
0
 10
-51.4781
 20
990.672
 11
-51.214
 21
990.526
  0
LINE
  8
0
 10
-51.214
 20
990.526
 11
-50.9702
 21
990.349
  0
LINE
  8
0
 10
-50.9702
 20
990.349
 11
-50.7505
 21
990.143
  0
LINE
  8
0
 10
-50.7505
 20
990.143
 11
-50.5583
 21
989.911
  0
LINE
  8
0
 10
-50.5583
 20
989.911
 11
-50.3969
 21
989.656
  0
LINE
  8
0
 10
-50.3969
 20
989.656
 11
-50.2685
 21
989.383
  0
LINE
  8
0
 10
-50.2685
 20
989.383
 11
-50.1754
 21
989.097
  0
LINE
  8
0
 10
-50.1754
 20
989.097
 11
-50.1189
 21
988.801
  0
LINE
  8
0
 10
-50.1189
 20
988.801
 11
-50.1
 21
988.5
  0
LINE
  8
0
 10
-50.1
 20
988.5
 11
-50.1189
 21
988.199
  0
LINE
  8
0
 10
-50.1189
 20
988.199
 11
-50.1754
 21
987.903
  0
LINE
  8
0
 10
-50.1754
 20
987.903
 11
-50.2685
 21
987.617
  0
LINE
  8
0
 10
-50.2685
 20
987.617
 11
-50.3969
 21
987.344
  0
LINE
  8
0
 10
-50.3969
 20
987.344
 11
-50.5583
 21
987.089
  0
LINE
  8
0
 10
-50.5583
 20
987.089
 11
-50.7505
 21
986.857
  0
LINE
  8
0
 10
-50.7505
 20
986.857
 11
-50.9702
 21
986.651
  0
LINE
  8
0
 10
-50.9702
 20
986.651
 11
-51.214
 21
986.474
  0
LINE
  8
0
 10
-51.214
 20
986.474
 11
-51.4781
 21
986.328
  0
LINE
  8
0
 10
-51.4781
 20
986.328
 11
-51.7584
 21
986.217
  0
LINE
  8
0
 10
-51.7584
 20
986.217
 11
-52.0503
 21
986.143
  0
LINE
  8
0
 10
-52.0503
 20
986.143
 11
-52.3493
 21
986.105
  0
LINE
  8
0
 10
-52.3493
 20
986.105
 11
-52.6507
 21
986.105
  0
LINE
  8
0
 10
55.9369
 20
702.089
 11
56.5451
 21
702.245
  0
LINE
  8
0
 10
56.5451
 20
702.245
 11
57.1289
 21
702.476
  0
LINE
  8
0
 10
57.1289
 20
702.476
 11
57.6791
 21
702.778
  0
LINE
  8
0
 10
57.6791
 20
702.778
 11
58.1871
 21
703.147
  0
LINE
  8
0
 10
58.1871
 20
703.147
 11
58.6448
 21
703.577
  0
LINE
  8
0
 10
58.6448
 20
703.577
 11
59.0451
 21
704.061
  0
LINE
  8
0
 10
59.0451
 20
704.061
 11
59.3815
 21
704.591
  0
LINE
  8
0
 10
59.3815
 20
704.591
 11
59.6489
 21
705.159
  0
LINE
  8
0
 10
59.6489
 20
705.159
 11
59.8429
 21
705.757
  0
LINE
  8
0
 10
59.8429
 20
705.757
 11
59.9606
 21
706.373
  0
LINE
  8
0
 10
59.9606
 20
706.373
 11
60
 21
707
  0
LINE
  8
0
 10
60
 20
707
 11
60
 21
967
  0
LINE
  8
0
 10
60
 20
967
 11
59.9606
 21
967.627
  0
LINE
  8
0
 10
59.9606
 20
967.627
 11
59.8429
 21
968.243
  0
LINE
  8
0
 10
59.8429
 20
968.243
 11
59.6489
 21
968.841
  0
LINE
  8
0
 10
59.6489
 20
968.841
 11
59.3815
 21
969.409
  0
LINE
  8
0
 10
59.3815
 20
969.409
 11
59.0451
 21
969.939
  0
LINE
  8
0
 10
59.0451
 20
969.939
 11
58.6448
 21
970.423
  0
LINE
  8
0
 10
58.6448
 20
970.423
 11
58.1871
 21
970.853
  0
LINE
  8
0
 10
58.1871
 20
970.853
 11
57.6791
 21
971.222
  0
LINE
  8
0
 10
57.6791
 20
971.222
 11
57.1289
 21
971.524
  0
LINE
  8
0
 10
57.1289
 20
971.524
 11
56.5451
 21
971.755
  0
LINE
  8
0
 10
56.5451
 20
971.755
 11
55.9369
 21
971.911
  0
LINE
  8
0
 10
55.9369
 20
971.911
 11
55.3139
 21
971.99
  0
LINE
  8
0
 10
55.3139
 20
971.99
 11
-55.3139
 21
971.99
  0
LINE
  8
0
 10
-55.3139
 20
971.99
 11
-55.9369
 21
971.911
  0
LINE
  8
0
 10
-55.9369
 20
971.911
 11
-56.5451
 21
971.755
  0
LINE
  8
0
 10
-56.5451
 20
971.755
 11
-57.1289
 21
971.524
  0
LINE
  8
0
 10
-57.1289
 20
971.524
 11
-57.6791
 21
971.222
  0
LINE
  8
0
 10
-57.6791
 20
971.222
 11
-58.1871
 21
970.853
  0
LINE
  8
0
 10
-58.1871
 20
970.853
 11
-58.6448
 21
970.423
  0
LINE
  8
0
 10
-58.6448
 20
970.423
 11
-59.0451
 21
969.939
  0
LINE
  8
0
 10
-59.0451
 20
969.939
 11
-59.3815
 21
969.409
  0
LINE
  8
0
 10
-59.3815
 20
969.409
 11
-59.6489
 21
968.841
  0
LINE
  8
0
 10
-59.6489
 20
968.841
 11
-59.8429
 21
968.243
  0
LINE
  8
0
 10
-59.8429
 20
968.243
 11
-59.9606
 21
967.627
  0
LINE
  8
0
 10
-59.9606
 20
967.627
 11
-60
 21
967
  0
LINE
  8
0
 10
-60
 20
967
 11
-60
 21
707
  0
LINE
  8
0
 10
-60
 20
707
 11
-59.9606
 21
706.373
  0
LINE
  8
0
 10
-59.9606
 20
706.373
 11
-59.8429
 21
705.757
  0
LINE
  8
0
 10
-59.8429
 20
705.757
 11
-59.6489
 21
705.159
  0
LINE
  8
0
 10
-59.6489
 20
705.159
 11
-59.3815
 21
704.591
  0
LINE
  8
0
 10
-59.3815
 20
704.591
 11
-59.0451
 21
704.061
  0
LINE
  8
0
 10
-59.0451
 20
704.061
 11
-58.6448
 21
703.577
  0
LINE
  8
0
 10
-58.6448
 20
703.577
 11
-58.1871
 21
703.147
  0
LINE
  8
0
 10
-58.1871
 20
703.147
 11
-57.6791
 21
702.778
  0
LINE
  8
0
 10
-57.6791
 20
702.778
 11
-57.1289
 21
702.476
  0
LINE
  8
0
 10
-57.1289
 20
702.476
 11
-56.5451
 21
702.245
  0
LINE
  8
0
 10
-56.5451
 20
702.245
 11
-55.9369
 21
702.089
  0
LINE
  8
0
 10
-55.9369
 20
702.089
 11
-55.3139
 21
702.01
  0
LINE
  8
0
 10
-55.3139
 20
702.01
 11
55.3139
 21
702.01
  0
LINE
  8
0
 10
55.3139
 20
702.01
 11
55.9369
 21
702.089
  0
LINE
  8
0
 10
-52.613
 20
962.704
 11
-52.8373
 21
962.732
  0
LINE
  8
0
 10
-52.8373
 20
962.732
 11
-53.0562
 21
962.788
  0
LINE
  8
0
 10
-53.0562
 20
962.788
 11
-53.2664
 21
962.871
  0
LINE
  8
0
 10
-53.2664
 20
962.871
 11
-53.4645
 21
962.98
  0
LINE
  8
0
 10
-53.4645
 20
962.98
 11
-53.6474
 21
963.113
  0
LINE
  8
0
 10
-53.6474
 20
963.113
 11
-53.8121
 21
963.268
  0
LINE
  8
0
 10
-53.8121
 20
963.268
 11
-53.9562
 21
963.442
  0
LINE
  8
0
 10
-53.9562
 20
963.442
 11
-54.0773
 21
963.633
  0
LINE
  8
0
 10
-54.0773
 20
963.633
 11
-54.1736
 21
963.837
  0
LINE
  8
0
 10
-54.1736
 20
963.837
 11
-54.2434
 21
964.052
  0
LINE
  8
0
 10
-54.2434
 20
964.052
 11
-54.2858
 21
964.274
  0
LINE
  8
0
 10
-54.2858
 20
964.274
 11
-54.3
 21
964.5
  0
LINE
  8
0
 10
-54.3
 20
964.5
 11
-54.2858
 21
964.726
  0
LINE
  8
0
 10
-54.2858
 20
964.726
 11
-54.2434
 21
964.948
  0
LINE
  8
0
 10
-54.2434
 20
964.948
 11
-54.1736
 21
965.163
  0
LINE
  8
0
 10
-54.1736
 20
965.163
 11
-54.0773
 21
965.367
  0
LINE
  8
0
 10
-54.0773
 20
965.367
 11
-53.9562
 21
965.558
  0
LINE
  8
0
 10
-53.9562
 20
965.558
 11
-53.8121
 21
965.732
  0
LINE
  8
0
 10
-53.8121
 20
965.732
 11
-53.6474
 21
965.887
  0
LINE
  8
0
 10
-53.6474
 20
965.887
 11
-53.4645
 21
966.02
  0
LINE
  8
0
 10
-53.4645
 20
966.02
 11
-53.2664
 21
966.129
  0
LINE
  8
0
 10
-53.2664
 20
966.129
 11
-53.0562
 21
966.212
  0
LINE
  8
0
 10
-53.0562
 20
966.212
 11
-52.8373
 21
966.268
  0
LINE
  8
0
 10
-52.8373
 20
966.268
 11
-52.613
 21
966.296
  0
LINE
  8
0
 10
-52.613
 20
966.296
 11
-52.387
 21
966.296
  0
LINE
  8
0
 10
-52.387
 20
966.296
 11
-52.1627
 21
966.268
  0
LINE
  8
0
 10
-52.1627
 20
966.268
 11
-51.9438
 21
966.212
  0
LINE
  8
0
 10
-51.9438
 20
966.212
 11
-51.7336
 21
966.129
  0
LINE
  8
0
 10
-51.7336
 20
966.129
 11
-51.5355
 21
966.02
  0
LINE
  8
0
 10
-51.5355
 20
966.02
 11
-51.3526
 21
965.887
  0
LINE
  8
0
 10
-51.3526
 20
965.887
 11
-51.1879
 21
965.732
  0
LINE
  8
0
 10
-51.1879
 20
965.732
 11
-51.0438
 21
965.558
  0
LINE
  8
0
 10
-51.0438
 20
965.558
 11
-50.9226
 21
965.367
  0
LINE
  8
0
 10
-50.9226
 20
965.367
 11
-50.8264
 21
965.163
  0
LINE
  8
0
 10
-50.8264
 20
965.163
 11
-50.7565
 21
964.948
  0
LINE
  8
0
 10
-50.7565
 20
964.948
 11
-50.7142
 21
964.726
  0
LINE
  8
0
 10
-50.7142
 20
964.726
 11
-50.7
 21
964.5
  0
LINE
  8
0
 10
-50.7
 20
964.5
 11
-50.7142
 21
964.274
  0
LINE
  8
0
 10
-50.7142
 20
964.274
 11
-50.7565
 21
964.052
  0
LINE
  8
0
 10
-50.7565
 20
964.052
 11
-50.8264
 21
963.837
  0
LINE
  8
0
 10
-50.8264
 20
963.837
 11
-50.9226
 21
963.633
  0
LINE
  8
0
 10
-50.9226
 20
963.633
 11
-51.0438
 21
963.442
  0
LINE
  8
0
 10
-51.0438
 20
963.442
 11
-51.1879
 21
963.268
  0
LINE
  8
0
 10
-51.1879
 20
963.268
 11
-51.3526
 21
963.113
  0
LINE
  8
0
 10
-51.3526
 20
963.113
 11
-51.5355
 21
962.98
  0
LINE
  8
0
 10
-51.5355
 20
962.98
 11
-51.7336
 21
962.871
  0
LINE
  8
0
 10
-51.7336
 20
962.871
 11
-51.9438
 21
962.788
  0
LINE
  8
0
 10
-51.9438
 20
962.788
 11
-52.1627
 21
962.732
  0
LINE
  8
0
 10
-52.1627
 20
962.732
 11
-52.387
 21
962.704
  0
LINE
  8
0
 10
-52.387
 20
962.704
 11
-52.613
 21
962.704
  0
LINE
  8
0
 10
52.387
 20
962.704
 11
52.1627
 21
962.732
  0
LINE
  8
0
 10
52.1627
 20
962.732
 11
51.9438
 21
962.788
  0
LINE
  8
0
 10
51.9438
 20
962.788
 11
51.7336
 21
962.871
  0
LINE
  8
0
 10
51.7336
 20
962.871
 11
51.5355
 21
962.98
  0
LINE
  8
0
 10
51.5355
 20
962.98
 11
51.3526
 21
963.113
  0
LINE
  8
0
 10
51.3526
 20
963.113
 11
51.1879
 21
963.268
  0
LINE
  8
0
 10
51.1879
 20
963.268
 11
51.0438
 21
963.442
  0
LINE
  8
0
 10
51.0438
 20
963.442
 11
50.9226
 21
963.633
  0
LINE
  8
0
 10
50.9226
 20
963.633
 11
50.8264
 21
963.837
  0
LINE
  8
0
 10
50.8264
 20
963.837
 11
50.7565
 21
964.052
  0
LINE
  8
0
 10
50.7565
 20
964.052
 11
50.7142
 21
964.274
  0
LINE
  8
0
 10
50.7142
 20
964.274
 11
50.7
 21
964.5
  0
LINE
  8
0
 10
50.7
 20
964.5
 11
50.7142
 21
964.726
  0
LINE
  8
0
 10
50.7142
 20
964.726
 11
50.7565
 21
964.948
  0
LINE
  8
0
 10
50.7565
 20
964.948
 11
50.8264
 21
965.163
  0
LINE
  8
0
 10
50.8264
 20
965.163
 11
50.9226
 21
965.367
  0
LINE
  8
0
 10
50.9226
 20
965.367
 11
51.0438
 21
965.558
  0
LINE
  8
0
 10
51.0438
 20
965.558
 11
51.1879
 21
965.732
  0
LINE
  8
0
 10
51.1879
 20
965.732
 11
51.3526
 21
965.887
  0
LINE
  8
0
 10
51.3526
 20
965.887
 11
51.5355
 21
966.02
  0
LINE
  8
0
 10
51.5355
 20
966.02
 11
51.7336
 21
966.129
  0
LINE
  8
0
 10
51.7336
 20
966.129
 11
51.9438
 21
966.212
  0
LINE
  8
0
 10
51.9438
 20
966.212
 11
52.1627
 21
966.268
  0
LINE
  8
0
 10
52.1627
 20
966.268
 11
52.387
 21
966.296
  0
LINE
  8
0
 10
52.387
 20
966.296
 11
52.613
 21
966.296
  0
LINE
  8
0
 10
52.613
 20
966.296
 11
52.8373
 21
966.268
  0
LINE
  8
0
 10
52.8373
 20
966.268
 11
53.0562
 21
966.212
  0
LINE
  8
0
 10
53.0562
 20
966.212
 11
53.2664
 21
966.129
  0
LINE
  8
0
 10
53.2664
 20
966.129
 11
53.4645
 21
966.02
  0
LINE
  8
0
 10
53.4645
 20
966.02
 11
53.6474
 21
965.887
  0
LINE
  8
0
 10
53.6474
 20
965.887
 11
53.8121
 21
965.732
  0
LINE
  8
0
 10
53.8121
 20
965.732
 11
53.9562
 21
965.558
  0
LINE
  8
0
 10
53.9562
 20
965.558
 11
54.0773
 21
965.367
  0
LINE
  8
0
 10
54.0773
 20
965.367
 11
54.1736
 21
965.163
  0
LINE
  8
0
 10
54.1736
 20
965.163
 11
54.2434
 21
964.948
  0
LINE
  8
0
 10
54.2434
 20
964.948
 11
54.2858
 21
964.726
  0
LINE
  8
0
 10
54.2858
 20
964.726
 11
54.3
 21
964.5
  0
LINE
  8
0
 10
54.3
 20
964.5
 11
54.2858
 21
964.274
  0
LINE
  8
0
 10
54.2858
 20
964.274
 11
54.2434
 21
964.052
  0
LINE
  8
0
 10
54.2434
 20
964.052
 11
54.1736
 21
963.837
  0
LINE
  8
0
 10
54.1736
 20
963.837
 11
54.0773
 21
963.633
  0
LINE
  8
0
 10
54.0773
 20
963.633
 11
53.9562
 21
963.442
  0
LINE
  8
0
 10
53.9562
 20
963.442
 11
53.8121
 21
963.268
  0
LINE
  8
0
 10
53.8121
 20
963.268
 11
53.6474
 21
963.113
  0
LINE
  8
0
 10
53.6474
 20
963.113
 11
53.4645
 21
962.98
  0
LINE
  8
0
 10
53.4645
 20
962.98
 11
53.2664
 21
962.871
  0
LINE
  8
0
 10
53.2664
 20
962.871
 11
53.0562
 21
962.788
  0
LINE
  8
0
 10
53.0562
 20
962.788
 11
52.8373
 21
962.732
  0
LINE
  8
0
 10
52.8373
 20
962.732
 11
52.613
 21
962.704
  0
LINE
  8
0
 10
52.613
 20
962.704
 11
52.387
 21
962.704
  0
LINE
  8
0
 10
-52.613
 20
707.704
 11
-52.8373
 21
707.732
  0
LINE
  8
0
 10
-52.8373
 20
707.732
 11
-53.0562
 21
707.788
  0
LINE
  8
0
 10
-53.0562
 20
707.788
 11
-53.2664
 21
707.871
  0
LINE
  8
0
 10
-53.2664
 20
707.871
 11
-53.4645
 21
707.98
  0
LINE
  8
0
 10
-53.4645
 20
707.98
 11
-53.6474
 21
708.113
  0
LINE
  8
0
 10
-53.6474
 20
708.113
 11
-53.8121
 21
708.268
  0
LINE
  8
0
 10
-53.8121
 20
708.268
 11
-53.9562
 21
708.442
  0
LINE
  8
0
 10
-53.9562
 20
708.442
 11
-54.0773
 21
708.633
  0
LINE
  8
0
 10
-54.0773
 20
708.633
 11
-54.1736
 21
708.837
  0
LINE
  8
0
 10
-54.1736
 20
708.837
 11
-54.2434
 21
709.052
  0
LINE
  8
0
 10
-54.2434
 20
709.052
 11
-54.2858
 21
709.274
  0
LINE
  8
0
 10
-54.2858
 20
709.274
 11
-54.3
 21
709.5
  0
LINE
  8
0
 10
-54.3
 20
709.5
 11
-54.2858
 21
709.726
  0
LINE
  8
0
 10
-54.2858
 20
709.726
 11
-54.2434
 21
709.948
  0
LINE
  8
0
 10
-54.2434
 20
709.948
 11
-54.1736
 21
710.163
  0
LINE
  8
0
 10
-54.1736
 20
710.163
 11
-54.0773
 21
710.367
  0
LINE
  8
0
 10
-54.0773
 20
710.367
 11
-53.9562
 21
710.558
  0
LINE
  8
0
 10
-53.9562
 20
710.558
 11
-53.8121
 21
710.732
  0
LINE
  8
0
 10
-53.8121
 20
710.732
 11
-53.6474
 21
710.887
  0
LINE
  8
0
 10
-53.6474
 20
710.887
 11
-53.4645
 21
711.02
  0
LINE
  8
0
 10
-53.4645
 20
711.02
 11
-53.2664
 21
711.129
  0
LINE
  8
0
 10
-53.2664
 20
711.129
 11
-53.0562
 21
711.212
  0
LINE
  8
0
 10
-53.0562
 20
711.212
 11
-52.8373
 21
711.268
  0
LINE
  8
0
 10
-52.8373
 20
711.268
 11
-52.613
 21
711.296
  0
LINE
  8
0
 10
-52.613
 20
711.296
 11
-52.387
 21
711.296
  0
LINE
  8
0
 10
-52.387
 20
711.296
 11
-52.1627
 21
711.268
  0
LINE
  8
0
 10
-52.1627
 20
711.268
 11
-51.9438
 21
711.212
  0
LINE
  8
0
 10
-51.9438
 20
711.212
 11
-51.7336
 21
711.129
  0
LINE
  8
0
 10
-51.7336
 20
711.129
 11
-51.5355
 21
711.02
  0
LINE
  8
0
 10
-51.5355
 20
711.02
 11
-51.3526
 21
710.887
  0
LINE
  8
0
 10
-51.3526
 20
710.887
 11
-51.1879
 21
710.732
  0
LINE
  8
0
 10
-51.1879
 20
710.732
 11
-51.0438
 21
710.558
  0
LINE
  8
0
 10
-51.0438
 20
710.558
 11
-50.9226
 21
710.367
  0
LINE
  8
0
 10
-50.9226
 20
710.367
 11
-50.8264
 21
710.163
  0
LINE
  8
0
 10
-50.8264
 20
710.163
 11
-50.7565
 21
709.948
  0
LINE
  8
0
 10
-50.7565
 20
709.948
 11
-50.7142
 21
709.726
  0
LINE
  8
0
 10
-50.7142
 20
709.726
 11
-50.7
 21
709.5
  0
LINE
  8
0
 10
-50.7
 20
709.5
 11
-50.7142
 21
709.274
  0
LINE
  8
0
 10
-50.7142
 20
709.274
 11
-50.7565
 21
709.052
  0
LINE
  8
0
 10
-50.7565
 20
709.052
 11
-50.8264
 21
708.837
  0
LINE
  8
0
 10
-50.8264
 20
708.837
 11
-50.9226
 21
708.633
  0
LINE
  8
0
 10
-50.9226
 20
708.633
 11
-51.0438
 21
708.442
  0
LINE
  8
0
 10
-51.0438
 20
708.442
 11
-51.1879
 21
708.268
  0
LINE
  8
0
 10
-51.1879
 20
708.268
 11
-51.3526
 21
708.113
  0
LINE
  8
0
 10
-51.3526
 20
708.113
 11
-51.5355
 21
707.98
  0
LINE
  8
0
 10
-51.5355
 20
707.98
 11
-51.7336
 21
707.871
  0
LINE
  8
0
 10
-51.7336
 20
707.871
 11
-51.9438
 21
707.788
  0
LINE
  8
0
 10
-51.9438
 20
707.788
 11
-52.1627
 21
707.732
  0
LINE
  8
0
 10
-52.1627
 20
707.732
 11
-52.387
 21
707.704
  0
LINE
  8
0
 10
-52.387
 20
707.704
 11
-52.613
 21
707.704
  0
LINE
  8
0
 10
52.387
 20
707.704
 11
52.1627
 21
707.732
  0
LINE
  8
0
 10
52.1627
 20
707.732
 11
51.9438
 21
707.788
  0
LINE
  8
0
 10
51.9438
 20
707.788
 11
51.7336
 21
707.871
  0
LINE
  8
0
 10
51.7336
 20
707.871
 11
51.5355
 21
707.98
  0
LINE
  8
0
 10
51.5355
 20
707.98
 11
51.3526
 21
708.113
  0
LINE
  8
0
 10
51.3526
 20
708.113
 11
51.1879
 21
708.268
  0
LINE
  8
0
 10
51.1879
 20
708.268
 11
51.0438
 21
708.442
  0
LINE
  8
0
 10
51.0438
 20
708.442
 11
50.9226
 21
708.633
  0
LINE
  8
0
 10
50.9226
 20
708.633
 11
50.8264
 21
708.837
  0
LINE
  8
0
 10
50.8264
 20
708.837
 11
50.7565
 21
709.052
  0
LINE
  8
0
 10
50.7565
 20
709.052
 11
50.7142
 21
709.274
  0
LINE
  8
0
 10
50.7142
 20
709.274
 11
50.7
 21
709.5
  0
LINE
  8
0
 10
50.7
 20
709.5
 11
50.7142
 21
709.726
  0
LINE
  8
0
 10
50.7142
 20
709.726
 11
50.7565
 21
709.948
  0
LINE
  8
0
 10
50.7565
 20
709.948
 11
50.8264
 21
710.163
  0
LINE
  8
0
 10
50.8264
 20
710.163
 11
50.9226
 21
710.367
  0
LINE
  8
0
 10
50.9226
 20
710.367
 11
51.0438
 21
710.558
  0
LINE
  8
0
 10
51.0438
 20
710.558
 11
51.1879
 21
710.732
  0
LINE
  8
0
 10
51.1879
 20
710.732
 11
51.3526
 21
710.887
  0
LINE
  8
0
 10
51.3526
 20
710.887
 11
51.5355
 21
711.02
  0
LINE
  8
0
 10
51.5355
 20
711.02
 11
51.7336
 21
711.129
  0
LINE
  8
0
 10
51.7336
 20
711.129
 11
51.9438
 21
711.212
  0
LINE
  8
0
 10
51.9438
 20
711.212
 11
52.1627
 21
711.268
  0
LINE
  8
0
 10
52.1627
 20
711.268
 11
52.387
 21
711.296
  0
LINE
  8
0
 10
52.387
 20
711.296
 11
52.613
 21
711.296
  0
LINE
  8
0
 10
52.613
 20
711.296
 11
52.8373
 21
711.268
  0
LINE
  8
0
 10
52.8373
 20
711.268
 11
53.0562
 21
711.212
  0
LINE
  8
0
 10
53.0562
 20
711.212
 11
53.2664
 21
711.129
  0
LINE
  8
0
 10
53.2664
 20
711.129
 11
53.4645
 21
711.02
  0
LINE
  8
0
 10
53.4645
 20
711.02
 11
53.6474
 21
710.887
  0
LINE
  8
0
 10
53.6474
 20
710.887
 11
53.8121
 21
710.732
  0
LINE
  8
0
 10
53.8121
 20
710.732
 11
53.9562
 21
710.558
  0
LINE
  8
0
 10
53.9562
 20
710.558
 11
54.0773
 21
710.367
  0
LINE
  8
0
 10
54.0773
 20
710.367
 11
54.1736
 21
710.163
  0
LINE
  8
0
 10
54.1736
 20
710.163
 11
54.2434
 21
709.948
  0
LINE
  8
0
 10
54.2434
 20
709.948
 11
54.2858
 21
709.726
  0
LINE
  8
0
 10
54.2858
 20
709.726
 11
54.3
 21
709.5
  0
LINE
  8
0
 10
54.3
 20
709.5
 11
54.2858
 21
709.274
  0
LINE
  8
0
 10
54.2858
 20
709.274
 11
54.2434
 21
709.052
  0
LINE
  8
0
 10
54.2434
 20
709.052
 11
54.1736
 21
708.837
  0
LINE
  8
0
 10
54.1736
 20
708.837
 11
54.0773
 21
708.633
  0
LINE
  8
0
 10
54.0773
 20
708.633
 11
53.9562
 21
708.442
  0
LINE
  8
0
 10
53.9562
 20
708.442
 11
53.8121
 21
708.268
  0
LINE
  8
0
 10
53.8121
 20
708.268
 11
53.6474
 21
708.113
  0
LINE
  8
0
 10
53.6474
 20
708.113
 11
53.4645
 21
707.98
  0
LINE
  8
0
 10
53.4645
 20
707.98
 11
53.2664
 21
707.871
  0
LINE
  8
0
 10
53.2664
 20
707.871
 11
53.0562
 21
707.788
  0
LINE
  8
0
 10
53.0562
 20
707.788
 11
52.8373
 21
707.732
  0
LINE
  8
0
 10
52.8373
 20
707.732
 11
52.613
 21
707.704
  0
LINE
  8
0
 10
52.613
 20
707.704
 11
52.387
 21
707.704
  0
ENDSEC
  0
SECTION
  2
OBJECTS
  0
DICTIONARY
  0
ENDSEC
  0
EOF
