<?xml version="1.0" standalone="no"?>
<!DOCTYPE svg PUBLIC "-//W3C//DTD SVG 1.1//EN" "http://www.w3.org/Graphics/SVG/1.1/DTD/svg11.dtd">
<svg width="196mm" height="712mm" viewBox="-98 -1220 196 712" xmlns="http://www.w3.org/2000/svg" version="1.1">
<title>OpenSCAD Model</title>
<path d="
M 93.4369,-1084.59 L 94.0451,-1084.74 L 94.6289,-1084.98 L 95.1791,-1085.28 L 95.6871,-1085.65 L 96.1448,-1086.08
 L 96.5451,-1086.56 L 96.8815,-1087.09 L 97.1489,-1087.66 L 97.3429,-1088.26 L 97.4606,-1088.87 L 97.5,-1089.5
 L 97.5,-1214.5 L 97.4606,-1215.13 L 97.3429,-1215.74 L 97.1489,-1216.34 L 96.8815,-1216.91 L 96.5451,-1217.44
 L 96.1448,-1217.92 L 95.6871,-1218.35 L 95.1791,-1218.72 L 94.6289,-1219.02 L 94.0451,-1219.26 L 93.4369,-1219.41
 L 92.8139,-1219.49 L -92.8139,-1219.49 L -93.4369,-1219.41 L -94.0451,-1219.26 L -94.6289,-1219.02 L -95.1791,-1218.72
 L -95.6871,-1218.35 L -96.1448,-1217.92 L -96.5451,-1217.44 L -96.8815,-1216.91 L -97.1489,-1216.34 L -97.3429,-1215.74
 L -97.4,-1215.44 L -97.5,-1215.44 L -97.5,-1088.56 L -97.4,-1088.56 L -97.3429,-1088.26 L -97.1489,-1087.66
 L -96.8815,-1087.09 L -96.5451,-1086.56 L -96.1448,-1086.08 L -95.6871,-1085.65 L -95.1791,-1085.28 L -94.6289,-1084.98
 L -94.0451,-1084.74 L -93.4369,-1084.59 L -92.8139,-1084.51 L 92.8139,-1084.51 z
M -92.2512,-1086.01 L -92.7495,-1086.07 L -93.2361,-1086.2 L -93.7031,-1086.38 L -94.1433,-1086.62 L -94.5497,-1086.92
 L -94.9159,-1087.26 L -95.2361,-1087.65 L -95.5052,-1088.07 L -95.7191,-1088.53 L -95.8743,-1089.01 L -95.9685,-1089.5
 L -96,-1090 L -96,-1214 L -95.9685,-1214.5 L -95.8743,-1214.99 L -95.7191,-1215.47 L -95.5052,-1215.93
 L -95.2361,-1216.35 L -94.9159,-1216.74 L -94.5497,-1217.08 L -94.1433,-1217.38 L -93.7031,-1217.62 L -93.2361,-1217.8
 L -92.7495,-1217.93 L -92.2512,-1217.99 L 92.2512,-1217.99 L 92.7495,-1217.93 L 93.2361,-1217.8 L 93.7031,-1217.62
 L 94.1433,-1217.38 L 94.5497,-1217.08 L 94.9159,-1216.74 L 95.2361,-1216.35 L 95.5052,-1215.93 L 95.7191,-1215.47
 L 95.8743,-1214.99 L 95.9685,-1214.5 L 96,-1214 L 96,-1090 L 95.9685,-1089.5 L 95.8743,-1089.01
 L 95.7191,-1088.53 L 95.5052,-1088.07 L 95.2361,-1087.65 L 94.9159,-1087.26 L 94.5497,-1086.92 L 94.1433,-1086.62
 L 93.7031,-1086.38 L 93.2361,-1086.2 L 92.7495,-1086.07 L 92.2512,-1086.01 z
M 93.4369,-940.589 L 94.0451,-940.745 L 94.6289,-940.976 L 95.1791,-941.278 L 95.6871,-941.647 L 96.1448,-942.077
 L 96.5451,-942.561 L 96.8815,-943.091 L 97.1489,-943.659 L 97.3429,-944.257 L 97.4606,-944.873 L 97.5,-945.5
 L 97.5,-1070.5 L 97.4606,-1071.13 L 97.3429,-1071.74 L 97.1489,-1072.34 L 96.8815,-1072.91 L 96.5451,-1073.44
 L 96.1448,-1073.92 L 95.6871,-1074.35 L 95.1791,-1074.72 L 94.6289,-1075.02 L 94.0451,-1075.26 L 93.4369,-1075.41
 L 92.8139,-1075.49 L -92.8139,-1075.49 L -93.4369,-1075.41 L -94.0451,-1075.26 L -94.6289,-1075.02 L -95.1791,-1074.72
 L -95.6871,-1074.35 L -96.1448,-1073.92 L -96.5451,-1073.44 L -96.8815,-1072.91 L -97.1489,-1072.34 L -97.3429,-1071.74
 L -97.4606,-1071.13 L -97.5,-1070.5 L -97.5,-945.5 L -97.4606,-944.873 L -97.3429,-944.257 L -97.1489,-943.659
 L -96.8815,-943.091 L -96.5451,-942.561 L -96.1448,-942.077 L -95.6871,-941.647 L -95.1791,-941.278 L -94.6289,-940.976
 L -94.0451,-940.745 L -93.4369,-940.589 L -92.8139,-940.51 L 92.8139,-940.51 z
M -92.2512,-942.008 L -92.7495,-942.071 L -93.2361,-942.196 L -93.7031,-942.381 L -94.1433,-942.623 L -94.5497,-942.918
 L -94.9159,-943.262 L -95.2361,-943.649 L -95.5052,-944.073 L -95.7191,-944.528 L -95.8743,-945.005 L -95.9685,-945.499
 L -96,-946 L -96,-1070 L -95.9685,-1070.5 L -95.8743,-1070.99 L -95.7191,-1071.47 L -95.5052,-1071.93
 L -95.2361,-1072.35 L -94.9159,-1072.74 L -94.5497,-1073.08 L -94.1433,-1073.38 L -93.7031,-1073.62 L -93.2361,-1073.8
 L -92.7495,-1073.93 L -92.2512,-1073.99 L 92.2512,-1073.99 L 92.7495,-1073.93 L 93.2361,-1073.8 L 93.7031,-1073.62
 L 94.1433,-1073.38 L 94.5497,-1073.08 L 94.9159,-1072.74 L 95.2361,-1072.35 L 95.5052,-1071.93 L 95.7191,-1071.47
 L 95.8743,-1070.99 L 95.9685,-1070.5 L 96,-1070 L 96,-946 L 95.9685,-945.499 L 95.8743,-945.005
 L 95.7191,-944.528 L 95.5052,-944.073 L 95.2361,-943.649 L 94.9159,-943.262 L 94.5497,-942.918 L 94.1433,-942.623
 L 93.7031,-942.381 L 93.2361,-942.196 L 92.7495,-942.071 L 92.2512,-942.008 z
M 93.4369,-796.589 L 94.0451,-796.745 L 94.6289,-796.976 L 95.1791,-797.278 L 95.6871,-797.647 L 96.1448,-798.077
 L 96.5451,-798.561 L 96.8815,-799.091 L 97.1489,-799.659 L 97.3429,-800.257 L 97.4606,-800.873 L 97.5,-801.5
 L 97.5,-926.5 L 97.4606,-927.127 L 97.3429,-927.743 L 97.1489,-928.341 L 96.8815,-928.909 L 96.5451,-929.439
 L 96.1448,-929.923 L 95.6871,-930.353 L 95.1791,-930.722 L 94.6289,-931.024 L 94.0451,-931.255 L 93.4369,-931.411
 L 92.8139,-931.49 L -92.8139,-931.49 L -93.4369,-931.411 L -94.0451,-931.255 L -94.6289,-931.024 L -95.1791,-930.722
 L -95.6871,-930.353 L -96.1448,-929.923 L -96.5451,-929.439 L -96.8815,-928.909 L -97.1489,-928.341 L -97.3429,-927.743
 L -97.4606,-927.127 L -97.5,-926.5 L -97.5,-801.5 L -97.4606,-800.873 L -97.3429,-800.257 L -97.1489,-799.659
 L -96.8815,-799.091 L -96.5451,-798.561 L -96.1448,-798.077 L -95.6871,-797.647 L -95.1791,-797.278 L -94.6289,-796.976
 L -94.0451,-796.745 L -93.4369,-796.589 L -92.8139,-796.51 L 92.8139,-796.51 z
M -92.2432,-798.135 L -92.7256,-798.196 L -93.1967,-798.317 L -93.6489,-798.496 L -94.0751,-798.73 L -94.4685,-799.016
 L -94.823,-799.349 L -95.133,-799.724 L -95.3936,-800.134 L -95.6007,-800.574 L -95.751,-801.037 L -95.8421,-801.515
 L -95.8726,-802 L -95.8726,-926 L -95.8421,-926.485 L -95.751,-926.963 L -95.6007,-927.426 L -95.3936,-927.866
 L -95.133,-928.276 L -94.823,-928.651 L -94.4685,-928.984 L -94.0751,-929.27 L -93.6489,-929.504 L -93.1967,-929.683
 L -92.7256,-929.804 L -92.2432,-929.865 L 92.2432,-929.865 L 92.7256,-929.804 L 93.1967,-929.683 L 93.6489,-929.504
 L 94.0751,-929.27 L 94.4685,-928.984 L 94.823,-928.651 L 95.133,-928.276 L 95.3936,-927.866 L 95.6007,-927.426
 L 95.751,-926.963 L 95.8421,-926.485 L 95.8726,-926 L 95.8726,-802 L 95.8421,-801.515 L 95.751,-801.037
 L 95.6007,-800.574 L 95.3936,-800.134 L 95.133,-799.724 L 94.823,-799.349 L 94.4685,-799.016 L 94.0751,-798.73
 L 93.6489,-798.496 L 93.1967,-798.317 L 92.7256,-798.196 L 92.2432,-798.135 z
M 93.4369,-652.589 L 94.0451,-652.745 L 94.6289,-652.976 L 95.1791,-653.278 L 95.6871,-653.647 L 96.1448,-654.077
 L 96.5451,-654.561 L 96.8815,-655.091 L 97.1489,-655.659 L 97.3429,-656.257 L 97.4606,-656.873 L 97.5,-657.5
 L 97.5,-782.5 L 97.4606,-783.127 L 97.3429,-783.743 L 97.1489,-784.341 L 96.8815,-784.909 L 96.5451,-785.439
 L 96.1448,-785.923 L 95.6871,-786.353 L 95.1791,-786.722 L 94.6289,-787.024 L 94.0451,-787.255 L 93.4369,-787.411
 L 92.8139,-787.49 L -92.8139,-787.49 L -93.4369,-787.411 L -94.0451,-787.255 L -94.6289,-787.024 L -95.1791,-786.722
 L -95.6871,-786.353 L -96.1448,-785.923 L -96.5451,-785.439 L -96.8815,-784.909 L -97.1489,-784.341 L -97.3429,-783.743
 L -97.4606,-783.127 L -97.5,-782.5 L -97.5,-657.5 L -97.4606,-656.873 L -97.3429,-656.257 L -97.1489,-655.659
 L -96.8815,-655.091 L -96.5451,-654.561 L -96.1448,-654.077 L -95.6871,-653.647 L -95.1791,-653.278 L -94.6289,-652.976
 L -94.0451,-652.745 L -93.4369,-652.589 L -92.8139,-652.51 L 92.8139,-652.51 z
M 89.8493,-777.605 L 89.5503,-777.643 L 89.2584,-777.717 L 88.9781,-777.828 L 88.714,-777.974 L 88.4702,-778.151
 L 88.2505,-778.357 L 88.0583,-778.589 L 87.8969,-778.844 L 87.7685,-779.117 L 87.6754,-779.403 L 87.6189,-779.699
 L 87.6,-780 L 87.6189,-780.301 L 87.6754,-780.597 L 87.7685,-780.883 L 87.8969,-781.156 L 88.0583,-781.411
 L 88.2505,-781.643 L 88.4702,-781.849 L 88.714,-782.026 L 88.9781,-782.172 L 89.2584,-782.283 L 89.5503,-782.357
 L 89.8493,-782.395 L 90.1507,-782.395 L 90.4497,-782.357 L 90.7416,-782.283 L 91.0219,-782.172 L 91.286,-782.026
 L 91.5298,-781.849 L 91.7495,-781.643 L 91.9416,-781.411 L 92.1031,-781.156 L 92.2315,-780.883 L 92.3246,-780.597
 L 92.3811,-780.301 L 92.4,-780 L 92.3811,-779.699 L 92.3246,-779.403 L 92.2315,-779.117 L 92.1031,-778.844
 L 91.9416,-778.589 L 91.7495,-778.357 L 91.5298,-778.151 L 91.286,-777.974 L 91.0219,-777.828 L 90.7416,-777.717
 L 90.4497,-777.643 L 90.1507,-777.605 z
M -90.1507,-777.605 L -90.4497,-777.643 L -90.7416,-777.717 L -91.0219,-777.828 L -91.286,-777.974 L -91.5298,-778.151
 L -91.7495,-778.357 L -91.9416,-778.589 L -92.1031,-778.844 L -92.2315,-779.117 L -92.3246,-779.403 L -92.3811,-779.699
 L -92.4,-780 L -92.3811,-780.301 L -92.3246,-780.597 L -92.2315,-780.883 L -92.1031,-781.156 L -91.9416,-781.411
 L -91.7495,-781.643 L -91.5298,-781.849 L -91.286,-782.026 L -91.0219,-782.172 L -90.7416,-782.283 L -90.4497,-782.357
 L -90.1507,-782.395 L -89.8493,-782.395 L -89.5503,-782.357 L -89.2584,-782.283 L -88.9781,-782.172 L -88.714,-782.026
 L -88.4702,-781.849 L -88.2505,-781.643 L -88.0583,-781.411 L -87.8969,-781.156 L -87.7685,-780.883 L -87.6754,-780.597
 L -87.6189,-780.301 L -87.6,-780 L -87.6189,-779.699 L -87.6754,-779.403 L -87.7685,-779.117 L -87.8969,-778.844
 L -88.0583,-778.589 L -88.2505,-778.357 L -88.4702,-778.151 L -88.714,-777.974 L -88.9781,-777.828 L -89.2584,-777.717
 L -89.5503,-777.643 L -89.8493,-777.605 z
M 89.8493,-657.605 L 89.5503,-657.643 L 89.2584,-657.717 L 88.9781,-657.828 L 88.714,-657.974 L 88.4702,-658.151
 L 88.2505,-658.357 L 88.0583,-658.589 L 87.8969,-658.844 L 87.7685,-659.117 L 87.6754,-659.403 L 87.6189,-659.699
 L 87.6,-660 L 87.6189,-660.301 L 87.6754,-660.597 L 87.7685,-660.883 L 87.8969,-661.156 L 88.0583,-661.411
 L 88.2505,-661.643 L 88.4702,-661.849 L 88.714,-662.026 L 88.9781,-662.172 L 89.2584,-662.283 L 89.5503,-662.357
 L 89.8493,-662.395 L 90.1507,-662.395 L 90.4497,-662.357 L 90.7416,-662.283 L 91.0219,-662.172 L 91.286,-662.026
 L 91.5298,-661.849 L 91.7495,-661.643 L 91.9416,-661.411 L 92.1031,-661.156 L 92.2315,-660.883 L 92.3246,-660.597
 L 92.3811,-660.301 L 92.4,-660 L 92.3811,-659.699 L 92.3246,-659.403 L 92.2315,-659.117 L 92.1031,-658.844
 L 91.9416,-658.589 L 91.7495,-658.357 L 91.5298,-658.151 L 91.286,-657.974 L 91.0219,-657.828 L 90.7416,-657.717
 L 90.4497,-657.643 L 90.1507,-657.605 z
M -90.1507,-657.605 L -90.4497,-657.643 L -90.7416,-657.717 L -91.0219,-657.828 L -91.286,-657.974 L -91.5298,-658.151
 L -91.7495,-658.357 L -91.9416,-658.589 L -92.1031,-658.844 L -92.2315,-659.117 L -92.3246,-659.403 L -92.3811,-659.699
 L -92.4,-660 L -92.3811,-660.301 L -92.3246,-660.597 L -92.2315,-660.883 L -92.1031,-661.156 L -91.9416,-661.411
 L -91.7495,-661.643 L -91.5298,-661.849 L -91.286,-662.026 L -91.0219,-662.172 L -90.7416,-662.283 L -90.4497,-662.357
 L -90.1507,-662.395 L -89.8493,-662.395 L -89.5503,-662.357 L -89.2584,-662.283 L -88.9781,-662.172 L -88.714,-662.026
 L -88.4702,-661.849 L -88.2505,-661.643 L -88.0583,-661.411 L -87.8969,-661.156 L -87.7685,-660.883 L -87.6754,-660.597
 L -87.6189,-660.301 L -87.6,-660 L -87.6189,-659.699 L -87.6754,-659.403 L -87.7685,-659.117 L -87.8969,-658.844
 L -88.0583,-658.589 L -88.2505,-658.357 L -88.4702,-658.151 L -88.714,-657.974 L -88.9781,-657.828 L -89.2584,-657.717
 L -89.5503,-657.643 L -89.8493,-657.605 z
M 93.4369,-508.589 L 94.0451,-508.745 L 94.6289,-508.976 L 95.1791,-509.278 L 95.6871,-509.647 L 96.1448,-510.077
 L 96.5451,-510.561 L 96.8815,-511.091 L 97.1489,-511.659 L 97.3429,-512.257 L 97.4606,-512.873 L 97.5,-513.5
 L 97.5,-638.5 L 97.4606,-639.127 L 97.3429,-639.743 L 97.1489,-640.341 L 96.8815,-640.909 L 96.5451,-641.439
 L 96.1448,-641.923 L 95.6871,-642.353 L 95.1791,-642.722 L 94.6289,-643.024 L 94.0451,-643.255 L 93.4369,-643.411
 L 92.8139,-643.49 L -92.8139,-643.49 L -93.4369,-643.411 L -94.0451,-643.255 L -94.6289,-643.024 L -95.1791,-642.722
 L -95.6871,-642.353 L -96.1448,-641.923 L -96.5451,-641.439 L -96.8815,-640.909 L -97.1489,-640.341 L -97.3429,-639.743
 L -97.4606,-639.127 L -97.5,-638.5 L -97.5,-513.5 L -97.4606,-512.873 L -97.3429,-512.257 L -97.1489,-511.659
 L -96.8815,-511.091 L -96.5451,-510.561 L -96.1448,-510.077 L -95.6871,-509.647 L -95.1791,-509.278 L -94.6289,-508.976
 L -94.0451,-508.745 L -93.4369,-508.589 L -92.8139,-508.51 L 92.8139,-508.51 z
M 89.887,-634.204 L 89.6627,-634.232 L 89.4438,-634.288 L 89.2336,-634.371 L 89.0355,-634.48 L 88.8526,-634.613
 L 88.6879,-634.768 L 88.5438,-634.942 L 88.4226,-635.133 L 88.3264,-635.337 L 88.2565,-635.552 L 88.2142,-635.774
 L 88.2,-636 L 88.2142,-636.226 L 88.2565,-636.448 L 88.3264,-636.663 L 88.4226,-636.867 L 88.5438,-637.058
 L 88.6879,-637.232 L 88.8526,-637.387 L 89.0355,-637.52 L 89.2336,-637.629 L 89.4438,-637.712 L 89.6627,-637.768
 L 89.887,-637.796 L 90.113,-637.796 L 90.3373,-637.768 L 90.5562,-637.712 L 90.7664,-637.629 L 90.9645,-637.52
 L 91.1474,-637.387 L 91.3121,-637.232 L 91.4562,-637.058 L 91.5773,-636.867 L 91.6736,-636.663 L 91.7434,-636.448
 L 91.7858,-636.226 L 91.8,-636 L 91.7858,-635.774 L 91.7434,-635.552 L 91.6736,-635.337 L 91.5773,-635.133
 L 91.4562,-634.942 L 91.3121,-634.768 L 91.1474,-634.613 L 90.9645,-634.48 L 90.7664,-634.371 L 90.5562,-634.288
 L 90.3373,-634.232 L 90.113,-634.204 z
M -90.113,-634.204 L -90.3373,-634.232 L -90.5562,-634.288 L -90.7664,-634.371 L -90.9645,-634.48 L -91.1474,-634.613
 L -91.3121,-634.768 L -91.4562,-634.942 L -91.5773,-635.133 L -91.6736,-635.337 L -91.7434,-635.552 L -91.7858,-635.774
 L -91.8,-636 L -91.7858,-636.226 L -91.7434,-636.448 L -91.6736,-636.663 L -91.5773,-636.867 L -91.4562,-637.058
 L -91.3121,-637.232 L -91.1474,-637.387 L -90.9645,-637.52 L -90.7664,-637.629 L -90.5562,-637.712 L -90.3373,-637.768
 L -90.113,-637.796 L -89.887,-637.796 L -89.6627,-637.768 L -89.4438,-637.712 L -89.2336,-637.629 L -89.0355,-637.52
 L -88.8526,-637.387 L -88.6879,-637.232 L -88.5438,-637.058 L -88.4226,-636.867 L -88.3264,-636.663 L -88.2565,-636.448
 L -88.2142,-636.226 L -88.2,-636 L -88.2142,-635.774 L -88.2565,-635.552 L -88.3264,-635.337 L -88.4226,-635.133
 L -88.5438,-634.942 L -88.6879,-634.768 L -88.8526,-634.613 L -89.0355,-634.48 L -89.2336,-634.371 L -89.4438,-634.288
 L -89.6627,-634.232 L -89.887,-634.204 z
M -90.113,-514.204 L -90.3373,-514.232 L -90.5562,-514.288 L -90.7664,-514.371 L -90.9645,-514.48 L -91.1474,-514.613
 L -91.3121,-514.768 L -91.4562,-514.942 L -91.5773,-515.133 L -91.6736,-515.337 L -91.7434,-515.552 L -91.7858,-515.774
 L -91.8,-516 L -91.7858,-516.226 L -91.7434,-516.448 L -91.6736,-516.663 L -91.5773,-516.867 L -91.4562,-517.058
 L -91.3121,-517.232 L -91.1474,-517.387 L -90.9645,-517.52 L -90.7664,-517.629 L -90.5562,-517.712 L -90.3373,-517.768
 L -90.113,-517.796 L -89.887,-517.796 L -89.6627,-517.768 L -89.4438,-517.712 L -89.2336,-517.629 L -89.0355,-517.52
 L -88.8526,-517.387 L -88.6879,-517.232 L -88.5438,-517.058 L -88.4226,-516.867 L -88.3264,-516.663 L -88.2565,-516.448
 L -88.2142,-516.226 L -88.2,-516 L -88.2142,-515.774 L -88.2565,-515.552 L -88.3264,-515.337 L -88.4226,-515.133
 L -88.5438,-514.942 L -88.6879,-514.768 L -88.8526,-514.613 L -89.0355,-514.48 L -89.2336,-514.371 L -89.4438,-514.288
 L -89.6627,-514.232 L -89.887,-514.204 z
M 89.887,-514.204 L 89.6627,-514.232 L 89.4438,-514.288 L 89.2336,-514.371 L 89.0355,-514.48 L 88.8526,-514.613
 L 88.6879,-514.768 L 88.5438,-514.942 L 88.4226,-515.133 L 88.3264,-515.337 L 88.2565,-515.552 L 88.2142,-515.774
 L 88.2,-516 L 88.2142,-516.226 L 88.2565,-516.448 L 88.3264,-516.663 L 88.4226,-516.867 L 88.5438,-517.058
 L 88.6879,-517.232 L 88.8526,-517.387 L 89.0355,-517.52 L 89.2336,-517.629 L 89.4438,-517.712 L 89.6627,-517.768
 L 89.887,-517.796 L 90.113,-517.796 L 90.3373,-517.768 L 90.5562,-517.712 L 90.7664,-517.629 L 90.9645,-517.52
 L 91.1474,-517.387 L 91.3121,-517.232 L 91.4562,-517.058 L 91.5773,-516.867 L 91.6736,-516.663 L 91.7434,-516.448
 L 91.7858,-516.226 L 91.8,-516 L 91.7858,-515.774 L 91.7434,-515.552 L 91.6736,-515.337 L 91.5773,-515.133
 L 91.4562,-514.942 L 91.3121,-514.768 L 91.1474,-514.613 L 90.9645,-514.48 L 90.7664,-514.371 L 90.5562,-514.288
 L 90.3373,-514.232 L 90.113,-514.204 z
" stroke="black" fill="lightgray" stroke-width="0.5"/>
</svg>
