solid OpenSCAD_Model
  facet normal 0.998027 0.0627838 0
    outer loop
      vertex 45 0 10
      vertex 44.6452 5.63999 0
      vertex 44.6452 5.63999 10
    endloop
  endfacet
  facet normal 0.998027 0.0627838 0
    outer loop
      vertex 44.6452 5.63999 0
      vertex 45 0 10
      vertex 45 0 0
    endloop
  endfacet
  facet normal -0.998027 0.0627838 0
    outer loop
      vertex -45 0 0
      vertex -44.6452 5.63999 10
      vertex -44.6452 5.63999 0
    endloop
  endfacet
  facet normal -0.998027 0.0627838 0
    outer loop
      vertex -44.6452 5.63999 10
      vertex -45 0 0
      vertex -45 0 10
    endloop
  endfacet
  facet normal 0 1 -0
    outer loop
      vertex 2.82557 44.9112 0
      vertex -2.82557 44.9112 10
      vertex 2.82557 44.9112 10
    endloop
  endfacet
  facet normal 0 1 0
    outer loop
      vertex -2.82557 44.9112 10
      vertex 2.82557 44.9112 0
      vertex -2.82557 44.9112 0
    endloop
  endfacet
  facet normal 0 -1 0
    outer loop
      vertex -2.82557 -44.9112 0
      vertex 2.82557 -44.9112 10
      vertex -2.82557 -44.9112 10
    endloop
  endfacet
  facet normal 0 -1 -0
    outer loop
      vertex 2.82557 -44.9112 10
      vertex -2.82557 -44.9112 0
      vertex 2.82557 -44.9112 0
    endloop
  endfacet
  facet normal 0.68455 0.728966 -0
    outer loop
      vertex 32.8036 30.8046 0
      vertex 28.6841 34.6731 10
      vertex 32.8036 30.8046 10
    endloop
  endfacet
  facet normal 0.68455 0.728966 0
    outer loop
      vertex 28.6841 34.6731 10
      vertex 32.8036 30.8046 0
      vertex 28.6841 34.6731 0
    endloop
  endfacet
  facet normal -0.68455 0.728966 0
    outer loop
      vertex -28.6841 34.6731 0
      vertex -32.8036 30.8046 10
      vertex -28.6841 34.6731 10
    endloop
  endfacet
  facet normal -0.68455 0.728966 0
    outer loop
      vertex -32.8036 30.8046 10
      vertex -28.6841 34.6731 0
      vertex -32.8036 30.8046 0
    endloop
  endfacet
  facet normal -0.368121 0.929778 0
    outer loop
      vertex -13.9058 42.7975 0
      vertex -19.1601 40.7172 10
      vertex -13.9058 42.7975 10
    endloop
  endfacet
  facet normal -0.368121 0.929778 0
    outer loop
      vertex -19.1601 40.7172 10
      vertex -13.9058 42.7975 0
      vertex -19.1601 40.7172 0
    endloop
  endfacet
  facet normal 0.951057 -0.309015 0
    outer loop
      vertex 41.8399 -16.5656 10
      vertex 43.5862 -11.191 0
      vertex 43.5862 -11.191 10
    endloop
  endfacet
  facet normal 0.951057 -0.309015 0
    outer loop
      vertex 43.5862 -11.191 0
      vertex 41.8399 -16.5656 10
      vertex 41.8399 -16.5656 0
    endloop
  endfacet
  facet normal 0.90483 0.425774 0
    outer loop
      vertex 41.8399 16.5656 10
      vertex 39.4338 21.6789 0
      vertex 39.4338 21.6789 10
    endloop
  endfacet
  facet normal 0.90483 0.425774 0
    outer loop
      vertex 39.4338 21.6789 0
      vertex 41.8399 16.5656 10
      vertex 41.8399 16.5656 0
    endloop
  endfacet
  facet normal 0.982284 0.187396 0
    outer loop
      vertex 44.6452 5.63999 10
      vertex 43.5862 11.191 0
      vertex 43.5862 11.191 10
    endloop
  endfacet
  facet normal 0.982284 0.187396 0
    outer loop
      vertex 43.5862 11.191 0
      vertex 44.6452 5.63999 10
      vertex 44.6452 5.63999 0
    endloop
  endfacet
  facet normal 0.84433 0.535824 0
    outer loop
      vertex 39.4338 21.6789 10
      vertex 36.4058 26.4503 0
      vertex 36.4058 26.4503 10
    endloop
  endfacet
  facet normal 0.84433 0.535824 0
    outer loop
      vertex 36.4058 26.4503 0
      vertex 39.4338 21.6789 10
      vertex 39.4338 21.6789 0
    endloop
  endfacet
  facet normal 0.368121 0.929778 -0
    outer loop
      vertex 19.1601 40.7172 0
      vertex 13.9058 42.7975 10
      vertex 19.1601 40.7172 10
    endloop
  endfacet
  facet normal 0.368121 0.929778 0
    outer loop
      vertex 13.9058 42.7975 10
      vertex 19.1601 40.7172 0
      vertex 13.9058 42.7975 0
    endloop
  endfacet
  facet normal 0.587788 0.809015 -0
    outer loop
      vertex 28.6841 34.6731 0
      vertex 24.1122 37.9948 10
      vertex 28.6841 34.6731 10
    endloop
  endfacet
  facet normal 0.587788 0.809015 0
    outer loop
      vertex 24.1122 37.9948 10
      vertex 28.6841 34.6731 0
      vertex 24.1122 37.9948 0
    endloop
  endfacet
  facet normal -0.90483 0.425774 0
    outer loop
      vertex -41.8399 16.5656 0
      vertex -39.4338 21.6789 10
      vertex -39.4338 21.6789 0
    endloop
  endfacet
  facet normal -0.90483 0.425774 0
    outer loop
      vertex -39.4338 21.6789 10
      vertex -41.8399 16.5656 0
      vertex -41.8399 16.5656 10
    endloop
  endfacet
  facet normal -0.770512 0.637425 0
    outer loop
      vertex -36.4058 26.4503 0
      vertex -32.8036 30.8046 10
      vertex -32.8036 30.8046 0
    endloop
  endfacet
  facet normal -0.770512 0.637425 0
    outer loop
      vertex -32.8036 30.8046 10
      vertex -36.4058 26.4503 0
      vertex -36.4058 26.4503 10
    endloop
  endfacet
  facet normal -0.951057 0.309015 0
    outer loop
      vertex -43.5862 11.191 0
      vertex -41.8399 16.5656 10
      vertex -41.8399 16.5656 0
    endloop
  endfacet
  facet normal -0.951057 0.309015 0
    outer loop
      vertex -41.8399 16.5656 10
      vertex -43.5862 11.191 0
      vertex -43.5862 11.191 10
    endloop
  endfacet
  facet normal -0.248691 0.968583 0
    outer loop
      vertex -8.43216 44.2029 0
      vertex -13.9058 42.7975 10
      vertex -8.43216 44.2029 10
    endloop
  endfacet
  facet normal -0.248691 0.968583 0
    outer loop
      vertex -13.9058 42.7975 10
      vertex -8.43216 44.2029 0
      vertex -13.9058 42.7975 0
    endloop
  endfacet
  facet normal 0.368121 -0.929778 0
    outer loop
      vertex 13.9058 -42.7975 0
      vertex 19.1601 -40.7172 10
      vertex 13.9058 -42.7975 10
    endloop
  endfacet
  facet normal 0.368121 -0.929778 0
    outer loop
      vertex 19.1601 -40.7172 10
      vertex 13.9058 -42.7975 0
      vertex 19.1601 -40.7172 0
    endloop
  endfacet
  facet normal 0.951057 0.309015 0
    outer loop
      vertex 43.5862 11.191 10
      vertex 41.8399 16.5656 0
      vertex 41.8399 16.5656 10
    endloop
  endfacet
  facet normal 0.951057 0.309015 0
    outer loop
      vertex 41.8399 16.5656 0
      vertex 43.5862 11.191 10
      vertex 43.5862 11.191 0
    endloop
  endfacet
  facet normal 0.770512 0.637425 0
    outer loop
      vertex 36.4058 26.4503 10
      vertex 32.8036 30.8046 0
      vertex 32.8036 30.8046 10
    endloop
  endfacet
  facet normal 0.770512 0.637425 0
    outer loop
      vertex 32.8036 30.8046 0
      vertex 36.4058 26.4503 10
      vertex 36.4058 26.4503 0
    endloop
  endfacet
  facet normal 0.248691 0.968583 -0
    outer loop
      vertex 13.9058 42.7975 0
      vertex 8.43216 44.2029 10
      vertex 13.9058 42.7975 10
    endloop
  endfacet
  facet normal 0.248691 0.968583 0
    outer loop
      vertex 8.43216 44.2029 10
      vertex 13.9058 42.7975 0
      vertex 8.43216 44.2029 0
    endloop
  endfacet
  facet normal 0.125337 0.992114 -0
    outer loop
      vertex 8.43216 44.2029 0
      vertex 2.82557 44.9112 10
      vertex 8.43216 44.2029 10
    endloop
  endfacet
  facet normal 0.125337 0.992114 0
    outer loop
      vertex 2.82557 44.9112 10
      vertex 8.43216 44.2029 0
      vertex 2.82557 44.9112 0
    endloop
  endfacet
  facet normal 0.481748 0.87631 -0
    outer loop
      vertex 24.1122 37.9948 0
      vertex 19.1601 40.7172 10
      vertex 24.1122 37.9948 10
    endloop
  endfacet
  facet normal 0.481748 0.87631 0
    outer loop
      vertex 19.1601 40.7172 10
      vertex 24.1122 37.9948 0
      vertex 19.1601 40.7172 0
    endloop
  endfacet
  facet normal -0.84433 0.535824 0
    outer loop
      vertex -39.4338 21.6789 0
      vertex -36.4058 26.4503 10
      vertex -36.4058 26.4503 0
    endloop
  endfacet
  facet normal -0.84433 0.535824 0
    outer loop
      vertex -36.4058 26.4503 10
      vertex -39.4338 21.6789 0
      vertex -39.4338 21.6789 10
    endloop
  endfacet
  facet normal -0.982284 0.187396 0
    outer loop
      vertex -44.6452 5.63999 0
      vertex -43.5862 11.191 10
      vertex -43.5862 11.191 0
    endloop
  endfacet
  facet normal -0.982284 0.187396 0
    outer loop
      vertex -43.5862 11.191 10
      vertex -44.6452 5.63999 0
      vertex -44.6452 5.63999 10
    endloop
  endfacet
  facet normal 0 0 1
    outer loop
      vertex 35 0 10
      vertex 45 0 10
      vertex 44.6452 5.63999 10
    endloop
  endfacet
  facet normal 0 0 1
    outer loop
      vertex 34.724 4.38666 10
      vertex 44.6452 5.63999 10
      vertex 43.5862 11.191 10
    endloop
  endfacet
  facet normal 0 0 1
    outer loop
      vertex 45 0 10
      vertex 35 0 10
      vertex 44.6452 -5.63999 10
    endloop
  endfacet
  facet normal 0 0 1
    outer loop
      vertex 33.9004 8.70415 10
      vertex 43.5862 11.191 10
      vertex 41.8399 16.5656 10
    endloop
  endfacet
  facet normal -0 0 1
    outer loop
      vertex 34.724 -4.38666 10
      vertex 44.6452 -5.63999 10
      vertex 35 0 10
    endloop
  endfacet
  facet normal 0 0 1
    outer loop
      vertex 32.5422 12.8844 10
      vertex 41.8399 16.5656 10
      vertex 39.4338 21.6789 10
    endloop
  endfacet
  facet normal 0 0 1
    outer loop
      vertex 44.6452 -5.63999 10
      vertex 34.724 -4.38666 10
      vertex 43.5862 -11.191 10
    endloop
  endfacet
  facet normal 0 0 1
    outer loop
      vertex 30.6707 16.8614 10
      vertex 39.4338 21.6789 10
      vertex 36.4058 26.4503 10
    endloop
  endfacet
  facet normal -0 0 1
    outer loop
      vertex 33.9004 -8.70415 10
      vertex 43.5862 -11.191 10
      vertex 34.724 -4.38666 10
    endloop
  endfacet
  facet normal 0 0 1
    outer loop
      vertex 43.5862 -11.191 10
      vertex 33.9004 -8.70415 10
      vertex 41.8399 -16.5656 10
    endloop
  endfacet
  facet normal 0 0 1
    outer loop
      vertex 44.6452 5.63999 10
      vertex 34.724 4.38666 10
      vertex 35 0 10
    endloop
  endfacet
  facet normal 0 0 1
    outer loop
      vertex 43.5862 11.191 10
      vertex 33.9004 8.70415 10
      vertex 34.724 4.38666 10
    endloop
  endfacet
  facet normal 0 0 1
    outer loop
      vertex 28.3156 20.5725 10
      vertex 36.4058 26.4503 10
      vertex 32.8036 30.8046 10
    endloop
  endfacet
  facet normal 0 0 1
    outer loop
      vertex 41.8399 16.5656 10
      vertex 32.5422 12.8844 10
      vertex 33.9004 8.70415 10
    endloop
  endfacet
  facet normal 0 0 1
    outer loop
      vertex 39.4338 21.6789 10
      vertex 30.6707 16.8614 10
      vertex 32.5422 12.8844 10
    endloop
  endfacet
  facet normal 0 0 1
    outer loop
      vertex 25.5139 23.9591 10
      vertex 32.8036 30.8046 10
      vertex 28.6841 34.6731 10
    endloop
  endfacet
  facet normal 0 0 1
    outer loop
      vertex 36.4058 26.4503 10
      vertex 28.3156 20.5725 10
      vertex 30.6707 16.8614 10
    endloop
  endfacet
  facet normal 0 0 1
    outer loop
      vertex 32.8036 30.8046 10
      vertex 25.5139 23.9591 10
      vertex 28.3156 20.5725 10
    endloop
  endfacet
  facet normal 0 0 1
    outer loop
      vertex 22.3098 26.968 10
      vertex 28.6841 34.6731 10
      vertex 24.1122 37.9948 10
    endloop
  endfacet
  facet normal 0 0 1
    outer loop
      vertex 28.6841 34.6731 10
      vertex 22.3098 26.968 10
      vertex 25.5139 23.9591 10
    endloop
  endfacet
  facet normal 0 0 1
    outer loop
      vertex 18.7539 29.5515 10
      vertex 24.1122 37.9948 10
      vertex 19.1601 40.7172 10
    endloop
  endfacet
  facet normal 0 0 1
    outer loop
      vertex 24.1122 37.9948 10
      vertex 18.7539 29.5515 10
      vertex 22.3098 26.968 10
    endloop
  endfacet
  facet normal 0 0 1
    outer loop
      vertex 19.1601 40.7172 10
      vertex 14.9023 31.6689 10
      vertex 18.7539 29.5515 10
    endloop
  endfacet
  facet normal 0 0 1
    outer loop
      vertex 13.9058 42.7975 10
      vertex 14.9023 31.6689 10
      vertex 19.1601 40.7172 10
    endloop
  endfacet
  facet normal 0 0 1
    outer loop
      vertex 13.9058 42.7975 10
      vertex 10.8156 33.287 10
      vertex 14.9023 31.6689 10
    endloop
  endfacet
  facet normal 0 0 1
    outer loop
      vertex 8.43216 44.2029 10
      vertex 10.8156 33.287 10
      vertex 13.9058 42.7975 10
    endloop
  endfacet
  facet normal 0 0 1
    outer loop
      vertex 8.43216 44.2029 10
      vertex 6.55835 34.3801 10
      vertex 10.8156 33.287 10
    endloop
  endfacet
  facet normal 0 0 1
    outer loop
      vertex 2.82557 44.9112 10
      vertex 6.55835 34.3801 10
      vertex 8.43216 44.2029 10
    endloop
  endfacet
  facet normal 0 0 1
    outer loop
      vertex 2.82557 44.9112 10
      vertex 2.19767 34.9309 10
      vertex 6.55835 34.3801 10
    endloop
  endfacet
  facet normal 0 0 1
    outer loop
      vertex 2.82557 44.9112 10
      vertex -2.19767 34.9309 10
      vertex 2.19767 34.9309 10
    endloop
  endfacet
  facet normal -0 0 1
    outer loop
      vertex -2.82557 44.9112 10
      vertex -2.19767 34.9309 10
      vertex 2.82557 44.9112 10
    endloop
  endfacet
  facet normal 0 0 1
    outer loop
      vertex -2.82557 44.9112 10
      vertex -6.55835 34.3801 10
      vertex -2.19767 34.9309 10
    endloop
  endfacet
  facet normal -0 0 1
    outer loop
      vertex -8.43216 44.2029 10
      vertex -6.55835 34.3801 10
      vertex -2.82557 44.9112 10
    endloop
  endfacet
  facet normal 0 0 1
    outer loop
      vertex -8.43216 44.2029 10
      vertex -10.8156 33.287 10
      vertex -6.55835 34.3801 10
    endloop
  endfacet
  facet normal -0 0 1
    outer loop
      vertex -13.9058 42.7975 10
      vertex -10.8156 33.287 10
      vertex -8.43216 44.2029 10
    endloop
  endfacet
  facet normal 0 0 1
    outer loop
      vertex -13.9058 42.7975 10
      vertex -14.9023 31.6689 10
      vertex -10.8156 33.287 10
    endloop
  endfacet
  facet normal -0 0 1
    outer loop
      vertex -19.1601 40.7172 10
      vertex -14.9023 31.6689 10
      vertex -13.9058 42.7975 10
    endloop
  endfacet
  facet normal 0 0 1
    outer loop
      vertex -14.9023 31.6689 10
      vertex -19.1601 40.7172 10
      vertex -18.7539 29.5515 10
    endloop
  endfacet
  facet normal -0 0 1
    outer loop
      vertex -24.1122 37.9948 10
      vertex -18.7539 29.5515 10
      vertex -19.1601 40.7172 10
    endloop
  endfacet
  facet normal 0 0 1
    outer loop
      vertex -18.7539 29.5515 10
      vertex -24.1122 37.9948 10
      vertex -22.3098 26.968 10
    endloop
  endfacet
  facet normal -0 0 1
    outer loop
      vertex -28.6841 34.6731 10
      vertex -22.3098 26.968 10
      vertex -24.1122 37.9948 10
    endloop
  endfacet
  facet normal 0 0 1
    outer loop
      vertex -22.3098 26.968 10
      vertex -28.6841 34.6731 10
      vertex -25.5139 23.9591 10
    endloop
  endfacet
  facet normal -0 0 1
    outer loop
      vertex -32.8036 30.8046 10
      vertex -25.5139 23.9591 10
      vertex -28.6841 34.6731 10
    endloop
  endfacet
  facet normal 0 0 1
    outer loop
      vertex -25.5139 23.9591 10
      vertex -32.8036 30.8046 10
      vertex -28.3156 20.5725 10
    endloop
  endfacet
  facet normal -0 0 1
    outer loop
      vertex -36.4058 26.4503 10
      vertex -28.3156 20.5725 10
      vertex -32.8036 30.8046 10
    endloop
  endfacet
  facet normal 0 0 1
    outer loop
      vertex -28.3156 20.5725 10
      vertex -36.4058 26.4503 10
      vertex -30.6707 16.8614 10
    endloop
  endfacet
  facet normal -0 0 1
    outer loop
      vertex -39.4338 21.6789 10
      vertex -30.6707 16.8614 10
      vertex -36.4058 26.4503 10
    endloop
  endfacet
  facet normal 0 0 1
    outer loop
      vertex -30.6707 16.8614 10
      vertex -39.4338 21.6789 10
      vertex -32.5422 12.8844 10
    endloop
  endfacet
  facet normal 0 0 1
    outer loop
      vertex -32.5422 12.8844 10
      vertex -41.8399 16.5656 10
      vertex -33.9004 8.70415 10
    endloop
  endfacet
  facet normal -0 0 1
    outer loop
      vertex -41.8399 16.5656 10
      vertex -32.5422 12.8844 10
      vertex -39.4338 21.6789 10
    endloop
  endfacet
  facet normal -0 0 1
    outer loop
      vertex 32.5422 -12.8844 10
      vertex 41.8399 -16.5656 10
      vertex 33.9004 -8.70415 10
    endloop
  endfacet
  facet normal 0 0 1
    outer loop
      vertex 41.8399 -16.5656 10
      vertex 32.5422 -12.8844 10
      vertex 39.4338 -21.6789 10
    endloop
  endfacet
  facet normal -0 0 1
    outer loop
      vertex 30.6707 -16.8614 10
      vertex 39.4338 -21.6789 10
      vertex 32.5422 -12.8844 10
    endloop
  endfacet
  facet normal 0 0 1
    outer loop
      vertex 39.4338 -21.6789 10
      vertex 30.6707 -16.8614 10
      vertex 36.4058 -26.4503 10
    endloop
  endfacet
  facet normal -0 0 1
    outer loop
      vertex 28.3156 -20.5725 10
      vertex 36.4058 -26.4503 10
      vertex 30.6707 -16.8614 10
    endloop
  endfacet
  facet normal 0 0 1
    outer loop
      vertex 36.4058 -26.4503 10
      vertex 28.3156 -20.5725 10
      vertex 32.8036 -30.8046 10
    endloop
  endfacet
  facet normal -0 0 1
    outer loop
      vertex 25.5139 -23.9591 10
      vertex 32.8036 -30.8046 10
      vertex 28.3156 -20.5725 10
    endloop
  endfacet
  facet normal 0 0 1
    outer loop
      vertex 32.8036 -30.8046 10
      vertex 25.5139 -23.9591 10
      vertex 28.6841 -34.6731 10
    endloop
  endfacet
  facet normal -0 0 1
    outer loop
      vertex 22.3098 -26.968 10
      vertex 28.6841 -34.6731 10
      vertex 25.5139 -23.9591 10
    endloop
  endfacet
  facet normal 0 0 1
    outer loop
      vertex 28.6841 -34.6731 10
      vertex 22.3098 -26.968 10
      vertex 24.1122 -37.9948 10
    endloop
  endfacet
  facet normal -0 0 1
    outer loop
      vertex 18.7539 -29.5515 10
      vertex 24.1122 -37.9948 10
      vertex 22.3098 -26.968 10
    endloop
  endfacet
  facet normal 0 0 1
    outer loop
      vertex 24.1122 -37.9948 10
      vertex 18.7539 -29.5515 10
      vertex 19.1601 -40.7172 10
    endloop
  endfacet
  facet normal -0 0 1
    outer loop
      vertex 14.9023 -31.6689 10
      vertex 19.1601 -40.7172 10
      vertex 18.7539 -29.5515 10
    endloop
  endfacet
  facet normal 0 0 1
    outer loop
      vertex 14.9023 -31.6689 10
      vertex 13.9058 -42.7975 10
      vertex 19.1601 -40.7172 10
    endloop
  endfacet
  facet normal -0 0 1
    outer loop
      vertex 10.8156 -33.287 10
      vertex 13.9058 -42.7975 10
      vertex 14.9023 -31.6689 10
    endloop
  endfacet
  facet normal 0 0 1
    outer loop
      vertex 10.8156 -33.287 10
      vertex 8.43216 -44.2029 10
      vertex 13.9058 -42.7975 10
    endloop
  endfacet
  facet normal -0 0 1
    outer loop
      vertex 6.55835 -34.3801 10
      vertex 8.43216 -44.2029 10
      vertex 10.8156 -33.287 10
    endloop
  endfacet
  facet normal 0 0 1
    outer loop
      vertex 6.55835 -34.3801 10
      vertex 2.82557 -44.9112 10
      vertex 8.43216 -44.2029 10
    endloop
  endfacet
  facet normal -0 0 1
    outer loop
      vertex 2.19767 -34.9309 10
      vertex 2.82557 -44.9112 10
      vertex 6.55835 -34.3801 10
    endloop
  endfacet
  facet normal -0 0 1
    outer loop
      vertex -2.19767 -34.9309 10
      vertex 2.82557 -44.9112 10
      vertex 2.19767 -34.9309 10
    endloop
  endfacet
  facet normal 0 0 1
    outer loop
      vertex -2.19767 -34.9309 10
      vertex -2.82557 -44.9112 10
      vertex 2.82557 -44.9112 10
    endloop
  endfacet
  facet normal 0 0 1
    outer loop
      vertex -6.55835 -34.3801 10
      vertex -2.82557 -44.9112 10
      vertex -2.19767 -34.9309 10
    endloop
  endfacet
  facet normal 0 0 1
    outer loop
      vertex -6.55835 -34.3801 10
      vertex -8.43216 -44.2029 10
      vertex -2.82557 -44.9112 10
    endloop
  endfacet
  facet normal 0 0 1
    outer loop
      vertex -10.8156 -33.287 10
      vertex -8.43216 -44.2029 10
      vertex -6.55835 -34.3801 10
    endloop
  endfacet
  facet normal 0 0 1
    outer loop
      vertex -10.8156 -33.287 10
      vertex -13.9058 -42.7975 10
      vertex -8.43216 -44.2029 10
    endloop
  endfacet
  facet normal 0 0 1
    outer loop
      vertex -14.9023 -31.6689 10
      vertex -13.9058 -42.7975 10
      vertex -10.8156 -33.287 10
    endloop
  endfacet
  facet normal 0 0 1
    outer loop
      vertex -19.1601 -40.7172 10
      vertex -14.9023 -31.6689 10
      vertex -18.7539 -29.5515 10
    endloop
  endfacet
  facet normal 0 0 1
    outer loop
      vertex -14.9023 -31.6689 10
      vertex -19.1601 -40.7172 10
      vertex -13.9058 -42.7975 10
    endloop
  endfacet
  facet normal 0 0 1
    outer loop
      vertex -24.1122 -37.9948 10
      vertex -18.7539 -29.5515 10
      vertex -22.3098 -26.968 10
    endloop
  endfacet
  facet normal 0 0 1
    outer loop
      vertex -18.7539 -29.5515 10
      vertex -24.1122 -37.9948 10
      vertex -19.1601 -40.7172 10
    endloop
  endfacet
  facet normal 0 0 1
    outer loop
      vertex -28.6841 -34.6731 10
      vertex -22.3098 -26.968 10
      vertex -25.5139 -23.9591 10
    endloop
  endfacet
  facet normal 0 0 1
    outer loop
      vertex -32.8036 -30.8046 10
      vertex -25.5139 -23.9591 10
      vertex -28.3156 -20.5725 10
    endloop
  endfacet
  facet normal 0 0 1
    outer loop
      vertex -22.3098 -26.968 10
      vertex -28.6841 -34.6731 10
      vertex -24.1122 -37.9948 10
    endloop
  endfacet
  facet normal 0 0 1
    outer loop
      vertex -36.4058 -26.4503 10
      vertex -28.3156 -20.5725 10
      vertex -30.6707 -16.8614 10
    endloop
  endfacet
  facet normal 0 0 1
    outer loop
      vertex -39.4338 -21.6789 10
      vertex -30.6707 -16.8614 10
      vertex -32.5422 -12.8844 10
    endloop
  endfacet
  facet normal 0 0 1
    outer loop
      vertex -25.5139 -23.9591 10
      vertex -32.8036 -30.8046 10
      vertex -28.6841 -34.6731 10
    endloop
  endfacet
  facet normal 0 0 1
    outer loop
      vertex -41.8399 -16.5656 10
      vertex -32.5422 -12.8844 10
      vertex -33.9004 -8.70415 10
    endloop
  endfacet
  facet normal 0 0 1
    outer loop
      vertex -43.5862 -11.191 10
      vertex -33.9004 -8.70415 10
      vertex -34.724 -4.38666 10
    endloop
  endfacet
  facet normal 0 0 1
    outer loop
      vertex -28.3156 -20.5725 10
      vertex -36.4058 -26.4503 10
      vertex -32.8036 -30.8046 10
    endloop
  endfacet
  facet normal 0 0 1
    outer loop
      vertex -44.6452 -5.63999 10
      vertex -34.724 -4.38666 10
      vertex -35 0 10
    endloop
  endfacet
  facet normal -0 0 1
    outer loop
      vertex -43.5862 11.191 10
      vertex -33.9004 8.70415 10
      vertex -41.8399 16.5656 10
    endloop
  endfacet
  facet normal 0 0 1
    outer loop
      vertex -33.9004 8.70415 10
      vertex -43.5862 11.191 10
      vertex -34.724 4.38666 10
    endloop
  endfacet
  facet normal 0 0 1
    outer loop
      vertex -30.6707 -16.8614 10
      vertex -39.4338 -21.6789 10
      vertex -36.4058 -26.4503 10
    endloop
  endfacet
  facet normal -0 0 1
    outer loop
      vertex -44.6452 5.63999 10
      vertex -34.724 4.38666 10
      vertex -43.5862 11.191 10
    endloop
  endfacet
  facet normal 0 0 1
    outer loop
      vertex -32.5422 -12.8844 10
      vertex -41.8399 -16.5656 10
      vertex -39.4338 -21.6789 10
    endloop
  endfacet
  facet normal 0 0 1
    outer loop
      vertex -34.724 4.38666 10
      vertex -44.6452 5.63999 10
      vertex -35 0 10
    endloop
  endfacet
  facet normal 0 0 1
    outer loop
      vertex -33.9004 -8.70415 10
      vertex -43.5862 -11.191 10
      vertex -41.8399 -16.5656 10
    endloop
  endfacet
  facet normal 0 0 1
    outer loop
      vertex -45 0 10
      vertex -35 0 10
      vertex -44.6452 5.63999 10
    endloop
  endfacet
  facet normal 0 0 1
    outer loop
      vertex -34.724 -4.38666 10
      vertex -44.6452 -5.63999 10
      vertex -43.5862 -11.191 10
    endloop
  endfacet
  facet normal 0 0 1
    outer loop
      vertex -35 0 10
      vertex -45 0 10
      vertex -44.6452 -5.63999 10
    endloop
  endfacet
  facet normal -0.481748 0.87631 0
    outer loop
      vertex -19.1601 40.7172 0
      vertex -24.1122 37.9948 10
      vertex -19.1601 40.7172 10
    endloop
  endfacet
  facet normal -0.481748 0.87631 0
    outer loop
      vertex -24.1122 37.9948 10
      vertex -19.1601 40.7172 0
      vertex -24.1122 37.9948 0
    endloop
  endfacet
  facet normal -0.587788 0.809015 0
    outer loop
      vertex -24.1122 37.9948 0
      vertex -28.6841 34.6731 10
      vertex -24.1122 37.9948 10
    endloop
  endfacet
  facet normal -0.587788 0.809015 0
    outer loop
      vertex -28.6841 34.6731 10
      vertex -24.1122 37.9948 0
      vertex -28.6841 34.6731 0
    endloop
  endfacet
  facet normal -0.125337 0.992114 0
    outer loop
      vertex -2.82557 44.9112 0
      vertex -8.43216 44.2029 10
      vertex -2.82557 44.9112 10
    endloop
  endfacet
  facet normal -0.125337 0.992114 0
    outer loop
      vertex -8.43216 44.2029 10
      vertex -2.82557 44.9112 0
      vertex -8.43216 44.2029 0
    endloop
  endfacet
  facet normal 0.998027 -0.0627838 0
    outer loop
      vertex 44.6452 -5.63999 10
      vertex 45 0 0
      vertex 45 0 10
    endloop
  endfacet
  facet normal 0.998027 -0.0627838 0
    outer loop
      vertex 45 0 0
      vertex 44.6452 -5.63999 10
      vertex 44.6452 -5.63999 0
    endloop
  endfacet
  facet normal 0.84433 -0.535824 0
    outer loop
      vertex 36.4058 -26.4503 10
      vertex 39.4338 -21.6789 0
      vertex 39.4338 -21.6789 10
    endloop
  endfacet
  facet normal 0.84433 -0.535824 0
    outer loop
      vertex 39.4338 -21.6789 0
      vertex 36.4058 -26.4503 10
      vertex 36.4058 -26.4503 0
    endloop
  endfacet
  facet normal 0.982284 -0.187396 0
    outer loop
      vertex 43.5862 -11.191 10
      vertex 44.6452 -5.63999 0
      vertex 44.6452 -5.63999 10
    endloop
  endfacet
  facet normal 0.982284 -0.187396 0
    outer loop
      vertex 44.6452 -5.63999 0
      vertex 43.5862 -11.191 10
      vertex 43.5862 -11.191 0
    endloop
  endfacet
  facet normal 0 0 -1
    outer loop
      vertex 35 0 0
      vertex 45 0 0
      vertex 44.6452 -5.63999 0
    endloop
  endfacet
  facet normal 0 0 -1
    outer loop
      vertex 34.724 -4.38666 0
      vertex 44.6452 -5.63999 0
      vertex 43.5862 -11.191 0
    endloop
  endfacet
  facet normal 0 0 -1
    outer loop
      vertex 45 0 0
      vertex 35 0 0
      vertex 44.6452 5.63999 0
    endloop
  endfacet
  facet normal 0 0 -1
    outer loop
      vertex 33.9004 -8.70415 0
      vertex 43.5862 -11.191 0
      vertex 41.8399 -16.5656 0
    endloop
  endfacet
  facet normal 0 0 -1
    outer loop
      vertex 34.724 4.38666 0
      vertex 44.6452 5.63999 0
      vertex 35 0 0
    endloop
  endfacet
  facet normal 0 0 -1
    outer loop
      vertex 32.5422 -12.8844 0
      vertex 41.8399 -16.5656 0
      vertex 39.4338 -21.6789 0
    endloop
  endfacet
  facet normal -0 0 -1
    outer loop
      vertex 44.6452 5.63999 0
      vertex 34.724 4.38666 0
      vertex 43.5862 11.191 0
    endloop
  endfacet
  facet normal 0 0 -1
    outer loop
      vertex 30.6707 -16.8614 0
      vertex 39.4338 -21.6789 0
      vertex 36.4058 -26.4503 0
    endloop
  endfacet
  facet normal 0 0 -1
    outer loop
      vertex 33.9004 8.70415 0
      vertex 43.5862 11.191 0
      vertex 34.724 4.38666 0
    endloop
  endfacet
  facet normal -0 0 -1
    outer loop
      vertex 43.5862 11.191 0
      vertex 33.9004 8.70415 0
      vertex 41.8399 16.5656 0
    endloop
  endfacet
  facet normal 0 0 -1
    outer loop
      vertex 44.6452 -5.63999 0
      vertex 34.724 -4.38666 0
      vertex 35 0 0
    endloop
  endfacet
  facet normal 0 0 -1
    outer loop
      vertex 43.5862 -11.191 0
      vertex 33.9004 -8.70415 0
      vertex 34.724 -4.38666 0
    endloop
  endfacet
  facet normal 0 0 -1
    outer loop
      vertex 28.3156 -20.5725 0
      vertex 36.4058 -26.4503 0
      vertex 32.8036 -30.8046 0
    endloop
  endfacet
  facet normal 0 0 -1
    outer loop
      vertex 41.8399 -16.5656 0
      vertex 32.5422 -12.8844 0
      vertex 33.9004 -8.70415 0
    endloop
  endfacet
  facet normal 0 0 -1
    outer loop
      vertex 39.4338 -21.6789 0
      vertex 30.6707 -16.8614 0
      vertex 32.5422 -12.8844 0
    endloop
  endfacet
  facet normal 0 0 -1
    outer loop
      vertex 25.5139 -23.9591 0
      vertex 32.8036 -30.8046 0
      vertex 28.6841 -34.6731 0
    endloop
  endfacet
  facet normal 0 0 -1
    outer loop
      vertex 36.4058 -26.4503 0
      vertex 28.3156 -20.5725 0
      vertex 30.6707 -16.8614 0
    endloop
  endfacet
  facet normal 0 0 -1
    outer loop
      vertex 32.8036 -30.8046 0
      vertex 25.5139 -23.9591 0
      vertex 28.3156 -20.5725 0
    endloop
  endfacet
  facet normal 0 0 -1
    outer loop
      vertex 22.3098 -26.968 0
      vertex 28.6841 -34.6731 0
      vertex 24.1122 -37.9948 0
    endloop
  endfacet
  facet normal 0 0 -1
    outer loop
      vertex 28.6841 -34.6731 0
      vertex 22.3098 -26.968 0
      vertex 25.5139 -23.9591 0
    endloop
  endfacet
  facet normal 0 0 -1
    outer loop
      vertex 18.7539 -29.5515 0
      vertex 24.1122 -37.9948 0
      vertex 19.1601 -40.7172 0
    endloop
  endfacet
  facet normal 0 0 -1
    outer loop
      vertex 24.1122 -37.9948 0
      vertex 18.7539 -29.5515 0
      vertex 22.3098 -26.968 0
    endloop
  endfacet
  facet normal 0 0 -1
    outer loop
      vertex 19.1601 -40.7172 0
      vertex 14.9023 -31.6689 0
      vertex 18.7539 -29.5515 0
    endloop
  endfacet
  facet normal 0 0 -1
    outer loop
      vertex 13.9058 -42.7975 0
      vertex 14.9023 -31.6689 0
      vertex 19.1601 -40.7172 0
    endloop
  endfacet
  facet normal 0 0 -1
    outer loop
      vertex 13.9058 -42.7975 0
      vertex 10.8156 -33.287 0
      vertex 14.9023 -31.6689 0
    endloop
  endfacet
  facet normal 0 0 -1
    outer loop
      vertex 8.43216 -44.2029 0
      vertex 10.8156 -33.287 0
      vertex 13.9058 -42.7975 0
    endloop
  endfacet
  facet normal 0 0 -1
    outer loop
      vertex 8.43216 -44.2029 0
      vertex 6.55835 -34.3801 0
      vertex 10.8156 -33.287 0
    endloop
  endfacet
  facet normal 0 0 -1
    outer loop
      vertex 2.82557 -44.9112 0
      vertex 6.55835 -34.3801 0
      vertex 8.43216 -44.2029 0
    endloop
  endfacet
  facet normal 0 0 -1
    outer loop
      vertex 2.82557 -44.9112 0
      vertex 2.19767 -34.9309 0
      vertex 6.55835 -34.3801 0
    endloop
  endfacet
  facet normal 0 0 -1
    outer loop
      vertex 2.82557 -44.9112 0
      vertex -2.19767 -34.9309 0
      vertex 2.19767 -34.9309 0
    endloop
  endfacet
  facet normal 0 0 -1
    outer loop
      vertex -2.82557 -44.9112 0
      vertex -2.19767 -34.9309 0
      vertex 2.82557 -44.9112 0
    endloop
  endfacet
  facet normal 0 0 -1
    outer loop
      vertex -2.82557 -44.9112 0
      vertex -6.55835 -34.3801 0
      vertex -2.19767 -34.9309 0
    endloop
  endfacet
  facet normal 0 0 -1
    outer loop
      vertex -8.43216 -44.2029 0
      vertex -6.55835 -34.3801 0
      vertex -2.82557 -44.9112 0
    endloop
  endfacet
  facet normal 0 0 -1
    outer loop
      vertex -8.43216 -44.2029 0
      vertex -10.8156 -33.287 0
      vertex -6.55835 -34.3801 0
    endloop
  endfacet
  facet normal 0 0 -1
    outer loop
      vertex -13.9058 -42.7975 0
      vertex -10.8156 -33.287 0
      vertex -8.43216 -44.2029 0
    endloop
  endfacet
  facet normal 0 0 -1
    outer loop
      vertex -13.9058 -42.7975 0
      vertex -14.9023 -31.6689 0
      vertex -10.8156 -33.287 0
    endloop
  endfacet
  facet normal 0 0 -1
    outer loop
      vertex -19.1601 -40.7172 0
      vertex -14.9023 -31.6689 0
      vertex -13.9058 -42.7975 0
    endloop
  endfacet
  facet normal -0 0 -1
    outer loop
      vertex -14.9023 -31.6689 0
      vertex -19.1601 -40.7172 0
      vertex -18.7539 -29.5515 0
    endloop
  endfacet
  facet normal 0 0 -1
    outer loop
      vertex -24.1122 -37.9948 0
      vertex -18.7539 -29.5515 0
      vertex -19.1601 -40.7172 0
    endloop
  endfacet
  facet normal -0 0 -1
    outer loop
      vertex -18.7539 -29.5515 0
      vertex -24.1122 -37.9948 0
      vertex -22.3098 -26.968 0
    endloop
  endfacet
  facet normal 0 0 -1
    outer loop
      vertex -28.6841 -34.6731 0
      vertex -22.3098 -26.968 0
      vertex -24.1122 -37.9948 0
    endloop
  endfacet
  facet normal -0 0 -1
    outer loop
      vertex -22.3098 -26.968 0
      vertex -28.6841 -34.6731 0
      vertex -25.5139 -23.9591 0
    endloop
  endfacet
  facet normal 0 0 -1
    outer loop
      vertex -32.8036 -30.8046 0
      vertex -25.5139 -23.9591 0
      vertex -28.6841 -34.6731 0
    endloop
  endfacet
  facet normal -0 0 -1
    outer loop
      vertex -25.5139 -23.9591 0
      vertex -32.8036 -30.8046 0
      vertex -28.3156 -20.5725 0
    endloop
  endfacet
  facet normal 0 0 -1
    outer loop
      vertex -36.4058 -26.4503 0
      vertex -28.3156 -20.5725 0
      vertex -32.8036 -30.8046 0
    endloop
  endfacet
  facet normal -0 0 -1
    outer loop
      vertex -28.3156 -20.5725 0
      vertex -36.4058 -26.4503 0
      vertex -30.6707 -16.8614 0
    endloop
  endfacet
  facet normal 0 0 -1
    outer loop
      vertex -39.4338 -21.6789 0
      vertex -30.6707 -16.8614 0
      vertex -36.4058 -26.4503 0
    endloop
  endfacet
  facet normal -0 0 -1
    outer loop
      vertex -30.6707 -16.8614 0
      vertex -39.4338 -21.6789 0
      vertex -32.5422 -12.8844 0
    endloop
  endfacet
  facet normal -0 0 -1
    outer loop
      vertex -32.5422 -12.8844 0
      vertex -41.8399 -16.5656 0
      vertex -33.9004 -8.70415 0
    endloop
  endfacet
  facet normal 0 0 -1
    outer loop
      vertex -41.8399 -16.5656 0
      vertex -32.5422 -12.8844 0
      vertex -39.4338 -21.6789 0
    endloop
  endfacet
  facet normal 0 0 -1
    outer loop
      vertex 32.5422 12.8844 0
      vertex 41.8399 16.5656 0
      vertex 33.9004 8.70415 0
    endloop
  endfacet
  facet normal -0 0 -1
    outer loop
      vertex 41.8399 16.5656 0
      vertex 32.5422 12.8844 0
      vertex 39.4338 21.6789 0
    endloop
  endfacet
  facet normal 0 0 -1
    outer loop
      vertex 30.6707 16.8614 0
      vertex 39.4338 21.6789 0
      vertex 32.5422 12.8844 0
    endloop
  endfacet
  facet normal -0 0 -1
    outer loop
      vertex 39.4338 21.6789 0
      vertex 30.6707 16.8614 0
      vertex 36.4058 26.4503 0
    endloop
  endfacet
  facet normal 0 0 -1
    outer loop
      vertex 28.3156 20.5725 0
      vertex 36.4058 26.4503 0
      vertex 30.6707 16.8614 0
    endloop
  endfacet
  facet normal -0 0 -1
    outer loop
      vertex 36.4058 26.4503 0
      vertex 28.3156 20.5725 0
      vertex 32.8036 30.8046 0
    endloop
  endfacet
  facet normal 0 0 -1
    outer loop
      vertex 25.5139 23.9591 0
      vertex 32.8036 30.8046 0
      vertex 28.3156 20.5725 0
    endloop
  endfacet
  facet normal -0 0 -1
    outer loop
      vertex 32.8036 30.8046 0
      vertex 25.5139 23.9591 0
      vertex 28.6841 34.6731 0
    endloop
  endfacet
  facet normal 0 0 -1
    outer loop
      vertex 22.3098 26.968 0
      vertex 28.6841 34.6731 0
      vertex 25.5139 23.9591 0
    endloop
  endfacet
  facet normal -0 0 -1
    outer loop
      vertex 28.6841 34.6731 0
      vertex 22.3098 26.968 0
      vertex 24.1122 37.9948 0
    endloop
  endfacet
  facet normal 0 0 -1
    outer loop
      vertex 18.7539 29.5515 0
      vertex 24.1122 37.9948 0
      vertex 22.3098 26.968 0
    endloop
  endfacet
  facet normal -0 0 -1
    outer loop
      vertex 24.1122 37.9948 0
      vertex 18.7539 29.5515 0
      vertex 19.1601 40.7172 0
    endloop
  endfacet
  facet normal 0 0 -1
    outer loop
      vertex 14.9023 31.6689 0
      vertex 19.1601 40.7172 0
      vertex 18.7539 29.5515 0
    endloop
  endfacet
  facet normal 0 0 -1
    outer loop
      vertex 14.9023 31.6689 0
      vertex 13.9058 42.7975 0
      vertex 19.1601 40.7172 0
    endloop
  endfacet
  facet normal 0 0 -1
    outer loop
      vertex 10.8156 33.287 0
      vertex 13.9058 42.7975 0
      vertex 14.9023 31.6689 0
    endloop
  endfacet
  facet normal 0 0 -1
    outer loop
      vertex 10.8156 33.287 0
      vertex 8.43216 44.2029 0
      vertex 13.9058 42.7975 0
    endloop
  endfacet
  facet normal 0 0 -1
    outer loop
      vertex 6.55835 34.3801 0
      vertex 8.43216 44.2029 0
      vertex 10.8156 33.287 0
    endloop
  endfacet
  facet normal 0 0 -1
    outer loop
      vertex 6.55835 34.3801 0
      vertex 2.82557 44.9112 0
      vertex 8.43216 44.2029 0
    endloop
  endfacet
  facet normal 0 0 -1
    outer loop
      vertex 2.19767 34.9309 0
      vertex 2.82557 44.9112 0
      vertex 6.55835 34.3801 0
    endloop
  endfacet
  facet normal 0 0 -1
    outer loop
      vertex -2.19767 34.9309 0
      vertex 2.82557 44.9112 0
      vertex 2.19767 34.9309 0
    endloop
  endfacet
  facet normal 0 0 -1
    outer loop
      vertex -2.19767 34.9309 0
      vertex -2.82557 44.9112 0
      vertex 2.82557 44.9112 0
    endloop
  endfacet
  facet normal 0 0 -1
    outer loop
      vertex -6.55835 34.3801 0
      vertex -2.82557 44.9112 0
      vertex -2.19767 34.9309 0
    endloop
  endfacet
  facet normal 0 0 -1
    outer loop
      vertex -6.55835 34.3801 0
      vertex -8.43216 44.2029 0
      vertex -2.82557 44.9112 0
    endloop
  endfacet
  facet normal 0 0 -1
    outer loop
      vertex -10.8156 33.287 0
      vertex -8.43216 44.2029 0
      vertex -6.55835 34.3801 0
    endloop
  endfacet
  facet normal 0 0 -1
    outer loop
      vertex -10.8156 33.287 0
      vertex -13.9058 42.7975 0
      vertex -8.43216 44.2029 0
    endloop
  endfacet
  facet normal 0 0 -1
    outer loop
      vertex -14.9023 31.6689 0
      vertex -13.9058 42.7975 0
      vertex -10.8156 33.287 0
    endloop
  endfacet
  facet normal 0 0 -1
    outer loop
      vertex -19.1601 40.7172 0
      vertex -14.9023 31.6689 0
      vertex -18.7539 29.5515 0
    endloop
  endfacet
  facet normal 0 0 -1
    outer loop
      vertex -14.9023 31.6689 0
      vertex -19.1601 40.7172 0
      vertex -13.9058 42.7975 0
    endloop
  endfacet
  facet normal 0 0 -1
    outer loop
      vertex -24.1122 37.9948 0
      vertex -18.7539 29.5515 0
      vertex -22.3098 26.968 0
    endloop
  endfacet
  facet normal 0 0 -1
    outer loop
      vertex -18.7539 29.5515 0
      vertex -24.1122 37.9948 0
      vertex -19.1601 40.7172 0
    endloop
  endfacet
  facet normal 0 0 -1
    outer loop
      vertex -28.6841 34.6731 0
      vertex -22.3098 26.968 0
      vertex -25.5139 23.9591 0
    endloop
  endfacet
  facet normal 0 0 -1
    outer loop
      vertex -32.8036 30.8046 0
      vertex -25.5139 23.9591 0
      vertex -28.3156 20.5725 0
    endloop
  endfacet
  facet normal 0 0 -1
    outer loop
      vertex -22.3098 26.968 0
      vertex -28.6841 34.6731 0
      vertex -24.1122 37.9948 0
    endloop
  endfacet
  facet normal 0 0 -1
    outer loop
      vertex -36.4058 26.4503 0
      vertex -28.3156 20.5725 0
      vertex -30.6707 16.8614 0
    endloop
  endfacet
  facet normal 0 0 -1
    outer loop
      vertex -39.4338 21.6789 0
      vertex -30.6707 16.8614 0
      vertex -32.5422 12.8844 0
    endloop
  endfacet
  facet normal 0 0 -1
    outer loop
      vertex -25.5139 23.9591 0
      vertex -32.8036 30.8046 0
      vertex -28.6841 34.6731 0
    endloop
  endfacet
  facet normal 0 0 -1
    outer loop
      vertex -41.8399 16.5656 0
      vertex -32.5422 12.8844 0
      vertex -33.9004 8.70415 0
    endloop
  endfacet
  facet normal 0 0 -1
    outer loop
      vertex -43.5862 11.191 0
      vertex -33.9004 8.70415 0
      vertex -34.724 4.38666 0
    endloop
  endfacet
  facet normal 0 0 -1
    outer loop
      vertex -28.3156 20.5725 0
      vertex -36.4058 26.4503 0
      vertex -32.8036 30.8046 0
    endloop
  endfacet
  facet normal 0 0 -1
    outer loop
      vertex -44.6452 5.63999 0
      vertex -34.724 4.38666 0
      vertex -35 0 0
    endloop
  endfacet
  facet normal 0 0 -1
    outer loop
      vertex -43.5862 -11.191 0
      vertex -33.9004 -8.70415 0
      vertex -41.8399 -16.5656 0
    endloop
  endfacet
  facet normal -0 0 -1
    outer loop
      vertex -33.9004 -8.70415 0
      vertex -43.5862 -11.191 0
      vertex -34.724 -4.38666 0
    endloop
  endfacet
  facet normal 0 0 -1
    outer loop
      vertex -30.6707 16.8614 0
      vertex -39.4338 21.6789 0
      vertex -36.4058 26.4503 0
    endloop
  endfacet
  facet normal 0 0 -1
    outer loop
      vertex -44.6452 -5.63999 0
      vertex -34.724 -4.38666 0
      vertex -43.5862 -11.191 0
    endloop
  endfacet
  facet normal 0 0 -1
    outer loop
      vertex -32.5422 12.8844 0
      vertex -41.8399 16.5656 0
      vertex -39.4338 21.6789 0
    endloop
  endfacet
  facet normal -0 0 -1
    outer loop
      vertex -34.724 -4.38666 0
      vertex -44.6452 -5.63999 0
      vertex -35 0 0
    endloop
  endfacet
  facet normal 0 0 -1
    outer loop
      vertex -33.9004 8.70415 0
      vertex -43.5862 11.191 0
      vertex -41.8399 16.5656 0
    endloop
  endfacet
  facet normal 0 0 -1
    outer loop
      vertex -45 0 0
      vertex -35 0 0
      vertex -44.6452 -5.63999 0
    endloop
  endfacet
  facet normal 0 0 -1
    outer loop
      vertex -34.724 4.38666 0
      vertex -44.6452 5.63999 0
      vertex -43.5862 11.191 0
    endloop
  endfacet
  facet normal 0 0 -1
    outer loop
      vertex -35 0 0
      vertex -45 0 0
      vertex -44.6452 5.63999 0
    endloop
  endfacet
  facet normal 0.587788 -0.809015 0
    outer loop
      vertex 24.1122 -37.9948 0
      vertex 28.6841 -34.6731 10
      vertex 24.1122 -37.9948 10
    endloop
  endfacet
  facet normal 0.587788 -0.809015 0
    outer loop
      vertex 28.6841 -34.6731 10
      vertex 24.1122 -37.9948 0
      vertex 28.6841 -34.6731 0
    endloop
  endfacet
  facet normal 0.90483 -0.425774 0
    outer loop
      vertex 39.4338 -21.6789 10
      vertex 41.8399 -16.5656 0
      vertex 41.8399 -16.5656 10
    endloop
  endfacet
  facet normal 0.90483 -0.425774 0
    outer loop
      vertex 41.8399 -16.5656 0
      vertex 39.4338 -21.6789 10
      vertex 39.4338 -21.6789 0
    endloop
  endfacet
  facet normal -0.951057 -0.309015 0
    outer loop
      vertex -41.8399 -16.5656 0
      vertex -43.5862 -11.191 10
      vertex -43.5862 -11.191 0
    endloop
  endfacet
  facet normal -0.951057 -0.309015 0
    outer loop
      vertex -43.5862 -11.191 10
      vertex -41.8399 -16.5656 0
      vertex -41.8399 -16.5656 10
    endloop
  endfacet
  facet normal 0.68455 -0.728966 0
    outer loop
      vertex 28.6841 -34.6731 0
      vertex 32.8036 -30.8046 10
      vertex 28.6841 -34.6731 10
    endloop
  endfacet
  facet normal 0.68455 -0.728966 0
    outer loop
      vertex 32.8036 -30.8046 10
      vertex 28.6841 -34.6731 0
      vertex 32.8036 -30.8046 0
    endloop
  endfacet
  facet normal 0.481748 -0.87631 0
    outer loop
      vertex 19.1601 -40.7172 0
      vertex 24.1122 -37.9948 10
      vertex 19.1601 -40.7172 10
    endloop
  endfacet
  facet normal 0.481748 -0.87631 0
    outer loop
      vertex 24.1122 -37.9948 10
      vertex 19.1601 -40.7172 0
      vertex 24.1122 -37.9948 0
    endloop
  endfacet
  facet normal -0.125337 -0.992114 0
    outer loop
      vertex -8.43216 -44.2029 0
      vertex -2.82557 -44.9112 10
      vertex -8.43216 -44.2029 10
    endloop
  endfacet
  facet normal -0.125337 -0.992114 -0
    outer loop
      vertex -2.82557 -44.9112 10
      vertex -8.43216 -44.2029 0
      vertex -2.82557 -44.9112 0
    endloop
  endfacet
  facet normal -0.368121 -0.929778 0
    outer loop
      vertex -19.1601 -40.7172 0
      vertex -13.9058 -42.7975 10
      vertex -19.1601 -40.7172 10
    endloop
  endfacet
  facet normal -0.368121 -0.929778 -0
    outer loop
      vertex -13.9058 -42.7975 10
      vertex -19.1601 -40.7172 0
      vertex -13.9058 -42.7975 0
    endloop
  endfacet
  facet normal -0.587788 -0.809015 0
    outer loop
      vertex -28.6841 -34.6731 0
      vertex -24.1122 -37.9948 10
      vertex -28.6841 -34.6731 10
    endloop
  endfacet
  facet normal -0.587788 -0.809015 -0
    outer loop
      vertex -24.1122 -37.9948 10
      vertex -28.6841 -34.6731 0
      vertex -24.1122 -37.9948 0
    endloop
  endfacet
  facet normal -0.248691 -0.968583 0
    outer loop
      vertex -13.9058 -42.7975 0
      vertex -8.43216 -44.2029 10
      vertex -13.9058 -42.7975 10
    endloop
  endfacet
  facet normal -0.248691 -0.968583 -0
    outer loop
      vertex -8.43216 -44.2029 10
      vertex -13.9058 -42.7975 0
      vertex -8.43216 -44.2029 0
    endloop
  endfacet
  facet normal -0.770512 -0.637425 0
    outer loop
      vertex -32.8036 -30.8046 0
      vertex -36.4058 -26.4503 10
      vertex -36.4058 -26.4503 0
    endloop
  endfacet
  facet normal -0.770512 -0.637425 0
    outer loop
      vertex -36.4058 -26.4503 10
      vertex -32.8036 -30.8046 0
      vertex -32.8036 -30.8046 10
    endloop
  endfacet
  facet normal -0.68455 -0.728966 0
    outer loop
      vertex -32.8036 -30.8046 0
      vertex -28.6841 -34.6731 10
      vertex -32.8036 -30.8046 10
    endloop
  endfacet
  facet normal -0.68455 -0.728966 -0
    outer loop
      vertex -28.6841 -34.6731 10
      vertex -32.8036 -30.8046 0
      vertex -28.6841 -34.6731 0
    endloop
  endfacet
  facet normal -0.90483 -0.425774 0
    outer loop
      vertex -39.4338 -21.6789 0
      vertex -41.8399 -16.5656 10
      vertex -41.8399 -16.5656 0
    endloop
  endfacet
  facet normal -0.90483 -0.425774 0
    outer loop
      vertex -41.8399 -16.5656 10
      vertex -39.4338 -21.6789 0
      vertex -39.4338 -21.6789 10
    endloop
  endfacet
  facet normal -0.982284 -0.187396 0
    outer loop
      vertex -43.5862 -11.191 0
      vertex -44.6452 -5.63999 10
      vertex -44.6452 -5.63999 0
    endloop
  endfacet
  facet normal -0.982284 -0.187396 0
    outer loop
      vertex -44.6452 -5.63999 10
      vertex -43.5862 -11.191 0
      vertex -43.5862 -11.191 10
    endloop
  endfacet
  facet normal -0.998027 -0.0627838 0
    outer loop
      vertex -44.6452 -5.63999 0
      vertex -45 0 10
      vertex -45 0 0
    endloop
  endfacet
  facet normal -0.998027 -0.0627838 0
    outer loop
      vertex -45 0 10
      vertex -44.6452 -5.63999 0
      vertex -44.6452 -5.63999 10
    endloop
  endfacet
  facet normal 0.770512 -0.637425 0
    outer loop
      vertex 32.8036 -30.8046 10
      vertex 36.4058 -26.4503 0
      vertex 36.4058 -26.4503 10
    endloop
  endfacet
  facet normal 0.770512 -0.637425 0
    outer loop
      vertex 36.4058 -26.4503 0
      vertex 32.8036 -30.8046 10
      vertex 32.8036 -30.8046 0
    endloop
  endfacet
  facet normal 0.248691 -0.968583 0
    outer loop
      vertex 8.43216 -44.2029 0
      vertex 13.9058 -42.7975 10
      vertex 8.43216 -44.2029 10
    endloop
  endfacet
  facet normal 0.248691 -0.968583 0
    outer loop
      vertex 13.9058 -42.7975 10
      vertex 8.43216 -44.2029 0
      vertex 13.9058 -42.7975 0
    endloop
  endfacet
  facet normal 0.125337 -0.992114 0
    outer loop
      vertex 2.82557 -44.9112 0
      vertex 8.43216 -44.2029 10
      vertex 2.82557 -44.9112 10
    endloop
  endfacet
  facet normal 0.125337 -0.992114 0
    outer loop
      vertex 8.43216 -44.2029 10
      vertex 2.82557 -44.9112 0
      vertex 8.43216 -44.2029 0
    endloop
  endfacet
  facet normal -0.481748 -0.87631 0
    outer loop
      vertex -24.1122 -37.9948 0
      vertex -19.1601 -40.7172 10
      vertex -24.1122 -37.9948 10
    endloop
  endfacet
  facet normal -0.481748 -0.87631 -0
    outer loop
      vertex -19.1601 -40.7172 10
      vertex -24.1122 -37.9948 0
      vertex -19.1601 -40.7172 0
    endloop
  endfacet
  facet normal -0.84433 -0.535824 0
    outer loop
      vertex -36.4058 -26.4503 0
      vertex -39.4338 -21.6789 10
      vertex -39.4338 -21.6789 0
    endloop
  endfacet
  facet normal -0.84433 -0.535824 0
    outer loop
      vertex -39.4338 -21.6789 10
      vertex -36.4058 -26.4503 0
      vertex -36.4058 -26.4503 10
    endloop
  endfacet
  facet normal -0.998027 -0.0627939 0
    outer loop
      vertex 35 0 0
      vertex 34.724 4.38666 10
      vertex 34.724 4.38666 0
    endloop
  endfacet
  facet normal -0.998027 -0.0627939 0
    outer loop
      vertex 34.724 4.38666 10
      vertex 35 0 0
      vertex 35 0 10
    endloop
  endfacet
  facet normal 0.998027 -0.0627939 0
    outer loop
      vertex -35 0 10
      vertex -34.724 4.38666 0
      vertex -34.724 4.38666 10
    endloop
  endfacet
  facet normal 0.998027 -0.0627939 0
    outer loop
      vertex -34.724 4.38666 0
      vertex -35 0 10
      vertex -35 0 0
    endloop
  endfacet
  facet normal 0 -1 0
    outer loop
      vertex -2.19767 34.9309 0
      vertex 2.19767 34.9309 10
      vertex -2.19767 34.9309 10
    endloop
  endfacet
  facet normal 0 -1 -0
    outer loop
      vertex 2.19767 34.9309 10
      vertex -2.19767 34.9309 0
      vertex 2.19767 34.9309 0
    endloop
  endfacet
  facet normal 0 1 -0
    outer loop
      vertex 2.19767 -34.9309 0
      vertex -2.19767 -34.9309 10
      vertex 2.19767 -34.9309 10
    endloop
  endfacet
  facet normal 0 1 0
    outer loop
      vertex -2.19767 -34.9309 10
      vertex 2.19767 -34.9309 0
      vertex -2.19767 -34.9309 0
    endloop
  endfacet
  facet normal -0.684553 -0.728963 0
    outer loop
      vertex 22.3098 26.968 0
      vertex 25.5139 23.9591 10
      vertex 22.3098 26.968 10
    endloop
  endfacet
  facet normal -0.684553 -0.728963 -0
    outer loop
      vertex 25.5139 23.9591 10
      vertex 22.3098 26.968 0
      vertex 25.5139 23.9591 0
    endloop
  endfacet
  facet normal 0.684553 -0.728963 0
    outer loop
      vertex -25.5139 23.9591 0
      vertex -22.3098 26.968 10
      vertex -25.5139 23.9591 10
    endloop
  endfacet
  facet normal 0.684553 -0.728963 0
    outer loop
      vertex -22.3098 26.968 10
      vertex -25.5139 23.9591 0
      vertex -22.3098 26.968 0
    endloop
  endfacet
  facet normal 0.368137 -0.929772 0
    outer loop
      vertex -14.9023 31.6689 0
      vertex -10.8156 33.287 10
      vertex -14.9023 31.6689 10
    endloop
  endfacet
  facet normal 0.368137 -0.929772 0
    outer loop
      vertex -10.8156 33.287 10
      vertex -14.9023 31.6689 0
      vertex -10.8156 33.287 0
    endloop
  endfacet
  facet normal -0.904821 -0.425792 0
    outer loop
      vertex 32.5422 12.8844 0
      vertex 30.6707 16.8614 10
      vertex 30.6707 16.8614 0
    endloop
  endfacet
  facet normal -0.904821 -0.425792 0
    outer loop
      vertex 30.6707 16.8614 10
      vertex 32.5422 12.8844 0
      vertex 32.5422 12.8844 10
    endloop
  endfacet
  facet normal -0.368137 -0.929772 0
    outer loop
      vertex 10.8156 33.287 0
      vertex 14.9023 31.6689 10
      vertex 10.8156 33.287 10
    endloop
  endfacet
  facet normal -0.368137 -0.929772 -0
    outer loop
      vertex 14.9023 31.6689 10
      vertex 10.8156 33.287 0
      vertex 14.9023 31.6689 0
    endloop
  endfacet
  facet normal -0.248695 -0.968582 0
    outer loop
      vertex 6.55835 34.3801 0
      vertex 10.8156 33.287 10
      vertex 6.55835 34.3801 10
    endloop
  endfacet
  facet normal -0.248695 -0.968582 -0
    outer loop
      vertex 10.8156 33.287 10
      vertex 6.55835 34.3801 0
      vertex 10.8156 33.287 0
    endloop
  endfacet
  facet normal -0.481748 -0.87631 0
    outer loop
      vertex 14.9023 31.6689 0
      vertex 18.7539 29.5515 10
      vertex 14.9023 31.6689 10
    endloop
  endfacet
  facet normal -0.481748 -0.87631 -0
    outer loop
      vertex 18.7539 29.5515 10
      vertex 14.9023 31.6689 0
      vertex 18.7539 29.5515 0
    endloop
  endfacet
  facet normal 0.904821 -0.425792 0
    outer loop
      vertex -32.5422 12.8844 10
      vertex -30.6707 16.8614 0
      vertex -30.6707 16.8614 10
    endloop
  endfacet
  facet normal 0.904821 -0.425792 0
    outer loop
      vertex -30.6707 16.8614 0
      vertex -32.5422 12.8844 10
      vertex -32.5422 12.8844 0
    endloop
  endfacet
  facet normal 0.125315 -0.992117 0
    outer loop
      vertex -6.55835 34.3801 0
      vertex -2.19767 34.9309 10
      vertex -6.55835 34.3801 10
    endloop
  endfacet
  facet normal 0.125315 -0.992117 0
    outer loop
      vertex -2.19767 34.9309 10
      vertex -6.55835 34.3801 0
      vertex -2.19767 34.9309 0
    endloop
  endfacet
  facet normal -0.95106 0.309008 0
    outer loop
      vertex 32.5422 -12.8844 0
      vertex 33.9004 -8.70415 10
      vertex 33.9004 -8.70415 0
    endloop
  endfacet
  facet normal -0.95106 0.309008 0
    outer loop
      vertex 33.9004 -8.70415 10
      vertex 32.5422 -12.8844 0
      vertex 32.5422 -12.8844 10
    endloop
  endfacet
  facet normal -0.125315 0.992117 0
    outer loop
      vertex 6.55835 -34.3801 0
      vertex 2.19767 -34.9309 10
      vertex 6.55835 -34.3801 10
    endloop
  endfacet
  facet normal -0.125315 0.992117 0
    outer loop
      vertex 2.19767 -34.9309 10
      vertex 6.55835 -34.3801 0
      vertex 2.19767 -34.9309 0
    endloop
  endfacet
  facet normal -0.95106 -0.309008 0
    outer loop
      vertex 33.9004 8.70415 0
      vertex 32.5422 12.8844 10
      vertex 32.5422 12.8844 0
    endloop
  endfacet
  facet normal -0.95106 -0.309008 0
    outer loop
      vertex 32.5422 12.8844 10
      vertex 33.9004 8.70415 0
      vertex 33.9004 8.70415 10
    endloop
  endfacet
  facet normal -0.982287 -0.18738 0
    outer loop
      vertex 34.724 4.38666 0
      vertex 33.9004 8.70415 10
      vertex 33.9004 8.70415 0
    endloop
  endfacet
  facet normal -0.982287 -0.18738 0
    outer loop
      vertex 33.9004 8.70415 10
      vertex 34.724 4.38666 0
      vertex 34.724 4.38666 10
    endloop
  endfacet
  facet normal -0.770506 -0.637432 0
    outer loop
      vertex 28.3156 20.5725 0
      vertex 25.5139 23.9591 10
      vertex 25.5139 23.9591 0
    endloop
  endfacet
  facet normal -0.770506 -0.637432 0
    outer loop
      vertex 25.5139 23.9591 10
      vertex 28.3156 20.5725 0
      vertex 28.3156 20.5725 10
    endloop
  endfacet
  facet normal -0.844332 -0.535821 0
    outer loop
      vertex 30.6707 16.8614 0
      vertex 28.3156 20.5725 10
      vertex 28.3156 20.5725 0
    endloop
  endfacet
  facet normal -0.844332 -0.535821 0
    outer loop
      vertex 28.3156 20.5725 10
      vertex 30.6707 16.8614 0
      vertex 30.6707 16.8614 10
    endloop
  endfacet
  facet normal -0.125315 -0.992117 0
    outer loop
      vertex 2.19767 34.9309 0
      vertex 6.55835 34.3801 10
      vertex 2.19767 34.9309 10
    endloop
  endfacet
  facet normal -0.125315 -0.992117 -0
    outer loop
      vertex 6.55835 34.3801 10
      vertex 2.19767 34.9309 0
      vertex 6.55835 34.3801 0
    endloop
  endfacet
  facet normal -0.587783 -0.809018 0
    outer loop
      vertex 18.7539 29.5515 0
      vertex 22.3098 26.968 10
      vertex 18.7539 29.5515 10
    endloop
  endfacet
  facet normal -0.587783 -0.809018 -0
    outer loop
      vertex 22.3098 26.968 10
      vertex 18.7539 29.5515 0
      vertex 22.3098 26.968 0
    endloop
  endfacet
  facet normal 0.844332 -0.535821 0
    outer loop
      vertex -30.6707 16.8614 10
      vertex -28.3156 20.5725 0
      vertex -28.3156 20.5725 10
    endloop
  endfacet
  facet normal 0.844332 -0.535821 0
    outer loop
      vertex -28.3156 20.5725 0
      vertex -30.6707 16.8614 10
      vertex -30.6707 16.8614 0
    endloop
  endfacet
  facet normal 0.770506 -0.637432 0
    outer loop
      vertex -28.3156 20.5725 10
      vertex -25.5139 23.9591 0
      vertex -25.5139 23.9591 10
    endloop
  endfacet
  facet normal 0.770506 -0.637432 0
    outer loop
      vertex -25.5139 23.9591 0
      vertex -28.3156 20.5725 10
      vertex -28.3156 20.5725 0
    endloop
  endfacet
  facet normal 0.95106 -0.309008 0
    outer loop
      vertex -33.9004 8.70415 10
      vertex -32.5422 12.8844 0
      vertex -32.5422 12.8844 10
    endloop
  endfacet
  facet normal 0.95106 -0.309008 0
    outer loop
      vertex -32.5422 12.8844 0
      vertex -33.9004 8.70415 10
      vertex -33.9004 8.70415 0
    endloop
  endfacet
  facet normal 0.982287 -0.18738 0
    outer loop
      vertex -34.724 4.38666 10
      vertex -33.9004 8.70415 0
      vertex -33.9004 8.70415 10
    endloop
  endfacet
  facet normal 0.982287 -0.18738 0
    outer loop
      vertex -33.9004 8.70415 0
      vertex -34.724 4.38666 10
      vertex -34.724 4.38666 0
    endloop
  endfacet
  facet normal 0.481748 -0.87631 0
    outer loop
      vertex -18.7539 29.5515 0
      vertex -14.9023 31.6689 10
      vertex -18.7539 29.5515 10
    endloop
  endfacet
  facet normal 0.481748 -0.87631 0
    outer loop
      vertex -14.9023 31.6689 10
      vertex -18.7539 29.5515 0
      vertex -14.9023 31.6689 0
    endloop
  endfacet
  facet normal 0.587783 -0.809018 0
    outer loop
      vertex -22.3098 26.968 0
      vertex -18.7539 29.5515 10
      vertex -22.3098 26.968 10
    endloop
  endfacet
  facet normal 0.587783 -0.809018 0
    outer loop
      vertex -18.7539 29.5515 10
      vertex -22.3098 26.968 0
      vertex -18.7539 29.5515 0
    endloop
  endfacet
  facet normal 0.248695 -0.968582 0
    outer loop
      vertex -10.8156 33.287 0
      vertex -6.55835 34.3801 10
      vertex -10.8156 33.287 10
    endloop
  endfacet
  facet normal 0.248695 -0.968582 0
    outer loop
      vertex -6.55835 34.3801 10
      vertex -10.8156 33.287 0
      vertex -6.55835 34.3801 0
    endloop
  endfacet
  facet normal -0.904821 0.425792 0
    outer loop
      vertex 30.6707 -16.8614 0
      vertex 32.5422 -12.8844 10
      vertex 32.5422 -12.8844 0
    endloop
  endfacet
  facet normal -0.904821 0.425792 0
    outer loop
      vertex 32.5422 -12.8844 10
      vertex 30.6707 -16.8614 0
      vertex 30.6707 -16.8614 10
    endloop
  endfacet
  facet normal 0.684553 0.728963 -0
    outer loop
      vertex -22.3098 -26.968 0
      vertex -25.5139 -23.9591 10
      vertex -22.3098 -26.968 10
    endloop
  endfacet
  facet normal 0.684553 0.728963 0
    outer loop
      vertex -25.5139 -23.9591 10
      vertex -22.3098 -26.968 0
      vertex -25.5139 -23.9591 0
    endloop
  endfacet
  facet normal 0.904821 0.425792 0
    outer loop
      vertex -30.6707 -16.8614 10
      vertex -32.5422 -12.8844 0
      vertex -32.5422 -12.8844 10
    endloop
  endfacet
  facet normal 0.904821 0.425792 0
    outer loop
      vertex -32.5422 -12.8844 0
      vertex -30.6707 -16.8614 10
      vertex -30.6707 -16.8614 0
    endloop
  endfacet
  facet normal 0.844332 0.535821 0
    outer loop
      vertex -28.3156 -20.5725 10
      vertex -30.6707 -16.8614 0
      vertex -30.6707 -16.8614 10
    endloop
  endfacet
  facet normal 0.844332 0.535821 0
    outer loop
      vertex -30.6707 -16.8614 0
      vertex -28.3156 -20.5725 10
      vertex -28.3156 -20.5725 0
    endloop
  endfacet
  facet normal 0.998027 0.0627939 0
    outer loop
      vertex -34.724 -4.38666 10
      vertex -35 0 0
      vertex -35 0 10
    endloop
  endfacet
  facet normal 0.998027 0.0627939 0
    outer loop
      vertex -35 0 0
      vertex -34.724 -4.38666 10
      vertex -34.724 -4.38666 0
    endloop
  endfacet
  facet normal -0.481748 0.87631 0
    outer loop
      vertex 18.7539 -29.5515 0
      vertex 14.9023 -31.6689 10
      vertex 18.7539 -29.5515 10
    endloop
  endfacet
  facet normal -0.481748 0.87631 0
    outer loop
      vertex 14.9023 -31.6689 10
      vertex 18.7539 -29.5515 0
      vertex 14.9023 -31.6689 0
    endloop
  endfacet
  facet normal -0.770506 0.637432 0
    outer loop
      vertex 25.5139 -23.9591 0
      vertex 28.3156 -20.5725 10
      vertex 28.3156 -20.5725 0
    endloop
  endfacet
  facet normal -0.770506 0.637432 0
    outer loop
      vertex 28.3156 -20.5725 10
      vertex 25.5139 -23.9591 0
      vertex 25.5139 -23.9591 10
    endloop
  endfacet
  facet normal -0.982287 0.18738 0
    outer loop
      vertex 33.9004 -8.70415 0
      vertex 34.724 -4.38666 10
      vertex 34.724 -4.38666 0
    endloop
  endfacet
  facet normal -0.982287 0.18738 0
    outer loop
      vertex 34.724 -4.38666 10
      vertex 33.9004 -8.70415 0
      vertex 33.9004 -8.70415 10
    endloop
  endfacet
  facet normal -0.998027 0.0627939 0
    outer loop
      vertex 34.724 -4.38666 0
      vertex 35 0 10
      vertex 35 0 0
    endloop
  endfacet
  facet normal -0.998027 0.0627939 0
    outer loop
      vertex 35 0 10
      vertex 34.724 -4.38666 0
      vertex 34.724 -4.38666 10
    endloop
  endfacet
  facet normal 0.770506 0.637432 0
    outer loop
      vertex -25.5139 -23.9591 10
      vertex -28.3156 -20.5725 0
      vertex -28.3156 -20.5725 10
    endloop
  endfacet
  facet normal 0.770506 0.637432 0
    outer loop
      vertex -28.3156 -20.5725 0
      vertex -25.5139 -23.9591 10
      vertex -25.5139 -23.9591 0
    endloop
  endfacet
  facet normal 0.982287 0.18738 0
    outer loop
      vertex -33.9004 -8.70415 10
      vertex -34.724 -4.38666 0
      vertex -34.724 -4.38666 10
    endloop
  endfacet
  facet normal 0.982287 0.18738 0
    outer loop
      vertex -34.724 -4.38666 0
      vertex -33.9004 -8.70415 10
      vertex -33.9004 -8.70415 0
    endloop
  endfacet
  facet normal 0.95106 0.309008 0
    outer loop
      vertex -32.5422 -12.8844 10
      vertex -33.9004 -8.70415 0
      vertex -33.9004 -8.70415 10
    endloop
  endfacet
  facet normal 0.95106 0.309008 0
    outer loop
      vertex -33.9004 -8.70415 0
      vertex -32.5422 -12.8844 10
      vertex -32.5422 -12.8844 0
    endloop
  endfacet
  facet normal -0.684553 0.728963 0
    outer loop
      vertex 25.5139 -23.9591 0
      vertex 22.3098 -26.968 10
      vertex 25.5139 -23.9591 10
    endloop
  endfacet
  facet normal -0.684553 0.728963 0
    outer loop
      vertex 22.3098 -26.968 10
      vertex 25.5139 -23.9591 0
      vertex 22.3098 -26.968 0
    endloop
  endfacet
  facet normal -0.368137 0.929772 0
    outer loop
      vertex 14.9023 -31.6689 0
      vertex 10.8156 -33.287 10
      vertex 14.9023 -31.6689 10
    endloop
  endfacet
  facet normal -0.368137 0.929772 0
    outer loop
      vertex 10.8156 -33.287 10
      vertex 14.9023 -31.6689 0
      vertex 10.8156 -33.287 0
    endloop
  endfacet
  facet normal -0.248695 0.968582 0
    outer loop
      vertex 10.8156 -33.287 0
      vertex 6.55835 -34.3801 10
      vertex 10.8156 -33.287 10
    endloop
  endfacet
  facet normal -0.248695 0.968582 0
    outer loop
      vertex 6.55835 -34.3801 10
      vertex 10.8156 -33.287 0
      vertex 6.55835 -34.3801 0
    endloop
  endfacet
  facet normal -0.844332 0.535821 0
    outer loop
      vertex 28.3156 -20.5725 0
      vertex 30.6707 -16.8614 10
      vertex 30.6707 -16.8614 0
    endloop
  endfacet
  facet normal -0.844332 0.535821 0
    outer loop
      vertex 30.6707 -16.8614 10
      vertex 28.3156 -20.5725 0
      vertex 28.3156 -20.5725 10
    endloop
  endfacet
  facet normal 0.248695 0.968582 -0
    outer loop
      vertex -6.55835 -34.3801 0
      vertex -10.8156 -33.287 10
      vertex -6.55835 -34.3801 10
    endloop
  endfacet
  facet normal 0.248695 0.968582 0
    outer loop
      vertex -10.8156 -33.287 10
      vertex -6.55835 -34.3801 0
      vertex -10.8156 -33.287 0
    endloop
  endfacet
  facet normal -0.587783 0.809018 0
    outer loop
      vertex 22.3098 -26.968 0
      vertex 18.7539 -29.5515 10
      vertex 22.3098 -26.968 10
    endloop
  endfacet
  facet normal -0.587783 0.809018 0
    outer loop
      vertex 18.7539 -29.5515 10
      vertex 22.3098 -26.968 0
      vertex 18.7539 -29.5515 0
    endloop
  endfacet
  facet normal 0.125315 0.992117 -0
    outer loop
      vertex -2.19767 -34.9309 0
      vertex -6.55835 -34.3801 10
      vertex -2.19767 -34.9309 10
    endloop
  endfacet
  facet normal 0.125315 0.992117 0
    outer loop
      vertex -6.55835 -34.3801 10
      vertex -2.19767 -34.9309 0
      vertex -6.55835 -34.3801 0
    endloop
  endfacet
  facet normal 0.587783 0.809018 -0
    outer loop
      vertex -18.7539 -29.5515 0
      vertex -22.3098 -26.968 10
      vertex -18.7539 -29.5515 10
    endloop
  endfacet
  facet normal 0.587783 0.809018 0
    outer loop
      vertex -22.3098 -26.968 10
      vertex -18.7539 -29.5515 0
      vertex -22.3098 -26.968 0
    endloop
  endfacet
  facet normal 0.368137 0.929772 -0
    outer loop
      vertex -10.8156 -33.287 0
      vertex -14.9023 -31.6689 10
      vertex -10.8156 -33.287 10
    endloop
  endfacet
  facet normal 0.368137 0.929772 0
    outer loop
      vertex -14.9023 -31.6689 10
      vertex -10.8156 -33.287 0
      vertex -14.9023 -31.6689 0
    endloop
  endfacet
  facet normal 0.481748 0.87631 -0
    outer loop
      vertex -14.9023 -31.6689 0
      vertex -18.7539 -29.5515 10
      vertex -14.9023 -31.6689 10
    endloop
  endfacet
  facet normal 0.481748 0.87631 0
    outer loop
      vertex -18.7539 -29.5515 10
      vertex -14.9023 -31.6689 0
      vertex -18.7539 -29.5515 0
    endloop
  endfacet
endsolid OpenSCAD_Model
