<?xml version="1.0" standalone="no"?>
<!DOCTYPE svg PUBLIC "-//W3C//DTD SVG 1.1//EN" "http://www.w3.org/Graphics/SVG/1.1/DTD/svg11.dtd">
<svg width="30mm" height="448mm" viewBox="-15 -737 30 448" xmlns="http://www.w3.org/2000/svg" version="1.1">
<title>OpenSCAD Model</title>
<path d="
M 10.9369,-631.589 L 11.5451,-631.745 L 12.1289,-631.976 L 12.6791,-632.278 L 13.1871,-632.647 L 13.6448,-633.077
 L 14.0451,-633.561 L 14.3815,-634.091 L 14.6489,-634.659 L 14.8429,-635.257 L 14.9606,-635.873 L 15,-636.5
 L 15,-731.5 L 14.9606,-732.127 L 14.8429,-732.743 L 14.6489,-733.341 L 14.3815,-733.909 L 14.0451,-734.439
 L 13.6448,-734.923 L 13.1871,-735.353 L 12.6791,-735.722 L 12.1289,-736.024 L 11.5451,-736.255 L 10.9369,-736.411
 L 10.3139,-736.49 L -10.3139,-736.49 L -10.9369,-736.411 L -11.5451,-736.255 L -12.1289,-736.024 L -12.6791,-735.722
 L -13.1871,-735.353 L -13.6448,-734.923 L -14.0451,-734.439 L -14.3815,-733.909 L -14.6489,-733.341 L -14.8429,-732.743
 L -14.9606,-732.127 L -15,-731.5 L -15,-636.5 L -14.9606,-635.873 L -14.8429,-635.257 L -14.6489,-634.659
 L -14.3815,-634.091 L -14.0451,-633.561 L -13.6448,-633.077 L -13.1871,-632.647 L -12.6791,-632.278 L -12.1289,-631.976
 L -11.5451,-631.745 L -10.9369,-631.589 L -10.3139,-631.51 L 10.3139,-631.51 z
M -9.75116,-633.008 L -10.2495,-633.071 L -10.7361,-633.196 L -11.2031,-633.381 L -11.6433,-633.623 L -12.0497,-633.918
 L -12.4159,-634.262 L -12.7361,-634.649 L -13.0052,-635.073 L -13.2191,-635.528 L -13.3743,-636.005 L -13.4684,-636.499
 L -13.5,-637 L -13.5,-731 L -13.4684,-731.501 L -13.3743,-731.995 L -13.2191,-732.472 L -13.0052,-732.927
 L -12.7361,-733.351 L -12.4159,-733.738 L -12.0497,-734.082 L -11.6433,-734.377 L -11.2031,-734.619 L -10.7361,-734.804
 L -10.2495,-734.929 L -9.75116,-734.992 L 9.75116,-734.992 L 10.2495,-734.929 L 10.7361,-734.804 L 11.2031,-734.619
 L 11.6433,-734.377 L 12.0497,-734.082 L 12.4159,-733.738 L 12.7361,-733.351 L 13.0052,-732.927 L 13.2191,-732.472
 L 13.3743,-731.995 L 13.4684,-731.501 L 13.5,-731 L 13.5,-637 L 13.4684,-636.499 L 13.3743,-636.005
 L 13.2191,-635.528 L 13.0052,-635.073 L 12.7361,-634.649 L 12.4159,-634.262 L 12.0497,-633.918 L 11.6433,-633.623
 L 11.2031,-633.381 L 10.7361,-633.196 L 10.2495,-633.071 L 9.75116,-633.008 z
M 10.9369,-517.589 L 11.5451,-517.745 L 12.1289,-517.976 L 12.6791,-518.278 L 13.1871,-518.647 L 13.6448,-519.077
 L 14.0451,-519.561 L 14.3815,-520.091 L 14.6489,-520.659 L 14.8429,-521.257 L 14.9606,-521.873 L 15,-522.5
 L 15,-617.5 L 14.9606,-618.127 L 14.8429,-618.743 L 14.6489,-619.341 L 14.3815,-619.909 L 14.0451,-620.439
 L 13.6448,-620.923 L 13.1871,-621.353 L 12.6791,-621.722 L 12.1289,-622.024 L 11.5451,-622.255 L 10.9369,-622.411
 L 10.3139,-622.49 L -10.3139,-622.49 L -10.9369,-622.411 L -11.5451,-622.255 L -12.1289,-622.024 L -12.6791,-621.722
 L -13.1871,-621.353 L -13.6448,-620.923 L -14.0451,-620.439 L -14.3815,-619.909 L -14.6489,-619.341 L -14.8429,-618.743
 L -14.9606,-618.127 L -15,-617.5 L -15,-522.5 L -14.9606,-521.873 L -14.8429,-521.257 L -14.6489,-520.659
 L -14.3815,-520.091 L -14.0451,-519.561 L -13.6448,-519.077 L -13.1871,-518.647 L -12.6791,-518.278 L -12.1289,-517.976
 L -11.5451,-517.745 L -10.9369,-517.589 L -10.3139,-517.51 L 10.3139,-517.51 z
M -9.74316,-519.135 L -10.2256,-519.196 L -10.6967,-519.317 L -11.1489,-519.496 L -11.5751,-519.73 L -11.9685,-520.016
 L -12.323,-520.349 L -12.633,-520.724 L -12.8936,-521.134 L -13.1007,-521.574 L -13.251,-522.037 L -13.3421,-522.515
 L -13.3726,-523 L -13.3726,-617 L -13.3421,-617.485 L -13.251,-617.963 L -13.1007,-618.426 L -12.8936,-618.866
 L -12.633,-619.276 L -12.323,-619.651 L -11.9685,-619.984 L -11.5751,-620.27 L -11.1489,-620.504 L -10.6967,-620.683
 L -10.2256,-620.804 L -9.74316,-620.865 L 9.74316,-620.865 L 10.2256,-620.804 L 10.6967,-620.683 L 11.1489,-620.504
 L 11.5751,-620.27 L 11.9685,-619.984 L 12.323,-619.651 L 12.633,-619.276 L 12.8936,-618.866 L 13.1007,-618.426
 L 13.251,-617.963 L 13.3421,-617.485 L 13.3726,-617 L 13.3726,-523 L 13.3421,-522.515 L 13.251,-522.037
 L 13.1007,-521.574 L 12.8936,-521.134 L 12.633,-520.724 L 12.323,-520.349 L 11.9685,-520.016 L 11.5751,-519.73
 L 11.1489,-519.496 L 10.6967,-519.317 L 10.2256,-519.196 L 9.74316,-519.135 z
M 10.9369,-403.589 L 11.5451,-403.745 L 12.1289,-403.976 L 12.6791,-404.278 L 13.1871,-404.647 L 13.6448,-405.077
 L 14.0451,-405.561 L 14.3815,-406.091 L 14.6489,-406.659 L 14.8429,-407.257 L 14.9606,-407.873 L 15,-408.5
 L 15,-503.5 L 14.9606,-504.127 L 14.8429,-504.743 L 14.6489,-505.341 L 14.3815,-505.909 L 14.0451,-506.439
 L 13.6448,-506.923 L 13.1871,-507.353 L 12.6791,-507.722 L 12.1289,-508.024 L 11.5451,-508.255 L 10.9369,-508.411
 L 10.3139,-508.49 L -10.3139,-508.49 L -10.9369,-508.411 L -11.5451,-508.255 L -12.1289,-508.024 L -12.6791,-507.722
 L -13.1871,-507.353 L -13.6448,-506.923 L -14.0451,-506.439 L -14.3815,-505.909 L -14.6489,-505.341 L -14.8429,-504.743
 L -14.9606,-504.127 L -15,-503.5 L -15,-408.5 L -14.9606,-407.873 L -14.8429,-407.257 L -14.6489,-406.659
 L -14.3815,-406.091 L -14.0451,-405.561 L -13.6448,-405.077 L -13.1871,-404.647 L -12.6791,-404.278 L -12.1289,-403.976
 L -11.5451,-403.745 L -10.9369,-403.589 L -10.3139,-403.51 L 10.3139,-403.51 z
M 7.34929,-498.605 L 7.05028,-498.643 L 6.75835,-498.717 L 6.47812,-498.828 L 6.214,-498.974 L 5.97017,-499.151
 L 5.75047,-499.357 L 5.55835,-499.589 L 5.39685,-499.844 L 5.26852,-500.117 L 5.1754,-500.403 L 5.11891,-500.699
 L 5.09999,-501 L 5.11891,-501.301 L 5.1754,-501.597 L 5.26852,-501.883 L 5.39685,-502.156 L 5.55835,-502.411
 L 5.75047,-502.643 L 5.97017,-502.849 L 6.214,-503.026 L 6.47812,-503.172 L 6.75835,-503.283 L 7.05028,-503.357
 L 7.34929,-503.395 L 7.6507,-503.395 L 7.94971,-503.357 L 8.24164,-503.283 L 8.52187,-503.172 L 8.78598,-503.026
 L 9.02982,-502.849 L 9.24951,-502.643 L 9.44164,-502.411 L 9.60313,-502.156 L 9.73146,-501.883 L 9.82458,-501.597
 L 9.88107,-501.301 L 9.89999,-501 L 9.88107,-500.699 L 9.82458,-500.403 L 9.73146,-500.117 L 9.60313,-499.844
 L 9.44164,-499.589 L 9.24951,-499.357 L 9.02982,-499.151 L 8.78598,-498.974 L 8.52187,-498.828 L 8.24164,-498.717
 L 7.94971,-498.643 L 7.6507,-498.605 z
M -7.6507,-498.605 L -7.94971,-498.643 L -8.24164,-498.717 L -8.52187,-498.828 L -8.78598,-498.974 L -9.02982,-499.151
 L -9.24951,-499.357 L -9.44164,-499.589 L -9.60313,-499.844 L -9.73146,-500.117 L -9.82458,-500.403 L -9.88107,-500.699
 L -9.89999,-501 L -9.88107,-501.301 L -9.82458,-501.597 L -9.73146,-501.883 L -9.60313,-502.156 L -9.44164,-502.411
 L -9.24951,-502.643 L -9.02982,-502.849 L -8.78598,-503.026 L -8.52187,-503.172 L -8.24164,-503.283 L -7.94971,-503.357
 L -7.6507,-503.395 L -7.34929,-503.395 L -7.05028,-503.357 L -6.75835,-503.283 L -6.47812,-503.172 L -6.214,-503.026
 L -5.97017,-502.849 L -5.75047,-502.643 L -5.55835,-502.411 L -5.39685,-502.156 L -5.26852,-501.883 L -5.1754,-501.597
 L -5.11891,-501.301 L -5.09999,-501 L -5.11891,-500.699 L -5.1754,-500.403 L -5.26852,-500.117 L -5.39685,-499.844
 L -5.55835,-499.589 L -5.75047,-499.357 L -5.97017,-499.151 L -6.214,-498.974 L -6.47812,-498.828 L -6.75835,-498.717
 L -7.05028,-498.643 L -7.34929,-498.605 z
M 7.34929,-408.605 L 7.05028,-408.643 L 6.75835,-408.717 L 6.47812,-408.828 L 6.214,-408.974 L 5.97017,-409.151
 L 5.75047,-409.357 L 5.55835,-409.589 L 5.39685,-409.844 L 5.26852,-410.117 L 5.1754,-410.403 L 5.11891,-410.699
 L 5.09999,-411 L 5.11891,-411.301 L 5.1754,-411.597 L 5.26852,-411.883 L 5.39685,-412.156 L 5.55835,-412.411
 L 5.75047,-412.643 L 5.97017,-412.849 L 6.214,-413.026 L 6.47812,-413.172 L 6.75835,-413.283 L 7.05028,-413.357
 L 7.34929,-413.395 L 7.6507,-413.395 L 7.94971,-413.357 L 8.24164,-413.283 L 8.52187,-413.172 L 8.78598,-413.026
 L 9.02982,-412.849 L 9.24951,-412.643 L 9.44164,-412.411 L 9.60313,-412.156 L 9.73146,-411.883 L 9.82458,-411.597
 L 9.88107,-411.301 L 9.89999,-411 L 9.88107,-410.699 L 9.82458,-410.403 L 9.73146,-410.117 L 9.60313,-409.844
 L 9.44164,-409.589 L 9.24951,-409.357 L 9.02982,-409.151 L 8.78598,-408.974 L 8.52187,-408.828 L 8.24164,-408.717
 L 7.94971,-408.643 L 7.6507,-408.605 z
M -7.6507,-408.605 L -7.94971,-408.643 L -8.24164,-408.717 L -8.52187,-408.828 L -8.78598,-408.974 L -9.02982,-409.151
 L -9.24951,-409.357 L -9.44164,-409.589 L -9.60313,-409.844 L -9.73146,-410.117 L -9.82458,-410.403 L -9.88107,-410.699
 L -9.89999,-411 L -9.88107,-411.301 L -9.82458,-411.597 L -9.73146,-411.883 L -9.60313,-412.156 L -9.44164,-412.411
 L -9.24951,-412.643 L -9.02982,-412.849 L -8.78598,-413.026 L -8.52187,-413.172 L -8.24164,-413.283 L -7.94971,-413.357
 L -7.6507,-413.395 L -7.34929,-413.395 L -7.05028,-413.357 L -6.75835,-413.283 L -6.47812,-413.172 L -6.214,-413.026
 L -5.97017,-412.849 L -5.75047,-412.643 L -5.55835,-412.411 L -5.39685,-412.156 L -5.26852,-411.883 L -5.1754,-411.597
 L -5.11891,-411.301 L -5.09999,-411 L -5.11891,-410.699 L -5.1754,-410.403 L -5.26852,-410.117 L -5.39685,-409.844
 L -5.55835,-409.589 L -5.75047,-409.357 L -5.97017,-409.151 L -6.214,-408.974 L -6.47812,-408.828 L -6.75835,-408.717
 L -7.05028,-408.643 L -7.34929,-408.605 z
M 10.9369,-289.589 L 11.5451,-289.745 L 12.1289,-289.976 L 12.6791,-290.278 L 13.1871,-290.647 L 13.6448,-291.077
 L 14.0451,-291.561 L 14.3815,-292.091 L 14.6489,-292.659 L 14.8429,-293.257 L 14.9606,-293.873 L 15,-294.5
 L 15,-389.5 L 14.9606,-390.127 L 14.8429,-390.743 L 14.6489,-391.341 L 14.3815,-391.909 L 14.0451,-392.439
 L 13.6448,-392.923 L 13.1871,-393.353 L 12.6791,-393.722 L 12.1289,-394.024 L 11.5451,-394.255 L 10.9369,-394.411
 L 10.3139,-394.49 L -10.3139,-394.49 L -10.9369,-394.411 L -11.5451,-394.255 L -12.1289,-394.024 L -12.6791,-393.722
 L -13.1871,-393.353 L -13.6448,-392.923 L -14.0451,-392.439 L -14.3815,-391.909 L -14.6489,-391.341 L -14.8429,-390.743
 L -14.9606,-390.127 L -15,-389.5 L -15,-294.5 L -14.9606,-293.873 L -14.8429,-293.257 L -14.6489,-292.659
 L -14.3815,-292.091 L -14.0451,-291.561 L -13.6448,-291.077 L -13.1871,-290.647 L -12.6791,-290.278 L -12.1289,-289.976
 L -11.5451,-289.745 L -10.9369,-289.589 L -10.3139,-289.51 L 10.3139,-289.51 z
M 7.38696,-385.204 L 7.1627,-385.232 L 6.94376,-385.288 L 6.7336,-385.371 L 6.53551,-385.48 L 6.35263,-385.613
 L 6.18785,-385.768 L 6.04376,-385.942 L 5.92264,-386.133 L 5.8264,-386.337 L 5.75655,-386.552 L 5.71419,-386.774
 L 5.7,-387 L 5.71419,-387.226 L 5.75655,-387.448 L 5.8264,-387.663 L 5.92264,-387.867 L 6.04376,-388.058
 L 6.18785,-388.232 L 6.35263,-388.387 L 6.53551,-388.52 L 6.7336,-388.629 L 6.94376,-388.712 L 7.1627,-388.768
 L 7.38696,-388.796 L 7.61302,-388.796 L 7.83728,-388.768 L 8.05623,-388.712 L 8.26639,-388.629 L 8.46448,-388.52
 L 8.64735,-388.387 L 8.81213,-388.232 L 8.95622,-388.058 L 9.07735,-387.867 L 9.17358,-387.663 L 9.24344,-387.448
 L 9.2858,-387.226 L 9.29999,-387 L 9.2858,-386.774 L 9.24344,-386.552 L 9.17358,-386.337 L 9.07735,-386.133
 L 8.95622,-385.942 L 8.81213,-385.768 L 8.64735,-385.613 L 8.46448,-385.48 L 8.26639,-385.371 L 8.05623,-385.288
 L 7.83728,-385.232 L 7.61302,-385.204 z
M -7.61302,-385.204 L -7.83728,-385.232 L -8.05623,-385.288 L -8.26639,-385.371 L -8.46448,-385.48 L -8.64735,-385.613
 L -8.81213,-385.768 L -8.95622,-385.942 L -9.07735,-386.133 L -9.17358,-386.337 L -9.24344,-386.552 L -9.2858,-386.774
 L -9.29999,-387 L -9.2858,-387.226 L -9.24344,-387.448 L -9.17358,-387.663 L -9.07735,-387.867 L -8.95622,-388.058
 L -8.81213,-388.232 L -8.64735,-388.387 L -8.46448,-388.52 L -8.26639,-388.629 L -8.05623,-388.712 L -7.83728,-388.768
 L -7.61302,-388.796 L -7.38696,-388.796 L -7.1627,-388.768 L -6.94376,-388.712 L -6.7336,-388.629 L -6.53551,-388.52
 L -6.35263,-388.387 L -6.18785,-388.232 L -6.04376,-388.058 L -5.92264,-387.867 L -5.8264,-387.663 L -5.75655,-387.448
 L -5.71419,-387.226 L -5.7,-387 L -5.71419,-386.774 L -5.75655,-386.552 L -5.8264,-386.337 L -5.92264,-386.133
 L -6.04376,-385.942 L -6.18785,-385.768 L -6.35263,-385.613 L -6.53551,-385.48 L -6.7336,-385.371 L -6.94376,-385.288
 L -7.1627,-385.232 L -7.38696,-385.204 z
M -7.61302,-295.204 L -7.83728,-295.232 L -8.05623,-295.288 L -8.26639,-295.371 L -8.46448,-295.48 L -8.64735,-295.613
 L -8.81213,-295.768 L -8.95622,-295.942 L -9.07735,-296.133 L -9.17358,-296.337 L -9.24344,-296.552 L -9.2858,-296.774
 L -9.29999,-297 L -9.2858,-297.226 L -9.24344,-297.448 L -9.17358,-297.663 L -9.07735,-297.867 L -8.95622,-298.058
 L -8.81213,-298.232 L -8.64735,-298.387 L -8.46448,-298.52 L -8.26639,-298.629 L -8.05623,-298.712 L -7.83728,-298.768
 L -7.61302,-298.796 L -7.38696,-298.796 L -7.1627,-298.768 L -6.94376,-298.712 L -6.7336,-298.629 L -6.53551,-298.52
 L -6.35263,-298.387 L -6.18785,-298.232 L -6.04376,-298.058 L -5.92264,-297.867 L -5.8264,-297.663 L -5.75655,-297.448
 L -5.71419,-297.226 L -5.7,-297 L -5.71419,-296.774 L -5.75655,-296.552 L -5.8264,-296.337 L -5.92264,-296.133
 L -6.04376,-295.942 L -6.18785,-295.768 L -6.35263,-295.613 L -6.53551,-295.48 L -6.7336,-295.371 L -6.94376,-295.288
 L -7.1627,-295.232 L -7.38696,-295.204 z
M 7.38696,-295.204 L 7.1627,-295.232 L 6.94376,-295.288 L 6.7336,-295.371 L 6.53551,-295.48 L 6.35263,-295.613
 L 6.18785,-295.768 L 6.04376,-295.942 L 5.92264,-296.133 L 5.8264,-296.337 L 5.75655,-296.552 L 5.71419,-296.774
 L 5.7,-297 L 5.71419,-297.226 L 5.75655,-297.448 L 5.8264,-297.663 L 5.92264,-297.867 L 6.04376,-298.058
 L 6.18785,-298.232 L 6.35263,-298.387 L 6.53551,-298.52 L 6.7336,-298.629 L 6.94376,-298.712 L 7.1627,-298.768
 L 7.38696,-298.796 L 7.61302,-298.796 L 7.83728,-298.768 L 8.05623,-298.712 L 8.26639,-298.629 L 8.46448,-298.52
 L 8.64735,-298.387 L 8.81213,-298.232 L 8.95622,-298.058 L 9.07735,-297.867 L 9.17358,-297.663 L 9.24344,-297.448
 L 9.2858,-297.226 L 9.29999,-297 L 9.2858,-296.774 L 9.24344,-296.552 L 9.17358,-296.337 L 9.07735,-296.133
 L 8.95622,-295.942 L 8.81213,-295.768 L 8.64735,-295.613 L 8.46448,-295.48 L 8.26639,-295.371 L 8.05623,-295.288
 L 7.83728,-295.232 L 7.61302,-295.204 z
" stroke="black" fill="lightgray" stroke-width="0.5"/>
</svg>
