solid OpenSCAD_Model
  facet normal 0.998027 0.0627858 0
    outer loop
      vertex 42.5 0 10
      vertex 42.1649 5.32666 0
      vertex 42.1649 5.32666 10
    endloop
  endfacet
  facet normal 0.998027 0.0627858 0
    outer loop
      vertex 42.1649 5.32666 0
      vertex 42.5 0 10
      vertex 42.5 0 0
    endloop
  endfacet
  facet normal -0.998027 0.0627858 0
    outer loop
      vertex -42.5 0 0
      vertex -42.1649 5.32666 10
      vertex -42.1649 5.32666 0
    endloop
  endfacet
  facet normal -0.998027 0.0627858 0
    outer loop
      vertex -42.1649 5.32666 10
      vertex -42.5 0 0
      vertex -42.5 0 10
    endloop
  endfacet
  facet normal 0 1 -0
    outer loop
      vertex 2.6686 42.4161 0
      vertex -2.6686 42.4161 10
      vertex 2.6686 42.4161 10
    endloop
  endfacet
  facet normal 0 1 0
    outer loop
      vertex -2.6686 42.4161 10
      vertex 2.6686 42.4161 0
      vertex -2.6686 42.4161 0
    endloop
  endfacet
  facet normal 0 -1 0
    outer loop
      vertex -2.6686 -42.4161 0
      vertex 2.6686 -42.4161 10
      vertex -2.6686 -42.4161 10
    endloop
  endfacet
  facet normal 0 -1 -0
    outer loop
      vertex 2.6686 -42.4161 10
      vertex -2.6686 -42.4161 0
      vertex 2.6686 -42.4161 0
    endloop
  endfacet
  facet normal 0.684536 0.728979 -0
    outer loop
      vertex 30.9812 29.0933 0
      vertex 27.0905 32.7468 10
      vertex 30.9812 29.0933 10
    endloop
  endfacet
  facet normal 0.684536 0.728979 0
    outer loop
      vertex 27.0905 32.7468 10
      vertex 30.9812 29.0933 0
      vertex 27.0905 32.7468 0
    endloop
  endfacet
  facet normal -0.684536 0.728979 0
    outer loop
      vertex -27.0905 32.7468 0
      vertex -30.9812 29.0933 10
      vertex -27.0905 32.7468 10
    endloop
  endfacet
  facet normal -0.684536 0.728979 0
    outer loop
      vertex -30.9812 29.0933 10
      vertex -27.0905 32.7468 0
      vertex -30.9812 29.0933 0
    endloop
  endfacet
  facet normal -0.368116 0.92978 0
    outer loop
      vertex -13.1332 40.4199 0
      vertex -18.0956 38.4552 10
      vertex -13.1332 40.4199 10
    endloop
  endfacet
  facet normal -0.368116 0.92978 0
    outer loop
      vertex -18.0956 38.4552 10
      vertex -13.1332 40.4199 0
      vertex -18.0956 38.4552 0
    endloop
  endfacet
  facet normal 0.904823 -0.425787 0
    outer loop
      vertex 37.243 -20.4745 10
      vertex 39.5155 -15.6453 0
      vertex 39.5155 -15.6453 10
    endloop
  endfacet
  facet normal 0.904823 -0.425787 0
    outer loop
      vertex 39.5155 -15.6453 0
      vertex 37.243 -20.4745 10
      vertex 37.243 -20.4745 0
    endloop
  endfacet
  facet normal 0.904823 0.425787 0
    outer loop
      vertex 39.5155 15.6453 10
      vertex 37.243 20.4745 0
      vertex 37.243 20.4745 10
    endloop
  endfacet
  facet normal 0.904823 0.425787 0
    outer loop
      vertex 37.243 20.4745 0
      vertex 39.5155 15.6453 10
      vertex 39.5155 15.6453 0
    endloop
  endfacet
  facet normal 0.844332 0.53582 0
    outer loop
      vertex 37.243 20.4745 10
      vertex 34.3832 24.9809 0
      vertex 34.3832 24.9809 10
    endloop
  endfacet
  facet normal 0.844332 0.53582 0
    outer loop
      vertex 34.3832 24.9809 0
      vertex 37.243 20.4745 10
      vertex 37.243 20.4745 0
    endloop
  endfacet
  facet normal 0.368116 0.92978 -0
    outer loop
      vertex 18.0956 38.4552 0
      vertex 13.1332 40.4199 10
      vertex 18.0956 38.4552 10
    endloop
  endfacet
  facet normal 0.368116 0.92978 0
    outer loop
      vertex 13.1332 40.4199 10
      vertex 18.0956 38.4552 0
      vertex 13.1332 40.4199 0
    endloop
  endfacet
  facet normal 0.481768 0.876299 -0
    outer loop
      vertex 22.7726 35.8839 0
      vertex 18.0956 38.4552 10
      vertex 22.7726 35.8839 10
    endloop
  endfacet
  facet normal 0.481768 0.876299 0
    outer loop
      vertex 18.0956 38.4552 10
      vertex 22.7726 35.8839 0
      vertex 18.0956 38.4552 0
    endloop
  endfacet
  facet normal -0.904823 0.425787 0
    outer loop
      vertex -39.5155 15.6453 0
      vertex -37.243 20.4745 10
      vertex -37.243 20.4745 0
    endloop
  endfacet
  facet normal -0.904823 0.425787 0
    outer loop
      vertex -37.243 20.4745 10
      vertex -39.5155 15.6453 0
      vertex -39.5155 15.6453 10
    endloop
  endfacet
  facet normal -0.77052 0.637416 0
    outer loop
      vertex -34.3832 24.9809 0
      vertex -30.9812 29.0933 10
      vertex -30.9812 29.0933 0
    endloop
  endfacet
  facet normal -0.77052 0.637416 0
    outer loop
      vertex -30.9812 29.0933 10
      vertex -34.3832 24.9809 0
      vertex -34.3832 24.9809 10
    endloop
  endfacet
  facet normal -0.951056 0.309018 0
    outer loop
      vertex -41.1648 10.5693 0
      vertex -39.5155 15.6453 10
      vertex -39.5155 15.6453 0
    endloop
  endfacet
  facet normal -0.951056 0.309018 0
    outer loop
      vertex -39.5155 15.6453 10
      vertex -41.1648 10.5693 0
      vertex -41.1648 10.5693 10
    endloop
  endfacet
  facet normal -0.24869 0.968583 0
    outer loop
      vertex -7.96371 41.7472 0
      vertex -13.1332 40.4199 10
      vertex -7.96371 41.7472 10
    endloop
  endfacet
  facet normal -0.24869 0.968583 0
    outer loop
      vertex -13.1332 40.4199 10
      vertex -7.96371 41.7472 0
      vertex -13.1332 40.4199 0
    endloop
  endfacet
  facet normal 0.125328 -0.992115 0
    outer loop
      vertex 2.6686 -42.4161 0
      vertex 7.96371 -41.7472 10
      vertex 2.6686 -42.4161 10
    endloop
  endfacet
  facet normal 0.125328 -0.992115 0
    outer loop
      vertex 7.96371 -41.7472 10
      vertex 2.6686 -42.4161 0
      vertex 7.96371 -41.7472 0
    endloop
  endfacet
  facet normal 0.951056 0.309018 0
    outer loop
      vertex 41.1648 10.5693 10
      vertex 39.5155 15.6453 0
      vertex 39.5155 15.6453 10
    endloop
  endfacet
  facet normal 0.951056 0.309018 0
    outer loop
      vertex 39.5155 15.6453 0
      vertex 41.1648 10.5693 10
      vertex 41.1648 10.5693 0
    endloop
  endfacet
  facet normal 0.982287 0.187384 0
    outer loop
      vertex 42.1649 5.32666 10
      vertex 41.1648 10.5693 0
      vertex 41.1648 10.5693 10
    endloop
  endfacet
  facet normal 0.982287 0.187384 0
    outer loop
      vertex 41.1648 10.5693 0
      vertex 42.1649 5.32666 10
      vertex 42.1649 5.32666 0
    endloop
  endfacet
  facet normal 0.77052 0.637416 0
    outer loop
      vertex 34.3832 24.9809 10
      vertex 30.9812 29.0933 0
      vertex 30.9812 29.0933 10
    endloop
  endfacet
  facet normal 0.77052 0.637416 0
    outer loop
      vertex 30.9812 29.0933 0
      vertex 34.3832 24.9809 10
      vertex 34.3832 24.9809 0
    endloop
  endfacet
  facet normal 0.24869 0.968583 -0
    outer loop
      vertex 13.1332 40.4199 0
      vertex 7.96371 41.7472 10
      vertex 13.1332 40.4199 10
    endloop
  endfacet
  facet normal 0.24869 0.968583 0
    outer loop
      vertex 7.96371 41.7472 10
      vertex 13.1332 40.4199 0
      vertex 7.96371 41.7472 0
    endloop
  endfacet
  facet normal 0.125328 0.992115 -0
    outer loop
      vertex 7.96371 41.7472 0
      vertex 2.6686 42.4161 10
      vertex 7.96371 41.7472 10
    endloop
  endfacet
  facet normal 0.125328 0.992115 0
    outer loop
      vertex 2.6686 42.4161 10
      vertex 7.96371 41.7472 0
      vertex 2.6686 42.4161 0
    endloop
  endfacet
  facet normal 0.587781 0.80902 -0
    outer loop
      vertex 27.0905 32.7468 0
      vertex 22.7726 35.8839 10
      vertex 27.0905 32.7468 10
    endloop
  endfacet
  facet normal 0.587781 0.80902 0
    outer loop
      vertex 22.7726 35.8839 10
      vertex 27.0905 32.7468 0
      vertex 22.7726 35.8839 0
    endloop
  endfacet
  facet normal -0.844332 0.53582 0
    outer loop
      vertex -37.243 20.4745 0
      vertex -34.3832 24.9809 10
      vertex -34.3832 24.9809 0
    endloop
  endfacet
  facet normal -0.844332 0.53582 0
    outer loop
      vertex -34.3832 24.9809 10
      vertex -37.243 20.4745 0
      vertex -37.243 20.4745 10
    endloop
  endfacet
  facet normal -0.982287 0.187384 0
    outer loop
      vertex -42.1649 5.32666 0
      vertex -41.1648 10.5693 10
      vertex -41.1648 10.5693 0
    endloop
  endfacet
  facet normal -0.982287 0.187384 0
    outer loop
      vertex -41.1648 10.5693 10
      vertex -42.1649 5.32666 0
      vertex -42.1649 5.32666 10
    endloop
  endfacet
  facet normal 0 0 1
    outer loop
      vertex 32.5 0 10
      vertex 42.5 0 10
      vertex 42.1649 5.32666 10
    endloop
  endfacet
  facet normal 0 0 1
    outer loop
      vertex 32.2437 4.07333 10
      vertex 42.1649 5.32666 10
      vertex 41.1648 10.5693 10
    endloop
  endfacet
  facet normal 0 0 1
    outer loop
      vertex 42.5 0 10
      vertex 32.5 0 10
      vertex 42.1649 -5.32666 10
    endloop
  endfacet
  facet normal 0 0 1
    outer loop
      vertex 31.479 8.08242 10
      vertex 41.1648 10.5693 10
      vertex 39.5155 15.6453 10
    endloop
  endfacet
  facet normal -0 0 1
    outer loop
      vertex 32.2437 -4.07333 10
      vertex 42.1649 -5.32666 10
      vertex 32.5 0 10
    endloop
  endfacet
  facet normal 0 0 1
    outer loop
      vertex 30.2177 11.964 10
      vertex 39.5155 15.6453 10
      vertex 37.243 20.4745 10
    endloop
  endfacet
  facet normal 0 0 1
    outer loop
      vertex 42.1649 -5.32666 10
      vertex 32.2437 -4.07333 10
      vertex 41.1648 -10.5693 10
    endloop
  endfacet
  facet normal 0 0 1
    outer loop
      vertex 28.48 15.657 10
      vertex 37.243 20.4745 10
      vertex 34.3832 24.9809 10
    endloop
  endfacet
  facet normal -0 0 1
    outer loop
      vertex 31.479 -8.08242 10
      vertex 41.1648 -10.5693 10
      vertex 32.2437 -4.07333 10
    endloop
  endfacet
  facet normal 0 0 1
    outer loop
      vertex 41.1648 -10.5693 10
      vertex 31.479 -8.08242 10
      vertex 39.5155 -15.6453 10
    endloop
  endfacet
  facet normal 0 0 1
    outer loop
      vertex 42.1649 5.32666 10
      vertex 32.2437 4.07333 10
      vertex 32.5 0 10
    endloop
  endfacet
  facet normal 0 0 1
    outer loop
      vertex 41.1648 10.5693 10
      vertex 31.479 8.08242 10
      vertex 32.2437 4.07333 10
    endloop
  endfacet
  facet normal 0 0 1
    outer loop
      vertex 26.2931 19.103 10
      vertex 34.3832 24.9809 10
      vertex 30.9812 29.0933 10
    endloop
  endfacet
  facet normal 0 0 1
    outer loop
      vertex 39.5155 15.6453 10
      vertex 30.2177 11.964 10
      vertex 31.479 8.08242 10
    endloop
  endfacet
  facet normal 0 0 1
    outer loop
      vertex 37.243 20.4745 10
      vertex 28.48 15.657 10
      vertex 30.2177 11.964 10
    endloop
  endfacet
  facet normal 0 0 1
    outer loop
      vertex 23.6915 22.2478 10
      vertex 30.9812 29.0933 10
      vertex 27.0905 32.7468 10
    endloop
  endfacet
  facet normal 0 0 1
    outer loop
      vertex 34.3832 24.9809 10
      vertex 26.2931 19.103 10
      vertex 28.48 15.657 10
    endloop
  endfacet
  facet normal 0 0 1
    outer loop
      vertex 30.9812 29.0933 10
      vertex 23.6915 22.2478 10
      vertex 26.2931 19.103 10
    endloop
  endfacet
  facet normal 0 0 1
    outer loop
      vertex 20.7163 25.0417 10
      vertex 27.0905 32.7468 10
      vertex 22.7726 35.8839 10
    endloop
  endfacet
  facet normal 0 0 1
    outer loop
      vertex 27.0905 32.7468 10
      vertex 20.7163 25.0417 10
      vertex 23.6915 22.2478 10
    endloop
  endfacet
  facet normal 0 0 1
    outer loop
      vertex 17.4144 27.4407 10
      vertex 22.7726 35.8839 10
      vertex 18.0956 38.4552 10
    endloop
  endfacet
  facet normal 0 0 1
    outer loop
      vertex 22.7726 35.8839 10
      vertex 17.4144 27.4407 10
      vertex 20.7163 25.0417 10
    endloop
  endfacet
  facet normal 0 0 1
    outer loop
      vertex 18.0956 38.4552 10
      vertex 13.8378 29.4069 10
      vertex 17.4144 27.4407 10
    endloop
  endfacet
  facet normal 0 0 1
    outer loop
      vertex 13.1332 40.4199 10
      vertex 13.8378 29.4069 10
      vertex 18.0956 38.4552 10
    endloop
  endfacet
  facet normal 0 0 1
    outer loop
      vertex 13.1332 40.4199 10
      vertex 10.0431 30.9093 10
      vertex 13.8378 29.4069 10
    endloop
  endfacet
  facet normal 0 0 1
    outer loop
      vertex 7.96371 41.7472 10
      vertex 10.0431 30.9093 10
      vertex 13.1332 40.4199 10
    endloop
  endfacet
  facet normal 0 0 1
    outer loop
      vertex 7.96371 41.7472 10
      vertex 6.08989 31.9243 10
      vertex 10.0431 30.9093 10
    endloop
  endfacet
  facet normal 0 0 1
    outer loop
      vertex 2.6686 42.4161 10
      vertex 6.08989 31.9243 10
      vertex 7.96371 41.7472 10
    endloop
  endfacet
  facet normal 0 0 1
    outer loop
      vertex 2.6686 42.4161 10
      vertex 2.04069 32.4359 10
      vertex 6.08989 31.9243 10
    endloop
  endfacet
  facet normal 0 0 1
    outer loop
      vertex 2.6686 42.4161 10
      vertex -2.04069 32.4359 10
      vertex 2.04069 32.4359 10
    endloop
  endfacet
  facet normal -0 0 1
    outer loop
      vertex -2.6686 42.4161 10
      vertex -2.04069 32.4359 10
      vertex 2.6686 42.4161 10
    endloop
  endfacet
  facet normal 0 0 1
    outer loop
      vertex -2.6686 42.4161 10
      vertex -6.08989 31.9243 10
      vertex -2.04069 32.4359 10
    endloop
  endfacet
  facet normal -0 0 1
    outer loop
      vertex -7.96371 41.7472 10
      vertex -6.08989 31.9243 10
      vertex -2.6686 42.4161 10
    endloop
  endfacet
  facet normal 0 0 1
    outer loop
      vertex -7.96371 41.7472 10
      vertex -10.0431 30.9093 10
      vertex -6.08989 31.9243 10
    endloop
  endfacet
  facet normal -0 0 1
    outer loop
      vertex -13.1332 40.4199 10
      vertex -10.0431 30.9093 10
      vertex -7.96371 41.7472 10
    endloop
  endfacet
  facet normal 0 0 1
    outer loop
      vertex -13.1332 40.4199 10
      vertex -13.8378 29.4069 10
      vertex -10.0431 30.9093 10
    endloop
  endfacet
  facet normal -0 0 1
    outer loop
      vertex -18.0956 38.4552 10
      vertex -13.8378 29.4069 10
      vertex -13.1332 40.4199 10
    endloop
  endfacet
  facet normal 0 0 1
    outer loop
      vertex -13.8378 29.4069 10
      vertex -18.0956 38.4552 10
      vertex -17.4144 27.4407 10
    endloop
  endfacet
  facet normal -0 0 1
    outer loop
      vertex -22.7726 35.8839 10
      vertex -17.4144 27.4407 10
      vertex -18.0956 38.4552 10
    endloop
  endfacet
  facet normal 0 0 1
    outer loop
      vertex -17.4144 27.4407 10
      vertex -22.7726 35.8839 10
      vertex -20.7163 25.0417 10
    endloop
  endfacet
  facet normal -0 0 1
    outer loop
      vertex -27.0905 32.7468 10
      vertex -20.7163 25.0417 10
      vertex -22.7726 35.8839 10
    endloop
  endfacet
  facet normal 0 0 1
    outer loop
      vertex -20.7163 25.0417 10
      vertex -27.0905 32.7468 10
      vertex -23.6915 22.2478 10
    endloop
  endfacet
  facet normal -0 0 1
    outer loop
      vertex -30.9812 29.0933 10
      vertex -23.6915 22.2478 10
      vertex -27.0905 32.7468 10
    endloop
  endfacet
  facet normal 0 0 1
    outer loop
      vertex -23.6915 22.2478 10
      vertex -30.9812 29.0933 10
      vertex -26.2931 19.103 10
    endloop
  endfacet
  facet normal -0 0 1
    outer loop
      vertex -34.3832 24.9809 10
      vertex -26.2931 19.103 10
      vertex -30.9812 29.0933 10
    endloop
  endfacet
  facet normal 0 0 1
    outer loop
      vertex -26.2931 19.103 10
      vertex -34.3832 24.9809 10
      vertex -28.48 15.657 10
    endloop
  endfacet
  facet normal -0 0 1
    outer loop
      vertex -37.243 20.4745 10
      vertex -28.48 15.657 10
      vertex -34.3832 24.9809 10
    endloop
  endfacet
  facet normal 0 0 1
    outer loop
      vertex -28.48 15.657 10
      vertex -37.243 20.4745 10
      vertex -30.2177 11.964 10
    endloop
  endfacet
  facet normal -0 0 1
    outer loop
      vertex -39.5155 15.6453 10
      vertex -30.2177 11.964 10
      vertex -37.243 20.4745 10
    endloop
  endfacet
  facet normal 0 0 1
    outer loop
      vertex -30.2177 11.964 10
      vertex -39.5155 15.6453 10
      vertex -31.479 8.08242 10
    endloop
  endfacet
  facet normal -0 0 1
    outer loop
      vertex 30.2177 -11.964 10
      vertex 39.5155 -15.6453 10
      vertex 31.479 -8.08242 10
    endloop
  endfacet
  facet normal 0 0 1
    outer loop
      vertex 39.5155 -15.6453 10
      vertex 30.2177 -11.964 10
      vertex 37.243 -20.4745 10
    endloop
  endfacet
  facet normal -0 0 1
    outer loop
      vertex 28.48 -15.657 10
      vertex 37.243 -20.4745 10
      vertex 30.2177 -11.964 10
    endloop
  endfacet
  facet normal 0 0 1
    outer loop
      vertex 37.243 -20.4745 10
      vertex 28.48 -15.657 10
      vertex 34.3832 -24.9809 10
    endloop
  endfacet
  facet normal -0 0 1
    outer loop
      vertex 26.2931 -19.103 10
      vertex 34.3832 -24.9809 10
      vertex 28.48 -15.657 10
    endloop
  endfacet
  facet normal 0 0 1
    outer loop
      vertex 34.3832 -24.9809 10
      vertex 26.2931 -19.103 10
      vertex 30.9812 -29.0933 10
    endloop
  endfacet
  facet normal -0 0 1
    outer loop
      vertex 23.6915 -22.2478 10
      vertex 30.9812 -29.0933 10
      vertex 26.2931 -19.103 10
    endloop
  endfacet
  facet normal 0 0 1
    outer loop
      vertex 30.9812 -29.0933 10
      vertex 23.6915 -22.2478 10
      vertex 27.0905 -32.7468 10
    endloop
  endfacet
  facet normal -0 0 1
    outer loop
      vertex 20.7163 -25.0417 10
      vertex 27.0905 -32.7468 10
      vertex 23.6915 -22.2478 10
    endloop
  endfacet
  facet normal 0 0 1
    outer loop
      vertex 27.0905 -32.7468 10
      vertex 20.7163 -25.0417 10
      vertex 22.7726 -35.8839 10
    endloop
  endfacet
  facet normal -0 0 1
    outer loop
      vertex 17.4144 -27.4407 10
      vertex 22.7726 -35.8839 10
      vertex 20.7163 -25.0417 10
    endloop
  endfacet
  facet normal 0 0 1
    outer loop
      vertex 22.7726 -35.8839 10
      vertex 17.4144 -27.4407 10
      vertex 18.0956 -38.4552 10
    endloop
  endfacet
  facet normal -0 0 1
    outer loop
      vertex 13.8378 -29.4069 10
      vertex 18.0956 -38.4552 10
      vertex 17.4144 -27.4407 10
    endloop
  endfacet
  facet normal 0 0 1
    outer loop
      vertex 13.8378 -29.4069 10
      vertex 13.1332 -40.4199 10
      vertex 18.0956 -38.4552 10
    endloop
  endfacet
  facet normal -0 0 1
    outer loop
      vertex 10.0431 -30.9093 10
      vertex 13.1332 -40.4199 10
      vertex 13.8378 -29.4069 10
    endloop
  endfacet
  facet normal 0 0 1
    outer loop
      vertex 10.0431 -30.9093 10
      vertex 7.96371 -41.7472 10
      vertex 13.1332 -40.4199 10
    endloop
  endfacet
  facet normal -0 0 1
    outer loop
      vertex 6.08989 -31.9243 10
      vertex 7.96371 -41.7472 10
      vertex 10.0431 -30.9093 10
    endloop
  endfacet
  facet normal 0 0 1
    outer loop
      vertex 6.08989 -31.9243 10
      vertex 2.6686 -42.4161 10
      vertex 7.96371 -41.7472 10
    endloop
  endfacet
  facet normal -0 0 1
    outer loop
      vertex 2.04069 -32.4359 10
      vertex 2.6686 -42.4161 10
      vertex 6.08989 -31.9243 10
    endloop
  endfacet
  facet normal -0 0 1
    outer loop
      vertex -2.04069 -32.4359 10
      vertex 2.6686 -42.4161 10
      vertex 2.04069 -32.4359 10
    endloop
  endfacet
  facet normal 0 0 1
    outer loop
      vertex -2.04069 -32.4359 10
      vertex -2.6686 -42.4161 10
      vertex 2.6686 -42.4161 10
    endloop
  endfacet
  facet normal 0 0 1
    outer loop
      vertex -6.08989 -31.9243 10
      vertex -2.6686 -42.4161 10
      vertex -2.04069 -32.4359 10
    endloop
  endfacet
  facet normal 0 0 1
    outer loop
      vertex -6.08989 -31.9243 10
      vertex -7.96371 -41.7472 10
      vertex -2.6686 -42.4161 10
    endloop
  endfacet
  facet normal 0 0 1
    outer loop
      vertex -10.0431 -30.9093 10
      vertex -7.96371 -41.7472 10
      vertex -6.08989 -31.9243 10
    endloop
  endfacet
  facet normal 0 0 1
    outer loop
      vertex -10.0431 -30.9093 10
      vertex -13.1332 -40.4199 10
      vertex -7.96371 -41.7472 10
    endloop
  endfacet
  facet normal 0 0 1
    outer loop
      vertex -13.8378 -29.4069 10
      vertex -13.1332 -40.4199 10
      vertex -10.0431 -30.9093 10
    endloop
  endfacet
  facet normal 0 0 1
    outer loop
      vertex -18.0956 -38.4552 10
      vertex -13.8378 -29.4069 10
      vertex -17.4144 -27.4407 10
    endloop
  endfacet
  facet normal 0 0 1
    outer loop
      vertex -13.8378 -29.4069 10
      vertex -18.0956 -38.4552 10
      vertex -13.1332 -40.4199 10
    endloop
  endfacet
  facet normal 0 0 1
    outer loop
      vertex -22.7726 -35.8839 10
      vertex -17.4144 -27.4407 10
      vertex -20.7163 -25.0417 10
    endloop
  endfacet
  facet normal 0 0 1
    outer loop
      vertex -17.4144 -27.4407 10
      vertex -22.7726 -35.8839 10
      vertex -18.0956 -38.4552 10
    endloop
  endfacet
  facet normal 0 0 1
    outer loop
      vertex -27.0905 -32.7468 10
      vertex -20.7163 -25.0417 10
      vertex -23.6915 -22.2478 10
    endloop
  endfacet
  facet normal 0 0 1
    outer loop
      vertex -30.9812 -29.0933 10
      vertex -23.6915 -22.2478 10
      vertex -26.2931 -19.103 10
    endloop
  endfacet
  facet normal 0 0 1
    outer loop
      vertex -20.7163 -25.0417 10
      vertex -27.0905 -32.7468 10
      vertex -22.7726 -35.8839 10
    endloop
  endfacet
  facet normal 0 0 1
    outer loop
      vertex -34.3832 -24.9809 10
      vertex -26.2931 -19.103 10
      vertex -28.48 -15.657 10
    endloop
  endfacet
  facet normal 0 0 1
    outer loop
      vertex -37.243 -20.4745 10
      vertex -28.48 -15.657 10
      vertex -30.2177 -11.964 10
    endloop
  endfacet
  facet normal 0 0 1
    outer loop
      vertex -23.6915 -22.2478 10
      vertex -30.9812 -29.0933 10
      vertex -27.0905 -32.7468 10
    endloop
  endfacet
  facet normal 0 0 1
    outer loop
      vertex -39.5155 -15.6453 10
      vertex -30.2177 -11.964 10
      vertex -31.479 -8.08242 10
    endloop
  endfacet
  facet normal 0 0 1
    outer loop
      vertex -41.1648 -10.5693 10
      vertex -31.479 -8.08242 10
      vertex -32.2437 -4.07333 10
    endloop
  endfacet
  facet normal 0 0 1
    outer loop
      vertex -42.1649 -5.32666 10
      vertex -32.2437 -4.07333 10
      vertex -32.5 0 10
    endloop
  endfacet
  facet normal -0 0 1
    outer loop
      vertex -41.1648 10.5693 10
      vertex -31.479 8.08242 10
      vertex -39.5155 15.6453 10
    endloop
  endfacet
  facet normal 0 0 1
    outer loop
      vertex -26.2931 -19.103 10
      vertex -34.3832 -24.9809 10
      vertex -30.9812 -29.0933 10
    endloop
  endfacet
  facet normal 0 0 1
    outer loop
      vertex -31.479 8.08242 10
      vertex -41.1648 10.5693 10
      vertex -32.2437 4.07333 10
    endloop
  endfacet
  facet normal 0 0 1
    outer loop
      vertex -28.48 -15.657 10
      vertex -37.243 -20.4745 10
      vertex -34.3832 -24.9809 10
    endloop
  endfacet
  facet normal -0 0 1
    outer loop
      vertex -42.1649 5.32666 10
      vertex -32.2437 4.07333 10
      vertex -41.1648 10.5693 10
    endloop
  endfacet
  facet normal 0 0 1
    outer loop
      vertex -30.2177 -11.964 10
      vertex -39.5155 -15.6453 10
      vertex -37.243 -20.4745 10
    endloop
  endfacet
  facet normal 0 0 1
    outer loop
      vertex -32.2437 4.07333 10
      vertex -42.1649 5.32666 10
      vertex -32.5 0 10
    endloop
  endfacet
  facet normal 0 0 1
    outer loop
      vertex -31.479 -8.08242 10
      vertex -41.1648 -10.5693 10
      vertex -39.5155 -15.6453 10
    endloop
  endfacet
  facet normal 0 0 1
    outer loop
      vertex -42.5 0 10
      vertex -32.5 0 10
      vertex -42.1649 5.32666 10
    endloop
  endfacet
  facet normal 0 0 1
    outer loop
      vertex -32.2437 -4.07333 10
      vertex -42.1649 -5.32666 10
      vertex -41.1648 -10.5693 10
    endloop
  endfacet
  facet normal 0 0 1
    outer loop
      vertex -32.5 0 10
      vertex -42.5 0 10
      vertex -42.1649 -5.32666 10
    endloop
  endfacet
  facet normal -0.481768 0.876299 0
    outer loop
      vertex -18.0956 38.4552 0
      vertex -22.7726 35.8839 10
      vertex -18.0956 38.4552 10
    endloop
  endfacet
  facet normal -0.481768 0.876299 0
    outer loop
      vertex -22.7726 35.8839 10
      vertex -18.0956 38.4552 0
      vertex -22.7726 35.8839 0
    endloop
  endfacet
  facet normal -0.587781 0.80902 0
    outer loop
      vertex -22.7726 35.8839 0
      vertex -27.0905 32.7468 10
      vertex -22.7726 35.8839 10
    endloop
  endfacet
  facet normal -0.587781 0.80902 0
    outer loop
      vertex -27.0905 32.7468 10
      vertex -22.7726 35.8839 0
      vertex -27.0905 32.7468 0
    endloop
  endfacet
  facet normal -0.125328 0.992115 0
    outer loop
      vertex -2.6686 42.4161 0
      vertex -7.96371 41.7472 10
      vertex -2.6686 42.4161 10
    endloop
  endfacet
  facet normal -0.125328 0.992115 0
    outer loop
      vertex -7.96371 41.7472 10
      vertex -2.6686 42.4161 0
      vertex -7.96371 41.7472 0
    endloop
  endfacet
  facet normal 0.998027 -0.0627858 0
    outer loop
      vertex 42.1649 -5.32666 10
      vertex 42.5 0 0
      vertex 42.5 0 10
    endloop
  endfacet
  facet normal 0.998027 -0.0627858 0
    outer loop
      vertex 42.5 0 0
      vertex 42.1649 -5.32666 10
      vertex 42.1649 -5.32666 0
    endloop
  endfacet
  facet normal 0.77052 -0.637416 0
    outer loop
      vertex 30.9812 -29.0933 10
      vertex 34.3832 -24.9809 0
      vertex 34.3832 -24.9809 10
    endloop
  endfacet
  facet normal 0.77052 -0.637416 0
    outer loop
      vertex 34.3832 -24.9809 0
      vertex 30.9812 -29.0933 10
      vertex 30.9812 -29.0933 0
    endloop
  endfacet
  facet normal 0.951056 -0.309018 0
    outer loop
      vertex 39.5155 -15.6453 10
      vertex 41.1648 -10.5693 0
      vertex 41.1648 -10.5693 10
    endloop
  endfacet
  facet normal 0.951056 -0.309018 0
    outer loop
      vertex 41.1648 -10.5693 0
      vertex 39.5155 -15.6453 10
      vertex 39.5155 -15.6453 0
    endloop
  endfacet
  facet normal 0.982287 -0.187384 0
    outer loop
      vertex 41.1648 -10.5693 10
      vertex 42.1649 -5.32666 0
      vertex 42.1649 -5.32666 10
    endloop
  endfacet
  facet normal 0.982287 -0.187384 0
    outer loop
      vertex 42.1649 -5.32666 0
      vertex 41.1648 -10.5693 10
      vertex 41.1648 -10.5693 0
    endloop
  endfacet
  facet normal -0.684536 -0.728979 0
    outer loop
      vertex -30.9812 -29.0933 0
      vertex -27.0905 -32.7468 10
      vertex -30.9812 -29.0933 10
    endloop
  endfacet
  facet normal -0.684536 -0.728979 -0
    outer loop
      vertex -27.0905 -32.7468 10
      vertex -30.9812 -29.0933 0
      vertex -27.0905 -32.7468 0
    endloop
  endfacet
  facet normal -0.904823 -0.425787 0
    outer loop
      vertex -37.243 -20.4745 0
      vertex -39.5155 -15.6453 10
      vertex -39.5155 -15.6453 0
    endloop
  endfacet
  facet normal -0.904823 -0.425787 0
    outer loop
      vertex -39.5155 -15.6453 10
      vertex -37.243 -20.4745 0
      vertex -37.243 -20.4745 10
    endloop
  endfacet
  facet normal -0.77052 -0.637416 0
    outer loop
      vertex -30.9812 -29.0933 0
      vertex -34.3832 -24.9809 10
      vertex -34.3832 -24.9809 0
    endloop
  endfacet
  facet normal -0.77052 -0.637416 0
    outer loop
      vertex -34.3832 -24.9809 10
      vertex -30.9812 -29.0933 0
      vertex -30.9812 -29.0933 10
    endloop
  endfacet
  facet normal 0 0 -1
    outer loop
      vertex 32.5 0 0
      vertex 42.5 0 0
      vertex 42.1649 -5.32666 0
    endloop
  endfacet
  facet normal 0 0 -1
    outer loop
      vertex 32.2437 -4.07333 0
      vertex 42.1649 -5.32666 0
      vertex 41.1648 -10.5693 0
    endloop
  endfacet
  facet normal 0 0 -1
    outer loop
      vertex 42.5 0 0
      vertex 32.5 0 0
      vertex 42.1649 5.32666 0
    endloop
  endfacet
  facet normal 0 0 -1
    outer loop
      vertex 31.479 -8.08242 0
      vertex 41.1648 -10.5693 0
      vertex 39.5155 -15.6453 0
    endloop
  endfacet
  facet normal 0 0 -1
    outer loop
      vertex 32.2437 4.07333 0
      vertex 42.1649 5.32666 0
      vertex 32.5 0 0
    endloop
  endfacet
  facet normal 0 0 -1
    outer loop
      vertex 30.2177 -11.964 0
      vertex 39.5155 -15.6453 0
      vertex 37.243 -20.4745 0
    endloop
  endfacet
  facet normal -0 0 -1
    outer loop
      vertex 42.1649 5.32666 0
      vertex 32.2437 4.07333 0
      vertex 41.1648 10.5693 0
    endloop
  endfacet
  facet normal 0 0 -1
    outer loop
      vertex 28.48 -15.657 0
      vertex 37.243 -20.4745 0
      vertex 34.3832 -24.9809 0
    endloop
  endfacet
  facet normal 0 0 -1
    outer loop
      vertex 31.479 8.08242 0
      vertex 41.1648 10.5693 0
      vertex 32.2437 4.07333 0
    endloop
  endfacet
  facet normal -0 0 -1
    outer loop
      vertex 41.1648 10.5693 0
      vertex 31.479 8.08242 0
      vertex 39.5155 15.6453 0
    endloop
  endfacet
  facet normal 0 0 -1
    outer loop
      vertex 42.1649 -5.32666 0
      vertex 32.2437 -4.07333 0
      vertex 32.5 0 0
    endloop
  endfacet
  facet normal 0 0 -1
    outer loop
      vertex 41.1648 -10.5693 0
      vertex 31.479 -8.08242 0
      vertex 32.2437 -4.07333 0
    endloop
  endfacet
  facet normal 0 0 -1
    outer loop
      vertex 26.2931 -19.103 0
      vertex 34.3832 -24.9809 0
      vertex 30.9812 -29.0933 0
    endloop
  endfacet
  facet normal 0 0 -1
    outer loop
      vertex 39.5155 -15.6453 0
      vertex 30.2177 -11.964 0
      vertex 31.479 -8.08242 0
    endloop
  endfacet
  facet normal 0 0 -1
    outer loop
      vertex 37.243 -20.4745 0
      vertex 28.48 -15.657 0
      vertex 30.2177 -11.964 0
    endloop
  endfacet
  facet normal 0 0 -1
    outer loop
      vertex 23.6915 -22.2478 0
      vertex 30.9812 -29.0933 0
      vertex 27.0905 -32.7468 0
    endloop
  endfacet
  facet normal 0 0 -1
    outer loop
      vertex 34.3832 -24.9809 0
      vertex 26.2931 -19.103 0
      vertex 28.48 -15.657 0
    endloop
  endfacet
  facet normal 0 0 -1
    outer loop
      vertex 30.9812 -29.0933 0
      vertex 23.6915 -22.2478 0
      vertex 26.2931 -19.103 0
    endloop
  endfacet
  facet normal 0 0 -1
    outer loop
      vertex 20.7163 -25.0417 0
      vertex 27.0905 -32.7468 0
      vertex 22.7726 -35.8839 0
    endloop
  endfacet
  facet normal 0 0 -1
    outer loop
      vertex 27.0905 -32.7468 0
      vertex 20.7163 -25.0417 0
      vertex 23.6915 -22.2478 0
    endloop
  endfacet
  facet normal 0 0 -1
    outer loop
      vertex 17.4144 -27.4407 0
      vertex 22.7726 -35.8839 0
      vertex 18.0956 -38.4552 0
    endloop
  endfacet
  facet normal 0 0 -1
    outer loop
      vertex 22.7726 -35.8839 0
      vertex 17.4144 -27.4407 0
      vertex 20.7163 -25.0417 0
    endloop
  endfacet
  facet normal 0 0 -1
    outer loop
      vertex 18.0956 -38.4552 0
      vertex 13.8378 -29.4069 0
      vertex 17.4144 -27.4407 0
    endloop
  endfacet
  facet normal 0 0 -1
    outer loop
      vertex 13.1332 -40.4199 0
      vertex 13.8378 -29.4069 0
      vertex 18.0956 -38.4552 0
    endloop
  endfacet
  facet normal 0 0 -1
    outer loop
      vertex 13.1332 -40.4199 0
      vertex 10.0431 -30.9093 0
      vertex 13.8378 -29.4069 0
    endloop
  endfacet
  facet normal 0 0 -1
    outer loop
      vertex 7.96371 -41.7472 0
      vertex 10.0431 -30.9093 0
      vertex 13.1332 -40.4199 0
    endloop
  endfacet
  facet normal 0 0 -1
    outer loop
      vertex 7.96371 -41.7472 0
      vertex 6.08989 -31.9243 0
      vertex 10.0431 -30.9093 0
    endloop
  endfacet
  facet normal 0 0 -1
    outer loop
      vertex 2.6686 -42.4161 0
      vertex 6.08989 -31.9243 0
      vertex 7.96371 -41.7472 0
    endloop
  endfacet
  facet normal 0 0 -1
    outer loop
      vertex 2.6686 -42.4161 0
      vertex 2.04069 -32.4359 0
      vertex 6.08989 -31.9243 0
    endloop
  endfacet
  facet normal 0 0 -1
    outer loop
      vertex 2.6686 -42.4161 0
      vertex -2.04069 -32.4359 0
      vertex 2.04069 -32.4359 0
    endloop
  endfacet
  facet normal 0 0 -1
    outer loop
      vertex -2.6686 -42.4161 0
      vertex -2.04069 -32.4359 0
      vertex 2.6686 -42.4161 0
    endloop
  endfacet
  facet normal 0 0 -1
    outer loop
      vertex -2.6686 -42.4161 0
      vertex -6.08989 -31.9243 0
      vertex -2.04069 -32.4359 0
    endloop
  endfacet
  facet normal 0 0 -1
    outer loop
      vertex -7.96371 -41.7472 0
      vertex -6.08989 -31.9243 0
      vertex -2.6686 -42.4161 0
    endloop
  endfacet
  facet normal 0 0 -1
    outer loop
      vertex -7.96371 -41.7472 0
      vertex -10.0431 -30.9093 0
      vertex -6.08989 -31.9243 0
    endloop
  endfacet
  facet normal 0 0 -1
    outer loop
      vertex -13.1332 -40.4199 0
      vertex -10.0431 -30.9093 0
      vertex -7.96371 -41.7472 0
    endloop
  endfacet
  facet normal 0 0 -1
    outer loop
      vertex -13.1332 -40.4199 0
      vertex -13.8378 -29.4069 0
      vertex -10.0431 -30.9093 0
    endloop
  endfacet
  facet normal 0 0 -1
    outer loop
      vertex -18.0956 -38.4552 0
      vertex -13.8378 -29.4069 0
      vertex -13.1332 -40.4199 0
    endloop
  endfacet
  facet normal -0 0 -1
    outer loop
      vertex -13.8378 -29.4069 0
      vertex -18.0956 -38.4552 0
      vertex -17.4144 -27.4407 0
    endloop
  endfacet
  facet normal 0 0 -1
    outer loop
      vertex -22.7726 -35.8839 0
      vertex -17.4144 -27.4407 0
      vertex -18.0956 -38.4552 0
    endloop
  endfacet
  facet normal -0 0 -1
    outer loop
      vertex -17.4144 -27.4407 0
      vertex -22.7726 -35.8839 0
      vertex -20.7163 -25.0417 0
    endloop
  endfacet
  facet normal 0 0 -1
    outer loop
      vertex -27.0905 -32.7468 0
      vertex -20.7163 -25.0417 0
      vertex -22.7726 -35.8839 0
    endloop
  endfacet
  facet normal -0 0 -1
    outer loop
      vertex -20.7163 -25.0417 0
      vertex -27.0905 -32.7468 0
      vertex -23.6915 -22.2478 0
    endloop
  endfacet
  facet normal 0 0 -1
    outer loop
      vertex -30.9812 -29.0933 0
      vertex -23.6915 -22.2478 0
      vertex -27.0905 -32.7468 0
    endloop
  endfacet
  facet normal -0 0 -1
    outer loop
      vertex -23.6915 -22.2478 0
      vertex -30.9812 -29.0933 0
      vertex -26.2931 -19.103 0
    endloop
  endfacet
  facet normal 0 0 -1
    outer loop
      vertex -34.3832 -24.9809 0
      vertex -26.2931 -19.103 0
      vertex -30.9812 -29.0933 0
    endloop
  endfacet
  facet normal -0 0 -1
    outer loop
      vertex -26.2931 -19.103 0
      vertex -34.3832 -24.9809 0
      vertex -28.48 -15.657 0
    endloop
  endfacet
  facet normal 0 0 -1
    outer loop
      vertex -37.243 -20.4745 0
      vertex -28.48 -15.657 0
      vertex -34.3832 -24.9809 0
    endloop
  endfacet
  facet normal -0 0 -1
    outer loop
      vertex -28.48 -15.657 0
      vertex -37.243 -20.4745 0
      vertex -30.2177 -11.964 0
    endloop
  endfacet
  facet normal 0 0 -1
    outer loop
      vertex -39.5155 -15.6453 0
      vertex -30.2177 -11.964 0
      vertex -37.243 -20.4745 0
    endloop
  endfacet
  facet normal -0 0 -1
    outer loop
      vertex -30.2177 -11.964 0
      vertex -39.5155 -15.6453 0
      vertex -31.479 -8.08242 0
    endloop
  endfacet
  facet normal 0 0 -1
    outer loop
      vertex 30.2177 11.964 0
      vertex 39.5155 15.6453 0
      vertex 31.479 8.08242 0
    endloop
  endfacet
  facet normal -0 0 -1
    outer loop
      vertex 39.5155 15.6453 0
      vertex 30.2177 11.964 0
      vertex 37.243 20.4745 0
    endloop
  endfacet
  facet normal 0 0 -1
    outer loop
      vertex 28.48 15.657 0
      vertex 37.243 20.4745 0
      vertex 30.2177 11.964 0
    endloop
  endfacet
  facet normal -0 0 -1
    outer loop
      vertex 37.243 20.4745 0
      vertex 28.48 15.657 0
      vertex 34.3832 24.9809 0
    endloop
  endfacet
  facet normal 0 0 -1
    outer loop
      vertex 26.2931 19.103 0
      vertex 34.3832 24.9809 0
      vertex 28.48 15.657 0
    endloop
  endfacet
  facet normal -0 0 -1
    outer loop
      vertex 34.3832 24.9809 0
      vertex 26.2931 19.103 0
      vertex 30.9812 29.0933 0
    endloop
  endfacet
  facet normal 0 0 -1
    outer loop
      vertex 23.6915 22.2478 0
      vertex 30.9812 29.0933 0
      vertex 26.2931 19.103 0
    endloop
  endfacet
  facet normal -0 0 -1
    outer loop
      vertex 30.9812 29.0933 0
      vertex 23.6915 22.2478 0
      vertex 27.0905 32.7468 0
    endloop
  endfacet
  facet normal 0 0 -1
    outer loop
      vertex 20.7163 25.0417 0
      vertex 27.0905 32.7468 0
      vertex 23.6915 22.2478 0
    endloop
  endfacet
  facet normal -0 0 -1
    outer loop
      vertex 27.0905 32.7468 0
      vertex 20.7163 25.0417 0
      vertex 22.7726 35.8839 0
    endloop
  endfacet
  facet normal 0 0 -1
    outer loop
      vertex 17.4144 27.4407 0
      vertex 22.7726 35.8839 0
      vertex 20.7163 25.0417 0
    endloop
  endfacet
  facet normal -0 0 -1
    outer loop
      vertex 22.7726 35.8839 0
      vertex 17.4144 27.4407 0
      vertex 18.0956 38.4552 0
    endloop
  endfacet
  facet normal 0 0 -1
    outer loop
      vertex 13.8378 29.4069 0
      vertex 18.0956 38.4552 0
      vertex 17.4144 27.4407 0
    endloop
  endfacet
  facet normal 0 0 -1
    outer loop
      vertex 13.8378 29.4069 0
      vertex 13.1332 40.4199 0
      vertex 18.0956 38.4552 0
    endloop
  endfacet
  facet normal 0 0 -1
    outer loop
      vertex 10.0431 30.9093 0
      vertex 13.1332 40.4199 0
      vertex 13.8378 29.4069 0
    endloop
  endfacet
  facet normal 0 0 -1
    outer loop
      vertex 10.0431 30.9093 0
      vertex 7.96371 41.7472 0
      vertex 13.1332 40.4199 0
    endloop
  endfacet
  facet normal 0 0 -1
    outer loop
      vertex 6.08989 31.9243 0
      vertex 7.96371 41.7472 0
      vertex 10.0431 30.9093 0
    endloop
  endfacet
  facet normal 0 0 -1
    outer loop
      vertex 6.08989 31.9243 0
      vertex 2.6686 42.4161 0
      vertex 7.96371 41.7472 0
    endloop
  endfacet
  facet normal 0 0 -1
    outer loop
      vertex 2.04069 32.4359 0
      vertex 2.6686 42.4161 0
      vertex 6.08989 31.9243 0
    endloop
  endfacet
  facet normal 0 0 -1
    outer loop
      vertex -2.04069 32.4359 0
      vertex 2.6686 42.4161 0
      vertex 2.04069 32.4359 0
    endloop
  endfacet
  facet normal 0 0 -1
    outer loop
      vertex -2.04069 32.4359 0
      vertex -2.6686 42.4161 0
      vertex 2.6686 42.4161 0
    endloop
  endfacet
  facet normal 0 0 -1
    outer loop
      vertex -6.08989 31.9243 0
      vertex -2.6686 42.4161 0
      vertex -2.04069 32.4359 0
    endloop
  endfacet
  facet normal 0 0 -1
    outer loop
      vertex -6.08989 31.9243 0
      vertex -7.96371 41.7472 0
      vertex -2.6686 42.4161 0
    endloop
  endfacet
  facet normal 0 0 -1
    outer loop
      vertex -10.0431 30.9093 0
      vertex -7.96371 41.7472 0
      vertex -6.08989 31.9243 0
    endloop
  endfacet
  facet normal 0 0 -1
    outer loop
      vertex -10.0431 30.9093 0
      vertex -13.1332 40.4199 0
      vertex -7.96371 41.7472 0
    endloop
  endfacet
  facet normal 0 0 -1
    outer loop
      vertex -13.8378 29.4069 0
      vertex -13.1332 40.4199 0
      vertex -10.0431 30.9093 0
    endloop
  endfacet
  facet normal 0 0 -1
    outer loop
      vertex -18.0956 38.4552 0
      vertex -13.8378 29.4069 0
      vertex -17.4144 27.4407 0
    endloop
  endfacet
  facet normal 0 0 -1
    outer loop
      vertex -13.8378 29.4069 0
      vertex -18.0956 38.4552 0
      vertex -13.1332 40.4199 0
    endloop
  endfacet
  facet normal 0 0 -1
    outer loop
      vertex -22.7726 35.8839 0
      vertex -17.4144 27.4407 0
      vertex -20.7163 25.0417 0
    endloop
  endfacet
  facet normal 0 0 -1
    outer loop
      vertex -17.4144 27.4407 0
      vertex -22.7726 35.8839 0
      vertex -18.0956 38.4552 0
    endloop
  endfacet
  facet normal 0 0 -1
    outer loop
      vertex -27.0905 32.7468 0
      vertex -20.7163 25.0417 0
      vertex -23.6915 22.2478 0
    endloop
  endfacet
  facet normal 0 0 -1
    outer loop
      vertex -30.9812 29.0933 0
      vertex -23.6915 22.2478 0
      vertex -26.2931 19.103 0
    endloop
  endfacet
  facet normal 0 0 -1
    outer loop
      vertex -20.7163 25.0417 0
      vertex -27.0905 32.7468 0
      vertex -22.7726 35.8839 0
    endloop
  endfacet
  facet normal 0 0 -1
    outer loop
      vertex -34.3832 24.9809 0
      vertex -26.2931 19.103 0
      vertex -28.48 15.657 0
    endloop
  endfacet
  facet normal 0 0 -1
    outer loop
      vertex -37.243 20.4745 0
      vertex -28.48 15.657 0
      vertex -30.2177 11.964 0
    endloop
  endfacet
  facet normal 0 0 -1
    outer loop
      vertex -23.6915 22.2478 0
      vertex -30.9812 29.0933 0
      vertex -27.0905 32.7468 0
    endloop
  endfacet
  facet normal 0 0 -1
    outer loop
      vertex -39.5155 15.6453 0
      vertex -30.2177 11.964 0
      vertex -31.479 8.08242 0
    endloop
  endfacet
  facet normal 0 0 -1
    outer loop
      vertex -41.1648 10.5693 0
      vertex -31.479 8.08242 0
      vertex -32.2437 4.07333 0
    endloop
  endfacet
  facet normal 0 0 -1
    outer loop
      vertex -42.1649 5.32666 0
      vertex -32.2437 4.07333 0
      vertex -32.5 0 0
    endloop
  endfacet
  facet normal 0 0 -1
    outer loop
      vertex -41.1648 -10.5693 0
      vertex -31.479 -8.08242 0
      vertex -39.5155 -15.6453 0
    endloop
  endfacet
  facet normal 0 0 -1
    outer loop
      vertex -26.2931 19.103 0
      vertex -34.3832 24.9809 0
      vertex -30.9812 29.0933 0
    endloop
  endfacet
  facet normal -0 0 -1
    outer loop
      vertex -31.479 -8.08242 0
      vertex -41.1648 -10.5693 0
      vertex -32.2437 -4.07333 0
    endloop
  endfacet
  facet normal 0 0 -1
    outer loop
      vertex -28.48 15.657 0
      vertex -37.243 20.4745 0
      vertex -34.3832 24.9809 0
    endloop
  endfacet
  facet normal 0 0 -1
    outer loop
      vertex -42.1649 -5.32666 0
      vertex -32.2437 -4.07333 0
      vertex -41.1648 -10.5693 0
    endloop
  endfacet
  facet normal 0 0 -1
    outer loop
      vertex -30.2177 11.964 0
      vertex -39.5155 15.6453 0
      vertex -37.243 20.4745 0
    endloop
  endfacet
  facet normal -0 0 -1
    outer loop
      vertex -32.2437 -4.07333 0
      vertex -42.1649 -5.32666 0
      vertex -32.5 0 0
    endloop
  endfacet
  facet normal 0 0 -1
    outer loop
      vertex -31.479 8.08242 0
      vertex -41.1648 10.5693 0
      vertex -39.5155 15.6453 0
    endloop
  endfacet
  facet normal 0 0 -1
    outer loop
      vertex -42.5 0 0
      vertex -32.5 0 0
      vertex -42.1649 -5.32666 0
    endloop
  endfacet
  facet normal 0 0 -1
    outer loop
      vertex -32.2437 4.07333 0
      vertex -42.1649 5.32666 0
      vertex -41.1648 10.5693 0
    endloop
  endfacet
  facet normal 0 0 -1
    outer loop
      vertex -32.5 0 0
      vertex -42.5 0 0
      vertex -42.1649 5.32666 0
    endloop
  endfacet
  facet normal 0.481768 -0.876299 0
    outer loop
      vertex 18.0956 -38.4552 0
      vertex 22.7726 -35.8839 10
      vertex 18.0956 -38.4552 10
    endloop
  endfacet
  facet normal 0.481768 -0.876299 0
    outer loop
      vertex 22.7726 -35.8839 10
      vertex 18.0956 -38.4552 0
      vertex 22.7726 -35.8839 0
    endloop
  endfacet
  facet normal 0.684536 -0.728979 0
    outer loop
      vertex 27.0905 -32.7468 0
      vertex 30.9812 -29.0933 10
      vertex 27.0905 -32.7468 10
    endloop
  endfacet
  facet normal 0.684536 -0.728979 0
    outer loop
      vertex 30.9812 -29.0933 10
      vertex 27.0905 -32.7468 0
      vertex 30.9812 -29.0933 0
    endloop
  endfacet
  facet normal 0.844332 -0.53582 0
    outer loop
      vertex 34.3832 -24.9809 10
      vertex 37.243 -20.4745 0
      vertex 37.243 -20.4745 10
    endloop
  endfacet
  facet normal 0.844332 -0.53582 0
    outer loop
      vertex 37.243 -20.4745 0
      vertex 34.3832 -24.9809 10
      vertex 34.3832 -24.9809 0
    endloop
  endfacet
  facet normal -0.368116 -0.92978 0
    outer loop
      vertex -18.0956 -38.4552 0
      vertex -13.1332 -40.4199 10
      vertex -18.0956 -38.4552 10
    endloop
  endfacet
  facet normal -0.368116 -0.92978 -0
    outer loop
      vertex -13.1332 -40.4199 10
      vertex -18.0956 -38.4552 0
      vertex -13.1332 -40.4199 0
    endloop
  endfacet
  facet normal -0.951056 -0.309018 0
    outer loop
      vertex -39.5155 -15.6453 0
      vertex -41.1648 -10.5693 10
      vertex -41.1648 -10.5693 0
    endloop
  endfacet
  facet normal -0.951056 -0.309018 0
    outer loop
      vertex -41.1648 -10.5693 10
      vertex -39.5155 -15.6453 0
      vertex -39.5155 -15.6453 10
    endloop
  endfacet
  facet normal 0.368116 -0.92978 0
    outer loop
      vertex 13.1332 -40.4199 0
      vertex 18.0956 -38.4552 10
      vertex 13.1332 -40.4199 10
    endloop
  endfacet
  facet normal 0.368116 -0.92978 0
    outer loop
      vertex 18.0956 -38.4552 10
      vertex 13.1332 -40.4199 0
      vertex 18.0956 -38.4552 0
    endloop
  endfacet
  facet normal 0.24869 -0.968583 0
    outer loop
      vertex 7.96371 -41.7472 0
      vertex 13.1332 -40.4199 10
      vertex 7.96371 -41.7472 10
    endloop
  endfacet
  facet normal 0.24869 -0.968583 0
    outer loop
      vertex 13.1332 -40.4199 10
      vertex 7.96371 -41.7472 0
      vertex 13.1332 -40.4199 0
    endloop
  endfacet
  facet normal -0.125328 -0.992115 0
    outer loop
      vertex -7.96371 -41.7472 0
      vertex -2.6686 -42.4161 10
      vertex -7.96371 -41.7472 10
    endloop
  endfacet
  facet normal -0.125328 -0.992115 -0
    outer loop
      vertex -2.6686 -42.4161 10
      vertex -7.96371 -41.7472 0
      vertex -2.6686 -42.4161 0
    endloop
  endfacet
  facet normal -0.587781 -0.80902 0
    outer loop
      vertex -27.0905 -32.7468 0
      vertex -22.7726 -35.8839 10
      vertex -27.0905 -32.7468 10
    endloop
  endfacet
  facet normal -0.587781 -0.80902 -0
    outer loop
      vertex -22.7726 -35.8839 10
      vertex -27.0905 -32.7468 0
      vertex -22.7726 -35.8839 0
    endloop
  endfacet
  facet normal -0.844332 -0.53582 0
    outer loop
      vertex -34.3832 -24.9809 0
      vertex -37.243 -20.4745 10
      vertex -37.243 -20.4745 0
    endloop
  endfacet
  facet normal -0.844332 -0.53582 0
    outer loop
      vertex -37.243 -20.4745 10
      vertex -34.3832 -24.9809 0
      vertex -34.3832 -24.9809 10
    endloop
  endfacet
  facet normal -0.982287 -0.187384 0
    outer loop
      vertex -41.1648 -10.5693 0
      vertex -42.1649 -5.32666 10
      vertex -42.1649 -5.32666 0
    endloop
  endfacet
  facet normal -0.982287 -0.187384 0
    outer loop
      vertex -42.1649 -5.32666 10
      vertex -41.1648 -10.5693 0
      vertex -41.1648 -10.5693 10
    endloop
  endfacet
  facet normal -0.998027 -0.0627858 0
    outer loop
      vertex -42.1649 -5.32666 0
      vertex -42.5 0 10
      vertex -42.5 0 0
    endloop
  endfacet
  facet normal -0.998027 -0.0627858 0
    outer loop
      vertex -42.5 0 10
      vertex -42.1649 -5.32666 0
      vertex -42.1649 -5.32666 10
    endloop
  endfacet
  facet normal 0.587781 -0.80902 0
    outer loop
      vertex 22.7726 -35.8839 0
      vertex 27.0905 -32.7468 10
      vertex 22.7726 -35.8839 10
    endloop
  endfacet
  facet normal 0.587781 -0.80902 0
    outer loop
      vertex 27.0905 -32.7468 10
      vertex 22.7726 -35.8839 0
      vertex 27.0905 -32.7468 0
    endloop
  endfacet
  facet normal -0.24869 -0.968583 0
    outer loop
      vertex -13.1332 -40.4199 0
      vertex -7.96371 -41.7472 10
      vertex -13.1332 -40.4199 10
    endloop
  endfacet
  facet normal -0.24869 -0.968583 -0
    outer loop
      vertex -7.96371 -41.7472 10
      vertex -13.1332 -40.4199 0
      vertex -7.96371 -41.7472 0
    endloop
  endfacet
  facet normal -0.481768 -0.876299 0
    outer loop
      vertex -22.7726 -35.8839 0
      vertex -18.0956 -38.4552 10
      vertex -22.7726 -35.8839 10
    endloop
  endfacet
  facet normal -0.481768 -0.876299 -0
    outer loop
      vertex -18.0956 -38.4552 10
      vertex -22.7726 -35.8839 0
      vertex -18.0956 -38.4552 0
    endloop
  endfacet
  facet normal 0.951049 -0.309039 0
    outer loop
      vertex -31.479 8.08242 10
      vertex -30.2177 11.964 0
      vertex -30.2177 11.964 10
    endloop
  endfacet
  facet normal 0.951049 -0.309039 0
    outer loop
      vertex -30.2177 11.964 0
      vertex -31.479 8.08242 10
      vertex -31.479 8.08242 0
    endloop
  endfacet
  facet normal -0.844328 -0.535827 0
    outer loop
      vertex 28.48 15.657 0
      vertex 26.2931 19.103 10
      vertex 26.2931 19.103 0
    endloop
  endfacet
  facet normal -0.844328 -0.535827 0
    outer loop
      vertex 26.2931 19.103 10
      vertex 28.48 15.657 0
      vertex 28.48 15.657 10
    endloop
  endfacet
  facet normal -0.368119 -0.929779 0
    outer loop
      vertex 10.0431 30.9093 0
      vertex 13.8378 29.4069 10
      vertex 10.0431 30.9093 10
    endloop
  endfacet
  facet normal -0.368119 -0.929779 -0
    outer loop
      vertex 13.8378 29.4069 10
      vertex 10.0431 30.9093 0
      vertex 13.8378 29.4069 0
    endloop
  endfacet
  facet normal 0.368119 -0.929779 0
    outer loop
      vertex -13.8378 29.4069 0
      vertex -10.0431 30.9093 10
      vertex -13.8378 29.4069 10
    endloop
  endfacet
  facet normal 0.368119 -0.929779 0
    outer loop
      vertex -10.0431 30.9093 10
      vertex -13.8378 29.4069 0
      vertex -10.0431 30.9093 0
    endloop
  endfacet
  facet normal 0.904836 -0.42576 0
    outer loop
      vertex -30.2177 11.964 10
      vertex -28.48 15.657 0
      vertex -28.48 15.657 10
    endloop
  endfacet
  facet normal 0.904836 -0.42576 0
    outer loop
      vertex -28.48 15.657 0
      vertex -30.2177 11.964 10
      vertex -30.2177 11.964 0
    endloop
  endfacet
  facet normal -0.982291 0.187364 0
    outer loop
      vertex 31.479 -8.08242 0
      vertex 32.2437 -4.07333 10
      vertex 32.2437 -4.07333 0
    endloop
  endfacet
  facet normal -0.982291 0.187364 0
    outer loop
      vertex 32.2437 -4.07333 10
      vertex 31.479 -8.08242 0
      vertex 31.479 -8.08242 10
    endloop
  endfacet
  facet normal -0.982291 -0.187364 0
    outer loop
      vertex 32.2437 4.07333 0
      vertex 31.479 8.08242 10
      vertex 31.479 8.08242 0
    endloop
  endfacet
  facet normal -0.982291 -0.187364 0
    outer loop
      vertex 31.479 8.08242 10
      vertex 32.2437 4.07333 0
      vertex 32.2437 4.07333 10
    endloop
  endfacet
  facet normal -0.125349 -0.992113 0
    outer loop
      vertex 2.04069 32.4359 0
      vertex 6.08989 31.9243 10
      vertex 2.04069 32.4359 10
    endloop
  endfacet
  facet normal -0.125349 -0.992113 -0
    outer loop
      vertex 6.08989 31.9243 10
      vertex 2.04069 32.4359 0
      vertex 6.08989 31.9243 0
    endloop
  endfacet
  facet normal -0.481744 -0.876312 0
    outer loop
      vertex 13.8378 29.4069 0
      vertex 17.4144 27.4407 10
      vertex 13.8378 29.4069 10
    endloop
  endfacet
  facet normal -0.481744 -0.876312 -0
    outer loop
      vertex 17.4144 27.4407 10
      vertex 13.8378 29.4069 0
      vertex 17.4144 27.4407 0
    endloop
  endfacet
  facet normal 0.982291 -0.187364 0
    outer loop
      vertex -32.2437 4.07333 10
      vertex -31.479 8.08242 0
      vertex -31.479 8.08242 10
    endloop
  endfacet
  facet normal 0.982291 -0.187364 0
    outer loop
      vertex -31.479 8.08242 0
      vertex -32.2437 4.07333 10
      vertex -32.2437 4.07333 0
    endloop
  endfacet
  facet normal 0.770514 -0.637423 0
    outer loop
      vertex -26.2931 19.103 10
      vertex -23.6915 22.2478 0
      vertex -23.6915 22.2478 10
    endloop
  endfacet
  facet normal 0.770514 -0.637423 0
    outer loop
      vertex -23.6915 22.2478 0
      vertex -26.2931 19.103 10
      vertex -26.2931 19.103 0
    endloop
  endfacet
  facet normal 0.125349 -0.992113 0
    outer loop
      vertex -6.08989 31.9243 0
      vertex -2.04069 32.4359 10
      vertex -6.08989 31.9243 10
    endloop
  endfacet
  facet normal 0.125349 -0.992113 0
    outer loop
      vertex -2.04069 32.4359 10
      vertex -6.08989 31.9243 0
      vertex -2.04069 32.4359 0
    endloop
  endfacet
  facet normal 0.684547 -0.728968 0
    outer loop
      vertex -23.6915 22.2478 0
      vertex -20.7163 25.0417 10
      vertex -23.6915 22.2478 10
    endloop
  endfacet
  facet normal 0.684547 -0.728968 0
    outer loop
      vertex -20.7163 25.0417 10
      vertex -23.6915 22.2478 0
      vertex -20.7163 25.0417 0
    endloop
  endfacet
  facet normal -0.998026 -0.0627973 0
    outer loop
      vertex 32.5 0 0
      vertex 32.2437 4.07333 10
      vertex 32.2437 4.07333 0
    endloop
  endfacet
  facet normal -0.998026 -0.0627973 0
    outer loop
      vertex 32.2437 4.07333 10
      vertex 32.5 0 0
      vertex 32.5 0 10
    endloop
  endfacet
  facet normal -0.951049 0.309039 0
    outer loop
      vertex 30.2177 -11.964 0
      vertex 31.479 -8.08242 10
      vertex 31.479 -8.08242 0
    endloop
  endfacet
  facet normal -0.951049 0.309039 0
    outer loop
      vertex 31.479 -8.08242 10
      vertex 30.2177 -11.964 0
      vertex 30.2177 -11.964 10
    endloop
  endfacet
  facet normal -0.684547 -0.728968 0
    outer loop
      vertex 20.7163 25.0417 0
      vertex 23.6915 22.2478 10
      vertex 20.7163 25.0417 10
    endloop
  endfacet
  facet normal -0.684547 -0.728968 -0
    outer loop
      vertex 23.6915 22.2478 10
      vertex 20.7163 25.0417 0
      vertex 23.6915 22.2478 0
    endloop
  endfacet
  facet normal -0.770514 -0.637423 0
    outer loop
      vertex 26.2931 19.103 0
      vertex 23.6915 22.2478 10
      vertex 23.6915 22.2478 0
    endloop
  endfacet
  facet normal -0.770514 -0.637423 0
    outer loop
      vertex 23.6915 22.2478 10
      vertex 26.2931 19.103 0
      vertex 26.2931 19.103 10
    endloop
  endfacet
  facet normal 0 -1 0
    outer loop
      vertex -2.04069 32.4359 0
      vertex 2.04069 32.4359 10
      vertex -2.04069 32.4359 10
    endloop
  endfacet
  facet normal 0 -1 -0
    outer loop
      vertex 2.04069 32.4359 10
      vertex -2.04069 32.4359 0
      vertex 2.04069 32.4359 0
    endloop
  endfacet
  facet normal -0.248687 -0.968584 0
    outer loop
      vertex 6.08989 31.9243 0
      vertex 10.0431 30.9093 10
      vertex 6.08989 31.9243 10
    endloop
  endfacet
  facet normal -0.248687 -0.968584 -0
    outer loop
      vertex 10.0431 30.9093 10
      vertex 6.08989 31.9243 0
      vertex 10.0431 30.9093 0
    endloop
  endfacet
  facet normal -0.58779 -0.809014 0
    outer loop
      vertex 17.4144 27.4407 0
      vertex 20.7163 25.0417 10
      vertex 17.4144 27.4407 10
    endloop
  endfacet
  facet normal -0.58779 -0.809014 -0
    outer loop
      vertex 20.7163 25.0417 10
      vertex 17.4144 27.4407 0
      vertex 20.7163 25.0417 0
    endloop
  endfacet
  facet normal 0.998026 -0.0627973 0
    outer loop
      vertex -32.5 0 10
      vertex -32.2437 4.07333 0
      vertex -32.2437 4.07333 10
    endloop
  endfacet
  facet normal 0.998026 -0.0627973 0
    outer loop
      vertex -32.2437 4.07333 0
      vertex -32.5 0 10
      vertex -32.5 0 0
    endloop
  endfacet
  facet normal 0.844328 -0.535827 0
    outer loop
      vertex -28.48 15.657 10
      vertex -26.2931 19.103 0
      vertex -26.2931 19.103 10
    endloop
  endfacet
  facet normal 0.844328 -0.535827 0
    outer loop
      vertex -26.2931 19.103 0
      vertex -28.48 15.657 10
      vertex -28.48 15.657 0
    endloop
  endfacet
  facet normal 0.248687 -0.968584 0
    outer loop
      vertex -10.0431 30.9093 0
      vertex -6.08989 31.9243 10
      vertex -10.0431 30.9093 10
    endloop
  endfacet
  facet normal 0.248687 -0.968584 0
    outer loop
      vertex -6.08989 31.9243 10
      vertex -10.0431 30.9093 0
      vertex -6.08989 31.9243 0
    endloop
  endfacet
  facet normal 0.58779 -0.809014 0
    outer loop
      vertex -20.7163 25.0417 0
      vertex -17.4144 27.4407 10
      vertex -20.7163 25.0417 10
    endloop
  endfacet
  facet normal 0.58779 -0.809014 0
    outer loop
      vertex -17.4144 27.4407 10
      vertex -20.7163 25.0417 0
      vertex -17.4144 27.4407 0
    endloop
  endfacet
  facet normal 0.481744 -0.876312 0
    outer loop
      vertex -17.4144 27.4407 0
      vertex -13.8378 29.4069 10
      vertex -17.4144 27.4407 10
    endloop
  endfacet
  facet normal 0.481744 -0.876312 0
    outer loop
      vertex -13.8378 29.4069 10
      vertex -17.4144 27.4407 0
      vertex -13.8378 29.4069 0
    endloop
  endfacet
  facet normal -0.998026 0.0627973 0
    outer loop
      vertex 32.2437 -4.07333 0
      vertex 32.5 0 10
      vertex 32.5 0 0
    endloop
  endfacet
  facet normal -0.998026 0.0627973 0
    outer loop
      vertex 32.5 0 10
      vertex 32.2437 -4.07333 0
      vertex 32.2437 -4.07333 10
    endloop
  endfacet
  facet normal 0 1 -0
    outer loop
      vertex 2.04069 -32.4359 0
      vertex -2.04069 -32.4359 10
      vertex 2.04069 -32.4359 10
    endloop
  endfacet
  facet normal 0 1 0
    outer loop
      vertex -2.04069 -32.4359 10
      vertex 2.04069 -32.4359 0
      vertex -2.04069 -32.4359 0
    endloop
  endfacet
  facet normal 0.951049 0.309039 0
    outer loop
      vertex -30.2177 -11.964 10
      vertex -31.479 -8.08242 0
      vertex -31.479 -8.08242 10
    endloop
  endfacet
  facet normal 0.951049 0.309039 0
    outer loop
      vertex -31.479 -8.08242 0
      vertex -30.2177 -11.964 10
      vertex -30.2177 -11.964 0
    endloop
  endfacet
  facet normal 0.904836 0.42576 0
    outer loop
      vertex -28.48 -15.657 10
      vertex -30.2177 -11.964 0
      vertex -30.2177 -11.964 10
    endloop
  endfacet
  facet normal 0.904836 0.42576 0
    outer loop
      vertex -30.2177 -11.964 0
      vertex -28.48 -15.657 10
      vertex -28.48 -15.657 0
    endloop
  endfacet
  facet normal -0.125349 0.992113 0
    outer loop
      vertex 6.08989 -31.9243 0
      vertex 2.04069 -32.4359 10
      vertex 6.08989 -31.9243 10
    endloop
  endfacet
  facet normal -0.125349 0.992113 0
    outer loop
      vertex 2.04069 -32.4359 10
      vertex 6.08989 -31.9243 0
      vertex 2.04069 -32.4359 0
    endloop
  endfacet
  facet normal -0.904836 -0.42576 0
    outer loop
      vertex 30.2177 11.964 0
      vertex 28.48 15.657 10
      vertex 28.48 15.657 0
    endloop
  endfacet
  facet normal -0.904836 -0.42576 0
    outer loop
      vertex 28.48 15.657 10
      vertex 30.2177 11.964 0
      vertex 30.2177 11.964 10
    endloop
  endfacet
  facet normal -0.951049 -0.309039 0
    outer loop
      vertex 31.479 8.08242 0
      vertex 30.2177 11.964 10
      vertex 30.2177 11.964 0
    endloop
  endfacet
  facet normal -0.951049 -0.309039 0
    outer loop
      vertex 30.2177 11.964 10
      vertex 31.479 8.08242 0
      vertex 31.479 8.08242 10
    endloop
  endfacet
  facet normal -0.770514 0.637423 0
    outer loop
      vertex 23.6915 -22.2478 0
      vertex 26.2931 -19.103 10
      vertex 26.2931 -19.103 0
    endloop
  endfacet
  facet normal -0.770514 0.637423 0
    outer loop
      vertex 26.2931 -19.103 10
      vertex 23.6915 -22.2478 0
      vertex 23.6915 -22.2478 10
    endloop
  endfacet
  facet normal -0.844328 0.535827 0
    outer loop
      vertex 26.2931 -19.103 0
      vertex 28.48 -15.657 10
      vertex 28.48 -15.657 0
    endloop
  endfacet
  facet normal -0.844328 0.535827 0
    outer loop
      vertex 28.48 -15.657 10
      vertex 26.2931 -19.103 0
      vertex 26.2931 -19.103 10
    endloop
  endfacet
  facet normal 0.248687 0.968584 -0
    outer loop
      vertex -6.08989 -31.9243 0
      vertex -10.0431 -30.9093 10
      vertex -6.08989 -31.9243 10
    endloop
  endfacet
  facet normal 0.248687 0.968584 0
    outer loop
      vertex -10.0431 -30.9093 10
      vertex -6.08989 -31.9243 0
      vertex -10.0431 -30.9093 0
    endloop
  endfacet
  facet normal 0.998026 0.0627973 0
    outer loop
      vertex -32.2437 -4.07333 10
      vertex -32.5 0 0
      vertex -32.5 0 10
    endloop
  endfacet
  facet normal 0.998026 0.0627973 0
    outer loop
      vertex -32.5 0 0
      vertex -32.2437 -4.07333 10
      vertex -32.2437 -4.07333 0
    endloop
  endfacet
  facet normal -0.368119 0.929779 0
    outer loop
      vertex 13.8378 -29.4069 0
      vertex 10.0431 -30.9093 10
      vertex 13.8378 -29.4069 10
    endloop
  endfacet
  facet normal -0.368119 0.929779 0
    outer loop
      vertex 10.0431 -30.9093 10
      vertex 13.8378 -29.4069 0
      vertex 10.0431 -30.9093 0
    endloop
  endfacet
  facet normal -0.248687 0.968584 0
    outer loop
      vertex 10.0431 -30.9093 0
      vertex 6.08989 -31.9243 10
      vertex 10.0431 -30.9093 10
    endloop
  endfacet
  facet normal -0.248687 0.968584 0
    outer loop
      vertex 6.08989 -31.9243 10
      vertex 10.0431 -30.9093 0
      vertex 6.08989 -31.9243 0
    endloop
  endfacet
  facet normal -0.684547 0.728968 0
    outer loop
      vertex 23.6915 -22.2478 0
      vertex 20.7163 -25.0417 10
      vertex 23.6915 -22.2478 10
    endloop
  endfacet
  facet normal -0.684547 0.728968 0
    outer loop
      vertex 20.7163 -25.0417 10
      vertex 23.6915 -22.2478 0
      vertex 20.7163 -25.0417 0
    endloop
  endfacet
  facet normal -0.904836 0.42576 0
    outer loop
      vertex 28.48 -15.657 0
      vertex 30.2177 -11.964 10
      vertex 30.2177 -11.964 0
    endloop
  endfacet
  facet normal -0.904836 0.42576 0
    outer loop
      vertex 30.2177 -11.964 10
      vertex 28.48 -15.657 0
      vertex 28.48 -15.657 10
    endloop
  endfacet
  facet normal 0.368119 0.929779 -0
    outer loop
      vertex -10.0431 -30.9093 0
      vertex -13.8378 -29.4069 10
      vertex -10.0431 -30.9093 10
    endloop
  endfacet
  facet normal 0.368119 0.929779 0
    outer loop
      vertex -13.8378 -29.4069 10
      vertex -10.0431 -30.9093 0
      vertex -13.8378 -29.4069 0
    endloop
  endfacet
  facet normal 0.125349 0.992113 -0
    outer loop
      vertex -2.04069 -32.4359 0
      vertex -6.08989 -31.9243 10
      vertex -2.04069 -32.4359 10
    endloop
  endfacet
  facet normal 0.125349 0.992113 0
    outer loop
      vertex -6.08989 -31.9243 10
      vertex -2.04069 -32.4359 0
      vertex -6.08989 -31.9243 0
    endloop
  endfacet
  facet normal 0.770514 0.637423 0
    outer loop
      vertex -23.6915 -22.2478 10
      vertex -26.2931 -19.103 0
      vertex -26.2931 -19.103 10
    endloop
  endfacet
  facet normal 0.770514 0.637423 0
    outer loop
      vertex -26.2931 -19.103 0
      vertex -23.6915 -22.2478 10
      vertex -23.6915 -22.2478 0
    endloop
  endfacet
  facet normal 0.684547 0.728968 -0
    outer loop
      vertex -20.7163 -25.0417 0
      vertex -23.6915 -22.2478 10
      vertex -20.7163 -25.0417 10
    endloop
  endfacet
  facet normal 0.684547 0.728968 0
    outer loop
      vertex -23.6915 -22.2478 10
      vertex -20.7163 -25.0417 0
      vertex -23.6915 -22.2478 0
    endloop
  endfacet
  facet normal 0.982291 0.187364 0
    outer loop
      vertex -31.479 -8.08242 10
      vertex -32.2437 -4.07333 0
      vertex -32.2437 -4.07333 10
    endloop
  endfacet
  facet normal 0.982291 0.187364 0
    outer loop
      vertex -32.2437 -4.07333 0
      vertex -31.479 -8.08242 10
      vertex -31.479 -8.08242 0
    endloop
  endfacet
  facet normal -0.58779 0.809014 0
    outer loop
      vertex 20.7163 -25.0417 0
      vertex 17.4144 -27.4407 10
      vertex 20.7163 -25.0417 10
    endloop
  endfacet
  facet normal -0.58779 0.809014 0
    outer loop
      vertex 17.4144 -27.4407 10
      vertex 20.7163 -25.0417 0
      vertex 17.4144 -27.4407 0
    endloop
  endfacet
  facet normal -0.481744 0.876312 0
    outer loop
      vertex 17.4144 -27.4407 0
      vertex 13.8378 -29.4069 10
      vertex 17.4144 -27.4407 10
    endloop
  endfacet
  facet normal -0.481744 0.876312 0
    outer loop
      vertex 13.8378 -29.4069 10
      vertex 17.4144 -27.4407 0
      vertex 13.8378 -29.4069 0
    endloop
  endfacet
  facet normal 0.844328 0.535827 0
    outer loop
      vertex -26.2931 -19.103 10
      vertex -28.48 -15.657 0
      vertex -28.48 -15.657 10
    endloop
  endfacet
  facet normal 0.844328 0.535827 0
    outer loop
      vertex -28.48 -15.657 0
      vertex -26.2931 -19.103 10
      vertex -26.2931 -19.103 0
    endloop
  endfacet
  facet normal 0.481744 0.876312 -0
    outer loop
      vertex -13.8378 -29.4069 0
      vertex -17.4144 -27.4407 10
      vertex -13.8378 -29.4069 10
    endloop
  endfacet
  facet normal 0.481744 0.876312 0
    outer loop
      vertex -17.4144 -27.4407 10
      vertex -13.8378 -29.4069 0
      vertex -17.4144 -27.4407 0
    endloop
  endfacet
  facet normal 0.58779 0.809014 -0
    outer loop
      vertex -17.4144 -27.4407 0
      vertex -20.7163 -25.0417 10
      vertex -17.4144 -27.4407 10
    endloop
  endfacet
  facet normal 0.58779 0.809014 0
    outer loop
      vertex -20.7163 -25.0417 10
      vertex -17.4144 -27.4407 0
      vertex -20.7163 -25.0417 0
    endloop
  endfacet
endsolid OpenSCAD_Model
