<?xml version="1.0" standalone="no"?>
<!DOCTYPE svg PUBLIC "-//W3C//DTD SVG 1.1//EN" "http://www.w3.org/Graphics/SVG/1.1/DTD/svg11.dtd">
<svg width="24mm" height="694mm" viewBox="-12 -1283 24 694" xmlns="http://www.w3.org/2000/svg" version="1.1">
<title>OpenSCAD Model</title>
<path d="
M 7.1869,-1057.59 L 7.79507,-1057.74 L 8.37889,-1057.98 L 8.92912,-1058.28 L 9.43712,-1058.65 L 9.89484,-1059.08
 L 10.2951,-1059.56 L 10.6315,-1060.09 L 10.8989,-1060.66 L 11.0929,-1061.26 L 11.2106,-1061.87 L 11.25,-1062.5
 L 11.25,-1277.5 L 11.2106,-1278.13 L 11.0929,-1278.74 L 10.8989,-1279.34 L 10.6315,-1279.91 L 10.2951,-1280.44
 L 9.89484,-1280.92 L 9.43712,-1281.35 L 8.92912,-1281.72 L 8.37889,-1282.02 L 7.79507,-1282.26 L 7.1869,-1282.41
 L 6.56395,-1282.49 L -6.56395,-1282.49 L -7.1869,-1282.41 L -7.79507,-1282.26 L -8.37889,-1282.02 L -8.92912,-1281.72
 L -9.43712,-1281.35 L -9.89484,-1280.92 L -10.2951,-1280.44 L -10.6315,-1279.91 L -10.8989,-1279.34 L -11.0929,-1278.74
 L -11.2106,-1278.13 L -11.25,-1277.5 L -11.25,-1062.5 L -11.2106,-1061.87 L -11.0929,-1061.26 L -10.8989,-1060.66
 L -10.6315,-1060.09 L -10.2951,-1059.56 L -9.89484,-1059.08 L -9.43712,-1058.65 L -8.92912,-1058.28 L -8.37889,-1057.98
 L -7.79507,-1057.74 L -7.1869,-1057.59 L -6.56395,-1057.51 L 6.56395,-1057.51 z
M -6.00116,-1059.01 L -6.49951,-1059.07 L -6.98605,-1059.2 L -7.45311,-1059.38 L -7.8933,-1059.62 L -8.29968,-1059.92
 L -8.66586,-1060.26 L -8.98605,-1060.65 L -9.25522,-1061.07 L -9.4691,-1061.53 L -9.62433,-1062.01 L -9.71844,-1062.5
 L -9.75,-1063 L -9.75,-1277 L -9.71844,-1277.5 L -9.62433,-1277.99 L -9.4691,-1278.47 L -9.25522,-1278.93
 L -8.98605,-1279.35 L -8.66586,-1279.74 L -8.29968,-1280.08 L -7.8933,-1280.38 L -7.45311,-1280.62 L -6.98605,-1280.8
 L -6.49951,-1280.93 L -6.00116,-1280.99 L 6.00116,-1280.99 L 6.49951,-1280.93 L 6.98605,-1280.8 L 7.45311,-1280.62
 L 7.8933,-1280.38 L 8.29968,-1280.08 L 8.66586,-1279.74 L 8.98605,-1279.35 L 9.25522,-1278.93 L 9.4691,-1278.47
 L 9.62433,-1277.99 L 9.71844,-1277.5 L 9.75,-1277 L 9.75,-1063 L 9.71844,-1062.5 L 9.62433,-1062.01
 L 9.4691,-1061.53 L 9.25522,-1061.07 L 8.98605,-1060.65 L 8.66586,-1060.26 L 8.29968,-1059.92 L 7.8933,-1059.62
 L 7.45311,-1059.38 L 6.98605,-1059.2 L 6.49951,-1059.07 L 6.00116,-1059.01 z
M 7.1869,-823.589 L 7.79507,-823.745 L 8.37889,-823.976 L 8.92912,-824.278 L 9.43712,-824.647 L 9.89484,-825.077
 L 10.2951,-825.561 L 10.6315,-826.091 L 10.8989,-826.659 L 11.0929,-827.257 L 11.2106,-827.873 L 11.25,-828.5
 L 11.25,-1043.5 L 11.2106,-1044.13 L 11.0929,-1044.74 L 10.8989,-1045.34 L 10.6315,-1045.91 L 10.2951,-1046.44
 L 9.89484,-1046.92 L 9.43712,-1047.35 L 8.92912,-1047.72 L 8.37889,-1048.02 L 7.79507,-1048.26 L 7.1869,-1048.41
 L 6.56395,-1048.49 L -6.56395,-1048.49 L -7.1869,-1048.41 L -7.79507,-1048.26 L -8.37889,-1048.02 L -8.92912,-1047.72
 L -9.43712,-1047.35 L -9.89484,-1046.92 L -10.2951,-1046.44 L -10.6315,-1045.91 L -10.8989,-1045.34 L -11.0929,-1044.74
 L -11.2106,-1044.13 L -11.25,-1043.5 L -11.25,-828.5 L -11.2106,-827.873 L -11.0929,-827.257 L -10.8989,-826.659
 L -10.6315,-826.091 L -10.2951,-825.561 L -9.89484,-825.077 L -9.43712,-824.647 L -8.92912,-824.278 L -8.37889,-823.976
 L -7.79507,-823.745 L -7.1869,-823.589 L -6.56395,-823.51 L 6.56395,-823.51 z
M -5.94545,-825.893 L -6.3333,-825.942 L -6.71194,-826.039 L -7.07541,-826.183 L -7.41798,-826.372 L -7.73424,-826.601
 L -8.01921,-826.869 L -8.2684,-827.17 L -8.47786,-827.5 L -8.64432,-827.854 L -8.76512,-828.226 L -8.83836,-828.61
 L -8.86292,-829 L -8.86292,-1043 L -8.83836,-1043.39 L -8.76512,-1043.77 L -8.64432,-1044.15 L -8.47786,-1044.5
 L -8.2684,-1044.83 L -8.01921,-1045.13 L -7.73424,-1045.4 L -7.41798,-1045.63 L -7.07541,-1045.82 L -6.71194,-1045.96
 L -6.3333,-1046.06 L -5.94545,-1046.11 L 5.94545,-1046.11 L 6.3333,-1046.06 L 6.71194,-1045.96 L 7.07541,-1045.82
 L 7.41798,-1045.63 L 7.73424,-1045.4 L 8.01921,-1045.13 L 8.2684,-1044.83 L 8.47786,-1044.5 L 8.64432,-1044.15
 L 8.76512,-1043.77 L 8.83836,-1043.39 L 8.86292,-1043 L 8.86292,-829 L 8.83836,-828.61 L 8.76512,-828.226
 L 8.64432,-827.854 L 8.47786,-827.5 L 8.2684,-827.17 L 8.01921,-826.869 L 7.73424,-826.601 L 7.41798,-826.372
 L 7.07541,-826.183 L 6.71194,-826.039 L 6.3333,-825.942 L 5.94545,-825.893 z
M 7.1869,-589.589 L 7.79507,-589.745 L 8.37889,-589.976 L 8.92912,-590.278 L 9.43712,-590.647 L 9.89484,-591.077
 L 10.2951,-591.561 L 10.6315,-592.091 L 10.8989,-592.659 L 11.0929,-593.257 L 11.2106,-593.873 L 11.25,-594.5
 L 11.25,-809.5 L 11.2106,-810.127 L 11.0929,-810.743 L 10.8989,-811.341 L 10.6315,-811.909 L 10.2951,-812.439
 L 9.89484,-812.923 L 9.43712,-813.353 L 8.92912,-813.722 L 8.37889,-814.024 L 7.79507,-814.255 L 7.1869,-814.411
 L 6.56395,-814.49 L -6.56395,-814.49 L -7.1869,-814.411 L -7.79507,-814.255 L -8.37889,-814.024 L -8.92912,-813.722
 L -9.43712,-813.353 L -9.89484,-812.923 L -10.2951,-812.439 L -10.6315,-811.909 L -10.8989,-811.341 L -11.0929,-810.743
 L -11.2106,-810.127 L -11.25,-809.5 L -11.25,-594.5 L -11.2106,-593.873 L -11.0929,-593.257 L -10.8989,-592.659
 L -10.6315,-592.091 L -10.2951,-591.561 L -9.89484,-591.077 L -9.43712,-590.647 L -8.92912,-590.278 L -8.37889,-589.976
 L -7.79507,-589.745 L -7.1869,-589.589 L -6.56395,-589.51 L 6.56395,-589.51 z
M 3.61592,-804.869 L 3.34988,-804.903 L 3.09015,-804.969 L 2.84084,-805.068 L 2.60585,-805.197 L 2.3889,-805.355
 L 2.19344,-805.538 L 2.02251,-805.745 L 1.87881,-805.971 L 1.76465,-806.214 L 1.68178,-806.469 L 1.63153,-806.732
 L 1.6147,-807 L 1.63153,-807.268 L 1.68178,-807.531 L 1.76465,-807.786 L 1.87881,-808.029 L 2.02251,-808.255
 L 2.19344,-808.462 L 2.3889,-808.645 L 2.60585,-808.803 L 2.84084,-808.932 L 3.09015,-809.031 L 3.34988,-809.097
 L 3.61592,-809.131 L 3.88406,-809.131 L 4.1501,-809.097 L 4.40984,-809.031 L 4.65915,-808.932 L 4.89413,-808.803
 L 5.11108,-808.645 L 5.30655,-808.462 L 5.47748,-808.255 L 5.62117,-808.029 L 5.73534,-807.786 L 5.81821,-807.531
 L 5.86845,-807.268 L 5.88528,-807 L 5.86845,-806.732 L 5.81821,-806.469 L 5.73534,-806.214 L 5.62117,-805.971
 L 5.47748,-805.745 L 5.30655,-805.538 L 5.11108,-805.355 L 4.89413,-805.197 L 4.65915,-805.068 L 4.40984,-804.969
 L 4.1501,-804.903 L 3.88406,-804.869 z
M -3.88406,-804.869 L -4.1501,-804.903 L -4.40984,-804.969 L -4.65915,-805.068 L -4.89413,-805.197 L -5.11108,-805.355
 L -5.30655,-805.538 L -5.47748,-805.745 L -5.62117,-805.971 L -5.73534,-806.214 L -5.81821,-806.469 L -5.86845,-806.732
 L -5.88528,-807 L -5.86845,-807.268 L -5.81821,-807.531 L -5.73534,-807.786 L -5.62117,-808.029 L -5.47748,-808.255
 L -5.30655,-808.462 L -5.11108,-808.645 L -4.89413,-808.803 L -4.65915,-808.932 L -4.40984,-809.031 L -4.1501,-809.097
 L -3.88406,-809.131 L -3.61592,-809.131 L -3.34988,-809.097 L -3.09015,-809.031 L -2.84084,-808.932 L -2.60585,-808.803
 L -2.3889,-808.645 L -2.19344,-808.462 L -2.02251,-808.255 L -1.87881,-808.029 L -1.76465,-807.786 L -1.68178,-807.531
 L -1.63153,-807.268 L -1.6147,-807 L -1.63153,-806.732 L -1.68178,-806.469 L -1.76465,-806.214 L -1.87881,-805.971
 L -2.02251,-805.745 L -2.19344,-805.538 L -2.3889,-805.355 L -2.60585,-805.197 L -2.84084,-805.068 L -3.09015,-804.969
 L -3.34988,-804.903 L -3.61592,-804.869 z
M 3.61592,-594.869 L 3.34988,-594.903 L 3.09015,-594.969 L 2.84084,-595.068 L 2.60585,-595.197 L 2.3889,-595.355
 L 2.19344,-595.538 L 2.02251,-595.745 L 1.87881,-595.971 L 1.76465,-596.214 L 1.68178,-596.469 L 1.63153,-596.732
 L 1.6147,-597 L 1.63153,-597.268 L 1.68178,-597.531 L 1.76465,-597.786 L 1.87881,-598.029 L 2.02251,-598.255
 L 2.19344,-598.462 L 2.3889,-598.645 L 2.60585,-598.803 L 2.84084,-598.932 L 3.09015,-599.031 L 3.34988,-599.097
 L 3.61592,-599.131 L 3.88406,-599.131 L 4.1501,-599.097 L 4.40984,-599.031 L 4.65915,-598.932 L 4.89413,-598.803
 L 5.11108,-598.645 L 5.30655,-598.462 L 5.47748,-598.255 L 5.62117,-598.029 L 5.73534,-597.786 L 5.81821,-597.531
 L 5.86845,-597.268 L 5.88528,-597 L 5.86845,-596.732 L 5.81821,-596.469 L 5.73534,-596.214 L 5.62117,-595.971
 L 5.47748,-595.745 L 5.30655,-595.538 L 5.11108,-595.355 L 4.89413,-595.197 L 4.65915,-595.068 L 4.40984,-594.969
 L 4.1501,-594.903 L 3.88406,-594.869 z
M -3.88406,-594.869 L -4.1501,-594.903 L -4.40984,-594.969 L -4.65915,-595.068 L -4.89413,-595.197 L -5.11108,-595.355
 L -5.30655,-595.538 L -5.47748,-595.745 L -5.62117,-595.971 L -5.73534,-596.214 L -5.81821,-596.469 L -5.86845,-596.732
 L -5.88528,-597 L -5.86845,-597.268 L -5.81821,-597.531 L -5.73534,-597.786 L -5.62117,-598.029 L -5.47748,-598.255
 L -5.30655,-598.462 L -5.11108,-598.645 L -4.89413,-598.803 L -4.65915,-598.932 L -4.40984,-599.031 L -4.1501,-599.097
 L -3.88406,-599.131 L -3.61592,-599.131 L -3.34988,-599.097 L -3.09015,-599.031 L -2.84084,-598.932 L -2.60585,-598.803
 L -2.3889,-598.645 L -2.19344,-598.462 L -2.02251,-598.255 L -1.87881,-598.029 L -1.76465,-597.786 L -1.68178,-597.531
 L -1.63153,-597.268 L -1.6147,-597 L -1.63153,-596.732 L -1.68178,-596.469 L -1.76465,-596.214 L -1.87881,-595.971
 L -2.02251,-595.745 L -2.19344,-595.538 L -2.3889,-595.355 L -2.60585,-595.197 L -2.84084,-595.068 L -3.09015,-594.969
 L -3.34988,-594.903 L -3.61592,-594.869 z
" stroke="black" fill="lightgray" stroke-width="0.5"/>
</svg>
