<?xml version="1.0" standalone="no"?>
<!DOCTYPE svg PUBLIC "-//W3C//DTD SVG 1.1//EN" "http://www.w3.org/Graphics/SVG/1.1/DTD/svg11.dtd">
<svg width="38mm" height="262mm" viewBox="-19 -509 38 262" xmlns="http://www.w3.org/2000/svg" version="1.1">
<title>OpenSCAD Model</title>
<path d="
M 14.6869,-463.589 L 15.2951,-463.745 L 15.8789,-463.976 L 16.4291,-464.278 L 16.9371,-464.647 L 17.3948,-465.077
 L 17.7951,-465.561 L 18.1315,-466.091 L 18.3989,-466.659 L 18.5929,-467.257 L 18.7106,-467.873 L 18.75,-468.5
 L 18.75,-503.5 L 18.7106,-504.127 L 18.5929,-504.743 L 18.3989,-505.341 L 18.1315,-505.909 L 17.7951,-506.439
 L 17.3948,-506.923 L 16.9371,-507.353 L 16.4291,-507.722 L 15.8789,-508.024 L 15.2951,-508.255 L 14.6869,-508.411
 L 14.0639,-508.49 L -14.0639,-508.49 L -14.6869,-508.411 L -15.2951,-508.255 L -15.8789,-508.024 L -16.4291,-507.722
 L -16.9371,-507.353 L -17.3948,-506.923 L -17.7951,-506.439 L -18.1315,-505.909 L -18.3989,-505.341 L -18.5929,-504.743
 L -18.7106,-504.127 L -18.75,-503.5 L -18.75,-468.5 L -18.7106,-467.873 L -18.5929,-467.257 L -18.3989,-466.659
 L -18.1315,-466.091 L -17.7951,-465.561 L -17.3948,-465.077 L -16.9371,-464.647 L -16.4291,-464.278 L -15.8789,-463.976
 L -15.2951,-463.745 L -14.6869,-463.589 L -14.0639,-463.51 L 14.0639,-463.51 z
M -13.5012,-465.008 L -13.9995,-465.071 L -14.4861,-465.196 L -14.9531,-465.381 L -15.3933,-465.623 L -15.7997,-465.918
 L -16.1659,-466.262 L -16.4861,-466.649 L -16.7552,-467.073 L -16.9691,-467.528 L -17.1243,-468.005 L -17.2184,-468.499
 L -17.25,-469 L -17.25,-503 L -17.2184,-503.501 L -17.1243,-503.995 L -16.9691,-504.472 L -16.7552,-504.927
 L -16.4861,-505.351 L -16.1659,-505.738 L -15.7997,-506.082 L -15.3933,-506.377 L -14.9531,-506.619 L -14.4861,-506.804
 L -13.9995,-506.929 L -13.5012,-506.992 L 13.5012,-506.992 L 13.9995,-506.929 L 14.4861,-506.804 L 14.9531,-506.619
 L 15.3933,-506.377 L 15.7997,-506.082 L 16.1659,-505.738 L 16.4861,-505.351 L 16.7552,-504.927 L 16.9691,-504.472
 L 17.1243,-503.995 L 17.2184,-503.501 L 17.25,-503 L 17.25,-469 L 17.2184,-468.499 L 17.1243,-468.005
 L 16.9691,-467.528 L 16.7552,-467.073 L 16.4861,-466.649 L 16.1659,-466.262 L 15.7997,-465.918 L 15.3933,-465.623
 L 14.9531,-465.381 L 14.4861,-465.196 L 13.9995,-465.071 L 13.5012,-465.008 z
M 14.6869,-409.589 L 15.2951,-409.745 L 15.8789,-409.976 L 16.4291,-410.278 L 16.9371,-410.647 L 17.3948,-411.077
 L 17.7951,-411.561 L 18.1315,-412.091 L 18.3989,-412.659 L 18.5929,-413.257 L 18.7106,-413.873 L 18.75,-414.5
 L 18.75,-449.5 L 18.7106,-450.127 L 18.5929,-450.743 L 18.3989,-451.341 L 18.1315,-451.909 L 17.7951,-452.439
 L 17.3948,-452.923 L 16.9371,-453.353 L 16.4291,-453.722 L 15.8789,-454.024 L 15.2951,-454.255 L 14.6869,-454.411
 L 14.0639,-454.49 L -14.0639,-454.49 L -14.6869,-454.411 L -15.2951,-454.255 L -15.8789,-454.024 L -16.4291,-453.722
 L -16.9371,-453.353 L -17.3948,-452.923 L -17.7951,-452.439 L -18.1315,-451.909 L -18.3989,-451.341 L -18.5929,-450.743
 L -18.7106,-450.127 L -18.75,-449.5 L -18.75,-414.5 L -18.7106,-413.873 L -18.5929,-413.257 L -18.3989,-412.659
 L -18.1315,-412.091 L -17.7951,-411.561 L -17.3948,-411.077 L -16.9371,-410.647 L -16.4291,-410.278 L -15.8789,-409.976
 L -15.2951,-409.745 L -14.6869,-409.589 L -14.0639,-409.51 L 14.0639,-409.51 z
M -13.5012,-411.008 L -13.9995,-411.071 L -14.4861,-411.196 L -14.9531,-411.381 L -15.3933,-411.623 L -15.7997,-411.918
 L -16.1659,-412.262 L -16.4861,-412.649 L -16.7552,-413.073 L -16.9691,-413.528 L -17.1243,-414.005 L -17.2184,-414.499
 L -17.25,-415 L -17.25,-449 L -17.2184,-449.501 L -17.1243,-449.995 L -16.9691,-450.472 L -16.7552,-450.927
 L -16.4861,-451.351 L -16.1659,-451.738 L -15.7997,-452.082 L -15.3933,-452.377 L -14.9531,-452.619 L -14.4861,-452.804
 L -13.9995,-452.929 L -13.5012,-452.992 L 13.5012,-452.992 L 13.9995,-452.929 L 14.4861,-452.804 L 14.9531,-452.619
 L 15.3933,-452.377 L 15.7997,-452.082 L 16.1659,-451.738 L 16.4861,-451.351 L 16.7552,-450.927 L 16.9691,-450.472
 L 17.1243,-449.995 L 17.2184,-449.501 L 17.25,-449 L 17.25,-415 L 17.2184,-414.499 L 17.1243,-414.005
 L 16.9691,-413.528 L 16.7552,-413.073 L 16.4861,-412.649 L 16.1659,-412.262 L 15.7997,-411.918 L 15.3933,-411.623
 L 14.9531,-411.381 L 14.4861,-411.196 L 13.9995,-411.071 L 13.5012,-411.008 z
M 14.6869,-355.589 L 15.2951,-355.745 L 15.8789,-355.976 L 16.4291,-356.278 L 16.9371,-356.647 L 17.3948,-357.077
 L 17.7951,-357.561 L 18.1315,-358.091 L 18.3989,-358.659 L 18.5929,-359.257 L 18.7106,-359.873 L 18.75,-360.5
 L 18.75,-395.5 L 18.7106,-396.127 L 18.5929,-396.743 L 18.3989,-397.341 L 18.1315,-397.909 L 17.7951,-398.439
 L 17.3948,-398.923 L 16.9371,-399.353 L 16.4291,-399.722 L 15.8789,-400.024 L 15.2951,-400.255 L 14.6869,-400.411
 L 14.0639,-400.49 L -14.0639,-400.49 L -14.6869,-400.411 L -15.2951,-400.255 L -15.8789,-400.024 L -16.4291,-399.722
 L -16.9371,-399.353 L -17.3948,-398.923 L -17.7951,-398.439 L -18.1315,-397.909 L -18.3989,-397.341 L -18.5929,-396.743
 L -18.7106,-396.127 L -18.75,-395.5 L -18.75,-360.5 L -18.7106,-359.873 L -18.5929,-359.257 L -18.3989,-358.659
 L -18.1315,-358.091 L -17.7951,-357.561 L -17.3948,-357.077 L -16.9371,-356.647 L -16.4291,-356.278 L -15.8789,-355.976
 L -15.2951,-355.745 L -14.6869,-355.589 L -14.0639,-355.51 L 14.0639,-355.51 z
M -13.5012,-357.008 L -13.9995,-357.071 L -14.4861,-357.196 L -14.9531,-357.381 L -15.3933,-357.623 L -15.7997,-357.918
 L -16.1659,-358.262 L -16.4861,-358.649 L -16.7552,-359.073 L -16.9691,-359.528 L -17.1243,-360.005 L -17.2184,-360.499
 L -17.25,-361 L -17.25,-395 L -17.2184,-395.501 L -17.1243,-395.995 L -16.9691,-396.472 L -16.7552,-396.927
 L -16.4861,-397.351 L -16.1659,-397.738 L -15.7997,-398.082 L -15.3933,-398.377 L -14.9531,-398.619 L -14.4861,-398.804
 L -13.9995,-398.929 L -13.5012,-398.992 L 13.5012,-398.992 L 13.9995,-398.929 L 14.4861,-398.804 L 14.9531,-398.619
 L 15.3933,-398.377 L 15.7997,-398.082 L 16.1659,-397.738 L 16.4861,-397.351 L 16.7552,-396.927 L 16.9691,-396.472
 L 17.1243,-395.995 L 17.2184,-395.501 L 17.25,-395 L 17.25,-361 L 17.2184,-360.499 L 17.1243,-360.005
 L 16.9691,-359.528 L 16.7552,-359.073 L 16.4861,-358.649 L 16.1659,-358.262 L 15.7997,-357.918 L 15.3933,-357.623
 L 14.9531,-357.381 L 14.4861,-357.196 L 13.9995,-357.071 L 13.5012,-357.008 z
M 14.6869,-301.589 L 15.2951,-301.745 L 15.8789,-301.976 L 16.4291,-302.278 L 16.9371,-302.647 L 17.3948,-303.077
 L 17.7951,-303.561 L 18.1315,-304.091 L 18.3989,-304.659 L 18.5929,-305.257 L 18.7106,-305.873 L 18.75,-306.5
 L 18.75,-341.5 L 18.7106,-342.127 L 18.5929,-342.743 L 18.3989,-343.341 L 18.1315,-343.909 L 17.7951,-344.439
 L 17.3948,-344.923 L 16.9371,-345.353 L 16.4291,-345.722 L 15.8789,-346.024 L 15.2951,-346.255 L 14.6869,-346.411
 L 14.0639,-346.49 L -14.0639,-346.49 L -14.6869,-346.411 L -15.2951,-346.255 L -15.8789,-346.024 L -16.4291,-345.722
 L -16.9371,-345.353 L -17.3948,-344.923 L -17.7951,-344.439 L -18.1315,-343.909 L -18.3989,-343.341 L -18.5929,-342.743
 L -18.7106,-342.127 L -18.75,-341.5 L -18.75,-306.5 L -18.7106,-305.873 L -18.5929,-305.257 L -18.3989,-304.659
 L -18.1315,-304.091 L -17.7951,-303.561 L -17.3948,-303.077 L -16.9371,-302.647 L -16.4291,-302.278 L -15.8789,-301.976
 L -15.2951,-301.745 L -14.6869,-301.589 L -14.0639,-301.51 L 14.0639,-301.51 z
M -13.4454,-303.893 L -13.8333,-303.942 L -14.2119,-304.039 L -14.5754,-304.183 L -14.918,-304.372 L -15.2342,-304.601
 L -15.5192,-304.869 L -15.7684,-305.17 L -15.9779,-305.5 L -16.1443,-305.854 L -16.2651,-306.226 L -16.3384,-306.61
 L -16.3629,-307 L -16.3629,-341 L -16.3384,-341.39 L -16.2651,-341.774 L -16.1443,-342.146 L -15.9779,-342.5
 L -15.7684,-342.83 L -15.5192,-343.131 L -15.2342,-343.399 L -14.918,-343.628 L -14.5754,-343.817 L -14.2119,-343.961
 L -13.8333,-344.058 L -13.4454,-344.107 L 13.4454,-344.107 L 13.8333,-344.058 L 14.2119,-343.961 L 14.5754,-343.817
 L 14.918,-343.628 L 15.2342,-343.399 L 15.5192,-343.131 L 15.7684,-342.83 L 15.9779,-342.5 L 16.1443,-342.146
 L 16.2651,-341.774 L 16.3384,-341.39 L 16.3629,-341 L 16.3629,-307 L 16.3384,-306.61 L 16.2651,-306.226
 L 16.1443,-305.854 L 15.9779,-305.5 L 15.7684,-305.17 L 15.5192,-304.869 L 15.2342,-304.601 L 14.918,-304.372
 L 14.5754,-304.183 L 14.2119,-304.039 L 13.8333,-303.942 L 13.4454,-303.893 z
M 14.6869,-247.589 L 15.2951,-247.745 L 15.8789,-247.976 L 16.4291,-248.278 L 16.9371,-248.647 L 17.3948,-249.077
 L 17.7951,-249.561 L 18.1315,-250.091 L 18.3989,-250.659 L 18.5929,-251.257 L 18.7106,-251.873 L 18.75,-252.5
 L 18.75,-287.5 L 18.7106,-288.127 L 18.5929,-288.743 L 18.3989,-289.341 L 18.1315,-289.909 L 17.7951,-290.439
 L 17.3948,-290.923 L 16.9371,-291.353 L 16.4291,-291.722 L 15.8789,-292.024 L 15.2951,-292.255 L 14.6869,-292.411
 L 14.0639,-292.49 L -14.0639,-292.49 L -14.6869,-292.411 L -15.2951,-292.255 L -15.8789,-292.024 L -16.4291,-291.722
 L -16.9371,-291.353 L -17.3948,-290.923 L -17.7951,-290.439 L -18.1315,-289.909 L -18.3989,-289.341 L -18.5929,-288.743
 L -18.7106,-288.127 L -18.75,-287.5 L -18.75,-252.5 L -18.7106,-251.873 L -18.5929,-251.257 L -18.3989,-250.659
 L -18.1315,-250.091 L -17.7951,-249.561 L -17.3948,-249.077 L -16.9371,-248.647 L -16.4291,-248.278 L -15.8789,-247.976
 L -15.2951,-247.745 L -14.6869,-247.589 L -14.0639,-247.51 L 14.0639,-247.51 z
M 11.1159,-282.869 L 10.8499,-282.903 L 10.5901,-282.969 L 10.3408,-283.068 L 10.1059,-283.197 L 9.8889,-283.355
 L 9.69344,-283.538 L 9.52251,-283.745 L 9.37881,-283.971 L 9.26465,-284.214 L 9.18178,-284.469 L 9.13153,-284.732
 L 9.1147,-285 L 9.13153,-285.268 L 9.18178,-285.531 L 9.26465,-285.786 L 9.37881,-286.029 L 9.52251,-286.255
 L 9.69344,-286.462 L 9.8889,-286.645 L 10.1059,-286.803 L 10.3408,-286.932 L 10.5901,-287.031 L 10.8499,-287.097
 L 11.1159,-287.131 L 11.3841,-287.131 L 11.6501,-287.097 L 11.9098,-287.031 L 12.1591,-286.932 L 12.3941,-286.803
 L 12.6111,-286.645 L 12.8065,-286.462 L 12.9775,-286.255 L 13.1212,-286.029 L 13.2353,-285.786 L 13.3182,-285.531
 L 13.3685,-285.268 L 13.3853,-285 L 13.3685,-284.732 L 13.3182,-284.469 L 13.2353,-284.214 L 13.1212,-283.971
 L 12.9775,-283.745 L 12.8065,-283.538 L 12.6111,-283.355 L 12.3941,-283.197 L 12.1591,-283.068 L 11.9098,-282.969
 L 11.6501,-282.903 L 11.3841,-282.869 z
M -11.3841,-282.869 L -11.6501,-282.903 L -11.9098,-282.969 L -12.1591,-283.068 L -12.3941,-283.197 L -12.6111,-283.355
 L -12.8065,-283.538 L -12.9775,-283.745 L -13.1212,-283.971 L -13.2353,-284.214 L -13.3182,-284.469 L -13.3685,-284.732
 L -13.3853,-285 L -13.3685,-285.268 L -13.3182,-285.531 L -13.2353,-285.786 L -13.1212,-286.029 L -12.9775,-286.255
 L -12.8065,-286.462 L -12.6111,-286.645 L -12.3941,-286.803 L -12.1591,-286.932 L -11.9098,-287.031 L -11.6501,-287.097
 L -11.3841,-287.131 L -11.1159,-287.131 L -10.8499,-287.097 L -10.5901,-287.031 L -10.3408,-286.932 L -10.1059,-286.803
 L -9.8889,-286.645 L -9.69344,-286.462 L -9.52251,-286.255 L -9.37881,-286.029 L -9.26465,-285.786 L -9.18178,-285.531
 L -9.13153,-285.268 L -9.1147,-285 L -9.13153,-284.732 L -9.18178,-284.469 L -9.26465,-284.214 L -9.37881,-283.971
 L -9.52251,-283.745 L -9.69344,-283.538 L -9.8889,-283.355 L -10.1059,-283.197 L -10.3408,-283.068 L -10.5901,-282.969
 L -10.8499,-282.903 L -11.1159,-282.869 z
M 11.1159,-252.869 L 10.8499,-252.903 L 10.5901,-252.969 L 10.3408,-253.068 L 10.1059,-253.197 L 9.8889,-253.355
 L 9.69344,-253.538 L 9.52251,-253.745 L 9.37881,-253.971 L 9.26465,-254.214 L 9.18178,-254.469 L 9.13153,-254.732
 L 9.1147,-255 L 9.13153,-255.268 L 9.18178,-255.531 L 9.26465,-255.786 L 9.37881,-256.029 L 9.52251,-256.255
 L 9.69344,-256.462 L 9.8889,-256.645 L 10.1059,-256.803 L 10.3408,-256.932 L 10.5901,-257.031 L 10.8499,-257.097
 L 11.1159,-257.131 L 11.3841,-257.131 L 11.6501,-257.097 L 11.9098,-257.031 L 12.1591,-256.932 L 12.3941,-256.803
 L 12.6111,-256.645 L 12.8065,-256.462 L 12.9775,-256.255 L 13.1212,-256.029 L 13.2353,-255.786 L 13.3182,-255.531
 L 13.3685,-255.268 L 13.3853,-255 L 13.3685,-254.732 L 13.3182,-254.469 L 13.2353,-254.214 L 13.1212,-253.971
 L 12.9775,-253.745 L 12.8065,-253.538 L 12.6111,-253.355 L 12.3941,-253.197 L 12.1591,-253.068 L 11.9098,-252.969
 L 11.6501,-252.903 L 11.3841,-252.869 z
M -11.3841,-252.869 L -11.6501,-252.903 L -11.9098,-252.969 L -12.1591,-253.068 L -12.3941,-253.197 L -12.6111,-253.355
 L -12.8065,-253.538 L -12.9775,-253.745 L -13.1212,-253.971 L -13.2353,-254.214 L -13.3182,-254.469 L -13.3685,-254.732
 L -13.3853,-255 L -13.3685,-255.268 L -13.3182,-255.531 L -13.2353,-255.786 L -13.1212,-256.029 L -12.9775,-256.255
 L -12.8065,-256.462 L -12.6111,-256.645 L -12.3941,-256.803 L -12.1591,-256.932 L -11.9098,-257.031 L -11.6501,-257.097
 L -11.3841,-257.131 L -11.1159,-257.131 L -10.8499,-257.097 L -10.5901,-257.031 L -10.3408,-256.932 L -10.1059,-256.803
 L -9.8889,-256.645 L -9.69344,-256.462 L -9.52251,-256.255 L -9.37881,-256.029 L -9.26465,-255.786 L -9.18178,-255.531
 L -9.13153,-255.268 L -9.1147,-255 L -9.13153,-254.732 L -9.18178,-254.469 L -9.26465,-254.214 L -9.37881,-253.971
 L -9.52251,-253.745 L -9.69344,-253.538 L -9.8889,-253.355 L -10.1059,-253.197 L -10.3408,-253.068 L -10.5901,-252.969
 L -10.8499,-252.903 L -11.1159,-252.869 z
" stroke="black" fill="lightgray" stroke-width="0.5"/>
</svg>
