<?xml version="1.0" standalone="no"?>
<!DOCTYPE svg PUBLIC "-//W3C//DTD SVG 1.1//EN" "http://www.w3.org/Graphics/SVG/1.1/DTD/svg11.dtd">
<svg width="210mm" height="2826mm" viewBox="-105 -5571 210 2826" xmlns="http://www.w3.org/2000/svg" version="1.1">
<title>OpenSCAD Model</title>
<path d="
M 100.937,-5391.09 L 101.545,-5391.24 L 102.129,-5391.48 L 102.679,-5391.78 L 103.187,-5392.15 L 103.645,-5392.58
 L 104.045,-5393.06 L 104.382,-5393.59 L 104.649,-5394.16 L 104.843,-5394.76 L 104.961,-5395.37 L 105,-5396
 L 105,-5566 L 104.961,-5566.63 L 104.843,-5567.24 L 104.649,-5567.84 L 104.382,-5568.41 L 104.045,-5568.94
 L 103.645,-5569.42 L 103.187,-5569.85 L 102.679,-5570.22 L 102.129,-5570.52 L 101.545,-5570.76 L 100.937,-5570.91
 L 100.314,-5570.99 L -100.314,-5570.99 L -100.937,-5570.91 L -101.545,-5570.76 L -102.129,-5570.52 L -102.679,-5570.22
 L -103.187,-5569.85 L -103.645,-5569.42 L -104.045,-5568.94 L -104.382,-5568.41 L -104.649,-5567.84 L -104.843,-5567.24
 L -104.961,-5566.63 L -105,-5566 L -105,-5396 L -104.961,-5395.37 L -104.843,-5394.76 L -104.649,-5394.16
 L -104.382,-5393.59 L -104.045,-5393.06 L -103.645,-5392.58 L -103.187,-5392.15 L -102.679,-5391.78 L -102.129,-5391.48
 L -101.545,-5391.24 L -100.937,-5391.09 L -100.314,-5391.01 L 100.314,-5391.01 z
M -100.048,-5391.51 L -100.64,-5391.58 L -101.218,-5391.73 L -101.772,-5391.95 L -102.295,-5392.24 L -102.778,-5392.59
 L -103.213,-5393 L -103.593,-5393.46 L -103.912,-5393.96 L -104.166,-5394.5 L -104.351,-5395.07 L -104.463,-5395.65
 L -104.5,-5396.25 L -104.5,-5565.75 L -104.463,-5566.35 L -104.351,-5566.93 L -104.166,-5567.5 L -103.912,-5568.04
 L -103.593,-5568.54 L -103.213,-5569 L -102.778,-5569.41 L -102.295,-5569.76 L -101.772,-5570.05 L -101.218,-5570.27
 L -100.64,-5570.42 L -100.048,-5570.49 L 100.048,-5570.49 L 100.64,-5570.42 L 101.218,-5570.27 L 101.772,-5570.05
 L 102.295,-5569.76 L 102.778,-5569.41 L 103.213,-5569 L 103.593,-5568.54 L 103.912,-5568.04 L 104.166,-5567.5
 L 104.351,-5566.93 L 104.463,-5566.35 L 104.5,-5565.75 L 104.5,-5396.25 L 104.463,-5395.65 L 104.351,-5395.07
 L 104.166,-5394.5 L 103.912,-5393.96 L 103.593,-5393.46 L 103.213,-5393 L 102.778,-5392.59 L 102.295,-5392.24
 L 101.772,-5391.95 L 101.218,-5391.73 L 100.64,-5391.58 L 100.048,-5391.51 z
M 100.937,-5202.09 L 101.545,-5202.24 L 102.129,-5202.48 L 102.679,-5202.78 L 103.187,-5203.15 L 103.645,-5203.58
 L 104.045,-5204.06 L 104.382,-5204.59 L 104.649,-5205.16 L 104.843,-5205.76 L 104.961,-5206.37 L 105,-5207
 L 105,-5377 L 104.961,-5377.63 L 104.843,-5378.24 L 104.649,-5378.84 L 104.382,-5379.41 L 104.045,-5379.94
 L 103.645,-5380.42 L 103.187,-5380.85 L 102.679,-5381.22 L 102.129,-5381.52 L 101.545,-5381.76 L 100.937,-5381.91
 L 100.314,-5381.99 L -100.314,-5381.99 L -100.937,-5381.91 L -101.545,-5381.76 L -102.129,-5381.52 L -102.679,-5381.22
 L -103.187,-5380.85 L -103.645,-5380.42 L -104.045,-5379.94 L -104.382,-5379.41 L -104.649,-5378.84 L -104.843,-5378.24
 L -104.961,-5377.63 L -105,-5377 L -105,-5207 L -104.961,-5206.37 L -104.843,-5205.76 L -104.649,-5205.16
 L -104.382,-5204.59 L -104.045,-5204.06 L -103.645,-5203.58 L -103.187,-5203.15 L -102.679,-5202.78 L -102.129,-5202.48
 L -101.545,-5202.24 L -100.937,-5202.09 L -100.314,-5202.01 L 100.314,-5202.01 z
M -100.048,-5202.51 L -100.64,-5202.58 L -101.218,-5202.73 L -101.772,-5202.95 L -102.295,-5203.24 L -102.778,-5203.59
 L -103.213,-5204 L -103.593,-5204.46 L -103.912,-5204.96 L -104.166,-5205.5 L -104.351,-5206.07 L -104.463,-5206.65
 L -104.5,-5207.25 L -104.5,-5376.75 L -104.463,-5377.35 L -104.351,-5377.93 L -104.166,-5378.5 L -103.912,-5379.04
 L -103.593,-5379.54 L -103.213,-5380 L -102.778,-5380.41 L -102.295,-5380.76 L -101.772,-5381.05 L -101.218,-5381.27
 L -100.64,-5381.42 L -100.048,-5381.49 L 100.048,-5381.49 L 100.64,-5381.42 L 101.218,-5381.27 L 101.772,-5381.05
 L 102.295,-5380.76 L 102.778,-5380.41 L 103.213,-5380 L 103.593,-5379.54 L 103.912,-5379.04 L 104.166,-5378.5
 L 104.351,-5377.93 L 104.463,-5377.35 L 104.5,-5376.75 L 104.5,-5207.25 L 104.463,-5206.65 L 104.351,-5206.07
 L 104.166,-5205.5 L 103.912,-5204.96 L 103.593,-5204.46 L 103.213,-5204 L 102.778,-5203.59 L 102.295,-5203.24
 L 101.772,-5202.95 L 101.218,-5202.73 L 100.64,-5202.58 L 100.048,-5202.51 z
M 100.937,-5013.09 L 101.545,-5013.24 L 102.129,-5013.48 L 102.679,-5013.78 L 103.187,-5014.15 L 103.645,-5014.58
 L 104.045,-5015.06 L 104.382,-5015.59 L 104.649,-5016.16 L 104.843,-5016.76 L 104.961,-5017.37 L 105,-5018
 L 105,-5188 L 104.961,-5188.63 L 104.843,-5189.24 L 104.649,-5189.84 L 104.382,-5190.41 L 104.045,-5190.94
 L 103.645,-5191.42 L 103.187,-5191.85 L 102.679,-5192.22 L 102.129,-5192.52 L 101.545,-5192.76 L 100.937,-5192.91
 L 100.314,-5192.99 L -100.314,-5192.99 L -100.937,-5192.91 L -101.545,-5192.76 L -102.129,-5192.52 L -102.679,-5192.22
 L -103.187,-5191.85 L -103.645,-5191.42 L -104.045,-5190.94 L -104.382,-5190.41 L -104.649,-5189.84 L -104.843,-5189.24
 L -104.961,-5188.63 L -105,-5188 L -105,-5018 L -104.961,-5017.37 L -104.843,-5016.76 L -104.649,-5016.16
 L -104.382,-5015.59 L -104.045,-5015.06 L -103.645,-5014.58 L -103.187,-5014.15 L -102.679,-5013.78 L -102.129,-5013.48
 L -101.545,-5013.24 L -100.937,-5013.09 L -100.314,-5013.01 L 100.314,-5013.01 z
M -100.048,-5013.51 L -100.64,-5013.58 L -101.218,-5013.73 L -101.772,-5013.95 L -102.295,-5014.24 L -102.778,-5014.59
 L -103.213,-5015 L -103.593,-5015.46 L -103.912,-5015.96 L -104.166,-5016.5 L -104.351,-5017.07 L -104.463,-5017.65
 L -104.5,-5018.25 L -104.5,-5187.75 L -104.463,-5188.35 L -104.351,-5188.93 L -104.166,-5189.5 L -103.912,-5190.04
 L -103.593,-5190.54 L -103.213,-5191 L -102.778,-5191.41 L -102.295,-5191.76 L -101.772,-5192.05 L -101.218,-5192.27
 L -100.64,-5192.42 L -100.048,-5192.49 L 100.048,-5192.49 L 100.64,-5192.42 L 101.218,-5192.27 L 101.772,-5192.05
 L 102.295,-5191.76 L 102.778,-5191.41 L 103.213,-5191 L 103.593,-5190.54 L 103.912,-5190.04 L 104.166,-5189.5
 L 104.351,-5188.93 L 104.463,-5188.35 L 104.5,-5187.75 L 104.5,-5018.25 L 104.463,-5017.65 L 104.351,-5017.07
 L 104.166,-5016.5 L 103.912,-5015.96 L 103.593,-5015.46 L 103.213,-5015 L 102.778,-5014.59 L 102.295,-5014.24
 L 101.772,-5013.95 L 101.218,-5013.73 L 100.64,-5013.58 L 100.048,-5013.51 z
M 100.937,-4824.09 L 101.545,-4824.24 L 102.129,-4824.48 L 102.679,-4824.78 L 103.187,-4825.15 L 103.645,-4825.58
 L 104.045,-4826.06 L 104.382,-4826.59 L 104.649,-4827.16 L 104.843,-4827.76 L 104.961,-4828.37 L 105,-4829
 L 105,-4999 L 104.961,-4999.63 L 104.843,-5000.24 L 104.649,-5000.84 L 104.382,-5001.41 L 104.045,-5001.94
 L 103.645,-5002.42 L 103.187,-5002.85 L 102.679,-5003.22 L 102.129,-5003.52 L 101.545,-5003.76 L 100.937,-5003.91
 L 100.314,-5003.99 L -100.314,-5003.99 L -100.937,-5003.91 L -101.545,-5003.76 L -102.129,-5003.52 L -102.679,-5003.22
 L -103.187,-5002.85 L -103.645,-5002.42 L -104.045,-5001.94 L -104.382,-5001.41 L -104.649,-5000.84 L -104.843,-5000.24
 L -104.961,-4999.63 L -105,-4999 L -105,-4829 L -104.961,-4828.37 L -104.843,-4827.76 L -104.649,-4827.16
 L -104.382,-4826.59 L -104.045,-4826.06 L -103.645,-4825.58 L -103.187,-4825.15 L -102.679,-4824.78 L -102.129,-4824.48
 L -101.545,-4824.24 L -100.937,-4824.09 L -100.314,-4824.01 L 100.314,-4824.01 z
M -100.048,-4824.51 L -100.64,-4824.58 L -101.218,-4824.73 L -101.772,-4824.95 L -102.295,-4825.24 L -102.778,-4825.59
 L -103.213,-4826 L -103.593,-4826.46 L -103.912,-4826.96 L -104.166,-4827.5 L -104.351,-4828.07 L -104.463,-4828.65
 L -104.5,-4829.25 L -104.5,-4998.75 L -104.463,-4999.35 L -104.351,-4999.93 L -104.166,-5000.5 L -103.912,-5001.04
 L -103.593,-5001.54 L -103.213,-5002 L -102.778,-5002.41 L -102.295,-5002.76 L -101.772,-5003.05 L -101.218,-5003.27
 L -100.64,-5003.42 L -100.048,-5003.49 L 100.048,-5003.49 L 100.64,-5003.42 L 101.218,-5003.27 L 101.772,-5003.05
 L 102.295,-5002.76 L 102.778,-5002.41 L 103.213,-5002 L 103.593,-5001.54 L 103.912,-5001.04 L 104.166,-5000.5
 L 104.351,-4999.93 L 104.463,-4999.35 L 104.5,-4998.75 L 104.5,-4829.25 L 104.463,-4828.65 L 104.351,-4828.07
 L 104.166,-4827.5 L 103.912,-4826.96 L 103.593,-4826.46 L 103.213,-4826 L 102.778,-4825.59 L 102.295,-4825.24
 L 101.772,-4824.95 L 101.218,-4824.73 L 100.64,-4824.58 L 100.048,-4824.51 z
M 100.937,-4635.09 L 101.545,-4635.24 L 102.129,-4635.48 L 102.679,-4635.78 L 103.187,-4636.15 L 103.645,-4636.58
 L 104.045,-4637.06 L 104.382,-4637.59 L 104.649,-4638.16 L 104.843,-4638.76 L 104.961,-4639.37 L 105,-4640
 L 105,-4810 L 104.961,-4810.63 L 104.843,-4811.24 L 104.649,-4811.84 L 104.382,-4812.41 L 104.045,-4812.94
 L 103.645,-4813.42 L 103.187,-4813.85 L 102.679,-4814.22 L 102.129,-4814.52 L 101.545,-4814.76 L 100.937,-4814.91
 L 100.314,-4814.99 L -100.314,-4814.99 L -100.937,-4814.91 L -101.545,-4814.76 L -102.129,-4814.52 L -102.679,-4814.22
 L -103.187,-4813.85 L -103.645,-4813.42 L -104.045,-4812.94 L -104.382,-4812.41 L -104.649,-4811.84 L -104.843,-4811.24
 L -104.961,-4810.63 L -105,-4810 L -105,-4640 L -104.961,-4639.37 L -104.843,-4638.76 L -104.649,-4638.16
 L -104.382,-4637.59 L -104.045,-4637.06 L -103.645,-4636.58 L -103.187,-4636.15 L -102.679,-4635.78 L -102.129,-4635.48
 L -101.545,-4635.24 L -100.937,-4635.09 L -100.314,-4635.01 L 100.314,-4635.01 z
M -100.048,-4635.51 L -100.64,-4635.58 L -101.218,-4635.73 L -101.772,-4635.95 L -102.295,-4636.24 L -102.778,-4636.59
 L -103.213,-4637 L -103.593,-4637.46 L -103.912,-4637.96 L -104.166,-4638.5 L -104.351,-4639.07 L -104.463,-4639.65
 L -104.5,-4640.25 L -104.5,-4809.75 L -104.463,-4810.35 L -104.351,-4810.93 L -104.166,-4811.5 L -103.912,-4812.04
 L -103.593,-4812.54 L -103.213,-4813 L -102.778,-4813.41 L -102.295,-4813.76 L -101.772,-4814.05 L -101.218,-4814.27
 L -100.64,-4814.42 L -100.048,-4814.49 L 100.048,-4814.49 L 100.64,-4814.42 L 101.218,-4814.27 L 101.772,-4814.05
 L 102.295,-4813.76 L 102.778,-4813.41 L 103.213,-4813 L 103.593,-4812.54 L 103.912,-4812.04 L 104.166,-4811.5
 L 104.351,-4810.93 L 104.463,-4810.35 L 104.5,-4809.75 L 104.5,-4640.25 L 104.463,-4639.65 L 104.351,-4639.07
 L 104.166,-4638.5 L 103.912,-4637.96 L 103.593,-4637.46 L 103.213,-4637 L 102.778,-4636.59 L 102.295,-4636.24
 L 101.772,-4635.95 L 101.218,-4635.73 L 100.64,-4635.58 L 100.048,-4635.51 z
M 100.937,-4446.09 L 101.545,-4446.24 L 102.129,-4446.48 L 102.679,-4446.78 L 103.187,-4447.15 L 103.645,-4447.58
 L 104.045,-4448.06 L 104.382,-4448.59 L 104.649,-4449.16 L 104.843,-4449.76 L 104.961,-4450.37 L 105,-4451
 L 105,-4621 L 104.961,-4621.63 L 104.843,-4622.24 L 104.649,-4622.84 L 104.382,-4623.41 L 104.045,-4623.94
 L 103.645,-4624.42 L 103.187,-4624.85 L 102.679,-4625.22 L 102.129,-4625.52 L 101.545,-4625.76 L 100.937,-4625.91
 L 100.314,-4625.99 L -100.314,-4625.99 L -100.937,-4625.91 L -101.545,-4625.76 L -102.129,-4625.52 L -102.679,-4625.22
 L -103.187,-4624.85 L -103.645,-4624.42 L -104.045,-4623.94 L -104.382,-4623.41 L -104.649,-4622.84 L -104.843,-4622.24
 L -104.961,-4621.63 L -105,-4621 L -105,-4451 L -104.961,-4450.37 L -104.843,-4449.76 L -104.649,-4449.16
 L -104.382,-4448.59 L -104.045,-4448.06 L -103.645,-4447.58 L -103.187,-4447.15 L -102.679,-4446.78 L -102.129,-4446.48
 L -101.545,-4446.24 L -100.937,-4446.09 L -100.314,-4446.01 L 100.314,-4446.01 z
M -100.048,-4446.51 L -100.64,-4446.58 L -101.218,-4446.73 L -101.772,-4446.95 L -102.295,-4447.24 L -102.778,-4447.59
 L -103.213,-4448 L -103.593,-4448.46 L -103.912,-4448.96 L -104.166,-4449.5 L -104.351,-4450.07 L -104.463,-4450.65
 L -104.5,-4451.25 L -104.5,-4620.75 L -104.463,-4621.35 L -104.351,-4621.93 L -104.166,-4622.5 L -103.912,-4623.04
 L -103.593,-4623.54 L -103.213,-4624 L -102.778,-4624.41 L -102.295,-4624.76 L -101.772,-4625.05 L -101.218,-4625.27
 L -100.64,-4625.42 L -100.048,-4625.49 L 100.048,-4625.49 L 100.64,-4625.42 L 101.218,-4625.27 L 101.772,-4625.05
 L 102.295,-4624.76 L 102.778,-4624.41 L 103.213,-4624 L 103.593,-4623.54 L 103.912,-4623.04 L 104.166,-4622.5
 L 104.351,-4621.93 L 104.463,-4621.35 L 104.5,-4620.75 L 104.5,-4451.25 L 104.463,-4450.65 L 104.351,-4450.07
 L 104.166,-4449.5 L 103.912,-4448.96 L 103.593,-4448.46 L 103.213,-4448 L 102.778,-4447.59 L 102.295,-4447.24
 L 101.772,-4446.95 L 101.218,-4446.73 L 100.64,-4446.58 L 100.048,-4446.51 z
M 100.937,-4257.09 L 101.545,-4257.24 L 102.129,-4257.48 L 102.679,-4257.78 L 103.187,-4258.15 L 103.645,-4258.58
 L 104.045,-4259.06 L 104.382,-4259.59 L 104.649,-4260.16 L 104.843,-4260.76 L 104.961,-4261.37 L 105,-4262
 L 105,-4432 L 104.961,-4432.63 L 104.843,-4433.24 L 104.649,-4433.84 L 104.382,-4434.41 L 104.045,-4434.94
 L 103.645,-4435.42 L 103.187,-4435.85 L 102.679,-4436.22 L 102.129,-4436.52 L 101.545,-4436.76 L 100.937,-4436.91
 L 100.314,-4436.99 L -100.314,-4436.99 L -100.937,-4436.91 L -101.545,-4436.76 L -102.129,-4436.52 L -102.679,-4436.22
 L -103.187,-4435.85 L -103.645,-4435.42 L -104.045,-4434.94 L -104.382,-4434.41 L -104.649,-4433.84 L -104.843,-4433.24
 L -104.961,-4432.63 L -105,-4432 L -105,-4262 L -104.961,-4261.37 L -104.843,-4260.76 L -104.649,-4260.16
 L -104.382,-4259.59 L -104.045,-4259.06 L -103.645,-4258.58 L -103.187,-4258.15 L -102.679,-4257.78 L -102.129,-4257.48
 L -101.545,-4257.24 L -100.937,-4257.09 L -100.314,-4257.01 L 100.314,-4257.01 z
M -100.048,-4257.51 L -100.64,-4257.58 L -101.218,-4257.73 L -101.772,-4257.95 L -102.295,-4258.24 L -102.778,-4258.59
 L -103.213,-4259 L -103.593,-4259.46 L -103.912,-4259.96 L -104.166,-4260.5 L -104.351,-4261.07 L -104.463,-4261.65
 L -104.5,-4262.25 L -104.5,-4431.75 L -104.463,-4432.35 L -104.351,-4432.93 L -104.166,-4433.5 L -103.912,-4434.04
 L -103.593,-4434.54 L -103.213,-4435 L -102.778,-4435.41 L -102.295,-4435.76 L -101.772,-4436.05 L -101.218,-4436.27
 L -100.64,-4436.42 L -100.048,-4436.49 L 100.048,-4436.49 L 100.64,-4436.42 L 101.218,-4436.27 L 101.772,-4436.05
 L 102.295,-4435.76 L 102.778,-4435.41 L 103.213,-4435 L 103.593,-4434.54 L 103.912,-4434.04 L 104.166,-4433.5
 L 104.351,-4432.93 L 104.463,-4432.35 L 104.5,-4431.75 L 104.5,-4262.25 L 104.463,-4261.65 L 104.351,-4261.07
 L 104.166,-4260.5 L 103.912,-4259.96 L 103.593,-4259.46 L 103.213,-4259 L 102.778,-4258.59 L 102.295,-4258.24
 L 101.772,-4257.95 L 101.218,-4257.73 L 100.64,-4257.58 L 100.048,-4257.51 z
M 100.937,-4068.09 L 101.545,-4068.24 L 102.129,-4068.48 L 102.679,-4068.78 L 103.187,-4069.15 L 103.645,-4069.58
 L 104.045,-4070.06 L 104.382,-4070.59 L 104.649,-4071.16 L 104.843,-4071.76 L 104.961,-4072.37 L 105,-4073
 L 105,-4243 L 104.961,-4243.63 L 104.843,-4244.24 L 104.649,-4244.84 L 104.382,-4245.41 L 104.045,-4245.94
 L 103.645,-4246.42 L 103.187,-4246.85 L 102.679,-4247.22 L 102.129,-4247.52 L 101.545,-4247.76 L 100.937,-4247.91
 L 100.314,-4247.99 L -100.314,-4247.99 L -100.937,-4247.91 L -101.545,-4247.76 L -102.129,-4247.52 L -102.679,-4247.22
 L -103.187,-4246.85 L -103.645,-4246.42 L -104.045,-4245.94 L -104.382,-4245.41 L -104.649,-4244.84 L -104.843,-4244.24
 L -104.961,-4243.63 L -105,-4243 L -105,-4073 L -104.961,-4072.37 L -104.843,-4071.76 L -104.649,-4071.16
 L -104.382,-4070.59 L -104.045,-4070.06 L -103.645,-4069.58 L -103.187,-4069.15 L -102.679,-4068.78 L -102.129,-4068.48
 L -101.545,-4068.24 L -100.937,-4068.09 L -100.314,-4068.01 L 100.314,-4068.01 z
M -100.048,-4068.51 L -100.64,-4068.58 L -101.218,-4068.73 L -101.772,-4068.95 L -102.295,-4069.24 L -102.778,-4069.59
 L -103.213,-4070 L -103.593,-4070.46 L -103.912,-4070.96 L -104.166,-4071.5 L -104.351,-4072.07 L -104.463,-4072.65
 L -104.5,-4073.25 L -104.5,-4242.75 L -104.463,-4243.35 L -104.351,-4243.93 L -104.166,-4244.5 L -103.912,-4245.04
 L -103.593,-4245.54 L -103.213,-4246 L -102.778,-4246.41 L -102.295,-4246.76 L -101.772,-4247.05 L -101.218,-4247.27
 L -100.64,-4247.42 L -100.048,-4247.49 L 100.048,-4247.49 L 100.64,-4247.42 L 101.218,-4247.27 L 101.772,-4247.05
 L 102.295,-4246.76 L 102.778,-4246.41 L 103.213,-4246 L 103.593,-4245.54 L 103.912,-4245.04 L 104.166,-4244.5
 L 104.351,-4243.93 L 104.463,-4243.35 L 104.5,-4242.75 L 104.5,-4073.25 L 104.463,-4072.65 L 104.351,-4072.07
 L 104.166,-4071.5 L 103.912,-4070.96 L 103.593,-4070.46 L 103.213,-4070 L 102.778,-4069.59 L 102.295,-4069.24
 L 101.772,-4068.95 L 101.218,-4068.73 L 100.64,-4068.58 L 100.048,-4068.51 z
M 100.937,-3879.09 L 101.545,-3879.24 L 102.129,-3879.48 L 102.679,-3879.78 L 103.187,-3880.15 L 103.645,-3880.58
 L 104.045,-3881.06 L 104.382,-3881.59 L 104.649,-3882.16 L 104.843,-3882.76 L 104.961,-3883.37 L 105,-3884
 L 105,-4054 L 104.961,-4054.63 L 104.843,-4055.24 L 104.649,-4055.84 L 104.382,-4056.41 L 104.045,-4056.94
 L 103.645,-4057.42 L 103.187,-4057.85 L 102.679,-4058.22 L 102.129,-4058.52 L 101.545,-4058.76 L 100.937,-4058.91
 L 100.314,-4058.99 L -100.314,-4058.99 L -100.937,-4058.91 L -101.545,-4058.76 L -102.129,-4058.52 L -102.679,-4058.22
 L -103.187,-4057.85 L -103.645,-4057.42 L -104.045,-4056.94 L -104.382,-4056.41 L -104.649,-4055.84 L -104.843,-4055.24
 L -104.961,-4054.63 L -105,-4054 L -105,-3884 L -104.961,-3883.37 L -104.843,-3882.76 L -104.649,-3882.16
 L -104.382,-3881.59 L -104.045,-3881.06 L -103.645,-3880.58 L -103.187,-3880.15 L -102.679,-3879.78 L -102.129,-3879.48
 L -101.545,-3879.24 L -100.937,-3879.09 L -100.314,-3879.01 L 100.314,-3879.01 z
M -100.048,-3879.51 L -100.64,-3879.58 L -101.218,-3879.73 L -101.772,-3879.95 L -102.295,-3880.24 L -102.778,-3880.59
 L -103.213,-3881 L -103.593,-3881.46 L -103.912,-3881.96 L -104.166,-3882.5 L -104.351,-3883.07 L -104.463,-3883.65
 L -104.5,-3884.25 L -104.5,-4053.75 L -104.463,-4054.35 L -104.351,-4054.93 L -104.166,-4055.5 L -103.912,-4056.04
 L -103.593,-4056.54 L -103.213,-4057 L -102.778,-4057.41 L -102.295,-4057.76 L -101.772,-4058.05 L -101.218,-4058.27
 L -100.64,-4058.42 L -100.048,-4058.49 L 100.048,-4058.49 L 100.64,-4058.42 L 101.218,-4058.27 L 101.772,-4058.05
 L 102.295,-4057.76 L 102.778,-4057.41 L 103.213,-4057 L 103.593,-4056.54 L 103.912,-4056.04 L 104.166,-4055.5
 L 104.351,-4054.93 L 104.463,-4054.35 L 104.5,-4053.75 L 104.5,-3884.25 L 104.463,-3883.65 L 104.351,-3883.07
 L 104.166,-3882.5 L 103.912,-3881.96 L 103.593,-3881.46 L 103.213,-3881 L 102.778,-3880.59 L 102.295,-3880.24
 L 101.772,-3879.95 L 101.218,-3879.73 L 100.64,-3879.58 L 100.048,-3879.51 z
M 100.937,-3690.09 L 101.545,-3690.24 L 102.129,-3690.48 L 102.679,-3690.78 L 103.187,-3691.15 L 103.645,-3691.58
 L 104.045,-3692.06 L 104.382,-3692.59 L 104.649,-3693.16 L 104.843,-3693.76 L 104.961,-3694.37 L 105,-3695
 L 105,-3865 L 104.961,-3865.63 L 104.843,-3866.24 L 104.649,-3866.84 L 104.382,-3867.41 L 104.045,-3867.94
 L 103.645,-3868.42 L 103.187,-3868.85 L 102.679,-3869.22 L 102.129,-3869.52 L 101.545,-3869.76 L 100.937,-3869.91
 L 100.314,-3869.99 L -100.314,-3869.99 L -100.937,-3869.91 L -101.545,-3869.76 L -102.129,-3869.52 L -102.679,-3869.22
 L -103.187,-3868.85 L -103.645,-3868.42 L -104.045,-3867.94 L -104.382,-3867.41 L -104.649,-3866.84 L -104.843,-3866.24
 L -104.961,-3865.63 L -105,-3865 L -105,-3695 L -104.961,-3694.37 L -104.843,-3693.76 L -104.649,-3693.16
 L -104.382,-3692.59 L -104.045,-3692.06 L -103.645,-3691.58 L -103.187,-3691.15 L -102.679,-3690.78 L -102.129,-3690.48
 L -101.545,-3690.24 L -100.937,-3690.09 L -100.314,-3690.01 L 100.314,-3690.01 z
M -100.048,-3690.51 L -100.64,-3690.58 L -101.218,-3690.73 L -101.772,-3690.95 L -102.295,-3691.24 L -102.778,-3691.59
 L -103.213,-3692 L -103.593,-3692.46 L -103.912,-3692.96 L -104.166,-3693.5 L -104.351,-3694.07 L -104.463,-3694.65
 L -104.5,-3695.25 L -104.5,-3864.75 L -104.463,-3865.35 L -104.351,-3865.93 L -104.166,-3866.5 L -103.912,-3867.04
 L -103.593,-3867.54 L -103.213,-3868 L -102.778,-3868.41 L -102.295,-3868.76 L -101.772,-3869.05 L -101.218,-3869.27
 L -100.64,-3869.42 L -100.048,-3869.49 L 100.048,-3869.49 L 100.64,-3869.42 L 101.218,-3869.27 L 101.772,-3869.05
 L 102.295,-3868.76 L 102.778,-3868.41 L 103.213,-3868 L 103.593,-3867.54 L 103.912,-3867.04 L 104.166,-3866.5
 L 104.351,-3865.93 L 104.463,-3865.35 L 104.5,-3864.75 L 104.5,-3695.25 L 104.463,-3694.65 L 104.351,-3694.07
 L 104.166,-3693.5 L 103.912,-3692.96 L 103.593,-3692.46 L 103.213,-3692 L 102.778,-3691.59 L 102.295,-3691.24
 L 101.772,-3690.95 L 101.218,-3690.73 L 100.64,-3690.58 L 100.048,-3690.51 z
M 100.937,-3501.09 L 101.545,-3501.24 L 102.129,-3501.48 L 102.679,-3501.78 L 103.187,-3502.15 L 103.645,-3502.58
 L 104.045,-3503.06 L 104.382,-3503.59 L 104.649,-3504.16 L 104.843,-3504.76 L 104.961,-3505.37 L 105,-3506
 L 105,-3676 L 104.961,-3676.63 L 104.843,-3677.24 L 104.649,-3677.84 L 104.382,-3678.41 L 104.045,-3678.94
 L 103.645,-3679.42 L 103.187,-3679.85 L 102.679,-3680.22 L 102.129,-3680.52 L 101.545,-3680.76 L 100.937,-3680.91
 L 100.314,-3680.99 L -100.314,-3680.99 L -100.937,-3680.91 L -101.545,-3680.76 L -102.129,-3680.52 L -102.679,-3680.22
 L -103.187,-3679.85 L -103.645,-3679.42 L -104.045,-3678.94 L -104.382,-3678.41 L -104.649,-3677.84 L -104.843,-3677.24
 L -104.961,-3676.63 L -105,-3676 L -105,-3506 L -104.961,-3505.37 L -104.843,-3504.76 L -104.649,-3504.16
 L -104.382,-3503.59 L -104.045,-3503.06 L -103.645,-3502.58 L -103.187,-3502.15 L -102.679,-3501.78 L -102.129,-3501.48
 L -101.545,-3501.24 L -100.937,-3501.09 L -100.314,-3501.01 L 100.314,-3501.01 z
M -100.048,-3501.51 L -100.64,-3501.58 L -101.218,-3501.73 L -101.772,-3501.95 L -102.295,-3502.24 L -102.778,-3502.59
 L -103.213,-3503 L -103.593,-3503.46 L -103.912,-3503.96 L -104.166,-3504.5 L -104.351,-3505.07 L -104.463,-3505.65
 L -104.5,-3506.25 L -104.5,-3675.75 L -104.463,-3676.35 L -104.351,-3676.93 L -104.166,-3677.5 L -103.912,-3678.04
 L -103.593,-3678.54 L -103.213,-3679 L -102.778,-3679.41 L -102.295,-3679.76 L -101.772,-3680.05 L -101.218,-3680.27
 L -100.64,-3680.42 L -100.048,-3680.49 L 100.048,-3680.49 L 100.64,-3680.42 L 101.218,-3680.27 L 101.772,-3680.05
 L 102.295,-3679.76 L 102.778,-3679.41 L 103.213,-3679 L 103.593,-3678.54 L 103.912,-3678.04 L 104.166,-3677.5
 L 104.351,-3676.93 L 104.463,-3676.35 L 104.5,-3675.75 L 104.5,-3506.25 L 104.463,-3505.65 L 104.351,-3505.07
 L 104.166,-3504.5 L 103.912,-3503.96 L 103.593,-3503.46 L 103.213,-3503 L 102.778,-3502.59 L 102.295,-3502.24
 L 101.772,-3501.95 L 101.218,-3501.73 L 100.64,-3501.58 L 100.048,-3501.51 z
M 100.937,-3312.09 L 101.545,-3312.24 L 102.129,-3312.48 L 102.679,-3312.78 L 103.187,-3313.15 L 103.645,-3313.58
 L 104.045,-3314.06 L 104.382,-3314.59 L 104.649,-3315.16 L 104.843,-3315.76 L 104.961,-3316.37 L 105,-3317
 L 105,-3487 L 104.961,-3487.63 L 104.843,-3488.24 L 104.649,-3488.84 L 104.382,-3489.41 L 104.045,-3489.94
 L 103.645,-3490.42 L 103.187,-3490.85 L 102.679,-3491.22 L 102.129,-3491.52 L 101.545,-3491.76 L 100.937,-3491.91
 L 100.314,-3491.99 L -100.314,-3491.99 L -100.937,-3491.91 L -101.545,-3491.76 L -102.129,-3491.52 L -102.679,-3491.22
 L -103.187,-3490.85 L -103.645,-3490.42 L -104.045,-3489.94 L -104.382,-3489.41 L -104.649,-3488.84 L -104.843,-3488.24
 L -104.961,-3487.63 L -105,-3487 L -105,-3317 L -104.961,-3316.37 L -104.843,-3315.76 L -104.649,-3315.16
 L -104.382,-3314.59 L -104.045,-3314.06 L -103.645,-3313.58 L -103.187,-3313.15 L -102.679,-3312.78 L -102.129,-3312.48
 L -101.545,-3312.24 L -100.937,-3312.09 L -100.314,-3312.01 L 100.314,-3312.01 z
M -100.048,-3312.51 L -100.64,-3312.58 L -101.218,-3312.73 L -101.772,-3312.95 L -102.295,-3313.24 L -102.778,-3313.59
 L -103.213,-3314 L -103.593,-3314.46 L -103.912,-3314.96 L -104.166,-3315.5 L -104.351,-3316.07 L -104.463,-3316.65
 L -104.5,-3317.25 L -104.5,-3486.75 L -104.463,-3487.35 L -104.351,-3487.93 L -104.166,-3488.5 L -103.912,-3489.04
 L -103.593,-3489.54 L -103.213,-3490 L -102.778,-3490.41 L -102.295,-3490.76 L -101.772,-3491.05 L -101.218,-3491.27
 L -100.64,-3491.42 L -100.048,-3491.49 L 100.048,-3491.49 L 100.64,-3491.42 L 101.218,-3491.27 L 101.772,-3491.05
 L 102.295,-3490.76 L 102.778,-3490.41 L 103.213,-3490 L 103.593,-3489.54 L 103.912,-3489.04 L 104.166,-3488.5
 L 104.351,-3487.93 L 104.463,-3487.35 L 104.5,-3486.75 L 104.5,-3317.25 L 104.463,-3316.65 L 104.351,-3316.07
 L 104.166,-3315.5 L 103.912,-3314.96 L 103.593,-3314.46 L 103.213,-3314 L 102.778,-3313.59 L 102.295,-3313.24
 L 101.772,-3312.95 L 101.218,-3312.73 L 100.64,-3312.58 L 100.048,-3312.51 z
M 100.937,-3123.09 L 101.545,-3123.24 L 102.129,-3123.48 L 102.679,-3123.78 L 103.187,-3124.15 L 103.645,-3124.58
 L 104.045,-3125.06 L 104.382,-3125.59 L 104.649,-3126.16 L 104.843,-3126.76 L 104.961,-3127.37 L 105,-3128
 L 105,-3298 L 104.961,-3298.63 L 104.843,-3299.24 L 104.649,-3299.84 L 104.382,-3300.41 L 104.045,-3300.94
 L 103.645,-3301.42 L 103.187,-3301.85 L 102.679,-3302.22 L 102.129,-3302.52 L 101.545,-3302.76 L 100.937,-3302.91
 L 100.314,-3302.99 L -100.314,-3302.99 L -100.937,-3302.91 L -101.545,-3302.76 L -102.129,-3302.52 L -102.679,-3302.22
 L -103.187,-3301.85 L -103.645,-3301.42 L -104.045,-3300.94 L -104.382,-3300.41 L -104.649,-3299.84 L -104.843,-3299.24
 L -104.961,-3298.63 L -105,-3298 L -105,-3128 L -104.961,-3127.37 L -104.843,-3126.76 L -104.649,-3126.16
 L -104.382,-3125.59 L -104.045,-3125.06 L -103.645,-3124.58 L -103.187,-3124.15 L -102.679,-3123.78 L -102.129,-3123.48
 L -101.545,-3123.24 L -100.937,-3123.09 L -100.314,-3123.01 L 100.314,-3123.01 z
M -100.048,-3123.51 L -100.64,-3123.58 L -101.218,-3123.73 L -101.772,-3123.95 L -102.295,-3124.24 L -102.778,-3124.59
 L -103.213,-3125 L -103.593,-3125.46 L -103.912,-3125.96 L -104.166,-3126.5 L -104.351,-3127.07 L -104.463,-3127.65
 L -104.5,-3128.25 L -104.5,-3297.75 L -104.463,-3298.35 L -104.351,-3298.93 L -104.166,-3299.5 L -103.912,-3300.04
 L -103.593,-3300.54 L -103.213,-3301 L -102.778,-3301.41 L -102.295,-3301.76 L -101.772,-3302.05 L -101.218,-3302.27
 L -100.64,-3302.42 L -100.048,-3302.49 L 100.048,-3302.49 L 100.64,-3302.42 L 101.218,-3302.27 L 101.772,-3302.05
 L 102.295,-3301.76 L 102.778,-3301.41 L 103.213,-3301 L 103.593,-3300.54 L 103.912,-3300.04 L 104.166,-3299.5
 L 104.351,-3298.93 L 104.463,-3298.35 L 104.5,-3297.75 L 104.5,-3128.25 L 104.463,-3127.65 L 104.351,-3127.07
 L 104.166,-3126.5 L 103.912,-3125.96 L 103.593,-3125.46 L 103.213,-3125 L 102.778,-3124.59 L 102.295,-3124.24
 L 101.772,-3123.95 L 101.218,-3123.73 L 100.64,-3123.58 L 100.048,-3123.51 z
M 100.937,-2934.09 L 101.545,-2934.24 L 102.129,-2934.48 L 102.679,-2934.78 L 103.187,-2935.15 L 103.645,-2935.58
 L 104.045,-2936.06 L 104.382,-2936.59 L 104.649,-2937.16 L 104.843,-2937.76 L 104.961,-2938.37 L 105,-2939
 L 105,-3109 L 104.961,-3109.63 L 104.843,-3110.24 L 104.649,-3110.84 L 104.382,-3111.41 L 104.045,-3111.94
 L 103.645,-3112.42 L 103.187,-3112.85 L 102.679,-3113.22 L 102.129,-3113.52 L 101.545,-3113.76 L 100.937,-3113.91
 L 100.314,-3113.99 L -100.314,-3113.99 L -100.937,-3113.91 L -101.545,-3113.76 L -102.129,-3113.52 L -102.679,-3113.22
 L -103.187,-3112.85 L -103.645,-3112.42 L -104.045,-3111.94 L -104.382,-3111.41 L -104.649,-3110.84 L -104.843,-3110.24
 L -104.961,-3109.63 L -105,-3109 L -105,-2939 L -104.961,-2938.37 L -104.843,-2937.76 L -104.649,-2937.16
 L -104.382,-2936.59 L -104.045,-2936.06 L -103.645,-2935.58 L -103.187,-2935.15 L -102.679,-2934.78 L -102.129,-2934.48
 L -101.545,-2934.24 L -100.937,-2934.09 L -100.314,-2934.01 L 100.314,-2934.01 z
M -100.037,-2934.68 L -100.608,-2934.75 L -101.165,-2934.9 L -101.699,-2935.11 L -102.203,-2935.38 L -102.668,-2935.72
 L -103.088,-2936.12 L -103.454,-2936.56 L -103.762,-2937.04 L -104.007,-2937.56 L -104.185,-2938.11 L -104.292,-2938.68
 L -104.328,-2939.25 L -104.328,-3108.75 L -104.292,-3109.32 L -104.185,-3109.89 L -104.007,-3110.44 L -103.762,-3110.96
 L -103.454,-3111.44 L -103.088,-3111.88 L -102.668,-3112.28 L -102.203,-3112.62 L -101.699,-3112.89 L -101.165,-3113.1
 L -100.608,-3113.25 L -100.037,-3113.32 L 100.037,-3113.32 L 100.608,-3113.25 L 101.165,-3113.1 L 101.699,-3112.89
 L 102.203,-3112.62 L 102.668,-3112.28 L 103.088,-3111.88 L 103.454,-3111.44 L 103.762,-3110.96 L 104.007,-3110.44
 L 104.185,-3109.89 L 104.292,-3109.32 L 104.328,-3108.75 L 104.328,-2939.25 L 104.292,-2938.68 L 104.185,-2938.11
 L 104.007,-2937.56 L 103.762,-2937.04 L 103.454,-2936.56 L 103.088,-2936.12 L 102.668,-2935.72 L 102.203,-2935.38
 L 101.699,-2935.11 L 101.165,-2934.9 L 100.608,-2934.75 L 100.037,-2934.68 z
M 100.937,-2745.09 L 101.545,-2745.24 L 102.129,-2745.48 L 102.679,-2745.78 L 103.187,-2746.15 L 103.645,-2746.58
 L 104.045,-2747.06 L 104.382,-2747.59 L 104.649,-2748.16 L 104.843,-2748.76 L 104.961,-2749.37 L 105,-2750
 L 105,-2920 L 104.961,-2920.63 L 104.843,-2921.24 L 104.649,-2921.84 L 104.382,-2922.41 L 104.045,-2922.94
 L 103.645,-2923.42 L 103.187,-2923.85 L 102.679,-2924.22 L 102.129,-2924.52 L 101.545,-2924.76 L 100.937,-2924.91
 L 100.314,-2924.99 L -100.314,-2924.99 L -100.937,-2924.91 L -101.545,-2924.76 L -102.129,-2924.52 L -102.679,-2924.22
 L -103.187,-2923.85 L -103.645,-2923.42 L -104.045,-2922.94 L -104.382,-2922.41 L -104.649,-2921.84 L -104.843,-2921.24
 L -104.961,-2920.63 L -105,-2920 L -105,-2750 L -104.961,-2749.37 L -104.843,-2748.76 L -104.649,-2748.16
 L -104.382,-2747.59 L -104.045,-2747.06 L -103.645,-2746.58 L -103.187,-2746.15 L -102.679,-2745.78 L -102.129,-2745.48
 L -101.545,-2745.24 L -100.937,-2745.09 L -100.314,-2745.01 L 100.314,-2745.01 z
M -99.8825,-2748.14 L -100.145,-2748.18 L -100.402,-2748.24 L -100.648,-2748.34 L -100.88,-2748.47 L -101.095,-2748.62
 L -101.288,-2748.81 L -101.457,-2749.01 L -101.599,-2749.23 L -101.711,-2749.47 L -101.793,-2749.73 L -101.843,-2749.99
 L -101.86,-2750.25 L -101.86,-2919.75 L -101.843,-2920.01 L -101.793,-2920.27 L -101.711,-2920.53 L -101.599,-2920.77
 L -101.457,-2920.99 L -101.288,-2921.19 L -101.095,-2921.38 L -100.88,-2921.53 L -100.648,-2921.66 L -100.402,-2921.76
 L -100.145,-2921.82 L -99.8825,-2921.86 L 99.8825,-2921.86 L 100.145,-2921.82 L 100.402,-2921.76 L 100.648,-2921.66
 L 100.88,-2921.53 L 101.095,-2921.38 L 101.288,-2921.19 L 101.457,-2920.99 L 101.599,-2920.77 L 101.711,-2920.53
 L 101.793,-2920.27 L 101.843,-2920.01 L 101.86,-2919.75 L 101.86,-2750.25 L 101.843,-2749.99 L 101.793,-2749.73
 L 101.711,-2749.47 L 101.599,-2749.23 L 101.457,-2749.01 L 101.288,-2748.81 L 101.095,-2748.62 L 100.88,-2748.47
 L 100.648,-2748.34 L 100.402,-2748.24 L 100.145,-2748.18 L 99.8825,-2748.14 z
" stroke="black" fill="lightgray" stroke-width="0.5"/>
</svg>
