  0
SECTION
  2
BLOCKS
  0
ENDSEC
  0
SECTION
  2
ENTITIES
  0
LINE
  8
0
 10
48.4369
 20
720.089
 11
49.0451
 21
720.245
  0
LINE
  8
0
 10
49.0451
 20
720.245
 11
49.6289
 21
720.476
  0
LINE
  8
0
 10
49.6289
 20
720.476
 11
50.1791
 21
720.778
  0
LINE
  8
0
 10
50.1791
 20
720.778
 11
50.6871
 21
721.147
  0
LINE
  8
0
 10
50.6871
 20
721.147
 11
51.1448
 21
721.577
  0
LINE
  8
0
 10
51.1448
 20
721.577
 11
51.5451
 21
722.061
  0
LINE
  8
0
 10
51.5451
 20
722.061
 11
51.8815
 21
722.591
  0
LINE
  8
0
 10
51.8815
 20
722.591
 11
52.1489
 21
723.159
  0
LINE
  8
0
 10
52.1489
 20
723.159
 11
52.3429
 21
723.757
  0
LINE
  8
0
 10
52.3429
 20
723.757
 11
52.4606
 21
724.373
  0
LINE
  8
0
 10
52.4606
 20
724.373
 11
52.5
 21
725
  0
LINE
  8
0
 10
52.5
 20
725
 11
52.5
 21
865
  0
LINE
  8
0
 10
52.5
 20
865
 11
52.4606
 21
865.627
  0
LINE
  8
0
 10
52.4606
 20
865.627
 11
52.3429
 21
866.243
  0
LINE
  8
0
 10
52.3429
 20
866.243
 11
52.1489
 21
866.841
  0
LINE
  8
0
 10
52.1489
 20
866.841
 11
51.8815
 21
867.409
  0
LINE
  8
0
 10
51.8815
 20
867.409
 11
51.5451
 21
867.939
  0
LINE
  8
0
 10
51.5451
 20
867.939
 11
51.1448
 21
868.423
  0
LINE
  8
0
 10
51.1448
 20
868.423
 11
50.6871
 21
868.853
  0
LINE
  8
0
 10
50.6871
 20
868.853
 11
50.1791
 21
869.222
  0
LINE
  8
0
 10
50.1791
 20
869.222
 11
49.6289
 21
869.524
  0
LINE
  8
0
 10
49.6289
 20
869.524
 11
49.0451
 21
869.755
  0
LINE
  8
0
 10
49.0451
 20
869.755
 11
48.4369
 21
869.911
  0
LINE
  8
0
 10
48.4369
 20
869.911
 11
47.8139
 21
869.99
  0
LINE
  8
0
 10
47.8139
 20
869.99
 11
-47.8139
 21
869.99
  0
LINE
  8
0
 10
-47.8139
 20
869.99
 11
-48.4369
 21
869.911
  0
LINE
  8
0
 10
-48.4369
 20
869.911
 11
-49.0451
 21
869.755
  0
LINE
  8
0
 10
-49.0451
 20
869.755
 11
-49.6289
 21
869.524
  0
LINE
  8
0
 10
-49.6289
 20
869.524
 11
-50.1791
 21
869.222
  0
LINE
  8
0
 10
-50.1791
 20
869.222
 11
-50.6871
 21
868.853
  0
LINE
  8
0
 10
-50.6871
 20
868.853
 11
-51.1448
 21
868.423
  0
LINE
  8
0
 10
-51.1448
 20
868.423
 11
-51.5451
 21
867.939
  0
LINE
  8
0
 10
-51.5451
 20
867.939
 11
-51.8815
 21
867.409
  0
LINE
  8
0
 10
-51.8815
 20
867.409
 11
-52.1489
 21
866.841
  0
LINE
  8
0
 10
-52.1489
 20
866.841
 11
-52.3429
 21
866.243
  0
LINE
  8
0
 10
-52.3429
 20
866.243
 11
-52.4606
 21
865.627
  0
LINE
  8
0
 10
-52.4606
 20
865.627
 11
-52.5
 21
865
  0
LINE
  8
0
 10
-52.5
 20
865
 11
-52.5
 21
725
  0
LINE
  8
0
 10
-52.5
 20
725
 11
-52.4606
 21
724.373
  0
LINE
  8
0
 10
-52.4606
 20
724.373
 11
-52.3429
 21
723.757
  0
LINE
  8
0
 10
-52.3429
 20
723.757
 11
-52.1489
 21
723.159
  0
LINE
  8
0
 10
-52.1489
 20
723.159
 11
-51.8815
 21
722.591
  0
LINE
  8
0
 10
-51.8815
 20
722.591
 11
-51.5451
 21
722.061
  0
LINE
  8
0
 10
-51.5451
 20
722.061
 11
-51.1448
 21
721.577
  0
LINE
  8
0
 10
-51.1448
 20
721.577
 11
-50.6871
 21
721.147
  0
LINE
  8
0
 10
-50.6871
 20
721.147
 11
-50.1791
 21
720.778
  0
LINE
  8
0
 10
-50.1791
 20
720.778
 11
-49.6289
 21
720.476
  0
LINE
  8
0
 10
-49.6289
 20
720.476
 11
-49.0451
 21
720.245
  0
LINE
  8
0
 10
-49.0451
 20
720.245
 11
-48.4369
 21
720.089
  0
LINE
  8
0
 10
-48.4369
 20
720.089
 11
-47.8139
 21
720.01
  0
LINE
  8
0
 10
-47.8139
 20
720.01
 11
47.8139
 21
720.01
  0
LINE
  8
0
 10
47.8139
 20
720.01
 11
48.4369
 21
720.089
  0
LINE
  8
0
 10
-47.2512
 20
721.508
 11
-47.7495
 21
721.571
  0
LINE
  8
0
 10
-47.7495
 20
721.571
 11
-48.2361
 21
721.696
  0
LINE
  8
0
 10
-48.2361
 20
721.696
 11
-48.7031
 21
721.881
  0
LINE
  8
0
 10
-48.7031
 20
721.881
 11
-49.1433
 21
722.123
  0
LINE
  8
0
 10
-49.1433
 20
722.123
 11
-49.5497
 21
722.418
  0
LINE
  8
0
 10
-49.5497
 20
722.418
 11
-49.9159
 21
722.762
  0
LINE
  8
0
 10
-49.9159
 20
722.762
 11
-50.2361
 21
723.149
  0
LINE
  8
0
 10
-50.2361
 20
723.149
 11
-50.5052
 21
723.573
  0
LINE
  8
0
 10
-50.5052
 20
723.573
 11
-50.7191
 21
724.028
  0
LINE
  8
0
 10
-50.7191
 20
724.028
 11
-50.8743
 21
724.505
  0
LINE
  8
0
 10
-50.8743
 20
724.505
 11
-50.9685
 21
724.999
  0
LINE
  8
0
 10
-50.9685
 20
724.999
 11
-51
 21
725.5
  0
LINE
  8
0
 10
-51
 20
725.5
 11
-51
 21
864.5
  0
LINE
  8
0
 10
-51
 20
864.5
 11
-50.9685
 21
865.001
  0
LINE
  8
0
 10
-50.9685
 20
865.001
 11
-50.8743
 21
865.495
  0
LINE
  8
0
 10
-50.8743
 20
865.495
 11
-50.7191
 21
865.972
  0
LINE
  8
0
 10
-50.7191
 20
865.972
 11
-50.5052
 21
866.427
  0
LINE
  8
0
 10
-50.5052
 20
866.427
 11
-50.2361
 21
866.851
  0
LINE
  8
0
 10
-50.2361
 20
866.851
 11
-49.9159
 21
867.238
  0
LINE
  8
0
 10
-49.9159
 20
867.238
 11
-49.5497
 21
867.582
  0
LINE
  8
0
 10
-49.5497
 20
867.582
 11
-49.1433
 21
867.877
  0
LINE
  8
0
 10
-49.1433
 20
867.877
 11
-48.7031
 21
868.119
  0
LINE
  8
0
 10
-48.7031
 20
868.119
 11
-48.2361
 21
868.304
  0
LINE
  8
0
 10
-48.2361
 20
868.304
 11
-47.7495
 21
868.429
  0
LINE
  8
0
 10
-47.7495
 20
868.429
 11
-47.2512
 21
868.492
  0
LINE
  8
0
 10
-47.2512
 20
868.492
 11
47.2512
 21
868.492
  0
LINE
  8
0
 10
47.2512
 20
868.492
 11
47.7495
 21
868.429
  0
LINE
  8
0
 10
47.7495
 20
868.429
 11
48.2361
 21
868.304
  0
LINE
  8
0
 10
48.2361
 20
868.304
 11
48.7031
 21
868.119
  0
LINE
  8
0
 10
48.7031
 20
868.119
 11
49.1433
 21
867.877
  0
LINE
  8
0
 10
49.1433
 20
867.877
 11
49.5497
 21
867.582
  0
LINE
  8
0
 10
49.5497
 20
867.582
 11
49.9159
 21
867.238
  0
LINE
  8
0
 10
49.9159
 20
867.238
 11
50.2361
 21
866.851
  0
LINE
  8
0
 10
50.2361
 20
866.851
 11
50.5052
 21
866.427
  0
LINE
  8
0
 10
50.5052
 20
866.427
 11
50.7191
 21
865.972
  0
LINE
  8
0
 10
50.7191
 20
865.972
 11
50.8743
 21
865.495
  0
LINE
  8
0
 10
50.8743
 20
865.495
 11
50.9685
 21
865.001
  0
LINE
  8
0
 10
50.9685
 20
865.001
 11
51
 21
864.5
  0
LINE
  8
0
 10
51
 20
864.5
 11
51
 21
725.5
  0
LINE
  8
0
 10
51
 20
725.5
 11
50.9685
 21
724.999
  0
LINE
  8
0
 10
50.9685
 20
724.999
 11
50.8743
 21
724.505
  0
LINE
  8
0
 10
50.8743
 20
724.505
 11
50.7191
 21
724.028
  0
LINE
  8
0
 10
50.7191
 20
724.028
 11
50.5052
 21
723.573
  0
LINE
  8
0
 10
50.5052
 20
723.573
 11
50.2361
 21
723.149
  0
LINE
  8
0
 10
50.2361
 20
723.149
 11
49.9159
 21
722.762
  0
LINE
  8
0
 10
49.9159
 20
722.762
 11
49.5497
 21
722.418
  0
LINE
  8
0
 10
49.5497
 20
722.418
 11
49.1433
 21
722.123
  0
LINE
  8
0
 10
49.1433
 20
722.123
 11
48.7031
 21
721.881
  0
LINE
  8
0
 10
48.7031
 20
721.881
 11
48.2361
 21
721.696
  0
LINE
  8
0
 10
48.2361
 20
721.696
 11
47.7495
 21
721.571
  0
LINE
  8
0
 10
47.7495
 20
721.571
 11
47.2512
 21
721.508
  0
LINE
  8
0
 10
47.2512
 20
721.508
 11
-47.2512
 21
721.508
  0
LINE
  8
0
 10
48.4369
 20
561.089
 11
49.0451
 21
561.245
  0
LINE
  8
0
 10
49.0451
 20
561.245
 11
49.6289
 21
561.476
  0
LINE
  8
0
 10
49.6289
 20
561.476
 11
50.1791
 21
561.778
  0
LINE
  8
0
 10
50.1791
 20
561.778
 11
50.6871
 21
562.147
  0
LINE
  8
0
 10
50.6871
 20
562.147
 11
51.1448
 21
562.577
  0
LINE
  8
0
 10
51.1448
 20
562.577
 11
51.5451
 21
563.061
  0
LINE
  8
0
 10
51.5451
 20
563.061
 11
51.8815
 21
563.591
  0
LINE
  8
0
 10
51.8815
 20
563.591
 11
52.1489
 21
564.159
  0
LINE
  8
0
 10
52.1489
 20
564.159
 11
52.3429
 21
564.757
  0
LINE
  8
0
 10
52.3429
 20
564.757
 11
52.4606
 21
565.373
  0
LINE
  8
0
 10
52.4606
 20
565.373
 11
52.5
 21
566
  0
LINE
  8
0
 10
52.5
 20
566
 11
52.5
 21
706
  0
LINE
  8
0
 10
52.5
 20
706
 11
52.4606
 21
706.627
  0
LINE
  8
0
 10
52.4606
 20
706.627
 11
52.3429
 21
707.243
  0
LINE
  8
0
 10
52.3429
 20
707.243
 11
52.1489
 21
707.841
  0
LINE
  8
0
 10
52.1489
 20
707.841
 11
51.8815
 21
708.409
  0
LINE
  8
0
 10
51.8815
 20
708.409
 11
51.5451
 21
708.939
  0
LINE
  8
0
 10
51.5451
 20
708.939
 11
51.1448
 21
709.423
  0
LINE
  8
0
 10
51.1448
 20
709.423
 11
50.6871
 21
709.853
  0
LINE
  8
0
 10
50.6871
 20
709.853
 11
50.1791
 21
710.222
  0
LINE
  8
0
 10
50.1791
 20
710.222
 11
49.6289
 21
710.524
  0
LINE
  8
0
 10
49.6289
 20
710.524
 11
49.0451
 21
710.755
  0
LINE
  8
0
 10
49.0451
 20
710.755
 11
48.4369
 21
710.911
  0
LINE
  8
0
 10
48.4369
 20
710.911
 11
47.8139
 21
710.99
  0
LINE
  8
0
 10
47.8139
 20
710.99
 11
-47.8139
 21
710.99
  0
LINE
  8
0
 10
-47.8139
 20
710.99
 11
-48.4369
 21
710.911
  0
LINE
  8
0
 10
-48.4369
 20
710.911
 11
-49.0451
 21
710.755
  0
LINE
  8
0
 10
-49.0451
 20
710.755
 11
-49.6289
 21
710.524
  0
LINE
  8
0
 10
-49.6289
 20
710.524
 11
-50.1791
 21
710.222
  0
LINE
  8
0
 10
-50.1791
 20
710.222
 11
-50.6871
 21
709.853
  0
LINE
  8
0
 10
-50.6871
 20
709.853
 11
-51.1448
 21
709.423
  0
LINE
  8
0
 10
-51.1448
 20
709.423
 11
-51.5451
 21
708.939
  0
LINE
  8
0
 10
-51.5451
 20
708.939
 11
-51.8815
 21
708.409
  0
LINE
  8
0
 10
-51.8815
 20
708.409
 11
-52.1489
 21
707.841
  0
LINE
  8
0
 10
-52.1489
 20
707.841
 11
-52.3429
 21
707.243
  0
LINE
  8
0
 10
-52.3429
 20
707.243
 11
-52.4606
 21
706.627
  0
LINE
  8
0
 10
-52.4606
 20
706.627
 11
-52.5
 21
706
  0
LINE
  8
0
 10
-52.5
 20
706
 11
-52.5
 21
566
  0
LINE
  8
0
 10
-52.5
 20
566
 11
-52.4606
 21
565.373
  0
LINE
  8
0
 10
-52.4606
 20
565.373
 11
-52.3429
 21
564.757
  0
LINE
  8
0
 10
-52.3429
 20
564.757
 11
-52.1489
 21
564.159
  0
LINE
  8
0
 10
-52.1489
 20
564.159
 11
-51.8815
 21
563.591
  0
LINE
  8
0
 10
-51.8815
 20
563.591
 11
-51.5451
 21
563.061
  0
LINE
  8
0
 10
-51.5451
 20
563.061
 11
-51.1448
 21
562.577
  0
LINE
  8
0
 10
-51.1448
 20
562.577
 11
-50.6871
 21
562.147
  0
LINE
  8
0
 10
-50.6871
 20
562.147
 11
-50.1791
 21
561.778
  0
LINE
  8
0
 10
-50.1791
 20
561.778
 11
-49.6289
 21
561.476
  0
LINE
  8
0
 10
-49.6289
 20
561.476
 11
-49.0451
 21
561.245
  0
LINE
  8
0
 10
-49.0451
 20
561.245
 11
-48.4369
 21
561.089
  0
LINE
  8
0
 10
-48.4369
 20
561.089
 11
-47.8139
 21
561.01
  0
LINE
  8
0
 10
-47.8139
 20
561.01
 11
47.8139
 21
561.01
  0
LINE
  8
0
 10
47.8139
 20
561.01
 11
48.4369
 21
561.089
  0
LINE
  8
0
 10
-47.1954
 20
563.393
 11
-47.5833
 21
563.442
  0
LINE
  8
0
 10
-47.5833
 20
563.442
 11
-47.9619
 21
563.539
  0
LINE
  8
0
 10
-47.9619
 20
563.539
 11
-48.3254
 21
563.683
  0
LINE
  8
0
 10
-48.3254
 20
563.683
 11
-48.668
 21
563.872
  0
LINE
  8
0
 10
-48.668
 20
563.872
 11
-48.9842
 21
564.101
  0
LINE
  8
0
 10
-48.9842
 20
564.101
 11
-49.2692
 21
564.369
  0
LINE
  8
0
 10
-49.2692
 20
564.369
 11
-49.5184
 21
564.67
  0
LINE
  8
0
 10
-49.5184
 20
564.67
 11
-49.7279
 21
565
  0
LINE
  8
0
 10
-49.7279
 20
565
 11
-49.8943
 21
565.354
  0
LINE
  8
0
 10
-49.8943
 20
565.354
 11
-50.0151
 21
565.726
  0
LINE
  8
0
 10
-50.0151
 20
565.726
 11
-50.0884
 21
566.11
  0
LINE
  8
0
 10
-50.0884
 20
566.11
 11
-50.1129
 21
566.5
  0
LINE
  8
0
 10
-50.1129
 20
566.5
 11
-50.1129
 21
705.5
  0
LINE
  8
0
 10
-50.1129
 20
705.5
 11
-50.0884
 21
705.89
  0
LINE
  8
0
 10
-50.0884
 20
705.89
 11
-50.0151
 21
706.274
  0
LINE
  8
0
 10
-50.0151
 20
706.274
 11
-49.8943
 21
706.646
  0
LINE
  8
0
 10
-49.8943
 20
706.646
 11
-49.7279
 21
707
  0
LINE
  8
0
 10
-49.7279
 20
707
 11
-49.5184
 21
707.33
  0
LINE
  8
0
 10
-49.5184
 20
707.33
 11
-49.2692
 21
707.631
  0
LINE
  8
0
 10
-49.2692
 20
707.631
 11
-48.9842
 21
707.899
  0
LINE
  8
0
 10
-48.9842
 20
707.899
 11
-48.668
 21
708.128
  0
LINE
  8
0
 10
-48.668
 20
708.128
 11
-48.3254
 21
708.317
  0
LINE
  8
0
 10
-48.3254
 20
708.317
 11
-47.9619
 21
708.461
  0
LINE
  8
0
 10
-47.9619
 20
708.461
 11
-47.5833
 21
708.558
  0
LINE
  8
0
 10
-47.5833
 20
708.558
 11
-47.1954
 21
708.607
  0
LINE
  8
0
 10
-47.1954
 20
708.607
 11
47.1954
 21
708.607
  0
LINE
  8
0
 10
47.1954
 20
708.607
 11
47.5833
 21
708.558
  0
LINE
  8
0
 10
47.5833
 20
708.558
 11
47.9619
 21
708.461
  0
LINE
  8
0
 10
47.9619
 20
708.461
 11
48.3254
 21
708.317
  0
LINE
  8
0
 10
48.3254
 20
708.317
 11
48.668
 21
708.128
  0
LINE
  8
0
 10
48.668
 20
708.128
 11
48.9842
 21
707.899
  0
LINE
  8
0
 10
48.9842
 20
707.899
 11
49.2692
 21
707.631
  0
LINE
  8
0
 10
49.2692
 20
707.631
 11
49.5184
 21
707.33
  0
LINE
  8
0
 10
49.5184
 20
707.33
 11
49.7279
 21
707
  0
LINE
  8
0
 10
49.7279
 20
707
 11
49.8943
 21
706.646
  0
LINE
  8
0
 10
49.8943
 20
706.646
 11
50.0151
 21
706.274
  0
LINE
  8
0
 10
50.0151
 20
706.274
 11
50.0884
 21
705.89
  0
LINE
  8
0
 10
50.0884
 20
705.89
 11
50.1129
 21
705.5
  0
LINE
  8
0
 10
50.1129
 20
705.5
 11
50.1129
 21
566.5
  0
LINE
  8
0
 10
50.1129
 20
566.5
 11
50.0884
 21
566.11
  0
LINE
  8
0
 10
50.0884
 20
566.11
 11
50.0151
 21
565.726
  0
LINE
  8
0
 10
50.0151
 20
565.726
 11
49.8943
 21
565.354
  0
LINE
  8
0
 10
49.8943
 20
565.354
 11
49.7279
 21
565
  0
LINE
  8
0
 10
49.7279
 20
565
 11
49.5184
 21
564.67
  0
LINE
  8
0
 10
49.5184
 20
564.67
 11
49.2692
 21
564.369
  0
LINE
  8
0
 10
49.2692
 20
564.369
 11
48.9842
 21
564.101
  0
LINE
  8
0
 10
48.9842
 20
564.101
 11
48.668
 21
563.872
  0
LINE
  8
0
 10
48.668
 20
563.872
 11
48.3254
 21
563.683
  0
LINE
  8
0
 10
48.3254
 20
563.683
 11
47.9619
 21
563.539
  0
LINE
  8
0
 10
47.9619
 20
563.539
 11
47.5833
 21
563.442
  0
LINE
  8
0
 10
47.5833
 20
563.442
 11
47.1954
 21
563.393
  0
LINE
  8
0
 10
47.1954
 20
563.393
 11
-47.1954
 21
563.393
  0
LINE
  8
0
 10
48.4369
 20
402.089
 11
49.0451
 21
402.245
  0
LINE
  8
0
 10
49.0451
 20
402.245
 11
49.6289
 21
402.476
  0
LINE
  8
0
 10
49.6289
 20
402.476
 11
50.1791
 21
402.778
  0
LINE
  8
0
 10
50.1791
 20
402.778
 11
50.6871
 21
403.147
  0
LINE
  8
0
 10
50.6871
 20
403.147
 11
51.1448
 21
403.577
  0
LINE
  8
0
 10
51.1448
 20
403.577
 11
51.5451
 21
404.061
  0
LINE
  8
0
 10
51.5451
 20
404.061
 11
51.8815
 21
404.591
  0
LINE
  8
0
 10
51.8815
 20
404.591
 11
52.1489
 21
405.159
  0
LINE
  8
0
 10
52.1489
 20
405.159
 11
52.3429
 21
405.757
  0
LINE
  8
0
 10
52.3429
 20
405.757
 11
52.4606
 21
406.373
  0
LINE
  8
0
 10
52.4606
 20
406.373
 11
52.5
 21
407
  0
LINE
  8
0
 10
52.5
 20
407
 11
52.5
 21
547
  0
LINE
  8
0
 10
52.5
 20
547
 11
52.4606
 21
547.627
  0
LINE
  8
0
 10
52.4606
 20
547.627
 11
52.3429
 21
548.243
  0
LINE
  8
0
 10
52.3429
 20
548.243
 11
52.1489
 21
548.841
  0
LINE
  8
0
 10
52.1489
 20
548.841
 11
51.8815
 21
549.409
  0
LINE
  8
0
 10
51.8815
 20
549.409
 11
51.5451
 21
549.939
  0
LINE
  8
0
 10
51.5451
 20
549.939
 11
51.1448
 21
550.423
  0
LINE
  8
0
 10
51.1448
 20
550.423
 11
50.6871
 21
550.853
  0
LINE
  8
0
 10
50.6871
 20
550.853
 11
50.1791
 21
551.222
  0
LINE
  8
0
 10
50.1791
 20
551.222
 11
49.6289
 21
551.524
  0
LINE
  8
0
 10
49.6289
 20
551.524
 11
49.0451
 21
551.755
  0
LINE
  8
0
 10
49.0451
 20
551.755
 11
48.4369
 21
551.911
  0
LINE
  8
0
 10
48.4369
 20
551.911
 11
47.8139
 21
551.99
  0
LINE
  8
0
 10
47.8139
 20
551.99
 11
-47.8139
 21
551.99
  0
LINE
  8
0
 10
-47.8139
 20
551.99
 11
-48.4369
 21
551.911
  0
LINE
  8
0
 10
-48.4369
 20
551.911
 11
-49.0451
 21
551.755
  0
LINE
  8
0
 10
-49.0451
 20
551.755
 11
-49.6289
 21
551.524
  0
LINE
  8
0
 10
-49.6289
 20
551.524
 11
-50.1791
 21
551.222
  0
LINE
  8
0
 10
-50.1791
 20
551.222
 11
-50.6871
 21
550.853
  0
LINE
  8
0
 10
-50.6871
 20
550.853
 11
-51.1448
 21
550.423
  0
LINE
  8
0
 10
-51.1448
 20
550.423
 11
-51.5451
 21
549.939
  0
LINE
  8
0
 10
-51.5451
 20
549.939
 11
-51.8815
 21
549.409
  0
LINE
  8
0
 10
-51.8815
 20
549.409
 11
-52.1489
 21
548.841
  0
LINE
  8
0
 10
-52.1489
 20
548.841
 11
-52.3429
 21
548.243
  0
LINE
  8
0
 10
-52.3429
 20
548.243
 11
-52.4606
 21
547.627
  0
LINE
  8
0
 10
-52.4606
 20
547.627
 11
-52.5
 21
547
  0
LINE
  8
0
 10
-52.5
 20
547
 11
-52.5
 21
407
  0
LINE
  8
0
 10
-52.5
 20
407
 11
-52.4606
 21
406.373
  0
LINE
  8
0
 10
-52.4606
 20
406.373
 11
-52.3429
 21
405.757
  0
LINE
  8
0
 10
-52.3429
 20
405.757
 11
-52.1489
 21
405.159
  0
LINE
  8
0
 10
-52.1489
 20
405.159
 11
-51.8815
 21
404.591
  0
LINE
  8
0
 10
-51.8815
 20
404.591
 11
-51.5451
 21
404.061
  0
LINE
  8
0
 10
-51.5451
 20
404.061
 11
-51.1448
 21
403.577
  0
LINE
  8
0
 10
-51.1448
 20
403.577
 11
-50.6871
 21
403.147
  0
LINE
  8
0
 10
-50.6871
 20
403.147
 11
-50.1791
 21
402.778
  0
LINE
  8
0
 10
-50.1791
 20
402.778
 11
-49.6289
 21
402.476
  0
LINE
  8
0
 10
-49.6289
 20
402.476
 11
-49.0451
 21
402.245
  0
LINE
  8
0
 10
-49.0451
 20
402.245
 11
-48.4369
 21
402.089
  0
LINE
  8
0
 10
-48.4369
 20
402.089
 11
-47.8139
 21
402.01
  0
LINE
  8
0
 10
-47.8139
 20
402.01
 11
47.8139
 21
402.01
  0
LINE
  8
0
 10
47.8139
 20
402.01
 11
48.4369
 21
402.089
  0
LINE
  8
0
 10
44.8659
 20
542.369
 11
44.5999
 21
542.403
  0
LINE
  8
0
 10
44.5999
 20
542.403
 11
44.3401
 21
542.469
  0
LINE
  8
0
 10
44.3401
 20
542.469
 11
44.0908
 21
542.568
  0
LINE
  8
0
 10
44.0908
 20
542.568
 11
43.8559
 21
542.697
  0
LINE
  8
0
 10
43.8559
 20
542.697
 11
43.6389
 21
542.855
  0
LINE
  8
0
 10
43.6389
 20
542.855
 11
43.4434
 21
543.038
  0
LINE
  8
0
 10
43.4434
 20
543.038
 11
43.2725
 21
543.245
  0
LINE
  8
0
 10
43.2725
 20
543.245
 11
43.1288
 21
543.471
  0
LINE
  8
0
 10
43.1288
 20
543.471
 11
43.0146
 21
543.714
  0
LINE
  8
0
 10
43.0146
 20
543.714
 11
42.9318
 21
543.969
  0
LINE
  8
0
 10
42.9318
 20
543.969
 11
42.8815
 21
544.232
  0
LINE
  8
0
 10
42.8815
 20
544.232
 11
42.8647
 21
544.5
  0
LINE
  8
0
 10
42.8647
 20
544.5
 11
42.8815
 21
544.768
  0
LINE
  8
0
 10
42.8815
 20
544.768
 11
42.9318
 21
545.031
  0
LINE
  8
0
 10
42.9318
 20
545.031
 11
43.0146
 21
545.286
  0
LINE
  8
0
 10
43.0146
 20
545.286
 11
43.1288
 21
545.529
  0
LINE
  8
0
 10
43.1288
 20
545.529
 11
43.2725
 21
545.755
  0
LINE
  8
0
 10
43.2725
 20
545.755
 11
43.4434
 21
545.962
  0
LINE
  8
0
 10
43.4434
 20
545.962
 11
43.6389
 21
546.145
  0
LINE
  8
0
 10
43.6389
 20
546.145
 11
43.8559
 21
546.303
  0
LINE
  8
0
 10
43.8559
 20
546.303
 11
44.0908
 21
546.432
  0
LINE
  8
0
 10
44.0908
 20
546.432
 11
44.3401
 21
546.531
  0
LINE
  8
0
 10
44.3401
 20
546.531
 11
44.5999
 21
546.597
  0
LINE
  8
0
 10
44.5999
 20
546.597
 11
44.8659
 21
546.631
  0
LINE
  8
0
 10
44.8659
 20
546.631
 11
45.1341
 21
546.631
  0
LINE
  8
0
 10
45.1341
 20
546.631
 11
45.4001
 21
546.597
  0
LINE
  8
0
 10
45.4001
 20
546.597
 11
45.6598
 21
546.531
  0
LINE
  8
0
 10
45.6598
 20
546.531
 11
45.9092
 21
546.432
  0
LINE
  8
0
 10
45.9092
 20
546.432
 11
46.1441
 21
546.303
  0
LINE
  8
0
 10
46.1441
 20
546.303
 11
46.3611
 21
546.145
  0
LINE
  8
0
 10
46.3611
 20
546.145
 11
46.5565
 21
545.962
  0
LINE
  8
0
 10
46.5565
 20
545.962
 11
46.7275
 21
545.755
  0
LINE
  8
0
 10
46.7275
 20
545.755
 11
46.8712
 21
545.529
  0
LINE
  8
0
 10
46.8712
 20
545.529
 11
46.9853
 21
545.286
  0
LINE
  8
0
 10
46.9853
 20
545.286
 11
47.0682
 21
545.031
  0
LINE
  8
0
 10
47.0682
 20
545.031
 11
47.1185
 21
544.768
  0
LINE
  8
0
 10
47.1185
 20
544.768
 11
47.1353
 21
544.5
  0
LINE
  8
0
 10
47.1353
 20
544.5
 11
47.1185
 21
544.232
  0
LINE
  8
0
 10
47.1185
 20
544.232
 11
47.0682
 21
543.969
  0
LINE
  8
0
 10
47.0682
 20
543.969
 11
46.9853
 21
543.714
  0
LINE
  8
0
 10
46.9853
 20
543.714
 11
46.8712
 21
543.471
  0
LINE
  8
0
 10
46.8712
 20
543.471
 11
46.7275
 21
543.245
  0
LINE
  8
0
 10
46.7275
 20
543.245
 11
46.5565
 21
543.038
  0
LINE
  8
0
 10
46.5565
 20
543.038
 11
46.3611
 21
542.855
  0
LINE
  8
0
 10
46.3611
 20
542.855
 11
46.1441
 21
542.697
  0
LINE
  8
0
 10
46.1441
 20
542.697
 11
45.9092
 21
542.568
  0
LINE
  8
0
 10
45.9092
 20
542.568
 11
45.6598
 21
542.469
  0
LINE
  8
0
 10
45.6598
 20
542.469
 11
45.4001
 21
542.403
  0
LINE
  8
0
 10
45.4001
 20
542.403
 11
45.1341
 21
542.369
  0
LINE
  8
0
 10
45.1341
 20
542.369
 11
44.8659
 21
542.369
  0
LINE
  8
0
 10
-45.1341
 20
542.369
 11
-45.4001
 21
542.403
  0
LINE
  8
0
 10
-45.4001
 20
542.403
 11
-45.6598
 21
542.469
  0
LINE
  8
0
 10
-45.6598
 20
542.469
 11
-45.9092
 21
542.568
  0
LINE
  8
0
 10
-45.9092
 20
542.568
 11
-46.1441
 21
542.697
  0
LINE
  8
0
 10
-46.1441
 20
542.697
 11
-46.3611
 21
542.855
  0
LINE
  8
0
 10
-46.3611
 20
542.855
 11
-46.5565
 21
543.038
  0
LINE
  8
0
 10
-46.5565
 20
543.038
 11
-46.7275
 21
543.245
  0
LINE
  8
0
 10
-46.7275
 20
543.245
 11
-46.8712
 21
543.471
  0
LINE
  8
0
 10
-46.8712
 20
543.471
 11
-46.9853
 21
543.714
  0
LINE
  8
0
 10
-46.9853
 20
543.714
 11
-47.0682
 21
543.969
  0
LINE
  8
0
 10
-47.0682
 20
543.969
 11
-47.1185
 21
544.232
  0
LINE
  8
0
 10
-47.1185
 20
544.232
 11
-47.1353
 21
544.5
  0
LINE
  8
0
 10
-47.1353
 20
544.5
 11
-47.1185
 21
544.768
  0
LINE
  8
0
 10
-47.1185
 20
544.768
 11
-47.0682
 21
545.031
  0
LINE
  8
0
 10
-47.0682
 20
545.031
 11
-46.9853
 21
545.286
  0
LINE
  8
0
 10
-46.9853
 20
545.286
 11
-46.8712
 21
545.529
  0
LINE
  8
0
 10
-46.8712
 20
545.529
 11
-46.7275
 21
545.755
  0
LINE
  8
0
 10
-46.7275
 20
545.755
 11
-46.5565
 21
545.962
  0
LINE
  8
0
 10
-46.5565
 20
545.962
 11
-46.3611
 21
546.145
  0
LINE
  8
0
 10
-46.3611
 20
546.145
 11
-46.1441
 21
546.303
  0
LINE
  8
0
 10
-46.1441
 20
546.303
 11
-45.9092
 21
546.432
  0
LINE
  8
0
 10
-45.9092
 20
546.432
 11
-45.6598
 21
546.531
  0
LINE
  8
0
 10
-45.6598
 20
546.531
 11
-45.4001
 21
546.597
  0
LINE
  8
0
 10
-45.4001
 20
546.597
 11
-45.1341
 21
546.631
  0
LINE
  8
0
 10
-45.1341
 20
546.631
 11
-44.8659
 21
546.631
  0
LINE
  8
0
 10
-44.8659
 20
546.631
 11
-44.5999
 21
546.597
  0
LINE
  8
0
 10
-44.5999
 20
546.597
 11
-44.3401
 21
546.531
  0
LINE
  8
0
 10
-44.3401
 20
546.531
 11
-44.0908
 21
546.432
  0
LINE
  8
0
 10
-44.0908
 20
546.432
 11
-43.8559
 21
546.303
  0
LINE
  8
0
 10
-43.8559
 20
546.303
 11
-43.6389
 21
546.145
  0
LINE
  8
0
 10
-43.6389
 20
546.145
 11
-43.4434
 21
545.962
  0
LINE
  8
0
 10
-43.4434
 20
545.962
 11
-43.2725
 21
545.755
  0
LINE
  8
0
 10
-43.2725
 20
545.755
 11
-43.1288
 21
545.529
  0
LINE
  8
0
 10
-43.1288
 20
545.529
 11
-43.0146
 21
545.286
  0
LINE
  8
0
 10
-43.0146
 20
545.286
 11
-42.9318
 21
545.031
  0
LINE
  8
0
 10
-42.9318
 20
545.031
 11
-42.8815
 21
544.768
  0
LINE
  8
0
 10
-42.8815
 20
544.768
 11
-42.8647
 21
544.5
  0
LINE
  8
0
 10
-42.8647
 20
544.5
 11
-42.8815
 21
544.232
  0
LINE
  8
0
 10
-42.8815
 20
544.232
 11
-42.9318
 21
543.969
  0
LINE
  8
0
 10
-42.9318
 20
543.969
 11
-43.0146
 21
543.714
  0
LINE
  8
0
 10
-43.0146
 20
543.714
 11
-43.1288
 21
543.471
  0
LINE
  8
0
 10
-43.1288
 20
543.471
 11
-43.2725
 21
543.245
  0
LINE
  8
0
 10
-43.2725
 20
543.245
 11
-43.4434
 21
543.038
  0
LINE
  8
0
 10
-43.4434
 20
543.038
 11
-43.6389
 21
542.855
  0
LINE
  8
0
 10
-43.6389
 20
542.855
 11
-43.8559
 21
542.697
  0
LINE
  8
0
 10
-43.8559
 20
542.697
 11
-44.0908
 21
542.568
  0
LINE
  8
0
 10
-44.0908
 20
542.568
 11
-44.3401
 21
542.469
  0
LINE
  8
0
 10
-44.3401
 20
542.469
 11
-44.5999
 21
542.403
  0
LINE
  8
0
 10
-44.5999
 20
542.403
 11
-44.8659
 21
542.369
  0
LINE
  8
0
 10
-44.8659
 20
542.369
 11
-45.1341
 21
542.369
  0
LINE
  8
0
 10
44.8659
 20
407.369
 11
44.5999
 21
407.403
  0
LINE
  8
0
 10
44.5999
 20
407.403
 11
44.3401
 21
407.469
  0
LINE
  8
0
 10
44.3401
 20
407.469
 11
44.0908
 21
407.568
  0
LINE
  8
0
 10
44.0908
 20
407.568
 11
43.8559
 21
407.697
  0
LINE
  8
0
 10
43.8559
 20
407.697
 11
43.6389
 21
407.855
  0
LINE
  8
0
 10
43.6389
 20
407.855
 11
43.4434
 21
408.038
  0
LINE
  8
0
 10
43.4434
 20
408.038
 11
43.2725
 21
408.245
  0
LINE
  8
0
 10
43.2725
 20
408.245
 11
43.1288
 21
408.471
  0
LINE
  8
0
 10
43.1288
 20
408.471
 11
43.0146
 21
408.714
  0
LINE
  8
0
 10
43.0146
 20
408.714
 11
42.9318
 21
408.969
  0
LINE
  8
0
 10
42.9318
 20
408.969
 11
42.8815
 21
409.232
  0
LINE
  8
0
 10
42.8815
 20
409.232
 11
42.8647
 21
409.5
  0
LINE
  8
0
 10
42.8647
 20
409.5
 11
42.8815
 21
409.768
  0
LINE
  8
0
 10
42.8815
 20
409.768
 11
42.9318
 21
410.031
  0
LINE
  8
0
 10
42.9318
 20
410.031
 11
43.0146
 21
410.286
  0
LINE
  8
0
 10
43.0146
 20
410.286
 11
43.1288
 21
410.529
  0
LINE
  8
0
 10
43.1288
 20
410.529
 11
43.2725
 21
410.755
  0
LINE
  8
0
 10
43.2725
 20
410.755
 11
43.4434
 21
410.962
  0
LINE
  8
0
 10
43.4434
 20
410.962
 11
43.6389
 21
411.145
  0
LINE
  8
0
 10
43.6389
 20
411.145
 11
43.8559
 21
411.303
  0
LINE
  8
0
 10
43.8559
 20
411.303
 11
44.0908
 21
411.432
  0
LINE
  8
0
 10
44.0908
 20
411.432
 11
44.3401
 21
411.531
  0
LINE
  8
0
 10
44.3401
 20
411.531
 11
44.5999
 21
411.597
  0
LINE
  8
0
 10
44.5999
 20
411.597
 11
44.8659
 21
411.631
  0
LINE
  8
0
 10
44.8659
 20
411.631
 11
45.1341
 21
411.631
  0
LINE
  8
0
 10
45.1341
 20
411.631
 11
45.4001
 21
411.597
  0
LINE
  8
0
 10
45.4001
 20
411.597
 11
45.6598
 21
411.531
  0
LINE
  8
0
 10
45.6598
 20
411.531
 11
45.9092
 21
411.432
  0
LINE
  8
0
 10
45.9092
 20
411.432
 11
46.1441
 21
411.303
  0
LINE
  8
0
 10
46.1441
 20
411.303
 11
46.3611
 21
411.145
  0
LINE
  8
0
 10
46.3611
 20
411.145
 11
46.5565
 21
410.962
  0
LINE
  8
0
 10
46.5565
 20
410.962
 11
46.7275
 21
410.755
  0
LINE
  8
0
 10
46.7275
 20
410.755
 11
46.8712
 21
410.529
  0
LINE
  8
0
 10
46.8712
 20
410.529
 11
46.9853
 21
410.286
  0
LINE
  8
0
 10
46.9853
 20
410.286
 11
47.0682
 21
410.031
  0
LINE
  8
0
 10
47.0682
 20
410.031
 11
47.1185
 21
409.768
  0
LINE
  8
0
 10
47.1185
 20
409.768
 11
47.1353
 21
409.5
  0
LINE
  8
0
 10
47.1353
 20
409.5
 11
47.1185
 21
409.232
  0
LINE
  8
0
 10
47.1185
 20
409.232
 11
47.0682
 21
408.969
  0
LINE
  8
0
 10
47.0682
 20
408.969
 11
46.9853
 21
408.714
  0
LINE
  8
0
 10
46.9853
 20
408.714
 11
46.8712
 21
408.471
  0
LINE
  8
0
 10
46.8712
 20
408.471
 11
46.7275
 21
408.245
  0
LINE
  8
0
 10
46.7275
 20
408.245
 11
46.5565
 21
408.038
  0
LINE
  8
0
 10
46.5565
 20
408.038
 11
46.3611
 21
407.855
  0
LINE
  8
0
 10
46.3611
 20
407.855
 11
46.1441
 21
407.697
  0
LINE
  8
0
 10
46.1441
 20
407.697
 11
45.9092
 21
407.568
  0
LINE
  8
0
 10
45.9092
 20
407.568
 11
45.6598
 21
407.469
  0
LINE
  8
0
 10
45.6598
 20
407.469
 11
45.4001
 21
407.403
  0
LINE
  8
0
 10
45.4001
 20
407.403
 11
45.1341
 21
407.369
  0
LINE
  8
0
 10
45.1341
 20
407.369
 11
44.8659
 21
407.369
  0
LINE
  8
0
 10
-45.1341
 20
407.369
 11
-45.4001
 21
407.403
  0
LINE
  8
0
 10
-45.4001
 20
407.403
 11
-45.6598
 21
407.469
  0
LINE
  8
0
 10
-45.6598
 20
407.469
 11
-45.9092
 21
407.568
  0
LINE
  8
0
 10
-45.9092
 20
407.568
 11
-46.1441
 21
407.697
  0
LINE
  8
0
 10
-46.1441
 20
407.697
 11
-46.3611
 21
407.855
  0
LINE
  8
0
 10
-46.3611
 20
407.855
 11
-46.5565
 21
408.038
  0
LINE
  8
0
 10
-46.5565
 20
408.038
 11
-46.7275
 21
408.245
  0
LINE
  8
0
 10
-46.7275
 20
408.245
 11
-46.8712
 21
408.471
  0
LINE
  8
0
 10
-46.8712
 20
408.471
 11
-46.9853
 21
408.714
  0
LINE
  8
0
 10
-46.9853
 20
408.714
 11
-47.0682
 21
408.969
  0
LINE
  8
0
 10
-47.0682
 20
408.969
 11
-47.1185
 21
409.232
  0
LINE
  8
0
 10
-47.1185
 20
409.232
 11
-47.1353
 21
409.5
  0
LINE
  8
0
 10
-47.1353
 20
409.5
 11
-47.1185
 21
409.768
  0
LINE
  8
0
 10
-47.1185
 20
409.768
 11
-47.0682
 21
410.031
  0
LINE
  8
0
 10
-47.0682
 20
410.031
 11
-46.9853
 21
410.286
  0
LINE
  8
0
 10
-46.9853
 20
410.286
 11
-46.8712
 21
410.529
  0
LINE
  8
0
 10
-46.8712
 20
410.529
 11
-46.7275
 21
410.755
  0
LINE
  8
0
 10
-46.7275
 20
410.755
 11
-46.5565
 21
410.962
  0
LINE
  8
0
 10
-46.5565
 20
410.962
 11
-46.3611
 21
411.145
  0
LINE
  8
0
 10
-46.3611
 20
411.145
 11
-46.1441
 21
411.303
  0
LINE
  8
0
 10
-46.1441
 20
411.303
 11
-45.9092
 21
411.432
  0
LINE
  8
0
 10
-45.9092
 20
411.432
 11
-45.6598
 21
411.531
  0
LINE
  8
0
 10
-45.6598
 20
411.531
 11
-45.4001
 21
411.597
  0
LINE
  8
0
 10
-45.4001
 20
411.597
 11
-45.1341
 21
411.631
  0
LINE
  8
0
 10
-45.1341
 20
411.631
 11
-44.8659
 21
411.631
  0
LINE
  8
0
 10
-44.8659
 20
411.631
 11
-44.5999
 21
411.597
  0
LINE
  8
0
 10
-44.5999
 20
411.597
 11
-44.3401
 21
411.531
  0
LINE
  8
0
 10
-44.3401
 20
411.531
 11
-44.0908
 21
411.432
  0
LINE
  8
0
 10
-44.0908
 20
411.432
 11
-43.8559
 21
411.303
  0
LINE
  8
0
 10
-43.8559
 20
411.303
 11
-43.6389
 21
411.145
  0
LINE
  8
0
 10
-43.6389
 20
411.145
 11
-43.4434
 21
410.962
  0
LINE
  8
0
 10
-43.4434
 20
410.962
 11
-43.2725
 21
410.755
  0
LINE
  8
0
 10
-43.2725
 20
410.755
 11
-43.1288
 21
410.529
  0
LINE
  8
0
 10
-43.1288
 20
410.529
 11
-43.0146
 21
410.286
  0
LINE
  8
0
 10
-43.0146
 20
410.286
 11
-42.9318
 21
410.031
  0
LINE
  8
0
 10
-42.9318
 20
410.031
 11
-42.8815
 21
409.768
  0
LINE
  8
0
 10
-42.8815
 20
409.768
 11
-42.8647
 21
409.5
  0
LINE
  8
0
 10
-42.8647
 20
409.5
 11
-42.8815
 21
409.232
  0
LINE
  8
0
 10
-42.8815
 20
409.232
 11
-42.9318
 21
408.969
  0
LINE
  8
0
 10
-42.9318
 20
408.969
 11
-43.0146
 21
408.714
  0
LINE
  8
0
 10
-43.0146
 20
408.714
 11
-43.1288
 21
408.471
  0
LINE
  8
0
 10
-43.1288
 20
408.471
 11
-43.2725
 21
408.245
  0
LINE
  8
0
 10
-43.2725
 20
408.245
 11
-43.4434
 21
408.038
  0
LINE
  8
0
 10
-43.4434
 20
408.038
 11
-43.6389
 21
407.855
  0
LINE
  8
0
 10
-43.6389
 20
407.855
 11
-43.8559
 21
407.697
  0
LINE
  8
0
 10
-43.8559
 20
407.697
 11
-44.0908
 21
407.568
  0
LINE
  8
0
 10
-44.0908
 20
407.568
 11
-44.3401
 21
407.469
  0
LINE
  8
0
 10
-44.3401
 20
407.469
 11
-44.5999
 21
407.403
  0
LINE
  8
0
 10
-44.5999
 20
407.403
 11
-44.8659
 21
407.369
  0
LINE
  8
0
 10
-44.8659
 20
407.369
 11
-45.1341
 21
407.369
  0
ENDSEC
  0
SECTION
  2
OBJECTS
  0
DICTIONARY
  0
ENDSEC
  0
EOF
