<?xml version="1.0" standalone="no"?>
<!DOCTYPE svg PUBLIC "-//W3C//DTD SVG 1.1//EN" "http://www.w3.org/Graphics/SVG/1.1/DTD/svg11.dtd">
<svg width="120mm" height="334mm" viewBox="-60 -509 120 334" xmlns="http://www.w3.org/2000/svg" version="1.1">
<title>OpenSCAD Model</title>
<path d="
M -57,-403.925 L -56.5451,-403.745 L -55.9369,-403.589 L -55.3139,-403.51 L 55.3139,-403.51 L 55.9369,-403.589
 L 56.5451,-403.745 L 57.1289,-403.976 L 57.6791,-404.278 L 58.1871,-404.647 L 58.6448,-405.077 L 59.0451,-405.561
 L 59.3815,-406.091 L 59.6489,-406.659 L 59.8429,-407.257 L 59.9606,-407.873 L 60,-408.5 L 60,-503.5
 L 59.9606,-504.127 L 59.8429,-504.743 L 59.6489,-505.341 L 59.3815,-505.909 L 59.0451,-506.439 L 58.6448,-506.923
 L 58.1871,-507.353 L 57.6791,-507.722 L 57.1289,-508.024 L 56.5451,-508.255 L 55.9369,-508.411 L 55.3139,-508.49
 L -55.3139,-508.49 L -55.9369,-508.411 L -56.5451,-508.255 L -57,-508.075 L -57,-508.49 L -60,-508.49
 L -60,-403.51 L -57,-403.51 z
M -54.7432,-405.135 L -55.2256,-405.196 L -55.6967,-405.317 L -56.1489,-405.496 L -56.5751,-405.73 L -56.9685,-406.016
 L -57.323,-406.349 L -57.633,-406.724 L -57.8936,-407.134 L -58.1007,-407.574 L -58.251,-408.037 L -58.3421,-408.515
 L -58.3726,-409 L -58.3726,-503 L -58.3421,-503.485 L -58.251,-503.963 L -58.1007,-504.426 L -57.8936,-504.866
 L -57.633,-505.276 L -57.323,-505.651 L -56.9685,-505.984 L -56.5751,-506.27 L -56.1489,-506.504 L -55.6967,-506.683
 L -55.2256,-506.804 L -54.7432,-506.865 L 54.7432,-506.865 L 55.2256,-506.804 L 55.6967,-506.683 L 56.1489,-506.504
 L 56.5751,-506.27 L 56.9685,-505.984 L 57.323,-505.651 L 57.633,-505.276 L 57.8936,-504.866 L 58.1007,-504.426
 L 58.251,-503.963 L 58.3421,-503.485 L 58.3726,-503 L 58.3726,-409 L 58.3421,-408.515 L 58.251,-408.037
 L 58.1007,-407.574 L 57.8936,-407.134 L 57.633,-406.724 L 57.323,-406.349 L 56.9685,-406.016 L 56.5751,-405.73
 L 56.1489,-405.496 L 55.6967,-405.317 L 55.2256,-405.196 L 54.7432,-405.135 z
M 55.9369,-289.589 L 56.5451,-289.745 L 57.1289,-289.976 L 57.6791,-290.278 L 58.1871,-290.647 L 58.6448,-291.077
 L 59.0451,-291.561 L 59.3815,-292.091 L 59.6489,-292.659 L 59.8429,-293.257 L 59.9606,-293.873 L 60,-294.5
 L 60,-389.5 L 59.9606,-390.127 L 59.8429,-390.743 L 59.6489,-391.341 L 59.3815,-391.909 L 59.0451,-392.439
 L 58.6448,-392.923 L 58.1871,-393.353 L 57.6791,-393.722 L 57.1289,-394.024 L 56.5451,-394.255 L 55.9369,-394.411
 L 55.3139,-394.49 L -55.3139,-394.49 L -55.9369,-394.411 L -56.5451,-394.255 L -57,-394.075 L -57,-394.115
 L -60,-394.115 L -60,-289.885 L -57,-289.885 L -57,-289.925 L -56.5451,-289.745 L -55.9369,-289.589
 L -55.3139,-289.51 L 55.3139,-289.51 z
M 52.3493,-384.605 L 52.0503,-384.643 L 51.7584,-384.717 L 51.4781,-384.828 L 51.214,-384.974 L 50.9702,-385.151
 L 50.7505,-385.357 L 50.5583,-385.589 L 50.3969,-385.844 L 50.2685,-386.117 L 50.1754,-386.403 L 50.1189,-386.699
 L 50.1,-387 L 50.1189,-387.301 L 50.1754,-387.597 L 50.2685,-387.883 L 50.3969,-388.156 L 50.5583,-388.411
 L 50.7505,-388.643 L 50.9702,-388.849 L 51.214,-389.026 L 51.4781,-389.172 L 51.7584,-389.283 L 52.0503,-389.357
 L 52.3493,-389.395 L 52.6507,-389.395 L 52.9497,-389.357 L 53.2416,-389.283 L 53.5219,-389.172 L 53.786,-389.026
 L 54.0298,-388.849 L 54.2495,-388.643 L 54.4416,-388.411 L 54.6031,-388.156 L 54.7315,-387.883 L 54.8246,-387.597
 L 54.8811,-387.301 L 54.9,-387 L 54.8811,-386.699 L 54.8246,-386.403 L 54.7315,-386.117 L 54.6031,-385.844
 L 54.4416,-385.589 L 54.2495,-385.357 L 54.0298,-385.151 L 53.786,-384.974 L 53.5219,-384.828 L 53.2416,-384.717
 L 52.9497,-384.643 L 52.6507,-384.605 z
M -52.6507,-384.605 L -52.9497,-384.643 L -53.2416,-384.717 L -53.5219,-384.828 L -53.786,-384.974 L -54.0298,-385.151
 L -54.2495,-385.357 L -54.4416,-385.589 L -54.6031,-385.844 L -54.7315,-386.117 L -54.8246,-386.403 L -54.8811,-386.699
 L -54.9,-387 L -54.8811,-387.301 L -54.8246,-387.597 L -54.7315,-387.883 L -54.6031,-388.156 L -54.4416,-388.411
 L -54.2495,-388.643 L -54.0298,-388.849 L -53.786,-389.026 L -53.5219,-389.172 L -53.2416,-389.283 L -52.9497,-389.357
 L -52.6507,-389.395 L -52.3493,-389.395 L -52.0503,-389.357 L -51.7584,-389.283 L -51.4781,-389.172 L -51.214,-389.026
 L -50.9702,-388.849 L -50.7505,-388.643 L -50.5583,-388.411 L -50.3969,-388.156 L -50.2685,-387.883 L -50.1754,-387.597
 L -50.1189,-387.301 L -50.1,-387 L -50.1189,-386.699 L -50.1754,-386.403 L -50.2685,-386.117 L -50.3969,-385.844
 L -50.5583,-385.589 L -50.7505,-385.357 L -50.9702,-385.151 L -51.214,-384.974 L -51.4781,-384.828 L -51.7584,-384.717
 L -52.0503,-384.643 L -52.3493,-384.605 z
M 52.3493,-294.605 L 52.0503,-294.643 L 51.7584,-294.717 L 51.4781,-294.828 L 51.214,-294.974 L 50.9702,-295.151
 L 50.7505,-295.357 L 50.5583,-295.589 L 50.3969,-295.844 L 50.2685,-296.117 L 50.1754,-296.403 L 50.1189,-296.699
 L 50.1,-297 L 50.1189,-297.301 L 50.1754,-297.597 L 50.2685,-297.883 L 50.3969,-298.156 L 50.5583,-298.411
 L 50.7505,-298.643 L 50.9702,-298.849 L 51.214,-299.026 L 51.4781,-299.172 L 51.7584,-299.283 L 52.0503,-299.357
 L 52.3493,-299.395 L 52.6507,-299.395 L 52.9497,-299.357 L 53.2416,-299.283 L 53.5219,-299.172 L 53.786,-299.026
 L 54.0298,-298.849 L 54.2495,-298.643 L 54.4416,-298.411 L 54.6031,-298.156 L 54.7315,-297.883 L 54.8246,-297.597
 L 54.8811,-297.301 L 54.9,-297 L 54.8811,-296.699 L 54.8246,-296.403 L 54.7315,-296.117 L 54.6031,-295.844
 L 54.4416,-295.589 L 54.2495,-295.357 L 54.0298,-295.151 L 53.786,-294.974 L 53.5219,-294.828 L 53.2416,-294.717
 L 52.9497,-294.643 L 52.6507,-294.605 z
M -52.6507,-294.605 L -52.9497,-294.643 L -53.2416,-294.717 L -53.5219,-294.828 L -53.786,-294.974 L -54.0298,-295.151
 L -54.2495,-295.357 L -54.4416,-295.589 L -54.6031,-295.844 L -54.7315,-296.117 L -54.8246,-296.403 L -54.8811,-296.699
 L -54.9,-297 L -54.8811,-297.301 L -54.8246,-297.597 L -54.7315,-297.883 L -54.6031,-298.156 L -54.4416,-298.411
 L -54.2495,-298.643 L -54.0298,-298.849 L -53.786,-299.026 L -53.5219,-299.172 L -53.2416,-299.283 L -52.9497,-299.357
 L -52.6507,-299.395 L -52.3493,-299.395 L -52.0503,-299.357 L -51.7584,-299.283 L -51.4781,-299.172 L -51.214,-299.026
 L -50.9702,-298.849 L -50.7505,-298.643 L -50.5583,-298.411 L -50.3969,-298.156 L -50.2685,-297.883 L -50.1754,-297.597
 L -50.1189,-297.301 L -50.1,-297 L -50.1189,-296.699 L -50.1754,-296.403 L -50.2685,-296.117 L -50.3969,-295.844
 L -50.5583,-295.589 L -50.7505,-295.357 L -50.9702,-295.151 L -51.214,-294.974 L -51.4781,-294.828 L -51.7584,-294.717
 L -52.0503,-294.643 L -52.3493,-294.605 z
M 55.9369,-175.589 L 56.5451,-175.745 L 57.1289,-175.976 L 57.6791,-176.278 L 58.1871,-176.647 L 58.6448,-177.077
 L 59.0451,-177.561 L 59.3815,-178.091 L 59.6489,-178.659 L 59.8429,-179.257 L 59.9606,-179.873 L 60,-180.5
 L 60,-275.5 L 59.9606,-276.127 L 59.8429,-276.743 L 59.6489,-277.341 L 59.3815,-277.909 L 59.0451,-278.439
 L 58.6448,-278.923 L 58.1871,-279.353 L 57.6791,-279.722 L 57.1289,-280.024 L 56.5451,-280.255 L 55.9369,-280.411
 L 55.3139,-280.49 L -55.3139,-280.49 L -55.9369,-280.411 L -56.5451,-280.255 L -57.1289,-280.024 L -57.6791,-279.722
 L -58.1871,-279.353 L -58.6448,-278.923 L -59.0451,-278.439 L -59.3815,-277.909 L -59.6489,-277.341 L -59.8429,-276.743
 L -59.9,-276.444 L -60,-276.444 L -60,-179.556 L -59.9,-179.556 L -59.8429,-179.257 L -59.6489,-178.659
 L -59.3815,-178.091 L -59.0451,-177.561 L -58.6448,-177.077 L -58.1871,-176.647 L -57.6791,-176.278 L -57.1289,-175.976
 L -56.5451,-175.745 L -55.9369,-175.589 L -55.3139,-175.51 L 55.3139,-175.51 z
M 52.387,-271.204 L 52.1627,-271.232 L 51.9438,-271.288 L 51.7336,-271.371 L 51.5355,-271.48 L 51.3526,-271.613
 L 51.1879,-271.768 L 51.0438,-271.942 L 50.9226,-272.133 L 50.8264,-272.337 L 50.7565,-272.552 L 50.7142,-272.774
 L 50.7,-273 L 50.7142,-273.226 L 50.7565,-273.448 L 50.8264,-273.663 L 50.9226,-273.867 L 51.0438,-274.058
 L 51.1879,-274.232 L 51.3526,-274.387 L 51.5355,-274.52 L 51.7336,-274.629 L 51.9438,-274.712 L 52.1627,-274.768
 L 52.387,-274.796 L 52.613,-274.796 L 52.8373,-274.768 L 53.0562,-274.712 L 53.2664,-274.629 L 53.4645,-274.52
 L 53.6474,-274.387 L 53.8121,-274.232 L 53.9562,-274.058 L 54.0773,-273.867 L 54.1736,-273.663 L 54.2434,-273.448
 L 54.2858,-273.226 L 54.3,-273 L 54.2858,-272.774 L 54.2434,-272.552 L 54.1736,-272.337 L 54.0773,-272.133
 L 53.9562,-271.942 L 53.8121,-271.768 L 53.6474,-271.613 L 53.4645,-271.48 L 53.2664,-271.371 L 53.0562,-271.288
 L 52.8373,-271.232 L 52.613,-271.204 z
M -52.613,-271.204 L -52.8373,-271.232 L -53.0562,-271.288 L -53.2664,-271.371 L -53.4645,-271.48 L -53.6474,-271.613
 L -53.8121,-271.768 L -53.9562,-271.942 L -54.0773,-272.133 L -54.1736,-272.337 L -54.2434,-272.552 L -54.2858,-272.774
 L -54.3,-273 L -54.2858,-273.226 L -54.2434,-273.448 L -54.1736,-273.663 L -54.0773,-273.867 L -53.9562,-274.058
 L -53.8121,-274.232 L -53.6474,-274.387 L -53.4645,-274.52 L -53.2664,-274.629 L -53.0562,-274.712 L -52.8373,-274.768
 L -52.613,-274.796 L -52.387,-274.796 L -52.1627,-274.768 L -51.9438,-274.712 L -51.7336,-274.629 L -51.5355,-274.52
 L -51.3526,-274.387 L -51.1879,-274.232 L -51.0438,-274.058 L -50.9226,-273.867 L -50.8264,-273.663 L -50.7565,-273.448
 L -50.7142,-273.226 L -50.7,-273 L -50.7142,-272.774 L -50.7565,-272.552 L -50.8264,-272.337 L -50.9226,-272.133
 L -51.0438,-271.942 L -51.1879,-271.768 L -51.3526,-271.613 L -51.5355,-271.48 L -51.7336,-271.371 L -51.9438,-271.288
 L -52.1627,-271.232 L -52.387,-271.204 z
M 52.387,-181.204 L 52.1627,-181.232 L 51.9438,-181.288 L 51.7336,-181.371 L 51.5355,-181.48 L 51.3526,-181.613
 L 51.1879,-181.768 L 51.0438,-181.942 L 50.9226,-182.133 L 50.8264,-182.337 L 50.7565,-182.552 L 50.7142,-182.774
 L 50.7,-183 L 50.7142,-183.226 L 50.7565,-183.448 L 50.8264,-183.663 L 50.9226,-183.867 L 51.0438,-184.058
 L 51.1879,-184.232 L 51.3526,-184.387 L 51.5355,-184.52 L 51.7336,-184.629 L 51.9438,-184.712 L 52.1627,-184.768
 L 52.387,-184.796 L 52.613,-184.796 L 52.8373,-184.768 L 53.0562,-184.712 L 53.2664,-184.629 L 53.4645,-184.52
 L 53.6474,-184.387 L 53.8121,-184.232 L 53.9562,-184.058 L 54.0773,-183.867 L 54.1736,-183.663 L 54.2434,-183.448
 L 54.2858,-183.226 L 54.3,-183 L 54.2858,-182.774 L 54.2434,-182.552 L 54.1736,-182.337 L 54.0773,-182.133
 L 53.9562,-181.942 L 53.8121,-181.768 L 53.6474,-181.613 L 53.4645,-181.48 L 53.2664,-181.371 L 53.0562,-181.288
 L 52.8373,-181.232 L 52.613,-181.204 z
M -52.613,-181.204 L -52.8373,-181.232 L -53.0562,-181.288 L -53.2664,-181.371 L -53.4645,-181.48 L -53.6474,-181.613
 L -53.8121,-181.768 L -53.9562,-181.942 L -54.0773,-182.133 L -54.1736,-182.337 L -54.2434,-182.552 L -54.2858,-182.774
 L -54.3,-183 L -54.2858,-183.226 L -54.2434,-183.448 L -54.1736,-183.663 L -54.0773,-183.867 L -53.9562,-184.058
 L -53.8121,-184.232 L -53.6474,-184.387 L -53.4645,-184.52 L -53.2664,-184.629 L -53.0562,-184.712 L -52.8373,-184.768
 L -52.613,-184.796 L -52.387,-184.796 L -52.1627,-184.768 L -51.9438,-184.712 L -51.7336,-184.629 L -51.5355,-184.52
 L -51.3526,-184.387 L -51.1879,-184.232 L -51.0438,-184.058 L -50.9226,-183.867 L -50.8264,-183.663 L -50.7565,-183.448
 L -50.7142,-183.226 L -50.7,-183 L -50.7142,-182.774 L -50.7565,-182.552 L -50.8264,-182.337 L -50.9226,-182.133
 L -51.0438,-181.942 L -51.1879,-181.768 L -51.3526,-181.613 L -51.5355,-181.48 L -51.7336,-181.371 L -51.9438,-181.288
 L -52.1627,-181.232 L -52.387,-181.204 z
" stroke="black" fill="lightgray" stroke-width="0.5"/>
</svg>
