  0
SECTION
  2
BLOCKS
  0
ENDSEC
  0
SECTION
  2
ENTITIES
  0
LINE
  8
0
 10
40.9369
 20
260.339
 11
41.5451
 21
260.495
  0
LINE
  8
0
 10
41.5451
 20
260.495
 11
42.1289
 21
260.726
  0
LINE
  8
0
 10
42.1289
 20
260.726
 11
42.6791
 21
261.028
  0
LINE
  8
0
 10
42.6791
 20
261.028
 11
43.1871
 21
261.397
  0
LINE
  8
0
 10
43.1871
 20
261.397
 11
43.6448
 21
261.827
  0
LINE
  8
0
 10
43.6448
 20
261.827
 11
44.0451
 21
262.311
  0
LINE
  8
0
 10
44.0451
 20
262.311
 11
44.3815
 21
262.841
  0
LINE
  8
0
 10
44.3815
 20
262.841
 11
44.6489
 21
263.409
  0
LINE
  8
0
 10
44.6489
 20
263.409
 11
44.8429
 21
264.007
  0
LINE
  8
0
 10
44.8429
 20
264.007
 11
44.9606
 21
264.623
  0
LINE
  8
0
 10
44.9606
 20
264.623
 11
45
 21
265.25
  0
LINE
  8
0
 10
45
 20
265.25
 11
45
 21
292.75
  0
LINE
  8
0
 10
45
 20
292.75
 11
44.9606
 21
293.377
  0
LINE
  8
0
 10
44.9606
 20
293.377
 11
44.8429
 21
293.993
  0
LINE
  8
0
 10
44.8429
 20
293.993
 11
44.6489
 21
294.591
  0
LINE
  8
0
 10
44.6489
 20
294.591
 11
44.3815
 21
295.159
  0
LINE
  8
0
 10
44.3815
 20
295.159
 11
44.0451
 21
295.689
  0
LINE
  8
0
 10
44.0451
 20
295.689
 11
43.6448
 21
296.173
  0
LINE
  8
0
 10
43.6448
 20
296.173
 11
43.1871
 21
296.603
  0
LINE
  8
0
 10
43.1871
 20
296.603
 11
42.6791
 21
296.972
  0
LINE
  8
0
 10
42.6791
 20
296.972
 11
42.1289
 21
297.274
  0
LINE
  8
0
 10
42.1289
 20
297.274
 11
41.5451
 21
297.505
  0
LINE
  8
0
 10
41.5451
 20
297.505
 11
40.9369
 21
297.661
  0
LINE
  8
0
 10
40.9369
 20
297.661
 11
40.3139
 21
297.74
  0
LINE
  8
0
 10
40.3139
 20
297.74
 11
-40.3139
 21
297.74
  0
LINE
  8
0
 10
-40.3139
 20
297.74
 11
-40.9369
 21
297.661
  0
LINE
  8
0
 10
-40.9369
 20
297.661
 11
-41.5451
 21
297.505
  0
LINE
  8
0
 10
-41.5451
 20
297.505
 11
-42.1289
 21
297.274
  0
LINE
  8
0
 10
-42.1289
 20
297.274
 11
-42.6791
 21
296.972
  0
LINE
  8
0
 10
-42.6791
 20
296.972
 11
-43.1871
 21
296.603
  0
LINE
  8
0
 10
-43.1871
 20
296.603
 11
-43.6448
 21
296.173
  0
LINE
  8
0
 10
-43.6448
 20
296.173
 11
-44.0451
 21
295.689
  0
LINE
  8
0
 10
-44.0451
 20
295.689
 11
-44.3815
 21
295.159
  0
LINE
  8
0
 10
-44.3815
 20
295.159
 11
-44.6489
 21
294.591
  0
LINE
  8
0
 10
-44.6489
 20
294.591
 11
-44.8429
 21
293.993
  0
LINE
  8
0
 10
-44.8429
 20
293.993
 11
-44.9606
 21
293.377
  0
LINE
  8
0
 10
-44.9606
 20
293.377
 11
-45
 21
292.75
  0
LINE
  8
0
 10
-45
 20
292.75
 11
-45
 21
265.25
  0
LINE
  8
0
 10
-45
 20
265.25
 11
-44.9606
 21
264.623
  0
LINE
  8
0
 10
-44.9606
 20
264.623
 11
-44.8429
 21
264.007
  0
LINE
  8
0
 10
-44.8429
 20
264.007
 11
-44.6489
 21
263.409
  0
LINE
  8
0
 10
-44.6489
 20
263.409
 11
-44.3815
 21
262.841
  0
LINE
  8
0
 10
-44.3815
 20
262.841
 11
-44.0451
 21
262.311
  0
LINE
  8
0
 10
-44.0451
 20
262.311
 11
-43.6448
 21
261.827
  0
LINE
  8
0
 10
-43.6448
 20
261.827
 11
-43.1871
 21
261.397
  0
LINE
  8
0
 10
-43.1871
 20
261.397
 11
-42.6791
 21
261.028
  0
LINE
  8
0
 10
-42.6791
 20
261.028
 11
-42.1289
 21
260.726
  0
LINE
  8
0
 10
-42.1289
 20
260.726
 11
-41.5451
 21
260.495
  0
LINE
  8
0
 10
-41.5451
 20
260.495
 11
-40.9369
 21
260.339
  0
LINE
  8
0
 10
-40.9369
 20
260.339
 11
-40.3139
 21
260.26
  0
LINE
  8
0
 10
-40.3139
 20
260.26
 11
40.3139
 21
260.26
  0
LINE
  8
0
 10
40.3139
 20
260.26
 11
40.9369
 21
260.339
  0
LINE
  8
0
 10
-39.7512
 20
261.758
 11
-40.2495
 21
261.821
  0
LINE
  8
0
 10
-40.2495
 20
261.821
 11
-40.7361
 21
261.946
  0
LINE
  8
0
 10
-40.7361
 20
261.946
 11
-41.2031
 21
262.131
  0
LINE
  8
0
 10
-41.2031
 20
262.131
 11
-41.6433
 21
262.373
  0
LINE
  8
0
 10
-41.6433
 20
262.373
 11
-42.0497
 21
262.668
  0
LINE
  8
0
 10
-42.0497
 20
262.668
 11
-42.4159
 21
263.012
  0
LINE
  8
0
 10
-42.4159
 20
263.012
 11
-42.7361
 21
263.399
  0
LINE
  8
0
 10
-42.7361
 20
263.399
 11
-43.0052
 21
263.823
  0
LINE
  8
0
 10
-43.0052
 20
263.823
 11
-43.2191
 21
264.278
  0
LINE
  8
0
 10
-43.2191
 20
264.278
 11
-43.3743
 21
264.755
  0
LINE
  8
0
 10
-43.3743
 20
264.755
 11
-43.4685
 21
265.249
  0
LINE
  8
0
 10
-43.4685
 20
265.249
 11
-43.5
 21
265.75
  0
LINE
  8
0
 10
-43.5
 20
265.75
 11
-43.5
 21
292.25
  0
LINE
  8
0
 10
-43.5
 20
292.25
 11
-43.4685
 21
292.751
  0
LINE
  8
0
 10
-43.4685
 20
292.751
 11
-43.3743
 21
293.245
  0
LINE
  8
0
 10
-43.3743
 20
293.245
 11
-43.2191
 21
293.722
  0
LINE
  8
0
 10
-43.2191
 20
293.722
 11
-43.0052
 21
294.177
  0
LINE
  8
0
 10
-43.0052
 20
294.177
 11
-42.7361
 21
294.601
  0
LINE
  8
0
 10
-42.7361
 20
294.601
 11
-42.4159
 21
294.988
  0
LINE
  8
0
 10
-42.4159
 20
294.988
 11
-42.0497
 21
295.332
  0
LINE
  8
0
 10
-42.0497
 20
295.332
 11
-41.6433
 21
295.627
  0
LINE
  8
0
 10
-41.6433
 20
295.627
 11
-41.2031
 21
295.869
  0
LINE
  8
0
 10
-41.2031
 20
295.869
 11
-40.7361
 21
296.054
  0
LINE
  8
0
 10
-40.7361
 20
296.054
 11
-40.2495
 21
296.179
  0
LINE
  8
0
 10
-40.2495
 20
296.179
 11
-39.7512
 21
296.242
  0
LINE
  8
0
 10
-39.7512
 20
296.242
 11
39.7512
 21
296.242
  0
LINE
  8
0
 10
39.7512
 20
296.242
 11
40.2495
 21
296.179
  0
LINE
  8
0
 10
40.2495
 20
296.179
 11
40.7361
 21
296.054
  0
LINE
  8
0
 10
40.7361
 20
296.054
 11
41.2031
 21
295.869
  0
LINE
  8
0
 10
41.2031
 20
295.869
 11
41.6433
 21
295.627
  0
LINE
  8
0
 10
41.6433
 20
295.627
 11
42.0497
 21
295.332
  0
LINE
  8
0
 10
42.0497
 20
295.332
 11
42.4159
 21
294.988
  0
LINE
  8
0
 10
42.4159
 20
294.988
 11
42.7361
 21
294.601
  0
LINE
  8
0
 10
42.7361
 20
294.601
 11
43.0052
 21
294.177
  0
LINE
  8
0
 10
43.0052
 20
294.177
 11
43.2191
 21
293.722
  0
LINE
  8
0
 10
43.2191
 20
293.722
 11
43.3743
 21
293.245
  0
LINE
  8
0
 10
43.3743
 20
293.245
 11
43.4685
 21
292.751
  0
LINE
  8
0
 10
43.4685
 20
292.751
 11
43.5
 21
292.25
  0
LINE
  8
0
 10
43.5
 20
292.25
 11
43.5
 21
265.75
  0
LINE
  8
0
 10
43.5
 20
265.75
 11
43.4685
 21
265.249
  0
LINE
  8
0
 10
43.4685
 20
265.249
 11
43.3743
 21
264.755
  0
LINE
  8
0
 10
43.3743
 20
264.755
 11
43.2191
 21
264.278
  0
LINE
  8
0
 10
43.2191
 20
264.278
 11
43.0052
 21
263.823
  0
LINE
  8
0
 10
43.0052
 20
263.823
 11
42.7361
 21
263.399
  0
LINE
  8
0
 10
42.7361
 20
263.399
 11
42.4159
 21
263.012
  0
LINE
  8
0
 10
42.4159
 20
263.012
 11
42.0497
 21
262.668
  0
LINE
  8
0
 10
42.0497
 20
262.668
 11
41.6433
 21
262.373
  0
LINE
  8
0
 10
41.6433
 20
262.373
 11
41.2031
 21
262.131
  0
LINE
  8
0
 10
41.2031
 20
262.131
 11
40.7361
 21
261.946
  0
LINE
  8
0
 10
40.7361
 20
261.946
 11
40.2495
 21
261.821
  0
LINE
  8
0
 10
40.2495
 20
261.821
 11
39.7512
 21
261.758
  0
LINE
  8
0
 10
39.7512
 20
261.758
 11
-39.7512
 21
261.758
  0
LINE
  8
0
 10
40.9369
 20
213.839
 11
41.5451
 21
213.995
  0
LINE
  8
0
 10
41.5451
 20
213.995
 11
42.1289
 21
214.226
  0
LINE
  8
0
 10
42.1289
 20
214.226
 11
42.6791
 21
214.528
  0
LINE
  8
0
 10
42.6791
 20
214.528
 11
43.1871
 21
214.897
  0
LINE
  8
0
 10
43.1871
 20
214.897
 11
43.6448
 21
215.327
  0
LINE
  8
0
 10
43.6448
 20
215.327
 11
44.0451
 21
215.811
  0
LINE
  8
0
 10
44.0451
 20
215.811
 11
44.3815
 21
216.341
  0
LINE
  8
0
 10
44.3815
 20
216.341
 11
44.6489
 21
216.909
  0
LINE
  8
0
 10
44.6489
 20
216.909
 11
44.8429
 21
217.507
  0
LINE
  8
0
 10
44.8429
 20
217.507
 11
44.9606
 21
218.123
  0
LINE
  8
0
 10
44.9606
 20
218.123
 11
45
 21
218.75
  0
LINE
  8
0
 10
45
 20
218.75
 11
45
 21
246.25
  0
LINE
  8
0
 10
45
 20
246.25
 11
44.9606
 21
246.877
  0
LINE
  8
0
 10
44.9606
 20
246.877
 11
44.8429
 21
247.493
  0
LINE
  8
0
 10
44.8429
 20
247.493
 11
44.6489
 21
248.091
  0
LINE
  8
0
 10
44.6489
 20
248.091
 11
44.3815
 21
248.659
  0
LINE
  8
0
 10
44.3815
 20
248.659
 11
44.0451
 21
249.189
  0
LINE
  8
0
 10
44.0451
 20
249.189
 11
43.6448
 21
249.673
  0
LINE
  8
0
 10
43.6448
 20
249.673
 11
43.1871
 21
250.103
  0
LINE
  8
0
 10
43.1871
 20
250.103
 11
42.6791
 21
250.472
  0
LINE
  8
0
 10
42.6791
 20
250.472
 11
42.1289
 21
250.774
  0
LINE
  8
0
 10
42.1289
 20
250.774
 11
41.5451
 21
251.005
  0
LINE
  8
0
 10
41.5451
 20
251.005
 11
40.9369
 21
251.161
  0
LINE
  8
0
 10
40.9369
 20
251.161
 11
40.3139
 21
251.24
  0
LINE
  8
0
 10
40.3139
 20
251.24
 11
-40.3139
 21
251.24
  0
LINE
  8
0
 10
-40.3139
 20
251.24
 11
-40.9369
 21
251.161
  0
LINE
  8
0
 10
-40.9369
 20
251.161
 11
-41.5451
 21
251.005
  0
LINE
  8
0
 10
-41.5451
 20
251.005
 11
-42.1289
 21
250.774
  0
LINE
  8
0
 10
-42.1289
 20
250.774
 11
-42.6791
 21
250.472
  0
LINE
  8
0
 10
-42.6791
 20
250.472
 11
-43.1871
 21
250.103
  0
LINE
  8
0
 10
-43.1871
 20
250.103
 11
-43.6448
 21
249.673
  0
LINE
  8
0
 10
-43.6448
 20
249.673
 11
-44.0451
 21
249.189
  0
LINE
  8
0
 10
-44.0451
 20
249.189
 11
-44.3815
 21
248.659
  0
LINE
  8
0
 10
-44.3815
 20
248.659
 11
-44.6489
 21
248.091
  0
LINE
  8
0
 10
-44.6489
 20
248.091
 11
-44.8429
 21
247.493
  0
LINE
  8
0
 10
-44.8429
 20
247.493
 11
-44.9606
 21
246.877
  0
LINE
  8
0
 10
-44.9606
 20
246.877
 11
-45
 21
246.25
  0
LINE
  8
0
 10
-45
 20
246.25
 11
-45
 21
218.75
  0
LINE
  8
0
 10
-45
 20
218.75
 11
-44.9606
 21
218.123
  0
LINE
  8
0
 10
-44.9606
 20
218.123
 11
-44.8429
 21
217.507
  0
LINE
  8
0
 10
-44.8429
 20
217.507
 11
-44.6489
 21
216.909
  0
LINE
  8
0
 10
-44.6489
 20
216.909
 11
-44.3815
 21
216.341
  0
LINE
  8
0
 10
-44.3815
 20
216.341
 11
-44.0451
 21
215.811
  0
LINE
  8
0
 10
-44.0451
 20
215.811
 11
-43.6448
 21
215.327
  0
LINE
  8
0
 10
-43.6448
 20
215.327
 11
-43.1871
 21
214.897
  0
LINE
  8
0
 10
-43.1871
 20
214.897
 11
-42.6791
 21
214.528
  0
LINE
  8
0
 10
-42.6791
 20
214.528
 11
-42.1289
 21
214.226
  0
LINE
  8
0
 10
-42.1289
 20
214.226
 11
-41.5451
 21
213.995
  0
LINE
  8
0
 10
-41.5451
 20
213.995
 11
-40.9369
 21
213.839
  0
LINE
  8
0
 10
-40.9369
 20
213.839
 11
-40.3139
 21
213.76
  0
LINE
  8
0
 10
-40.3139
 20
213.76
 11
40.3139
 21
213.76
  0
LINE
  8
0
 10
40.3139
 20
213.76
 11
40.9369
 21
213.839
  0
LINE
  8
0
 10
-39.7432
 20
215.385
 11
-40.2256
 21
215.446
  0
LINE
  8
0
 10
-40.2256
 20
215.446
 11
-40.6967
 21
215.567
  0
LINE
  8
0
 10
-40.6967
 20
215.567
 11
-41.1489
 21
215.746
  0
LINE
  8
0
 10
-41.1489
 20
215.746
 11
-41.5751
 21
215.98
  0
LINE
  8
0
 10
-41.5751
 20
215.98
 11
-41.9685
 21
216.266
  0
LINE
  8
0
 10
-41.9685
 20
216.266
 11
-42.323
 21
216.599
  0
LINE
  8
0
 10
-42.323
 20
216.599
 11
-42.633
 21
216.974
  0
LINE
  8
0
 10
-42.633
 20
216.974
 11
-42.8936
 21
217.384
  0
LINE
  8
0
 10
-42.8936
 20
217.384
 11
-43.1007
 21
217.824
  0
LINE
  8
0
 10
-43.1007
 20
217.824
 11
-43.251
 21
218.287
  0
LINE
  8
0
 10
-43.251
 20
218.287
 11
-43.3421
 21
218.765
  0
LINE
  8
0
 10
-43.3421
 20
218.765
 11
-43.3726
 21
219.25
  0
LINE
  8
0
 10
-43.3726
 20
219.25
 11
-43.3726
 21
245.75
  0
LINE
  8
0
 10
-43.3726
 20
245.75
 11
-43.3421
 21
246.235
  0
LINE
  8
0
 10
-43.3421
 20
246.235
 11
-43.251
 21
246.713
  0
LINE
  8
0
 10
-43.251
 20
246.713
 11
-43.1007
 21
247.176
  0
LINE
  8
0
 10
-43.1007
 20
247.176
 11
-42.8936
 21
247.616
  0
LINE
  8
0
 10
-42.8936
 20
247.616
 11
-42.633
 21
248.026
  0
LINE
  8
0
 10
-42.633
 20
248.026
 11
-42.323
 21
248.401
  0
LINE
  8
0
 10
-42.323
 20
248.401
 11
-41.9685
 21
248.734
  0
LINE
  8
0
 10
-41.9685
 20
248.734
 11
-41.5751
 21
249.02
  0
LINE
  8
0
 10
-41.5751
 20
249.02
 11
-41.1489
 21
249.254
  0
LINE
  8
0
 10
-41.1489
 20
249.254
 11
-40.6967
 21
249.433
  0
LINE
  8
0
 10
-40.6967
 20
249.433
 11
-40.2256
 21
249.554
  0
LINE
  8
0
 10
-40.2256
 20
249.554
 11
-39.7432
 21
249.615
  0
LINE
  8
0
 10
-39.7432
 20
249.615
 11
39.7432
 21
249.615
  0
LINE
  8
0
 10
39.7432
 20
249.615
 11
40.2256
 21
249.554
  0
LINE
  8
0
 10
40.2256
 20
249.554
 11
40.6967
 21
249.433
  0
LINE
  8
0
 10
40.6967
 20
249.433
 11
41.1489
 21
249.254
  0
LINE
  8
0
 10
41.1489
 20
249.254
 11
41.5751
 21
249.02
  0
LINE
  8
0
 10
41.5751
 20
249.02
 11
41.9685
 21
248.734
  0
LINE
  8
0
 10
41.9685
 20
248.734
 11
42.323
 21
248.401
  0
LINE
  8
0
 10
42.323
 20
248.401
 11
42.633
 21
248.026
  0
LINE
  8
0
 10
42.633
 20
248.026
 11
42.8936
 21
247.616
  0
LINE
  8
0
 10
42.8936
 20
247.616
 11
43.1007
 21
247.176
  0
LINE
  8
0
 10
43.1007
 20
247.176
 11
43.251
 21
246.713
  0
LINE
  8
0
 10
43.251
 20
246.713
 11
43.3421
 21
246.235
  0
LINE
  8
0
 10
43.3421
 20
246.235
 11
43.3726
 21
245.75
  0
LINE
  8
0
 10
43.3726
 20
245.75
 11
43.3726
 21
219.25
  0
LINE
  8
0
 10
43.3726
 20
219.25
 11
43.3421
 21
218.765
  0
LINE
  8
0
 10
43.3421
 20
218.765
 11
43.251
 21
218.287
  0
LINE
  8
0
 10
43.251
 20
218.287
 11
43.1007
 21
217.824
  0
LINE
  8
0
 10
43.1007
 20
217.824
 11
42.8936
 21
217.384
  0
LINE
  8
0
 10
42.8936
 20
217.384
 11
42.633
 21
216.974
  0
LINE
  8
0
 10
42.633
 20
216.974
 11
42.323
 21
216.599
  0
LINE
  8
0
 10
42.323
 20
216.599
 11
41.9685
 21
216.266
  0
LINE
  8
0
 10
41.9685
 20
216.266
 11
41.5751
 21
215.98
  0
LINE
  8
0
 10
41.5751
 20
215.98
 11
41.1489
 21
215.746
  0
LINE
  8
0
 10
41.1489
 20
215.746
 11
40.6967
 21
215.567
  0
LINE
  8
0
 10
40.6967
 20
215.567
 11
40.2256
 21
215.446
  0
LINE
  8
0
 10
40.2256
 20
215.446
 11
39.7432
 21
215.385
  0
LINE
  8
0
 10
39.7432
 20
215.385
 11
-39.7432
 21
215.385
  0
LINE
  8
0
 10
40.9369
 20
167.339
 11
41.5451
 21
167.495
  0
LINE
  8
0
 10
41.5451
 20
167.495
 11
42.1289
 21
167.726
  0
LINE
  8
0
 10
42.1289
 20
167.726
 11
42.6791
 21
168.028
  0
LINE
  8
0
 10
42.6791
 20
168.028
 11
43.1871
 21
168.397
  0
LINE
  8
0
 10
43.1871
 20
168.397
 11
43.6448
 21
168.827
  0
LINE
  8
0
 10
43.6448
 20
168.827
 11
44.0451
 21
169.311
  0
LINE
  8
0
 10
44.0451
 20
169.311
 11
44.3815
 21
169.841
  0
LINE
  8
0
 10
44.3815
 20
169.841
 11
44.6489
 21
170.409
  0
LINE
  8
0
 10
44.6489
 20
170.409
 11
44.8429
 21
171.007
  0
LINE
  8
0
 10
44.8429
 20
171.007
 11
44.9606
 21
171.623
  0
LINE
  8
0
 10
44.9606
 20
171.623
 11
45
 21
172.25
  0
LINE
  8
0
 10
45
 20
172.25
 11
45
 21
199.75
  0
LINE
  8
0
 10
45
 20
199.75
 11
44.9606
 21
200.377
  0
LINE
  8
0
 10
44.9606
 20
200.377
 11
44.8429
 21
200.993
  0
LINE
  8
0
 10
44.8429
 20
200.993
 11
44.6489
 21
201.591
  0
LINE
  8
0
 10
44.6489
 20
201.591
 11
44.3815
 21
202.159
  0
LINE
  8
0
 10
44.3815
 20
202.159
 11
44.0451
 21
202.689
  0
LINE
  8
0
 10
44.0451
 20
202.689
 11
43.6448
 21
203.173
  0
LINE
  8
0
 10
43.6448
 20
203.173
 11
43.1871
 21
203.603
  0
LINE
  8
0
 10
43.1871
 20
203.603
 11
42.6791
 21
203.972
  0
LINE
  8
0
 10
42.6791
 20
203.972
 11
42.1289
 21
204.274
  0
LINE
  8
0
 10
42.1289
 20
204.274
 11
41.5451
 21
204.505
  0
LINE
  8
0
 10
41.5451
 20
204.505
 11
40.9369
 21
204.661
  0
LINE
  8
0
 10
40.9369
 20
204.661
 11
40.3139
 21
204.74
  0
LINE
  8
0
 10
40.3139
 20
204.74
 11
-40.3139
 21
204.74
  0
LINE
  8
0
 10
-40.3139
 20
204.74
 11
-40.9369
 21
204.661
  0
LINE
  8
0
 10
-40.9369
 20
204.661
 11
-41.5451
 21
204.505
  0
LINE
  8
0
 10
-41.5451
 20
204.505
 11
-42.1289
 21
204.274
  0
LINE
  8
0
 10
-42.1289
 20
204.274
 11
-42.6791
 21
203.972
  0
LINE
  8
0
 10
-42.6791
 20
203.972
 11
-43.1871
 21
203.603
  0
LINE
  8
0
 10
-43.1871
 20
203.603
 11
-43.6448
 21
203.173
  0
LINE
  8
0
 10
-43.6448
 20
203.173
 11
-44.0451
 21
202.689
  0
LINE
  8
0
 10
-44.0451
 20
202.689
 11
-44.3815
 21
202.159
  0
LINE
  8
0
 10
-44.3815
 20
202.159
 11
-44.6489
 21
201.591
  0
LINE
  8
0
 10
-44.6489
 20
201.591
 11
-44.8429
 21
200.993
  0
LINE
  8
0
 10
-44.8429
 20
200.993
 11
-44.9606
 21
200.377
  0
LINE
  8
0
 10
-44.9606
 20
200.377
 11
-45
 21
199.75
  0
LINE
  8
0
 10
-45
 20
199.75
 11
-45
 21
172.25
  0
LINE
  8
0
 10
-45
 20
172.25
 11
-44.9606
 21
171.623
  0
LINE
  8
0
 10
-44.9606
 20
171.623
 11
-44.8429
 21
171.007
  0
LINE
  8
0
 10
-44.8429
 20
171.007
 11
-44.6489
 21
170.409
  0
LINE
  8
0
 10
-44.6489
 20
170.409
 11
-44.3815
 21
169.841
  0
LINE
  8
0
 10
-44.3815
 20
169.841
 11
-44.0451
 21
169.311
  0
LINE
  8
0
 10
-44.0451
 20
169.311
 11
-43.6448
 21
168.827
  0
LINE
  8
0
 10
-43.6448
 20
168.827
 11
-43.1871
 21
168.397
  0
LINE
  8
0
 10
-43.1871
 20
168.397
 11
-42.6791
 21
168.028
  0
LINE
  8
0
 10
-42.6791
 20
168.028
 11
-42.1289
 21
167.726
  0
LINE
  8
0
 10
-42.1289
 20
167.726
 11
-41.5451
 21
167.495
  0
LINE
  8
0
 10
-41.5451
 20
167.495
 11
-40.9369
 21
167.339
  0
LINE
  8
0
 10
-40.9369
 20
167.339
 11
-40.3139
 21
167.26
  0
LINE
  8
0
 10
-40.3139
 20
167.26
 11
40.3139
 21
167.26
  0
LINE
  8
0
 10
40.3139
 20
167.26
 11
40.9369
 21
167.339
  0
LINE
  8
0
 10
-37.6507
 20
194.855
 11
-37.9497
 21
194.893
  0
LINE
  8
0
 10
-37.9497
 20
194.893
 11
-38.2416
 21
194.967
  0
LINE
  8
0
 10
-38.2416
 20
194.967
 11
-38.5219
 21
195.078
  0
LINE
  8
0
 10
-38.5219
 20
195.078
 11
-38.786
 21
195.224
  0
LINE
  8
0
 10
-38.786
 20
195.224
 11
-39.0298
 21
195.401
  0
LINE
  8
0
 10
-39.0298
 20
195.401
 11
-39.2495
 21
195.607
  0
LINE
  8
0
 10
-39.2495
 20
195.607
 11
-39.4416
 21
195.839
  0
LINE
  8
0
 10
-39.4416
 20
195.839
 11
-39.6031
 21
196.094
  0
LINE
  8
0
 10
-39.6031
 20
196.094
 11
-39.7315
 21
196.367
  0
LINE
  8
0
 10
-39.7315
 20
196.367
 11
-39.8246
 21
196.653
  0
LINE
  8
0
 10
-39.8246
 20
196.653
 11
-39.8811
 21
196.949
  0
LINE
  8
0
 10
-39.8811
 20
196.949
 11
-39.9
 21
197.25
  0
LINE
  8
0
 10
-39.9
 20
197.25
 11
-39.8811
 21
197.551
  0
LINE
  8
0
 10
-39.8811
 20
197.551
 11
-39.8246
 21
197.847
  0
LINE
  8
0
 10
-39.8246
 20
197.847
 11
-39.7315
 21
198.133
  0
LINE
  8
0
 10
-39.7315
 20
198.133
 11
-39.6031
 21
198.406
  0
LINE
  8
0
 10
-39.6031
 20
198.406
 11
-39.4416
 21
198.661
  0
LINE
  8
0
 10
-39.4416
 20
198.661
 11
-39.2495
 21
198.893
  0
LINE
  8
0
 10
-39.2495
 20
198.893
 11
-39.0298
 21
199.099
  0
LINE
  8
0
 10
-39.0298
 20
199.099
 11
-38.786
 21
199.276
  0
LINE
  8
0
 10
-38.786
 20
199.276
 11
-38.5219
 21
199.422
  0
LINE
  8
0
 10
-38.5219
 20
199.422
 11
-38.2416
 21
199.533
  0
LINE
  8
0
 10
-38.2416
 20
199.533
 11
-37.9497
 21
199.607
  0
LINE
  8
0
 10
-37.9497
 20
199.607
 11
-37.6507
 21
199.645
  0
LINE
  8
0
 10
-37.6507
 20
199.645
 11
-37.3493
 21
199.645
  0
LINE
  8
0
 10
-37.3493
 20
199.645
 11
-37.0503
 21
199.607
  0
LINE
  8
0
 10
-37.0503
 20
199.607
 11
-36.7584
 21
199.533
  0
LINE
  8
0
 10
-36.7584
 20
199.533
 11
-36.4781
 21
199.422
  0
LINE
  8
0
 10
-36.4781
 20
199.422
 11
-36.214
 21
199.276
  0
LINE
  8
0
 10
-36.214
 20
199.276
 11
-35.9702
 21
199.099
  0
LINE
  8
0
 10
-35.9702
 20
199.099
 11
-35.7505
 21
198.893
  0
LINE
  8
0
 10
-35.7505
 20
198.893
 11
-35.5583
 21
198.661
  0
LINE
  8
0
 10
-35.5583
 20
198.661
 11
-35.3969
 21
198.406
  0
LINE
  8
0
 10
-35.3969
 20
198.406
 11
-35.2685
 21
198.133
  0
LINE
  8
0
 10
-35.2685
 20
198.133
 11
-35.1754
 21
197.847
  0
LINE
  8
0
 10
-35.1754
 20
197.847
 11
-35.1189
 21
197.551
  0
LINE
  8
0
 10
-35.1189
 20
197.551
 11
-35.1
 21
197.25
  0
LINE
  8
0
 10
-35.1
 20
197.25
 11
-35.1189
 21
196.949
  0
LINE
  8
0
 10
-35.1189
 20
196.949
 11
-35.1754
 21
196.653
  0
LINE
  8
0
 10
-35.1754
 20
196.653
 11
-35.2685
 21
196.367
  0
LINE
  8
0
 10
-35.2685
 20
196.367
 11
-35.3969
 21
196.094
  0
LINE
  8
0
 10
-35.3969
 20
196.094
 11
-35.5583
 21
195.839
  0
LINE
  8
0
 10
-35.5583
 20
195.839
 11
-35.7505
 21
195.607
  0
LINE
  8
0
 10
-35.7505
 20
195.607
 11
-35.9702
 21
195.401
  0
LINE
  8
0
 10
-35.9702
 20
195.401
 11
-36.214
 21
195.224
  0
LINE
  8
0
 10
-36.214
 20
195.224
 11
-36.4781
 21
195.078
  0
LINE
  8
0
 10
-36.4781
 20
195.078
 11
-36.7584
 21
194.967
  0
LINE
  8
0
 10
-36.7584
 20
194.967
 11
-37.0503
 21
194.893
  0
LINE
  8
0
 10
-37.0503
 20
194.893
 11
-37.3493
 21
194.855
  0
LINE
  8
0
 10
-37.3493
 20
194.855
 11
-37.6507
 21
194.855
  0
LINE
  8
0
 10
37.3493
 20
194.855
 11
37.0503
 21
194.893
  0
LINE
  8
0
 10
37.0503
 20
194.893
 11
36.7584
 21
194.967
  0
LINE
  8
0
 10
36.7584
 20
194.967
 11
36.4781
 21
195.078
  0
LINE
  8
0
 10
36.4781
 20
195.078
 11
36.214
 21
195.224
  0
LINE
  8
0
 10
36.214
 20
195.224
 11
35.9702
 21
195.401
  0
LINE
  8
0
 10
35.9702
 20
195.401
 11
35.7505
 21
195.607
  0
LINE
  8
0
 10
35.7505
 20
195.607
 11
35.5583
 21
195.839
  0
LINE
  8
0
 10
35.5583
 20
195.839
 11
35.3969
 21
196.094
  0
LINE
  8
0
 10
35.3969
 20
196.094
 11
35.2685
 21
196.367
  0
LINE
  8
0
 10
35.2685
 20
196.367
 11
35.1754
 21
196.653
  0
LINE
  8
0
 10
35.1754
 20
196.653
 11
35.1189
 21
196.949
  0
LINE
  8
0
 10
35.1189
 20
196.949
 11
35.1
 21
197.25
  0
LINE
  8
0
 10
35.1
 20
197.25
 11
35.1189
 21
197.551
  0
LINE
  8
0
 10
35.1189
 20
197.551
 11
35.1754
 21
197.847
  0
LINE
  8
0
 10
35.1754
 20
197.847
 11
35.2685
 21
198.133
  0
LINE
  8
0
 10
35.2685
 20
198.133
 11
35.3969
 21
198.406
  0
LINE
  8
0
 10
35.3969
 20
198.406
 11
35.5583
 21
198.661
  0
LINE
  8
0
 10
35.5583
 20
198.661
 11
35.7505
 21
198.893
  0
LINE
  8
0
 10
35.7505
 20
198.893
 11
35.9702
 21
199.099
  0
LINE
  8
0
 10
35.9702
 20
199.099
 11
36.214
 21
199.276
  0
LINE
  8
0
 10
36.214
 20
199.276
 11
36.4781
 21
199.422
  0
LINE
  8
0
 10
36.4781
 20
199.422
 11
36.7584
 21
199.533
  0
LINE
  8
0
 10
36.7584
 20
199.533
 11
37.0503
 21
199.607
  0
LINE
  8
0
 10
37.0503
 20
199.607
 11
37.3493
 21
199.645
  0
LINE
  8
0
 10
37.3493
 20
199.645
 11
37.6507
 21
199.645
  0
LINE
  8
0
 10
37.6507
 20
199.645
 11
37.9497
 21
199.607
  0
LINE
  8
0
 10
37.9497
 20
199.607
 11
38.2416
 21
199.533
  0
LINE
  8
0
 10
38.2416
 20
199.533
 11
38.5219
 21
199.422
  0
LINE
  8
0
 10
38.5219
 20
199.422
 11
38.786
 21
199.276
  0
LINE
  8
0
 10
38.786
 20
199.276
 11
39.0298
 21
199.099
  0
LINE
  8
0
 10
39.0298
 20
199.099
 11
39.2495
 21
198.893
  0
LINE
  8
0
 10
39.2495
 20
198.893
 11
39.4416
 21
198.661
  0
LINE
  8
0
 10
39.4416
 20
198.661
 11
39.6031
 21
198.406
  0
LINE
  8
0
 10
39.6031
 20
198.406
 11
39.7315
 21
198.133
  0
LINE
  8
0
 10
39.7315
 20
198.133
 11
39.8246
 21
197.847
  0
LINE
  8
0
 10
39.8246
 20
197.847
 11
39.8811
 21
197.551
  0
LINE
  8
0
 10
39.8811
 20
197.551
 11
39.9
 21
197.25
  0
LINE
  8
0
 10
39.9
 20
197.25
 11
39.8811
 21
196.949
  0
LINE
  8
0
 10
39.8811
 20
196.949
 11
39.8246
 21
196.653
  0
LINE
  8
0
 10
39.8246
 20
196.653
 11
39.7315
 21
196.367
  0
LINE
  8
0
 10
39.7315
 20
196.367
 11
39.6031
 21
196.094
  0
LINE
  8
0
 10
39.6031
 20
196.094
 11
39.4416
 21
195.839
  0
LINE
  8
0
 10
39.4416
 20
195.839
 11
39.2495
 21
195.607
  0
LINE
  8
0
 10
39.2495
 20
195.607
 11
39.0298
 21
195.401
  0
LINE
  8
0
 10
39.0298
 20
195.401
 11
38.786
 21
195.224
  0
LINE
  8
0
 10
38.786
 20
195.224
 11
38.5219
 21
195.078
  0
LINE
  8
0
 10
38.5219
 20
195.078
 11
38.2416
 21
194.967
  0
LINE
  8
0
 10
38.2416
 20
194.967
 11
37.9497
 21
194.893
  0
LINE
  8
0
 10
37.9497
 20
194.893
 11
37.6507
 21
194.855
  0
LINE
  8
0
 10
37.6507
 20
194.855
 11
37.3493
 21
194.855
  0
LINE
  8
0
 10
37.3493
 20
172.355
 11
37.0503
 21
172.393
  0
LINE
  8
0
 10
37.0503
 20
172.393
 11
36.7584
 21
172.467
  0
LINE
  8
0
 10
36.7584
 20
172.467
 11
36.4781
 21
172.578
  0
LINE
  8
0
 10
36.4781
 20
172.578
 11
36.214
 21
172.724
  0
LINE
  8
0
 10
36.214
 20
172.724
 11
35.9702
 21
172.901
  0
LINE
  8
0
 10
35.9702
 20
172.901
 11
35.7505
 21
173.107
  0
LINE
  8
0
 10
35.7505
 20
173.107
 11
35.5583
 21
173.339
  0
LINE
  8
0
 10
35.5583
 20
173.339
 11
35.3969
 21
173.594
  0
LINE
  8
0
 10
35.3969
 20
173.594
 11
35.2685
 21
173.867
  0
LINE
  8
0
 10
35.2685
 20
173.867
 11
35.1754
 21
174.153
  0
LINE
  8
0
 10
35.1754
 20
174.153
 11
35.1189
 21
174.449
  0
LINE
  8
0
 10
35.1189
 20
174.449
 11
35.1
 21
174.75
  0
LINE
  8
0
 10
35.1
 20
174.75
 11
35.1189
 21
175.051
  0
LINE
  8
0
 10
35.1189
 20
175.051
 11
35.1754
 21
175.347
  0
LINE
  8
0
 10
35.1754
 20
175.347
 11
35.2685
 21
175.633
  0
LINE
  8
0
 10
35.2685
 20
175.633
 11
35.3969
 21
175.906
  0
LINE
  8
0
 10
35.3969
 20
175.906
 11
35.5583
 21
176.161
  0
LINE
  8
0
 10
35.5583
 20
176.161
 11
35.7505
 21
176.393
  0
LINE
  8
0
 10
35.7505
 20
176.393
 11
35.9702
 21
176.599
  0
LINE
  8
0
 10
35.9702
 20
176.599
 11
36.214
 21
176.776
  0
LINE
  8
0
 10
36.214
 20
176.776
 11
36.4781
 21
176.922
  0
LINE
  8
0
 10
36.4781
 20
176.922
 11
36.7584
 21
177.033
  0
LINE
  8
0
 10
36.7584
 20
177.033
 11
37.0503
 21
177.107
  0
LINE
  8
0
 10
37.0503
 20
177.107
 11
37.3493
 21
177.145
  0
LINE
  8
0
 10
37.3493
 20
177.145
 11
37.6507
 21
177.145
  0
LINE
  8
0
 10
37.6507
 20
177.145
 11
37.9497
 21
177.107
  0
LINE
  8
0
 10
37.9497
 20
177.107
 11
38.2416
 21
177.033
  0
LINE
  8
0
 10
38.2416
 20
177.033
 11
38.5219
 21
176.922
  0
LINE
  8
0
 10
38.5219
 20
176.922
 11
38.786
 21
176.776
  0
LINE
  8
0
 10
38.786
 20
176.776
 11
39.0298
 21
176.599
  0
LINE
  8
0
 10
39.0298
 20
176.599
 11
39.2495
 21
176.393
  0
LINE
  8
0
 10
39.2495
 20
176.393
 11
39.4416
 21
176.161
  0
LINE
  8
0
 10
39.4416
 20
176.161
 11
39.6031
 21
175.906
  0
LINE
  8
0
 10
39.6031
 20
175.906
 11
39.7315
 21
175.633
  0
LINE
  8
0
 10
39.7315
 20
175.633
 11
39.8246
 21
175.347
  0
LINE
  8
0
 10
39.8246
 20
175.347
 11
39.8811
 21
175.051
  0
LINE
  8
0
 10
39.8811
 20
175.051
 11
39.9
 21
174.75
  0
LINE
  8
0
 10
39.9
 20
174.75
 11
39.8811
 21
174.449
  0
LINE
  8
0
 10
39.8811
 20
174.449
 11
39.8246
 21
174.153
  0
LINE
  8
0
 10
39.8246
 20
174.153
 11
39.7315
 21
173.867
  0
LINE
  8
0
 10
39.7315
 20
173.867
 11
39.6031
 21
173.594
  0
LINE
  8
0
 10
39.6031
 20
173.594
 11
39.4416
 21
173.339
  0
LINE
  8
0
 10
39.4416
 20
173.339
 11
39.2495
 21
173.107
  0
LINE
  8
0
 10
39.2495
 20
173.107
 11
39.0298
 21
172.901
  0
LINE
  8
0
 10
39.0298
 20
172.901
 11
38.786
 21
172.724
  0
LINE
  8
0
 10
38.786
 20
172.724
 11
38.5219
 21
172.578
  0
LINE
  8
0
 10
38.5219
 20
172.578
 11
38.2416
 21
172.467
  0
LINE
  8
0
 10
38.2416
 20
172.467
 11
37.9497
 21
172.393
  0
LINE
  8
0
 10
37.9497
 20
172.393
 11
37.6507
 21
172.355
  0
LINE
  8
0
 10
37.6507
 20
172.355
 11
37.3493
 21
172.355
  0
LINE
  8
0
 10
-37.6507
 20
172.355
 11
-37.9497
 21
172.393
  0
LINE
  8
0
 10
-37.9497
 20
172.393
 11
-38.2416
 21
172.467
  0
LINE
  8
0
 10
-38.2416
 20
172.467
 11
-38.5219
 21
172.578
  0
LINE
  8
0
 10
-38.5219
 20
172.578
 11
-38.786
 21
172.724
  0
LINE
  8
0
 10
-38.786
 20
172.724
 11
-39.0298
 21
172.901
  0
LINE
  8
0
 10
-39.0298
 20
172.901
 11
-39.2495
 21
173.107
  0
LINE
  8
0
 10
-39.2495
 20
173.107
 11
-39.4416
 21
173.339
  0
LINE
  8
0
 10
-39.4416
 20
173.339
 11
-39.6031
 21
173.594
  0
LINE
  8
0
 10
-39.6031
 20
173.594
 11
-39.7315
 21
173.867
  0
LINE
  8
0
 10
-39.7315
 20
173.867
 11
-39.8246
 21
174.153
  0
LINE
  8
0
 10
-39.8246
 20
174.153
 11
-39.8811
 21
174.449
  0
LINE
  8
0
 10
-39.8811
 20
174.449
 11
-39.9
 21
174.75
  0
LINE
  8
0
 10
-39.9
 20
174.75
 11
-39.8811
 21
175.051
  0
LINE
  8
0
 10
-39.8811
 20
175.051
 11
-39.8246
 21
175.347
  0
LINE
  8
0
 10
-39.8246
 20
175.347
 11
-39.7315
 21
175.633
  0
LINE
  8
0
 10
-39.7315
 20
175.633
 11
-39.6031
 21
175.906
  0
LINE
  8
0
 10
-39.6031
 20
175.906
 11
-39.4416
 21
176.161
  0
LINE
  8
0
 10
-39.4416
 20
176.161
 11
-39.2495
 21
176.393
  0
LINE
  8
0
 10
-39.2495
 20
176.393
 11
-39.0298
 21
176.599
  0
LINE
  8
0
 10
-39.0298
 20
176.599
 11
-38.786
 21
176.776
  0
LINE
  8
0
 10
-38.786
 20
176.776
 11
-38.5219
 21
176.922
  0
LINE
  8
0
 10
-38.5219
 20
176.922
 11
-38.2416
 21
177.033
  0
LINE
  8
0
 10
-38.2416
 20
177.033
 11
-37.9497
 21
177.107
  0
LINE
  8
0
 10
-37.9497
 20
177.107
 11
-37.6507
 21
177.145
  0
LINE
  8
0
 10
-37.6507
 20
177.145
 11
-37.3493
 21
177.145
  0
LINE
  8
0
 10
-37.3493
 20
177.145
 11
-37.0503
 21
177.107
  0
LINE
  8
0
 10
-37.0503
 20
177.107
 11
-36.7584
 21
177.033
  0
LINE
  8
0
 10
-36.7584
 20
177.033
 11
-36.4781
 21
176.922
  0
LINE
  8
0
 10
-36.4781
 20
176.922
 11
-36.214
 21
176.776
  0
LINE
  8
0
 10
-36.214
 20
176.776
 11
-35.9702
 21
176.599
  0
LINE
  8
0
 10
-35.9702
 20
176.599
 11
-35.7505
 21
176.393
  0
LINE
  8
0
 10
-35.7505
 20
176.393
 11
-35.5583
 21
176.161
  0
LINE
  8
0
 10
-35.5583
 20
176.161
 11
-35.3969
 21
175.906
  0
LINE
  8
0
 10
-35.3969
 20
175.906
 11
-35.2685
 21
175.633
  0
LINE
  8
0
 10
-35.2685
 20
175.633
 11
-35.1754
 21
175.347
  0
LINE
  8
0
 10
-35.1754
 20
175.347
 11
-35.1189
 21
175.051
  0
LINE
  8
0
 10
-35.1189
 20
175.051
 11
-35.1
 21
174.75
  0
LINE
  8
0
 10
-35.1
 20
174.75
 11
-35.1189
 21
174.449
  0
LINE
  8
0
 10
-35.1189
 20
174.449
 11
-35.1754
 21
174.153
  0
LINE
  8
0
 10
-35.1754
 20
174.153
 11
-35.2685
 21
173.867
  0
LINE
  8
0
 10
-35.2685
 20
173.867
 11
-35.3969
 21
173.594
  0
LINE
  8
0
 10
-35.3969
 20
173.594
 11
-35.5583
 21
173.339
  0
LINE
  8
0
 10
-35.5583
 20
173.339
 11
-35.7505
 21
173.107
  0
LINE
  8
0
 10
-35.7505
 20
173.107
 11
-35.9702
 21
172.901
  0
LINE
  8
0
 10
-35.9702
 20
172.901
 11
-36.214
 21
172.724
  0
LINE
  8
0
 10
-36.214
 20
172.724
 11
-36.4781
 21
172.578
  0
LINE
  8
0
 10
-36.4781
 20
172.578
 11
-36.7584
 21
172.467
  0
LINE
  8
0
 10
-36.7584
 20
172.467
 11
-37.0503
 21
172.393
  0
LINE
  8
0
 10
-37.0503
 20
172.393
 11
-37.3493
 21
172.355
  0
LINE
  8
0
 10
-37.3493
 20
172.355
 11
-37.6507
 21
172.355
  0
LINE
  8
0
 10
40.9369
 20
120.839
 11
41.5451
 21
120.995
  0
LINE
  8
0
 10
41.5451
 20
120.995
 11
42.1289
 21
121.226
  0
LINE
  8
0
 10
42.1289
 20
121.226
 11
42.6791
 21
121.528
  0
LINE
  8
0
 10
42.6791
 20
121.528
 11
43.1871
 21
121.897
  0
LINE
  8
0
 10
43.1871
 20
121.897
 11
43.6448
 21
122.327
  0
LINE
  8
0
 10
43.6448
 20
122.327
 11
44.0451
 21
122.811
  0
LINE
  8
0
 10
44.0451
 20
122.811
 11
44.3815
 21
123.341
  0
LINE
  8
0
 10
44.3815
 20
123.341
 11
44.6489
 21
123.909
  0
LINE
  8
0
 10
44.6489
 20
123.909
 11
44.8429
 21
124.507
  0
LINE
  8
0
 10
44.8429
 20
124.507
 11
44.9606
 21
125.123
  0
LINE
  8
0
 10
44.9606
 20
125.123
 11
45
 21
125.75
  0
LINE
  8
0
 10
45
 20
125.75
 11
45
 21
153.25
  0
LINE
  8
0
 10
45
 20
153.25
 11
44.9606
 21
153.877
  0
LINE
  8
0
 10
44.9606
 20
153.877
 11
44.8429
 21
154.493
  0
LINE
  8
0
 10
44.8429
 20
154.493
 11
44.6489
 21
155.091
  0
LINE
  8
0
 10
44.6489
 20
155.091
 11
44.3815
 21
155.659
  0
LINE
  8
0
 10
44.3815
 20
155.659
 11
44.0451
 21
156.189
  0
LINE
  8
0
 10
44.0451
 20
156.189
 11
43.6448
 21
156.673
  0
LINE
  8
0
 10
43.6448
 20
156.673
 11
43.1871
 21
157.103
  0
LINE
  8
0
 10
43.1871
 20
157.103
 11
42.6791
 21
157.472
  0
LINE
  8
0
 10
42.6791
 20
157.472
 11
42.1289
 21
157.774
  0
LINE
  8
0
 10
42.1289
 20
157.774
 11
41.5451
 21
158.005
  0
LINE
  8
0
 10
41.5451
 20
158.005
 11
40.9369
 21
158.161
  0
LINE
  8
0
 10
40.9369
 20
158.161
 11
40.3139
 21
158.24
  0
LINE
  8
0
 10
40.3139
 20
158.24
 11
-40.3139
 21
158.24
  0
LINE
  8
0
 10
-40.3139
 20
158.24
 11
-40.9369
 21
158.161
  0
LINE
  8
0
 10
-40.9369
 20
158.161
 11
-41.5451
 21
158.005
  0
LINE
  8
0
 10
-41.5451
 20
158.005
 11
-42.1289
 21
157.774
  0
LINE
  8
0
 10
-42.1289
 20
157.774
 11
-42.6791
 21
157.472
  0
LINE
  8
0
 10
-42.6791
 20
157.472
 11
-43.1871
 21
157.103
  0
LINE
  8
0
 10
-43.1871
 20
157.103
 11
-43.6448
 21
156.673
  0
LINE
  8
0
 10
-43.6448
 20
156.673
 11
-44.0451
 21
156.189
  0
LINE
  8
0
 10
-44.0451
 20
156.189
 11
-44.3815
 21
155.659
  0
LINE
  8
0
 10
-44.3815
 20
155.659
 11
-44.6489
 21
155.091
  0
LINE
  8
0
 10
-44.6489
 20
155.091
 11
-44.8429
 21
154.493
  0
LINE
  8
0
 10
-44.8429
 20
154.493
 11
-44.9606
 21
153.877
  0
LINE
  8
0
 10
-44.9606
 20
153.877
 11
-45
 21
153.25
  0
LINE
  8
0
 10
-45
 20
153.25
 11
-45
 21
125.75
  0
LINE
  8
0
 10
-45
 20
125.75
 11
-44.9606
 21
125.123
  0
LINE
  8
0
 10
-44.9606
 20
125.123
 11
-44.8429
 21
124.507
  0
LINE
  8
0
 10
-44.8429
 20
124.507
 11
-44.6489
 21
123.909
  0
LINE
  8
0
 10
-44.6489
 20
123.909
 11
-44.3815
 21
123.341
  0
LINE
  8
0
 10
-44.3815
 20
123.341
 11
-44.0451
 21
122.811
  0
LINE
  8
0
 10
-44.0451
 20
122.811
 11
-43.6448
 21
122.327
  0
LINE
  8
0
 10
-43.6448
 20
122.327
 11
-43.1871
 21
121.897
  0
LINE
  8
0
 10
-43.1871
 20
121.897
 11
-42.6791
 21
121.528
  0
LINE
  8
0
 10
-42.6791
 20
121.528
 11
-42.1289
 21
121.226
  0
LINE
  8
0
 10
-42.1289
 20
121.226
 11
-41.5451
 21
120.995
  0
LINE
  8
0
 10
-41.5451
 20
120.995
 11
-40.9369
 21
120.839
  0
LINE
  8
0
 10
-40.9369
 20
120.839
 11
-40.3139
 21
120.76
  0
LINE
  8
0
 10
-40.3139
 20
120.76
 11
40.3139
 21
120.76
  0
LINE
  8
0
 10
40.3139
 20
120.76
 11
40.9369
 21
120.839
  0
LINE
  8
0
 10
-37.613
 20
148.954
 11
-37.8373
 21
148.982
  0
LINE
  8
0
 10
-37.8373
 20
148.982
 11
-38.0562
 21
149.038
  0
LINE
  8
0
 10
-38.0562
 20
149.038
 11
-38.2664
 21
149.121
  0
LINE
  8
0
 10
-38.2664
 20
149.121
 11
-38.4645
 21
149.23
  0
LINE
  8
0
 10
-38.4645
 20
149.23
 11
-38.6474
 21
149.363
  0
LINE
  8
0
 10
-38.6474
 20
149.363
 11
-38.8121
 21
149.518
  0
LINE
  8
0
 10
-38.8121
 20
149.518
 11
-38.9562
 21
149.692
  0
LINE
  8
0
 10
-38.9562
 20
149.692
 11
-39.0773
 21
149.883
  0
LINE
  8
0
 10
-39.0773
 20
149.883
 11
-39.1736
 21
150.087
  0
LINE
  8
0
 10
-39.1736
 20
150.087
 11
-39.2434
 21
150.302
  0
LINE
  8
0
 10
-39.2434
 20
150.302
 11
-39.2858
 21
150.524
  0
LINE
  8
0
 10
-39.2858
 20
150.524
 11
-39.3
 21
150.75
  0
LINE
  8
0
 10
-39.3
 20
150.75
 11
-39.2858
 21
150.976
  0
LINE
  8
0
 10
-39.2858
 20
150.976
 11
-39.2434
 21
151.198
  0
LINE
  8
0
 10
-39.2434
 20
151.198
 11
-39.1736
 21
151.413
  0
LINE
  8
0
 10
-39.1736
 20
151.413
 11
-39.0773
 21
151.617
  0
LINE
  8
0
 10
-39.0773
 20
151.617
 11
-38.9562
 21
151.808
  0
LINE
  8
0
 10
-38.9562
 20
151.808
 11
-38.8121
 21
151.982
  0
LINE
  8
0
 10
-38.8121
 20
151.982
 11
-38.6474
 21
152.137
  0
LINE
  8
0
 10
-38.6474
 20
152.137
 11
-38.4645
 21
152.27
  0
LINE
  8
0
 10
-38.4645
 20
152.27
 11
-38.2664
 21
152.379
  0
LINE
  8
0
 10
-38.2664
 20
152.379
 11
-38.0562
 21
152.462
  0
LINE
  8
0
 10
-38.0562
 20
152.462
 11
-37.8373
 21
152.518
  0
LINE
  8
0
 10
-37.8373
 20
152.518
 11
-37.613
 21
152.546
  0
LINE
  8
0
 10
-37.613
 20
152.546
 11
-37.387
 21
152.546
  0
LINE
  8
0
 10
-37.387
 20
152.546
 11
-37.1627
 21
152.518
  0
LINE
  8
0
 10
-37.1627
 20
152.518
 11
-36.9438
 21
152.462
  0
LINE
  8
0
 10
-36.9438
 20
152.462
 11
-36.7336
 21
152.379
  0
LINE
  8
0
 10
-36.7336
 20
152.379
 11
-36.5355
 21
152.27
  0
LINE
  8
0
 10
-36.5355
 20
152.27
 11
-36.3526
 21
152.137
  0
LINE
  8
0
 10
-36.3526
 20
152.137
 11
-36.1879
 21
151.982
  0
LINE
  8
0
 10
-36.1879
 20
151.982
 11
-36.0438
 21
151.808
  0
LINE
  8
0
 10
-36.0438
 20
151.808
 11
-35.9226
 21
151.617
  0
LINE
  8
0
 10
-35.9226
 20
151.617
 11
-35.8264
 21
151.413
  0
LINE
  8
0
 10
-35.8264
 20
151.413
 11
-35.7565
 21
151.198
  0
LINE
  8
0
 10
-35.7565
 20
151.198
 11
-35.7142
 21
150.976
  0
LINE
  8
0
 10
-35.7142
 20
150.976
 11
-35.7
 21
150.75
  0
LINE
  8
0
 10
-35.7
 20
150.75
 11
-35.7142
 21
150.524
  0
LINE
  8
0
 10
-35.7142
 20
150.524
 11
-35.7565
 21
150.302
  0
LINE
  8
0
 10
-35.7565
 20
150.302
 11
-35.8264
 21
150.087
  0
LINE
  8
0
 10
-35.8264
 20
150.087
 11
-35.9226
 21
149.883
  0
LINE
  8
0
 10
-35.9226
 20
149.883
 11
-36.0438
 21
149.692
  0
LINE
  8
0
 10
-36.0438
 20
149.692
 11
-36.1879
 21
149.518
  0
LINE
  8
0
 10
-36.1879
 20
149.518
 11
-36.3526
 21
149.363
  0
LINE
  8
0
 10
-36.3526
 20
149.363
 11
-36.5355
 21
149.23
  0
LINE
  8
0
 10
-36.5355
 20
149.23
 11
-36.7336
 21
149.121
  0
LINE
  8
0
 10
-36.7336
 20
149.121
 11
-36.9438
 21
149.038
  0
LINE
  8
0
 10
-36.9438
 20
149.038
 11
-37.1627
 21
148.982
  0
LINE
  8
0
 10
-37.1627
 20
148.982
 11
-37.387
 21
148.954
  0
LINE
  8
0
 10
-37.387
 20
148.954
 11
-37.613
 21
148.954
  0
LINE
  8
0
 10
37.387
 20
148.954
 11
37.1627
 21
148.982
  0
LINE
  8
0
 10
37.1627
 20
148.982
 11
36.9438
 21
149.038
  0
LINE
  8
0
 10
36.9438
 20
149.038
 11
36.7336
 21
149.121
  0
LINE
  8
0
 10
36.7336
 20
149.121
 11
36.5355
 21
149.23
  0
LINE
  8
0
 10
36.5355
 20
149.23
 11
36.3526
 21
149.363
  0
LINE
  8
0
 10
36.3526
 20
149.363
 11
36.1879
 21
149.518
  0
LINE
  8
0
 10
36.1879
 20
149.518
 11
36.0438
 21
149.692
  0
LINE
  8
0
 10
36.0438
 20
149.692
 11
35.9226
 21
149.883
  0
LINE
  8
0
 10
35.9226
 20
149.883
 11
35.8264
 21
150.087
  0
LINE
  8
0
 10
35.8264
 20
150.087
 11
35.7565
 21
150.302
  0
LINE
  8
0
 10
35.7565
 20
150.302
 11
35.7142
 21
150.524
  0
LINE
  8
0
 10
35.7142
 20
150.524
 11
35.7
 21
150.75
  0
LINE
  8
0
 10
35.7
 20
150.75
 11
35.7142
 21
150.976
  0
LINE
  8
0
 10
35.7142
 20
150.976
 11
35.7565
 21
151.198
  0
LINE
  8
0
 10
35.7565
 20
151.198
 11
35.8264
 21
151.413
  0
LINE
  8
0
 10
35.8264
 20
151.413
 11
35.9226
 21
151.617
  0
LINE
  8
0
 10
35.9226
 20
151.617
 11
36.0438
 21
151.808
  0
LINE
  8
0
 10
36.0438
 20
151.808
 11
36.1879
 21
151.982
  0
LINE
  8
0
 10
36.1879
 20
151.982
 11
36.3526
 21
152.137
  0
LINE
  8
0
 10
36.3526
 20
152.137
 11
36.5355
 21
152.27
  0
LINE
  8
0
 10
36.5355
 20
152.27
 11
36.7336
 21
152.379
  0
LINE
  8
0
 10
36.7336
 20
152.379
 11
36.9438
 21
152.462
  0
LINE
  8
0
 10
36.9438
 20
152.462
 11
37.1627
 21
152.518
  0
LINE
  8
0
 10
37.1627
 20
152.518
 11
37.387
 21
152.546
  0
LINE
  8
0
 10
37.387
 20
152.546
 11
37.613
 21
152.546
  0
LINE
  8
0
 10
37.613
 20
152.546
 11
37.8373
 21
152.518
  0
LINE
  8
0
 10
37.8373
 20
152.518
 11
38.0562
 21
152.462
  0
LINE
  8
0
 10
38.0562
 20
152.462
 11
38.2664
 21
152.379
  0
LINE
  8
0
 10
38.2664
 20
152.379
 11
38.4645
 21
152.27
  0
LINE
  8
0
 10
38.4645
 20
152.27
 11
38.6474
 21
152.137
  0
LINE
  8
0
 10
38.6474
 20
152.137
 11
38.8121
 21
151.982
  0
LINE
  8
0
 10
38.8121
 20
151.982
 11
38.9562
 21
151.808
  0
LINE
  8
0
 10
38.9562
 20
151.808
 11
39.0773
 21
151.617
  0
LINE
  8
0
 10
39.0773
 20
151.617
 11
39.1736
 21
151.413
  0
LINE
  8
0
 10
39.1736
 20
151.413
 11
39.2434
 21
151.198
  0
LINE
  8
0
 10
39.2434
 20
151.198
 11
39.2858
 21
150.976
  0
LINE
  8
0
 10
39.2858
 20
150.976
 11
39.3
 21
150.75
  0
LINE
  8
0
 10
39.3
 20
150.75
 11
39.2858
 21
150.524
  0
LINE
  8
0
 10
39.2858
 20
150.524
 11
39.2434
 21
150.302
  0
LINE
  8
0
 10
39.2434
 20
150.302
 11
39.1736
 21
150.087
  0
LINE
  8
0
 10
39.1736
 20
150.087
 11
39.0773
 21
149.883
  0
LINE
  8
0
 10
39.0773
 20
149.883
 11
38.9562
 21
149.692
  0
LINE
  8
0
 10
38.9562
 20
149.692
 11
38.8121
 21
149.518
  0
LINE
  8
0
 10
38.8121
 20
149.518
 11
38.6474
 21
149.363
  0
LINE
  8
0
 10
38.6474
 20
149.363
 11
38.4645
 21
149.23
  0
LINE
  8
0
 10
38.4645
 20
149.23
 11
38.2664
 21
149.121
  0
LINE
  8
0
 10
38.2664
 20
149.121
 11
38.0562
 21
149.038
  0
LINE
  8
0
 10
38.0562
 20
149.038
 11
37.8373
 21
148.982
  0
LINE
  8
0
 10
37.8373
 20
148.982
 11
37.613
 21
148.954
  0
LINE
  8
0
 10
37.613
 20
148.954
 11
37.387
 21
148.954
  0
LINE
  8
0
 10
37.387
 20
126.454
 11
37.1627
 21
126.482
  0
LINE
  8
0
 10
37.1627
 20
126.482
 11
36.9438
 21
126.538
  0
LINE
  8
0
 10
36.9438
 20
126.538
 11
36.7336
 21
126.621
  0
LINE
  8
0
 10
36.7336
 20
126.621
 11
36.5355
 21
126.73
  0
LINE
  8
0
 10
36.5355
 20
126.73
 11
36.3526
 21
126.863
  0
LINE
  8
0
 10
36.3526
 20
126.863
 11
36.1879
 21
127.018
  0
LINE
  8
0
 10
36.1879
 20
127.018
 11
36.0438
 21
127.192
  0
LINE
  8
0
 10
36.0438
 20
127.192
 11
35.9226
 21
127.383
  0
LINE
  8
0
 10
35.9226
 20
127.383
 11
35.8264
 21
127.587
  0
LINE
  8
0
 10
35.8264
 20
127.587
 11
35.7565
 21
127.802
  0
LINE
  8
0
 10
35.7565
 20
127.802
 11
35.7142
 21
128.024
  0
LINE
  8
0
 10
35.7142
 20
128.024
 11
35.7
 21
128.25
  0
LINE
  8
0
 10
35.7
 20
128.25
 11
35.7142
 21
128.476
  0
LINE
  8
0
 10
35.7142
 20
128.476
 11
35.7565
 21
128.698
  0
LINE
  8
0
 10
35.7565
 20
128.698
 11
35.8264
 21
128.913
  0
LINE
  8
0
 10
35.8264
 20
128.913
 11
35.9226
 21
129.117
  0
LINE
  8
0
 10
35.9226
 20
129.117
 11
36.0438
 21
129.308
  0
LINE
  8
0
 10
36.0438
 20
129.308
 11
36.1879
 21
129.482
  0
LINE
  8
0
 10
36.1879
 20
129.482
 11
36.3526
 21
129.637
  0
LINE
  8
0
 10
36.3526
 20
129.637
 11
36.5355
 21
129.77
  0
LINE
  8
0
 10
36.5355
 20
129.77
 11
36.7336
 21
129.879
  0
LINE
  8
0
 10
36.7336
 20
129.879
 11
36.9438
 21
129.962
  0
LINE
  8
0
 10
36.9438
 20
129.962
 11
37.1627
 21
130.018
  0
LINE
  8
0
 10
37.1627
 20
130.018
 11
37.387
 21
130.046
  0
LINE
  8
0
 10
37.387
 20
130.046
 11
37.613
 21
130.046
  0
LINE
  8
0
 10
37.613
 20
130.046
 11
37.8373
 21
130.018
  0
LINE
  8
0
 10
37.8373
 20
130.018
 11
38.0562
 21
129.962
  0
LINE
  8
0
 10
38.0562
 20
129.962
 11
38.2664
 21
129.879
  0
LINE
  8
0
 10
38.2664
 20
129.879
 11
38.4645
 21
129.77
  0
LINE
  8
0
 10
38.4645
 20
129.77
 11
38.6474
 21
129.637
  0
LINE
  8
0
 10
38.6474
 20
129.637
 11
38.8121
 21
129.482
  0
LINE
  8
0
 10
38.8121
 20
129.482
 11
38.9562
 21
129.308
  0
LINE
  8
0
 10
38.9562
 20
129.308
 11
39.0773
 21
129.117
  0
LINE
  8
0
 10
39.0773
 20
129.117
 11
39.1736
 21
128.913
  0
LINE
  8
0
 10
39.1736
 20
128.913
 11
39.2434
 21
128.698
  0
LINE
  8
0
 10
39.2434
 20
128.698
 11
39.2858
 21
128.476
  0
LINE
  8
0
 10
39.2858
 20
128.476
 11
39.3
 21
128.25
  0
LINE
  8
0
 10
39.3
 20
128.25
 11
39.2858
 21
128.024
  0
LINE
  8
0
 10
39.2858
 20
128.024
 11
39.2434
 21
127.802
  0
LINE
  8
0
 10
39.2434
 20
127.802
 11
39.1736
 21
127.587
  0
LINE
  8
0
 10
39.1736
 20
127.587
 11
39.0773
 21
127.383
  0
LINE
  8
0
 10
39.0773
 20
127.383
 11
38.9562
 21
127.192
  0
LINE
  8
0
 10
38.9562
 20
127.192
 11
38.8121
 21
127.018
  0
LINE
  8
0
 10
38.8121
 20
127.018
 11
38.6474
 21
126.863
  0
LINE
  8
0
 10
38.6474
 20
126.863
 11
38.4645
 21
126.73
  0
LINE
  8
0
 10
38.4645
 20
126.73
 11
38.2664
 21
126.621
  0
LINE
  8
0
 10
38.2664
 20
126.621
 11
38.0562
 21
126.538
  0
LINE
  8
0
 10
38.0562
 20
126.538
 11
37.8373
 21
126.482
  0
LINE
  8
0
 10
37.8373
 20
126.482
 11
37.613
 21
126.454
  0
LINE
  8
0
 10
37.613
 20
126.454
 11
37.387
 21
126.454
  0
LINE
  8
0
 10
-37.613
 20
126.454
 11
-37.8373
 21
126.482
  0
LINE
  8
0
 10
-37.8373
 20
126.482
 11
-38.0562
 21
126.538
  0
LINE
  8
0
 10
-38.0562
 20
126.538
 11
-38.2664
 21
126.621
  0
LINE
  8
0
 10
-38.2664
 20
126.621
 11
-38.4645
 21
126.73
  0
LINE
  8
0
 10
-38.4645
 20
126.73
 11
-38.6474
 21
126.863
  0
LINE
  8
0
 10
-38.6474
 20
126.863
 11
-38.8121
 21
127.018
  0
LINE
  8
0
 10
-38.8121
 20
127.018
 11
-38.9562
 21
127.192
  0
LINE
  8
0
 10
-38.9562
 20
127.192
 11
-39.0773
 21
127.383
  0
LINE
  8
0
 10
-39.0773
 20
127.383
 11
-39.1736
 21
127.587
  0
LINE
  8
0
 10
-39.1736
 20
127.587
 11
-39.2434
 21
127.802
  0
LINE
  8
0
 10
-39.2434
 20
127.802
 11
-39.2858
 21
128.024
  0
LINE
  8
0
 10
-39.2858
 20
128.024
 11
-39.3
 21
128.25
  0
LINE
  8
0
 10
-39.3
 20
128.25
 11
-39.2858
 21
128.476
  0
LINE
  8
0
 10
-39.2858
 20
128.476
 11
-39.2434
 21
128.698
  0
LINE
  8
0
 10
-39.2434
 20
128.698
 11
-39.1736
 21
128.913
  0
LINE
  8
0
 10
-39.1736
 20
128.913
 11
-39.0773
 21
129.117
  0
LINE
  8
0
 10
-39.0773
 20
129.117
 11
-38.9562
 21
129.308
  0
LINE
  8
0
 10
-38.9562
 20
129.308
 11
-38.8121
 21
129.482
  0
LINE
  8
0
 10
-38.8121
 20
129.482
 11
-38.6474
 21
129.637
  0
LINE
  8
0
 10
-38.6474
 20
129.637
 11
-38.4645
 21
129.77
  0
LINE
  8
0
 10
-38.4645
 20
129.77
 11
-38.2664
 21
129.879
  0
LINE
  8
0
 10
-38.2664
 20
129.879
 11
-38.0562
 21
129.962
  0
LINE
  8
0
 10
-38.0562
 20
129.962
 11
-37.8373
 21
130.018
  0
LINE
  8
0
 10
-37.8373
 20
130.018
 11
-37.613
 21
130.046
  0
LINE
  8
0
 10
-37.613
 20
130.046
 11
-37.387
 21
130.046
  0
LINE
  8
0
 10
-37.387
 20
130.046
 11
-37.1627
 21
130.018
  0
LINE
  8
0
 10
-37.1627
 20
130.018
 11
-36.9438
 21
129.962
  0
LINE
  8
0
 10
-36.9438
 20
129.962
 11
-36.7336
 21
129.879
  0
LINE
  8
0
 10
-36.7336
 20
129.879
 11
-36.5355
 21
129.77
  0
LINE
  8
0
 10
-36.5355
 20
129.77
 11
-36.3526
 21
129.637
  0
LINE
  8
0
 10
-36.3526
 20
129.637
 11
-36.1879
 21
129.482
  0
LINE
  8
0
 10
-36.1879
 20
129.482
 11
-36.0438
 21
129.308
  0
LINE
  8
0
 10
-36.0438
 20
129.308
 11
-35.9226
 21
129.117
  0
LINE
  8
0
 10
-35.9226
 20
129.117
 11
-35.8264
 21
128.913
  0
LINE
  8
0
 10
-35.8264
 20
128.913
 11
-35.7565
 21
128.698
  0
LINE
  8
0
 10
-35.7565
 20
128.698
 11
-35.7142
 21
128.476
  0
LINE
  8
0
 10
-35.7142
 20
128.476
 11
-35.7
 21
128.25
  0
LINE
  8
0
 10
-35.7
 20
128.25
 11
-35.7142
 21
128.024
  0
LINE
  8
0
 10
-35.7142
 20
128.024
 11
-35.7565
 21
127.802
  0
LINE
  8
0
 10
-35.7565
 20
127.802
 11
-35.8264
 21
127.587
  0
LINE
  8
0
 10
-35.8264
 20
127.587
 11
-35.9226
 21
127.383
  0
LINE
  8
0
 10
-35.9226
 20
127.383
 11
-36.0438
 21
127.192
  0
LINE
  8
0
 10
-36.0438
 20
127.192
 11
-36.1879
 21
127.018
  0
LINE
  8
0
 10
-36.1879
 20
127.018
 11
-36.3526
 21
126.863
  0
LINE
  8
0
 10
-36.3526
 20
126.863
 11
-36.5355
 21
126.73
  0
LINE
  8
0
 10
-36.5355
 20
126.73
 11
-36.7336
 21
126.621
  0
LINE
  8
0
 10
-36.7336
 20
126.621
 11
-36.9438
 21
126.538
  0
LINE
  8
0
 10
-36.9438
 20
126.538
 11
-37.1627
 21
126.482
  0
LINE
  8
0
 10
-37.1627
 20
126.482
 11
-37.387
 21
126.454
  0
LINE
  8
0
 10
-37.387
 20
126.454
 11
-37.613
 21
126.454
  0
ENDSEC
  0
SECTION
  2
OBJECTS
  0
DICTIONARY
  0
ENDSEC
  0
EOF
