  0
SECTION
  2
BLOCKS
  0
ENDSEC
  0
SECTION
  2
ENTITIES
  0
LINE
  8
0
 10
33.4369
 20
1125.09
 11
34.0451
 21
1125.24
  0
LINE
  8
0
 10
34.0451
 20
1125.24
 11
34.6289
 21
1125.48
  0
LINE
  8
0
 10
34.6289
 20
1125.48
 11
35.1791
 21
1125.78
  0
LINE
  8
0
 10
35.1791
 20
1125.78
 11
35.6871
 21
1126.15
  0
LINE
  8
0
 10
35.6871
 20
1126.15
 11
36.1448
 21
1126.58
  0
LINE
  8
0
 10
36.1448
 20
1126.58
 11
36.5451
 21
1127.06
  0
LINE
  8
0
 10
36.5451
 20
1127.06
 11
36.8815
 21
1127.59
  0
LINE
  8
0
 10
36.8815
 20
1127.59
 11
37.1489
 21
1128.16
  0
LINE
  8
0
 10
37.1489
 20
1128.16
 11
37.3429
 21
1128.76
  0
LINE
  8
0
 10
37.3429
 20
1128.76
 11
37.4606
 21
1129.37
  0
LINE
  8
0
 10
37.4606
 20
1129.37
 11
37.5
 21
1130
  0
LINE
  8
0
 10
37.5
 20
1130
 11
37.5
 21
1360
  0
LINE
  8
0
 10
37.5
 20
1360
 11
37.4606
 21
1360.63
  0
LINE
  8
0
 10
37.4606
 20
1360.63
 11
37.3429
 21
1361.24
  0
LINE
  8
0
 10
37.3429
 20
1361.24
 11
37.1489
 21
1361.84
  0
LINE
  8
0
 10
37.1489
 20
1361.84
 11
36.8815
 21
1362.41
  0
LINE
  8
0
 10
36.8815
 20
1362.41
 11
36.5451
 21
1362.94
  0
LINE
  8
0
 10
36.5451
 20
1362.94
 11
36.1448
 21
1363.42
  0
LINE
  8
0
 10
36.1448
 20
1363.42
 11
35.6871
 21
1363.85
  0
LINE
  8
0
 10
35.6871
 20
1363.85
 11
35.1791
 21
1364.22
  0
LINE
  8
0
 10
35.1791
 20
1364.22
 11
34.6289
 21
1364.52
  0
LINE
  8
0
 10
34.6289
 20
1364.52
 11
34.0451
 21
1364.76
  0
LINE
  8
0
 10
34.0451
 20
1364.76
 11
33.4369
 21
1364.91
  0
LINE
  8
0
 10
33.4369
 20
1364.91
 11
32.8139
 21
1364.99
  0
LINE
  8
0
 10
32.8139
 20
1364.99
 11
-32.8139
 21
1364.99
  0
LINE
  8
0
 10
-32.8139
 20
1364.99
 11
-33.4369
 21
1364.91
  0
LINE
  8
0
 10
-33.4369
 20
1364.91
 11
-34.0451
 21
1364.76
  0
LINE
  8
0
 10
-34.0451
 20
1364.76
 11
-34.6289
 21
1364.52
  0
LINE
  8
0
 10
-34.6289
 20
1364.52
 11
-35.1791
 21
1364.22
  0
LINE
  8
0
 10
-35.1791
 20
1364.22
 11
-35.6871
 21
1363.85
  0
LINE
  8
0
 10
-35.6871
 20
1363.85
 11
-36.1448
 21
1363.42
  0
LINE
  8
0
 10
-36.1448
 20
1363.42
 11
-36.5451
 21
1362.94
  0
LINE
  8
0
 10
-36.5451
 20
1362.94
 11
-36.8815
 21
1362.41
  0
LINE
  8
0
 10
-36.8815
 20
1362.41
 11
-37.1489
 21
1361.84
  0
LINE
  8
0
 10
-37.1489
 20
1361.84
 11
-37.3429
 21
1361.24
  0
LINE
  8
0
 10
-37.3429
 20
1361.24
 11
-37.4606
 21
1360.63
  0
LINE
  8
0
 10
-37.4606
 20
1360.63
 11
-37.5
 21
1360
  0
LINE
  8
0
 10
-37.5
 20
1360
 11
-37.5
 21
1130
  0
LINE
  8
0
 10
-37.5
 20
1130
 11
-37.4606
 21
1129.37
  0
LINE
  8
0
 10
-37.4606
 20
1129.37
 11
-37.3429
 21
1128.76
  0
LINE
  8
0
 10
-37.3429
 20
1128.76
 11
-37.1489
 21
1128.16
  0
LINE
  8
0
 10
-37.1489
 20
1128.16
 11
-36.8815
 21
1127.59
  0
LINE
  8
0
 10
-36.8815
 20
1127.59
 11
-36.5451
 21
1127.06
  0
LINE
  8
0
 10
-36.5451
 20
1127.06
 11
-36.1448
 21
1126.58
  0
LINE
  8
0
 10
-36.1448
 20
1126.58
 11
-35.6871
 21
1126.15
  0
LINE
  8
0
 10
-35.6871
 20
1126.15
 11
-35.1791
 21
1125.78
  0
LINE
  8
0
 10
-35.1791
 20
1125.78
 11
-34.6289
 21
1125.48
  0
LINE
  8
0
 10
-34.6289
 20
1125.48
 11
-34.0451
 21
1125.24
  0
LINE
  8
0
 10
-34.0451
 20
1125.24
 11
-33.4369
 21
1125.09
  0
LINE
  8
0
 10
-33.4369
 20
1125.09
 11
-32.8139
 21
1125.01
  0
LINE
  8
0
 10
-32.8139
 20
1125.01
 11
32.8139
 21
1125.01
  0
LINE
  8
0
 10
32.8139
 20
1125.01
 11
33.4369
 21
1125.09
  0
LINE
  8
0
 10
-32.2512
 20
1126.51
 11
-32.7495
 21
1126.57
  0
LINE
  8
0
 10
-32.7495
 20
1126.57
 11
-33.2361
 21
1126.7
  0
LINE
  8
0
 10
-33.2361
 20
1126.7
 11
-33.7031
 21
1126.88
  0
LINE
  8
0
 10
-33.7031
 20
1126.88
 11
-34.1433
 21
1127.12
  0
LINE
  8
0
 10
-34.1433
 20
1127.12
 11
-34.5497
 21
1127.42
  0
LINE
  8
0
 10
-34.5497
 20
1127.42
 11
-34.9159
 21
1127.76
  0
LINE
  8
0
 10
-34.9159
 20
1127.76
 11
-35.2361
 21
1128.15
  0
LINE
  8
0
 10
-35.2361
 20
1128.15
 11
-35.5052
 21
1128.57
  0
LINE
  8
0
 10
-35.5052
 20
1128.57
 11
-35.7191
 21
1129.03
  0
LINE
  8
0
 10
-35.7191
 20
1129.03
 11
-35.8743
 21
1129.51
  0
LINE
  8
0
 10
-35.8743
 20
1129.51
 11
-35.9685
 21
1130
  0
LINE
  8
0
 10
-35.9685
 20
1130
 11
-36
 21
1130.5
  0
LINE
  8
0
 10
-36
 20
1130.5
 11
-36
 21
1359.5
  0
LINE
  8
0
 10
-36
 20
1359.5
 11
-35.9685
 21
1360
  0
LINE
  8
0
 10
-35.9685
 20
1360
 11
-35.8743
 21
1360.49
  0
LINE
  8
0
 10
-35.8743
 20
1360.49
 11
-35.7191
 21
1360.97
  0
LINE
  8
0
 10
-35.7191
 20
1360.97
 11
-35.5052
 21
1361.43
  0
LINE
  8
0
 10
-35.5052
 20
1361.43
 11
-35.2361
 21
1361.85
  0
LINE
  8
0
 10
-35.2361
 20
1361.85
 11
-34.9159
 21
1362.24
  0
LINE
  8
0
 10
-34.9159
 20
1362.24
 11
-34.5497
 21
1362.58
  0
LINE
  8
0
 10
-34.5497
 20
1362.58
 11
-34.1433
 21
1362.88
  0
LINE
  8
0
 10
-34.1433
 20
1362.88
 11
-33.7031
 21
1363.12
  0
LINE
  8
0
 10
-33.7031
 20
1363.12
 11
-33.2361
 21
1363.3
  0
LINE
  8
0
 10
-33.2361
 20
1363.3
 11
-32.7495
 21
1363.43
  0
LINE
  8
0
 10
-32.7495
 20
1363.43
 11
-32.2512
 21
1363.49
  0
LINE
  8
0
 10
-32.2512
 20
1363.49
 11
32.2512
 21
1363.49
  0
LINE
  8
0
 10
32.2512
 20
1363.49
 11
32.7495
 21
1363.43
  0
LINE
  8
0
 10
32.7495
 20
1363.43
 11
33.2361
 21
1363.3
  0
LINE
  8
0
 10
33.2361
 20
1363.3
 11
33.7031
 21
1363.12
  0
LINE
  8
0
 10
33.7031
 20
1363.12
 11
34.1433
 21
1362.88
  0
LINE
  8
0
 10
34.1433
 20
1362.88
 11
34.5497
 21
1362.58
  0
LINE
  8
0
 10
34.5497
 20
1362.58
 11
34.9159
 21
1362.24
  0
LINE
  8
0
 10
34.9159
 20
1362.24
 11
35.2361
 21
1361.85
  0
LINE
  8
0
 10
35.2361
 20
1361.85
 11
35.5052
 21
1361.43
  0
LINE
  8
0
 10
35.5052
 20
1361.43
 11
35.7191
 21
1360.97
  0
LINE
  8
0
 10
35.7191
 20
1360.97
 11
35.8743
 21
1360.49
  0
LINE
  8
0
 10
35.8743
 20
1360.49
 11
35.9685
 21
1360
  0
LINE
  8
0
 10
35.9685
 20
1360
 11
36
 21
1359.5
  0
LINE
  8
0
 10
36
 20
1359.5
 11
36
 21
1130.5
  0
LINE
  8
0
 10
36
 20
1130.5
 11
35.9685
 21
1130
  0
LINE
  8
0
 10
35.9685
 20
1130
 11
35.8743
 21
1129.51
  0
LINE
  8
0
 10
35.8743
 20
1129.51
 11
35.7191
 21
1129.03
  0
LINE
  8
0
 10
35.7191
 20
1129.03
 11
35.5052
 21
1128.57
  0
LINE
  8
0
 10
35.5052
 20
1128.57
 11
35.2361
 21
1128.15
  0
LINE
  8
0
 10
35.2361
 20
1128.15
 11
34.9159
 21
1127.76
  0
LINE
  8
0
 10
34.9159
 20
1127.76
 11
34.5497
 21
1127.42
  0
LINE
  8
0
 10
34.5497
 20
1127.42
 11
34.1433
 21
1127.12
  0
LINE
  8
0
 10
34.1433
 20
1127.12
 11
33.7031
 21
1126.88
  0
LINE
  8
0
 10
33.7031
 20
1126.88
 11
33.2361
 21
1126.7
  0
LINE
  8
0
 10
33.2361
 20
1126.7
 11
32.7495
 21
1126.57
  0
LINE
  8
0
 10
32.7495
 20
1126.57
 11
32.2512
 21
1126.51
  0
LINE
  8
0
 10
32.2512
 20
1126.51
 11
-32.2512
 21
1126.51
  0
LINE
  8
0
 10
33.4369
 20
876.089
 11
34.0451
 21
876.245
  0
LINE
  8
0
 10
34.0451
 20
876.245
 11
34.6289
 21
876.476
  0
LINE
  8
0
 10
34.6289
 20
876.476
 11
35.1791
 21
876.778
  0
LINE
  8
0
 10
35.1791
 20
876.778
 11
35.6871
 21
877.147
  0
LINE
  8
0
 10
35.6871
 20
877.147
 11
36.1448
 21
877.577
  0
LINE
  8
0
 10
36.1448
 20
877.577
 11
36.5451
 21
878.061
  0
LINE
  8
0
 10
36.5451
 20
878.061
 11
36.8815
 21
878.591
  0
LINE
  8
0
 10
36.8815
 20
878.591
 11
37.1489
 21
879.159
  0
LINE
  8
0
 10
37.1489
 20
879.159
 11
37.3429
 21
879.757
  0
LINE
  8
0
 10
37.3429
 20
879.757
 11
37.4606
 21
880.373
  0
LINE
  8
0
 10
37.4606
 20
880.373
 11
37.5
 21
881
  0
LINE
  8
0
 10
37.5
 20
881
 11
37.5
 21
1111
  0
LINE
  8
0
 10
37.5
 20
1111
 11
37.4606
 21
1111.63
  0
LINE
  8
0
 10
37.4606
 20
1111.63
 11
37.3429
 21
1112.24
  0
LINE
  8
0
 10
37.3429
 20
1112.24
 11
37.1489
 21
1112.84
  0
LINE
  8
0
 10
37.1489
 20
1112.84
 11
36.8815
 21
1113.41
  0
LINE
  8
0
 10
36.8815
 20
1113.41
 11
36.5451
 21
1113.94
  0
LINE
  8
0
 10
36.5451
 20
1113.94
 11
36.1448
 21
1114.42
  0
LINE
  8
0
 10
36.1448
 20
1114.42
 11
35.6871
 21
1114.85
  0
LINE
  8
0
 10
35.6871
 20
1114.85
 11
35.1791
 21
1115.22
  0
LINE
  8
0
 10
35.1791
 20
1115.22
 11
34.6289
 21
1115.52
  0
LINE
  8
0
 10
34.6289
 20
1115.52
 11
34.0451
 21
1115.76
  0
LINE
  8
0
 10
34.0451
 20
1115.76
 11
33.4369
 21
1115.91
  0
LINE
  8
0
 10
33.4369
 20
1115.91
 11
32.8139
 21
1115.99
  0
LINE
  8
0
 10
32.8139
 20
1115.99
 11
-32.8139
 21
1115.99
  0
LINE
  8
0
 10
-32.8139
 20
1115.99
 11
-33.4369
 21
1115.91
  0
LINE
  8
0
 10
-33.4369
 20
1115.91
 11
-34.0451
 21
1115.76
  0
LINE
  8
0
 10
-34.0451
 20
1115.76
 11
-34.6289
 21
1115.52
  0
LINE
  8
0
 10
-34.6289
 20
1115.52
 11
-35.1791
 21
1115.22
  0
LINE
  8
0
 10
-35.1791
 20
1115.22
 11
-35.6871
 21
1114.85
  0
LINE
  8
0
 10
-35.6871
 20
1114.85
 11
-36.1448
 21
1114.42
  0
LINE
  8
0
 10
-36.1448
 20
1114.42
 11
-36.5451
 21
1113.94
  0
LINE
  8
0
 10
-36.5451
 20
1113.94
 11
-36.8815
 21
1113.41
  0
LINE
  8
0
 10
-36.8815
 20
1113.41
 11
-37.1489
 21
1112.84
  0
LINE
  8
0
 10
-37.1489
 20
1112.84
 11
-37.3429
 21
1112.24
  0
LINE
  8
0
 10
-37.3429
 20
1112.24
 11
-37.4606
 21
1111.63
  0
LINE
  8
0
 10
-37.4606
 20
1111.63
 11
-37.5
 21
1111
  0
LINE
  8
0
 10
-37.5
 20
1111
 11
-37.5
 21
881
  0
LINE
  8
0
 10
-37.5
 20
881
 11
-37.4606
 21
880.373
  0
LINE
  8
0
 10
-37.4606
 20
880.373
 11
-37.3429
 21
879.757
  0
LINE
  8
0
 10
-37.3429
 20
879.757
 11
-37.1489
 21
879.159
  0
LINE
  8
0
 10
-37.1489
 20
879.159
 11
-36.8815
 21
878.591
  0
LINE
  8
0
 10
-36.8815
 20
878.591
 11
-36.5451
 21
878.061
  0
LINE
  8
0
 10
-36.5451
 20
878.061
 11
-36.1448
 21
877.577
  0
LINE
  8
0
 10
-36.1448
 20
877.577
 11
-35.6871
 21
877.147
  0
LINE
  8
0
 10
-35.6871
 20
877.147
 11
-35.1791
 21
876.778
  0
LINE
  8
0
 10
-35.1791
 20
876.778
 11
-34.6289
 21
876.476
  0
LINE
  8
0
 10
-34.6289
 20
876.476
 11
-34.0451
 21
876.245
  0
LINE
  8
0
 10
-34.0451
 20
876.245
 11
-33.4369
 21
876.089
  0
LINE
  8
0
 10
-33.4369
 20
876.089
 11
-32.8139
 21
876.01
  0
LINE
  8
0
 10
-32.8139
 20
876.01
 11
32.8139
 21
876.01
  0
LINE
  8
0
 10
32.8139
 20
876.01
 11
33.4369
 21
876.089
  0
LINE
  8
0
 10
-32.1954
 20
878.393
 11
-32.5833
 21
878.442
  0
LINE
  8
0
 10
-32.5833
 20
878.442
 11
-32.9619
 21
878.539
  0
LINE
  8
0
 10
-32.9619
 20
878.539
 11
-33.3254
 21
878.683
  0
LINE
  8
0
 10
-33.3254
 20
878.683
 11
-33.668
 21
878.872
  0
LINE
  8
0
 10
-33.668
 20
878.872
 11
-33.9842
 21
879.101
  0
LINE
  8
0
 10
-33.9842
 20
879.101
 11
-34.2692
 21
879.369
  0
LINE
  8
0
 10
-34.2692
 20
879.369
 11
-34.5184
 21
879.67
  0
LINE
  8
0
 10
-34.5184
 20
879.67
 11
-34.7279
 21
880
  0
LINE
  8
0
 10
-34.7279
 20
880
 11
-34.8943
 21
880.354
  0
LINE
  8
0
 10
-34.8943
 20
880.354
 11
-35.0151
 21
880.726
  0
LINE
  8
0
 10
-35.0151
 20
880.726
 11
-35.0884
 21
881.11
  0
LINE
  8
0
 10
-35.0884
 20
881.11
 11
-35.1129
 21
881.5
  0
LINE
  8
0
 10
-35.1129
 20
881.5
 11
-35.1129
 21
1110.5
  0
LINE
  8
0
 10
-35.1129
 20
1110.5
 11
-35.0884
 21
1110.89
  0
LINE
  8
0
 10
-35.0884
 20
1110.89
 11
-35.0151
 21
1111.27
  0
LINE
  8
0
 10
-35.0151
 20
1111.27
 11
-34.8943
 21
1111.65
  0
LINE
  8
0
 10
-34.8943
 20
1111.65
 11
-34.7279
 21
1112
  0
LINE
  8
0
 10
-34.7279
 20
1112
 11
-34.5184
 21
1112.33
  0
LINE
  8
0
 10
-34.5184
 20
1112.33
 11
-34.2692
 21
1112.63
  0
LINE
  8
0
 10
-34.2692
 20
1112.63
 11
-33.9842
 21
1112.9
  0
LINE
  8
0
 10
-33.9842
 20
1112.9
 11
-33.668
 21
1113.13
  0
LINE
  8
0
 10
-33.668
 20
1113.13
 11
-33.3254
 21
1113.32
  0
LINE
  8
0
 10
-33.3254
 20
1113.32
 11
-32.9619
 21
1113.46
  0
LINE
  8
0
 10
-32.9619
 20
1113.46
 11
-32.5833
 21
1113.56
  0
LINE
  8
0
 10
-32.5833
 20
1113.56
 11
-32.1954
 21
1113.61
  0
LINE
  8
0
 10
-32.1954
 20
1113.61
 11
32.1954
 21
1113.61
  0
LINE
  8
0
 10
32.1954
 20
1113.61
 11
32.5833
 21
1113.56
  0
LINE
  8
0
 10
32.5833
 20
1113.56
 11
32.9619
 21
1113.46
  0
LINE
  8
0
 10
32.9619
 20
1113.46
 11
33.3254
 21
1113.32
  0
LINE
  8
0
 10
33.3254
 20
1113.32
 11
33.668
 21
1113.13
  0
LINE
  8
0
 10
33.668
 20
1113.13
 11
33.9842
 21
1112.9
  0
LINE
  8
0
 10
33.9842
 20
1112.9
 11
34.2692
 21
1112.63
  0
LINE
  8
0
 10
34.2692
 20
1112.63
 11
34.5184
 21
1112.33
  0
LINE
  8
0
 10
34.5184
 20
1112.33
 11
34.7279
 21
1112
  0
LINE
  8
0
 10
34.7279
 20
1112
 11
34.8943
 21
1111.65
  0
LINE
  8
0
 10
34.8943
 20
1111.65
 11
35.0151
 21
1111.27
  0
LINE
  8
0
 10
35.0151
 20
1111.27
 11
35.0884
 21
1110.89
  0
LINE
  8
0
 10
35.0884
 20
1110.89
 11
35.1129
 21
1110.5
  0
LINE
  8
0
 10
35.1129
 20
1110.5
 11
35.1129
 21
881.5
  0
LINE
  8
0
 10
35.1129
 20
881.5
 11
35.0884
 21
881.11
  0
LINE
  8
0
 10
35.0884
 20
881.11
 11
35.0151
 21
880.726
  0
LINE
  8
0
 10
35.0151
 20
880.726
 11
34.8943
 21
880.354
  0
LINE
  8
0
 10
34.8943
 20
880.354
 11
34.7279
 21
880
  0
LINE
  8
0
 10
34.7279
 20
880
 11
34.5184
 21
879.67
  0
LINE
  8
0
 10
34.5184
 20
879.67
 11
34.2692
 21
879.369
  0
LINE
  8
0
 10
34.2692
 20
879.369
 11
33.9842
 21
879.101
  0
LINE
  8
0
 10
33.9842
 20
879.101
 11
33.668
 21
878.872
  0
LINE
  8
0
 10
33.668
 20
878.872
 11
33.3254
 21
878.683
  0
LINE
  8
0
 10
33.3254
 20
878.683
 11
32.9619
 21
878.539
  0
LINE
  8
0
 10
32.9619
 20
878.539
 11
32.5833
 21
878.442
  0
LINE
  8
0
 10
32.5833
 20
878.442
 11
32.1954
 21
878.393
  0
LINE
  8
0
 10
32.1954
 20
878.393
 11
-32.1954
 21
878.393
  0
LINE
  8
0
 10
33.4369
 20
627.089
 11
34.0451
 21
627.245
  0
LINE
  8
0
 10
34.0451
 20
627.245
 11
34.6289
 21
627.476
  0
LINE
  8
0
 10
34.6289
 20
627.476
 11
35.1791
 21
627.778
  0
LINE
  8
0
 10
35.1791
 20
627.778
 11
35.6871
 21
628.147
  0
LINE
  8
0
 10
35.6871
 20
628.147
 11
36.1448
 21
628.577
  0
LINE
  8
0
 10
36.1448
 20
628.577
 11
36.5451
 21
629.061
  0
LINE
  8
0
 10
36.5451
 20
629.061
 11
36.8815
 21
629.591
  0
LINE
  8
0
 10
36.8815
 20
629.591
 11
37.1489
 21
630.159
  0
LINE
  8
0
 10
37.1489
 20
630.159
 11
37.3429
 21
630.757
  0
LINE
  8
0
 10
37.3429
 20
630.757
 11
37.4606
 21
631.373
  0
LINE
  8
0
 10
37.4606
 20
631.373
 11
37.5
 21
632
  0
LINE
  8
0
 10
37.5
 20
632
 11
37.5
 21
862
  0
LINE
  8
0
 10
37.5
 20
862
 11
37.4606
 21
862.627
  0
LINE
  8
0
 10
37.4606
 20
862.627
 11
37.3429
 21
863.243
  0
LINE
  8
0
 10
37.3429
 20
863.243
 11
37.1489
 21
863.841
  0
LINE
  8
0
 10
37.1489
 20
863.841
 11
36.8815
 21
864.409
  0
LINE
  8
0
 10
36.8815
 20
864.409
 11
36.5451
 21
864.939
  0
LINE
  8
0
 10
36.5451
 20
864.939
 11
36.1448
 21
865.423
  0
LINE
  8
0
 10
36.1448
 20
865.423
 11
35.6871
 21
865.853
  0
LINE
  8
0
 10
35.6871
 20
865.853
 11
35.1791
 21
866.222
  0
LINE
  8
0
 10
35.1791
 20
866.222
 11
34.6289
 21
866.524
  0
LINE
  8
0
 10
34.6289
 20
866.524
 11
34.0451
 21
866.755
  0
LINE
  8
0
 10
34.0451
 20
866.755
 11
33.4369
 21
866.911
  0
LINE
  8
0
 10
33.4369
 20
866.911
 11
32.8139
 21
866.99
  0
LINE
  8
0
 10
32.8139
 20
866.99
 11
-32.8139
 21
866.99
  0
LINE
  8
0
 10
-32.8139
 20
866.99
 11
-33.4369
 21
866.911
  0
LINE
  8
0
 10
-33.4369
 20
866.911
 11
-34.0451
 21
866.755
  0
LINE
  8
0
 10
-34.0451
 20
866.755
 11
-34.6289
 21
866.524
  0
LINE
  8
0
 10
-34.6289
 20
866.524
 11
-35.1791
 21
866.222
  0
LINE
  8
0
 10
-35.1791
 20
866.222
 11
-35.6871
 21
865.853
  0
LINE
  8
0
 10
-35.6871
 20
865.853
 11
-36.1448
 21
865.423
  0
LINE
  8
0
 10
-36.1448
 20
865.423
 11
-36.5451
 21
864.939
  0
LINE
  8
0
 10
-36.5451
 20
864.939
 11
-36.8815
 21
864.409
  0
LINE
  8
0
 10
-36.8815
 20
864.409
 11
-37.1489
 21
863.841
  0
LINE
  8
0
 10
-37.1489
 20
863.841
 11
-37.3429
 21
863.243
  0
LINE
  8
0
 10
-37.3429
 20
863.243
 11
-37.4606
 21
862.627
  0
LINE
  8
0
 10
-37.4606
 20
862.627
 11
-37.5
 21
862
  0
LINE
  8
0
 10
-37.5
 20
862
 11
-37.5
 21
632
  0
LINE
  8
0
 10
-37.5
 20
632
 11
-37.4606
 21
631.373
  0
LINE
  8
0
 10
-37.4606
 20
631.373
 11
-37.3429
 21
630.757
  0
LINE
  8
0
 10
-37.3429
 20
630.757
 11
-37.1489
 21
630.159
  0
LINE
  8
0
 10
-37.1489
 20
630.159
 11
-36.8815
 21
629.591
  0
LINE
  8
0
 10
-36.8815
 20
629.591
 11
-36.5451
 21
629.061
  0
LINE
  8
0
 10
-36.5451
 20
629.061
 11
-36.1448
 21
628.577
  0
LINE
  8
0
 10
-36.1448
 20
628.577
 11
-35.6871
 21
628.147
  0
LINE
  8
0
 10
-35.6871
 20
628.147
 11
-35.1791
 21
627.778
  0
LINE
  8
0
 10
-35.1791
 20
627.778
 11
-34.6289
 21
627.476
  0
LINE
  8
0
 10
-34.6289
 20
627.476
 11
-34.0451
 21
627.245
  0
LINE
  8
0
 10
-34.0451
 20
627.245
 11
-33.4369
 21
627.089
  0
LINE
  8
0
 10
-33.4369
 20
627.089
 11
-32.8139
 21
627.01
  0
LINE
  8
0
 10
-32.8139
 20
627.01
 11
32.8139
 21
627.01
  0
LINE
  8
0
 10
32.8139
 20
627.01
 11
33.4369
 21
627.089
  0
LINE
  8
0
 10
29.8659
 20
857.369
 11
29.5999
 21
857.403
  0
LINE
  8
0
 10
29.5999
 20
857.403
 11
29.3401
 21
857.469
  0
LINE
  8
0
 10
29.3401
 20
857.469
 11
29.0908
 21
857.568
  0
LINE
  8
0
 10
29.0908
 20
857.568
 11
28.8559
 21
857.697
  0
LINE
  8
0
 10
28.8559
 20
857.697
 11
28.6389
 21
857.855
  0
LINE
  8
0
 10
28.6389
 20
857.855
 11
28.4434
 21
858.038
  0
LINE
  8
0
 10
28.4434
 20
858.038
 11
28.2725
 21
858.245
  0
LINE
  8
0
 10
28.2725
 20
858.245
 11
28.1288
 21
858.471
  0
LINE
  8
0
 10
28.1288
 20
858.471
 11
28.0146
 21
858.714
  0
LINE
  8
0
 10
28.0146
 20
858.714
 11
27.9318
 21
858.969
  0
LINE
  8
0
 10
27.9318
 20
858.969
 11
27.8815
 21
859.232
  0
LINE
  8
0
 10
27.8815
 20
859.232
 11
27.8647
 21
859.5
  0
LINE
  8
0
 10
27.8647
 20
859.5
 11
27.8815
 21
859.768
  0
LINE
  8
0
 10
27.8815
 20
859.768
 11
27.9318
 21
860.031
  0
LINE
  8
0
 10
27.9318
 20
860.031
 11
28.0146
 21
860.286
  0
LINE
  8
0
 10
28.0146
 20
860.286
 11
28.1288
 21
860.529
  0
LINE
  8
0
 10
28.1288
 20
860.529
 11
28.2725
 21
860.755
  0
LINE
  8
0
 10
28.2725
 20
860.755
 11
28.4434
 21
860.962
  0
LINE
  8
0
 10
28.4434
 20
860.962
 11
28.6389
 21
861.145
  0
LINE
  8
0
 10
28.6389
 20
861.145
 11
28.8559
 21
861.303
  0
LINE
  8
0
 10
28.8559
 20
861.303
 11
29.0908
 21
861.432
  0
LINE
  8
0
 10
29.0908
 20
861.432
 11
29.3401
 21
861.531
  0
LINE
  8
0
 10
29.3401
 20
861.531
 11
29.5999
 21
861.597
  0
LINE
  8
0
 10
29.5999
 20
861.597
 11
29.8659
 21
861.631
  0
LINE
  8
0
 10
29.8659
 20
861.631
 11
30.1341
 21
861.631
  0
LINE
  8
0
 10
30.1341
 20
861.631
 11
30.4001
 21
861.597
  0
LINE
  8
0
 10
30.4001
 20
861.597
 11
30.6598
 21
861.531
  0
LINE
  8
0
 10
30.6598
 20
861.531
 11
30.9091
 21
861.432
  0
LINE
  8
0
 10
30.9091
 20
861.432
 11
31.1441
 21
861.303
  0
LINE
  8
0
 10
31.1441
 20
861.303
 11
31.3611
 21
861.145
  0
LINE
  8
0
 10
31.3611
 20
861.145
 11
31.5565
 21
860.962
  0
LINE
  8
0
 10
31.5565
 20
860.962
 11
31.7275
 21
860.755
  0
LINE
  8
0
 10
31.7275
 20
860.755
 11
31.8712
 21
860.529
  0
LINE
  8
0
 10
31.8712
 20
860.529
 11
31.9853
 21
860.286
  0
LINE
  8
0
 10
31.9853
 20
860.286
 11
32.0682
 21
860.031
  0
LINE
  8
0
 10
32.0682
 20
860.031
 11
32.1185
 21
859.768
  0
LINE
  8
0
 10
32.1185
 20
859.768
 11
32.1353
 21
859.5
  0
LINE
  8
0
 10
32.1353
 20
859.5
 11
32.1185
 21
859.232
  0
LINE
  8
0
 10
32.1185
 20
859.232
 11
32.0682
 21
858.969
  0
LINE
  8
0
 10
32.0682
 20
858.969
 11
31.9853
 21
858.714
  0
LINE
  8
0
 10
31.9853
 20
858.714
 11
31.8712
 21
858.471
  0
LINE
  8
0
 10
31.8712
 20
858.471
 11
31.7275
 21
858.245
  0
LINE
  8
0
 10
31.7275
 20
858.245
 11
31.5565
 21
858.038
  0
LINE
  8
0
 10
31.5565
 20
858.038
 11
31.3611
 21
857.855
  0
LINE
  8
0
 10
31.3611
 20
857.855
 11
31.1441
 21
857.697
  0
LINE
  8
0
 10
31.1441
 20
857.697
 11
30.9091
 21
857.568
  0
LINE
  8
0
 10
30.9091
 20
857.568
 11
30.6598
 21
857.469
  0
LINE
  8
0
 10
30.6598
 20
857.469
 11
30.4001
 21
857.403
  0
LINE
  8
0
 10
30.4001
 20
857.403
 11
30.1341
 21
857.369
  0
LINE
  8
0
 10
30.1341
 20
857.369
 11
29.8659
 21
857.369
  0
LINE
  8
0
 10
-30.1341
 20
857.369
 11
-30.4001
 21
857.403
  0
LINE
  8
0
 10
-30.4001
 20
857.403
 11
-30.6598
 21
857.469
  0
LINE
  8
0
 10
-30.6598
 20
857.469
 11
-30.9091
 21
857.568
  0
LINE
  8
0
 10
-30.9091
 20
857.568
 11
-31.1441
 21
857.697
  0
LINE
  8
0
 10
-31.1441
 20
857.697
 11
-31.3611
 21
857.855
  0
LINE
  8
0
 10
-31.3611
 20
857.855
 11
-31.5565
 21
858.038
  0
LINE
  8
0
 10
-31.5565
 20
858.038
 11
-31.7275
 21
858.245
  0
LINE
  8
0
 10
-31.7275
 20
858.245
 11
-31.8712
 21
858.471
  0
LINE
  8
0
 10
-31.8712
 20
858.471
 11
-31.9853
 21
858.714
  0
LINE
  8
0
 10
-31.9853
 20
858.714
 11
-32.0682
 21
858.969
  0
LINE
  8
0
 10
-32.0682
 20
858.969
 11
-32.1185
 21
859.232
  0
LINE
  8
0
 10
-32.1185
 20
859.232
 11
-32.1353
 21
859.5
  0
LINE
  8
0
 10
-32.1353
 20
859.5
 11
-32.1185
 21
859.768
  0
LINE
  8
0
 10
-32.1185
 20
859.768
 11
-32.0682
 21
860.031
  0
LINE
  8
0
 10
-32.0682
 20
860.031
 11
-31.9853
 21
860.286
  0
LINE
  8
0
 10
-31.9853
 20
860.286
 11
-31.8712
 21
860.529
  0
LINE
  8
0
 10
-31.8712
 20
860.529
 11
-31.7275
 21
860.755
  0
LINE
  8
0
 10
-31.7275
 20
860.755
 11
-31.5565
 21
860.962
  0
LINE
  8
0
 10
-31.5565
 20
860.962
 11
-31.3611
 21
861.145
  0
LINE
  8
0
 10
-31.3611
 20
861.145
 11
-31.1441
 21
861.303
  0
LINE
  8
0
 10
-31.1441
 20
861.303
 11
-30.9091
 21
861.432
  0
LINE
  8
0
 10
-30.9091
 20
861.432
 11
-30.6598
 21
861.531
  0
LINE
  8
0
 10
-30.6598
 20
861.531
 11
-30.4001
 21
861.597
  0
LINE
  8
0
 10
-30.4001
 20
861.597
 11
-30.1341
 21
861.631
  0
LINE
  8
0
 10
-30.1341
 20
861.631
 11
-29.8659
 21
861.631
  0
LINE
  8
0
 10
-29.8659
 20
861.631
 11
-29.5999
 21
861.597
  0
LINE
  8
0
 10
-29.5999
 20
861.597
 11
-29.3401
 21
861.531
  0
LINE
  8
0
 10
-29.3401
 20
861.531
 11
-29.0908
 21
861.432
  0
LINE
  8
0
 10
-29.0908
 20
861.432
 11
-28.8559
 21
861.303
  0
LINE
  8
0
 10
-28.8559
 20
861.303
 11
-28.6389
 21
861.145
  0
LINE
  8
0
 10
-28.6389
 20
861.145
 11
-28.4434
 21
860.962
  0
LINE
  8
0
 10
-28.4434
 20
860.962
 11
-28.2725
 21
860.755
  0
LINE
  8
0
 10
-28.2725
 20
860.755
 11
-28.1288
 21
860.529
  0
LINE
  8
0
 10
-28.1288
 20
860.529
 11
-28.0146
 21
860.286
  0
LINE
  8
0
 10
-28.0146
 20
860.286
 11
-27.9318
 21
860.031
  0
LINE
  8
0
 10
-27.9318
 20
860.031
 11
-27.8815
 21
859.768
  0
LINE
  8
0
 10
-27.8815
 20
859.768
 11
-27.8647
 21
859.5
  0
LINE
  8
0
 10
-27.8647
 20
859.5
 11
-27.8815
 21
859.232
  0
LINE
  8
0
 10
-27.8815
 20
859.232
 11
-27.9318
 21
858.969
  0
LINE
  8
0
 10
-27.9318
 20
858.969
 11
-28.0146
 21
858.714
  0
LINE
  8
0
 10
-28.0146
 20
858.714
 11
-28.1288
 21
858.471
  0
LINE
  8
0
 10
-28.1288
 20
858.471
 11
-28.2725
 21
858.245
  0
LINE
  8
0
 10
-28.2725
 20
858.245
 11
-28.4434
 21
858.038
  0
LINE
  8
0
 10
-28.4434
 20
858.038
 11
-28.6389
 21
857.855
  0
LINE
  8
0
 10
-28.6389
 20
857.855
 11
-28.8559
 21
857.697
  0
LINE
  8
0
 10
-28.8559
 20
857.697
 11
-29.0908
 21
857.568
  0
LINE
  8
0
 10
-29.0908
 20
857.568
 11
-29.3401
 21
857.469
  0
LINE
  8
0
 10
-29.3401
 20
857.469
 11
-29.5999
 21
857.403
  0
LINE
  8
0
 10
-29.5999
 20
857.403
 11
-29.8659
 21
857.369
  0
LINE
  8
0
 10
-29.8659
 20
857.369
 11
-30.1341
 21
857.369
  0
LINE
  8
0
 10
29.8659
 20
632.369
 11
29.5999
 21
632.403
  0
LINE
  8
0
 10
29.5999
 20
632.403
 11
29.3401
 21
632.469
  0
LINE
  8
0
 10
29.3401
 20
632.469
 11
29.0908
 21
632.568
  0
LINE
  8
0
 10
29.0908
 20
632.568
 11
28.8559
 21
632.697
  0
LINE
  8
0
 10
28.8559
 20
632.697
 11
28.6389
 21
632.855
  0
LINE
  8
0
 10
28.6389
 20
632.855
 11
28.4434
 21
633.038
  0
LINE
  8
0
 10
28.4434
 20
633.038
 11
28.2725
 21
633.245
  0
LINE
  8
0
 10
28.2725
 20
633.245
 11
28.1288
 21
633.471
  0
LINE
  8
0
 10
28.1288
 20
633.471
 11
28.0146
 21
633.714
  0
LINE
  8
0
 10
28.0146
 20
633.714
 11
27.9318
 21
633.969
  0
LINE
  8
0
 10
27.9318
 20
633.969
 11
27.8815
 21
634.232
  0
LINE
  8
0
 10
27.8815
 20
634.232
 11
27.8647
 21
634.5
  0
LINE
  8
0
 10
27.8647
 20
634.5
 11
27.8815
 21
634.768
  0
LINE
  8
0
 10
27.8815
 20
634.768
 11
27.9318
 21
635.031
  0
LINE
  8
0
 10
27.9318
 20
635.031
 11
28.0146
 21
635.286
  0
LINE
  8
0
 10
28.0146
 20
635.286
 11
28.1288
 21
635.529
  0
LINE
  8
0
 10
28.1288
 20
635.529
 11
28.2725
 21
635.755
  0
LINE
  8
0
 10
28.2725
 20
635.755
 11
28.4434
 21
635.962
  0
LINE
  8
0
 10
28.4434
 20
635.962
 11
28.6389
 21
636.145
  0
LINE
  8
0
 10
28.6389
 20
636.145
 11
28.8559
 21
636.303
  0
LINE
  8
0
 10
28.8559
 20
636.303
 11
29.0908
 21
636.432
  0
LINE
  8
0
 10
29.0908
 20
636.432
 11
29.3401
 21
636.531
  0
LINE
  8
0
 10
29.3401
 20
636.531
 11
29.5999
 21
636.597
  0
LINE
  8
0
 10
29.5999
 20
636.597
 11
29.8659
 21
636.631
  0
LINE
  8
0
 10
29.8659
 20
636.631
 11
30.1341
 21
636.631
  0
LINE
  8
0
 10
30.1341
 20
636.631
 11
30.4001
 21
636.597
  0
LINE
  8
0
 10
30.4001
 20
636.597
 11
30.6598
 21
636.531
  0
LINE
  8
0
 10
30.6598
 20
636.531
 11
30.9091
 21
636.432
  0
LINE
  8
0
 10
30.9091
 20
636.432
 11
31.1441
 21
636.303
  0
LINE
  8
0
 10
31.1441
 20
636.303
 11
31.3611
 21
636.145
  0
LINE
  8
0
 10
31.3611
 20
636.145
 11
31.5565
 21
635.962
  0
LINE
  8
0
 10
31.5565
 20
635.962
 11
31.7275
 21
635.755
  0
LINE
  8
0
 10
31.7275
 20
635.755
 11
31.8712
 21
635.529
  0
LINE
  8
0
 10
31.8712
 20
635.529
 11
31.9853
 21
635.286
  0
LINE
  8
0
 10
31.9853
 20
635.286
 11
32.0682
 21
635.031
  0
LINE
  8
0
 10
32.0682
 20
635.031
 11
32.1185
 21
634.768
  0
LINE
  8
0
 10
32.1185
 20
634.768
 11
32.1353
 21
634.5
  0
LINE
  8
0
 10
32.1353
 20
634.5
 11
32.1185
 21
634.232
  0
LINE
  8
0
 10
32.1185
 20
634.232
 11
32.0682
 21
633.969
  0
LINE
  8
0
 10
32.0682
 20
633.969
 11
31.9853
 21
633.714
  0
LINE
  8
0
 10
31.9853
 20
633.714
 11
31.8712
 21
633.471
  0
LINE
  8
0
 10
31.8712
 20
633.471
 11
31.7275
 21
633.245
  0
LINE
  8
0
 10
31.7275
 20
633.245
 11
31.5565
 21
633.038
  0
LINE
  8
0
 10
31.5565
 20
633.038
 11
31.3611
 21
632.855
  0
LINE
  8
0
 10
31.3611
 20
632.855
 11
31.1441
 21
632.697
  0
LINE
  8
0
 10
31.1441
 20
632.697
 11
30.9091
 21
632.568
  0
LINE
  8
0
 10
30.9091
 20
632.568
 11
30.6598
 21
632.469
  0
LINE
  8
0
 10
30.6598
 20
632.469
 11
30.4001
 21
632.403
  0
LINE
  8
0
 10
30.4001
 20
632.403
 11
30.1341
 21
632.369
  0
LINE
  8
0
 10
30.1341
 20
632.369
 11
29.8659
 21
632.369
  0
LINE
  8
0
 10
-30.1341
 20
632.369
 11
-30.4001
 21
632.403
  0
LINE
  8
0
 10
-30.4001
 20
632.403
 11
-30.6598
 21
632.469
  0
LINE
  8
0
 10
-30.6598
 20
632.469
 11
-30.9091
 21
632.568
  0
LINE
  8
0
 10
-30.9091
 20
632.568
 11
-31.1441
 21
632.697
  0
LINE
  8
0
 10
-31.1441
 20
632.697
 11
-31.3611
 21
632.855
  0
LINE
  8
0
 10
-31.3611
 20
632.855
 11
-31.5565
 21
633.038
  0
LINE
  8
0
 10
-31.5565
 20
633.038
 11
-31.7275
 21
633.245
  0
LINE
  8
0
 10
-31.7275
 20
633.245
 11
-31.8712
 21
633.471
  0
LINE
  8
0
 10
-31.8712
 20
633.471
 11
-31.9853
 21
633.714
  0
LINE
  8
0
 10
-31.9853
 20
633.714
 11
-32.0682
 21
633.969
  0
LINE
  8
0
 10
-32.0682
 20
633.969
 11
-32.1185
 21
634.232
  0
LINE
  8
0
 10
-32.1185
 20
634.232
 11
-32.1353
 21
634.5
  0
LINE
  8
0
 10
-32.1353
 20
634.5
 11
-32.1185
 21
634.768
  0
LINE
  8
0
 10
-32.1185
 20
634.768
 11
-32.0682
 21
635.031
  0
LINE
  8
0
 10
-32.0682
 20
635.031
 11
-31.9853
 21
635.286
  0
LINE
  8
0
 10
-31.9853
 20
635.286
 11
-31.8712
 21
635.529
  0
LINE
  8
0
 10
-31.8712
 20
635.529
 11
-31.7275
 21
635.755
  0
LINE
  8
0
 10
-31.7275
 20
635.755
 11
-31.5565
 21
635.962
  0
LINE
  8
0
 10
-31.5565
 20
635.962
 11
-31.3611
 21
636.145
  0
LINE
  8
0
 10
-31.3611
 20
636.145
 11
-31.1441
 21
636.303
  0
LINE
  8
0
 10
-31.1441
 20
636.303
 11
-30.9091
 21
636.432
  0
LINE
  8
0
 10
-30.9091
 20
636.432
 11
-30.6598
 21
636.531
  0
LINE
  8
0
 10
-30.6598
 20
636.531
 11
-30.4001
 21
636.597
  0
LINE
  8
0
 10
-30.4001
 20
636.597
 11
-30.1341
 21
636.631
  0
LINE
  8
0
 10
-30.1341
 20
636.631
 11
-29.8659
 21
636.631
  0
LINE
  8
0
 10
-29.8659
 20
636.631
 11
-29.5999
 21
636.597
  0
LINE
  8
0
 10
-29.5999
 20
636.597
 11
-29.3401
 21
636.531
  0
LINE
  8
0
 10
-29.3401
 20
636.531
 11
-29.0908
 21
636.432
  0
LINE
  8
0
 10
-29.0908
 20
636.432
 11
-28.8559
 21
636.303
  0
LINE
  8
0
 10
-28.8559
 20
636.303
 11
-28.6389
 21
636.145
  0
LINE
  8
0
 10
-28.6389
 20
636.145
 11
-28.4434
 21
635.962
  0
LINE
  8
0
 10
-28.4434
 20
635.962
 11
-28.2725
 21
635.755
  0
LINE
  8
0
 10
-28.2725
 20
635.755
 11
-28.1288
 21
635.529
  0
LINE
  8
0
 10
-28.1288
 20
635.529
 11
-28.0146
 21
635.286
  0
LINE
  8
0
 10
-28.0146
 20
635.286
 11
-27.9318
 21
635.031
  0
LINE
  8
0
 10
-27.9318
 20
635.031
 11
-27.8815
 21
634.768
  0
LINE
  8
0
 10
-27.8815
 20
634.768
 11
-27.8647
 21
634.5
  0
LINE
  8
0
 10
-27.8647
 20
634.5
 11
-27.8815
 21
634.232
  0
LINE
  8
0
 10
-27.8815
 20
634.232
 11
-27.9318
 21
633.969
  0
LINE
  8
0
 10
-27.9318
 20
633.969
 11
-28.0146
 21
633.714
  0
LINE
  8
0
 10
-28.0146
 20
633.714
 11
-28.1288
 21
633.471
  0
LINE
  8
0
 10
-28.1288
 20
633.471
 11
-28.2725
 21
633.245
  0
LINE
  8
0
 10
-28.2725
 20
633.245
 11
-28.4434
 21
633.038
  0
LINE
  8
0
 10
-28.4434
 20
633.038
 11
-28.6389
 21
632.855
  0
LINE
  8
0
 10
-28.6389
 20
632.855
 11
-28.8559
 21
632.697
  0
LINE
  8
0
 10
-28.8559
 20
632.697
 11
-29.0908
 21
632.568
  0
LINE
  8
0
 10
-29.0908
 20
632.568
 11
-29.3401
 21
632.469
  0
LINE
  8
0
 10
-29.3401
 20
632.469
 11
-29.5999
 21
632.403
  0
LINE
  8
0
 10
-29.5999
 20
632.403
 11
-29.8659
 21
632.369
  0
LINE
  8
0
 10
-29.8659
 20
632.369
 11
-30.1341
 21
632.369
  0
ENDSEC
  0
SECTION
  2
OBJECTS
  0
DICTIONARY
  0
ENDSEC
  0
EOF
