<?xml version="1.0" standalone="no"?>
<!DOCTYPE svg PUBLIC "-//W3C//DTD SVG 1.1//EN" "http://www.w3.org/Graphics/SVG/1.1/DTD/svg11.dtd">
<svg width="30mm" height="1012mm" viewBox="-15 -1730 30 1012" xmlns="http://www.w3.org/2000/svg" version="1.1">
<title>OpenSCAD Model</title>
<path d="
M 10.9369,-1534.59 L 11.5451,-1534.74 L 12.1289,-1534.98 L 12.6791,-1535.28 L 13.1871,-1535.65 L 13.6448,-1536.08
 L 14.0451,-1536.56 L 14.3815,-1537.09 L 14.6489,-1537.66 L 14.8429,-1538.26 L 14.9606,-1538.87 L 15,-1539.5
 L 15,-1724.5 L 14.9606,-1725.13 L 14.8429,-1725.74 L 14.6489,-1726.34 L 14.3815,-1726.91 L 14.0451,-1727.44
 L 13.6448,-1727.92 L 13.1871,-1728.35 L 12.6791,-1728.72 L 12.1289,-1729.02 L 11.5451,-1729.26 L 10.9369,-1729.41
 L 10.3139,-1729.49 L -10.3139,-1729.49 L -10.9369,-1729.41 L -11.5451,-1729.26 L -12.1289,-1729.02 L -12.6791,-1728.72
 L -13.1871,-1728.35 L -13.6448,-1727.92 L -14.0451,-1727.44 L -14.3815,-1726.91 L -14.6489,-1726.34 L -14.8429,-1725.74
 L -14.9,-1725.44 L -15,-1725.44 L -15,-1538.56 L -14.9,-1538.56 L -14.8429,-1538.26 L -14.6489,-1537.66
 L -14.3815,-1537.09 L -14.0451,-1536.56 L -13.6448,-1536.08 L -13.1871,-1535.65 L -12.6791,-1535.28 L -12.1289,-1534.98
 L -11.5451,-1534.74 L -10.9369,-1534.59 L -10.3139,-1534.51 L 10.3139,-1534.51 z
M -9.75116,-1536.01 L -10.2495,-1536.07 L -10.7361,-1536.2 L -11.2031,-1536.38 L -11.6433,-1536.62 L -12.0497,-1536.92
 L -12.4159,-1537.26 L -12.7361,-1537.65 L -13.0052,-1538.07 L -13.2191,-1538.53 L -13.3743,-1539.01 L -13.4684,-1539.5
 L -13.5,-1540 L -13.5,-1724 L -13.4684,-1724.5 L -13.3743,-1724.99 L -13.2191,-1725.47 L -13.0052,-1725.93
 L -12.7361,-1726.35 L -12.4159,-1726.74 L -12.0497,-1727.08 L -11.6433,-1727.38 L -11.2031,-1727.62 L -10.7361,-1727.8
 L -10.2495,-1727.93 L -9.75116,-1727.99 L 9.75116,-1727.99 L 10.2495,-1727.93 L 10.7361,-1727.8 L 11.2031,-1727.62
 L 11.6433,-1727.38 L 12.0497,-1727.08 L 12.4159,-1726.74 L 12.7361,-1726.35 L 13.0052,-1725.93 L 13.2191,-1725.47
 L 13.3743,-1724.99 L 13.4684,-1724.5 L 13.5,-1724 L 13.5,-1540 L 13.4684,-1539.5 L 13.3743,-1539.01
 L 13.2191,-1538.53 L 13.0052,-1538.07 L 12.7361,-1537.65 L 12.4159,-1537.26 L 12.0497,-1536.92 L 11.6433,-1536.62
 L 11.2031,-1536.38 L 10.7361,-1536.2 L 10.2495,-1536.07 L 9.75116,-1536.01 z
M 10.9369,-1330.59 L 11.5451,-1330.74 L 12.1289,-1330.98 L 12.6791,-1331.28 L 13.1871,-1331.65 L 13.6448,-1332.08
 L 14.0451,-1332.56 L 14.3815,-1333.09 L 14.6489,-1333.66 L 14.8429,-1334.26 L 14.9606,-1334.87 L 15,-1335.5
 L 15,-1520.5 L 14.9606,-1521.13 L 14.8429,-1521.74 L 14.6489,-1522.34 L 14.3815,-1522.91 L 14.0451,-1523.44
 L 13.6448,-1523.92 L 13.1871,-1524.35 L 12.6791,-1524.72 L 12.1289,-1525.02 L 11.5451,-1525.26 L 10.9369,-1525.41
 L 10.3139,-1525.49 L -10.3139,-1525.49 L -10.9369,-1525.41 L -11.5451,-1525.26 L -12.1289,-1525.02 L -12.6791,-1524.72
 L -13.1871,-1524.35 L -13.6448,-1523.92 L -14.0451,-1523.44 L -14.3815,-1522.91 L -14.6489,-1522.34 L -14.8429,-1521.74
 L -14.9606,-1521.13 L -15,-1520.5 L -15,-1335.5 L -14.9606,-1334.87 L -14.8429,-1334.26 L -14.6489,-1333.66
 L -14.3815,-1333.09 L -14.0451,-1332.56 L -13.6448,-1332.08 L -13.1871,-1331.65 L -12.6791,-1331.28 L -12.1289,-1330.98
 L -11.5451,-1330.74 L -10.9369,-1330.59 L -10.3139,-1330.51 L 10.3139,-1330.51 z
M -9.75116,-1332.01 L -10.2495,-1332.07 L -10.7361,-1332.2 L -11.2031,-1332.38 L -11.6433,-1332.62 L -12.0497,-1332.92
 L -12.4159,-1333.26 L -12.7361,-1333.65 L -13.0052,-1334.07 L -13.2191,-1334.53 L -13.3743,-1335.01 L -13.4684,-1335.5
 L -13.5,-1336 L -13.5,-1520 L -13.4684,-1520.5 L -13.3743,-1520.99 L -13.2191,-1521.47 L -13.0052,-1521.93
 L -12.7361,-1522.35 L -12.4159,-1522.74 L -12.0497,-1523.08 L -11.6433,-1523.38 L -11.2031,-1523.62 L -10.7361,-1523.8
 L -10.2495,-1523.93 L -9.75116,-1523.99 L 9.75116,-1523.99 L 10.2495,-1523.93 L 10.7361,-1523.8 L 11.2031,-1523.62
 L 11.6433,-1523.38 L 12.0497,-1523.08 L 12.4159,-1522.74 L 12.7361,-1522.35 L 13.0052,-1521.93 L 13.2191,-1521.47
 L 13.3743,-1520.99 L 13.4684,-1520.5 L 13.5,-1520 L 13.5,-1336 L 13.4684,-1335.5 L 13.3743,-1335.01
 L 13.2191,-1334.53 L 13.0052,-1334.07 L 12.7361,-1333.65 L 12.4159,-1333.26 L 12.0497,-1332.92 L 11.6433,-1332.62
 L 11.2031,-1332.38 L 10.7361,-1332.2 L 10.2495,-1332.07 L 9.75116,-1332.01 z
M 10.9369,-1126.59 L 11.5451,-1126.74 L 12.1289,-1126.98 L 12.6791,-1127.28 L 13.1871,-1127.65 L 13.6448,-1128.08
 L 14.0451,-1128.56 L 14.3815,-1129.09 L 14.6489,-1129.66 L 14.8429,-1130.26 L 14.9606,-1130.87 L 15,-1131.5
 L 15,-1316.5 L 14.9606,-1317.13 L 14.8429,-1317.74 L 14.6489,-1318.34 L 14.3815,-1318.91 L 14.0451,-1319.44
 L 13.6448,-1319.92 L 13.1871,-1320.35 L 12.6791,-1320.72 L 12.1289,-1321.02 L 11.5451,-1321.26 L 10.9369,-1321.41
 L 10.3139,-1321.49 L -10.3139,-1321.49 L -10.9369,-1321.41 L -11.5451,-1321.26 L -12.1289,-1321.02 L -12.6791,-1320.72
 L -13.1871,-1320.35 L -13.6448,-1319.92 L -14.0451,-1319.44 L -14.3815,-1318.91 L -14.6489,-1318.34 L -14.8429,-1317.74
 L -14.9606,-1317.13 L -15,-1316.5 L -15,-1131.5 L -14.9606,-1130.87 L -14.8429,-1130.26 L -14.6489,-1129.66
 L -14.3815,-1129.09 L -14.0451,-1128.56 L -13.6448,-1128.08 L -13.1871,-1127.65 L -12.6791,-1127.28 L -12.1289,-1126.98
 L -11.5451,-1126.74 L -10.9369,-1126.59 L -10.3139,-1126.51 L 10.3139,-1126.51 z
M -9.74316,-1128.14 L -10.2256,-1128.2 L -10.6967,-1128.32 L -11.1489,-1128.5 L -11.5751,-1128.73 L -11.9685,-1129.02
 L -12.323,-1129.35 L -12.633,-1129.72 L -12.8936,-1130.13 L -13.1007,-1130.57 L -13.251,-1131.04 L -13.3421,-1131.51
 L -13.3726,-1132 L -13.3726,-1316 L -13.3421,-1316.49 L -13.251,-1316.96 L -13.1007,-1317.43 L -12.8936,-1317.87
 L -12.633,-1318.28 L -12.323,-1318.65 L -11.9685,-1318.98 L -11.5751,-1319.27 L -11.1489,-1319.5 L -10.6967,-1319.68
 L -10.2256,-1319.8 L -9.74316,-1319.86 L 9.74316,-1319.86 L 10.2256,-1319.8 L 10.6967,-1319.68 L 11.1489,-1319.5
 L 11.5751,-1319.27 L 11.9685,-1318.98 L 12.323,-1318.65 L 12.633,-1318.28 L 12.8936,-1317.87 L 13.1007,-1317.43
 L 13.251,-1316.96 L 13.3421,-1316.49 L 13.3726,-1316 L 13.3726,-1132 L 13.3421,-1131.51 L 13.251,-1131.04
 L 13.1007,-1130.57 L 12.8936,-1130.13 L 12.633,-1129.72 L 12.323,-1129.35 L 11.9685,-1129.02 L 11.5751,-1128.73
 L 11.1489,-1128.5 L 10.6967,-1128.32 L 10.2256,-1128.2 L 9.74316,-1128.14 z
M 10.9369,-922.589 L 11.5451,-922.745 L 12.1289,-922.976 L 12.6791,-923.278 L 13.1871,-923.647 L 13.6448,-924.077
 L 14.0451,-924.561 L 14.3815,-925.091 L 14.6489,-925.659 L 14.8429,-926.257 L 14.9606,-926.873 L 15,-927.5
 L 15,-1112.5 L 14.9606,-1113.13 L 14.8429,-1113.74 L 14.6489,-1114.34 L 14.3815,-1114.91 L 14.0451,-1115.44
 L 13.6448,-1115.92 L 13.1871,-1116.35 L 12.6791,-1116.72 L 12.1289,-1117.02 L 11.5451,-1117.26 L 10.9369,-1117.41
 L 10.3139,-1117.49 L -10.3139,-1117.49 L -10.9369,-1117.41 L -11.5451,-1117.26 L -12.1289,-1117.02 L -12.6791,-1116.72
 L -13.1871,-1116.35 L -13.6448,-1115.92 L -14.0451,-1115.44 L -14.3815,-1114.91 L -14.6489,-1114.34 L -14.8429,-1113.74
 L -14.9606,-1113.13 L -15,-1112.5 L -15,-927.5 L -14.9606,-926.873 L -14.8429,-926.257 L -14.6489,-925.659
 L -14.3815,-925.091 L -14.0451,-924.561 L -13.6448,-924.077 L -13.1871,-923.647 L -12.6791,-923.278 L -12.1289,-922.976
 L -11.5451,-922.745 L -10.9369,-922.589 L -10.3139,-922.51 L 10.3139,-922.51 z
M 7.34929,-1107.6 L 7.05028,-1107.64 L 6.75835,-1107.72 L 6.47812,-1107.83 L 6.214,-1107.97 L 5.97017,-1108.15
 L 5.75047,-1108.36 L 5.55835,-1108.59 L 5.39685,-1108.84 L 5.26852,-1109.12 L 5.1754,-1109.4 L 5.11891,-1109.7
 L 5.09999,-1110 L 5.11891,-1110.3 L 5.1754,-1110.6 L 5.26852,-1110.88 L 5.39685,-1111.16 L 5.55835,-1111.41
 L 5.75047,-1111.64 L 5.97017,-1111.85 L 6.214,-1112.03 L 6.47812,-1112.17 L 6.75835,-1112.28 L 7.05028,-1112.36
 L 7.34929,-1112.4 L 7.6507,-1112.4 L 7.94971,-1112.36 L 8.24164,-1112.28 L 8.52187,-1112.17 L 8.78598,-1112.03
 L 9.02982,-1111.85 L 9.24951,-1111.64 L 9.44164,-1111.41 L 9.60313,-1111.16 L 9.73146,-1110.88 L 9.82458,-1110.6
 L 9.88107,-1110.3 L 9.89999,-1110 L 9.88107,-1109.7 L 9.82458,-1109.4 L 9.73146,-1109.12 L 9.60313,-1108.84
 L 9.44164,-1108.59 L 9.24951,-1108.36 L 9.02982,-1108.15 L 8.78598,-1107.97 L 8.52187,-1107.83 L 8.24164,-1107.72
 L 7.94971,-1107.64 L 7.6507,-1107.6 z
M -7.6507,-1107.6 L -7.94971,-1107.64 L -8.24164,-1107.72 L -8.52187,-1107.83 L -8.78598,-1107.97 L -9.02982,-1108.15
 L -9.24951,-1108.36 L -9.44164,-1108.59 L -9.60313,-1108.84 L -9.73146,-1109.12 L -9.82458,-1109.4 L -9.88107,-1109.7
 L -9.89999,-1110 L -9.88107,-1110.3 L -9.82458,-1110.6 L -9.73146,-1110.88 L -9.60313,-1111.16 L -9.44164,-1111.41
 L -9.24951,-1111.64 L -9.02982,-1111.85 L -8.78598,-1112.03 L -8.52187,-1112.17 L -8.24164,-1112.28 L -7.94971,-1112.36
 L -7.6507,-1112.4 L -7.34929,-1112.4 L -7.05028,-1112.36 L -6.75835,-1112.28 L -6.47812,-1112.17 L -6.214,-1112.03
 L -5.97017,-1111.85 L -5.75047,-1111.64 L -5.55835,-1111.41 L -5.39685,-1111.16 L -5.26852,-1110.88 L -5.1754,-1110.6
 L -5.11891,-1110.3 L -5.09999,-1110 L -5.11891,-1109.7 L -5.1754,-1109.4 L -5.26852,-1109.12 L -5.39685,-1108.84
 L -5.55835,-1108.59 L -5.75047,-1108.36 L -5.97017,-1108.15 L -6.214,-1107.97 L -6.47812,-1107.83 L -6.75835,-1107.72
 L -7.05028,-1107.64 L -7.34929,-1107.6 z
M 7.34929,-927.605 L 7.05028,-927.643 L 6.75835,-927.717 L 6.47812,-927.828 L 6.214,-927.974 L 5.97017,-928.151
 L 5.75047,-928.357 L 5.55835,-928.589 L 5.39685,-928.844 L 5.26852,-929.117 L 5.1754,-929.403 L 5.11891,-929.699
 L 5.09999,-930 L 5.11891,-930.301 L 5.1754,-930.597 L 5.26852,-930.883 L 5.39685,-931.156 L 5.55835,-931.411
 L 5.75047,-931.643 L 5.97017,-931.849 L 6.214,-932.026 L 6.47812,-932.172 L 6.75835,-932.283 L 7.05028,-932.357
 L 7.34929,-932.395 L 7.6507,-932.395 L 7.94971,-932.357 L 8.24164,-932.283 L 8.52187,-932.172 L 8.78598,-932.026
 L 9.02982,-931.849 L 9.24951,-931.643 L 9.44164,-931.411 L 9.60313,-931.156 L 9.73146,-930.883 L 9.82458,-930.597
 L 9.88107,-930.301 L 9.89999,-930 L 9.88107,-929.699 L 9.82458,-929.403 L 9.73146,-929.117 L 9.60313,-928.844
 L 9.44164,-928.589 L 9.24951,-928.357 L 9.02982,-928.151 L 8.78598,-927.974 L 8.52187,-927.828 L 8.24164,-927.717
 L 7.94971,-927.643 L 7.6507,-927.605 z
M -7.6507,-927.605 L -7.94971,-927.643 L -8.24164,-927.717 L -8.52187,-927.828 L -8.78598,-927.974 L -9.02982,-928.151
 L -9.24951,-928.357 L -9.44164,-928.589 L -9.60313,-928.844 L -9.73146,-929.117 L -9.82458,-929.403 L -9.88107,-929.699
 L -9.89999,-930 L -9.88107,-930.301 L -9.82458,-930.597 L -9.73146,-930.883 L -9.60313,-931.156 L -9.44164,-931.411
 L -9.24951,-931.643 L -9.02982,-931.849 L -8.78598,-932.026 L -8.52187,-932.172 L -8.24164,-932.283 L -7.94971,-932.357
 L -7.6507,-932.395 L -7.34929,-932.395 L -7.05028,-932.357 L -6.75835,-932.283 L -6.47812,-932.172 L -6.214,-932.026
 L -5.97017,-931.849 L -5.75047,-931.643 L -5.55835,-931.411 L -5.39685,-931.156 L -5.26852,-930.883 L -5.1754,-930.597
 L -5.11891,-930.301 L -5.09999,-930 L -5.11891,-929.699 L -5.1754,-929.403 L -5.26852,-929.117 L -5.39685,-928.844
 L -5.55835,-928.589 L -5.75047,-928.357 L -5.97017,-928.151 L -6.214,-927.974 L -6.47812,-927.828 L -6.75835,-927.717
 L -7.05028,-927.643 L -7.34929,-927.605 z
M 10.9369,-718.589 L 11.5451,-718.745 L 12.1289,-718.976 L 12.6791,-719.278 L 13.1871,-719.647 L 13.6448,-720.077
 L 14.0451,-720.561 L 14.3815,-721.091 L 14.6489,-721.659 L 14.8429,-722.257 L 14.9606,-722.873 L 15,-723.5
 L 15,-908.5 L 14.9606,-909.127 L 14.8429,-909.743 L 14.6489,-910.341 L 14.3815,-910.909 L 14.0451,-911.439
 L 13.6448,-911.923 L 13.1871,-912.353 L 12.6791,-912.722 L 12.1289,-913.024 L 11.5451,-913.255 L 10.9369,-913.411
 L 10.3139,-913.49 L -10.3139,-913.49 L -10.9369,-913.411 L -11.5451,-913.255 L -12.1289,-913.024 L -12.6791,-912.722
 L -13.1871,-912.353 L -13.6448,-911.923 L -14.0451,-911.439 L -14.3815,-910.909 L -14.6489,-910.341 L -14.8429,-909.743
 L -14.9606,-909.127 L -15,-908.5 L -15,-723.5 L -14.9606,-722.873 L -14.8429,-722.257 L -14.6489,-721.659
 L -14.3815,-721.091 L -14.0451,-720.561 L -13.6448,-720.077 L -13.1871,-719.647 L -12.6791,-719.278 L -12.1289,-718.976
 L -11.5451,-718.745 L -10.9369,-718.589 L -10.3139,-718.51 L 10.3139,-718.51 z
M 7.38696,-904.204 L 7.1627,-904.232 L 6.94376,-904.288 L 6.7336,-904.371 L 6.53551,-904.48 L 6.35263,-904.613
 L 6.18785,-904.768 L 6.04376,-904.942 L 5.92264,-905.133 L 5.8264,-905.337 L 5.75655,-905.552 L 5.71419,-905.774
 L 5.7,-906 L 5.71419,-906.226 L 5.75655,-906.448 L 5.8264,-906.663 L 5.92264,-906.867 L 6.04376,-907.058
 L 6.18785,-907.232 L 6.35263,-907.387 L 6.53551,-907.52 L 6.7336,-907.629 L 6.94376,-907.712 L 7.1627,-907.768
 L 7.38696,-907.796 L 7.61302,-907.796 L 7.83728,-907.768 L 8.05623,-907.712 L 8.26639,-907.629 L 8.46448,-907.52
 L 8.64735,-907.387 L 8.81213,-907.232 L 8.95622,-907.058 L 9.07735,-906.867 L 9.17358,-906.663 L 9.24344,-906.448
 L 9.2858,-906.226 L 9.29999,-906 L 9.2858,-905.774 L 9.24344,-905.552 L 9.17358,-905.337 L 9.07735,-905.133
 L 8.95622,-904.942 L 8.81213,-904.768 L 8.64735,-904.613 L 8.46448,-904.48 L 8.26639,-904.371 L 8.05623,-904.288
 L 7.83728,-904.232 L 7.61302,-904.204 z
M -7.61302,-904.204 L -7.83728,-904.232 L -8.05623,-904.288 L -8.26639,-904.371 L -8.46448,-904.48 L -8.64735,-904.613
 L -8.81213,-904.768 L -8.95622,-904.942 L -9.07735,-905.133 L -9.17358,-905.337 L -9.24344,-905.552 L -9.2858,-905.774
 L -9.29999,-906 L -9.2858,-906.226 L -9.24344,-906.448 L -9.17358,-906.663 L -9.07735,-906.867 L -8.95622,-907.058
 L -8.81213,-907.232 L -8.64735,-907.387 L -8.46448,-907.52 L -8.26639,-907.629 L -8.05623,-907.712 L -7.83728,-907.768
 L -7.61302,-907.796 L -7.38696,-907.796 L -7.1627,-907.768 L -6.94376,-907.712 L -6.7336,-907.629 L -6.53551,-907.52
 L -6.35263,-907.387 L -6.18785,-907.232 L -6.04376,-907.058 L -5.92264,-906.867 L -5.8264,-906.663 L -5.75655,-906.448
 L -5.71419,-906.226 L -5.7,-906 L -5.71419,-905.774 L -5.75655,-905.552 L -5.8264,-905.337 L -5.92264,-905.133
 L -6.04376,-904.942 L -6.18785,-904.768 L -6.35263,-904.613 L -6.53551,-904.48 L -6.7336,-904.371 L -6.94376,-904.288
 L -7.1627,-904.232 L -7.38696,-904.204 z
M -7.61302,-724.204 L -7.83728,-724.232 L -8.05623,-724.288 L -8.26639,-724.371 L -8.46448,-724.48 L -8.64735,-724.613
 L -8.81213,-724.768 L -8.95622,-724.942 L -9.07735,-725.133 L -9.17358,-725.337 L -9.24344,-725.552 L -9.2858,-725.774
 L -9.29999,-726 L -9.2858,-726.226 L -9.24344,-726.448 L -9.17358,-726.663 L -9.07735,-726.867 L -8.95622,-727.058
 L -8.81213,-727.232 L -8.64735,-727.387 L -8.46448,-727.52 L -8.26639,-727.629 L -8.05623,-727.712 L -7.83728,-727.768
 L -7.61302,-727.796 L -7.38696,-727.796 L -7.1627,-727.768 L -6.94376,-727.712 L -6.7336,-727.629 L -6.53551,-727.52
 L -6.35263,-727.387 L -6.18785,-727.232 L -6.04376,-727.058 L -5.92264,-726.867 L -5.8264,-726.663 L -5.75655,-726.448
 L -5.71419,-726.226 L -5.7,-726 L -5.71419,-725.774 L -5.75655,-725.552 L -5.8264,-725.337 L -5.92264,-725.133
 L -6.04376,-724.942 L -6.18785,-724.768 L -6.35263,-724.613 L -6.53551,-724.48 L -6.7336,-724.371 L -6.94376,-724.288
 L -7.1627,-724.232 L -7.38696,-724.204 z
M 7.38696,-724.204 L 7.1627,-724.232 L 6.94376,-724.288 L 6.7336,-724.371 L 6.53551,-724.48 L 6.35263,-724.613
 L 6.18785,-724.768 L 6.04376,-724.942 L 5.92264,-725.133 L 5.8264,-725.337 L 5.75655,-725.552 L 5.71419,-725.774
 L 5.7,-726 L 5.71419,-726.226 L 5.75655,-726.448 L 5.8264,-726.663 L 5.92264,-726.867 L 6.04376,-727.058
 L 6.18785,-727.232 L 6.35263,-727.387 L 6.53551,-727.52 L 6.7336,-727.629 L 6.94376,-727.712 L 7.1627,-727.768
 L 7.38696,-727.796 L 7.61302,-727.796 L 7.83728,-727.768 L 8.05623,-727.712 L 8.26639,-727.629 L 8.46448,-727.52
 L 8.64735,-727.387 L 8.81213,-727.232 L 8.95622,-727.058 L 9.07735,-726.867 L 9.17358,-726.663 L 9.24344,-726.448
 L 9.2858,-726.226 L 9.29999,-726 L 9.2858,-725.774 L 9.24344,-725.552 L 9.17358,-725.337 L 9.07735,-725.133
 L 8.95622,-724.942 L 8.81213,-724.768 L 8.64735,-724.613 L 8.46448,-724.48 L 8.26639,-724.371 L 8.05623,-724.288
 L 7.83728,-724.232 L 7.61302,-724.204 z
" stroke="black" fill="lightgray" stroke-width="0.5"/>
</svg>
