<?xml version="1.0" standalone="no"?>
<!DOCTYPE svg PUBLIC "-//W3C//DTD SVG 1.1//EN" "http://www.w3.org/Graphics/SVG/1.1/DTD/svg11.dtd">
<svg width="38mm" height="153mm" viewBox="-19 -185 38 153" xmlns="http://www.w3.org/2000/svg" version="1.1">
<title>OpenSCAD Model</title>
<path d="
M -15.75,-139.925 L -15.2951,-139.745 L -14.6869,-139.589 L -14.0639,-139.51 L 14.0639,-139.51 L 14.6869,-139.589
 L 15.2951,-139.745 L 15.8789,-139.976 L 16.4291,-140.278 L 16.9371,-140.647 L 17.3948,-141.077 L 17.7951,-141.561
 L 18.1315,-142.091 L 18.3989,-142.659 L 18.5929,-143.257 L 18.7106,-143.873 L 18.75,-144.5 L 18.75,-179.5
 L 18.7106,-180.127 L 18.5929,-180.743 L 18.3989,-181.341 L 18.1315,-181.909 L 17.7951,-182.439 L 17.3948,-182.923
 L 16.9371,-183.353 L 16.4291,-183.722 L 15.8789,-184.024 L 15.2951,-184.255 L 14.6869,-184.411 L 14.0639,-184.49
 L -14.0639,-184.49 L -14.6869,-184.411 L -15.2951,-184.255 L -15.75,-184.075 L -15.75,-184.49 L -18.75,-184.49
 L -18.75,-139.51 L -15.75,-139.51 z
M -13.4454,-141.893 L -13.8333,-141.942 L -14.2119,-142.039 L -14.5754,-142.183 L -14.918,-142.372 L -15.2342,-142.601
 L -15.5192,-142.869 L -15.7684,-143.17 L -15.9779,-143.5 L -16.1443,-143.854 L -16.2651,-144.226 L -16.3384,-144.61
 L -16.3629,-145 L -16.3629,-179 L -16.3384,-179.39 L -16.2651,-179.774 L -16.1443,-180.146 L -15.9779,-180.5
 L -15.7684,-180.83 L -15.5192,-181.131 L -15.2342,-181.399 L -14.918,-181.628 L -14.5754,-181.817 L -14.2119,-181.961
 L -13.8333,-182.058 L -13.4454,-182.107 L 13.4454,-182.107 L 13.8333,-182.058 L 14.2119,-181.961 L 14.5754,-181.817
 L 14.918,-181.628 L 15.2342,-181.399 L 15.5192,-181.131 L 15.7684,-180.83 L 15.9779,-180.5 L 16.1443,-180.146
 L 16.2651,-179.774 L 16.3384,-179.39 L 16.3629,-179 L 16.3629,-145 L 16.3384,-144.61 L 16.2651,-144.226
 L 16.1443,-143.854 L 15.9779,-143.5 L 15.7684,-143.17 L 15.5192,-142.869 L 15.2342,-142.601 L 14.918,-142.372
 L 14.5754,-142.183 L 14.2119,-142.039 L 13.8333,-141.942 L 13.4454,-141.893 z
M 14.6869,-85.5886 L 15.2951,-85.7447 L 15.8789,-85.9759 L 16.4291,-86.2784 L 16.9371,-86.6474 L 17.3948,-87.0773
 L 17.7951,-87.5611 L 18.1315,-88.0912 L 18.3989,-88.6594 L 18.5929,-89.2566 L 18.7106,-89.8733 L 18.75,-90.5
 L 18.75,-125.5 L 18.7106,-126.127 L 18.5929,-126.743 L 18.3989,-127.341 L 18.1315,-127.909 L 17.7951,-128.439
 L 17.3948,-128.923 L 16.9371,-129.353 L 16.4291,-129.722 L 15.8789,-130.024 L 15.2951,-130.255 L 14.6869,-130.411
 L 14.0639,-130.49 L -14.0639,-130.49 L -14.6869,-130.411 L -15.2951,-130.255 L -15.75,-130.075 L -15.75,-130.479
 L -18.75,-130.479 L -18.75,-85.5207 L -15.75,-85.5207 L -15.75,-85.9248 L -15.2951,-85.7447 L -14.6869,-85.5886
 L -14.0639,-85.5099 L 14.0639,-85.5099 z
M 11.1159,-120.869 L 10.8499,-120.903 L 10.5901,-120.969 L 10.3408,-121.068 L 10.1059,-121.197 L 9.8889,-121.355
 L 9.69344,-121.538 L 9.52251,-121.745 L 9.37881,-121.971 L 9.26465,-122.214 L 9.18178,-122.469 L 9.13153,-122.732
 L 9.1147,-123 L 9.13153,-123.268 L 9.18178,-123.531 L 9.26465,-123.786 L 9.37881,-124.029 L 9.52251,-124.255
 L 9.69344,-124.462 L 9.8889,-124.645 L 10.1059,-124.803 L 10.3408,-124.932 L 10.5901,-125.031 L 10.8499,-125.097
 L 11.1159,-125.131 L 11.3841,-125.131 L 11.6501,-125.097 L 11.9098,-125.031 L 12.1591,-124.932 L 12.3941,-124.803
 L 12.6111,-124.645 L 12.8065,-124.462 L 12.9775,-124.255 L 13.1212,-124.029 L 13.2353,-123.786 L 13.3182,-123.531
 L 13.3685,-123.268 L 13.3853,-123 L 13.3685,-122.732 L 13.3182,-122.469 L 13.2353,-122.214 L 13.1212,-121.971
 L 12.9775,-121.745 L 12.8065,-121.538 L 12.6111,-121.355 L 12.3941,-121.197 L 12.1591,-121.068 L 11.9098,-120.969
 L 11.6501,-120.903 L 11.3841,-120.869 z
M -11.3841,-120.869 L -11.6501,-120.903 L -11.9098,-120.969 L -12.1591,-121.068 L -12.3941,-121.197 L -12.6111,-121.355
 L -12.8065,-121.538 L -12.9775,-121.745 L -13.1212,-121.971 L -13.2353,-122.214 L -13.3182,-122.469 L -13.3685,-122.732
 L -13.3853,-123 L -13.3685,-123.268 L -13.3182,-123.531 L -13.2353,-123.786 L -13.1212,-124.029 L -12.9775,-124.255
 L -12.8065,-124.462 L -12.6111,-124.645 L -12.3941,-124.803 L -12.1591,-124.932 L -11.9098,-125.031 L -11.6501,-125.097
 L -11.3841,-125.131 L -11.1159,-125.131 L -10.8499,-125.097 L -10.5901,-125.031 L -10.3408,-124.932 L -10.1059,-124.803
 L -9.8889,-124.645 L -9.69344,-124.462 L -9.52251,-124.255 L -9.37881,-124.029 L -9.26465,-123.786 L -9.18178,-123.531
 L -9.13153,-123.268 L -9.1147,-123 L -9.13153,-122.732 L -9.18178,-122.469 L -9.26465,-122.214 L -9.37881,-121.971
 L -9.52251,-121.745 L -9.69344,-121.538 L -9.8889,-121.355 L -10.1059,-121.197 L -10.3408,-121.068 L -10.5901,-120.969
 L -10.8499,-120.903 L -11.1159,-120.869 z
M 11.1159,-90.8689 L 10.8499,-90.9025 L 10.5901,-90.9692 L 10.3408,-91.0679 L 10.1059,-91.1971 L 9.8889,-91.3547
 L 9.69344,-91.5383 L 9.52251,-91.7449 L 9.37881,-91.9713 L 9.26465,-92.214 L 9.18178,-92.469 L 9.13153,-92.7324
 L 9.1147,-93 L 9.13153,-93.2676 L 9.18178,-93.531 L 9.26465,-93.7861 L 9.37881,-94.0287 L 9.52251,-94.2551
 L 9.69344,-94.4617 L 9.8889,-94.6453 L 10.1059,-94.8029 L 10.3408,-94.9321 L 10.5901,-95.0308 L 10.8499,-95.0975
 L 11.1159,-95.1311 L 11.3841,-95.1311 L 11.6501,-95.0975 L 11.9098,-95.0308 L 12.1591,-94.9321 L 12.3941,-94.8029
 L 12.6111,-94.6453 L 12.8065,-94.4617 L 12.9775,-94.2551 L 13.1212,-94.0287 L 13.2353,-93.7861 L 13.3182,-93.531
 L 13.3685,-93.2676 L 13.3853,-93 L 13.3685,-92.7324 L 13.3182,-92.469 L 13.2353,-92.214 L 13.1212,-91.9713
 L 12.9775,-91.7449 L 12.8065,-91.5383 L 12.6111,-91.3547 L 12.3941,-91.1971 L 12.1591,-91.0679 L 11.9098,-90.9692
 L 11.6501,-90.9025 L 11.3841,-90.8689 z
M -11.3841,-90.8689 L -11.6501,-90.9025 L -11.9098,-90.9692 L -12.1591,-91.0679 L -12.3941,-91.1971 L -12.6111,-91.3547
 L -12.8065,-91.5383 L -12.9775,-91.7449 L -13.1212,-91.9713 L -13.2353,-92.214 L -13.3182,-92.469 L -13.3685,-92.7324
 L -13.3853,-93 L -13.3685,-93.2676 L -13.3182,-93.531 L -13.2353,-93.7861 L -13.1212,-94.0287 L -12.9775,-94.2551
 L -12.8065,-94.4617 L -12.6111,-94.6453 L -12.3941,-94.8029 L -12.1591,-94.9321 L -11.9098,-95.0308 L -11.6501,-95.0975
 L -11.3841,-95.1311 L -11.1159,-95.1311 L -10.8499,-95.0975 L -10.5901,-95.0308 L -10.3408,-94.9321 L -10.1059,-94.8029
 L -9.8889,-94.6453 L -9.69344,-94.4617 L -9.52251,-94.2551 L -9.37881,-94.0287 L -9.26465,-93.7861 L -9.18178,-93.531
 L -9.13153,-93.2676 L -9.1147,-93 L -9.13153,-92.7324 L -9.18178,-92.469 L -9.26465,-92.214 L -9.37881,-91.9713
 L -9.52251,-91.7449 L -9.69344,-91.5383 L -9.8889,-91.3547 L -10.1059,-91.1971 L -10.3408,-91.0679 L -10.5901,-90.9692
 L -10.8499,-90.9025 L -11.1159,-90.8689 z
M -15.75,-75.1526 L -18.75,-75.1526 L -18.75,-32.8474 L -15.75,-32.8474 z
" stroke="black" fill="lightgray" stroke-width="0.5"/>
</svg>
