<?xml version="1.0" standalone="no"?>
<!DOCTYPE svg PUBLIC "-//W3C//DTD SVG 1.1//EN" "http://www.w3.org/Graphics/SVG/1.1/DTD/svg11.dtd">
<svg width="210mm" height="568mm" viewBox="-105 -932 210 568" xmlns="http://www.w3.org/2000/svg" version="1.1">
<title>OpenSCAD Model</title>
<path d="
M 100.937,-796.589 L 101.545,-796.745 L 102.129,-796.976 L 102.679,-797.278 L 103.187,-797.647 L 103.645,-798.077
 L 104.045,-798.561 L 104.382,-799.091 L 104.649,-799.659 L 104.843,-800.257 L 104.961,-800.873 L 105,-801.5
 L 105,-926.5 L 104.961,-927.127 L 104.843,-927.743 L 104.649,-928.341 L 104.382,-928.909 L 104.045,-929.439
 L 103.645,-929.923 L 103.187,-930.353 L 102.679,-930.722 L 102.129,-931.024 L 101.545,-931.255 L 100.937,-931.411
 L 100.314,-931.49 L -100.314,-931.49 L -100.937,-931.411 L -101.545,-931.255 L -102.129,-931.024 L -102.679,-930.722
 L -103.187,-930.353 L -103.645,-929.923 L -104.045,-929.439 L -104.382,-928.909 L -104.649,-928.341 L -104.843,-927.743
 L -104.961,-927.127 L -105,-926.5 L -105,-801.5 L -104.961,-800.873 L -104.843,-800.257 L -104.649,-799.659
 L -104.382,-799.091 L -104.045,-798.561 L -103.645,-798.077 L -103.187,-797.647 L -102.679,-797.278 L -102.129,-796.976
 L -101.545,-796.745 L -100.937,-796.589 L -100.314,-796.51 L 100.314,-796.51 z
M -100.048,-797.009 L -100.64,-797.084 L -101.218,-797.232 L -101.772,-797.452 L -102.295,-797.739 L -102.778,-798.09
 L -103.213,-798.498 L -103.593,-798.958 L -103.912,-799.462 L -104.166,-800.001 L -104.351,-800.569 L -104.463,-801.155
 L -104.5,-801.75 L -104.5,-926.25 L -104.463,-926.845 L -104.351,-927.431 L -104.166,-927.999 L -103.912,-928.538
 L -103.593,-929.042 L -103.213,-929.502 L -102.778,-929.91 L -102.295,-930.261 L -101.772,-930.548 L -101.218,-930.768
 L -100.64,-930.916 L -100.048,-930.991 L 100.048,-930.991 L 100.64,-930.916 L 101.218,-930.768 L 101.772,-930.548
 L 102.295,-930.261 L 102.778,-929.91 L 103.213,-929.502 L 103.593,-929.042 L 103.912,-928.538 L 104.166,-927.999
 L 104.351,-927.431 L 104.463,-926.845 L 104.5,-926.25 L 104.5,-801.75 L 104.463,-801.155 L 104.351,-800.569
 L 104.166,-800.001 L 103.912,-799.462 L 103.593,-798.958 L 103.213,-798.498 L 102.778,-798.09 L 102.295,-797.739
 L 101.772,-797.452 L 101.218,-797.232 L 100.64,-797.084 L 100.048,-797.009 z
M 100.937,-652.589 L 101.545,-652.745 L 102.129,-652.976 L 102.679,-653.278 L 103.187,-653.647 L 103.645,-654.077
 L 104.045,-654.561 L 104.382,-655.091 L 104.649,-655.659 L 104.843,-656.257 L 104.961,-656.873 L 105,-657.5
 L 105,-782.5 L 104.961,-783.127 L 104.843,-783.743 L 104.649,-784.341 L 104.382,-784.909 L 104.045,-785.439
 L 103.645,-785.923 L 103.187,-786.353 L 102.679,-786.722 L 102.129,-787.024 L 101.545,-787.255 L 100.937,-787.411
 L 100.314,-787.49 L -100.314,-787.49 L -100.937,-787.411 L -101.545,-787.255 L -102.129,-787.024 L -102.679,-786.722
 L -103.187,-786.353 L -103.645,-785.923 L -104.045,-785.439 L -104.382,-784.909 L -104.649,-784.341 L -104.843,-783.743
 L -104.961,-783.127 L -105,-782.5 L -105,-657.5 L -104.961,-656.873 L -104.843,-656.257 L -104.649,-655.659
 L -104.382,-655.091 L -104.045,-654.561 L -103.645,-654.077 L -103.187,-653.647 L -102.679,-653.278 L -102.129,-652.976
 L -101.545,-652.745 L -100.937,-652.589 L -100.314,-652.51 L 100.314,-652.51 z
M -100.048,-653.009 L -100.64,-653.084 L -101.218,-653.232 L -101.772,-653.452 L -102.295,-653.739 L -102.778,-654.09
 L -103.213,-654.498 L -103.593,-654.958 L -103.912,-655.462 L -104.166,-656.001 L -104.351,-656.569 L -104.463,-657.155
 L -104.5,-657.75 L -104.5,-782.25 L -104.463,-782.845 L -104.351,-783.431 L -104.166,-783.999 L -103.912,-784.538
 L -103.593,-785.042 L -103.213,-785.502 L -102.778,-785.91 L -102.295,-786.261 L -101.772,-786.548 L -101.218,-786.768
 L -100.64,-786.916 L -100.048,-786.991 L 100.048,-786.991 L 100.64,-786.916 L 101.218,-786.768 L 101.772,-786.548
 L 102.295,-786.261 L 102.778,-785.91 L 103.213,-785.502 L 103.593,-785.042 L 103.912,-784.538 L 104.166,-783.999
 L 104.351,-783.431 L 104.463,-782.845 L 104.5,-782.25 L 104.5,-657.75 L 104.463,-657.155 L 104.351,-656.569
 L 104.166,-656.001 L 103.912,-655.462 L 103.593,-654.958 L 103.213,-654.498 L 102.778,-654.09 L 102.295,-653.739
 L 101.772,-653.452 L 101.218,-653.232 L 100.64,-653.084 L 100.048,-653.009 z
M 100.937,-508.589 L 101.545,-508.745 L 102.129,-508.976 L 102.679,-509.278 L 103.187,-509.647 L 103.645,-510.077
 L 104.045,-510.561 L 104.382,-511.091 L 104.649,-511.659 L 104.843,-512.257 L 104.961,-512.873 L 105,-513.5
 L 105,-638.5 L 104.961,-639.127 L 104.843,-639.743 L 104.649,-640.341 L 104.382,-640.909 L 104.045,-641.439
 L 103.645,-641.923 L 103.187,-642.353 L 102.679,-642.722 L 102.129,-643.024 L 101.545,-643.255 L 100.937,-643.411
 L 100.314,-643.49 L -100.314,-643.49 L -100.937,-643.411 L -101.545,-643.255 L -102.129,-643.024 L -102.679,-642.722
 L -103.187,-642.353 L -103.645,-641.923 L -104.045,-641.439 L -104.382,-640.909 L -104.649,-640.341 L -104.843,-639.743
 L -104.961,-639.127 L -105,-638.5 L -105,-513.5 L -104.961,-512.873 L -104.843,-512.257 L -104.649,-511.659
 L -104.382,-511.091 L -104.045,-510.561 L -103.645,-510.077 L -103.187,-509.647 L -102.679,-509.278 L -102.129,-508.976
 L -101.545,-508.745 L -100.937,-508.589 L -100.314,-508.51 L 100.314,-508.51 z
M -99.993,-509.888 L -100.475,-509.949 L -100.946,-510.07 L -101.398,-510.249 L -101.823,-510.483 L -102.216,-510.769
 L -102.571,-511.101 L -102.88,-511.476 L -103.141,-511.886 L -103.348,-512.326 L -103.498,-512.788 L -103.589,-513.265
 L -103.619,-513.75 L -103.619,-638.25 L -103.589,-638.735 L -103.498,-639.212 L -103.348,-639.674 L -103.141,-640.114
 L -102.88,-640.524 L -102.571,-640.899 L -102.216,-641.231 L -101.823,-641.517 L -101.398,-641.751 L -100.946,-641.93
 L -100.475,-642.051 L -99.993,-642.112 L 99.993,-642.112 L 100.475,-642.051 L 100.946,-641.93 L 101.398,-641.751
 L 101.823,-641.517 L 102.216,-641.231 L 102.571,-640.899 L 102.88,-640.524 L 103.141,-640.114 L 103.348,-639.674
 L 103.498,-639.212 L 103.589,-638.735 L 103.619,-638.25 L 103.619,-513.75 L 103.589,-513.265 L 103.498,-512.788
 L 103.348,-512.326 L 103.141,-511.886 L 102.88,-511.476 L 102.571,-511.101 L 102.216,-510.769 L 101.823,-510.483
 L 101.398,-510.249 L 100.946,-510.07 L 100.475,-509.949 L 99.993,-509.888 z
M 100.937,-364.589 L 101.545,-364.745 L 102.129,-364.976 L 102.679,-365.278 L 103.187,-365.647 L 103.645,-366.077
 L 104.045,-366.561 L 104.382,-367.091 L 104.649,-367.659 L 104.843,-368.257 L 104.961,-368.873 L 105,-369.5
 L 105,-494.5 L 104.961,-495.127 L 104.843,-495.743 L 104.649,-496.341 L 104.382,-496.909 L 104.045,-497.439
 L 103.645,-497.923 L 103.187,-498.353 L 102.679,-498.722 L 102.129,-499.024 L 101.545,-499.255 L 100.937,-499.411
 L 100.314,-499.49 L -100.314,-499.49 L -100.937,-499.411 L -101.545,-499.255 L -102.129,-499.024 L -102.679,-498.722
 L -103.187,-498.353 L -103.645,-497.923 L -104.045,-497.439 L -104.382,-496.909 L -104.649,-496.341 L -104.843,-495.743
 L -104.961,-495.127 L -105,-494.5 L -105,-369.5 L -104.961,-368.873 L -104.843,-368.257 L -104.649,-367.659
 L -104.382,-367.091 L -104.045,-366.561 L -103.645,-366.077 L -103.187,-365.647 L -102.679,-365.278 L -102.129,-364.976
 L -101.545,-364.745 L -100.937,-364.589 L -100.314,-364.51 L 100.314,-364.51 z
M -97.613,-490.204 L -97.8373,-490.232 L -98.0562,-490.288 L -98.2664,-490.371 L -98.4645,-490.48 L -98.6474,-490.613
 L -98.8121,-490.768 L -98.9562,-490.942 L -99.0773,-491.133 L -99.1736,-491.337 L -99.2434,-491.552 L -99.2858,-491.774
 L -99.3,-492 L -99.2858,-492.226 L -99.2434,-492.448 L -99.1736,-492.663 L -99.0773,-492.867 L -98.9562,-493.058
 L -98.8121,-493.232 L -98.6474,-493.387 L -98.4645,-493.52 L -98.2664,-493.629 L -98.0562,-493.712 L -97.8373,-493.768
 L -97.613,-493.796 L -97.387,-493.796 L -97.1627,-493.768 L -96.9438,-493.712 L -96.7336,-493.629 L -96.5355,-493.52
 L -96.3526,-493.387 L -96.1879,-493.232 L -96.0438,-493.058 L -95.9226,-492.867 L -95.8264,-492.663 L -95.7565,-492.448
 L -95.7142,-492.226 L -95.7,-492 L -95.7142,-491.774 L -95.7565,-491.552 L -95.8264,-491.337 L -95.9226,-491.133
 L -96.0438,-490.942 L -96.1879,-490.768 L -96.3526,-490.613 L -96.5355,-490.48 L -96.7336,-490.371 L -96.9438,-490.288
 L -97.1627,-490.232 L -97.387,-490.204 z
M 97.387,-490.204 L 97.1627,-490.232 L 96.9438,-490.288 L 96.7336,-490.371 L 96.5355,-490.48 L 96.3526,-490.613
 L 96.1879,-490.768 L 96.0438,-490.942 L 95.9226,-491.133 L 95.8264,-491.337 L 95.7565,-491.552 L 95.7142,-491.774
 L 95.7,-492 L 95.7142,-492.226 L 95.7565,-492.448 L 95.8264,-492.663 L 95.9226,-492.867 L 96.0438,-493.058
 L 96.1879,-493.232 L 96.3526,-493.387 L 96.5355,-493.52 L 96.7336,-493.629 L 96.9438,-493.712 L 97.1627,-493.768
 L 97.387,-493.796 L 97.613,-493.796 L 97.8373,-493.768 L 98.0562,-493.712 L 98.2664,-493.629 L 98.4645,-493.52
 L 98.6474,-493.387 L 98.8121,-493.232 L 98.9562,-493.058 L 99.0773,-492.867 L 99.1736,-492.663 L 99.2434,-492.448
 L 99.2858,-492.226 L 99.3,-492 L 99.2858,-491.774 L 99.2434,-491.552 L 99.1736,-491.337 L 99.0773,-491.133
 L 98.9562,-490.942 L 98.8121,-490.768 L 98.6474,-490.613 L 98.4645,-490.48 L 98.2664,-490.371 L 98.0562,-490.288
 L 97.8373,-490.232 L 97.613,-490.204 z
M -97.613,-370.204 L -97.8373,-370.232 L -98.0562,-370.288 L -98.2664,-370.371 L -98.4645,-370.48 L -98.6474,-370.613
 L -98.8121,-370.768 L -98.9562,-370.942 L -99.0773,-371.133 L -99.1736,-371.337 L -99.2434,-371.552 L -99.2858,-371.774
 L -99.3,-372 L -99.2858,-372.226 L -99.2434,-372.448 L -99.1736,-372.663 L -99.0773,-372.867 L -98.9562,-373.058
 L -98.8121,-373.232 L -98.6474,-373.387 L -98.4645,-373.52 L -98.2664,-373.629 L -98.0562,-373.712 L -97.8373,-373.768
 L -97.613,-373.796 L -97.387,-373.796 L -97.1627,-373.768 L -96.9438,-373.712 L -96.7336,-373.629 L -96.5355,-373.52
 L -96.3526,-373.387 L -96.1879,-373.232 L -96.0438,-373.058 L -95.9226,-372.867 L -95.8264,-372.663 L -95.7565,-372.448
 L -95.7142,-372.226 L -95.7,-372 L -95.7142,-371.774 L -95.7565,-371.552 L -95.8264,-371.337 L -95.9226,-371.133
 L -96.0438,-370.942 L -96.1879,-370.768 L -96.3526,-370.613 L -96.5355,-370.48 L -96.7336,-370.371 L -96.9438,-370.288
 L -97.1627,-370.232 L -97.387,-370.204 z
M 97.387,-370.204 L 97.1627,-370.232 L 96.9438,-370.288 L 96.7336,-370.371 L 96.5355,-370.48 L 96.3526,-370.613
 L 96.1879,-370.768 L 96.0438,-370.942 L 95.9226,-371.133 L 95.8264,-371.337 L 95.7565,-371.552 L 95.7142,-371.774
 L 95.7,-372 L 95.7142,-372.226 L 95.7565,-372.448 L 95.8264,-372.663 L 95.9226,-372.867 L 96.0438,-373.058
 L 96.1879,-373.232 L 96.3526,-373.387 L 96.5355,-373.52 L 96.7336,-373.629 L 96.9438,-373.712 L 97.1627,-373.768
 L 97.387,-373.796 L 97.613,-373.796 L 97.8373,-373.768 L 98.0562,-373.712 L 98.2664,-373.629 L 98.4645,-373.52
 L 98.6474,-373.387 L 98.8121,-373.232 L 98.9562,-373.058 L 99.0773,-372.867 L 99.1736,-372.663 L 99.2434,-372.448
 L 99.2858,-372.226 L 99.3,-372 L 99.2858,-371.774 L 99.2434,-371.552 L 99.1736,-371.337 L 99.0773,-371.133
 L 98.9562,-370.942 L 98.8121,-370.768 L 98.6474,-370.613 L 98.4645,-370.48 L 98.2664,-370.371 L 98.0562,-370.288
 L 97.8373,-370.232 L 97.613,-370.204 z
" stroke="black" fill="lightgray" stroke-width="0.5"/>
</svg>
