<?xml version="1.0" standalone="no"?>
<!DOCTYPE svg PUBLIC "-//W3C//DTD SVG 1.1//EN" "http://www.w3.org/Graphics/SVG/1.1/DTD/svg11.dtd">
<svg width="226mm" height="189mm" viewBox="-113 -243 226 189" xmlns="http://www.w3.org/2000/svg" version="1.1">
<title>OpenSCAD Model</title>
<path d="
M 108.437,-153.089 L 109.045,-153.245 L 109.629,-153.476 L 110.179,-153.778 L 110.687,-154.147 L 111.145,-154.577
 L 111.545,-155.061 L 111.882,-155.591 L 112.149,-156.159 L 112.343,-156.757 L 112.461,-157.373 L 112.5,-158
 L 112.5,-238 L 112.461,-238.627 L 112.343,-239.243 L 112.149,-239.841 L 111.882,-240.409 L 111.545,-240.939
 L 111.145,-241.423 L 110.687,-241.853 L 110.179,-242.222 L 109.629,-242.524 L 109.045,-242.755 L 108.437,-242.911
 L 107.814,-242.99 L -107.814,-242.99 L -108.437,-242.911 L -109.045,-242.755 L -109.629,-242.524 L -110.179,-242.222
 L -110.687,-241.853 L -111.145,-241.423 L -111.545,-240.939 L -111.882,-240.409 L -112.149,-239.841 L -112.343,-239.243
 L -112.461,-238.627 L -112.5,-238 L -112.5,-158 L -112.461,-157.373 L -112.343,-156.757 L -112.149,-156.159
 L -111.882,-155.591 L -111.545,-155.061 L -111.145,-154.577 L -110.687,-154.147 L -110.179,-153.778 L -109.629,-153.476
 L -109.045,-153.245 L -108.437,-153.089 L -107.814,-153.01 L 107.814,-153.01 z
M -107.493,-154.388 L -107.975,-154.449 L -108.446,-154.57 L -108.898,-154.749 L -109.323,-154.983 L -109.716,-155.269
 L -110.071,-155.601 L -110.38,-155.976 L -110.641,-156.386 L -110.848,-156.826 L -110.998,-157.288 L -111.089,-157.765
 L -111.119,-158.25 L -111.119,-237.75 L -111.089,-238.235 L -110.998,-238.712 L -110.848,-239.174 L -110.641,-239.614
 L -110.38,-240.024 L -110.071,-240.399 L -109.716,-240.731 L -109.323,-241.017 L -108.898,-241.251 L -108.446,-241.43
 L -107.975,-241.551 L -107.493,-241.612 L 107.493,-241.612 L 107.975,-241.551 L 108.446,-241.43 L 108.898,-241.251
 L 109.323,-241.017 L 109.716,-240.731 L 110.071,-240.399 L 110.38,-240.024 L 110.641,-239.614 L 110.848,-239.174
 L 110.998,-238.712 L 111.089,-238.235 L 111.119,-237.75 L 111.119,-158.25 L 111.089,-157.765 L 110.998,-157.288
 L 110.848,-156.826 L 110.641,-156.386 L 110.38,-155.976 L 110.071,-155.601 L 109.716,-155.269 L 109.323,-154.983
 L 108.898,-154.749 L 108.446,-154.57 L 107.975,-154.449 L 107.493,-154.388 z
M 108.437,-54.0886 L 109.045,-54.2447 L 109.629,-54.4759 L 110.179,-54.7784 L 110.687,-55.1474 L 111.145,-55.5773
 L 111.545,-56.0611 L 111.882,-56.5912 L 112.149,-57.1594 L 112.343,-57.7566 L 112.461,-58.3733 L 112.5,-59
 L 112.5,-139 L 112.461,-139.627 L 112.343,-140.243 L 112.149,-140.841 L 111.882,-141.409 L 111.545,-141.939
 L 111.145,-142.423 L 110.687,-142.853 L 110.179,-143.222 L 109.629,-143.524 L 109.045,-143.755 L 108.437,-143.911
 L 107.814,-143.99 L -107.814,-143.99 L -108.437,-143.911 L -109.045,-143.755 L -109.629,-143.524 L -110.179,-143.222
 L -110.687,-142.853 L -111.145,-142.423 L -111.545,-141.939 L -111.882,-141.409 L -112.149,-140.841 L -112.343,-140.243
 L -112.461,-139.627 L -112.5,-139 L -112.5,-59 L -112.461,-58.3733 L -112.343,-57.7566 L -112.149,-57.1594
 L -111.882,-56.5912 L -111.545,-56.0611 L -111.145,-55.5773 L -110.687,-55.1474 L -110.179,-54.7784 L -109.629,-54.4759
 L -109.045,-54.2447 L -108.437,-54.0886 L -107.814,-54.0099 L 107.814,-54.0099 z
M 104.887,-134.704 L 104.663,-134.732 L 104.444,-134.788 L 104.234,-134.871 L 104.036,-134.98 L 103.853,-135.113
 L 103.688,-135.268 L 103.544,-135.442 L 103.423,-135.633 L 103.326,-135.837 L 103.257,-136.052 L 103.214,-136.274
 L 103.2,-136.5 L 103.214,-136.726 L 103.257,-136.948 L 103.326,-137.163 L 103.423,-137.367 L 103.544,-137.558
 L 103.688,-137.732 L 103.853,-137.887 L 104.036,-138.02 L 104.234,-138.129 L 104.444,-138.212 L 104.663,-138.268
 L 104.887,-138.296 L 105.113,-138.296 L 105.337,-138.268 L 105.556,-138.212 L 105.766,-138.129 L 105.964,-138.02
 L 106.147,-137.887 L 106.312,-137.732 L 106.456,-137.558 L 106.577,-137.367 L 106.674,-137.163 L 106.743,-136.948
 L 106.786,-136.726 L 106.8,-136.5 L 106.786,-136.274 L 106.743,-136.052 L 106.674,-135.837 L 106.577,-135.633
 L 106.456,-135.442 L 106.312,-135.268 L 106.147,-135.113 L 105.964,-134.98 L 105.766,-134.871 L 105.556,-134.788
 L 105.337,-134.732 L 105.113,-134.704 z
M -105.113,-134.704 L -105.337,-134.732 L -105.556,-134.788 L -105.766,-134.871 L -105.964,-134.98 L -106.147,-135.113
 L -106.312,-135.268 L -106.456,-135.442 L -106.577,-135.633 L -106.674,-135.837 L -106.743,-136.052 L -106.786,-136.274
 L -106.8,-136.5 L -106.786,-136.726 L -106.743,-136.948 L -106.674,-137.163 L -106.577,-137.367 L -106.456,-137.558
 L -106.312,-137.732 L -106.147,-137.887 L -105.964,-138.02 L -105.766,-138.129 L -105.556,-138.212 L -105.337,-138.268
 L -105.113,-138.296 L -104.887,-138.296 L -104.663,-138.268 L -104.444,-138.212 L -104.234,-138.129 L -104.036,-138.02
 L -103.853,-137.887 L -103.688,-137.732 L -103.544,-137.558 L -103.423,-137.367 L -103.326,-137.163 L -103.257,-136.948
 L -103.214,-136.726 L -103.2,-136.5 L -103.214,-136.274 L -103.257,-136.052 L -103.326,-135.837 L -103.423,-135.633
 L -103.544,-135.442 L -103.688,-135.268 L -103.853,-135.113 L -104.036,-134.98 L -104.234,-134.871 L -104.444,-134.788
 L -104.663,-134.732 L -104.887,-134.704 z
M 104.887,-59.7036 L 104.663,-59.7319 L 104.444,-59.7881 L 104.234,-59.8713 L 104.036,-59.9802 L 103.853,-60.1131
 L 103.688,-60.2678 L 103.544,-60.442 L 103.423,-60.6328 L 103.326,-60.8374 L 103.257,-61.0524 L 103.214,-61.2744
 L 103.2,-61.5 L 103.214,-61.7256 L 103.257,-61.9476 L 103.326,-62.1626 L 103.423,-62.3672 L 103.544,-62.558
 L 103.688,-62.7322 L 103.853,-62.8869 L 104.036,-63.0198 L 104.234,-63.1287 L 104.444,-63.2119 L 104.663,-63.2681
 L 104.887,-63.2964 L 105.113,-63.2964 L 105.337,-63.2681 L 105.556,-63.2119 L 105.766,-63.1287 L 105.964,-63.0198
 L 106.147,-62.8869 L 106.312,-62.7322 L 106.456,-62.558 L 106.577,-62.3672 L 106.674,-62.1626 L 106.743,-61.9476
 L 106.786,-61.7256 L 106.8,-61.5 L 106.786,-61.2744 L 106.743,-61.0524 L 106.674,-60.8374 L 106.577,-60.6328
 L 106.456,-60.442 L 106.312,-60.2678 L 106.147,-60.1131 L 105.964,-59.9802 L 105.766,-59.8713 L 105.556,-59.7881
 L 105.337,-59.7319 L 105.113,-59.7036 z
M -105.113,-59.7036 L -105.337,-59.7319 L -105.556,-59.7881 L -105.766,-59.8713 L -105.964,-59.9802 L -106.147,-60.1131
 L -106.312,-60.2678 L -106.456,-60.442 L -106.577,-60.6328 L -106.674,-60.8374 L -106.743,-61.0524 L -106.786,-61.2744
 L -106.8,-61.5 L -106.786,-61.7256 L -106.743,-61.9476 L -106.674,-62.1626 L -106.577,-62.3672 L -106.456,-62.558
 L -106.312,-62.7322 L -106.147,-62.8869 L -105.964,-63.0198 L -105.766,-63.1287 L -105.556,-63.2119 L -105.337,-63.2681
 L -105.113,-63.2964 L -104.887,-63.2964 L -104.663,-63.2681 L -104.444,-63.2119 L -104.234,-63.1287 L -104.036,-63.0198
 L -103.853,-62.8869 L -103.688,-62.7322 L -103.544,-62.558 L -103.423,-62.3672 L -103.326,-62.1626 L -103.257,-61.9476
 L -103.214,-61.7256 L -103.2,-61.5 L -103.214,-61.2744 L -103.257,-61.0524 L -103.326,-60.8374 L -103.423,-60.6328
 L -103.544,-60.442 L -103.688,-60.2678 L -103.853,-60.1131 L -104.036,-59.9802 L -104.234,-59.8713 L -104.444,-59.7881
 L -104.663,-59.7319 L -104.887,-59.7036 z
" stroke="black" fill="lightgray" stroke-width="0.5"/>
</svg>
