<?xml version="1.0" standalone="no"?>
<!DOCTYPE svg PUBLIC "-//W3C//DTD SVG 1.1//EN" "http://www.w3.org/Graphics/SVG/1.1/DTD/svg11.dtd">
<svg width="226mm" height="64mm" viewBox="-113 -104 226 64" xmlns="http://www.w3.org/2000/svg" version="1.1">
<title>OpenSCAD Model</title>
<path d="
M 108.437,-88.5886 L 109.045,-88.7447 L 109.629,-88.9759 L 110.179,-89.2784 L 110.687,-89.6474 L 111.145,-90.0773
 L 111.545,-90.5611 L 111.882,-91.0912 L 112.149,-91.6594 L 112.343,-92.2566 L 112.461,-92.8733 L 112.5,-93.5
 L 112.5,-98.5 L 112.461,-99.1267 L 112.343,-99.7434 L 112.149,-100.341 L 111.882,-100.909 L 111.545,-101.439
 L 111.145,-101.923 L 110.687,-102.353 L 110.179,-102.722 L 109.629,-103.024 L 109.045,-103.255 L 108.437,-103.411
 L 107.814,-103.49 L -107.814,-103.49 L -108.437,-103.411 L -109.045,-103.255 L -109.629,-103.024 L -110.179,-102.722
 L -110.687,-102.353 L -111.145,-101.923 L -111.545,-101.439 L -111.882,-100.909 L -112.149,-100.341 L -112.343,-99.7434
 L -112.461,-99.1267 L -112.5,-98.5 L -112.5,-93.5 L -112.461,-92.8733 L -112.343,-92.2566 L -112.149,-91.6594
 L -111.882,-91.0912 L -111.545,-90.5611 L -111.145,-90.0773 L -110.687,-89.6474 L -110.179,-89.2784 L -109.629,-88.9759
 L -109.045,-88.7447 L -108.437,-88.5886 L -107.814,-88.5099 L 107.814,-88.5099 z
M -107.548,-89.0094 L -108.14,-89.0841 L -108.718,-89.2325 L -109.272,-89.4521 L -109.795,-89.7395 L -110.278,-90.0901
 L -110.713,-90.4984 L -111.093,-90.958 L -111.412,-91.4617 L -111.666,-92.0014 L -111.851,-92.5687 L -111.963,-93.1547
 L -112,-93.75 L -112,-98.25 L -111.963,-98.8453 L -111.851,-99.4313 L -111.666,-99.9986 L -111.412,-100.538
 L -111.093,-101.042 L -110.713,-101.502 L -110.278,-101.91 L -109.795,-102.261 L -109.272,-102.548 L -108.718,-102.768
 L -108.14,-102.916 L -107.548,-102.991 L 107.548,-102.991 L 108.14,-102.916 L 108.718,-102.768 L 109.272,-102.548
 L 109.795,-102.261 L 110.278,-101.91 L 110.713,-101.502 L 111.093,-101.042 L 111.412,-100.538 L 111.666,-99.9986
 L 111.851,-99.4313 L 111.963,-98.8453 L 112,-98.25 L 112,-93.75 L 111.963,-93.1547 L 111.851,-92.5687
 L 111.666,-92.0014 L 111.412,-91.4617 L 111.093,-90.958 L 110.713,-90.4984 L 110.278,-90.0901 L 109.795,-89.7395
 L 109.272,-89.4521 L 108.718,-89.2325 L 108.14,-89.0841 L 107.548,-89.0094 z
M 108.437,-64.5886 L 109.045,-64.7447 L 109.629,-64.9759 L 110.179,-65.2784 L 110.687,-65.6474 L 111.145,-66.0773
 L 111.545,-66.5611 L 111.882,-67.0912 L 112.149,-67.6594 L 112.343,-68.2566 L 112.461,-68.8733 L 112.5,-69.5
 L 112.5,-74.5 L 112.461,-75.1267 L 112.343,-75.7434 L 112.149,-76.3406 L 111.882,-76.9088 L 111.545,-77.4389
 L 111.145,-77.9227 L 110.687,-78.3526 L 110.179,-78.7216 L 109.629,-79.0241 L 109.045,-79.2553 L 108.437,-79.4114
 L 107.814,-79.4901 L -107.814,-79.4901 L -108.437,-79.4114 L -109.045,-79.2553 L -109.629,-79.0241 L -110.179,-78.7216
 L -110.687,-78.3526 L -111.145,-77.9227 L -111.545,-77.4389 L -111.882,-76.9088 L -112.149,-76.3406 L -112.343,-75.7434
 L -112.461,-75.1267 L -112.5,-74.5 L -112.5,-69.5 L -112.461,-68.8733 L -112.343,-68.2566 L -112.149,-67.6594
 L -111.882,-67.0912 L -111.545,-66.5611 L -111.145,-66.0773 L -110.687,-65.6474 L -110.179,-65.2784 L -109.629,-64.9759
 L -109.045,-64.7447 L -108.437,-64.5886 L -107.814,-64.5099 L 107.814,-64.5099 z
M -107.493,-65.8882 L -107.975,-65.9491 L -108.446,-66.0699 L -108.898,-66.2488 L -109.323,-66.4829 L -109.716,-66.7685
 L -110.071,-67.1012 L -110.38,-67.4756 L -110.641,-67.8859 L -110.848,-68.3256 L -110.998,-68.7877 L -111.089,-69.265
 L -111.119,-69.75 L -111.119,-74.25 L -111.089,-74.735 L -110.998,-75.2123 L -110.848,-75.6744 L -110.641,-76.1141
 L -110.38,-76.5244 L -110.071,-76.8988 L -109.716,-77.2315 L -109.323,-77.5171 L -108.898,-77.7512 L -108.446,-77.9301
 L -107.975,-78.0509 L -107.493,-78.1118 L 107.493,-78.1118 L 107.975,-78.0509 L 108.446,-77.9301 L 108.898,-77.7512
 L 109.323,-77.5171 L 109.716,-77.2315 L 110.071,-76.8988 L 110.38,-76.5244 L 110.641,-76.1141 L 110.848,-75.6744
 L 110.998,-75.2123 L 111.089,-74.735 L 111.119,-74.25 L 111.119,-69.75 L 111.089,-69.265 L 110.998,-68.7877
 L 110.848,-68.3256 L 110.641,-67.8859 L 110.38,-67.4756 L 110.071,-67.1012 L 109.716,-66.7685 L 109.323,-66.4829
 L 108.898,-66.2488 L 108.446,-66.0699 L 107.975,-65.9491 L 107.493,-65.8882 z
M 108.437,-40.5886 L 109.045,-40.7447 L 109.629,-40.9759 L 110.179,-41.2784 L 110.687,-41.6474 L 111.145,-42.0773
 L 111.545,-42.5611 L 111.882,-43.0912 L 112.149,-43.6594 L 112.343,-44.2566 L 112.461,-44.8733 L 112.5,-45.5
 L 112.5,-50.5 L 112.461,-51.1267 L 112.343,-51.7434 L 112.149,-52.3406 L 111.882,-52.9088 L 111.545,-53.4389
 L 111.145,-53.9227 L 110.687,-54.3526 L 110.179,-54.7216 L 109.629,-55.0241 L 109.045,-55.2553 L 108.437,-55.4114
 L 107.814,-55.4901 L -107.814,-55.4901 L -108.437,-55.4114 L -109.045,-55.2553 L -109.629,-55.0241 L -110.179,-54.7216
 L -110.687,-54.3526 L -111.145,-53.9227 L -111.545,-53.4389 L -111.882,-52.9088 L -112.149,-52.3406 L -112.343,-51.7434
 L -112.461,-51.1267 L -112.5,-50.5 L -112.5,-45.5 L -112.461,-44.8733 L -112.343,-44.2566 L -112.149,-43.6594
 L -111.882,-43.0912 L -111.545,-42.5611 L -111.145,-42.0773 L -110.687,-41.6474 L -110.179,-41.2784 L -109.629,-40.9759
 L -109.045,-40.7447 L -108.437,-40.5886 L -107.814,-40.5099 L 107.814,-40.5099 z
M -105.113,-46.2036 L -105.337,-46.2319 L -105.556,-46.2881 L -105.766,-46.3713 L -105.964,-46.4802 L -106.147,-46.6131
 L -106.312,-46.7678 L -106.456,-46.942 L -106.577,-47.1329 L -106.674,-47.3374 L -106.743,-47.5524 L -106.786,-47.7744
 L -106.8,-48 L -106.786,-48.2256 L -106.743,-48.4476 L -106.674,-48.6626 L -106.577,-48.8671 L -106.456,-49.058
 L -106.312,-49.2322 L -106.147,-49.3869 L -105.964,-49.5198 L -105.766,-49.6287 L -105.556,-49.7119 L -105.337,-49.7681
 L -105.113,-49.7964 L -104.887,-49.7964 L -104.663,-49.7681 L -104.444,-49.7119 L -104.234,-49.6287 L -104.036,-49.5198
 L -103.853,-49.3869 L -103.688,-49.2322 L -103.544,-49.058 L -103.423,-48.8671 L -103.326,-48.6626 L -103.257,-48.4476
 L -103.214,-48.2256 L -103.2,-48 L -103.214,-47.7744 L -103.257,-47.5524 L -103.326,-47.3374 L -103.423,-47.1329
 L -103.544,-46.942 L -103.688,-46.7678 L -103.853,-46.6131 L -104.036,-46.4802 L -104.234,-46.3713 L -104.444,-46.2881
 L -104.663,-46.2319 L -104.887,-46.2036 z
M 104.887,-46.2036 L 104.663,-46.2319 L 104.444,-46.2881 L 104.234,-46.3713 L 104.036,-46.4802 L 103.853,-46.6131
 L 103.688,-46.7678 L 103.544,-46.942 L 103.423,-47.1329 L 103.326,-47.3374 L 103.257,-47.5524 L 103.214,-47.7744
 L 103.2,-48 L 103.214,-48.2256 L 103.257,-48.4476 L 103.326,-48.6626 L 103.423,-48.8671 L 103.544,-49.058
 L 103.688,-49.2322 L 103.853,-49.3869 L 104.036,-49.5198 L 104.234,-49.6287 L 104.444,-49.7119 L 104.663,-49.7681
 L 104.887,-49.7964 L 105.113,-49.7964 L 105.337,-49.7681 L 105.556,-49.7119 L 105.766,-49.6287 L 105.964,-49.5198
 L 106.147,-49.3869 L 106.312,-49.2322 L 106.456,-49.058 L 106.577,-48.8671 L 106.674,-48.6626 L 106.743,-48.4476
 L 106.786,-48.2256 L 106.8,-48 L 106.786,-47.7744 L 106.743,-47.5524 L 106.674,-47.3374 L 106.577,-47.1329
 L 106.456,-46.942 L 106.312,-46.7678 L 106.147,-46.6131 L 105.964,-46.4802 L 105.766,-46.3713 L 105.556,-46.2881
 L 105.337,-46.2319 L 105.113,-46.2036 z
" stroke="black" fill="lightgray" stroke-width="0.5"/>
</svg>
