<?xml version="1.0" standalone="no"?>
<!DOCTYPE svg PUBLIC "-//W3C//DTD SVG 1.1//EN" "http://www.w3.org/Graphics/SVG/1.1/DTD/svg11.dtd">
<svg width="16mm" height="464mm" viewBox="-8 -925 16 464" xmlns="http://www.w3.org/2000/svg" version="1.1">
<title>OpenSCAD Model</title>
<path d="
M 3.4369,-902.339 L 4.04507,-902.495 L 4.62889,-902.726 L 5.17912,-903.028 L 5.68712,-903.397 L 6.14484,-903.827
 L 6.54507,-904.311 L 6.88153,-904.841 L 7.14888,-905.409 L 7.34291,-906.007 L 7.46057,-906.623 L 7.5,-907.25
 L 7.5,-919.75 L 7.46057,-920.377 L 7.34291,-920.993 L 7.14888,-921.591 L 6.88153,-922.159 L 6.54507,-922.689
 L 6.14484,-923.173 L 5.68712,-923.603 L 5.17912,-923.972 L 4.62889,-924.274 L 4.04507,-924.505 L 3.4369,-924.661
 L 2.81395,-924.74 L -2.81395,-924.74 L -3.4369,-924.661 L -4.04507,-924.505 L -4.62889,-924.274 L -5.17912,-923.972
 L -5.68712,-923.603 L -6.14484,-923.173 L -6.54507,-922.689 L -6.88153,-922.159 L -7.14888,-921.591 L -7.34291,-920.993
 L -7.46057,-920.377 L -7.5,-919.75 L -7.5,-907.25 L -7.46057,-906.623 L -7.34291,-906.007 L -7.14888,-905.409
 L -6.88153,-904.841 L -6.54507,-904.311 L -6.14484,-903.827 L -5.68712,-903.397 L -5.17912,-903.028 L -4.62889,-902.726
 L -4.04507,-902.495 L -3.4369,-902.339 L -2.81395,-902.26 L 2.81395,-902.26 z
M -2.25116,-903.758 L -2.74951,-903.821 L -3.23605,-903.946 L -3.70311,-904.131 L -4.1433,-904.373 L -4.54968,-904.668
 L -4.91586,-905.012 L -5.23605,-905.399 L -5.50522,-905.823 L -5.7191,-906.278 L -5.87433,-906.755 L -5.96844,-907.249
 L -6,-907.75 L -6,-919.25 L -5.96844,-919.751 L -5.87433,-920.245 L -5.7191,-920.722 L -5.50522,-921.177
 L -5.23605,-921.601 L -4.91586,-921.988 L -4.54968,-922.332 L -4.1433,-922.627 L -3.70311,-922.869 L -3.23605,-923.054
 L -2.74951,-923.179 L -2.25116,-923.242 L 2.25116,-923.242 L 2.74951,-923.179 L 3.23605,-923.054 L 3.70311,-922.869
 L 4.1433,-922.627 L 4.54968,-922.332 L 4.91586,-921.988 L 5.23605,-921.601 L 5.50522,-921.177 L 5.7191,-920.722
 L 5.87433,-920.245 L 5.96844,-919.751 L 6,-919.25 L 6,-907.75 L 5.96844,-907.249 L 5.87433,-906.755
 L 5.7191,-906.278 L 5.50522,-905.823 L 5.23605,-905.399 L 4.91586,-905.012 L 4.54968,-904.668 L 4.1433,-904.373
 L 3.70311,-904.131 L 3.23605,-903.946 L 2.74951,-903.821 L 2.25116,-903.758 z
M 3.4369,-870.839 L 4.04507,-870.995 L 4.62889,-871.226 L 5.17912,-871.528 L 5.68712,-871.897 L 6.14484,-872.327
 L 6.54507,-872.811 L 6.88153,-873.341 L 7.14888,-873.909 L 7.34291,-874.507 L 7.46057,-875.123 L 7.5,-875.75
 L 7.5,-888.25 L 7.46057,-888.877 L 7.34291,-889.493 L 7.14888,-890.091 L 6.88153,-890.659 L 6.54507,-891.189
 L 6.14484,-891.673 L 5.68712,-892.103 L 5.17912,-892.472 L 4.62889,-892.774 L 4.04507,-893.005 L 3.4369,-893.161
 L 2.81395,-893.24 L -2.81395,-893.24 L -3.4369,-893.161 L -4.04507,-893.005 L -4.62889,-892.774 L -5.17912,-892.472
 L -5.68712,-892.103 L -6.14484,-891.673 L -6.54507,-891.189 L -6.88153,-890.659 L -7.14888,-890.091 L -7.34291,-889.493
 L -7.46057,-888.877 L -7.5,-888.25 L -7.5,-875.75 L -7.46057,-875.123 L -7.34291,-874.507 L -7.14888,-873.909
 L -6.88153,-873.341 L -6.54507,-872.811 L -6.14484,-872.327 L -5.68712,-871.897 L -5.17912,-871.528 L -4.62889,-871.226
 L -4.04507,-870.995 L -3.4369,-870.839 L -2.81395,-870.76 L 2.81395,-870.76 z
M -2.25116,-872.258 L -2.74951,-872.321 L -3.23605,-872.446 L -3.70311,-872.631 L -4.1433,-872.873 L -4.54968,-873.168
 L -4.91586,-873.512 L -5.23605,-873.899 L -5.50522,-874.323 L -5.7191,-874.778 L -5.87433,-875.255 L -5.96844,-875.749
 L -6,-876.25 L -6,-887.75 L -5.96844,-888.251 L -5.87433,-888.745 L -5.7191,-889.222 L -5.50522,-889.677
 L -5.23605,-890.101 L -4.91586,-890.488 L -4.54968,-890.832 L -4.1433,-891.127 L -3.70311,-891.369 L -3.23605,-891.554
 L -2.74951,-891.679 L -2.25116,-891.742 L 2.25116,-891.742 L 2.74951,-891.679 L 3.23605,-891.554 L 3.70311,-891.369
 L 4.1433,-891.127 L 4.54968,-890.832 L 4.91586,-890.488 L 5.23605,-890.101 L 5.50522,-889.677 L 5.7191,-889.222
 L 5.87433,-888.745 L 5.96844,-888.251 L 6,-887.75 L 6,-876.25 L 5.96844,-875.749 L 5.87433,-875.255
 L 5.7191,-874.778 L 5.50522,-874.323 L 5.23605,-873.899 L 4.91586,-873.512 L 4.54968,-873.168 L 4.1433,-872.873
 L 3.70311,-872.631 L 3.23605,-872.446 L 2.74951,-872.321 L 2.25116,-872.258 z
M 3.4369,-839.339 L 4.04507,-839.495 L 4.62889,-839.726 L 5.17912,-840.028 L 5.68712,-840.397 L 6.14484,-840.827
 L 6.54507,-841.311 L 6.88153,-841.841 L 7.14888,-842.409 L 7.34291,-843.007 L 7.46057,-843.623 L 7.5,-844.25
 L 7.5,-856.75 L 7.46057,-857.377 L 7.34291,-857.993 L 7.14888,-858.591 L 6.88153,-859.159 L 6.54507,-859.689
 L 6.14484,-860.173 L 5.68712,-860.603 L 5.17912,-860.972 L 4.62889,-861.274 L 4.04507,-861.505 L 3.4369,-861.661
 L 2.81395,-861.74 L -2.81395,-861.74 L -3.4369,-861.661 L -4.04507,-861.505 L -4.62889,-861.274 L -5.17912,-860.972
 L -5.68712,-860.603 L -6.14484,-860.173 L -6.54507,-859.689 L -6.88153,-859.159 L -7.14888,-858.591 L -7.34291,-857.993
 L -7.46057,-857.377 L -7.5,-856.75 L -7.5,-844.25 L -7.46057,-843.623 L -7.34291,-843.007 L -7.14888,-842.409
 L -6.88153,-841.841 L -6.54507,-841.311 L -6.14484,-840.827 L -5.68712,-840.397 L -5.17912,-840.028 L -4.62889,-839.726
 L -4.04507,-839.495 L -3.4369,-839.339 L -2.81395,-839.26 L 2.81395,-839.26 z
M -2.25116,-840.758 L -2.74951,-840.821 L -3.23605,-840.946 L -3.70311,-841.131 L -4.1433,-841.373 L -4.54968,-841.668
 L -4.91586,-842.012 L -5.23605,-842.399 L -5.50522,-842.823 L -5.7191,-843.278 L -5.87433,-843.755 L -5.96844,-844.249
 L -6,-844.75 L -6,-856.25 L -5.96844,-856.751 L -5.87433,-857.245 L -5.7191,-857.722 L -5.50522,-858.177
 L -5.23605,-858.601 L -4.91586,-858.988 L -4.54968,-859.332 L -4.1433,-859.627 L -3.70311,-859.869 L -3.23605,-860.054
 L -2.74951,-860.179 L -2.25116,-860.242 L 2.25116,-860.242 L 2.74951,-860.179 L 3.23605,-860.054 L 3.70311,-859.869
 L 4.1433,-859.627 L 4.54968,-859.332 L 4.91586,-858.988 L 5.23605,-858.601 L 5.50522,-858.177 L 5.7191,-857.722
 L 5.87433,-857.245 L 5.96844,-856.751 L 6,-856.25 L 6,-844.75 L 5.96844,-844.249 L 5.87433,-843.755
 L 5.7191,-843.278 L 5.50522,-842.823 L 5.23605,-842.399 L 4.91586,-842.012 L 4.54968,-841.668 L 4.1433,-841.373
 L 3.70311,-841.131 L 3.23605,-840.946 L 2.74951,-840.821 L 2.25116,-840.758 z
M 3.4369,-807.839 L 4.04507,-807.995 L 4.62889,-808.226 L 5.17912,-808.528 L 5.68712,-808.897 L 6.14484,-809.327
 L 6.54507,-809.811 L 6.88153,-810.341 L 7.14888,-810.909 L 7.34291,-811.507 L 7.46057,-812.123 L 7.5,-812.75
 L 7.5,-825.25 L 7.46057,-825.877 L 7.34291,-826.493 L 7.14888,-827.091 L 6.88153,-827.659 L 6.54507,-828.189
 L 6.14484,-828.673 L 5.68712,-829.103 L 5.17912,-829.472 L 4.62889,-829.774 L 4.04507,-830.005 L 3.4369,-830.161
 L 2.81395,-830.24 L -2.81395,-830.24 L -3.4369,-830.161 L -4.04507,-830.005 L -4.62889,-829.774 L -5.17912,-829.472
 L -5.68712,-829.103 L -6.14484,-828.673 L -6.54507,-828.189 L -6.88153,-827.659 L -7.14888,-827.091 L -7.34291,-826.493
 L -7.46057,-825.877 L -7.5,-825.25 L -7.5,-812.75 L -7.46057,-812.123 L -7.34291,-811.507 L -7.14888,-810.909
 L -6.88153,-810.341 L -6.54507,-809.811 L -6.14484,-809.327 L -5.68712,-808.897 L -5.17912,-808.528 L -4.62889,-808.226
 L -4.04507,-807.995 L -3.4369,-807.839 L -2.81395,-807.76 L 2.81395,-807.76 z
M -2.25116,-809.258 L -2.74951,-809.321 L -3.23605,-809.446 L -3.70311,-809.631 L -4.1433,-809.873 L -4.54968,-810.168
 L -4.91586,-810.512 L -5.23605,-810.899 L -5.50522,-811.323 L -5.7191,-811.778 L -5.87433,-812.255 L -5.96844,-812.749
 L -6,-813.25 L -6,-824.75 L -5.96844,-825.251 L -5.87433,-825.745 L -5.7191,-826.222 L -5.50522,-826.677
 L -5.23605,-827.101 L -4.91586,-827.488 L -4.54968,-827.832 L -4.1433,-828.127 L -3.70311,-828.369 L -3.23605,-828.554
 L -2.74951,-828.679 L -2.25116,-828.742 L 2.25116,-828.742 L 2.74951,-828.679 L 3.23605,-828.554 L 3.70311,-828.369
 L 4.1433,-828.127 L 4.54968,-827.832 L 4.91586,-827.488 L 5.23605,-827.101 L 5.50522,-826.677 L 5.7191,-826.222
 L 5.87433,-825.745 L 5.96844,-825.251 L 6,-824.75 L 6,-813.25 L 5.96844,-812.749 L 5.87433,-812.255
 L 5.7191,-811.778 L 5.50522,-811.323 L 5.23605,-810.899 L 4.91586,-810.512 L 4.54968,-810.168 L 4.1433,-809.873
 L 3.70311,-809.631 L 3.23605,-809.446 L 2.74951,-809.321 L 2.25116,-809.258 z
M 3.4369,-776.339 L 4.04507,-776.495 L 4.62889,-776.726 L 5.17912,-777.028 L 5.68712,-777.397 L 6.14484,-777.827
 L 6.54507,-778.311 L 6.88153,-778.841 L 7.14888,-779.409 L 7.34291,-780.007 L 7.46057,-780.623 L 7.5,-781.25
 L 7.5,-793.75 L 7.46057,-794.377 L 7.34291,-794.993 L 7.14888,-795.591 L 6.88153,-796.159 L 6.54507,-796.689
 L 6.14484,-797.173 L 5.68712,-797.603 L 5.17912,-797.972 L 4.62889,-798.274 L 4.04507,-798.505 L 3.4369,-798.661
 L 2.81395,-798.74 L -2.81395,-798.74 L -3.4369,-798.661 L -4.04507,-798.505 L -4.62889,-798.274 L -5.17912,-797.972
 L -5.68712,-797.603 L -6.14484,-797.173 L -6.54507,-796.689 L -6.88153,-796.159 L -7.14888,-795.591 L -7.34291,-794.993
 L -7.46057,-794.377 L -7.5,-793.75 L -7.5,-781.25 L -7.46057,-780.623 L -7.34291,-780.007 L -7.14888,-779.409
 L -6.88153,-778.841 L -6.54507,-778.311 L -6.14484,-777.827 L -5.68712,-777.397 L -5.17912,-777.028 L -4.62889,-776.726
 L -4.04507,-776.495 L -3.4369,-776.339 L -2.81395,-776.26 L 2.81395,-776.26 z
M -2.25116,-777.758 L -2.74951,-777.821 L -3.23605,-777.946 L -3.70311,-778.131 L -4.1433,-778.373 L -4.54968,-778.668
 L -4.91586,-779.012 L -5.23605,-779.399 L -5.50522,-779.823 L -5.7191,-780.278 L -5.87433,-780.755 L -5.96844,-781.249
 L -6,-781.75 L -6,-793.25 L -5.96844,-793.751 L -5.87433,-794.245 L -5.7191,-794.722 L -5.50522,-795.177
 L -5.23605,-795.601 L -4.91586,-795.988 L -4.54968,-796.332 L -4.1433,-796.627 L -3.70311,-796.869 L -3.23605,-797.054
 L -2.74951,-797.179 L -2.25116,-797.242 L 2.25116,-797.242 L 2.74951,-797.179 L 3.23605,-797.054 L 3.70311,-796.869
 L 4.1433,-796.627 L 4.54968,-796.332 L 4.91586,-795.988 L 5.23605,-795.601 L 5.50522,-795.177 L 5.7191,-794.722
 L 5.87433,-794.245 L 5.96844,-793.751 L 6,-793.25 L 6,-781.75 L 5.96844,-781.249 L 5.87433,-780.755
 L 5.7191,-780.278 L 5.50522,-779.823 L 5.23605,-779.399 L 4.91586,-779.012 L 4.54968,-778.668 L 4.1433,-778.373
 L 3.70311,-778.131 L 3.23605,-777.946 L 2.74951,-777.821 L 2.25116,-777.758 z
M 3.4369,-744.839 L 4.04507,-744.995 L 4.62889,-745.226 L 5.17912,-745.528 L 5.68712,-745.897 L 6.14484,-746.327
 L 6.54507,-746.811 L 6.88153,-747.341 L 7.14888,-747.909 L 7.34291,-748.507 L 7.46057,-749.123 L 7.5,-749.75
 L 7.5,-762.25 L 7.46057,-762.877 L 7.34291,-763.493 L 7.14888,-764.091 L 6.88153,-764.659 L 6.54507,-765.189
 L 6.14484,-765.673 L 5.68712,-766.103 L 5.17912,-766.472 L 4.62889,-766.774 L 4.04507,-767.005 L 3.4369,-767.161
 L 2.81395,-767.24 L -2.81395,-767.24 L -3.4369,-767.161 L -4.04507,-767.005 L -4.62889,-766.774 L -5.17912,-766.472
 L -5.68712,-766.103 L -6.14484,-765.673 L -6.54507,-765.189 L -6.88153,-764.659 L -7.14888,-764.091 L -7.34291,-763.493
 L -7.46057,-762.877 L -7.5,-762.25 L -7.5,-749.75 L -7.46057,-749.123 L -7.34291,-748.507 L -7.14888,-747.909
 L -6.88153,-747.341 L -6.54507,-746.811 L -6.14484,-746.327 L -5.68712,-745.897 L -5.17912,-745.528 L -4.62889,-745.226
 L -4.04507,-744.995 L -3.4369,-744.839 L -2.81395,-744.76 L 2.81395,-744.76 z
M -2.25116,-746.258 L -2.74951,-746.321 L -3.23605,-746.446 L -3.70311,-746.631 L -4.1433,-746.873 L -4.54968,-747.168
 L -4.91586,-747.512 L -5.23605,-747.899 L -5.50522,-748.323 L -5.7191,-748.778 L -5.87433,-749.255 L -5.96844,-749.749
 L -6,-750.25 L -6,-761.75 L -5.96844,-762.251 L -5.87433,-762.745 L -5.7191,-763.222 L -5.50522,-763.677
 L -5.23605,-764.101 L -4.91586,-764.488 L -4.54968,-764.832 L -4.1433,-765.127 L -3.70311,-765.369 L -3.23605,-765.554
 L -2.74951,-765.679 L -2.25116,-765.742 L 2.25116,-765.742 L 2.74951,-765.679 L 3.23605,-765.554 L 3.70311,-765.369
 L 4.1433,-765.127 L 4.54968,-764.832 L 4.91586,-764.488 L 5.23605,-764.101 L 5.50522,-763.677 L 5.7191,-763.222
 L 5.87433,-762.745 L 5.96844,-762.251 L 6,-761.75 L 6,-750.25 L 5.96844,-749.749 L 5.87433,-749.255
 L 5.7191,-748.778 L 5.50522,-748.323 L 5.23605,-747.899 L 4.91586,-747.512 L 4.54968,-747.168 L 4.1433,-746.873
 L 3.70311,-746.631 L 3.23605,-746.446 L 2.74951,-746.321 L 2.25116,-746.258 z
M 3.4369,-713.339 L 4.04507,-713.495 L 4.62889,-713.726 L 5.17912,-714.028 L 5.68712,-714.397 L 6.14484,-714.827
 L 6.54507,-715.311 L 6.88153,-715.841 L 7.14888,-716.409 L 7.34291,-717.007 L 7.46057,-717.623 L 7.5,-718.25
 L 7.5,-730.75 L 7.46057,-731.377 L 7.34291,-731.993 L 7.14888,-732.591 L 6.88153,-733.159 L 6.54507,-733.689
 L 6.14484,-734.173 L 5.68712,-734.603 L 5.17912,-734.972 L 4.62889,-735.274 L 4.04507,-735.505 L 3.4369,-735.661
 L 2.81395,-735.74 L -2.81395,-735.74 L -3.4369,-735.661 L -4.04507,-735.505 L -4.62889,-735.274 L -5.17912,-734.972
 L -5.68712,-734.603 L -6.14484,-734.173 L -6.54507,-733.689 L -6.88153,-733.159 L -7.14888,-732.591 L -7.34291,-731.993
 L -7.46057,-731.377 L -7.5,-730.75 L -7.5,-718.25 L -7.46057,-717.623 L -7.34291,-717.007 L -7.14888,-716.409
 L -6.88153,-715.841 L -6.54507,-715.311 L -6.14484,-714.827 L -5.68712,-714.397 L -5.17912,-714.028 L -4.62889,-713.726
 L -4.04507,-713.495 L -3.4369,-713.339 L -2.81395,-713.26 L 2.81395,-713.26 z
M -2.25116,-714.758 L -2.74951,-714.821 L -3.23605,-714.946 L -3.70311,-715.131 L -4.1433,-715.373 L -4.54968,-715.668
 L -4.91586,-716.012 L -5.23605,-716.399 L -5.50522,-716.823 L -5.7191,-717.278 L -5.87433,-717.755 L -5.96844,-718.249
 L -6,-718.75 L -6,-730.25 L -5.96844,-730.751 L -5.87433,-731.245 L -5.7191,-731.722 L -5.50522,-732.177
 L -5.23605,-732.601 L -4.91586,-732.988 L -4.54968,-733.332 L -4.1433,-733.627 L -3.70311,-733.869 L -3.23605,-734.054
 L -2.74951,-734.179 L -2.25116,-734.242 L 2.25116,-734.242 L 2.74951,-734.179 L 3.23605,-734.054 L 3.70311,-733.869
 L 4.1433,-733.627 L 4.54968,-733.332 L 4.91586,-732.988 L 5.23605,-732.601 L 5.50522,-732.177 L 5.7191,-731.722
 L 5.87433,-731.245 L 5.96844,-730.751 L 6,-730.25 L 6,-718.75 L 5.96844,-718.249 L 5.87433,-717.755
 L 5.7191,-717.278 L 5.50522,-716.823 L 5.23605,-716.399 L 4.91586,-716.012 L 4.54968,-715.668 L 4.1433,-715.373
 L 3.70311,-715.131 L 3.23605,-714.946 L 2.74951,-714.821 L 2.25116,-714.758 z
M 3.4369,-681.839 L 4.04507,-681.995 L 4.62889,-682.226 L 5.17912,-682.528 L 5.68712,-682.897 L 6.14484,-683.327
 L 6.54507,-683.811 L 6.88153,-684.341 L 7.14888,-684.909 L 7.34291,-685.507 L 7.46057,-686.123 L 7.5,-686.75
 L 7.5,-699.25 L 7.46057,-699.877 L 7.34291,-700.493 L 7.14888,-701.091 L 6.88153,-701.659 L 6.54507,-702.189
 L 6.14484,-702.673 L 5.68712,-703.103 L 5.17912,-703.472 L 4.62889,-703.774 L 4.04507,-704.005 L 3.4369,-704.161
 L 2.81395,-704.24 L -2.81395,-704.24 L -3.4369,-704.161 L -4.04507,-704.005 L -4.62889,-703.774 L -5.17912,-703.472
 L -5.68712,-703.103 L -6.14484,-702.673 L -6.54507,-702.189 L -6.88153,-701.659 L -7.14888,-701.091 L -7.34291,-700.493
 L -7.46057,-699.877 L -7.5,-699.25 L -7.5,-686.75 L -7.46057,-686.123 L -7.34291,-685.507 L -7.14888,-684.909
 L -6.88153,-684.341 L -6.54507,-683.811 L -6.14484,-683.327 L -5.68712,-682.897 L -5.17912,-682.528 L -4.62889,-682.226
 L -4.04507,-681.995 L -3.4369,-681.839 L -2.81395,-681.76 L 2.81395,-681.76 z
M -2.25116,-683.258 L -2.74951,-683.321 L -3.23605,-683.446 L -3.70311,-683.631 L -4.1433,-683.873 L -4.54968,-684.168
 L -4.91586,-684.512 L -5.23605,-684.899 L -5.50522,-685.323 L -5.7191,-685.778 L -5.87433,-686.255 L -5.96844,-686.749
 L -6,-687.25 L -6,-698.75 L -5.96844,-699.251 L -5.87433,-699.745 L -5.7191,-700.222 L -5.50522,-700.677
 L -5.23605,-701.101 L -4.91586,-701.488 L -4.54968,-701.832 L -4.1433,-702.127 L -3.70311,-702.369 L -3.23605,-702.554
 L -2.74951,-702.679 L -2.25116,-702.742 L 2.25116,-702.742 L 2.74951,-702.679 L 3.23605,-702.554 L 3.70311,-702.369
 L 4.1433,-702.127 L 4.54968,-701.832 L 4.91586,-701.488 L 5.23605,-701.101 L 5.50522,-700.677 L 5.7191,-700.222
 L 5.87433,-699.745 L 5.96844,-699.251 L 6,-698.75 L 6,-687.25 L 5.96844,-686.749 L 5.87433,-686.255
 L 5.7191,-685.778 L 5.50522,-685.323 L 5.23605,-684.899 L 4.91586,-684.512 L 4.54968,-684.168 L 4.1433,-683.873
 L 3.70311,-683.631 L 3.23605,-683.446 L 2.74951,-683.321 L 2.25116,-683.258 z
M 3.4369,-650.339 L 4.04507,-650.495 L 4.62889,-650.726 L 5.17912,-651.028 L 5.68712,-651.397 L 6.14484,-651.827
 L 6.54507,-652.311 L 6.88153,-652.841 L 7.14888,-653.409 L 7.34291,-654.007 L 7.46057,-654.623 L 7.5,-655.25
 L 7.5,-667.75 L 7.46057,-668.377 L 7.34291,-668.993 L 7.14888,-669.591 L 6.88153,-670.159 L 6.54507,-670.689
 L 6.14484,-671.173 L 5.68712,-671.603 L 5.17912,-671.972 L 4.62889,-672.274 L 4.04507,-672.505 L 3.4369,-672.661
 L 2.81395,-672.74 L -2.81395,-672.74 L -3.4369,-672.661 L -4.04507,-672.505 L -4.62889,-672.274 L -5.17912,-671.972
 L -5.68712,-671.603 L -6.14484,-671.173 L -6.54507,-670.689 L -6.88153,-670.159 L -7.14888,-669.591 L -7.34291,-668.993
 L -7.46057,-668.377 L -7.5,-667.75 L -7.5,-655.25 L -7.46057,-654.623 L -7.34291,-654.007 L -7.14888,-653.409
 L -6.88153,-652.841 L -6.54507,-652.311 L -6.14484,-651.827 L -5.68712,-651.397 L -5.17912,-651.028 L -4.62889,-650.726
 L -4.04507,-650.495 L -3.4369,-650.339 L -2.81395,-650.26 L 2.81395,-650.26 z
M -2.25116,-651.758 L -2.74951,-651.821 L -3.23605,-651.946 L -3.70311,-652.131 L -4.1433,-652.373 L -4.54968,-652.668
 L -4.91586,-653.012 L -5.23605,-653.399 L -5.50522,-653.823 L -5.7191,-654.278 L -5.87433,-654.755 L -5.96844,-655.249
 L -6,-655.75 L -6,-667.25 L -5.96844,-667.751 L -5.87433,-668.245 L -5.7191,-668.722 L -5.50522,-669.177
 L -5.23605,-669.601 L -4.91586,-669.988 L -4.54968,-670.332 L -4.1433,-670.627 L -3.70311,-670.869 L -3.23605,-671.054
 L -2.74951,-671.179 L -2.25116,-671.242 L 2.25116,-671.242 L 2.74951,-671.179 L 3.23605,-671.054 L 3.70311,-670.869
 L 4.1433,-670.627 L 4.54968,-670.332 L 4.91586,-669.988 L 5.23605,-669.601 L 5.50522,-669.177 L 5.7191,-668.722
 L 5.87433,-668.245 L 5.96844,-667.751 L 6,-667.25 L 6,-655.75 L 5.96844,-655.249 L 5.87433,-654.755
 L 5.7191,-654.278 L 5.50522,-653.823 L 5.23605,-653.399 L 4.91586,-653.012 L 4.54968,-652.668 L 4.1433,-652.373
 L 3.70311,-652.131 L 3.23605,-651.946 L 2.74951,-651.821 L 2.25116,-651.758 z
M 3.4369,-618.839 L 4.04507,-618.995 L 4.62889,-619.226 L 5.17912,-619.528 L 5.68712,-619.897 L 6.14484,-620.327
 L 6.54507,-620.811 L 6.88153,-621.341 L 7.14888,-621.909 L 7.34291,-622.507 L 7.46057,-623.123 L 7.5,-623.75
 L 7.5,-636.25 L 7.46057,-636.877 L 7.34291,-637.493 L 7.14888,-638.091 L 6.88153,-638.659 L 6.54507,-639.189
 L 6.14484,-639.673 L 5.68712,-640.103 L 5.17912,-640.472 L 4.62889,-640.774 L 4.04507,-641.005 L 3.4369,-641.161
 L 2.81395,-641.24 L -2.81395,-641.24 L -3.4369,-641.161 L -4.04507,-641.005 L -4.62889,-640.774 L -5.17912,-640.472
 L -5.68712,-640.103 L -6.14484,-639.673 L -6.54507,-639.189 L -6.88153,-638.659 L -7.14888,-638.091 L -7.34291,-637.493
 L -7.46057,-636.877 L -7.5,-636.25 L -7.5,-623.75 L -7.46057,-623.123 L -7.34291,-622.507 L -7.14888,-621.909
 L -6.88153,-621.341 L -6.54507,-620.811 L -6.14484,-620.327 L -5.68712,-619.897 L -5.17912,-619.528 L -4.62889,-619.226
 L -4.04507,-618.995 L -3.4369,-618.839 L -2.81395,-618.76 L 2.81395,-618.76 z
M -2.25116,-620.258 L -2.74951,-620.321 L -3.23605,-620.446 L -3.70311,-620.631 L -4.1433,-620.873 L -4.54968,-621.168
 L -4.91586,-621.512 L -5.23605,-621.899 L -5.50522,-622.323 L -5.7191,-622.778 L -5.87433,-623.255 L -5.96844,-623.749
 L -6,-624.25 L -6,-635.75 L -5.96844,-636.251 L -5.87433,-636.745 L -5.7191,-637.222 L -5.50522,-637.677
 L -5.23605,-638.101 L -4.91586,-638.488 L -4.54968,-638.832 L -4.1433,-639.127 L -3.70311,-639.369 L -3.23605,-639.554
 L -2.74951,-639.679 L -2.25116,-639.742 L 2.25116,-639.742 L 2.74951,-639.679 L 3.23605,-639.554 L 3.70311,-639.369
 L 4.1433,-639.127 L 4.54968,-638.832 L 4.91586,-638.488 L 5.23605,-638.101 L 5.50522,-637.677 L 5.7191,-637.222
 L 5.87433,-636.745 L 5.96844,-636.251 L 6,-635.75 L 6,-624.25 L 5.96844,-623.749 L 5.87433,-623.255
 L 5.7191,-622.778 L 5.50522,-622.323 L 5.23605,-621.899 L 4.91586,-621.512 L 4.54968,-621.168 L 4.1433,-620.873
 L 3.70311,-620.631 L 3.23605,-620.446 L 2.74951,-620.321 L 2.25116,-620.258 z
M 3.4369,-587.339 L 4.04507,-587.495 L 4.62889,-587.726 L 5.17912,-588.028 L 5.68712,-588.397 L 6.14484,-588.827
 L 6.54507,-589.311 L 6.88153,-589.841 L 7.14888,-590.409 L 7.34291,-591.007 L 7.46057,-591.623 L 7.5,-592.25
 L 7.5,-604.75 L 7.46057,-605.377 L 7.34291,-605.993 L 7.14888,-606.591 L 6.88153,-607.159 L 6.54507,-607.689
 L 6.14484,-608.173 L 5.68712,-608.603 L 5.17912,-608.972 L 4.62889,-609.274 L 4.04507,-609.505 L 3.4369,-609.661
 L 2.81395,-609.74 L -2.81395,-609.74 L -3.4369,-609.661 L -4.04507,-609.505 L -4.62889,-609.274 L -5.17912,-608.972
 L -5.68712,-608.603 L -6.14484,-608.173 L -6.54507,-607.689 L -6.88153,-607.159 L -7.14888,-606.591 L -7.34291,-605.993
 L -7.46057,-605.377 L -7.5,-604.75 L -7.5,-592.25 L -7.46057,-591.623 L -7.34291,-591.007 L -7.14888,-590.409
 L -6.88153,-589.841 L -6.54507,-589.311 L -6.14484,-588.827 L -5.68712,-588.397 L -5.17912,-588.028 L -4.62889,-587.726
 L -4.04507,-587.495 L -3.4369,-587.339 L -2.81395,-587.26 L 2.81395,-587.26 z
M -2.25116,-588.758 L -2.74951,-588.821 L -3.23605,-588.946 L -3.70311,-589.131 L -4.1433,-589.373 L -4.54968,-589.668
 L -4.91586,-590.012 L -5.23605,-590.399 L -5.50522,-590.823 L -5.7191,-591.278 L -5.87433,-591.755 L -5.96844,-592.249
 L -6,-592.75 L -6,-604.25 L -5.96844,-604.751 L -5.87433,-605.245 L -5.7191,-605.722 L -5.50522,-606.177
 L -5.23605,-606.601 L -4.91586,-606.988 L -4.54968,-607.332 L -4.1433,-607.627 L -3.70311,-607.869 L -3.23605,-608.054
 L -2.74951,-608.179 L -2.25116,-608.242 L 2.25116,-608.242 L 2.74951,-608.179 L 3.23605,-608.054 L 3.70311,-607.869
 L 4.1433,-607.627 L 4.54968,-607.332 L 4.91586,-606.988 L 5.23605,-606.601 L 5.50522,-606.177 L 5.7191,-605.722
 L 5.87433,-605.245 L 5.96844,-604.751 L 6,-604.25 L 6,-592.75 L 5.96844,-592.249 L 5.87433,-591.755
 L 5.7191,-591.278 L 5.50522,-590.823 L 5.23605,-590.399 L 4.91586,-590.012 L 4.54968,-589.668 L 4.1433,-589.373
 L 3.70311,-589.131 L 3.23605,-588.946 L 2.74951,-588.821 L 2.25116,-588.758 z
M 3.4369,-555.839 L 4.04507,-555.995 L 4.62889,-556.226 L 5.17912,-556.528 L 5.68712,-556.897 L 6.14484,-557.327
 L 6.54507,-557.811 L 6.88153,-558.341 L 7.14888,-558.909 L 7.34291,-559.507 L 7.46057,-560.123 L 7.5,-560.75
 L 7.5,-573.25 L 7.46057,-573.877 L 7.34291,-574.493 L 7.14888,-575.091 L 6.88153,-575.659 L 6.54507,-576.189
 L 6.14484,-576.673 L 5.68712,-577.103 L 5.17912,-577.472 L 4.62889,-577.774 L 4.04507,-578.005 L 3.4369,-578.161
 L 2.81395,-578.24 L -2.81395,-578.24 L -3.4369,-578.161 L -4.04507,-578.005 L -4.62889,-577.774 L -5.17912,-577.472
 L -5.68712,-577.103 L -6.14484,-576.673 L -6.54507,-576.189 L -6.88153,-575.659 L -7.14888,-575.091 L -7.34291,-574.493
 L -7.46057,-573.877 L -7.5,-573.25 L -7.5,-560.75 L -7.46057,-560.123 L -7.34291,-559.507 L -7.14888,-558.909
 L -6.88153,-558.341 L -6.54507,-557.811 L -6.14484,-557.327 L -5.68712,-556.897 L -5.17912,-556.528 L -4.62889,-556.226
 L -4.04507,-555.995 L -3.4369,-555.839 L -2.81395,-555.76 L 2.81395,-555.76 z
M -2.25116,-557.258 L -2.74951,-557.321 L -3.23605,-557.446 L -3.70311,-557.631 L -4.1433,-557.873 L -4.54968,-558.168
 L -4.91586,-558.512 L -5.23605,-558.899 L -5.50522,-559.323 L -5.7191,-559.778 L -5.87433,-560.255 L -5.96844,-560.749
 L -6,-561.25 L -6,-572.75 L -5.96844,-573.251 L -5.87433,-573.745 L -5.7191,-574.222 L -5.50522,-574.677
 L -5.23605,-575.101 L -4.91586,-575.488 L -4.54968,-575.832 L -4.1433,-576.127 L -3.70311,-576.369 L -3.23605,-576.554
 L -2.74951,-576.679 L -2.25116,-576.742 L 2.25116,-576.742 L 2.74951,-576.679 L 3.23605,-576.554 L 3.70311,-576.369
 L 4.1433,-576.127 L 4.54968,-575.832 L 4.91586,-575.488 L 5.23605,-575.101 L 5.50522,-574.677 L 5.7191,-574.222
 L 5.87433,-573.745 L 5.96844,-573.251 L 6,-572.75 L 6,-561.25 L 5.96844,-560.749 L 5.87433,-560.255
 L 5.7191,-559.778 L 5.50522,-559.323 L 5.23605,-558.899 L 4.91586,-558.512 L 4.54968,-558.168 L 4.1433,-557.873
 L 3.70311,-557.631 L 3.23605,-557.446 L 2.74951,-557.321 L 2.25116,-557.258 z
M 3.4369,-524.339 L 4.04507,-524.495 L 4.62889,-524.726 L 5.17912,-525.028 L 5.68712,-525.397 L 6.14484,-525.827
 L 6.54507,-526.311 L 6.88153,-526.841 L 7.14888,-527.409 L 7.34291,-528.007 L 7.46057,-528.623 L 7.5,-529.25
 L 7.5,-541.75 L 7.46057,-542.377 L 7.34291,-542.993 L 7.14888,-543.591 L 6.88153,-544.159 L 6.54507,-544.689
 L 6.14484,-545.173 L 5.68712,-545.603 L 5.17912,-545.972 L 4.62889,-546.274 L 4.04507,-546.505 L 3.4369,-546.661
 L 2.81395,-546.74 L -2.81395,-546.74 L -3.4369,-546.661 L -4.04507,-546.505 L -4.62889,-546.274 L -5.17912,-545.972
 L -5.68712,-545.603 L -6.14484,-545.173 L -6.54507,-544.689 L -6.88153,-544.159 L -7.14888,-543.591 L -7.34291,-542.993
 L -7.46057,-542.377 L -7.5,-541.75 L -7.5,-529.25 L -7.46057,-528.623 L -7.34291,-528.007 L -7.14888,-527.409
 L -6.88153,-526.841 L -6.54507,-526.311 L -6.14484,-525.827 L -5.68712,-525.397 L -5.17912,-525.028 L -4.62889,-524.726
 L -4.04507,-524.495 L -3.4369,-524.339 L -2.81395,-524.26 L 2.81395,-524.26 z
M -2.25116,-525.758 L -2.74951,-525.821 L -3.23605,-525.946 L -3.70311,-526.131 L -4.1433,-526.373 L -4.54968,-526.668
 L -4.91586,-527.012 L -5.23605,-527.399 L -5.50522,-527.823 L -5.7191,-528.278 L -5.87433,-528.755 L -5.96844,-529.249
 L -6,-529.75 L -6,-541.25 L -5.96844,-541.751 L -5.87433,-542.245 L -5.7191,-542.722 L -5.50522,-543.177
 L -5.23605,-543.601 L -4.91586,-543.988 L -4.54968,-544.332 L -4.1433,-544.627 L -3.70311,-544.869 L -3.23605,-545.054
 L -2.74951,-545.179 L -2.25116,-545.242 L 2.25116,-545.242 L 2.74951,-545.179 L 3.23605,-545.054 L 3.70311,-544.869
 L 4.1433,-544.627 L 4.54968,-544.332 L 4.91586,-543.988 L 5.23605,-543.601 L 5.50522,-543.177 L 5.7191,-542.722
 L 5.87433,-542.245 L 5.96844,-541.751 L 6,-541.25 L 6,-529.75 L 5.96844,-529.249 L 5.87433,-528.755
 L 5.7191,-528.278 L 5.50522,-527.823 L 5.23605,-527.399 L 4.91586,-527.012 L 4.54968,-526.668 L 4.1433,-526.373
 L 3.70311,-526.131 L 3.23605,-525.946 L 2.74951,-525.821 L 2.25116,-525.758 z
M 3.4369,-492.839 L 4.04507,-492.995 L 4.62889,-493.226 L 5.17912,-493.528 L 5.68712,-493.897 L 6.14484,-494.327
 L 6.54507,-494.811 L 6.88153,-495.341 L 7.14888,-495.909 L 7.34291,-496.507 L 7.46057,-497.123 L 7.5,-497.75
 L 7.5,-510.25 L 7.46057,-510.877 L 7.34291,-511.493 L 7.14888,-512.091 L 6.88153,-512.659 L 6.54507,-513.189
 L 6.14484,-513.673 L 5.68712,-514.103 L 5.17912,-514.472 L 4.62889,-514.774 L 4.04507,-515.005 L 3.4369,-515.161
 L 2.81395,-515.24 L -2.81395,-515.24 L -3.4369,-515.161 L -4.04507,-515.005 L -4.62889,-514.774 L -5.17912,-514.472
 L -5.68712,-514.103 L -6.14484,-513.673 L -6.54507,-513.189 L -6.88153,-512.659 L -7.14888,-512.091 L -7.34291,-511.493
 L -7.46057,-510.877 L -7.5,-510.25 L -7.5,-497.75 L -7.46057,-497.123 L -7.34291,-496.507 L -7.14888,-495.909
 L -6.88153,-495.341 L -6.54507,-494.811 L -6.14484,-494.327 L -5.68712,-493.897 L -5.17912,-493.528 L -4.62889,-493.226
 L -4.04507,-492.995 L -3.4369,-492.839 L -2.81395,-492.76 L 2.81395,-492.76 z
M -2.19545,-495.143 L -2.5833,-495.192 L -2.96194,-495.289 L -3.32541,-495.433 L -3.66798,-495.622 L -3.98424,-495.851
 L -4.26921,-496.119 L -4.5184,-496.42 L -4.72786,-496.75 L -4.89432,-497.104 L -5.01512,-497.476 L -5.08836,-497.86
 L -5.11292,-498.25 L -5.11292,-509.75 L -5.08836,-510.14 L -5.01512,-510.524 L -4.89432,-510.896 L -4.72786,-511.25
 L -4.5184,-511.58 L -4.26921,-511.881 L -3.98424,-512.149 L -3.66798,-512.378 L -3.32541,-512.567 L -2.96194,-512.711
 L -2.5833,-512.808 L -2.19545,-512.857 L 2.19545,-512.857 L 2.5833,-512.808 L 2.96194,-512.711 L 3.32541,-512.567
 L 3.66798,-512.378 L 3.98424,-512.149 L 4.26921,-511.881 L 4.5184,-511.58 L 4.72786,-511.25 L 4.89432,-510.896
 L 5.01512,-510.524 L 5.08836,-510.14 L 5.11292,-509.75 L 5.11292,-498.25 L 5.08836,-497.86 L 5.01512,-497.476
 L 4.89432,-497.104 L 4.72786,-496.75 L 4.5184,-496.42 L 4.26921,-496.119 L 3.98424,-495.851 L 3.66798,-495.622
 L 3.32541,-495.433 L 2.96194,-495.289 L 2.5833,-495.192 L 2.19545,-495.143 z
M 3.4369,-461.339 L 4.04507,-461.495 L 4.62889,-461.726 L 5.17912,-462.028 L 5.68712,-462.397 L 6.14484,-462.827
 L 6.54507,-463.311 L 6.88153,-463.841 L 7.14888,-464.409 L 7.34291,-465.007 L 7.46057,-465.623 L 7.5,-466.25
 L 7.5,-478.75 L 7.46057,-479.377 L 7.34291,-479.993 L 7.14888,-480.591 L 6.88153,-481.159 L 6.54507,-481.689
 L 6.14484,-482.173 L 5.68712,-482.603 L 5.17912,-482.972 L 4.62889,-483.274 L 4.04507,-483.505 L 3.4369,-483.661
 L 2.81395,-483.74 L -2.81395,-483.74 L -3.4369,-483.661 L -4.04507,-483.505 L -4.62889,-483.274 L -5.17912,-482.972
 L -5.68712,-482.603 L -6.14484,-482.173 L -6.54507,-481.689 L -6.88153,-481.159 L -7.14888,-480.591 L -7.34291,-479.993
 L -7.46057,-479.377 L -7.5,-478.75 L -7.5,-466.25 L -7.46057,-465.623 L -7.34291,-465.007 L -7.14888,-464.409
 L -6.88153,-463.841 L -6.54507,-463.311 L -6.14484,-462.827 L -5.68712,-462.397 L -5.17912,-462.028 L -4.62889,-461.726
 L -4.04507,-461.495 L -3.4369,-461.339 L -2.81395,-461.26 L 2.81395,-461.26 z
M -0.134064,-474.119 L -0.400101,-474.153 L -0.659836,-474.219 L -0.909149,-474.318 L -1.14413,-474.447 L -1.36108,-474.605
 L -1.55655,-474.788 L -1.72748,-474.995 L -1.87117,-475.221 L -1.98534,-475.464 L -2.06821,-475.719 L -2.11845,-475.982
 L -2.13528,-476.25 L -2.11845,-476.518 L -2.06821,-476.781 L -1.98534,-477.036 L -1.87117,-477.279 L -1.72748,-477.505
 L -1.55655,-477.712 L -1.36108,-477.895 L -1.14413,-478.053 L -0.909149,-478.182 L -0.659836,-478.281 L -0.400101,-478.347
 L -0.134064,-478.381 L 0.134064,-478.381 L 0.400101,-478.347 L 0.659836,-478.281 L 0.909149,-478.182 L 1.14413,-478.053
 L 1.36108,-477.895 L 1.55655,-477.712 L 1.72748,-477.505 L 1.87117,-477.279 L 1.98534,-477.036 L 2.06821,-476.781
 L 2.11845,-476.518 L 2.13528,-476.25 L 2.11845,-475.982 L 2.06821,-475.719 L 1.98534,-475.464 L 1.87117,-475.221
 L 1.72748,-474.995 L 1.55655,-474.788 L 1.36108,-474.605 L 1.14413,-474.447 L 0.909149,-474.318 L 0.659836,-474.219
 L 0.400101,-474.153 L 0.134064,-474.119 z
M -0.134064,-466.619 L -0.400101,-466.653 L -0.659836,-466.719 L -0.909149,-466.818 L -1.14413,-466.947 L -1.36108,-467.105
 L -1.55655,-467.288 L -1.72748,-467.495 L -1.87117,-467.721 L -1.98534,-467.964 L -2.06821,-468.219 L -2.11845,-468.482
 L -2.13528,-468.75 L -2.11845,-469.018 L -2.06821,-469.281 L -1.98534,-469.536 L -1.87117,-469.779 L -1.72748,-470.005
 L -1.55655,-470.212 L -1.36108,-470.395 L -1.14413,-470.553 L -0.909149,-470.682 L -0.659836,-470.781 L -0.400101,-470.847
 L -0.134064,-470.881 L 0.134064,-470.881 L 0.400101,-470.847 L 0.659836,-470.781 L 0.909149,-470.682 L 1.14413,-470.553
 L 1.36108,-470.395 L 1.55655,-470.212 L 1.72748,-470.005 L 1.87117,-469.779 L 1.98534,-469.536 L 2.06821,-469.281
 L 2.11845,-469.018 L 2.13528,-468.75 L 2.11845,-468.482 L 2.06821,-468.219 L 1.98534,-467.964 L 1.87117,-467.721
 L 1.72748,-467.495 L 1.55655,-467.288 L 1.36108,-467.105 L 1.14413,-466.947 L 0.909149,-466.818 L 0.659836,-466.719
 L 0.400101,-466.653 L 0.134064,-466.619 z
" stroke="black" fill="lightgray" stroke-width="0.5"/>
</svg>
