  0
SECTION
  2
BLOCKS
  0
ENDSEC
  0
SECTION
  2
ENTITIES
  0
LINE
  8
0
 10
70.9369
 20
585.089
 11
71.5451
 21
585.245
  0
LINE
  8
0
 10
71.5451
 20
585.245
 11
72.1289
 21
585.476
  0
LINE
  8
0
 10
72.1289
 20
585.476
 11
72.6791
 21
585.778
  0
LINE
  8
0
 10
72.6791
 20
585.778
 11
73.1871
 21
586.147
  0
LINE
  8
0
 10
73.1871
 20
586.147
 11
73.6448
 21
586.577
  0
LINE
  8
0
 10
73.6448
 20
586.577
 11
74.0451
 21
587.061
  0
LINE
  8
0
 10
74.0451
 20
587.061
 11
74.3815
 21
587.591
  0
LINE
  8
0
 10
74.3815
 20
587.591
 11
74.6489
 21
588.159
  0
LINE
  8
0
 10
74.6489
 20
588.159
 11
74.8429
 21
588.757
  0
LINE
  8
0
 10
74.8429
 20
588.757
 11
74.9606
 21
589.373
  0
LINE
  8
0
 10
74.9606
 20
589.373
 11
75
 21
590
  0
LINE
  8
0
 10
75
 20
590
 11
75
 21
700
  0
LINE
  8
0
 10
75
 20
700
 11
74.9606
 21
700.627
  0
LINE
  8
0
 10
74.9606
 20
700.627
 11
74.8429
 21
701.243
  0
LINE
  8
0
 10
74.8429
 20
701.243
 11
74.6489
 21
701.841
  0
LINE
  8
0
 10
74.6489
 20
701.841
 11
74.3815
 21
702.409
  0
LINE
  8
0
 10
74.3815
 20
702.409
 11
74.0451
 21
702.939
  0
LINE
  8
0
 10
74.0451
 20
702.939
 11
73.6448
 21
703.423
  0
LINE
  8
0
 10
73.6448
 20
703.423
 11
73.1871
 21
703.853
  0
LINE
  8
0
 10
73.1871
 20
703.853
 11
72.6791
 21
704.222
  0
LINE
  8
0
 10
72.6791
 20
704.222
 11
72.1289
 21
704.524
  0
LINE
  8
0
 10
72.1289
 20
704.524
 11
71.5451
 21
704.755
  0
LINE
  8
0
 10
71.5451
 20
704.755
 11
70.9369
 21
704.911
  0
LINE
  8
0
 10
70.9369
 20
704.911
 11
70.3139
 21
704.99
  0
LINE
  8
0
 10
70.3139
 20
704.99
 11
-70.3139
 21
704.99
  0
LINE
  8
0
 10
-70.3139
 20
704.99
 11
-70.9369
 21
704.911
  0
LINE
  8
0
 10
-70.9369
 20
704.911
 11
-71.5451
 21
704.755
  0
LINE
  8
0
 10
-71.5451
 20
704.755
 11
-72.1289
 21
704.524
  0
LINE
  8
0
 10
-72.1289
 20
704.524
 11
-72.6791
 21
704.222
  0
LINE
  8
0
 10
-72.6791
 20
704.222
 11
-73.1871
 21
703.853
  0
LINE
  8
0
 10
-73.1871
 20
703.853
 11
-73.6448
 21
703.423
  0
LINE
  8
0
 10
-73.6448
 20
703.423
 11
-74.0451
 21
702.939
  0
LINE
  8
0
 10
-74.0451
 20
702.939
 11
-74.3815
 21
702.409
  0
LINE
  8
0
 10
-74.3815
 20
702.409
 11
-74.6489
 21
701.841
  0
LINE
  8
0
 10
-74.6489
 20
701.841
 11
-74.8429
 21
701.243
  0
LINE
  8
0
 10
-74.8429
 20
701.243
 11
-74.9606
 21
700.627
  0
LINE
  8
0
 10
-74.9606
 20
700.627
 11
-75
 21
700
  0
LINE
  8
0
 10
-75
 20
700
 11
-75
 21
590
  0
LINE
  8
0
 10
-75
 20
590
 11
-74.9606
 21
589.373
  0
LINE
  8
0
 10
-74.9606
 20
589.373
 11
-74.8429
 21
588.757
  0
LINE
  8
0
 10
-74.8429
 20
588.757
 11
-74.6489
 21
588.159
  0
LINE
  8
0
 10
-74.6489
 20
588.159
 11
-74.3815
 21
587.591
  0
LINE
  8
0
 10
-74.3815
 20
587.591
 11
-74.0451
 21
587.061
  0
LINE
  8
0
 10
-74.0451
 20
587.061
 11
-73.6448
 21
586.577
  0
LINE
  8
0
 10
-73.6448
 20
586.577
 11
-73.1871
 21
586.147
  0
LINE
  8
0
 10
-73.1871
 20
586.147
 11
-72.6791
 21
585.778
  0
LINE
  8
0
 10
-72.6791
 20
585.778
 11
-72.1289
 21
585.476
  0
LINE
  8
0
 10
-72.1289
 20
585.476
 11
-71.5451
 21
585.245
  0
LINE
  8
0
 10
-71.5451
 20
585.245
 11
-70.9369
 21
585.089
  0
LINE
  8
0
 10
-70.9369
 20
585.089
 11
-70.3139
 21
585.01
  0
LINE
  8
0
 10
-70.3139
 20
585.01
 11
70.3139
 21
585.01
  0
LINE
  8
0
 10
70.3139
 20
585.01
 11
70.9369
 21
585.089
  0
LINE
  8
0
 10
-70.0482
 20
585.509
 11
-70.6401
 21
585.584
  0
LINE
  8
0
 10
-70.6401
 20
585.584
 11
-71.2178
 21
585.732
  0
LINE
  8
0
 10
-71.2178
 20
585.732
 11
-71.7724
 21
585.952
  0
LINE
  8
0
 10
-71.7724
 20
585.952
 11
-72.2952
 21
586.239
  0
LINE
  8
0
 10
-72.2952
 20
586.239
 11
-72.7778
 21
586.59
  0
LINE
  8
0
 10
-72.7778
 20
586.59
 11
-73.2126
 21
586.998
  0
LINE
  8
0
 10
-73.2126
 20
586.998
 11
-73.5928
 21
587.458
  0
LINE
  8
0
 10
-73.5928
 20
587.458
 11
-73.9125
 21
587.962
  0
LINE
  8
0
 10
-73.9125
 20
587.962
 11
-74.1664
 21
588.501
  0
LINE
  8
0
 10
-74.1664
 20
588.501
 11
-74.3508
 21
589.069
  0
LINE
  8
0
 10
-74.3508
 20
589.069
 11
-74.4625
 21
589.655
  0
LINE
  8
0
 10
-74.4625
 20
589.655
 11
-74.5
 21
590.25
  0
LINE
  8
0
 10
-74.5
 20
590.25
 11
-74.5
 21
699.75
  0
LINE
  8
0
 10
-74.5
 20
699.75
 11
-74.4625
 21
700.345
  0
LINE
  8
0
 10
-74.4625
 20
700.345
 11
-74.3508
 21
700.931
  0
LINE
  8
0
 10
-74.3508
 20
700.931
 11
-74.1664
 21
701.499
  0
LINE
  8
0
 10
-74.1664
 20
701.499
 11
-73.9125
 21
702.038
  0
LINE
  8
0
 10
-73.9125
 20
702.038
 11
-73.5928
 21
702.542
  0
LINE
  8
0
 10
-73.5928
 20
702.542
 11
-73.2126
 21
703.002
  0
LINE
  8
0
 10
-73.2126
 20
703.002
 11
-72.7778
 21
703.41
  0
LINE
  8
0
 10
-72.7778
 20
703.41
 11
-72.2952
 21
703.761
  0
LINE
  8
0
 10
-72.2952
 20
703.761
 11
-71.7724
 21
704.048
  0
LINE
  8
0
 10
-71.7724
 20
704.048
 11
-71.2178
 21
704.268
  0
LINE
  8
0
 10
-71.2178
 20
704.268
 11
-70.6401
 21
704.416
  0
LINE
  8
0
 10
-70.6401
 20
704.416
 11
-70.0482
 21
704.491
  0
LINE
  8
0
 10
-70.0482
 20
704.491
 11
70.0482
 21
704.491
  0
LINE
  8
0
 10
70.0482
 20
704.491
 11
70.6401
 21
704.416
  0
LINE
  8
0
 10
70.6401
 20
704.416
 11
71.2178
 21
704.268
  0
LINE
  8
0
 10
71.2178
 20
704.268
 11
71.7724
 21
704.048
  0
LINE
  8
0
 10
71.7724
 20
704.048
 11
72.2952
 21
703.761
  0
LINE
  8
0
 10
72.2952
 20
703.761
 11
72.7778
 21
703.41
  0
LINE
  8
0
 10
72.7778
 20
703.41
 11
73.2126
 21
703.002
  0
LINE
  8
0
 10
73.2126
 20
703.002
 11
73.5928
 21
702.542
  0
LINE
  8
0
 10
73.5928
 20
702.542
 11
73.9125
 21
702.038
  0
LINE
  8
0
 10
73.9125
 20
702.038
 11
74.1664
 21
701.499
  0
LINE
  8
0
 10
74.1664
 20
701.499
 11
74.3508
 21
700.931
  0
LINE
  8
0
 10
74.3508
 20
700.931
 11
74.4625
 21
700.345
  0
LINE
  8
0
 10
74.4625
 20
700.345
 11
74.5
 21
699.75
  0
LINE
  8
0
 10
74.5
 20
699.75
 11
74.5
 21
590.25
  0
LINE
  8
0
 10
74.5
 20
590.25
 11
74.4625
 21
589.655
  0
LINE
  8
0
 10
74.4625
 20
589.655
 11
74.3508
 21
589.069
  0
LINE
  8
0
 10
74.3508
 20
589.069
 11
74.1664
 21
588.501
  0
LINE
  8
0
 10
74.1664
 20
588.501
 11
73.9125
 21
587.962
  0
LINE
  8
0
 10
73.9125
 20
587.962
 11
73.5928
 21
587.458
  0
LINE
  8
0
 10
73.5928
 20
587.458
 11
73.2126
 21
586.998
  0
LINE
  8
0
 10
73.2126
 20
586.998
 11
72.7778
 21
586.59
  0
LINE
  8
0
 10
72.7778
 20
586.59
 11
72.2952
 21
586.239
  0
LINE
  8
0
 10
72.2952
 20
586.239
 11
71.7724
 21
585.952
  0
LINE
  8
0
 10
71.7724
 20
585.952
 11
71.2178
 21
585.732
  0
LINE
  8
0
 10
71.2178
 20
585.732
 11
70.6401
 21
585.584
  0
LINE
  8
0
 10
70.6401
 20
585.584
 11
70.0482
 21
585.509
  0
LINE
  8
0
 10
70.0482
 20
585.509
 11
-70.0482
 21
585.509
  0
LINE
  8
0
 10
70.9369
 20
456.089
 11
71.5451
 21
456.245
  0
LINE
  8
0
 10
71.5451
 20
456.245
 11
72.1289
 21
456.476
  0
LINE
  8
0
 10
72.1289
 20
456.476
 11
72.6791
 21
456.778
  0
LINE
  8
0
 10
72.6791
 20
456.778
 11
73.1871
 21
457.147
  0
LINE
  8
0
 10
73.1871
 20
457.147
 11
73.6448
 21
457.577
  0
LINE
  8
0
 10
73.6448
 20
457.577
 11
74.0451
 21
458.061
  0
LINE
  8
0
 10
74.0451
 20
458.061
 11
74.3815
 21
458.591
  0
LINE
  8
0
 10
74.3815
 20
458.591
 11
74.6489
 21
459.159
  0
LINE
  8
0
 10
74.6489
 20
459.159
 11
74.8429
 21
459.757
  0
LINE
  8
0
 10
74.8429
 20
459.757
 11
74.9606
 21
460.373
  0
LINE
  8
0
 10
74.9606
 20
460.373
 11
75
 21
461
  0
LINE
  8
0
 10
75
 20
461
 11
75
 21
571
  0
LINE
  8
0
 10
75
 20
571
 11
74.9606
 21
571.627
  0
LINE
  8
0
 10
74.9606
 20
571.627
 11
74.8429
 21
572.243
  0
LINE
  8
0
 10
74.8429
 20
572.243
 11
74.6489
 21
572.841
  0
LINE
  8
0
 10
74.6489
 20
572.841
 11
74.3815
 21
573.409
  0
LINE
  8
0
 10
74.3815
 20
573.409
 11
74.0451
 21
573.939
  0
LINE
  8
0
 10
74.0451
 20
573.939
 11
73.6448
 21
574.423
  0
LINE
  8
0
 10
73.6448
 20
574.423
 11
73.1871
 21
574.853
  0
LINE
  8
0
 10
73.1871
 20
574.853
 11
72.6791
 21
575.222
  0
LINE
  8
0
 10
72.6791
 20
575.222
 11
72.1289
 21
575.524
  0
LINE
  8
0
 10
72.1289
 20
575.524
 11
71.5451
 21
575.755
  0
LINE
  8
0
 10
71.5451
 20
575.755
 11
70.9369
 21
575.911
  0
LINE
  8
0
 10
70.9369
 20
575.911
 11
70.3139
 21
575.99
  0
LINE
  8
0
 10
70.3139
 20
575.99
 11
-70.3139
 21
575.99
  0
LINE
  8
0
 10
-70.3139
 20
575.99
 11
-70.9369
 21
575.911
  0
LINE
  8
0
 10
-70.9369
 20
575.911
 11
-71.5451
 21
575.755
  0
LINE
  8
0
 10
-71.5451
 20
575.755
 11
-72.1289
 21
575.524
  0
LINE
  8
0
 10
-72.1289
 20
575.524
 11
-72.6791
 21
575.222
  0
LINE
  8
0
 10
-72.6791
 20
575.222
 11
-73.1871
 21
574.853
  0
LINE
  8
0
 10
-73.1871
 20
574.853
 11
-73.6448
 21
574.423
  0
LINE
  8
0
 10
-73.6448
 20
574.423
 11
-74.0451
 21
573.939
  0
LINE
  8
0
 10
-74.0451
 20
573.939
 11
-74.3815
 21
573.409
  0
LINE
  8
0
 10
-74.3815
 20
573.409
 11
-74.6489
 21
572.841
  0
LINE
  8
0
 10
-74.6489
 20
572.841
 11
-74.8429
 21
572.243
  0
LINE
  8
0
 10
-74.8429
 20
572.243
 11
-74.9606
 21
571.627
  0
LINE
  8
0
 10
-74.9606
 20
571.627
 11
-75
 21
571
  0
LINE
  8
0
 10
-75
 20
571
 11
-75
 21
461
  0
LINE
  8
0
 10
-75
 20
461
 11
-74.9606
 21
460.373
  0
LINE
  8
0
 10
-74.9606
 20
460.373
 11
-74.8429
 21
459.757
  0
LINE
  8
0
 10
-74.8429
 20
459.757
 11
-74.6489
 21
459.159
  0
LINE
  8
0
 10
-74.6489
 20
459.159
 11
-74.3815
 21
458.591
  0
LINE
  8
0
 10
-74.3815
 20
458.591
 11
-74.0451
 21
458.061
  0
LINE
  8
0
 10
-74.0451
 20
458.061
 11
-73.6448
 21
457.577
  0
LINE
  8
0
 10
-73.6448
 20
457.577
 11
-73.1871
 21
457.147
  0
LINE
  8
0
 10
-73.1871
 20
457.147
 11
-72.6791
 21
456.778
  0
LINE
  8
0
 10
-72.6791
 20
456.778
 11
-72.1289
 21
456.476
  0
LINE
  8
0
 10
-72.1289
 20
456.476
 11
-71.5451
 21
456.245
  0
LINE
  8
0
 10
-71.5451
 20
456.245
 11
-70.9369
 21
456.089
  0
LINE
  8
0
 10
-70.9369
 20
456.089
 11
-70.3139
 21
456.01
  0
LINE
  8
0
 10
-70.3139
 20
456.01
 11
70.3139
 21
456.01
  0
LINE
  8
0
 10
70.3139
 20
456.01
 11
70.9369
 21
456.089
  0
LINE
  8
0
 10
-70.0375
 20
456.681
 11
-70.6079
 21
456.753
  0
LINE
  8
0
 10
-70.6079
 20
456.753
 11
-71.1648
 21
456.896
  0
LINE
  8
0
 10
-71.1648
 20
456.896
 11
-71.6994
 21
457.107
  0
LINE
  8
0
 10
-71.6994
 20
457.107
 11
-72.2032
 21
457.384
  0
LINE
  8
0
 10
-72.2032
 20
457.384
 11
-72.6684
 21
457.722
  0
LINE
  8
0
 10
-72.6684
 20
457.722
 11
-73.0875
 21
458.116
  0
LINE
  8
0
 10
-73.0875
 20
458.116
 11
-73.454
 21
458.559
  0
LINE
  8
0
 10
-73.454
 20
458.559
 11
-73.7621
 21
459.044
  0
LINE
  8
0
 10
-73.7621
 20
459.044
 11
-74.0069
 21
459.565
  0
LINE
  8
0
 10
-74.0069
 20
459.565
 11
-74.1846
 21
460.111
  0
LINE
  8
0
 10
-74.1846
 20
460.111
 11
-74.2923
 21
460.676
  0
LINE
  8
0
 10
-74.2923
 20
460.676
 11
-74.3284
 21
461.25
  0
LINE
  8
0
 10
-74.3284
 20
461.25
 11
-74.3284
 21
570.75
  0
LINE
  8
0
 10
-74.3284
 20
570.75
 11
-74.2923
 21
571.324
  0
LINE
  8
0
 10
-74.2923
 20
571.324
 11
-74.1846
 21
571.889
  0
LINE
  8
0
 10
-74.1846
 20
571.889
 11
-74.0069
 21
572.435
  0
LINE
  8
0
 10
-74.0069
 20
572.435
 11
-73.7621
 21
572.956
  0
LINE
  8
0
 10
-73.7621
 20
572.956
 11
-73.454
 21
573.441
  0
LINE
  8
0
 10
-73.454
 20
573.441
 11
-73.0875
 21
573.884
  0
LINE
  8
0
 10
-73.0875
 20
573.884
 11
-72.6684
 21
574.278
  0
LINE
  8
0
 10
-72.6684
 20
574.278
 11
-72.2032
 21
574.616
  0
LINE
  8
0
 10
-72.2032
 20
574.616
 11
-71.6994
 21
574.893
  0
LINE
  8
0
 10
-71.6994
 20
574.893
 11
-71.1648
 21
575.104
  0
LINE
  8
0
 10
-71.1648
 20
575.104
 11
-70.6079
 21
575.247
  0
LINE
  8
0
 10
-70.6079
 20
575.247
 11
-70.0375
 21
575.319
  0
LINE
  8
0
 10
-70.0375
 20
575.319
 11
70.0375
 21
575.319
  0
LINE
  8
0
 10
70.0375
 20
575.319
 11
70.6079
 21
575.247
  0
LINE
  8
0
 10
70.6079
 20
575.247
 11
71.1648
 21
575.104
  0
LINE
  8
0
 10
71.1648
 20
575.104
 11
71.6994
 21
574.893
  0
LINE
  8
0
 10
71.6994
 20
574.893
 11
72.2032
 21
574.616
  0
LINE
  8
0
 10
72.2032
 20
574.616
 11
72.6684
 21
574.278
  0
LINE
  8
0
 10
72.6684
 20
574.278
 11
73.0875
 21
573.884
  0
LINE
  8
0
 10
73.0875
 20
573.884
 11
73.454
 21
573.441
  0
LINE
  8
0
 10
73.454
 20
573.441
 11
73.7621
 21
572.956
  0
LINE
  8
0
 10
73.7621
 20
572.956
 11
74.0069
 21
572.435
  0
LINE
  8
0
 10
74.0069
 20
572.435
 11
74.1846
 21
571.889
  0
LINE
  8
0
 10
74.1846
 20
571.889
 11
74.2923
 21
571.324
  0
LINE
  8
0
 10
74.2923
 20
571.324
 11
74.3284
 21
570.75
  0
LINE
  8
0
 10
74.3284
 20
570.75
 11
74.3284
 21
461.25
  0
LINE
  8
0
 10
74.3284
 20
461.25
 11
74.2923
 21
460.676
  0
LINE
  8
0
 10
74.2923
 20
460.676
 11
74.1846
 21
460.111
  0
LINE
  8
0
 10
74.1846
 20
460.111
 11
74.0069
 21
459.565
  0
LINE
  8
0
 10
74.0069
 20
459.565
 11
73.7621
 21
459.044
  0
LINE
  8
0
 10
73.7621
 20
459.044
 11
73.454
 21
458.559
  0
LINE
  8
0
 10
73.454
 20
458.559
 11
73.0875
 21
458.116
  0
LINE
  8
0
 10
73.0875
 20
458.116
 11
72.6684
 21
457.722
  0
LINE
  8
0
 10
72.6684
 20
457.722
 11
72.2032
 21
457.384
  0
LINE
  8
0
 10
72.2032
 20
457.384
 11
71.6994
 21
457.107
  0
LINE
  8
0
 10
71.6994
 20
457.107
 11
71.1648
 21
456.896
  0
LINE
  8
0
 10
71.1648
 20
456.896
 11
70.6079
 21
456.753
  0
LINE
  8
0
 10
70.6079
 20
456.753
 11
70.0375
 21
456.681
  0
LINE
  8
0
 10
70.0375
 20
456.681
 11
-70.0375
 21
456.681
  0
LINE
  8
0
 10
70.9369
 20
327.089
 11
71.5451
 21
327.245
  0
LINE
  8
0
 10
71.5451
 20
327.245
 11
72.1289
 21
327.476
  0
LINE
  8
0
 10
72.1289
 20
327.476
 11
72.6791
 21
327.778
  0
LINE
  8
0
 10
72.6791
 20
327.778
 11
73.1871
 21
328.147
  0
LINE
  8
0
 10
73.1871
 20
328.147
 11
73.6448
 21
328.577
  0
LINE
  8
0
 10
73.6448
 20
328.577
 11
74.0451
 21
329.061
  0
LINE
  8
0
 10
74.0451
 20
329.061
 11
74.3815
 21
329.591
  0
LINE
  8
0
 10
74.3815
 20
329.591
 11
74.6489
 21
330.159
  0
LINE
  8
0
 10
74.6489
 20
330.159
 11
74.8429
 21
330.757
  0
LINE
  8
0
 10
74.8429
 20
330.757
 11
74.9606
 21
331.373
  0
LINE
  8
0
 10
74.9606
 20
331.373
 11
75
 21
332
  0
LINE
  8
0
 10
75
 20
332
 11
75
 21
442
  0
LINE
  8
0
 10
75
 20
442
 11
74.9606
 21
442.627
  0
LINE
  8
0
 10
74.9606
 20
442.627
 11
74.8429
 21
443.243
  0
LINE
  8
0
 10
74.8429
 20
443.243
 11
74.6489
 21
443.841
  0
LINE
  8
0
 10
74.6489
 20
443.841
 11
74.3815
 21
444.409
  0
LINE
  8
0
 10
74.3815
 20
444.409
 11
74.0451
 21
444.939
  0
LINE
  8
0
 10
74.0451
 20
444.939
 11
73.6448
 21
445.423
  0
LINE
  8
0
 10
73.6448
 20
445.423
 11
73.1871
 21
445.853
  0
LINE
  8
0
 10
73.1871
 20
445.853
 11
72.6791
 21
446.222
  0
LINE
  8
0
 10
72.6791
 20
446.222
 11
72.1289
 21
446.524
  0
LINE
  8
0
 10
72.1289
 20
446.524
 11
71.5451
 21
446.755
  0
LINE
  8
0
 10
71.5451
 20
446.755
 11
70.9369
 21
446.911
  0
LINE
  8
0
 10
70.9369
 20
446.911
 11
70.3139
 21
446.99
  0
LINE
  8
0
 10
70.3139
 20
446.99
 11
-70.3139
 21
446.99
  0
LINE
  8
0
 10
-70.3139
 20
446.99
 11
-70.9369
 21
446.911
  0
LINE
  8
0
 10
-70.9369
 20
446.911
 11
-71.5451
 21
446.755
  0
LINE
  8
0
 10
-71.5451
 20
446.755
 11
-72.1289
 21
446.524
  0
LINE
  8
0
 10
-72.1289
 20
446.524
 11
-72.6791
 21
446.222
  0
LINE
  8
0
 10
-72.6791
 20
446.222
 11
-73.1871
 21
445.853
  0
LINE
  8
0
 10
-73.1871
 20
445.853
 11
-73.6448
 21
445.423
  0
LINE
  8
0
 10
-73.6448
 20
445.423
 11
-74.0451
 21
444.939
  0
LINE
  8
0
 10
-74.0451
 20
444.939
 11
-74.3815
 21
444.409
  0
LINE
  8
0
 10
-74.3815
 20
444.409
 11
-74.6489
 21
443.841
  0
LINE
  8
0
 10
-74.6489
 20
443.841
 11
-74.8429
 21
443.243
  0
LINE
  8
0
 10
-74.8429
 20
443.243
 11
-74.9606
 21
442.627
  0
LINE
  8
0
 10
-74.9606
 20
442.627
 11
-75
 21
442
  0
LINE
  8
0
 10
-75
 20
442
 11
-75
 21
332
  0
LINE
  8
0
 10
-75
 20
332
 11
-74.9606
 21
331.373
  0
LINE
  8
0
 10
-74.9606
 20
331.373
 11
-74.8429
 21
330.757
  0
LINE
  8
0
 10
-74.8429
 20
330.757
 11
-74.6489
 21
330.159
  0
LINE
  8
0
 10
-74.6489
 20
330.159
 11
-74.3815
 21
329.591
  0
LINE
  8
0
 10
-74.3815
 20
329.591
 11
-74.0451
 21
329.061
  0
LINE
  8
0
 10
-74.0451
 20
329.061
 11
-73.6448
 21
328.577
  0
LINE
  8
0
 10
-73.6448
 20
328.577
 11
-73.1871
 21
328.147
  0
LINE
  8
0
 10
-73.1871
 20
328.147
 11
-72.6791
 21
327.778
  0
LINE
  8
0
 10
-72.6791
 20
327.778
 11
-72.1289
 21
327.476
  0
LINE
  8
0
 10
-72.1289
 20
327.476
 11
-71.5451
 21
327.245
  0
LINE
  8
0
 10
-71.5451
 20
327.245
 11
-70.9369
 21
327.089
  0
LINE
  8
0
 10
-70.9369
 20
327.089
 11
-70.3139
 21
327.01
  0
LINE
  8
0
 10
-70.3139
 20
327.01
 11
70.3139
 21
327.01
  0
LINE
  8
0
 10
70.3139
 20
327.01
 11
70.9369
 21
327.089
  0
LINE
  8
0
 10
-69.8825
 20
330.145
 11
-70.1453
 21
330.178
  0
LINE
  8
0
 10
-70.1453
 20
330.178
 11
-70.4019
 21
330.244
  0
LINE
  8
0
 10
-70.4019
 20
330.244
 11
-70.6482
 21
330.341
  0
LINE
  8
0
 10
-70.6482
 20
330.341
 11
-70.8804
 21
330.469
  0
LINE
  8
0
 10
-70.8804
 20
330.469
 11
-71.0947
 21
330.625
  0
LINE
  8
0
 10
-71.0947
 20
330.625
 11
-71.2879
 21
330.806
  0
LINE
  8
0
 10
-71.2879
 20
330.806
 11
-71.4567
 21
331.01
  0
LINE
  8
0
 10
-71.4567
 20
331.01
 11
-71.5987
 21
331.234
  0
LINE
  8
0
 10
-71.5987
 20
331.234
 11
-71.7115
 21
331.473
  0
LINE
  8
0
 10
-71.7115
 20
331.473
 11
-71.7934
 21
331.725
  0
LINE
  8
0
 10
-71.7934
 20
331.725
 11
-71.843
 21
331.986
  0
LINE
  8
0
 10
-71.843
 20
331.986
 11
-71.8596
 21
332.25
  0
LINE
  8
0
 10
-71.8596
 20
332.25
 11
-71.8596
 21
441.75
  0
LINE
  8
0
 10
-71.8596
 20
441.75
 11
-71.843
 21
442.014
  0
LINE
  8
0
 10
-71.843
 20
442.014
 11
-71.7934
 21
442.275
  0
LINE
  8
0
 10
-71.7934
 20
442.275
 11
-71.7115
 21
442.527
  0
LINE
  8
0
 10
-71.7115
 20
442.527
 11
-71.5987
 21
442.766
  0
LINE
  8
0
 10
-71.5987
 20
442.766
 11
-71.4567
 21
442.99
  0
LINE
  8
0
 10
-71.4567
 20
442.99
 11
-71.2879
 21
443.194
  0
LINE
  8
0
 10
-71.2879
 20
443.194
 11
-71.0947
 21
443.375
  0
LINE
  8
0
 10
-71.0947
 20
443.375
 11
-70.8804
 21
443.531
  0
LINE
  8
0
 10
-70.8804
 20
443.531
 11
-70.6482
 21
443.659
  0
LINE
  8
0
 10
-70.6482
 20
443.659
 11
-70.4019
 21
443.756
  0
LINE
  8
0
 10
-70.4019
 20
443.756
 11
-70.1453
 21
443.822
  0
LINE
  8
0
 10
-70.1453
 20
443.822
 11
-69.8825
 21
443.855
  0
LINE
  8
0
 10
-69.8825
 20
443.855
 11
69.8825
 21
443.855
  0
LINE
  8
0
 10
69.8825
 20
443.855
 11
70.1453
 21
443.822
  0
LINE
  8
0
 10
70.1453
 20
443.822
 11
70.4019
 21
443.756
  0
LINE
  8
0
 10
70.4019
 20
443.756
 11
70.6482
 21
443.659
  0
LINE
  8
0
 10
70.6482
 20
443.659
 11
70.8804
 21
443.531
  0
LINE
  8
0
 10
70.8804
 20
443.531
 11
71.0947
 21
443.375
  0
LINE
  8
0
 10
71.0947
 20
443.375
 11
71.2879
 21
443.194
  0
LINE
  8
0
 10
71.2879
 20
443.194
 11
71.4567
 21
442.99
  0
LINE
  8
0
 10
71.4567
 20
442.99
 11
71.5987
 21
442.766
  0
LINE
  8
0
 10
71.5987
 20
442.766
 11
71.7115
 21
442.527
  0
LINE
  8
0
 10
71.7115
 20
442.527
 11
71.7934
 21
442.275
  0
LINE
  8
0
 10
71.7934
 20
442.275
 11
71.843
 21
442.014
  0
LINE
  8
0
 10
71.843
 20
442.014
 11
71.8596
 21
441.75
  0
LINE
  8
0
 10
71.8596
 20
441.75
 11
71.8596
 21
332.25
  0
LINE
  8
0
 10
71.8596
 20
332.25
 11
71.843
 21
331.986
  0
LINE
  8
0
 10
71.843
 20
331.986
 11
71.7934
 21
331.725
  0
LINE
  8
0
 10
71.7934
 20
331.725
 11
71.7115
 21
331.473
  0
LINE
  8
0
 10
71.7115
 20
331.473
 11
71.5987
 21
331.234
  0
LINE
  8
0
 10
71.5987
 20
331.234
 11
71.4567
 21
331.01
  0
LINE
  8
0
 10
71.4567
 20
331.01
 11
71.2879
 21
330.806
  0
LINE
  8
0
 10
71.2879
 20
330.806
 11
71.0947
 21
330.625
  0
LINE
  8
0
 10
71.0947
 20
330.625
 11
70.8804
 21
330.469
  0
LINE
  8
0
 10
70.8804
 20
330.469
 11
70.6482
 21
330.341
  0
LINE
  8
0
 10
70.6482
 20
330.341
 11
70.4019
 21
330.244
  0
LINE
  8
0
 10
70.4019
 20
330.244
 11
70.1453
 21
330.178
  0
LINE
  8
0
 10
70.1453
 20
330.178
 11
69.8825
 21
330.145
  0
LINE
  8
0
 10
69.8825
 20
330.145
 11
-69.8825
 21
330.145
  0
ENDSEC
  0
SECTION
  2
OBJECTS
  0
DICTIONARY
  0
ENDSEC
  0
EOF
