  0
SECTION
  2
BLOCKS
  0
ENDSEC
  0
SECTION
  2
ENTITIES
  0
LINE
  8
0
 10
100.937
 20
1720.59
 11
101.545
 21
1720.74
  0
LINE
  8
0
 10
101.545
 20
1720.74
 11
102.129
 21
1720.98
  0
LINE
  8
0
 10
102.129
 20
1720.98
 11
102.679
 21
1721.28
  0
LINE
  8
0
 10
102.679
 20
1721.28
 11
103.187
 21
1721.65
  0
LINE
  8
0
 10
103.187
 20
1721.65
 11
103.645
 21
1722.08
  0
LINE
  8
0
 10
103.645
 20
1722.08
 11
104.045
 21
1722.56
  0
LINE
  8
0
 10
104.045
 20
1722.56
 11
104.382
 21
1723.09
  0
LINE
  8
0
 10
104.382
 20
1723.09
 11
104.649
 21
1723.66
  0
LINE
  8
0
 10
104.649
 20
1723.66
 11
104.843
 21
1724.26
  0
LINE
  8
0
 10
104.843
 20
1724.26
 11
104.961
 21
1724.87
  0
LINE
  8
0
 10
104.961
 20
1724.87
 11
105
 21
1725.5
  0
LINE
  8
0
 10
105
 20
1725.5
 11
105
 21
1970.5
  0
LINE
  8
0
 10
105
 20
1970.5
 11
104.961
 21
1971.13
  0
LINE
  8
0
 10
104.961
 20
1971.13
 11
104.843
 21
1971.74
  0
LINE
  8
0
 10
104.843
 20
1971.74
 11
104.649
 21
1972.34
  0
LINE
  8
0
 10
104.649
 20
1972.34
 11
104.382
 21
1972.91
  0
LINE
  8
0
 10
104.382
 20
1972.91
 11
104.045
 21
1973.44
  0
LINE
  8
0
 10
104.045
 20
1973.44
 11
103.645
 21
1973.92
  0
LINE
  8
0
 10
103.645
 20
1973.92
 11
103.187
 21
1974.35
  0
LINE
  8
0
 10
103.187
 20
1974.35
 11
102.679
 21
1974.72
  0
LINE
  8
0
 10
102.679
 20
1974.72
 11
102.129
 21
1975.02
  0
LINE
  8
0
 10
102.129
 20
1975.02
 11
101.545
 21
1975.26
  0
LINE
  8
0
 10
101.545
 20
1975.26
 11
100.937
 21
1975.41
  0
LINE
  8
0
 10
100.937
 20
1975.41
 11
100.314
 21
1975.49
  0
LINE
  8
0
 10
100.314
 20
1975.49
 11
-100.314
 21
1975.49
  0
LINE
  8
0
 10
-100.314
 20
1975.49
 11
-100.937
 21
1975.41
  0
LINE
  8
0
 10
-100.937
 20
1975.41
 11
-101.545
 21
1975.26
  0
LINE
  8
0
 10
-101.545
 20
1975.26
 11
-102.129
 21
1975.02
  0
LINE
  8
0
 10
-102.129
 20
1975.02
 11
-102.679
 21
1974.72
  0
LINE
  8
0
 10
-102.679
 20
1974.72
 11
-103.187
 21
1974.35
  0
LINE
  8
0
 10
-103.187
 20
1974.35
 11
-103.645
 21
1973.92
  0
LINE
  8
0
 10
-103.645
 20
1973.92
 11
-104.045
 21
1973.44
  0
LINE
  8
0
 10
-104.045
 20
1973.44
 11
-104.382
 21
1972.91
  0
LINE
  8
0
 10
-104.382
 20
1972.91
 11
-104.649
 21
1972.34
  0
LINE
  8
0
 10
-104.649
 20
1972.34
 11
-104.843
 21
1971.74
  0
LINE
  8
0
 10
-104.843
 20
1971.74
 11
-104.961
 21
1971.13
  0
LINE
  8
0
 10
-104.961
 20
1971.13
 11
-105
 21
1970.5
  0
LINE
  8
0
 10
-105
 20
1970.5
 11
-105
 21
1725.5
  0
LINE
  8
0
 10
-105
 20
1725.5
 11
-104.961
 21
1724.87
  0
LINE
  8
0
 10
-104.961
 20
1724.87
 11
-104.843
 21
1724.26
  0
LINE
  8
0
 10
-104.843
 20
1724.26
 11
-104.649
 21
1723.66
  0
LINE
  8
0
 10
-104.649
 20
1723.66
 11
-104.382
 21
1723.09
  0
LINE
  8
0
 10
-104.382
 20
1723.09
 11
-104.045
 21
1722.56
  0
LINE
  8
0
 10
-104.045
 20
1722.56
 11
-103.645
 21
1722.08
  0
LINE
  8
0
 10
-103.645
 20
1722.08
 11
-103.187
 21
1721.65
  0
LINE
  8
0
 10
-103.187
 20
1721.65
 11
-102.679
 21
1721.28
  0
LINE
  8
0
 10
-102.679
 20
1721.28
 11
-102.129
 21
1720.98
  0
LINE
  8
0
 10
-102.129
 20
1720.98
 11
-101.545
 21
1720.74
  0
LINE
  8
0
 10
-101.545
 20
1720.74
 11
-100.937
 21
1720.59
  0
LINE
  8
0
 10
-100.937
 20
1720.59
 11
-100.314
 21
1720.51
  0
LINE
  8
0
 10
-100.314
 20
1720.51
 11
100.314
 21
1720.51
  0
LINE
  8
0
 10
100.314
 20
1720.51
 11
100.937
 21
1720.59
  0
LINE
  8
0
 10
-99.7512
 20
1722.01
 11
-100.25
 21
1722.07
  0
LINE
  8
0
 10
-100.25
 20
1722.07
 11
-100.736
 21
1722.2
  0
LINE
  8
0
 10
-100.736
 20
1722.2
 11
-101.203
 21
1722.38
  0
LINE
  8
0
 10
-101.203
 20
1722.38
 11
-101.643
 21
1722.62
  0
LINE
  8
0
 10
-101.643
 20
1722.62
 11
-102.05
 21
1722.92
  0
LINE
  8
0
 10
-102.05
 20
1722.92
 11
-102.416
 21
1723.26
  0
LINE
  8
0
 10
-102.416
 20
1723.26
 11
-102.736
 21
1723.65
  0
LINE
  8
0
 10
-102.736
 20
1723.65
 11
-103.005
 21
1724.07
  0
LINE
  8
0
 10
-103.005
 20
1724.07
 11
-103.219
 21
1724.53
  0
LINE
  8
0
 10
-103.219
 20
1724.53
 11
-103.374
 21
1725.01
  0
LINE
  8
0
 10
-103.374
 20
1725.01
 11
-103.468
 21
1725.5
  0
LINE
  8
0
 10
-103.468
 20
1725.5
 11
-103.5
 21
1726
  0
LINE
  8
0
 10
-103.5
 20
1726
 11
-103.5
 21
1970
  0
LINE
  8
0
 10
-103.5
 20
1970
 11
-103.468
 21
1970.5
  0
LINE
  8
0
 10
-103.468
 20
1970.5
 11
-103.374
 21
1970.99
  0
LINE
  8
0
 10
-103.374
 20
1970.99
 11
-103.219
 21
1971.47
  0
LINE
  8
0
 10
-103.219
 20
1971.47
 11
-103.005
 21
1971.93
  0
LINE
  8
0
 10
-103.005
 20
1971.93
 11
-102.736
 21
1972.35
  0
LINE
  8
0
 10
-102.736
 20
1972.35
 11
-102.416
 21
1972.74
  0
LINE
  8
0
 10
-102.416
 20
1972.74
 11
-102.05
 21
1973.08
  0
LINE
  8
0
 10
-102.05
 20
1973.08
 11
-101.643
 21
1973.38
  0
LINE
  8
0
 10
-101.643
 20
1973.38
 11
-101.203
 21
1973.62
  0
LINE
  8
0
 10
-101.203
 20
1973.62
 11
-100.736
 21
1973.8
  0
LINE
  8
0
 10
-100.736
 20
1973.8
 11
-100.25
 21
1973.93
  0
LINE
  8
0
 10
-100.25
 20
1973.93
 11
-99.7512
 21
1973.99
  0
LINE
  8
0
 10
-99.7512
 20
1973.99
 11
99.7512
 21
1973.99
  0
LINE
  8
0
 10
99.7512
 20
1973.99
 11
100.25
 21
1973.93
  0
LINE
  8
0
 10
100.25
 20
1973.93
 11
100.736
 21
1973.8
  0
LINE
  8
0
 10
100.736
 20
1973.8
 11
101.203
 21
1973.62
  0
LINE
  8
0
 10
101.203
 20
1973.62
 11
101.643
 21
1973.38
  0
LINE
  8
0
 10
101.643
 20
1973.38
 11
102.05
 21
1973.08
  0
LINE
  8
0
 10
102.05
 20
1973.08
 11
102.416
 21
1972.74
  0
LINE
  8
0
 10
102.416
 20
1972.74
 11
102.736
 21
1972.35
  0
LINE
  8
0
 10
102.736
 20
1972.35
 11
103.005
 21
1971.93
  0
LINE
  8
0
 10
103.005
 20
1971.93
 11
103.219
 21
1971.47
  0
LINE
  8
0
 10
103.219
 20
1971.47
 11
103.374
 21
1970.99
  0
LINE
  8
0
 10
103.374
 20
1970.99
 11
103.468
 21
1970.5
  0
LINE
  8
0
 10
103.468
 20
1970.5
 11
103.5
 21
1970
  0
LINE
  8
0
 10
103.5
 20
1970
 11
103.5
 21
1726
  0
LINE
  8
0
 10
103.5
 20
1726
 11
103.468
 21
1725.5
  0
LINE
  8
0
 10
103.468
 20
1725.5
 11
103.374
 21
1725.01
  0
LINE
  8
0
 10
103.374
 20
1725.01
 11
103.219
 21
1724.53
  0
LINE
  8
0
 10
103.219
 20
1724.53
 11
103.005
 21
1724.07
  0
LINE
  8
0
 10
103.005
 20
1724.07
 11
102.736
 21
1723.65
  0
LINE
  8
0
 10
102.736
 20
1723.65
 11
102.416
 21
1723.26
  0
LINE
  8
0
 10
102.416
 20
1723.26
 11
102.05
 21
1722.92
  0
LINE
  8
0
 10
102.05
 20
1722.92
 11
101.643
 21
1722.62
  0
LINE
  8
0
 10
101.643
 20
1722.62
 11
101.203
 21
1722.38
  0
LINE
  8
0
 10
101.203
 20
1722.38
 11
100.736
 21
1722.2
  0
LINE
  8
0
 10
100.736
 20
1722.2
 11
100.25
 21
1722.07
  0
LINE
  8
0
 10
100.25
 20
1722.07
 11
99.7512
 21
1722.01
  0
LINE
  8
0
 10
99.7512
 20
1722.01
 11
-99.7512
 21
1722.01
  0
LINE
  8
0
 10
100.937
 20
1456.59
 11
101.545
 21
1456.74
  0
LINE
  8
0
 10
101.545
 20
1456.74
 11
102.129
 21
1456.98
  0
LINE
  8
0
 10
102.129
 20
1456.98
 11
102.679
 21
1457.28
  0
LINE
  8
0
 10
102.679
 20
1457.28
 11
103.187
 21
1457.65
  0
LINE
  8
0
 10
103.187
 20
1457.65
 11
103.645
 21
1458.08
  0
LINE
  8
0
 10
103.645
 20
1458.08
 11
104.045
 21
1458.56
  0
LINE
  8
0
 10
104.045
 20
1458.56
 11
104.382
 21
1459.09
  0
LINE
  8
0
 10
104.382
 20
1459.09
 11
104.649
 21
1459.66
  0
LINE
  8
0
 10
104.649
 20
1459.66
 11
104.843
 21
1460.26
  0
LINE
  8
0
 10
104.843
 20
1460.26
 11
104.961
 21
1460.87
  0
LINE
  8
0
 10
104.961
 20
1460.87
 11
105
 21
1461.5
  0
LINE
  8
0
 10
105
 20
1461.5
 11
105
 21
1706.5
  0
LINE
  8
0
 10
105
 20
1706.5
 11
104.961
 21
1707.13
  0
LINE
  8
0
 10
104.961
 20
1707.13
 11
104.843
 21
1707.74
  0
LINE
  8
0
 10
104.843
 20
1707.74
 11
104.649
 21
1708.34
  0
LINE
  8
0
 10
104.649
 20
1708.34
 11
104.382
 21
1708.91
  0
LINE
  8
0
 10
104.382
 20
1708.91
 11
104.045
 21
1709.44
  0
LINE
  8
0
 10
104.045
 20
1709.44
 11
103.645
 21
1709.92
  0
LINE
  8
0
 10
103.645
 20
1709.92
 11
103.187
 21
1710.35
  0
LINE
  8
0
 10
103.187
 20
1710.35
 11
102.679
 21
1710.72
  0
LINE
  8
0
 10
102.679
 20
1710.72
 11
102.129
 21
1711.02
  0
LINE
  8
0
 10
102.129
 20
1711.02
 11
101.545
 21
1711.26
  0
LINE
  8
0
 10
101.545
 20
1711.26
 11
100.937
 21
1711.41
  0
LINE
  8
0
 10
100.937
 20
1711.41
 11
100.314
 21
1711.49
  0
LINE
  8
0
 10
100.314
 20
1711.49
 11
-100.314
 21
1711.49
  0
LINE
  8
0
 10
-100.314
 20
1711.49
 11
-100.937
 21
1711.41
  0
LINE
  8
0
 10
-100.937
 20
1711.41
 11
-101.545
 21
1711.26
  0
LINE
  8
0
 10
-101.545
 20
1711.26
 11
-102.129
 21
1711.02
  0
LINE
  8
0
 10
-102.129
 20
1711.02
 11
-102.679
 21
1710.72
  0
LINE
  8
0
 10
-102.679
 20
1710.72
 11
-103.187
 21
1710.35
  0
LINE
  8
0
 10
-103.187
 20
1710.35
 11
-103.645
 21
1709.92
  0
LINE
  8
0
 10
-103.645
 20
1709.92
 11
-104.045
 21
1709.44
  0
LINE
  8
0
 10
-104.045
 20
1709.44
 11
-104.382
 21
1708.91
  0
LINE
  8
0
 10
-104.382
 20
1708.91
 11
-104.649
 21
1708.34
  0
LINE
  8
0
 10
-104.649
 20
1708.34
 11
-104.843
 21
1707.74
  0
LINE
  8
0
 10
-104.843
 20
1707.74
 11
-104.961
 21
1707.13
  0
LINE
  8
0
 10
-104.961
 20
1707.13
 11
-105
 21
1706.5
  0
LINE
  8
0
 10
-105
 20
1706.5
 11
-105
 21
1461.5
  0
LINE
  8
0
 10
-105
 20
1461.5
 11
-104.961
 21
1460.87
  0
LINE
  8
0
 10
-104.961
 20
1460.87
 11
-104.843
 21
1460.26
  0
LINE
  8
0
 10
-104.843
 20
1460.26
 11
-104.649
 21
1459.66
  0
LINE
  8
0
 10
-104.649
 20
1459.66
 11
-104.382
 21
1459.09
  0
LINE
  8
0
 10
-104.382
 20
1459.09
 11
-104.045
 21
1458.56
  0
LINE
  8
0
 10
-104.045
 20
1458.56
 11
-103.645
 21
1458.08
  0
LINE
  8
0
 10
-103.645
 20
1458.08
 11
-103.187
 21
1457.65
  0
LINE
  8
0
 10
-103.187
 20
1457.65
 11
-102.679
 21
1457.28
  0
LINE
  8
0
 10
-102.679
 20
1457.28
 11
-102.129
 21
1456.98
  0
LINE
  8
0
 10
-102.129
 20
1456.98
 11
-101.545
 21
1456.74
  0
LINE
  8
0
 10
-101.545
 20
1456.74
 11
-100.937
 21
1456.59
  0
LINE
  8
0
 10
-100.937
 20
1456.59
 11
-100.314
 21
1456.51
  0
LINE
  8
0
 10
-100.314
 20
1456.51
 11
100.314
 21
1456.51
  0
LINE
  8
0
 10
100.314
 20
1456.51
 11
100.937
 21
1456.59
  0
LINE
  8
0
 10
-99.7512
 20
1458.01
 11
-100.25
 21
1458.07
  0
LINE
  8
0
 10
-100.25
 20
1458.07
 11
-100.736
 21
1458.2
  0
LINE
  8
0
 10
-100.736
 20
1458.2
 11
-101.203
 21
1458.38
  0
LINE
  8
0
 10
-101.203
 20
1458.38
 11
-101.643
 21
1458.62
  0
LINE
  8
0
 10
-101.643
 20
1458.62
 11
-102.05
 21
1458.92
  0
LINE
  8
0
 10
-102.05
 20
1458.92
 11
-102.416
 21
1459.26
  0
LINE
  8
0
 10
-102.416
 20
1459.26
 11
-102.736
 21
1459.65
  0
LINE
  8
0
 10
-102.736
 20
1459.65
 11
-103.005
 21
1460.07
  0
LINE
  8
0
 10
-103.005
 20
1460.07
 11
-103.219
 21
1460.53
  0
LINE
  8
0
 10
-103.219
 20
1460.53
 11
-103.374
 21
1461.01
  0
LINE
  8
0
 10
-103.374
 20
1461.01
 11
-103.468
 21
1461.5
  0
LINE
  8
0
 10
-103.468
 20
1461.5
 11
-103.5
 21
1462
  0
LINE
  8
0
 10
-103.5
 20
1462
 11
-103.5
 21
1706
  0
LINE
  8
0
 10
-103.5
 20
1706
 11
-103.468
 21
1706.5
  0
LINE
  8
0
 10
-103.468
 20
1706.5
 11
-103.374
 21
1706.99
  0
LINE
  8
0
 10
-103.374
 20
1706.99
 11
-103.219
 21
1707.47
  0
LINE
  8
0
 10
-103.219
 20
1707.47
 11
-103.005
 21
1707.93
  0
LINE
  8
0
 10
-103.005
 20
1707.93
 11
-102.736
 21
1708.35
  0
LINE
  8
0
 10
-102.736
 20
1708.35
 11
-102.416
 21
1708.74
  0
LINE
  8
0
 10
-102.416
 20
1708.74
 11
-102.05
 21
1709.08
  0
LINE
  8
0
 10
-102.05
 20
1709.08
 11
-101.643
 21
1709.38
  0
LINE
  8
0
 10
-101.643
 20
1709.38
 11
-101.203
 21
1709.62
  0
LINE
  8
0
 10
-101.203
 20
1709.62
 11
-100.736
 21
1709.8
  0
LINE
  8
0
 10
-100.736
 20
1709.8
 11
-100.25
 21
1709.93
  0
LINE
  8
0
 10
-100.25
 20
1709.93
 11
-99.7512
 21
1709.99
  0
LINE
  8
0
 10
-99.7512
 20
1709.99
 11
99.7512
 21
1709.99
  0
LINE
  8
0
 10
99.7512
 20
1709.99
 11
100.25
 21
1709.93
  0
LINE
  8
0
 10
100.25
 20
1709.93
 11
100.736
 21
1709.8
  0
LINE
  8
0
 10
100.736
 20
1709.8
 11
101.203
 21
1709.62
  0
LINE
  8
0
 10
101.203
 20
1709.62
 11
101.643
 21
1709.38
  0
LINE
  8
0
 10
101.643
 20
1709.38
 11
102.05
 21
1709.08
  0
LINE
  8
0
 10
102.05
 20
1709.08
 11
102.416
 21
1708.74
  0
LINE
  8
0
 10
102.416
 20
1708.74
 11
102.736
 21
1708.35
  0
LINE
  8
0
 10
102.736
 20
1708.35
 11
103.005
 21
1707.93
  0
LINE
  8
0
 10
103.005
 20
1707.93
 11
103.219
 21
1707.47
  0
LINE
  8
0
 10
103.219
 20
1707.47
 11
103.374
 21
1706.99
  0
LINE
  8
0
 10
103.374
 20
1706.99
 11
103.468
 21
1706.5
  0
LINE
  8
0
 10
103.468
 20
1706.5
 11
103.5
 21
1706
  0
LINE
  8
0
 10
103.5
 20
1706
 11
103.5
 21
1462
  0
LINE
  8
0
 10
103.5
 20
1462
 11
103.468
 21
1461.5
  0
LINE
  8
0
 10
103.468
 20
1461.5
 11
103.374
 21
1461.01
  0
LINE
  8
0
 10
103.374
 20
1461.01
 11
103.219
 21
1460.53
  0
LINE
  8
0
 10
103.219
 20
1460.53
 11
103.005
 21
1460.07
  0
LINE
  8
0
 10
103.005
 20
1460.07
 11
102.736
 21
1459.65
  0
LINE
  8
0
 10
102.736
 20
1459.65
 11
102.416
 21
1459.26
  0
LINE
  8
0
 10
102.416
 20
1459.26
 11
102.05
 21
1458.92
  0
LINE
  8
0
 10
102.05
 20
1458.92
 11
101.643
 21
1458.62
  0
LINE
  8
0
 10
101.643
 20
1458.62
 11
101.203
 21
1458.38
  0
LINE
  8
0
 10
101.203
 20
1458.38
 11
100.736
 21
1458.2
  0
LINE
  8
0
 10
100.736
 20
1458.2
 11
100.25
 21
1458.07
  0
LINE
  8
0
 10
100.25
 20
1458.07
 11
99.7512
 21
1458.01
  0
LINE
  8
0
 10
99.7512
 20
1458.01
 11
-99.7512
 21
1458.01
  0
LINE
  8
0
 10
100.937
 20
1192.59
 11
101.545
 21
1192.74
  0
LINE
  8
0
 10
101.545
 20
1192.74
 11
102.129
 21
1192.98
  0
LINE
  8
0
 10
102.129
 20
1192.98
 11
102.679
 21
1193.28
  0
LINE
  8
0
 10
102.679
 20
1193.28
 11
103.187
 21
1193.65
  0
LINE
  8
0
 10
103.187
 20
1193.65
 11
103.645
 21
1194.08
  0
LINE
  8
0
 10
103.645
 20
1194.08
 11
104.045
 21
1194.56
  0
LINE
  8
0
 10
104.045
 20
1194.56
 11
104.382
 21
1195.09
  0
LINE
  8
0
 10
104.382
 20
1195.09
 11
104.649
 21
1195.66
  0
LINE
  8
0
 10
104.649
 20
1195.66
 11
104.843
 21
1196.26
  0
LINE
  8
0
 10
104.843
 20
1196.26
 11
104.961
 21
1196.87
  0
LINE
  8
0
 10
104.961
 20
1196.87
 11
105
 21
1197.5
  0
LINE
  8
0
 10
105
 20
1197.5
 11
105
 21
1442.5
  0
LINE
  8
0
 10
105
 20
1442.5
 11
104.961
 21
1443.13
  0
LINE
  8
0
 10
104.961
 20
1443.13
 11
104.843
 21
1443.74
  0
LINE
  8
0
 10
104.843
 20
1443.74
 11
104.649
 21
1444.34
  0
LINE
  8
0
 10
104.649
 20
1444.34
 11
104.382
 21
1444.91
  0
LINE
  8
0
 10
104.382
 20
1444.91
 11
104.045
 21
1445.44
  0
LINE
  8
0
 10
104.045
 20
1445.44
 11
103.645
 21
1445.92
  0
LINE
  8
0
 10
103.645
 20
1445.92
 11
103.187
 21
1446.35
  0
LINE
  8
0
 10
103.187
 20
1446.35
 11
102.679
 21
1446.72
  0
LINE
  8
0
 10
102.679
 20
1446.72
 11
102.129
 21
1447.02
  0
LINE
  8
0
 10
102.129
 20
1447.02
 11
101.545
 21
1447.26
  0
LINE
  8
0
 10
101.545
 20
1447.26
 11
100.937
 21
1447.41
  0
LINE
  8
0
 10
100.937
 20
1447.41
 11
100.314
 21
1447.49
  0
LINE
  8
0
 10
100.314
 20
1447.49
 11
-100.314
 21
1447.49
  0
LINE
  8
0
 10
-100.314
 20
1447.49
 11
-100.937
 21
1447.41
  0
LINE
  8
0
 10
-100.937
 20
1447.41
 11
-101.545
 21
1447.26
  0
LINE
  8
0
 10
-101.545
 20
1447.26
 11
-102.129
 21
1447.02
  0
LINE
  8
0
 10
-102.129
 20
1447.02
 11
-102.679
 21
1446.72
  0
LINE
  8
0
 10
-102.679
 20
1446.72
 11
-103.187
 21
1446.35
  0
LINE
  8
0
 10
-103.187
 20
1446.35
 11
-103.645
 21
1445.92
  0
LINE
  8
0
 10
-103.645
 20
1445.92
 11
-104.045
 21
1445.44
  0
LINE
  8
0
 10
-104.045
 20
1445.44
 11
-104.382
 21
1444.91
  0
LINE
  8
0
 10
-104.382
 20
1444.91
 11
-104.649
 21
1444.34
  0
LINE
  8
0
 10
-104.649
 20
1444.34
 11
-104.843
 21
1443.74
  0
LINE
  8
0
 10
-104.843
 20
1443.74
 11
-104.961
 21
1443.13
  0
LINE
  8
0
 10
-104.961
 20
1443.13
 11
-105
 21
1442.5
  0
LINE
  8
0
 10
-105
 20
1442.5
 11
-105
 21
1197.5
  0
LINE
  8
0
 10
-105
 20
1197.5
 11
-104.961
 21
1196.87
  0
LINE
  8
0
 10
-104.961
 20
1196.87
 11
-104.843
 21
1196.26
  0
LINE
  8
0
 10
-104.843
 20
1196.26
 11
-104.649
 21
1195.66
  0
LINE
  8
0
 10
-104.649
 20
1195.66
 11
-104.382
 21
1195.09
  0
LINE
  8
0
 10
-104.382
 20
1195.09
 11
-104.045
 21
1194.56
  0
LINE
  8
0
 10
-104.045
 20
1194.56
 11
-103.645
 21
1194.08
  0
LINE
  8
0
 10
-103.645
 20
1194.08
 11
-103.187
 21
1193.65
  0
LINE
  8
0
 10
-103.187
 20
1193.65
 11
-102.679
 21
1193.28
  0
LINE
  8
0
 10
-102.679
 20
1193.28
 11
-102.129
 21
1192.98
  0
LINE
  8
0
 10
-102.129
 20
1192.98
 11
-101.545
 21
1192.74
  0
LINE
  8
0
 10
-101.545
 20
1192.74
 11
-100.937
 21
1192.59
  0
LINE
  8
0
 10
-100.937
 20
1192.59
 11
-100.314
 21
1192.51
  0
LINE
  8
0
 10
-100.314
 20
1192.51
 11
100.314
 21
1192.51
  0
LINE
  8
0
 10
100.314
 20
1192.51
 11
100.937
 21
1192.59
  0
LINE
  8
0
 10
-99.6955
 20
1194.89
 11
-100.083
 21
1194.94
  0
LINE
  8
0
 10
-100.083
 20
1194.94
 11
-100.462
 21
1195.04
  0
LINE
  8
0
 10
-100.462
 20
1195.04
 11
-100.825
 21
1195.18
  0
LINE
  8
0
 10
-100.825
 20
1195.18
 11
-101.168
 21
1195.37
  0
LINE
  8
0
 10
-101.168
 20
1195.37
 11
-101.484
 21
1195.6
  0
LINE
  8
0
 10
-101.484
 20
1195.6
 11
-101.769
 21
1195.87
  0
LINE
  8
0
 10
-101.769
 20
1195.87
 11
-102.018
 21
1196.17
  0
LINE
  8
0
 10
-102.018
 20
1196.17
 11
-102.228
 21
1196.5
  0
LINE
  8
0
 10
-102.228
 20
1196.5
 11
-102.394
 21
1196.85
  0
LINE
  8
0
 10
-102.394
 20
1196.85
 11
-102.515
 21
1197.23
  0
LINE
  8
0
 10
-102.515
 20
1197.23
 11
-102.588
 21
1197.61
  0
LINE
  8
0
 10
-102.588
 20
1197.61
 11
-102.613
 21
1198
  0
LINE
  8
0
 10
-102.613
 20
1198
 11
-102.613
 21
1442
  0
LINE
  8
0
 10
-102.613
 20
1442
 11
-102.588
 21
1442.39
  0
LINE
  8
0
 10
-102.588
 20
1442.39
 11
-102.515
 21
1442.77
  0
LINE
  8
0
 10
-102.515
 20
1442.77
 11
-102.394
 21
1443.15
  0
LINE
  8
0
 10
-102.394
 20
1443.15
 11
-102.228
 21
1443.5
  0
LINE
  8
0
 10
-102.228
 20
1443.5
 11
-102.018
 21
1443.83
  0
LINE
  8
0
 10
-102.018
 20
1443.83
 11
-101.769
 21
1444.13
  0
LINE
  8
0
 10
-101.769
 20
1444.13
 11
-101.484
 21
1444.4
  0
LINE
  8
0
 10
-101.484
 20
1444.4
 11
-101.168
 21
1444.63
  0
LINE
  8
0
 10
-101.168
 20
1444.63
 11
-100.825
 21
1444.82
  0
LINE
  8
0
 10
-100.825
 20
1444.82
 11
-100.462
 21
1444.96
  0
LINE
  8
0
 10
-100.462
 20
1444.96
 11
-100.083
 21
1445.06
  0
LINE
  8
0
 10
-100.083
 20
1445.06
 11
-99.6955
 21
1445.11
  0
LINE
  8
0
 10
-99.6955
 20
1445.11
 11
99.6955
 21
1445.11
  0
LINE
  8
0
 10
99.6955
 20
1445.11
 11
100.083
 21
1445.06
  0
LINE
  8
0
 10
100.083
 20
1445.06
 11
100.462
 21
1444.96
  0
LINE
  8
0
 10
100.462
 20
1444.96
 11
100.825
 21
1444.82
  0
LINE
  8
0
 10
100.825
 20
1444.82
 11
101.168
 21
1444.63
  0
LINE
  8
0
 10
101.168
 20
1444.63
 11
101.484
 21
1444.4
  0
LINE
  8
0
 10
101.484
 20
1444.4
 11
101.769
 21
1444.13
  0
LINE
  8
0
 10
101.769
 20
1444.13
 11
102.018
 21
1443.83
  0
LINE
  8
0
 10
102.018
 20
1443.83
 11
102.228
 21
1443.5
  0
LINE
  8
0
 10
102.228
 20
1443.5
 11
102.394
 21
1443.15
  0
LINE
  8
0
 10
102.394
 20
1443.15
 11
102.515
 21
1442.77
  0
LINE
  8
0
 10
102.515
 20
1442.77
 11
102.588
 21
1442.39
  0
LINE
  8
0
 10
102.588
 20
1442.39
 11
102.613
 21
1442
  0
LINE
  8
0
 10
102.613
 20
1442
 11
102.613
 21
1198
  0
LINE
  8
0
 10
102.613
 20
1198
 11
102.588
 21
1197.61
  0
LINE
  8
0
 10
102.588
 20
1197.61
 11
102.515
 21
1197.23
  0
LINE
  8
0
 10
102.515
 20
1197.23
 11
102.394
 21
1196.85
  0
LINE
  8
0
 10
102.394
 20
1196.85
 11
102.228
 21
1196.5
  0
LINE
  8
0
 10
102.228
 20
1196.5
 11
102.018
 21
1196.17
  0
LINE
  8
0
 10
102.018
 20
1196.17
 11
101.769
 21
1195.87
  0
LINE
  8
0
 10
101.769
 20
1195.87
 11
101.484
 21
1195.6
  0
LINE
  8
0
 10
101.484
 20
1195.6
 11
101.168
 21
1195.37
  0
LINE
  8
0
 10
101.168
 20
1195.37
 11
100.825
 21
1195.18
  0
LINE
  8
0
 10
100.825
 20
1195.18
 11
100.462
 21
1195.04
  0
LINE
  8
0
 10
100.462
 20
1195.04
 11
100.083
 21
1194.94
  0
LINE
  8
0
 10
100.083
 20
1194.94
 11
99.6955
 21
1194.89
  0
LINE
  8
0
 10
99.6955
 20
1194.89
 11
-99.6955
 21
1194.89
  0
LINE
  8
0
 10
100.937
 20
928.589
 11
101.545
 21
928.745
  0
LINE
  8
0
 10
101.545
 20
928.745
 11
102.129
 21
928.976
  0
LINE
  8
0
 10
102.129
 20
928.976
 11
102.679
 21
929.278
  0
LINE
  8
0
 10
102.679
 20
929.278
 11
103.187
 21
929.647
  0
LINE
  8
0
 10
103.187
 20
929.647
 11
103.645
 21
930.077
  0
LINE
  8
0
 10
103.645
 20
930.077
 11
104.045
 21
930.561
  0
LINE
  8
0
 10
104.045
 20
930.561
 11
104.382
 21
931.091
  0
LINE
  8
0
 10
104.382
 20
931.091
 11
104.649
 21
931.659
  0
LINE
  8
0
 10
104.649
 20
931.659
 11
104.843
 21
932.257
  0
LINE
  8
0
 10
104.843
 20
932.257
 11
104.961
 21
932.873
  0
LINE
  8
0
 10
104.961
 20
932.873
 11
105
 21
933.5
  0
LINE
  8
0
 10
105
 20
933.5
 11
105
 21
1178.5
  0
LINE
  8
0
 10
105
 20
1178.5
 11
104.961
 21
1179.13
  0
LINE
  8
0
 10
104.961
 20
1179.13
 11
104.843
 21
1179.74
  0
LINE
  8
0
 10
104.843
 20
1179.74
 11
104.649
 21
1180.34
  0
LINE
  8
0
 10
104.649
 20
1180.34
 11
104.382
 21
1180.91
  0
LINE
  8
0
 10
104.382
 20
1180.91
 11
104.045
 21
1181.44
  0
LINE
  8
0
 10
104.045
 20
1181.44
 11
103.645
 21
1181.92
  0
LINE
  8
0
 10
103.645
 20
1181.92
 11
103.187
 21
1182.35
  0
LINE
  8
0
 10
103.187
 20
1182.35
 11
102.679
 21
1182.72
  0
LINE
  8
0
 10
102.679
 20
1182.72
 11
102.129
 21
1183.02
  0
LINE
  8
0
 10
102.129
 20
1183.02
 11
101.545
 21
1183.26
  0
LINE
  8
0
 10
101.545
 20
1183.26
 11
100.937
 21
1183.41
  0
LINE
  8
0
 10
100.937
 20
1183.41
 11
100.314
 21
1183.49
  0
LINE
  8
0
 10
100.314
 20
1183.49
 11
-100.314
 21
1183.49
  0
LINE
  8
0
 10
-100.314
 20
1183.49
 11
-100.937
 21
1183.41
  0
LINE
  8
0
 10
-100.937
 20
1183.41
 11
-101.545
 21
1183.26
  0
LINE
  8
0
 10
-101.545
 20
1183.26
 11
-102.129
 21
1183.02
  0
LINE
  8
0
 10
-102.129
 20
1183.02
 11
-102.679
 21
1182.72
  0
LINE
  8
0
 10
-102.679
 20
1182.72
 11
-103.187
 21
1182.35
  0
LINE
  8
0
 10
-103.187
 20
1182.35
 11
-103.645
 21
1181.92
  0
LINE
  8
0
 10
-103.645
 20
1181.92
 11
-104.045
 21
1181.44
  0
LINE
  8
0
 10
-104.045
 20
1181.44
 11
-104.382
 21
1180.91
  0
LINE
  8
0
 10
-104.382
 20
1180.91
 11
-104.649
 21
1180.34
  0
LINE
  8
0
 10
-104.649
 20
1180.34
 11
-104.843
 21
1179.74
  0
LINE
  8
0
 10
-104.843
 20
1179.74
 11
-104.961
 21
1179.13
  0
LINE
  8
0
 10
-104.961
 20
1179.13
 11
-105
 21
1178.5
  0
LINE
  8
0
 10
-105
 20
1178.5
 11
-105
 21
933.5
  0
LINE
  8
0
 10
-105
 20
933.5
 11
-104.961
 21
932.873
  0
LINE
  8
0
 10
-104.961
 20
932.873
 11
-104.843
 21
932.257
  0
LINE
  8
0
 10
-104.843
 20
932.257
 11
-104.649
 21
931.659
  0
LINE
  8
0
 10
-104.649
 20
931.659
 11
-104.382
 21
931.091
  0
LINE
  8
0
 10
-104.382
 20
931.091
 11
-104.045
 21
930.561
  0
LINE
  8
0
 10
-104.045
 20
930.561
 11
-103.645
 21
930.077
  0
LINE
  8
0
 10
-103.645
 20
930.077
 11
-103.187
 21
929.647
  0
LINE
  8
0
 10
-103.187
 20
929.647
 11
-102.679
 21
929.278
  0
LINE
  8
0
 10
-102.679
 20
929.278
 11
-102.129
 21
928.976
  0
LINE
  8
0
 10
-102.129
 20
928.976
 11
-101.545
 21
928.745
  0
LINE
  8
0
 10
-101.545
 20
928.745
 11
-100.937
 21
928.589
  0
LINE
  8
0
 10
-100.937
 20
928.589
 11
-100.314
 21
928.51
  0
LINE
  8
0
 10
-100.314
 20
928.51
 11
100.314
 21
928.51
  0
LINE
  8
0
 10
100.314
 20
928.51
 11
100.937
 21
928.589
  0
LINE
  8
0
 10
97.3659
 20
1173.87
 11
97.0999
 21
1173.9
  0
LINE
  8
0
 10
97.0999
 20
1173.9
 11
96.8401
 21
1173.97
  0
LINE
  8
0
 10
96.8401
 20
1173.97
 11
96.5908
 21
1174.07
  0
LINE
  8
0
 10
96.5908
 20
1174.07
 11
96.3559
 21
1174.2
  0
LINE
  8
0
 10
96.3559
 20
1174.2
 11
96.1389
 21
1174.35
  0
LINE
  8
0
 10
96.1389
 20
1174.35
 11
95.9434
 21
1174.54
  0
LINE
  8
0
 10
95.9434
 20
1174.54
 11
95.7725
 21
1174.74
  0
LINE
  8
0
 10
95.7725
 20
1174.74
 11
95.6288
 21
1174.97
  0
LINE
  8
0
 10
95.6288
 20
1174.97
 11
95.5146
 21
1175.21
  0
LINE
  8
0
 10
95.5146
 20
1175.21
 11
95.4318
 21
1175.47
  0
LINE
  8
0
 10
95.4318
 20
1175.47
 11
95.3815
 21
1175.73
  0
LINE
  8
0
 10
95.3815
 20
1175.73
 11
95.3647
 21
1176
  0
LINE
  8
0
 10
95.3647
 20
1176
 11
95.3815
 21
1176.27
  0
LINE
  8
0
 10
95.3815
 20
1176.27
 11
95.4318
 21
1176.53
  0
LINE
  8
0
 10
95.4318
 20
1176.53
 11
95.5146
 21
1176.79
  0
LINE
  8
0
 10
95.5146
 20
1176.79
 11
95.6288
 21
1177.03
  0
LINE
  8
0
 10
95.6288
 20
1177.03
 11
95.7725
 21
1177.26
  0
LINE
  8
0
 10
95.7725
 20
1177.26
 11
95.9434
 21
1177.46
  0
LINE
  8
0
 10
95.9434
 20
1177.46
 11
96.1389
 21
1177.65
  0
LINE
  8
0
 10
96.1389
 20
1177.65
 11
96.3559
 21
1177.8
  0
LINE
  8
0
 10
96.3559
 20
1177.8
 11
96.5908
 21
1177.93
  0
LINE
  8
0
 10
96.5908
 20
1177.93
 11
96.8401
 21
1178.03
  0
LINE
  8
0
 10
96.8401
 20
1178.03
 11
97.0999
 21
1178.1
  0
LINE
  8
0
 10
97.0999
 20
1178.1
 11
97.3659
 21
1178.13
  0
LINE
  8
0
 10
97.3659
 20
1178.13
 11
97.6341
 21
1178.13
  0
LINE
  8
0
 10
97.6341
 20
1178.13
 11
97.9001
 21
1178.1
  0
LINE
  8
0
 10
97.9001
 20
1178.1
 11
98.1598
 21
1178.03
  0
LINE
  8
0
 10
98.1598
 20
1178.03
 11
98.4092
 21
1177.93
  0
LINE
  8
0
 10
98.4092
 20
1177.93
 11
98.6441
 21
1177.8
  0
LINE
  8
0
 10
98.6441
 20
1177.8
 11
98.8611
 21
1177.65
  0
LINE
  8
0
 10
98.8611
 20
1177.65
 11
99.0566
 21
1177.46
  0
LINE
  8
0
 10
99.0566
 20
1177.46
 11
99.2275
 21
1177.26
  0
LINE
  8
0
 10
99.2275
 20
1177.26
 11
99.3712
 21
1177.03
  0
LINE
  8
0
 10
99.3712
 20
1177.03
 11
99.4853
 21
1176.79
  0
LINE
  8
0
 10
99.4853
 20
1176.79
 11
99.5682
 21
1176.53
  0
LINE
  8
0
 10
99.5682
 20
1176.53
 11
99.6185
 21
1176.27
  0
LINE
  8
0
 10
99.6185
 20
1176.27
 11
99.6353
 21
1176
  0
LINE
  8
0
 10
99.6353
 20
1176
 11
99.6185
 21
1175.73
  0
LINE
  8
0
 10
99.6185
 20
1175.73
 11
99.5682
 21
1175.47
  0
LINE
  8
0
 10
99.5682
 20
1175.47
 11
99.4853
 21
1175.21
  0
LINE
  8
0
 10
99.4853
 20
1175.21
 11
99.3712
 21
1174.97
  0
LINE
  8
0
 10
99.3712
 20
1174.97
 11
99.2275
 21
1174.74
  0
LINE
  8
0
 10
99.2275
 20
1174.74
 11
99.0566
 21
1174.54
  0
LINE
  8
0
 10
99.0566
 20
1174.54
 11
98.8611
 21
1174.35
  0
LINE
  8
0
 10
98.8611
 20
1174.35
 11
98.6441
 21
1174.2
  0
LINE
  8
0
 10
98.6441
 20
1174.2
 11
98.4092
 21
1174.07
  0
LINE
  8
0
 10
98.4092
 20
1174.07
 11
98.1598
 21
1173.97
  0
LINE
  8
0
 10
98.1598
 20
1173.97
 11
97.9001
 21
1173.9
  0
LINE
  8
0
 10
97.9001
 20
1173.9
 11
97.6341
 21
1173.87
  0
LINE
  8
0
 10
97.6341
 20
1173.87
 11
97.3659
 21
1173.87
  0
LINE
  8
0
 10
-97.6341
 20
1173.87
 11
-97.9001
 21
1173.9
  0
LINE
  8
0
 10
-97.9001
 20
1173.9
 11
-98.1598
 21
1173.97
  0
LINE
  8
0
 10
-98.1598
 20
1173.97
 11
-98.4092
 21
1174.07
  0
LINE
  8
0
 10
-98.4092
 20
1174.07
 11
-98.6441
 21
1174.2
  0
LINE
  8
0
 10
-98.6441
 20
1174.2
 11
-98.8611
 21
1174.35
  0
LINE
  8
0
 10
-98.8611
 20
1174.35
 11
-99.0566
 21
1174.54
  0
LINE
  8
0
 10
-99.0566
 20
1174.54
 11
-99.2275
 21
1174.74
  0
LINE
  8
0
 10
-99.2275
 20
1174.74
 11
-99.3712
 21
1174.97
  0
LINE
  8
0
 10
-99.3712
 20
1174.97
 11
-99.4853
 21
1175.21
  0
LINE
  8
0
 10
-99.4853
 20
1175.21
 11
-99.5682
 21
1175.47
  0
LINE
  8
0
 10
-99.5682
 20
1175.47
 11
-99.6185
 21
1175.73
  0
LINE
  8
0
 10
-99.6185
 20
1175.73
 11
-99.6353
 21
1176
  0
LINE
  8
0
 10
-99.6353
 20
1176
 11
-99.6185
 21
1176.27
  0
LINE
  8
0
 10
-99.6185
 20
1176.27
 11
-99.5682
 21
1176.53
  0
LINE
  8
0
 10
-99.5682
 20
1176.53
 11
-99.4853
 21
1176.79
  0
LINE
  8
0
 10
-99.4853
 20
1176.79
 11
-99.3712
 21
1177.03
  0
LINE
  8
0
 10
-99.3712
 20
1177.03
 11
-99.2275
 21
1177.26
  0
LINE
  8
0
 10
-99.2275
 20
1177.26
 11
-99.0566
 21
1177.46
  0
LINE
  8
0
 10
-99.0566
 20
1177.46
 11
-98.8611
 21
1177.65
  0
LINE
  8
0
 10
-98.8611
 20
1177.65
 11
-98.6441
 21
1177.8
  0
LINE
  8
0
 10
-98.6441
 20
1177.8
 11
-98.4092
 21
1177.93
  0
LINE
  8
0
 10
-98.4092
 20
1177.93
 11
-98.1598
 21
1178.03
  0
LINE
  8
0
 10
-98.1598
 20
1178.03
 11
-97.9001
 21
1178.1
  0
LINE
  8
0
 10
-97.9001
 20
1178.1
 11
-97.6341
 21
1178.13
  0
LINE
  8
0
 10
-97.6341
 20
1178.13
 11
-97.3659
 21
1178.13
  0
LINE
  8
0
 10
-97.3659
 20
1178.13
 11
-97.0999
 21
1178.1
  0
LINE
  8
0
 10
-97.0999
 20
1178.1
 11
-96.8401
 21
1178.03
  0
LINE
  8
0
 10
-96.8401
 20
1178.03
 11
-96.5908
 21
1177.93
  0
LINE
  8
0
 10
-96.5908
 20
1177.93
 11
-96.3559
 21
1177.8
  0
LINE
  8
0
 10
-96.3559
 20
1177.8
 11
-96.1389
 21
1177.65
  0
LINE
  8
0
 10
-96.1389
 20
1177.65
 11
-95.9434
 21
1177.46
  0
LINE
  8
0
 10
-95.9434
 20
1177.46
 11
-95.7725
 21
1177.26
  0
LINE
  8
0
 10
-95.7725
 20
1177.26
 11
-95.6288
 21
1177.03
  0
LINE
  8
0
 10
-95.6288
 20
1177.03
 11
-95.5146
 21
1176.79
  0
LINE
  8
0
 10
-95.5146
 20
1176.79
 11
-95.4318
 21
1176.53
  0
LINE
  8
0
 10
-95.4318
 20
1176.53
 11
-95.3815
 21
1176.27
  0
LINE
  8
0
 10
-95.3815
 20
1176.27
 11
-95.3647
 21
1176
  0
LINE
  8
0
 10
-95.3647
 20
1176
 11
-95.3815
 21
1175.73
  0
LINE
  8
0
 10
-95.3815
 20
1175.73
 11
-95.4318
 21
1175.47
  0
LINE
  8
0
 10
-95.4318
 20
1175.47
 11
-95.5146
 21
1175.21
  0
LINE
  8
0
 10
-95.5146
 20
1175.21
 11
-95.6288
 21
1174.97
  0
LINE
  8
0
 10
-95.6288
 20
1174.97
 11
-95.7725
 21
1174.74
  0
LINE
  8
0
 10
-95.7725
 20
1174.74
 11
-95.9434
 21
1174.54
  0
LINE
  8
0
 10
-95.9434
 20
1174.54
 11
-96.1389
 21
1174.35
  0
LINE
  8
0
 10
-96.1389
 20
1174.35
 11
-96.3559
 21
1174.2
  0
LINE
  8
0
 10
-96.3559
 20
1174.2
 11
-96.5908
 21
1174.07
  0
LINE
  8
0
 10
-96.5908
 20
1174.07
 11
-96.8401
 21
1173.97
  0
LINE
  8
0
 10
-96.8401
 20
1173.97
 11
-97.0999
 21
1173.9
  0
LINE
  8
0
 10
-97.0999
 20
1173.9
 11
-97.3659
 21
1173.87
  0
LINE
  8
0
 10
-97.3659
 20
1173.87
 11
-97.6341
 21
1173.87
  0
LINE
  8
0
 10
97.3659
 20
933.869
 11
97.0999
 21
933.903
  0
LINE
  8
0
 10
97.0999
 20
933.903
 11
96.8401
 21
933.969
  0
LINE
  8
0
 10
96.8401
 20
933.969
 11
96.5908
 21
934.068
  0
LINE
  8
0
 10
96.5908
 20
934.068
 11
96.3559
 21
934.197
  0
LINE
  8
0
 10
96.3559
 20
934.197
 11
96.1389
 21
934.355
  0
LINE
  8
0
 10
96.1389
 20
934.355
 11
95.9434
 21
934.538
  0
LINE
  8
0
 10
95.9434
 20
934.538
 11
95.7725
 21
934.745
  0
LINE
  8
0
 10
95.7725
 20
934.745
 11
95.6288
 21
934.971
  0
LINE
  8
0
 10
95.6288
 20
934.971
 11
95.5146
 21
935.214
  0
LINE
  8
0
 10
95.5146
 20
935.214
 11
95.4318
 21
935.469
  0
LINE
  8
0
 10
95.4318
 20
935.469
 11
95.3815
 21
935.732
  0
LINE
  8
0
 10
95.3815
 20
935.732
 11
95.3647
 21
936
  0
LINE
  8
0
 10
95.3647
 20
936
 11
95.3815
 21
936.268
  0
LINE
  8
0
 10
95.3815
 20
936.268
 11
95.4318
 21
936.531
  0
LINE
  8
0
 10
95.4318
 20
936.531
 11
95.5146
 21
936.786
  0
LINE
  8
0
 10
95.5146
 20
936.786
 11
95.6288
 21
937.029
  0
LINE
  8
0
 10
95.6288
 20
937.029
 11
95.7725
 21
937.255
  0
LINE
  8
0
 10
95.7725
 20
937.255
 11
95.9434
 21
937.462
  0
LINE
  8
0
 10
95.9434
 20
937.462
 11
96.1389
 21
937.645
  0
LINE
  8
0
 10
96.1389
 20
937.645
 11
96.3559
 21
937.803
  0
LINE
  8
0
 10
96.3559
 20
937.803
 11
96.5908
 21
937.932
  0
LINE
  8
0
 10
96.5908
 20
937.932
 11
96.8401
 21
938.031
  0
LINE
  8
0
 10
96.8401
 20
938.031
 11
97.0999
 21
938.097
  0
LINE
  8
0
 10
97.0999
 20
938.097
 11
97.3659
 21
938.131
  0
LINE
  8
0
 10
97.3659
 20
938.131
 11
97.6341
 21
938.131
  0
LINE
  8
0
 10
97.6341
 20
938.131
 11
97.9001
 21
938.097
  0
LINE
  8
0
 10
97.9001
 20
938.097
 11
98.1598
 21
938.031
  0
LINE
  8
0
 10
98.1598
 20
938.031
 11
98.4092
 21
937.932
  0
LINE
  8
0
 10
98.4092
 20
937.932
 11
98.6441
 21
937.803
  0
LINE
  8
0
 10
98.6441
 20
937.803
 11
98.8611
 21
937.645
  0
LINE
  8
0
 10
98.8611
 20
937.645
 11
99.0566
 21
937.462
  0
LINE
  8
0
 10
99.0566
 20
937.462
 11
99.2275
 21
937.255
  0
LINE
  8
0
 10
99.2275
 20
937.255
 11
99.3712
 21
937.029
  0
LINE
  8
0
 10
99.3712
 20
937.029
 11
99.4853
 21
936.786
  0
LINE
  8
0
 10
99.4853
 20
936.786
 11
99.5682
 21
936.531
  0
LINE
  8
0
 10
99.5682
 20
936.531
 11
99.6185
 21
936.268
  0
LINE
  8
0
 10
99.6185
 20
936.268
 11
99.6353
 21
936
  0
LINE
  8
0
 10
99.6353
 20
936
 11
99.6185
 21
935.732
  0
LINE
  8
0
 10
99.6185
 20
935.732
 11
99.5682
 21
935.469
  0
LINE
  8
0
 10
99.5682
 20
935.469
 11
99.4853
 21
935.214
  0
LINE
  8
0
 10
99.4853
 20
935.214
 11
99.3712
 21
934.971
  0
LINE
  8
0
 10
99.3712
 20
934.971
 11
99.2275
 21
934.745
  0
LINE
  8
0
 10
99.2275
 20
934.745
 11
99.0566
 21
934.538
  0
LINE
  8
0
 10
99.0566
 20
934.538
 11
98.8611
 21
934.355
  0
LINE
  8
0
 10
98.8611
 20
934.355
 11
98.6441
 21
934.197
  0
LINE
  8
0
 10
98.6441
 20
934.197
 11
98.4092
 21
934.068
  0
LINE
  8
0
 10
98.4092
 20
934.068
 11
98.1598
 21
933.969
  0
LINE
  8
0
 10
98.1598
 20
933.969
 11
97.9001
 21
933.903
  0
LINE
  8
0
 10
97.9001
 20
933.903
 11
97.6341
 21
933.869
  0
LINE
  8
0
 10
97.6341
 20
933.869
 11
97.3659
 21
933.869
  0
LINE
  8
0
 10
-97.6341
 20
933.869
 11
-97.9001
 21
933.903
  0
LINE
  8
0
 10
-97.9001
 20
933.903
 11
-98.1598
 21
933.969
  0
LINE
  8
0
 10
-98.1598
 20
933.969
 11
-98.4092
 21
934.068
  0
LINE
  8
0
 10
-98.4092
 20
934.068
 11
-98.6441
 21
934.197
  0
LINE
  8
0
 10
-98.6441
 20
934.197
 11
-98.8611
 21
934.355
  0
LINE
  8
0
 10
-98.8611
 20
934.355
 11
-99.0566
 21
934.538
  0
LINE
  8
0
 10
-99.0566
 20
934.538
 11
-99.2275
 21
934.745
  0
LINE
  8
0
 10
-99.2275
 20
934.745
 11
-99.3712
 21
934.971
  0
LINE
  8
0
 10
-99.3712
 20
934.971
 11
-99.4853
 21
935.214
  0
LINE
  8
0
 10
-99.4853
 20
935.214
 11
-99.5682
 21
935.469
  0
LINE
  8
0
 10
-99.5682
 20
935.469
 11
-99.6185
 21
935.732
  0
LINE
  8
0
 10
-99.6185
 20
935.732
 11
-99.6353
 21
936
  0
LINE
  8
0
 10
-99.6353
 20
936
 11
-99.6185
 21
936.268
  0
LINE
  8
0
 10
-99.6185
 20
936.268
 11
-99.5682
 21
936.531
  0
LINE
  8
0
 10
-99.5682
 20
936.531
 11
-99.4853
 21
936.786
  0
LINE
  8
0
 10
-99.4853
 20
936.786
 11
-99.3712
 21
937.029
  0
LINE
  8
0
 10
-99.3712
 20
937.029
 11
-99.2275
 21
937.255
  0
LINE
  8
0
 10
-99.2275
 20
937.255
 11
-99.0566
 21
937.462
  0
LINE
  8
0
 10
-99.0566
 20
937.462
 11
-98.8611
 21
937.645
  0
LINE
  8
0
 10
-98.8611
 20
937.645
 11
-98.6441
 21
937.803
  0
LINE
  8
0
 10
-98.6441
 20
937.803
 11
-98.4092
 21
937.932
  0
LINE
  8
0
 10
-98.4092
 20
937.932
 11
-98.1598
 21
938.031
  0
LINE
  8
0
 10
-98.1598
 20
938.031
 11
-97.9001
 21
938.097
  0
LINE
  8
0
 10
-97.9001
 20
938.097
 11
-97.6341
 21
938.131
  0
LINE
  8
0
 10
-97.6341
 20
938.131
 11
-97.3659
 21
938.131
  0
LINE
  8
0
 10
-97.3659
 20
938.131
 11
-97.0999
 21
938.097
  0
LINE
  8
0
 10
-97.0999
 20
938.097
 11
-96.8401
 21
938.031
  0
LINE
  8
0
 10
-96.8401
 20
938.031
 11
-96.5908
 21
937.932
  0
LINE
  8
0
 10
-96.5908
 20
937.932
 11
-96.3559
 21
937.803
  0
LINE
  8
0
 10
-96.3559
 20
937.803
 11
-96.1389
 21
937.645
  0
LINE
  8
0
 10
-96.1389
 20
937.645
 11
-95.9434
 21
937.462
  0
LINE
  8
0
 10
-95.9434
 20
937.462
 11
-95.7725
 21
937.255
  0
LINE
  8
0
 10
-95.7725
 20
937.255
 11
-95.6288
 21
937.029
  0
LINE
  8
0
 10
-95.6288
 20
937.029
 11
-95.5146
 21
936.786
  0
LINE
  8
0
 10
-95.5146
 20
936.786
 11
-95.4318
 21
936.531
  0
LINE
  8
0
 10
-95.4318
 20
936.531
 11
-95.3815
 21
936.268
  0
LINE
  8
0
 10
-95.3815
 20
936.268
 11
-95.3647
 21
936
  0
LINE
  8
0
 10
-95.3647
 20
936
 11
-95.3815
 21
935.732
  0
LINE
  8
0
 10
-95.3815
 20
935.732
 11
-95.4318
 21
935.469
  0
LINE
  8
0
 10
-95.4318
 20
935.469
 11
-95.5146
 21
935.214
  0
LINE
  8
0
 10
-95.5146
 20
935.214
 11
-95.6288
 21
934.971
  0
LINE
  8
0
 10
-95.6288
 20
934.971
 11
-95.7725
 21
934.745
  0
LINE
  8
0
 10
-95.7725
 20
934.745
 11
-95.9434
 21
934.538
  0
LINE
  8
0
 10
-95.9434
 20
934.538
 11
-96.1389
 21
934.355
  0
LINE
  8
0
 10
-96.1389
 20
934.355
 11
-96.3559
 21
934.197
  0
LINE
  8
0
 10
-96.3559
 20
934.197
 11
-96.5908
 21
934.068
  0
LINE
  8
0
 10
-96.5908
 20
934.068
 11
-96.8401
 21
933.969
  0
LINE
  8
0
 10
-96.8401
 20
933.969
 11
-97.0999
 21
933.903
  0
LINE
  8
0
 10
-97.0999
 20
933.903
 11
-97.3659
 21
933.869
  0
LINE
  8
0
 10
-97.3659
 20
933.869
 11
-97.6341
 21
933.869
  0
ENDSEC
  0
SECTION
  2
OBJECTS
  0
DICTIONARY
  0
ENDSEC
  0
EOF
