  0
SECTION
  2
BLOCKS
  0
ENDSEC
  0
SECTION
  2
ENTITIES
  0
LINE
  8
0
 10
70.9369
 20
153.089
 11
71.5451
 21
153.245
  0
LINE
  8
0
 10
71.5451
 20
153.245
 11
72.1289
 21
153.476
  0
LINE
  8
0
 10
72.1289
 20
153.476
 11
72.6791
 21
153.778
  0
LINE
  8
0
 10
72.6791
 20
153.778
 11
73.1871
 21
154.147
  0
LINE
  8
0
 10
73.1871
 20
154.147
 11
73.6448
 21
154.577
  0
LINE
  8
0
 10
73.6448
 20
154.577
 11
74.0451
 21
155.061
  0
LINE
  8
0
 10
74.0451
 20
155.061
 11
74.3815
 21
155.591
  0
LINE
  8
0
 10
74.3815
 20
155.591
 11
74.6489
 21
156.159
  0
LINE
  8
0
 10
74.6489
 20
156.159
 11
74.8429
 21
156.757
  0
LINE
  8
0
 10
74.8429
 20
156.757
 11
74.9606
 21
157.373
  0
LINE
  8
0
 10
74.9606
 20
157.373
 11
75
 21
158
  0
LINE
  8
0
 10
75
 20
158
 11
75
 21
238
  0
LINE
  8
0
 10
75
 20
238
 11
74.9606
 21
238.627
  0
LINE
  8
0
 10
74.9606
 20
238.627
 11
74.8429
 21
239.243
  0
LINE
  8
0
 10
74.8429
 20
239.243
 11
74.6489
 21
239.841
  0
LINE
  8
0
 10
74.6489
 20
239.841
 11
74.3815
 21
240.409
  0
LINE
  8
0
 10
74.3815
 20
240.409
 11
74.0451
 21
240.939
  0
LINE
  8
0
 10
74.0451
 20
240.939
 11
73.6448
 21
241.423
  0
LINE
  8
0
 10
73.6448
 20
241.423
 11
73.1871
 21
241.853
  0
LINE
  8
0
 10
73.1871
 20
241.853
 11
72.6791
 21
242.222
  0
LINE
  8
0
 10
72.6791
 20
242.222
 11
72.1289
 21
242.524
  0
LINE
  8
0
 10
72.1289
 20
242.524
 11
71.5451
 21
242.755
  0
LINE
  8
0
 10
71.5451
 20
242.755
 11
70.9369
 21
242.911
  0
LINE
  8
0
 10
70.9369
 20
242.911
 11
70.3139
 21
242.99
  0
LINE
  8
0
 10
70.3139
 20
242.99
 11
-70.3139
 21
242.99
  0
LINE
  8
0
 10
-70.3139
 20
242.99
 11
-70.9369
 21
242.911
  0
LINE
  8
0
 10
-70.9369
 20
242.911
 11
-71.5451
 21
242.755
  0
LINE
  8
0
 10
-71.5451
 20
242.755
 11
-72.1289
 21
242.524
  0
LINE
  8
0
 10
-72.1289
 20
242.524
 11
-72.6791
 21
242.222
  0
LINE
  8
0
 10
-72.6791
 20
242.222
 11
-73.1871
 21
241.853
  0
LINE
  8
0
 10
-73.1871
 20
241.853
 11
-73.6448
 21
241.423
  0
LINE
  8
0
 10
-73.6448
 20
241.423
 11
-74.0451
 21
240.939
  0
LINE
  8
0
 10
-74.0451
 20
240.939
 11
-74.3815
 21
240.409
  0
LINE
  8
0
 10
-74.3815
 20
240.409
 11
-74.6489
 21
239.841
  0
LINE
  8
0
 10
-74.6489
 20
239.841
 11
-74.8429
 21
239.243
  0
LINE
  8
0
 10
-74.8429
 20
239.243
 11
-74.9606
 21
238.627
  0
LINE
  8
0
 10
-74.9606
 20
238.627
 11
-75
 21
238
  0
LINE
  8
0
 10
-75
 20
238
 11
-75
 21
158
  0
LINE
  8
0
 10
-75
 20
158
 11
-74.9606
 21
157.373
  0
LINE
  8
0
 10
-74.9606
 20
157.373
 11
-74.8429
 21
156.757
  0
LINE
  8
0
 10
-74.8429
 20
156.757
 11
-74.6489
 21
156.159
  0
LINE
  8
0
 10
-74.6489
 20
156.159
 11
-74.3815
 21
155.591
  0
LINE
  8
0
 10
-74.3815
 20
155.591
 11
-74.0451
 21
155.061
  0
LINE
  8
0
 10
-74.0451
 20
155.061
 11
-73.6448
 21
154.577
  0
LINE
  8
0
 10
-73.6448
 20
154.577
 11
-73.1871
 21
154.147
  0
LINE
  8
0
 10
-73.1871
 20
154.147
 11
-72.6791
 21
153.778
  0
LINE
  8
0
 10
-72.6791
 20
153.778
 11
-72.1289
 21
153.476
  0
LINE
  8
0
 10
-72.1289
 20
153.476
 11
-71.5451
 21
153.245
  0
LINE
  8
0
 10
-71.5451
 20
153.245
 11
-70.9369
 21
153.089
  0
LINE
  8
0
 10
-70.9369
 20
153.089
 11
-70.3139
 21
153.01
  0
LINE
  8
0
 10
-70.3139
 20
153.01
 11
70.3139
 21
153.01
  0
LINE
  8
0
 10
70.3139
 20
153.01
 11
70.9369
 21
153.089
  0
LINE
  8
0
 10
-69.993
 20
154.388
 11
-70.4751
 21
154.449
  0
LINE
  8
0
 10
-70.4751
 20
154.449
 11
-70.9457
 21
154.57
  0
LINE
  8
0
 10
-70.9457
 20
154.57
 11
-71.3975
 21
154.749
  0
LINE
  8
0
 10
-71.3975
 20
154.749
 11
-71.8234
 21
154.983
  0
LINE
  8
0
 10
-71.8234
 20
154.983
 11
-72.2165
 21
155.269
  0
LINE
  8
0
 10
-72.2165
 20
155.269
 11
-72.5707
 21
155.601
  0
LINE
  8
0
 10
-72.5707
 20
155.601
 11
-72.8805
 21
155.976
  0
LINE
  8
0
 10
-72.8805
 20
155.976
 11
-73.1408
 21
156.386
  0
LINE
  8
0
 10
-73.1408
 20
156.386
 11
-73.3477
 21
156.826
  0
LINE
  8
0
 10
-73.3477
 20
156.826
 11
-73.4979
 21
157.288
  0
LINE
  8
0
 10
-73.4979
 20
157.288
 11
-73.589
 21
157.765
  0
LINE
  8
0
 10
-73.589
 20
157.765
 11
-73.6195
 21
158.25
  0
LINE
  8
0
 10
-73.6195
 20
158.25
 11
-73.6195
 21
237.75
  0
LINE
  8
0
 10
-73.6195
 20
237.75
 11
-73.589
 21
238.235
  0
LINE
  8
0
 10
-73.589
 20
238.235
 11
-73.4979
 21
238.712
  0
LINE
  8
0
 10
-73.4979
 20
238.712
 11
-73.3477
 21
239.174
  0
LINE
  8
0
 10
-73.3477
 20
239.174
 11
-73.1408
 21
239.614
  0
LINE
  8
0
 10
-73.1408
 20
239.614
 11
-72.8805
 21
240.024
  0
LINE
  8
0
 10
-72.8805
 20
240.024
 11
-72.5707
 21
240.399
  0
LINE
  8
0
 10
-72.5707
 20
240.399
 11
-72.2165
 21
240.731
  0
LINE
  8
0
 10
-72.2165
 20
240.731
 11
-71.8234
 21
241.017
  0
LINE
  8
0
 10
-71.8234
 20
241.017
 11
-71.3975
 21
241.251
  0
LINE
  8
0
 10
-71.3975
 20
241.251
 11
-70.9457
 21
241.43
  0
LINE
  8
0
 10
-70.9457
 20
241.43
 11
-70.4751
 21
241.551
  0
LINE
  8
0
 10
-70.4751
 20
241.551
 11
-69.993
 21
241.612
  0
LINE
  8
0
 10
-69.993
 20
241.612
 11
69.993
 21
241.612
  0
LINE
  8
0
 10
69.993
 20
241.612
 11
70.4751
 21
241.551
  0
LINE
  8
0
 10
70.4751
 20
241.551
 11
70.9457
 21
241.43
  0
LINE
  8
0
 10
70.9457
 20
241.43
 11
71.3975
 21
241.251
  0
LINE
  8
0
 10
71.3975
 20
241.251
 11
71.8234
 21
241.017
  0
LINE
  8
0
 10
71.8234
 20
241.017
 11
72.2165
 21
240.731
  0
LINE
  8
0
 10
72.2165
 20
240.731
 11
72.5707
 21
240.399
  0
LINE
  8
0
 10
72.5707
 20
240.399
 11
72.8805
 21
240.024
  0
LINE
  8
0
 10
72.8805
 20
240.024
 11
73.1408
 21
239.614
  0
LINE
  8
0
 10
73.1408
 20
239.614
 11
73.3477
 21
239.174
  0
LINE
  8
0
 10
73.3477
 20
239.174
 11
73.4979
 21
238.712
  0
LINE
  8
0
 10
73.4979
 20
238.712
 11
73.589
 21
238.235
  0
LINE
  8
0
 10
73.589
 20
238.235
 11
73.6195
 21
237.75
  0
LINE
  8
0
 10
73.6195
 20
237.75
 11
73.6195
 21
158.25
  0
LINE
  8
0
 10
73.6195
 20
158.25
 11
73.589
 21
157.765
  0
LINE
  8
0
 10
73.589
 20
157.765
 11
73.4979
 21
157.288
  0
LINE
  8
0
 10
73.4979
 20
157.288
 11
73.3477
 21
156.826
  0
LINE
  8
0
 10
73.3477
 20
156.826
 11
73.1408
 21
156.386
  0
LINE
  8
0
 10
73.1408
 20
156.386
 11
72.8805
 21
155.976
  0
LINE
  8
0
 10
72.8805
 20
155.976
 11
72.5707
 21
155.601
  0
LINE
  8
0
 10
72.5707
 20
155.601
 11
72.2165
 21
155.269
  0
LINE
  8
0
 10
72.2165
 20
155.269
 11
71.8234
 21
154.983
  0
LINE
  8
0
 10
71.8234
 20
154.983
 11
71.3975
 21
154.749
  0
LINE
  8
0
 10
71.3975
 20
154.749
 11
70.9457
 21
154.57
  0
LINE
  8
0
 10
70.9457
 20
154.57
 11
70.4751
 21
154.449
  0
LINE
  8
0
 10
70.4751
 20
154.449
 11
69.993
 21
154.388
  0
LINE
  8
0
 10
69.993
 20
154.388
 11
-69.993
 21
154.388
  0
LINE
  8
0
 10
70.9369
 20
54.0886
 11
71.5451
 21
54.2447
  0
LINE
  8
0
 10
71.5451
 20
54.2447
 11
72.1289
 21
54.4759
  0
LINE
  8
0
 10
72.1289
 20
54.4759
 11
72.6791
 21
54.7784
  0
LINE
  8
0
 10
72.6791
 20
54.7784
 11
73.1871
 21
55.1474
  0
LINE
  8
0
 10
73.1871
 20
55.1474
 11
73.6448
 21
55.5773
  0
LINE
  8
0
 10
73.6448
 20
55.5773
 11
74.0451
 21
56.0611
  0
LINE
  8
0
 10
74.0451
 20
56.0611
 11
74.3815
 21
56.5912
  0
LINE
  8
0
 10
74.3815
 20
56.5912
 11
74.6489
 21
57.1594
  0
LINE
  8
0
 10
74.6489
 20
57.1594
 11
74.8429
 21
57.7566
  0
LINE
  8
0
 10
74.8429
 20
57.7566
 11
74.9606
 21
58.3733
  0
LINE
  8
0
 10
74.9606
 20
58.3733
 11
75
 21
59
  0
LINE
  8
0
 10
75
 20
59
 11
75
 21
139
  0
LINE
  8
0
 10
75
 20
139
 11
74.9606
 21
139.627
  0
LINE
  8
0
 10
74.9606
 20
139.627
 11
74.8429
 21
140.243
  0
LINE
  8
0
 10
74.8429
 20
140.243
 11
74.6489
 21
140.841
  0
LINE
  8
0
 10
74.6489
 20
140.841
 11
74.3815
 21
141.409
  0
LINE
  8
0
 10
74.3815
 20
141.409
 11
74.0451
 21
141.939
  0
LINE
  8
0
 10
74.0451
 20
141.939
 11
73.6448
 21
142.423
  0
LINE
  8
0
 10
73.6448
 20
142.423
 11
73.1871
 21
142.853
  0
LINE
  8
0
 10
73.1871
 20
142.853
 11
72.6791
 21
143.222
  0
LINE
  8
0
 10
72.6791
 20
143.222
 11
72.1289
 21
143.524
  0
LINE
  8
0
 10
72.1289
 20
143.524
 11
71.5451
 21
143.755
  0
LINE
  8
0
 10
71.5451
 20
143.755
 11
70.9369
 21
143.911
  0
LINE
  8
0
 10
70.9369
 20
143.911
 11
70.3139
 21
143.99
  0
LINE
  8
0
 10
70.3139
 20
143.99
 11
-70.3139
 21
143.99
  0
LINE
  8
0
 10
-70.3139
 20
143.99
 11
-70.9369
 21
143.911
  0
LINE
  8
0
 10
-70.9369
 20
143.911
 11
-71.5451
 21
143.755
  0
LINE
  8
0
 10
-71.5451
 20
143.755
 11
-72.1289
 21
143.524
  0
LINE
  8
0
 10
-72.1289
 20
143.524
 11
-72.6791
 21
143.222
  0
LINE
  8
0
 10
-72.6791
 20
143.222
 11
-73.1871
 21
142.853
  0
LINE
  8
0
 10
-73.1871
 20
142.853
 11
-73.6448
 21
142.423
  0
LINE
  8
0
 10
-73.6448
 20
142.423
 11
-74.0451
 21
141.939
  0
LINE
  8
0
 10
-74.0451
 20
141.939
 11
-74.3815
 21
141.409
  0
LINE
  8
0
 10
-74.3815
 20
141.409
 11
-74.6489
 21
140.841
  0
LINE
  8
0
 10
-74.6489
 20
140.841
 11
-74.8429
 21
140.243
  0
LINE
  8
0
 10
-74.8429
 20
140.243
 11
-74.9606
 21
139.627
  0
LINE
  8
0
 10
-74.9606
 20
139.627
 11
-75
 21
139
  0
LINE
  8
0
 10
-75
 20
139
 11
-75
 21
59
  0
LINE
  8
0
 10
-75
 20
59
 11
-74.9606
 21
58.3733
  0
LINE
  8
0
 10
-74.9606
 20
58.3733
 11
-74.8429
 21
57.7566
  0
LINE
  8
0
 10
-74.8429
 20
57.7566
 11
-74.6489
 21
57.1594
  0
LINE
  8
0
 10
-74.6489
 20
57.1594
 11
-74.3815
 21
56.5912
  0
LINE
  8
0
 10
-74.3815
 20
56.5912
 11
-74.0451
 21
56.0611
  0
LINE
  8
0
 10
-74.0451
 20
56.0611
 11
-73.6448
 21
55.5773
  0
LINE
  8
0
 10
-73.6448
 20
55.5773
 11
-73.1871
 21
55.1474
  0
LINE
  8
0
 10
-73.1871
 20
55.1474
 11
-72.6791
 21
54.7784
  0
LINE
  8
0
 10
-72.6791
 20
54.7784
 11
-72.1289
 21
54.4759
  0
LINE
  8
0
 10
-72.1289
 20
54.4759
 11
-71.5451
 21
54.2447
  0
LINE
  8
0
 10
-71.5451
 20
54.2447
 11
-70.9369
 21
54.0886
  0
LINE
  8
0
 10
-70.9369
 20
54.0886
 11
-70.3139
 21
54.0099
  0
LINE
  8
0
 10
-70.3139
 20
54.0099
 11
70.3139
 21
54.0099
  0
LINE
  8
0
 10
70.3139
 20
54.0099
 11
70.9369
 21
54.0886
  0
LINE
  8
0
 10
67.387
 20
134.704
 11
67.1627
 21
134.732
  0
LINE
  8
0
 10
67.1627
 20
134.732
 11
66.9438
 21
134.788
  0
LINE
  8
0
 10
66.9438
 20
134.788
 11
66.7336
 21
134.871
  0
LINE
  8
0
 10
66.7336
 20
134.871
 11
66.5355
 21
134.98
  0
LINE
  8
0
 10
66.5355
 20
134.98
 11
66.3526
 21
135.113
  0
LINE
  8
0
 10
66.3526
 20
135.113
 11
66.1879
 21
135.268
  0
LINE
  8
0
 10
66.1879
 20
135.268
 11
66.0438
 21
135.442
  0
LINE
  8
0
 10
66.0438
 20
135.442
 11
65.9226
 21
135.633
  0
LINE
  8
0
 10
65.9226
 20
135.633
 11
65.8264
 21
135.837
  0
LINE
  8
0
 10
65.8264
 20
135.837
 11
65.7565
 21
136.052
  0
LINE
  8
0
 10
65.7565
 20
136.052
 11
65.7142
 21
136.274
  0
LINE
  8
0
 10
65.7142
 20
136.274
 11
65.7
 21
136.5
  0
LINE
  8
0
 10
65.7
 20
136.5
 11
65.7142
 21
136.726
  0
LINE
  8
0
 10
65.7142
 20
136.726
 11
65.7565
 21
136.948
  0
LINE
  8
0
 10
65.7565
 20
136.948
 11
65.8264
 21
137.163
  0
LINE
  8
0
 10
65.8264
 20
137.163
 11
65.9226
 21
137.367
  0
LINE
  8
0
 10
65.9226
 20
137.367
 11
66.0438
 21
137.558
  0
LINE
  8
0
 10
66.0438
 20
137.558
 11
66.1879
 21
137.732
  0
LINE
  8
0
 10
66.1879
 20
137.732
 11
66.3526
 21
137.887
  0
LINE
  8
0
 10
66.3526
 20
137.887
 11
66.5355
 21
138.02
  0
LINE
  8
0
 10
66.5355
 20
138.02
 11
66.7336
 21
138.129
  0
LINE
  8
0
 10
66.7336
 20
138.129
 11
66.9438
 21
138.212
  0
LINE
  8
0
 10
66.9438
 20
138.212
 11
67.1627
 21
138.268
  0
LINE
  8
0
 10
67.1627
 20
138.268
 11
67.387
 21
138.296
  0
LINE
  8
0
 10
67.387
 20
138.296
 11
67.613
 21
138.296
  0
LINE
  8
0
 10
67.613
 20
138.296
 11
67.8373
 21
138.268
  0
LINE
  8
0
 10
67.8373
 20
138.268
 11
68.0562
 21
138.212
  0
LINE
  8
0
 10
68.0562
 20
138.212
 11
68.2664
 21
138.129
  0
LINE
  8
0
 10
68.2664
 20
138.129
 11
68.4645
 21
138.02
  0
LINE
  8
0
 10
68.4645
 20
138.02
 11
68.6474
 21
137.887
  0
LINE
  8
0
 10
68.6474
 20
137.887
 11
68.8121
 21
137.732
  0
LINE
  8
0
 10
68.8121
 20
137.732
 11
68.9562
 21
137.558
  0
LINE
  8
0
 10
68.9562
 20
137.558
 11
69.0773
 21
137.367
  0
LINE
  8
0
 10
69.0773
 20
137.367
 11
69.1736
 21
137.163
  0
LINE
  8
0
 10
69.1736
 20
137.163
 11
69.2434
 21
136.948
  0
LINE
  8
0
 10
69.2434
 20
136.948
 11
69.2858
 21
136.726
  0
LINE
  8
0
 10
69.2858
 20
136.726
 11
69.3
 21
136.5
  0
LINE
  8
0
 10
69.3
 20
136.5
 11
69.2858
 21
136.274
  0
LINE
  8
0
 10
69.2858
 20
136.274
 11
69.2434
 21
136.052
  0
LINE
  8
0
 10
69.2434
 20
136.052
 11
69.1736
 21
135.837
  0
LINE
  8
0
 10
69.1736
 20
135.837
 11
69.0773
 21
135.633
  0
LINE
  8
0
 10
69.0773
 20
135.633
 11
68.9562
 21
135.442
  0
LINE
  8
0
 10
68.9562
 20
135.442
 11
68.8121
 21
135.268
  0
LINE
  8
0
 10
68.8121
 20
135.268
 11
68.6474
 21
135.113
  0
LINE
  8
0
 10
68.6474
 20
135.113
 11
68.4645
 21
134.98
  0
LINE
  8
0
 10
68.4645
 20
134.98
 11
68.2664
 21
134.871
  0
LINE
  8
0
 10
68.2664
 20
134.871
 11
68.0562
 21
134.788
  0
LINE
  8
0
 10
68.0562
 20
134.788
 11
67.8373
 21
134.732
  0
LINE
  8
0
 10
67.8373
 20
134.732
 11
67.613
 21
134.704
  0
LINE
  8
0
 10
67.613
 20
134.704
 11
67.387
 21
134.704
  0
LINE
  8
0
 10
-67.613
 20
134.704
 11
-67.8373
 21
134.732
  0
LINE
  8
0
 10
-67.8373
 20
134.732
 11
-68.0562
 21
134.788
  0
LINE
  8
0
 10
-68.0562
 20
134.788
 11
-68.2664
 21
134.871
  0
LINE
  8
0
 10
-68.2664
 20
134.871
 11
-68.4645
 21
134.98
  0
LINE
  8
0
 10
-68.4645
 20
134.98
 11
-68.6474
 21
135.113
  0
LINE
  8
0
 10
-68.6474
 20
135.113
 11
-68.8121
 21
135.268
  0
LINE
  8
0
 10
-68.8121
 20
135.268
 11
-68.9562
 21
135.442
  0
LINE
  8
0
 10
-68.9562
 20
135.442
 11
-69.0773
 21
135.633
  0
LINE
  8
0
 10
-69.0773
 20
135.633
 11
-69.1736
 21
135.837
  0
LINE
  8
0
 10
-69.1736
 20
135.837
 11
-69.2434
 21
136.052
  0
LINE
  8
0
 10
-69.2434
 20
136.052
 11
-69.2858
 21
136.274
  0
LINE
  8
0
 10
-69.2858
 20
136.274
 11
-69.3
 21
136.5
  0
LINE
  8
0
 10
-69.3
 20
136.5
 11
-69.2858
 21
136.726
  0
LINE
  8
0
 10
-69.2858
 20
136.726
 11
-69.2434
 21
136.948
  0
LINE
  8
0
 10
-69.2434
 20
136.948
 11
-69.1736
 21
137.163
  0
LINE
  8
0
 10
-69.1736
 20
137.163
 11
-69.0773
 21
137.367
  0
LINE
  8
0
 10
-69.0773
 20
137.367
 11
-68.9562
 21
137.558
  0
LINE
  8
0
 10
-68.9562
 20
137.558
 11
-68.8121
 21
137.732
  0
LINE
  8
0
 10
-68.8121
 20
137.732
 11
-68.6474
 21
137.887
  0
LINE
  8
0
 10
-68.6474
 20
137.887
 11
-68.4645
 21
138.02
  0
LINE
  8
0
 10
-68.4645
 20
138.02
 11
-68.2664
 21
138.129
  0
LINE
  8
0
 10
-68.2664
 20
138.129
 11
-68.0562
 21
138.212
  0
LINE
  8
0
 10
-68.0562
 20
138.212
 11
-67.8373
 21
138.268
  0
LINE
  8
0
 10
-67.8373
 20
138.268
 11
-67.613
 21
138.296
  0
LINE
  8
0
 10
-67.613
 20
138.296
 11
-67.387
 21
138.296
  0
LINE
  8
0
 10
-67.387
 20
138.296
 11
-67.1627
 21
138.268
  0
LINE
  8
0
 10
-67.1627
 20
138.268
 11
-66.9438
 21
138.212
  0
LINE
  8
0
 10
-66.9438
 20
138.212
 11
-66.7336
 21
138.129
  0
LINE
  8
0
 10
-66.7336
 20
138.129
 11
-66.5355
 21
138.02
  0
LINE
  8
0
 10
-66.5355
 20
138.02
 11
-66.3526
 21
137.887
  0
LINE
  8
0
 10
-66.3526
 20
137.887
 11
-66.1879
 21
137.732
  0
LINE
  8
0
 10
-66.1879
 20
137.732
 11
-66.0438
 21
137.558
  0
LINE
  8
0
 10
-66.0438
 20
137.558
 11
-65.9226
 21
137.367
  0
LINE
  8
0
 10
-65.9226
 20
137.367
 11
-65.8264
 21
137.163
  0
LINE
  8
0
 10
-65.8264
 20
137.163
 11
-65.7565
 21
136.948
  0
LINE
  8
0
 10
-65.7565
 20
136.948
 11
-65.7142
 21
136.726
  0
LINE
  8
0
 10
-65.7142
 20
136.726
 11
-65.7
 21
136.5
  0
LINE
  8
0
 10
-65.7
 20
136.5
 11
-65.7142
 21
136.274
  0
LINE
  8
0
 10
-65.7142
 20
136.274
 11
-65.7565
 21
136.052
  0
LINE
  8
0
 10
-65.7565
 20
136.052
 11
-65.8264
 21
135.837
  0
LINE
  8
0
 10
-65.8264
 20
135.837
 11
-65.9226
 21
135.633
  0
LINE
  8
0
 10
-65.9226
 20
135.633
 11
-66.0438
 21
135.442
  0
LINE
  8
0
 10
-66.0438
 20
135.442
 11
-66.1879
 21
135.268
  0
LINE
  8
0
 10
-66.1879
 20
135.268
 11
-66.3526
 21
135.113
  0
LINE
  8
0
 10
-66.3526
 20
135.113
 11
-66.5355
 21
134.98
  0
LINE
  8
0
 10
-66.5355
 20
134.98
 11
-66.7336
 21
134.871
  0
LINE
  8
0
 10
-66.7336
 20
134.871
 11
-66.9438
 21
134.788
  0
LINE
  8
0
 10
-66.9438
 20
134.788
 11
-67.1627
 21
134.732
  0
LINE
  8
0
 10
-67.1627
 20
134.732
 11
-67.387
 21
134.704
  0
LINE
  8
0
 10
-67.387
 20
134.704
 11
-67.613
 21
134.704
  0
LINE
  8
0
 10
-67.613
 20
59.7036
 11
-67.8373
 21
59.7319
  0
LINE
  8
0
 10
-67.8373
 20
59.7319
 11
-68.0562
 21
59.7881
  0
LINE
  8
0
 10
-68.0562
 20
59.7881
 11
-68.2664
 21
59.8713
  0
LINE
  8
0
 10
-68.2664
 20
59.8713
 11
-68.4645
 21
59.9802
  0
LINE
  8
0
 10
-68.4645
 20
59.9802
 11
-68.6474
 21
60.1131
  0
LINE
  8
0
 10
-68.6474
 20
60.1131
 11
-68.8121
 21
60.2678
  0
LINE
  8
0
 10
-68.8121
 20
60.2678
 11
-68.9562
 21
60.442
  0
LINE
  8
0
 10
-68.9562
 20
60.442
 11
-69.0773
 21
60.6328
  0
LINE
  8
0
 10
-69.0773
 20
60.6328
 11
-69.1736
 21
60.8374
  0
LINE
  8
0
 10
-69.1736
 20
60.8374
 11
-69.2434
 21
61.0524
  0
LINE
  8
0
 10
-69.2434
 20
61.0524
 11
-69.2858
 21
61.2744
  0
LINE
  8
0
 10
-69.2858
 20
61.2744
 11
-69.3
 21
61.5
  0
LINE
  8
0
 10
-69.3
 20
61.5
 11
-69.2858
 21
61.7256
  0
LINE
  8
0
 10
-69.2858
 20
61.7256
 11
-69.2434
 21
61.9476
  0
LINE
  8
0
 10
-69.2434
 20
61.9476
 11
-69.1736
 21
62.1626
  0
LINE
  8
0
 10
-69.1736
 20
62.1626
 11
-69.0773
 21
62.3672
  0
LINE
  8
0
 10
-69.0773
 20
62.3672
 11
-68.9562
 21
62.558
  0
LINE
  8
0
 10
-68.9562
 20
62.558
 11
-68.8121
 21
62.7322
  0
LINE
  8
0
 10
-68.8121
 20
62.7322
 11
-68.6474
 21
62.8869
  0
LINE
  8
0
 10
-68.6474
 20
62.8869
 11
-68.4645
 21
63.0198
  0
LINE
  8
0
 10
-68.4645
 20
63.0198
 11
-68.2664
 21
63.1287
  0
LINE
  8
0
 10
-68.2664
 20
63.1287
 11
-68.0562
 21
63.2119
  0
LINE
  8
0
 10
-68.0562
 20
63.2119
 11
-67.8373
 21
63.2681
  0
LINE
  8
0
 10
-67.8373
 20
63.2681
 11
-67.613
 21
63.2964
  0
LINE
  8
0
 10
-67.613
 20
63.2964
 11
-67.387
 21
63.2964
  0
LINE
  8
0
 10
-67.387
 20
63.2964
 11
-67.1627
 21
63.2681
  0
LINE
  8
0
 10
-67.1627
 20
63.2681
 11
-66.9438
 21
63.2119
  0
LINE
  8
0
 10
-66.9438
 20
63.2119
 11
-66.7336
 21
63.1287
  0
LINE
  8
0
 10
-66.7336
 20
63.1287
 11
-66.5355
 21
63.0198
  0
LINE
  8
0
 10
-66.5355
 20
63.0198
 11
-66.3526
 21
62.8869
  0
LINE
  8
0
 10
-66.3526
 20
62.8869
 11
-66.1879
 21
62.7322
  0
LINE
  8
0
 10
-66.1879
 20
62.7322
 11
-66.0438
 21
62.558
  0
LINE
  8
0
 10
-66.0438
 20
62.558
 11
-65.9226
 21
62.3672
  0
LINE
  8
0
 10
-65.9226
 20
62.3672
 11
-65.8264
 21
62.1626
  0
LINE
  8
0
 10
-65.8264
 20
62.1626
 11
-65.7565
 21
61.9476
  0
LINE
  8
0
 10
-65.7565
 20
61.9476
 11
-65.7142
 21
61.7256
  0
LINE
  8
0
 10
-65.7142
 20
61.7256
 11
-65.7
 21
61.5
  0
LINE
  8
0
 10
-65.7
 20
61.5
 11
-65.7142
 21
61.2744
  0
LINE
  8
0
 10
-65.7142
 20
61.2744
 11
-65.7565
 21
61.0524
  0
LINE
  8
0
 10
-65.7565
 20
61.0524
 11
-65.8264
 21
60.8374
  0
LINE
  8
0
 10
-65.8264
 20
60.8374
 11
-65.9226
 21
60.6328
  0
LINE
  8
0
 10
-65.9226
 20
60.6328
 11
-66.0438
 21
60.442
  0
LINE
  8
0
 10
-66.0438
 20
60.442
 11
-66.1879
 21
60.2678
  0
LINE
  8
0
 10
-66.1879
 20
60.2678
 11
-66.3526
 21
60.1131
  0
LINE
  8
0
 10
-66.3526
 20
60.1131
 11
-66.5355
 21
59.9802
  0
LINE
  8
0
 10
-66.5355
 20
59.9802
 11
-66.7336
 21
59.8713
  0
LINE
  8
0
 10
-66.7336
 20
59.8713
 11
-66.9438
 21
59.7881
  0
LINE
  8
0
 10
-66.9438
 20
59.7881
 11
-67.1627
 21
59.7319
  0
LINE
  8
0
 10
-67.1627
 20
59.7319
 11
-67.387
 21
59.7036
  0
LINE
  8
0
 10
-67.387
 20
59.7036
 11
-67.613
 21
59.7036
  0
LINE
  8
0
 10
67.387
 20
59.7036
 11
67.1627
 21
59.7319
  0
LINE
  8
0
 10
67.1627
 20
59.7319
 11
66.9438
 21
59.7881
  0
LINE
  8
0
 10
66.9438
 20
59.7881
 11
66.7336
 21
59.8713
  0
LINE
  8
0
 10
66.7336
 20
59.8713
 11
66.5355
 21
59.9802
  0
LINE
  8
0
 10
66.5355
 20
59.9802
 11
66.3526
 21
60.1131
  0
LINE
  8
0
 10
66.3526
 20
60.1131
 11
66.1879
 21
60.2678
  0
LINE
  8
0
 10
66.1879
 20
60.2678
 11
66.0438
 21
60.442
  0
LINE
  8
0
 10
66.0438
 20
60.442
 11
65.9226
 21
60.6328
  0
LINE
  8
0
 10
65.9226
 20
60.6328
 11
65.8264
 21
60.8374
  0
LINE
  8
0
 10
65.8264
 20
60.8374
 11
65.7565
 21
61.0524
  0
LINE
  8
0
 10
65.7565
 20
61.0524
 11
65.7142
 21
61.2744
  0
LINE
  8
0
 10
65.7142
 20
61.2744
 11
65.7
 21
61.5
  0
LINE
  8
0
 10
65.7
 20
61.5
 11
65.7142
 21
61.7256
  0
LINE
  8
0
 10
65.7142
 20
61.7256
 11
65.7565
 21
61.9476
  0
LINE
  8
0
 10
65.7565
 20
61.9476
 11
65.8264
 21
62.1626
  0
LINE
  8
0
 10
65.8264
 20
62.1626
 11
65.9226
 21
62.3672
  0
LINE
  8
0
 10
65.9226
 20
62.3672
 11
66.0438
 21
62.558
  0
LINE
  8
0
 10
66.0438
 20
62.558
 11
66.1879
 21
62.7322
  0
LINE
  8
0
 10
66.1879
 20
62.7322
 11
66.3526
 21
62.8869
  0
LINE
  8
0
 10
66.3526
 20
62.8869
 11
66.5355
 21
63.0198
  0
LINE
  8
0
 10
66.5355
 20
63.0198
 11
66.7336
 21
63.1287
  0
LINE
  8
0
 10
66.7336
 20
63.1287
 11
66.9438
 21
63.2119
  0
LINE
  8
0
 10
66.9438
 20
63.2119
 11
67.1627
 21
63.2681
  0
LINE
  8
0
 10
67.1627
 20
63.2681
 11
67.387
 21
63.2964
  0
LINE
  8
0
 10
67.387
 20
63.2964
 11
67.613
 21
63.2964
  0
LINE
  8
0
 10
67.613
 20
63.2964
 11
67.8373
 21
63.2681
  0
LINE
  8
0
 10
67.8373
 20
63.2681
 11
68.0562
 21
63.2119
  0
LINE
  8
0
 10
68.0562
 20
63.2119
 11
68.2664
 21
63.1287
  0
LINE
  8
0
 10
68.2664
 20
63.1287
 11
68.4645
 21
63.0198
  0
LINE
  8
0
 10
68.4645
 20
63.0198
 11
68.6474
 21
62.8869
  0
LINE
  8
0
 10
68.6474
 20
62.8869
 11
68.8121
 21
62.7322
  0
LINE
  8
0
 10
68.8121
 20
62.7322
 11
68.9562
 21
62.558
  0
LINE
  8
0
 10
68.9562
 20
62.558
 11
69.0773
 21
62.3672
  0
LINE
  8
0
 10
69.0773
 20
62.3672
 11
69.1736
 21
62.1626
  0
LINE
  8
0
 10
69.1736
 20
62.1626
 11
69.2434
 21
61.9476
  0
LINE
  8
0
 10
69.2434
 20
61.9476
 11
69.2858
 21
61.7256
  0
LINE
  8
0
 10
69.2858
 20
61.7256
 11
69.3
 21
61.5
  0
LINE
  8
0
 10
69.3
 20
61.5
 11
69.2858
 21
61.2744
  0
LINE
  8
0
 10
69.2858
 20
61.2744
 11
69.2434
 21
61.0524
  0
LINE
  8
0
 10
69.2434
 20
61.0524
 11
69.1736
 21
60.8374
  0
LINE
  8
0
 10
69.1736
 20
60.8374
 11
69.0773
 21
60.6328
  0
LINE
  8
0
 10
69.0773
 20
60.6328
 11
68.9562
 21
60.442
  0
LINE
  8
0
 10
68.9562
 20
60.442
 11
68.8121
 21
60.2678
  0
LINE
  8
0
 10
68.8121
 20
60.2678
 11
68.6474
 21
60.1131
  0
LINE
  8
0
 10
68.6474
 20
60.1131
 11
68.4645
 21
59.9802
  0
LINE
  8
0
 10
68.4645
 20
59.9802
 11
68.2664
 21
59.8713
  0
LINE
  8
0
 10
68.2664
 20
59.8713
 11
68.0562
 21
59.7881
  0
LINE
  8
0
 10
68.0562
 20
59.7881
 11
67.8373
 21
59.7319
  0
LINE
  8
0
 10
67.8373
 20
59.7319
 11
67.613
 21
59.7036
  0
LINE
  8
0
 10
67.613
 20
59.7036
 11
67.387
 21
59.7036
  0
ENDSEC
  0
SECTION
  2
OBJECTS
  0
DICTIONARY
  0
ENDSEC
  0
EOF
