  0
SECTION
  2
BLOCKS
  0
ENDSEC
  0
SECTION
  2
ENTITIES
  0
LINE
  8
0
 10
32.9369
 20
383.089
 11
33.5451
 21
383.245
  0
LINE
  8
0
 10
33.5451
 20
383.245
 11
34.1289
 21
383.476
  0
LINE
  8
0
 10
34.1289
 20
383.476
 11
34.6791
 21
383.778
  0
LINE
  8
0
 10
34.6791
 20
383.778
 11
35.1871
 21
384.147
  0
LINE
  8
0
 10
35.1871
 20
384.147
 11
35.6448
 21
384.577
  0
LINE
  8
0
 10
35.6448
 20
384.577
 11
36.0451
 21
385.061
  0
LINE
  8
0
 10
36.0451
 20
385.061
 11
36.3815
 21
385.591
  0
LINE
  8
0
 10
36.3815
 20
385.591
 11
36.6489
 21
386.159
  0
LINE
  8
0
 10
36.6489
 20
386.159
 11
36.8429
 21
386.757
  0
LINE
  8
0
 10
36.8429
 20
386.757
 11
36.9606
 21
387.373
  0
LINE
  8
0
 10
36.9606
 20
387.373
 11
37
 21
388
  0
LINE
  8
0
 10
37
 20
388
 11
37
 21
452
  0
LINE
  8
0
 10
37
 20
452
 11
14.561
 21
452
  0
LINE
  8
0
 10
14.561
 20
452
 11
14.561
 21
451.998
  0
LINE
  8
0
 10
14.561
 20
451.998
 11
13.7482
 21
451.998
  0
LINE
  8
0
 10
13.7482
 20
451.998
 11
13.6236
 21
451.982
  0
LINE
  8
0
 10
13.6236
 20
451.982
 11
13.502
 21
451.951
  0
LINE
  8
0
 10
13.502
 20
451.951
 11
13.3852
 21
451.905
  0
LINE
  8
0
 10
13.3852
 20
451.905
 11
13.2752
 21
451.844
  0
LINE
  8
0
 10
13.2752
 20
451.844
 11
13.1736
 21
451.771
  0
LINE
  8
0
 10
13.1736
 20
451.771
 11
13.082
 21
451.685
  0
LINE
  8
0
 10
13.082
 20
451.685
 11
13.002
 21
451.588
  0
LINE
  8
0
 10
13.002
 20
451.588
 11
12.9347
 21
451.482
  0
LINE
  8
0
 10
12.9347
 20
451.482
 11
12.8812
 21
451.368
  0
LINE
  8
0
 10
12.8812
 20
451.368
 11
12.8424
 21
451.249
  0
LINE
  8
0
 10
12.8424
 20
451.249
 11
12.8189
 21
451.125
  0
LINE
  8
0
 10
12.8189
 20
451.125
 11
12.811
 21
451
  0
LINE
  8
0
 10
12.811
 20
451
 11
12.8189
 21
450.875
  0
LINE
  8
0
 10
12.8189
 20
450.875
 11
12.8424
 21
450.751
  0
LINE
  8
0
 10
12.8424
 20
450.751
 11
12.8812
 21
450.632
  0
LINE
  8
0
 10
12.8812
 20
450.632
 11
12.9347
 21
450.518
  0
LINE
  8
0
 10
12.9347
 20
450.518
 11
13.002
 21
450.412
  0
LINE
  8
0
 10
13.002
 20
450.412
 11
13.082
 21
450.315
  0
LINE
  8
0
 10
13.082
 20
450.315
 11
13.1736
 21
450.229
  0
LINE
  8
0
 10
13.1736
 20
450.229
 11
13.2752
 21
450.156
  0
LINE
  8
0
 10
13.2752
 20
450.156
 11
13.3852
 21
450.095
  0
LINE
  8
0
 10
13.3852
 20
450.095
 11
13.502
 21
450.049
  0
LINE
  8
0
 10
13.502
 20
450.049
 11
13.6236
 21
450.018
  0
LINE
  8
0
 10
13.6236
 20
450.018
 11
13.7482
 21
450.002
  0
LINE
  8
0
 10
13.7482
 20
450.002
 11
15.8628
 21
450.002
  0
LINE
  8
0
 10
15.8628
 20
450.002
 11
18.2181
 21
448.707
  0
LINE
  8
0
 10
18.2181
 20
448.707
 11
21.6724
 21
446.197
  0
LINE
  8
0
 10
21.6724
 20
446.197
 11
24.7849
 21
443.275
  0
LINE
  8
0
 10
24.7849
 20
443.275
 11
27.5066
 21
439.985
  0
LINE
  8
0
 10
27.5066
 20
439.985
 11
29.7944
 21
436.38
  0
LINE
  8
0
 10
29.7944
 20
436.38
 11
31.6124
 21
432.516
  0
LINE
  8
0
 10
31.6124
 20
432.516
 11
32.9318
 21
428.455
  0
LINE
  8
0
 10
32.9318
 20
428.455
 11
33.7319
 21
424.261
  0
LINE
  8
0
 10
33.7319
 20
424.261
 11
34
 21
420
  0
LINE
  8
0
 10
34
 20
420
 11
33.7319
 21
415.739
  0
LINE
  8
0
 10
33.7319
 20
415.739
 11
32.9318
 21
411.545
  0
LINE
  8
0
 10
32.9318
 20
411.545
 11
31.6124
 21
407.484
  0
LINE
  8
0
 10
31.6124
 20
407.484
 11
29.7944
 21
403.62
  0
LINE
  8
0
 10
29.7944
 20
403.62
 11
27.5066
 21
400.015
  0
LINE
  8
0
 10
27.5066
 20
400.015
 11
24.7849
 21
396.725
  0
LINE
  8
0
 10
24.7849
 20
396.725
 11
21.6724
 21
393.803
  0
LINE
  8
0
 10
21.6724
 20
393.803
 11
18.2181
 21
391.293
  0
LINE
  8
0
 10
18.2181
 20
391.293
 11
14.4765
 21
389.236
  0
LINE
  8
0
 10
14.4765
 20
389.236
 11
10.5066
 21
387.664
  0
LINE
  8
0
 10
10.5066
 20
387.664
 11
6.37096
 21
386.602
  0
LINE
  8
0
 10
6.37096
 20
386.602
 11
2.13487
 21
386.067
  0
LINE
  8
0
 10
2.13487
 20
386.067
 11
-2.13487
 21
386.067
  0
LINE
  8
0
 10
-2.13487
 20
386.067
 11
-6.37096
 21
386.602
  0
LINE
  8
0
 10
-6.37096
 20
386.602
 11
-10.5066
 21
387.664
  0
LINE
  8
0
 10
-10.5066
 20
387.664
 11
-14.4765
 21
389.236
  0
LINE
  8
0
 10
-14.4765
 20
389.236
 11
-18.2181
 21
391.293
  0
LINE
  8
0
 10
-18.2181
 20
391.293
 11
-21.6724
 21
393.803
  0
LINE
  8
0
 10
-21.6724
 20
393.803
 11
-24.7849
 21
396.725
  0
LINE
  8
0
 10
-24.7849
 20
396.725
 11
-27.5066
 21
400.015
  0
LINE
  8
0
 10
-27.5066
 20
400.015
 11
-29.7944
 21
403.62
  0
LINE
  8
0
 10
-29.7944
 20
403.62
 11
-31.6124
 21
407.484
  0
LINE
  8
0
 10
-31.6124
 20
407.484
 11
-32.9318
 21
411.545
  0
LINE
  8
0
 10
-32.9318
 20
411.545
 11
-33.7319
 21
415.739
  0
LINE
  8
0
 10
-33.7319
 20
415.739
 11
-34
 21
420
  0
LINE
  8
0
 10
-34
 20
420
 11
-33.7319
 21
424.261
  0
LINE
  8
0
 10
-33.7319
 20
424.261
 11
-32.9318
 21
428.455
  0
LINE
  8
0
 10
-32.9318
 20
428.455
 11
-31.6124
 21
432.516
  0
LINE
  8
0
 10
-31.6124
 20
432.516
 11
-29.7944
 21
436.38
  0
LINE
  8
0
 10
-29.7944
 20
436.38
 11
-27.5066
 21
439.985
  0
LINE
  8
0
 10
-27.5066
 20
439.985
 11
-24.7849
 21
443.275
  0
LINE
  8
0
 10
-24.7849
 20
443.275
 11
-21.6724
 21
446.197
  0
LINE
  8
0
 10
-21.6724
 20
446.197
 11
-18.2181
 21
448.707
  0
LINE
  8
0
 10
-18.2181
 20
448.707
 11
-14.4765
 21
450.764
  0
LINE
  8
0
 10
-14.4765
 20
450.764
 11
-10.5066
 21
452.336
  0
LINE
  8
0
 10
-10.5066
 20
452.336
 11
-6.37096
 21
453.398
  0
LINE
  8
0
 10
-6.37096
 20
453.398
 11
-2.13487
 21
453.933
  0
LINE
  8
0
 10
-2.13487
 20
453.933
 11
0
 21
453.933
  0
LINE
  8
0
 10
0
 20
453.933
 11
0
 21
454
  0
LINE
  8
0
 10
0
 20
454
 11
17
 21
454
  0
LINE
  8
0
 10
17
 20
454
 11
14.0099
 21
456.99
  0
LINE
  8
0
 10
14.0099
 20
456.99
 11
-4
 21
456.99
  0
LINE
  8
0
 10
-4
 20
456.99
 11
-4
 21
456
  0
LINE
  8
0
 10
-4
 20
456
 11
-36
 21
456
  0
LINE
  8
0
 10
-36
 20
456
 11
-36
 21
457
  0
LINE
  8
0
 10
-36
 20
457
 11
-37
 21
457
  0
LINE
  8
0
 10
-37
 20
457
 11
-37
 21
388
  0
LINE
  8
0
 10
-37
 20
388
 11
-36.9606
 21
387.373
  0
LINE
  8
0
 10
-36.9606
 20
387.373
 11
-36.8429
 21
386.757
  0
LINE
  8
0
 10
-36.8429
 20
386.757
 11
-36.6489
 21
386.159
  0
LINE
  8
0
 10
-36.6489
 20
386.159
 11
-36.3815
 21
385.591
  0
LINE
  8
0
 10
-36.3815
 20
385.591
 11
-36.0451
 21
385.061
  0
LINE
  8
0
 10
-36.0451
 20
385.061
 11
-35.6448
 21
384.577
  0
LINE
  8
0
 10
-35.6448
 20
384.577
 11
-35.1871
 21
384.147
  0
LINE
  8
0
 10
-35.1871
 20
384.147
 11
-34.6791
 21
383.778
  0
LINE
  8
0
 10
-34.6791
 20
383.778
 11
-34.1289
 21
383.476
  0
LINE
  8
0
 10
-34.1289
 20
383.476
 11
-33.5451
 21
383.245
  0
LINE
  8
0
 10
-33.5451
 20
383.245
 11
-32.9369
 21
383.089
  0
LINE
  8
0
 10
-32.9369
 20
383.089
 11
-32.3139
 21
383.01
  0
LINE
  8
0
 10
-32.3139
 20
383.01
 11
32.3139
 21
383.01
  0
LINE
  8
0
 10
32.3139
 20
383.01
 11
32.9369
 21
383.089
  0
LINE
  8
0
 10
29.8116
 20
387.006
 11
29.4379
 21
387.053
  0
LINE
  8
0
 10
29.4379
 20
387.053
 11
29.0729
 21
387.147
  0
LINE
  8
0
 10
29.0729
 20
387.147
 11
28.7227
 21
387.286
  0
LINE
  8
0
 10
28.7227
 20
387.286
 11
28.3925
 21
387.467
  0
LINE
  8
0
 10
28.3925
 20
387.467
 11
28.0877
 21
387.688
  0
LINE
  8
0
 10
28.0877
 20
387.688
 11
27.8131
 21
387.946
  0
LINE
  8
0
 10
27.8131
 20
387.946
 11
27.5729
 21
388.237
  0
LINE
  8
0
 10
27.5729
 20
388.237
 11
27.3711
 21
388.555
  0
LINE
  8
0
 10
27.3711
 20
388.555
 11
27.2107
 21
388.896
  0
LINE
  8
0
 10
27.2107
 20
388.896
 11
27.0942
 21
389.254
  0
LINE
  8
0
 10
27.0942
 20
389.254
 11
27.0237
 21
389.624
  0
LINE
  8
0
 10
27.0237
 20
389.624
 11
27
 21
390
  0
LINE
  8
0
 10
27
 20
390
 11
27.0237
 21
390.376
  0
LINE
  8
0
 10
27.0237
 20
390.376
 11
27.0942
 21
390.746
  0
LINE
  8
0
 10
27.0942
 20
390.746
 11
27.2107
 21
391.104
  0
LINE
  8
0
 10
27.2107
 20
391.104
 11
27.3711
 21
391.445
  0
LINE
  8
0
 10
27.3711
 20
391.445
 11
27.5729
 21
391.763
  0
LINE
  8
0
 10
27.5729
 20
391.763
 11
27.8131
 21
392.054
  0
LINE
  8
0
 10
27.8131
 20
392.054
 11
28.0877
 21
392.312
  0
LINE
  8
0
 10
28.0877
 20
392.312
 11
28.3925
 21
392.533
  0
LINE
  8
0
 10
28.3925
 20
392.533
 11
28.7227
 21
392.714
  0
LINE
  8
0
 10
28.7227
 20
392.714
 11
29.0729
 21
392.853
  0
LINE
  8
0
 10
29.0729
 20
392.853
 11
29.4379
 21
392.947
  0
LINE
  8
0
 10
29.4379
 20
392.947
 11
29.8116
 21
392.994
  0
LINE
  8
0
 10
29.8116
 20
392.994
 11
30.1884
 21
392.994
  0
LINE
  8
0
 10
30.1884
 20
392.994
 11
30.5621
 21
392.947
  0
LINE
  8
0
 10
30.5621
 20
392.947
 11
30.927
 21
392.853
  0
LINE
  8
0
 10
30.927
 20
392.853
 11
31.2773
 21
392.714
  0
LINE
  8
0
 10
31.2773
 20
392.714
 11
31.6075
 21
392.533
  0
LINE
  8
0
 10
31.6075
 20
392.533
 11
31.9123
 21
392.312
  0
LINE
  8
0
 10
31.9123
 20
392.312
 11
32.1869
 21
392.054
  0
LINE
  8
0
 10
32.1869
 20
392.054
 11
32.427
 21
391.763
  0
LINE
  8
0
 10
32.427
 20
391.763
 11
32.6289
 21
391.445
  0
LINE
  8
0
 10
32.6289
 20
391.445
 11
32.7893
 21
391.104
  0
LINE
  8
0
 10
32.7893
 20
391.104
 11
32.9057
 21
390.746
  0
LINE
  8
0
 10
32.9057
 20
390.746
 11
32.9763
 21
390.376
  0
LINE
  8
0
 10
32.9763
 20
390.376
 11
33
 21
390
  0
LINE
  8
0
 10
33
 20
390
 11
32.9763
 21
389.624
  0
LINE
  8
0
 10
32.9763
 20
389.624
 11
32.9057
 21
389.254
  0
LINE
  8
0
 10
32.9057
 20
389.254
 11
32.7893
 21
388.896
  0
LINE
  8
0
 10
32.7893
 20
388.896
 11
32.6289
 21
388.555
  0
LINE
  8
0
 10
32.6289
 20
388.555
 11
32.427
 21
388.237
  0
LINE
  8
0
 10
32.427
 20
388.237
 11
32.1869
 21
387.946
  0
LINE
  8
0
 10
32.1869
 20
387.946
 11
31.9123
 21
387.688
  0
LINE
  8
0
 10
31.9123
 20
387.688
 11
31.6075
 21
387.467
  0
LINE
  8
0
 10
31.6075
 20
387.467
 11
31.2773
 21
387.286
  0
LINE
  8
0
 10
31.2773
 20
387.286
 11
30.927
 21
387.147
  0
LINE
  8
0
 10
30.927
 20
387.147
 11
30.5621
 21
387.053
  0
LINE
  8
0
 10
30.5621
 20
387.053
 11
30.1884
 21
387.006
  0
LINE
  8
0
 10
30.1884
 20
387.006
 11
29.8116
 21
387.006
  0
LINE
  8
0
 10
27
 20
456.99
 11
16.1312
 21
456.99
  0
LINE
  8
0
 10
16.1312
 20
456.99
 11
19.1213
 21
454
  0
LINE
  8
0
 10
19.1213
 20
454
 11
27
 21
454
  0
LINE
  8
0
 10
27
 20
454
 11
27
 21
456.99
  0
LINE
  8
0
 10
32.9369
 20
299.089
 11
33.5451
 21
299.245
  0
LINE
  8
0
 10
33.5451
 20
299.245
 11
34.1289
 21
299.476
  0
LINE
  8
0
 10
34.1289
 20
299.476
 11
34.6791
 21
299.778
  0
LINE
  8
0
 10
34.6791
 20
299.778
 11
35.1871
 21
300.147
  0
LINE
  8
0
 10
35.1871
 20
300.147
 11
35.6448
 21
300.577
  0
LINE
  8
0
 10
35.6448
 20
300.577
 11
36.0451
 21
301.061
  0
LINE
  8
0
 10
36.0451
 20
301.061
 11
36.3815
 21
301.591
  0
LINE
  8
0
 10
36.3815
 20
301.591
 11
36.6489
 21
302.159
  0
LINE
  8
0
 10
36.6489
 20
302.159
 11
36.8429
 21
302.757
  0
LINE
  8
0
 10
36.8429
 20
302.757
 11
36.9606
 21
303.373
  0
LINE
  8
0
 10
36.9606
 20
303.373
 11
37
 21
304
  0
LINE
  8
0
 10
37
 20
304
 11
37
 21
368
  0
LINE
  8
0
 10
37
 20
368
 11
14.561
 21
368
  0
LINE
  8
0
 10
14.561
 20
368
 11
14.561
 21
367.998
  0
LINE
  8
0
 10
14.561
 20
367.998
 11
13.7482
 21
367.998
  0
LINE
  8
0
 10
13.7482
 20
367.998
 11
13.6236
 21
367.982
  0
LINE
  8
0
 10
13.6236
 20
367.982
 11
13.502
 21
367.951
  0
LINE
  8
0
 10
13.502
 20
367.951
 11
13.3852
 21
367.905
  0
LINE
  8
0
 10
13.3852
 20
367.905
 11
13.2752
 21
367.844
  0
LINE
  8
0
 10
13.2752
 20
367.844
 11
13.1736
 21
367.771
  0
LINE
  8
0
 10
13.1736
 20
367.771
 11
13.082
 21
367.685
  0
LINE
  8
0
 10
13.082
 20
367.685
 11
13.002
 21
367.588
  0
LINE
  8
0
 10
13.002
 20
367.588
 11
12.9347
 21
367.482
  0
LINE
  8
0
 10
12.9347
 20
367.482
 11
12.8812
 21
367.368
  0
LINE
  8
0
 10
12.8812
 20
367.368
 11
12.8424
 21
367.249
  0
LINE
  8
0
 10
12.8424
 20
367.249
 11
12.8189
 21
367.125
  0
LINE
  8
0
 10
12.8189
 20
367.125
 11
12.811
 21
367
  0
LINE
  8
0
 10
12.811
 20
367
 11
12.8189
 21
366.875
  0
LINE
  8
0
 10
12.8189
 20
366.875
 11
12.8424
 21
366.751
  0
LINE
  8
0
 10
12.8424
 20
366.751
 11
12.8812
 21
366.632
  0
LINE
  8
0
 10
12.8812
 20
366.632
 11
12.9347
 21
366.518
  0
LINE
  8
0
 10
12.9347
 20
366.518
 11
13.002
 21
366.412
  0
LINE
  8
0
 10
13.002
 20
366.412
 11
13.082
 21
366.315
  0
LINE
  8
0
 10
13.082
 20
366.315
 11
13.1736
 21
366.229
  0
LINE
  8
0
 10
13.1736
 20
366.229
 11
13.2752
 21
366.156
  0
LINE
  8
0
 10
13.2752
 20
366.156
 11
13.3852
 21
366.095
  0
LINE
  8
0
 10
13.3852
 20
366.095
 11
13.502
 21
366.049
  0
LINE
  8
0
 10
13.502
 20
366.049
 11
13.6236
 21
366.018
  0
LINE
  8
0
 10
13.6236
 20
366.018
 11
13.7482
 21
366.002
  0
LINE
  8
0
 10
13.7482
 20
366.002
 11
15.8628
 21
366.002
  0
LINE
  8
0
 10
15.8628
 20
366.002
 11
18.2181
 21
364.707
  0
LINE
  8
0
 10
18.2181
 20
364.707
 11
21.6724
 21
362.197
  0
LINE
  8
0
 10
21.6724
 20
362.197
 11
24.7849
 21
359.275
  0
LINE
  8
0
 10
24.7849
 20
359.275
 11
27.5066
 21
355.985
  0
LINE
  8
0
 10
27.5066
 20
355.985
 11
29.7944
 21
352.38
  0
LINE
  8
0
 10
29.7944
 20
352.38
 11
31.6124
 21
348.516
  0
LINE
  8
0
 10
31.6124
 20
348.516
 11
32.9318
 21
344.455
  0
LINE
  8
0
 10
32.9318
 20
344.455
 11
33.7319
 21
340.261
  0
LINE
  8
0
 10
33.7319
 20
340.261
 11
34
 21
336
  0
LINE
  8
0
 10
34
 20
336
 11
33.7319
 21
331.739
  0
LINE
  8
0
 10
33.7319
 20
331.739
 11
32.9318
 21
327.545
  0
LINE
  8
0
 10
32.9318
 20
327.545
 11
31.6124
 21
323.484
  0
LINE
  8
0
 10
31.6124
 20
323.484
 11
29.7944
 21
319.62
  0
LINE
  8
0
 10
29.7944
 20
319.62
 11
27.5066
 21
316.015
  0
LINE
  8
0
 10
27.5066
 20
316.015
 11
24.7849
 21
312.725
  0
LINE
  8
0
 10
24.7849
 20
312.725
 11
21.6724
 21
309.803
  0
LINE
  8
0
 10
21.6724
 20
309.803
 11
18.2181
 21
307.293
  0
LINE
  8
0
 10
18.2181
 20
307.293
 11
14.4765
 21
305.236
  0
LINE
  8
0
 10
14.4765
 20
305.236
 11
10.5066
 21
303.664
  0
LINE
  8
0
 10
10.5066
 20
303.664
 11
6.37096
 21
302.602
  0
LINE
  8
0
 10
6.37096
 20
302.602
 11
2.13487
 21
302.067
  0
LINE
  8
0
 10
2.13487
 20
302.067
 11
-2.13487
 21
302.067
  0
LINE
  8
0
 10
-2.13487
 20
302.067
 11
-6.37096
 21
302.602
  0
LINE
  8
0
 10
-6.37096
 20
302.602
 11
-10.5066
 21
303.664
  0
LINE
  8
0
 10
-10.5066
 20
303.664
 11
-14.4765
 21
305.236
  0
LINE
  8
0
 10
-14.4765
 20
305.236
 11
-18.2181
 21
307.293
  0
LINE
  8
0
 10
-18.2181
 20
307.293
 11
-21.6724
 21
309.803
  0
LINE
  8
0
 10
-21.6724
 20
309.803
 11
-24.7849
 21
312.725
  0
LINE
  8
0
 10
-24.7849
 20
312.725
 11
-27.5066
 21
316.015
  0
LINE
  8
0
 10
-27.5066
 20
316.015
 11
-29.7944
 21
319.62
  0
LINE
  8
0
 10
-29.7944
 20
319.62
 11
-31.6124
 21
323.484
  0
LINE
  8
0
 10
-31.6124
 20
323.484
 11
-32.9318
 21
327.545
  0
LINE
  8
0
 10
-32.9318
 20
327.545
 11
-33.7319
 21
331.739
  0
LINE
  8
0
 10
-33.7319
 20
331.739
 11
-34
 21
336
  0
LINE
  8
0
 10
-34
 20
336
 11
-33.7319
 21
340.261
  0
LINE
  8
0
 10
-33.7319
 20
340.261
 11
-32.9318
 21
344.455
  0
LINE
  8
0
 10
-32.9318
 20
344.455
 11
-31.6124
 21
348.516
  0
LINE
  8
0
 10
-31.6124
 20
348.516
 11
-29.7944
 21
352.38
  0
LINE
  8
0
 10
-29.7944
 20
352.38
 11
-27.5066
 21
355.985
  0
LINE
  8
0
 10
-27.5066
 20
355.985
 11
-24.7849
 21
359.275
  0
LINE
  8
0
 10
-24.7849
 20
359.275
 11
-21.6724
 21
362.197
  0
LINE
  8
0
 10
-21.6724
 20
362.197
 11
-18.2181
 21
364.707
  0
LINE
  8
0
 10
-18.2181
 20
364.707
 11
-14.4765
 21
366.764
  0
LINE
  8
0
 10
-14.4765
 20
366.764
 11
-10.5066
 21
368.336
  0
LINE
  8
0
 10
-10.5066
 20
368.336
 11
-6.37096
 21
369.398
  0
LINE
  8
0
 10
-6.37096
 20
369.398
 11
-2.13487
 21
369.933
  0
LINE
  8
0
 10
-2.13487
 20
369.933
 11
0
 21
369.933
  0
LINE
  8
0
 10
0
 20
369.933
 11
0
 21
370
  0
LINE
  8
0
 10
0
 20
370
 11
17
 21
370
  0
LINE
  8
0
 10
17
 20
370
 11
14.0099
 21
372.99
  0
LINE
  8
0
 10
14.0099
 20
372.99
 11
-4
 21
372.99
  0
LINE
  8
0
 10
-4
 20
372.99
 11
-4
 21
372
  0
LINE
  8
0
 10
-4
 20
372
 11
-36
 21
372
  0
LINE
  8
0
 10
-36
 20
372
 11
-36
 21
373
  0
LINE
  8
0
 10
-36
 20
373
 11
-37
 21
373
  0
LINE
  8
0
 10
-37
 20
373
 11
-37
 21
304
  0
LINE
  8
0
 10
-37
 20
304
 11
-36.9606
 21
303.373
  0
LINE
  8
0
 10
-36.9606
 20
303.373
 11
-36.8429
 21
302.757
  0
LINE
  8
0
 10
-36.8429
 20
302.757
 11
-36.6489
 21
302.159
  0
LINE
  8
0
 10
-36.6489
 20
302.159
 11
-36.3815
 21
301.591
  0
LINE
  8
0
 10
-36.3815
 20
301.591
 11
-36.0451
 21
301.061
  0
LINE
  8
0
 10
-36.0451
 20
301.061
 11
-35.6448
 21
300.577
  0
LINE
  8
0
 10
-35.6448
 20
300.577
 11
-35.1871
 21
300.147
  0
LINE
  8
0
 10
-35.1871
 20
300.147
 11
-34.6791
 21
299.778
  0
LINE
  8
0
 10
-34.6791
 20
299.778
 11
-34.1289
 21
299.476
  0
LINE
  8
0
 10
-34.1289
 20
299.476
 11
-33.5451
 21
299.245
  0
LINE
  8
0
 10
-33.5451
 20
299.245
 11
-32.9369
 21
299.089
  0
LINE
  8
0
 10
-32.9369
 20
299.089
 11
-32.3139
 21
299.01
  0
LINE
  8
0
 10
-32.3139
 20
299.01
 11
32.3139
 21
299.01
  0
LINE
  8
0
 10
32.3139
 20
299.01
 11
32.9369
 21
299.089
  0
LINE
  8
0
 10
29.8116
 20
303.006
 11
29.4379
 21
303.053
  0
LINE
  8
0
 10
29.4379
 20
303.053
 11
29.0729
 21
303.147
  0
LINE
  8
0
 10
29.0729
 20
303.147
 11
28.7227
 21
303.286
  0
LINE
  8
0
 10
28.7227
 20
303.286
 11
28.3925
 21
303.467
  0
LINE
  8
0
 10
28.3925
 20
303.467
 11
28.0877
 21
303.688
  0
LINE
  8
0
 10
28.0877
 20
303.688
 11
27.8131
 21
303.946
  0
LINE
  8
0
 10
27.8131
 20
303.946
 11
27.5729
 21
304.237
  0
LINE
  8
0
 10
27.5729
 20
304.237
 11
27.3711
 21
304.555
  0
LINE
  8
0
 10
27.3711
 20
304.555
 11
27.2107
 21
304.896
  0
LINE
  8
0
 10
27.2107
 20
304.896
 11
27.0942
 21
305.254
  0
LINE
  8
0
 10
27.0942
 20
305.254
 11
27.0237
 21
305.624
  0
LINE
  8
0
 10
27.0237
 20
305.624
 11
27
 21
306
  0
LINE
  8
0
 10
27
 20
306
 11
27.0237
 21
306.376
  0
LINE
  8
0
 10
27.0237
 20
306.376
 11
27.0942
 21
306.746
  0
LINE
  8
0
 10
27.0942
 20
306.746
 11
27.2107
 21
307.104
  0
LINE
  8
0
 10
27.2107
 20
307.104
 11
27.3711
 21
307.445
  0
LINE
  8
0
 10
27.3711
 20
307.445
 11
27.5729
 21
307.763
  0
LINE
  8
0
 10
27.5729
 20
307.763
 11
27.8131
 21
308.054
  0
LINE
  8
0
 10
27.8131
 20
308.054
 11
28.0877
 21
308.312
  0
LINE
  8
0
 10
28.0877
 20
308.312
 11
28.3925
 21
308.533
  0
LINE
  8
0
 10
28.3925
 20
308.533
 11
28.7227
 21
308.714
  0
LINE
  8
0
 10
28.7227
 20
308.714
 11
29.0729
 21
308.853
  0
LINE
  8
0
 10
29.0729
 20
308.853
 11
29.4379
 21
308.947
  0
LINE
  8
0
 10
29.4379
 20
308.947
 11
29.8116
 21
308.994
  0
LINE
  8
0
 10
29.8116
 20
308.994
 11
30.1884
 21
308.994
  0
LINE
  8
0
 10
30.1884
 20
308.994
 11
30.5621
 21
308.947
  0
LINE
  8
0
 10
30.5621
 20
308.947
 11
30.927
 21
308.853
  0
LINE
  8
0
 10
30.927
 20
308.853
 11
31.2773
 21
308.714
  0
LINE
  8
0
 10
31.2773
 20
308.714
 11
31.6075
 21
308.533
  0
LINE
  8
0
 10
31.6075
 20
308.533
 11
31.9123
 21
308.312
  0
LINE
  8
0
 10
31.9123
 20
308.312
 11
32.1869
 21
308.054
  0
LINE
  8
0
 10
32.1869
 20
308.054
 11
32.427
 21
307.763
  0
LINE
  8
0
 10
32.427
 20
307.763
 11
32.6289
 21
307.445
  0
LINE
  8
0
 10
32.6289
 20
307.445
 11
32.7893
 21
307.104
  0
LINE
  8
0
 10
32.7893
 20
307.104
 11
32.9057
 21
306.746
  0
LINE
  8
0
 10
32.9057
 20
306.746
 11
32.9763
 21
306.376
  0
LINE
  8
0
 10
32.9763
 20
306.376
 11
33
 21
306
  0
LINE
  8
0
 10
33
 20
306
 11
32.9763
 21
305.624
  0
LINE
  8
0
 10
32.9763
 20
305.624
 11
32.9057
 21
305.254
  0
LINE
  8
0
 10
32.9057
 20
305.254
 11
32.7893
 21
304.896
  0
LINE
  8
0
 10
32.7893
 20
304.896
 11
32.6289
 21
304.555
  0
LINE
  8
0
 10
32.6289
 20
304.555
 11
32.427
 21
304.237
  0
LINE
  8
0
 10
32.427
 20
304.237
 11
32.1869
 21
303.946
  0
LINE
  8
0
 10
32.1869
 20
303.946
 11
31.9123
 21
303.688
  0
LINE
  8
0
 10
31.9123
 20
303.688
 11
31.6075
 21
303.467
  0
LINE
  8
0
 10
31.6075
 20
303.467
 11
31.2773
 21
303.286
  0
LINE
  8
0
 10
31.2773
 20
303.286
 11
30.927
 21
303.147
  0
LINE
  8
0
 10
30.927
 20
303.147
 11
30.5621
 21
303.053
  0
LINE
  8
0
 10
30.5621
 20
303.053
 11
30.1884
 21
303.006
  0
LINE
  8
0
 10
30.1884
 20
303.006
 11
29.8116
 21
303.006
  0
LINE
  8
0
 10
27
 20
372.99
 11
16.1312
 21
372.99
  0
LINE
  8
0
 10
16.1312
 20
372.99
 11
19.1213
 21
370
  0
LINE
  8
0
 10
19.1213
 20
370
 11
27
 21
370
  0
LINE
  8
0
 10
27
 20
370
 11
27
 21
372.99
  0
LINE
  8
0
 10
32.9369
 20
215.089
 11
33.5451
 21
215.245
  0
LINE
  8
0
 10
33.5451
 20
215.245
 11
34.1289
 21
215.476
  0
LINE
  8
0
 10
34.1289
 20
215.476
 11
34.6791
 21
215.778
  0
LINE
  8
0
 10
34.6791
 20
215.778
 11
35.1871
 21
216.147
  0
LINE
  8
0
 10
35.1871
 20
216.147
 11
35.6448
 21
216.577
  0
LINE
  8
0
 10
35.6448
 20
216.577
 11
36.0451
 21
217.061
  0
LINE
  8
0
 10
36.0451
 20
217.061
 11
36.3815
 21
217.591
  0
LINE
  8
0
 10
36.3815
 20
217.591
 11
36.6489
 21
218.159
  0
LINE
  8
0
 10
36.6489
 20
218.159
 11
36.8429
 21
218.757
  0
LINE
  8
0
 10
36.8429
 20
218.757
 11
36.9606
 21
219.373
  0
LINE
  8
0
 10
36.9606
 20
219.373
 11
37
 21
220
  0
LINE
  8
0
 10
37
 20
220
 11
37
 21
284
  0
LINE
  8
0
 10
37
 20
284
 11
14.561
 21
284
  0
LINE
  8
0
 10
14.561
 20
284
 11
14.561
 21
283.998
  0
LINE
  8
0
 10
14.561
 20
283.998
 11
13.7482
 21
283.998
  0
LINE
  8
0
 10
13.7482
 20
283.998
 11
13.6236
 21
283.982
  0
LINE
  8
0
 10
13.6236
 20
283.982
 11
13.502
 21
283.951
  0
LINE
  8
0
 10
13.502
 20
283.951
 11
13.3852
 21
283.905
  0
LINE
  8
0
 10
13.3852
 20
283.905
 11
13.2752
 21
283.844
  0
LINE
  8
0
 10
13.2752
 20
283.844
 11
13.1736
 21
283.771
  0
LINE
  8
0
 10
13.1736
 20
283.771
 11
13.082
 21
283.685
  0
LINE
  8
0
 10
13.082
 20
283.685
 11
13.002
 21
283.588
  0
LINE
  8
0
 10
13.002
 20
283.588
 11
12.9347
 21
283.482
  0
LINE
  8
0
 10
12.9347
 20
283.482
 11
12.8812
 21
283.368
  0
LINE
  8
0
 10
12.8812
 20
283.368
 11
12.8424
 21
283.249
  0
LINE
  8
0
 10
12.8424
 20
283.249
 11
12.8189
 21
283.125
  0
LINE
  8
0
 10
12.8189
 20
283.125
 11
12.811
 21
283
  0
LINE
  8
0
 10
12.811
 20
283
 11
12.8189
 21
282.875
  0
LINE
  8
0
 10
12.8189
 20
282.875
 11
12.8424
 21
282.751
  0
LINE
  8
0
 10
12.8424
 20
282.751
 11
12.8812
 21
282.632
  0
LINE
  8
0
 10
12.8812
 20
282.632
 11
12.9347
 21
282.518
  0
LINE
  8
0
 10
12.9347
 20
282.518
 11
13.002
 21
282.412
  0
LINE
  8
0
 10
13.002
 20
282.412
 11
13.082
 21
282.315
  0
LINE
  8
0
 10
13.082
 20
282.315
 11
13.1736
 21
282.229
  0
LINE
  8
0
 10
13.1736
 20
282.229
 11
13.2752
 21
282.156
  0
LINE
  8
0
 10
13.2752
 20
282.156
 11
13.3852
 21
282.095
  0
LINE
  8
0
 10
13.3852
 20
282.095
 11
13.502
 21
282.049
  0
LINE
  8
0
 10
13.502
 20
282.049
 11
13.6236
 21
282.018
  0
LINE
  8
0
 10
13.6236
 20
282.018
 11
13.7482
 21
282.002
  0
LINE
  8
0
 10
13.7482
 20
282.002
 11
15.8628
 21
282.002
  0
LINE
  8
0
 10
15.8628
 20
282.002
 11
18.2181
 21
280.707
  0
LINE
  8
0
 10
18.2181
 20
280.707
 11
21.6724
 21
278.197
  0
LINE
  8
0
 10
21.6724
 20
278.197
 11
24.7849
 21
275.275
  0
LINE
  8
0
 10
24.7849
 20
275.275
 11
27.5066
 21
271.985
  0
LINE
  8
0
 10
27.5066
 20
271.985
 11
29.7944
 21
268.38
  0
LINE
  8
0
 10
29.7944
 20
268.38
 11
31.6124
 21
264.516
  0
LINE
  8
0
 10
31.6124
 20
264.516
 11
32.9318
 21
260.455
  0
LINE
  8
0
 10
32.9318
 20
260.455
 11
33.7319
 21
256.261
  0
LINE
  8
0
 10
33.7319
 20
256.261
 11
34
 21
252
  0
LINE
  8
0
 10
34
 20
252
 11
33.7319
 21
247.739
  0
LINE
  8
0
 10
33.7319
 20
247.739
 11
32.9318
 21
243.545
  0
LINE
  8
0
 10
32.9318
 20
243.545
 11
31.6124
 21
239.484
  0
LINE
  8
0
 10
31.6124
 20
239.484
 11
29.7944
 21
235.62
  0
LINE
  8
0
 10
29.7944
 20
235.62
 11
27.5066
 21
232.015
  0
LINE
  8
0
 10
27.5066
 20
232.015
 11
24.7849
 21
228.725
  0
LINE
  8
0
 10
24.7849
 20
228.725
 11
21.6724
 21
225.803
  0
LINE
  8
0
 10
21.6724
 20
225.803
 11
18.2181
 21
223.293
  0
LINE
  8
0
 10
18.2181
 20
223.293
 11
14.4765
 21
221.236
  0
LINE
  8
0
 10
14.4765
 20
221.236
 11
10.5066
 21
219.664
  0
LINE
  8
0
 10
10.5066
 20
219.664
 11
6.37096
 21
218.602
  0
LINE
  8
0
 10
6.37096
 20
218.602
 11
2.13487
 21
218.067
  0
LINE
  8
0
 10
2.13487
 20
218.067
 11
-2.13487
 21
218.067
  0
LINE
  8
0
 10
-2.13487
 20
218.067
 11
-6.37096
 21
218.602
  0
LINE
  8
0
 10
-6.37096
 20
218.602
 11
-10.5066
 21
219.664
  0
LINE
  8
0
 10
-10.5066
 20
219.664
 11
-14.4765
 21
221.236
  0
LINE
  8
0
 10
-14.4765
 20
221.236
 11
-18.2181
 21
223.293
  0
LINE
  8
0
 10
-18.2181
 20
223.293
 11
-21.6724
 21
225.803
  0
LINE
  8
0
 10
-21.6724
 20
225.803
 11
-24.7849
 21
228.725
  0
LINE
  8
0
 10
-24.7849
 20
228.725
 11
-27.5066
 21
232.015
  0
LINE
  8
0
 10
-27.5066
 20
232.015
 11
-29.7944
 21
235.62
  0
LINE
  8
0
 10
-29.7944
 20
235.62
 11
-31.6124
 21
239.484
  0
LINE
  8
0
 10
-31.6124
 20
239.484
 11
-32.9318
 21
243.545
  0
LINE
  8
0
 10
-32.9318
 20
243.545
 11
-33.7319
 21
247.739
  0
LINE
  8
0
 10
-33.7319
 20
247.739
 11
-34
 21
252
  0
LINE
  8
0
 10
-34
 20
252
 11
-33.7319
 21
256.261
  0
LINE
  8
0
 10
-33.7319
 20
256.261
 11
-32.9318
 21
260.455
  0
LINE
  8
0
 10
-32.9318
 20
260.455
 11
-31.6124
 21
264.516
  0
LINE
  8
0
 10
-31.6124
 20
264.516
 11
-29.7944
 21
268.38
  0
LINE
  8
0
 10
-29.7944
 20
268.38
 11
-27.5066
 21
271.985
  0
LINE
  8
0
 10
-27.5066
 20
271.985
 11
-24.7849
 21
275.275
  0
LINE
  8
0
 10
-24.7849
 20
275.275
 11
-21.6724
 21
278.197
  0
LINE
  8
0
 10
-21.6724
 20
278.197
 11
-18.2181
 21
280.707
  0
LINE
  8
0
 10
-18.2181
 20
280.707
 11
-14.4765
 21
282.764
  0
LINE
  8
0
 10
-14.4765
 20
282.764
 11
-10.5066
 21
284.336
  0
LINE
  8
0
 10
-10.5066
 20
284.336
 11
-6.37096
 21
285.398
  0
LINE
  8
0
 10
-6.37096
 20
285.398
 11
-2.13487
 21
285.933
  0
LINE
  8
0
 10
-2.13487
 20
285.933
 11
0
 21
285.933
  0
LINE
  8
0
 10
0
 20
285.933
 11
0
 21
286
  0
LINE
  8
0
 10
0
 20
286
 11
17
 21
286
  0
LINE
  8
0
 10
17
 20
286
 11
14.0099
 21
288.99
  0
LINE
  8
0
 10
14.0099
 20
288.99
 11
-4
 21
288.99
  0
LINE
  8
0
 10
-4
 20
288.99
 11
-4
 21
288
  0
LINE
  8
0
 10
-4
 20
288
 11
-36
 21
288
  0
LINE
  8
0
 10
-36
 20
288
 11
-36
 21
289
  0
LINE
  8
0
 10
-36
 20
289
 11
-37
 21
289
  0
LINE
  8
0
 10
-37
 20
289
 11
-37
 21
220
  0
LINE
  8
0
 10
-37
 20
220
 11
-36.9606
 21
219.373
  0
LINE
  8
0
 10
-36.9606
 20
219.373
 11
-36.8429
 21
218.757
  0
LINE
  8
0
 10
-36.8429
 20
218.757
 11
-36.6489
 21
218.159
  0
LINE
  8
0
 10
-36.6489
 20
218.159
 11
-36.3815
 21
217.591
  0
LINE
  8
0
 10
-36.3815
 20
217.591
 11
-36.0451
 21
217.061
  0
LINE
  8
0
 10
-36.0451
 20
217.061
 11
-35.6448
 21
216.577
  0
LINE
  8
0
 10
-35.6448
 20
216.577
 11
-35.1871
 21
216.147
  0
LINE
  8
0
 10
-35.1871
 20
216.147
 11
-34.6791
 21
215.778
  0
LINE
  8
0
 10
-34.6791
 20
215.778
 11
-34.1289
 21
215.476
  0
LINE
  8
0
 10
-34.1289
 20
215.476
 11
-33.5451
 21
215.245
  0
LINE
  8
0
 10
-33.5451
 20
215.245
 11
-32.9369
 21
215.089
  0
LINE
  8
0
 10
-32.9369
 20
215.089
 11
-32.3139
 21
215.01
  0
LINE
  8
0
 10
-32.3139
 20
215.01
 11
32.3139
 21
215.01
  0
LINE
  8
0
 10
32.3139
 20
215.01
 11
32.9369
 21
215.089
  0
LINE
  8
0
 10
29.8116
 20
219.006
 11
29.4379
 21
219.053
  0
LINE
  8
0
 10
29.4379
 20
219.053
 11
29.0729
 21
219.147
  0
LINE
  8
0
 10
29.0729
 20
219.147
 11
28.7227
 21
219.286
  0
LINE
  8
0
 10
28.7227
 20
219.286
 11
28.3925
 21
219.467
  0
LINE
  8
0
 10
28.3925
 20
219.467
 11
28.0877
 21
219.688
  0
LINE
  8
0
 10
28.0877
 20
219.688
 11
27.8131
 21
219.946
  0
LINE
  8
0
 10
27.8131
 20
219.946
 11
27.5729
 21
220.237
  0
LINE
  8
0
 10
27.5729
 20
220.237
 11
27.3711
 21
220.555
  0
LINE
  8
0
 10
27.3711
 20
220.555
 11
27.2107
 21
220.896
  0
LINE
  8
0
 10
27.2107
 20
220.896
 11
27.0942
 21
221.254
  0
LINE
  8
0
 10
27.0942
 20
221.254
 11
27.0237
 21
221.624
  0
LINE
  8
0
 10
27.0237
 20
221.624
 11
27
 21
222
  0
LINE
  8
0
 10
27
 20
222
 11
27.0237
 21
222.376
  0
LINE
  8
0
 10
27.0237
 20
222.376
 11
27.0942
 21
222.746
  0
LINE
  8
0
 10
27.0942
 20
222.746
 11
27.2107
 21
223.104
  0
LINE
  8
0
 10
27.2107
 20
223.104
 11
27.3711
 21
223.445
  0
LINE
  8
0
 10
27.3711
 20
223.445
 11
27.5729
 21
223.763
  0
LINE
  8
0
 10
27.5729
 20
223.763
 11
27.8131
 21
224.054
  0
LINE
  8
0
 10
27.8131
 20
224.054
 11
28.0877
 21
224.312
  0
LINE
  8
0
 10
28.0877
 20
224.312
 11
28.3925
 21
224.533
  0
LINE
  8
0
 10
28.3925
 20
224.533
 11
28.7227
 21
224.714
  0
LINE
  8
0
 10
28.7227
 20
224.714
 11
29.0729
 21
224.853
  0
LINE
  8
0
 10
29.0729
 20
224.853
 11
29.4379
 21
224.947
  0
LINE
  8
0
 10
29.4379
 20
224.947
 11
29.8116
 21
224.994
  0
LINE
  8
0
 10
29.8116
 20
224.994
 11
30.1884
 21
224.994
  0
LINE
  8
0
 10
30.1884
 20
224.994
 11
30.5621
 21
224.947
  0
LINE
  8
0
 10
30.5621
 20
224.947
 11
30.927
 21
224.853
  0
LINE
  8
0
 10
30.927
 20
224.853
 11
31.2773
 21
224.714
  0
LINE
  8
0
 10
31.2773
 20
224.714
 11
31.6075
 21
224.533
  0
LINE
  8
0
 10
31.6075
 20
224.533
 11
31.9123
 21
224.312
  0
LINE
  8
0
 10
31.9123
 20
224.312
 11
32.1869
 21
224.054
  0
LINE
  8
0
 10
32.1869
 20
224.054
 11
32.427
 21
223.763
  0
LINE
  8
0
 10
32.427
 20
223.763
 11
32.6289
 21
223.445
  0
LINE
  8
0
 10
32.6289
 20
223.445
 11
32.7893
 21
223.104
  0
LINE
  8
0
 10
32.7893
 20
223.104
 11
32.9057
 21
222.746
  0
LINE
  8
0
 10
32.9057
 20
222.746
 11
32.9763
 21
222.376
  0
LINE
  8
0
 10
32.9763
 20
222.376
 11
33
 21
222
  0
LINE
  8
0
 10
33
 20
222
 11
32.9763
 21
221.624
  0
LINE
  8
0
 10
32.9763
 20
221.624
 11
32.9057
 21
221.254
  0
LINE
  8
0
 10
32.9057
 20
221.254
 11
32.7893
 21
220.896
  0
LINE
  8
0
 10
32.7893
 20
220.896
 11
32.6289
 21
220.555
  0
LINE
  8
0
 10
32.6289
 20
220.555
 11
32.427
 21
220.237
  0
LINE
  8
0
 10
32.427
 20
220.237
 11
32.1869
 21
219.946
  0
LINE
  8
0
 10
32.1869
 20
219.946
 11
31.9123
 21
219.688
  0
LINE
  8
0
 10
31.9123
 20
219.688
 11
31.6075
 21
219.467
  0
LINE
  8
0
 10
31.6075
 20
219.467
 11
31.2773
 21
219.286
  0
LINE
  8
0
 10
31.2773
 20
219.286
 11
30.927
 21
219.147
  0
LINE
  8
0
 10
30.927
 20
219.147
 11
30.5621
 21
219.053
  0
LINE
  8
0
 10
30.5621
 20
219.053
 11
30.1884
 21
219.006
  0
LINE
  8
0
 10
30.1884
 20
219.006
 11
29.8116
 21
219.006
  0
LINE
  8
0
 10
27
 20
288.99
 11
16.1312
 21
288.99
  0
LINE
  8
0
 10
16.1312
 20
288.99
 11
19.1213
 21
286
  0
LINE
  8
0
 10
19.1213
 20
286
 11
27
 21
286
  0
LINE
  8
0
 10
27
 20
286
 11
27
 21
288.99
  0
LINE
  8
0
 10
18.9984
 20
198.018
 11
19.12
 21
198.049
  0
LINE
  8
0
 10
19.12
 20
198.049
 11
19.2368
 21
198.095
  0
LINE
  8
0
 10
19.2368
 20
198.095
 11
19.3468
 21
198.156
  0
LINE
  8
0
 10
19.3468
 20
198.156
 11
19.4484
 21
198.229
  0
LINE
  8
0
 10
19.4484
 20
198.229
 11
19.54
 21
198.315
  0
LINE
  8
0
 10
19.54
 20
198.315
 11
19.62
 21
198.412
  0
LINE
  8
0
 10
19.62
 20
198.412
 11
19.6873
 21
198.518
  0
LINE
  8
0
 10
19.6873
 20
198.518
 11
19.7408
 21
198.632
  0
LINE
  8
0
 10
19.7408
 20
198.632
 11
19.7796
 21
198.751
  0
LINE
  8
0
 10
19.7796
 20
198.751
 11
19.8031
 21
198.875
  0
LINE
  8
0
 10
19.8031
 20
198.875
 11
19.811
 21
199
  0
LINE
  8
0
 10
19.811
 20
199
 11
19.8031
 21
199.125
  0
LINE
  8
0
 10
19.8031
 20
199.125
 11
19.7796
 21
199.249
  0
LINE
  8
0
 10
19.7796
 20
199.249
 11
19.7408
 21
199.368
  0
LINE
  8
0
 10
19.7408
 20
199.368
 11
19.6873
 21
199.482
  0
LINE
  8
0
 10
19.6873
 20
199.482
 11
19.62
 21
199.588
  0
LINE
  8
0
 10
19.62
 20
199.588
 11
19.54
 21
199.685
  0
LINE
  8
0
 10
19.54
 20
199.685
 11
19.4484
 21
199.771
  0
LINE
  8
0
 10
19.4484
 20
199.771
 11
19.3468
 21
199.844
  0
LINE
  8
0
 10
19.3468
 20
199.844
 11
19.2368
 21
199.905
  0
LINE
  8
0
 10
19.2368
 20
199.905
 11
19.12
 21
199.951
  0
LINE
  8
0
 10
19.12
 20
199.951
 11
18.9984
 21
199.982
  0
LINE
  8
0
 10
18.9984
 20
199.982
 11
18.8738
 21
199.998
  0
LINE
  8
0
 10
18.8738
 20
199.998
 11
13.7482
 21
199.998
  0
LINE
  8
0
 10
13.7482
 20
199.998
 11
13.6236
 21
199.982
  0
LINE
  8
0
 10
13.6236
 20
199.982
 11
13.502
 21
199.951
  0
LINE
  8
0
 10
13.502
 20
199.951
 11
13.3852
 21
199.905
  0
LINE
  8
0
 10
13.3852
 20
199.905
 11
13.2752
 21
199.844
  0
LINE
  8
0
 10
13.2752
 20
199.844
 11
13.1736
 21
199.771
  0
LINE
  8
0
 10
13.1736
 20
199.771
 11
13.082
 21
199.685
  0
LINE
  8
0
 10
13.082
 20
199.685
 11
13.002
 21
199.588
  0
LINE
  8
0
 10
13.002
 20
199.588
 11
12.9347
 21
199.482
  0
LINE
  8
0
 10
12.9347
 20
199.482
 11
12.8812
 21
199.368
  0
LINE
  8
0
 10
12.8812
 20
199.368
 11
12.8424
 21
199.249
  0
LINE
  8
0
 10
12.8424
 20
199.249
 11
12.8189
 21
199.125
  0
LINE
  8
0
 10
12.8189
 20
199.125
 11
12.811
 21
199
  0
LINE
  8
0
 10
12.811
 20
199
 11
12.8189
 21
198.875
  0
LINE
  8
0
 10
12.8189
 20
198.875
 11
12.8424
 21
198.751
  0
LINE
  8
0
 10
12.8424
 20
198.751
 11
12.8812
 21
198.632
  0
LINE
  8
0
 10
12.8812
 20
198.632
 11
12.9347
 21
198.518
  0
LINE
  8
0
 10
12.9347
 20
198.518
 11
13.002
 21
198.412
  0
LINE
  8
0
 10
13.002
 20
198.412
 11
13.082
 21
198.315
  0
LINE
  8
0
 10
13.082
 20
198.315
 11
13.1736
 21
198.229
  0
LINE
  8
0
 10
13.1736
 20
198.229
 11
13.2752
 21
198.156
  0
LINE
  8
0
 10
13.2752
 20
198.156
 11
13.3852
 21
198.095
  0
LINE
  8
0
 10
13.3852
 20
198.095
 11
13.502
 21
198.049
  0
LINE
  8
0
 10
13.502
 20
198.049
 11
13.6236
 21
198.018
  0
LINE
  8
0
 10
13.6236
 20
198.018
 11
13.7482
 21
198.002
  0
LINE
  8
0
 10
13.7482
 20
198.002
 11
18.8738
 21
198.002
  0
LINE
  8
0
 10
18.8738
 20
198.002
 11
18.9984
 21
198.018
  0
LINE
  8
0
 10
18.9984
 20
114.018
 11
19.12
 21
114.049
  0
LINE
  8
0
 10
19.12
 20
114.049
 11
19.2368
 21
114.095
  0
LINE
  8
0
 10
19.2368
 20
114.095
 11
19.3468
 21
114.156
  0
LINE
  8
0
 10
19.3468
 20
114.156
 11
19.4484
 21
114.229
  0
LINE
  8
0
 10
19.4484
 20
114.229
 11
19.54
 21
114.315
  0
LINE
  8
0
 10
19.54
 20
114.315
 11
19.62
 21
114.412
  0
LINE
  8
0
 10
19.62
 20
114.412
 11
19.6873
 21
114.518
  0
LINE
  8
0
 10
19.6873
 20
114.518
 11
19.7408
 21
114.632
  0
LINE
  8
0
 10
19.7408
 20
114.632
 11
19.7796
 21
114.751
  0
LINE
  8
0
 10
19.7796
 20
114.751
 11
19.8031
 21
114.875
  0
LINE
  8
0
 10
19.8031
 20
114.875
 11
19.811
 21
115
  0
LINE
  8
0
 10
19.811
 20
115
 11
19.8031
 21
115.125
  0
LINE
  8
0
 10
19.8031
 20
115.125
 11
19.7796
 21
115.249
  0
LINE
  8
0
 10
19.7796
 20
115.249
 11
19.7408
 21
115.368
  0
LINE
  8
0
 10
19.7408
 20
115.368
 11
19.6873
 21
115.482
  0
LINE
  8
0
 10
19.6873
 20
115.482
 11
19.62
 21
115.588
  0
LINE
  8
0
 10
19.62
 20
115.588
 11
19.54
 21
115.685
  0
LINE
  8
0
 10
19.54
 20
115.685
 11
19.4484
 21
115.771
  0
LINE
  8
0
 10
19.4484
 20
115.771
 11
19.3468
 21
115.844
  0
LINE
  8
0
 10
19.3468
 20
115.844
 11
19.2368
 21
115.905
  0
LINE
  8
0
 10
19.2368
 20
115.905
 11
19.12
 21
115.951
  0
LINE
  8
0
 10
19.12
 20
115.951
 11
18.9984
 21
115.982
  0
LINE
  8
0
 10
18.9984
 20
115.982
 11
18.8738
 21
115.998
  0
LINE
  8
0
 10
18.8738
 20
115.998
 11
13.7482
 21
115.998
  0
LINE
  8
0
 10
13.7482
 20
115.998
 11
13.6236
 21
115.982
  0
LINE
  8
0
 10
13.6236
 20
115.982
 11
13.502
 21
115.951
  0
LINE
  8
0
 10
13.502
 20
115.951
 11
13.3852
 21
115.905
  0
LINE
  8
0
 10
13.3852
 20
115.905
 11
13.2752
 21
115.844
  0
LINE
  8
0
 10
13.2752
 20
115.844
 11
13.1736
 21
115.771
  0
LINE
  8
0
 10
13.1736
 20
115.771
 11
13.082
 21
115.685
  0
LINE
  8
0
 10
13.082
 20
115.685
 11
13.002
 21
115.588
  0
LINE
  8
0
 10
13.002
 20
115.588
 11
12.9347
 21
115.482
  0
LINE
  8
0
 10
12.9347
 20
115.482
 11
12.8812
 21
115.368
  0
LINE
  8
0
 10
12.8812
 20
115.368
 11
12.8424
 21
115.249
  0
LINE
  8
0
 10
12.8424
 20
115.249
 11
12.8189
 21
115.125
  0
LINE
  8
0
 10
12.8189
 20
115.125
 11
12.811
 21
115
  0
LINE
  8
0
 10
12.811
 20
115
 11
12.8189
 21
114.875
  0
LINE
  8
0
 10
12.8189
 20
114.875
 11
12.8424
 21
114.751
  0
LINE
  8
0
 10
12.8424
 20
114.751
 11
12.8812
 21
114.632
  0
LINE
  8
0
 10
12.8812
 20
114.632
 11
12.9347
 21
114.518
  0
LINE
  8
0
 10
12.9347
 20
114.518
 11
13.002
 21
114.412
  0
LINE
  8
0
 10
13.002
 20
114.412
 11
13.082
 21
114.315
  0
LINE
  8
0
 10
13.082
 20
114.315
 11
13.1736
 21
114.229
  0
LINE
  8
0
 10
13.1736
 20
114.229
 11
13.2752
 21
114.156
  0
LINE
  8
0
 10
13.2752
 20
114.156
 11
13.3852
 21
114.095
  0
LINE
  8
0
 10
13.3852
 20
114.095
 11
13.502
 21
114.049
  0
LINE
  8
0
 10
13.502
 20
114.049
 11
13.6236
 21
114.018
  0
LINE
  8
0
 10
13.6236
 20
114.018
 11
13.7482
 21
114.002
  0
LINE
  8
0
 10
13.7482
 20
114.002
 11
18.8738
 21
114.002
  0
LINE
  8
0
 10
18.8738
 20
114.002
 11
18.9984
 21
114.018
  0
LINE
  8
0
 10
18.9984
 20
30.0177
 11
19.12
 21
30.0489
  0
LINE
  8
0
 10
19.12
 20
30.0489
 11
19.2368
 21
30.0952
  0
LINE
  8
0
 10
19.2368
 20
30.0952
 11
19.3468
 21
30.1557
  0
LINE
  8
0
 10
19.3468
 20
30.1557
 11
19.4484
 21
30.2295
  0
LINE
  8
0
 10
19.4484
 20
30.2295
 11
19.54
 21
30.3154
  0
LINE
  8
0
 10
19.54
 20
30.3154
 11
19.62
 21
30.4122
  0
LINE
  8
0
 10
19.62
 20
30.4122
 11
19.6873
 21
30.5182
  0
LINE
  8
0
 10
19.6873
 20
30.5182
 11
19.7408
 21
30.6319
  0
LINE
  8
0
 10
19.7408
 20
30.6319
 11
19.7796
 21
30.7513
  0
LINE
  8
0
 10
19.7796
 20
30.7513
 11
19.8031
 21
30.8747
  0
LINE
  8
0
 10
19.8031
 20
30.8747
 11
19.811
 21
31
  0
LINE
  8
0
 10
19.811
 20
31
 11
19.8031
 21
31.1253
  0
LINE
  8
0
 10
19.8031
 20
31.1253
 11
19.7796
 21
31.2487
  0
LINE
  8
0
 10
19.7796
 20
31.2487
 11
19.7408
 21
31.3681
  0
LINE
  8
0
 10
19.7408
 20
31.3681
 11
19.6873
 21
31.4818
  0
LINE
  8
0
 10
19.6873
 20
31.4818
 11
19.62
 21
31.5878
  0
LINE
  8
0
 10
19.62
 20
31.5878
 11
19.54
 21
31.6845
  0
LINE
  8
0
 10
19.54
 20
31.6845
 11
19.4484
 21
31.7705
  0
LINE
  8
0
 10
19.4484
 20
31.7705
 11
19.3468
 21
31.8443
  0
LINE
  8
0
 10
19.3468
 20
31.8443
 11
19.2368
 21
31.9048
  0
LINE
  8
0
 10
19.2368
 20
31.9048
 11
19.12
 21
31.951
  0
LINE
  8
0
 10
19.12
 20
31.951
 11
18.9984
 21
31.9823
  0
LINE
  8
0
 10
18.9984
 20
31.9823
 11
18.8738
 21
31.998
  0
LINE
  8
0
 10
18.8738
 20
31.998
 11
13.7482
 21
31.998
  0
LINE
  8
0
 10
13.7482
 20
31.998
 11
13.6236
 21
31.9823
  0
LINE
  8
0
 10
13.6236
 20
31.9823
 11
13.502
 21
31.951
  0
LINE
  8
0
 10
13.502
 20
31.951
 11
13.3852
 21
31.9048
  0
LINE
  8
0
 10
13.3852
 20
31.9048
 11
13.2752
 21
31.8443
  0
LINE
  8
0
 10
13.2752
 20
31.8443
 11
13.1736
 21
31.7705
  0
LINE
  8
0
 10
13.1736
 20
31.7705
 11
13.082
 21
31.6845
  0
LINE
  8
0
 10
13.082
 20
31.6845
 11
13.002
 21
31.5878
  0
LINE
  8
0
 10
13.002
 20
31.5878
 11
12.9347
 21
31.4818
  0
LINE
  8
0
 10
12.9347
 20
31.4818
 11
12.8812
 21
31.3681
  0
LINE
  8
0
 10
12.8812
 20
31.3681
 11
12.8424
 21
31.2487
  0
LINE
  8
0
 10
12.8424
 20
31.2487
 11
12.8189
 21
31.1253
  0
LINE
  8
0
 10
12.8189
 20
31.1253
 11
12.811
 21
31
  0
LINE
  8
0
 10
12.811
 20
31
 11
12.8189
 21
30.8747
  0
LINE
  8
0
 10
12.8189
 20
30.8747
 11
12.8424
 21
30.7513
  0
LINE
  8
0
 10
12.8424
 20
30.7513
 11
12.8812
 21
30.6319
  0
LINE
  8
0
 10
12.8812
 20
30.6319
 11
12.9347
 21
30.5182
  0
LINE
  8
0
 10
12.9347
 20
30.5182
 11
13.002
 21
30.4122
  0
LINE
  8
0
 10
13.002
 20
30.4122
 11
13.082
 21
30.3154
  0
LINE
  8
0
 10
13.082
 20
30.3154
 11
13.1736
 21
30.2295
  0
LINE
  8
0
 10
13.1736
 20
30.2295
 11
13.2752
 21
30.1557
  0
LINE
  8
0
 10
13.2752
 20
30.1557
 11
13.3852
 21
30.0952
  0
LINE
  8
0
 10
13.3852
 20
30.0952
 11
13.502
 21
30.0489
  0
LINE
  8
0
 10
13.502
 20
30.0489
 11
13.6236
 21
30.0177
  0
LINE
  8
0
 10
13.6236
 20
30.0177
 11
13.7482
 21
30.002
  0
LINE
  8
0
 10
13.7482
 20
30.002
 11
18.8738
 21
30.002
  0
LINE
  8
0
 10
18.8738
 20
30.002
 11
18.9984
 21
30.0177
  0
ENDSEC
  0
SECTION
  2
OBJECTS
  0
DICTIONARY
  0
ENDSEC
  0
EOF
