<?xml version="1.0" standalone="no"?>
<!DOCTYPE svg PUBLIC "-//W3C//DTD SVG 1.1//EN" "http://www.w3.org/Graphics/SVG/1.1/DTD/svg11.dtd">
<svg width="74mm" height="427mm" viewBox="-37 -457 74 427" xmlns="http://www.w3.org/2000/svg" version="1.1">
<title>OpenSCAD Model</title>
<path d="
M 32.9369,-383.089 L 33.5451,-383.245 L 34.1289,-383.476 L 34.6791,-383.778 L 35.1871,-384.147 L 35.6448,-384.577
 L 36.0451,-385.061 L 36.3815,-385.591 L 36.6489,-386.159 L 36.8429,-386.757 L 36.9606,-387.373 L 37,-388
 L 37,-452 L 14.561,-452 L 14.561,-451.998 L 13.7482,-451.998 L 13.6236,-451.982 L 13.502,-451.951
 L 13.3852,-451.905 L 13.2752,-451.844 L 13.1736,-451.771 L 13.082,-451.685 L 13.002,-451.588 L 12.9347,-451.482
 L 12.8812,-451.368 L 12.8424,-451.249 L 12.8189,-451.125 L 12.811,-451 L 12.8189,-450.875 L 12.8424,-450.751
 L 12.8812,-450.632 L 12.9347,-450.518 L 13.002,-450.412 L 13.082,-450.315 L 13.1736,-450.229 L 13.2752,-450.156
 L 13.3852,-450.095 L 13.502,-450.049 L 13.6236,-450.018 L 13.7482,-450.002 L 15.8628,-450.002 L 18.2181,-448.707
 L 21.6724,-446.197 L 24.7849,-443.275 L 27.5066,-439.985 L 29.7944,-436.38 L 31.6124,-432.516 L 32.9318,-428.455
 L 33.7319,-424.261 L 34,-420 L 33.7319,-415.739 L 32.9318,-411.545 L 31.6124,-407.484 L 29.7944,-403.62
 L 27.5066,-400.015 L 24.7849,-396.725 L 21.6724,-393.803 L 18.2181,-391.293 L 14.4765,-389.236 L 10.5066,-387.664
 L 6.37096,-386.602 L 2.13487,-386.067 L -2.13487,-386.067 L -6.37096,-386.602 L -10.5066,-387.664 L -14.4765,-389.236
 L -18.2181,-391.293 L -21.6724,-393.803 L -24.7849,-396.725 L -27.5066,-400.015 L -29.7944,-403.62 L -31.6124,-407.484
 L -32.9318,-411.545 L -33.7319,-415.739 L -34,-420 L -33.7319,-424.261 L -32.9318,-428.455 L -31.6124,-432.516
 L -29.7944,-436.38 L -27.5066,-439.985 L -24.7849,-443.275 L -21.6724,-446.197 L -18.2181,-448.707 L -14.4765,-450.764
 L -10.5066,-452.336 L -6.37096,-453.398 L -2.13487,-453.933 L 0,-453.933 L 0,-454 L 17,-454
 L 14.0099,-456.99 L -4,-456.99 L -4,-456 L -36,-456 L -36,-457 L -37,-457
 L -37,-388 L -36.9606,-387.373 L -36.8429,-386.757 L -36.6489,-386.159 L -36.3815,-385.591 L -36.0451,-385.061
 L -35.6448,-384.577 L -35.1871,-384.147 L -34.6791,-383.778 L -34.1289,-383.476 L -33.5451,-383.245 L -32.9369,-383.089
 L -32.3139,-383.01 L 32.3139,-383.01 z
M 29.8116,-387.006 L 29.4379,-387.053 L 29.0729,-387.147 L 28.7227,-387.286 L 28.3925,-387.467 L 28.0877,-387.688
 L 27.8131,-387.946 L 27.5729,-388.237 L 27.3711,-388.555 L 27.2107,-388.896 L 27.0942,-389.254 L 27.0237,-389.624
 L 27,-390 L 27.0237,-390.376 L 27.0942,-390.746 L 27.2107,-391.104 L 27.3711,-391.445 L 27.5729,-391.763
 L 27.8131,-392.054 L 28.0877,-392.312 L 28.3925,-392.533 L 28.7227,-392.714 L 29.0729,-392.853 L 29.4379,-392.947
 L 29.8116,-392.994 L 30.1884,-392.994 L 30.5621,-392.947 L 30.927,-392.853 L 31.2773,-392.714 L 31.6075,-392.533
 L 31.9123,-392.312 L 32.1869,-392.054 L 32.427,-391.763 L 32.6289,-391.445 L 32.7893,-391.104 L 32.9057,-390.746
 L 32.9763,-390.376 L 33,-390 L 32.9763,-389.624 L 32.9057,-389.254 L 32.7893,-388.896 L 32.6289,-388.555
 L 32.427,-388.237 L 32.1869,-387.946 L 31.9123,-387.688 L 31.6075,-387.467 L 31.2773,-387.286 L 30.927,-387.147
 L 30.5621,-387.053 L 30.1884,-387.006 z
M 27,-456.99 L 16.1312,-456.99 L 19.1213,-454 L 27,-454 z
M 32.9369,-299.089 L 33.5451,-299.245 L 34.1289,-299.476 L 34.6791,-299.778 L 35.1871,-300.147 L 35.6448,-300.577
 L 36.0451,-301.061 L 36.3815,-301.591 L 36.6489,-302.159 L 36.8429,-302.757 L 36.9606,-303.373 L 37,-304
 L 37,-368 L 14.561,-368 L 14.561,-367.998 L 13.7482,-367.998 L 13.6236,-367.982 L 13.502,-367.951
 L 13.3852,-367.905 L 13.2752,-367.844 L 13.1736,-367.771 L 13.082,-367.685 L 13.002,-367.588 L 12.9347,-367.482
 L 12.8812,-367.368 L 12.8424,-367.249 L 12.8189,-367.125 L 12.811,-367 L 12.8189,-366.875 L 12.8424,-366.751
 L 12.8812,-366.632 L 12.9347,-366.518 L 13.002,-366.412 L 13.082,-366.315 L 13.1736,-366.229 L 13.2752,-366.156
 L 13.3852,-366.095 L 13.502,-366.049 L 13.6236,-366.018 L 13.7482,-366.002 L 15.8628,-366.002 L 18.2181,-364.707
 L 21.6724,-362.197 L 24.7849,-359.275 L 27.5066,-355.985 L 29.7944,-352.38 L 31.6124,-348.516 L 32.9318,-344.455
 L 33.7319,-340.261 L 34,-336 L 33.7319,-331.739 L 32.9318,-327.545 L 31.6124,-323.484 L 29.7944,-319.62
 L 27.5066,-316.015 L 24.7849,-312.725 L 21.6724,-309.803 L 18.2181,-307.293 L 14.4765,-305.236 L 10.5066,-303.664
 L 6.37096,-302.602 L 2.13487,-302.067 L -2.13487,-302.067 L -6.37096,-302.602 L -10.5066,-303.664 L -14.4765,-305.236
 L -18.2181,-307.293 L -21.6724,-309.803 L -24.7849,-312.725 L -27.5066,-316.015 L -29.7944,-319.62 L -31.6124,-323.484
 L -32.9318,-327.545 L -33.7319,-331.739 L -34,-336 L -33.7319,-340.261 L -32.9318,-344.455 L -31.6124,-348.516
 L -29.7944,-352.38 L -27.5066,-355.985 L -24.7849,-359.275 L -21.6724,-362.197 L -18.2181,-364.707 L -14.4765,-366.764
 L -10.5066,-368.336 L -6.37096,-369.398 L -2.13487,-369.933 L 0,-369.933 L 0,-370 L 17,-370
 L 14.0099,-372.99 L -4,-372.99 L -4,-372 L -36,-372 L -36,-373 L -37,-373
 L -37,-304 L -36.9606,-303.373 L -36.8429,-302.757 L -36.6489,-302.159 L -36.3815,-301.591 L -36.0451,-301.061
 L -35.6448,-300.577 L -35.1871,-300.147 L -34.6791,-299.778 L -34.1289,-299.476 L -33.5451,-299.245 L -32.9369,-299.089
 L -32.3139,-299.01 L 32.3139,-299.01 z
M 29.8116,-303.006 L 29.4379,-303.053 L 29.0729,-303.147 L 28.7227,-303.286 L 28.3925,-303.467 L 28.0877,-303.688
 L 27.8131,-303.946 L 27.5729,-304.237 L 27.3711,-304.555 L 27.2107,-304.896 L 27.0942,-305.254 L 27.0237,-305.624
 L 27,-306 L 27.0237,-306.376 L 27.0942,-306.746 L 27.2107,-307.104 L 27.3711,-307.445 L 27.5729,-307.763
 L 27.8131,-308.054 L 28.0877,-308.312 L 28.3925,-308.533 L 28.7227,-308.714 L 29.0729,-308.853 L 29.4379,-308.947
 L 29.8116,-308.994 L 30.1884,-308.994 L 30.5621,-308.947 L 30.927,-308.853 L 31.2773,-308.714 L 31.6075,-308.533
 L 31.9123,-308.312 L 32.1869,-308.054 L 32.427,-307.763 L 32.6289,-307.445 L 32.7893,-307.104 L 32.9057,-306.746
 L 32.9763,-306.376 L 33,-306 L 32.9763,-305.624 L 32.9057,-305.254 L 32.7893,-304.896 L 32.6289,-304.555
 L 32.427,-304.237 L 32.1869,-303.946 L 31.9123,-303.688 L 31.6075,-303.467 L 31.2773,-303.286 L 30.927,-303.147
 L 30.5621,-303.053 L 30.1884,-303.006 z
M 27,-372.99 L 16.1312,-372.99 L 19.1213,-370 L 27,-370 z
M 32.9369,-215.089 L 33.5451,-215.245 L 34.1289,-215.476 L 34.6791,-215.778 L 35.1871,-216.147 L 35.6448,-216.577
 L 36.0451,-217.061 L 36.3815,-217.591 L 36.6489,-218.159 L 36.8429,-218.757 L 36.9606,-219.373 L 37,-220
 L 37,-284 L 14.561,-284 L 14.561,-283.998 L 13.7482,-283.998 L 13.6236,-283.982 L 13.502,-283.951
 L 13.3852,-283.905 L 13.2752,-283.844 L 13.1736,-283.771 L 13.082,-283.685 L 13.002,-283.588 L 12.9347,-283.482
 L 12.8812,-283.368 L 12.8424,-283.249 L 12.8189,-283.125 L 12.811,-283 L 12.8189,-282.875 L 12.8424,-282.751
 L 12.8812,-282.632 L 12.9347,-282.518 L 13.002,-282.412 L 13.082,-282.315 L 13.1736,-282.229 L 13.2752,-282.156
 L 13.3852,-282.095 L 13.502,-282.049 L 13.6236,-282.018 L 13.7482,-282.002 L 15.8628,-282.002 L 18.2181,-280.707
 L 21.6724,-278.197 L 24.7849,-275.275 L 27.5066,-271.985 L 29.7944,-268.38 L 31.6124,-264.516 L 32.9318,-260.455
 L 33.7319,-256.261 L 34,-252 L 33.7319,-247.739 L 32.9318,-243.545 L 31.6124,-239.484 L 29.7944,-235.62
 L 27.5066,-232.015 L 24.7849,-228.725 L 21.6724,-225.803 L 18.2181,-223.293 L 14.4765,-221.236 L 10.5066,-219.664
 L 6.37096,-218.602 L 2.13487,-218.067 L -2.13487,-218.067 L -6.37096,-218.602 L -10.5066,-219.664 L -14.4765,-221.236
 L -18.2181,-223.293 L -21.6724,-225.803 L -24.7849,-228.725 L -27.5066,-232.015 L -29.7944,-235.62 L -31.6124,-239.484
 L -32.9318,-243.545 L -33.7319,-247.739 L -34,-252 L -33.7319,-256.261 L -32.9318,-260.455 L -31.6124,-264.516
 L -29.7944,-268.38 L -27.5066,-271.985 L -24.7849,-275.275 L -21.6724,-278.197 L -18.2181,-280.707 L -14.4765,-282.764
 L -10.5066,-284.336 L -6.37096,-285.398 L -2.13487,-285.933 L 0,-285.933 L 0,-286 L 17,-286
 L 14.0099,-288.99 L -4,-288.99 L -4,-288 L -36,-288 L -36,-289 L -37,-289
 L -37,-220 L -36.9606,-219.373 L -36.8429,-218.757 L -36.6489,-218.159 L -36.3815,-217.591 L -36.0451,-217.061
 L -35.6448,-216.577 L -35.1871,-216.147 L -34.6791,-215.778 L -34.1289,-215.476 L -33.5451,-215.245 L -32.9369,-215.089
 L -32.3139,-215.01 L 32.3139,-215.01 z
M 29.8116,-219.006 L 29.4379,-219.053 L 29.0729,-219.147 L 28.7227,-219.286 L 28.3925,-219.467 L 28.0877,-219.688
 L 27.8131,-219.946 L 27.5729,-220.237 L 27.3711,-220.555 L 27.2107,-220.896 L 27.0942,-221.254 L 27.0237,-221.624
 L 27,-222 L 27.0237,-222.376 L 27.0942,-222.746 L 27.2107,-223.104 L 27.3711,-223.445 L 27.5729,-223.763
 L 27.8131,-224.054 L 28.0877,-224.312 L 28.3925,-224.533 L 28.7227,-224.714 L 29.0729,-224.853 L 29.4379,-224.947
 L 29.8116,-224.994 L 30.1884,-224.994 L 30.5621,-224.947 L 30.927,-224.853 L 31.2773,-224.714 L 31.6075,-224.533
 L 31.9123,-224.312 L 32.1869,-224.054 L 32.427,-223.763 L 32.6289,-223.445 L 32.7893,-223.104 L 32.9057,-222.746
 L 32.9763,-222.376 L 33,-222 L 32.9763,-221.624 L 32.9057,-221.254 L 32.7893,-220.896 L 32.6289,-220.555
 L 32.427,-220.237 L 32.1869,-219.946 L 31.9123,-219.688 L 31.6075,-219.467 L 31.2773,-219.286 L 30.927,-219.147
 L 30.5621,-219.053 L 30.1884,-219.006 z
M 27,-288.99 L 16.1312,-288.99 L 19.1213,-286 L 27,-286 z
M 18.9984,-198.018 L 19.12,-198.049 L 19.2368,-198.095 L 19.3468,-198.156 L 19.4484,-198.229 L 19.54,-198.315
 L 19.62,-198.412 L 19.6873,-198.518 L 19.7408,-198.632 L 19.7796,-198.751 L 19.8031,-198.875 L 19.811,-199
 L 19.8031,-199.125 L 19.7796,-199.249 L 19.7408,-199.368 L 19.6873,-199.482 L 19.62,-199.588 L 19.54,-199.685
 L 19.4484,-199.771 L 19.3468,-199.844 L 19.2368,-199.905 L 19.12,-199.951 L 18.9984,-199.982 L 18.8738,-199.998
 L 13.7482,-199.998 L 13.6236,-199.982 L 13.502,-199.951 L 13.3852,-199.905 L 13.2752,-199.844 L 13.1736,-199.771
 L 13.082,-199.685 L 13.002,-199.588 L 12.9347,-199.482 L 12.8812,-199.368 L 12.8424,-199.249 L 12.8189,-199.125
 L 12.811,-199 L 12.8189,-198.875 L 12.8424,-198.751 L 12.8812,-198.632 L 12.9347,-198.518 L 13.002,-198.412
 L 13.082,-198.315 L 13.1736,-198.229 L 13.2752,-198.156 L 13.3852,-198.095 L 13.502,-198.049 L 13.6236,-198.018
 L 13.7482,-198.002 L 18.8738,-198.002 z
M 18.9984,-114.018 L 19.12,-114.049 L 19.2368,-114.095 L 19.3468,-114.156 L 19.4484,-114.229 L 19.54,-114.315
 L 19.62,-114.412 L 19.6873,-114.518 L 19.7408,-114.632 L 19.7796,-114.751 L 19.8031,-114.875 L 19.811,-115
 L 19.8031,-115.125 L 19.7796,-115.249 L 19.7408,-115.368 L 19.6873,-115.482 L 19.62,-115.588 L 19.54,-115.685
 L 19.4484,-115.771 L 19.3468,-115.844 L 19.2368,-115.905 L 19.12,-115.951 L 18.9984,-115.982 L 18.8738,-115.998
 L 13.7482,-115.998 L 13.6236,-115.982 L 13.502,-115.951 L 13.3852,-115.905 L 13.2752,-115.844 L 13.1736,-115.771
 L 13.082,-115.685 L 13.002,-115.588 L 12.9347,-115.482 L 12.8812,-115.368 L 12.8424,-115.249 L 12.8189,-115.125
 L 12.811,-115 L 12.8189,-114.875 L 12.8424,-114.751 L 12.8812,-114.632 L 12.9347,-114.518 L 13.002,-114.412
 L 13.082,-114.315 L 13.1736,-114.229 L 13.2752,-114.156 L 13.3852,-114.095 L 13.502,-114.049 L 13.6236,-114.018
 L 13.7482,-114.002 L 18.8738,-114.002 z
M 18.9984,-30.0177 L 19.12,-30.0489 L 19.2368,-30.0952 L 19.3468,-30.1557 L 19.4484,-30.2295 L 19.54,-30.3154
 L 19.62,-30.4122 L 19.6873,-30.5182 L 19.7408,-30.6319 L 19.7796,-30.7513 L 19.8031,-30.8747 L 19.811,-31
 L 19.8031,-31.1253 L 19.7796,-31.2487 L 19.7408,-31.3681 L 19.6873,-31.4818 L 19.62,-31.5878 L 19.54,-31.6845
 L 19.4484,-31.7705 L 19.3468,-31.8443 L 19.2368,-31.9048 L 19.12,-31.951 L 18.9984,-31.9823 L 18.8738,-31.998
 L 13.7482,-31.998 L 13.6236,-31.9823 L 13.502,-31.951 L 13.3852,-31.9048 L 13.2752,-31.8443 L 13.1736,-31.7705
 L 13.082,-31.6845 L 13.002,-31.5878 L 12.9347,-31.4818 L 12.8812,-31.3681 L 12.8424,-31.2487 L 12.8189,-31.1253
 L 12.811,-31 L 12.8189,-30.8747 L 12.8424,-30.7513 L 12.8812,-30.6319 L 12.9347,-30.5182 L 13.002,-30.4122
 L 13.082,-30.3154 L 13.1736,-30.2295 L 13.2752,-30.1557 L 13.3852,-30.0952 L 13.502,-30.0489 L 13.6236,-30.0177
 L 13.7482,-30.002 L 18.8738,-30.002 z
" stroke="black" fill="lightgray" stroke-width="0.5"/>
</svg>
