<?xml version="1.0" standalone="no"?>
<!DOCTYPE svg PUBLIC "-//W3C//DTD SVG 1.1//EN" "http://www.w3.org/Graphics/SVG/1.1/DTD/svg11.dtd">
<svg width="24mm" height="1162mm" viewBox="-12 -1985 24 1162" xmlns="http://www.w3.org/2000/svg" version="1.1">
<title>OpenSCAD Model</title>
<path d="
M 7.1869,-1759.59 L 7.79507,-1759.74 L 8.37889,-1759.98 L 8.92912,-1760.28 L 9.43712,-1760.65 L 9.89484,-1761.08
 L 10.2951,-1761.56 L 10.6315,-1762.09 L 10.8989,-1762.66 L 11.0929,-1763.26 L 11.2106,-1763.87 L 11.25,-1764.5
 L 11.25,-1979.5 L 11.2106,-1980.13 L 11.0929,-1980.74 L 10.8989,-1981.34 L 10.6315,-1981.91 L 10.2951,-1982.44
 L 9.89484,-1982.92 L 9.43712,-1983.35 L 8.92912,-1983.72 L 8.37889,-1984.02 L 7.79507,-1984.26 L 7.1869,-1984.41
 L 6.56395,-1984.49 L -6.56395,-1984.49 L -7.1869,-1984.41 L -7.79507,-1984.26 L -8.37889,-1984.02 L -8.92912,-1983.72
 L -9.43712,-1983.35 L -9.89484,-1982.92 L -10.2951,-1982.44 L -10.6315,-1981.91 L -10.8989,-1981.34 L -11.0929,-1980.74
 L -11.2106,-1980.13 L -11.25,-1979.5 L -11.25,-1764.5 L -11.2106,-1763.87 L -11.0929,-1763.26 L -10.8989,-1762.66
 L -10.6315,-1762.09 L -10.2951,-1761.56 L -9.89484,-1761.08 L -9.43712,-1760.65 L -8.92912,-1760.28 L -8.37889,-1759.98
 L -7.79507,-1759.74 L -7.1869,-1759.59 L -6.56395,-1759.51 L 6.56395,-1759.51 z
M -6.00116,-1761.01 L -6.49951,-1761.07 L -6.98605,-1761.2 L -7.45311,-1761.38 L -7.8933,-1761.62 L -8.29968,-1761.92
 L -8.66586,-1762.26 L -8.98605,-1762.65 L -9.25522,-1763.07 L -9.4691,-1763.53 L -9.62433,-1764.01 L -9.71844,-1764.5
 L -9.75,-1765 L -9.75,-1979 L -9.71844,-1979.5 L -9.62433,-1979.99 L -9.4691,-1980.47 L -9.25522,-1980.93
 L -8.98605,-1981.35 L -8.66586,-1981.74 L -8.29968,-1982.08 L -7.8933,-1982.38 L -7.45311,-1982.62 L -6.98605,-1982.8
 L -6.49951,-1982.93 L -6.00116,-1982.99 L 6.00116,-1982.99 L 6.49951,-1982.93 L 6.98605,-1982.8 L 7.45311,-1982.62
 L 7.8933,-1982.38 L 8.29968,-1982.08 L 8.66586,-1981.74 L 8.98605,-1981.35 L 9.25522,-1980.93 L 9.4691,-1980.47
 L 9.62433,-1979.99 L 9.71844,-1979.5 L 9.75,-1979 L 9.75,-1765 L 9.71844,-1764.5 L 9.62433,-1764.01
 L 9.4691,-1763.53 L 9.25522,-1763.07 L 8.98605,-1762.65 L 8.66586,-1762.26 L 8.29968,-1761.92 L 7.8933,-1761.62
 L 7.45311,-1761.38 L 6.98605,-1761.2 L 6.49951,-1761.07 L 6.00116,-1761.01 z
M 7.1869,-1525.59 L 7.79507,-1525.74 L 8.37889,-1525.98 L 8.92912,-1526.28 L 9.43712,-1526.65 L 9.89484,-1527.08
 L 10.2951,-1527.56 L 10.6315,-1528.09 L 10.8989,-1528.66 L 11.0929,-1529.26 L 11.2106,-1529.87 L 11.25,-1530.5
 L 11.25,-1745.5 L 11.2106,-1746.13 L 11.0929,-1746.74 L 10.8989,-1747.34 L 10.6315,-1747.91 L 10.2951,-1748.44
 L 9.89484,-1748.92 L 9.43712,-1749.35 L 8.92912,-1749.72 L 8.37889,-1750.02 L 7.79507,-1750.26 L 7.1869,-1750.41
 L 6.56395,-1750.49 L -6.56395,-1750.49 L -7.1869,-1750.41 L -7.79507,-1750.26 L -8.37889,-1750.02 L -8.92912,-1749.72
 L -9.43712,-1749.35 L -9.89484,-1748.92 L -10.2951,-1748.44 L -10.6315,-1747.91 L -10.8989,-1747.34 L -11.0929,-1746.74
 L -11.2106,-1746.13 L -11.25,-1745.5 L -11.25,-1530.5 L -11.2106,-1529.87 L -11.0929,-1529.26 L -10.8989,-1528.66
 L -10.6315,-1528.09 L -10.2951,-1527.56 L -9.89484,-1527.08 L -9.43712,-1526.65 L -8.92912,-1526.28 L -8.37889,-1525.98
 L -7.79507,-1525.74 L -7.1869,-1525.59 L -6.56395,-1525.51 L 6.56395,-1525.51 z
M -6.00116,-1527.01 L -6.49951,-1527.07 L -6.98605,-1527.2 L -7.45311,-1527.38 L -7.8933,-1527.62 L -8.29968,-1527.92
 L -8.66586,-1528.26 L -8.98605,-1528.65 L -9.25522,-1529.07 L -9.4691,-1529.53 L -9.62433,-1530.01 L -9.71844,-1530.5
 L -9.75,-1531 L -9.75,-1745 L -9.71844,-1745.5 L -9.62433,-1745.99 L -9.4691,-1746.47 L -9.25522,-1746.93
 L -8.98605,-1747.35 L -8.66586,-1747.74 L -8.29968,-1748.08 L -7.8933,-1748.38 L -7.45311,-1748.62 L -6.98605,-1748.8
 L -6.49951,-1748.93 L -6.00116,-1748.99 L 6.00116,-1748.99 L 6.49951,-1748.93 L 6.98605,-1748.8 L 7.45311,-1748.62
 L 7.8933,-1748.38 L 8.29968,-1748.08 L 8.66586,-1747.74 L 8.98605,-1747.35 L 9.25522,-1746.93 L 9.4691,-1746.47
 L 9.62433,-1745.99 L 9.71844,-1745.5 L 9.75,-1745 L 9.75,-1531 L 9.71844,-1530.5 L 9.62433,-1530.01
 L 9.4691,-1529.53 L 9.25522,-1529.07 L 8.98605,-1528.65 L 8.66586,-1528.26 L 8.29968,-1527.92 L 7.8933,-1527.62
 L 7.45311,-1527.38 L 6.98605,-1527.2 L 6.49951,-1527.07 L 6.00116,-1527.01 z
M 7.1869,-1291.59 L 7.79507,-1291.74 L 8.37889,-1291.98 L 8.92912,-1292.28 L 9.43712,-1292.65 L 9.89484,-1293.08
 L 10.2951,-1293.56 L 10.6315,-1294.09 L 10.8989,-1294.66 L 11.0929,-1295.26 L 11.2106,-1295.87 L 11.25,-1296.5
 L 11.25,-1511.5 L 11.2106,-1512.13 L 11.0929,-1512.74 L 10.8989,-1513.34 L 10.6315,-1513.91 L 10.2951,-1514.44
 L 9.89484,-1514.92 L 9.43712,-1515.35 L 8.92912,-1515.72 L 8.37889,-1516.02 L 7.79507,-1516.26 L 7.1869,-1516.41
 L 6.56395,-1516.49 L -6.56395,-1516.49 L -7.1869,-1516.41 L -7.79507,-1516.26 L -8.37889,-1516.02 L -8.92912,-1515.72
 L -9.43712,-1515.35 L -9.89484,-1514.92 L -10.2951,-1514.44 L -10.6315,-1513.91 L -10.8989,-1513.34 L -11.0929,-1512.74
 L -11.2106,-1512.13 L -11.25,-1511.5 L -11.25,-1296.5 L -11.2106,-1295.87 L -11.0929,-1295.26 L -10.8989,-1294.66
 L -10.6315,-1294.09 L -10.2951,-1293.56 L -9.89484,-1293.08 L -9.43712,-1292.65 L -8.92912,-1292.28 L -8.37889,-1291.98
 L -7.79507,-1291.74 L -7.1869,-1291.59 L -6.56395,-1291.51 L 6.56395,-1291.51 z
M -5.99316,-1293.14 L -6.47565,-1293.2 L -6.9467,-1293.32 L -7.39888,-1293.5 L -7.82506,-1293.73 L -8.21851,-1294.02
 L -8.57301,-1294.35 L -8.88301,-1294.72 L -9.1436,-1295.13 L -9.35068,-1295.57 L -9.50096,-1296.04 L -9.59209,-1296.51
 L -9.62262,-1297 L -9.62262,-1511 L -9.59209,-1511.49 L -9.50096,-1511.96 L -9.35068,-1512.43 L -9.1436,-1512.87
 L -8.88301,-1513.28 L -8.57301,-1513.65 L -8.21851,-1513.98 L -7.82506,-1514.27 L -7.39888,-1514.5 L -6.9467,-1514.68
 L -6.47565,-1514.8 L -5.99316,-1514.86 L 5.99316,-1514.86 L 6.47565,-1514.8 L 6.9467,-1514.68 L 7.39888,-1514.5
 L 7.82506,-1514.27 L 8.21851,-1513.98 L 8.57301,-1513.65 L 8.88301,-1513.28 L 9.1436,-1512.87 L 9.35068,-1512.43
 L 9.50096,-1511.96 L 9.59209,-1511.49 L 9.62262,-1511 L 9.62262,-1297 L 9.59209,-1296.51 L 9.50096,-1296.04
 L 9.35068,-1295.57 L 9.1436,-1295.13 L 8.88301,-1294.72 L 8.57301,-1294.35 L 8.21851,-1294.02 L 7.82506,-1293.73
 L 7.39888,-1293.5 L 6.9467,-1293.32 L 6.47565,-1293.2 L 5.99316,-1293.14 z
M 7.1869,-1057.59 L 7.79507,-1057.74 L 8.37889,-1057.98 L 8.92912,-1058.28 L 9.43712,-1058.65 L 9.89484,-1059.08
 L 10.2951,-1059.56 L 10.6315,-1060.09 L 10.8989,-1060.66 L 11.0929,-1061.26 L 11.2106,-1061.87 L 11.25,-1062.5
 L 11.25,-1277.5 L 11.2106,-1278.13 L 11.0929,-1278.74 L 10.8989,-1279.34 L 10.6315,-1279.91 L 10.2951,-1280.44
 L 9.89484,-1280.92 L 9.43712,-1281.35 L 8.92912,-1281.72 L 8.37889,-1282.02 L 7.79507,-1282.26 L 7.1869,-1282.41
 L 6.56395,-1282.49 L -6.56395,-1282.49 L -7.1869,-1282.41 L -7.79507,-1282.26 L -8.37889,-1282.02 L -8.92912,-1281.72
 L -9.43712,-1281.35 L -9.89484,-1280.92 L -10.2951,-1280.44 L -10.6315,-1279.91 L -10.8989,-1279.34 L -11.0929,-1278.74
 L -11.2106,-1278.13 L -11.25,-1277.5 L -11.25,-1062.5 L -11.2106,-1061.87 L -11.0929,-1061.26 L -10.8989,-1060.66
 L -10.6315,-1060.09 L -10.2951,-1059.56 L -9.89484,-1059.08 L -9.43712,-1058.65 L -8.92912,-1058.28 L -8.37889,-1057.98
 L -7.79507,-1057.74 L -7.1869,-1057.59 L -6.56395,-1057.51 L 6.56395,-1057.51 z
M 3.59929,-1272.6 L 3.30028,-1272.64 L 3.00835,-1272.72 L 2.72812,-1272.83 L 2.464,-1272.97 L 2.22017,-1273.15
 L 2.00047,-1273.36 L 1.80835,-1273.59 L 1.64685,-1273.84 L 1.51852,-1274.12 L 1.4254,-1274.4 L 1.36891,-1274.7
 L 1.34999,-1275 L 1.36891,-1275.3 L 1.4254,-1275.6 L 1.51852,-1275.88 L 1.64685,-1276.16 L 1.80835,-1276.41
 L 2.00047,-1276.64 L 2.22017,-1276.85 L 2.464,-1277.03 L 2.72812,-1277.17 L 3.00835,-1277.28 L 3.30028,-1277.36
 L 3.59929,-1277.4 L 3.9007,-1277.4 L 4.19971,-1277.36 L 4.49164,-1277.28 L 4.77187,-1277.17 L 5.03598,-1277.03
 L 5.27982,-1276.85 L 5.49951,-1276.64 L 5.69164,-1276.41 L 5.85313,-1276.16 L 5.98146,-1275.88 L 6.07458,-1275.6
 L 6.13107,-1275.3 L 6.14999,-1275 L 6.13107,-1274.7 L 6.07458,-1274.4 L 5.98146,-1274.12 L 5.85313,-1273.84
 L 5.69164,-1273.59 L 5.49951,-1273.36 L 5.27982,-1273.15 L 5.03598,-1272.97 L 4.77187,-1272.83 L 4.49164,-1272.72
 L 4.19971,-1272.64 L 3.9007,-1272.6 z
M -3.9007,-1272.6 L -4.19971,-1272.64 L -4.49164,-1272.72 L -4.77187,-1272.83 L -5.03598,-1272.97 L -5.27982,-1273.15
 L -5.49951,-1273.36 L -5.69164,-1273.59 L -5.85313,-1273.84 L -5.98146,-1274.12 L -6.07458,-1274.4 L -6.13107,-1274.7
 L -6.14999,-1275 L -6.13107,-1275.3 L -6.07458,-1275.6 L -5.98146,-1275.88 L -5.85313,-1276.16 L -5.69164,-1276.41
 L -5.49951,-1276.64 L -5.27982,-1276.85 L -5.03598,-1277.03 L -4.77187,-1277.17 L -4.49164,-1277.28 L -4.19971,-1277.36
 L -3.9007,-1277.4 L -3.59929,-1277.4 L -3.30028,-1277.36 L -3.00835,-1277.28 L -2.72812,-1277.17 L -2.464,-1277.03
 L -2.22017,-1276.85 L -2.00047,-1276.64 L -1.80835,-1276.41 L -1.64685,-1276.16 L -1.51852,-1275.88 L -1.4254,-1275.6
 L -1.36891,-1275.3 L -1.34999,-1275 L -1.36891,-1274.7 L -1.4254,-1274.4 L -1.51852,-1274.12 L -1.64685,-1273.84
 L -1.80835,-1273.59 L -2.00047,-1273.36 L -2.22017,-1273.15 L -2.464,-1272.97 L -2.72812,-1272.83 L -3.00835,-1272.72
 L -3.30028,-1272.64 L -3.59929,-1272.6 z
M 3.59929,-1062.6 L 3.30028,-1062.64 L 3.00835,-1062.72 L 2.72812,-1062.83 L 2.464,-1062.97 L 2.22017,-1063.15
 L 2.00047,-1063.36 L 1.80835,-1063.59 L 1.64685,-1063.84 L 1.51852,-1064.12 L 1.4254,-1064.4 L 1.36891,-1064.7
 L 1.34999,-1065 L 1.36891,-1065.3 L 1.4254,-1065.6 L 1.51852,-1065.88 L 1.64685,-1066.16 L 1.80835,-1066.41
 L 2.00047,-1066.64 L 2.22017,-1066.85 L 2.464,-1067.03 L 2.72812,-1067.17 L 3.00835,-1067.28 L 3.30028,-1067.36
 L 3.59929,-1067.4 L 3.9007,-1067.4 L 4.19971,-1067.36 L 4.49164,-1067.28 L 4.77187,-1067.17 L 5.03598,-1067.03
 L 5.27982,-1066.85 L 5.49951,-1066.64 L 5.69164,-1066.41 L 5.85313,-1066.16 L 5.98146,-1065.88 L 6.07458,-1065.6
 L 6.13107,-1065.3 L 6.14999,-1065 L 6.13107,-1064.7 L 6.07458,-1064.4 L 5.98146,-1064.12 L 5.85313,-1063.84
 L 5.69164,-1063.59 L 5.49951,-1063.36 L 5.27982,-1063.15 L 5.03598,-1062.97 L 4.77187,-1062.83 L 4.49164,-1062.72
 L 4.19971,-1062.64 L 3.9007,-1062.6 z
M -3.9007,-1062.6 L -4.19971,-1062.64 L -4.49164,-1062.72 L -4.77187,-1062.83 L -5.03598,-1062.97 L -5.27982,-1063.15
 L -5.49951,-1063.36 L -5.69164,-1063.59 L -5.85313,-1063.84 L -5.98146,-1064.12 L -6.07458,-1064.4 L -6.13107,-1064.7
 L -6.14999,-1065 L -6.13107,-1065.3 L -6.07458,-1065.6 L -5.98146,-1065.88 L -5.85313,-1066.16 L -5.69164,-1066.41
 L -5.49951,-1066.64 L -5.27982,-1066.85 L -5.03598,-1067.03 L -4.77187,-1067.17 L -4.49164,-1067.28 L -4.19971,-1067.36
 L -3.9007,-1067.4 L -3.59929,-1067.4 L -3.30028,-1067.36 L -3.00835,-1067.28 L -2.72812,-1067.17 L -2.464,-1067.03
 L -2.22017,-1066.85 L -2.00047,-1066.64 L -1.80835,-1066.41 L -1.64685,-1066.16 L -1.51852,-1065.88 L -1.4254,-1065.6
 L -1.36891,-1065.3 L -1.34999,-1065 L -1.36891,-1064.7 L -1.4254,-1064.4 L -1.51852,-1064.12 L -1.64685,-1063.84
 L -1.80835,-1063.59 L -2.00047,-1063.36 L -2.22017,-1063.15 L -2.464,-1062.97 L -2.72812,-1062.83 L -3.00835,-1062.72
 L -3.30028,-1062.64 L -3.59929,-1062.6 z
M 7.1869,-823.589 L 7.79507,-823.745 L 8.37889,-823.976 L 8.92912,-824.278 L 9.43712,-824.647 L 9.89484,-825.077
 L 10.2951,-825.561 L 10.6315,-826.091 L 10.8989,-826.659 L 11.0929,-827.257 L 11.2106,-827.873 L 11.25,-828.5
 L 11.25,-1043.5 L 11.2106,-1044.13 L 11.0929,-1044.74 L 10.8989,-1045.34 L 10.6315,-1045.91 L 10.2951,-1046.44
 L 9.89484,-1046.92 L 9.43712,-1047.35 L 8.92912,-1047.72 L 8.37889,-1048.02 L 7.79507,-1048.26 L 7.1869,-1048.41
 L 6.56395,-1048.49 L -6.56395,-1048.49 L -7.1869,-1048.41 L -7.79507,-1048.26 L -8.37889,-1048.02 L -8.92912,-1047.72
 L -9.43712,-1047.35 L -9.89484,-1046.92 L -10.2951,-1046.44 L -10.6315,-1045.91 L -10.8989,-1045.34 L -11.0929,-1044.74
 L -11.2106,-1044.13 L -11.25,-1043.5 L -11.25,-828.5 L -11.2106,-827.873 L -11.0929,-827.257 L -10.8989,-826.659
 L -10.6315,-826.091 L -10.2951,-825.561 L -9.89484,-825.077 L -9.43712,-824.647 L -8.92912,-824.278 L -8.37889,-823.976
 L -7.79507,-823.745 L -7.1869,-823.589 L -6.56395,-823.51 L 6.56395,-823.51 z
M 3.63696,-1039.2 L 3.4127,-1039.23 L 3.19376,-1039.29 L 2.9836,-1039.37 L 2.78551,-1039.48 L 2.60263,-1039.61
 L 2.43785,-1039.77 L 2.29376,-1039.94 L 2.17264,-1040.13 L 2.0764,-1040.34 L 2.00655,-1040.55 L 1.96419,-1040.77
 L 1.95,-1041 L 1.96419,-1041.23 L 2.00655,-1041.45 L 2.0764,-1041.66 L 2.17264,-1041.87 L 2.29376,-1042.06
 L 2.43785,-1042.23 L 2.60263,-1042.39 L 2.78551,-1042.52 L 2.9836,-1042.63 L 3.19376,-1042.71 L 3.4127,-1042.77
 L 3.63696,-1042.8 L 3.86302,-1042.8 L 4.08728,-1042.77 L 4.30623,-1042.71 L 4.51639,-1042.63 L 4.71448,-1042.52
 L 4.89735,-1042.39 L 5.06213,-1042.23 L 5.20622,-1042.06 L 5.32735,-1041.87 L 5.42358,-1041.66 L 5.49344,-1041.45
 L 5.5358,-1041.23 L 5.54999,-1041 L 5.5358,-1040.77 L 5.49344,-1040.55 L 5.42358,-1040.34 L 5.32735,-1040.13
 L 5.20622,-1039.94 L 5.06213,-1039.77 L 4.89735,-1039.61 L 4.71448,-1039.48 L 4.51639,-1039.37 L 4.30623,-1039.29
 L 4.08728,-1039.23 L 3.86302,-1039.2 z
M -3.86302,-1039.2 L -4.08728,-1039.23 L -4.30623,-1039.29 L -4.51639,-1039.37 L -4.71448,-1039.48 L -4.89735,-1039.61
 L -5.06213,-1039.77 L -5.20622,-1039.94 L -5.32735,-1040.13 L -5.42358,-1040.34 L -5.49344,-1040.55 L -5.5358,-1040.77
 L -5.54999,-1041 L -5.5358,-1041.23 L -5.49344,-1041.45 L -5.42358,-1041.66 L -5.32735,-1041.87 L -5.20622,-1042.06
 L -5.06213,-1042.23 L -4.89735,-1042.39 L -4.71448,-1042.52 L -4.51639,-1042.63 L -4.30623,-1042.71 L -4.08728,-1042.77
 L -3.86302,-1042.8 L -3.63696,-1042.8 L -3.4127,-1042.77 L -3.19376,-1042.71 L -2.9836,-1042.63 L -2.78551,-1042.52
 L -2.60263,-1042.39 L -2.43785,-1042.23 L -2.29376,-1042.06 L -2.17264,-1041.87 L -2.0764,-1041.66 L -2.00655,-1041.45
 L -1.96419,-1041.23 L -1.95,-1041 L -1.96419,-1040.77 L -2.00655,-1040.55 L -2.0764,-1040.34 L -2.17264,-1040.13
 L -2.29376,-1039.94 L -2.43785,-1039.77 L -2.60263,-1039.61 L -2.78551,-1039.48 L -2.9836,-1039.37 L -3.19376,-1039.29
 L -3.4127,-1039.23 L -3.63696,-1039.2 z
M -3.86302,-829.204 L -4.08728,-829.232 L -4.30623,-829.288 L -4.51639,-829.371 L -4.71448,-829.48 L -4.89735,-829.613
 L -5.06213,-829.768 L -5.20622,-829.942 L -5.32735,-830.133 L -5.42358,-830.337 L -5.49344,-830.552 L -5.5358,-830.774
 L -5.54999,-831 L -5.5358,-831.226 L -5.49344,-831.448 L -5.42358,-831.663 L -5.32735,-831.867 L -5.20622,-832.058
 L -5.06213,-832.232 L -4.89735,-832.387 L -4.71448,-832.52 L -4.51639,-832.629 L -4.30623,-832.712 L -4.08728,-832.768
 L -3.86302,-832.796 L -3.63696,-832.796 L -3.4127,-832.768 L -3.19376,-832.712 L -2.9836,-832.629 L -2.78551,-832.52
 L -2.60263,-832.387 L -2.43785,-832.232 L -2.29376,-832.058 L -2.17264,-831.867 L -2.0764,-831.663 L -2.00655,-831.448
 L -1.96419,-831.226 L -1.95,-831 L -1.96419,-830.774 L -2.00655,-830.552 L -2.0764,-830.337 L -2.17264,-830.133
 L -2.29376,-829.942 L -2.43785,-829.768 L -2.60263,-829.613 L -2.78551,-829.48 L -2.9836,-829.371 L -3.19376,-829.288
 L -3.4127,-829.232 L -3.63696,-829.204 z
M 3.63696,-829.204 L 3.4127,-829.232 L 3.19376,-829.288 L 2.9836,-829.371 L 2.78551,-829.48 L 2.60263,-829.613
 L 2.43785,-829.768 L 2.29376,-829.942 L 2.17264,-830.133 L 2.0764,-830.337 L 2.00655,-830.552 L 1.96419,-830.774
 L 1.95,-831 L 1.96419,-831.226 L 2.00655,-831.448 L 2.0764,-831.663 L 2.17264,-831.867 L 2.29376,-832.058
 L 2.43785,-832.232 L 2.60263,-832.387 L 2.78551,-832.52 L 2.9836,-832.629 L 3.19376,-832.712 L 3.4127,-832.768
 L 3.63696,-832.796 L 3.86302,-832.796 L 4.08728,-832.768 L 4.30623,-832.712 L 4.51639,-832.629 L 4.71448,-832.52
 L 4.89735,-832.387 L 5.06213,-832.232 L 5.20622,-832.058 L 5.32735,-831.867 L 5.42358,-831.663 L 5.49344,-831.448
 L 5.5358,-831.226 L 5.54999,-831 L 5.5358,-830.774 L 5.49344,-830.552 L 5.42358,-830.337 L 5.32735,-830.133
 L 5.20622,-829.942 L 5.06213,-829.768 L 4.89735,-829.613 L 4.71448,-829.48 L 4.51639,-829.371 L 4.30623,-829.288
 L 4.08728,-829.232 L 3.86302,-829.204 z
" stroke="black" fill="lightgray" stroke-width="0.5"/>
</svg>
