  0
SECTION
  2
BLOCKS
  0
ENDSEC
  0
SECTION
  2
ENTITIES
  0
LINE
  8
0
 10
108.437
 20
726.089
 11
109.045
 21
726.245
  0
LINE
  8
0
 10
109.045
 20
726.245
 11
109.629
 21
726.476
  0
LINE
  8
0
 10
109.629
 20
726.476
 11
110.179
 21
726.778
  0
LINE
  8
0
 10
110.179
 20
726.778
 11
110.687
 21
727.147
  0
LINE
  8
0
 10
110.687
 20
727.147
 11
111.145
 21
727.577
  0
LINE
  8
0
 10
111.145
 20
727.577
 11
111.545
 21
728.061
  0
LINE
  8
0
 10
111.545
 20
728.061
 11
111.882
 21
728.591
  0
LINE
  8
0
 10
111.882
 20
728.591
 11
112.149
 21
729.159
  0
LINE
  8
0
 10
112.149
 20
729.159
 11
112.343
 21
729.757
  0
LINE
  8
0
 10
112.343
 20
729.757
 11
112.461
 21
730.373
  0
LINE
  8
0
 10
112.461
 20
730.373
 11
112.5
 21
731
  0
LINE
  8
0
 10
112.5
 20
731
 11
112.5
 21
751
  0
LINE
  8
0
 10
112.5
 20
751
 11
112.461
 21
751.627
  0
LINE
  8
0
 10
112.461
 20
751.627
 11
112.343
 21
752.243
  0
LINE
  8
0
 10
112.343
 20
752.243
 11
112.149
 21
752.841
  0
LINE
  8
0
 10
112.149
 20
752.841
 11
111.882
 21
753.409
  0
LINE
  8
0
 10
111.882
 20
753.409
 11
111.545
 21
753.939
  0
LINE
  8
0
 10
111.545
 20
753.939
 11
111.145
 21
754.423
  0
LINE
  8
0
 10
111.145
 20
754.423
 11
110.687
 21
754.853
  0
LINE
  8
0
 10
110.687
 20
754.853
 11
110.179
 21
755.222
  0
LINE
  8
0
 10
110.179
 20
755.222
 11
109.629
 21
755.524
  0
LINE
  8
0
 10
109.629
 20
755.524
 11
109.045
 21
755.755
  0
LINE
  8
0
 10
109.045
 20
755.755
 11
108.437
 21
755.911
  0
LINE
  8
0
 10
108.437
 20
755.911
 11
107.814
 21
755.99
  0
LINE
  8
0
 10
107.814
 20
755.99
 11
-107.814
 21
755.99
  0
LINE
  8
0
 10
-107.814
 20
755.99
 11
-108.437
 21
755.911
  0
LINE
  8
0
 10
-108.437
 20
755.911
 11
-109.045
 21
755.755
  0
LINE
  8
0
 10
-109.045
 20
755.755
 11
-109.629
 21
755.524
  0
LINE
  8
0
 10
-109.629
 20
755.524
 11
-110.179
 21
755.222
  0
LINE
  8
0
 10
-110.179
 20
755.222
 11
-110.687
 21
754.853
  0
LINE
  8
0
 10
-110.687
 20
754.853
 11
-111.145
 21
754.423
  0
LINE
  8
0
 10
-111.145
 20
754.423
 11
-111.545
 21
753.939
  0
LINE
  8
0
 10
-111.545
 20
753.939
 11
-111.882
 21
753.409
  0
LINE
  8
0
 10
-111.882
 20
753.409
 11
-112.149
 21
752.841
  0
LINE
  8
0
 10
-112.149
 20
752.841
 11
-112.343
 21
752.243
  0
LINE
  8
0
 10
-112.343
 20
752.243
 11
-112.461
 21
751.627
  0
LINE
  8
0
 10
-112.461
 20
751.627
 11
-112.5
 21
751
  0
LINE
  8
0
 10
-112.5
 20
751
 11
-112.5
 21
731
  0
LINE
  8
0
 10
-112.5
 20
731
 11
-112.461
 21
730.373
  0
LINE
  8
0
 10
-112.461
 20
730.373
 11
-112.343
 21
729.757
  0
LINE
  8
0
 10
-112.343
 20
729.757
 11
-112.149
 21
729.159
  0
LINE
  8
0
 10
-112.149
 20
729.159
 11
-111.882
 21
728.591
  0
LINE
  8
0
 10
-111.882
 20
728.591
 11
-111.545
 21
728.061
  0
LINE
  8
0
 10
-111.545
 20
728.061
 11
-111.145
 21
727.577
  0
LINE
  8
0
 10
-111.145
 20
727.577
 11
-110.687
 21
727.147
  0
LINE
  8
0
 10
-110.687
 20
727.147
 11
-110.179
 21
726.778
  0
LINE
  8
0
 10
-110.179
 20
726.778
 11
-109.629
 21
726.476
  0
LINE
  8
0
 10
-109.629
 20
726.476
 11
-109.045
 21
726.245
  0
LINE
  8
0
 10
-109.045
 20
726.245
 11
-108.437
 21
726.089
  0
LINE
  8
0
 10
-108.437
 20
726.089
 11
-107.814
 21
726.01
  0
LINE
  8
0
 10
-107.814
 20
726.01
 11
107.814
 21
726.01
  0
LINE
  8
0
 10
107.814
 20
726.01
 11
108.437
 21
726.089
  0
LINE
  8
0
 10
-107.251
 20
727.508
 11
-107.75
 21
727.571
  0
LINE
  8
0
 10
-107.75
 20
727.571
 11
-108.236
 21
727.696
  0
LINE
  8
0
 10
-108.236
 20
727.696
 11
-108.703
 21
727.881
  0
LINE
  8
0
 10
-108.703
 20
727.881
 11
-109.143
 21
728.123
  0
LINE
  8
0
 10
-109.143
 20
728.123
 11
-109.55
 21
728.418
  0
LINE
  8
0
 10
-109.55
 20
728.418
 11
-109.916
 21
728.762
  0
LINE
  8
0
 10
-109.916
 20
728.762
 11
-110.236
 21
729.149
  0
LINE
  8
0
 10
-110.236
 20
729.149
 11
-110.505
 21
729.573
  0
LINE
  8
0
 10
-110.505
 20
729.573
 11
-110.719
 21
730.028
  0
LINE
  8
0
 10
-110.719
 20
730.028
 11
-110.874
 21
730.505
  0
LINE
  8
0
 10
-110.874
 20
730.505
 11
-110.968
 21
730.999
  0
LINE
  8
0
 10
-110.968
 20
730.999
 11
-111
 21
731.5
  0
LINE
  8
0
 10
-111
 20
731.5
 11
-111
 21
750.5
  0
LINE
  8
0
 10
-111
 20
750.5
 11
-110.968
 21
751.001
  0
LINE
  8
0
 10
-110.968
 20
751.001
 11
-110.874
 21
751.495
  0
LINE
  8
0
 10
-110.874
 20
751.495
 11
-110.719
 21
751.972
  0
LINE
  8
0
 10
-110.719
 20
751.972
 11
-110.505
 21
752.427
  0
LINE
  8
0
 10
-110.505
 20
752.427
 11
-110.236
 21
752.851
  0
LINE
  8
0
 10
-110.236
 20
752.851
 11
-109.916
 21
753.238
  0
LINE
  8
0
 10
-109.916
 20
753.238
 11
-109.55
 21
753.582
  0
LINE
  8
0
 10
-109.55
 20
753.582
 11
-109.143
 21
753.877
  0
LINE
  8
0
 10
-109.143
 20
753.877
 11
-108.703
 21
754.119
  0
LINE
  8
0
 10
-108.703
 20
754.119
 11
-108.236
 21
754.304
  0
LINE
  8
0
 10
-108.236
 20
754.304
 11
-107.75
 21
754.429
  0
LINE
  8
0
 10
-107.75
 20
754.429
 11
-107.251
 21
754.492
  0
LINE
  8
0
 10
-107.251
 20
754.492
 11
107.251
 21
754.492
  0
LINE
  8
0
 10
107.251
 20
754.492
 11
107.75
 21
754.429
  0
LINE
  8
0
 10
107.75
 20
754.429
 11
108.236
 21
754.304
  0
LINE
  8
0
 10
108.236
 20
754.304
 11
108.703
 21
754.119
  0
LINE
  8
0
 10
108.703
 20
754.119
 11
109.143
 21
753.877
  0
LINE
  8
0
 10
109.143
 20
753.877
 11
109.55
 21
753.582
  0
LINE
  8
0
 10
109.55
 20
753.582
 11
109.916
 21
753.238
  0
LINE
  8
0
 10
109.916
 20
753.238
 11
110.236
 21
752.851
  0
LINE
  8
0
 10
110.236
 20
752.851
 11
110.505
 21
752.427
  0
LINE
  8
0
 10
110.505
 20
752.427
 11
110.719
 21
751.972
  0
LINE
  8
0
 10
110.719
 20
751.972
 11
110.874
 21
751.495
  0
LINE
  8
0
 10
110.874
 20
751.495
 11
110.968
 21
751.001
  0
LINE
  8
0
 10
110.968
 20
751.001
 11
111
 21
750.5
  0
LINE
  8
0
 10
111
 20
750.5
 11
111
 21
731.5
  0
LINE
  8
0
 10
111
 20
731.5
 11
110.968
 21
730.999
  0
LINE
  8
0
 10
110.968
 20
730.999
 11
110.874
 21
730.505
  0
LINE
  8
0
 10
110.874
 20
730.505
 11
110.719
 21
730.028
  0
LINE
  8
0
 10
110.719
 20
730.028
 11
110.505
 21
729.573
  0
LINE
  8
0
 10
110.505
 20
729.573
 11
110.236
 21
729.149
  0
LINE
  8
0
 10
110.236
 20
729.149
 11
109.916
 21
728.762
  0
LINE
  8
0
 10
109.916
 20
728.762
 11
109.55
 21
728.418
  0
LINE
  8
0
 10
109.55
 20
728.418
 11
109.143
 21
728.123
  0
LINE
  8
0
 10
109.143
 20
728.123
 11
108.703
 21
727.881
  0
LINE
  8
0
 10
108.703
 20
727.881
 11
108.236
 21
727.696
  0
LINE
  8
0
 10
108.236
 20
727.696
 11
107.75
 21
727.571
  0
LINE
  8
0
 10
107.75
 20
727.571
 11
107.251
 21
727.508
  0
LINE
  8
0
 10
107.251
 20
727.508
 11
-107.251
 21
727.508
  0
LINE
  8
0
 10
108.437
 20
687.089
 11
109.045
 21
687.245
  0
LINE
  8
0
 10
109.045
 20
687.245
 11
109.629
 21
687.476
  0
LINE
  8
0
 10
109.629
 20
687.476
 11
110.179
 21
687.778
  0
LINE
  8
0
 10
110.179
 20
687.778
 11
110.687
 21
688.147
  0
LINE
  8
0
 10
110.687
 20
688.147
 11
111.145
 21
688.577
  0
LINE
  8
0
 10
111.145
 20
688.577
 11
111.545
 21
689.061
  0
LINE
  8
0
 10
111.545
 20
689.061
 11
111.882
 21
689.591
  0
LINE
  8
0
 10
111.882
 20
689.591
 11
112.149
 21
690.159
  0
LINE
  8
0
 10
112.149
 20
690.159
 11
112.343
 21
690.757
  0
LINE
  8
0
 10
112.343
 20
690.757
 11
112.461
 21
691.373
  0
LINE
  8
0
 10
112.461
 20
691.373
 11
112.5
 21
692
  0
LINE
  8
0
 10
112.5
 20
692
 11
112.5
 21
712
  0
LINE
  8
0
 10
112.5
 20
712
 11
112.461
 21
712.627
  0
LINE
  8
0
 10
112.461
 20
712.627
 11
112.343
 21
713.243
  0
LINE
  8
0
 10
112.343
 20
713.243
 11
112.149
 21
713.841
  0
LINE
  8
0
 10
112.149
 20
713.841
 11
111.882
 21
714.409
  0
LINE
  8
0
 10
111.882
 20
714.409
 11
111.545
 21
714.939
  0
LINE
  8
0
 10
111.545
 20
714.939
 11
111.145
 21
715.423
  0
LINE
  8
0
 10
111.145
 20
715.423
 11
110.687
 21
715.853
  0
LINE
  8
0
 10
110.687
 20
715.853
 11
110.179
 21
716.222
  0
LINE
  8
0
 10
110.179
 20
716.222
 11
109.629
 21
716.524
  0
LINE
  8
0
 10
109.629
 20
716.524
 11
109.045
 21
716.755
  0
LINE
  8
0
 10
109.045
 20
716.755
 11
108.437
 21
716.911
  0
LINE
  8
0
 10
108.437
 20
716.911
 11
107.814
 21
716.99
  0
LINE
  8
0
 10
107.814
 20
716.99
 11
-107.814
 21
716.99
  0
LINE
  8
0
 10
-107.814
 20
716.99
 11
-108.437
 21
716.911
  0
LINE
  8
0
 10
-108.437
 20
716.911
 11
-109.045
 21
716.755
  0
LINE
  8
0
 10
-109.045
 20
716.755
 11
-109.629
 21
716.524
  0
LINE
  8
0
 10
-109.629
 20
716.524
 11
-110.179
 21
716.222
  0
LINE
  8
0
 10
-110.179
 20
716.222
 11
-110.687
 21
715.853
  0
LINE
  8
0
 10
-110.687
 20
715.853
 11
-111.145
 21
715.423
  0
LINE
  8
0
 10
-111.145
 20
715.423
 11
-111.545
 21
714.939
  0
LINE
  8
0
 10
-111.545
 20
714.939
 11
-111.882
 21
714.409
  0
LINE
  8
0
 10
-111.882
 20
714.409
 11
-112.149
 21
713.841
  0
LINE
  8
0
 10
-112.149
 20
713.841
 11
-112.343
 21
713.243
  0
LINE
  8
0
 10
-112.343
 20
713.243
 11
-112.461
 21
712.627
  0
LINE
  8
0
 10
-112.461
 20
712.627
 11
-112.5
 21
712
  0
LINE
  8
0
 10
-112.5
 20
712
 11
-112.5
 21
692
  0
LINE
  8
0
 10
-112.5
 20
692
 11
-112.461
 21
691.373
  0
LINE
  8
0
 10
-112.461
 20
691.373
 11
-112.343
 21
690.757
  0
LINE
  8
0
 10
-112.343
 20
690.757
 11
-112.149
 21
690.159
  0
LINE
  8
0
 10
-112.149
 20
690.159
 11
-111.882
 21
689.591
  0
LINE
  8
0
 10
-111.882
 20
689.591
 11
-111.545
 21
689.061
  0
LINE
  8
0
 10
-111.545
 20
689.061
 11
-111.145
 21
688.577
  0
LINE
  8
0
 10
-111.145
 20
688.577
 11
-110.687
 21
688.147
  0
LINE
  8
0
 10
-110.687
 20
688.147
 11
-110.179
 21
687.778
  0
LINE
  8
0
 10
-110.179
 20
687.778
 11
-109.629
 21
687.476
  0
LINE
  8
0
 10
-109.629
 20
687.476
 11
-109.045
 21
687.245
  0
LINE
  8
0
 10
-109.045
 20
687.245
 11
-108.437
 21
687.089
  0
LINE
  8
0
 10
-108.437
 20
687.089
 11
-107.814
 21
687.01
  0
LINE
  8
0
 10
-107.814
 20
687.01
 11
107.814
 21
687.01
  0
LINE
  8
0
 10
107.814
 20
687.01
 11
108.437
 21
687.089
  0
LINE
  8
0
 10
-107.251
 20
688.508
 11
-107.75
 21
688.571
  0
LINE
  8
0
 10
-107.75
 20
688.571
 11
-108.236
 21
688.696
  0
LINE
  8
0
 10
-108.236
 20
688.696
 11
-108.703
 21
688.881
  0
LINE
  8
0
 10
-108.703
 20
688.881
 11
-109.143
 21
689.123
  0
LINE
  8
0
 10
-109.143
 20
689.123
 11
-109.55
 21
689.418
  0
LINE
  8
0
 10
-109.55
 20
689.418
 11
-109.916
 21
689.762
  0
LINE
  8
0
 10
-109.916
 20
689.762
 11
-110.236
 21
690.149
  0
LINE
  8
0
 10
-110.236
 20
690.149
 11
-110.505
 21
690.573
  0
LINE
  8
0
 10
-110.505
 20
690.573
 11
-110.719
 21
691.028
  0
LINE
  8
0
 10
-110.719
 20
691.028
 11
-110.874
 21
691.505
  0
LINE
  8
0
 10
-110.874
 20
691.505
 11
-110.968
 21
691.999
  0
LINE
  8
0
 10
-110.968
 20
691.999
 11
-111
 21
692.5
  0
LINE
  8
0
 10
-111
 20
692.5
 11
-111
 21
711.5
  0
LINE
  8
0
 10
-111
 20
711.5
 11
-110.968
 21
712.001
  0
LINE
  8
0
 10
-110.968
 20
712.001
 11
-110.874
 21
712.495
  0
LINE
  8
0
 10
-110.874
 20
712.495
 11
-110.719
 21
712.972
  0
LINE
  8
0
 10
-110.719
 20
712.972
 11
-110.505
 21
713.427
  0
LINE
  8
0
 10
-110.505
 20
713.427
 11
-110.236
 21
713.851
  0
LINE
  8
0
 10
-110.236
 20
713.851
 11
-109.916
 21
714.238
  0
LINE
  8
0
 10
-109.916
 20
714.238
 11
-109.55
 21
714.582
  0
LINE
  8
0
 10
-109.55
 20
714.582
 11
-109.143
 21
714.877
  0
LINE
  8
0
 10
-109.143
 20
714.877
 11
-108.703
 21
715.119
  0
LINE
  8
0
 10
-108.703
 20
715.119
 11
-108.236
 21
715.304
  0
LINE
  8
0
 10
-108.236
 20
715.304
 11
-107.75
 21
715.429
  0
LINE
  8
0
 10
-107.75
 20
715.429
 11
-107.251
 21
715.492
  0
LINE
  8
0
 10
-107.251
 20
715.492
 11
107.251
 21
715.492
  0
LINE
  8
0
 10
107.251
 20
715.492
 11
107.75
 21
715.429
  0
LINE
  8
0
 10
107.75
 20
715.429
 11
108.236
 21
715.304
  0
LINE
  8
0
 10
108.236
 20
715.304
 11
108.703
 21
715.119
  0
LINE
  8
0
 10
108.703
 20
715.119
 11
109.143
 21
714.877
  0
LINE
  8
0
 10
109.143
 20
714.877
 11
109.55
 21
714.582
  0
LINE
  8
0
 10
109.55
 20
714.582
 11
109.916
 21
714.238
  0
LINE
  8
0
 10
109.916
 20
714.238
 11
110.236
 21
713.851
  0
LINE
  8
0
 10
110.236
 20
713.851
 11
110.505
 21
713.427
  0
LINE
  8
0
 10
110.505
 20
713.427
 11
110.719
 21
712.972
  0
LINE
  8
0
 10
110.719
 20
712.972
 11
110.874
 21
712.495
  0
LINE
  8
0
 10
110.874
 20
712.495
 11
110.968
 21
712.001
  0
LINE
  8
0
 10
110.968
 20
712.001
 11
111
 21
711.5
  0
LINE
  8
0
 10
111
 20
711.5
 11
111
 21
692.5
  0
LINE
  8
0
 10
111
 20
692.5
 11
110.968
 21
691.999
  0
LINE
  8
0
 10
110.968
 20
691.999
 11
110.874
 21
691.505
  0
LINE
  8
0
 10
110.874
 20
691.505
 11
110.719
 21
691.028
  0
LINE
  8
0
 10
110.719
 20
691.028
 11
110.505
 21
690.573
  0
LINE
  8
0
 10
110.505
 20
690.573
 11
110.236
 21
690.149
  0
LINE
  8
0
 10
110.236
 20
690.149
 11
109.916
 21
689.762
  0
LINE
  8
0
 10
109.916
 20
689.762
 11
109.55
 21
689.418
  0
LINE
  8
0
 10
109.55
 20
689.418
 11
109.143
 21
689.123
  0
LINE
  8
0
 10
109.143
 20
689.123
 11
108.703
 21
688.881
  0
LINE
  8
0
 10
108.703
 20
688.881
 11
108.236
 21
688.696
  0
LINE
  8
0
 10
108.236
 20
688.696
 11
107.75
 21
688.571
  0
LINE
  8
0
 10
107.75
 20
688.571
 11
107.251
 21
688.508
  0
LINE
  8
0
 10
107.251
 20
688.508
 11
-107.251
 21
688.508
  0
LINE
  8
0
 10
108.437
 20
648.089
 11
109.045
 21
648.245
  0
LINE
  8
0
 10
109.045
 20
648.245
 11
109.629
 21
648.476
  0
LINE
  8
0
 10
109.629
 20
648.476
 11
110.179
 21
648.778
  0
LINE
  8
0
 10
110.179
 20
648.778
 11
110.687
 21
649.147
  0
LINE
  8
0
 10
110.687
 20
649.147
 11
111.145
 21
649.577
  0
LINE
  8
0
 10
111.145
 20
649.577
 11
111.545
 21
650.061
  0
LINE
  8
0
 10
111.545
 20
650.061
 11
111.882
 21
650.591
  0
LINE
  8
0
 10
111.882
 20
650.591
 11
112.149
 21
651.159
  0
LINE
  8
0
 10
112.149
 20
651.159
 11
112.343
 21
651.757
  0
LINE
  8
0
 10
112.343
 20
651.757
 11
112.461
 21
652.373
  0
LINE
  8
0
 10
112.461
 20
652.373
 11
112.5
 21
653
  0
LINE
  8
0
 10
112.5
 20
653
 11
112.5
 21
673
  0
LINE
  8
0
 10
112.5
 20
673
 11
112.461
 21
673.627
  0
LINE
  8
0
 10
112.461
 20
673.627
 11
112.343
 21
674.243
  0
LINE
  8
0
 10
112.343
 20
674.243
 11
112.149
 21
674.841
  0
LINE
  8
0
 10
112.149
 20
674.841
 11
111.882
 21
675.409
  0
LINE
  8
0
 10
111.882
 20
675.409
 11
111.545
 21
675.939
  0
LINE
  8
0
 10
111.545
 20
675.939
 11
111.145
 21
676.423
  0
LINE
  8
0
 10
111.145
 20
676.423
 11
110.687
 21
676.853
  0
LINE
  8
0
 10
110.687
 20
676.853
 11
110.179
 21
677.222
  0
LINE
  8
0
 10
110.179
 20
677.222
 11
109.629
 21
677.524
  0
LINE
  8
0
 10
109.629
 20
677.524
 11
109.045
 21
677.755
  0
LINE
  8
0
 10
109.045
 20
677.755
 11
108.437
 21
677.911
  0
LINE
  8
0
 10
108.437
 20
677.911
 11
107.814
 21
677.99
  0
LINE
  8
0
 10
107.814
 20
677.99
 11
-107.814
 21
677.99
  0
LINE
  8
0
 10
-107.814
 20
677.99
 11
-108.437
 21
677.911
  0
LINE
  8
0
 10
-108.437
 20
677.911
 11
-109.045
 21
677.755
  0
LINE
  8
0
 10
-109.045
 20
677.755
 11
-109.629
 21
677.524
  0
LINE
  8
0
 10
-109.629
 20
677.524
 11
-110.179
 21
677.222
  0
LINE
  8
0
 10
-110.179
 20
677.222
 11
-110.687
 21
676.853
  0
LINE
  8
0
 10
-110.687
 20
676.853
 11
-111.145
 21
676.423
  0
LINE
  8
0
 10
-111.145
 20
676.423
 11
-111.545
 21
675.939
  0
LINE
  8
0
 10
-111.545
 20
675.939
 11
-111.882
 21
675.409
  0
LINE
  8
0
 10
-111.882
 20
675.409
 11
-112.149
 21
674.841
  0
LINE
  8
0
 10
-112.149
 20
674.841
 11
-112.343
 21
674.243
  0
LINE
  8
0
 10
-112.343
 20
674.243
 11
-112.461
 21
673.627
  0
LINE
  8
0
 10
-112.461
 20
673.627
 11
-112.5
 21
673
  0
LINE
  8
0
 10
-112.5
 20
673
 11
-112.5
 21
653
  0
LINE
  8
0
 10
-112.5
 20
653
 11
-112.461
 21
652.373
  0
LINE
  8
0
 10
-112.461
 20
652.373
 11
-112.343
 21
651.757
  0
LINE
  8
0
 10
-112.343
 20
651.757
 11
-112.149
 21
651.159
  0
LINE
  8
0
 10
-112.149
 20
651.159
 11
-111.882
 21
650.591
  0
LINE
  8
0
 10
-111.882
 20
650.591
 11
-111.545
 21
650.061
  0
LINE
  8
0
 10
-111.545
 20
650.061
 11
-111.145
 21
649.577
  0
LINE
  8
0
 10
-111.145
 20
649.577
 11
-110.687
 21
649.147
  0
LINE
  8
0
 10
-110.687
 20
649.147
 11
-110.179
 21
648.778
  0
LINE
  8
0
 10
-110.179
 20
648.778
 11
-109.629
 21
648.476
  0
LINE
  8
0
 10
-109.629
 20
648.476
 11
-109.045
 21
648.245
  0
LINE
  8
0
 10
-109.045
 20
648.245
 11
-108.437
 21
648.089
  0
LINE
  8
0
 10
-108.437
 20
648.089
 11
-107.814
 21
648.01
  0
LINE
  8
0
 10
-107.814
 20
648.01
 11
107.814
 21
648.01
  0
LINE
  8
0
 10
107.814
 20
648.01
 11
108.437
 21
648.089
  0
LINE
  8
0
 10
-107.251
 20
649.508
 11
-107.75
 21
649.571
  0
LINE
  8
0
 10
-107.75
 20
649.571
 11
-108.236
 21
649.696
  0
LINE
  8
0
 10
-108.236
 20
649.696
 11
-108.703
 21
649.881
  0
LINE
  8
0
 10
-108.703
 20
649.881
 11
-109.143
 21
650.123
  0
LINE
  8
0
 10
-109.143
 20
650.123
 11
-109.55
 21
650.418
  0
LINE
  8
0
 10
-109.55
 20
650.418
 11
-109.916
 21
650.762
  0
LINE
  8
0
 10
-109.916
 20
650.762
 11
-110.236
 21
651.149
  0
LINE
  8
0
 10
-110.236
 20
651.149
 11
-110.505
 21
651.573
  0
LINE
  8
0
 10
-110.505
 20
651.573
 11
-110.719
 21
652.028
  0
LINE
  8
0
 10
-110.719
 20
652.028
 11
-110.874
 21
652.505
  0
LINE
  8
0
 10
-110.874
 20
652.505
 11
-110.968
 21
652.999
  0
LINE
  8
0
 10
-110.968
 20
652.999
 11
-111
 21
653.5
  0
LINE
  8
0
 10
-111
 20
653.5
 11
-111
 21
672.5
  0
LINE
  8
0
 10
-111
 20
672.5
 11
-110.968
 21
673.001
  0
LINE
  8
0
 10
-110.968
 20
673.001
 11
-110.874
 21
673.495
  0
LINE
  8
0
 10
-110.874
 20
673.495
 11
-110.719
 21
673.972
  0
LINE
  8
0
 10
-110.719
 20
673.972
 11
-110.505
 21
674.427
  0
LINE
  8
0
 10
-110.505
 20
674.427
 11
-110.236
 21
674.851
  0
LINE
  8
0
 10
-110.236
 20
674.851
 11
-109.916
 21
675.238
  0
LINE
  8
0
 10
-109.916
 20
675.238
 11
-109.55
 21
675.582
  0
LINE
  8
0
 10
-109.55
 20
675.582
 11
-109.143
 21
675.877
  0
LINE
  8
0
 10
-109.143
 20
675.877
 11
-108.703
 21
676.119
  0
LINE
  8
0
 10
-108.703
 20
676.119
 11
-108.236
 21
676.304
  0
LINE
  8
0
 10
-108.236
 20
676.304
 11
-107.75
 21
676.429
  0
LINE
  8
0
 10
-107.75
 20
676.429
 11
-107.251
 21
676.492
  0
LINE
  8
0
 10
-107.251
 20
676.492
 11
107.251
 21
676.492
  0
LINE
  8
0
 10
107.251
 20
676.492
 11
107.75
 21
676.429
  0
LINE
  8
0
 10
107.75
 20
676.429
 11
108.236
 21
676.304
  0
LINE
  8
0
 10
108.236
 20
676.304
 11
108.703
 21
676.119
  0
LINE
  8
0
 10
108.703
 20
676.119
 11
109.143
 21
675.877
  0
LINE
  8
0
 10
109.143
 20
675.877
 11
109.55
 21
675.582
  0
LINE
  8
0
 10
109.55
 20
675.582
 11
109.916
 21
675.238
  0
LINE
  8
0
 10
109.916
 20
675.238
 11
110.236
 21
674.851
  0
LINE
  8
0
 10
110.236
 20
674.851
 11
110.505
 21
674.427
  0
LINE
  8
0
 10
110.505
 20
674.427
 11
110.719
 21
673.972
  0
LINE
  8
0
 10
110.719
 20
673.972
 11
110.874
 21
673.495
  0
LINE
  8
0
 10
110.874
 20
673.495
 11
110.968
 21
673.001
  0
LINE
  8
0
 10
110.968
 20
673.001
 11
111
 21
672.5
  0
LINE
  8
0
 10
111
 20
672.5
 11
111
 21
653.5
  0
LINE
  8
0
 10
111
 20
653.5
 11
110.968
 21
652.999
  0
LINE
  8
0
 10
110.968
 20
652.999
 11
110.874
 21
652.505
  0
LINE
  8
0
 10
110.874
 20
652.505
 11
110.719
 21
652.028
  0
LINE
  8
0
 10
110.719
 20
652.028
 11
110.505
 21
651.573
  0
LINE
  8
0
 10
110.505
 20
651.573
 11
110.236
 21
651.149
  0
LINE
  8
0
 10
110.236
 20
651.149
 11
109.916
 21
650.762
  0
LINE
  8
0
 10
109.916
 20
650.762
 11
109.55
 21
650.418
  0
LINE
  8
0
 10
109.55
 20
650.418
 11
109.143
 21
650.123
  0
LINE
  8
0
 10
109.143
 20
650.123
 11
108.703
 21
649.881
  0
LINE
  8
0
 10
108.703
 20
649.881
 11
108.236
 21
649.696
  0
LINE
  8
0
 10
108.236
 20
649.696
 11
107.75
 21
649.571
  0
LINE
  8
0
 10
107.75
 20
649.571
 11
107.251
 21
649.508
  0
LINE
  8
0
 10
107.251
 20
649.508
 11
-107.251
 21
649.508
  0
LINE
  8
0
 10
108.437
 20
609.089
 11
109.045
 21
609.245
  0
LINE
  8
0
 10
109.045
 20
609.245
 11
109.629
 21
609.476
  0
LINE
  8
0
 10
109.629
 20
609.476
 11
110.179
 21
609.778
  0
LINE
  8
0
 10
110.179
 20
609.778
 11
110.687
 21
610.147
  0
LINE
  8
0
 10
110.687
 20
610.147
 11
111.145
 21
610.577
  0
LINE
  8
0
 10
111.145
 20
610.577
 11
111.545
 21
611.061
  0
LINE
  8
0
 10
111.545
 20
611.061
 11
111.882
 21
611.591
  0
LINE
  8
0
 10
111.882
 20
611.591
 11
112.149
 21
612.159
  0
LINE
  8
0
 10
112.149
 20
612.159
 11
112.343
 21
612.757
  0
LINE
  8
0
 10
112.343
 20
612.757
 11
112.461
 21
613.373
  0
LINE
  8
0
 10
112.461
 20
613.373
 11
112.5
 21
614
  0
LINE
  8
0
 10
112.5
 20
614
 11
112.5
 21
634
  0
LINE
  8
0
 10
112.5
 20
634
 11
112.461
 21
634.627
  0
LINE
  8
0
 10
112.461
 20
634.627
 11
112.343
 21
635.243
  0
LINE
  8
0
 10
112.343
 20
635.243
 11
112.149
 21
635.841
  0
LINE
  8
0
 10
112.149
 20
635.841
 11
111.882
 21
636.409
  0
LINE
  8
0
 10
111.882
 20
636.409
 11
111.545
 21
636.939
  0
LINE
  8
0
 10
111.545
 20
636.939
 11
111.145
 21
637.423
  0
LINE
  8
0
 10
111.145
 20
637.423
 11
110.687
 21
637.853
  0
LINE
  8
0
 10
110.687
 20
637.853
 11
110.179
 21
638.222
  0
LINE
  8
0
 10
110.179
 20
638.222
 11
109.629
 21
638.524
  0
LINE
  8
0
 10
109.629
 20
638.524
 11
109.045
 21
638.755
  0
LINE
  8
0
 10
109.045
 20
638.755
 11
108.437
 21
638.911
  0
LINE
  8
0
 10
108.437
 20
638.911
 11
107.814
 21
638.99
  0
LINE
  8
0
 10
107.814
 20
638.99
 11
-107.814
 21
638.99
  0
LINE
  8
0
 10
-107.814
 20
638.99
 11
-108.437
 21
638.911
  0
LINE
  8
0
 10
-108.437
 20
638.911
 11
-109.045
 21
638.755
  0
LINE
  8
0
 10
-109.045
 20
638.755
 11
-109.629
 21
638.524
  0
LINE
  8
0
 10
-109.629
 20
638.524
 11
-110.179
 21
638.222
  0
LINE
  8
0
 10
-110.179
 20
638.222
 11
-110.687
 21
637.853
  0
LINE
  8
0
 10
-110.687
 20
637.853
 11
-111.145
 21
637.423
  0
LINE
  8
0
 10
-111.145
 20
637.423
 11
-111.545
 21
636.939
  0
LINE
  8
0
 10
-111.545
 20
636.939
 11
-111.882
 21
636.409
  0
LINE
  8
0
 10
-111.882
 20
636.409
 11
-112.149
 21
635.841
  0
LINE
  8
0
 10
-112.149
 20
635.841
 11
-112.343
 21
635.243
  0
LINE
  8
0
 10
-112.343
 20
635.243
 11
-112.461
 21
634.627
  0
LINE
  8
0
 10
-112.461
 20
634.627
 11
-112.5
 21
634
  0
LINE
  8
0
 10
-112.5
 20
634
 11
-112.5
 21
614
  0
LINE
  8
0
 10
-112.5
 20
614
 11
-112.461
 21
613.373
  0
LINE
  8
0
 10
-112.461
 20
613.373
 11
-112.343
 21
612.757
  0
LINE
  8
0
 10
-112.343
 20
612.757
 11
-112.149
 21
612.159
  0
LINE
  8
0
 10
-112.149
 20
612.159
 11
-111.882
 21
611.591
  0
LINE
  8
0
 10
-111.882
 20
611.591
 11
-111.545
 21
611.061
  0
LINE
  8
0
 10
-111.545
 20
611.061
 11
-111.145
 21
610.577
  0
LINE
  8
0
 10
-111.145
 20
610.577
 11
-110.687
 21
610.147
  0
LINE
  8
0
 10
-110.687
 20
610.147
 11
-110.179
 21
609.778
  0
LINE
  8
0
 10
-110.179
 20
609.778
 11
-109.629
 21
609.476
  0
LINE
  8
0
 10
-109.629
 20
609.476
 11
-109.045
 21
609.245
  0
LINE
  8
0
 10
-109.045
 20
609.245
 11
-108.437
 21
609.089
  0
LINE
  8
0
 10
-108.437
 20
609.089
 11
-107.814
 21
609.01
  0
LINE
  8
0
 10
-107.814
 20
609.01
 11
107.814
 21
609.01
  0
LINE
  8
0
 10
107.814
 20
609.01
 11
108.437
 21
609.089
  0
LINE
  8
0
 10
-107.251
 20
610.508
 11
-107.75
 21
610.571
  0
LINE
  8
0
 10
-107.75
 20
610.571
 11
-108.236
 21
610.696
  0
LINE
  8
0
 10
-108.236
 20
610.696
 11
-108.703
 21
610.881
  0
LINE
  8
0
 10
-108.703
 20
610.881
 11
-109.143
 21
611.123
  0
LINE
  8
0
 10
-109.143
 20
611.123
 11
-109.55
 21
611.418
  0
LINE
  8
0
 10
-109.55
 20
611.418
 11
-109.916
 21
611.762
  0
LINE
  8
0
 10
-109.916
 20
611.762
 11
-110.236
 21
612.149
  0
LINE
  8
0
 10
-110.236
 20
612.149
 11
-110.505
 21
612.573
  0
LINE
  8
0
 10
-110.505
 20
612.573
 11
-110.719
 21
613.028
  0
LINE
  8
0
 10
-110.719
 20
613.028
 11
-110.874
 21
613.505
  0
LINE
  8
0
 10
-110.874
 20
613.505
 11
-110.968
 21
613.999
  0
LINE
  8
0
 10
-110.968
 20
613.999
 11
-111
 21
614.5
  0
LINE
  8
0
 10
-111
 20
614.5
 11
-111
 21
633.5
  0
LINE
  8
0
 10
-111
 20
633.5
 11
-110.968
 21
634.001
  0
LINE
  8
0
 10
-110.968
 20
634.001
 11
-110.874
 21
634.495
  0
LINE
  8
0
 10
-110.874
 20
634.495
 11
-110.719
 21
634.972
  0
LINE
  8
0
 10
-110.719
 20
634.972
 11
-110.505
 21
635.427
  0
LINE
  8
0
 10
-110.505
 20
635.427
 11
-110.236
 21
635.851
  0
LINE
  8
0
 10
-110.236
 20
635.851
 11
-109.916
 21
636.238
  0
LINE
  8
0
 10
-109.916
 20
636.238
 11
-109.55
 21
636.582
  0
LINE
  8
0
 10
-109.55
 20
636.582
 11
-109.143
 21
636.877
  0
LINE
  8
0
 10
-109.143
 20
636.877
 11
-108.703
 21
637.119
  0
LINE
  8
0
 10
-108.703
 20
637.119
 11
-108.236
 21
637.304
  0
LINE
  8
0
 10
-108.236
 20
637.304
 11
-107.75
 21
637.429
  0
LINE
  8
0
 10
-107.75
 20
637.429
 11
-107.251
 21
637.492
  0
LINE
  8
0
 10
-107.251
 20
637.492
 11
107.251
 21
637.492
  0
LINE
  8
0
 10
107.251
 20
637.492
 11
107.75
 21
637.429
  0
LINE
  8
0
 10
107.75
 20
637.429
 11
108.236
 21
637.304
  0
LINE
  8
0
 10
108.236
 20
637.304
 11
108.703
 21
637.119
  0
LINE
  8
0
 10
108.703
 20
637.119
 11
109.143
 21
636.877
  0
LINE
  8
0
 10
109.143
 20
636.877
 11
109.55
 21
636.582
  0
LINE
  8
0
 10
109.55
 20
636.582
 11
109.916
 21
636.238
  0
LINE
  8
0
 10
109.916
 20
636.238
 11
110.236
 21
635.851
  0
LINE
  8
0
 10
110.236
 20
635.851
 11
110.505
 21
635.427
  0
LINE
  8
0
 10
110.505
 20
635.427
 11
110.719
 21
634.972
  0
LINE
  8
0
 10
110.719
 20
634.972
 11
110.874
 21
634.495
  0
LINE
  8
0
 10
110.874
 20
634.495
 11
110.968
 21
634.001
  0
LINE
  8
0
 10
110.968
 20
634.001
 11
111
 21
633.5
  0
LINE
  8
0
 10
111
 20
633.5
 11
111
 21
614.5
  0
LINE
  8
0
 10
111
 20
614.5
 11
110.968
 21
613.999
  0
LINE
  8
0
 10
110.968
 20
613.999
 11
110.874
 21
613.505
  0
LINE
  8
0
 10
110.874
 20
613.505
 11
110.719
 21
613.028
  0
LINE
  8
0
 10
110.719
 20
613.028
 11
110.505
 21
612.573
  0
LINE
  8
0
 10
110.505
 20
612.573
 11
110.236
 21
612.149
  0
LINE
  8
0
 10
110.236
 20
612.149
 11
109.916
 21
611.762
  0
LINE
  8
0
 10
109.916
 20
611.762
 11
109.55
 21
611.418
  0
LINE
  8
0
 10
109.55
 20
611.418
 11
109.143
 21
611.123
  0
LINE
  8
0
 10
109.143
 20
611.123
 11
108.703
 21
610.881
  0
LINE
  8
0
 10
108.703
 20
610.881
 11
108.236
 21
610.696
  0
LINE
  8
0
 10
108.236
 20
610.696
 11
107.75
 21
610.571
  0
LINE
  8
0
 10
107.75
 20
610.571
 11
107.251
 21
610.508
  0
LINE
  8
0
 10
107.251
 20
610.508
 11
-107.251
 21
610.508
  0
LINE
  8
0
 10
108.437
 20
570.089
 11
109.045
 21
570.245
  0
LINE
  8
0
 10
109.045
 20
570.245
 11
109.629
 21
570.476
  0
LINE
  8
0
 10
109.629
 20
570.476
 11
110.179
 21
570.778
  0
LINE
  8
0
 10
110.179
 20
570.778
 11
110.687
 21
571.147
  0
LINE
  8
0
 10
110.687
 20
571.147
 11
111.145
 21
571.577
  0
LINE
  8
0
 10
111.145
 20
571.577
 11
111.545
 21
572.061
  0
LINE
  8
0
 10
111.545
 20
572.061
 11
111.882
 21
572.591
  0
LINE
  8
0
 10
111.882
 20
572.591
 11
112.149
 21
573.159
  0
LINE
  8
0
 10
112.149
 20
573.159
 11
112.343
 21
573.757
  0
LINE
  8
0
 10
112.343
 20
573.757
 11
112.461
 21
574.373
  0
LINE
  8
0
 10
112.461
 20
574.373
 11
112.5
 21
575
  0
LINE
  8
0
 10
112.5
 20
575
 11
112.5
 21
595
  0
LINE
  8
0
 10
112.5
 20
595
 11
112.461
 21
595.627
  0
LINE
  8
0
 10
112.461
 20
595.627
 11
112.343
 21
596.243
  0
LINE
  8
0
 10
112.343
 20
596.243
 11
112.149
 21
596.841
  0
LINE
  8
0
 10
112.149
 20
596.841
 11
111.882
 21
597.409
  0
LINE
  8
0
 10
111.882
 20
597.409
 11
111.545
 21
597.939
  0
LINE
  8
0
 10
111.545
 20
597.939
 11
111.145
 21
598.423
  0
LINE
  8
0
 10
111.145
 20
598.423
 11
110.687
 21
598.853
  0
LINE
  8
0
 10
110.687
 20
598.853
 11
110.179
 21
599.222
  0
LINE
  8
0
 10
110.179
 20
599.222
 11
109.629
 21
599.524
  0
LINE
  8
0
 10
109.629
 20
599.524
 11
109.045
 21
599.755
  0
LINE
  8
0
 10
109.045
 20
599.755
 11
108.437
 21
599.911
  0
LINE
  8
0
 10
108.437
 20
599.911
 11
107.814
 21
599.99
  0
LINE
  8
0
 10
107.814
 20
599.99
 11
-107.814
 21
599.99
  0
LINE
  8
0
 10
-107.814
 20
599.99
 11
-108.437
 21
599.911
  0
LINE
  8
0
 10
-108.437
 20
599.911
 11
-109.045
 21
599.755
  0
LINE
  8
0
 10
-109.045
 20
599.755
 11
-109.629
 21
599.524
  0
LINE
  8
0
 10
-109.629
 20
599.524
 11
-110.179
 21
599.222
  0
LINE
  8
0
 10
-110.179
 20
599.222
 11
-110.687
 21
598.853
  0
LINE
  8
0
 10
-110.687
 20
598.853
 11
-111.145
 21
598.423
  0
LINE
  8
0
 10
-111.145
 20
598.423
 11
-111.545
 21
597.939
  0
LINE
  8
0
 10
-111.545
 20
597.939
 11
-111.882
 21
597.409
  0
LINE
  8
0
 10
-111.882
 20
597.409
 11
-112.149
 21
596.841
  0
LINE
  8
0
 10
-112.149
 20
596.841
 11
-112.343
 21
596.243
  0
LINE
  8
0
 10
-112.343
 20
596.243
 11
-112.461
 21
595.627
  0
LINE
  8
0
 10
-112.461
 20
595.627
 11
-112.5
 21
595
  0
LINE
  8
0
 10
-112.5
 20
595
 11
-112.5
 21
575
  0
LINE
  8
0
 10
-112.5
 20
575
 11
-112.461
 21
574.373
  0
LINE
  8
0
 10
-112.461
 20
574.373
 11
-112.343
 21
573.757
  0
LINE
  8
0
 10
-112.343
 20
573.757
 11
-112.149
 21
573.159
  0
LINE
  8
0
 10
-112.149
 20
573.159
 11
-111.882
 21
572.591
  0
LINE
  8
0
 10
-111.882
 20
572.591
 11
-111.545
 21
572.061
  0
LINE
  8
0
 10
-111.545
 20
572.061
 11
-111.145
 21
571.577
  0
LINE
  8
0
 10
-111.145
 20
571.577
 11
-110.687
 21
571.147
  0
LINE
  8
0
 10
-110.687
 20
571.147
 11
-110.179
 21
570.778
  0
LINE
  8
0
 10
-110.179
 20
570.778
 11
-109.629
 21
570.476
  0
LINE
  8
0
 10
-109.629
 20
570.476
 11
-109.045
 21
570.245
  0
LINE
  8
0
 10
-109.045
 20
570.245
 11
-108.437
 21
570.089
  0
LINE
  8
0
 10
-108.437
 20
570.089
 11
-107.814
 21
570.01
  0
LINE
  8
0
 10
-107.814
 20
570.01
 11
107.814
 21
570.01
  0
LINE
  8
0
 10
107.814
 20
570.01
 11
108.437
 21
570.089
  0
LINE
  8
0
 10
-107.251
 20
571.508
 11
-107.75
 21
571.571
  0
LINE
  8
0
 10
-107.75
 20
571.571
 11
-108.236
 21
571.696
  0
LINE
  8
0
 10
-108.236
 20
571.696
 11
-108.703
 21
571.881
  0
LINE
  8
0
 10
-108.703
 20
571.881
 11
-109.143
 21
572.123
  0
LINE
  8
0
 10
-109.143
 20
572.123
 11
-109.55
 21
572.418
  0
LINE
  8
0
 10
-109.55
 20
572.418
 11
-109.916
 21
572.762
  0
LINE
  8
0
 10
-109.916
 20
572.762
 11
-110.236
 21
573.149
  0
LINE
  8
0
 10
-110.236
 20
573.149
 11
-110.505
 21
573.573
  0
LINE
  8
0
 10
-110.505
 20
573.573
 11
-110.719
 21
574.028
  0
LINE
  8
0
 10
-110.719
 20
574.028
 11
-110.874
 21
574.505
  0
LINE
  8
0
 10
-110.874
 20
574.505
 11
-110.968
 21
574.999
  0
LINE
  8
0
 10
-110.968
 20
574.999
 11
-111
 21
575.5
  0
LINE
  8
0
 10
-111
 20
575.5
 11
-111
 21
594.5
  0
LINE
  8
0
 10
-111
 20
594.5
 11
-110.968
 21
595.001
  0
LINE
  8
0
 10
-110.968
 20
595.001
 11
-110.874
 21
595.495
  0
LINE
  8
0
 10
-110.874
 20
595.495
 11
-110.719
 21
595.972
  0
LINE
  8
0
 10
-110.719
 20
595.972
 11
-110.505
 21
596.427
  0
LINE
  8
0
 10
-110.505
 20
596.427
 11
-110.236
 21
596.851
  0
LINE
  8
0
 10
-110.236
 20
596.851
 11
-109.916
 21
597.238
  0
LINE
  8
0
 10
-109.916
 20
597.238
 11
-109.55
 21
597.582
  0
LINE
  8
0
 10
-109.55
 20
597.582
 11
-109.143
 21
597.877
  0
LINE
  8
0
 10
-109.143
 20
597.877
 11
-108.703
 21
598.119
  0
LINE
  8
0
 10
-108.703
 20
598.119
 11
-108.236
 21
598.304
  0
LINE
  8
0
 10
-108.236
 20
598.304
 11
-107.75
 21
598.429
  0
LINE
  8
0
 10
-107.75
 20
598.429
 11
-107.251
 21
598.492
  0
LINE
  8
0
 10
-107.251
 20
598.492
 11
107.251
 21
598.492
  0
LINE
  8
0
 10
107.251
 20
598.492
 11
107.75
 21
598.429
  0
LINE
  8
0
 10
107.75
 20
598.429
 11
108.236
 21
598.304
  0
LINE
  8
0
 10
108.236
 20
598.304
 11
108.703
 21
598.119
  0
LINE
  8
0
 10
108.703
 20
598.119
 11
109.143
 21
597.877
  0
LINE
  8
0
 10
109.143
 20
597.877
 11
109.55
 21
597.582
  0
LINE
  8
0
 10
109.55
 20
597.582
 11
109.916
 21
597.238
  0
LINE
  8
0
 10
109.916
 20
597.238
 11
110.236
 21
596.851
  0
LINE
  8
0
 10
110.236
 20
596.851
 11
110.505
 21
596.427
  0
LINE
  8
0
 10
110.505
 20
596.427
 11
110.719
 21
595.972
  0
LINE
  8
0
 10
110.719
 20
595.972
 11
110.874
 21
595.495
  0
LINE
  8
0
 10
110.874
 20
595.495
 11
110.968
 21
595.001
  0
LINE
  8
0
 10
110.968
 20
595.001
 11
111
 21
594.5
  0
LINE
  8
0
 10
111
 20
594.5
 11
111
 21
575.5
  0
LINE
  8
0
 10
111
 20
575.5
 11
110.968
 21
574.999
  0
LINE
  8
0
 10
110.968
 20
574.999
 11
110.874
 21
574.505
  0
LINE
  8
0
 10
110.874
 20
574.505
 11
110.719
 21
574.028
  0
LINE
  8
0
 10
110.719
 20
574.028
 11
110.505
 21
573.573
  0
LINE
  8
0
 10
110.505
 20
573.573
 11
110.236
 21
573.149
  0
LINE
  8
0
 10
110.236
 20
573.149
 11
109.916
 21
572.762
  0
LINE
  8
0
 10
109.916
 20
572.762
 11
109.55
 21
572.418
  0
LINE
  8
0
 10
109.55
 20
572.418
 11
109.143
 21
572.123
  0
LINE
  8
0
 10
109.143
 20
572.123
 11
108.703
 21
571.881
  0
LINE
  8
0
 10
108.703
 20
571.881
 11
108.236
 21
571.696
  0
LINE
  8
0
 10
108.236
 20
571.696
 11
107.75
 21
571.571
  0
LINE
  8
0
 10
107.75
 20
571.571
 11
107.251
 21
571.508
  0
LINE
  8
0
 10
107.251
 20
571.508
 11
-107.251
 21
571.508
  0
LINE
  8
0
 10
108.437
 20
531.089
 11
109.045
 21
531.245
  0
LINE
  8
0
 10
109.045
 20
531.245
 11
109.629
 21
531.476
  0
LINE
  8
0
 10
109.629
 20
531.476
 11
110.179
 21
531.778
  0
LINE
  8
0
 10
110.179
 20
531.778
 11
110.687
 21
532.147
  0
LINE
  8
0
 10
110.687
 20
532.147
 11
111.145
 21
532.577
  0
LINE
  8
0
 10
111.145
 20
532.577
 11
111.545
 21
533.061
  0
LINE
  8
0
 10
111.545
 20
533.061
 11
111.882
 21
533.591
  0
LINE
  8
0
 10
111.882
 20
533.591
 11
112.149
 21
534.159
  0
LINE
  8
0
 10
112.149
 20
534.159
 11
112.343
 21
534.757
  0
LINE
  8
0
 10
112.343
 20
534.757
 11
112.461
 21
535.373
  0
LINE
  8
0
 10
112.461
 20
535.373
 11
112.5
 21
536
  0
LINE
  8
0
 10
112.5
 20
536
 11
112.5
 21
556
  0
LINE
  8
0
 10
112.5
 20
556
 11
112.461
 21
556.627
  0
LINE
  8
0
 10
112.461
 20
556.627
 11
112.343
 21
557.243
  0
LINE
  8
0
 10
112.343
 20
557.243
 11
112.149
 21
557.841
  0
LINE
  8
0
 10
112.149
 20
557.841
 11
111.882
 21
558.409
  0
LINE
  8
0
 10
111.882
 20
558.409
 11
111.545
 21
558.939
  0
LINE
  8
0
 10
111.545
 20
558.939
 11
111.145
 21
559.423
  0
LINE
  8
0
 10
111.145
 20
559.423
 11
110.687
 21
559.853
  0
LINE
  8
0
 10
110.687
 20
559.853
 11
110.179
 21
560.222
  0
LINE
  8
0
 10
110.179
 20
560.222
 11
109.629
 21
560.524
  0
LINE
  8
0
 10
109.629
 20
560.524
 11
109.045
 21
560.755
  0
LINE
  8
0
 10
109.045
 20
560.755
 11
108.437
 21
560.911
  0
LINE
  8
0
 10
108.437
 20
560.911
 11
107.814
 21
560.99
  0
LINE
  8
0
 10
107.814
 20
560.99
 11
-107.814
 21
560.99
  0
LINE
  8
0
 10
-107.814
 20
560.99
 11
-108.437
 21
560.911
  0
LINE
  8
0
 10
-108.437
 20
560.911
 11
-109.045
 21
560.755
  0
LINE
  8
0
 10
-109.045
 20
560.755
 11
-109.629
 21
560.524
  0
LINE
  8
0
 10
-109.629
 20
560.524
 11
-110.179
 21
560.222
  0
LINE
  8
0
 10
-110.179
 20
560.222
 11
-110.687
 21
559.853
  0
LINE
  8
0
 10
-110.687
 20
559.853
 11
-111.145
 21
559.423
  0
LINE
  8
0
 10
-111.145
 20
559.423
 11
-111.545
 21
558.939
  0
LINE
  8
0
 10
-111.545
 20
558.939
 11
-111.882
 21
558.409
  0
LINE
  8
0
 10
-111.882
 20
558.409
 11
-112.149
 21
557.841
  0
LINE
  8
0
 10
-112.149
 20
557.841
 11
-112.343
 21
557.243
  0
LINE
  8
0
 10
-112.343
 20
557.243
 11
-112.461
 21
556.627
  0
LINE
  8
0
 10
-112.461
 20
556.627
 11
-112.5
 21
556
  0
LINE
  8
0
 10
-112.5
 20
556
 11
-112.5
 21
536
  0
LINE
  8
0
 10
-112.5
 20
536
 11
-112.461
 21
535.373
  0
LINE
  8
0
 10
-112.461
 20
535.373
 11
-112.343
 21
534.757
  0
LINE
  8
0
 10
-112.343
 20
534.757
 11
-112.149
 21
534.159
  0
LINE
  8
0
 10
-112.149
 20
534.159
 11
-111.882
 21
533.591
  0
LINE
  8
0
 10
-111.882
 20
533.591
 11
-111.545
 21
533.061
  0
LINE
  8
0
 10
-111.545
 20
533.061
 11
-111.145
 21
532.577
  0
LINE
  8
0
 10
-111.145
 20
532.577
 11
-110.687
 21
532.147
  0
LINE
  8
0
 10
-110.687
 20
532.147
 11
-110.179
 21
531.778
  0
LINE
  8
0
 10
-110.179
 20
531.778
 11
-109.629
 21
531.476
  0
LINE
  8
0
 10
-109.629
 20
531.476
 11
-109.045
 21
531.245
  0
LINE
  8
0
 10
-109.045
 20
531.245
 11
-108.437
 21
531.089
  0
LINE
  8
0
 10
-108.437
 20
531.089
 11
-107.814
 21
531.01
  0
LINE
  8
0
 10
-107.814
 20
531.01
 11
107.814
 21
531.01
  0
LINE
  8
0
 10
107.814
 20
531.01
 11
108.437
 21
531.089
  0
LINE
  8
0
 10
-107.251
 20
532.508
 11
-107.75
 21
532.571
  0
LINE
  8
0
 10
-107.75
 20
532.571
 11
-108.236
 21
532.696
  0
LINE
  8
0
 10
-108.236
 20
532.696
 11
-108.703
 21
532.881
  0
LINE
  8
0
 10
-108.703
 20
532.881
 11
-109.143
 21
533.123
  0
LINE
  8
0
 10
-109.143
 20
533.123
 11
-109.55
 21
533.418
  0
LINE
  8
0
 10
-109.55
 20
533.418
 11
-109.916
 21
533.762
  0
LINE
  8
0
 10
-109.916
 20
533.762
 11
-110.236
 21
534.149
  0
LINE
  8
0
 10
-110.236
 20
534.149
 11
-110.505
 21
534.573
  0
LINE
  8
0
 10
-110.505
 20
534.573
 11
-110.719
 21
535.028
  0
LINE
  8
0
 10
-110.719
 20
535.028
 11
-110.874
 21
535.505
  0
LINE
  8
0
 10
-110.874
 20
535.505
 11
-110.968
 21
535.999
  0
LINE
  8
0
 10
-110.968
 20
535.999
 11
-111
 21
536.5
  0
LINE
  8
0
 10
-111
 20
536.5
 11
-111
 21
555.5
  0
LINE
  8
0
 10
-111
 20
555.5
 11
-110.968
 21
556.001
  0
LINE
  8
0
 10
-110.968
 20
556.001
 11
-110.874
 21
556.495
  0
LINE
  8
0
 10
-110.874
 20
556.495
 11
-110.719
 21
556.972
  0
LINE
  8
0
 10
-110.719
 20
556.972
 11
-110.505
 21
557.427
  0
LINE
  8
0
 10
-110.505
 20
557.427
 11
-110.236
 21
557.851
  0
LINE
  8
0
 10
-110.236
 20
557.851
 11
-109.916
 21
558.238
  0
LINE
  8
0
 10
-109.916
 20
558.238
 11
-109.55
 21
558.582
  0
LINE
  8
0
 10
-109.55
 20
558.582
 11
-109.143
 21
558.877
  0
LINE
  8
0
 10
-109.143
 20
558.877
 11
-108.703
 21
559.119
  0
LINE
  8
0
 10
-108.703
 20
559.119
 11
-108.236
 21
559.304
  0
LINE
  8
0
 10
-108.236
 20
559.304
 11
-107.75
 21
559.429
  0
LINE
  8
0
 10
-107.75
 20
559.429
 11
-107.251
 21
559.492
  0
LINE
  8
0
 10
-107.251
 20
559.492
 11
107.251
 21
559.492
  0
LINE
  8
0
 10
107.251
 20
559.492
 11
107.75
 21
559.429
  0
LINE
  8
0
 10
107.75
 20
559.429
 11
108.236
 21
559.304
  0
LINE
  8
0
 10
108.236
 20
559.304
 11
108.703
 21
559.119
  0
LINE
  8
0
 10
108.703
 20
559.119
 11
109.143
 21
558.877
  0
LINE
  8
0
 10
109.143
 20
558.877
 11
109.55
 21
558.582
  0
LINE
  8
0
 10
109.55
 20
558.582
 11
109.916
 21
558.238
  0
LINE
  8
0
 10
109.916
 20
558.238
 11
110.236
 21
557.851
  0
LINE
  8
0
 10
110.236
 20
557.851
 11
110.505
 21
557.427
  0
LINE
  8
0
 10
110.505
 20
557.427
 11
110.719
 21
556.972
  0
LINE
  8
0
 10
110.719
 20
556.972
 11
110.874
 21
556.495
  0
LINE
  8
0
 10
110.874
 20
556.495
 11
110.968
 21
556.001
  0
LINE
  8
0
 10
110.968
 20
556.001
 11
111
 21
555.5
  0
LINE
  8
0
 10
111
 20
555.5
 11
111
 21
536.5
  0
LINE
  8
0
 10
111
 20
536.5
 11
110.968
 21
535.999
  0
LINE
  8
0
 10
110.968
 20
535.999
 11
110.874
 21
535.505
  0
LINE
  8
0
 10
110.874
 20
535.505
 11
110.719
 21
535.028
  0
LINE
  8
0
 10
110.719
 20
535.028
 11
110.505
 21
534.573
  0
LINE
  8
0
 10
110.505
 20
534.573
 11
110.236
 21
534.149
  0
LINE
  8
0
 10
110.236
 20
534.149
 11
109.916
 21
533.762
  0
LINE
  8
0
 10
109.916
 20
533.762
 11
109.55
 21
533.418
  0
LINE
  8
0
 10
109.55
 20
533.418
 11
109.143
 21
533.123
  0
LINE
  8
0
 10
109.143
 20
533.123
 11
108.703
 21
532.881
  0
LINE
  8
0
 10
108.703
 20
532.881
 11
108.236
 21
532.696
  0
LINE
  8
0
 10
108.236
 20
532.696
 11
107.75
 21
532.571
  0
LINE
  8
0
 10
107.75
 20
532.571
 11
107.251
 21
532.508
  0
LINE
  8
0
 10
107.251
 20
532.508
 11
-107.251
 21
532.508
  0
LINE
  8
0
 10
108.437
 20
492.089
 11
109.045
 21
492.245
  0
LINE
  8
0
 10
109.045
 20
492.245
 11
109.629
 21
492.476
  0
LINE
  8
0
 10
109.629
 20
492.476
 11
110.179
 21
492.778
  0
LINE
  8
0
 10
110.179
 20
492.778
 11
110.687
 21
493.147
  0
LINE
  8
0
 10
110.687
 20
493.147
 11
111.145
 21
493.577
  0
LINE
  8
0
 10
111.145
 20
493.577
 11
111.545
 21
494.061
  0
LINE
  8
0
 10
111.545
 20
494.061
 11
111.882
 21
494.591
  0
LINE
  8
0
 10
111.882
 20
494.591
 11
112.149
 21
495.159
  0
LINE
  8
0
 10
112.149
 20
495.159
 11
112.343
 21
495.757
  0
LINE
  8
0
 10
112.343
 20
495.757
 11
112.461
 21
496.373
  0
LINE
  8
0
 10
112.461
 20
496.373
 11
112.5
 21
497
  0
LINE
  8
0
 10
112.5
 20
497
 11
112.5
 21
517
  0
LINE
  8
0
 10
112.5
 20
517
 11
112.461
 21
517.627
  0
LINE
  8
0
 10
112.461
 20
517.627
 11
112.343
 21
518.243
  0
LINE
  8
0
 10
112.343
 20
518.243
 11
112.149
 21
518.841
  0
LINE
  8
0
 10
112.149
 20
518.841
 11
111.882
 21
519.409
  0
LINE
  8
0
 10
111.882
 20
519.409
 11
111.545
 21
519.939
  0
LINE
  8
0
 10
111.545
 20
519.939
 11
111.145
 21
520.423
  0
LINE
  8
0
 10
111.145
 20
520.423
 11
110.687
 21
520.853
  0
LINE
  8
0
 10
110.687
 20
520.853
 11
110.179
 21
521.222
  0
LINE
  8
0
 10
110.179
 20
521.222
 11
109.629
 21
521.524
  0
LINE
  8
0
 10
109.629
 20
521.524
 11
109.045
 21
521.755
  0
LINE
  8
0
 10
109.045
 20
521.755
 11
108.437
 21
521.911
  0
LINE
  8
0
 10
108.437
 20
521.911
 11
107.814
 21
521.99
  0
LINE
  8
0
 10
107.814
 20
521.99
 11
-107.814
 21
521.99
  0
LINE
  8
0
 10
-107.814
 20
521.99
 11
-108.437
 21
521.911
  0
LINE
  8
0
 10
-108.437
 20
521.911
 11
-109.045
 21
521.755
  0
LINE
  8
0
 10
-109.045
 20
521.755
 11
-109.629
 21
521.524
  0
LINE
  8
0
 10
-109.629
 20
521.524
 11
-110.179
 21
521.222
  0
LINE
  8
0
 10
-110.179
 20
521.222
 11
-110.687
 21
520.853
  0
LINE
  8
0
 10
-110.687
 20
520.853
 11
-111.145
 21
520.423
  0
LINE
  8
0
 10
-111.145
 20
520.423
 11
-111.545
 21
519.939
  0
LINE
  8
0
 10
-111.545
 20
519.939
 11
-111.882
 21
519.409
  0
LINE
  8
0
 10
-111.882
 20
519.409
 11
-112.149
 21
518.841
  0
LINE
  8
0
 10
-112.149
 20
518.841
 11
-112.343
 21
518.243
  0
LINE
  8
0
 10
-112.343
 20
518.243
 11
-112.461
 21
517.627
  0
LINE
  8
0
 10
-112.461
 20
517.627
 11
-112.5
 21
517
  0
LINE
  8
0
 10
-112.5
 20
517
 11
-112.5
 21
497
  0
LINE
  8
0
 10
-112.5
 20
497
 11
-112.461
 21
496.373
  0
LINE
  8
0
 10
-112.461
 20
496.373
 11
-112.343
 21
495.757
  0
LINE
  8
0
 10
-112.343
 20
495.757
 11
-112.149
 21
495.159
  0
LINE
  8
0
 10
-112.149
 20
495.159
 11
-111.882
 21
494.591
  0
LINE
  8
0
 10
-111.882
 20
494.591
 11
-111.545
 21
494.061
  0
LINE
  8
0
 10
-111.545
 20
494.061
 11
-111.145
 21
493.577
  0
LINE
  8
0
 10
-111.145
 20
493.577
 11
-110.687
 21
493.147
  0
LINE
  8
0
 10
-110.687
 20
493.147
 11
-110.179
 21
492.778
  0
LINE
  8
0
 10
-110.179
 20
492.778
 11
-109.629
 21
492.476
  0
LINE
  8
0
 10
-109.629
 20
492.476
 11
-109.045
 21
492.245
  0
LINE
  8
0
 10
-109.045
 20
492.245
 11
-108.437
 21
492.089
  0
LINE
  8
0
 10
-108.437
 20
492.089
 11
-107.814
 21
492.01
  0
LINE
  8
0
 10
-107.814
 20
492.01
 11
107.814
 21
492.01
  0
LINE
  8
0
 10
107.814
 20
492.01
 11
108.437
 21
492.089
  0
LINE
  8
0
 10
-107.251
 20
493.508
 11
-107.75
 21
493.571
  0
LINE
  8
0
 10
-107.75
 20
493.571
 11
-108.236
 21
493.696
  0
LINE
  8
0
 10
-108.236
 20
493.696
 11
-108.703
 21
493.881
  0
LINE
  8
0
 10
-108.703
 20
493.881
 11
-109.143
 21
494.123
  0
LINE
  8
0
 10
-109.143
 20
494.123
 11
-109.55
 21
494.418
  0
LINE
  8
0
 10
-109.55
 20
494.418
 11
-109.916
 21
494.762
  0
LINE
  8
0
 10
-109.916
 20
494.762
 11
-110.236
 21
495.149
  0
LINE
  8
0
 10
-110.236
 20
495.149
 11
-110.505
 21
495.573
  0
LINE
  8
0
 10
-110.505
 20
495.573
 11
-110.719
 21
496.028
  0
LINE
  8
0
 10
-110.719
 20
496.028
 11
-110.874
 21
496.505
  0
LINE
  8
0
 10
-110.874
 20
496.505
 11
-110.968
 21
496.999
  0
LINE
  8
0
 10
-110.968
 20
496.999
 11
-111
 21
497.5
  0
LINE
  8
0
 10
-111
 20
497.5
 11
-111
 21
516.5
  0
LINE
  8
0
 10
-111
 20
516.5
 11
-110.968
 21
517.001
  0
LINE
  8
0
 10
-110.968
 20
517.001
 11
-110.874
 21
517.495
  0
LINE
  8
0
 10
-110.874
 20
517.495
 11
-110.719
 21
517.972
  0
LINE
  8
0
 10
-110.719
 20
517.972
 11
-110.505
 21
518.427
  0
LINE
  8
0
 10
-110.505
 20
518.427
 11
-110.236
 21
518.851
  0
LINE
  8
0
 10
-110.236
 20
518.851
 11
-109.916
 21
519.238
  0
LINE
  8
0
 10
-109.916
 20
519.238
 11
-109.55
 21
519.582
  0
LINE
  8
0
 10
-109.55
 20
519.582
 11
-109.143
 21
519.877
  0
LINE
  8
0
 10
-109.143
 20
519.877
 11
-108.703
 21
520.119
  0
LINE
  8
0
 10
-108.703
 20
520.119
 11
-108.236
 21
520.304
  0
LINE
  8
0
 10
-108.236
 20
520.304
 11
-107.75
 21
520.429
  0
LINE
  8
0
 10
-107.75
 20
520.429
 11
-107.251
 21
520.492
  0
LINE
  8
0
 10
-107.251
 20
520.492
 11
107.251
 21
520.492
  0
LINE
  8
0
 10
107.251
 20
520.492
 11
107.75
 21
520.429
  0
LINE
  8
0
 10
107.75
 20
520.429
 11
108.236
 21
520.304
  0
LINE
  8
0
 10
108.236
 20
520.304
 11
108.703
 21
520.119
  0
LINE
  8
0
 10
108.703
 20
520.119
 11
109.143
 21
519.877
  0
LINE
  8
0
 10
109.143
 20
519.877
 11
109.55
 21
519.582
  0
LINE
  8
0
 10
109.55
 20
519.582
 11
109.916
 21
519.238
  0
LINE
  8
0
 10
109.916
 20
519.238
 11
110.236
 21
518.851
  0
LINE
  8
0
 10
110.236
 20
518.851
 11
110.505
 21
518.427
  0
LINE
  8
0
 10
110.505
 20
518.427
 11
110.719
 21
517.972
  0
LINE
  8
0
 10
110.719
 20
517.972
 11
110.874
 21
517.495
  0
LINE
  8
0
 10
110.874
 20
517.495
 11
110.968
 21
517.001
  0
LINE
  8
0
 10
110.968
 20
517.001
 11
111
 21
516.5
  0
LINE
  8
0
 10
111
 20
516.5
 11
111
 21
497.5
  0
LINE
  8
0
 10
111
 20
497.5
 11
110.968
 21
496.999
  0
LINE
  8
0
 10
110.968
 20
496.999
 11
110.874
 21
496.505
  0
LINE
  8
0
 10
110.874
 20
496.505
 11
110.719
 21
496.028
  0
LINE
  8
0
 10
110.719
 20
496.028
 11
110.505
 21
495.573
  0
LINE
  8
0
 10
110.505
 20
495.573
 11
110.236
 21
495.149
  0
LINE
  8
0
 10
110.236
 20
495.149
 11
109.916
 21
494.762
  0
LINE
  8
0
 10
109.916
 20
494.762
 11
109.55
 21
494.418
  0
LINE
  8
0
 10
109.55
 20
494.418
 11
109.143
 21
494.123
  0
LINE
  8
0
 10
109.143
 20
494.123
 11
108.703
 21
493.881
  0
LINE
  8
0
 10
108.703
 20
493.881
 11
108.236
 21
493.696
  0
LINE
  8
0
 10
108.236
 20
493.696
 11
107.75
 21
493.571
  0
LINE
  8
0
 10
107.75
 20
493.571
 11
107.251
 21
493.508
  0
LINE
  8
0
 10
107.251
 20
493.508
 11
-107.251
 21
493.508
  0
LINE
  8
0
 10
108.437
 20
453.089
 11
109.045
 21
453.245
  0
LINE
  8
0
 10
109.045
 20
453.245
 11
109.629
 21
453.476
  0
LINE
  8
0
 10
109.629
 20
453.476
 11
110.179
 21
453.778
  0
LINE
  8
0
 10
110.179
 20
453.778
 11
110.687
 21
454.147
  0
LINE
  8
0
 10
110.687
 20
454.147
 11
111.145
 21
454.577
  0
LINE
  8
0
 10
111.145
 20
454.577
 11
111.545
 21
455.061
  0
LINE
  8
0
 10
111.545
 20
455.061
 11
111.882
 21
455.591
  0
LINE
  8
0
 10
111.882
 20
455.591
 11
112.149
 21
456.159
  0
LINE
  8
0
 10
112.149
 20
456.159
 11
112.343
 21
456.757
  0
LINE
  8
0
 10
112.343
 20
456.757
 11
112.461
 21
457.373
  0
LINE
  8
0
 10
112.461
 20
457.373
 11
112.5
 21
458
  0
LINE
  8
0
 10
112.5
 20
458
 11
112.5
 21
478
  0
LINE
  8
0
 10
112.5
 20
478
 11
112.461
 21
478.627
  0
LINE
  8
0
 10
112.461
 20
478.627
 11
112.343
 21
479.243
  0
LINE
  8
0
 10
112.343
 20
479.243
 11
112.149
 21
479.841
  0
LINE
  8
0
 10
112.149
 20
479.841
 11
111.882
 21
480.409
  0
LINE
  8
0
 10
111.882
 20
480.409
 11
111.545
 21
480.939
  0
LINE
  8
0
 10
111.545
 20
480.939
 11
111.145
 21
481.423
  0
LINE
  8
0
 10
111.145
 20
481.423
 11
110.687
 21
481.853
  0
LINE
  8
0
 10
110.687
 20
481.853
 11
110.179
 21
482.222
  0
LINE
  8
0
 10
110.179
 20
482.222
 11
109.629
 21
482.524
  0
LINE
  8
0
 10
109.629
 20
482.524
 11
109.045
 21
482.755
  0
LINE
  8
0
 10
109.045
 20
482.755
 11
108.437
 21
482.911
  0
LINE
  8
0
 10
108.437
 20
482.911
 11
107.814
 21
482.99
  0
LINE
  8
0
 10
107.814
 20
482.99
 11
-107.814
 21
482.99
  0
LINE
  8
0
 10
-107.814
 20
482.99
 11
-108.437
 21
482.911
  0
LINE
  8
0
 10
-108.437
 20
482.911
 11
-109.045
 21
482.755
  0
LINE
  8
0
 10
-109.045
 20
482.755
 11
-109.629
 21
482.524
  0
LINE
  8
0
 10
-109.629
 20
482.524
 11
-110.179
 21
482.222
  0
LINE
  8
0
 10
-110.179
 20
482.222
 11
-110.687
 21
481.853
  0
LINE
  8
0
 10
-110.687
 20
481.853
 11
-111.145
 21
481.423
  0
LINE
  8
0
 10
-111.145
 20
481.423
 11
-111.545
 21
480.939
  0
LINE
  8
0
 10
-111.545
 20
480.939
 11
-111.882
 21
480.409
  0
LINE
  8
0
 10
-111.882
 20
480.409
 11
-112.149
 21
479.841
  0
LINE
  8
0
 10
-112.149
 20
479.841
 11
-112.343
 21
479.243
  0
LINE
  8
0
 10
-112.343
 20
479.243
 11
-112.461
 21
478.627
  0
LINE
  8
0
 10
-112.461
 20
478.627
 11
-112.5
 21
478
  0
LINE
  8
0
 10
-112.5
 20
478
 11
-112.5
 21
458
  0
LINE
  8
0
 10
-112.5
 20
458
 11
-112.461
 21
457.373
  0
LINE
  8
0
 10
-112.461
 20
457.373
 11
-112.343
 21
456.757
  0
LINE
  8
0
 10
-112.343
 20
456.757
 11
-112.149
 21
456.159
  0
LINE
  8
0
 10
-112.149
 20
456.159
 11
-111.882
 21
455.591
  0
LINE
  8
0
 10
-111.882
 20
455.591
 11
-111.545
 21
455.061
  0
LINE
  8
0
 10
-111.545
 20
455.061
 11
-111.145
 21
454.577
  0
LINE
  8
0
 10
-111.145
 20
454.577
 11
-110.687
 21
454.147
  0
LINE
  8
0
 10
-110.687
 20
454.147
 11
-110.179
 21
453.778
  0
LINE
  8
0
 10
-110.179
 20
453.778
 11
-109.629
 21
453.476
  0
LINE
  8
0
 10
-109.629
 20
453.476
 11
-109.045
 21
453.245
  0
LINE
  8
0
 10
-109.045
 20
453.245
 11
-108.437
 21
453.089
  0
LINE
  8
0
 10
-108.437
 20
453.089
 11
-107.814
 21
453.01
  0
LINE
  8
0
 10
-107.814
 20
453.01
 11
107.814
 21
453.01
  0
LINE
  8
0
 10
107.814
 20
453.01
 11
108.437
 21
453.089
  0
LINE
  8
0
 10
-107.251
 20
454.508
 11
-107.75
 21
454.571
  0
LINE
  8
0
 10
-107.75
 20
454.571
 11
-108.236
 21
454.696
  0
LINE
  8
0
 10
-108.236
 20
454.696
 11
-108.703
 21
454.881
  0
LINE
  8
0
 10
-108.703
 20
454.881
 11
-109.143
 21
455.123
  0
LINE
  8
0
 10
-109.143
 20
455.123
 11
-109.55
 21
455.418
  0
LINE
  8
0
 10
-109.55
 20
455.418
 11
-109.916
 21
455.762
  0
LINE
  8
0
 10
-109.916
 20
455.762
 11
-110.236
 21
456.149
  0
LINE
  8
0
 10
-110.236
 20
456.149
 11
-110.505
 21
456.573
  0
LINE
  8
0
 10
-110.505
 20
456.573
 11
-110.719
 21
457.028
  0
LINE
  8
0
 10
-110.719
 20
457.028
 11
-110.874
 21
457.505
  0
LINE
  8
0
 10
-110.874
 20
457.505
 11
-110.968
 21
457.999
  0
LINE
  8
0
 10
-110.968
 20
457.999
 11
-111
 21
458.5
  0
LINE
  8
0
 10
-111
 20
458.5
 11
-111
 21
477.5
  0
LINE
  8
0
 10
-111
 20
477.5
 11
-110.968
 21
478.001
  0
LINE
  8
0
 10
-110.968
 20
478.001
 11
-110.874
 21
478.495
  0
LINE
  8
0
 10
-110.874
 20
478.495
 11
-110.719
 21
478.972
  0
LINE
  8
0
 10
-110.719
 20
478.972
 11
-110.505
 21
479.427
  0
LINE
  8
0
 10
-110.505
 20
479.427
 11
-110.236
 21
479.851
  0
LINE
  8
0
 10
-110.236
 20
479.851
 11
-109.916
 21
480.238
  0
LINE
  8
0
 10
-109.916
 20
480.238
 11
-109.55
 21
480.582
  0
LINE
  8
0
 10
-109.55
 20
480.582
 11
-109.143
 21
480.877
  0
LINE
  8
0
 10
-109.143
 20
480.877
 11
-108.703
 21
481.119
  0
LINE
  8
0
 10
-108.703
 20
481.119
 11
-108.236
 21
481.304
  0
LINE
  8
0
 10
-108.236
 20
481.304
 11
-107.75
 21
481.429
  0
LINE
  8
0
 10
-107.75
 20
481.429
 11
-107.251
 21
481.492
  0
LINE
  8
0
 10
-107.251
 20
481.492
 11
107.251
 21
481.492
  0
LINE
  8
0
 10
107.251
 20
481.492
 11
107.75
 21
481.429
  0
LINE
  8
0
 10
107.75
 20
481.429
 11
108.236
 21
481.304
  0
LINE
  8
0
 10
108.236
 20
481.304
 11
108.703
 21
481.119
  0
LINE
  8
0
 10
108.703
 20
481.119
 11
109.143
 21
480.877
  0
LINE
  8
0
 10
109.143
 20
480.877
 11
109.55
 21
480.582
  0
LINE
  8
0
 10
109.55
 20
480.582
 11
109.916
 21
480.238
  0
LINE
  8
0
 10
109.916
 20
480.238
 11
110.236
 21
479.851
  0
LINE
  8
0
 10
110.236
 20
479.851
 11
110.505
 21
479.427
  0
LINE
  8
0
 10
110.505
 20
479.427
 11
110.719
 21
478.972
  0
LINE
  8
0
 10
110.719
 20
478.972
 11
110.874
 21
478.495
  0
LINE
  8
0
 10
110.874
 20
478.495
 11
110.968
 21
478.001
  0
LINE
  8
0
 10
110.968
 20
478.001
 11
111
 21
477.5
  0
LINE
  8
0
 10
111
 20
477.5
 11
111
 21
458.5
  0
LINE
  8
0
 10
111
 20
458.5
 11
110.968
 21
457.999
  0
LINE
  8
0
 10
110.968
 20
457.999
 11
110.874
 21
457.505
  0
LINE
  8
0
 10
110.874
 20
457.505
 11
110.719
 21
457.028
  0
LINE
  8
0
 10
110.719
 20
457.028
 11
110.505
 21
456.573
  0
LINE
  8
0
 10
110.505
 20
456.573
 11
110.236
 21
456.149
  0
LINE
  8
0
 10
110.236
 20
456.149
 11
109.916
 21
455.762
  0
LINE
  8
0
 10
109.916
 20
455.762
 11
109.55
 21
455.418
  0
LINE
  8
0
 10
109.55
 20
455.418
 11
109.143
 21
455.123
  0
LINE
  8
0
 10
109.143
 20
455.123
 11
108.703
 21
454.881
  0
LINE
  8
0
 10
108.703
 20
454.881
 11
108.236
 21
454.696
  0
LINE
  8
0
 10
108.236
 20
454.696
 11
107.75
 21
454.571
  0
LINE
  8
0
 10
107.75
 20
454.571
 11
107.251
 21
454.508
  0
LINE
  8
0
 10
107.251
 20
454.508
 11
-107.251
 21
454.508
  0
LINE
  8
0
 10
108.437
 20
414.089
 11
109.045
 21
414.245
  0
LINE
  8
0
 10
109.045
 20
414.245
 11
109.629
 21
414.476
  0
LINE
  8
0
 10
109.629
 20
414.476
 11
110.179
 21
414.778
  0
LINE
  8
0
 10
110.179
 20
414.778
 11
110.687
 21
415.147
  0
LINE
  8
0
 10
110.687
 20
415.147
 11
111.145
 21
415.577
  0
LINE
  8
0
 10
111.145
 20
415.577
 11
111.545
 21
416.061
  0
LINE
  8
0
 10
111.545
 20
416.061
 11
111.882
 21
416.591
  0
LINE
  8
0
 10
111.882
 20
416.591
 11
112.149
 21
417.159
  0
LINE
  8
0
 10
112.149
 20
417.159
 11
112.343
 21
417.757
  0
LINE
  8
0
 10
112.343
 20
417.757
 11
112.461
 21
418.373
  0
LINE
  8
0
 10
112.461
 20
418.373
 11
112.5
 21
419
  0
LINE
  8
0
 10
112.5
 20
419
 11
112.5
 21
439
  0
LINE
  8
0
 10
112.5
 20
439
 11
112.461
 21
439.627
  0
LINE
  8
0
 10
112.461
 20
439.627
 11
112.343
 21
440.243
  0
LINE
  8
0
 10
112.343
 20
440.243
 11
112.149
 21
440.841
  0
LINE
  8
0
 10
112.149
 20
440.841
 11
111.882
 21
441.409
  0
LINE
  8
0
 10
111.882
 20
441.409
 11
111.545
 21
441.939
  0
LINE
  8
0
 10
111.545
 20
441.939
 11
111.145
 21
442.423
  0
LINE
  8
0
 10
111.145
 20
442.423
 11
110.687
 21
442.853
  0
LINE
  8
0
 10
110.687
 20
442.853
 11
110.179
 21
443.222
  0
LINE
  8
0
 10
110.179
 20
443.222
 11
109.629
 21
443.524
  0
LINE
  8
0
 10
109.629
 20
443.524
 11
109.045
 21
443.755
  0
LINE
  8
0
 10
109.045
 20
443.755
 11
108.437
 21
443.911
  0
LINE
  8
0
 10
108.437
 20
443.911
 11
107.814
 21
443.99
  0
LINE
  8
0
 10
107.814
 20
443.99
 11
-107.814
 21
443.99
  0
LINE
  8
0
 10
-107.814
 20
443.99
 11
-108.437
 21
443.911
  0
LINE
  8
0
 10
-108.437
 20
443.911
 11
-109.045
 21
443.755
  0
LINE
  8
0
 10
-109.045
 20
443.755
 11
-109.629
 21
443.524
  0
LINE
  8
0
 10
-109.629
 20
443.524
 11
-110.179
 21
443.222
  0
LINE
  8
0
 10
-110.179
 20
443.222
 11
-110.687
 21
442.853
  0
LINE
  8
0
 10
-110.687
 20
442.853
 11
-111.145
 21
442.423
  0
LINE
  8
0
 10
-111.145
 20
442.423
 11
-111.545
 21
441.939
  0
LINE
  8
0
 10
-111.545
 20
441.939
 11
-111.882
 21
441.409
  0
LINE
  8
0
 10
-111.882
 20
441.409
 11
-112.149
 21
440.841
  0
LINE
  8
0
 10
-112.149
 20
440.841
 11
-112.343
 21
440.243
  0
LINE
  8
0
 10
-112.343
 20
440.243
 11
-112.461
 21
439.627
  0
LINE
  8
0
 10
-112.461
 20
439.627
 11
-112.5
 21
439
  0
LINE
  8
0
 10
-112.5
 20
439
 11
-112.5
 21
419
  0
LINE
  8
0
 10
-112.5
 20
419
 11
-112.461
 21
418.373
  0
LINE
  8
0
 10
-112.461
 20
418.373
 11
-112.343
 21
417.757
  0
LINE
  8
0
 10
-112.343
 20
417.757
 11
-112.149
 21
417.159
  0
LINE
  8
0
 10
-112.149
 20
417.159
 11
-111.882
 21
416.591
  0
LINE
  8
0
 10
-111.882
 20
416.591
 11
-111.545
 21
416.061
  0
LINE
  8
0
 10
-111.545
 20
416.061
 11
-111.145
 21
415.577
  0
LINE
  8
0
 10
-111.145
 20
415.577
 11
-110.687
 21
415.147
  0
LINE
  8
0
 10
-110.687
 20
415.147
 11
-110.179
 21
414.778
  0
LINE
  8
0
 10
-110.179
 20
414.778
 11
-109.629
 21
414.476
  0
LINE
  8
0
 10
-109.629
 20
414.476
 11
-109.045
 21
414.245
  0
LINE
  8
0
 10
-109.045
 20
414.245
 11
-108.437
 21
414.089
  0
LINE
  8
0
 10
-108.437
 20
414.089
 11
-107.814
 21
414.01
  0
LINE
  8
0
 10
-107.814
 20
414.01
 11
107.814
 21
414.01
  0
LINE
  8
0
 10
107.814
 20
414.01
 11
108.437
 21
414.089
  0
LINE
  8
0
 10
-107.195
 20
416.393
 11
-107.583
 21
416.442
  0
LINE
  8
0
 10
-107.583
 20
416.442
 11
-107.962
 21
416.539
  0
LINE
  8
0
 10
-107.962
 20
416.539
 11
-108.325
 21
416.683
  0
LINE
  8
0
 10
-108.325
 20
416.683
 11
-108.668
 21
416.872
  0
LINE
  8
0
 10
-108.668
 20
416.872
 11
-108.984
 21
417.101
  0
LINE
  8
0
 10
-108.984
 20
417.101
 11
-109.269
 21
417.369
  0
LINE
  8
0
 10
-109.269
 20
417.369
 11
-109.518
 21
417.67
  0
LINE
  8
0
 10
-109.518
 20
417.67
 11
-109.728
 21
418
  0
LINE
  8
0
 10
-109.728
 20
418
 11
-109.894
 21
418.354
  0
LINE
  8
0
 10
-109.894
 20
418.354
 11
-110.015
 21
418.726
  0
LINE
  8
0
 10
-110.015
 20
418.726
 11
-110.088
 21
419.11
  0
LINE
  8
0
 10
-110.088
 20
419.11
 11
-110.113
 21
419.5
  0
LINE
  8
0
 10
-110.113
 20
419.5
 11
-110.113
 21
438.5
  0
LINE
  8
0
 10
-110.113
 20
438.5
 11
-110.088
 21
438.89
  0
LINE
  8
0
 10
-110.088
 20
438.89
 11
-110.015
 21
439.274
  0
LINE
  8
0
 10
-110.015
 20
439.274
 11
-109.894
 21
439.646
  0
LINE
  8
0
 10
-109.894
 20
439.646
 11
-109.728
 21
440
  0
LINE
  8
0
 10
-109.728
 20
440
 11
-109.518
 21
440.33
  0
LINE
  8
0
 10
-109.518
 20
440.33
 11
-109.269
 21
440.631
  0
LINE
  8
0
 10
-109.269
 20
440.631
 11
-108.984
 21
440.899
  0
LINE
  8
0
 10
-108.984
 20
440.899
 11
-108.668
 21
441.128
  0
LINE
  8
0
 10
-108.668
 20
441.128
 11
-108.325
 21
441.317
  0
LINE
  8
0
 10
-108.325
 20
441.317
 11
-107.962
 21
441.461
  0
LINE
  8
0
 10
-107.962
 20
441.461
 11
-107.583
 21
441.558
  0
LINE
  8
0
 10
-107.583
 20
441.558
 11
-107.195
 21
441.607
  0
LINE
  8
0
 10
-107.195
 20
441.607
 11
107.195
 21
441.607
  0
LINE
  8
0
 10
107.195
 20
441.607
 11
107.583
 21
441.558
  0
LINE
  8
0
 10
107.583
 20
441.558
 11
107.962
 21
441.461
  0
LINE
  8
0
 10
107.962
 20
441.461
 11
108.325
 21
441.317
  0
LINE
  8
0
 10
108.325
 20
441.317
 11
108.668
 21
441.128
  0
LINE
  8
0
 10
108.668
 20
441.128
 11
108.984
 21
440.899
  0
LINE
  8
0
 10
108.984
 20
440.899
 11
109.269
 21
440.631
  0
LINE
  8
0
 10
109.269
 20
440.631
 11
109.518
 21
440.33
  0
LINE
  8
0
 10
109.518
 20
440.33
 11
109.728
 21
440
  0
LINE
  8
0
 10
109.728
 20
440
 11
109.894
 21
439.646
  0
LINE
  8
0
 10
109.894
 20
439.646
 11
110.015
 21
439.274
  0
LINE
  8
0
 10
110.015
 20
439.274
 11
110.088
 21
438.89
  0
LINE
  8
0
 10
110.088
 20
438.89
 11
110.113
 21
438.5
  0
LINE
  8
0
 10
110.113
 20
438.5
 11
110.113
 21
419.5
  0
LINE
  8
0
 10
110.113
 20
419.5
 11
110.088
 21
419.11
  0
LINE
  8
0
 10
110.088
 20
419.11
 11
110.015
 21
418.726
  0
LINE
  8
0
 10
110.015
 20
418.726
 11
109.894
 21
418.354
  0
LINE
  8
0
 10
109.894
 20
418.354
 11
109.728
 21
418
  0
LINE
  8
0
 10
109.728
 20
418
 11
109.518
 21
417.67
  0
LINE
  8
0
 10
109.518
 20
417.67
 11
109.269
 21
417.369
  0
LINE
  8
0
 10
109.269
 20
417.369
 11
108.984
 21
417.101
  0
LINE
  8
0
 10
108.984
 20
417.101
 11
108.668
 21
416.872
  0
LINE
  8
0
 10
108.668
 20
416.872
 11
108.325
 21
416.683
  0
LINE
  8
0
 10
108.325
 20
416.683
 11
107.962
 21
416.539
  0
LINE
  8
0
 10
107.962
 20
416.539
 11
107.583
 21
416.442
  0
LINE
  8
0
 10
107.583
 20
416.442
 11
107.195
 21
416.393
  0
LINE
  8
0
 10
107.195
 20
416.393
 11
-107.195
 21
416.393
  0
LINE
  8
0
 10
108.437
 20
375.089
 11
109.045
 21
375.245
  0
LINE
  8
0
 10
109.045
 20
375.245
 11
109.629
 21
375.476
  0
LINE
  8
0
 10
109.629
 20
375.476
 11
110.179
 21
375.778
  0
LINE
  8
0
 10
110.179
 20
375.778
 11
110.687
 21
376.147
  0
LINE
  8
0
 10
110.687
 20
376.147
 11
111.145
 21
376.577
  0
LINE
  8
0
 10
111.145
 20
376.577
 11
111.545
 21
377.061
  0
LINE
  8
0
 10
111.545
 20
377.061
 11
111.882
 21
377.591
  0
LINE
  8
0
 10
111.882
 20
377.591
 11
112.149
 21
378.159
  0
LINE
  8
0
 10
112.149
 20
378.159
 11
112.343
 21
378.757
  0
LINE
  8
0
 10
112.343
 20
378.757
 11
112.461
 21
379.373
  0
LINE
  8
0
 10
112.461
 20
379.373
 11
112.5
 21
380
  0
LINE
  8
0
 10
112.5
 20
380
 11
112.5
 21
400
  0
LINE
  8
0
 10
112.5
 20
400
 11
112.461
 21
400.627
  0
LINE
  8
0
 10
112.461
 20
400.627
 11
112.343
 21
401.243
  0
LINE
  8
0
 10
112.343
 20
401.243
 11
112.149
 21
401.841
  0
LINE
  8
0
 10
112.149
 20
401.841
 11
111.882
 21
402.409
  0
LINE
  8
0
 10
111.882
 20
402.409
 11
111.545
 21
402.939
  0
LINE
  8
0
 10
111.545
 20
402.939
 11
111.145
 21
403.423
  0
LINE
  8
0
 10
111.145
 20
403.423
 11
110.687
 21
403.853
  0
LINE
  8
0
 10
110.687
 20
403.853
 11
110.179
 21
404.222
  0
LINE
  8
0
 10
110.179
 20
404.222
 11
109.629
 21
404.524
  0
LINE
  8
0
 10
109.629
 20
404.524
 11
109.045
 21
404.755
  0
LINE
  8
0
 10
109.045
 20
404.755
 11
108.437
 21
404.911
  0
LINE
  8
0
 10
108.437
 20
404.911
 11
107.814
 21
404.99
  0
LINE
  8
0
 10
107.814
 20
404.99
 11
-107.814
 21
404.99
  0
LINE
  8
0
 10
-107.814
 20
404.99
 11
-108.437
 21
404.911
  0
LINE
  8
0
 10
-108.437
 20
404.911
 11
-109.045
 21
404.755
  0
LINE
  8
0
 10
-109.045
 20
404.755
 11
-109.629
 21
404.524
  0
LINE
  8
0
 10
-109.629
 20
404.524
 11
-110.179
 21
404.222
  0
LINE
  8
0
 10
-110.179
 20
404.222
 11
-110.687
 21
403.853
  0
LINE
  8
0
 10
-110.687
 20
403.853
 11
-111.145
 21
403.423
  0
LINE
  8
0
 10
-111.145
 20
403.423
 11
-111.545
 21
402.939
  0
LINE
  8
0
 10
-111.545
 20
402.939
 11
-111.882
 21
402.409
  0
LINE
  8
0
 10
-111.882
 20
402.409
 11
-112.149
 21
401.841
  0
LINE
  8
0
 10
-112.149
 20
401.841
 11
-112.343
 21
401.243
  0
LINE
  8
0
 10
-112.343
 20
401.243
 11
-112.461
 21
400.627
  0
LINE
  8
0
 10
-112.461
 20
400.627
 11
-112.5
 21
400
  0
LINE
  8
0
 10
-112.5
 20
400
 11
-112.5
 21
380
  0
LINE
  8
0
 10
-112.5
 20
380
 11
-112.461
 21
379.373
  0
LINE
  8
0
 10
-112.461
 20
379.373
 11
-112.343
 21
378.757
  0
LINE
  8
0
 10
-112.343
 20
378.757
 11
-112.149
 21
378.159
  0
LINE
  8
0
 10
-112.149
 20
378.159
 11
-111.882
 21
377.591
  0
LINE
  8
0
 10
-111.882
 20
377.591
 11
-111.545
 21
377.061
  0
LINE
  8
0
 10
-111.545
 20
377.061
 11
-111.145
 21
376.577
  0
LINE
  8
0
 10
-111.145
 20
376.577
 11
-110.687
 21
376.147
  0
LINE
  8
0
 10
-110.687
 20
376.147
 11
-110.179
 21
375.778
  0
LINE
  8
0
 10
-110.179
 20
375.778
 11
-109.629
 21
375.476
  0
LINE
  8
0
 10
-109.629
 20
375.476
 11
-109.045
 21
375.245
  0
LINE
  8
0
 10
-109.045
 20
375.245
 11
-108.437
 21
375.089
  0
LINE
  8
0
 10
-108.437
 20
375.089
 11
-107.814
 21
375.01
  0
LINE
  8
0
 10
-107.814
 20
375.01
 11
107.814
 21
375.01
  0
LINE
  8
0
 10
107.814
 20
375.01
 11
108.437
 21
375.089
  0
LINE
  8
0
 10
-105.134
 20
395.369
 11
-105.4
 21
395.403
  0
LINE
  8
0
 10
-105.4
 20
395.403
 11
-105.66
 21
395.469
  0
LINE
  8
0
 10
-105.66
 20
395.469
 11
-105.909
 21
395.568
  0
LINE
  8
0
 10
-105.909
 20
395.568
 11
-106.144
 21
395.697
  0
LINE
  8
0
 10
-106.144
 20
395.697
 11
-106.361
 21
395.855
  0
LINE
  8
0
 10
-106.361
 20
395.855
 11
-106.557
 21
396.038
  0
LINE
  8
0
 10
-106.557
 20
396.038
 11
-106.727
 21
396.245
  0
LINE
  8
0
 10
-106.727
 20
396.245
 11
-106.871
 21
396.471
  0
LINE
  8
0
 10
-106.871
 20
396.471
 11
-106.985
 21
396.714
  0
LINE
  8
0
 10
-106.985
 20
396.714
 11
-107.068
 21
396.969
  0
LINE
  8
0
 10
-107.068
 20
396.969
 11
-107.118
 21
397.232
  0
LINE
  8
0
 10
-107.118
 20
397.232
 11
-107.135
 21
397.5
  0
LINE
  8
0
 10
-107.135
 20
397.5
 11
-107.118
 21
397.768
  0
LINE
  8
0
 10
-107.118
 20
397.768
 11
-107.068
 21
398.031
  0
LINE
  8
0
 10
-107.068
 20
398.031
 11
-106.985
 21
398.286
  0
LINE
  8
0
 10
-106.985
 20
398.286
 11
-106.871
 21
398.529
  0
LINE
  8
0
 10
-106.871
 20
398.529
 11
-106.727
 21
398.755
  0
LINE
  8
0
 10
-106.727
 20
398.755
 11
-106.557
 21
398.962
  0
LINE
  8
0
 10
-106.557
 20
398.962
 11
-106.361
 21
399.145
  0
LINE
  8
0
 10
-106.361
 20
399.145
 11
-106.144
 21
399.303
  0
LINE
  8
0
 10
-106.144
 20
399.303
 11
-105.909
 21
399.432
  0
LINE
  8
0
 10
-105.909
 20
399.432
 11
-105.66
 21
399.531
  0
LINE
  8
0
 10
-105.66
 20
399.531
 11
-105.4
 21
399.597
  0
LINE
  8
0
 10
-105.4
 20
399.597
 11
-105.134
 21
399.631
  0
LINE
  8
0
 10
-105.134
 20
399.631
 11
-104.866
 21
399.631
  0
LINE
  8
0
 10
-104.866
 20
399.631
 11
-104.6
 21
399.597
  0
LINE
  8
0
 10
-104.6
 20
399.597
 11
-104.34
 21
399.531
  0
LINE
  8
0
 10
-104.34
 20
399.531
 11
-104.091
 21
399.432
  0
LINE
  8
0
 10
-104.091
 20
399.432
 11
-103.856
 21
399.303
  0
LINE
  8
0
 10
-103.856
 20
399.303
 11
-103.639
 21
399.145
  0
LINE
  8
0
 10
-103.639
 20
399.145
 11
-103.443
 21
398.962
  0
LINE
  8
0
 10
-103.443
 20
398.962
 11
-103.273
 21
398.755
  0
LINE
  8
0
 10
-103.273
 20
398.755
 11
-103.129
 21
398.529
  0
LINE
  8
0
 10
-103.129
 20
398.529
 11
-103.015
 21
398.286
  0
LINE
  8
0
 10
-103.015
 20
398.286
 11
-102.932
 21
398.031
  0
LINE
  8
0
 10
-102.932
 20
398.031
 11
-102.882
 21
397.768
  0
LINE
  8
0
 10
-102.882
 20
397.768
 11
-102.865
 21
397.5
  0
LINE
  8
0
 10
-102.865
 20
397.5
 11
-102.882
 21
397.232
  0
LINE
  8
0
 10
-102.882
 20
397.232
 11
-102.932
 21
396.969
  0
LINE
  8
0
 10
-102.932
 20
396.969
 11
-103.015
 21
396.714
  0
LINE
  8
0
 10
-103.015
 20
396.714
 11
-103.129
 21
396.471
  0
LINE
  8
0
 10
-103.129
 20
396.471
 11
-103.273
 21
396.245
  0
LINE
  8
0
 10
-103.273
 20
396.245
 11
-103.443
 21
396.038
  0
LINE
  8
0
 10
-103.443
 20
396.038
 11
-103.639
 21
395.855
  0
LINE
  8
0
 10
-103.639
 20
395.855
 11
-103.856
 21
395.697
  0
LINE
  8
0
 10
-103.856
 20
395.697
 11
-104.091
 21
395.568
  0
LINE
  8
0
 10
-104.091
 20
395.568
 11
-104.34
 21
395.469
  0
LINE
  8
0
 10
-104.34
 20
395.469
 11
-104.6
 21
395.403
  0
LINE
  8
0
 10
-104.6
 20
395.403
 11
-104.866
 21
395.369
  0
LINE
  8
0
 10
-104.866
 20
395.369
 11
-105.134
 21
395.369
  0
LINE
  8
0
 10
104.866
 20
395.369
 11
104.6
 21
395.403
  0
LINE
  8
0
 10
104.6
 20
395.403
 11
104.34
 21
395.469
  0
LINE
  8
0
 10
104.34
 20
395.469
 11
104.091
 21
395.568
  0
LINE
  8
0
 10
104.091
 20
395.568
 11
103.856
 21
395.697
  0
LINE
  8
0
 10
103.856
 20
395.697
 11
103.639
 21
395.855
  0
LINE
  8
0
 10
103.639
 20
395.855
 11
103.443
 21
396.038
  0
LINE
  8
0
 10
103.443
 20
396.038
 11
103.273
 21
396.245
  0
LINE
  8
0
 10
103.273
 20
396.245
 11
103.129
 21
396.471
  0
LINE
  8
0
 10
103.129
 20
396.471
 11
103.015
 21
396.714
  0
LINE
  8
0
 10
103.015
 20
396.714
 11
102.932
 21
396.969
  0
LINE
  8
0
 10
102.932
 20
396.969
 11
102.882
 21
397.232
  0
LINE
  8
0
 10
102.882
 20
397.232
 11
102.865
 21
397.5
  0
LINE
  8
0
 10
102.865
 20
397.5
 11
102.882
 21
397.768
  0
LINE
  8
0
 10
102.882
 20
397.768
 11
102.932
 21
398.031
  0
LINE
  8
0
 10
102.932
 20
398.031
 11
103.015
 21
398.286
  0
LINE
  8
0
 10
103.015
 20
398.286
 11
103.129
 21
398.529
  0
LINE
  8
0
 10
103.129
 20
398.529
 11
103.273
 21
398.755
  0
LINE
  8
0
 10
103.273
 20
398.755
 11
103.443
 21
398.962
  0
LINE
  8
0
 10
103.443
 20
398.962
 11
103.639
 21
399.145
  0
LINE
  8
0
 10
103.639
 20
399.145
 11
103.856
 21
399.303
  0
LINE
  8
0
 10
103.856
 20
399.303
 11
104.091
 21
399.432
  0
LINE
  8
0
 10
104.091
 20
399.432
 11
104.34
 21
399.531
  0
LINE
  8
0
 10
104.34
 20
399.531
 11
104.6
 21
399.597
  0
LINE
  8
0
 10
104.6
 20
399.597
 11
104.866
 21
399.631
  0
LINE
  8
0
 10
104.866
 20
399.631
 11
105.134
 21
399.631
  0
LINE
  8
0
 10
105.134
 20
399.631
 11
105.4
 21
399.597
  0
LINE
  8
0
 10
105.4
 20
399.597
 11
105.66
 21
399.531
  0
LINE
  8
0
 10
105.66
 20
399.531
 11
105.909
 21
399.432
  0
LINE
  8
0
 10
105.909
 20
399.432
 11
106.144
 21
399.303
  0
LINE
  8
0
 10
106.144
 20
399.303
 11
106.361
 21
399.145
  0
LINE
  8
0
 10
106.361
 20
399.145
 11
106.557
 21
398.962
  0
LINE
  8
0
 10
106.557
 20
398.962
 11
106.727
 21
398.755
  0
LINE
  8
0
 10
106.727
 20
398.755
 11
106.871
 21
398.529
  0
LINE
  8
0
 10
106.871
 20
398.529
 11
106.985
 21
398.286
  0
LINE
  8
0
 10
106.985
 20
398.286
 11
107.068
 21
398.031
  0
LINE
  8
0
 10
107.068
 20
398.031
 11
107.118
 21
397.768
  0
LINE
  8
0
 10
107.118
 20
397.768
 11
107.135
 21
397.5
  0
LINE
  8
0
 10
107.135
 20
397.5
 11
107.118
 21
397.232
  0
LINE
  8
0
 10
107.118
 20
397.232
 11
107.068
 21
396.969
  0
LINE
  8
0
 10
107.068
 20
396.969
 11
106.985
 21
396.714
  0
LINE
  8
0
 10
106.985
 20
396.714
 11
106.871
 21
396.471
  0
LINE
  8
0
 10
106.871
 20
396.471
 11
106.727
 21
396.245
  0
LINE
  8
0
 10
106.727
 20
396.245
 11
106.557
 21
396.038
  0
LINE
  8
0
 10
106.557
 20
396.038
 11
106.361
 21
395.855
  0
LINE
  8
0
 10
106.361
 20
395.855
 11
106.144
 21
395.697
  0
LINE
  8
0
 10
106.144
 20
395.697
 11
105.909
 21
395.568
  0
LINE
  8
0
 10
105.909
 20
395.568
 11
105.66
 21
395.469
  0
LINE
  8
0
 10
105.66
 20
395.469
 11
105.4
 21
395.403
  0
LINE
  8
0
 10
105.4
 20
395.403
 11
105.134
 21
395.369
  0
LINE
  8
0
 10
105.134
 20
395.369
 11
104.866
 21
395.369
  0
LINE
  8
0
 10
-105.134
 20
380.369
 11
-105.4
 21
380.403
  0
LINE
  8
0
 10
-105.4
 20
380.403
 11
-105.66
 21
380.469
  0
LINE
  8
0
 10
-105.66
 20
380.469
 11
-105.909
 21
380.568
  0
LINE
  8
0
 10
-105.909
 20
380.568
 11
-106.144
 21
380.697
  0
LINE
  8
0
 10
-106.144
 20
380.697
 11
-106.361
 21
380.855
  0
LINE
  8
0
 10
-106.361
 20
380.855
 11
-106.557
 21
381.038
  0
LINE
  8
0
 10
-106.557
 20
381.038
 11
-106.727
 21
381.245
  0
LINE
  8
0
 10
-106.727
 20
381.245
 11
-106.871
 21
381.471
  0
LINE
  8
0
 10
-106.871
 20
381.471
 11
-106.985
 21
381.714
  0
LINE
  8
0
 10
-106.985
 20
381.714
 11
-107.068
 21
381.969
  0
LINE
  8
0
 10
-107.068
 20
381.969
 11
-107.118
 21
382.232
  0
LINE
  8
0
 10
-107.118
 20
382.232
 11
-107.135
 21
382.5
  0
LINE
  8
0
 10
-107.135
 20
382.5
 11
-107.118
 21
382.768
  0
LINE
  8
0
 10
-107.118
 20
382.768
 11
-107.068
 21
383.031
  0
LINE
  8
0
 10
-107.068
 20
383.031
 11
-106.985
 21
383.286
  0
LINE
  8
0
 10
-106.985
 20
383.286
 11
-106.871
 21
383.529
  0
LINE
  8
0
 10
-106.871
 20
383.529
 11
-106.727
 21
383.755
  0
LINE
  8
0
 10
-106.727
 20
383.755
 11
-106.557
 21
383.962
  0
LINE
  8
0
 10
-106.557
 20
383.962
 11
-106.361
 21
384.145
  0
LINE
  8
0
 10
-106.361
 20
384.145
 11
-106.144
 21
384.303
  0
LINE
  8
0
 10
-106.144
 20
384.303
 11
-105.909
 21
384.432
  0
LINE
  8
0
 10
-105.909
 20
384.432
 11
-105.66
 21
384.531
  0
LINE
  8
0
 10
-105.66
 20
384.531
 11
-105.4
 21
384.597
  0
LINE
  8
0
 10
-105.4
 20
384.597
 11
-105.134
 21
384.631
  0
LINE
  8
0
 10
-105.134
 20
384.631
 11
-104.866
 21
384.631
  0
LINE
  8
0
 10
-104.866
 20
384.631
 11
-104.6
 21
384.597
  0
LINE
  8
0
 10
-104.6
 20
384.597
 11
-104.34
 21
384.531
  0
LINE
  8
0
 10
-104.34
 20
384.531
 11
-104.091
 21
384.432
  0
LINE
  8
0
 10
-104.091
 20
384.432
 11
-103.856
 21
384.303
  0
LINE
  8
0
 10
-103.856
 20
384.303
 11
-103.639
 21
384.145
  0
LINE
  8
0
 10
-103.639
 20
384.145
 11
-103.443
 21
383.962
  0
LINE
  8
0
 10
-103.443
 20
383.962
 11
-103.273
 21
383.755
  0
LINE
  8
0
 10
-103.273
 20
383.755
 11
-103.129
 21
383.529
  0
LINE
  8
0
 10
-103.129
 20
383.529
 11
-103.015
 21
383.286
  0
LINE
  8
0
 10
-103.015
 20
383.286
 11
-102.932
 21
383.031
  0
LINE
  8
0
 10
-102.932
 20
383.031
 11
-102.882
 21
382.768
  0
LINE
  8
0
 10
-102.882
 20
382.768
 11
-102.865
 21
382.5
  0
LINE
  8
0
 10
-102.865
 20
382.5
 11
-102.882
 21
382.232
  0
LINE
  8
0
 10
-102.882
 20
382.232
 11
-102.932
 21
381.969
  0
LINE
  8
0
 10
-102.932
 20
381.969
 11
-103.015
 21
381.714
  0
LINE
  8
0
 10
-103.015
 20
381.714
 11
-103.129
 21
381.471
  0
LINE
  8
0
 10
-103.129
 20
381.471
 11
-103.273
 21
381.245
  0
LINE
  8
0
 10
-103.273
 20
381.245
 11
-103.443
 21
381.038
  0
LINE
  8
0
 10
-103.443
 20
381.038
 11
-103.639
 21
380.855
  0
LINE
  8
0
 10
-103.639
 20
380.855
 11
-103.856
 21
380.697
  0
LINE
  8
0
 10
-103.856
 20
380.697
 11
-104.091
 21
380.568
  0
LINE
  8
0
 10
-104.091
 20
380.568
 11
-104.34
 21
380.469
  0
LINE
  8
0
 10
-104.34
 20
380.469
 11
-104.6
 21
380.403
  0
LINE
  8
0
 10
-104.6
 20
380.403
 11
-104.866
 21
380.369
  0
LINE
  8
0
 10
-104.866
 20
380.369
 11
-105.134
 21
380.369
  0
LINE
  8
0
 10
104.866
 20
380.369
 11
104.6
 21
380.403
  0
LINE
  8
0
 10
104.6
 20
380.403
 11
104.34
 21
380.469
  0
LINE
  8
0
 10
104.34
 20
380.469
 11
104.091
 21
380.568
  0
LINE
  8
0
 10
104.091
 20
380.568
 11
103.856
 21
380.697
  0
LINE
  8
0
 10
103.856
 20
380.697
 11
103.639
 21
380.855
  0
LINE
  8
0
 10
103.639
 20
380.855
 11
103.443
 21
381.038
  0
LINE
  8
0
 10
103.443
 20
381.038
 11
103.273
 21
381.245
  0
LINE
  8
0
 10
103.273
 20
381.245
 11
103.129
 21
381.471
  0
LINE
  8
0
 10
103.129
 20
381.471
 11
103.015
 21
381.714
  0
LINE
  8
0
 10
103.015
 20
381.714
 11
102.932
 21
381.969
  0
LINE
  8
0
 10
102.932
 20
381.969
 11
102.882
 21
382.232
  0
LINE
  8
0
 10
102.882
 20
382.232
 11
102.865
 21
382.5
  0
LINE
  8
0
 10
102.865
 20
382.5
 11
102.882
 21
382.768
  0
LINE
  8
0
 10
102.882
 20
382.768
 11
102.932
 21
383.031
  0
LINE
  8
0
 10
102.932
 20
383.031
 11
103.015
 21
383.286
  0
LINE
  8
0
 10
103.015
 20
383.286
 11
103.129
 21
383.529
  0
LINE
  8
0
 10
103.129
 20
383.529
 11
103.273
 21
383.755
  0
LINE
  8
0
 10
103.273
 20
383.755
 11
103.443
 21
383.962
  0
LINE
  8
0
 10
103.443
 20
383.962
 11
103.639
 21
384.145
  0
LINE
  8
0
 10
103.639
 20
384.145
 11
103.856
 21
384.303
  0
LINE
  8
0
 10
103.856
 20
384.303
 11
104.091
 21
384.432
  0
LINE
  8
0
 10
104.091
 20
384.432
 11
104.34
 21
384.531
  0
LINE
  8
0
 10
104.34
 20
384.531
 11
104.6
 21
384.597
  0
LINE
  8
0
 10
104.6
 20
384.597
 11
104.866
 21
384.631
  0
LINE
  8
0
 10
104.866
 20
384.631
 11
105.134
 21
384.631
  0
LINE
  8
0
 10
105.134
 20
384.631
 11
105.4
 21
384.597
  0
LINE
  8
0
 10
105.4
 20
384.597
 11
105.66
 21
384.531
  0
LINE
  8
0
 10
105.66
 20
384.531
 11
105.909
 21
384.432
  0
LINE
  8
0
 10
105.909
 20
384.432
 11
106.144
 21
384.303
  0
LINE
  8
0
 10
106.144
 20
384.303
 11
106.361
 21
384.145
  0
LINE
  8
0
 10
106.361
 20
384.145
 11
106.557
 21
383.962
  0
LINE
  8
0
 10
106.557
 20
383.962
 11
106.727
 21
383.755
  0
LINE
  8
0
 10
106.727
 20
383.755
 11
106.871
 21
383.529
  0
LINE
  8
0
 10
106.871
 20
383.529
 11
106.985
 21
383.286
  0
LINE
  8
0
 10
106.985
 20
383.286
 11
107.068
 21
383.031
  0
LINE
  8
0
 10
107.068
 20
383.031
 11
107.118
 21
382.768
  0
LINE
  8
0
 10
107.118
 20
382.768
 11
107.135
 21
382.5
  0
LINE
  8
0
 10
107.135
 20
382.5
 11
107.118
 21
382.232
  0
LINE
  8
0
 10
107.118
 20
382.232
 11
107.068
 21
381.969
  0
LINE
  8
0
 10
107.068
 20
381.969
 11
106.985
 21
381.714
  0
LINE
  8
0
 10
106.985
 20
381.714
 11
106.871
 21
381.471
  0
LINE
  8
0
 10
106.871
 20
381.471
 11
106.727
 21
381.245
  0
LINE
  8
0
 10
106.727
 20
381.245
 11
106.557
 21
381.038
  0
LINE
  8
0
 10
106.557
 20
381.038
 11
106.361
 21
380.855
  0
LINE
  8
0
 10
106.361
 20
380.855
 11
106.144
 21
380.697
  0
LINE
  8
0
 10
106.144
 20
380.697
 11
105.909
 21
380.568
  0
LINE
  8
0
 10
105.909
 20
380.568
 11
105.66
 21
380.469
  0
LINE
  8
0
 10
105.66
 20
380.469
 11
105.4
 21
380.403
  0
LINE
  8
0
 10
105.4
 20
380.403
 11
105.134
 21
380.369
  0
LINE
  8
0
 10
105.134
 20
380.369
 11
104.866
 21
380.369
  0
ENDSEC
  0
SECTION
  2
OBJECTS
  0
DICTIONARY
  0
ENDSEC
  0
EOF
