solid OpenSCAD_Model
  facet normal 0.998027 0.0627869 -1.4488e-18
    outer loop
      vertex 82.5 0 18
      vertex 81.8495 10.34 0
      vertex 81.8495 10.34 18
    endloop
  endfacet
  facet normal 0.998027 0.0627869 -1.4488e-18
    outer loop
      vertex 81.8495 10.34 0
      vertex 82.5 0 18
      vertex 82.5 0 0
    endloop
  endfacet
  facet normal -0.998027 0.0627869 1.4488e-18
    outer loop
      vertex -82.5 0 0
      vertex -81.8495 10.34 18
      vertex -81.8495 10.34 0
    endloop
  endfacet
  facet normal -0.998027 0.0627869 1.4488e-18
    outer loop
      vertex -81.8495 10.34 18
      vertex -82.5 0 0
      vertex -82.5 0 18
    endloop
  endfacet
  facet normal 0 1 -0
    outer loop
      vertex 5.18022 82.3372 0
      vertex -5.18022 82.3372 18
      vertex 5.18022 82.3372 18
    endloop
  endfacet
  facet normal 0 1 0
    outer loop
      vertex -5.18022 82.3372 18
      vertex 5.18022 82.3372 0
      vertex -5.18022 82.3372 0
    endloop
  endfacet
  facet normal 0 -1 0
    outer loop
      vertex -5.18022 -82.3372 0
      vertex 5.18022 -82.3372 18
      vertex -5.18022 -82.3372 18
    endloop
  endfacet
  facet normal 0 -1 -0
    outer loop
      vertex 5.18022 -82.3372 18
      vertex -5.18022 -82.3372 0
      vertex 5.18022 -82.3372 0
    endloop
  endfacet
  facet normal 0.684548 0.728967 -0
    outer loop
      vertex 60.1399 56.4751 0
      vertex 52.5875 63.5673 18
      vertex 60.1399 56.4751 18
    endloop
  endfacet
  facet normal 0.684548 0.728967 0
    outer loop
      vertex 52.5875 63.5673 18
      vertex 60.1399 56.4751 0
      vertex 52.5875 63.5673 0
    endloop
  endfacet
  facet normal -0.684548 0.728967 0
    outer loop
      vertex -52.5875 63.5673 0
      vertex -60.1399 56.4751 18
      vertex -52.5875 63.5673 18
    endloop
  endfacet
  facet normal -0.684548 0.728967 0
    outer loop
      vertex -60.1399 56.4751 18
      vertex -52.5875 63.5673 0
      vertex -60.1399 56.4751 0
    endloop
  endfacet
  facet normal -0.36813 0.929774 0
    outer loop
      vertex -25.4939 78.4622 0
      vertex -35.1268 74.6482 18
      vertex -25.4939 78.4622 18
    endloop
  endfacet
  facet normal -0.36813 0.929774 0
    outer loop
      vertex -35.1268 74.6482 18
      vertex -25.4939 78.4622 0
      vertex -35.1268 74.6482 0
    endloop
  endfacet
  facet normal 0.904825 0.425783 -1.89204e-17
    outer loop
      vertex 76.7066 30.3703 18
      vertex 72.2953 39.7447 0
      vertex 72.2953 39.7447 18
    endloop
  endfacet
  facet normal 0.904825 0.425783 -1.89204e-17
    outer loop
      vertex 72.2953 39.7447 0
      vertex 76.7066 30.3703 18
      vertex 76.7066 30.3703 0
    endloop
  endfacet
  facet normal 0.982286 0.187386 6.46495e-18
    outer loop
      vertex 81.8495 10.34 18
      vertex 79.9081 20.5169 0
      vertex 79.9081 20.5169 18
    endloop
  endfacet
  facet normal 0.982286 0.187386 6.46495e-18
    outer loop
      vertex 79.9081 20.5169 0
      vertex 81.8495 10.34 18
      vertex 81.8495 10.34 0
    endloop
  endfacet
  facet normal 0.36813 0.929774 -0
    outer loop
      vertex 35.1268 74.6482 0
      vertex 25.4939 78.4622 18
      vertex 35.1268 74.6482 18
    endloop
  endfacet
  facet normal 0.36813 0.929774 0
    outer loop
      vertex 25.4939 78.4622 18
      vertex 35.1268 74.6482 0
      vertex 25.4939 78.4622 0
    endloop
  endfacet
  facet normal 0.481749 0.876309 -0
    outer loop
      vertex 44.2057 69.6571 0
      vertex 35.1268 74.6482 18
      vertex 44.2057 69.6571 18
    endloop
  endfacet
  facet normal 0.481749 0.876309 0
    outer loop
      vertex 35.1268 74.6482 18
      vertex 44.2057 69.6571 0
      vertex 35.1268 74.6482 0
    endloop
  endfacet
  facet normal -0.904825 0.425783 1.89204e-17
    outer loop
      vertex -76.7066 30.3703 0
      vertex -72.2953 39.7447 18
      vertex -72.2953 39.7447 0
    endloop
  endfacet
  facet normal -0.904825 0.425783 1.89204e-17
    outer loop
      vertex -72.2953 39.7447 18
      vertex -76.7066 30.3703 0
      vertex -76.7066 30.3703 18
    endloop
  endfacet
  facet normal -0.844328 0.535827 9.30208e-19
    outer loop
      vertex -72.2953 39.7447 0
      vertex -66.7439 48.4923 18
      vertex -66.7439 48.4923 0
    endloop
  endfacet
  facet normal -0.844328 0.535827 9.30208e-19
    outer loop
      vertex -66.7439 48.4923 18
      vertex -72.2953 39.7447 0
      vertex -72.2953 39.7447 18
    endloop
  endfacet
  facet normal -0.951058 0.309011 9.25554e-18
    outer loop
      vertex -79.9081 20.5169 0
      vertex -76.7066 30.3703 18
      vertex -76.7066 30.3703 0
    endloop
  endfacet
  facet normal -0.951058 0.309011 9.25554e-18
    outer loop
      vertex -76.7066 30.3703 18
      vertex -79.9081 20.5169 0
      vertex -79.9081 20.5169 18
    endloop
  endfacet
  facet normal -0.481749 0.876309 0
    outer loop
      vertex -35.1268 74.6482 0
      vertex -44.2057 69.6571 18
      vertex -35.1268 74.6482 18
    endloop
  endfacet
  facet normal -0.481749 0.876309 0
    outer loop
      vertex -44.2057 69.6571 18
      vertex -35.1268 74.6482 0
      vertex -44.2057 69.6571 0
    endloop
  endfacet
  facet normal -0.248688 0.968584 0
    outer loop
      vertex -15.459 81.0387 0
      vertex -25.4939 78.4622 18
      vertex -15.459 81.0387 18
    endloop
  endfacet
  facet normal -0.248688 0.968584 0
    outer loop
      vertex -25.4939 78.4622 18
      vertex -15.459 81.0387 0
      vertex -25.4939 78.4622 0
    endloop
  endfacet
  facet normal 0.951058 -0.309011 9.25554e-18
    outer loop
      vertex 76.7066 -30.3703 18
      vertex 79.9081 -20.5169 0
      vertex 79.9081 -20.5169 18
    endloop
  endfacet
  facet normal 0.951058 -0.309011 9.25554e-18
    outer loop
      vertex 79.9081 -20.5169 0
      vertex 76.7066 -30.3703 18
      vertex 76.7066 -30.3703 0
    endloop
  endfacet
  facet normal 0.125332 -0.992115 0
    outer loop
      vertex 5.18022 -82.3372 0
      vertex 15.459 -81.0387 18
      vertex 5.18022 -82.3372 18
    endloop
  endfacet
  facet normal 0.125332 -0.992115 0
    outer loop
      vertex 15.459 -81.0387 18
      vertex 5.18022 -82.3372 0
      vertex 15.459 -81.0387 0
    endloop
  endfacet
  facet normal 0.951058 0.309011 -9.25554e-18
    outer loop
      vertex 79.9081 20.5169 18
      vertex 76.7066 30.3703 0
      vertex 76.7066 30.3703 18
    endloop
  endfacet
  facet normal 0.951058 0.309011 -9.25554e-18
    outer loop
      vertex 76.7066 30.3703 0
      vertex 79.9081 20.5169 18
      vertex 79.9081 20.5169 0
    endloop
  endfacet
  facet normal 0.770511 0.637427 -1.7488e-18
    outer loop
      vertex 66.7439 48.4923 18
      vertex 60.1399 56.4751 0
      vertex 60.1399 56.4751 18
    endloop
  endfacet
  facet normal 0.770511 0.637427 -1.7488e-18
    outer loop
      vertex 60.1399 56.4751 0
      vertex 66.7439 48.4923 18
      vertex 66.7439 48.4923 0
    endloop
  endfacet
  facet normal 0.844328 0.535827 -9.30208e-19
    outer loop
      vertex 72.2953 39.7447 18
      vertex 66.7439 48.4923 0
      vertex 66.7439 48.4923 18
    endloop
  endfacet
  facet normal 0.844328 0.535827 -9.30208e-19
    outer loop
      vertex 66.7439 48.4923 0
      vertex 72.2953 39.7447 18
      vertex 72.2953 39.7447 0
    endloop
  endfacet
  facet normal 0.248688 0.968584 -0
    outer loop
      vertex 25.4939 78.4622 0
      vertex 15.459 81.0387 18
      vertex 25.4939 78.4622 18
    endloop
  endfacet
  facet normal 0.248688 0.968584 0
    outer loop
      vertex 15.459 81.0387 18
      vertex 25.4939 78.4622 0
      vertex 15.459 81.0387 0
    endloop
  endfacet
  facet normal 0.125332 0.992115 -0
    outer loop
      vertex 15.459 81.0387 0
      vertex 5.18022 82.3372 18
      vertex 15.459 81.0387 18
    endloop
  endfacet
  facet normal 0.125332 0.992115 0
    outer loop
      vertex 5.18022 82.3372 18
      vertex 15.459 81.0387 0
      vertex 5.18022 82.3372 0
    endloop
  endfacet
  facet normal 0.587789 0.809014 -0
    outer loop
      vertex 52.5875 63.5673 0
      vertex 44.2057 69.6571 18
      vertex 52.5875 63.5673 18
    endloop
  endfacet
  facet normal 0.587789 0.809014 0
    outer loop
      vertex 44.2057 69.6571 18
      vertex 52.5875 63.5673 0
      vertex 44.2057 69.6571 0
    endloop
  endfacet
  facet normal -0.982286 0.187386 -6.46495e-18
    outer loop
      vertex -81.8495 10.34 0
      vertex -79.9081 20.5169 18
      vertex -79.9081 20.5169 0
    endloop
  endfacet
  facet normal -0.982286 0.187386 -6.46495e-18
    outer loop
      vertex -79.9081 20.5169 18
      vertex -81.8495 10.34 0
      vertex -81.8495 10.34 18
    endloop
  endfacet
  facet normal 0 0 1
    outer loop
      vertex 65 0 18
      vertex 82.5 0 18
      vertex 81.8495 10.34 18
    endloop
  endfacet
  facet normal 0 0 1
    outer loop
      vertex 64.4875 8.14666 18
      vertex 81.8495 10.34 18
      vertex 79.9081 20.5169 18
    endloop
  endfacet
  facet normal 0 0 1
    outer loop
      vertex 82.5 0 18
      vertex 65 0 18
      vertex 81.8495 -10.34 18
    endloop
  endfacet
  facet normal 0 0 1
    outer loop
      vertex 62.9579 16.1648 18
      vertex 79.9081 20.5169 18
      vertex 76.7066 30.3703 18
    endloop
  endfacet
  facet normal -0 0 1
    outer loop
      vertex 64.4875 -8.14666 18
      vertex 81.8495 -10.34 18
      vertex 65 0 18
    endloop
  endfacet
  facet normal 0 0 1
    outer loop
      vertex 60.4355 23.9281 18
      vertex 76.7066 30.3703 18
      vertex 72.2953 39.7447 18
    endloop
  endfacet
  facet normal 0 0 1
    outer loop
      vertex 81.8495 -10.34 18
      vertex 64.4875 -8.14666 18
      vertex 79.9081 -20.5169 18
    endloop
  endfacet
  facet normal 0 0 1
    outer loop
      vertex 56.9599 31.314 18
      vertex 72.2953 39.7447 18
      vertex 66.7439 48.4923 18
    endloop
  endfacet
  facet normal -0 0 1
    outer loop
      vertex 62.9579 -16.1648 18
      vertex 79.9081 -20.5169 18
      vertex 64.4875 -8.14666 18
    endloop
  endfacet
  facet normal 0 0 1
    outer loop
      vertex 79.9081 -20.5169 18
      vertex 62.9579 -16.1648 18
      vertex 76.7066 -30.3703 18
    endloop
  endfacet
  facet normal 0 0 1
    outer loop
      vertex 81.8495 10.34 18
      vertex 64.4875 8.14666 18
      vertex 65 0 18
    endloop
  endfacet
  facet normal 0 0 1
    outer loop
      vertex 79.9081 20.5169 18
      vertex 62.9579 16.1648 18
      vertex 64.4875 8.14666 18
    endloop
  endfacet
  facet normal 0 0 1
    outer loop
      vertex 76.7066 30.3703 18
      vertex 60.4355 23.9281 18
      vertex 62.9579 16.1648 18
    endloop
  endfacet
  facet normal 0 0 1
    outer loop
      vertex 52.5861 38.206 18
      vertex 66.7439 48.4923 18
      vertex 60.1399 56.4751 18
    endloop
  endfacet
  facet normal 0 0 1
    outer loop
      vertex 72.2953 39.7447 18
      vertex 56.9599 31.314 18
      vertex 60.4355 23.9281 18
    endloop
  endfacet
  facet normal 0 0 1
    outer loop
      vertex 47.383 44.4956 18
      vertex 60.1399 56.4751 18
      vertex 52.5875 63.5673 18
    endloop
  endfacet
  facet normal 0 0 1
    outer loop
      vertex 66.7439 48.4923 18
      vertex 52.5861 38.206 18
      vertex 56.9599 31.314 18
    endloop
  endfacet
  facet normal 0 0 1
    outer loop
      vertex 60.1399 56.4751 18
      vertex 47.383 44.4956 18
      vertex 52.5861 38.206 18
    endloop
  endfacet
  facet normal 0 0 1
    outer loop
      vertex 41.4326 50.0834 18
      vertex 52.5875 63.5673 18
      vertex 44.2057 69.6571 18
    endloop
  endfacet
  facet normal 0 0 1
    outer loop
      vertex 52.5875 63.5673 18
      vertex 41.4326 50.0834 18
      vertex 47.383 44.4956 18
    endloop
  endfacet
  facet normal 0 0 1
    outer loop
      vertex 34.8287 54.8813 18
      vertex 44.2057 69.6571 18
      vertex 35.1268 74.6482 18
    endloop
  endfacet
  facet normal 0 0 1
    outer loop
      vertex 44.2057 69.6571 18
      vertex 34.8287 54.8813 18
      vertex 41.4326 50.0834 18
    endloop
  endfacet
  facet normal 0 0 1
    outer loop
      vertex 35.1268 74.6482 18
      vertex 27.6757 58.8138 18
      vertex 34.8287 54.8813 18
    endloop
  endfacet
  facet normal 0 0 1
    outer loop
      vertex 25.4939 78.4622 18
      vertex 27.6757 58.8138 18
      vertex 35.1268 74.6482 18
    endloop
  endfacet
  facet normal 0 0 1
    outer loop
      vertex 25.4939 78.4622 18
      vertex 20.0861 61.8187 18
      vertex 27.6757 58.8138 18
    endloop
  endfacet
  facet normal 0 0 1
    outer loop
      vertex 15.459 81.0387 18
      vertex 20.0861 61.8187 18
      vertex 25.4939 78.4622 18
    endloop
  endfacet
  facet normal 0 0 1
    outer loop
      vertex 15.459 81.0387 18
      vertex 12.1798 63.8487 18
      vertex 20.0861 61.8187 18
    endloop
  endfacet
  facet normal 0 0 1
    outer loop
      vertex 5.18022 82.3372 18
      vertex 12.1798 63.8487 18
      vertex 15.459 81.0387 18
    endloop
  endfacet
  facet normal 0 0 1
    outer loop
      vertex 5.18022 82.3372 18
      vertex 4.08138 64.8717 18
      vertex 12.1798 63.8487 18
    endloop
  endfacet
  facet normal 0 0 1
    outer loop
      vertex 5.18022 82.3372 18
      vertex -4.08138 64.8717 18
      vertex 4.08138 64.8717 18
    endloop
  endfacet
  facet normal -0 0 1
    outer loop
      vertex -5.18022 82.3372 18
      vertex -4.08138 64.8717 18
      vertex 5.18022 82.3372 18
    endloop
  endfacet
  facet normal 0 0 1
    outer loop
      vertex -5.18022 82.3372 18
      vertex -12.1798 63.8487 18
      vertex -4.08138 64.8717 18
    endloop
  endfacet
  facet normal -0 0 1
    outer loop
      vertex -15.459 81.0387 18
      vertex -12.1798 63.8487 18
      vertex -5.18022 82.3372 18
    endloop
  endfacet
  facet normal 0 0 1
    outer loop
      vertex -15.459 81.0387 18
      vertex -20.0861 61.8187 18
      vertex -12.1798 63.8487 18
    endloop
  endfacet
  facet normal -0 0 1
    outer loop
      vertex -25.4939 78.4622 18
      vertex -20.0861 61.8187 18
      vertex -15.459 81.0387 18
    endloop
  endfacet
  facet normal 0 0 1
    outer loop
      vertex -25.4939 78.4622 18
      vertex -27.6757 58.8138 18
      vertex -20.0861 61.8187 18
    endloop
  endfacet
  facet normal -0 0 1
    outer loop
      vertex -35.1268 74.6482 18
      vertex -27.6757 58.8138 18
      vertex -25.4939 78.4622 18
    endloop
  endfacet
  facet normal 0 0 1
    outer loop
      vertex -27.6757 58.8138 18
      vertex -35.1268 74.6482 18
      vertex -34.8287 54.8813 18
    endloop
  endfacet
  facet normal -0 0 1
    outer loop
      vertex -44.2057 69.6571 18
      vertex -34.8287 54.8813 18
      vertex -35.1268 74.6482 18
    endloop
  endfacet
  facet normal 0 0 1
    outer loop
      vertex -34.8287 54.8813 18
      vertex -44.2057 69.6571 18
      vertex -41.4326 50.0834 18
    endloop
  endfacet
  facet normal -0 0 1
    outer loop
      vertex -52.5875 63.5673 18
      vertex -41.4326 50.0834 18
      vertex -44.2057 69.6571 18
    endloop
  endfacet
  facet normal 0 0 1
    outer loop
      vertex -41.4326 50.0834 18
      vertex -52.5875 63.5673 18
      vertex -47.383 44.4956 18
    endloop
  endfacet
  facet normal -0 0 1
    outer loop
      vertex -60.1399 56.4751 18
      vertex -47.383 44.4956 18
      vertex -52.5875 63.5673 18
    endloop
  endfacet
  facet normal 0 0 1
    outer loop
      vertex -47.383 44.4956 18
      vertex -60.1399 56.4751 18
      vertex -52.5861 38.206 18
    endloop
  endfacet
  facet normal -0 0 1
    outer loop
      vertex -66.7439 48.4923 18
      vertex -52.5861 38.206 18
      vertex -60.1399 56.4751 18
    endloop
  endfacet
  facet normal 0 0 1
    outer loop
      vertex -52.5861 38.206 18
      vertex -66.7439 48.4923 18
      vertex -56.9599 31.314 18
    endloop
  endfacet
  facet normal -0 0 1
    outer loop
      vertex -72.2953 39.7447 18
      vertex -56.9599 31.314 18
      vertex -66.7439 48.4923 18
    endloop
  endfacet
  facet normal 0 0 1
    outer loop
      vertex -56.9599 31.314 18
      vertex -72.2953 39.7447 18
      vertex -60.4355 23.9281 18
    endloop
  endfacet
  facet normal 0 0 1
    outer loop
      vertex -60.4355 23.9281 18
      vertex -76.7066 30.3703 18
      vertex -62.9579 16.1648 18
    endloop
  endfacet
  facet normal -0 0 1
    outer loop
      vertex -76.7066 30.3703 18
      vertex -60.4355 23.9281 18
      vertex -72.2953 39.7447 18
    endloop
  endfacet
  facet normal -0 0 1
    outer loop
      vertex 60.4355 -23.9281 18
      vertex 76.7066 -30.3703 18
      vertex 62.9579 -16.1648 18
    endloop
  endfacet
  facet normal 0 0 1
    outer loop
      vertex 76.7066 -30.3703 18
      vertex 60.4355 -23.9281 18
      vertex 72.2953 -39.7447 18
    endloop
  endfacet
  facet normal -0 0 1
    outer loop
      vertex 56.9599 -31.314 18
      vertex 72.2953 -39.7447 18
      vertex 60.4355 -23.9281 18
    endloop
  endfacet
  facet normal 0 0 1
    outer loop
      vertex 72.2953 -39.7447 18
      vertex 56.9599 -31.314 18
      vertex 66.7439 -48.4923 18
    endloop
  endfacet
  facet normal -0 0 1
    outer loop
      vertex 52.5861 -38.206 18
      vertex 66.7439 -48.4923 18
      vertex 56.9599 -31.314 18
    endloop
  endfacet
  facet normal 0 0 1
    outer loop
      vertex 66.7439 -48.4923 18
      vertex 52.5861 -38.206 18
      vertex 60.1399 -56.4751 18
    endloop
  endfacet
  facet normal -0 0 1
    outer loop
      vertex 47.383 -44.4956 18
      vertex 60.1399 -56.4751 18
      vertex 52.5861 -38.206 18
    endloop
  endfacet
  facet normal 0 0 1
    outer loop
      vertex 60.1399 -56.4751 18
      vertex 47.383 -44.4956 18
      vertex 52.5875 -63.5673 18
    endloop
  endfacet
  facet normal -0 0 1
    outer loop
      vertex 41.4326 -50.0834 18
      vertex 52.5875 -63.5673 18
      vertex 47.383 -44.4956 18
    endloop
  endfacet
  facet normal 0 0 1
    outer loop
      vertex 52.5875 -63.5673 18
      vertex 41.4326 -50.0834 18
      vertex 44.2057 -69.6571 18
    endloop
  endfacet
  facet normal -0 0 1
    outer loop
      vertex 34.8287 -54.8813 18
      vertex 44.2057 -69.6571 18
      vertex 41.4326 -50.0834 18
    endloop
  endfacet
  facet normal 0 0 1
    outer loop
      vertex 44.2057 -69.6571 18
      vertex 34.8287 -54.8813 18
      vertex 35.1268 -74.6482 18
    endloop
  endfacet
  facet normal -0 0 1
    outer loop
      vertex 27.6757 -58.8138 18
      vertex 35.1268 -74.6482 18
      vertex 34.8287 -54.8813 18
    endloop
  endfacet
  facet normal 0 0 1
    outer loop
      vertex 27.6757 -58.8138 18
      vertex 25.4939 -78.4622 18
      vertex 35.1268 -74.6482 18
    endloop
  endfacet
  facet normal -0 0 1
    outer loop
      vertex 20.0861 -61.8187 18
      vertex 25.4939 -78.4622 18
      vertex 27.6757 -58.8138 18
    endloop
  endfacet
  facet normal 0 0 1
    outer loop
      vertex 20.0861 -61.8187 18
      vertex 15.459 -81.0387 18
      vertex 25.4939 -78.4622 18
    endloop
  endfacet
  facet normal -0 0 1
    outer loop
      vertex 12.1798 -63.8487 18
      vertex 15.459 -81.0387 18
      vertex 20.0861 -61.8187 18
    endloop
  endfacet
  facet normal 0 0 1
    outer loop
      vertex 12.1798 -63.8487 18
      vertex 5.18022 -82.3372 18
      vertex 15.459 -81.0387 18
    endloop
  endfacet
  facet normal -0 0 1
    outer loop
      vertex 4.08138 -64.8717 18
      vertex 5.18022 -82.3372 18
      vertex 12.1798 -63.8487 18
    endloop
  endfacet
  facet normal -0 0 1
    outer loop
      vertex -4.08138 -64.8717 18
      vertex 5.18022 -82.3372 18
      vertex 4.08138 -64.8717 18
    endloop
  endfacet
  facet normal 0 0 1
    outer loop
      vertex -4.08138 -64.8717 18
      vertex -5.18022 -82.3372 18
      vertex 5.18022 -82.3372 18
    endloop
  endfacet
  facet normal 0 0 1
    outer loop
      vertex -12.1798 -63.8487 18
      vertex -5.18022 -82.3372 18
      vertex -4.08138 -64.8717 18
    endloop
  endfacet
  facet normal 0 0 1
    outer loop
      vertex -12.1798 -63.8487 18
      vertex -15.459 -81.0387 18
      vertex -5.18022 -82.3372 18
    endloop
  endfacet
  facet normal 0 0 1
    outer loop
      vertex -20.0861 -61.8187 18
      vertex -15.459 -81.0387 18
      vertex -12.1798 -63.8487 18
    endloop
  endfacet
  facet normal 0 0 1
    outer loop
      vertex -20.0861 -61.8187 18
      vertex -25.4939 -78.4622 18
      vertex -15.459 -81.0387 18
    endloop
  endfacet
  facet normal 0 0 1
    outer loop
      vertex -27.6757 -58.8138 18
      vertex -25.4939 -78.4622 18
      vertex -20.0861 -61.8187 18
    endloop
  endfacet
  facet normal 0 0 1
    outer loop
      vertex -35.1268 -74.6482 18
      vertex -27.6757 -58.8138 18
      vertex -34.8287 -54.8813 18
    endloop
  endfacet
  facet normal 0 0 1
    outer loop
      vertex -27.6757 -58.8138 18
      vertex -35.1268 -74.6482 18
      vertex -25.4939 -78.4622 18
    endloop
  endfacet
  facet normal 0 0 1
    outer loop
      vertex -44.2057 -69.6571 18
      vertex -34.8287 -54.8813 18
      vertex -41.4326 -50.0834 18
    endloop
  endfacet
  facet normal 0 0 1
    outer loop
      vertex -34.8287 -54.8813 18
      vertex -44.2057 -69.6571 18
      vertex -35.1268 -74.6482 18
    endloop
  endfacet
  facet normal 0 0 1
    outer loop
      vertex -52.5875 -63.5673 18
      vertex -41.4326 -50.0834 18
      vertex -47.383 -44.4956 18
    endloop
  endfacet
  facet normal 0 0 1
    outer loop
      vertex -60.1399 -56.4751 18
      vertex -47.383 -44.4956 18
      vertex -52.5861 -38.206 18
    endloop
  endfacet
  facet normal 0 0 1
    outer loop
      vertex -41.4326 -50.0834 18
      vertex -52.5875 -63.5673 18
      vertex -44.2057 -69.6571 18
    endloop
  endfacet
  facet normal 0 0 1
    outer loop
      vertex -66.7439 -48.4923 18
      vertex -52.5861 -38.206 18
      vertex -56.9599 -31.314 18
    endloop
  endfacet
  facet normal 0 0 1
    outer loop
      vertex -47.383 -44.4956 18
      vertex -60.1399 -56.4751 18
      vertex -52.5875 -63.5673 18
    endloop
  endfacet
  facet normal 0 0 1
    outer loop
      vertex -72.2953 -39.7447 18
      vertex -56.9599 -31.314 18
      vertex -60.4355 -23.9281 18
    endloop
  endfacet
  facet normal 0 0 1
    outer loop
      vertex -76.7066 -30.3703 18
      vertex -60.4355 -23.9281 18
      vertex -62.9579 -16.1648 18
    endloop
  endfacet
  facet normal 0 0 1
    outer loop
      vertex -79.9081 -20.5169 18
      vertex -62.9579 -16.1648 18
      vertex -64.4875 -8.14666 18
    endloop
  endfacet
  facet normal 0 0 1
    outer loop
      vertex -52.5861 -38.206 18
      vertex -66.7439 -48.4923 18
      vertex -60.1399 -56.4751 18
    endloop
  endfacet
  facet normal 0 0 1
    outer loop
      vertex -81.8495 -10.34 18
      vertex -64.4875 -8.14666 18
      vertex -65 0 18
    endloop
  endfacet
  facet normal -0 0 1
    outer loop
      vertex -79.9081 20.5169 18
      vertex -62.9579 16.1648 18
      vertex -76.7066 30.3703 18
    endloop
  endfacet
  facet normal 0 0 1
    outer loop
      vertex -62.9579 16.1648 18
      vertex -79.9081 20.5169 18
      vertex -64.4875 8.14666 18
    endloop
  endfacet
  facet normal 0 0 1
    outer loop
      vertex -56.9599 -31.314 18
      vertex -72.2953 -39.7447 18
      vertex -66.7439 -48.4923 18
    endloop
  endfacet
  facet normal -0 0 1
    outer loop
      vertex -81.8495 10.34 18
      vertex -64.4875 8.14666 18
      vertex -79.9081 20.5169 18
    endloop
  endfacet
  facet normal 0 0 1
    outer loop
      vertex -60.4355 -23.9281 18
      vertex -76.7066 -30.3703 18
      vertex -72.2953 -39.7447 18
    endloop
  endfacet
  facet normal 0 0 1
    outer loop
      vertex -64.4875 8.14666 18
      vertex -81.8495 10.34 18
      vertex -65 0 18
    endloop
  endfacet
  facet normal 0 0 1
    outer loop
      vertex -62.9579 -16.1648 18
      vertex -79.9081 -20.5169 18
      vertex -76.7066 -30.3703 18
    endloop
  endfacet
  facet normal 0 0 1
    outer loop
      vertex -82.5 0 18
      vertex -65 0 18
      vertex -81.8495 10.34 18
    endloop
  endfacet
  facet normal 0 0 1
    outer loop
      vertex -64.4875 -8.14666 18
      vertex -81.8495 -10.34 18
      vertex -79.9081 -20.5169 18
    endloop
  endfacet
  facet normal 0 0 1
    outer loop
      vertex -65 0 18
      vertex -82.5 0 18
      vertex -81.8495 -10.34 18
    endloop
  endfacet
  facet normal -0.125332 0.992115 0
    outer loop
      vertex -5.18022 82.3372 0
      vertex -15.459 81.0387 18
      vertex -5.18022 82.3372 18
    endloop
  endfacet
  facet normal -0.125332 0.992115 0
    outer loop
      vertex -15.459 81.0387 18
      vertex -5.18022 82.3372 0
      vertex -15.459 81.0387 0
    endloop
  endfacet
  facet normal 0.998027 -0.0627869 1.4488e-18
    outer loop
      vertex 81.8495 -10.34 18
      vertex 82.5 0 0
      vertex 82.5 0 18
    endloop
  endfacet
  facet normal 0.998027 -0.0627869 1.4488e-18
    outer loop
      vertex 82.5 0 0
      vertex 81.8495 -10.34 18
      vertex 81.8495 -10.34 0
    endloop
  endfacet
  facet normal 0.982286 -0.187386 -6.46495e-18
    outer loop
      vertex 79.9081 -20.5169 18
      vertex 81.8495 -10.34 0
      vertex 81.8495 -10.34 18
    endloop
  endfacet
  facet normal 0.982286 -0.187386 -6.46495e-18
    outer loop
      vertex 81.8495 -10.34 0
      vertex 79.9081 -20.5169 18
      vertex 79.9081 -20.5169 0
    endloop
  endfacet
  facet normal -0.481749 -0.876309 0
    outer loop
      vertex -44.2057 -69.6571 0
      vertex -35.1268 -74.6482 18
      vertex -44.2057 -69.6571 18
    endloop
  endfacet
  facet normal -0.481749 -0.876309 -0
    outer loop
      vertex -35.1268 -74.6482 18
      vertex -44.2057 -69.6571 0
      vertex -35.1268 -74.6482 0
    endloop
  endfacet
  facet normal -0.844328 -0.535827 -9.30208e-19
    outer loop
      vertex -66.7439 -48.4923 0
      vertex -72.2953 -39.7447 18
      vertex -72.2953 -39.7447 0
    endloop
  endfacet
  facet normal -0.844328 -0.535827 -9.30208e-19
    outer loop
      vertex -72.2953 -39.7447 18
      vertex -66.7439 -48.4923 0
      vertex -66.7439 -48.4923 18
    endloop
  endfacet
  facet normal -0.904825 -0.425783 -1.89204e-17
    outer loop
      vertex -72.2953 -39.7447 0
      vertex -76.7066 -30.3703 18
      vertex -76.7066 -30.3703 0
    endloop
  endfacet
  facet normal -0.904825 -0.425783 -1.89204e-17
    outer loop
      vertex -76.7066 -30.3703 18
      vertex -72.2953 -39.7447 0
      vertex -72.2953 -39.7447 18
    endloop
  endfacet
  facet normal 0 0 -1
    outer loop
      vertex 65 0 0
      vertex 82.5 0 0
      vertex 81.8495 -10.34 0
    endloop
  endfacet
  facet normal 0 0 -1
    outer loop
      vertex 64.4875 -8.14666 0
      vertex 81.8495 -10.34 0
      vertex 79.9081 -20.5169 0
    endloop
  endfacet
  facet normal 0 0 -1
    outer loop
      vertex 82.5 0 0
      vertex 65 0 0
      vertex 81.8495 10.34 0
    endloop
  endfacet
  facet normal 0 0 -1
    outer loop
      vertex 62.9579 -16.1648 0
      vertex 79.9081 -20.5169 0
      vertex 76.7066 -30.3703 0
    endloop
  endfacet
  facet normal 0 0 -1
    outer loop
      vertex 64.4875 8.14666 0
      vertex 81.8495 10.34 0
      vertex 65 0 0
    endloop
  endfacet
  facet normal 0 0 -1
    outer loop
      vertex 60.4355 -23.9281 0
      vertex 76.7066 -30.3703 0
      vertex 72.2953 -39.7447 0
    endloop
  endfacet
  facet normal -0 0 -1
    outer loop
      vertex 81.8495 10.34 0
      vertex 64.4875 8.14666 0
      vertex 79.9081 20.5169 0
    endloop
  endfacet
  facet normal 0 0 -1
    outer loop
      vertex 56.9599 -31.314 0
      vertex 72.2953 -39.7447 0
      vertex 66.7439 -48.4923 0
    endloop
  endfacet
  facet normal 0 0 -1
    outer loop
      vertex 62.9579 16.1648 0
      vertex 79.9081 20.5169 0
      vertex 64.4875 8.14666 0
    endloop
  endfacet
  facet normal -0 0 -1
    outer loop
      vertex 79.9081 20.5169 0
      vertex 62.9579 16.1648 0
      vertex 76.7066 30.3703 0
    endloop
  endfacet
  facet normal 0 0 -1
    outer loop
      vertex 81.8495 -10.34 0
      vertex 64.4875 -8.14666 0
      vertex 65 0 0
    endloop
  endfacet
  facet normal 0 0 -1
    outer loop
      vertex 79.9081 -20.5169 0
      vertex 62.9579 -16.1648 0
      vertex 64.4875 -8.14666 0
    endloop
  endfacet
  facet normal 0 0 -1
    outer loop
      vertex 76.7066 -30.3703 0
      vertex 60.4355 -23.9281 0
      vertex 62.9579 -16.1648 0
    endloop
  endfacet
  facet normal 0 0 -1
    outer loop
      vertex 52.5861 -38.206 0
      vertex 66.7439 -48.4923 0
      vertex 60.1399 -56.4751 0
    endloop
  endfacet
  facet normal 0 0 -1
    outer loop
      vertex 72.2953 -39.7447 0
      vertex 56.9599 -31.314 0
      vertex 60.4355 -23.9281 0
    endloop
  endfacet
  facet normal 0 0 -1
    outer loop
      vertex 47.383 -44.4956 0
      vertex 60.1399 -56.4751 0
      vertex 52.5875 -63.5673 0
    endloop
  endfacet
  facet normal 0 0 -1
    outer loop
      vertex 66.7439 -48.4923 0
      vertex 52.5861 -38.206 0
      vertex 56.9599 -31.314 0
    endloop
  endfacet
  facet normal 0 0 -1
    outer loop
      vertex 60.1399 -56.4751 0
      vertex 47.383 -44.4956 0
      vertex 52.5861 -38.206 0
    endloop
  endfacet
  facet normal 0 0 -1
    outer loop
      vertex 41.4326 -50.0834 0
      vertex 52.5875 -63.5673 0
      vertex 44.2057 -69.6571 0
    endloop
  endfacet
  facet normal 0 0 -1
    outer loop
      vertex 52.5875 -63.5673 0
      vertex 41.4326 -50.0834 0
      vertex 47.383 -44.4956 0
    endloop
  endfacet
  facet normal 0 0 -1
    outer loop
      vertex 34.8287 -54.8813 0
      vertex 44.2057 -69.6571 0
      vertex 35.1268 -74.6482 0
    endloop
  endfacet
  facet normal 0 0 -1
    outer loop
      vertex 44.2057 -69.6571 0
      vertex 34.8287 -54.8813 0
      vertex 41.4326 -50.0834 0
    endloop
  endfacet
  facet normal 0 0 -1
    outer loop
      vertex 35.1268 -74.6482 0
      vertex 27.6757 -58.8138 0
      vertex 34.8287 -54.8813 0
    endloop
  endfacet
  facet normal 0 0 -1
    outer loop
      vertex 25.4939 -78.4622 0
      vertex 27.6757 -58.8138 0
      vertex 35.1268 -74.6482 0
    endloop
  endfacet
  facet normal 0 0 -1
    outer loop
      vertex 25.4939 -78.4622 0
      vertex 20.0861 -61.8187 0
      vertex 27.6757 -58.8138 0
    endloop
  endfacet
  facet normal 0 0 -1
    outer loop
      vertex 15.459 -81.0387 0
      vertex 20.0861 -61.8187 0
      vertex 25.4939 -78.4622 0
    endloop
  endfacet
  facet normal 0 0 -1
    outer loop
      vertex 15.459 -81.0387 0
      vertex 12.1798 -63.8487 0
      vertex 20.0861 -61.8187 0
    endloop
  endfacet
  facet normal 0 0 -1
    outer loop
      vertex 5.18022 -82.3372 0
      vertex 12.1798 -63.8487 0
      vertex 15.459 -81.0387 0
    endloop
  endfacet
  facet normal 0 0 -1
    outer loop
      vertex 5.18022 -82.3372 0
      vertex 4.08138 -64.8717 0
      vertex 12.1798 -63.8487 0
    endloop
  endfacet
  facet normal 0 0 -1
    outer loop
      vertex 5.18022 -82.3372 0
      vertex -4.08138 -64.8717 0
      vertex 4.08138 -64.8717 0
    endloop
  endfacet
  facet normal 0 0 -1
    outer loop
      vertex -5.18022 -82.3372 0
      vertex -4.08138 -64.8717 0
      vertex 5.18022 -82.3372 0
    endloop
  endfacet
  facet normal 0 0 -1
    outer loop
      vertex -5.18022 -82.3372 0
      vertex -12.1798 -63.8487 0
      vertex -4.08138 -64.8717 0
    endloop
  endfacet
  facet normal 0 0 -1
    outer loop
      vertex -15.459 -81.0387 0
      vertex -12.1798 -63.8487 0
      vertex -5.18022 -82.3372 0
    endloop
  endfacet
  facet normal 0 0 -1
    outer loop
      vertex -15.459 -81.0387 0
      vertex -20.0861 -61.8187 0
      vertex -12.1798 -63.8487 0
    endloop
  endfacet
  facet normal 0 0 -1
    outer loop
      vertex -25.4939 -78.4622 0
      vertex -20.0861 -61.8187 0
      vertex -15.459 -81.0387 0
    endloop
  endfacet
  facet normal 0 0 -1
    outer loop
      vertex -25.4939 -78.4622 0
      vertex -27.6757 -58.8138 0
      vertex -20.0861 -61.8187 0
    endloop
  endfacet
  facet normal 0 0 -1
    outer loop
      vertex -35.1268 -74.6482 0
      vertex -27.6757 -58.8138 0
      vertex -25.4939 -78.4622 0
    endloop
  endfacet
  facet normal -0 0 -1
    outer loop
      vertex -27.6757 -58.8138 0
      vertex -35.1268 -74.6482 0
      vertex -34.8287 -54.8813 0
    endloop
  endfacet
  facet normal 0 0 -1
    outer loop
      vertex -44.2057 -69.6571 0
      vertex -34.8287 -54.8813 0
      vertex -35.1268 -74.6482 0
    endloop
  endfacet
  facet normal -0 0 -1
    outer loop
      vertex -34.8287 -54.8813 0
      vertex -44.2057 -69.6571 0
      vertex -41.4326 -50.0834 0
    endloop
  endfacet
  facet normal 0 0 -1
    outer loop
      vertex -52.5875 -63.5673 0
      vertex -41.4326 -50.0834 0
      vertex -44.2057 -69.6571 0
    endloop
  endfacet
  facet normal -0 0 -1
    outer loop
      vertex -41.4326 -50.0834 0
      vertex -52.5875 -63.5673 0
      vertex -47.383 -44.4956 0
    endloop
  endfacet
  facet normal 0 0 -1
    outer loop
      vertex -60.1399 -56.4751 0
      vertex -47.383 -44.4956 0
      vertex -52.5875 -63.5673 0
    endloop
  endfacet
  facet normal -0 0 -1
    outer loop
      vertex -47.383 -44.4956 0
      vertex -60.1399 -56.4751 0
      vertex -52.5861 -38.206 0
    endloop
  endfacet
  facet normal 0 0 -1
    outer loop
      vertex -66.7439 -48.4923 0
      vertex -52.5861 -38.206 0
      vertex -60.1399 -56.4751 0
    endloop
  endfacet
  facet normal -0 0 -1
    outer loop
      vertex -52.5861 -38.206 0
      vertex -66.7439 -48.4923 0
      vertex -56.9599 -31.314 0
    endloop
  endfacet
  facet normal 0 0 -1
    outer loop
      vertex -72.2953 -39.7447 0
      vertex -56.9599 -31.314 0
      vertex -66.7439 -48.4923 0
    endloop
  endfacet
  facet normal -0 0 -1
    outer loop
      vertex -56.9599 -31.314 0
      vertex -72.2953 -39.7447 0
      vertex -60.4355 -23.9281 0
    endloop
  endfacet
  facet normal -0 0 -1
    outer loop
      vertex -60.4355 -23.9281 0
      vertex -76.7066 -30.3703 0
      vertex -62.9579 -16.1648 0
    endloop
  endfacet
  facet normal 0 0 -1
    outer loop
      vertex -76.7066 -30.3703 0
      vertex -60.4355 -23.9281 0
      vertex -72.2953 -39.7447 0
    endloop
  endfacet
  facet normal 0 0 -1
    outer loop
      vertex 60.4355 23.9281 0
      vertex 76.7066 30.3703 0
      vertex 62.9579 16.1648 0
    endloop
  endfacet
  facet normal -0 0 -1
    outer loop
      vertex 76.7066 30.3703 0
      vertex 60.4355 23.9281 0
      vertex 72.2953 39.7447 0
    endloop
  endfacet
  facet normal 0 0 -1
    outer loop
      vertex 56.9599 31.314 0
      vertex 72.2953 39.7447 0
      vertex 60.4355 23.9281 0
    endloop
  endfacet
  facet normal -0 0 -1
    outer loop
      vertex 72.2953 39.7447 0
      vertex 56.9599 31.314 0
      vertex 66.7439 48.4923 0
    endloop
  endfacet
  facet normal 0 0 -1
    outer loop
      vertex 52.5861 38.206 0
      vertex 66.7439 48.4923 0
      vertex 56.9599 31.314 0
    endloop
  endfacet
  facet normal -0 0 -1
    outer loop
      vertex 66.7439 48.4923 0
      vertex 52.5861 38.206 0
      vertex 60.1399 56.4751 0
    endloop
  endfacet
  facet normal 0 0 -1
    outer loop
      vertex 47.383 44.4956 0
      vertex 60.1399 56.4751 0
      vertex 52.5861 38.206 0
    endloop
  endfacet
  facet normal -0 0 -1
    outer loop
      vertex 60.1399 56.4751 0
      vertex 47.383 44.4956 0
      vertex 52.5875 63.5673 0
    endloop
  endfacet
  facet normal 0 0 -1
    outer loop
      vertex 41.4326 50.0834 0
      vertex 52.5875 63.5673 0
      vertex 47.383 44.4956 0
    endloop
  endfacet
  facet normal -0 0 -1
    outer loop
      vertex 52.5875 63.5673 0
      vertex 41.4326 50.0834 0
      vertex 44.2057 69.6571 0
    endloop
  endfacet
  facet normal 0 0 -1
    outer loop
      vertex 34.8287 54.8813 0
      vertex 44.2057 69.6571 0
      vertex 41.4326 50.0834 0
    endloop
  endfacet
  facet normal -0 0 -1
    outer loop
      vertex 44.2057 69.6571 0
      vertex 34.8287 54.8813 0
      vertex 35.1268 74.6482 0
    endloop
  endfacet
  facet normal 0 0 -1
    outer loop
      vertex 27.6757 58.8138 0
      vertex 35.1268 74.6482 0
      vertex 34.8287 54.8813 0
    endloop
  endfacet
  facet normal 0 0 -1
    outer loop
      vertex 27.6757 58.8138 0
      vertex 25.4939 78.4622 0
      vertex 35.1268 74.6482 0
    endloop
  endfacet
  facet normal 0 0 -1
    outer loop
      vertex 20.0861 61.8187 0
      vertex 25.4939 78.4622 0
      vertex 27.6757 58.8138 0
    endloop
  endfacet
  facet normal 0 0 -1
    outer loop
      vertex 20.0861 61.8187 0
      vertex 15.459 81.0387 0
      vertex 25.4939 78.4622 0
    endloop
  endfacet
  facet normal 0 0 -1
    outer loop
      vertex 12.1798 63.8487 0
      vertex 15.459 81.0387 0
      vertex 20.0861 61.8187 0
    endloop
  endfacet
  facet normal 0 0 -1
    outer loop
      vertex 12.1798 63.8487 0
      vertex 5.18022 82.3372 0
      vertex 15.459 81.0387 0
    endloop
  endfacet
  facet normal 0 0 -1
    outer loop
      vertex 4.08138 64.8717 0
      vertex 5.18022 82.3372 0
      vertex 12.1798 63.8487 0
    endloop
  endfacet
  facet normal 0 0 -1
    outer loop
      vertex -4.08138 64.8717 0
      vertex 5.18022 82.3372 0
      vertex 4.08138 64.8717 0
    endloop
  endfacet
  facet normal 0 0 -1
    outer loop
      vertex -4.08138 64.8717 0
      vertex -5.18022 82.3372 0
      vertex 5.18022 82.3372 0
    endloop
  endfacet
  facet normal 0 0 -1
    outer loop
      vertex -12.1798 63.8487 0
      vertex -5.18022 82.3372 0
      vertex -4.08138 64.8717 0
    endloop
  endfacet
  facet normal 0 0 -1
    outer loop
      vertex -12.1798 63.8487 0
      vertex -15.459 81.0387 0
      vertex -5.18022 82.3372 0
    endloop
  endfacet
  facet normal 0 0 -1
    outer loop
      vertex -20.0861 61.8187 0
      vertex -15.459 81.0387 0
      vertex -12.1798 63.8487 0
    endloop
  endfacet
  facet normal 0 0 -1
    outer loop
      vertex -20.0861 61.8187 0
      vertex -25.4939 78.4622 0
      vertex -15.459 81.0387 0
    endloop
  endfacet
  facet normal 0 0 -1
    outer loop
      vertex -27.6757 58.8138 0
      vertex -25.4939 78.4622 0
      vertex -20.0861 61.8187 0
    endloop
  endfacet
  facet normal 0 0 -1
    outer loop
      vertex -35.1268 74.6482 0
      vertex -27.6757 58.8138 0
      vertex -34.8287 54.8813 0
    endloop
  endfacet
  facet normal 0 0 -1
    outer loop
      vertex -27.6757 58.8138 0
      vertex -35.1268 74.6482 0
      vertex -25.4939 78.4622 0
    endloop
  endfacet
  facet normal 0 0 -1
    outer loop
      vertex -44.2057 69.6571 0
      vertex -34.8287 54.8813 0
      vertex -41.4326 50.0834 0
    endloop
  endfacet
  facet normal 0 0 -1
    outer loop
      vertex -34.8287 54.8813 0
      vertex -44.2057 69.6571 0
      vertex -35.1268 74.6482 0
    endloop
  endfacet
  facet normal 0 0 -1
    outer loop
      vertex -52.5875 63.5673 0
      vertex -41.4326 50.0834 0
      vertex -47.383 44.4956 0
    endloop
  endfacet
  facet normal 0 0 -1
    outer loop
      vertex -60.1399 56.4751 0
      vertex -47.383 44.4956 0
      vertex -52.5861 38.206 0
    endloop
  endfacet
  facet normal 0 0 -1
    outer loop
      vertex -41.4326 50.0834 0
      vertex -52.5875 63.5673 0
      vertex -44.2057 69.6571 0
    endloop
  endfacet
  facet normal 0 0 -1
    outer loop
      vertex -66.7439 48.4923 0
      vertex -52.5861 38.206 0
      vertex -56.9599 31.314 0
    endloop
  endfacet
  facet normal 0 0 -1
    outer loop
      vertex -47.383 44.4956 0
      vertex -60.1399 56.4751 0
      vertex -52.5875 63.5673 0
    endloop
  endfacet
  facet normal 0 0 -1
    outer loop
      vertex -72.2953 39.7447 0
      vertex -56.9599 31.314 0
      vertex -60.4355 23.9281 0
    endloop
  endfacet
  facet normal 0 0 -1
    outer loop
      vertex -76.7066 30.3703 0
      vertex -60.4355 23.9281 0
      vertex -62.9579 16.1648 0
    endloop
  endfacet
  facet normal 0 0 -1
    outer loop
      vertex -79.9081 20.5169 0
      vertex -62.9579 16.1648 0
      vertex -64.4875 8.14666 0
    endloop
  endfacet
  facet normal 0 0 -1
    outer loop
      vertex -52.5861 38.206 0
      vertex -66.7439 48.4923 0
      vertex -60.1399 56.4751 0
    endloop
  endfacet
  facet normal 0 0 -1
    outer loop
      vertex -81.8495 10.34 0
      vertex -64.4875 8.14666 0
      vertex -65 0 0
    endloop
  endfacet
  facet normal 0 0 -1
    outer loop
      vertex -79.9081 -20.5169 0
      vertex -62.9579 -16.1648 0
      vertex -76.7066 -30.3703 0
    endloop
  endfacet
  facet normal -0 0 -1
    outer loop
      vertex -62.9579 -16.1648 0
      vertex -79.9081 -20.5169 0
      vertex -64.4875 -8.14666 0
    endloop
  endfacet
  facet normal 0 0 -1
    outer loop
      vertex -56.9599 31.314 0
      vertex -72.2953 39.7447 0
      vertex -66.7439 48.4923 0
    endloop
  endfacet
  facet normal 0 0 -1
    outer loop
      vertex -81.8495 -10.34 0
      vertex -64.4875 -8.14666 0
      vertex -79.9081 -20.5169 0
    endloop
  endfacet
  facet normal 0 0 -1
    outer loop
      vertex -60.4355 23.9281 0
      vertex -76.7066 30.3703 0
      vertex -72.2953 39.7447 0
    endloop
  endfacet
  facet normal -0 0 -1
    outer loop
      vertex -64.4875 -8.14666 0
      vertex -81.8495 -10.34 0
      vertex -65 0 0
    endloop
  endfacet
  facet normal 0 0 -1
    outer loop
      vertex -62.9579 16.1648 0
      vertex -79.9081 20.5169 0
      vertex -76.7066 30.3703 0
    endloop
  endfacet
  facet normal 0 0 -1
    outer loop
      vertex -82.5 0 0
      vertex -65 0 0
      vertex -81.8495 -10.34 0
    endloop
  endfacet
  facet normal 0 0 -1
    outer loop
      vertex -64.4875 8.14666 0
      vertex -81.8495 10.34 0
      vertex -79.9081 20.5169 0
    endloop
  endfacet
  facet normal 0 0 -1
    outer loop
      vertex -65 0 0
      vertex -82.5 0 0
      vertex -81.8495 10.34 0
    endloop
  endfacet
  facet normal 0.481749 -0.876309 0
    outer loop
      vertex 35.1268 -74.6482 0
      vertex 44.2057 -69.6571 18
      vertex 35.1268 -74.6482 18
    endloop
  endfacet
  facet normal 0.481749 -0.876309 0
    outer loop
      vertex 44.2057 -69.6571 18
      vertex 35.1268 -74.6482 0
      vertex 44.2057 -69.6571 0
    endloop
  endfacet
  facet normal 0.36813 -0.929774 0
    outer loop
      vertex 25.4939 -78.4622 0
      vertex 35.1268 -74.6482 18
      vertex 25.4939 -78.4622 18
    endloop
  endfacet
  facet normal 0.36813 -0.929774 0
    outer loop
      vertex 35.1268 -74.6482 18
      vertex 25.4939 -78.4622 0
      vertex 35.1268 -74.6482 0
    endloop
  endfacet
  facet normal -0.770511 0.637427 1.7488e-18
    outer loop
      vertex -66.7439 48.4923 0
      vertex -60.1399 56.4751 18
      vertex -60.1399 56.4751 0
    endloop
  endfacet
  facet normal -0.770511 0.637427 1.7488e-18
    outer loop
      vertex -60.1399 56.4751 18
      vertex -66.7439 48.4923 0
      vertex -66.7439 48.4923 18
    endloop
  endfacet
  facet normal -0.587789 0.809014 0
    outer loop
      vertex -44.2057 69.6571 0
      vertex -52.5875 63.5673 18
      vertex -44.2057 69.6571 18
    endloop
  endfacet
  facet normal -0.587789 0.809014 0
    outer loop
      vertex -52.5875 63.5673 18
      vertex -44.2057 69.6571 0
      vertex -52.5875 63.5673 0
    endloop
  endfacet
  facet normal 0.904825 -0.425783 1.89204e-17
    outer loop
      vertex 72.2953 -39.7447 18
      vertex 76.7066 -30.3703 0
      vertex 76.7066 -30.3703 18
    endloop
  endfacet
  facet normal 0.904825 -0.425783 1.89204e-17
    outer loop
      vertex 76.7066 -30.3703 0
      vertex 72.2953 -39.7447 18
      vertex 72.2953 -39.7447 0
    endloop
  endfacet
  facet normal -0.587789 -0.809014 0
    outer loop
      vertex -52.5875 -63.5673 0
      vertex -44.2057 -69.6571 18
      vertex -52.5875 -63.5673 18
    endloop
  endfacet
  facet normal -0.587789 -0.809014 -0
    outer loop
      vertex -44.2057 -69.6571 18
      vertex -52.5875 -63.5673 0
      vertex -44.2057 -69.6571 0
    endloop
  endfacet
  facet normal -0.951058 -0.309011 -9.25554e-18
    outer loop
      vertex -76.7066 -30.3703 0
      vertex -79.9081 -20.5169 18
      vertex -79.9081 -20.5169 0
    endloop
  endfacet
  facet normal -0.951058 -0.309011 -9.25554e-18
    outer loop
      vertex -79.9081 -20.5169 18
      vertex -76.7066 -30.3703 0
      vertex -76.7066 -30.3703 18
    endloop
  endfacet
  facet normal 0.587789 -0.809014 0
    outer loop
      vertex 44.2057 -69.6571 0
      vertex 52.5875 -63.5673 18
      vertex 44.2057 -69.6571 18
    endloop
  endfacet
  facet normal 0.587789 -0.809014 0
    outer loop
      vertex 52.5875 -63.5673 18
      vertex 44.2057 -69.6571 0
      vertex 52.5875 -63.5673 0
    endloop
  endfacet
  facet normal 0.248688 -0.968584 0
    outer loop
      vertex 15.459 -81.0387 0
      vertex 25.4939 -78.4622 18
      vertex 15.459 -81.0387 18
    endloop
  endfacet
  facet normal 0.248688 -0.968584 0
    outer loop
      vertex 25.4939 -78.4622 18
      vertex 15.459 -81.0387 0
      vertex 25.4939 -78.4622 0
    endloop
  endfacet
  facet normal 0.844328 -0.535827 9.30208e-19
    outer loop
      vertex 66.7439 -48.4923 18
      vertex 72.2953 -39.7447 0
      vertex 72.2953 -39.7447 18
    endloop
  endfacet
  facet normal 0.844328 -0.535827 9.30208e-19
    outer loop
      vertex 72.2953 -39.7447 0
      vertex 66.7439 -48.4923 18
      vertex 66.7439 -48.4923 0
    endloop
  endfacet
  facet normal 0.770511 -0.637427 1.7488e-18
    outer loop
      vertex 60.1399 -56.4751 18
      vertex 66.7439 -48.4923 0
      vertex 66.7439 -48.4923 18
    endloop
  endfacet
  facet normal 0.770511 -0.637427 1.7488e-18
    outer loop
      vertex 66.7439 -48.4923 0
      vertex 60.1399 -56.4751 18
      vertex 60.1399 -56.4751 0
    endloop
  endfacet
  facet normal -0.125332 -0.992115 0
    outer loop
      vertex -15.459 -81.0387 0
      vertex -5.18022 -82.3372 18
      vertex -15.459 -81.0387 18
    endloop
  endfacet
  facet normal -0.125332 -0.992115 -0
    outer loop
      vertex -5.18022 -82.3372 18
      vertex -15.459 -81.0387 0
      vertex -5.18022 -82.3372 0
    endloop
  endfacet
  facet normal -0.684548 -0.728967 0
    outer loop
      vertex -60.1399 -56.4751 0
      vertex -52.5875 -63.5673 18
      vertex -60.1399 -56.4751 18
    endloop
  endfacet
  facet normal -0.684548 -0.728967 -0
    outer loop
      vertex -52.5875 -63.5673 18
      vertex -60.1399 -56.4751 0
      vertex -52.5875 -63.5673 0
    endloop
  endfacet
  facet normal -0.770511 -0.637427 -1.7488e-18
    outer loop
      vertex -60.1399 -56.4751 0
      vertex -66.7439 -48.4923 18
      vertex -66.7439 -48.4923 0
    endloop
  endfacet
  facet normal -0.770511 -0.637427 -1.7488e-18
    outer loop
      vertex -66.7439 -48.4923 18
      vertex -60.1399 -56.4751 0
      vertex -60.1399 -56.4751 18
    endloop
  endfacet
  facet normal -0.982286 -0.187386 6.46495e-18
    outer loop
      vertex -79.9081 -20.5169 0
      vertex -81.8495 -10.34 18
      vertex -81.8495 -10.34 0
    endloop
  endfacet
  facet normal -0.982286 -0.187386 6.46495e-18
    outer loop
      vertex -81.8495 -10.34 18
      vertex -79.9081 -20.5169 0
      vertex -79.9081 -20.5169 18
    endloop
  endfacet
  facet normal -0.998027 -0.0627869 -1.4488e-18
    outer loop
      vertex -81.8495 -10.34 0
      vertex -82.5 0 18
      vertex -82.5 0 0
    endloop
  endfacet
  facet normal -0.998027 -0.0627869 -1.4488e-18
    outer loop
      vertex -82.5 0 18
      vertex -81.8495 -10.34 0
      vertex -81.8495 -10.34 18
    endloop
  endfacet
  facet normal 0.684548 -0.728967 0
    outer loop
      vertex 52.5875 -63.5673 0
      vertex 60.1399 -56.4751 18
      vertex 52.5875 -63.5673 18
    endloop
  endfacet
  facet normal 0.684548 -0.728967 0
    outer loop
      vertex 60.1399 -56.4751 18
      vertex 52.5875 -63.5673 0
      vertex 60.1399 -56.4751 0
    endloop
  endfacet
  facet normal -0.248688 -0.968584 0
    outer loop
      vertex -25.4939 -78.4622 0
      vertex -15.459 -81.0387 18
      vertex -25.4939 -78.4622 18
    endloop
  endfacet
  facet normal -0.248688 -0.968584 -0
    outer loop
      vertex -15.459 -81.0387 18
      vertex -25.4939 -78.4622 0
      vertex -15.459 -81.0387 0
    endloop
  endfacet
  facet normal -0.36813 -0.929774 0
    outer loop
      vertex -35.1268 -74.6482 0
      vertex -25.4939 -78.4622 18
      vertex -35.1268 -74.6482 18
    endloop
  endfacet
  facet normal -0.36813 -0.929774 -0
    outer loop
      vertex -25.4939 -78.4622 18
      vertex -35.1268 -74.6482 0
      vertex -25.4939 -78.4622 0
    endloop
  endfacet
  facet normal -0.998027 -0.0627851 -1.69718e-18
    outer loop
      vertex 65 0 0
      vertex 64.4875 8.14666 18
      vertex 64.4875 8.14666 0
    endloop
  endfacet
  facet normal -0.998027 -0.0627851 -1.69718e-18
    outer loop
      vertex 64.4875 8.14666 18
      vertex 65 0 0
      vertex 65 0 18
    endloop
  endfacet
  facet normal 0.998027 -0.0627851 1.69718e-18
    outer loop
      vertex -65 0 18
      vertex -64.4875 8.14666 0
      vertex -64.4875 8.14666 18
    endloop
  endfacet
  facet normal 0.998027 -0.0627851 1.69718e-18
    outer loop
      vertex -64.4875 8.14666 0
      vertex -65 0 18
      vertex -65 0 0
    endloop
  endfacet
  facet normal 0 -1 0
    outer loop
      vertex -4.08138 64.8717 0
      vertex 4.08138 64.8717 18
      vertex -4.08138 64.8717 18
    endloop
  endfacet
  facet normal 0 -1 -0
    outer loop
      vertex 4.08138 64.8717 18
      vertex -4.08138 64.8717 0
      vertex 4.08138 64.8717 0
    endloop
  endfacet
  facet normal -0.684547 -0.728968 0
    outer loop
      vertex 41.4326 50.0834 0
      vertex 47.383 44.4956 18
      vertex 41.4326 50.0834 18
    endloop
  endfacet
  facet normal -0.684547 -0.728968 -0
    outer loop
      vertex 47.383 44.4956 18
      vertex 41.4326 50.0834 0
      vertex 47.383 44.4956 0
    endloop
  endfacet
  facet normal 0.684547 -0.728968 0
    outer loop
      vertex -47.383 44.4956 0
      vertex -41.4326 50.0834 18
      vertex -47.383 44.4956 18
    endloop
  endfacet
  facet normal 0.684547 -0.728968 0
    outer loop
      vertex -41.4326 50.0834 18
      vertex -47.383 44.4956 0
      vertex -41.4326 50.0834 0
    endloop
  endfacet
  facet normal 0.368121 -0.929778 0
    outer loop
      vertex -27.6757 58.8138 0
      vertex -20.0861 61.8187 18
      vertex -27.6757 58.8138 18
    endloop
  endfacet
  facet normal 0.368121 -0.929778 0
    outer loop
      vertex -20.0861 61.8187 18
      vertex -27.6757 58.8138 0
      vertex -20.0861 61.8187 0
    endloop
  endfacet
  facet normal -0.904824 -0.425785 -1.11807e-17
    outer loop
      vertex 60.4355 23.9281 0
      vertex 56.9599 31.314 18
      vertex 56.9599 31.314 0
    endloop
  endfacet
  facet normal -0.904824 -0.425785 -1.11807e-17
    outer loop
      vertex 56.9599 31.314 18
      vertex 60.4355 23.9281 0
      vertex 60.4355 23.9281 18
    endloop
  endfacet
  facet normal -0.844328 -0.535827 -1.013e-17
    outer loop
      vertex 56.9599 31.314 0
      vertex 52.5861 38.206 18
      vertex 52.5861 38.206 0
    endloop
  endfacet
  facet normal -0.844328 -0.535827 -1.013e-17
    outer loop
      vertex 52.5861 38.206 18
      vertex 56.9599 31.314 0
      vertex 56.9599 31.314 18
    endloop
  endfacet
  facet normal -0.368121 -0.929778 0
    outer loop
      vertex 20.0861 61.8187 0
      vertex 27.6757 58.8138 18
      vertex 20.0861 61.8187 18
    endloop
  endfacet
  facet normal -0.368121 -0.929778 -0
    outer loop
      vertex 27.6757 58.8138 18
      vertex 20.0861 61.8187 0
      vertex 27.6757 58.8138 0
    endloop
  endfacet
  facet normal -0.248691 -0.968583 0
    outer loop
      vertex 12.1798 63.8487 0
      vertex 20.0861 61.8187 18
      vertex 12.1798 63.8487 18
    endloop
  endfacet
  facet normal -0.248691 -0.968583 -0
    outer loop
      vertex 20.0861 61.8187 18
      vertex 12.1798 63.8487 0
      vertex 20.0861 61.8187 0
    endloop
  endfacet
  facet normal -0.587776 -0.809024 0
    outer loop
      vertex 34.8287 54.8813 0
      vertex 41.4326 50.0834 18
      vertex 34.8287 54.8813 18
    endloop
  endfacet
  facet normal -0.587776 -0.809024 -0
    outer loop
      vertex 41.4326 50.0834 18
      vertex 34.8287 54.8813 0
      vertex 41.4326 50.0834 0
    endloop
  endfacet
  facet normal 0.844328 -0.535827 1.013e-17
    outer loop
      vertex -56.9599 31.314 18
      vertex -52.5861 38.206 0
      vertex -52.5861 38.206 18
    endloop
  endfacet
  facet normal 0.844328 -0.535827 1.013e-17
    outer loop
      vertex -52.5861 38.206 0
      vertex -56.9599 31.314 18
      vertex -56.9599 31.314 0
    endloop
  endfacet
  facet normal 0.77052 -0.637416 -2.15349e-17
    outer loop
      vertex -52.5861 38.206 18
      vertex -47.383 44.4956 0
      vertex -47.383 44.4956 18
    endloop
  endfacet
  facet normal 0.77052 -0.637416 -2.15349e-17
    outer loop
      vertex -47.383 44.4956 0
      vertex -52.5861 38.206 18
      vertex -52.5861 38.206 0
    endloop
  endfacet
  facet normal 0.982286 -0.187388 2.61515e-18
    outer loop
      vertex -64.4875 8.14666 18
      vertex -62.9579 16.1648 0
      vertex -62.9579 16.1648 18
    endloop
  endfacet
  facet normal 0.982286 -0.187388 2.61515e-18
    outer loop
      vertex -62.9579 16.1648 0
      vertex -64.4875 8.14666 18
      vertex -64.4875 8.14666 0
    endloop
  endfacet
  facet normal 0.587776 -0.809024 0
    outer loop
      vertex -41.4326 50.0834 0
      vertex -34.8287 54.8813 18
      vertex -41.4326 50.0834 18
    endloop
  endfacet
  facet normal 0.587776 -0.809024 0
    outer loop
      vertex -34.8287 54.8813 18
      vertex -41.4326 50.0834 0
      vertex -34.8287 54.8813 0
    endloop
  endfacet
  facet normal 0.125325 -0.992116 0
    outer loop
      vertex -12.1798 63.8487 0
      vertex -4.08138 64.8717 18
      vertex -12.1798 63.8487 18
    endloop
  endfacet
  facet normal 0.125325 -0.992116 0
    outer loop
      vertex -4.08138 64.8717 18
      vertex -12.1798 63.8487 0
      vertex -4.08138 64.8717 0
    endloop
  endfacet
  facet normal -0.998027 0.0627851 1.69718e-18
    outer loop
      vertex 64.4875 -8.14666 0
      vertex 65 0 18
      vertex 65 0 0
    endloop
  endfacet
  facet normal -0.998027 0.0627851 1.69718e-18
    outer loop
      vertex 65 0 18
      vertex 64.4875 -8.14666 0
      vertex 64.4875 -8.14666 18
    endloop
  endfacet
  facet normal 0.248691 0.968583 -0
    outer loop
      vertex -12.1798 -63.8487 0
      vertex -20.0861 -61.8187 18
      vertex -12.1798 -63.8487 18
    endloop
  endfacet
  facet normal 0.248691 0.968583 0
    outer loop
      vertex -20.0861 -61.8187 18
      vertex -12.1798 -63.8487 0
      vertex -20.0861 -61.8187 0
    endloop
  endfacet
  facet normal -0.125325 0.992116 0
    outer loop
      vertex 12.1798 -63.8487 0
      vertex 4.08138 -64.8717 18
      vertex 12.1798 -63.8487 18
    endloop
  endfacet
  facet normal -0.125325 0.992116 0
    outer loop
      vertex 4.08138 -64.8717 18
      vertex 12.1798 -63.8487 0
      vertex 4.08138 -64.8717 0
    endloop
  endfacet
  facet normal -0.951058 -0.309012 -8.17005e-18
    outer loop
      vertex 62.9579 16.1648 0
      vertex 60.4355 23.9281 18
      vertex 60.4355 23.9281 0
    endloop
  endfacet
  facet normal -0.951058 -0.309012 -8.17005e-18
    outer loop
      vertex 60.4355 23.9281 18
      vertex 62.9579 16.1648 0
      vertex 62.9579 16.1648 18
    endloop
  endfacet
  facet normal -0.982286 -0.187388 -2.61515e-18
    outer loop
      vertex 64.4875 8.14666 0
      vertex 62.9579 16.1648 18
      vertex 62.9579 16.1648 0
    endloop
  endfacet
  facet normal -0.982286 -0.187388 -2.61515e-18
    outer loop
      vertex 62.9579 16.1648 18
      vertex 64.4875 8.14666 0
      vertex 64.4875 8.14666 18
    endloop
  endfacet
  facet normal -0.77052 -0.637416 2.15349e-17
    outer loop
      vertex 52.5861 38.206 0
      vertex 47.383 44.4956 18
      vertex 47.383 44.4956 0
    endloop
  endfacet
  facet normal -0.77052 -0.637416 2.15349e-17
    outer loop
      vertex 47.383 44.4956 18
      vertex 52.5861 38.206 0
      vertex 52.5861 38.206 18
    endloop
  endfacet
  facet normal -0.125325 -0.992116 0
    outer loop
      vertex 4.08138 64.8717 0
      vertex 12.1798 63.8487 18
      vertex 4.08138 64.8717 18
    endloop
  endfacet
  facet normal -0.125325 -0.992116 -0
    outer loop
      vertex 12.1798 63.8487 18
      vertex 4.08138 64.8717 0
      vertex 12.1798 63.8487 0
    endloop
  endfacet
  facet normal -0.481764 -0.876301 0
    outer loop
      vertex 27.6757 58.8138 0
      vertex 34.8287 54.8813 18
      vertex 27.6757 58.8138 18
    endloop
  endfacet
  facet normal -0.481764 -0.876301 -0
    outer loop
      vertex 34.8287 54.8813 18
      vertex 27.6757 58.8138 0
      vertex 34.8287 54.8813 0
    endloop
  endfacet
  facet normal 0.904824 -0.425785 1.11807e-17
    outer loop
      vertex -60.4355 23.9281 18
      vertex -56.9599 31.314 0
      vertex -56.9599 31.314 18
    endloop
  endfacet
  facet normal 0.904824 -0.425785 1.11807e-17
    outer loop
      vertex -56.9599 31.314 0
      vertex -60.4355 23.9281 18
      vertex -60.4355 23.9281 0
    endloop
  endfacet
  facet normal 0.951058 -0.309012 8.17005e-18
    outer loop
      vertex -62.9579 16.1648 18
      vertex -60.4355 23.9281 0
      vertex -60.4355 23.9281 18
    endloop
  endfacet
  facet normal 0.951058 -0.309012 8.17005e-18
    outer loop
      vertex -60.4355 23.9281 0
      vertex -62.9579 16.1648 18
      vertex -62.9579 16.1648 0
    endloop
  endfacet
  facet normal 0.481764 -0.876301 0
    outer loop
      vertex -34.8287 54.8813 0
      vertex -27.6757 58.8138 18
      vertex -34.8287 54.8813 18
    endloop
  endfacet
  facet normal 0.481764 -0.876301 0
    outer loop
      vertex -27.6757 58.8138 18
      vertex -34.8287 54.8813 0
      vertex -27.6757 58.8138 0
    endloop
  endfacet
  facet normal 0.248691 -0.968583 0
    outer loop
      vertex -20.0861 61.8187 0
      vertex -12.1798 63.8487 18
      vertex -20.0861 61.8187 18
    endloop
  endfacet
  facet normal 0.248691 -0.968583 0
    outer loop
      vertex -12.1798 63.8487 18
      vertex -20.0861 61.8187 0
      vertex -12.1798 63.8487 0
    endloop
  endfacet
  facet normal -0.951058 0.309012 8.17005e-18
    outer loop
      vertex 60.4355 -23.9281 0
      vertex 62.9579 -16.1648 18
      vertex 62.9579 -16.1648 0
    endloop
  endfacet
  facet normal -0.951058 0.309012 8.17005e-18
    outer loop
      vertex 62.9579 -16.1648 18
      vertex 60.4355 -23.9281 0
      vertex 60.4355 -23.9281 18
    endloop
  endfacet
  facet normal 0.125325 0.992116 -0
    outer loop
      vertex -4.08138 -64.8717 0
      vertex -12.1798 -63.8487 18
      vertex -4.08138 -64.8717 18
    endloop
  endfacet
  facet normal 0.125325 0.992116 0
    outer loop
      vertex -12.1798 -63.8487 18
      vertex -4.08138 -64.8717 0
      vertex -12.1798 -63.8487 0
    endloop
  endfacet
  facet normal 0.998027 0.0627851 -1.69718e-18
    outer loop
      vertex -64.4875 -8.14666 18
      vertex -65 0 0
      vertex -65 0 18
    endloop
  endfacet
  facet normal 0.998027 0.0627851 -1.69718e-18
    outer loop
      vertex -65 0 0
      vertex -64.4875 -8.14666 18
      vertex -64.4875 -8.14666 0
    endloop
  endfacet
  facet normal 0.951058 0.309012 -8.17005e-18
    outer loop
      vertex -60.4355 -23.9281 18
      vertex -62.9579 -16.1648 0
      vertex -62.9579 -16.1648 18
    endloop
  endfacet
  facet normal 0.951058 0.309012 -8.17005e-18
    outer loop
      vertex -62.9579 -16.1648 0
      vertex -60.4355 -23.9281 18
      vertex -60.4355 -23.9281 0
    endloop
  endfacet
  facet normal -0.368121 0.929778 0
    outer loop
      vertex 27.6757 -58.8138 0
      vertex 20.0861 -61.8187 18
      vertex 27.6757 -58.8138 18
    endloop
  endfacet
  facet normal -0.368121 0.929778 0
    outer loop
      vertex 20.0861 -61.8187 18
      vertex 27.6757 -58.8138 0
      vertex 20.0861 -61.8187 0
    endloop
  endfacet
  facet normal -0.248691 0.968583 0
    outer loop
      vertex 20.0861 -61.8187 0
      vertex 12.1798 -63.8487 18
      vertex 20.0861 -61.8187 18
    endloop
  endfacet
  facet normal -0.248691 0.968583 0
    outer loop
      vertex 12.1798 -63.8487 18
      vertex 20.0861 -61.8187 0
      vertex 12.1798 -63.8487 0
    endloop
  endfacet
  facet normal -0.684547 0.728968 0
    outer loop
      vertex 47.383 -44.4956 0
      vertex 41.4326 -50.0834 18
      vertex 47.383 -44.4956 18
    endloop
  endfacet
  facet normal -0.684547 0.728968 0
    outer loop
      vertex 41.4326 -50.0834 18
      vertex 47.383 -44.4956 0
      vertex 41.4326 -50.0834 0
    endloop
  endfacet
  facet normal -0.844328 0.535827 1.013e-17
    outer loop
      vertex 52.5861 -38.206 0
      vertex 56.9599 -31.314 18
      vertex 56.9599 -31.314 0
    endloop
  endfacet
  facet normal -0.844328 0.535827 1.013e-17
    outer loop
      vertex 56.9599 -31.314 18
      vertex 52.5861 -38.206 0
      vertex 52.5861 -38.206 18
    endloop
  endfacet
  facet normal 0.368121 0.929778 -0
    outer loop
      vertex -20.0861 -61.8187 0
      vertex -27.6757 -58.8138 18
      vertex -20.0861 -61.8187 18
    endloop
  endfacet
  facet normal 0.368121 0.929778 0
    outer loop
      vertex -27.6757 -58.8138 18
      vertex -20.0861 -61.8187 0
      vertex -27.6757 -58.8138 0
    endloop
  endfacet
  facet normal 0.77052 0.637416 2.15349e-17
    outer loop
      vertex -47.383 -44.4956 18
      vertex -52.5861 -38.206 0
      vertex -52.5861 -38.206 18
    endloop
  endfacet
  facet normal 0.77052 0.637416 2.15349e-17
    outer loop
      vertex -52.5861 -38.206 0
      vertex -47.383 -44.4956 18
      vertex -47.383 -44.4956 0
    endloop
  endfacet
  facet normal 0.982286 0.187388 -2.61515e-18
    outer loop
      vertex -62.9579 -16.1648 18
      vertex -64.4875 -8.14666 0
      vertex -64.4875 -8.14666 18
    endloop
  endfacet
  facet normal 0.982286 0.187388 -2.61515e-18
    outer loop
      vertex -64.4875 -8.14666 0
      vertex -62.9579 -16.1648 18
      vertex -62.9579 -16.1648 0
    endloop
  endfacet
  facet normal -0.982286 0.187388 2.61515e-18
    outer loop
      vertex 62.9579 -16.1648 0
      vertex 64.4875 -8.14666 18
      vertex 64.4875 -8.14666 0
    endloop
  endfacet
  facet normal -0.982286 0.187388 2.61515e-18
    outer loop
      vertex 64.4875 -8.14666 18
      vertex 62.9579 -16.1648 0
      vertex 62.9579 -16.1648 18
    endloop
  endfacet
  facet normal -0.481764 0.876301 0
    outer loop
      vertex 34.8287 -54.8813 0
      vertex 27.6757 -58.8138 18
      vertex 34.8287 -54.8813 18
    endloop
  endfacet
  facet normal -0.481764 0.876301 0
    outer loop
      vertex 27.6757 -58.8138 18
      vertex 34.8287 -54.8813 0
      vertex 27.6757 -58.8138 0
    endloop
  endfacet
  facet normal -0.904824 0.425785 1.11807e-17
    outer loop
      vertex 56.9599 -31.314 0
      vertex 60.4355 -23.9281 18
      vertex 60.4355 -23.9281 0
    endloop
  endfacet
  facet normal -0.904824 0.425785 1.11807e-17
    outer loop
      vertex 60.4355 -23.9281 18
      vertex 56.9599 -31.314 0
      vertex 56.9599 -31.314 18
    endloop
  endfacet
  facet normal 0 1 -0
    outer loop
      vertex 4.08138 -64.8717 0
      vertex -4.08138 -64.8717 18
      vertex 4.08138 -64.8717 18
    endloop
  endfacet
  facet normal 0 1 0
    outer loop
      vertex -4.08138 -64.8717 18
      vertex 4.08138 -64.8717 0
      vertex -4.08138 -64.8717 0
    endloop
  endfacet
  facet normal 0.587776 0.809024 -0
    outer loop
      vertex -34.8287 -54.8813 0
      vertex -41.4326 -50.0834 18
      vertex -34.8287 -54.8813 18
    endloop
  endfacet
  facet normal 0.587776 0.809024 0
    outer loop
      vertex -41.4326 -50.0834 18
      vertex -34.8287 -54.8813 0
      vertex -41.4326 -50.0834 0
    endloop
  endfacet
  facet normal 0.684547 0.728968 -0
    outer loop
      vertex -41.4326 -50.0834 0
      vertex -47.383 -44.4956 18
      vertex -41.4326 -50.0834 18
    endloop
  endfacet
  facet normal 0.684547 0.728968 0
    outer loop
      vertex -47.383 -44.4956 18
      vertex -41.4326 -50.0834 0
      vertex -47.383 -44.4956 0
    endloop
  endfacet
  facet normal 0.904824 0.425785 -1.11807e-17
    outer loop
      vertex -56.9599 -31.314 18
      vertex -60.4355 -23.9281 0
      vertex -60.4355 -23.9281 18
    endloop
  endfacet
  facet normal 0.904824 0.425785 -1.11807e-17
    outer loop
      vertex -60.4355 -23.9281 0
      vertex -56.9599 -31.314 18
      vertex -56.9599 -31.314 0
    endloop
  endfacet
  facet normal -0.587776 0.809024 0
    outer loop
      vertex 41.4326 -50.0834 0
      vertex 34.8287 -54.8813 18
      vertex 41.4326 -50.0834 18
    endloop
  endfacet
  facet normal -0.587776 0.809024 0
    outer loop
      vertex 34.8287 -54.8813 18
      vertex 41.4326 -50.0834 0
      vertex 34.8287 -54.8813 0
    endloop
  endfacet
  facet normal -0.77052 0.637416 -2.15349e-17
    outer loop
      vertex 47.383 -44.4956 0
      vertex 52.5861 -38.206 18
      vertex 52.5861 -38.206 0
    endloop
  endfacet
  facet normal -0.77052 0.637416 -2.15349e-17
    outer loop
      vertex 52.5861 -38.206 18
      vertex 47.383 -44.4956 0
      vertex 47.383 -44.4956 18
    endloop
  endfacet
  facet normal 0.481764 0.876301 -0
    outer loop
      vertex -27.6757 -58.8138 0
      vertex -34.8287 -54.8813 18
      vertex -27.6757 -58.8138 18
    endloop
  endfacet
  facet normal 0.481764 0.876301 0
    outer loop
      vertex -34.8287 -54.8813 18
      vertex -27.6757 -58.8138 0
      vertex -34.8287 -54.8813 0
    endloop
  endfacet
  facet normal 0.844328 0.535827 -1.013e-17
    outer loop
      vertex -52.5861 -38.206 18
      vertex -56.9599 -31.314 0
      vertex -56.9599 -31.314 18
    endloop
  endfacet
  facet normal 0.844328 0.535827 -1.013e-17
    outer loop
      vertex -56.9599 -31.314 0
      vertex -52.5861 -38.206 18
      vertex -52.5861 -38.206 0
    endloop
  endfacet
endsolid OpenSCAD_Model
