<?xml version="1.0" standalone="no"?>
<!DOCTYPE svg PUBLIC "-//W3C//DTD SVG 1.1//EN" "http://www.w3.org/Graphics/SVG/1.1/DTD/svg11.dtd">
<svg width="136mm" height="336mm" viewBox="-68 -582 136 336" xmlns="http://www.w3.org/2000/svg" version="1.1">
<title>OpenSCAD Model</title>
<path d="
M 63.4369,-522.089 L 64.0451,-522.245 L 64.6289,-522.476 L 65.1791,-522.778 L 65.6871,-523.147 L 66.1448,-523.577
 L 66.5451,-524.061 L 66.8815,-524.591 L 67.1489,-525.159 L 67.3429,-525.757 L 67.4606,-526.373 L 67.5,-527
 L 67.5,-577 L 67.4606,-577.627 L 67.3429,-578.243 L 67.1489,-578.841 L 66.8815,-579.409 L 66.5451,-579.939
 L 66.1448,-580.423 L 65.6871,-580.853 L 65.1791,-581.222 L 64.6289,-581.524 L 64.0451,-581.755 L 63.4369,-581.911
 L 62.8139,-581.99 L -62.8139,-581.99 L -63.4369,-581.911 L -64.0451,-581.755 L -64.6289,-581.524 L -65.1791,-581.222
 L -65.6871,-580.853 L -66.1448,-580.423 L -66.5451,-579.939 L -66.8815,-579.409 L -67.1489,-578.841 L -67.3429,-578.243
 L -67.4606,-577.627 L -67.5,-577 L -67.5,-527 L -67.4606,-526.373 L -67.3429,-525.757 L -67.1489,-525.159
 L -66.8815,-524.591 L -66.5451,-524.061 L -66.1448,-523.577 L -65.6871,-523.147 L -65.1791,-522.778 L -64.6289,-522.476
 L -64.0451,-522.245 L -63.4369,-522.089 L -62.8139,-522.01 L 62.8139,-522.01 z
M -62.5482,-522.509 L -63.1401,-522.584 L -63.7178,-522.732 L -64.2724,-522.952 L -64.7952,-523.239 L -65.2778,-523.59
 L -65.7126,-523.998 L -66.0928,-524.458 L -66.4125,-524.962 L -66.6664,-525.501 L -66.8508,-526.069 L -66.9625,-526.655
 L -67,-527.25 L -67,-576.75 L -66.9625,-577.345 L -66.8508,-577.931 L -66.6664,-578.499 L -66.4125,-579.038
 L -66.0928,-579.542 L -65.7126,-580.002 L -65.2778,-580.41 L -64.7952,-580.761 L -64.2724,-581.048 L -63.7178,-581.268
 L -63.1401,-581.416 L -62.5482,-581.491 L 62.5482,-581.491 L 63.1401,-581.416 L 63.7178,-581.268 L 64.2724,-581.048
 L 64.7952,-580.761 L 65.2778,-580.41 L 65.7126,-580.002 L 66.0928,-579.542 L 66.4125,-579.038 L 66.6664,-578.499
 L 66.8508,-577.931 L 66.9625,-577.345 L 67,-576.75 L 67,-527.25 L 66.9625,-526.655 L 66.8508,-526.069
 L 66.6664,-525.501 L 66.4125,-524.962 L 66.0928,-524.458 L 65.7126,-523.998 L 65.2778,-523.59 L 64.7952,-523.239
 L 64.2724,-522.952 L 63.7178,-522.732 L 63.1401,-522.584 L 62.5482,-522.509 z
M 63.4369,-453.089 L 64.0451,-453.245 L 64.6289,-453.476 L 65.1791,-453.778 L 65.6871,-454.147 L 66.1448,-454.577
 L 66.5451,-455.061 L 66.8815,-455.591 L 67.1489,-456.159 L 67.3429,-456.757 L 67.4606,-457.373 L 67.5,-458
 L 67.5,-508 L 67.4606,-508.627 L 67.3429,-509.243 L 67.1489,-509.841 L 66.8815,-510.409 L 66.5451,-510.939
 L 66.1448,-511.423 L 65.6871,-511.853 L 65.1791,-512.222 L 64.6289,-512.524 L 64.0451,-512.755 L 63.4369,-512.911
 L 62.8139,-512.99 L -62.8139,-512.99 L -63.4369,-512.911 L -64.0451,-512.755 L -64.6289,-512.524 L -65.1791,-512.222
 L -65.6871,-511.853 L -66.1448,-511.423 L -66.5451,-510.939 L -66.8815,-510.409 L -67.1489,-509.841 L -67.3429,-509.243
 L -67.4606,-508.627 L -67.5,-508 L -67.5,-458 L -67.4606,-457.373 L -67.3429,-456.757 L -67.1489,-456.159
 L -66.8815,-455.591 L -66.5451,-455.061 L -66.1448,-454.577 L -65.6871,-454.147 L -65.1791,-453.778 L -64.6289,-453.476
 L -64.0451,-453.245 L -63.4369,-453.089 L -62.8139,-453.01 L 62.8139,-453.01 z
M -62.5482,-453.509 L -63.1401,-453.584 L -63.7178,-453.732 L -64.2724,-453.952 L -64.7952,-454.239 L -65.2778,-454.59
 L -65.7126,-454.998 L -66.0928,-455.458 L -66.4125,-455.962 L -66.6664,-456.501 L -66.8508,-457.069 L -66.9625,-457.655
 L -67,-458.25 L -67,-507.75 L -66.9625,-508.345 L -66.8508,-508.931 L -66.6664,-509.499 L -66.4125,-510.038
 L -66.0928,-510.542 L -65.7126,-511.002 L -65.2778,-511.41 L -64.7952,-511.761 L -64.2724,-512.048 L -63.7178,-512.268
 L -63.1401,-512.416 L -62.5482,-512.491 L 62.5482,-512.491 L 63.1401,-512.416 L 63.7178,-512.268 L 64.2724,-512.048
 L 64.7952,-511.761 L 65.2778,-511.41 L 65.7126,-511.002 L 66.0928,-510.542 L 66.4125,-510.038 L 66.6664,-509.499
 L 66.8508,-508.931 L 66.9625,-508.345 L 67,-507.75 L 67,-458.25 L 66.9625,-457.655 L 66.8508,-457.069
 L 66.6664,-456.501 L 66.4125,-455.962 L 66.0928,-455.458 L 65.7126,-454.998 L 65.2778,-454.59 L 64.7952,-454.239
 L 64.2724,-453.952 L 63.7178,-453.732 L 63.1401,-453.584 L 62.5482,-453.509 z
M 63.4369,-384.089 L 64.0451,-384.245 L 64.6289,-384.476 L 65.1791,-384.778 L 65.6871,-385.147 L 66.1448,-385.577
 L 66.5451,-386.061 L 66.8815,-386.591 L 67.1489,-387.159 L 67.3429,-387.757 L 67.4606,-388.373 L 67.5,-389
 L 67.5,-439 L 67.4606,-439.627 L 67.3429,-440.243 L 67.1489,-440.841 L 66.8815,-441.409 L 66.5451,-441.939
 L 66.1448,-442.423 L 65.6871,-442.853 L 65.1791,-443.222 L 64.6289,-443.524 L 64.0451,-443.755 L 63.4369,-443.911
 L 62.8139,-443.99 L -62.8139,-443.99 L -63.4369,-443.911 L -64.0451,-443.755 L -64.6289,-443.524 L -65.1791,-443.222
 L -65.6871,-442.853 L -66.1448,-442.423 L -66.5451,-441.939 L -66.8815,-441.409 L -67.1489,-440.841 L -67.3429,-440.243
 L -67.4606,-439.627 L -67.5,-439 L -67.5,-389 L -67.4606,-388.373 L -67.3429,-387.757 L -67.1489,-387.159
 L -66.8815,-386.591 L -66.5451,-386.061 L -66.1448,-385.577 L -65.6871,-385.147 L -65.1791,-384.778 L -64.6289,-384.476
 L -64.0451,-384.245 L -63.4369,-384.089 L -62.8139,-384.01 L 62.8139,-384.01 z
M -62.5482,-384.509 L -63.1401,-384.584 L -63.7178,-384.732 L -64.2724,-384.952 L -64.7952,-385.239 L -65.2778,-385.59
 L -65.7126,-385.998 L -66.0928,-386.458 L -66.4125,-386.962 L -66.6664,-387.501 L -66.8508,-388.069 L -66.9625,-388.655
 L -67,-389.25 L -67,-438.75 L -66.9625,-439.345 L -66.8508,-439.931 L -66.6664,-440.499 L -66.4125,-441.038
 L -66.0928,-441.542 L -65.7126,-442.002 L -65.2778,-442.41 L -64.7952,-442.761 L -64.2724,-443.048 L -63.7178,-443.268
 L -63.1401,-443.416 L -62.5482,-443.491 L 62.5482,-443.491 L 63.1401,-443.416 L 63.7178,-443.268 L 64.2724,-443.048
 L 64.7952,-442.761 L 65.2778,-442.41 L 65.7126,-442.002 L 66.0928,-441.542 L 66.4125,-441.038 L 66.6664,-440.499
 L 66.8508,-439.931 L 66.9625,-439.345 L 67,-438.75 L 67,-389.25 L 66.9625,-388.655 L 66.8508,-388.069
 L 66.6664,-387.501 L 66.4125,-386.962 L 66.0928,-386.458 L 65.7126,-385.998 L 65.2778,-385.59 L 64.7952,-385.239
 L 64.2724,-384.952 L 63.7178,-384.732 L 63.1401,-384.584 L 62.5482,-384.509 z
M 63.4369,-315.089 L 64.0451,-315.245 L 64.6289,-315.476 L 65.1791,-315.778 L 65.6871,-316.147 L 66.1448,-316.577
 L 66.5451,-317.061 L 66.8815,-317.591 L 67.1489,-318.159 L 67.3429,-318.757 L 67.4606,-319.373 L 67.5,-320
 L 67.5,-370 L 67.4606,-370.627 L 67.3429,-371.243 L 67.1489,-371.841 L 66.8815,-372.409 L 66.5451,-372.939
 L 66.1448,-373.423 L 65.6871,-373.853 L 65.1791,-374.222 L 64.6289,-374.524 L 64.0451,-374.755 L 63.4369,-374.911
 L 62.8139,-374.99 L -62.8139,-374.99 L -63.4369,-374.911 L -64.0451,-374.755 L -64.6289,-374.524 L -65.1791,-374.222
 L -65.6871,-373.853 L -66.1448,-373.423 L -66.5451,-372.939 L -66.8815,-372.409 L -67.1489,-371.841 L -67.3429,-371.243
 L -67.4606,-370.627 L -67.5,-370 L -67.5,-320 L -67.4606,-319.373 L -67.3429,-318.757 L -67.1489,-318.159
 L -66.8815,-317.591 L -66.5451,-317.061 L -66.1448,-316.577 L -65.6871,-316.147 L -65.1791,-315.778 L -64.6289,-315.476
 L -64.0451,-315.245 L -63.4369,-315.089 L -62.8139,-315.01 L 62.8139,-315.01 z
M -62.493,-316.388 L -62.9751,-316.449 L -63.4457,-316.57 L -63.8975,-316.749 L -64.3234,-316.983 L -64.7165,-317.269
 L -65.0707,-317.601 L -65.3805,-317.976 L -65.6408,-318.386 L -65.8477,-318.826 L -65.9979,-319.288 L -66.089,-319.765
 L -66.1195,-320.25 L -66.1195,-369.75 L -66.089,-370.235 L -65.9979,-370.712 L -65.8477,-371.174 L -65.6408,-371.614
 L -65.3805,-372.024 L -65.0707,-372.399 L -64.7165,-372.731 L -64.3234,-373.017 L -63.8975,-373.251 L -63.4457,-373.43
 L -62.9751,-373.551 L -62.493,-373.612 L 62.493,-373.612 L 62.9751,-373.551 L 63.4457,-373.43 L 63.8975,-373.251
 L 64.3234,-373.017 L 64.7165,-372.731 L 65.0707,-372.399 L 65.3805,-372.024 L 65.6408,-371.614 L 65.8477,-371.174
 L 65.9979,-370.712 L 66.089,-370.235 L 66.1195,-369.75 L 66.1195,-320.25 L 66.089,-319.765 L 65.9979,-319.288
 L 65.8477,-318.826 L 65.6408,-318.386 L 65.3805,-317.976 L 65.0707,-317.601 L 64.7165,-317.269 L 64.3234,-316.983
 L 63.8975,-316.749 L 63.4457,-316.57 L 62.9751,-316.449 L 62.493,-316.388 z
M 63.4369,-246.089 L 64.0451,-246.245 L 64.6289,-246.476 L 65.1791,-246.778 L 65.6871,-247.147 L 66.1448,-247.577
 L 66.5451,-248.061 L 66.8815,-248.591 L 67.1489,-249.159 L 67.3429,-249.757 L 67.4606,-250.373 L 67.5,-251
 L 67.5,-301 L 67.4606,-301.627 L 67.3429,-302.243 L 67.1489,-302.841 L 66.8815,-303.409 L 66.5451,-303.939
 L 66.1448,-304.423 L 65.6871,-304.853 L 65.1791,-305.222 L 64.6289,-305.524 L 64.0451,-305.755 L 63.4369,-305.911
 L 62.8139,-305.99 L -62.8139,-305.99 L -63.4369,-305.911 L -64.0451,-305.755 L -64.6289,-305.524 L -65.1791,-305.222
 L -65.6871,-304.853 L -66.1448,-304.423 L -66.5451,-303.939 L -66.8815,-303.409 L -67.1489,-302.841 L -67.3429,-302.243
 L -67.4606,-301.627 L -67.5,-301 L -67.5,-251 L -67.4606,-250.373 L -67.3429,-249.757 L -67.1489,-249.159
 L -66.8815,-248.591 L -66.5451,-248.061 L -66.1448,-247.577 L -65.6871,-247.147 L -65.1791,-246.778 L -64.6289,-246.476
 L -64.0451,-246.245 L -63.4369,-246.089 L -62.8139,-246.01 L 62.8139,-246.01 z
M 59.887,-296.704 L 59.6627,-296.732 L 59.4438,-296.788 L 59.2336,-296.871 L 59.0355,-296.98 L 58.8526,-297.113
 L 58.6879,-297.268 L 58.5438,-297.442 L 58.4226,-297.633 L 58.3264,-297.837 L 58.2565,-298.052 L 58.2142,-298.274
 L 58.2,-298.5 L 58.2142,-298.726 L 58.2565,-298.948 L 58.3264,-299.163 L 58.4226,-299.367 L 58.5438,-299.558
 L 58.6879,-299.732 L 58.8526,-299.887 L 59.0355,-300.02 L 59.2336,-300.129 L 59.4438,-300.212 L 59.6627,-300.268
 L 59.887,-300.296 L 60.113,-300.296 L 60.3373,-300.268 L 60.5562,-300.212 L 60.7664,-300.129 L 60.9645,-300.02
 L 61.1474,-299.887 L 61.3121,-299.732 L 61.4562,-299.558 L 61.5773,-299.367 L 61.6736,-299.163 L 61.7434,-298.948
 L 61.7858,-298.726 L 61.8,-298.5 L 61.7858,-298.274 L 61.7434,-298.052 L 61.6736,-297.837 L 61.5773,-297.633
 L 61.4562,-297.442 L 61.3121,-297.268 L 61.1474,-297.113 L 60.9645,-296.98 L 60.7664,-296.871 L 60.5562,-296.788
 L 60.3373,-296.732 L 60.113,-296.704 z
M -60.113,-296.704 L -60.3373,-296.732 L -60.5562,-296.788 L -60.7664,-296.871 L -60.9645,-296.98 L -61.1474,-297.113
 L -61.3121,-297.268 L -61.4562,-297.442 L -61.5773,-297.633 L -61.6736,-297.837 L -61.7434,-298.052 L -61.7858,-298.274
 L -61.8,-298.5 L -61.7858,-298.726 L -61.7434,-298.948 L -61.6736,-299.163 L -61.5773,-299.367 L -61.4562,-299.558
 L -61.3121,-299.732 L -61.1474,-299.887 L -60.9645,-300.02 L -60.7664,-300.129 L -60.5562,-300.212 L -60.3373,-300.268
 L -60.113,-300.296 L -59.887,-300.296 L -59.6627,-300.268 L -59.4438,-300.212 L -59.2336,-300.129 L -59.0355,-300.02
 L -58.8526,-299.887 L -58.6879,-299.732 L -58.5438,-299.558 L -58.4226,-299.367 L -58.3264,-299.163 L -58.2565,-298.948
 L -58.2142,-298.726 L -58.2,-298.5 L -58.2142,-298.274 L -58.2565,-298.052 L -58.3264,-297.837 L -58.4226,-297.633
 L -58.5438,-297.442 L -58.6879,-297.268 L -58.8526,-297.113 L -59.0355,-296.98 L -59.2336,-296.871 L -59.4438,-296.788
 L -59.6627,-296.732 L -59.887,-296.704 z
M 59.887,-251.704 L 59.6627,-251.732 L 59.4438,-251.788 L 59.2336,-251.871 L 59.0355,-251.98 L 58.8526,-252.113
 L 58.6879,-252.268 L 58.5438,-252.442 L 58.4226,-252.633 L 58.3264,-252.837 L 58.2565,-253.052 L 58.2142,-253.274
 L 58.2,-253.5 L 58.2142,-253.726 L 58.2565,-253.948 L 58.3264,-254.163 L 58.4226,-254.367 L 58.5438,-254.558
 L 58.6879,-254.732 L 58.8526,-254.887 L 59.0355,-255.02 L 59.2336,-255.129 L 59.4438,-255.212 L 59.6627,-255.268
 L 59.887,-255.296 L 60.113,-255.296 L 60.3373,-255.268 L 60.5562,-255.212 L 60.7664,-255.129 L 60.9645,-255.02
 L 61.1474,-254.887 L 61.3121,-254.732 L 61.4562,-254.558 L 61.5773,-254.367 L 61.6736,-254.163 L 61.7434,-253.948
 L 61.7858,-253.726 L 61.8,-253.5 L 61.7858,-253.274 L 61.7434,-253.052 L 61.6736,-252.837 L 61.5773,-252.633
 L 61.4562,-252.442 L 61.3121,-252.268 L 61.1474,-252.113 L 60.9645,-251.98 L 60.7664,-251.871 L 60.5562,-251.788
 L 60.3373,-251.732 L 60.113,-251.704 z
M -60.113,-251.704 L -60.3373,-251.732 L -60.5562,-251.788 L -60.7664,-251.871 L -60.9645,-251.98 L -61.1474,-252.113
 L -61.3121,-252.268 L -61.4562,-252.442 L -61.5773,-252.633 L -61.6736,-252.837 L -61.7434,-253.052 L -61.7858,-253.274
 L -61.8,-253.5 L -61.7858,-253.726 L -61.7434,-253.948 L -61.6736,-254.163 L -61.5773,-254.367 L -61.4562,-254.558
 L -61.3121,-254.732 L -61.1474,-254.887 L -60.9645,-255.02 L -60.7664,-255.129 L -60.5562,-255.212 L -60.3373,-255.268
 L -60.113,-255.296 L -59.887,-255.296 L -59.6627,-255.268 L -59.4438,-255.212 L -59.2336,-255.129 L -59.0355,-255.02
 L -58.8526,-254.887 L -58.6879,-254.732 L -58.5438,-254.558 L -58.4226,-254.367 L -58.3264,-254.163 L -58.2565,-253.948
 L -58.2142,-253.726 L -58.2,-253.5 L -58.2142,-253.274 L -58.2565,-253.052 L -58.3264,-252.837 L -58.4226,-252.633
 L -58.5438,-252.442 L -58.6879,-252.268 L -58.8526,-252.113 L -59.0355,-251.98 L -59.2336,-251.871 L -59.4438,-251.788
 L -59.6627,-251.732 L -59.887,-251.704 z
" stroke="black" fill="lightgray" stroke-width="0.5"/>
</svg>
