  0
SECTION
  2
BLOCKS
  0
ENDSEC
  0
SECTION
  2
ENTITIES
  0
LINE
  8
0
 10
-27
 20
52.1748
 11
-26.5451
 21
51.9947
  0
LINE
  8
0
 10
-26.5451
 20
51.9947
 11
-25.9369
 21
51.8386
  0
LINE
  8
0
 10
-25.9369
 20
51.8386
 11
-25.3139
 21
51.7599
  0
LINE
  8
0
 10
-25.3139
 20
51.7599
 11
25.3139
 21
51.7599
  0
LINE
  8
0
 10
25.3139
 20
51.7599
 11
25.9369
 21
51.8386
  0
LINE
  8
0
 10
25.9369
 20
51.8386
 11
26.5451
 21
51.9947
  0
LINE
  8
0
 10
26.5451
 20
51.9947
 11
27.1289
 21
52.2259
  0
LINE
  8
0
 10
27.1289
 20
52.2259
 11
27.6791
 21
52.5284
  0
LINE
  8
0
 10
27.6791
 20
52.5284
 11
28.1871
 21
52.8974
  0
LINE
  8
0
 10
28.1871
 20
52.8974
 11
28.6448
 21
53.3273
  0
LINE
  8
0
 10
28.6448
 20
53.3273
 11
29.0451
 21
53.8111
  0
LINE
  8
0
 10
29.0451
 20
53.8111
 11
29.3815
 21
54.3412
  0
LINE
  8
0
 10
29.3815
 20
54.3412
 11
29.6489
 21
54.9094
  0
LINE
  8
0
 10
29.6489
 20
54.9094
 11
29.8429
 21
55.5066
  0
LINE
  8
0
 10
29.8429
 20
55.5066
 11
29.9606
 21
56.1233
  0
LINE
  8
0
 10
29.9606
 20
56.1233
 11
30
 21
56.75
  0
LINE
  8
0
 10
30
 20
56.75
 11
30
 21
69.25
  0
LINE
  8
0
 10
30
 20
69.25
 11
29.9606
 21
69.8767
  0
LINE
  8
0
 10
29.9606
 20
69.8767
 11
29.8429
 21
70.4934
  0
LINE
  8
0
 10
29.8429
 20
70.4934
 11
29.6489
 21
71.0906
  0
LINE
  8
0
 10
29.6489
 20
71.0906
 11
29.3815
 21
71.6588
  0
LINE
  8
0
 10
29.3815
 20
71.6588
 11
29.0451
 21
72.1889
  0
LINE
  8
0
 10
29.0451
 20
72.1889
 11
28.6448
 21
72.6727
  0
LINE
  8
0
 10
28.6448
 20
72.6727
 11
28.1871
 21
73.1026
  0
LINE
  8
0
 10
28.1871
 20
73.1026
 11
27.6791
 21
73.4716
  0
LINE
  8
0
 10
27.6791
 20
73.4716
 11
27.1289
 21
73.7741
  0
LINE
  8
0
 10
27.1289
 20
73.7741
 11
26.5451
 21
74.0053
  0
LINE
  8
0
 10
26.5451
 20
74.0053
 11
25.9369
 21
74.1614
  0
LINE
  8
0
 10
25.9369
 20
74.1614
 11
25.3139
 21
74.2401
  0
LINE
  8
0
 10
25.3139
 20
74.2401
 11
-25.3139
 21
74.2401
  0
LINE
  8
0
 10
-25.3139
 20
74.2401
 11
-25.9369
 21
74.1614
  0
LINE
  8
0
 10
-25.9369
 20
74.1614
 11
-26.5451
 21
74.0053
  0
LINE
  8
0
 10
-26.5451
 20
74.0053
 11
-27
 21
73.8252
  0
LINE
  8
0
 10
-27
 20
73.8252
 11
-27
 21
74.2401
  0
LINE
  8
0
 10
-27
 20
74.2401
 11
-30
 21
74.2401
  0
LINE
  8
0
 10
-30
 20
74.2401
 11
-30
 21
51.7599
  0
LINE
  8
0
 10
-30
 20
51.7599
 11
-27
 21
51.7599
  0
LINE
  8
0
 10
-27
 20
51.7599
 11
-27
 21
52.1748
  0
LINE
  8
0
 10
-22.6507
 20
64.3547
 11
-22.9497
 21
64.3925
  0
LINE
  8
0
 10
-22.9497
 20
64.3925
 11
-23.2416
 21
64.4675
  0
LINE
  8
0
 10
-23.2416
 20
64.4675
 11
-23.5219
 21
64.5784
  0
LINE
  8
0
 10
-23.5219
 20
64.5784
 11
-23.786
 21
64.7236
  0
LINE
  8
0
 10
-23.786
 20
64.7236
 11
-24.0298
 21
64.9008
  0
LINE
  8
0
 10
-24.0298
 20
64.9008
 11
-24.2495
 21
65.1071
  0
LINE
  8
0
 10
-24.2495
 20
65.1071
 11
-24.4416
 21
65.3393
  0
LINE
  8
0
 10
-24.4416
 20
65.3393
 11
-24.6031
 21
65.5938
  0
LINE
  8
0
 10
-24.6031
 20
65.5938
 11
-24.7315
 21
65.8665
  0
LINE
  8
0
 10
-24.7315
 20
65.8665
 11
-24.8246
 21
66.1531
  0
LINE
  8
0
 10
-24.8246
 20
66.1531
 11
-24.8811
 21
66.4492
  0
LINE
  8
0
 10
-24.8811
 20
66.4492
 11
-24.9
 21
66.75
  0
LINE
  8
0
 10
-24.9
 20
66.75
 11
-24.8811
 21
67.0508
  0
LINE
  8
0
 10
-24.8811
 20
67.0508
 11
-24.8246
 21
67.3468
  0
LINE
  8
0
 10
-24.8246
 20
67.3468
 11
-24.7315
 21
67.6335
  0
LINE
  8
0
 10
-24.7315
 20
67.6335
 11
-24.6031
 21
67.9062
  0
LINE
  8
0
 10
-24.6031
 20
67.9062
 11
-24.4416
 21
68.1607
  0
LINE
  8
0
 10
-24.4416
 20
68.1607
 11
-24.2495
 21
68.3929
  0
LINE
  8
0
 10
-24.2495
 20
68.3929
 11
-24.0298
 21
68.5992
  0
LINE
  8
0
 10
-24.0298
 20
68.5992
 11
-23.786
 21
68.7764
  0
LINE
  8
0
 10
-23.786
 20
68.7764
 11
-23.5219
 21
68.9216
  0
LINE
  8
0
 10
-23.5219
 20
68.9216
 11
-23.2416
 21
69.0325
  0
LINE
  8
0
 10
-23.2416
 20
69.0325
 11
-22.9497
 21
69.1075
  0
LINE
  8
0
 10
-22.9497
 20
69.1075
 11
-22.6507
 21
69.1453
  0
LINE
  8
0
 10
-22.6507
 20
69.1453
 11
-22.3493
 21
69.1453
  0
LINE
  8
0
 10
-22.3493
 20
69.1453
 11
-22.0503
 21
69.1075
  0
LINE
  8
0
 10
-22.0503
 20
69.1075
 11
-21.7583
 21
69.0325
  0
LINE
  8
0
 10
-21.7583
 20
69.0325
 11
-21.4781
 21
68.9216
  0
LINE
  8
0
 10
-21.4781
 20
68.9216
 11
-21.214
 21
68.7764
  0
LINE
  8
0
 10
-21.214
 20
68.7764
 11
-20.9702
 21
68.5992
  0
LINE
  8
0
 10
-20.9702
 20
68.5992
 11
-20.7505
 21
68.3929
  0
LINE
  8
0
 10
-20.7505
 20
68.3929
 11
-20.5583
 21
68.1607
  0
LINE
  8
0
 10
-20.5583
 20
68.1607
 11
-20.3969
 21
67.9062
  0
LINE
  8
0
 10
-20.3969
 20
67.9062
 11
-20.2685
 21
67.6335
  0
LINE
  8
0
 10
-20.2685
 20
67.6335
 11
-20.1754
 21
67.3468
  0
LINE
  8
0
 10
-20.1754
 20
67.3468
 11
-20.1189
 21
67.0508
  0
LINE
  8
0
 10
-20.1189
 20
67.0508
 11
-20.1
 21
66.75
  0
LINE
  8
0
 10
-20.1
 20
66.75
 11
-20.1189
 21
66.4492
  0
LINE
  8
0
 10
-20.1189
 20
66.4492
 11
-20.1754
 21
66.1531
  0
LINE
  8
0
 10
-20.1754
 20
66.1531
 11
-20.2685
 21
65.8665
  0
LINE
  8
0
 10
-20.2685
 20
65.8665
 11
-20.3969
 21
65.5938
  0
LINE
  8
0
 10
-20.3969
 20
65.5938
 11
-20.5583
 21
65.3393
  0
LINE
  8
0
 10
-20.5583
 20
65.3393
 11
-20.7505
 21
65.1071
  0
LINE
  8
0
 10
-20.7505
 20
65.1071
 11
-20.9702
 21
64.9008
  0
LINE
  8
0
 10
-20.9702
 20
64.9008
 11
-21.214
 21
64.7236
  0
LINE
  8
0
 10
-21.214
 20
64.7236
 11
-21.4781
 21
64.5784
  0
LINE
  8
0
 10
-21.4781
 20
64.5784
 11
-21.7583
 21
64.4675
  0
LINE
  8
0
 10
-21.7583
 20
64.4675
 11
-22.0503
 21
64.3925
  0
LINE
  8
0
 10
-22.0503
 20
64.3925
 11
-22.3493
 21
64.3547
  0
LINE
  8
0
 10
-22.3493
 20
64.3547
 11
-22.6507
 21
64.3547
  0
LINE
  8
0
 10
22.3493
 20
64.3547
 11
22.0503
 21
64.3925
  0
LINE
  8
0
 10
22.0503
 20
64.3925
 11
21.7583
 21
64.4675
  0
LINE
  8
0
 10
21.7583
 20
64.4675
 11
21.4781
 21
64.5784
  0
LINE
  8
0
 10
21.4781
 20
64.5784
 11
21.214
 21
64.7236
  0
LINE
  8
0
 10
21.214
 20
64.7236
 11
20.9702
 21
64.9008
  0
LINE
  8
0
 10
20.9702
 20
64.9008
 11
20.7505
 21
65.1071
  0
LINE
  8
0
 10
20.7505
 20
65.1071
 11
20.5583
 21
65.3393
  0
LINE
  8
0
 10
20.5583
 20
65.3393
 11
20.3969
 21
65.5938
  0
LINE
  8
0
 10
20.3969
 20
65.5938
 11
20.2685
 21
65.8665
  0
LINE
  8
0
 10
20.2685
 20
65.8665
 11
20.1754
 21
66.1531
  0
LINE
  8
0
 10
20.1754
 20
66.1531
 11
20.1189
 21
66.4492
  0
LINE
  8
0
 10
20.1189
 20
66.4492
 11
20.1
 21
66.75
  0
LINE
  8
0
 10
20.1
 20
66.75
 11
20.1189
 21
67.0508
  0
LINE
  8
0
 10
20.1189
 20
67.0508
 11
20.1754
 21
67.3468
  0
LINE
  8
0
 10
20.1754
 20
67.3468
 11
20.2685
 21
67.6335
  0
LINE
  8
0
 10
20.2685
 20
67.6335
 11
20.3969
 21
67.9062
  0
LINE
  8
0
 10
20.3969
 20
67.9062
 11
20.5583
 21
68.1607
  0
LINE
  8
0
 10
20.5583
 20
68.1607
 11
20.7505
 21
68.3929
  0
LINE
  8
0
 10
20.7505
 20
68.3929
 11
20.9702
 21
68.5992
  0
LINE
  8
0
 10
20.9702
 20
68.5992
 11
21.214
 21
68.7764
  0
LINE
  8
0
 10
21.214
 20
68.7764
 11
21.4781
 21
68.9216
  0
LINE
  8
0
 10
21.4781
 20
68.9216
 11
21.7583
 21
69.0325
  0
LINE
  8
0
 10
21.7583
 20
69.0325
 11
22.0503
 21
69.1075
  0
LINE
  8
0
 10
22.0503
 20
69.1075
 11
22.3493
 21
69.1453
  0
LINE
  8
0
 10
22.3493
 20
69.1453
 11
22.6507
 21
69.1453
  0
LINE
  8
0
 10
22.6507
 20
69.1453
 11
22.9497
 21
69.1075
  0
LINE
  8
0
 10
22.9497
 20
69.1075
 11
23.2416
 21
69.0325
  0
LINE
  8
0
 10
23.2416
 20
69.0325
 11
23.5219
 21
68.9216
  0
LINE
  8
0
 10
23.5219
 20
68.9216
 11
23.786
 21
68.7764
  0
LINE
  8
0
 10
23.786
 20
68.7764
 11
24.0298
 21
68.5992
  0
LINE
  8
0
 10
24.0298
 20
68.5992
 11
24.2495
 21
68.3929
  0
LINE
  8
0
 10
24.2495
 20
68.3929
 11
24.4416
 21
68.1607
  0
LINE
  8
0
 10
24.4416
 20
68.1607
 11
24.6031
 21
67.9062
  0
LINE
  8
0
 10
24.6031
 20
67.9062
 11
24.7315
 21
67.6335
  0
LINE
  8
0
 10
24.7315
 20
67.6335
 11
24.8246
 21
67.3468
  0
LINE
  8
0
 10
24.8246
 20
67.3468
 11
24.8811
 21
67.0508
  0
LINE
  8
0
 10
24.8811
 20
67.0508
 11
24.9
 21
66.75
  0
LINE
  8
0
 10
24.9
 20
66.75
 11
24.8811
 21
66.4492
  0
LINE
  8
0
 10
24.8811
 20
66.4492
 11
24.8246
 21
66.1531
  0
LINE
  8
0
 10
24.8246
 20
66.1531
 11
24.7315
 21
65.8665
  0
LINE
  8
0
 10
24.7315
 20
65.8665
 11
24.6031
 21
65.5938
  0
LINE
  8
0
 10
24.6031
 20
65.5938
 11
24.4416
 21
65.3393
  0
LINE
  8
0
 10
24.4416
 20
65.3393
 11
24.2495
 21
65.1071
  0
LINE
  8
0
 10
24.2495
 20
65.1071
 11
24.0298
 21
64.9008
  0
LINE
  8
0
 10
24.0298
 20
64.9008
 11
23.786
 21
64.7236
  0
LINE
  8
0
 10
23.786
 20
64.7236
 11
23.5219
 21
64.5784
  0
LINE
  8
0
 10
23.5219
 20
64.5784
 11
23.2416
 21
64.4675
  0
LINE
  8
0
 10
23.2416
 20
64.4675
 11
22.9497
 21
64.3925
  0
LINE
  8
0
 10
22.9497
 20
64.3925
 11
22.6507
 21
64.3547
  0
LINE
  8
0
 10
22.6507
 20
64.3547
 11
22.3493
 21
64.3547
  0
LINE
  8
0
 10
22.3493
 20
56.8547
 11
22.0503
 21
56.8925
  0
LINE
  8
0
 10
22.0503
 20
56.8925
 11
21.7583
 21
56.9675
  0
LINE
  8
0
 10
21.7583
 20
56.9675
 11
21.4781
 21
57.0784
  0
LINE
  8
0
 10
21.4781
 20
57.0784
 11
21.214
 21
57.2236
  0
LINE
  8
0
 10
21.214
 20
57.2236
 11
20.9702
 21
57.4008
  0
LINE
  8
0
 10
20.9702
 20
57.4008
 11
20.7505
 21
57.6071
  0
LINE
  8
0
 10
20.7505
 20
57.6071
 11
20.5583
 21
57.8393
  0
LINE
  8
0
 10
20.5583
 20
57.8393
 11
20.3969
 21
58.0938
  0
LINE
  8
0
 10
20.3969
 20
58.0938
 11
20.2685
 21
58.3665
  0
LINE
  8
0
 10
20.2685
 20
58.3665
 11
20.1754
 21
58.6532
  0
LINE
  8
0
 10
20.1754
 20
58.6532
 11
20.1189
 21
58.9492
  0
LINE
  8
0
 10
20.1189
 20
58.9492
 11
20.1
 21
59.25
  0
LINE
  8
0
 10
20.1
 20
59.25
 11
20.1189
 21
59.5508
  0
LINE
  8
0
 10
20.1189
 20
59.5508
 11
20.1754
 21
59.8469
  0
LINE
  8
0
 10
20.1754
 20
59.8469
 11
20.2685
 21
60.1335
  0
LINE
  8
0
 10
20.2685
 20
60.1335
 11
20.3969
 21
60.4062
  0
LINE
  8
0
 10
20.3969
 20
60.4062
 11
20.5583
 21
60.6607
  0
LINE
  8
0
 10
20.5583
 20
60.6607
 11
20.7505
 21
60.8929
  0
LINE
  8
0
 10
20.7505
 20
60.8929
 11
20.9702
 21
61.0992
  0
LINE
  8
0
 10
20.9702
 20
61.0992
 11
21.214
 21
61.2764
  0
LINE
  8
0
 10
21.214
 20
61.2764
 11
21.4781
 21
61.4216
  0
LINE
  8
0
 10
21.4781
 20
61.4216
 11
21.7583
 21
61.5325
  0
LINE
  8
0
 10
21.7583
 20
61.5325
 11
22.0503
 21
61.6075
  0
LINE
  8
0
 10
22.0503
 20
61.6075
 11
22.3493
 21
61.6453
  0
LINE
  8
0
 10
22.3493
 20
61.6453
 11
22.6507
 21
61.6453
  0
LINE
  8
0
 10
22.6507
 20
61.6453
 11
22.9497
 21
61.6075
  0
LINE
  8
0
 10
22.9497
 20
61.6075
 11
23.2416
 21
61.5325
  0
LINE
  8
0
 10
23.2416
 20
61.5325
 11
23.5219
 21
61.4216
  0
LINE
  8
0
 10
23.5219
 20
61.4216
 11
23.786
 21
61.2764
  0
LINE
  8
0
 10
23.786
 20
61.2764
 11
24.0298
 21
61.0992
  0
LINE
  8
0
 10
24.0298
 20
61.0992
 11
24.2495
 21
60.8929
  0
LINE
  8
0
 10
24.2495
 20
60.8929
 11
24.4416
 21
60.6607
  0
LINE
  8
0
 10
24.4416
 20
60.6607
 11
24.6031
 21
60.4062
  0
LINE
  8
0
 10
24.6031
 20
60.4062
 11
24.7315
 21
60.1335
  0
LINE
  8
0
 10
24.7315
 20
60.1335
 11
24.8246
 21
59.8469
  0
LINE
  8
0
 10
24.8246
 20
59.8469
 11
24.8811
 21
59.5508
  0
LINE
  8
0
 10
24.8811
 20
59.5508
 11
24.9
 21
59.25
  0
LINE
  8
0
 10
24.9
 20
59.25
 11
24.8811
 21
58.9492
  0
LINE
  8
0
 10
24.8811
 20
58.9492
 11
24.8246
 21
58.6532
  0
LINE
  8
0
 10
24.8246
 20
58.6532
 11
24.7315
 21
58.3665
  0
LINE
  8
0
 10
24.7315
 20
58.3665
 11
24.6031
 21
58.0938
  0
LINE
  8
0
 10
24.6031
 20
58.0938
 11
24.4416
 21
57.8393
  0
LINE
  8
0
 10
24.4416
 20
57.8393
 11
24.2495
 21
57.6071
  0
LINE
  8
0
 10
24.2495
 20
57.6071
 11
24.0298
 21
57.4008
  0
LINE
  8
0
 10
24.0298
 20
57.4008
 11
23.786
 21
57.2236
  0
LINE
  8
0
 10
23.786
 20
57.2236
 11
23.5219
 21
57.0784
  0
LINE
  8
0
 10
23.5219
 20
57.0784
 11
23.2416
 21
56.9675
  0
LINE
  8
0
 10
23.2416
 20
56.9675
 11
22.9497
 21
56.8925
  0
LINE
  8
0
 10
22.9497
 20
56.8925
 11
22.6507
 21
56.8547
  0
LINE
  8
0
 10
22.6507
 20
56.8547
 11
22.3493
 21
56.8547
  0
LINE
  8
0
 10
-22.6507
 20
56.8547
 11
-22.9497
 21
56.8925
  0
LINE
  8
0
 10
-22.9497
 20
56.8925
 11
-23.2416
 21
56.9675
  0
LINE
  8
0
 10
-23.2416
 20
56.9675
 11
-23.5219
 21
57.0784
  0
LINE
  8
0
 10
-23.5219
 20
57.0784
 11
-23.786
 21
57.2236
  0
LINE
  8
0
 10
-23.786
 20
57.2236
 11
-24.0298
 21
57.4008
  0
LINE
  8
0
 10
-24.0298
 20
57.4008
 11
-24.2495
 21
57.6071
  0
LINE
  8
0
 10
-24.2495
 20
57.6071
 11
-24.4416
 21
57.8393
  0
LINE
  8
0
 10
-24.4416
 20
57.8393
 11
-24.6031
 21
58.0938
  0
LINE
  8
0
 10
-24.6031
 20
58.0938
 11
-24.7315
 21
58.3665
  0
LINE
  8
0
 10
-24.7315
 20
58.3665
 11
-24.8246
 21
58.6532
  0
LINE
  8
0
 10
-24.8246
 20
58.6532
 11
-24.8811
 21
58.9492
  0
LINE
  8
0
 10
-24.8811
 20
58.9492
 11
-24.9
 21
59.25
  0
LINE
  8
0
 10
-24.9
 20
59.25
 11
-24.8811
 21
59.5508
  0
LINE
  8
0
 10
-24.8811
 20
59.5508
 11
-24.8246
 21
59.8469
  0
LINE
  8
0
 10
-24.8246
 20
59.8469
 11
-24.7315
 21
60.1335
  0
LINE
  8
0
 10
-24.7315
 20
60.1335
 11
-24.6031
 21
60.4062
  0
LINE
  8
0
 10
-24.6031
 20
60.4062
 11
-24.4416
 21
60.6607
  0
LINE
  8
0
 10
-24.4416
 20
60.6607
 11
-24.2495
 21
60.8929
  0
LINE
  8
0
 10
-24.2495
 20
60.8929
 11
-24.0298
 21
61.0992
  0
LINE
  8
0
 10
-24.0298
 20
61.0992
 11
-23.786
 21
61.2764
  0
LINE
  8
0
 10
-23.786
 20
61.2764
 11
-23.5219
 21
61.4216
  0
LINE
  8
0
 10
-23.5219
 20
61.4216
 11
-23.2416
 21
61.5325
  0
LINE
  8
0
 10
-23.2416
 20
61.5325
 11
-22.9497
 21
61.6075
  0
LINE
  8
0
 10
-22.9497
 20
61.6075
 11
-22.6507
 21
61.6453
  0
LINE
  8
0
 10
-22.6507
 20
61.6453
 11
-22.3493
 21
61.6453
  0
LINE
  8
0
 10
-22.3493
 20
61.6453
 11
-22.0503
 21
61.6075
  0
LINE
  8
0
 10
-22.0503
 20
61.6075
 11
-21.7583
 21
61.5325
  0
LINE
  8
0
 10
-21.7583
 20
61.5325
 11
-21.4781
 21
61.4216
  0
LINE
  8
0
 10
-21.4781
 20
61.4216
 11
-21.214
 21
61.2764
  0
LINE
  8
0
 10
-21.214
 20
61.2764
 11
-20.9702
 21
61.0992
  0
LINE
  8
0
 10
-20.9702
 20
61.0992
 11
-20.7505
 21
60.8929
  0
LINE
  8
0
 10
-20.7505
 20
60.8929
 11
-20.5583
 21
60.6607
  0
LINE
  8
0
 10
-20.5583
 20
60.6607
 11
-20.3969
 21
60.4062
  0
LINE
  8
0
 10
-20.3969
 20
60.4062
 11
-20.2685
 21
60.1335
  0
LINE
  8
0
 10
-20.2685
 20
60.1335
 11
-20.1754
 21
59.8469
  0
LINE
  8
0
 10
-20.1754
 20
59.8469
 11
-20.1189
 21
59.5508
  0
LINE
  8
0
 10
-20.1189
 20
59.5508
 11
-20.1
 21
59.25
  0
LINE
  8
0
 10
-20.1
 20
59.25
 11
-20.1189
 21
58.9492
  0
LINE
  8
0
 10
-20.1189
 20
58.9492
 11
-20.1754
 21
58.6532
  0
LINE
  8
0
 10
-20.1754
 20
58.6532
 11
-20.2685
 21
58.3665
  0
LINE
  8
0
 10
-20.2685
 20
58.3665
 11
-20.3969
 21
58.0938
  0
LINE
  8
0
 10
-20.3969
 20
58.0938
 11
-20.5583
 21
57.8393
  0
LINE
  8
0
 10
-20.5583
 20
57.8393
 11
-20.7505
 21
57.6071
  0
LINE
  8
0
 10
-20.7505
 20
57.6071
 11
-20.9702
 21
57.4008
  0
LINE
  8
0
 10
-20.9702
 20
57.4008
 11
-21.214
 21
57.2236
  0
LINE
  8
0
 10
-21.214
 20
57.2236
 11
-21.4781
 21
57.0784
  0
LINE
  8
0
 10
-21.4781
 20
57.0784
 11
-21.7583
 21
56.9675
  0
LINE
  8
0
 10
-21.7583
 20
56.9675
 11
-22.0503
 21
56.8925
  0
LINE
  8
0
 10
-22.0503
 20
56.8925
 11
-22.3493
 21
56.8547
  0
LINE
  8
0
 10
-22.3493
 20
56.8547
 11
-22.6507
 21
56.8547
  0
LINE
  8
0
 10
-27
 20
20.6748
 11
-26.5451
 21
20.4947
  0
LINE
  8
0
 10
-26.5451
 20
20.4947
 11
-25.9369
 21
20.3386
  0
LINE
  8
0
 10
-25.9369
 20
20.3386
 11
-25.3139
 21
20.2599
  0
LINE
  8
0
 10
-25.3139
 20
20.2599
 11
25.3139
 21
20.2599
  0
LINE
  8
0
 10
25.3139
 20
20.2599
 11
25.9369
 21
20.3386
  0
LINE
  8
0
 10
25.9369
 20
20.3386
 11
26.5451
 21
20.4947
  0
LINE
  8
0
 10
26.5451
 20
20.4947
 11
27.1289
 21
20.7259
  0
LINE
  8
0
 10
27.1289
 20
20.7259
 11
27.6791
 21
21.0284
  0
LINE
  8
0
 10
27.6791
 20
21.0284
 11
28.1871
 21
21.3974
  0
LINE
  8
0
 10
28.1871
 20
21.3974
 11
28.6448
 21
21.8273
  0
LINE
  8
0
 10
28.6448
 20
21.8273
 11
29.0451
 21
22.3111
  0
LINE
  8
0
 10
29.0451
 20
22.3111
 11
29.3815
 21
22.8412
  0
LINE
  8
0
 10
29.3815
 20
22.8412
 11
29.6489
 21
23.4094
  0
LINE
  8
0
 10
29.6489
 20
23.4094
 11
29.8429
 21
24.0066
  0
LINE
  8
0
 10
29.8429
 20
24.0066
 11
29.9606
 21
24.6233
  0
LINE
  8
0
 10
29.9606
 20
24.6233
 11
30
 21
25.25
  0
LINE
  8
0
 10
30
 20
25.25
 11
30
 21
37.75
  0
LINE
  8
0
 10
30
 20
37.75
 11
29.9606
 21
38.3767
  0
LINE
  8
0
 10
29.9606
 20
38.3767
 11
29.8429
 21
38.9934
  0
LINE
  8
0
 10
29.8429
 20
38.9934
 11
29.6489
 21
39.5906
  0
LINE
  8
0
 10
29.6489
 20
39.5906
 11
29.3815
 21
40.1588
  0
LINE
  8
0
 10
29.3815
 20
40.1588
 11
29.0451
 21
40.6889
  0
LINE
  8
0
 10
29.0451
 20
40.6889
 11
28.6448
 21
41.1727
  0
LINE
  8
0
 10
28.6448
 20
41.1727
 11
28.1871
 21
41.6026
  0
LINE
  8
0
 10
28.1871
 20
41.6026
 11
27.6791
 21
41.9716
  0
LINE
  8
0
 10
27.6791
 20
41.9716
 11
27.1289
 21
42.2741
  0
LINE
  8
0
 10
27.1289
 20
42.2741
 11
26.5451
 21
42.5053
  0
LINE
  8
0
 10
26.5451
 20
42.5053
 11
25.9369
 21
42.6614
  0
LINE
  8
0
 10
25.9369
 20
42.6614
 11
25.3139
 21
42.7401
  0
LINE
  8
0
 10
25.3139
 20
42.7401
 11
-25.3139
 21
42.7401
  0
LINE
  8
0
 10
-25.3139
 20
42.7401
 11
-25.9369
 21
42.6614
  0
LINE
  8
0
 10
-25.9369
 20
42.6614
 11
-26.5451
 21
42.5053
  0
LINE
  8
0
 10
-26.5451
 20
42.5053
 11
-27
 21
42.3252
  0
LINE
  8
0
 10
-27
 20
42.3252
 11
-27
 21
42.7401
  0
LINE
  8
0
 10
-27
 20
42.7401
 11
-30
 21
42.7401
  0
LINE
  8
0
 10
-30
 20
42.7401
 11
-30
 21
20.2599
  0
LINE
  8
0
 10
-30
 20
20.2599
 11
-27
 21
20.2599
  0
LINE
  8
0
 10
-27
 20
20.2599
 11
-27
 21
20.6748
  0
LINE
  8
0
 10
22.387
 20
33.4536
 11
22.1627
 21
33.4819
  0
LINE
  8
0
 10
22.1627
 20
33.4819
 11
21.9438
 21
33.5381
  0
LINE
  8
0
 10
21.9438
 20
33.5381
 11
21.7336
 21
33.6213
  0
LINE
  8
0
 10
21.7336
 20
33.6213
 11
21.5355
 21
33.7302
  0
LINE
  8
0
 10
21.5355
 20
33.7302
 11
21.3526
 21
33.8631
  0
LINE
  8
0
 10
21.3526
 20
33.8631
 11
21.1879
 21
34.0178
  0
LINE
  8
0
 10
21.1879
 20
34.0178
 11
21.0438
 21
34.192
  0
LINE
  8
0
 10
21.0438
 20
34.192
 11
20.9226
 21
34.3828
  0
LINE
  8
0
 10
20.9226
 20
34.3828
 11
20.8264
 21
34.5874
  0
LINE
  8
0
 10
20.8264
 20
34.5874
 11
20.7565
 21
34.8024
  0
LINE
  8
0
 10
20.7565
 20
34.8024
 11
20.7142
 21
35.0244
  0
LINE
  8
0
 10
20.7142
 20
35.0244
 11
20.7
 21
35.25
  0
LINE
  8
0
 10
20.7
 20
35.25
 11
20.7142
 21
35.4756
  0
LINE
  8
0
 10
20.7142
 20
35.4756
 11
20.7565
 21
35.6976
  0
LINE
  8
0
 10
20.7565
 20
35.6976
 11
20.8264
 21
35.9126
  0
LINE
  8
0
 10
20.8264
 20
35.9126
 11
20.9226
 21
36.1171
  0
LINE
  8
0
 10
20.9226
 20
36.1171
 11
21.0438
 21
36.308
  0
LINE
  8
0
 10
21.0438
 20
36.308
 11
21.1879
 21
36.4822
  0
LINE
  8
0
 10
21.1879
 20
36.4822
 11
21.3526
 21
36.6369
  0
LINE
  8
0
 10
21.3526
 20
36.6369
 11
21.5355
 21
36.7698
  0
LINE
  8
0
 10
21.5355
 20
36.7698
 11
21.7336
 21
36.8787
  0
LINE
  8
0
 10
21.7336
 20
36.8787
 11
21.9438
 21
36.9619
  0
LINE
  8
0
 10
21.9438
 20
36.9619
 11
22.1627
 21
37.0181
  0
LINE
  8
0
 10
22.1627
 20
37.0181
 11
22.387
 21
37.0464
  0
LINE
  8
0
 10
22.387
 20
37.0464
 11
22.613
 21
37.0464
  0
LINE
  8
0
 10
22.613
 20
37.0464
 11
22.8373
 21
37.0181
  0
LINE
  8
0
 10
22.8373
 20
37.0181
 11
23.0562
 21
36.9619
  0
LINE
  8
0
 10
23.0562
 20
36.9619
 11
23.2664
 21
36.8787
  0
LINE
  8
0
 10
23.2664
 20
36.8787
 11
23.4645
 21
36.7698
  0
LINE
  8
0
 10
23.4645
 20
36.7698
 11
23.6474
 21
36.6369
  0
LINE
  8
0
 10
23.6474
 20
36.6369
 11
23.8121
 21
36.4822
  0
LINE
  8
0
 10
23.8121
 20
36.4822
 11
23.9562
 21
36.308
  0
LINE
  8
0
 10
23.9562
 20
36.308
 11
24.0773
 21
36.1171
  0
LINE
  8
0
 10
24.0773
 20
36.1171
 11
24.1736
 21
35.9126
  0
LINE
  8
0
 10
24.1736
 20
35.9126
 11
24.2434
 21
35.6976
  0
LINE
  8
0
 10
24.2434
 20
35.6976
 11
24.2858
 21
35.4756
  0
LINE
  8
0
 10
24.2858
 20
35.4756
 11
24.3
 21
35.25
  0
LINE
  8
0
 10
24.3
 20
35.25
 11
24.2858
 21
35.0244
  0
LINE
  8
0
 10
24.2858
 20
35.0244
 11
24.2434
 21
34.8024
  0
LINE
  8
0
 10
24.2434
 20
34.8024
 11
24.1736
 21
34.5874
  0
LINE
  8
0
 10
24.1736
 20
34.5874
 11
24.0773
 21
34.3828
  0
LINE
  8
0
 10
24.0773
 20
34.3828
 11
23.9562
 21
34.192
  0
LINE
  8
0
 10
23.9562
 20
34.192
 11
23.8121
 21
34.0178
  0
LINE
  8
0
 10
23.8121
 20
34.0178
 11
23.6474
 21
33.8631
  0
LINE
  8
0
 10
23.6474
 20
33.8631
 11
23.4645
 21
33.7302
  0
LINE
  8
0
 10
23.4645
 20
33.7302
 11
23.2664
 21
33.6213
  0
LINE
  8
0
 10
23.2664
 20
33.6213
 11
23.0562
 21
33.5381
  0
LINE
  8
0
 10
23.0562
 20
33.5381
 11
22.8373
 21
33.4819
  0
LINE
  8
0
 10
22.8373
 20
33.4819
 11
22.613
 21
33.4536
  0
LINE
  8
0
 10
22.613
 20
33.4536
 11
22.387
 21
33.4536
  0
LINE
  8
0
 10
-22.613
 20
33.4536
 11
-22.8373
 21
33.4819
  0
LINE
  8
0
 10
-22.8373
 20
33.4819
 11
-23.0562
 21
33.5381
  0
LINE
  8
0
 10
-23.0562
 20
33.5381
 11
-23.2664
 21
33.6213
  0
LINE
  8
0
 10
-23.2664
 20
33.6213
 11
-23.4645
 21
33.7302
  0
LINE
  8
0
 10
-23.4645
 20
33.7302
 11
-23.6474
 21
33.8631
  0
LINE
  8
0
 10
-23.6474
 20
33.8631
 11
-23.8121
 21
34.0178
  0
LINE
  8
0
 10
-23.8121
 20
34.0178
 11
-23.9562
 21
34.192
  0
LINE
  8
0
 10
-23.9562
 20
34.192
 11
-24.0773
 21
34.3828
  0
LINE
  8
0
 10
-24.0773
 20
34.3828
 11
-24.1736
 21
34.5874
  0
LINE
  8
0
 10
-24.1736
 20
34.5874
 11
-24.2434
 21
34.8024
  0
LINE
  8
0
 10
-24.2434
 20
34.8024
 11
-24.2858
 21
35.0244
  0
LINE
  8
0
 10
-24.2858
 20
35.0244
 11
-24.3
 21
35.25
  0
LINE
  8
0
 10
-24.3
 20
35.25
 11
-24.2858
 21
35.4756
  0
LINE
  8
0
 10
-24.2858
 20
35.4756
 11
-24.2434
 21
35.6976
  0
LINE
  8
0
 10
-24.2434
 20
35.6976
 11
-24.1736
 21
35.9126
  0
LINE
  8
0
 10
-24.1736
 20
35.9126
 11
-24.0773
 21
36.1171
  0
LINE
  8
0
 10
-24.0773
 20
36.1171
 11
-23.9562
 21
36.308
  0
LINE
  8
0
 10
-23.9562
 20
36.308
 11
-23.8121
 21
36.4822
  0
LINE
  8
0
 10
-23.8121
 20
36.4822
 11
-23.6474
 21
36.6369
  0
LINE
  8
0
 10
-23.6474
 20
36.6369
 11
-23.4645
 21
36.7698
  0
LINE
  8
0
 10
-23.4645
 20
36.7698
 11
-23.2664
 21
36.8787
  0
LINE
  8
0
 10
-23.2664
 20
36.8787
 11
-23.0562
 21
36.9619
  0
LINE
  8
0
 10
-23.0562
 20
36.9619
 11
-22.8373
 21
37.0181
  0
LINE
  8
0
 10
-22.8373
 20
37.0181
 11
-22.613
 21
37.0464
  0
LINE
  8
0
 10
-22.613
 20
37.0464
 11
-22.387
 21
37.0464
  0
LINE
  8
0
 10
-22.387
 20
37.0464
 11
-22.1627
 21
37.0181
  0
LINE
  8
0
 10
-22.1627
 20
37.0181
 11
-21.9438
 21
36.9619
  0
LINE
  8
0
 10
-21.9438
 20
36.9619
 11
-21.7336
 21
36.8787
  0
LINE
  8
0
 10
-21.7336
 20
36.8787
 11
-21.5355
 21
36.7698
  0
LINE
  8
0
 10
-21.5355
 20
36.7698
 11
-21.3526
 21
36.6369
  0
LINE
  8
0
 10
-21.3526
 20
36.6369
 11
-21.1879
 21
36.4822
  0
LINE
  8
0
 10
-21.1879
 20
36.4822
 11
-21.0438
 21
36.308
  0
LINE
  8
0
 10
-21.0438
 20
36.308
 11
-20.9226
 21
36.1171
  0
LINE
  8
0
 10
-20.9226
 20
36.1171
 11
-20.8264
 21
35.9126
  0
LINE
  8
0
 10
-20.8264
 20
35.9126
 11
-20.7565
 21
35.6976
  0
LINE
  8
0
 10
-20.7565
 20
35.6976
 11
-20.7142
 21
35.4756
  0
LINE
  8
0
 10
-20.7142
 20
35.4756
 11
-20.7
 21
35.25
  0
LINE
  8
0
 10
-20.7
 20
35.25
 11
-20.7142
 21
35.0244
  0
LINE
  8
0
 10
-20.7142
 20
35.0244
 11
-20.7565
 21
34.8024
  0
LINE
  8
0
 10
-20.7565
 20
34.8024
 11
-20.8264
 21
34.5874
  0
LINE
  8
0
 10
-20.8264
 20
34.5874
 11
-20.9226
 21
34.3828
  0
LINE
  8
0
 10
-20.9226
 20
34.3828
 11
-21.0438
 21
34.192
  0
LINE
  8
0
 10
-21.0438
 20
34.192
 11
-21.1879
 21
34.0178
  0
LINE
  8
0
 10
-21.1879
 20
34.0178
 11
-21.3526
 21
33.8631
  0
LINE
  8
0
 10
-21.3526
 20
33.8631
 11
-21.5355
 21
33.7302
  0
LINE
  8
0
 10
-21.5355
 20
33.7302
 11
-21.7336
 21
33.6213
  0
LINE
  8
0
 10
-21.7336
 20
33.6213
 11
-21.9438
 21
33.5381
  0
LINE
  8
0
 10
-21.9438
 20
33.5381
 11
-22.1627
 21
33.4819
  0
LINE
  8
0
 10
-22.1627
 20
33.4819
 11
-22.387
 21
33.4536
  0
LINE
  8
0
 10
-22.387
 20
33.4536
 11
-22.613
 21
33.4536
  0
LINE
  8
0
 10
-22.613
 20
25.9536
 11
-22.8373
 21
25.9819
  0
LINE
  8
0
 10
-22.8373
 20
25.9819
 11
-23.0562
 21
26.0381
  0
LINE
  8
0
 10
-23.0562
 20
26.0381
 11
-23.2664
 21
26.1213
  0
LINE
  8
0
 10
-23.2664
 20
26.1213
 11
-23.4645
 21
26.2302
  0
LINE
  8
0
 10
-23.4645
 20
26.2302
 11
-23.6474
 21
26.3631
  0
LINE
  8
0
 10
-23.6474
 20
26.3631
 11
-23.8121
 21
26.5178
  0
LINE
  8
0
 10
-23.8121
 20
26.5178
 11
-23.9562
 21
26.692
  0
LINE
  8
0
 10
-23.9562
 20
26.692
 11
-24.0773
 21
26.8829
  0
LINE
  8
0
 10
-24.0773
 20
26.8829
 11
-24.1736
 21
27.0874
  0
LINE
  8
0
 10
-24.1736
 20
27.0874
 11
-24.2434
 21
27.3024
  0
LINE
  8
0
 10
-24.2434
 20
27.3024
 11
-24.2858
 21
27.5244
  0
LINE
  8
0
 10
-24.2858
 20
27.5244
 11
-24.3
 21
27.75
  0
LINE
  8
0
 10
-24.3
 20
27.75
 11
-24.2858
 21
27.9756
  0
LINE
  8
0
 10
-24.2858
 20
27.9756
 11
-24.2434
 21
28.1976
  0
LINE
  8
0
 10
-24.2434
 20
28.1976
 11
-24.1736
 21
28.4126
  0
LINE
  8
0
 10
-24.1736
 20
28.4126
 11
-24.0773
 21
28.6172
  0
LINE
  8
0
 10
-24.0773
 20
28.6172
 11
-23.9562
 21
28.808
  0
LINE
  8
0
 10
-23.9562
 20
28.808
 11
-23.8121
 21
28.9822
  0
LINE
  8
0
 10
-23.8121
 20
28.9822
 11
-23.6474
 21
29.1369
  0
LINE
  8
0
 10
-23.6474
 20
29.1369
 11
-23.4645
 21
29.2698
  0
LINE
  8
0
 10
-23.4645
 20
29.2698
 11
-23.2664
 21
29.3787
  0
LINE
  8
0
 10
-23.2664
 20
29.3787
 11
-23.0562
 21
29.4619
  0
LINE
  8
0
 10
-23.0562
 20
29.4619
 11
-22.8373
 21
29.5181
  0
LINE
  8
0
 10
-22.8373
 20
29.5181
 11
-22.613
 21
29.5464
  0
LINE
  8
0
 10
-22.613
 20
29.5464
 11
-22.387
 21
29.5464
  0
LINE
  8
0
 10
-22.387
 20
29.5464
 11
-22.1627
 21
29.5181
  0
LINE
  8
0
 10
-22.1627
 20
29.5181
 11
-21.9438
 21
29.4619
  0
LINE
  8
0
 10
-21.9438
 20
29.4619
 11
-21.7336
 21
29.3787
  0
LINE
  8
0
 10
-21.7336
 20
29.3787
 11
-21.5355
 21
29.2698
  0
LINE
  8
0
 10
-21.5355
 20
29.2698
 11
-21.3526
 21
29.1369
  0
LINE
  8
0
 10
-21.3526
 20
29.1369
 11
-21.1879
 21
28.9822
  0
LINE
  8
0
 10
-21.1879
 20
28.9822
 11
-21.0438
 21
28.808
  0
LINE
  8
0
 10
-21.0438
 20
28.808
 11
-20.9226
 21
28.6172
  0
LINE
  8
0
 10
-20.9226
 20
28.6172
 11
-20.8264
 21
28.4126
  0
LINE
  8
0
 10
-20.8264
 20
28.4126
 11
-20.7565
 21
28.1976
  0
LINE
  8
0
 10
-20.7565
 20
28.1976
 11
-20.7142
 21
27.9756
  0
LINE
  8
0
 10
-20.7142
 20
27.9756
 11
-20.7
 21
27.75
  0
LINE
  8
0
 10
-20.7
 20
27.75
 11
-20.7142
 21
27.5244
  0
LINE
  8
0
 10
-20.7142
 20
27.5244
 11
-20.7565
 21
27.3024
  0
LINE
  8
0
 10
-20.7565
 20
27.3024
 11
-20.8264
 21
27.0874
  0
LINE
  8
0
 10
-20.8264
 20
27.0874
 11
-20.9226
 21
26.8829
  0
LINE
  8
0
 10
-20.9226
 20
26.8829
 11
-21.0438
 21
26.692
  0
LINE
  8
0
 10
-21.0438
 20
26.692
 11
-21.1879
 21
26.5178
  0
LINE
  8
0
 10
-21.1879
 20
26.5178
 11
-21.3526
 21
26.3631
  0
LINE
  8
0
 10
-21.3526
 20
26.3631
 11
-21.5355
 21
26.2302
  0
LINE
  8
0
 10
-21.5355
 20
26.2302
 11
-21.7336
 21
26.1213
  0
LINE
  8
0
 10
-21.7336
 20
26.1213
 11
-21.9438
 21
26.0381
  0
LINE
  8
0
 10
-21.9438
 20
26.0381
 11
-22.1627
 21
25.9819
  0
LINE
  8
0
 10
-22.1627
 20
25.9819
 11
-22.387
 21
25.9536
  0
LINE
  8
0
 10
-22.387
 20
25.9536
 11
-22.613
 21
25.9536
  0
LINE
  8
0
 10
22.387
 20
25.9536
 11
22.1627
 21
25.9819
  0
LINE
  8
0
 10
22.1627
 20
25.9819
 11
21.9438
 21
26.0381
  0
LINE
  8
0
 10
21.9438
 20
26.0381
 11
21.7336
 21
26.1213
  0
LINE
  8
0
 10
21.7336
 20
26.1213
 11
21.5355
 21
26.2302
  0
LINE
  8
0
 10
21.5355
 20
26.2302
 11
21.3526
 21
26.3631
  0
LINE
  8
0
 10
21.3526
 20
26.3631
 11
21.1879
 21
26.5178
  0
LINE
  8
0
 10
21.1879
 20
26.5178
 11
21.0438
 21
26.692
  0
LINE
  8
0
 10
21.0438
 20
26.692
 11
20.9226
 21
26.8829
  0
LINE
  8
0
 10
20.9226
 20
26.8829
 11
20.8264
 21
27.0874
  0
LINE
  8
0
 10
20.8264
 20
27.0874
 11
20.7565
 21
27.3024
  0
LINE
  8
0
 10
20.7565
 20
27.3024
 11
20.7142
 21
27.5244
  0
LINE
  8
0
 10
20.7142
 20
27.5244
 11
20.7
 21
27.75
  0
LINE
  8
0
 10
20.7
 20
27.75
 11
20.7142
 21
27.9756
  0
LINE
  8
0
 10
20.7142
 20
27.9756
 11
20.7565
 21
28.1976
  0
LINE
  8
0
 10
20.7565
 20
28.1976
 11
20.8264
 21
28.4126
  0
LINE
  8
0
 10
20.8264
 20
28.4126
 11
20.9226
 21
28.6172
  0
LINE
  8
0
 10
20.9226
 20
28.6172
 11
21.0438
 21
28.808
  0
LINE
  8
0
 10
21.0438
 20
28.808
 11
21.1879
 21
28.9822
  0
LINE
  8
0
 10
21.1879
 20
28.9822
 11
21.3526
 21
29.1369
  0
LINE
  8
0
 10
21.3526
 20
29.1369
 11
21.5355
 21
29.2698
  0
LINE
  8
0
 10
21.5355
 20
29.2698
 11
21.7336
 21
29.3787
  0
LINE
  8
0
 10
21.7336
 20
29.3787
 11
21.9438
 21
29.4619
  0
LINE
  8
0
 10
21.9438
 20
29.4619
 11
22.1627
 21
29.5181
  0
LINE
  8
0
 10
22.1627
 20
29.5181
 11
22.387
 21
29.5464
  0
LINE
  8
0
 10
22.387
 20
29.5464
 11
22.613
 21
29.5464
  0
LINE
  8
0
 10
22.613
 20
29.5464
 11
22.8373
 21
29.5181
  0
LINE
  8
0
 10
22.8373
 20
29.5181
 11
23.0562
 21
29.4619
  0
LINE
  8
0
 10
23.0562
 20
29.4619
 11
23.2664
 21
29.3787
  0
LINE
  8
0
 10
23.2664
 20
29.3787
 11
23.4645
 21
29.2698
  0
LINE
  8
0
 10
23.4645
 20
29.2698
 11
23.6474
 21
29.1369
  0
LINE
  8
0
 10
23.6474
 20
29.1369
 11
23.8121
 21
28.9822
  0
LINE
  8
0
 10
23.8121
 20
28.9822
 11
23.9562
 21
28.808
  0
LINE
  8
0
 10
23.9562
 20
28.808
 11
24.0773
 21
28.6172
  0
LINE
  8
0
 10
24.0773
 20
28.6172
 11
24.1736
 21
28.4126
  0
LINE
  8
0
 10
24.1736
 20
28.4126
 11
24.2434
 21
28.1976
  0
LINE
  8
0
 10
24.2434
 20
28.1976
 11
24.2858
 21
27.9756
  0
LINE
  8
0
 10
24.2858
 20
27.9756
 11
24.3
 21
27.75
  0
LINE
  8
0
 10
24.3
 20
27.75
 11
24.2858
 21
27.5244
  0
LINE
  8
0
 10
24.2858
 20
27.5244
 11
24.2434
 21
27.3024
  0
LINE
  8
0
 10
24.2434
 20
27.3024
 11
24.1736
 21
27.0874
  0
LINE
  8
0
 10
24.1736
 20
27.0874
 11
24.0773
 21
26.8829
  0
LINE
  8
0
 10
24.0773
 20
26.8829
 11
23.9562
 21
26.692
  0
LINE
  8
0
 10
23.9562
 20
26.692
 11
23.8121
 21
26.5178
  0
LINE
  8
0
 10
23.8121
 20
26.5178
 11
23.6474
 21
26.3631
  0
LINE
  8
0
 10
23.6474
 20
26.3631
 11
23.4645
 21
26.2302
  0
LINE
  8
0
 10
23.4645
 20
26.2302
 11
23.2664
 21
26.1213
  0
LINE
  8
0
 10
23.2664
 20
26.1213
 11
23.0562
 21
26.0381
  0
LINE
  8
0
 10
23.0562
 20
26.0381
 11
22.8373
 21
25.9819
  0
LINE
  8
0
 10
22.8373
 20
25.9819
 11
22.613
 21
25.9536
  0
LINE
  8
0
 10
22.613
 20
25.9536
 11
22.387
 21
25.9536
  0
LINE
  8
0
 10
-27
 20
10.8648
 11
-30
 21
10.8648
  0
LINE
  8
0
 10
-30
 20
10.8648
 11
-30
 21
-10.8648
  0
LINE
  8
0
 10
-30
 20
-10.8648
 11
-27
 21
-10.8648
  0
LINE
  8
0
 10
-27
 20
-10.8648
 11
-27
 21
10.8648
  0
ENDSEC
  0
SECTION
  2
OBJECTS
  0
DICTIONARY
  0
ENDSEC
  0
EOF
