<?xml version="1.0" standalone="no"?>
<!DOCTYPE svg PUBLIC "-//W3C//DTD SVG 1.1//EN" "http://www.w3.org/Graphics/SVG/1.1/DTD/svg11.dtd">
<svg width="226mm" height="681mm" viewBox="-113 -1341 226 681" xmlns="http://www.w3.org/2000/svg" version="1.1">
<title>OpenSCAD Model</title>
<path d="
M 108.437,-1281.09 L 109.045,-1281.24 L 109.629,-1281.48 L 110.179,-1281.78 L 110.687,-1282.15 L 111.145,-1282.58
 L 111.545,-1283.06 L 111.882,-1283.59 L 112.149,-1284.16 L 112.343,-1284.76 L 112.461,-1285.37 L 112.5,-1286
 L 112.5,-1336 L 112.461,-1336.63 L 112.343,-1337.24 L 112.149,-1337.84 L 111.882,-1338.41 L 111.545,-1338.94
 L 111.145,-1339.42 L 110.687,-1339.85 L 110.179,-1340.22 L 109.629,-1340.52 L 109.045,-1340.76 L 108.437,-1340.91
 L 107.814,-1340.99 L -107.814,-1340.99 L -108.437,-1340.91 L -109.045,-1340.76 L -109.629,-1340.52 L -110.179,-1340.22
 L -110.687,-1339.85 L -111.145,-1339.42 L -111.545,-1338.94 L -111.882,-1338.41 L -112.149,-1337.84 L -112.343,-1337.24
 L -112.461,-1336.63 L -112.5,-1336 L -112.5,-1286 L -112.461,-1285.37 L -112.343,-1284.76 L -112.149,-1284.16
 L -111.882,-1283.59 L -111.545,-1283.06 L -111.145,-1282.58 L -110.687,-1282.15 L -110.179,-1281.78 L -109.629,-1281.48
 L -109.045,-1281.24 L -108.437,-1281.09 L -107.814,-1281.01 L 107.814,-1281.01 z
M -107.251,-1282.51 L -107.75,-1282.57 L -108.236,-1282.7 L -108.703,-1282.88 L -109.143,-1283.12 L -109.55,-1283.42
 L -109.916,-1283.76 L -110.236,-1284.15 L -110.505,-1284.57 L -110.719,-1285.03 L -110.874,-1285.51 L -110.968,-1286
 L -111,-1286.5 L -111,-1335.5 L -110.968,-1336 L -110.874,-1336.49 L -110.719,-1336.97 L -110.505,-1337.43
 L -110.236,-1337.85 L -109.916,-1338.24 L -109.55,-1338.58 L -109.143,-1338.88 L -108.703,-1339.12 L -108.236,-1339.3
 L -107.75,-1339.43 L -107.251,-1339.49 L 107.251,-1339.49 L 107.75,-1339.43 L 108.236,-1339.3 L 108.703,-1339.12
 L 109.143,-1338.88 L 109.55,-1338.58 L 109.916,-1338.24 L 110.236,-1337.85 L 110.505,-1337.43 L 110.719,-1336.97
 L 110.874,-1336.49 L 110.968,-1336 L 111,-1335.5 L 111,-1286.5 L 110.968,-1286 L 110.874,-1285.51
 L 110.719,-1285.03 L 110.505,-1284.57 L 110.236,-1284.15 L 109.916,-1283.76 L 109.55,-1283.42 L 109.143,-1283.12
 L 108.703,-1282.88 L 108.236,-1282.7 L 107.75,-1282.57 L 107.251,-1282.51 z
M 108.437,-1212.09 L 109.045,-1212.24 L 109.629,-1212.48 L 110.179,-1212.78 L 110.687,-1213.15 L 111.145,-1213.58
 L 111.545,-1214.06 L 111.882,-1214.59 L 112.149,-1215.16 L 112.343,-1215.76 L 112.461,-1216.37 L 112.5,-1217
 L 112.5,-1267 L 112.461,-1267.63 L 112.343,-1268.24 L 112.149,-1268.84 L 111.882,-1269.41 L 111.545,-1269.94
 L 111.145,-1270.42 L 110.687,-1270.85 L 110.179,-1271.22 L 109.629,-1271.52 L 109.045,-1271.76 L 108.437,-1271.91
 L 107.814,-1271.99 L -107.814,-1271.99 L -108.437,-1271.91 L -109.045,-1271.76 L -109.629,-1271.52 L -110.179,-1271.22
 L -110.687,-1270.85 L -111.145,-1270.42 L -111.545,-1269.94 L -111.882,-1269.41 L -112.149,-1268.84 L -112.343,-1268.24
 L -112.461,-1267.63 L -112.5,-1267 L -112.5,-1217 L -112.461,-1216.37 L -112.343,-1215.76 L -112.149,-1215.16
 L -111.882,-1214.59 L -111.545,-1214.06 L -111.145,-1213.58 L -110.687,-1213.15 L -110.179,-1212.78 L -109.629,-1212.48
 L -109.045,-1212.24 L -108.437,-1212.09 L -107.814,-1212.01 L 107.814,-1212.01 z
M -107.251,-1213.51 L -107.75,-1213.57 L -108.236,-1213.7 L -108.703,-1213.88 L -109.143,-1214.12 L -109.55,-1214.42
 L -109.916,-1214.76 L -110.236,-1215.15 L -110.505,-1215.57 L -110.719,-1216.03 L -110.874,-1216.51 L -110.968,-1217
 L -111,-1217.5 L -111,-1266.5 L -110.968,-1267 L -110.874,-1267.49 L -110.719,-1267.97 L -110.505,-1268.43
 L -110.236,-1268.85 L -109.916,-1269.24 L -109.55,-1269.58 L -109.143,-1269.88 L -108.703,-1270.12 L -108.236,-1270.3
 L -107.75,-1270.43 L -107.251,-1270.49 L 107.251,-1270.49 L 107.75,-1270.43 L 108.236,-1270.3 L 108.703,-1270.12
 L 109.143,-1269.88 L 109.55,-1269.58 L 109.916,-1269.24 L 110.236,-1268.85 L 110.505,-1268.43 L 110.719,-1267.97
 L 110.874,-1267.49 L 110.968,-1267 L 111,-1266.5 L 111,-1217.5 L 110.968,-1217 L 110.874,-1216.51
 L 110.719,-1216.03 L 110.505,-1215.57 L 110.236,-1215.15 L 109.916,-1214.76 L 109.55,-1214.42 L 109.143,-1214.12
 L 108.703,-1213.88 L 108.236,-1213.7 L 107.75,-1213.57 L 107.251,-1213.51 z
M 108.437,-1143.09 L 109.045,-1143.24 L 109.629,-1143.48 L 110.179,-1143.78 L 110.687,-1144.15 L 111.145,-1144.58
 L 111.545,-1145.06 L 111.882,-1145.59 L 112.149,-1146.16 L 112.343,-1146.76 L 112.461,-1147.37 L 112.5,-1148
 L 112.5,-1198 L 112.461,-1198.63 L 112.343,-1199.24 L 112.149,-1199.84 L 111.882,-1200.41 L 111.545,-1200.94
 L 111.145,-1201.42 L 110.687,-1201.85 L 110.179,-1202.22 L 109.629,-1202.52 L 109.045,-1202.76 L 108.437,-1202.91
 L 107.814,-1202.99 L -107.814,-1202.99 L -108.437,-1202.91 L -109.045,-1202.76 L -109.629,-1202.52 L -110.179,-1202.22
 L -110.687,-1201.85 L -111.145,-1201.42 L -111.545,-1200.94 L -111.882,-1200.41 L -112.149,-1199.84 L -112.343,-1199.24
 L -112.461,-1198.63 L -112.5,-1198 L -112.5,-1148 L -112.461,-1147.37 L -112.343,-1146.76 L -112.149,-1146.16
 L -111.882,-1145.59 L -111.545,-1145.06 L -111.145,-1144.58 L -110.687,-1144.15 L -110.179,-1143.78 L -109.629,-1143.48
 L -109.045,-1143.24 L -108.437,-1143.09 L -107.814,-1143.01 L 107.814,-1143.01 z
M -107.251,-1144.51 L -107.75,-1144.57 L -108.236,-1144.7 L -108.703,-1144.88 L -109.143,-1145.12 L -109.55,-1145.42
 L -109.916,-1145.76 L -110.236,-1146.15 L -110.505,-1146.57 L -110.719,-1147.03 L -110.874,-1147.51 L -110.968,-1148
 L -111,-1148.5 L -111,-1197.5 L -110.968,-1198 L -110.874,-1198.49 L -110.719,-1198.97 L -110.505,-1199.43
 L -110.236,-1199.85 L -109.916,-1200.24 L -109.55,-1200.58 L -109.143,-1200.88 L -108.703,-1201.12 L -108.236,-1201.3
 L -107.75,-1201.43 L -107.251,-1201.49 L 107.251,-1201.49 L 107.75,-1201.43 L 108.236,-1201.3 L 108.703,-1201.12
 L 109.143,-1200.88 L 109.55,-1200.58 L 109.916,-1200.24 L 110.236,-1199.85 L 110.505,-1199.43 L 110.719,-1198.97
 L 110.874,-1198.49 L 110.968,-1198 L 111,-1197.5 L 111,-1148.5 L 110.968,-1148 L 110.874,-1147.51
 L 110.719,-1147.03 L 110.505,-1146.57 L 110.236,-1146.15 L 109.916,-1145.76 L 109.55,-1145.42 L 109.143,-1145.12
 L 108.703,-1144.88 L 108.236,-1144.7 L 107.75,-1144.57 L 107.251,-1144.51 z
M 108.437,-1074.09 L 109.045,-1074.24 L 109.629,-1074.48 L 110.179,-1074.78 L 110.687,-1075.15 L 111.145,-1075.58
 L 111.545,-1076.06 L 111.882,-1076.59 L 112.149,-1077.16 L 112.343,-1077.76 L 112.461,-1078.37 L 112.5,-1079
 L 112.5,-1129 L 112.461,-1129.63 L 112.343,-1130.24 L 112.149,-1130.84 L 111.882,-1131.41 L 111.545,-1131.94
 L 111.145,-1132.42 L 110.687,-1132.85 L 110.179,-1133.22 L 109.629,-1133.52 L 109.045,-1133.76 L 108.437,-1133.91
 L 107.814,-1133.99 L -107.814,-1133.99 L -108.437,-1133.91 L -109.045,-1133.76 L -109.629,-1133.52 L -110.179,-1133.22
 L -110.687,-1132.85 L -111.145,-1132.42 L -111.545,-1131.94 L -111.882,-1131.41 L -112.149,-1130.84 L -112.343,-1130.24
 L -112.461,-1129.63 L -112.5,-1129 L -112.5,-1079 L -112.461,-1078.37 L -112.343,-1077.76 L -112.149,-1077.16
 L -111.882,-1076.59 L -111.545,-1076.06 L -111.145,-1075.58 L -110.687,-1075.15 L -110.179,-1074.78 L -109.629,-1074.48
 L -109.045,-1074.24 L -108.437,-1074.09 L -107.814,-1074.01 L 107.814,-1074.01 z
M -107.251,-1075.51 L -107.75,-1075.57 L -108.236,-1075.7 L -108.703,-1075.88 L -109.143,-1076.12 L -109.55,-1076.42
 L -109.916,-1076.76 L -110.236,-1077.15 L -110.505,-1077.57 L -110.719,-1078.03 L -110.874,-1078.51 L -110.968,-1079
 L -111,-1079.5 L -111,-1128.5 L -110.968,-1129 L -110.874,-1129.49 L -110.719,-1129.97 L -110.505,-1130.43
 L -110.236,-1130.85 L -109.916,-1131.24 L -109.55,-1131.58 L -109.143,-1131.88 L -108.703,-1132.12 L -108.236,-1132.3
 L -107.75,-1132.43 L -107.251,-1132.49 L 107.251,-1132.49 L 107.75,-1132.43 L 108.236,-1132.3 L 108.703,-1132.12
 L 109.143,-1131.88 L 109.55,-1131.58 L 109.916,-1131.24 L 110.236,-1130.85 L 110.505,-1130.43 L 110.719,-1129.97
 L 110.874,-1129.49 L 110.968,-1129 L 111,-1128.5 L 111,-1079.5 L 110.968,-1079 L 110.874,-1078.51
 L 110.719,-1078.03 L 110.505,-1077.57 L 110.236,-1077.15 L 109.916,-1076.76 L 109.55,-1076.42 L 109.143,-1076.12
 L 108.703,-1075.88 L 108.236,-1075.7 L 107.75,-1075.57 L 107.251,-1075.51 z
M 108.437,-1005.09 L 109.045,-1005.24 L 109.629,-1005.48 L 110.179,-1005.78 L 110.687,-1006.15 L 111.145,-1006.58
 L 111.545,-1007.06 L 111.882,-1007.59 L 112.149,-1008.16 L 112.343,-1008.76 L 112.461,-1009.37 L 112.5,-1010
 L 112.5,-1060 L 112.461,-1060.63 L 112.343,-1061.24 L 112.149,-1061.84 L 111.882,-1062.41 L 111.545,-1062.94
 L 111.145,-1063.42 L 110.687,-1063.85 L 110.179,-1064.22 L 109.629,-1064.52 L 109.045,-1064.76 L 108.437,-1064.91
 L 107.814,-1064.99 L -107.814,-1064.99 L -108.437,-1064.91 L -109.045,-1064.76 L -109.629,-1064.52 L -110.179,-1064.22
 L -110.687,-1063.85 L -111.145,-1063.42 L -111.545,-1062.94 L -111.882,-1062.41 L -112.149,-1061.84 L -112.343,-1061.24
 L -112.461,-1060.63 L -112.5,-1060 L -112.5,-1010 L -112.461,-1009.37 L -112.343,-1008.76 L -112.149,-1008.16
 L -111.882,-1007.59 L -111.545,-1007.06 L -111.145,-1006.58 L -110.687,-1006.15 L -110.179,-1005.78 L -109.629,-1005.48
 L -109.045,-1005.24 L -108.437,-1005.09 L -107.814,-1005.01 L 107.814,-1005.01 z
M -107.251,-1006.51 L -107.75,-1006.57 L -108.236,-1006.7 L -108.703,-1006.88 L -109.143,-1007.12 L -109.55,-1007.42
 L -109.916,-1007.76 L -110.236,-1008.15 L -110.505,-1008.57 L -110.719,-1009.03 L -110.874,-1009.51 L -110.968,-1010
 L -111,-1010.5 L -111,-1059.5 L -110.968,-1060 L -110.874,-1060.49 L -110.719,-1060.97 L -110.505,-1061.43
 L -110.236,-1061.85 L -109.916,-1062.24 L -109.55,-1062.58 L -109.143,-1062.88 L -108.703,-1063.12 L -108.236,-1063.3
 L -107.75,-1063.43 L -107.251,-1063.49 L 107.251,-1063.49 L 107.75,-1063.43 L 108.236,-1063.3 L 108.703,-1063.12
 L 109.143,-1062.88 L 109.55,-1062.58 L 109.916,-1062.24 L 110.236,-1061.85 L 110.505,-1061.43 L 110.719,-1060.97
 L 110.874,-1060.49 L 110.968,-1060 L 111,-1059.5 L 111,-1010.5 L 110.968,-1010 L 110.874,-1009.51
 L 110.719,-1009.03 L 110.505,-1008.57 L 110.236,-1008.15 L 109.916,-1007.76 L 109.55,-1007.42 L 109.143,-1007.12
 L 108.703,-1006.88 L 108.236,-1006.7 L 107.75,-1006.57 L 107.251,-1006.51 z
M 108.437,-936.089 L 109.045,-936.245 L 109.629,-936.476 L 110.179,-936.778 L 110.687,-937.147 L 111.145,-937.577
 L 111.545,-938.061 L 111.882,-938.591 L 112.149,-939.159 L 112.343,-939.757 L 112.461,-940.373 L 112.5,-941
 L 112.5,-991 L 112.461,-991.627 L 112.343,-992.243 L 112.149,-992.841 L 111.882,-993.409 L 111.545,-993.939
 L 111.145,-994.423 L 110.687,-994.853 L 110.179,-995.222 L 109.629,-995.524 L 109.045,-995.755 L 108.437,-995.911
 L 107.814,-995.99 L -107.814,-995.99 L -108.437,-995.911 L -109.045,-995.755 L -109.629,-995.524 L -110.179,-995.222
 L -110.687,-994.853 L -111.145,-994.423 L -111.545,-993.939 L -111.882,-993.409 L -112.149,-992.841 L -112.343,-992.243
 L -112.461,-991.627 L -112.5,-991 L -112.5,-941 L -112.461,-940.373 L -112.343,-939.757 L -112.149,-939.159
 L -111.882,-938.591 L -111.545,-938.061 L -111.145,-937.577 L -110.687,-937.147 L -110.179,-936.778 L -109.629,-936.476
 L -109.045,-936.245 L -108.437,-936.089 L -107.814,-936.01 L 107.814,-936.01 z
M -107.251,-937.508 L -107.75,-937.571 L -108.236,-937.696 L -108.703,-937.881 L -109.143,-938.123 L -109.55,-938.418
 L -109.916,-938.762 L -110.236,-939.149 L -110.505,-939.573 L -110.719,-940.028 L -110.874,-940.505 L -110.968,-940.999
 L -111,-941.5 L -111,-990.5 L -110.968,-991.001 L -110.874,-991.495 L -110.719,-991.972 L -110.505,-992.427
 L -110.236,-992.851 L -109.916,-993.238 L -109.55,-993.582 L -109.143,-993.877 L -108.703,-994.119 L -108.236,-994.304
 L -107.75,-994.429 L -107.251,-994.492 L 107.251,-994.492 L 107.75,-994.429 L 108.236,-994.304 L 108.703,-994.119
 L 109.143,-993.877 L 109.55,-993.582 L 109.916,-993.238 L 110.236,-992.851 L 110.505,-992.427 L 110.719,-991.972
 L 110.874,-991.495 L 110.968,-991.001 L 111,-990.5 L 111,-941.5 L 110.968,-940.999 L 110.874,-940.505
 L 110.719,-940.028 L 110.505,-939.573 L 110.236,-939.149 L 109.916,-938.762 L 109.55,-938.418 L 109.143,-938.123
 L 108.703,-937.881 L 108.236,-937.696 L 107.75,-937.571 L 107.251,-937.508 z
M 108.437,-867.089 L 109.045,-867.245 L 109.629,-867.476 L 110.179,-867.778 L 110.687,-868.147 L 111.145,-868.577
 L 111.545,-869.061 L 111.882,-869.591 L 112.149,-870.159 L 112.343,-870.757 L 112.461,-871.373 L 112.5,-872
 L 112.5,-922 L 112.461,-922.627 L 112.343,-923.243 L 112.149,-923.841 L 111.882,-924.409 L 111.545,-924.939
 L 111.145,-925.423 L 110.687,-925.853 L 110.179,-926.222 L 109.629,-926.524 L 109.045,-926.755 L 108.437,-926.911
 L 107.814,-926.99 L -107.814,-926.99 L -108.437,-926.911 L -109.045,-926.755 L -109.629,-926.524 L -110.179,-926.222
 L -110.687,-925.853 L -111.145,-925.423 L -111.545,-924.939 L -111.882,-924.409 L -112.149,-923.841 L -112.343,-923.243
 L -112.461,-922.627 L -112.5,-922 L -112.5,-872 L -112.461,-871.373 L -112.343,-870.757 L -112.149,-870.159
 L -111.882,-869.591 L -111.545,-869.061 L -111.145,-868.577 L -110.687,-868.147 L -110.179,-867.778 L -109.629,-867.476
 L -109.045,-867.245 L -108.437,-867.089 L -107.814,-867.01 L 107.814,-867.01 z
M -107.251,-868.508 L -107.75,-868.571 L -108.236,-868.696 L -108.703,-868.881 L -109.143,-869.123 L -109.55,-869.418
 L -109.916,-869.762 L -110.236,-870.149 L -110.505,-870.573 L -110.719,-871.028 L -110.874,-871.505 L -110.968,-871.999
 L -111,-872.5 L -111,-921.5 L -110.968,-922.001 L -110.874,-922.495 L -110.719,-922.972 L -110.505,-923.427
 L -110.236,-923.851 L -109.916,-924.238 L -109.55,-924.582 L -109.143,-924.877 L -108.703,-925.119 L -108.236,-925.304
 L -107.75,-925.429 L -107.251,-925.492 L 107.251,-925.492 L 107.75,-925.429 L 108.236,-925.304 L 108.703,-925.119
 L 109.143,-924.877 L 109.55,-924.582 L 109.916,-924.238 L 110.236,-923.851 L 110.505,-923.427 L 110.719,-922.972
 L 110.874,-922.495 L 110.968,-922.001 L 111,-921.5 L 111,-872.5 L 110.968,-871.999 L 110.874,-871.505
 L 110.719,-871.028 L 110.505,-870.573 L 110.236,-870.149 L 109.916,-869.762 L 109.55,-869.418 L 109.143,-869.123
 L 108.703,-868.881 L 108.236,-868.696 L 107.75,-868.571 L 107.251,-868.508 z
M 108.437,-798.089 L 109.045,-798.245 L 109.629,-798.476 L 110.179,-798.778 L 110.687,-799.147 L 111.145,-799.577
 L 111.545,-800.061 L 111.882,-800.591 L 112.149,-801.159 L 112.343,-801.757 L 112.461,-802.373 L 112.5,-803
 L 112.5,-853 L 112.461,-853.627 L 112.343,-854.243 L 112.149,-854.841 L 111.882,-855.409 L 111.545,-855.939
 L 111.145,-856.423 L 110.687,-856.853 L 110.179,-857.222 L 109.629,-857.524 L 109.045,-857.755 L 108.437,-857.911
 L 107.814,-857.99 L -107.814,-857.99 L -108.437,-857.911 L -109.045,-857.755 L -109.629,-857.524 L -110.179,-857.222
 L -110.687,-856.853 L -111.145,-856.423 L -111.545,-855.939 L -111.882,-855.409 L -112.149,-854.841 L -112.343,-854.243
 L -112.461,-853.627 L -112.5,-853 L -112.5,-803 L -112.461,-802.373 L -112.343,-801.757 L -112.149,-801.159
 L -111.882,-800.591 L -111.545,-800.061 L -111.145,-799.577 L -110.687,-799.147 L -110.179,-798.778 L -109.629,-798.476
 L -109.045,-798.245 L -108.437,-798.089 L -107.814,-798.01 L 107.814,-798.01 z
M -107.251,-799.508 L -107.75,-799.571 L -108.236,-799.696 L -108.703,-799.881 L -109.143,-800.123 L -109.55,-800.418
 L -109.916,-800.762 L -110.236,-801.149 L -110.505,-801.573 L -110.719,-802.028 L -110.874,-802.505 L -110.968,-802.999
 L -111,-803.5 L -111,-852.5 L -110.968,-853.001 L -110.874,-853.495 L -110.719,-853.972 L -110.505,-854.427
 L -110.236,-854.851 L -109.916,-855.238 L -109.55,-855.582 L -109.143,-855.877 L -108.703,-856.119 L -108.236,-856.304
 L -107.75,-856.429 L -107.251,-856.492 L 107.251,-856.492 L 107.75,-856.429 L 108.236,-856.304 L 108.703,-856.119
 L 109.143,-855.877 L 109.55,-855.582 L 109.916,-855.238 L 110.236,-854.851 L 110.505,-854.427 L 110.719,-853.972
 L 110.874,-853.495 L 110.968,-853.001 L 111,-852.5 L 111,-803.5 L 110.968,-802.999 L 110.874,-802.505
 L 110.719,-802.028 L 110.505,-801.573 L 110.236,-801.149 L 109.916,-800.762 L 109.55,-800.418 L 109.143,-800.123
 L 108.703,-799.881 L 108.236,-799.696 L 107.75,-799.571 L 107.251,-799.508 z
M 108.437,-729.089 L 109.045,-729.245 L 109.629,-729.476 L 110.179,-729.778 L 110.687,-730.147 L 111.145,-730.577
 L 111.545,-731.061 L 111.882,-731.591 L 112.149,-732.159 L 112.343,-732.757 L 112.461,-733.373 L 112.5,-734
 L 112.5,-784 L 112.461,-784.627 L 112.343,-785.243 L 112.149,-785.841 L 111.882,-786.409 L 111.545,-786.939
 L 111.145,-787.423 L 110.687,-787.853 L 110.179,-788.222 L 109.629,-788.524 L 109.045,-788.755 L 108.437,-788.911
 L 107.814,-788.99 L -107.814,-788.99 L -108.437,-788.911 L -109.045,-788.755 L -109.629,-788.524 L -110.179,-788.222
 L -110.687,-787.853 L -111.145,-787.423 L -111.545,-786.939 L -111.882,-786.409 L -112.149,-785.841 L -112.343,-785.243
 L -112.461,-784.627 L -112.5,-784 L -112.5,-734 L -112.461,-733.373 L -112.343,-732.757 L -112.149,-732.159
 L -111.882,-731.591 L -111.545,-731.061 L -111.145,-730.577 L -110.687,-730.147 L -110.179,-729.778 L -109.629,-729.476
 L -109.045,-729.245 L -108.437,-729.089 L -107.814,-729.01 L 107.814,-729.01 z
M -107.195,-731.393 L -107.583,-731.442 L -107.962,-731.539 L -108.325,-731.683 L -108.668,-731.872 L -108.984,-732.101
 L -109.269,-732.369 L -109.518,-732.67 L -109.728,-733 L -109.894,-733.354 L -110.015,-733.726 L -110.088,-734.11
 L -110.113,-734.5 L -110.113,-783.5 L -110.088,-783.89 L -110.015,-784.274 L -109.894,-784.646 L -109.728,-785
 L -109.518,-785.33 L -109.269,-785.631 L -108.984,-785.899 L -108.668,-786.128 L -108.325,-786.317 L -107.962,-786.461
 L -107.583,-786.558 L -107.195,-786.607 L 107.195,-786.607 L 107.583,-786.558 L 107.962,-786.461 L 108.325,-786.317
 L 108.668,-786.128 L 108.984,-785.899 L 109.269,-785.631 L 109.518,-785.33 L 109.728,-785 L 109.894,-784.646
 L 110.015,-784.274 L 110.088,-783.89 L 110.113,-783.5 L 110.113,-734.5 L 110.088,-734.11 L 110.015,-733.726
 L 109.894,-733.354 L 109.728,-733 L 109.518,-732.67 L 109.269,-732.369 L 108.984,-732.101 L 108.668,-731.872
 L 108.325,-731.683 L 107.962,-731.539 L 107.583,-731.442 L 107.195,-731.393 z
M 108.437,-660.089 L 109.045,-660.245 L 109.629,-660.476 L 110.179,-660.778 L 110.687,-661.147 L 111.145,-661.577
 L 111.545,-662.061 L 111.882,-662.591 L 112.149,-663.159 L 112.343,-663.757 L 112.461,-664.373 L 112.5,-665
 L 112.5,-715 L 112.461,-715.627 L 112.343,-716.243 L 112.149,-716.841 L 111.882,-717.409 L 111.545,-717.939
 L 111.145,-718.423 L 110.687,-718.853 L 110.179,-719.222 L 109.629,-719.524 L 109.045,-719.755 L 108.437,-719.911
 L 107.814,-719.99 L -107.814,-719.99 L -108.437,-719.911 L -109.045,-719.755 L -109.629,-719.524 L -110.179,-719.222
 L -110.687,-718.853 L -111.145,-718.423 L -111.545,-717.939 L -111.882,-717.409 L -112.149,-716.841 L -112.343,-716.243
 L -112.461,-715.627 L -112.5,-715 L -112.5,-665 L -112.461,-664.373 L -112.343,-663.757 L -112.149,-663.159
 L -111.882,-662.591 L -111.545,-662.061 L -111.145,-661.577 L -110.687,-661.147 L -110.179,-660.778 L -109.629,-660.476
 L -109.045,-660.245 L -108.437,-660.089 L -107.814,-660.01 L 107.814,-660.01 z
M -105.134,-710.369 L -105.4,-710.403 L -105.66,-710.469 L -105.909,-710.568 L -106.144,-710.697 L -106.361,-710.855
 L -106.557,-711.038 L -106.727,-711.245 L -106.871,-711.471 L -106.985,-711.714 L -107.068,-711.969 L -107.118,-712.232
 L -107.135,-712.5 L -107.118,-712.768 L -107.068,-713.031 L -106.985,-713.286 L -106.871,-713.529 L -106.727,-713.755
 L -106.557,-713.962 L -106.361,-714.145 L -106.144,-714.303 L -105.909,-714.432 L -105.66,-714.531 L -105.4,-714.597
 L -105.134,-714.631 L -104.866,-714.631 L -104.6,-714.597 L -104.34,-714.531 L -104.091,-714.432 L -103.856,-714.303
 L -103.639,-714.145 L -103.443,-713.962 L -103.273,-713.755 L -103.129,-713.529 L -103.015,-713.286 L -102.932,-713.031
 L -102.882,-712.768 L -102.865,-712.5 L -102.882,-712.232 L -102.932,-711.969 L -103.015,-711.714 L -103.129,-711.471
 L -103.273,-711.245 L -103.443,-711.038 L -103.639,-710.855 L -103.856,-710.697 L -104.091,-710.568 L -104.34,-710.469
 L -104.6,-710.403 L -104.866,-710.369 z
M 104.866,-710.369 L 104.6,-710.403 L 104.34,-710.469 L 104.091,-710.568 L 103.856,-710.697 L 103.639,-710.855
 L 103.443,-711.038 L 103.273,-711.245 L 103.129,-711.471 L 103.015,-711.714 L 102.932,-711.969 L 102.882,-712.232
 L 102.865,-712.5 L 102.882,-712.768 L 102.932,-713.031 L 103.015,-713.286 L 103.129,-713.529 L 103.273,-713.755
 L 103.443,-713.962 L 103.639,-714.145 L 103.856,-714.303 L 104.091,-714.432 L 104.34,-714.531 L 104.6,-714.597
 L 104.866,-714.631 L 105.134,-714.631 L 105.4,-714.597 L 105.66,-714.531 L 105.909,-714.432 L 106.144,-714.303
 L 106.361,-714.145 L 106.557,-713.962 L 106.727,-713.755 L 106.871,-713.529 L 106.985,-713.286 L 107.068,-713.031
 L 107.118,-712.768 L 107.135,-712.5 L 107.118,-712.232 L 107.068,-711.969 L 106.985,-711.714 L 106.871,-711.471
 L 106.727,-711.245 L 106.557,-711.038 L 106.361,-710.855 L 106.144,-710.697 L 105.909,-710.568 L 105.66,-710.469
 L 105.4,-710.403 L 105.134,-710.369 z
M -105.134,-665.369 L -105.4,-665.403 L -105.66,-665.469 L -105.909,-665.568 L -106.144,-665.697 L -106.361,-665.855
 L -106.557,-666.038 L -106.727,-666.245 L -106.871,-666.471 L -106.985,-666.714 L -107.068,-666.969 L -107.118,-667.232
 L -107.135,-667.5 L -107.118,-667.768 L -107.068,-668.031 L -106.985,-668.286 L -106.871,-668.529 L -106.727,-668.755
 L -106.557,-668.962 L -106.361,-669.145 L -106.144,-669.303 L -105.909,-669.432 L -105.66,-669.531 L -105.4,-669.597
 L -105.134,-669.631 L -104.866,-669.631 L -104.6,-669.597 L -104.34,-669.531 L -104.091,-669.432 L -103.856,-669.303
 L -103.639,-669.145 L -103.443,-668.962 L -103.273,-668.755 L -103.129,-668.529 L -103.015,-668.286 L -102.932,-668.031
 L -102.882,-667.768 L -102.865,-667.5 L -102.882,-667.232 L -102.932,-666.969 L -103.015,-666.714 L -103.129,-666.471
 L -103.273,-666.245 L -103.443,-666.038 L -103.639,-665.855 L -103.856,-665.697 L -104.091,-665.568 L -104.34,-665.469
 L -104.6,-665.403 L -104.866,-665.369 z
M 104.866,-665.369 L 104.6,-665.403 L 104.34,-665.469 L 104.091,-665.568 L 103.856,-665.697 L 103.639,-665.855
 L 103.443,-666.038 L 103.273,-666.245 L 103.129,-666.471 L 103.015,-666.714 L 102.932,-666.969 L 102.882,-667.232
 L 102.865,-667.5 L 102.882,-667.768 L 102.932,-668.031 L 103.015,-668.286 L 103.129,-668.529 L 103.273,-668.755
 L 103.443,-668.962 L 103.639,-669.145 L 103.856,-669.303 L 104.091,-669.432 L 104.34,-669.531 L 104.6,-669.597
 L 104.866,-669.631 L 105.134,-669.631 L 105.4,-669.597 L 105.66,-669.531 L 105.909,-669.432 L 106.144,-669.303
 L 106.361,-669.145 L 106.557,-668.962 L 106.727,-668.755 L 106.871,-668.529 L 106.985,-668.286 L 107.068,-668.031
 L 107.118,-667.768 L 107.135,-667.5 L 107.118,-667.232 L 107.068,-666.969 L 106.985,-666.714 L 106.871,-666.471
 L 106.727,-666.245 L 106.557,-666.038 L 106.361,-665.855 L 106.144,-665.697 L 105.909,-665.568 L 105.66,-665.469
 L 105.4,-665.403 L 105.134,-665.369 z
" stroke="black" fill="lightgray" stroke-width="0.5"/>
</svg>
