  0
SECTION
  2
BLOCKS
  0
ENDSEC
  0
SECTION
  2
ENTITIES
  0
LINE
  8
0
 10
14.6869
 20
634.589
 11
15.2951
 21
634.745
  0
LINE
  8
0
 10
15.2951
 20
634.745
 11
15.8789
 21
634.976
  0
LINE
  8
0
 10
15.8789
 20
634.976
 11
16.4291
 21
635.278
  0
LINE
  8
0
 10
16.4291
 20
635.278
 11
16.9371
 21
635.647
  0
LINE
  8
0
 10
16.9371
 20
635.647
 11
17.3948
 21
636.077
  0
LINE
  8
0
 10
17.3948
 20
636.077
 11
17.7951
 21
636.561
  0
LINE
  8
0
 10
17.7951
 20
636.561
 11
18.1315
 21
637.091
  0
LINE
  8
0
 10
18.1315
 20
637.091
 11
18.3989
 21
637.659
  0
LINE
  8
0
 10
18.3989
 20
637.659
 11
18.5929
 21
638.257
  0
LINE
  8
0
 10
18.5929
 20
638.257
 11
18.7106
 21
638.873
  0
LINE
  8
0
 10
18.7106
 20
638.873
 11
18.75
 21
639.5
  0
LINE
  8
0
 10
18.75
 20
639.5
 11
18.75
 21
704.5
  0
LINE
  8
0
 10
18.75
 20
704.5
 11
18.7106
 21
705.127
  0
LINE
  8
0
 10
18.7106
 20
705.127
 11
18.5929
 21
705.743
  0
LINE
  8
0
 10
18.5929
 20
705.743
 11
18.3989
 21
706.341
  0
LINE
  8
0
 10
18.3989
 20
706.341
 11
18.1315
 21
706.909
  0
LINE
  8
0
 10
18.1315
 20
706.909
 11
17.7951
 21
707.439
  0
LINE
  8
0
 10
17.7951
 20
707.439
 11
17.3948
 21
707.923
  0
LINE
  8
0
 10
17.3948
 20
707.923
 11
16.9371
 21
708.353
  0
LINE
  8
0
 10
16.9371
 20
708.353
 11
16.4291
 21
708.722
  0
LINE
  8
0
 10
16.4291
 20
708.722
 11
15.8789
 21
709.024
  0
LINE
  8
0
 10
15.8789
 20
709.024
 11
15.2951
 21
709.255
  0
LINE
  8
0
 10
15.2951
 20
709.255
 11
14.6869
 21
709.411
  0
LINE
  8
0
 10
14.6869
 20
709.411
 11
14.0639
 21
709.49
  0
LINE
  8
0
 10
14.0639
 20
709.49
 11
-14.0639
 21
709.49
  0
LINE
  8
0
 10
-14.0639
 20
709.49
 11
-14.6869
 21
709.411
  0
LINE
  8
0
 10
-14.6869
 20
709.411
 11
-15.2951
 21
709.255
  0
LINE
  8
0
 10
-15.2951
 20
709.255
 11
-15.8789
 21
709.024
  0
LINE
  8
0
 10
-15.8789
 20
709.024
 11
-16.4291
 21
708.722
  0
LINE
  8
0
 10
-16.4291
 20
708.722
 11
-16.9371
 21
708.353
  0
LINE
  8
0
 10
-16.9371
 20
708.353
 11
-17.3948
 21
707.923
  0
LINE
  8
0
 10
-17.3948
 20
707.923
 11
-17.7951
 21
707.439
  0
LINE
  8
0
 10
-17.7951
 20
707.439
 11
-18.1315
 21
706.909
  0
LINE
  8
0
 10
-18.1315
 20
706.909
 11
-18.3989
 21
706.341
  0
LINE
  8
0
 10
-18.3989
 20
706.341
 11
-18.5929
 21
705.743
  0
LINE
  8
0
 10
-18.5929
 20
705.743
 11
-18.7106
 21
705.127
  0
LINE
  8
0
 10
-18.7106
 20
705.127
 11
-18.75
 21
704.5
  0
LINE
  8
0
 10
-18.75
 20
704.5
 11
-18.75
 21
639.5
  0
LINE
  8
0
 10
-18.75
 20
639.5
 11
-18.7106
 21
638.873
  0
LINE
  8
0
 10
-18.7106
 20
638.873
 11
-18.5929
 21
638.257
  0
LINE
  8
0
 10
-18.5929
 20
638.257
 11
-18.3989
 21
637.659
  0
LINE
  8
0
 10
-18.3989
 20
637.659
 11
-18.1315
 21
637.091
  0
LINE
  8
0
 10
-18.1315
 20
637.091
 11
-17.7951
 21
636.561
  0
LINE
  8
0
 10
-17.7951
 20
636.561
 11
-17.3948
 21
636.077
  0
LINE
  8
0
 10
-17.3948
 20
636.077
 11
-16.9371
 21
635.647
  0
LINE
  8
0
 10
-16.9371
 20
635.647
 11
-16.4291
 21
635.278
  0
LINE
  8
0
 10
-16.4291
 20
635.278
 11
-15.8789
 21
634.976
  0
LINE
  8
0
 10
-15.8789
 20
634.976
 11
-15.2951
 21
634.745
  0
LINE
  8
0
 10
-15.2951
 20
634.745
 11
-14.6869
 21
634.589
  0
LINE
  8
0
 10
-14.6869
 20
634.589
 11
-14.0639
 21
634.51
  0
LINE
  8
0
 10
-14.0639
 20
634.51
 11
14.0639
 21
634.51
  0
LINE
  8
0
 10
14.0639
 20
634.51
 11
14.6869
 21
634.589
  0
LINE
  8
0
 10
-13.7982
 20
635.009
 11
-14.3901
 21
635.084
  0
LINE
  8
0
 10
-14.3901
 20
635.084
 11
-14.9678
 21
635.232
  0
LINE
  8
0
 10
-14.9678
 20
635.232
 11
-15.5224
 21
635.452
  0
LINE
  8
0
 10
-15.5224
 20
635.452
 11
-16.0452
 21
635.739
  0
LINE
  8
0
 10
-16.0452
 20
635.739
 11
-16.5278
 21
636.09
  0
LINE
  8
0
 10
-16.5278
 20
636.09
 11
-16.9626
 21
636.498
  0
LINE
  8
0
 10
-16.9626
 20
636.498
 11
-17.3428
 21
636.958
  0
LINE
  8
0
 10
-17.3428
 20
636.958
 11
-17.6624
 21
637.462
  0
LINE
  8
0
 10
-17.6624
 20
637.462
 11
-17.9164
 21
638.001
  0
LINE
  8
0
 10
-17.9164
 20
638.001
 11
-18.1008
 21
638.569
  0
LINE
  8
0
 10
-18.1008
 20
638.569
 11
-18.2125
 21
639.155
  0
LINE
  8
0
 10
-18.2125
 20
639.155
 11
-18.25
 21
639.75
  0
LINE
  8
0
 10
-18.25
 20
639.75
 11
-18.25
 21
704.25
  0
LINE
  8
0
 10
-18.25
 20
704.25
 11
-18.2125
 21
704.845
  0
LINE
  8
0
 10
-18.2125
 20
704.845
 11
-18.1008
 21
705.431
  0
LINE
  8
0
 10
-18.1008
 20
705.431
 11
-17.9164
 21
705.999
  0
LINE
  8
0
 10
-17.9164
 20
705.999
 11
-17.6624
 21
706.538
  0
LINE
  8
0
 10
-17.6624
 20
706.538
 11
-17.3428
 21
707.042
  0
LINE
  8
0
 10
-17.3428
 20
707.042
 11
-16.9626
 21
707.502
  0
LINE
  8
0
 10
-16.9626
 20
707.502
 11
-16.5278
 21
707.91
  0
LINE
  8
0
 10
-16.5278
 20
707.91
 11
-16.0452
 21
708.261
  0
LINE
  8
0
 10
-16.0452
 20
708.261
 11
-15.5224
 21
708.548
  0
LINE
  8
0
 10
-15.5224
 20
708.548
 11
-14.9678
 21
708.768
  0
LINE
  8
0
 10
-14.9678
 20
708.768
 11
-14.3901
 21
708.916
  0
LINE
  8
0
 10
-14.3901
 20
708.916
 11
-13.7982
 21
708.991
  0
LINE
  8
0
 10
-13.7982
 20
708.991
 11
13.7982
 21
708.991
  0
LINE
  8
0
 10
13.7982
 20
708.991
 11
14.3901
 21
708.916
  0
LINE
  8
0
 10
14.3901
 20
708.916
 11
14.9678
 21
708.768
  0
LINE
  8
0
 10
14.9678
 20
708.768
 11
15.5224
 21
708.548
  0
LINE
  8
0
 10
15.5224
 20
708.548
 11
16.0452
 21
708.261
  0
LINE
  8
0
 10
16.0452
 20
708.261
 11
16.5278
 21
707.91
  0
LINE
  8
0
 10
16.5278
 20
707.91
 11
16.9626
 21
707.502
  0
LINE
  8
0
 10
16.9626
 20
707.502
 11
17.3428
 21
707.042
  0
LINE
  8
0
 10
17.3428
 20
707.042
 11
17.6624
 21
706.538
  0
LINE
  8
0
 10
17.6624
 20
706.538
 11
17.9164
 21
705.999
  0
LINE
  8
0
 10
17.9164
 20
705.999
 11
18.1008
 21
705.431
  0
LINE
  8
0
 10
18.1008
 20
705.431
 11
18.2125
 21
704.845
  0
LINE
  8
0
 10
18.2125
 20
704.845
 11
18.25
 21
704.25
  0
LINE
  8
0
 10
18.25
 20
704.25
 11
18.25
 21
639.75
  0
LINE
  8
0
 10
18.25
 20
639.75
 11
18.2125
 21
639.155
  0
LINE
  8
0
 10
18.2125
 20
639.155
 11
18.1008
 21
638.569
  0
LINE
  8
0
 10
18.1008
 20
638.569
 11
17.9164
 21
638.001
  0
LINE
  8
0
 10
17.9164
 20
638.001
 11
17.6624
 21
637.462
  0
LINE
  8
0
 10
17.6624
 20
637.462
 11
17.3428
 21
636.958
  0
LINE
  8
0
 10
17.3428
 20
636.958
 11
16.9626
 21
636.498
  0
LINE
  8
0
 10
16.9626
 20
636.498
 11
16.5278
 21
636.09
  0
LINE
  8
0
 10
16.5278
 20
636.09
 11
16.0452
 21
635.739
  0
LINE
  8
0
 10
16.0452
 20
635.739
 11
15.5224
 21
635.452
  0
LINE
  8
0
 10
15.5224
 20
635.452
 11
14.9678
 21
635.232
  0
LINE
  8
0
 10
14.9678
 20
635.232
 11
14.3901
 21
635.084
  0
LINE
  8
0
 10
14.3901
 20
635.084
 11
13.7982
 21
635.009
  0
LINE
  8
0
 10
13.7982
 20
635.009
 11
-13.7982
 21
635.009
  0
LINE
  8
0
 10
14.6869
 20
550.589
 11
15.2951
 21
550.745
  0
LINE
  8
0
 10
15.2951
 20
550.745
 11
15.8789
 21
550.976
  0
LINE
  8
0
 10
15.8789
 20
550.976
 11
16.4291
 21
551.278
  0
LINE
  8
0
 10
16.4291
 20
551.278
 11
16.9371
 21
551.647
  0
LINE
  8
0
 10
16.9371
 20
551.647
 11
17.3948
 21
552.077
  0
LINE
  8
0
 10
17.3948
 20
552.077
 11
17.7951
 21
552.561
  0
LINE
  8
0
 10
17.7951
 20
552.561
 11
18.1315
 21
553.091
  0
LINE
  8
0
 10
18.1315
 20
553.091
 11
18.3989
 21
553.659
  0
LINE
  8
0
 10
18.3989
 20
553.659
 11
18.5929
 21
554.257
  0
LINE
  8
0
 10
18.5929
 20
554.257
 11
18.7106
 21
554.873
  0
LINE
  8
0
 10
18.7106
 20
554.873
 11
18.75
 21
555.5
  0
LINE
  8
0
 10
18.75
 20
555.5
 11
18.75
 21
620.5
  0
LINE
  8
0
 10
18.75
 20
620.5
 11
18.7106
 21
621.127
  0
LINE
  8
0
 10
18.7106
 20
621.127
 11
18.5929
 21
621.743
  0
LINE
  8
0
 10
18.5929
 20
621.743
 11
18.3989
 21
622.341
  0
LINE
  8
0
 10
18.3989
 20
622.341
 11
18.1315
 21
622.909
  0
LINE
  8
0
 10
18.1315
 20
622.909
 11
17.7951
 21
623.439
  0
LINE
  8
0
 10
17.7951
 20
623.439
 11
17.3948
 21
623.923
  0
LINE
  8
0
 10
17.3948
 20
623.923
 11
16.9371
 21
624.353
  0
LINE
  8
0
 10
16.9371
 20
624.353
 11
16.4291
 21
624.722
  0
LINE
  8
0
 10
16.4291
 20
624.722
 11
15.8789
 21
625.024
  0
LINE
  8
0
 10
15.8789
 20
625.024
 11
15.2951
 21
625.255
  0
LINE
  8
0
 10
15.2951
 20
625.255
 11
14.6869
 21
625.411
  0
LINE
  8
0
 10
14.6869
 20
625.411
 11
14.0639
 21
625.49
  0
LINE
  8
0
 10
14.0639
 20
625.49
 11
-14.0639
 21
625.49
  0
LINE
  8
0
 10
-14.0639
 20
625.49
 11
-14.6869
 21
625.411
  0
LINE
  8
0
 10
-14.6869
 20
625.411
 11
-15.2951
 21
625.255
  0
LINE
  8
0
 10
-15.2951
 20
625.255
 11
-15.8789
 21
625.024
  0
LINE
  8
0
 10
-15.8789
 20
625.024
 11
-16.4291
 21
624.722
  0
LINE
  8
0
 10
-16.4291
 20
624.722
 11
-16.9371
 21
624.353
  0
LINE
  8
0
 10
-16.9371
 20
624.353
 11
-17.3948
 21
623.923
  0
LINE
  8
0
 10
-17.3948
 20
623.923
 11
-17.7951
 21
623.439
  0
LINE
  8
0
 10
-17.7951
 20
623.439
 11
-18.1315
 21
622.909
  0
LINE
  8
0
 10
-18.1315
 20
622.909
 11
-18.3989
 21
622.341
  0
LINE
  8
0
 10
-18.3989
 20
622.341
 11
-18.5929
 21
621.743
  0
LINE
  8
0
 10
-18.5929
 20
621.743
 11
-18.7106
 21
621.127
  0
LINE
  8
0
 10
-18.7106
 20
621.127
 11
-18.75
 21
620.5
  0
LINE
  8
0
 10
-18.75
 20
620.5
 11
-18.75
 21
555.5
  0
LINE
  8
0
 10
-18.75
 20
555.5
 11
-18.7106
 21
554.873
  0
LINE
  8
0
 10
-18.7106
 20
554.873
 11
-18.5929
 21
554.257
  0
LINE
  8
0
 10
-18.5929
 20
554.257
 11
-18.3989
 21
553.659
  0
LINE
  8
0
 10
-18.3989
 20
553.659
 11
-18.1315
 21
553.091
  0
LINE
  8
0
 10
-18.1315
 20
553.091
 11
-17.7951
 21
552.561
  0
LINE
  8
0
 10
-17.7951
 20
552.561
 11
-17.3948
 21
552.077
  0
LINE
  8
0
 10
-17.3948
 20
552.077
 11
-16.9371
 21
551.647
  0
LINE
  8
0
 10
-16.9371
 20
551.647
 11
-16.4291
 21
551.278
  0
LINE
  8
0
 10
-16.4291
 20
551.278
 11
-15.8789
 21
550.976
  0
LINE
  8
0
 10
-15.8789
 20
550.976
 11
-15.2951
 21
550.745
  0
LINE
  8
0
 10
-15.2951
 20
550.745
 11
-14.6869
 21
550.589
  0
LINE
  8
0
 10
-14.6869
 20
550.589
 11
-14.0639
 21
550.51
  0
LINE
  8
0
 10
-14.0639
 20
550.51
 11
14.0639
 21
550.51
  0
LINE
  8
0
 10
14.0639
 20
550.51
 11
14.6869
 21
550.589
  0
LINE
  8
0
 10
-13.7982
 20
551.009
 11
-14.3901
 21
551.084
  0
LINE
  8
0
 10
-14.3901
 20
551.084
 11
-14.9678
 21
551.232
  0
LINE
  8
0
 10
-14.9678
 20
551.232
 11
-15.5224
 21
551.452
  0
LINE
  8
0
 10
-15.5224
 20
551.452
 11
-16.0452
 21
551.739
  0
LINE
  8
0
 10
-16.0452
 20
551.739
 11
-16.5278
 21
552.09
  0
LINE
  8
0
 10
-16.5278
 20
552.09
 11
-16.9626
 21
552.498
  0
LINE
  8
0
 10
-16.9626
 20
552.498
 11
-17.3428
 21
552.958
  0
LINE
  8
0
 10
-17.3428
 20
552.958
 11
-17.6624
 21
553.462
  0
LINE
  8
0
 10
-17.6624
 20
553.462
 11
-17.9164
 21
554.001
  0
LINE
  8
0
 10
-17.9164
 20
554.001
 11
-18.1008
 21
554.569
  0
LINE
  8
0
 10
-18.1008
 20
554.569
 11
-18.2125
 21
555.155
  0
LINE
  8
0
 10
-18.2125
 20
555.155
 11
-18.25
 21
555.75
  0
LINE
  8
0
 10
-18.25
 20
555.75
 11
-18.25
 21
620.25
  0
LINE
  8
0
 10
-18.25
 20
620.25
 11
-18.2125
 21
620.845
  0
LINE
  8
0
 10
-18.2125
 20
620.845
 11
-18.1008
 21
621.431
  0
LINE
  8
0
 10
-18.1008
 20
621.431
 11
-17.9164
 21
621.999
  0
LINE
  8
0
 10
-17.9164
 20
621.999
 11
-17.6624
 21
622.538
  0
LINE
  8
0
 10
-17.6624
 20
622.538
 11
-17.3428
 21
623.042
  0
LINE
  8
0
 10
-17.3428
 20
623.042
 11
-16.9626
 21
623.502
  0
LINE
  8
0
 10
-16.9626
 20
623.502
 11
-16.5278
 21
623.91
  0
LINE
  8
0
 10
-16.5278
 20
623.91
 11
-16.0452
 21
624.261
  0
LINE
  8
0
 10
-16.0452
 20
624.261
 11
-15.5224
 21
624.548
  0
LINE
  8
0
 10
-15.5224
 20
624.548
 11
-14.9678
 21
624.768
  0
LINE
  8
0
 10
-14.9678
 20
624.768
 11
-14.3901
 21
624.916
  0
LINE
  8
0
 10
-14.3901
 20
624.916
 11
-13.7982
 21
624.991
  0
LINE
  8
0
 10
-13.7982
 20
624.991
 11
13.7982
 21
624.991
  0
LINE
  8
0
 10
13.7982
 20
624.991
 11
14.3901
 21
624.916
  0
LINE
  8
0
 10
14.3901
 20
624.916
 11
14.9678
 21
624.768
  0
LINE
  8
0
 10
14.9678
 20
624.768
 11
15.5224
 21
624.548
  0
LINE
  8
0
 10
15.5224
 20
624.548
 11
16.0452
 21
624.261
  0
LINE
  8
0
 10
16.0452
 20
624.261
 11
16.5278
 21
623.91
  0
LINE
  8
0
 10
16.5278
 20
623.91
 11
16.9626
 21
623.502
  0
LINE
  8
0
 10
16.9626
 20
623.502
 11
17.3428
 21
623.042
  0
LINE
  8
0
 10
17.3428
 20
623.042
 11
17.6624
 21
622.538
  0
LINE
  8
0
 10
17.6624
 20
622.538
 11
17.9164
 21
621.999
  0
LINE
  8
0
 10
17.9164
 20
621.999
 11
18.1008
 21
621.431
  0
LINE
  8
0
 10
18.1008
 20
621.431
 11
18.2125
 21
620.845
  0
LINE
  8
0
 10
18.2125
 20
620.845
 11
18.25
 21
620.25
  0
LINE
  8
0
 10
18.25
 20
620.25
 11
18.25
 21
555.75
  0
LINE
  8
0
 10
18.25
 20
555.75
 11
18.2125
 21
555.155
  0
LINE
  8
0
 10
18.2125
 20
555.155
 11
18.1008
 21
554.569
  0
LINE
  8
0
 10
18.1008
 20
554.569
 11
17.9164
 21
554.001
  0
LINE
  8
0
 10
17.9164
 20
554.001
 11
17.6624
 21
553.462
  0
LINE
  8
0
 10
17.6624
 20
553.462
 11
17.3428
 21
552.958
  0
LINE
  8
0
 10
17.3428
 20
552.958
 11
16.9626
 21
552.498
  0
LINE
  8
0
 10
16.9626
 20
552.498
 11
16.5278
 21
552.09
  0
LINE
  8
0
 10
16.5278
 20
552.09
 11
16.0452
 21
551.739
  0
LINE
  8
0
 10
16.0452
 20
551.739
 11
15.5224
 21
551.452
  0
LINE
  8
0
 10
15.5224
 20
551.452
 11
14.9678
 21
551.232
  0
LINE
  8
0
 10
14.9678
 20
551.232
 11
14.3901
 21
551.084
  0
LINE
  8
0
 10
14.3901
 20
551.084
 11
13.7982
 21
551.009
  0
LINE
  8
0
 10
13.7982
 20
551.009
 11
-13.7982
 21
551.009
  0
LINE
  8
0
 10
14.6869
 20
466.589
 11
15.2951
 21
466.745
  0
LINE
  8
0
 10
15.2951
 20
466.745
 11
15.8789
 21
466.976
  0
LINE
  8
0
 10
15.8789
 20
466.976
 11
16.4291
 21
467.278
  0
LINE
  8
0
 10
16.4291
 20
467.278
 11
16.9371
 21
467.647
  0
LINE
  8
0
 10
16.9371
 20
467.647
 11
17.3948
 21
468.077
  0
LINE
  8
0
 10
17.3948
 20
468.077
 11
17.7951
 21
468.561
  0
LINE
  8
0
 10
17.7951
 20
468.561
 11
18.1315
 21
469.091
  0
LINE
  8
0
 10
18.1315
 20
469.091
 11
18.3989
 21
469.659
  0
LINE
  8
0
 10
18.3989
 20
469.659
 11
18.5929
 21
470.257
  0
LINE
  8
0
 10
18.5929
 20
470.257
 11
18.7106
 21
470.873
  0
LINE
  8
0
 10
18.7106
 20
470.873
 11
18.75
 21
471.5
  0
LINE
  8
0
 10
18.75
 20
471.5
 11
18.75
 21
536.5
  0
LINE
  8
0
 10
18.75
 20
536.5
 11
18.7106
 21
537.127
  0
LINE
  8
0
 10
18.7106
 20
537.127
 11
18.5929
 21
537.743
  0
LINE
  8
0
 10
18.5929
 20
537.743
 11
18.3989
 21
538.341
  0
LINE
  8
0
 10
18.3989
 20
538.341
 11
18.1315
 21
538.909
  0
LINE
  8
0
 10
18.1315
 20
538.909
 11
17.7951
 21
539.439
  0
LINE
  8
0
 10
17.7951
 20
539.439
 11
17.3948
 21
539.923
  0
LINE
  8
0
 10
17.3948
 20
539.923
 11
16.9371
 21
540.353
  0
LINE
  8
0
 10
16.9371
 20
540.353
 11
16.4291
 21
540.722
  0
LINE
  8
0
 10
16.4291
 20
540.722
 11
15.8789
 21
541.024
  0
LINE
  8
0
 10
15.8789
 20
541.024
 11
15.2951
 21
541.255
  0
LINE
  8
0
 10
15.2951
 20
541.255
 11
14.6869
 21
541.411
  0
LINE
  8
0
 10
14.6869
 20
541.411
 11
14.0639
 21
541.49
  0
LINE
  8
0
 10
14.0639
 20
541.49
 11
-14.0639
 21
541.49
  0
LINE
  8
0
 10
-14.0639
 20
541.49
 11
-14.6869
 21
541.411
  0
LINE
  8
0
 10
-14.6869
 20
541.411
 11
-15.2951
 21
541.255
  0
LINE
  8
0
 10
-15.2951
 20
541.255
 11
-15.8789
 21
541.024
  0
LINE
  8
0
 10
-15.8789
 20
541.024
 11
-16.4291
 21
540.722
  0
LINE
  8
0
 10
-16.4291
 20
540.722
 11
-16.9371
 21
540.353
  0
LINE
  8
0
 10
-16.9371
 20
540.353
 11
-17.3948
 21
539.923
  0
LINE
  8
0
 10
-17.3948
 20
539.923
 11
-17.7951
 21
539.439
  0
LINE
  8
0
 10
-17.7951
 20
539.439
 11
-18.1315
 21
538.909
  0
LINE
  8
0
 10
-18.1315
 20
538.909
 11
-18.3989
 21
538.341
  0
LINE
  8
0
 10
-18.3989
 20
538.341
 11
-18.5929
 21
537.743
  0
LINE
  8
0
 10
-18.5929
 20
537.743
 11
-18.7106
 21
537.127
  0
LINE
  8
0
 10
-18.7106
 20
537.127
 11
-18.75
 21
536.5
  0
LINE
  8
0
 10
-18.75
 20
536.5
 11
-18.75
 21
471.5
  0
LINE
  8
0
 10
-18.75
 20
471.5
 11
-18.7106
 21
470.873
  0
LINE
  8
0
 10
-18.7106
 20
470.873
 11
-18.5929
 21
470.257
  0
LINE
  8
0
 10
-18.5929
 20
470.257
 11
-18.3989
 21
469.659
  0
LINE
  8
0
 10
-18.3989
 20
469.659
 11
-18.1315
 21
469.091
  0
LINE
  8
0
 10
-18.1315
 20
469.091
 11
-17.7951
 21
468.561
  0
LINE
  8
0
 10
-17.7951
 20
468.561
 11
-17.3948
 21
468.077
  0
LINE
  8
0
 10
-17.3948
 20
468.077
 11
-16.9371
 21
467.647
  0
LINE
  8
0
 10
-16.9371
 20
467.647
 11
-16.4291
 21
467.278
  0
LINE
  8
0
 10
-16.4291
 20
467.278
 11
-15.8789
 21
466.976
  0
LINE
  8
0
 10
-15.8789
 20
466.976
 11
-15.2951
 21
466.745
  0
LINE
  8
0
 10
-15.2951
 20
466.745
 11
-14.6869
 21
466.589
  0
LINE
  8
0
 10
-14.6869
 20
466.589
 11
-14.0639
 21
466.51
  0
LINE
  8
0
 10
-14.0639
 20
466.51
 11
14.0639
 21
466.51
  0
LINE
  8
0
 10
14.0639
 20
466.51
 11
14.6869
 21
466.589
  0
LINE
  8
0
 10
-13.7982
 20
467.009
 11
-14.3901
 21
467.084
  0
LINE
  8
0
 10
-14.3901
 20
467.084
 11
-14.9678
 21
467.232
  0
LINE
  8
0
 10
-14.9678
 20
467.232
 11
-15.5224
 21
467.452
  0
LINE
  8
0
 10
-15.5224
 20
467.452
 11
-16.0452
 21
467.739
  0
LINE
  8
0
 10
-16.0452
 20
467.739
 11
-16.5278
 21
468.09
  0
LINE
  8
0
 10
-16.5278
 20
468.09
 11
-16.9626
 21
468.498
  0
LINE
  8
0
 10
-16.9626
 20
468.498
 11
-17.3428
 21
468.958
  0
LINE
  8
0
 10
-17.3428
 20
468.958
 11
-17.6624
 21
469.462
  0
LINE
  8
0
 10
-17.6624
 20
469.462
 11
-17.9164
 21
470.001
  0
LINE
  8
0
 10
-17.9164
 20
470.001
 11
-18.1008
 21
470.569
  0
LINE
  8
0
 10
-18.1008
 20
470.569
 11
-18.2125
 21
471.155
  0
LINE
  8
0
 10
-18.2125
 20
471.155
 11
-18.25
 21
471.75
  0
LINE
  8
0
 10
-18.25
 20
471.75
 11
-18.25
 21
536.25
  0
LINE
  8
0
 10
-18.25
 20
536.25
 11
-18.2125
 21
536.845
  0
LINE
  8
0
 10
-18.2125
 20
536.845
 11
-18.1008
 21
537.431
  0
LINE
  8
0
 10
-18.1008
 20
537.431
 11
-17.9164
 21
537.999
  0
LINE
  8
0
 10
-17.9164
 20
537.999
 11
-17.6624
 21
538.538
  0
LINE
  8
0
 10
-17.6624
 20
538.538
 11
-17.3428
 21
539.042
  0
LINE
  8
0
 10
-17.3428
 20
539.042
 11
-16.9626
 21
539.502
  0
LINE
  8
0
 10
-16.9626
 20
539.502
 11
-16.5278
 21
539.91
  0
LINE
  8
0
 10
-16.5278
 20
539.91
 11
-16.0452
 21
540.261
  0
LINE
  8
0
 10
-16.0452
 20
540.261
 11
-15.5224
 21
540.548
  0
LINE
  8
0
 10
-15.5224
 20
540.548
 11
-14.9678
 21
540.768
  0
LINE
  8
0
 10
-14.9678
 20
540.768
 11
-14.3901
 21
540.916
  0
LINE
  8
0
 10
-14.3901
 20
540.916
 11
-13.7982
 21
540.991
  0
LINE
  8
0
 10
-13.7982
 20
540.991
 11
13.7982
 21
540.991
  0
LINE
  8
0
 10
13.7982
 20
540.991
 11
14.3901
 21
540.916
  0
LINE
  8
0
 10
14.3901
 20
540.916
 11
14.9678
 21
540.768
  0
LINE
  8
0
 10
14.9678
 20
540.768
 11
15.5224
 21
540.548
  0
LINE
  8
0
 10
15.5224
 20
540.548
 11
16.0452
 21
540.261
  0
LINE
  8
0
 10
16.0452
 20
540.261
 11
16.5278
 21
539.91
  0
LINE
  8
0
 10
16.5278
 20
539.91
 11
16.9626
 21
539.502
  0
LINE
  8
0
 10
16.9626
 20
539.502
 11
17.3428
 21
539.042
  0
LINE
  8
0
 10
17.3428
 20
539.042
 11
17.6624
 21
538.538
  0
LINE
  8
0
 10
17.6624
 20
538.538
 11
17.9164
 21
537.999
  0
LINE
  8
0
 10
17.9164
 20
537.999
 11
18.1008
 21
537.431
  0
LINE
  8
0
 10
18.1008
 20
537.431
 11
18.2125
 21
536.845
  0
LINE
  8
0
 10
18.2125
 20
536.845
 11
18.25
 21
536.25
  0
LINE
  8
0
 10
18.25
 20
536.25
 11
18.25
 21
471.75
  0
LINE
  8
0
 10
18.25
 20
471.75
 11
18.2125
 21
471.155
  0
LINE
  8
0
 10
18.2125
 20
471.155
 11
18.1008
 21
470.569
  0
LINE
  8
0
 10
18.1008
 20
470.569
 11
17.9164
 21
470.001
  0
LINE
  8
0
 10
17.9164
 20
470.001
 11
17.6624
 21
469.462
  0
LINE
  8
0
 10
17.6624
 20
469.462
 11
17.3428
 21
468.958
  0
LINE
  8
0
 10
17.3428
 20
468.958
 11
16.9626
 21
468.498
  0
LINE
  8
0
 10
16.9626
 20
468.498
 11
16.5278
 21
468.09
  0
LINE
  8
0
 10
16.5278
 20
468.09
 11
16.0452
 21
467.739
  0
LINE
  8
0
 10
16.0452
 20
467.739
 11
15.5224
 21
467.452
  0
LINE
  8
0
 10
15.5224
 20
467.452
 11
14.9678
 21
467.232
  0
LINE
  8
0
 10
14.9678
 20
467.232
 11
14.3901
 21
467.084
  0
LINE
  8
0
 10
14.3901
 20
467.084
 11
13.7982
 21
467.009
  0
LINE
  8
0
 10
13.7982
 20
467.009
 11
-13.7982
 21
467.009
  0
LINE
  8
0
 10
14.6869
 20
382.589
 11
15.2951
 21
382.745
  0
LINE
  8
0
 10
15.2951
 20
382.745
 11
15.8789
 21
382.976
  0
LINE
  8
0
 10
15.8789
 20
382.976
 11
16.4291
 21
383.278
  0
LINE
  8
0
 10
16.4291
 20
383.278
 11
16.9371
 21
383.647
  0
LINE
  8
0
 10
16.9371
 20
383.647
 11
17.3948
 21
384.077
  0
LINE
  8
0
 10
17.3948
 20
384.077
 11
17.7951
 21
384.561
  0
LINE
  8
0
 10
17.7951
 20
384.561
 11
18.1315
 21
385.091
  0
LINE
  8
0
 10
18.1315
 20
385.091
 11
18.3989
 21
385.659
  0
LINE
  8
0
 10
18.3989
 20
385.659
 11
18.5929
 21
386.257
  0
LINE
  8
0
 10
18.5929
 20
386.257
 11
18.7106
 21
386.873
  0
LINE
  8
0
 10
18.7106
 20
386.873
 11
18.75
 21
387.5
  0
LINE
  8
0
 10
18.75
 20
387.5
 11
18.75
 21
452.5
  0
LINE
  8
0
 10
18.75
 20
452.5
 11
18.7106
 21
453.127
  0
LINE
  8
0
 10
18.7106
 20
453.127
 11
18.5929
 21
453.743
  0
LINE
  8
0
 10
18.5929
 20
453.743
 11
18.3989
 21
454.341
  0
LINE
  8
0
 10
18.3989
 20
454.341
 11
18.1315
 21
454.909
  0
LINE
  8
0
 10
18.1315
 20
454.909
 11
17.7951
 21
455.439
  0
LINE
  8
0
 10
17.7951
 20
455.439
 11
17.3948
 21
455.923
  0
LINE
  8
0
 10
17.3948
 20
455.923
 11
16.9371
 21
456.353
  0
LINE
  8
0
 10
16.9371
 20
456.353
 11
16.4291
 21
456.722
  0
LINE
  8
0
 10
16.4291
 20
456.722
 11
15.8789
 21
457.024
  0
LINE
  8
0
 10
15.8789
 20
457.024
 11
15.2951
 21
457.255
  0
LINE
  8
0
 10
15.2951
 20
457.255
 11
14.6869
 21
457.411
  0
LINE
  8
0
 10
14.6869
 20
457.411
 11
14.0639
 21
457.49
  0
LINE
  8
0
 10
14.0639
 20
457.49
 11
-14.0639
 21
457.49
  0
LINE
  8
0
 10
-14.0639
 20
457.49
 11
-14.6869
 21
457.411
  0
LINE
  8
0
 10
-14.6869
 20
457.411
 11
-15.2951
 21
457.255
  0
LINE
  8
0
 10
-15.2951
 20
457.255
 11
-15.8789
 21
457.024
  0
LINE
  8
0
 10
-15.8789
 20
457.024
 11
-16.4291
 21
456.722
  0
LINE
  8
0
 10
-16.4291
 20
456.722
 11
-16.9371
 21
456.353
  0
LINE
  8
0
 10
-16.9371
 20
456.353
 11
-17.3948
 21
455.923
  0
LINE
  8
0
 10
-17.3948
 20
455.923
 11
-17.7951
 21
455.439
  0
LINE
  8
0
 10
-17.7951
 20
455.439
 11
-18.1315
 21
454.909
  0
LINE
  8
0
 10
-18.1315
 20
454.909
 11
-18.3989
 21
454.341
  0
LINE
  8
0
 10
-18.3989
 20
454.341
 11
-18.5929
 21
453.743
  0
LINE
  8
0
 10
-18.5929
 20
453.743
 11
-18.7106
 21
453.127
  0
LINE
  8
0
 10
-18.7106
 20
453.127
 11
-18.75
 21
452.5
  0
LINE
  8
0
 10
-18.75
 20
452.5
 11
-18.75
 21
387.5
  0
LINE
  8
0
 10
-18.75
 20
387.5
 11
-18.7106
 21
386.873
  0
LINE
  8
0
 10
-18.7106
 20
386.873
 11
-18.5929
 21
386.257
  0
LINE
  8
0
 10
-18.5929
 20
386.257
 11
-18.3989
 21
385.659
  0
LINE
  8
0
 10
-18.3989
 20
385.659
 11
-18.1315
 21
385.091
  0
LINE
  8
0
 10
-18.1315
 20
385.091
 11
-17.7951
 21
384.561
  0
LINE
  8
0
 10
-17.7951
 20
384.561
 11
-17.3948
 21
384.077
  0
LINE
  8
0
 10
-17.3948
 20
384.077
 11
-16.9371
 21
383.647
  0
LINE
  8
0
 10
-16.9371
 20
383.647
 11
-16.4291
 21
383.278
  0
LINE
  8
0
 10
-16.4291
 20
383.278
 11
-15.8789
 21
382.976
  0
LINE
  8
0
 10
-15.8789
 20
382.976
 11
-15.2951
 21
382.745
  0
LINE
  8
0
 10
-15.2951
 20
382.745
 11
-14.6869
 21
382.589
  0
LINE
  8
0
 10
-14.6869
 20
382.589
 11
-14.0639
 21
382.51
  0
LINE
  8
0
 10
-14.0639
 20
382.51
 11
14.0639
 21
382.51
  0
LINE
  8
0
 10
14.0639
 20
382.51
 11
14.6869
 21
382.589
  0
LINE
  8
0
 10
-13.743
 20
383.888
 11
-14.2251
 21
383.949
  0
LINE
  8
0
 10
-14.2251
 20
383.949
 11
-14.6957
 21
384.07
  0
LINE
  8
0
 10
-14.6957
 20
384.07
 11
-15.1475
 21
384.249
  0
LINE
  8
0
 10
-15.1475
 20
384.249
 11
-15.5734
 21
384.483
  0
LINE
  8
0
 10
-15.5734
 20
384.483
 11
-15.9665
 21
384.769
  0
LINE
  8
0
 10
-15.9665
 20
384.769
 11
-16.3207
 21
385.101
  0
LINE
  8
0
 10
-16.3207
 20
385.101
 11
-16.6305
 21
385.476
  0
LINE
  8
0
 10
-16.6305
 20
385.476
 11
-16.8908
 21
385.886
  0
LINE
  8
0
 10
-16.8908
 20
385.886
 11
-17.0977
 21
386.326
  0
LINE
  8
0
 10
-17.0977
 20
386.326
 11
-17.2479
 21
386.788
  0
LINE
  8
0
 10
-17.2479
 20
386.788
 11
-17.339
 21
387.265
  0
LINE
  8
0
 10
-17.339
 20
387.265
 11
-17.3695
 21
387.75
  0
LINE
  8
0
 10
-17.3695
 20
387.75
 11
-17.3695
 21
452.25
  0
LINE
  8
0
 10
-17.3695
 20
452.25
 11
-17.339
 21
452.735
  0
LINE
  8
0
 10
-17.339
 20
452.735
 11
-17.2479
 21
453.212
  0
LINE
  8
0
 10
-17.2479
 20
453.212
 11
-17.0977
 21
453.674
  0
LINE
  8
0
 10
-17.0977
 20
453.674
 11
-16.8908
 21
454.114
  0
LINE
  8
0
 10
-16.8908
 20
454.114
 11
-16.6305
 21
454.524
  0
LINE
  8
0
 10
-16.6305
 20
454.524
 11
-16.3207
 21
454.899
  0
LINE
  8
0
 10
-16.3207
 20
454.899
 11
-15.9665
 21
455.231
  0
LINE
  8
0
 10
-15.9665
 20
455.231
 11
-15.5734
 21
455.517
  0
LINE
  8
0
 10
-15.5734
 20
455.517
 11
-15.1475
 21
455.751
  0
LINE
  8
0
 10
-15.1475
 20
455.751
 11
-14.6957
 21
455.93
  0
LINE
  8
0
 10
-14.6957
 20
455.93
 11
-14.2251
 21
456.051
  0
LINE
  8
0
 10
-14.2251
 20
456.051
 11
-13.743
 21
456.112
  0
LINE
  8
0
 10
-13.743
 20
456.112
 11
13.743
 21
456.112
  0
LINE
  8
0
 10
13.743
 20
456.112
 11
14.2251
 21
456.051
  0
LINE
  8
0
 10
14.2251
 20
456.051
 11
14.6957
 21
455.93
  0
LINE
  8
0
 10
14.6957
 20
455.93
 11
15.1475
 21
455.751
  0
LINE
  8
0
 10
15.1475
 20
455.751
 11
15.5734
 21
455.517
  0
LINE
  8
0
 10
15.5734
 20
455.517
 11
15.9665
 21
455.231
  0
LINE
  8
0
 10
15.9665
 20
455.231
 11
16.3207
 21
454.899
  0
LINE
  8
0
 10
16.3207
 20
454.899
 11
16.6305
 21
454.524
  0
LINE
  8
0
 10
16.6305
 20
454.524
 11
16.8908
 21
454.114
  0
LINE
  8
0
 10
16.8908
 20
454.114
 11
17.0977
 21
453.674
  0
LINE
  8
0
 10
17.0977
 20
453.674
 11
17.2479
 21
453.212
  0
LINE
  8
0
 10
17.2479
 20
453.212
 11
17.339
 21
452.735
  0
LINE
  8
0
 10
17.339
 20
452.735
 11
17.3695
 21
452.25
  0
LINE
  8
0
 10
17.3695
 20
452.25
 11
17.3695
 21
387.75
  0
LINE
  8
0
 10
17.3695
 20
387.75
 11
17.339
 21
387.265
  0
LINE
  8
0
 10
17.339
 20
387.265
 11
17.2479
 21
386.788
  0
LINE
  8
0
 10
17.2479
 20
386.788
 11
17.0977
 21
386.326
  0
LINE
  8
0
 10
17.0977
 20
386.326
 11
16.8908
 21
385.886
  0
LINE
  8
0
 10
16.8908
 20
385.886
 11
16.6305
 21
385.476
  0
LINE
  8
0
 10
16.6305
 20
385.476
 11
16.3207
 21
385.101
  0
LINE
  8
0
 10
16.3207
 20
385.101
 11
15.9665
 21
384.769
  0
LINE
  8
0
 10
15.9665
 20
384.769
 11
15.5734
 21
384.483
  0
LINE
  8
0
 10
15.5734
 20
384.483
 11
15.1475
 21
384.249
  0
LINE
  8
0
 10
15.1475
 20
384.249
 11
14.6957
 21
384.07
  0
LINE
  8
0
 10
14.6957
 20
384.07
 11
14.2251
 21
383.949
  0
LINE
  8
0
 10
14.2251
 20
383.949
 11
13.743
 21
383.888
  0
LINE
  8
0
 10
13.743
 20
383.888
 11
-13.743
 21
383.888
  0
LINE
  8
0
 10
14.6869
 20
298.589
 11
15.2951
 21
298.745
  0
LINE
  8
0
 10
15.2951
 20
298.745
 11
15.8789
 21
298.976
  0
LINE
  8
0
 10
15.8789
 20
298.976
 11
16.4291
 21
299.278
  0
LINE
  8
0
 10
16.4291
 20
299.278
 11
16.9371
 21
299.647
  0
LINE
  8
0
 10
16.9371
 20
299.647
 11
17.3948
 21
300.077
  0
LINE
  8
0
 10
17.3948
 20
300.077
 11
17.7951
 21
300.561
  0
LINE
  8
0
 10
17.7951
 20
300.561
 11
18.1315
 21
301.091
  0
LINE
  8
0
 10
18.1315
 20
301.091
 11
18.3989
 21
301.659
  0
LINE
  8
0
 10
18.3989
 20
301.659
 11
18.5929
 21
302.257
  0
LINE
  8
0
 10
18.5929
 20
302.257
 11
18.7106
 21
302.873
  0
LINE
  8
0
 10
18.7106
 20
302.873
 11
18.75
 21
303.5
  0
LINE
  8
0
 10
18.75
 20
303.5
 11
18.75
 21
368.5
  0
LINE
  8
0
 10
18.75
 20
368.5
 11
18.7106
 21
369.127
  0
LINE
  8
0
 10
18.7106
 20
369.127
 11
18.5929
 21
369.743
  0
LINE
  8
0
 10
18.5929
 20
369.743
 11
18.3989
 21
370.341
  0
LINE
  8
0
 10
18.3989
 20
370.341
 11
18.1315
 21
370.909
  0
LINE
  8
0
 10
18.1315
 20
370.909
 11
17.7951
 21
371.439
  0
LINE
  8
0
 10
17.7951
 20
371.439
 11
17.3948
 21
371.923
  0
LINE
  8
0
 10
17.3948
 20
371.923
 11
16.9371
 21
372.353
  0
LINE
  8
0
 10
16.9371
 20
372.353
 11
16.4291
 21
372.722
  0
LINE
  8
0
 10
16.4291
 20
372.722
 11
15.8789
 21
373.024
  0
LINE
  8
0
 10
15.8789
 20
373.024
 11
15.2951
 21
373.255
  0
LINE
  8
0
 10
15.2951
 20
373.255
 11
14.6869
 21
373.411
  0
LINE
  8
0
 10
14.6869
 20
373.411
 11
14.0639
 21
373.49
  0
LINE
  8
0
 10
14.0639
 20
373.49
 11
-14.0639
 21
373.49
  0
LINE
  8
0
 10
-14.0639
 20
373.49
 11
-14.6869
 21
373.411
  0
LINE
  8
0
 10
-14.6869
 20
373.411
 11
-15.2951
 21
373.255
  0
LINE
  8
0
 10
-15.2951
 20
373.255
 11
-15.8789
 21
373.024
  0
LINE
  8
0
 10
-15.8789
 20
373.024
 11
-16.4291
 21
372.722
  0
LINE
  8
0
 10
-16.4291
 20
372.722
 11
-16.9371
 21
372.353
  0
LINE
  8
0
 10
-16.9371
 20
372.353
 11
-17.3948
 21
371.923
  0
LINE
  8
0
 10
-17.3948
 20
371.923
 11
-17.7951
 21
371.439
  0
LINE
  8
0
 10
-17.7951
 20
371.439
 11
-18.1315
 21
370.909
  0
LINE
  8
0
 10
-18.1315
 20
370.909
 11
-18.3989
 21
370.341
  0
LINE
  8
0
 10
-18.3989
 20
370.341
 11
-18.5929
 21
369.743
  0
LINE
  8
0
 10
-18.5929
 20
369.743
 11
-18.7106
 21
369.127
  0
LINE
  8
0
 10
-18.7106
 20
369.127
 11
-18.75
 21
368.5
  0
LINE
  8
0
 10
-18.75
 20
368.5
 11
-18.75
 21
303.5
  0
LINE
  8
0
 10
-18.75
 20
303.5
 11
-18.7106
 21
302.873
  0
LINE
  8
0
 10
-18.7106
 20
302.873
 11
-18.5929
 21
302.257
  0
LINE
  8
0
 10
-18.5929
 20
302.257
 11
-18.3989
 21
301.659
  0
LINE
  8
0
 10
-18.3989
 20
301.659
 11
-18.1315
 21
301.091
  0
LINE
  8
0
 10
-18.1315
 20
301.091
 11
-17.7951
 21
300.561
  0
LINE
  8
0
 10
-17.7951
 20
300.561
 11
-17.3948
 21
300.077
  0
LINE
  8
0
 10
-17.3948
 20
300.077
 11
-16.9371
 21
299.647
  0
LINE
  8
0
 10
-16.9371
 20
299.647
 11
-16.4291
 21
299.278
  0
LINE
  8
0
 10
-16.4291
 20
299.278
 11
-15.8789
 21
298.976
  0
LINE
  8
0
 10
-15.8789
 20
298.976
 11
-15.2951
 21
298.745
  0
LINE
  8
0
 10
-15.2951
 20
298.745
 11
-14.6869
 21
298.589
  0
LINE
  8
0
 10
-14.6869
 20
298.589
 11
-14.0639
 21
298.51
  0
LINE
  8
0
 10
-14.0639
 20
298.51
 11
14.0639
 21
298.51
  0
LINE
  8
0
 10
14.0639
 20
298.51
 11
14.6869
 21
298.589
  0
LINE
  8
0
 10
-11.363
 20
364.204
 11
-11.5873
 21
364.232
  0
LINE
  8
0
 10
-11.5873
 20
364.232
 11
-11.8062
 21
364.288
  0
LINE
  8
0
 10
-11.8062
 20
364.288
 11
-12.0164
 21
364.371
  0
LINE
  8
0
 10
-12.0164
 20
364.371
 11
-12.2145
 21
364.48
  0
LINE
  8
0
 10
-12.2145
 20
364.48
 11
-12.3974
 21
364.613
  0
LINE
  8
0
 10
-12.3974
 20
364.613
 11
-12.5621
 21
364.768
  0
LINE
  8
0
 10
-12.5621
 20
364.768
 11
-12.7062
 21
364.942
  0
LINE
  8
0
 10
-12.7062
 20
364.942
 11
-12.8273
 21
365.133
  0
LINE
  8
0
 10
-12.8273
 20
365.133
 11
-12.9236
 21
365.337
  0
LINE
  8
0
 10
-12.9236
 20
365.337
 11
-12.9934
 21
365.552
  0
LINE
  8
0
 10
-12.9934
 20
365.552
 11
-13.0358
 21
365.774
  0
LINE
  8
0
 10
-13.0358
 20
365.774
 11
-13.05
 21
366
  0
LINE
  8
0
 10
-13.05
 20
366
 11
-13.0358
 21
366.226
  0
LINE
  8
0
 10
-13.0358
 20
366.226
 11
-12.9934
 21
366.448
  0
LINE
  8
0
 10
-12.9934
 20
366.448
 11
-12.9236
 21
366.663
  0
LINE
  8
0
 10
-12.9236
 20
366.663
 11
-12.8273
 21
366.867
  0
LINE
  8
0
 10
-12.8273
 20
366.867
 11
-12.7062
 21
367.058
  0
LINE
  8
0
 10
-12.7062
 20
367.058
 11
-12.5621
 21
367.232
  0
LINE
  8
0
 10
-12.5621
 20
367.232
 11
-12.3974
 21
367.387
  0
LINE
  8
0
 10
-12.3974
 20
367.387
 11
-12.2145
 21
367.52
  0
LINE
  8
0
 10
-12.2145
 20
367.52
 11
-12.0164
 21
367.629
  0
LINE
  8
0
 10
-12.0164
 20
367.629
 11
-11.8062
 21
367.712
  0
LINE
  8
0
 10
-11.8062
 20
367.712
 11
-11.5873
 21
367.768
  0
LINE
  8
0
 10
-11.5873
 20
367.768
 11
-11.363
 21
367.796
  0
LINE
  8
0
 10
-11.363
 20
367.796
 11
-11.137
 21
367.796
  0
LINE
  8
0
 10
-11.137
 20
367.796
 11
-10.9127
 21
367.768
  0
LINE
  8
0
 10
-10.9127
 20
367.768
 11
-10.6938
 21
367.712
  0
LINE
  8
0
 10
-10.6938
 20
367.712
 11
-10.4836
 21
367.629
  0
LINE
  8
0
 10
-10.4836
 20
367.629
 11
-10.2855
 21
367.52
  0
LINE
  8
0
 10
-10.2855
 20
367.52
 11
-10.1026
 21
367.387
  0
LINE
  8
0
 10
-10.1026
 20
367.387
 11
-9.93785
 21
367.232
  0
LINE
  8
0
 10
-9.93785
 20
367.232
 11
-9.79376
 21
367.058
  0
LINE
  8
0
 10
-9.79376
 20
367.058
 11
-9.67264
 21
366.867
  0
LINE
  8
0
 10
-9.67264
 20
366.867
 11
-9.5764
 21
366.663
  0
LINE
  8
0
 10
-9.5764
 20
366.663
 11
-9.50655
 21
366.448
  0
LINE
  8
0
 10
-9.50655
 20
366.448
 11
-9.46419
 21
366.226
  0
LINE
  8
0
 10
-9.46419
 20
366.226
 11
-9.45
 21
366
  0
LINE
  8
0
 10
-9.45
 20
366
 11
-9.46419
 21
365.774
  0
LINE
  8
0
 10
-9.46419
 20
365.774
 11
-9.50655
 21
365.552
  0
LINE
  8
0
 10
-9.50655
 20
365.552
 11
-9.5764
 21
365.337
  0
LINE
  8
0
 10
-9.5764
 20
365.337
 11
-9.67264
 21
365.133
  0
LINE
  8
0
 10
-9.67264
 20
365.133
 11
-9.79376
 21
364.942
  0
LINE
  8
0
 10
-9.79376
 20
364.942
 11
-9.93785
 21
364.768
  0
LINE
  8
0
 10
-9.93785
 20
364.768
 11
-10.1026
 21
364.613
  0
LINE
  8
0
 10
-10.1026
 20
364.613
 11
-10.2855
 21
364.48
  0
LINE
  8
0
 10
-10.2855
 20
364.48
 11
-10.4836
 21
364.371
  0
LINE
  8
0
 10
-10.4836
 20
364.371
 11
-10.6938
 21
364.288
  0
LINE
  8
0
 10
-10.6938
 20
364.288
 11
-10.9127
 21
364.232
  0
LINE
  8
0
 10
-10.9127
 20
364.232
 11
-11.137
 21
364.204
  0
LINE
  8
0
 10
-11.137
 20
364.204
 11
-11.363
 21
364.204
  0
LINE
  8
0
 10
11.137
 20
364.204
 11
10.9127
 21
364.232
  0
LINE
  8
0
 10
10.9127
 20
364.232
 11
10.6938
 21
364.288
  0
LINE
  8
0
 10
10.6938
 20
364.288
 11
10.4836
 21
364.371
  0
LINE
  8
0
 10
10.4836
 20
364.371
 11
10.2855
 21
364.48
  0
LINE
  8
0
 10
10.2855
 20
364.48
 11
10.1026
 21
364.613
  0
LINE
  8
0
 10
10.1026
 20
364.613
 11
9.93785
 21
364.768
  0
LINE
  8
0
 10
9.93785
 20
364.768
 11
9.79376
 21
364.942
  0
LINE
  8
0
 10
9.79376
 20
364.942
 11
9.67264
 21
365.133
  0
LINE
  8
0
 10
9.67264
 20
365.133
 11
9.5764
 21
365.337
  0
LINE
  8
0
 10
9.5764
 20
365.337
 11
9.50655
 21
365.552
  0
LINE
  8
0
 10
9.50655
 20
365.552
 11
9.46419
 21
365.774
  0
LINE
  8
0
 10
9.46419
 20
365.774
 11
9.45
 21
366
  0
LINE
  8
0
 10
9.45
 20
366
 11
9.46419
 21
366.226
  0
LINE
  8
0
 10
9.46419
 20
366.226
 11
9.50655
 21
366.448
  0
LINE
  8
0
 10
9.50655
 20
366.448
 11
9.5764
 21
366.663
  0
LINE
  8
0
 10
9.5764
 20
366.663
 11
9.67264
 21
366.867
  0
LINE
  8
0
 10
9.67264
 20
366.867
 11
9.79376
 21
367.058
  0
LINE
  8
0
 10
9.79376
 20
367.058
 11
9.93785
 21
367.232
  0
LINE
  8
0
 10
9.93785
 20
367.232
 11
10.1026
 21
367.387
  0
LINE
  8
0
 10
10.1026
 20
367.387
 11
10.2855
 21
367.52
  0
LINE
  8
0
 10
10.2855
 20
367.52
 11
10.4836
 21
367.629
  0
LINE
  8
0
 10
10.4836
 20
367.629
 11
10.6938
 21
367.712
  0
LINE
  8
0
 10
10.6938
 20
367.712
 11
10.9127
 21
367.768
  0
LINE
  8
0
 10
10.9127
 20
367.768
 11
11.137
 21
367.796
  0
LINE
  8
0
 10
11.137
 20
367.796
 11
11.363
 21
367.796
  0
LINE
  8
0
 10
11.363
 20
367.796
 11
11.5873
 21
367.768
  0
LINE
  8
0
 10
11.5873
 20
367.768
 11
11.8062
 21
367.712
  0
LINE
  8
0
 10
11.8062
 20
367.712
 11
12.0164
 21
367.629
  0
LINE
  8
0
 10
12.0164
 20
367.629
 11
12.2145
 21
367.52
  0
LINE
  8
0
 10
12.2145
 20
367.52
 11
12.3974
 21
367.387
  0
LINE
  8
0
 10
12.3974
 20
367.387
 11
12.5621
 21
367.232
  0
LINE
  8
0
 10
12.5621
 20
367.232
 11
12.7062
 21
367.058
  0
LINE
  8
0
 10
12.7062
 20
367.058
 11
12.8273
 21
366.867
  0
LINE
  8
0
 10
12.8273
 20
366.867
 11
12.9236
 21
366.663
  0
LINE
  8
0
 10
12.9236
 20
366.663
 11
12.9934
 21
366.448
  0
LINE
  8
0
 10
12.9934
 20
366.448
 11
13.0358
 21
366.226
  0
LINE
  8
0
 10
13.0358
 20
366.226
 11
13.05
 21
366
  0
LINE
  8
0
 10
13.05
 20
366
 11
13.0358
 21
365.774
  0
LINE
  8
0
 10
13.0358
 20
365.774
 11
12.9934
 21
365.552
  0
LINE
  8
0
 10
12.9934
 20
365.552
 11
12.9236
 21
365.337
  0
LINE
  8
0
 10
12.9236
 20
365.337
 11
12.8273
 21
365.133
  0
LINE
  8
0
 10
12.8273
 20
365.133
 11
12.7062
 21
364.942
  0
LINE
  8
0
 10
12.7062
 20
364.942
 11
12.5621
 21
364.768
  0
LINE
  8
0
 10
12.5621
 20
364.768
 11
12.3974
 21
364.613
  0
LINE
  8
0
 10
12.3974
 20
364.613
 11
12.2145
 21
364.48
  0
LINE
  8
0
 10
12.2145
 20
364.48
 11
12.0164
 21
364.371
  0
LINE
  8
0
 10
12.0164
 20
364.371
 11
11.8062
 21
364.288
  0
LINE
  8
0
 10
11.8062
 20
364.288
 11
11.5873
 21
364.232
  0
LINE
  8
0
 10
11.5873
 20
364.232
 11
11.363
 21
364.204
  0
LINE
  8
0
 10
11.363
 20
364.204
 11
11.137
 21
364.204
  0
LINE
  8
0
 10
-11.363
 20
304.204
 11
-11.5873
 21
304.232
  0
LINE
  8
0
 10
-11.5873
 20
304.232
 11
-11.8062
 21
304.288
  0
LINE
  8
0
 10
-11.8062
 20
304.288
 11
-12.0164
 21
304.371
  0
LINE
  8
0
 10
-12.0164
 20
304.371
 11
-12.2145
 21
304.48
  0
LINE
  8
0
 10
-12.2145
 20
304.48
 11
-12.3974
 21
304.613
  0
LINE
  8
0
 10
-12.3974
 20
304.613
 11
-12.5621
 21
304.768
  0
LINE
  8
0
 10
-12.5621
 20
304.768
 11
-12.7062
 21
304.942
  0
LINE
  8
0
 10
-12.7062
 20
304.942
 11
-12.8273
 21
305.133
  0
LINE
  8
0
 10
-12.8273
 20
305.133
 11
-12.9236
 21
305.337
  0
LINE
  8
0
 10
-12.9236
 20
305.337
 11
-12.9934
 21
305.552
  0
LINE
  8
0
 10
-12.9934
 20
305.552
 11
-13.0358
 21
305.774
  0
LINE
  8
0
 10
-13.0358
 20
305.774
 11
-13.05
 21
306
  0
LINE
  8
0
 10
-13.05
 20
306
 11
-13.0358
 21
306.226
  0
LINE
  8
0
 10
-13.0358
 20
306.226
 11
-12.9934
 21
306.448
  0
LINE
  8
0
 10
-12.9934
 20
306.448
 11
-12.9236
 21
306.663
  0
LINE
  8
0
 10
-12.9236
 20
306.663
 11
-12.8273
 21
306.867
  0
LINE
  8
0
 10
-12.8273
 20
306.867
 11
-12.7062
 21
307.058
  0
LINE
  8
0
 10
-12.7062
 20
307.058
 11
-12.5621
 21
307.232
  0
LINE
  8
0
 10
-12.5621
 20
307.232
 11
-12.3974
 21
307.387
  0
LINE
  8
0
 10
-12.3974
 20
307.387
 11
-12.2145
 21
307.52
  0
LINE
  8
0
 10
-12.2145
 20
307.52
 11
-12.0164
 21
307.629
  0
LINE
  8
0
 10
-12.0164
 20
307.629
 11
-11.8062
 21
307.712
  0
LINE
  8
0
 10
-11.8062
 20
307.712
 11
-11.5873
 21
307.768
  0
LINE
  8
0
 10
-11.5873
 20
307.768
 11
-11.363
 21
307.796
  0
LINE
  8
0
 10
-11.363
 20
307.796
 11
-11.137
 21
307.796
  0
LINE
  8
0
 10
-11.137
 20
307.796
 11
-10.9127
 21
307.768
  0
LINE
  8
0
 10
-10.9127
 20
307.768
 11
-10.6938
 21
307.712
  0
LINE
  8
0
 10
-10.6938
 20
307.712
 11
-10.4836
 21
307.629
  0
LINE
  8
0
 10
-10.4836
 20
307.629
 11
-10.2855
 21
307.52
  0
LINE
  8
0
 10
-10.2855
 20
307.52
 11
-10.1026
 21
307.387
  0
LINE
  8
0
 10
-10.1026
 20
307.387
 11
-9.93785
 21
307.232
  0
LINE
  8
0
 10
-9.93785
 20
307.232
 11
-9.79376
 21
307.058
  0
LINE
  8
0
 10
-9.79376
 20
307.058
 11
-9.67264
 21
306.867
  0
LINE
  8
0
 10
-9.67264
 20
306.867
 11
-9.5764
 21
306.663
  0
LINE
  8
0
 10
-9.5764
 20
306.663
 11
-9.50655
 21
306.448
  0
LINE
  8
0
 10
-9.50655
 20
306.448
 11
-9.46419
 21
306.226
  0
LINE
  8
0
 10
-9.46419
 20
306.226
 11
-9.45
 21
306
  0
LINE
  8
0
 10
-9.45
 20
306
 11
-9.46419
 21
305.774
  0
LINE
  8
0
 10
-9.46419
 20
305.774
 11
-9.50655
 21
305.552
  0
LINE
  8
0
 10
-9.50655
 20
305.552
 11
-9.5764
 21
305.337
  0
LINE
  8
0
 10
-9.5764
 20
305.337
 11
-9.67264
 21
305.133
  0
LINE
  8
0
 10
-9.67264
 20
305.133
 11
-9.79376
 21
304.942
  0
LINE
  8
0
 10
-9.79376
 20
304.942
 11
-9.93785
 21
304.768
  0
LINE
  8
0
 10
-9.93785
 20
304.768
 11
-10.1026
 21
304.613
  0
LINE
  8
0
 10
-10.1026
 20
304.613
 11
-10.2855
 21
304.48
  0
LINE
  8
0
 10
-10.2855
 20
304.48
 11
-10.4836
 21
304.371
  0
LINE
  8
0
 10
-10.4836
 20
304.371
 11
-10.6938
 21
304.288
  0
LINE
  8
0
 10
-10.6938
 20
304.288
 11
-10.9127
 21
304.232
  0
LINE
  8
0
 10
-10.9127
 20
304.232
 11
-11.137
 21
304.204
  0
LINE
  8
0
 10
-11.137
 20
304.204
 11
-11.363
 21
304.204
  0
LINE
  8
0
 10
11.137
 20
304.204
 11
10.9127
 21
304.232
  0
LINE
  8
0
 10
10.9127
 20
304.232
 11
10.6938
 21
304.288
  0
LINE
  8
0
 10
10.6938
 20
304.288
 11
10.4836
 21
304.371
  0
LINE
  8
0
 10
10.4836
 20
304.371
 11
10.2855
 21
304.48
  0
LINE
  8
0
 10
10.2855
 20
304.48
 11
10.1026
 21
304.613
  0
LINE
  8
0
 10
10.1026
 20
304.613
 11
9.93785
 21
304.768
  0
LINE
  8
0
 10
9.93785
 20
304.768
 11
9.79376
 21
304.942
  0
LINE
  8
0
 10
9.79376
 20
304.942
 11
9.67264
 21
305.133
  0
LINE
  8
0
 10
9.67264
 20
305.133
 11
9.5764
 21
305.337
  0
LINE
  8
0
 10
9.5764
 20
305.337
 11
9.50655
 21
305.552
  0
LINE
  8
0
 10
9.50655
 20
305.552
 11
9.46419
 21
305.774
  0
LINE
  8
0
 10
9.46419
 20
305.774
 11
9.45
 21
306
  0
LINE
  8
0
 10
9.45
 20
306
 11
9.46419
 21
306.226
  0
LINE
  8
0
 10
9.46419
 20
306.226
 11
9.50655
 21
306.448
  0
LINE
  8
0
 10
9.50655
 20
306.448
 11
9.5764
 21
306.663
  0
LINE
  8
0
 10
9.5764
 20
306.663
 11
9.67264
 21
306.867
  0
LINE
  8
0
 10
9.67264
 20
306.867
 11
9.79376
 21
307.058
  0
LINE
  8
0
 10
9.79376
 20
307.058
 11
9.93785
 21
307.232
  0
LINE
  8
0
 10
9.93785
 20
307.232
 11
10.1026
 21
307.387
  0
LINE
  8
0
 10
10.1026
 20
307.387
 11
10.2855
 21
307.52
  0
LINE
  8
0
 10
10.2855
 20
307.52
 11
10.4836
 21
307.629
  0
LINE
  8
0
 10
10.4836
 20
307.629
 11
10.6938
 21
307.712
  0
LINE
  8
0
 10
10.6938
 20
307.712
 11
10.9127
 21
307.768
  0
LINE
  8
0
 10
10.9127
 20
307.768
 11
11.137
 21
307.796
  0
LINE
  8
0
 10
11.137
 20
307.796
 11
11.363
 21
307.796
  0
LINE
  8
0
 10
11.363
 20
307.796
 11
11.5873
 21
307.768
  0
LINE
  8
0
 10
11.5873
 20
307.768
 11
11.8062
 21
307.712
  0
LINE
  8
0
 10
11.8062
 20
307.712
 11
12.0164
 21
307.629
  0
LINE
  8
0
 10
12.0164
 20
307.629
 11
12.2145
 21
307.52
  0
LINE
  8
0
 10
12.2145
 20
307.52
 11
12.3974
 21
307.387
  0
LINE
  8
0
 10
12.3974
 20
307.387
 11
12.5621
 21
307.232
  0
LINE
  8
0
 10
12.5621
 20
307.232
 11
12.7062
 21
307.058
  0
LINE
  8
0
 10
12.7062
 20
307.058
 11
12.8273
 21
306.867
  0
LINE
  8
0
 10
12.8273
 20
306.867
 11
12.9236
 21
306.663
  0
LINE
  8
0
 10
12.9236
 20
306.663
 11
12.9934
 21
306.448
  0
LINE
  8
0
 10
12.9934
 20
306.448
 11
13.0358
 21
306.226
  0
LINE
  8
0
 10
13.0358
 20
306.226
 11
13.05
 21
306
  0
LINE
  8
0
 10
13.05
 20
306
 11
13.0358
 21
305.774
  0
LINE
  8
0
 10
13.0358
 20
305.774
 11
12.9934
 21
305.552
  0
LINE
  8
0
 10
12.9934
 20
305.552
 11
12.9236
 21
305.337
  0
LINE
  8
0
 10
12.9236
 20
305.337
 11
12.8273
 21
305.133
  0
LINE
  8
0
 10
12.8273
 20
305.133
 11
12.7062
 21
304.942
  0
LINE
  8
0
 10
12.7062
 20
304.942
 11
12.5621
 21
304.768
  0
LINE
  8
0
 10
12.5621
 20
304.768
 11
12.3974
 21
304.613
  0
LINE
  8
0
 10
12.3974
 20
304.613
 11
12.2145
 21
304.48
  0
LINE
  8
0
 10
12.2145
 20
304.48
 11
12.0164
 21
304.371
  0
LINE
  8
0
 10
12.0164
 20
304.371
 11
11.8062
 21
304.288
  0
LINE
  8
0
 10
11.8062
 20
304.288
 11
11.5873
 21
304.232
  0
LINE
  8
0
 10
11.5873
 20
304.232
 11
11.363
 21
304.204
  0
LINE
  8
0
 10
11.363
 20
304.204
 11
11.137
 21
304.204
  0
ENDSEC
  0
SECTION
  2
OBJECTS
  0
DICTIONARY
  0
ENDSEC
  0
EOF
