<?xml version="1.0" standalone="no"?>
<!DOCTYPE svg PUBLIC "-//W3C//DTD SVG 1.1//EN" "http://www.w3.org/Graphics/SVG/1.1/DTD/svg11.dtd">
<svg width="76mm" height="784mm" viewBox="-38 -1448 76 784" xmlns="http://www.w3.org/2000/svg" version="1.1">
<title>OpenSCAD Model</title>
<path d="
M 33.4369,-1192.59 L 34.0451,-1192.74 L 34.6289,-1192.98 L 35.1791,-1193.28 L 35.6871,-1193.65 L 36.1448,-1194.08
 L 36.5451,-1194.56 L 36.8815,-1195.09 L 37.1489,-1195.66 L 37.3429,-1196.26 L 37.4606,-1196.87 L 37.5,-1197.5
 L 37.5,-1442.5 L 37.4606,-1443.13 L 37.3429,-1443.74 L 37.1489,-1444.34 L 36.8815,-1444.91 L 36.5451,-1445.44
 L 36.1448,-1445.92 L 35.6871,-1446.35 L 35.1791,-1446.72 L 34.6289,-1447.02 L 34.0451,-1447.26 L 33.4369,-1447.41
 L 32.8139,-1447.49 L -32.8139,-1447.49 L -33.4369,-1447.41 L -34.0451,-1447.26 L -34.6289,-1447.02 L -35.1791,-1446.72
 L -35.6871,-1446.35 L -36.1448,-1445.92 L -36.5451,-1445.44 L -36.8815,-1444.91 L -37.1489,-1444.34 L -37.3429,-1443.74
 L -37.4606,-1443.13 L -37.5,-1442.5 L -37.5,-1197.5 L -37.4606,-1196.87 L -37.3429,-1196.26 L -37.1489,-1195.66
 L -36.8815,-1195.09 L -36.5451,-1194.56 L -36.1448,-1194.08 L -35.6871,-1193.65 L -35.1791,-1193.28 L -34.6289,-1192.98
 L -34.0451,-1192.74 L -33.4369,-1192.59 L -32.8139,-1192.51 L 32.8139,-1192.51 z
M -32.2512,-1194.01 L -32.7495,-1194.07 L -33.2361,-1194.2 L -33.7031,-1194.38 L -34.1433,-1194.62 L -34.5497,-1194.92
 L -34.9159,-1195.26 L -35.2361,-1195.65 L -35.5052,-1196.07 L -35.7191,-1196.53 L -35.8743,-1197.01 L -35.9685,-1197.5
 L -36,-1198 L -36,-1442 L -35.9685,-1442.5 L -35.8743,-1442.99 L -35.7191,-1443.47 L -35.5052,-1443.93
 L -35.2361,-1444.35 L -34.9159,-1444.74 L -34.5497,-1445.08 L -34.1433,-1445.38 L -33.7031,-1445.62 L -33.2361,-1445.8
 L -32.7495,-1445.93 L -32.2512,-1445.99 L 32.2512,-1445.99 L 32.7495,-1445.93 L 33.2361,-1445.8 L 33.7031,-1445.62
 L 34.1433,-1445.38 L 34.5497,-1445.08 L 34.9159,-1444.74 L 35.2361,-1444.35 L 35.5052,-1443.93 L 35.7191,-1443.47
 L 35.8743,-1442.99 L 35.9685,-1442.5 L 36,-1442 L 36,-1198 L 35.9685,-1197.5 L 35.8743,-1197.01
 L 35.7191,-1196.53 L 35.5052,-1196.07 L 35.2361,-1195.65 L 34.9159,-1195.26 L 34.5497,-1194.92 L 34.1433,-1194.62
 L 33.7031,-1194.38 L 33.2361,-1194.2 L 32.7495,-1194.07 L 32.2512,-1194.01 z
M 33.4369,-928.589 L 34.0451,-928.745 L 34.6289,-928.976 L 35.1791,-929.278 L 35.6871,-929.647 L 36.1448,-930.077
 L 36.5451,-930.561 L 36.8815,-931.091 L 37.1489,-931.659 L 37.3429,-932.257 L 37.4606,-932.873 L 37.5,-933.5
 L 37.5,-1178.5 L 37.4606,-1179.13 L 37.3429,-1179.74 L 37.1489,-1180.34 L 36.8815,-1180.91 L 36.5451,-1181.44
 L 36.1448,-1181.92 L 35.6871,-1182.35 L 35.1791,-1182.72 L 34.6289,-1183.02 L 34.0451,-1183.26 L 33.4369,-1183.41
 L 32.8139,-1183.49 L -32.8139,-1183.49 L -33.4369,-1183.41 L -34.0451,-1183.26 L -34.6289,-1183.02 L -35.1791,-1182.72
 L -35.6871,-1182.35 L -36.1448,-1181.92 L -36.5451,-1181.44 L -36.8815,-1180.91 L -37.1489,-1180.34 L -37.3429,-1179.74
 L -37.4606,-1179.13 L -37.5,-1178.5 L -37.5,-933.5 L -37.4606,-932.873 L -37.3429,-932.257 L -37.1489,-931.659
 L -36.8815,-931.091 L -36.5451,-930.561 L -36.1448,-930.077 L -35.6871,-929.647 L -35.1791,-929.278 L -34.6289,-928.976
 L -34.0451,-928.745 L -33.4369,-928.589 L -32.8139,-928.51 L 32.8139,-928.51 z
M -32.1954,-930.893 L -32.5833,-930.942 L -32.9619,-931.039 L -33.3254,-931.183 L -33.668,-931.372 L -33.9842,-931.601
 L -34.2692,-931.869 L -34.5184,-932.17 L -34.7279,-932.5 L -34.8943,-932.854 L -35.0151,-933.226 L -35.0884,-933.61
 L -35.1129,-934 L -35.1129,-1178 L -35.0884,-1178.39 L -35.0151,-1178.77 L -34.8943,-1179.15 L -34.7279,-1179.5
 L -34.5184,-1179.83 L -34.2692,-1180.13 L -33.9842,-1180.4 L -33.668,-1180.63 L -33.3254,-1180.82 L -32.9619,-1180.96
 L -32.5833,-1181.06 L -32.1954,-1181.11 L 32.1954,-1181.11 L 32.5833,-1181.06 L 32.9619,-1180.96 L 33.3254,-1180.82
 L 33.668,-1180.63 L 33.9842,-1180.4 L 34.2692,-1180.13 L 34.5184,-1179.83 L 34.7279,-1179.5 L 34.8943,-1179.15
 L 35.0151,-1178.77 L 35.0884,-1178.39 L 35.1129,-1178 L 35.1129,-934 L 35.0884,-933.61 L 35.0151,-933.226
 L 34.8943,-932.854 L 34.7279,-932.5 L 34.5184,-932.17 L 34.2692,-931.869 L 33.9842,-931.601 L 33.668,-931.372
 L 33.3254,-931.183 L 32.9619,-931.039 L 32.5833,-930.942 L 32.1954,-930.893 z
M 33.4369,-664.589 L 34.0451,-664.745 L 34.6289,-664.976 L 35.1791,-665.278 L 35.6871,-665.647 L 36.1448,-666.077
 L 36.5451,-666.561 L 36.8815,-667.091 L 37.1489,-667.659 L 37.3429,-668.257 L 37.4606,-668.873 L 37.5,-669.5
 L 37.5,-914.5 L 37.4606,-915.127 L 37.3429,-915.743 L 37.1489,-916.341 L 36.8815,-916.909 L 36.5451,-917.439
 L 36.1448,-917.923 L 35.6871,-918.353 L 35.1791,-918.722 L 34.6289,-919.024 L 34.0451,-919.255 L 33.4369,-919.411
 L 32.8139,-919.49 L -32.8139,-919.49 L -33.4369,-919.411 L -34.0451,-919.255 L -34.6289,-919.024 L -35.1791,-918.722
 L -35.6871,-918.353 L -36.1448,-917.923 L -36.5451,-917.439 L -36.8815,-916.909 L -37.1489,-916.341 L -37.3429,-915.743
 L -37.4606,-915.127 L -37.5,-914.5 L -37.5,-669.5 L -37.4606,-668.873 L -37.3429,-668.257 L -37.1489,-667.659
 L -36.8815,-667.091 L -36.5451,-666.561 L -36.1448,-666.077 L -35.6871,-665.647 L -35.1791,-665.278 L -34.6289,-664.976
 L -34.0451,-664.745 L -33.4369,-664.589 L -32.8139,-664.51 L 32.8139,-664.51 z
M 29.8659,-909.869 L 29.5999,-909.903 L 29.3401,-909.969 L 29.0908,-910.068 L 28.8559,-910.197 L 28.6389,-910.355
 L 28.4434,-910.538 L 28.2725,-910.745 L 28.1288,-910.971 L 28.0146,-911.214 L 27.9318,-911.469 L 27.8815,-911.732
 L 27.8647,-912 L 27.8815,-912.268 L 27.9318,-912.531 L 28.0146,-912.786 L 28.1288,-913.029 L 28.2725,-913.255
 L 28.4434,-913.462 L 28.6389,-913.645 L 28.8559,-913.803 L 29.0908,-913.932 L 29.3401,-914.031 L 29.5999,-914.097
 L 29.8659,-914.131 L 30.1341,-914.131 L 30.4001,-914.097 L 30.6598,-914.031 L 30.9091,-913.932 L 31.1441,-913.803
 L 31.3611,-913.645 L 31.5565,-913.462 L 31.7275,-913.255 L 31.8712,-913.029 L 31.9853,-912.786 L 32.0682,-912.531
 L 32.1185,-912.268 L 32.1353,-912 L 32.1185,-911.732 L 32.0682,-911.469 L 31.9853,-911.214 L 31.8712,-910.971
 L 31.7275,-910.745 L 31.5565,-910.538 L 31.3611,-910.355 L 31.1441,-910.197 L 30.9091,-910.068 L 30.6598,-909.969
 L 30.4001,-909.903 L 30.1341,-909.869 z
M -30.1341,-909.869 L -30.4001,-909.903 L -30.6598,-909.969 L -30.9091,-910.068 L -31.1441,-910.197 L -31.3611,-910.355
 L -31.5565,-910.538 L -31.7275,-910.745 L -31.8712,-910.971 L -31.9853,-911.214 L -32.0682,-911.469 L -32.1185,-911.732
 L -32.1353,-912 L -32.1185,-912.268 L -32.0682,-912.531 L -31.9853,-912.786 L -31.8712,-913.029 L -31.7275,-913.255
 L -31.5565,-913.462 L -31.3611,-913.645 L -31.1441,-913.803 L -30.9091,-913.932 L -30.6598,-914.031 L -30.4001,-914.097
 L -30.1341,-914.131 L -29.8659,-914.131 L -29.5999,-914.097 L -29.3401,-914.031 L -29.0908,-913.932 L -28.8559,-913.803
 L -28.6389,-913.645 L -28.4434,-913.462 L -28.2725,-913.255 L -28.1288,-913.029 L -28.0146,-912.786 L -27.9318,-912.531
 L -27.8815,-912.268 L -27.8647,-912 L -27.8815,-911.732 L -27.9318,-911.469 L -28.0146,-911.214 L -28.1288,-910.971
 L -28.2725,-910.745 L -28.4434,-910.538 L -28.6389,-910.355 L -28.8559,-910.197 L -29.0908,-910.068 L -29.3401,-909.969
 L -29.5999,-909.903 L -29.8659,-909.869 z
M 29.8659,-669.869 L 29.5999,-669.903 L 29.3401,-669.969 L 29.0908,-670.068 L 28.8559,-670.197 L 28.6389,-670.355
 L 28.4434,-670.538 L 28.2725,-670.745 L 28.1288,-670.971 L 28.0146,-671.214 L 27.9318,-671.469 L 27.8815,-671.732
 L 27.8647,-672 L 27.8815,-672.268 L 27.9318,-672.531 L 28.0146,-672.786 L 28.1288,-673.029 L 28.2725,-673.255
 L 28.4434,-673.462 L 28.6389,-673.645 L 28.8559,-673.803 L 29.0908,-673.932 L 29.3401,-674.031 L 29.5999,-674.097
 L 29.8659,-674.131 L 30.1341,-674.131 L 30.4001,-674.097 L 30.6598,-674.031 L 30.9091,-673.932 L 31.1441,-673.803
 L 31.3611,-673.645 L 31.5565,-673.462 L 31.7275,-673.255 L 31.8712,-673.029 L 31.9853,-672.786 L 32.0682,-672.531
 L 32.1185,-672.268 L 32.1353,-672 L 32.1185,-671.732 L 32.0682,-671.469 L 31.9853,-671.214 L 31.8712,-670.971
 L 31.7275,-670.745 L 31.5565,-670.538 L 31.3611,-670.355 L 31.1441,-670.197 L 30.9091,-670.068 L 30.6598,-669.969
 L 30.4001,-669.903 L 30.1341,-669.869 z
M -30.1341,-669.869 L -30.4001,-669.903 L -30.6598,-669.969 L -30.9091,-670.068 L -31.1441,-670.197 L -31.3611,-670.355
 L -31.5565,-670.538 L -31.7275,-670.745 L -31.8712,-670.971 L -31.9853,-671.214 L -32.0682,-671.469 L -32.1185,-671.732
 L -32.1353,-672 L -32.1185,-672.268 L -32.0682,-672.531 L -31.9853,-672.786 L -31.8712,-673.029 L -31.7275,-673.255
 L -31.5565,-673.462 L -31.3611,-673.645 L -31.1441,-673.803 L -30.9091,-673.932 L -30.6598,-674.031 L -30.4001,-674.097
 L -30.1341,-674.131 L -29.8659,-674.131 L -29.5999,-674.097 L -29.3401,-674.031 L -29.0908,-673.932 L -28.8559,-673.803
 L -28.6389,-673.645 L -28.4434,-673.462 L -28.2725,-673.255 L -28.1288,-673.029 L -28.0146,-672.786 L -27.9318,-672.531
 L -27.8815,-672.268 L -27.8647,-672 L -27.8815,-671.732 L -27.9318,-671.469 L -28.0146,-671.214 L -28.1288,-670.971
 L -28.2725,-670.745 L -28.4434,-670.538 L -28.6389,-670.355 L -28.8559,-670.197 L -29.0908,-670.068 L -29.3401,-669.969
 L -29.5999,-669.903 L -29.8659,-669.869 z
" stroke="black" fill="lightgray" stroke-width="0.5"/>
</svg>
