<?xml version="1.0" standalone="no"?>
<!DOCTYPE svg PUBLIC "-//W3C//DTD SVG 1.1//EN" "http://www.w3.org/Graphics/SVG/1.1/DTD/svg11.dtd">
<svg width="210mm" height="448mm" viewBox="-105 -737 210 448" xmlns="http://www.w3.org/2000/svg" version="1.1">
<title>OpenSCAD Model</title>
<path d="
M 100.937,-631.589 L 101.545,-631.745 L 102.129,-631.976 L 102.679,-632.278 L 103.187,-632.647 L 103.645,-633.077
 L 104.045,-633.561 L 104.382,-634.091 L 104.649,-634.659 L 104.843,-635.257 L 104.961,-635.873 L 105,-636.5
 L 105,-731.5 L 104.961,-732.127 L 104.843,-732.743 L 104.649,-733.341 L 104.382,-733.909 L 104.045,-734.439
 L 103.645,-734.923 L 103.187,-735.353 L 102.679,-735.722 L 102.129,-736.024 L 101.545,-736.255 L 100.937,-736.411
 L 100.314,-736.49 L -100.314,-736.49 L -100.937,-736.411 L -101.545,-736.255 L -102,-736.075 L -102,-736.115
 L -105,-736.115 L -105,-631.885 L -102,-631.885 L -102,-631.925 L -101.545,-631.745 L -100.937,-631.589
 L -100.314,-631.51 L 100.314,-631.51 z
M -99.7512,-633.008 L -100.25,-633.071 L -100.736,-633.196 L -101.203,-633.381 L -101.643,-633.623 L -102.05,-633.918
 L -102.416,-634.262 L -102.736,-634.649 L -103.005,-635.073 L -103.219,-635.528 L -103.374,-636.005 L -103.468,-636.499
 L -103.5,-637 L -103.5,-731 L -103.468,-731.501 L -103.374,-731.995 L -103.219,-732.472 L -103.005,-732.927
 L -102.736,-733.351 L -102.416,-733.738 L -102.05,-734.082 L -101.643,-734.377 L -101.203,-734.619 L -100.736,-734.804
 L -100.25,-734.929 L -99.7512,-734.992 L 99.7512,-734.992 L 100.25,-734.929 L 100.736,-734.804 L 101.203,-734.619
 L 101.643,-734.377 L 102.05,-734.082 L 102.416,-733.738 L 102.736,-733.351 L 103.005,-732.927 L 103.219,-732.472
 L 103.374,-731.995 L 103.468,-731.501 L 103.5,-731 L 103.5,-637 L 103.468,-636.499 L 103.374,-636.005
 L 103.219,-635.528 L 103.005,-635.073 L 102.736,-634.649 L 102.416,-634.262 L 102.05,-633.918 L 101.643,-633.623
 L 101.203,-633.381 L 100.736,-633.196 L 100.25,-633.071 L 99.7512,-633.008 z
M 100.937,-517.589 L 101.545,-517.745 L 102.129,-517.976 L 102.679,-518.278 L 103.187,-518.647 L 103.645,-519.077
 L 104.045,-519.561 L 104.382,-520.091 L 104.649,-520.659 L 104.843,-521.257 L 104.961,-521.873 L 105,-522.5
 L 105,-617.5 L 104.961,-618.127 L 104.843,-618.743 L 104.649,-619.341 L 104.382,-619.909 L 104.045,-620.439
 L 103.645,-620.923 L 103.187,-621.353 L 102.679,-621.722 L 102.129,-622.024 L 101.545,-622.255 L 100.937,-622.411
 L 100.314,-622.49 L -100.314,-622.49 L -100.937,-622.411 L -101.545,-622.255 L -102.129,-622.024 L -102.679,-621.722
 L -103.187,-621.353 L -103.645,-620.923 L -104.045,-620.439 L -104.382,-619.909 L -104.649,-619.341 L -104.843,-618.743
 L -104.9,-618.444 L -105,-618.444 L -105,-521.556 L -104.9,-521.556 L -104.843,-521.257 L -104.649,-520.659
 L -104.382,-520.091 L -104.045,-519.561 L -103.645,-519.077 L -103.187,-518.647 L -102.679,-518.278 L -102.129,-517.976
 L -101.545,-517.745 L -100.937,-517.589 L -100.314,-517.51 L 100.314,-517.51 z
M -99.7432,-519.135 L -100.226,-519.196 L -100.697,-519.317 L -101.149,-519.496 L -101.575,-519.73 L -101.969,-520.016
 L -102.323,-520.349 L -102.633,-520.724 L -102.894,-521.134 L -103.101,-521.574 L -103.251,-522.037 L -103.342,-522.515
 L -103.373,-523 L -103.373,-617 L -103.342,-617.485 L -103.251,-617.963 L -103.101,-618.426 L -102.894,-618.866
 L -102.633,-619.276 L -102.323,-619.651 L -101.969,-619.984 L -101.575,-620.27 L -101.149,-620.504 L -100.697,-620.683
 L -100.226,-620.804 L -99.7432,-620.865 L 99.7432,-620.865 L 100.226,-620.804 L 100.697,-620.683 L 101.149,-620.504
 L 101.575,-620.27 L 101.969,-619.984 L 102.323,-619.651 L 102.633,-619.276 L 102.894,-618.866 L 103.101,-618.426
 L 103.251,-617.963 L 103.342,-617.485 L 103.373,-617 L 103.373,-523 L 103.342,-522.515 L 103.251,-522.037
 L 103.101,-521.574 L 102.894,-521.134 L 102.633,-520.724 L 102.323,-520.349 L 101.969,-520.016 L 101.575,-519.73
 L 101.149,-519.496 L 100.697,-519.317 L 100.226,-519.196 L 99.7432,-519.135 z
M 100.937,-403.589 L 101.545,-403.745 L 102.129,-403.976 L 102.679,-404.278 L 103.187,-404.647 L 103.645,-405.077
 L 104.045,-405.561 L 104.382,-406.091 L 104.649,-406.659 L 104.843,-407.257 L 104.961,-407.873 L 105,-408.5
 L 105,-503.5 L 104.961,-504.127 L 104.843,-504.743 L 104.649,-505.341 L 104.382,-505.909 L 104.045,-506.439
 L 103.645,-506.923 L 103.187,-507.353 L 102.679,-507.722 L 102.129,-508.024 L 101.545,-508.255 L 100.937,-508.411
 L 100.314,-508.49 L -100.314,-508.49 L -100.937,-508.411 L -101.545,-508.255 L -102.129,-508.024 L -102.679,-507.722
 L -103.187,-507.353 L -103.645,-506.923 L -104.045,-506.439 L -104.382,-505.909 L -104.649,-505.341 L -104.843,-504.743
 L -104.961,-504.127 L -105,-503.5 L -105,-408.5 L -104.961,-407.873 L -104.843,-407.257 L -104.649,-406.659
 L -104.382,-406.091 L -104.045,-405.561 L -103.645,-405.077 L -103.187,-404.647 L -102.679,-404.278 L -102.129,-403.976
 L -101.545,-403.745 L -100.937,-403.589 L -100.314,-403.51 L 100.314,-403.51 z
M -97.6507,-498.605 L -97.9497,-498.643 L -98.2416,-498.717 L -98.5219,-498.828 L -98.786,-498.974 L -99.0298,-499.151
 L -99.2495,-499.357 L -99.4416,-499.589 L -99.6031,-499.844 L -99.7315,-500.117 L -99.8246,-500.403 L -99.8811,-500.699
 L -99.9,-501 L -99.8811,-501.301 L -99.8246,-501.597 L -99.7315,-501.883 L -99.6031,-502.156 L -99.4416,-502.411
 L -99.2495,-502.643 L -99.0298,-502.849 L -98.786,-503.026 L -98.5219,-503.172 L -98.2416,-503.283 L -97.9497,-503.357
 L -97.6507,-503.395 L -97.3493,-503.395 L -97.0503,-503.357 L -96.7584,-503.283 L -96.4781,-503.172 L -96.214,-503.026
 L -95.9702,-502.849 L -95.7505,-502.643 L -95.5583,-502.411 L -95.3969,-502.156 L -95.2685,-501.883 L -95.1754,-501.597
 L -95.1189,-501.301 L -95.1,-501 L -95.1189,-500.699 L -95.1754,-500.403 L -95.2685,-500.117 L -95.3969,-499.844
 L -95.5583,-499.589 L -95.7505,-499.357 L -95.9702,-499.151 L -96.214,-498.974 L -96.4781,-498.828 L -96.7584,-498.717
 L -97.0503,-498.643 L -97.3493,-498.605 z
M 97.3493,-498.605 L 97.0503,-498.643 L 96.7584,-498.717 L 96.4781,-498.828 L 96.214,-498.974 L 95.9702,-499.151
 L 95.7505,-499.357 L 95.5583,-499.589 L 95.3969,-499.844 L 95.2685,-500.117 L 95.1754,-500.403 L 95.1189,-500.699
 L 95.1,-501 L 95.1189,-501.301 L 95.1754,-501.597 L 95.2685,-501.883 L 95.3969,-502.156 L 95.5583,-502.411
 L 95.7505,-502.643 L 95.9702,-502.849 L 96.214,-503.026 L 96.4781,-503.172 L 96.7584,-503.283 L 97.0503,-503.357
 L 97.3493,-503.395 L 97.6507,-503.395 L 97.9497,-503.357 L 98.2416,-503.283 L 98.5219,-503.172 L 98.786,-503.026
 L 99.0298,-502.849 L 99.2495,-502.643 L 99.4416,-502.411 L 99.6031,-502.156 L 99.7315,-501.883 L 99.8246,-501.597
 L 99.8811,-501.301 L 99.9,-501 L 99.8811,-500.699 L 99.8246,-500.403 L 99.7315,-500.117 L 99.6031,-499.844
 L 99.4416,-499.589 L 99.2495,-499.357 L 99.0298,-499.151 L 98.786,-498.974 L 98.5219,-498.828 L 98.2416,-498.717
 L 97.9497,-498.643 L 97.6507,-498.605 z
M 97.3493,-408.605 L 97.0503,-408.643 L 96.7584,-408.717 L 96.4781,-408.828 L 96.214,-408.974 L 95.9702,-409.151
 L 95.7505,-409.357 L 95.5583,-409.589 L 95.3969,-409.844 L 95.2685,-410.117 L 95.1754,-410.403 L 95.1189,-410.699
 L 95.1,-411 L 95.1189,-411.301 L 95.1754,-411.597 L 95.2685,-411.883 L 95.3969,-412.156 L 95.5583,-412.411
 L 95.7505,-412.643 L 95.9702,-412.849 L 96.214,-413.026 L 96.4781,-413.172 L 96.7584,-413.283 L 97.0503,-413.357
 L 97.3493,-413.395 L 97.6507,-413.395 L 97.9497,-413.357 L 98.2416,-413.283 L 98.5219,-413.172 L 98.786,-413.026
 L 99.0298,-412.849 L 99.2495,-412.643 L 99.4416,-412.411 L 99.6031,-412.156 L 99.7315,-411.883 L 99.8246,-411.597
 L 99.8811,-411.301 L 99.9,-411 L 99.8811,-410.699 L 99.8246,-410.403 L 99.7315,-410.117 L 99.6031,-409.844
 L 99.4416,-409.589 L 99.2495,-409.357 L 99.0298,-409.151 L 98.786,-408.974 L 98.5219,-408.828 L 98.2416,-408.717
 L 97.9497,-408.643 L 97.6507,-408.605 z
M -97.6507,-408.605 L -97.9497,-408.643 L -98.2416,-408.717 L -98.5219,-408.828 L -98.786,-408.974 L -99.0298,-409.151
 L -99.2495,-409.357 L -99.4416,-409.589 L -99.6031,-409.844 L -99.7315,-410.117 L -99.8246,-410.403 L -99.8811,-410.699
 L -99.9,-411 L -99.8811,-411.301 L -99.8246,-411.597 L -99.7315,-411.883 L -99.6031,-412.156 L -99.4416,-412.411
 L -99.2495,-412.643 L -99.0298,-412.849 L -98.786,-413.026 L -98.5219,-413.172 L -98.2416,-413.283 L -97.9497,-413.357
 L -97.6507,-413.395 L -97.3493,-413.395 L -97.0503,-413.357 L -96.7584,-413.283 L -96.4781,-413.172 L -96.214,-413.026
 L -95.9702,-412.849 L -95.7505,-412.643 L -95.5583,-412.411 L -95.3969,-412.156 L -95.2685,-411.883 L -95.1754,-411.597
 L -95.1189,-411.301 L -95.1,-411 L -95.1189,-410.699 L -95.1754,-410.403 L -95.2685,-410.117 L -95.3969,-409.844
 L -95.5583,-409.589 L -95.7505,-409.357 L -95.9702,-409.151 L -96.214,-408.974 L -96.4781,-408.828 L -96.7584,-408.717
 L -97.0503,-408.643 L -97.3493,-408.605 z
M 100.937,-289.589 L 101.545,-289.745 L 102.129,-289.976 L 102.679,-290.278 L 103.187,-290.647 L 103.645,-291.077
 L 104.045,-291.561 L 104.382,-292.091 L 104.649,-292.659 L 104.843,-293.257 L 104.961,-293.873 L 105,-294.5
 L 105,-389.5 L 104.961,-390.127 L 104.843,-390.743 L 104.649,-391.341 L 104.382,-391.909 L 104.045,-392.439
 L 103.645,-392.923 L 103.187,-393.353 L 102.679,-393.722 L 102.129,-394.024 L 101.545,-394.255 L 100.937,-394.411
 L 100.314,-394.49 L -100.314,-394.49 L -100.937,-394.411 L -101.545,-394.255 L -102.129,-394.024 L -102.679,-393.722
 L -103.187,-393.353 L -103.645,-392.923 L -104.045,-392.439 L -104.382,-391.909 L -104.649,-391.341 L -104.843,-390.743
 L -104.961,-390.127 L -105,-389.5 L -105,-294.5 L -104.961,-293.873 L -104.843,-293.257 L -104.649,-292.659
 L -104.382,-292.091 L -104.045,-291.561 L -103.645,-291.077 L -103.187,-290.647 L -102.679,-290.278 L -102.129,-289.976
 L -101.545,-289.745 L -100.937,-289.589 L -100.314,-289.51 L 100.314,-289.51 z
M 97.387,-385.204 L 97.1627,-385.232 L 96.9438,-385.288 L 96.7336,-385.371 L 96.5355,-385.48 L 96.3526,-385.613
 L 96.1879,-385.768 L 96.0438,-385.942 L 95.9226,-386.133 L 95.8264,-386.337 L 95.7565,-386.552 L 95.7142,-386.774
 L 95.7,-387 L 95.7142,-387.226 L 95.7565,-387.448 L 95.8264,-387.663 L 95.9226,-387.867 L 96.0438,-388.058
 L 96.1879,-388.232 L 96.3526,-388.387 L 96.5355,-388.52 L 96.7336,-388.629 L 96.9438,-388.712 L 97.1627,-388.768
 L 97.387,-388.796 L 97.613,-388.796 L 97.8373,-388.768 L 98.0562,-388.712 L 98.2664,-388.629 L 98.4645,-388.52
 L 98.6474,-388.387 L 98.8121,-388.232 L 98.9562,-388.058 L 99.0773,-387.867 L 99.1736,-387.663 L 99.2434,-387.448
 L 99.2858,-387.226 L 99.3,-387 L 99.2858,-386.774 L 99.2434,-386.552 L 99.1736,-386.337 L 99.0773,-386.133
 L 98.9562,-385.942 L 98.8121,-385.768 L 98.6474,-385.613 L 98.4645,-385.48 L 98.2664,-385.371 L 98.0562,-385.288
 L 97.8373,-385.232 L 97.613,-385.204 z
M -97.613,-385.204 L -97.8373,-385.232 L -98.0562,-385.288 L -98.2664,-385.371 L -98.4645,-385.48 L -98.6474,-385.613
 L -98.8121,-385.768 L -98.9562,-385.942 L -99.0773,-386.133 L -99.1736,-386.337 L -99.2434,-386.552 L -99.2858,-386.774
 L -99.3,-387 L -99.2858,-387.226 L -99.2434,-387.448 L -99.1736,-387.663 L -99.0773,-387.867 L -98.9562,-388.058
 L -98.8121,-388.232 L -98.6474,-388.387 L -98.4645,-388.52 L -98.2664,-388.629 L -98.0562,-388.712 L -97.8373,-388.768
 L -97.613,-388.796 L -97.387,-388.796 L -97.1627,-388.768 L -96.9438,-388.712 L -96.7336,-388.629 L -96.5355,-388.52
 L -96.3526,-388.387 L -96.1879,-388.232 L -96.0438,-388.058 L -95.9226,-387.867 L -95.8264,-387.663 L -95.7565,-387.448
 L -95.7142,-387.226 L -95.7,-387 L -95.7142,-386.774 L -95.7565,-386.552 L -95.8264,-386.337 L -95.9226,-386.133
 L -96.0438,-385.942 L -96.1879,-385.768 L -96.3526,-385.613 L -96.5355,-385.48 L -96.7336,-385.371 L -96.9438,-385.288
 L -97.1627,-385.232 L -97.387,-385.204 z
M 97.387,-295.204 L 97.1627,-295.232 L 96.9438,-295.288 L 96.7336,-295.371 L 96.5355,-295.48 L 96.3526,-295.613
 L 96.1879,-295.768 L 96.0438,-295.942 L 95.9226,-296.133 L 95.8264,-296.337 L 95.7565,-296.552 L 95.7142,-296.774
 L 95.7,-297 L 95.7142,-297.226 L 95.7565,-297.448 L 95.8264,-297.663 L 95.9226,-297.867 L 96.0438,-298.058
 L 96.1879,-298.232 L 96.3526,-298.387 L 96.5355,-298.52 L 96.7336,-298.629 L 96.9438,-298.712 L 97.1627,-298.768
 L 97.387,-298.796 L 97.613,-298.796 L 97.8373,-298.768 L 98.0562,-298.712 L 98.2664,-298.629 L 98.4645,-298.52
 L 98.6474,-298.387 L 98.8121,-298.232 L 98.9562,-298.058 L 99.0773,-297.867 L 99.1736,-297.663 L 99.2434,-297.448
 L 99.2858,-297.226 L 99.3,-297 L 99.2858,-296.774 L 99.2434,-296.552 L 99.1736,-296.337 L 99.0773,-296.133
 L 98.9562,-295.942 L 98.8121,-295.768 L 98.6474,-295.613 L 98.4645,-295.48 L 98.2664,-295.371 L 98.0562,-295.288
 L 97.8373,-295.232 L 97.613,-295.204 z
M -97.613,-295.204 L -97.8373,-295.232 L -98.0562,-295.288 L -98.2664,-295.371 L -98.4645,-295.48 L -98.6474,-295.613
 L -98.8121,-295.768 L -98.9562,-295.942 L -99.0773,-296.133 L -99.1736,-296.337 L -99.2434,-296.552 L -99.2858,-296.774
 L -99.3,-297 L -99.2858,-297.226 L -99.2434,-297.448 L -99.1736,-297.663 L -99.0773,-297.867 L -98.9562,-298.058
 L -98.8121,-298.232 L -98.6474,-298.387 L -98.4645,-298.52 L -98.2664,-298.629 L -98.0562,-298.712 L -97.8373,-298.768
 L -97.613,-298.796 L -97.387,-298.796 L -97.1627,-298.768 L -96.9438,-298.712 L -96.7336,-298.629 L -96.5355,-298.52
 L -96.3526,-298.387 L -96.1879,-298.232 L -96.0438,-298.058 L -95.9226,-297.867 L -95.8264,-297.663 L -95.7565,-297.448
 L -95.7142,-297.226 L -95.7,-297 L -95.7142,-296.774 L -95.7565,-296.552 L -95.8264,-296.337 L -95.9226,-296.133
 L -96.0438,-295.942 L -96.1879,-295.768 L -96.3526,-295.613 L -96.5355,-295.48 L -96.7336,-295.371 L -96.9438,-295.288
 L -97.1627,-295.232 L -97.387,-295.204 z
" stroke="black" fill="lightgray" stroke-width="0.5"/>
</svg>
