  0
SECTION
  2
BLOCKS
  0
ENDSEC
  0
SECTION
  2
ENTITIES
  0
LINE
  8
0
 10
0.562134
 20
217.053
 11
0.927048
 21
217.147
  0
LINE
  8
0
 10
0.927048
 20
217.147
 11
1.27733
 21
217.286
  0
LINE
  8
0
 10
1.27733
 20
217.286
 11
1.60747
 21
217.467
  0
LINE
  8
0
 10
1.60747
 20
217.467
 11
1.91226
 21
217.688
  0
LINE
  8
0
 10
1.91226
 20
217.688
 11
2.1869
 21
217.946
  0
LINE
  8
0
 10
2.1869
 20
217.946
 11
2.42705
 21
218.237
  0
LINE
  8
0
 10
2.42705
 20
218.237
 11
2.62891
 21
218.555
  0
LINE
  8
0
 10
2.62891
 20
218.555
 11
2.78932
 21
218.896
  0
LINE
  8
0
 10
2.78932
 20
218.896
 11
2.90575
 21
219.254
  0
LINE
  8
0
 10
2.90575
 20
219.254
 11
2.97633
 21
219.624
  0
LINE
  8
0
 10
2.97633
 20
219.624
 11
3
 21
220
  0
LINE
  8
0
 10
3
 20
220
 11
2.97633
 21
220.376
  0
LINE
  8
0
 10
2.97633
 20
220.376
 11
2.90575
 21
220.746
  0
LINE
  8
0
 10
2.90575
 20
220.746
 11
2.78932
 21
221.104
  0
LINE
  8
0
 10
2.78932
 20
221.104
 11
2.62891
 21
221.445
  0
LINE
  8
0
 10
2.62891
 20
221.445
 11
2.42705
 21
221.763
  0
LINE
  8
0
 10
2.42705
 20
221.763
 11
2.1869
 21
222.054
  0
LINE
  8
0
 10
2.1869
 20
222.054
 11
1.91226
 21
222.312
  0
LINE
  8
0
 10
1.91226
 20
222.312
 11
1.60747
 21
222.533
  0
LINE
  8
0
 10
1.60747
 20
222.533
 11
1.27733
 21
222.714
  0
LINE
  8
0
 10
1.27733
 20
222.714
 11
0.927048
 21
222.853
  0
LINE
  8
0
 10
0.927048
 20
222.853
 11
0.562134
 21
222.947
  0
LINE
  8
0
 10
0.562134
 20
222.947
 11
0.18837
 21
222.994
  0
LINE
  8
0
 10
0.18837
 20
222.994
 11
-0.18837
 21
222.994
  0
LINE
  8
0
 10
-0.18837
 20
222.994
 11
-0.562134
 21
222.947
  0
LINE
  8
0
 10
-0.562134
 20
222.947
 11
-0.927048
 21
222.853
  0
LINE
  8
0
 10
-0.927048
 20
222.853
 11
-1.27733
 21
222.714
  0
LINE
  8
0
 10
-1.27733
 20
222.714
 11
-1.60747
 21
222.533
  0
LINE
  8
0
 10
-1.60747
 20
222.533
 11
-1.91226
 21
222.312
  0
LINE
  8
0
 10
-1.91226
 20
222.312
 11
-2.1869
 21
222.054
  0
LINE
  8
0
 10
-2.1869
 20
222.054
 11
-2.42705
 21
221.763
  0
LINE
  8
0
 10
-2.42705
 20
221.763
 11
-2.62891
 21
221.445
  0
LINE
  8
0
 10
-2.62891
 20
221.445
 11
-2.78932
 21
221.104
  0
LINE
  8
0
 10
-2.78932
 20
221.104
 11
-2.90575
 21
220.746
  0
LINE
  8
0
 10
-2.90575
 20
220.746
 11
-2.97633
 21
220.376
  0
LINE
  8
0
 10
-2.97633
 20
220.376
 11
-3
 21
220
  0
LINE
  8
0
 10
-3
 20
220
 11
-2.97633
 21
219.624
  0
LINE
  8
0
 10
-2.97633
 20
219.624
 11
-2.90575
 21
219.254
  0
LINE
  8
0
 10
-2.90575
 20
219.254
 11
-2.78932
 21
218.896
  0
LINE
  8
0
 10
-2.78932
 20
218.896
 11
-2.62891
 21
218.555
  0
LINE
  8
0
 10
-2.62891
 20
218.555
 11
-2.42705
 21
218.237
  0
LINE
  8
0
 10
-2.42705
 20
218.237
 11
-2.1869
 21
217.946
  0
LINE
  8
0
 10
-2.1869
 20
217.946
 11
-1.91226
 21
217.688
  0
LINE
  8
0
 10
-1.91226
 20
217.688
 11
-1.60747
 21
217.467
  0
LINE
  8
0
 10
-1.60747
 20
217.467
 11
-1.27733
 21
217.286
  0
LINE
  8
0
 10
-1.27733
 20
217.286
 11
-0.927048
 21
217.147
  0
LINE
  8
0
 10
-0.927048
 20
217.147
 11
-0.562134
 21
217.053
  0
LINE
  8
0
 10
-0.562134
 20
217.053
 11
-0.18837
 21
217.006
  0
LINE
  8
0
 10
-0.18837
 20
217.006
 11
0.18837
 21
217.006
  0
LINE
  8
0
 10
0.18837
 20
217.006
 11
0.562134
 21
217.053
  0
LINE
  8
0
 10
-0.113022
 20
218.204
 11
-0.33728
 21
218.232
  0
LINE
  8
0
 10
-0.33728
 20
218.232
 11
-0.556229
 21
218.288
  0
LINE
  8
0
 10
-0.556229
 20
218.288
 11
-0.766388
 21
218.371
  0
LINE
  8
0
 10
-0.766388
 20
218.371
 11
-0.964478
 21
218.48
  0
LINE
  8
0
 10
-0.964478
 20
218.48
 11
-1.14735
 21
218.613
  0
LINE
  8
0
 10
-1.14735
 20
218.613
 11
-1.31213
 21
218.768
  0
LINE
  8
0
 10
-1.31213
 20
218.768
 11
-1.45622
 21
218.942
  0
LINE
  8
0
 10
-1.45622
 20
218.942
 11
-1.57735
 21
219.133
  0
LINE
  8
0
 10
-1.57735
 20
219.133
 11
-1.67358
 21
219.337
  0
LINE
  8
0
 10
-1.67358
 20
219.337
 11
-1.74344
 21
219.552
  0
LINE
  8
0
 10
-1.74344
 20
219.552
 11
-1.7858
 21
219.774
  0
LINE
  8
0
 10
-1.7858
 20
219.774
 11
-1.79999
 21
220
  0
LINE
  8
0
 10
-1.79999
 20
220
 11
-1.7858
 21
220.226
  0
LINE
  8
0
 10
-1.7858
 20
220.226
 11
-1.74344
 21
220.448
  0
LINE
  8
0
 10
-1.74344
 20
220.448
 11
-1.67358
 21
220.663
  0
LINE
  8
0
 10
-1.67358
 20
220.663
 11
-1.57735
 21
220.867
  0
LINE
  8
0
 10
-1.57735
 20
220.867
 11
-1.45622
 21
221.058
  0
LINE
  8
0
 10
-1.45622
 20
221.058
 11
-1.31213
 21
221.232
  0
LINE
  8
0
 10
-1.31213
 20
221.232
 11
-1.14735
 21
221.387
  0
LINE
  8
0
 10
-1.14735
 20
221.387
 11
-0.964478
 21
221.52
  0
LINE
  8
0
 10
-0.964478
 20
221.52
 11
-0.766388
 21
221.629
  0
LINE
  8
0
 10
-0.766388
 20
221.629
 11
-0.556229
 21
221.712
  0
LINE
  8
0
 10
-0.556229
 20
221.712
 11
-0.33728
 21
221.768
  0
LINE
  8
0
 10
-0.33728
 20
221.768
 11
-0.113022
 21
221.796
  0
LINE
  8
0
 10
-0.113022
 20
221.796
 11
0.113022
 21
221.796
  0
LINE
  8
0
 10
0.113022
 20
221.796
 11
0.33728
 21
221.768
  0
LINE
  8
0
 10
0.33728
 20
221.768
 11
0.556229
 21
221.712
  0
LINE
  8
0
 10
0.556229
 20
221.712
 11
0.766388
 21
221.629
  0
LINE
  8
0
 10
0.766388
 20
221.629
 11
0.964478
 21
221.52
  0
LINE
  8
0
 10
0.964478
 20
221.52
 11
1.14735
 21
221.387
  0
LINE
  8
0
 10
1.14735
 20
221.387
 11
1.31213
 21
221.232
  0
LINE
  8
0
 10
1.31213
 20
221.232
 11
1.45622
 21
221.058
  0
LINE
  8
0
 10
1.45622
 20
221.058
 11
1.57735
 21
220.867
  0
LINE
  8
0
 10
1.57735
 20
220.867
 11
1.67358
 21
220.663
  0
LINE
  8
0
 10
1.67358
 20
220.663
 11
1.74344
 21
220.448
  0
LINE
  8
0
 10
1.74344
 20
220.448
 11
1.7858
 21
220.226
  0
LINE
  8
0
 10
1.7858
 20
220.226
 11
1.79999
 21
220
  0
LINE
  8
0
 10
1.79999
 20
220
 11
1.7858
 21
219.774
  0
LINE
  8
0
 10
1.7858
 20
219.774
 11
1.74344
 21
219.552
  0
LINE
  8
0
 10
1.74344
 20
219.552
 11
1.67358
 21
219.337
  0
LINE
  8
0
 10
1.67358
 20
219.337
 11
1.57735
 21
219.133
  0
LINE
  8
0
 10
1.57735
 20
219.133
 11
1.45622
 21
218.942
  0
LINE
  8
0
 10
1.45622
 20
218.942
 11
1.31213
 21
218.768
  0
LINE
  8
0
 10
1.31213
 20
218.768
 11
1.14735
 21
218.613
  0
LINE
  8
0
 10
1.14735
 20
218.613
 11
0.964478
 21
218.48
  0
LINE
  8
0
 10
0.964478
 20
218.48
 11
0.766388
 21
218.371
  0
LINE
  8
0
 10
0.766388
 20
218.371
 11
0.556229
 21
218.288
  0
LINE
  8
0
 10
0.556229
 20
218.288
 11
0.33728
 21
218.232
  0
LINE
  8
0
 10
0.33728
 20
218.232
 11
0.113022
 21
218.204
  0
LINE
  8
0
 10
0.113022
 20
218.204
 11
-0.113022
 21
218.204
  0
LINE
  8
0
 10
1.31166
 20
103.124
 11
2.16312
 21
103.343
  0
LINE
  8
0
 10
2.16312
 20
103.343
 11
2.98045
 21
103.666
  0
LINE
  8
0
 10
2.98045
 20
103.666
 11
3.75078
 21
104.09
  0
LINE
  8
0
 10
3.75078
 20
104.09
 11
4.46196
 21
104.606
  0
LINE
  8
0
 10
4.46196
 20
104.606
 11
5.10277
 21
105.208
  0
LINE
  8
0
 10
5.10277
 20
105.208
 11
5.66312
 21
105.886
  0
LINE
  8
0
 10
5.66312
 20
105.886
 11
6.13414
 21
106.628
  0
LINE
  8
0
 10
6.13414
 20
106.628
 11
6.50842
 21
107.423
  0
LINE
  8
0
 10
6.50842
 20
107.423
 11
6.78008
 21
108.259
  0
LINE
  8
0
 10
6.78008
 20
108.259
 11
6.94479
 21
109.123
  0
LINE
  8
0
 10
6.94479
 20
109.123
 11
7
 21
110
  0
LINE
  8
0
 10
7
 20
110
 11
6.94479
 21
110.877
  0
LINE
  8
0
 10
6.94479
 20
110.877
 11
6.78008
 21
111.741
  0
LINE
  8
0
 10
6.78008
 20
111.741
 11
6.50842
 21
112.577
  0
LINE
  8
0
 10
6.50842
 20
112.577
 11
6.13414
 21
113.372
  0
LINE
  8
0
 10
6.13414
 20
113.372
 11
5.66312
 21
114.114
  0
LINE
  8
0
 10
5.66312
 20
114.114
 11
5.10277
 21
114.792
  0
LINE
  8
0
 10
5.10277
 20
114.792
 11
4.46196
 21
115.394
  0
LINE
  8
0
 10
4.46196
 20
115.394
 11
3.75078
 21
115.91
  0
LINE
  8
0
 10
3.75078
 20
115.91
 11
2.98045
 21
116.334
  0
LINE
  8
0
 10
2.98045
 20
116.334
 11
2.16312
 21
116.657
  0
LINE
  8
0
 10
2.16312
 20
116.657
 11
1.31166
 21
116.876
  0
LINE
  8
0
 10
1.31166
 20
116.876
 11
0.439529
 21
116.986
  0
LINE
  8
0
 10
0.439529
 20
116.986
 11
-0.439529
 21
116.986
  0
LINE
  8
0
 10
-0.439529
 20
116.986
 11
-1.31166
 21
116.876
  0
LINE
  8
0
 10
-1.31166
 20
116.876
 11
-2.16312
 21
116.657
  0
LINE
  8
0
 10
-2.16312
 20
116.657
 11
-2.98045
 21
116.334
  0
LINE
  8
0
 10
-2.98045
 20
116.334
 11
-3.75078
 21
115.91
  0
LINE
  8
0
 10
-3.75078
 20
115.91
 11
-4.46196
 21
115.394
  0
LINE
  8
0
 10
-4.46196
 20
115.394
 11
-5.10277
 21
114.792
  0
LINE
  8
0
 10
-5.10277
 20
114.792
 11
-5.66312
 21
114.114
  0
LINE
  8
0
 10
-5.66312
 20
114.114
 11
-6.13414
 21
113.372
  0
LINE
  8
0
 10
-6.13414
 20
113.372
 11
-6.50842
 21
112.577
  0
LINE
  8
0
 10
-6.50842
 20
112.577
 11
-6.78008
 21
111.741
  0
LINE
  8
0
 10
-6.78008
 20
111.741
 11
-6.94479
 21
110.877
  0
LINE
  8
0
 10
-6.94479
 20
110.877
 11
-7
 21
110
  0
LINE
  8
0
 10
-7
 20
110
 11
-6.94479
 21
109.123
  0
LINE
  8
0
 10
-6.94479
 20
109.123
 11
-6.78008
 21
108.259
  0
LINE
  8
0
 10
-6.78008
 20
108.259
 11
-6.50842
 21
107.423
  0
LINE
  8
0
 10
-6.50842
 20
107.423
 11
-6.13414
 21
106.628
  0
LINE
  8
0
 10
-6.13414
 20
106.628
 11
-5.66312
 21
105.886
  0
LINE
  8
0
 10
-5.66312
 20
105.886
 11
-5.10277
 21
105.208
  0
LINE
  8
0
 10
-5.10277
 20
105.208
 11
-4.46196
 21
104.606
  0
LINE
  8
0
 10
-4.46196
 20
104.606
 11
-3.75078
 21
104.09
  0
LINE
  8
0
 10
-3.75078
 20
104.09
 11
-2.98045
 21
103.666
  0
LINE
  8
0
 10
-2.98045
 20
103.666
 11
-2.16312
 21
103.343
  0
LINE
  8
0
 10
-2.16312
 20
103.343
 11
-1.31166
 21
103.124
  0
LINE
  8
0
 10
-1.31166
 20
103.124
 11
-0.439529
 21
103.014
  0
LINE
  8
0
 10
-0.439529
 20
103.014
 11
0.439529
 21
103.014
  0
LINE
  8
0
 10
0.439529
 20
103.014
 11
1.31166
 21
103.124
  0
LINE
  8
0
 10
-0.113022
 20
108.204
 11
-0.33728
 21
108.232
  0
LINE
  8
0
 10
-0.33728
 20
108.232
 11
-0.556229
 21
108.288
  0
LINE
  8
0
 10
-0.556229
 20
108.288
 11
-0.766388
 21
108.371
  0
LINE
  8
0
 10
-0.766388
 20
108.371
 11
-0.964478
 21
108.48
  0
LINE
  8
0
 10
-0.964478
 20
108.48
 11
-1.14735
 21
108.613
  0
LINE
  8
0
 10
-1.14735
 20
108.613
 11
-1.31213
 21
108.768
  0
LINE
  8
0
 10
-1.31213
 20
108.768
 11
-1.45622
 21
108.942
  0
LINE
  8
0
 10
-1.45622
 20
108.942
 11
-1.57735
 21
109.133
  0
LINE
  8
0
 10
-1.57735
 20
109.133
 11
-1.67358
 21
109.337
  0
LINE
  8
0
 10
-1.67358
 20
109.337
 11
-1.74344
 21
109.552
  0
LINE
  8
0
 10
-1.74344
 20
109.552
 11
-1.7858
 21
109.774
  0
LINE
  8
0
 10
-1.7858
 20
109.774
 11
-1.79999
 21
110
  0
LINE
  8
0
 10
-1.79999
 20
110
 11
-1.7858
 21
110.226
  0
LINE
  8
0
 10
-1.7858
 20
110.226
 11
-1.74344
 21
110.448
  0
LINE
  8
0
 10
-1.74344
 20
110.448
 11
-1.67358
 21
110.663
  0
LINE
  8
0
 10
-1.67358
 20
110.663
 11
-1.57735
 21
110.867
  0
LINE
  8
0
 10
-1.57735
 20
110.867
 11
-1.45622
 21
111.058
  0
LINE
  8
0
 10
-1.45622
 20
111.058
 11
-1.31213
 21
111.232
  0
LINE
  8
0
 10
-1.31213
 20
111.232
 11
-1.14735
 21
111.387
  0
LINE
  8
0
 10
-1.14735
 20
111.387
 11
-0.964478
 21
111.52
  0
LINE
  8
0
 10
-0.964478
 20
111.52
 11
-0.766388
 21
111.629
  0
LINE
  8
0
 10
-0.766388
 20
111.629
 11
-0.556229
 21
111.712
  0
LINE
  8
0
 10
-0.556229
 20
111.712
 11
-0.33728
 21
111.768
  0
LINE
  8
0
 10
-0.33728
 20
111.768
 11
-0.113022
 21
111.796
  0
LINE
  8
0
 10
-0.113022
 20
111.796
 11
0.113022
 21
111.796
  0
LINE
  8
0
 10
0.113022
 20
111.796
 11
0.33728
 21
111.768
  0
LINE
  8
0
 10
0.33728
 20
111.768
 11
0.556229
 21
111.712
  0
LINE
  8
0
 10
0.556229
 20
111.712
 11
0.766388
 21
111.629
  0
LINE
  8
0
 10
0.766388
 20
111.629
 11
0.964478
 21
111.52
  0
LINE
  8
0
 10
0.964478
 20
111.52
 11
1.14735
 21
111.387
  0
LINE
  8
0
 10
1.14735
 20
111.387
 11
1.31213
 21
111.232
  0
LINE
  8
0
 10
1.31213
 20
111.232
 11
1.45622
 21
111.058
  0
LINE
  8
0
 10
1.45622
 20
111.058
 11
1.57735
 21
110.867
  0
LINE
  8
0
 10
1.57735
 20
110.867
 11
1.67358
 21
110.663
  0
LINE
  8
0
 10
1.67358
 20
110.663
 11
1.74344
 21
110.448
  0
LINE
  8
0
 10
1.74344
 20
110.448
 11
1.7858
 21
110.226
  0
LINE
  8
0
 10
1.7858
 20
110.226
 11
1.79999
 21
110
  0
LINE
  8
0
 10
1.79999
 20
110
 11
1.7858
 21
109.774
  0
LINE
  8
0
 10
1.7858
 20
109.774
 11
1.74344
 21
109.552
  0
LINE
  8
0
 10
1.74344
 20
109.552
 11
1.67358
 21
109.337
  0
LINE
  8
0
 10
1.67358
 20
109.337
 11
1.57735
 21
109.133
  0
LINE
  8
0
 10
1.57735
 20
109.133
 11
1.45622
 21
108.942
  0
LINE
  8
0
 10
1.45622
 20
108.942
 11
1.31213
 21
108.768
  0
LINE
  8
0
 10
1.31213
 20
108.768
 11
1.14735
 21
108.613
  0
LINE
  8
0
 10
1.14735
 20
108.613
 11
0.964478
 21
108.48
  0
LINE
  8
0
 10
0.964478
 20
108.48
 11
0.766388
 21
108.371
  0
LINE
  8
0
 10
0.766388
 20
108.371
 11
0.556229
 21
108.288
  0
LINE
  8
0
 10
0.556229
 20
108.288
 11
0.33728
 21
108.232
  0
LINE
  8
0
 10
0.33728
 20
108.232
 11
0.113022
 21
108.204
  0
LINE
  8
0
 10
0.113022
 20
108.204
 11
-0.113022
 21
108.204
  0
ENDSEC
  0
SECTION
  2
OBJECTS
  0
DICTIONARY
  0
ENDSEC
  0
EOF
