<?xml version="1.0" standalone="no"?>
<!DOCTYPE svg PUBLIC "-//W3C//DTD SVG 1.1//EN" "http://www.w3.org/Graphics/SVG/1.1/DTD/svg11.dtd">
<svg width="150mm" height="429mm" viewBox="-75 -762 150 429" xmlns="http://www.w3.org/2000/svg" version="1.1">
<title>OpenSCAD Model</title>
<path d="
M 70.9369,-552.089 L 71.5451,-552.245 L 72.1289,-552.476 L 72.6791,-552.778 L 73.1871,-553.147 L 73.6448,-553.577
 L 74.0451,-554.061 L 74.3815,-554.591 L 74.6489,-555.159 L 74.8429,-555.757 L 74.9606,-556.373 L 75,-557
 L 75,-757 L 74.9606,-757.627 L 74.8429,-758.243 L 74.6489,-758.841 L 74.3815,-759.409 L 74.0451,-759.939
 L 73.6448,-760.423 L 73.1871,-760.853 L 72.6791,-761.222 L 72.1289,-761.524 L 71.5451,-761.755 L 70.9369,-761.911
 L 70.3139,-761.99 L -70.3139,-761.99 L -70.9369,-761.911 L -71.5451,-761.755 L -72.1289,-761.524 L -72.6791,-761.222
 L -73.1871,-760.853 L -73.6448,-760.423 L -74.0451,-759.939 L -74.3815,-759.409 L -74.6489,-758.841 L -74.8429,-758.243
 L -74.9606,-757.627 L -75,-757 L -75,-557 L -74.9606,-556.373 L -74.8429,-555.757 L -74.6489,-555.159
 L -74.3815,-554.591 L -74.0451,-554.061 L -73.6448,-553.577 L -73.1871,-553.147 L -72.6791,-552.778 L -72.1289,-552.476
 L -71.5451,-552.245 L -70.9369,-552.089 L -70.3139,-552.01 L 70.3139,-552.01 z
M -69.6955,-554.393 L -70.0833,-554.442 L -70.4619,-554.539 L -70.8254,-554.683 L -71.168,-554.872 L -71.4843,-555.101
 L -71.7692,-555.369 L -72.0184,-555.67 L -72.2279,-556 L -72.3943,-556.354 L -72.5151,-556.726 L -72.5884,-557.11
 L -72.6129,-557.5 L -72.6129,-756.5 L -72.5884,-756.89 L -72.5151,-757.274 L -72.3943,-757.646 L -72.2279,-758
 L -72.0184,-758.33 L -71.7692,-758.631 L -71.4843,-758.899 L -71.168,-759.128 L -70.8254,-759.317 L -70.4619,-759.461
 L -70.0833,-759.558 L -69.6955,-759.607 L 69.6955,-759.607 L 70.0833,-759.558 L 70.4619,-759.461 L 70.8254,-759.317
 L 71.168,-759.128 L 71.4843,-758.899 L 71.7692,-758.631 L 72.0184,-758.33 L 72.2279,-758 L 72.3943,-757.646
 L 72.5151,-757.274 L 72.5884,-756.89 L 72.6129,-756.5 L 72.6129,-557.5 L 72.5884,-557.11 L 72.5151,-556.726
 L 72.3943,-556.354 L 72.2279,-556 L 72.0184,-555.67 L 71.7692,-555.369 L 71.4843,-555.101 L 71.168,-554.872
 L 70.8254,-554.683 L 70.4619,-554.539 L 70.0833,-554.442 L 69.6955,-554.393 z
M 70.9369,-333.089 L 71.5451,-333.245 L 72.1289,-333.476 L 72.6791,-333.778 L 73.1871,-334.147 L 73.6448,-334.577
 L 74.0451,-335.061 L 74.3815,-335.591 L 74.6489,-336.159 L 74.8429,-336.757 L 74.9606,-337.373 L 75,-338
 L 75,-538 L 74.9606,-538.627 L 74.8429,-539.243 L 74.6489,-539.841 L 74.3815,-540.409 L 74.0451,-540.939
 L 73.6448,-541.423 L 73.1871,-541.853 L 72.6791,-542.222 L 72.1289,-542.524 L 71.5451,-542.755 L 70.9369,-542.911
 L 70.3139,-542.99 L -70.3139,-542.99 L -70.9369,-542.911 L -71.5451,-542.755 L -72.1289,-542.524 L -72.6791,-542.222
 L -73.1871,-541.853 L -73.6448,-541.423 L -74.0451,-540.939 L -74.3815,-540.409 L -74.6489,-539.841 L -74.8429,-539.243
 L -74.9606,-538.627 L -75,-538 L -75,-338 L -74.9606,-337.373 L -74.8429,-336.757 L -74.6489,-336.159
 L -74.3815,-335.591 L -74.0451,-335.061 L -73.6448,-334.577 L -73.1871,-334.147 L -72.6791,-333.778 L -72.1289,-333.476
 L -71.5451,-333.245 L -70.9369,-333.089 L -70.3139,-333.01 L 70.3139,-333.01 z
M 67.3659,-533.369 L 67.0999,-533.403 L 66.8401,-533.469 L 66.5908,-533.568 L 66.3559,-533.697 L 66.1389,-533.855
 L 65.9434,-534.038 L 65.7725,-534.245 L 65.6288,-534.471 L 65.5146,-534.714 L 65.4318,-534.969 L 65.3815,-535.232
 L 65.3647,-535.5 L 65.3815,-535.768 L 65.4318,-536.031 L 65.5146,-536.286 L 65.6288,-536.529 L 65.7725,-536.755
 L 65.9434,-536.962 L 66.1389,-537.145 L 66.3559,-537.303 L 66.5908,-537.432 L 66.8401,-537.531 L 67.0999,-537.597
 L 67.3659,-537.631 L 67.6341,-537.631 L 67.9001,-537.597 L 68.1598,-537.531 L 68.4092,-537.432 L 68.6441,-537.303
 L 68.8611,-537.145 L 69.0566,-536.962 L 69.2275,-536.755 L 69.3712,-536.529 L 69.4853,-536.286 L 69.5682,-536.031
 L 69.6185,-535.768 L 69.6353,-535.5 L 69.6185,-535.232 L 69.5682,-534.969 L 69.4853,-534.714 L 69.3712,-534.471
 L 69.2275,-534.245 L 69.0566,-534.038 L 68.8611,-533.855 L 68.6441,-533.697 L 68.4092,-533.568 L 68.1598,-533.469
 L 67.9001,-533.403 L 67.6341,-533.369 z
M -67.6341,-533.369 L -67.9001,-533.403 L -68.1598,-533.469 L -68.4092,-533.568 L -68.6441,-533.697 L -68.8611,-533.855
 L -69.0566,-534.038 L -69.2275,-534.245 L -69.3712,-534.471 L -69.4853,-534.714 L -69.5682,-534.969 L -69.6185,-535.232
 L -69.6353,-535.5 L -69.6185,-535.768 L -69.5682,-536.031 L -69.4853,-536.286 L -69.3712,-536.529 L -69.2275,-536.755
 L -69.0566,-536.962 L -68.8611,-537.145 L -68.6441,-537.303 L -68.4092,-537.432 L -68.1598,-537.531 L -67.9001,-537.597
 L -67.6341,-537.631 L -67.3659,-537.631 L -67.0999,-537.597 L -66.8401,-537.531 L -66.5908,-537.432 L -66.3559,-537.303
 L -66.1389,-537.145 L -65.9434,-536.962 L -65.7725,-536.755 L -65.6288,-536.529 L -65.5146,-536.286 L -65.4318,-536.031
 L -65.3815,-535.768 L -65.3647,-535.5 L -65.3815,-535.232 L -65.4318,-534.969 L -65.5146,-534.714 L -65.6288,-534.471
 L -65.7725,-534.245 L -65.9434,-534.038 L -66.1389,-533.855 L -66.3559,-533.697 L -66.5908,-533.568 L -66.8401,-533.469
 L -67.0999,-533.403 L -67.3659,-533.369 z
M 67.3659,-338.369 L 67.0999,-338.403 L 66.8401,-338.469 L 66.5908,-338.568 L 66.3559,-338.697 L 66.1389,-338.855
 L 65.9434,-339.038 L 65.7725,-339.245 L 65.6288,-339.471 L 65.5146,-339.714 L 65.4318,-339.969 L 65.3815,-340.232
 L 65.3647,-340.5 L 65.3815,-340.768 L 65.4318,-341.031 L 65.5146,-341.286 L 65.6288,-341.529 L 65.7725,-341.755
 L 65.9434,-341.962 L 66.1389,-342.145 L 66.3559,-342.303 L 66.5908,-342.432 L 66.8401,-342.531 L 67.0999,-342.597
 L 67.3659,-342.631 L 67.6341,-342.631 L 67.9001,-342.597 L 68.1598,-342.531 L 68.4092,-342.432 L 68.6441,-342.303
 L 68.8611,-342.145 L 69.0566,-341.962 L 69.2275,-341.755 L 69.3712,-341.529 L 69.4853,-341.286 L 69.5682,-341.031
 L 69.6185,-340.768 L 69.6353,-340.5 L 69.6185,-340.232 L 69.5682,-339.969 L 69.4853,-339.714 L 69.3712,-339.471
 L 69.2275,-339.245 L 69.0566,-339.038 L 68.8611,-338.855 L 68.6441,-338.697 L 68.4092,-338.568 L 68.1598,-338.469
 L 67.9001,-338.403 L 67.6341,-338.369 z
M -67.6341,-338.369 L -67.9001,-338.403 L -68.1598,-338.469 L -68.4092,-338.568 L -68.6441,-338.697 L -68.8611,-338.855
 L -69.0566,-339.038 L -69.2275,-339.245 L -69.3712,-339.471 L -69.4853,-339.714 L -69.5682,-339.969 L -69.6185,-340.232
 L -69.6353,-340.5 L -69.6185,-340.768 L -69.5682,-341.031 L -69.4853,-341.286 L -69.3712,-341.529 L -69.2275,-341.755
 L -69.0566,-341.962 L -68.8611,-342.145 L -68.6441,-342.303 L -68.4092,-342.432 L -68.1598,-342.531 L -67.9001,-342.597
 L -67.6341,-342.631 L -67.3659,-342.631 L -67.0999,-342.597 L -66.8401,-342.531 L -66.5908,-342.432 L -66.3559,-342.303
 L -66.1389,-342.145 L -65.9434,-341.962 L -65.7725,-341.755 L -65.6288,-341.529 L -65.5146,-341.286 L -65.4318,-341.031
 L -65.3815,-340.768 L -65.3647,-340.5 L -65.3815,-340.232 L -65.4318,-339.969 L -65.5146,-339.714 L -65.6288,-339.471
 L -65.7725,-339.245 L -65.9434,-339.038 L -66.1389,-338.855 L -66.3559,-338.697 L -66.5908,-338.568 L -66.8401,-338.469
 L -67.0999,-338.403 L -67.3659,-338.369 z
" stroke="black" fill="lightgray" stroke-width="0.5"/>
</svg>
