  0
SECTION
  2
BLOCKS
  0
ENDSEC
  0
SECTION
  2
ENTITIES
  0
LINE
  8
0
 10
-72
 20
355.925
 11
-71.5451
 21
355.745
  0
LINE
  8
0
 10
-71.5451
 20
355.745
 11
-70.9369
 21
355.589
  0
LINE
  8
0
 10
-70.9369
 20
355.589
 11
-70.3139
 21
355.51
  0
LINE
  8
0
 10
-70.3139
 20
355.51
 11
70.3139
 21
355.51
  0
LINE
  8
0
 10
70.3139
 20
355.51
 11
70.9369
 21
355.589
  0
LINE
  8
0
 10
70.9369
 20
355.589
 11
71.5451
 21
355.745
  0
LINE
  8
0
 10
71.5451
 20
355.745
 11
72.1289
 21
355.976
  0
LINE
  8
0
 10
72.1289
 20
355.976
 11
72.6791
 21
356.278
  0
LINE
  8
0
 10
72.6791
 20
356.278
 11
73.1871
 21
356.647
  0
LINE
  8
0
 10
73.1871
 20
356.647
 11
73.6448
 21
357.077
  0
LINE
  8
0
 10
73.6448
 20
357.077
 11
74.0451
 21
357.561
  0
LINE
  8
0
 10
74.0451
 20
357.561
 11
74.3815
 21
358.091
  0
LINE
  8
0
 10
74.3815
 20
358.091
 11
74.6489
 21
358.659
  0
LINE
  8
0
 10
74.6489
 20
358.659
 11
74.8429
 21
359.257
  0
LINE
  8
0
 10
74.8429
 20
359.257
 11
74.9606
 21
359.873
  0
LINE
  8
0
 10
74.9606
 20
359.873
 11
75
 21
360.5
  0
LINE
  8
0
 10
75
 20
360.5
 11
75
 21
575.5
  0
LINE
  8
0
 10
75
 20
575.5
 11
74.9606
 21
576.127
  0
LINE
  8
0
 10
74.9606
 20
576.127
 11
74.8429
 21
576.743
  0
LINE
  8
0
 10
74.8429
 20
576.743
 11
74.6489
 21
577.341
  0
LINE
  8
0
 10
74.6489
 20
577.341
 11
74.3815
 21
577.909
  0
LINE
  8
0
 10
74.3815
 20
577.909
 11
74.0451
 21
578.439
  0
LINE
  8
0
 10
74.0451
 20
578.439
 11
73.6448
 21
578.923
  0
LINE
  8
0
 10
73.6448
 20
578.923
 11
73.1871
 21
579.353
  0
LINE
  8
0
 10
73.1871
 20
579.353
 11
72.6791
 21
579.722
  0
LINE
  8
0
 10
72.6791
 20
579.722
 11
72.1289
 21
580.024
  0
LINE
  8
0
 10
72.1289
 20
580.024
 11
71.5451
 21
580.255
  0
LINE
  8
0
 10
71.5451
 20
580.255
 11
70.9369
 21
580.411
  0
LINE
  8
0
 10
70.9369
 20
580.411
 11
70.3139
 21
580.49
  0
LINE
  8
0
 10
70.3139
 20
580.49
 11
-70.3139
 21
580.49
  0
LINE
  8
0
 10
-70.3139
 20
580.49
 11
-70.9369
 21
580.411
  0
LINE
  8
0
 10
-70.9369
 20
580.411
 11
-71.5451
 21
580.255
  0
LINE
  8
0
 10
-71.5451
 20
580.255
 11
-72
 21
580.075
  0
LINE
  8
0
 10
-72
 20
580.075
 11
-72
 21
580.49
  0
LINE
  8
0
 10
-72
 20
580.49
 11
-75
 21
580.49
  0
LINE
  8
0
 10
-75
 20
580.49
 11
-75
 21
355.51
  0
LINE
  8
0
 10
-75
 20
355.51
 11
-72
 21
355.51
  0
LINE
  8
0
 10
-72
 20
355.51
 11
-72
 21
355.925
  0
LINE
  8
0
 10
-67.6507
 20
570.605
 11
-67.9497
 21
570.643
  0
LINE
  8
0
 10
-67.9497
 20
570.643
 11
-68.2416
 21
570.717
  0
LINE
  8
0
 10
-68.2416
 20
570.717
 11
-68.5219
 21
570.828
  0
LINE
  8
0
 10
-68.5219
 20
570.828
 11
-68.786
 21
570.974
  0
LINE
  8
0
 10
-68.786
 20
570.974
 11
-69.0298
 21
571.151
  0
LINE
  8
0
 10
-69.0298
 20
571.151
 11
-69.2495
 21
571.357
  0
LINE
  8
0
 10
-69.2495
 20
571.357
 11
-69.4416
 21
571.589
  0
LINE
  8
0
 10
-69.4416
 20
571.589
 11
-69.6031
 21
571.844
  0
LINE
  8
0
 10
-69.6031
 20
571.844
 11
-69.7315
 21
572.117
  0
LINE
  8
0
 10
-69.7315
 20
572.117
 11
-69.8246
 21
572.403
  0
LINE
  8
0
 10
-69.8246
 20
572.403
 11
-69.8811
 21
572.699
  0
LINE
  8
0
 10
-69.8811
 20
572.699
 11
-69.9
 21
573
  0
LINE
  8
0
 10
-69.9
 20
573
 11
-69.8811
 21
573.301
  0
LINE
  8
0
 10
-69.8811
 20
573.301
 11
-69.8246
 21
573.597
  0
LINE
  8
0
 10
-69.8246
 20
573.597
 11
-69.7315
 21
573.883
  0
LINE
  8
0
 10
-69.7315
 20
573.883
 11
-69.6031
 21
574.156
  0
LINE
  8
0
 10
-69.6031
 20
574.156
 11
-69.4416
 21
574.411
  0
LINE
  8
0
 10
-69.4416
 20
574.411
 11
-69.2495
 21
574.643
  0
LINE
  8
0
 10
-69.2495
 20
574.643
 11
-69.0298
 21
574.849
  0
LINE
  8
0
 10
-69.0298
 20
574.849
 11
-68.786
 21
575.026
  0
LINE
  8
0
 10
-68.786
 20
575.026
 11
-68.5219
 21
575.172
  0
LINE
  8
0
 10
-68.5219
 20
575.172
 11
-68.2416
 21
575.283
  0
LINE
  8
0
 10
-68.2416
 20
575.283
 11
-67.9497
 21
575.357
  0
LINE
  8
0
 10
-67.9497
 20
575.357
 11
-67.6507
 21
575.395
  0
LINE
  8
0
 10
-67.6507
 20
575.395
 11
-67.3493
 21
575.395
  0
LINE
  8
0
 10
-67.3493
 20
575.395
 11
-67.0503
 21
575.357
  0
LINE
  8
0
 10
-67.0503
 20
575.357
 11
-66.7584
 21
575.283
  0
LINE
  8
0
 10
-66.7584
 20
575.283
 11
-66.4781
 21
575.172
  0
LINE
  8
0
 10
-66.4781
 20
575.172
 11
-66.214
 21
575.026
  0
LINE
  8
0
 10
-66.214
 20
575.026
 11
-65.9702
 21
574.849
  0
LINE
  8
0
 10
-65.9702
 20
574.849
 11
-65.7505
 21
574.643
  0
LINE
  8
0
 10
-65.7505
 20
574.643
 11
-65.5583
 21
574.411
  0
LINE
  8
0
 10
-65.5583
 20
574.411
 11
-65.3969
 21
574.156
  0
LINE
  8
0
 10
-65.3969
 20
574.156
 11
-65.2685
 21
573.883
  0
LINE
  8
0
 10
-65.2685
 20
573.883
 11
-65.1754
 21
573.597
  0
LINE
  8
0
 10
-65.1754
 20
573.597
 11
-65.1189
 21
573.301
  0
LINE
  8
0
 10
-65.1189
 20
573.301
 11
-65.1
 21
573
  0
LINE
  8
0
 10
-65.1
 20
573
 11
-65.1189
 21
572.699
  0
LINE
  8
0
 10
-65.1189
 20
572.699
 11
-65.1754
 21
572.403
  0
LINE
  8
0
 10
-65.1754
 20
572.403
 11
-65.2685
 21
572.117
  0
LINE
  8
0
 10
-65.2685
 20
572.117
 11
-65.3969
 21
571.844
  0
LINE
  8
0
 10
-65.3969
 20
571.844
 11
-65.5583
 21
571.589
  0
LINE
  8
0
 10
-65.5583
 20
571.589
 11
-65.7505
 21
571.357
  0
LINE
  8
0
 10
-65.7505
 20
571.357
 11
-65.9702
 21
571.151
  0
LINE
  8
0
 10
-65.9702
 20
571.151
 11
-66.214
 21
570.974
  0
LINE
  8
0
 10
-66.214
 20
570.974
 11
-66.4781
 21
570.828
  0
LINE
  8
0
 10
-66.4781
 20
570.828
 11
-66.7584
 21
570.717
  0
LINE
  8
0
 10
-66.7584
 20
570.717
 11
-67.0503
 21
570.643
  0
LINE
  8
0
 10
-67.0503
 20
570.643
 11
-67.3493
 21
570.605
  0
LINE
  8
0
 10
-67.3493
 20
570.605
 11
-67.6507
 21
570.605
  0
LINE
  8
0
 10
67.3493
 20
570.605
 11
67.0503
 21
570.643
  0
LINE
  8
0
 10
67.0503
 20
570.643
 11
66.7584
 21
570.717
  0
LINE
  8
0
 10
66.7584
 20
570.717
 11
66.4781
 21
570.828
  0
LINE
  8
0
 10
66.4781
 20
570.828
 11
66.214
 21
570.974
  0
LINE
  8
0
 10
66.214
 20
570.974
 11
65.9702
 21
571.151
  0
LINE
  8
0
 10
65.9702
 20
571.151
 11
65.7505
 21
571.357
  0
LINE
  8
0
 10
65.7505
 20
571.357
 11
65.5583
 21
571.589
  0
LINE
  8
0
 10
65.5583
 20
571.589
 11
65.3969
 21
571.844
  0
LINE
  8
0
 10
65.3969
 20
571.844
 11
65.2685
 21
572.117
  0
LINE
  8
0
 10
65.2685
 20
572.117
 11
65.1754
 21
572.403
  0
LINE
  8
0
 10
65.1754
 20
572.403
 11
65.1189
 21
572.699
  0
LINE
  8
0
 10
65.1189
 20
572.699
 11
65.1
 21
573
  0
LINE
  8
0
 10
65.1
 20
573
 11
65.1189
 21
573.301
  0
LINE
  8
0
 10
65.1189
 20
573.301
 11
65.1754
 21
573.597
  0
LINE
  8
0
 10
65.1754
 20
573.597
 11
65.2685
 21
573.883
  0
LINE
  8
0
 10
65.2685
 20
573.883
 11
65.3969
 21
574.156
  0
LINE
  8
0
 10
65.3969
 20
574.156
 11
65.5583
 21
574.411
  0
LINE
  8
0
 10
65.5583
 20
574.411
 11
65.7505
 21
574.643
  0
LINE
  8
0
 10
65.7505
 20
574.643
 11
65.9702
 21
574.849
  0
LINE
  8
0
 10
65.9702
 20
574.849
 11
66.214
 21
575.026
  0
LINE
  8
0
 10
66.214
 20
575.026
 11
66.4781
 21
575.172
  0
LINE
  8
0
 10
66.4781
 20
575.172
 11
66.7584
 21
575.283
  0
LINE
  8
0
 10
66.7584
 20
575.283
 11
67.0503
 21
575.357
  0
LINE
  8
0
 10
67.0503
 20
575.357
 11
67.3493
 21
575.395
  0
LINE
  8
0
 10
67.3493
 20
575.395
 11
67.6507
 21
575.395
  0
LINE
  8
0
 10
67.6507
 20
575.395
 11
67.9497
 21
575.357
  0
LINE
  8
0
 10
67.9497
 20
575.357
 11
68.2416
 21
575.283
  0
LINE
  8
0
 10
68.2416
 20
575.283
 11
68.5219
 21
575.172
  0
LINE
  8
0
 10
68.5219
 20
575.172
 11
68.786
 21
575.026
  0
LINE
  8
0
 10
68.786
 20
575.026
 11
69.0298
 21
574.849
  0
LINE
  8
0
 10
69.0298
 20
574.849
 11
69.2495
 21
574.643
  0
LINE
  8
0
 10
69.2495
 20
574.643
 11
69.4416
 21
574.411
  0
LINE
  8
0
 10
69.4416
 20
574.411
 11
69.6031
 21
574.156
  0
LINE
  8
0
 10
69.6031
 20
574.156
 11
69.7315
 21
573.883
  0
LINE
  8
0
 10
69.7315
 20
573.883
 11
69.8246
 21
573.597
  0
LINE
  8
0
 10
69.8246
 20
573.597
 11
69.8811
 21
573.301
  0
LINE
  8
0
 10
69.8811
 20
573.301
 11
69.9
 21
573
  0
LINE
  8
0
 10
69.9
 20
573
 11
69.8811
 21
572.699
  0
LINE
  8
0
 10
69.8811
 20
572.699
 11
69.8246
 21
572.403
  0
LINE
  8
0
 10
69.8246
 20
572.403
 11
69.7315
 21
572.117
  0
LINE
  8
0
 10
69.7315
 20
572.117
 11
69.6031
 21
571.844
  0
LINE
  8
0
 10
69.6031
 20
571.844
 11
69.4416
 21
571.589
  0
LINE
  8
0
 10
69.4416
 20
571.589
 11
69.2495
 21
571.357
  0
LINE
  8
0
 10
69.2495
 20
571.357
 11
69.0298
 21
571.151
  0
LINE
  8
0
 10
69.0298
 20
571.151
 11
68.786
 21
570.974
  0
LINE
  8
0
 10
68.786
 20
570.974
 11
68.5219
 21
570.828
  0
LINE
  8
0
 10
68.5219
 20
570.828
 11
68.2416
 21
570.717
  0
LINE
  8
0
 10
68.2416
 20
570.717
 11
67.9497
 21
570.643
  0
LINE
  8
0
 10
67.9497
 20
570.643
 11
67.6507
 21
570.605
  0
LINE
  8
0
 10
67.6507
 20
570.605
 11
67.3493
 21
570.605
  0
LINE
  8
0
 10
67.3493
 20
360.605
 11
67.0503
 21
360.643
  0
LINE
  8
0
 10
67.0503
 20
360.643
 11
66.7584
 21
360.717
  0
LINE
  8
0
 10
66.7584
 20
360.717
 11
66.4781
 21
360.828
  0
LINE
  8
0
 10
66.4781
 20
360.828
 11
66.214
 21
360.974
  0
LINE
  8
0
 10
66.214
 20
360.974
 11
65.9702
 21
361.151
  0
LINE
  8
0
 10
65.9702
 20
361.151
 11
65.7505
 21
361.357
  0
LINE
  8
0
 10
65.7505
 20
361.357
 11
65.5583
 21
361.589
  0
LINE
  8
0
 10
65.5583
 20
361.589
 11
65.3969
 21
361.844
  0
LINE
  8
0
 10
65.3969
 20
361.844
 11
65.2685
 21
362.117
  0
LINE
  8
0
 10
65.2685
 20
362.117
 11
65.1754
 21
362.403
  0
LINE
  8
0
 10
65.1754
 20
362.403
 11
65.1189
 21
362.699
  0
LINE
  8
0
 10
65.1189
 20
362.699
 11
65.1
 21
363
  0
LINE
  8
0
 10
65.1
 20
363
 11
65.1189
 21
363.301
  0
LINE
  8
0
 10
65.1189
 20
363.301
 11
65.1754
 21
363.597
  0
LINE
  8
0
 10
65.1754
 20
363.597
 11
65.2685
 21
363.883
  0
LINE
  8
0
 10
65.2685
 20
363.883
 11
65.3969
 21
364.156
  0
LINE
  8
0
 10
65.3969
 20
364.156
 11
65.5583
 21
364.411
  0
LINE
  8
0
 10
65.5583
 20
364.411
 11
65.7505
 21
364.643
  0
LINE
  8
0
 10
65.7505
 20
364.643
 11
65.9702
 21
364.849
  0
LINE
  8
0
 10
65.9702
 20
364.849
 11
66.214
 21
365.026
  0
LINE
  8
0
 10
66.214
 20
365.026
 11
66.4781
 21
365.172
  0
LINE
  8
0
 10
66.4781
 20
365.172
 11
66.7584
 21
365.283
  0
LINE
  8
0
 10
66.7584
 20
365.283
 11
67.0503
 21
365.357
  0
LINE
  8
0
 10
67.0503
 20
365.357
 11
67.3493
 21
365.395
  0
LINE
  8
0
 10
67.3493
 20
365.395
 11
67.6507
 21
365.395
  0
LINE
  8
0
 10
67.6507
 20
365.395
 11
67.9497
 21
365.357
  0
LINE
  8
0
 10
67.9497
 20
365.357
 11
68.2416
 21
365.283
  0
LINE
  8
0
 10
68.2416
 20
365.283
 11
68.5219
 21
365.172
  0
LINE
  8
0
 10
68.5219
 20
365.172
 11
68.786
 21
365.026
  0
LINE
  8
0
 10
68.786
 20
365.026
 11
69.0298
 21
364.849
  0
LINE
  8
0
 10
69.0298
 20
364.849
 11
69.2495
 21
364.643
  0
LINE
  8
0
 10
69.2495
 20
364.643
 11
69.4416
 21
364.411
  0
LINE
  8
0
 10
69.4416
 20
364.411
 11
69.6031
 21
364.156
  0
LINE
  8
0
 10
69.6031
 20
364.156
 11
69.7315
 21
363.883
  0
LINE
  8
0
 10
69.7315
 20
363.883
 11
69.8246
 21
363.597
  0
LINE
  8
0
 10
69.8246
 20
363.597
 11
69.8811
 21
363.301
  0
LINE
  8
0
 10
69.8811
 20
363.301
 11
69.9
 21
363
  0
LINE
  8
0
 10
69.9
 20
363
 11
69.8811
 21
362.699
  0
LINE
  8
0
 10
69.8811
 20
362.699
 11
69.8246
 21
362.403
  0
LINE
  8
0
 10
69.8246
 20
362.403
 11
69.7315
 21
362.117
  0
LINE
  8
0
 10
69.7315
 20
362.117
 11
69.6031
 21
361.844
  0
LINE
  8
0
 10
69.6031
 20
361.844
 11
69.4416
 21
361.589
  0
LINE
  8
0
 10
69.4416
 20
361.589
 11
69.2495
 21
361.357
  0
LINE
  8
0
 10
69.2495
 20
361.357
 11
69.0298
 21
361.151
  0
LINE
  8
0
 10
69.0298
 20
361.151
 11
68.786
 21
360.974
  0
LINE
  8
0
 10
68.786
 20
360.974
 11
68.5219
 21
360.828
  0
LINE
  8
0
 10
68.5219
 20
360.828
 11
68.2416
 21
360.717
  0
LINE
  8
0
 10
68.2416
 20
360.717
 11
67.9497
 21
360.643
  0
LINE
  8
0
 10
67.9497
 20
360.643
 11
67.6507
 21
360.605
  0
LINE
  8
0
 10
67.6507
 20
360.605
 11
67.3493
 21
360.605
  0
LINE
  8
0
 10
-67.6507
 20
360.605
 11
-67.9497
 21
360.643
  0
LINE
  8
0
 10
-67.9497
 20
360.643
 11
-68.2416
 21
360.717
  0
LINE
  8
0
 10
-68.2416
 20
360.717
 11
-68.5219
 21
360.828
  0
LINE
  8
0
 10
-68.5219
 20
360.828
 11
-68.786
 21
360.974
  0
LINE
  8
0
 10
-68.786
 20
360.974
 11
-69.0298
 21
361.151
  0
LINE
  8
0
 10
-69.0298
 20
361.151
 11
-69.2495
 21
361.357
  0
LINE
  8
0
 10
-69.2495
 20
361.357
 11
-69.4416
 21
361.589
  0
LINE
  8
0
 10
-69.4416
 20
361.589
 11
-69.6031
 21
361.844
  0
LINE
  8
0
 10
-69.6031
 20
361.844
 11
-69.7315
 21
362.117
  0
LINE
  8
0
 10
-69.7315
 20
362.117
 11
-69.8246
 21
362.403
  0
LINE
  8
0
 10
-69.8246
 20
362.403
 11
-69.8811
 21
362.699
  0
LINE
  8
0
 10
-69.8811
 20
362.699
 11
-69.9
 21
363
  0
LINE
  8
0
 10
-69.9
 20
363
 11
-69.8811
 21
363.301
  0
LINE
  8
0
 10
-69.8811
 20
363.301
 11
-69.8246
 21
363.597
  0
LINE
  8
0
 10
-69.8246
 20
363.597
 11
-69.7315
 21
363.883
  0
LINE
  8
0
 10
-69.7315
 20
363.883
 11
-69.6031
 21
364.156
  0
LINE
  8
0
 10
-69.6031
 20
364.156
 11
-69.4416
 21
364.411
  0
LINE
  8
0
 10
-69.4416
 20
364.411
 11
-69.2495
 21
364.643
  0
LINE
  8
0
 10
-69.2495
 20
364.643
 11
-69.0298
 21
364.849
  0
LINE
  8
0
 10
-69.0298
 20
364.849
 11
-68.786
 21
365.026
  0
LINE
  8
0
 10
-68.786
 20
365.026
 11
-68.5219
 21
365.172
  0
LINE
  8
0
 10
-68.5219
 20
365.172
 11
-68.2416
 21
365.283
  0
LINE
  8
0
 10
-68.2416
 20
365.283
 11
-67.9497
 21
365.357
  0
LINE
  8
0
 10
-67.9497
 20
365.357
 11
-67.6507
 21
365.395
  0
LINE
  8
0
 10
-67.6507
 20
365.395
 11
-67.3493
 21
365.395
  0
LINE
  8
0
 10
-67.3493
 20
365.395
 11
-67.0503
 21
365.357
  0
LINE
  8
0
 10
-67.0503
 20
365.357
 11
-66.7584
 21
365.283
  0
LINE
  8
0
 10
-66.7584
 20
365.283
 11
-66.4781
 21
365.172
  0
LINE
  8
0
 10
-66.4781
 20
365.172
 11
-66.214
 21
365.026
  0
LINE
  8
0
 10
-66.214
 20
365.026
 11
-65.9702
 21
364.849
  0
LINE
  8
0
 10
-65.9702
 20
364.849
 11
-65.7505
 21
364.643
  0
LINE
  8
0
 10
-65.7505
 20
364.643
 11
-65.5583
 21
364.411
  0
LINE
  8
0
 10
-65.5583
 20
364.411
 11
-65.3969
 21
364.156
  0
LINE
  8
0
 10
-65.3969
 20
364.156
 11
-65.2685
 21
363.883
  0
LINE
  8
0
 10
-65.2685
 20
363.883
 11
-65.1754
 21
363.597
  0
LINE
  8
0
 10
-65.1754
 20
363.597
 11
-65.1189
 21
363.301
  0
LINE
  8
0
 10
-65.1189
 20
363.301
 11
-65.1
 21
363
  0
LINE
  8
0
 10
-65.1
 20
363
 11
-65.1189
 21
362.699
  0
LINE
  8
0
 10
-65.1189
 20
362.699
 11
-65.1754
 21
362.403
  0
LINE
  8
0
 10
-65.1754
 20
362.403
 11
-65.2685
 21
362.117
  0
LINE
  8
0
 10
-65.2685
 20
362.117
 11
-65.3969
 21
361.844
  0
LINE
  8
0
 10
-65.3969
 20
361.844
 11
-65.5583
 21
361.589
  0
LINE
  8
0
 10
-65.5583
 20
361.589
 11
-65.7505
 21
361.357
  0
LINE
  8
0
 10
-65.7505
 20
361.357
 11
-65.9702
 21
361.151
  0
LINE
  8
0
 10
-65.9702
 20
361.151
 11
-66.214
 21
360.974
  0
LINE
  8
0
 10
-66.214
 20
360.974
 11
-66.4781
 21
360.828
  0
LINE
  8
0
 10
-66.4781
 20
360.828
 11
-66.7584
 21
360.717
  0
LINE
  8
0
 10
-66.7584
 20
360.717
 11
-67.0503
 21
360.643
  0
LINE
  8
0
 10
-67.0503
 20
360.643
 11
-67.3493
 21
360.605
  0
LINE
  8
0
 10
-67.3493
 20
360.605
 11
-67.6507
 21
360.605
  0
LINE
  8
0
 10
-72
 20
121.925
 11
-71.5451
 21
121.745
  0
LINE
  8
0
 10
-71.5451
 20
121.745
 11
-70.9369
 21
121.589
  0
LINE
  8
0
 10
-70.9369
 20
121.589
 11
-70.3139
 21
121.51
  0
LINE
  8
0
 10
-70.3139
 20
121.51
 11
70.3139
 21
121.51
  0
LINE
  8
0
 10
70.3139
 20
121.51
 11
70.9369
 21
121.589
  0
LINE
  8
0
 10
70.9369
 20
121.589
 11
71.5451
 21
121.745
  0
LINE
  8
0
 10
71.5451
 20
121.745
 11
72.1289
 21
121.976
  0
LINE
  8
0
 10
72.1289
 20
121.976
 11
72.6791
 21
122.278
  0
LINE
  8
0
 10
72.6791
 20
122.278
 11
73.1871
 21
122.647
  0
LINE
  8
0
 10
73.1871
 20
122.647
 11
73.6448
 21
123.077
  0
LINE
  8
0
 10
73.6448
 20
123.077
 11
74.0451
 21
123.561
  0
LINE
  8
0
 10
74.0451
 20
123.561
 11
74.3815
 21
124.091
  0
LINE
  8
0
 10
74.3815
 20
124.091
 11
74.6489
 21
124.659
  0
LINE
  8
0
 10
74.6489
 20
124.659
 11
74.8429
 21
125.257
  0
LINE
  8
0
 10
74.8429
 20
125.257
 11
74.9606
 21
125.873
  0
LINE
  8
0
 10
74.9606
 20
125.873
 11
75
 21
126.5
  0
LINE
  8
0
 10
75
 20
126.5
 11
75
 21
341.5
  0
LINE
  8
0
 10
75
 20
341.5
 11
74.9606
 21
342.127
  0
LINE
  8
0
 10
74.9606
 20
342.127
 11
74.8429
 21
342.743
  0
LINE
  8
0
 10
74.8429
 20
342.743
 11
74.6489
 21
343.341
  0
LINE
  8
0
 10
74.6489
 20
343.341
 11
74.3815
 21
343.909
  0
LINE
  8
0
 10
74.3815
 20
343.909
 11
74.0451
 21
344.439
  0
LINE
  8
0
 10
74.0451
 20
344.439
 11
73.6448
 21
344.923
  0
LINE
  8
0
 10
73.6448
 20
344.923
 11
73.1871
 21
345.353
  0
LINE
  8
0
 10
73.1871
 20
345.353
 11
72.6791
 21
345.722
  0
LINE
  8
0
 10
72.6791
 20
345.722
 11
72.1289
 21
346.024
  0
LINE
  8
0
 10
72.1289
 20
346.024
 11
71.5451
 21
346.255
  0
LINE
  8
0
 10
71.5451
 20
346.255
 11
70.9369
 21
346.411
  0
LINE
  8
0
 10
70.9369
 20
346.411
 11
70.3139
 21
346.49
  0
LINE
  8
0
 10
70.3139
 20
346.49
 11
-70.3139
 21
346.49
  0
LINE
  8
0
 10
-70.3139
 20
346.49
 11
-70.9369
 21
346.411
  0
LINE
  8
0
 10
-70.9369
 20
346.411
 11
-71.5451
 21
346.255
  0
LINE
  8
0
 10
-71.5451
 20
346.255
 11
-72
 21
346.075
  0
LINE
  8
0
 10
-72
 20
346.075
 11
-72
 21
346.49
  0
LINE
  8
0
 10
-72
 20
346.49
 11
-75
 21
346.49
  0
LINE
  8
0
 10
-75
 20
346.49
 11
-75
 21
121.51
  0
LINE
  8
0
 10
-75
 20
121.51
 11
-72
 21
121.51
  0
LINE
  8
0
 10
-72
 20
121.51
 11
-72
 21
121.925
  0
LINE
  8
0
 10
67.387
 20
337.204
 11
67.1627
 21
337.232
  0
LINE
  8
0
 10
67.1627
 20
337.232
 11
66.9438
 21
337.288
  0
LINE
  8
0
 10
66.9438
 20
337.288
 11
66.7336
 21
337.371
  0
LINE
  8
0
 10
66.7336
 20
337.371
 11
66.5355
 21
337.48
  0
LINE
  8
0
 10
66.5355
 20
337.48
 11
66.3526
 21
337.613
  0
LINE
  8
0
 10
66.3526
 20
337.613
 11
66.1879
 21
337.768
  0
LINE
  8
0
 10
66.1879
 20
337.768
 11
66.0438
 21
337.942
  0
LINE
  8
0
 10
66.0438
 20
337.942
 11
65.9226
 21
338.133
  0
LINE
  8
0
 10
65.9226
 20
338.133
 11
65.8264
 21
338.337
  0
LINE
  8
0
 10
65.8264
 20
338.337
 11
65.7565
 21
338.552
  0
LINE
  8
0
 10
65.7565
 20
338.552
 11
65.7142
 21
338.774
  0
LINE
  8
0
 10
65.7142
 20
338.774
 11
65.7
 21
339
  0
LINE
  8
0
 10
65.7
 20
339
 11
65.7142
 21
339.226
  0
LINE
  8
0
 10
65.7142
 20
339.226
 11
65.7565
 21
339.448
  0
LINE
  8
0
 10
65.7565
 20
339.448
 11
65.8264
 21
339.663
  0
LINE
  8
0
 10
65.8264
 20
339.663
 11
65.9226
 21
339.867
  0
LINE
  8
0
 10
65.9226
 20
339.867
 11
66.0438
 21
340.058
  0
LINE
  8
0
 10
66.0438
 20
340.058
 11
66.1879
 21
340.232
  0
LINE
  8
0
 10
66.1879
 20
340.232
 11
66.3526
 21
340.387
  0
LINE
  8
0
 10
66.3526
 20
340.387
 11
66.5355
 21
340.52
  0
LINE
  8
0
 10
66.5355
 20
340.52
 11
66.7336
 21
340.629
  0
LINE
  8
0
 10
66.7336
 20
340.629
 11
66.9438
 21
340.712
  0
LINE
  8
0
 10
66.9438
 20
340.712
 11
67.1627
 21
340.768
  0
LINE
  8
0
 10
67.1627
 20
340.768
 11
67.387
 21
340.796
  0
LINE
  8
0
 10
67.387
 20
340.796
 11
67.613
 21
340.796
  0
LINE
  8
0
 10
67.613
 20
340.796
 11
67.8373
 21
340.768
  0
LINE
  8
0
 10
67.8373
 20
340.768
 11
68.0562
 21
340.712
  0
LINE
  8
0
 10
68.0562
 20
340.712
 11
68.2664
 21
340.629
  0
LINE
  8
0
 10
68.2664
 20
340.629
 11
68.4645
 21
340.52
  0
LINE
  8
0
 10
68.4645
 20
340.52
 11
68.6474
 21
340.387
  0
LINE
  8
0
 10
68.6474
 20
340.387
 11
68.8121
 21
340.232
  0
LINE
  8
0
 10
68.8121
 20
340.232
 11
68.9562
 21
340.058
  0
LINE
  8
0
 10
68.9562
 20
340.058
 11
69.0773
 21
339.867
  0
LINE
  8
0
 10
69.0773
 20
339.867
 11
69.1736
 21
339.663
  0
LINE
  8
0
 10
69.1736
 20
339.663
 11
69.2434
 21
339.448
  0
LINE
  8
0
 10
69.2434
 20
339.448
 11
69.2858
 21
339.226
  0
LINE
  8
0
 10
69.2858
 20
339.226
 11
69.3
 21
339
  0
LINE
  8
0
 10
69.3
 20
339
 11
69.2858
 21
338.774
  0
LINE
  8
0
 10
69.2858
 20
338.774
 11
69.2434
 21
338.552
  0
LINE
  8
0
 10
69.2434
 20
338.552
 11
69.1736
 21
338.337
  0
LINE
  8
0
 10
69.1736
 20
338.337
 11
69.0773
 21
338.133
  0
LINE
  8
0
 10
69.0773
 20
338.133
 11
68.9562
 21
337.942
  0
LINE
  8
0
 10
68.9562
 20
337.942
 11
68.8121
 21
337.768
  0
LINE
  8
0
 10
68.8121
 20
337.768
 11
68.6474
 21
337.613
  0
LINE
  8
0
 10
68.6474
 20
337.613
 11
68.4645
 21
337.48
  0
LINE
  8
0
 10
68.4645
 20
337.48
 11
68.2664
 21
337.371
  0
LINE
  8
0
 10
68.2664
 20
337.371
 11
68.0562
 21
337.288
  0
LINE
  8
0
 10
68.0562
 20
337.288
 11
67.8373
 21
337.232
  0
LINE
  8
0
 10
67.8373
 20
337.232
 11
67.613
 21
337.204
  0
LINE
  8
0
 10
67.613
 20
337.204
 11
67.387
 21
337.204
  0
LINE
  8
0
 10
-67.613
 20
337.204
 11
-67.8373
 21
337.232
  0
LINE
  8
0
 10
-67.8373
 20
337.232
 11
-68.0562
 21
337.288
  0
LINE
  8
0
 10
-68.0562
 20
337.288
 11
-68.2664
 21
337.371
  0
LINE
  8
0
 10
-68.2664
 20
337.371
 11
-68.4645
 21
337.48
  0
LINE
  8
0
 10
-68.4645
 20
337.48
 11
-68.6474
 21
337.613
  0
LINE
  8
0
 10
-68.6474
 20
337.613
 11
-68.8121
 21
337.768
  0
LINE
  8
0
 10
-68.8121
 20
337.768
 11
-68.9562
 21
337.942
  0
LINE
  8
0
 10
-68.9562
 20
337.942
 11
-69.0773
 21
338.133
  0
LINE
  8
0
 10
-69.0773
 20
338.133
 11
-69.1736
 21
338.337
  0
LINE
  8
0
 10
-69.1736
 20
338.337
 11
-69.2434
 21
338.552
  0
LINE
  8
0
 10
-69.2434
 20
338.552
 11
-69.2858
 21
338.774
  0
LINE
  8
0
 10
-69.2858
 20
338.774
 11
-69.3
 21
339
  0
LINE
  8
0
 10
-69.3
 20
339
 11
-69.2858
 21
339.226
  0
LINE
  8
0
 10
-69.2858
 20
339.226
 11
-69.2434
 21
339.448
  0
LINE
  8
0
 10
-69.2434
 20
339.448
 11
-69.1736
 21
339.663
  0
LINE
  8
0
 10
-69.1736
 20
339.663
 11
-69.0773
 21
339.867
  0
LINE
  8
0
 10
-69.0773
 20
339.867
 11
-68.9562
 21
340.058
  0
LINE
  8
0
 10
-68.9562
 20
340.058
 11
-68.8121
 21
340.232
  0
LINE
  8
0
 10
-68.8121
 20
340.232
 11
-68.6474
 21
340.387
  0
LINE
  8
0
 10
-68.6474
 20
340.387
 11
-68.4645
 21
340.52
  0
LINE
  8
0
 10
-68.4645
 20
340.52
 11
-68.2664
 21
340.629
  0
LINE
  8
0
 10
-68.2664
 20
340.629
 11
-68.0562
 21
340.712
  0
LINE
  8
0
 10
-68.0562
 20
340.712
 11
-67.8373
 21
340.768
  0
LINE
  8
0
 10
-67.8373
 20
340.768
 11
-67.613
 21
340.796
  0
LINE
  8
0
 10
-67.613
 20
340.796
 11
-67.387
 21
340.796
  0
LINE
  8
0
 10
-67.387
 20
340.796
 11
-67.1627
 21
340.768
  0
LINE
  8
0
 10
-67.1627
 20
340.768
 11
-66.9438
 21
340.712
  0
LINE
  8
0
 10
-66.9438
 20
340.712
 11
-66.7336
 21
340.629
  0
LINE
  8
0
 10
-66.7336
 20
340.629
 11
-66.5355
 21
340.52
  0
LINE
  8
0
 10
-66.5355
 20
340.52
 11
-66.3526
 21
340.387
  0
LINE
  8
0
 10
-66.3526
 20
340.387
 11
-66.1879
 21
340.232
  0
LINE
  8
0
 10
-66.1879
 20
340.232
 11
-66.0438
 21
340.058
  0
LINE
  8
0
 10
-66.0438
 20
340.058
 11
-65.9226
 21
339.867
  0
LINE
  8
0
 10
-65.9226
 20
339.867
 11
-65.8264
 21
339.663
  0
LINE
  8
0
 10
-65.8264
 20
339.663
 11
-65.7565
 21
339.448
  0
LINE
  8
0
 10
-65.7565
 20
339.448
 11
-65.7142
 21
339.226
  0
LINE
  8
0
 10
-65.7142
 20
339.226
 11
-65.7
 21
339
  0
LINE
  8
0
 10
-65.7
 20
339
 11
-65.7142
 21
338.774
  0
LINE
  8
0
 10
-65.7142
 20
338.774
 11
-65.7565
 21
338.552
  0
LINE
  8
0
 10
-65.7565
 20
338.552
 11
-65.8264
 21
338.337
  0
LINE
  8
0
 10
-65.8264
 20
338.337
 11
-65.9226
 21
338.133
  0
LINE
  8
0
 10
-65.9226
 20
338.133
 11
-66.0438
 21
337.942
  0
LINE
  8
0
 10
-66.0438
 20
337.942
 11
-66.1879
 21
337.768
  0
LINE
  8
0
 10
-66.1879
 20
337.768
 11
-66.3526
 21
337.613
  0
LINE
  8
0
 10
-66.3526
 20
337.613
 11
-66.5355
 21
337.48
  0
LINE
  8
0
 10
-66.5355
 20
337.48
 11
-66.7336
 21
337.371
  0
LINE
  8
0
 10
-66.7336
 20
337.371
 11
-66.9438
 21
337.288
  0
LINE
  8
0
 10
-66.9438
 20
337.288
 11
-67.1627
 21
337.232
  0
LINE
  8
0
 10
-67.1627
 20
337.232
 11
-67.387
 21
337.204
  0
LINE
  8
0
 10
-67.387
 20
337.204
 11
-67.613
 21
337.204
  0
LINE
  8
0
 10
-67.613
 20
127.204
 11
-67.8373
 21
127.232
  0
LINE
  8
0
 10
-67.8373
 20
127.232
 11
-68.0562
 21
127.288
  0
LINE
  8
0
 10
-68.0562
 20
127.288
 11
-68.2664
 21
127.371
  0
LINE
  8
0
 10
-68.2664
 20
127.371
 11
-68.4645
 21
127.48
  0
LINE
  8
0
 10
-68.4645
 20
127.48
 11
-68.6474
 21
127.613
  0
LINE
  8
0
 10
-68.6474
 20
127.613
 11
-68.8121
 21
127.768
  0
LINE
  8
0
 10
-68.8121
 20
127.768
 11
-68.9562
 21
127.942
  0
LINE
  8
0
 10
-68.9562
 20
127.942
 11
-69.0773
 21
128.133
  0
LINE
  8
0
 10
-69.0773
 20
128.133
 11
-69.1736
 21
128.337
  0
LINE
  8
0
 10
-69.1736
 20
128.337
 11
-69.2434
 21
128.552
  0
LINE
  8
0
 10
-69.2434
 20
128.552
 11
-69.2858
 21
128.774
  0
LINE
  8
0
 10
-69.2858
 20
128.774
 11
-69.3
 21
129
  0
LINE
  8
0
 10
-69.3
 20
129
 11
-69.2858
 21
129.226
  0
LINE
  8
0
 10
-69.2858
 20
129.226
 11
-69.2434
 21
129.448
  0
LINE
  8
0
 10
-69.2434
 20
129.448
 11
-69.1736
 21
129.663
  0
LINE
  8
0
 10
-69.1736
 20
129.663
 11
-69.0773
 21
129.867
  0
LINE
  8
0
 10
-69.0773
 20
129.867
 11
-68.9562
 21
130.058
  0
LINE
  8
0
 10
-68.9562
 20
130.058
 11
-68.8121
 21
130.232
  0
LINE
  8
0
 10
-68.8121
 20
130.232
 11
-68.6474
 21
130.387
  0
LINE
  8
0
 10
-68.6474
 20
130.387
 11
-68.4645
 21
130.52
  0
LINE
  8
0
 10
-68.4645
 20
130.52
 11
-68.2664
 21
130.629
  0
LINE
  8
0
 10
-68.2664
 20
130.629
 11
-68.0562
 21
130.712
  0
LINE
  8
0
 10
-68.0562
 20
130.712
 11
-67.8373
 21
130.768
  0
LINE
  8
0
 10
-67.8373
 20
130.768
 11
-67.613
 21
130.796
  0
LINE
  8
0
 10
-67.613
 20
130.796
 11
-67.387
 21
130.796
  0
LINE
  8
0
 10
-67.387
 20
130.796
 11
-67.1627
 21
130.768
  0
LINE
  8
0
 10
-67.1627
 20
130.768
 11
-66.9438
 21
130.712
  0
LINE
  8
0
 10
-66.9438
 20
130.712
 11
-66.7336
 21
130.629
  0
LINE
  8
0
 10
-66.7336
 20
130.629
 11
-66.5355
 21
130.52
  0
LINE
  8
0
 10
-66.5355
 20
130.52
 11
-66.3526
 21
130.387
  0
LINE
  8
0
 10
-66.3526
 20
130.387
 11
-66.1879
 21
130.232
  0
LINE
  8
0
 10
-66.1879
 20
130.232
 11
-66.0438
 21
130.058
  0
LINE
  8
0
 10
-66.0438
 20
130.058
 11
-65.9226
 21
129.867
  0
LINE
  8
0
 10
-65.9226
 20
129.867
 11
-65.8264
 21
129.663
  0
LINE
  8
0
 10
-65.8264
 20
129.663
 11
-65.7565
 21
129.448
  0
LINE
  8
0
 10
-65.7565
 20
129.448
 11
-65.7142
 21
129.226
  0
LINE
  8
0
 10
-65.7142
 20
129.226
 11
-65.7
 21
129
  0
LINE
  8
0
 10
-65.7
 20
129
 11
-65.7142
 21
128.774
  0
LINE
  8
0
 10
-65.7142
 20
128.774
 11
-65.7565
 21
128.552
  0
LINE
  8
0
 10
-65.7565
 20
128.552
 11
-65.8264
 21
128.337
  0
LINE
  8
0
 10
-65.8264
 20
128.337
 11
-65.9226
 21
128.133
  0
LINE
  8
0
 10
-65.9226
 20
128.133
 11
-66.0438
 21
127.942
  0
LINE
  8
0
 10
-66.0438
 20
127.942
 11
-66.1879
 21
127.768
  0
LINE
  8
0
 10
-66.1879
 20
127.768
 11
-66.3526
 21
127.613
  0
LINE
  8
0
 10
-66.3526
 20
127.613
 11
-66.5355
 21
127.48
  0
LINE
  8
0
 10
-66.5355
 20
127.48
 11
-66.7336
 21
127.371
  0
LINE
  8
0
 10
-66.7336
 20
127.371
 11
-66.9438
 21
127.288
  0
LINE
  8
0
 10
-66.9438
 20
127.288
 11
-67.1627
 21
127.232
  0
LINE
  8
0
 10
-67.1627
 20
127.232
 11
-67.387
 21
127.204
  0
LINE
  8
0
 10
-67.387
 20
127.204
 11
-67.613
 21
127.204
  0
LINE
  8
0
 10
67.387
 20
127.204
 11
67.1627
 21
127.232
  0
LINE
  8
0
 10
67.1627
 20
127.232
 11
66.9438
 21
127.288
  0
LINE
  8
0
 10
66.9438
 20
127.288
 11
66.7336
 21
127.371
  0
LINE
  8
0
 10
66.7336
 20
127.371
 11
66.5355
 21
127.48
  0
LINE
  8
0
 10
66.5355
 20
127.48
 11
66.3526
 21
127.613
  0
LINE
  8
0
 10
66.3526
 20
127.613
 11
66.1879
 21
127.768
  0
LINE
  8
0
 10
66.1879
 20
127.768
 11
66.0438
 21
127.942
  0
LINE
  8
0
 10
66.0438
 20
127.942
 11
65.9226
 21
128.133
  0
LINE
  8
0
 10
65.9226
 20
128.133
 11
65.8264
 21
128.337
  0
LINE
  8
0
 10
65.8264
 20
128.337
 11
65.7565
 21
128.552
  0
LINE
  8
0
 10
65.7565
 20
128.552
 11
65.7142
 21
128.774
  0
LINE
  8
0
 10
65.7142
 20
128.774
 11
65.7
 21
129
  0
LINE
  8
0
 10
65.7
 20
129
 11
65.7142
 21
129.226
  0
LINE
  8
0
 10
65.7142
 20
129.226
 11
65.7565
 21
129.448
  0
LINE
  8
0
 10
65.7565
 20
129.448
 11
65.8264
 21
129.663
  0
LINE
  8
0
 10
65.8264
 20
129.663
 11
65.9226
 21
129.867
  0
LINE
  8
0
 10
65.9226
 20
129.867
 11
66.0438
 21
130.058
  0
LINE
  8
0
 10
66.0438
 20
130.058
 11
66.1879
 21
130.232
  0
LINE
  8
0
 10
66.1879
 20
130.232
 11
66.3526
 21
130.387
  0
LINE
  8
0
 10
66.3526
 20
130.387
 11
66.5355
 21
130.52
  0
LINE
  8
0
 10
66.5355
 20
130.52
 11
66.7336
 21
130.629
  0
LINE
  8
0
 10
66.7336
 20
130.629
 11
66.9438
 21
130.712
  0
LINE
  8
0
 10
66.9438
 20
130.712
 11
67.1627
 21
130.768
  0
LINE
  8
0
 10
67.1627
 20
130.768
 11
67.387
 21
130.796
  0
LINE
  8
0
 10
67.387
 20
130.796
 11
67.613
 21
130.796
  0
LINE
  8
0
 10
67.613
 20
130.796
 11
67.8373
 21
130.768
  0
LINE
  8
0
 10
67.8373
 20
130.768
 11
68.0562
 21
130.712
  0
LINE
  8
0
 10
68.0562
 20
130.712
 11
68.2664
 21
130.629
  0
LINE
  8
0
 10
68.2664
 20
130.629
 11
68.4645
 21
130.52
  0
LINE
  8
0
 10
68.4645
 20
130.52
 11
68.6474
 21
130.387
  0
LINE
  8
0
 10
68.6474
 20
130.387
 11
68.8121
 21
130.232
  0
LINE
  8
0
 10
68.8121
 20
130.232
 11
68.9562
 21
130.058
  0
LINE
  8
0
 10
68.9562
 20
130.058
 11
69.0773
 21
129.867
  0
LINE
  8
0
 10
69.0773
 20
129.867
 11
69.1736
 21
129.663
  0
LINE
  8
0
 10
69.1736
 20
129.663
 11
69.2434
 21
129.448
  0
LINE
  8
0
 10
69.2434
 20
129.448
 11
69.2858
 21
129.226
  0
LINE
  8
0
 10
69.2858
 20
129.226
 11
69.3
 21
129
  0
LINE
  8
0
 10
69.3
 20
129
 11
69.2858
 21
128.774
  0
LINE
  8
0
 10
69.2858
 20
128.774
 11
69.2434
 21
128.552
  0
LINE
  8
0
 10
69.2434
 20
128.552
 11
69.1736
 21
128.337
  0
LINE
  8
0
 10
69.1736
 20
128.337
 11
69.0773
 21
128.133
  0
LINE
  8
0
 10
69.0773
 20
128.133
 11
68.9562
 21
127.942
  0
LINE
  8
0
 10
68.9562
 20
127.942
 11
68.8121
 21
127.768
  0
LINE
  8
0
 10
68.8121
 20
127.768
 11
68.6474
 21
127.613
  0
LINE
  8
0
 10
68.6474
 20
127.613
 11
68.4645
 21
127.48
  0
LINE
  8
0
 10
68.4645
 20
127.48
 11
68.2664
 21
127.371
  0
LINE
  8
0
 10
68.2664
 20
127.371
 11
68.0562
 21
127.288
  0
LINE
  8
0
 10
68.0562
 20
127.288
 11
67.8373
 21
127.232
  0
LINE
  8
0
 10
67.8373
 20
127.232
 11
67.613
 21
127.204
  0
LINE
  8
0
 10
67.613
 20
127.204
 11
67.387
 21
127.204
  0
LINE
  8
0
 10
-72
 20
112.115
 11
-75
 21
112.115
  0
LINE
  8
0
 10
-75
 20
112.115
 11
-75
 21
-112.115
  0
LINE
  8
0
 10
-75
 20
-112.115
 11
-72
 21
-112.115
  0
LINE
  8
0
 10
-72
 20
-112.115
 11
-72
 21
112.115
  0
ENDSEC
  0
SECTION
  2
OBJECTS
  0
DICTIONARY
  0
ENDSEC
  0
EOF
