<?xml version="1.0" standalone="no"?>
<!DOCTYPE svg PUBLIC "-//W3C//DTD SVG 1.1//EN" "http://www.w3.org/Graphics/SVG/1.1/DTD/svg11.dtd">
<svg width="226mm" height="928mm" viewBox="-113 -1751 226 928" xmlns="http://www.w3.org/2000/svg" version="1.1">
<title>OpenSCAD Model</title>
<path d="
M 108.437,-1525.59 L 109.045,-1525.74 L 109.629,-1525.98 L 110.179,-1526.28 L 110.687,-1526.65 L 111.145,-1527.08
 L 111.545,-1527.56 L 111.882,-1528.09 L 112.149,-1528.66 L 112.343,-1529.26 L 112.461,-1529.87 L 112.5,-1530.5
 L 112.5,-1745.5 L 112.461,-1746.13 L 112.343,-1746.74 L 112.149,-1747.34 L 111.882,-1747.91 L 111.545,-1748.44
 L 111.145,-1748.92 L 110.687,-1749.35 L 110.179,-1749.72 L 109.629,-1750.02 L 109.045,-1750.26 L 108.437,-1750.41
 L 107.814,-1750.49 L -107.814,-1750.49 L -108.437,-1750.41 L -109.045,-1750.26 L -109.629,-1750.02 L -110.179,-1749.72
 L -110.687,-1749.35 L -111.145,-1748.92 L -111.545,-1748.44 L -111.882,-1747.91 L -112.149,-1747.34 L -112.343,-1746.74
 L -112.461,-1746.13 L -112.5,-1745.5 L -112.5,-1530.5 L -112.461,-1529.87 L -112.343,-1529.26 L -112.149,-1528.66
 L -111.882,-1528.09 L -111.545,-1527.56 L -111.145,-1527.08 L -110.687,-1526.65 L -110.179,-1526.28 L -109.629,-1525.98
 L -109.045,-1525.74 L -108.437,-1525.59 L -107.814,-1525.51 L 107.814,-1525.51 z
M -107.548,-1526.01 L -108.14,-1526.08 L -108.718,-1526.23 L -109.272,-1526.45 L -109.795,-1526.74 L -110.278,-1527.09
 L -110.713,-1527.5 L -111.093,-1527.96 L -111.412,-1528.46 L -111.666,-1529 L -111.851,-1529.57 L -111.963,-1530.15
 L -112,-1530.75 L -112,-1745.25 L -111.963,-1745.85 L -111.851,-1746.43 L -111.666,-1747 L -111.412,-1747.54
 L -111.093,-1748.04 L -110.713,-1748.5 L -110.278,-1748.91 L -109.795,-1749.26 L -109.272,-1749.55 L -108.718,-1749.77
 L -108.14,-1749.92 L -107.548,-1749.99 L 107.548,-1749.99 L 108.14,-1749.92 L 108.718,-1749.77 L 109.272,-1749.55
 L 109.795,-1749.26 L 110.278,-1748.91 L 110.713,-1748.5 L 111.093,-1748.04 L 111.412,-1747.54 L 111.666,-1747
 L 111.851,-1746.43 L 111.963,-1745.85 L 112,-1745.25 L 112,-1530.75 L 111.963,-1530.15 L 111.851,-1529.57
 L 111.666,-1529 L 111.412,-1528.46 L 111.093,-1527.96 L 110.713,-1527.5 L 110.278,-1527.09 L 109.795,-1526.74
 L 109.272,-1526.45 L 108.718,-1526.23 L 108.14,-1526.08 L 107.548,-1526.01 z
M 108.437,-1291.59 L 109.045,-1291.74 L 109.629,-1291.98 L 110.179,-1292.28 L 110.687,-1292.65 L 111.145,-1293.08
 L 111.545,-1293.56 L 111.882,-1294.09 L 112.149,-1294.66 L 112.343,-1295.26 L 112.461,-1295.87 L 112.5,-1296.5
 L 112.5,-1511.5 L 112.461,-1512.13 L 112.343,-1512.74 L 112.149,-1513.34 L 111.882,-1513.91 L 111.545,-1514.44
 L 111.145,-1514.92 L 110.687,-1515.35 L 110.179,-1515.72 L 109.629,-1516.02 L 109.045,-1516.26 L 108.437,-1516.41
 L 107.814,-1516.49 L -107.814,-1516.49 L -108.437,-1516.41 L -109.045,-1516.26 L -109.629,-1516.02 L -110.179,-1515.72
 L -110.687,-1515.35 L -111.145,-1514.92 L -111.545,-1514.44 L -111.882,-1513.91 L -112.149,-1513.34 L -112.343,-1512.74
 L -112.461,-1512.13 L -112.5,-1511.5 L -112.5,-1296.5 L -112.461,-1295.87 L -112.343,-1295.26 L -112.149,-1294.66
 L -111.882,-1294.09 L -111.545,-1293.56 L -111.145,-1293.08 L -110.687,-1292.65 L -110.179,-1292.28 L -109.629,-1291.98
 L -109.045,-1291.74 L -108.437,-1291.59 L -107.814,-1291.51 L 107.814,-1291.51 z
M -107.548,-1292.01 L -108.14,-1292.08 L -108.718,-1292.23 L -109.272,-1292.45 L -109.795,-1292.74 L -110.278,-1293.09
 L -110.713,-1293.5 L -111.093,-1293.96 L -111.412,-1294.46 L -111.666,-1295 L -111.851,-1295.57 L -111.963,-1296.15
 L -112,-1296.75 L -112,-1511.25 L -111.963,-1511.85 L -111.851,-1512.43 L -111.666,-1513 L -111.412,-1513.54
 L -111.093,-1514.04 L -110.713,-1514.5 L -110.278,-1514.91 L -109.795,-1515.26 L -109.272,-1515.55 L -108.718,-1515.77
 L -108.14,-1515.92 L -107.548,-1515.99 L 107.548,-1515.99 L 108.14,-1515.92 L 108.718,-1515.77 L 109.272,-1515.55
 L 109.795,-1515.26 L 110.278,-1514.91 L 110.713,-1514.5 L 111.093,-1514.04 L 111.412,-1513.54 L 111.666,-1513
 L 111.851,-1512.43 L 111.963,-1511.85 L 112,-1511.25 L 112,-1296.75 L 111.963,-1296.15 L 111.851,-1295.57
 L 111.666,-1295 L 111.412,-1294.46 L 111.093,-1293.96 L 110.713,-1293.5 L 110.278,-1293.09 L 109.795,-1292.74
 L 109.272,-1292.45 L 108.718,-1292.23 L 108.14,-1292.08 L 107.548,-1292.01 z
M 108.437,-1057.59 L 109.045,-1057.74 L 109.629,-1057.98 L 110.179,-1058.28 L 110.687,-1058.65 L 111.145,-1059.08
 L 111.545,-1059.56 L 111.882,-1060.09 L 112.149,-1060.66 L 112.343,-1061.26 L 112.461,-1061.87 L 112.5,-1062.5
 L 112.5,-1277.5 L 112.461,-1278.13 L 112.343,-1278.74 L 112.149,-1279.34 L 111.882,-1279.91 L 111.545,-1280.44
 L 111.145,-1280.92 L 110.687,-1281.35 L 110.179,-1281.72 L 109.629,-1282.02 L 109.045,-1282.26 L 108.437,-1282.41
 L 107.814,-1282.49 L -107.814,-1282.49 L -108.437,-1282.41 L -109.045,-1282.26 L -109.629,-1282.02 L -110.179,-1281.72
 L -110.687,-1281.35 L -111.145,-1280.92 L -111.545,-1280.44 L -111.882,-1279.91 L -112.149,-1279.34 L -112.343,-1278.74
 L -112.461,-1278.13 L -112.5,-1277.5 L -112.5,-1062.5 L -112.461,-1061.87 L -112.343,-1061.26 L -112.149,-1060.66
 L -111.882,-1060.09 L -111.545,-1059.56 L -111.145,-1059.08 L -110.687,-1058.65 L -110.179,-1058.28 L -109.629,-1057.98
 L -109.045,-1057.74 L -108.437,-1057.59 L -107.814,-1057.51 L 107.814,-1057.51 z
M -107.537,-1058.18 L -108.108,-1058.25 L -108.665,-1058.4 L -109.199,-1058.61 L -109.703,-1058.88 L -110.168,-1059.22
 L -110.588,-1059.62 L -110.954,-1060.06 L -111.262,-1060.54 L -111.507,-1061.06 L -111.685,-1061.61 L -111.792,-1062.18
 L -111.828,-1062.75 L -111.828,-1277.25 L -111.792,-1277.82 L -111.685,-1278.39 L -111.507,-1278.94 L -111.262,-1279.46
 L -110.954,-1279.94 L -110.588,-1280.38 L -110.168,-1280.78 L -109.703,-1281.12 L -109.199,-1281.39 L -108.665,-1281.6
 L -108.108,-1281.75 L -107.537,-1281.82 L 107.537,-1281.82 L 108.108,-1281.75 L 108.665,-1281.6 L 109.199,-1281.39
 L 109.703,-1281.12 L 110.168,-1280.78 L 110.588,-1280.38 L 110.954,-1279.94 L 111.262,-1279.46 L 111.507,-1278.94
 L 111.685,-1278.39 L 111.792,-1277.82 L 111.828,-1277.25 L 111.828,-1062.75 L 111.792,-1062.18 L 111.685,-1061.61
 L 111.507,-1061.06 L 111.262,-1060.54 L 110.954,-1060.06 L 110.588,-1059.62 L 110.168,-1059.22 L 109.703,-1058.88
 L 109.199,-1058.61 L 108.665,-1058.4 L 108.108,-1058.25 L 107.537,-1058.18 z
M 108.437,-823.589 L 109.045,-823.745 L 109.629,-823.976 L 110.179,-824.278 L 110.687,-824.647 L 111.145,-825.077
 L 111.545,-825.561 L 111.882,-826.091 L 112.149,-826.659 L 112.343,-827.257 L 112.461,-827.873 L 112.5,-828.5
 L 112.5,-1043.5 L 112.461,-1044.13 L 112.343,-1044.74 L 112.149,-1045.34 L 111.882,-1045.91 L 111.545,-1046.44
 L 111.145,-1046.92 L 110.687,-1047.35 L 110.179,-1047.72 L 109.629,-1048.02 L 109.045,-1048.26 L 108.437,-1048.41
 L 107.814,-1048.49 L -107.814,-1048.49 L -108.437,-1048.41 L -109.045,-1048.26 L -109.629,-1048.02 L -110.179,-1047.72
 L -110.687,-1047.35 L -111.145,-1046.92 L -111.545,-1046.44 L -111.882,-1045.91 L -112.149,-1045.34 L -112.343,-1044.74
 L -112.461,-1044.13 L -112.5,-1043.5 L -112.5,-828.5 L -112.461,-827.873 L -112.343,-827.257 L -112.149,-826.659
 L -111.882,-826.091 L -111.545,-825.561 L -111.145,-825.077 L -110.687,-824.647 L -110.179,-824.278 L -109.629,-823.976
 L -109.045,-823.745 L -108.437,-823.589 L -107.814,-823.51 L 107.814,-823.51 z
M -107.382,-826.645 L -107.645,-826.678 L -107.902,-826.744 L -108.148,-826.841 L -108.38,-826.969 L -108.595,-827.124
 L -108.788,-827.306 L -108.957,-827.51 L -109.099,-827.734 L -109.211,-827.973 L -109.293,-828.225 L -109.343,-828.486
 L -109.36,-828.75 L -109.36,-1043.25 L -109.343,-1043.51 L -109.293,-1043.77 L -109.211,-1044.03 L -109.099,-1044.27
 L -108.957,-1044.49 L -108.788,-1044.69 L -108.595,-1044.88 L -108.38,-1045.03 L -108.148,-1045.16 L -107.902,-1045.26
 L -107.645,-1045.32 L -107.382,-1045.36 L 107.382,-1045.36 L 107.645,-1045.32 L 107.902,-1045.26 L 108.148,-1045.16
 L 108.38,-1045.03 L 108.595,-1044.88 L 108.788,-1044.69 L 108.957,-1044.49 L 109.099,-1044.27 L 109.211,-1044.03
 L 109.293,-1043.77 L 109.343,-1043.51 L 109.36,-1043.25 L 109.36,-828.75 L 109.343,-828.486 L 109.293,-828.225
 L 109.211,-827.973 L 109.099,-827.734 L 108.957,-827.51 L 108.788,-827.306 L 108.595,-827.124 L 108.38,-826.969
 L 108.148,-826.841 L 107.902,-826.744 L 107.645,-826.678 L 107.382,-826.645 z
" stroke="black" fill="lightgray" stroke-width="0.5"/>
</svg>
