<?xml version="1.0" standalone="no"?>
<!DOCTYPE svg PUBLIC "-//W3C//DTD SVG 1.1//EN" "http://www.w3.org/Graphics/SVG/1.1/DTD/svg11.dtd">
<svg width="166mm" height="1881mm" viewBox="-83 -3681 166 1881" xmlns="http://www.w3.org/2000/svg" version="1.1">
<title>OpenSCAD Model</title>
<path d="
M 78.4369,-3501.09 L 79.0451,-3501.24 L 79.6289,-3501.48 L 80.1791,-3501.78 L 80.6871,-3502.15 L 81.1448,-3502.58
 L 81.5451,-3503.06 L 81.8815,-3503.59 L 82.1489,-3504.16 L 82.3429,-3504.76 L 82.4606,-3505.37 L 82.5,-3506
 L 82.5,-3676 L 82.4606,-3676.63 L 82.3429,-3677.24 L 82.1489,-3677.84 L 81.8815,-3678.41 L 81.5451,-3678.94
 L 81.1448,-3679.42 L 80.6871,-3679.85 L 80.1791,-3680.22 L 79.6289,-3680.52 L 79.0451,-3680.76 L 78.4369,-3680.91
 L 77.8139,-3680.99 L -77.8139,-3680.99 L -78.4369,-3680.91 L -79.0451,-3680.76 L -79.6289,-3680.52 L -80.1791,-3680.22
 L -80.6871,-3679.85 L -81.1448,-3679.42 L -81.5451,-3678.94 L -81.8815,-3678.41 L -82.1489,-3677.84 L -82.3429,-3677.24
 L -82.4606,-3676.63 L -82.5,-3676 L -82.5,-3506 L -82.4606,-3505.37 L -82.3429,-3504.76 L -82.1489,-3504.16
 L -81.8815,-3503.59 L -81.5451,-3503.06 L -81.1448,-3502.58 L -80.6871,-3502.15 L -80.1791,-3501.78 L -79.6289,-3501.48
 L -79.0451,-3501.24 L -78.4369,-3501.09 L -77.8139,-3501.01 L 77.8139,-3501.01 z
M -77.2512,-3502.51 L -77.7495,-3502.57 L -78.2361,-3502.7 L -78.7031,-3502.88 L -79.1433,-3503.12 L -79.5497,-3503.42
 L -79.9159,-3503.76 L -80.2361,-3504.15 L -80.5052,-3504.57 L -80.7191,-3505.03 L -80.8743,-3505.51 L -80.9685,-3506
 L -81,-3506.5 L -81,-3675.5 L -80.9685,-3676 L -80.8743,-3676.49 L -80.7191,-3676.97 L -80.5052,-3677.43
 L -80.2361,-3677.85 L -79.9159,-3678.24 L -79.5497,-3678.58 L -79.1433,-3678.88 L -78.7031,-3679.12 L -78.2361,-3679.3
 L -77.7495,-3679.43 L -77.2512,-3679.49 L 77.2512,-3679.49 L 77.7495,-3679.43 L 78.2361,-3679.3 L 78.7031,-3679.12
 L 79.1433,-3678.88 L 79.5497,-3678.58 L 79.9159,-3678.24 L 80.2361,-3677.85 L 80.5052,-3677.43 L 80.7191,-3676.97
 L 80.8743,-3676.49 L 80.9685,-3676 L 81,-3675.5 L 81,-3506.5 L 80.9685,-3506 L 80.8743,-3505.51
 L 80.7191,-3505.03 L 80.5052,-3504.57 L 80.2361,-3504.15 L 79.9159,-3503.76 L 79.5497,-3503.42 L 79.1433,-3503.12
 L 78.7031,-3502.88 L 78.2361,-3502.7 L 77.7495,-3502.57 L 77.2512,-3502.51 z
M 78.4369,-3312.09 L 79.0451,-3312.24 L 79.6289,-3312.48 L 80.1791,-3312.78 L 80.6871,-3313.15 L 81.1448,-3313.58
 L 81.5451,-3314.06 L 81.8815,-3314.59 L 82.1489,-3315.16 L 82.3429,-3315.76 L 82.4606,-3316.37 L 82.5,-3317
 L 82.5,-3487 L 82.4606,-3487.63 L 82.3429,-3488.24 L 82.1489,-3488.84 L 81.8815,-3489.41 L 81.5451,-3489.94
 L 81.1448,-3490.42 L 80.6871,-3490.85 L 80.1791,-3491.22 L 79.6289,-3491.52 L 79.0451,-3491.76 L 78.4369,-3491.91
 L 77.8139,-3491.99 L -77.8139,-3491.99 L -78.4369,-3491.91 L -79.0451,-3491.76 L -79.6289,-3491.52 L -80.1791,-3491.22
 L -80.6871,-3490.85 L -81.1448,-3490.42 L -81.5451,-3489.94 L -81.8815,-3489.41 L -82.1489,-3488.84 L -82.3429,-3488.24
 L -82.4606,-3487.63 L -82.5,-3487 L -82.5,-3317 L -82.4606,-3316.37 L -82.3429,-3315.76 L -82.1489,-3315.16
 L -81.8815,-3314.59 L -81.5451,-3314.06 L -81.1448,-3313.58 L -80.6871,-3313.15 L -80.1791,-3312.78 L -79.6289,-3312.48
 L -79.0451,-3312.24 L -78.4369,-3312.09 L -77.8139,-3312.01 L 77.8139,-3312.01 z
M -77.2512,-3313.51 L -77.7495,-3313.57 L -78.2361,-3313.7 L -78.7031,-3313.88 L -79.1433,-3314.12 L -79.5497,-3314.42
 L -79.9159,-3314.76 L -80.2361,-3315.15 L -80.5052,-3315.57 L -80.7191,-3316.03 L -80.8743,-3316.51 L -80.9685,-3317
 L -81,-3317.5 L -81,-3486.5 L -80.9685,-3487 L -80.8743,-3487.49 L -80.7191,-3487.97 L -80.5052,-3488.43
 L -80.2361,-3488.85 L -79.9159,-3489.24 L -79.5497,-3489.58 L -79.1433,-3489.88 L -78.7031,-3490.12 L -78.2361,-3490.3
 L -77.7495,-3490.43 L -77.2512,-3490.49 L 77.2512,-3490.49 L 77.7495,-3490.43 L 78.2361,-3490.3 L 78.7031,-3490.12
 L 79.1433,-3489.88 L 79.5497,-3489.58 L 79.9159,-3489.24 L 80.2361,-3488.85 L 80.5052,-3488.43 L 80.7191,-3487.97
 L 80.8743,-3487.49 L 80.9685,-3487 L 81,-3486.5 L 81,-3317.5 L 80.9685,-3317 L 80.8743,-3316.51
 L 80.7191,-3316.03 L 80.5052,-3315.57 L 80.2361,-3315.15 L 79.9159,-3314.76 L 79.5497,-3314.42 L 79.1433,-3314.12
 L 78.7031,-3313.88 L 78.2361,-3313.7 L 77.7495,-3313.57 L 77.2512,-3313.51 z
M 78.4369,-3123.09 L 79.0451,-3123.24 L 79.6289,-3123.48 L 80.1791,-3123.78 L 80.6871,-3124.15 L 81.1448,-3124.58
 L 81.5451,-3125.06 L 81.8815,-3125.59 L 82.1489,-3126.16 L 82.3429,-3126.76 L 82.4606,-3127.37 L 82.5,-3128
 L 82.5,-3298 L 82.4606,-3298.63 L 82.3429,-3299.24 L 82.1489,-3299.84 L 81.8815,-3300.41 L 81.5451,-3300.94
 L 81.1448,-3301.42 L 80.6871,-3301.85 L 80.1791,-3302.22 L 79.6289,-3302.52 L 79.0451,-3302.76 L 78.4369,-3302.91
 L 77.8139,-3302.99 L -77.8139,-3302.99 L -78.4369,-3302.91 L -79.0451,-3302.76 L -79.6289,-3302.52 L -80.1791,-3302.22
 L -80.6871,-3301.85 L -81.1448,-3301.42 L -81.5451,-3300.94 L -81.8815,-3300.41 L -82.1489,-3299.84 L -82.3429,-3299.24
 L -82.4606,-3298.63 L -82.5,-3298 L -82.5,-3128 L -82.4606,-3127.37 L -82.3429,-3126.76 L -82.1489,-3126.16
 L -81.8815,-3125.59 L -81.5451,-3125.06 L -81.1448,-3124.58 L -80.6871,-3124.15 L -80.1791,-3123.78 L -79.6289,-3123.48
 L -79.0451,-3123.24 L -78.4369,-3123.09 L -77.8139,-3123.01 L 77.8139,-3123.01 z
M -77.2512,-3124.51 L -77.7495,-3124.57 L -78.2361,-3124.7 L -78.7031,-3124.88 L -79.1433,-3125.12 L -79.5497,-3125.42
 L -79.9159,-3125.76 L -80.2361,-3126.15 L -80.5052,-3126.57 L -80.7191,-3127.03 L -80.8743,-3127.51 L -80.9685,-3128
 L -81,-3128.5 L -81,-3297.5 L -80.9685,-3298 L -80.8743,-3298.49 L -80.7191,-3298.97 L -80.5052,-3299.43
 L -80.2361,-3299.85 L -79.9159,-3300.24 L -79.5497,-3300.58 L -79.1433,-3300.88 L -78.7031,-3301.12 L -78.2361,-3301.3
 L -77.7495,-3301.43 L -77.2512,-3301.49 L 77.2512,-3301.49 L 77.7495,-3301.43 L 78.2361,-3301.3 L 78.7031,-3301.12
 L 79.1433,-3300.88 L 79.5497,-3300.58 L 79.9159,-3300.24 L 80.2361,-3299.85 L 80.5052,-3299.43 L 80.7191,-3298.97
 L 80.8743,-3298.49 L 80.9685,-3298 L 81,-3297.5 L 81,-3128.5 L 80.9685,-3128 L 80.8743,-3127.51
 L 80.7191,-3127.03 L 80.5052,-3126.57 L 80.2361,-3126.15 L 79.9159,-3125.76 L 79.5497,-3125.42 L 79.1433,-3125.12
 L 78.7031,-3124.88 L 78.2361,-3124.7 L 77.7495,-3124.57 L 77.2512,-3124.51 z
M 78.4369,-2934.09 L 79.0451,-2934.24 L 79.6289,-2934.48 L 80.1791,-2934.78 L 80.6871,-2935.15 L 81.1448,-2935.58
 L 81.5451,-2936.06 L 81.8815,-2936.59 L 82.1489,-2937.16 L 82.3429,-2937.76 L 82.4606,-2938.37 L 82.5,-2939
 L 82.5,-3109 L 82.4606,-3109.63 L 82.3429,-3110.24 L 82.1489,-3110.84 L 81.8815,-3111.41 L 81.5451,-3111.94
 L 81.1448,-3112.42 L 80.6871,-3112.85 L 80.1791,-3113.22 L 79.6289,-3113.52 L 79.0451,-3113.76 L 78.4369,-3113.91
 L 77.8139,-3113.99 L -77.8139,-3113.99 L -78.4369,-3113.91 L -79.0451,-3113.76 L -79.6289,-3113.52 L -80.1791,-3113.22
 L -80.6871,-3112.85 L -81.1448,-3112.42 L -81.5451,-3111.94 L -81.8815,-3111.41 L -82.1489,-3110.84 L -82.3429,-3110.24
 L -82.4606,-3109.63 L -82.5,-3109 L -82.5,-2939 L -82.4606,-2938.37 L -82.3429,-2937.76 L -82.1489,-2937.16
 L -81.8815,-2936.59 L -81.5451,-2936.06 L -81.1448,-2935.58 L -80.6871,-2935.15 L -80.1791,-2934.78 L -79.6289,-2934.48
 L -79.0451,-2934.24 L -78.4369,-2934.09 L -77.8139,-2934.01 L 77.8139,-2934.01 z
M -77.2512,-2935.51 L -77.7495,-2935.57 L -78.2361,-2935.7 L -78.7031,-2935.88 L -79.1433,-2936.12 L -79.5497,-2936.42
 L -79.9159,-2936.76 L -80.2361,-2937.15 L -80.5052,-2937.57 L -80.7191,-2938.03 L -80.8743,-2938.51 L -80.9685,-2939
 L -81,-2939.5 L -81,-3108.5 L -80.9685,-3109 L -80.8743,-3109.49 L -80.7191,-3109.97 L -80.5052,-3110.43
 L -80.2361,-3110.85 L -79.9159,-3111.24 L -79.5497,-3111.58 L -79.1433,-3111.88 L -78.7031,-3112.12 L -78.2361,-3112.3
 L -77.7495,-3112.43 L -77.2512,-3112.49 L 77.2512,-3112.49 L 77.7495,-3112.43 L 78.2361,-3112.3 L 78.7031,-3112.12
 L 79.1433,-3111.88 L 79.5497,-3111.58 L 79.9159,-3111.24 L 80.2361,-3110.85 L 80.5052,-3110.43 L 80.7191,-3109.97
 L 80.8743,-3109.49 L 80.9685,-3109 L 81,-3108.5 L 81,-2939.5 L 80.9685,-2939 L 80.8743,-2938.51
 L 80.7191,-2938.03 L 80.5052,-2937.57 L 80.2361,-2937.15 L 79.9159,-2936.76 L 79.5497,-2936.42 L 79.1433,-2936.12
 L 78.7031,-2935.88 L 78.2361,-2935.7 L 77.7495,-2935.57 L 77.2512,-2935.51 z
M 78.4369,-2745.09 L 79.0451,-2745.24 L 79.6289,-2745.48 L 80.1791,-2745.78 L 80.6871,-2746.15 L 81.1448,-2746.58
 L 81.5451,-2747.06 L 81.8815,-2747.59 L 82.1489,-2748.16 L 82.3429,-2748.76 L 82.4606,-2749.37 L 82.5,-2750
 L 82.5,-2920 L 82.4606,-2920.63 L 82.3429,-2921.24 L 82.1489,-2921.84 L 81.8815,-2922.41 L 81.5451,-2922.94
 L 81.1448,-2923.42 L 80.6871,-2923.85 L 80.1791,-2924.22 L 79.6289,-2924.52 L 79.0451,-2924.76 L 78.4369,-2924.91
 L 77.8139,-2924.99 L -77.8139,-2924.99 L -78.4369,-2924.91 L -79.0451,-2924.76 L -79.6289,-2924.52 L -80.1791,-2924.22
 L -80.6871,-2923.85 L -81.1448,-2923.42 L -81.5451,-2922.94 L -81.8815,-2922.41 L -82.1489,-2921.84 L -82.3429,-2921.24
 L -82.4606,-2920.63 L -82.5,-2920 L -82.5,-2750 L -82.4606,-2749.37 L -82.3429,-2748.76 L -82.1489,-2748.16
 L -81.8815,-2747.59 L -81.5451,-2747.06 L -81.1448,-2746.58 L -80.6871,-2746.15 L -80.1791,-2745.78 L -79.6289,-2745.48
 L -79.0451,-2745.24 L -78.4369,-2745.09 L -77.8139,-2745.01 L 77.8139,-2745.01 z
M -77.2512,-2746.51 L -77.7495,-2746.57 L -78.2361,-2746.7 L -78.7031,-2746.88 L -79.1433,-2747.12 L -79.5497,-2747.42
 L -79.9159,-2747.76 L -80.2361,-2748.15 L -80.5052,-2748.57 L -80.7191,-2749.03 L -80.8743,-2749.51 L -80.9685,-2750
 L -81,-2750.5 L -81,-2919.5 L -80.9685,-2920 L -80.8743,-2920.49 L -80.7191,-2920.97 L -80.5052,-2921.43
 L -80.2361,-2921.85 L -79.9159,-2922.24 L -79.5497,-2922.58 L -79.1433,-2922.88 L -78.7031,-2923.12 L -78.2361,-2923.3
 L -77.7495,-2923.43 L -77.2512,-2923.49 L 77.2512,-2923.49 L 77.7495,-2923.43 L 78.2361,-2923.3 L 78.7031,-2923.12
 L 79.1433,-2922.88 L 79.5497,-2922.58 L 79.9159,-2922.24 L 80.2361,-2921.85 L 80.5052,-2921.43 L 80.7191,-2920.97
 L 80.8743,-2920.49 L 80.9685,-2920 L 81,-2919.5 L 81,-2750.5 L 80.9685,-2750 L 80.8743,-2749.51
 L 80.7191,-2749.03 L 80.5052,-2748.57 L 80.2361,-2748.15 L 79.9159,-2747.76 L 79.5497,-2747.42 L 79.1433,-2747.12
 L 78.7031,-2746.88 L 78.2361,-2746.7 L 77.7495,-2746.57 L 77.2512,-2746.51 z
M 78.4369,-2556.09 L 79.0451,-2556.24 L 79.6289,-2556.48 L 80.1791,-2556.78 L 80.6871,-2557.15 L 81.1448,-2557.58
 L 81.5451,-2558.06 L 81.8815,-2558.59 L 82.1489,-2559.16 L 82.3429,-2559.76 L 82.4606,-2560.37 L 82.5,-2561
 L 82.5,-2731 L 82.4606,-2731.63 L 82.3429,-2732.24 L 82.1489,-2732.84 L 81.8815,-2733.41 L 81.5451,-2733.94
 L 81.1448,-2734.42 L 80.6871,-2734.85 L 80.1791,-2735.22 L 79.6289,-2735.52 L 79.0451,-2735.76 L 78.4369,-2735.91
 L 77.8139,-2735.99 L -77.8139,-2735.99 L -78.4369,-2735.91 L -79.0451,-2735.76 L -79.6289,-2735.52 L -80.1791,-2735.22
 L -80.6871,-2734.85 L -81.1448,-2734.42 L -81.5451,-2733.94 L -81.8815,-2733.41 L -82.1489,-2732.84 L -82.3429,-2732.24
 L -82.4606,-2731.63 L -82.5,-2731 L -82.5,-2561 L -82.4606,-2560.37 L -82.3429,-2559.76 L -82.1489,-2559.16
 L -81.8815,-2558.59 L -81.5451,-2558.06 L -81.1448,-2557.58 L -80.6871,-2557.15 L -80.1791,-2556.78 L -79.6289,-2556.48
 L -79.0451,-2556.24 L -78.4369,-2556.09 L -77.8139,-2556.01 L 77.8139,-2556.01 z
M -77.2512,-2557.51 L -77.7495,-2557.57 L -78.2361,-2557.7 L -78.7031,-2557.88 L -79.1433,-2558.12 L -79.5497,-2558.42
 L -79.9159,-2558.76 L -80.2361,-2559.15 L -80.5052,-2559.57 L -80.7191,-2560.03 L -80.8743,-2560.51 L -80.9685,-2561
 L -81,-2561.5 L -81,-2730.5 L -80.9685,-2731 L -80.8743,-2731.49 L -80.7191,-2731.97 L -80.5052,-2732.43
 L -80.2361,-2732.85 L -79.9159,-2733.24 L -79.5497,-2733.58 L -79.1433,-2733.88 L -78.7031,-2734.12 L -78.2361,-2734.3
 L -77.7495,-2734.43 L -77.2512,-2734.49 L 77.2512,-2734.49 L 77.7495,-2734.43 L 78.2361,-2734.3 L 78.7031,-2734.12
 L 79.1433,-2733.88 L 79.5497,-2733.58 L 79.9159,-2733.24 L 80.2361,-2732.85 L 80.5052,-2732.43 L 80.7191,-2731.97
 L 80.8743,-2731.49 L 80.9685,-2731 L 81,-2730.5 L 81,-2561.5 L 80.9685,-2561 L 80.8743,-2560.51
 L 80.7191,-2560.03 L 80.5052,-2559.57 L 80.2361,-2559.15 L 79.9159,-2558.76 L 79.5497,-2558.42 L 79.1433,-2558.12
 L 78.7031,-2557.88 L 78.2361,-2557.7 L 77.7495,-2557.57 L 77.2512,-2557.51 z
M 78.4369,-2367.09 L 79.0451,-2367.24 L 79.6289,-2367.48 L 80.1791,-2367.78 L 80.6871,-2368.15 L 81.1448,-2368.58
 L 81.5451,-2369.06 L 81.8815,-2369.59 L 82.1489,-2370.16 L 82.3429,-2370.76 L 82.4606,-2371.37 L 82.5,-2372
 L 82.5,-2542 L 82.4606,-2542.63 L 82.3429,-2543.24 L 82.1489,-2543.84 L 81.8815,-2544.41 L 81.5451,-2544.94
 L 81.1448,-2545.42 L 80.6871,-2545.85 L 80.1791,-2546.22 L 79.6289,-2546.52 L 79.0451,-2546.76 L 78.4369,-2546.91
 L 77.8139,-2546.99 L -77.8139,-2546.99 L -78.4369,-2546.91 L -79.0451,-2546.76 L -79.6289,-2546.52 L -80.1791,-2546.22
 L -80.6871,-2545.85 L -81.1448,-2545.42 L -81.5451,-2544.94 L -81.8815,-2544.41 L -82.1489,-2543.84 L -82.3429,-2543.24
 L -82.4606,-2542.63 L -82.5,-2542 L -82.5,-2372 L -82.4606,-2371.37 L -82.3429,-2370.76 L -82.1489,-2370.16
 L -81.8815,-2369.59 L -81.5451,-2369.06 L -81.1448,-2368.58 L -80.6871,-2368.15 L -80.1791,-2367.78 L -79.6289,-2367.48
 L -79.0451,-2367.24 L -78.4369,-2367.09 L -77.8139,-2367.01 L 77.8139,-2367.01 z
M -77.2512,-2368.51 L -77.7495,-2368.57 L -78.2361,-2368.7 L -78.7031,-2368.88 L -79.1433,-2369.12 L -79.5497,-2369.42
 L -79.9159,-2369.76 L -80.2361,-2370.15 L -80.5052,-2370.57 L -80.7191,-2371.03 L -80.8743,-2371.51 L -80.9685,-2372
 L -81,-2372.5 L -81,-2541.5 L -80.9685,-2542 L -80.8743,-2542.49 L -80.7191,-2542.97 L -80.5052,-2543.43
 L -80.2361,-2543.85 L -79.9159,-2544.24 L -79.5497,-2544.58 L -79.1433,-2544.88 L -78.7031,-2545.12 L -78.2361,-2545.3
 L -77.7495,-2545.43 L -77.2512,-2545.49 L 77.2512,-2545.49 L 77.7495,-2545.43 L 78.2361,-2545.3 L 78.7031,-2545.12
 L 79.1433,-2544.88 L 79.5497,-2544.58 L 79.9159,-2544.24 L 80.2361,-2543.85 L 80.5052,-2543.43 L 80.7191,-2542.97
 L 80.8743,-2542.49 L 80.9685,-2542 L 81,-2541.5 L 81,-2372.5 L 80.9685,-2372 L 80.8743,-2371.51
 L 80.7191,-2371.03 L 80.5052,-2370.57 L 80.2361,-2370.15 L 79.9159,-2369.76 L 79.5497,-2369.42 L 79.1433,-2369.12
 L 78.7031,-2368.88 L 78.2361,-2368.7 L 77.7495,-2368.57 L 77.2512,-2368.51 z
M 78.4369,-2178.09 L 79.0451,-2178.24 L 79.6289,-2178.48 L 80.1791,-2178.78 L 80.6871,-2179.15 L 81.1448,-2179.58
 L 81.5451,-2180.06 L 81.8815,-2180.59 L 82.1489,-2181.16 L 82.3429,-2181.76 L 82.4606,-2182.37 L 82.5,-2183
 L 82.5,-2353 L 82.4606,-2353.63 L 82.3429,-2354.24 L 82.1489,-2354.84 L 81.8815,-2355.41 L 81.5451,-2355.94
 L 81.1448,-2356.42 L 80.6871,-2356.85 L 80.1791,-2357.22 L 79.6289,-2357.52 L 79.0451,-2357.76 L 78.4369,-2357.91
 L 77.8139,-2357.99 L -77.8139,-2357.99 L -78.4369,-2357.91 L -79.0451,-2357.76 L -79.6289,-2357.52 L -80.1791,-2357.22
 L -80.6871,-2356.85 L -81.1448,-2356.42 L -81.5451,-2355.94 L -81.8815,-2355.41 L -82.1489,-2354.84 L -82.3429,-2354.24
 L -82.4606,-2353.63 L -82.5,-2353 L -82.5,-2183 L -82.4606,-2182.37 L -82.3429,-2181.76 L -82.1489,-2181.16
 L -81.8815,-2180.59 L -81.5451,-2180.06 L -81.1448,-2179.58 L -80.6871,-2179.15 L -80.1791,-2178.78 L -79.6289,-2178.48
 L -79.0451,-2178.24 L -78.4369,-2178.09 L -77.8139,-2178.01 L 77.8139,-2178.01 z
M -77.2512,-2179.51 L -77.7495,-2179.57 L -78.2361,-2179.7 L -78.7031,-2179.88 L -79.1433,-2180.12 L -79.5497,-2180.42
 L -79.9159,-2180.76 L -80.2361,-2181.15 L -80.5052,-2181.57 L -80.7191,-2182.03 L -80.8743,-2182.51 L -80.9685,-2183
 L -81,-2183.5 L -81,-2352.5 L -80.9685,-2353 L -80.8743,-2353.49 L -80.7191,-2353.97 L -80.5052,-2354.43
 L -80.2361,-2354.85 L -79.9159,-2355.24 L -79.5497,-2355.58 L -79.1433,-2355.88 L -78.7031,-2356.12 L -78.2361,-2356.3
 L -77.7495,-2356.43 L -77.2512,-2356.49 L 77.2512,-2356.49 L 77.7495,-2356.43 L 78.2361,-2356.3 L 78.7031,-2356.12
 L 79.1433,-2355.88 L 79.5497,-2355.58 L 79.9159,-2355.24 L 80.2361,-2354.85 L 80.5052,-2354.43 L 80.7191,-2353.97
 L 80.8743,-2353.49 L 80.9685,-2353 L 81,-2352.5 L 81,-2183.5 L 80.9685,-2183 L 80.8743,-2182.51
 L 80.7191,-2182.03 L 80.5052,-2181.57 L 80.2361,-2181.15 L 79.9159,-2180.76 L 79.5497,-2180.42 L 79.1433,-2180.12
 L 78.7031,-2179.88 L 78.2361,-2179.7 L 77.7495,-2179.57 L 77.2512,-2179.51 z
M 78.4369,-1989.09 L 79.0451,-1989.24 L 79.6289,-1989.48 L 80.1791,-1989.78 L 80.6871,-1990.15 L 81.1448,-1990.58
 L 81.5451,-1991.06 L 81.8815,-1991.59 L 82.1489,-1992.16 L 82.3429,-1992.76 L 82.4606,-1993.37 L 82.5,-1994
 L 82.5,-2164 L 82.4606,-2164.63 L 82.3429,-2165.24 L 82.1489,-2165.84 L 81.8815,-2166.41 L 81.5451,-2166.94
 L 81.1448,-2167.42 L 80.6871,-2167.85 L 80.1791,-2168.22 L 79.6289,-2168.52 L 79.0451,-2168.76 L 78.4369,-2168.91
 L 77.8139,-2168.99 L -77.8139,-2168.99 L -78.4369,-2168.91 L -79.0451,-2168.76 L -79.6289,-2168.52 L -80.1791,-2168.22
 L -80.6871,-2167.85 L -81.1448,-2167.42 L -81.5451,-2166.94 L -81.8815,-2166.41 L -82.1489,-2165.84 L -82.3429,-2165.24
 L -82.4606,-2164.63 L -82.5,-2164 L -82.5,-1994 L -82.4606,-1993.37 L -82.3429,-1992.76 L -82.1489,-1992.16
 L -81.8815,-1991.59 L -81.5451,-1991.06 L -81.1448,-1990.58 L -80.6871,-1990.15 L -80.1791,-1989.78 L -79.6289,-1989.48
 L -79.0451,-1989.24 L -78.4369,-1989.09 L -77.8139,-1989.01 L 77.8139,-1989.01 z
M -77.1955,-1991.39 L -77.5833,-1991.44 L -77.9619,-1991.54 L -78.3254,-1991.68 L -78.668,-1991.87 L -78.9843,-1992.1
 L -79.2692,-1992.37 L -79.5184,-1992.67 L -79.7279,-1993 L -79.8943,-1993.35 L -80.0151,-1993.73 L -80.0884,-1994.11
 L -80.1129,-1994.5 L -80.1129,-2163.5 L -80.0884,-2163.89 L -80.0151,-2164.27 L -79.8943,-2164.65 L -79.7279,-2165
 L -79.5184,-2165.33 L -79.2692,-2165.63 L -78.9843,-2165.9 L -78.668,-2166.13 L -78.3254,-2166.32 L -77.9619,-2166.46
 L -77.5833,-2166.56 L -77.1955,-2166.61 L 77.1955,-2166.61 L 77.5833,-2166.56 L 77.9619,-2166.46 L 78.3254,-2166.32
 L 78.668,-2166.13 L 78.9843,-2165.9 L 79.2692,-2165.63 L 79.5184,-2165.33 L 79.7279,-2165 L 79.8943,-2164.65
 L 80.0151,-2164.27 L 80.0884,-2163.89 L 80.1129,-2163.5 L 80.1129,-1994.5 L 80.0884,-1994.11 L 80.0151,-1993.73
 L 79.8943,-1993.35 L 79.7279,-1993 L 79.5184,-1992.67 L 79.2692,-1992.37 L 78.9843,-1992.1 L 78.668,-1991.87
 L 78.3254,-1991.68 L 77.9619,-1991.54 L 77.5833,-1991.44 L 77.1955,-1991.39 z
M 78.4369,-1800.09 L 79.0451,-1800.24 L 79.6289,-1800.48 L 80.1791,-1800.78 L 80.6871,-1801.15 L 81.1448,-1801.58
 L 81.5451,-1802.06 L 81.8815,-1802.59 L 82.1489,-1803.16 L 82.3429,-1803.76 L 82.4606,-1804.37 L 82.5,-1805
 L 82.5,-1975 L 82.4606,-1975.63 L 82.3429,-1976.24 L 82.1489,-1976.84 L 81.8815,-1977.41 L 81.5451,-1977.94
 L 81.1448,-1978.42 L 80.6871,-1978.85 L 80.1791,-1979.22 L 79.6289,-1979.52 L 79.0451,-1979.76 L 78.4369,-1979.91
 L 77.8139,-1979.99 L -77.8139,-1979.99 L -78.4369,-1979.91 L -79.0451,-1979.76 L -79.6289,-1979.52 L -80.1791,-1979.22
 L -80.6871,-1978.85 L -81.1448,-1978.42 L -81.5451,-1977.94 L -81.8815,-1977.41 L -82.1489,-1976.84 L -82.3429,-1976.24
 L -82.4606,-1975.63 L -82.5,-1975 L -82.5,-1805 L -82.4606,-1804.37 L -82.3429,-1803.76 L -82.1489,-1803.16
 L -81.8815,-1802.59 L -81.5451,-1802.06 L -81.1448,-1801.58 L -80.6871,-1801.15 L -80.1791,-1800.78 L -79.6289,-1800.48
 L -79.0451,-1800.24 L -78.4369,-1800.09 L -77.8139,-1800.01 L 77.8139,-1800.01 z
M -75.1341,-1970.37 L -75.4001,-1970.4 L -75.6598,-1970.47 L -75.9092,-1970.57 L -76.1441,-1970.7 L -76.3611,-1970.85
 L -76.5566,-1971.04 L -76.7275,-1971.24 L -76.8712,-1971.47 L -76.9853,-1971.71 L -77.0682,-1971.97 L -77.1185,-1972.23
 L -77.1353,-1972.5 L -77.1185,-1972.77 L -77.0682,-1973.03 L -76.9853,-1973.29 L -76.8712,-1973.53 L -76.7275,-1973.76
 L -76.5566,-1973.96 L -76.3611,-1974.15 L -76.1441,-1974.3 L -75.9092,-1974.43 L -75.6598,-1974.53 L -75.4001,-1974.6
 L -75.1341,-1974.63 L -74.8659,-1974.63 L -74.5999,-1974.6 L -74.3401,-1974.53 L -74.0908,-1974.43 L -73.8559,-1974.3
 L -73.6389,-1974.15 L -73.4434,-1973.96 L -73.2725,-1973.76 L -73.1288,-1973.53 L -73.0146,-1973.29 L -72.9318,-1973.03
 L -72.8815,-1972.77 L -72.8647,-1972.5 L -72.8815,-1972.23 L -72.9318,-1971.97 L -73.0146,-1971.71 L -73.1288,-1971.47
 L -73.2725,-1971.24 L -73.4434,-1971.04 L -73.6389,-1970.85 L -73.8559,-1970.7 L -74.0908,-1970.57 L -74.3401,-1970.47
 L -74.5999,-1970.4 L -74.8659,-1970.37 z
M 74.8659,-1970.37 L 74.5999,-1970.4 L 74.3401,-1970.47 L 74.0908,-1970.57 L 73.8559,-1970.7 L 73.6389,-1970.85
 L 73.4434,-1971.04 L 73.2725,-1971.24 L 73.1288,-1971.47 L 73.0146,-1971.71 L 72.9318,-1971.97 L 72.8815,-1972.23
 L 72.8647,-1972.5 L 72.8815,-1972.77 L 72.9318,-1973.03 L 73.0146,-1973.29 L 73.1288,-1973.53 L 73.2725,-1973.76
 L 73.4434,-1973.96 L 73.6389,-1974.15 L 73.8559,-1974.3 L 74.0908,-1974.43 L 74.3401,-1974.53 L 74.5999,-1974.6
 L 74.8659,-1974.63 L 75.1341,-1974.63 L 75.4001,-1974.6 L 75.6598,-1974.53 L 75.9092,-1974.43 L 76.1441,-1974.3
 L 76.3611,-1974.15 L 76.5566,-1973.96 L 76.7275,-1973.76 L 76.8712,-1973.53 L 76.9853,-1973.29 L 77.0682,-1973.03
 L 77.1185,-1972.77 L 77.1353,-1972.5 L 77.1185,-1972.23 L 77.0682,-1971.97 L 76.9853,-1971.71 L 76.8712,-1971.47
 L 76.7275,-1971.24 L 76.5566,-1971.04 L 76.3611,-1970.85 L 76.1441,-1970.7 L 75.9092,-1970.57 L 75.6598,-1970.47
 L 75.4001,-1970.4 L 75.1341,-1970.37 z
M -75.1341,-1805.37 L -75.4001,-1805.4 L -75.6598,-1805.47 L -75.9092,-1805.57 L -76.1441,-1805.7 L -76.3611,-1805.85
 L -76.5566,-1806.04 L -76.7275,-1806.24 L -76.8712,-1806.47 L -76.9853,-1806.71 L -77.0682,-1806.97 L -77.1185,-1807.23
 L -77.1353,-1807.5 L -77.1185,-1807.77 L -77.0682,-1808.03 L -76.9853,-1808.29 L -76.8712,-1808.53 L -76.7275,-1808.76
 L -76.5566,-1808.96 L -76.3611,-1809.15 L -76.1441,-1809.3 L -75.9092,-1809.43 L -75.6598,-1809.53 L -75.4001,-1809.6
 L -75.1341,-1809.63 L -74.8659,-1809.63 L -74.5999,-1809.6 L -74.3401,-1809.53 L -74.0908,-1809.43 L -73.8559,-1809.3
 L -73.6389,-1809.15 L -73.4434,-1808.96 L -73.2725,-1808.76 L -73.1288,-1808.53 L -73.0146,-1808.29 L -72.9318,-1808.03
 L -72.8815,-1807.77 L -72.8647,-1807.5 L -72.8815,-1807.23 L -72.9318,-1806.97 L -73.0146,-1806.71 L -73.1288,-1806.47
 L -73.2725,-1806.24 L -73.4434,-1806.04 L -73.6389,-1805.85 L -73.8559,-1805.7 L -74.0908,-1805.57 L -74.3401,-1805.47
 L -74.5999,-1805.4 L -74.8659,-1805.37 z
M 74.8659,-1805.37 L 74.5999,-1805.4 L 74.3401,-1805.47 L 74.0908,-1805.57 L 73.8559,-1805.7 L 73.6389,-1805.85
 L 73.4434,-1806.04 L 73.2725,-1806.24 L 73.1288,-1806.47 L 73.0146,-1806.71 L 72.9318,-1806.97 L 72.8815,-1807.23
 L 72.8647,-1807.5 L 72.8815,-1807.77 L 72.9318,-1808.03 L 73.0146,-1808.29 L 73.1288,-1808.53 L 73.2725,-1808.76
 L 73.4434,-1808.96 L 73.6389,-1809.15 L 73.8559,-1809.3 L 74.0908,-1809.43 L 74.3401,-1809.53 L 74.5999,-1809.6
 L 74.8659,-1809.63 L 75.1341,-1809.63 L 75.4001,-1809.6 L 75.6598,-1809.53 L 75.9092,-1809.43 L 76.1441,-1809.3
 L 76.3611,-1809.15 L 76.5566,-1808.96 L 76.7275,-1808.76 L 76.8712,-1808.53 L 76.9853,-1808.29 L 77.0682,-1808.03
 L 77.1185,-1807.77 L 77.1353,-1807.5 L 77.1185,-1807.23 L 77.0682,-1806.97 L 76.9853,-1806.71 L 76.8712,-1806.47
 L 76.7275,-1806.24 L 76.5566,-1806.04 L 76.3611,-1805.85 L 76.1441,-1805.7 L 75.9092,-1805.57 L 75.6598,-1805.47
 L 75.4001,-1805.4 L 75.1341,-1805.37 z
" stroke="black" fill="lightgray" stroke-width="0.5"/>
</svg>
