  0
SECTION
  2
BLOCKS
  0
ENDSEC
  0
SECTION
  2
ENTITIES
  0
LINE
  8
0
 10
108.437
 20
1038.09
 11
109.045
 21
1038.24
  0
LINE
  8
0
 10
109.045
 20
1038.24
 11
109.629
 21
1038.48
  0
LINE
  8
0
 10
109.629
 20
1038.48
 11
110.179
 21
1038.78
  0
LINE
  8
0
 10
110.179
 20
1038.78
 11
110.687
 21
1039.15
  0
LINE
  8
0
 10
110.687
 20
1039.15
 11
111.145
 21
1039.58
  0
LINE
  8
0
 10
111.145
 20
1039.58
 11
111.545
 21
1040.06
  0
LINE
  8
0
 10
111.545
 20
1040.06
 11
111.882
 21
1040.59
  0
LINE
  8
0
 10
111.882
 20
1040.59
 11
112.149
 21
1041.16
  0
LINE
  8
0
 10
112.149
 20
1041.16
 11
112.343
 21
1041.76
  0
LINE
  8
0
 10
112.343
 20
1041.76
 11
112.461
 21
1042.37
  0
LINE
  8
0
 10
112.461
 20
1042.37
 11
112.5
 21
1043
  0
LINE
  8
0
 10
112.5
 20
1043
 11
112.5
 21
1183
  0
LINE
  8
0
 10
112.5
 20
1183
 11
112.461
 21
1183.63
  0
LINE
  8
0
 10
112.461
 20
1183.63
 11
112.343
 21
1184.24
  0
LINE
  8
0
 10
112.343
 20
1184.24
 11
112.149
 21
1184.84
  0
LINE
  8
0
 10
112.149
 20
1184.84
 11
111.882
 21
1185.41
  0
LINE
  8
0
 10
111.882
 20
1185.41
 11
111.545
 21
1185.94
  0
LINE
  8
0
 10
111.545
 20
1185.94
 11
111.145
 21
1186.42
  0
LINE
  8
0
 10
111.145
 20
1186.42
 11
110.687
 21
1186.85
  0
LINE
  8
0
 10
110.687
 20
1186.85
 11
110.179
 21
1187.22
  0
LINE
  8
0
 10
110.179
 20
1187.22
 11
109.629
 21
1187.52
  0
LINE
  8
0
 10
109.629
 20
1187.52
 11
109.045
 21
1187.76
  0
LINE
  8
0
 10
109.045
 20
1187.76
 11
108.437
 21
1187.91
  0
LINE
  8
0
 10
108.437
 20
1187.91
 11
107.814
 21
1187.99
  0
LINE
  8
0
 10
107.814
 20
1187.99
 11
-107.814
 21
1187.99
  0
LINE
  8
0
 10
-107.814
 20
1187.99
 11
-108.437
 21
1187.91
  0
LINE
  8
0
 10
-108.437
 20
1187.91
 11
-109.045
 21
1187.76
  0
LINE
  8
0
 10
-109.045
 20
1187.76
 11
-109.629
 21
1187.52
  0
LINE
  8
0
 10
-109.629
 20
1187.52
 11
-110.179
 21
1187.22
  0
LINE
  8
0
 10
-110.179
 20
1187.22
 11
-110.687
 21
1186.85
  0
LINE
  8
0
 10
-110.687
 20
1186.85
 11
-111.145
 21
1186.42
  0
LINE
  8
0
 10
-111.145
 20
1186.42
 11
-111.545
 21
1185.94
  0
LINE
  8
0
 10
-111.545
 20
1185.94
 11
-111.882
 21
1185.41
  0
LINE
  8
0
 10
-111.882
 20
1185.41
 11
-112.149
 21
1184.84
  0
LINE
  8
0
 10
-112.149
 20
1184.84
 11
-112.343
 21
1184.24
  0
LINE
  8
0
 10
-112.343
 20
1184.24
 11
-112.461
 21
1183.63
  0
LINE
  8
0
 10
-112.461
 20
1183.63
 11
-112.5
 21
1183
  0
LINE
  8
0
 10
-112.5
 20
1183
 11
-112.5
 21
1043
  0
LINE
  8
0
 10
-112.5
 20
1043
 11
-112.461
 21
1042.37
  0
LINE
  8
0
 10
-112.461
 20
1042.37
 11
-112.343
 21
1041.76
  0
LINE
  8
0
 10
-112.343
 20
1041.76
 11
-112.149
 21
1041.16
  0
LINE
  8
0
 10
-112.149
 20
1041.16
 11
-111.882
 21
1040.59
  0
LINE
  8
0
 10
-111.882
 20
1040.59
 11
-111.545
 21
1040.06
  0
LINE
  8
0
 10
-111.545
 20
1040.06
 11
-111.145
 21
1039.58
  0
LINE
  8
0
 10
-111.145
 20
1039.58
 11
-110.687
 21
1039.15
  0
LINE
  8
0
 10
-110.687
 20
1039.15
 11
-110.179
 21
1038.78
  0
LINE
  8
0
 10
-110.179
 20
1038.78
 11
-109.629
 21
1038.48
  0
LINE
  8
0
 10
-109.629
 20
1038.48
 11
-109.045
 21
1038.24
  0
LINE
  8
0
 10
-109.045
 20
1038.24
 11
-108.437
 21
1038.09
  0
LINE
  8
0
 10
-108.437
 20
1038.09
 11
-107.814
 21
1038.01
  0
LINE
  8
0
 10
-107.814
 20
1038.01
 11
107.814
 21
1038.01
  0
LINE
  8
0
 10
107.814
 20
1038.01
 11
108.437
 21
1038.09
  0
LINE
  8
0
 10
-107.548
 20
1038.51
 11
-108.14
 21
1038.58
  0
LINE
  8
0
 10
-108.14
 20
1038.58
 11
-108.718
 21
1038.73
  0
LINE
  8
0
 10
-108.718
 20
1038.73
 11
-109.272
 21
1038.95
  0
LINE
  8
0
 10
-109.272
 20
1038.95
 11
-109.795
 21
1039.24
  0
LINE
  8
0
 10
-109.795
 20
1039.24
 11
-110.278
 21
1039.59
  0
LINE
  8
0
 10
-110.278
 20
1039.59
 11
-110.713
 21
1040
  0
LINE
  8
0
 10
-110.713
 20
1040
 11
-111.093
 21
1040.46
  0
LINE
  8
0
 10
-111.093
 20
1040.46
 11
-111.412
 21
1040.96
  0
LINE
  8
0
 10
-111.412
 20
1040.96
 11
-111.666
 21
1041.5
  0
LINE
  8
0
 10
-111.666
 20
1041.5
 11
-111.851
 21
1042.07
  0
LINE
  8
0
 10
-111.851
 20
1042.07
 11
-111.963
 21
1042.65
  0
LINE
  8
0
 10
-111.963
 20
1042.65
 11
-112
 21
1043.25
  0
LINE
  8
0
 10
-112
 20
1043.25
 11
-112
 21
1182.75
  0
LINE
  8
0
 10
-112
 20
1182.75
 11
-111.963
 21
1183.35
  0
LINE
  8
0
 10
-111.963
 20
1183.35
 11
-111.851
 21
1183.93
  0
LINE
  8
0
 10
-111.851
 20
1183.93
 11
-111.666
 21
1184.5
  0
LINE
  8
0
 10
-111.666
 20
1184.5
 11
-111.412
 21
1185.04
  0
LINE
  8
0
 10
-111.412
 20
1185.04
 11
-111.093
 21
1185.54
  0
LINE
  8
0
 10
-111.093
 20
1185.54
 11
-110.713
 21
1186
  0
LINE
  8
0
 10
-110.713
 20
1186
 11
-110.278
 21
1186.41
  0
LINE
  8
0
 10
-110.278
 20
1186.41
 11
-109.795
 21
1186.76
  0
LINE
  8
0
 10
-109.795
 20
1186.76
 11
-109.272
 21
1187.05
  0
LINE
  8
0
 10
-109.272
 20
1187.05
 11
-108.718
 21
1187.27
  0
LINE
  8
0
 10
-108.718
 20
1187.27
 11
-108.14
 21
1187.42
  0
LINE
  8
0
 10
-108.14
 20
1187.42
 11
-107.548
 21
1187.49
  0
LINE
  8
0
 10
-107.548
 20
1187.49
 11
107.548
 21
1187.49
  0
LINE
  8
0
 10
107.548
 20
1187.49
 11
108.14
 21
1187.42
  0
LINE
  8
0
 10
108.14
 20
1187.42
 11
108.718
 21
1187.27
  0
LINE
  8
0
 10
108.718
 20
1187.27
 11
109.272
 21
1187.05
  0
LINE
  8
0
 10
109.272
 20
1187.05
 11
109.795
 21
1186.76
  0
LINE
  8
0
 10
109.795
 20
1186.76
 11
110.278
 21
1186.41
  0
LINE
  8
0
 10
110.278
 20
1186.41
 11
110.713
 21
1186
  0
LINE
  8
0
 10
110.713
 20
1186
 11
111.093
 21
1185.54
  0
LINE
  8
0
 10
111.093
 20
1185.54
 11
111.412
 21
1185.04
  0
LINE
  8
0
 10
111.412
 20
1185.04
 11
111.666
 21
1184.5
  0
LINE
  8
0
 10
111.666
 20
1184.5
 11
111.851
 21
1183.93
  0
LINE
  8
0
 10
111.851
 20
1183.93
 11
111.963
 21
1183.35
  0
LINE
  8
0
 10
111.963
 20
1183.35
 11
112
 21
1182.75
  0
LINE
  8
0
 10
112
 20
1182.75
 11
112
 21
1043.25
  0
LINE
  8
0
 10
112
 20
1043.25
 11
111.963
 21
1042.65
  0
LINE
  8
0
 10
111.963
 20
1042.65
 11
111.851
 21
1042.07
  0
LINE
  8
0
 10
111.851
 20
1042.07
 11
111.666
 21
1041.5
  0
LINE
  8
0
 10
111.666
 20
1041.5
 11
111.412
 21
1040.96
  0
LINE
  8
0
 10
111.412
 20
1040.96
 11
111.093
 21
1040.46
  0
LINE
  8
0
 10
111.093
 20
1040.46
 11
110.713
 21
1040
  0
LINE
  8
0
 10
110.713
 20
1040
 11
110.278
 21
1039.59
  0
LINE
  8
0
 10
110.278
 20
1039.59
 11
109.795
 21
1039.24
  0
LINE
  8
0
 10
109.795
 20
1039.24
 11
109.272
 21
1038.95
  0
LINE
  8
0
 10
109.272
 20
1038.95
 11
108.718
 21
1038.73
  0
LINE
  8
0
 10
108.718
 20
1038.73
 11
108.14
 21
1038.58
  0
LINE
  8
0
 10
108.14
 20
1038.58
 11
107.548
 21
1038.51
  0
LINE
  8
0
 10
107.548
 20
1038.51
 11
-107.548
 21
1038.51
  0
LINE
  8
0
 10
108.437
 20
879.089
 11
109.045
 21
879.245
  0
LINE
  8
0
 10
109.045
 20
879.245
 11
109.629
 21
879.476
  0
LINE
  8
0
 10
109.629
 20
879.476
 11
110.179
 21
879.778
  0
LINE
  8
0
 10
110.179
 20
879.778
 11
110.687
 21
880.147
  0
LINE
  8
0
 10
110.687
 20
880.147
 11
111.145
 21
880.577
  0
LINE
  8
0
 10
111.145
 20
880.577
 11
111.545
 21
881.061
  0
LINE
  8
0
 10
111.545
 20
881.061
 11
111.882
 21
881.591
  0
LINE
  8
0
 10
111.882
 20
881.591
 11
112.149
 21
882.159
  0
LINE
  8
0
 10
112.149
 20
882.159
 11
112.343
 21
882.757
  0
LINE
  8
0
 10
112.343
 20
882.757
 11
112.461
 21
883.373
  0
LINE
  8
0
 10
112.461
 20
883.373
 11
112.5
 21
884
  0
LINE
  8
0
 10
112.5
 20
884
 11
112.5
 21
1024
  0
LINE
  8
0
 10
112.5
 20
1024
 11
112.461
 21
1024.63
  0
LINE
  8
0
 10
112.461
 20
1024.63
 11
112.343
 21
1025.24
  0
LINE
  8
0
 10
112.343
 20
1025.24
 11
112.149
 21
1025.84
  0
LINE
  8
0
 10
112.149
 20
1025.84
 11
111.882
 21
1026.41
  0
LINE
  8
0
 10
111.882
 20
1026.41
 11
111.545
 21
1026.94
  0
LINE
  8
0
 10
111.545
 20
1026.94
 11
111.145
 21
1027.42
  0
LINE
  8
0
 10
111.145
 20
1027.42
 11
110.687
 21
1027.85
  0
LINE
  8
0
 10
110.687
 20
1027.85
 11
110.179
 21
1028.22
  0
LINE
  8
0
 10
110.179
 20
1028.22
 11
109.629
 21
1028.52
  0
LINE
  8
0
 10
109.629
 20
1028.52
 11
109.045
 21
1028.76
  0
LINE
  8
0
 10
109.045
 20
1028.76
 11
108.437
 21
1028.91
  0
LINE
  8
0
 10
108.437
 20
1028.91
 11
107.814
 21
1028.99
  0
LINE
  8
0
 10
107.814
 20
1028.99
 11
-107.814
 21
1028.99
  0
LINE
  8
0
 10
-107.814
 20
1028.99
 11
-108.437
 21
1028.91
  0
LINE
  8
0
 10
-108.437
 20
1028.91
 11
-109.045
 21
1028.76
  0
LINE
  8
0
 10
-109.045
 20
1028.76
 11
-109.629
 21
1028.52
  0
LINE
  8
0
 10
-109.629
 20
1028.52
 11
-110.179
 21
1028.22
  0
LINE
  8
0
 10
-110.179
 20
1028.22
 11
-110.687
 21
1027.85
  0
LINE
  8
0
 10
-110.687
 20
1027.85
 11
-111.145
 21
1027.42
  0
LINE
  8
0
 10
-111.145
 20
1027.42
 11
-111.545
 21
1026.94
  0
LINE
  8
0
 10
-111.545
 20
1026.94
 11
-111.882
 21
1026.41
  0
LINE
  8
0
 10
-111.882
 20
1026.41
 11
-112.149
 21
1025.84
  0
LINE
  8
0
 10
-112.149
 20
1025.84
 11
-112.343
 21
1025.24
  0
LINE
  8
0
 10
-112.343
 20
1025.24
 11
-112.461
 21
1024.63
  0
LINE
  8
0
 10
-112.461
 20
1024.63
 11
-112.5
 21
1024
  0
LINE
  8
0
 10
-112.5
 20
1024
 11
-112.5
 21
884
  0
LINE
  8
0
 10
-112.5
 20
884
 11
-112.461
 21
883.373
  0
LINE
  8
0
 10
-112.461
 20
883.373
 11
-112.343
 21
882.757
  0
LINE
  8
0
 10
-112.343
 20
882.757
 11
-112.149
 21
882.159
  0
LINE
  8
0
 10
-112.149
 20
882.159
 11
-111.882
 21
881.591
  0
LINE
  8
0
 10
-111.882
 20
881.591
 11
-111.545
 21
881.061
  0
LINE
  8
0
 10
-111.545
 20
881.061
 11
-111.145
 21
880.577
  0
LINE
  8
0
 10
-111.145
 20
880.577
 11
-110.687
 21
880.147
  0
LINE
  8
0
 10
-110.687
 20
880.147
 11
-110.179
 21
879.778
  0
LINE
  8
0
 10
-110.179
 20
879.778
 11
-109.629
 21
879.476
  0
LINE
  8
0
 10
-109.629
 20
879.476
 11
-109.045
 21
879.245
  0
LINE
  8
0
 10
-109.045
 20
879.245
 11
-108.437
 21
879.089
  0
LINE
  8
0
 10
-108.437
 20
879.089
 11
-107.814
 21
879.01
  0
LINE
  8
0
 10
-107.814
 20
879.01
 11
107.814
 21
879.01
  0
LINE
  8
0
 10
107.814
 20
879.01
 11
108.437
 21
879.089
  0
LINE
  8
0
 10
-107.548
 20
879.509
 11
-108.14
 21
879.584
  0
LINE
  8
0
 10
-108.14
 20
879.584
 11
-108.718
 21
879.732
  0
LINE
  8
0
 10
-108.718
 20
879.732
 11
-109.272
 21
879.952
  0
LINE
  8
0
 10
-109.272
 20
879.952
 11
-109.795
 21
880.239
  0
LINE
  8
0
 10
-109.795
 20
880.239
 11
-110.278
 21
880.59
  0
LINE
  8
0
 10
-110.278
 20
880.59
 11
-110.713
 21
880.998
  0
LINE
  8
0
 10
-110.713
 20
880.998
 11
-111.093
 21
881.458
  0
LINE
  8
0
 10
-111.093
 20
881.458
 11
-111.412
 21
881.962
  0
LINE
  8
0
 10
-111.412
 20
881.962
 11
-111.666
 21
882.501
  0
LINE
  8
0
 10
-111.666
 20
882.501
 11
-111.851
 21
883.069
  0
LINE
  8
0
 10
-111.851
 20
883.069
 11
-111.963
 21
883.655
  0
LINE
  8
0
 10
-111.963
 20
883.655
 11
-112
 21
884.25
  0
LINE
  8
0
 10
-112
 20
884.25
 11
-112
 21
1023.75
  0
LINE
  8
0
 10
-112
 20
1023.75
 11
-111.963
 21
1024.35
  0
LINE
  8
0
 10
-111.963
 20
1024.35
 11
-111.851
 21
1024.93
  0
LINE
  8
0
 10
-111.851
 20
1024.93
 11
-111.666
 21
1025.5
  0
LINE
  8
0
 10
-111.666
 20
1025.5
 11
-111.412
 21
1026.04
  0
LINE
  8
0
 10
-111.412
 20
1026.04
 11
-111.093
 21
1026.54
  0
LINE
  8
0
 10
-111.093
 20
1026.54
 11
-110.713
 21
1027
  0
LINE
  8
0
 10
-110.713
 20
1027
 11
-110.278
 21
1027.41
  0
LINE
  8
0
 10
-110.278
 20
1027.41
 11
-109.795
 21
1027.76
  0
LINE
  8
0
 10
-109.795
 20
1027.76
 11
-109.272
 21
1028.05
  0
LINE
  8
0
 10
-109.272
 20
1028.05
 11
-108.718
 21
1028.27
  0
LINE
  8
0
 10
-108.718
 20
1028.27
 11
-108.14
 21
1028.42
  0
LINE
  8
0
 10
-108.14
 20
1028.42
 11
-107.548
 21
1028.49
  0
LINE
  8
0
 10
-107.548
 20
1028.49
 11
107.548
 21
1028.49
  0
LINE
  8
0
 10
107.548
 20
1028.49
 11
108.14
 21
1028.42
  0
LINE
  8
0
 10
108.14
 20
1028.42
 11
108.718
 21
1028.27
  0
LINE
  8
0
 10
108.718
 20
1028.27
 11
109.272
 21
1028.05
  0
LINE
  8
0
 10
109.272
 20
1028.05
 11
109.795
 21
1027.76
  0
LINE
  8
0
 10
109.795
 20
1027.76
 11
110.278
 21
1027.41
  0
LINE
  8
0
 10
110.278
 20
1027.41
 11
110.713
 21
1027
  0
LINE
  8
0
 10
110.713
 20
1027
 11
111.093
 21
1026.54
  0
LINE
  8
0
 10
111.093
 20
1026.54
 11
111.412
 21
1026.04
  0
LINE
  8
0
 10
111.412
 20
1026.04
 11
111.666
 21
1025.5
  0
LINE
  8
0
 10
111.666
 20
1025.5
 11
111.851
 21
1024.93
  0
LINE
  8
0
 10
111.851
 20
1024.93
 11
111.963
 21
1024.35
  0
LINE
  8
0
 10
111.963
 20
1024.35
 11
112
 21
1023.75
  0
LINE
  8
0
 10
112
 20
1023.75
 11
112
 21
884.25
  0
LINE
  8
0
 10
112
 20
884.25
 11
111.963
 21
883.655
  0
LINE
  8
0
 10
111.963
 20
883.655
 11
111.851
 21
883.069
  0
LINE
  8
0
 10
111.851
 20
883.069
 11
111.666
 21
882.501
  0
LINE
  8
0
 10
111.666
 20
882.501
 11
111.412
 21
881.962
  0
LINE
  8
0
 10
111.412
 20
881.962
 11
111.093
 21
881.458
  0
LINE
  8
0
 10
111.093
 20
881.458
 11
110.713
 21
880.998
  0
LINE
  8
0
 10
110.713
 20
880.998
 11
110.278
 21
880.59
  0
LINE
  8
0
 10
110.278
 20
880.59
 11
109.795
 21
880.239
  0
LINE
  8
0
 10
109.795
 20
880.239
 11
109.272
 21
879.952
  0
LINE
  8
0
 10
109.272
 20
879.952
 11
108.718
 21
879.732
  0
LINE
  8
0
 10
108.718
 20
879.732
 11
108.14
 21
879.584
  0
LINE
  8
0
 10
108.14
 20
879.584
 11
107.548
 21
879.509
  0
LINE
  8
0
 10
107.548
 20
879.509
 11
-107.548
 21
879.509
  0
LINE
  8
0
 10
108.437
 20
720.089
 11
109.045
 21
720.245
  0
LINE
  8
0
 10
109.045
 20
720.245
 11
109.629
 21
720.476
  0
LINE
  8
0
 10
109.629
 20
720.476
 11
110.179
 21
720.778
  0
LINE
  8
0
 10
110.179
 20
720.778
 11
110.687
 21
721.147
  0
LINE
  8
0
 10
110.687
 20
721.147
 11
111.145
 21
721.577
  0
LINE
  8
0
 10
111.145
 20
721.577
 11
111.545
 21
722.061
  0
LINE
  8
0
 10
111.545
 20
722.061
 11
111.882
 21
722.591
  0
LINE
  8
0
 10
111.882
 20
722.591
 11
112.149
 21
723.159
  0
LINE
  8
0
 10
112.149
 20
723.159
 11
112.343
 21
723.757
  0
LINE
  8
0
 10
112.343
 20
723.757
 11
112.461
 21
724.373
  0
LINE
  8
0
 10
112.461
 20
724.373
 11
112.5
 21
725
  0
LINE
  8
0
 10
112.5
 20
725
 11
112.5
 21
865
  0
LINE
  8
0
 10
112.5
 20
865
 11
112.461
 21
865.627
  0
LINE
  8
0
 10
112.461
 20
865.627
 11
112.343
 21
866.243
  0
LINE
  8
0
 10
112.343
 20
866.243
 11
112.149
 21
866.841
  0
LINE
  8
0
 10
112.149
 20
866.841
 11
111.882
 21
867.409
  0
LINE
  8
0
 10
111.882
 20
867.409
 11
111.545
 21
867.939
  0
LINE
  8
0
 10
111.545
 20
867.939
 11
111.145
 21
868.423
  0
LINE
  8
0
 10
111.145
 20
868.423
 11
110.687
 21
868.853
  0
LINE
  8
0
 10
110.687
 20
868.853
 11
110.179
 21
869.222
  0
LINE
  8
0
 10
110.179
 20
869.222
 11
109.629
 21
869.524
  0
LINE
  8
0
 10
109.629
 20
869.524
 11
109.045
 21
869.755
  0
LINE
  8
0
 10
109.045
 20
869.755
 11
108.437
 21
869.911
  0
LINE
  8
0
 10
108.437
 20
869.911
 11
107.814
 21
869.99
  0
LINE
  8
0
 10
107.814
 20
869.99
 11
-107.814
 21
869.99
  0
LINE
  8
0
 10
-107.814
 20
869.99
 11
-108.437
 21
869.911
  0
LINE
  8
0
 10
-108.437
 20
869.911
 11
-109.045
 21
869.755
  0
LINE
  8
0
 10
-109.045
 20
869.755
 11
-109.629
 21
869.524
  0
LINE
  8
0
 10
-109.629
 20
869.524
 11
-110.179
 21
869.222
  0
LINE
  8
0
 10
-110.179
 20
869.222
 11
-110.687
 21
868.853
  0
LINE
  8
0
 10
-110.687
 20
868.853
 11
-111.145
 21
868.423
  0
LINE
  8
0
 10
-111.145
 20
868.423
 11
-111.545
 21
867.939
  0
LINE
  8
0
 10
-111.545
 20
867.939
 11
-111.882
 21
867.409
  0
LINE
  8
0
 10
-111.882
 20
867.409
 11
-112.149
 21
866.841
  0
LINE
  8
0
 10
-112.149
 20
866.841
 11
-112.343
 21
866.243
  0
LINE
  8
0
 10
-112.343
 20
866.243
 11
-112.461
 21
865.627
  0
LINE
  8
0
 10
-112.461
 20
865.627
 11
-112.5
 21
865
  0
LINE
  8
0
 10
-112.5
 20
865
 11
-112.5
 21
725
  0
LINE
  8
0
 10
-112.5
 20
725
 11
-112.461
 21
724.373
  0
LINE
  8
0
 10
-112.461
 20
724.373
 11
-112.343
 21
723.757
  0
LINE
  8
0
 10
-112.343
 20
723.757
 11
-112.149
 21
723.159
  0
LINE
  8
0
 10
-112.149
 20
723.159
 11
-111.882
 21
722.591
  0
LINE
  8
0
 10
-111.882
 20
722.591
 11
-111.545
 21
722.061
  0
LINE
  8
0
 10
-111.545
 20
722.061
 11
-111.145
 21
721.577
  0
LINE
  8
0
 10
-111.145
 20
721.577
 11
-110.687
 21
721.147
  0
LINE
  8
0
 10
-110.687
 20
721.147
 11
-110.179
 21
720.778
  0
LINE
  8
0
 10
-110.179
 20
720.778
 11
-109.629
 21
720.476
  0
LINE
  8
0
 10
-109.629
 20
720.476
 11
-109.045
 21
720.245
  0
LINE
  8
0
 10
-109.045
 20
720.245
 11
-108.437
 21
720.089
  0
LINE
  8
0
 10
-108.437
 20
720.089
 11
-107.814
 21
720.01
  0
LINE
  8
0
 10
-107.814
 20
720.01
 11
107.814
 21
720.01
  0
LINE
  8
0
 10
107.814
 20
720.01
 11
108.437
 21
720.089
  0
LINE
  8
0
 10
-107.537
 20
720.681
 11
-108.108
 21
720.753
  0
LINE
  8
0
 10
-108.108
 20
720.753
 11
-108.665
 21
720.896
  0
LINE
  8
0
 10
-108.665
 20
720.896
 11
-109.199
 21
721.107
  0
LINE
  8
0
 10
-109.199
 20
721.107
 11
-109.703
 21
721.384
  0
LINE
  8
0
 10
-109.703
 20
721.384
 11
-110.168
 21
721.722
  0
LINE
  8
0
 10
-110.168
 20
721.722
 11
-110.588
 21
722.116
  0
LINE
  8
0
 10
-110.588
 20
722.116
 11
-110.954
 21
722.559
  0
LINE
  8
0
 10
-110.954
 20
722.559
 11
-111.262
 21
723.044
  0
LINE
  8
0
 10
-111.262
 20
723.044
 11
-111.507
 21
723.565
  0
LINE
  8
0
 10
-111.507
 20
723.565
 11
-111.685
 21
724.111
  0
LINE
  8
0
 10
-111.685
 20
724.111
 11
-111.792
 21
724.676
  0
LINE
  8
0
 10
-111.792
 20
724.676
 11
-111.828
 21
725.25
  0
LINE
  8
0
 10
-111.828
 20
725.25
 11
-111.828
 21
864.75
  0
LINE
  8
0
 10
-111.828
 20
864.75
 11
-111.792
 21
865.324
  0
LINE
  8
0
 10
-111.792
 20
865.324
 11
-111.685
 21
865.889
  0
LINE
  8
0
 10
-111.685
 20
865.889
 11
-111.507
 21
866.435
  0
LINE
  8
0
 10
-111.507
 20
866.435
 11
-111.262
 21
866.956
  0
LINE
  8
0
 10
-111.262
 20
866.956
 11
-110.954
 21
867.441
  0
LINE
  8
0
 10
-110.954
 20
867.441
 11
-110.588
 21
867.884
  0
LINE
  8
0
 10
-110.588
 20
867.884
 11
-110.168
 21
868.278
  0
LINE
  8
0
 10
-110.168
 20
868.278
 11
-109.703
 21
868.616
  0
LINE
  8
0
 10
-109.703
 20
868.616
 11
-109.199
 21
868.893
  0
LINE
  8
0
 10
-109.199
 20
868.893
 11
-108.665
 21
869.104
  0
LINE
  8
0
 10
-108.665
 20
869.104
 11
-108.108
 21
869.247
  0
LINE
  8
0
 10
-108.108
 20
869.247
 11
-107.537
 21
869.319
  0
LINE
  8
0
 10
-107.537
 20
869.319
 11
107.537
 21
869.319
  0
LINE
  8
0
 10
107.537
 20
869.319
 11
108.108
 21
869.247
  0
LINE
  8
0
 10
108.108
 20
869.247
 11
108.665
 21
869.104
  0
LINE
  8
0
 10
108.665
 20
869.104
 11
109.199
 21
868.893
  0
LINE
  8
0
 10
109.199
 20
868.893
 11
109.703
 21
868.616
  0
LINE
  8
0
 10
109.703
 20
868.616
 11
110.168
 21
868.278
  0
LINE
  8
0
 10
110.168
 20
868.278
 11
110.588
 21
867.884
  0
LINE
  8
0
 10
110.588
 20
867.884
 11
110.954
 21
867.441
  0
LINE
  8
0
 10
110.954
 20
867.441
 11
111.262
 21
866.956
  0
LINE
  8
0
 10
111.262
 20
866.956
 11
111.507
 21
866.435
  0
LINE
  8
0
 10
111.507
 20
866.435
 11
111.685
 21
865.889
  0
LINE
  8
0
 10
111.685
 20
865.889
 11
111.792
 21
865.324
  0
LINE
  8
0
 10
111.792
 20
865.324
 11
111.828
 21
864.75
  0
LINE
  8
0
 10
111.828
 20
864.75
 11
111.828
 21
725.25
  0
LINE
  8
0
 10
111.828
 20
725.25
 11
111.792
 21
724.676
  0
LINE
  8
0
 10
111.792
 20
724.676
 11
111.685
 21
724.111
  0
LINE
  8
0
 10
111.685
 20
724.111
 11
111.507
 21
723.565
  0
LINE
  8
0
 10
111.507
 20
723.565
 11
111.262
 21
723.044
  0
LINE
  8
0
 10
111.262
 20
723.044
 11
110.954
 21
722.559
  0
LINE
  8
0
 10
110.954
 20
722.559
 11
110.588
 21
722.116
  0
LINE
  8
0
 10
110.588
 20
722.116
 11
110.168
 21
721.722
  0
LINE
  8
0
 10
110.168
 20
721.722
 11
109.703
 21
721.384
  0
LINE
  8
0
 10
109.703
 20
721.384
 11
109.199
 21
721.107
  0
LINE
  8
0
 10
109.199
 20
721.107
 11
108.665
 21
720.896
  0
LINE
  8
0
 10
108.665
 20
720.896
 11
108.108
 21
720.753
  0
LINE
  8
0
 10
108.108
 20
720.753
 11
107.537
 21
720.681
  0
LINE
  8
0
 10
107.537
 20
720.681
 11
-107.537
 21
720.681
  0
LINE
  8
0
 10
108.437
 20
561.089
 11
109.045
 21
561.245
  0
LINE
  8
0
 10
109.045
 20
561.245
 11
109.629
 21
561.476
  0
LINE
  8
0
 10
109.629
 20
561.476
 11
110.179
 21
561.778
  0
LINE
  8
0
 10
110.179
 20
561.778
 11
110.687
 21
562.147
  0
LINE
  8
0
 10
110.687
 20
562.147
 11
111.145
 21
562.577
  0
LINE
  8
0
 10
111.145
 20
562.577
 11
111.545
 21
563.061
  0
LINE
  8
0
 10
111.545
 20
563.061
 11
111.882
 21
563.591
  0
LINE
  8
0
 10
111.882
 20
563.591
 11
112.149
 21
564.159
  0
LINE
  8
0
 10
112.149
 20
564.159
 11
112.343
 21
564.757
  0
LINE
  8
0
 10
112.343
 20
564.757
 11
112.461
 21
565.373
  0
LINE
  8
0
 10
112.461
 20
565.373
 11
112.5
 21
566
  0
LINE
  8
0
 10
112.5
 20
566
 11
112.5
 21
706
  0
LINE
  8
0
 10
112.5
 20
706
 11
112.461
 21
706.627
  0
LINE
  8
0
 10
112.461
 20
706.627
 11
112.343
 21
707.243
  0
LINE
  8
0
 10
112.343
 20
707.243
 11
112.149
 21
707.841
  0
LINE
  8
0
 10
112.149
 20
707.841
 11
111.882
 21
708.409
  0
LINE
  8
0
 10
111.882
 20
708.409
 11
111.545
 21
708.939
  0
LINE
  8
0
 10
111.545
 20
708.939
 11
111.145
 21
709.423
  0
LINE
  8
0
 10
111.145
 20
709.423
 11
110.687
 21
709.853
  0
LINE
  8
0
 10
110.687
 20
709.853
 11
110.179
 21
710.222
  0
LINE
  8
0
 10
110.179
 20
710.222
 11
109.629
 21
710.524
  0
LINE
  8
0
 10
109.629
 20
710.524
 11
109.045
 21
710.755
  0
LINE
  8
0
 10
109.045
 20
710.755
 11
108.437
 21
710.911
  0
LINE
  8
0
 10
108.437
 20
710.911
 11
107.814
 21
710.99
  0
LINE
  8
0
 10
107.814
 20
710.99
 11
-107.814
 21
710.99
  0
LINE
  8
0
 10
-107.814
 20
710.99
 11
-108.437
 21
710.911
  0
LINE
  8
0
 10
-108.437
 20
710.911
 11
-109.045
 21
710.755
  0
LINE
  8
0
 10
-109.045
 20
710.755
 11
-109.629
 21
710.524
  0
LINE
  8
0
 10
-109.629
 20
710.524
 11
-110.179
 21
710.222
  0
LINE
  8
0
 10
-110.179
 20
710.222
 11
-110.687
 21
709.853
  0
LINE
  8
0
 10
-110.687
 20
709.853
 11
-111.145
 21
709.423
  0
LINE
  8
0
 10
-111.145
 20
709.423
 11
-111.545
 21
708.939
  0
LINE
  8
0
 10
-111.545
 20
708.939
 11
-111.882
 21
708.409
  0
LINE
  8
0
 10
-111.882
 20
708.409
 11
-112.149
 21
707.841
  0
LINE
  8
0
 10
-112.149
 20
707.841
 11
-112.343
 21
707.243
  0
LINE
  8
0
 10
-112.343
 20
707.243
 11
-112.461
 21
706.627
  0
LINE
  8
0
 10
-112.461
 20
706.627
 11
-112.5
 21
706
  0
LINE
  8
0
 10
-112.5
 20
706
 11
-112.5
 21
566
  0
LINE
  8
0
 10
-112.5
 20
566
 11
-112.461
 21
565.373
  0
LINE
  8
0
 10
-112.461
 20
565.373
 11
-112.343
 21
564.757
  0
LINE
  8
0
 10
-112.343
 20
564.757
 11
-112.149
 21
564.159
  0
LINE
  8
0
 10
-112.149
 20
564.159
 11
-111.882
 21
563.591
  0
LINE
  8
0
 10
-111.882
 20
563.591
 11
-111.545
 21
563.061
  0
LINE
  8
0
 10
-111.545
 20
563.061
 11
-111.145
 21
562.577
  0
LINE
  8
0
 10
-111.145
 20
562.577
 11
-110.687
 21
562.147
  0
LINE
  8
0
 10
-110.687
 20
562.147
 11
-110.179
 21
561.778
  0
LINE
  8
0
 10
-110.179
 20
561.778
 11
-109.629
 21
561.476
  0
LINE
  8
0
 10
-109.629
 20
561.476
 11
-109.045
 21
561.245
  0
LINE
  8
0
 10
-109.045
 20
561.245
 11
-108.437
 21
561.089
  0
LINE
  8
0
 10
-108.437
 20
561.089
 11
-107.814
 21
561.01
  0
LINE
  8
0
 10
-107.814
 20
561.01
 11
107.814
 21
561.01
  0
LINE
  8
0
 10
107.814
 20
561.01
 11
108.437
 21
561.089
  0
LINE
  8
0
 10
-107.382
 20
564.145
 11
-107.645
 21
564.178
  0
LINE
  8
0
 10
-107.645
 20
564.178
 11
-107.902
 21
564.244
  0
LINE
  8
0
 10
-107.902
 20
564.244
 11
-108.148
 21
564.341
  0
LINE
  8
0
 10
-108.148
 20
564.341
 11
-108.38
 21
564.469
  0
LINE
  8
0
 10
-108.38
 20
564.469
 11
-108.595
 21
564.624
  0
LINE
  8
0
 10
-108.595
 20
564.624
 11
-108.788
 21
564.806
  0
LINE
  8
0
 10
-108.788
 20
564.806
 11
-108.957
 21
565.01
  0
LINE
  8
0
 10
-108.957
 20
565.01
 11
-109.099
 21
565.234
  0
LINE
  8
0
 10
-109.099
 20
565.234
 11
-109.211
 21
565.473
  0
LINE
  8
0
 10
-109.211
 20
565.473
 11
-109.293
 21
565.725
  0
LINE
  8
0
 10
-109.293
 20
565.725
 11
-109.343
 21
565.986
  0
LINE
  8
0
 10
-109.343
 20
565.986
 11
-109.36
 21
566.25
  0
LINE
  8
0
 10
-109.36
 20
566.25
 11
-109.36
 21
705.75
  0
LINE
  8
0
 10
-109.36
 20
705.75
 11
-109.343
 21
706.014
  0
LINE
  8
0
 10
-109.343
 20
706.014
 11
-109.293
 21
706.275
  0
LINE
  8
0
 10
-109.293
 20
706.275
 11
-109.211
 21
706.527
  0
LINE
  8
0
 10
-109.211
 20
706.527
 11
-109.099
 21
706.766
  0
LINE
  8
0
 10
-109.099
 20
706.766
 11
-108.957
 21
706.99
  0
LINE
  8
0
 10
-108.957
 20
706.99
 11
-108.788
 21
707.194
  0
LINE
  8
0
 10
-108.788
 20
707.194
 11
-108.595
 21
707.376
  0
LINE
  8
0
 10
-108.595
 20
707.376
 11
-108.38
 21
707.531
  0
LINE
  8
0
 10
-108.38
 20
707.531
 11
-108.148
 21
707.659
  0
LINE
  8
0
 10
-108.148
 20
707.659
 11
-107.902
 21
707.756
  0
LINE
  8
0
 10
-107.902
 20
707.756
 11
-107.645
 21
707.822
  0
LINE
  8
0
 10
-107.645
 20
707.822
 11
-107.382
 21
707.855
  0
LINE
  8
0
 10
-107.382
 20
707.855
 11
107.382
 21
707.855
  0
LINE
  8
0
 10
107.382
 20
707.855
 11
107.645
 21
707.822
  0
LINE
  8
0
 10
107.645
 20
707.822
 11
107.902
 21
707.756
  0
LINE
  8
0
 10
107.902
 20
707.756
 11
108.148
 21
707.659
  0
LINE
  8
0
 10
108.148
 20
707.659
 11
108.38
 21
707.531
  0
LINE
  8
0
 10
108.38
 20
707.531
 11
108.595
 21
707.376
  0
LINE
  8
0
 10
108.595
 20
707.376
 11
108.788
 21
707.194
  0
LINE
  8
0
 10
108.788
 20
707.194
 11
108.957
 21
706.99
  0
LINE
  8
0
 10
108.957
 20
706.99
 11
109.099
 21
706.766
  0
LINE
  8
0
 10
109.099
 20
706.766
 11
109.211
 21
706.527
  0
LINE
  8
0
 10
109.211
 20
706.527
 11
109.293
 21
706.275
  0
LINE
  8
0
 10
109.293
 20
706.275
 11
109.343
 21
706.014
  0
LINE
  8
0
 10
109.343
 20
706.014
 11
109.36
 21
705.75
  0
LINE
  8
0
 10
109.36
 20
705.75
 11
109.36
 21
566.25
  0
LINE
  8
0
 10
109.36
 20
566.25
 11
109.343
 21
565.986
  0
LINE
  8
0
 10
109.343
 20
565.986
 11
109.293
 21
565.725
  0
LINE
  8
0
 10
109.293
 20
565.725
 11
109.211
 21
565.473
  0
LINE
  8
0
 10
109.211
 20
565.473
 11
109.099
 21
565.234
  0
LINE
  8
0
 10
109.099
 20
565.234
 11
108.957
 21
565.01
  0
LINE
  8
0
 10
108.957
 20
565.01
 11
108.788
 21
564.806
  0
LINE
  8
0
 10
108.788
 20
564.806
 11
108.595
 21
564.624
  0
LINE
  8
0
 10
108.595
 20
564.624
 11
108.38
 21
564.469
  0
LINE
  8
0
 10
108.38
 20
564.469
 11
108.148
 21
564.341
  0
LINE
  8
0
 10
108.148
 20
564.341
 11
107.902
 21
564.244
  0
LINE
  8
0
 10
107.902
 20
564.244
 11
107.645
 21
564.178
  0
LINE
  8
0
 10
107.645
 20
564.178
 11
107.382
 21
564.145
  0
LINE
  8
0
 10
107.382
 20
564.145
 11
-107.382
 21
564.145
  0
ENDSEC
  0
SECTION
  2
OBJECTS
  0
DICTIONARY
  0
ENDSEC
  0
EOF
