  0
SECTION
  2
BLOCKS
  0
ENDSEC
  0
SECTION
  2
ENTITIES
  0
LINE
  8
0
 10
33.4369
 20
1233.09
 11
34.0451
 21
1233.24
  0
LINE
  8
0
 10
34.0451
 20
1233.24
 11
34.6289
 21
1233.48
  0
LINE
  8
0
 10
34.6289
 20
1233.48
 11
35.1791
 21
1233.78
  0
LINE
  8
0
 10
35.1791
 20
1233.78
 11
35.6871
 21
1234.15
  0
LINE
  8
0
 10
35.6871
 20
1234.15
 11
36.1448
 21
1234.58
  0
LINE
  8
0
 10
36.1448
 20
1234.58
 11
36.5451
 21
1235.06
  0
LINE
  8
0
 10
36.5451
 20
1235.06
 11
36.8815
 21
1235.59
  0
LINE
  8
0
 10
36.8815
 20
1235.59
 11
37.1489
 21
1236.16
  0
LINE
  8
0
 10
37.1489
 20
1236.16
 11
37.3429
 21
1236.76
  0
LINE
  8
0
 10
37.3429
 20
1236.76
 11
37.4606
 21
1237.37
  0
LINE
  8
0
 10
37.4606
 20
1237.37
 11
37.5
 21
1238
  0
LINE
  8
0
 10
37.5
 20
1238
 11
37.5
 21
1408
  0
LINE
  8
0
 10
37.5
 20
1408
 11
37.4606
 21
1408.63
  0
LINE
  8
0
 10
37.4606
 20
1408.63
 11
37.3429
 21
1409.24
  0
LINE
  8
0
 10
37.3429
 20
1409.24
 11
37.1489
 21
1409.84
  0
LINE
  8
0
 10
37.1489
 20
1409.84
 11
36.8815
 21
1410.41
  0
LINE
  8
0
 10
36.8815
 20
1410.41
 11
36.5451
 21
1410.94
  0
LINE
  8
0
 10
36.5451
 20
1410.94
 11
36.1448
 21
1411.42
  0
LINE
  8
0
 10
36.1448
 20
1411.42
 11
35.6871
 21
1411.85
  0
LINE
  8
0
 10
35.6871
 20
1411.85
 11
35.1791
 21
1412.22
  0
LINE
  8
0
 10
35.1791
 20
1412.22
 11
34.6289
 21
1412.52
  0
LINE
  8
0
 10
34.6289
 20
1412.52
 11
34.0451
 21
1412.76
  0
LINE
  8
0
 10
34.0451
 20
1412.76
 11
33.4369
 21
1412.91
  0
LINE
  8
0
 10
33.4369
 20
1412.91
 11
32.8139
 21
1412.99
  0
LINE
  8
0
 10
32.8139
 20
1412.99
 11
-32.8139
 21
1412.99
  0
LINE
  8
0
 10
-32.8139
 20
1412.99
 11
-33.4369
 21
1412.91
  0
LINE
  8
0
 10
-33.4369
 20
1412.91
 11
-34.0451
 21
1412.76
  0
LINE
  8
0
 10
-34.0451
 20
1412.76
 11
-34.6289
 21
1412.52
  0
LINE
  8
0
 10
-34.6289
 20
1412.52
 11
-35.1791
 21
1412.22
  0
LINE
  8
0
 10
-35.1791
 20
1412.22
 11
-35.6871
 21
1411.85
  0
LINE
  8
0
 10
-35.6871
 20
1411.85
 11
-35.9
 21
1411.65
  0
LINE
  8
0
 10
-35.9
 20
1411.65
 11
-37.5
 21
1411.65
  0
LINE
  8
0
 10
-37.5
 20
1411.65
 11
-37.5
 21
1234.35
  0
LINE
  8
0
 10
-37.5
 20
1234.35
 11
-35.9
 21
1234.35
  0
LINE
  8
0
 10
-35.9
 20
1234.35
 11
-35.6871
 21
1234.15
  0
LINE
  8
0
 10
-35.6871
 20
1234.15
 11
-35.1791
 21
1233.78
  0
LINE
  8
0
 10
-35.1791
 20
1233.78
 11
-34.6289
 21
1233.48
  0
LINE
  8
0
 10
-34.6289
 20
1233.48
 11
-34.0451
 21
1233.24
  0
LINE
  8
0
 10
-34.0451
 20
1233.24
 11
-33.4369
 21
1233.09
  0
LINE
  8
0
 10
-33.4369
 20
1233.09
 11
-32.8139
 21
1233.01
  0
LINE
  8
0
 10
-32.8139
 20
1233.01
 11
32.8139
 21
1233.01
  0
LINE
  8
0
 10
32.8139
 20
1233.01
 11
33.4369
 21
1233.09
  0
LINE
  8
0
 10
-32.2512
 20
1234.51
 11
-32.7495
 21
1234.57
  0
LINE
  8
0
 10
-32.7495
 20
1234.57
 11
-33.2361
 21
1234.7
  0
LINE
  8
0
 10
-33.2361
 20
1234.7
 11
-33.7031
 21
1234.88
  0
LINE
  8
0
 10
-33.7031
 20
1234.88
 11
-34.1433
 21
1235.12
  0
LINE
  8
0
 10
-34.1433
 20
1235.12
 11
-34.5497
 21
1235.42
  0
LINE
  8
0
 10
-34.5497
 20
1235.42
 11
-34.9159
 21
1235.76
  0
LINE
  8
0
 10
-34.9159
 20
1235.76
 11
-35.2361
 21
1236.15
  0
LINE
  8
0
 10
-35.2361
 20
1236.15
 11
-35.5052
 21
1236.57
  0
LINE
  8
0
 10
-35.5052
 20
1236.57
 11
-35.7191
 21
1237.03
  0
LINE
  8
0
 10
-35.7191
 20
1237.03
 11
-35.8743
 21
1237.51
  0
LINE
  8
0
 10
-35.8743
 20
1237.51
 11
-35.9685
 21
1238
  0
LINE
  8
0
 10
-35.9685
 20
1238
 11
-36
 21
1238.5
  0
LINE
  8
0
 10
-36
 20
1238.5
 11
-36
 21
1407.5
  0
LINE
  8
0
 10
-36
 20
1407.5
 11
-35.9685
 21
1408
  0
LINE
  8
0
 10
-35.9685
 20
1408
 11
-35.8743
 21
1408.49
  0
LINE
  8
0
 10
-35.8743
 20
1408.49
 11
-35.7191
 21
1408.97
  0
LINE
  8
0
 10
-35.7191
 20
1408.97
 11
-35.5052
 21
1409.43
  0
LINE
  8
0
 10
-35.5052
 20
1409.43
 11
-35.2361
 21
1409.85
  0
LINE
  8
0
 10
-35.2361
 20
1409.85
 11
-34.9159
 21
1410.24
  0
LINE
  8
0
 10
-34.9159
 20
1410.24
 11
-34.5497
 21
1410.58
  0
LINE
  8
0
 10
-34.5497
 20
1410.58
 11
-34.1433
 21
1410.88
  0
LINE
  8
0
 10
-34.1433
 20
1410.88
 11
-33.7031
 21
1411.12
  0
LINE
  8
0
 10
-33.7031
 20
1411.12
 11
-33.2361
 21
1411.3
  0
LINE
  8
0
 10
-33.2361
 20
1411.3
 11
-32.7495
 21
1411.43
  0
LINE
  8
0
 10
-32.7495
 20
1411.43
 11
-32.2512
 21
1411.49
  0
LINE
  8
0
 10
-32.2512
 20
1411.49
 11
32.2512
 21
1411.49
  0
LINE
  8
0
 10
32.2512
 20
1411.49
 11
32.7495
 21
1411.43
  0
LINE
  8
0
 10
32.7495
 20
1411.43
 11
33.2361
 21
1411.3
  0
LINE
  8
0
 10
33.2361
 20
1411.3
 11
33.7031
 21
1411.12
  0
LINE
  8
0
 10
33.7031
 20
1411.12
 11
34.1433
 21
1410.88
  0
LINE
  8
0
 10
34.1433
 20
1410.88
 11
34.5497
 21
1410.58
  0
LINE
  8
0
 10
34.5497
 20
1410.58
 11
34.9159
 21
1410.24
  0
LINE
  8
0
 10
34.9159
 20
1410.24
 11
35.2361
 21
1409.85
  0
LINE
  8
0
 10
35.2361
 20
1409.85
 11
35.5052
 21
1409.43
  0
LINE
  8
0
 10
35.5052
 20
1409.43
 11
35.7191
 21
1408.97
  0
LINE
  8
0
 10
35.7191
 20
1408.97
 11
35.8743
 21
1408.49
  0
LINE
  8
0
 10
35.8743
 20
1408.49
 11
35.9685
 21
1408
  0
LINE
  8
0
 10
35.9685
 20
1408
 11
36
 21
1407.5
  0
LINE
  8
0
 10
36
 20
1407.5
 11
36
 21
1238.5
  0
LINE
  8
0
 10
36
 20
1238.5
 11
35.9685
 21
1238
  0
LINE
  8
0
 10
35.9685
 20
1238
 11
35.8743
 21
1237.51
  0
LINE
  8
0
 10
35.8743
 20
1237.51
 11
35.7191
 21
1237.03
  0
LINE
  8
0
 10
35.7191
 20
1237.03
 11
35.5052
 21
1236.57
  0
LINE
  8
0
 10
35.5052
 20
1236.57
 11
35.2361
 21
1236.15
  0
LINE
  8
0
 10
35.2361
 20
1236.15
 11
34.9159
 21
1235.76
  0
LINE
  8
0
 10
34.9159
 20
1235.76
 11
34.5497
 21
1235.42
  0
LINE
  8
0
 10
34.5497
 20
1235.42
 11
34.1433
 21
1235.12
  0
LINE
  8
0
 10
34.1433
 20
1235.12
 11
33.7031
 21
1234.88
  0
LINE
  8
0
 10
33.7031
 20
1234.88
 11
33.2361
 21
1234.7
  0
LINE
  8
0
 10
33.2361
 20
1234.7
 11
32.7495
 21
1234.57
  0
LINE
  8
0
 10
32.7495
 20
1234.57
 11
32.2512
 21
1234.51
  0
LINE
  8
0
 10
32.2512
 20
1234.51
 11
-32.2512
 21
1234.51
  0
LINE
  8
0
 10
33.4369
 20
1044.09
 11
34.0451
 21
1044.24
  0
LINE
  8
0
 10
34.0451
 20
1044.24
 11
34.6289
 21
1044.48
  0
LINE
  8
0
 10
34.6289
 20
1044.48
 11
35.1791
 21
1044.78
  0
LINE
  8
0
 10
35.1791
 20
1044.78
 11
35.6871
 21
1045.15
  0
LINE
  8
0
 10
35.6871
 20
1045.15
 11
36.1448
 21
1045.58
  0
LINE
  8
0
 10
36.1448
 20
1045.58
 11
36.5451
 21
1046.06
  0
LINE
  8
0
 10
36.5451
 20
1046.06
 11
36.8815
 21
1046.59
  0
LINE
  8
0
 10
36.8815
 20
1046.59
 11
37.1489
 21
1047.16
  0
LINE
  8
0
 10
37.1489
 20
1047.16
 11
37.3429
 21
1047.76
  0
LINE
  8
0
 10
37.3429
 20
1047.76
 11
37.4606
 21
1048.37
  0
LINE
  8
0
 10
37.4606
 20
1048.37
 11
37.5
 21
1049
  0
LINE
  8
0
 10
37.5
 20
1049
 11
37.5
 21
1219
  0
LINE
  8
0
 10
37.5
 20
1219
 11
37.4606
 21
1219.63
  0
LINE
  8
0
 10
37.4606
 20
1219.63
 11
37.3429
 21
1220.24
  0
LINE
  8
0
 10
37.3429
 20
1220.24
 11
37.1489
 21
1220.84
  0
LINE
  8
0
 10
37.1489
 20
1220.84
 11
36.8815
 21
1221.41
  0
LINE
  8
0
 10
36.8815
 20
1221.41
 11
36.5451
 21
1221.94
  0
LINE
  8
0
 10
36.5451
 20
1221.94
 11
36.1448
 21
1222.42
  0
LINE
  8
0
 10
36.1448
 20
1222.42
 11
35.6871
 21
1222.85
  0
LINE
  8
0
 10
35.6871
 20
1222.85
 11
35.1791
 21
1223.22
  0
LINE
  8
0
 10
35.1791
 20
1223.22
 11
34.6289
 21
1223.52
  0
LINE
  8
0
 10
34.6289
 20
1223.52
 11
34.0451
 21
1223.76
  0
LINE
  8
0
 10
34.0451
 20
1223.76
 11
33.4369
 21
1223.91
  0
LINE
  8
0
 10
33.4369
 20
1223.91
 11
32.8139
 21
1223.99
  0
LINE
  8
0
 10
32.8139
 20
1223.99
 11
-32.8139
 21
1223.99
  0
LINE
  8
0
 10
-32.8139
 20
1223.99
 11
-33.4369
 21
1223.91
  0
LINE
  8
0
 10
-33.4369
 20
1223.91
 11
-34.0451
 21
1223.76
  0
LINE
  8
0
 10
-34.0451
 20
1223.76
 11
-34.6289
 21
1223.52
  0
LINE
  8
0
 10
-34.6289
 20
1223.52
 11
-35.1791
 21
1223.22
  0
LINE
  8
0
 10
-35.1791
 20
1223.22
 11
-35.6871
 21
1222.85
  0
LINE
  8
0
 10
-35.6871
 20
1222.85
 11
-36.1448
 21
1222.42
  0
LINE
  8
0
 10
-36.1448
 20
1222.42
 11
-36.5451
 21
1221.94
  0
LINE
  8
0
 10
-36.5451
 20
1221.94
 11
-36.8815
 21
1221.41
  0
LINE
  8
0
 10
-36.8815
 20
1221.41
 11
-37.1489
 21
1220.84
  0
LINE
  8
0
 10
-37.1489
 20
1220.84
 11
-37.3429
 21
1220.24
  0
LINE
  8
0
 10
-37.3429
 20
1220.24
 11
-37.4606
 21
1219.63
  0
LINE
  8
0
 10
-37.4606
 20
1219.63
 11
-37.5
 21
1219
  0
LINE
  8
0
 10
-37.5
 20
1219
 11
-37.5
 21
1049
  0
LINE
  8
0
 10
-37.5
 20
1049
 11
-37.4606
 21
1048.37
  0
LINE
  8
0
 10
-37.4606
 20
1048.37
 11
-37.3429
 21
1047.76
  0
LINE
  8
0
 10
-37.3429
 20
1047.76
 11
-37.1489
 21
1047.16
  0
LINE
  8
0
 10
-37.1489
 20
1047.16
 11
-36.8815
 21
1046.59
  0
LINE
  8
0
 10
-36.8815
 20
1046.59
 11
-36.5451
 21
1046.06
  0
LINE
  8
0
 10
-36.5451
 20
1046.06
 11
-36.1448
 21
1045.58
  0
LINE
  8
0
 10
-36.1448
 20
1045.58
 11
-35.6871
 21
1045.15
  0
LINE
  8
0
 10
-35.6871
 20
1045.15
 11
-35.1791
 21
1044.78
  0
LINE
  8
0
 10
-35.1791
 20
1044.78
 11
-34.6289
 21
1044.48
  0
LINE
  8
0
 10
-34.6289
 20
1044.48
 11
-34.0451
 21
1044.24
  0
LINE
  8
0
 10
-34.0451
 20
1044.24
 11
-33.4369
 21
1044.09
  0
LINE
  8
0
 10
-33.4369
 20
1044.09
 11
-32.8139
 21
1044.01
  0
LINE
  8
0
 10
-32.8139
 20
1044.01
 11
32.8139
 21
1044.01
  0
LINE
  8
0
 10
32.8139
 20
1044.01
 11
33.4369
 21
1044.09
  0
LINE
  8
0
 10
-32.2512
 20
1045.51
 11
-32.7495
 21
1045.57
  0
LINE
  8
0
 10
-32.7495
 20
1045.57
 11
-33.2361
 21
1045.7
  0
LINE
  8
0
 10
-33.2361
 20
1045.7
 11
-33.7031
 21
1045.88
  0
LINE
  8
0
 10
-33.7031
 20
1045.88
 11
-34.1433
 21
1046.12
  0
LINE
  8
0
 10
-34.1433
 20
1046.12
 11
-34.5497
 21
1046.42
  0
LINE
  8
0
 10
-34.5497
 20
1046.42
 11
-34.9159
 21
1046.76
  0
LINE
  8
0
 10
-34.9159
 20
1046.76
 11
-35.2361
 21
1047.15
  0
LINE
  8
0
 10
-35.2361
 20
1047.15
 11
-35.5052
 21
1047.57
  0
LINE
  8
0
 10
-35.5052
 20
1047.57
 11
-35.7191
 21
1048.03
  0
LINE
  8
0
 10
-35.7191
 20
1048.03
 11
-35.8743
 21
1048.51
  0
LINE
  8
0
 10
-35.8743
 20
1048.51
 11
-35.9685
 21
1049
  0
LINE
  8
0
 10
-35.9685
 20
1049
 11
-36
 21
1049.5
  0
LINE
  8
0
 10
-36
 20
1049.5
 11
-36
 21
1218.5
  0
LINE
  8
0
 10
-36
 20
1218.5
 11
-35.9685
 21
1219
  0
LINE
  8
0
 10
-35.9685
 20
1219
 11
-35.8743
 21
1219.49
  0
LINE
  8
0
 10
-35.8743
 20
1219.49
 11
-35.7191
 21
1219.97
  0
LINE
  8
0
 10
-35.7191
 20
1219.97
 11
-35.5052
 21
1220.43
  0
LINE
  8
0
 10
-35.5052
 20
1220.43
 11
-35.2361
 21
1220.85
  0
LINE
  8
0
 10
-35.2361
 20
1220.85
 11
-34.9159
 21
1221.24
  0
LINE
  8
0
 10
-34.9159
 20
1221.24
 11
-34.5497
 21
1221.58
  0
LINE
  8
0
 10
-34.5497
 20
1221.58
 11
-34.1433
 21
1221.88
  0
LINE
  8
0
 10
-34.1433
 20
1221.88
 11
-33.7031
 21
1222.12
  0
LINE
  8
0
 10
-33.7031
 20
1222.12
 11
-33.2361
 21
1222.3
  0
LINE
  8
0
 10
-33.2361
 20
1222.3
 11
-32.7495
 21
1222.43
  0
LINE
  8
0
 10
-32.7495
 20
1222.43
 11
-32.2512
 21
1222.49
  0
LINE
  8
0
 10
-32.2512
 20
1222.49
 11
32.2512
 21
1222.49
  0
LINE
  8
0
 10
32.2512
 20
1222.49
 11
32.7495
 21
1222.43
  0
LINE
  8
0
 10
32.7495
 20
1222.43
 11
33.2361
 21
1222.3
  0
LINE
  8
0
 10
33.2361
 20
1222.3
 11
33.7031
 21
1222.12
  0
LINE
  8
0
 10
33.7031
 20
1222.12
 11
34.1433
 21
1221.88
  0
LINE
  8
0
 10
34.1433
 20
1221.88
 11
34.5497
 21
1221.58
  0
LINE
  8
0
 10
34.5497
 20
1221.58
 11
34.9159
 21
1221.24
  0
LINE
  8
0
 10
34.9159
 20
1221.24
 11
35.2361
 21
1220.85
  0
LINE
  8
0
 10
35.2361
 20
1220.85
 11
35.5052
 21
1220.43
  0
LINE
  8
0
 10
35.5052
 20
1220.43
 11
35.7191
 21
1219.97
  0
LINE
  8
0
 10
35.7191
 20
1219.97
 11
35.8743
 21
1219.49
  0
LINE
  8
0
 10
35.8743
 20
1219.49
 11
35.9685
 21
1219
  0
LINE
  8
0
 10
35.9685
 20
1219
 11
36
 21
1218.5
  0
LINE
  8
0
 10
36
 20
1218.5
 11
36
 21
1049.5
  0
LINE
  8
0
 10
36
 20
1049.5
 11
35.9685
 21
1049
  0
LINE
  8
0
 10
35.9685
 20
1049
 11
35.8743
 21
1048.51
  0
LINE
  8
0
 10
35.8743
 20
1048.51
 11
35.7191
 21
1048.03
  0
LINE
  8
0
 10
35.7191
 20
1048.03
 11
35.5052
 21
1047.57
  0
LINE
  8
0
 10
35.5052
 20
1047.57
 11
35.2361
 21
1047.15
  0
LINE
  8
0
 10
35.2361
 20
1047.15
 11
34.9159
 21
1046.76
  0
LINE
  8
0
 10
34.9159
 20
1046.76
 11
34.5497
 21
1046.42
  0
LINE
  8
0
 10
34.5497
 20
1046.42
 11
34.1433
 21
1046.12
  0
LINE
  8
0
 10
34.1433
 20
1046.12
 11
33.7031
 21
1045.88
  0
LINE
  8
0
 10
33.7031
 20
1045.88
 11
33.2361
 21
1045.7
  0
LINE
  8
0
 10
33.2361
 20
1045.7
 11
32.7495
 21
1045.57
  0
LINE
  8
0
 10
32.7495
 20
1045.57
 11
32.2512
 21
1045.51
  0
LINE
  8
0
 10
32.2512
 20
1045.51
 11
-32.2512
 21
1045.51
  0
LINE
  8
0
 10
33.4369
 20
855.089
 11
34.0451
 21
855.245
  0
LINE
  8
0
 10
34.0451
 20
855.245
 11
34.6289
 21
855.476
  0
LINE
  8
0
 10
34.6289
 20
855.476
 11
35.1791
 21
855.778
  0
LINE
  8
0
 10
35.1791
 20
855.778
 11
35.6871
 21
856.147
  0
LINE
  8
0
 10
35.6871
 20
856.147
 11
36.1448
 21
856.577
  0
LINE
  8
0
 10
36.1448
 20
856.577
 11
36.5451
 21
857.061
  0
LINE
  8
0
 10
36.5451
 20
857.061
 11
36.8815
 21
857.591
  0
LINE
  8
0
 10
36.8815
 20
857.591
 11
37.1489
 21
858.159
  0
LINE
  8
0
 10
37.1489
 20
858.159
 11
37.3429
 21
858.757
  0
LINE
  8
0
 10
37.3429
 20
858.757
 11
37.4606
 21
859.373
  0
LINE
  8
0
 10
37.4606
 20
859.373
 11
37.5
 21
860
  0
LINE
  8
0
 10
37.5
 20
860
 11
37.5
 21
1030
  0
LINE
  8
0
 10
37.5
 20
1030
 11
37.4606
 21
1030.63
  0
LINE
  8
0
 10
37.4606
 20
1030.63
 11
37.3429
 21
1031.24
  0
LINE
  8
0
 10
37.3429
 20
1031.24
 11
37.1489
 21
1031.84
  0
LINE
  8
0
 10
37.1489
 20
1031.84
 11
36.8815
 21
1032.41
  0
LINE
  8
0
 10
36.8815
 20
1032.41
 11
36.5451
 21
1032.94
  0
LINE
  8
0
 10
36.5451
 20
1032.94
 11
36.1448
 21
1033.42
  0
LINE
  8
0
 10
36.1448
 20
1033.42
 11
35.6871
 21
1033.85
  0
LINE
  8
0
 10
35.6871
 20
1033.85
 11
35.1791
 21
1034.22
  0
LINE
  8
0
 10
35.1791
 20
1034.22
 11
34.6289
 21
1034.52
  0
LINE
  8
0
 10
34.6289
 20
1034.52
 11
34.0451
 21
1034.76
  0
LINE
  8
0
 10
34.0451
 20
1034.76
 11
33.4369
 21
1034.91
  0
LINE
  8
0
 10
33.4369
 20
1034.91
 11
32.8139
 21
1034.99
  0
LINE
  8
0
 10
32.8139
 20
1034.99
 11
-32.8139
 21
1034.99
  0
LINE
  8
0
 10
-32.8139
 20
1034.99
 11
-33.4369
 21
1034.91
  0
LINE
  8
0
 10
-33.4369
 20
1034.91
 11
-34.0451
 21
1034.76
  0
LINE
  8
0
 10
-34.0451
 20
1034.76
 11
-34.6289
 21
1034.52
  0
LINE
  8
0
 10
-34.6289
 20
1034.52
 11
-35.1791
 21
1034.22
  0
LINE
  8
0
 10
-35.1791
 20
1034.22
 11
-35.6871
 21
1033.85
  0
LINE
  8
0
 10
-35.6871
 20
1033.85
 11
-36.1448
 21
1033.42
  0
LINE
  8
0
 10
-36.1448
 20
1033.42
 11
-36.5451
 21
1032.94
  0
LINE
  8
0
 10
-36.5451
 20
1032.94
 11
-36.8815
 21
1032.41
  0
LINE
  8
0
 10
-36.8815
 20
1032.41
 11
-37.1489
 21
1031.84
  0
LINE
  8
0
 10
-37.1489
 20
1031.84
 11
-37.3429
 21
1031.24
  0
LINE
  8
0
 10
-37.3429
 20
1031.24
 11
-37.4606
 21
1030.63
  0
LINE
  8
0
 10
-37.4606
 20
1030.63
 11
-37.5
 21
1030
  0
LINE
  8
0
 10
-37.5
 20
1030
 11
-37.5
 21
860
  0
LINE
  8
0
 10
-37.5
 20
860
 11
-37.4606
 21
859.373
  0
LINE
  8
0
 10
-37.4606
 20
859.373
 11
-37.3429
 21
858.757
  0
LINE
  8
0
 10
-37.3429
 20
858.757
 11
-37.1489
 21
858.159
  0
LINE
  8
0
 10
-37.1489
 20
858.159
 11
-36.8815
 21
857.591
  0
LINE
  8
0
 10
-36.8815
 20
857.591
 11
-36.5451
 21
857.061
  0
LINE
  8
0
 10
-36.5451
 20
857.061
 11
-36.1448
 21
856.577
  0
LINE
  8
0
 10
-36.1448
 20
856.577
 11
-35.6871
 21
856.147
  0
LINE
  8
0
 10
-35.6871
 20
856.147
 11
-35.1791
 21
855.778
  0
LINE
  8
0
 10
-35.1791
 20
855.778
 11
-34.6289
 21
855.476
  0
LINE
  8
0
 10
-34.6289
 20
855.476
 11
-34.0451
 21
855.245
  0
LINE
  8
0
 10
-34.0451
 20
855.245
 11
-33.4369
 21
855.089
  0
LINE
  8
0
 10
-33.4369
 20
855.089
 11
-32.8139
 21
855.01
  0
LINE
  8
0
 10
-32.8139
 20
855.01
 11
32.8139
 21
855.01
  0
LINE
  8
0
 10
32.8139
 20
855.01
 11
33.4369
 21
855.089
  0
LINE
  8
0
 10
-32.1954
 20
857.393
 11
-32.5833
 21
857.442
  0
LINE
  8
0
 10
-32.5833
 20
857.442
 11
-32.9619
 21
857.539
  0
LINE
  8
0
 10
-32.9619
 20
857.539
 11
-33.3254
 21
857.683
  0
LINE
  8
0
 10
-33.3254
 20
857.683
 11
-33.668
 21
857.872
  0
LINE
  8
0
 10
-33.668
 20
857.872
 11
-33.9842
 21
858.101
  0
LINE
  8
0
 10
-33.9842
 20
858.101
 11
-34.2692
 21
858.369
  0
LINE
  8
0
 10
-34.2692
 20
858.369
 11
-34.5184
 21
858.67
  0
LINE
  8
0
 10
-34.5184
 20
858.67
 11
-34.7279
 21
859
  0
LINE
  8
0
 10
-34.7279
 20
859
 11
-34.8943
 21
859.354
  0
LINE
  8
0
 10
-34.8943
 20
859.354
 11
-35.0151
 21
859.726
  0
LINE
  8
0
 10
-35.0151
 20
859.726
 11
-35.0884
 21
860.11
  0
LINE
  8
0
 10
-35.0884
 20
860.11
 11
-35.1129
 21
860.5
  0
LINE
  8
0
 10
-35.1129
 20
860.5
 11
-35.1129
 21
1029.5
  0
LINE
  8
0
 10
-35.1129
 20
1029.5
 11
-35.0884
 21
1029.89
  0
LINE
  8
0
 10
-35.0884
 20
1029.89
 11
-35.0151
 21
1030.27
  0
LINE
  8
0
 10
-35.0151
 20
1030.27
 11
-34.8943
 21
1030.65
  0
LINE
  8
0
 10
-34.8943
 20
1030.65
 11
-34.7279
 21
1031
  0
LINE
  8
0
 10
-34.7279
 20
1031
 11
-34.5184
 21
1031.33
  0
LINE
  8
0
 10
-34.5184
 20
1031.33
 11
-34.2692
 21
1031.63
  0
LINE
  8
0
 10
-34.2692
 20
1031.63
 11
-33.9842
 21
1031.9
  0
LINE
  8
0
 10
-33.9842
 20
1031.9
 11
-33.668
 21
1032.13
  0
LINE
  8
0
 10
-33.668
 20
1032.13
 11
-33.3254
 21
1032.32
  0
LINE
  8
0
 10
-33.3254
 20
1032.32
 11
-32.9619
 21
1032.46
  0
LINE
  8
0
 10
-32.9619
 20
1032.46
 11
-32.5833
 21
1032.56
  0
LINE
  8
0
 10
-32.5833
 20
1032.56
 11
-32.1954
 21
1032.61
  0
LINE
  8
0
 10
-32.1954
 20
1032.61
 11
32.1954
 21
1032.61
  0
LINE
  8
0
 10
32.1954
 20
1032.61
 11
32.5833
 21
1032.56
  0
LINE
  8
0
 10
32.5833
 20
1032.56
 11
32.9619
 21
1032.46
  0
LINE
  8
0
 10
32.9619
 20
1032.46
 11
33.3254
 21
1032.32
  0
LINE
  8
0
 10
33.3254
 20
1032.32
 11
33.668
 21
1032.13
  0
LINE
  8
0
 10
33.668
 20
1032.13
 11
33.9842
 21
1031.9
  0
LINE
  8
0
 10
33.9842
 20
1031.9
 11
34.2692
 21
1031.63
  0
LINE
  8
0
 10
34.2692
 20
1031.63
 11
34.5184
 21
1031.33
  0
LINE
  8
0
 10
34.5184
 20
1031.33
 11
34.7279
 21
1031
  0
LINE
  8
0
 10
34.7279
 20
1031
 11
34.8943
 21
1030.65
  0
LINE
  8
0
 10
34.8943
 20
1030.65
 11
35.0151
 21
1030.27
  0
LINE
  8
0
 10
35.0151
 20
1030.27
 11
35.0884
 21
1029.89
  0
LINE
  8
0
 10
35.0884
 20
1029.89
 11
35.1129
 21
1029.5
  0
LINE
  8
0
 10
35.1129
 20
1029.5
 11
35.1129
 21
860.5
  0
LINE
  8
0
 10
35.1129
 20
860.5
 11
35.0884
 21
860.11
  0
LINE
  8
0
 10
35.0884
 20
860.11
 11
35.0151
 21
859.726
  0
LINE
  8
0
 10
35.0151
 20
859.726
 11
34.8943
 21
859.354
  0
LINE
  8
0
 10
34.8943
 20
859.354
 11
34.7279
 21
859
  0
LINE
  8
0
 10
34.7279
 20
859
 11
34.5184
 21
858.67
  0
LINE
  8
0
 10
34.5184
 20
858.67
 11
34.2692
 21
858.369
  0
LINE
  8
0
 10
34.2692
 20
858.369
 11
33.9842
 21
858.101
  0
LINE
  8
0
 10
33.9842
 20
858.101
 11
33.668
 21
857.872
  0
LINE
  8
0
 10
33.668
 20
857.872
 11
33.3254
 21
857.683
  0
LINE
  8
0
 10
33.3254
 20
857.683
 11
32.9619
 21
857.539
  0
LINE
  8
0
 10
32.9619
 20
857.539
 11
32.5833
 21
857.442
  0
LINE
  8
0
 10
32.5833
 20
857.442
 11
32.1954
 21
857.393
  0
LINE
  8
0
 10
32.1954
 20
857.393
 11
-32.1954
 21
857.393
  0
LINE
  8
0
 10
33.4369
 20
666.089
 11
34.0451
 21
666.245
  0
LINE
  8
0
 10
34.0451
 20
666.245
 11
34.6289
 21
666.476
  0
LINE
  8
0
 10
34.6289
 20
666.476
 11
35.1791
 21
666.778
  0
LINE
  8
0
 10
35.1791
 20
666.778
 11
35.6871
 21
667.147
  0
LINE
  8
0
 10
35.6871
 20
667.147
 11
36.1448
 21
667.577
  0
LINE
  8
0
 10
36.1448
 20
667.577
 11
36.5451
 21
668.061
  0
LINE
  8
0
 10
36.5451
 20
668.061
 11
36.8815
 21
668.591
  0
LINE
  8
0
 10
36.8815
 20
668.591
 11
37.1489
 21
669.159
  0
LINE
  8
0
 10
37.1489
 20
669.159
 11
37.3429
 21
669.757
  0
LINE
  8
0
 10
37.3429
 20
669.757
 11
37.4606
 21
670.373
  0
LINE
  8
0
 10
37.4606
 20
670.373
 11
37.5
 21
671
  0
LINE
  8
0
 10
37.5
 20
671
 11
37.5
 21
841
  0
LINE
  8
0
 10
37.5
 20
841
 11
37.4606
 21
841.627
  0
LINE
  8
0
 10
37.4606
 20
841.627
 11
37.3429
 21
842.243
  0
LINE
  8
0
 10
37.3429
 20
842.243
 11
37.1489
 21
842.841
  0
LINE
  8
0
 10
37.1489
 20
842.841
 11
36.8815
 21
843.409
  0
LINE
  8
0
 10
36.8815
 20
843.409
 11
36.5451
 21
843.939
  0
LINE
  8
0
 10
36.5451
 20
843.939
 11
36.1448
 21
844.423
  0
LINE
  8
0
 10
36.1448
 20
844.423
 11
35.6871
 21
844.853
  0
LINE
  8
0
 10
35.6871
 20
844.853
 11
35.1791
 21
845.222
  0
LINE
  8
0
 10
35.1791
 20
845.222
 11
34.6289
 21
845.524
  0
LINE
  8
0
 10
34.6289
 20
845.524
 11
34.0451
 21
845.755
  0
LINE
  8
0
 10
34.0451
 20
845.755
 11
33.4369
 21
845.911
  0
LINE
  8
0
 10
33.4369
 20
845.911
 11
32.8139
 21
845.99
  0
LINE
  8
0
 10
32.8139
 20
845.99
 11
-32.8139
 21
845.99
  0
LINE
  8
0
 10
-32.8139
 20
845.99
 11
-33.4369
 21
845.911
  0
LINE
  8
0
 10
-33.4369
 20
845.911
 11
-34.0451
 21
845.755
  0
LINE
  8
0
 10
-34.0451
 20
845.755
 11
-34.6289
 21
845.524
  0
LINE
  8
0
 10
-34.6289
 20
845.524
 11
-35.1791
 21
845.222
  0
LINE
  8
0
 10
-35.1791
 20
845.222
 11
-35.6871
 21
844.853
  0
LINE
  8
0
 10
-35.6871
 20
844.853
 11
-36.1448
 21
844.423
  0
LINE
  8
0
 10
-36.1448
 20
844.423
 11
-36.5451
 21
843.939
  0
LINE
  8
0
 10
-36.5451
 20
843.939
 11
-36.8815
 21
843.409
  0
LINE
  8
0
 10
-36.8815
 20
843.409
 11
-37.1489
 21
842.841
  0
LINE
  8
0
 10
-37.1489
 20
842.841
 11
-37.3429
 21
842.243
  0
LINE
  8
0
 10
-37.3429
 20
842.243
 11
-37.4606
 21
841.627
  0
LINE
  8
0
 10
-37.4606
 20
841.627
 11
-37.5
 21
841
  0
LINE
  8
0
 10
-37.5
 20
841
 11
-37.5
 21
671
  0
LINE
  8
0
 10
-37.5
 20
671
 11
-37.4606
 21
670.373
  0
LINE
  8
0
 10
-37.4606
 20
670.373
 11
-37.3429
 21
669.757
  0
LINE
  8
0
 10
-37.3429
 20
669.757
 11
-37.1489
 21
669.159
  0
LINE
  8
0
 10
-37.1489
 20
669.159
 11
-36.8815
 21
668.591
  0
LINE
  8
0
 10
-36.8815
 20
668.591
 11
-36.5451
 21
668.061
  0
LINE
  8
0
 10
-36.5451
 20
668.061
 11
-36.1448
 21
667.577
  0
LINE
  8
0
 10
-36.1448
 20
667.577
 11
-35.6871
 21
667.147
  0
LINE
  8
0
 10
-35.6871
 20
667.147
 11
-35.1791
 21
666.778
  0
LINE
  8
0
 10
-35.1791
 20
666.778
 11
-34.6289
 21
666.476
  0
LINE
  8
0
 10
-34.6289
 20
666.476
 11
-34.0451
 21
666.245
  0
LINE
  8
0
 10
-34.0451
 20
666.245
 11
-33.4369
 21
666.089
  0
LINE
  8
0
 10
-33.4369
 20
666.089
 11
-32.8139
 21
666.01
  0
LINE
  8
0
 10
-32.8139
 20
666.01
 11
32.8139
 21
666.01
  0
LINE
  8
0
 10
32.8139
 20
666.01
 11
33.4369
 21
666.089
  0
LINE
  8
0
 10
29.8659
 20
836.369
 11
29.5999
 21
836.403
  0
LINE
  8
0
 10
29.5999
 20
836.403
 11
29.3401
 21
836.469
  0
LINE
  8
0
 10
29.3401
 20
836.469
 11
29.0908
 21
836.568
  0
LINE
  8
0
 10
29.0908
 20
836.568
 11
28.8559
 21
836.697
  0
LINE
  8
0
 10
28.8559
 20
836.697
 11
28.6389
 21
836.855
  0
LINE
  8
0
 10
28.6389
 20
836.855
 11
28.4434
 21
837.038
  0
LINE
  8
0
 10
28.4434
 20
837.038
 11
28.2725
 21
837.245
  0
LINE
  8
0
 10
28.2725
 20
837.245
 11
28.1288
 21
837.471
  0
LINE
  8
0
 10
28.1288
 20
837.471
 11
28.0146
 21
837.714
  0
LINE
  8
0
 10
28.0146
 20
837.714
 11
27.9318
 21
837.969
  0
LINE
  8
0
 10
27.9318
 20
837.969
 11
27.8815
 21
838.232
  0
LINE
  8
0
 10
27.8815
 20
838.232
 11
27.8647
 21
838.5
  0
LINE
  8
0
 10
27.8647
 20
838.5
 11
27.8815
 21
838.768
  0
LINE
  8
0
 10
27.8815
 20
838.768
 11
27.9318
 21
839.031
  0
LINE
  8
0
 10
27.9318
 20
839.031
 11
28.0146
 21
839.286
  0
LINE
  8
0
 10
28.0146
 20
839.286
 11
28.1288
 21
839.529
  0
LINE
  8
0
 10
28.1288
 20
839.529
 11
28.2725
 21
839.755
  0
LINE
  8
0
 10
28.2725
 20
839.755
 11
28.4434
 21
839.962
  0
LINE
  8
0
 10
28.4434
 20
839.962
 11
28.6389
 21
840.145
  0
LINE
  8
0
 10
28.6389
 20
840.145
 11
28.8559
 21
840.303
  0
LINE
  8
0
 10
28.8559
 20
840.303
 11
29.0908
 21
840.432
  0
LINE
  8
0
 10
29.0908
 20
840.432
 11
29.3401
 21
840.531
  0
LINE
  8
0
 10
29.3401
 20
840.531
 11
29.5999
 21
840.597
  0
LINE
  8
0
 10
29.5999
 20
840.597
 11
29.8659
 21
840.631
  0
LINE
  8
0
 10
29.8659
 20
840.631
 11
30.1341
 21
840.631
  0
LINE
  8
0
 10
30.1341
 20
840.631
 11
30.4001
 21
840.597
  0
LINE
  8
0
 10
30.4001
 20
840.597
 11
30.6598
 21
840.531
  0
LINE
  8
0
 10
30.6598
 20
840.531
 11
30.9091
 21
840.432
  0
LINE
  8
0
 10
30.9091
 20
840.432
 11
31.1441
 21
840.303
  0
LINE
  8
0
 10
31.1441
 20
840.303
 11
31.3611
 21
840.145
  0
LINE
  8
0
 10
31.3611
 20
840.145
 11
31.5565
 21
839.962
  0
LINE
  8
0
 10
31.5565
 20
839.962
 11
31.7275
 21
839.755
  0
LINE
  8
0
 10
31.7275
 20
839.755
 11
31.8712
 21
839.529
  0
LINE
  8
0
 10
31.8712
 20
839.529
 11
31.9853
 21
839.286
  0
LINE
  8
0
 10
31.9853
 20
839.286
 11
32.0682
 21
839.031
  0
LINE
  8
0
 10
32.0682
 20
839.031
 11
32.1185
 21
838.768
  0
LINE
  8
0
 10
32.1185
 20
838.768
 11
32.1353
 21
838.5
  0
LINE
  8
0
 10
32.1353
 20
838.5
 11
32.1185
 21
838.232
  0
LINE
  8
0
 10
32.1185
 20
838.232
 11
32.0682
 21
837.969
  0
LINE
  8
0
 10
32.0682
 20
837.969
 11
31.9853
 21
837.714
  0
LINE
  8
0
 10
31.9853
 20
837.714
 11
31.8712
 21
837.471
  0
LINE
  8
0
 10
31.8712
 20
837.471
 11
31.7275
 21
837.245
  0
LINE
  8
0
 10
31.7275
 20
837.245
 11
31.5565
 21
837.038
  0
LINE
  8
0
 10
31.5565
 20
837.038
 11
31.3611
 21
836.855
  0
LINE
  8
0
 10
31.3611
 20
836.855
 11
31.1441
 21
836.697
  0
LINE
  8
0
 10
31.1441
 20
836.697
 11
30.9091
 21
836.568
  0
LINE
  8
0
 10
30.9091
 20
836.568
 11
30.6598
 21
836.469
  0
LINE
  8
0
 10
30.6598
 20
836.469
 11
30.4001
 21
836.403
  0
LINE
  8
0
 10
30.4001
 20
836.403
 11
30.1341
 21
836.369
  0
LINE
  8
0
 10
30.1341
 20
836.369
 11
29.8659
 21
836.369
  0
LINE
  8
0
 10
-30.1341
 20
836.369
 11
-30.4001
 21
836.403
  0
LINE
  8
0
 10
-30.4001
 20
836.403
 11
-30.6598
 21
836.469
  0
LINE
  8
0
 10
-30.6598
 20
836.469
 11
-30.9091
 21
836.568
  0
LINE
  8
0
 10
-30.9091
 20
836.568
 11
-31.1441
 21
836.697
  0
LINE
  8
0
 10
-31.1441
 20
836.697
 11
-31.3611
 21
836.855
  0
LINE
  8
0
 10
-31.3611
 20
836.855
 11
-31.5565
 21
837.038
  0
LINE
  8
0
 10
-31.5565
 20
837.038
 11
-31.7275
 21
837.245
  0
LINE
  8
0
 10
-31.7275
 20
837.245
 11
-31.8712
 21
837.471
  0
LINE
  8
0
 10
-31.8712
 20
837.471
 11
-31.9853
 21
837.714
  0
LINE
  8
0
 10
-31.9853
 20
837.714
 11
-32.0682
 21
837.969
  0
LINE
  8
0
 10
-32.0682
 20
837.969
 11
-32.1185
 21
838.232
  0
LINE
  8
0
 10
-32.1185
 20
838.232
 11
-32.1353
 21
838.5
  0
LINE
  8
0
 10
-32.1353
 20
838.5
 11
-32.1185
 21
838.768
  0
LINE
  8
0
 10
-32.1185
 20
838.768
 11
-32.0682
 21
839.031
  0
LINE
  8
0
 10
-32.0682
 20
839.031
 11
-31.9853
 21
839.286
  0
LINE
  8
0
 10
-31.9853
 20
839.286
 11
-31.8712
 21
839.529
  0
LINE
  8
0
 10
-31.8712
 20
839.529
 11
-31.7275
 21
839.755
  0
LINE
  8
0
 10
-31.7275
 20
839.755
 11
-31.5565
 21
839.962
  0
LINE
  8
0
 10
-31.5565
 20
839.962
 11
-31.3611
 21
840.145
  0
LINE
  8
0
 10
-31.3611
 20
840.145
 11
-31.1441
 21
840.303
  0
LINE
  8
0
 10
-31.1441
 20
840.303
 11
-30.9091
 21
840.432
  0
LINE
  8
0
 10
-30.9091
 20
840.432
 11
-30.6598
 21
840.531
  0
LINE
  8
0
 10
-30.6598
 20
840.531
 11
-30.4001
 21
840.597
  0
LINE
  8
0
 10
-30.4001
 20
840.597
 11
-30.1341
 21
840.631
  0
LINE
  8
0
 10
-30.1341
 20
840.631
 11
-29.8659
 21
840.631
  0
LINE
  8
0
 10
-29.8659
 20
840.631
 11
-29.5999
 21
840.597
  0
LINE
  8
0
 10
-29.5999
 20
840.597
 11
-29.3401
 21
840.531
  0
LINE
  8
0
 10
-29.3401
 20
840.531
 11
-29.0908
 21
840.432
  0
LINE
  8
0
 10
-29.0908
 20
840.432
 11
-28.8559
 21
840.303
  0
LINE
  8
0
 10
-28.8559
 20
840.303
 11
-28.6389
 21
840.145
  0
LINE
  8
0
 10
-28.6389
 20
840.145
 11
-28.4434
 21
839.962
  0
LINE
  8
0
 10
-28.4434
 20
839.962
 11
-28.2725
 21
839.755
  0
LINE
  8
0
 10
-28.2725
 20
839.755
 11
-28.1288
 21
839.529
  0
LINE
  8
0
 10
-28.1288
 20
839.529
 11
-28.0146
 21
839.286
  0
LINE
  8
0
 10
-28.0146
 20
839.286
 11
-27.9318
 21
839.031
  0
LINE
  8
0
 10
-27.9318
 20
839.031
 11
-27.8815
 21
838.768
  0
LINE
  8
0
 10
-27.8815
 20
838.768
 11
-27.8647
 21
838.5
  0
LINE
  8
0
 10
-27.8647
 20
838.5
 11
-27.8815
 21
838.232
  0
LINE
  8
0
 10
-27.8815
 20
838.232
 11
-27.9318
 21
837.969
  0
LINE
  8
0
 10
-27.9318
 20
837.969
 11
-28.0146
 21
837.714
  0
LINE
  8
0
 10
-28.0146
 20
837.714
 11
-28.1288
 21
837.471
  0
LINE
  8
0
 10
-28.1288
 20
837.471
 11
-28.2725
 21
837.245
  0
LINE
  8
0
 10
-28.2725
 20
837.245
 11
-28.4434
 21
837.038
  0
LINE
  8
0
 10
-28.4434
 20
837.038
 11
-28.6389
 21
836.855
  0
LINE
  8
0
 10
-28.6389
 20
836.855
 11
-28.8559
 21
836.697
  0
LINE
  8
0
 10
-28.8559
 20
836.697
 11
-29.0908
 21
836.568
  0
LINE
  8
0
 10
-29.0908
 20
836.568
 11
-29.3401
 21
836.469
  0
LINE
  8
0
 10
-29.3401
 20
836.469
 11
-29.5999
 21
836.403
  0
LINE
  8
0
 10
-29.5999
 20
836.403
 11
-29.8659
 21
836.369
  0
LINE
  8
0
 10
-29.8659
 20
836.369
 11
-30.1341
 21
836.369
  0
LINE
  8
0
 10
29.8659
 20
671.369
 11
29.5999
 21
671.403
  0
LINE
  8
0
 10
29.5999
 20
671.403
 11
29.3401
 21
671.469
  0
LINE
  8
0
 10
29.3401
 20
671.469
 11
29.0908
 21
671.568
  0
LINE
  8
0
 10
29.0908
 20
671.568
 11
28.8559
 21
671.697
  0
LINE
  8
0
 10
28.8559
 20
671.697
 11
28.6389
 21
671.855
  0
LINE
  8
0
 10
28.6389
 20
671.855
 11
28.4434
 21
672.038
  0
LINE
  8
0
 10
28.4434
 20
672.038
 11
28.2725
 21
672.245
  0
LINE
  8
0
 10
28.2725
 20
672.245
 11
28.1288
 21
672.471
  0
LINE
  8
0
 10
28.1288
 20
672.471
 11
28.0146
 21
672.714
  0
LINE
  8
0
 10
28.0146
 20
672.714
 11
27.9318
 21
672.969
  0
LINE
  8
0
 10
27.9318
 20
672.969
 11
27.8815
 21
673.232
  0
LINE
  8
0
 10
27.8815
 20
673.232
 11
27.8647
 21
673.5
  0
LINE
  8
0
 10
27.8647
 20
673.5
 11
27.8815
 21
673.768
  0
LINE
  8
0
 10
27.8815
 20
673.768
 11
27.9318
 21
674.031
  0
LINE
  8
0
 10
27.9318
 20
674.031
 11
28.0146
 21
674.286
  0
LINE
  8
0
 10
28.0146
 20
674.286
 11
28.1288
 21
674.529
  0
LINE
  8
0
 10
28.1288
 20
674.529
 11
28.2725
 21
674.755
  0
LINE
  8
0
 10
28.2725
 20
674.755
 11
28.4434
 21
674.962
  0
LINE
  8
0
 10
28.4434
 20
674.962
 11
28.6389
 21
675.145
  0
LINE
  8
0
 10
28.6389
 20
675.145
 11
28.8559
 21
675.303
  0
LINE
  8
0
 10
28.8559
 20
675.303
 11
29.0908
 21
675.432
  0
LINE
  8
0
 10
29.0908
 20
675.432
 11
29.3401
 21
675.531
  0
LINE
  8
0
 10
29.3401
 20
675.531
 11
29.5999
 21
675.597
  0
LINE
  8
0
 10
29.5999
 20
675.597
 11
29.8659
 21
675.631
  0
LINE
  8
0
 10
29.8659
 20
675.631
 11
30.1341
 21
675.631
  0
LINE
  8
0
 10
30.1341
 20
675.631
 11
30.4001
 21
675.597
  0
LINE
  8
0
 10
30.4001
 20
675.597
 11
30.6598
 21
675.531
  0
LINE
  8
0
 10
30.6598
 20
675.531
 11
30.9091
 21
675.432
  0
LINE
  8
0
 10
30.9091
 20
675.432
 11
31.1441
 21
675.303
  0
LINE
  8
0
 10
31.1441
 20
675.303
 11
31.3611
 21
675.145
  0
LINE
  8
0
 10
31.3611
 20
675.145
 11
31.5565
 21
674.962
  0
LINE
  8
0
 10
31.5565
 20
674.962
 11
31.7275
 21
674.755
  0
LINE
  8
0
 10
31.7275
 20
674.755
 11
31.8712
 21
674.529
  0
LINE
  8
0
 10
31.8712
 20
674.529
 11
31.9853
 21
674.286
  0
LINE
  8
0
 10
31.9853
 20
674.286
 11
32.0682
 21
674.031
  0
LINE
  8
0
 10
32.0682
 20
674.031
 11
32.1185
 21
673.768
  0
LINE
  8
0
 10
32.1185
 20
673.768
 11
32.1353
 21
673.5
  0
LINE
  8
0
 10
32.1353
 20
673.5
 11
32.1185
 21
673.232
  0
LINE
  8
0
 10
32.1185
 20
673.232
 11
32.0682
 21
672.969
  0
LINE
  8
0
 10
32.0682
 20
672.969
 11
31.9853
 21
672.714
  0
LINE
  8
0
 10
31.9853
 20
672.714
 11
31.8712
 21
672.471
  0
LINE
  8
0
 10
31.8712
 20
672.471
 11
31.7275
 21
672.245
  0
LINE
  8
0
 10
31.7275
 20
672.245
 11
31.5565
 21
672.038
  0
LINE
  8
0
 10
31.5565
 20
672.038
 11
31.3611
 21
671.855
  0
LINE
  8
0
 10
31.3611
 20
671.855
 11
31.1441
 21
671.697
  0
LINE
  8
0
 10
31.1441
 20
671.697
 11
30.9091
 21
671.568
  0
LINE
  8
0
 10
30.9091
 20
671.568
 11
30.6598
 21
671.469
  0
LINE
  8
0
 10
30.6598
 20
671.469
 11
30.4001
 21
671.403
  0
LINE
  8
0
 10
30.4001
 20
671.403
 11
30.1341
 21
671.369
  0
LINE
  8
0
 10
30.1341
 20
671.369
 11
29.8659
 21
671.369
  0
LINE
  8
0
 10
-30.1341
 20
671.369
 11
-30.4001
 21
671.403
  0
LINE
  8
0
 10
-30.4001
 20
671.403
 11
-30.6598
 21
671.469
  0
LINE
  8
0
 10
-30.6598
 20
671.469
 11
-30.9091
 21
671.568
  0
LINE
  8
0
 10
-30.9091
 20
671.568
 11
-31.1441
 21
671.697
  0
LINE
  8
0
 10
-31.1441
 20
671.697
 11
-31.3611
 21
671.855
  0
LINE
  8
0
 10
-31.3611
 20
671.855
 11
-31.5565
 21
672.038
  0
LINE
  8
0
 10
-31.5565
 20
672.038
 11
-31.7275
 21
672.245
  0
LINE
  8
0
 10
-31.7275
 20
672.245
 11
-31.8712
 21
672.471
  0
LINE
  8
0
 10
-31.8712
 20
672.471
 11
-31.9853
 21
672.714
  0
LINE
  8
0
 10
-31.9853
 20
672.714
 11
-32.0682
 21
672.969
  0
LINE
  8
0
 10
-32.0682
 20
672.969
 11
-32.1185
 21
673.232
  0
LINE
  8
0
 10
-32.1185
 20
673.232
 11
-32.1353
 21
673.5
  0
LINE
  8
0
 10
-32.1353
 20
673.5
 11
-32.1185
 21
673.768
  0
LINE
  8
0
 10
-32.1185
 20
673.768
 11
-32.0682
 21
674.031
  0
LINE
  8
0
 10
-32.0682
 20
674.031
 11
-31.9853
 21
674.286
  0
LINE
  8
0
 10
-31.9853
 20
674.286
 11
-31.8712
 21
674.529
  0
LINE
  8
0
 10
-31.8712
 20
674.529
 11
-31.7275
 21
674.755
  0
LINE
  8
0
 10
-31.7275
 20
674.755
 11
-31.5565
 21
674.962
  0
LINE
  8
0
 10
-31.5565
 20
674.962
 11
-31.3611
 21
675.145
  0
LINE
  8
0
 10
-31.3611
 20
675.145
 11
-31.1441
 21
675.303
  0
LINE
  8
0
 10
-31.1441
 20
675.303
 11
-30.9091
 21
675.432
  0
LINE
  8
0
 10
-30.9091
 20
675.432
 11
-30.6598
 21
675.531
  0
LINE
  8
0
 10
-30.6598
 20
675.531
 11
-30.4001
 21
675.597
  0
LINE
  8
0
 10
-30.4001
 20
675.597
 11
-30.1341
 21
675.631
  0
LINE
  8
0
 10
-30.1341
 20
675.631
 11
-29.8659
 21
675.631
  0
LINE
  8
0
 10
-29.8659
 20
675.631
 11
-29.5999
 21
675.597
  0
LINE
  8
0
 10
-29.5999
 20
675.597
 11
-29.3401
 21
675.531
  0
LINE
  8
0
 10
-29.3401
 20
675.531
 11
-29.0908
 21
675.432
  0
LINE
  8
0
 10
-29.0908
 20
675.432
 11
-28.8559
 21
675.303
  0
LINE
  8
0
 10
-28.8559
 20
675.303
 11
-28.6389
 21
675.145
  0
LINE
  8
0
 10
-28.6389
 20
675.145
 11
-28.4434
 21
674.962
  0
LINE
  8
0
 10
-28.4434
 20
674.962
 11
-28.2725
 21
674.755
  0
LINE
  8
0
 10
-28.2725
 20
674.755
 11
-28.1288
 21
674.529
  0
LINE
  8
0
 10
-28.1288
 20
674.529
 11
-28.0146
 21
674.286
  0
LINE
  8
0
 10
-28.0146
 20
674.286
 11
-27.9318
 21
674.031
  0
LINE
  8
0
 10
-27.9318
 20
674.031
 11
-27.8815
 21
673.768
  0
LINE
  8
0
 10
-27.8815
 20
673.768
 11
-27.8647
 21
673.5
  0
LINE
  8
0
 10
-27.8647
 20
673.5
 11
-27.8815
 21
673.232
  0
LINE
  8
0
 10
-27.8815
 20
673.232
 11
-27.9318
 21
672.969
  0
LINE
  8
0
 10
-27.9318
 20
672.969
 11
-28.0146
 21
672.714
  0
LINE
  8
0
 10
-28.0146
 20
672.714
 11
-28.1288
 21
672.471
  0
LINE
  8
0
 10
-28.1288
 20
672.471
 11
-28.2725
 21
672.245
  0
LINE
  8
0
 10
-28.2725
 20
672.245
 11
-28.4434
 21
672.038
  0
LINE
  8
0
 10
-28.4434
 20
672.038
 11
-28.6389
 21
671.855
  0
LINE
  8
0
 10
-28.6389
 20
671.855
 11
-28.8559
 21
671.697
  0
LINE
  8
0
 10
-28.8559
 20
671.697
 11
-29.0908
 21
671.568
  0
LINE
  8
0
 10
-29.0908
 20
671.568
 11
-29.3401
 21
671.469
  0
LINE
  8
0
 10
-29.3401
 20
671.469
 11
-29.5999
 21
671.403
  0
LINE
  8
0
 10
-29.5999
 20
671.403
 11
-29.8659
 21
671.369
  0
LINE
  8
0
 10
-29.8659
 20
671.369
 11
-30.1341
 21
671.369
  0
ENDSEC
  0
SECTION
  2
OBJECTS
  0
DICTIONARY
  0
ENDSEC
  0
EOF
