<?xml version="1.0" standalone="no"?>
<!DOCTYPE svg PUBLIC "-//W3C//DTD SVG 1.1//EN" "http://www.w3.org/Graphics/SVG/1.1/DTD/svg11.dtd">
<svg width="226mm" height="150mm" viewBox="-113 -264 226 150" xmlns="http://www.w3.org/2000/svg" version="1.1">
<title>OpenSCAD Model</title>
<path d="
M 108.437,-240.839 L 109.045,-240.995 L 109.629,-241.226 L 110.179,-241.528 L 110.687,-241.897 L 111.145,-242.327
 L 111.545,-242.811 L 111.882,-243.341 L 112.149,-243.909 L 112.343,-244.507 L 112.461,-245.123 L 112.5,-245.75
 L 112.5,-258.25 L 112.461,-258.877 L 112.343,-259.493 L 112.149,-260.091 L 111.882,-260.659 L 111.545,-261.189
 L 111.145,-261.673 L 110.687,-262.103 L 110.179,-262.472 L 109.629,-262.774 L 109.045,-263.005 L 108.437,-263.161
 L 107.814,-263.24 L -107.814,-263.24 L -108.437,-263.161 L -109.045,-263.005 L -109.629,-262.774 L -110.179,-262.472
 L -110.687,-262.103 L -111.145,-261.673 L -111.545,-261.189 L -111.882,-260.659 L -112.149,-260.091 L -112.343,-259.493
 L -112.461,-258.877 L -112.5,-258.25 L -112.5,-245.75 L -112.461,-245.123 L -112.343,-244.507 L -112.149,-243.909
 L -111.882,-243.341 L -111.545,-242.811 L -111.145,-242.327 L -110.687,-241.897 L -110.179,-241.528 L -109.629,-241.226
 L -109.045,-240.995 L -108.437,-240.839 L -107.814,-240.76 L 107.814,-240.76 z
M -107.548,-241.259 L -108.14,-241.334 L -108.718,-241.482 L -109.272,-241.702 L -109.795,-241.989 L -110.278,-242.34
 L -110.713,-242.748 L -111.093,-243.208 L -111.412,-243.712 L -111.666,-244.251 L -111.851,-244.819 L -111.963,-245.405
 L -112,-246 L -112,-258 L -111.963,-258.595 L -111.851,-259.181 L -111.666,-259.749 L -111.412,-260.288
 L -111.093,-260.792 L -110.713,-261.252 L -110.278,-261.66 L -109.795,-262.011 L -109.272,-262.298 L -108.718,-262.518
 L -108.14,-262.666 L -107.548,-262.741 L 107.548,-262.741 L 108.14,-262.666 L 108.718,-262.518 L 109.272,-262.298
 L 109.795,-262.011 L 110.278,-261.66 L 110.713,-261.252 L 111.093,-260.792 L 111.412,-260.288 L 111.666,-259.749
 L 111.851,-259.181 L 111.963,-258.595 L 112,-258 L 112,-246 L 111.963,-245.405 L 111.851,-244.819
 L 111.666,-244.251 L 111.412,-243.712 L 111.093,-243.208 L 110.713,-242.748 L 110.278,-242.34 L 109.795,-241.989
 L 109.272,-241.702 L 108.718,-241.482 L 108.14,-241.334 L 107.548,-241.259 z
M 108.437,-209.339 L 109.045,-209.495 L 109.629,-209.726 L 110.179,-210.028 L 110.687,-210.397 L 111.145,-210.827
 L 111.545,-211.311 L 111.882,-211.841 L 112.149,-212.409 L 112.343,-213.007 L 112.461,-213.623 L 112.5,-214.25
 L 112.5,-226.75 L 112.461,-227.377 L 112.343,-227.993 L 112.149,-228.591 L 111.882,-229.159 L 111.545,-229.689
 L 111.145,-230.173 L 110.687,-230.603 L 110.179,-230.972 L 109.629,-231.274 L 109.045,-231.505 L 108.437,-231.661
 L 107.814,-231.74 L -107.814,-231.74 L -108.437,-231.661 L -109.045,-231.505 L -109.629,-231.274 L -110.179,-230.972
 L -110.687,-230.603 L -111.145,-230.173 L -111.545,-229.689 L -111.882,-229.159 L -112.149,-228.591 L -112.343,-227.993
 L -112.461,-227.377 L -112.5,-226.75 L -112.5,-214.25 L -112.461,-213.623 L -112.343,-213.007 L -112.149,-212.409
 L -111.882,-211.841 L -111.545,-211.311 L -111.145,-210.827 L -110.687,-210.397 L -110.179,-210.028 L -109.629,-209.726
 L -109.045,-209.495 L -108.437,-209.339 L -107.814,-209.26 L 107.814,-209.26 z
M -107.548,-209.759 L -108.14,-209.834 L -108.718,-209.982 L -109.272,-210.202 L -109.795,-210.489 L -110.278,-210.84
 L -110.713,-211.248 L -111.093,-211.708 L -111.412,-212.212 L -111.666,-212.751 L -111.851,-213.319 L -111.963,-213.905
 L -112,-214.5 L -112,-226.5 L -111.963,-227.095 L -111.851,-227.681 L -111.666,-228.249 L -111.412,-228.788
 L -111.093,-229.292 L -110.713,-229.752 L -110.278,-230.16 L -109.795,-230.511 L -109.272,-230.798 L -108.718,-231.018
 L -108.14,-231.166 L -107.548,-231.241 L 107.548,-231.241 L 108.14,-231.166 L 108.718,-231.018 L 109.272,-230.798
 L 109.795,-230.511 L 110.278,-230.16 L 110.713,-229.752 L 111.093,-229.292 L 111.412,-228.788 L 111.666,-228.249
 L 111.851,-227.681 L 111.963,-227.095 L 112,-226.5 L 112,-214.5 L 111.963,-213.905 L 111.851,-213.319
 L 111.666,-212.751 L 111.412,-212.212 L 111.093,-211.708 L 110.713,-211.248 L 110.278,-210.84 L 109.795,-210.489
 L 109.272,-210.202 L 108.718,-209.982 L 108.14,-209.834 L 107.548,-209.759 z
M 108.437,-177.839 L 109.045,-177.995 L 109.629,-178.226 L 110.179,-178.528 L 110.687,-178.897 L 111.145,-179.327
 L 111.545,-179.811 L 111.882,-180.341 L 112.149,-180.909 L 112.343,-181.507 L 112.461,-182.123 L 112.5,-182.75
 L 112.5,-195.25 L 112.461,-195.877 L 112.343,-196.493 L 112.149,-197.091 L 111.882,-197.659 L 111.545,-198.189
 L 111.145,-198.673 L 110.687,-199.103 L 110.179,-199.472 L 109.629,-199.774 L 109.045,-200.005 L 108.437,-200.161
 L 107.814,-200.24 L -107.814,-200.24 L -108.437,-200.161 L -109.045,-200.005 L -109.629,-199.774 L -110.179,-199.472
 L -110.687,-199.103 L -111.145,-198.673 L -111.545,-198.189 L -111.882,-197.659 L -112.149,-197.091 L -112.343,-196.493
 L -112.461,-195.877 L -112.5,-195.25 L -112.5,-182.75 L -112.461,-182.123 L -112.343,-181.507 L -112.149,-180.909
 L -111.882,-180.341 L -111.545,-179.811 L -111.145,-179.327 L -110.687,-178.897 L -110.179,-178.528 L -109.629,-178.226
 L -109.045,-177.995 L -108.437,-177.839 L -107.814,-177.76 L 107.814,-177.76 z
M -107.548,-178.259 L -108.14,-178.334 L -108.718,-178.482 L -109.272,-178.702 L -109.795,-178.989 L -110.278,-179.34
 L -110.713,-179.748 L -111.093,-180.208 L -111.412,-180.712 L -111.666,-181.251 L -111.851,-181.819 L -111.963,-182.405
 L -112,-183 L -112,-195 L -111.963,-195.595 L -111.851,-196.181 L -111.666,-196.749 L -111.412,-197.288
 L -111.093,-197.792 L -110.713,-198.252 L -110.278,-198.66 L -109.795,-199.011 L -109.272,-199.298 L -108.718,-199.518
 L -108.14,-199.666 L -107.548,-199.741 L 107.548,-199.741 L 108.14,-199.666 L 108.718,-199.518 L 109.272,-199.298
 L 109.795,-199.011 L 110.278,-198.66 L 110.713,-198.252 L 111.093,-197.792 L 111.412,-197.288 L 111.666,-196.749
 L 111.851,-196.181 L 111.963,-195.595 L 112,-195 L 112,-183 L 111.963,-182.405 L 111.851,-181.819
 L 111.666,-181.251 L 111.412,-180.712 L 111.093,-180.208 L 110.713,-179.748 L 110.278,-179.34 L 109.795,-178.989
 L 109.272,-178.702 L 108.718,-178.482 L 108.14,-178.334 L 107.548,-178.259 z
M 108.437,-146.339 L 109.045,-146.495 L 109.629,-146.726 L 110.179,-147.028 L 110.687,-147.397 L 111.145,-147.827
 L 111.545,-148.311 L 111.882,-148.841 L 112.149,-149.409 L 112.343,-150.007 L 112.461,-150.623 L 112.5,-151.25
 L 112.5,-163.75 L 112.461,-164.377 L 112.343,-164.993 L 112.149,-165.591 L 111.882,-166.159 L 111.545,-166.689
 L 111.145,-167.173 L 110.687,-167.603 L 110.179,-167.972 L 109.629,-168.274 L 109.045,-168.505 L 108.437,-168.661
 L 107.814,-168.74 L -107.814,-168.74 L -108.437,-168.661 L -109.045,-168.505 L -109.629,-168.274 L -110.179,-167.972
 L -110.687,-167.603 L -111.145,-167.173 L -111.545,-166.689 L -111.882,-166.159 L -112.149,-165.591 L -112.343,-164.993
 L -112.461,-164.377 L -112.5,-163.75 L -112.5,-151.25 L -112.461,-150.623 L -112.343,-150.007 L -112.149,-149.409
 L -111.882,-148.841 L -111.545,-148.311 L -111.145,-147.827 L -110.687,-147.397 L -110.179,-147.028 L -109.629,-146.726
 L -109.045,-146.495 L -108.437,-146.339 L -107.814,-146.26 L 107.814,-146.26 z
M -107.493,-147.638 L -107.975,-147.699 L -108.446,-147.82 L -108.898,-147.999 L -109.323,-148.233 L -109.716,-148.519
 L -110.071,-148.851 L -110.38,-149.226 L -110.641,-149.636 L -110.848,-150.076 L -110.998,-150.538 L -111.089,-151.015
 L -111.119,-151.5 L -111.119,-163.5 L -111.089,-163.985 L -110.998,-164.462 L -110.848,-164.924 L -110.641,-165.364
 L -110.38,-165.774 L -110.071,-166.149 L -109.716,-166.481 L -109.323,-166.767 L -108.898,-167.001 L -108.446,-167.18
 L -107.975,-167.301 L -107.493,-167.362 L 107.493,-167.362 L 107.975,-167.301 L 108.446,-167.18 L 108.898,-167.001
 L 109.323,-166.767 L 109.716,-166.481 L 110.071,-166.149 L 110.38,-165.774 L 110.641,-165.364 L 110.848,-164.924
 L 110.998,-164.462 L 111.089,-163.985 L 111.119,-163.5 L 111.119,-151.5 L 111.089,-151.015 L 110.998,-150.538
 L 110.848,-150.076 L 110.641,-149.636 L 110.38,-149.226 L 110.071,-148.851 L 109.716,-148.519 L 109.323,-148.233
 L 108.898,-147.999 L 108.446,-147.82 L 107.975,-147.699 L 107.493,-147.638 z
M 108.437,-114.839 L 109.045,-114.995 L 109.629,-115.226 L 110.179,-115.528 L 110.687,-115.897 L 111.145,-116.327
 L 111.545,-116.811 L 111.882,-117.341 L 112.149,-117.909 L 112.343,-118.507 L 112.461,-119.123 L 112.5,-119.75
 L 112.5,-132.25 L 112.461,-132.877 L 112.343,-133.493 L 112.149,-134.091 L 111.882,-134.659 L 111.545,-135.189
 L 111.145,-135.673 L 110.687,-136.103 L 110.179,-136.472 L 109.629,-136.774 L 109.045,-137.005 L 108.437,-137.161
 L 107.814,-137.24 L -107.814,-137.24 L -108.437,-137.161 L -109.045,-137.005 L -109.629,-136.774 L -110.179,-136.472
 L -110.687,-136.103 L -111.145,-135.673 L -111.545,-135.189 L -111.882,-134.659 L -112.149,-134.091 L -112.343,-133.493
 L -112.461,-132.877 L -112.5,-132.25 L -112.5,-119.75 L -112.461,-119.123 L -112.343,-118.507 L -112.149,-117.909
 L -111.882,-117.341 L -111.545,-116.811 L -111.145,-116.327 L -110.687,-115.897 L -110.179,-115.528 L -109.629,-115.226
 L -109.045,-114.995 L -108.437,-114.839 L -107.814,-114.76 L 107.814,-114.76 z
M -105.113,-127.954 L -105.337,-127.982 L -105.556,-128.038 L -105.766,-128.121 L -105.964,-128.23 L -106.147,-128.363
 L -106.312,-128.518 L -106.456,-128.692 L -106.577,-128.883 L -106.674,-129.087 L -106.743,-129.302 L -106.786,-129.524
 L -106.8,-129.75 L -106.786,-129.976 L -106.743,-130.198 L -106.674,-130.413 L -106.577,-130.617 L -106.456,-130.808
 L -106.312,-130.982 L -106.147,-131.137 L -105.964,-131.27 L -105.766,-131.379 L -105.556,-131.462 L -105.337,-131.518
 L -105.113,-131.546 L -104.887,-131.546 L -104.663,-131.518 L -104.444,-131.462 L -104.234,-131.379 L -104.036,-131.27
 L -103.853,-131.137 L -103.688,-130.982 L -103.544,-130.808 L -103.423,-130.617 L -103.326,-130.413 L -103.257,-130.198
 L -103.214,-129.976 L -103.2,-129.75 L -103.214,-129.524 L -103.257,-129.302 L -103.326,-129.087 L -103.423,-128.883
 L -103.544,-128.692 L -103.688,-128.518 L -103.853,-128.363 L -104.036,-128.23 L -104.234,-128.121 L -104.444,-128.038
 L -104.663,-127.982 L -104.887,-127.954 z
M 104.887,-127.954 L 104.663,-127.982 L 104.444,-128.038 L 104.234,-128.121 L 104.036,-128.23 L 103.853,-128.363
 L 103.688,-128.518 L 103.544,-128.692 L 103.423,-128.883 L 103.326,-129.087 L 103.257,-129.302 L 103.214,-129.524
 L 103.2,-129.75 L 103.214,-129.976 L 103.257,-130.198 L 103.326,-130.413 L 103.423,-130.617 L 103.544,-130.808
 L 103.688,-130.982 L 103.853,-131.137 L 104.036,-131.27 L 104.234,-131.379 L 104.444,-131.462 L 104.663,-131.518
 L 104.887,-131.546 L 105.113,-131.546 L 105.337,-131.518 L 105.556,-131.462 L 105.766,-131.379 L 105.964,-131.27
 L 106.147,-131.137 L 106.312,-130.982 L 106.456,-130.808 L 106.577,-130.617 L 106.674,-130.413 L 106.743,-130.198
 L 106.786,-129.976 L 106.8,-129.75 L 106.786,-129.524 L 106.743,-129.302 L 106.674,-129.087 L 106.577,-128.883
 L 106.456,-128.692 L 106.312,-128.518 L 106.147,-128.363 L 105.964,-128.23 L 105.766,-128.121 L 105.556,-128.038
 L 105.337,-127.982 L 105.113,-127.954 z
M 104.887,-120.454 L 104.663,-120.482 L 104.444,-120.538 L 104.234,-120.621 L 104.036,-120.73 L 103.853,-120.863
 L 103.688,-121.018 L 103.544,-121.192 L 103.423,-121.383 L 103.326,-121.587 L 103.257,-121.802 L 103.214,-122.024
 L 103.2,-122.25 L 103.214,-122.476 L 103.257,-122.698 L 103.326,-122.913 L 103.423,-123.117 L 103.544,-123.308
 L 103.688,-123.482 L 103.853,-123.637 L 104.036,-123.77 L 104.234,-123.879 L 104.444,-123.962 L 104.663,-124.018
 L 104.887,-124.046 L 105.113,-124.046 L 105.337,-124.018 L 105.556,-123.962 L 105.766,-123.879 L 105.964,-123.77
 L 106.147,-123.637 L 106.312,-123.482 L 106.456,-123.308 L 106.577,-123.117 L 106.674,-122.913 L 106.743,-122.698
 L 106.786,-122.476 L 106.8,-122.25 L 106.786,-122.024 L 106.743,-121.802 L 106.674,-121.587 L 106.577,-121.383
 L 106.456,-121.192 L 106.312,-121.018 L 106.147,-120.863 L 105.964,-120.73 L 105.766,-120.621 L 105.556,-120.538
 L 105.337,-120.482 L 105.113,-120.454 z
M -105.113,-120.454 L -105.337,-120.482 L -105.556,-120.538 L -105.766,-120.621 L -105.964,-120.73 L -106.147,-120.863
 L -106.312,-121.018 L -106.456,-121.192 L -106.577,-121.383 L -106.674,-121.587 L -106.743,-121.802 L -106.786,-122.024
 L -106.8,-122.25 L -106.786,-122.476 L -106.743,-122.698 L -106.674,-122.913 L -106.577,-123.117 L -106.456,-123.308
 L -106.312,-123.482 L -106.147,-123.637 L -105.964,-123.77 L -105.766,-123.879 L -105.556,-123.962 L -105.337,-124.018
 L -105.113,-124.046 L -104.887,-124.046 L -104.663,-124.018 L -104.444,-123.962 L -104.234,-123.879 L -104.036,-123.77
 L -103.853,-123.637 L -103.688,-123.482 L -103.544,-123.308 L -103.423,-123.117 L -103.326,-122.913 L -103.257,-122.698
 L -103.214,-122.476 L -103.2,-122.25 L -103.214,-122.024 L -103.257,-121.802 L -103.326,-121.587 L -103.423,-121.383
 L -103.544,-121.192 L -103.688,-121.018 L -103.853,-120.863 L -104.036,-120.73 L -104.234,-120.621 L -104.444,-120.538
 L -104.663,-120.482 L -104.887,-120.454 z
" stroke="black" fill="lightgray" stroke-width="0.5"/>
</svg>
