<?xml version="1.0" standalone="no"?>
<!DOCTYPE svg PUBLIC "-//W3C//DTD SVG 1.1//EN" "http://www.w3.org/Graphics/SVG/1.1/DTD/svg11.dtd">
<svg width="34mm" height="108mm" viewBox="-17 -54 34 108" xmlns="http://www.w3.org/2000/svg" version="1.1">
<title>OpenSCAD Model</title>
<path d="
M 0,53.25 L 2.03665,53.1219 L 4.0412,52.7395 L 5.98201,52.1089 L 7.82849,51.24 L 9.5515,50.1465
 L 11.1239,48.8457 L 12.5208,47.3581 L 13.7203,45.7072 L 14.7034,43.9189 L 15.4547,42.0215 L 15.9622,40.0449
 L 16.2179,38.0203 L 16.2179,-38.0203 L 15.9622,-40.0449 L 15.4547,-42.0215 L 14.7034,-43.9189 L 13.7203,-45.7072
 L 12.5208,-47.3581 L 11.1239,-48.8457 L 9.5515,-50.1465 L 7.82849,-51.24 L 5.98201,-52.1089 L 4.0412,-52.7395
 L 2.03665,-53.1219 L 0,-53.25 L -2.03665,-53.1219 L -4.0412,-52.7395 L -5.98201,-52.1089 L -7.82849,-51.24
 L -9.5515,-50.1465 L -11.1239,-48.8457 L -12.5208,-47.3581 L -13.7203,-45.7072 L -14.7034,-43.9189 L -15.4547,-42.0215
 L -15.9622,-40.0449 L -16.2179,-38.0203 L -16.2179,38.0203 L -15.9622,40.0449 L -15.4547,42.0215 L -14.7034,43.9189
 L -13.7203,45.7072 L -12.5208,47.3581 L -11.1239,48.8457 L -9.5515,50.1465 L -7.82849,51.24 L -5.98201,52.1089
 L -4.0412,52.7395 L -2.03665,53.1219 z
M 0,50.0667 L -1.82568,49.9518 L -3.62257,49.609 L -5.36234,49.0437 L -7.01753,48.2649 L -8.56206,47.2847
 L -9.97156,46.1186 L -11.2238,44.7851 L -12.299,43.3052 L -13.1803,41.7022 L -13.8537,40.0013 L -14.3086,38.2295
 L -14.5379,36.4146 L -14.5379,-36.4146 L -14.3086,-38.2295 L -13.8537,-40.0013 L -13.1803,-41.7022 L -12.299,-43.3052
 L -11.2238,-44.7851 L -9.97156,-46.1186 L -8.56206,-47.2847 L -7.01753,-48.2649 L -5.36234,-49.0437 L -3.62257,-49.609
 L -1.82568,-49.9518 L 0,-50.0667 L 1.82568,-49.9518 L 3.62257,-49.609 L 5.36234,-49.0437 L 7.01753,-48.2649
 L 8.56206,-47.2847 L 9.97156,-46.1186 L 11.2238,-44.7851 L 12.299,-43.3052 L 13.1803,-41.7022 L 13.8537,-40.0013
 L 14.3086,-38.2295 L 14.5379,-36.4146 L 14.5379,36.4146 L 14.3086,38.2295 L 13.8537,40.0013 L 13.1803,41.7022
 L 12.299,43.3052 L 11.2238,44.7851 L 9.97156,46.1186 L 8.56206,47.2847 L 7.01753,48.2649 L 5.36234,49.0437
 L 3.62257,49.609 L 1.82568,49.9518 z
" stroke="black" fill="lightgray" stroke-width="0.5"/>
</svg>
