  0
SECTION
  2
BLOCKS
  0
ENDSEC
  0
SECTION
  2
ENTITIES
  0
LINE
  8
0
 10
85.9369
 20
631.589
 11
86.5451
 21
631.745
  0
LINE
  8
0
 10
86.5451
 20
631.745
 11
87.1289
 21
631.976
  0
LINE
  8
0
 10
87.1289
 20
631.976
 11
87.6791
 21
632.278
  0
LINE
  8
0
 10
87.6791
 20
632.278
 11
88.1871
 21
632.647
  0
LINE
  8
0
 10
88.1871
 20
632.647
 11
88.6448
 21
633.077
  0
LINE
  8
0
 10
88.6448
 20
633.077
 11
89.0451
 21
633.561
  0
LINE
  8
0
 10
89.0451
 20
633.561
 11
89.3815
 21
634.091
  0
LINE
  8
0
 10
89.3815
 20
634.091
 11
89.6489
 21
634.659
  0
LINE
  8
0
 10
89.6489
 20
634.659
 11
89.8429
 21
635.257
  0
LINE
  8
0
 10
89.8429
 20
635.257
 11
89.9606
 21
635.873
  0
LINE
  8
0
 10
89.9606
 20
635.873
 11
90
 21
636.5
  0
LINE
  8
0
 10
90
 20
636.5
 11
90
 21
731.5
  0
LINE
  8
0
 10
90
 20
731.5
 11
89.9606
 21
732.127
  0
LINE
  8
0
 10
89.9606
 20
732.127
 11
89.8429
 21
732.743
  0
LINE
  8
0
 10
89.8429
 20
732.743
 11
89.6489
 21
733.341
  0
LINE
  8
0
 10
89.6489
 20
733.341
 11
89.3815
 21
733.909
  0
LINE
  8
0
 10
89.3815
 20
733.909
 11
89.0451
 21
734.439
  0
LINE
  8
0
 10
89.0451
 20
734.439
 11
88.6448
 21
734.923
  0
LINE
  8
0
 10
88.6448
 20
734.923
 11
88.1871
 21
735.353
  0
LINE
  8
0
 10
88.1871
 20
735.353
 11
87.6791
 21
735.722
  0
LINE
  8
0
 10
87.6791
 20
735.722
 11
87.1289
 21
736.024
  0
LINE
  8
0
 10
87.1289
 20
736.024
 11
86.5451
 21
736.255
  0
LINE
  8
0
 10
86.5451
 20
736.255
 11
85.9369
 21
736.411
  0
LINE
  8
0
 10
85.9369
 20
736.411
 11
85.3139
 21
736.49
  0
LINE
  8
0
 10
85.3139
 20
736.49
 11
-85.3139
 21
736.49
  0
LINE
  8
0
 10
-85.3139
 20
736.49
 11
-85.9369
 21
736.411
  0
LINE
  8
0
 10
-85.9369
 20
736.411
 11
-86.5451
 21
736.255
  0
LINE
  8
0
 10
-86.5451
 20
736.255
 11
-87.1289
 21
736.024
  0
LINE
  8
0
 10
-87.1289
 20
736.024
 11
-87.6791
 21
735.722
  0
LINE
  8
0
 10
-87.6791
 20
735.722
 11
-88.1871
 21
735.353
  0
LINE
  8
0
 10
-88.1871
 20
735.353
 11
-88.6448
 21
734.923
  0
LINE
  8
0
 10
-88.6448
 20
734.923
 11
-89.0451
 21
734.439
  0
LINE
  8
0
 10
-89.0451
 20
734.439
 11
-89.3815
 21
733.909
  0
LINE
  8
0
 10
-89.3815
 20
733.909
 11
-89.6489
 21
733.341
  0
LINE
  8
0
 10
-89.6489
 20
733.341
 11
-89.8429
 21
732.743
  0
LINE
  8
0
 10
-89.8429
 20
732.743
 11
-89.9606
 21
732.127
  0
LINE
  8
0
 10
-89.9606
 20
732.127
 11
-90
 21
731.5
  0
LINE
  8
0
 10
-90
 20
731.5
 11
-90
 21
636.5
  0
LINE
  8
0
 10
-90
 20
636.5
 11
-89.9606
 21
635.873
  0
LINE
  8
0
 10
-89.9606
 20
635.873
 11
-89.8429
 21
635.257
  0
LINE
  8
0
 10
-89.8429
 20
635.257
 11
-89.6489
 21
634.659
  0
LINE
  8
0
 10
-89.6489
 20
634.659
 11
-89.3815
 21
634.091
  0
LINE
  8
0
 10
-89.3815
 20
634.091
 11
-89.0451
 21
633.561
  0
LINE
  8
0
 10
-89.0451
 20
633.561
 11
-88.6448
 21
633.077
  0
LINE
  8
0
 10
-88.6448
 20
633.077
 11
-88.1871
 21
632.647
  0
LINE
  8
0
 10
-88.1871
 20
632.647
 11
-87.6791
 21
632.278
  0
LINE
  8
0
 10
-87.6791
 20
632.278
 11
-87.1289
 21
631.976
  0
LINE
  8
0
 10
-87.1289
 20
631.976
 11
-86.5451
 21
631.745
  0
LINE
  8
0
 10
-86.5451
 20
631.745
 11
-85.9369
 21
631.589
  0
LINE
  8
0
 10
-85.9369
 20
631.589
 11
-85.3139
 21
631.51
  0
LINE
  8
0
 10
-85.3139
 20
631.51
 11
85.3139
 21
631.51
  0
LINE
  8
0
 10
85.3139
 20
631.51
 11
85.9369
 21
631.589
  0
LINE
  8
0
 10
-85.0482
 20
632.009
 11
-85.6401
 21
632.084
  0
LINE
  8
0
 10
-85.6401
 20
632.084
 11
-86.2178
 21
632.232
  0
LINE
  8
0
 10
-86.2178
 20
632.232
 11
-86.7724
 21
632.452
  0
LINE
  8
0
 10
-86.7724
 20
632.452
 11
-87.2952
 21
632.739
  0
LINE
  8
0
 10
-87.2952
 20
632.739
 11
-87.7778
 21
633.09
  0
LINE
  8
0
 10
-87.7778
 20
633.09
 11
-88.2126
 21
633.498
  0
LINE
  8
0
 10
-88.2126
 20
633.498
 11
-88.5928
 21
633.958
  0
LINE
  8
0
 10
-88.5928
 20
633.958
 11
-88.9125
 21
634.462
  0
LINE
  8
0
 10
-88.9125
 20
634.462
 11
-89.1664
 21
635.001
  0
LINE
  8
0
 10
-89.1664
 20
635.001
 11
-89.3508
 21
635.569
  0
LINE
  8
0
 10
-89.3508
 20
635.569
 11
-89.4625
 21
636.155
  0
LINE
  8
0
 10
-89.4625
 20
636.155
 11
-89.5
 21
636.75
  0
LINE
  8
0
 10
-89.5
 20
636.75
 11
-89.5
 21
731.25
  0
LINE
  8
0
 10
-89.5
 20
731.25
 11
-89.4625
 21
731.845
  0
LINE
  8
0
 10
-89.4625
 20
731.845
 11
-89.3508
 21
732.431
  0
LINE
  8
0
 10
-89.3508
 20
732.431
 11
-89.1664
 21
732.999
  0
LINE
  8
0
 10
-89.1664
 20
732.999
 11
-88.9125
 21
733.538
  0
LINE
  8
0
 10
-88.9125
 20
733.538
 11
-88.5928
 21
734.042
  0
LINE
  8
0
 10
-88.5928
 20
734.042
 11
-88.2126
 21
734.502
  0
LINE
  8
0
 10
-88.2126
 20
734.502
 11
-87.7778
 21
734.91
  0
LINE
  8
0
 10
-87.7778
 20
734.91
 11
-87.2952
 21
735.261
  0
LINE
  8
0
 10
-87.2952
 20
735.261
 11
-86.7724
 21
735.548
  0
LINE
  8
0
 10
-86.7724
 20
735.548
 11
-86.2178
 21
735.768
  0
LINE
  8
0
 10
-86.2178
 20
735.768
 11
-85.6401
 21
735.916
  0
LINE
  8
0
 10
-85.6401
 20
735.916
 11
-85.0482
 21
735.991
  0
LINE
  8
0
 10
-85.0482
 20
735.991
 11
85.0482
 21
735.991
  0
LINE
  8
0
 10
85.0482
 20
735.991
 11
85.6401
 21
735.916
  0
LINE
  8
0
 10
85.6401
 20
735.916
 11
86.2178
 21
735.768
  0
LINE
  8
0
 10
86.2178
 20
735.768
 11
86.7724
 21
735.548
  0
LINE
  8
0
 10
86.7724
 20
735.548
 11
87.2952
 21
735.261
  0
LINE
  8
0
 10
87.2952
 20
735.261
 11
87.7778
 21
734.91
  0
LINE
  8
0
 10
87.7778
 20
734.91
 11
88.2126
 21
734.502
  0
LINE
  8
0
 10
88.2126
 20
734.502
 11
88.5928
 21
734.042
  0
LINE
  8
0
 10
88.5928
 20
734.042
 11
88.9125
 21
733.538
  0
LINE
  8
0
 10
88.9125
 20
733.538
 11
89.1664
 21
732.999
  0
LINE
  8
0
 10
89.1664
 20
732.999
 11
89.3508
 21
732.431
  0
LINE
  8
0
 10
89.3508
 20
732.431
 11
89.4625
 21
731.845
  0
LINE
  8
0
 10
89.4625
 20
731.845
 11
89.5
 21
731.25
  0
LINE
  8
0
 10
89.5
 20
731.25
 11
89.5
 21
636.75
  0
LINE
  8
0
 10
89.5
 20
636.75
 11
89.4625
 21
636.155
  0
LINE
  8
0
 10
89.4625
 20
636.155
 11
89.3508
 21
635.569
  0
LINE
  8
0
 10
89.3508
 20
635.569
 11
89.1664
 21
635.001
  0
LINE
  8
0
 10
89.1664
 20
635.001
 11
88.9125
 21
634.462
  0
LINE
  8
0
 10
88.9125
 20
634.462
 11
88.5928
 21
633.958
  0
LINE
  8
0
 10
88.5928
 20
633.958
 11
88.2126
 21
633.498
  0
LINE
  8
0
 10
88.2126
 20
633.498
 11
87.7778
 21
633.09
  0
LINE
  8
0
 10
87.7778
 20
633.09
 11
87.2952
 21
632.739
  0
LINE
  8
0
 10
87.2952
 20
632.739
 11
86.7724
 21
632.452
  0
LINE
  8
0
 10
86.7724
 20
632.452
 11
86.2178
 21
632.232
  0
LINE
  8
0
 10
86.2178
 20
632.232
 11
85.6401
 21
632.084
  0
LINE
  8
0
 10
85.6401
 20
632.084
 11
85.0482
 21
632.009
  0
LINE
  8
0
 10
85.0482
 20
632.009
 11
-85.0482
 21
632.009
  0
LINE
  8
0
 10
85.9369
 20
517.589
 11
86.5451
 21
517.745
  0
LINE
  8
0
 10
86.5451
 20
517.745
 11
87.1289
 21
517.976
  0
LINE
  8
0
 10
87.1289
 20
517.976
 11
87.6791
 21
518.278
  0
LINE
  8
0
 10
87.6791
 20
518.278
 11
88.1871
 21
518.647
  0
LINE
  8
0
 10
88.1871
 20
518.647
 11
88.6448
 21
519.077
  0
LINE
  8
0
 10
88.6448
 20
519.077
 11
89.0451
 21
519.561
  0
LINE
  8
0
 10
89.0451
 20
519.561
 11
89.3815
 21
520.091
  0
LINE
  8
0
 10
89.3815
 20
520.091
 11
89.6489
 21
520.659
  0
LINE
  8
0
 10
89.6489
 20
520.659
 11
89.8429
 21
521.257
  0
LINE
  8
0
 10
89.8429
 20
521.257
 11
89.9606
 21
521.873
  0
LINE
  8
0
 10
89.9606
 20
521.873
 11
90
 21
522.5
  0
LINE
  8
0
 10
90
 20
522.5
 11
90
 21
617.5
  0
LINE
  8
0
 10
90
 20
617.5
 11
89.9606
 21
618.127
  0
LINE
  8
0
 10
89.9606
 20
618.127
 11
89.8429
 21
618.743
  0
LINE
  8
0
 10
89.8429
 20
618.743
 11
89.6489
 21
619.341
  0
LINE
  8
0
 10
89.6489
 20
619.341
 11
89.3815
 21
619.909
  0
LINE
  8
0
 10
89.3815
 20
619.909
 11
89.0451
 21
620.439
  0
LINE
  8
0
 10
89.0451
 20
620.439
 11
88.6448
 21
620.923
  0
LINE
  8
0
 10
88.6448
 20
620.923
 11
88.1871
 21
621.353
  0
LINE
  8
0
 10
88.1871
 20
621.353
 11
87.6791
 21
621.722
  0
LINE
  8
0
 10
87.6791
 20
621.722
 11
87.1289
 21
622.024
  0
LINE
  8
0
 10
87.1289
 20
622.024
 11
86.5451
 21
622.255
  0
LINE
  8
0
 10
86.5451
 20
622.255
 11
85.9369
 21
622.411
  0
LINE
  8
0
 10
85.9369
 20
622.411
 11
85.3139
 21
622.49
  0
LINE
  8
0
 10
85.3139
 20
622.49
 11
-85.3139
 21
622.49
  0
LINE
  8
0
 10
-85.3139
 20
622.49
 11
-85.9369
 21
622.411
  0
LINE
  8
0
 10
-85.9369
 20
622.411
 11
-86.5451
 21
622.255
  0
LINE
  8
0
 10
-86.5451
 20
622.255
 11
-87.1289
 21
622.024
  0
LINE
  8
0
 10
-87.1289
 20
622.024
 11
-87.6791
 21
621.722
  0
LINE
  8
0
 10
-87.6791
 20
621.722
 11
-88.1871
 21
621.353
  0
LINE
  8
0
 10
-88.1871
 20
621.353
 11
-88.6448
 21
620.923
  0
LINE
  8
0
 10
-88.6448
 20
620.923
 11
-89.0451
 21
620.439
  0
LINE
  8
0
 10
-89.0451
 20
620.439
 11
-89.3815
 21
619.909
  0
LINE
  8
0
 10
-89.3815
 20
619.909
 11
-89.6489
 21
619.341
  0
LINE
  8
0
 10
-89.6489
 20
619.341
 11
-89.8429
 21
618.743
  0
LINE
  8
0
 10
-89.8429
 20
618.743
 11
-89.9606
 21
618.127
  0
LINE
  8
0
 10
-89.9606
 20
618.127
 11
-90
 21
617.5
  0
LINE
  8
0
 10
-90
 20
617.5
 11
-90
 21
522.5
  0
LINE
  8
0
 10
-90
 20
522.5
 11
-89.9606
 21
521.873
  0
LINE
  8
0
 10
-89.9606
 20
521.873
 11
-89.8429
 21
521.257
  0
LINE
  8
0
 10
-89.8429
 20
521.257
 11
-89.6489
 21
520.659
  0
LINE
  8
0
 10
-89.6489
 20
520.659
 11
-89.3815
 21
520.091
  0
LINE
  8
0
 10
-89.3815
 20
520.091
 11
-89.0451
 21
519.561
  0
LINE
  8
0
 10
-89.0451
 20
519.561
 11
-88.6448
 21
519.077
  0
LINE
  8
0
 10
-88.6448
 20
519.077
 11
-88.1871
 21
518.647
  0
LINE
  8
0
 10
-88.1871
 20
518.647
 11
-87.6791
 21
518.278
  0
LINE
  8
0
 10
-87.6791
 20
518.278
 11
-87.1289
 21
517.976
  0
LINE
  8
0
 10
-87.1289
 20
517.976
 11
-86.5451
 21
517.745
  0
LINE
  8
0
 10
-86.5451
 20
517.745
 11
-85.9369
 21
517.589
  0
LINE
  8
0
 10
-85.9369
 20
517.589
 11
-85.3139
 21
517.51
  0
LINE
  8
0
 10
-85.3139
 20
517.51
 11
85.3139
 21
517.51
  0
LINE
  8
0
 10
85.3139
 20
517.51
 11
85.9369
 21
517.589
  0
LINE
  8
0
 10
-85.0482
 20
518.009
 11
-85.6401
 21
518.084
  0
LINE
  8
0
 10
-85.6401
 20
518.084
 11
-86.2178
 21
518.232
  0
LINE
  8
0
 10
-86.2178
 20
518.232
 11
-86.7724
 21
518.452
  0
LINE
  8
0
 10
-86.7724
 20
518.452
 11
-87.2952
 21
518.739
  0
LINE
  8
0
 10
-87.2952
 20
518.739
 11
-87.7778
 21
519.09
  0
LINE
  8
0
 10
-87.7778
 20
519.09
 11
-88.2126
 21
519.498
  0
LINE
  8
0
 10
-88.2126
 20
519.498
 11
-88.5928
 21
519.958
  0
LINE
  8
0
 10
-88.5928
 20
519.958
 11
-88.9125
 21
520.462
  0
LINE
  8
0
 10
-88.9125
 20
520.462
 11
-89.1664
 21
521.001
  0
LINE
  8
0
 10
-89.1664
 20
521.001
 11
-89.3508
 21
521.569
  0
LINE
  8
0
 10
-89.3508
 20
521.569
 11
-89.4625
 21
522.155
  0
LINE
  8
0
 10
-89.4625
 20
522.155
 11
-89.5
 21
522.75
  0
LINE
  8
0
 10
-89.5
 20
522.75
 11
-89.5
 21
617.25
  0
LINE
  8
0
 10
-89.5
 20
617.25
 11
-89.4625
 21
617.845
  0
LINE
  8
0
 10
-89.4625
 20
617.845
 11
-89.3508
 21
618.431
  0
LINE
  8
0
 10
-89.3508
 20
618.431
 11
-89.1664
 21
618.999
  0
LINE
  8
0
 10
-89.1664
 20
618.999
 11
-88.9125
 21
619.538
  0
LINE
  8
0
 10
-88.9125
 20
619.538
 11
-88.5928
 21
620.042
  0
LINE
  8
0
 10
-88.5928
 20
620.042
 11
-88.2126
 21
620.502
  0
LINE
  8
0
 10
-88.2126
 20
620.502
 11
-87.7778
 21
620.91
  0
LINE
  8
0
 10
-87.7778
 20
620.91
 11
-87.2952
 21
621.261
  0
LINE
  8
0
 10
-87.2952
 20
621.261
 11
-86.7724
 21
621.548
  0
LINE
  8
0
 10
-86.7724
 20
621.548
 11
-86.2178
 21
621.768
  0
LINE
  8
0
 10
-86.2178
 20
621.768
 11
-85.6401
 21
621.916
  0
LINE
  8
0
 10
-85.6401
 20
621.916
 11
-85.0482
 21
621.991
  0
LINE
  8
0
 10
-85.0482
 20
621.991
 11
85.0482
 21
621.991
  0
LINE
  8
0
 10
85.0482
 20
621.991
 11
85.6401
 21
621.916
  0
LINE
  8
0
 10
85.6401
 20
621.916
 11
86.2178
 21
621.768
  0
LINE
  8
0
 10
86.2178
 20
621.768
 11
86.7724
 21
621.548
  0
LINE
  8
0
 10
86.7724
 20
621.548
 11
87.2952
 21
621.261
  0
LINE
  8
0
 10
87.2952
 20
621.261
 11
87.7778
 21
620.91
  0
LINE
  8
0
 10
87.7778
 20
620.91
 11
88.2126
 21
620.502
  0
LINE
  8
0
 10
88.2126
 20
620.502
 11
88.5928
 21
620.042
  0
LINE
  8
0
 10
88.5928
 20
620.042
 11
88.9125
 21
619.538
  0
LINE
  8
0
 10
88.9125
 20
619.538
 11
89.1664
 21
618.999
  0
LINE
  8
0
 10
89.1664
 20
618.999
 11
89.3508
 21
618.431
  0
LINE
  8
0
 10
89.3508
 20
618.431
 11
89.4625
 21
617.845
  0
LINE
  8
0
 10
89.4625
 20
617.845
 11
89.5
 21
617.25
  0
LINE
  8
0
 10
89.5
 20
617.25
 11
89.5
 21
522.75
  0
LINE
  8
0
 10
89.5
 20
522.75
 11
89.4625
 21
522.155
  0
LINE
  8
0
 10
89.4625
 20
522.155
 11
89.3508
 21
521.569
  0
LINE
  8
0
 10
89.3508
 20
521.569
 11
89.1664
 21
521.001
  0
LINE
  8
0
 10
89.1664
 20
521.001
 11
88.9125
 21
520.462
  0
LINE
  8
0
 10
88.9125
 20
520.462
 11
88.5928
 21
519.958
  0
LINE
  8
0
 10
88.5928
 20
519.958
 11
88.2126
 21
519.498
  0
LINE
  8
0
 10
88.2126
 20
519.498
 11
87.7778
 21
519.09
  0
LINE
  8
0
 10
87.7778
 20
519.09
 11
87.2952
 21
518.739
  0
LINE
  8
0
 10
87.2952
 20
518.739
 11
86.7724
 21
518.452
  0
LINE
  8
0
 10
86.7724
 20
518.452
 11
86.2178
 21
518.232
  0
LINE
  8
0
 10
86.2178
 20
518.232
 11
85.6401
 21
518.084
  0
LINE
  8
0
 10
85.6401
 20
518.084
 11
85.0482
 21
518.009
  0
LINE
  8
0
 10
85.0482
 20
518.009
 11
-85.0482
 21
518.009
  0
LINE
  8
0
 10
85.9369
 20
403.589
 11
86.5451
 21
403.745
  0
LINE
  8
0
 10
86.5451
 20
403.745
 11
87.1289
 21
403.976
  0
LINE
  8
0
 10
87.1289
 20
403.976
 11
87.6791
 21
404.278
  0
LINE
  8
0
 10
87.6791
 20
404.278
 11
88.1871
 21
404.647
  0
LINE
  8
0
 10
88.1871
 20
404.647
 11
88.6448
 21
405.077
  0
LINE
  8
0
 10
88.6448
 20
405.077
 11
89.0451
 21
405.561
  0
LINE
  8
0
 10
89.0451
 20
405.561
 11
89.3815
 21
406.091
  0
LINE
  8
0
 10
89.3815
 20
406.091
 11
89.6489
 21
406.659
  0
LINE
  8
0
 10
89.6489
 20
406.659
 11
89.8429
 21
407.257
  0
LINE
  8
0
 10
89.8429
 20
407.257
 11
89.9606
 21
407.873
  0
LINE
  8
0
 10
89.9606
 20
407.873
 11
90
 21
408.5
  0
LINE
  8
0
 10
90
 20
408.5
 11
90
 21
503.5
  0
LINE
  8
0
 10
90
 20
503.5
 11
89.9606
 21
504.127
  0
LINE
  8
0
 10
89.9606
 20
504.127
 11
89.8429
 21
504.743
  0
LINE
  8
0
 10
89.8429
 20
504.743
 11
89.6489
 21
505.341
  0
LINE
  8
0
 10
89.6489
 20
505.341
 11
89.3815
 21
505.909
  0
LINE
  8
0
 10
89.3815
 20
505.909
 11
89.0451
 21
506.439
  0
LINE
  8
0
 10
89.0451
 20
506.439
 11
88.6448
 21
506.923
  0
LINE
  8
0
 10
88.6448
 20
506.923
 11
88.1871
 21
507.353
  0
LINE
  8
0
 10
88.1871
 20
507.353
 11
87.6791
 21
507.722
  0
LINE
  8
0
 10
87.6791
 20
507.722
 11
87.1289
 21
508.024
  0
LINE
  8
0
 10
87.1289
 20
508.024
 11
86.5451
 21
508.255
  0
LINE
  8
0
 10
86.5451
 20
508.255
 11
85.9369
 21
508.411
  0
LINE
  8
0
 10
85.9369
 20
508.411
 11
85.3139
 21
508.49
  0
LINE
  8
0
 10
85.3139
 20
508.49
 11
-85.3139
 21
508.49
  0
LINE
  8
0
 10
-85.3139
 20
508.49
 11
-85.9369
 21
508.411
  0
LINE
  8
0
 10
-85.9369
 20
508.411
 11
-86.5451
 21
508.255
  0
LINE
  8
0
 10
-86.5451
 20
508.255
 11
-87.1289
 21
508.024
  0
LINE
  8
0
 10
-87.1289
 20
508.024
 11
-87.6791
 21
507.722
  0
LINE
  8
0
 10
-87.6791
 20
507.722
 11
-88.1871
 21
507.353
  0
LINE
  8
0
 10
-88.1871
 20
507.353
 11
-88.6448
 21
506.923
  0
LINE
  8
0
 10
-88.6448
 20
506.923
 11
-89.0451
 21
506.439
  0
LINE
  8
0
 10
-89.0451
 20
506.439
 11
-89.3815
 21
505.909
  0
LINE
  8
0
 10
-89.3815
 20
505.909
 11
-89.6489
 21
505.341
  0
LINE
  8
0
 10
-89.6489
 20
505.341
 11
-89.8429
 21
504.743
  0
LINE
  8
0
 10
-89.8429
 20
504.743
 11
-89.9606
 21
504.127
  0
LINE
  8
0
 10
-89.9606
 20
504.127
 11
-90
 21
503.5
  0
LINE
  8
0
 10
-90
 20
503.5
 11
-90
 21
408.5
  0
LINE
  8
0
 10
-90
 20
408.5
 11
-89.9606
 21
407.873
  0
LINE
  8
0
 10
-89.9606
 20
407.873
 11
-89.8429
 21
407.257
  0
LINE
  8
0
 10
-89.8429
 20
407.257
 11
-89.6489
 21
406.659
  0
LINE
  8
0
 10
-89.6489
 20
406.659
 11
-89.3815
 21
406.091
  0
LINE
  8
0
 10
-89.3815
 20
406.091
 11
-89.0451
 21
405.561
  0
LINE
  8
0
 10
-89.0451
 20
405.561
 11
-88.6448
 21
405.077
  0
LINE
  8
0
 10
-88.6448
 20
405.077
 11
-88.1871
 21
404.647
  0
LINE
  8
0
 10
-88.1871
 20
404.647
 11
-87.6791
 21
404.278
  0
LINE
  8
0
 10
-87.6791
 20
404.278
 11
-87.1289
 21
403.976
  0
LINE
  8
0
 10
-87.1289
 20
403.976
 11
-86.5451
 21
403.745
  0
LINE
  8
0
 10
-86.5451
 20
403.745
 11
-85.9369
 21
403.589
  0
LINE
  8
0
 10
-85.9369
 20
403.589
 11
-85.3139
 21
403.51
  0
LINE
  8
0
 10
-85.3139
 20
403.51
 11
85.3139
 21
403.51
  0
LINE
  8
0
 10
85.3139
 20
403.51
 11
85.9369
 21
403.589
  0
LINE
  8
0
 10
-84.993
 20
404.888
 11
-85.4751
 21
404.949
  0
LINE
  8
0
 10
-85.4751
 20
404.949
 11
-85.9457
 21
405.07
  0
LINE
  8
0
 10
-85.9457
 20
405.07
 11
-86.3975
 21
405.249
  0
LINE
  8
0
 10
-86.3975
 20
405.249
 11
-86.8234
 21
405.483
  0
LINE
  8
0
 10
-86.8234
 20
405.483
 11
-87.2165
 21
405.769
  0
LINE
  8
0
 10
-87.2165
 20
405.769
 11
-87.5707
 21
406.101
  0
LINE
  8
0
 10
-87.5707
 20
406.101
 11
-87.8805
 21
406.476
  0
LINE
  8
0
 10
-87.8805
 20
406.476
 11
-88.1408
 21
406.886
  0
LINE
  8
0
 10
-88.1408
 20
406.886
 11
-88.3477
 21
407.326
  0
LINE
  8
0
 10
-88.3477
 20
407.326
 11
-88.4979
 21
407.788
  0
LINE
  8
0
 10
-88.4979
 20
407.788
 11
-88.589
 21
408.265
  0
LINE
  8
0
 10
-88.589
 20
408.265
 11
-88.6195
 21
408.75
  0
LINE
  8
0
 10
-88.6195
 20
408.75
 11
-88.6195
 21
503.25
  0
LINE
  8
0
 10
-88.6195
 20
503.25
 11
-88.589
 21
503.735
  0
LINE
  8
0
 10
-88.589
 20
503.735
 11
-88.4979
 21
504.212
  0
LINE
  8
0
 10
-88.4979
 20
504.212
 11
-88.3477
 21
504.674
  0
LINE
  8
0
 10
-88.3477
 20
504.674
 11
-88.1408
 21
505.114
  0
LINE
  8
0
 10
-88.1408
 20
505.114
 11
-87.8805
 21
505.524
  0
LINE
  8
0
 10
-87.8805
 20
505.524
 11
-87.5707
 21
505.899
  0
LINE
  8
0
 10
-87.5707
 20
505.899
 11
-87.2165
 21
506.231
  0
LINE
  8
0
 10
-87.2165
 20
506.231
 11
-86.8234
 21
506.517
  0
LINE
  8
0
 10
-86.8234
 20
506.517
 11
-86.3975
 21
506.751
  0
LINE
  8
0
 10
-86.3975
 20
506.751
 11
-85.9457
 21
506.93
  0
LINE
  8
0
 10
-85.9457
 20
506.93
 11
-85.4751
 21
507.051
  0
LINE
  8
0
 10
-85.4751
 20
507.051
 11
-84.993
 21
507.112
  0
LINE
  8
0
 10
-84.993
 20
507.112
 11
84.993
 21
507.112
  0
LINE
  8
0
 10
84.993
 20
507.112
 11
85.4751
 21
507.051
  0
LINE
  8
0
 10
85.4751
 20
507.051
 11
85.9457
 21
506.93
  0
LINE
  8
0
 10
85.9457
 20
506.93
 11
86.3975
 21
506.751
  0
LINE
  8
0
 10
86.3975
 20
506.751
 11
86.8234
 21
506.517
  0
LINE
  8
0
 10
86.8234
 20
506.517
 11
87.2165
 21
506.231
  0
LINE
  8
0
 10
87.2165
 20
506.231
 11
87.5707
 21
505.899
  0
LINE
  8
0
 10
87.5707
 20
505.899
 11
87.8805
 21
505.524
  0
LINE
  8
0
 10
87.8805
 20
505.524
 11
88.1408
 21
505.114
  0
LINE
  8
0
 10
88.1408
 20
505.114
 11
88.3477
 21
504.674
  0
LINE
  8
0
 10
88.3477
 20
504.674
 11
88.4979
 21
504.212
  0
LINE
  8
0
 10
88.4979
 20
504.212
 11
88.589
 21
503.735
  0
LINE
  8
0
 10
88.589
 20
503.735
 11
88.6195
 21
503.25
  0
LINE
  8
0
 10
88.6195
 20
503.25
 11
88.6195
 21
408.75
  0
LINE
  8
0
 10
88.6195
 20
408.75
 11
88.589
 21
408.265
  0
LINE
  8
0
 10
88.589
 20
408.265
 11
88.4979
 21
407.788
  0
LINE
  8
0
 10
88.4979
 20
407.788
 11
88.3477
 21
407.326
  0
LINE
  8
0
 10
88.3477
 20
407.326
 11
88.1408
 21
406.886
  0
LINE
  8
0
 10
88.1408
 20
406.886
 11
87.8805
 21
406.476
  0
LINE
  8
0
 10
87.8805
 20
406.476
 11
87.5707
 21
406.101
  0
LINE
  8
0
 10
87.5707
 20
406.101
 11
87.2165
 21
405.769
  0
LINE
  8
0
 10
87.2165
 20
405.769
 11
86.8234
 21
405.483
  0
LINE
  8
0
 10
86.8234
 20
405.483
 11
86.3975
 21
405.249
  0
LINE
  8
0
 10
86.3975
 20
405.249
 11
85.9457
 21
405.07
  0
LINE
  8
0
 10
85.9457
 20
405.07
 11
85.4751
 21
404.949
  0
LINE
  8
0
 10
85.4751
 20
404.949
 11
84.993
 21
404.888
  0
LINE
  8
0
 10
84.993
 20
404.888
 11
-84.993
 21
404.888
  0
LINE
  8
0
 10
85.9369
 20
289.589
 11
86.5451
 21
289.745
  0
LINE
  8
0
 10
86.5451
 20
289.745
 11
87.1289
 21
289.976
  0
LINE
  8
0
 10
87.1289
 20
289.976
 11
87.6791
 21
290.278
  0
LINE
  8
0
 10
87.6791
 20
290.278
 11
88.1871
 21
290.647
  0
LINE
  8
0
 10
88.1871
 20
290.647
 11
88.6448
 21
291.077
  0
LINE
  8
0
 10
88.6448
 20
291.077
 11
89.0451
 21
291.561
  0
LINE
  8
0
 10
89.0451
 20
291.561
 11
89.3815
 21
292.091
  0
LINE
  8
0
 10
89.3815
 20
292.091
 11
89.6489
 21
292.659
  0
LINE
  8
0
 10
89.6489
 20
292.659
 11
89.8429
 21
293.257
  0
LINE
  8
0
 10
89.8429
 20
293.257
 11
89.9606
 21
293.873
  0
LINE
  8
0
 10
89.9606
 20
293.873
 11
90
 21
294.5
  0
LINE
  8
0
 10
90
 20
294.5
 11
90
 21
389.5
  0
LINE
  8
0
 10
90
 20
389.5
 11
89.9606
 21
390.127
  0
LINE
  8
0
 10
89.9606
 20
390.127
 11
89.8429
 21
390.743
  0
LINE
  8
0
 10
89.8429
 20
390.743
 11
89.6489
 21
391.341
  0
LINE
  8
0
 10
89.6489
 20
391.341
 11
89.3815
 21
391.909
  0
LINE
  8
0
 10
89.3815
 20
391.909
 11
89.0451
 21
392.439
  0
LINE
  8
0
 10
89.0451
 20
392.439
 11
88.6448
 21
392.923
  0
LINE
  8
0
 10
88.6448
 20
392.923
 11
88.1871
 21
393.353
  0
LINE
  8
0
 10
88.1871
 20
393.353
 11
87.6791
 21
393.722
  0
LINE
  8
0
 10
87.6791
 20
393.722
 11
87.1289
 21
394.024
  0
LINE
  8
0
 10
87.1289
 20
394.024
 11
86.5451
 21
394.255
  0
LINE
  8
0
 10
86.5451
 20
394.255
 11
85.9369
 21
394.411
  0
LINE
  8
0
 10
85.9369
 20
394.411
 11
85.3139
 21
394.49
  0
LINE
  8
0
 10
85.3139
 20
394.49
 11
-85.3139
 21
394.49
  0
LINE
  8
0
 10
-85.3139
 20
394.49
 11
-85.9369
 21
394.411
  0
LINE
  8
0
 10
-85.9369
 20
394.411
 11
-86.5451
 21
394.255
  0
LINE
  8
0
 10
-86.5451
 20
394.255
 11
-87.1289
 21
394.024
  0
LINE
  8
0
 10
-87.1289
 20
394.024
 11
-87.6791
 21
393.722
  0
LINE
  8
0
 10
-87.6791
 20
393.722
 11
-88.1871
 21
393.353
  0
LINE
  8
0
 10
-88.1871
 20
393.353
 11
-88.6448
 21
392.923
  0
LINE
  8
0
 10
-88.6448
 20
392.923
 11
-89.0451
 21
392.439
  0
LINE
  8
0
 10
-89.0451
 20
392.439
 11
-89.3815
 21
391.909
  0
LINE
  8
0
 10
-89.3815
 20
391.909
 11
-89.6489
 21
391.341
  0
LINE
  8
0
 10
-89.6489
 20
391.341
 11
-89.8429
 21
390.743
  0
LINE
  8
0
 10
-89.8429
 20
390.743
 11
-89.9606
 21
390.127
  0
LINE
  8
0
 10
-89.9606
 20
390.127
 11
-90
 21
389.5
  0
LINE
  8
0
 10
-90
 20
389.5
 11
-90
 21
294.5
  0
LINE
  8
0
 10
-90
 20
294.5
 11
-89.9606
 21
293.873
  0
LINE
  8
0
 10
-89.9606
 20
293.873
 11
-89.8429
 21
293.257
  0
LINE
  8
0
 10
-89.8429
 20
293.257
 11
-89.6489
 21
292.659
  0
LINE
  8
0
 10
-89.6489
 20
292.659
 11
-89.3815
 21
292.091
  0
LINE
  8
0
 10
-89.3815
 20
292.091
 11
-89.0451
 21
291.561
  0
LINE
  8
0
 10
-89.0451
 20
291.561
 11
-88.6448
 21
291.077
  0
LINE
  8
0
 10
-88.6448
 20
291.077
 11
-88.1871
 21
290.647
  0
LINE
  8
0
 10
-88.1871
 20
290.647
 11
-87.6791
 21
290.278
  0
LINE
  8
0
 10
-87.6791
 20
290.278
 11
-87.1289
 21
289.976
  0
LINE
  8
0
 10
-87.1289
 20
289.976
 11
-86.5451
 21
289.745
  0
LINE
  8
0
 10
-86.5451
 20
289.745
 11
-85.9369
 21
289.589
  0
LINE
  8
0
 10
-85.9369
 20
289.589
 11
-85.3139
 21
289.51
  0
LINE
  8
0
 10
-85.3139
 20
289.51
 11
85.3139
 21
289.51
  0
LINE
  8
0
 10
85.3139
 20
289.51
 11
85.9369
 21
289.589
  0
LINE
  8
0
 10
82.387
 20
385.204
 11
82.1627
 21
385.232
  0
LINE
  8
0
 10
82.1627
 20
385.232
 11
81.9438
 21
385.288
  0
LINE
  8
0
 10
81.9438
 20
385.288
 11
81.7336
 21
385.371
  0
LINE
  8
0
 10
81.7336
 20
385.371
 11
81.5355
 21
385.48
  0
LINE
  8
0
 10
81.5355
 20
385.48
 11
81.3526
 21
385.613
  0
LINE
  8
0
 10
81.3526
 20
385.613
 11
81.1879
 21
385.768
  0
LINE
  8
0
 10
81.1879
 20
385.768
 11
81.0438
 21
385.942
  0
LINE
  8
0
 10
81.0438
 20
385.942
 11
80.9226
 21
386.133
  0
LINE
  8
0
 10
80.9226
 20
386.133
 11
80.8264
 21
386.337
  0
LINE
  8
0
 10
80.8264
 20
386.337
 11
80.7565
 21
386.552
  0
LINE
  8
0
 10
80.7565
 20
386.552
 11
80.7142
 21
386.774
  0
LINE
  8
0
 10
80.7142
 20
386.774
 11
80.7
 21
387
  0
LINE
  8
0
 10
80.7
 20
387
 11
80.7142
 21
387.226
  0
LINE
  8
0
 10
80.7142
 20
387.226
 11
80.7565
 21
387.448
  0
LINE
  8
0
 10
80.7565
 20
387.448
 11
80.8264
 21
387.663
  0
LINE
  8
0
 10
80.8264
 20
387.663
 11
80.9226
 21
387.867
  0
LINE
  8
0
 10
80.9226
 20
387.867
 11
81.0438
 21
388.058
  0
LINE
  8
0
 10
81.0438
 20
388.058
 11
81.1879
 21
388.232
  0
LINE
  8
0
 10
81.1879
 20
388.232
 11
81.3526
 21
388.387
  0
LINE
  8
0
 10
81.3526
 20
388.387
 11
81.5355
 21
388.52
  0
LINE
  8
0
 10
81.5355
 20
388.52
 11
81.7336
 21
388.629
  0
LINE
  8
0
 10
81.7336
 20
388.629
 11
81.9438
 21
388.712
  0
LINE
  8
0
 10
81.9438
 20
388.712
 11
82.1627
 21
388.768
  0
LINE
  8
0
 10
82.1627
 20
388.768
 11
82.387
 21
388.796
  0
LINE
  8
0
 10
82.387
 20
388.796
 11
82.613
 21
388.796
  0
LINE
  8
0
 10
82.613
 20
388.796
 11
82.8373
 21
388.768
  0
LINE
  8
0
 10
82.8373
 20
388.768
 11
83.0562
 21
388.712
  0
LINE
  8
0
 10
83.0562
 20
388.712
 11
83.2664
 21
388.629
  0
LINE
  8
0
 10
83.2664
 20
388.629
 11
83.4645
 21
388.52
  0
LINE
  8
0
 10
83.4645
 20
388.52
 11
83.6474
 21
388.387
  0
LINE
  8
0
 10
83.6474
 20
388.387
 11
83.8121
 21
388.232
  0
LINE
  8
0
 10
83.8121
 20
388.232
 11
83.9562
 21
388.058
  0
LINE
  8
0
 10
83.9562
 20
388.058
 11
84.0773
 21
387.867
  0
LINE
  8
0
 10
84.0773
 20
387.867
 11
84.1736
 21
387.663
  0
LINE
  8
0
 10
84.1736
 20
387.663
 11
84.2434
 21
387.448
  0
LINE
  8
0
 10
84.2434
 20
387.448
 11
84.2858
 21
387.226
  0
LINE
  8
0
 10
84.2858
 20
387.226
 11
84.3
 21
387
  0
LINE
  8
0
 10
84.3
 20
387
 11
84.2858
 21
386.774
  0
LINE
  8
0
 10
84.2858
 20
386.774
 11
84.2434
 21
386.552
  0
LINE
  8
0
 10
84.2434
 20
386.552
 11
84.1736
 21
386.337
  0
LINE
  8
0
 10
84.1736
 20
386.337
 11
84.0773
 21
386.133
  0
LINE
  8
0
 10
84.0773
 20
386.133
 11
83.9562
 21
385.942
  0
LINE
  8
0
 10
83.9562
 20
385.942
 11
83.8121
 21
385.768
  0
LINE
  8
0
 10
83.8121
 20
385.768
 11
83.6474
 21
385.613
  0
LINE
  8
0
 10
83.6474
 20
385.613
 11
83.4645
 21
385.48
  0
LINE
  8
0
 10
83.4645
 20
385.48
 11
83.2664
 21
385.371
  0
LINE
  8
0
 10
83.2664
 20
385.371
 11
83.0562
 21
385.288
  0
LINE
  8
0
 10
83.0562
 20
385.288
 11
82.8373
 21
385.232
  0
LINE
  8
0
 10
82.8373
 20
385.232
 11
82.613
 21
385.204
  0
LINE
  8
0
 10
82.613
 20
385.204
 11
82.387
 21
385.204
  0
LINE
  8
0
 10
-82.613
 20
385.204
 11
-82.8373
 21
385.232
  0
LINE
  8
0
 10
-82.8373
 20
385.232
 11
-83.0562
 21
385.288
  0
LINE
  8
0
 10
-83.0562
 20
385.288
 11
-83.2664
 21
385.371
  0
LINE
  8
0
 10
-83.2664
 20
385.371
 11
-83.4645
 21
385.48
  0
LINE
  8
0
 10
-83.4645
 20
385.48
 11
-83.6474
 21
385.613
  0
LINE
  8
0
 10
-83.6474
 20
385.613
 11
-83.8121
 21
385.768
  0
LINE
  8
0
 10
-83.8121
 20
385.768
 11
-83.9562
 21
385.942
  0
LINE
  8
0
 10
-83.9562
 20
385.942
 11
-84.0773
 21
386.133
  0
LINE
  8
0
 10
-84.0773
 20
386.133
 11
-84.1736
 21
386.337
  0
LINE
  8
0
 10
-84.1736
 20
386.337
 11
-84.2434
 21
386.552
  0
LINE
  8
0
 10
-84.2434
 20
386.552
 11
-84.2858
 21
386.774
  0
LINE
  8
0
 10
-84.2858
 20
386.774
 11
-84.3
 21
387
  0
LINE
  8
0
 10
-84.3
 20
387
 11
-84.2858
 21
387.226
  0
LINE
  8
0
 10
-84.2858
 20
387.226
 11
-84.2434
 21
387.448
  0
LINE
  8
0
 10
-84.2434
 20
387.448
 11
-84.1736
 21
387.663
  0
LINE
  8
0
 10
-84.1736
 20
387.663
 11
-84.0773
 21
387.867
  0
LINE
  8
0
 10
-84.0773
 20
387.867
 11
-83.9562
 21
388.058
  0
LINE
  8
0
 10
-83.9562
 20
388.058
 11
-83.8121
 21
388.232
  0
LINE
  8
0
 10
-83.8121
 20
388.232
 11
-83.6474
 21
388.387
  0
LINE
  8
0
 10
-83.6474
 20
388.387
 11
-83.4645
 21
388.52
  0
LINE
  8
0
 10
-83.4645
 20
388.52
 11
-83.2664
 21
388.629
  0
LINE
  8
0
 10
-83.2664
 20
388.629
 11
-83.0562
 21
388.712
  0
LINE
  8
0
 10
-83.0562
 20
388.712
 11
-82.8373
 21
388.768
  0
LINE
  8
0
 10
-82.8373
 20
388.768
 11
-82.613
 21
388.796
  0
LINE
  8
0
 10
-82.613
 20
388.796
 11
-82.387
 21
388.796
  0
LINE
  8
0
 10
-82.387
 20
388.796
 11
-82.1627
 21
388.768
  0
LINE
  8
0
 10
-82.1627
 20
388.768
 11
-81.9438
 21
388.712
  0
LINE
  8
0
 10
-81.9438
 20
388.712
 11
-81.7336
 21
388.629
  0
LINE
  8
0
 10
-81.7336
 20
388.629
 11
-81.5355
 21
388.52
  0
LINE
  8
0
 10
-81.5355
 20
388.52
 11
-81.3526
 21
388.387
  0
LINE
  8
0
 10
-81.3526
 20
388.387
 11
-81.1879
 21
388.232
  0
LINE
  8
0
 10
-81.1879
 20
388.232
 11
-81.0438
 21
388.058
  0
LINE
  8
0
 10
-81.0438
 20
388.058
 11
-80.9226
 21
387.867
  0
LINE
  8
0
 10
-80.9226
 20
387.867
 11
-80.8264
 21
387.663
  0
LINE
  8
0
 10
-80.8264
 20
387.663
 11
-80.7565
 21
387.448
  0
LINE
  8
0
 10
-80.7565
 20
387.448
 11
-80.7142
 21
387.226
  0
LINE
  8
0
 10
-80.7142
 20
387.226
 11
-80.7
 21
387
  0
LINE
  8
0
 10
-80.7
 20
387
 11
-80.7142
 21
386.774
  0
LINE
  8
0
 10
-80.7142
 20
386.774
 11
-80.7565
 21
386.552
  0
LINE
  8
0
 10
-80.7565
 20
386.552
 11
-80.8264
 21
386.337
  0
LINE
  8
0
 10
-80.8264
 20
386.337
 11
-80.9226
 21
386.133
  0
LINE
  8
0
 10
-80.9226
 20
386.133
 11
-81.0438
 21
385.942
  0
LINE
  8
0
 10
-81.0438
 20
385.942
 11
-81.1879
 21
385.768
  0
LINE
  8
0
 10
-81.1879
 20
385.768
 11
-81.3526
 21
385.613
  0
LINE
  8
0
 10
-81.3526
 20
385.613
 11
-81.5355
 21
385.48
  0
LINE
  8
0
 10
-81.5355
 20
385.48
 11
-81.7336
 21
385.371
  0
LINE
  8
0
 10
-81.7336
 20
385.371
 11
-81.9438
 21
385.288
  0
LINE
  8
0
 10
-81.9438
 20
385.288
 11
-82.1627
 21
385.232
  0
LINE
  8
0
 10
-82.1627
 20
385.232
 11
-82.387
 21
385.204
  0
LINE
  8
0
 10
-82.387
 20
385.204
 11
-82.613
 21
385.204
  0
LINE
  8
0
 10
-82.613
 20
295.204
 11
-82.8373
 21
295.232
  0
LINE
  8
0
 10
-82.8373
 20
295.232
 11
-83.0562
 21
295.288
  0
LINE
  8
0
 10
-83.0562
 20
295.288
 11
-83.2664
 21
295.371
  0
LINE
  8
0
 10
-83.2664
 20
295.371
 11
-83.4645
 21
295.48
  0
LINE
  8
0
 10
-83.4645
 20
295.48
 11
-83.6474
 21
295.613
  0
LINE
  8
0
 10
-83.6474
 20
295.613
 11
-83.8121
 21
295.768
  0
LINE
  8
0
 10
-83.8121
 20
295.768
 11
-83.9562
 21
295.942
  0
LINE
  8
0
 10
-83.9562
 20
295.942
 11
-84.0773
 21
296.133
  0
LINE
  8
0
 10
-84.0773
 20
296.133
 11
-84.1736
 21
296.337
  0
LINE
  8
0
 10
-84.1736
 20
296.337
 11
-84.2434
 21
296.552
  0
LINE
  8
0
 10
-84.2434
 20
296.552
 11
-84.2858
 21
296.774
  0
LINE
  8
0
 10
-84.2858
 20
296.774
 11
-84.3
 21
297
  0
LINE
  8
0
 10
-84.3
 20
297
 11
-84.2858
 21
297.226
  0
LINE
  8
0
 10
-84.2858
 20
297.226
 11
-84.2434
 21
297.448
  0
LINE
  8
0
 10
-84.2434
 20
297.448
 11
-84.1736
 21
297.663
  0
LINE
  8
0
 10
-84.1736
 20
297.663
 11
-84.0773
 21
297.867
  0
LINE
  8
0
 10
-84.0773
 20
297.867
 11
-83.9562
 21
298.058
  0
LINE
  8
0
 10
-83.9562
 20
298.058
 11
-83.8121
 21
298.232
  0
LINE
  8
0
 10
-83.8121
 20
298.232
 11
-83.6474
 21
298.387
  0
LINE
  8
0
 10
-83.6474
 20
298.387
 11
-83.4645
 21
298.52
  0
LINE
  8
0
 10
-83.4645
 20
298.52
 11
-83.2664
 21
298.629
  0
LINE
  8
0
 10
-83.2664
 20
298.629
 11
-83.0562
 21
298.712
  0
LINE
  8
0
 10
-83.0562
 20
298.712
 11
-82.8373
 21
298.768
  0
LINE
  8
0
 10
-82.8373
 20
298.768
 11
-82.613
 21
298.796
  0
LINE
  8
0
 10
-82.613
 20
298.796
 11
-82.387
 21
298.796
  0
LINE
  8
0
 10
-82.387
 20
298.796
 11
-82.1627
 21
298.768
  0
LINE
  8
0
 10
-82.1627
 20
298.768
 11
-81.9438
 21
298.712
  0
LINE
  8
0
 10
-81.9438
 20
298.712
 11
-81.7336
 21
298.629
  0
LINE
  8
0
 10
-81.7336
 20
298.629
 11
-81.5355
 21
298.52
  0
LINE
  8
0
 10
-81.5355
 20
298.52
 11
-81.3526
 21
298.387
  0
LINE
  8
0
 10
-81.3526
 20
298.387
 11
-81.1879
 21
298.232
  0
LINE
  8
0
 10
-81.1879
 20
298.232
 11
-81.0438
 21
298.058
  0
LINE
  8
0
 10
-81.0438
 20
298.058
 11
-80.9226
 21
297.867
  0
LINE
  8
0
 10
-80.9226
 20
297.867
 11
-80.8264
 21
297.663
  0
LINE
  8
0
 10
-80.8264
 20
297.663
 11
-80.7565
 21
297.448
  0
LINE
  8
0
 10
-80.7565
 20
297.448
 11
-80.7142
 21
297.226
  0
LINE
  8
0
 10
-80.7142
 20
297.226
 11
-80.7
 21
297
  0
LINE
  8
0
 10
-80.7
 20
297
 11
-80.7142
 21
296.774
  0
LINE
  8
0
 10
-80.7142
 20
296.774
 11
-80.7565
 21
296.552
  0
LINE
  8
0
 10
-80.7565
 20
296.552
 11
-80.8264
 21
296.337
  0
LINE
  8
0
 10
-80.8264
 20
296.337
 11
-80.9226
 21
296.133
  0
LINE
  8
0
 10
-80.9226
 20
296.133
 11
-81.0438
 21
295.942
  0
LINE
  8
0
 10
-81.0438
 20
295.942
 11
-81.1879
 21
295.768
  0
LINE
  8
0
 10
-81.1879
 20
295.768
 11
-81.3526
 21
295.613
  0
LINE
  8
0
 10
-81.3526
 20
295.613
 11
-81.5355
 21
295.48
  0
LINE
  8
0
 10
-81.5355
 20
295.48
 11
-81.7336
 21
295.371
  0
LINE
  8
0
 10
-81.7336
 20
295.371
 11
-81.9438
 21
295.288
  0
LINE
  8
0
 10
-81.9438
 20
295.288
 11
-82.1627
 21
295.232
  0
LINE
  8
0
 10
-82.1627
 20
295.232
 11
-82.387
 21
295.204
  0
LINE
  8
0
 10
-82.387
 20
295.204
 11
-82.613
 21
295.204
  0
LINE
  8
0
 10
82.387
 20
295.204
 11
82.1627
 21
295.232
  0
LINE
  8
0
 10
82.1627
 20
295.232
 11
81.9438
 21
295.288
  0
LINE
  8
0
 10
81.9438
 20
295.288
 11
81.7336
 21
295.371
  0
LINE
  8
0
 10
81.7336
 20
295.371
 11
81.5355
 21
295.48
  0
LINE
  8
0
 10
81.5355
 20
295.48
 11
81.3526
 21
295.613
  0
LINE
  8
0
 10
81.3526
 20
295.613
 11
81.1879
 21
295.768
  0
LINE
  8
0
 10
81.1879
 20
295.768
 11
81.0438
 21
295.942
  0
LINE
  8
0
 10
81.0438
 20
295.942
 11
80.9226
 21
296.133
  0
LINE
  8
0
 10
80.9226
 20
296.133
 11
80.8264
 21
296.337
  0
LINE
  8
0
 10
80.8264
 20
296.337
 11
80.7565
 21
296.552
  0
LINE
  8
0
 10
80.7565
 20
296.552
 11
80.7142
 21
296.774
  0
LINE
  8
0
 10
80.7142
 20
296.774
 11
80.7
 21
297
  0
LINE
  8
0
 10
80.7
 20
297
 11
80.7142
 21
297.226
  0
LINE
  8
0
 10
80.7142
 20
297.226
 11
80.7565
 21
297.448
  0
LINE
  8
0
 10
80.7565
 20
297.448
 11
80.8264
 21
297.663
  0
LINE
  8
0
 10
80.8264
 20
297.663
 11
80.9226
 21
297.867
  0
LINE
  8
0
 10
80.9226
 20
297.867
 11
81.0438
 21
298.058
  0
LINE
  8
0
 10
81.0438
 20
298.058
 11
81.1879
 21
298.232
  0
LINE
  8
0
 10
81.1879
 20
298.232
 11
81.3526
 21
298.387
  0
LINE
  8
0
 10
81.3526
 20
298.387
 11
81.5355
 21
298.52
  0
LINE
  8
0
 10
81.5355
 20
298.52
 11
81.7336
 21
298.629
  0
LINE
  8
0
 10
81.7336
 20
298.629
 11
81.9438
 21
298.712
  0
LINE
  8
0
 10
81.9438
 20
298.712
 11
82.1627
 21
298.768
  0
LINE
  8
0
 10
82.1627
 20
298.768
 11
82.387
 21
298.796
  0
LINE
  8
0
 10
82.387
 20
298.796
 11
82.613
 21
298.796
  0
LINE
  8
0
 10
82.613
 20
298.796
 11
82.8373
 21
298.768
  0
LINE
  8
0
 10
82.8373
 20
298.768
 11
83.0562
 21
298.712
  0
LINE
  8
0
 10
83.0562
 20
298.712
 11
83.2664
 21
298.629
  0
LINE
  8
0
 10
83.2664
 20
298.629
 11
83.4645
 21
298.52
  0
LINE
  8
0
 10
83.4645
 20
298.52
 11
83.6474
 21
298.387
  0
LINE
  8
0
 10
83.6474
 20
298.387
 11
83.8121
 21
298.232
  0
LINE
  8
0
 10
83.8121
 20
298.232
 11
83.9562
 21
298.058
  0
LINE
  8
0
 10
83.9562
 20
298.058
 11
84.0773
 21
297.867
  0
LINE
  8
0
 10
84.0773
 20
297.867
 11
84.1736
 21
297.663
  0
LINE
  8
0
 10
84.1736
 20
297.663
 11
84.2434
 21
297.448
  0
LINE
  8
0
 10
84.2434
 20
297.448
 11
84.2858
 21
297.226
  0
LINE
  8
0
 10
84.2858
 20
297.226
 11
84.3
 21
297
  0
LINE
  8
0
 10
84.3
 20
297
 11
84.2858
 21
296.774
  0
LINE
  8
0
 10
84.2858
 20
296.774
 11
84.2434
 21
296.552
  0
LINE
  8
0
 10
84.2434
 20
296.552
 11
84.1736
 21
296.337
  0
LINE
  8
0
 10
84.1736
 20
296.337
 11
84.0773
 21
296.133
  0
LINE
  8
0
 10
84.0773
 20
296.133
 11
83.9562
 21
295.942
  0
LINE
  8
0
 10
83.9562
 20
295.942
 11
83.8121
 21
295.768
  0
LINE
  8
0
 10
83.8121
 20
295.768
 11
83.6474
 21
295.613
  0
LINE
  8
0
 10
83.6474
 20
295.613
 11
83.4645
 21
295.48
  0
LINE
  8
0
 10
83.4645
 20
295.48
 11
83.2664
 21
295.371
  0
LINE
  8
0
 10
83.2664
 20
295.371
 11
83.0562
 21
295.288
  0
LINE
  8
0
 10
83.0562
 20
295.288
 11
82.8373
 21
295.232
  0
LINE
  8
0
 10
82.8373
 20
295.232
 11
82.613
 21
295.204
  0
LINE
  8
0
 10
82.613
 20
295.204
 11
82.387
 21
295.204
  0
ENDSEC
  0
SECTION
  2
OBJECTS
  0
DICTIONARY
  0
ENDSEC
  0
EOF
