<?xml version="1.0" standalone="no"?>
<!DOCTYPE svg PUBLIC "-//W3C//DTD SVG 1.1//EN" "http://www.w3.org/Graphics/SVG/1.1/DTD/svg11.dtd">
<svg width="104mm" height="95mm" viewBox="-52 -7 104 95" xmlns="http://www.w3.org/2000/svg" version="1.1">
<title>OpenSCAD Model</title>
<path d="
M 3.23895,87.2575 L 7.4612,86.5278 L 11.3692,85.3117 L 14.9631,83.6092 L 18.2427,81.4202 L 21.2082,78.7448
 L 23.8595,75.5829 L 26.1755,71.9649 L 28.1351,67.9208 L 29.7385,63.4508 L 30.9856,58.5547 L 31.8764,53.2327
 L 32.4108,47.4847 L 32.589,41.3107 L 32.4207,35.2643 L 31.9159,29.678 L 31.0744,24.5519 L 29.8964,19.8859
 L 28.3819,15.68 L 26.5307,11.9343 L 24.343,8.64879 L 22.8765,6.99013 L 47.3139,6.99013 L 47.9369,6.91142
 L 48.5451,6.75528 L 49.1289,6.52412 L 49.6791,6.22163 L 50.1871,5.85255 L 50.6448,5.42273 L 51.0451,4.93892
 L 51.3815,4.40877 L 51.6489,3.84062 L 51.8429,3.24344 L 51.9606,2.62666 L 52,2 L 52,-2
 L 51.9606,-2.62666 L 51.8429,-3.24344 L 51.6489,-3.84062 L 51.3815,-4.40877 L 51.0451,-4.93892 L 50.6448,-5.42273
 L 50.1871,-5.85255 L 49.6791,-6.22163 L 49.1289,-6.52412 L 48.5451,-6.75528 L 47.9369,-6.91142 L 47.3139,-6.99013
 L -47.3139,-6.99013 L -47.9369,-6.91142 L -48.5451,-6.75528 L -49.1289,-6.52412 L -49.6791,-6.22163 L -50.1871,-5.85255
 L -50.6448,-5.42273 L -51.0451,-4.93892 L -51.3815,-4.40877 L -51.6489,-3.84062 L -51.8429,-3.24344 L -51.9606,-2.62666
 L -52,-2 L -52,2 L -51.9606,2.62666 L -51.8429,3.24344 L -51.6489,3.84062 L -51.3815,4.40877
 L -51.0451,4.93892 L -50.6448,5.42273 L -50.1871,5.85255 L -49.6791,6.22163 L -49.1289,6.52412 L -48.5451,6.75528
 L -47.9369,6.91142 L -47.3139,6.99013 L -24.048,6.99013 L -25.165,8.17917 L -27.0449,10.7836 L -28.583,13.6273
 L -29.7794,16.7104 L -30.6339,20.0327 L -31.1466,23.5943 L -31.3175,27.3951 L -31.1716,31.1119 L -30.7337,34.6051
 L -30.0041,37.8749 L -28.9826,40.9211 L -27.6692,43.7439 L -26.0639,46.3431 L -24.1668,48.7188 L -22.0291,50.8211
 L -19.7021,52.6 L -17.1857,54.0554 L -14.4799,55.1874 L -11.5849,55.9959 L -8.50044,56.4811 L -5.22668,56.6428
 L -3.40387,56.5869 L -1.61653,56.4193 L 0.135315,56.1399 L 1.8517,55.7488 L 3.53259,55.2459 L 5.17801,54.6313
 L 6.78795,53.9049 L 8.31638,53.0799 L 9.71721,52.1694 L 10.9905,51.1735 L 12.1362,50.0922 L 13.1543,48.9253
 L 14.0449,47.673 L 14.8079,46.3353 L 14.6877,50.0449 L 14.4006,53.4797 L 13.9464,56.6397 L 13.3252,59.525
 L 12.5371,62.1355 L 11.5819,64.4713 L 10.4597,66.5323 L 9.19028,68.3183 L 7.79335,69.8295 L 6.26892,71.0659
 L 4.617,72.0276 L 2.8376,72.7145 L 0.930695,73.1266 L -1.10368,73.264 L -3.56497,73.0707 L -5.75806,72.4909
 L -7.68294,71.5245 L -9.3396,70.1716 L -10.7281,68.4321 L -11.8483,66.306 L -12.7003,63.7934 L -29.7072,66.177
 L -28.8164,69.2213 L -27.764,72.0224 L -26.5498,74.5802 L -25.1739,76.8949 L -23.6363,78.9662 L -21.9371,80.7944
 L -20.0761,82.3792 L -18.0285,83.738 L -15.7692,84.8877 L -13.2982,85.8284 L -10.6155,86.56 L -7.72119,87.0826
 L -4.61517,87.3962 L -1.29749,87.5007 z
M -30.1884,2.99408 L -30.5621,2.94685 L -30.927,2.85316 L -31.2773,2.71448 L -31.6075,2.53297 L -31.9123,2.31154
 L -32.1869,2.05363 L -32.427,1.76335 L -32.6289,1.44525 L -32.7893,1.10437 L -32.9057,0.746063 L -32.9763,0.375992
 L -33,-0 L -32.9763,-0.375992 L -32.9057,-0.746063 L -32.7893,-1.10437 L -32.6289,-1.44525 L -32.427,-1.76335
 L -32.1869,-2.05363 L -31.9123,-2.31154 L -31.6075,-2.53297 L -31.2773,-2.71448 L -30.927,-2.85316 L -30.5621,-2.94685
 L -30.1884,-2.99408 L -29.8116,-2.99408 L -29.4379,-2.94685 L -29.0729,-2.85316 L -28.7227,-2.71448 L -28.3925,-2.53297
 L -28.0877,-2.31154 L -27.8131,-2.05363 L -27.5729,-1.76335 L -27.3711,-1.44525 L -27.2107,-1.10437 L -27.0942,-0.746063
 L -27.0237,-0.375992 L -27,-0 L -27.0237,0.375992 L -27.0942,0.746063 L -27.2107,1.10437 L -27.3711,1.44525
 L -27.5729,1.76335 L -27.8131,2.05363 L -28.0877,2.31154 L -28.3925,2.53297 L -28.7227,2.71448 L -29.0729,2.85316
 L -29.4379,2.94685 L -29.8116,2.99408 z
M 44.8116,2.99408 L 44.4379,2.94685 L 44.0729,2.85316 L 43.7227,2.71448 L 43.3925,2.53297 L 43.0877,2.31154
 L 42.8131,2.05363 L 42.5729,1.76335 L 42.3711,1.44525 L 42.2107,1.10437 L 42.0942,0.746063 L 42.0237,0.375992
 L 42,-0 L 42.0237,-0.375992 L 42.0942,-0.746063 L 42.2107,-1.10437 L 42.3711,-1.44525 L 42.5729,-1.76335
 L 42.8131,-2.05363 L 43.0877,-2.31154 L 43.3925,-2.53297 L 43.7227,-2.71448 L 44.0729,-2.85316 L 44.4379,-2.94685
 L 44.8116,-2.99408 L 45.1884,-2.99408 L 45.5621,-2.94685 L 45.927,-2.85316 L 46.2773,-2.71448 L 46.6075,-2.53297
 L 46.9123,-2.31154 L 47.1869,-2.05363 L 47.427,-1.76335 L 47.6289,-1.44525 L 47.7893,-1.10437 L 47.9057,-0.746063
 L 47.9763,-0.375992 L 48,-0 L 47.9763,0.375992 L 47.9057,0.746063 L 47.7893,1.10437 L 47.6289,1.44525
 L 47.427,1.76335 L 47.1869,2.05363 L 46.9123,2.31154 L 46.6075,2.53297 L 46.2773,2.71448 L 45.927,2.85316
 L 45.5621,2.94685 L 45.1884,2.99408 z
M -0.18837,2.99408 L -0.562134,2.94685 L -0.927048,2.85316 L -1.27733,2.71448 L -1.60747,2.53297 L -1.91226,2.31154
 L -2.1869,2.05363 L -2.42705,1.76335 L -2.62891,1.44525 L -2.78932,1.10437 L -2.90575,0.746063 L -2.97633,0.375992
 L -3,-0 L -2.97633,-0.375992 L -2.90575,-0.746063 L -2.78932,-1.10437 L -2.62891,-1.44525 L -2.42705,-1.76335
 L -2.1869,-2.05363 L -1.91226,-2.31154 L -1.60747,-2.53297 L -1.27733,-2.71448 L -0.927048,-2.85316 L -0.562134,-2.94685
 L -0.18837,-2.99408 L 0.18837,-2.99408 L 0.562134,-2.94685 L 0.927048,-2.85316 L 1.27733,-2.71448 L 1.60747,-2.53297
 L 1.91226,-2.31154 L 2.1869,-2.05363 L 2.42705,-1.76335 L 2.62891,-1.44525 L 2.78932,-1.10437 L 2.90575,-0.746063
 L 2.97633,-0.375992 L 3,-0 L 2.97633,0.375992 L 2.90575,0.746063 L 2.78932,1.10437 L 2.62891,1.44525
 L 2.42705,1.76335 L 2.1869,2.05363 L 1.91226,2.31154 L 1.60747,2.53297 L 1.27733,2.71448 L 0.927048,2.85316
 L 0.562134,2.94685 L 0.18837,2.99408 z
M -45.1884,2.99408 L -45.5621,2.94685 L -45.927,2.85316 L -46.2773,2.71448 L -46.6075,2.53297 L -46.9123,2.31154
 L -47.1869,2.05363 L -47.427,1.76335 L -47.6289,1.44525 L -47.7893,1.10437 L -47.9057,0.746063 L -47.9763,0.375992
 L -48,-0 L -47.9763,-0.375992 L -47.9057,-0.746063 L -47.7893,-1.10437 L -47.6289,-1.44525 L -47.427,-1.76335
 L -47.1869,-2.05363 L -46.9123,-2.31154 L -46.6075,-2.53297 L -46.2773,-2.71448 L -45.927,-2.85316 L -45.5621,-2.94685
 L -45.1884,-2.99408 L -44.8116,-2.99408 L -44.4379,-2.94685 L -44.0729,-2.85316 L -43.7227,-2.71448 L -43.3925,-2.53297
 L -43.0877,-2.31154 L -42.8131,-2.05363 L -42.5729,-1.76335 L -42.3711,-1.44525 L -42.2107,-1.10437 L -42.0942,-0.746063
 L -42.0237,-0.375992 L -42,-0 L -42.0237,0.375992 L -42.0942,0.746063 L -42.2107,1.10437 L -42.3711,1.44525
 L -42.5729,1.76335 L -42.8131,2.05363 L -43.0877,2.31154 L -43.3925,2.53297 L -43.7227,2.71448 L -44.0729,2.85316
 L -44.4379,2.94685 L -44.8116,2.99408 z
M 29.8116,2.99408 L 29.4379,2.94685 L 29.0729,2.85316 L 28.7227,2.71448 L 28.3925,2.53297 L 28.0877,2.31154
 L 27.8131,2.05363 L 27.5729,1.76335 L 27.3711,1.44525 L 27.2107,1.10437 L 27.0942,0.746063 L 27.0237,0.375992
 L 27,-0 L 27.0237,-0.375992 L 27.0942,-0.746063 L 27.2107,-1.10437 L 27.3711,-1.44525 L 27.5729,-1.76335
 L 27.8131,-2.05363 L 28.0877,-2.31154 L 28.3925,-2.53297 L 28.7227,-2.71448 L 29.0729,-2.85316 L 29.4379,-2.94685
 L 29.8116,-2.99408 L 30.1884,-2.99408 L 30.5621,-2.94685 L 30.927,-2.85316 L 31.2773,-2.71448 L 31.6075,-2.53297
 L 31.9123,-2.31154 L 32.1869,-2.05363 L 32.427,-1.76335 L 32.6289,-1.44525 L 32.7893,-1.10437 L 32.9057,-0.746063
 L 32.9763,-0.375992 L 33,-0 L 32.9763,0.375992 L 32.9057,0.746063 L 32.7893,1.10437 L 32.6289,1.44525
 L 32.427,1.76335 L 32.1869,2.05363 L 31.9123,2.31154 L 31.6075,2.53297 L 31.2773,2.71448 L 30.927,2.85316
 L 30.5621,2.94685 L 30.1884,2.99408 z
M 14.8116,2.99408 L 14.4379,2.94685 L 14.0729,2.85316 L 13.7227,2.71448 L 13.3925,2.53297 L 13.0877,2.31154
 L 12.8131,2.05363 L 12.5729,1.76335 L 12.3711,1.44525 L 12.2107,1.10437 L 12.0942,0.746063 L 12.0237,0.375992
 L 12,-0 L 12.0237,-0.375992 L 12.0942,-0.746063 L 12.2107,-1.10437 L 12.3711,-1.44525 L 12.5729,-1.76335
 L 12.8131,-2.05363 L 13.0877,-2.31154 L 13.3925,-2.53297 L 13.7227,-2.71448 L 14.0729,-2.85316 L 14.4379,-2.94685
 L 14.8116,-2.99408 L 15.1884,-2.99408 L 15.5621,-2.94685 L 15.927,-2.85316 L 16.2773,-2.71448 L 16.6075,-2.53297
 L 16.9123,-2.31154 L 17.1869,-2.05363 L 17.427,-1.76335 L 17.6289,-1.44525 L 17.7893,-1.10437 L 17.9057,-0.746063
 L 17.9763,-0.375992 L 18,-0 L 17.9763,0.375992 L 17.9057,0.746063 L 17.7893,1.10437 L 17.6289,1.44525
 L 17.427,1.76335 L 17.1869,2.05363 L 16.9123,2.31154 L 16.6075,2.53297 L 16.2773,2.71448 L 15.927,2.85316
 L 15.5621,2.94685 L 15.1884,2.99408 z
M -15.1884,2.99408 L -15.5621,2.94685 L -15.927,2.85316 L -16.2773,2.71448 L -16.6075,2.53297 L -16.9123,2.31154
 L -17.1869,2.05363 L -17.427,1.76335 L -17.6289,1.44525 L -17.7893,1.10437 L -17.9057,0.746063 L -17.9763,0.375992
 L -18,-0 L -17.9763,-0.375992 L -17.9057,-0.746063 L -17.7893,-1.10437 L -17.6289,-1.44525 L -17.427,-1.76335
 L -17.1869,-2.05363 L -16.9123,-2.31154 L -16.6075,-2.53297 L -16.2773,-2.71448 L -15.927,-2.85316 L -15.5621,-2.94685
 L -15.1884,-2.99408 L -14.8116,-2.99408 L -14.4379,-2.94685 L -14.0729,-2.85316 L -13.7227,-2.71448 L -13.3925,-2.53297
 L -13.0877,-2.31154 L -12.8131,-2.05363 L -12.5729,-1.76335 L -12.3711,-1.44525 L -12.2107,-1.10437 L -12.0942,-0.746063
 L -12.0237,-0.375992 L -12,-0 L -12.0237,0.375992 L -12.0942,0.746063 L -12.2107,1.10437 L -12.3711,1.44525
 L -12.5729,1.76335 L -12.8131,2.05363 L -13.0877,2.31154 L -13.3925,2.53297 L -13.7227,2.71448 L -14.0729,2.85316
 L -14.4379,2.94685 L -14.8116,2.99408 z
M 7.40581,1.49704 L 7.21892,1.47342 L 7.03647,1.42657 L 6.86133,1.35724 L 6.69626,1.26648 L 6.54385,1.15576
 L 6.40654,1.02681 L 6.28647,0.881668 L 6.18553,0.722626 L 6.10533,0.552185 L 6.04712,0.373032 L 6.01183,0.187988
 L 6,-0 L 6.01183,-0.187988 L 6.04712,-0.373032 L 6.10533,-0.552185 L 6.18553,-0.722626 L 6.28647,-0.881668
 L 6.40654,-1.02681 L 6.54385,-1.15576 L 6.69626,-1.26648 L 6.86133,-1.35724 L 7.03647,-1.42657 L 7.21892,-1.47342
 L 7.40581,-1.49704 L 7.59418,-1.49704 L 7.78107,-1.47342 L 7.96352,-1.42657 L 8.13866,-1.35724 L 8.30373,-1.26648
 L 8.45613,-1.15576 L 8.59344,-1.02681 L 8.71352,-0.881668 L 8.81445,-0.722626 L 8.89465,-0.552185 L 8.95287,-0.373032
 L 8.98816,-0.187988 L 9,-0 L 8.98816,0.187988 L 8.95287,0.373032 L 8.89465,0.552185 L 8.81445,0.722626
 L 8.71352,0.881668 L 8.59344,1.02681 L 8.45613,1.15576 L 8.30373,1.26648 L 8.13866,1.35724 L 7.96352,1.42657
 L 7.78107,1.47342 L 7.59418,1.49704 z
M -37.5942,1.49704 L -37.7811,1.47342 L -37.9635,1.42657 L -38.1387,1.35724 L -38.3037,1.26648 L -38.4561,1.15576
 L -38.5934,1.02681 L -38.7135,0.881668 L -38.8145,0.722626 L -38.8947,0.552185 L -38.9529,0.373032 L -38.9882,0.187988
 L -39,-0 L -38.9882,-0.187988 L -38.9529,-0.373032 L -38.8947,-0.552185 L -38.8145,-0.722626 L -38.7135,-0.881668
 L -38.5934,-1.02681 L -38.4561,-1.15576 L -38.3037,-1.26648 L -38.1387,-1.35724 L -37.9635,-1.42657 L -37.7811,-1.47342
 L -37.5942,-1.49704 L -37.4058,-1.49704 L -37.2189,-1.47342 L -37.0365,-1.42657 L -36.8613,-1.35724 L -36.6963,-1.26648
 L -36.5439,-1.15576 L -36.4065,-1.02681 L -36.2865,-0.881668 L -36.1855,-0.722626 L -36.1053,-0.552185 L -36.0471,-0.373032
 L -36.0118,-0.187988 L -36,-0 L -36.0118,0.187988 L -36.0471,0.373032 L -36.1053,0.552185 L -36.1855,0.722626
 L -36.2865,0.881668 L -36.4065,1.02681 L -36.5439,1.15576 L -36.6963,1.26648 L -36.8613,1.35724 L -37.0365,1.42657
 L -37.2189,1.47342 L -37.4058,1.49704 z
M 22.4058,1.49704 L 22.2189,1.47342 L 22.0365,1.42657 L 21.8613,1.35724 L 21.6963,1.26648 L 21.5439,1.15576
 L 21.4065,1.02681 L 21.2865,0.881668 L 21.1855,0.722626 L 21.1053,0.552185 L 21.0471,0.373032 L 21.0118,0.187988
 L 21,-0 L 21.0118,-0.187988 L 21.0471,-0.373032 L 21.1053,-0.552185 L 21.1855,-0.722626 L 21.2865,-0.881668
 L 21.4065,-1.02681 L 21.5439,-1.15576 L 21.6963,-1.26648 L 21.8613,-1.35724 L 22.0365,-1.42657 L 22.2189,-1.47342
 L 22.4058,-1.49704 L 22.5942,-1.49704 L 22.7811,-1.47342 L 22.9635,-1.42657 L 23.1387,-1.35724 L 23.3037,-1.26648
 L 23.4561,-1.15576 L 23.5934,-1.02681 L 23.7135,-0.881668 L 23.8145,-0.722626 L 23.8947,-0.552185 L 23.9529,-0.373032
 L 23.9882,-0.187988 L 24,-0 L 23.9882,0.187988 L 23.9529,0.373032 L 23.8947,0.552185 L 23.8145,0.722626
 L 23.7135,0.881668 L 23.5934,1.02681 L 23.4561,1.15576 L 23.3037,1.26648 L 23.1387,1.35724 L 22.9635,1.42657
 L 22.7811,1.47342 L 22.5942,1.49704 z
M -22.5942,1.49704 L -22.7811,1.47342 L -22.9635,1.42657 L -23.1387,1.35724 L -23.3037,1.26648 L -23.4561,1.15576
 L -23.5934,1.02681 L -23.7135,0.881668 L -23.8145,0.722626 L -23.8947,0.552185 L -23.9529,0.373032 L -23.9882,0.187988
 L -24,-0 L -23.9882,-0.187988 L -23.9529,-0.373032 L -23.8947,-0.552185 L -23.8145,-0.722626 L -23.7135,-0.881668
 L -23.5934,-1.02681 L -23.4561,-1.15576 L -23.3037,-1.26648 L -23.1387,-1.35724 L -22.9635,-1.42657 L -22.7811,-1.47342
 L -22.5942,-1.49704 L -22.4058,-1.49704 L -22.2189,-1.47342 L -22.0365,-1.42657 L -21.8613,-1.35724 L -21.6963,-1.26648
 L -21.5439,-1.15576 L -21.4065,-1.02681 L -21.2865,-0.881668 L -21.1855,-0.722626 L -21.1053,-0.552185 L -21.0471,-0.373032
 L -21.0118,-0.187988 L -21,-0 L -21.0118,0.187988 L -21.0471,0.373032 L -21.1053,0.552185 L -21.1855,0.722626
 L -21.2865,0.881668 L -21.4065,1.02681 L -21.5439,1.15576 L -21.6963,1.26648 L -21.8613,1.35724 L -22.0365,1.42657
 L -22.2189,1.47342 L -22.4058,1.49704 z
M 37.4058,1.49704 L 37.2189,1.47342 L 37.0365,1.42657 L 36.8613,1.35724 L 36.6963,1.26648 L 36.5439,1.15576
 L 36.4065,1.02681 L 36.2865,0.881668 L 36.1855,0.722626 L 36.1053,0.552185 L 36.0471,0.373032 L 36.0118,0.187988
 L 36,-0 L 36.0118,-0.187988 L 36.0471,-0.373032 L 36.1053,-0.552185 L 36.1855,-0.722626 L 36.2865,-0.881668
 L 36.4065,-1.02681 L 36.5439,-1.15576 L 36.6963,-1.26648 L 36.8613,-1.35724 L 37.0365,-1.42657 L 37.2189,-1.47342
 L 37.4058,-1.49704 L 37.5942,-1.49704 L 37.7811,-1.47342 L 37.9635,-1.42657 L 38.1387,-1.35724 L 38.3037,-1.26648
 L 38.4561,-1.15576 L 38.5934,-1.02681 L 38.7135,-0.881668 L 38.8145,-0.722626 L 38.8947,-0.552185 L 38.9529,-0.373032
 L 38.9882,-0.187988 L 39,-0 L 38.9882,0.187988 L 38.9529,0.373032 L 38.8947,0.552185 L 38.8145,0.722626
 L 38.7135,0.881668 L 38.5934,1.02681 L 38.4561,1.15576 L 38.3037,1.26648 L 38.1387,1.35724 L 37.9635,1.42657
 L 37.7811,1.47342 L 37.5942,1.49704 z
M -7.59418,1.49704 L -7.78107,1.47342 L -7.96352,1.42657 L -8.13866,1.35724 L -8.30373,1.26648 L -8.45613,1.15576
 L -8.59344,1.02681 L -8.71352,0.881668 L -8.81445,0.722626 L -8.89465,0.552185 L -8.95287,0.373032 L -8.98816,0.187988
 L -9,-0 L -8.98816,-0.187988 L -8.95287,-0.373032 L -8.89465,-0.552185 L -8.81445,-0.722626 L -8.71352,-0.881668
 L -8.59344,-1.02681 L -8.45613,-1.15576 L -8.30373,-1.26648 L -8.13866,-1.35724 L -7.96352,-1.42657 L -7.78107,-1.47342
 L -7.59418,-1.49704 L -7.40581,-1.49704 L -7.21892,-1.47342 L -7.03647,-1.42657 L -6.86133,-1.35724 L -6.69626,-1.26648
 L -6.54385,-1.15576 L -6.40654,-1.02681 L -6.28647,-0.881668 L -6.18553,-0.722626 L -6.10533,-0.552185 L -6.04712,-0.373032
 L -6.01183,-0.187988 L -6,-0 L -6.01183,0.187988 L -6.04712,0.373032 L -6.10533,0.552185 L -6.18553,0.722626
 L -6.28647,0.881668 L -6.40654,1.02681 L -6.54385,1.15576 L -6.69626,1.26648 L -6.86133,1.35724 L -7.03647,1.42657
 L -7.21892,1.47342 L -7.40581,1.49704 z
M -1.65247,43.0897 L -3.198,42.8235 L -4.64493,42.3798 L -5.99326,41.7586 L -7.24297,40.96 L -8.39407,39.9839
 L -9.44658,38.8303 L -10.3781,37.5347 L -11.1664,36.1326 L -11.8113,34.624 L -12.3129,33.0089 L -12.6712,31.2872
 L -12.8861,29.459 L -12.9578,27.5243 L -12.8861,25.5593 L -12.6712,23.714 L -12.3129,21.9884 L -11.8113,20.3825
 L -11.1664,18.8963 L -10.3781,17.5298 L -9.44658,16.283 L -8.3954,15.1806 L -7.24825,14.2477 L -6.00511,13.4845
 L -4.66603,12.8909 L -3.23096,12.4669 L -1.69994,12.2125 L -0.072937,12.1277 L 1.57686,12.2256 L 3.13991,12.5195
 L 4.61624,13.0092 L 6.00581,13.6948 L 7.30865,14.5764 L 8.52475,15.6538 L 9.6541,16.9271 L 10.6625,18.3608
 L 11.5158,19.9194 L 12.2139,21.6029 L 12.7569,23.4113 L 13.1448,25.3446 L 13.3775,27.4028 L 13.455,29.5858
 L 13.3775,31.2693 L 13.1448,32.8593 L 12.7569,34.3561 L 12.2139,35.7595 L 11.5158,37.0696 L 10.6625,38.2864
 L 9.6541,39.4098 L 8.52606,40.4096 L 7.31392,41.2557 L 6.01768,41.9479 L 4.63733,42.4862 L 3.17287,42.8708
 L 1.62431,43.1015 L -0.0083313,43.1784 z
" stroke="black" fill="lightgray" stroke-width="0.5"/>
</svg>
