  0
SECTION
  2
BLOCKS
  0
ENDSEC
  0
SECTION
  2
ENTITIES
  0
LINE
  8
0
 10
70.9369
 20
177.839
 11
71.5451
 21
177.995
  0
LINE
  8
0
 10
71.5451
 20
177.995
 11
72.1289
 21
178.226
  0
LINE
  8
0
 10
72.1289
 20
178.226
 11
72.6791
 21
178.528
  0
LINE
  8
0
 10
72.6791
 20
178.528
 11
73.1871
 21
178.897
  0
LINE
  8
0
 10
73.1871
 20
178.897
 11
73.6448
 21
179.327
  0
LINE
  8
0
 10
73.6448
 20
179.327
 11
74.0451
 21
179.811
  0
LINE
  8
0
 10
74.0451
 20
179.811
 11
74.3815
 21
180.341
  0
LINE
  8
0
 10
74.3815
 20
180.341
 11
74.6489
 21
180.909
  0
LINE
  8
0
 10
74.6489
 20
180.909
 11
74.8429
 21
181.507
  0
LINE
  8
0
 10
74.8429
 20
181.507
 11
74.9606
 21
182.123
  0
LINE
  8
0
 10
74.9606
 20
182.123
 11
75
 21
182.75
  0
LINE
  8
0
 10
75
 20
182.75
 11
75
 21
195.25
  0
LINE
  8
0
 10
75
 20
195.25
 11
74.9606
 21
195.877
  0
LINE
  8
0
 10
74.9606
 20
195.877
 11
74.8429
 21
196.493
  0
LINE
  8
0
 10
74.8429
 20
196.493
 11
74.6489
 21
197.091
  0
LINE
  8
0
 10
74.6489
 20
197.091
 11
74.3815
 21
197.659
  0
LINE
  8
0
 10
74.3815
 20
197.659
 11
74.0451
 21
198.189
  0
LINE
  8
0
 10
74.0451
 20
198.189
 11
73.6448
 21
198.673
  0
LINE
  8
0
 10
73.6448
 20
198.673
 11
73.1871
 21
199.103
  0
LINE
  8
0
 10
73.1871
 20
199.103
 11
72.6791
 21
199.472
  0
LINE
  8
0
 10
72.6791
 20
199.472
 11
72.1289
 21
199.774
  0
LINE
  8
0
 10
72.1289
 20
199.774
 11
71.5451
 21
200.005
  0
LINE
  8
0
 10
71.5451
 20
200.005
 11
70.9369
 21
200.161
  0
LINE
  8
0
 10
70.9369
 20
200.161
 11
70.3139
 21
200.24
  0
LINE
  8
0
 10
70.3139
 20
200.24
 11
-70.3139
 21
200.24
  0
LINE
  8
0
 10
-70.3139
 20
200.24
 11
-70.9369
 21
200.161
  0
LINE
  8
0
 10
-70.9369
 20
200.161
 11
-71.5451
 21
200.005
  0
LINE
  8
0
 10
-71.5451
 20
200.005
 11
-72.1289
 21
199.774
  0
LINE
  8
0
 10
-72.1289
 20
199.774
 11
-72.6791
 21
199.472
  0
LINE
  8
0
 10
-72.6791
 20
199.472
 11
-73.1871
 21
199.103
  0
LINE
  8
0
 10
-73.1871
 20
199.103
 11
-73.6448
 21
198.673
  0
LINE
  8
0
 10
-73.6448
 20
198.673
 11
-74.0451
 21
198.189
  0
LINE
  8
0
 10
-74.0451
 20
198.189
 11
-74.3815
 21
197.659
  0
LINE
  8
0
 10
-74.3815
 20
197.659
 11
-74.6489
 21
197.091
  0
LINE
  8
0
 10
-74.6489
 20
197.091
 11
-74.8429
 21
196.493
  0
LINE
  8
0
 10
-74.8429
 20
196.493
 11
-74.9606
 21
195.877
  0
LINE
  8
0
 10
-74.9606
 20
195.877
 11
-75
 21
195.25
  0
LINE
  8
0
 10
-75
 20
195.25
 11
-75
 21
182.75
  0
LINE
  8
0
 10
-75
 20
182.75
 11
-74.9606
 21
182.123
  0
LINE
  8
0
 10
-74.9606
 20
182.123
 11
-74.8429
 21
181.507
  0
LINE
  8
0
 10
-74.8429
 20
181.507
 11
-74.6489
 21
180.909
  0
LINE
  8
0
 10
-74.6489
 20
180.909
 11
-74.3815
 21
180.341
  0
LINE
  8
0
 10
-74.3815
 20
180.341
 11
-74.0451
 21
179.811
  0
LINE
  8
0
 10
-74.0451
 20
179.811
 11
-73.6448
 21
179.327
  0
LINE
  8
0
 10
-73.6448
 20
179.327
 11
-73.1871
 21
178.897
  0
LINE
  8
0
 10
-73.1871
 20
178.897
 11
-72.6791
 21
178.528
  0
LINE
  8
0
 10
-72.6791
 20
178.528
 11
-72.1289
 21
178.226
  0
LINE
  8
0
 10
-72.1289
 20
178.226
 11
-71.5451
 21
177.995
  0
LINE
  8
0
 10
-71.5451
 20
177.995
 11
-70.9369
 21
177.839
  0
LINE
  8
0
 10
-70.9369
 20
177.839
 11
-70.3139
 21
177.76
  0
LINE
  8
0
 10
-70.3139
 20
177.76
 11
70.3139
 21
177.76
  0
LINE
  8
0
 10
70.3139
 20
177.76
 11
70.9369
 21
177.839
  0
LINE
  8
0
 10
-70.0482
 20
178.259
 11
-70.6401
 21
178.334
  0
LINE
  8
0
 10
-70.6401
 20
178.334
 11
-71.2178
 21
178.482
  0
LINE
  8
0
 10
-71.2178
 20
178.482
 11
-71.7724
 21
178.702
  0
LINE
  8
0
 10
-71.7724
 20
178.702
 11
-72.2952
 21
178.989
  0
LINE
  8
0
 10
-72.2952
 20
178.989
 11
-72.7778
 21
179.34
  0
LINE
  8
0
 10
-72.7778
 20
179.34
 11
-73.2126
 21
179.748
  0
LINE
  8
0
 10
-73.2126
 20
179.748
 11
-73.5928
 21
180.208
  0
LINE
  8
0
 10
-73.5928
 20
180.208
 11
-73.9125
 21
180.712
  0
LINE
  8
0
 10
-73.9125
 20
180.712
 11
-74.1664
 21
181.251
  0
LINE
  8
0
 10
-74.1664
 20
181.251
 11
-74.3508
 21
181.819
  0
LINE
  8
0
 10
-74.3508
 20
181.819
 11
-74.4625
 21
182.405
  0
LINE
  8
0
 10
-74.4625
 20
182.405
 11
-74.5
 21
183
  0
LINE
  8
0
 10
-74.5
 20
183
 11
-74.5
 21
195
  0
LINE
  8
0
 10
-74.5
 20
195
 11
-74.4625
 21
195.595
  0
LINE
  8
0
 10
-74.4625
 20
195.595
 11
-74.3508
 21
196.181
  0
LINE
  8
0
 10
-74.3508
 20
196.181
 11
-74.1664
 21
196.749
  0
LINE
  8
0
 10
-74.1664
 20
196.749
 11
-73.9125
 21
197.288
  0
LINE
  8
0
 10
-73.9125
 20
197.288
 11
-73.5928
 21
197.792
  0
LINE
  8
0
 10
-73.5928
 20
197.792
 11
-73.2126
 21
198.252
  0
LINE
  8
0
 10
-73.2126
 20
198.252
 11
-72.7778
 21
198.66
  0
LINE
  8
0
 10
-72.7778
 20
198.66
 11
-72.2952
 21
199.011
  0
LINE
  8
0
 10
-72.2952
 20
199.011
 11
-71.7724
 21
199.298
  0
LINE
  8
0
 10
-71.7724
 20
199.298
 11
-71.2178
 21
199.518
  0
LINE
  8
0
 10
-71.2178
 20
199.518
 11
-70.6401
 21
199.666
  0
LINE
  8
0
 10
-70.6401
 20
199.666
 11
-70.0482
 21
199.741
  0
LINE
  8
0
 10
-70.0482
 20
199.741
 11
70.0482
 21
199.741
  0
LINE
  8
0
 10
70.0482
 20
199.741
 11
70.6401
 21
199.666
  0
LINE
  8
0
 10
70.6401
 20
199.666
 11
71.2178
 21
199.518
  0
LINE
  8
0
 10
71.2178
 20
199.518
 11
71.7724
 21
199.298
  0
LINE
  8
0
 10
71.7724
 20
199.298
 11
72.2952
 21
199.011
  0
LINE
  8
0
 10
72.2952
 20
199.011
 11
72.7778
 21
198.66
  0
LINE
  8
0
 10
72.7778
 20
198.66
 11
73.2126
 21
198.252
  0
LINE
  8
0
 10
73.2126
 20
198.252
 11
73.5928
 21
197.792
  0
LINE
  8
0
 10
73.5928
 20
197.792
 11
73.9125
 21
197.288
  0
LINE
  8
0
 10
73.9125
 20
197.288
 11
74.1664
 21
196.749
  0
LINE
  8
0
 10
74.1664
 20
196.749
 11
74.3508
 21
196.181
  0
LINE
  8
0
 10
74.3508
 20
196.181
 11
74.4625
 21
195.595
  0
LINE
  8
0
 10
74.4625
 20
195.595
 11
74.5
 21
195
  0
LINE
  8
0
 10
74.5
 20
195
 11
74.5
 21
183
  0
LINE
  8
0
 10
74.5
 20
183
 11
74.4625
 21
182.405
  0
LINE
  8
0
 10
74.4625
 20
182.405
 11
74.3508
 21
181.819
  0
LINE
  8
0
 10
74.3508
 20
181.819
 11
74.1664
 21
181.251
  0
LINE
  8
0
 10
74.1664
 20
181.251
 11
73.9125
 21
180.712
  0
LINE
  8
0
 10
73.9125
 20
180.712
 11
73.5928
 21
180.208
  0
LINE
  8
0
 10
73.5928
 20
180.208
 11
73.2126
 21
179.748
  0
LINE
  8
0
 10
73.2126
 20
179.748
 11
72.7778
 21
179.34
  0
LINE
  8
0
 10
72.7778
 20
179.34
 11
72.2952
 21
178.989
  0
LINE
  8
0
 10
72.2952
 20
178.989
 11
71.7724
 21
178.702
  0
LINE
  8
0
 10
71.7724
 20
178.702
 11
71.2178
 21
178.482
  0
LINE
  8
0
 10
71.2178
 20
178.482
 11
70.6401
 21
178.334
  0
LINE
  8
0
 10
70.6401
 20
178.334
 11
70.0482
 21
178.259
  0
LINE
  8
0
 10
70.0482
 20
178.259
 11
-70.0482
 21
178.259
  0
LINE
  8
0
 10
70.9369
 20
146.339
 11
71.5451
 21
146.495
  0
LINE
  8
0
 10
71.5451
 20
146.495
 11
72.1289
 21
146.726
  0
LINE
  8
0
 10
72.1289
 20
146.726
 11
72.6791
 21
147.028
  0
LINE
  8
0
 10
72.6791
 20
147.028
 11
73.1871
 21
147.397
  0
LINE
  8
0
 10
73.1871
 20
147.397
 11
73.6448
 21
147.827
  0
LINE
  8
0
 10
73.6448
 20
147.827
 11
74.0451
 21
148.311
  0
LINE
  8
0
 10
74.0451
 20
148.311
 11
74.3815
 21
148.841
  0
LINE
  8
0
 10
74.3815
 20
148.841
 11
74.6489
 21
149.409
  0
LINE
  8
0
 10
74.6489
 20
149.409
 11
74.8429
 21
150.007
  0
LINE
  8
0
 10
74.8429
 20
150.007
 11
74.9606
 21
150.623
  0
LINE
  8
0
 10
74.9606
 20
150.623
 11
75
 21
151.25
  0
LINE
  8
0
 10
75
 20
151.25
 11
75
 21
163.75
  0
LINE
  8
0
 10
75
 20
163.75
 11
74.9606
 21
164.377
  0
LINE
  8
0
 10
74.9606
 20
164.377
 11
74.8429
 21
164.993
  0
LINE
  8
0
 10
74.8429
 20
164.993
 11
74.6489
 21
165.591
  0
LINE
  8
0
 10
74.6489
 20
165.591
 11
74.3815
 21
166.159
  0
LINE
  8
0
 10
74.3815
 20
166.159
 11
74.0451
 21
166.689
  0
LINE
  8
0
 10
74.0451
 20
166.689
 11
73.6448
 21
167.173
  0
LINE
  8
0
 10
73.6448
 20
167.173
 11
73.1871
 21
167.603
  0
LINE
  8
0
 10
73.1871
 20
167.603
 11
72.6791
 21
167.972
  0
LINE
  8
0
 10
72.6791
 20
167.972
 11
72.1289
 21
168.274
  0
LINE
  8
0
 10
72.1289
 20
168.274
 11
71.5451
 21
168.505
  0
LINE
  8
0
 10
71.5451
 20
168.505
 11
70.9369
 21
168.661
  0
LINE
  8
0
 10
70.9369
 20
168.661
 11
70.3139
 21
168.74
  0
LINE
  8
0
 10
70.3139
 20
168.74
 11
-70.3139
 21
168.74
  0
LINE
  8
0
 10
-70.3139
 20
168.74
 11
-70.9369
 21
168.661
  0
LINE
  8
0
 10
-70.9369
 20
168.661
 11
-71.5451
 21
168.505
  0
LINE
  8
0
 10
-71.5451
 20
168.505
 11
-72.1289
 21
168.274
  0
LINE
  8
0
 10
-72.1289
 20
168.274
 11
-72.6791
 21
167.972
  0
LINE
  8
0
 10
-72.6791
 20
167.972
 11
-73.1871
 21
167.603
  0
LINE
  8
0
 10
-73.1871
 20
167.603
 11
-73.6448
 21
167.173
  0
LINE
  8
0
 10
-73.6448
 20
167.173
 11
-74.0451
 21
166.689
  0
LINE
  8
0
 10
-74.0451
 20
166.689
 11
-74.3815
 21
166.159
  0
LINE
  8
0
 10
-74.3815
 20
166.159
 11
-74.6489
 21
165.591
  0
LINE
  8
0
 10
-74.6489
 20
165.591
 11
-74.8429
 21
164.993
  0
LINE
  8
0
 10
-74.8429
 20
164.993
 11
-74.9606
 21
164.377
  0
LINE
  8
0
 10
-74.9606
 20
164.377
 11
-75
 21
163.75
  0
LINE
  8
0
 10
-75
 20
163.75
 11
-75
 21
151.25
  0
LINE
  8
0
 10
-75
 20
151.25
 11
-74.9606
 21
150.623
  0
LINE
  8
0
 10
-74.9606
 20
150.623
 11
-74.8429
 21
150.007
  0
LINE
  8
0
 10
-74.8429
 20
150.007
 11
-74.6489
 21
149.409
  0
LINE
  8
0
 10
-74.6489
 20
149.409
 11
-74.3815
 21
148.841
  0
LINE
  8
0
 10
-74.3815
 20
148.841
 11
-74.0451
 21
148.311
  0
LINE
  8
0
 10
-74.0451
 20
148.311
 11
-73.6448
 21
147.827
  0
LINE
  8
0
 10
-73.6448
 20
147.827
 11
-73.1871
 21
147.397
  0
LINE
  8
0
 10
-73.1871
 20
147.397
 11
-72.6791
 21
147.028
  0
LINE
  8
0
 10
-72.6791
 20
147.028
 11
-72.1289
 21
146.726
  0
LINE
  8
0
 10
-72.1289
 20
146.726
 11
-71.5451
 21
146.495
  0
LINE
  8
0
 10
-71.5451
 20
146.495
 11
-70.9369
 21
146.339
  0
LINE
  8
0
 10
-70.9369
 20
146.339
 11
-70.3139
 21
146.26
  0
LINE
  8
0
 10
-70.3139
 20
146.26
 11
70.3139
 21
146.26
  0
LINE
  8
0
 10
70.3139
 20
146.26
 11
70.9369
 21
146.339
  0
LINE
  8
0
 10
-70.0482
 20
146.759
 11
-70.6401
 21
146.834
  0
LINE
  8
0
 10
-70.6401
 20
146.834
 11
-71.2178
 21
146.982
  0
LINE
  8
0
 10
-71.2178
 20
146.982
 11
-71.7724
 21
147.202
  0
LINE
  8
0
 10
-71.7724
 20
147.202
 11
-72.2952
 21
147.489
  0
LINE
  8
0
 10
-72.2952
 20
147.489
 11
-72.7778
 21
147.84
  0
LINE
  8
0
 10
-72.7778
 20
147.84
 11
-73.2126
 21
148.248
  0
LINE
  8
0
 10
-73.2126
 20
148.248
 11
-73.5928
 21
148.708
  0
LINE
  8
0
 10
-73.5928
 20
148.708
 11
-73.9125
 21
149.212
  0
LINE
  8
0
 10
-73.9125
 20
149.212
 11
-74.1664
 21
149.751
  0
LINE
  8
0
 10
-74.1664
 20
149.751
 11
-74.3508
 21
150.319
  0
LINE
  8
0
 10
-74.3508
 20
150.319
 11
-74.4625
 21
150.905
  0
LINE
  8
0
 10
-74.4625
 20
150.905
 11
-74.5
 21
151.5
  0
LINE
  8
0
 10
-74.5
 20
151.5
 11
-74.5
 21
163.5
  0
LINE
  8
0
 10
-74.5
 20
163.5
 11
-74.4625
 21
164.095
  0
LINE
  8
0
 10
-74.4625
 20
164.095
 11
-74.3508
 21
164.681
  0
LINE
  8
0
 10
-74.3508
 20
164.681
 11
-74.1664
 21
165.249
  0
LINE
  8
0
 10
-74.1664
 20
165.249
 11
-73.9125
 21
165.788
  0
LINE
  8
0
 10
-73.9125
 20
165.788
 11
-73.5928
 21
166.292
  0
LINE
  8
0
 10
-73.5928
 20
166.292
 11
-73.2126
 21
166.752
  0
LINE
  8
0
 10
-73.2126
 20
166.752
 11
-72.7778
 21
167.16
  0
LINE
  8
0
 10
-72.7778
 20
167.16
 11
-72.2952
 21
167.511
  0
LINE
  8
0
 10
-72.2952
 20
167.511
 11
-71.7724
 21
167.798
  0
LINE
  8
0
 10
-71.7724
 20
167.798
 11
-71.2178
 21
168.018
  0
LINE
  8
0
 10
-71.2178
 20
168.018
 11
-70.6401
 21
168.166
  0
LINE
  8
0
 10
-70.6401
 20
168.166
 11
-70.0482
 21
168.241
  0
LINE
  8
0
 10
-70.0482
 20
168.241
 11
70.0482
 21
168.241
  0
LINE
  8
0
 10
70.0482
 20
168.241
 11
70.6401
 21
168.166
  0
LINE
  8
0
 10
70.6401
 20
168.166
 11
71.2178
 21
168.018
  0
LINE
  8
0
 10
71.2178
 20
168.018
 11
71.7724
 21
167.798
  0
LINE
  8
0
 10
71.7724
 20
167.798
 11
72.2952
 21
167.511
  0
LINE
  8
0
 10
72.2952
 20
167.511
 11
72.7778
 21
167.16
  0
LINE
  8
0
 10
72.7778
 20
167.16
 11
73.2126
 21
166.752
  0
LINE
  8
0
 10
73.2126
 20
166.752
 11
73.5928
 21
166.292
  0
LINE
  8
0
 10
73.5928
 20
166.292
 11
73.9125
 21
165.788
  0
LINE
  8
0
 10
73.9125
 20
165.788
 11
74.1664
 21
165.249
  0
LINE
  8
0
 10
74.1664
 20
165.249
 11
74.3508
 21
164.681
  0
LINE
  8
0
 10
74.3508
 20
164.681
 11
74.4625
 21
164.095
  0
LINE
  8
0
 10
74.4625
 20
164.095
 11
74.5
 21
163.5
  0
LINE
  8
0
 10
74.5
 20
163.5
 11
74.5
 21
151.5
  0
LINE
  8
0
 10
74.5
 20
151.5
 11
74.4625
 21
150.905
  0
LINE
  8
0
 10
74.4625
 20
150.905
 11
74.3508
 21
150.319
  0
LINE
  8
0
 10
74.3508
 20
150.319
 11
74.1664
 21
149.751
  0
LINE
  8
0
 10
74.1664
 20
149.751
 11
73.9125
 21
149.212
  0
LINE
  8
0
 10
73.9125
 20
149.212
 11
73.5928
 21
148.708
  0
LINE
  8
0
 10
73.5928
 20
148.708
 11
73.2126
 21
148.248
  0
LINE
  8
0
 10
73.2126
 20
148.248
 11
72.7778
 21
147.84
  0
LINE
  8
0
 10
72.7778
 20
147.84
 11
72.2952
 21
147.489
  0
LINE
  8
0
 10
72.2952
 20
147.489
 11
71.7724
 21
147.202
  0
LINE
  8
0
 10
71.7724
 20
147.202
 11
71.2178
 21
146.982
  0
LINE
  8
0
 10
71.2178
 20
146.982
 11
70.6401
 21
146.834
  0
LINE
  8
0
 10
70.6401
 20
146.834
 11
70.0482
 21
146.759
  0
LINE
  8
0
 10
70.0482
 20
146.759
 11
-70.0482
 21
146.759
  0
LINE
  8
0
 10
70.9369
 20
114.839
 11
71.5451
 21
114.995
  0
LINE
  8
0
 10
71.5451
 20
114.995
 11
72.1289
 21
115.226
  0
LINE
  8
0
 10
72.1289
 20
115.226
 11
72.6791
 21
115.528
  0
LINE
  8
0
 10
72.6791
 20
115.528
 11
73.1871
 21
115.897
  0
LINE
  8
0
 10
73.1871
 20
115.897
 11
73.6448
 21
116.327
  0
LINE
  8
0
 10
73.6448
 20
116.327
 11
74.0451
 21
116.811
  0
LINE
  8
0
 10
74.0451
 20
116.811
 11
74.3815
 21
117.341
  0
LINE
  8
0
 10
74.3815
 20
117.341
 11
74.6489
 21
117.909
  0
LINE
  8
0
 10
74.6489
 20
117.909
 11
74.8429
 21
118.507
  0
LINE
  8
0
 10
74.8429
 20
118.507
 11
74.9606
 21
119.123
  0
LINE
  8
0
 10
74.9606
 20
119.123
 11
75
 21
119.75
  0
LINE
  8
0
 10
75
 20
119.75
 11
75
 21
132.25
  0
LINE
  8
0
 10
75
 20
132.25
 11
74.9606
 21
132.877
  0
LINE
  8
0
 10
74.9606
 20
132.877
 11
74.8429
 21
133.493
  0
LINE
  8
0
 10
74.8429
 20
133.493
 11
74.6489
 21
134.091
  0
LINE
  8
0
 10
74.6489
 20
134.091
 11
74.3815
 21
134.659
  0
LINE
  8
0
 10
74.3815
 20
134.659
 11
74.0451
 21
135.189
  0
LINE
  8
0
 10
74.0451
 20
135.189
 11
73.6448
 21
135.673
  0
LINE
  8
0
 10
73.6448
 20
135.673
 11
73.1871
 21
136.103
  0
LINE
  8
0
 10
73.1871
 20
136.103
 11
72.6791
 21
136.472
  0
LINE
  8
0
 10
72.6791
 20
136.472
 11
72.1289
 21
136.774
  0
LINE
  8
0
 10
72.1289
 20
136.774
 11
71.5451
 21
137.005
  0
LINE
  8
0
 10
71.5451
 20
137.005
 11
70.9369
 21
137.161
  0
LINE
  8
0
 10
70.9369
 20
137.161
 11
70.3139
 21
137.24
  0
LINE
  8
0
 10
70.3139
 20
137.24
 11
-70.3139
 21
137.24
  0
LINE
  8
0
 10
-70.3139
 20
137.24
 11
-70.9369
 21
137.161
  0
LINE
  8
0
 10
-70.9369
 20
137.161
 11
-71.5451
 21
137.005
  0
LINE
  8
0
 10
-71.5451
 20
137.005
 11
-72.1289
 21
136.774
  0
LINE
  8
0
 10
-72.1289
 20
136.774
 11
-72.6791
 21
136.472
  0
LINE
  8
0
 10
-72.6791
 20
136.472
 11
-73.1871
 21
136.103
  0
LINE
  8
0
 10
-73.1871
 20
136.103
 11
-73.6448
 21
135.673
  0
LINE
  8
0
 10
-73.6448
 20
135.673
 11
-74.0451
 21
135.189
  0
LINE
  8
0
 10
-74.0451
 20
135.189
 11
-74.3815
 21
134.659
  0
LINE
  8
0
 10
-74.3815
 20
134.659
 11
-74.6489
 21
134.091
  0
LINE
  8
0
 10
-74.6489
 20
134.091
 11
-74.8429
 21
133.493
  0
LINE
  8
0
 10
-74.8429
 20
133.493
 11
-74.9606
 21
132.877
  0
LINE
  8
0
 10
-74.9606
 20
132.877
 11
-75
 21
132.25
  0
LINE
  8
0
 10
-75
 20
132.25
 11
-75
 21
119.75
  0
LINE
  8
0
 10
-75
 20
119.75
 11
-74.9606
 21
119.123
  0
LINE
  8
0
 10
-74.9606
 20
119.123
 11
-74.8429
 21
118.507
  0
LINE
  8
0
 10
-74.8429
 20
118.507
 11
-74.6489
 21
117.909
  0
LINE
  8
0
 10
-74.6489
 20
117.909
 11
-74.3815
 21
117.341
  0
LINE
  8
0
 10
-74.3815
 20
117.341
 11
-74.0451
 21
116.811
  0
LINE
  8
0
 10
-74.0451
 20
116.811
 11
-73.6448
 21
116.327
  0
LINE
  8
0
 10
-73.6448
 20
116.327
 11
-73.1871
 21
115.897
  0
LINE
  8
0
 10
-73.1871
 20
115.897
 11
-72.6791
 21
115.528
  0
LINE
  8
0
 10
-72.6791
 20
115.528
 11
-72.1289
 21
115.226
  0
LINE
  8
0
 10
-72.1289
 20
115.226
 11
-71.5451
 21
114.995
  0
LINE
  8
0
 10
-71.5451
 20
114.995
 11
-70.9369
 21
114.839
  0
LINE
  8
0
 10
-70.9369
 20
114.839
 11
-70.3139
 21
114.76
  0
LINE
  8
0
 10
-70.3139
 20
114.76
 11
70.3139
 21
114.76
  0
LINE
  8
0
 10
70.3139
 20
114.76
 11
70.9369
 21
114.839
  0
LINE
  8
0
 10
-69.993
 20
116.138
 11
-70.4751
 21
116.199
  0
LINE
  8
0
 10
-70.4751
 20
116.199
 11
-70.9457
 21
116.32
  0
LINE
  8
0
 10
-70.9457
 20
116.32
 11
-71.3975
 21
116.499
  0
LINE
  8
0
 10
-71.3975
 20
116.499
 11
-71.8234
 21
116.733
  0
LINE
  8
0
 10
-71.8234
 20
116.733
 11
-72.2165
 21
117.019
  0
LINE
  8
0
 10
-72.2165
 20
117.019
 11
-72.5707
 21
117.351
  0
LINE
  8
0
 10
-72.5707
 20
117.351
 11
-72.8805
 21
117.726
  0
LINE
  8
0
 10
-72.8805
 20
117.726
 11
-73.1408
 21
118.136
  0
LINE
  8
0
 10
-73.1408
 20
118.136
 11
-73.3477
 21
118.576
  0
LINE
  8
0
 10
-73.3477
 20
118.576
 11
-73.4979
 21
119.038
  0
LINE
  8
0
 10
-73.4979
 20
119.038
 11
-73.589
 21
119.515
  0
LINE
  8
0
 10
-73.589
 20
119.515
 11
-73.6195
 21
120
  0
LINE
  8
0
 10
-73.6195
 20
120
 11
-73.6195
 21
132
  0
LINE
  8
0
 10
-73.6195
 20
132
 11
-73.589
 21
132.485
  0
LINE
  8
0
 10
-73.589
 20
132.485
 11
-73.4979
 21
132.962
  0
LINE
  8
0
 10
-73.4979
 20
132.962
 11
-73.3477
 21
133.424
  0
LINE
  8
0
 10
-73.3477
 20
133.424
 11
-73.1408
 21
133.864
  0
LINE
  8
0
 10
-73.1408
 20
133.864
 11
-72.8805
 21
134.274
  0
LINE
  8
0
 10
-72.8805
 20
134.274
 11
-72.5707
 21
134.649
  0
LINE
  8
0
 10
-72.5707
 20
134.649
 11
-72.2165
 21
134.981
  0
LINE
  8
0
 10
-72.2165
 20
134.981
 11
-71.8234
 21
135.267
  0
LINE
  8
0
 10
-71.8234
 20
135.267
 11
-71.3975
 21
135.501
  0
LINE
  8
0
 10
-71.3975
 20
135.501
 11
-70.9457
 21
135.68
  0
LINE
  8
0
 10
-70.9457
 20
135.68
 11
-70.4751
 21
135.801
  0
LINE
  8
0
 10
-70.4751
 20
135.801
 11
-69.993
 21
135.862
  0
LINE
  8
0
 10
-69.993
 20
135.862
 11
69.993
 21
135.862
  0
LINE
  8
0
 10
69.993
 20
135.862
 11
70.4751
 21
135.801
  0
LINE
  8
0
 10
70.4751
 20
135.801
 11
70.9457
 21
135.68
  0
LINE
  8
0
 10
70.9457
 20
135.68
 11
71.3975
 21
135.501
  0
LINE
  8
0
 10
71.3975
 20
135.501
 11
71.8234
 21
135.267
  0
LINE
  8
0
 10
71.8234
 20
135.267
 11
72.2165
 21
134.981
  0
LINE
  8
0
 10
72.2165
 20
134.981
 11
72.5707
 21
134.649
  0
LINE
  8
0
 10
72.5707
 20
134.649
 11
72.8805
 21
134.274
  0
LINE
  8
0
 10
72.8805
 20
134.274
 11
73.1408
 21
133.864
  0
LINE
  8
0
 10
73.1408
 20
133.864
 11
73.3477
 21
133.424
  0
LINE
  8
0
 10
73.3477
 20
133.424
 11
73.4979
 21
132.962
  0
LINE
  8
0
 10
73.4979
 20
132.962
 11
73.589
 21
132.485
  0
LINE
  8
0
 10
73.589
 20
132.485
 11
73.6195
 21
132
  0
LINE
  8
0
 10
73.6195
 20
132
 11
73.6195
 21
120
  0
LINE
  8
0
 10
73.6195
 20
120
 11
73.589
 21
119.515
  0
LINE
  8
0
 10
73.589
 20
119.515
 11
73.4979
 21
119.038
  0
LINE
  8
0
 10
73.4979
 20
119.038
 11
73.3477
 21
118.576
  0
LINE
  8
0
 10
73.3477
 20
118.576
 11
73.1408
 21
118.136
  0
LINE
  8
0
 10
73.1408
 20
118.136
 11
72.8805
 21
117.726
  0
LINE
  8
0
 10
72.8805
 20
117.726
 11
72.5707
 21
117.351
  0
LINE
  8
0
 10
72.5707
 20
117.351
 11
72.2165
 21
117.019
  0
LINE
  8
0
 10
72.2165
 20
117.019
 11
71.8234
 21
116.733
  0
LINE
  8
0
 10
71.8234
 20
116.733
 11
71.3975
 21
116.499
  0
LINE
  8
0
 10
71.3975
 20
116.499
 11
70.9457
 21
116.32
  0
LINE
  8
0
 10
70.9457
 20
116.32
 11
70.4751
 21
116.199
  0
LINE
  8
0
 10
70.4751
 20
116.199
 11
69.993
 21
116.138
  0
LINE
  8
0
 10
69.993
 20
116.138
 11
-69.993
 21
116.138
  0
LINE
  8
0
 10
70.9369
 20
83.3386
 11
71.5451
 21
83.4947
  0
LINE
  8
0
 10
71.5451
 20
83.4947
 11
72.1289
 21
83.7259
  0
LINE
  8
0
 10
72.1289
 20
83.7259
 11
72.6791
 21
84.0284
  0
LINE
  8
0
 10
72.6791
 20
84.0284
 11
73.1871
 21
84.3974
  0
LINE
  8
0
 10
73.1871
 20
84.3974
 11
73.6448
 21
84.8273
  0
LINE
  8
0
 10
73.6448
 20
84.8273
 11
74.0451
 21
85.3111
  0
LINE
  8
0
 10
74.0451
 20
85.3111
 11
74.3815
 21
85.8412
  0
LINE
  8
0
 10
74.3815
 20
85.8412
 11
74.6489
 21
86.4094
  0
LINE
  8
0
 10
74.6489
 20
86.4094
 11
74.8429
 21
87.0066
  0
LINE
  8
0
 10
74.8429
 20
87.0066
 11
74.9606
 21
87.6233
  0
LINE
  8
0
 10
74.9606
 20
87.6233
 11
75
 21
88.25
  0
LINE
  8
0
 10
75
 20
88.25
 11
75
 21
100.75
  0
LINE
  8
0
 10
75
 20
100.75
 11
74.9606
 21
101.377
  0
LINE
  8
0
 10
74.9606
 20
101.377
 11
74.8429
 21
101.993
  0
LINE
  8
0
 10
74.8429
 20
101.993
 11
74.6489
 21
102.591
  0
LINE
  8
0
 10
74.6489
 20
102.591
 11
74.3815
 21
103.159
  0
LINE
  8
0
 10
74.3815
 20
103.159
 11
74.0451
 21
103.689
  0
LINE
  8
0
 10
74.0451
 20
103.689
 11
73.6448
 21
104.173
  0
LINE
  8
0
 10
73.6448
 20
104.173
 11
73.1871
 21
104.603
  0
LINE
  8
0
 10
73.1871
 20
104.603
 11
72.6791
 21
104.972
  0
LINE
  8
0
 10
72.6791
 20
104.972
 11
72.1289
 21
105.274
  0
LINE
  8
0
 10
72.1289
 20
105.274
 11
71.5451
 21
105.505
  0
LINE
  8
0
 10
71.5451
 20
105.505
 11
70.9369
 21
105.661
  0
LINE
  8
0
 10
70.9369
 20
105.661
 11
70.3139
 21
105.74
  0
LINE
  8
0
 10
70.3139
 20
105.74
 11
-70.3139
 21
105.74
  0
LINE
  8
0
 10
-70.3139
 20
105.74
 11
-70.9369
 21
105.661
  0
LINE
  8
0
 10
-70.9369
 20
105.661
 11
-71.5451
 21
105.505
  0
LINE
  8
0
 10
-71.5451
 20
105.505
 11
-72.1289
 21
105.274
  0
LINE
  8
0
 10
-72.1289
 20
105.274
 11
-72.6791
 21
104.972
  0
LINE
  8
0
 10
-72.6791
 20
104.972
 11
-73.1871
 21
104.603
  0
LINE
  8
0
 10
-73.1871
 20
104.603
 11
-73.6448
 21
104.173
  0
LINE
  8
0
 10
-73.6448
 20
104.173
 11
-74.0451
 21
103.689
  0
LINE
  8
0
 10
-74.0451
 20
103.689
 11
-74.3815
 21
103.159
  0
LINE
  8
0
 10
-74.3815
 20
103.159
 11
-74.6489
 21
102.591
  0
LINE
  8
0
 10
-74.6489
 20
102.591
 11
-74.8429
 21
101.993
  0
LINE
  8
0
 10
-74.8429
 20
101.993
 11
-74.9606
 21
101.377
  0
LINE
  8
0
 10
-74.9606
 20
101.377
 11
-75
 21
100.75
  0
LINE
  8
0
 10
-75
 20
100.75
 11
-75
 21
88.25
  0
LINE
  8
0
 10
-75
 20
88.25
 11
-74.9606
 21
87.6233
  0
LINE
  8
0
 10
-74.9606
 20
87.6233
 11
-74.8429
 21
87.0066
  0
LINE
  8
0
 10
-74.8429
 20
87.0066
 11
-74.6489
 21
86.4094
  0
LINE
  8
0
 10
-74.6489
 20
86.4094
 11
-74.3815
 21
85.8412
  0
LINE
  8
0
 10
-74.3815
 20
85.8412
 11
-74.0451
 21
85.3111
  0
LINE
  8
0
 10
-74.0451
 20
85.3111
 11
-73.6448
 21
84.8273
  0
LINE
  8
0
 10
-73.6448
 20
84.8273
 11
-73.1871
 21
84.3974
  0
LINE
  8
0
 10
-73.1871
 20
84.3974
 11
-72.6791
 21
84.0284
  0
LINE
  8
0
 10
-72.6791
 20
84.0284
 11
-72.1289
 21
83.7259
  0
LINE
  8
0
 10
-72.1289
 20
83.7259
 11
-71.5451
 21
83.4947
  0
LINE
  8
0
 10
-71.5451
 20
83.4947
 11
-70.9369
 21
83.3386
  0
LINE
  8
0
 10
-70.9369
 20
83.3386
 11
-70.3139
 21
83.2599
  0
LINE
  8
0
 10
-70.3139
 20
83.2599
 11
70.3139
 21
83.2599
  0
LINE
  8
0
 10
70.3139
 20
83.2599
 11
70.9369
 21
83.3386
  0
LINE
  8
0
 10
-67.613
 20
96.4536
 11
-67.8373
 21
96.4819
  0
LINE
  8
0
 10
-67.8373
 20
96.4819
 11
-68.0562
 21
96.5381
  0
LINE
  8
0
 10
-68.0562
 20
96.5381
 11
-68.2664
 21
96.6213
  0
LINE
  8
0
 10
-68.2664
 20
96.6213
 11
-68.4645
 21
96.7302
  0
LINE
  8
0
 10
-68.4645
 20
96.7302
 11
-68.6474
 21
96.8631
  0
LINE
  8
0
 10
-68.6474
 20
96.8631
 11
-68.8121
 21
97.0178
  0
LINE
  8
0
 10
-68.8121
 20
97.0178
 11
-68.9562
 21
97.192
  0
LINE
  8
0
 10
-68.9562
 20
97.192
 11
-69.0773
 21
97.3828
  0
LINE
  8
0
 10
-69.0773
 20
97.3828
 11
-69.1736
 21
97.5874
  0
LINE
  8
0
 10
-69.1736
 20
97.5874
 11
-69.2434
 21
97.8024
  0
LINE
  8
0
 10
-69.2434
 20
97.8024
 11
-69.2858
 21
98.0244
  0
LINE
  8
0
 10
-69.2858
 20
98.0244
 11
-69.3
 21
98.25
  0
LINE
  8
0
 10
-69.3
 20
98.25
 11
-69.2858
 21
98.4756
  0
LINE
  8
0
 10
-69.2858
 20
98.4756
 11
-69.2434
 21
98.6976
  0
LINE
  8
0
 10
-69.2434
 20
98.6976
 11
-69.1736
 21
98.9126
  0
LINE
  8
0
 10
-69.1736
 20
98.9126
 11
-69.0773
 21
99.1171
  0
LINE
  8
0
 10
-69.0773
 20
99.1171
 11
-68.9562
 21
99.308
  0
LINE
  8
0
 10
-68.9562
 20
99.308
 11
-68.8121
 21
99.4822
  0
LINE
  8
0
 10
-68.8121
 20
99.4822
 11
-68.6474
 21
99.6369
  0
LINE
  8
0
 10
-68.6474
 20
99.6369
 11
-68.4645
 21
99.7698
  0
LINE
  8
0
 10
-68.4645
 20
99.7698
 11
-68.2664
 21
99.8787
  0
LINE
  8
0
 10
-68.2664
 20
99.8787
 11
-68.0562
 21
99.9619
  0
LINE
  8
0
 10
-68.0562
 20
99.9619
 11
-67.8373
 21
100.018
  0
LINE
  8
0
 10
-67.8373
 20
100.018
 11
-67.613
 21
100.046
  0
LINE
  8
0
 10
-67.613
 20
100.046
 11
-67.387
 21
100.046
  0
LINE
  8
0
 10
-67.387
 20
100.046
 11
-67.1627
 21
100.018
  0
LINE
  8
0
 10
-67.1627
 20
100.018
 11
-66.9438
 21
99.9619
  0
LINE
  8
0
 10
-66.9438
 20
99.9619
 11
-66.7336
 21
99.8787
  0
LINE
  8
0
 10
-66.7336
 20
99.8787
 11
-66.5355
 21
99.7698
  0
LINE
  8
0
 10
-66.5355
 20
99.7698
 11
-66.3526
 21
99.6369
  0
LINE
  8
0
 10
-66.3526
 20
99.6369
 11
-66.1879
 21
99.4822
  0
LINE
  8
0
 10
-66.1879
 20
99.4822
 11
-66.0438
 21
99.308
  0
LINE
  8
0
 10
-66.0438
 20
99.308
 11
-65.9226
 21
99.1171
  0
LINE
  8
0
 10
-65.9226
 20
99.1171
 11
-65.8264
 21
98.9126
  0
LINE
  8
0
 10
-65.8264
 20
98.9126
 11
-65.7565
 21
98.6976
  0
LINE
  8
0
 10
-65.7565
 20
98.6976
 11
-65.7142
 21
98.4756
  0
LINE
  8
0
 10
-65.7142
 20
98.4756
 11
-65.7
 21
98.25
  0
LINE
  8
0
 10
-65.7
 20
98.25
 11
-65.7142
 21
98.0244
  0
LINE
  8
0
 10
-65.7142
 20
98.0244
 11
-65.7565
 21
97.8024
  0
LINE
  8
0
 10
-65.7565
 20
97.8024
 11
-65.8264
 21
97.5874
  0
LINE
  8
0
 10
-65.8264
 20
97.5874
 11
-65.9226
 21
97.3828
  0
LINE
  8
0
 10
-65.9226
 20
97.3828
 11
-66.0438
 21
97.192
  0
LINE
  8
0
 10
-66.0438
 20
97.192
 11
-66.1879
 21
97.0178
  0
LINE
  8
0
 10
-66.1879
 20
97.0178
 11
-66.3526
 21
96.8631
  0
LINE
  8
0
 10
-66.3526
 20
96.8631
 11
-66.5355
 21
96.7302
  0
LINE
  8
0
 10
-66.5355
 20
96.7302
 11
-66.7336
 21
96.6213
  0
LINE
  8
0
 10
-66.7336
 20
96.6213
 11
-66.9438
 21
96.5381
  0
LINE
  8
0
 10
-66.9438
 20
96.5381
 11
-67.1627
 21
96.4819
  0
LINE
  8
0
 10
-67.1627
 20
96.4819
 11
-67.387
 21
96.4536
  0
LINE
  8
0
 10
-67.387
 20
96.4536
 11
-67.613
 21
96.4536
  0
LINE
  8
0
 10
67.387
 20
96.4536
 11
67.1627
 21
96.4819
  0
LINE
  8
0
 10
67.1627
 20
96.4819
 11
66.9438
 21
96.5381
  0
LINE
  8
0
 10
66.9438
 20
96.5381
 11
66.7336
 21
96.6213
  0
LINE
  8
0
 10
66.7336
 20
96.6213
 11
66.5355
 21
96.7302
  0
LINE
  8
0
 10
66.5355
 20
96.7302
 11
66.3526
 21
96.8631
  0
LINE
  8
0
 10
66.3526
 20
96.8631
 11
66.1879
 21
97.0178
  0
LINE
  8
0
 10
66.1879
 20
97.0178
 11
66.0438
 21
97.192
  0
LINE
  8
0
 10
66.0438
 20
97.192
 11
65.9226
 21
97.3828
  0
LINE
  8
0
 10
65.9226
 20
97.3828
 11
65.8264
 21
97.5874
  0
LINE
  8
0
 10
65.8264
 20
97.5874
 11
65.7565
 21
97.8024
  0
LINE
  8
0
 10
65.7565
 20
97.8024
 11
65.7142
 21
98.0244
  0
LINE
  8
0
 10
65.7142
 20
98.0244
 11
65.7
 21
98.25
  0
LINE
  8
0
 10
65.7
 20
98.25
 11
65.7142
 21
98.4756
  0
LINE
  8
0
 10
65.7142
 20
98.4756
 11
65.7565
 21
98.6976
  0
LINE
  8
0
 10
65.7565
 20
98.6976
 11
65.8264
 21
98.9126
  0
LINE
  8
0
 10
65.8264
 20
98.9126
 11
65.9226
 21
99.1171
  0
LINE
  8
0
 10
65.9226
 20
99.1171
 11
66.0438
 21
99.308
  0
LINE
  8
0
 10
66.0438
 20
99.308
 11
66.1879
 21
99.4822
  0
LINE
  8
0
 10
66.1879
 20
99.4822
 11
66.3526
 21
99.6369
  0
LINE
  8
0
 10
66.3526
 20
99.6369
 11
66.5355
 21
99.7698
  0
LINE
  8
0
 10
66.5355
 20
99.7698
 11
66.7336
 21
99.8787
  0
LINE
  8
0
 10
66.7336
 20
99.8787
 11
66.9438
 21
99.9619
  0
LINE
  8
0
 10
66.9438
 20
99.9619
 11
67.1627
 21
100.018
  0
LINE
  8
0
 10
67.1627
 20
100.018
 11
67.387
 21
100.046
  0
LINE
  8
0
 10
67.387
 20
100.046
 11
67.613
 21
100.046
  0
LINE
  8
0
 10
67.613
 20
100.046
 11
67.8373
 21
100.018
  0
LINE
  8
0
 10
67.8373
 20
100.018
 11
68.0562
 21
99.9619
  0
LINE
  8
0
 10
68.0562
 20
99.9619
 11
68.2664
 21
99.8787
  0
LINE
  8
0
 10
68.2664
 20
99.8787
 11
68.4645
 21
99.7698
  0
LINE
  8
0
 10
68.4645
 20
99.7698
 11
68.6474
 21
99.6369
  0
LINE
  8
0
 10
68.6474
 20
99.6369
 11
68.8121
 21
99.4822
  0
LINE
  8
0
 10
68.8121
 20
99.4822
 11
68.9562
 21
99.308
  0
LINE
  8
0
 10
68.9562
 20
99.308
 11
69.0773
 21
99.1171
  0
LINE
  8
0
 10
69.0773
 20
99.1171
 11
69.1736
 21
98.9126
  0
LINE
  8
0
 10
69.1736
 20
98.9126
 11
69.2434
 21
98.6976
  0
LINE
  8
0
 10
69.2434
 20
98.6976
 11
69.2858
 21
98.4756
  0
LINE
  8
0
 10
69.2858
 20
98.4756
 11
69.3
 21
98.25
  0
LINE
  8
0
 10
69.3
 20
98.25
 11
69.2858
 21
98.0244
  0
LINE
  8
0
 10
69.2858
 20
98.0244
 11
69.2434
 21
97.8024
  0
LINE
  8
0
 10
69.2434
 20
97.8024
 11
69.1736
 21
97.5874
  0
LINE
  8
0
 10
69.1736
 20
97.5874
 11
69.0773
 21
97.3828
  0
LINE
  8
0
 10
69.0773
 20
97.3828
 11
68.9562
 21
97.192
  0
LINE
  8
0
 10
68.9562
 20
97.192
 11
68.8121
 21
97.0178
  0
LINE
  8
0
 10
68.8121
 20
97.0178
 11
68.6474
 21
96.8631
  0
LINE
  8
0
 10
68.6474
 20
96.8631
 11
68.4645
 21
96.7302
  0
LINE
  8
0
 10
68.4645
 20
96.7302
 11
68.2664
 21
96.6213
  0
LINE
  8
0
 10
68.2664
 20
96.6213
 11
68.0562
 21
96.5381
  0
LINE
  8
0
 10
68.0562
 20
96.5381
 11
67.8373
 21
96.4819
  0
LINE
  8
0
 10
67.8373
 20
96.4819
 11
67.613
 21
96.4536
  0
LINE
  8
0
 10
67.613
 20
96.4536
 11
67.387
 21
96.4536
  0
LINE
  8
0
 10
67.387
 20
88.9536
 11
67.1627
 21
88.9819
  0
LINE
  8
0
 10
67.1627
 20
88.9819
 11
66.9438
 21
89.0381
  0
LINE
  8
0
 10
66.9438
 20
89.0381
 11
66.7336
 21
89.1213
  0
LINE
  8
0
 10
66.7336
 20
89.1213
 11
66.5355
 21
89.2302
  0
LINE
  8
0
 10
66.5355
 20
89.2302
 11
66.3526
 21
89.3631
  0
LINE
  8
0
 10
66.3526
 20
89.3631
 11
66.1879
 21
89.5178
  0
LINE
  8
0
 10
66.1879
 20
89.5178
 11
66.0438
 21
89.692
  0
LINE
  8
0
 10
66.0438
 20
89.692
 11
65.9226
 21
89.8829
  0
LINE
  8
0
 10
65.9226
 20
89.8829
 11
65.8264
 21
90.0874
  0
LINE
  8
0
 10
65.8264
 20
90.0874
 11
65.7565
 21
90.3024
  0
LINE
  8
0
 10
65.7565
 20
90.3024
 11
65.7142
 21
90.5244
  0
LINE
  8
0
 10
65.7142
 20
90.5244
 11
65.7
 21
90.75
  0
LINE
  8
0
 10
65.7
 20
90.75
 11
65.7142
 21
90.9756
  0
LINE
  8
0
 10
65.7142
 20
90.9756
 11
65.7565
 21
91.1976
  0
LINE
  8
0
 10
65.7565
 20
91.1976
 11
65.8264
 21
91.4126
  0
LINE
  8
0
 10
65.8264
 20
91.4126
 11
65.9226
 21
91.6172
  0
LINE
  8
0
 10
65.9226
 20
91.6172
 11
66.0438
 21
91.808
  0
LINE
  8
0
 10
66.0438
 20
91.808
 11
66.1879
 21
91.9822
  0
LINE
  8
0
 10
66.1879
 20
91.9822
 11
66.3526
 21
92.1369
  0
LINE
  8
0
 10
66.3526
 20
92.1369
 11
66.5355
 21
92.2698
  0
LINE
  8
0
 10
66.5355
 20
92.2698
 11
66.7336
 21
92.3787
  0
LINE
  8
0
 10
66.7336
 20
92.3787
 11
66.9438
 21
92.4619
  0
LINE
  8
0
 10
66.9438
 20
92.4619
 11
67.1627
 21
92.5181
  0
LINE
  8
0
 10
67.1627
 20
92.5181
 11
67.387
 21
92.5464
  0
LINE
  8
0
 10
67.387
 20
92.5464
 11
67.613
 21
92.5464
  0
LINE
  8
0
 10
67.613
 20
92.5464
 11
67.8373
 21
92.5181
  0
LINE
  8
0
 10
67.8373
 20
92.5181
 11
68.0562
 21
92.4619
  0
LINE
  8
0
 10
68.0562
 20
92.4619
 11
68.2664
 21
92.3787
  0
LINE
  8
0
 10
68.2664
 20
92.3787
 11
68.4645
 21
92.2698
  0
LINE
  8
0
 10
68.4645
 20
92.2698
 11
68.6474
 21
92.1369
  0
LINE
  8
0
 10
68.6474
 20
92.1369
 11
68.8121
 21
91.9822
  0
LINE
  8
0
 10
68.8121
 20
91.9822
 11
68.9562
 21
91.808
  0
LINE
  8
0
 10
68.9562
 20
91.808
 11
69.0773
 21
91.6172
  0
LINE
  8
0
 10
69.0773
 20
91.6172
 11
69.1736
 21
91.4126
  0
LINE
  8
0
 10
69.1736
 20
91.4126
 11
69.2434
 21
91.1976
  0
LINE
  8
0
 10
69.2434
 20
91.1976
 11
69.2858
 21
90.9756
  0
LINE
  8
0
 10
69.2858
 20
90.9756
 11
69.3
 21
90.75
  0
LINE
  8
0
 10
69.3
 20
90.75
 11
69.2858
 21
90.5244
  0
LINE
  8
0
 10
69.2858
 20
90.5244
 11
69.2434
 21
90.3024
  0
LINE
  8
0
 10
69.2434
 20
90.3024
 11
69.1736
 21
90.0874
  0
LINE
  8
0
 10
69.1736
 20
90.0874
 11
69.0773
 21
89.8829
  0
LINE
  8
0
 10
69.0773
 20
89.8829
 11
68.9562
 21
89.692
  0
LINE
  8
0
 10
68.9562
 20
89.692
 11
68.8121
 21
89.5178
  0
LINE
  8
0
 10
68.8121
 20
89.5178
 11
68.6474
 21
89.3631
  0
LINE
  8
0
 10
68.6474
 20
89.3631
 11
68.4645
 21
89.2302
  0
LINE
  8
0
 10
68.4645
 20
89.2302
 11
68.2664
 21
89.1213
  0
LINE
  8
0
 10
68.2664
 20
89.1213
 11
68.0562
 21
89.0381
  0
LINE
  8
0
 10
68.0562
 20
89.0381
 11
67.8373
 21
88.9819
  0
LINE
  8
0
 10
67.8373
 20
88.9819
 11
67.613
 21
88.9536
  0
LINE
  8
0
 10
67.613
 20
88.9536
 11
67.387
 21
88.9536
  0
LINE
  8
0
 10
-67.613
 20
88.9536
 11
-67.8373
 21
88.9819
  0
LINE
  8
0
 10
-67.8373
 20
88.9819
 11
-68.0562
 21
89.0381
  0
LINE
  8
0
 10
-68.0562
 20
89.0381
 11
-68.2664
 21
89.1213
  0
LINE
  8
0
 10
-68.2664
 20
89.1213
 11
-68.4645
 21
89.2302
  0
LINE
  8
0
 10
-68.4645
 20
89.2302
 11
-68.6474
 21
89.3631
  0
LINE
  8
0
 10
-68.6474
 20
89.3631
 11
-68.8121
 21
89.5178
  0
LINE
  8
0
 10
-68.8121
 20
89.5178
 11
-68.9562
 21
89.692
  0
LINE
  8
0
 10
-68.9562
 20
89.692
 11
-69.0773
 21
89.8829
  0
LINE
  8
0
 10
-69.0773
 20
89.8829
 11
-69.1736
 21
90.0874
  0
LINE
  8
0
 10
-69.1736
 20
90.0874
 11
-69.2434
 21
90.3024
  0
LINE
  8
0
 10
-69.2434
 20
90.3024
 11
-69.2858
 21
90.5244
  0
LINE
  8
0
 10
-69.2858
 20
90.5244
 11
-69.3
 21
90.75
  0
LINE
  8
0
 10
-69.3
 20
90.75
 11
-69.2858
 21
90.9756
  0
LINE
  8
0
 10
-69.2858
 20
90.9756
 11
-69.2434
 21
91.1976
  0
LINE
  8
0
 10
-69.2434
 20
91.1976
 11
-69.1736
 21
91.4126
  0
LINE
  8
0
 10
-69.1736
 20
91.4126
 11
-69.0773
 21
91.6172
  0
LINE
  8
0
 10
-69.0773
 20
91.6172
 11
-68.9562
 21
91.808
  0
LINE
  8
0
 10
-68.9562
 20
91.808
 11
-68.8121
 21
91.9822
  0
LINE
  8
0
 10
-68.8121
 20
91.9822
 11
-68.6474
 21
92.1369
  0
LINE
  8
0
 10
-68.6474
 20
92.1369
 11
-68.4645
 21
92.2698
  0
LINE
  8
0
 10
-68.4645
 20
92.2698
 11
-68.2664
 21
92.3787
  0
LINE
  8
0
 10
-68.2664
 20
92.3787
 11
-68.0562
 21
92.4619
  0
LINE
  8
0
 10
-68.0562
 20
92.4619
 11
-67.8373
 21
92.5181
  0
LINE
  8
0
 10
-67.8373
 20
92.5181
 11
-67.613
 21
92.5464
  0
LINE
  8
0
 10
-67.613
 20
92.5464
 11
-67.387
 21
92.5464
  0
LINE
  8
0
 10
-67.387
 20
92.5464
 11
-67.1627
 21
92.5181
  0
LINE
  8
0
 10
-67.1627
 20
92.5181
 11
-66.9438
 21
92.4619
  0
LINE
  8
0
 10
-66.9438
 20
92.4619
 11
-66.7336
 21
92.3787
  0
LINE
  8
0
 10
-66.7336
 20
92.3787
 11
-66.5355
 21
92.2698
  0
LINE
  8
0
 10
-66.5355
 20
92.2698
 11
-66.3526
 21
92.1369
  0
LINE
  8
0
 10
-66.3526
 20
92.1369
 11
-66.1879
 21
91.9822
  0
LINE
  8
0
 10
-66.1879
 20
91.9822
 11
-66.0438
 21
91.808
  0
LINE
  8
0
 10
-66.0438
 20
91.808
 11
-65.9226
 21
91.6172
  0
LINE
  8
0
 10
-65.9226
 20
91.6172
 11
-65.8264
 21
91.4126
  0
LINE
  8
0
 10
-65.8264
 20
91.4126
 11
-65.7565
 21
91.1976
  0
LINE
  8
0
 10
-65.7565
 20
91.1976
 11
-65.7142
 21
90.9756
  0
LINE
  8
0
 10
-65.7142
 20
90.9756
 11
-65.7
 21
90.75
  0
LINE
  8
0
 10
-65.7
 20
90.75
 11
-65.7142
 21
90.5244
  0
LINE
  8
0
 10
-65.7142
 20
90.5244
 11
-65.7565
 21
90.3024
  0
LINE
  8
0
 10
-65.7565
 20
90.3024
 11
-65.8264
 21
90.0874
  0
LINE
  8
0
 10
-65.8264
 20
90.0874
 11
-65.9226
 21
89.8829
  0
LINE
  8
0
 10
-65.9226
 20
89.8829
 11
-66.0438
 21
89.692
  0
LINE
  8
0
 10
-66.0438
 20
89.692
 11
-66.1879
 21
89.5178
  0
LINE
  8
0
 10
-66.1879
 20
89.5178
 11
-66.3526
 21
89.3631
  0
LINE
  8
0
 10
-66.3526
 20
89.3631
 11
-66.5355
 21
89.2302
  0
LINE
  8
0
 10
-66.5355
 20
89.2302
 11
-66.7336
 21
89.1213
  0
LINE
  8
0
 10
-66.7336
 20
89.1213
 11
-66.9438
 21
89.0381
  0
LINE
  8
0
 10
-66.9438
 20
89.0381
 11
-67.1627
 21
88.9819
  0
LINE
  8
0
 10
-67.1627
 20
88.9819
 11
-67.387
 21
88.9536
  0
LINE
  8
0
 10
-67.387
 20
88.9536
 11
-67.613
 21
88.9536
  0
ENDSEC
  0
SECTION
  2
OBJECTS
  0
DICTIONARY
  0
ENDSEC
  0
EOF
