<?xml version="1.0" standalone="no"?>
<!DOCTYPE svg PUBLIC "-//W3C//DTD SVG 1.1//EN" "http://www.w3.org/Graphics/SVG/1.1/DTD/svg11.dtd">
<svg width="30mm" height="918mm" viewBox="-15 -1695 30 918" xmlns="http://www.w3.org/2000/svg" version="1.1">
<title>OpenSCAD Model</title>
<path d="
M 10.9369,-1395.09 L 11.5451,-1395.24 L 12.1289,-1395.48 L 12.6791,-1395.78 L 13.1871,-1396.15 L 13.6448,-1396.58
 L 14.0451,-1397.06 L 14.3815,-1397.59 L 14.6489,-1398.16 L 14.8429,-1398.76 L 14.9606,-1399.37 L 15,-1400
 L 15,-1690 L 14.9606,-1690.63 L 14.8429,-1691.24 L 14.6489,-1691.84 L 14.3815,-1692.41 L 14.0451,-1692.94
 L 13.6448,-1693.42 L 13.1871,-1693.85 L 12.6791,-1694.22 L 12.1289,-1694.52 L 11.5451,-1694.76 L 10.9369,-1694.91
 L 10.3139,-1694.99 L -10.3139,-1694.99 L -10.9369,-1694.91 L -11.5451,-1694.76 L -12.1289,-1694.52 L -12.6791,-1694.22
 L -13.1871,-1693.85 L -13.6448,-1693.42 L -14.0451,-1692.94 L -14.3815,-1692.41 L -14.6489,-1691.84 L -14.8429,-1691.24
 L -14.9606,-1690.63 L -15,-1690 L -15,-1400 L -14.9606,-1399.37 L -14.8429,-1398.76 L -14.6489,-1398.16
 L -14.3815,-1397.59 L -14.0451,-1397.06 L -13.6448,-1396.58 L -13.1871,-1396.15 L -12.6791,-1395.78 L -12.1289,-1395.48
 L -11.5451,-1395.24 L -10.9369,-1395.09 L -10.3139,-1395.01 L 10.3139,-1395.01 z
M -9.75116,-1396.51 L -10.2495,-1396.57 L -10.7361,-1396.7 L -11.2031,-1396.88 L -11.6433,-1397.12 L -12.0497,-1397.42
 L -12.4159,-1397.76 L -12.7361,-1398.15 L -13.0052,-1398.57 L -13.2191,-1399.03 L -13.3743,-1399.51 L -13.4684,-1400
 L -13.5,-1400.5 L -13.5,-1689.5 L -13.4684,-1690 L -13.3743,-1690.49 L -13.2191,-1690.97 L -13.0052,-1691.43
 L -12.7361,-1691.85 L -12.4159,-1692.24 L -12.0497,-1692.58 L -11.6433,-1692.88 L -11.2031,-1693.12 L -10.7361,-1693.3
 L -10.2495,-1693.43 L -9.75116,-1693.49 L 9.75116,-1693.49 L 10.2495,-1693.43 L 10.7361,-1693.3 L 11.2031,-1693.12
 L 11.6433,-1692.88 L 12.0497,-1692.58 L 12.4159,-1692.24 L 12.7361,-1691.85 L 13.0052,-1691.43 L 13.2191,-1690.97
 L 13.3743,-1690.49 L 13.4684,-1690 L 13.5,-1689.5 L 13.5,-1400.5 L 13.4684,-1400 L 13.3743,-1399.51
 L 13.2191,-1399.03 L 13.0052,-1398.57 L 12.7361,-1398.15 L 12.4159,-1397.76 L 12.0497,-1397.42 L 11.6433,-1397.12
 L 11.2031,-1396.88 L 10.7361,-1396.7 L 10.2495,-1396.57 L 9.75116,-1396.51 z
M 10.9369,-1086.09 L 11.5451,-1086.24 L 12.1289,-1086.48 L 12.6791,-1086.78 L 13.1871,-1087.15 L 13.6448,-1087.58
 L 14.0451,-1088.06 L 14.3815,-1088.59 L 14.6489,-1089.16 L 14.8429,-1089.76 L 14.9606,-1090.37 L 15,-1091
 L 15,-1381 L 14.9606,-1381.63 L 14.8429,-1382.24 L 14.6489,-1382.84 L 14.3815,-1383.41 L 14.0451,-1383.94
 L 13.6448,-1384.42 L 13.1871,-1384.85 L 12.6791,-1385.22 L 12.1289,-1385.52 L 11.5451,-1385.76 L 10.9369,-1385.91
 L 10.3139,-1385.99 L -10.3139,-1385.99 L -10.9369,-1385.91 L -11.5451,-1385.76 L -12.1289,-1385.52 L -12.6791,-1385.22
 L -13.1871,-1384.85 L -13.6448,-1384.42 L -14.0451,-1383.94 L -14.3815,-1383.41 L -14.6489,-1382.84 L -14.8429,-1382.24
 L -14.9606,-1381.63 L -15,-1381 L -15,-1091 L -14.9606,-1090.37 L -14.8429,-1089.76 L -14.6489,-1089.16
 L -14.3815,-1088.59 L -14.0451,-1088.06 L -13.6448,-1087.58 L -13.1871,-1087.15 L -12.6791,-1086.78 L -12.1289,-1086.48
 L -11.5451,-1086.24 L -10.9369,-1086.09 L -10.3139,-1086.01 L 10.3139,-1086.01 z
M -9.69545,-1088.39 L -10.0833,-1088.44 L -10.4619,-1088.54 L -10.8254,-1088.68 L -11.168,-1088.87 L -11.4842,-1089.1
 L -11.7692,-1089.37 L -12.0184,-1089.67 L -12.2279,-1090 L -12.3943,-1090.35 L -12.5151,-1090.73 L -12.5884,-1091.11
 L -12.6129,-1091.5 L -12.6129,-1380.5 L -12.5884,-1380.89 L -12.5151,-1381.27 L -12.3943,-1381.65 L -12.2279,-1382
 L -12.0184,-1382.33 L -11.7692,-1382.63 L -11.4842,-1382.9 L -11.168,-1383.13 L -10.8254,-1383.32 L -10.4619,-1383.46
 L -10.0833,-1383.56 L -9.69545,-1383.61 L 9.69545,-1383.61 L 10.0833,-1383.56 L 10.4619,-1383.46 L 10.8254,-1383.32
 L 11.168,-1383.13 L 11.4842,-1382.9 L 11.7692,-1382.63 L 12.0184,-1382.33 L 12.2279,-1382 L 12.3943,-1381.65
 L 12.5151,-1381.27 L 12.5884,-1380.89 L 12.6129,-1380.5 L 12.6129,-1091.5 L 12.5884,-1091.11 L 12.5151,-1090.73
 L 12.3943,-1090.35 L 12.2279,-1090 L 12.0184,-1089.67 L 11.7692,-1089.37 L 11.4842,-1089.1 L 11.168,-1088.87
 L 10.8254,-1088.68 L 10.4619,-1088.54 L 10.0833,-1088.44 L 9.69545,-1088.39 z
M 10.9369,-777.089 L 11.5451,-777.245 L 12.1289,-777.476 L 12.6791,-777.778 L 13.1871,-778.147 L 13.6448,-778.577
 L 14.0451,-779.061 L 14.3815,-779.591 L 14.6489,-780.159 L 14.8429,-780.757 L 14.9606,-781.373 L 15,-782
 L 15,-1072 L 14.9606,-1072.63 L 14.8429,-1073.24 L 14.6489,-1073.84 L 14.3815,-1074.41 L 14.0451,-1074.94
 L 13.6448,-1075.42 L 13.1871,-1075.85 L 12.6791,-1076.22 L 12.1289,-1076.52 L 11.5451,-1076.76 L 10.9369,-1076.91
 L 10.3139,-1076.99 L -10.3139,-1076.99 L -10.9369,-1076.91 L -11.5451,-1076.76 L -12.1289,-1076.52 L -12.6791,-1076.22
 L -13.1871,-1075.85 L -13.6448,-1075.42 L -14.0451,-1074.94 L -14.3815,-1074.41 L -14.6489,-1073.84 L -14.8429,-1073.24
 L -14.9606,-1072.63 L -15,-1072 L -15,-782 L -14.9606,-781.373 L -14.8429,-780.757 L -14.6489,-780.159
 L -14.3815,-779.591 L -14.0451,-779.061 L -13.6448,-778.577 L -13.1871,-778.147 L -12.6791,-777.778 L -12.1289,-777.476
 L -11.5451,-777.245 L -10.9369,-777.089 L -10.3139,-777.01 L 10.3139,-777.01 z
M 7.36592,-1067.37 L 7.09988,-1067.4 L 6.84015,-1067.47 L 6.59084,-1067.57 L 6.35585,-1067.7 L 6.1389,-1067.85
 L 5.94344,-1068.04 L 5.77251,-1068.24 L 5.62881,-1068.47 L 5.51465,-1068.71 L 5.43178,-1068.97 L 5.38153,-1069.23
 L 5.3647,-1069.5 L 5.38153,-1069.77 L 5.43178,-1070.03 L 5.51465,-1070.29 L 5.62881,-1070.53 L 5.77251,-1070.76
 L 5.94344,-1070.96 L 6.1389,-1071.15 L 6.35585,-1071.3 L 6.59084,-1071.43 L 6.84015,-1071.53 L 7.09988,-1071.6
 L 7.36592,-1071.63 L 7.63406,-1071.63 L 7.9001,-1071.6 L 8.15984,-1071.53 L 8.40915,-1071.43 L 8.64413,-1071.3
 L 8.86108,-1071.15 L 9.05655,-1070.96 L 9.22748,-1070.76 L 9.37117,-1070.53 L 9.48534,-1070.29 L 9.56821,-1070.03
 L 9.61845,-1069.77 L 9.63528,-1069.5 L 9.61845,-1069.23 L 9.56821,-1068.97 L 9.48534,-1068.71 L 9.37117,-1068.47
 L 9.22748,-1068.24 L 9.05655,-1068.04 L 8.86108,-1067.85 L 8.64413,-1067.7 L 8.40915,-1067.57 L 8.15984,-1067.47
 L 7.9001,-1067.4 L 7.63406,-1067.37 z
M -7.63406,-1067.37 L -7.9001,-1067.4 L -8.15984,-1067.47 L -8.40915,-1067.57 L -8.64413,-1067.7 L -8.86108,-1067.85
 L -9.05655,-1068.04 L -9.22748,-1068.24 L -9.37117,-1068.47 L -9.48534,-1068.71 L -9.56821,-1068.97 L -9.61845,-1069.23
 L -9.63528,-1069.5 L -9.61845,-1069.77 L -9.56821,-1070.03 L -9.48534,-1070.29 L -9.37117,-1070.53 L -9.22748,-1070.76
 L -9.05655,-1070.96 L -8.86108,-1071.15 L -8.64413,-1071.3 L -8.40915,-1071.43 L -8.15984,-1071.53 L -7.9001,-1071.6
 L -7.63406,-1071.63 L -7.36592,-1071.63 L -7.09988,-1071.6 L -6.84015,-1071.53 L -6.59084,-1071.43 L -6.35585,-1071.3
 L -6.1389,-1071.15 L -5.94344,-1070.96 L -5.77251,-1070.76 L -5.62881,-1070.53 L -5.51465,-1070.29 L -5.43178,-1070.03
 L -5.38153,-1069.77 L -5.3647,-1069.5 L -5.38153,-1069.23 L -5.43178,-1068.97 L -5.51465,-1068.71 L -5.62881,-1068.47
 L -5.77251,-1068.24 L -5.94344,-1068.04 L -6.1389,-1067.85 L -6.35585,-1067.7 L -6.59084,-1067.57 L -6.84015,-1067.47
 L -7.09988,-1067.4 L -7.36592,-1067.37 z
M 7.36592,-782.369 L 7.09988,-782.403 L 6.84015,-782.469 L 6.59084,-782.568 L 6.35585,-782.697 L 6.1389,-782.855
 L 5.94344,-783.038 L 5.77251,-783.245 L 5.62881,-783.471 L 5.51465,-783.714 L 5.43178,-783.969 L 5.38153,-784.232
 L 5.3647,-784.5 L 5.38153,-784.768 L 5.43178,-785.031 L 5.51465,-785.286 L 5.62881,-785.529 L 5.77251,-785.755
 L 5.94344,-785.962 L 6.1389,-786.145 L 6.35585,-786.303 L 6.59084,-786.432 L 6.84015,-786.531 L 7.09988,-786.597
 L 7.36592,-786.631 L 7.63406,-786.631 L 7.9001,-786.597 L 8.15984,-786.531 L 8.40915,-786.432 L 8.64413,-786.303
 L 8.86108,-786.145 L 9.05655,-785.962 L 9.22748,-785.755 L 9.37117,-785.529 L 9.48534,-785.286 L 9.56821,-785.031
 L 9.61845,-784.768 L 9.63528,-784.5 L 9.61845,-784.232 L 9.56821,-783.969 L 9.48534,-783.714 L 9.37117,-783.471
 L 9.22748,-783.245 L 9.05655,-783.038 L 8.86108,-782.855 L 8.64413,-782.697 L 8.40915,-782.568 L 8.15984,-782.469
 L 7.9001,-782.403 L 7.63406,-782.369 z
M -7.63406,-782.369 L -7.9001,-782.403 L -8.15984,-782.469 L -8.40915,-782.568 L -8.64413,-782.697 L -8.86108,-782.855
 L -9.05655,-783.038 L -9.22748,-783.245 L -9.37117,-783.471 L -9.48534,-783.714 L -9.56821,-783.969 L -9.61845,-784.232
 L -9.63528,-784.5 L -9.61845,-784.768 L -9.56821,-785.031 L -9.48534,-785.286 L -9.37117,-785.529 L -9.22748,-785.755
 L -9.05655,-785.962 L -8.86108,-786.145 L -8.64413,-786.303 L -8.40915,-786.432 L -8.15984,-786.531 L -7.9001,-786.597
 L -7.63406,-786.631 L -7.36592,-786.631 L -7.09988,-786.597 L -6.84015,-786.531 L -6.59084,-786.432 L -6.35585,-786.303
 L -6.1389,-786.145 L -5.94344,-785.962 L -5.77251,-785.755 L -5.62881,-785.529 L -5.51465,-785.286 L -5.43178,-785.031
 L -5.38153,-784.768 L -5.3647,-784.5 L -5.38153,-784.232 L -5.43178,-783.969 L -5.51465,-783.714 L -5.62881,-783.471
 L -5.77251,-783.245 L -5.94344,-783.038 L -6.1389,-782.855 L -6.35585,-782.697 L -6.59084,-782.568 L -6.84015,-782.469
 L -7.09988,-782.403 L -7.36592,-782.369 z
" stroke="black" fill="lightgray" stroke-width="0.5"/>
</svg>
