solid OpenSCAD_Model
  facet normal 0.998026 0.062808 0
    outer loop
      vertex 16 0 7
      vertex 15.8738 2.00533 0
      vertex 15.8738 2.00533 7
    endloop
  endfacet
  facet normal 0.998026 0.062808 0
    outer loop
      vertex 15.8738 2.00533 0
      vertex 16 0 7
      vertex 16 0 0
    endloop
  endfacet
  facet normal -0.998026 0.062808 0
    outer loop
      vertex -16 0 0
      vertex -15.8738 2.00533 7
      vertex -15.8738 2.00533 0
    endloop
  endfacet
  facet normal -0.998026 0.062808 0
    outer loop
      vertex -15.8738 2.00533 7
      vertex -16 0 0
      vertex -16 0 7
    endloop
  endfacet
  facet normal 0 1 -0
    outer loop
      vertex 1.00465 15.9684 0
      vertex -1.00465 15.9684 7
      vertex 1.00465 15.9684 7
    endloop
  endfacet
  facet normal 0 1 0
    outer loop
      vertex -1.00465 15.9684 7
      vertex 1.00465 15.9684 0
      vertex -1.00465 15.9684 0
    endloop
  endfacet
  facet normal 0 -1 0
    outer loop
      vertex -1.00465 -15.9684 0
      vertex 1.00465 -15.9684 7
      vertex -1.00465 -15.9684 7
    endloop
  endfacet
  facet normal 0 -1 -0
    outer loop
      vertex 1.00465 -15.9684 7
      vertex -1.00465 -15.9684 0
      vertex 1.00465 -15.9684 0
    endloop
  endfacet
  facet normal 0.684535 -0.72898 0
    outer loop
      vertex 10.1988 -12.3282 0
      vertex 11.6635 -10.9528 7
      vertex 10.1988 -12.3282 7
    endloop
  endfacet
  facet normal 0.684535 -0.72898 0
    outer loop
      vertex 11.6635 -10.9528 7
      vertex 10.1988 -12.3282 0
      vertex 11.6635 -10.9528 0
    endloop
  endfacet
  facet normal 0.684535 0.72898 -0
    outer loop
      vertex 11.6635 10.9528 0
      vertex 10.1988 12.3282 7
      vertex 11.6635 10.9528 7
    endloop
  endfacet
  facet normal 0.684535 0.72898 0
    outer loop
      vertex 10.1988 12.3282 7
      vertex 11.6635 10.9528 0
      vertex 10.1988 12.3282 0
    endloop
  endfacet
  facet normal -0.684535 0.72898 0
    outer loop
      vertex -10.1988 12.3282 0
      vertex -11.6635 10.9528 7
      vertex -10.1988 12.3282 7
    endloop
  endfacet
  facet normal -0.684535 0.72898 0
    outer loop
      vertex -11.6635 10.9528 7
      vertex -10.1988 12.3282 0
      vertex -11.6635 10.9528 0
    endloop
  endfacet
  facet normal -0.368136 0.929772 0
    outer loop
      vertex -4.94427 15.2169 0
      vertex -6.81247 14.4772 7
      vertex -4.94427 15.2169 7
    endloop
  endfacet
  facet normal -0.368136 0.929772 0
    outer loop
      vertex -6.81247 14.4772 7
      vertex -4.94427 15.2169 0
      vertex -6.81247 14.4772 0
    endloop
  endfacet
  facet normal 0.904831 0.425772 0
    outer loop
      vertex 14.8764 5.88999 7
      vertex 14.0209 7.70806 0
      vertex 14.0209 7.70806 7
    endloop
  endfacet
  facet normal 0.904831 0.425772 0
    outer loop
      vertex 14.0209 7.70806 0
      vertex 14.8764 5.88999 7
      vertex 14.8764 5.88999 0
    endloop
  endfacet
  facet normal 0.368136 0.929772 -0
    outer loop
      vertex 6.81247 14.4772 0
      vertex 4.94427 15.2169 7
      vertex 6.81247 14.4772 7
    endloop
  endfacet
  facet normal 0.368136 0.929772 0
    outer loop
      vertex 4.94427 15.2169 7
      vertex 6.81247 14.4772 0
      vertex 4.94427 15.2169 0
    endloop
  endfacet
  facet normal 0.248694 0.968582 -0
    outer loop
      vertex 4.94427 15.2169 0
      vertex 2.9981 15.7166 7
      vertex 4.94427 15.2169 7
    endloop
  endfacet
  facet normal 0.248694 0.968582 0
    outer loop
      vertex 2.9981 15.7166 7
      vertex 4.94427 15.2169 0
      vertex 2.9981 15.7166 0
    endloop
  endfacet
  facet normal 0.481759 0.876304 -0
    outer loop
      vertex 8.57323 13.5092 0
      vertex 6.81247 14.4772 7
      vertex 8.57323 13.5092 7
    endloop
  endfacet
  facet normal 0.481759 0.876304 0
    outer loop
      vertex 6.81247 14.4772 7
      vertex 8.57323 13.5092 0
      vertex 6.81247 14.4772 0
    endloop
  endfacet
  facet normal -0.904831 0.425772 0
    outer loop
      vertex -14.8764 5.88999 0
      vertex -14.0209 7.70806 7
      vertex -14.0209 7.70806 0
    endloop
  endfacet
  facet normal -0.904831 0.425772 0
    outer loop
      vertex -14.0209 7.70806 7
      vertex -14.8764 5.88999 0
      vertex -14.8764 5.88999 7
    endloop
  endfacet
  facet normal -0.844335 0.535816 0
    outer loop
      vertex -14.0209 7.70806 0
      vertex -12.9443 9.40456 7
      vertex -12.9443 9.40456 0
    endloop
  endfacet
  facet normal -0.844335 0.535816 0
    outer loop
      vertex -12.9443 9.40456 7
      vertex -14.0209 7.70806 0
      vertex -14.0209 7.70806 7
    endloop
  endfacet
  facet normal -0.951057 0.309015 0
    outer loop
      vertex -15.4973 3.97904 0
      vertex -14.8764 5.88999 7
      vertex -14.8764 5.88999 0
    endloop
  endfacet
  facet normal -0.951057 0.309015 0
    outer loop
      vertex -14.8764 5.88999 7
      vertex -15.4973 3.97904 0
      vertex -15.4973 3.97904 7
    endloop
  endfacet
  facet normal -0.58777 0.809028 0
    outer loop
      vertex -8.57323 13.5092 0
      vertex -10.1988 12.3282 7
      vertex -8.57323 13.5092 7
    endloop
  endfacet
  facet normal -0.58777 0.809028 0
    outer loop
      vertex -10.1988 12.3282 7
      vertex -8.57323 13.5092 0
      vertex -10.1988 12.3282 0
    endloop
  endfacet
  facet normal -0.125318 0.992117 0
    outer loop
      vertex -1.00465 15.9684 0
      vertex -2.9981 15.7166 7
      vertex -1.00465 15.9684 7
    endloop
  endfacet
  facet normal -0.125318 0.992117 0
    outer loop
      vertex -2.9981 15.7166 7
      vertex -1.00465 15.9684 0
      vertex -2.9981 15.7166 0
    endloop
  endfacet
  facet normal 0.125318 -0.992117 0
    outer loop
      vertex 1.00465 -15.9684 0
      vertex 2.9981 -15.7166 7
      vertex 1.00465 -15.9684 7
    endloop
  endfacet
  facet normal 0.125318 -0.992117 0
    outer loop
      vertex 2.9981 -15.7166 7
      vertex 1.00465 -15.9684 0
      vertex 2.9981 -15.7166 0
    endloop
  endfacet
  facet normal 0.951057 0.309015 0
    outer loop
      vertex 15.4973 3.97904 7
      vertex 14.8764 5.88999 0
      vertex 14.8764 5.88999 7
    endloop
  endfacet
  facet normal 0.951057 0.309015 0
    outer loop
      vertex 14.8764 5.88999 0
      vertex 15.4973 3.97904 7
      vertex 15.4973 3.97904 0
    endloop
  endfacet
  facet normal 0.982288 0.187379 0
    outer loop
      vertex 15.8738 2.00533 7
      vertex 15.4973 3.97904 0
      vertex 15.4973 3.97904 7
    endloop
  endfacet
  facet normal 0.982288 0.187379 0
    outer loop
      vertex 15.4973 3.97904 0
      vertex 15.8738 2.00533 7
      vertex 15.8738 2.00533 0
    endloop
  endfacet
  facet normal 0.770517 0.637419 0
    outer loop
      vertex 12.9443 9.40456 7
      vertex 11.6635 10.9528 0
      vertex 11.6635 10.9528 7
    endloop
  endfacet
  facet normal 0.770517 0.637419 0
    outer loop
      vertex 11.6635 10.9528 0
      vertex 12.9443 9.40456 7
      vertex 12.9443 9.40456 0
    endloop
  endfacet
  facet normal 0.844335 0.535816 0
    outer loop
      vertex 14.0209 7.70806 7
      vertex 12.9443 9.40456 0
      vertex 12.9443 9.40456 7
    endloop
  endfacet
  facet normal 0.844335 0.535816 0
    outer loop
      vertex 12.9443 9.40456 0
      vertex 14.0209 7.70806 7
      vertex 14.0209 7.70806 0
    endloop
  endfacet
  facet normal 0.125318 0.992117 -0
    outer loop
      vertex 2.9981 15.7166 0
      vertex 1.00465 15.9684 7
      vertex 2.9981 15.7166 7
    endloop
  endfacet
  facet normal 0.125318 0.992117 0
    outer loop
      vertex 1.00465 15.9684 7
      vertex 2.9981 15.7166 0
      vertex 1.00465 15.9684 0
    endloop
  endfacet
  facet normal 0.58777 0.809028 -0
    outer loop
      vertex 10.1988 12.3282 0
      vertex 8.57323 13.5092 7
      vertex 10.1988 12.3282 7
    endloop
  endfacet
  facet normal 0.58777 0.809028 0
    outer loop
      vertex 8.57323 13.5092 7
      vertex 10.1988 12.3282 0
      vertex 8.57323 13.5092 0
    endloop
  endfacet
  facet normal -0.982288 0.187379 0
    outer loop
      vertex -15.8738 2.00533 0
      vertex -15.4973 3.97904 7
      vertex -15.4973 3.97904 0
    endloop
  endfacet
  facet normal -0.982288 0.187379 0
    outer loop
      vertex -15.4973 3.97904 7
      vertex -15.8738 2.00533 0
      vertex -15.8738 2.00533 7
    endloop
  endfacet
  facet normal 0 0 1
    outer loop
      vertex 10 0 7
      vertex 16 0 7
      vertex 15.8738 2.00533 7
    endloop
  endfacet
  facet normal 0 0 1
    outer loop
      vertex 9.92115 1.25333 7
      vertex 15.8738 2.00533 7
      vertex 15.4973 3.97904 7
    endloop
  endfacet
  facet normal 0 0 1
    outer loop
      vertex 16 0 7
      vertex 10 0 7
      vertex 15.8738 -2.00533 7
    endloop
  endfacet
  facet normal 0 0 1
    outer loop
      vertex 9.68583 2.4869 7
      vertex 15.4973 3.97904 7
      vertex 14.8764 5.88999 7
    endloop
  endfacet
  facet normal -0 0 1
    outer loop
      vertex 9.92115 -1.25333 7
      vertex 15.8738 -2.00533 7
      vertex 10 0 7
    endloop
  endfacet
  facet normal 0 0 1
    outer loop
      vertex 9.29776 3.68124 7
      vertex 14.8764 5.88999 7
      vertex 14.0209 7.70806 7
    endloop
  endfacet
  facet normal 0 0 1
    outer loop
      vertex 15.8738 -2.00533 7
      vertex 9.92115 -1.25333 7
      vertex 15.4973 -3.97904 7
    endloop
  endfacet
  facet normal 0 0 1
    outer loop
      vertex 8.76307 4.81754 7
      vertex 14.0209 7.70806 7
      vertex 12.9443 9.40456 7
    endloop
  endfacet
  facet normal -0 0 1
    outer loop
      vertex 9.68583 -2.4869 7
      vertex 15.4973 -3.97904 7
      vertex 9.92115 -1.25333 7
    endloop
  endfacet
  facet normal 0 0 1
    outer loop
      vertex 8.09017 5.87785 7
      vertex 12.9443 9.40456 7
      vertex 11.6635 10.9528 7
    endloop
  endfacet
  facet normal 0 0 1
    outer loop
      vertex 15.4973 -3.97904 7
      vertex 9.68583 -2.4869 7
      vertex 14.8764 -5.88999 7
    endloop
  endfacet
  facet normal 0 0 1
    outer loop
      vertex 7.28969 6.84547 7
      vertex 11.6635 10.9528 7
      vertex 10.1988 12.3282 7
    endloop
  endfacet
  facet normal -0 0 1
    outer loop
      vertex 9.29776 -3.68124 7
      vertex 14.8764 -5.88999 7
      vertex 9.68583 -2.4869 7
    endloop
  endfacet
  facet normal 0 0 1
    outer loop
      vertex 14.8764 -5.88999 7
      vertex 9.29776 -3.68124 7
      vertex 14.0209 -7.70806 7
    endloop
  endfacet
  facet normal 0 0 1
    outer loop
      vertex 15.8738 2.00533 7
      vertex 9.92115 1.25333 7
      vertex 10 0 7
    endloop
  endfacet
  facet normal 0 0 1
    outer loop
      vertex 15.4973 3.97904 7
      vertex 9.68583 2.4869 7
      vertex 9.92115 1.25333 7
    endloop
  endfacet
  facet normal 0 0 1
    outer loop
      vertex 14.8764 5.88999 7
      vertex 9.29776 3.68124 7
      vertex 9.68583 2.4869 7
    endloop
  endfacet
  facet normal 0 0 1
    outer loop
      vertex 14.0209 7.70806 7
      vertex 8.76307 4.81754 7
      vertex 9.29776 3.68124 7
    endloop
  endfacet
  facet normal 0 0 1
    outer loop
      vertex 6.37424 7.70513 7
      vertex 10.1988 12.3282 7
      vertex 8.57323 13.5092 7
    endloop
  endfacet
  facet normal 0 0 1
    outer loop
      vertex 12.9443 9.40456 7
      vertex 8.09017 5.87785 7
      vertex 8.76307 4.81754 7
    endloop
  endfacet
  facet normal 0 0 1
    outer loop
      vertex 11.6635 10.9528 7
      vertex 7.28969 6.84547 7
      vertex 8.09017 5.87785 7
    endloop
  endfacet
  facet normal 0 0 1
    outer loop
      vertex 5.35827 8.44328 7
      vertex 8.57323 13.5092 7
      vertex 6.81247 14.4772 7
    endloop
  endfacet
  facet normal 0 0 1
    outer loop
      vertex 10.1988 12.3282 7
      vertex 6.37424 7.70513 7
      vertex 7.28969 6.84547 7
    endloop
  endfacet
  facet normal 0 0 1
    outer loop
      vertex 8.57323 13.5092 7
      vertex 5.35827 8.44328 7
      vertex 6.37424 7.70513 7
    endloop
  endfacet
  facet normal 0 0 1
    outer loop
      vertex 4.25779 9.04827 7
      vertex 6.81247 14.4772 7
      vertex 4.94427 15.2169 7
    endloop
  endfacet
  facet normal 0 0 1
    outer loop
      vertex 6.81247 14.4772 7
      vertex 4.25779 9.04827 7
      vertex 5.35827 8.44328 7
    endloop
  endfacet
  facet normal 0 0 1
    outer loop
      vertex 4.94427 15.2169 7
      vertex 3.09017 9.51056 7
      vertex 4.25779 9.04827 7
    endloop
  endfacet
  facet normal 0 0 1
    outer loop
      vertex 2.9981 15.7166 7
      vertex 3.09017 9.51056 7
      vertex 4.94427 15.2169 7
    endloop
  endfacet
  facet normal 0 0 1
    outer loop
      vertex 2.9981 15.7166 7
      vertex 1.87381 9.82287 7
      vertex 3.09017 9.51056 7
    endloop
  endfacet
  facet normal 0 0 1
    outer loop
      vertex 1.00465 15.9684 7
      vertex 1.87381 9.82287 7
      vertex 2.9981 15.7166 7
    endloop
  endfacet
  facet normal 0 0 1
    outer loop
      vertex 1.00465 15.9684 7
      vertex 0.627905 9.98027 7
      vertex 1.87381 9.82287 7
    endloop
  endfacet
  facet normal 0 0 1
    outer loop
      vertex 1.00465 15.9684 7
      vertex -0.627905 9.98027 7
      vertex 0.627905 9.98027 7
    endloop
  endfacet
  facet normal -0 0 1
    outer loop
      vertex -1.00465 15.9684 7
      vertex -0.627905 9.98027 7
      vertex 1.00465 15.9684 7
    endloop
  endfacet
  facet normal 0 0 1
    outer loop
      vertex -1.00465 15.9684 7
      vertex -1.87381 9.82287 7
      vertex -0.627905 9.98027 7
    endloop
  endfacet
  facet normal -0 0 1
    outer loop
      vertex -2.9981 15.7166 7
      vertex -1.87381 9.82287 7
      vertex -1.00465 15.9684 7
    endloop
  endfacet
  facet normal 0 0 1
    outer loop
      vertex -2.9981 15.7166 7
      vertex -3.09017 9.51056 7
      vertex -1.87381 9.82287 7
    endloop
  endfacet
  facet normal -0 0 1
    outer loop
      vertex -4.94427 15.2169 7
      vertex -3.09017 9.51056 7
      vertex -2.9981 15.7166 7
    endloop
  endfacet
  facet normal 0 0 1
    outer loop
      vertex -3.09017 9.51056 7
      vertex -4.94427 15.2169 7
      vertex -4.25779 9.04827 7
    endloop
  endfacet
  facet normal -0 0 1
    outer loop
      vertex -6.81247 14.4772 7
      vertex -4.25779 9.04827 7
      vertex -4.94427 15.2169 7
    endloop
  endfacet
  facet normal 0 0 1
    outer loop
      vertex -4.25779 9.04827 7
      vertex -6.81247 14.4772 7
      vertex -5.35827 8.44328 7
    endloop
  endfacet
  facet normal -0 0 1
    outer loop
      vertex -8.57323 13.5092 7
      vertex -5.35827 8.44328 7
      vertex -6.81247 14.4772 7
    endloop
  endfacet
  facet normal 0 0 1
    outer loop
      vertex -5.35827 8.44328 7
      vertex -8.57323 13.5092 7
      vertex -6.37424 7.70513 7
    endloop
  endfacet
  facet normal -0 0 1
    outer loop
      vertex -10.1988 12.3282 7
      vertex -6.37424 7.70513 7
      vertex -8.57323 13.5092 7
    endloop
  endfacet
  facet normal 0 0 1
    outer loop
      vertex -6.37424 7.70513 7
      vertex -10.1988 12.3282 7
      vertex -7.28969 6.84547 7
    endloop
  endfacet
  facet normal -0 0 1
    outer loop
      vertex -11.6635 10.9528 7
      vertex -7.28969 6.84547 7
      vertex -10.1988 12.3282 7
    endloop
  endfacet
  facet normal 0 0 1
    outer loop
      vertex -7.28969 6.84547 7
      vertex -11.6635 10.9528 7
      vertex -8.09017 5.87785 7
    endloop
  endfacet
  facet normal -0 0 1
    outer loop
      vertex -12.9443 9.40456 7
      vertex -8.09017 5.87785 7
      vertex -11.6635 10.9528 7
    endloop
  endfacet
  facet normal 0 0 1
    outer loop
      vertex -8.09017 5.87785 7
      vertex -12.9443 9.40456 7
      vertex -8.76307 4.81754 7
    endloop
  endfacet
  facet normal 0 0 1
    outer loop
      vertex -8.76307 4.81754 7
      vertex -14.0209 7.70806 7
      vertex -9.29776 3.68124 7
    endloop
  endfacet
  facet normal -0 0 1
    outer loop
      vertex -14.0209 7.70806 7
      vertex -8.76307 4.81754 7
      vertex -12.9443 9.40456 7
    endloop
  endfacet
  facet normal -0 0 1
    outer loop
      vertex 8.76307 -4.81754 7
      vertex 14.0209 -7.70806 7
      vertex 9.29776 -3.68124 7
    endloop
  endfacet
  facet normal 0 0 1
    outer loop
      vertex 14.0209 -7.70806 7
      vertex 8.76307 -4.81754 7
      vertex 12.9443 -9.40456 7
    endloop
  endfacet
  facet normal -0 0 1
    outer loop
      vertex 8.09017 -5.87785 7
      vertex 12.9443 -9.40456 7
      vertex 8.76307 -4.81754 7
    endloop
  endfacet
  facet normal 0 0 1
    outer loop
      vertex 12.9443 -9.40456 7
      vertex 8.09017 -5.87785 7
      vertex 11.6635 -10.9528 7
    endloop
  endfacet
  facet normal -0 0 1
    outer loop
      vertex 7.28969 -6.84547 7
      vertex 11.6635 -10.9528 7
      vertex 8.09017 -5.87785 7
    endloop
  endfacet
  facet normal 0 0 1
    outer loop
      vertex 11.6635 -10.9528 7
      vertex 7.28969 -6.84547 7
      vertex 10.1988 -12.3282 7
    endloop
  endfacet
  facet normal -0 0 1
    outer loop
      vertex 6.37424 -7.70513 7
      vertex 10.1988 -12.3282 7
      vertex 7.28969 -6.84547 7
    endloop
  endfacet
  facet normal 0 0 1
    outer loop
      vertex 10.1988 -12.3282 7
      vertex 6.37424 -7.70513 7
      vertex 8.57323 -13.5092 7
    endloop
  endfacet
  facet normal -0 0 1
    outer loop
      vertex 5.35827 -8.44328 7
      vertex 8.57323 -13.5092 7
      vertex 6.37424 -7.70513 7
    endloop
  endfacet
  facet normal 0 0 1
    outer loop
      vertex 8.57323 -13.5092 7
      vertex 5.35827 -8.44328 7
      vertex 6.81247 -14.4772 7
    endloop
  endfacet
  facet normal -0 0 1
    outer loop
      vertex 4.25779 -9.04827 7
      vertex 6.81247 -14.4772 7
      vertex 5.35827 -8.44328 7
    endloop
  endfacet
  facet normal 0 0 1
    outer loop
      vertex 6.81247 -14.4772 7
      vertex 4.25779 -9.04827 7
      vertex 4.94427 -15.2169 7
    endloop
  endfacet
  facet normal -0 0 1
    outer loop
      vertex 3.09017 -9.51056 7
      vertex 4.94427 -15.2169 7
      vertex 4.25779 -9.04827 7
    endloop
  endfacet
  facet normal 0 0 1
    outer loop
      vertex 3.09017 -9.51056 7
      vertex 2.9981 -15.7166 7
      vertex 4.94427 -15.2169 7
    endloop
  endfacet
  facet normal -0 0 1
    outer loop
      vertex 1.87381 -9.82287 7
      vertex 2.9981 -15.7166 7
      vertex 3.09017 -9.51056 7
    endloop
  endfacet
  facet normal 0 0 1
    outer loop
      vertex 1.87381 -9.82287 7
      vertex 1.00465 -15.9684 7
      vertex 2.9981 -15.7166 7
    endloop
  endfacet
  facet normal -0 0 1
    outer loop
      vertex 0.627905 -9.98027 7
      vertex 1.00465 -15.9684 7
      vertex 1.87381 -9.82287 7
    endloop
  endfacet
  facet normal -0 0 1
    outer loop
      vertex -0.627905 -9.98027 7
      vertex 1.00465 -15.9684 7
      vertex 0.627905 -9.98027 7
    endloop
  endfacet
  facet normal 0 0 1
    outer loop
      vertex -0.627905 -9.98027 7
      vertex -1.00465 -15.9684 7
      vertex 1.00465 -15.9684 7
    endloop
  endfacet
  facet normal 0 0 1
    outer loop
      vertex -1.87381 -9.82287 7
      vertex -1.00465 -15.9684 7
      vertex -0.627905 -9.98027 7
    endloop
  endfacet
  facet normal 0 0 1
    outer loop
      vertex -1.87381 -9.82287 7
      vertex -2.9981 -15.7166 7
      vertex -1.00465 -15.9684 7
    endloop
  endfacet
  facet normal 0 0 1
    outer loop
      vertex -3.09017 -9.51056 7
      vertex -2.9981 -15.7166 7
      vertex -1.87381 -9.82287 7
    endloop
  endfacet
  facet normal 0 0 1
    outer loop
      vertex -4.94427 -15.2169 7
      vertex -3.09017 -9.51056 7
      vertex -4.25779 -9.04827 7
    endloop
  endfacet
  facet normal 0 0 1
    outer loop
      vertex -3.09017 -9.51056 7
      vertex -4.94427 -15.2169 7
      vertex -2.9981 -15.7166 7
    endloop
  endfacet
  facet normal 0 0 1
    outer loop
      vertex -6.81247 -14.4772 7
      vertex -4.25779 -9.04827 7
      vertex -5.35827 -8.44328 7
    endloop
  endfacet
  facet normal 0 0 1
    outer loop
      vertex -8.57323 -13.5092 7
      vertex -5.35827 -8.44328 7
      vertex -6.37424 -7.70513 7
    endloop
  endfacet
  facet normal 0 0 1
    outer loop
      vertex -4.25779 -9.04827 7
      vertex -6.81247 -14.4772 7
      vertex -4.94427 -15.2169 7
    endloop
  endfacet
  facet normal 0 0 1
    outer loop
      vertex -10.1988 -12.3282 7
      vertex -6.37424 -7.70513 7
      vertex -7.28969 -6.84547 7
    endloop
  endfacet
  facet normal 0 0 1
    outer loop
      vertex -11.6635 -10.9528 7
      vertex -7.28969 -6.84547 7
      vertex -8.09017 -5.87785 7
    endloop
  endfacet
  facet normal 0 0 1
    outer loop
      vertex -5.35827 -8.44328 7
      vertex -8.57323 -13.5092 7
      vertex -6.81247 -14.4772 7
    endloop
  endfacet
  facet normal 0 0 1
    outer loop
      vertex -12.9443 -9.40456 7
      vertex -8.09017 -5.87785 7
      vertex -8.76307 -4.81754 7
    endloop
  endfacet
  facet normal 0 0 1
    outer loop
      vertex -14.0209 -7.70806 7
      vertex -8.76307 -4.81754 7
      vertex -9.29776 -3.68124 7
    endloop
  endfacet
  facet normal 0 0 1
    outer loop
      vertex -14.8764 -5.88999 7
      vertex -9.29776 -3.68124 7
      vertex -9.68583 -2.4869 7
    endloop
  endfacet
  facet normal 0 0 1
    outer loop
      vertex -15.4973 -3.97904 7
      vertex -9.68583 -2.4869 7
      vertex -9.92115 -1.25333 7
    endloop
  endfacet
  facet normal 0 0 1
    outer loop
      vertex -6.37424 -7.70513 7
      vertex -10.1988 -12.3282 7
      vertex -8.57323 -13.5092 7
    endloop
  endfacet
  facet normal 0 0 1
    outer loop
      vertex -15.8738 -2.00533 7
      vertex -9.92115 -1.25333 7
      vertex -10 0 7
    endloop
  endfacet
  facet normal -0 0 1
    outer loop
      vertex -14.8764 5.88999 7
      vertex -9.29776 3.68124 7
      vertex -14.0209 7.70806 7
    endloop
  endfacet
  facet normal 0 0 1
    outer loop
      vertex -9.29776 3.68124 7
      vertex -14.8764 5.88999 7
      vertex -9.68583 2.4869 7
    endloop
  endfacet
  facet normal 0 0 1
    outer loop
      vertex -7.28969 -6.84547 7
      vertex -11.6635 -10.9528 7
      vertex -10.1988 -12.3282 7
    endloop
  endfacet
  facet normal -0 0 1
    outer loop
      vertex -15.4973 3.97904 7
      vertex -9.68583 2.4869 7
      vertex -14.8764 5.88999 7
    endloop
  endfacet
  facet normal 0 0 1
    outer loop
      vertex -8.09017 -5.87785 7
      vertex -12.9443 -9.40456 7
      vertex -11.6635 -10.9528 7
    endloop
  endfacet
  facet normal 0 0 1
    outer loop
      vertex -9.68583 2.4869 7
      vertex -15.4973 3.97904 7
      vertex -9.92115 1.25333 7
    endloop
  endfacet
  facet normal 0 0 1
    outer loop
      vertex -8.76307 -4.81754 7
      vertex -14.0209 -7.70806 7
      vertex -12.9443 -9.40456 7
    endloop
  endfacet
  facet normal -0 0 1
    outer loop
      vertex -15.8738 2.00533 7
      vertex -9.92115 1.25333 7
      vertex -15.4973 3.97904 7
    endloop
  endfacet
  facet normal 0 0 1
    outer loop
      vertex -9.29776 -3.68124 7
      vertex -14.8764 -5.88999 7
      vertex -14.0209 -7.70806 7
    endloop
  endfacet
  facet normal 0 0 1
    outer loop
      vertex -9.92115 1.25333 7
      vertex -15.8738 2.00533 7
      vertex -10 0 7
    endloop
  endfacet
  facet normal 0 0 1
    outer loop
      vertex -9.68583 -2.4869 7
      vertex -15.4973 -3.97904 7
      vertex -14.8764 -5.88999 7
    endloop
  endfacet
  facet normal 0 0 1
    outer loop
      vertex -16 0 7
      vertex -10 0 7
      vertex -15.8738 2.00533 7
    endloop
  endfacet
  facet normal 0 0 1
    outer loop
      vertex -9.92115 -1.25333 7
      vertex -15.8738 -2.00533 7
      vertex -15.4973 -3.97904 7
    endloop
  endfacet
  facet normal 0 0 1
    outer loop
      vertex -10 0 7
      vertex -16 0 7
      vertex -15.8738 -2.00533 7
    endloop
  endfacet
  facet normal 0.998026 -0.062808 0
    outer loop
      vertex 15.8738 -2.00533 7
      vertex 16 0 0
      vertex 16 0 7
    endloop
  endfacet
  facet normal 0.998026 -0.062808 0
    outer loop
      vertex 16 0 0
      vertex 15.8738 -2.00533 7
      vertex 15.8738 -2.00533 0
    endloop
  endfacet
  facet normal 0.904831 -0.425772 0
    outer loop
      vertex 14.0209 -7.70806 7
      vertex 14.8764 -5.88999 0
      vertex 14.8764 -5.88999 7
    endloop
  endfacet
  facet normal 0.904831 -0.425772 0
    outer loop
      vertex 14.8764 -5.88999 0
      vertex 14.0209 -7.70806 7
      vertex 14.0209 -7.70806 0
    endloop
  endfacet
  facet normal -0.368136 -0.929772 0
    outer loop
      vertex -6.81247 -14.4772 0
      vertex -4.94427 -15.2169 7
      vertex -6.81247 -14.4772 7
    endloop
  endfacet
  facet normal -0.368136 -0.929772 -0
    outer loop
      vertex -4.94427 -15.2169 7
      vertex -6.81247 -14.4772 0
      vertex -4.94427 -15.2169 0
    endloop
  endfacet
  facet normal -0.904831 -0.425772 0
    outer loop
      vertex -14.0209 -7.70806 0
      vertex -14.8764 -5.88999 7
      vertex -14.8764 -5.88999 0
    endloop
  endfacet
  facet normal -0.904831 -0.425772 0
    outer loop
      vertex -14.8764 -5.88999 7
      vertex -14.0209 -7.70806 0
      vertex -14.0209 -7.70806 7
    endloop
  endfacet
  facet normal 0 0 -1
    outer loop
      vertex 10 0 0
      vertex 16 0 0
      vertex 15.8738 -2.00533 0
    endloop
  endfacet
  facet normal 0 0 -1
    outer loop
      vertex 9.92115 -1.25333 0
      vertex 15.8738 -2.00533 0
      vertex 15.4973 -3.97904 0
    endloop
  endfacet
  facet normal 0 0 -1
    outer loop
      vertex 16 0 0
      vertex 10 0 0
      vertex 15.8738 2.00533 0
    endloop
  endfacet
  facet normal 0 0 -1
    outer loop
      vertex 9.68583 -2.4869 0
      vertex 15.4973 -3.97904 0
      vertex 14.8764 -5.88999 0
    endloop
  endfacet
  facet normal 0 0 -1
    outer loop
      vertex 9.92115 1.25333 0
      vertex 15.8738 2.00533 0
      vertex 10 0 0
    endloop
  endfacet
  facet normal 0 0 -1
    outer loop
      vertex 9.29776 -3.68124 0
      vertex 14.8764 -5.88999 0
      vertex 14.0209 -7.70806 0
    endloop
  endfacet
  facet normal -0 0 -1
    outer loop
      vertex 15.8738 2.00533 0
      vertex 9.92115 1.25333 0
      vertex 15.4973 3.97904 0
    endloop
  endfacet
  facet normal 0 0 -1
    outer loop
      vertex 8.76307 -4.81754 0
      vertex 14.0209 -7.70806 0
      vertex 12.9443 -9.40456 0
    endloop
  endfacet
  facet normal 0 0 -1
    outer loop
      vertex 9.68583 2.4869 0
      vertex 15.4973 3.97904 0
      vertex 9.92115 1.25333 0
    endloop
  endfacet
  facet normal 0 0 -1
    outer loop
      vertex 8.09017 -5.87785 0
      vertex 12.9443 -9.40456 0
      vertex 11.6635 -10.9528 0
    endloop
  endfacet
  facet normal -0 0 -1
    outer loop
      vertex 15.4973 3.97904 0
      vertex 9.68583 2.4869 0
      vertex 14.8764 5.88999 0
    endloop
  endfacet
  facet normal 0 0 -1
    outer loop
      vertex 7.28969 -6.84547 0
      vertex 11.6635 -10.9528 0
      vertex 10.1988 -12.3282 0
    endloop
  endfacet
  facet normal 0 0 -1
    outer loop
      vertex 9.29776 3.68124 0
      vertex 14.8764 5.88999 0
      vertex 9.68583 2.4869 0
    endloop
  endfacet
  facet normal -0 0 -1
    outer loop
      vertex 14.8764 5.88999 0
      vertex 9.29776 3.68124 0
      vertex 14.0209 7.70806 0
    endloop
  endfacet
  facet normal 0 0 -1
    outer loop
      vertex 15.8738 -2.00533 0
      vertex 9.92115 -1.25333 0
      vertex 10 0 0
    endloop
  endfacet
  facet normal 0 0 -1
    outer loop
      vertex 15.4973 -3.97904 0
      vertex 9.68583 -2.4869 0
      vertex 9.92115 -1.25333 0
    endloop
  endfacet
  facet normal 0 0 -1
    outer loop
      vertex 14.8764 -5.88999 0
      vertex 9.29776 -3.68124 0
      vertex 9.68583 -2.4869 0
    endloop
  endfacet
  facet normal 0 0 -1
    outer loop
      vertex 14.0209 -7.70806 0
      vertex 8.76307 -4.81754 0
      vertex 9.29776 -3.68124 0
    endloop
  endfacet
  facet normal 0 0 -1
    outer loop
      vertex 6.37424 -7.70513 0
      vertex 10.1988 -12.3282 0
      vertex 8.57323 -13.5092 0
    endloop
  endfacet
  facet normal 0 0 -1
    outer loop
      vertex 12.9443 -9.40456 0
      vertex 8.09017 -5.87785 0
      vertex 8.76307 -4.81754 0
    endloop
  endfacet
  facet normal 0 0 -1
    outer loop
      vertex 11.6635 -10.9528 0
      vertex 7.28969 -6.84547 0
      vertex 8.09017 -5.87785 0
    endloop
  endfacet
  facet normal 0 0 -1
    outer loop
      vertex 5.35827 -8.44328 0
      vertex 8.57323 -13.5092 0
      vertex 6.81247 -14.4772 0
    endloop
  endfacet
  facet normal 0 0 -1
    outer loop
      vertex 10.1988 -12.3282 0
      vertex 6.37424 -7.70513 0
      vertex 7.28969 -6.84547 0
    endloop
  endfacet
  facet normal 0 0 -1
    outer loop
      vertex 8.57323 -13.5092 0
      vertex 5.35827 -8.44328 0
      vertex 6.37424 -7.70513 0
    endloop
  endfacet
  facet normal 0 0 -1
    outer loop
      vertex 4.25779 -9.04827 0
      vertex 6.81247 -14.4772 0
      vertex 4.94427 -15.2169 0
    endloop
  endfacet
  facet normal 0 0 -1
    outer loop
      vertex 6.81247 -14.4772 0
      vertex 4.25779 -9.04827 0
      vertex 5.35827 -8.44328 0
    endloop
  endfacet
  facet normal 0 0 -1
    outer loop
      vertex 4.94427 -15.2169 0
      vertex 3.09017 -9.51056 0
      vertex 4.25779 -9.04827 0
    endloop
  endfacet
  facet normal 0 0 -1
    outer loop
      vertex 2.9981 -15.7166 0
      vertex 3.09017 -9.51056 0
      vertex 4.94427 -15.2169 0
    endloop
  endfacet
  facet normal 0 0 -1
    outer loop
      vertex 2.9981 -15.7166 0
      vertex 1.87381 -9.82287 0
      vertex 3.09017 -9.51056 0
    endloop
  endfacet
  facet normal 0 0 -1
    outer loop
      vertex 1.00465 -15.9684 0
      vertex 1.87381 -9.82287 0
      vertex 2.9981 -15.7166 0
    endloop
  endfacet
  facet normal 0 0 -1
    outer loop
      vertex 1.00465 -15.9684 0
      vertex 0.627905 -9.98027 0
      vertex 1.87381 -9.82287 0
    endloop
  endfacet
  facet normal 0 0 -1
    outer loop
      vertex 1.00465 -15.9684 0
      vertex -0.627905 -9.98027 0
      vertex 0.627905 -9.98027 0
    endloop
  endfacet
  facet normal 0 0 -1
    outer loop
      vertex -1.00465 -15.9684 0
      vertex -0.627905 -9.98027 0
      vertex 1.00465 -15.9684 0
    endloop
  endfacet
  facet normal 0 0 -1
    outer loop
      vertex -1.00465 -15.9684 0
      vertex -1.87381 -9.82287 0
      vertex -0.627905 -9.98027 0
    endloop
  endfacet
  facet normal 0 0 -1
    outer loop
      vertex -2.9981 -15.7166 0
      vertex -1.87381 -9.82287 0
      vertex -1.00465 -15.9684 0
    endloop
  endfacet
  facet normal 0 0 -1
    outer loop
      vertex -2.9981 -15.7166 0
      vertex -3.09017 -9.51056 0
      vertex -1.87381 -9.82287 0
    endloop
  endfacet
  facet normal 0 0 -1
    outer loop
      vertex -4.94427 -15.2169 0
      vertex -3.09017 -9.51056 0
      vertex -2.9981 -15.7166 0
    endloop
  endfacet
  facet normal -0 0 -1
    outer loop
      vertex -3.09017 -9.51056 0
      vertex -4.94427 -15.2169 0
      vertex -4.25779 -9.04827 0
    endloop
  endfacet
  facet normal 0 0 -1
    outer loop
      vertex -6.81247 -14.4772 0
      vertex -4.25779 -9.04827 0
      vertex -4.94427 -15.2169 0
    endloop
  endfacet
  facet normal -0 0 -1
    outer loop
      vertex -4.25779 -9.04827 0
      vertex -6.81247 -14.4772 0
      vertex -5.35827 -8.44328 0
    endloop
  endfacet
  facet normal 0 0 -1
    outer loop
      vertex -8.57323 -13.5092 0
      vertex -5.35827 -8.44328 0
      vertex -6.81247 -14.4772 0
    endloop
  endfacet
  facet normal -0 0 -1
    outer loop
      vertex -5.35827 -8.44328 0
      vertex -8.57323 -13.5092 0
      vertex -6.37424 -7.70513 0
    endloop
  endfacet
  facet normal 0 0 -1
    outer loop
      vertex -10.1988 -12.3282 0
      vertex -6.37424 -7.70513 0
      vertex -8.57323 -13.5092 0
    endloop
  endfacet
  facet normal -0 0 -1
    outer loop
      vertex -6.37424 -7.70513 0
      vertex -10.1988 -12.3282 0
      vertex -7.28969 -6.84547 0
    endloop
  endfacet
  facet normal 0 0 -1
    outer loop
      vertex -11.6635 -10.9528 0
      vertex -7.28969 -6.84547 0
      vertex -10.1988 -12.3282 0
    endloop
  endfacet
  facet normal -0 0 -1
    outer loop
      vertex -7.28969 -6.84547 0
      vertex -11.6635 -10.9528 0
      vertex -8.09017 -5.87785 0
    endloop
  endfacet
  facet normal 0 0 -1
    outer loop
      vertex -12.9443 -9.40456 0
      vertex -8.09017 -5.87785 0
      vertex -11.6635 -10.9528 0
    endloop
  endfacet
  facet normal -0 0 -1
    outer loop
      vertex -8.09017 -5.87785 0
      vertex -12.9443 -9.40456 0
      vertex -8.76307 -4.81754 0
    endloop
  endfacet
  facet normal -0 0 -1
    outer loop
      vertex -8.76307 -4.81754 0
      vertex -14.0209 -7.70806 0
      vertex -9.29776 -3.68124 0
    endloop
  endfacet
  facet normal 0 0 -1
    outer loop
      vertex -14.0209 -7.70806 0
      vertex -8.76307 -4.81754 0
      vertex -12.9443 -9.40456 0
    endloop
  endfacet
  facet normal 0 0 -1
    outer loop
      vertex 8.76307 4.81754 0
      vertex 14.0209 7.70806 0
      vertex 9.29776 3.68124 0
    endloop
  endfacet
  facet normal -0 0 -1
    outer loop
      vertex 14.0209 7.70806 0
      vertex 8.76307 4.81754 0
      vertex 12.9443 9.40456 0
    endloop
  endfacet
  facet normal 0 0 -1
    outer loop
      vertex 8.09017 5.87785 0
      vertex 12.9443 9.40456 0
      vertex 8.76307 4.81754 0
    endloop
  endfacet
  facet normal -0 0 -1
    outer loop
      vertex 12.9443 9.40456 0
      vertex 8.09017 5.87785 0
      vertex 11.6635 10.9528 0
    endloop
  endfacet
  facet normal 0 0 -1
    outer loop
      vertex 7.28969 6.84547 0
      vertex 11.6635 10.9528 0
      vertex 8.09017 5.87785 0
    endloop
  endfacet
  facet normal -0 0 -1
    outer loop
      vertex 11.6635 10.9528 0
      vertex 7.28969 6.84547 0
      vertex 10.1988 12.3282 0
    endloop
  endfacet
  facet normal 0 0 -1
    outer loop
      vertex 6.37424 7.70513 0
      vertex 10.1988 12.3282 0
      vertex 7.28969 6.84547 0
    endloop
  endfacet
  facet normal -0 0 -1
    outer loop
      vertex 10.1988 12.3282 0
      vertex 6.37424 7.70513 0
      vertex 8.57323 13.5092 0
    endloop
  endfacet
  facet normal 0 0 -1
    outer loop
      vertex 5.35827 8.44328 0
      vertex 8.57323 13.5092 0
      vertex 6.37424 7.70513 0
    endloop
  endfacet
  facet normal -0 0 -1
    outer loop
      vertex 8.57323 13.5092 0
      vertex 5.35827 8.44328 0
      vertex 6.81247 14.4772 0
    endloop
  endfacet
  facet normal 0 0 -1
    outer loop
      vertex 4.25779 9.04827 0
      vertex 6.81247 14.4772 0
      vertex 5.35827 8.44328 0
    endloop
  endfacet
  facet normal -0 0 -1
    outer loop
      vertex 6.81247 14.4772 0
      vertex 4.25779 9.04827 0
      vertex 4.94427 15.2169 0
    endloop
  endfacet
  facet normal 0 0 -1
    outer loop
      vertex 3.09017 9.51056 0
      vertex 4.94427 15.2169 0
      vertex 4.25779 9.04827 0
    endloop
  endfacet
  facet normal 0 0 -1
    outer loop
      vertex 3.09017 9.51056 0
      vertex 2.9981 15.7166 0
      vertex 4.94427 15.2169 0
    endloop
  endfacet
  facet normal 0 0 -1
    outer loop
      vertex 1.87381 9.82287 0
      vertex 2.9981 15.7166 0
      vertex 3.09017 9.51056 0
    endloop
  endfacet
  facet normal 0 0 -1
    outer loop
      vertex 1.87381 9.82287 0
      vertex 1.00465 15.9684 0
      vertex 2.9981 15.7166 0
    endloop
  endfacet
  facet normal 0 0 -1
    outer loop
      vertex 0.627905 9.98027 0
      vertex 1.00465 15.9684 0
      vertex 1.87381 9.82287 0
    endloop
  endfacet
  facet normal 0 0 -1
    outer loop
      vertex -0.627905 9.98027 0
      vertex 1.00465 15.9684 0
      vertex 0.627905 9.98027 0
    endloop
  endfacet
  facet normal 0 0 -1
    outer loop
      vertex -0.627905 9.98027 0
      vertex -1.00465 15.9684 0
      vertex 1.00465 15.9684 0
    endloop
  endfacet
  facet normal 0 0 -1
    outer loop
      vertex -1.87381 9.82287 0
      vertex -1.00465 15.9684 0
      vertex -0.627905 9.98027 0
    endloop
  endfacet
  facet normal 0 0 -1
    outer loop
      vertex -1.87381 9.82287 0
      vertex -2.9981 15.7166 0
      vertex -1.00465 15.9684 0
    endloop
  endfacet
  facet normal 0 0 -1
    outer loop
      vertex -3.09017 9.51056 0
      vertex -2.9981 15.7166 0
      vertex -1.87381 9.82287 0
    endloop
  endfacet
  facet normal 0 0 -1
    outer loop
      vertex -4.94427 15.2169 0
      vertex -3.09017 9.51056 0
      vertex -4.25779 9.04827 0
    endloop
  endfacet
  facet normal 0 0 -1
    outer loop
      vertex -3.09017 9.51056 0
      vertex -4.94427 15.2169 0
      vertex -2.9981 15.7166 0
    endloop
  endfacet
  facet normal 0 0 -1
    outer loop
      vertex -6.81247 14.4772 0
      vertex -4.25779 9.04827 0
      vertex -5.35827 8.44328 0
    endloop
  endfacet
  facet normal 0 0 -1
    outer loop
      vertex -8.57323 13.5092 0
      vertex -5.35827 8.44328 0
      vertex -6.37424 7.70513 0
    endloop
  endfacet
  facet normal 0 0 -1
    outer loop
      vertex -4.25779 9.04827 0
      vertex -6.81247 14.4772 0
      vertex -4.94427 15.2169 0
    endloop
  endfacet
  facet normal 0 0 -1
    outer loop
      vertex -10.1988 12.3282 0
      vertex -6.37424 7.70513 0
      vertex -7.28969 6.84547 0
    endloop
  endfacet
  facet normal 0 0 -1
    outer loop
      vertex -11.6635 10.9528 0
      vertex -7.28969 6.84547 0
      vertex -8.09017 5.87785 0
    endloop
  endfacet
  facet normal 0 0 -1
    outer loop
      vertex -5.35827 8.44328 0
      vertex -8.57323 13.5092 0
      vertex -6.81247 14.4772 0
    endloop
  endfacet
  facet normal 0 0 -1
    outer loop
      vertex -12.9443 9.40456 0
      vertex -8.09017 5.87785 0
      vertex -8.76307 4.81754 0
    endloop
  endfacet
  facet normal 0 0 -1
    outer loop
      vertex -14.0209 7.70806 0
      vertex -8.76307 4.81754 0
      vertex -9.29776 3.68124 0
    endloop
  endfacet
  facet normal 0 0 -1
    outer loop
      vertex -14.8764 5.88999 0
      vertex -9.29776 3.68124 0
      vertex -9.68583 2.4869 0
    endloop
  endfacet
  facet normal 0 0 -1
    outer loop
      vertex -15.4973 3.97904 0
      vertex -9.68583 2.4869 0
      vertex -9.92115 1.25333 0
    endloop
  endfacet
  facet normal 0 0 -1
    outer loop
      vertex -6.37424 7.70513 0
      vertex -10.1988 12.3282 0
      vertex -8.57323 13.5092 0
    endloop
  endfacet
  facet normal 0 0 -1
    outer loop
      vertex -15.8738 2.00533 0
      vertex -9.92115 1.25333 0
      vertex -10 0 0
    endloop
  endfacet
  facet normal 0 0 -1
    outer loop
      vertex -14.8764 -5.88999 0
      vertex -9.29776 -3.68124 0
      vertex -14.0209 -7.70806 0
    endloop
  endfacet
  facet normal -0 0 -1
    outer loop
      vertex -9.29776 -3.68124 0
      vertex -14.8764 -5.88999 0
      vertex -9.68583 -2.4869 0
    endloop
  endfacet
  facet normal 0 0 -1
    outer loop
      vertex -7.28969 6.84547 0
      vertex -11.6635 10.9528 0
      vertex -10.1988 12.3282 0
    endloop
  endfacet
  facet normal 0 0 -1
    outer loop
      vertex -15.4973 -3.97904 0
      vertex -9.68583 -2.4869 0
      vertex -14.8764 -5.88999 0
    endloop
  endfacet
  facet normal 0 0 -1
    outer loop
      vertex -8.09017 5.87785 0
      vertex -12.9443 9.40456 0
      vertex -11.6635 10.9528 0
    endloop
  endfacet
  facet normal -0 0 -1
    outer loop
      vertex -9.68583 -2.4869 0
      vertex -15.4973 -3.97904 0
      vertex -9.92115 -1.25333 0
    endloop
  endfacet
  facet normal 0 0 -1
    outer loop
      vertex -8.76307 4.81754 0
      vertex -14.0209 7.70806 0
      vertex -12.9443 9.40456 0
    endloop
  endfacet
  facet normal 0 0 -1
    outer loop
      vertex -15.8738 -2.00533 0
      vertex -9.92115 -1.25333 0
      vertex -15.4973 -3.97904 0
    endloop
  endfacet
  facet normal 0 0 -1
    outer loop
      vertex -9.29776 3.68124 0
      vertex -14.8764 5.88999 0
      vertex -14.0209 7.70806 0
    endloop
  endfacet
  facet normal -0 0 -1
    outer loop
      vertex -9.92115 -1.25333 0
      vertex -15.8738 -2.00533 0
      vertex -10 0 0
    endloop
  endfacet
  facet normal 0 0 -1
    outer loop
      vertex -9.68583 2.4869 0
      vertex -15.4973 3.97904 0
      vertex -14.8764 5.88999 0
    endloop
  endfacet
  facet normal 0 0 -1
    outer loop
      vertex -16 0 0
      vertex -10 0 0
      vertex -15.8738 -2.00533 0
    endloop
  endfacet
  facet normal 0 0 -1
    outer loop
      vertex -9.92115 1.25333 0
      vertex -15.8738 2.00533 0
      vertex -15.4973 3.97904 0
    endloop
  endfacet
  facet normal 0 0 -1
    outer loop
      vertex -10 0 0
      vertex -16 0 0
      vertex -15.8738 2.00533 0
    endloop
  endfacet
  facet normal 0.58777 -0.809028 0
    outer loop
      vertex 8.57323 -13.5092 0
      vertex 10.1988 -12.3282 7
      vertex 8.57323 -13.5092 7
    endloop
  endfacet
  facet normal 0.58777 -0.809028 0
    outer loop
      vertex 10.1988 -12.3282 7
      vertex 8.57323 -13.5092 0
      vertex 10.1988 -12.3282 0
    endloop
  endfacet
  facet normal 0.368136 -0.929772 0
    outer loop
      vertex 4.94427 -15.2169 0
      vertex 6.81247 -14.4772 7
      vertex 4.94427 -15.2169 7
    endloop
  endfacet
  facet normal 0.368136 -0.929772 0
    outer loop
      vertex 6.81247 -14.4772 7
      vertex 4.94427 -15.2169 0
      vertex 6.81247 -14.4772 0
    endloop
  endfacet
  facet normal -0.770517 0.637419 0
    outer loop
      vertex -12.9443 9.40456 0
      vertex -11.6635 10.9528 7
      vertex -11.6635 10.9528 0
    endloop
  endfacet
  facet normal -0.770517 0.637419 0
    outer loop
      vertex -11.6635 10.9528 7
      vertex -12.9443 9.40456 0
      vertex -12.9443 9.40456 7
    endloop
  endfacet
  facet normal -0.481759 0.876304 0
    outer loop
      vertex -6.81247 14.4772 0
      vertex -8.57323 13.5092 7
      vertex -6.81247 14.4772 7
    endloop
  endfacet
  facet normal -0.481759 0.876304 0
    outer loop
      vertex -8.57323 13.5092 7
      vertex -6.81247 14.4772 0
      vertex -8.57323 13.5092 0
    endloop
  endfacet
  facet normal -0.248694 0.968582 0
    outer loop
      vertex -2.9981 15.7166 0
      vertex -4.94427 15.2169 7
      vertex -2.9981 15.7166 7
    endloop
  endfacet
  facet normal -0.248694 0.968582 0
    outer loop
      vertex -4.94427 15.2169 7
      vertex -2.9981 15.7166 0
      vertex -4.94427 15.2169 0
    endloop
  endfacet
  facet normal 0.951057 -0.309015 0
    outer loop
      vertex 14.8764 -5.88999 7
      vertex 15.4973 -3.97904 0
      vertex 15.4973 -3.97904 7
    endloop
  endfacet
  facet normal 0.951057 -0.309015 0
    outer loop
      vertex 15.4973 -3.97904 0
      vertex 14.8764 -5.88999 7
      vertex 14.8764 -5.88999 0
    endloop
  endfacet
  facet normal 0.982288 -0.187379 0
    outer loop
      vertex 15.4973 -3.97904 7
      vertex 15.8738 -2.00533 0
      vertex 15.8738 -2.00533 7
    endloop
  endfacet
  facet normal 0.982288 -0.187379 0
    outer loop
      vertex 15.8738 -2.00533 0
      vertex 15.4973 -3.97904 7
      vertex 15.4973 -3.97904 0
    endloop
  endfacet
  facet normal -0.951057 -0.309015 0
    outer loop
      vertex -14.8764 -5.88999 0
      vertex -15.4973 -3.97904 7
      vertex -15.4973 -3.97904 0
    endloop
  endfacet
  facet normal -0.951057 -0.309015 0
    outer loop
      vertex -15.4973 -3.97904 7
      vertex -14.8764 -5.88999 0
      vertex -14.8764 -5.88999 7
    endloop
  endfacet
  facet normal 0.481759 -0.876304 0
    outer loop
      vertex 6.81247 -14.4772 0
      vertex 8.57323 -13.5092 7
      vertex 6.81247 -14.4772 7
    endloop
  endfacet
  facet normal 0.481759 -0.876304 0
    outer loop
      vertex 8.57323 -13.5092 7
      vertex 6.81247 -14.4772 0
      vertex 8.57323 -13.5092 0
    endloop
  endfacet
  facet normal 0.248694 -0.968582 0
    outer loop
      vertex 2.9981 -15.7166 0
      vertex 4.94427 -15.2169 7
      vertex 2.9981 -15.7166 7
    endloop
  endfacet
  facet normal 0.248694 -0.968582 0
    outer loop
      vertex 4.94427 -15.2169 7
      vertex 2.9981 -15.7166 0
      vertex 4.94427 -15.2169 0
    endloop
  endfacet
  facet normal 0.844335 -0.535816 0
    outer loop
      vertex 12.9443 -9.40456 7
      vertex 14.0209 -7.70806 0
      vertex 14.0209 -7.70806 7
    endloop
  endfacet
  facet normal 0.844335 -0.535816 0
    outer loop
      vertex 14.0209 -7.70806 0
      vertex 12.9443 -9.40456 7
      vertex 12.9443 -9.40456 0
    endloop
  endfacet
  facet normal 0.770517 -0.637419 0
    outer loop
      vertex 11.6635 -10.9528 7
      vertex 12.9443 -9.40456 0
      vertex 12.9443 -9.40456 7
    endloop
  endfacet
  facet normal 0.770517 -0.637419 0
    outer loop
      vertex 12.9443 -9.40456 0
      vertex 11.6635 -10.9528 7
      vertex 11.6635 -10.9528 0
    endloop
  endfacet
  facet normal -0.125318 -0.992117 0
    outer loop
      vertex -2.9981 -15.7166 0
      vertex -1.00465 -15.9684 7
      vertex -2.9981 -15.7166 7
    endloop
  endfacet
  facet normal -0.125318 -0.992117 -0
    outer loop
      vertex -1.00465 -15.9684 7
      vertex -2.9981 -15.7166 0
      vertex -1.00465 -15.9684 0
    endloop
  endfacet
  facet normal -0.248694 -0.968582 0
    outer loop
      vertex -4.94427 -15.2169 0
      vertex -2.9981 -15.7166 7
      vertex -4.94427 -15.2169 7
    endloop
  endfacet
  facet normal -0.248694 -0.968582 -0
    outer loop
      vertex -2.9981 -15.7166 7
      vertex -4.94427 -15.2169 0
      vertex -2.9981 -15.7166 0
    endloop
  endfacet
  facet normal -0.770517 -0.637419 0
    outer loop
      vertex -11.6635 -10.9528 0
      vertex -12.9443 -9.40456 7
      vertex -12.9443 -9.40456 0
    endloop
  endfacet
  facet normal -0.770517 -0.637419 0
    outer loop
      vertex -12.9443 -9.40456 7
      vertex -11.6635 -10.9528 0
      vertex -11.6635 -10.9528 7
    endloop
  endfacet
  facet normal -0.844335 -0.535816 0
    outer loop
      vertex -12.9443 -9.40456 0
      vertex -14.0209 -7.70806 7
      vertex -14.0209 -7.70806 0
    endloop
  endfacet
  facet normal -0.844335 -0.535816 0
    outer loop
      vertex -14.0209 -7.70806 7
      vertex -12.9443 -9.40456 0
      vertex -12.9443 -9.40456 7
    endloop
  endfacet
  facet normal -0.982288 -0.187379 0
    outer loop
      vertex -15.4973 -3.97904 0
      vertex -15.8738 -2.00533 7
      vertex -15.8738 -2.00533 0
    endloop
  endfacet
  facet normal -0.982288 -0.187379 0
    outer loop
      vertex -15.8738 -2.00533 7
      vertex -15.4973 -3.97904 0
      vertex -15.4973 -3.97904 7
    endloop
  endfacet
  facet normal -0.998026 -0.062808 0
    outer loop
      vertex -15.8738 -2.00533 0
      vertex -16 0 7
      vertex -16 0 0
    endloop
  endfacet
  facet normal -0.998026 -0.062808 0
    outer loop
      vertex -16 0 7
      vertex -15.8738 -2.00533 0
      vertex -15.8738 -2.00533 7
    endloop
  endfacet
  facet normal -0.481759 -0.876304 0
    outer loop
      vertex -8.57323 -13.5092 0
      vertex -6.81247 -14.4772 7
      vertex -8.57323 -13.5092 7
    endloop
  endfacet
  facet normal -0.481759 -0.876304 -0
    outer loop
      vertex -6.81247 -14.4772 7
      vertex -8.57323 -13.5092 0
      vertex -6.81247 -14.4772 0
    endloop
  endfacet
  facet normal -0.58777 -0.809028 0
    outer loop
      vertex -10.1988 -12.3282 0
      vertex -8.57323 -13.5092 7
      vertex -10.1988 -12.3282 7
    endloop
  endfacet
  facet normal -0.58777 -0.809028 -0
    outer loop
      vertex -8.57323 -13.5092 7
      vertex -10.1988 -12.3282 0
      vertex -8.57323 -13.5092 0
    endloop
  endfacet
  facet normal -0.684535 -0.72898 0
    outer loop
      vertex -11.6635 -10.9528 0
      vertex -10.1988 -12.3282 7
      vertex -11.6635 -10.9528 7
    endloop
  endfacet
  facet normal -0.684535 -0.72898 -0
    outer loop
      vertex -10.1988 -12.3282 7
      vertex -11.6635 -10.9528 0
      vertex -10.1988 -12.3282 0
    endloop
  endfacet
  facet normal -0.904831 -0.425771 0
    outer loop
      vertex 9.29776 3.68124 0
      vertex 8.76307 4.81754 7
      vertex 8.76307 4.81754 0
    endloop
  endfacet
  facet normal -0.904831 -0.425771 0
    outer loop
      vertex 8.76307 4.81754 7
      vertex 9.29776 3.68124 0
      vertex 9.29776 3.68124 7
    endloop
  endfacet
  facet normal 0.951055 -0.309021 0
    outer loop
      vertex -9.68583 2.4869 7
      vertex -9.29776 3.68124 0
      vertex -9.29776 3.68124 7
    endloop
  endfacet
  facet normal 0.951055 -0.309021 0
    outer loop
      vertex -9.29776 3.68124 0
      vertex -9.68583 2.4869 7
      vertex -9.68583 2.4869 0
    endloop
  endfacet
  facet normal -0.844325 -0.535831 0
    outer loop
      vertex 8.76307 4.81754 0
      vertex 8.09017 5.87785 7
      vertex 8.09017 5.87785 0
    endloop
  endfacet
  facet normal -0.844325 -0.535831 0
    outer loop
      vertex 8.09017 5.87785 7
      vertex 8.76307 4.81754 0
      vertex 8.76307 4.81754 7
    endloop
  endfacet
  facet normal -0.248691 -0.968583 0
    outer loop
      vertex 1.87381 9.82287 0
      vertex 3.09017 9.51056 7
      vertex 1.87381 9.82287 7
    endloop
  endfacet
  facet normal -0.248691 -0.968583 -0
    outer loop
      vertex 3.09017 9.51056 7
      vertex 1.87381 9.82287 0
      vertex 3.09017 9.51056 0
    endloop
  endfacet
  facet normal -0.368122 -0.929777 0
    outer loop
      vertex 3.09017 9.51056 0
      vertex 4.25779 9.04827 7
      vertex 3.09017 9.51056 7
    endloop
  endfacet
  facet normal -0.368122 -0.929777 -0
    outer loop
      vertex 4.25779 9.04827 7
      vertex 3.09017 9.51056 0
      vertex 4.25779 9.04827 0
    endloop
  endfacet
  facet normal 0.368122 -0.929777 0
    outer loop
      vertex -4.25779 9.04827 0
      vertex -3.09017 9.51056 7
      vertex -4.25779 9.04827 7
    endloop
  endfacet
  facet normal 0.368122 -0.929777 0
    outer loop
      vertex -3.09017 9.51056 7
      vertex -4.25779 9.04827 0
      vertex -3.09017 9.51056 0
    endloop
  endfacet
  facet normal 0.904831 -0.425771 0
    outer loop
      vertex -9.29776 3.68124 7
      vertex -8.76307 4.81754 0
      vertex -8.76307 4.81754 7
    endloop
  endfacet
  facet normal 0.904831 -0.425771 0
    outer loop
      vertex -8.76307 4.81754 0
      vertex -9.29776 3.68124 7
      vertex -9.29776 3.68124 0
    endloop
  endfacet
  facet normal -0.982287 0.187384 0
    outer loop
      vertex 9.68583 -2.4869 0
      vertex 9.92115 -1.25333 7
      vertex 9.92115 -1.25333 0
    endloop
  endfacet
  facet normal -0.982287 0.187384 0
    outer loop
      vertex 9.92115 -1.25333 7
      vertex 9.68583 -2.4869 0
      vertex 9.68583 -2.4869 7
    endloop
  endfacet
  facet normal -0.481751 -0.876308 0
    outer loop
      vertex 4.25779 9.04827 0
      vertex 5.35827 8.44328 7
      vertex 4.25779 9.04827 7
    endloop
  endfacet
  facet normal -0.481751 -0.876308 -0
    outer loop
      vertex 5.35827 8.44328 7
      vertex 4.25779 9.04827 0
      vertex 5.35827 8.44328 0
    endloop
  endfacet
  facet normal 0.770515 -0.637422 0
    outer loop
      vertex -8.09017 5.87785 7
      vertex -7.28969 6.84547 0
      vertex -7.28969 6.84547 7
    endloop
  endfacet
  facet normal 0.770515 -0.637422 0
    outer loop
      vertex -7.28969 6.84547 0
      vertex -8.09017 5.87785 7
      vertex -8.09017 5.87785 0
    endloop
  endfacet
  facet normal 0.481751 -0.876308 0
    outer loop
      vertex -5.35827 8.44328 0
      vertex -4.25779 9.04827 7
      vertex -5.35827 8.44328 7
    endloop
  endfacet
  facet normal 0.481751 -0.876308 0
    outer loop
      vertex -4.25779 9.04827 7
      vertex -5.35827 8.44328 0
      vertex -4.25779 9.04827 0
    endloop
  endfacet
  facet normal 0.125338 -0.992114 0
    outer loop
      vertex -1.87381 9.82287 0
      vertex -0.627905 9.98027 7
      vertex -1.87381 9.82287 7
    endloop
  endfacet
  facet normal 0.125338 -0.992114 0
    outer loop
      vertex -0.627905 9.98027 7
      vertex -1.87381 9.82287 0
      vertex -0.627905 9.98027 0
    endloop
  endfacet
  facet normal -0.998027 -0.0627883 0
    outer loop
      vertex 10 0 0
      vertex 9.92115 1.25333 7
      vertex 9.92115 1.25333 0
    endloop
  endfacet
  facet normal -0.998027 -0.0627883 0
    outer loop
      vertex 9.92115 1.25333 7
      vertex 10 0 0
      vertex 10 0 7
    endloop
  endfacet
  facet normal -0.951055 0.309021 0
    outer loop
      vertex 9.29776 -3.68124 0
      vertex 9.68583 -2.4869 7
      vertex 9.68583 -2.4869 0
    endloop
  endfacet
  facet normal -0.951055 0.309021 0
    outer loop
      vertex 9.68583 -2.4869 7
      vertex 9.29776 -3.68124 0
      vertex 9.29776 -3.68124 7
    endloop
  endfacet
  facet normal 0.684545 0.728971 -0
    outer loop
      vertex -6.37424 -7.70513 0
      vertex -7.28969 -6.84547 7
      vertex -6.37424 -7.70513 7
    endloop
  endfacet
  facet normal 0.684545 0.728971 0
    outer loop
      vertex -7.28969 -6.84547 7
      vertex -6.37424 -7.70513 0
      vertex -7.28969 -6.84547 0
    endloop
  endfacet
  facet normal 0.904831 0.425771 0
    outer loop
      vertex -8.76307 -4.81754 7
      vertex -9.29776 -3.68124 0
      vertex -9.29776 -3.68124 7
    endloop
  endfacet
  facet normal 0.904831 0.425771 0
    outer loop
      vertex -9.29776 -3.68124 0
      vertex -8.76307 -4.81754 7
      vertex -8.76307 -4.81754 0
    endloop
  endfacet
  facet normal -0.982287 -0.187384 0
    outer loop
      vertex 9.92115 1.25333 0
      vertex 9.68583 2.4869 7
      vertex 9.68583 2.4869 0
    endloop
  endfacet
  facet normal -0.982287 -0.187384 0
    outer loop
      vertex 9.68583 2.4869 7
      vertex 9.92115 1.25333 0
      vertex 9.92115 1.25333 7
    endloop
  endfacet
  facet normal -0.951055 -0.309021 0
    outer loop
      vertex 9.68583 2.4869 0
      vertex 9.29776 3.68124 7
      vertex 9.29776 3.68124 0
    endloop
  endfacet
  facet normal -0.951055 -0.309021 0
    outer loop
      vertex 9.29776 3.68124 7
      vertex 9.68583 2.4869 0
      vertex 9.68583 2.4869 7
    endloop
  endfacet
  facet normal -0.684545 -0.728971 0
    outer loop
      vertex 6.37424 7.70513 0
      vertex 7.28969 6.84547 7
      vertex 6.37424 7.70513 7
    endloop
  endfacet
  facet normal -0.684545 -0.728971 -0
    outer loop
      vertex 7.28969 6.84547 7
      vertex 6.37424 7.70513 0
      vertex 7.28969 6.84547 0
    endloop
  endfacet
  facet normal 0 -1 0
    outer loop
      vertex -0.627905 9.98027 0
      vertex 0.627905 9.98027 7
      vertex -0.627905 9.98027 7
    endloop
  endfacet
  facet normal 0 -1 -0
    outer loop
      vertex 0.627905 9.98027 7
      vertex -0.627905 9.98027 0
      vertex 0.627905 9.98027 0
    endloop
  endfacet
  facet normal -0.587788 -0.809015 0
    outer loop
      vertex 5.35827 8.44328 0
      vertex 6.37424 7.70513 7
      vertex 5.35827 8.44328 7
    endloop
  endfacet
  facet normal -0.587788 -0.809015 -0
    outer loop
      vertex 6.37424 7.70513 7
      vertex 5.35827 8.44328 0
      vertex 6.37424 7.70513 0
    endloop
  endfacet
  facet normal 0.998027 -0.0627883 0
    outer loop
      vertex -10 0 7
      vertex -9.92115 1.25333 0
      vertex -9.92115 1.25333 7
    endloop
  endfacet
  facet normal 0.998027 -0.0627883 0
    outer loop
      vertex -9.92115 1.25333 0
      vertex -10 0 7
      vertex -10 0 0
    endloop
  endfacet
  facet normal 0.844325 -0.535831 0
    outer loop
      vertex -8.76307 4.81754 7
      vertex -8.09017 5.87785 0
      vertex -8.09017 5.87785 7
    endloop
  endfacet
  facet normal 0.844325 -0.535831 0
    outer loop
      vertex -8.09017 5.87785 0
      vertex -8.76307 4.81754 7
      vertex -8.76307 4.81754 0
    endloop
  endfacet
  facet normal 0.248691 -0.968583 0
    outer loop
      vertex -3.09017 9.51056 0
      vertex -1.87381 9.82287 7
      vertex -3.09017 9.51056 7
    endloop
  endfacet
  facet normal 0.248691 -0.968583 0
    outer loop
      vertex -1.87381 9.82287 7
      vertex -3.09017 9.51056 0
      vertex -1.87381 9.82287 0
    endloop
  endfacet
  facet normal 0.587788 -0.809015 0
    outer loop
      vertex -6.37424 7.70513 0
      vertex -5.35827 8.44328 7
      vertex -6.37424 7.70513 7
    endloop
  endfacet
  facet normal 0.587788 -0.809015 0
    outer loop
      vertex -5.35827 8.44328 7
      vertex -6.37424 7.70513 0
      vertex -5.35827 8.44328 0
    endloop
  endfacet
  facet normal 0.684545 -0.728971 0
    outer loop
      vertex -7.28969 6.84547 0
      vertex -6.37424 7.70513 7
      vertex -7.28969 6.84547 7
    endloop
  endfacet
  facet normal 0.684545 -0.728971 0
    outer loop
      vertex -6.37424 7.70513 7
      vertex -7.28969 6.84547 0
      vertex -6.37424 7.70513 0
    endloop
  endfacet
  facet normal -0.998027 0.0627883 0
    outer loop
      vertex 9.92115 -1.25333 0
      vertex 10 0 7
      vertex 10 0 0
    endloop
  endfacet
  facet normal -0.998027 0.0627883 0
    outer loop
      vertex 10 0 7
      vertex 9.92115 -1.25333 0
      vertex 9.92115 -1.25333 7
    endloop
  endfacet
  facet normal 0.770515 0.637422 0
    outer loop
      vertex -7.28969 -6.84547 7
      vertex -8.09017 -5.87785 0
      vertex -8.09017 -5.87785 7
    endloop
  endfacet
  facet normal 0.770515 0.637422 0
    outer loop
      vertex -8.09017 -5.87785 0
      vertex -7.28969 -6.84547 7
      vertex -7.28969 -6.84547 0
    endloop
  endfacet
  facet normal -0.125338 0.992114 0
    outer loop
      vertex 1.87381 -9.82287 0
      vertex 0.627905 -9.98027 7
      vertex 1.87381 -9.82287 7
    endloop
  endfacet
  facet normal -0.125338 0.992114 0
    outer loop
      vertex 0.627905 -9.98027 7
      vertex 1.87381 -9.82287 0
      vertex 0.627905 -9.98027 0
    endloop
  endfacet
  facet normal -0.368122 0.929777 0
    outer loop
      vertex 4.25779 -9.04827 0
      vertex 3.09017 -9.51056 7
      vertex 4.25779 -9.04827 7
    endloop
  endfacet
  facet normal -0.368122 0.929777 0
    outer loop
      vertex 3.09017 -9.51056 7
      vertex 4.25779 -9.04827 0
      vertex 3.09017 -9.51056 0
    endloop
  endfacet
  facet normal -0.770515 -0.637422 0
    outer loop
      vertex 8.09017 5.87785 0
      vertex 7.28969 6.84547 7
      vertex 7.28969 6.84547 0
    endloop
  endfacet
  facet normal -0.770515 -0.637422 0
    outer loop
      vertex 7.28969 6.84547 7
      vertex 8.09017 5.87785 0
      vertex 8.09017 5.87785 7
    endloop
  endfacet
  facet normal -0.125338 -0.992114 0
    outer loop
      vertex 0.627905 9.98027 0
      vertex 1.87381 9.82287 7
      vertex 0.627905 9.98027 7
    endloop
  endfacet
  facet normal -0.125338 -0.992114 -0
    outer loop
      vertex 1.87381 9.82287 7
      vertex 0.627905 9.98027 0
      vertex 1.87381 9.82287 0
    endloop
  endfacet
  facet normal 0.982287 -0.187384 0
    outer loop
      vertex -9.92115 1.25333 7
      vertex -9.68583 2.4869 0
      vertex -9.68583 2.4869 7
    endloop
  endfacet
  facet normal 0.982287 -0.187384 0
    outer loop
      vertex -9.68583 2.4869 0
      vertex -9.92115 1.25333 7
      vertex -9.92115 1.25333 0
    endloop
  endfacet
  facet normal -0.770515 0.637422 0
    outer loop
      vertex 7.28969 -6.84547 0
      vertex 8.09017 -5.87785 7
      vertex 8.09017 -5.87785 0
    endloop
  endfacet
  facet normal -0.770515 0.637422 0
    outer loop
      vertex 8.09017 -5.87785 7
      vertex 7.28969 -6.84547 0
      vertex 7.28969 -6.84547 7
    endloop
  endfacet
  facet normal -0.844325 0.535831 0
    outer loop
      vertex 8.09017 -5.87785 0
      vertex 8.76307 -4.81754 7
      vertex 8.76307 -4.81754 0
    endloop
  endfacet
  facet normal -0.844325 0.535831 0
    outer loop
      vertex 8.76307 -4.81754 7
      vertex 8.09017 -5.87785 0
      vertex 8.09017 -5.87785 7
    endloop
  endfacet
  facet normal -0.904831 0.425771 0
    outer loop
      vertex 8.76307 -4.81754 0
      vertex 9.29776 -3.68124 7
      vertex 9.29776 -3.68124 0
    endloop
  endfacet
  facet normal -0.904831 0.425771 0
    outer loop
      vertex 9.29776 -3.68124 7
      vertex 8.76307 -4.81754 0
      vertex 8.76307 -4.81754 7
    endloop
  endfacet
  facet normal 0.248691 0.968583 -0
    outer loop
      vertex -1.87381 -9.82287 0
      vertex -3.09017 -9.51056 7
      vertex -1.87381 -9.82287 7
    endloop
  endfacet
  facet normal 0.248691 0.968583 0
    outer loop
      vertex -3.09017 -9.51056 7
      vertex -1.87381 -9.82287 0
      vertex -3.09017 -9.51056 0
    endloop
  endfacet
  facet normal 0.125338 0.992114 -0
    outer loop
      vertex -0.627905 -9.98027 0
      vertex -1.87381 -9.82287 7
      vertex -0.627905 -9.98027 7
    endloop
  endfacet
  facet normal 0.125338 0.992114 0
    outer loop
      vertex -1.87381 -9.82287 7
      vertex -0.627905 -9.98027 0
      vertex -1.87381 -9.82287 0
    endloop
  endfacet
  facet normal 0.998027 0.0627883 0
    outer loop
      vertex -9.92115 -1.25333 7
      vertex -10 0 0
      vertex -10 0 7
    endloop
  endfacet
  facet normal 0.998027 0.0627883 0
    outer loop
      vertex -10 0 0
      vertex -9.92115 -1.25333 7
      vertex -9.92115 -1.25333 0
    endloop
  endfacet
  facet normal 0.951055 0.309021 0
    outer loop
      vertex -9.29776 -3.68124 7
      vertex -9.68583 -2.4869 0
      vertex -9.68583 -2.4869 7
    endloop
  endfacet
  facet normal 0.951055 0.309021 0
    outer loop
      vertex -9.68583 -2.4869 0
      vertex -9.29776 -3.68124 7
      vertex -9.29776 -3.68124 0
    endloop
  endfacet
  facet normal -0.248691 0.968583 0
    outer loop
      vertex 3.09017 -9.51056 0
      vertex 1.87381 -9.82287 7
      vertex 3.09017 -9.51056 7
    endloop
  endfacet
  facet normal -0.248691 0.968583 0
    outer loop
      vertex 1.87381 -9.82287 7
      vertex 3.09017 -9.51056 0
      vertex 1.87381 -9.82287 0
    endloop
  endfacet
  facet normal -0.684545 0.728971 0
    outer loop
      vertex 7.28969 -6.84547 0
      vertex 6.37424 -7.70513 7
      vertex 7.28969 -6.84547 7
    endloop
  endfacet
  facet normal -0.684545 0.728971 0
    outer loop
      vertex 6.37424 -7.70513 7
      vertex 7.28969 -6.84547 0
      vertex 6.37424 -7.70513 0
    endloop
  endfacet
  facet normal -0.587788 0.809015 0
    outer loop
      vertex 6.37424 -7.70513 0
      vertex 5.35827 -8.44328 7
      vertex 6.37424 -7.70513 7
    endloop
  endfacet
  facet normal -0.587788 0.809015 0
    outer loop
      vertex 5.35827 -8.44328 7
      vertex 6.37424 -7.70513 0
      vertex 5.35827 -8.44328 0
    endloop
  endfacet
  facet normal -0.481751 0.876308 0
    outer loop
      vertex 5.35827 -8.44328 0
      vertex 4.25779 -9.04827 7
      vertex 5.35827 -8.44328 7
    endloop
  endfacet
  facet normal -0.481751 0.876308 0
    outer loop
      vertex 4.25779 -9.04827 7
      vertex 5.35827 -8.44328 0
      vertex 4.25779 -9.04827 0
    endloop
  endfacet
  facet normal 0 1 -0
    outer loop
      vertex 0.627905 -9.98027 0
      vertex -0.627905 -9.98027 7
      vertex 0.627905 -9.98027 7
    endloop
  endfacet
  facet normal 0 1 0
    outer loop
      vertex -0.627905 -9.98027 7
      vertex 0.627905 -9.98027 0
      vertex -0.627905 -9.98027 0
    endloop
  endfacet
  facet normal 0.481751 0.876308 -0
    outer loop
      vertex -4.25779 -9.04827 0
      vertex -5.35827 -8.44328 7
      vertex -4.25779 -9.04827 7
    endloop
  endfacet
  facet normal 0.481751 0.876308 0
    outer loop
      vertex -5.35827 -8.44328 7
      vertex -4.25779 -9.04827 0
      vertex -5.35827 -8.44328 0
    endloop
  endfacet
  facet normal 0.982287 0.187384 0
    outer loop
      vertex -9.68583 -2.4869 7
      vertex -9.92115 -1.25333 0
      vertex -9.92115 -1.25333 7
    endloop
  endfacet
  facet normal 0.982287 0.187384 0
    outer loop
      vertex -9.92115 -1.25333 0
      vertex -9.68583 -2.4869 7
      vertex -9.68583 -2.4869 0
    endloop
  endfacet
  facet normal 0.844325 0.535831 0
    outer loop
      vertex -8.09017 -5.87785 7
      vertex -8.76307 -4.81754 0
      vertex -8.76307 -4.81754 7
    endloop
  endfacet
  facet normal 0.844325 0.535831 0
    outer loop
      vertex -8.76307 -4.81754 0
      vertex -8.09017 -5.87785 7
      vertex -8.09017 -5.87785 0
    endloop
  endfacet
  facet normal 0.587788 0.809015 -0
    outer loop
      vertex -5.35827 -8.44328 0
      vertex -6.37424 -7.70513 7
      vertex -5.35827 -8.44328 7
    endloop
  endfacet
  facet normal 0.587788 0.809015 0
    outer loop
      vertex -6.37424 -7.70513 7
      vertex -5.35827 -8.44328 0
      vertex -6.37424 -7.70513 0
    endloop
  endfacet
  facet normal 0.368122 0.929777 -0
    outer loop
      vertex -3.09017 -9.51056 0
      vertex -4.25779 -9.04827 7
      vertex -3.09017 -9.51056 7
    endloop
  endfacet
  facet normal 0.368122 0.929777 0
    outer loop
      vertex -4.25779 -9.04827 7
      vertex -3.09017 -9.51056 0
      vertex -4.25779 -9.04827 0
    endloop
  endfacet
endsolid OpenSCAD_Model
