<?xml version="1.0" standalone="no"?>
<!DOCTYPE svg PUBLIC "-//W3C//DTD SVG 1.1//EN" "http://www.w3.org/Graphics/SVG/1.1/DTD/svg11.dtd">
<svg width="226mm" height="333mm" viewBox="-113 -395 226 333" xmlns="http://www.w3.org/2000/svg" version="1.1">
<title>OpenSCAD Model</title>
<path d="
M -109.5,-289.925 L -109.045,-289.745 L -108.437,-289.589 L -107.814,-289.51 L 107.814,-289.51 L 108.437,-289.589
 L 109.045,-289.745 L 109.629,-289.976 L 110.179,-290.278 L 110.687,-290.647 L 111.145,-291.077 L 111.545,-291.561
 L 111.882,-292.091 L 112.149,-292.659 L 112.343,-293.257 L 112.461,-293.873 L 112.5,-294.5 L 112.5,-389.5
 L 112.461,-390.127 L 112.343,-390.743 L 112.149,-391.341 L 111.882,-391.909 L 111.545,-392.439 L 111.145,-392.923
 L 110.687,-393.353 L 110.179,-393.722 L 109.629,-394.024 L 109.045,-394.255 L 108.437,-394.411 L 107.814,-394.49
 L -107.814,-394.49 L -108.437,-394.411 L -109.045,-394.255 L -109.5,-394.075 L -109.5,-394.49 L -112.5,-394.49
 L -112.5,-289.51 L -109.5,-289.51 z
M -107.195,-291.893 L -107.583,-291.942 L -107.962,-292.039 L -108.325,-292.183 L -108.668,-292.372 L -108.984,-292.601
 L -109.269,-292.869 L -109.518,-293.17 L -109.728,-293.5 L -109.894,-293.854 L -110.015,-294.226 L -110.088,-294.61
 L -110.113,-295 L -110.113,-389 L -110.088,-389.39 L -110.015,-389.774 L -109.894,-390.146 L -109.728,-390.5
 L -109.518,-390.83 L -109.269,-391.131 L -108.984,-391.399 L -108.668,-391.628 L -108.325,-391.817 L -107.962,-391.961
 L -107.583,-392.058 L -107.195,-392.107 L 107.195,-392.107 L 107.583,-392.058 L 107.962,-391.961 L 108.325,-391.817
 L 108.668,-391.628 L 108.984,-391.399 L 109.269,-391.131 L 109.518,-390.83 L 109.728,-390.5 L 109.894,-390.146
 L 110.015,-389.774 L 110.088,-389.39 L 110.113,-389 L 110.113,-295 L 110.088,-294.61 L 110.015,-294.226
 L 109.894,-293.854 L 109.728,-293.5 L 109.518,-293.17 L 109.269,-292.869 L 108.984,-292.601 L 108.668,-292.372
 L 108.325,-292.183 L 107.962,-292.039 L 107.583,-291.942 L 107.195,-291.893 z
M 108.437,-175.589 L 109.045,-175.745 L 109.629,-175.976 L 110.179,-176.278 L 110.687,-176.647 L 111.145,-177.077
 L 111.545,-177.561 L 111.882,-178.091 L 112.149,-178.659 L 112.343,-179.257 L 112.461,-179.873 L 112.5,-180.5
 L 112.5,-275.5 L 112.461,-276.127 L 112.343,-276.743 L 112.149,-277.341 L 111.882,-277.909 L 111.545,-278.439
 L 111.145,-278.923 L 110.687,-279.353 L 110.179,-279.722 L 109.629,-280.024 L 109.045,-280.255 L 108.437,-280.411
 L 107.814,-280.49 L -107.814,-280.49 L -108.437,-280.411 L -109.045,-280.255 L -109.5,-280.075 L -109.5,-280.479
 L -112.5,-280.479 L -112.5,-175.521 L -109.5,-175.521 L -109.5,-175.925 L -109.045,-175.745 L -108.437,-175.589
 L -107.814,-175.51 L 107.814,-175.51 z
M 104.866,-270.869 L 104.6,-270.903 L 104.34,-270.969 L 104.091,-271.068 L 103.856,-271.197 L 103.639,-271.355
 L 103.443,-271.538 L 103.273,-271.745 L 103.129,-271.971 L 103.015,-272.214 L 102.932,-272.469 L 102.882,-272.732
 L 102.865,-273 L 102.882,-273.268 L 102.932,-273.531 L 103.015,-273.786 L 103.129,-274.029 L 103.273,-274.255
 L 103.443,-274.462 L 103.639,-274.645 L 103.856,-274.803 L 104.091,-274.932 L 104.34,-275.031 L 104.6,-275.097
 L 104.866,-275.131 L 105.134,-275.131 L 105.4,-275.097 L 105.66,-275.031 L 105.909,-274.932 L 106.144,-274.803
 L 106.361,-274.645 L 106.557,-274.462 L 106.727,-274.255 L 106.871,-274.029 L 106.985,-273.786 L 107.068,-273.531
 L 107.118,-273.268 L 107.135,-273 L 107.118,-272.732 L 107.068,-272.469 L 106.985,-272.214 L 106.871,-271.971
 L 106.727,-271.745 L 106.557,-271.538 L 106.361,-271.355 L 106.144,-271.197 L 105.909,-271.068 L 105.66,-270.969
 L 105.4,-270.903 L 105.134,-270.869 z
M -105.134,-270.869 L -105.4,-270.903 L -105.66,-270.969 L -105.909,-271.068 L -106.144,-271.197 L -106.361,-271.355
 L -106.557,-271.538 L -106.727,-271.745 L -106.871,-271.971 L -106.985,-272.214 L -107.068,-272.469 L -107.118,-272.732
 L -107.135,-273 L -107.118,-273.268 L -107.068,-273.531 L -106.985,-273.786 L -106.871,-274.029 L -106.727,-274.255
 L -106.557,-274.462 L -106.361,-274.645 L -106.144,-274.803 L -105.909,-274.932 L -105.66,-275.031 L -105.4,-275.097
 L -105.134,-275.131 L -104.866,-275.131 L -104.6,-275.097 L -104.34,-275.031 L -104.091,-274.932 L -103.856,-274.803
 L -103.639,-274.645 L -103.443,-274.462 L -103.273,-274.255 L -103.129,-274.029 L -103.015,-273.786 L -102.932,-273.531
 L -102.882,-273.268 L -102.865,-273 L -102.882,-272.732 L -102.932,-272.469 L -103.015,-272.214 L -103.129,-271.971
 L -103.273,-271.745 L -103.443,-271.538 L -103.639,-271.355 L -103.856,-271.197 L -104.091,-271.068 L -104.34,-270.969
 L -104.6,-270.903 L -104.866,-270.869 z
M 104.866,-180.869 L 104.6,-180.903 L 104.34,-180.969 L 104.091,-181.068 L 103.856,-181.197 L 103.639,-181.355
 L 103.443,-181.538 L 103.273,-181.745 L 103.129,-181.971 L 103.015,-182.214 L 102.932,-182.469 L 102.882,-182.732
 L 102.865,-183 L 102.882,-183.268 L 102.932,-183.531 L 103.015,-183.786 L 103.129,-184.029 L 103.273,-184.255
 L 103.443,-184.462 L 103.639,-184.645 L 103.856,-184.803 L 104.091,-184.932 L 104.34,-185.031 L 104.6,-185.097
 L 104.866,-185.131 L 105.134,-185.131 L 105.4,-185.097 L 105.66,-185.031 L 105.909,-184.932 L 106.144,-184.803
 L 106.361,-184.645 L 106.557,-184.462 L 106.727,-184.255 L 106.871,-184.029 L 106.985,-183.786 L 107.068,-183.531
 L 107.118,-183.268 L 107.135,-183 L 107.118,-182.732 L 107.068,-182.469 L 106.985,-182.214 L 106.871,-181.971
 L 106.727,-181.745 L 106.557,-181.538 L 106.361,-181.355 L 106.144,-181.197 L 105.909,-181.068 L 105.66,-180.969
 L 105.4,-180.903 L 105.134,-180.869 z
M -105.134,-180.869 L -105.4,-180.903 L -105.66,-180.969 L -105.909,-181.068 L -106.144,-181.197 L -106.361,-181.355
 L -106.557,-181.538 L -106.727,-181.745 L -106.871,-181.971 L -106.985,-182.214 L -107.068,-182.469 L -107.118,-182.732
 L -107.135,-183 L -107.118,-183.268 L -107.068,-183.531 L -106.985,-183.786 L -106.871,-184.029 L -106.727,-184.255
 L -106.557,-184.462 L -106.361,-184.645 L -106.144,-184.803 L -105.909,-184.932 L -105.66,-185.031 L -105.4,-185.097
 L -105.134,-185.131 L -104.866,-185.131 L -104.6,-185.097 L -104.34,-185.031 L -104.091,-184.932 L -103.856,-184.803
 L -103.639,-184.645 L -103.443,-184.462 L -103.273,-184.255 L -103.129,-184.029 L -103.015,-183.786 L -102.932,-183.531
 L -102.882,-183.268 L -102.865,-183 L -102.882,-182.732 L -102.932,-182.469 L -103.015,-182.214 L -103.129,-181.971
 L -103.273,-181.745 L -103.443,-181.538 L -103.639,-181.355 L -103.856,-181.197 L -104.091,-181.068 L -104.34,-180.969
 L -104.6,-180.903 L -104.866,-180.869 z
M -109.5,-165.153 L -112.5,-165.153 L -112.5,-62.8474 L -109.5,-62.8474 z
" stroke="black" fill="lightgray" stroke-width="0.5"/>
</svg>
