  0
SECTION
  2
BLOCKS
  0
ENDSEC
  0
SECTION
  2
ENTITIES
  0
LINE
  8
0
 10
25.9369
 20
213.839
 11
26.5451
 21
213.995
  0
LINE
  8
0
 10
26.5451
 20
213.995
 11
27.1289
 21
214.226
  0
LINE
  8
0
 10
27.1289
 20
214.226
 11
27.6791
 21
214.528
  0
LINE
  8
0
 10
27.6791
 20
214.528
 11
28.1871
 21
214.897
  0
LINE
  8
0
 10
28.1871
 20
214.897
 11
28.6448
 21
215.327
  0
LINE
  8
0
 10
28.6448
 20
215.327
 11
29.0451
 21
215.811
  0
LINE
  8
0
 10
29.0451
 20
215.811
 11
29.3815
 21
216.341
  0
LINE
  8
0
 10
29.3815
 20
216.341
 11
29.6489
 21
216.909
  0
LINE
  8
0
 10
29.6489
 20
216.909
 11
29.8429
 21
217.507
  0
LINE
  8
0
 10
29.8429
 20
217.507
 11
29.9606
 21
218.123
  0
LINE
  8
0
 10
29.9606
 20
218.123
 11
30
 21
218.75
  0
LINE
  8
0
 10
30
 20
218.75
 11
30
 21
246.25
  0
LINE
  8
0
 10
30
 20
246.25
 11
29.9606
 21
246.877
  0
LINE
  8
0
 10
29.9606
 20
246.877
 11
29.8429
 21
247.493
  0
LINE
  8
0
 10
29.8429
 20
247.493
 11
29.6489
 21
248.091
  0
LINE
  8
0
 10
29.6489
 20
248.091
 11
29.3815
 21
248.659
  0
LINE
  8
0
 10
29.3815
 20
248.659
 11
29.0451
 21
249.189
  0
LINE
  8
0
 10
29.0451
 20
249.189
 11
28.6448
 21
249.673
  0
LINE
  8
0
 10
28.6448
 20
249.673
 11
28.1871
 21
250.103
  0
LINE
  8
0
 10
28.1871
 20
250.103
 11
27.6791
 21
250.472
  0
LINE
  8
0
 10
27.6791
 20
250.472
 11
27.1289
 21
250.774
  0
LINE
  8
0
 10
27.1289
 20
250.774
 11
26.5451
 21
251.005
  0
LINE
  8
0
 10
26.5451
 20
251.005
 11
25.9369
 21
251.161
  0
LINE
  8
0
 10
25.9369
 20
251.161
 11
25.3139
 21
251.24
  0
LINE
  8
0
 10
25.3139
 20
251.24
 11
-25.3139
 21
251.24
  0
LINE
  8
0
 10
-25.3139
 20
251.24
 11
-25.9369
 21
251.161
  0
LINE
  8
0
 10
-25.9369
 20
251.161
 11
-26.5451
 21
251.005
  0
LINE
  8
0
 10
-26.5451
 20
251.005
 11
-27.1289
 21
250.774
  0
LINE
  8
0
 10
-27.1289
 20
250.774
 11
-27.6791
 21
250.472
  0
LINE
  8
0
 10
-27.6791
 20
250.472
 11
-28.1871
 21
250.103
  0
LINE
  8
0
 10
-28.1871
 20
250.103
 11
-28.6448
 21
249.673
  0
LINE
  8
0
 10
-28.6448
 20
249.673
 11
-29.0451
 21
249.189
  0
LINE
  8
0
 10
-29.0451
 20
249.189
 11
-29.3815
 21
248.659
  0
LINE
  8
0
 10
-29.3815
 20
248.659
 11
-29.6489
 21
248.091
  0
LINE
  8
0
 10
-29.6489
 20
248.091
 11
-29.8429
 21
247.493
  0
LINE
  8
0
 10
-29.8429
 20
247.493
 11
-29.9606
 21
246.877
  0
LINE
  8
0
 10
-29.9606
 20
246.877
 11
-30
 21
246.25
  0
LINE
  8
0
 10
-30
 20
246.25
 11
-30
 21
218.75
  0
LINE
  8
0
 10
-30
 20
218.75
 11
-29.9606
 21
218.123
  0
LINE
  8
0
 10
-29.9606
 20
218.123
 11
-29.8429
 21
217.507
  0
LINE
  8
0
 10
-29.8429
 20
217.507
 11
-29.6489
 21
216.909
  0
LINE
  8
0
 10
-29.6489
 20
216.909
 11
-29.3815
 21
216.341
  0
LINE
  8
0
 10
-29.3815
 20
216.341
 11
-29.0451
 21
215.811
  0
LINE
  8
0
 10
-29.0451
 20
215.811
 11
-28.6448
 21
215.327
  0
LINE
  8
0
 10
-28.6448
 20
215.327
 11
-28.1871
 21
214.897
  0
LINE
  8
0
 10
-28.1871
 20
214.897
 11
-27.6791
 21
214.528
  0
LINE
  8
0
 10
-27.6791
 20
214.528
 11
-27.1289
 21
214.226
  0
LINE
  8
0
 10
-27.1289
 20
214.226
 11
-26.5451
 21
213.995
  0
LINE
  8
0
 10
-26.5451
 20
213.995
 11
-25.9369
 21
213.839
  0
LINE
  8
0
 10
-25.9369
 20
213.839
 11
-25.3139
 21
213.76
  0
LINE
  8
0
 10
-25.3139
 20
213.76
 11
25.3139
 21
213.76
  0
LINE
  8
0
 10
25.3139
 20
213.76
 11
25.9369
 21
213.839
  0
LINE
  8
0
 10
-24.7512
 20
215.258
 11
-25.2495
 21
215.321
  0
LINE
  8
0
 10
-25.2495
 20
215.321
 11
-25.7361
 21
215.446
  0
LINE
  8
0
 10
-25.7361
 20
215.446
 11
-26.2031
 21
215.631
  0
LINE
  8
0
 10
-26.2031
 20
215.631
 11
-26.6433
 21
215.873
  0
LINE
  8
0
 10
-26.6433
 20
215.873
 11
-27.0497
 21
216.168
  0
LINE
  8
0
 10
-27.0497
 20
216.168
 11
-27.4159
 21
216.512
  0
LINE
  8
0
 10
-27.4159
 20
216.512
 11
-27.7361
 21
216.899
  0
LINE
  8
0
 10
-27.7361
 20
216.899
 11
-28.0052
 21
217.323
  0
LINE
  8
0
 10
-28.0052
 20
217.323
 11
-28.2191
 21
217.778
  0
LINE
  8
0
 10
-28.2191
 20
217.778
 11
-28.3743
 21
218.255
  0
LINE
  8
0
 10
-28.3743
 20
218.255
 11
-28.4684
 21
218.749
  0
LINE
  8
0
 10
-28.4684
 20
218.749
 11
-28.5
 21
219.25
  0
LINE
  8
0
 10
-28.5
 20
219.25
 11
-28.5
 21
245.75
  0
LINE
  8
0
 10
-28.5
 20
245.75
 11
-28.4684
 21
246.251
  0
LINE
  8
0
 10
-28.4684
 20
246.251
 11
-28.3743
 21
246.745
  0
LINE
  8
0
 10
-28.3743
 20
246.745
 11
-28.2191
 21
247.222
  0
LINE
  8
0
 10
-28.2191
 20
247.222
 11
-28.0052
 21
247.677
  0
LINE
  8
0
 10
-28.0052
 20
247.677
 11
-27.7361
 21
248.101
  0
LINE
  8
0
 10
-27.7361
 20
248.101
 11
-27.4159
 21
248.488
  0
LINE
  8
0
 10
-27.4159
 20
248.488
 11
-27.0497
 21
248.832
  0
LINE
  8
0
 10
-27.0497
 20
248.832
 11
-26.6433
 21
249.127
  0
LINE
  8
0
 10
-26.6433
 20
249.127
 11
-26.2031
 21
249.369
  0
LINE
  8
0
 10
-26.2031
 20
249.369
 11
-25.7361
 21
249.554
  0
LINE
  8
0
 10
-25.7361
 20
249.554
 11
-25.2495
 21
249.679
  0
LINE
  8
0
 10
-25.2495
 20
249.679
 11
-24.7512
 21
249.742
  0
LINE
  8
0
 10
-24.7512
 20
249.742
 11
24.7512
 21
249.742
  0
LINE
  8
0
 10
24.7512
 20
249.742
 11
25.2495
 21
249.679
  0
LINE
  8
0
 10
25.2495
 20
249.679
 11
25.7361
 21
249.554
  0
LINE
  8
0
 10
25.7361
 20
249.554
 11
26.2031
 21
249.369
  0
LINE
  8
0
 10
26.2031
 20
249.369
 11
26.6433
 21
249.127
  0
LINE
  8
0
 10
26.6433
 20
249.127
 11
27.0497
 21
248.832
  0
LINE
  8
0
 10
27.0497
 20
248.832
 11
27.4159
 21
248.488
  0
LINE
  8
0
 10
27.4159
 20
248.488
 11
27.7361
 21
248.101
  0
LINE
  8
0
 10
27.7361
 20
248.101
 11
28.0052
 21
247.677
  0
LINE
  8
0
 10
28.0052
 20
247.677
 11
28.2191
 21
247.222
  0
LINE
  8
0
 10
28.2191
 20
247.222
 11
28.3743
 21
246.745
  0
LINE
  8
0
 10
28.3743
 20
246.745
 11
28.4684
 21
246.251
  0
LINE
  8
0
 10
28.4684
 20
246.251
 11
28.5
 21
245.75
  0
LINE
  8
0
 10
28.5
 20
245.75
 11
28.5
 21
219.25
  0
LINE
  8
0
 10
28.5
 20
219.25
 11
28.4684
 21
218.749
  0
LINE
  8
0
 10
28.4684
 20
218.749
 11
28.3743
 21
218.255
  0
LINE
  8
0
 10
28.3743
 20
218.255
 11
28.2191
 21
217.778
  0
LINE
  8
0
 10
28.2191
 20
217.778
 11
28.0052
 21
217.323
  0
LINE
  8
0
 10
28.0052
 20
217.323
 11
27.7361
 21
216.899
  0
LINE
  8
0
 10
27.7361
 20
216.899
 11
27.4159
 21
216.512
  0
LINE
  8
0
 10
27.4159
 20
216.512
 11
27.0497
 21
216.168
  0
LINE
  8
0
 10
27.0497
 20
216.168
 11
26.6433
 21
215.873
  0
LINE
  8
0
 10
26.6433
 20
215.873
 11
26.2031
 21
215.631
  0
LINE
  8
0
 10
26.2031
 20
215.631
 11
25.7361
 21
215.446
  0
LINE
  8
0
 10
25.7361
 20
215.446
 11
25.2495
 21
215.321
  0
LINE
  8
0
 10
25.2495
 20
215.321
 11
24.7512
 21
215.258
  0
LINE
  8
0
 10
24.7512
 20
215.258
 11
-24.7512
 21
215.258
  0
LINE
  8
0
 10
25.9369
 20
167.339
 11
26.5451
 21
167.495
  0
LINE
  8
0
 10
26.5451
 20
167.495
 11
27.1289
 21
167.726
  0
LINE
  8
0
 10
27.1289
 20
167.726
 11
27.6791
 21
168.028
  0
LINE
  8
0
 10
27.6791
 20
168.028
 11
28.1871
 21
168.397
  0
LINE
  8
0
 10
28.1871
 20
168.397
 11
28.6448
 21
168.827
  0
LINE
  8
0
 10
28.6448
 20
168.827
 11
29.0451
 21
169.311
  0
LINE
  8
0
 10
29.0451
 20
169.311
 11
29.3815
 21
169.841
  0
LINE
  8
0
 10
29.3815
 20
169.841
 11
29.6489
 21
170.409
  0
LINE
  8
0
 10
29.6489
 20
170.409
 11
29.8429
 21
171.007
  0
LINE
  8
0
 10
29.8429
 20
171.007
 11
29.9606
 21
171.623
  0
LINE
  8
0
 10
29.9606
 20
171.623
 11
30
 21
172.25
  0
LINE
  8
0
 10
30
 20
172.25
 11
30
 21
199.75
  0
LINE
  8
0
 10
30
 20
199.75
 11
29.9606
 21
200.377
  0
LINE
  8
0
 10
29.9606
 20
200.377
 11
29.8429
 21
200.993
  0
LINE
  8
0
 10
29.8429
 20
200.993
 11
29.6489
 21
201.591
  0
LINE
  8
0
 10
29.6489
 20
201.591
 11
29.3815
 21
202.159
  0
LINE
  8
0
 10
29.3815
 20
202.159
 11
29.0451
 21
202.689
  0
LINE
  8
0
 10
29.0451
 20
202.689
 11
28.6448
 21
203.173
  0
LINE
  8
0
 10
28.6448
 20
203.173
 11
28.1871
 21
203.603
  0
LINE
  8
0
 10
28.1871
 20
203.603
 11
27.6791
 21
203.972
  0
LINE
  8
0
 10
27.6791
 20
203.972
 11
27.1289
 21
204.274
  0
LINE
  8
0
 10
27.1289
 20
204.274
 11
26.5451
 21
204.505
  0
LINE
  8
0
 10
26.5451
 20
204.505
 11
25.9369
 21
204.661
  0
LINE
  8
0
 10
25.9369
 20
204.661
 11
25.3139
 21
204.74
  0
LINE
  8
0
 10
25.3139
 20
204.74
 11
-25.3139
 21
204.74
  0
LINE
  8
0
 10
-25.3139
 20
204.74
 11
-25.9369
 21
204.661
  0
LINE
  8
0
 10
-25.9369
 20
204.661
 11
-26.5451
 21
204.505
  0
LINE
  8
0
 10
-26.5451
 20
204.505
 11
-27.1289
 21
204.274
  0
LINE
  8
0
 10
-27.1289
 20
204.274
 11
-27.6791
 21
203.972
  0
LINE
  8
0
 10
-27.6791
 20
203.972
 11
-28.1871
 21
203.603
  0
LINE
  8
0
 10
-28.1871
 20
203.603
 11
-28.6448
 21
203.173
  0
LINE
  8
0
 10
-28.6448
 20
203.173
 11
-29.0451
 21
202.689
  0
LINE
  8
0
 10
-29.0451
 20
202.689
 11
-29.3815
 21
202.159
  0
LINE
  8
0
 10
-29.3815
 20
202.159
 11
-29.6489
 21
201.591
  0
LINE
  8
0
 10
-29.6489
 20
201.591
 11
-29.8429
 21
200.993
  0
LINE
  8
0
 10
-29.8429
 20
200.993
 11
-29.9606
 21
200.377
  0
LINE
  8
0
 10
-29.9606
 20
200.377
 11
-30
 21
199.75
  0
LINE
  8
0
 10
-30
 20
199.75
 11
-30
 21
172.25
  0
LINE
  8
0
 10
-30
 20
172.25
 11
-29.9606
 21
171.623
  0
LINE
  8
0
 10
-29.9606
 20
171.623
 11
-29.8429
 21
171.007
  0
LINE
  8
0
 10
-29.8429
 20
171.007
 11
-29.6489
 21
170.409
  0
LINE
  8
0
 10
-29.6489
 20
170.409
 11
-29.3815
 21
169.841
  0
LINE
  8
0
 10
-29.3815
 20
169.841
 11
-29.0451
 21
169.311
  0
LINE
  8
0
 10
-29.0451
 20
169.311
 11
-28.6448
 21
168.827
  0
LINE
  8
0
 10
-28.6448
 20
168.827
 11
-28.1871
 21
168.397
  0
LINE
  8
0
 10
-28.1871
 20
168.397
 11
-27.6791
 21
168.028
  0
LINE
  8
0
 10
-27.6791
 20
168.028
 11
-27.1289
 21
167.726
  0
LINE
  8
0
 10
-27.1289
 20
167.726
 11
-26.5451
 21
167.495
  0
LINE
  8
0
 10
-26.5451
 20
167.495
 11
-25.9369
 21
167.339
  0
LINE
  8
0
 10
-25.9369
 20
167.339
 11
-25.3139
 21
167.26
  0
LINE
  8
0
 10
-25.3139
 20
167.26
 11
25.3139
 21
167.26
  0
LINE
  8
0
 10
25.3139
 20
167.26
 11
25.9369
 21
167.339
  0
LINE
  8
0
 10
-24.6954
 20
169.643
 11
-25.0833
 21
169.692
  0
LINE
  8
0
 10
-25.0833
 20
169.692
 11
-25.4619
 21
169.789
  0
LINE
  8
0
 10
-25.4619
 20
169.789
 11
-25.8254
 21
169.933
  0
LINE
  8
0
 10
-25.8254
 20
169.933
 11
-26.168
 21
170.122
  0
LINE
  8
0
 10
-26.168
 20
170.122
 11
-26.4842
 21
170.351
  0
LINE
  8
0
 10
-26.4842
 20
170.351
 11
-26.7692
 21
170.619
  0
LINE
  8
0
 10
-26.7692
 20
170.619
 11
-27.0184
 21
170.92
  0
LINE
  8
0
 10
-27.0184
 20
170.92
 11
-27.2279
 21
171.25
  0
LINE
  8
0
 10
-27.2279
 20
171.25
 11
-27.3943
 21
171.604
  0
LINE
  8
0
 10
-27.3943
 20
171.604
 11
-27.5151
 21
171.976
  0
LINE
  8
0
 10
-27.5151
 20
171.976
 11
-27.5884
 21
172.36
  0
LINE
  8
0
 10
-27.5884
 20
172.36
 11
-27.6129
 21
172.75
  0
LINE
  8
0
 10
-27.6129
 20
172.75
 11
-27.6129
 21
199.25
  0
LINE
  8
0
 10
-27.6129
 20
199.25
 11
-27.5884
 21
199.64
  0
LINE
  8
0
 10
-27.5884
 20
199.64
 11
-27.5151
 21
200.024
  0
LINE
  8
0
 10
-27.5151
 20
200.024
 11
-27.3943
 21
200.396
  0
LINE
  8
0
 10
-27.3943
 20
200.396
 11
-27.2279
 21
200.75
  0
LINE
  8
0
 10
-27.2279
 20
200.75
 11
-27.0184
 21
201.08
  0
LINE
  8
0
 10
-27.0184
 20
201.08
 11
-26.7692
 21
201.381
  0
LINE
  8
0
 10
-26.7692
 20
201.381
 11
-26.4842
 21
201.649
  0
LINE
  8
0
 10
-26.4842
 20
201.649
 11
-26.168
 21
201.878
  0
LINE
  8
0
 10
-26.168
 20
201.878
 11
-25.8254
 21
202.067
  0
LINE
  8
0
 10
-25.8254
 20
202.067
 11
-25.4619
 21
202.211
  0
LINE
  8
0
 10
-25.4619
 20
202.211
 11
-25.0833
 21
202.308
  0
LINE
  8
0
 10
-25.0833
 20
202.308
 11
-24.6954
 21
202.357
  0
LINE
  8
0
 10
-24.6954
 20
202.357
 11
24.6954
 21
202.357
  0
LINE
  8
0
 10
24.6954
 20
202.357
 11
25.0833
 21
202.308
  0
LINE
  8
0
 10
25.0833
 20
202.308
 11
25.4619
 21
202.211
  0
LINE
  8
0
 10
25.4619
 20
202.211
 11
25.8254
 21
202.067
  0
LINE
  8
0
 10
25.8254
 20
202.067
 11
26.168
 21
201.878
  0
LINE
  8
0
 10
26.168
 20
201.878
 11
26.4842
 21
201.649
  0
LINE
  8
0
 10
26.4842
 20
201.649
 11
26.7692
 21
201.381
  0
LINE
  8
0
 10
26.7692
 20
201.381
 11
27.0184
 21
201.08
  0
LINE
  8
0
 10
27.0184
 20
201.08
 11
27.2279
 21
200.75
  0
LINE
  8
0
 10
27.2279
 20
200.75
 11
27.3943
 21
200.396
  0
LINE
  8
0
 10
27.3943
 20
200.396
 11
27.5151
 21
200.024
  0
LINE
  8
0
 10
27.5151
 20
200.024
 11
27.5884
 21
199.64
  0
LINE
  8
0
 10
27.5884
 20
199.64
 11
27.6129
 21
199.25
  0
LINE
  8
0
 10
27.6129
 20
199.25
 11
27.6129
 21
172.75
  0
LINE
  8
0
 10
27.6129
 20
172.75
 11
27.5884
 21
172.36
  0
LINE
  8
0
 10
27.5884
 20
172.36
 11
27.5151
 21
171.976
  0
LINE
  8
0
 10
27.5151
 20
171.976
 11
27.3943
 21
171.604
  0
LINE
  8
0
 10
27.3943
 20
171.604
 11
27.2279
 21
171.25
  0
LINE
  8
0
 10
27.2279
 20
171.25
 11
27.0184
 21
170.92
  0
LINE
  8
0
 10
27.0184
 20
170.92
 11
26.7692
 21
170.619
  0
LINE
  8
0
 10
26.7692
 20
170.619
 11
26.4842
 21
170.351
  0
LINE
  8
0
 10
26.4842
 20
170.351
 11
26.168
 21
170.122
  0
LINE
  8
0
 10
26.168
 20
170.122
 11
25.8254
 21
169.933
  0
LINE
  8
0
 10
25.8254
 20
169.933
 11
25.4619
 21
169.789
  0
LINE
  8
0
 10
25.4619
 20
169.789
 11
25.0833
 21
169.692
  0
LINE
  8
0
 10
25.0833
 20
169.692
 11
24.6954
 21
169.643
  0
LINE
  8
0
 10
24.6954
 20
169.643
 11
-24.6954
 21
169.643
  0
LINE
  8
0
 10
25.9369
 20
120.839
 11
26.5451
 21
120.995
  0
LINE
  8
0
 10
26.5451
 20
120.995
 11
27.1289
 21
121.226
  0
LINE
  8
0
 10
27.1289
 20
121.226
 11
27.6791
 21
121.528
  0
LINE
  8
0
 10
27.6791
 20
121.528
 11
28.1871
 21
121.897
  0
LINE
  8
0
 10
28.1871
 20
121.897
 11
28.6448
 21
122.327
  0
LINE
  8
0
 10
28.6448
 20
122.327
 11
29.0451
 21
122.811
  0
LINE
  8
0
 10
29.0451
 20
122.811
 11
29.3815
 21
123.341
  0
LINE
  8
0
 10
29.3815
 20
123.341
 11
29.6489
 21
123.909
  0
LINE
  8
0
 10
29.6489
 20
123.909
 11
29.8429
 21
124.507
  0
LINE
  8
0
 10
29.8429
 20
124.507
 11
29.9606
 21
125.123
  0
LINE
  8
0
 10
29.9606
 20
125.123
 11
30
 21
125.75
  0
LINE
  8
0
 10
30
 20
125.75
 11
30
 21
153.25
  0
LINE
  8
0
 10
30
 20
153.25
 11
29.9606
 21
153.877
  0
LINE
  8
0
 10
29.9606
 20
153.877
 11
29.8429
 21
154.493
  0
LINE
  8
0
 10
29.8429
 20
154.493
 11
29.6489
 21
155.091
  0
LINE
  8
0
 10
29.6489
 20
155.091
 11
29.3815
 21
155.659
  0
LINE
  8
0
 10
29.3815
 20
155.659
 11
29.0451
 21
156.189
  0
LINE
  8
0
 10
29.0451
 20
156.189
 11
28.6448
 21
156.673
  0
LINE
  8
0
 10
28.6448
 20
156.673
 11
28.1871
 21
157.103
  0
LINE
  8
0
 10
28.1871
 20
157.103
 11
27.6791
 21
157.472
  0
LINE
  8
0
 10
27.6791
 20
157.472
 11
27.1289
 21
157.774
  0
LINE
  8
0
 10
27.1289
 20
157.774
 11
26.5451
 21
158.005
  0
LINE
  8
0
 10
26.5451
 20
158.005
 11
25.9369
 21
158.161
  0
LINE
  8
0
 10
25.9369
 20
158.161
 11
25.3139
 21
158.24
  0
LINE
  8
0
 10
25.3139
 20
158.24
 11
-25.3139
 21
158.24
  0
LINE
  8
0
 10
-25.3139
 20
158.24
 11
-25.9369
 21
158.161
  0
LINE
  8
0
 10
-25.9369
 20
158.161
 11
-26.5451
 21
158.005
  0
LINE
  8
0
 10
-26.5451
 20
158.005
 11
-27.1289
 21
157.774
  0
LINE
  8
0
 10
-27.1289
 20
157.774
 11
-27.6791
 21
157.472
  0
LINE
  8
0
 10
-27.6791
 20
157.472
 11
-28.1871
 21
157.103
  0
LINE
  8
0
 10
-28.1871
 20
157.103
 11
-28.6448
 21
156.673
  0
LINE
  8
0
 10
-28.6448
 20
156.673
 11
-29.0451
 21
156.189
  0
LINE
  8
0
 10
-29.0451
 20
156.189
 11
-29.3815
 21
155.659
  0
LINE
  8
0
 10
-29.3815
 20
155.659
 11
-29.6489
 21
155.091
  0
LINE
  8
0
 10
-29.6489
 20
155.091
 11
-29.8429
 21
154.493
  0
LINE
  8
0
 10
-29.8429
 20
154.493
 11
-29.9606
 21
153.877
  0
LINE
  8
0
 10
-29.9606
 20
153.877
 11
-30
 21
153.25
  0
LINE
  8
0
 10
-30
 20
153.25
 11
-30
 21
125.75
  0
LINE
  8
0
 10
-30
 20
125.75
 11
-29.9606
 21
125.123
  0
LINE
  8
0
 10
-29.9606
 20
125.123
 11
-29.8429
 21
124.507
  0
LINE
  8
0
 10
-29.8429
 20
124.507
 11
-29.6489
 21
123.909
  0
LINE
  8
0
 10
-29.6489
 20
123.909
 11
-29.3815
 21
123.341
  0
LINE
  8
0
 10
-29.3815
 20
123.341
 11
-29.0451
 21
122.811
  0
LINE
  8
0
 10
-29.0451
 20
122.811
 11
-28.6448
 21
122.327
  0
LINE
  8
0
 10
-28.6448
 20
122.327
 11
-28.1871
 21
121.897
  0
LINE
  8
0
 10
-28.1871
 20
121.897
 11
-27.6791
 21
121.528
  0
LINE
  8
0
 10
-27.6791
 20
121.528
 11
-27.1289
 21
121.226
  0
LINE
  8
0
 10
-27.1289
 20
121.226
 11
-26.5451
 21
120.995
  0
LINE
  8
0
 10
-26.5451
 20
120.995
 11
-25.9369
 21
120.839
  0
LINE
  8
0
 10
-25.9369
 20
120.839
 11
-25.3139
 21
120.76
  0
LINE
  8
0
 10
-25.3139
 20
120.76
 11
25.3139
 21
120.76
  0
LINE
  8
0
 10
25.3139
 20
120.76
 11
25.9369
 21
120.839
  0
LINE
  8
0
 10
22.3659
 20
148.619
 11
22.0999
 21
148.653
  0
LINE
  8
0
 10
22.0999
 20
148.653
 11
21.8401
 21
148.719
  0
LINE
  8
0
 10
21.8401
 20
148.719
 11
21.5908
 21
148.818
  0
LINE
  8
0
 10
21.5908
 20
148.818
 11
21.3559
 21
148.947
  0
LINE
  8
0
 10
21.3559
 20
148.947
 11
21.1389
 21
149.105
  0
LINE
  8
0
 10
21.1389
 20
149.105
 11
20.9434
 21
149.288
  0
LINE
  8
0
 10
20.9434
 20
149.288
 11
20.7725
 21
149.495
  0
LINE
  8
0
 10
20.7725
 20
149.495
 11
20.6288
 21
149.721
  0
LINE
  8
0
 10
20.6288
 20
149.721
 11
20.5146
 21
149.964
  0
LINE
  8
0
 10
20.5146
 20
149.964
 11
20.4318
 21
150.219
  0
LINE
  8
0
 10
20.4318
 20
150.219
 11
20.3815
 21
150.482
  0
LINE
  8
0
 10
20.3815
 20
150.482
 11
20.3647
 21
150.75
  0
LINE
  8
0
 10
20.3647
 20
150.75
 11
20.3815
 21
151.018
  0
LINE
  8
0
 10
20.3815
 20
151.018
 11
20.4318
 21
151.281
  0
LINE
  8
0
 10
20.4318
 20
151.281
 11
20.5146
 21
151.536
  0
LINE
  8
0
 10
20.5146
 20
151.536
 11
20.6288
 21
151.779
  0
LINE
  8
0
 10
20.6288
 20
151.779
 11
20.7725
 21
152.005
  0
LINE
  8
0
 10
20.7725
 20
152.005
 11
20.9434
 21
152.212
  0
LINE
  8
0
 10
20.9434
 20
152.212
 11
21.1389
 21
152.395
  0
LINE
  8
0
 10
21.1389
 20
152.395
 11
21.3559
 21
152.553
  0
LINE
  8
0
 10
21.3559
 20
152.553
 11
21.5908
 21
152.682
  0
LINE
  8
0
 10
21.5908
 20
152.682
 11
21.8401
 21
152.781
  0
LINE
  8
0
 10
21.8401
 20
152.781
 11
22.0999
 21
152.847
  0
LINE
  8
0
 10
22.0999
 20
152.847
 11
22.3659
 21
152.881
  0
LINE
  8
0
 10
22.3659
 20
152.881
 11
22.6341
 21
152.881
  0
LINE
  8
0
 10
22.6341
 20
152.881
 11
22.9001
 21
152.847
  0
LINE
  8
0
 10
22.9001
 20
152.847
 11
23.1598
 21
152.781
  0
LINE
  8
0
 10
23.1598
 20
152.781
 11
23.4091
 21
152.682
  0
LINE
  8
0
 10
23.4091
 20
152.682
 11
23.6441
 21
152.553
  0
LINE
  8
0
 10
23.6441
 20
152.553
 11
23.8611
 21
152.395
  0
LINE
  8
0
 10
23.8611
 20
152.395
 11
24.0565
 21
152.212
  0
LINE
  8
0
 10
24.0565
 20
152.212
 11
24.2275
 21
152.005
  0
LINE
  8
0
 10
24.2275
 20
152.005
 11
24.3712
 21
151.779
  0
LINE
  8
0
 10
24.3712
 20
151.779
 11
24.4853
 21
151.536
  0
LINE
  8
0
 10
24.4853
 20
151.536
 11
24.5682
 21
151.281
  0
LINE
  8
0
 10
24.5682
 20
151.281
 11
24.6185
 21
151.018
  0
LINE
  8
0
 10
24.6185
 20
151.018
 11
24.6353
 21
150.75
  0
LINE
  8
0
 10
24.6353
 20
150.75
 11
24.6185
 21
150.482
  0
LINE
  8
0
 10
24.6185
 20
150.482
 11
24.5682
 21
150.219
  0
LINE
  8
0
 10
24.5682
 20
150.219
 11
24.4853
 21
149.964
  0
LINE
  8
0
 10
24.4853
 20
149.964
 11
24.3712
 21
149.721
  0
LINE
  8
0
 10
24.3712
 20
149.721
 11
24.2275
 21
149.495
  0
LINE
  8
0
 10
24.2275
 20
149.495
 11
24.0565
 21
149.288
  0
LINE
  8
0
 10
24.0565
 20
149.288
 11
23.8611
 21
149.105
  0
LINE
  8
0
 10
23.8611
 20
149.105
 11
23.6441
 21
148.947
  0
LINE
  8
0
 10
23.6441
 20
148.947
 11
23.4091
 21
148.818
  0
LINE
  8
0
 10
23.4091
 20
148.818
 11
23.1598
 21
148.719
  0
LINE
  8
0
 10
23.1598
 20
148.719
 11
22.9001
 21
148.653
  0
LINE
  8
0
 10
22.9001
 20
148.653
 11
22.6341
 21
148.619
  0
LINE
  8
0
 10
22.6341
 20
148.619
 11
22.3659
 21
148.619
  0
LINE
  8
0
 10
-22.6341
 20
148.619
 11
-22.9001
 21
148.653
  0
LINE
  8
0
 10
-22.9001
 20
148.653
 11
-23.1598
 21
148.719
  0
LINE
  8
0
 10
-23.1598
 20
148.719
 11
-23.4091
 21
148.818
  0
LINE
  8
0
 10
-23.4091
 20
148.818
 11
-23.6441
 21
148.947
  0
LINE
  8
0
 10
-23.6441
 20
148.947
 11
-23.8611
 21
149.105
  0
LINE
  8
0
 10
-23.8611
 20
149.105
 11
-24.0565
 21
149.288
  0
LINE
  8
0
 10
-24.0565
 20
149.288
 11
-24.2275
 21
149.495
  0
LINE
  8
0
 10
-24.2275
 20
149.495
 11
-24.3712
 21
149.721
  0
LINE
  8
0
 10
-24.3712
 20
149.721
 11
-24.4853
 21
149.964
  0
LINE
  8
0
 10
-24.4853
 20
149.964
 11
-24.5682
 21
150.219
  0
LINE
  8
0
 10
-24.5682
 20
150.219
 11
-24.6185
 21
150.482
  0
LINE
  8
0
 10
-24.6185
 20
150.482
 11
-24.6353
 21
150.75
  0
LINE
  8
0
 10
-24.6353
 20
150.75
 11
-24.6185
 21
151.018
  0
LINE
  8
0
 10
-24.6185
 20
151.018
 11
-24.5682
 21
151.281
  0
LINE
  8
0
 10
-24.5682
 20
151.281
 11
-24.4853
 21
151.536
  0
LINE
  8
0
 10
-24.4853
 20
151.536
 11
-24.3712
 21
151.779
  0
LINE
  8
0
 10
-24.3712
 20
151.779
 11
-24.2275
 21
152.005
  0
LINE
  8
0
 10
-24.2275
 20
152.005
 11
-24.0565
 21
152.212
  0
LINE
  8
0
 10
-24.0565
 20
152.212
 11
-23.8611
 21
152.395
  0
LINE
  8
0
 10
-23.8611
 20
152.395
 11
-23.6441
 21
152.553
  0
LINE
  8
0
 10
-23.6441
 20
152.553
 11
-23.4091
 21
152.682
  0
LINE
  8
0
 10
-23.4091
 20
152.682
 11
-23.1598
 21
152.781
  0
LINE
  8
0
 10
-23.1598
 20
152.781
 11
-22.9001
 21
152.847
  0
LINE
  8
0
 10
-22.9001
 20
152.847
 11
-22.6341
 21
152.881
  0
LINE
  8
0
 10
-22.6341
 20
152.881
 11
-22.3659
 21
152.881
  0
LINE
  8
0
 10
-22.3659
 20
152.881
 11
-22.0999
 21
152.847
  0
LINE
  8
0
 10
-22.0999
 20
152.847
 11
-21.8401
 21
152.781
  0
LINE
  8
0
 10
-21.8401
 20
152.781
 11
-21.5908
 21
152.682
  0
LINE
  8
0
 10
-21.5908
 20
152.682
 11
-21.3559
 21
152.553
  0
LINE
  8
0
 10
-21.3559
 20
152.553
 11
-21.1389
 21
152.395
  0
LINE
  8
0
 10
-21.1389
 20
152.395
 11
-20.9434
 21
152.212
  0
LINE
  8
0
 10
-20.9434
 20
152.212
 11
-20.7725
 21
152.005
  0
LINE
  8
0
 10
-20.7725
 20
152.005
 11
-20.6288
 21
151.779
  0
LINE
  8
0
 10
-20.6288
 20
151.779
 11
-20.5146
 21
151.536
  0
LINE
  8
0
 10
-20.5146
 20
151.536
 11
-20.4318
 21
151.281
  0
LINE
  8
0
 10
-20.4318
 20
151.281
 11
-20.3815
 21
151.018
  0
LINE
  8
0
 10
-20.3815
 20
151.018
 11
-20.3647
 21
150.75
  0
LINE
  8
0
 10
-20.3647
 20
150.75
 11
-20.3815
 21
150.482
  0
LINE
  8
0
 10
-20.3815
 20
150.482
 11
-20.4318
 21
150.219
  0
LINE
  8
0
 10
-20.4318
 20
150.219
 11
-20.5146
 21
149.964
  0
LINE
  8
0
 10
-20.5146
 20
149.964
 11
-20.6288
 21
149.721
  0
LINE
  8
0
 10
-20.6288
 20
149.721
 11
-20.7725
 21
149.495
  0
LINE
  8
0
 10
-20.7725
 20
149.495
 11
-20.9434
 21
149.288
  0
LINE
  8
0
 10
-20.9434
 20
149.288
 11
-21.1389
 21
149.105
  0
LINE
  8
0
 10
-21.1389
 20
149.105
 11
-21.3559
 21
148.947
  0
LINE
  8
0
 10
-21.3559
 20
148.947
 11
-21.5908
 21
148.818
  0
LINE
  8
0
 10
-21.5908
 20
148.818
 11
-21.8401
 21
148.719
  0
LINE
  8
0
 10
-21.8401
 20
148.719
 11
-22.0999
 21
148.653
  0
LINE
  8
0
 10
-22.0999
 20
148.653
 11
-22.3659
 21
148.619
  0
LINE
  8
0
 10
-22.3659
 20
148.619
 11
-22.6341
 21
148.619
  0
LINE
  8
0
 10
22.3659
 20
126.119
 11
22.0999
 21
126.153
  0
LINE
  8
0
 10
22.0999
 20
126.153
 11
21.8401
 21
126.219
  0
LINE
  8
0
 10
21.8401
 20
126.219
 11
21.5908
 21
126.318
  0
LINE
  8
0
 10
21.5908
 20
126.318
 11
21.3559
 21
126.447
  0
LINE
  8
0
 10
21.3559
 20
126.447
 11
21.1389
 21
126.605
  0
LINE
  8
0
 10
21.1389
 20
126.605
 11
20.9434
 21
126.788
  0
LINE
  8
0
 10
20.9434
 20
126.788
 11
20.7725
 21
126.995
  0
LINE
  8
0
 10
20.7725
 20
126.995
 11
20.6288
 21
127.221
  0
LINE
  8
0
 10
20.6288
 20
127.221
 11
20.5146
 21
127.464
  0
LINE
  8
0
 10
20.5146
 20
127.464
 11
20.4318
 21
127.719
  0
LINE
  8
0
 10
20.4318
 20
127.719
 11
20.3815
 21
127.982
  0
LINE
  8
0
 10
20.3815
 20
127.982
 11
20.3647
 21
128.25
  0
LINE
  8
0
 10
20.3647
 20
128.25
 11
20.3815
 21
128.518
  0
LINE
  8
0
 10
20.3815
 20
128.518
 11
20.4318
 21
128.781
  0
LINE
  8
0
 10
20.4318
 20
128.781
 11
20.5146
 21
129.036
  0
LINE
  8
0
 10
20.5146
 20
129.036
 11
20.6288
 21
129.279
  0
LINE
  8
0
 10
20.6288
 20
129.279
 11
20.7725
 21
129.505
  0
LINE
  8
0
 10
20.7725
 20
129.505
 11
20.9434
 21
129.712
  0
LINE
  8
0
 10
20.9434
 20
129.712
 11
21.1389
 21
129.895
  0
LINE
  8
0
 10
21.1389
 20
129.895
 11
21.3559
 21
130.053
  0
LINE
  8
0
 10
21.3559
 20
130.053
 11
21.5908
 21
130.182
  0
LINE
  8
0
 10
21.5908
 20
130.182
 11
21.8401
 21
130.281
  0
LINE
  8
0
 10
21.8401
 20
130.281
 11
22.0999
 21
130.347
  0
LINE
  8
0
 10
22.0999
 20
130.347
 11
22.3659
 21
130.381
  0
LINE
  8
0
 10
22.3659
 20
130.381
 11
22.6341
 21
130.381
  0
LINE
  8
0
 10
22.6341
 20
130.381
 11
22.9001
 21
130.347
  0
LINE
  8
0
 10
22.9001
 20
130.347
 11
23.1598
 21
130.281
  0
LINE
  8
0
 10
23.1598
 20
130.281
 11
23.4091
 21
130.182
  0
LINE
  8
0
 10
23.4091
 20
130.182
 11
23.6441
 21
130.053
  0
LINE
  8
0
 10
23.6441
 20
130.053
 11
23.8611
 21
129.895
  0
LINE
  8
0
 10
23.8611
 20
129.895
 11
24.0565
 21
129.712
  0
LINE
  8
0
 10
24.0565
 20
129.712
 11
24.2275
 21
129.505
  0
LINE
  8
0
 10
24.2275
 20
129.505
 11
24.3712
 21
129.279
  0
LINE
  8
0
 10
24.3712
 20
129.279
 11
24.4853
 21
129.036
  0
LINE
  8
0
 10
24.4853
 20
129.036
 11
24.5682
 21
128.781
  0
LINE
  8
0
 10
24.5682
 20
128.781
 11
24.6185
 21
128.518
  0
LINE
  8
0
 10
24.6185
 20
128.518
 11
24.6353
 21
128.25
  0
LINE
  8
0
 10
24.6353
 20
128.25
 11
24.6185
 21
127.982
  0
LINE
  8
0
 10
24.6185
 20
127.982
 11
24.5682
 21
127.719
  0
LINE
  8
0
 10
24.5682
 20
127.719
 11
24.4853
 21
127.464
  0
LINE
  8
0
 10
24.4853
 20
127.464
 11
24.3712
 21
127.221
  0
LINE
  8
0
 10
24.3712
 20
127.221
 11
24.2275
 21
126.995
  0
LINE
  8
0
 10
24.2275
 20
126.995
 11
24.0565
 21
126.788
  0
LINE
  8
0
 10
24.0565
 20
126.788
 11
23.8611
 21
126.605
  0
LINE
  8
0
 10
23.8611
 20
126.605
 11
23.6441
 21
126.447
  0
LINE
  8
0
 10
23.6441
 20
126.447
 11
23.4091
 21
126.318
  0
LINE
  8
0
 10
23.4091
 20
126.318
 11
23.1598
 21
126.219
  0
LINE
  8
0
 10
23.1598
 20
126.219
 11
22.9001
 21
126.153
  0
LINE
  8
0
 10
22.9001
 20
126.153
 11
22.6341
 21
126.119
  0
LINE
  8
0
 10
22.6341
 20
126.119
 11
22.3659
 21
126.119
  0
LINE
  8
0
 10
-22.6341
 20
126.119
 11
-22.9001
 21
126.153
  0
LINE
  8
0
 10
-22.9001
 20
126.153
 11
-23.1598
 21
126.219
  0
LINE
  8
0
 10
-23.1598
 20
126.219
 11
-23.4091
 21
126.318
  0
LINE
  8
0
 10
-23.4091
 20
126.318
 11
-23.6441
 21
126.447
  0
LINE
  8
0
 10
-23.6441
 20
126.447
 11
-23.8611
 21
126.605
  0
LINE
  8
0
 10
-23.8611
 20
126.605
 11
-24.0565
 21
126.788
  0
LINE
  8
0
 10
-24.0565
 20
126.788
 11
-24.2275
 21
126.995
  0
LINE
  8
0
 10
-24.2275
 20
126.995
 11
-24.3712
 21
127.221
  0
LINE
  8
0
 10
-24.3712
 20
127.221
 11
-24.4853
 21
127.464
  0
LINE
  8
0
 10
-24.4853
 20
127.464
 11
-24.5682
 21
127.719
  0
LINE
  8
0
 10
-24.5682
 20
127.719
 11
-24.6185
 21
127.982
  0
LINE
  8
0
 10
-24.6185
 20
127.982
 11
-24.6353
 21
128.25
  0
LINE
  8
0
 10
-24.6353
 20
128.25
 11
-24.6185
 21
128.518
  0
LINE
  8
0
 10
-24.6185
 20
128.518
 11
-24.5682
 21
128.781
  0
LINE
  8
0
 10
-24.5682
 20
128.781
 11
-24.4853
 21
129.036
  0
LINE
  8
0
 10
-24.4853
 20
129.036
 11
-24.3712
 21
129.279
  0
LINE
  8
0
 10
-24.3712
 20
129.279
 11
-24.2275
 21
129.505
  0
LINE
  8
0
 10
-24.2275
 20
129.505
 11
-24.0565
 21
129.712
  0
LINE
  8
0
 10
-24.0565
 20
129.712
 11
-23.8611
 21
129.895
  0
LINE
  8
0
 10
-23.8611
 20
129.895
 11
-23.6441
 21
130.053
  0
LINE
  8
0
 10
-23.6441
 20
130.053
 11
-23.4091
 21
130.182
  0
LINE
  8
0
 10
-23.4091
 20
130.182
 11
-23.1598
 21
130.281
  0
LINE
  8
0
 10
-23.1598
 20
130.281
 11
-22.9001
 21
130.347
  0
LINE
  8
0
 10
-22.9001
 20
130.347
 11
-22.6341
 21
130.381
  0
LINE
  8
0
 10
-22.6341
 20
130.381
 11
-22.3659
 21
130.381
  0
LINE
  8
0
 10
-22.3659
 20
130.381
 11
-22.0999
 21
130.347
  0
LINE
  8
0
 10
-22.0999
 20
130.347
 11
-21.8401
 21
130.281
  0
LINE
  8
0
 10
-21.8401
 20
130.281
 11
-21.5908
 21
130.182
  0
LINE
  8
0
 10
-21.5908
 20
130.182
 11
-21.3559
 21
130.053
  0
LINE
  8
0
 10
-21.3559
 20
130.053
 11
-21.1389
 21
129.895
  0
LINE
  8
0
 10
-21.1389
 20
129.895
 11
-20.9434
 21
129.712
  0
LINE
  8
0
 10
-20.9434
 20
129.712
 11
-20.7725
 21
129.505
  0
LINE
  8
0
 10
-20.7725
 20
129.505
 11
-20.6288
 21
129.279
  0
LINE
  8
0
 10
-20.6288
 20
129.279
 11
-20.5146
 21
129.036
  0
LINE
  8
0
 10
-20.5146
 20
129.036
 11
-20.4318
 21
128.781
  0
LINE
  8
0
 10
-20.4318
 20
128.781
 11
-20.3815
 21
128.518
  0
LINE
  8
0
 10
-20.3815
 20
128.518
 11
-20.3647
 21
128.25
  0
LINE
  8
0
 10
-20.3647
 20
128.25
 11
-20.3815
 21
127.982
  0
LINE
  8
0
 10
-20.3815
 20
127.982
 11
-20.4318
 21
127.719
  0
LINE
  8
0
 10
-20.4318
 20
127.719
 11
-20.5146
 21
127.464
  0
LINE
  8
0
 10
-20.5146
 20
127.464
 11
-20.6288
 21
127.221
  0
LINE
  8
0
 10
-20.6288
 20
127.221
 11
-20.7725
 21
126.995
  0
LINE
  8
0
 10
-20.7725
 20
126.995
 11
-20.9434
 21
126.788
  0
LINE
  8
0
 10
-20.9434
 20
126.788
 11
-21.1389
 21
126.605
  0
LINE
  8
0
 10
-21.1389
 20
126.605
 11
-21.3559
 21
126.447
  0
LINE
  8
0
 10
-21.3559
 20
126.447
 11
-21.5908
 21
126.318
  0
LINE
  8
0
 10
-21.5908
 20
126.318
 11
-21.8401
 21
126.219
  0
LINE
  8
0
 10
-21.8401
 20
126.219
 11
-22.0999
 21
126.153
  0
LINE
  8
0
 10
-22.0999
 20
126.153
 11
-22.3659
 21
126.119
  0
LINE
  8
0
 10
-22.3659
 20
126.119
 11
-22.6341
 21
126.119
  0
ENDSEC
  0
SECTION
  2
OBJECTS
  0
DICTIONARY
  0
ENDSEC
  0
EOF
