<?xml version="1.0" standalone="no"?>
<!DOCTYPE svg PUBLIC "-//W3C//DTD SVG 1.1//EN" "http://www.w3.org/Graphics/SVG/1.1/DTD/svg11.dtd">
<svg width="210mm" height="1168mm" viewBox="-105 -2201 210 1168" xmlns="http://www.w3.org/2000/svg" version="1.1">
<title>OpenSCAD Model</title>
<path d="
M 100.937,-1915.59 L 101.545,-1915.74 L 102.129,-1915.98 L 102.679,-1916.28 L 103.187,-1916.65 L 103.645,-1917.08
 L 104.045,-1917.56 L 104.382,-1918.09 L 104.649,-1918.66 L 104.843,-1919.26 L 104.961,-1919.87 L 105,-1920.5
 L 105,-2195.5 L 104.961,-2196.13 L 104.843,-2196.74 L 104.649,-2197.34 L 104.382,-2197.91 L 104.045,-2198.44
 L 103.645,-2198.92 L 103.187,-2199.35 L 102.679,-2199.72 L 102.129,-2200.02 L 101.545,-2200.26 L 100.937,-2200.41
 L 100.314,-2200.49 L -100.314,-2200.49 L -100.937,-2200.41 L -101.545,-2200.26 L -102.129,-2200.02 L -102.679,-2199.72
 L -103.187,-2199.35 L -103.645,-2198.92 L -104.045,-2198.44 L -104.382,-2197.91 L -104.649,-2197.34 L -104.843,-2196.74
 L -104.961,-2196.13 L -105,-2195.5 L -105,-1920.5 L -104.961,-1919.87 L -104.843,-1919.26 L -104.649,-1918.66
 L -104.382,-1918.09 L -104.045,-1917.56 L -103.645,-1917.08 L -103.187,-1916.65 L -102.679,-1916.28 L -102.129,-1915.98
 L -101.545,-1915.74 L -100.937,-1915.59 L -100.314,-1915.51 L 100.314,-1915.51 z
M -99.7512,-1917.01 L -100.25,-1917.07 L -100.736,-1917.2 L -101.203,-1917.38 L -101.643,-1917.62 L -102.05,-1917.92
 L -102.416,-1918.26 L -102.736,-1918.65 L -103.005,-1919.07 L -103.219,-1919.53 L -103.374,-1920.01 L -103.468,-1920.5
 L -103.5,-1921 L -103.5,-2195 L -103.468,-2195.5 L -103.374,-2195.99 L -103.219,-2196.47 L -103.005,-2196.93
 L -102.736,-2197.35 L -102.416,-2197.74 L -102.05,-2198.08 L -101.643,-2198.38 L -101.203,-2198.62 L -100.736,-2198.8
 L -100.25,-2198.93 L -99.7512,-2198.99 L 99.7512,-2198.99 L 100.25,-2198.93 L 100.736,-2198.8 L 101.203,-2198.62
 L 101.643,-2198.38 L 102.05,-2198.08 L 102.416,-2197.74 L 102.736,-2197.35 L 103.005,-2196.93 L 103.219,-2196.47
 L 103.374,-2195.99 L 103.468,-2195.5 L 103.5,-2195 L 103.5,-1921 L 103.468,-1920.5 L 103.374,-1920.01
 L 103.219,-1919.53 L 103.005,-1919.07 L 102.736,-1918.65 L 102.416,-1918.26 L 102.05,-1917.92 L 101.643,-1917.62
 L 101.203,-1917.38 L 100.736,-1917.2 L 100.25,-1917.07 L 99.7512,-1917.01 z
M 100.937,-1621.59 L 101.545,-1621.74 L 102.129,-1621.98 L 102.679,-1622.28 L 103.187,-1622.65 L 103.645,-1623.08
 L 104.045,-1623.56 L 104.382,-1624.09 L 104.649,-1624.66 L 104.843,-1625.26 L 104.961,-1625.87 L 105,-1626.5
 L 105,-1901.5 L 104.961,-1902.13 L 104.843,-1902.74 L 104.649,-1903.34 L 104.382,-1903.91 L 104.045,-1904.44
 L 103.645,-1904.92 L 103.187,-1905.35 L 102.679,-1905.72 L 102.129,-1906.02 L 101.545,-1906.26 L 100.937,-1906.41
 L 100.314,-1906.49 L -100.314,-1906.49 L -100.937,-1906.41 L -101.545,-1906.26 L -102.129,-1906.02 L -102.679,-1905.72
 L -103.187,-1905.35 L -103.645,-1904.92 L -104.045,-1904.44 L -104.382,-1903.91 L -104.649,-1903.34 L -104.843,-1902.74
 L -104.961,-1902.13 L -105,-1901.5 L -105,-1626.5 L -104.961,-1625.87 L -104.843,-1625.26 L -104.649,-1624.66
 L -104.382,-1624.09 L -104.045,-1623.56 L -103.645,-1623.08 L -103.187,-1622.65 L -102.679,-1622.28 L -102.129,-1621.98
 L -101.545,-1621.74 L -100.937,-1621.59 L -100.314,-1621.51 L 100.314,-1621.51 z
M -99.7512,-1623.01 L -100.25,-1623.07 L -100.736,-1623.2 L -101.203,-1623.38 L -101.643,-1623.62 L -102.05,-1623.92
 L -102.416,-1624.26 L -102.736,-1624.65 L -103.005,-1625.07 L -103.219,-1625.53 L -103.374,-1626.01 L -103.468,-1626.5
 L -103.5,-1627 L -103.5,-1901 L -103.468,-1901.5 L -103.374,-1901.99 L -103.219,-1902.47 L -103.005,-1902.93
 L -102.736,-1903.35 L -102.416,-1903.74 L -102.05,-1904.08 L -101.643,-1904.38 L -101.203,-1904.62 L -100.736,-1904.8
 L -100.25,-1904.93 L -99.7512,-1904.99 L 99.7512,-1904.99 L 100.25,-1904.93 L 100.736,-1904.8 L 101.203,-1904.62
 L 101.643,-1904.38 L 102.05,-1904.08 L 102.416,-1903.74 L 102.736,-1903.35 L 103.005,-1902.93 L 103.219,-1902.47
 L 103.374,-1901.99 L 103.468,-1901.5 L 103.5,-1901 L 103.5,-1627 L 103.468,-1626.5 L 103.374,-1626.01
 L 103.219,-1625.53 L 103.005,-1625.07 L 102.736,-1624.65 L 102.416,-1624.26 L 102.05,-1623.92 L 101.643,-1623.62
 L 101.203,-1623.38 L 100.736,-1623.2 L 100.25,-1623.07 L 99.7512,-1623.01 z
M 100.937,-1327.59 L 101.545,-1327.74 L 102.129,-1327.98 L 102.679,-1328.28 L 103.187,-1328.65 L 103.645,-1329.08
 L 104.045,-1329.56 L 104.382,-1330.09 L 104.649,-1330.66 L 104.843,-1331.26 L 104.961,-1331.87 L 105,-1332.5
 L 105,-1607.5 L 104.961,-1608.13 L 104.843,-1608.74 L 104.649,-1609.34 L 104.382,-1609.91 L 104.045,-1610.44
 L 103.645,-1610.92 L 103.187,-1611.35 L 102.679,-1611.72 L 102.129,-1612.02 L 101.545,-1612.26 L 100.937,-1612.41
 L 100.314,-1612.49 L -100.314,-1612.49 L -100.937,-1612.41 L -101.545,-1612.26 L -102.129,-1612.02 L -102.679,-1611.72
 L -103.187,-1611.35 L -103.645,-1610.92 L -104.045,-1610.44 L -104.382,-1609.91 L -104.649,-1609.34 L -104.843,-1608.74
 L -104.961,-1608.13 L -105,-1607.5 L -105,-1332.5 L -104.961,-1331.87 L -104.843,-1331.26 L -104.649,-1330.66
 L -104.382,-1330.09 L -104.045,-1329.56 L -103.645,-1329.08 L -103.187,-1328.65 L -102.679,-1328.28 L -102.129,-1327.98
 L -101.545,-1327.74 L -100.937,-1327.59 L -100.314,-1327.51 L 100.314,-1327.51 z
M -99.6955,-1329.89 L -100.083,-1329.94 L -100.462,-1330.04 L -100.825,-1330.18 L -101.168,-1330.37 L -101.484,-1330.6
 L -101.769,-1330.87 L -102.018,-1331.17 L -102.228,-1331.5 L -102.394,-1331.85 L -102.515,-1332.23 L -102.588,-1332.61
 L -102.613,-1333 L -102.613,-1607 L -102.588,-1607.39 L -102.515,-1607.77 L -102.394,-1608.15 L -102.228,-1608.5
 L -102.018,-1608.83 L -101.769,-1609.13 L -101.484,-1609.4 L -101.168,-1609.63 L -100.825,-1609.82 L -100.462,-1609.96
 L -100.083,-1610.06 L -99.6955,-1610.11 L 99.6955,-1610.11 L 100.083,-1610.06 L 100.462,-1609.96 L 100.825,-1609.82
 L 101.168,-1609.63 L 101.484,-1609.4 L 101.769,-1609.13 L 102.018,-1608.83 L 102.228,-1608.5 L 102.394,-1608.15
 L 102.515,-1607.77 L 102.588,-1607.39 L 102.613,-1607 L 102.613,-1333 L 102.588,-1332.61 L 102.515,-1332.23
 L 102.394,-1331.85 L 102.228,-1331.5 L 102.018,-1331.17 L 101.769,-1330.87 L 101.484,-1330.6 L 101.168,-1330.37
 L 100.825,-1330.18 L 100.462,-1330.04 L 100.083,-1329.94 L 99.6955,-1329.89 z
M 100.937,-1033.59 L 101.545,-1033.74 L 102.129,-1033.98 L 102.679,-1034.28 L 103.187,-1034.65 L 103.645,-1035.08
 L 104.045,-1035.56 L 104.382,-1036.09 L 104.649,-1036.66 L 104.843,-1037.26 L 104.961,-1037.87 L 105,-1038.5
 L 105,-1313.5 L 104.961,-1314.13 L 104.843,-1314.74 L 104.649,-1315.34 L 104.382,-1315.91 L 104.045,-1316.44
 L 103.645,-1316.92 L 103.187,-1317.35 L 102.679,-1317.72 L 102.129,-1318.02 L 101.545,-1318.26 L 100.937,-1318.41
 L 100.314,-1318.49 L -100.314,-1318.49 L -100.937,-1318.41 L -101.545,-1318.26 L -102.129,-1318.02 L -102.679,-1317.72
 L -103.187,-1317.35 L -103.645,-1316.92 L -104.045,-1316.44 L -104.382,-1315.91 L -104.649,-1315.34 L -104.843,-1314.74
 L -104.961,-1314.13 L -105,-1313.5 L -105,-1038.5 L -104.961,-1037.87 L -104.843,-1037.26 L -104.649,-1036.66
 L -104.382,-1036.09 L -104.045,-1035.56 L -103.645,-1035.08 L -103.187,-1034.65 L -102.679,-1034.28 L -102.129,-1033.98
 L -101.545,-1033.74 L -100.937,-1033.59 L -100.314,-1033.51 L 100.314,-1033.51 z
M 97.3659,-1308.87 L 97.0999,-1308.9 L 96.8401,-1308.97 L 96.5908,-1309.07 L 96.3559,-1309.2 L 96.1389,-1309.35
 L 95.9434,-1309.54 L 95.7725,-1309.74 L 95.6288,-1309.97 L 95.5146,-1310.21 L 95.4318,-1310.47 L 95.3815,-1310.73
 L 95.3647,-1311 L 95.3815,-1311.27 L 95.4318,-1311.53 L 95.5146,-1311.79 L 95.6288,-1312.03 L 95.7725,-1312.26
 L 95.9434,-1312.46 L 96.1389,-1312.65 L 96.3559,-1312.8 L 96.5908,-1312.93 L 96.8401,-1313.03 L 97.0999,-1313.1
 L 97.3659,-1313.13 L 97.6341,-1313.13 L 97.9001,-1313.1 L 98.1598,-1313.03 L 98.4092,-1312.93 L 98.6441,-1312.8
 L 98.8611,-1312.65 L 99.0566,-1312.46 L 99.2275,-1312.26 L 99.3712,-1312.03 L 99.4853,-1311.79 L 99.5682,-1311.53
 L 99.6185,-1311.27 L 99.6353,-1311 L 99.6185,-1310.73 L 99.5682,-1310.47 L 99.4853,-1310.21 L 99.3712,-1309.97
 L 99.2275,-1309.74 L 99.0566,-1309.54 L 98.8611,-1309.35 L 98.6441,-1309.2 L 98.4092,-1309.07 L 98.1598,-1308.97
 L 97.9001,-1308.9 L 97.6341,-1308.87 z
M -97.6341,-1308.87 L -97.9001,-1308.9 L -98.1598,-1308.97 L -98.4092,-1309.07 L -98.6441,-1309.2 L -98.8611,-1309.35
 L -99.0566,-1309.54 L -99.2275,-1309.74 L -99.3712,-1309.97 L -99.4853,-1310.21 L -99.5682,-1310.47 L -99.6185,-1310.73
 L -99.6353,-1311 L -99.6185,-1311.27 L -99.5682,-1311.53 L -99.4853,-1311.79 L -99.3712,-1312.03 L -99.2275,-1312.26
 L -99.0566,-1312.46 L -98.8611,-1312.65 L -98.6441,-1312.8 L -98.4092,-1312.93 L -98.1598,-1313.03 L -97.9001,-1313.1
 L -97.6341,-1313.13 L -97.3659,-1313.13 L -97.0999,-1313.1 L -96.8401,-1313.03 L -96.5908,-1312.93 L -96.3559,-1312.8
 L -96.1389,-1312.65 L -95.9434,-1312.46 L -95.7725,-1312.26 L -95.6288,-1312.03 L -95.5146,-1311.79 L -95.4318,-1311.53
 L -95.3815,-1311.27 L -95.3647,-1311 L -95.3815,-1310.73 L -95.4318,-1310.47 L -95.5146,-1310.21 L -95.6288,-1309.97
 L -95.7725,-1309.74 L -95.9434,-1309.54 L -96.1389,-1309.35 L -96.3559,-1309.2 L -96.5908,-1309.07 L -96.8401,-1308.97
 L -97.0999,-1308.9 L -97.3659,-1308.87 z
M 97.3659,-1038.87 L 97.0999,-1038.9 L 96.8401,-1038.97 L 96.5908,-1039.07 L 96.3559,-1039.2 L 96.1389,-1039.35
 L 95.9434,-1039.54 L 95.7725,-1039.74 L 95.6288,-1039.97 L 95.5146,-1040.21 L 95.4318,-1040.47 L 95.3815,-1040.73
 L 95.3647,-1041 L 95.3815,-1041.27 L 95.4318,-1041.53 L 95.5146,-1041.79 L 95.6288,-1042.03 L 95.7725,-1042.26
 L 95.9434,-1042.46 L 96.1389,-1042.65 L 96.3559,-1042.8 L 96.5908,-1042.93 L 96.8401,-1043.03 L 97.0999,-1043.1
 L 97.3659,-1043.13 L 97.6341,-1043.13 L 97.9001,-1043.1 L 98.1598,-1043.03 L 98.4092,-1042.93 L 98.6441,-1042.8
 L 98.8611,-1042.65 L 99.0566,-1042.46 L 99.2275,-1042.26 L 99.3712,-1042.03 L 99.4853,-1041.79 L 99.5682,-1041.53
 L 99.6185,-1041.27 L 99.6353,-1041 L 99.6185,-1040.73 L 99.5682,-1040.47 L 99.4853,-1040.21 L 99.3712,-1039.97
 L 99.2275,-1039.74 L 99.0566,-1039.54 L 98.8611,-1039.35 L 98.6441,-1039.2 L 98.4092,-1039.07 L 98.1598,-1038.97
 L 97.9001,-1038.9 L 97.6341,-1038.87 z
M -97.6341,-1038.87 L -97.9001,-1038.9 L -98.1598,-1038.97 L -98.4092,-1039.07 L -98.6441,-1039.2 L -98.8611,-1039.35
 L -99.0566,-1039.54 L -99.2275,-1039.74 L -99.3712,-1039.97 L -99.4853,-1040.21 L -99.5682,-1040.47 L -99.6185,-1040.73
 L -99.6353,-1041 L -99.6185,-1041.27 L -99.5682,-1041.53 L -99.4853,-1041.79 L -99.3712,-1042.03 L -99.2275,-1042.26
 L -99.0566,-1042.46 L -98.8611,-1042.65 L -98.6441,-1042.8 L -98.4092,-1042.93 L -98.1598,-1043.03 L -97.9001,-1043.1
 L -97.6341,-1043.13 L -97.3659,-1043.13 L -97.0999,-1043.1 L -96.8401,-1043.03 L -96.5908,-1042.93 L -96.3559,-1042.8
 L -96.1389,-1042.65 L -95.9434,-1042.46 L -95.7725,-1042.26 L -95.6288,-1042.03 L -95.5146,-1041.79 L -95.4318,-1041.53
 L -95.3815,-1041.27 L -95.3647,-1041 L -95.3815,-1040.73 L -95.4318,-1040.47 L -95.5146,-1040.21 L -95.6288,-1039.97
 L -95.7725,-1039.74 L -95.9434,-1039.54 L -96.1389,-1039.35 L -96.3559,-1039.2 L -96.5908,-1039.07 L -96.8401,-1038.97
 L -97.0999,-1038.9 L -97.3659,-1038.87 z
" stroke="black" fill="lightgray" stroke-width="0.5"/>
</svg>
