<?xml version="1.0" standalone="no"?>
<!DOCTYPE svg PUBLIC "-//W3C//DTD SVG 1.1//EN" "http://www.w3.org/Graphics/SVG/1.1/DTD/svg11.dtd">
<svg width="38mm" height="412mm" viewBox="-19 -794 38 412" xmlns="http://www.w3.org/2000/svg" version="1.1">
<title>OpenSCAD Model</title>
<path d="
M 14.6869,-718.589 L 15.2951,-718.745 L 15.8789,-718.976 L 16.4291,-719.278 L 16.9371,-719.647 L 17.3948,-720.077
 L 17.7951,-720.561 L 18.1315,-721.091 L 18.3989,-721.659 L 18.5929,-722.257 L 18.7106,-722.873 L 18.75,-723.5
 L 18.75,-788.5 L 18.7106,-789.127 L 18.5929,-789.743 L 18.3989,-790.341 L 18.1315,-790.909 L 17.7951,-791.439
 L 17.3948,-791.923 L 16.9371,-792.353 L 16.4291,-792.722 L 15.8789,-793.024 L 15.2951,-793.255 L 14.6869,-793.411
 L 14.0639,-793.49 L -14.0639,-793.49 L -14.6869,-793.411 L -15.2951,-793.255 L -15.8789,-793.024 L -16.4291,-792.722
 L -16.9371,-792.353 L -17.3948,-791.923 L -17.7951,-791.439 L -18.1315,-790.909 L -18.3989,-790.341 L -18.5929,-789.743
 L -18.7106,-789.127 L -18.75,-788.5 L -18.75,-723.5 L -18.7106,-722.873 L -18.5929,-722.257 L -18.3989,-721.659
 L -18.1315,-721.091 L -17.7951,-720.561 L -17.3948,-720.077 L -16.9371,-719.647 L -16.4291,-719.278 L -15.8789,-718.976
 L -15.2951,-718.745 L -14.6869,-718.589 L -14.0639,-718.51 L 14.0639,-718.51 z
M -13.5012,-720.008 L -13.9995,-720.071 L -14.4861,-720.196 L -14.9531,-720.381 L -15.3933,-720.623 L -15.7997,-720.918
 L -16.1659,-721.262 L -16.4861,-721.649 L -16.7552,-722.073 L -16.9691,-722.528 L -17.1243,-723.005 L -17.2184,-723.499
 L -17.25,-724 L -17.25,-788 L -17.2184,-788.501 L -17.1243,-788.995 L -16.9691,-789.472 L -16.7552,-789.927
 L -16.4861,-790.351 L -16.1659,-790.738 L -15.7997,-791.082 L -15.3933,-791.377 L -14.9531,-791.619 L -14.4861,-791.804
 L -13.9995,-791.929 L -13.5012,-791.992 L 13.5012,-791.992 L 13.9995,-791.929 L 14.4861,-791.804 L 14.9531,-791.619
 L 15.3933,-791.377 L 15.7997,-791.082 L 16.1659,-790.738 L 16.4861,-790.351 L 16.7552,-789.927 L 16.9691,-789.472
 L 17.1243,-788.995 L 17.2184,-788.501 L 17.25,-788 L 17.25,-724 L 17.2184,-723.499 L 17.1243,-723.005
 L 16.9691,-722.528 L 16.7552,-722.073 L 16.4861,-721.649 L 16.1659,-721.262 L 15.7997,-720.918 L 15.3933,-720.623
 L 14.9531,-720.381 L 14.4861,-720.196 L 13.9995,-720.071 L 13.5012,-720.008 z
M 14.6869,-634.589 L 15.2951,-634.745 L 15.8789,-634.976 L 16.4291,-635.278 L 16.9371,-635.647 L 17.3948,-636.077
 L 17.7951,-636.561 L 18.1315,-637.091 L 18.3989,-637.659 L 18.5929,-638.257 L 18.7106,-638.873 L 18.75,-639.5
 L 18.75,-704.5 L 18.7106,-705.127 L 18.5929,-705.743 L 18.3989,-706.341 L 18.1315,-706.909 L 17.7951,-707.439
 L 17.3948,-707.923 L 16.9371,-708.353 L 16.4291,-708.722 L 15.8789,-709.024 L 15.2951,-709.255 L 14.6869,-709.411
 L 14.0639,-709.49 L -14.0639,-709.49 L -14.6869,-709.411 L -15.2951,-709.255 L -15.8789,-709.024 L -16.4291,-708.722
 L -16.9371,-708.353 L -17.3948,-707.923 L -17.7951,-707.439 L -18.1315,-706.909 L -18.3989,-706.341 L -18.5929,-705.743
 L -18.7106,-705.127 L -18.75,-704.5 L -18.75,-639.5 L -18.7106,-638.873 L -18.5929,-638.257 L -18.3989,-637.659
 L -18.1315,-637.091 L -17.7951,-636.561 L -17.3948,-636.077 L -16.9371,-635.647 L -16.4291,-635.278 L -15.8789,-634.976
 L -15.2951,-634.745 L -14.6869,-634.589 L -14.0639,-634.51 L 14.0639,-634.51 z
M -13.5012,-636.008 L -13.9995,-636.071 L -14.4861,-636.196 L -14.9531,-636.381 L -15.3933,-636.623 L -15.7997,-636.918
 L -16.1659,-637.262 L -16.4861,-637.649 L -16.7552,-638.073 L -16.9691,-638.528 L -17.1243,-639.005 L -17.2184,-639.499
 L -17.25,-640 L -17.25,-704 L -17.2184,-704.501 L -17.1243,-704.995 L -16.9691,-705.472 L -16.7552,-705.927
 L -16.4861,-706.351 L -16.1659,-706.738 L -15.7997,-707.082 L -15.3933,-707.377 L -14.9531,-707.619 L -14.4861,-707.804
 L -13.9995,-707.929 L -13.5012,-707.992 L 13.5012,-707.992 L 13.9995,-707.929 L 14.4861,-707.804 L 14.9531,-707.619
 L 15.3933,-707.377 L 15.7997,-707.082 L 16.1659,-706.738 L 16.4861,-706.351 L 16.7552,-705.927 L 16.9691,-705.472
 L 17.1243,-704.995 L 17.2184,-704.501 L 17.25,-704 L 17.25,-640 L 17.2184,-639.499 L 17.1243,-639.005
 L 16.9691,-638.528 L 16.7552,-638.073 L 16.4861,-637.649 L 16.1659,-637.262 L 15.7997,-636.918 L 15.3933,-636.623
 L 14.9531,-636.381 L 14.4861,-636.196 L 13.9995,-636.071 L 13.5012,-636.008 z
M 14.6869,-550.589 L 15.2951,-550.745 L 15.8789,-550.976 L 16.4291,-551.278 L 16.9371,-551.647 L 17.3948,-552.077
 L 17.7951,-552.561 L 18.1315,-553.091 L 18.3989,-553.659 L 18.5929,-554.257 L 18.7106,-554.873 L 18.75,-555.5
 L 18.75,-620.5 L 18.7106,-621.127 L 18.5929,-621.743 L 18.3989,-622.341 L 18.1315,-622.909 L 17.7951,-623.439
 L 17.3948,-623.923 L 16.9371,-624.353 L 16.4291,-624.722 L 15.8789,-625.024 L 15.2951,-625.255 L 14.6869,-625.411
 L 14.0639,-625.49 L -14.0639,-625.49 L -14.6869,-625.411 L -15.2951,-625.255 L -15.8789,-625.024 L -16.4291,-624.722
 L -16.9371,-624.353 L -17.3948,-623.923 L -17.7951,-623.439 L -18.1315,-622.909 L -18.3989,-622.341 L -18.5929,-621.743
 L -18.7106,-621.127 L -18.75,-620.5 L -18.75,-555.5 L -18.7106,-554.873 L -18.5929,-554.257 L -18.3989,-553.659
 L -18.1315,-553.091 L -17.7951,-552.561 L -17.3948,-552.077 L -16.9371,-551.647 L -16.4291,-551.278 L -15.8789,-550.976
 L -15.2951,-550.745 L -14.6869,-550.589 L -14.0639,-550.51 L 14.0639,-550.51 z
M -13.5012,-552.008 L -13.9995,-552.071 L -14.4861,-552.196 L -14.9531,-552.381 L -15.3933,-552.623 L -15.7997,-552.918
 L -16.1659,-553.262 L -16.4861,-553.649 L -16.7552,-554.073 L -16.9691,-554.528 L -17.1243,-555.005 L -17.2184,-555.499
 L -17.25,-556 L -17.25,-620 L -17.2184,-620.501 L -17.1243,-620.995 L -16.9691,-621.472 L -16.7552,-621.927
 L -16.4861,-622.351 L -16.1659,-622.738 L -15.7997,-623.082 L -15.3933,-623.377 L -14.9531,-623.619 L -14.4861,-623.804
 L -13.9995,-623.929 L -13.5012,-623.992 L 13.5012,-623.992 L 13.9995,-623.929 L 14.4861,-623.804 L 14.9531,-623.619
 L 15.3933,-623.377 L 15.7997,-623.082 L 16.1659,-622.738 L 16.4861,-622.351 L 16.7552,-621.927 L 16.9691,-621.472
 L 17.1243,-620.995 L 17.2184,-620.501 L 17.25,-620 L 17.25,-556 L 17.2184,-555.499 L 17.1243,-555.005
 L 16.9691,-554.528 L 16.7552,-554.073 L 16.4861,-553.649 L 16.1659,-553.262 L 15.7997,-552.918 L 15.3933,-552.623
 L 14.9531,-552.381 L 14.4861,-552.196 L 13.9995,-552.071 L 13.5012,-552.008 z
M 14.6869,-466.589 L 15.2951,-466.745 L 15.8789,-466.976 L 16.4291,-467.278 L 16.9371,-467.647 L 17.3948,-468.077
 L 17.7951,-468.561 L 18.1315,-469.091 L 18.3989,-469.659 L 18.5929,-470.257 L 18.7106,-470.873 L 18.75,-471.5
 L 18.75,-536.5 L 18.7106,-537.127 L 18.5929,-537.743 L 18.3989,-538.341 L 18.1315,-538.909 L 17.7951,-539.439
 L 17.3948,-539.923 L 16.9371,-540.353 L 16.4291,-540.722 L 15.8789,-541.024 L 15.2951,-541.255 L 14.6869,-541.411
 L 14.0639,-541.49 L -14.0639,-541.49 L -14.6869,-541.411 L -15.2951,-541.255 L -15.8789,-541.024 L -16.4291,-540.722
 L -16.9371,-540.353 L -17.3948,-539.923 L -17.7951,-539.439 L -18.1315,-538.909 L -18.3989,-538.341 L -18.5929,-537.743
 L -18.7106,-537.127 L -18.75,-536.5 L -18.75,-471.5 L -18.7106,-470.873 L -18.5929,-470.257 L -18.3989,-469.659
 L -18.1315,-469.091 L -17.7951,-468.561 L -17.3948,-468.077 L -16.9371,-467.647 L -16.4291,-467.278 L -15.8789,-466.976
 L -15.2951,-466.745 L -14.6869,-466.589 L -14.0639,-466.51 L 14.0639,-466.51 z
M -13.4454,-468.893 L -13.8333,-468.942 L -14.2119,-469.039 L -14.5754,-469.183 L -14.918,-469.372 L -15.2342,-469.601
 L -15.5192,-469.869 L -15.7684,-470.17 L -15.9779,-470.5 L -16.1443,-470.854 L -16.2651,-471.226 L -16.3384,-471.61
 L -16.3629,-472 L -16.3629,-536 L -16.3384,-536.39 L -16.2651,-536.774 L -16.1443,-537.146 L -15.9779,-537.5
 L -15.7684,-537.83 L -15.5192,-538.131 L -15.2342,-538.399 L -14.918,-538.628 L -14.5754,-538.817 L -14.2119,-538.961
 L -13.8333,-539.058 L -13.4454,-539.107 L 13.4454,-539.107 L 13.8333,-539.058 L 14.2119,-538.961 L 14.5754,-538.817
 L 14.918,-538.628 L 15.2342,-538.399 L 15.5192,-538.131 L 15.7684,-537.83 L 15.9779,-537.5 L 16.1443,-537.146
 L 16.2651,-536.774 L 16.3384,-536.39 L 16.3629,-536 L 16.3629,-472 L 16.3384,-471.61 L 16.2651,-471.226
 L 16.1443,-470.854 L 15.9779,-470.5 L 15.7684,-470.17 L 15.5192,-469.869 L 15.2342,-469.601 L 14.918,-469.372
 L 14.5754,-469.183 L 14.2119,-469.039 L 13.8333,-468.942 L 13.4454,-468.893 z
M 14.6869,-382.589 L 15.2951,-382.745 L 15.8789,-382.976 L 16.4291,-383.278 L 16.9371,-383.647 L 17.3948,-384.077
 L 17.7951,-384.561 L 18.1315,-385.091 L 18.3989,-385.659 L 18.5929,-386.257 L 18.7106,-386.873 L 18.75,-387.5
 L 18.75,-452.5 L 18.7106,-453.127 L 18.5929,-453.743 L 18.3989,-454.341 L 18.1315,-454.909 L 17.7951,-455.439
 L 17.3948,-455.923 L 16.9371,-456.353 L 16.4291,-456.722 L 15.8789,-457.024 L 15.2951,-457.255 L 14.6869,-457.411
 L 14.0639,-457.49 L -14.0639,-457.49 L -14.6869,-457.411 L -15.2951,-457.255 L -15.8789,-457.024 L -16.4291,-456.722
 L -16.9371,-456.353 L -17.3948,-455.923 L -17.7951,-455.439 L -18.1315,-454.909 L -18.3989,-454.341 L -18.5929,-453.743
 L -18.7106,-453.127 L -18.75,-452.5 L -18.75,-387.5 L -18.7106,-386.873 L -18.5929,-386.257 L -18.3989,-385.659
 L -18.1315,-385.091 L -17.7951,-384.561 L -17.3948,-384.077 L -16.9371,-383.647 L -16.4291,-383.278 L -15.8789,-382.976
 L -15.2951,-382.745 L -14.6869,-382.589 L -14.0639,-382.51 L 14.0639,-382.51 z
M 11.1159,-447.869 L 10.8499,-447.903 L 10.5901,-447.969 L 10.3408,-448.068 L 10.1059,-448.197 L 9.8889,-448.355
 L 9.69344,-448.538 L 9.52251,-448.745 L 9.37881,-448.971 L 9.26465,-449.214 L 9.18178,-449.469 L 9.13153,-449.732
 L 9.1147,-450 L 9.13153,-450.268 L 9.18178,-450.531 L 9.26465,-450.786 L 9.37881,-451.029 L 9.52251,-451.255
 L 9.69344,-451.462 L 9.8889,-451.645 L 10.1059,-451.803 L 10.3408,-451.932 L 10.5901,-452.031 L 10.8499,-452.097
 L 11.1159,-452.131 L 11.3841,-452.131 L 11.6501,-452.097 L 11.9098,-452.031 L 12.1591,-451.932 L 12.3941,-451.803
 L 12.6111,-451.645 L 12.8065,-451.462 L 12.9775,-451.255 L 13.1212,-451.029 L 13.2353,-450.786 L 13.3182,-450.531
 L 13.3685,-450.268 L 13.3853,-450 L 13.3685,-449.732 L 13.3182,-449.469 L 13.2353,-449.214 L 13.1212,-448.971
 L 12.9775,-448.745 L 12.8065,-448.538 L 12.6111,-448.355 L 12.3941,-448.197 L 12.1591,-448.068 L 11.9098,-447.969
 L 11.6501,-447.903 L 11.3841,-447.869 z
M -11.3841,-447.869 L -11.6501,-447.903 L -11.9098,-447.969 L -12.1591,-448.068 L -12.3941,-448.197 L -12.6111,-448.355
 L -12.8065,-448.538 L -12.9775,-448.745 L -13.1212,-448.971 L -13.2353,-449.214 L -13.3182,-449.469 L -13.3685,-449.732
 L -13.3853,-450 L -13.3685,-450.268 L -13.3182,-450.531 L -13.2353,-450.786 L -13.1212,-451.029 L -12.9775,-451.255
 L -12.8065,-451.462 L -12.6111,-451.645 L -12.3941,-451.803 L -12.1591,-451.932 L -11.9098,-452.031 L -11.6501,-452.097
 L -11.3841,-452.131 L -11.1159,-452.131 L -10.8499,-452.097 L -10.5901,-452.031 L -10.3408,-451.932 L -10.1059,-451.803
 L -9.8889,-451.645 L -9.69344,-451.462 L -9.52251,-451.255 L -9.37881,-451.029 L -9.26465,-450.786 L -9.18178,-450.531
 L -9.13153,-450.268 L -9.1147,-450 L -9.13153,-449.732 L -9.18178,-449.469 L -9.26465,-449.214 L -9.37881,-448.971
 L -9.52251,-448.745 L -9.69344,-448.538 L -9.8889,-448.355 L -10.1059,-448.197 L -10.3408,-448.068 L -10.5901,-447.969
 L -10.8499,-447.903 L -11.1159,-447.869 z
M 11.1159,-387.869 L 10.8499,-387.903 L 10.5901,-387.969 L 10.3408,-388.068 L 10.1059,-388.197 L 9.8889,-388.355
 L 9.69344,-388.538 L 9.52251,-388.745 L 9.37881,-388.971 L 9.26465,-389.214 L 9.18178,-389.469 L 9.13153,-389.732
 L 9.1147,-390 L 9.13153,-390.268 L 9.18178,-390.531 L 9.26465,-390.786 L 9.37881,-391.029 L 9.52251,-391.255
 L 9.69344,-391.462 L 9.8889,-391.645 L 10.1059,-391.803 L 10.3408,-391.932 L 10.5901,-392.031 L 10.8499,-392.097
 L 11.1159,-392.131 L 11.3841,-392.131 L 11.6501,-392.097 L 11.9098,-392.031 L 12.1591,-391.932 L 12.3941,-391.803
 L 12.6111,-391.645 L 12.8065,-391.462 L 12.9775,-391.255 L 13.1212,-391.029 L 13.2353,-390.786 L 13.3182,-390.531
 L 13.3685,-390.268 L 13.3853,-390 L 13.3685,-389.732 L 13.3182,-389.469 L 13.2353,-389.214 L 13.1212,-388.971
 L 12.9775,-388.745 L 12.8065,-388.538 L 12.6111,-388.355 L 12.3941,-388.197 L 12.1591,-388.068 L 11.9098,-387.969
 L 11.6501,-387.903 L 11.3841,-387.869 z
M -11.3841,-387.869 L -11.6501,-387.903 L -11.9098,-387.969 L -12.1591,-388.068 L -12.3941,-388.197 L -12.6111,-388.355
 L -12.8065,-388.538 L -12.9775,-388.745 L -13.1212,-388.971 L -13.2353,-389.214 L -13.3182,-389.469 L -13.3685,-389.732
 L -13.3853,-390 L -13.3685,-390.268 L -13.3182,-390.531 L -13.2353,-390.786 L -13.1212,-391.029 L -12.9775,-391.255
 L -12.8065,-391.462 L -12.6111,-391.645 L -12.3941,-391.803 L -12.1591,-391.932 L -11.9098,-392.031 L -11.6501,-392.097
 L -11.3841,-392.131 L -11.1159,-392.131 L -10.8499,-392.097 L -10.5901,-392.031 L -10.3408,-391.932 L -10.1059,-391.803
 L -9.8889,-391.645 L -9.69344,-391.462 L -9.52251,-391.255 L -9.37881,-391.029 L -9.26465,-390.786 L -9.18178,-390.531
 L -9.13153,-390.268 L -9.1147,-390 L -9.13153,-389.732 L -9.18178,-389.469 L -9.26465,-389.214 L -9.37881,-388.971
 L -9.52251,-388.745 L -9.69344,-388.538 L -9.8889,-388.355 L -10.1059,-388.197 L -10.3408,-388.068 L -10.5901,-387.969
 L -10.8499,-387.903 L -11.1159,-387.869 z
" stroke="black" fill="lightgray" stroke-width="0.5"/>
</svg>
