solid OpenSCAD_Model
  facet normal -1 0 0
    outer loop
      vertex -14.5 0 -6
      vertex -14.5 30.5 6
      vertex -14.5 30.5 -6
    endloop
  endfacet
  facet normal -1 -0 0
    outer loop
      vertex -14.5 30.5 6
      vertex -14.5 0 -6
      vertex -14.5 0 6
    endloop
  endfacet
  facet normal -0 0 1
    outer loop
      vertex -9 18 6
      vertex -6 12 6
      vertex -6 18 6
    endloop
  endfacet
  facet normal 0 0 1
    outer loop
      vertex -6 12 6
      vertex -9 18 6
      vertex -9 12 6
    endloop
  endfacet
  facet normal -0 0 1
    outer loop
      vertex -9 26 6
      vertex -6 19 6
      vertex -6 26 6
    endloop
  endfacet
  facet normal 0 0 1
    outer loop
      vertex -6 19 6
      vertex -9 26 6
      vertex -9 19 6
    endloop
  endfacet
  facet normal -0 0 1
    outer loop
      vertex -9 33 6
      vertex -6 27 6
      vertex -6 33 6
    endloop
  endfacet
  facet normal 0 0 1
    outer loop
      vertex -6 27 6
      vertex -9 33 6
      vertex -9 27 6
    endloop
  endfacet
  facet normal -0 0 1
    outer loop
      vertex 6 18 6
      vertex 9 12 6
      vertex 9 18 6
    endloop
  endfacet
  facet normal 0 0 1
    outer loop
      vertex 9 12 6
      vertex 6 18 6
      vertex 6 12 6
    endloop
  endfacet
  facet normal -0 0 1
    outer loop
      vertex 6 26 6
      vertex 9 19 6
      vertex 9 26 6
    endloop
  endfacet
  facet normal 0 0 1
    outer loop
      vertex 9 19 6
      vertex 6 26 6
      vertex 6 19 6
    endloop
  endfacet
  facet normal -0 0 1
    outer loop
      vertex 6 33 6
      vertex 9 27 6
      vertex 9 33 6
    endloop
  endfacet
  facet normal 0 0 1
    outer loop
      vertex 9 27 6
      vertex 6 33 6
      vertex 6 27 6
    endloop
  endfacet
  facet normal 0 0 1
    outer loop
      vertex 9.81395 35.4901 6
      vertex 6 34 6
      vertex 9 34 6
    endloop
  endfacet
  facet normal 0 0 1
    outer loop
      vertex -6 33 6
      vertex 6 33 6
      vertex 6 34 6
    endloop
  endfacet
  facet normal 0 0 1
    outer loop
      vertex 6 33 6
      vertex -6 33 6
      vertex 6 27 6
    endloop
  endfacet
  facet normal 0 0 1
    outer loop
      vertex 6 27 6
      vertex -6 27 6
      vertex 6 26 6
    endloop
  endfacet
  facet normal 0 0 1
    outer loop
      vertex 6 26 6
      vertex -6 26 6
      vertex 6 19 6
    endloop
  endfacet
  facet normal 0 0 1
    outer loop
      vertex -6 19 6
      vertex 6 19 6
      vertex -6 26 6
    endloop
  endfacet
  facet normal 0 0 1
    outer loop
      vertex 6 19 6
      vertex -6 19 6
      vertex 6 18 6
    endloop
  endfacet
  facet normal 0 0 1
    outer loop
      vertex -6 33 6
      vertex 6 34 6
      vertex -6 34 6
    endloop
  endfacet
  facet normal 0 0 1
    outer loop
      vertex 9.81395 35.4901 6
      vertex -6 34 6
      vertex 6 34 6
    endloop
  endfacet
  facet normal -0 0 1
    outer loop
      vertex -9.81395 35.4901 6
      vertex -6 34 6
      vertex 9.81395 35.4901 6
    endloop
  endfacet
  facet normal 0 0 1
    outer loop
      vertex -11.6289 35.0241 6
      vertex -9 33 6
      vertex -9 34 6
    endloop
  endfacet
  facet normal 0 0 1
    outer loop
      vertex -9 33 6
      vertex -14.5 30.5 6
      vertex -9 27 6
    endloop
  endfacet
  facet normal 0 0 1
    outer loop
      vertex -9 27 6
      vertex -14.5 30.5 6
      vertex -9 26 6
    endloop
  endfacet
  facet normal 0 0 1
    outer loop
      vertex -9 26 6
      vertex -14.5 30.5 6
      vertex -9 19 6
    endloop
  endfacet
  facet normal 0 0 1
    outer loop
      vertex -9 19 6
      vertex -14.5 30.5 6
      vertex -9 18 6
    endloop
  endfacet
  facet normal 0 0 1
    outer loop
      vertex -14.5 0 6
      vertex -9 18 6
      vertex -14.5 30.5 6
    endloop
  endfacet
  facet normal -0 0 1
    outer loop
      vertex -10.4369 35.4114 6
      vertex -9 34 6
      vertex -9.81395 35.4901 6
    endloop
  endfacet
  facet normal 0 0 1
    outer loop
      vertex -6 34 6
      vertex -9.81395 35.4901 6
      vertex -9 34 6
    endloop
  endfacet
  facet normal 0 0 1
    outer loop
      vertex 9 33 6
      vertex 14.5 30.5 6
      vertex 14.4606 31.1267 6
    endloop
  endfacet
  facet normal 0 0 1
    outer loop
      vertex 9 33 6
      vertex 14.4606 31.1267 6
      vertex 14.3429 31.7435 6
    endloop
  endfacet
  facet normal 0 0 1
    outer loop
      vertex 9 33 6
      vertex 14.3429 31.7435 6
      vertex 14.1489 32.3406 6
    endloop
  endfacet
  facet normal 0 0 1
    outer loop
      vertex 9 33 6
      vertex 14.1489 32.3406 6
      vertex 13.8815 32.9088 6
    endloop
  endfacet
  facet normal -0 0 1
    outer loop
      vertex 9 33 6
      vertex 13.8815 32.9088 6
      vertex 13.5451 33.4389 6
    endloop
  endfacet
  facet normal 0 0 1
    outer loop
      vertex 9 33 6
      vertex 13.5451 33.4389 6
      vertex 13.1448 33.9227 6
    endloop
  endfacet
  facet normal 0 0 1
    outer loop
      vertex 9 33 6
      vertex 13.1448 33.9227 6
      vertex 12.6871 34.3526 6
    endloop
  endfacet
  facet normal 0 0 1
    outer loop
      vertex 9 33 6
      vertex 12.6871 34.3526 6
      vertex 12.1791 34.7216 6
    endloop
  endfacet
  facet normal 0 0 1
    outer loop
      vertex 9 33 6
      vertex 12.1791 34.7216 6
      vertex 11.6289 35.0241 6
    endloop
  endfacet
  facet normal 0 0 1
    outer loop
      vertex 9 34 6
      vertex 11.6289 35.0241 6
      vertex 11.0451 35.2553 6
    endloop
  endfacet
  facet normal 0 0 1
    outer loop
      vertex 9 34 6
      vertex 11.0451 35.2553 6
      vertex 10.4369 35.4114 6
    endloop
  endfacet
  facet normal 0 0 1
    outer loop
      vertex 9 34 6
      vertex 10.4369 35.4114 6
      vertex 9.81395 35.4901 6
    endloop
  endfacet
  facet normal 0 0 1
    outer loop
      vertex 11.6289 35.0241 6
      vertex 9 34 6
      vertex 9 33 6
    endloop
  endfacet
  facet normal 0 0 1
    outer loop
      vertex 14.5 30.5 6
      vertex 9 33 6
      vertex 9 27 6
    endloop
  endfacet
  facet normal 0 0 1
    outer loop
      vertex 14.5 30.5 6
      vertex 9 27 6
      vertex 9 26 6
    endloop
  endfacet
  facet normal 0 0 1
    outer loop
      vertex 14.5 30.5 6
      vertex 9 26 6
      vertex 9 19 6
    endloop
  endfacet
  facet normal 0 0 1
    outer loop
      vertex 14.5 30.5 6
      vertex 9 19 6
      vertex 9 18 6
    endloop
  endfacet
  facet normal 0 0 1
    outer loop
      vertex 14.5 30.5 6
      vertex 9 18 6
      vertex 14.5 0 6
    endloop
  endfacet
  facet normal -0 0 1
    outer loop
      vertex 9 12 6
      vertex 14.5 0 6
      vertex 9 18 6
    endloop
  endfacet
  facet normal -0 0 1
    outer loop
      vertex 9 11 6
      vertex 14.5 0 6
      vertex 9 12 6
    endloop
  endfacet
  facet normal -0 0 1
    outer loop
      vertex 6 11 6
      vertex 14.5 0 6
      vertex 9 11 6
    endloop
  endfacet
  facet normal 0 0 1
    outer loop
      vertex 6 27 6
      vertex -6 33 6
      vertex -6 27 6
    endloop
  endfacet
  facet normal 0 0 1
    outer loop
      vertex 6 26 6
      vertex -6 27 6
      vertex -6 26 6
    endloop
  endfacet
  facet normal 0 0 1
    outer loop
      vertex -6 18 6
      vertex 6 18 6
      vertex -6 19 6
    endloop
  endfacet
  facet normal 0 0 1
    outer loop
      vertex 6 18 6
      vertex -6 18 6
      vertex 6 12 6
    endloop
  endfacet
  facet normal 0 0 1
    outer loop
      vertex -6 12 6
      vertex 6 12 6
      vertex -6 18 6
    endloop
  endfacet
  facet normal 0 0 1
    outer loop
      vertex 6 12 6
      vertex -6 12 6
      vertex 6 11 6
    endloop
  endfacet
  facet normal 0 0 1
    outer loop
      vertex -6 11 6
      vertex 6 11 6
      vertex -6 12 6
    endloop
  endfacet
  facet normal 0 0 1
    outer loop
      vertex 6 11 6
      vertex -6 11 6
      vertex 14.5 0 6
    endloop
  endfacet
  facet normal 0 0 1
    outer loop
      vertex -14.5 0 6
      vertex -6 11 6
      vertex -9 11 6
    endloop
  endfacet
  facet normal -0 0 1
    outer loop
      vertex -11.0451 35.2553 6
      vertex -9 34 6
      vertex -10.4369 35.4114 6
    endloop
  endfacet
  facet normal -0 0 1
    outer loop
      vertex -11.6289 35.0241 6
      vertex -9 34 6
      vertex -11.0451 35.2553 6
    endloop
  endfacet
  facet normal 0 0 1
    outer loop
      vertex -9 33 6
      vertex -11.6289 35.0241 6
      vertex -12.1791 34.7216 6
    endloop
  endfacet
  facet normal 0 0 1
    outer loop
      vertex -9 33 6
      vertex -12.1791 34.7216 6
      vertex -12.6871 34.3526 6
    endloop
  endfacet
  facet normal 0 0 1
    outer loop
      vertex -9 33 6
      vertex -12.6871 34.3526 6
      vertex -13.1448 33.9227 6
    endloop
  endfacet
  facet normal 0 0 1
    outer loop
      vertex -9 33 6
      vertex -13.1448 33.9227 6
      vertex -13.5451 33.4389 6
    endloop
  endfacet
  facet normal 0 0 1
    outer loop
      vertex -9 33 6
      vertex -13.5451 33.4389 6
      vertex -13.8815 32.9088 6
    endloop
  endfacet
  facet normal 0 0 1
    outer loop
      vertex -9 33 6
      vertex -13.8815 32.9088 6
      vertex -14.1489 32.3406 6
    endloop
  endfacet
  facet normal 0 0 1
    outer loop
      vertex -9 33 6
      vertex -14.1489 32.3406 6
      vertex -14.3429 31.7435 6
    endloop
  endfacet
  facet normal 0 0 1
    outer loop
      vertex -9 33 6
      vertex -14.3429 31.7435 6
      vertex -14.4606 31.1267 6
    endloop
  endfacet
  facet normal 0 0 1
    outer loop
      vertex -9 33 6
      vertex -14.4606 31.1267 6
      vertex -14.5 30.5 6
    endloop
  endfacet
  facet normal 0 0 1
    outer loop
      vertex -9 18 6
      vertex -14.5 0 6
      vertex -9 12 6
    endloop
  endfacet
  facet normal 0 0 1
    outer loop
      vertex -6 11 6
      vertex -14.5 0 6
      vertex 14.5 0 6
    endloop
  endfacet
  facet normal 0 0 1
    outer loop
      vertex -9 12 6
      vertex -14.5 0 6
      vertex -9 11 6
    endloop
  endfacet
  facet normal 0.770462 0.637486 0
    outer loop
      vertex 13.5451 33.4389 6
      vertex 13.1448 33.9227 -6
      vertex 13.1448 33.9227 6
    endloop
  endfacet
  facet normal 0.770462 0.637486 0
    outer loop
      vertex 13.1448 33.9227 -6
      vertex 13.5451 33.4389 6
      vertex 13.5451 33.4389 -6
    endloop
  endfacet
  facet normal -0.770462 0.637486 0
    outer loop
      vertex -13.5451 33.4389 -6
      vertex -13.1448 33.9227 6
      vertex -13.1448 33.9227 -6
    endloop
  endfacet
  facet normal -0.770462 0.637486 0
    outer loop
      vertex -13.1448 33.9227 6
      vertex -13.5451 33.4389 -6
      vertex -13.5451 33.4389 6
    endloop
  endfacet
  facet normal 1 -0 0
    outer loop
      vertex 14.5 0 6
      vertex 14.5 30.5 -6
      vertex 14.5 30.5 6
    endloop
  endfacet
  facet normal 1 0 0
    outer loop
      vertex 14.5 30.5 -6
      vertex 14.5 0 6
      vertex 14.5 0 -6
    endloop
  endfacet
  facet normal -0.368203 0.929745 0
    outer loop
      vertex -11.0451 35.2553 -6
      vertex -11.6289 35.0241 6
      vertex -11.0451 35.2553 6
    endloop
  endfacet
  facet normal -0.368203 0.929745 0
    outer loop
      vertex -11.6289 35.0241 6
      vertex -11.0451 35.2553 -6
      vertex -11.6289 35.0241 -6
    endloop
  endfacet
  facet normal 0 1 -0
    outer loop
      vertex 9.81395 35.4901 -6
      vertex -9.81395 35.4901 6
      vertex 9.81395 35.4901 6
    endloop
  endfacet
  facet normal 0 1 0
    outer loop
      vertex -9.81395 35.4901 6
      vertex 9.81395 35.4901 -6
      vertex -9.81395 35.4901 -6
    endloop
  endfacet
  facet normal -0.99803 0.0627451 0
    outer loop
      vertex -14.5 30.5 -6
      vertex -14.4606 31.1267 6
      vertex -14.4606 31.1267 -6
    endloop
  endfacet
  facet normal -0.99803 0.0627451 0
    outer loop
      vertex -14.4606 31.1267 6
      vertex -14.5 30.5 -6
      vertex -14.5 30.5 6
    endloop
  endfacet
  facet normal 0.951061 0.309003 0
    outer loop
      vertex 14.3429 31.7435 6
      vertex 14.1489 32.3406 -6
      vertex 14.1489 32.3406 6
    endloop
  endfacet
  facet normal 0.951061 0.309003 0
    outer loop
      vertex 14.1489 32.3406 -6
      vertex 14.3429 31.7435 6
      vertex 14.3429 31.7435 -6
    endloop
  endfacet
  facet normal 0.125338 0.992114 -0
    outer loop
      vertex 10.4369 35.4114 -6
      vertex 9.81395 35.4901 6
      vertex 10.4369 35.4114 6
    endloop
  endfacet
  facet normal 0.125338 0.992114 0
    outer loop
      vertex 9.81395 35.4901 6
      vertex 10.4369 35.4114 -6
      vertex 9.81395 35.4901 -6
    endloop
  endfacet
  facet normal -0.684624 0.728896 0
    outer loop
      vertex -12.6871 34.3526 -6
      vertex -13.1448 33.9227 6
      vertex -12.6871 34.3526 6
    endloop
  endfacet
  facet normal -0.684624 0.728896 0
    outer loop
      vertex -13.1448 33.9227 6
      vertex -12.6871 34.3526 -6
      vertex -13.1448 33.9227 -6
    endloop
  endfacet
  facet normal -0.951061 0.309003 0
    outer loop
      vertex -14.3429 31.7435 -6
      vertex -14.1489 32.3406 6
      vertex -14.1489 32.3406 -6
    endloop
  endfacet
  facet normal -0.951061 0.309003 0
    outer loop
      vertex -14.1489 32.3406 6
      vertex -14.3429 31.7435 -6
      vertex -14.3429 31.7435 6
    endloop
  endfacet
  facet normal 0 0 -1
    outer loop
      vertex -9 27 -6
      vertex -6 33 -6
      vertex -6 27 -6
    endloop
  endfacet
  facet normal -0 0 -1
    outer loop
      vertex -6 33 -6
      vertex -9 27 -6
      vertex -9 33 -6
    endloop
  endfacet
  facet normal 0 0 -1
    outer loop
      vertex -9 19 -6
      vertex -6 26 -6
      vertex -6 19 -6
    endloop
  endfacet
  facet normal -0 0 -1
    outer loop
      vertex -6 26 -6
      vertex -9 19 -6
      vertex -9 26 -6
    endloop
  endfacet
  facet normal 0 0 -1
    outer loop
      vertex -9 12 -6
      vertex -6 18 -6
      vertex -6 12 -6
    endloop
  endfacet
  facet normal -0 0 -1
    outer loop
      vertex -6 18 -6
      vertex -9 12 -6
      vertex -9 18 -6
    endloop
  endfacet
  facet normal 0 0 -1
    outer loop
      vertex 6 27 -6
      vertex 9 33 -6
      vertex 9 27 -6
    endloop
  endfacet
  facet normal -0 0 -1
    outer loop
      vertex 9 33 -6
      vertex 6 27 -6
      vertex 6 33 -6
    endloop
  endfacet
  facet normal 0 0 -1
    outer loop
      vertex 6 19 -6
      vertex 9 26 -6
      vertex 9 19 -6
    endloop
  endfacet
  facet normal -0 0 -1
    outer loop
      vertex 9 26 -6
      vertex 6 19 -6
      vertex 6 26 -6
    endloop
  endfacet
  facet normal 0 0 -1
    outer loop
      vertex 6 12 -6
      vertex 9 18 -6
      vertex 9 12 -6
    endloop
  endfacet
  facet normal -0 0 -1
    outer loop
      vertex 9 18 -6
      vertex 6 12 -6
      vertex 6 18 -6
    endloop
  endfacet
  facet normal 0 0 -1
    outer loop
      vertex 9 18 -6
      vertex 14.5 30.5 -6
      vertex 14.5 0 -6
    endloop
  endfacet
  facet normal 0 0 -1
    outer loop
      vertex 9 19 -6
      vertex 14.5 30.5 -6
      vertex 9 18 -6
    endloop
  endfacet
  facet normal 0 0 -1
    outer loop
      vertex 9 26 -6
      vertex 14.5 30.5 -6
      vertex 9 19 -6
    endloop
  endfacet
  facet normal 0 0 -1
    outer loop
      vertex 9 27 -6
      vertex 14.5 30.5 -6
      vertex 9 26 -6
    endloop
  endfacet
  facet normal 0 0 -1
    outer loop
      vertex 9 33 -6
      vertex 14.5 30.5 -6
      vertex 9 27 -6
    endloop
  endfacet
  facet normal 0 0 -1
    outer loop
      vertex 14.5 30.5 -6
      vertex 9 33 -6
      vertex 14.4606 31.1267 -6
    endloop
  endfacet
  facet normal 0 0 -1
    outer loop
      vertex 14.4606 31.1267 -6
      vertex 9 33 -6
      vertex 14.3429 31.7435 -6
    endloop
  endfacet
  facet normal 0 0 -1
    outer loop
      vertex 14.1489 32.3406 -6
      vertex 9 33 -6
      vertex 13.8815 32.9088 -6
    endloop
  endfacet
  facet normal 0 0 -1
    outer loop
      vertex 13.8815 32.9088 -6
      vertex 9 33 -6
      vertex 13.5451 33.4389 -6
    endloop
  endfacet
  facet normal -0 0 -1
    outer loop
      vertex 13.5451 33.4389 -6
      vertex 9 33 -6
      vertex 13.1448 33.9227 -6
    endloop
  endfacet
  facet normal -0 0 -1
    outer loop
      vertex 13.1448 33.9227 -6
      vertex 9 33 -6
      vertex 12.6871 34.3526 -6
    endloop
  endfacet
  facet normal -0 0 -1
    outer loop
      vertex 12.1791 34.7216 -6
      vertex 9 33 -6
      vertex 11.6289 35.0241 -6
    endloop
  endfacet
  facet normal 0 0 -1
    outer loop
      vertex 9 12 -6
      vertex 14.5 0 -6
      vertex 9 11 -6
    endloop
  endfacet
  facet normal 0 0 -1
    outer loop
      vertex 14.5 0 -6
      vertex 6 11 -6
      vertex 9 11 -6
    endloop
  endfacet
  facet normal 0 0 -1
    outer loop
      vertex -6 12 -6
      vertex 6 12 -6
      vertex 6 11 -6
    endloop
  endfacet
  facet normal 0 0 -1
    outer loop
      vertex 6 12 -6
      vertex -6 12 -6
      vertex 6 18 -6
    endloop
  endfacet
  facet normal 0 0 -1
    outer loop
      vertex 6 18 -6
      vertex -6 18 -6
      vertex 6 19 -6
    endloop
  endfacet
  facet normal 0 0 -1
    outer loop
      vertex 6 19 -6
      vertex -6 19 -6
      vertex 6 26 -6
    endloop
  endfacet
  facet normal 0 0 -1
    outer loop
      vertex -6 26 -6
      vertex 6 26 -6
      vertex -6 19 -6
    endloop
  endfacet
  facet normal 0 0 -1
    outer loop
      vertex 6 26 -6
      vertex -6 26 -6
      vertex 6 27 -6
    endloop
  endfacet
  facet normal 0 0 -1
    outer loop
      vertex -6 12 -6
      vertex 6 11 -6
      vertex -6 11 -6
    endloop
  endfacet
  facet normal 0 0 -1
    outer loop
      vertex 14.5 0 -6
      vertex -6 11 -6
      vertex 6 11 -6
    endloop
  endfacet
  facet normal 0 0 -1
    outer loop
      vertex -14.5 0 -6
      vertex -6 11 -6
      vertex 14.5 0 -6
    endloop
  endfacet
  facet normal 0 0 -1
    outer loop
      vertex -14.5 0 -6
      vertex -9 12 -6
      vertex -9 11 -6
    endloop
  endfacet
  facet normal -0 0 -1
    outer loop
      vertex -9 12 -6
      vertex -14.5 0 -6
      vertex -9 18 -6
    endloop
  endfacet
  facet normal 0 0 -1
    outer loop
      vertex -14.5 30.5 -6
      vertex -9 18 -6
      vertex -14.5 0 -6
    endloop
  endfacet
  facet normal 0 0 -1
    outer loop
      vertex -9 19 -6
      vertex -14.5 30.5 -6
      vertex -9 26 -6
    endloop
  endfacet
  facet normal 0 0 -1
    outer loop
      vertex -9 26 -6
      vertex -14.5 30.5 -6
      vertex -9 27 -6
    endloop
  endfacet
  facet normal 0 0 -1
    outer loop
      vertex -9 27 -6
      vertex -14.5 30.5 -6
      vertex -9 33 -6
    endloop
  endfacet
  facet normal 0 -0 -1
    outer loop
      vertex -14.4606 31.1267 -6
      vertex -9 33 -6
      vertex -14.5 30.5 -6
    endloop
  endfacet
  facet normal 0 -0 -1
    outer loop
      vertex -14.3429 31.7435 -6
      vertex -9 33 -6
      vertex -14.4606 31.1267 -6
    endloop
  endfacet
  facet normal 0 0 -1
    outer loop
      vertex -9 34 -6
      vertex -10.4369 35.4114 -6
      vertex -9.81395 35.4901 -6
    endloop
  endfacet
  facet normal 0 0 -1
    outer loop
      vertex -9 34 -6
      vertex -11.0451 35.2553 -6
      vertex -10.4369 35.4114 -6
    endloop
  endfacet
  facet normal 0 0 -1
    outer loop
      vertex -9 34 -6
      vertex -11.6289 35.0241 -6
      vertex -11.0451 35.2553 -6
    endloop
  endfacet
  facet normal 0 0 -1
    outer loop
      vertex -9 33 -6
      vertex -11.6289 35.0241 -6
      vertex -9 34 -6
    endloop
  endfacet
  facet normal 0 -0 -1
    outer loop
      vertex -11.6289 35.0241 -6
      vertex -9 33 -6
      vertex -12.1791 34.7216 -6
    endloop
  endfacet
  facet normal 0 -0 -1
    outer loop
      vertex -12.1791 34.7216 -6
      vertex -9 33 -6
      vertex -12.6871 34.3526 -6
    endloop
  endfacet
  facet normal 0 -0 -1
    outer loop
      vertex -12.6871 34.3526 -6
      vertex -9 33 -6
      vertex -13.1448 33.9227 -6
    endloop
  endfacet
  facet normal 0 -0 -1
    outer loop
      vertex -13.1448 33.9227 -6
      vertex -9 33 -6
      vertex -13.5451 33.4389 -6
    endloop
  endfacet
  facet normal 0 -0 -1
    outer loop
      vertex -13.5451 33.4389 -6
      vertex -9 33 -6
      vertex -13.8815 32.9088 -6
    endloop
  endfacet
  facet normal 0 -0 -1
    outer loop
      vertex -13.8815 32.9088 -6
      vertex -9 33 -6
      vertex -14.1489 32.3406 -6
    endloop
  endfacet
  facet normal -0 0 -1
    outer loop
      vertex -6 11 -6
      vertex -14.5 0 -6
      vertex -9 11 -6
    endloop
  endfacet
  facet normal 0 0 -1
    outer loop
      vertex -9 18 -6
      vertex -14.5 30.5 -6
      vertex -9 19 -6
    endloop
  endfacet
  facet normal 0 -0 -1
    outer loop
      vertex -14.1489 32.3406 -6
      vertex -9 33 -6
      vertex -14.3429 31.7435 -6
    endloop
  endfacet
  facet normal 0 0 -1
    outer loop
      vertex 9 18 -6
      vertex 14.5 0 -6
      vertex 9 12 -6
    endloop
  endfacet
  facet normal 0 0 -1
    outer loop
      vertex 14.3429 31.7435 -6
      vertex 9 33 -6
      vertex 14.1489 32.3406 -6
    endloop
  endfacet
  facet normal -0 0 -1
    outer loop
      vertex 12.6871 34.3526 -6
      vertex 9 33 -6
      vertex 12.1791 34.7216 -6
    endloop
  endfacet
  facet normal 0 0 -1
    outer loop
      vertex 9 34 -6
      vertex 11.6289 35.0241 -6
      vertex 9 33 -6
    endloop
  endfacet
  facet normal -0 0 -1
    outer loop
      vertex 11.6289 35.0241 -6
      vertex 9 34 -6
      vertex 11.0451 35.2553 -6
    endloop
  endfacet
  facet normal -0 0 -1
    outer loop
      vertex 11.0451 35.2553 -6
      vertex 9 34 -6
      vertex 10.4369 35.4114 -6
    endloop
  endfacet
  facet normal -0 0 -1
    outer loop
      vertex 10.4369 35.4114 -6
      vertex 9 34 -6
      vertex 9.81395 35.4901 -6
    endloop
  endfacet
  facet normal 0 0 -1
    outer loop
      vertex 6 34 -6
      vertex 9.81395 35.4901 -6
      vertex 9 34 -6
    endloop
  endfacet
  facet normal -0 0 -1
    outer loop
      vertex 6 18 -6
      vertex -6 12 -6
      vertex -6 18 -6
    endloop
  endfacet
  facet normal -0 0 -1
    outer loop
      vertex 6 19 -6
      vertex -6 18 -6
      vertex -6 19 -6
    endloop
  endfacet
  facet normal 0 0 -1
    outer loop
      vertex -6 27 -6
      vertex 6 27 -6
      vertex -6 26 -6
    endloop
  endfacet
  facet normal 0 0 -1
    outer loop
      vertex 6 27 -6
      vertex -6 27 -6
      vertex 6 33 -6
    endloop
  endfacet
  facet normal 0 0 -1
    outer loop
      vertex -6 33 -6
      vertex 6 33 -6
      vertex -6 27 -6
    endloop
  endfacet
  facet normal 0 0 -1
    outer loop
      vertex 6 33 -6
      vertex -6 33 -6
      vertex 6 34 -6
    endloop
  endfacet
  facet normal 0 0 -1
    outer loop
      vertex -6 34 -6
      vertex 6 34 -6
      vertex -6 33 -6
    endloop
  endfacet
  facet normal 0 0 -1
    outer loop
      vertex 6 34 -6
      vertex -6 34 -6
      vertex 9.81395 35.4901 -6
    endloop
  endfacet
  facet normal 0 0 -1
    outer loop
      vertex -9.81395 35.4901 -6
      vertex -6 34 -6
      vertex -9 34 -6
    endloop
  endfacet
  facet normal 0 0 -1
    outer loop
      vertex -6 34 -6
      vertex -9.81395 35.4901 -6
      vertex 9.81395 35.4901 -6
    endloop
  endfacet
  facet normal 0.982276 0.187441 0
    outer loop
      vertex 14.4606 31.1267 6
      vertex 14.3429 31.7435 -6
      vertex 14.3429 31.7435 6
    endloop
  endfacet
  facet normal 0.982276 0.187441 0
    outer loop
      vertex 14.3429 31.7435 -6
      vertex 14.4606 31.1267 6
      vertex 14.4606 31.1267 -6
    endloop
  endfacet
  facet normal 0.99803 0.0627451 0
    outer loop
      vertex 14.5 30.5 6
      vertex 14.4606 31.1267 -6
      vertex 14.4606 31.1267 6
    endloop
  endfacet
  facet normal 0.99803 0.0627451 0
    outer loop
      vertex 14.4606 31.1267 -6
      vertex 14.5 30.5 6
      vertex 14.5 30.5 -6
    endloop
  endfacet
  facet normal 0.844336 0.535814 0
    outer loop
      vertex 13.8815 32.9088 6
      vertex 13.5451 33.4389 -6
      vertex 13.5451 33.4389 6
    endloop
  endfacet
  facet normal 0.844336 0.535814 0
    outer loop
      vertex 13.5451 33.4389 -6
      vertex 13.8815 32.9088 6
      vertex 13.8815 32.9088 -6
    endloop
  endfacet
  facet normal 0.904811 0.425812 0
    outer loop
      vertex 14.1489 32.3406 6
      vertex 13.8815 32.9088 -6
      vertex 13.8815 32.9088 6
    endloop
  endfacet
  facet normal 0.904811 0.425812 0
    outer loop
      vertex 13.8815 32.9088 -6
      vertex 14.1489 32.3406 6
      vertex 14.1489 32.3406 -6
    endloop
  endfacet
  facet normal 0.481784 0.87629 -0
    outer loop
      vertex 12.1791 34.7216 -6
      vertex 11.6289 35.0241 6
      vertex 12.1791 34.7216 6
    endloop
  endfacet
  facet normal 0.481784 0.87629 0
    outer loop
      vertex 11.6289 35.0241 6
      vertex 12.1791 34.7216 -6
      vertex 11.6289 35.0241 -6
    endloop
  endfacet
  facet normal 0.684624 0.728896 -0
    outer loop
      vertex 13.1448 33.9227 -6
      vertex 12.6871 34.3526 6
      vertex 13.1448 33.9227 6
    endloop
  endfacet
  facet normal 0.684624 0.728896 0
    outer loop
      vertex 12.6871 34.3526 6
      vertex 13.1448 33.9227 -6
      vertex 12.6871 34.3526 -6
    endloop
  endfacet
  facet normal 0.368203 0.929745 -0
    outer loop
      vertex 11.6289 35.0241 -6
      vertex 11.0451 35.2553 6
      vertex 11.6289 35.0241 6
    endloop
  endfacet
  facet normal 0.368203 0.929745 0
    outer loop
      vertex 11.0451 35.2553 6
      vertex 11.6289 35.0241 -6
      vertex 11.0451 35.2553 -6
    endloop
  endfacet
  facet normal -0.587698 0.80908 0
    outer loop
      vertex -12.1791 34.7216 -6
      vertex -12.6871 34.3526 6
      vertex -12.1791 34.7216 6
    endloop
  endfacet
  facet normal -0.587698 0.80908 0
    outer loop
      vertex -12.6871 34.3526 6
      vertex -12.1791 34.7216 -6
      vertex -12.6871 34.3526 -6
    endloop
  endfacet
  facet normal -0.481784 0.87629 0
    outer loop
      vertex -11.6289 35.0241 -6
      vertex -12.1791 34.7216 6
      vertex -11.6289 35.0241 6
    endloop
  endfacet
  facet normal -0.481784 0.87629 0
    outer loop
      vertex -12.1791 34.7216 6
      vertex -11.6289 35.0241 -6
      vertex -12.1791 34.7216 -6
    endloop
  endfacet
  facet normal -0.982276 0.187441 0
    outer loop
      vertex -14.4606 31.1267 -6
      vertex -14.3429 31.7435 6
      vertex -14.3429 31.7435 -6
    endloop
  endfacet
  facet normal -0.982276 0.187441 0
    outer loop
      vertex -14.3429 31.7435 6
      vertex -14.4606 31.1267 -6
      vertex -14.4606 31.1267 6
    endloop
  endfacet
  facet normal 0.587698 0.80908 -0
    outer loop
      vertex 12.6871 34.3526 -6
      vertex 12.1791 34.7216 6
      vertex 12.6871 34.3526 6
    endloop
  endfacet
  facet normal 0.587698 0.80908 0
    outer loop
      vertex 12.1791 34.7216 6
      vertex 12.6871 34.3526 -6
      vertex 12.1791 34.7216 -6
    endloop
  endfacet
  facet normal 0.248601 0.968606 -0
    outer loop
      vertex 11.0451 35.2553 -6
      vertex 10.4369 35.4114 6
      vertex 11.0451 35.2553 6
    endloop
  endfacet
  facet normal 0.248601 0.968606 0
    outer loop
      vertex 10.4369 35.4114 6
      vertex 11.0451 35.2553 -6
      vertex 10.4369 35.4114 -6
    endloop
  endfacet
  facet normal -0.248601 0.968606 0
    outer loop
      vertex -10.4369 35.4114 -6
      vertex -11.0451 35.2553 6
      vertex -10.4369 35.4114 6
    endloop
  endfacet
  facet normal -0.248601 0.968606 0
    outer loop
      vertex -11.0451 35.2553 6
      vertex -10.4369 35.4114 -6
      vertex -11.0451 35.2553 -6
    endloop
  endfacet
  facet normal -0.125338 0.992114 0
    outer loop
      vertex -9.81395 35.4901 -6
      vertex -10.4369 35.4114 6
      vertex -9.81395 35.4901 6
    endloop
  endfacet
  facet normal -0.125338 0.992114 0
    outer loop
      vertex -10.4369 35.4114 6
      vertex -9.81395 35.4901 -6
      vertex -10.4369 35.4114 -6
    endloop
  endfacet
  facet normal -0.904811 0.425812 0
    outer loop
      vertex -14.1489 32.3406 -6
      vertex -13.8815 32.9088 6
      vertex -13.8815 32.9088 -6
    endloop
  endfacet
  facet normal -0.904811 0.425812 0
    outer loop
      vertex -13.8815 32.9088 6
      vertex -14.1489 32.3406 -6
      vertex -14.1489 32.3406 6
    endloop
  endfacet
  facet normal -0.844336 0.535814 0
    outer loop
      vertex -13.8815 32.9088 -6
      vertex -13.5451 33.4389 6
      vertex -13.5451 33.4389 -6
    endloop
  endfacet
  facet normal -0.844336 0.535814 0
    outer loop
      vertex -13.5451 33.4389 6
      vertex -13.8815 32.9088 -6
      vertex -13.8815 32.9088 6
    endloop
  endfacet
  facet normal 0 -1 0
    outer loop
      vertex -1.73001 0 0
      vertex 4.61501 0 4.99696
      vertex -4.61501 0 4.99696
    endloop
  endfacet
  facet normal 0 -1 0
    outer loop
      vertex -1.73001 0 0
      vertex 1.73001 0 0
      vertex 4.61501 0 4.99696
    endloop
  endfacet
  facet normal 0 -1 0
    outer loop
      vertex -4.61501 0 -4.99696
      vertex 1.73001 0 0
      vertex -1.73001 0 0
    endloop
  endfacet
  facet normal 0 -1 -0
    outer loop
      vertex 1.73001 0 0
      vertex -4.61501 0 -4.99696
      vertex 4.61501 0 -4.99696
    endloop
  endfacet
  facet normal 0 -1 0
    outer loop
      vertex -4.61501 0 4.99696
      vertex -14.5 0 6
      vertex -10.385 0 4.99696
    endloop
  endfacet
  facet normal 0 -1 0
    outer loop
      vertex -14.5 0 6
      vertex -13.27 0 0
      vertex -10.385 0 4.99696
    endloop
  endfacet
  facet normal 0 -1 0
    outer loop
      vertex -14.5 0 -6
      vertex -4.61501 0 -4.99696
      vertex -10.385 0 -4.99696
    endloop
  endfacet
  facet normal 0 -1 -0
    outer loop
      vertex -4.61501 0 -4.99696
      vertex -14.5 0 -6
      vertex 4.61501 0 -4.99696
    endloop
  endfacet
  facet normal 0 -1 0
    outer loop
      vertex 14.5 0 -6
      vertex 4.61501 0 -4.99696
      vertex -14.5 0 -6
    endloop
  endfacet
  facet normal 0 -1 -0
    outer loop
      vertex -13.27 0 0
      vertex -14.5 0 -6
      vertex -10.385 0 -4.99696
    endloop
  endfacet
  facet normal 0 -1 0
    outer loop
      vertex -14.5 0 -6
      vertex -13.27 0 0
      vertex -14.5 0 6
    endloop
  endfacet
  facet normal 0 -1 0
    outer loop
      vertex -14.5 0 6
      vertex -4.61501 0 4.99696
      vertex 14.5 0 6
    endloop
  endfacet
  facet normal 0 -1 0
    outer loop
      vertex 4.61501 0 4.99696
      vertex 14.5 0 6
      vertex -4.61501 0 4.99696
    endloop
  endfacet
  facet normal 0 -1 0
    outer loop
      vertex 10.385 0 4.99696
      vertex 14.5 0 6
      vertex 4.61501 0 4.99696
    endloop
  endfacet
  facet normal 0 -1 0
    outer loop
      vertex 13.27 0 0
      vertex 14.5 0 6
      vertex 10.385 0 4.99696
    endloop
  endfacet
  facet normal 0 -1 0
    outer loop
      vertex 13.27 0 0
      vertex 14.5 0 -6
      vertex 14.5 0 6
    endloop
  endfacet
  facet normal 0 -1 0
    outer loop
      vertex 10.385 0 -4.99696
      vertex 14.5 0 -6
      vertex 13.27 0 0
    endloop
  endfacet
  facet normal 0 -1 0
    outer loop
      vertex 4.61501 0 -4.99696
      vertex 14.5 0 -6
      vertex 10.385 0 -4.99696
    endloop
  endfacet
  facet normal 0 0 -1
    outer loop
      vertex -10.385 0 4.99696
      vertex -4.61501 9 4.99696
      vertex -4.61501 0 4.99696
    endloop
  endfacet
  facet normal -0 0 -1
    outer loop
      vertex -4.61501 9 4.99696
      vertex -10.385 0 4.99696
      vertex -10.385 9 4.99696
    endloop
  endfacet
  facet normal -0.866025 0 -0.5
    outer loop
      vertex -1.73001 0 0
      vertex -4.61501 9 4.99696
      vertex -1.73001 9 0
    endloop
  endfacet
  facet normal -0.866025 -0 -0.5
    outer loop
      vertex -4.61501 9 4.99696
      vertex -1.73001 0 0
      vertex -4.61501 0 4.99696
    endloop
  endfacet
  facet normal 0.866025 0 -0.5
    outer loop
      vertex -10.385 0 4.99696
      vertex -13.27 9 0
      vertex -10.385 9 4.99696
    endloop
  endfacet
  facet normal 0.866025 0 -0.5
    outer loop
      vertex -13.27 9 0
      vertex -10.385 0 4.99696
      vertex -13.27 0 0
    endloop
  endfacet
  facet normal 0 -1 0
    outer loop
      vertex -13.27 9 0
      vertex -4.61501 9 4.99696
      vertex -10.385 9 4.99696
    endloop
  endfacet
  facet normal 0 -1 0
    outer loop
      vertex -13.27 9 0
      vertex -1.73001 9 0
      vertex -4.61501 9 4.99696
    endloop
  endfacet
  facet normal 0 -1 0
    outer loop
      vertex -10.385 9 -4.99696
      vertex -1.73001 9 0
      vertex -13.27 9 0
    endloop
  endfacet
  facet normal 0 -1 0
    outer loop
      vertex -1.73001 9 0
      vertex -10.385 9 -4.99696
      vertex -4.61501 9 -4.99696
    endloop
  endfacet
  facet normal -0.866025 0 0.5
    outer loop
      vertex -4.61501 0 -4.99696
      vertex -1.73001 9 0
      vertex -4.61501 9 -4.99696
    endloop
  endfacet
  facet normal -0.866025 0 0.5
    outer loop
      vertex -1.73001 9 0
      vertex -4.61501 0 -4.99696
      vertex -1.73001 0 0
    endloop
  endfacet
  facet normal 0.866025 -0 0.5
    outer loop
      vertex -13.27 0 0
      vertex -10.385 9 -4.99696
      vertex -13.27 9 0
    endloop
  endfacet
  facet normal 0.866025 0 0.5
    outer loop
      vertex -10.385 9 -4.99696
      vertex -13.27 0 0
      vertex -10.385 0 -4.99696
    endloop
  endfacet
  facet normal -0 0 1
    outer loop
      vertex -10.385 9 -4.99696
      vertex -4.61501 0 -4.99696
      vertex -4.61501 9 -4.99696
    endloop
  endfacet
  facet normal 0 0 1
    outer loop
      vertex -4.61501 0 -4.99696
      vertex -10.385 9 -4.99696
      vertex -10.385 0 -4.99696
    endloop
  endfacet
  facet normal 0 0 -1
    outer loop
      vertex 4.61501 0 4.99696
      vertex 10.385 9 4.99696
      vertex 10.385 0 4.99696
    endloop
  endfacet
  facet normal -0 0 -1
    outer loop
      vertex 10.385 9 4.99696
      vertex 4.61501 0 4.99696
      vertex 4.61501 9 4.99696
    endloop
  endfacet
  facet normal -0.866025 0 -0.5
    outer loop
      vertex 13.27 0 0
      vertex 10.385 9 4.99696
      vertex 13.27 9 0
    endloop
  endfacet
  facet normal -0.866025 -0 -0.5
    outer loop
      vertex 10.385 9 4.99696
      vertex 13.27 0 0
      vertex 10.385 0 4.99696
    endloop
  endfacet
  facet normal 0.866025 0 -0.5
    outer loop
      vertex 4.61501 0 4.99696
      vertex 1.73001 9 0
      vertex 4.61501 9 4.99696
    endloop
  endfacet
  facet normal 0.866025 0 -0.5
    outer loop
      vertex 1.73001 9 0
      vertex 4.61501 0 4.99696
      vertex 1.73001 0 0
    endloop
  endfacet
  facet normal 0 -1 0
    outer loop
      vertex 1.73001 9 0
      vertex 10.385 9 4.99696
      vertex 4.61501 9 4.99696
    endloop
  endfacet
  facet normal 0 -1 0
    outer loop
      vertex 1.73001 9 0
      vertex 13.27 9 0
      vertex 10.385 9 4.99696
    endloop
  endfacet
  facet normal 0 -1 0
    outer loop
      vertex 4.61501 9 -4.99696
      vertex 13.27 9 0
      vertex 1.73001 9 0
    endloop
  endfacet
  facet normal 0 -1 0
    outer loop
      vertex 13.27 9 0
      vertex 4.61501 9 -4.99696
      vertex 10.385 9 -4.99696
    endloop
  endfacet
  facet normal -0.866025 0 0.5
    outer loop
      vertex 10.385 0 -4.99696
      vertex 13.27 9 0
      vertex 10.385 9 -4.99696
    endloop
  endfacet
  facet normal -0.866025 0 0.5
    outer loop
      vertex 13.27 9 0
      vertex 10.385 0 -4.99696
      vertex 13.27 0 0
    endloop
  endfacet
  facet normal 0.866025 -0 0.5
    outer loop
      vertex 1.73001 0 0
      vertex 4.61501 9 -4.99696
      vertex 1.73001 9 0
    endloop
  endfacet
  facet normal 0.866025 0 0.5
    outer loop
      vertex 4.61501 9 -4.99696
      vertex 1.73001 0 0
      vertex 4.61501 0 -4.99696
    endloop
  endfacet
  facet normal -0 0 1
    outer loop
      vertex 4.61501 9 -4.99696
      vertex 10.385 0 -4.99696
      vertex 10.385 9 -4.99696
    endloop
  endfacet
  facet normal 0 0 1
    outer loop
      vertex 10.385 0 -4.99696
      vertex 4.61501 9 -4.99696
      vertex 4.61501 0 -4.99696
    endloop
  endfacet
  facet normal 1 -0 0
    outer loop
      vertex -9 11 6
      vertex -9 12 -6
      vertex -9 12 6
    endloop
  endfacet
  facet normal 1 0 0
    outer loop
      vertex -9 12 -6
      vertex -9 11 6
      vertex -9 11 -6
    endloop
  endfacet
  facet normal -1 0 0
    outer loop
      vertex -6 11 -6
      vertex -6 12 6
      vertex -6 12 -6
    endloop
  endfacet
  facet normal -1 -0 0
    outer loop
      vertex -6 12 6
      vertex -6 11 -6
      vertex -6 11 6
    endloop
  endfacet
  facet normal 0 1 -0
    outer loop
      vertex -6 11 -6
      vertex -9 11 6
      vertex -6 11 6
    endloop
  endfacet
  facet normal 0 1 0
    outer loop
      vertex -9 11 6
      vertex -6 11 -6
      vertex -9 11 -6
    endloop
  endfacet
  facet normal 0 -1 0
    outer loop
      vertex -9 12 -6
      vertex -6 12 6
      vertex -9 12 6
    endloop
  endfacet
  facet normal 0 -1 -0
    outer loop
      vertex -6 12 6
      vertex -9 12 -6
      vertex -6 12 -6
    endloop
  endfacet
  facet normal 1 -0 0
    outer loop
      vertex -9 18 6
      vertex -9 19 -6
      vertex -9 19 6
    endloop
  endfacet
  facet normal 1 0 0
    outer loop
      vertex -9 19 -6
      vertex -9 18 6
      vertex -9 18 -6
    endloop
  endfacet
  facet normal -1 0 0
    outer loop
      vertex -6 18 -6
      vertex -6 19 6
      vertex -6 19 -6
    endloop
  endfacet
  facet normal -1 -0 0
    outer loop
      vertex -6 19 6
      vertex -6 18 -6
      vertex -6 18 6
    endloop
  endfacet
  facet normal 0 -1 0
    outer loop
      vertex -9 19 -6
      vertex -6 19 6
      vertex -9 19 6
    endloop
  endfacet
  facet normal 0 -1 -0
    outer loop
      vertex -6 19 6
      vertex -9 19 -6
      vertex -6 19 -6
    endloop
  endfacet
  facet normal 0 1 -0
    outer loop
      vertex -6 18 -6
      vertex -9 18 6
      vertex -6 18 6
    endloop
  endfacet
  facet normal 0 1 0
    outer loop
      vertex -9 18 6
      vertex -6 18 -6
      vertex -9 18 -6
    endloop
  endfacet
  facet normal 1 -0 0
    outer loop
      vertex -9 26 6
      vertex -9 27 -6
      vertex -9 27 6
    endloop
  endfacet
  facet normal 1 0 0
    outer loop
      vertex -9 27 -6
      vertex -9 26 6
      vertex -9 26 -6
    endloop
  endfacet
  facet normal -1 0 0
    outer loop
      vertex -6 26 -6
      vertex -6 27 6
      vertex -6 27 -6
    endloop
  endfacet
  facet normal -1 -0 0
    outer loop
      vertex -6 27 6
      vertex -6 26 -6
      vertex -6 26 6
    endloop
  endfacet
  facet normal 0 -1 0
    outer loop
      vertex -9 27 -6
      vertex -6 27 6
      vertex -9 27 6
    endloop
  endfacet
  facet normal 0 -1 -0
    outer loop
      vertex -6 27 6
      vertex -9 27 -6
      vertex -6 27 -6
    endloop
  endfacet
  facet normal 0 1 -0
    outer loop
      vertex -6 26 -6
      vertex -9 26 6
      vertex -6 26 6
    endloop
  endfacet
  facet normal 0 1 0
    outer loop
      vertex -9 26 6
      vertex -6 26 -6
      vertex -9 26 -6
    endloop
  endfacet
  facet normal 1 -0 0
    outer loop
      vertex -9 33 6
      vertex -9 34 -6
      vertex -9 34 6
    endloop
  endfacet
  facet normal 1 0 0
    outer loop
      vertex -9 34 -6
      vertex -9 33 6
      vertex -9 33 -6
    endloop
  endfacet
  facet normal -1 0 0
    outer loop
      vertex -6 33 -6
      vertex -6 34 6
      vertex -6 34 -6
    endloop
  endfacet
  facet normal -1 -0 0
    outer loop
      vertex -6 34 6
      vertex -6 33 -6
      vertex -6 33 6
    endloop
  endfacet
  facet normal 0 -1 0
    outer loop
      vertex -9 34 -6
      vertex -6 34 6
      vertex -9 34 6
    endloop
  endfacet
  facet normal 0 -1 -0
    outer loop
      vertex -6 34 6
      vertex -9 34 -6
      vertex -6 34 -6
    endloop
  endfacet
  facet normal 0 1 -0
    outer loop
      vertex -6 33 -6
      vertex -9 33 6
      vertex -6 33 6
    endloop
  endfacet
  facet normal 0 1 0
    outer loop
      vertex -9 33 6
      vertex -6 33 -6
      vertex -9 33 -6
    endloop
  endfacet
  facet normal 1 -0 0
    outer loop
      vertex 6 11 6
      vertex 6 12 -6
      vertex 6 12 6
    endloop
  endfacet
  facet normal 1 0 0
    outer loop
      vertex 6 12 -6
      vertex 6 11 6
      vertex 6 11 -6
    endloop
  endfacet
  facet normal -1 0 0
    outer loop
      vertex 9 11 -6
      vertex 9 12 6
      vertex 9 12 -6
    endloop
  endfacet
  facet normal -1 -0 0
    outer loop
      vertex 9 12 6
      vertex 9 11 -6
      vertex 9 11 6
    endloop
  endfacet
  facet normal 0 -1 0
    outer loop
      vertex 6 12 -6
      vertex 9 12 6
      vertex 6 12 6
    endloop
  endfacet
  facet normal 0 -1 -0
    outer loop
      vertex 9 12 6
      vertex 6 12 -6
      vertex 9 12 -6
    endloop
  endfacet
  facet normal 0 1 -0
    outer loop
      vertex 9 11 -6
      vertex 6 11 6
      vertex 9 11 6
    endloop
  endfacet
  facet normal 0 1 0
    outer loop
      vertex 6 11 6
      vertex 9 11 -6
      vertex 6 11 -6
    endloop
  endfacet
  facet normal 1 -0 0
    outer loop
      vertex 6 18 6
      vertex 6 19 -6
      vertex 6 19 6
    endloop
  endfacet
  facet normal 1 0 0
    outer loop
      vertex 6 19 -6
      vertex 6 18 6
      vertex 6 18 -6
    endloop
  endfacet
  facet normal -1 0 0
    outer loop
      vertex 9 18 -6
      vertex 9 19 6
      vertex 9 19 -6
    endloop
  endfacet
  facet normal -1 -0 0
    outer loop
      vertex 9 19 6
      vertex 9 18 -6
      vertex 9 18 6
    endloop
  endfacet
  facet normal 0 1 -0
    outer loop
      vertex 9 18 -6
      vertex 6 18 6
      vertex 9 18 6
    endloop
  endfacet
  facet normal 0 1 0
    outer loop
      vertex 6 18 6
      vertex 9 18 -6
      vertex 6 18 -6
    endloop
  endfacet
  facet normal 0 -1 0
    outer loop
      vertex 6 19 -6
      vertex 9 19 6
      vertex 6 19 6
    endloop
  endfacet
  facet normal 0 -1 -0
    outer loop
      vertex 9 19 6
      vertex 6 19 -6
      vertex 9 19 -6
    endloop
  endfacet
  facet normal 1 -0 0
    outer loop
      vertex 6 26 6
      vertex 6 27 -6
      vertex 6 27 6
    endloop
  endfacet
  facet normal 1 0 0
    outer loop
      vertex 6 27 -6
      vertex 6 26 6
      vertex 6 26 -6
    endloop
  endfacet
  facet normal -1 0 0
    outer loop
      vertex 9 26 -6
      vertex 9 27 6
      vertex 9 27 -6
    endloop
  endfacet
  facet normal -1 -0 0
    outer loop
      vertex 9 27 6
      vertex 9 26 -6
      vertex 9 26 6
    endloop
  endfacet
  facet normal 0 1 -0
    outer loop
      vertex 9 26 -6
      vertex 6 26 6
      vertex 9 26 6
    endloop
  endfacet
  facet normal 0 1 0
    outer loop
      vertex 6 26 6
      vertex 9 26 -6
      vertex 6 26 -6
    endloop
  endfacet
  facet normal 0 -1 0
    outer loop
      vertex 6 27 -6
      vertex 9 27 6
      vertex 6 27 6
    endloop
  endfacet
  facet normal 0 -1 -0
    outer loop
      vertex 9 27 6
      vertex 6 27 -6
      vertex 9 27 -6
    endloop
  endfacet
  facet normal 1 -0 0
    outer loop
      vertex 6 33 6
      vertex 6 34 -6
      vertex 6 34 6
    endloop
  endfacet
  facet normal 1 0 0
    outer loop
      vertex 6 34 -6
      vertex 6 33 6
      vertex 6 33 -6
    endloop
  endfacet
  facet normal -1 0 0
    outer loop
      vertex 9 33 -6
      vertex 9 34 6
      vertex 9 34 -6
    endloop
  endfacet
  facet normal -1 -0 0
    outer loop
      vertex 9 34 6
      vertex 9 33 -6
      vertex 9 33 6
    endloop
  endfacet
  facet normal 0 1 -0
    outer loop
      vertex 9 33 -6
      vertex 6 33 6
      vertex 9 33 6
    endloop
  endfacet
  facet normal 0 1 0
    outer loop
      vertex 6 33 6
      vertex 9 33 -6
      vertex 6 33 -6
    endloop
  endfacet
  facet normal 0 -1 0
    outer loop
      vertex 6 34 -6
      vertex 9 34 6
      vertex 6 34 6
    endloop
  endfacet
  facet normal 0 -1 -0
    outer loop
      vertex 9 34 6
      vertex 6 34 -6
      vertex 9 34 -6
    endloop
  endfacet
endsolid OpenSCAD_Model
