solid OpenSCAD_Model
  facet normal 0 0 1
    outer loop
      vertex 2.87713 0.363466 0
      vertex 2.87713 -0.363466 0
      vertex 2.9 0 0
    endloop
  endfacet
  facet normal 0 0 1
    outer loop
      vertex 2.80889 0.7212 0
      vertex 2.87713 -0.363466 0
      vertex 2.87713 0.363466 0
    endloop
  endfacet
  facet normal 0 0 1
    outer loop
      vertex 2.80889 0.7212 0
      vertex 2.80889 -0.7212 0
      vertex 2.87713 -0.363466 0
    endloop
  endfacet
  facet normal 0 0 1
    outer loop
      vertex 2.69635 1.06756 0
      vertex 2.80889 -0.7212 0
      vertex 2.80889 0.7212 0
    endloop
  endfacet
  facet normal 0 0 1
    outer loop
      vertex 2.69635 1.06756 0
      vertex 2.69635 -1.06756 0
      vertex 2.80889 -0.7212 0
    endloop
  endfacet
  facet normal 0 0 1
    outer loop
      vertex 2.54129 1.39709 0
      vertex 2.69635 -1.06756 0
      vertex 2.69635 1.06756 0
    endloop
  endfacet
  facet normal 0 0 1
    outer loop
      vertex 2.54129 1.39709 0
      vertex 2.54129 -1.39709 0
      vertex 2.69635 -1.06756 0
    endloop
  endfacet
  facet normal 0 0 1
    outer loop
      vertex 2.34615 1.70458 0
      vertex 2.54129 -1.39709 0
      vertex 2.54129 1.39709 0
    endloop
  endfacet
  facet normal 0 0 1
    outer loop
      vertex 2.34615 1.70458 0
      vertex 2.34615 -1.70458 0
      vertex 2.54129 -1.39709 0
    endloop
  endfacet
  facet normal 0 0 1
    outer loop
      vertex 2.11401 1.98519 0
      vertex 2.34615 -1.70458 0
      vertex 2.34615 1.70458 0
    endloop
  endfacet
  facet normal 0 0 1
    outer loop
      vertex 2.11401 1.98519 0
      vertex 2.11401 -1.98519 0
      vertex 2.34615 -1.70458 0
    endloop
  endfacet
  facet normal 0 0 1
    outer loop
      vertex 1.84853 2.23449 0
      vertex 2.11401 -1.98519 0
      vertex 2.11401 1.98519 0
    endloop
  endfacet
  facet normal 0 0 1
    outer loop
      vertex 1.84853 2.23449 0
      vertex 1.84853 -2.23449 0
      vertex 2.11401 -1.98519 0
    endloop
  endfacet
  facet normal 0 0 1
    outer loop
      vertex 1.5539 2.44855 0
      vertex 1.84853 -2.23449 0
      vertex 1.84853 2.23449 0
    endloop
  endfacet
  facet normal 0 0 1
    outer loop
      vertex 1.5539 2.44855 0
      vertex 1.5539 -2.44855 0
      vertex 1.84853 -2.23449 0
    endloop
  endfacet
  facet normal 0 0 1
    outer loop
      vertex 1.23476 2.624 0
      vertex 1.5539 -2.44855 0
      vertex 1.5539 2.44855 0
    endloop
  endfacet
  facet normal 0 0 1
    outer loop
      vertex 1.23476 2.624 0
      vertex 1.23476 -2.624 0
      vertex 1.5539 -2.44855 0
    endloop
  endfacet
  facet normal 0 0 1
    outer loop
      vertex 0.896149 2.75806 0
      vertex 1.23476 -2.624 0
      vertex 1.23476 2.624 0
    endloop
  endfacet
  facet normal 0 0 1
    outer loop
      vertex 0.896149 2.75806 0
      vertex 0.896149 -2.75806 0
      vertex 1.23476 -2.624 0
    endloop
  endfacet
  facet normal 0 0 1
    outer loop
      vertex 0.543406 2.84863 0
      vertex 0.896149 -2.75806 0
      vertex 0.896149 2.75806 0
    endloop
  endfacet
  facet normal 0 0 1
    outer loop
      vertex 0.543406 2.84863 0
      vertex 0.543406 -2.84863 0
      vertex 0.896149 -2.75806 0
    endloop
  endfacet
  facet normal 0 0 1
    outer loop
      vertex 0.182092 2.89428 0
      vertex 0.543406 -2.84863 0
      vertex 0.543406 2.84863 0
    endloop
  endfacet
  facet normal 0 0 1
    outer loop
      vertex 0.182092 2.89428 0
      vertex 0.182092 -2.89428 0
      vertex 0.543406 -2.84863 0
    endloop
  endfacet
  facet normal -0 0 1
    outer loop
      vertex -0.182092 2.89428 0
      vertex 0.182092 -2.89428 0
      vertex 0.182092 2.89428 0
    endloop
  endfacet
  facet normal 0 0 1
    outer loop
      vertex -0.182092 2.89428 0
      vertex -0.182092 -2.89428 0
      vertex 0.182092 -2.89428 0
    endloop
  endfacet
  facet normal -0 0 1
    outer loop
      vertex -0.543406 2.84863 0
      vertex -0.182092 -2.89428 0
      vertex -0.182092 2.89428 0
    endloop
  endfacet
  facet normal 0 0 1
    outer loop
      vertex -0.543406 2.84863 0
      vertex -0.543406 -2.84863 0
      vertex -0.182092 -2.89428 0
    endloop
  endfacet
  facet normal -0 0 1
    outer loop
      vertex -0.896149 2.75806 0
      vertex -0.543406 -2.84863 0
      vertex -0.543406 2.84863 0
    endloop
  endfacet
  facet normal 0 0 1
    outer loop
      vertex -0.896149 2.75806 0
      vertex -0.896149 -2.75806 0
      vertex -0.543406 -2.84863 0
    endloop
  endfacet
  facet normal -0 0 1
    outer loop
      vertex -1.23476 2.624 0
      vertex -0.896149 -2.75806 0
      vertex -0.896149 2.75806 0
    endloop
  endfacet
  facet normal 0 0 1
    outer loop
      vertex -1.23476 2.624 0
      vertex -1.23476 -2.624 0
      vertex -0.896149 -2.75806 0
    endloop
  endfacet
  facet normal -0 0 1
    outer loop
      vertex -1.5539 2.44855 0
      vertex -1.23476 -2.624 0
      vertex -1.23476 2.624 0
    endloop
  endfacet
  facet normal 0 0 1
    outer loop
      vertex -1.5539 2.44855 0
      vertex -1.5539 -2.44855 0
      vertex -1.23476 -2.624 0
    endloop
  endfacet
  facet normal -0 0 1
    outer loop
      vertex -1.84853 2.23449 0
      vertex -1.5539 -2.44855 0
      vertex -1.5539 2.44855 0
    endloop
  endfacet
  facet normal 0 0 1
    outer loop
      vertex -1.84853 2.23449 0
      vertex -1.84853 -2.23449 0
      vertex -1.5539 -2.44855 0
    endloop
  endfacet
  facet normal -0 0 1
    outer loop
      vertex -2.11401 1.98519 0
      vertex -1.84853 -2.23449 0
      vertex -1.84853 2.23449 0
    endloop
  endfacet
  facet normal 0 0 1
    outer loop
      vertex -2.11401 1.98519 0
      vertex -2.11401 -1.98519 0
      vertex -1.84853 -2.23449 0
    endloop
  endfacet
  facet normal -0 0 1
    outer loop
      vertex -2.34615 1.70458 0
      vertex -2.11401 -1.98519 0
      vertex -2.11401 1.98519 0
    endloop
  endfacet
  facet normal 0 0 1
    outer loop
      vertex -2.34615 1.70458 0
      vertex -2.34615 -1.70458 0
      vertex -2.11401 -1.98519 0
    endloop
  endfacet
  facet normal -0 0 1
    outer loop
      vertex -2.54129 1.39709 0
      vertex -2.34615 -1.70458 0
      vertex -2.34615 1.70458 0
    endloop
  endfacet
  facet normal 0 0 1
    outer loop
      vertex -2.54129 1.39709 0
      vertex -2.54129 -1.39709 0
      vertex -2.34615 -1.70458 0
    endloop
  endfacet
  facet normal -0 0 1
    outer loop
      vertex -2.69635 1.06756 0
      vertex -2.54129 -1.39709 0
      vertex -2.54129 1.39709 0
    endloop
  endfacet
  facet normal 0 0 1
    outer loop
      vertex -2.69635 1.06756 0
      vertex -2.69635 -1.06756 0
      vertex -2.54129 -1.39709 0
    endloop
  endfacet
  facet normal -0 0 1
    outer loop
      vertex -2.80889 0.7212 0
      vertex -2.69635 -1.06756 0
      vertex -2.69635 1.06756 0
    endloop
  endfacet
  facet normal 0 0 1
    outer loop
      vertex -2.80889 0.7212 0
      vertex -2.80889 -0.7212 0
      vertex -2.69635 -1.06756 0
    endloop
  endfacet
  facet normal -0 0 1
    outer loop
      vertex -2.87713 0.363466 0
      vertex -2.80889 -0.7212 0
      vertex -2.80889 0.7212 0
    endloop
  endfacet
  facet normal 0 0 1
    outer loop
      vertex -2.87713 0.363466 0
      vertex -2.87713 -0.363466 0
      vertex -2.80889 -0.7212 0
    endloop
  endfacet
  facet normal 0 -0 1
    outer loop
      vertex -2.87713 -0.363466 0
      vertex -2.87713 0.363466 0
      vertex -2.9 0 0
    endloop
  endfacet
  facet normal 0 0 -1
    outer loop
      vertex 1.78581 -0.225599 -12
      vertex 1.78581 0.225599 -12
      vertex 1.8 0 -12
    endloop
  endfacet
  facet normal 0 0 -1
    outer loop
      vertex 1.74345 -0.447641 -12
      vertex 1.78581 0.225599 -12
      vertex 1.78581 -0.225599 -12
    endloop
  endfacet
  facet normal 0 0 -1
    outer loop
      vertex 1.74345 -0.447641 -12
      vertex 1.74345 0.447641 -12
      vertex 1.78581 0.225599 -12
    endloop
  endfacet
  facet normal 0 0 -1
    outer loop
      vertex 1.6736 -0.662623 -12
      vertex 1.74345 0.447641 -12
      vertex 1.74345 -0.447641 -12
    endloop
  endfacet
  facet normal 0 0 -1
    outer loop
      vertex 1.6736 -0.662623 -12
      vertex 1.6736 0.662623 -12
      vertex 1.74345 0.447641 -12
    endloop
  endfacet
  facet normal 0 0 -1
    outer loop
      vertex 1.57735 -0.867156 -12
      vertex 1.6736 0.662623 -12
      vertex 1.6736 -0.662623 -12
    endloop
  endfacet
  facet normal 0 0 -1
    outer loop
      vertex 1.57735 -0.867156 -12
      vertex 1.57735 0.867156 -12
      vertex 1.6736 0.662623 -12
    endloop
  endfacet
  facet normal 0 0 -1
    outer loop
      vertex 1.45623 -1.05801 -12
      vertex 1.57735 0.867156 -12
      vertex 1.57735 -0.867156 -12
    endloop
  endfacet
  facet normal 0 0 -1
    outer loop
      vertex 1.45623 -1.05801 -12
      vertex 1.45623 1.05801 -12
      vertex 1.57735 0.867156 -12
    endloop
  endfacet
  facet normal 0 0 -1
    outer loop
      vertex 1.31214 -1.23218 -12
      vertex 1.45623 1.05801 -12
      vertex 1.45623 -1.05801 -12
    endloop
  endfacet
  facet normal 0 0 -1
    outer loop
      vertex 1.31214 -1.23218 -12
      vertex 1.31214 1.23218 -12
      vertex 1.45623 1.05801 -12
    endloop
  endfacet
  facet normal 0 0 -1
    outer loop
      vertex 1.14736 -1.38692 -12
      vertex 1.31214 1.23218 -12
      vertex 1.31214 -1.23218 -12
    endloop
  endfacet
  facet normal 0 0 -1
    outer loop
      vertex 1.14736 -1.38692 -12
      vertex 1.14736 1.38692 -12
      vertex 1.31214 1.23218 -12
    endloop
  endfacet
  facet normal 0 0 -1
    outer loop
      vertex 0.964488 -1.51979 -12
      vertex 1.14736 1.38692 -12
      vertex 1.14736 -1.38692 -12
    endloop
  endfacet
  facet normal 0 0 -1
    outer loop
      vertex 0.964488 -1.51979 -12
      vertex 0.964488 1.51979 -12
      vertex 1.14736 1.38692 -12
    endloop
  endfacet
  facet normal 0 0 -1
    outer loop
      vertex 0.766402 -1.62869 -12
      vertex 0.964488 1.51979 -12
      vertex 0.964488 -1.51979 -12
    endloop
  endfacet
  facet normal 0 0 -1
    outer loop
      vertex 0.766402 -1.62869 -12
      vertex 0.766402 1.62869 -12
      vertex 0.964488 1.51979 -12
    endloop
  endfacet
  facet normal 0 0 -1
    outer loop
      vertex 0.556231 -1.7119 -12
      vertex 0.766402 1.62869 -12
      vertex 0.766402 -1.62869 -12
    endloop
  endfacet
  facet normal 0 0 -1
    outer loop
      vertex 0.556231 -1.7119 -12
      vertex 0.556231 1.7119 -12
      vertex 0.766402 1.62869 -12
    endloop
  endfacet
  facet normal 0 0 -1
    outer loop
      vertex 0.337286 -1.76812 -12
      vertex 0.556231 1.7119 -12
      vertex 0.556231 -1.7119 -12
    endloop
  endfacet
  facet normal 0 0 -1
    outer loop
      vertex 0.337286 -1.76812 -12
      vertex 0.337286 1.76812 -12
      vertex 0.556231 1.7119 -12
    endloop
  endfacet
  facet normal 0 0 -1
    outer loop
      vertex 0.113023 -1.79645 -12
      vertex 0.337286 1.76812 -12
      vertex 0.337286 -1.76812 -12
    endloop
  endfacet
  facet normal 0 0 -1
    outer loop
      vertex 0.113023 -1.79645 -12
      vertex 0.113023 1.79645 -12
      vertex 0.337286 1.76812 -12
    endloop
  endfacet
  facet normal 0 0 -1
    outer loop
      vertex -0.113023 -1.79645 -12
      vertex 0.113023 1.79645 -12
      vertex 0.113023 -1.79645 -12
    endloop
  endfacet
  facet normal 0 0 -1
    outer loop
      vertex -0.113023 -1.79645 -12
      vertex -0.113023 1.79645 -12
      vertex 0.113023 1.79645 -12
    endloop
  endfacet
  facet normal 0 0 -1
    outer loop
      vertex -0.337286 -1.76812 -12
      vertex -0.113023 1.79645 -12
      vertex -0.113023 -1.79645 -12
    endloop
  endfacet
  facet normal 0 0 -1
    outer loop
      vertex -0.337286 -1.76812 -12
      vertex -0.337286 1.76812 -12
      vertex -0.113023 1.79645 -12
    endloop
  endfacet
  facet normal 0 0 -1
    outer loop
      vertex -0.556231 -1.7119 -12
      vertex -0.337286 1.76812 -12
      vertex -0.337286 -1.76812 -12
    endloop
  endfacet
  facet normal 0 0 -1
    outer loop
      vertex -0.556231 -1.7119 -12
      vertex -0.556231 1.7119 -12
      vertex -0.337286 1.76812 -12
    endloop
  endfacet
  facet normal 0 0 -1
    outer loop
      vertex -0.766402 -1.62869 -12
      vertex -0.556231 1.7119 -12
      vertex -0.556231 -1.7119 -12
    endloop
  endfacet
  facet normal 0 0 -1
    outer loop
      vertex -0.766402 -1.62869 -12
      vertex -0.766402 1.62869 -12
      vertex -0.556231 1.7119 -12
    endloop
  endfacet
  facet normal 0 0 -1
    outer loop
      vertex -0.964488 -1.51979 -12
      vertex -0.766402 1.62869 -12
      vertex -0.766402 -1.62869 -12
    endloop
  endfacet
  facet normal 0 0 -1
    outer loop
      vertex -0.964488 -1.51979 -12
      vertex -0.964488 1.51979 -12
      vertex -0.766402 1.62869 -12
    endloop
  endfacet
  facet normal 0 0 -1
    outer loop
      vertex -1.14736 -1.38692 -12
      vertex -0.964488 1.51979 -12
      vertex -0.964488 -1.51979 -12
    endloop
  endfacet
  facet normal 0 0 -1
    outer loop
      vertex -1.14736 -1.38692 -12
      vertex -1.14736 1.38692 -12
      vertex -0.964488 1.51979 -12
    endloop
  endfacet
  facet normal 0 0 -1
    outer loop
      vertex -1.31214 -1.23218 -12
      vertex -1.14736 1.38692 -12
      vertex -1.14736 -1.38692 -12
    endloop
  endfacet
  facet normal 0 0 -1
    outer loop
      vertex -1.31214 -1.23218 -12
      vertex -1.31214 1.23218 -12
      vertex -1.14736 1.38692 -12
    endloop
  endfacet
  facet normal 0 0 -1
    outer loop
      vertex -1.45623 -1.05801 -12
      vertex -1.31214 1.23218 -12
      vertex -1.31214 -1.23218 -12
    endloop
  endfacet
  facet normal 0 0 -1
    outer loop
      vertex -1.45623 -1.05801 -12
      vertex -1.45623 1.05801 -12
      vertex -1.31214 1.23218 -12
    endloop
  endfacet
  facet normal 0 0 -1
    outer loop
      vertex -1.57735 -0.867156 -12
      vertex -1.45623 1.05801 -12
      vertex -1.45623 -1.05801 -12
    endloop
  endfacet
  facet normal 0 0 -1
    outer loop
      vertex -1.57735 -0.867156 -12
      vertex -1.57735 0.867156 -12
      vertex -1.45623 1.05801 -12
    endloop
  endfacet
  facet normal 0 0 -1
    outer loop
      vertex -1.6736 -0.662623 -12
      vertex -1.57735 0.867156 -12
      vertex -1.57735 -0.867156 -12
    endloop
  endfacet
  facet normal 0 0 -1
    outer loop
      vertex -1.6736 -0.662623 -12
      vertex -1.6736 0.662623 -12
      vertex -1.57735 0.867156 -12
    endloop
  endfacet
  facet normal 0 0 -1
    outer loop
      vertex -1.74345 -0.447641 -12
      vertex -1.6736 0.662623 -12
      vertex -1.6736 -0.662623 -12
    endloop
  endfacet
  facet normal 0 0 -1
    outer loop
      vertex -1.74345 -0.447641 -12
      vertex -1.74345 0.447641 -12
      vertex -1.6736 0.662623 -12
    endloop
  endfacet
  facet normal 0 0 -1
    outer loop
      vertex -1.78581 -0.225599 -12
      vertex -1.74345 0.447641 -12
      vertex -1.74345 -0.447641 -12
    endloop
  endfacet
  facet normal 0 0 -1
    outer loop
      vertex -1.78581 -0.225599 -12
      vertex -1.78581 0.225599 -12
      vertex -1.74345 0.447641 -12
    endloop
  endfacet
  facet normal 0 -0 -1
    outer loop
      vertex -1.78581 0.225599 -12
      vertex -1.78581 -0.225599 -12
      vertex -1.8 0 -12
    endloop
  endfacet
  facet normal 0.998028 0.062768 2.69666e-20
    outer loop
      vertex 1.7951 0.0778854 -1.33572
      vertex 1.78581 0.225599 -12
      vertex 1.78581 0.225599 -1.33571
    endloop
  endfacet
  facet normal 0.998027 0.0627888 -0
    outer loop
      vertex 1.8 0 -12
      vertex 1.7951 0.0778854 -1.33572
      vertex 1.8 0 -1.33571
    endloop
  endfacet
  facet normal 0.998028 0.0627752 1.00089e-07
    outer loop
      vertex 1.7951 0.0778854 -1.33572
      vertex 1.8 0 -12
      vertex 1.78581 0.225599 -12
    endloop
  endfacet
  facet normal -0.998028 0.062768 0
    outer loop
      vertex -1.78581 0.225599 -12
      vertex -1.7951 0.0778854 -1.33572
      vertex -1.78581 0.225599 -1.33571
    endloop
  endfacet
  facet normal -0.998028 0.0627752 1.00089e-07
    outer loop
      vertex -1.8 0 -12
      vertex -1.7951 0.0778854 -1.33572
      vertex -1.78581 0.225599 -12
    endloop
  endfacet
  facet normal -0.998027 0.0627888 6.93364e-21
    outer loop
      vertex -1.7951 0.0778854 -1.33572
      vertex -1.8 0 -12
      vertex -1.8 0 -1.33571
    endloop
  endfacet
  facet normal 0 1 0
    outer loop
      vertex 0.113022 1.79645 -1.33571
      vertex 0.113023 1.79645 -12
      vertex -0.113022 1.79645 -1.33571
    endloop
  endfacet
  facet normal 0 1 -0
    outer loop
      vertex 0.113023 1.79645 -12
      vertex 0.113022 1.79645 -1.33571
      vertex 0.113023 1.79645 -1.33571
    endloop
  endfacet
  facet normal 0 1 0
    outer loop
      vertex -0.113023 1.79645 -12
      vertex -0.113022 1.79645 -1.33571
      vertex 0.113023 1.79645 -12
    endloop
  endfacet
  facet normal 0 1 0
    outer loop
      vertex -0.113022 1.79645 -1.33571
      vertex -0.113023 1.79645 -12
      vertex -0.113023 1.79645 -1.33571
    endloop
  endfacet
  facet normal 0 -1 -0
    outer loop
      vertex -0.113022 -1.79645 -1.33571
      vertex -0.113023 -1.79645 -12
      vertex 0.113022 -1.79645 -1.33571
    endloop
  endfacet
  facet normal 0 -1 0
    outer loop
      vertex -0.113023 -1.79645 -12
      vertex -0.113022 -1.79645 -1.33571
      vertex -0.113023 -1.79645 -1.33571
    endloop
  endfacet
  facet normal 0 -1 0
    outer loop
      vertex 0.113023 -1.79645 -12
      vertex 0.113022 -1.79645 -1.33571
      vertex -0.113023 -1.79645 -12
    endloop
  endfacet
  facet normal 0 -1 0
    outer loop
      vertex 0.113022 -1.79645 -1.33571
      vertex 0.113023 -1.79645 -12
      vertex 0.113023 -1.79645 -1.33571
    endloop
  endfacet
  facet normal 0.684563 0.728953 0
    outer loop
      vertex 1.31214 1.23218 -1.33571
      vertex 1.31214 1.23218 -12
      vertex 1.20425 1.3335 -1.33571
    endloop
  endfacet
  facet normal 0.68455 0.728966 -2.53461e-07
    outer loop
      vertex 1.14736 1.38692 -12
      vertex 1.20425 1.3335 -1.33571
      vertex 1.31214 1.23218 -12
    endloop
  endfacet
  facet normal 0.684525 0.72899 -1.45034e-20
    outer loop
      vertex 1.20425 1.3335 -1.33571
      vertex 1.14736 1.38692 -12
      vertex 1.14736 1.38692 -1.33571
    endloop
  endfacet
  facet normal -0.684525 0.72899 1.45034e-20
    outer loop
      vertex -1.20425 1.3335 -1.33571
      vertex -1.14736 1.38692 -1.33571
      vertex -1.14736 1.38692 -12
    endloop
  endfacet
  facet normal -0.684563 0.728953 -3.87104e-07
    outer loop
      vertex -1.14736 1.38692 -12
      vertex -1.31214 1.23218 -1.33571
      vertex -1.20425 1.3335 -1.33571
    endloop
  endfacet
  facet normal -0.68455 0.728966 0
    outer loop
      vertex -1.31214 1.23218 -12
      vertex -1.31214 1.23218 -1.33571
      vertex -1.14736 1.38692 -12
    endloop
  endfacet
  facet normal -0.368145 0.929768 0
    outer loop
      vertex -0.556231 1.7119 -12
      vertex -0.62879 1.68317 -1.33571
      vertex -0.556231 1.7119 -1.33571
    endloop
  endfacet
  facet normal -0.368099 0.929787 3.66483e-07
    outer loop
      vertex -0.556231 1.7119 -12
      vertex -0.766402 1.62869 -1.33571
      vertex -0.62879 1.68317 -1.33571
    endloop
  endfacet
  facet normal -0.368115 0.92978 0
    outer loop
      vertex -0.766402 1.62869 -12
      vertex -0.766402 1.62869 -1.33571
      vertex -0.556231 1.7119 -12
    endloop
  endfacet
  facet normal 0.904815 0.425806 -1.24931e-19
    outer loop
      vertex 1.61058 0.796544 -1.33571
      vertex 1.57735 0.867156 -12
      vertex 1.57735 0.867156 -1.33571
    endloop
  endfacet
  facet normal 0.904822 0.425791 -1.22505e-07
    outer loop
      vertex 1.6736 0.662624 -1.33571
      vertex 1.57735 0.867156 -12
      vertex 1.61058 0.796544 -1.33571
    endloop
  endfacet
  facet normal 1 0 0
    outer loop
      vertex 1.6736 0.662623 -12
      vertex 1.6736 0.662624 -1.33571
      vertex 1.6736 0.662623 -1.33571
    endloop
  endfacet
  facet normal 0.90482 0.425794 -3.99271e-08
    outer loop
      vertex 1.6736 0.662624 -1.33571
      vertex 1.6736 0.662623 -12
      vertex 1.57735 0.867156 -12
    endloop
  endfacet
  facet normal 0.982295 0.187343 -8.90566e-22
    outer loop
      vertex 1.75807 0.370984 -1.33571
      vertex 1.74345 0.447641 -12
      vertex 1.74345 0.447641 -1.33571
    endloop
  endfacet
  facet normal 0.982279 0.187424 6.02577e-07
    outer loop
      vertex 1.78581 0.2256 -1.33571
      vertex 1.74345 0.447641 -12
      vertex 1.75807 0.370984 -1.33571
    endloop
  endfacet
  facet normal 1 0 0
    outer loop
      vertex 1.78581 0.225599 -12
      vertex 1.78581 0.2256 -1.33571
      vertex 1.78581 0.225599 -1.33571
    endloop
  endfacet
  facet normal 0.982285 0.187395 -1.75722e-08
    outer loop
      vertex 1.78581 0.2256 -1.33571
      vertex 1.78581 0.225599 -12
      vertex 1.74345 0.447641 -12
    endloop
  endfacet
  facet normal 0.368099 0.929787 -0
    outer loop
      vertex 0.766402 1.62869 -12
      vertex 0.62879 1.68317 -1.33571
      vertex 0.766402 1.62869 -1.33571
    endloop
  endfacet
  facet normal 0.368115 0.92978 2.39957e-07
    outer loop
      vertex 0.556231 1.7119 -12
      vertex 0.62879 1.68317 -1.33571
      vertex 0.766402 1.62869 -12
    endloop
  endfacet
  facet normal 0.368145 0.929768 -1.93123e-19
    outer loop
      vertex 0.62879 1.68317 -1.33571
      vertex 0.556231 1.7119 -12
      vertex 0.556231 1.7119 -1.33571
    endloop
  endfacet
  facet normal 0 1 -0
    outer loop
      vertex 0.556231 1.7119 -12
      vertex 0.55623 1.7119 -1.33571
      vertex 0.556231 1.7119 -1.33571
    endloop
  endfacet
  facet normal 0.248705 0.968579 2.33213e-08
    outer loop
      vertex 0.556231 1.7119 -12
      vertex 0.412874 1.74871 -1.33571
      vertex 0.55623 1.7119 -1.33571
    endloop
  endfacet
  facet normal 0.248708 0.968578 6.84839e-08
    outer loop
      vertex 0.337286 1.76812 -12
      vertex 0.412874 1.74871 -1.33571
      vertex 0.556231 1.7119 -12
    endloop
  endfacet
  facet normal 0.248718 0.968576 -5.26695e-20
    outer loop
      vertex 0.412874 1.74871 -1.33571
      vertex 0.337286 1.76812 -12
      vertex 0.337286 1.76812 -1.33571
    endloop
  endfacet
  facet normal 0.587814 0.808996 0
    outer loop
      vertex 1.14736 1.38692 -1.33571
      vertex 1.14736 1.38692 -12
      vertex 1.08423 1.43279 -1.33571
    endloop
  endfacet
  facet normal 0.587796 0.809009 -1.61895e-07
    outer loop
      vertex 1.14736 1.38692 -12
      vertex 0.964488 1.51979 -1.33571
      vertex 1.08423 1.43279 -1.33571
    endloop
  endfacet
  facet normal 0.587802 0.809005 0
    outer loop
      vertex 0.964488 1.51979 -1.33571
      vertex 1.14736 1.38692 -12
      vertex 0.964488 1.51979 -12
    endloop
  endfacet
  facet normal -0.904815 0.425806 0
    outer loop
      vertex -1.57735 0.867156 -12
      vertex -1.61058 0.796544 -1.33571
      vertex -1.57735 0.867156 -1.33571
    endloop
  endfacet
  facet normal -0.904822 0.425791 -1.22505e-07
    outer loop
      vertex -1.57735 0.867156 -12
      vertex -1.6736 0.662624 -1.33571
      vertex -1.61058 0.796544 -1.33571
    endloop
  endfacet
  facet normal -0.90482 0.425794 -3.99271e-08
    outer loop
      vertex -1.6736 0.662623 -12
      vertex -1.6736 0.662624 -1.33571
      vertex -1.57735 0.867156 -12
    endloop
  endfacet
  facet normal -1 -0 0
    outer loop
      vertex -1.6736 0.662624 -1.33571
      vertex -1.6736 0.662623 -12
      vertex -1.6736 0.662623 -1.33571
    endloop
  endfacet
  facet normal -0.844309 0.535856 0
    outer loop
      vertex -1.45623 1.05801 -12
      vertex -1.53554 0.933047 -1.33571
      vertex -1.45623 1.05801 -1.33571
    endloop
  endfacet
  facet normal -0.844327 0.535828 -4.61373e-07
    outer loop
      vertex -1.57735 0.867156 -12
      vertex -1.53554 0.933047 -1.33571
      vertex -1.45623 1.05801 -12
    endloop
  endfacet
  facet normal -0.844361 0.535775 6.69216e-20
    outer loop
      vertex -1.53554 0.933047 -1.33571
      vertex -1.57735 0.867156 -12
      vertex -1.57735 0.867156 -1.33571
    endloop
  endfacet
  facet normal -0.951068 0.30898 0
    outer loop
      vertex -1.6736 0.662623 -12
      vertex -1.71933 0.521862 -1.33571
      vertex -1.6736 0.662623 -1.33571
    endloop
  endfacet
  facet normal -0.951059 0.309009 4.26859e-07
    outer loop
      vertex -1.74345 0.447641 -12
      vertex -1.71933 0.521862 -1.33571
      vertex -1.6736 0.662623 -12
    endloop
  endfacet
  facet normal -0.951041 0.309065 -4.2491e-20
    outer loop
      vertex -1.71933 0.521862 -1.33571
      vertex -1.74345 0.447641 -12
      vertex -1.74345 0.447641 -1.33571
    endloop
  endfacet
  facet normal -0.587796 0.809009 0
    outer loop
      vertex -0.964488 1.51979 -1.33571
      vertex -0.964488 1.51979 -12
      vertex -1.08423 1.43279 -1.33571
    endloop
  endfacet
  facet normal -0.587802 0.809005 -1.06006e-07
    outer loop
      vertex -1.14736 1.38692 -12
      vertex -1.08423 1.43279 -1.33571
      vertex -0.964488 1.51979 -12
    endloop
  endfacet
  facet normal -0.587814 0.808996 1.69725e-19
    outer loop
      vertex -1.08423 1.43279 -1.33571
      vertex -1.14736 1.38692 -12
      vertex -1.14736 1.38692 -1.33571
    endloop
  endfacet
  facet normal -0.248718 0.968576 0
    outer loop
      vertex -0.337286 1.76812 -12
      vertex -0.412874 1.74871 -1.33571
      vertex -0.337286 1.76812 -1.33571
    endloop
  endfacet
  facet normal -0.248705 0.968579 9.22969e-08
    outer loop
      vertex -0.337286 1.76812 -12
      vertex -0.55623 1.7119 -1.33571
      vertex -0.412874 1.74871 -1.33571
    endloop
  endfacet
  facet normal -0.248708 0.968578 2.33216e-08
    outer loop
      vertex -0.556231 1.7119 -12
      vertex -0.55623 1.7119 -1.33571
      vertex -0.337286 1.76812 -12
    endloop
  endfacet
  facet normal 0 1 0
    outer loop
      vertex -0.55623 1.7119 -1.33571
      vertex -0.556231 1.7119 -12
      vertex -0.556231 1.7119 -1.33571
    endloop
  endfacet
  facet normal 0.951041 -0.309065 -4.2491e-20
    outer loop
      vertex 1.71933 -0.521862 -1.33571
      vertex 1.74345 -0.447641 -12
      vertex 1.74345 -0.447641 -1.33571
    endloop
  endfacet
  facet normal 0.951068 -0.30898 6.51942e-07
    outer loop
      vertex 1.6736 -0.662623 -1.33571
      vertex 1.74345 -0.447641 -12
      vertex 1.71933 -0.521862 -1.33571
    endloop
  endfacet
  facet normal 0.951059 -0.309009 -6.67617e-21
    outer loop
      vertex 1.74345 -0.447641 -12
      vertex 1.6736 -0.662623 -1.33571
      vertex 1.6736 -0.662623 -12
    endloop
  endfacet
  facet normal 0.125323 -0.992116 0
    outer loop
      vertex 0.113023 -1.79645 -12
      vertex 0.190446 -1.78667 -1.33571
      vertex 0.113023 -1.79645 -1.33571
    endloop
  endfacet
  facet normal 0.125332 -0.992115 -6.42743e-08
    outer loop
      vertex 0.190446 -1.78667 -1.33571
      vertex 0.113023 -1.79645 -12
      vertex 0.337286 -1.76812 -1.33571
    endloop
  endfacet
  facet normal 0.125329 -0.992115 0
    outer loop
      vertex 0.337286 -1.76812 -1.33571
      vertex 0.113023 -1.79645 -12
      vertex 0.337286 -1.76812 -12
    endloop
  endfacet
  facet normal 0.951068 0.30898 -1.41141e-19
    outer loop
      vertex 1.71933 0.521862 -1.33571
      vertex 1.6736 0.662623 -12
      vertex 1.6736 0.662623 -1.33571
    endloop
  endfacet
  facet normal 0.951041 0.309065 -0
    outer loop
      vertex 1.74345 0.447641 -12
      vertex 1.71933 0.521862 -1.33571
      vertex 1.74345 0.447641 -1.33571
    endloop
  endfacet
  facet normal 0.951059 0.309009 4.26859e-07
    outer loop
      vertex 1.71933 0.521862 -1.33571
      vertex 1.74345 0.447641 -12
      vertex 1.6736 0.662623 -12
    endloop
  endfacet
  facet normal 0.770487 0.637456 1.68502e-19
    outer loop
      vertex 1.40649 1.11814 -1.33571
      vertex 1.31214 1.23218 -12
      vertex 1.31214 1.23218 -1.33571
    endloop
  endfacet
  facet normal 0.770538 0.637395 -0
    outer loop
      vertex 1.45623 1.05801 -12
      vertex 1.40649 1.11814 -1.33571
      vertex 1.45623 1.05801 -1.33571
    endloop
  endfacet
  facet normal 0.770504 0.637435 -3.79943e-07
    outer loop
      vertex 1.40649 1.11814 -1.33571
      vertex 1.45623 1.05801 -12
      vertex 1.31214 1.23218 -12
    endloop
  endfacet
  facet normal 0.844309 0.535856 2.33441e-19
    outer loop
      vertex 1.53554 0.933047 -1.33571
      vertex 1.45623 1.05801 -12
      vertex 1.45623 1.05801 -1.33571
    endloop
  endfacet
  facet normal 0.844361 0.535775 -0
    outer loop
      vertex 1.57735 0.867156 -12
      vertex 1.53554 0.933047 -1.33571
      vertex 1.57735 0.867156 -1.33571
    endloop
  endfacet
  facet normal 0.844327 0.535828 -4.61373e-07
    outer loop
      vertex 1.53554 0.933047 -1.33571
      vertex 1.57735 0.867156 -12
      vertex 1.45623 1.05801 -12
    endloop
  endfacet
  facet normal 0.125332 0.992115 -0
    outer loop
      vertex 0.337286 1.76812 -12
      vertex 0.190446 1.78667 -1.33571
      vertex 0.337286 1.76812 -1.33571
    endloop
  endfacet
  facet normal 0.125329 0.992115 -4.20847e-08
    outer loop
      vertex 0.113023 1.79645 -12
      vertex 0.190446 1.78667 -1.33571
      vertex 0.337286 1.76812 -12
    endloop
  endfacet
  facet normal 0.125323 0.992116 6.55206e-21
    outer loop
      vertex 0.190446 1.78667 -1.33571
      vertex 0.113023 1.79645 -12
      vertex 0.113023 1.79645 -1.33571
    endloop
  endfacet
  facet normal 0.481792 0.876285 -0
    outer loop
      vertex 0.964488 1.51979 -12
      vertex 0.896101 1.55739 -1.33571
      vertex 0.964488 1.51979 -1.33571
    endloop
  endfacet
  facet normal 0.48174 0.876314 -4.36716e-07
    outer loop
      vertex 0.896101 1.55739 -1.33571
      vertex 0.964488 1.51979 -12
      vertex 0.766402 1.62869 -1.33571
    endloop
  endfacet
  facet normal 0.481758 0.876304 0
    outer loop
      vertex 0.766402 1.62869 -1.33571
      vertex 0.964488 1.51979 -12
      vertex 0.766402 1.62869 -12
    endloop
  endfacet
  facet normal -0.770487 0.637456 0
    outer loop
      vertex -1.31214 1.23218 -12
      vertex -1.40649 1.11814 -1.33571
      vertex -1.31214 1.23218 -1.33571
    endloop
  endfacet
  facet normal -0.770504 0.637435 -3.79943e-07
    outer loop
      vertex -1.45623 1.05801 -12
      vertex -1.40649 1.11814 -1.33571
      vertex -1.31214 1.23218 -12
    endloop
  endfacet
  facet normal -0.770538 0.637395 -1.24937e-19
    outer loop
      vertex -1.40649 1.11814 -1.33571
      vertex -1.45623 1.05801 -12
      vertex -1.45623 1.05801 -1.33571
    endloop
  endfacet
  facet normal -0.982295 0.187343 0
    outer loop
      vertex -1.74345 0.447641 -12
      vertex -1.75807 0.370984 -1.33571
      vertex -1.74345 0.447641 -1.33571
    endloop
  endfacet
  facet normal -0.982279 0.187424 6.02577e-07
    outer loop
      vertex -1.74345 0.447641 -12
      vertex -1.78581 0.2256 -1.33571
      vertex -1.75807 0.370984 -1.33571
    endloop
  endfacet
  facet normal -0.982285 0.187395 -1.75722e-08
    outer loop
      vertex -1.78581 0.225599 -12
      vertex -1.78581 0.2256 -1.33571
      vertex -1.74345 0.447641 -12
    endloop
  endfacet
  facet normal -1 -0 0
    outer loop
      vertex -1.78581 0.2256 -1.33571
      vertex -1.78581 0.225599 -12
      vertex -1.78581 0.225599 -1.33571
    endloop
  endfacet
  facet normal -0.48174 0.876314 0
    outer loop
      vertex -0.766402 1.62869 -12
      vertex -0.896101 1.55739 -1.33571
      vertex -0.766402 1.62869 -1.33571
    endloop
  endfacet
  facet normal -0.481758 0.876304 -2.85942e-07
    outer loop
      vertex -0.964488 1.51979 -12
      vertex -0.896101 1.55739 -1.33571
      vertex -0.766402 1.62869 -12
    endloop
  endfacet
  facet normal -0.481792 0.876285 -7.93844e-20
    outer loop
      vertex -0.896101 1.55739 -1.33571
      vertex -0.964488 1.51979 -12
      vertex -0.964488 1.51979 -1.33571
    endloop
  endfacet
  facet normal -0.125323 0.992116 0
    outer loop
      vertex -0.113023 1.79645 -12
      vertex -0.190446 1.78667 -1.33571
      vertex -0.113023 1.79645 -1.33571
    endloop
  endfacet
  facet normal -0.125332 0.992115 -6.42743e-08
    outer loop
      vertex -0.190446 1.78667 -1.33571
      vertex -0.113023 1.79645 -12
      vertex -0.337286 1.76812 -1.33571
    endloop
  endfacet
  facet normal -0.125329 0.992115 0
    outer loop
      vertex -0.337286 1.76812 -1.33571
      vertex -0.113023 1.79645 -12
      vertex -0.337286 1.76812 -12
    endloop
  endfacet
  facet normal 0.998027 -0.0627888 6.93364e-21
    outer loop
      vertex 1.7951 -0.0778854 -1.33572
      vertex 1.8 0 -12
      vertex 1.8 0 -1.33571
    endloop
  endfacet
  facet normal 0.998028 -0.062768 1.52863e-07
    outer loop
      vertex 1.78581 -0.225599 -1.33571
      vertex 1.8 0 -12
      vertex 1.7951 -0.0778854 -1.33572
    endloop
  endfacet
  facet normal 0.998028 -0.0627752 -4.56791e-20
    outer loop
      vertex 1.8 0 -12
      vertex 1.78581 -0.225599 -1.33571
      vertex 1.78581 -0.225599 -12
    endloop
  endfacet
  facet normal 0.684525 -0.72899 1.45034e-20
    outer loop
      vertex 1.20425 -1.3335 -1.33571
      vertex 1.14736 -1.38692 -1.33571
      vertex 1.14736 -1.38692 -12
    endloop
  endfacet
  facet normal 0.684563 -0.728953 -3.87104e-07
    outer loop
      vertex 1.14736 -1.38692 -12
      vertex 1.31214 -1.23218 -1.33571
      vertex 1.20425 -1.3335 -1.33571
    endloop
  endfacet
  facet normal 0.68455 -0.728966 0
    outer loop
      vertex 1.31214 -1.23218 -12
      vertex 1.31214 -1.23218 -1.33571
      vertex 1.14736 -1.38692 -12
    endloop
  endfacet
  facet normal 1 -0 0
    outer loop
      vertex 1.78581 -0.2256 -1.33571
      vertex 1.78581 -0.225599 -12
      vertex 1.78581 -0.225599 -1.33571
    endloop
  endfacet
  facet normal 0.982279 -0.187424 -1.75749e-08
    outer loop
      vertex 1.75807 -0.370984 -1.33571
      vertex 1.78581 -0.225599 -12
      vertex 1.78581 -0.2256 -1.33571
    endloop
  endfacet
  facet normal 0.982295 -0.187343 0
    outer loop
      vertex 1.74345 -0.447641 -12
      vertex 1.75807 -0.370984 -1.33571
      vertex 1.74345 -0.447641 -1.33571
    endloop
  endfacet
  facet normal 0.982285 -0.187395 3.8848e-07
    outer loop
      vertex 1.75807 -0.370984 -1.33571
      vertex 1.74345 -0.447641 -12
      vertex 1.78581 -0.225599 -12
    endloop
  endfacet
  facet normal 0.368145 -0.929768 0
    outer loop
      vertex 0.556231 -1.7119 -12
      vertex 0.62879 -1.68317 -1.33571
      vertex 0.556231 -1.7119 -1.33571
    endloop
  endfacet
  facet normal 0.368099 -0.929787 3.66483e-07
    outer loop
      vertex 0.556231 -1.7119 -12
      vertex 0.766402 -1.62869 -1.33571
      vertex 0.62879 -1.68317 -1.33571
    endloop
  endfacet
  facet normal 0.368115 -0.92978 0
    outer loop
      vertex 0.766402 -1.62869 -12
      vertex 0.766402 -1.62869 -1.33571
      vertex 0.556231 -1.7119 -12
    endloop
  endfacet
  facet normal 0.48174 -0.876314 0
    outer loop
      vertex 0.766402 -1.62869 -12
      vertex 0.896101 -1.55739 -1.33571
      vertex 0.766402 -1.62869 -1.33571
    endloop
  endfacet
  facet normal 0.481758 -0.876304 -2.85942e-07
    outer loop
      vertex 0.964488 -1.51979 -12
      vertex 0.896101 -1.55739 -1.33571
      vertex 0.766402 -1.62869 -12
    endloop
  endfacet
  facet normal 0.481792 -0.876285 -7.93844e-20
    outer loop
      vertex 0.896101 -1.55739 -1.33571
      vertex 0.964488 -1.51979 -12
      vertex 0.964488 -1.51979 -1.33571
    endloop
  endfacet
  facet normal 1 -0 0
    outer loop
      vertex 1.6736 -0.662624 -1.33571
      vertex 1.6736 -0.662623 -12
      vertex 1.6736 -0.662623 -1.33571
    endloop
  endfacet
  facet normal 0.904822 -0.425791 -3.99268e-08
    outer loop
      vertex 1.61058 -0.796544 -1.33571
      vertex 1.6736 -0.662623 -12
      vertex 1.6736 -0.662624 -1.33571
    endloop
  endfacet
  facet normal 0.904815 -0.425806 0
    outer loop
      vertex 1.57735 -0.867156 -12
      vertex 1.61058 -0.796544 -1.33571
      vertex 1.57735 -0.867156 -1.33571
    endloop
  endfacet
  facet normal 0.90482 -0.425794 -9.39956e-08
    outer loop
      vertex 1.61058 -0.796544 -1.33571
      vertex 1.57735 -0.867156 -12
      vertex 1.6736 -0.662623 -12
    endloop
  endfacet
  facet normal 0.770538 -0.637395 -1.24937e-19
    outer loop
      vertex 1.40649 -1.11814 -1.33571
      vertex 1.45623 -1.05801 -12
      vertex 1.45623 -1.05801 -1.33571
    endloop
  endfacet
  facet normal 0.770487 -0.637456 -5.80262e-07
    outer loop
      vertex 1.31214 -1.23218 -1.33571
      vertex 1.45623 -1.05801 -12
      vertex 1.40649 -1.11814 -1.33571
    endloop
  endfacet
  facet normal 0.770504 -0.637435 -4.07594e-19
    outer loop
      vertex 1.45623 -1.05801 -12
      vertex 1.31214 -1.23218 -1.33571
      vertex 1.31214 -1.23218 -12
    endloop
  endfacet
  facet normal -0.368099 -0.929787 0
    outer loop
      vertex -0.766402 -1.62869 -12
      vertex -0.62879 -1.68317 -1.33571
      vertex -0.766402 -1.62869 -1.33571
    endloop
  endfacet
  facet normal -0.368115 -0.92978 2.39957e-07
    outer loop
      vertex -0.556231 -1.7119 -12
      vertex -0.62879 -1.68317 -1.33571
      vertex -0.766402 -1.62869 -12
    endloop
  endfacet
  facet normal -0.368145 -0.929768 -1.93123e-19
    outer loop
      vertex -0.62879 -1.68317 -1.33571
      vertex -0.556231 -1.7119 -12
      vertex -0.556231 -1.7119 -1.33571
    endloop
  endfacet
  facet normal 0 -1 0
    outer loop
      vertex -0.556231 -1.7119 -12
      vertex -0.55623 -1.7119 -1.33571
      vertex -0.556231 -1.7119 -1.33571
    endloop
  endfacet
  facet normal -0.248705 -0.968579 2.33213e-08
    outer loop
      vertex -0.556231 -1.7119 -12
      vertex -0.412874 -1.74871 -1.33571
      vertex -0.55623 -1.7119 -1.33571
    endloop
  endfacet
  facet normal -0.248708 -0.968578 6.84839e-08
    outer loop
      vertex -0.337286 -1.76812 -12
      vertex -0.412874 -1.74871 -1.33571
      vertex -0.556231 -1.7119 -12
    endloop
  endfacet
  facet normal -0.248718 -0.968576 -5.26695e-20
    outer loop
      vertex -0.412874 -1.74871 -1.33571
      vertex -0.337286 -1.76812 -12
      vertex -0.337286 -1.76812 -1.33571
    endloop
  endfacet
  facet normal -0.770538 -0.637395 0
    outer loop
      vertex -1.45623 -1.05801 -12
      vertex -1.40649 -1.11814 -1.33571
      vertex -1.45623 -1.05801 -1.33571
    endloop
  endfacet
  facet normal -0.770504 -0.637435 -3.79943e-07
    outer loop
      vertex -1.31214 -1.23218 -12
      vertex -1.40649 -1.11814 -1.33571
      vertex -1.45623 -1.05801 -12
    endloop
  endfacet
  facet normal -0.770487 -0.637456 1.68502e-19
    outer loop
      vertex -1.40649 -1.11814 -1.33571
      vertex -1.31214 -1.23218 -12
      vertex -1.31214 -1.23218 -1.33571
    endloop
  endfacet
  facet normal -0.951041 -0.309065 0
    outer loop
      vertex -1.74345 -0.447641 -12
      vertex -1.71933 -0.521862 -1.33571
      vertex -1.74345 -0.447641 -1.33571
    endloop
  endfacet
  facet normal -0.951059 -0.309009 4.26859e-07
    outer loop
      vertex -1.6736 -0.662623 -12
      vertex -1.71933 -0.521862 -1.33571
      vertex -1.74345 -0.447641 -12
    endloop
  endfacet
  facet normal -0.951068 -0.30898 -1.41141e-19
    outer loop
      vertex -1.71933 -0.521862 -1.33571
      vertex -1.6736 -0.662623 -12
      vertex -1.6736 -0.662623 -1.33571
    endloop
  endfacet
  facet normal 0.248718 -0.968576 0
    outer loop
      vertex 0.337286 -1.76812 -12
      vertex 0.412874 -1.74871 -1.33571
      vertex 0.337286 -1.76812 -1.33571
    endloop
  endfacet
  facet normal 0.248705 -0.968579 9.22969e-08
    outer loop
      vertex 0.337286 -1.76812 -12
      vertex 0.55623 -1.7119 -1.33571
      vertex 0.412874 -1.74871 -1.33571
    endloop
  endfacet
  facet normal 0.248708 -0.968578 2.33216e-08
    outer loop
      vertex 0.556231 -1.7119 -12
      vertex 0.55623 -1.7119 -1.33571
      vertex 0.337286 -1.76812 -12
    endloop
  endfacet
  facet normal 0 -1 0
    outer loop
      vertex 0.55623 -1.7119 -1.33571
      vertex 0.556231 -1.7119 -12
      vertex 0.556231 -1.7119 -1.33571
    endloop
  endfacet
  facet normal 0.587796 -0.809009 0
    outer loop
      vertex 0.964488 -1.51979 -1.33571
      vertex 0.964488 -1.51979 -12
      vertex 1.08423 -1.43279 -1.33571
    endloop
  endfacet
  facet normal 0.587802 -0.809005 -1.06006e-07
    outer loop
      vertex 1.14736 -1.38692 -12
      vertex 1.08423 -1.43279 -1.33571
      vertex 0.964488 -1.51979 -12
    endloop
  endfacet
  facet normal 0.587814 -0.808996 1.69725e-19
    outer loop
      vertex 1.08423 -1.43279 -1.33571
      vertex 1.14736 -1.38692 -12
      vertex 1.14736 -1.38692 -1.33571
    endloop
  endfacet
  facet normal 0.844361 -0.535775 6.69216e-20
    outer loop
      vertex 1.53554 -0.933047 -1.33571
      vertex 1.57735 -0.867156 -12
      vertex 1.57735 -0.867156 -1.33571
    endloop
  endfacet
  facet normal 0.844309 -0.535856 -7.04634e-07
    outer loop
      vertex 1.45623 -1.05801 -1.33571
      vertex 1.57735 -0.867156 -12
      vertex 1.53554 -0.933047 -1.33571
    endloop
  endfacet
  facet normal 0.844327 -0.535828 -6.45838e-19
    outer loop
      vertex 1.57735 -0.867156 -12
      vertex 1.45623 -1.05801 -1.33571
      vertex 1.45623 -1.05801 -12
    endloop
  endfacet
  facet normal -0.125332 -0.992115 0
    outer loop
      vertex -0.337286 -1.76812 -12
      vertex -0.190446 -1.78667 -1.33571
      vertex -0.337286 -1.76812 -1.33571
    endloop
  endfacet
  facet normal -0.125329 -0.992115 -4.20847e-08
    outer loop
      vertex -0.113023 -1.79645 -12
      vertex -0.190446 -1.78667 -1.33571
      vertex -0.337286 -1.76812 -12
    endloop
  endfacet
  facet normal -0.125323 -0.992116 6.55206e-21
    outer loop
      vertex -0.190446 -1.78667 -1.33571
      vertex -0.113023 -1.79645 -12
      vertex -0.113023 -1.79645 -1.33571
    endloop
  endfacet
  facet normal -0.587814 -0.808996 -0
    outer loop
      vertex -1.14736 -1.38692 -1.33571
      vertex -1.14736 -1.38692 -12
      vertex -1.08423 -1.43279 -1.33571
    endloop
  endfacet
  facet normal -0.587796 -0.809009 -1.61895e-07
    outer loop
      vertex -1.14736 -1.38692 -12
      vertex -0.964488 -1.51979 -1.33571
      vertex -1.08423 -1.43279 -1.33571
    endloop
  endfacet
  facet normal -0.587802 -0.809005 -0
    outer loop
      vertex -0.964488 -1.51979 -1.33571
      vertex -1.14736 -1.38692 -12
      vertex -0.964488 -1.51979 -12
    endloop
  endfacet
  facet normal -0.684563 -0.728953 -0
    outer loop
      vertex -1.31214 -1.23218 -1.33571
      vertex -1.31214 -1.23218 -12
      vertex -1.20425 -1.3335 -1.33571
    endloop
  endfacet
  facet normal -0.68455 -0.728966 -2.53461e-07
    outer loop
      vertex -1.14736 -1.38692 -12
      vertex -1.20425 -1.3335 -1.33571
      vertex -1.31214 -1.23218 -12
    endloop
  endfacet
  facet normal -0.684525 -0.72899 -1.45034e-20
    outer loop
      vertex -1.20425 -1.3335 -1.33571
      vertex -1.14736 -1.38692 -12
      vertex -1.14736 -1.38692 -1.33571
    endloop
  endfacet
  facet normal -1 0 0
    outer loop
      vertex -1.78581 -0.225599 -12
      vertex -1.78581 -0.2256 -1.33571
      vertex -1.78581 -0.225599 -1.33571
    endloop
  endfacet
  facet normal -0.982279 -0.187424 -1.75749e-08
    outer loop
      vertex -1.78581 -0.225599 -12
      vertex -1.75807 -0.370984 -1.33571
      vertex -1.78581 -0.2256 -1.33571
    endloop
  endfacet
  facet normal -0.982285 -0.187395 3.8848e-07
    outer loop
      vertex -1.74345 -0.447641 -12
      vertex -1.75807 -0.370984 -1.33571
      vertex -1.78581 -0.225599 -12
    endloop
  endfacet
  facet normal -0.982295 -0.187343 -8.90566e-22
    outer loop
      vertex -1.75807 -0.370984 -1.33571
      vertex -1.74345 -0.447641 -12
      vertex -1.74345 -0.447641 -1.33571
    endloop
  endfacet
  facet normal -0.998027 -0.0627888 0
    outer loop
      vertex -1.8 0 -12
      vertex -1.7951 -0.0778854 -1.33572
      vertex -1.8 0 -1.33571
    endloop
  endfacet
  facet normal -0.998028 -0.0627752 1.00089e-07
    outer loop
      vertex -1.78581 -0.225599 -12
      vertex -1.7951 -0.0778854 -1.33572
      vertex -1.8 0 -12
    endloop
  endfacet
  facet normal -0.998028 -0.062768 2.69666e-20
    outer loop
      vertex -1.7951 -0.0778854 -1.33572
      vertex -1.78581 -0.225599 -12
      vertex -1.78581 -0.225599 -1.33571
    endloop
  endfacet
  facet normal -0.481792 -0.876285 0
    outer loop
      vertex -0.964488 -1.51979 -12
      vertex -0.896101 -1.55739 -1.33571
      vertex -0.964488 -1.51979 -1.33571
    endloop
  endfacet
  facet normal -0.48174 -0.876314 -4.36716e-07
    outer loop
      vertex -0.896101 -1.55739 -1.33571
      vertex -0.964488 -1.51979 -12
      vertex -0.766402 -1.62869 -1.33571
    endloop
  endfacet
  facet normal -0.481758 -0.876304 -0
    outer loop
      vertex -0.766402 -1.62869 -1.33571
      vertex -0.964488 -1.51979 -12
      vertex -0.766402 -1.62869 -12
    endloop
  endfacet
  facet normal -0.844361 -0.535775 0
    outer loop
      vertex -1.57735 -0.867156 -12
      vertex -1.53554 -0.933047 -1.33571
      vertex -1.57735 -0.867156 -1.33571
    endloop
  endfacet
  facet normal -0.844327 -0.535828 -4.61373e-07
    outer loop
      vertex -1.45623 -1.05801 -12
      vertex -1.53554 -0.933047 -1.33571
      vertex -1.57735 -0.867156 -12
    endloop
  endfacet
  facet normal -0.844309 -0.535856 2.33441e-19
    outer loop
      vertex -1.53554 -0.933047 -1.33571
      vertex -1.45623 -1.05801 -12
      vertex -1.45623 -1.05801 -1.33571
    endloop
  endfacet
  facet normal -1 0 0
    outer loop
      vertex -1.6736 -0.662623 -12
      vertex -1.6736 -0.662624 -1.33571
      vertex -1.6736 -0.662623 -1.33571
    endloop
  endfacet
  facet normal -0.904822 -0.425791 -3.99268e-08
    outer loop
      vertex -1.6736 -0.662623 -12
      vertex -1.61058 -0.796544 -1.33571
      vertex -1.6736 -0.662624 -1.33571
    endloop
  endfacet
  facet normal -0.90482 -0.425794 -9.39956e-08
    outer loop
      vertex -1.57735 -0.867156 -12
      vertex -1.61058 -0.796544 -1.33571
      vertex -1.6736 -0.662623 -12
    endloop
  endfacet
  facet normal -0.904815 -0.425806 -1.24931e-19
    outer loop
      vertex -1.61058 -0.796544 -1.33571
      vertex -1.57735 -0.867156 -12
      vertex -1.57735 -0.867156 -1.33571
    endloop
  endfacet
  facet normal 0.0968177 -0.766454 -0.634961
    outer loop
      vertex 0.190446 -1.78667 -1.33571
      vertex 0.182092 -2.89428 0
      vertex 0.113023 -1.79645 -1.33571
    endloop
  endfacet
  facet normal -0 -0.772545 -0.63496
    outer loop
      vertex 0.113023 -1.79645 -1.33571
      vertex 0.182092 -2.89428 0
      vertex 0.113022 -1.79645 -1.33571
    endloop
  endfacet
  facet normal 0.096837 -0.766452 -0.634959
    outer loop
      vertex 0.182092 -2.89428 0
      vertex 0.190446 -1.78667 -1.33571
      vertex 0.543406 -2.84863 0
    endloop
  endfacet
  facet normal 0.771023 0.0485143 -0.634957
    outer loop
      vertex 2.9 0 0
      vertex 1.7951 0.0778854 -1.33572
      vertex 2.87713 0.363466 0
    endloop
  endfacet
  facet normal 0.771024 0.0484258 -0.634963
    outer loop
      vertex 1.7951 0.0778854 -1.33572
      vertex 2.9 0 0
      vertex 1.8 0 -1.33571
    endloop
  endfacet
  facet normal 0.774393 1.89202e-11 -0.632705
    outer loop
      vertex 2.87713 0.363466 0
      vertex 1.78581 0.225599 -1.33571
      vertex 1.78581 0.2256 -1.33571
    endloop
  endfacet
  facet normal 0.77102 0.048534 -0.634959
    outer loop
      vertex 1.78581 0.225599 -1.33571
      vertex 2.87713 0.363466 0
      vertex 1.7951 0.0778854 -1.33572
    endloop
  endfacet
  facet normal 0.774393 0 -0.632705
    outer loop
      vertex 1.78581 -0.225599 -1.33571
      vertex 2.87713 -0.363466 0
      vertex 1.78581 -0.2256 -1.33571
    endloop
  endfacet
  facet normal 0.77102 -0.048534 -0.634959
    outer loop
      vertex 2.87713 -0.363466 0
      vertex 1.78581 -0.225599 -1.33571
      vertex 1.7951 -0.0778854 -1.33572
    endloop
  endfacet
  facet normal -0.758857 -0.144794 -0.634957
    outer loop
      vertex -1.75807 -0.370984 -1.33571
      vertex -2.87713 -0.363466 0
      vertex -1.78581 -0.2256 -1.33571
    endloop
  endfacet
  facet normal -0.192126 0.748275 -0.634959
    outer loop
      vertex -0.543406 2.84863 0
      vertex -0.412874 1.74871 -1.33571
      vertex -0.896149 2.75806 0
    endloop
  endfacet
  facet normal -0.192146 0.748271 -0.634957
    outer loop
      vertex -0.412874 1.74871 -1.33571
      vertex -0.543406 2.84863 0
      vertex -0.337286 1.76812 -1.33571
    endloop
  endfacet
  facet normal 0.595233 -0.492461 -0.634964
    outer loop
      vertex 2.11401 -1.98519 0
      vertex 1.31214 -1.23218 -1.33571
      vertex 1.40649 -1.11814 -1.33571
    endloop
  endfacet
  facet normal 0.734723 -0.238767 -0.634958
    outer loop
      vertex 2.80889 -0.7212 0
      vertex 1.71933 -0.521862 -1.33571
      vertex 1.74345 -0.447641 -1.33571
    endloop
  endfacet
  facet normal 0.734733 -0.238731 -0.634961
    outer loop
      vertex 1.71933 -0.521862 -1.33571
      vertex 2.80889 -0.7212 0
      vertex 2.69635 -1.06756 0
    endloop
  endfacet
  facet normal 0.771024 -0.0484258 -0.634963
    outer loop
      vertex 2.9 0 0
      vertex 1.7951 -0.0778854 -1.33572
      vertex 1.8 0 -1.33571
    endloop
  endfacet
  facet normal 0.771023 -0.0485143 -0.634957
    outer loop
      vertex 1.7951 -0.0778854 -1.33572
      vertex 2.9 0 0
      vertex 2.87713 -0.363466 0
    endloop
  endfacet
  facet normal 0.699012 -0.328955 -0.634957
    outer loop
      vertex 2.69635 -1.06756 0
      vertex 1.57735 -0.867156 -1.33571
      vertex 1.61058 -0.796544 -1.33571
    endloop
  endfacet
  facet normal 0.699023 -0.328924 -0.634961
    outer loop
      vertex 1.57735 -0.867156 -1.33571
      vertex 2.69635 -1.06756 0
      vertex 2.54129 -1.39709 0
    endloop
  endfacet
  facet normal 0.652265 -0.413972 -0.634962
    outer loop
      vertex 2.34615 -1.70458 0
      vertex 1.45623 -1.05801 -1.33571
      vertex 1.53554 -0.933047 -1.33571
    endloop
  endfacet
  facet normal 0.284409 -0.718289 -0.634959
    outer loop
      vertex 0.62879 -1.68317 -1.33571
      vertex 0.896149 -2.75806 0
      vertex 0.556231 -1.7119 -1.33571
    endloop
  endfacet
  facet normal -0 -0.78727 -0.616609
    outer loop
      vertex 0.556231 -1.7119 -1.33571
      vertex 0.896149 -2.75806 0
      vertex 0.55623 -1.7119 -1.33571
    endloop
  endfacet
  facet normal 0.284382 -0.718298 -0.634961
    outer loop
      vertex 0.896149 -2.75806 0
      vertex 0.62879 -1.68317 -1.33571
      vertex 1.23476 -2.624 0
    endloop
  endfacet
  facet normal 0.372178 -0.676985 -0.63496
    outer loop
      vertex 1.23476 -2.624 0
      vertex 0.964488 -1.51979 -1.33571
      vertex 1.5539 -2.44855 0
    endloop
  endfacet
  facet normal 0.372208 -0.676973 -0.634956
    outer loop
      vertex 0.964488 -1.51979 -1.33571
      vertex 1.23476 -2.624 0
      vertex 0.896101 -1.55739 -1.33571
    endloop
  endfacet
  facet normal 0.372166 -0.676992 -0.634961
    outer loop
      vertex 1.23476 -2.624 0
      vertex 0.766402 -1.62869 -1.33571
      vertex 0.896101 -1.55739 -1.33571
    endloop
  endfacet
  facet normal -0.652305 -0.413909 -0.634963
    outer loop
      vertex -1.53554 -0.933047 -1.33571
      vertex -2.54129 -1.39709 0
      vertex -1.57735 -0.867156 -1.33571
    endloop
  endfacet
  facet normal -0.65228 -0.413952 -0.63496
    outer loop
      vertex -2.54129 -1.39709 0
      vertex -1.53554 -0.933047 -1.33571
      vertex -2.34615 -1.70458 0
    endloop
  endfacet
  facet normal -0.284409 0.718289 -0.634959
    outer loop
      vertex -0.62879 1.68317 -1.33571
      vertex -0.896149 2.75806 0
      vertex -0.556231 1.7119 -1.33571
    endloop
  endfacet
  facet normal 0 0.78727 -0.616609
    outer loop
      vertex -0.556231 1.7119 -1.33571
      vertex -0.896149 2.75806 0
      vertex -0.55623 1.7119 -1.33571
    endloop
  endfacet
  facet normal -0.284382 0.718298 -0.634961
    outer loop
      vertex -0.896149 2.75806 0
      vertex -0.62879 1.68317 -1.33571
      vertex -1.23476 2.624 0
    endloop
  endfacet
  facet normal 0.793978 0 -0.607947
    outer loop
      vertex 1.6736 -0.662623 -1.33571
      vertex 2.69635 -1.06756 0
      vertex 1.6736 -0.662624 -1.33571
    endloop
  endfacet
  facet normal 0.734745 -0.238702 -0.634958
    outer loop
      vertex 2.69635 -1.06756 0
      vertex 1.6736 -0.662623 -1.33571
      vertex 1.71933 -0.521862 -1.33571
    endloop
  endfacet
  facet normal 0.192136 -0.748271 -0.63496
    outer loop
      vertex 0.896149 -2.75806 0
      vertex 0.412874 -1.74871 -1.33571
      vertex 0.55623 -1.7119 -1.33571
    endloop
  endfacet
  facet normal 0.52884 -0.563162 -0.634962
    outer loop
      vertex 1.84853 -2.23449 0
      vertex 1.20425 -1.3335 -1.33571
      vertex 2.11401 -1.98519 0
    endloop
  endfacet
  facet normal 0.528825 -0.563175 -0.634963
    outer loop
      vertex 1.20425 -1.3335 -1.33571
      vertex 1.84853 -2.23449 0
      vertex 1.14736 -1.38692 -1.33571
    endloop
  endfacet
  facet normal 0.65228 0.413952 -0.63496
    outer loop
      vertex 2.54129 1.39709 0
      vertex 1.53554 0.933047 -1.33571
      vertex 2.34615 1.70458 0
    endloop
  endfacet
  facet normal 0.652305 0.413909 -0.634963
    outer loop
      vertex 1.53554 0.933047 -1.33571
      vertex 2.54129 1.39709 0
      vertex 1.57735 0.867156 -1.33571
    endloop
  endfacet
  facet normal 0.0968247 0.766455 -0.634958
    outer loop
      vertex 0.543406 2.84863 0
      vertex 0.337286 1.76812 -1.33571
      vertex 0.190446 1.78667 -1.33571
    endloop
  endfacet
  facet normal 0.758857 -0.144794 -0.634957
    outer loop
      vertex 2.87713 -0.363466 0
      vertex 1.75807 -0.370984 -1.33571
      vertex 1.78581 -0.2256 -1.33571
    endloop
  endfacet
  facet normal 0.758864 -0.14473 -0.634963
    outer loop
      vertex 2.87713 -0.363466 0
      vertex 1.74345 -0.447641 -1.33571
      vertex 1.75807 -0.370984 -1.33571
    endloop
  endfacet
  facet normal 0.758862 -0.144758 -0.63496
    outer loop
      vertex 1.74345 -0.447641 -1.33571
      vertex 2.87713 -0.363466 0
      vertex 2.80889 -0.7212 0
    endloop
  endfacet
  facet normal 0.652305 -0.413909 -0.634963
    outer loop
      vertex 2.54129 -1.39709 0
      vertex 1.53554 -0.933047 -1.33571
      vertex 1.57735 -0.867156 -1.33571
    endloop
  endfacet
  facet normal 0.65228 -0.413952 -0.63496
    outer loop
      vertex 1.53554 -0.933047 -1.33571
      vertex 2.54129 -1.39709 0
      vertex 2.34615 -1.70458 0
    endloop
  endfacet
  facet normal 0.595256 -0.492437 -0.634961
    outer loop
      vertex 1.40649 -1.11814 -1.33571
      vertex 2.34615 -1.70458 0
      vertex 2.11401 -1.98519 0
    endloop
  endfacet
  facet normal 0.595273 -0.492415 -0.634963
    outer loop
      vertex 2.34615 -1.70458 0
      vertex 1.40649 -1.11814 -1.33571
      vertex 1.45623 -1.05801 -1.33571
    endloop
  endfacet
  facet normal 0.192126 -0.748275 -0.634959
    outer loop
      vertex 0.543406 -2.84863 0
      vertex 0.412874 -1.74871 -1.33571
      vertex 0.896149 -2.75806 0
    endloop
  endfacet
  facet normal 0.192146 -0.748271 -0.634957
    outer loop
      vertex 0.412874 -1.74871 -1.33571
      vertex 0.543406 -2.84863 0
      vertex 0.337286 -1.76812 -1.33571
    endloop
  endfacet
  facet normal 0.0968247 -0.766455 -0.634958
    outer loop
      vertex 0.337286 -1.76812 -1.33571
      vertex 0.543406 -2.84863 0
      vertex 0.190446 -1.78667 -1.33571
    endloop
  endfacet
  facet normal 0.454088 -0.625002 -0.634961
    outer loop
      vertex 1.08423 -1.43279 -1.33571
      vertex 1.84853 -2.23449 0
      vertex 1.5539 -2.44855 0
    endloop
  endfacet
  facet normal 0.454111 -0.624984 -0.634963
    outer loop
      vertex 1.84853 -2.23449 0
      vertex 1.08423 -1.43279 -1.33571
      vertex 1.14736 -1.38692 -1.33571
    endloop
  endfacet
  facet normal 0.454099 -0.624996 -0.63496
    outer loop
      vertex 1.5539 -2.44855 0
      vertex 0.964488 -1.51979 -1.33571
      vertex 1.08423 -1.43279 -1.33571
    endloop
  endfacet
  facet normal -0.699012 -0.328955 -0.634957
    outer loop
      vertex -1.57735 -0.867156 -1.33571
      vertex -2.69635 -1.06756 0
      vertex -1.61058 -0.796544 -1.33571
    endloop
  endfacet
  facet normal -0.699023 -0.328924 -0.634961
    outer loop
      vertex -2.69635 -1.06756 0
      vertex -1.57735 -0.867156 -1.33571
      vertex -2.54129 -1.39709 0
    endloop
  endfacet
  facet normal -0.192136 -0.748271 -0.63496
    outer loop
      vertex -0.412874 -1.74871 -1.33571
      vertex -0.896149 -2.75806 0
      vertex -0.55623 -1.7119 -1.33571
    endloop
  endfacet
  facet normal -0.192126 -0.748275 -0.634959
    outer loop
      vertex -0.412874 -1.74871 -1.33571
      vertex -0.543406 -2.84863 0
      vertex -0.896149 -2.75806 0
    endloop
  endfacet
  facet normal -0.192146 -0.748271 -0.634957
    outer loop
      vertex -0.543406 -2.84863 0
      vertex -0.412874 -1.74871 -1.33571
      vertex -0.337286 -1.76812 -1.33571
    endloop
  endfacet
  facet normal -0.454099 -0.624996 -0.63496
    outer loop
      vertex -0.964488 -1.51979 -1.33571
      vertex -1.5539 -2.44855 0
      vertex -1.08423 -1.43279 -1.33571
    endloop
  endfacet
  facet normal -0.454088 -0.625002 -0.634961
    outer loop
      vertex -1.84853 -2.23449 0
      vertex -1.08423 -1.43279 -1.33571
      vertex -1.5539 -2.44855 0
    endloop
  endfacet
  facet normal -0.454111 -0.624984 -0.634963
    outer loop
      vertex -1.08423 -1.43279 -1.33571
      vertex -1.84853 -2.23449 0
      vertex -1.14736 -1.38692 -1.33571
    endloop
  endfacet
  facet normal -0.528854 -0.563147 -0.634964
    outer loop
      vertex -1.20425 -1.3335 -1.33571
      vertex -2.11401 -1.98519 0
      vertex -1.31214 -1.23218 -1.33571
    endloop
  endfacet
  facet normal -0.528825 -0.563175 -0.634963
    outer loop
      vertex -1.84853 -2.23449 0
      vertex -1.20425 -1.3335 -1.33571
      vertex -1.14736 -1.38692 -1.33571
    endloop
  endfacet
  facet normal -0.52884 -0.563162 -0.634962
    outer loop
      vertex -1.20425 -1.3335 -1.33571
      vertex -1.84853 -2.23449 0
      vertex -2.11401 -1.98519 0
    endloop
  endfacet
  facet normal -0.699023 0.328924 -0.634961
    outer loop
      vertex -1.57735 0.867156 -1.33571
      vertex -2.69635 1.06756 0
      vertex -2.54129 1.39709 0
    endloop
  endfacet
  facet normal -0.699012 0.328955 -0.634957
    outer loop
      vertex -2.69635 1.06756 0
      vertex -1.57735 0.867156 -1.33571
      vertex -1.61058 0.796544 -1.33571
    endloop
  endfacet
  facet normal -0.528854 0.563147 -0.634964
    outer loop
      vertex -1.31214 1.23218 -1.33571
      vertex -2.11401 1.98519 0
      vertex -1.20425 1.3335 -1.33571
    endloop
  endfacet
  facet normal -0.192136 0.748271 -0.63496
    outer loop
      vertex -0.55623 1.7119 -1.33571
      vertex -0.896149 2.75806 0
      vertex -0.412874 1.74871 -1.33571
    endloop
  endfacet
  facet normal 0.096837 0.766452 -0.634959
    outer loop
      vertex 0.190446 1.78667 -1.33571
      vertex 0.182092 2.89428 0
      vertex 0.543406 2.84863 0
    endloop
  endfacet
  facet normal 0.0968177 0.766454 -0.634961
    outer loop
      vertex 0.113023 1.79645 -1.33571
      vertex 0.182092 2.89428 0
      vertex 0.190446 1.78667 -1.33571
    endloop
  endfacet
  facet normal -1.98784e-11 0.772545 -0.63496
    outer loop
      vertex 0.182092 2.89428 0
      vertex 0.113023 1.79645 -1.33571
      vertex 0.113022 1.79645 -1.33571
    endloop
  endfacet
  facet normal 0.699017 -0.328943 -0.634958
    outer loop
      vertex 2.69635 -1.06756 0
      vertex 1.61058 -0.796544 -1.33571
      vertex 1.6736 -0.662624 -1.33571
    endloop
  endfacet
  facet normal 0.284373 -0.718302 -0.63496
    outer loop
      vertex 1.23476 -2.624 0
      vertex 0.62879 -1.68317 -1.33571
      vertex 0.766402 -1.62869 -1.33571
    endloop
  endfacet
  facet normal 0.528854 -0.563147 -0.634964
    outer loop
      vertex 2.11401 -1.98519 0
      vertex 1.20425 -1.3335 -1.33571
      vertex 1.31214 -1.23218 -1.33571
    endloop
  endfacet
  facet normal -0.734723 -0.238767 -0.634958
    outer loop
      vertex -1.71933 -0.521862 -1.33571
      vertex -2.80889 -0.7212 0
      vertex -1.74345 -0.447641 -1.33571
    endloop
  endfacet
  facet normal -0.734733 -0.238731 -0.634961
    outer loop
      vertex -2.80889 -0.7212 0
      vertex -1.71933 -0.521862 -1.33571
      vertex -2.69635 -1.06756 0
    endloop
  endfacet
  facet normal -0.758864 -0.14473 -0.634963
    outer loop
      vertex -1.74345 -0.447641 -1.33571
      vertex -2.87713 -0.363466 0
      vertex -1.75807 -0.370984 -1.33571
    endloop
  endfacet
  facet normal -0.758862 -0.144758 -0.63496
    outer loop
      vertex -2.87713 -0.363466 0
      vertex -1.74345 -0.447641 -1.33571
      vertex -2.80889 -0.7212 0
    endloop
  endfacet
  facet normal -0.372178 -0.676985 -0.63496
    outer loop
      vertex -0.964488 -1.51979 -1.33571
      vertex -1.23476 -2.624 0
      vertex -1.5539 -2.44855 0
    endloop
  endfacet
  facet normal -0.372208 -0.676973 -0.634956
    outer loop
      vertex -1.23476 -2.624 0
      vertex -0.964488 -1.51979 -1.33571
      vertex -0.896101 -1.55739 -1.33571
    endloop
  endfacet
  facet normal -0.284382 -0.718298 -0.634961
    outer loop
      vertex -0.62879 -1.68317 -1.33571
      vertex -0.896149 -2.75806 0
      vertex -1.23476 -2.624 0
    endloop
  endfacet
  facet normal -0.284409 -0.718289 -0.634959
    outer loop
      vertex -0.896149 -2.75806 0
      vertex -0.62879 -1.68317 -1.33571
      vertex -0.556231 -1.7119 -1.33571
    endloop
  endfacet
  facet normal -6.58202e-12 -0.78727 -0.616609
    outer loop
      vertex -0.896149 -2.75806 0
      vertex -0.556231 -1.7119 -1.33571
      vertex -0.55623 -1.7119 -1.33571
    endloop
  endfacet
  facet normal -0.595256 -0.492437 -0.634961
    outer loop
      vertex -2.34615 -1.70458 0
      vertex -1.40649 -1.11814 -1.33571
      vertex -2.11401 -1.98519 0
    endloop
  endfacet
  facet normal -0.595273 -0.492415 -0.634963
    outer loop
      vertex -1.40649 -1.11814 -1.33571
      vertex -2.34615 -1.70458 0
      vertex -1.45623 -1.05801 -1.33571
    endloop
  endfacet
  facet normal -0.652265 -0.413972 -0.634962
    outer loop
      vertex -1.45623 -1.05801 -1.33571
      vertex -2.34615 -1.70458 0
      vertex -1.53554 -0.933047 -1.33571
    endloop
  endfacet
  facet normal -0.65228 0.413952 -0.63496
    outer loop
      vertex -1.53554 0.933047 -1.33571
      vertex -2.54129 1.39709 0
      vertex -2.34615 1.70458 0
    endloop
  endfacet
  facet normal -0.652305 0.413909 -0.634963
    outer loop
      vertex -2.54129 1.39709 0
      vertex -1.53554 0.933047 -1.33571
      vertex -1.57735 0.867156 -1.33571
    endloop
  endfacet
  facet normal -0.771024 -0.0484258 -0.634963
    outer loop
      vertex -1.7951 -0.0778854 -1.33572
      vertex -2.9 0 0
      vertex -1.8 0 -1.33571
    endloop
  endfacet
  facet normal -0.771023 -0.0485143 -0.634957
    outer loop
      vertex -2.9 0 0
      vertex -1.7951 -0.0778854 -1.33572
      vertex -2.87713 -0.363466 0
    endloop
  endfacet
  facet normal -0.372166 0.676992 -0.634961
    outer loop
      vertex -1.23476 2.624 0
      vertex -0.766402 1.62869 -1.33571
      vertex -0.896101 1.55739 -1.33571
    endloop
  endfacet
  facet normal -0.595233 0.492461 -0.634964
    outer loop
      vertex -2.11401 1.98519 0
      vertex -1.31214 1.23218 -1.33571
      vertex -1.40649 1.11814 -1.33571
    endloop
  endfacet
  facet normal -0.454111 0.624984 -0.634963
    outer loop
      vertex -1.84853 2.23449 0
      vertex -1.08423 1.43279 -1.33571
      vertex -1.14736 1.38692 -1.33571
    endloop
  endfacet
  facet normal -0.454088 0.625002 -0.634961
    outer loop
      vertex -1.08423 1.43279 -1.33571
      vertex -1.84853 2.23449 0
      vertex -1.5539 2.44855 0
    endloop
  endfacet
  facet normal 0.699023 0.328924 -0.634961
    outer loop
      vertex 2.69635 1.06756 0
      vertex 1.57735 0.867156 -1.33571
      vertex 2.54129 1.39709 0
    endloop
  endfacet
  facet normal 0.699012 0.328955 -0.634957
    outer loop
      vertex 1.57735 0.867156 -1.33571
      vertex 2.69635 1.06756 0
      vertex 1.61058 0.796544 -1.33571
    endloop
  endfacet
  facet normal 0.52884 0.563162 -0.634962
    outer loop
      vertex 1.20425 1.3335 -1.33571
      vertex 1.84853 2.23449 0
      vertex 2.11401 1.98519 0
    endloop
  endfacet
  facet normal 0.528825 0.563175 -0.634963
    outer loop
      vertex 1.84853 2.23449 0
      vertex 1.20425 1.3335 -1.33571
      vertex 1.14736 1.38692 -1.33571
    endloop
  endfacet
  facet normal 0.284373 0.718302 -0.63496
    outer loop
      vertex 0.766402 1.62869 -1.33571
      vertex 0.62879 1.68317 -1.33571
      vertex 1.23476 2.624 0
    endloop
  endfacet
  facet normal 0.372178 0.676985 -0.63496
    outer loop
      vertex 0.964488 1.51979 -1.33571
      vertex 1.23476 2.624 0
      vertex 1.5539 2.44855 0
    endloop
  endfacet
  facet normal 0.372208 0.676973 -0.634956
    outer loop
      vertex 1.23476 2.624 0
      vertex 0.964488 1.51979 -1.33571
      vertex 0.896101 1.55739 -1.33571
    endloop
  endfacet
  facet normal -0.699017 -0.328943 -0.634958
    outer loop
      vertex -1.61058 -0.796544 -1.33571
      vertex -2.69635 -1.06756 0
      vertex -1.6736 -0.662624 -1.33571
    endloop
  endfacet
  facet normal -0.734745 -0.238702 -0.634958
    outer loop
      vertex -1.6736 -0.662623 -1.33571
      vertex -2.69635 -1.06756 0
      vertex -1.71933 -0.521862 -1.33571
    endloop
  endfacet
  facet normal -0.793978 2.99037e-11 -0.607947
    outer loop
      vertex -2.69635 -1.06756 0
      vertex -1.6736 -0.662623 -1.33571
      vertex -1.6736 -0.662624 -1.33571
    endloop
  endfacet
  facet normal -0.372166 -0.676992 -0.634961
    outer loop
      vertex -0.766402 -1.62869 -1.33571
      vertex -1.23476 -2.624 0
      vertex -0.896101 -1.55739 -1.33571
    endloop
  endfacet
  facet normal -0.096837 -0.766452 -0.634959
    outer loop
      vertex -0.190446 -1.78667 -1.33571
      vertex -0.182092 -2.89428 0
      vertex -0.543406 -2.84863 0
    endloop
  endfacet
  facet normal -0.0968177 -0.766454 -0.634961
    outer loop
      vertex -0.113023 -1.79645 -1.33571
      vertex -0.182092 -2.89428 0
      vertex -0.190446 -1.78667 -1.33571
    endloop
  endfacet
  facet normal 1.98784e-11 -0.772545 -0.63496
    outer loop
      vertex -0.182092 -2.89428 0
      vertex -0.113023 -1.79645 -1.33571
      vertex -0.113022 -1.79645 -1.33571
    endloop
  endfacet
  facet normal 5.45833e-17 -0.772545 -0.63496
    outer loop
      vertex -0.113022 -1.79645 -1.33571
      vertex 0.182092 -2.89428 0
      vertex -0.182092 -2.89428 0
    endloop
  endfacet
  facet normal 8.79403e-17 -0.772545 -0.63496
    outer loop
      vertex 0.182092 -2.89428 0
      vertex -0.113022 -1.79645 -1.33571
      vertex 0.113022 -1.79645 -1.33571
    endloop
  endfacet
  facet normal -0.595233 -0.492461 -0.634964
    outer loop
      vertex -1.31214 -1.23218 -1.33571
      vertex -2.11401 -1.98519 0
      vertex -1.40649 -1.11814 -1.33571
    endloop
  endfacet
  facet normal -0.734733 0.238731 -0.634961
    outer loop
      vertex -1.71933 0.521862 -1.33571
      vertex -2.80889 0.7212 0
      vertex -2.69635 1.06756 0
    endloop
  endfacet
  facet normal -0.734723 0.238767 -0.634958
    outer loop
      vertex -2.80889 0.7212 0
      vertex -1.71933 0.521862 -1.33571
      vertex -1.74345 0.447641 -1.33571
    endloop
  endfacet
  facet normal -0.699017 0.328943 -0.634958
    outer loop
      vertex -1.6736 0.662624 -1.33571
      vertex -2.69635 1.06756 0
      vertex -1.61058 0.796544 -1.33571
    endloop
  endfacet
  facet normal -0.284373 0.718302 -0.63496
    outer loop
      vertex -0.766402 1.62869 -1.33571
      vertex -1.23476 2.624 0
      vertex -0.62879 1.68317 -1.33571
    endloop
  endfacet
  facet normal -0.454099 0.624996 -0.63496
    outer loop
      vertex -1.5539 2.44855 0
      vertex -0.964488 1.51979 -1.33571
      vertex -1.08423 1.43279 -1.33571
    endloop
  endfacet
  facet normal -0.372178 0.676985 -0.63496
    outer loop
      vertex -1.23476 2.624 0
      vertex -0.964488 1.51979 -1.33571
      vertex -1.5539 2.44855 0
    endloop
  endfacet
  facet normal -0.372208 0.676973 -0.634956
    outer loop
      vertex -0.964488 1.51979 -1.33571
      vertex -1.23476 2.624 0
      vertex -0.896101 1.55739 -1.33571
    endloop
  endfacet
  facet normal -0.652265 0.413972 -0.634962
    outer loop
      vertex -2.34615 1.70458 0
      vertex -1.45623 1.05801 -1.33571
      vertex -1.53554 0.933047 -1.33571
    endloop
  endfacet
  facet normal -0.595273 0.492415 -0.634963
    outer loop
      vertex -2.34615 1.70458 0
      vertex -1.40649 1.11814 -1.33571
      vertex -1.45623 1.05801 -1.33571
    endloop
  endfacet
  facet normal -0.595256 0.492437 -0.634961
    outer loop
      vertex -1.40649 1.11814 -1.33571
      vertex -2.34615 1.70458 0
      vertex -2.11401 1.98519 0
    endloop
  endfacet
  facet normal -0.528825 0.563175 -0.634963
    outer loop
      vertex -1.20425 1.3335 -1.33571
      vertex -1.84853 2.23449 0
      vertex -1.14736 1.38692 -1.33571
    endloop
  endfacet
  facet normal -0.52884 0.563162 -0.634962
    outer loop
      vertex -1.84853 2.23449 0
      vertex -1.20425 1.3335 -1.33571
      vertex -2.11401 1.98519 0
    endloop
  endfacet
  facet normal 0.699017 0.328943 -0.634958
    outer loop
      vertex 1.6736 0.662624 -1.33571
      vertex 1.61058 0.796544 -1.33571
      vertex 2.69635 1.06756 0
    endloop
  endfacet
  facet normal 0.528854 0.563147 -0.634964
    outer loop
      vertex 1.31214 1.23218 -1.33571
      vertex 1.20425 1.3335 -1.33571
      vertex 2.11401 1.98519 0
    endloop
  endfacet
  facet normal 0.595233 0.492461 -0.634964
    outer loop
      vertex 1.31214 1.23218 -1.33571
      vertex 2.11401 1.98519 0
      vertex 1.40649 1.11814 -1.33571
    endloop
  endfacet
  facet normal 0.454111 0.624984 -0.634963
    outer loop
      vertex 1.08423 1.43279 -1.33571
      vertex 1.84853 2.23449 0
      vertex 1.14736 1.38692 -1.33571
    endloop
  endfacet
  facet normal 0.454088 0.625002 -0.634961
    outer loop
      vertex 1.84853 2.23449 0
      vertex 1.08423 1.43279 -1.33571
      vertex 1.5539 2.44855 0
    endloop
  endfacet
  facet normal 0.284382 0.718298 -0.634961
    outer loop
      vertex 0.62879 1.68317 -1.33571
      vertex 0.896149 2.75806 0
      vertex 1.23476 2.624 0
    endloop
  endfacet
  facet normal 0.284409 0.718289 -0.634959
    outer loop
      vertex 0.896149 2.75806 0
      vertex 0.62879 1.68317 -1.33571
      vertex 0.556231 1.7119 -1.33571
    endloop
  endfacet
  facet normal 6.58202e-12 0.78727 -0.616609
    outer loop
      vertex 0.896149 2.75806 0
      vertex 0.556231 1.7119 -1.33571
      vertex 0.55623 1.7119 -1.33571
    endloop
  endfacet
  facet normal 0.454099 0.624996 -0.63496
    outer loop
      vertex 0.964488 1.51979 -1.33571
      vertex 1.5539 2.44855 0
      vertex 1.08423 1.43279 -1.33571
    endloop
  endfacet
  facet normal -0.0968177 0.766454 -0.634961
    outer loop
      vertex -0.190446 1.78667 -1.33571
      vertex -0.182092 2.89428 0
      vertex -0.113023 1.79645 -1.33571
    endloop
  endfacet
  facet normal 0 0.772545 -0.63496
    outer loop
      vertex -0.113023 1.79645 -1.33571
      vertex -0.182092 2.89428 0
      vertex -0.113022 1.79645 -1.33571
    endloop
  endfacet
  facet normal -0.096837 0.766452 -0.634959
    outer loop
      vertex -0.182092 2.89428 0
      vertex -0.190446 1.78667 -1.33571
      vertex -0.543406 2.84863 0
    endloop
  endfacet
  facet normal -5.45833e-17 0.772545 -0.63496
    outer loop
      vertex 0.113022 1.79645 -1.33571
      vertex -0.182092 2.89428 0
      vertex 0.182092 2.89428 0
    endloop
  endfacet
  facet normal -8.79403e-17 0.772545 -0.63496
    outer loop
      vertex -0.182092 2.89428 0
      vertex 0.113022 1.79645 -1.33571
      vertex -0.113022 1.79645 -1.33571
    endloop
  endfacet
  facet normal 0.192126 0.748275 -0.634959
    outer loop
      vertex 0.412874 1.74871 -1.33571
      vertex 0.543406 2.84863 0
      vertex 0.896149 2.75806 0
    endloop
  endfacet
  facet normal 0.192146 0.748271 -0.634957
    outer loop
      vertex 0.543406 2.84863 0
      vertex 0.412874 1.74871 -1.33571
      vertex 0.337286 1.76812 -1.33571
    endloop
  endfacet
  facet normal 0.192136 0.748271 -0.63496
    outer loop
      vertex 0.55623 1.7119 -1.33571
      vertex 0.412874 1.74871 -1.33571
      vertex 0.896149 2.75806 0
    endloop
  endfacet
  facet normal -0.284373 -0.718302 -0.63496
    outer loop
      vertex -0.62879 -1.68317 -1.33571
      vertex -1.23476 -2.624 0
      vertex -0.766402 -1.62869 -1.33571
    endloop
  endfacet
  facet normal -0.0968247 -0.766455 -0.634958
    outer loop
      vertex -0.543406 -2.84863 0
      vertex -0.337286 -1.76812 -1.33571
      vertex -0.190446 -1.78667 -1.33571
    endloop
  endfacet
  facet normal -0.758857 0.144794 -0.634957
    outer loop
      vertex -1.78581 0.2256 -1.33571
      vertex -2.87713 0.363466 0
      vertex -1.75807 0.370984 -1.33571
    endloop
  endfacet
  facet normal -0.758864 0.14473 -0.634963
    outer loop
      vertex -2.87713 0.363466 0
      vertex -1.74345 0.447641 -1.33571
      vertex -1.75807 0.370984 -1.33571
    endloop
  endfacet
  facet normal -0.758862 0.144758 -0.63496
    outer loop
      vertex -1.74345 0.447641 -1.33571
      vertex -2.87713 0.363466 0
      vertex -2.80889 0.7212 0
    endloop
  endfacet
  facet normal -0.771024 0.0484258 -0.634963
    outer loop
      vertex -2.9 0 0
      vertex -1.7951 0.0778854 -1.33572
      vertex -1.8 0 -1.33571
    endloop
  endfacet
  facet normal -0.771023 0.0485143 -0.634957
    outer loop
      vertex -1.7951 0.0778854 -1.33572
      vertex -2.9 0 0
      vertex -2.87713 0.363466 0
    endloop
  endfacet
  facet normal -0.774393 0 -0.632705
    outer loop
      vertex -1.78581 0.225599 -1.33571
      vertex -2.87713 0.363466 0
      vertex -1.78581 0.2256 -1.33571
    endloop
  endfacet
  facet normal -0.77102 0.048534 -0.634959
    outer loop
      vertex -2.87713 0.363466 0
      vertex -1.78581 0.225599 -1.33571
      vertex -1.7951 0.0778854 -1.33572
    endloop
  endfacet
  facet normal 0.758862 0.144758 -0.63496
    outer loop
      vertex 2.87713 0.363466 0
      vertex 1.74345 0.447641 -1.33571
      vertex 2.80889 0.7212 0
    endloop
  endfacet
  facet normal 0.758864 0.14473 -0.634963
    outer loop
      vertex 1.74345 0.447641 -1.33571
      vertex 2.87713 0.363466 0
      vertex 1.75807 0.370984 -1.33571
    endloop
  endfacet
  facet normal 0.758857 0.144794 -0.634957
    outer loop
      vertex 1.78581 0.2256 -1.33571
      vertex 1.75807 0.370984 -1.33571
      vertex 2.87713 0.363466 0
    endloop
  endfacet
  facet normal 0.595273 0.492415 -0.634963
    outer loop
      vertex 1.40649 1.11814 -1.33571
      vertex 2.34615 1.70458 0
      vertex 1.45623 1.05801 -1.33571
    endloop
  endfacet
  facet normal 0.595256 0.492437 -0.634961
    outer loop
      vertex 2.34615 1.70458 0
      vertex 1.40649 1.11814 -1.33571
      vertex 2.11401 1.98519 0
    endloop
  endfacet
  facet normal 0.652265 0.413972 -0.634962
    outer loop
      vertex 1.45623 1.05801 -1.33571
      vertex 2.34615 1.70458 0
      vertex 1.53554 0.933047 -1.33571
    endloop
  endfacet
  facet normal 0.372166 0.676992 -0.634961
    outer loop
      vertex 0.766402 1.62869 -1.33571
      vertex 1.23476 2.624 0
      vertex 0.896101 1.55739 -1.33571
    endloop
  endfacet
  facet normal -0.0968247 0.766455 -0.634958
    outer loop
      vertex -0.337286 1.76812 -1.33571
      vertex -0.543406 2.84863 0
      vertex -0.190446 1.78667 -1.33571
    endloop
  endfacet
  facet normal -0.793978 0 -0.607947
    outer loop
      vertex -1.6736 0.662623 -1.33571
      vertex -2.69635 1.06756 0
      vertex -1.6736 0.662624 -1.33571
    endloop
  endfacet
  facet normal -0.734745 0.238702 -0.634958
    outer loop
      vertex -2.69635 1.06756 0
      vertex -1.6736 0.662623 -1.33571
      vertex -1.71933 0.521862 -1.33571
    endloop
  endfacet
  facet normal -0.77102 -0.048534 -0.634959
    outer loop
      vertex -1.78581 -0.225599 -1.33571
      vertex -2.87713 -0.363466 0
      vertex -1.7951 -0.0778854 -1.33572
    endloop
  endfacet
  facet normal -0.774393 -1.89202e-11 -0.632705
    outer loop
      vertex -2.87713 -0.363466 0
      vertex -1.78581 -0.225599 -1.33571
      vertex -1.78581 -0.2256 -1.33571
    endloop
  endfacet
  facet normal 0.793978 -2.99037e-11 -0.607947
    outer loop
      vertex 2.69635 1.06756 0
      vertex 1.6736 0.662623 -1.33571
      vertex 1.6736 0.662624 -1.33571
    endloop
  endfacet
  facet normal 0.734745 0.238702 -0.634958
    outer loop
      vertex 1.6736 0.662623 -1.33571
      vertex 2.69635 1.06756 0
      vertex 1.71933 0.521862 -1.33571
    endloop
  endfacet
  facet normal 0.734733 0.238731 -0.634961
    outer loop
      vertex 2.80889 0.7212 0
      vertex 1.71933 0.521862 -1.33571
      vertex 2.69635 1.06756 0
    endloop
  endfacet
  facet normal 0.734723 0.238767 -0.634958
    outer loop
      vertex 1.71933 0.521862 -1.33571
      vertex 2.80889 0.7212 0
      vertex 1.74345 0.447641 -1.33571
    endloop
  endfacet
endsolid OpenSCAD_Model
