solid OpenSCAD_Model
  facet normal 0.998026 0.0628001 -5.41677e-19
    outer loop
      vertex 18.5 0 7
      vertex 18.3541 2.31866 0
      vertex 18.3541 2.31866 7
    endloop
  endfacet
  facet normal 0.998026 0.0628001 -5.41677e-19
    outer loop
      vertex 18.3541 2.31866 0
      vertex 18.5 0 7
      vertex 18.5 0 0
    endloop
  endfacet
  facet normal -0.998026 0.0628001 5.41677e-19
    outer loop
      vertex -18.5 0 0
      vertex -18.3541 2.31866 7
      vertex -18.3541 2.31866 0
    endloop
  endfacet
  facet normal -0.998026 0.0628001 5.41677e-19
    outer loop
      vertex -18.3541 2.31866 7
      vertex -18.5 0 0
      vertex -18.5 0 7
    endloop
  endfacet
  facet normal 0 1 -0
    outer loop
      vertex 1.16162 18.4635 0
      vertex -1.16162 18.4635 7
      vertex 1.16162 18.4635 7
    endloop
  endfacet
  facet normal 0 1 0
    outer loop
      vertex -1.16162 18.4635 7
      vertex 1.16162 18.4635 0
      vertex -1.16162 18.4635 0
    endloop
  endfacet
  facet normal 0 -1 0
    outer loop
      vertex -1.16162 -18.4635 0
      vertex 1.16162 -18.4635 7
      vertex -1.16162 -18.4635 7
    endloop
  endfacet
  facet normal 0 -1 -0
    outer loop
      vertex 1.16162 -18.4635 7
      vertex -1.16162 -18.4635 0
      vertex 1.16162 -18.4635 0
    endloop
  endfacet
  facet normal 0.684548 0.728968 -0
    outer loop
      vertex 13.4859 12.6641 0
      vertex 11.7923 14.2545 7
      vertex 13.4859 12.6641 7
    endloop
  endfacet
  facet normal 0.684548 0.728968 0
    outer loop
      vertex 11.7923 14.2545 7
      vertex 13.4859 12.6641 0
      vertex 11.7923 14.2545 0
    endloop
  endfacet
  facet normal -0.684548 0.728968 0
    outer loop
      vertex -11.7923 14.2545 0
      vertex -13.4859 12.6641 7
      vertex -11.7923 14.2545 7
    endloop
  endfacet
  facet normal -0.684548 0.728968 0
    outer loop
      vertex -13.4859 12.6641 7
      vertex -11.7923 14.2545 0
      vertex -13.4859 12.6641 0
    endloop
  endfacet
  facet normal -0.368107 0.929784 0
    outer loop
      vertex -5.71681 17.5945 0
      vertex -7.87692 16.7393 7
      vertex -5.71681 17.5945 7
    endloop
  endfacet
  facet normal -0.368107 0.929784 0
    outer loop
      vertex -7.87692 16.7393 7
      vertex -5.71681 17.5945 0
      vertex -7.87692 16.7393 0
    endloop
  endfacet
  facet normal 0.904826 0.425782 2.72004e-18
    outer loop
      vertex 17.2009 6.8103 7
      vertex 16.2117 8.91244 0
      vertex 16.2117 8.91244 7
    endloop
  endfacet
  facet normal 0.904826 0.425782 2.72004e-18
    outer loop
      vertex 16.2117 8.91244 0
      vertex 17.2009 6.8103 7
      vertex 17.2009 6.8103 0
    endloop
  endfacet
  facet normal 0.844317 0.535844 -1.33336e-20
    outer loop
      vertex 16.2117 8.91244 7
      vertex 14.9668 10.874 0
      vertex 14.9668 10.874 7
    endloop
  endfacet
  facet normal 0.844317 0.535844 -1.33336e-20
    outer loop
      vertex 14.9668 10.874 0
      vertex 16.2117 8.91244 7
      vertex 16.2117 8.91244 0
    endloop
  endfacet
  facet normal 0.368107 0.929784 -0
    outer loop
      vertex 7.87692 16.7393 0
      vertex 5.71681 17.5945 7
      vertex 7.87692 16.7393 7
    endloop
  endfacet
  facet normal 0.368107 0.929784 0
    outer loop
      vertex 5.71681 17.5945 7
      vertex 7.87692 16.7393 0
      vertex 5.71681 17.5945 0
    endloop
  endfacet
  facet normal 0.481742 0.876313 -0
    outer loop
      vertex 9.9128 15.6201 0
      vertex 7.87692 16.7393 7
      vertex 9.9128 15.6201 7
    endloop
  endfacet
  facet normal 0.481742 0.876313 0
    outer loop
      vertex 7.87692 16.7393 7
      vertex 9.9128 15.6201 0
      vertex 7.87692 16.7393 0
    endloop
  endfacet
  facet normal -0.904826 0.425782 -2.72004e-18
    outer loop
      vertex -17.2009 6.8103 0
      vertex -16.2117 8.91244 7
      vertex -16.2117 8.91244 0
    endloop
  endfacet
  facet normal -0.904826 0.425782 -2.72004e-18
    outer loop
      vertex -16.2117 8.91244 7
      vertex -17.2009 6.8103 0
      vertex -17.2009 6.8103 7
    endloop
  endfacet
  facet normal -0.770513 0.637424 -6.21342e-18
    outer loop
      vertex -14.9668 10.874 0
      vertex -13.4859 12.6641 7
      vertex -13.4859 12.6641 0
    endloop
  endfacet
  facet normal -0.770513 0.637424 -6.21342e-18
    outer loop
      vertex -13.4859 12.6641 7
      vertex -14.9668 10.874 0
      vertex -14.9668 10.874 7
    endloop
  endfacet
  facet normal -0.951059 0.309008 -6.66014e-18
    outer loop
      vertex -17.9188 4.60076 0
      vertex -17.2009 6.8103 7
      vertex -17.2009 6.8103 0
    endloop
  endfacet
  facet normal -0.951059 0.309008 -6.66014e-18
    outer loop
      vertex -17.2009 6.8103 7
      vertex -17.9188 4.60076 0
      vertex -17.9188 4.60076 7
    endloop
  endfacet
  facet normal -0.248703 0.96858 0
    outer loop
      vertex -3.46655 18.1723 0
      vertex -5.71681 17.5945 7
      vertex -3.46655 18.1723 7
    endloop
  endfacet
  facet normal -0.248703 0.96858 0
    outer loop
      vertex -5.71681 17.5945 7
      vertex -3.46655 18.1723 0
      vertex -5.71681 17.5945 0
    endloop
  endfacet
  facet normal 0.951059 0.309008 6.66014e-18
    outer loop
      vertex 17.9188 4.60076 7
      vertex 17.2009 6.8103 0
      vertex 17.2009 6.8103 7
    endloop
  endfacet
  facet normal 0.951059 0.309008 6.66014e-18
    outer loop
      vertex 17.2009 6.8103 0
      vertex 17.9188 4.60076 7
      vertex 17.9188 4.60076 0
    endloop
  endfacet
  facet normal 0.98229 0.187367 2.48672e-18
    outer loop
      vertex 18.3541 2.31866 7
      vertex 17.9188 4.60076 0
      vertex 17.9188 4.60076 7
    endloop
  endfacet
  facet normal 0.98229 0.187367 2.48672e-18
    outer loop
      vertex 17.9188 4.60076 0
      vertex 18.3541 2.31866 7
      vertex 18.3541 2.31866 0
    endloop
  endfacet
  facet normal 0.770513 0.637424 6.21342e-18
    outer loop
      vertex 14.9668 10.874 7
      vertex 13.4859 12.6641 0
      vertex 13.4859 12.6641 7
    endloop
  endfacet
  facet normal 0.770513 0.637424 6.21342e-18
    outer loop
      vertex 13.4859 12.6641 0
      vertex 14.9668 10.874 7
      vertex 14.9668 10.874 0
    endloop
  endfacet
  facet normal 0.248703 0.96858 -0
    outer loop
      vertex 5.71681 17.5945 0
      vertex 3.46655 18.1723 7
      vertex 5.71681 17.5945 7
    endloop
  endfacet
  facet normal 0.248703 0.96858 0
    outer loop
      vertex 3.46655 18.1723 7
      vertex 5.71681 17.5945 0
      vertex 3.46655 18.1723 0
    endloop
  endfacet
  facet normal 0.125342 0.992114 -0
    outer loop
      vertex 3.46655 18.1723 0
      vertex 1.16162 18.4635 7
      vertex 3.46655 18.1723 7
    endloop
  endfacet
  facet normal 0.125342 0.992114 0
    outer loop
      vertex 1.16162 18.4635 7
      vertex 3.46655 18.1723 0
      vertex 1.16162 18.4635 0
    endloop
  endfacet
  facet normal 0.587803 0.809004 -0
    outer loop
      vertex 11.7923 14.2545 0
      vertex 9.9128 15.6201 7
      vertex 11.7923 14.2545 7
    endloop
  endfacet
  facet normal 0.587803 0.809004 0
    outer loop
      vertex 9.9128 15.6201 7
      vertex 11.7923 14.2545 0
      vertex 9.9128 15.6201 0
    endloop
  endfacet
  facet normal -0.844317 0.535844 1.33336e-20
    outer loop
      vertex -16.2117 8.91244 0
      vertex -14.9668 10.874 7
      vertex -14.9668 10.874 0
    endloop
  endfacet
  facet normal -0.844317 0.535844 1.33336e-20
    outer loop
      vertex -14.9668 10.874 7
      vertex -16.2117 8.91244 0
      vertex -16.2117 8.91244 7
    endloop
  endfacet
  facet normal -0.98229 0.187367 -2.48672e-18
    outer loop
      vertex -18.3541 2.31866 0
      vertex -17.9188 4.60076 7
      vertex -17.9188 4.60076 0
    endloop
  endfacet
  facet normal -0.98229 0.187367 -2.48672e-18
    outer loop
      vertex -17.9188 4.60076 7
      vertex -18.3541 2.31866 0
      vertex -18.3541 2.31866 7
    endloop
  endfacet
  facet normal 0 0 1
    outer loop
      vertex 12.5 0 7
      vertex 18.5 0 7
      vertex 18.3541 2.31866 7
    endloop
  endfacet
  facet normal 0 0 1
    outer loop
      vertex 12.4014 1.56666 7
      vertex 18.3541 2.31866 7
      vertex 17.9188 4.60076 7
    endloop
  endfacet
  facet normal 0 0 1
    outer loop
      vertex 18.5 0 7
      vertex 12.5 0 7
      vertex 18.3541 -2.31866 7
    endloop
  endfacet
  facet normal 0 0 1
    outer loop
      vertex 12.1073 3.10862 7
      vertex 17.9188 4.60076 7
      vertex 17.2009 6.8103 7
    endloop
  endfacet
  facet normal -0 0 1
    outer loop
      vertex 12.4014 -1.56666 7
      vertex 18.3541 -2.31866 7
      vertex 12.5 0 7
    endloop
  endfacet
  facet normal 0 0 1
    outer loop
      vertex 11.6222 4.60156 7
      vertex 17.2009 6.8103 7
      vertex 16.2117 8.91244 7
    endloop
  endfacet
  facet normal 0 0 1
    outer loop
      vertex 18.3541 -2.31866 7
      vertex 12.4014 -1.56666 7
      vertex 17.9188 -4.60076 7
    endloop
  endfacet
  facet normal 0 0 1
    outer loop
      vertex 10.9538 6.02192 7
      vertex 16.2117 8.91244 7
      vertex 14.9668 10.874 7
    endloop
  endfacet
  facet normal -0 0 1
    outer loop
      vertex 12.1073 -3.10862 7
      vertex 17.9188 -4.60076 7
      vertex 12.4014 -1.56666 7
    endloop
  endfacet
  facet normal 0 0 1
    outer loop
      vertex 10.1127 7.34731 7
      vertex 14.9668 10.874 7
      vertex 13.4859 12.6641 7
    endloop
  endfacet
  facet normal 0 0 1
    outer loop
      vertex 17.9188 -4.60076 7
      vertex 12.1073 -3.10862 7
      vertex 17.2009 -6.8103 7
    endloop
  endfacet
  facet normal -0 0 1
    outer loop
      vertex 11.6222 -4.60156 7
      vertex 17.2009 -6.8103 7
      vertex 12.1073 -3.10862 7
    endloop
  endfacet
  facet normal 0 0 1
    outer loop
      vertex 18.3541 2.31866 7
      vertex 12.4014 1.56666 7
      vertex 12.5 0 7
    endloop
  endfacet
  facet normal 0 0 1
    outer loop
      vertex 17.9188 4.60076 7
      vertex 12.1073 3.10862 7
      vertex 12.4014 1.56666 7
    endloop
  endfacet
  facet normal 0 0 1
    outer loop
      vertex 9.11211 8.55684 7
      vertex 13.4859 12.6641 7
      vertex 11.7923 14.2545 7
    endloop
  endfacet
  facet normal 0 0 1
    outer loop
      vertex 17.2009 6.8103 7
      vertex 11.6222 4.60156 7
      vertex 12.1073 3.10862 7
    endloop
  endfacet
  facet normal 0 0 1
    outer loop
      vertex 16.2117 8.91244 7
      vertex 10.9538 6.02192 7
      vertex 11.6222 4.60156 7
    endloop
  endfacet
  facet normal 0 0 1
    outer loop
      vertex 14.9668 10.874 7
      vertex 10.1127 7.34731 7
      vertex 10.9538 6.02192 7
    endloop
  endfacet
  facet normal 0 0 1
    outer loop
      vertex 7.9678 9.63142 7
      vertex 11.7923 14.2545 7
      vertex 9.9128 15.6201 7
    endloop
  endfacet
  facet normal 0 0 1
    outer loop
      vertex 13.4859 12.6641 7
      vertex 9.11211 8.55684 7
      vertex 10.1127 7.34731 7
    endloop
  endfacet
  facet normal 0 0 1
    outer loop
      vertex 11.7923 14.2545 7
      vertex 7.9678 9.63142 7
      vertex 9.11211 8.55684 7
    endloop
  endfacet
  facet normal 0 0 1
    outer loop
      vertex 6.69783 10.5541 7
      vertex 9.9128 15.6201 7
      vertex 7.87692 16.7393 7
    endloop
  endfacet
  facet normal 0 0 1
    outer loop
      vertex 9.9128 15.6201 7
      vertex 6.69783 10.5541 7
      vertex 7.9678 9.63142 7
    endloop
  endfacet
  facet normal 0 0 1
    outer loop
      vertex 5.32224 11.3103 7
      vertex 7.87692 16.7393 7
      vertex 5.71681 17.5945 7
    endloop
  endfacet
  facet normal 0 0 1
    outer loop
      vertex 7.87692 16.7393 7
      vertex 5.32224 11.3103 7
      vertex 6.69783 10.5541 7
    endloop
  endfacet
  facet normal 0 0 1
    outer loop
      vertex 5.71681 17.5945 7
      vertex 3.86271 11.8882 7
      vertex 5.32224 11.3103 7
    endloop
  endfacet
  facet normal 0 0 1
    outer loop
      vertex 3.46655 18.1723 7
      vertex 3.86271 11.8882 7
      vertex 5.71681 17.5945 7
    endloop
  endfacet
  facet normal 0 0 1
    outer loop
      vertex 3.46655 18.1723 7
      vertex 2.34227 12.2786 7
      vertex 3.86271 11.8882 7
    endloop
  endfacet
  facet normal 0 0 1
    outer loop
      vertex 1.16162 18.4635 7
      vertex 2.34227 12.2786 7
      vertex 3.46655 18.1723 7
    endloop
  endfacet
  facet normal 0 0 1
    outer loop
      vertex 1.16162 18.4635 7
      vertex 0.784881 12.4753 7
      vertex 2.34227 12.2786 7
    endloop
  endfacet
  facet normal 0 0 1
    outer loop
      vertex 1.16162 18.4635 7
      vertex -0.784881 12.4753 7
      vertex 0.784881 12.4753 7
    endloop
  endfacet
  facet normal -0 0 1
    outer loop
      vertex -1.16162 18.4635 7
      vertex -0.784881 12.4753 7
      vertex 1.16162 18.4635 7
    endloop
  endfacet
  facet normal 0 0 1
    outer loop
      vertex -1.16162 18.4635 7
      vertex -2.34227 12.2786 7
      vertex -0.784881 12.4753 7
    endloop
  endfacet
  facet normal -0 0 1
    outer loop
      vertex -3.46655 18.1723 7
      vertex -2.34227 12.2786 7
      vertex -1.16162 18.4635 7
    endloop
  endfacet
  facet normal 0 0 1
    outer loop
      vertex -3.46655 18.1723 7
      vertex -3.86271 11.8882 7
      vertex -2.34227 12.2786 7
    endloop
  endfacet
  facet normal -0 0 1
    outer loop
      vertex -5.71681 17.5945 7
      vertex -3.86271 11.8882 7
      vertex -3.46655 18.1723 7
    endloop
  endfacet
  facet normal 0 0 1
    outer loop
      vertex -3.86271 11.8882 7
      vertex -5.71681 17.5945 7
      vertex -5.32224 11.3103 7
    endloop
  endfacet
  facet normal -0 0 1
    outer loop
      vertex -7.87692 16.7393 7
      vertex -5.32224 11.3103 7
      vertex -5.71681 17.5945 7
    endloop
  endfacet
  facet normal 0 0 1
    outer loop
      vertex -5.32224 11.3103 7
      vertex -7.87692 16.7393 7
      vertex -6.69783 10.5541 7
    endloop
  endfacet
  facet normal -0 0 1
    outer loop
      vertex -9.9128 15.6201 7
      vertex -6.69783 10.5541 7
      vertex -7.87692 16.7393 7
    endloop
  endfacet
  facet normal 0 0 1
    outer loop
      vertex -6.69783 10.5541 7
      vertex -9.9128 15.6201 7
      vertex -7.9678 9.63142 7
    endloop
  endfacet
  facet normal -0 0 1
    outer loop
      vertex -11.7923 14.2545 7
      vertex -7.9678 9.63142 7
      vertex -9.9128 15.6201 7
    endloop
  endfacet
  facet normal 0 0 1
    outer loop
      vertex -7.9678 9.63142 7
      vertex -11.7923 14.2545 7
      vertex -9.11211 8.55684 7
    endloop
  endfacet
  facet normal -0 0 1
    outer loop
      vertex -13.4859 12.6641 7
      vertex -9.11211 8.55684 7
      vertex -11.7923 14.2545 7
    endloop
  endfacet
  facet normal 0 0 1
    outer loop
      vertex -9.11211 8.55684 7
      vertex -13.4859 12.6641 7
      vertex -10.1127 7.34731 7
    endloop
  endfacet
  facet normal -0 0 1
    outer loop
      vertex -14.9668 10.874 7
      vertex -10.1127 7.34731 7
      vertex -13.4859 12.6641 7
    endloop
  endfacet
  facet normal 0 0 1
    outer loop
      vertex -10.1127 7.34731 7
      vertex -14.9668 10.874 7
      vertex -10.9538 6.02192 7
    endloop
  endfacet
  facet normal -0 0 1
    outer loop
      vertex -16.2117 8.91244 7
      vertex -10.9538 6.02192 7
      vertex -14.9668 10.874 7
    endloop
  endfacet
  facet normal 0 0 1
    outer loop
      vertex -10.9538 6.02192 7
      vertex -16.2117 8.91244 7
      vertex -11.6222 4.60156 7
    endloop
  endfacet
  facet normal -0 0 1
    outer loop
      vertex -17.2009 6.8103 7
      vertex -11.6222 4.60156 7
      vertex -16.2117 8.91244 7
    endloop
  endfacet
  facet normal 0 0 1
    outer loop
      vertex 17.2009 -6.8103 7
      vertex 11.6222 -4.60156 7
      vertex 16.2117 -8.91244 7
    endloop
  endfacet
  facet normal -0 0 1
    outer loop
      vertex 10.9538 -6.02192 7
      vertex 16.2117 -8.91244 7
      vertex 11.6222 -4.60156 7
    endloop
  endfacet
  facet normal 0 0 1
    outer loop
      vertex 16.2117 -8.91244 7
      vertex 10.9538 -6.02192 7
      vertex 14.9668 -10.874 7
    endloop
  endfacet
  facet normal -0 0 1
    outer loop
      vertex 10.1127 -7.34731 7
      vertex 14.9668 -10.874 7
      vertex 10.9538 -6.02192 7
    endloop
  endfacet
  facet normal 0 0 1
    outer loop
      vertex 14.9668 -10.874 7
      vertex 10.1127 -7.34731 7
      vertex 13.4859 -12.6641 7
    endloop
  endfacet
  facet normal -0 0 1
    outer loop
      vertex 9.11211 -8.55684 7
      vertex 13.4859 -12.6641 7
      vertex 10.1127 -7.34731 7
    endloop
  endfacet
  facet normal 0 0 1
    outer loop
      vertex 13.4859 -12.6641 7
      vertex 9.11211 -8.55684 7
      vertex 11.7923 -14.2545 7
    endloop
  endfacet
  facet normal -0 0 1
    outer loop
      vertex 7.9678 -9.63142 7
      vertex 11.7923 -14.2545 7
      vertex 9.11211 -8.55684 7
    endloop
  endfacet
  facet normal 0 0 1
    outer loop
      vertex 11.7923 -14.2545 7
      vertex 7.9678 -9.63142 7
      vertex 9.9128 -15.6201 7
    endloop
  endfacet
  facet normal -0 0 1
    outer loop
      vertex 6.69783 -10.5541 7
      vertex 9.9128 -15.6201 7
      vertex 7.9678 -9.63142 7
    endloop
  endfacet
  facet normal 0 0 1
    outer loop
      vertex 9.9128 -15.6201 7
      vertex 6.69783 -10.5541 7
      vertex 7.87692 -16.7393 7
    endloop
  endfacet
  facet normal -0 0 1
    outer loop
      vertex 5.32224 -11.3103 7
      vertex 7.87692 -16.7393 7
      vertex 6.69783 -10.5541 7
    endloop
  endfacet
  facet normal 0 0 1
    outer loop
      vertex 7.87692 -16.7393 7
      vertex 5.32224 -11.3103 7
      vertex 5.71681 -17.5945 7
    endloop
  endfacet
  facet normal -0 0 1
    outer loop
      vertex 3.86271 -11.8882 7
      vertex 5.71681 -17.5945 7
      vertex 5.32224 -11.3103 7
    endloop
  endfacet
  facet normal 0 0 1
    outer loop
      vertex 3.86271 -11.8882 7
      vertex 3.46655 -18.1723 7
      vertex 5.71681 -17.5945 7
    endloop
  endfacet
  facet normal -0 0 1
    outer loop
      vertex 2.34227 -12.2786 7
      vertex 3.46655 -18.1723 7
      vertex 3.86271 -11.8882 7
    endloop
  endfacet
  facet normal 0 0 1
    outer loop
      vertex 2.34227 -12.2786 7
      vertex 1.16162 -18.4635 7
      vertex 3.46655 -18.1723 7
    endloop
  endfacet
  facet normal -0 0 1
    outer loop
      vertex 0.784881 -12.4753 7
      vertex 1.16162 -18.4635 7
      vertex 2.34227 -12.2786 7
    endloop
  endfacet
  facet normal -0 0 1
    outer loop
      vertex -0.784881 -12.4753 7
      vertex 1.16162 -18.4635 7
      vertex 0.784881 -12.4753 7
    endloop
  endfacet
  facet normal 0 0 1
    outer loop
      vertex -0.784881 -12.4753 7
      vertex -1.16162 -18.4635 7
      vertex 1.16162 -18.4635 7
    endloop
  endfacet
  facet normal 0 0 1
    outer loop
      vertex -2.34227 -12.2786 7
      vertex -1.16162 -18.4635 7
      vertex -0.784881 -12.4753 7
    endloop
  endfacet
  facet normal 0 0 1
    outer loop
      vertex -2.34227 -12.2786 7
      vertex -3.46655 -18.1723 7
      vertex -1.16162 -18.4635 7
    endloop
  endfacet
  facet normal 0 0 1
    outer loop
      vertex -3.86271 -11.8882 7
      vertex -3.46655 -18.1723 7
      vertex -2.34227 -12.2786 7
    endloop
  endfacet
  facet normal 0 0 1
    outer loop
      vertex -5.71681 -17.5945 7
      vertex -3.86271 -11.8882 7
      vertex -5.32224 -11.3103 7
    endloop
  endfacet
  facet normal 0 0 1
    outer loop
      vertex -3.86271 -11.8882 7
      vertex -5.71681 -17.5945 7
      vertex -3.46655 -18.1723 7
    endloop
  endfacet
  facet normal 0 0 1
    outer loop
      vertex -7.87692 -16.7393 7
      vertex -5.32224 -11.3103 7
      vertex -6.69783 -10.5541 7
    endloop
  endfacet
  facet normal 0 0 1
    outer loop
      vertex -5.32224 -11.3103 7
      vertex -7.87692 -16.7393 7
      vertex -5.71681 -17.5945 7
    endloop
  endfacet
  facet normal 0 0 1
    outer loop
      vertex -9.9128 -15.6201 7
      vertex -6.69783 -10.5541 7
      vertex -7.9678 -9.63142 7
    endloop
  endfacet
  facet normal 0 0 1
    outer loop
      vertex -11.7923 -14.2545 7
      vertex -7.9678 -9.63142 7
      vertex -9.11211 -8.55684 7
    endloop
  endfacet
  facet normal 0 0 1
    outer loop
      vertex -6.69783 -10.5541 7
      vertex -9.9128 -15.6201 7
      vertex -7.87692 -16.7393 7
    endloop
  endfacet
  facet normal 0 0 1
    outer loop
      vertex -13.4859 -12.6641 7
      vertex -9.11211 -8.55684 7
      vertex -10.1127 -7.34731 7
    endloop
  endfacet
  facet normal 0 0 1
    outer loop
      vertex -14.9668 -10.874 7
      vertex -10.1127 -7.34731 7
      vertex -10.9538 -6.02192 7
    endloop
  endfacet
  facet normal 0 0 1
    outer loop
      vertex -16.2117 -8.91244 7
      vertex -10.9538 -6.02192 7
      vertex -11.6222 -4.60156 7
    endloop
  endfacet
  facet normal 0 0 1
    outer loop
      vertex -7.9678 -9.63142 7
      vertex -11.7923 -14.2545 7
      vertex -9.9128 -15.6201 7
    endloop
  endfacet
  facet normal 0 0 1
    outer loop
      vertex -17.2009 -6.8103 7
      vertex -11.6222 -4.60156 7
      vertex -12.1073 -3.10862 7
    endloop
  endfacet
  facet normal 0 0 1
    outer loop
      vertex -17.9188 -4.60076 7
      vertex -12.1073 -3.10862 7
      vertex -12.4014 -1.56666 7
    endloop
  endfacet
  facet normal 0 0 1
    outer loop
      vertex -18.3541 -2.31866 7
      vertex -12.4014 -1.56666 7
      vertex -12.5 0 7
    endloop
  endfacet
  facet normal 0 0 1
    outer loop
      vertex -11.6222 4.60156 7
      vertex -17.2009 6.8103 7
      vertex -12.1073 3.10862 7
    endloop
  endfacet
  facet normal 0 0 1
    outer loop
      vertex -9.11211 -8.55684 7
      vertex -13.4859 -12.6641 7
      vertex -11.7923 -14.2545 7
    endloop
  endfacet
  facet normal -0 0 1
    outer loop
      vertex -17.9188 4.60076 7
      vertex -12.1073 3.10862 7
      vertex -17.2009 6.8103 7
    endloop
  endfacet
  facet normal 0 0 1
    outer loop
      vertex -10.1127 -7.34731 7
      vertex -14.9668 -10.874 7
      vertex -13.4859 -12.6641 7
    endloop
  endfacet
  facet normal 0 0 1
    outer loop
      vertex -12.1073 3.10862 7
      vertex -17.9188 4.60076 7
      vertex -12.4014 1.56666 7
    endloop
  endfacet
  facet normal 0 0 1
    outer loop
      vertex -10.9538 -6.02192 7
      vertex -16.2117 -8.91244 7
      vertex -14.9668 -10.874 7
    endloop
  endfacet
  facet normal -0 0 1
    outer loop
      vertex -18.3541 2.31866 7
      vertex -12.4014 1.56666 7
      vertex -17.9188 4.60076 7
    endloop
  endfacet
  facet normal 0 0 1
    outer loop
      vertex -11.6222 -4.60156 7
      vertex -17.2009 -6.8103 7
      vertex -16.2117 -8.91244 7
    endloop
  endfacet
  facet normal 0 0 1
    outer loop
      vertex -12.4014 1.56666 7
      vertex -18.3541 2.31866 7
      vertex -12.5 0 7
    endloop
  endfacet
  facet normal 0 0 1
    outer loop
      vertex -12.1073 -3.10862 7
      vertex -17.9188 -4.60076 7
      vertex -17.2009 -6.8103 7
    endloop
  endfacet
  facet normal 0 0 1
    outer loop
      vertex -18.5 0 7
      vertex -12.5 0 7
      vertex -18.3541 2.31866 7
    endloop
  endfacet
  facet normal 0 0 1
    outer loop
      vertex -12.4014 -1.56666 7
      vertex -18.3541 -2.31866 7
      vertex -17.9188 -4.60076 7
    endloop
  endfacet
  facet normal 0 0 1
    outer loop
      vertex -12.5 0 7
      vertex -18.5 0 7
      vertex -18.3541 -2.31866 7
    endloop
  endfacet
  facet normal -0.481742 0.876313 0
    outer loop
      vertex -7.87692 16.7393 0
      vertex -9.9128 15.6201 7
      vertex -7.87692 16.7393 7
    endloop
  endfacet
  facet normal -0.481742 0.876313 0
    outer loop
      vertex -9.9128 15.6201 7
      vertex -7.87692 16.7393 0
      vertex -9.9128 15.6201 0
    endloop
  endfacet
  facet normal -0.587803 0.809004 0
    outer loop
      vertex -9.9128 15.6201 0
      vertex -11.7923 14.2545 7
      vertex -9.9128 15.6201 7
    endloop
  endfacet
  facet normal -0.587803 0.809004 0
    outer loop
      vertex -11.7923 14.2545 7
      vertex -9.9128 15.6201 0
      vertex -11.7923 14.2545 0
    endloop
  endfacet
  facet normal -0.125342 0.992114 0
    outer loop
      vertex -1.16162 18.4635 0
      vertex -3.46655 18.1723 7
      vertex -1.16162 18.4635 7
    endloop
  endfacet
  facet normal -0.125342 0.992114 0
    outer loop
      vertex -3.46655 18.1723 7
      vertex -1.16162 18.4635 0
      vertex -3.46655 18.1723 0
    endloop
  endfacet
  facet normal 0.998026 -0.0628001 5.41677e-19
    outer loop
      vertex 18.3541 -2.31866 7
      vertex 18.5 0 0
      vertex 18.5 0 7
    endloop
  endfacet
  facet normal 0.998026 -0.0628001 5.41677e-19
    outer loop
      vertex 18.5 0 0
      vertex 18.3541 -2.31866 7
      vertex 18.3541 -2.31866 0
    endloop
  endfacet
  facet normal 0.770513 -0.637424 -6.21342e-18
    outer loop
      vertex 13.4859 -12.6641 7
      vertex 14.9668 -10.874 0
      vertex 14.9668 -10.874 7
    endloop
  endfacet
  facet normal 0.770513 -0.637424 -6.21342e-18
    outer loop
      vertex 14.9668 -10.874 0
      vertex 13.4859 -12.6641 7
      vertex 13.4859 -12.6641 0
    endloop
  endfacet
  facet normal 0.951059 -0.309008 -6.66014e-18
    outer loop
      vertex 17.2009 -6.8103 7
      vertex 17.9188 -4.60076 0
      vertex 17.9188 -4.60076 7
    endloop
  endfacet
  facet normal 0.951059 -0.309008 -6.66014e-18
    outer loop
      vertex 17.9188 -4.60076 0
      vertex 17.2009 -6.8103 7
      vertex 17.2009 -6.8103 0
    endloop
  endfacet
  facet normal 0.98229 -0.187367 -2.48672e-18
    outer loop
      vertex 17.9188 -4.60076 7
      vertex 18.3541 -2.31866 0
      vertex 18.3541 -2.31866 7
    endloop
  endfacet
  facet normal 0.98229 -0.187367 -2.48672e-18
    outer loop
      vertex 18.3541 -2.31866 0
      vertex 17.9188 -4.60076 7
      vertex 17.9188 -4.60076 0
    endloop
  endfacet
  facet normal -0.904826 -0.425782 2.72004e-18
    outer loop
      vertex -16.2117 -8.91244 0
      vertex -17.2009 -6.8103 7
      vertex -17.2009 -6.8103 0
    endloop
  endfacet
  facet normal -0.904826 -0.425782 2.72004e-18
    outer loop
      vertex -17.2009 -6.8103 7
      vertex -16.2117 -8.91244 0
      vertex -16.2117 -8.91244 7
    endloop
  endfacet
  facet normal 0 0 -1
    outer loop
      vertex 12.5 0 0
      vertex 18.5 0 0
      vertex 18.3541 -2.31866 0
    endloop
  endfacet
  facet normal 0 0 -1
    outer loop
      vertex 12.4014 -1.56666 0
      vertex 18.3541 -2.31866 0
      vertex 17.9188 -4.60076 0
    endloop
  endfacet
  facet normal 0 0 -1
    outer loop
      vertex 18.5 0 0
      vertex 12.5 0 0
      vertex 18.3541 2.31866 0
    endloop
  endfacet
  facet normal 0 0 -1
    outer loop
      vertex 12.1073 -3.10862 0
      vertex 17.9188 -4.60076 0
      vertex 17.2009 -6.8103 0
    endloop
  endfacet
  facet normal 0 0 -1
    outer loop
      vertex 12.4014 1.56666 0
      vertex 18.3541 2.31866 0
      vertex 12.5 0 0
    endloop
  endfacet
  facet normal 0 0 -1
    outer loop
      vertex 11.6222 -4.60156 0
      vertex 17.2009 -6.8103 0
      vertex 16.2117 -8.91244 0
    endloop
  endfacet
  facet normal -0 0 -1
    outer loop
      vertex 18.3541 2.31866 0
      vertex 12.4014 1.56666 0
      vertex 17.9188 4.60076 0
    endloop
  endfacet
  facet normal 0 0 -1
    outer loop
      vertex 10.9538 -6.02192 0
      vertex 16.2117 -8.91244 0
      vertex 14.9668 -10.874 0
    endloop
  endfacet
  facet normal 0 0 -1
    outer loop
      vertex 12.1073 3.10862 0
      vertex 17.9188 4.60076 0
      vertex 12.4014 1.56666 0
    endloop
  endfacet
  facet normal 0 0 -1
    outer loop
      vertex 10.1127 -7.34731 0
      vertex 14.9668 -10.874 0
      vertex 13.4859 -12.6641 0
    endloop
  endfacet
  facet normal -0 0 -1
    outer loop
      vertex 17.9188 4.60076 0
      vertex 12.1073 3.10862 0
      vertex 17.2009 6.8103 0
    endloop
  endfacet
  facet normal 0 0 -1
    outer loop
      vertex 11.6222 4.60156 0
      vertex 17.2009 6.8103 0
      vertex 12.1073 3.10862 0
    endloop
  endfacet
  facet normal 0 0 -1
    outer loop
      vertex 18.3541 -2.31866 0
      vertex 12.4014 -1.56666 0
      vertex 12.5 0 0
    endloop
  endfacet
  facet normal 0 0 -1
    outer loop
      vertex 17.9188 -4.60076 0
      vertex 12.1073 -3.10862 0
      vertex 12.4014 -1.56666 0
    endloop
  endfacet
  facet normal 0 0 -1
    outer loop
      vertex 9.11211 -8.55684 0
      vertex 13.4859 -12.6641 0
      vertex 11.7923 -14.2545 0
    endloop
  endfacet
  facet normal 0 0 -1
    outer loop
      vertex 17.2009 -6.8103 0
      vertex 11.6222 -4.60156 0
      vertex 12.1073 -3.10862 0
    endloop
  endfacet
  facet normal 0 0 -1
    outer loop
      vertex 16.2117 -8.91244 0
      vertex 10.9538 -6.02192 0
      vertex 11.6222 -4.60156 0
    endloop
  endfacet
  facet normal 0 0 -1
    outer loop
      vertex 14.9668 -10.874 0
      vertex 10.1127 -7.34731 0
      vertex 10.9538 -6.02192 0
    endloop
  endfacet
  facet normal 0 0 -1
    outer loop
      vertex 7.9678 -9.63142 0
      vertex 11.7923 -14.2545 0
      vertex 9.9128 -15.6201 0
    endloop
  endfacet
  facet normal 0 0 -1
    outer loop
      vertex 13.4859 -12.6641 0
      vertex 9.11211 -8.55684 0
      vertex 10.1127 -7.34731 0
    endloop
  endfacet
  facet normal 0 0 -1
    outer loop
      vertex 11.7923 -14.2545 0
      vertex 7.9678 -9.63142 0
      vertex 9.11211 -8.55684 0
    endloop
  endfacet
  facet normal 0 0 -1
    outer loop
      vertex 6.69783 -10.5541 0
      vertex 9.9128 -15.6201 0
      vertex 7.87692 -16.7393 0
    endloop
  endfacet
  facet normal 0 0 -1
    outer loop
      vertex 9.9128 -15.6201 0
      vertex 6.69783 -10.5541 0
      vertex 7.9678 -9.63142 0
    endloop
  endfacet
  facet normal 0 0 -1
    outer loop
      vertex 5.32224 -11.3103 0
      vertex 7.87692 -16.7393 0
      vertex 5.71681 -17.5945 0
    endloop
  endfacet
  facet normal 0 0 -1
    outer loop
      vertex 7.87692 -16.7393 0
      vertex 5.32224 -11.3103 0
      vertex 6.69783 -10.5541 0
    endloop
  endfacet
  facet normal 0 0 -1
    outer loop
      vertex 5.71681 -17.5945 0
      vertex 3.86271 -11.8882 0
      vertex 5.32224 -11.3103 0
    endloop
  endfacet
  facet normal 0 0 -1
    outer loop
      vertex 3.46655 -18.1723 0
      vertex 3.86271 -11.8882 0
      vertex 5.71681 -17.5945 0
    endloop
  endfacet
  facet normal 0 0 -1
    outer loop
      vertex 3.46655 -18.1723 0
      vertex 2.34227 -12.2786 0
      vertex 3.86271 -11.8882 0
    endloop
  endfacet
  facet normal 0 0 -1
    outer loop
      vertex 1.16162 -18.4635 0
      vertex 2.34227 -12.2786 0
      vertex 3.46655 -18.1723 0
    endloop
  endfacet
  facet normal 0 0 -1
    outer loop
      vertex 1.16162 -18.4635 0
      vertex 0.784881 -12.4753 0
      vertex 2.34227 -12.2786 0
    endloop
  endfacet
  facet normal 0 0 -1
    outer loop
      vertex 1.16162 -18.4635 0
      vertex -0.784881 -12.4753 0
      vertex 0.784881 -12.4753 0
    endloop
  endfacet
  facet normal 0 0 -1
    outer loop
      vertex -1.16162 -18.4635 0
      vertex -0.784881 -12.4753 0
      vertex 1.16162 -18.4635 0
    endloop
  endfacet
  facet normal 0 0 -1
    outer loop
      vertex -1.16162 -18.4635 0
      vertex -2.34227 -12.2786 0
      vertex -0.784881 -12.4753 0
    endloop
  endfacet
  facet normal 0 0 -1
    outer loop
      vertex -3.46655 -18.1723 0
      vertex -2.34227 -12.2786 0
      vertex -1.16162 -18.4635 0
    endloop
  endfacet
  facet normal 0 0 -1
    outer loop
      vertex -3.46655 -18.1723 0
      vertex -3.86271 -11.8882 0
      vertex -2.34227 -12.2786 0
    endloop
  endfacet
  facet normal 0 0 -1
    outer loop
      vertex -5.71681 -17.5945 0
      vertex -3.86271 -11.8882 0
      vertex -3.46655 -18.1723 0
    endloop
  endfacet
  facet normal -0 0 -1
    outer loop
      vertex -3.86271 -11.8882 0
      vertex -5.71681 -17.5945 0
      vertex -5.32224 -11.3103 0
    endloop
  endfacet
  facet normal 0 0 -1
    outer loop
      vertex -7.87692 -16.7393 0
      vertex -5.32224 -11.3103 0
      vertex -5.71681 -17.5945 0
    endloop
  endfacet
  facet normal -0 0 -1
    outer loop
      vertex -5.32224 -11.3103 0
      vertex -7.87692 -16.7393 0
      vertex -6.69783 -10.5541 0
    endloop
  endfacet
  facet normal 0 0 -1
    outer loop
      vertex -9.9128 -15.6201 0
      vertex -6.69783 -10.5541 0
      vertex -7.87692 -16.7393 0
    endloop
  endfacet
  facet normal -0 0 -1
    outer loop
      vertex -6.69783 -10.5541 0
      vertex -9.9128 -15.6201 0
      vertex -7.9678 -9.63142 0
    endloop
  endfacet
  facet normal 0 0 -1
    outer loop
      vertex -11.7923 -14.2545 0
      vertex -7.9678 -9.63142 0
      vertex -9.9128 -15.6201 0
    endloop
  endfacet
  facet normal -0 0 -1
    outer loop
      vertex -7.9678 -9.63142 0
      vertex -11.7923 -14.2545 0
      vertex -9.11211 -8.55684 0
    endloop
  endfacet
  facet normal 0 0 -1
    outer loop
      vertex -13.4859 -12.6641 0
      vertex -9.11211 -8.55684 0
      vertex -11.7923 -14.2545 0
    endloop
  endfacet
  facet normal -0 0 -1
    outer loop
      vertex -9.11211 -8.55684 0
      vertex -13.4859 -12.6641 0
      vertex -10.1127 -7.34731 0
    endloop
  endfacet
  facet normal 0 0 -1
    outer loop
      vertex -14.9668 -10.874 0
      vertex -10.1127 -7.34731 0
      vertex -13.4859 -12.6641 0
    endloop
  endfacet
  facet normal -0 0 -1
    outer loop
      vertex -10.1127 -7.34731 0
      vertex -14.9668 -10.874 0
      vertex -10.9538 -6.02192 0
    endloop
  endfacet
  facet normal 0 0 -1
    outer loop
      vertex -16.2117 -8.91244 0
      vertex -10.9538 -6.02192 0
      vertex -14.9668 -10.874 0
    endloop
  endfacet
  facet normal -0 0 -1
    outer loop
      vertex -10.9538 -6.02192 0
      vertex -16.2117 -8.91244 0
      vertex -11.6222 -4.60156 0
    endloop
  endfacet
  facet normal 0 0 -1
    outer loop
      vertex -17.2009 -6.8103 0
      vertex -11.6222 -4.60156 0
      vertex -16.2117 -8.91244 0
    endloop
  endfacet
  facet normal -0 0 -1
    outer loop
      vertex 17.2009 6.8103 0
      vertex 11.6222 4.60156 0
      vertex 16.2117 8.91244 0
    endloop
  endfacet
  facet normal 0 0 -1
    outer loop
      vertex 10.9538 6.02192 0
      vertex 16.2117 8.91244 0
      vertex 11.6222 4.60156 0
    endloop
  endfacet
  facet normal -0 0 -1
    outer loop
      vertex 16.2117 8.91244 0
      vertex 10.9538 6.02192 0
      vertex 14.9668 10.874 0
    endloop
  endfacet
  facet normal 0 0 -1
    outer loop
      vertex 10.1127 7.34731 0
      vertex 14.9668 10.874 0
      vertex 10.9538 6.02192 0
    endloop
  endfacet
  facet normal -0 0 -1
    outer loop
      vertex 14.9668 10.874 0
      vertex 10.1127 7.34731 0
      vertex 13.4859 12.6641 0
    endloop
  endfacet
  facet normal 0 0 -1
    outer loop
      vertex 9.11211 8.55684 0
      vertex 13.4859 12.6641 0
      vertex 10.1127 7.34731 0
    endloop
  endfacet
  facet normal -0 0 -1
    outer loop
      vertex 13.4859 12.6641 0
      vertex 9.11211 8.55684 0
      vertex 11.7923 14.2545 0
    endloop
  endfacet
  facet normal 0 0 -1
    outer loop
      vertex 7.9678 9.63142 0
      vertex 11.7923 14.2545 0
      vertex 9.11211 8.55684 0
    endloop
  endfacet
  facet normal -0 0 -1
    outer loop
      vertex 11.7923 14.2545 0
      vertex 7.9678 9.63142 0
      vertex 9.9128 15.6201 0
    endloop
  endfacet
  facet normal 0 0 -1
    outer loop
      vertex 6.69783 10.5541 0
      vertex 9.9128 15.6201 0
      vertex 7.9678 9.63142 0
    endloop
  endfacet
  facet normal -0 0 -1
    outer loop
      vertex 9.9128 15.6201 0
      vertex 6.69783 10.5541 0
      vertex 7.87692 16.7393 0
    endloop
  endfacet
  facet normal 0 0 -1
    outer loop
      vertex 5.32224 11.3103 0
      vertex 7.87692 16.7393 0
      vertex 6.69783 10.5541 0
    endloop
  endfacet
  facet normal -0 0 -1
    outer loop
      vertex 7.87692 16.7393 0
      vertex 5.32224 11.3103 0
      vertex 5.71681 17.5945 0
    endloop
  endfacet
  facet normal 0 0 -1
    outer loop
      vertex 3.86271 11.8882 0
      vertex 5.71681 17.5945 0
      vertex 5.32224 11.3103 0
    endloop
  endfacet
  facet normal 0 0 -1
    outer loop
      vertex 3.86271 11.8882 0
      vertex 3.46655 18.1723 0
      vertex 5.71681 17.5945 0
    endloop
  endfacet
  facet normal 0 0 -1
    outer loop
      vertex 2.34227 12.2786 0
      vertex 3.46655 18.1723 0
      vertex 3.86271 11.8882 0
    endloop
  endfacet
  facet normal 0 0 -1
    outer loop
      vertex 2.34227 12.2786 0
      vertex 1.16162 18.4635 0
      vertex 3.46655 18.1723 0
    endloop
  endfacet
  facet normal 0 0 -1
    outer loop
      vertex 0.784881 12.4753 0
      vertex 1.16162 18.4635 0
      vertex 2.34227 12.2786 0
    endloop
  endfacet
  facet normal 0 0 -1
    outer loop
      vertex -0.784881 12.4753 0
      vertex 1.16162 18.4635 0
      vertex 0.784881 12.4753 0
    endloop
  endfacet
  facet normal 0 0 -1
    outer loop
      vertex -0.784881 12.4753 0
      vertex -1.16162 18.4635 0
      vertex 1.16162 18.4635 0
    endloop
  endfacet
  facet normal 0 0 -1
    outer loop
      vertex -2.34227 12.2786 0
      vertex -1.16162 18.4635 0
      vertex -0.784881 12.4753 0
    endloop
  endfacet
  facet normal 0 0 -1
    outer loop
      vertex -2.34227 12.2786 0
      vertex -3.46655 18.1723 0
      vertex -1.16162 18.4635 0
    endloop
  endfacet
  facet normal 0 0 -1
    outer loop
      vertex -3.86271 11.8882 0
      vertex -3.46655 18.1723 0
      vertex -2.34227 12.2786 0
    endloop
  endfacet
  facet normal 0 0 -1
    outer loop
      vertex -5.71681 17.5945 0
      vertex -3.86271 11.8882 0
      vertex -5.32224 11.3103 0
    endloop
  endfacet
  facet normal 0 0 -1
    outer loop
      vertex -3.86271 11.8882 0
      vertex -5.71681 17.5945 0
      vertex -3.46655 18.1723 0
    endloop
  endfacet
  facet normal 0 0 -1
    outer loop
      vertex -7.87692 16.7393 0
      vertex -5.32224 11.3103 0
      vertex -6.69783 10.5541 0
    endloop
  endfacet
  facet normal 0 0 -1
    outer loop
      vertex -5.32224 11.3103 0
      vertex -7.87692 16.7393 0
      vertex -5.71681 17.5945 0
    endloop
  endfacet
  facet normal 0 0 -1
    outer loop
      vertex -9.9128 15.6201 0
      vertex -6.69783 10.5541 0
      vertex -7.9678 9.63142 0
    endloop
  endfacet
  facet normal 0 0 -1
    outer loop
      vertex -11.7923 14.2545 0
      vertex -7.9678 9.63142 0
      vertex -9.11211 8.55684 0
    endloop
  endfacet
  facet normal 0 0 -1
    outer loop
      vertex -6.69783 10.5541 0
      vertex -9.9128 15.6201 0
      vertex -7.87692 16.7393 0
    endloop
  endfacet
  facet normal 0 0 -1
    outer loop
      vertex -13.4859 12.6641 0
      vertex -9.11211 8.55684 0
      vertex -10.1127 7.34731 0
    endloop
  endfacet
  facet normal 0 0 -1
    outer loop
      vertex -14.9668 10.874 0
      vertex -10.1127 7.34731 0
      vertex -10.9538 6.02192 0
    endloop
  endfacet
  facet normal 0 0 -1
    outer loop
      vertex -16.2117 8.91244 0
      vertex -10.9538 6.02192 0
      vertex -11.6222 4.60156 0
    endloop
  endfacet
  facet normal 0 0 -1
    outer loop
      vertex -7.9678 9.63142 0
      vertex -11.7923 14.2545 0
      vertex -9.9128 15.6201 0
    endloop
  endfacet
  facet normal 0 0 -1
    outer loop
      vertex -17.2009 6.8103 0
      vertex -11.6222 4.60156 0
      vertex -12.1073 3.10862 0
    endloop
  endfacet
  facet normal 0 0 -1
    outer loop
      vertex -17.9188 4.60076 0
      vertex -12.1073 3.10862 0
      vertex -12.4014 1.56666 0
    endloop
  endfacet
  facet normal 0 0 -1
    outer loop
      vertex -18.3541 2.31866 0
      vertex -12.4014 1.56666 0
      vertex -12.5 0 0
    endloop
  endfacet
  facet normal -0 0 -1
    outer loop
      vertex -11.6222 -4.60156 0
      vertex -17.2009 -6.8103 0
      vertex -12.1073 -3.10862 0
    endloop
  endfacet
  facet normal 0 0 -1
    outer loop
      vertex -9.11211 8.55684 0
      vertex -13.4859 12.6641 0
      vertex -11.7923 14.2545 0
    endloop
  endfacet
  facet normal 0 0 -1
    outer loop
      vertex -17.9188 -4.60076 0
      vertex -12.1073 -3.10862 0
      vertex -17.2009 -6.8103 0
    endloop
  endfacet
  facet normal 0 0 -1
    outer loop
      vertex -10.1127 7.34731 0
      vertex -14.9668 10.874 0
      vertex -13.4859 12.6641 0
    endloop
  endfacet
  facet normal -0 0 -1
    outer loop
      vertex -12.1073 -3.10862 0
      vertex -17.9188 -4.60076 0
      vertex -12.4014 -1.56666 0
    endloop
  endfacet
  facet normal 0 0 -1
    outer loop
      vertex -10.9538 6.02192 0
      vertex -16.2117 8.91244 0
      vertex -14.9668 10.874 0
    endloop
  endfacet
  facet normal 0 0 -1
    outer loop
      vertex -18.3541 -2.31866 0
      vertex -12.4014 -1.56666 0
      vertex -17.9188 -4.60076 0
    endloop
  endfacet
  facet normal 0 0 -1
    outer loop
      vertex -11.6222 4.60156 0
      vertex -17.2009 6.8103 0
      vertex -16.2117 8.91244 0
    endloop
  endfacet
  facet normal -0 0 -1
    outer loop
      vertex -12.4014 -1.56666 0
      vertex -18.3541 -2.31866 0
      vertex -12.5 0 0
    endloop
  endfacet
  facet normal 0 0 -1
    outer loop
      vertex -12.1073 3.10862 0
      vertex -17.9188 4.60076 0
      vertex -17.2009 6.8103 0
    endloop
  endfacet
  facet normal 0 0 -1
    outer loop
      vertex -18.5 0 0
      vertex -12.5 0 0
      vertex -18.3541 -2.31866 0
    endloop
  endfacet
  facet normal 0 0 -1
    outer loop
      vertex -12.4014 1.56666 0
      vertex -18.3541 2.31866 0
      vertex -17.9188 4.60076 0
    endloop
  endfacet
  facet normal 0 0 -1
    outer loop
      vertex -12.5 0 0
      vertex -18.5 0 0
      vertex -18.3541 2.31866 0
    endloop
  endfacet
  facet normal 0.481742 -0.876313 0
    outer loop
      vertex 7.87692 -16.7393 0
      vertex 9.9128 -15.6201 7
      vertex 7.87692 -16.7393 7
    endloop
  endfacet
  facet normal 0.481742 -0.876313 0
    outer loop
      vertex 9.9128 -15.6201 7
      vertex 7.87692 -16.7393 0
      vertex 9.9128 -15.6201 0
    endloop
  endfacet
  facet normal 0.684548 -0.728968 0
    outer loop
      vertex 11.7923 -14.2545 0
      vertex 13.4859 -12.6641 7
      vertex 11.7923 -14.2545 7
    endloop
  endfacet
  facet normal 0.684548 -0.728968 0
    outer loop
      vertex 13.4859 -12.6641 7
      vertex 11.7923 -14.2545 0
      vertex 13.4859 -12.6641 0
    endloop
  endfacet
  facet normal 0.844317 -0.535844 1.33336e-20
    outer loop
      vertex 14.9668 -10.874 7
      vertex 16.2117 -8.91244 0
      vertex 16.2117 -8.91244 7
    endloop
  endfacet
  facet normal 0.844317 -0.535844 1.33336e-20
    outer loop
      vertex 16.2117 -8.91244 0
      vertex 14.9668 -10.874 7
      vertex 14.9668 -10.874 0
    endloop
  endfacet
  facet normal -0.951059 -0.309008 6.66014e-18
    outer loop
      vertex -17.2009 -6.8103 0
      vertex -17.9188 -4.60076 7
      vertex -17.9188 -4.60076 0
    endloop
  endfacet
  facet normal -0.951059 -0.309008 6.66014e-18
    outer loop
      vertex -17.9188 -4.60076 7
      vertex -17.2009 -6.8103 0
      vertex -17.2009 -6.8103 7
    endloop
  endfacet
  facet normal 0.368107 -0.929784 0
    outer loop
      vertex 5.71681 -17.5945 0
      vertex 7.87692 -16.7393 7
      vertex 5.71681 -17.5945 7
    endloop
  endfacet
  facet normal 0.368107 -0.929784 0
    outer loop
      vertex 7.87692 -16.7393 7
      vertex 5.71681 -17.5945 0
      vertex 7.87692 -16.7393 0
    endloop
  endfacet
  facet normal 0.248703 -0.96858 0
    outer loop
      vertex 3.46655 -18.1723 0
      vertex 5.71681 -17.5945 7
      vertex 3.46655 -18.1723 7
    endloop
  endfacet
  facet normal 0.248703 -0.96858 0
    outer loop
      vertex 5.71681 -17.5945 7
      vertex 3.46655 -18.1723 0
      vertex 5.71681 -17.5945 0
    endloop
  endfacet
  facet normal 0.125342 -0.992114 0
    outer loop
      vertex 1.16162 -18.4635 0
      vertex 3.46655 -18.1723 7
      vertex 1.16162 -18.4635 7
    endloop
  endfacet
  facet normal 0.125342 -0.992114 0
    outer loop
      vertex 3.46655 -18.1723 7
      vertex 1.16162 -18.4635 0
      vertex 3.46655 -18.1723 0
    endloop
  endfacet
  facet normal 0.904826 -0.425782 -2.72004e-18
    outer loop
      vertex 16.2117 -8.91244 7
      vertex 17.2009 -6.8103 0
      vertex 17.2009 -6.8103 7
    endloop
  endfacet
  facet normal 0.904826 -0.425782 -2.72004e-18
    outer loop
      vertex 17.2009 -6.8103 0
      vertex 16.2117 -8.91244 7
      vertex 16.2117 -8.91244 0
    endloop
  endfacet
  facet normal -0.125342 -0.992114 0
    outer loop
      vertex -3.46655 -18.1723 0
      vertex -1.16162 -18.4635 7
      vertex -3.46655 -18.1723 7
    endloop
  endfacet
  facet normal -0.125342 -0.992114 -0
    outer loop
      vertex -1.16162 -18.4635 7
      vertex -3.46655 -18.1723 0
      vertex -1.16162 -18.4635 0
    endloop
  endfacet
  facet normal -0.368107 -0.929784 0
    outer loop
      vertex -7.87692 -16.7393 0
      vertex -5.71681 -17.5945 7
      vertex -7.87692 -16.7393 7
    endloop
  endfacet
  facet normal -0.368107 -0.929784 -0
    outer loop
      vertex -5.71681 -17.5945 7
      vertex -7.87692 -16.7393 0
      vertex -5.71681 -17.5945 0
    endloop
  endfacet
  facet normal -0.248703 -0.96858 0
    outer loop
      vertex -5.71681 -17.5945 0
      vertex -3.46655 -18.1723 7
      vertex -5.71681 -17.5945 7
    endloop
  endfacet
  facet normal -0.248703 -0.96858 -0
    outer loop
      vertex -3.46655 -18.1723 7
      vertex -5.71681 -17.5945 0
      vertex -3.46655 -18.1723 0
    endloop
  endfacet
  facet normal -0.770513 -0.637424 6.21342e-18
    outer loop
      vertex -13.4859 -12.6641 0
      vertex -14.9668 -10.874 7
      vertex -14.9668 -10.874 0
    endloop
  endfacet
  facet normal -0.770513 -0.637424 6.21342e-18
    outer loop
      vertex -14.9668 -10.874 7
      vertex -13.4859 -12.6641 0
      vertex -13.4859 -12.6641 7
    endloop
  endfacet
  facet normal -0.684548 -0.728968 0
    outer loop
      vertex -13.4859 -12.6641 0
      vertex -11.7923 -14.2545 7
      vertex -13.4859 -12.6641 7
    endloop
  endfacet
  facet normal -0.684548 -0.728968 -0
    outer loop
      vertex -11.7923 -14.2545 7
      vertex -13.4859 -12.6641 0
      vertex -11.7923 -14.2545 0
    endloop
  endfacet
  facet normal -0.98229 -0.187367 2.48672e-18
    outer loop
      vertex -17.9188 -4.60076 0
      vertex -18.3541 -2.31866 7
      vertex -18.3541 -2.31866 0
    endloop
  endfacet
  facet normal -0.98229 -0.187367 2.48672e-18
    outer loop
      vertex -18.3541 -2.31866 7
      vertex -17.9188 -4.60076 0
      vertex -17.9188 -4.60076 7
    endloop
  endfacet
  facet normal -0.998026 -0.0628001 -5.41677e-19
    outer loop
      vertex -18.3541 -2.31866 0
      vertex -18.5 0 7
      vertex -18.5 0 0
    endloop
  endfacet
  facet normal -0.998026 -0.0628001 -5.41677e-19
    outer loop
      vertex -18.5 0 7
      vertex -18.3541 -2.31866 0
      vertex -18.3541 -2.31866 7
    endloop
  endfacet
  facet normal 0.587803 -0.809004 0
    outer loop
      vertex 9.9128 -15.6201 0
      vertex 11.7923 -14.2545 7
      vertex 9.9128 -15.6201 7
    endloop
  endfacet
  facet normal 0.587803 -0.809004 0
    outer loop
      vertex 11.7923 -14.2545 7
      vertex 9.9128 -15.6201 0
      vertex 11.7923 -14.2545 0
    endloop
  endfacet
  facet normal -0.844317 -0.535844 -1.33336e-20
    outer loop
      vertex -14.9668 -10.874 0
      vertex -16.2117 -8.91244 7
      vertex -16.2117 -8.91244 0
    endloop
  endfacet
  facet normal -0.844317 -0.535844 -1.33336e-20
    outer loop
      vertex -16.2117 -8.91244 7
      vertex -14.9668 -10.874 0
      vertex -14.9668 -10.874 7
    endloop
  endfacet
  facet normal -0.481742 -0.876313 0
    outer loop
      vertex -9.9128 -15.6201 0
      vertex -7.87692 -16.7393 7
      vertex -9.9128 -15.6201 7
    endloop
  endfacet
  facet normal -0.481742 -0.876313 -0
    outer loop
      vertex -7.87692 -16.7393 7
      vertex -9.9128 -15.6201 0
      vertex -7.87692 -16.7393 0
    endloop
  endfacet
  facet normal -0.587803 -0.809004 0
    outer loop
      vertex -11.7923 -14.2545 0
      vertex -9.9128 -15.6201 7
      vertex -11.7923 -14.2545 7
    endloop
  endfacet
  facet normal -0.587803 -0.809004 -0
    outer loop
      vertex -9.9128 -15.6201 7
      vertex -11.7923 -14.2545 0
      vertex -9.9128 -15.6201 0
    endloop
  endfacet
  facet normal -0.998025 -0.0628122 6.5738e-19
    outer loop
      vertex 12.5 0 0
      vertex 12.4014 1.56666 7
      vertex 12.4014 1.56666 0
    endloop
  endfacet
  facet normal -0.998025 -0.0628122 6.5738e-19
    outer loop
      vertex 12.4014 1.56666 7
      vertex 12.5 0 0
      vertex 12.5 0 7
    endloop
  endfacet
  facet normal 0.998025 -0.0628122 -6.5738e-19
    outer loop
      vertex -12.5 0 7
      vertex -12.4014 1.56666 0
      vertex -12.4014 1.56666 7
    endloop
  endfacet
  facet normal 0.998025 -0.0628122 -6.5738e-19
    outer loop
      vertex -12.4014 1.56666 0
      vertex -12.5 0 7
      vertex -12.5 0 0
    endloop
  endfacet
  facet normal 0 -1 0
    outer loop
      vertex -0.784881 12.4753 0
      vertex 0.784881 12.4753 7
      vertex -0.784881 12.4753 7
    endloop
  endfacet
  facet normal 0 -1 -0
    outer loop
      vertex 0.784881 12.4753 7
      vertex -0.784881 12.4753 0
      vertex 0.784881 12.4753 0
    endloop
  endfacet
  facet normal 0 1 -0
    outer loop
      vertex 0.784881 -12.4753 0
      vertex -0.784881 -12.4753 7
      vertex 0.784881 -12.4753 7
    endloop
  endfacet
  facet normal 0 1 0
    outer loop
      vertex -0.784881 -12.4753 7
      vertex 0.784881 -12.4753 0
      vertex -0.784881 -12.4753 0
    endloop
  endfacet
  facet normal -0.684548 -0.728968 0
    outer loop
      vertex 7.9678 9.63142 0
      vertex 9.11211 8.55684 7
      vertex 7.9678 9.63142 7
    endloop
  endfacet
  facet normal -0.684548 -0.728968 -0
    outer loop
      vertex 9.11211 8.55684 7
      vertex 7.9678 9.63142 0
      vertex 9.11211 8.55684 0
    endloop
  endfacet
  facet normal 0.684548 -0.728968 0
    outer loop
      vertex -9.11211 8.55684 0
      vertex -7.9678 9.63142 7
      vertex -9.11211 8.55684 7
    endloop
  endfacet
  facet normal 0.684548 -0.728968 0
    outer loop
      vertex -7.9678 9.63142 7
      vertex -9.11211 8.55684 0
      vertex -7.9678 9.63142 0
    endloop
  endfacet
  facet normal 0.368142 -0.92977 0
    outer loop
      vertex -5.32224 11.3103 0
      vertex -3.86271 11.8882 7
      vertex -5.32224 11.3103 7
    endloop
  endfacet
  facet normal 0.368142 -0.92977 0
    outer loop
      vertex -3.86271 11.8882 7
      vertex -5.32224 11.3103 0
      vertex -3.86271 11.8882 0
    endloop
  endfacet
  facet normal -0.90482 -0.425795 1.27282e-18
    outer loop
      vertex 11.6222 4.60156 0
      vertex 10.9538 6.02192 7
      vertex 10.9538 6.02192 0
    endloop
  endfacet
  facet normal -0.90482 -0.425795 1.27282e-18
    outer loop
      vertex 10.9538 6.02192 7
      vertex 11.6222 4.60156 0
      vertex 11.6222 4.60156 7
    endloop
  endfacet
  facet normal -0.982292 -0.187354 8.48552e-19
    outer loop
      vertex 12.4014 1.56666 0
      vertex 12.1073 3.10862 7
      vertex 12.1073 3.10862 0
    endloop
  endfacet
  facet normal -0.982292 -0.187354 8.48552e-19
    outer loop
      vertex 12.1073 3.10862 7
      vertex 12.4014 1.56666 0
      vertex 12.4014 1.56666 7
    endloop
  endfacet
  facet normal -0.844333 -0.535819 -6.97592e-18
    outer loop
      vertex 10.9538 6.02192 0
      vertex 10.1127 7.34731 7
      vertex 10.1127 7.34731 0
    endloop
  endfacet
  facet normal -0.844333 -0.535819 -6.97592e-18
    outer loop
      vertex 10.1127 7.34731 7
      vertex 10.9538 6.02192 0
      vertex 10.9538 6.02192 7
    endloop
  endfacet
  facet normal -0.368142 -0.92977 0
    outer loop
      vertex 3.86271 11.8882 0
      vertex 5.32224 11.3103 7
      vertex 3.86271 11.8882 7
    endloop
  endfacet
  facet normal -0.368142 -0.92977 -0
    outer loop
      vertex 5.32224 11.3103 7
      vertex 3.86271 11.8882 0
      vertex 5.32224 11.3103 0
    endloop
  endfacet
  facet normal -0.2487 -0.96858 0
    outer loop
      vertex 2.34227 12.2786 0
      vertex 3.86271 11.8882 7
      vertex 2.34227 12.2786 7
    endloop
  endfacet
  facet normal -0.2487 -0.96858 -0
    outer loop
      vertex 3.86271 11.8882 7
      vertex 2.34227 12.2786 0
      vertex 3.86271 11.8882 0
    endloop
  endfacet
  facet normal -0.481736 -0.876317 0
    outer loop
      vertex 5.32224 11.3103 0
      vertex 6.69783 10.5541 7
      vertex 5.32224 11.3103 7
    endloop
  endfacet
  facet normal -0.481736 -0.876317 -0
    outer loop
      vertex 6.69783 10.5541 7
      vertex 5.32224 11.3103 0
      vertex 6.69783 10.5541 0
    endloop
  endfacet
  facet normal 0.844333 -0.535819 6.97592e-18
    outer loop
      vertex -10.9538 6.02192 7
      vertex -10.1127 7.34731 0
      vertex -10.1127 7.34731 7
    endloop
  endfacet
  facet normal 0.844333 -0.535819 6.97592e-18
    outer loop
      vertex -10.1127 7.34731 0
      vertex -10.9538 6.02192 7
      vertex -10.9538 6.02192 0
    endloop
  endfacet
  facet normal 0.77052 -0.637416 -4.9729e-18
    outer loop
      vertex -10.1127 7.34731 7
      vertex -9.11211 8.55684 0
      vertex -9.11211 8.55684 7
    endloop
  endfacet
  facet normal 0.77052 -0.637416 -4.9729e-18
    outer loop
      vertex -9.11211 8.55684 0
      vertex -10.1127 7.34731 7
      vertex -10.1127 7.34731 0
    endloop
  endfacet
  facet normal 0.951054 -0.309025 -1.72668e-18
    outer loop
      vertex -12.1073 3.10862 7
      vertex -11.6222 4.60156 0
      vertex -11.6222 4.60156 7
    endloop
  endfacet
  facet normal 0.951054 -0.309025 -1.72668e-18
    outer loop
      vertex -11.6222 4.60156 0
      vertex -12.1073 3.10862 7
      vertex -12.1073 3.10862 0
    endloop
  endfacet
  facet normal 0.587782 -0.809019 0
    outer loop
      vertex -7.9678 9.63142 0
      vertex -6.69783 10.5541 7
      vertex -7.9678 9.63142 7
    endloop
  endfacet
  facet normal 0.587782 -0.809019 0
    outer loop
      vertex -6.69783 10.5541 7
      vertex -7.9678 9.63142 0
      vertex -6.69783 10.5541 0
    endloop
  endfacet
  facet normal 0.125306 -0.992118 0
    outer loop
      vertex -2.34227 12.2786 0
      vertex -0.784881 12.4753 7
      vertex -2.34227 12.2786 7
    endloop
  endfacet
  facet normal 0.125306 -0.992118 0
    outer loop
      vertex -0.784881 12.4753 7
      vertex -2.34227 12.2786 0
      vertex -0.784881 12.4753 0
    endloop
  endfacet
  facet normal -0.125306 0.992118 0
    outer loop
      vertex 2.34227 -12.2786 0
      vertex 0.784881 -12.4753 7
      vertex 2.34227 -12.2786 7
    endloop
  endfacet
  facet normal -0.125306 0.992118 0
    outer loop
      vertex 0.784881 -12.4753 7
      vertex 2.34227 -12.2786 0
      vertex 0.784881 -12.4753 0
    endloop
  endfacet
  facet normal -0.951054 -0.309025 1.72668e-18
    outer loop
      vertex 12.1073 3.10862 0
      vertex 11.6222 4.60156 7
      vertex 11.6222 4.60156 0
    endloop
  endfacet
  facet normal -0.951054 -0.309025 1.72668e-18
    outer loop
      vertex 11.6222 4.60156 7
      vertex 12.1073 3.10862 0
      vertex 12.1073 3.10862 7
    endloop
  endfacet
  facet normal -0.77052 -0.637416 4.9729e-18
    outer loop
      vertex 10.1127 7.34731 0
      vertex 9.11211 8.55684 7
      vertex 9.11211 8.55684 0
    endloop
  endfacet
  facet normal -0.77052 -0.637416 4.9729e-18
    outer loop
      vertex 9.11211 8.55684 7
      vertex 10.1127 7.34731 0
      vertex 10.1127 7.34731 7
    endloop
  endfacet
  facet normal -0.125306 -0.992118 0
    outer loop
      vertex 0.784881 12.4753 0
      vertex 2.34227 12.2786 7
      vertex 0.784881 12.4753 7
    endloop
  endfacet
  facet normal -0.125306 -0.992118 -0
    outer loop
      vertex 2.34227 12.2786 7
      vertex 0.784881 12.4753 0
      vertex 2.34227 12.2786 0
    endloop
  endfacet
  facet normal -0.587782 -0.809019 0
    outer loop
      vertex 6.69783 10.5541 0
      vertex 7.9678 9.63142 7
      vertex 6.69783 10.5541 7
    endloop
  endfacet
  facet normal -0.587782 -0.809019 -0
    outer loop
      vertex 7.9678 9.63142 7
      vertex 6.69783 10.5541 0
      vertex 7.9678 9.63142 0
    endloop
  endfacet
  facet normal 0.90482 -0.425795 -1.27282e-18
    outer loop
      vertex -11.6222 4.60156 7
      vertex -10.9538 6.02192 0
      vertex -10.9538 6.02192 7
    endloop
  endfacet
  facet normal 0.90482 -0.425795 -1.27282e-18
    outer loop
      vertex -10.9538 6.02192 0
      vertex -11.6222 4.60156 7
      vertex -11.6222 4.60156 0
    endloop
  endfacet
  facet normal 0.982292 -0.187354 -8.48552e-19
    outer loop
      vertex -12.4014 1.56666 7
      vertex -12.1073 3.10862 0
      vertex -12.1073 3.10862 7
    endloop
  endfacet
  facet normal 0.982292 -0.187354 -8.48552e-19
    outer loop
      vertex -12.1073 3.10862 0
      vertex -12.4014 1.56666 7
      vertex -12.4014 1.56666 0
    endloop
  endfacet
  facet normal 0.481736 -0.876317 0
    outer loop
      vertex -6.69783 10.5541 0
      vertex -5.32224 11.3103 7
      vertex -6.69783 10.5541 7
    endloop
  endfacet
  facet normal 0.481736 -0.876317 0
    outer loop
      vertex -5.32224 11.3103 7
      vertex -6.69783 10.5541 0
      vertex -5.32224 11.3103 0
    endloop
  endfacet
  facet normal 0.2487 -0.96858 0
    outer loop
      vertex -3.86271 11.8882 0
      vertex -2.34227 12.2786 7
      vertex -3.86271 11.8882 7
    endloop
  endfacet
  facet normal 0.2487 -0.96858 0
    outer loop
      vertex -2.34227 12.2786 7
      vertex -3.86271 11.8882 0
      vertex -2.34227 12.2786 0
    endloop
  endfacet
  facet normal -0.684548 0.728968 0
    outer loop
      vertex 9.11211 -8.55684 0
      vertex 7.9678 -9.63142 7
      vertex 9.11211 -8.55684 7
    endloop
  endfacet
  facet normal -0.684548 0.728968 0
    outer loop
      vertex 7.9678 -9.63142 7
      vertex 9.11211 -8.55684 0
      vertex 7.9678 -9.63142 0
    endloop
  endfacet
  facet normal -0.982292 0.187354 -8.48552e-19
    outer loop
      vertex 12.1073 -3.10862 0
      vertex 12.4014 -1.56666 7
      vertex 12.4014 -1.56666 0
    endloop
  endfacet
  facet normal -0.982292 0.187354 -8.48552e-19
    outer loop
      vertex 12.4014 -1.56666 7
      vertex 12.1073 -3.10862 0
      vertex 12.1073 -3.10862 7
    endloop
  endfacet
  facet normal -0.368142 0.92977 0
    outer loop
      vertex 5.32224 -11.3103 0
      vertex 3.86271 -11.8882 7
      vertex 5.32224 -11.3103 7
    endloop
  endfacet
  facet normal -0.368142 0.92977 0
    outer loop
      vertex 3.86271 -11.8882 7
      vertex 5.32224 -11.3103 0
      vertex 3.86271 -11.8882 0
    endloop
  endfacet
  facet normal -0.77052 0.637416 -4.9729e-18
    outer loop
      vertex 9.11211 -8.55684 0
      vertex 10.1127 -7.34731 7
      vertex 10.1127 -7.34731 0
    endloop
  endfacet
  facet normal -0.77052 0.637416 -4.9729e-18
    outer loop
      vertex 10.1127 -7.34731 7
      vertex 9.11211 -8.55684 0
      vertex 9.11211 -8.55684 7
    endloop
  endfacet
  facet normal -0.481736 0.876317 0
    outer loop
      vertex 6.69783 -10.5541 0
      vertex 5.32224 -11.3103 7
      vertex 6.69783 -10.5541 7
    endloop
  endfacet
  facet normal -0.481736 0.876317 0
    outer loop
      vertex 5.32224 -11.3103 7
      vertex 6.69783 -10.5541 0
      vertex 5.32224 -11.3103 0
    endloop
  endfacet
  facet normal -0.90482 0.425795 -1.27282e-18
    outer loop
      vertex 10.9538 -6.02192 0
      vertex 11.6222 -4.60156 7
      vertex 11.6222 -4.60156 0
    endloop
  endfacet
  facet normal -0.90482 0.425795 -1.27282e-18
    outer loop
      vertex 11.6222 -4.60156 7
      vertex 10.9538 -6.02192 0
      vertex 10.9538 -6.02192 7
    endloop
  endfacet
  facet normal -0.998025 0.0628122 -6.5738e-19
    outer loop
      vertex 12.4014 -1.56666 0
      vertex 12.5 0 7
      vertex 12.5 0 0
    endloop
  endfacet
  facet normal -0.998025 0.0628122 -6.5738e-19
    outer loop
      vertex 12.5 0 7
      vertex 12.4014 -1.56666 0
      vertex 12.4014 -1.56666 7
    endloop
  endfacet
  facet normal 0.368142 0.92977 -0
    outer loop
      vertex -3.86271 -11.8882 0
      vertex -5.32224 -11.3103 7
      vertex -3.86271 -11.8882 7
    endloop
  endfacet
  facet normal 0.368142 0.92977 0
    outer loop
      vertex -5.32224 -11.3103 7
      vertex -3.86271 -11.8882 0
      vertex -5.32224 -11.3103 0
    endloop
  endfacet
  facet normal 0.77052 0.637416 4.9729e-18
    outer loop
      vertex -9.11211 -8.55684 7
      vertex -10.1127 -7.34731 0
      vertex -10.1127 -7.34731 7
    endloop
  endfacet
  facet normal 0.77052 0.637416 4.9729e-18
    outer loop
      vertex -10.1127 -7.34731 0
      vertex -9.11211 -8.55684 7
      vertex -9.11211 -8.55684 0
    endloop
  endfacet
  facet normal 0.951054 0.309025 1.72668e-18
    outer loop
      vertex -11.6222 -4.60156 7
      vertex -12.1073 -3.10862 0
      vertex -12.1073 -3.10862 7
    endloop
  endfacet
  facet normal 0.951054 0.309025 1.72668e-18
    outer loop
      vertex -12.1073 -3.10862 0
      vertex -11.6222 -4.60156 7
      vertex -11.6222 -4.60156 0
    endloop
  endfacet
  facet normal 0.998025 0.0628122 6.5738e-19
    outer loop
      vertex -12.4014 -1.56666 7
      vertex -12.5 0 0
      vertex -12.5 0 7
    endloop
  endfacet
  facet normal 0.998025 0.0628122 6.5738e-19
    outer loop
      vertex -12.5 0 0
      vertex -12.4014 -1.56666 7
      vertex -12.4014 -1.56666 0
    endloop
  endfacet
  facet normal -0.2487 0.96858 0
    outer loop
      vertex 3.86271 -11.8882 0
      vertex 2.34227 -12.2786 7
      vertex 3.86271 -11.8882 7
    endloop
  endfacet
  facet normal -0.2487 0.96858 0
    outer loop
      vertex 2.34227 -12.2786 7
      vertex 3.86271 -11.8882 0
      vertex 2.34227 -12.2786 0
    endloop
  endfacet
  facet normal -0.844333 0.535819 6.97592e-18
    outer loop
      vertex 10.1127 -7.34731 0
      vertex 10.9538 -6.02192 7
      vertex 10.9538 -6.02192 0
    endloop
  endfacet
  facet normal -0.844333 0.535819 6.97592e-18
    outer loop
      vertex 10.9538 -6.02192 7
      vertex 10.1127 -7.34731 0
      vertex 10.1127 -7.34731 7
    endloop
  endfacet
  facet normal -0.587782 0.809019 0
    outer loop
      vertex 7.9678 -9.63142 0
      vertex 6.69783 -10.5541 7
      vertex 7.9678 -9.63142 7
    endloop
  endfacet
  facet normal -0.587782 0.809019 0
    outer loop
      vertex 6.69783 -10.5541 7
      vertex 7.9678 -9.63142 0
      vertex 6.69783 -10.5541 0
    endloop
  endfacet
  facet normal -0.951054 0.309025 -1.72668e-18
    outer loop
      vertex 11.6222 -4.60156 0
      vertex 12.1073 -3.10862 7
      vertex 12.1073 -3.10862 0
    endloop
  endfacet
  facet normal -0.951054 0.309025 -1.72668e-18
    outer loop
      vertex 12.1073 -3.10862 7
      vertex 11.6222 -4.60156 0
      vertex 11.6222 -4.60156 7
    endloop
  endfacet
  facet normal 0.125306 0.992118 -0
    outer loop
      vertex -0.784881 -12.4753 0
      vertex -2.34227 -12.2786 7
      vertex -0.784881 -12.4753 7
    endloop
  endfacet
  facet normal 0.125306 0.992118 0
    outer loop
      vertex -2.34227 -12.2786 7
      vertex -0.784881 -12.4753 0
      vertex -2.34227 -12.2786 0
    endloop
  endfacet
  facet normal 0.587782 0.809019 -0
    outer loop
      vertex -6.69783 -10.5541 0
      vertex -7.9678 -9.63142 7
      vertex -6.69783 -10.5541 7
    endloop
  endfacet
  facet normal 0.587782 0.809019 0
    outer loop
      vertex -7.9678 -9.63142 7
      vertex -6.69783 -10.5541 0
      vertex -7.9678 -9.63142 0
    endloop
  endfacet
  facet normal 0.2487 0.96858 -0
    outer loop
      vertex -2.34227 -12.2786 0
      vertex -3.86271 -11.8882 7
      vertex -2.34227 -12.2786 7
    endloop
  endfacet
  facet normal 0.2487 0.96858 0
    outer loop
      vertex -3.86271 -11.8882 7
      vertex -2.34227 -12.2786 0
      vertex -3.86271 -11.8882 0
    endloop
  endfacet
  facet normal 0.684548 0.728968 -0
    outer loop
      vertex -7.9678 -9.63142 0
      vertex -9.11211 -8.55684 7
      vertex -7.9678 -9.63142 7
    endloop
  endfacet
  facet normal 0.684548 0.728968 0
    outer loop
      vertex -9.11211 -8.55684 7
      vertex -7.9678 -9.63142 0
      vertex -9.11211 -8.55684 0
    endloop
  endfacet
  facet normal 0.844333 0.535819 -6.97592e-18
    outer loop
      vertex -10.1127 -7.34731 7
      vertex -10.9538 -6.02192 0
      vertex -10.9538 -6.02192 7
    endloop
  endfacet
  facet normal 0.844333 0.535819 -6.97592e-18
    outer loop
      vertex -10.9538 -6.02192 0
      vertex -10.1127 -7.34731 7
      vertex -10.1127 -7.34731 0
    endloop
  endfacet
  facet normal 0.90482 0.425795 1.27282e-18
    outer loop
      vertex -10.9538 -6.02192 7
      vertex -11.6222 -4.60156 0
      vertex -11.6222 -4.60156 7
    endloop
  endfacet
  facet normal 0.90482 0.425795 1.27282e-18
    outer loop
      vertex -11.6222 -4.60156 0
      vertex -10.9538 -6.02192 7
      vertex -10.9538 -6.02192 0
    endloop
  endfacet
  facet normal 0.982292 0.187354 8.48552e-19
    outer loop
      vertex -12.1073 -3.10862 7
      vertex -12.4014 -1.56666 0
      vertex -12.4014 -1.56666 7
    endloop
  endfacet
  facet normal 0.982292 0.187354 8.48552e-19
    outer loop
      vertex -12.4014 -1.56666 0
      vertex -12.1073 -3.10862 7
      vertex -12.1073 -3.10862 0
    endloop
  endfacet
  facet normal 0.481736 0.876317 -0
    outer loop
      vertex -5.32224 -11.3103 0
      vertex -6.69783 -10.5541 7
      vertex -5.32224 -11.3103 7
    endloop
  endfacet
  facet normal 0.481736 0.876317 0
    outer loop
      vertex -6.69783 -10.5541 7
      vertex -5.32224 -11.3103 0
      vertex -6.69783 -10.5541 0
    endloop
  endfacet
endsolid OpenSCAD_Model
