<?xml version="1.0" standalone="no"?>
<!DOCTYPE svg PUBLIC "-//W3C//DTD SVG 1.1//EN" "http://www.w3.org/Graphics/SVG/1.1/DTD/svg11.dtd">
<svg width="90mm" height="147mm" viewBox="-45 -288 90 147" xmlns="http://www.w3.org/2000/svg" version="1.1">
<title>OpenSCAD Model</title>
<path d="
M 40.9369,-258.089 L 41.5451,-258.245 L 42.1289,-258.476 L 42.6791,-258.778 L 43.1871,-259.147 L 43.6448,-259.577
 L 44.0451,-260.061 L 44.3815,-260.591 L 44.6489,-261.159 L 44.8429,-261.757 L 44.9606,-262.373 L 45,-263
 L 45,-283 L 44.9606,-283.627 L 44.8429,-284.243 L 44.6489,-284.841 L 44.3815,-285.409 L 44.0451,-285.939
 L 43.6448,-286.423 L 43.1871,-286.853 L 42.6791,-287.222 L 42.1289,-287.524 L 41.5451,-287.755 L 40.9369,-287.911
 L 40.3139,-287.99 L -40.3139,-287.99 L -40.9369,-287.911 L -41.5451,-287.755 L -42.1289,-287.524 L -42.6791,-287.222
 L -43.1871,-286.853 L -43.6448,-286.423 L -44.0451,-285.939 L -44.3815,-285.409 L -44.6489,-284.841 L -44.8429,-284.243
 L -44.9606,-283.627 L -45,-283 L -45,-263 L -44.9606,-262.373 L -44.8429,-261.757 L -44.6489,-261.159
 L -44.3815,-260.591 L -44.0451,-260.061 L -43.6448,-259.577 L -43.1871,-259.147 L -42.6791,-258.778 L -42.1289,-258.476
 L -41.5451,-258.245 L -40.9369,-258.089 L -40.3139,-258.01 L 40.3139,-258.01 z
M -40.0482,-258.509 L -40.6401,-258.584 L -41.2178,-258.732 L -41.7724,-258.952 L -42.2952,-259.239 L -42.7778,-259.59
 L -43.2126,-259.998 L -43.5928,-260.458 L -43.9124,-260.962 L -44.1664,-261.501 L -44.3508,-262.069 L -44.4625,-262.655
 L -44.5,-263.25 L -44.5,-282.75 L -44.4625,-283.345 L -44.3508,-283.931 L -44.1664,-284.499 L -43.9124,-285.038
 L -43.5928,-285.542 L -43.2126,-286.002 L -42.7778,-286.41 L -42.2952,-286.761 L -41.7724,-287.048 L -41.2178,-287.268
 L -40.6401,-287.416 L -40.0482,-287.491 L 40.0482,-287.491 L 40.6401,-287.416 L 41.2178,-287.268 L 41.7724,-287.048
 L 42.2952,-286.761 L 42.7778,-286.41 L 43.2126,-286.002 L 43.5928,-285.542 L 43.9124,-285.038 L 44.1664,-284.499
 L 44.3508,-283.931 L 44.4625,-283.345 L 44.5,-282.75 L 44.5,-263.25 L 44.4625,-262.655 L 44.3508,-262.069
 L 44.1664,-261.501 L 43.9124,-260.962 L 43.5928,-260.458 L 43.2126,-259.998 L 42.7778,-259.59 L 42.2952,-259.239
 L 41.7724,-258.952 L 41.2178,-258.732 L 40.6401,-258.584 L 40.0482,-258.509 z
M 40.9369,-219.089 L 41.5451,-219.245 L 42.1289,-219.476 L 42.6791,-219.778 L 43.1871,-220.147 L 43.6448,-220.577
 L 44.0451,-221.061 L 44.3815,-221.591 L 44.6489,-222.159 L 44.8429,-222.757 L 44.9606,-223.373 L 45,-224
 L 45,-244 L 44.9606,-244.627 L 44.8429,-245.243 L 44.6489,-245.841 L 44.3815,-246.409 L 44.0451,-246.939
 L 43.6448,-247.423 L 43.1871,-247.853 L 42.6791,-248.222 L 42.1289,-248.524 L 41.5451,-248.755 L 40.9369,-248.911
 L 40.3139,-248.99 L -40.3139,-248.99 L -40.9369,-248.911 L -41.5451,-248.755 L -42.1289,-248.524 L -42.6791,-248.222
 L -43.1871,-247.853 L -43.6448,-247.423 L -44.0451,-246.939 L -44.3815,-246.409 L -44.6489,-245.841 L -44.8429,-245.243
 L -44.9606,-244.627 L -45,-244 L -45,-224 L -44.9606,-223.373 L -44.8429,-222.757 L -44.6489,-222.159
 L -44.3815,-221.591 L -44.0451,-221.061 L -43.6448,-220.577 L -43.1871,-220.147 L -42.6791,-219.778 L -42.1289,-219.476
 L -41.5451,-219.245 L -40.9369,-219.089 L -40.3139,-219.01 L 40.3139,-219.01 z
M -40.0482,-219.509 L -40.6401,-219.584 L -41.2178,-219.732 L -41.7724,-219.952 L -42.2952,-220.239 L -42.7778,-220.59
 L -43.2126,-220.998 L -43.5928,-221.458 L -43.9124,-221.962 L -44.1664,-222.501 L -44.3508,-223.069 L -44.4625,-223.655
 L -44.5,-224.25 L -44.5,-243.75 L -44.4625,-244.345 L -44.3508,-244.931 L -44.1664,-245.499 L -43.9124,-246.038
 L -43.5928,-246.542 L -43.2126,-247.002 L -42.7778,-247.41 L -42.2952,-247.761 L -41.7724,-248.048 L -41.2178,-248.268
 L -40.6401,-248.416 L -40.0482,-248.491 L 40.0482,-248.491 L 40.6401,-248.416 L 41.2178,-248.268 L 41.7724,-248.048
 L 42.2952,-247.761 L 42.7778,-247.41 L 43.2126,-247.002 L 43.5928,-246.542 L 43.9124,-246.038 L 44.1664,-245.499
 L 44.3508,-244.931 L 44.4625,-244.345 L 44.5,-243.75 L 44.5,-224.25 L 44.4625,-223.655 L 44.3508,-223.069
 L 44.1664,-222.501 L 43.9124,-221.962 L 43.5928,-221.458 L 43.2126,-220.998 L 42.7778,-220.59 L 42.2952,-220.239
 L 41.7724,-219.952 L 41.2178,-219.732 L 40.6401,-219.584 L 40.0482,-219.509 z
M 40.9369,-180.089 L 41.5451,-180.245 L 42.1289,-180.476 L 42.6791,-180.778 L 43.1871,-181.147 L 43.6448,-181.577
 L 44.0451,-182.061 L 44.3815,-182.591 L 44.6489,-183.159 L 44.8429,-183.757 L 44.9606,-184.373 L 45,-185
 L 45,-205 L 44.9606,-205.627 L 44.8429,-206.243 L 44.6489,-206.841 L 44.3815,-207.409 L 44.0451,-207.939
 L 43.6448,-208.423 L 43.1871,-208.853 L 42.6791,-209.222 L 42.1289,-209.524 L 41.5451,-209.755 L 40.9369,-209.911
 L 40.3139,-209.99 L -40.3139,-209.99 L -40.9369,-209.911 L -41.5451,-209.755 L -42.1289,-209.524 L -42.6791,-209.222
 L -43.1871,-208.853 L -43.6448,-208.423 L -44.0451,-207.939 L -44.3815,-207.409 L -44.6489,-206.841 L -44.8429,-206.243
 L -44.9606,-205.627 L -45,-205 L -45,-185 L -44.9606,-184.373 L -44.8429,-183.757 L -44.6489,-183.159
 L -44.3815,-182.591 L -44.0451,-182.061 L -43.6448,-181.577 L -43.1871,-181.147 L -42.6791,-180.778 L -42.1289,-180.476
 L -41.5451,-180.245 L -40.9369,-180.089 L -40.3139,-180.01 L 40.3139,-180.01 z
M -40.0375,-180.681 L -40.6079,-180.753 L -41.1648,-180.896 L -41.6994,-181.107 L -42.2032,-181.384 L -42.6684,-181.722
 L -43.0875,-182.116 L -43.454,-182.559 L -43.7621,-183.044 L -44.0069,-183.565 L -44.1846,-184.111 L -44.2923,-184.676
 L -44.3284,-185.25 L -44.3284,-204.75 L -44.2923,-205.324 L -44.1846,-205.889 L -44.0069,-206.435 L -43.7621,-206.956
 L -43.454,-207.441 L -43.0875,-207.884 L -42.6684,-208.278 L -42.2032,-208.616 L -41.6994,-208.893 L -41.1648,-209.104
 L -40.6079,-209.247 L -40.0375,-209.319 L 40.0375,-209.319 L 40.6079,-209.247 L 41.1648,-209.104 L 41.6994,-208.893
 L 42.2032,-208.616 L 42.6684,-208.278 L 43.0875,-207.884 L 43.454,-207.441 L 43.7621,-206.956 L 44.0069,-206.435
 L 44.1846,-205.889 L 44.2923,-205.324 L 44.3284,-204.75 L 44.3284,-185.25 L 44.2923,-184.676 L 44.1846,-184.111
 L 44.0069,-183.565 L 43.7621,-183.044 L 43.454,-182.559 L 43.0875,-182.116 L 42.6684,-181.722 L 42.2032,-181.384
 L 41.6994,-181.107 L 41.1648,-180.896 L 40.6079,-180.753 L 40.0375,-180.681 z
M 40.9369,-141.089 L 41.5451,-141.245 L 42.1289,-141.476 L 42.6791,-141.778 L 43.1871,-142.147 L 43.6448,-142.577
 L 44.0451,-143.061 L 44.3815,-143.591 L 44.6489,-144.159 L 44.8429,-144.757 L 44.9606,-145.373 L 45,-146
 L 45,-166 L 44.9606,-166.627 L 44.8429,-167.243 L 44.6489,-167.841 L 44.3815,-168.409 L 44.0451,-168.939
 L 43.6448,-169.423 L 43.1871,-169.853 L 42.6791,-170.222 L 42.1289,-170.524 L 41.5451,-170.755 L 40.9369,-170.911
 L 40.3139,-170.99 L -40.3139,-170.99 L -40.9369,-170.911 L -41.5451,-170.755 L -42.1289,-170.524 L -42.6791,-170.222
 L -43.1871,-169.853 L -43.6448,-169.423 L -44.0451,-168.939 L -44.3815,-168.409 L -44.6489,-167.841 L -44.8429,-167.243
 L -44.9606,-166.627 L -45,-166 L -45,-146 L -44.9606,-145.373 L -44.8429,-144.757 L -44.6489,-144.159
 L -44.3815,-143.591 L -44.0451,-143.061 L -43.6448,-142.577 L -43.1871,-142.147 L -42.6791,-141.778 L -42.1289,-141.476
 L -41.5451,-141.245 L -40.9369,-141.089 L -40.3139,-141.01 L 40.3139,-141.01 z
M -39.8825,-144.145 L -40.1453,-144.178 L -40.4019,-144.244 L -40.6482,-144.341 L -40.8804,-144.469 L -41.0947,-144.625
 L -41.2879,-144.806 L -41.4567,-145.01 L -41.5987,-145.234 L -41.7115,-145.473 L -41.7934,-145.725 L -41.843,-145.986
 L -41.8596,-146.25 L -41.8596,-165.75 L -41.843,-166.014 L -41.7934,-166.275 L -41.7115,-166.527 L -41.5987,-166.766
 L -41.4567,-166.99 L -41.2879,-167.194 L -41.0947,-167.375 L -40.8804,-167.531 L -40.6482,-167.659 L -40.4019,-167.756
 L -40.1453,-167.822 L -39.8825,-167.855 L 39.8825,-167.855 L 40.1453,-167.822 L 40.4019,-167.756 L 40.6482,-167.659
 L 40.8804,-167.531 L 41.0947,-167.375 L 41.2879,-167.194 L 41.4567,-166.99 L 41.5987,-166.766 L 41.7115,-166.527
 L 41.7934,-166.275 L 41.843,-166.014 L 41.8596,-165.75 L 41.8596,-146.25 L 41.843,-145.986 L 41.7934,-145.725
 L 41.7115,-145.473 L 41.5987,-145.234 L 41.4567,-145.01 L 41.2879,-144.806 L 41.0947,-144.625 L 40.8804,-144.469
 L 40.6482,-144.341 L 40.4019,-144.244 L 40.1453,-144.178 L 39.8825,-144.145 z
" stroke="black" fill="lightgray" stroke-width="0.5"/>
</svg>
