<?xml version="1.0" standalone="no"?>
<!DOCTYPE svg PUBLIC "-//W3C//DTD SVG 1.1//EN" "http://www.w3.org/Graphics/SVG/1.1/DTD/svg11.dtd">
<svg width="136mm" height="1107mm" viewBox="-68 -1809 136 1107" xmlns="http://www.w3.org/2000/svg" version="1.1">
<title>OpenSCAD Model</title>
<path d="
M 63.4369,-1539.09 L 64.0451,-1539.24 L 64.6289,-1539.48 L 65.1791,-1539.78 L 65.6871,-1540.15 L 66.1448,-1540.58
 L 66.5451,-1541.06 L 66.8815,-1541.59 L 67.1489,-1542.16 L 67.3429,-1542.76 L 67.4606,-1543.37 L 67.5,-1544
 L 67.5,-1804 L 67.4606,-1804.63 L 67.3429,-1805.24 L 67.1489,-1805.84 L 66.8815,-1806.41 L 66.5451,-1806.94
 L 66.1448,-1807.42 L 65.6871,-1807.85 L 65.1791,-1808.22 L 64.6289,-1808.52 L 64.0451,-1808.76 L 63.4369,-1808.91
 L 62.8139,-1808.99 L -62.8139,-1808.99 L -63.4369,-1808.91 L -64.0451,-1808.76 L -64.6289,-1808.52 L -65.1791,-1808.22
 L -65.6871,-1807.85 L -66.1448,-1807.42 L -66.5451,-1806.94 L -66.8815,-1806.41 L -67.1489,-1805.84 L -67.3429,-1805.24
 L -67.4606,-1804.63 L -67.5,-1804 L -67.5,-1544 L -67.4606,-1543.37 L -67.3429,-1542.76 L -67.1489,-1542.16
 L -66.8815,-1541.59 L -66.5451,-1541.06 L -66.1448,-1540.58 L -65.6871,-1540.15 L -65.1791,-1539.78 L -64.6289,-1539.48
 L -64.0451,-1539.24 L -63.4369,-1539.09 L -62.8139,-1539.01 L 62.8139,-1539.01 z
M -62.2512,-1540.51 L -62.7495,-1540.57 L -63.2361,-1540.7 L -63.7031,-1540.88 L -64.1433,-1541.12 L -64.5497,-1541.42
 L -64.9159,-1541.76 L -65.2361,-1542.15 L -65.5052,-1542.57 L -65.7191,-1543.03 L -65.8743,-1543.51 L -65.9685,-1544
 L -66,-1544.5 L -66,-1803.5 L -65.9685,-1804 L -65.8743,-1804.49 L -65.7191,-1804.97 L -65.5052,-1805.43
 L -65.2361,-1805.85 L -64.9159,-1806.24 L -64.5497,-1806.58 L -64.1433,-1806.88 L -63.7031,-1807.12 L -63.2361,-1807.3
 L -62.7495,-1807.43 L -62.2512,-1807.49 L 62.2512,-1807.49 L 62.7495,-1807.43 L 63.2361,-1807.3 L 63.7031,-1807.12
 L 64.1433,-1806.88 L 64.5497,-1806.58 L 64.9159,-1806.24 L 65.2361,-1805.85 L 65.5052,-1805.43 L 65.7191,-1804.97
 L 65.8743,-1804.49 L 65.9685,-1804 L 66,-1803.5 L 66,-1544.5 L 65.9685,-1544 L 65.8743,-1543.51
 L 65.7191,-1543.03 L 65.5052,-1542.57 L 65.2361,-1542.15 L 64.9159,-1541.76 L 64.5497,-1541.42 L 64.1433,-1541.12
 L 63.7031,-1540.88 L 63.2361,-1540.7 L 62.7495,-1540.57 L 62.2512,-1540.51 z
M 63.4369,-1260.09 L 64.0451,-1260.24 L 64.6289,-1260.48 L 65.1791,-1260.78 L 65.6871,-1261.15 L 66.1448,-1261.58
 L 66.5451,-1262.06 L 66.8815,-1262.59 L 67.1489,-1263.16 L 67.3429,-1263.76 L 67.4606,-1264.37 L 67.5,-1265
 L 67.5,-1525 L 67.4606,-1525.63 L 67.3429,-1526.24 L 67.1489,-1526.84 L 66.8815,-1527.41 L 66.5451,-1527.94
 L 66.1448,-1528.42 L 65.6871,-1528.85 L 65.1791,-1529.22 L 64.6289,-1529.52 L 64.0451,-1529.76 L 63.4369,-1529.91
 L 62.8139,-1529.99 L -62.8139,-1529.99 L -63.4369,-1529.91 L -64.0451,-1529.76 L -64.6289,-1529.52 L -65.1791,-1529.22
 L -65.6871,-1528.85 L -66.1448,-1528.42 L -66.5451,-1527.94 L -66.8815,-1527.41 L -67.1489,-1526.84 L -67.3429,-1526.24
 L -67.4606,-1525.63 L -67.5,-1525 L -67.5,-1265 L -67.4606,-1264.37 L -67.3429,-1263.76 L -67.1489,-1263.16
 L -66.8815,-1262.59 L -66.5451,-1262.06 L -66.1448,-1261.58 L -65.6871,-1261.15 L -65.1791,-1260.78 L -64.6289,-1260.48
 L -64.0451,-1260.24 L -63.4369,-1260.09 L -62.8139,-1260.01 L 62.8139,-1260.01 z
M -62.2432,-1261.64 L -62.7256,-1261.7 L -63.1967,-1261.82 L -63.6489,-1262 L -64.0751,-1262.23 L -64.4685,-1262.52
 L -64.823,-1262.85 L -65.133,-1263.22 L -65.3936,-1263.63 L -65.6007,-1264.07 L -65.751,-1264.54 L -65.8421,-1265.01
 L -65.8726,-1265.5 L -65.8726,-1524.5 L -65.8421,-1524.99 L -65.751,-1525.46 L -65.6007,-1525.93 L -65.3936,-1526.37
 L -65.133,-1526.78 L -64.823,-1527.15 L -64.4685,-1527.48 L -64.0751,-1527.77 L -63.6489,-1528 L -63.1967,-1528.18
 L -62.7256,-1528.3 L -62.2432,-1528.36 L 62.2432,-1528.36 L 62.7256,-1528.3 L 63.1967,-1528.18 L 63.6489,-1528
 L 64.0751,-1527.77 L 64.4685,-1527.48 L 64.823,-1527.15 L 65.133,-1526.78 L 65.3936,-1526.37 L 65.6007,-1525.93
 L 65.751,-1525.46 L 65.8421,-1524.99 L 65.8726,-1524.5 L 65.8726,-1265.5 L 65.8421,-1265.01 L 65.751,-1264.54
 L 65.6007,-1264.07 L 65.3936,-1263.63 L 65.133,-1263.22 L 64.823,-1262.85 L 64.4685,-1262.52 L 64.0751,-1262.23
 L 63.6489,-1262 L 63.1967,-1261.82 L 62.7256,-1261.7 L 62.2432,-1261.64 z
M 63.4369,-981.089 L 64.0451,-981.245 L 64.6289,-981.476 L 65.1791,-981.778 L 65.6871,-982.147 L 66.1448,-982.577
 L 66.5451,-983.061 L 66.8815,-983.591 L 67.1489,-984.159 L 67.3429,-984.757 L 67.4606,-985.373 L 67.5,-986
 L 67.5,-1246 L 67.4606,-1246.63 L 67.3429,-1247.24 L 67.1489,-1247.84 L 66.8815,-1248.41 L 66.5451,-1248.94
 L 66.1448,-1249.42 L 65.6871,-1249.85 L 65.1791,-1250.22 L 64.6289,-1250.52 L 64.0451,-1250.76 L 63.4369,-1250.91
 L 62.8139,-1250.99 L -62.8139,-1250.99 L -63.4369,-1250.91 L -64.0451,-1250.76 L -64.6289,-1250.52 L -65.1791,-1250.22
 L -65.6871,-1249.85 L -66.1448,-1249.42 L -66.5451,-1248.94 L -66.8815,-1248.41 L -67.1489,-1247.84 L -67.3429,-1247.24
 L -67.4606,-1246.63 L -67.5,-1246 L -67.5,-986 L -67.4606,-985.373 L -67.3429,-984.757 L -67.1489,-984.159
 L -66.8815,-983.591 L -66.5451,-983.061 L -66.1448,-982.577 L -65.6871,-982.147 L -65.1791,-981.778 L -64.6289,-981.476
 L -64.0451,-981.245 L -63.4369,-981.089 L -62.8139,-981.01 L 62.8139,-981.01 z
M -60.1507,-1241.1 L -60.4497,-1241.14 L -60.7416,-1241.22 L -61.0219,-1241.33 L -61.286,-1241.47 L -61.5298,-1241.65
 L -61.7495,-1241.86 L -61.9416,-1242.09 L -62.1031,-1242.34 L -62.2315,-1242.62 L -62.3246,-1242.9 L -62.3811,-1243.2
 L -62.4,-1243.5 L -62.3811,-1243.8 L -62.3246,-1244.1 L -62.2315,-1244.38 L -62.1031,-1244.66 L -61.9416,-1244.91
 L -61.7495,-1245.14 L -61.5298,-1245.35 L -61.286,-1245.53 L -61.0219,-1245.67 L -60.7416,-1245.78 L -60.4497,-1245.86
 L -60.1507,-1245.9 L -59.8493,-1245.9 L -59.5503,-1245.86 L -59.2584,-1245.78 L -58.9781,-1245.67 L -58.714,-1245.53
 L -58.4702,-1245.35 L -58.2505,-1245.14 L -58.0583,-1244.91 L -57.8969,-1244.66 L -57.7685,-1244.38 L -57.6754,-1244.1
 L -57.6189,-1243.8 L -57.6,-1243.5 L -57.6189,-1243.2 L -57.6754,-1242.9 L -57.7685,-1242.62 L -57.8969,-1242.34
 L -58.0583,-1242.09 L -58.2505,-1241.86 L -58.4702,-1241.65 L -58.714,-1241.47 L -58.9781,-1241.33 L -59.2584,-1241.22
 L -59.5503,-1241.14 L -59.8493,-1241.1 z
M 59.8493,-1241.1 L 59.5503,-1241.14 L 59.2584,-1241.22 L 58.9781,-1241.33 L 58.714,-1241.47 L 58.4702,-1241.65
 L 58.2505,-1241.86 L 58.0583,-1242.09 L 57.8969,-1242.34 L 57.7685,-1242.62 L 57.6754,-1242.9 L 57.6189,-1243.2
 L 57.6,-1243.5 L 57.6189,-1243.8 L 57.6754,-1244.1 L 57.7685,-1244.38 L 57.8969,-1244.66 L 58.0583,-1244.91
 L 58.2505,-1245.14 L 58.4702,-1245.35 L 58.714,-1245.53 L 58.9781,-1245.67 L 59.2584,-1245.78 L 59.5503,-1245.86
 L 59.8493,-1245.9 L 60.1507,-1245.9 L 60.4497,-1245.86 L 60.7416,-1245.78 L 61.0219,-1245.67 L 61.286,-1245.53
 L 61.5298,-1245.35 L 61.7495,-1245.14 L 61.9416,-1244.91 L 62.1031,-1244.66 L 62.2315,-1244.38 L 62.3246,-1244.1
 L 62.3811,-1243.8 L 62.4,-1243.5 L 62.3811,-1243.2 L 62.3246,-1242.9 L 62.2315,-1242.62 L 62.1031,-1242.34
 L 61.9416,-1242.09 L 61.7495,-1241.86 L 61.5298,-1241.65 L 61.286,-1241.47 L 61.0219,-1241.33 L 60.7416,-1241.22
 L 60.4497,-1241.14 L 60.1507,-1241.1 z
M 59.8493,-986.105 L 59.5503,-986.143 L 59.2584,-986.217 L 58.9781,-986.328 L 58.714,-986.474 L 58.4702,-986.651
 L 58.2505,-986.857 L 58.0583,-987.089 L 57.8969,-987.344 L 57.7685,-987.617 L 57.6754,-987.903 L 57.6189,-988.199
 L 57.6,-988.5 L 57.6189,-988.801 L 57.6754,-989.097 L 57.7685,-989.383 L 57.8969,-989.656 L 58.0583,-989.911
 L 58.2505,-990.143 L 58.4702,-990.349 L 58.714,-990.526 L 58.9781,-990.672 L 59.2584,-990.783 L 59.5503,-990.857
 L 59.8493,-990.895 L 60.1507,-990.895 L 60.4497,-990.857 L 60.7416,-990.783 L 61.0219,-990.672 L 61.286,-990.526
 L 61.5298,-990.349 L 61.7495,-990.143 L 61.9416,-989.911 L 62.1031,-989.656 L 62.2315,-989.383 L 62.3246,-989.097
 L 62.3811,-988.801 L 62.4,-988.5 L 62.3811,-988.199 L 62.3246,-987.903 L 62.2315,-987.617 L 62.1031,-987.344
 L 61.9416,-987.089 L 61.7495,-986.857 L 61.5298,-986.651 L 61.286,-986.474 L 61.0219,-986.328 L 60.7416,-986.217
 L 60.4497,-986.143 L 60.1507,-986.105 z
M -60.1507,-986.105 L -60.4497,-986.143 L -60.7416,-986.217 L -61.0219,-986.328 L -61.286,-986.474 L -61.5298,-986.651
 L -61.7495,-986.857 L -61.9416,-987.089 L -62.1031,-987.344 L -62.2315,-987.617 L -62.3246,-987.903 L -62.3811,-988.199
 L -62.4,-988.5 L -62.3811,-988.801 L -62.3246,-989.097 L -62.2315,-989.383 L -62.1031,-989.656 L -61.9416,-989.911
 L -61.7495,-990.143 L -61.5298,-990.349 L -61.286,-990.526 L -61.0219,-990.672 L -60.7416,-990.783 L -60.4497,-990.857
 L -60.1507,-990.895 L -59.8493,-990.895 L -59.5503,-990.857 L -59.2584,-990.783 L -58.9781,-990.672 L -58.714,-990.526
 L -58.4702,-990.349 L -58.2505,-990.143 L -58.0583,-989.911 L -57.8969,-989.656 L -57.7685,-989.383 L -57.6754,-989.097
 L -57.6189,-988.801 L -57.6,-988.5 L -57.6189,-988.199 L -57.6754,-987.903 L -57.7685,-987.617 L -57.8969,-987.344
 L -58.0583,-987.089 L -58.2505,-986.857 L -58.4702,-986.651 L -58.714,-986.474 L -58.9781,-986.328 L -59.2584,-986.217
 L -59.5503,-986.143 L -59.8493,-986.105 z
M 63.4369,-702.089 L 64.0451,-702.245 L 64.6289,-702.476 L 65.1791,-702.778 L 65.6871,-703.147 L 66.1448,-703.577
 L 66.5451,-704.061 L 66.8815,-704.591 L 67.1489,-705.159 L 67.3429,-705.757 L 67.4606,-706.373 L 67.5,-707
 L 67.5,-967 L 67.4606,-967.627 L 67.3429,-968.243 L 67.1489,-968.841 L 66.8815,-969.409 L 66.5451,-969.939
 L 66.1448,-970.423 L 65.6871,-970.853 L 65.1791,-971.222 L 64.6289,-971.524 L 64.0451,-971.755 L 63.4369,-971.911
 L 62.8139,-971.99 L -62.8139,-971.99 L -63.4369,-971.911 L -64.0451,-971.755 L -64.6289,-971.524 L -65.1791,-971.222
 L -65.6871,-970.853 L -66.1448,-970.423 L -66.5451,-969.939 L -66.8815,-969.409 L -67.1489,-968.841 L -67.3429,-968.243
 L -67.4606,-967.627 L -67.5,-967 L -67.5,-707 L -67.4606,-706.373 L -67.3429,-705.757 L -67.1489,-705.159
 L -66.8815,-704.591 L -66.5451,-704.061 L -66.1448,-703.577 L -65.6871,-703.147 L -65.1791,-702.778 L -64.6289,-702.476
 L -64.0451,-702.245 L -63.4369,-702.089 L -62.8139,-702.01 L 62.8139,-702.01 z
M -60.113,-962.704 L -60.3373,-962.732 L -60.5562,-962.788 L -60.7664,-962.871 L -60.9645,-962.98 L -61.1474,-963.113
 L -61.3121,-963.268 L -61.4562,-963.442 L -61.5773,-963.633 L -61.6736,-963.837 L -61.7434,-964.052 L -61.7858,-964.274
 L -61.8,-964.5 L -61.7858,-964.726 L -61.7434,-964.948 L -61.6736,-965.163 L -61.5773,-965.367 L -61.4562,-965.558
 L -61.3121,-965.732 L -61.1474,-965.887 L -60.9645,-966.02 L -60.7664,-966.129 L -60.5562,-966.212 L -60.3373,-966.268
 L -60.113,-966.296 L -59.887,-966.296 L -59.6627,-966.268 L -59.4438,-966.212 L -59.2336,-966.129 L -59.0355,-966.02
 L -58.8526,-965.887 L -58.6879,-965.732 L -58.5438,-965.558 L -58.4226,-965.367 L -58.3264,-965.163 L -58.2565,-964.948
 L -58.2142,-964.726 L -58.2,-964.5 L -58.2142,-964.274 L -58.2565,-964.052 L -58.3264,-963.837 L -58.4226,-963.633
 L -58.5438,-963.442 L -58.6879,-963.268 L -58.8526,-963.113 L -59.0355,-962.98 L -59.2336,-962.871 L -59.4438,-962.788
 L -59.6627,-962.732 L -59.887,-962.704 z
M 59.887,-962.704 L 59.6627,-962.732 L 59.4438,-962.788 L 59.2336,-962.871 L 59.0355,-962.98 L 58.8526,-963.113
 L 58.6879,-963.268 L 58.5438,-963.442 L 58.4226,-963.633 L 58.3264,-963.837 L 58.2565,-964.052 L 58.2142,-964.274
 L 58.2,-964.5 L 58.2142,-964.726 L 58.2565,-964.948 L 58.3264,-965.163 L 58.4226,-965.367 L 58.5438,-965.558
 L 58.6879,-965.732 L 58.8526,-965.887 L 59.0355,-966.02 L 59.2336,-966.129 L 59.4438,-966.212 L 59.6627,-966.268
 L 59.887,-966.296 L 60.113,-966.296 L 60.3373,-966.268 L 60.5562,-966.212 L 60.7664,-966.129 L 60.9645,-966.02
 L 61.1474,-965.887 L 61.3121,-965.732 L 61.4562,-965.558 L 61.5773,-965.367 L 61.6736,-965.163 L 61.7434,-964.948
 L 61.7858,-964.726 L 61.8,-964.5 L 61.7858,-964.274 L 61.7434,-964.052 L 61.6736,-963.837 L 61.5773,-963.633
 L 61.4562,-963.442 L 61.3121,-963.268 L 61.1474,-963.113 L 60.9645,-962.98 L 60.7664,-962.871 L 60.5562,-962.788
 L 60.3373,-962.732 L 60.113,-962.704 z
M -60.113,-707.704 L -60.3373,-707.732 L -60.5562,-707.788 L -60.7664,-707.871 L -60.9645,-707.98 L -61.1474,-708.113
 L -61.3121,-708.268 L -61.4562,-708.442 L -61.5773,-708.633 L -61.6736,-708.837 L -61.7434,-709.052 L -61.7858,-709.274
 L -61.8,-709.5 L -61.7858,-709.726 L -61.7434,-709.948 L -61.6736,-710.163 L -61.5773,-710.367 L -61.4562,-710.558
 L -61.3121,-710.732 L -61.1474,-710.887 L -60.9645,-711.02 L -60.7664,-711.129 L -60.5562,-711.212 L -60.3373,-711.268
 L -60.113,-711.296 L -59.887,-711.296 L -59.6627,-711.268 L -59.4438,-711.212 L -59.2336,-711.129 L -59.0355,-711.02
 L -58.8526,-710.887 L -58.6879,-710.732 L -58.5438,-710.558 L -58.4226,-710.367 L -58.3264,-710.163 L -58.2565,-709.948
 L -58.2142,-709.726 L -58.2,-709.5 L -58.2142,-709.274 L -58.2565,-709.052 L -58.3264,-708.837 L -58.4226,-708.633
 L -58.5438,-708.442 L -58.6879,-708.268 L -58.8526,-708.113 L -59.0355,-707.98 L -59.2336,-707.871 L -59.4438,-707.788
 L -59.6627,-707.732 L -59.887,-707.704 z
M 59.887,-707.704 L 59.6627,-707.732 L 59.4438,-707.788 L 59.2336,-707.871 L 59.0355,-707.98 L 58.8526,-708.113
 L 58.6879,-708.268 L 58.5438,-708.442 L 58.4226,-708.633 L 58.3264,-708.837 L 58.2565,-709.052 L 58.2142,-709.274
 L 58.2,-709.5 L 58.2142,-709.726 L 58.2565,-709.948 L 58.3264,-710.163 L 58.4226,-710.367 L 58.5438,-710.558
 L 58.6879,-710.732 L 58.8526,-710.887 L 59.0355,-711.02 L 59.2336,-711.129 L 59.4438,-711.212 L 59.6627,-711.268
 L 59.887,-711.296 L 60.113,-711.296 L 60.3373,-711.268 L 60.5562,-711.212 L 60.7664,-711.129 L 60.9645,-711.02
 L 61.1474,-710.887 L 61.3121,-710.732 L 61.4562,-710.558 L 61.5773,-710.367 L 61.6736,-710.163 L 61.7434,-709.948
 L 61.7858,-709.726 L 61.8,-709.5 L 61.7858,-709.274 L 61.7434,-709.052 L 61.6736,-708.837 L 61.5773,-708.633
 L 61.4562,-708.442 L 61.3121,-708.268 L 61.1474,-708.113 L 60.9645,-707.98 L 60.7664,-707.871 L 60.5562,-707.788
 L 60.3373,-707.732 L 60.113,-707.704 z
" stroke="black" fill="lightgray" stroke-width="0.5"/>
</svg>
