<?xml version="1.0" standalone="no"?>
<!DOCTYPE svg PUBLIC "-//W3C//DTD SVG 1.1//EN" "http://www.w3.org/Graphics/SVG/1.1/DTD/svg11.dtd">
<svg width="74mm" height="242mm" viewBox="-37 -403 74 242" xmlns="http://www.w3.org/2000/svg" version="1.1">
<title>OpenSCAD Model</title>
<path d="
M 32.9369,-329.089 L 33.5451,-329.245 L 34.1289,-329.476 L 34.6791,-329.778 L 35.1871,-330.147 L 35.6448,-330.577
 L 36.0451,-331.061 L 36.3815,-331.591 L 36.6489,-332.159 L 36.8429,-332.757 L 36.9606,-333.373 L 37,-334
 L 37,-398 L 36.9606,-398.627 L 36.8429,-399.243 L 36.6489,-399.841 L 36.3815,-400.409 L 36.0451,-400.939
 L 35.6448,-401.423 L 35.1871,-401.853 L 34.6791,-402.222 L 34.1289,-402.524 L 33.5451,-402.755 L 32.9369,-402.911
 L 32.3139,-402.99 L 27.686,-402.99 L 27.0631,-402.911 L 26.4549,-402.755 L 25.8711,-402.524 L 25.3209,-402.222
 L 24.8129,-401.853 L 24.3551,-401.423 L 23.9549,-400.939 L 23.6185,-400.409 L 23.3511,-399.841 L 23.1571,-399.243
 L 23.0394,-398.627 L 23,-398 L 23,-342.99 L -23,-342.99 L -23,-398 L -23.0394,-398.627
 L -23.1571,-399.243 L -23.3511,-399.841 L -23.6185,-400.409 L -23.9549,-400.939 L -24.3551,-401.423 L -24.8129,-401.853
 L -25.3209,-402.222 L -25.8711,-402.524 L -26.4549,-402.755 L -27.0631,-402.911 L -27.686,-402.99 L -32.3139,-402.99
 L -32.9369,-402.911 L -33.5451,-402.755 L -34.1289,-402.524 L -34.6791,-402.222 L -35.1871,-401.853 L -35.6448,-401.423
 L -36.0451,-400.939 L -36.3815,-400.409 L -36.6489,-399.841 L -36.8429,-399.243 L -36.9606,-398.627 L -37,-398
 L -37,-334 L -36.9606,-333.373 L -36.8429,-332.757 L -36.6489,-332.159 L -36.3815,-331.591 L -36.0451,-331.061
 L -35.6448,-330.577 L -35.1871,-330.147 L -34.6791,-329.778 L -34.1289,-329.476 L -33.5451,-329.245 L -32.9369,-329.089
 L -32.3139,-329.01 L 32.3139,-329.01 z
M -30.1884,-393.006 L -30.5621,-393.053 L -30.927,-393.147 L -31.2773,-393.286 L -31.6075,-393.467 L -31.9123,-393.688
 L -32.1869,-393.946 L -32.427,-394.237 L -32.6289,-394.555 L -32.7893,-394.896 L -32.9057,-395.254 L -32.9763,-395.624
 L -33,-396 L -32.9763,-396.376 L -32.9057,-396.746 L -32.7893,-397.104 L -32.6289,-397.445 L -32.427,-397.763
 L -32.1869,-398.054 L -31.9123,-398.312 L -31.6075,-398.533 L -31.2773,-398.714 L -30.927,-398.853 L -30.5621,-398.947
 L -30.1884,-398.994 L -29.8116,-398.994 L -29.4379,-398.947 L -29.0729,-398.853 L -28.7227,-398.714 L -28.3925,-398.533
 L -28.0877,-398.312 L -27.8131,-398.054 L -27.5729,-397.763 L -27.3711,-397.445 L -27.2107,-397.104 L -27.0942,-396.746
 L -27.0237,-396.376 L -27,-396 L -27.0237,-395.624 L -27.0942,-395.254 L -27.2107,-394.896 L -27.3711,-394.555
 L -27.5729,-394.237 L -27.8131,-393.946 L -28.0877,-393.688 L -28.3925,-393.467 L -28.7227,-393.286 L -29.0729,-393.147
 L -29.4379,-393.053 L -29.8116,-393.006 z
M 29.8116,-393.006 L 29.4379,-393.053 L 29.0729,-393.147 L 28.7227,-393.286 L 28.3925,-393.467 L 28.0877,-393.688
 L 27.8131,-393.946 L 27.5729,-394.237 L 27.3711,-394.555 L 27.2107,-394.896 L 27.0942,-395.254 L 27.0237,-395.624
 L 27,-396 L 27.0237,-396.376 L 27.0942,-396.746 L 27.2107,-397.104 L 27.3711,-397.445 L 27.5729,-397.763
 L 27.8131,-398.054 L 28.0877,-398.312 L 28.3925,-398.533 L 28.7227,-398.714 L 29.0729,-398.853 L 29.4379,-398.947
 L 29.8116,-398.994 L 30.1884,-398.994 L 30.5621,-398.947 L 30.927,-398.853 L 31.2773,-398.714 L 31.6075,-398.533
 L 31.9123,-398.312 L 32.1869,-398.054 L 32.427,-397.763 L 32.6289,-397.445 L 32.7893,-397.104 L 32.9057,-396.746
 L 32.9763,-396.376 L 33,-396 L 32.9763,-395.624 L 32.9057,-395.254 L 32.7893,-394.896 L 32.6289,-394.555
 L 32.427,-394.237 L 32.1869,-393.946 L 31.9123,-393.688 L 31.6075,-393.467 L 31.2773,-393.286 L 30.927,-393.147
 L 30.5621,-393.053 L 30.1884,-393.006 z
M 29.9058,-387.003 L 29.7189,-387.027 L 29.5365,-387.073 L 29.3613,-387.143 L 29.1963,-387.234 L 29.0439,-387.344
 L 28.9065,-387.473 L 28.7865,-387.618 L 28.6855,-387.777 L 28.6053,-387.948 L 28.5471,-388.127 L 28.5118,-388.312
 L 28.5,-388.5 L 28.5118,-388.688 L 28.5471,-388.873 L 28.6053,-389.052 L 28.6855,-389.223 L 28.7865,-389.382
 L 28.9065,-389.527 L 29.0439,-389.656 L 29.1963,-389.766 L 29.3613,-389.857 L 29.5365,-389.927 L 29.7189,-389.973
 L 29.9058,-389.997 L 30.0942,-389.997 L 30.2811,-389.973 L 30.4635,-389.927 L 30.6387,-389.857 L 30.8037,-389.766
 L 30.9561,-389.656 L 31.0934,-389.527 L 31.2135,-389.382 L 31.3145,-389.223 L 31.3947,-389.052 L 31.4529,-388.873
 L 31.4882,-388.688 L 31.5,-388.5 L 31.4882,-388.312 L 31.4529,-388.127 L 31.3947,-387.948 L 31.3145,-387.777
 L 31.2135,-387.618 L 31.0934,-387.473 L 30.9561,-387.344 L 30.8037,-387.234 L 30.6387,-387.143 L 30.4635,-387.073
 L 30.2811,-387.027 L 30.0942,-387.003 z
M -30.0942,-387.003 L -30.2811,-387.027 L -30.4635,-387.073 L -30.6387,-387.143 L -30.8037,-387.234 L -30.9561,-387.344
 L -31.0934,-387.473 L -31.2135,-387.618 L -31.3145,-387.777 L -31.3947,-387.948 L -31.4529,-388.127 L -31.4882,-388.312
 L -31.5,-388.5 L -31.4882,-388.688 L -31.4529,-388.873 L -31.3947,-389.052 L -31.3145,-389.223 L -31.2135,-389.382
 L -31.0934,-389.527 L -30.9561,-389.656 L -30.8037,-389.766 L -30.6387,-389.857 L -30.4635,-389.927 L -30.2811,-389.973
 L -30.0942,-389.997 L -29.9058,-389.997 L -29.7189,-389.973 L -29.5365,-389.927 L -29.3613,-389.857 L -29.1963,-389.766
 L -29.0439,-389.656 L -28.9065,-389.527 L -28.7865,-389.382 L -28.6855,-389.223 L -28.6053,-389.052 L -28.5471,-388.873
 L -28.5118,-388.688 L -28.5,-388.5 L -28.5118,-388.312 L -28.5471,-388.127 L -28.6053,-387.948 L -28.6855,-387.777
 L -28.7865,-387.618 L -28.9065,-387.473 L -29.0439,-387.344 L -29.1963,-387.234 L -29.3613,-387.143 L -29.5365,-387.073
 L -29.7189,-387.027 L -29.9058,-387.003 z
M -30.1884,-378.006 L -30.5621,-378.053 L -30.927,-378.147 L -31.2773,-378.286 L -31.6075,-378.467 L -31.9123,-378.688
 L -32.1869,-378.946 L -32.427,-379.237 L -32.6289,-379.555 L -32.7893,-379.896 L -32.9057,-380.254 L -32.9763,-380.624
 L -33,-381 L -32.9763,-381.376 L -32.9057,-381.746 L -32.7893,-382.104 L -32.6289,-382.445 L -32.427,-382.763
 L -32.1869,-383.054 L -31.9123,-383.312 L -31.6075,-383.533 L -31.2773,-383.714 L -30.927,-383.853 L -30.5621,-383.947
 L -30.1884,-383.994 L -29.8116,-383.994 L -29.4379,-383.947 L -29.0729,-383.853 L -28.7227,-383.714 L -28.3925,-383.533
 L -28.0877,-383.312 L -27.8131,-383.054 L -27.5729,-382.763 L -27.3711,-382.445 L -27.2107,-382.104 L -27.0942,-381.746
 L -27.0237,-381.376 L -27,-381 L -27.0237,-380.624 L -27.0942,-380.254 L -27.2107,-379.896 L -27.3711,-379.555
 L -27.5729,-379.237 L -27.8131,-378.946 L -28.0877,-378.688 L -28.3925,-378.467 L -28.7227,-378.286 L -29.0729,-378.147
 L -29.4379,-378.053 L -29.8116,-378.006 z
M 29.8116,-378.006 L 29.4379,-378.053 L 29.0729,-378.147 L 28.7227,-378.286 L 28.3925,-378.467 L 28.0877,-378.688
 L 27.8131,-378.946 L 27.5729,-379.237 L 27.3711,-379.555 L 27.2107,-379.896 L 27.0942,-380.254 L 27.0237,-380.624
 L 27,-381 L 27.0237,-381.376 L 27.0942,-381.746 L 27.2107,-382.104 L 27.3711,-382.445 L 27.5729,-382.763
 L 27.8131,-383.054 L 28.0877,-383.312 L 28.3925,-383.533 L 28.7227,-383.714 L 29.0729,-383.853 L 29.4379,-383.947
 L 29.8116,-383.994 L 30.1884,-383.994 L 30.5621,-383.947 L 30.927,-383.853 L 31.2773,-383.714 L 31.6075,-383.533
 L 31.9123,-383.312 L 32.1869,-383.054 L 32.427,-382.763 L 32.6289,-382.445 L 32.7893,-382.104 L 32.9057,-381.746
 L 32.9763,-381.376 L 33,-381 L 32.9763,-380.624 L 32.9057,-380.254 L 32.7893,-379.896 L 32.6289,-379.555
 L 32.427,-379.237 L 32.1869,-378.946 L 31.9123,-378.688 L 31.6075,-378.467 L 31.2773,-378.286 L 30.927,-378.147
 L 30.5621,-378.053 L 30.1884,-378.006 z
M 29.9058,-372.003 L 29.7189,-372.027 L 29.5365,-372.073 L 29.3613,-372.143 L 29.1963,-372.234 L 29.0439,-372.344
 L 28.9065,-372.473 L 28.7865,-372.618 L 28.6855,-372.777 L 28.6053,-372.948 L 28.5471,-373.127 L 28.5118,-373.312
 L 28.5,-373.5 L 28.5118,-373.688 L 28.5471,-373.873 L 28.6053,-374.052 L 28.6855,-374.223 L 28.7865,-374.382
 L 28.9065,-374.527 L 29.0439,-374.656 L 29.1963,-374.766 L 29.3613,-374.857 L 29.5365,-374.927 L 29.7189,-374.973
 L 29.9058,-374.997 L 30.0942,-374.997 L 30.2811,-374.973 L 30.4635,-374.927 L 30.6387,-374.857 L 30.8037,-374.766
 L 30.9561,-374.656 L 31.0934,-374.527 L 31.2135,-374.382 L 31.3145,-374.223 L 31.3947,-374.052 L 31.4529,-373.873
 L 31.4882,-373.688 L 31.5,-373.5 L 31.4882,-373.312 L 31.4529,-373.127 L 31.3947,-372.948 L 31.3145,-372.777
 L 31.2135,-372.618 L 31.0934,-372.473 L 30.9561,-372.344 L 30.8037,-372.234 L 30.6387,-372.143 L 30.4635,-372.073
 L 30.2811,-372.027 L 30.0942,-372.003 z
M -30.0942,-372.003 L -30.2811,-372.027 L -30.4635,-372.073 L -30.6387,-372.143 L -30.8037,-372.234 L -30.9561,-372.344
 L -31.0934,-372.473 L -31.2135,-372.618 L -31.3145,-372.777 L -31.3947,-372.948 L -31.4529,-373.127 L -31.4882,-373.312
 L -31.5,-373.5 L -31.4882,-373.688 L -31.4529,-373.873 L -31.3947,-374.052 L -31.3145,-374.223 L -31.2135,-374.382
 L -31.0934,-374.527 L -30.9561,-374.656 L -30.8037,-374.766 L -30.6387,-374.857 L -30.4635,-374.927 L -30.2811,-374.973
 L -30.0942,-374.997 L -29.9058,-374.997 L -29.7189,-374.973 L -29.5365,-374.927 L -29.3613,-374.857 L -29.1963,-374.766
 L -29.0439,-374.656 L -28.9065,-374.527 L -28.7865,-374.382 L -28.6855,-374.223 L -28.6053,-374.052 L -28.5471,-373.873
 L -28.5118,-373.688 L -28.5,-373.5 L -28.5118,-373.312 L -28.5471,-373.127 L -28.6053,-372.948 L -28.6855,-372.777
 L -28.7865,-372.618 L -28.9065,-372.473 L -29.0439,-372.344 L -29.1963,-372.234 L -29.3613,-372.143 L -29.5365,-372.073
 L -29.7189,-372.027 L -29.9058,-372.003 z
M 29.8116,-363.006 L 29.4379,-363.053 L 29.0729,-363.147 L 28.7227,-363.286 L 28.3925,-363.467 L 28.0877,-363.688
 L 27.8131,-363.946 L 27.5729,-364.237 L 27.3711,-364.555 L 27.2107,-364.896 L 27.0942,-365.254 L 27.0237,-365.624
 L 27,-366 L 27.0237,-366.376 L 27.0942,-366.746 L 27.2107,-367.104 L 27.3711,-367.445 L 27.5729,-367.763
 L 27.8131,-368.054 L 28.0877,-368.312 L 28.3925,-368.533 L 28.7227,-368.714 L 29.0729,-368.853 L 29.4379,-368.947
 L 29.8116,-368.994 L 30.1884,-368.994 L 30.5621,-368.947 L 30.927,-368.853 L 31.2773,-368.714 L 31.6075,-368.533
 L 31.9123,-368.312 L 32.1869,-368.054 L 32.427,-367.763 L 32.6289,-367.445 L 32.7893,-367.104 L 32.9057,-366.746
 L 32.9763,-366.376 L 33,-366 L 32.9763,-365.624 L 32.9057,-365.254 L 32.7893,-364.896 L 32.6289,-364.555
 L 32.427,-364.237 L 32.1869,-363.946 L 31.9123,-363.688 L 31.6075,-363.467 L 31.2773,-363.286 L 30.927,-363.147
 L 30.5621,-363.053 L 30.1884,-363.006 z
M -30.1884,-363.006 L -30.5621,-363.053 L -30.927,-363.147 L -31.2773,-363.286 L -31.6075,-363.467 L -31.9123,-363.688
 L -32.1869,-363.946 L -32.427,-364.237 L -32.6289,-364.555 L -32.7893,-364.896 L -32.9057,-365.254 L -32.9763,-365.624
 L -33,-366 L -32.9763,-366.376 L -32.9057,-366.746 L -32.7893,-367.104 L -32.6289,-367.445 L -32.427,-367.763
 L -32.1869,-368.054 L -31.9123,-368.312 L -31.6075,-368.533 L -31.2773,-368.714 L -30.927,-368.853 L -30.5621,-368.947
 L -30.1884,-368.994 L -29.8116,-368.994 L -29.4379,-368.947 L -29.0729,-368.853 L -28.7227,-368.714 L -28.3925,-368.533
 L -28.0877,-368.312 L -27.8131,-368.054 L -27.5729,-367.763 L -27.3711,-367.445 L -27.2107,-367.104 L -27.0942,-366.746
 L -27.0237,-366.376 L -27,-366 L -27.0237,-365.624 L -27.0942,-365.254 L -27.2107,-364.896 L -27.3711,-364.555
 L -27.5729,-364.237 L -27.8131,-363.946 L -28.0877,-363.688 L -28.3925,-363.467 L -28.7227,-363.286 L -29.0729,-363.147
 L -29.4379,-363.053 L -29.8116,-363.006 z
M -30.0942,-357.003 L -30.2811,-357.027 L -30.4635,-357.073 L -30.6387,-357.143 L -30.8037,-357.234 L -30.9561,-357.344
 L -31.0934,-357.473 L -31.2135,-357.618 L -31.3145,-357.777 L -31.3947,-357.948 L -31.4529,-358.127 L -31.4882,-358.312
 L -31.5,-358.5 L -31.4882,-358.688 L -31.4529,-358.873 L -31.3947,-359.052 L -31.3145,-359.223 L -31.2135,-359.382
 L -31.0934,-359.527 L -30.9561,-359.656 L -30.8037,-359.766 L -30.6387,-359.857 L -30.4635,-359.927 L -30.2811,-359.973
 L -30.0942,-359.997 L -29.9058,-359.997 L -29.7189,-359.973 L -29.5365,-359.927 L -29.3613,-359.857 L -29.1963,-359.766
 L -29.0439,-359.656 L -28.9065,-359.527 L -28.7865,-359.382 L -28.6855,-359.223 L -28.6053,-359.052 L -28.5471,-358.873
 L -28.5118,-358.688 L -28.5,-358.5 L -28.5118,-358.312 L -28.5471,-358.127 L -28.6053,-357.948 L -28.6855,-357.777
 L -28.7865,-357.618 L -28.9065,-357.473 L -29.0439,-357.344 L -29.1963,-357.234 L -29.3613,-357.143 L -29.5365,-357.073
 L -29.7189,-357.027 L -29.9058,-357.003 z
M 29.9058,-357.003 L 29.7189,-357.027 L 29.5365,-357.073 L 29.3613,-357.143 L 29.1963,-357.234 L 29.0439,-357.344
 L 28.9065,-357.473 L 28.7865,-357.618 L 28.6855,-357.777 L 28.6053,-357.948 L 28.5471,-358.127 L 28.5118,-358.312
 L 28.5,-358.5 L 28.5118,-358.688 L 28.5471,-358.873 L 28.6053,-359.052 L 28.6855,-359.223 L 28.7865,-359.382
 L 28.9065,-359.527 L 29.0439,-359.656 L 29.1963,-359.766 L 29.3613,-359.857 L 29.5365,-359.927 L 29.7189,-359.973
 L 29.9058,-359.997 L 30.0942,-359.997 L 30.2811,-359.973 L 30.4635,-359.927 L 30.6387,-359.857 L 30.8037,-359.766
 L 30.9561,-359.656 L 31.0934,-359.527 L 31.2135,-359.382 L 31.3145,-359.223 L 31.3947,-359.052 L 31.4529,-358.873
 L 31.4882,-358.688 L 31.5,-358.5 L 31.4882,-358.312 L 31.4529,-358.127 L 31.3947,-357.948 L 31.3145,-357.777
 L 31.2135,-357.618 L 31.0934,-357.473 L 30.9561,-357.344 L 30.8037,-357.234 L 30.6387,-357.143 L 30.4635,-357.073
 L 30.2811,-357.027 L 30.0942,-357.003 z
M 29.8116,-348.006 L 29.4379,-348.053 L 29.0729,-348.147 L 28.7227,-348.286 L 28.3925,-348.467 L 28.0877,-348.688
 L 27.8131,-348.946 L 27.5729,-349.237 L 27.3711,-349.555 L 27.2107,-349.896 L 27.0942,-350.254 L 27.0237,-350.624
 L 27,-351 L 27.0237,-351.376 L 27.0942,-351.746 L 27.2107,-352.104 L 27.3711,-352.445 L 27.5729,-352.763
 L 27.8131,-353.054 L 28.0877,-353.312 L 28.3925,-353.533 L 28.7227,-353.714 L 29.0729,-353.853 L 29.4379,-353.947
 L 29.8116,-353.994 L 30.1884,-353.994 L 30.5621,-353.947 L 30.927,-353.853 L 31.2773,-353.714 L 31.6075,-353.533
 L 31.9123,-353.312 L 32.1869,-353.054 L 32.427,-352.763 L 32.6289,-352.445 L 32.7893,-352.104 L 32.9057,-351.746
 L 32.9763,-351.376 L 33,-351 L 32.9763,-350.624 L 32.9057,-350.254 L 32.7893,-349.896 L 32.6289,-349.555
 L 32.427,-349.237 L 32.1869,-348.946 L 31.9123,-348.688 L 31.6075,-348.467 L 31.2773,-348.286 L 30.927,-348.147
 L 30.5621,-348.053 L 30.1884,-348.006 z
M -30.1884,-348.006 L -30.5621,-348.053 L -30.927,-348.147 L -31.2773,-348.286 L -31.6075,-348.467 L -31.9123,-348.688
 L -32.1869,-348.946 L -32.427,-349.237 L -32.6289,-349.555 L -32.7893,-349.896 L -32.9057,-350.254 L -32.9763,-350.624
 L -33,-351 L -32.9763,-351.376 L -32.9057,-351.746 L -32.7893,-352.104 L -32.6289,-352.445 L -32.427,-352.763
 L -32.1869,-353.054 L -31.9123,-353.312 L -31.6075,-353.533 L -31.2773,-353.714 L -30.927,-353.853 L -30.5621,-353.947
 L -30.1884,-353.994 L -29.8116,-353.994 L -29.4379,-353.947 L -29.0729,-353.853 L -28.7227,-353.714 L -28.3925,-353.533
 L -28.0877,-353.312 L -27.8131,-353.054 L -27.5729,-352.763 L -27.3711,-352.445 L -27.2107,-352.104 L -27.0942,-351.746
 L -27.0237,-351.376 L -27,-351 L -27.0237,-350.624 L -27.0942,-350.254 L -27.2107,-349.896 L -27.3711,-349.555
 L -27.5729,-349.237 L -27.8131,-348.946 L -28.0877,-348.688 L -28.3925,-348.467 L -28.7227,-348.286 L -29.0729,-348.147
 L -29.4379,-348.053 L -29.8116,-348.006 z
M 29.9058,-342.003 L 29.7189,-342.027 L 29.5365,-342.073 L 29.3613,-342.143 L 29.1963,-342.234 L 29.0439,-342.344
 L 28.9065,-342.473 L 28.7865,-342.618 L 28.6855,-342.777 L 28.6053,-342.948 L 28.5471,-343.127 L 28.5118,-343.312
 L 28.5,-343.5 L 28.5118,-343.688 L 28.5471,-343.873 L 28.6053,-344.052 L 28.6855,-344.223 L 28.7865,-344.382
 L 28.9065,-344.527 L 29.0439,-344.656 L 29.1963,-344.766 L 29.3613,-344.857 L 29.5365,-344.927 L 29.7189,-344.973
 L 29.9058,-344.997 L 30.0942,-344.997 L 30.2811,-344.973 L 30.4635,-344.927 L 30.6387,-344.857 L 30.8037,-344.766
 L 30.9561,-344.656 L 31.0934,-344.527 L 31.2135,-344.382 L 31.3145,-344.223 L 31.3947,-344.052 L 31.4529,-343.873
 L 31.4882,-343.688 L 31.5,-343.5 L 31.4882,-343.312 L 31.4529,-343.127 L 31.3947,-342.948 L 31.3145,-342.777
 L 31.2135,-342.618 L 31.0934,-342.473 L 30.9561,-342.344 L 30.8037,-342.234 L 30.6387,-342.143 L 30.4635,-342.073
 L 30.2811,-342.027 L 30.0942,-342.003 z
M -30.0942,-342.003 L -30.2811,-342.027 L -30.4635,-342.073 L -30.6387,-342.143 L -30.8037,-342.234 L -30.9561,-342.344
 L -31.0934,-342.473 L -31.2135,-342.618 L -31.3145,-342.777 L -31.3947,-342.948 L -31.4529,-343.127 L -31.4882,-343.312
 L -31.5,-343.5 L -31.4882,-343.688 L -31.4529,-343.873 L -31.3947,-344.052 L -31.3145,-344.223 L -31.2135,-344.382
 L -31.0934,-344.527 L -30.9561,-344.656 L -30.8037,-344.766 L -30.6387,-344.857 L -30.4635,-344.927 L -30.2811,-344.973
 L -30.0942,-344.997 L -29.9058,-344.997 L -29.7189,-344.973 L -29.5365,-344.927 L -29.3613,-344.857 L -29.1963,-344.766
 L -29.0439,-344.656 L -28.9065,-344.527 L -28.7865,-344.382 L -28.6855,-344.223 L -28.6053,-344.052 L -28.5471,-343.873
 L -28.5118,-343.688 L -28.5,-343.5 L -28.5118,-343.312 L -28.5471,-343.127 L -28.6053,-342.948 L -28.6855,-342.777
 L -28.7865,-342.618 L -28.9065,-342.473 L -29.0439,-342.344 L -29.1963,-342.234 L -29.3613,-342.143 L -29.5365,-342.073
 L -29.7189,-342.027 L -29.9058,-342.003 z
M 29.8116,-333.006 L 29.4379,-333.053 L 29.0729,-333.147 L 28.7227,-333.286 L 28.3925,-333.467 L 28.0877,-333.688
 L 27.8131,-333.946 L 27.5729,-334.237 L 27.3711,-334.555 L 27.2107,-334.896 L 27.0942,-335.254 L 27.0237,-335.624
 L 27,-336 L 27.0237,-336.376 L 27.0942,-336.746 L 27.2107,-337.104 L 27.3711,-337.445 L 27.5729,-337.763
 L 27.8131,-338.054 L 28.0877,-338.312 L 28.3925,-338.533 L 28.7227,-338.714 L 29.0729,-338.853 L 29.4379,-338.947
 L 29.8116,-338.994 L 30.1884,-338.994 L 30.5621,-338.947 L 30.927,-338.853 L 31.2773,-338.714 L 31.6075,-338.533
 L 31.9123,-338.312 L 32.1869,-338.054 L 32.427,-337.763 L 32.6289,-337.445 L 32.7893,-337.104 L 32.9057,-336.746
 L 32.9763,-336.376 L 33,-336 L 32.9763,-335.624 L 32.9057,-335.254 L 32.7893,-334.896 L 32.6289,-334.555
 L 32.427,-334.237 L 32.1869,-333.946 L 31.9123,-333.688 L 31.6075,-333.467 L 31.2773,-333.286 L 30.927,-333.147
 L 30.5621,-333.053 L 30.1884,-333.006 z
M -15.1884,-333.006 L -15.5621,-333.053 L -15.927,-333.147 L -16.2773,-333.286 L -16.6075,-333.467 L -16.9123,-333.688
 L -17.1869,-333.946 L -17.427,-334.237 L -17.6289,-334.555 L -17.7893,-334.896 L -17.9057,-335.254 L -17.9763,-335.624
 L -18,-336 L -17.9763,-336.376 L -17.9057,-336.746 L -17.7893,-337.104 L -17.6289,-337.445 L -17.427,-337.763
 L -17.1869,-338.054 L -16.9123,-338.312 L -16.6075,-338.533 L -16.2773,-338.714 L -15.927,-338.853 L -15.5621,-338.947
 L -15.1884,-338.994 L -14.8116,-338.994 L -14.4379,-338.947 L -14.0729,-338.853 L -13.7227,-338.714 L -13.3925,-338.533
 L -13.0877,-338.312 L -12.8131,-338.054 L -12.5729,-337.763 L -12.3711,-337.445 L -12.2107,-337.104 L -12.0942,-336.746
 L -12.0237,-336.376 L -12,-336 L -12.0237,-335.624 L -12.0942,-335.254 L -12.2107,-334.896 L -12.3711,-334.555
 L -12.5729,-334.237 L -12.8131,-333.946 L -13.0877,-333.688 L -13.3925,-333.467 L -13.7227,-333.286 L -14.0729,-333.147
 L -14.4379,-333.053 L -14.8116,-333.006 z
M -0.18837,-333.006 L -0.562134,-333.053 L -0.927048,-333.147 L -1.27733,-333.286 L -1.60747,-333.467 L -1.91226,-333.688
 L -2.1869,-333.946 L -2.42705,-334.237 L -2.62891,-334.555 L -2.78932,-334.896 L -2.90575,-335.254 L -2.97633,-335.624
 L -3,-336 L -2.97633,-336.376 L -2.90575,-336.746 L -2.78932,-337.104 L -2.62891,-337.445 L -2.42705,-337.763
 L -2.1869,-338.054 L -1.91226,-338.312 L -1.60747,-338.533 L -1.27733,-338.714 L -0.927048,-338.853 L -0.562134,-338.947
 L -0.18837,-338.994 L 0.18837,-338.994 L 0.562134,-338.947 L 0.927048,-338.853 L 1.27733,-338.714 L 1.60747,-338.533
 L 1.91226,-338.312 L 2.1869,-338.054 L 2.42705,-337.763 L 2.62891,-337.445 L 2.78932,-337.104 L 2.90575,-336.746
 L 2.97633,-336.376 L 3,-336 L 2.97633,-335.624 L 2.90575,-335.254 L 2.78932,-334.896 L 2.62891,-334.555
 L 2.42705,-334.237 L 2.1869,-333.946 L 1.91226,-333.688 L 1.60747,-333.467 L 1.27733,-333.286 L 0.927048,-333.147
 L 0.562134,-333.053 L 0.18837,-333.006 z
M -30.1884,-333.006 L -30.5621,-333.053 L -30.927,-333.147 L -31.2773,-333.286 L -31.6075,-333.467 L -31.9123,-333.688
 L -32.1869,-333.946 L -32.427,-334.237 L -32.6289,-334.555 L -32.7893,-334.896 L -32.9057,-335.254 L -32.9763,-335.624
 L -33,-336 L -32.9763,-336.376 L -32.9057,-336.746 L -32.7893,-337.104 L -32.6289,-337.445 L -32.427,-337.763
 L -32.1869,-338.054 L -31.9123,-338.312 L -31.6075,-338.533 L -31.2773,-338.714 L -30.927,-338.853 L -30.5621,-338.947
 L -30.1884,-338.994 L -29.8116,-338.994 L -29.4379,-338.947 L -29.0729,-338.853 L -28.7227,-338.714 L -28.3925,-338.533
 L -28.0877,-338.312 L -27.8131,-338.054 L -27.5729,-337.763 L -27.3711,-337.445 L -27.2107,-337.104 L -27.0942,-336.746
 L -27.0237,-336.376 L -27,-336 L -27.0237,-335.624 L -27.0942,-335.254 L -27.2107,-334.896 L -27.3711,-334.555
 L -27.5729,-334.237 L -27.8131,-333.946 L -28.0877,-333.688 L -28.3925,-333.467 L -28.7227,-333.286 L -29.0729,-333.147
 L -29.4379,-333.053 L -29.8116,-333.006 z
M 14.8116,-333.006 L 14.4379,-333.053 L 14.0729,-333.147 L 13.7227,-333.286 L 13.3925,-333.467 L 13.0877,-333.688
 L 12.8131,-333.946 L 12.5729,-334.237 L 12.3711,-334.555 L 12.2107,-334.896 L 12.0942,-335.254 L 12.0237,-335.624
 L 12,-336 L 12.0237,-336.376 L 12.0942,-336.746 L 12.2107,-337.104 L 12.3711,-337.445 L 12.5729,-337.763
 L 12.8131,-338.054 L 13.0877,-338.312 L 13.3925,-338.533 L 13.7227,-338.714 L 14.0729,-338.853 L 14.4379,-338.947
 L 14.8116,-338.994 L 15.1884,-338.994 L 15.5621,-338.947 L 15.927,-338.853 L 16.2773,-338.714 L 16.6075,-338.533
 L 16.9123,-338.312 L 17.1869,-338.054 L 17.427,-337.763 L 17.6289,-337.445 L 17.7893,-337.104 L 17.9057,-336.746
 L 17.9763,-336.376 L 18,-336 L 17.9763,-335.624 L 17.9057,-335.254 L 17.7893,-334.896 L 17.6289,-334.555
 L 17.427,-334.237 L 17.1869,-333.946 L 16.9123,-333.688 L 16.6075,-333.467 L 16.2773,-333.286 L 15.927,-333.147
 L 15.5621,-333.053 L 15.1884,-333.006 z
M 22.4058,-334.503 L 22.2189,-334.527 L 22.0365,-334.573 L 21.8613,-334.643 L 21.6963,-334.734 L 21.5439,-334.844
 L 21.4065,-334.973 L 21.2865,-335.118 L 21.1855,-335.277 L 21.1053,-335.448 L 21.0471,-335.627 L 21.0118,-335.812
 L 21,-336 L 21.0118,-336.188 L 21.0471,-336.373 L 21.1053,-336.552 L 21.1855,-336.723 L 21.2865,-336.882
 L 21.4065,-337.027 L 21.5439,-337.156 L 21.6963,-337.266 L 21.8613,-337.357 L 22.0365,-337.427 L 22.2189,-337.473
 L 22.4058,-337.497 L 22.5942,-337.497 L 22.7811,-337.473 L 22.9635,-337.427 L 23.1387,-337.357 L 23.3037,-337.266
 L 23.4561,-337.156 L 23.5934,-337.027 L 23.7135,-336.882 L 23.8145,-336.723 L 23.8947,-336.552 L 23.9529,-336.373
 L 23.9882,-336.188 L 24,-336 L 23.9882,-335.812 L 23.9529,-335.627 L 23.8947,-335.448 L 23.8145,-335.277
 L 23.7135,-335.118 L 23.5934,-334.973 L 23.4561,-334.844 L 23.3037,-334.734 L 23.1387,-334.643 L 22.9635,-334.573
 L 22.7811,-334.527 L 22.5942,-334.503 z
M -22.5942,-334.503 L -22.7811,-334.527 L -22.9635,-334.573 L -23.1387,-334.643 L -23.3037,-334.734 L -23.4561,-334.844
 L -23.5934,-334.973 L -23.7135,-335.118 L -23.8145,-335.277 L -23.8947,-335.448 L -23.9529,-335.627 L -23.9882,-335.812
 L -24,-336 L -23.9882,-336.188 L -23.9529,-336.373 L -23.8947,-336.552 L -23.8145,-336.723 L -23.7135,-336.882
 L -23.5934,-337.027 L -23.4561,-337.156 L -23.3037,-337.266 L -23.1387,-337.357 L -22.9635,-337.427 L -22.7811,-337.473
 L -22.5942,-337.497 L -22.4058,-337.497 L -22.2189,-337.473 L -22.0365,-337.427 L -21.8613,-337.357 L -21.6963,-337.266
 L -21.5439,-337.156 L -21.4065,-337.027 L -21.2865,-336.882 L -21.1855,-336.723 L -21.1053,-336.552 L -21.0471,-336.373
 L -21.0118,-336.188 L -21,-336 L -21.0118,-335.812 L -21.0471,-335.627 L -21.1053,-335.448 L -21.1855,-335.277
 L -21.2865,-335.118 L -21.4065,-334.973 L -21.5439,-334.844 L -21.6963,-334.734 L -21.8613,-334.643 L -22.0365,-334.573
 L -22.2189,-334.527 L -22.4058,-334.503 z
M 7.40581,-334.503 L 7.21892,-334.527 L 7.03647,-334.573 L 6.86133,-334.643 L 6.69626,-334.734 L 6.54385,-334.844
 L 6.40654,-334.973 L 6.28647,-335.118 L 6.18553,-335.277 L 6.10533,-335.448 L 6.04712,-335.627 L 6.01183,-335.812
 L 6,-336 L 6.01183,-336.188 L 6.04712,-336.373 L 6.10533,-336.552 L 6.18553,-336.723 L 6.28647,-336.882
 L 6.40654,-337.027 L 6.54385,-337.156 L 6.69626,-337.266 L 6.86133,-337.357 L 7.03647,-337.427 L 7.21892,-337.473
 L 7.40581,-337.497 L 7.59418,-337.497 L 7.78107,-337.473 L 7.96352,-337.427 L 8.13866,-337.357 L 8.30373,-337.266
 L 8.45613,-337.156 L 8.59344,-337.027 L 8.71352,-336.882 L 8.81445,-336.723 L 8.89465,-336.552 L 8.95287,-336.373
 L 8.98816,-336.188 L 9,-336 L 8.98816,-335.812 L 8.95287,-335.627 L 8.89465,-335.448 L 8.81445,-335.277
 L 8.71352,-335.118 L 8.59344,-334.973 L 8.45613,-334.844 L 8.30373,-334.734 L 8.13866,-334.643 L 7.96352,-334.573
 L 7.78107,-334.527 L 7.59418,-334.503 z
M -7.59418,-334.503 L -7.78107,-334.527 L -7.96352,-334.573 L -8.13866,-334.643 L -8.30373,-334.734 L -8.45613,-334.844
 L -8.59344,-334.973 L -8.71352,-335.118 L -8.81445,-335.277 L -8.89465,-335.448 L -8.95287,-335.627 L -8.98816,-335.812
 L -9,-336 L -8.98816,-336.188 L -8.95287,-336.373 L -8.89465,-336.552 L -8.81445,-336.723 L -8.71352,-336.882
 L -8.59344,-337.027 L -8.45613,-337.156 L -8.30373,-337.266 L -8.13866,-337.357 L -7.96352,-337.427 L -7.78107,-337.473
 L -7.59418,-337.497 L -7.40581,-337.497 L -7.21892,-337.473 L -7.03647,-337.427 L -6.86133,-337.357 L -6.69626,-337.266
 L -6.54385,-337.156 L -6.40654,-337.027 L -6.28647,-336.882 L -6.18553,-336.723 L -6.10533,-336.552 L -6.04712,-336.373
 L -6.01183,-336.188 L -6,-336 L -6.01183,-335.812 L -6.04712,-335.627 L -6.10533,-335.448 L -6.18553,-335.277
 L -6.28647,-335.118 L -6.40654,-334.973 L -6.54385,-334.844 L -6.69626,-334.734 L -6.86133,-334.643 L -7.03647,-334.573
 L -7.21892,-334.527 L -7.40581,-334.503 z
M 32.9369,-245.089 L 33.5451,-245.245 L 34.1289,-245.476 L 34.6791,-245.778 L 35.1871,-246.147 L 35.6448,-246.577
 L 36.0451,-247.061 L 36.3815,-247.591 L 36.6489,-248.159 L 36.8429,-248.757 L 36.9606,-249.373 L 37,-250
 L 37,-314 L 36.9606,-314.627 L 36.8429,-315.243 L 36.6489,-315.841 L 36.3815,-316.409 L 36.0451,-316.939
 L 35.6448,-317.423 L 35.1871,-317.853 L 34.6791,-318.222 L 34.1289,-318.524 L 33.5451,-318.755 L 32.9369,-318.911
 L 32.3139,-318.99 L 27.686,-318.99 L 27.0631,-318.911 L 26.4549,-318.755 L 25.8711,-318.524 L 25.3209,-318.222
 L 24.8129,-317.853 L 24.3551,-317.423 L 23.9549,-316.939 L 23.6185,-316.409 L 23.3511,-315.841 L 23.1571,-315.243
 L 23.0394,-314.627 L 23,-314 L 23,-258.99 L -23,-258.99 L -23,-314 L -23.0394,-314.627
 L -23.1571,-315.243 L -23.3511,-315.841 L -23.6185,-316.409 L -23.9549,-316.939 L -24.3551,-317.423 L -24.8129,-317.853
 L -25.3209,-318.222 L -25.8711,-318.524 L -26.4549,-318.755 L -27.0631,-318.911 L -27.686,-318.99 L -32.3139,-318.99
 L -32.9369,-318.911 L -33.5451,-318.755 L -34.1289,-318.524 L -34.6791,-318.222 L -35.1871,-317.853 L -35.6448,-317.423
 L -36.0451,-316.939 L -36.3815,-316.409 L -36.6489,-315.841 L -36.8429,-315.243 L -36.9606,-314.627 L -37,-314
 L -37,-250 L -36.9606,-249.373 L -36.8429,-248.757 L -36.6489,-248.159 L -36.3815,-247.591 L -36.0451,-247.061
 L -35.6448,-246.577 L -35.1871,-246.147 L -34.6791,-245.778 L -34.1289,-245.476 L -33.5451,-245.245 L -32.9369,-245.089
 L -32.3139,-245.01 L 32.3139,-245.01 z
M -30.1884,-309.006 L -30.5621,-309.053 L -30.927,-309.147 L -31.2773,-309.286 L -31.6075,-309.467 L -31.9123,-309.688
 L -32.1869,-309.946 L -32.427,-310.237 L -32.6289,-310.555 L -32.7893,-310.896 L -32.9057,-311.254 L -32.9763,-311.624
 L -33,-312 L -32.9763,-312.376 L -32.9057,-312.746 L -32.7893,-313.104 L -32.6289,-313.445 L -32.427,-313.763
 L -32.1869,-314.054 L -31.9123,-314.312 L -31.6075,-314.533 L -31.2773,-314.714 L -30.927,-314.853 L -30.5621,-314.947
 L -30.1884,-314.994 L -29.8116,-314.994 L -29.4379,-314.947 L -29.0729,-314.853 L -28.7227,-314.714 L -28.3925,-314.533
 L -28.0877,-314.312 L -27.8131,-314.054 L -27.5729,-313.763 L -27.3711,-313.445 L -27.2107,-313.104 L -27.0942,-312.746
 L -27.0237,-312.376 L -27,-312 L -27.0237,-311.624 L -27.0942,-311.254 L -27.2107,-310.896 L -27.3711,-310.555
 L -27.5729,-310.237 L -27.8131,-309.946 L -28.0877,-309.688 L -28.3925,-309.467 L -28.7227,-309.286 L -29.0729,-309.147
 L -29.4379,-309.053 L -29.8116,-309.006 z
M 29.8116,-309.006 L 29.4379,-309.053 L 29.0729,-309.147 L 28.7227,-309.286 L 28.3925,-309.467 L 28.0877,-309.688
 L 27.8131,-309.946 L 27.5729,-310.237 L 27.3711,-310.555 L 27.2107,-310.896 L 27.0942,-311.254 L 27.0237,-311.624
 L 27,-312 L 27.0237,-312.376 L 27.0942,-312.746 L 27.2107,-313.104 L 27.3711,-313.445 L 27.5729,-313.763
 L 27.8131,-314.054 L 28.0877,-314.312 L 28.3925,-314.533 L 28.7227,-314.714 L 29.0729,-314.853 L 29.4379,-314.947
 L 29.8116,-314.994 L 30.1884,-314.994 L 30.5621,-314.947 L 30.927,-314.853 L 31.2773,-314.714 L 31.6075,-314.533
 L 31.9123,-314.312 L 32.1869,-314.054 L 32.427,-313.763 L 32.6289,-313.445 L 32.7893,-313.104 L 32.9057,-312.746
 L 32.9763,-312.376 L 33,-312 L 32.9763,-311.624 L 32.9057,-311.254 L 32.7893,-310.896 L 32.6289,-310.555
 L 32.427,-310.237 L 32.1869,-309.946 L 31.9123,-309.688 L 31.6075,-309.467 L 31.2773,-309.286 L 30.927,-309.147
 L 30.5621,-309.053 L 30.1884,-309.006 z
M 29.9058,-303.003 L 29.7189,-303.027 L 29.5365,-303.073 L 29.3613,-303.143 L 29.1963,-303.234 L 29.0439,-303.344
 L 28.9065,-303.473 L 28.7865,-303.618 L 28.6855,-303.777 L 28.6053,-303.948 L 28.5471,-304.127 L 28.5118,-304.312
 L 28.5,-304.5 L 28.5118,-304.688 L 28.5471,-304.873 L 28.6053,-305.052 L 28.6855,-305.223 L 28.7865,-305.382
 L 28.9065,-305.527 L 29.0439,-305.656 L 29.1963,-305.766 L 29.3613,-305.857 L 29.5365,-305.927 L 29.7189,-305.973
 L 29.9058,-305.997 L 30.0942,-305.997 L 30.2811,-305.973 L 30.4635,-305.927 L 30.6387,-305.857 L 30.8037,-305.766
 L 30.9561,-305.656 L 31.0934,-305.527 L 31.2135,-305.382 L 31.3145,-305.223 L 31.3947,-305.052 L 31.4529,-304.873
 L 31.4882,-304.688 L 31.5,-304.5 L 31.4882,-304.312 L 31.4529,-304.127 L 31.3947,-303.948 L 31.3145,-303.777
 L 31.2135,-303.618 L 31.0934,-303.473 L 30.9561,-303.344 L 30.8037,-303.234 L 30.6387,-303.143 L 30.4635,-303.073
 L 30.2811,-303.027 L 30.0942,-303.003 z
M -30.0942,-303.003 L -30.2811,-303.027 L -30.4635,-303.073 L -30.6387,-303.143 L -30.8037,-303.234 L -30.9561,-303.344
 L -31.0934,-303.473 L -31.2135,-303.618 L -31.3145,-303.777 L -31.3947,-303.948 L -31.4529,-304.127 L -31.4882,-304.312
 L -31.5,-304.5 L -31.4882,-304.688 L -31.4529,-304.873 L -31.3947,-305.052 L -31.3145,-305.223 L -31.2135,-305.382
 L -31.0934,-305.527 L -30.9561,-305.656 L -30.8037,-305.766 L -30.6387,-305.857 L -30.4635,-305.927 L -30.2811,-305.973
 L -30.0942,-305.997 L -29.9058,-305.997 L -29.7189,-305.973 L -29.5365,-305.927 L -29.3613,-305.857 L -29.1963,-305.766
 L -29.0439,-305.656 L -28.9065,-305.527 L -28.7865,-305.382 L -28.6855,-305.223 L -28.6053,-305.052 L -28.5471,-304.873
 L -28.5118,-304.688 L -28.5,-304.5 L -28.5118,-304.312 L -28.5471,-304.127 L -28.6053,-303.948 L -28.6855,-303.777
 L -28.7865,-303.618 L -28.9065,-303.473 L -29.0439,-303.344 L -29.1963,-303.234 L -29.3613,-303.143 L -29.5365,-303.073
 L -29.7189,-303.027 L -29.9058,-303.003 z
M 29.8116,-294.006 L 29.4379,-294.053 L 29.0729,-294.147 L 28.7227,-294.286 L 28.3925,-294.467 L 28.0877,-294.688
 L 27.8131,-294.946 L 27.5729,-295.237 L 27.3711,-295.555 L 27.2107,-295.896 L 27.0942,-296.254 L 27.0237,-296.624
 L 27,-297 L 27.0237,-297.376 L 27.0942,-297.746 L 27.2107,-298.104 L 27.3711,-298.445 L 27.5729,-298.763
 L 27.8131,-299.054 L 28.0877,-299.312 L 28.3925,-299.533 L 28.7227,-299.714 L 29.0729,-299.853 L 29.4379,-299.947
 L 29.8116,-299.994 L 30.1884,-299.994 L 30.5621,-299.947 L 30.927,-299.853 L 31.2773,-299.714 L 31.6075,-299.533
 L 31.9123,-299.312 L 32.1869,-299.054 L 32.427,-298.763 L 32.6289,-298.445 L 32.7893,-298.104 L 32.9057,-297.746
 L 32.9763,-297.376 L 33,-297 L 32.9763,-296.624 L 32.9057,-296.254 L 32.7893,-295.896 L 32.6289,-295.555
 L 32.427,-295.237 L 32.1869,-294.946 L 31.9123,-294.688 L 31.6075,-294.467 L 31.2773,-294.286 L 30.927,-294.147
 L 30.5621,-294.053 L 30.1884,-294.006 z
M -30.1884,-294.006 L -30.5621,-294.053 L -30.927,-294.147 L -31.2773,-294.286 L -31.6075,-294.467 L -31.9123,-294.688
 L -32.1869,-294.946 L -32.427,-295.237 L -32.6289,-295.555 L -32.7893,-295.896 L -32.9057,-296.254 L -32.9763,-296.624
 L -33,-297 L -32.9763,-297.376 L -32.9057,-297.746 L -32.7893,-298.104 L -32.6289,-298.445 L -32.427,-298.763
 L -32.1869,-299.054 L -31.9123,-299.312 L -31.6075,-299.533 L -31.2773,-299.714 L -30.927,-299.853 L -30.5621,-299.947
 L -30.1884,-299.994 L -29.8116,-299.994 L -29.4379,-299.947 L -29.0729,-299.853 L -28.7227,-299.714 L -28.3925,-299.533
 L -28.0877,-299.312 L -27.8131,-299.054 L -27.5729,-298.763 L -27.3711,-298.445 L -27.2107,-298.104 L -27.0942,-297.746
 L -27.0237,-297.376 L -27,-297 L -27.0237,-296.624 L -27.0942,-296.254 L -27.2107,-295.896 L -27.3711,-295.555
 L -27.5729,-295.237 L -27.8131,-294.946 L -28.0877,-294.688 L -28.3925,-294.467 L -28.7227,-294.286 L -29.0729,-294.147
 L -29.4379,-294.053 L -29.8116,-294.006 z
M -30.0942,-288.003 L -30.2811,-288.027 L -30.4635,-288.073 L -30.6387,-288.143 L -30.8037,-288.234 L -30.9561,-288.344
 L -31.0934,-288.473 L -31.2135,-288.618 L -31.3145,-288.777 L -31.3947,-288.948 L -31.4529,-289.127 L -31.4882,-289.312
 L -31.5,-289.5 L -31.4882,-289.688 L -31.4529,-289.873 L -31.3947,-290.052 L -31.3145,-290.223 L -31.2135,-290.382
 L -31.0934,-290.527 L -30.9561,-290.656 L -30.8037,-290.766 L -30.6387,-290.857 L -30.4635,-290.927 L -30.2811,-290.973
 L -30.0942,-290.997 L -29.9058,-290.997 L -29.7189,-290.973 L -29.5365,-290.927 L -29.3613,-290.857 L -29.1963,-290.766
 L -29.0439,-290.656 L -28.9065,-290.527 L -28.7865,-290.382 L -28.6855,-290.223 L -28.6053,-290.052 L -28.5471,-289.873
 L -28.5118,-289.688 L -28.5,-289.5 L -28.5118,-289.312 L -28.5471,-289.127 L -28.6053,-288.948 L -28.6855,-288.777
 L -28.7865,-288.618 L -28.9065,-288.473 L -29.0439,-288.344 L -29.1963,-288.234 L -29.3613,-288.143 L -29.5365,-288.073
 L -29.7189,-288.027 L -29.9058,-288.003 z
M 29.9058,-288.003 L 29.7189,-288.027 L 29.5365,-288.073 L 29.3613,-288.143 L 29.1963,-288.234 L 29.0439,-288.344
 L 28.9065,-288.473 L 28.7865,-288.618 L 28.6855,-288.777 L 28.6053,-288.948 L 28.5471,-289.127 L 28.5118,-289.312
 L 28.5,-289.5 L 28.5118,-289.688 L 28.5471,-289.873 L 28.6053,-290.052 L 28.6855,-290.223 L 28.7865,-290.382
 L 28.9065,-290.527 L 29.0439,-290.656 L 29.1963,-290.766 L 29.3613,-290.857 L 29.5365,-290.927 L 29.7189,-290.973
 L 29.9058,-290.997 L 30.0942,-290.997 L 30.2811,-290.973 L 30.4635,-290.927 L 30.6387,-290.857 L 30.8037,-290.766
 L 30.9561,-290.656 L 31.0934,-290.527 L 31.2135,-290.382 L 31.3145,-290.223 L 31.3947,-290.052 L 31.4529,-289.873
 L 31.4882,-289.688 L 31.5,-289.5 L 31.4882,-289.312 L 31.4529,-289.127 L 31.3947,-288.948 L 31.3145,-288.777
 L 31.2135,-288.618 L 31.0934,-288.473 L 30.9561,-288.344 L 30.8037,-288.234 L 30.6387,-288.143 L 30.4635,-288.073
 L 30.2811,-288.027 L 30.0942,-288.003 z
M -30.1884,-279.006 L -30.5621,-279.053 L -30.927,-279.147 L -31.2773,-279.286 L -31.6075,-279.467 L -31.9123,-279.688
 L -32.1869,-279.946 L -32.427,-280.237 L -32.6289,-280.555 L -32.7893,-280.896 L -32.9057,-281.254 L -32.9763,-281.624
 L -33,-282 L -32.9763,-282.376 L -32.9057,-282.746 L -32.7893,-283.104 L -32.6289,-283.445 L -32.427,-283.763
 L -32.1869,-284.054 L -31.9123,-284.312 L -31.6075,-284.533 L -31.2773,-284.714 L -30.927,-284.853 L -30.5621,-284.947
 L -30.1884,-284.994 L -29.8116,-284.994 L -29.4379,-284.947 L -29.0729,-284.853 L -28.7227,-284.714 L -28.3925,-284.533
 L -28.0877,-284.312 L -27.8131,-284.054 L -27.5729,-283.763 L -27.3711,-283.445 L -27.2107,-283.104 L -27.0942,-282.746
 L -27.0237,-282.376 L -27,-282 L -27.0237,-281.624 L -27.0942,-281.254 L -27.2107,-280.896 L -27.3711,-280.555
 L -27.5729,-280.237 L -27.8131,-279.946 L -28.0877,-279.688 L -28.3925,-279.467 L -28.7227,-279.286 L -29.0729,-279.147
 L -29.4379,-279.053 L -29.8116,-279.006 z
M 29.8116,-279.006 L 29.4379,-279.053 L 29.0729,-279.147 L 28.7227,-279.286 L 28.3925,-279.467 L 28.0877,-279.688
 L 27.8131,-279.946 L 27.5729,-280.237 L 27.3711,-280.555 L 27.2107,-280.896 L 27.0942,-281.254 L 27.0237,-281.624
 L 27,-282 L 27.0237,-282.376 L 27.0942,-282.746 L 27.2107,-283.104 L 27.3711,-283.445 L 27.5729,-283.763
 L 27.8131,-284.054 L 28.0877,-284.312 L 28.3925,-284.533 L 28.7227,-284.714 L 29.0729,-284.853 L 29.4379,-284.947
 L 29.8116,-284.994 L 30.1884,-284.994 L 30.5621,-284.947 L 30.927,-284.853 L 31.2773,-284.714 L 31.6075,-284.533
 L 31.9123,-284.312 L 32.1869,-284.054 L 32.427,-283.763 L 32.6289,-283.445 L 32.7893,-283.104 L 32.9057,-282.746
 L 32.9763,-282.376 L 33,-282 L 32.9763,-281.624 L 32.9057,-281.254 L 32.7893,-280.896 L 32.6289,-280.555
 L 32.427,-280.237 L 32.1869,-279.946 L 31.9123,-279.688 L 31.6075,-279.467 L 31.2773,-279.286 L 30.927,-279.147
 L 30.5621,-279.053 L 30.1884,-279.006 z
M -30.0942,-273.003 L -30.2811,-273.027 L -30.4635,-273.073 L -30.6387,-273.143 L -30.8037,-273.234 L -30.9561,-273.344
 L -31.0934,-273.473 L -31.2135,-273.618 L -31.3145,-273.777 L -31.3947,-273.948 L -31.4529,-274.127 L -31.4882,-274.312
 L -31.5,-274.5 L -31.4882,-274.688 L -31.4529,-274.873 L -31.3947,-275.052 L -31.3145,-275.223 L -31.2135,-275.382
 L -31.0934,-275.527 L -30.9561,-275.656 L -30.8037,-275.766 L -30.6387,-275.857 L -30.4635,-275.927 L -30.2811,-275.973
 L -30.0942,-275.997 L -29.9058,-275.997 L -29.7189,-275.973 L -29.5365,-275.927 L -29.3613,-275.857 L -29.1963,-275.766
 L -29.0439,-275.656 L -28.9065,-275.527 L -28.7865,-275.382 L -28.6855,-275.223 L -28.6053,-275.052 L -28.5471,-274.873
 L -28.5118,-274.688 L -28.5,-274.5 L -28.5118,-274.312 L -28.5471,-274.127 L -28.6053,-273.948 L -28.6855,-273.777
 L -28.7865,-273.618 L -28.9065,-273.473 L -29.0439,-273.344 L -29.1963,-273.234 L -29.3613,-273.143 L -29.5365,-273.073
 L -29.7189,-273.027 L -29.9058,-273.003 z
M 29.9058,-273.003 L 29.7189,-273.027 L 29.5365,-273.073 L 29.3613,-273.143 L 29.1963,-273.234 L 29.0439,-273.344
 L 28.9065,-273.473 L 28.7865,-273.618 L 28.6855,-273.777 L 28.6053,-273.948 L 28.5471,-274.127 L 28.5118,-274.312
 L 28.5,-274.5 L 28.5118,-274.688 L 28.5471,-274.873 L 28.6053,-275.052 L 28.6855,-275.223 L 28.7865,-275.382
 L 28.9065,-275.527 L 29.0439,-275.656 L 29.1963,-275.766 L 29.3613,-275.857 L 29.5365,-275.927 L 29.7189,-275.973
 L 29.9058,-275.997 L 30.0942,-275.997 L 30.2811,-275.973 L 30.4635,-275.927 L 30.6387,-275.857 L 30.8037,-275.766
 L 30.9561,-275.656 L 31.0934,-275.527 L 31.2135,-275.382 L 31.3145,-275.223 L 31.3947,-275.052 L 31.4529,-274.873
 L 31.4882,-274.688 L 31.5,-274.5 L 31.4882,-274.312 L 31.4529,-274.127 L 31.3947,-273.948 L 31.3145,-273.777
 L 31.2135,-273.618 L 31.0934,-273.473 L 30.9561,-273.344 L 30.8037,-273.234 L 30.6387,-273.143 L 30.4635,-273.073
 L 30.2811,-273.027 L 30.0942,-273.003 z
M -30.1884,-264.006 L -30.5621,-264.053 L -30.927,-264.147 L -31.2773,-264.286 L -31.6075,-264.467 L -31.9123,-264.688
 L -32.1869,-264.946 L -32.427,-265.237 L -32.6289,-265.555 L -32.7893,-265.896 L -32.9057,-266.254 L -32.9763,-266.624
 L -33,-267 L -32.9763,-267.376 L -32.9057,-267.746 L -32.7893,-268.104 L -32.6289,-268.445 L -32.427,-268.763
 L -32.1869,-269.054 L -31.9123,-269.312 L -31.6075,-269.533 L -31.2773,-269.714 L -30.927,-269.853 L -30.5621,-269.947
 L -30.1884,-269.994 L -29.8116,-269.994 L -29.4379,-269.947 L -29.0729,-269.853 L -28.7227,-269.714 L -28.3925,-269.533
 L -28.0877,-269.312 L -27.8131,-269.054 L -27.5729,-268.763 L -27.3711,-268.445 L -27.2107,-268.104 L -27.0942,-267.746
 L -27.0237,-267.376 L -27,-267 L -27.0237,-266.624 L -27.0942,-266.254 L -27.2107,-265.896 L -27.3711,-265.555
 L -27.5729,-265.237 L -27.8131,-264.946 L -28.0877,-264.688 L -28.3925,-264.467 L -28.7227,-264.286 L -29.0729,-264.147
 L -29.4379,-264.053 L -29.8116,-264.006 z
M 29.8116,-264.006 L 29.4379,-264.053 L 29.0729,-264.147 L 28.7227,-264.286 L 28.3925,-264.467 L 28.0877,-264.688
 L 27.8131,-264.946 L 27.5729,-265.237 L 27.3711,-265.555 L 27.2107,-265.896 L 27.0942,-266.254 L 27.0237,-266.624
 L 27,-267 L 27.0237,-267.376 L 27.0942,-267.746 L 27.2107,-268.104 L 27.3711,-268.445 L 27.5729,-268.763
 L 27.8131,-269.054 L 28.0877,-269.312 L 28.3925,-269.533 L 28.7227,-269.714 L 29.0729,-269.853 L 29.4379,-269.947
 L 29.8116,-269.994 L 30.1884,-269.994 L 30.5621,-269.947 L 30.927,-269.853 L 31.2773,-269.714 L 31.6075,-269.533
 L 31.9123,-269.312 L 32.1869,-269.054 L 32.427,-268.763 L 32.6289,-268.445 L 32.7893,-268.104 L 32.9057,-267.746
 L 32.9763,-267.376 L 33,-267 L 32.9763,-266.624 L 32.9057,-266.254 L 32.7893,-265.896 L 32.6289,-265.555
 L 32.427,-265.237 L 32.1869,-264.946 L 31.9123,-264.688 L 31.6075,-264.467 L 31.2773,-264.286 L 30.927,-264.147
 L 30.5621,-264.053 L 30.1884,-264.006 z
M -30.0942,-258.003 L -30.2811,-258.027 L -30.4635,-258.073 L -30.6387,-258.143 L -30.8037,-258.234 L -30.9561,-258.344
 L -31.0934,-258.473 L -31.2135,-258.618 L -31.3145,-258.777 L -31.3947,-258.948 L -31.4529,-259.127 L -31.4882,-259.312
 L -31.5,-259.5 L -31.4882,-259.688 L -31.4529,-259.873 L -31.3947,-260.052 L -31.3145,-260.223 L -31.2135,-260.382
 L -31.0934,-260.527 L -30.9561,-260.656 L -30.8037,-260.766 L -30.6387,-260.857 L -30.4635,-260.927 L -30.2811,-260.973
 L -30.0942,-260.997 L -29.9058,-260.997 L -29.7189,-260.973 L -29.5365,-260.927 L -29.3613,-260.857 L -29.1963,-260.766
 L -29.0439,-260.656 L -28.9065,-260.527 L -28.7865,-260.382 L -28.6855,-260.223 L -28.6053,-260.052 L -28.5471,-259.873
 L -28.5118,-259.688 L -28.5,-259.5 L -28.5118,-259.312 L -28.5471,-259.127 L -28.6053,-258.948 L -28.6855,-258.777
 L -28.7865,-258.618 L -28.9065,-258.473 L -29.0439,-258.344 L -29.1963,-258.234 L -29.3613,-258.143 L -29.5365,-258.073
 L -29.7189,-258.027 L -29.9058,-258.003 z
M 29.9058,-258.003 L 29.7189,-258.027 L 29.5365,-258.073 L 29.3613,-258.143 L 29.1963,-258.234 L 29.0439,-258.344
 L 28.9065,-258.473 L 28.7865,-258.618 L 28.6855,-258.777 L 28.6053,-258.948 L 28.5471,-259.127 L 28.5118,-259.312
 L 28.5,-259.5 L 28.5118,-259.688 L 28.5471,-259.873 L 28.6053,-260.052 L 28.6855,-260.223 L 28.7865,-260.382
 L 28.9065,-260.527 L 29.0439,-260.656 L 29.1963,-260.766 L 29.3613,-260.857 L 29.5365,-260.927 L 29.7189,-260.973
 L 29.9058,-260.997 L 30.0942,-260.997 L 30.2811,-260.973 L 30.4635,-260.927 L 30.6387,-260.857 L 30.8037,-260.766
 L 30.9561,-260.656 L 31.0934,-260.527 L 31.2135,-260.382 L 31.3145,-260.223 L 31.3947,-260.052 L 31.4529,-259.873
 L 31.4882,-259.688 L 31.5,-259.5 L 31.4882,-259.312 L 31.4529,-259.127 L 31.3947,-258.948 L 31.3145,-258.777
 L 31.2135,-258.618 L 31.0934,-258.473 L 30.9561,-258.344 L 30.8037,-258.234 L 30.6387,-258.143 L 30.4635,-258.073
 L 30.2811,-258.027 L 30.0942,-258.003 z
M 29.8116,-249.006 L 29.4379,-249.053 L 29.0729,-249.147 L 28.7227,-249.286 L 28.3925,-249.467 L 28.0877,-249.688
 L 27.8131,-249.946 L 27.5729,-250.237 L 27.3711,-250.555 L 27.2107,-250.896 L 27.0942,-251.254 L 27.0237,-251.624
 L 27,-252 L 27.0237,-252.376 L 27.0942,-252.746 L 27.2107,-253.104 L 27.3711,-253.445 L 27.5729,-253.763
 L 27.8131,-254.054 L 28.0877,-254.312 L 28.3925,-254.533 L 28.7227,-254.714 L 29.0729,-254.853 L 29.4379,-254.947
 L 29.8116,-254.994 L 30.1884,-254.994 L 30.5621,-254.947 L 30.927,-254.853 L 31.2773,-254.714 L 31.6075,-254.533
 L 31.9123,-254.312 L 32.1869,-254.054 L 32.427,-253.763 L 32.6289,-253.445 L 32.7893,-253.104 L 32.9057,-252.746
 L 32.9763,-252.376 L 33,-252 L 32.9763,-251.624 L 32.9057,-251.254 L 32.7893,-250.896 L 32.6289,-250.555
 L 32.427,-250.237 L 32.1869,-249.946 L 31.9123,-249.688 L 31.6075,-249.467 L 31.2773,-249.286 L 30.927,-249.147
 L 30.5621,-249.053 L 30.1884,-249.006 z
M 14.8116,-249.006 L 14.4379,-249.053 L 14.0729,-249.147 L 13.7227,-249.286 L 13.3925,-249.467 L 13.0877,-249.688
 L 12.8131,-249.946 L 12.5729,-250.237 L 12.3711,-250.555 L 12.2107,-250.896 L 12.0942,-251.254 L 12.0237,-251.624
 L 12,-252 L 12.0237,-252.376 L 12.0942,-252.746 L 12.2107,-253.104 L 12.3711,-253.445 L 12.5729,-253.763
 L 12.8131,-254.054 L 13.0877,-254.312 L 13.3925,-254.533 L 13.7227,-254.714 L 14.0729,-254.853 L 14.4379,-254.947
 L 14.8116,-254.994 L 15.1884,-254.994 L 15.5621,-254.947 L 15.927,-254.853 L 16.2773,-254.714 L 16.6075,-254.533
 L 16.9123,-254.312 L 17.1869,-254.054 L 17.427,-253.763 L 17.6289,-253.445 L 17.7893,-253.104 L 17.9057,-252.746
 L 17.9763,-252.376 L 18,-252 L 17.9763,-251.624 L 17.9057,-251.254 L 17.7893,-250.896 L 17.6289,-250.555
 L 17.427,-250.237 L 17.1869,-249.946 L 16.9123,-249.688 L 16.6075,-249.467 L 16.2773,-249.286 L 15.927,-249.147
 L 15.5621,-249.053 L 15.1884,-249.006 z
M -30.1884,-249.006 L -30.5621,-249.053 L -30.927,-249.147 L -31.2773,-249.286 L -31.6075,-249.467 L -31.9123,-249.688
 L -32.1869,-249.946 L -32.427,-250.237 L -32.6289,-250.555 L -32.7893,-250.896 L -32.9057,-251.254 L -32.9763,-251.624
 L -33,-252 L -32.9763,-252.376 L -32.9057,-252.746 L -32.7893,-253.104 L -32.6289,-253.445 L -32.427,-253.763
 L -32.1869,-254.054 L -31.9123,-254.312 L -31.6075,-254.533 L -31.2773,-254.714 L -30.927,-254.853 L -30.5621,-254.947
 L -30.1884,-254.994 L -29.8116,-254.994 L -29.4379,-254.947 L -29.0729,-254.853 L -28.7227,-254.714 L -28.3925,-254.533
 L -28.0877,-254.312 L -27.8131,-254.054 L -27.5729,-253.763 L -27.3711,-253.445 L -27.2107,-253.104 L -27.0942,-252.746
 L -27.0237,-252.376 L -27,-252 L -27.0237,-251.624 L -27.0942,-251.254 L -27.2107,-250.896 L -27.3711,-250.555
 L -27.5729,-250.237 L -27.8131,-249.946 L -28.0877,-249.688 L -28.3925,-249.467 L -28.7227,-249.286 L -29.0729,-249.147
 L -29.4379,-249.053 L -29.8116,-249.006 z
M -0.18837,-249.006 L -0.562134,-249.053 L -0.927048,-249.147 L -1.27733,-249.286 L -1.60747,-249.467 L -1.91226,-249.688
 L -2.1869,-249.946 L -2.42705,-250.237 L -2.62891,-250.555 L -2.78932,-250.896 L -2.90575,-251.254 L -2.97633,-251.624
 L -3,-252 L -2.97633,-252.376 L -2.90575,-252.746 L -2.78932,-253.104 L -2.62891,-253.445 L -2.42705,-253.763
 L -2.1869,-254.054 L -1.91226,-254.312 L -1.60747,-254.533 L -1.27733,-254.714 L -0.927048,-254.853 L -0.562134,-254.947
 L -0.18837,-254.994 L 0.18837,-254.994 L 0.562134,-254.947 L 0.927048,-254.853 L 1.27733,-254.714 L 1.60747,-254.533
 L 1.91226,-254.312 L 2.1869,-254.054 L 2.42705,-253.763 L 2.62891,-253.445 L 2.78932,-253.104 L 2.90575,-252.746
 L 2.97633,-252.376 L 3,-252 L 2.97633,-251.624 L 2.90575,-251.254 L 2.78932,-250.896 L 2.62891,-250.555
 L 2.42705,-250.237 L 2.1869,-249.946 L 1.91226,-249.688 L 1.60747,-249.467 L 1.27733,-249.286 L 0.927048,-249.147
 L 0.562134,-249.053 L 0.18837,-249.006 z
M -15.1884,-249.006 L -15.5621,-249.053 L -15.927,-249.147 L -16.2773,-249.286 L -16.6075,-249.467 L -16.9123,-249.688
 L -17.1869,-249.946 L -17.427,-250.237 L -17.6289,-250.555 L -17.7893,-250.896 L -17.9057,-251.254 L -17.9763,-251.624
 L -18,-252 L -17.9763,-252.376 L -17.9057,-252.746 L -17.7893,-253.104 L -17.6289,-253.445 L -17.427,-253.763
 L -17.1869,-254.054 L -16.9123,-254.312 L -16.6075,-254.533 L -16.2773,-254.714 L -15.927,-254.853 L -15.5621,-254.947
 L -15.1884,-254.994 L -14.8116,-254.994 L -14.4379,-254.947 L -14.0729,-254.853 L -13.7227,-254.714 L -13.3925,-254.533
 L -13.0877,-254.312 L -12.8131,-254.054 L -12.5729,-253.763 L -12.3711,-253.445 L -12.2107,-253.104 L -12.0942,-252.746
 L -12.0237,-252.376 L -12,-252 L -12.0237,-251.624 L -12.0942,-251.254 L -12.2107,-250.896 L -12.3711,-250.555
 L -12.5729,-250.237 L -12.8131,-249.946 L -13.0877,-249.688 L -13.3925,-249.467 L -13.7227,-249.286 L -14.0729,-249.147
 L -14.4379,-249.053 L -14.8116,-249.006 z
M -7.59418,-250.503 L -7.78107,-250.527 L -7.96352,-250.573 L -8.13866,-250.643 L -8.30373,-250.734 L -8.45613,-250.844
 L -8.59344,-250.973 L -8.71352,-251.118 L -8.81445,-251.277 L -8.89465,-251.448 L -8.95287,-251.627 L -8.98816,-251.812
 L -9,-252 L -8.98816,-252.188 L -8.95287,-252.373 L -8.89465,-252.552 L -8.81445,-252.723 L -8.71352,-252.882
 L -8.59344,-253.027 L -8.45613,-253.156 L -8.30373,-253.266 L -8.13866,-253.357 L -7.96352,-253.427 L -7.78107,-253.473
 L -7.59418,-253.497 L -7.40581,-253.497 L -7.21892,-253.473 L -7.03647,-253.427 L -6.86133,-253.357 L -6.69626,-253.266
 L -6.54385,-253.156 L -6.40654,-253.027 L -6.28647,-252.882 L -6.18553,-252.723 L -6.10533,-252.552 L -6.04712,-252.373
 L -6.01183,-252.188 L -6,-252 L -6.01183,-251.812 L -6.04712,-251.627 L -6.10533,-251.448 L -6.18553,-251.277
 L -6.28647,-251.118 L -6.40654,-250.973 L -6.54385,-250.844 L -6.69626,-250.734 L -6.86133,-250.643 L -7.03647,-250.573
 L -7.21892,-250.527 L -7.40581,-250.503 z
M 7.40581,-250.503 L 7.21892,-250.527 L 7.03647,-250.573 L 6.86133,-250.643 L 6.69626,-250.734 L 6.54385,-250.844
 L 6.40654,-250.973 L 6.28647,-251.118 L 6.18553,-251.277 L 6.10533,-251.448 L 6.04712,-251.627 L 6.01183,-251.812
 L 6,-252 L 6.01183,-252.188 L 6.04712,-252.373 L 6.10533,-252.552 L 6.18553,-252.723 L 6.28647,-252.882
 L 6.40654,-253.027 L 6.54385,-253.156 L 6.69626,-253.266 L 6.86133,-253.357 L 7.03647,-253.427 L 7.21892,-253.473
 L 7.40581,-253.497 L 7.59418,-253.497 L 7.78107,-253.473 L 7.96352,-253.427 L 8.13866,-253.357 L 8.30373,-253.266
 L 8.45613,-253.156 L 8.59344,-253.027 L 8.71352,-252.882 L 8.81445,-252.723 L 8.89465,-252.552 L 8.95287,-252.373
 L 8.98816,-252.188 L 9,-252 L 8.98816,-251.812 L 8.95287,-251.627 L 8.89465,-251.448 L 8.81445,-251.277
 L 8.71352,-251.118 L 8.59344,-250.973 L 8.45613,-250.844 L 8.30373,-250.734 L 8.13866,-250.643 L 7.96352,-250.573
 L 7.78107,-250.527 L 7.59418,-250.503 z
M -22.5942,-250.503 L -22.7811,-250.527 L -22.9635,-250.573 L -23.1387,-250.643 L -23.3037,-250.734 L -23.4561,-250.844
 L -23.5934,-250.973 L -23.7135,-251.118 L -23.8145,-251.277 L -23.8947,-251.448 L -23.9529,-251.627 L -23.9882,-251.812
 L -24,-252 L -23.9882,-252.188 L -23.9529,-252.373 L -23.8947,-252.552 L -23.8145,-252.723 L -23.7135,-252.882
 L -23.5934,-253.027 L -23.4561,-253.156 L -23.3037,-253.266 L -23.1387,-253.357 L -22.9635,-253.427 L -22.7811,-253.473
 L -22.5942,-253.497 L -22.4058,-253.497 L -22.2189,-253.473 L -22.0365,-253.427 L -21.8613,-253.357 L -21.6963,-253.266
 L -21.5439,-253.156 L -21.4065,-253.027 L -21.2865,-252.882 L -21.1855,-252.723 L -21.1053,-252.552 L -21.0471,-252.373
 L -21.0118,-252.188 L -21,-252 L -21.0118,-251.812 L -21.0471,-251.627 L -21.1053,-251.448 L -21.1855,-251.277
 L -21.2865,-251.118 L -21.4065,-250.973 L -21.5439,-250.844 L -21.6963,-250.734 L -21.8613,-250.643 L -22.0365,-250.573
 L -22.2189,-250.527 L -22.4058,-250.503 z
M 22.4058,-250.503 L 22.2189,-250.527 L 22.0365,-250.573 L 21.8613,-250.643 L 21.6963,-250.734 L 21.5439,-250.844
 L 21.4065,-250.973 L 21.2865,-251.118 L 21.1855,-251.277 L 21.1053,-251.448 L 21.0471,-251.627 L 21.0118,-251.812
 L 21,-252 L 21.0118,-252.188 L 21.0471,-252.373 L 21.1053,-252.552 L 21.1855,-252.723 L 21.2865,-252.882
 L 21.4065,-253.027 L 21.5439,-253.156 L 21.6963,-253.266 L 21.8613,-253.357 L 22.0365,-253.427 L 22.2189,-253.473
 L 22.4058,-253.497 L 22.5942,-253.497 L 22.7811,-253.473 L 22.9635,-253.427 L 23.1387,-253.357 L 23.3037,-253.266
 L 23.4561,-253.156 L 23.5934,-253.027 L 23.7135,-252.882 L 23.8145,-252.723 L 23.8947,-252.552 L 23.9529,-252.373
 L 23.9882,-252.188 L 24,-252 L 23.9882,-251.812 L 23.9529,-251.627 L 23.8947,-251.448 L 23.8145,-251.277
 L 23.7135,-251.118 L 23.5934,-250.973 L 23.4561,-250.844 L 23.3037,-250.734 L 23.1387,-250.643 L 22.9635,-250.573
 L 22.7811,-250.527 L 22.5942,-250.503 z
M 32.9369,-161.089 L 33.5451,-161.245 L 34.1289,-161.476 L 34.6791,-161.778 L 35.1871,-162.147 L 35.6448,-162.577
 L 36.0451,-163.061 L 36.3815,-163.591 L 36.6489,-164.159 L 36.8429,-164.757 L 36.9606,-165.373 L 37,-166
 L 37,-230 L 36.9606,-230.627 L 36.8429,-231.243 L 36.6489,-231.841 L 36.3815,-232.409 L 36.0451,-232.939
 L 35.6448,-233.423 L 35.1871,-233.853 L 34.6791,-234.222 L 34.1289,-234.524 L 33.5451,-234.755 L 32.9369,-234.911
 L 32.3139,-234.99 L 27.686,-234.99 L 27.0631,-234.911 L 26.4549,-234.755 L 25.8711,-234.524 L 25.3209,-234.222
 L 24.8129,-233.853 L 24.3551,-233.423 L 23.9549,-232.939 L 23.6185,-232.409 L 23.3511,-231.841 L 23.1571,-231.243
 L 23.0394,-230.627 L 23,-230 L 23,-174.99 L -23,-174.99 L -23,-230 L -23.0394,-230.627
 L -23.1571,-231.243 L -23.3511,-231.841 L -23.6185,-232.409 L -23.9549,-232.939 L -24.3551,-233.423 L -24.8129,-233.853
 L -25.3209,-234.222 L -25.8711,-234.524 L -26.4549,-234.755 L -27.0631,-234.911 L -27.686,-234.99 L -32.3139,-234.99
 L -32.9369,-234.911 L -33.5451,-234.755 L -34.1289,-234.524 L -34.6791,-234.222 L -35.1871,-233.853 L -35.6448,-233.423
 L -36.0451,-232.939 L -36.3815,-232.409 L -36.6489,-231.841 L -36.8429,-231.243 L -36.9606,-230.627 L -37,-230
 L -37,-166 L -36.9606,-165.373 L -36.8429,-164.757 L -36.6489,-164.159 L -36.3815,-163.591 L -36.0451,-163.061
 L -35.6448,-162.577 L -35.1871,-162.147 L -34.6791,-161.778 L -34.1289,-161.476 L -33.5451,-161.245 L -32.9369,-161.089
 L -32.3139,-161.01 L 32.3139,-161.01 z
M -30.1884,-225.006 L -30.5621,-225.053 L -30.927,-225.147 L -31.2773,-225.286 L -31.6075,-225.467 L -31.9123,-225.688
 L -32.1869,-225.946 L -32.427,-226.237 L -32.6289,-226.555 L -32.7893,-226.896 L -32.9057,-227.254 L -32.9763,-227.624
 L -33,-228 L -32.9763,-228.376 L -32.9057,-228.746 L -32.7893,-229.104 L -32.6289,-229.445 L -32.427,-229.763
 L -32.1869,-230.054 L -31.9123,-230.312 L -31.6075,-230.533 L -31.2773,-230.714 L -30.927,-230.853 L -30.5621,-230.947
 L -30.1884,-230.994 L -29.8116,-230.994 L -29.4379,-230.947 L -29.0729,-230.853 L -28.7227,-230.714 L -28.3925,-230.533
 L -28.0877,-230.312 L -27.8131,-230.054 L -27.5729,-229.763 L -27.3711,-229.445 L -27.2107,-229.104 L -27.0942,-228.746
 L -27.0237,-228.376 L -27,-228 L -27.0237,-227.624 L -27.0942,-227.254 L -27.2107,-226.896 L -27.3711,-226.555
 L -27.5729,-226.237 L -27.8131,-225.946 L -28.0877,-225.688 L -28.3925,-225.467 L -28.7227,-225.286 L -29.0729,-225.147
 L -29.4379,-225.053 L -29.8116,-225.006 z
M 29.8116,-225.006 L 29.4379,-225.053 L 29.0729,-225.147 L 28.7227,-225.286 L 28.3925,-225.467 L 28.0877,-225.688
 L 27.8131,-225.946 L 27.5729,-226.237 L 27.3711,-226.555 L 27.2107,-226.896 L 27.0942,-227.254 L 27.0237,-227.624
 L 27,-228 L 27.0237,-228.376 L 27.0942,-228.746 L 27.2107,-229.104 L 27.3711,-229.445 L 27.5729,-229.763
 L 27.8131,-230.054 L 28.0877,-230.312 L 28.3925,-230.533 L 28.7227,-230.714 L 29.0729,-230.853 L 29.4379,-230.947
 L 29.8116,-230.994 L 30.1884,-230.994 L 30.5621,-230.947 L 30.927,-230.853 L 31.2773,-230.714 L 31.6075,-230.533
 L 31.9123,-230.312 L 32.1869,-230.054 L 32.427,-229.763 L 32.6289,-229.445 L 32.7893,-229.104 L 32.9057,-228.746
 L 32.9763,-228.376 L 33,-228 L 32.9763,-227.624 L 32.9057,-227.254 L 32.7893,-226.896 L 32.6289,-226.555
 L 32.427,-226.237 L 32.1869,-225.946 L 31.9123,-225.688 L 31.6075,-225.467 L 31.2773,-225.286 L 30.927,-225.147
 L 30.5621,-225.053 L 30.1884,-225.006 z
M -30.0942,-219.003 L -30.2811,-219.027 L -30.4635,-219.073 L -30.6387,-219.143 L -30.8037,-219.234 L -30.9561,-219.344
 L -31.0934,-219.473 L -31.2135,-219.618 L -31.3145,-219.777 L -31.3947,-219.948 L -31.4529,-220.127 L -31.4882,-220.312
 L -31.5,-220.5 L -31.4882,-220.688 L -31.4529,-220.873 L -31.3947,-221.052 L -31.3145,-221.223 L -31.2135,-221.382
 L -31.0934,-221.527 L -30.9561,-221.656 L -30.8037,-221.766 L -30.6387,-221.857 L -30.4635,-221.927 L -30.2811,-221.973
 L -30.0942,-221.997 L -29.9058,-221.997 L -29.7189,-221.973 L -29.5365,-221.927 L -29.3613,-221.857 L -29.1963,-221.766
 L -29.0439,-221.656 L -28.9065,-221.527 L -28.7865,-221.382 L -28.6855,-221.223 L -28.6053,-221.052 L -28.5471,-220.873
 L -28.5118,-220.688 L -28.5,-220.5 L -28.5118,-220.312 L -28.5471,-220.127 L -28.6053,-219.948 L -28.6855,-219.777
 L -28.7865,-219.618 L -28.9065,-219.473 L -29.0439,-219.344 L -29.1963,-219.234 L -29.3613,-219.143 L -29.5365,-219.073
 L -29.7189,-219.027 L -29.9058,-219.003 z
M 29.9058,-219.003 L 29.7189,-219.027 L 29.5365,-219.073 L 29.3613,-219.143 L 29.1963,-219.234 L 29.0439,-219.344
 L 28.9065,-219.473 L 28.7865,-219.618 L 28.6855,-219.777 L 28.6053,-219.948 L 28.5471,-220.127 L 28.5118,-220.312
 L 28.5,-220.5 L 28.5118,-220.688 L 28.5471,-220.873 L 28.6053,-221.052 L 28.6855,-221.223 L 28.7865,-221.382
 L 28.9065,-221.527 L 29.0439,-221.656 L 29.1963,-221.766 L 29.3613,-221.857 L 29.5365,-221.927 L 29.7189,-221.973
 L 29.9058,-221.997 L 30.0942,-221.997 L 30.2811,-221.973 L 30.4635,-221.927 L 30.6387,-221.857 L 30.8037,-221.766
 L 30.9561,-221.656 L 31.0934,-221.527 L 31.2135,-221.382 L 31.3145,-221.223 L 31.3947,-221.052 L 31.4529,-220.873
 L 31.4882,-220.688 L 31.5,-220.5 L 31.4882,-220.312 L 31.4529,-220.127 L 31.3947,-219.948 L 31.3145,-219.777
 L 31.2135,-219.618 L 31.0934,-219.473 L 30.9561,-219.344 L 30.8037,-219.234 L 30.6387,-219.143 L 30.4635,-219.073
 L 30.2811,-219.027 L 30.0942,-219.003 z
M 29.8116,-210.006 L 29.4379,-210.053 L 29.0729,-210.147 L 28.7227,-210.286 L 28.3925,-210.467 L 28.0877,-210.688
 L 27.8131,-210.946 L 27.5729,-211.237 L 27.3711,-211.555 L 27.2107,-211.896 L 27.0942,-212.254 L 27.0237,-212.624
 L 27,-213 L 27.0237,-213.376 L 27.0942,-213.746 L 27.2107,-214.104 L 27.3711,-214.445 L 27.5729,-214.763
 L 27.8131,-215.054 L 28.0877,-215.312 L 28.3925,-215.533 L 28.7227,-215.714 L 29.0729,-215.853 L 29.4379,-215.947
 L 29.8116,-215.994 L 30.1884,-215.994 L 30.5621,-215.947 L 30.927,-215.853 L 31.2773,-215.714 L 31.6075,-215.533
 L 31.9123,-215.312 L 32.1869,-215.054 L 32.427,-214.763 L 32.6289,-214.445 L 32.7893,-214.104 L 32.9057,-213.746
 L 32.9763,-213.376 L 33,-213 L 32.9763,-212.624 L 32.9057,-212.254 L 32.7893,-211.896 L 32.6289,-211.555
 L 32.427,-211.237 L 32.1869,-210.946 L 31.9123,-210.688 L 31.6075,-210.467 L 31.2773,-210.286 L 30.927,-210.147
 L 30.5621,-210.053 L 30.1884,-210.006 z
M -30.1884,-210.006 L -30.5621,-210.053 L -30.927,-210.147 L -31.2773,-210.286 L -31.6075,-210.467 L -31.9123,-210.688
 L -32.1869,-210.946 L -32.427,-211.237 L -32.6289,-211.555 L -32.7893,-211.896 L -32.9057,-212.254 L -32.9763,-212.624
 L -33,-213 L -32.9763,-213.376 L -32.9057,-213.746 L -32.7893,-214.104 L -32.6289,-214.445 L -32.427,-214.763
 L -32.1869,-215.054 L -31.9123,-215.312 L -31.6075,-215.533 L -31.2773,-215.714 L -30.927,-215.853 L -30.5621,-215.947
 L -30.1884,-215.994 L -29.8116,-215.994 L -29.4379,-215.947 L -29.0729,-215.853 L -28.7227,-215.714 L -28.3925,-215.533
 L -28.0877,-215.312 L -27.8131,-215.054 L -27.5729,-214.763 L -27.3711,-214.445 L -27.2107,-214.104 L -27.0942,-213.746
 L -27.0237,-213.376 L -27,-213 L -27.0237,-212.624 L -27.0942,-212.254 L -27.2107,-211.896 L -27.3711,-211.555
 L -27.5729,-211.237 L -27.8131,-210.946 L -28.0877,-210.688 L -28.3925,-210.467 L -28.7227,-210.286 L -29.0729,-210.147
 L -29.4379,-210.053 L -29.8116,-210.006 z
M 29.9058,-204.003 L 29.7189,-204.027 L 29.5365,-204.073 L 29.3613,-204.143 L 29.1963,-204.234 L 29.0439,-204.344
 L 28.9065,-204.473 L 28.7865,-204.618 L 28.6855,-204.777 L 28.6053,-204.948 L 28.5471,-205.127 L 28.5118,-205.312
 L 28.5,-205.5 L 28.5118,-205.688 L 28.5471,-205.873 L 28.6053,-206.052 L 28.6855,-206.223 L 28.7865,-206.382
 L 28.9065,-206.527 L 29.0439,-206.656 L 29.1963,-206.766 L 29.3613,-206.857 L 29.5365,-206.927 L 29.7189,-206.973
 L 29.9058,-206.997 L 30.0942,-206.997 L 30.2811,-206.973 L 30.4635,-206.927 L 30.6387,-206.857 L 30.8037,-206.766
 L 30.9561,-206.656 L 31.0934,-206.527 L 31.2135,-206.382 L 31.3145,-206.223 L 31.3947,-206.052 L 31.4529,-205.873
 L 31.4882,-205.688 L 31.5,-205.5 L 31.4882,-205.312 L 31.4529,-205.127 L 31.3947,-204.948 L 31.3145,-204.777
 L 31.2135,-204.618 L 31.0934,-204.473 L 30.9561,-204.344 L 30.8037,-204.234 L 30.6387,-204.143 L 30.4635,-204.073
 L 30.2811,-204.027 L 30.0942,-204.003 z
M -30.0942,-204.003 L -30.2811,-204.027 L -30.4635,-204.073 L -30.6387,-204.143 L -30.8037,-204.234 L -30.9561,-204.344
 L -31.0934,-204.473 L -31.2135,-204.618 L -31.3145,-204.777 L -31.3947,-204.948 L -31.4529,-205.127 L -31.4882,-205.312
 L -31.5,-205.5 L -31.4882,-205.688 L -31.4529,-205.873 L -31.3947,-206.052 L -31.3145,-206.223 L -31.2135,-206.382
 L -31.0934,-206.527 L -30.9561,-206.656 L -30.8037,-206.766 L -30.6387,-206.857 L -30.4635,-206.927 L -30.2811,-206.973
 L -30.0942,-206.997 L -29.9058,-206.997 L -29.7189,-206.973 L -29.5365,-206.927 L -29.3613,-206.857 L -29.1963,-206.766
 L -29.0439,-206.656 L -28.9065,-206.527 L -28.7865,-206.382 L -28.6855,-206.223 L -28.6053,-206.052 L -28.5471,-205.873
 L -28.5118,-205.688 L -28.5,-205.5 L -28.5118,-205.312 L -28.5471,-205.127 L -28.6053,-204.948 L -28.6855,-204.777
 L -28.7865,-204.618 L -28.9065,-204.473 L -29.0439,-204.344 L -29.1963,-204.234 L -29.3613,-204.143 L -29.5365,-204.073
 L -29.7189,-204.027 L -29.9058,-204.003 z
M -30.1884,-195.006 L -30.5621,-195.053 L -30.927,-195.147 L -31.2773,-195.286 L -31.6075,-195.467 L -31.9123,-195.688
 L -32.1869,-195.946 L -32.427,-196.237 L -32.6289,-196.555 L -32.7893,-196.896 L -32.9057,-197.254 L -32.9763,-197.624
 L -33,-198 L -32.9763,-198.376 L -32.9057,-198.746 L -32.7893,-199.104 L -32.6289,-199.445 L -32.427,-199.763
 L -32.1869,-200.054 L -31.9123,-200.312 L -31.6075,-200.533 L -31.2773,-200.714 L -30.927,-200.853 L -30.5621,-200.947
 L -30.1884,-200.994 L -29.8116,-200.994 L -29.4379,-200.947 L -29.0729,-200.853 L -28.7227,-200.714 L -28.3925,-200.533
 L -28.0877,-200.312 L -27.8131,-200.054 L -27.5729,-199.763 L -27.3711,-199.445 L -27.2107,-199.104 L -27.0942,-198.746
 L -27.0237,-198.376 L -27,-198 L -27.0237,-197.624 L -27.0942,-197.254 L -27.2107,-196.896 L -27.3711,-196.555
 L -27.5729,-196.237 L -27.8131,-195.946 L -28.0877,-195.688 L -28.3925,-195.467 L -28.7227,-195.286 L -29.0729,-195.147
 L -29.4379,-195.053 L -29.8116,-195.006 z
M 29.8116,-195.006 L 29.4379,-195.053 L 29.0729,-195.147 L 28.7227,-195.286 L 28.3925,-195.467 L 28.0877,-195.688
 L 27.8131,-195.946 L 27.5729,-196.237 L 27.3711,-196.555 L 27.2107,-196.896 L 27.0942,-197.254 L 27.0237,-197.624
 L 27,-198 L 27.0237,-198.376 L 27.0942,-198.746 L 27.2107,-199.104 L 27.3711,-199.445 L 27.5729,-199.763
 L 27.8131,-200.054 L 28.0877,-200.312 L 28.3925,-200.533 L 28.7227,-200.714 L 29.0729,-200.853 L 29.4379,-200.947
 L 29.8116,-200.994 L 30.1884,-200.994 L 30.5621,-200.947 L 30.927,-200.853 L 31.2773,-200.714 L 31.6075,-200.533
 L 31.9123,-200.312 L 32.1869,-200.054 L 32.427,-199.763 L 32.6289,-199.445 L 32.7893,-199.104 L 32.9057,-198.746
 L 32.9763,-198.376 L 33,-198 L 32.9763,-197.624 L 32.9057,-197.254 L 32.7893,-196.896 L 32.6289,-196.555
 L 32.427,-196.237 L 32.1869,-195.946 L 31.9123,-195.688 L 31.6075,-195.467 L 31.2773,-195.286 L 30.927,-195.147
 L 30.5621,-195.053 L 30.1884,-195.006 z
M 29.9058,-189.003 L 29.7189,-189.027 L 29.5365,-189.073 L 29.3613,-189.143 L 29.1963,-189.234 L 29.0439,-189.344
 L 28.9065,-189.473 L 28.7865,-189.618 L 28.6855,-189.777 L 28.6053,-189.948 L 28.5471,-190.127 L 28.5118,-190.312
 L 28.5,-190.5 L 28.5118,-190.688 L 28.5471,-190.873 L 28.6053,-191.052 L 28.6855,-191.223 L 28.7865,-191.382
 L 28.9065,-191.527 L 29.0439,-191.656 L 29.1963,-191.766 L 29.3613,-191.857 L 29.5365,-191.927 L 29.7189,-191.973
 L 29.9058,-191.997 L 30.0942,-191.997 L 30.2811,-191.973 L 30.4635,-191.927 L 30.6387,-191.857 L 30.8037,-191.766
 L 30.9561,-191.656 L 31.0934,-191.527 L 31.2135,-191.382 L 31.3145,-191.223 L 31.3947,-191.052 L 31.4529,-190.873
 L 31.4882,-190.688 L 31.5,-190.5 L 31.4882,-190.312 L 31.4529,-190.127 L 31.3947,-189.948 L 31.3145,-189.777
 L 31.2135,-189.618 L 31.0934,-189.473 L 30.9561,-189.344 L 30.8037,-189.234 L 30.6387,-189.143 L 30.4635,-189.073
 L 30.2811,-189.027 L 30.0942,-189.003 z
M -30.0942,-189.003 L -30.2811,-189.027 L -30.4635,-189.073 L -30.6387,-189.143 L -30.8037,-189.234 L -30.9561,-189.344
 L -31.0934,-189.473 L -31.2135,-189.618 L -31.3145,-189.777 L -31.3947,-189.948 L -31.4529,-190.127 L -31.4882,-190.312
 L -31.5,-190.5 L -31.4882,-190.688 L -31.4529,-190.873 L -31.3947,-191.052 L -31.3145,-191.223 L -31.2135,-191.382
 L -31.0934,-191.527 L -30.9561,-191.656 L -30.8037,-191.766 L -30.6387,-191.857 L -30.4635,-191.927 L -30.2811,-191.973
 L -30.0942,-191.997 L -29.9058,-191.997 L -29.7189,-191.973 L -29.5365,-191.927 L -29.3613,-191.857 L -29.1963,-191.766
 L -29.0439,-191.656 L -28.9065,-191.527 L -28.7865,-191.382 L -28.6855,-191.223 L -28.6053,-191.052 L -28.5471,-190.873
 L -28.5118,-190.688 L -28.5,-190.5 L -28.5118,-190.312 L -28.5471,-190.127 L -28.6053,-189.948 L -28.6855,-189.777
 L -28.7865,-189.618 L -28.9065,-189.473 L -29.0439,-189.344 L -29.1963,-189.234 L -29.3613,-189.143 L -29.5365,-189.073
 L -29.7189,-189.027 L -29.9058,-189.003 z
M -30.1884,-180.006 L -30.5621,-180.053 L -30.927,-180.147 L -31.2773,-180.286 L -31.6075,-180.467 L -31.9123,-180.688
 L -32.1869,-180.946 L -32.427,-181.237 L -32.6289,-181.555 L -32.7893,-181.896 L -32.9057,-182.254 L -32.9763,-182.624
 L -33,-183 L -32.9763,-183.376 L -32.9057,-183.746 L -32.7893,-184.104 L -32.6289,-184.445 L -32.427,-184.763
 L -32.1869,-185.054 L -31.9123,-185.312 L -31.6075,-185.533 L -31.2773,-185.714 L -30.927,-185.853 L -30.5621,-185.947
 L -30.1884,-185.994 L -29.8116,-185.994 L -29.4379,-185.947 L -29.0729,-185.853 L -28.7227,-185.714 L -28.3925,-185.533
 L -28.0877,-185.312 L -27.8131,-185.054 L -27.5729,-184.763 L -27.3711,-184.445 L -27.2107,-184.104 L -27.0942,-183.746
 L -27.0237,-183.376 L -27,-183 L -27.0237,-182.624 L -27.0942,-182.254 L -27.2107,-181.896 L -27.3711,-181.555
 L -27.5729,-181.237 L -27.8131,-180.946 L -28.0877,-180.688 L -28.3925,-180.467 L -28.7227,-180.286 L -29.0729,-180.147
 L -29.4379,-180.053 L -29.8116,-180.006 z
M 29.8116,-180.006 L 29.4379,-180.053 L 29.0729,-180.147 L 28.7227,-180.286 L 28.3925,-180.467 L 28.0877,-180.688
 L 27.8131,-180.946 L 27.5729,-181.237 L 27.3711,-181.555 L 27.2107,-181.896 L 27.0942,-182.254 L 27.0237,-182.624
 L 27,-183 L 27.0237,-183.376 L 27.0942,-183.746 L 27.2107,-184.104 L 27.3711,-184.445 L 27.5729,-184.763
 L 27.8131,-185.054 L 28.0877,-185.312 L 28.3925,-185.533 L 28.7227,-185.714 L 29.0729,-185.853 L 29.4379,-185.947
 L 29.8116,-185.994 L 30.1884,-185.994 L 30.5621,-185.947 L 30.927,-185.853 L 31.2773,-185.714 L 31.6075,-185.533
 L 31.9123,-185.312 L 32.1869,-185.054 L 32.427,-184.763 L 32.6289,-184.445 L 32.7893,-184.104 L 32.9057,-183.746
 L 32.9763,-183.376 L 33,-183 L 32.9763,-182.624 L 32.9057,-182.254 L 32.7893,-181.896 L 32.6289,-181.555
 L 32.427,-181.237 L 32.1869,-180.946 L 31.9123,-180.688 L 31.6075,-180.467 L 31.2773,-180.286 L 30.927,-180.147
 L 30.5621,-180.053 L 30.1884,-180.006 z
M -30.0942,-174.003 L -30.2811,-174.027 L -30.4635,-174.073 L -30.6387,-174.143 L -30.8037,-174.234 L -30.9561,-174.344
 L -31.0934,-174.473 L -31.2135,-174.618 L -31.3145,-174.777 L -31.3947,-174.948 L -31.4529,-175.127 L -31.4882,-175.312
 L -31.5,-175.5 L -31.4882,-175.688 L -31.4529,-175.873 L -31.3947,-176.052 L -31.3145,-176.223 L -31.2135,-176.382
 L -31.0934,-176.527 L -30.9561,-176.656 L -30.8037,-176.766 L -30.6387,-176.857 L -30.4635,-176.927 L -30.2811,-176.973
 L -30.0942,-176.997 L -29.9058,-176.997 L -29.7189,-176.973 L -29.5365,-176.927 L -29.3613,-176.857 L -29.1963,-176.766
 L -29.0439,-176.656 L -28.9065,-176.527 L -28.7865,-176.382 L -28.6855,-176.223 L -28.6053,-176.052 L -28.5471,-175.873
 L -28.5118,-175.688 L -28.5,-175.5 L -28.5118,-175.312 L -28.5471,-175.127 L -28.6053,-174.948 L -28.6855,-174.777
 L -28.7865,-174.618 L -28.9065,-174.473 L -29.0439,-174.344 L -29.1963,-174.234 L -29.3613,-174.143 L -29.5365,-174.073
 L -29.7189,-174.027 L -29.9058,-174.003 z
M 29.9058,-174.003 L 29.7189,-174.027 L 29.5365,-174.073 L 29.3613,-174.143 L 29.1963,-174.234 L 29.0439,-174.344
 L 28.9065,-174.473 L 28.7865,-174.618 L 28.6855,-174.777 L 28.6053,-174.948 L 28.5471,-175.127 L 28.5118,-175.312
 L 28.5,-175.5 L 28.5118,-175.688 L 28.5471,-175.873 L 28.6053,-176.052 L 28.6855,-176.223 L 28.7865,-176.382
 L 28.9065,-176.527 L 29.0439,-176.656 L 29.1963,-176.766 L 29.3613,-176.857 L 29.5365,-176.927 L 29.7189,-176.973
 L 29.9058,-176.997 L 30.0942,-176.997 L 30.2811,-176.973 L 30.4635,-176.927 L 30.6387,-176.857 L 30.8037,-176.766
 L 30.9561,-176.656 L 31.0934,-176.527 L 31.2135,-176.382 L 31.3145,-176.223 L 31.3947,-176.052 L 31.4529,-175.873
 L 31.4882,-175.688 L 31.5,-175.5 L 31.4882,-175.312 L 31.4529,-175.127 L 31.3947,-174.948 L 31.3145,-174.777
 L 31.2135,-174.618 L 31.0934,-174.473 L 30.9561,-174.344 L 30.8037,-174.234 L 30.6387,-174.143 L 30.4635,-174.073
 L 30.2811,-174.027 L 30.0942,-174.003 z
M 14.8116,-165.006 L 14.4379,-165.053 L 14.0729,-165.147 L 13.7227,-165.286 L 13.3925,-165.467 L 13.0877,-165.688
 L 12.8131,-165.946 L 12.5729,-166.237 L 12.3711,-166.555 L 12.2107,-166.896 L 12.0942,-167.254 L 12.0237,-167.624
 L 12,-168 L 12.0237,-168.376 L 12.0942,-168.746 L 12.2107,-169.104 L 12.3711,-169.445 L 12.5729,-169.763
 L 12.8131,-170.054 L 13.0877,-170.312 L 13.3925,-170.533 L 13.7227,-170.714 L 14.0729,-170.853 L 14.4379,-170.947
 L 14.8116,-170.994 L 15.1884,-170.994 L 15.5621,-170.947 L 15.927,-170.853 L 16.2773,-170.714 L 16.6075,-170.533
 L 16.9123,-170.312 L 17.1869,-170.054 L 17.427,-169.763 L 17.6289,-169.445 L 17.7893,-169.104 L 17.9057,-168.746
 L 17.9763,-168.376 L 18,-168 L 17.9763,-167.624 L 17.9057,-167.254 L 17.7893,-166.896 L 17.6289,-166.555
 L 17.427,-166.237 L 17.1869,-165.946 L 16.9123,-165.688 L 16.6075,-165.467 L 16.2773,-165.286 L 15.927,-165.147
 L 15.5621,-165.053 L 15.1884,-165.006 z
M -30.1884,-165.006 L -30.5621,-165.053 L -30.927,-165.147 L -31.2773,-165.286 L -31.6075,-165.467 L -31.9123,-165.688
 L -32.1869,-165.946 L -32.427,-166.237 L -32.6289,-166.555 L -32.7893,-166.896 L -32.9057,-167.254 L -32.9763,-167.624
 L -33,-168 L -32.9763,-168.376 L -32.9057,-168.746 L -32.7893,-169.104 L -32.6289,-169.445 L -32.427,-169.763
 L -32.1869,-170.054 L -31.9123,-170.312 L -31.6075,-170.533 L -31.2773,-170.714 L -30.927,-170.853 L -30.5621,-170.947
 L -30.1884,-170.994 L -29.8116,-170.994 L -29.4379,-170.947 L -29.0729,-170.853 L -28.7227,-170.714 L -28.3925,-170.533
 L -28.0877,-170.312 L -27.8131,-170.054 L -27.5729,-169.763 L -27.3711,-169.445 L -27.2107,-169.104 L -27.0942,-168.746
 L -27.0237,-168.376 L -27,-168 L -27.0237,-167.624 L -27.0942,-167.254 L -27.2107,-166.896 L -27.3711,-166.555
 L -27.5729,-166.237 L -27.8131,-165.946 L -28.0877,-165.688 L -28.3925,-165.467 L -28.7227,-165.286 L -29.0729,-165.147
 L -29.4379,-165.053 L -29.8116,-165.006 z
M 29.8116,-165.006 L 29.4379,-165.053 L 29.0729,-165.147 L 28.7227,-165.286 L 28.3925,-165.467 L 28.0877,-165.688
 L 27.8131,-165.946 L 27.5729,-166.237 L 27.3711,-166.555 L 27.2107,-166.896 L 27.0942,-167.254 L 27.0237,-167.624
 L 27,-168 L 27.0237,-168.376 L 27.0942,-168.746 L 27.2107,-169.104 L 27.3711,-169.445 L 27.5729,-169.763
 L 27.8131,-170.054 L 28.0877,-170.312 L 28.3925,-170.533 L 28.7227,-170.714 L 29.0729,-170.853 L 29.4379,-170.947
 L 29.8116,-170.994 L 30.1884,-170.994 L 30.5621,-170.947 L 30.927,-170.853 L 31.2773,-170.714 L 31.6075,-170.533
 L 31.9123,-170.312 L 32.1869,-170.054 L 32.427,-169.763 L 32.6289,-169.445 L 32.7893,-169.104 L 32.9057,-168.746
 L 32.9763,-168.376 L 33,-168 L 32.9763,-167.624 L 32.9057,-167.254 L 32.7893,-166.896 L 32.6289,-166.555
 L 32.427,-166.237 L 32.1869,-165.946 L 31.9123,-165.688 L 31.6075,-165.467 L 31.2773,-165.286 L 30.927,-165.147
 L 30.5621,-165.053 L 30.1884,-165.006 z
M -0.18837,-165.006 L -0.562134,-165.053 L -0.927048,-165.147 L -1.27733,-165.286 L -1.60747,-165.467 L -1.91226,-165.688
 L -2.1869,-165.946 L -2.42705,-166.237 L -2.62891,-166.555 L -2.78932,-166.896 L -2.90575,-167.254 L -2.97633,-167.624
 L -3,-168 L -2.97633,-168.376 L -2.90575,-168.746 L -2.78932,-169.104 L -2.62891,-169.445 L -2.42705,-169.763
 L -2.1869,-170.054 L -1.91226,-170.312 L -1.60747,-170.533 L -1.27733,-170.714 L -0.927048,-170.853 L -0.562134,-170.947
 L -0.18837,-170.994 L 0.18837,-170.994 L 0.562134,-170.947 L 0.927048,-170.853 L 1.27733,-170.714 L 1.60747,-170.533
 L 1.91226,-170.312 L 2.1869,-170.054 L 2.42705,-169.763 L 2.62891,-169.445 L 2.78932,-169.104 L 2.90575,-168.746
 L 2.97633,-168.376 L 3,-168 L 2.97633,-167.624 L 2.90575,-167.254 L 2.78932,-166.896 L 2.62891,-166.555
 L 2.42705,-166.237 L 2.1869,-165.946 L 1.91226,-165.688 L 1.60747,-165.467 L 1.27733,-165.286 L 0.927048,-165.147
 L 0.562134,-165.053 L 0.18837,-165.006 z
M -15.1884,-165.006 L -15.5621,-165.053 L -15.927,-165.147 L -16.2773,-165.286 L -16.6075,-165.467 L -16.9123,-165.688
 L -17.1869,-165.946 L -17.427,-166.237 L -17.6289,-166.555 L -17.7893,-166.896 L -17.9057,-167.254 L -17.9763,-167.624
 L -18,-168 L -17.9763,-168.376 L -17.9057,-168.746 L -17.7893,-169.104 L -17.6289,-169.445 L -17.427,-169.763
 L -17.1869,-170.054 L -16.9123,-170.312 L -16.6075,-170.533 L -16.2773,-170.714 L -15.927,-170.853 L -15.5621,-170.947
 L -15.1884,-170.994 L -14.8116,-170.994 L -14.4379,-170.947 L -14.0729,-170.853 L -13.7227,-170.714 L -13.3925,-170.533
 L -13.0877,-170.312 L -12.8131,-170.054 L -12.5729,-169.763 L -12.3711,-169.445 L -12.2107,-169.104 L -12.0942,-168.746
 L -12.0237,-168.376 L -12,-168 L -12.0237,-167.624 L -12.0942,-167.254 L -12.2107,-166.896 L -12.3711,-166.555
 L -12.5729,-166.237 L -12.8131,-165.946 L -13.0877,-165.688 L -13.3925,-165.467 L -13.7227,-165.286 L -14.0729,-165.147
 L -14.4379,-165.053 L -14.8116,-165.006 z
M -7.59418,-166.503 L -7.78107,-166.527 L -7.96352,-166.573 L -8.13866,-166.643 L -8.30373,-166.734 L -8.45613,-166.844
 L -8.59344,-166.973 L -8.71352,-167.118 L -8.81445,-167.277 L -8.89465,-167.448 L -8.95287,-167.627 L -8.98816,-167.812
 L -9,-168 L -8.98816,-168.188 L -8.95287,-168.373 L -8.89465,-168.552 L -8.81445,-168.723 L -8.71352,-168.882
 L -8.59344,-169.027 L -8.45613,-169.156 L -8.30373,-169.266 L -8.13866,-169.357 L -7.96352,-169.427 L -7.78107,-169.473
 L -7.59418,-169.497 L -7.40581,-169.497 L -7.21892,-169.473 L -7.03647,-169.427 L -6.86133,-169.357 L -6.69626,-169.266
 L -6.54385,-169.156 L -6.40654,-169.027 L -6.28647,-168.882 L -6.18553,-168.723 L -6.10533,-168.552 L -6.04712,-168.373
 L -6.01183,-168.188 L -6,-168 L -6.01183,-167.812 L -6.04712,-167.627 L -6.10533,-167.448 L -6.18553,-167.277
 L -6.28647,-167.118 L -6.40654,-166.973 L -6.54385,-166.844 L -6.69626,-166.734 L -6.86133,-166.643 L -7.03647,-166.573
 L -7.21892,-166.527 L -7.40581,-166.503 z
M 22.4058,-166.503 L 22.2189,-166.527 L 22.0365,-166.573 L 21.8613,-166.643 L 21.6963,-166.734 L 21.5439,-166.844
 L 21.4065,-166.973 L 21.2865,-167.118 L 21.1855,-167.277 L 21.1053,-167.448 L 21.0471,-167.627 L 21.0118,-167.812
 L 21,-168 L 21.0118,-168.188 L 21.0471,-168.373 L 21.1053,-168.552 L 21.1855,-168.723 L 21.2865,-168.882
 L 21.4065,-169.027 L 21.5439,-169.156 L 21.6963,-169.266 L 21.8613,-169.357 L 22.0365,-169.427 L 22.2189,-169.473
 L 22.4058,-169.497 L 22.5942,-169.497 L 22.7811,-169.473 L 22.9635,-169.427 L 23.1387,-169.357 L 23.3037,-169.266
 L 23.4561,-169.156 L 23.5934,-169.027 L 23.7135,-168.882 L 23.8145,-168.723 L 23.8947,-168.552 L 23.9529,-168.373
 L 23.9882,-168.188 L 24,-168 L 23.9882,-167.812 L 23.9529,-167.627 L 23.8947,-167.448 L 23.8145,-167.277
 L 23.7135,-167.118 L 23.5934,-166.973 L 23.4561,-166.844 L 23.3037,-166.734 L 23.1387,-166.643 L 22.9635,-166.573
 L 22.7811,-166.527 L 22.5942,-166.503 z
M 7.40581,-166.503 L 7.21892,-166.527 L 7.03647,-166.573 L 6.86133,-166.643 L 6.69626,-166.734 L 6.54385,-166.844
 L 6.40654,-166.973 L 6.28647,-167.118 L 6.18553,-167.277 L 6.10533,-167.448 L 6.04712,-167.627 L 6.01183,-167.812
 L 6,-168 L 6.01183,-168.188 L 6.04712,-168.373 L 6.10533,-168.552 L 6.18553,-168.723 L 6.28647,-168.882
 L 6.40654,-169.027 L 6.54385,-169.156 L 6.69626,-169.266 L 6.86133,-169.357 L 7.03647,-169.427 L 7.21892,-169.473
 L 7.40581,-169.497 L 7.59418,-169.497 L 7.78107,-169.473 L 7.96352,-169.427 L 8.13866,-169.357 L 8.30373,-169.266
 L 8.45613,-169.156 L 8.59344,-169.027 L 8.71352,-168.882 L 8.81445,-168.723 L 8.89465,-168.552 L 8.95287,-168.373
 L 8.98816,-168.188 L 9,-168 L 8.98816,-167.812 L 8.95287,-167.627 L 8.89465,-167.448 L 8.81445,-167.277
 L 8.71352,-167.118 L 8.59344,-166.973 L 8.45613,-166.844 L 8.30373,-166.734 L 8.13866,-166.643 L 7.96352,-166.573
 L 7.78107,-166.527 L 7.59418,-166.503 z
M -22.5942,-166.503 L -22.7811,-166.527 L -22.9635,-166.573 L -23.1387,-166.643 L -23.3037,-166.734 L -23.4561,-166.844
 L -23.5934,-166.973 L -23.7135,-167.118 L -23.8145,-167.277 L -23.8947,-167.448 L -23.9529,-167.627 L -23.9882,-167.812
 L -24,-168 L -23.9882,-168.188 L -23.9529,-168.373 L -23.8947,-168.552 L -23.8145,-168.723 L -23.7135,-168.882
 L -23.5934,-169.027 L -23.4561,-169.156 L -23.3037,-169.266 L -23.1387,-169.357 L -22.9635,-169.427 L -22.7811,-169.473
 L -22.5942,-169.497 L -22.4058,-169.497 L -22.2189,-169.473 L -22.0365,-169.427 L -21.8613,-169.357 L -21.6963,-169.266
 L -21.5439,-169.156 L -21.4065,-169.027 L -21.2865,-168.882 L -21.1855,-168.723 L -21.1053,-168.552 L -21.0471,-168.373
 L -21.0118,-168.188 L -21,-168 L -21.0118,-167.812 L -21.0471,-167.627 L -21.1053,-167.448 L -21.1855,-167.277
 L -21.2865,-167.118 L -21.4065,-166.973 L -21.5439,-166.844 L -21.6963,-166.734 L -21.8613,-166.643 L -22.0365,-166.573
 L -22.2189,-166.527 L -22.4058,-166.503 z
" stroke="black" fill="lightgray" stroke-width="0.5"/>
</svg>
