<?xml version="1.0" standalone="no"?>
<!DOCTYPE svg PUBLIC "-//W3C//DTD SVG 1.1//EN" "http://www.w3.org/Graphics/SVG/1.1/DTD/svg11.dtd">
<svg width="76mm" height="147mm" viewBox="-38 -288 76 147" xmlns="http://www.w3.org/2000/svg" version="1.1">
<title>OpenSCAD Model</title>
<path d="
M 33.4369,-258.089 L 34.0451,-258.245 L 34.6289,-258.476 L 35.1791,-258.778 L 35.6871,-259.147 L 36.1448,-259.577
 L 36.5451,-260.061 L 36.8815,-260.591 L 37.1489,-261.159 L 37.3429,-261.757 L 37.4606,-262.373 L 37.5,-263
 L 37.5,-283 L 37.4606,-283.627 L 37.3429,-284.243 L 37.1489,-284.841 L 36.8815,-285.409 L 36.5451,-285.939
 L 36.1448,-286.423 L 35.6871,-286.853 L 35.1791,-287.222 L 34.6289,-287.524 L 34.0451,-287.755 L 33.4369,-287.911
 L 32.8139,-287.99 L -32.8139,-287.99 L -33.4369,-287.911 L -34.0451,-287.755 L -34.6289,-287.524 L -35.1791,-287.222
 L -35.6871,-286.853 L -36.1448,-286.423 L -36.5451,-285.939 L -36.8815,-285.409 L -37.1489,-284.841 L -37.3429,-284.243
 L -37.4606,-283.627 L -37.5,-283 L -37.5,-263 L -37.4606,-262.373 L -37.3429,-261.757 L -37.1489,-261.159
 L -36.8815,-260.591 L -36.5451,-260.061 L -36.1448,-259.577 L -35.6871,-259.147 L -35.1791,-258.778 L -34.6289,-258.476
 L -34.0451,-258.245 L -33.4369,-258.089 L -32.8139,-258.01 L 32.8139,-258.01 z
M -32.5482,-258.509 L -33.1401,-258.584 L -33.7178,-258.732 L -34.2724,-258.952 L -34.7952,-259.239 L -35.2778,-259.59
 L -35.7126,-259.998 L -36.0928,-260.458 L -36.4124,-260.962 L -36.6664,-261.501 L -36.8508,-262.069 L -36.9625,-262.655
 L -37,-263.25 L -37,-282.75 L -36.9625,-283.345 L -36.8508,-283.931 L -36.6664,-284.499 L -36.4124,-285.038
 L -36.0928,-285.542 L -35.7126,-286.002 L -35.2778,-286.41 L -34.7952,-286.761 L -34.2724,-287.048 L -33.7178,-287.268
 L -33.1401,-287.416 L -32.5482,-287.491 L 32.5482,-287.491 L 33.1401,-287.416 L 33.7178,-287.268 L 34.2724,-287.048
 L 34.7952,-286.761 L 35.2778,-286.41 L 35.7126,-286.002 L 36.0928,-285.542 L 36.4124,-285.038 L 36.6664,-284.499
 L 36.8508,-283.931 L 36.9625,-283.345 L 37,-282.75 L 37,-263.25 L 36.9625,-262.655 L 36.8508,-262.069
 L 36.6664,-261.501 L 36.4124,-260.962 L 36.0928,-260.458 L 35.7126,-259.998 L 35.2778,-259.59 L 34.7952,-259.239
 L 34.2724,-258.952 L 33.7178,-258.732 L 33.1401,-258.584 L 32.5482,-258.509 z
M 33.4369,-219.089 L 34.0451,-219.245 L 34.6289,-219.476 L 35.1791,-219.778 L 35.6871,-220.147 L 36.1448,-220.577
 L 36.5451,-221.061 L 36.8815,-221.591 L 37.1489,-222.159 L 37.3429,-222.757 L 37.4606,-223.373 L 37.5,-224
 L 37.5,-244 L 37.4606,-244.627 L 37.3429,-245.243 L 37.1489,-245.841 L 36.8815,-246.409 L 36.5451,-246.939
 L 36.1448,-247.423 L 35.6871,-247.853 L 35.1791,-248.222 L 34.6289,-248.524 L 34.0451,-248.755 L 33.4369,-248.911
 L 32.8139,-248.99 L -32.8139,-248.99 L -33.4369,-248.911 L -34.0451,-248.755 L -34.6289,-248.524 L -35.1791,-248.222
 L -35.6871,-247.853 L -36.1448,-247.423 L -36.5451,-246.939 L -36.8815,-246.409 L -37.1489,-245.841 L -37.3429,-245.243
 L -37.4606,-244.627 L -37.5,-244 L -37.5,-224 L -37.4606,-223.373 L -37.3429,-222.757 L -37.1489,-222.159
 L -36.8815,-221.591 L -36.5451,-221.061 L -36.1448,-220.577 L -35.6871,-220.147 L -35.1791,-219.778 L -34.6289,-219.476
 L -34.0451,-219.245 L -33.4369,-219.089 L -32.8139,-219.01 L 32.8139,-219.01 z
M -32.5482,-219.509 L -33.1401,-219.584 L -33.7178,-219.732 L -34.2724,-219.952 L -34.7952,-220.239 L -35.2778,-220.59
 L -35.7126,-220.998 L -36.0928,-221.458 L -36.4124,-221.962 L -36.6664,-222.501 L -36.8508,-223.069 L -36.9625,-223.655
 L -37,-224.25 L -37,-243.75 L -36.9625,-244.345 L -36.8508,-244.931 L -36.6664,-245.499 L -36.4124,-246.038
 L -36.0928,-246.542 L -35.7126,-247.002 L -35.2778,-247.41 L -34.7952,-247.761 L -34.2724,-248.048 L -33.7178,-248.268
 L -33.1401,-248.416 L -32.5482,-248.491 L 32.5482,-248.491 L 33.1401,-248.416 L 33.7178,-248.268 L 34.2724,-248.048
 L 34.7952,-247.761 L 35.2778,-247.41 L 35.7126,-247.002 L 36.0928,-246.542 L 36.4124,-246.038 L 36.6664,-245.499
 L 36.8508,-244.931 L 36.9625,-244.345 L 37,-243.75 L 37,-224.25 L 36.9625,-223.655 L 36.8508,-223.069
 L 36.6664,-222.501 L 36.4124,-221.962 L 36.0928,-221.458 L 35.7126,-220.998 L 35.2778,-220.59 L 34.7952,-220.239
 L 34.2724,-219.952 L 33.7178,-219.732 L 33.1401,-219.584 L 32.5482,-219.509 z
M 33.4369,-180.089 L 34.0451,-180.245 L 34.6289,-180.476 L 35.1791,-180.778 L 35.6871,-181.147 L 36.1448,-181.577
 L 36.5451,-182.061 L 36.8815,-182.591 L 37.1489,-183.159 L 37.3429,-183.757 L 37.4606,-184.373 L 37.5,-185
 L 37.5,-205 L 37.4606,-205.627 L 37.3429,-206.243 L 37.1489,-206.841 L 36.8815,-207.409 L 36.5451,-207.939
 L 36.1448,-208.423 L 35.6871,-208.853 L 35.1791,-209.222 L 34.6289,-209.524 L 34.0451,-209.755 L 33.4369,-209.911
 L 32.8139,-209.99 L -32.8139,-209.99 L -33.4369,-209.911 L -34.0451,-209.755 L -34.6289,-209.524 L -35.1791,-209.222
 L -35.6871,-208.853 L -36.1448,-208.423 L -36.5451,-207.939 L -36.8815,-207.409 L -37.1489,-206.841 L -37.3429,-206.243
 L -37.4606,-205.627 L -37.5,-205 L -37.5,-185 L -37.4606,-184.373 L -37.3429,-183.757 L -37.1489,-183.159
 L -36.8815,-182.591 L -36.5451,-182.061 L -36.1448,-181.577 L -35.6871,-181.147 L -35.1791,-180.778 L -34.6289,-180.476
 L -34.0451,-180.245 L -33.4369,-180.089 L -32.8139,-180.01 L 32.8139,-180.01 z
M -32.5375,-180.681 L -33.1079,-180.753 L -33.6648,-180.896 L -34.1994,-181.107 L -34.7032,-181.384 L -35.1684,-181.722
 L -35.5875,-182.116 L -35.954,-182.559 L -36.2621,-183.044 L -36.5069,-183.565 L -36.6846,-184.111 L -36.7923,-184.676
 L -36.8284,-185.25 L -36.8284,-204.75 L -36.7923,-205.324 L -36.6846,-205.889 L -36.5069,-206.435 L -36.2621,-206.956
 L -35.954,-207.441 L -35.5875,-207.884 L -35.1684,-208.278 L -34.7032,-208.616 L -34.1994,-208.893 L -33.6648,-209.104
 L -33.1079,-209.247 L -32.5375,-209.319 L 32.5375,-209.319 L 33.1079,-209.247 L 33.6648,-209.104 L 34.1994,-208.893
 L 34.7032,-208.616 L 35.1684,-208.278 L 35.5875,-207.884 L 35.954,-207.441 L 36.2621,-206.956 L 36.5069,-206.435
 L 36.6846,-205.889 L 36.7923,-205.324 L 36.8284,-204.75 L 36.8284,-185.25 L 36.7923,-184.676 L 36.6846,-184.111
 L 36.5069,-183.565 L 36.2621,-183.044 L 35.954,-182.559 L 35.5875,-182.116 L 35.1684,-181.722 L 34.7032,-181.384
 L 34.1994,-181.107 L 33.6648,-180.896 L 33.1079,-180.753 L 32.5375,-180.681 z
M 33.4369,-141.089 L 34.0451,-141.245 L 34.6289,-141.476 L 35.1791,-141.778 L 35.6871,-142.147 L 36.1448,-142.577
 L 36.5451,-143.061 L 36.8815,-143.591 L 37.1489,-144.159 L 37.3429,-144.757 L 37.4606,-145.373 L 37.5,-146
 L 37.5,-166 L 37.4606,-166.627 L 37.3429,-167.243 L 37.1489,-167.841 L 36.8815,-168.409 L 36.5451,-168.939
 L 36.1448,-169.423 L 35.6871,-169.853 L 35.1791,-170.222 L 34.6289,-170.524 L 34.0451,-170.755 L 33.4369,-170.911
 L 32.8139,-170.99 L -32.8139,-170.99 L -33.4369,-170.911 L -34.0451,-170.755 L -34.6289,-170.524 L -35.1791,-170.222
 L -35.6871,-169.853 L -36.1448,-169.423 L -36.5451,-168.939 L -36.8815,-168.409 L -37.1489,-167.841 L -37.3429,-167.243
 L -37.4606,-166.627 L -37.5,-166 L -37.5,-146 L -37.4606,-145.373 L -37.3429,-144.757 L -37.1489,-144.159
 L -36.8815,-143.591 L -36.5451,-143.061 L -36.1448,-142.577 L -35.6871,-142.147 L -35.1791,-141.778 L -34.6289,-141.476
 L -34.0451,-141.245 L -33.4369,-141.089 L -32.8139,-141.01 L 32.8139,-141.01 z
M -32.3825,-144.145 L -32.6453,-144.178 L -32.9019,-144.244 L -33.1482,-144.341 L -33.3804,-144.469 L -33.5947,-144.625
 L -33.7879,-144.806 L -33.9567,-145.01 L -34.0987,-145.234 L -34.2115,-145.473 L -34.2934,-145.725 L -34.343,-145.986
 L -34.3596,-146.25 L -34.3596,-165.75 L -34.343,-166.014 L -34.2934,-166.275 L -34.2115,-166.527 L -34.0987,-166.766
 L -33.9567,-166.99 L -33.7879,-167.194 L -33.5947,-167.375 L -33.3804,-167.531 L -33.1482,-167.659 L -32.9019,-167.756
 L -32.6453,-167.822 L -32.3825,-167.855 L 32.3825,-167.855 L 32.6453,-167.822 L 32.9019,-167.756 L 33.1482,-167.659
 L 33.3804,-167.531 L 33.5947,-167.375 L 33.7879,-167.194 L 33.9567,-166.99 L 34.0987,-166.766 L 34.2115,-166.527
 L 34.2934,-166.275 L 34.343,-166.014 L 34.3596,-165.75 L 34.3596,-146.25 L 34.343,-145.986 L 34.2934,-145.725
 L 34.2115,-145.473 L 34.0987,-145.234 L 33.9567,-145.01 L 33.7879,-144.806 L 33.5947,-144.625 L 33.3804,-144.469
 L 33.1482,-144.341 L 32.9019,-144.244 L 32.6453,-144.178 L 32.3825,-144.145 z
" stroke="black" fill="lightgray" stroke-width="0.5"/>
</svg>
