  0
SECTION
  2
BLOCKS
  0
ENDSEC
  0
SECTION
  2
ENTITIES
  0
LINE
  8
0
 10
18.4369
 20
1621.59
 11
19.0451
 21
1621.74
  0
LINE
  8
0
 10
19.0451
 20
1621.74
 11
19.6289
 21
1621.98
  0
LINE
  8
0
 10
19.6289
 20
1621.98
 11
20.1791
 21
1622.28
  0
LINE
  8
0
 10
20.1791
 20
1622.28
 11
20.6871
 21
1622.65
  0
LINE
  8
0
 10
20.6871
 20
1622.65
 11
21.1448
 21
1623.08
  0
LINE
  8
0
 10
21.1448
 20
1623.08
 11
21.5451
 21
1623.56
  0
LINE
  8
0
 10
21.5451
 20
1623.56
 11
21.8815
 21
1624.09
  0
LINE
  8
0
 10
21.8815
 20
1624.09
 11
22.1489
 21
1624.66
  0
LINE
  8
0
 10
22.1489
 20
1624.66
 11
22.3429
 21
1625.26
  0
LINE
  8
0
 10
22.3429
 20
1625.26
 11
22.4606
 21
1625.87
  0
LINE
  8
0
 10
22.4606
 20
1625.87
 11
22.5
 21
1626.5
  0
LINE
  8
0
 10
22.5
 20
1626.5
 11
22.5
 21
1901.5
  0
LINE
  8
0
 10
22.5
 20
1901.5
 11
22.4606
 21
1902.13
  0
LINE
  8
0
 10
22.4606
 20
1902.13
 11
22.3429
 21
1902.74
  0
LINE
  8
0
 10
22.3429
 20
1902.74
 11
22.1489
 21
1903.34
  0
LINE
  8
0
 10
22.1489
 20
1903.34
 11
21.8815
 21
1903.91
  0
LINE
  8
0
 10
21.8815
 20
1903.91
 11
21.5451
 21
1904.44
  0
LINE
  8
0
 10
21.5451
 20
1904.44
 11
21.1448
 21
1904.92
  0
LINE
  8
0
 10
21.1448
 20
1904.92
 11
20.6871
 21
1905.35
  0
LINE
  8
0
 10
20.6871
 20
1905.35
 11
20.1791
 21
1905.72
  0
LINE
  8
0
 10
20.1791
 20
1905.72
 11
19.6289
 21
1906.02
  0
LINE
  8
0
 10
19.6289
 20
1906.02
 11
19.0451
 21
1906.26
  0
LINE
  8
0
 10
19.0451
 20
1906.26
 11
18.4369
 21
1906.41
  0
LINE
  8
0
 10
18.4369
 20
1906.41
 11
17.8139
 21
1906.49
  0
LINE
  8
0
 10
17.8139
 20
1906.49
 11
-17.8139
 21
1906.49
  0
LINE
  8
0
 10
-17.8139
 20
1906.49
 11
-18.4369
 21
1906.41
  0
LINE
  8
0
 10
-18.4369
 20
1906.41
 11
-19.0451
 21
1906.26
  0
LINE
  8
0
 10
-19.0451
 20
1906.26
 11
-19.6289
 21
1906.02
  0
LINE
  8
0
 10
-19.6289
 20
1906.02
 11
-20.1791
 21
1905.72
  0
LINE
  8
0
 10
-20.1791
 20
1905.72
 11
-20.6871
 21
1905.35
  0
LINE
  8
0
 10
-20.6871
 20
1905.35
 11
-21.1448
 21
1904.92
  0
LINE
  8
0
 10
-21.1448
 20
1904.92
 11
-21.5451
 21
1904.44
  0
LINE
  8
0
 10
-21.5451
 20
1904.44
 11
-21.8815
 21
1903.91
  0
LINE
  8
0
 10
-21.8815
 20
1903.91
 11
-22.1489
 21
1903.34
  0
LINE
  8
0
 10
-22.1489
 20
1903.34
 11
-22.3429
 21
1902.74
  0
LINE
  8
0
 10
-22.3429
 20
1902.74
 11
-22.4606
 21
1902.13
  0
LINE
  8
0
 10
-22.4606
 20
1902.13
 11
-22.5
 21
1901.5
  0
LINE
  8
0
 10
-22.5
 20
1901.5
 11
-22.5
 21
1626.5
  0
LINE
  8
0
 10
-22.5
 20
1626.5
 11
-22.4606
 21
1625.87
  0
LINE
  8
0
 10
-22.4606
 20
1625.87
 11
-22.3429
 21
1625.26
  0
LINE
  8
0
 10
-22.3429
 20
1625.26
 11
-22.1489
 21
1624.66
  0
LINE
  8
0
 10
-22.1489
 20
1624.66
 11
-21.8815
 21
1624.09
  0
LINE
  8
0
 10
-21.8815
 20
1624.09
 11
-21.5451
 21
1623.56
  0
LINE
  8
0
 10
-21.5451
 20
1623.56
 11
-21.1448
 21
1623.08
  0
LINE
  8
0
 10
-21.1448
 20
1623.08
 11
-20.6871
 21
1622.65
  0
LINE
  8
0
 10
-20.6871
 20
1622.65
 11
-20.1791
 21
1622.28
  0
LINE
  8
0
 10
-20.1791
 20
1622.28
 11
-19.6289
 21
1621.98
  0
LINE
  8
0
 10
-19.6289
 20
1621.98
 11
-19.0451
 21
1621.74
  0
LINE
  8
0
 10
-19.0451
 20
1621.74
 11
-18.4369
 21
1621.59
  0
LINE
  8
0
 10
-18.4369
 20
1621.59
 11
-17.8139
 21
1621.51
  0
LINE
  8
0
 10
-17.8139
 20
1621.51
 11
17.8139
 21
1621.51
  0
LINE
  8
0
 10
17.8139
 20
1621.51
 11
18.4369
 21
1621.59
  0
LINE
  8
0
 10
-17.2512
 20
1623.01
 11
-17.7495
 21
1623.07
  0
LINE
  8
0
 10
-17.7495
 20
1623.07
 11
-18.2361
 21
1623.2
  0
LINE
  8
0
 10
-18.2361
 20
1623.2
 11
-18.7031
 21
1623.38
  0
LINE
  8
0
 10
-18.7031
 20
1623.38
 11
-19.1433
 21
1623.62
  0
LINE
  8
0
 10
-19.1433
 20
1623.62
 11
-19.5497
 21
1623.92
  0
LINE
  8
0
 10
-19.5497
 20
1623.92
 11
-19.9159
 21
1624.26
  0
LINE
  8
0
 10
-19.9159
 20
1624.26
 11
-20.2361
 21
1624.65
  0
LINE
  8
0
 10
-20.2361
 20
1624.65
 11
-20.5052
 21
1625.07
  0
LINE
  8
0
 10
-20.5052
 20
1625.07
 11
-20.7191
 21
1625.53
  0
LINE
  8
0
 10
-20.7191
 20
1625.53
 11
-20.8743
 21
1626.01
  0
LINE
  8
0
 10
-20.8743
 20
1626.01
 11
-20.9684
 21
1626.5
  0
LINE
  8
0
 10
-20.9684
 20
1626.5
 11
-21
 21
1627
  0
LINE
  8
0
 10
-21
 20
1627
 11
-21
 21
1901
  0
LINE
  8
0
 10
-21
 20
1901
 11
-20.9684
 21
1901.5
  0
LINE
  8
0
 10
-20.9684
 20
1901.5
 11
-20.8743
 21
1901.99
  0
LINE
  8
0
 10
-20.8743
 20
1901.99
 11
-20.7191
 21
1902.47
  0
LINE
  8
0
 10
-20.7191
 20
1902.47
 11
-20.5052
 21
1902.93
  0
LINE
  8
0
 10
-20.5052
 20
1902.93
 11
-20.2361
 21
1903.35
  0
LINE
  8
0
 10
-20.2361
 20
1903.35
 11
-19.9159
 21
1903.74
  0
LINE
  8
0
 10
-19.9159
 20
1903.74
 11
-19.5497
 21
1904.08
  0
LINE
  8
0
 10
-19.5497
 20
1904.08
 11
-19.1433
 21
1904.38
  0
LINE
  8
0
 10
-19.1433
 20
1904.38
 11
-18.7031
 21
1904.62
  0
LINE
  8
0
 10
-18.7031
 20
1904.62
 11
-18.2361
 21
1904.8
  0
LINE
  8
0
 10
-18.2361
 20
1904.8
 11
-17.7495
 21
1904.93
  0
LINE
  8
0
 10
-17.7495
 20
1904.93
 11
-17.2512
 21
1904.99
  0
LINE
  8
0
 10
-17.2512
 20
1904.99
 11
17.2512
 21
1904.99
  0
LINE
  8
0
 10
17.2512
 20
1904.99
 11
17.7495
 21
1904.93
  0
LINE
  8
0
 10
17.7495
 20
1904.93
 11
18.2361
 21
1904.8
  0
LINE
  8
0
 10
18.2361
 20
1904.8
 11
18.7031
 21
1904.62
  0
LINE
  8
0
 10
18.7031
 20
1904.62
 11
19.1433
 21
1904.38
  0
LINE
  8
0
 10
19.1433
 20
1904.38
 11
19.5497
 21
1904.08
  0
LINE
  8
0
 10
19.5497
 20
1904.08
 11
19.9159
 21
1903.74
  0
LINE
  8
0
 10
19.9159
 20
1903.74
 11
20.2361
 21
1903.35
  0
LINE
  8
0
 10
20.2361
 20
1903.35
 11
20.5052
 21
1902.93
  0
LINE
  8
0
 10
20.5052
 20
1902.93
 11
20.7191
 21
1902.47
  0
LINE
  8
0
 10
20.7191
 20
1902.47
 11
20.8743
 21
1901.99
  0
LINE
  8
0
 10
20.8743
 20
1901.99
 11
20.9684
 21
1901.5
  0
LINE
  8
0
 10
20.9684
 20
1901.5
 11
21
 21
1901
  0
LINE
  8
0
 10
21
 20
1901
 11
21
 21
1627
  0
LINE
  8
0
 10
21
 20
1627
 11
20.9684
 21
1626.5
  0
LINE
  8
0
 10
20.9684
 20
1626.5
 11
20.8743
 21
1626.01
  0
LINE
  8
0
 10
20.8743
 20
1626.01
 11
20.7191
 21
1625.53
  0
LINE
  8
0
 10
20.7191
 20
1625.53
 11
20.5052
 21
1625.07
  0
LINE
  8
0
 10
20.5052
 20
1625.07
 11
20.2361
 21
1624.65
  0
LINE
  8
0
 10
20.2361
 20
1624.65
 11
19.9159
 21
1624.26
  0
LINE
  8
0
 10
19.9159
 20
1624.26
 11
19.5497
 21
1623.92
  0
LINE
  8
0
 10
19.5497
 20
1623.92
 11
19.1433
 21
1623.62
  0
LINE
  8
0
 10
19.1433
 20
1623.62
 11
18.7031
 21
1623.38
  0
LINE
  8
0
 10
18.7031
 20
1623.38
 11
18.2361
 21
1623.2
  0
LINE
  8
0
 10
18.2361
 20
1623.2
 11
17.7495
 21
1623.07
  0
LINE
  8
0
 10
17.7495
 20
1623.07
 11
17.2512
 21
1623.01
  0
LINE
  8
0
 10
17.2512
 20
1623.01
 11
-17.2512
 21
1623.01
  0
LINE
  8
0
 10
18.4369
 20
1327.59
 11
19.0451
 21
1327.74
  0
LINE
  8
0
 10
19.0451
 20
1327.74
 11
19.6289
 21
1327.98
  0
LINE
  8
0
 10
19.6289
 20
1327.98
 11
20.1791
 21
1328.28
  0
LINE
  8
0
 10
20.1791
 20
1328.28
 11
20.6871
 21
1328.65
  0
LINE
  8
0
 10
20.6871
 20
1328.65
 11
21.1448
 21
1329.08
  0
LINE
  8
0
 10
21.1448
 20
1329.08
 11
21.5451
 21
1329.56
  0
LINE
  8
0
 10
21.5451
 20
1329.56
 11
21.8815
 21
1330.09
  0
LINE
  8
0
 10
21.8815
 20
1330.09
 11
22.1489
 21
1330.66
  0
LINE
  8
0
 10
22.1489
 20
1330.66
 11
22.3429
 21
1331.26
  0
LINE
  8
0
 10
22.3429
 20
1331.26
 11
22.4606
 21
1331.87
  0
LINE
  8
0
 10
22.4606
 20
1331.87
 11
22.5
 21
1332.5
  0
LINE
  8
0
 10
22.5
 20
1332.5
 11
22.5
 21
1607.5
  0
LINE
  8
0
 10
22.5
 20
1607.5
 11
22.4606
 21
1608.13
  0
LINE
  8
0
 10
22.4606
 20
1608.13
 11
22.3429
 21
1608.74
  0
LINE
  8
0
 10
22.3429
 20
1608.74
 11
22.1489
 21
1609.34
  0
LINE
  8
0
 10
22.1489
 20
1609.34
 11
21.8815
 21
1609.91
  0
LINE
  8
0
 10
21.8815
 20
1609.91
 11
21.5451
 21
1610.44
  0
LINE
  8
0
 10
21.5451
 20
1610.44
 11
21.1448
 21
1610.92
  0
LINE
  8
0
 10
21.1448
 20
1610.92
 11
20.6871
 21
1611.35
  0
LINE
  8
0
 10
20.6871
 20
1611.35
 11
20.1791
 21
1611.72
  0
LINE
  8
0
 10
20.1791
 20
1611.72
 11
19.6289
 21
1612.02
  0
LINE
  8
0
 10
19.6289
 20
1612.02
 11
19.0451
 21
1612.26
  0
LINE
  8
0
 10
19.0451
 20
1612.26
 11
18.4369
 21
1612.41
  0
LINE
  8
0
 10
18.4369
 20
1612.41
 11
17.8139
 21
1612.49
  0
LINE
  8
0
 10
17.8139
 20
1612.49
 11
-17.8139
 21
1612.49
  0
LINE
  8
0
 10
-17.8139
 20
1612.49
 11
-18.4369
 21
1612.41
  0
LINE
  8
0
 10
-18.4369
 20
1612.41
 11
-19.0451
 21
1612.26
  0
LINE
  8
0
 10
-19.0451
 20
1612.26
 11
-19.6289
 21
1612.02
  0
LINE
  8
0
 10
-19.6289
 20
1612.02
 11
-20.1791
 21
1611.72
  0
LINE
  8
0
 10
-20.1791
 20
1611.72
 11
-20.6871
 21
1611.35
  0
LINE
  8
0
 10
-20.6871
 20
1611.35
 11
-21.1448
 21
1610.92
  0
LINE
  8
0
 10
-21.1448
 20
1610.92
 11
-21.5451
 21
1610.44
  0
LINE
  8
0
 10
-21.5451
 20
1610.44
 11
-21.8815
 21
1609.91
  0
LINE
  8
0
 10
-21.8815
 20
1609.91
 11
-22.1489
 21
1609.34
  0
LINE
  8
0
 10
-22.1489
 20
1609.34
 11
-22.3429
 21
1608.74
  0
LINE
  8
0
 10
-22.3429
 20
1608.74
 11
-22.4606
 21
1608.13
  0
LINE
  8
0
 10
-22.4606
 20
1608.13
 11
-22.5
 21
1607.5
  0
LINE
  8
0
 10
-22.5
 20
1607.5
 11
-22.5
 21
1332.5
  0
LINE
  8
0
 10
-22.5
 20
1332.5
 11
-22.4606
 21
1331.87
  0
LINE
  8
0
 10
-22.4606
 20
1331.87
 11
-22.3429
 21
1331.26
  0
LINE
  8
0
 10
-22.3429
 20
1331.26
 11
-22.1489
 21
1330.66
  0
LINE
  8
0
 10
-22.1489
 20
1330.66
 11
-21.8815
 21
1330.09
  0
LINE
  8
0
 10
-21.8815
 20
1330.09
 11
-21.5451
 21
1329.56
  0
LINE
  8
0
 10
-21.5451
 20
1329.56
 11
-21.1448
 21
1329.08
  0
LINE
  8
0
 10
-21.1448
 20
1329.08
 11
-20.6871
 21
1328.65
  0
LINE
  8
0
 10
-20.6871
 20
1328.65
 11
-20.1791
 21
1328.28
  0
LINE
  8
0
 10
-20.1791
 20
1328.28
 11
-19.6289
 21
1327.98
  0
LINE
  8
0
 10
-19.6289
 20
1327.98
 11
-19.0451
 21
1327.74
  0
LINE
  8
0
 10
-19.0451
 20
1327.74
 11
-18.4369
 21
1327.59
  0
LINE
  8
0
 10
-18.4369
 20
1327.59
 11
-17.8139
 21
1327.51
  0
LINE
  8
0
 10
-17.8139
 20
1327.51
 11
17.8139
 21
1327.51
  0
LINE
  8
0
 10
17.8139
 20
1327.51
 11
18.4369
 21
1327.59
  0
LINE
  8
0
 10
-17.2432
 20
1329.14
 11
-17.7256
 21
1329.2
  0
LINE
  8
0
 10
-17.7256
 20
1329.2
 11
-18.1967
 21
1329.32
  0
LINE
  8
0
 10
-18.1967
 20
1329.32
 11
-18.6489
 21
1329.5
  0
LINE
  8
0
 10
-18.6489
 20
1329.5
 11
-19.0751
 21
1329.73
  0
LINE
  8
0
 10
-19.0751
 20
1329.73
 11
-19.4685
 21
1330.02
  0
LINE
  8
0
 10
-19.4685
 20
1330.02
 11
-19.823
 21
1330.35
  0
LINE
  8
0
 10
-19.823
 20
1330.35
 11
-20.133
 21
1330.72
  0
LINE
  8
0
 10
-20.133
 20
1330.72
 11
-20.3936
 21
1331.13
  0
LINE
  8
0
 10
-20.3936
 20
1331.13
 11
-20.6007
 21
1331.57
  0
LINE
  8
0
 10
-20.6007
 20
1331.57
 11
-20.751
 21
1332.04
  0
LINE
  8
0
 10
-20.751
 20
1332.04
 11
-20.8421
 21
1332.51
  0
LINE
  8
0
 10
-20.8421
 20
1332.51
 11
-20.8726
 21
1333
  0
LINE
  8
0
 10
-20.8726
 20
1333
 11
-20.8726
 21
1607
  0
LINE
  8
0
 10
-20.8726
 20
1607
 11
-20.8421
 21
1607.49
  0
LINE
  8
0
 10
-20.8421
 20
1607.49
 11
-20.751
 21
1607.96
  0
LINE
  8
0
 10
-20.751
 20
1607.96
 11
-20.6007
 21
1608.43
  0
LINE
  8
0
 10
-20.6007
 20
1608.43
 11
-20.3936
 21
1608.87
  0
LINE
  8
0
 10
-20.3936
 20
1608.87
 11
-20.133
 21
1609.28
  0
LINE
  8
0
 10
-20.133
 20
1609.28
 11
-19.823
 21
1609.65
  0
LINE
  8
0
 10
-19.823
 20
1609.65
 11
-19.4685
 21
1609.98
  0
LINE
  8
0
 10
-19.4685
 20
1609.98
 11
-19.0751
 21
1610.27
  0
LINE
  8
0
 10
-19.0751
 20
1610.27
 11
-18.6489
 21
1610.5
  0
LINE
  8
0
 10
-18.6489
 20
1610.5
 11
-18.1967
 21
1610.68
  0
LINE
  8
0
 10
-18.1967
 20
1610.68
 11
-17.7256
 21
1610.8
  0
LINE
  8
0
 10
-17.7256
 20
1610.8
 11
-17.2432
 21
1610.86
  0
LINE
  8
0
 10
-17.2432
 20
1610.86
 11
17.2432
 21
1610.86
  0
LINE
  8
0
 10
17.2432
 20
1610.86
 11
17.7256
 21
1610.8
  0
LINE
  8
0
 10
17.7256
 20
1610.8
 11
18.1967
 21
1610.68
  0
LINE
  8
0
 10
18.1967
 20
1610.68
 11
18.6489
 21
1610.5
  0
LINE
  8
0
 10
18.6489
 20
1610.5
 11
19.0751
 21
1610.27
  0
LINE
  8
0
 10
19.0751
 20
1610.27
 11
19.4685
 21
1609.98
  0
LINE
  8
0
 10
19.4685
 20
1609.98
 11
19.823
 21
1609.65
  0
LINE
  8
0
 10
19.823
 20
1609.65
 11
20.133
 21
1609.28
  0
LINE
  8
0
 10
20.133
 20
1609.28
 11
20.3936
 21
1608.87
  0
LINE
  8
0
 10
20.3936
 20
1608.87
 11
20.6007
 21
1608.43
  0
LINE
  8
0
 10
20.6007
 20
1608.43
 11
20.751
 21
1607.96
  0
LINE
  8
0
 10
20.751
 20
1607.96
 11
20.8421
 21
1607.49
  0
LINE
  8
0
 10
20.8421
 20
1607.49
 11
20.8726
 21
1607
  0
LINE
  8
0
 10
20.8726
 20
1607
 11
20.8726
 21
1333
  0
LINE
  8
0
 10
20.8726
 20
1333
 11
20.8421
 21
1332.51
  0
LINE
  8
0
 10
20.8421
 20
1332.51
 11
20.751
 21
1332.04
  0
LINE
  8
0
 10
20.751
 20
1332.04
 11
20.6007
 21
1331.57
  0
LINE
  8
0
 10
20.6007
 20
1331.57
 11
20.3936
 21
1331.13
  0
LINE
  8
0
 10
20.3936
 20
1331.13
 11
20.133
 21
1330.72
  0
LINE
  8
0
 10
20.133
 20
1330.72
 11
19.823
 21
1330.35
  0
LINE
  8
0
 10
19.823
 20
1330.35
 11
19.4685
 21
1330.02
  0
LINE
  8
0
 10
19.4685
 20
1330.02
 11
19.0751
 21
1329.73
  0
LINE
  8
0
 10
19.0751
 20
1329.73
 11
18.6489
 21
1329.5
  0
LINE
  8
0
 10
18.6489
 20
1329.5
 11
18.1967
 21
1329.32
  0
LINE
  8
0
 10
18.1967
 20
1329.32
 11
17.7256
 21
1329.2
  0
LINE
  8
0
 10
17.7256
 20
1329.2
 11
17.2432
 21
1329.14
  0
LINE
  8
0
 10
17.2432
 20
1329.14
 11
-17.2432
 21
1329.14
  0
LINE
  8
0
 10
18.4369
 20
1033.59
 11
19.0451
 21
1033.74
  0
LINE
  8
0
 10
19.0451
 20
1033.74
 11
19.6289
 21
1033.98
  0
LINE
  8
0
 10
19.6289
 20
1033.98
 11
20.1791
 21
1034.28
  0
LINE
  8
0
 10
20.1791
 20
1034.28
 11
20.6871
 21
1034.65
  0
LINE
  8
0
 10
20.6871
 20
1034.65
 11
21.1448
 21
1035.08
  0
LINE
  8
0
 10
21.1448
 20
1035.08
 11
21.5451
 21
1035.56
  0
LINE
  8
0
 10
21.5451
 20
1035.56
 11
21.8815
 21
1036.09
  0
LINE
  8
0
 10
21.8815
 20
1036.09
 11
22.1489
 21
1036.66
  0
LINE
  8
0
 10
22.1489
 20
1036.66
 11
22.3429
 21
1037.26
  0
LINE
  8
0
 10
22.3429
 20
1037.26
 11
22.4606
 21
1037.87
  0
LINE
  8
0
 10
22.4606
 20
1037.87
 11
22.5
 21
1038.5
  0
LINE
  8
0
 10
22.5
 20
1038.5
 11
22.5
 21
1313.5
  0
LINE
  8
0
 10
22.5
 20
1313.5
 11
22.4606
 21
1314.13
  0
LINE
  8
0
 10
22.4606
 20
1314.13
 11
22.3429
 21
1314.74
  0
LINE
  8
0
 10
22.3429
 20
1314.74
 11
22.1489
 21
1315.34
  0
LINE
  8
0
 10
22.1489
 20
1315.34
 11
21.8815
 21
1315.91
  0
LINE
  8
0
 10
21.8815
 20
1315.91
 11
21.5451
 21
1316.44
  0
LINE
  8
0
 10
21.5451
 20
1316.44
 11
21.1448
 21
1316.92
  0
LINE
  8
0
 10
21.1448
 20
1316.92
 11
20.6871
 21
1317.35
  0
LINE
  8
0
 10
20.6871
 20
1317.35
 11
20.1791
 21
1317.72
  0
LINE
  8
0
 10
20.1791
 20
1317.72
 11
19.6289
 21
1318.02
  0
LINE
  8
0
 10
19.6289
 20
1318.02
 11
19.0451
 21
1318.26
  0
LINE
  8
0
 10
19.0451
 20
1318.26
 11
18.4369
 21
1318.41
  0
LINE
  8
0
 10
18.4369
 20
1318.41
 11
17.8139
 21
1318.49
  0
LINE
  8
0
 10
17.8139
 20
1318.49
 11
-17.8139
 21
1318.49
  0
LINE
  8
0
 10
-17.8139
 20
1318.49
 11
-18.4369
 21
1318.41
  0
LINE
  8
0
 10
-18.4369
 20
1318.41
 11
-19.0451
 21
1318.26
  0
LINE
  8
0
 10
-19.0451
 20
1318.26
 11
-19.6289
 21
1318.02
  0
LINE
  8
0
 10
-19.6289
 20
1318.02
 11
-20.1791
 21
1317.72
  0
LINE
  8
0
 10
-20.1791
 20
1317.72
 11
-20.6871
 21
1317.35
  0
LINE
  8
0
 10
-20.6871
 20
1317.35
 11
-21.1448
 21
1316.92
  0
LINE
  8
0
 10
-21.1448
 20
1316.92
 11
-21.5451
 21
1316.44
  0
LINE
  8
0
 10
-21.5451
 20
1316.44
 11
-21.8815
 21
1315.91
  0
LINE
  8
0
 10
-21.8815
 20
1315.91
 11
-22.1489
 21
1315.34
  0
LINE
  8
0
 10
-22.1489
 20
1315.34
 11
-22.3429
 21
1314.74
  0
LINE
  8
0
 10
-22.3429
 20
1314.74
 11
-22.4606
 21
1314.13
  0
LINE
  8
0
 10
-22.4606
 20
1314.13
 11
-22.5
 21
1313.5
  0
LINE
  8
0
 10
-22.5
 20
1313.5
 11
-22.5
 21
1038.5
  0
LINE
  8
0
 10
-22.5
 20
1038.5
 11
-22.4606
 21
1037.87
  0
LINE
  8
0
 10
-22.4606
 20
1037.87
 11
-22.3429
 21
1037.26
  0
LINE
  8
0
 10
-22.3429
 20
1037.26
 11
-22.1489
 21
1036.66
  0
LINE
  8
0
 10
-22.1489
 20
1036.66
 11
-21.8815
 21
1036.09
  0
LINE
  8
0
 10
-21.8815
 20
1036.09
 11
-21.5451
 21
1035.56
  0
LINE
  8
0
 10
-21.5451
 20
1035.56
 11
-21.1448
 21
1035.08
  0
LINE
  8
0
 10
-21.1448
 20
1035.08
 11
-20.6871
 21
1034.65
  0
LINE
  8
0
 10
-20.6871
 20
1034.65
 11
-20.1791
 21
1034.28
  0
LINE
  8
0
 10
-20.1791
 20
1034.28
 11
-19.6289
 21
1033.98
  0
LINE
  8
0
 10
-19.6289
 20
1033.98
 11
-19.0451
 21
1033.74
  0
LINE
  8
0
 10
-19.0451
 20
1033.74
 11
-18.4369
 21
1033.59
  0
LINE
  8
0
 10
-18.4369
 20
1033.59
 11
-17.8139
 21
1033.51
  0
LINE
  8
0
 10
-17.8139
 20
1033.51
 11
17.8139
 21
1033.51
  0
LINE
  8
0
 10
17.8139
 20
1033.51
 11
18.4369
 21
1033.59
  0
LINE
  8
0
 10
14.8493
 20
1308.6
 11
14.5503
 21
1308.64
  0
LINE
  8
0
 10
14.5503
 20
1308.64
 11
14.2583
 21
1308.72
  0
LINE
  8
0
 10
14.2583
 20
1308.72
 11
13.9781
 21
1308.83
  0
LINE
  8
0
 10
13.9781
 20
1308.83
 11
13.714
 21
1308.97
  0
LINE
  8
0
 10
13.714
 20
1308.97
 11
13.4702
 21
1309.15
  0
LINE
  8
0
 10
13.4702
 20
1309.15
 11
13.2505
 21
1309.36
  0
LINE
  8
0
 10
13.2505
 20
1309.36
 11
13.0583
 21
1309.59
  0
LINE
  8
0
 10
13.0583
 20
1309.59
 11
12.8969
 21
1309.84
  0
LINE
  8
0
 10
12.8969
 20
1309.84
 11
12.7685
 21
1310.12
  0
LINE
  8
0
 10
12.7685
 20
1310.12
 11
12.6754
 21
1310.4
  0
LINE
  8
0
 10
12.6754
 20
1310.4
 11
12.6189
 21
1310.7
  0
LINE
  8
0
 10
12.6189
 20
1310.7
 11
12.6
 21
1311
  0
LINE
  8
0
 10
12.6
 20
1311
 11
12.6189
 21
1311.3
  0
LINE
  8
0
 10
12.6189
 20
1311.3
 11
12.6754
 21
1311.6
  0
LINE
  8
0
 10
12.6754
 20
1311.6
 11
12.7685
 21
1311.88
  0
LINE
  8
0
 10
12.7685
 20
1311.88
 11
12.8969
 21
1312.16
  0
LINE
  8
0
 10
12.8969
 20
1312.16
 11
13.0583
 21
1312.41
  0
LINE
  8
0
 10
13.0583
 20
1312.41
 11
13.2505
 21
1312.64
  0
LINE
  8
0
 10
13.2505
 20
1312.64
 11
13.4702
 21
1312.85
  0
LINE
  8
0
 10
13.4702
 20
1312.85
 11
13.714
 21
1313.03
  0
LINE
  8
0
 10
13.714
 20
1313.03
 11
13.9781
 21
1313.17
  0
LINE
  8
0
 10
13.9781
 20
1313.17
 11
14.2583
 21
1313.28
  0
LINE
  8
0
 10
14.2583
 20
1313.28
 11
14.5503
 21
1313.36
  0
LINE
  8
0
 10
14.5503
 20
1313.36
 11
14.8493
 21
1313.4
  0
LINE
  8
0
 10
14.8493
 20
1313.4
 11
15.1507
 21
1313.4
  0
LINE
  8
0
 10
15.1507
 20
1313.4
 11
15.4497
 21
1313.36
  0
LINE
  8
0
 10
15.4497
 20
1313.36
 11
15.7416
 21
1313.28
  0
LINE
  8
0
 10
15.7416
 20
1313.28
 11
16.0219
 21
1313.17
  0
LINE
  8
0
 10
16.0219
 20
1313.17
 11
16.286
 21
1313.03
  0
LINE
  8
0
 10
16.286
 20
1313.03
 11
16.5298
 21
1312.85
  0
LINE
  8
0
 10
16.5298
 20
1312.85
 11
16.7495
 21
1312.64
  0
LINE
  8
0
 10
16.7495
 20
1312.64
 11
16.9416
 21
1312.41
  0
LINE
  8
0
 10
16.9416
 20
1312.41
 11
17.1031
 21
1312.16
  0
LINE
  8
0
 10
17.1031
 20
1312.16
 11
17.2315
 21
1311.88
  0
LINE
  8
0
 10
17.2315
 20
1311.88
 11
17.3246
 21
1311.6
  0
LINE
  8
0
 10
17.3246
 20
1311.6
 11
17.3811
 21
1311.3
  0
LINE
  8
0
 10
17.3811
 20
1311.3
 11
17.4
 21
1311
  0
LINE
  8
0
 10
17.4
 20
1311
 11
17.3811
 21
1310.7
  0
LINE
  8
0
 10
17.3811
 20
1310.7
 11
17.3246
 21
1310.4
  0
LINE
  8
0
 10
17.3246
 20
1310.4
 11
17.2315
 21
1310.12
  0
LINE
  8
0
 10
17.2315
 20
1310.12
 11
17.1031
 21
1309.84
  0
LINE
  8
0
 10
17.1031
 20
1309.84
 11
16.9416
 21
1309.59
  0
LINE
  8
0
 10
16.9416
 20
1309.59
 11
16.7495
 21
1309.36
  0
LINE
  8
0
 10
16.7495
 20
1309.36
 11
16.5298
 21
1309.15
  0
LINE
  8
0
 10
16.5298
 20
1309.15
 11
16.286
 21
1308.97
  0
LINE
  8
0
 10
16.286
 20
1308.97
 11
16.0219
 21
1308.83
  0
LINE
  8
0
 10
16.0219
 20
1308.83
 11
15.7416
 21
1308.72
  0
LINE
  8
0
 10
15.7416
 20
1308.72
 11
15.4497
 21
1308.64
  0
LINE
  8
0
 10
15.4497
 20
1308.64
 11
15.1507
 21
1308.6
  0
LINE
  8
0
 10
15.1507
 20
1308.6
 11
14.8493
 21
1308.6
  0
LINE
  8
0
 10
-15.1507
 20
1308.6
 11
-15.4497
 21
1308.64
  0
LINE
  8
0
 10
-15.4497
 20
1308.64
 11
-15.7416
 21
1308.72
  0
LINE
  8
0
 10
-15.7416
 20
1308.72
 11
-16.0219
 21
1308.83
  0
LINE
  8
0
 10
-16.0219
 20
1308.83
 11
-16.286
 21
1308.97
  0
LINE
  8
0
 10
-16.286
 20
1308.97
 11
-16.5298
 21
1309.15
  0
LINE
  8
0
 10
-16.5298
 20
1309.15
 11
-16.7495
 21
1309.36
  0
LINE
  8
0
 10
-16.7495
 20
1309.36
 11
-16.9416
 21
1309.59
  0
LINE
  8
0
 10
-16.9416
 20
1309.59
 11
-17.1031
 21
1309.84
  0
LINE
  8
0
 10
-17.1031
 20
1309.84
 11
-17.2315
 21
1310.12
  0
LINE
  8
0
 10
-17.2315
 20
1310.12
 11
-17.3246
 21
1310.4
  0
LINE
  8
0
 10
-17.3246
 20
1310.4
 11
-17.3811
 21
1310.7
  0
LINE
  8
0
 10
-17.3811
 20
1310.7
 11
-17.4
 21
1311
  0
LINE
  8
0
 10
-17.4
 20
1311
 11
-17.3811
 21
1311.3
  0
LINE
  8
0
 10
-17.3811
 20
1311.3
 11
-17.3246
 21
1311.6
  0
LINE
  8
0
 10
-17.3246
 20
1311.6
 11
-17.2315
 21
1311.88
  0
LINE
  8
0
 10
-17.2315
 20
1311.88
 11
-17.1031
 21
1312.16
  0
LINE
  8
0
 10
-17.1031
 20
1312.16
 11
-16.9416
 21
1312.41
  0
LINE
  8
0
 10
-16.9416
 20
1312.41
 11
-16.7495
 21
1312.64
  0
LINE
  8
0
 10
-16.7495
 20
1312.64
 11
-16.5298
 21
1312.85
  0
LINE
  8
0
 10
-16.5298
 20
1312.85
 11
-16.286
 21
1313.03
  0
LINE
  8
0
 10
-16.286
 20
1313.03
 11
-16.0219
 21
1313.17
  0
LINE
  8
0
 10
-16.0219
 20
1313.17
 11
-15.7416
 21
1313.28
  0
LINE
  8
0
 10
-15.7416
 20
1313.28
 11
-15.4497
 21
1313.36
  0
LINE
  8
0
 10
-15.4497
 20
1313.36
 11
-15.1507
 21
1313.4
  0
LINE
  8
0
 10
-15.1507
 20
1313.4
 11
-14.8493
 21
1313.4
  0
LINE
  8
0
 10
-14.8493
 20
1313.4
 11
-14.5503
 21
1313.36
  0
LINE
  8
0
 10
-14.5503
 20
1313.36
 11
-14.2583
 21
1313.28
  0
LINE
  8
0
 10
-14.2583
 20
1313.28
 11
-13.9781
 21
1313.17
  0
LINE
  8
0
 10
-13.9781
 20
1313.17
 11
-13.714
 21
1313.03
  0
LINE
  8
0
 10
-13.714
 20
1313.03
 11
-13.4702
 21
1312.85
  0
LINE
  8
0
 10
-13.4702
 20
1312.85
 11
-13.2505
 21
1312.64
  0
LINE
  8
0
 10
-13.2505
 20
1312.64
 11
-13.0583
 21
1312.41
  0
LINE
  8
0
 10
-13.0583
 20
1312.41
 11
-12.8969
 21
1312.16
  0
LINE
  8
0
 10
-12.8969
 20
1312.16
 11
-12.7685
 21
1311.88
  0
LINE
  8
0
 10
-12.7685
 20
1311.88
 11
-12.6754
 21
1311.6
  0
LINE
  8
0
 10
-12.6754
 20
1311.6
 11
-12.6189
 21
1311.3
  0
LINE
  8
0
 10
-12.6189
 20
1311.3
 11
-12.6
 21
1311
  0
LINE
  8
0
 10
-12.6
 20
1311
 11
-12.6189
 21
1310.7
  0
LINE
  8
0
 10
-12.6189
 20
1310.7
 11
-12.6754
 21
1310.4
  0
LINE
  8
0
 10
-12.6754
 20
1310.4
 11
-12.7685
 21
1310.12
  0
LINE
  8
0
 10
-12.7685
 20
1310.12
 11
-12.8969
 21
1309.84
  0
LINE
  8
0
 10
-12.8969
 20
1309.84
 11
-13.0583
 21
1309.59
  0
LINE
  8
0
 10
-13.0583
 20
1309.59
 11
-13.2505
 21
1309.36
  0
LINE
  8
0
 10
-13.2505
 20
1309.36
 11
-13.4702
 21
1309.15
  0
LINE
  8
0
 10
-13.4702
 20
1309.15
 11
-13.714
 21
1308.97
  0
LINE
  8
0
 10
-13.714
 20
1308.97
 11
-13.9781
 21
1308.83
  0
LINE
  8
0
 10
-13.9781
 20
1308.83
 11
-14.2583
 21
1308.72
  0
LINE
  8
0
 10
-14.2583
 20
1308.72
 11
-14.5503
 21
1308.64
  0
LINE
  8
0
 10
-14.5503
 20
1308.64
 11
-14.8493
 21
1308.6
  0
LINE
  8
0
 10
-14.8493
 20
1308.6
 11
-15.1507
 21
1308.6
  0
LINE
  8
0
 10
14.8493
 20
1038.6
 11
14.5503
 21
1038.64
  0
LINE
  8
0
 10
14.5503
 20
1038.64
 11
14.2583
 21
1038.72
  0
LINE
  8
0
 10
14.2583
 20
1038.72
 11
13.9781
 21
1038.83
  0
LINE
  8
0
 10
13.9781
 20
1038.83
 11
13.714
 21
1038.97
  0
LINE
  8
0
 10
13.714
 20
1038.97
 11
13.4702
 21
1039.15
  0
LINE
  8
0
 10
13.4702
 20
1039.15
 11
13.2505
 21
1039.36
  0
LINE
  8
0
 10
13.2505
 20
1039.36
 11
13.0583
 21
1039.59
  0
LINE
  8
0
 10
13.0583
 20
1039.59
 11
12.8969
 21
1039.84
  0
LINE
  8
0
 10
12.8969
 20
1039.84
 11
12.7685
 21
1040.12
  0
LINE
  8
0
 10
12.7685
 20
1040.12
 11
12.6754
 21
1040.4
  0
LINE
  8
0
 10
12.6754
 20
1040.4
 11
12.6189
 21
1040.7
  0
LINE
  8
0
 10
12.6189
 20
1040.7
 11
12.6
 21
1041
  0
LINE
  8
0
 10
12.6
 20
1041
 11
12.6189
 21
1041.3
  0
LINE
  8
0
 10
12.6189
 20
1041.3
 11
12.6754
 21
1041.6
  0
LINE
  8
0
 10
12.6754
 20
1041.6
 11
12.7685
 21
1041.88
  0
LINE
  8
0
 10
12.7685
 20
1041.88
 11
12.8969
 21
1042.16
  0
LINE
  8
0
 10
12.8969
 20
1042.16
 11
13.0583
 21
1042.41
  0
LINE
  8
0
 10
13.0583
 20
1042.41
 11
13.2505
 21
1042.64
  0
LINE
  8
0
 10
13.2505
 20
1042.64
 11
13.4702
 21
1042.85
  0
LINE
  8
0
 10
13.4702
 20
1042.85
 11
13.714
 21
1043.03
  0
LINE
  8
0
 10
13.714
 20
1043.03
 11
13.9781
 21
1043.17
  0
LINE
  8
0
 10
13.9781
 20
1043.17
 11
14.2583
 21
1043.28
  0
LINE
  8
0
 10
14.2583
 20
1043.28
 11
14.5503
 21
1043.36
  0
LINE
  8
0
 10
14.5503
 20
1043.36
 11
14.8493
 21
1043.4
  0
LINE
  8
0
 10
14.8493
 20
1043.4
 11
15.1507
 21
1043.4
  0
LINE
  8
0
 10
15.1507
 20
1043.4
 11
15.4497
 21
1043.36
  0
LINE
  8
0
 10
15.4497
 20
1043.36
 11
15.7416
 21
1043.28
  0
LINE
  8
0
 10
15.7416
 20
1043.28
 11
16.0219
 21
1043.17
  0
LINE
  8
0
 10
16.0219
 20
1043.17
 11
16.286
 21
1043.03
  0
LINE
  8
0
 10
16.286
 20
1043.03
 11
16.5298
 21
1042.85
  0
LINE
  8
0
 10
16.5298
 20
1042.85
 11
16.7495
 21
1042.64
  0
LINE
  8
0
 10
16.7495
 20
1042.64
 11
16.9416
 21
1042.41
  0
LINE
  8
0
 10
16.9416
 20
1042.41
 11
17.1031
 21
1042.16
  0
LINE
  8
0
 10
17.1031
 20
1042.16
 11
17.2315
 21
1041.88
  0
LINE
  8
0
 10
17.2315
 20
1041.88
 11
17.3246
 21
1041.6
  0
LINE
  8
0
 10
17.3246
 20
1041.6
 11
17.3811
 21
1041.3
  0
LINE
  8
0
 10
17.3811
 20
1041.3
 11
17.4
 21
1041
  0
LINE
  8
0
 10
17.4
 20
1041
 11
17.3811
 21
1040.7
  0
LINE
  8
0
 10
17.3811
 20
1040.7
 11
17.3246
 21
1040.4
  0
LINE
  8
0
 10
17.3246
 20
1040.4
 11
17.2315
 21
1040.12
  0
LINE
  8
0
 10
17.2315
 20
1040.12
 11
17.1031
 21
1039.84
  0
LINE
  8
0
 10
17.1031
 20
1039.84
 11
16.9416
 21
1039.59
  0
LINE
  8
0
 10
16.9416
 20
1039.59
 11
16.7495
 21
1039.36
  0
LINE
  8
0
 10
16.7495
 20
1039.36
 11
16.5298
 21
1039.15
  0
LINE
  8
0
 10
16.5298
 20
1039.15
 11
16.286
 21
1038.97
  0
LINE
  8
0
 10
16.286
 20
1038.97
 11
16.0219
 21
1038.83
  0
LINE
  8
0
 10
16.0219
 20
1038.83
 11
15.7416
 21
1038.72
  0
LINE
  8
0
 10
15.7416
 20
1038.72
 11
15.4497
 21
1038.64
  0
LINE
  8
0
 10
15.4497
 20
1038.64
 11
15.1507
 21
1038.6
  0
LINE
  8
0
 10
15.1507
 20
1038.6
 11
14.8493
 21
1038.6
  0
LINE
  8
0
 10
-15.1507
 20
1038.6
 11
-15.4497
 21
1038.64
  0
LINE
  8
0
 10
-15.4497
 20
1038.64
 11
-15.7416
 21
1038.72
  0
LINE
  8
0
 10
-15.7416
 20
1038.72
 11
-16.0219
 21
1038.83
  0
LINE
  8
0
 10
-16.0219
 20
1038.83
 11
-16.286
 21
1038.97
  0
LINE
  8
0
 10
-16.286
 20
1038.97
 11
-16.5298
 21
1039.15
  0
LINE
  8
0
 10
-16.5298
 20
1039.15
 11
-16.7495
 21
1039.36
  0
LINE
  8
0
 10
-16.7495
 20
1039.36
 11
-16.9416
 21
1039.59
  0
LINE
  8
0
 10
-16.9416
 20
1039.59
 11
-17.1031
 21
1039.84
  0
LINE
  8
0
 10
-17.1031
 20
1039.84
 11
-17.2315
 21
1040.12
  0
LINE
  8
0
 10
-17.2315
 20
1040.12
 11
-17.3246
 21
1040.4
  0
LINE
  8
0
 10
-17.3246
 20
1040.4
 11
-17.3811
 21
1040.7
  0
LINE
  8
0
 10
-17.3811
 20
1040.7
 11
-17.4
 21
1041
  0
LINE
  8
0
 10
-17.4
 20
1041
 11
-17.3811
 21
1041.3
  0
LINE
  8
0
 10
-17.3811
 20
1041.3
 11
-17.3246
 21
1041.6
  0
LINE
  8
0
 10
-17.3246
 20
1041.6
 11
-17.2315
 21
1041.88
  0
LINE
  8
0
 10
-17.2315
 20
1041.88
 11
-17.1031
 21
1042.16
  0
LINE
  8
0
 10
-17.1031
 20
1042.16
 11
-16.9416
 21
1042.41
  0
LINE
  8
0
 10
-16.9416
 20
1042.41
 11
-16.7495
 21
1042.64
  0
LINE
  8
0
 10
-16.7495
 20
1042.64
 11
-16.5298
 21
1042.85
  0
LINE
  8
0
 10
-16.5298
 20
1042.85
 11
-16.286
 21
1043.03
  0
LINE
  8
0
 10
-16.286
 20
1043.03
 11
-16.0219
 21
1043.17
  0
LINE
  8
0
 10
-16.0219
 20
1043.17
 11
-15.7416
 21
1043.28
  0
LINE
  8
0
 10
-15.7416
 20
1043.28
 11
-15.4497
 21
1043.36
  0
LINE
  8
0
 10
-15.4497
 20
1043.36
 11
-15.1507
 21
1043.4
  0
LINE
  8
0
 10
-15.1507
 20
1043.4
 11
-14.8493
 21
1043.4
  0
LINE
  8
0
 10
-14.8493
 20
1043.4
 11
-14.5503
 21
1043.36
  0
LINE
  8
0
 10
-14.5503
 20
1043.36
 11
-14.2583
 21
1043.28
  0
LINE
  8
0
 10
-14.2583
 20
1043.28
 11
-13.9781
 21
1043.17
  0
LINE
  8
0
 10
-13.9781
 20
1043.17
 11
-13.714
 21
1043.03
  0
LINE
  8
0
 10
-13.714
 20
1043.03
 11
-13.4702
 21
1042.85
  0
LINE
  8
0
 10
-13.4702
 20
1042.85
 11
-13.2505
 21
1042.64
  0
LINE
  8
0
 10
-13.2505
 20
1042.64
 11
-13.0583
 21
1042.41
  0
LINE
  8
0
 10
-13.0583
 20
1042.41
 11
-12.8969
 21
1042.16
  0
LINE
  8
0
 10
-12.8969
 20
1042.16
 11
-12.7685
 21
1041.88
  0
LINE
  8
0
 10
-12.7685
 20
1041.88
 11
-12.6754
 21
1041.6
  0
LINE
  8
0
 10
-12.6754
 20
1041.6
 11
-12.6189
 21
1041.3
  0
LINE
  8
0
 10
-12.6189
 20
1041.3
 11
-12.6
 21
1041
  0
LINE
  8
0
 10
-12.6
 20
1041
 11
-12.6189
 21
1040.7
  0
LINE
  8
0
 10
-12.6189
 20
1040.7
 11
-12.6754
 21
1040.4
  0
LINE
  8
0
 10
-12.6754
 20
1040.4
 11
-12.7685
 21
1040.12
  0
LINE
  8
0
 10
-12.7685
 20
1040.12
 11
-12.8969
 21
1039.84
  0
LINE
  8
0
 10
-12.8969
 20
1039.84
 11
-13.0583
 21
1039.59
  0
LINE
  8
0
 10
-13.0583
 20
1039.59
 11
-13.2505
 21
1039.36
  0
LINE
  8
0
 10
-13.2505
 20
1039.36
 11
-13.4702
 21
1039.15
  0
LINE
  8
0
 10
-13.4702
 20
1039.15
 11
-13.714
 21
1038.97
  0
LINE
  8
0
 10
-13.714
 20
1038.97
 11
-13.9781
 21
1038.83
  0
LINE
  8
0
 10
-13.9781
 20
1038.83
 11
-14.2583
 21
1038.72
  0
LINE
  8
0
 10
-14.2583
 20
1038.72
 11
-14.5503
 21
1038.64
  0
LINE
  8
0
 10
-14.5503
 20
1038.64
 11
-14.8493
 21
1038.6
  0
LINE
  8
0
 10
-14.8493
 20
1038.6
 11
-15.1507
 21
1038.6
  0
LINE
  8
0
 10
18.4369
 20
739.589
 11
19.0451
 21
739.745
  0
LINE
  8
0
 10
19.0451
 20
739.745
 11
19.6289
 21
739.976
  0
LINE
  8
0
 10
19.6289
 20
739.976
 11
20.1791
 21
740.278
  0
LINE
  8
0
 10
20.1791
 20
740.278
 11
20.6871
 21
740.647
  0
LINE
  8
0
 10
20.6871
 20
740.647
 11
21.1448
 21
741.077
  0
LINE
  8
0
 10
21.1448
 20
741.077
 11
21.5451
 21
741.561
  0
LINE
  8
0
 10
21.5451
 20
741.561
 11
21.8815
 21
742.091
  0
LINE
  8
0
 10
21.8815
 20
742.091
 11
22.1489
 21
742.659
  0
LINE
  8
0
 10
22.1489
 20
742.659
 11
22.3429
 21
743.257
  0
LINE
  8
0
 10
22.3429
 20
743.257
 11
22.4606
 21
743.873
  0
LINE
  8
0
 10
22.4606
 20
743.873
 11
22.5
 21
744.5
  0
LINE
  8
0
 10
22.5
 20
744.5
 11
22.5
 21
1019.5
  0
LINE
  8
0
 10
22.5
 20
1019.5
 11
22.4606
 21
1020.13
  0
LINE
  8
0
 10
22.4606
 20
1020.13
 11
22.3429
 21
1020.74
  0
LINE
  8
0
 10
22.3429
 20
1020.74
 11
22.1489
 21
1021.34
  0
LINE
  8
0
 10
22.1489
 20
1021.34
 11
21.8815
 21
1021.91
  0
LINE
  8
0
 10
21.8815
 20
1021.91
 11
21.5451
 21
1022.44
  0
LINE
  8
0
 10
21.5451
 20
1022.44
 11
21.1448
 21
1022.92
  0
LINE
  8
0
 10
21.1448
 20
1022.92
 11
20.6871
 21
1023.35
  0
LINE
  8
0
 10
20.6871
 20
1023.35
 11
20.1791
 21
1023.72
  0
LINE
  8
0
 10
20.1791
 20
1023.72
 11
19.6289
 21
1024.02
  0
LINE
  8
0
 10
19.6289
 20
1024.02
 11
19.0451
 21
1024.26
  0
LINE
  8
0
 10
19.0451
 20
1024.26
 11
18.4369
 21
1024.41
  0
LINE
  8
0
 10
18.4369
 20
1024.41
 11
17.8139
 21
1024.49
  0
LINE
  8
0
 10
17.8139
 20
1024.49
 11
-17.8139
 21
1024.49
  0
LINE
  8
0
 10
-17.8139
 20
1024.49
 11
-18.4369
 21
1024.41
  0
LINE
  8
0
 10
-18.4369
 20
1024.41
 11
-19.0451
 21
1024.26
  0
LINE
  8
0
 10
-19.0451
 20
1024.26
 11
-19.6289
 21
1024.02
  0
LINE
  8
0
 10
-19.6289
 20
1024.02
 11
-20.1791
 21
1023.72
  0
LINE
  8
0
 10
-20.1791
 20
1023.72
 11
-20.6871
 21
1023.35
  0
LINE
  8
0
 10
-20.6871
 20
1023.35
 11
-21.1448
 21
1022.92
  0
LINE
  8
0
 10
-21.1448
 20
1022.92
 11
-21.5451
 21
1022.44
  0
LINE
  8
0
 10
-21.5451
 20
1022.44
 11
-21.8815
 21
1021.91
  0
LINE
  8
0
 10
-21.8815
 20
1021.91
 11
-22.1489
 21
1021.34
  0
LINE
  8
0
 10
-22.1489
 20
1021.34
 11
-22.3429
 21
1020.74
  0
LINE
  8
0
 10
-22.3429
 20
1020.74
 11
-22.4606
 21
1020.13
  0
LINE
  8
0
 10
-22.4606
 20
1020.13
 11
-22.5
 21
1019.5
  0
LINE
  8
0
 10
-22.5
 20
1019.5
 11
-22.5
 21
744.5
  0
LINE
  8
0
 10
-22.5
 20
744.5
 11
-22.4606
 21
743.873
  0
LINE
  8
0
 10
-22.4606
 20
743.873
 11
-22.3429
 21
743.257
  0
LINE
  8
0
 10
-22.3429
 20
743.257
 11
-22.1489
 21
742.659
  0
LINE
  8
0
 10
-22.1489
 20
742.659
 11
-21.8815
 21
742.091
  0
LINE
  8
0
 10
-21.8815
 20
742.091
 11
-21.5451
 21
741.561
  0
LINE
  8
0
 10
-21.5451
 20
741.561
 11
-21.1448
 21
741.077
  0
LINE
  8
0
 10
-21.1448
 20
741.077
 11
-20.6871
 21
740.647
  0
LINE
  8
0
 10
-20.6871
 20
740.647
 11
-20.1791
 21
740.278
  0
LINE
  8
0
 10
-20.1791
 20
740.278
 11
-19.6289
 21
739.976
  0
LINE
  8
0
 10
-19.6289
 20
739.976
 11
-19.0451
 21
739.745
  0
LINE
  8
0
 10
-19.0451
 20
739.745
 11
-18.4369
 21
739.589
  0
LINE
  8
0
 10
-18.4369
 20
739.589
 11
-17.8139
 21
739.51
  0
LINE
  8
0
 10
-17.8139
 20
739.51
 11
17.8139
 21
739.51
  0
LINE
  8
0
 10
17.8139
 20
739.51
 11
18.4369
 21
739.589
  0
LINE
  8
0
 10
14.887
 20
1015.2
 11
14.6627
 21
1015.23
  0
LINE
  8
0
 10
14.6627
 20
1015.23
 11
14.4438
 21
1015.29
  0
LINE
  8
0
 10
14.4438
 20
1015.29
 11
14.2336
 21
1015.37
  0
LINE
  8
0
 10
14.2336
 20
1015.37
 11
14.0355
 21
1015.48
  0
LINE
  8
0
 10
14.0355
 20
1015.48
 11
13.8526
 21
1015.61
  0
LINE
  8
0
 10
13.8526
 20
1015.61
 11
13.6879
 21
1015.77
  0
LINE
  8
0
 10
13.6879
 20
1015.77
 11
13.5438
 21
1015.94
  0
LINE
  8
0
 10
13.5438
 20
1015.94
 11
13.4226
 21
1016.13
  0
LINE
  8
0
 10
13.4226
 20
1016.13
 11
13.3264
 21
1016.34
  0
LINE
  8
0
 10
13.3264
 20
1016.34
 11
13.2565
 21
1016.55
  0
LINE
  8
0
 10
13.2565
 20
1016.55
 11
13.2142
 21
1016.77
  0
LINE
  8
0
 10
13.2142
 20
1016.77
 11
13.2
 21
1017
  0
LINE
  8
0
 10
13.2
 20
1017
 11
13.2142
 21
1017.23
  0
LINE
  8
0
 10
13.2142
 20
1017.23
 11
13.2565
 21
1017.45
  0
LINE
  8
0
 10
13.2565
 20
1017.45
 11
13.3264
 21
1017.66
  0
LINE
  8
0
 10
13.3264
 20
1017.66
 11
13.4226
 21
1017.87
  0
LINE
  8
0
 10
13.4226
 20
1017.87
 11
13.5438
 21
1018.06
  0
LINE
  8
0
 10
13.5438
 20
1018.06
 11
13.6879
 21
1018.23
  0
LINE
  8
0
 10
13.6879
 20
1018.23
 11
13.8526
 21
1018.39
  0
LINE
  8
0
 10
13.8526
 20
1018.39
 11
14.0355
 21
1018.52
  0
LINE
  8
0
 10
14.0355
 20
1018.52
 11
14.2336
 21
1018.63
  0
LINE
  8
0
 10
14.2336
 20
1018.63
 11
14.4438
 21
1018.71
  0
LINE
  8
0
 10
14.4438
 20
1018.71
 11
14.6627
 21
1018.77
  0
LINE
  8
0
 10
14.6627
 20
1018.77
 11
14.887
 21
1018.8
  0
LINE
  8
0
 10
14.887
 20
1018.8
 11
15.113
 21
1018.8
  0
LINE
  8
0
 10
15.113
 20
1018.8
 11
15.3373
 21
1018.77
  0
LINE
  8
0
 10
15.3373
 20
1018.77
 11
15.5562
 21
1018.71
  0
LINE
  8
0
 10
15.5562
 20
1018.71
 11
15.7664
 21
1018.63
  0
LINE
  8
0
 10
15.7664
 20
1018.63
 11
15.9645
 21
1018.52
  0
LINE
  8
0
 10
15.9645
 20
1018.52
 11
16.1474
 21
1018.39
  0
LINE
  8
0
 10
16.1474
 20
1018.39
 11
16.3121
 21
1018.23
  0
LINE
  8
0
 10
16.3121
 20
1018.23
 11
16.4562
 21
1018.06
  0
LINE
  8
0
 10
16.4562
 20
1018.06
 11
16.5773
 21
1017.87
  0
LINE
  8
0
 10
16.5773
 20
1017.87
 11
16.6736
 21
1017.66
  0
LINE
  8
0
 10
16.6736
 20
1017.66
 11
16.7434
 21
1017.45
  0
LINE
  8
0
 10
16.7434
 20
1017.45
 11
16.7858
 21
1017.23
  0
LINE
  8
0
 10
16.7858
 20
1017.23
 11
16.8
 21
1017
  0
LINE
  8
0
 10
16.8
 20
1017
 11
16.7858
 21
1016.77
  0
LINE
  8
0
 10
16.7858
 20
1016.77
 11
16.7434
 21
1016.55
  0
LINE
  8
0
 10
16.7434
 20
1016.55
 11
16.6736
 21
1016.34
  0
LINE
  8
0
 10
16.6736
 20
1016.34
 11
16.5773
 21
1016.13
  0
LINE
  8
0
 10
16.5773
 20
1016.13
 11
16.4562
 21
1015.94
  0
LINE
  8
0
 10
16.4562
 20
1015.94
 11
16.3121
 21
1015.77
  0
LINE
  8
0
 10
16.3121
 20
1015.77
 11
16.1474
 21
1015.61
  0
LINE
  8
0
 10
16.1474
 20
1015.61
 11
15.9645
 21
1015.48
  0
LINE
  8
0
 10
15.9645
 20
1015.48
 11
15.7664
 21
1015.37
  0
LINE
  8
0
 10
15.7664
 20
1015.37
 11
15.5562
 21
1015.29
  0
LINE
  8
0
 10
15.5562
 20
1015.29
 11
15.3373
 21
1015.23
  0
LINE
  8
0
 10
15.3373
 20
1015.23
 11
15.113
 21
1015.2
  0
LINE
  8
0
 10
15.113
 20
1015.2
 11
14.887
 21
1015.2
  0
LINE
  8
0
 10
-15.113
 20
1015.2
 11
-15.3373
 21
1015.23
  0
LINE
  8
0
 10
-15.3373
 20
1015.23
 11
-15.5562
 21
1015.29
  0
LINE
  8
0
 10
-15.5562
 20
1015.29
 11
-15.7664
 21
1015.37
  0
LINE
  8
0
 10
-15.7664
 20
1015.37
 11
-15.9645
 21
1015.48
  0
LINE
  8
0
 10
-15.9645
 20
1015.48
 11
-16.1474
 21
1015.61
  0
LINE
  8
0
 10
-16.1474
 20
1015.61
 11
-16.3121
 21
1015.77
  0
LINE
  8
0
 10
-16.3121
 20
1015.77
 11
-16.4562
 21
1015.94
  0
LINE
  8
0
 10
-16.4562
 20
1015.94
 11
-16.5773
 21
1016.13
  0
LINE
  8
0
 10
-16.5773
 20
1016.13
 11
-16.6736
 21
1016.34
  0
LINE
  8
0
 10
-16.6736
 20
1016.34
 11
-16.7434
 21
1016.55
  0
LINE
  8
0
 10
-16.7434
 20
1016.55
 11
-16.7858
 21
1016.77
  0
LINE
  8
0
 10
-16.7858
 20
1016.77
 11
-16.8
 21
1017
  0
LINE
  8
0
 10
-16.8
 20
1017
 11
-16.7858
 21
1017.23
  0
LINE
  8
0
 10
-16.7858
 20
1017.23
 11
-16.7434
 21
1017.45
  0
LINE
  8
0
 10
-16.7434
 20
1017.45
 11
-16.6736
 21
1017.66
  0
LINE
  8
0
 10
-16.6736
 20
1017.66
 11
-16.5773
 21
1017.87
  0
LINE
  8
0
 10
-16.5773
 20
1017.87
 11
-16.4562
 21
1018.06
  0
LINE
  8
0
 10
-16.4562
 20
1018.06
 11
-16.3121
 21
1018.23
  0
LINE
  8
0
 10
-16.3121
 20
1018.23
 11
-16.1474
 21
1018.39
  0
LINE
  8
0
 10
-16.1474
 20
1018.39
 11
-15.9645
 21
1018.52
  0
LINE
  8
0
 10
-15.9645
 20
1018.52
 11
-15.7664
 21
1018.63
  0
LINE
  8
0
 10
-15.7664
 20
1018.63
 11
-15.5562
 21
1018.71
  0
LINE
  8
0
 10
-15.5562
 20
1018.71
 11
-15.3373
 21
1018.77
  0
LINE
  8
0
 10
-15.3373
 20
1018.77
 11
-15.113
 21
1018.8
  0
LINE
  8
0
 10
-15.113
 20
1018.8
 11
-14.887
 21
1018.8
  0
LINE
  8
0
 10
-14.887
 20
1018.8
 11
-14.6627
 21
1018.77
  0
LINE
  8
0
 10
-14.6627
 20
1018.77
 11
-14.4438
 21
1018.71
  0
LINE
  8
0
 10
-14.4438
 20
1018.71
 11
-14.2336
 21
1018.63
  0
LINE
  8
0
 10
-14.2336
 20
1018.63
 11
-14.0355
 21
1018.52
  0
LINE
  8
0
 10
-14.0355
 20
1018.52
 11
-13.8526
 21
1018.39
  0
LINE
  8
0
 10
-13.8526
 20
1018.39
 11
-13.6879
 21
1018.23
  0
LINE
  8
0
 10
-13.6879
 20
1018.23
 11
-13.5438
 21
1018.06
  0
LINE
  8
0
 10
-13.5438
 20
1018.06
 11
-13.4226
 21
1017.87
  0
LINE
  8
0
 10
-13.4226
 20
1017.87
 11
-13.3264
 21
1017.66
  0
LINE
  8
0
 10
-13.3264
 20
1017.66
 11
-13.2565
 21
1017.45
  0
LINE
  8
0
 10
-13.2565
 20
1017.45
 11
-13.2142
 21
1017.23
  0
LINE
  8
0
 10
-13.2142
 20
1017.23
 11
-13.2
 21
1017
  0
LINE
  8
0
 10
-13.2
 20
1017
 11
-13.2142
 21
1016.77
  0
LINE
  8
0
 10
-13.2142
 20
1016.77
 11
-13.2565
 21
1016.55
  0
LINE
  8
0
 10
-13.2565
 20
1016.55
 11
-13.3264
 21
1016.34
  0
LINE
  8
0
 10
-13.3264
 20
1016.34
 11
-13.4226
 21
1016.13
  0
LINE
  8
0
 10
-13.4226
 20
1016.13
 11
-13.5438
 21
1015.94
  0
LINE
  8
0
 10
-13.5438
 20
1015.94
 11
-13.6879
 21
1015.77
  0
LINE
  8
0
 10
-13.6879
 20
1015.77
 11
-13.8526
 21
1015.61
  0
LINE
  8
0
 10
-13.8526
 20
1015.61
 11
-14.0355
 21
1015.48
  0
LINE
  8
0
 10
-14.0355
 20
1015.48
 11
-14.2336
 21
1015.37
  0
LINE
  8
0
 10
-14.2336
 20
1015.37
 11
-14.4438
 21
1015.29
  0
LINE
  8
0
 10
-14.4438
 20
1015.29
 11
-14.6627
 21
1015.23
  0
LINE
  8
0
 10
-14.6627
 20
1015.23
 11
-14.887
 21
1015.2
  0
LINE
  8
0
 10
-14.887
 20
1015.2
 11
-15.113
 21
1015.2
  0
LINE
  8
0
 10
-15.113
 20
745.204
 11
-15.3373
 21
745.232
  0
LINE
  8
0
 10
-15.3373
 20
745.232
 11
-15.5562
 21
745.288
  0
LINE
  8
0
 10
-15.5562
 20
745.288
 11
-15.7664
 21
745.371
  0
LINE
  8
0
 10
-15.7664
 20
745.371
 11
-15.9645
 21
745.48
  0
LINE
  8
0
 10
-15.9645
 20
745.48
 11
-16.1474
 21
745.613
  0
LINE
  8
0
 10
-16.1474
 20
745.613
 11
-16.3121
 21
745.768
  0
LINE
  8
0
 10
-16.3121
 20
745.768
 11
-16.4562
 21
745.942
  0
LINE
  8
0
 10
-16.4562
 20
745.942
 11
-16.5773
 21
746.133
  0
LINE
  8
0
 10
-16.5773
 20
746.133
 11
-16.6736
 21
746.337
  0
LINE
  8
0
 10
-16.6736
 20
746.337
 11
-16.7434
 21
746.552
  0
LINE
  8
0
 10
-16.7434
 20
746.552
 11
-16.7858
 21
746.774
  0
LINE
  8
0
 10
-16.7858
 20
746.774
 11
-16.8
 21
747
  0
LINE
  8
0
 10
-16.8
 20
747
 11
-16.7858
 21
747.226
  0
LINE
  8
0
 10
-16.7858
 20
747.226
 11
-16.7434
 21
747.448
  0
LINE
  8
0
 10
-16.7434
 20
747.448
 11
-16.6736
 21
747.663
  0
LINE
  8
0
 10
-16.6736
 20
747.663
 11
-16.5773
 21
747.867
  0
LINE
  8
0
 10
-16.5773
 20
747.867
 11
-16.4562
 21
748.058
  0
LINE
  8
0
 10
-16.4562
 20
748.058
 11
-16.3121
 21
748.232
  0
LINE
  8
0
 10
-16.3121
 20
748.232
 11
-16.1474
 21
748.387
  0
LINE
  8
0
 10
-16.1474
 20
748.387
 11
-15.9645
 21
748.52
  0
LINE
  8
0
 10
-15.9645
 20
748.52
 11
-15.7664
 21
748.629
  0
LINE
  8
0
 10
-15.7664
 20
748.629
 11
-15.5562
 21
748.712
  0
LINE
  8
0
 10
-15.5562
 20
748.712
 11
-15.3373
 21
748.768
  0
LINE
  8
0
 10
-15.3373
 20
748.768
 11
-15.113
 21
748.796
  0
LINE
  8
0
 10
-15.113
 20
748.796
 11
-14.887
 21
748.796
  0
LINE
  8
0
 10
-14.887
 20
748.796
 11
-14.6627
 21
748.768
  0
LINE
  8
0
 10
-14.6627
 20
748.768
 11
-14.4438
 21
748.712
  0
LINE
  8
0
 10
-14.4438
 20
748.712
 11
-14.2336
 21
748.629
  0
LINE
  8
0
 10
-14.2336
 20
748.629
 11
-14.0355
 21
748.52
  0
LINE
  8
0
 10
-14.0355
 20
748.52
 11
-13.8526
 21
748.387
  0
LINE
  8
0
 10
-13.8526
 20
748.387
 11
-13.6879
 21
748.232
  0
LINE
  8
0
 10
-13.6879
 20
748.232
 11
-13.5438
 21
748.058
  0
LINE
  8
0
 10
-13.5438
 20
748.058
 11
-13.4226
 21
747.867
  0
LINE
  8
0
 10
-13.4226
 20
747.867
 11
-13.3264
 21
747.663
  0
LINE
  8
0
 10
-13.3264
 20
747.663
 11
-13.2565
 21
747.448
  0
LINE
  8
0
 10
-13.2565
 20
747.448
 11
-13.2142
 21
747.226
  0
LINE
  8
0
 10
-13.2142
 20
747.226
 11
-13.2
 21
747
  0
LINE
  8
0
 10
-13.2
 20
747
 11
-13.2142
 21
746.774
  0
LINE
  8
0
 10
-13.2142
 20
746.774
 11
-13.2565
 21
746.552
  0
LINE
  8
0
 10
-13.2565
 20
746.552
 11
-13.3264
 21
746.337
  0
LINE
  8
0
 10
-13.3264
 20
746.337
 11
-13.4226
 21
746.133
  0
LINE
  8
0
 10
-13.4226
 20
746.133
 11
-13.5438
 21
745.942
  0
LINE
  8
0
 10
-13.5438
 20
745.942
 11
-13.6879
 21
745.768
  0
LINE
  8
0
 10
-13.6879
 20
745.768
 11
-13.8526
 21
745.613
  0
LINE
  8
0
 10
-13.8526
 20
745.613
 11
-14.0355
 21
745.48
  0
LINE
  8
0
 10
-14.0355
 20
745.48
 11
-14.2336
 21
745.371
  0
LINE
  8
0
 10
-14.2336
 20
745.371
 11
-14.4438
 21
745.288
  0
LINE
  8
0
 10
-14.4438
 20
745.288
 11
-14.6627
 21
745.232
  0
LINE
  8
0
 10
-14.6627
 20
745.232
 11
-14.887
 21
745.204
  0
LINE
  8
0
 10
-14.887
 20
745.204
 11
-15.113
 21
745.204
  0
LINE
  8
0
 10
14.887
 20
745.204
 11
14.6627
 21
745.232
  0
LINE
  8
0
 10
14.6627
 20
745.232
 11
14.4438
 21
745.288
  0
LINE
  8
0
 10
14.4438
 20
745.288
 11
14.2336
 21
745.371
  0
LINE
  8
0
 10
14.2336
 20
745.371
 11
14.0355
 21
745.48
  0
LINE
  8
0
 10
14.0355
 20
745.48
 11
13.8526
 21
745.613
  0
LINE
  8
0
 10
13.8526
 20
745.613
 11
13.6879
 21
745.768
  0
LINE
  8
0
 10
13.6879
 20
745.768
 11
13.5438
 21
745.942
  0
LINE
  8
0
 10
13.5438
 20
745.942
 11
13.4226
 21
746.133
  0
LINE
  8
0
 10
13.4226
 20
746.133
 11
13.3264
 21
746.337
  0
LINE
  8
0
 10
13.3264
 20
746.337
 11
13.2565
 21
746.552
  0
LINE
  8
0
 10
13.2565
 20
746.552
 11
13.2142
 21
746.774
  0
LINE
  8
0
 10
13.2142
 20
746.774
 11
13.2
 21
747
  0
LINE
  8
0
 10
13.2
 20
747
 11
13.2142
 21
747.226
  0
LINE
  8
0
 10
13.2142
 20
747.226
 11
13.2565
 21
747.448
  0
LINE
  8
0
 10
13.2565
 20
747.448
 11
13.3264
 21
747.663
  0
LINE
  8
0
 10
13.3264
 20
747.663
 11
13.4226
 21
747.867
  0
LINE
  8
0
 10
13.4226
 20
747.867
 11
13.5438
 21
748.058
  0
LINE
  8
0
 10
13.5438
 20
748.058
 11
13.6879
 21
748.232
  0
LINE
  8
0
 10
13.6879
 20
748.232
 11
13.8526
 21
748.387
  0
LINE
  8
0
 10
13.8526
 20
748.387
 11
14.0355
 21
748.52
  0
LINE
  8
0
 10
14.0355
 20
748.52
 11
14.2336
 21
748.629
  0
LINE
  8
0
 10
14.2336
 20
748.629
 11
14.4438
 21
748.712
  0
LINE
  8
0
 10
14.4438
 20
748.712
 11
14.6627
 21
748.768
  0
LINE
  8
0
 10
14.6627
 20
748.768
 11
14.887
 21
748.796
  0
LINE
  8
0
 10
14.887
 20
748.796
 11
15.113
 21
748.796
  0
LINE
  8
0
 10
15.113
 20
748.796
 11
15.3373
 21
748.768
  0
LINE
  8
0
 10
15.3373
 20
748.768
 11
15.5562
 21
748.712
  0
LINE
  8
0
 10
15.5562
 20
748.712
 11
15.7664
 21
748.629
  0
LINE
  8
0
 10
15.7664
 20
748.629
 11
15.9645
 21
748.52
  0
LINE
  8
0
 10
15.9645
 20
748.52
 11
16.1474
 21
748.387
  0
LINE
  8
0
 10
16.1474
 20
748.387
 11
16.3121
 21
748.232
  0
LINE
  8
0
 10
16.3121
 20
748.232
 11
16.4562
 21
748.058
  0
LINE
  8
0
 10
16.4562
 20
748.058
 11
16.5773
 21
747.867
  0
LINE
  8
0
 10
16.5773
 20
747.867
 11
16.6736
 21
747.663
  0
LINE
  8
0
 10
16.6736
 20
747.663
 11
16.7434
 21
747.448
  0
LINE
  8
0
 10
16.7434
 20
747.448
 11
16.7858
 21
747.226
  0
LINE
  8
0
 10
16.7858
 20
747.226
 11
16.8
 21
747
  0
LINE
  8
0
 10
16.8
 20
747
 11
16.7858
 21
746.774
  0
LINE
  8
0
 10
16.7858
 20
746.774
 11
16.7434
 21
746.552
  0
LINE
  8
0
 10
16.7434
 20
746.552
 11
16.6736
 21
746.337
  0
LINE
  8
0
 10
16.6736
 20
746.337
 11
16.5773
 21
746.133
  0
LINE
  8
0
 10
16.5773
 20
746.133
 11
16.4562
 21
745.942
  0
LINE
  8
0
 10
16.4562
 20
745.942
 11
16.3121
 21
745.768
  0
LINE
  8
0
 10
16.3121
 20
745.768
 11
16.1474
 21
745.613
  0
LINE
  8
0
 10
16.1474
 20
745.613
 11
15.9645
 21
745.48
  0
LINE
  8
0
 10
15.9645
 20
745.48
 11
15.7664
 21
745.371
  0
LINE
  8
0
 10
15.7664
 20
745.371
 11
15.5562
 21
745.288
  0
LINE
  8
0
 10
15.5562
 20
745.288
 11
15.3373
 21
745.232
  0
LINE
  8
0
 10
15.3373
 20
745.232
 11
15.113
 21
745.204
  0
LINE
  8
0
 10
15.113
 20
745.204
 11
14.887
 21
745.204
  0
ENDSEC
  0
SECTION
  2
OBJECTS
  0
DICTIONARY
  0
ENDSEC
  0
EOF
