<?xml version="1.0" standalone="no"?>
<!DOCTYPE svg PUBLIC "-//W3C//DTD SVG 1.1//EN" "http://www.w3.org/Graphics/SVG/1.1/DTD/svg11.dtd">
<svg width="24mm" height="154mm" viewBox="-12 -239 24 154" xmlns="http://www.w3.org/2000/svg" version="1.1">
<title>OpenSCAD Model</title>
<path d="
M 7.1869,-193.589 L 7.79507,-193.745 L 8.37889,-193.976 L 8.92912,-194.278 L 9.43712,-194.647 L 9.89484,-195.077
 L 10.2951,-195.561 L 10.6315,-196.091 L 10.8989,-196.659 L 11.0929,-197.257 L 11.2106,-197.873 L 11.25,-198.5
 L 11.25,-233.5 L 11.2106,-234.127 L 11.0929,-234.743 L 10.8989,-235.341 L 10.6315,-235.909 L 10.2951,-236.439
 L 9.89484,-236.923 L 9.43712,-237.353 L 8.92912,-237.722 L 8.37889,-238.024 L 7.79507,-238.255 L 7.1869,-238.411
 L 6.56395,-238.49 L -6.56395,-238.49 L -7.1869,-238.411 L -7.79507,-238.255 L -8.37889,-238.024 L -8.92912,-237.722
 L -9.43712,-237.353 L -9.89484,-236.923 L -10.2951,-236.439 L -10.6315,-235.909 L -10.8989,-235.341 L -11.0929,-234.743
 L -11.2106,-234.127 L -11.25,-233.5 L -11.25,-198.5 L -11.2106,-197.873 L -11.0929,-197.257 L -10.8989,-196.659
 L -10.6315,-196.091 L -10.2951,-195.561 L -9.89484,-195.077 L -9.43712,-194.647 L -8.92912,-194.278 L -8.37889,-193.976
 L -7.79507,-193.745 L -7.1869,-193.589 L -6.56395,-193.51 L 6.56395,-193.51 z
M -6.29825,-194.009 L -6.89006,-194.084 L -7.46782,-194.232 L -8.02245,-194.452 L -8.54517,-194.739 L -9.02776,-195.09
 L -9.4626,-195.498 L -9.84282,-195.958 L -10.1624,-196.462 L -10.4164,-197.001 L -10.6008,-197.569 L -10.7125,-198.155
 L -10.75,-198.75 L -10.75,-233.25 L -10.7125,-233.845 L -10.6008,-234.431 L -10.4164,-234.999 L -10.1624,-235.538
 L -9.84282,-236.042 L -9.4626,-236.502 L -9.02776,-236.91 L -8.54517,-237.261 L -8.02245,-237.548 L -7.46782,-237.768
 L -6.89006,-237.916 L -6.29825,-237.991 L 6.29825,-237.991 L 6.89006,-237.916 L 7.46782,-237.768 L 8.02245,-237.548
 L 8.54517,-237.261 L 9.02776,-236.91 L 9.4626,-236.502 L 9.84282,-236.042 L 10.1624,-235.538 L 10.4164,-234.999
 L 10.6008,-234.431 L 10.7125,-233.845 L 10.75,-233.25 L 10.75,-198.75 L 10.7125,-198.155 L 10.6008,-197.569
 L 10.4164,-197.001 L 10.1624,-196.462 L 9.84282,-195.958 L 9.4626,-195.498 L 9.02776,-195.09 L 8.54517,-194.739
 L 8.02245,-194.452 L 7.46782,-194.232 L 6.89006,-194.084 L 6.29825,-194.009 z
M 7.1869,-139.589 L 7.79507,-139.745 L 8.37889,-139.976 L 8.92912,-140.278 L 9.43712,-140.647 L 9.89484,-141.077
 L 10.2951,-141.561 L 10.6315,-142.091 L 10.8989,-142.659 L 11.0929,-143.257 L 11.2106,-143.873 L 11.25,-144.5
 L 11.25,-179.5 L 11.2106,-180.127 L 11.0929,-180.743 L 10.8989,-181.341 L 10.6315,-181.909 L 10.2951,-182.439
 L 9.89484,-182.923 L 9.43712,-183.353 L 8.92912,-183.722 L 8.37889,-184.024 L 7.79507,-184.255 L 7.1869,-184.411
 L 6.56395,-184.49 L -6.56395,-184.49 L -7.1869,-184.411 L -7.79507,-184.255 L -8.37889,-184.024 L -8.92912,-183.722
 L -9.43712,-183.353 L -9.89484,-182.923 L -10.2951,-182.439 L -10.6315,-181.909 L -10.8989,-181.341 L -11.0929,-180.743
 L -11.2106,-180.127 L -11.25,-179.5 L -11.25,-144.5 L -11.2106,-143.873 L -11.0929,-143.257 L -10.8989,-142.659
 L -10.6315,-142.091 L -10.2951,-141.561 L -9.89484,-141.077 L -9.43712,-140.647 L -8.92912,-140.278 L -8.37889,-139.976
 L -7.79507,-139.745 L -7.1869,-139.589 L -6.56395,-139.51 L 6.56395,-139.51 z
M -6.24297,-140.888 L -6.72505,-140.949 L -7.19572,-141.07 L -7.64754,-141.249 L -8.07336,-141.483 L -8.46649,-141.769
 L -8.82071,-142.101 L -9.13046,-142.476 L -9.39084,-142.886 L -9.59773,-143.326 L -9.74789,-143.788 L -9.83896,-144.265
 L -9.86946,-144.75 L -9.86946,-179.25 L -9.83896,-179.735 L -9.74789,-180.212 L -9.59773,-180.674 L -9.39084,-181.114
 L -9.13046,-181.524 L -8.82071,-181.899 L -8.46649,-182.231 L -8.07336,-182.517 L -7.64754,-182.751 L -7.19572,-182.93
 L -6.72505,-183.051 L -6.24297,-183.112 L 6.24297,-183.112 L 6.72505,-183.051 L 7.19572,-182.93 L 7.64754,-182.751
 L 8.07336,-182.517 L 8.46649,-182.231 L 8.82071,-181.899 L 9.13046,-181.524 L 9.39084,-181.114 L 9.59773,-180.674
 L 9.74789,-180.212 L 9.83896,-179.735 L 9.86946,-179.25 L 9.86946,-144.75 L 9.83896,-144.265 L 9.74789,-143.788
 L 9.59773,-143.326 L 9.39084,-142.886 L 9.13046,-142.476 L 8.82071,-142.101 L 8.46649,-141.769 L 8.07336,-141.483
 L 7.64754,-141.249 L 7.19572,-141.07 L 6.72505,-140.949 L 6.24297,-140.888 z
M 7.1869,-85.5886 L 7.79507,-85.7447 L 8.37889,-85.9759 L 8.92912,-86.2784 L 9.43712,-86.6474 L 9.89484,-87.0773
 L 10.2951,-87.5611 L 10.6315,-88.0912 L 10.8989,-88.6594 L 11.0929,-89.2566 L 11.2106,-89.8733 L 11.25,-90.5
 L 11.25,-125.5 L 11.2106,-126.127 L 11.0929,-126.743 L 10.8989,-127.341 L 10.6315,-127.909 L 10.2951,-128.439
 L 9.89484,-128.923 L 9.43712,-129.353 L 8.92912,-129.722 L 8.37889,-130.024 L 7.79507,-130.255 L 7.1869,-130.411
 L 6.56395,-130.49 L -6.56395,-130.49 L -7.1869,-130.411 L -7.79507,-130.255 L -8.37889,-130.024 L -8.92912,-129.722
 L -9.43712,-129.353 L -9.89484,-128.923 L -10.2951,-128.439 L -10.6315,-127.909 L -10.8989,-127.341 L -11.0929,-126.743
 L -11.2106,-126.127 L -11.25,-125.5 L -11.25,-90.5 L -11.2106,-89.8733 L -11.0929,-89.2566 L -10.8989,-88.6594
 L -10.6315,-88.0912 L -10.2951,-87.5611 L -9.89484,-87.0773 L -9.43712,-86.6474 L -8.92912,-86.2784 L -8.37889,-85.9759
 L -7.79507,-85.7447 L -7.1869,-85.5886 L -6.56395,-85.5099 L 6.56395,-85.5099 z
M 3.63696,-121.204 L 3.4127,-121.232 L 3.19376,-121.288 L 2.9836,-121.371 L 2.78551,-121.48 L 2.60263,-121.613
 L 2.43785,-121.768 L 2.29376,-121.942 L 2.17264,-122.133 L 2.0764,-122.337 L 2.00655,-122.552 L 1.96419,-122.774
 L 1.95,-123 L 1.96419,-123.226 L 2.00655,-123.448 L 2.0764,-123.663 L 2.17264,-123.867 L 2.29376,-124.058
 L 2.43785,-124.232 L 2.60263,-124.387 L 2.78551,-124.52 L 2.9836,-124.629 L 3.19376,-124.712 L 3.4127,-124.768
 L 3.63696,-124.796 L 3.86302,-124.796 L 4.08728,-124.768 L 4.30623,-124.712 L 4.51639,-124.629 L 4.71448,-124.52
 L 4.89735,-124.387 L 5.06213,-124.232 L 5.20622,-124.058 L 5.32735,-123.867 L 5.42358,-123.663 L 5.49344,-123.448
 L 5.5358,-123.226 L 5.54999,-123 L 5.5358,-122.774 L 5.49344,-122.552 L 5.42358,-122.337 L 5.32735,-122.133
 L 5.20622,-121.942 L 5.06213,-121.768 L 4.89735,-121.613 L 4.71448,-121.48 L 4.51639,-121.371 L 4.30623,-121.288
 L 4.08728,-121.232 L 3.86302,-121.204 z
M -3.86302,-121.204 L -4.08728,-121.232 L -4.30623,-121.288 L -4.51639,-121.371 L -4.71448,-121.48 L -4.89735,-121.613
 L -5.06213,-121.768 L -5.20622,-121.942 L -5.32735,-122.133 L -5.42358,-122.337 L -5.49344,-122.552 L -5.5358,-122.774
 L -5.54999,-123 L -5.5358,-123.226 L -5.49344,-123.448 L -5.42358,-123.663 L -5.32735,-123.867 L -5.20622,-124.058
 L -5.06213,-124.232 L -4.89735,-124.387 L -4.71448,-124.52 L -4.51639,-124.629 L -4.30623,-124.712 L -4.08728,-124.768
 L -3.86302,-124.796 L -3.63696,-124.796 L -3.4127,-124.768 L -3.19376,-124.712 L -2.9836,-124.629 L -2.78551,-124.52
 L -2.60263,-124.387 L -2.43785,-124.232 L -2.29376,-124.058 L -2.17264,-123.867 L -2.0764,-123.663 L -2.00655,-123.448
 L -1.96419,-123.226 L -1.95,-123 L -1.96419,-122.774 L -2.00655,-122.552 L -2.0764,-122.337 L -2.17264,-122.133
 L -2.29376,-121.942 L -2.43785,-121.768 L -2.60263,-121.613 L -2.78551,-121.48 L -2.9836,-121.371 L -3.19376,-121.288
 L -3.4127,-121.232 L -3.63696,-121.204 z
M -3.86302,-91.2036 L -4.08728,-91.2319 L -4.30623,-91.2881 L -4.51639,-91.3713 L -4.71448,-91.4802 L -4.89735,-91.6131
 L -5.06213,-91.7678 L -5.20622,-91.942 L -5.32735,-92.1329 L -5.42358,-92.3374 L -5.49344,-92.5524 L -5.5358,-92.7744
 L -5.54999,-93 L -5.5358,-93.2256 L -5.49344,-93.4476 L -5.42358,-93.6626 L -5.32735,-93.8672 L -5.20622,-94.058
 L -5.06213,-94.2322 L -4.89735,-94.3869 L -4.71448,-94.5198 L -4.51639,-94.6287 L -4.30623,-94.7119 L -4.08728,-94.7681
 L -3.86302,-94.7964 L -3.63696,-94.7964 L -3.4127,-94.7681 L -3.19376,-94.7119 L -2.9836,-94.6287 L -2.78551,-94.5198
 L -2.60263,-94.3869 L -2.43785,-94.2322 L -2.29376,-94.058 L -2.17264,-93.8672 L -2.0764,-93.6626 L -2.00655,-93.4476
 L -1.96419,-93.2256 L -1.95,-93 L -1.96419,-92.7744 L -2.00655,-92.5524 L -2.0764,-92.3374 L -2.17264,-92.1329
 L -2.29376,-91.942 L -2.43785,-91.7678 L -2.60263,-91.6131 L -2.78551,-91.4802 L -2.9836,-91.3713 L -3.19376,-91.2881
 L -3.4127,-91.2319 L -3.63696,-91.2036 z
M 3.63696,-91.2036 L 3.4127,-91.2319 L 3.19376,-91.2881 L 2.9836,-91.3713 L 2.78551,-91.4802 L 2.60263,-91.6131
 L 2.43785,-91.7678 L 2.29376,-91.942 L 2.17264,-92.1329 L 2.0764,-92.3374 L 2.00655,-92.5524 L 1.96419,-92.7744
 L 1.95,-93 L 1.96419,-93.2256 L 2.00655,-93.4476 L 2.0764,-93.6626 L 2.17264,-93.8672 L 2.29376,-94.058
 L 2.43785,-94.2322 L 2.60263,-94.3869 L 2.78551,-94.5198 L 2.9836,-94.6287 L 3.19376,-94.7119 L 3.4127,-94.7681
 L 3.63696,-94.7964 L 3.86302,-94.7964 L 4.08728,-94.7681 L 4.30623,-94.7119 L 4.51639,-94.6287 L 4.71448,-94.5198
 L 4.89735,-94.3869 L 5.06213,-94.2322 L 5.20622,-94.058 L 5.32735,-93.8672 L 5.42358,-93.6626 L 5.49344,-93.4476
 L 5.5358,-93.2256 L 5.54999,-93 L 5.5358,-92.7744 L 5.49344,-92.5524 L 5.42358,-92.3374 L 5.32735,-92.1329
 L 5.20622,-91.942 L 5.06213,-91.7678 L 4.89735,-91.6131 L 4.71448,-91.4802 L 4.51639,-91.3713 L 4.30623,-91.2881
 L 4.08728,-91.2319 L 3.86302,-91.2036 z
" stroke="black" fill="lightgray" stroke-width="0.5"/>
</svg>
