<?xml version="1.0" standalone="no"?>
<!DOCTYPE svg PUBLIC "-//W3C//DTD SVG 1.1//EN" "http://www.w3.org/Graphics/SVG/1.1/DTD/svg11.dtd">
<svg width="30mm" height="158mm" viewBox="-15 -121 30 158" xmlns="http://www.w3.org/2000/svg" version="1.1">
<title>OpenSCAD Model</title>
<path d="
M 10.4369,-47.0886 L 11.0451,-47.2447 L 11.6289,-47.4759 L 12.1791,-47.7784 L 12.6871,-48.1474 L 13.1448,-48.5773
 L 13.5451,-49.0611 L 13.8815,-49.5912 L 14.1489,-50.1594 L 14.3429,-50.7566 L 14.4606,-51.3733 L 14.5,-52
 L 14.5,-116 L 14.4606,-116.627 L 14.3429,-117.243 L 14.1489,-117.841 L 13.8815,-118.409 L 13.5451,-118.939
 L 13.1448,-119.423 L 12.6871,-119.853 L 12.1791,-120.222 L 11.6289,-120.524 L 11.0451,-120.755 L 10.4369,-120.911
 L 9.81395,-120.99 L -9.81395,-120.99 L -10.4369,-120.911 L -11.0451,-120.755 L -11.6289,-120.524 L -12.1791,-120.222
 L -12.6871,-119.853 L -13.1448,-119.423 L -13.5451,-118.939 L -13.8815,-118.409 L -14.1489,-117.841 L -14.3429,-117.243
 L -14.4606,-116.627 L -14.5,-116 L -14.5,-52 L -14.4606,-51.3733 L -14.3429,-50.7566 L -14.1489,-50.1594
 L -13.8815,-49.5912 L -13.5451,-49.0611 L -13.1448,-48.5773 L -12.6871,-48.1474 L -12.1791,-47.7784 L -11.6289,-47.4759
 L -11.0451,-47.2447 L -10.4369,-47.0886 L -9.81395,-47.0099 L 9.81395,-47.0099 z
M -7.68837,-111.006 L -8.06213,-111.053 L -8.42705,-111.147 L -8.77733,-111.286 L -9.10747,-111.467 L -9.41226,-111.688
 L -9.6869,-111.946 L -9.92705,-112.237 L -10.1289,-112.555 L -10.2893,-112.896 L -10.4057,-113.254 L -10.4763,-113.624
 L -10.5,-114 L -10.4763,-114.376 L -10.4057,-114.746 L -10.2893,-115.104 L -10.1289,-115.445 L -9.92705,-115.763
 L -9.6869,-116.054 L -9.41226,-116.312 L -9.10747,-116.533 L -8.77733,-116.714 L -8.42705,-116.853 L -8.06213,-116.947
 L -7.68837,-116.994 L -7.31161,-116.994 L -6.93785,-116.947 L -6.57294,-116.853 L -6.22266,-116.714 L -5.89252,-116.533
 L -5.58772,-116.312 L -5.31308,-116.054 L -5.07294,-115.763 L -4.87108,-115.445 L -4.71066,-115.104 L -4.59424,-114.746
 L -4.52365,-114.376 L -4.5,-114 L -4.52365,-113.624 L -4.59424,-113.254 L -4.71066,-112.896 L -4.87108,-112.555
 L -5.07294,-112.237 L -5.31308,-111.946 L -5.58772,-111.688 L -5.89252,-111.467 L -6.22266,-111.286 L -6.57294,-111.147
 L -6.93785,-111.053 L -7.31161,-111.006 z
M 7.31161,-111.006 L 6.93785,-111.053 L 6.57294,-111.147 L 6.22266,-111.286 L 5.89252,-111.467 L 5.58772,-111.688
 L 5.31308,-111.946 L 5.07294,-112.237 L 4.87108,-112.555 L 4.71066,-112.896 L 4.59424,-113.254 L 4.52365,-113.624
 L 4.5,-114 L 4.52365,-114.376 L 4.59424,-114.746 L 4.71066,-115.104 L 4.87108,-115.445 L 5.07294,-115.763
 L 5.31308,-116.054 L 5.58772,-116.312 L 5.89252,-116.533 L 6.22266,-116.714 L 6.57294,-116.853 L 6.93785,-116.947
 L 7.31161,-116.994 L 7.68837,-116.994 L 8.06213,-116.947 L 8.42705,-116.853 L 8.77733,-116.714 L 9.10747,-116.533
 L 9.41226,-116.312 L 9.6869,-116.054 L 9.92705,-115.763 L 10.1289,-115.445 L 10.2893,-115.104 L 10.4057,-114.746
 L 10.4763,-114.376 L 10.5,-114 L 10.4763,-113.624 L 10.4057,-113.254 L 10.2893,-112.896 L 10.1289,-112.555
 L 9.92705,-112.237 L 9.6869,-111.946 L 9.41226,-111.688 L 9.10747,-111.467 L 8.77733,-111.286 L 8.42705,-111.147
 L 8.06213,-111.053 L 7.68837,-111.006 z
M -9.5,-94.75 L -9.5,-103.25 L -5.5,-103.25 L -5.5,-94.75 z
M 5.5,-94.75 L 5.5,-103.25 L 9.5,-103.25 L 9.5,-94.75 z
M -9.5,-79.75 L -9.5,-88.25 L -5.5,-88.25 L -5.5,-79.75 z
M 5.5,-79.75 L 5.5,-88.25 L 9.5,-88.25 L 9.5,-79.75 z
M -9.5,-64.75 L -9.5,-73.25 L -5.5,-73.25 L -5.5,-64.75 z
M 5.5,-64.75 L 5.5,-73.25 L 9.5,-73.25 L 9.5,-64.75 z
M -7.68837,-51.0059 L -8.06213,-51.0531 L -8.42705,-51.1468 L -8.77733,-51.2855 L -9.10747,-51.467 L -9.41226,-51.6885
 L -9.6869,-51.9464 L -9.92705,-52.2366 L -10.1289,-52.5547 L -10.2893,-52.8956 L -10.4057,-53.2539 L -10.4763,-53.624
 L -10.5,-54 L -10.4763,-54.376 L -10.4057,-54.7461 L -10.2893,-55.1044 L -10.1289,-55.4453 L -9.92705,-55.7634
 L -9.6869,-56.0536 L -9.41226,-56.3116 L -9.10747,-56.533 L -8.77733,-56.7145 L -8.42705,-56.8532 L -8.06213,-56.9469
 L -7.68837,-56.9941 L -7.31161,-56.9941 L -6.93785,-56.9469 L -6.57294,-56.8532 L -6.22266,-56.7145 L -5.89252,-56.533
 L -5.58772,-56.3116 L -5.31308,-56.0536 L -5.07294,-55.7634 L -4.87108,-55.4453 L -4.71066,-55.1044 L -4.59424,-54.7461
 L -4.52365,-54.376 L -4.5,-54 L -4.52365,-53.624 L -4.59424,-53.2539 L -4.71066,-52.8956 L -4.87108,-52.5547
 L -5.07294,-52.2366 L -5.31308,-51.9464 L -5.58772,-51.6885 L -5.89252,-51.467 L -6.22266,-51.2855 L -6.57294,-51.1468
 L -6.93785,-51.0531 L -7.31161,-51.0059 z
M 7.31161,-51.0059 L 6.93785,-51.0531 L 6.57294,-51.1468 L 6.22266,-51.2855 L 5.89252,-51.467 L 5.58772,-51.6885
 L 5.31308,-51.9464 L 5.07294,-52.2366 L 4.87108,-52.5547 L 4.71066,-52.8956 L 4.59424,-53.2539 L 4.52365,-53.624
 L 4.5,-54 L 4.52365,-54.376 L 4.59424,-54.7461 L 4.71066,-55.1044 L 4.87108,-55.4453 L 5.07294,-55.7634
 L 5.31308,-56.0536 L 5.58772,-56.3116 L 5.89252,-56.533 L 6.22266,-56.7145 L 6.57294,-56.8532 L 6.93785,-56.9469
 L 7.31161,-56.9941 L 7.68837,-56.9941 L 8.06213,-56.9469 L 8.42705,-56.8532 L 8.77733,-56.7145 L 9.10747,-56.533
 L 9.41226,-56.3116 L 9.6869,-56.0536 L 9.92705,-55.7634 L 10.1289,-55.4453 L 10.2893,-55.1044 L 10.4057,-54.7461
 L 10.4763,-54.376 L 10.5,-54 L 10.4763,-53.624 L 10.4057,-53.2539 L 10.2893,-52.8956 L 10.1289,-52.5547
 L 9.92705,-52.2366 L 9.6869,-51.9464 L 9.41226,-51.6885 L 9.10747,-51.467 L 8.77733,-51.2855 L 8.42705,-51.1468
 L 8.06213,-51.0531 L 7.68837,-51.0059 z
M 10.4369,36.9114 L 11.0451,36.7553 L 11.6289,36.5241 L 12.1791,36.2216 L 12.6871,35.8526 L 13.1448,35.4227
 L 13.5451,34.9389 L 13.8815,34.4088 L 14.1489,33.8406 L 14.3429,33.2434 L 14.4606,32.6267 L 14.5,32
 L 14.5,-32 L 14.4606,-32.6267 L 14.3429,-33.2434 L 14.1489,-33.8406 L 13.8815,-34.4088 L 13.5451,-34.9389
 L 13.1448,-35.4227 L 12.6871,-35.8526 L 12.1791,-36.2216 L 11.6289,-36.5241 L 11.0451,-36.7553 L 10.4369,-36.9114
 L 9.81395,-36.9901 L -9.81395,-36.9901 L -10.4369,-36.9114 L -11.0451,-36.7553 L -11.6289,-36.5241 L -12.1791,-36.2216
 L -12.6871,-35.8526 L -13.1448,-35.4227 L -13.5451,-34.9389 L -13.8815,-34.4088 L -14.1489,-33.8406 L -14.3429,-33.2434
 L -14.4606,-32.6267 L -14.5,-32 L -14.5,32 L -14.4606,32.6267 L -14.3429,33.2434 L -14.1489,33.8406
 L -13.8815,34.4088 L -13.5451,34.9389 L -13.1448,35.4227 L -12.6871,35.8526 L -12.1791,36.2216 L -11.6289,36.5241
 L -11.0451,36.7553 L -10.4369,36.9114 L -9.81395,36.9901 L 9.81395,36.9901 z
M 7.31161,-27.0059 L 6.93785,-27.0531 L 6.57294,-27.1468 L 6.22266,-27.2855 L 5.89252,-27.467 L 5.58772,-27.6884
 L 5.31308,-27.9464 L 5.07294,-28.2366 L 4.87108,-28.5547 L 4.71066,-28.8956 L 4.59424,-29.2539 L 4.52365,-29.624
 L 4.5,-30 L 4.52365,-30.376 L 4.59424,-30.7461 L 4.71066,-31.1044 L 4.87108,-31.4453 L 5.07294,-31.7634
 L 5.31308,-32.0536 L 5.58772,-32.3115 L 5.89252,-32.533 L 6.22266,-32.7145 L 6.57294,-32.8532 L 6.93785,-32.9469
 L 7.31161,-32.9941 L 7.68837,-32.9941 L 8.06213,-32.9469 L 8.42705,-32.8532 L 8.77733,-32.7145 L 9.10747,-32.533
 L 9.41226,-32.3115 L 9.6869,-32.0536 L 9.92705,-31.7634 L 10.1289,-31.4453 L 10.2893,-31.1044 L 10.4057,-30.7461
 L 10.4763,-30.376 L 10.5,-30 L 10.4763,-29.624 L 10.4057,-29.2539 L 10.2893,-28.8956 L 10.1289,-28.5547
 L 9.92705,-28.2366 L 9.6869,-27.9464 L 9.41226,-27.6884 L 9.10747,-27.467 L 8.77733,-27.2855 L 8.42705,-27.1468
 L 8.06213,-27.0531 L 7.68837,-27.0059 z
M -7.68837,-27.0059 L -8.06213,-27.0531 L -8.42705,-27.1468 L -8.77733,-27.2855 L -9.10747,-27.467 L -9.41226,-27.6884
 L -9.6869,-27.9464 L -9.92705,-28.2366 L -10.1289,-28.5547 L -10.2893,-28.8956 L -10.4057,-29.2539 L -10.4763,-29.624
 L -10.5,-30 L -10.4763,-30.376 L -10.4057,-30.7461 L -10.2893,-31.1044 L -10.1289,-31.4453 L -9.92705,-31.7634
 L -9.6869,-32.0536 L -9.41226,-32.3115 L -9.10747,-32.533 L -8.77733,-32.7145 L -8.42705,-32.8532 L -8.06213,-32.9469
 L -7.68837,-32.9941 L -7.31161,-32.9941 L -6.93785,-32.9469 L -6.57294,-32.8532 L -6.22266,-32.7145 L -5.89252,-32.533
 L -5.58772,-32.3115 L -5.31308,-32.0536 L -5.07294,-31.7634 L -4.87108,-31.4453 L -4.71066,-31.1044 L -4.59424,-30.7461
 L -4.52365,-30.376 L -4.5,-30 L -4.52365,-29.624 L -4.59424,-29.2539 L -4.71066,-28.8956 L -4.87108,-28.5547
 L -5.07294,-28.2366 L -5.31308,-27.9464 L -5.58772,-27.6884 L -5.89252,-27.467 L -6.22266,-27.2855 L -6.57294,-27.1468
 L -6.93785,-27.0531 L -7.31161,-27.0059 z
M -9.5,-17.75 L -9.5,-19.25 L -5.5,-19.25 L -5.5,-17.75 z
M 5.5,-17.75 L 5.5,-19.25 L 9.5,-19.25 L 9.5,-17.75 z
M -9.5,-10.75 L -9.5,-12.25 L -5.5,-12.25 L -5.5,-10.75 z
M 5.5,-10.75 L 5.5,-12.25 L 9.5,-12.25 L 9.5,-10.75 z
M -9.5,-2.75 L -9.5,-4.25 L -5.5,-4.25 L -5.5,-2.75 z
M 5.5,-2.75 L 5.5,-4.25 L 9.5,-4.25 L 9.5,-2.75 z
M -9.5,4.25 L -9.5,2.75 L -5.5,2.75 L -5.5,4.25 z
M 5.5,4.25 L 5.5,2.75 L 9.5,2.75 L 9.5,4.25 z
M -9.5,12.25 L -9.5,10.75 L -5.5,10.75 L -5.5,12.25 z
M 5.5,12.25 L 5.5,10.75 L 9.5,10.75 L 9.5,12.25 z
M 5.5,19.25 L 5.5,17.75 L 9.5,17.75 L 9.5,19.25 z
M -9.5,19.25 L -9.5,17.75 L -5.5,17.75 L -5.5,19.25 z
M -7.68837,32.9941 L -8.06213,32.9469 L -8.42705,32.8532 L -8.77733,32.7145 L -9.10747,32.533 L -9.41226,32.3115
 L -9.6869,32.0536 L -9.92705,31.7634 L -10.1289,31.4453 L -10.2893,31.1044 L -10.4057,30.7461 L -10.4763,30.376
 L -10.5,30 L -10.4763,29.624 L -10.4057,29.2539 L -10.2893,28.8956 L -10.1289,28.5547 L -9.92705,28.2366
 L -9.6869,27.9464 L -9.41226,27.6884 L -9.10747,27.467 L -8.77733,27.2855 L -8.42705,27.1468 L -8.06213,27.0531
 L -7.68837,27.0059 L -7.31161,27.0059 L -6.93785,27.0531 L -6.57294,27.1468 L -6.22266,27.2855 L -5.89252,27.467
 L -5.58772,27.6884 L -5.31308,27.9464 L -5.07294,28.2366 L -4.87108,28.5547 L -4.71066,28.8956 L -4.59424,29.2539
 L -4.52365,29.624 L -4.5,30 L -4.52365,30.376 L -4.59424,30.7461 L -4.71066,31.1044 L -4.87108,31.4453
 L -5.07294,31.7634 L -5.31308,32.0536 L -5.58772,32.3115 L -5.89252,32.533 L -6.22266,32.7145 L -6.57294,32.8532
 L -6.93785,32.9469 L -7.31161,32.9941 z
M 7.31161,32.9941 L 6.93785,32.9469 L 6.57294,32.8532 L 6.22266,32.7145 L 5.89252,32.533 L 5.58772,32.3115
 L 5.31308,32.0536 L 5.07294,31.7634 L 4.87108,31.4453 L 4.71066,31.1044 L 4.59424,30.7461 L 4.52365,30.376
 L 4.5,30 L 4.52365,29.624 L 4.59424,29.2539 L 4.71066,28.8956 L 4.87108,28.5547 L 5.07294,28.2366
 L 5.31308,27.9464 L 5.58772,27.6884 L 5.89252,27.467 L 6.22266,27.2855 L 6.57294,27.1468 L 6.93785,27.0531
 L 7.31161,27.0059 L 7.68837,27.0059 L 8.06213,27.0531 L 8.42705,27.1468 L 8.77733,27.2855 L 9.10747,27.467
 L 9.41226,27.6884 L 9.6869,27.9464 L 9.92705,28.2366 L 10.1289,28.5547 L 10.2893,28.8956 L 10.4057,29.2539
 L 10.4763,29.624 L 10.5,30 L 10.4763,30.376 L 10.4057,30.7461 L 10.2893,31.1044 L 10.1289,31.4453
 L 9.92705,31.7634 L 9.6869,32.0536 L 9.41226,32.3115 L 9.10747,32.533 L 8.77733,32.7145 L 8.42705,32.8532
 L 8.06213,32.9469 L 7.68837,32.9941 z
" stroke="black" fill="lightgray" stroke-width="0.5"/>
</svg>
