  0
SECTION
  2
BLOCKS
  0
ENDSEC
  0
SECTION
  2
ENTITIES
  0
LINE
  8
0
 10
93.4369
 20
289.589
 11
94.0451
 21
289.745
  0
LINE
  8
0
 10
94.0451
 20
289.745
 11
94.6289
 21
289.976
  0
LINE
  8
0
 10
94.6289
 20
289.976
 11
95.1791
 21
290.278
  0
LINE
  8
0
 10
95.1791
 20
290.278
 11
95.6871
 21
290.647
  0
LINE
  8
0
 10
95.6871
 20
290.647
 11
96.1448
 21
291.077
  0
LINE
  8
0
 10
96.1448
 20
291.077
 11
96.5451
 21
291.561
  0
LINE
  8
0
 10
96.5451
 20
291.561
 11
96.8815
 21
292.091
  0
LINE
  8
0
 10
96.8815
 20
292.091
 11
97.1489
 21
292.659
  0
LINE
  8
0
 10
97.1489
 20
292.659
 11
97.3429
 21
293.257
  0
LINE
  8
0
 10
97.3429
 20
293.257
 11
97.4606
 21
293.873
  0
LINE
  8
0
 10
97.4606
 20
293.873
 11
97.5
 21
294.5
  0
LINE
  8
0
 10
97.5
 20
294.5
 11
97.5
 21
389.5
  0
LINE
  8
0
 10
97.5
 20
389.5
 11
97.4606
 21
390.127
  0
LINE
  8
0
 10
97.4606
 20
390.127
 11
97.3429
 21
390.743
  0
LINE
  8
0
 10
97.3429
 20
390.743
 11
97.1489
 21
391.341
  0
LINE
  8
0
 10
97.1489
 20
391.341
 11
96.8815
 21
391.909
  0
LINE
  8
0
 10
96.8815
 20
391.909
 11
96.5451
 21
392.439
  0
LINE
  8
0
 10
96.5451
 20
392.439
 11
96.1448
 21
392.923
  0
LINE
  8
0
 10
96.1448
 20
392.923
 11
95.6871
 21
393.353
  0
LINE
  8
0
 10
95.6871
 20
393.353
 11
95.1791
 21
393.722
  0
LINE
  8
0
 10
95.1791
 20
393.722
 11
94.6289
 21
394.024
  0
LINE
  8
0
 10
94.6289
 20
394.024
 11
94.0451
 21
394.255
  0
LINE
  8
0
 10
94.0451
 20
394.255
 11
93.4369
 21
394.411
  0
LINE
  8
0
 10
93.4369
 20
394.411
 11
92.8139
 21
394.49
  0
LINE
  8
0
 10
92.8139
 20
394.49
 11
-92.8139
 21
394.49
  0
LINE
  8
0
 10
-92.8139
 20
394.49
 11
-93.4369
 21
394.411
  0
LINE
  8
0
 10
-93.4369
 20
394.411
 11
-94.0451
 21
394.255
  0
LINE
  8
0
 10
-94.0451
 20
394.255
 11
-94.6289
 21
394.024
  0
LINE
  8
0
 10
-94.6289
 20
394.024
 11
-95.1791
 21
393.722
  0
LINE
  8
0
 10
-95.1791
 20
393.722
 11
-95.6871
 21
393.353
  0
LINE
  8
0
 10
-95.6871
 20
393.353
 11
-96.1448
 21
392.923
  0
LINE
  8
0
 10
-96.1448
 20
392.923
 11
-96.5451
 21
392.439
  0
LINE
  8
0
 10
-96.5451
 20
392.439
 11
-96.8815
 21
391.909
  0
LINE
  8
0
 10
-96.8815
 20
391.909
 11
-97.1489
 21
391.341
  0
LINE
  8
0
 10
-97.1489
 20
391.341
 11
-97.3429
 21
390.743
  0
LINE
  8
0
 10
-97.3429
 20
390.743
 11
-97.4606
 21
390.127
  0
LINE
  8
0
 10
-97.4606
 20
390.127
 11
-97.5
 21
389.5
  0
LINE
  8
0
 10
-97.5
 20
389.5
 11
-97.5
 21
294.5
  0
LINE
  8
0
 10
-97.5
 20
294.5
 11
-97.4606
 21
293.873
  0
LINE
  8
0
 10
-97.4606
 20
293.873
 11
-97.3429
 21
293.257
  0
LINE
  8
0
 10
-97.3429
 20
293.257
 11
-97.1489
 21
292.659
  0
LINE
  8
0
 10
-97.1489
 20
292.659
 11
-96.8815
 21
292.091
  0
LINE
  8
0
 10
-96.8815
 20
292.091
 11
-96.5451
 21
291.561
  0
LINE
  8
0
 10
-96.5451
 20
291.561
 11
-96.1448
 21
291.077
  0
LINE
  8
0
 10
-96.1448
 20
291.077
 11
-95.6871
 21
290.647
  0
LINE
  8
0
 10
-95.6871
 20
290.647
 11
-95.1791
 21
290.278
  0
LINE
  8
0
 10
-95.1791
 20
290.278
 11
-94.6289
 21
289.976
  0
LINE
  8
0
 10
-94.6289
 20
289.976
 11
-94.0451
 21
289.745
  0
LINE
  8
0
 10
-94.0451
 20
289.745
 11
-93.4369
 21
289.589
  0
LINE
  8
0
 10
-93.4369
 20
289.589
 11
-92.8139
 21
289.51
  0
LINE
  8
0
 10
-92.8139
 20
289.51
 11
92.8139
 21
289.51
  0
LINE
  8
0
 10
92.8139
 20
289.51
 11
93.4369
 21
289.589
  0
LINE
  8
0
 10
-92.5375
 20
290.181
 11
-93.1079
 21
290.253
  0
LINE
  8
0
 10
-93.1079
 20
290.253
 11
-93.6648
 21
290.396
  0
LINE
  8
0
 10
-93.6648
 20
290.396
 11
-94.1994
 21
290.607
  0
LINE
  8
0
 10
-94.1994
 20
290.607
 11
-94.7032
 21
290.884
  0
LINE
  8
0
 10
-94.7032
 20
290.884
 11
-95.1684
 21
291.222
  0
LINE
  8
0
 10
-95.1684
 20
291.222
 11
-95.5875
 21
291.616
  0
LINE
  8
0
 10
-95.5875
 20
291.616
 11
-95.954
 21
292.059
  0
LINE
  8
0
 10
-95.954
 20
292.059
 11
-96.2621
 21
292.544
  0
LINE
  8
0
 10
-96.2621
 20
292.544
 11
-96.5069
 21
293.065
  0
LINE
  8
0
 10
-96.5069
 20
293.065
 11
-96.6846
 21
293.611
  0
LINE
  8
0
 10
-96.6846
 20
293.611
 11
-96.7923
 21
294.176
  0
LINE
  8
0
 10
-96.7923
 20
294.176
 11
-96.8284
 21
294.75
  0
LINE
  8
0
 10
-96.8284
 20
294.75
 11
-96.8284
 21
389.25
  0
LINE
  8
0
 10
-96.8284
 20
389.25
 11
-96.7923
 21
389.824
  0
LINE
  8
0
 10
-96.7923
 20
389.824
 11
-96.6846
 21
390.389
  0
LINE
  8
0
 10
-96.6846
 20
390.389
 11
-96.5069
 21
390.935
  0
LINE
  8
0
 10
-96.5069
 20
390.935
 11
-96.2621
 21
391.456
  0
LINE
  8
0
 10
-96.2621
 20
391.456
 11
-95.954
 21
391.941
  0
LINE
  8
0
 10
-95.954
 20
391.941
 11
-95.5875
 21
392.384
  0
LINE
  8
0
 10
-95.5875
 20
392.384
 11
-95.1684
 21
392.778
  0
LINE
  8
0
 10
-95.1684
 20
392.778
 11
-94.7032
 21
393.116
  0
LINE
  8
0
 10
-94.7032
 20
393.116
 11
-94.1994
 21
393.393
  0
LINE
  8
0
 10
-94.1994
 20
393.393
 11
-93.6648
 21
393.604
  0
LINE
  8
0
 10
-93.6648
 20
393.604
 11
-93.1079
 21
393.747
  0
LINE
  8
0
 10
-93.1079
 20
393.747
 11
-92.5375
 21
393.819
  0
LINE
  8
0
 10
-92.5375
 20
393.819
 11
92.5375
 21
393.819
  0
LINE
  8
0
 10
92.5375
 20
393.819
 11
93.1079
 21
393.747
  0
LINE
  8
0
 10
93.1079
 20
393.747
 11
93.6648
 21
393.604
  0
LINE
  8
0
 10
93.6648
 20
393.604
 11
94.1994
 21
393.393
  0
LINE
  8
0
 10
94.1994
 20
393.393
 11
94.7032
 21
393.116
  0
LINE
  8
0
 10
94.7032
 20
393.116
 11
95.1684
 21
392.778
  0
LINE
  8
0
 10
95.1684
 20
392.778
 11
95.5875
 21
392.384
  0
LINE
  8
0
 10
95.5875
 20
392.384
 11
95.954
 21
391.941
  0
LINE
  8
0
 10
95.954
 20
391.941
 11
96.2621
 21
391.456
  0
LINE
  8
0
 10
96.2621
 20
391.456
 11
96.5069
 21
390.935
  0
LINE
  8
0
 10
96.5069
 20
390.935
 11
96.6846
 21
390.389
  0
LINE
  8
0
 10
96.6846
 20
390.389
 11
96.7923
 21
389.824
  0
LINE
  8
0
 10
96.7923
 20
389.824
 11
96.8284
 21
389.25
  0
LINE
  8
0
 10
96.8284
 20
389.25
 11
96.8284
 21
294.75
  0
LINE
  8
0
 10
96.8284
 20
294.75
 11
96.7923
 21
294.176
  0
LINE
  8
0
 10
96.7923
 20
294.176
 11
96.6846
 21
293.611
  0
LINE
  8
0
 10
96.6846
 20
293.611
 11
96.5069
 21
293.065
  0
LINE
  8
0
 10
96.5069
 20
293.065
 11
96.2621
 21
292.544
  0
LINE
  8
0
 10
96.2621
 20
292.544
 11
95.954
 21
292.059
  0
LINE
  8
0
 10
95.954
 20
292.059
 11
95.5875
 21
291.616
  0
LINE
  8
0
 10
95.5875
 20
291.616
 11
95.1684
 21
291.222
  0
LINE
  8
0
 10
95.1684
 20
291.222
 11
94.7032
 21
290.884
  0
LINE
  8
0
 10
94.7032
 20
290.884
 11
94.1994
 21
290.607
  0
LINE
  8
0
 10
94.1994
 20
290.607
 11
93.6648
 21
290.396
  0
LINE
  8
0
 10
93.6648
 20
290.396
 11
93.1079
 21
290.253
  0
LINE
  8
0
 10
93.1079
 20
290.253
 11
92.5375
 21
290.181
  0
LINE
  8
0
 10
92.5375
 20
290.181
 11
-92.5375
 21
290.181
  0
LINE
  8
0
 10
93.4369
 20
175.589
 11
94.0451
 21
175.745
  0
LINE
  8
0
 10
94.0451
 20
175.745
 11
94.6289
 21
175.976
  0
LINE
  8
0
 10
94.6289
 20
175.976
 11
95.1791
 21
176.278
  0
LINE
  8
0
 10
95.1791
 20
176.278
 11
95.6871
 21
176.647
  0
LINE
  8
0
 10
95.6871
 20
176.647
 11
96.1448
 21
177.077
  0
LINE
  8
0
 10
96.1448
 20
177.077
 11
96.5451
 21
177.561
  0
LINE
  8
0
 10
96.5451
 20
177.561
 11
96.8815
 21
178.091
  0
LINE
  8
0
 10
96.8815
 20
178.091
 11
97.1489
 21
178.659
  0
LINE
  8
0
 10
97.1489
 20
178.659
 11
97.3429
 21
179.257
  0
LINE
  8
0
 10
97.3429
 20
179.257
 11
97.4606
 21
179.873
  0
LINE
  8
0
 10
97.4606
 20
179.873
 11
97.5
 21
180.5
  0
LINE
  8
0
 10
97.5
 20
180.5
 11
97.5
 21
275.5
  0
LINE
  8
0
 10
97.5
 20
275.5
 11
97.4606
 21
276.127
  0
LINE
  8
0
 10
97.4606
 20
276.127
 11
97.3429
 21
276.743
  0
LINE
  8
0
 10
97.3429
 20
276.743
 11
97.1489
 21
277.341
  0
LINE
  8
0
 10
97.1489
 20
277.341
 11
96.8815
 21
277.909
  0
LINE
  8
0
 10
96.8815
 20
277.909
 11
96.5451
 21
278.439
  0
LINE
  8
0
 10
96.5451
 20
278.439
 11
96.1448
 21
278.923
  0
LINE
  8
0
 10
96.1448
 20
278.923
 11
95.6871
 21
279.353
  0
LINE
  8
0
 10
95.6871
 20
279.353
 11
95.1791
 21
279.722
  0
LINE
  8
0
 10
95.1791
 20
279.722
 11
94.6289
 21
280.024
  0
LINE
  8
0
 10
94.6289
 20
280.024
 11
94.0451
 21
280.255
  0
LINE
  8
0
 10
94.0451
 20
280.255
 11
93.4369
 21
280.411
  0
LINE
  8
0
 10
93.4369
 20
280.411
 11
92.8139
 21
280.49
  0
LINE
  8
0
 10
92.8139
 20
280.49
 11
-92.8139
 21
280.49
  0
LINE
  8
0
 10
-92.8139
 20
280.49
 11
-93.4369
 21
280.411
  0
LINE
  8
0
 10
-93.4369
 20
280.411
 11
-94.0451
 21
280.255
  0
LINE
  8
0
 10
-94.0451
 20
280.255
 11
-94.6289
 21
280.024
  0
LINE
  8
0
 10
-94.6289
 20
280.024
 11
-95.1791
 21
279.722
  0
LINE
  8
0
 10
-95.1791
 20
279.722
 11
-95.6871
 21
279.353
  0
LINE
  8
0
 10
-95.6871
 20
279.353
 11
-96.1448
 21
278.923
  0
LINE
  8
0
 10
-96.1448
 20
278.923
 11
-96.5451
 21
278.439
  0
LINE
  8
0
 10
-96.5451
 20
278.439
 11
-96.8815
 21
277.909
  0
LINE
  8
0
 10
-96.8815
 20
277.909
 11
-97.1489
 21
277.341
  0
LINE
  8
0
 10
-97.1489
 20
277.341
 11
-97.3429
 21
276.743
  0
LINE
  8
0
 10
-97.3429
 20
276.743
 11
-97.4606
 21
276.127
  0
LINE
  8
0
 10
-97.4606
 20
276.127
 11
-97.5
 21
275.5
  0
LINE
  8
0
 10
-97.5
 20
275.5
 11
-97.5
 21
180.5
  0
LINE
  8
0
 10
-97.5
 20
180.5
 11
-97.4606
 21
179.873
  0
LINE
  8
0
 10
-97.4606
 20
179.873
 11
-97.3429
 21
179.257
  0
LINE
  8
0
 10
-97.3429
 20
179.257
 11
-97.1489
 21
178.659
  0
LINE
  8
0
 10
-97.1489
 20
178.659
 11
-96.8815
 21
178.091
  0
LINE
  8
0
 10
-96.8815
 20
178.091
 11
-96.5451
 21
177.561
  0
LINE
  8
0
 10
-96.5451
 20
177.561
 11
-96.1448
 21
177.077
  0
LINE
  8
0
 10
-96.1448
 20
177.077
 11
-95.6871
 21
176.647
  0
LINE
  8
0
 10
-95.6871
 20
176.647
 11
-95.1791
 21
176.278
  0
LINE
  8
0
 10
-95.1791
 20
176.278
 11
-94.6289
 21
175.976
  0
LINE
  8
0
 10
-94.6289
 20
175.976
 11
-94.0451
 21
175.745
  0
LINE
  8
0
 10
-94.0451
 20
175.745
 11
-93.4369
 21
175.589
  0
LINE
  8
0
 10
-93.4369
 20
175.589
 11
-92.8139
 21
175.51
  0
LINE
  8
0
 10
-92.8139
 20
175.51
 11
92.8139
 21
175.51
  0
LINE
  8
0
 10
92.8139
 20
175.51
 11
93.4369
 21
175.589
  0
LINE
  8
0
 10
-92.3825
 20
178.645
 11
-92.6453
 21
178.678
  0
LINE
  8
0
 10
-92.6453
 20
178.678
 11
-92.9019
 21
178.744
  0
LINE
  8
0
 10
-92.9019
 20
178.744
 11
-93.1482
 21
178.841
  0
LINE
  8
0
 10
-93.1482
 20
178.841
 11
-93.3804
 21
178.969
  0
LINE
  8
0
 10
-93.3804
 20
178.969
 11
-93.5947
 21
179.125
  0
LINE
  8
0
 10
-93.5947
 20
179.125
 11
-93.7879
 21
179.306
  0
LINE
  8
0
 10
-93.7879
 20
179.306
 11
-93.9567
 21
179.51
  0
LINE
  8
0
 10
-93.9567
 20
179.51
 11
-94.0987
 21
179.734
  0
LINE
  8
0
 10
-94.0987
 20
179.734
 11
-94.2115
 21
179.973
  0
LINE
  8
0
 10
-94.2115
 20
179.973
 11
-94.2934
 21
180.225
  0
LINE
  8
0
 10
-94.2934
 20
180.225
 11
-94.343
 21
180.486
  0
LINE
  8
0
 10
-94.343
 20
180.486
 11
-94.3596
 21
180.75
  0
LINE
  8
0
 10
-94.3596
 20
180.75
 11
-94.3596
 21
275.25
  0
LINE
  8
0
 10
-94.3596
 20
275.25
 11
-94.343
 21
275.514
  0
LINE
  8
0
 10
-94.343
 20
275.514
 11
-94.2934
 21
275.775
  0
LINE
  8
0
 10
-94.2934
 20
275.775
 11
-94.2115
 21
276.027
  0
LINE
  8
0
 10
-94.2115
 20
276.027
 11
-94.0987
 21
276.266
  0
LINE
  8
0
 10
-94.0987
 20
276.266
 11
-93.9567
 21
276.49
  0
LINE
  8
0
 10
-93.9567
 20
276.49
 11
-93.7879
 21
276.694
  0
LINE
  8
0
 10
-93.7879
 20
276.694
 11
-93.5947
 21
276.875
  0
LINE
  8
0
 10
-93.5947
 20
276.875
 11
-93.3804
 21
277.031
  0
LINE
  8
0
 10
-93.3804
 20
277.031
 11
-93.1482
 21
277.159
  0
LINE
  8
0
 10
-93.1482
 20
277.159
 11
-92.9019
 21
277.256
  0
LINE
  8
0
 10
-92.9019
 20
277.256
 11
-92.6453
 21
277.322
  0
LINE
  8
0
 10
-92.6453
 20
277.322
 11
-92.3825
 21
277.355
  0
LINE
  8
0
 10
-92.3825
 20
277.355
 11
92.3825
 21
277.355
  0
LINE
  8
0
 10
92.3825
 20
277.355
 11
92.6453
 21
277.322
  0
LINE
  8
0
 10
92.6453
 20
277.322
 11
92.9019
 21
277.256
  0
LINE
  8
0
 10
92.9019
 20
277.256
 11
93.1482
 21
277.159
  0
LINE
  8
0
 10
93.1482
 20
277.159
 11
93.3804
 21
277.031
  0
LINE
  8
0
 10
93.3804
 20
277.031
 11
93.5947
 21
276.875
  0
LINE
  8
0
 10
93.5947
 20
276.875
 11
93.7879
 21
276.694
  0
LINE
  8
0
 10
93.7879
 20
276.694
 11
93.9567
 21
276.49
  0
LINE
  8
0
 10
93.9567
 20
276.49
 11
94.0987
 21
276.266
  0
LINE
  8
0
 10
94.0987
 20
276.266
 11
94.2115
 21
276.027
  0
LINE
  8
0
 10
94.2115
 20
276.027
 11
94.2934
 21
275.775
  0
LINE
  8
0
 10
94.2934
 20
275.775
 11
94.343
 21
275.514
  0
LINE
  8
0
 10
94.343
 20
275.514
 11
94.3596
 21
275.25
  0
LINE
  8
0
 10
94.3596
 20
275.25
 11
94.3596
 21
180.75
  0
LINE
  8
0
 10
94.3596
 20
180.75
 11
94.343
 21
180.486
  0
LINE
  8
0
 10
94.343
 20
180.486
 11
94.2934
 21
180.225
  0
LINE
  8
0
 10
94.2934
 20
180.225
 11
94.2115
 21
179.973
  0
LINE
  8
0
 10
94.2115
 20
179.973
 11
94.0987
 21
179.734
  0
LINE
  8
0
 10
94.0987
 20
179.734
 11
93.9567
 21
179.51
  0
LINE
  8
0
 10
93.9567
 20
179.51
 11
93.7879
 21
179.306
  0
LINE
  8
0
 10
93.7879
 20
179.306
 11
93.5947
 21
179.125
  0
LINE
  8
0
 10
93.5947
 20
179.125
 11
93.3804
 21
178.969
  0
LINE
  8
0
 10
93.3804
 20
178.969
 11
93.1482
 21
178.841
  0
LINE
  8
0
 10
93.1482
 20
178.841
 11
92.9019
 21
178.744
  0
LINE
  8
0
 10
92.9019
 20
178.744
 11
92.6453
 21
178.678
  0
LINE
  8
0
 10
92.6453
 20
178.678
 11
92.3825
 21
178.645
  0
LINE
  8
0
 10
92.3825
 20
178.645
 11
-92.3825
 21
178.645
  0
ENDSEC
  0
SECTION
  2
OBJECTS
  0
DICTIONARY
  0
ENDSEC
  0
EOF
