<?xml version="1.0" standalone="no"?>
<!DOCTYPE svg PUBLIC "-//W3C//DTD SVG 1.1//EN" "http://www.w3.org/Graphics/SVG/1.1/DTD/svg11.dtd">
<svg width="106mm" height="88mm" viewBox="-53 -176 106 88" xmlns="http://www.w3.org/2000/svg" version="1.1">
<title>OpenSCAD Model</title>
<path d="
M 48.4369,-160.589 L 49.0451,-160.745 L 49.6289,-160.976 L 50.1791,-161.278 L 50.6871,-161.647 L 51.1448,-162.077
 L 51.5451,-162.561 L 51.8815,-163.091 L 52.1489,-163.659 L 52.3429,-164.257 L 52.4606,-164.873 L 52.5,-165.5
 L 52.5,-170.5 L 52.4606,-171.127 L 52.3429,-171.743 L 52.1489,-172.341 L 51.8815,-172.909 L 51.5451,-173.439
 L 51.1448,-173.923 L 50.6871,-174.353 L 50.1791,-174.722 L 49.6289,-175.024 L 49.0451,-175.255 L 48.4369,-175.411
 L 47.8139,-175.49 L -47.8139,-175.49 L -48.4369,-175.411 L -49.0451,-175.255 L -49.6289,-175.024 L -50.1791,-174.722
 L -50.6871,-174.353 L -50.9,-174.153 L -52.5,-174.153 L -52.5,-161.847 L -50.9,-161.847 L -50.6871,-161.647
 L -50.1791,-161.278 L -49.6289,-160.976 L -49.0451,-160.745 L -48.4369,-160.589 L -47.8139,-160.51 L 47.8139,-160.51
 z
M -47.2512,-162.008 L -47.7495,-162.071 L -48.2361,-162.196 L -48.7031,-162.381 L -49.1433,-162.623 L -49.5497,-162.918
 L -49.9159,-163.262 L -50.2361,-163.649 L -50.5052,-164.073 L -50.7191,-164.528 L -50.8743,-165.005 L -50.9685,-165.499
 L -51,-166 L -51,-170 L -50.9685,-170.501 L -50.8743,-170.995 L -50.7191,-171.472 L -50.5052,-171.927
 L -50.2361,-172.351 L -49.9159,-172.738 L -49.5497,-173.082 L -49.1433,-173.377 L -48.7031,-173.619 L -48.2361,-173.804
 L -47.7495,-173.929 L -47.2512,-173.992 L 47.2512,-173.992 L 47.7495,-173.929 L 48.2361,-173.804 L 48.7031,-173.619
 L 49.1433,-173.377 L 49.5497,-173.082 L 49.9159,-172.738 L 50.2361,-172.351 L 50.5052,-171.927 L 50.7191,-171.472
 L 50.8743,-170.995 L 50.9685,-170.501 L 51,-170 L 51,-166 L 50.9685,-165.499 L 50.8743,-165.005
 L 50.7191,-164.528 L 50.5052,-164.073 L 50.2361,-163.649 L 49.9159,-163.262 L 49.5497,-162.918 L 49.1433,-162.623
 L 48.7031,-162.381 L 48.2361,-162.196 L 47.7495,-162.071 L 47.2512,-162.008 z
M 48.4369,-136.589 L 49.0451,-136.745 L 49.6289,-136.976 L 50.1791,-137.278 L 50.6871,-137.647 L 51.1448,-138.077
 L 51.5451,-138.561 L 51.8815,-139.091 L 52.1489,-139.659 L 52.3429,-140.257 L 52.4606,-140.873 L 52.5,-141.5
 L 52.5,-146.5 L 52.4606,-147.127 L 52.3429,-147.743 L 52.1489,-148.341 L 51.8815,-148.909 L 51.5451,-149.439
 L 51.1448,-149.923 L 50.6871,-150.353 L 50.1791,-150.722 L 49.6289,-151.024 L 49.0451,-151.255 L 48.4369,-151.411
 L 47.8139,-151.49 L -47.8139,-151.49 L -48.4369,-151.411 L -49.0451,-151.255 L -49.6289,-151.024 L -50.1791,-150.722
 L -50.6871,-150.353 L -51.1448,-149.923 L -51.5451,-149.439 L -51.8815,-148.909 L -52.1489,-148.341 L -52.3429,-147.743
 L -52.4606,-147.127 L -52.5,-146.5 L -52.5,-141.5 L -52.4606,-140.873 L -52.3429,-140.257 L -52.1489,-139.659
 L -51.8815,-139.091 L -51.5451,-138.561 L -51.1448,-138.077 L -50.6871,-137.647 L -50.1791,-137.278 L -49.6289,-136.976
 L -49.0451,-136.745 L -48.4369,-136.589 L -47.8139,-136.51 L 47.8139,-136.51 z
M -47.2512,-138.008 L -47.7495,-138.071 L -48.2361,-138.196 L -48.7031,-138.381 L -49.1433,-138.623 L -49.5497,-138.918
 L -49.9159,-139.262 L -50.2361,-139.649 L -50.5052,-140.073 L -50.7191,-140.528 L -50.8743,-141.005 L -50.9685,-141.499
 L -51,-142 L -51,-146 L -50.9685,-146.501 L -50.8743,-146.995 L -50.7191,-147.472 L -50.5052,-147.927
 L -50.2361,-148.351 L -49.9159,-148.738 L -49.5497,-149.082 L -49.1433,-149.377 L -48.7031,-149.619 L -48.2361,-149.804
 L -47.7495,-149.929 L -47.2512,-149.992 L 47.2512,-149.992 L 47.7495,-149.929 L 48.2361,-149.804 L 48.7031,-149.619
 L 49.1433,-149.377 L 49.5497,-149.082 L 49.9159,-148.738 L 50.2361,-148.351 L 50.5052,-147.927 L 50.7191,-147.472
 L 50.8743,-146.995 L 50.9685,-146.501 L 51,-146 L 51,-142 L 50.9685,-141.499 L 50.8743,-141.005
 L 50.7191,-140.528 L 50.5052,-140.073 L 50.2361,-139.649 L 49.9159,-139.262 L 49.5497,-138.918 L 49.1433,-138.623
 L 48.7031,-138.381 L 48.2361,-138.196 L 47.7495,-138.071 L 47.2512,-138.008 z
M 48.4369,-112.589 L 49.0451,-112.745 L 49.6289,-112.976 L 50.1791,-113.278 L 50.6871,-113.647 L 51.1448,-114.077
 L 51.5451,-114.561 L 51.8815,-115.091 L 52.1489,-115.659 L 52.3429,-116.257 L 52.4606,-116.873 L 52.5,-117.5
 L 52.5,-122.5 L 52.4606,-123.127 L 52.3429,-123.743 L 52.1489,-124.341 L 51.8815,-124.909 L 51.5451,-125.439
 L 51.1448,-125.923 L 50.6871,-126.353 L 50.1791,-126.722 L 49.6289,-127.024 L 49.0451,-127.255 L 48.4369,-127.411
 L 47.8139,-127.49 L -47.8139,-127.49 L -48.4369,-127.411 L -49.0451,-127.255 L -49.6289,-127.024 L -50.1791,-126.722
 L -50.6871,-126.353 L -51.1448,-125.923 L -51.5451,-125.439 L -51.8815,-124.909 L -52.1489,-124.341 L -52.3429,-123.743
 L -52.4606,-123.127 L -52.5,-122.5 L -52.5,-117.5 L -52.4606,-116.873 L -52.3429,-116.257 L -52.1489,-115.659
 L -51.8815,-115.091 L -51.5451,-114.561 L -51.1448,-114.077 L -50.6871,-113.647 L -50.1791,-113.278 L -49.6289,-112.976
 L -49.0451,-112.745 L -48.4369,-112.589 L -47.8139,-112.51 L 47.8139,-112.51 z
M -47.1954,-114.893 L -47.5833,-114.942 L -47.9619,-115.039 L -48.3254,-115.183 L -48.668,-115.372 L -48.9842,-115.601
 L -49.2692,-115.869 L -49.5184,-116.17 L -49.7279,-116.5 L -49.8943,-116.854 L -50.0151,-117.226 L -50.0884,-117.61
 L -50.1129,-118 L -50.1129,-122 L -50.0884,-122.39 L -50.0151,-122.774 L -49.8943,-123.146 L -49.7279,-123.5
 L -49.5184,-123.83 L -49.2692,-124.131 L -48.9842,-124.399 L -48.668,-124.628 L -48.3254,-124.817 L -47.9619,-124.961
 L -47.5833,-125.058 L -47.1954,-125.107 L 47.1954,-125.107 L 47.5833,-125.058 L 47.9619,-124.961 L 48.3254,-124.817
 L 48.668,-124.628 L 48.9842,-124.399 L 49.2692,-124.131 L 49.5184,-123.83 L 49.7279,-123.5 L 49.8943,-123.146
 L 50.0151,-122.774 L 50.0884,-122.39 L 50.1129,-122 L 50.1129,-118 L 50.0884,-117.61 L 50.0151,-117.226
 L 49.8943,-116.854 L 49.7279,-116.5 L 49.5184,-116.17 L 49.2692,-115.869 L 48.9842,-115.601 L 48.668,-115.372
 L 48.3254,-115.183 L 47.9619,-115.039 L 47.5833,-114.942 L 47.1954,-114.893 z
M 48.4369,-88.5886 L 49.0451,-88.7447 L 49.6289,-88.9759 L 50.1791,-89.2784 L 50.6871,-89.6474 L 51.1448,-90.0773
 L 51.5451,-90.5611 L 51.8815,-91.0912 L 52.1489,-91.6594 L 52.3429,-92.2566 L 52.4606,-92.8733 L 52.5,-93.5
 L 52.5,-98.5 L 52.4606,-99.1267 L 52.3429,-99.7434 L 52.1489,-100.341 L 51.8815,-100.909 L 51.5451,-101.439
 L 51.1448,-101.923 L 50.6871,-102.353 L 50.1791,-102.722 L 49.6289,-103.024 L 49.0451,-103.255 L 48.4369,-103.411
 L 47.8139,-103.49 L -47.8139,-103.49 L -48.4369,-103.411 L -49.0451,-103.255 L -49.6289,-103.024 L -50.1791,-102.722
 L -50.6871,-102.353 L -51.1448,-101.923 L -51.5451,-101.439 L -51.8815,-100.909 L -52.1489,-100.341 L -52.3429,-99.7434
 L -52.4606,-99.1267 L -52.5,-98.5 L -52.5,-93.5 L -52.4606,-92.8733 L -52.3429,-92.2566 L -52.1489,-91.6594
 L -51.8815,-91.0912 L -51.5451,-90.5611 L -51.1448,-90.0773 L -50.6871,-89.6474 L -50.1791,-89.2784 L -49.6289,-88.9759
 L -49.0451,-88.7447 L -48.4369,-88.5886 L -47.8139,-88.5099 L 47.8139,-88.5099 z
M 44.8659,-93.8689 L 44.5999,-93.9025 L 44.3401,-93.9692 L 44.0908,-94.0679 L 43.8559,-94.1971 L 43.6389,-94.3547
 L 43.4434,-94.5383 L 43.2725,-94.7449 L 43.1288,-94.9713 L 43.0146,-95.214 L 42.9318,-95.469 L 42.8815,-95.7324
 L 42.8647,-96 L 42.8815,-96.2676 L 42.9318,-96.531 L 43.0146,-96.786 L 43.1288,-97.0287 L 43.2725,-97.2551
 L 43.4434,-97.4617 L 43.6389,-97.6453 L 43.8559,-97.8029 L 44.0908,-97.9321 L 44.3401,-98.0308 L 44.5999,-98.0975
 L 44.8659,-98.1311 L 45.1341,-98.1311 L 45.4001,-98.0975 L 45.6598,-98.0308 L 45.9092,-97.9321 L 46.1441,-97.8029
 L 46.3611,-97.6453 L 46.5565,-97.4617 L 46.7275,-97.2551 L 46.8712,-97.0287 L 46.9853,-96.786 L 47.0682,-96.531
 L 47.1185,-96.2676 L 47.1353,-96 L 47.1185,-95.7324 L 47.0682,-95.469 L 46.9853,-95.214 L 46.8712,-94.9713
 L 46.7275,-94.7449 L 46.5565,-94.5383 L 46.3611,-94.3547 L 46.1441,-94.1971 L 45.9092,-94.0679 L 45.6598,-93.9692
 L 45.4001,-93.9025 L 45.1341,-93.8689 z
M -45.1341,-93.8689 L -45.4001,-93.9025 L -45.6598,-93.9692 L -45.9092,-94.0679 L -46.1441,-94.1971 L -46.3611,-94.3547
 L -46.5565,-94.5383 L -46.7275,-94.7449 L -46.8712,-94.9713 L -46.9853,-95.214 L -47.0682,-95.469 L -47.1185,-95.7324
 L -47.1353,-96 L -47.1185,-96.2676 L -47.0682,-96.531 L -46.9853,-96.786 L -46.8712,-97.0287 L -46.7275,-97.2551
 L -46.5565,-97.4617 L -46.3611,-97.6453 L -46.1441,-97.8029 L -45.9092,-97.9321 L -45.6598,-98.0308 L -45.4001,-98.0975
 L -45.1341,-98.1311 L -44.8659,-98.1311 L -44.5999,-98.0975 L -44.3401,-98.0308 L -44.0908,-97.9321 L -43.8559,-97.8029
 L -43.6389,-97.6453 L -43.4434,-97.4617 L -43.2725,-97.2551 L -43.1288,-97.0287 L -43.0146,-96.786 L -42.9318,-96.531
 L -42.8815,-96.2676 L -42.8647,-96 L -42.8815,-95.7324 L -42.9318,-95.469 L -43.0146,-95.214 L -43.1288,-94.9713
 L -43.2725,-94.7449 L -43.4434,-94.5383 L -43.6389,-94.3547 L -43.8559,-94.1971 L -44.0908,-94.0679 L -44.3401,-93.9692
 L -44.5999,-93.9025 L -44.8659,-93.8689 z
" stroke="black" fill="lightgray" stroke-width="0.5"/>
</svg>
