  0
SECTION
  2
BLOCKS
  0
ENDSEC
  0
SECTION
  2
ENTITIES
  0
LINE
  8
0
 10
1.78012
 20
-9.33173
 11
2.93565
 21
-9.03503
  0
LINE
  8
0
 10
2.93565
 20
-9.03503
 11
4.04489
 21
-8.59586
  0
LINE
  8
0
 10
4.04489
 20
-8.59586
 11
5.09035
 21
-8.0211
  0
LINE
  8
0
 10
5.09035
 20
-8.0211
 11
6.05553
 21
-7.31987
  0
LINE
  8
0
 10
6.05553
 20
-7.31987
 11
6.9252
 21
-6.50319
  0
LINE
  8
0
 10
6.9252
 20
-6.50319
 11
7.68565
 21
-5.58395
  0
LINE
  8
0
 10
7.68565
 20
-5.58395
 11
8.32491
 21
-4.57664
  0
LINE
  8
0
 10
8.32491
 20
-4.57664
 11
8.83287
 21
-3.49718
  0
LINE
  8
0
 10
8.83287
 20
-3.49718
 11
9.20154
 21
-2.36255
  0
LINE
  8
0
 10
9.20154
 20
-2.36255
 11
9.42508
 21
-1.19066
  0
LINE
  8
0
 10
9.42508
 20
-1.19066
 11
9.5
 21
0
  0
LINE
  8
0
 10
9.5
 20
0
 11
9.42508
 21
1.19066
  0
LINE
  8
0
 10
9.42508
 20
1.19066
 11
9.20154
 21
2.36255
  0
LINE
  8
0
 10
9.20154
 20
2.36255
 11
8.83287
 21
3.49718
  0
LINE
  8
0
 10
8.83287
 20
3.49718
 11
8.32491
 21
4.57664
  0
LINE
  8
0
 10
8.32491
 20
4.57664
 11
7.68565
 21
5.58395
  0
LINE
  8
0
 10
7.68565
 20
5.58395
 11
6.9252
 21
6.50319
  0
LINE
  8
0
 10
6.9252
 20
6.50319
 11
6.05553
 21
7.31987
  0
LINE
  8
0
 10
6.05553
 20
7.31987
 11
5.09035
 21
8.0211
  0
LINE
  8
0
 10
5.09035
 20
8.0211
 11
4.04489
 21
8.59586
  0
LINE
  8
0
 10
4.04489
 20
8.59586
 11
2.93565
 21
9.03503
  0
LINE
  8
0
 10
2.93565
 20
9.03503
 11
1.78012
 21
9.33173
  0
LINE
  8
0
 10
1.78012
 20
9.33173
 11
0.596497
 21
9.48125
  0
LINE
  8
0
 10
0.596497
 20
9.48125
 11
-0.596497
 21
9.48125
  0
LINE
  8
0
 10
-0.596497
 20
9.48125
 11
-1.78012
 21
9.33173
  0
LINE
  8
0
 10
-1.78012
 20
9.33173
 11
-2.93565
 21
9.03503
  0
LINE
  8
0
 10
-2.93565
 20
9.03503
 11
-4.04489
 21
8.59586
  0
LINE
  8
0
 10
-4.04489
 20
8.59586
 11
-5.09035
 21
8.0211
  0
LINE
  8
0
 10
-5.09035
 20
8.0211
 11
-6.05553
 21
7.31987
  0
LINE
  8
0
 10
-6.05553
 20
7.31987
 11
-6.9252
 21
6.50319
  0
LINE
  8
0
 10
-6.9252
 20
6.50319
 11
-7.68565
 21
5.58395
  0
LINE
  8
0
 10
-7.68565
 20
5.58395
 11
-8.32491
 21
4.57664
  0
LINE
  8
0
 10
-8.32491
 20
4.57664
 11
-8.83287
 21
3.49718
  0
LINE
  8
0
 10
-8.83287
 20
3.49718
 11
-9.20154
 21
2.36255
  0
LINE
  8
0
 10
-9.20154
 20
2.36255
 11
-9.42508
 21
1.19066
  0
LINE
  8
0
 10
-9.42508
 20
1.19066
 11
-9.5
 21
0
  0
LINE
  8
0
 10
-9.5
 20
0
 11
-9.42508
 21
-1.19066
  0
LINE
  8
0
 10
-9.42508
 20
-1.19066
 11
-9.20154
 21
-2.36255
  0
LINE
  8
0
 10
-9.20154
 20
-2.36255
 11
-8.83287
 21
-3.49718
  0
LINE
  8
0
 10
-8.83287
 20
-3.49718
 11
-8.32491
 21
-4.57664
  0
LINE
  8
0
 10
-8.32491
 20
-4.57664
 11
-7.68565
 21
-5.58395
  0
LINE
  8
0
 10
-7.68565
 20
-5.58395
 11
-6.9252
 21
-6.50319
  0
LINE
  8
0
 10
-6.9252
 20
-6.50319
 11
-6.05553
 21
-7.31987
  0
LINE
  8
0
 10
-6.05553
 20
-7.31987
 11
-5.09035
 21
-8.0211
  0
LINE
  8
0
 10
-5.09035
 20
-8.0211
 11
-4.04489
 21
-8.59586
  0
LINE
  8
0
 10
-4.04489
 20
-8.59586
 11
-2.93565
 21
-9.03503
  0
LINE
  8
0
 10
-2.93565
 20
-9.03503
 11
-1.78012
 21
-9.33173
  0
LINE
  8
0
 10
-1.78012
 20
-9.33173
 11
-0.596497
 21
-9.48125
  0
LINE
  8
0
 10
-0.596497
 20
-9.48125
 11
0.596497
 21
-9.48125
  0
LINE
  8
0
 10
0.596497
 20
-9.48125
 11
1.78012
 21
-9.33173
  0
LINE
  8
0
 10
-0.31395
 20
-4.99013
 11
-0.936905
 21
-4.91142
  0
LINE
  8
0
 10
-0.936905
 20
-4.91142
 11
-1.54507
 21
-4.75528
  0
LINE
  8
0
 10
-1.54507
 20
-4.75528
 11
-2.12889
 21
-4.52412
  0
LINE
  8
0
 10
-2.12889
 20
-4.52412
 11
-2.67912
 21
-4.22163
  0
LINE
  8
0
 10
-2.67912
 20
-4.22163
 11
-3.18712
 21
-3.85255
  0
LINE
  8
0
 10
-3.18712
 20
-3.85255
 11
-3.64484
 21
-3.42273
  0
LINE
  8
0
 10
-3.64484
 20
-3.42273
 11
-4.04507
 21
-2.93892
  0
LINE
  8
0
 10
-4.04507
 20
-2.93892
 11
-4.38153
 21
-2.40877
  0
LINE
  8
0
 10
-4.38153
 20
-2.40877
 11
-4.64888
 21
-1.84062
  0
LINE
  8
0
 10
-4.64888
 20
-1.84062
 11
-4.84291
 21
-1.24344
  0
LINE
  8
0
 10
-4.84291
 20
-1.24344
 11
-4.96057
 21
-0.626663
  0
LINE
  8
0
 10
-4.96057
 20
-0.626663
 11
-5
 21
0
  0
LINE
  8
0
 10
-5
 20
0
 11
-4.96057
 21
0.626663
  0
LINE
  8
0
 10
-4.96057
 20
0.626663
 11
-4.84291
 21
1.24344
  0
LINE
  8
0
 10
-4.84291
 20
1.24344
 11
-4.64888
 21
1.84062
  0
LINE
  8
0
 10
-4.64888
 20
1.84062
 11
-4.38153
 21
2.40877
  0
LINE
  8
0
 10
-4.38153
 20
2.40877
 11
-4.04507
 21
2.93892
  0
LINE
  8
0
 10
-4.04507
 20
2.93892
 11
-3.64484
 21
3.42273
  0
LINE
  8
0
 10
-3.64484
 20
3.42273
 11
-3.18712
 21
3.85255
  0
LINE
  8
0
 10
-3.18712
 20
3.85255
 11
-2.67912
 21
4.22163
  0
LINE
  8
0
 10
-2.67912
 20
4.22163
 11
-2.12889
 21
4.52412
  0
LINE
  8
0
 10
-2.12889
 20
4.52412
 11
-1.54507
 21
4.75528
  0
LINE
  8
0
 10
-1.54507
 20
4.75528
 11
-0.936905
 21
4.91142
  0
LINE
  8
0
 10
-0.936905
 20
4.91142
 11
-0.31395
 21
4.99013
  0
LINE
  8
0
 10
-0.31395
 20
4.99013
 11
0.31395
 21
4.99013
  0
LINE
  8
0
 10
0.31395
 20
4.99013
 11
0.936905
 21
4.91142
  0
LINE
  8
0
 10
0.936905
 20
4.91142
 11
1.54507
 21
4.75528
  0
LINE
  8
0
 10
1.54507
 20
4.75528
 11
2.12889
 21
4.52412
  0
LINE
  8
0
 10
2.12889
 20
4.52412
 11
2.67912
 21
4.22163
  0
LINE
  8
0
 10
2.67912
 20
4.22163
 11
3.18712
 21
3.85255
  0
LINE
  8
0
 10
3.18712
 20
3.85255
 11
3.64484
 21
3.42273
  0
LINE
  8
0
 10
3.64484
 20
3.42273
 11
4.04507
 21
2.93892
  0
LINE
  8
0
 10
4.04507
 20
2.93892
 11
4.38153
 21
2.40877
  0
LINE
  8
0
 10
4.38153
 20
2.40877
 11
4.64888
 21
1.84062
  0
LINE
  8
0
 10
4.64888
 20
1.84062
 11
4.84291
 21
1.24344
  0
LINE
  8
0
 10
4.84291
 20
1.24344
 11
4.96057
 21
0.626663
  0
LINE
  8
0
 10
4.96057
 20
0.626663
 11
5
 21
0
  0
LINE
  8
0
 10
5
 20
0
 11
4.96057
 21
-0.626663
  0
LINE
  8
0
 10
4.96057
 20
-0.626663
 11
4.84291
 21
-1.24344
  0
LINE
  8
0
 10
4.84291
 20
-1.24344
 11
4.64888
 21
-1.84062
  0
LINE
  8
0
 10
4.64888
 20
-1.84062
 11
4.38153
 21
-2.40877
  0
LINE
  8
0
 10
4.38153
 20
-2.40877
 11
4.04507
 21
-2.93892
  0
LINE
  8
0
 10
4.04507
 20
-2.93892
 11
3.64484
 21
-3.42273
  0
LINE
  8
0
 10
3.64484
 20
-3.42273
 11
3.18712
 21
-3.85255
  0
LINE
  8
0
 10
3.18712
 20
-3.85255
 11
2.67912
 21
-4.22163
  0
LINE
  8
0
 10
2.67912
 20
-4.22163
 11
2.12889
 21
-4.52412
  0
LINE
  8
0
 10
2.12889
 20
-4.52412
 11
1.54507
 21
-4.75528
  0
LINE
  8
0
 10
1.54507
 20
-4.75528
 11
0.936905
 21
-4.91142
  0
LINE
  8
0
 10
0.936905
 20
-4.91142
 11
0.31395
 21
-4.99013
  0
LINE
  8
0
 10
0.31395
 20
-4.99013
 11
-0.31395
 21
-4.99013
  0
ENDSEC
  0
SECTION
  2
OBJECTS
  0
DICTIONARY
  0
ENDSEC
  0
EOF
