solid OpenSCAD_Model
  facet normal 0.844329 0.535826 6.18885e-18
    outer loop
      vertex 8.32491 4.57666 5
      vertex 7.68566 5.58396 0
      vertex 7.68566 5.58396 5
    endloop
  endfacet
  facet normal 0.844329 0.535826 6.18885e-18
    outer loop
      vertex 7.68566 5.58396 0
      vertex 8.32491 4.57666 5
      vertex 8.32491 4.57666 0
    endloop
  endfacet
  facet normal 0.368125 0.929776 -0
    outer loop
      vertex 4.0449 8.59586 0
      vertex 2.93566 9.03504 5
      vertex 4.0449 8.59586 5
    endloop
  endfacet
  facet normal 0.368125 0.929776 0
    outer loop
      vertex 2.93566 9.03504 5
      vertex 4.0449 8.59586 0
      vertex 2.93566 9.03504 0
    endloop
  endfacet
  facet normal -0.368125 0.929776 0
    outer loop
      vertex -2.93566 9.03504 0
      vertex -4.0449 8.59586 5
      vertex -2.93566 9.03504 5
    endloop
  endfacet
  facet normal -0.368125 0.929776 0
    outer loop
      vertex -4.0449 8.59586 5
      vertex -2.93566 9.03504 0
      vertex -4.0449 8.59586 0
    endloop
  endfacet
  facet normal -0.904825 0.425783 5.47088e-18
    outer loop
      vertex -8.83288 3.49718 0
      vertex -8.32491 4.57666 5
      vertex -8.32491 4.57666 0
    endloop
  endfacet
  facet normal -0.904825 0.425783 5.47088e-18
    outer loop
      vertex -8.32491 4.57666 5
      vertex -8.83288 3.49718 0
      vertex -8.83288 3.49718 5
    endloop
  endfacet
  facet normal 0.982287 -0.187383 -4.64848e-18
    outer loop
      vertex 9.20154 -2.36255 5
      vertex 9.42509 -1.19067 0
      vertex 9.42509 -1.19067 5
    endloop
  endfacet
  facet normal 0.982287 -0.187383 -4.64848e-18
    outer loop
      vertex 9.42509 -1.19067 0
      vertex 9.20154 -2.36255 5
      vertex 9.20154 -2.36255 0
    endloop
  endfacet
  facet normal 0 1 -0
    outer loop
      vertex 0.59651 9.48125 0
      vertex -0.59651 9.48125 5
      vertex 0.59651 9.48125 5
    endloop
  endfacet
  facet normal 0 1 0
    outer loop
      vertex -0.59651 9.48125 5
      vertex 0.59651 9.48125 0
      vertex -0.59651 9.48125 0
    endloop
  endfacet
  facet normal 0.481759 0.876303 -0
    outer loop
      vertex 5.09035 8.02111 0
      vertex 4.0449 8.59586 5
      vertex 5.09035 8.02111 5
    endloop
  endfacet
  facet normal 0.481759 0.876303 0
    outer loop
      vertex 4.0449 8.59586 5
      vertex 5.09035 8.02111 0
      vertex 4.0449 8.59586 0
    endloop
  endfacet
  facet normal -0.982287 0.187383 -4.64848e-18
    outer loop
      vertex -9.42509 1.19067 0
      vertex -9.20154 2.36255 5
      vertex -9.20154 2.36255 0
    endloop
  endfacet
  facet normal -0.982287 0.187383 -4.64848e-18
    outer loop
      vertex -9.20154 2.36255 5
      vertex -9.42509 1.19067 0
      vertex -9.42509 1.19067 5
    endloop
  endfacet
  facet normal -0.770514 0.637423 -1.72669e-18
    outer loop
      vertex -7.68566 5.58396 0
      vertex -6.9252 6.5032 5
      vertex -6.9252 6.5032 0
    endloop
  endfacet
  facet normal -0.770514 0.637423 -1.72669e-18
    outer loop
      vertex -6.9252 6.5032 5
      vertex -7.68566 5.58396 0
      vertex -7.68566 5.58396 5
    endloop
  endfacet
  facet normal -0.248688 0.968584 0
    outer loop
      vertex -1.78012 9.33173 0
      vertex -2.93566 9.03504 5
      vertex -1.78012 9.33173 5
    endloop
  endfacet
  facet normal -0.248688 0.968584 0
    outer loop
      vertex -2.93566 9.03504 5
      vertex -1.78012 9.33173 0
      vertex -2.93566 9.03504 0
    endloop
  endfacet
  facet normal -0.68455 0.728966 0
    outer loop
      vertex -6.05553 7.31988 0
      vertex -6.9252 6.5032 5
      vertex -6.05553 7.31988 5
    endloop
  endfacet
  facet normal -0.68455 0.728966 0
    outer loop
      vertex -6.9252 6.5032 5
      vertex -6.05553 7.31988 0
      vertex -6.9252 6.5032 0
    endloop
  endfacet
  facet normal 0.998027 0.06279 -9.6672e-19
    outer loop
      vertex 9.5 0 5
      vertex 9.42509 1.19067 0
      vertex 9.42509 1.19067 5
    endloop
  endfacet
  facet normal 0.998027 0.06279 -9.6672e-19
    outer loop
      vertex 9.42509 1.19067 0
      vertex 9.5 0 5
      vertex 9.5 0 0
    endloop
  endfacet
  facet normal 0.481759 -0.876303 0
    outer loop
      vertex 4.0449 -8.59586 0
      vertex 5.09035 -8.02111 5
      vertex 4.0449 -8.59586 5
    endloop
  endfacet
  facet normal 0.481759 -0.876303 0
    outer loop
      vertex 5.09035 -8.02111 5
      vertex 4.0449 -8.59586 0
      vertex 5.09035 -8.02111 0
    endloop
  endfacet
  facet normal 0.951057 -0.309014 -3.89416e-18
    outer loop
      vertex 8.83288 -3.49718 5
      vertex 9.20154 -2.36255 0
      vertex 9.20154 -2.36255 5
    endloop
  endfacet
  facet normal 0.951057 -0.309014 -3.89416e-18
    outer loop
      vertex 9.20154 -2.36255 0
      vertex 8.83288 -3.49718 5
      vertex 8.83288 -3.49718 0
    endloop
  endfacet
  facet normal 0.68455 0.728966 -0
    outer loop
      vertex 6.9252 6.5032 0
      vertex 6.05553 7.31988 5
      vertex 6.9252 6.5032 5
    endloop
  endfacet
  facet normal 0.68455 0.728966 0
    outer loop
      vertex 6.05553 7.31988 5
      vertex 6.9252 6.5032 0
      vertex 6.05553 7.31988 0
    endloop
  endfacet
  facet normal 0.248688 0.968584 -0
    outer loop
      vertex 2.93566 9.03504 0
      vertex 1.78012 9.33173 5
      vertex 2.93566 9.03504 5
    endloop
  endfacet
  facet normal 0.248688 0.968584 0
    outer loop
      vertex 1.78012 9.33173 5
      vertex 2.93566 9.03504 0
      vertex 1.78012 9.33173 0
    endloop
  endfacet
  facet normal 0.125329 0.992115 -0
    outer loop
      vertex 1.78012 9.33173 0
      vertex 0.59651 9.48125 5
      vertex 1.78012 9.33173 5
    endloop
  endfacet
  facet normal 0.125329 0.992115 0
    outer loop
      vertex 0.59651 9.48125 5
      vertex 1.78012 9.33173 0
      vertex 0.59651 9.48125 0
    endloop
  endfacet
  facet normal 0.587777 0.809023 -0
    outer loop
      vertex 6.05553 7.31988 0
      vertex 5.09035 8.02111 5
      vertex 6.05553 7.31988 5
    endloop
  endfacet
  facet normal 0.587777 0.809023 0
    outer loop
      vertex 5.09035 8.02111 5
      vertex 6.05553 7.31988 0
      vertex 5.09035 8.02111 0
    endloop
  endfacet
  facet normal -0.998027 0.06279 9.6672e-19
    outer loop
      vertex -9.5 0 0
      vertex -9.42509 1.19067 5
      vertex -9.42509 1.19067 0
    endloop
  endfacet
  facet normal -0.998027 0.06279 9.6672e-19
    outer loop
      vertex -9.42509 1.19067 5
      vertex -9.5 0 0
      vertex -9.5 0 5
    endloop
  endfacet
  facet normal -0.951057 0.309014 -3.89416e-18
    outer loop
      vertex -9.20154 2.36255 0
      vertex -8.83288 3.49718 5
      vertex -8.83288 3.49718 0
    endloop
  endfacet
  facet normal -0.951057 0.309014 -3.89416e-18
    outer loop
      vertex -8.83288 3.49718 5
      vertex -9.20154 2.36255 0
      vertex -9.20154 2.36255 5
    endloop
  endfacet
  facet normal -0.844329 0.535826 -6.18885e-18
    outer loop
      vertex -8.32491 4.57666 0
      vertex -7.68566 5.58396 5
      vertex -7.68566 5.58396 0
    endloop
  endfacet
  facet normal -0.844329 0.535826 -6.18885e-18
    outer loop
      vertex -7.68566 5.58396 5
      vertex -8.32491 4.57666 0
      vertex -8.32491 4.57666 5
    endloop
  endfacet
  facet normal -0.125329 0.992115 0
    outer loop
      vertex -0.59651 9.48125 0
      vertex -1.78012 9.33173 5
      vertex -0.59651 9.48125 5
    endloop
  endfacet
  facet normal -0.125329 0.992115 0
    outer loop
      vertex -1.78012 9.33173 5
      vertex -0.59651 9.48125 0
      vertex -1.78012 9.33173 0
    endloop
  endfacet
  facet normal -0.587777 0.809023 0
    outer loop
      vertex -5.09035 8.02111 0
      vertex -6.05553 7.31988 5
      vertex -5.09035 8.02111 5
    endloop
  endfacet
  facet normal -0.587777 0.809023 0
    outer loop
      vertex -6.05553 7.31988 5
      vertex -5.09035 8.02111 0
      vertex -6.05553 7.31988 0
    endloop
  endfacet
  facet normal -0.481759 0.876303 0
    outer loop
      vertex -4.0449 8.59586 0
      vertex -5.09035 8.02111 5
      vertex -4.0449 8.59586 5
    endloop
  endfacet
  facet normal -0.481759 0.876303 0
    outer loop
      vertex -5.09035 8.02111 5
      vertex -4.0449 8.59586 0
      vertex -5.09035 8.02111 0
    endloop
  endfacet
  facet normal 0.998027 -0.06279 9.6672e-19
    outer loop
      vertex 9.42509 -1.19067 5
      vertex 9.5 0 0
      vertex 9.5 0 5
    endloop
  endfacet
  facet normal 0.998027 -0.06279 9.6672e-19
    outer loop
      vertex 9.5 0 0
      vertex 9.42509 -1.19067 5
      vertex 9.42509 -1.19067 0
    endloop
  endfacet
  facet normal -0.904825 -0.425783 -5.47088e-18
    outer loop
      vertex -8.32491 -4.57666 0
      vertex -8.83288 -3.49718 5
      vertex -8.83288 -3.49718 0
    endloop
  endfacet
  facet normal -0.904825 -0.425783 -5.47088e-18
    outer loop
      vertex -8.83288 -3.49718 5
      vertex -8.32491 -4.57666 0
      vertex -8.32491 -4.57666 5
    endloop
  endfacet
  facet normal 0.125329 -0.992115 0
    outer loop
      vertex 0.59651 -9.48125 0
      vertex 1.78012 -9.33173 5
      vertex 0.59651 -9.48125 5
    endloop
  endfacet
  facet normal 0.125329 -0.992115 0
    outer loop
      vertex 1.78012 -9.33173 5
      vertex 0.59651 -9.48125 0
      vertex 1.78012 -9.33173 0
    endloop
  endfacet
  facet normal 0.904825 0.425783 -5.47088e-18
    outer loop
      vertex 8.83288 3.49718 5
      vertex 8.32491 4.57666 0
      vertex 8.32491 4.57666 5
    endloop
  endfacet
  facet normal 0.904825 0.425783 -5.47088e-18
    outer loop
      vertex 8.32491 4.57666 0
      vertex 8.83288 3.49718 5
      vertex 8.83288 3.49718 0
    endloop
  endfacet
  facet normal 0.951057 0.309014 3.89416e-18
    outer loop
      vertex 9.20154 2.36255 5
      vertex 8.83288 3.49718 0
      vertex 8.83288 3.49718 5
    endloop
  endfacet
  facet normal 0.951057 0.309014 3.89416e-18
    outer loop
      vertex 8.83288 3.49718 0
      vertex 9.20154 2.36255 5
      vertex 9.20154 2.36255 0
    endloop
  endfacet
  facet normal 0.982287 0.187383 4.64848e-18
    outer loop
      vertex 9.42509 1.19067 5
      vertex 9.20154 2.36255 0
      vertex 9.20154 2.36255 5
    endloop
  endfacet
  facet normal 0.982287 0.187383 4.64848e-18
    outer loop
      vertex 9.20154 2.36255 0
      vertex 9.42509 1.19067 5
      vertex 9.42509 1.19067 0
    endloop
  endfacet
  facet normal 0.770514 0.637423 1.72669e-18
    outer loop
      vertex 7.68566 5.58396 5
      vertex 6.9252 6.5032 0
      vertex 6.9252 6.5032 5
    endloop
  endfacet
  facet normal 0.770514 0.637423 1.72669e-18
    outer loop
      vertex 6.9252 6.5032 0
      vertex 7.68566 5.58396 5
      vertex 7.68566 5.58396 0
    endloop
  endfacet
  facet normal 0 0 1
    outer loop
      vertex 5 0 5
      vertex 9.5 0 5
      vertex 9.42509 1.19067 5
    endloop
  endfacet
  facet normal 0 0 1
    outer loop
      vertex 4.96057 0.626666 5
      vertex 9.42509 1.19067 5
      vertex 9.20154 2.36255 5
    endloop
  endfacet
  facet normal 0 0 1
    outer loop
      vertex 9.5 0 5
      vertex 5 0 5
      vertex 9.42509 -1.19067 5
    endloop
  endfacet
  facet normal 0 0 1
    outer loop
      vertex 4.84292 1.24345 5
      vertex 9.20154 2.36255 5
      vertex 8.83288 3.49718 5
    endloop
  endfacet
  facet normal -0 0 1
    outer loop
      vertex 4.96057 -0.626666 5
      vertex 9.42509 -1.19067 5
      vertex 5 0 5
    endloop
  endfacet
  facet normal 0 0 1
    outer loop
      vertex 4.64888 1.84062 5
      vertex 8.83288 3.49718 5
      vertex 8.32491 4.57666 5
    endloop
  endfacet
  facet normal 0 0 1
    outer loop
      vertex 9.42509 -1.19067 5
      vertex 4.96057 -0.626666 5
      vertex 9.20154 -2.36255 5
    endloop
  endfacet
  facet normal 0 0 1
    outer loop
      vertex 4.38153 2.40877 5
      vertex 8.32491 4.57666 5
      vertex 7.68566 5.58396 5
    endloop
  endfacet
  facet normal -0 0 1
    outer loop
      vertex 4.84292 -1.24345 5
      vertex 9.20154 -2.36255 5
      vertex 4.96057 -0.626666 5
    endloop
  endfacet
  facet normal 0 0 1
    outer loop
      vertex 4.04508 2.93893 5
      vertex 7.68566 5.58396 5
      vertex 6.9252 6.5032 5
    endloop
  endfacet
  facet normal 0 0 1
    outer loop
      vertex 9.20154 -2.36255 5
      vertex 4.84292 -1.24345 5
      vertex 8.83288 -3.49718 5
    endloop
  endfacet
  facet normal 0 0 1
    outer loop
      vertex 3.64484 3.42274 5
      vertex 6.9252 6.5032 5
      vertex 6.05553 7.31988 5
    endloop
  endfacet
  facet normal -0 0 1
    outer loop
      vertex 4.64888 -1.84062 5
      vertex 8.83288 -3.49718 5
      vertex 4.84292 -1.24345 5
    endloop
  endfacet
  facet normal 0 0 1
    outer loop
      vertex 3.18712 3.85257 5
      vertex 6.05553 7.31988 5
      vertex 5.09035 8.02111 5
    endloop
  endfacet
  facet normal 0 0 1
    outer loop
      vertex 8.83288 -3.49718 5
      vertex 4.64888 -1.84062 5
      vertex 8.32491 -4.57666 5
    endloop
  endfacet
  facet normal -0 0 1
    outer loop
      vertex 4.38153 -2.40877 5
      vertex 8.32491 -4.57666 5
      vertex 4.64888 -1.84062 5
    endloop
  endfacet
  facet normal 0 0 1
    outer loop
      vertex 9.42509 1.19067 5
      vertex 4.96057 0.626666 5
      vertex 5 0 5
    endloop
  endfacet
  facet normal 0 0 1
    outer loop
      vertex 9.20154 2.36255 5
      vertex 4.84292 1.24345 5
      vertex 4.96057 0.626666 5
    endloop
  endfacet
  facet normal 0 0 1
    outer loop
      vertex 8.83288 3.49718 5
      vertex 4.64888 1.84062 5
      vertex 4.84292 1.24345 5
    endloop
  endfacet
  facet normal 0 0 1
    outer loop
      vertex 8.32491 4.57666 5
      vertex 4.38153 2.40877 5
      vertex 4.64888 1.84062 5
    endloop
  endfacet
  facet normal 0 0 1
    outer loop
      vertex 7.68566 5.58396 5
      vertex 4.04508 2.93893 5
      vertex 4.38153 2.40877 5
    endloop
  endfacet
  facet normal 0 0 1
    outer loop
      vertex 2.67913 4.22164 5
      vertex 5.09035 8.02111 5
      vertex 4.0449 8.59586 5
    endloop
  endfacet
  facet normal 0 0 1
    outer loop
      vertex 6.9252 6.5032 5
      vertex 3.64484 3.42274 5
      vertex 4.04508 2.93893 5
    endloop
  endfacet
  facet normal 0 0 1
    outer loop
      vertex 6.05553 7.31988 5
      vertex 3.18712 3.85257 5
      vertex 3.64484 3.42274 5
    endloop
  endfacet
  facet normal 0 0 1
    outer loop
      vertex 2.1289 4.52413 5
      vertex 4.0449 8.59586 5
      vertex 2.93566 9.03504 5
    endloop
  endfacet
  facet normal 0 0 1
    outer loop
      vertex 5.09035 8.02111 5
      vertex 2.67913 4.22164 5
      vertex 3.18712 3.85257 5
    endloop
  endfacet
  facet normal 0 0 1
    outer loop
      vertex 4.0449 8.59586 5
      vertex 2.1289 4.52413 5
      vertex 2.67913 4.22164 5
    endloop
  endfacet
  facet normal 0 0 1
    outer loop
      vertex 1.54508 4.75528 5
      vertex 2.93566 9.03504 5
      vertex 1.78012 9.33173 5
    endloop
  endfacet
  facet normal 0 0 1
    outer loop
      vertex 2.93566 9.03504 5
      vertex 1.54508 4.75528 5
      vertex 2.1289 4.52413 5
    endloop
  endfacet
  facet normal 0 0 1
    outer loop
      vertex 1.78012 9.33173 5
      vertex 0.936906 4.91144 5
      vertex 1.54508 4.75528 5
    endloop
  endfacet
  facet normal 0 0 1
    outer loop
      vertex 0.59651 9.48125 5
      vertex 0.936906 4.91144 5
      vertex 1.78012 9.33173 5
    endloop
  endfacet
  facet normal 0 0 1
    outer loop
      vertex 0.59651 9.48125 5
      vertex 0.313952 4.99013 5
      vertex 0.936906 4.91144 5
    endloop
  endfacet
  facet normal 0 0 1
    outer loop
      vertex 0.59651 9.48125 5
      vertex -0.313952 4.99013 5
      vertex 0.313952 4.99013 5
    endloop
  endfacet
  facet normal -0 0 1
    outer loop
      vertex -0.59651 9.48125 5
      vertex -0.313952 4.99013 5
      vertex 0.59651 9.48125 5
    endloop
  endfacet
  facet normal 0 0 1
    outer loop
      vertex -0.59651 9.48125 5
      vertex -0.936906 4.91144 5
      vertex -0.313952 4.99013 5
    endloop
  endfacet
  facet normal -0 0 1
    outer loop
      vertex -1.78012 9.33173 5
      vertex -0.936906 4.91144 5
      vertex -0.59651 9.48125 5
    endloop
  endfacet
  facet normal 0 0 1
    outer loop
      vertex -0.936906 4.91144 5
      vertex -1.78012 9.33173 5
      vertex -1.54508 4.75528 5
    endloop
  endfacet
  facet normal -0 0 1
    outer loop
      vertex -2.93566 9.03504 5
      vertex -1.54508 4.75528 5
      vertex -1.78012 9.33173 5
    endloop
  endfacet
  facet normal 0 0 1
    outer loop
      vertex -1.54508 4.75528 5
      vertex -2.93566 9.03504 5
      vertex -2.1289 4.52413 5
    endloop
  endfacet
  facet normal -0 0 1
    outer loop
      vertex -4.0449 8.59586 5
      vertex -2.1289 4.52413 5
      vertex -2.93566 9.03504 5
    endloop
  endfacet
  facet normal 0 0 1
    outer loop
      vertex -2.1289 4.52413 5
      vertex -4.0449 8.59586 5
      vertex -2.67913 4.22164 5
    endloop
  endfacet
  facet normal -0 0 1
    outer loop
      vertex -5.09035 8.02111 5
      vertex -2.67913 4.22164 5
      vertex -4.0449 8.59586 5
    endloop
  endfacet
  facet normal 0 0 1
    outer loop
      vertex -2.67913 4.22164 5
      vertex -5.09035 8.02111 5
      vertex -3.18712 3.85257 5
    endloop
  endfacet
  facet normal -0 0 1
    outer loop
      vertex -6.05553 7.31988 5
      vertex -3.18712 3.85257 5
      vertex -5.09035 8.02111 5
    endloop
  endfacet
  facet normal 0 0 1
    outer loop
      vertex -3.18712 3.85257 5
      vertex -6.05553 7.31988 5
      vertex -3.64484 3.42274 5
    endloop
  endfacet
  facet normal -0 0 1
    outer loop
      vertex -6.9252 6.5032 5
      vertex -3.64484 3.42274 5
      vertex -6.05553 7.31988 5
    endloop
  endfacet
  facet normal 0 0 1
    outer loop
      vertex -3.64484 3.42274 5
      vertex -6.9252 6.5032 5
      vertex -4.04508 2.93893 5
    endloop
  endfacet
  facet normal -0 0 1
    outer loop
      vertex -7.68566 5.58396 5
      vertex -4.04508 2.93893 5
      vertex -6.9252 6.5032 5
    endloop
  endfacet
  facet normal -0 0 1
    outer loop
      vertex -8.32491 4.57666 5
      vertex -4.38153 2.40877 5
      vertex -7.68566 5.58396 5
    endloop
  endfacet
  facet normal 0 0 1
    outer loop
      vertex -4.04508 2.93893 5
      vertex -7.68566 5.58396 5
      vertex -4.38153 2.40877 5
    endloop
  endfacet
  facet normal 0 0 1
    outer loop
      vertex 8.32491 -4.57666 5
      vertex 4.38153 -2.40877 5
      vertex 7.68566 -5.58396 5
    endloop
  endfacet
  facet normal -0 0 1
    outer loop
      vertex 4.04508 -2.93893 5
      vertex 7.68566 -5.58396 5
      vertex 4.38153 -2.40877 5
    endloop
  endfacet
  facet normal 0 0 1
    outer loop
      vertex 7.68566 -5.58396 5
      vertex 4.04508 -2.93893 5
      vertex 6.9252 -6.5032 5
    endloop
  endfacet
  facet normal -0 0 1
    outer loop
      vertex 3.64484 -3.42274 5
      vertex 6.9252 -6.5032 5
      vertex 4.04508 -2.93893 5
    endloop
  endfacet
  facet normal 0 0 1
    outer loop
      vertex 6.9252 -6.5032 5
      vertex 3.64484 -3.42274 5
      vertex 6.05553 -7.31988 5
    endloop
  endfacet
  facet normal -0 0 1
    outer loop
      vertex 3.18712 -3.85257 5
      vertex 6.05553 -7.31988 5
      vertex 3.64484 -3.42274 5
    endloop
  endfacet
  facet normal 0 0 1
    outer loop
      vertex 6.05553 -7.31988 5
      vertex 3.18712 -3.85257 5
      vertex 5.09035 -8.02111 5
    endloop
  endfacet
  facet normal -0 0 1
    outer loop
      vertex 2.67913 -4.22164 5
      vertex 5.09035 -8.02111 5
      vertex 3.18712 -3.85257 5
    endloop
  endfacet
  facet normal 0 0 1
    outer loop
      vertex 5.09035 -8.02111 5
      vertex 2.67913 -4.22164 5
      vertex 4.0449 -8.59586 5
    endloop
  endfacet
  facet normal -0 0 1
    outer loop
      vertex 2.1289 -4.52413 5
      vertex 4.0449 -8.59586 5
      vertex 2.67913 -4.22164 5
    endloop
  endfacet
  facet normal 0 0 1
    outer loop
      vertex 4.0449 -8.59586 5
      vertex 2.1289 -4.52413 5
      vertex 2.93566 -9.03504 5
    endloop
  endfacet
  facet normal -0 0 1
    outer loop
      vertex 1.54508 -4.75528 5
      vertex 2.93566 -9.03504 5
      vertex 2.1289 -4.52413 5
    endloop
  endfacet
  facet normal 0 0 1
    outer loop
      vertex 2.93566 -9.03504 5
      vertex 1.54508 -4.75528 5
      vertex 1.78012 -9.33173 5
    endloop
  endfacet
  facet normal -0 0 1
    outer loop
      vertex 0.936906 -4.91144 5
      vertex 1.78012 -9.33173 5
      vertex 1.54508 -4.75528 5
    endloop
  endfacet
  facet normal 0 0 1
    outer loop
      vertex 0.936906 -4.91144 5
      vertex 0.59651 -9.48125 5
      vertex 1.78012 -9.33173 5
    endloop
  endfacet
  facet normal -0 0 1
    outer loop
      vertex 0.313952 -4.99013 5
      vertex 0.59651 -9.48125 5
      vertex 0.936906 -4.91144 5
    endloop
  endfacet
  facet normal -0 0 1
    outer loop
      vertex -0.313952 -4.99013 5
      vertex 0.59651 -9.48125 5
      vertex 0.313952 -4.99013 5
    endloop
  endfacet
  facet normal 0 0 1
    outer loop
      vertex -0.313952 -4.99013 5
      vertex -0.59651 -9.48125 5
      vertex 0.59651 -9.48125 5
    endloop
  endfacet
  facet normal 0 0 1
    outer loop
      vertex -0.936906 -4.91144 5
      vertex -0.59651 -9.48125 5
      vertex -0.313952 -4.99013 5
    endloop
  endfacet
  facet normal 0 0 1
    outer loop
      vertex -1.78012 -9.33173 5
      vertex -0.936906 -4.91144 5
      vertex -1.54508 -4.75528 5
    endloop
  endfacet
  facet normal 0 0 1
    outer loop
      vertex -0.936906 -4.91144 5
      vertex -1.78012 -9.33173 5
      vertex -0.59651 -9.48125 5
    endloop
  endfacet
  facet normal 0 0 1
    outer loop
      vertex -2.93566 -9.03504 5
      vertex -1.54508 -4.75528 5
      vertex -2.1289 -4.52413 5
    endloop
  endfacet
  facet normal 0 0 1
    outer loop
      vertex -4.0449 -8.59586 5
      vertex -2.1289 -4.52413 5
      vertex -2.67913 -4.22164 5
    endloop
  endfacet
  facet normal 0 0 1
    outer loop
      vertex -1.54508 -4.75528 5
      vertex -2.93566 -9.03504 5
      vertex -1.78012 -9.33173 5
    endloop
  endfacet
  facet normal 0 0 1
    outer loop
      vertex -5.09035 -8.02111 5
      vertex -2.67913 -4.22164 5
      vertex -3.18712 -3.85257 5
    endloop
  endfacet
  facet normal 0 0 1
    outer loop
      vertex -6.05553 -7.31988 5
      vertex -3.18712 -3.85257 5
      vertex -3.64484 -3.42274 5
    endloop
  endfacet
  facet normal 0 0 1
    outer loop
      vertex -2.1289 -4.52413 5
      vertex -4.0449 -8.59586 5
      vertex -2.93566 -9.03504 5
    endloop
  endfacet
  facet normal 0 0 1
    outer loop
      vertex -6.9252 -6.5032 5
      vertex -3.64484 -3.42274 5
      vertex -4.04508 -2.93893 5
    endloop
  endfacet
  facet normal 0 0 1
    outer loop
      vertex -7.68566 -5.58396 5
      vertex -4.04508 -2.93893 5
      vertex -4.38153 -2.40877 5
    endloop
  endfacet
  facet normal 0 0 1
    outer loop
      vertex -8.32491 -4.57666 5
      vertex -4.38153 -2.40877 5
      vertex -4.64888 -1.84062 5
    endloop
  endfacet
  facet normal 0 0 1
    outer loop
      vertex -8.83288 -3.49718 5
      vertex -4.64888 -1.84062 5
      vertex -4.84292 -1.24345 5
    endloop
  endfacet
  facet normal 0 0 1
    outer loop
      vertex -9.20154 -2.36255 5
      vertex -4.84292 -1.24345 5
      vertex -4.96057 -0.626666 5
    endloop
  endfacet
  facet normal 0 0 1
    outer loop
      vertex -2.67913 -4.22164 5
      vertex -5.09035 -8.02111 5
      vertex -4.0449 -8.59586 5
    endloop
  endfacet
  facet normal 0 0 1
    outer loop
      vertex -9.42509 -1.19067 5
      vertex -4.96057 -0.626666 5
      vertex -5 0 5
    endloop
  endfacet
  facet normal 0 0 1
    outer loop
      vertex -4.38153 2.40877 5
      vertex -8.32491 4.57666 5
      vertex -4.64888 1.84062 5
    endloop
  endfacet
  facet normal -0 0 1
    outer loop
      vertex -8.83288 3.49718 5
      vertex -4.64888 1.84062 5
      vertex -8.32491 4.57666 5
    endloop
  endfacet
  facet normal 0 0 1
    outer loop
      vertex -3.18712 -3.85257 5
      vertex -6.05553 -7.31988 5
      vertex -5.09035 -8.02111 5
    endloop
  endfacet
  facet normal 0 0 1
    outer loop
      vertex -4.64888 1.84062 5
      vertex -8.83288 3.49718 5
      vertex -4.84292 1.24345 5
    endloop
  endfacet
  facet normal 0 0 1
    outer loop
      vertex -3.64484 -3.42274 5
      vertex -6.9252 -6.5032 5
      vertex -6.05553 -7.31988 5
    endloop
  endfacet
  facet normal -0 0 1
    outer loop
      vertex -9.20154 2.36255 5
      vertex -4.84292 1.24345 5
      vertex -8.83288 3.49718 5
    endloop
  endfacet
  facet normal 0 0 1
    outer loop
      vertex -4.04508 -2.93893 5
      vertex -7.68566 -5.58396 5
      vertex -6.9252 -6.5032 5
    endloop
  endfacet
  facet normal 0 0 1
    outer loop
      vertex -4.84292 1.24345 5
      vertex -9.20154 2.36255 5
      vertex -4.96057 0.626666 5
    endloop
  endfacet
  facet normal 0 0 1
    outer loop
      vertex -4.38153 -2.40877 5
      vertex -8.32491 -4.57666 5
      vertex -7.68566 -5.58396 5
    endloop
  endfacet
  facet normal -0 0 1
    outer loop
      vertex -9.42509 1.19067 5
      vertex -4.96057 0.626666 5
      vertex -9.20154 2.36255 5
    endloop
  endfacet
  facet normal 0 0 1
    outer loop
      vertex -4.64888 -1.84062 5
      vertex -8.83288 -3.49718 5
      vertex -8.32491 -4.57666 5
    endloop
  endfacet
  facet normal 0 0 1
    outer loop
      vertex -4.96057 0.626666 5
      vertex -9.42509 1.19067 5
      vertex -5 0 5
    endloop
  endfacet
  facet normal 0 0 1
    outer loop
      vertex -4.84292 -1.24345 5
      vertex -9.20154 -2.36255 5
      vertex -8.83288 -3.49718 5
    endloop
  endfacet
  facet normal 0 0 1
    outer loop
      vertex -9.5 0 5
      vertex -5 0 5
      vertex -9.42509 1.19067 5
    endloop
  endfacet
  facet normal 0 0 1
    outer loop
      vertex -4.96057 -0.626666 5
      vertex -9.42509 -1.19067 5
      vertex -9.20154 -2.36255 5
    endloop
  endfacet
  facet normal 0 0 1
    outer loop
      vertex -5 0 5
      vertex -9.5 0 5
      vertex -9.42509 -1.19067 5
    endloop
  endfacet
  facet normal 0.844329 -0.535826 -6.18885e-18
    outer loop
      vertex 7.68566 -5.58396 5
      vertex 8.32491 -4.57666 0
      vertex 8.32491 -4.57666 5
    endloop
  endfacet
  facet normal 0.844329 -0.535826 -6.18885e-18
    outer loop
      vertex 8.32491 -4.57666 0
      vertex 7.68566 -5.58396 5
      vertex 7.68566 -5.58396 0
    endloop
  endfacet
  facet normal 0.904825 -0.425783 5.47088e-18
    outer loop
      vertex 8.32491 -4.57666 5
      vertex 8.83288 -3.49718 0
      vertex 8.83288 -3.49718 5
    endloop
  endfacet
  facet normal 0.904825 -0.425783 5.47088e-18
    outer loop
      vertex 8.83288 -3.49718 0
      vertex 8.32491 -4.57666 5
      vertex 8.32491 -4.57666 0
    endloop
  endfacet
  facet normal 0 -1 0
    outer loop
      vertex -0.59651 -9.48125 0
      vertex 0.59651 -9.48125 5
      vertex -0.59651 -9.48125 5
    endloop
  endfacet
  facet normal 0 -1 -0
    outer loop
      vertex 0.59651 -9.48125 5
      vertex -0.59651 -9.48125 0
      vertex 0.59651 -9.48125 0
    endloop
  endfacet
  facet normal -0.998027 -0.06279 -9.6672e-19
    outer loop
      vertex -9.42509 -1.19067 0
      vertex -9.5 0 5
      vertex -9.5 0 0
    endloop
  endfacet
  facet normal -0.998027 -0.06279 -9.6672e-19
    outer loop
      vertex -9.5 0 5
      vertex -9.42509 -1.19067 0
      vertex -9.42509 -1.19067 5
    endloop
  endfacet
  facet normal -0.951057 -0.309014 3.89416e-18
    outer loop
      vertex -8.83288 -3.49718 0
      vertex -9.20154 -2.36255 5
      vertex -9.20154 -2.36255 0
    endloop
  endfacet
  facet normal -0.951057 -0.309014 3.89416e-18
    outer loop
      vertex -9.20154 -2.36255 5
      vertex -8.83288 -3.49718 0
      vertex -8.83288 -3.49718 5
    endloop
  endfacet
  facet normal 0.368125 -0.929776 0
    outer loop
      vertex 2.93566 -9.03504 0
      vertex 4.0449 -8.59586 5
      vertex 2.93566 -9.03504 5
    endloop
  endfacet
  facet normal 0.368125 -0.929776 0
    outer loop
      vertex 4.0449 -8.59586 5
      vertex 2.93566 -9.03504 0
      vertex 4.0449 -8.59586 0
    endloop
  endfacet
  facet normal 0.248688 -0.968584 0
    outer loop
      vertex 1.78012 -9.33173 0
      vertex 2.93566 -9.03504 5
      vertex 1.78012 -9.33173 5
    endloop
  endfacet
  facet normal 0.248688 -0.968584 0
    outer loop
      vertex 2.93566 -9.03504 5
      vertex 1.78012 -9.33173 0
      vertex 2.93566 -9.03504 0
    endloop
  endfacet
  facet normal 0.68455 -0.728966 0
    outer loop
      vertex 6.05553 -7.31988 0
      vertex 6.9252 -6.5032 5
      vertex 6.05553 -7.31988 5
    endloop
  endfacet
  facet normal 0.68455 -0.728966 0
    outer loop
      vertex 6.9252 -6.5032 5
      vertex 6.05553 -7.31988 0
      vertex 6.9252 -6.5032 0
    endloop
  endfacet
  facet normal -0.368125 -0.929776 0
    outer loop
      vertex -4.0449 -8.59586 0
      vertex -2.93566 -9.03504 5
      vertex -4.0449 -8.59586 5
    endloop
  endfacet
  facet normal -0.368125 -0.929776 -0
    outer loop
      vertex -2.93566 -9.03504 5
      vertex -4.0449 -8.59586 0
      vertex -2.93566 -9.03504 0
    endloop
  endfacet
  facet normal -0.248688 -0.968584 0
    outer loop
      vertex -2.93566 -9.03504 0
      vertex -1.78012 -9.33173 5
      vertex -2.93566 -9.03504 5
    endloop
  endfacet
  facet normal -0.248688 -0.968584 -0
    outer loop
      vertex -1.78012 -9.33173 5
      vertex -2.93566 -9.03504 0
      vertex -1.78012 -9.33173 0
    endloop
  endfacet
  facet normal -0.770514 -0.637423 1.72669e-18
    outer loop
      vertex -6.9252 -6.5032 0
      vertex -7.68566 -5.58396 5
      vertex -7.68566 -5.58396 0
    endloop
  endfacet
  facet normal -0.770514 -0.637423 1.72669e-18
    outer loop
      vertex -7.68566 -5.58396 5
      vertex -6.9252 -6.5032 0
      vertex -6.9252 -6.5032 5
    endloop
  endfacet
  facet normal -0.68455 -0.728966 0
    outer loop
      vertex -6.9252 -6.5032 0
      vertex -6.05553 -7.31988 5
      vertex -6.9252 -6.5032 5
    endloop
  endfacet
  facet normal -0.68455 -0.728966 -0
    outer loop
      vertex -6.05553 -7.31988 5
      vertex -6.9252 -6.5032 0
      vertex -6.05553 -7.31988 0
    endloop
  endfacet
  facet normal 0 0 -1
    outer loop
      vertex 5 0 0
      vertex 9.5 0 0
      vertex 9.42509 -1.19067 0
    endloop
  endfacet
  facet normal 0 0 -1
    outer loop
      vertex 4.96057 -0.626666 0
      vertex 9.42509 -1.19067 0
      vertex 9.20154 -2.36255 0
    endloop
  endfacet
  facet normal 0 0 -1
    outer loop
      vertex 9.5 0 0
      vertex 5 0 0
      vertex 9.42509 1.19067 0
    endloop
  endfacet
  facet normal 0 0 -1
    outer loop
      vertex 4.84292 -1.24345 0
      vertex 9.20154 -2.36255 0
      vertex 8.83288 -3.49718 0
    endloop
  endfacet
  facet normal 0 0 -1
    outer loop
      vertex 4.96057 0.626666 0
      vertex 9.42509 1.19067 0
      vertex 5 0 0
    endloop
  endfacet
  facet normal 0 0 -1
    outer loop
      vertex 4.64888 -1.84062 0
      vertex 8.83288 -3.49718 0
      vertex 8.32491 -4.57666 0
    endloop
  endfacet
  facet normal -0 0 -1
    outer loop
      vertex 9.42509 1.19067 0
      vertex 4.96057 0.626666 0
      vertex 9.20154 2.36255 0
    endloop
  endfacet
  facet normal 0 0 -1
    outer loop
      vertex 4.38153 -2.40877 0
      vertex 8.32491 -4.57666 0
      vertex 7.68566 -5.58396 0
    endloop
  endfacet
  facet normal 0 0 -1
    outer loop
      vertex 4.84292 1.24345 0
      vertex 9.20154 2.36255 0
      vertex 4.96057 0.626666 0
    endloop
  endfacet
  facet normal 0 0 -1
    outer loop
      vertex 4.04508 -2.93893 0
      vertex 7.68566 -5.58396 0
      vertex 6.9252 -6.5032 0
    endloop
  endfacet
  facet normal -0 0 -1
    outer loop
      vertex 9.20154 2.36255 0
      vertex 4.84292 1.24345 0
      vertex 8.83288 3.49718 0
    endloop
  endfacet
  facet normal 0 0 -1
    outer loop
      vertex 3.64484 -3.42274 0
      vertex 6.9252 -6.5032 0
      vertex 6.05553 -7.31988 0
    endloop
  endfacet
  facet normal 0 0 -1
    outer loop
      vertex 4.64888 1.84062 0
      vertex 8.83288 3.49718 0
      vertex 4.84292 1.24345 0
    endloop
  endfacet
  facet normal 0 0 -1
    outer loop
      vertex 3.18712 -3.85257 0
      vertex 6.05553 -7.31988 0
      vertex 5.09035 -8.02111 0
    endloop
  endfacet
  facet normal -0 0 -1
    outer loop
      vertex 8.83288 3.49718 0
      vertex 4.64888 1.84062 0
      vertex 8.32491 4.57666 0
    endloop
  endfacet
  facet normal 0 0 -1
    outer loop
      vertex 4.38153 2.40877 0
      vertex 8.32491 4.57666 0
      vertex 4.64888 1.84062 0
    endloop
  endfacet
  facet normal 0 0 -1
    outer loop
      vertex 9.42509 -1.19067 0
      vertex 4.96057 -0.626666 0
      vertex 5 0 0
    endloop
  endfacet
  facet normal 0 0 -1
    outer loop
      vertex 9.20154 -2.36255 0
      vertex 4.84292 -1.24345 0
      vertex 4.96057 -0.626666 0
    endloop
  endfacet
  facet normal 0 0 -1
    outer loop
      vertex 8.83288 -3.49718 0
      vertex 4.64888 -1.84062 0
      vertex 4.84292 -1.24345 0
    endloop
  endfacet
  facet normal 0 0 -1
    outer loop
      vertex 8.32491 -4.57666 0
      vertex 4.38153 -2.40877 0
      vertex 4.64888 -1.84062 0
    endloop
  endfacet
  facet normal 0 0 -1
    outer loop
      vertex 7.68566 -5.58396 0
      vertex 4.04508 -2.93893 0
      vertex 4.38153 -2.40877 0
    endloop
  endfacet
  facet normal 0 0 -1
    outer loop
      vertex 2.67913 -4.22164 0
      vertex 5.09035 -8.02111 0
      vertex 4.0449 -8.59586 0
    endloop
  endfacet
  facet normal 0 0 -1
    outer loop
      vertex 6.9252 -6.5032 0
      vertex 3.64484 -3.42274 0
      vertex 4.04508 -2.93893 0
    endloop
  endfacet
  facet normal 0 0 -1
    outer loop
      vertex 6.05553 -7.31988 0
      vertex 3.18712 -3.85257 0
      vertex 3.64484 -3.42274 0
    endloop
  endfacet
  facet normal 0 0 -1
    outer loop
      vertex 2.1289 -4.52413 0
      vertex 4.0449 -8.59586 0
      vertex 2.93566 -9.03504 0
    endloop
  endfacet
  facet normal 0 0 -1
    outer loop
      vertex 5.09035 -8.02111 0
      vertex 2.67913 -4.22164 0
      vertex 3.18712 -3.85257 0
    endloop
  endfacet
  facet normal 0 0 -1
    outer loop
      vertex 4.0449 -8.59586 0
      vertex 2.1289 -4.52413 0
      vertex 2.67913 -4.22164 0
    endloop
  endfacet
  facet normal 0 0 -1
    outer loop
      vertex 1.54508 -4.75528 0
      vertex 2.93566 -9.03504 0
      vertex 1.78012 -9.33173 0
    endloop
  endfacet
  facet normal 0 0 -1
    outer loop
      vertex 2.93566 -9.03504 0
      vertex 1.54508 -4.75528 0
      vertex 2.1289 -4.52413 0
    endloop
  endfacet
  facet normal 0 0 -1
    outer loop
      vertex 1.78012 -9.33173 0
      vertex 0.936906 -4.91144 0
      vertex 1.54508 -4.75528 0
    endloop
  endfacet
  facet normal 0 0 -1
    outer loop
      vertex 0.59651 -9.48125 0
      vertex 0.936906 -4.91144 0
      vertex 1.78012 -9.33173 0
    endloop
  endfacet
  facet normal 0 0 -1
    outer loop
      vertex 0.59651 -9.48125 0
      vertex 0.313952 -4.99013 0
      vertex 0.936906 -4.91144 0
    endloop
  endfacet
  facet normal 0 0 -1
    outer loop
      vertex 0.59651 -9.48125 0
      vertex -0.313952 -4.99013 0
      vertex 0.313952 -4.99013 0
    endloop
  endfacet
  facet normal 0 0 -1
    outer loop
      vertex -0.59651 -9.48125 0
      vertex -0.313952 -4.99013 0
      vertex 0.59651 -9.48125 0
    endloop
  endfacet
  facet normal 0 0 -1
    outer loop
      vertex -0.59651 -9.48125 0
      vertex -0.936906 -4.91144 0
      vertex -0.313952 -4.99013 0
    endloop
  endfacet
  facet normal 0 0 -1
    outer loop
      vertex -1.78012 -9.33173 0
      vertex -0.936906 -4.91144 0
      vertex -0.59651 -9.48125 0
    endloop
  endfacet
  facet normal -0 0 -1
    outer loop
      vertex -0.936906 -4.91144 0
      vertex -1.78012 -9.33173 0
      vertex -1.54508 -4.75528 0
    endloop
  endfacet
  facet normal 0 0 -1
    outer loop
      vertex -2.93566 -9.03504 0
      vertex -1.54508 -4.75528 0
      vertex -1.78012 -9.33173 0
    endloop
  endfacet
  facet normal -0 0 -1
    outer loop
      vertex -1.54508 -4.75528 0
      vertex -2.93566 -9.03504 0
      vertex -2.1289 -4.52413 0
    endloop
  endfacet
  facet normal 0 0 -1
    outer loop
      vertex -4.0449 -8.59586 0
      vertex -2.1289 -4.52413 0
      vertex -2.93566 -9.03504 0
    endloop
  endfacet
  facet normal -0 0 -1
    outer loop
      vertex -2.1289 -4.52413 0
      vertex -4.0449 -8.59586 0
      vertex -2.67913 -4.22164 0
    endloop
  endfacet
  facet normal 0 0 -1
    outer loop
      vertex -5.09035 -8.02111 0
      vertex -2.67913 -4.22164 0
      vertex -4.0449 -8.59586 0
    endloop
  endfacet
  facet normal -0 0 -1
    outer loop
      vertex -2.67913 -4.22164 0
      vertex -5.09035 -8.02111 0
      vertex -3.18712 -3.85257 0
    endloop
  endfacet
  facet normal 0 0 -1
    outer loop
      vertex -6.05553 -7.31988 0
      vertex -3.18712 -3.85257 0
      vertex -5.09035 -8.02111 0
    endloop
  endfacet
  facet normal -0 0 -1
    outer loop
      vertex -3.18712 -3.85257 0
      vertex -6.05553 -7.31988 0
      vertex -3.64484 -3.42274 0
    endloop
  endfacet
  facet normal 0 0 -1
    outer loop
      vertex -6.9252 -6.5032 0
      vertex -3.64484 -3.42274 0
      vertex -6.05553 -7.31988 0
    endloop
  endfacet
  facet normal -0 0 -1
    outer loop
      vertex -3.64484 -3.42274 0
      vertex -6.9252 -6.5032 0
      vertex -4.04508 -2.93893 0
    endloop
  endfacet
  facet normal 0 0 -1
    outer loop
      vertex -7.68566 -5.58396 0
      vertex -4.04508 -2.93893 0
      vertex -6.9252 -6.5032 0
    endloop
  endfacet
  facet normal 0 0 -1
    outer loop
      vertex -8.32491 -4.57666 0
      vertex -4.38153 -2.40877 0
      vertex -7.68566 -5.58396 0
    endloop
  endfacet
  facet normal -0 0 -1
    outer loop
      vertex -4.04508 -2.93893 0
      vertex -7.68566 -5.58396 0
      vertex -4.38153 -2.40877 0
    endloop
  endfacet
  facet normal -0 0 -1
    outer loop
      vertex 8.32491 4.57666 0
      vertex 4.38153 2.40877 0
      vertex 7.68566 5.58396 0
    endloop
  endfacet
  facet normal 0 0 -1
    outer loop
      vertex 4.04508 2.93893 0
      vertex 7.68566 5.58396 0
      vertex 4.38153 2.40877 0
    endloop
  endfacet
  facet normal -0 0 -1
    outer loop
      vertex 7.68566 5.58396 0
      vertex 4.04508 2.93893 0
      vertex 6.9252 6.5032 0
    endloop
  endfacet
  facet normal 0 0 -1
    outer loop
      vertex 3.64484 3.42274 0
      vertex 6.9252 6.5032 0
      vertex 4.04508 2.93893 0
    endloop
  endfacet
  facet normal -0 0 -1
    outer loop
      vertex 6.9252 6.5032 0
      vertex 3.64484 3.42274 0
      vertex 6.05553 7.31988 0
    endloop
  endfacet
  facet normal 0 0 -1
    outer loop
      vertex 3.18712 3.85257 0
      vertex 6.05553 7.31988 0
      vertex 3.64484 3.42274 0
    endloop
  endfacet
  facet normal -0 0 -1
    outer loop
      vertex 6.05553 7.31988 0
      vertex 3.18712 3.85257 0
      vertex 5.09035 8.02111 0
    endloop
  endfacet
  facet normal 0 0 -1
    outer loop
      vertex 2.67913 4.22164 0
      vertex 5.09035 8.02111 0
      vertex 3.18712 3.85257 0
    endloop
  endfacet
  facet normal -0 0 -1
    outer loop
      vertex 5.09035 8.02111 0
      vertex 2.67913 4.22164 0
      vertex 4.0449 8.59586 0
    endloop
  endfacet
  facet normal 0 0 -1
    outer loop
      vertex 2.1289 4.52413 0
      vertex 4.0449 8.59586 0
      vertex 2.67913 4.22164 0
    endloop
  endfacet
  facet normal -0 0 -1
    outer loop
      vertex 4.0449 8.59586 0
      vertex 2.1289 4.52413 0
      vertex 2.93566 9.03504 0
    endloop
  endfacet
  facet normal 0 0 -1
    outer loop
      vertex 1.54508 4.75528 0
      vertex 2.93566 9.03504 0
      vertex 2.1289 4.52413 0
    endloop
  endfacet
  facet normal -0 0 -1
    outer loop
      vertex 2.93566 9.03504 0
      vertex 1.54508 4.75528 0
      vertex 1.78012 9.33173 0
    endloop
  endfacet
  facet normal 0 0 -1
    outer loop
      vertex 0.936906 4.91144 0
      vertex 1.78012 9.33173 0
      vertex 1.54508 4.75528 0
    endloop
  endfacet
  facet normal 0 0 -1
    outer loop
      vertex 0.936906 4.91144 0
      vertex 0.59651 9.48125 0
      vertex 1.78012 9.33173 0
    endloop
  endfacet
  facet normal 0 0 -1
    outer loop
      vertex 0.313952 4.99013 0
      vertex 0.59651 9.48125 0
      vertex 0.936906 4.91144 0
    endloop
  endfacet
  facet normal 0 0 -1
    outer loop
      vertex -0.313952 4.99013 0
      vertex 0.59651 9.48125 0
      vertex 0.313952 4.99013 0
    endloop
  endfacet
  facet normal 0 0 -1
    outer loop
      vertex -0.313952 4.99013 0
      vertex -0.59651 9.48125 0
      vertex 0.59651 9.48125 0
    endloop
  endfacet
  facet normal 0 0 -1
    outer loop
      vertex -0.936906 4.91144 0
      vertex -0.59651 9.48125 0
      vertex -0.313952 4.99013 0
    endloop
  endfacet
  facet normal 0 0 -1
    outer loop
      vertex -1.78012 9.33173 0
      vertex -0.936906 4.91144 0
      vertex -1.54508 4.75528 0
    endloop
  endfacet
  facet normal 0 0 -1
    outer loop
      vertex -0.936906 4.91144 0
      vertex -1.78012 9.33173 0
      vertex -0.59651 9.48125 0
    endloop
  endfacet
  facet normal 0 0 -1
    outer loop
      vertex -2.93566 9.03504 0
      vertex -1.54508 4.75528 0
      vertex -2.1289 4.52413 0
    endloop
  endfacet
  facet normal 0 0 -1
    outer loop
      vertex -4.0449 8.59586 0
      vertex -2.1289 4.52413 0
      vertex -2.67913 4.22164 0
    endloop
  endfacet
  facet normal 0 0 -1
    outer loop
      vertex -1.54508 4.75528 0
      vertex -2.93566 9.03504 0
      vertex -1.78012 9.33173 0
    endloop
  endfacet
  facet normal 0 0 -1
    outer loop
      vertex -5.09035 8.02111 0
      vertex -2.67913 4.22164 0
      vertex -3.18712 3.85257 0
    endloop
  endfacet
  facet normal 0 0 -1
    outer loop
      vertex -6.05553 7.31988 0
      vertex -3.18712 3.85257 0
      vertex -3.64484 3.42274 0
    endloop
  endfacet
  facet normal 0 0 -1
    outer loop
      vertex -2.1289 4.52413 0
      vertex -4.0449 8.59586 0
      vertex -2.93566 9.03504 0
    endloop
  endfacet
  facet normal 0 0 -1
    outer loop
      vertex -6.9252 6.5032 0
      vertex -3.64484 3.42274 0
      vertex -4.04508 2.93893 0
    endloop
  endfacet
  facet normal 0 0 -1
    outer loop
      vertex -7.68566 5.58396 0
      vertex -4.04508 2.93893 0
      vertex -4.38153 2.40877 0
    endloop
  endfacet
  facet normal 0 0 -1
    outer loop
      vertex -8.32491 4.57666 0
      vertex -4.38153 2.40877 0
      vertex -4.64888 1.84062 0
    endloop
  endfacet
  facet normal 0 0 -1
    outer loop
      vertex -8.83288 3.49718 0
      vertex -4.64888 1.84062 0
      vertex -4.84292 1.24345 0
    endloop
  endfacet
  facet normal 0 0 -1
    outer loop
      vertex -9.20154 2.36255 0
      vertex -4.84292 1.24345 0
      vertex -4.96057 0.626666 0
    endloop
  endfacet
  facet normal 0 0 -1
    outer loop
      vertex -2.67913 4.22164 0
      vertex -5.09035 8.02111 0
      vertex -4.0449 8.59586 0
    endloop
  endfacet
  facet normal 0 0 -1
    outer loop
      vertex -9.42509 1.19067 0
      vertex -4.96057 0.626666 0
      vertex -5 0 0
    endloop
  endfacet
  facet normal -0 0 -1
    outer loop
      vertex -4.38153 -2.40877 0
      vertex -8.32491 -4.57666 0
      vertex -4.64888 -1.84062 0
    endloop
  endfacet
  facet normal 0 0 -1
    outer loop
      vertex -8.83288 -3.49718 0
      vertex -4.64888 -1.84062 0
      vertex -8.32491 -4.57666 0
    endloop
  endfacet
  facet normal 0 0 -1
    outer loop
      vertex -3.18712 3.85257 0
      vertex -6.05553 7.31988 0
      vertex -5.09035 8.02111 0
    endloop
  endfacet
  facet normal -0 0 -1
    outer loop
      vertex -4.64888 -1.84062 0
      vertex -8.83288 -3.49718 0
      vertex -4.84292 -1.24345 0
    endloop
  endfacet
  facet normal 0 0 -1
    outer loop
      vertex -3.64484 3.42274 0
      vertex -6.9252 6.5032 0
      vertex -6.05553 7.31988 0
    endloop
  endfacet
  facet normal 0 0 -1
    outer loop
      vertex -9.20154 -2.36255 0
      vertex -4.84292 -1.24345 0
      vertex -8.83288 -3.49718 0
    endloop
  endfacet
  facet normal 0 0 -1
    outer loop
      vertex -4.04508 2.93893 0
      vertex -7.68566 5.58396 0
      vertex -6.9252 6.5032 0
    endloop
  endfacet
  facet normal -0 0 -1
    outer loop
      vertex -4.84292 -1.24345 0
      vertex -9.20154 -2.36255 0
      vertex -4.96057 -0.626666 0
    endloop
  endfacet
  facet normal 0 0 -1
    outer loop
      vertex -4.38153 2.40877 0
      vertex -8.32491 4.57666 0
      vertex -7.68566 5.58396 0
    endloop
  endfacet
  facet normal 0 0 -1
    outer loop
      vertex -9.42509 -1.19067 0
      vertex -4.96057 -0.626666 0
      vertex -9.20154 -2.36255 0
    endloop
  endfacet
  facet normal 0 0 -1
    outer loop
      vertex -4.64888 1.84062 0
      vertex -8.83288 3.49718 0
      vertex -8.32491 4.57666 0
    endloop
  endfacet
  facet normal -0 0 -1
    outer loop
      vertex -4.96057 -0.626666 0
      vertex -9.42509 -1.19067 0
      vertex -5 0 0
    endloop
  endfacet
  facet normal 0 0 -1
    outer loop
      vertex -4.84292 1.24345 0
      vertex -9.20154 2.36255 0
      vertex -8.83288 3.49718 0
    endloop
  endfacet
  facet normal 0 0 -1
    outer loop
      vertex -9.5 0 0
      vertex -5 0 0
      vertex -9.42509 -1.19067 0
    endloop
  endfacet
  facet normal 0 0 -1
    outer loop
      vertex -4.96057 0.626666 0
      vertex -9.42509 1.19067 0
      vertex -9.20154 2.36255 0
    endloop
  endfacet
  facet normal 0 0 -1
    outer loop
      vertex -5 0 0
      vertex -9.5 0 0
      vertex -9.42509 1.19067 0
    endloop
  endfacet
  facet normal -0.982287 -0.187383 4.64848e-18
    outer loop
      vertex -9.20154 -2.36255 0
      vertex -9.42509 -1.19067 5
      vertex -9.42509 -1.19067 0
    endloop
  endfacet
  facet normal -0.982287 -0.187383 4.64848e-18
    outer loop
      vertex -9.42509 -1.19067 5
      vertex -9.20154 -2.36255 0
      vertex -9.20154 -2.36255 5
    endloop
  endfacet
  facet normal 0.770514 -0.637423 -1.72669e-18
    outer loop
      vertex 6.9252 -6.5032 5
      vertex 7.68566 -5.58396 0
      vertex 7.68566 -5.58396 5
    endloop
  endfacet
  facet normal 0.770514 -0.637423 -1.72669e-18
    outer loop
      vertex 7.68566 -5.58396 0
      vertex 6.9252 -6.5032 5
      vertex 6.9252 -6.5032 0
    endloop
  endfacet
  facet normal 0.587777 -0.809023 0
    outer loop
      vertex 5.09035 -8.02111 0
      vertex 6.05553 -7.31988 5
      vertex 5.09035 -8.02111 5
    endloop
  endfacet
  facet normal 0.587777 -0.809023 0
    outer loop
      vertex 6.05553 -7.31988 5
      vertex 5.09035 -8.02111 0
      vertex 6.05553 -7.31988 0
    endloop
  endfacet
  facet normal -0.125329 -0.992115 0
    outer loop
      vertex -1.78012 -9.33173 0
      vertex -0.59651 -9.48125 5
      vertex -1.78012 -9.33173 5
    endloop
  endfacet
  facet normal -0.125329 -0.992115 -0
    outer loop
      vertex -0.59651 -9.48125 5
      vertex -1.78012 -9.33173 0
      vertex -0.59651 -9.48125 0
    endloop
  endfacet
  facet normal -0.844329 -0.535826 6.18885e-18
    outer loop
      vertex -7.68566 -5.58396 0
      vertex -8.32491 -4.57666 5
      vertex -8.32491 -4.57666 0
    endloop
  endfacet
  facet normal -0.844329 -0.535826 6.18885e-18
    outer loop
      vertex -8.32491 -4.57666 5
      vertex -7.68566 -5.58396 0
      vertex -7.68566 -5.58396 5
    endloop
  endfacet
  facet normal -0.481759 -0.876303 0
    outer loop
      vertex -5.09035 -8.02111 0
      vertex -4.0449 -8.59586 5
      vertex -5.09035 -8.02111 5
    endloop
  endfacet
  facet normal -0.481759 -0.876303 -0
    outer loop
      vertex -4.0449 -8.59586 5
      vertex -5.09035 -8.02111 0
      vertex -4.0449 -8.59586 0
    endloop
  endfacet
  facet normal -0.587777 -0.809023 0
    outer loop
      vertex -6.05553 -7.31988 0
      vertex -5.09035 -8.02111 5
      vertex -6.05553 -7.31988 5
    endloop
  endfacet
  facet normal -0.587777 -0.809023 -0
    outer loop
      vertex -5.09035 -8.02111 5
      vertex -6.05553 -7.31988 0
      vertex -5.09035 -8.02111 0
    endloop
  endfacet
  facet normal -0.998026 -0.0627961 4.46243e-19
    outer loop
      vertex 5 0 0
      vertex 4.96057 0.626666 5
      vertex 4.96057 0.626666 0
    endloop
  endfacet
  facet normal -0.998026 -0.0627961 4.46243e-19
    outer loop
      vertex 4.96057 0.626666 5
      vertex 5 0 0
      vertex 5 0 5
    endloop
  endfacet
  facet normal 0.998026 -0.0627961 -4.46243e-19
    outer loop
      vertex -5 0 5
      vertex -4.96057 0.626666 0
      vertex -4.96057 0.626666 5
    endloop
  endfacet
  facet normal 0.998026 -0.0627961 -4.46243e-19
    outer loop
      vertex -4.96057 0.626666 0
      vertex -5 0 5
      vertex -5 0 0
    endloop
  endfacet
  facet normal 0 -1 0
    outer loop
      vertex -0.313952 4.99013 0
      vertex 0.313952 4.99013 5
      vertex -0.313952 4.99013 5
    endloop
  endfacet
  facet normal 0 -1 -0
    outer loop
      vertex 0.313952 4.99013 5
      vertex -0.313952 4.99013 0
      vertex 0.313952 4.99013 0
    endloop
  endfacet
  facet normal 0 1 -0
    outer loop
      vertex 0.313952 -4.99013 0
      vertex -0.313952 -4.99013 5
      vertex 0.313952 -4.99013 5
    endloop
  endfacet
  facet normal 0 1 0
    outer loop
      vertex -0.313952 -4.99013 5
      vertex 0.313952 -4.99013 0
      vertex -0.313952 -4.99013 0
    endloop
  endfacet
  facet normal -0.684549 -0.728967 0
    outer loop
      vertex 3.18712 3.85257 0
      vertex 3.64484 3.42274 5
      vertex 3.18712 3.85257 5
    endloop
  endfacet
  facet normal -0.684549 -0.728967 -0
    outer loop
      vertex 3.64484 3.42274 5
      vertex 3.18712 3.85257 0
      vertex 3.64484 3.42274 0
    endloop
  endfacet
  facet normal 0.684549 -0.728967 0
    outer loop
      vertex -3.64484 3.42274 0
      vertex -3.18712 3.85257 5
      vertex -3.64484 3.42274 5
    endloop
  endfacet
  facet normal 0.684549 -0.728967 0
    outer loop
      vertex -3.18712 3.85257 5
      vertex -3.64484 3.42274 0
      vertex -3.18712 3.85257 0
    endloop
  endfacet
  facet normal 0.368124 -0.929777 0
    outer loop
      vertex -2.1289 4.52413 0
      vertex -1.54508 4.75528 5
      vertex -2.1289 4.52413 5
    endloop
  endfacet
  facet normal 0.368124 -0.929777 0
    outer loop
      vertex -1.54508 4.75528 5
      vertex -2.1289 4.52413 0
      vertex -1.54508 4.75528 0
    endloop
  endfacet
  facet normal -0.904828 -0.425778 -2.8922e-18
    outer loop
      vertex 4.64888 1.84062 0
      vertex 4.38153 2.40877 5
      vertex 4.38153 2.40877 0
    endloop
  endfacet
  facet normal -0.904828 -0.425778 -2.8922e-18
    outer loop
      vertex 4.38153 2.40877 5
      vertex 4.64888 1.84062 0
      vertex 4.64888 1.84062 5
    endloop
  endfacet
  facet normal -0.98229 -0.187369 6.75571e-19
    outer loop
      vertex 4.96057 0.626666 0
      vertex 4.84292 1.24345 5
      vertex 4.84292 1.24345 0
    endloop
  endfacet
  facet normal -0.98229 -0.187369 6.75571e-19
    outer loop
      vertex 4.84292 1.24345 5
      vertex 4.96057 0.626666 0
      vertex 4.96057 0.626666 5
    endloop
  endfacet
  facet normal -0.368124 -0.929777 0
    outer loop
      vertex 1.54508 4.75528 0
      vertex 2.1289 4.52413 5
      vertex 1.54508 4.75528 5
    endloop
  endfacet
  facet normal -0.368124 -0.929777 -0
    outer loop
      vertex 2.1289 4.52413 5
      vertex 1.54508 4.75528 0
      vertex 2.1289 4.52413 0
    endloop
  endfacet
  facet normal -0.248701 -0.96858 0
    outer loop
      vertex 0.936906 4.91144 0
      vertex 1.54508 4.75528 5
      vertex 0.936906 4.91144 5
    endloop
  endfacet
  facet normal -0.248701 -0.96858 -0
    outer loop
      vertex 1.54508 4.75528 5
      vertex 0.936906 4.91144 0
      vertex 1.54508 4.75528 0
    endloop
  endfacet
  facet normal -0.481752 -0.876308 0
    outer loop
      vertex 2.1289 4.52413 0
      vertex 2.67913 4.22164 5
      vertex 2.1289 4.52413 5
    endloop
  endfacet
  facet normal -0.481752 -0.876308 -0
    outer loop
      vertex 2.67913 4.22164 5
      vertex 2.1289 4.52413 0
      vertex 2.67913 4.22164 0
    endloop
  endfacet
  facet normal 0.844328 -0.535827 -3.53971e-18
    outer loop
      vertex -4.38153 2.40877 5
      vertex -4.04508 2.93893 0
      vertex -4.04508 2.93893 5
    endloop
  endfacet
  facet normal 0.844328 -0.535827 -3.53971e-18
    outer loop
      vertex -4.04508 2.93893 0
      vertex -4.38153 2.40877 5
      vertex -4.38153 2.40877 0
    endloop
  endfacet
  facet normal 0.770515 -0.637422 2.7843e-18
    outer loop
      vertex -4.04508 2.93893 5
      vertex -3.64484 3.42274 0
      vertex -3.64484 3.42274 5
    endloop
  endfacet
  facet normal 0.770515 -0.637422 2.7843e-18
    outer loop
      vertex -3.64484 3.42274 0
      vertex -4.04508 2.93893 5
      vertex -4.04508 2.93893 0
    endloop
  endfacet
  facet normal 0.951053 -0.309028 1.90585e-18
    outer loop
      vertex -4.84292 1.24345 5
      vertex -4.64888 1.84062 0
      vertex -4.64888 1.84062 5
    endloop
  endfacet
  facet normal 0.951053 -0.309028 1.90585e-18
    outer loop
      vertex -4.64888 1.84062 0
      vertex -4.84292 1.24345 5
      vertex -4.84292 1.24345 0
    endloop
  endfacet
  facet normal 0.587779 -0.809022 0
    outer loop
      vertex -3.18712 3.85257 0
      vertex -2.67913 4.22164 5
      vertex -3.18712 3.85257 5
    endloop
  endfacet
  facet normal 0.587779 -0.809022 0
    outer loop
      vertex -2.67913 4.22164 5
      vertex -3.18712 3.85257 0
      vertex -2.67913 4.22164 0
    endloop
  endfacet
  facet normal 0.248701 -0.96858 0
    outer loop
      vertex -1.54508 4.75528 0
      vertex -0.936906 4.91144 5
      vertex -1.54508 4.75528 5
    endloop
  endfacet
  facet normal 0.248701 -0.96858 0
    outer loop
      vertex -0.936906 4.91144 5
      vertex -1.54508 4.75528 0
      vertex -0.936906 4.91144 0
    endloop
  endfacet
  facet normal -0.951053 0.309028 1.90585e-18
    outer loop
      vertex 4.64888 -1.84062 0
      vertex 4.84292 -1.24345 5
      vertex 4.84292 -1.24345 0
    endloop
  endfacet
  facet normal -0.951053 0.309028 1.90585e-18
    outer loop
      vertex 4.84292 -1.24345 5
      vertex 4.64888 -1.84062 0
      vertex 4.64888 -1.84062 5
    endloop
  endfacet
  facet normal -0.125322 0.992116 0
    outer loop
      vertex 0.936906 -4.91144 0
      vertex 0.313952 -4.99013 5
      vertex 0.936906 -4.91144 5
    endloop
  endfacet
  facet normal -0.125322 0.992116 0
    outer loop
      vertex 0.313952 -4.99013 5
      vertex 0.936906 -4.91144 0
      vertex 0.313952 -4.99013 0
    endloop
  endfacet
  facet normal -0.951053 -0.309028 -1.90585e-18
    outer loop
      vertex 4.84292 1.24345 0
      vertex 4.64888 1.84062 5
      vertex 4.64888 1.84062 0
    endloop
  endfacet
  facet normal -0.951053 -0.309028 -1.90585e-18
    outer loop
      vertex 4.64888 1.84062 5
      vertex 4.84292 1.24345 0
      vertex 4.84292 1.24345 5
    endloop
  endfacet
  facet normal -0.770515 -0.637422 -2.7843e-18
    outer loop
      vertex 4.04508 2.93893 0
      vertex 3.64484 3.42274 5
      vertex 3.64484 3.42274 0
    endloop
  endfacet
  facet normal -0.770515 -0.637422 -2.7843e-18
    outer loop
      vertex 3.64484 3.42274 5
      vertex 4.04508 2.93893 0
      vertex 4.04508 2.93893 5
    endloop
  endfacet
  facet normal -0.844328 -0.535827 3.53971e-18
    outer loop
      vertex 4.38153 2.40877 0
      vertex 4.04508 2.93893 5
      vertex 4.04508 2.93893 0
    endloop
  endfacet
  facet normal -0.844328 -0.535827 3.53971e-18
    outer loop
      vertex 4.04508 2.93893 5
      vertex 4.38153 2.40877 0
      vertex 4.38153 2.40877 5
    endloop
  endfacet
  facet normal -0.125322 -0.992116 0
    outer loop
      vertex 0.313952 4.99013 0
      vertex 0.936906 4.91144 5
      vertex 0.313952 4.99013 5
    endloop
  endfacet
  facet normal -0.125322 -0.992116 -0
    outer loop
      vertex 0.936906 4.91144 5
      vertex 0.313952 4.99013 0
      vertex 0.936906 4.91144 0
    endloop
  endfacet
  facet normal -0.587779 -0.809022 0
    outer loop
      vertex 2.67913 4.22164 0
      vertex 3.18712 3.85257 5
      vertex 2.67913 4.22164 5
    endloop
  endfacet
  facet normal -0.587779 -0.809022 -0
    outer loop
      vertex 3.18712 3.85257 5
      vertex 2.67913 4.22164 0
      vertex 3.18712 3.85257 0
    endloop
  endfacet
  facet normal 0.904828 -0.425778 2.8922e-18
    outer loop
      vertex -4.64888 1.84062 5
      vertex -4.38153 2.40877 0
      vertex -4.38153 2.40877 5
    endloop
  endfacet
  facet normal 0.904828 -0.425778 2.8922e-18
    outer loop
      vertex -4.38153 2.40877 0
      vertex -4.64888 1.84062 5
      vertex -4.64888 1.84062 0
    endloop
  endfacet
  facet normal 0.98229 -0.187369 -6.75571e-19
    outer loop
      vertex -4.96057 0.626666 5
      vertex -4.84292 1.24345 0
      vertex -4.84292 1.24345 5
    endloop
  endfacet
  facet normal 0.98229 -0.187369 -6.75571e-19
    outer loop
      vertex -4.84292 1.24345 0
      vertex -4.96057 0.626666 5
      vertex -4.96057 0.626666 0
    endloop
  endfacet
  facet normal 0.481752 -0.876308 0
    outer loop
      vertex -2.67913 4.22164 0
      vertex -2.1289 4.52413 5
      vertex -2.67913 4.22164 5
    endloop
  endfacet
  facet normal 0.481752 -0.876308 0
    outer loop
      vertex -2.1289 4.52413 5
      vertex -2.67913 4.22164 0
      vertex -2.1289 4.52413 0
    endloop
  endfacet
  facet normal 0.125322 -0.992116 0
    outer loop
      vertex -0.936906 4.91144 0
      vertex -0.313952 4.99013 5
      vertex -0.936906 4.91144 5
    endloop
  endfacet
  facet normal 0.125322 -0.992116 0
    outer loop
      vertex -0.313952 4.99013 5
      vertex -0.936906 4.91144 0
      vertex -0.313952 4.99013 0
    endloop
  endfacet
  facet normal -0.98229 0.187369 -6.75571e-19
    outer loop
      vertex 4.84292 -1.24345 0
      vertex 4.96057 -0.626666 5
      vertex 4.96057 -0.626666 0
    endloop
  endfacet
  facet normal -0.98229 0.187369 -6.75571e-19
    outer loop
      vertex 4.96057 -0.626666 5
      vertex 4.84292 -1.24345 0
      vertex 4.84292 -1.24345 5
    endloop
  endfacet
  facet normal 0.368124 0.929777 -0
    outer loop
      vertex -1.54508 -4.75528 0
      vertex -2.1289 -4.52413 5
      vertex -1.54508 -4.75528 5
    endloop
  endfacet
  facet normal 0.368124 0.929777 0
    outer loop
      vertex -2.1289 -4.52413 5
      vertex -1.54508 -4.75528 0
      vertex -2.1289 -4.52413 0
    endloop
  endfacet
  facet normal -0.368124 0.929777 0
    outer loop
      vertex 2.1289 -4.52413 0
      vertex 1.54508 -4.75528 5
      vertex 2.1289 -4.52413 5
    endloop
  endfacet
  facet normal -0.368124 0.929777 0
    outer loop
      vertex 1.54508 -4.75528 5
      vertex 2.1289 -4.52413 0
      vertex 1.54508 -4.75528 0
    endloop
  endfacet
  facet normal -0.770515 0.637422 2.7843e-18
    outer loop
      vertex 3.64484 -3.42274 0
      vertex 4.04508 -2.93893 5
      vertex 4.04508 -2.93893 0
    endloop
  endfacet
  facet normal -0.770515 0.637422 2.7843e-18
    outer loop
      vertex 4.04508 -2.93893 5
      vertex 3.64484 -3.42274 0
      vertex 3.64484 -3.42274 5
    endloop
  endfacet
  facet normal -0.904828 0.425778 2.8922e-18
    outer loop
      vertex 4.38153 -2.40877 0
      vertex 4.64888 -1.84062 5
      vertex 4.64888 -1.84062 0
    endloop
  endfacet
  facet normal -0.904828 0.425778 2.8922e-18
    outer loop
      vertex 4.64888 -1.84062 5
      vertex 4.38153 -2.40877 0
      vertex 4.38153 -2.40877 5
    endloop
  endfacet
  facet normal -0.998026 0.0627961 -4.46243e-19
    outer loop
      vertex 4.96057 -0.626666 0
      vertex 5 0 5
      vertex 5 0 0
    endloop
  endfacet
  facet normal -0.998026 0.0627961 -4.46243e-19
    outer loop
      vertex 5 0 5
      vertex 4.96057 -0.626666 0
      vertex 4.96057 -0.626666 5
    endloop
  endfacet
  facet normal 0.248701 0.96858 -0
    outer loop
      vertex -0.936906 -4.91144 0
      vertex -1.54508 -4.75528 5
      vertex -0.936906 -4.91144 5
    endloop
  endfacet
  facet normal 0.248701 0.96858 0
    outer loop
      vertex -1.54508 -4.75528 5
      vertex -0.936906 -4.91144 0
      vertex -1.54508 -4.75528 0
    endloop
  endfacet
  facet normal 0.770515 0.637422 -2.7843e-18
    outer loop
      vertex -3.64484 -3.42274 5
      vertex -4.04508 -2.93893 0
      vertex -4.04508 -2.93893 5
    endloop
  endfacet
  facet normal 0.770515 0.637422 -2.7843e-18
    outer loop
      vertex -4.04508 -2.93893 0
      vertex -3.64484 -3.42274 5
      vertex -3.64484 -3.42274 0
    endloop
  endfacet
  facet normal 0.904828 0.425778 -2.8922e-18
    outer loop
      vertex -4.38153 -2.40877 5
      vertex -4.64888 -1.84062 0
      vertex -4.64888 -1.84062 5
    endloop
  endfacet
  facet normal 0.904828 0.425778 -2.8922e-18
    outer loop
      vertex -4.64888 -1.84062 0
      vertex -4.38153 -2.40877 5
      vertex -4.38153 -2.40877 0
    endloop
  endfacet
  facet normal 0.951053 0.309028 -1.90585e-18
    outer loop
      vertex -4.64888 -1.84062 5
      vertex -4.84292 -1.24345 0
      vertex -4.84292 -1.24345 5
    endloop
  endfacet
  facet normal 0.951053 0.309028 -1.90585e-18
    outer loop
      vertex -4.84292 -1.24345 0
      vertex -4.64888 -1.84062 5
      vertex -4.64888 -1.84062 0
    endloop
  endfacet
  facet normal -0.684549 0.728967 0
    outer loop
      vertex 3.64484 -3.42274 0
      vertex 3.18712 -3.85257 5
      vertex 3.64484 -3.42274 5
    endloop
  endfacet
  facet normal -0.684549 0.728967 0
    outer loop
      vertex 3.18712 -3.85257 5
      vertex 3.64484 -3.42274 0
      vertex 3.18712 -3.85257 0
    endloop
  endfacet
  facet normal -0.481752 0.876308 0
    outer loop
      vertex 2.67913 -4.22164 0
      vertex 2.1289 -4.52413 5
      vertex 2.67913 -4.22164 5
    endloop
  endfacet
  facet normal -0.481752 0.876308 0
    outer loop
      vertex 2.1289 -4.52413 5
      vertex 2.67913 -4.22164 0
      vertex 2.1289 -4.52413 0
    endloop
  endfacet
  facet normal -0.248701 0.96858 0
    outer loop
      vertex 1.54508 -4.75528 0
      vertex 0.936906 -4.91144 5
      vertex 1.54508 -4.75528 5
    endloop
  endfacet
  facet normal -0.248701 0.96858 0
    outer loop
      vertex 0.936906 -4.91144 5
      vertex 1.54508 -4.75528 0
      vertex 0.936906 -4.91144 0
    endloop
  endfacet
  facet normal -0.844328 0.535827 -3.53971e-18
    outer loop
      vertex 4.04508 -2.93893 0
      vertex 4.38153 -2.40877 5
      vertex 4.38153 -2.40877 0
    endloop
  endfacet
  facet normal -0.844328 0.535827 -3.53971e-18
    outer loop
      vertex 4.38153 -2.40877 5
      vertex 4.04508 -2.93893 0
      vertex 4.04508 -2.93893 5
    endloop
  endfacet
  facet normal 0.125322 0.992116 -0
    outer loop
      vertex -0.313952 -4.99013 0
      vertex -0.936906 -4.91144 5
      vertex -0.313952 -4.99013 5
    endloop
  endfacet
  facet normal 0.125322 0.992116 0
    outer loop
      vertex -0.936906 -4.91144 5
      vertex -0.313952 -4.99013 0
      vertex -0.936906 -4.91144 0
    endloop
  endfacet
  facet normal 0.684549 0.728967 -0
    outer loop
      vertex -3.18712 -3.85257 0
      vertex -3.64484 -3.42274 5
      vertex -3.18712 -3.85257 5
    endloop
  endfacet
  facet normal 0.684549 0.728967 0
    outer loop
      vertex -3.64484 -3.42274 5
      vertex -3.18712 -3.85257 0
      vertex -3.64484 -3.42274 0
    endloop
  endfacet
  facet normal 0.844328 0.535827 3.53971e-18
    outer loop
      vertex -4.04508 -2.93893 5
      vertex -4.38153 -2.40877 0
      vertex -4.38153 -2.40877 5
    endloop
  endfacet
  facet normal 0.844328 0.535827 3.53971e-18
    outer loop
      vertex -4.38153 -2.40877 0
      vertex -4.04508 -2.93893 5
      vertex -4.04508 -2.93893 0
    endloop
  endfacet
  facet normal 0.98229 0.187369 6.75571e-19
    outer loop
      vertex -4.84292 -1.24345 5
      vertex -4.96057 -0.626666 0
      vertex -4.96057 -0.626666 5
    endloop
  endfacet
  facet normal 0.98229 0.187369 6.75571e-19
    outer loop
      vertex -4.96057 -0.626666 0
      vertex -4.84292 -1.24345 5
      vertex -4.84292 -1.24345 0
    endloop
  endfacet
  facet normal 0.998026 0.0627961 4.46243e-19
    outer loop
      vertex -4.96057 -0.626666 5
      vertex -5 0 0
      vertex -5 0 5
    endloop
  endfacet
  facet normal 0.998026 0.0627961 4.46243e-19
    outer loop
      vertex -5 0 0
      vertex -4.96057 -0.626666 5
      vertex -4.96057 -0.626666 0
    endloop
  endfacet
  facet normal -0.587779 0.809022 0
    outer loop
      vertex 3.18712 -3.85257 0
      vertex 2.67913 -4.22164 5
      vertex 3.18712 -3.85257 5
    endloop
  endfacet
  facet normal -0.587779 0.809022 0
    outer loop
      vertex 2.67913 -4.22164 5
      vertex 3.18712 -3.85257 0
      vertex 2.67913 -4.22164 0
    endloop
  endfacet
  facet normal 0.481752 0.876308 -0
    outer loop
      vertex -2.1289 -4.52413 0
      vertex -2.67913 -4.22164 5
      vertex -2.1289 -4.52413 5
    endloop
  endfacet
  facet normal 0.481752 0.876308 0
    outer loop
      vertex -2.67913 -4.22164 5
      vertex -2.1289 -4.52413 0
      vertex -2.67913 -4.22164 0
    endloop
  endfacet
  facet normal 0.587779 0.809022 -0
    outer loop
      vertex -2.67913 -4.22164 0
      vertex -3.18712 -3.85257 5
      vertex -2.67913 -4.22164 5
    endloop
  endfacet
  facet normal 0.587779 0.809022 0
    outer loop
      vertex -3.18712 -3.85257 5
      vertex -2.67913 -4.22164 0
      vertex -3.18712 -3.85257 0
    endloop
  endfacet
endsolid OpenSCAD_Model
