<?xml version="1.0" standalone="no"?>
<!DOCTYPE svg PUBLIC "-//W3C//DTD SVG 1.1//EN" "http://www.w3.org/Graphics/SVG/1.1/DTD/svg11.dtd">
<svg width="60mm" height="55mm" viewBox="-30 -75 60 55" xmlns="http://www.w3.org/2000/svg" version="1.1">
<title>OpenSCAD Model</title>
<path d="
M 25.9369,-51.8386 L 26.5451,-51.9947 L 27.1289,-52.2259 L 27.6791,-52.5284 L 28.1871,-52.8974 L 28.6448,-53.3273
 L 29.0451,-53.8111 L 29.3815,-54.3412 L 29.6489,-54.9094 L 29.8429,-55.5066 L 29.9606,-56.1233 L 30,-56.75
 L 30,-69.25 L 29.9606,-69.8767 L 29.8429,-70.4934 L 29.6489,-71.0906 L 29.3815,-71.6588 L 29.0451,-72.1889
 L 28.6448,-72.6727 L 28.1871,-73.1026 L 27.6791,-73.4716 L 27.1289,-73.7741 L 26.5451,-74.0053 L 25.9369,-74.1614
 L 25.3139,-74.2401 L -25.3139,-74.2401 L -25.9369,-74.1614 L -26.5451,-74.0053 L -27.1289,-73.7741 L -27.6791,-73.4716
 L -28.1871,-73.1026 L -28.6448,-72.6727 L -29.0451,-72.1889 L -29.3815,-71.6588 L -29.6489,-71.0906 L -29.8429,-70.4934
 L -29.9606,-69.8767 L -30,-69.25 L -30,-56.75 L -29.9606,-56.1233 L -29.8429,-55.5066 L -29.6489,-54.9094
 L -29.3815,-54.3412 L -29.0451,-53.8111 L -28.6448,-53.3273 L -28.1871,-52.8974 L -27.6791,-52.5284 L -27.1289,-52.2259
 L -26.5451,-51.9947 L -25.9369,-51.8386 L -25.3139,-51.7599 L 25.3139,-51.7599 z
M -24.993,-53.1382 L -25.4751,-53.1991 L -25.9457,-53.3199 L -26.3975,-53.4988 L -26.8234,-53.7329 L -27.2165,-54.0185
 L -27.5707,-54.3512 L -27.8805,-54.7256 L -28.1408,-55.1359 L -28.3477,-55.5756 L -28.4979,-56.0377 L -28.589,-56.515
 L -28.6195,-57 L -28.6195,-69 L -28.589,-69.485 L -28.4979,-69.9623 L -28.3477,-70.4244 L -28.1408,-70.8641
 L -27.8805,-71.2744 L -27.5707,-71.6488 L -27.2165,-71.9815 L -26.8234,-72.2671 L -26.3975,-72.5012 L -25.9457,-72.6801
 L -25.4751,-72.8009 L -24.993,-72.8618 L 24.993,-72.8618 L 25.4751,-72.8009 L 25.9457,-72.6801 L 26.3975,-72.5012
 L 26.8234,-72.2671 L 27.2165,-71.9815 L 27.5707,-71.6488 L 27.8805,-71.2744 L 28.1408,-70.8641 L 28.3477,-70.4244
 L 28.4979,-69.9623 L 28.589,-69.485 L 28.6195,-69 L 28.6195,-57 L 28.589,-56.515 L 28.4979,-56.0377
 L 28.3477,-55.5756 L 28.1408,-55.1359 L 27.8805,-54.7256 L 27.5707,-54.3512 L 27.2165,-54.0185 L 26.8234,-53.7329
 L 26.3975,-53.4988 L 25.9457,-53.3199 L 25.4751,-53.1991 L 24.993,-53.1382 z
M 25.9369,-20.3386 L 26.5451,-20.4947 L 27.1289,-20.7259 L 27.6791,-21.0284 L 28.1871,-21.3974 L 28.6448,-21.8273
 L 29.0451,-22.3111 L 29.3815,-22.8412 L 29.6489,-23.4094 L 29.8429,-24.0066 L 29.9606,-24.6233 L 30,-25.25
 L 30,-37.75 L 29.9606,-38.3767 L 29.8429,-38.9934 L 29.6489,-39.5906 L 29.3815,-40.1588 L 29.0451,-40.6889
 L 28.6448,-41.1727 L 28.1871,-41.6026 L 27.6791,-41.9716 L 27.1289,-42.2741 L 26.5451,-42.5053 L 25.9369,-42.6614
 L 25.3139,-42.7401 L -25.3139,-42.7401 L -25.9369,-42.6614 L -26.5451,-42.5053 L -27.1289,-42.2741 L -27.6791,-41.9716
 L -28.1871,-41.6026 L -28.6448,-41.1727 L -29.0451,-40.6889 L -29.3815,-40.1588 L -29.6489,-39.5906 L -29.8429,-38.9934
 L -29.9606,-38.3767 L -30,-37.75 L -30,-25.25 L -29.9606,-24.6233 L -29.8429,-24.0066 L -29.6489,-23.4094
 L -29.3815,-22.8412 L -29.0451,-22.3111 L -28.6448,-21.8273 L -28.1871,-21.3974 L -27.6791,-21.0284 L -27.1289,-20.7259
 L -26.5451,-20.4947 L -25.9369,-20.3386 L -25.3139,-20.2599 L 25.3139,-20.2599 z
M 22.387,-33.4536 L 22.1627,-33.4819 L 21.9438,-33.5381 L 21.7336,-33.6213 L 21.5355,-33.7302 L 21.3526,-33.8631
 L 21.1879,-34.0178 L 21.0438,-34.192 L 20.9226,-34.3828 L 20.8264,-34.5874 L 20.7565,-34.8024 L 20.7142,-35.0244
 L 20.7,-35.25 L 20.7142,-35.4756 L 20.7565,-35.6976 L 20.8264,-35.9126 L 20.9226,-36.1171 L 21.0438,-36.308
 L 21.1879,-36.4822 L 21.3526,-36.6369 L 21.5355,-36.7698 L 21.7336,-36.8787 L 21.9438,-36.9619 L 22.1627,-37.0181
 L 22.387,-37.0464 L 22.613,-37.0464 L 22.8373,-37.0181 L 23.0562,-36.9619 L 23.2664,-36.8787 L 23.4645,-36.7698
 L 23.6474,-36.6369 L 23.8121,-36.4822 L 23.9562,-36.308 L 24.0773,-36.1171 L 24.1736,-35.9126 L 24.2434,-35.6976
 L 24.2858,-35.4756 L 24.3,-35.25 L 24.2858,-35.0244 L 24.2434,-34.8024 L 24.1736,-34.5874 L 24.0773,-34.3828
 L 23.9562,-34.192 L 23.8121,-34.0178 L 23.6474,-33.8631 L 23.4645,-33.7302 L 23.2664,-33.6213 L 23.0562,-33.5381
 L 22.8373,-33.4819 L 22.613,-33.4536 z
M -22.613,-33.4536 L -22.8373,-33.4819 L -23.0562,-33.5381 L -23.2664,-33.6213 L -23.4645,-33.7302 L -23.6474,-33.8631
 L -23.8121,-34.0178 L -23.9562,-34.192 L -24.0773,-34.3828 L -24.1736,-34.5874 L -24.2434,-34.8024 L -24.2858,-35.0244
 L -24.3,-35.25 L -24.2858,-35.4756 L -24.2434,-35.6976 L -24.1736,-35.9126 L -24.0773,-36.1171 L -23.9562,-36.308
 L -23.8121,-36.4822 L -23.6474,-36.6369 L -23.4645,-36.7698 L -23.2664,-36.8787 L -23.0562,-36.9619 L -22.8373,-37.0181
 L -22.613,-37.0464 L -22.387,-37.0464 L -22.1627,-37.0181 L -21.9438,-36.9619 L -21.7336,-36.8787 L -21.5355,-36.7698
 L -21.3526,-36.6369 L -21.1879,-36.4822 L -21.0438,-36.308 L -20.9226,-36.1171 L -20.8264,-35.9126 L -20.7565,-35.6976
 L -20.7142,-35.4756 L -20.7,-35.25 L -20.7142,-35.0244 L -20.7565,-34.8024 L -20.8264,-34.5874 L -20.9226,-34.3828
 L -21.0438,-34.192 L -21.1879,-34.0178 L -21.3526,-33.8631 L -21.5355,-33.7302 L -21.7336,-33.6213 L -21.9438,-33.5381
 L -22.1627,-33.4819 L -22.387,-33.4536 z
M 22.387,-25.9536 L 22.1627,-25.9819 L 21.9438,-26.0381 L 21.7336,-26.1213 L 21.5355,-26.2302 L 21.3526,-26.3631
 L 21.1879,-26.5178 L 21.0438,-26.692 L 20.9226,-26.8829 L 20.8264,-27.0874 L 20.7565,-27.3024 L 20.7142,-27.5244
 L 20.7,-27.75 L 20.7142,-27.9756 L 20.7565,-28.1976 L 20.8264,-28.4126 L 20.9226,-28.6172 L 21.0438,-28.808
 L 21.1879,-28.9822 L 21.3526,-29.1369 L 21.5355,-29.2698 L 21.7336,-29.3787 L 21.9438,-29.4619 L 22.1627,-29.5181
 L 22.387,-29.5464 L 22.613,-29.5464 L 22.8373,-29.5181 L 23.0562,-29.4619 L 23.2664,-29.3787 L 23.4645,-29.2698
 L 23.6474,-29.1369 L 23.8121,-28.9822 L 23.9562,-28.808 L 24.0773,-28.6172 L 24.1736,-28.4126 L 24.2434,-28.1976
 L 24.2858,-27.9756 L 24.3,-27.75 L 24.2858,-27.5244 L 24.2434,-27.3024 L 24.1736,-27.0874 L 24.0773,-26.8829
 L 23.9562,-26.692 L 23.8121,-26.5178 L 23.6474,-26.3631 L 23.4645,-26.2302 L 23.2664,-26.1213 L 23.0562,-26.0381
 L 22.8373,-25.9819 L 22.613,-25.9536 z
M -22.613,-25.9536 L -22.8373,-25.9819 L -23.0562,-26.0381 L -23.2664,-26.1213 L -23.4645,-26.2302 L -23.6474,-26.3631
 L -23.8121,-26.5178 L -23.9562,-26.692 L -24.0773,-26.8829 L -24.1736,-27.0874 L -24.2434,-27.3024 L -24.2858,-27.5244
 L -24.3,-27.75 L -24.2858,-27.9756 L -24.2434,-28.1976 L -24.1736,-28.4126 L -24.0773,-28.6172 L -23.9562,-28.808
 L -23.8121,-28.9822 L -23.6474,-29.1369 L -23.4645,-29.2698 L -23.2664,-29.3787 L -23.0562,-29.4619 L -22.8373,-29.5181
 L -22.613,-29.5464 L -22.387,-29.5464 L -22.1627,-29.5181 L -21.9438,-29.4619 L -21.7336,-29.3787 L -21.5355,-29.2698
 L -21.3526,-29.1369 L -21.1879,-28.9822 L -21.0438,-28.808 L -20.9226,-28.6172 L -20.8264,-28.4126 L -20.7565,-28.1976
 L -20.7142,-27.9756 L -20.7,-27.75 L -20.7142,-27.5244 L -20.7565,-27.3024 L -20.8264,-27.0874 L -20.9226,-26.8829
 L -21.0438,-26.692 L -21.1879,-26.5178 L -21.3526,-26.3631 L -21.5355,-26.2302 L -21.7336,-26.1213 L -21.9438,-26.0381
 L -22.1627,-25.9819 L -22.387,-25.9536 z
" stroke="black" fill="lightgray" stroke-width="0.5"/>
</svg>
