  0
SECTION
  2
BLOCKS
  0
ENDSEC
  0
SECTION
  2
ENTITIES
  0
LINE
  8
0
 10
10.9369
 20
2322.09
 11
11.5451
 21
2322.24
  0
LINE
  8
0
 10
11.5451
 20
2322.24
 11
12.1289
 21
2322.48
  0
LINE
  8
0
 10
12.1289
 20
2322.48
 11
12.6791
 21
2322.78
  0
LINE
  8
0
 10
12.6791
 20
2322.78
 11
13.1871
 21
2323.15
  0
LINE
  8
0
 10
13.1871
 20
2323.15
 11
13.6448
 21
2323.58
  0
LINE
  8
0
 10
13.6448
 20
2323.58
 11
14.0451
 21
2324.06
  0
LINE
  8
0
 10
14.0451
 20
2324.06
 11
14.3815
 21
2324.59
  0
LINE
  8
0
 10
14.3815
 20
2324.59
 11
14.6489
 21
2325.16
  0
LINE
  8
0
 10
14.6489
 20
2325.16
 11
14.8429
 21
2325.76
  0
LINE
  8
0
 10
14.8429
 20
2325.76
 11
14.9606
 21
2326.37
  0
LINE
  8
0
 10
14.9606
 20
2326.37
 11
15
 21
2327
  0
LINE
  8
0
 10
15
 20
2327
 11
15
 21
2617
  0
LINE
  8
0
 10
15
 20
2617
 11
14.9606
 21
2617.63
  0
LINE
  8
0
 10
14.9606
 20
2617.63
 11
14.8429
 21
2618.24
  0
LINE
  8
0
 10
14.8429
 20
2618.24
 11
14.6489
 21
2618.84
  0
LINE
  8
0
 10
14.6489
 20
2618.84
 11
14.3815
 21
2619.41
  0
LINE
  8
0
 10
14.3815
 20
2619.41
 11
14.0451
 21
2619.94
  0
LINE
  8
0
 10
14.0451
 20
2619.94
 11
13.6448
 21
2620.42
  0
LINE
  8
0
 10
13.6448
 20
2620.42
 11
13.1871
 21
2620.85
  0
LINE
  8
0
 10
13.1871
 20
2620.85
 11
12.6791
 21
2621.22
  0
LINE
  8
0
 10
12.6791
 20
2621.22
 11
12.1289
 21
2621.52
  0
LINE
  8
0
 10
12.1289
 20
2621.52
 11
11.5451
 21
2621.76
  0
LINE
  8
0
 10
11.5451
 20
2621.76
 11
10.9369
 21
2621.91
  0
LINE
  8
0
 10
10.9369
 20
2621.91
 11
10.3139
 21
2621.99
  0
LINE
  8
0
 10
10.3139
 20
2621.99
 11
-10.3139
 21
2621.99
  0
LINE
  8
0
 10
-10.3139
 20
2621.99
 11
-10.9369
 21
2621.91
  0
LINE
  8
0
 10
-10.9369
 20
2621.91
 11
-11.5451
 21
2621.76
  0
LINE
  8
0
 10
-11.5451
 20
2621.76
 11
-12.1289
 21
2621.52
  0
LINE
  8
0
 10
-12.1289
 20
2621.52
 11
-12.6791
 21
2621.22
  0
LINE
  8
0
 10
-12.6791
 20
2621.22
 11
-13.1871
 21
2620.85
  0
LINE
  8
0
 10
-13.1871
 20
2620.85
 11
-13.6448
 21
2620.42
  0
LINE
  8
0
 10
-13.6448
 20
2620.42
 11
-14.0451
 21
2619.94
  0
LINE
  8
0
 10
-14.0451
 20
2619.94
 11
-14.3815
 21
2619.41
  0
LINE
  8
0
 10
-14.3815
 20
2619.41
 11
-14.6489
 21
2618.84
  0
LINE
  8
0
 10
-14.6489
 20
2618.84
 11
-14.8429
 21
2618.24
  0
LINE
  8
0
 10
-14.8429
 20
2618.24
 11
-14.9606
 21
2617.63
  0
LINE
  8
0
 10
-14.9606
 20
2617.63
 11
-15
 21
2617
  0
LINE
  8
0
 10
-15
 20
2617
 11
-15
 21
2327
  0
LINE
  8
0
 10
-15
 20
2327
 11
-14.9606
 21
2326.37
  0
LINE
  8
0
 10
-14.9606
 20
2326.37
 11
-14.8429
 21
2325.76
  0
LINE
  8
0
 10
-14.8429
 20
2325.76
 11
-14.6489
 21
2325.16
  0
LINE
  8
0
 10
-14.6489
 20
2325.16
 11
-14.3815
 21
2324.59
  0
LINE
  8
0
 10
-14.3815
 20
2324.59
 11
-14.0451
 21
2324.06
  0
LINE
  8
0
 10
-14.0451
 20
2324.06
 11
-13.6448
 21
2323.58
  0
LINE
  8
0
 10
-13.6448
 20
2323.58
 11
-13.1871
 21
2323.15
  0
LINE
  8
0
 10
-13.1871
 20
2323.15
 11
-12.6791
 21
2322.78
  0
LINE
  8
0
 10
-12.6791
 20
2322.78
 11
-12.1289
 21
2322.48
  0
LINE
  8
0
 10
-12.1289
 20
2322.48
 11
-11.5451
 21
2322.24
  0
LINE
  8
0
 10
-11.5451
 20
2322.24
 11
-10.9369
 21
2322.09
  0
LINE
  8
0
 10
-10.9369
 20
2322.09
 11
-10.3139
 21
2322.01
  0
LINE
  8
0
 10
-10.3139
 20
2322.01
 11
10.3139
 21
2322.01
  0
LINE
  8
0
 10
10.3139
 20
2322.01
 11
10.9369
 21
2322.09
  0
LINE
  8
0
 10
-9.75116
 20
2323.51
 11
-10.2495
 21
2323.57
  0
LINE
  8
0
 10
-10.2495
 20
2323.57
 11
-10.7361
 21
2323.7
  0
LINE
  8
0
 10
-10.7361
 20
2323.7
 11
-11.2031
 21
2323.88
  0
LINE
  8
0
 10
-11.2031
 20
2323.88
 11
-11.6433
 21
2324.12
  0
LINE
  8
0
 10
-11.6433
 20
2324.12
 11
-12.0497
 21
2324.42
  0
LINE
  8
0
 10
-12.0497
 20
2324.42
 11
-12.4159
 21
2324.76
  0
LINE
  8
0
 10
-12.4159
 20
2324.76
 11
-12.7361
 21
2325.15
  0
LINE
  8
0
 10
-12.7361
 20
2325.15
 11
-13.0052
 21
2325.57
  0
LINE
  8
0
 10
-13.0052
 20
2325.57
 11
-13.2191
 21
2326.03
  0
LINE
  8
0
 10
-13.2191
 20
2326.03
 11
-13.3743
 21
2326.51
  0
LINE
  8
0
 10
-13.3743
 20
2326.51
 11
-13.4684
 21
2327
  0
LINE
  8
0
 10
-13.4684
 20
2327
 11
-13.5
 21
2327.5
  0
LINE
  8
0
 10
-13.5
 20
2327.5
 11
-13.5
 21
2616.5
  0
LINE
  8
0
 10
-13.5
 20
2616.5
 11
-13.4684
 21
2617
  0
LINE
  8
0
 10
-13.4684
 20
2617
 11
-13.3743
 21
2617.49
  0
LINE
  8
0
 10
-13.3743
 20
2617.49
 11
-13.2191
 21
2617.97
  0
LINE
  8
0
 10
-13.2191
 20
2617.97
 11
-13.0052
 21
2618.43
  0
LINE
  8
0
 10
-13.0052
 20
2618.43
 11
-12.7361
 21
2618.85
  0
LINE
  8
0
 10
-12.7361
 20
2618.85
 11
-12.4159
 21
2619.24
  0
LINE
  8
0
 10
-12.4159
 20
2619.24
 11
-12.0497
 21
2619.58
  0
LINE
  8
0
 10
-12.0497
 20
2619.58
 11
-11.6433
 21
2619.88
  0
LINE
  8
0
 10
-11.6433
 20
2619.88
 11
-11.2031
 21
2620.12
  0
LINE
  8
0
 10
-11.2031
 20
2620.12
 11
-10.7361
 21
2620.3
  0
LINE
  8
0
 10
-10.7361
 20
2620.3
 11
-10.2495
 21
2620.43
  0
LINE
  8
0
 10
-10.2495
 20
2620.43
 11
-9.75116
 21
2620.49
  0
LINE
  8
0
 10
-9.75116
 20
2620.49
 11
9.75116
 21
2620.49
  0
LINE
  8
0
 10
9.75116
 20
2620.49
 11
10.2495
 21
2620.43
  0
LINE
  8
0
 10
10.2495
 20
2620.43
 11
10.7361
 21
2620.3
  0
LINE
  8
0
 10
10.7361
 20
2620.3
 11
11.2031
 21
2620.12
  0
LINE
  8
0
 10
11.2031
 20
2620.12
 11
11.6433
 21
2619.88
  0
LINE
  8
0
 10
11.6433
 20
2619.88
 11
12.0497
 21
2619.58
  0
LINE
  8
0
 10
12.0497
 20
2619.58
 11
12.4159
 21
2619.24
  0
LINE
  8
0
 10
12.4159
 20
2619.24
 11
12.7361
 21
2618.85
  0
LINE
  8
0
 10
12.7361
 20
2618.85
 11
13.0052
 21
2618.43
  0
LINE
  8
0
 10
13.0052
 20
2618.43
 11
13.2191
 21
2617.97
  0
LINE
  8
0
 10
13.2191
 20
2617.97
 11
13.3743
 21
2617.49
  0
LINE
  8
0
 10
13.3743
 20
2617.49
 11
13.4684
 21
2617
  0
LINE
  8
0
 10
13.4684
 20
2617
 11
13.5
 21
2616.5
  0
LINE
  8
0
 10
13.5
 20
2616.5
 11
13.5
 21
2327.5
  0
LINE
  8
0
 10
13.5
 20
2327.5
 11
13.4684
 21
2327
  0
LINE
  8
0
 10
13.4684
 20
2327
 11
13.3743
 21
2326.51
  0
LINE
  8
0
 10
13.3743
 20
2326.51
 11
13.2191
 21
2326.03
  0
LINE
  8
0
 10
13.2191
 20
2326.03
 11
13.0052
 21
2325.57
  0
LINE
  8
0
 10
13.0052
 20
2325.57
 11
12.7361
 21
2325.15
  0
LINE
  8
0
 10
12.7361
 20
2325.15
 11
12.4159
 21
2324.76
  0
LINE
  8
0
 10
12.4159
 20
2324.76
 11
12.0497
 21
2324.42
  0
LINE
  8
0
 10
12.0497
 20
2324.42
 11
11.6433
 21
2324.12
  0
LINE
  8
0
 10
11.6433
 20
2324.12
 11
11.2031
 21
2323.88
  0
LINE
  8
0
 10
11.2031
 20
2323.88
 11
10.7361
 21
2323.7
  0
LINE
  8
0
 10
10.7361
 20
2323.7
 11
10.2495
 21
2323.57
  0
LINE
  8
0
 10
10.2495
 20
2323.57
 11
9.75116
 21
2323.51
  0
LINE
  8
0
 10
9.75116
 20
2323.51
 11
-9.75116
 21
2323.51
  0
LINE
  8
0
 10
10.9369
 20
2013.09
 11
11.5451
 21
2013.24
  0
LINE
  8
0
 10
11.5451
 20
2013.24
 11
12.1289
 21
2013.48
  0
LINE
  8
0
 10
12.1289
 20
2013.48
 11
12.6791
 21
2013.78
  0
LINE
  8
0
 10
12.6791
 20
2013.78
 11
13.1871
 21
2014.15
  0
LINE
  8
0
 10
13.1871
 20
2014.15
 11
13.6448
 21
2014.58
  0
LINE
  8
0
 10
13.6448
 20
2014.58
 11
14.0451
 21
2015.06
  0
LINE
  8
0
 10
14.0451
 20
2015.06
 11
14.3815
 21
2015.59
  0
LINE
  8
0
 10
14.3815
 20
2015.59
 11
14.6489
 21
2016.16
  0
LINE
  8
0
 10
14.6489
 20
2016.16
 11
14.8429
 21
2016.76
  0
LINE
  8
0
 10
14.8429
 20
2016.76
 11
14.9606
 21
2017.37
  0
LINE
  8
0
 10
14.9606
 20
2017.37
 11
15
 21
2018
  0
LINE
  8
0
 10
15
 20
2018
 11
15
 21
2308
  0
LINE
  8
0
 10
15
 20
2308
 11
14.9606
 21
2308.63
  0
LINE
  8
0
 10
14.9606
 20
2308.63
 11
14.8429
 21
2309.24
  0
LINE
  8
0
 10
14.8429
 20
2309.24
 11
14.6489
 21
2309.84
  0
LINE
  8
0
 10
14.6489
 20
2309.84
 11
14.3815
 21
2310.41
  0
LINE
  8
0
 10
14.3815
 20
2310.41
 11
14.0451
 21
2310.94
  0
LINE
  8
0
 10
14.0451
 20
2310.94
 11
13.6448
 21
2311.42
  0
LINE
  8
0
 10
13.6448
 20
2311.42
 11
13.1871
 21
2311.85
  0
LINE
  8
0
 10
13.1871
 20
2311.85
 11
12.6791
 21
2312.22
  0
LINE
  8
0
 10
12.6791
 20
2312.22
 11
12.1289
 21
2312.52
  0
LINE
  8
0
 10
12.1289
 20
2312.52
 11
11.5451
 21
2312.76
  0
LINE
  8
0
 10
11.5451
 20
2312.76
 11
10.9369
 21
2312.91
  0
LINE
  8
0
 10
10.9369
 20
2312.91
 11
10.3139
 21
2312.99
  0
LINE
  8
0
 10
10.3139
 20
2312.99
 11
-10.3139
 21
2312.99
  0
LINE
  8
0
 10
-10.3139
 20
2312.99
 11
-10.9369
 21
2312.91
  0
LINE
  8
0
 10
-10.9369
 20
2312.91
 11
-11.5451
 21
2312.76
  0
LINE
  8
0
 10
-11.5451
 20
2312.76
 11
-12.1289
 21
2312.52
  0
LINE
  8
0
 10
-12.1289
 20
2312.52
 11
-12.6791
 21
2312.22
  0
LINE
  8
0
 10
-12.6791
 20
2312.22
 11
-13.1871
 21
2311.85
  0
LINE
  8
0
 10
-13.1871
 20
2311.85
 11
-13.6448
 21
2311.42
  0
LINE
  8
0
 10
-13.6448
 20
2311.42
 11
-14.0451
 21
2310.94
  0
LINE
  8
0
 10
-14.0451
 20
2310.94
 11
-14.3815
 21
2310.41
  0
LINE
  8
0
 10
-14.3815
 20
2310.41
 11
-14.6489
 21
2309.84
  0
LINE
  8
0
 10
-14.6489
 20
2309.84
 11
-14.8429
 21
2309.24
  0
LINE
  8
0
 10
-14.8429
 20
2309.24
 11
-14.9606
 21
2308.63
  0
LINE
  8
0
 10
-14.9606
 20
2308.63
 11
-15
 21
2308
  0
LINE
  8
0
 10
-15
 20
2308
 11
-15
 21
2018
  0
LINE
  8
0
 10
-15
 20
2018
 11
-14.9606
 21
2017.37
  0
LINE
  8
0
 10
-14.9606
 20
2017.37
 11
-14.8429
 21
2016.76
  0
LINE
  8
0
 10
-14.8429
 20
2016.76
 11
-14.6489
 21
2016.16
  0
LINE
  8
0
 10
-14.6489
 20
2016.16
 11
-14.3815
 21
2015.59
  0
LINE
  8
0
 10
-14.3815
 20
2015.59
 11
-14.0451
 21
2015.06
  0
LINE
  8
0
 10
-14.0451
 20
2015.06
 11
-13.6448
 21
2014.58
  0
LINE
  8
0
 10
-13.6448
 20
2014.58
 11
-13.1871
 21
2014.15
  0
LINE
  8
0
 10
-13.1871
 20
2014.15
 11
-12.6791
 21
2013.78
  0
LINE
  8
0
 10
-12.6791
 20
2013.78
 11
-12.1289
 21
2013.48
  0
LINE
  8
0
 10
-12.1289
 20
2013.48
 11
-11.5451
 21
2013.24
  0
LINE
  8
0
 10
-11.5451
 20
2013.24
 11
-10.9369
 21
2013.09
  0
LINE
  8
0
 10
-10.9369
 20
2013.09
 11
-10.3139
 21
2013.01
  0
LINE
  8
0
 10
-10.3139
 20
2013.01
 11
10.3139
 21
2013.01
  0
LINE
  8
0
 10
10.3139
 20
2013.01
 11
10.9369
 21
2013.09
  0
LINE
  8
0
 10
-9.75116
 20
2014.51
 11
-10.2495
 21
2014.57
  0
LINE
  8
0
 10
-10.2495
 20
2014.57
 11
-10.7361
 21
2014.7
  0
LINE
  8
0
 10
-10.7361
 20
2014.7
 11
-11.2031
 21
2014.88
  0
LINE
  8
0
 10
-11.2031
 20
2014.88
 11
-11.6433
 21
2015.12
  0
LINE
  8
0
 10
-11.6433
 20
2015.12
 11
-12.0497
 21
2015.42
  0
LINE
  8
0
 10
-12.0497
 20
2015.42
 11
-12.4159
 21
2015.76
  0
LINE
  8
0
 10
-12.4159
 20
2015.76
 11
-12.7361
 21
2016.15
  0
LINE
  8
0
 10
-12.7361
 20
2016.15
 11
-13.0052
 21
2016.57
  0
LINE
  8
0
 10
-13.0052
 20
2016.57
 11
-13.2191
 21
2017.03
  0
LINE
  8
0
 10
-13.2191
 20
2017.03
 11
-13.3743
 21
2017.51
  0
LINE
  8
0
 10
-13.3743
 20
2017.51
 11
-13.4684
 21
2018
  0
LINE
  8
0
 10
-13.4684
 20
2018
 11
-13.5
 21
2018.5
  0
LINE
  8
0
 10
-13.5
 20
2018.5
 11
-13.5
 21
2307.5
  0
LINE
  8
0
 10
-13.5
 20
2307.5
 11
-13.4684
 21
2308
  0
LINE
  8
0
 10
-13.4684
 20
2308
 11
-13.3743
 21
2308.49
  0
LINE
  8
0
 10
-13.3743
 20
2308.49
 11
-13.2191
 21
2308.97
  0
LINE
  8
0
 10
-13.2191
 20
2308.97
 11
-13.0052
 21
2309.43
  0
LINE
  8
0
 10
-13.0052
 20
2309.43
 11
-12.7361
 21
2309.85
  0
LINE
  8
0
 10
-12.7361
 20
2309.85
 11
-12.4159
 21
2310.24
  0
LINE
  8
0
 10
-12.4159
 20
2310.24
 11
-12.0497
 21
2310.58
  0
LINE
  8
0
 10
-12.0497
 20
2310.58
 11
-11.6433
 21
2310.88
  0
LINE
  8
0
 10
-11.6433
 20
2310.88
 11
-11.2031
 21
2311.12
  0
LINE
  8
0
 10
-11.2031
 20
2311.12
 11
-10.7361
 21
2311.3
  0
LINE
  8
0
 10
-10.7361
 20
2311.3
 11
-10.2495
 21
2311.43
  0
LINE
  8
0
 10
-10.2495
 20
2311.43
 11
-9.75116
 21
2311.49
  0
LINE
  8
0
 10
-9.75116
 20
2311.49
 11
9.75116
 21
2311.49
  0
LINE
  8
0
 10
9.75116
 20
2311.49
 11
10.2495
 21
2311.43
  0
LINE
  8
0
 10
10.2495
 20
2311.43
 11
10.7361
 21
2311.3
  0
LINE
  8
0
 10
10.7361
 20
2311.3
 11
11.2031
 21
2311.12
  0
LINE
  8
0
 10
11.2031
 20
2311.12
 11
11.6433
 21
2310.88
  0
LINE
  8
0
 10
11.6433
 20
2310.88
 11
12.0497
 21
2310.58
  0
LINE
  8
0
 10
12.0497
 20
2310.58
 11
12.4159
 21
2310.24
  0
LINE
  8
0
 10
12.4159
 20
2310.24
 11
12.7361
 21
2309.85
  0
LINE
  8
0
 10
12.7361
 20
2309.85
 11
13.0052
 21
2309.43
  0
LINE
  8
0
 10
13.0052
 20
2309.43
 11
13.2191
 21
2308.97
  0
LINE
  8
0
 10
13.2191
 20
2308.97
 11
13.3743
 21
2308.49
  0
LINE
  8
0
 10
13.3743
 20
2308.49
 11
13.4684
 21
2308
  0
LINE
  8
0
 10
13.4684
 20
2308
 11
13.5
 21
2307.5
  0
LINE
  8
0
 10
13.5
 20
2307.5
 11
13.5
 21
2018.5
  0
LINE
  8
0
 10
13.5
 20
2018.5
 11
13.4684
 21
2018
  0
LINE
  8
0
 10
13.4684
 20
2018
 11
13.3743
 21
2017.51
  0
LINE
  8
0
 10
13.3743
 20
2017.51
 11
13.2191
 21
2017.03
  0
LINE
  8
0
 10
13.2191
 20
2017.03
 11
13.0052
 21
2016.57
  0
LINE
  8
0
 10
13.0052
 20
2016.57
 11
12.7361
 21
2016.15
  0
LINE
  8
0
 10
12.7361
 20
2016.15
 11
12.4159
 21
2015.76
  0
LINE
  8
0
 10
12.4159
 20
2015.76
 11
12.0497
 21
2015.42
  0
LINE
  8
0
 10
12.0497
 20
2015.42
 11
11.6433
 21
2015.12
  0
LINE
  8
0
 10
11.6433
 20
2015.12
 11
11.2031
 21
2014.88
  0
LINE
  8
0
 10
11.2031
 20
2014.88
 11
10.7361
 21
2014.7
  0
LINE
  8
0
 10
10.7361
 20
2014.7
 11
10.2495
 21
2014.57
  0
LINE
  8
0
 10
10.2495
 20
2014.57
 11
9.75116
 21
2014.51
  0
LINE
  8
0
 10
9.75116
 20
2014.51
 11
-9.75116
 21
2014.51
  0
LINE
  8
0
 10
10.9369
 20
1704.09
 11
11.5451
 21
1704.24
  0
LINE
  8
0
 10
11.5451
 20
1704.24
 11
12.1289
 21
1704.48
  0
LINE
  8
0
 10
12.1289
 20
1704.48
 11
12.6791
 21
1704.78
  0
LINE
  8
0
 10
12.6791
 20
1704.78
 11
13.1871
 21
1705.15
  0
LINE
  8
0
 10
13.1871
 20
1705.15
 11
13.6448
 21
1705.58
  0
LINE
  8
0
 10
13.6448
 20
1705.58
 11
14.0451
 21
1706.06
  0
LINE
  8
0
 10
14.0451
 20
1706.06
 11
14.3815
 21
1706.59
  0
LINE
  8
0
 10
14.3815
 20
1706.59
 11
14.6489
 21
1707.16
  0
LINE
  8
0
 10
14.6489
 20
1707.16
 11
14.8429
 21
1707.76
  0
LINE
  8
0
 10
14.8429
 20
1707.76
 11
14.9606
 21
1708.37
  0
LINE
  8
0
 10
14.9606
 20
1708.37
 11
15
 21
1709
  0
LINE
  8
0
 10
15
 20
1709
 11
15
 21
1999
  0
LINE
  8
0
 10
15
 20
1999
 11
14.9606
 21
1999.63
  0
LINE
  8
0
 10
14.9606
 20
1999.63
 11
14.8429
 21
2000.24
  0
LINE
  8
0
 10
14.8429
 20
2000.24
 11
14.6489
 21
2000.84
  0
LINE
  8
0
 10
14.6489
 20
2000.84
 11
14.3815
 21
2001.41
  0
LINE
  8
0
 10
14.3815
 20
2001.41
 11
14.0451
 21
2001.94
  0
LINE
  8
0
 10
14.0451
 20
2001.94
 11
13.6448
 21
2002.42
  0
LINE
  8
0
 10
13.6448
 20
2002.42
 11
13.1871
 21
2002.85
  0
LINE
  8
0
 10
13.1871
 20
2002.85
 11
12.6791
 21
2003.22
  0
LINE
  8
0
 10
12.6791
 20
2003.22
 11
12.1289
 21
2003.52
  0
LINE
  8
0
 10
12.1289
 20
2003.52
 11
11.5451
 21
2003.76
  0
LINE
  8
0
 10
11.5451
 20
2003.76
 11
10.9369
 21
2003.91
  0
LINE
  8
0
 10
10.9369
 20
2003.91
 11
10.3139
 21
2003.99
  0
LINE
  8
0
 10
10.3139
 20
2003.99
 11
-10.3139
 21
2003.99
  0
LINE
  8
0
 10
-10.3139
 20
2003.99
 11
-10.9369
 21
2003.91
  0
LINE
  8
0
 10
-10.9369
 20
2003.91
 11
-11.5451
 21
2003.76
  0
LINE
  8
0
 10
-11.5451
 20
2003.76
 11
-12.1289
 21
2003.52
  0
LINE
  8
0
 10
-12.1289
 20
2003.52
 11
-12.6791
 21
2003.22
  0
LINE
  8
0
 10
-12.6791
 20
2003.22
 11
-13.1871
 21
2002.85
  0
LINE
  8
0
 10
-13.1871
 20
2002.85
 11
-13.6448
 21
2002.42
  0
LINE
  8
0
 10
-13.6448
 20
2002.42
 11
-14.0451
 21
2001.94
  0
LINE
  8
0
 10
-14.0451
 20
2001.94
 11
-14.3815
 21
2001.41
  0
LINE
  8
0
 10
-14.3815
 20
2001.41
 11
-14.6489
 21
2000.84
  0
LINE
  8
0
 10
-14.6489
 20
2000.84
 11
-14.8429
 21
2000.24
  0
LINE
  8
0
 10
-14.8429
 20
2000.24
 11
-14.9606
 21
1999.63
  0
LINE
  8
0
 10
-14.9606
 20
1999.63
 11
-15
 21
1999
  0
LINE
  8
0
 10
-15
 20
1999
 11
-15
 21
1709
  0
LINE
  8
0
 10
-15
 20
1709
 11
-14.9606
 21
1708.37
  0
LINE
  8
0
 10
-14.9606
 20
1708.37
 11
-14.8429
 21
1707.76
  0
LINE
  8
0
 10
-14.8429
 20
1707.76
 11
-14.6489
 21
1707.16
  0
LINE
  8
0
 10
-14.6489
 20
1707.16
 11
-14.3815
 21
1706.59
  0
LINE
  8
0
 10
-14.3815
 20
1706.59
 11
-14.0451
 21
1706.06
  0
LINE
  8
0
 10
-14.0451
 20
1706.06
 11
-13.6448
 21
1705.58
  0
LINE
  8
0
 10
-13.6448
 20
1705.58
 11
-13.1871
 21
1705.15
  0
LINE
  8
0
 10
-13.1871
 20
1705.15
 11
-12.6791
 21
1704.78
  0
LINE
  8
0
 10
-12.6791
 20
1704.78
 11
-12.1289
 21
1704.48
  0
LINE
  8
0
 10
-12.1289
 20
1704.48
 11
-11.5451
 21
1704.24
  0
LINE
  8
0
 10
-11.5451
 20
1704.24
 11
-10.9369
 21
1704.09
  0
LINE
  8
0
 10
-10.9369
 20
1704.09
 11
-10.3139
 21
1704.01
  0
LINE
  8
0
 10
-10.3139
 20
1704.01
 11
10.3139
 21
1704.01
  0
LINE
  8
0
 10
10.3139
 20
1704.01
 11
10.9369
 21
1704.09
  0
LINE
  8
0
 10
-9.74316
 20
1705.64
 11
-10.2256
 21
1705.7
  0
LINE
  8
0
 10
-10.2256
 20
1705.7
 11
-10.6967
 21
1705.82
  0
LINE
  8
0
 10
-10.6967
 20
1705.82
 11
-11.1489
 21
1706
  0
LINE
  8
0
 10
-11.1489
 20
1706
 11
-11.5751
 21
1706.23
  0
LINE
  8
0
 10
-11.5751
 20
1706.23
 11
-11.9685
 21
1706.52
  0
LINE
  8
0
 10
-11.9685
 20
1706.52
 11
-12.323
 21
1706.85
  0
LINE
  8
0
 10
-12.323
 20
1706.85
 11
-12.633
 21
1707.22
  0
LINE
  8
0
 10
-12.633
 20
1707.22
 11
-12.8936
 21
1707.63
  0
LINE
  8
0
 10
-12.8936
 20
1707.63
 11
-13.1007
 21
1708.07
  0
LINE
  8
0
 10
-13.1007
 20
1708.07
 11
-13.251
 21
1708.54
  0
LINE
  8
0
 10
-13.251
 20
1708.54
 11
-13.3421
 21
1709.01
  0
LINE
  8
0
 10
-13.3421
 20
1709.01
 11
-13.3726
 21
1709.5
  0
LINE
  8
0
 10
-13.3726
 20
1709.5
 11
-13.3726
 21
1998.5
  0
LINE
  8
0
 10
-13.3726
 20
1998.5
 11
-13.3421
 21
1998.99
  0
LINE
  8
0
 10
-13.3421
 20
1998.99
 11
-13.251
 21
1999.46
  0
LINE
  8
0
 10
-13.251
 20
1999.46
 11
-13.1007
 21
1999.93
  0
LINE
  8
0
 10
-13.1007
 20
1999.93
 11
-12.8936
 21
2000.37
  0
LINE
  8
0
 10
-12.8936
 20
2000.37
 11
-12.633
 21
2000.78
  0
LINE
  8
0
 10
-12.633
 20
2000.78
 11
-12.323
 21
2001.15
  0
LINE
  8
0
 10
-12.323
 20
2001.15
 11
-11.9685
 21
2001.48
  0
LINE
  8
0
 10
-11.9685
 20
2001.48
 11
-11.5751
 21
2001.77
  0
LINE
  8
0
 10
-11.5751
 20
2001.77
 11
-11.1489
 21
2002
  0
LINE
  8
0
 10
-11.1489
 20
2002
 11
-10.6967
 21
2002.18
  0
LINE
  8
0
 10
-10.6967
 20
2002.18
 11
-10.2256
 21
2002.3
  0
LINE
  8
0
 10
-10.2256
 20
2002.3
 11
-9.74316
 21
2002.36
  0
LINE
  8
0
 10
-9.74316
 20
2002.36
 11
9.74316
 21
2002.36
  0
LINE
  8
0
 10
9.74316
 20
2002.36
 11
10.2256
 21
2002.3
  0
LINE
  8
0
 10
10.2256
 20
2002.3
 11
10.6967
 21
2002.18
  0
LINE
  8
0
 10
10.6967
 20
2002.18
 11
11.1489
 21
2002
  0
LINE
  8
0
 10
11.1489
 20
2002
 11
11.5751
 21
2001.77
  0
LINE
  8
0
 10
11.5751
 20
2001.77
 11
11.9685
 21
2001.48
  0
LINE
  8
0
 10
11.9685
 20
2001.48
 11
12.323
 21
2001.15
  0
LINE
  8
0
 10
12.323
 20
2001.15
 11
12.633
 21
2000.78
  0
LINE
  8
0
 10
12.633
 20
2000.78
 11
12.8936
 21
2000.37
  0
LINE
  8
0
 10
12.8936
 20
2000.37
 11
13.1007
 21
1999.93
  0
LINE
  8
0
 10
13.1007
 20
1999.93
 11
13.251
 21
1999.46
  0
LINE
  8
0
 10
13.251
 20
1999.46
 11
13.3421
 21
1998.99
  0
LINE
  8
0
 10
13.3421
 20
1998.99
 11
13.3726
 21
1998.5
  0
LINE
  8
0
 10
13.3726
 20
1998.5
 11
13.3726
 21
1709.5
  0
LINE
  8
0
 10
13.3726
 20
1709.5
 11
13.3421
 21
1709.01
  0
LINE
  8
0
 10
13.3421
 20
1709.01
 11
13.251
 21
1708.54
  0
LINE
  8
0
 10
13.251
 20
1708.54
 11
13.1007
 21
1708.07
  0
LINE
  8
0
 10
13.1007
 20
1708.07
 11
12.8936
 21
1707.63
  0
LINE
  8
0
 10
12.8936
 20
1707.63
 11
12.633
 21
1707.22
  0
LINE
  8
0
 10
12.633
 20
1707.22
 11
12.323
 21
1706.85
  0
LINE
  8
0
 10
12.323
 20
1706.85
 11
11.9685
 21
1706.52
  0
LINE
  8
0
 10
11.9685
 20
1706.52
 11
11.5751
 21
1706.23
  0
LINE
  8
0
 10
11.5751
 20
1706.23
 11
11.1489
 21
1706
  0
LINE
  8
0
 10
11.1489
 20
1706
 11
10.6967
 21
1705.82
  0
LINE
  8
0
 10
10.6967
 20
1705.82
 11
10.2256
 21
1705.7
  0
LINE
  8
0
 10
10.2256
 20
1705.7
 11
9.74316
 21
1705.64
  0
LINE
  8
0
 10
9.74316
 20
1705.64
 11
-9.74316
 21
1705.64
  0
LINE
  8
0
 10
10.9369
 20
1395.09
 11
11.5451
 21
1395.24
  0
LINE
  8
0
 10
11.5451
 20
1395.24
 11
12.1289
 21
1395.48
  0
LINE
  8
0
 10
12.1289
 20
1395.48
 11
12.6791
 21
1395.78
  0
LINE
  8
0
 10
12.6791
 20
1395.78
 11
13.1871
 21
1396.15
  0
LINE
  8
0
 10
13.1871
 20
1396.15
 11
13.6448
 21
1396.58
  0
LINE
  8
0
 10
13.6448
 20
1396.58
 11
14.0451
 21
1397.06
  0
LINE
  8
0
 10
14.0451
 20
1397.06
 11
14.3815
 21
1397.59
  0
LINE
  8
0
 10
14.3815
 20
1397.59
 11
14.6489
 21
1398.16
  0
LINE
  8
0
 10
14.6489
 20
1398.16
 11
14.8429
 21
1398.76
  0
LINE
  8
0
 10
14.8429
 20
1398.76
 11
14.9606
 21
1399.37
  0
LINE
  8
0
 10
14.9606
 20
1399.37
 11
15
 21
1400
  0
LINE
  8
0
 10
15
 20
1400
 11
15
 21
1690
  0
LINE
  8
0
 10
15
 20
1690
 11
14.9606
 21
1690.63
  0
LINE
  8
0
 10
14.9606
 20
1690.63
 11
14.8429
 21
1691.24
  0
LINE
  8
0
 10
14.8429
 20
1691.24
 11
14.6489
 21
1691.84
  0
LINE
  8
0
 10
14.6489
 20
1691.84
 11
14.3815
 21
1692.41
  0
LINE
  8
0
 10
14.3815
 20
1692.41
 11
14.0451
 21
1692.94
  0
LINE
  8
0
 10
14.0451
 20
1692.94
 11
13.6448
 21
1693.42
  0
LINE
  8
0
 10
13.6448
 20
1693.42
 11
13.1871
 21
1693.85
  0
LINE
  8
0
 10
13.1871
 20
1693.85
 11
12.6791
 21
1694.22
  0
LINE
  8
0
 10
12.6791
 20
1694.22
 11
12.1289
 21
1694.52
  0
LINE
  8
0
 10
12.1289
 20
1694.52
 11
11.5451
 21
1694.76
  0
LINE
  8
0
 10
11.5451
 20
1694.76
 11
10.9369
 21
1694.91
  0
LINE
  8
0
 10
10.9369
 20
1694.91
 11
10.3139
 21
1694.99
  0
LINE
  8
0
 10
10.3139
 20
1694.99
 11
-10.3139
 21
1694.99
  0
LINE
  8
0
 10
-10.3139
 20
1694.99
 11
-10.9369
 21
1694.91
  0
LINE
  8
0
 10
-10.9369
 20
1694.91
 11
-11.5451
 21
1694.76
  0
LINE
  8
0
 10
-11.5451
 20
1694.76
 11
-12.1289
 21
1694.52
  0
LINE
  8
0
 10
-12.1289
 20
1694.52
 11
-12.6791
 21
1694.22
  0
LINE
  8
0
 10
-12.6791
 20
1694.22
 11
-13.1871
 21
1693.85
  0
LINE
  8
0
 10
-13.1871
 20
1693.85
 11
-13.6448
 21
1693.42
  0
LINE
  8
0
 10
-13.6448
 20
1693.42
 11
-14.0451
 21
1692.94
  0
LINE
  8
0
 10
-14.0451
 20
1692.94
 11
-14.3815
 21
1692.41
  0
LINE
  8
0
 10
-14.3815
 20
1692.41
 11
-14.6489
 21
1691.84
  0
LINE
  8
0
 10
-14.6489
 20
1691.84
 11
-14.8429
 21
1691.24
  0
LINE
  8
0
 10
-14.8429
 20
1691.24
 11
-14.9606
 21
1690.63
  0
LINE
  8
0
 10
-14.9606
 20
1690.63
 11
-15
 21
1690
  0
LINE
  8
0
 10
-15
 20
1690
 11
-15
 21
1400
  0
LINE
  8
0
 10
-15
 20
1400
 11
-14.9606
 21
1399.37
  0
LINE
  8
0
 10
-14.9606
 20
1399.37
 11
-14.8429
 21
1398.76
  0
LINE
  8
0
 10
-14.8429
 20
1398.76
 11
-14.6489
 21
1398.16
  0
LINE
  8
0
 10
-14.6489
 20
1398.16
 11
-14.3815
 21
1397.59
  0
LINE
  8
0
 10
-14.3815
 20
1397.59
 11
-14.0451
 21
1397.06
  0
LINE
  8
0
 10
-14.0451
 20
1397.06
 11
-13.6448
 21
1396.58
  0
LINE
  8
0
 10
-13.6448
 20
1396.58
 11
-13.1871
 21
1396.15
  0
LINE
  8
0
 10
-13.1871
 20
1396.15
 11
-12.6791
 21
1395.78
  0
LINE
  8
0
 10
-12.6791
 20
1395.78
 11
-12.1289
 21
1395.48
  0
LINE
  8
0
 10
-12.1289
 20
1395.48
 11
-11.5451
 21
1395.24
  0
LINE
  8
0
 10
-11.5451
 20
1395.24
 11
-10.9369
 21
1395.09
  0
LINE
  8
0
 10
-10.9369
 20
1395.09
 11
-10.3139
 21
1395.01
  0
LINE
  8
0
 10
-10.3139
 20
1395.01
 11
10.3139
 21
1395.01
  0
LINE
  8
0
 10
10.3139
 20
1395.01
 11
10.9369
 21
1395.09
  0
LINE
  8
0
 10
7.34929
 20
1685.1
 11
7.05028
 21
1685.14
  0
LINE
  8
0
 10
7.05028
 20
1685.14
 11
6.75835
 21
1685.22
  0
LINE
  8
0
 10
6.75835
 20
1685.22
 11
6.47812
 21
1685.33
  0
LINE
  8
0
 10
6.47812
 20
1685.33
 11
6.214
 21
1685.47
  0
LINE
  8
0
 10
6.214
 20
1685.47
 11
5.97017
 21
1685.65
  0
LINE
  8
0
 10
5.97017
 20
1685.65
 11
5.75047
 21
1685.86
  0
LINE
  8
0
 10
5.75047
 20
1685.86
 11
5.55835
 21
1686.09
  0
LINE
  8
0
 10
5.55835
 20
1686.09
 11
5.39685
 21
1686.34
  0
LINE
  8
0
 10
5.39685
 20
1686.34
 11
5.26852
 21
1686.62
  0
LINE
  8
0
 10
5.26852
 20
1686.62
 11
5.1754
 21
1686.9
  0
LINE
  8
0
 10
5.1754
 20
1686.9
 11
5.11891
 21
1687.2
  0
LINE
  8
0
 10
5.11891
 20
1687.2
 11
5.09999
 21
1687.5
  0
LINE
  8
0
 10
5.09999
 20
1687.5
 11
5.11891
 21
1687.8
  0
LINE
  8
0
 10
5.11891
 20
1687.8
 11
5.1754
 21
1688.1
  0
LINE
  8
0
 10
5.1754
 20
1688.1
 11
5.26852
 21
1688.38
  0
LINE
  8
0
 10
5.26852
 20
1688.38
 11
5.39685
 21
1688.66
  0
LINE
  8
0
 10
5.39685
 20
1688.66
 11
5.55835
 21
1688.91
  0
LINE
  8
0
 10
5.55835
 20
1688.91
 11
5.75047
 21
1689.14
  0
LINE
  8
0
 10
5.75047
 20
1689.14
 11
5.97017
 21
1689.35
  0
LINE
  8
0
 10
5.97017
 20
1689.35
 11
6.214
 21
1689.53
  0
LINE
  8
0
 10
6.214
 20
1689.53
 11
6.47812
 21
1689.67
  0
LINE
  8
0
 10
6.47812
 20
1689.67
 11
6.75835
 21
1689.78
  0
LINE
  8
0
 10
6.75835
 20
1689.78
 11
7.05028
 21
1689.86
  0
LINE
  8
0
 10
7.05028
 20
1689.86
 11
7.34929
 21
1689.9
  0
LINE
  8
0
 10
7.34929
 20
1689.9
 11
7.6507
 21
1689.9
  0
LINE
  8
0
 10
7.6507
 20
1689.9
 11
7.94971
 21
1689.86
  0
LINE
  8
0
 10
7.94971
 20
1689.86
 11
8.24164
 21
1689.78
  0
LINE
  8
0
 10
8.24164
 20
1689.78
 11
8.52187
 21
1689.67
  0
LINE
  8
0
 10
8.52187
 20
1689.67
 11
8.78598
 21
1689.53
  0
LINE
  8
0
 10
8.78598
 20
1689.53
 11
9.02982
 21
1689.35
  0
LINE
  8
0
 10
9.02982
 20
1689.35
 11
9.24951
 21
1689.14
  0
LINE
  8
0
 10
9.24951
 20
1689.14
 11
9.44164
 21
1688.91
  0
LINE
  8
0
 10
9.44164
 20
1688.91
 11
9.60313
 21
1688.66
  0
LINE
  8
0
 10
9.60313
 20
1688.66
 11
9.73146
 21
1688.38
  0
LINE
  8
0
 10
9.73146
 20
1688.38
 11
9.82458
 21
1688.1
  0
LINE
  8
0
 10
9.82458
 20
1688.1
 11
9.88107
 21
1687.8
  0
LINE
  8
0
 10
9.88107
 20
1687.8
 11
9.89999
 21
1687.5
  0
LINE
  8
0
 10
9.89999
 20
1687.5
 11
9.88107
 21
1687.2
  0
LINE
  8
0
 10
9.88107
 20
1687.2
 11
9.82458
 21
1686.9
  0
LINE
  8
0
 10
9.82458
 20
1686.9
 11
9.73146
 21
1686.62
  0
LINE
  8
0
 10
9.73146
 20
1686.62
 11
9.60313
 21
1686.34
  0
LINE
  8
0
 10
9.60313
 20
1686.34
 11
9.44164
 21
1686.09
  0
LINE
  8
0
 10
9.44164
 20
1686.09
 11
9.24951
 21
1685.86
  0
LINE
  8
0
 10
9.24951
 20
1685.86
 11
9.02982
 21
1685.65
  0
LINE
  8
0
 10
9.02982
 20
1685.65
 11
8.78598
 21
1685.47
  0
LINE
  8
0
 10
8.78598
 20
1685.47
 11
8.52187
 21
1685.33
  0
LINE
  8
0
 10
8.52187
 20
1685.33
 11
8.24164
 21
1685.22
  0
LINE
  8
0
 10
8.24164
 20
1685.22
 11
7.94971
 21
1685.14
  0
LINE
  8
0
 10
7.94971
 20
1685.14
 11
7.6507
 21
1685.1
  0
LINE
  8
0
 10
7.6507
 20
1685.1
 11
7.34929
 21
1685.1
  0
LINE
  8
0
 10
-7.6507
 20
1685.1
 11
-7.94971
 21
1685.14
  0
LINE
  8
0
 10
-7.94971
 20
1685.14
 11
-8.24164
 21
1685.22
  0
LINE
  8
0
 10
-8.24164
 20
1685.22
 11
-8.52187
 21
1685.33
  0
LINE
  8
0
 10
-8.52187
 20
1685.33
 11
-8.78598
 21
1685.47
  0
LINE
  8
0
 10
-8.78598
 20
1685.47
 11
-9.02982
 21
1685.65
  0
LINE
  8
0
 10
-9.02982
 20
1685.65
 11
-9.24951
 21
1685.86
  0
LINE
  8
0
 10
-9.24951
 20
1685.86
 11
-9.44164
 21
1686.09
  0
LINE
  8
0
 10
-9.44164
 20
1686.09
 11
-9.60313
 21
1686.34
  0
LINE
  8
0
 10
-9.60313
 20
1686.34
 11
-9.73146
 21
1686.62
  0
LINE
  8
0
 10
-9.73146
 20
1686.62
 11
-9.82458
 21
1686.9
  0
LINE
  8
0
 10
-9.82458
 20
1686.9
 11
-9.88107
 21
1687.2
  0
LINE
  8
0
 10
-9.88107
 20
1687.2
 11
-9.89999
 21
1687.5
  0
LINE
  8
0
 10
-9.89999
 20
1687.5
 11
-9.88107
 21
1687.8
  0
LINE
  8
0
 10
-9.88107
 20
1687.8
 11
-9.82458
 21
1688.1
  0
LINE
  8
0
 10
-9.82458
 20
1688.1
 11
-9.73146
 21
1688.38
  0
LINE
  8
0
 10
-9.73146
 20
1688.38
 11
-9.60313
 21
1688.66
  0
LINE
  8
0
 10
-9.60313
 20
1688.66
 11
-9.44164
 21
1688.91
  0
LINE
  8
0
 10
-9.44164
 20
1688.91
 11
-9.24951
 21
1689.14
  0
LINE
  8
0
 10
-9.24951
 20
1689.14
 11
-9.02982
 21
1689.35
  0
LINE
  8
0
 10
-9.02982
 20
1689.35
 11
-8.78598
 21
1689.53
  0
LINE
  8
0
 10
-8.78598
 20
1689.53
 11
-8.52187
 21
1689.67
  0
LINE
  8
0
 10
-8.52187
 20
1689.67
 11
-8.24164
 21
1689.78
  0
LINE
  8
0
 10
-8.24164
 20
1689.78
 11
-7.94971
 21
1689.86
  0
LINE
  8
0
 10
-7.94971
 20
1689.86
 11
-7.6507
 21
1689.9
  0
LINE
  8
0
 10
-7.6507
 20
1689.9
 11
-7.34929
 21
1689.9
  0
LINE
  8
0
 10
-7.34929
 20
1689.9
 11
-7.05028
 21
1689.86
  0
LINE
  8
0
 10
-7.05028
 20
1689.86
 11
-6.75835
 21
1689.78
  0
LINE
  8
0
 10
-6.75835
 20
1689.78
 11
-6.47812
 21
1689.67
  0
LINE
  8
0
 10
-6.47812
 20
1689.67
 11
-6.214
 21
1689.53
  0
LINE
  8
0
 10
-6.214
 20
1689.53
 11
-5.97017
 21
1689.35
  0
LINE
  8
0
 10
-5.97017
 20
1689.35
 11
-5.75047
 21
1689.14
  0
LINE
  8
0
 10
-5.75047
 20
1689.14
 11
-5.55835
 21
1688.91
  0
LINE
  8
0
 10
-5.55835
 20
1688.91
 11
-5.39685
 21
1688.66
  0
LINE
  8
0
 10
-5.39685
 20
1688.66
 11
-5.26852
 21
1688.38
  0
LINE
  8
0
 10
-5.26852
 20
1688.38
 11
-5.1754
 21
1688.1
  0
LINE
  8
0
 10
-5.1754
 20
1688.1
 11
-5.11891
 21
1687.8
  0
LINE
  8
0
 10
-5.11891
 20
1687.8
 11
-5.09999
 21
1687.5
  0
LINE
  8
0
 10
-5.09999
 20
1687.5
 11
-5.11891
 21
1687.2
  0
LINE
  8
0
 10
-5.11891
 20
1687.2
 11
-5.1754
 21
1686.9
  0
LINE
  8
0
 10
-5.1754
 20
1686.9
 11
-5.26852
 21
1686.62
  0
LINE
  8
0
 10
-5.26852
 20
1686.62
 11
-5.39685
 21
1686.34
  0
LINE
  8
0
 10
-5.39685
 20
1686.34
 11
-5.55835
 21
1686.09
  0
LINE
  8
0
 10
-5.55835
 20
1686.09
 11
-5.75047
 21
1685.86
  0
LINE
  8
0
 10
-5.75047
 20
1685.86
 11
-5.97017
 21
1685.65
  0
LINE
  8
0
 10
-5.97017
 20
1685.65
 11
-6.214
 21
1685.47
  0
LINE
  8
0
 10
-6.214
 20
1685.47
 11
-6.47812
 21
1685.33
  0
LINE
  8
0
 10
-6.47812
 20
1685.33
 11
-6.75835
 21
1685.22
  0
LINE
  8
0
 10
-6.75835
 20
1685.22
 11
-7.05028
 21
1685.14
  0
LINE
  8
0
 10
-7.05028
 20
1685.14
 11
-7.34929
 21
1685.1
  0
LINE
  8
0
 10
-7.34929
 20
1685.1
 11
-7.6507
 21
1685.1
  0
LINE
  8
0
 10
7.34929
 20
1400.1
 11
7.05028
 21
1400.14
  0
LINE
  8
0
 10
7.05028
 20
1400.14
 11
6.75835
 21
1400.22
  0
LINE
  8
0
 10
6.75835
 20
1400.22
 11
6.47812
 21
1400.33
  0
LINE
  8
0
 10
6.47812
 20
1400.33
 11
6.214
 21
1400.47
  0
LINE
  8
0
 10
6.214
 20
1400.47
 11
5.97017
 21
1400.65
  0
LINE
  8
0
 10
5.97017
 20
1400.65
 11
5.75047
 21
1400.86
  0
LINE
  8
0
 10
5.75047
 20
1400.86
 11
5.55835
 21
1401.09
  0
LINE
  8
0
 10
5.55835
 20
1401.09
 11
5.39685
 21
1401.34
  0
LINE
  8
0
 10
5.39685
 20
1401.34
 11
5.26852
 21
1401.62
  0
LINE
  8
0
 10
5.26852
 20
1401.62
 11
5.1754
 21
1401.9
  0
LINE
  8
0
 10
5.1754
 20
1401.9
 11
5.11891
 21
1402.2
  0
LINE
  8
0
 10
5.11891
 20
1402.2
 11
5.09999
 21
1402.5
  0
LINE
  8
0
 10
5.09999
 20
1402.5
 11
5.11891
 21
1402.8
  0
LINE
  8
0
 10
5.11891
 20
1402.8
 11
5.1754
 21
1403.1
  0
LINE
  8
0
 10
5.1754
 20
1403.1
 11
5.26852
 21
1403.38
  0
LINE
  8
0
 10
5.26852
 20
1403.38
 11
5.39685
 21
1403.66
  0
LINE
  8
0
 10
5.39685
 20
1403.66
 11
5.55835
 21
1403.91
  0
LINE
  8
0
 10
5.55835
 20
1403.91
 11
5.75047
 21
1404.14
  0
LINE
  8
0
 10
5.75047
 20
1404.14
 11
5.97017
 21
1404.35
  0
LINE
  8
0
 10
5.97017
 20
1404.35
 11
6.214
 21
1404.53
  0
LINE
  8
0
 10
6.214
 20
1404.53
 11
6.47812
 21
1404.67
  0
LINE
  8
0
 10
6.47812
 20
1404.67
 11
6.75835
 21
1404.78
  0
LINE
  8
0
 10
6.75835
 20
1404.78
 11
7.05028
 21
1404.86
  0
LINE
  8
0
 10
7.05028
 20
1404.86
 11
7.34929
 21
1404.9
  0
LINE
  8
0
 10
7.34929
 20
1404.9
 11
7.6507
 21
1404.9
  0
LINE
  8
0
 10
7.6507
 20
1404.9
 11
7.94971
 21
1404.86
  0
LINE
  8
0
 10
7.94971
 20
1404.86
 11
8.24164
 21
1404.78
  0
LINE
  8
0
 10
8.24164
 20
1404.78
 11
8.52187
 21
1404.67
  0
LINE
  8
0
 10
8.52187
 20
1404.67
 11
8.78598
 21
1404.53
  0
LINE
  8
0
 10
8.78598
 20
1404.53
 11
9.02982
 21
1404.35
  0
LINE
  8
0
 10
9.02982
 20
1404.35
 11
9.24951
 21
1404.14
  0
LINE
  8
0
 10
9.24951
 20
1404.14
 11
9.44164
 21
1403.91
  0
LINE
  8
0
 10
9.44164
 20
1403.91
 11
9.60313
 21
1403.66
  0
LINE
  8
0
 10
9.60313
 20
1403.66
 11
9.73146
 21
1403.38
  0
LINE
  8
0
 10
9.73146
 20
1403.38
 11
9.82458
 21
1403.1
  0
LINE
  8
0
 10
9.82458
 20
1403.1
 11
9.88107
 21
1402.8
  0
LINE
  8
0
 10
9.88107
 20
1402.8
 11
9.89999
 21
1402.5
  0
LINE
  8
0
 10
9.89999
 20
1402.5
 11
9.88107
 21
1402.2
  0
LINE
  8
0
 10
9.88107
 20
1402.2
 11
9.82458
 21
1401.9
  0
LINE
  8
0
 10
9.82458
 20
1401.9
 11
9.73146
 21
1401.62
  0
LINE
  8
0
 10
9.73146
 20
1401.62
 11
9.60313
 21
1401.34
  0
LINE
  8
0
 10
9.60313
 20
1401.34
 11
9.44164
 21
1401.09
  0
LINE
  8
0
 10
9.44164
 20
1401.09
 11
9.24951
 21
1400.86
  0
LINE
  8
0
 10
9.24951
 20
1400.86
 11
9.02982
 21
1400.65
  0
LINE
  8
0
 10
9.02982
 20
1400.65
 11
8.78598
 21
1400.47
  0
LINE
  8
0
 10
8.78598
 20
1400.47
 11
8.52187
 21
1400.33
  0
LINE
  8
0
 10
8.52187
 20
1400.33
 11
8.24164
 21
1400.22
  0
LINE
  8
0
 10
8.24164
 20
1400.22
 11
7.94971
 21
1400.14
  0
LINE
  8
0
 10
7.94971
 20
1400.14
 11
7.6507
 21
1400.1
  0
LINE
  8
0
 10
7.6507
 20
1400.1
 11
7.34929
 21
1400.1
  0
LINE
  8
0
 10
-7.6507
 20
1400.1
 11
-7.94971
 21
1400.14
  0
LINE
  8
0
 10
-7.94971
 20
1400.14
 11
-8.24164
 21
1400.22
  0
LINE
  8
0
 10
-8.24164
 20
1400.22
 11
-8.52187
 21
1400.33
  0
LINE
  8
0
 10
-8.52187
 20
1400.33
 11
-8.78598
 21
1400.47
  0
LINE
  8
0
 10
-8.78598
 20
1400.47
 11
-9.02982
 21
1400.65
  0
LINE
  8
0
 10
-9.02982
 20
1400.65
 11
-9.24951
 21
1400.86
  0
LINE
  8
0
 10
-9.24951
 20
1400.86
 11
-9.44164
 21
1401.09
  0
LINE
  8
0
 10
-9.44164
 20
1401.09
 11
-9.60313
 21
1401.34
  0
LINE
  8
0
 10
-9.60313
 20
1401.34
 11
-9.73146
 21
1401.62
  0
LINE
  8
0
 10
-9.73146
 20
1401.62
 11
-9.82458
 21
1401.9
  0
LINE
  8
0
 10
-9.82458
 20
1401.9
 11
-9.88107
 21
1402.2
  0
LINE
  8
0
 10
-9.88107
 20
1402.2
 11
-9.89999
 21
1402.5
  0
LINE
  8
0
 10
-9.89999
 20
1402.5
 11
-9.88107
 21
1402.8
  0
LINE
  8
0
 10
-9.88107
 20
1402.8
 11
-9.82458
 21
1403.1
  0
LINE
  8
0
 10
-9.82458
 20
1403.1
 11
-9.73146
 21
1403.38
  0
LINE
  8
0
 10
-9.73146
 20
1403.38
 11
-9.60313
 21
1403.66
  0
LINE
  8
0
 10
-9.60313
 20
1403.66
 11
-9.44164
 21
1403.91
  0
LINE
  8
0
 10
-9.44164
 20
1403.91
 11
-9.24951
 21
1404.14
  0
LINE
  8
0
 10
-9.24951
 20
1404.14
 11
-9.02982
 21
1404.35
  0
LINE
  8
0
 10
-9.02982
 20
1404.35
 11
-8.78598
 21
1404.53
  0
LINE
  8
0
 10
-8.78598
 20
1404.53
 11
-8.52187
 21
1404.67
  0
LINE
  8
0
 10
-8.52187
 20
1404.67
 11
-8.24164
 21
1404.78
  0
LINE
  8
0
 10
-8.24164
 20
1404.78
 11
-7.94971
 21
1404.86
  0
LINE
  8
0
 10
-7.94971
 20
1404.86
 11
-7.6507
 21
1404.9
  0
LINE
  8
0
 10
-7.6507
 20
1404.9
 11
-7.34929
 21
1404.9
  0
LINE
  8
0
 10
-7.34929
 20
1404.9
 11
-7.05028
 21
1404.86
  0
LINE
  8
0
 10
-7.05028
 20
1404.86
 11
-6.75835
 21
1404.78
  0
LINE
  8
0
 10
-6.75835
 20
1404.78
 11
-6.47812
 21
1404.67
  0
LINE
  8
0
 10
-6.47812
 20
1404.67
 11
-6.214
 21
1404.53
  0
LINE
  8
0
 10
-6.214
 20
1404.53
 11
-5.97017
 21
1404.35
  0
LINE
  8
0
 10
-5.97017
 20
1404.35
 11
-5.75047
 21
1404.14
  0
LINE
  8
0
 10
-5.75047
 20
1404.14
 11
-5.55835
 21
1403.91
  0
LINE
  8
0
 10
-5.55835
 20
1403.91
 11
-5.39685
 21
1403.66
  0
LINE
  8
0
 10
-5.39685
 20
1403.66
 11
-5.26852
 21
1403.38
  0
LINE
  8
0
 10
-5.26852
 20
1403.38
 11
-5.1754
 21
1403.1
  0
LINE
  8
0
 10
-5.1754
 20
1403.1
 11
-5.11891
 21
1402.8
  0
LINE
  8
0
 10
-5.11891
 20
1402.8
 11
-5.09999
 21
1402.5
  0
LINE
  8
0
 10
-5.09999
 20
1402.5
 11
-5.11891
 21
1402.2
  0
LINE
  8
0
 10
-5.11891
 20
1402.2
 11
-5.1754
 21
1401.9
  0
LINE
  8
0
 10
-5.1754
 20
1401.9
 11
-5.26852
 21
1401.62
  0
LINE
  8
0
 10
-5.26852
 20
1401.62
 11
-5.39685
 21
1401.34
  0
LINE
  8
0
 10
-5.39685
 20
1401.34
 11
-5.55835
 21
1401.09
  0
LINE
  8
0
 10
-5.55835
 20
1401.09
 11
-5.75047
 21
1400.86
  0
LINE
  8
0
 10
-5.75047
 20
1400.86
 11
-5.97017
 21
1400.65
  0
LINE
  8
0
 10
-5.97017
 20
1400.65
 11
-6.214
 21
1400.47
  0
LINE
  8
0
 10
-6.214
 20
1400.47
 11
-6.47812
 21
1400.33
  0
LINE
  8
0
 10
-6.47812
 20
1400.33
 11
-6.75835
 21
1400.22
  0
LINE
  8
0
 10
-6.75835
 20
1400.22
 11
-7.05028
 21
1400.14
  0
LINE
  8
0
 10
-7.05028
 20
1400.14
 11
-7.34929
 21
1400.1
  0
LINE
  8
0
 10
-7.34929
 20
1400.1
 11
-7.6507
 21
1400.1
  0
LINE
  8
0
 10
10.9369
 20
1086.09
 11
11.5451
 21
1086.24
  0
LINE
  8
0
 10
11.5451
 20
1086.24
 11
12.1289
 21
1086.48
  0
LINE
  8
0
 10
12.1289
 20
1086.48
 11
12.6791
 21
1086.78
  0
LINE
  8
0
 10
12.6791
 20
1086.78
 11
13.1871
 21
1087.15
  0
LINE
  8
0
 10
13.1871
 20
1087.15
 11
13.6448
 21
1087.58
  0
LINE
  8
0
 10
13.6448
 20
1087.58
 11
14.0451
 21
1088.06
  0
LINE
  8
0
 10
14.0451
 20
1088.06
 11
14.3815
 21
1088.59
  0
LINE
  8
0
 10
14.3815
 20
1088.59
 11
14.6489
 21
1089.16
  0
LINE
  8
0
 10
14.6489
 20
1089.16
 11
14.8429
 21
1089.76
  0
LINE
  8
0
 10
14.8429
 20
1089.76
 11
14.9606
 21
1090.37
  0
LINE
  8
0
 10
14.9606
 20
1090.37
 11
15
 21
1091
  0
LINE
  8
0
 10
15
 20
1091
 11
15
 21
1381
  0
LINE
  8
0
 10
15
 20
1381
 11
14.9606
 21
1381.63
  0
LINE
  8
0
 10
14.9606
 20
1381.63
 11
14.8429
 21
1382.24
  0
LINE
  8
0
 10
14.8429
 20
1382.24
 11
14.6489
 21
1382.84
  0
LINE
  8
0
 10
14.6489
 20
1382.84
 11
14.3815
 21
1383.41
  0
LINE
  8
0
 10
14.3815
 20
1383.41
 11
14.0451
 21
1383.94
  0
LINE
  8
0
 10
14.0451
 20
1383.94
 11
13.6448
 21
1384.42
  0
LINE
  8
0
 10
13.6448
 20
1384.42
 11
13.1871
 21
1384.85
  0
LINE
  8
0
 10
13.1871
 20
1384.85
 11
12.6791
 21
1385.22
  0
LINE
  8
0
 10
12.6791
 20
1385.22
 11
12.1289
 21
1385.52
  0
LINE
  8
0
 10
12.1289
 20
1385.52
 11
11.5451
 21
1385.76
  0
LINE
  8
0
 10
11.5451
 20
1385.76
 11
10.9369
 21
1385.91
  0
LINE
  8
0
 10
10.9369
 20
1385.91
 11
10.3139
 21
1385.99
  0
LINE
  8
0
 10
10.3139
 20
1385.99
 11
-10.3139
 21
1385.99
  0
LINE
  8
0
 10
-10.3139
 20
1385.99
 11
-10.9369
 21
1385.91
  0
LINE
  8
0
 10
-10.9369
 20
1385.91
 11
-11.5451
 21
1385.76
  0
LINE
  8
0
 10
-11.5451
 20
1385.76
 11
-12.1289
 21
1385.52
  0
LINE
  8
0
 10
-12.1289
 20
1385.52
 11
-12.6791
 21
1385.22
  0
LINE
  8
0
 10
-12.6791
 20
1385.22
 11
-13.1871
 21
1384.85
  0
LINE
  8
0
 10
-13.1871
 20
1384.85
 11
-13.6448
 21
1384.42
  0
LINE
  8
0
 10
-13.6448
 20
1384.42
 11
-14.0451
 21
1383.94
  0
LINE
  8
0
 10
-14.0451
 20
1383.94
 11
-14.3815
 21
1383.41
  0
LINE
  8
0
 10
-14.3815
 20
1383.41
 11
-14.6489
 21
1382.84
  0
LINE
  8
0
 10
-14.6489
 20
1382.84
 11
-14.8429
 21
1382.24
  0
LINE
  8
0
 10
-14.8429
 20
1382.24
 11
-14.9606
 21
1381.63
  0
LINE
  8
0
 10
-14.9606
 20
1381.63
 11
-15
 21
1381
  0
LINE
  8
0
 10
-15
 20
1381
 11
-15
 21
1091
  0
LINE
  8
0
 10
-15
 20
1091
 11
-14.9606
 21
1090.37
  0
LINE
  8
0
 10
-14.9606
 20
1090.37
 11
-14.8429
 21
1089.76
  0
LINE
  8
0
 10
-14.8429
 20
1089.76
 11
-14.6489
 21
1089.16
  0
LINE
  8
0
 10
-14.6489
 20
1089.16
 11
-14.3815
 21
1088.59
  0
LINE
  8
0
 10
-14.3815
 20
1088.59
 11
-14.0451
 21
1088.06
  0
LINE
  8
0
 10
-14.0451
 20
1088.06
 11
-13.6448
 21
1087.58
  0
LINE
  8
0
 10
-13.6448
 20
1087.58
 11
-13.1871
 21
1087.15
  0
LINE
  8
0
 10
-13.1871
 20
1087.15
 11
-12.6791
 21
1086.78
  0
LINE
  8
0
 10
-12.6791
 20
1086.78
 11
-12.1289
 21
1086.48
  0
LINE
  8
0
 10
-12.1289
 20
1086.48
 11
-11.5451
 21
1086.24
  0
LINE
  8
0
 10
-11.5451
 20
1086.24
 11
-10.9369
 21
1086.09
  0
LINE
  8
0
 10
-10.9369
 20
1086.09
 11
-10.3139
 21
1086.01
  0
LINE
  8
0
 10
-10.3139
 20
1086.01
 11
10.3139
 21
1086.01
  0
LINE
  8
0
 10
10.3139
 20
1086.01
 11
10.9369
 21
1086.09
  0
LINE
  8
0
 10
7.38696
 20
1376.7
 11
7.1627
 21
1376.73
  0
LINE
  8
0
 10
7.1627
 20
1376.73
 11
6.94376
 21
1376.79
  0
LINE
  8
0
 10
6.94376
 20
1376.79
 11
6.7336
 21
1376.87
  0
LINE
  8
0
 10
6.7336
 20
1376.87
 11
6.53551
 21
1376.98
  0
LINE
  8
0
 10
6.53551
 20
1376.98
 11
6.35263
 21
1377.11
  0
LINE
  8
0
 10
6.35263
 20
1377.11
 11
6.18785
 21
1377.27
  0
LINE
  8
0
 10
6.18785
 20
1377.27
 11
6.04376
 21
1377.44
  0
LINE
  8
0
 10
6.04376
 20
1377.44
 11
5.92264
 21
1377.63
  0
LINE
  8
0
 10
5.92264
 20
1377.63
 11
5.8264
 21
1377.84
  0
LINE
  8
0
 10
5.8264
 20
1377.84
 11
5.75655
 21
1378.05
  0
LINE
  8
0
 10
5.75655
 20
1378.05
 11
5.71419
 21
1378.27
  0
LINE
  8
0
 10
5.71419
 20
1378.27
 11
5.7
 21
1378.5
  0
LINE
  8
0
 10
5.7
 20
1378.5
 11
5.71419
 21
1378.73
  0
LINE
  8
0
 10
5.71419
 20
1378.73
 11
5.75655
 21
1378.95
  0
LINE
  8
0
 10
5.75655
 20
1378.95
 11
5.8264
 21
1379.16
  0
LINE
  8
0
 10
5.8264
 20
1379.16
 11
5.92264
 21
1379.37
  0
LINE
  8
0
 10
5.92264
 20
1379.37
 11
6.04376
 21
1379.56
  0
LINE
  8
0
 10
6.04376
 20
1379.56
 11
6.18785
 21
1379.73
  0
LINE
  8
0
 10
6.18785
 20
1379.73
 11
6.35263
 21
1379.89
  0
LINE
  8
0
 10
6.35263
 20
1379.89
 11
6.53551
 21
1380.02
  0
LINE
  8
0
 10
6.53551
 20
1380.02
 11
6.7336
 21
1380.13
  0
LINE
  8
0
 10
6.7336
 20
1380.13
 11
6.94376
 21
1380.21
  0
LINE
  8
0
 10
6.94376
 20
1380.21
 11
7.1627
 21
1380.27
  0
LINE
  8
0
 10
7.1627
 20
1380.27
 11
7.38696
 21
1380.3
  0
LINE
  8
0
 10
7.38696
 20
1380.3
 11
7.61302
 21
1380.3
  0
LINE
  8
0
 10
7.61302
 20
1380.3
 11
7.83728
 21
1380.27
  0
LINE
  8
0
 10
7.83728
 20
1380.27
 11
8.05623
 21
1380.21
  0
LINE
  8
0
 10
8.05623
 20
1380.21
 11
8.26639
 21
1380.13
  0
LINE
  8
0
 10
8.26639
 20
1380.13
 11
8.46448
 21
1380.02
  0
LINE
  8
0
 10
8.46448
 20
1380.02
 11
8.64735
 21
1379.89
  0
LINE
  8
0
 10
8.64735
 20
1379.89
 11
8.81213
 21
1379.73
  0
LINE
  8
0
 10
8.81213
 20
1379.73
 11
8.95622
 21
1379.56
  0
LINE
  8
0
 10
8.95622
 20
1379.56
 11
9.07735
 21
1379.37
  0
LINE
  8
0
 10
9.07735
 20
1379.37
 11
9.17358
 21
1379.16
  0
LINE
  8
0
 10
9.17358
 20
1379.16
 11
9.24344
 21
1378.95
  0
LINE
  8
0
 10
9.24344
 20
1378.95
 11
9.2858
 21
1378.73
  0
LINE
  8
0
 10
9.2858
 20
1378.73
 11
9.29999
 21
1378.5
  0
LINE
  8
0
 10
9.29999
 20
1378.5
 11
9.2858
 21
1378.27
  0
LINE
  8
0
 10
9.2858
 20
1378.27
 11
9.24344
 21
1378.05
  0
LINE
  8
0
 10
9.24344
 20
1378.05
 11
9.17358
 21
1377.84
  0
LINE
  8
0
 10
9.17358
 20
1377.84
 11
9.07735
 21
1377.63
  0
LINE
  8
0
 10
9.07735
 20
1377.63
 11
8.95622
 21
1377.44
  0
LINE
  8
0
 10
8.95622
 20
1377.44
 11
8.81213
 21
1377.27
  0
LINE
  8
0
 10
8.81213
 20
1377.27
 11
8.64735
 21
1377.11
  0
LINE
  8
0
 10
8.64735
 20
1377.11
 11
8.46448
 21
1376.98
  0
LINE
  8
0
 10
8.46448
 20
1376.98
 11
8.26639
 21
1376.87
  0
LINE
  8
0
 10
8.26639
 20
1376.87
 11
8.05623
 21
1376.79
  0
LINE
  8
0
 10
8.05623
 20
1376.79
 11
7.83728
 21
1376.73
  0
LINE
  8
0
 10
7.83728
 20
1376.73
 11
7.61302
 21
1376.7
  0
LINE
  8
0
 10
7.61302
 20
1376.7
 11
7.38696
 21
1376.7
  0
LINE
  8
0
 10
-7.61302
 20
1376.7
 11
-7.83728
 21
1376.73
  0
LINE
  8
0
 10
-7.83728
 20
1376.73
 11
-8.05623
 21
1376.79
  0
LINE
  8
0
 10
-8.05623
 20
1376.79
 11
-8.26639
 21
1376.87
  0
LINE
  8
0
 10
-8.26639
 20
1376.87
 11
-8.46448
 21
1376.98
  0
LINE
  8
0
 10
-8.46448
 20
1376.98
 11
-8.64735
 21
1377.11
  0
LINE
  8
0
 10
-8.64735
 20
1377.11
 11
-8.81213
 21
1377.27
  0
LINE
  8
0
 10
-8.81213
 20
1377.27
 11
-8.95622
 21
1377.44
  0
LINE
  8
0
 10
-8.95622
 20
1377.44
 11
-9.07735
 21
1377.63
  0
LINE
  8
0
 10
-9.07735
 20
1377.63
 11
-9.17358
 21
1377.84
  0
LINE
  8
0
 10
-9.17358
 20
1377.84
 11
-9.24344
 21
1378.05
  0
LINE
  8
0
 10
-9.24344
 20
1378.05
 11
-9.2858
 21
1378.27
  0
LINE
  8
0
 10
-9.2858
 20
1378.27
 11
-9.29999
 21
1378.5
  0
LINE
  8
0
 10
-9.29999
 20
1378.5
 11
-9.2858
 21
1378.73
  0
LINE
  8
0
 10
-9.2858
 20
1378.73
 11
-9.24344
 21
1378.95
  0
LINE
  8
0
 10
-9.24344
 20
1378.95
 11
-9.17358
 21
1379.16
  0
LINE
  8
0
 10
-9.17358
 20
1379.16
 11
-9.07735
 21
1379.37
  0
LINE
  8
0
 10
-9.07735
 20
1379.37
 11
-8.95622
 21
1379.56
  0
LINE
  8
0
 10
-8.95622
 20
1379.56
 11
-8.81213
 21
1379.73
  0
LINE
  8
0
 10
-8.81213
 20
1379.73
 11
-8.64735
 21
1379.89
  0
LINE
  8
0
 10
-8.64735
 20
1379.89
 11
-8.46448
 21
1380.02
  0
LINE
  8
0
 10
-8.46448
 20
1380.02
 11
-8.26639
 21
1380.13
  0
LINE
  8
0
 10
-8.26639
 20
1380.13
 11
-8.05623
 21
1380.21
  0
LINE
  8
0
 10
-8.05623
 20
1380.21
 11
-7.83728
 21
1380.27
  0
LINE
  8
0
 10
-7.83728
 20
1380.27
 11
-7.61302
 21
1380.3
  0
LINE
  8
0
 10
-7.61302
 20
1380.3
 11
-7.38696
 21
1380.3
  0
LINE
  8
0
 10
-7.38696
 20
1380.3
 11
-7.1627
 21
1380.27
  0
LINE
  8
0
 10
-7.1627
 20
1380.27
 11
-6.94376
 21
1380.21
  0
LINE
  8
0
 10
-6.94376
 20
1380.21
 11
-6.7336
 21
1380.13
  0
LINE
  8
0
 10
-6.7336
 20
1380.13
 11
-6.53551
 21
1380.02
  0
LINE
  8
0
 10
-6.53551
 20
1380.02
 11
-6.35263
 21
1379.89
  0
LINE
  8
0
 10
-6.35263
 20
1379.89
 11
-6.18785
 21
1379.73
  0
LINE
  8
0
 10
-6.18785
 20
1379.73
 11
-6.04376
 21
1379.56
  0
LINE
  8
0
 10
-6.04376
 20
1379.56
 11
-5.92264
 21
1379.37
  0
LINE
  8
0
 10
-5.92264
 20
1379.37
 11
-5.8264
 21
1379.16
  0
LINE
  8
0
 10
-5.8264
 20
1379.16
 11
-5.75655
 21
1378.95
  0
LINE
  8
0
 10
-5.75655
 20
1378.95
 11
-5.71419
 21
1378.73
  0
LINE
  8
0
 10
-5.71419
 20
1378.73
 11
-5.7
 21
1378.5
  0
LINE
  8
0
 10
-5.7
 20
1378.5
 11
-5.71419
 21
1378.27
  0
LINE
  8
0
 10
-5.71419
 20
1378.27
 11
-5.75655
 21
1378.05
  0
LINE
  8
0
 10
-5.75655
 20
1378.05
 11
-5.8264
 21
1377.84
  0
LINE
  8
0
 10
-5.8264
 20
1377.84
 11
-5.92264
 21
1377.63
  0
LINE
  8
0
 10
-5.92264
 20
1377.63
 11
-6.04376
 21
1377.44
  0
LINE
  8
0
 10
-6.04376
 20
1377.44
 11
-6.18785
 21
1377.27
  0
LINE
  8
0
 10
-6.18785
 20
1377.27
 11
-6.35263
 21
1377.11
  0
LINE
  8
0
 10
-6.35263
 20
1377.11
 11
-6.53551
 21
1376.98
  0
LINE
  8
0
 10
-6.53551
 20
1376.98
 11
-6.7336
 21
1376.87
  0
LINE
  8
0
 10
-6.7336
 20
1376.87
 11
-6.94376
 21
1376.79
  0
LINE
  8
0
 10
-6.94376
 20
1376.79
 11
-7.1627
 21
1376.73
  0
LINE
  8
0
 10
-7.1627
 20
1376.73
 11
-7.38696
 21
1376.7
  0
LINE
  8
0
 10
-7.38696
 20
1376.7
 11
-7.61302
 21
1376.7
  0
LINE
  8
0
 10
-7.61302
 20
1091.7
 11
-7.83728
 21
1091.73
  0
LINE
  8
0
 10
-7.83728
 20
1091.73
 11
-8.05623
 21
1091.79
  0
LINE
  8
0
 10
-8.05623
 20
1091.79
 11
-8.26639
 21
1091.87
  0
LINE
  8
0
 10
-8.26639
 20
1091.87
 11
-8.46448
 21
1091.98
  0
LINE
  8
0
 10
-8.46448
 20
1091.98
 11
-8.64735
 21
1092.11
  0
LINE
  8
0
 10
-8.64735
 20
1092.11
 11
-8.81213
 21
1092.27
  0
LINE
  8
0
 10
-8.81213
 20
1092.27
 11
-8.95622
 21
1092.44
  0
LINE
  8
0
 10
-8.95622
 20
1092.44
 11
-9.07735
 21
1092.63
  0
LINE
  8
0
 10
-9.07735
 20
1092.63
 11
-9.17358
 21
1092.84
  0
LINE
  8
0
 10
-9.17358
 20
1092.84
 11
-9.24344
 21
1093.05
  0
LINE
  8
0
 10
-9.24344
 20
1093.05
 11
-9.2858
 21
1093.27
  0
LINE
  8
0
 10
-9.2858
 20
1093.27
 11
-9.29999
 21
1093.5
  0
LINE
  8
0
 10
-9.29999
 20
1093.5
 11
-9.2858
 21
1093.73
  0
LINE
  8
0
 10
-9.2858
 20
1093.73
 11
-9.24344
 21
1093.95
  0
LINE
  8
0
 10
-9.24344
 20
1093.95
 11
-9.17358
 21
1094.16
  0
LINE
  8
0
 10
-9.17358
 20
1094.16
 11
-9.07735
 21
1094.37
  0
LINE
  8
0
 10
-9.07735
 20
1094.37
 11
-8.95622
 21
1094.56
  0
LINE
  8
0
 10
-8.95622
 20
1094.56
 11
-8.81213
 21
1094.73
  0
LINE
  8
0
 10
-8.81213
 20
1094.73
 11
-8.64735
 21
1094.89
  0
LINE
  8
0
 10
-8.64735
 20
1094.89
 11
-8.46448
 21
1095.02
  0
LINE
  8
0
 10
-8.46448
 20
1095.02
 11
-8.26639
 21
1095.13
  0
LINE
  8
0
 10
-8.26639
 20
1095.13
 11
-8.05623
 21
1095.21
  0
LINE
  8
0
 10
-8.05623
 20
1095.21
 11
-7.83728
 21
1095.27
  0
LINE
  8
0
 10
-7.83728
 20
1095.27
 11
-7.61302
 21
1095.3
  0
LINE
  8
0
 10
-7.61302
 20
1095.3
 11
-7.38696
 21
1095.3
  0
LINE
  8
0
 10
-7.38696
 20
1095.3
 11
-7.1627
 21
1095.27
  0
LINE
  8
0
 10
-7.1627
 20
1095.27
 11
-6.94376
 21
1095.21
  0
LINE
  8
0
 10
-6.94376
 20
1095.21
 11
-6.7336
 21
1095.13
  0
LINE
  8
0
 10
-6.7336
 20
1095.13
 11
-6.53551
 21
1095.02
  0
LINE
  8
0
 10
-6.53551
 20
1095.02
 11
-6.35263
 21
1094.89
  0
LINE
  8
0
 10
-6.35263
 20
1094.89
 11
-6.18785
 21
1094.73
  0
LINE
  8
0
 10
-6.18785
 20
1094.73
 11
-6.04376
 21
1094.56
  0
LINE
  8
0
 10
-6.04376
 20
1094.56
 11
-5.92264
 21
1094.37
  0
LINE
  8
0
 10
-5.92264
 20
1094.37
 11
-5.8264
 21
1094.16
  0
LINE
  8
0
 10
-5.8264
 20
1094.16
 11
-5.75655
 21
1093.95
  0
LINE
  8
0
 10
-5.75655
 20
1093.95
 11
-5.71419
 21
1093.73
  0
LINE
  8
0
 10
-5.71419
 20
1093.73
 11
-5.7
 21
1093.5
  0
LINE
  8
0
 10
-5.7
 20
1093.5
 11
-5.71419
 21
1093.27
  0
LINE
  8
0
 10
-5.71419
 20
1093.27
 11
-5.75655
 21
1093.05
  0
LINE
  8
0
 10
-5.75655
 20
1093.05
 11
-5.8264
 21
1092.84
  0
LINE
  8
0
 10
-5.8264
 20
1092.84
 11
-5.92264
 21
1092.63
  0
LINE
  8
0
 10
-5.92264
 20
1092.63
 11
-6.04376
 21
1092.44
  0
LINE
  8
0
 10
-6.04376
 20
1092.44
 11
-6.18785
 21
1092.27
  0
LINE
  8
0
 10
-6.18785
 20
1092.27
 11
-6.35263
 21
1092.11
  0
LINE
  8
0
 10
-6.35263
 20
1092.11
 11
-6.53551
 21
1091.98
  0
LINE
  8
0
 10
-6.53551
 20
1091.98
 11
-6.7336
 21
1091.87
  0
LINE
  8
0
 10
-6.7336
 20
1091.87
 11
-6.94376
 21
1091.79
  0
LINE
  8
0
 10
-6.94376
 20
1091.79
 11
-7.1627
 21
1091.73
  0
LINE
  8
0
 10
-7.1627
 20
1091.73
 11
-7.38696
 21
1091.7
  0
LINE
  8
0
 10
-7.38696
 20
1091.7
 11
-7.61302
 21
1091.7
  0
LINE
  8
0
 10
7.38696
 20
1091.7
 11
7.1627
 21
1091.73
  0
LINE
  8
0
 10
7.1627
 20
1091.73
 11
6.94376
 21
1091.79
  0
LINE
  8
0
 10
6.94376
 20
1091.79
 11
6.7336
 21
1091.87
  0
LINE
  8
0
 10
6.7336
 20
1091.87
 11
6.53551
 21
1091.98
  0
LINE
  8
0
 10
6.53551
 20
1091.98
 11
6.35263
 21
1092.11
  0
LINE
  8
0
 10
6.35263
 20
1092.11
 11
6.18785
 21
1092.27
  0
LINE
  8
0
 10
6.18785
 20
1092.27
 11
6.04376
 21
1092.44
  0
LINE
  8
0
 10
6.04376
 20
1092.44
 11
5.92264
 21
1092.63
  0
LINE
  8
0
 10
5.92264
 20
1092.63
 11
5.8264
 21
1092.84
  0
LINE
  8
0
 10
5.8264
 20
1092.84
 11
5.75655
 21
1093.05
  0
LINE
  8
0
 10
5.75655
 20
1093.05
 11
5.71419
 21
1093.27
  0
LINE
  8
0
 10
5.71419
 20
1093.27
 11
5.7
 21
1093.5
  0
LINE
  8
0
 10
5.7
 20
1093.5
 11
5.71419
 21
1093.73
  0
LINE
  8
0
 10
5.71419
 20
1093.73
 11
5.75655
 21
1093.95
  0
LINE
  8
0
 10
5.75655
 20
1093.95
 11
5.8264
 21
1094.16
  0
LINE
  8
0
 10
5.8264
 20
1094.16
 11
5.92264
 21
1094.37
  0
LINE
  8
0
 10
5.92264
 20
1094.37
 11
6.04376
 21
1094.56
  0
LINE
  8
0
 10
6.04376
 20
1094.56
 11
6.18785
 21
1094.73
  0
LINE
  8
0
 10
6.18785
 20
1094.73
 11
6.35263
 21
1094.89
  0
LINE
  8
0
 10
6.35263
 20
1094.89
 11
6.53551
 21
1095.02
  0
LINE
  8
0
 10
6.53551
 20
1095.02
 11
6.7336
 21
1095.13
  0
LINE
  8
0
 10
6.7336
 20
1095.13
 11
6.94376
 21
1095.21
  0
LINE
  8
0
 10
6.94376
 20
1095.21
 11
7.1627
 21
1095.27
  0
LINE
  8
0
 10
7.1627
 20
1095.27
 11
7.38696
 21
1095.3
  0
LINE
  8
0
 10
7.38696
 20
1095.3
 11
7.61302
 21
1095.3
  0
LINE
  8
0
 10
7.61302
 20
1095.3
 11
7.83728
 21
1095.27
  0
LINE
  8
0
 10
7.83728
 20
1095.27
 11
8.05623
 21
1095.21
  0
LINE
  8
0
 10
8.05623
 20
1095.21
 11
8.26639
 21
1095.13
  0
LINE
  8
0
 10
8.26639
 20
1095.13
 11
8.46448
 21
1095.02
  0
LINE
  8
0
 10
8.46448
 20
1095.02
 11
8.64735
 21
1094.89
  0
LINE
  8
0
 10
8.64735
 20
1094.89
 11
8.81213
 21
1094.73
  0
LINE
  8
0
 10
8.81213
 20
1094.73
 11
8.95622
 21
1094.56
  0
LINE
  8
0
 10
8.95622
 20
1094.56
 11
9.07735
 21
1094.37
  0
LINE
  8
0
 10
9.07735
 20
1094.37
 11
9.17358
 21
1094.16
  0
LINE
  8
0
 10
9.17358
 20
1094.16
 11
9.24344
 21
1093.95
  0
LINE
  8
0
 10
9.24344
 20
1093.95
 11
9.2858
 21
1093.73
  0
LINE
  8
0
 10
9.2858
 20
1093.73
 11
9.29999
 21
1093.5
  0
LINE
  8
0
 10
9.29999
 20
1093.5
 11
9.2858
 21
1093.27
  0
LINE
  8
0
 10
9.2858
 20
1093.27
 11
9.24344
 21
1093.05
  0
LINE
  8
0
 10
9.24344
 20
1093.05
 11
9.17358
 21
1092.84
  0
LINE
  8
0
 10
9.17358
 20
1092.84
 11
9.07735
 21
1092.63
  0
LINE
  8
0
 10
9.07735
 20
1092.63
 11
8.95622
 21
1092.44
  0
LINE
  8
0
 10
8.95622
 20
1092.44
 11
8.81213
 21
1092.27
  0
LINE
  8
0
 10
8.81213
 20
1092.27
 11
8.64735
 21
1092.11
  0
LINE
  8
0
 10
8.64735
 20
1092.11
 11
8.46448
 21
1091.98
  0
LINE
  8
0
 10
8.46448
 20
1091.98
 11
8.26639
 21
1091.87
  0
LINE
  8
0
 10
8.26639
 20
1091.87
 11
8.05623
 21
1091.79
  0
LINE
  8
0
 10
8.05623
 20
1091.79
 11
7.83728
 21
1091.73
  0
LINE
  8
0
 10
7.83728
 20
1091.73
 11
7.61302
 21
1091.7
  0
LINE
  8
0
 10
7.61302
 20
1091.7
 11
7.38696
 21
1091.7
  0
ENDSEC
  0
SECTION
  2
OBJECTS
  0
DICTIONARY
  0
ENDSEC
  0
EOF
