<?xml version="1.0" standalone="no"?>
<!DOCTYPE svg PUBLIC "-//W3C//DTD SVG 1.1//EN" "http://www.w3.org/Graphics/SVG/1.1/DTD/svg11.dtd">
<svg width="30mm" height="1536mm" viewBox="-15 -2622 30 1536" xmlns="http://www.w3.org/2000/svg" version="1.1">
<title>OpenSCAD Model</title>
<path d="
M 10.9369,-2322.09 L 11.5451,-2322.24 L 12.1289,-2322.48 L 12.6791,-2322.78 L 13.1871,-2323.15 L 13.6448,-2323.58
 L 14.0451,-2324.06 L 14.3815,-2324.59 L 14.6489,-2325.16 L 14.8429,-2325.76 L 14.9606,-2326.37 L 15,-2327
 L 15,-2617 L 14.9606,-2617.63 L 14.8429,-2618.24 L 14.6489,-2618.84 L 14.3815,-2619.41 L 14.0451,-2619.94
 L 13.6448,-2620.42 L 13.1871,-2620.85 L 12.6791,-2621.22 L 12.1289,-2621.52 L 11.5451,-2621.76 L 10.9369,-2621.91
 L 10.3139,-2621.99 L -10.3139,-2621.99 L -10.9369,-2621.91 L -11.5451,-2621.76 L -12.1289,-2621.52 L -12.6791,-2621.22
 L -13.1871,-2620.85 L -13.6448,-2620.42 L -14.0451,-2619.94 L -14.3815,-2619.41 L -14.6489,-2618.84 L -14.8429,-2618.24
 L -14.9606,-2617.63 L -15,-2617 L -15,-2327 L -14.9606,-2326.37 L -14.8429,-2325.76 L -14.6489,-2325.16
 L -14.3815,-2324.59 L -14.0451,-2324.06 L -13.6448,-2323.58 L -13.1871,-2323.15 L -12.6791,-2322.78 L -12.1289,-2322.48
 L -11.5451,-2322.24 L -10.9369,-2322.09 L -10.3139,-2322.01 L 10.3139,-2322.01 z
M -9.75116,-2323.51 L -10.2495,-2323.57 L -10.7361,-2323.7 L -11.2031,-2323.88 L -11.6433,-2324.12 L -12.0497,-2324.42
 L -12.4159,-2324.76 L -12.7361,-2325.15 L -13.0052,-2325.57 L -13.2191,-2326.03 L -13.3743,-2326.51 L -13.4684,-2327
 L -13.5,-2327.5 L -13.5,-2616.5 L -13.4684,-2617 L -13.3743,-2617.49 L -13.2191,-2617.97 L -13.0052,-2618.43
 L -12.7361,-2618.85 L -12.4159,-2619.24 L -12.0497,-2619.58 L -11.6433,-2619.88 L -11.2031,-2620.12 L -10.7361,-2620.3
 L -10.2495,-2620.43 L -9.75116,-2620.49 L 9.75116,-2620.49 L 10.2495,-2620.43 L 10.7361,-2620.3 L 11.2031,-2620.12
 L 11.6433,-2619.88 L 12.0497,-2619.58 L 12.4159,-2619.24 L 12.7361,-2618.85 L 13.0052,-2618.43 L 13.2191,-2617.97
 L 13.3743,-2617.49 L 13.4684,-2617 L 13.5,-2616.5 L 13.5,-2327.5 L 13.4684,-2327 L 13.3743,-2326.51
 L 13.2191,-2326.03 L 13.0052,-2325.57 L 12.7361,-2325.15 L 12.4159,-2324.76 L 12.0497,-2324.42 L 11.6433,-2324.12
 L 11.2031,-2323.88 L 10.7361,-2323.7 L 10.2495,-2323.57 L 9.75116,-2323.51 z
M 10.9369,-2013.09 L 11.5451,-2013.24 L 12.1289,-2013.48 L 12.6791,-2013.78 L 13.1871,-2014.15 L 13.6448,-2014.58
 L 14.0451,-2015.06 L 14.3815,-2015.59 L 14.6489,-2016.16 L 14.8429,-2016.76 L 14.9606,-2017.37 L 15,-2018
 L 15,-2308 L 14.9606,-2308.63 L 14.8429,-2309.24 L 14.6489,-2309.84 L 14.3815,-2310.41 L 14.0451,-2310.94
 L 13.6448,-2311.42 L 13.1871,-2311.85 L 12.6791,-2312.22 L 12.1289,-2312.52 L 11.5451,-2312.76 L 10.9369,-2312.91
 L 10.3139,-2312.99 L -10.3139,-2312.99 L -10.9369,-2312.91 L -11.5451,-2312.76 L -12.1289,-2312.52 L -12.6791,-2312.22
 L -13.1871,-2311.85 L -13.6448,-2311.42 L -14.0451,-2310.94 L -14.3815,-2310.41 L -14.6489,-2309.84 L -14.8429,-2309.24
 L -14.9606,-2308.63 L -15,-2308 L -15,-2018 L -14.9606,-2017.37 L -14.8429,-2016.76 L -14.6489,-2016.16
 L -14.3815,-2015.59 L -14.0451,-2015.06 L -13.6448,-2014.58 L -13.1871,-2014.15 L -12.6791,-2013.78 L -12.1289,-2013.48
 L -11.5451,-2013.24 L -10.9369,-2013.09 L -10.3139,-2013.01 L 10.3139,-2013.01 z
M -9.75116,-2014.51 L -10.2495,-2014.57 L -10.7361,-2014.7 L -11.2031,-2014.88 L -11.6433,-2015.12 L -12.0497,-2015.42
 L -12.4159,-2015.76 L -12.7361,-2016.15 L -13.0052,-2016.57 L -13.2191,-2017.03 L -13.3743,-2017.51 L -13.4684,-2018
 L -13.5,-2018.5 L -13.5,-2307.5 L -13.4684,-2308 L -13.3743,-2308.49 L -13.2191,-2308.97 L -13.0052,-2309.43
 L -12.7361,-2309.85 L -12.4159,-2310.24 L -12.0497,-2310.58 L -11.6433,-2310.88 L -11.2031,-2311.12 L -10.7361,-2311.3
 L -10.2495,-2311.43 L -9.75116,-2311.49 L 9.75116,-2311.49 L 10.2495,-2311.43 L 10.7361,-2311.3 L 11.2031,-2311.12
 L 11.6433,-2310.88 L 12.0497,-2310.58 L 12.4159,-2310.24 L 12.7361,-2309.85 L 13.0052,-2309.43 L 13.2191,-2308.97
 L 13.3743,-2308.49 L 13.4684,-2308 L 13.5,-2307.5 L 13.5,-2018.5 L 13.4684,-2018 L 13.3743,-2017.51
 L 13.2191,-2017.03 L 13.0052,-2016.57 L 12.7361,-2016.15 L 12.4159,-2015.76 L 12.0497,-2015.42 L 11.6433,-2015.12
 L 11.2031,-2014.88 L 10.7361,-2014.7 L 10.2495,-2014.57 L 9.75116,-2014.51 z
M 10.9369,-1704.09 L 11.5451,-1704.24 L 12.1289,-1704.48 L 12.6791,-1704.78 L 13.1871,-1705.15 L 13.6448,-1705.58
 L 14.0451,-1706.06 L 14.3815,-1706.59 L 14.6489,-1707.16 L 14.8429,-1707.76 L 14.9606,-1708.37 L 15,-1709
 L 15,-1999 L 14.9606,-1999.63 L 14.8429,-2000.24 L 14.6489,-2000.84 L 14.3815,-2001.41 L 14.0451,-2001.94
 L 13.6448,-2002.42 L 13.1871,-2002.85 L 12.6791,-2003.22 L 12.1289,-2003.52 L 11.5451,-2003.76 L 10.9369,-2003.91
 L 10.3139,-2003.99 L -10.3139,-2003.99 L -10.9369,-2003.91 L -11.5451,-2003.76 L -12.1289,-2003.52 L -12.6791,-2003.22
 L -13.1871,-2002.85 L -13.6448,-2002.42 L -14.0451,-2001.94 L -14.3815,-2001.41 L -14.6489,-2000.84 L -14.8429,-2000.24
 L -14.9606,-1999.63 L -15,-1999 L -15,-1709 L -14.9606,-1708.37 L -14.8429,-1707.76 L -14.6489,-1707.16
 L -14.3815,-1706.59 L -14.0451,-1706.06 L -13.6448,-1705.58 L -13.1871,-1705.15 L -12.6791,-1704.78 L -12.1289,-1704.48
 L -11.5451,-1704.24 L -10.9369,-1704.09 L -10.3139,-1704.01 L 10.3139,-1704.01 z
M -9.74316,-1705.64 L -10.2256,-1705.7 L -10.6967,-1705.82 L -11.1489,-1706 L -11.5751,-1706.23 L -11.9685,-1706.52
 L -12.323,-1706.85 L -12.633,-1707.22 L -12.8936,-1707.63 L -13.1007,-1708.07 L -13.251,-1708.54 L -13.3421,-1709.01
 L -13.3726,-1709.5 L -13.3726,-1998.5 L -13.3421,-1998.99 L -13.251,-1999.46 L -13.1007,-1999.93 L -12.8936,-2000.37
 L -12.633,-2000.78 L -12.323,-2001.15 L -11.9685,-2001.48 L -11.5751,-2001.77 L -11.1489,-2002 L -10.6967,-2002.18
 L -10.2256,-2002.3 L -9.74316,-2002.36 L 9.74316,-2002.36 L 10.2256,-2002.3 L 10.6967,-2002.18 L 11.1489,-2002
 L 11.5751,-2001.77 L 11.9685,-2001.48 L 12.323,-2001.15 L 12.633,-2000.78 L 12.8936,-2000.37 L 13.1007,-1999.93
 L 13.251,-1999.46 L 13.3421,-1998.99 L 13.3726,-1998.5 L 13.3726,-1709.5 L 13.3421,-1709.01 L 13.251,-1708.54
 L 13.1007,-1708.07 L 12.8936,-1707.63 L 12.633,-1707.22 L 12.323,-1706.85 L 11.9685,-1706.52 L 11.5751,-1706.23
 L 11.1489,-1706 L 10.6967,-1705.82 L 10.2256,-1705.7 L 9.74316,-1705.64 z
M 10.9369,-1395.09 L 11.5451,-1395.24 L 12.1289,-1395.48 L 12.6791,-1395.78 L 13.1871,-1396.15 L 13.6448,-1396.58
 L 14.0451,-1397.06 L 14.3815,-1397.59 L 14.6489,-1398.16 L 14.8429,-1398.76 L 14.9606,-1399.37 L 15,-1400
 L 15,-1690 L 14.9606,-1690.63 L 14.8429,-1691.24 L 14.6489,-1691.84 L 14.3815,-1692.41 L 14.0451,-1692.94
 L 13.6448,-1693.42 L 13.1871,-1693.85 L 12.6791,-1694.22 L 12.1289,-1694.52 L 11.5451,-1694.76 L 10.9369,-1694.91
 L 10.3139,-1694.99 L -10.3139,-1694.99 L -10.9369,-1694.91 L -11.5451,-1694.76 L -12.1289,-1694.52 L -12.6791,-1694.22
 L -13.1871,-1693.85 L -13.6448,-1693.42 L -14.0451,-1692.94 L -14.3815,-1692.41 L -14.6489,-1691.84 L -14.8429,-1691.24
 L -14.9606,-1690.63 L -15,-1690 L -15,-1400 L -14.9606,-1399.37 L -14.8429,-1398.76 L -14.6489,-1398.16
 L -14.3815,-1397.59 L -14.0451,-1397.06 L -13.6448,-1396.58 L -13.1871,-1396.15 L -12.6791,-1395.78 L -12.1289,-1395.48
 L -11.5451,-1395.24 L -10.9369,-1395.09 L -10.3139,-1395.01 L 10.3139,-1395.01 z
M 7.34929,-1685.1 L 7.05028,-1685.14 L 6.75835,-1685.22 L 6.47812,-1685.33 L 6.214,-1685.47 L 5.97017,-1685.65
 L 5.75047,-1685.86 L 5.55835,-1686.09 L 5.39685,-1686.34 L 5.26852,-1686.62 L 5.1754,-1686.9 L 5.11891,-1687.2
 L 5.09999,-1687.5 L 5.11891,-1687.8 L 5.1754,-1688.1 L 5.26852,-1688.38 L 5.39685,-1688.66 L 5.55835,-1688.91
 L 5.75047,-1689.14 L 5.97017,-1689.35 L 6.214,-1689.53 L 6.47812,-1689.67 L 6.75835,-1689.78 L 7.05028,-1689.86
 L 7.34929,-1689.9 L 7.6507,-1689.9 L 7.94971,-1689.86 L 8.24164,-1689.78 L 8.52187,-1689.67 L 8.78598,-1689.53
 L 9.02982,-1689.35 L 9.24951,-1689.14 L 9.44164,-1688.91 L 9.60313,-1688.66 L 9.73146,-1688.38 L 9.82458,-1688.1
 L 9.88107,-1687.8 L 9.89999,-1687.5 L 9.88107,-1687.2 L 9.82458,-1686.9 L 9.73146,-1686.62 L 9.60313,-1686.34
 L 9.44164,-1686.09 L 9.24951,-1685.86 L 9.02982,-1685.65 L 8.78598,-1685.47 L 8.52187,-1685.33 L 8.24164,-1685.22
 L 7.94971,-1685.14 L 7.6507,-1685.1 z
M -7.6507,-1685.1 L -7.94971,-1685.14 L -8.24164,-1685.22 L -8.52187,-1685.33 L -8.78598,-1685.47 L -9.02982,-1685.65
 L -9.24951,-1685.86 L -9.44164,-1686.09 L -9.60313,-1686.34 L -9.73146,-1686.62 L -9.82458,-1686.9 L -9.88107,-1687.2
 L -9.89999,-1687.5 L -9.88107,-1687.8 L -9.82458,-1688.1 L -9.73146,-1688.38 L -9.60313,-1688.66 L -9.44164,-1688.91
 L -9.24951,-1689.14 L -9.02982,-1689.35 L -8.78598,-1689.53 L -8.52187,-1689.67 L -8.24164,-1689.78 L -7.94971,-1689.86
 L -7.6507,-1689.9 L -7.34929,-1689.9 L -7.05028,-1689.86 L -6.75835,-1689.78 L -6.47812,-1689.67 L -6.214,-1689.53
 L -5.97017,-1689.35 L -5.75047,-1689.14 L -5.55835,-1688.91 L -5.39685,-1688.66 L -5.26852,-1688.38 L -5.1754,-1688.1
 L -5.11891,-1687.8 L -5.09999,-1687.5 L -5.11891,-1687.2 L -5.1754,-1686.9 L -5.26852,-1686.62 L -5.39685,-1686.34
 L -5.55835,-1686.09 L -5.75047,-1685.86 L -5.97017,-1685.65 L -6.214,-1685.47 L -6.47812,-1685.33 L -6.75835,-1685.22
 L -7.05028,-1685.14 L -7.34929,-1685.1 z
M 7.34929,-1400.1 L 7.05028,-1400.14 L 6.75835,-1400.22 L 6.47812,-1400.33 L 6.214,-1400.47 L 5.97017,-1400.65
 L 5.75047,-1400.86 L 5.55835,-1401.09 L 5.39685,-1401.34 L 5.26852,-1401.62 L 5.1754,-1401.9 L 5.11891,-1402.2
 L 5.09999,-1402.5 L 5.11891,-1402.8 L 5.1754,-1403.1 L 5.26852,-1403.38 L 5.39685,-1403.66 L 5.55835,-1403.91
 L 5.75047,-1404.14 L 5.97017,-1404.35 L 6.214,-1404.53 L 6.47812,-1404.67 L 6.75835,-1404.78 L 7.05028,-1404.86
 L 7.34929,-1404.9 L 7.6507,-1404.9 L 7.94971,-1404.86 L 8.24164,-1404.78 L 8.52187,-1404.67 L 8.78598,-1404.53
 L 9.02982,-1404.35 L 9.24951,-1404.14 L 9.44164,-1403.91 L 9.60313,-1403.66 L 9.73146,-1403.38 L 9.82458,-1403.1
 L 9.88107,-1402.8 L 9.89999,-1402.5 L 9.88107,-1402.2 L 9.82458,-1401.9 L 9.73146,-1401.62 L 9.60313,-1401.34
 L 9.44164,-1401.09 L 9.24951,-1400.86 L 9.02982,-1400.65 L 8.78598,-1400.47 L 8.52187,-1400.33 L 8.24164,-1400.22
 L 7.94971,-1400.14 L 7.6507,-1400.1 z
M -7.6507,-1400.1 L -7.94971,-1400.14 L -8.24164,-1400.22 L -8.52187,-1400.33 L -8.78598,-1400.47 L -9.02982,-1400.65
 L -9.24951,-1400.86 L -9.44164,-1401.09 L -9.60313,-1401.34 L -9.73146,-1401.62 L -9.82458,-1401.9 L -9.88107,-1402.2
 L -9.89999,-1402.5 L -9.88107,-1402.8 L -9.82458,-1403.1 L -9.73146,-1403.38 L -9.60313,-1403.66 L -9.44164,-1403.91
 L -9.24951,-1404.14 L -9.02982,-1404.35 L -8.78598,-1404.53 L -8.52187,-1404.67 L -8.24164,-1404.78 L -7.94971,-1404.86
 L -7.6507,-1404.9 L -7.34929,-1404.9 L -7.05028,-1404.86 L -6.75835,-1404.78 L -6.47812,-1404.67 L -6.214,-1404.53
 L -5.97017,-1404.35 L -5.75047,-1404.14 L -5.55835,-1403.91 L -5.39685,-1403.66 L -5.26852,-1403.38 L -5.1754,-1403.1
 L -5.11891,-1402.8 L -5.09999,-1402.5 L -5.11891,-1402.2 L -5.1754,-1401.9 L -5.26852,-1401.62 L -5.39685,-1401.34
 L -5.55835,-1401.09 L -5.75047,-1400.86 L -5.97017,-1400.65 L -6.214,-1400.47 L -6.47812,-1400.33 L -6.75835,-1400.22
 L -7.05028,-1400.14 L -7.34929,-1400.1 z
M 10.9369,-1086.09 L 11.5451,-1086.24 L 12.1289,-1086.48 L 12.6791,-1086.78 L 13.1871,-1087.15 L 13.6448,-1087.58
 L 14.0451,-1088.06 L 14.3815,-1088.59 L 14.6489,-1089.16 L 14.8429,-1089.76 L 14.9606,-1090.37 L 15,-1091
 L 15,-1381 L 14.9606,-1381.63 L 14.8429,-1382.24 L 14.6489,-1382.84 L 14.3815,-1383.41 L 14.0451,-1383.94
 L 13.6448,-1384.42 L 13.1871,-1384.85 L 12.6791,-1385.22 L 12.1289,-1385.52 L 11.5451,-1385.76 L 10.9369,-1385.91
 L 10.3139,-1385.99 L -10.3139,-1385.99 L -10.9369,-1385.91 L -11.5451,-1385.76 L -12.1289,-1385.52 L -12.6791,-1385.22
 L -13.1871,-1384.85 L -13.6448,-1384.42 L -14.0451,-1383.94 L -14.3815,-1383.41 L -14.6489,-1382.84 L -14.8429,-1382.24
 L -14.9606,-1381.63 L -15,-1381 L -15,-1091 L -14.9606,-1090.37 L -14.8429,-1089.76 L -14.6489,-1089.16
 L -14.3815,-1088.59 L -14.0451,-1088.06 L -13.6448,-1087.58 L -13.1871,-1087.15 L -12.6791,-1086.78 L -12.1289,-1086.48
 L -11.5451,-1086.24 L -10.9369,-1086.09 L -10.3139,-1086.01 L 10.3139,-1086.01 z
M 7.38696,-1376.7 L 7.1627,-1376.73 L 6.94376,-1376.79 L 6.7336,-1376.87 L 6.53551,-1376.98 L 6.35263,-1377.11
 L 6.18785,-1377.27 L 6.04376,-1377.44 L 5.92264,-1377.63 L 5.8264,-1377.84 L 5.75655,-1378.05 L 5.71419,-1378.27
 L 5.7,-1378.5 L 5.71419,-1378.73 L 5.75655,-1378.95 L 5.8264,-1379.16 L 5.92264,-1379.37 L 6.04376,-1379.56
 L 6.18785,-1379.73 L 6.35263,-1379.89 L 6.53551,-1380.02 L 6.7336,-1380.13 L 6.94376,-1380.21 L 7.1627,-1380.27
 L 7.38696,-1380.3 L 7.61302,-1380.3 L 7.83728,-1380.27 L 8.05623,-1380.21 L 8.26639,-1380.13 L 8.46448,-1380.02
 L 8.64735,-1379.89 L 8.81213,-1379.73 L 8.95622,-1379.56 L 9.07735,-1379.37 L 9.17358,-1379.16 L 9.24344,-1378.95
 L 9.2858,-1378.73 L 9.29999,-1378.5 L 9.2858,-1378.27 L 9.24344,-1378.05 L 9.17358,-1377.84 L 9.07735,-1377.63
 L 8.95622,-1377.44 L 8.81213,-1377.27 L 8.64735,-1377.11 L 8.46448,-1376.98 L 8.26639,-1376.87 L 8.05623,-1376.79
 L 7.83728,-1376.73 L 7.61302,-1376.7 z
M -7.61302,-1376.7 L -7.83728,-1376.73 L -8.05623,-1376.79 L -8.26639,-1376.87 L -8.46448,-1376.98 L -8.64735,-1377.11
 L -8.81213,-1377.27 L -8.95622,-1377.44 L -9.07735,-1377.63 L -9.17358,-1377.84 L -9.24344,-1378.05 L -9.2858,-1378.27
 L -9.29999,-1378.5 L -9.2858,-1378.73 L -9.24344,-1378.95 L -9.17358,-1379.16 L -9.07735,-1379.37 L -8.95622,-1379.56
 L -8.81213,-1379.73 L -8.64735,-1379.89 L -8.46448,-1380.02 L -8.26639,-1380.13 L -8.05623,-1380.21 L -7.83728,-1380.27
 L -7.61302,-1380.3 L -7.38696,-1380.3 L -7.1627,-1380.27 L -6.94376,-1380.21 L -6.7336,-1380.13 L -6.53551,-1380.02
 L -6.35263,-1379.89 L -6.18785,-1379.73 L -6.04376,-1379.56 L -5.92264,-1379.37 L -5.8264,-1379.16 L -5.75655,-1378.95
 L -5.71419,-1378.73 L -5.7,-1378.5 L -5.71419,-1378.27 L -5.75655,-1378.05 L -5.8264,-1377.84 L -5.92264,-1377.63
 L -6.04376,-1377.44 L -6.18785,-1377.27 L -6.35263,-1377.11 L -6.53551,-1376.98 L -6.7336,-1376.87 L -6.94376,-1376.79
 L -7.1627,-1376.73 L -7.38696,-1376.7 z
M -7.61302,-1091.7 L -7.83728,-1091.73 L -8.05623,-1091.79 L -8.26639,-1091.87 L -8.46448,-1091.98 L -8.64735,-1092.11
 L -8.81213,-1092.27 L -8.95622,-1092.44 L -9.07735,-1092.63 L -9.17358,-1092.84 L -9.24344,-1093.05 L -9.2858,-1093.27
 L -9.29999,-1093.5 L -9.2858,-1093.73 L -9.24344,-1093.95 L -9.17358,-1094.16 L -9.07735,-1094.37 L -8.95622,-1094.56
 L -8.81213,-1094.73 L -8.64735,-1094.89 L -8.46448,-1095.02 L -8.26639,-1095.13 L -8.05623,-1095.21 L -7.83728,-1095.27
 L -7.61302,-1095.3 L -7.38696,-1095.3 L -7.1627,-1095.27 L -6.94376,-1095.21 L -6.7336,-1095.13 L -6.53551,-1095.02
 L -6.35263,-1094.89 L -6.18785,-1094.73 L -6.04376,-1094.56 L -5.92264,-1094.37 L -5.8264,-1094.16 L -5.75655,-1093.95
 L -5.71419,-1093.73 L -5.7,-1093.5 L -5.71419,-1093.27 L -5.75655,-1093.05 L -5.8264,-1092.84 L -5.92264,-1092.63
 L -6.04376,-1092.44 L -6.18785,-1092.27 L -6.35263,-1092.11 L -6.53551,-1091.98 L -6.7336,-1091.87 L -6.94376,-1091.79
 L -7.1627,-1091.73 L -7.38696,-1091.7 z
M 7.38696,-1091.7 L 7.1627,-1091.73 L 6.94376,-1091.79 L 6.7336,-1091.87 L 6.53551,-1091.98 L 6.35263,-1092.11
 L 6.18785,-1092.27 L 6.04376,-1092.44 L 5.92264,-1092.63 L 5.8264,-1092.84 L 5.75655,-1093.05 L 5.71419,-1093.27
 L 5.7,-1093.5 L 5.71419,-1093.73 L 5.75655,-1093.95 L 5.8264,-1094.16 L 5.92264,-1094.37 L 6.04376,-1094.56
 L 6.18785,-1094.73 L 6.35263,-1094.89 L 6.53551,-1095.02 L 6.7336,-1095.13 L 6.94376,-1095.21 L 7.1627,-1095.27
 L 7.38696,-1095.3 L 7.61302,-1095.3 L 7.83728,-1095.27 L 8.05623,-1095.21 L 8.26639,-1095.13 L 8.46448,-1095.02
 L 8.64735,-1094.89 L 8.81213,-1094.73 L 8.95622,-1094.56 L 9.07735,-1094.37 L 9.17358,-1094.16 L 9.24344,-1093.95
 L 9.2858,-1093.73 L 9.29999,-1093.5 L 9.2858,-1093.27 L 9.24344,-1093.05 L 9.17358,-1092.84 L 9.07735,-1092.63
 L 8.95622,-1092.44 L 8.81213,-1092.27 L 8.64735,-1092.11 L 8.46448,-1091.98 L 8.26639,-1091.87 L 8.05623,-1091.79
 L 7.83728,-1091.73 L 7.61302,-1091.7 z
" stroke="black" fill="lightgray" stroke-width="0.5"/>
</svg>
