<?xml version="1.0" standalone="no"?>
<!DOCTYPE svg PUBLIC "-//W3C//DTD SVG 1.1//EN" "http://www.w3.org/Graphics/SVG/1.1/DTD/svg11.dtd">
<svg width="38mm" height="267mm" viewBox="-19 -444 38 267" xmlns="http://www.w3.org/2000/svg" version="1.1">
<title>OpenSCAD Model</title>
<path d="
M 14.6869,-384.089 L 15.2951,-384.245 L 15.8789,-384.476 L 16.4291,-384.778 L 16.9371,-385.147 L 17.3948,-385.577
 L 17.7951,-386.061 L 18.1315,-386.591 L 18.3989,-387.159 L 18.5929,-387.757 L 18.7106,-388.373 L 18.75,-389
 L 18.75,-439 L 18.7106,-439.627 L 18.5929,-440.243 L 18.3989,-440.841 L 18.1315,-441.409 L 17.7951,-441.939
 L 17.3948,-442.423 L 16.9371,-442.853 L 16.4291,-443.222 L 15.8789,-443.524 L 15.2951,-443.755 L 14.6869,-443.911
 L 14.0639,-443.99 L -14.0639,-443.99 L -14.6869,-443.911 L -15.2951,-443.755 L -15.8789,-443.524 L -16.4291,-443.222
 L -16.9371,-442.853 L -17.3948,-442.423 L -17.7951,-441.939 L -18.1315,-441.409 L -18.3989,-440.841 L -18.5929,-440.243
 L -18.7106,-439.627 L -18.75,-439 L -18.75,-389 L -18.7106,-388.373 L -18.5929,-387.757 L -18.3989,-387.159
 L -18.1315,-386.591 L -17.7951,-386.061 L -17.3948,-385.577 L -16.9371,-385.147 L -16.4291,-384.778 L -15.8789,-384.476
 L -15.2951,-384.245 L -14.6869,-384.089 L -14.0639,-384.01 L 14.0639,-384.01 z
M -13.7982,-384.509 L -14.3901,-384.584 L -14.9678,-384.732 L -15.5224,-384.952 L -16.0452,-385.239 L -16.5278,-385.59
 L -16.9626,-385.998 L -17.3428,-386.458 L -17.6624,-386.962 L -17.9164,-387.501 L -18.1008,-388.069 L -18.2125,-388.655
 L -18.25,-389.25 L -18.25,-438.75 L -18.2125,-439.345 L -18.1008,-439.931 L -17.9164,-440.499 L -17.6624,-441.038
 L -17.3428,-441.542 L -16.9626,-442.002 L -16.5278,-442.41 L -16.0452,-442.761 L -15.5224,-443.048 L -14.9678,-443.268
 L -14.3901,-443.416 L -13.7982,-443.491 L 13.7982,-443.491 L 14.3901,-443.416 L 14.9678,-443.268 L 15.5224,-443.048
 L 16.0452,-442.761 L 16.5278,-442.41 L 16.9626,-442.002 L 17.3428,-441.542 L 17.6624,-441.038 L 17.9164,-440.499
 L 18.1008,-439.931 L 18.2125,-439.345 L 18.25,-438.75 L 18.25,-389.25 L 18.2125,-388.655 L 18.1008,-388.069
 L 17.9164,-387.501 L 17.6624,-386.962 L 17.3428,-386.458 L 16.9626,-385.998 L 16.5278,-385.59 L 16.0452,-385.239
 L 15.5224,-384.952 L 14.9678,-384.732 L 14.3901,-384.584 L 13.7982,-384.509 z
M 14.6869,-315.089 L 15.2951,-315.245 L 15.8789,-315.476 L 16.4291,-315.778 L 16.9371,-316.147 L 17.3948,-316.577
 L 17.7951,-317.061 L 18.1315,-317.591 L 18.3989,-318.159 L 18.5929,-318.757 L 18.7106,-319.373 L 18.75,-320
 L 18.75,-370 L 18.7106,-370.627 L 18.5929,-371.243 L 18.3989,-371.841 L 18.1315,-372.409 L 17.7951,-372.939
 L 17.3948,-373.423 L 16.9371,-373.853 L 16.4291,-374.222 L 15.8789,-374.524 L 15.2951,-374.755 L 14.6869,-374.911
 L 14.0639,-374.99 L -14.0639,-374.99 L -14.6869,-374.911 L -15.2951,-374.755 L -15.8789,-374.524 L -16.4291,-374.222
 L -16.9371,-373.853 L -17.3948,-373.423 L -17.7951,-372.939 L -18.1315,-372.409 L -18.3989,-371.841 L -18.5929,-371.243
 L -18.7106,-370.627 L -18.75,-370 L -18.75,-320 L -18.7106,-319.373 L -18.5929,-318.757 L -18.3989,-318.159
 L -18.1315,-317.591 L -17.7951,-317.061 L -17.3948,-316.577 L -16.9371,-316.147 L -16.4291,-315.778 L -15.8789,-315.476
 L -15.2951,-315.245 L -14.6869,-315.089 L -14.0639,-315.01 L 14.0639,-315.01 z
M -13.7982,-315.509 L -14.3901,-315.584 L -14.9678,-315.732 L -15.5224,-315.952 L -16.0452,-316.239 L -16.5278,-316.59
 L -16.9626,-316.998 L -17.3428,-317.458 L -17.6624,-317.962 L -17.9164,-318.501 L -18.1008,-319.069 L -18.2125,-319.655
 L -18.25,-320.25 L -18.25,-369.75 L -18.2125,-370.345 L -18.1008,-370.931 L -17.9164,-371.499 L -17.6624,-372.038
 L -17.3428,-372.542 L -16.9626,-373.002 L -16.5278,-373.41 L -16.0452,-373.761 L -15.5224,-374.048 L -14.9678,-374.268
 L -14.3901,-374.416 L -13.7982,-374.491 L 13.7982,-374.491 L 14.3901,-374.416 L 14.9678,-374.268 L 15.5224,-374.048
 L 16.0452,-373.761 L 16.5278,-373.41 L 16.9626,-373.002 L 17.3428,-372.542 L 17.6624,-372.038 L 17.9164,-371.499
 L 18.1008,-370.931 L 18.2125,-370.345 L 18.25,-369.75 L 18.25,-320.25 L 18.2125,-319.655 L 18.1008,-319.069
 L 17.9164,-318.501 L 17.6624,-317.962 L 17.3428,-317.458 L 16.9626,-316.998 L 16.5278,-316.59 L 16.0452,-316.239
 L 15.5224,-315.952 L 14.9678,-315.732 L 14.3901,-315.584 L 13.7982,-315.509 z
M 14.6869,-246.089 L 15.2951,-246.245 L 15.8789,-246.476 L 16.4291,-246.778 L 16.9371,-247.147 L 17.3948,-247.577
 L 17.7951,-248.061 L 18.1315,-248.591 L 18.3989,-249.159 L 18.5929,-249.757 L 18.7106,-250.373 L 18.75,-251
 L 18.75,-301 L 18.7106,-301.627 L 18.5929,-302.243 L 18.3989,-302.841 L 18.1315,-303.409 L 17.7951,-303.939
 L 17.3948,-304.423 L 16.9371,-304.853 L 16.4291,-305.222 L 15.8789,-305.524 L 15.2951,-305.755 L 14.6869,-305.911
 L 14.0639,-305.99 L -14.0639,-305.99 L -14.6869,-305.911 L -15.2951,-305.755 L -15.8789,-305.524 L -16.4291,-305.222
 L -16.9371,-304.853 L -17.3948,-304.423 L -17.7951,-303.939 L -18.1315,-303.409 L -18.3989,-302.841 L -18.5929,-302.243
 L -18.7106,-301.627 L -18.75,-301 L -18.75,-251 L -18.7106,-250.373 L -18.5929,-249.757 L -18.3989,-249.159
 L -18.1315,-248.591 L -17.7951,-248.061 L -17.3948,-247.577 L -16.9371,-247.147 L -16.4291,-246.778 L -15.8789,-246.476
 L -15.2951,-246.245 L -14.6869,-246.089 L -14.0639,-246.01 L 14.0639,-246.01 z
M -13.743,-247.388 L -14.2251,-247.449 L -14.6957,-247.57 L -15.1475,-247.749 L -15.5734,-247.983 L -15.9665,-248.269
 L -16.3207,-248.601 L -16.6305,-248.976 L -16.8908,-249.386 L -17.0977,-249.826 L -17.2479,-250.288 L -17.339,-250.765
 L -17.3695,-251.25 L -17.3695,-300.75 L -17.339,-301.235 L -17.2479,-301.712 L -17.0977,-302.174 L -16.8908,-302.614
 L -16.6305,-303.024 L -16.3207,-303.399 L -15.9665,-303.731 L -15.5734,-304.017 L -15.1475,-304.251 L -14.6957,-304.43
 L -14.2251,-304.551 L -13.743,-304.612 L 13.743,-304.612 L 14.2251,-304.551 L 14.6957,-304.43 L 15.1475,-304.251
 L 15.5734,-304.017 L 15.9665,-303.731 L 16.3207,-303.399 L 16.6305,-303.024 L 16.8908,-302.614 L 17.0977,-302.174
 L 17.2479,-301.712 L 17.339,-301.235 L 17.3695,-300.75 L 17.3695,-251.25 L 17.339,-250.765 L 17.2479,-250.288
 L 17.0977,-249.826 L 16.8908,-249.386 L 16.6305,-248.976 L 16.3207,-248.601 L 15.9665,-248.269 L 15.5734,-247.983
 L 15.1475,-247.749 L 14.6957,-247.57 L 14.2251,-247.449 L 13.743,-247.388 z
M 14.6869,-177.089 L 15.2951,-177.245 L 15.8789,-177.476 L 16.4291,-177.778 L 16.9371,-178.147 L 17.3948,-178.577
 L 17.7951,-179.061 L 18.1315,-179.591 L 18.3989,-180.159 L 18.5929,-180.757 L 18.7106,-181.373 L 18.75,-182
 L 18.75,-232 L 18.7106,-232.627 L 18.5929,-233.243 L 18.3989,-233.841 L 18.1315,-234.409 L 17.7951,-234.939
 L 17.3948,-235.423 L 16.9371,-235.853 L 16.4291,-236.222 L 15.8789,-236.524 L 15.2951,-236.755 L 14.6869,-236.911
 L 14.0639,-236.99 L -14.0639,-236.99 L -14.6869,-236.911 L -15.2951,-236.755 L -15.8789,-236.524 L -16.4291,-236.222
 L -16.9371,-235.853 L -17.3948,-235.423 L -17.7951,-234.939 L -18.1315,-234.409 L -18.3989,-233.841 L -18.5929,-233.243
 L -18.7106,-232.627 L -18.75,-232 L -18.75,-182 L -18.7106,-181.373 L -18.5929,-180.757 L -18.3989,-180.159
 L -18.1315,-179.591 L -17.7951,-179.061 L -17.3948,-178.577 L -16.9371,-178.147 L -16.4291,-177.778 L -15.8789,-177.476
 L -15.2951,-177.245 L -14.6869,-177.089 L -14.0639,-177.01 L 14.0639,-177.01 z
M 11.137,-227.704 L 10.9127,-227.732 L 10.6938,-227.788 L 10.4836,-227.871 L 10.2855,-227.98 L 10.1026,-228.113
 L 9.93785,-228.268 L 9.79376,-228.442 L 9.67264,-228.633 L 9.5764,-228.837 L 9.50655,-229.052 L 9.46419,-229.274
 L 9.45,-229.5 L 9.46419,-229.726 L 9.50655,-229.948 L 9.5764,-230.163 L 9.67264,-230.367 L 9.79376,-230.558
 L 9.93785,-230.732 L 10.1026,-230.887 L 10.2855,-231.02 L 10.4836,-231.129 L 10.6938,-231.212 L 10.9127,-231.268
 L 11.137,-231.296 L 11.363,-231.296 L 11.5873,-231.268 L 11.8062,-231.212 L 12.0164,-231.129 L 12.2145,-231.02
 L 12.3974,-230.887 L 12.5621,-230.732 L 12.7062,-230.558 L 12.8273,-230.367 L 12.9236,-230.163 L 12.9934,-229.948
 L 13.0358,-229.726 L 13.05,-229.5 L 13.0358,-229.274 L 12.9934,-229.052 L 12.9236,-228.837 L 12.8273,-228.633
 L 12.7062,-228.442 L 12.5621,-228.268 L 12.3974,-228.113 L 12.2145,-227.98 L 12.0164,-227.871 L 11.8062,-227.788
 L 11.5873,-227.732 L 11.363,-227.704 z
M -11.363,-227.704 L -11.5873,-227.732 L -11.8062,-227.788 L -12.0164,-227.871 L -12.2145,-227.98 L -12.3974,-228.113
 L -12.5621,-228.268 L -12.7062,-228.442 L -12.8273,-228.633 L -12.9236,-228.837 L -12.9934,-229.052 L -13.0358,-229.274
 L -13.05,-229.5 L -13.0358,-229.726 L -12.9934,-229.948 L -12.9236,-230.163 L -12.8273,-230.367 L -12.7062,-230.558
 L -12.5621,-230.732 L -12.3974,-230.887 L -12.2145,-231.02 L -12.0164,-231.129 L -11.8062,-231.212 L -11.5873,-231.268
 L -11.363,-231.296 L -11.137,-231.296 L -10.9127,-231.268 L -10.6938,-231.212 L -10.4836,-231.129 L -10.2855,-231.02
 L -10.1026,-230.887 L -9.93785,-230.732 L -9.79376,-230.558 L -9.67264,-230.367 L -9.5764,-230.163 L -9.50655,-229.948
 L -9.46419,-229.726 L -9.45,-229.5 L -9.46419,-229.274 L -9.50655,-229.052 L -9.5764,-228.837 L -9.67264,-228.633
 L -9.79376,-228.442 L -9.93785,-228.268 L -10.1026,-228.113 L -10.2855,-227.98 L -10.4836,-227.871 L -10.6938,-227.788
 L -10.9127,-227.732 L -11.137,-227.704 z
M 11.137,-182.704 L 10.9127,-182.732 L 10.6938,-182.788 L 10.4836,-182.871 L 10.2855,-182.98 L 10.1026,-183.113
 L 9.93785,-183.268 L 9.79376,-183.442 L 9.67264,-183.633 L 9.5764,-183.837 L 9.50655,-184.052 L 9.46419,-184.274
 L 9.45,-184.5 L 9.46419,-184.726 L 9.50655,-184.948 L 9.5764,-185.163 L 9.67264,-185.367 L 9.79376,-185.558
 L 9.93785,-185.732 L 10.1026,-185.887 L 10.2855,-186.02 L 10.4836,-186.129 L 10.6938,-186.212 L 10.9127,-186.268
 L 11.137,-186.296 L 11.363,-186.296 L 11.5873,-186.268 L 11.8062,-186.212 L 12.0164,-186.129 L 12.2145,-186.02
 L 12.3974,-185.887 L 12.5621,-185.732 L 12.7062,-185.558 L 12.8273,-185.367 L 12.9236,-185.163 L 12.9934,-184.948
 L 13.0358,-184.726 L 13.05,-184.5 L 13.0358,-184.274 L 12.9934,-184.052 L 12.9236,-183.837 L 12.8273,-183.633
 L 12.7062,-183.442 L 12.5621,-183.268 L 12.3974,-183.113 L 12.2145,-182.98 L 12.0164,-182.871 L 11.8062,-182.788
 L 11.5873,-182.732 L 11.363,-182.704 z
M -11.363,-182.704 L -11.5873,-182.732 L -11.8062,-182.788 L -12.0164,-182.871 L -12.2145,-182.98 L -12.3974,-183.113
 L -12.5621,-183.268 L -12.7062,-183.442 L -12.8273,-183.633 L -12.9236,-183.837 L -12.9934,-184.052 L -13.0358,-184.274
 L -13.05,-184.5 L -13.0358,-184.726 L -12.9934,-184.948 L -12.9236,-185.163 L -12.8273,-185.367 L -12.7062,-185.558
 L -12.5621,-185.732 L -12.3974,-185.887 L -12.2145,-186.02 L -12.0164,-186.129 L -11.8062,-186.212 L -11.5873,-186.268
 L -11.363,-186.296 L -11.137,-186.296 L -10.9127,-186.268 L -10.6938,-186.212 L -10.4836,-186.129 L -10.2855,-186.02
 L -10.1026,-185.887 L -9.93785,-185.732 L -9.79376,-185.558 L -9.67264,-185.367 L -9.5764,-185.163 L -9.50655,-184.948
 L -9.46419,-184.726 L -9.45,-184.5 L -9.46419,-184.274 L -9.50655,-184.052 L -9.5764,-183.837 L -9.67264,-183.633
 L -9.79376,-183.442 L -9.93785,-183.268 L -10.1026,-183.113 L -10.2855,-182.98 L -10.4836,-182.871 L -10.6938,-182.788
 L -10.9127,-182.732 L -11.137,-182.704 z
" stroke="black" fill="lightgray" stroke-width="0.5"/>
</svg>
