<?xml version="1.0" standalone="no"?>
<!DOCTYPE svg PUBLIC "-//W3C//DTD SVG 1.1//EN" "http://www.w3.org/Graphics/SVG/1.1/DTD/svg11.dtd">
<svg width="136mm" height="369mm" viewBox="-68 -468 136 369" xmlns="http://www.w3.org/2000/svg" version="1.1">
<title>OpenSCAD Model</title>
<path d="
M 63.4369,-288.089 L 64.0451,-288.245 L 64.6289,-288.476 L 65.1791,-288.778 L 65.6871,-289.147 L 66.1448,-289.577
 L 66.5451,-290.061 L 66.8815,-290.591 L 67.1489,-291.159 L 67.3429,-291.757 L 67.4606,-292.373 L 67.5,-293
 L 67.5,-463 L 67.4606,-463.627 L 67.3429,-464.243 L 67.1489,-464.841 L 66.8815,-465.409 L 66.5451,-465.939
 L 66.1448,-466.423 L 65.6871,-466.853 L 65.1791,-467.222 L 64.6289,-467.524 L 64.0451,-467.755 L 63.4369,-467.911
 L 62.8139,-467.99 L -62.8139,-467.99 L -63.4369,-467.911 L -64.0451,-467.755 L -64.6289,-467.524 L -65.1791,-467.222
 L -65.6871,-466.853 L -66.1448,-466.423 L -66.5451,-465.939 L -66.8815,-465.409 L -67.1489,-464.841 L -67.3429,-464.243
 L -67.4606,-463.627 L -67.5,-463 L -67.5,-293 L -67.4606,-292.373 L -67.3429,-291.757 L -67.1489,-291.159
 L -66.8815,-290.591 L -66.5451,-290.061 L -66.1448,-289.577 L -65.6871,-289.147 L -65.1791,-288.778 L -64.6289,-288.476
 L -64.0451,-288.245 L -63.4369,-288.089 L -62.8139,-288.01 L 62.8139,-288.01 z
M 63.4369,-99.0886 L 64.0451,-99.2447 L 64.6289,-99.4759 L 65.1791,-99.7784 L 65.6871,-100.147 L 66.1448,-100.577
 L 66.5451,-101.061 L 66.8815,-101.591 L 67.1489,-102.159 L 67.3429,-102.757 L 67.4606,-103.373 L 67.5,-104
 L 67.5,-274 L 67.4606,-274.627 L 67.3429,-275.243 L 67.1489,-275.841 L 66.8815,-276.409 L 66.5451,-276.939
 L 66.1448,-277.423 L 65.6871,-277.853 L 65.1791,-278.222 L 64.6289,-278.524 L 64.0451,-278.755 L 63.4369,-278.911
 L 62.8139,-278.99 L -62.8139,-278.99 L -63.4369,-278.911 L -64.0451,-278.755 L -64.6289,-278.524 L -65.1791,-278.222
 L -65.6871,-277.853 L -66.1448,-277.423 L -66.5451,-276.939 L -66.8815,-276.409 L -67.1489,-275.841 L -67.3429,-275.243
 L -67.4606,-274.627 L -67.5,-274 L -67.5,-104 L -67.4606,-103.373 L -67.3429,-102.757 L -67.1489,-102.159
 L -66.8815,-101.591 L -66.5451,-101.061 L -66.1448,-100.577 L -65.6871,-100.147 L -65.1791,-99.7784 L -64.6289,-99.4759
 L -64.0451,-99.2447 L -63.4369,-99.0886 L -62.8139,-99.0099 L 62.8139,-99.0099 z
M 59.887,-269.704 L 59.6627,-269.732 L 59.4438,-269.788 L 59.2336,-269.871 L 59.0355,-269.98 L 58.8526,-270.113
 L 58.6879,-270.268 L 58.5438,-270.442 L 58.4226,-270.633 L 58.3264,-270.837 L 58.2565,-271.052 L 58.2142,-271.274
 L 58.2,-271.5 L 58.2142,-271.726 L 58.2565,-271.948 L 58.3264,-272.163 L 58.4226,-272.367 L 58.5438,-272.558
 L 58.6879,-272.732 L 58.8526,-272.887 L 59.0355,-273.02 L 59.2336,-273.129 L 59.4438,-273.212 L 59.6627,-273.268
 L 59.887,-273.296 L 60.113,-273.296 L 60.3373,-273.268 L 60.5562,-273.212 L 60.7664,-273.129 L 60.9645,-273.02
 L 61.1474,-272.887 L 61.3121,-272.732 L 61.4562,-272.558 L 61.5773,-272.367 L 61.6736,-272.163 L 61.7434,-271.948
 L 61.7858,-271.726 L 61.8,-271.5 L 61.7858,-271.274 L 61.7434,-271.052 L 61.6736,-270.837 L 61.5773,-270.633
 L 61.4562,-270.442 L 61.3121,-270.268 L 61.1474,-270.113 L 60.9645,-269.98 L 60.7664,-269.871 L 60.5562,-269.788
 L 60.3373,-269.732 L 60.113,-269.704 z
M -60.113,-269.704 L -60.3373,-269.732 L -60.5562,-269.788 L -60.7664,-269.871 L -60.9645,-269.98 L -61.1474,-270.113
 L -61.3121,-270.268 L -61.4562,-270.442 L -61.5773,-270.633 L -61.6736,-270.837 L -61.7434,-271.052 L -61.7858,-271.274
 L -61.8,-271.5 L -61.7858,-271.726 L -61.7434,-271.948 L -61.6736,-272.163 L -61.5773,-272.367 L -61.4562,-272.558
 L -61.3121,-272.732 L -61.1474,-272.887 L -60.9645,-273.02 L -60.7664,-273.129 L -60.5562,-273.212 L -60.3373,-273.268
 L -60.113,-273.296 L -59.887,-273.296 L -59.6627,-273.268 L -59.4438,-273.212 L -59.2336,-273.129 L -59.0355,-273.02
 L -58.8526,-272.887 L -58.6879,-272.732 L -58.5438,-272.558 L -58.4226,-272.367 L -58.3264,-272.163 L -58.2565,-271.948
 L -58.2142,-271.726 L -58.2,-271.5 L -58.2142,-271.274 L -58.2565,-271.052 L -58.3264,-270.837 L -58.4226,-270.633
 L -58.5438,-270.442 L -58.6879,-270.268 L -58.8526,-270.113 L -59.0355,-269.98 L -59.2336,-269.871 L -59.4438,-269.788
 L -59.6627,-269.732 L -59.887,-269.704 z
M -60.113,-104.704 L -60.3373,-104.732 L -60.5562,-104.788 L -60.7664,-104.871 L -60.9645,-104.98 L -61.1474,-105.113
 L -61.3121,-105.268 L -61.4562,-105.442 L -61.5773,-105.633 L -61.6736,-105.837 L -61.7434,-106.052 L -61.7858,-106.274
 L -61.8,-106.5 L -61.7858,-106.726 L -61.7434,-106.948 L -61.6736,-107.163 L -61.5773,-107.367 L -61.4562,-107.558
 L -61.3121,-107.732 L -61.1474,-107.887 L -60.9645,-108.02 L -60.7664,-108.129 L -60.5562,-108.212 L -60.3373,-108.268
 L -60.113,-108.296 L -59.887,-108.296 L -59.6627,-108.268 L -59.4438,-108.212 L -59.2336,-108.129 L -59.0355,-108.02
 L -58.8526,-107.887 L -58.6879,-107.732 L -58.5438,-107.558 L -58.4226,-107.367 L -58.3264,-107.163 L -58.2565,-106.948
 L -58.2142,-106.726 L -58.2,-106.5 L -58.2142,-106.274 L -58.2565,-106.052 L -58.3264,-105.837 L -58.4226,-105.633
 L -58.5438,-105.442 L -58.6879,-105.268 L -58.8526,-105.113 L -59.0355,-104.98 L -59.2336,-104.871 L -59.4438,-104.788
 L -59.6627,-104.732 L -59.887,-104.704 z
M 59.887,-104.704 L 59.6627,-104.732 L 59.4438,-104.788 L 59.2336,-104.871 L 59.0355,-104.98 L 58.8526,-105.113
 L 58.6879,-105.268 L 58.5438,-105.442 L 58.4226,-105.633 L 58.3264,-105.837 L 58.2565,-106.052 L 58.2142,-106.274
 L 58.2,-106.5 L 58.2142,-106.726 L 58.2565,-106.948 L 58.3264,-107.163 L 58.4226,-107.367 L 58.5438,-107.558
 L 58.6879,-107.732 L 58.8526,-107.887 L 59.0355,-108.02 L 59.2336,-108.129 L 59.4438,-108.212 L 59.6627,-108.268
 L 59.887,-108.296 L 60.113,-108.296 L 60.3373,-108.268 L 60.5562,-108.212 L 60.7664,-108.129 L 60.9645,-108.02
 L 61.1474,-107.887 L 61.3121,-107.732 L 61.4562,-107.558 L 61.5773,-107.367 L 61.6736,-107.163 L 61.7434,-106.948
 L 61.7858,-106.726 L 61.8,-106.5 L 61.7858,-106.274 L 61.7434,-106.052 L 61.6736,-105.837 L 61.5773,-105.633
 L 61.4562,-105.442 L 61.3121,-105.268 L 61.1474,-105.113 L 60.9645,-104.98 L 60.7664,-104.871 L 60.5562,-104.788
 L 60.3373,-104.732 L 60.113,-104.704 z
" stroke="black" fill="lightgray" stroke-width="0.5"/>
</svg>
