  0
SECTION
  2
BLOCKS
  0
ENDSEC
  0
SECTION
  2
ENTITIES
  0
LINE
  8
0
 10
14.6869
 20
973.589
 11
15.2951
 21
973.745
  0
LINE
  8
0
 10
15.2951
 20
973.745
 11
15.8789
 21
973.976
  0
LINE
  8
0
 10
15.8789
 20
973.976
 11
16.4291
 21
974.278
  0
LINE
  8
0
 10
16.4291
 20
974.278
 11
16.9371
 21
974.647
  0
LINE
  8
0
 10
16.9371
 20
974.647
 11
17.3948
 21
975.077
  0
LINE
  8
0
 10
17.3948
 20
975.077
 11
17.7951
 21
975.561
  0
LINE
  8
0
 10
17.7951
 20
975.561
 11
18.1315
 21
976.091
  0
LINE
  8
0
 10
18.1315
 20
976.091
 11
18.3989
 21
976.659
  0
LINE
  8
0
 10
18.3989
 20
976.659
 11
18.5929
 21
977.257
  0
LINE
  8
0
 10
18.5929
 20
977.257
 11
18.7106
 21
977.873
  0
LINE
  8
0
 10
18.7106
 20
977.873
 11
18.75
 21
978.5
  0
LINE
  8
0
 10
18.75
 20
978.5
 11
18.75
 21
1073.5
  0
LINE
  8
0
 10
18.75
 20
1073.5
 11
18.7106
 21
1074.13
  0
LINE
  8
0
 10
18.7106
 20
1074.13
 11
18.5929
 21
1074.74
  0
LINE
  8
0
 10
18.5929
 20
1074.74
 11
18.3989
 21
1075.34
  0
LINE
  8
0
 10
18.3989
 20
1075.34
 11
18.1315
 21
1075.91
  0
LINE
  8
0
 10
18.1315
 20
1075.91
 11
17.7951
 21
1076.44
  0
LINE
  8
0
 10
17.7951
 20
1076.44
 11
17.3948
 21
1076.92
  0
LINE
  8
0
 10
17.3948
 20
1076.92
 11
16.9371
 21
1077.35
  0
LINE
  8
0
 10
16.9371
 20
1077.35
 11
16.4291
 21
1077.72
  0
LINE
  8
0
 10
16.4291
 20
1077.72
 11
15.8789
 21
1078.02
  0
LINE
  8
0
 10
15.8789
 20
1078.02
 11
15.2951
 21
1078.26
  0
LINE
  8
0
 10
15.2951
 20
1078.26
 11
14.6869
 21
1078.41
  0
LINE
  8
0
 10
14.6869
 20
1078.41
 11
14.0639
 21
1078.49
  0
LINE
  8
0
 10
14.0639
 20
1078.49
 11
-14.0639
 21
1078.49
  0
LINE
  8
0
 10
-14.0639
 20
1078.49
 11
-14.6869
 21
1078.41
  0
LINE
  8
0
 10
-14.6869
 20
1078.41
 11
-15.2951
 21
1078.26
  0
LINE
  8
0
 10
-15.2951
 20
1078.26
 11
-15.8789
 21
1078.02
  0
LINE
  8
0
 10
-15.8789
 20
1078.02
 11
-16.4291
 21
1077.72
  0
LINE
  8
0
 10
-16.4291
 20
1077.72
 11
-16.9371
 21
1077.35
  0
LINE
  8
0
 10
-16.9371
 20
1077.35
 11
-17.3948
 21
1076.92
  0
LINE
  8
0
 10
-17.3948
 20
1076.92
 11
-17.7951
 21
1076.44
  0
LINE
  8
0
 10
-17.7951
 20
1076.44
 11
-18.1315
 21
1075.91
  0
LINE
  8
0
 10
-18.1315
 20
1075.91
 11
-18.3989
 21
1075.34
  0
LINE
  8
0
 10
-18.3989
 20
1075.34
 11
-18.5929
 21
1074.74
  0
LINE
  8
0
 10
-18.5929
 20
1074.74
 11
-18.7106
 21
1074.13
  0
LINE
  8
0
 10
-18.7106
 20
1074.13
 11
-18.75
 21
1073.5
  0
LINE
  8
0
 10
-18.75
 20
1073.5
 11
-18.75
 21
978.5
  0
LINE
  8
0
 10
-18.75
 20
978.5
 11
-18.7106
 21
977.873
  0
LINE
  8
0
 10
-18.7106
 20
977.873
 11
-18.5929
 21
977.257
  0
LINE
  8
0
 10
-18.5929
 20
977.257
 11
-18.3989
 21
976.659
  0
LINE
  8
0
 10
-18.3989
 20
976.659
 11
-18.1315
 21
976.091
  0
LINE
  8
0
 10
-18.1315
 20
976.091
 11
-17.7951
 21
975.561
  0
LINE
  8
0
 10
-17.7951
 20
975.561
 11
-17.3948
 21
975.077
  0
LINE
  8
0
 10
-17.3948
 20
975.077
 11
-16.9371
 21
974.647
  0
LINE
  8
0
 10
-16.9371
 20
974.647
 11
-16.4291
 21
974.278
  0
LINE
  8
0
 10
-16.4291
 20
974.278
 11
-15.8789
 21
973.976
  0
LINE
  8
0
 10
-15.8789
 20
973.976
 11
-15.2951
 21
973.745
  0
LINE
  8
0
 10
-15.2951
 20
973.745
 11
-14.6869
 21
973.589
  0
LINE
  8
0
 10
-14.6869
 20
973.589
 11
-14.0639
 21
973.51
  0
LINE
  8
0
 10
-14.0639
 20
973.51
 11
14.0639
 21
973.51
  0
LINE
  8
0
 10
14.0639
 20
973.51
 11
14.6869
 21
973.589
  0
LINE
  8
0
 10
-13.7982
 20
974.009
 11
-14.3901
 21
974.084
  0
LINE
  8
0
 10
-14.3901
 20
974.084
 11
-14.9678
 21
974.232
  0
LINE
  8
0
 10
-14.9678
 20
974.232
 11
-15.5224
 21
974.452
  0
LINE
  8
0
 10
-15.5224
 20
974.452
 11
-16.0452
 21
974.739
  0
LINE
  8
0
 10
-16.0452
 20
974.739
 11
-16.5278
 21
975.09
  0
LINE
  8
0
 10
-16.5278
 20
975.09
 11
-16.9626
 21
975.498
  0
LINE
  8
0
 10
-16.9626
 20
975.498
 11
-17.3428
 21
975.958
  0
LINE
  8
0
 10
-17.3428
 20
975.958
 11
-17.6624
 21
976.462
  0
LINE
  8
0
 10
-17.6624
 20
976.462
 11
-17.9164
 21
977.001
  0
LINE
  8
0
 10
-17.9164
 20
977.001
 11
-18.1008
 21
977.569
  0
LINE
  8
0
 10
-18.1008
 20
977.569
 11
-18.2125
 21
978.155
  0
LINE
  8
0
 10
-18.2125
 20
978.155
 11
-18.25
 21
978.75
  0
LINE
  8
0
 10
-18.25
 20
978.75
 11
-18.25
 21
1073.25
  0
LINE
  8
0
 10
-18.25
 20
1073.25
 11
-18.2125
 21
1073.85
  0
LINE
  8
0
 10
-18.2125
 20
1073.85
 11
-18.1008
 21
1074.43
  0
LINE
  8
0
 10
-18.1008
 20
1074.43
 11
-17.9164
 21
1075
  0
LINE
  8
0
 10
-17.9164
 20
1075
 11
-17.6624
 21
1075.54
  0
LINE
  8
0
 10
-17.6624
 20
1075.54
 11
-17.3428
 21
1076.04
  0
LINE
  8
0
 10
-17.3428
 20
1076.04
 11
-16.9626
 21
1076.5
  0
LINE
  8
0
 10
-16.9626
 20
1076.5
 11
-16.5278
 21
1076.91
  0
LINE
  8
0
 10
-16.5278
 20
1076.91
 11
-16.0452
 21
1077.26
  0
LINE
  8
0
 10
-16.0452
 20
1077.26
 11
-15.5224
 21
1077.55
  0
LINE
  8
0
 10
-15.5224
 20
1077.55
 11
-14.9678
 21
1077.77
  0
LINE
  8
0
 10
-14.9678
 20
1077.77
 11
-14.3901
 21
1077.92
  0
LINE
  8
0
 10
-14.3901
 20
1077.92
 11
-13.7982
 21
1077.99
  0
LINE
  8
0
 10
-13.7982
 20
1077.99
 11
13.7982
 21
1077.99
  0
LINE
  8
0
 10
13.7982
 20
1077.99
 11
14.3901
 21
1077.92
  0
LINE
  8
0
 10
14.3901
 20
1077.92
 11
14.9678
 21
1077.77
  0
LINE
  8
0
 10
14.9678
 20
1077.77
 11
15.5224
 21
1077.55
  0
LINE
  8
0
 10
15.5224
 20
1077.55
 11
16.0452
 21
1077.26
  0
LINE
  8
0
 10
16.0452
 20
1077.26
 11
16.5278
 21
1076.91
  0
LINE
  8
0
 10
16.5278
 20
1076.91
 11
16.9626
 21
1076.5
  0
LINE
  8
0
 10
16.9626
 20
1076.5
 11
17.3428
 21
1076.04
  0
LINE
  8
0
 10
17.3428
 20
1076.04
 11
17.6624
 21
1075.54
  0
LINE
  8
0
 10
17.6624
 20
1075.54
 11
17.9164
 21
1075
  0
LINE
  8
0
 10
17.9164
 20
1075
 11
18.1008
 21
1074.43
  0
LINE
  8
0
 10
18.1008
 20
1074.43
 11
18.2125
 21
1073.85
  0
LINE
  8
0
 10
18.2125
 20
1073.85
 11
18.25
 21
1073.25
  0
LINE
  8
0
 10
18.25
 20
1073.25
 11
18.25
 21
978.75
  0
LINE
  8
0
 10
18.25
 20
978.75
 11
18.2125
 21
978.155
  0
LINE
  8
0
 10
18.2125
 20
978.155
 11
18.1008
 21
977.569
  0
LINE
  8
0
 10
18.1008
 20
977.569
 11
17.9164
 21
977.001
  0
LINE
  8
0
 10
17.9164
 20
977.001
 11
17.6624
 21
976.462
  0
LINE
  8
0
 10
17.6624
 20
976.462
 11
17.3428
 21
975.958
  0
LINE
  8
0
 10
17.3428
 20
975.958
 11
16.9626
 21
975.498
  0
LINE
  8
0
 10
16.9626
 20
975.498
 11
16.5278
 21
975.09
  0
LINE
  8
0
 10
16.5278
 20
975.09
 11
16.0452
 21
974.739
  0
LINE
  8
0
 10
16.0452
 20
974.739
 11
15.5224
 21
974.452
  0
LINE
  8
0
 10
15.5224
 20
974.452
 11
14.9678
 21
974.232
  0
LINE
  8
0
 10
14.9678
 20
974.232
 11
14.3901
 21
974.084
  0
LINE
  8
0
 10
14.3901
 20
974.084
 11
13.7982
 21
974.009
  0
LINE
  8
0
 10
13.7982
 20
974.009
 11
-13.7982
 21
974.009
  0
LINE
  8
0
 10
14.6869
 20
859.589
 11
15.2951
 21
859.745
  0
LINE
  8
0
 10
15.2951
 20
859.745
 11
15.8789
 21
859.976
  0
LINE
  8
0
 10
15.8789
 20
859.976
 11
16.4291
 21
860.278
  0
LINE
  8
0
 10
16.4291
 20
860.278
 11
16.9371
 21
860.647
  0
LINE
  8
0
 10
16.9371
 20
860.647
 11
17.3948
 21
861.077
  0
LINE
  8
0
 10
17.3948
 20
861.077
 11
17.7951
 21
861.561
  0
LINE
  8
0
 10
17.7951
 20
861.561
 11
18.1315
 21
862.091
  0
LINE
  8
0
 10
18.1315
 20
862.091
 11
18.3989
 21
862.659
  0
LINE
  8
0
 10
18.3989
 20
862.659
 11
18.5929
 21
863.257
  0
LINE
  8
0
 10
18.5929
 20
863.257
 11
18.7106
 21
863.873
  0
LINE
  8
0
 10
18.7106
 20
863.873
 11
18.75
 21
864.5
  0
LINE
  8
0
 10
18.75
 20
864.5
 11
18.75
 21
959.5
  0
LINE
  8
0
 10
18.75
 20
959.5
 11
18.7106
 21
960.127
  0
LINE
  8
0
 10
18.7106
 20
960.127
 11
18.5929
 21
960.743
  0
LINE
  8
0
 10
18.5929
 20
960.743
 11
18.3989
 21
961.341
  0
LINE
  8
0
 10
18.3989
 20
961.341
 11
18.1315
 21
961.909
  0
LINE
  8
0
 10
18.1315
 20
961.909
 11
17.7951
 21
962.439
  0
LINE
  8
0
 10
17.7951
 20
962.439
 11
17.3948
 21
962.923
  0
LINE
  8
0
 10
17.3948
 20
962.923
 11
16.9371
 21
963.353
  0
LINE
  8
0
 10
16.9371
 20
963.353
 11
16.4291
 21
963.722
  0
LINE
  8
0
 10
16.4291
 20
963.722
 11
15.8789
 21
964.024
  0
LINE
  8
0
 10
15.8789
 20
964.024
 11
15.2951
 21
964.255
  0
LINE
  8
0
 10
15.2951
 20
964.255
 11
14.6869
 21
964.411
  0
LINE
  8
0
 10
14.6869
 20
964.411
 11
14.0639
 21
964.49
  0
LINE
  8
0
 10
14.0639
 20
964.49
 11
-14.0639
 21
964.49
  0
LINE
  8
0
 10
-14.0639
 20
964.49
 11
-14.6869
 21
964.411
  0
LINE
  8
0
 10
-14.6869
 20
964.411
 11
-15.2951
 21
964.255
  0
LINE
  8
0
 10
-15.2951
 20
964.255
 11
-15.8789
 21
964.024
  0
LINE
  8
0
 10
-15.8789
 20
964.024
 11
-16.4291
 21
963.722
  0
LINE
  8
0
 10
-16.4291
 20
963.722
 11
-16.9371
 21
963.353
  0
LINE
  8
0
 10
-16.9371
 20
963.353
 11
-17.3948
 21
962.923
  0
LINE
  8
0
 10
-17.3948
 20
962.923
 11
-17.7951
 21
962.439
  0
LINE
  8
0
 10
-17.7951
 20
962.439
 11
-18.1315
 21
961.909
  0
LINE
  8
0
 10
-18.1315
 20
961.909
 11
-18.3989
 21
961.341
  0
LINE
  8
0
 10
-18.3989
 20
961.341
 11
-18.5929
 21
960.743
  0
LINE
  8
0
 10
-18.5929
 20
960.743
 11
-18.7106
 21
960.127
  0
LINE
  8
0
 10
-18.7106
 20
960.127
 11
-18.75
 21
959.5
  0
LINE
  8
0
 10
-18.75
 20
959.5
 11
-18.75
 21
864.5
  0
LINE
  8
0
 10
-18.75
 20
864.5
 11
-18.7106
 21
863.873
  0
LINE
  8
0
 10
-18.7106
 20
863.873
 11
-18.5929
 21
863.257
  0
LINE
  8
0
 10
-18.5929
 20
863.257
 11
-18.3989
 21
862.659
  0
LINE
  8
0
 10
-18.3989
 20
862.659
 11
-18.1315
 21
862.091
  0
LINE
  8
0
 10
-18.1315
 20
862.091
 11
-17.7951
 21
861.561
  0
LINE
  8
0
 10
-17.7951
 20
861.561
 11
-17.3948
 21
861.077
  0
LINE
  8
0
 10
-17.3948
 20
861.077
 11
-16.9371
 21
860.647
  0
LINE
  8
0
 10
-16.9371
 20
860.647
 11
-16.4291
 21
860.278
  0
LINE
  8
0
 10
-16.4291
 20
860.278
 11
-15.8789
 21
859.976
  0
LINE
  8
0
 10
-15.8789
 20
859.976
 11
-15.2951
 21
859.745
  0
LINE
  8
0
 10
-15.2951
 20
859.745
 11
-14.6869
 21
859.589
  0
LINE
  8
0
 10
-14.6869
 20
859.589
 11
-14.0639
 21
859.51
  0
LINE
  8
0
 10
-14.0639
 20
859.51
 11
14.0639
 21
859.51
  0
LINE
  8
0
 10
14.0639
 20
859.51
 11
14.6869
 21
859.589
  0
LINE
  8
0
 10
-13.7982
 20
860.009
 11
-14.3901
 21
860.084
  0
LINE
  8
0
 10
-14.3901
 20
860.084
 11
-14.9678
 21
860.232
  0
LINE
  8
0
 10
-14.9678
 20
860.232
 11
-15.5224
 21
860.452
  0
LINE
  8
0
 10
-15.5224
 20
860.452
 11
-16.0452
 21
860.739
  0
LINE
  8
0
 10
-16.0452
 20
860.739
 11
-16.5278
 21
861.09
  0
LINE
  8
0
 10
-16.5278
 20
861.09
 11
-16.9626
 21
861.498
  0
LINE
  8
0
 10
-16.9626
 20
861.498
 11
-17.3428
 21
861.958
  0
LINE
  8
0
 10
-17.3428
 20
861.958
 11
-17.6624
 21
862.462
  0
LINE
  8
0
 10
-17.6624
 20
862.462
 11
-17.9164
 21
863.001
  0
LINE
  8
0
 10
-17.9164
 20
863.001
 11
-18.1008
 21
863.569
  0
LINE
  8
0
 10
-18.1008
 20
863.569
 11
-18.2125
 21
864.155
  0
LINE
  8
0
 10
-18.2125
 20
864.155
 11
-18.25
 21
864.75
  0
LINE
  8
0
 10
-18.25
 20
864.75
 11
-18.25
 21
959.25
  0
LINE
  8
0
 10
-18.25
 20
959.25
 11
-18.2125
 21
959.845
  0
LINE
  8
0
 10
-18.2125
 20
959.845
 11
-18.1008
 21
960.431
  0
LINE
  8
0
 10
-18.1008
 20
960.431
 11
-17.9164
 21
960.999
  0
LINE
  8
0
 10
-17.9164
 20
960.999
 11
-17.6624
 21
961.538
  0
LINE
  8
0
 10
-17.6624
 20
961.538
 11
-17.3428
 21
962.042
  0
LINE
  8
0
 10
-17.3428
 20
962.042
 11
-16.9626
 21
962.502
  0
LINE
  8
0
 10
-16.9626
 20
962.502
 11
-16.5278
 21
962.91
  0
LINE
  8
0
 10
-16.5278
 20
962.91
 11
-16.0452
 21
963.261
  0
LINE
  8
0
 10
-16.0452
 20
963.261
 11
-15.5224
 21
963.548
  0
LINE
  8
0
 10
-15.5224
 20
963.548
 11
-14.9678
 21
963.768
  0
LINE
  8
0
 10
-14.9678
 20
963.768
 11
-14.3901
 21
963.916
  0
LINE
  8
0
 10
-14.3901
 20
963.916
 11
-13.7982
 21
963.991
  0
LINE
  8
0
 10
-13.7982
 20
963.991
 11
13.7982
 21
963.991
  0
LINE
  8
0
 10
13.7982
 20
963.991
 11
14.3901
 21
963.916
  0
LINE
  8
0
 10
14.3901
 20
963.916
 11
14.9678
 21
963.768
  0
LINE
  8
0
 10
14.9678
 20
963.768
 11
15.5224
 21
963.548
  0
LINE
  8
0
 10
15.5224
 20
963.548
 11
16.0452
 21
963.261
  0
LINE
  8
0
 10
16.0452
 20
963.261
 11
16.5278
 21
962.91
  0
LINE
  8
0
 10
16.5278
 20
962.91
 11
16.9626
 21
962.502
  0
LINE
  8
0
 10
16.9626
 20
962.502
 11
17.3428
 21
962.042
  0
LINE
  8
0
 10
17.3428
 20
962.042
 11
17.6624
 21
961.538
  0
LINE
  8
0
 10
17.6624
 20
961.538
 11
17.9164
 21
960.999
  0
LINE
  8
0
 10
17.9164
 20
960.999
 11
18.1008
 21
960.431
  0
LINE
  8
0
 10
18.1008
 20
960.431
 11
18.2125
 21
959.845
  0
LINE
  8
0
 10
18.2125
 20
959.845
 11
18.25
 21
959.25
  0
LINE
  8
0
 10
18.25
 20
959.25
 11
18.25
 21
864.75
  0
LINE
  8
0
 10
18.25
 20
864.75
 11
18.2125
 21
864.155
  0
LINE
  8
0
 10
18.2125
 20
864.155
 11
18.1008
 21
863.569
  0
LINE
  8
0
 10
18.1008
 20
863.569
 11
17.9164
 21
863.001
  0
LINE
  8
0
 10
17.9164
 20
863.001
 11
17.6624
 21
862.462
  0
LINE
  8
0
 10
17.6624
 20
862.462
 11
17.3428
 21
861.958
  0
LINE
  8
0
 10
17.3428
 20
861.958
 11
16.9626
 21
861.498
  0
LINE
  8
0
 10
16.9626
 20
861.498
 11
16.5278
 21
861.09
  0
LINE
  8
0
 10
16.5278
 20
861.09
 11
16.0452
 21
860.739
  0
LINE
  8
0
 10
16.0452
 20
860.739
 11
15.5224
 21
860.452
  0
LINE
  8
0
 10
15.5224
 20
860.452
 11
14.9678
 21
860.232
  0
LINE
  8
0
 10
14.9678
 20
860.232
 11
14.3901
 21
860.084
  0
LINE
  8
0
 10
14.3901
 20
860.084
 11
13.7982
 21
860.009
  0
LINE
  8
0
 10
13.7982
 20
860.009
 11
-13.7982
 21
860.009
  0
LINE
  8
0
 10
14.6869
 20
745.589
 11
15.2951
 21
745.745
  0
LINE
  8
0
 10
15.2951
 20
745.745
 11
15.8789
 21
745.976
  0
LINE
  8
0
 10
15.8789
 20
745.976
 11
16.4291
 21
746.278
  0
LINE
  8
0
 10
16.4291
 20
746.278
 11
16.9371
 21
746.647
  0
LINE
  8
0
 10
16.9371
 20
746.647
 11
17.3948
 21
747.077
  0
LINE
  8
0
 10
17.3948
 20
747.077
 11
17.7951
 21
747.561
  0
LINE
  8
0
 10
17.7951
 20
747.561
 11
18.1315
 21
748.091
  0
LINE
  8
0
 10
18.1315
 20
748.091
 11
18.3989
 21
748.659
  0
LINE
  8
0
 10
18.3989
 20
748.659
 11
18.5929
 21
749.257
  0
LINE
  8
0
 10
18.5929
 20
749.257
 11
18.7106
 21
749.873
  0
LINE
  8
0
 10
18.7106
 20
749.873
 11
18.75
 21
750.5
  0
LINE
  8
0
 10
18.75
 20
750.5
 11
18.75
 21
845.5
  0
LINE
  8
0
 10
18.75
 20
845.5
 11
18.7106
 21
846.127
  0
LINE
  8
0
 10
18.7106
 20
846.127
 11
18.5929
 21
846.743
  0
LINE
  8
0
 10
18.5929
 20
846.743
 11
18.3989
 21
847.341
  0
LINE
  8
0
 10
18.3989
 20
847.341
 11
18.1315
 21
847.909
  0
LINE
  8
0
 10
18.1315
 20
847.909
 11
17.7951
 21
848.439
  0
LINE
  8
0
 10
17.7951
 20
848.439
 11
17.3948
 21
848.923
  0
LINE
  8
0
 10
17.3948
 20
848.923
 11
16.9371
 21
849.353
  0
LINE
  8
0
 10
16.9371
 20
849.353
 11
16.4291
 21
849.722
  0
LINE
  8
0
 10
16.4291
 20
849.722
 11
15.8789
 21
850.024
  0
LINE
  8
0
 10
15.8789
 20
850.024
 11
15.2951
 21
850.255
  0
LINE
  8
0
 10
15.2951
 20
850.255
 11
14.6869
 21
850.411
  0
LINE
  8
0
 10
14.6869
 20
850.411
 11
14.0639
 21
850.49
  0
LINE
  8
0
 10
14.0639
 20
850.49
 11
-14.0639
 21
850.49
  0
LINE
  8
0
 10
-14.0639
 20
850.49
 11
-14.6869
 21
850.411
  0
LINE
  8
0
 10
-14.6869
 20
850.411
 11
-15.2951
 21
850.255
  0
LINE
  8
0
 10
-15.2951
 20
850.255
 11
-15.8789
 21
850.024
  0
LINE
  8
0
 10
-15.8789
 20
850.024
 11
-16.4291
 21
849.722
  0
LINE
  8
0
 10
-16.4291
 20
849.722
 11
-16.9371
 21
849.353
  0
LINE
  8
0
 10
-16.9371
 20
849.353
 11
-17.3948
 21
848.923
  0
LINE
  8
0
 10
-17.3948
 20
848.923
 11
-17.7951
 21
848.439
  0
LINE
  8
0
 10
-17.7951
 20
848.439
 11
-18.1315
 21
847.909
  0
LINE
  8
0
 10
-18.1315
 20
847.909
 11
-18.3989
 21
847.341
  0
LINE
  8
0
 10
-18.3989
 20
847.341
 11
-18.5929
 21
846.743
  0
LINE
  8
0
 10
-18.5929
 20
846.743
 11
-18.7106
 21
846.127
  0
LINE
  8
0
 10
-18.7106
 20
846.127
 11
-18.75
 21
845.5
  0
LINE
  8
0
 10
-18.75
 20
845.5
 11
-18.75
 21
750.5
  0
LINE
  8
0
 10
-18.75
 20
750.5
 11
-18.7106
 21
749.873
  0
LINE
  8
0
 10
-18.7106
 20
749.873
 11
-18.5929
 21
749.257
  0
LINE
  8
0
 10
-18.5929
 20
749.257
 11
-18.3989
 21
748.659
  0
LINE
  8
0
 10
-18.3989
 20
748.659
 11
-18.1315
 21
748.091
  0
LINE
  8
0
 10
-18.1315
 20
748.091
 11
-17.7951
 21
747.561
  0
LINE
  8
0
 10
-17.7951
 20
747.561
 11
-17.3948
 21
747.077
  0
LINE
  8
0
 10
-17.3948
 20
747.077
 11
-16.9371
 21
746.647
  0
LINE
  8
0
 10
-16.9371
 20
746.647
 11
-16.4291
 21
746.278
  0
LINE
  8
0
 10
-16.4291
 20
746.278
 11
-15.8789
 21
745.976
  0
LINE
  8
0
 10
-15.8789
 20
745.976
 11
-15.2951
 21
745.745
  0
LINE
  8
0
 10
-15.2951
 20
745.745
 11
-14.6869
 21
745.589
  0
LINE
  8
0
 10
-14.6869
 20
745.589
 11
-14.0639
 21
745.51
  0
LINE
  8
0
 10
-14.0639
 20
745.51
 11
14.0639
 21
745.51
  0
LINE
  8
0
 10
14.0639
 20
745.51
 11
14.6869
 21
745.589
  0
LINE
  8
0
 10
-13.7982
 20
746.009
 11
-14.3901
 21
746.084
  0
LINE
  8
0
 10
-14.3901
 20
746.084
 11
-14.9678
 21
746.232
  0
LINE
  8
0
 10
-14.9678
 20
746.232
 11
-15.5224
 21
746.452
  0
LINE
  8
0
 10
-15.5224
 20
746.452
 11
-16.0452
 21
746.739
  0
LINE
  8
0
 10
-16.0452
 20
746.739
 11
-16.5278
 21
747.09
  0
LINE
  8
0
 10
-16.5278
 20
747.09
 11
-16.9626
 21
747.498
  0
LINE
  8
0
 10
-16.9626
 20
747.498
 11
-17.3428
 21
747.958
  0
LINE
  8
0
 10
-17.3428
 20
747.958
 11
-17.6624
 21
748.462
  0
LINE
  8
0
 10
-17.6624
 20
748.462
 11
-17.9164
 21
749.001
  0
LINE
  8
0
 10
-17.9164
 20
749.001
 11
-18.1008
 21
749.569
  0
LINE
  8
0
 10
-18.1008
 20
749.569
 11
-18.2125
 21
750.155
  0
LINE
  8
0
 10
-18.2125
 20
750.155
 11
-18.25
 21
750.75
  0
LINE
  8
0
 10
-18.25
 20
750.75
 11
-18.25
 21
845.25
  0
LINE
  8
0
 10
-18.25
 20
845.25
 11
-18.2125
 21
845.845
  0
LINE
  8
0
 10
-18.2125
 20
845.845
 11
-18.1008
 21
846.431
  0
LINE
  8
0
 10
-18.1008
 20
846.431
 11
-17.9164
 21
846.999
  0
LINE
  8
0
 10
-17.9164
 20
846.999
 11
-17.6624
 21
847.538
  0
LINE
  8
0
 10
-17.6624
 20
847.538
 11
-17.3428
 21
848.042
  0
LINE
  8
0
 10
-17.3428
 20
848.042
 11
-16.9626
 21
848.502
  0
LINE
  8
0
 10
-16.9626
 20
848.502
 11
-16.5278
 21
848.91
  0
LINE
  8
0
 10
-16.5278
 20
848.91
 11
-16.0452
 21
849.261
  0
LINE
  8
0
 10
-16.0452
 20
849.261
 11
-15.5224
 21
849.548
  0
LINE
  8
0
 10
-15.5224
 20
849.548
 11
-14.9678
 21
849.768
  0
LINE
  8
0
 10
-14.9678
 20
849.768
 11
-14.3901
 21
849.916
  0
LINE
  8
0
 10
-14.3901
 20
849.916
 11
-13.7982
 21
849.991
  0
LINE
  8
0
 10
-13.7982
 20
849.991
 11
13.7982
 21
849.991
  0
LINE
  8
0
 10
13.7982
 20
849.991
 11
14.3901
 21
849.916
  0
LINE
  8
0
 10
14.3901
 20
849.916
 11
14.9678
 21
849.768
  0
LINE
  8
0
 10
14.9678
 20
849.768
 11
15.5224
 21
849.548
  0
LINE
  8
0
 10
15.5224
 20
849.548
 11
16.0452
 21
849.261
  0
LINE
  8
0
 10
16.0452
 20
849.261
 11
16.5278
 21
848.91
  0
LINE
  8
0
 10
16.5278
 20
848.91
 11
16.9626
 21
848.502
  0
LINE
  8
0
 10
16.9626
 20
848.502
 11
17.3428
 21
848.042
  0
LINE
  8
0
 10
17.3428
 20
848.042
 11
17.6624
 21
847.538
  0
LINE
  8
0
 10
17.6624
 20
847.538
 11
17.9164
 21
846.999
  0
LINE
  8
0
 10
17.9164
 20
846.999
 11
18.1008
 21
846.431
  0
LINE
  8
0
 10
18.1008
 20
846.431
 11
18.2125
 21
845.845
  0
LINE
  8
0
 10
18.2125
 20
845.845
 11
18.25
 21
845.25
  0
LINE
  8
0
 10
18.25
 20
845.25
 11
18.25
 21
750.75
  0
LINE
  8
0
 10
18.25
 20
750.75
 11
18.2125
 21
750.155
  0
LINE
  8
0
 10
18.2125
 20
750.155
 11
18.1008
 21
749.569
  0
LINE
  8
0
 10
18.1008
 20
749.569
 11
17.9164
 21
749.001
  0
LINE
  8
0
 10
17.9164
 20
749.001
 11
17.6624
 21
748.462
  0
LINE
  8
0
 10
17.6624
 20
748.462
 11
17.3428
 21
747.958
  0
LINE
  8
0
 10
17.3428
 20
747.958
 11
16.9626
 21
747.498
  0
LINE
  8
0
 10
16.9626
 20
747.498
 11
16.5278
 21
747.09
  0
LINE
  8
0
 10
16.5278
 20
747.09
 11
16.0452
 21
746.739
  0
LINE
  8
0
 10
16.0452
 20
746.739
 11
15.5224
 21
746.452
  0
LINE
  8
0
 10
15.5224
 20
746.452
 11
14.9678
 21
746.232
  0
LINE
  8
0
 10
14.9678
 20
746.232
 11
14.3901
 21
746.084
  0
LINE
  8
0
 10
14.3901
 20
746.084
 11
13.7982
 21
746.009
  0
LINE
  8
0
 10
13.7982
 20
746.009
 11
-13.7982
 21
746.009
  0
LINE
  8
0
 10
14.6869
 20
631.589
 11
15.2951
 21
631.745
  0
LINE
  8
0
 10
15.2951
 20
631.745
 11
15.8789
 21
631.976
  0
LINE
  8
0
 10
15.8789
 20
631.976
 11
16.4291
 21
632.278
  0
LINE
  8
0
 10
16.4291
 20
632.278
 11
16.9371
 21
632.647
  0
LINE
  8
0
 10
16.9371
 20
632.647
 11
17.3948
 21
633.077
  0
LINE
  8
0
 10
17.3948
 20
633.077
 11
17.7951
 21
633.561
  0
LINE
  8
0
 10
17.7951
 20
633.561
 11
18.1315
 21
634.091
  0
LINE
  8
0
 10
18.1315
 20
634.091
 11
18.3989
 21
634.659
  0
LINE
  8
0
 10
18.3989
 20
634.659
 11
18.5929
 21
635.257
  0
LINE
  8
0
 10
18.5929
 20
635.257
 11
18.7106
 21
635.873
  0
LINE
  8
0
 10
18.7106
 20
635.873
 11
18.75
 21
636.5
  0
LINE
  8
0
 10
18.75
 20
636.5
 11
18.75
 21
731.5
  0
LINE
  8
0
 10
18.75
 20
731.5
 11
18.7106
 21
732.127
  0
LINE
  8
0
 10
18.7106
 20
732.127
 11
18.5929
 21
732.743
  0
LINE
  8
0
 10
18.5929
 20
732.743
 11
18.3989
 21
733.341
  0
LINE
  8
0
 10
18.3989
 20
733.341
 11
18.1315
 21
733.909
  0
LINE
  8
0
 10
18.1315
 20
733.909
 11
17.7951
 21
734.439
  0
LINE
  8
0
 10
17.7951
 20
734.439
 11
17.3948
 21
734.923
  0
LINE
  8
0
 10
17.3948
 20
734.923
 11
16.9371
 21
735.353
  0
LINE
  8
0
 10
16.9371
 20
735.353
 11
16.4291
 21
735.722
  0
LINE
  8
0
 10
16.4291
 20
735.722
 11
15.8789
 21
736.024
  0
LINE
  8
0
 10
15.8789
 20
736.024
 11
15.2951
 21
736.255
  0
LINE
  8
0
 10
15.2951
 20
736.255
 11
14.6869
 21
736.411
  0
LINE
  8
0
 10
14.6869
 20
736.411
 11
14.0639
 21
736.49
  0
LINE
  8
0
 10
14.0639
 20
736.49
 11
-14.0639
 21
736.49
  0
LINE
  8
0
 10
-14.0639
 20
736.49
 11
-14.6869
 21
736.411
  0
LINE
  8
0
 10
-14.6869
 20
736.411
 11
-15.2951
 21
736.255
  0
LINE
  8
0
 10
-15.2951
 20
736.255
 11
-15.8789
 21
736.024
  0
LINE
  8
0
 10
-15.8789
 20
736.024
 11
-16.4291
 21
735.722
  0
LINE
  8
0
 10
-16.4291
 20
735.722
 11
-16.9371
 21
735.353
  0
LINE
  8
0
 10
-16.9371
 20
735.353
 11
-17.3948
 21
734.923
  0
LINE
  8
0
 10
-17.3948
 20
734.923
 11
-17.7951
 21
734.439
  0
LINE
  8
0
 10
-17.7951
 20
734.439
 11
-18.1315
 21
733.909
  0
LINE
  8
0
 10
-18.1315
 20
733.909
 11
-18.3989
 21
733.341
  0
LINE
  8
0
 10
-18.3989
 20
733.341
 11
-18.5929
 21
732.743
  0
LINE
  8
0
 10
-18.5929
 20
732.743
 11
-18.7106
 21
732.127
  0
LINE
  8
0
 10
-18.7106
 20
732.127
 11
-18.75
 21
731.5
  0
LINE
  8
0
 10
-18.75
 20
731.5
 11
-18.75
 21
636.5
  0
LINE
  8
0
 10
-18.75
 20
636.5
 11
-18.7106
 21
635.873
  0
LINE
  8
0
 10
-18.7106
 20
635.873
 11
-18.5929
 21
635.257
  0
LINE
  8
0
 10
-18.5929
 20
635.257
 11
-18.3989
 21
634.659
  0
LINE
  8
0
 10
-18.3989
 20
634.659
 11
-18.1315
 21
634.091
  0
LINE
  8
0
 10
-18.1315
 20
634.091
 11
-17.7951
 21
633.561
  0
LINE
  8
0
 10
-17.7951
 20
633.561
 11
-17.3948
 21
633.077
  0
LINE
  8
0
 10
-17.3948
 20
633.077
 11
-16.9371
 21
632.647
  0
LINE
  8
0
 10
-16.9371
 20
632.647
 11
-16.4291
 21
632.278
  0
LINE
  8
0
 10
-16.4291
 20
632.278
 11
-15.8789
 21
631.976
  0
LINE
  8
0
 10
-15.8789
 20
631.976
 11
-15.2951
 21
631.745
  0
LINE
  8
0
 10
-15.2951
 20
631.745
 11
-14.6869
 21
631.589
  0
LINE
  8
0
 10
-14.6869
 20
631.589
 11
-14.0639
 21
631.51
  0
LINE
  8
0
 10
-14.0639
 20
631.51
 11
14.0639
 21
631.51
  0
LINE
  8
0
 10
14.0639
 20
631.51
 11
14.6869
 21
631.589
  0
LINE
  8
0
 10
-13.7875
 20
632.181
 11
-14.3579
 21
632.253
  0
LINE
  8
0
 10
-14.3579
 20
632.253
 11
-14.9148
 21
632.396
  0
LINE
  8
0
 10
-14.9148
 20
632.396
 11
-15.4494
 21
632.607
  0
LINE
  8
0
 10
-15.4494
 20
632.607
 11
-15.9532
 21
632.884
  0
LINE
  8
0
 10
-15.9532
 20
632.884
 11
-16.4184
 21
633.222
  0
LINE
  8
0
 10
-16.4184
 20
633.222
 11
-16.8375
 21
633.616
  0
LINE
  8
0
 10
-16.8375
 20
633.616
 11
-17.204
 21
634.059
  0
LINE
  8
0
 10
-17.204
 20
634.059
 11
-17.5121
 21
634.544
  0
LINE
  8
0
 10
-17.5121
 20
634.544
 11
-17.7569
 21
635.065
  0
LINE
  8
0
 10
-17.7569
 20
635.065
 11
-17.9346
 21
635.611
  0
LINE
  8
0
 10
-17.9346
 20
635.611
 11
-18.0423
 21
636.176
  0
LINE
  8
0
 10
-18.0423
 20
636.176
 11
-18.0784
 21
636.75
  0
LINE
  8
0
 10
-18.0784
 20
636.75
 11
-18.0784
 21
731.25
  0
LINE
  8
0
 10
-18.0784
 20
731.25
 11
-18.0423
 21
731.824
  0
LINE
  8
0
 10
-18.0423
 20
731.824
 11
-17.9346
 21
732.389
  0
LINE
  8
0
 10
-17.9346
 20
732.389
 11
-17.7569
 21
732.935
  0
LINE
  8
0
 10
-17.7569
 20
732.935
 11
-17.5121
 21
733.456
  0
LINE
  8
0
 10
-17.5121
 20
733.456
 11
-17.204
 21
733.941
  0
LINE
  8
0
 10
-17.204
 20
733.941
 11
-16.8375
 21
734.384
  0
LINE
  8
0
 10
-16.8375
 20
734.384
 11
-16.4184
 21
734.778
  0
LINE
  8
0
 10
-16.4184
 20
734.778
 11
-15.9532
 21
735.116
  0
LINE
  8
0
 10
-15.9532
 20
735.116
 11
-15.4494
 21
735.393
  0
LINE
  8
0
 10
-15.4494
 20
735.393
 11
-14.9148
 21
735.604
  0
LINE
  8
0
 10
-14.9148
 20
735.604
 11
-14.3579
 21
735.747
  0
LINE
  8
0
 10
-14.3579
 20
735.747
 11
-13.7875
 21
735.819
  0
LINE
  8
0
 10
-13.7875
 20
735.819
 11
13.7875
 21
735.819
  0
LINE
  8
0
 10
13.7875
 20
735.819
 11
14.3579
 21
735.747
  0
LINE
  8
0
 10
14.3579
 20
735.747
 11
14.9148
 21
735.604
  0
LINE
  8
0
 10
14.9148
 20
735.604
 11
15.4494
 21
735.393
  0
LINE
  8
0
 10
15.4494
 20
735.393
 11
15.9532
 21
735.116
  0
LINE
  8
0
 10
15.9532
 20
735.116
 11
16.4184
 21
734.778
  0
LINE
  8
0
 10
16.4184
 20
734.778
 11
16.8375
 21
734.384
  0
LINE
  8
0
 10
16.8375
 20
734.384
 11
17.204
 21
733.941
  0
LINE
  8
0
 10
17.204
 20
733.941
 11
17.5121
 21
733.456
  0
LINE
  8
0
 10
17.5121
 20
733.456
 11
17.7569
 21
732.935
  0
LINE
  8
0
 10
17.7569
 20
732.935
 11
17.9346
 21
732.389
  0
LINE
  8
0
 10
17.9346
 20
732.389
 11
18.0423
 21
731.824
  0
LINE
  8
0
 10
18.0423
 20
731.824
 11
18.0784
 21
731.25
  0
LINE
  8
0
 10
18.0784
 20
731.25
 11
18.0784
 21
636.75
  0
LINE
  8
0
 10
18.0784
 20
636.75
 11
18.0423
 21
636.176
  0
LINE
  8
0
 10
18.0423
 20
636.176
 11
17.9346
 21
635.611
  0
LINE
  8
0
 10
17.9346
 20
635.611
 11
17.7569
 21
635.065
  0
LINE
  8
0
 10
17.7569
 20
635.065
 11
17.5121
 21
634.544
  0
LINE
  8
0
 10
17.5121
 20
634.544
 11
17.204
 21
634.059
  0
LINE
  8
0
 10
17.204
 20
634.059
 11
16.8375
 21
633.616
  0
LINE
  8
0
 10
16.8375
 20
633.616
 11
16.4184
 21
633.222
  0
LINE
  8
0
 10
16.4184
 20
633.222
 11
15.9532
 21
632.884
  0
LINE
  8
0
 10
15.9532
 20
632.884
 11
15.4494
 21
632.607
  0
LINE
  8
0
 10
15.4494
 20
632.607
 11
14.9148
 21
632.396
  0
LINE
  8
0
 10
14.9148
 20
632.396
 11
14.3579
 21
632.253
  0
LINE
  8
0
 10
14.3579
 20
632.253
 11
13.7875
 21
632.181
  0
LINE
  8
0
 10
13.7875
 20
632.181
 11
-13.7875
 21
632.181
  0
LINE
  8
0
 10
14.6869
 20
517.589
 11
15.2951
 21
517.745
  0
LINE
  8
0
 10
15.2951
 20
517.745
 11
15.8789
 21
517.976
  0
LINE
  8
0
 10
15.8789
 20
517.976
 11
16.4291
 21
518.278
  0
LINE
  8
0
 10
16.4291
 20
518.278
 11
16.9371
 21
518.647
  0
LINE
  8
0
 10
16.9371
 20
518.647
 11
17.3948
 21
519.077
  0
LINE
  8
0
 10
17.3948
 20
519.077
 11
17.7951
 21
519.561
  0
LINE
  8
0
 10
17.7951
 20
519.561
 11
18.1315
 21
520.091
  0
LINE
  8
0
 10
18.1315
 20
520.091
 11
18.3989
 21
520.659
  0
LINE
  8
0
 10
18.3989
 20
520.659
 11
18.5929
 21
521.257
  0
LINE
  8
0
 10
18.5929
 20
521.257
 11
18.7106
 21
521.873
  0
LINE
  8
0
 10
18.7106
 20
521.873
 11
18.75
 21
522.5
  0
LINE
  8
0
 10
18.75
 20
522.5
 11
18.75
 21
617.5
  0
LINE
  8
0
 10
18.75
 20
617.5
 11
18.7106
 21
618.127
  0
LINE
  8
0
 10
18.7106
 20
618.127
 11
18.5929
 21
618.743
  0
LINE
  8
0
 10
18.5929
 20
618.743
 11
18.3989
 21
619.341
  0
LINE
  8
0
 10
18.3989
 20
619.341
 11
18.1315
 21
619.909
  0
LINE
  8
0
 10
18.1315
 20
619.909
 11
17.7951
 21
620.439
  0
LINE
  8
0
 10
17.7951
 20
620.439
 11
17.3948
 21
620.923
  0
LINE
  8
0
 10
17.3948
 20
620.923
 11
16.9371
 21
621.353
  0
LINE
  8
0
 10
16.9371
 20
621.353
 11
16.4291
 21
621.722
  0
LINE
  8
0
 10
16.4291
 20
621.722
 11
15.8789
 21
622.024
  0
LINE
  8
0
 10
15.8789
 20
622.024
 11
15.2951
 21
622.255
  0
LINE
  8
0
 10
15.2951
 20
622.255
 11
14.6869
 21
622.411
  0
LINE
  8
0
 10
14.6869
 20
622.411
 11
14.0639
 21
622.49
  0
LINE
  8
0
 10
14.0639
 20
622.49
 11
-14.0639
 21
622.49
  0
LINE
  8
0
 10
-14.0639
 20
622.49
 11
-14.6869
 21
622.411
  0
LINE
  8
0
 10
-14.6869
 20
622.411
 11
-15.2951
 21
622.255
  0
LINE
  8
0
 10
-15.2951
 20
622.255
 11
-15.8789
 21
622.024
  0
LINE
  8
0
 10
-15.8789
 20
622.024
 11
-16.4291
 21
621.722
  0
LINE
  8
0
 10
-16.4291
 20
621.722
 11
-16.9371
 21
621.353
  0
LINE
  8
0
 10
-16.9371
 20
621.353
 11
-17.3948
 21
620.923
  0
LINE
  8
0
 10
-17.3948
 20
620.923
 11
-17.7951
 21
620.439
  0
LINE
  8
0
 10
-17.7951
 20
620.439
 11
-18.1315
 21
619.909
  0
LINE
  8
0
 10
-18.1315
 20
619.909
 11
-18.3989
 21
619.341
  0
LINE
  8
0
 10
-18.3989
 20
619.341
 11
-18.5929
 21
618.743
  0
LINE
  8
0
 10
-18.5929
 20
618.743
 11
-18.7106
 21
618.127
  0
LINE
  8
0
 10
-18.7106
 20
618.127
 11
-18.75
 21
617.5
  0
LINE
  8
0
 10
-18.75
 20
617.5
 11
-18.75
 21
522.5
  0
LINE
  8
0
 10
-18.75
 20
522.5
 11
-18.7106
 21
521.873
  0
LINE
  8
0
 10
-18.7106
 20
521.873
 11
-18.5929
 21
521.257
  0
LINE
  8
0
 10
-18.5929
 20
521.257
 11
-18.3989
 21
520.659
  0
LINE
  8
0
 10
-18.3989
 20
520.659
 11
-18.1315
 21
520.091
  0
LINE
  8
0
 10
-18.1315
 20
520.091
 11
-17.7951
 21
519.561
  0
LINE
  8
0
 10
-17.7951
 20
519.561
 11
-17.3948
 21
519.077
  0
LINE
  8
0
 10
-17.3948
 20
519.077
 11
-16.9371
 21
518.647
  0
LINE
  8
0
 10
-16.9371
 20
518.647
 11
-16.4291
 21
518.278
  0
LINE
  8
0
 10
-16.4291
 20
518.278
 11
-15.8789
 21
517.976
  0
LINE
  8
0
 10
-15.8789
 20
517.976
 11
-15.2951
 21
517.745
  0
LINE
  8
0
 10
-15.2951
 20
517.745
 11
-14.6869
 21
517.589
  0
LINE
  8
0
 10
-14.6869
 20
517.589
 11
-14.0639
 21
517.51
  0
LINE
  8
0
 10
-14.0639
 20
517.51
 11
14.0639
 21
517.51
  0
LINE
  8
0
 10
14.0639
 20
517.51
 11
14.6869
 21
517.589
  0
LINE
  8
0
 10
-13.6325
 20
520.645
 11
-13.8953
 21
520.678
  0
LINE
  8
0
 10
-13.8953
 20
520.678
 11
-14.1519
 21
520.744
  0
LINE
  8
0
 10
-14.1519
 20
520.744
 11
-14.3982
 21
520.841
  0
LINE
  8
0
 10
-14.3982
 20
520.841
 11
-14.6304
 21
520.969
  0
LINE
  8
0
 10
-14.6304
 20
520.969
 11
-14.8447
 21
521.125
  0
LINE
  8
0
 10
-14.8447
 20
521.125
 11
-15.0378
 21
521.306
  0
LINE
  8
0
 10
-15.0378
 20
521.306
 11
-15.2067
 21
521.51
  0
LINE
  8
0
 10
-15.2067
 20
521.51
 11
-15.3487
 21
521.734
  0
LINE
  8
0
 10
-15.3487
 20
521.734
 11
-15.4615
 21
521.973
  0
LINE
  8
0
 10
-15.4615
 20
521.973
 11
-15.5434
 21
522.225
  0
LINE
  8
0
 10
-15.5434
 20
522.225
 11
-15.593
 21
522.486
  0
LINE
  8
0
 10
-15.593
 20
522.486
 11
-15.6096
 21
522.75
  0
LINE
  8
0
 10
-15.6096
 20
522.75
 11
-15.6096
 21
617.25
  0
LINE
  8
0
 10
-15.6096
 20
617.25
 11
-15.593
 21
617.514
  0
LINE
  8
0
 10
-15.593
 20
617.514
 11
-15.5434
 21
617.775
  0
LINE
  8
0
 10
-15.5434
 20
617.775
 11
-15.4615
 21
618.027
  0
LINE
  8
0
 10
-15.4615
 20
618.027
 11
-15.3487
 21
618.266
  0
LINE
  8
0
 10
-15.3487
 20
618.266
 11
-15.2067
 21
618.49
  0
LINE
  8
0
 10
-15.2067
 20
618.49
 11
-15.0378
 21
618.694
  0
LINE
  8
0
 10
-15.0378
 20
618.694
 11
-14.8447
 21
618.875
  0
LINE
  8
0
 10
-14.8447
 20
618.875
 11
-14.6304
 21
619.031
  0
LINE
  8
0
 10
-14.6304
 20
619.031
 11
-14.3982
 21
619.159
  0
LINE
  8
0
 10
-14.3982
 20
619.159
 11
-14.1519
 21
619.256
  0
LINE
  8
0
 10
-14.1519
 20
619.256
 11
-13.8953
 21
619.322
  0
LINE
  8
0
 10
-13.8953
 20
619.322
 11
-13.6325
 21
619.355
  0
LINE
  8
0
 10
-13.6325
 20
619.355
 11
13.6325
 21
619.355
  0
LINE
  8
0
 10
13.6325
 20
619.355
 11
13.8953
 21
619.322
  0
LINE
  8
0
 10
13.8953
 20
619.322
 11
14.1519
 21
619.256
  0
LINE
  8
0
 10
14.1519
 20
619.256
 11
14.3982
 21
619.159
  0
LINE
  8
0
 10
14.3982
 20
619.159
 11
14.6304
 21
619.031
  0
LINE
  8
0
 10
14.6304
 20
619.031
 11
14.8447
 21
618.875
  0
LINE
  8
0
 10
14.8447
 20
618.875
 11
15.0378
 21
618.694
  0
LINE
  8
0
 10
15.0378
 20
618.694
 11
15.2067
 21
618.49
  0
LINE
  8
0
 10
15.2067
 20
618.49
 11
15.3487
 21
618.266
  0
LINE
  8
0
 10
15.3487
 20
618.266
 11
15.4615
 21
618.027
  0
LINE
  8
0
 10
15.4615
 20
618.027
 11
15.5434
 21
617.775
  0
LINE
  8
0
 10
15.5434
 20
617.775
 11
15.593
 21
617.514
  0
LINE
  8
0
 10
15.593
 20
617.514
 11
15.6096
 21
617.25
  0
LINE
  8
0
 10
15.6096
 20
617.25
 11
15.6096
 21
522.75
  0
LINE
  8
0
 10
15.6096
 20
522.75
 11
15.593
 21
522.486
  0
LINE
  8
0
 10
15.593
 20
522.486
 11
15.5434
 21
522.225
  0
LINE
  8
0
 10
15.5434
 20
522.225
 11
15.4615
 21
521.973
  0
LINE
  8
0
 10
15.4615
 20
521.973
 11
15.3487
 21
521.734
  0
LINE
  8
0
 10
15.3487
 20
521.734
 11
15.2067
 21
521.51
  0
LINE
  8
0
 10
15.2067
 20
521.51
 11
15.0378
 21
521.306
  0
LINE
  8
0
 10
15.0378
 20
521.306
 11
14.8447
 21
521.125
  0
LINE
  8
0
 10
14.8447
 20
521.125
 11
14.6304
 21
520.969
  0
LINE
  8
0
 10
14.6304
 20
520.969
 11
14.3982
 21
520.841
  0
LINE
  8
0
 10
14.3982
 20
520.841
 11
14.1519
 21
520.744
  0
LINE
  8
0
 10
14.1519
 20
520.744
 11
13.8953
 21
520.678
  0
LINE
  8
0
 10
13.8953
 20
520.678
 11
13.6325
 21
520.645
  0
LINE
  8
0
 10
13.6325
 20
520.645
 11
-13.6325
 21
520.645
  0
ENDSEC
  0
SECTION
  2
OBJECTS
  0
DICTIONARY
  0
ENDSEC
  0
EOF
