<?xml version="1.0" standalone="no"?>
<!DOCTYPE svg PUBLIC "-//W3C//DTD SVG 1.1//EN" "http://www.w3.org/Graphics/SVG/1.1/DTD/svg11.dtd">
<svg width="46mm" height="316mm" viewBox="-23 -833 46 316" xmlns="http://www.w3.org/2000/svg" version="1.1">
<title>OpenSCAD Model</title>
<path d="
M 18.4369,-787.589 L 19.0451,-787.745 L 19.6289,-787.976 L 20.1791,-788.278 L 20.6871,-788.647 L 21.1448,-789.077
 L 21.5451,-789.561 L 21.8815,-790.091 L 22.1489,-790.659 L 22.3429,-791.257 L 22.4606,-791.873 L 22.5,-792.5
 L 22.5,-827.5 L 22.4606,-828.127 L 22.3429,-828.743 L 22.1489,-829.341 L 21.8815,-829.909 L 21.5451,-830.439
 L 21.1448,-830.923 L 20.6871,-831.353 L 20.1791,-831.722 L 19.6289,-832.024 L 19.0451,-832.255 L 18.4369,-832.411
 L 17.8139,-832.49 L -17.8139,-832.49 L -18.4369,-832.411 L -19.0451,-832.255 L -19.6289,-832.024 L -20.1791,-831.722
 L -20.6871,-831.353 L -21.1448,-830.923 L -21.5451,-830.439 L -21.8815,-829.909 L -22.1489,-829.341 L -22.3429,-828.743
 L -22.4606,-828.127 L -22.5,-827.5 L -22.5,-792.5 L -22.4606,-791.873 L -22.3429,-791.257 L -22.1489,-790.659
 L -21.8815,-790.091 L -21.5451,-789.561 L -21.1448,-789.077 L -20.6871,-788.647 L -20.1791,-788.278 L -19.6289,-787.976
 L -19.0451,-787.745 L -18.4369,-787.589 L -17.8139,-787.51 L 17.8139,-787.51 z
M -15.1884,-822.006 L -15.5621,-822.053 L -15.927,-822.147 L -16.2773,-822.286 L -16.6075,-822.467 L -16.9123,-822.688
 L -17.1869,-822.946 L -17.427,-823.237 L -17.6289,-823.555 L -17.7893,-823.896 L -17.9057,-824.254 L -17.9763,-824.624
 L -18,-825 L -17.9763,-825.376 L -17.9057,-825.746 L -17.7893,-826.104 L -17.6289,-826.445 L -17.427,-826.763
 L -17.1869,-827.054 L -16.9123,-827.312 L -16.6075,-827.533 L -16.2773,-827.714 L -15.927,-827.853 L -15.5621,-827.947
 L -15.1884,-827.994 L -14.8116,-827.994 L -14.4379,-827.947 L -14.0729,-827.853 L -13.7227,-827.714 L -13.3925,-827.533
 L -13.0877,-827.312 L -12.8131,-827.054 L -12.5729,-826.763 L -12.3711,-826.445 L -12.2107,-826.104 L -12.0942,-825.746
 L -12.0237,-825.376 L -12,-825 L -12.0237,-824.624 L -12.0942,-824.254 L -12.2107,-823.896 L -12.3711,-823.555
 L -12.5729,-823.237 L -12.8131,-822.946 L -13.0877,-822.688 L -13.3925,-822.467 L -13.7227,-822.286 L -14.0729,-822.147
 L -14.4379,-822.053 L -14.8116,-822.006 z
M 14.8116,-822.006 L 14.4379,-822.053 L 14.0729,-822.147 L 13.7227,-822.286 L 13.3925,-822.467 L 13.0877,-822.688
 L 12.8131,-822.946 L 12.5729,-823.237 L 12.3711,-823.555 L 12.2107,-823.896 L 12.0942,-824.254 L 12.0237,-824.624
 L 12,-825 L 12.0237,-825.376 L 12.0942,-825.746 L 12.2107,-826.104 L 12.3711,-826.445 L 12.5729,-826.763
 L 12.8131,-827.054 L 13.0877,-827.312 L 13.3925,-827.533 L 13.7227,-827.714 L 14.0729,-827.853 L 14.4379,-827.947
 L 14.8116,-827.994 L 15.1884,-827.994 L 15.5621,-827.947 L 15.927,-827.853 L 16.2773,-827.714 L 16.6075,-827.533
 L 16.9123,-827.312 L 17.1869,-827.054 L 17.427,-826.763 L 17.6289,-826.445 L 17.7893,-826.104 L 17.9057,-825.746
 L 17.9763,-825.376 L 18,-825 L 17.9763,-824.624 L 17.9057,-824.254 L 17.7893,-823.896 L 17.6289,-823.555
 L 17.427,-823.237 L 17.1869,-822.946 L 16.9123,-822.688 L 16.6075,-822.467 L 16.2773,-822.286 L 15.927,-822.147
 L 15.5621,-822.053 L 15.1884,-822.006 z
M -0.847672,-796.527 L -2.52963,-796.739 L -4.17172,-797.161 L -5.74802,-797.785 L -7.23366,-798.602 L -8.60521,-799.598
 L -9.84106,-800.759 L -10.9217,-802.065 L -11.8301,-803.496 L -12.552,-805.03 L -13.0759,-806.643 L -13.3935,-808.308
 L -13.5,-810 L -13.3935,-811.692 L -13.0759,-813.357 L -12.552,-814.97 L -11.8301,-816.504 L -10.9217,-817.935
 L -9.84106,-819.241 L -8.60521,-820.402 L -7.23366,-821.398 L -5.74802,-822.215 L -4.17172,-822.839 L -2.52963,-823.261
 L -0.847672,-823.473 L 0.847672,-823.473 L 2.52963,-823.261 L 4.17172,-822.839 L 5.74802,-822.215 L 7.23366,-821.398
 L 8.60521,-820.402 L 9.84106,-819.241 L 10.9217,-817.935 L 11.8301,-816.504 L 12.552,-814.97 L 13.0759,-813.357
 L 13.3935,-811.692 L 13.5,-810 L 13.3935,-808.308 L 13.0759,-806.643 L 12.552,-805.03 L 11.8301,-803.496
 L 10.9217,-802.065 L 9.84106,-800.759 L 8.60521,-799.598 L 7.23366,-798.602 L 5.74802,-797.785 L 4.17172,-797.161
 L 2.52963,-796.739 L 0.847672,-796.527 z
M 14.8116,-792.006 L 14.4379,-792.053 L 14.0729,-792.147 L 13.7227,-792.286 L 13.3925,-792.467 L 13.0877,-792.688
 L 12.8131,-792.946 L 12.5729,-793.237 L 12.3711,-793.555 L 12.2107,-793.896 L 12.0942,-794.254 L 12.0237,-794.624
 L 12,-795 L 12.0237,-795.376 L 12.0942,-795.746 L 12.2107,-796.104 L 12.3711,-796.445 L 12.5729,-796.763
 L 12.8131,-797.054 L 13.0877,-797.312 L 13.3925,-797.533 L 13.7227,-797.714 L 14.0729,-797.853 L 14.4379,-797.947
 L 14.8116,-797.994 L 15.1884,-797.994 L 15.5621,-797.947 L 15.927,-797.853 L 16.2773,-797.714 L 16.6075,-797.533
 L 16.9123,-797.312 L 17.1869,-797.054 L 17.427,-796.763 L 17.6289,-796.445 L 17.7893,-796.104 L 17.9057,-795.746
 L 17.9763,-795.376 L 18,-795 L 17.9763,-794.624 L 17.9057,-794.254 L 17.7893,-793.896 L 17.6289,-793.555
 L 17.427,-793.237 L 17.1869,-792.946 L 16.9123,-792.688 L 16.6075,-792.467 L 16.2773,-792.286 L 15.927,-792.147
 L 15.5621,-792.053 L 15.1884,-792.006 z
M -15.1884,-792.006 L -15.5621,-792.053 L -15.927,-792.147 L -16.2773,-792.286 L -16.6075,-792.467 L -16.9123,-792.688
 L -17.1869,-792.946 L -17.427,-793.237 L -17.6289,-793.555 L -17.7893,-793.896 L -17.9057,-794.254 L -17.9763,-794.624
 L -18,-795 L -17.9763,-795.376 L -17.9057,-795.746 L -17.7893,-796.104 L -17.6289,-796.445 L -17.427,-796.763
 L -17.1869,-797.054 L -16.9123,-797.312 L -16.6075,-797.533 L -16.2773,-797.714 L -15.927,-797.853 L -15.5621,-797.947
 L -15.1884,-797.994 L -14.8116,-797.994 L -14.4379,-797.947 L -14.0729,-797.853 L -13.7227,-797.714 L -13.3925,-797.533
 L -13.0877,-797.312 L -12.8131,-797.054 L -12.5729,-796.763 L -12.3711,-796.445 L -12.2107,-796.104 L -12.0942,-795.746
 L -12.0237,-795.376 L -12,-795 L -12.0237,-794.624 L -12.0942,-794.254 L -12.2107,-793.896 L -12.3711,-793.555
 L -12.5729,-793.237 L -12.8131,-792.946 L -13.0877,-792.688 L -13.3925,-792.467 L -13.7227,-792.286 L -14.0729,-792.147
 L -14.4379,-792.053 L -14.8116,-792.006 z
M 18.4369,-733.589 L 19.0451,-733.745 L 19.6289,-733.976 L 20.1791,-734.278 L 20.6871,-734.647 L 21.1448,-735.077
 L 21.5451,-735.561 L 21.8815,-736.091 L 22.1489,-736.659 L 22.3429,-737.257 L 22.4606,-737.873 L 22.5,-738.5
 L 22.5,-773.5 L 22.4606,-774.127 L 22.3429,-774.743 L 22.1489,-775.341 L 21.8815,-775.909 L 21.5451,-776.439
 L 21.1448,-776.923 L 20.6871,-777.353 L 20.1791,-777.722 L 19.6289,-778.024 L 19.0451,-778.255 L 18.4369,-778.411
 L 17.8139,-778.49 L -17.8139,-778.49 L -18.4369,-778.411 L -19.0451,-778.255 L -19.6289,-778.024 L -20.1791,-777.722
 L -20.6871,-777.353 L -21.1448,-776.923 L -21.5451,-776.439 L -21.8815,-775.909 L -22.1489,-775.341 L -22.3429,-774.743
 L -22.4606,-774.127 L -22.5,-773.5 L -22.5,-738.5 L -22.4606,-737.873 L -22.3429,-737.257 L -22.1489,-736.659
 L -21.8815,-736.091 L -21.5451,-735.561 L -21.1448,-735.077 L -20.6871,-734.647 L -20.1791,-734.278 L -19.6289,-733.976
 L -19.0451,-733.745 L -18.4369,-733.589 L -17.8139,-733.51 L 17.8139,-733.51 z
M -15.1884,-768.006 L -15.5621,-768.053 L -15.927,-768.147 L -16.2773,-768.286 L -16.6075,-768.467 L -16.9123,-768.688
 L -17.1869,-768.946 L -17.427,-769.237 L -17.6289,-769.555 L -17.7893,-769.896 L -17.9057,-770.254 L -17.9763,-770.624
 L -18,-771 L -17.9763,-771.376 L -17.9057,-771.746 L -17.7893,-772.104 L -17.6289,-772.445 L -17.427,-772.763
 L -17.1869,-773.054 L -16.9123,-773.312 L -16.6075,-773.533 L -16.2773,-773.714 L -15.927,-773.853 L -15.5621,-773.947
 L -15.1884,-773.994 L -14.8116,-773.994 L -14.4379,-773.947 L -14.0729,-773.853 L -13.7227,-773.714 L -13.3925,-773.533
 L -13.0877,-773.312 L -12.8131,-773.054 L -12.5729,-772.763 L -12.3711,-772.445 L -12.2107,-772.104 L -12.0942,-771.746
 L -12.0237,-771.376 L -12,-771 L -12.0237,-770.624 L -12.0942,-770.254 L -12.2107,-769.896 L -12.3711,-769.555
 L -12.5729,-769.237 L -12.8131,-768.946 L -13.0877,-768.688 L -13.3925,-768.467 L -13.7227,-768.286 L -14.0729,-768.147
 L -14.4379,-768.053 L -14.8116,-768.006 z
M 14.8116,-768.006 L 14.4379,-768.053 L 14.0729,-768.147 L 13.7227,-768.286 L 13.3925,-768.467 L 13.0877,-768.688
 L 12.8131,-768.946 L 12.5729,-769.237 L 12.3711,-769.555 L 12.2107,-769.896 L 12.0942,-770.254 L 12.0237,-770.624
 L 12,-771 L 12.0237,-771.376 L 12.0942,-771.746 L 12.2107,-772.104 L 12.3711,-772.445 L 12.5729,-772.763
 L 12.8131,-773.054 L 13.0877,-773.312 L 13.3925,-773.533 L 13.7227,-773.714 L 14.0729,-773.853 L 14.4379,-773.947
 L 14.8116,-773.994 L 15.1884,-773.994 L 15.5621,-773.947 L 15.927,-773.853 L 16.2773,-773.714 L 16.6075,-773.533
 L 16.9123,-773.312 L 17.1869,-773.054 L 17.427,-772.763 L 17.6289,-772.445 L 17.7893,-772.104 L 17.9057,-771.746
 L 17.9763,-771.376 L 18,-771 L 17.9763,-770.624 L 17.9057,-770.254 L 17.7893,-769.896 L 17.6289,-769.555
 L 17.427,-769.237 L 17.1869,-768.946 L 16.9123,-768.688 L 16.6075,-768.467 L 16.2773,-768.286 L 15.927,-768.147
 L 15.5621,-768.053 L 15.1884,-768.006 z
M -0.847672,-742.527 L -2.52963,-742.739 L -4.17172,-743.161 L -5.74802,-743.785 L -7.23366,-744.602 L -8.60521,-745.598
 L -9.84106,-746.759 L -10.9217,-748.065 L -11.8301,-749.496 L -12.552,-751.03 L -13.0759,-752.643 L -13.3935,-754.308
 L -13.5,-756 L -13.3935,-757.692 L -13.0759,-759.357 L -12.552,-760.97 L -11.8301,-762.504 L -10.9217,-763.935
 L -9.84106,-765.241 L -8.60521,-766.402 L -7.23366,-767.398 L -5.74802,-768.215 L -4.17172,-768.839 L -2.52963,-769.261
 L -0.847672,-769.473 L 0.847672,-769.473 L 2.52963,-769.261 L 4.17172,-768.839 L 5.74802,-768.215 L 7.23366,-767.398
 L 8.60521,-766.402 L 9.84106,-765.241 L 10.9217,-763.935 L 11.8301,-762.504 L 12.552,-760.97 L 13.0759,-759.357
 L 13.3935,-757.692 L 13.5,-756 L 13.3935,-754.308 L 13.0759,-752.643 L 12.552,-751.03 L 11.8301,-749.496
 L 10.9217,-748.065 L 9.84106,-746.759 L 8.60521,-745.598 L 7.23366,-744.602 L 5.74802,-743.785 L 4.17172,-743.161
 L 2.52963,-742.739 L 0.847672,-742.527 z
M 14.8116,-738.006 L 14.4379,-738.053 L 14.0729,-738.147 L 13.7227,-738.286 L 13.3925,-738.467 L 13.0877,-738.688
 L 12.8131,-738.946 L 12.5729,-739.237 L 12.3711,-739.555 L 12.2107,-739.896 L 12.0942,-740.254 L 12.0237,-740.624
 L 12,-741 L 12.0237,-741.376 L 12.0942,-741.746 L 12.2107,-742.104 L 12.3711,-742.445 L 12.5729,-742.763
 L 12.8131,-743.054 L 13.0877,-743.312 L 13.3925,-743.533 L 13.7227,-743.714 L 14.0729,-743.853 L 14.4379,-743.947
 L 14.8116,-743.994 L 15.1884,-743.994 L 15.5621,-743.947 L 15.927,-743.853 L 16.2773,-743.714 L 16.6075,-743.533
 L 16.9123,-743.312 L 17.1869,-743.054 L 17.427,-742.763 L 17.6289,-742.445 L 17.7893,-742.104 L 17.9057,-741.746
 L 17.9763,-741.376 L 18,-741 L 17.9763,-740.624 L 17.9057,-740.254 L 17.7893,-739.896 L 17.6289,-739.555
 L 17.427,-739.237 L 17.1869,-738.946 L 16.9123,-738.688 L 16.6075,-738.467 L 16.2773,-738.286 L 15.927,-738.147
 L 15.5621,-738.053 L 15.1884,-738.006 z
M -15.1884,-738.006 L -15.5621,-738.053 L -15.927,-738.147 L -16.2773,-738.286 L -16.6075,-738.467 L -16.9123,-738.688
 L -17.1869,-738.946 L -17.427,-739.237 L -17.6289,-739.555 L -17.7893,-739.896 L -17.9057,-740.254 L -17.9763,-740.624
 L -18,-741 L -17.9763,-741.376 L -17.9057,-741.746 L -17.7893,-742.104 L -17.6289,-742.445 L -17.427,-742.763
 L -17.1869,-743.054 L -16.9123,-743.312 L -16.6075,-743.533 L -16.2773,-743.714 L -15.927,-743.853 L -15.5621,-743.947
 L -15.1884,-743.994 L -14.8116,-743.994 L -14.4379,-743.947 L -14.0729,-743.853 L -13.7227,-743.714 L -13.3925,-743.533
 L -13.0877,-743.312 L -12.8131,-743.054 L -12.5729,-742.763 L -12.3711,-742.445 L -12.2107,-742.104 L -12.0942,-741.746
 L -12.0237,-741.376 L -12,-741 L -12.0237,-740.624 L -12.0942,-740.254 L -12.2107,-739.896 L -12.3711,-739.555
 L -12.5729,-739.237 L -12.8131,-738.946 L -13.0877,-738.688 L -13.3925,-738.467 L -13.7227,-738.286 L -14.0729,-738.147
 L -14.4379,-738.053 L -14.8116,-738.006 z
M 18.4369,-679.589 L 19.0451,-679.745 L 19.6289,-679.976 L 20.1791,-680.278 L 20.6871,-680.647 L 21.1448,-681.077
 L 21.5451,-681.561 L 21.8815,-682.091 L 22.1489,-682.659 L 22.3429,-683.257 L 22.4606,-683.873 L 22.5,-684.5
 L 22.5,-719.5 L 22.4606,-720.127 L 22.3429,-720.743 L 22.1489,-721.341 L 21.8815,-721.909 L 21.5451,-722.439
 L 21.1448,-722.923 L 20.6871,-723.353 L 20.1791,-723.722 L 19.6289,-724.024 L 19.0451,-724.255 L 18.4369,-724.411
 L 17.8139,-724.49 L -17.8139,-724.49 L -18.4369,-724.411 L -19.0451,-724.255 L -19.6289,-724.024 L -20.1791,-723.722
 L -20.6871,-723.353 L -21.1448,-722.923 L -21.5451,-722.439 L -21.8815,-721.909 L -22.1489,-721.341 L -22.3429,-720.743
 L -22.4606,-720.127 L -22.5,-719.5 L -22.5,-684.5 L -22.4606,-683.873 L -22.3429,-683.257 L -22.1489,-682.659
 L -21.8815,-682.091 L -21.5451,-681.561 L -21.1448,-681.077 L -20.6871,-680.647 L -20.1791,-680.278 L -19.6289,-679.976
 L -19.0451,-679.745 L -18.4369,-679.589 L -17.8139,-679.51 L 17.8139,-679.51 z
M -15.1884,-714.006 L -15.5621,-714.053 L -15.927,-714.147 L -16.2773,-714.286 L -16.6075,-714.467 L -16.9123,-714.688
 L -17.1869,-714.946 L -17.427,-715.237 L -17.6289,-715.555 L -17.7893,-715.896 L -17.9057,-716.254 L -17.9763,-716.624
 L -18,-717 L -17.9763,-717.376 L -17.9057,-717.746 L -17.7893,-718.104 L -17.6289,-718.445 L -17.427,-718.763
 L -17.1869,-719.054 L -16.9123,-719.312 L -16.6075,-719.533 L -16.2773,-719.714 L -15.927,-719.853 L -15.5621,-719.947
 L -15.1884,-719.994 L -14.8116,-719.994 L -14.4379,-719.947 L -14.0729,-719.853 L -13.7227,-719.714 L -13.3925,-719.533
 L -13.0877,-719.312 L -12.8131,-719.054 L -12.5729,-718.763 L -12.3711,-718.445 L -12.2107,-718.104 L -12.0942,-717.746
 L -12.0237,-717.376 L -12,-717 L -12.0237,-716.624 L -12.0942,-716.254 L -12.2107,-715.896 L -12.3711,-715.555
 L -12.5729,-715.237 L -12.8131,-714.946 L -13.0877,-714.688 L -13.3925,-714.467 L -13.7227,-714.286 L -14.0729,-714.147
 L -14.4379,-714.053 L -14.8116,-714.006 z
M 14.8116,-714.006 L 14.4379,-714.053 L 14.0729,-714.147 L 13.7227,-714.286 L 13.3925,-714.467 L 13.0877,-714.688
 L 12.8131,-714.946 L 12.5729,-715.237 L 12.3711,-715.555 L 12.2107,-715.896 L 12.0942,-716.254 L 12.0237,-716.624
 L 12,-717 L 12.0237,-717.376 L 12.0942,-717.746 L 12.2107,-718.104 L 12.3711,-718.445 L 12.5729,-718.763
 L 12.8131,-719.054 L 13.0877,-719.312 L 13.3925,-719.533 L 13.7227,-719.714 L 14.0729,-719.853 L 14.4379,-719.947
 L 14.8116,-719.994 L 15.1884,-719.994 L 15.5621,-719.947 L 15.927,-719.853 L 16.2773,-719.714 L 16.6075,-719.533
 L 16.9123,-719.312 L 17.1869,-719.054 L 17.427,-718.763 L 17.6289,-718.445 L 17.7893,-718.104 L 17.9057,-717.746
 L 17.9763,-717.376 L 18,-717 L 17.9763,-716.624 L 17.9057,-716.254 L 17.7893,-715.896 L 17.6289,-715.555
 L 17.427,-715.237 L 17.1869,-714.946 L 16.9123,-714.688 L 16.6075,-714.467 L 16.2773,-714.286 L 15.927,-714.147
 L 15.5621,-714.053 L 15.1884,-714.006 z
M -0.847672,-688.527 L -2.52963,-688.739 L -4.17172,-689.161 L -5.74802,-689.785 L -7.23366,-690.602 L -8.60521,-691.598
 L -9.84106,-692.759 L -10.9217,-694.065 L -11.8301,-695.496 L -12.552,-697.03 L -13.0759,-698.643 L -13.3935,-700.308
 L -13.5,-702 L -13.3935,-703.692 L -13.0759,-705.357 L -12.552,-706.97 L -11.8301,-708.504 L -10.9217,-709.935
 L -9.84106,-711.241 L -8.60521,-712.402 L -7.23366,-713.398 L -5.74802,-714.215 L -4.17172,-714.839 L -2.52963,-715.261
 L -0.847672,-715.473 L 0.847672,-715.473 L 2.52963,-715.261 L 4.17172,-714.839 L 5.74802,-714.215 L 7.23366,-713.398
 L 8.60521,-712.402 L 9.84106,-711.241 L 10.9217,-709.935 L 11.8301,-708.504 L 12.552,-706.97 L 13.0759,-705.357
 L 13.3935,-703.692 L 13.5,-702 L 13.3935,-700.308 L 13.0759,-698.643 L 12.552,-697.03 L 11.8301,-695.496
 L 10.9217,-694.065 L 9.84106,-692.759 L 8.60521,-691.598 L 7.23366,-690.602 L 5.74802,-689.785 L 4.17172,-689.161
 L 2.52963,-688.739 L 0.847672,-688.527 z
M 14.8116,-684.006 L 14.4379,-684.053 L 14.0729,-684.147 L 13.7227,-684.286 L 13.3925,-684.467 L 13.0877,-684.688
 L 12.8131,-684.946 L 12.5729,-685.237 L 12.3711,-685.555 L 12.2107,-685.896 L 12.0942,-686.254 L 12.0237,-686.624
 L 12,-687 L 12.0237,-687.376 L 12.0942,-687.746 L 12.2107,-688.104 L 12.3711,-688.445 L 12.5729,-688.763
 L 12.8131,-689.054 L 13.0877,-689.312 L 13.3925,-689.533 L 13.7227,-689.714 L 14.0729,-689.853 L 14.4379,-689.947
 L 14.8116,-689.994 L 15.1884,-689.994 L 15.5621,-689.947 L 15.927,-689.853 L 16.2773,-689.714 L 16.6075,-689.533
 L 16.9123,-689.312 L 17.1869,-689.054 L 17.427,-688.763 L 17.6289,-688.445 L 17.7893,-688.104 L 17.9057,-687.746
 L 17.9763,-687.376 L 18,-687 L 17.9763,-686.624 L 17.9057,-686.254 L 17.7893,-685.896 L 17.6289,-685.555
 L 17.427,-685.237 L 17.1869,-684.946 L 16.9123,-684.688 L 16.6075,-684.467 L 16.2773,-684.286 L 15.927,-684.147
 L 15.5621,-684.053 L 15.1884,-684.006 z
M -15.1884,-684.006 L -15.5621,-684.053 L -15.927,-684.147 L -16.2773,-684.286 L -16.6075,-684.467 L -16.9123,-684.688
 L -17.1869,-684.946 L -17.427,-685.237 L -17.6289,-685.555 L -17.7893,-685.896 L -17.9057,-686.254 L -17.9763,-686.624
 L -18,-687 L -17.9763,-687.376 L -17.9057,-687.746 L -17.7893,-688.104 L -17.6289,-688.445 L -17.427,-688.763
 L -17.1869,-689.054 L -16.9123,-689.312 L -16.6075,-689.533 L -16.2773,-689.714 L -15.927,-689.853 L -15.5621,-689.947
 L -15.1884,-689.994 L -14.8116,-689.994 L -14.4379,-689.947 L -14.0729,-689.853 L -13.7227,-689.714 L -13.3925,-689.533
 L -13.0877,-689.312 L -12.8131,-689.054 L -12.5729,-688.763 L -12.3711,-688.445 L -12.2107,-688.104 L -12.0942,-687.746
 L -12.0237,-687.376 L -12,-687 L -12.0237,-686.624 L -12.0942,-686.254 L -12.2107,-685.896 L -12.3711,-685.555
 L -12.5729,-685.237 L -12.8131,-684.946 L -13.0877,-684.688 L -13.3925,-684.467 L -13.7227,-684.286 L -14.0729,-684.147
 L -14.4379,-684.053 L -14.8116,-684.006 z
M 18.4369,-625.589 L 19.0451,-625.745 L 19.6289,-625.976 L 20.1791,-626.278 L 20.6871,-626.647 L 21.1448,-627.077
 L 21.5451,-627.561 L 21.8815,-628.091 L 22.1489,-628.659 L 22.3429,-629.257 L 22.4606,-629.873 L 22.5,-630.5
 L 22.5,-665.5 L 22.4606,-666.127 L 22.3429,-666.743 L 22.1489,-667.341 L 21.8815,-667.909 L 21.5451,-668.439
 L 21.1448,-668.923 L 20.6871,-669.353 L 20.1791,-669.722 L 19.6289,-670.024 L 19.0451,-670.255 L 18.4369,-670.411
 L 17.8139,-670.49 L -17.8139,-670.49 L -18.4369,-670.411 L -19.0451,-670.255 L -19.6289,-670.024 L -20.1791,-669.722
 L -20.6871,-669.353 L -21.1448,-668.923 L -21.5451,-668.439 L -21.8815,-667.909 L -22.1489,-667.341 L -22.3429,-666.743
 L -22.4606,-666.127 L -22.5,-665.5 L -22.5,-630.5 L -22.4606,-629.873 L -22.3429,-629.257 L -22.1489,-628.659
 L -21.8815,-628.091 L -21.5451,-627.561 L -21.1448,-627.077 L -20.6871,-626.647 L -20.1791,-626.278 L -19.6289,-625.976
 L -19.0451,-625.745 L -18.4369,-625.589 L -17.8139,-625.51 L 17.8139,-625.51 z
M -15.1884,-660.006 L -15.5621,-660.053 L -15.927,-660.147 L -16.2773,-660.286 L -16.6075,-660.467 L -16.9123,-660.688
 L -17.1869,-660.946 L -17.427,-661.237 L -17.6289,-661.555 L -17.7893,-661.896 L -17.9057,-662.254 L -17.9763,-662.624
 L -18,-663 L -17.9763,-663.376 L -17.9057,-663.746 L -17.7893,-664.104 L -17.6289,-664.445 L -17.427,-664.763
 L -17.1869,-665.054 L -16.9123,-665.312 L -16.6075,-665.533 L -16.2773,-665.714 L -15.927,-665.853 L -15.5621,-665.947
 L -15.1884,-665.994 L -14.8116,-665.994 L -14.4379,-665.947 L -14.0729,-665.853 L -13.7227,-665.714 L -13.3925,-665.533
 L -13.0877,-665.312 L -12.8131,-665.054 L -12.5729,-664.763 L -12.3711,-664.445 L -12.2107,-664.104 L -12.0942,-663.746
 L -12.0237,-663.376 L -12,-663 L -12.0237,-662.624 L -12.0942,-662.254 L -12.2107,-661.896 L -12.3711,-661.555
 L -12.5729,-661.237 L -12.8131,-660.946 L -13.0877,-660.688 L -13.3925,-660.467 L -13.7227,-660.286 L -14.0729,-660.147
 L -14.4379,-660.053 L -14.8116,-660.006 z
M 14.8116,-660.006 L 14.4379,-660.053 L 14.0729,-660.147 L 13.7227,-660.286 L 13.3925,-660.467 L 13.0877,-660.688
 L 12.8131,-660.946 L 12.5729,-661.237 L 12.3711,-661.555 L 12.2107,-661.896 L 12.0942,-662.254 L 12.0237,-662.624
 L 12,-663 L 12.0237,-663.376 L 12.0942,-663.746 L 12.2107,-664.104 L 12.3711,-664.445 L 12.5729,-664.763
 L 12.8131,-665.054 L 13.0877,-665.312 L 13.3925,-665.533 L 13.7227,-665.714 L 14.0729,-665.853 L 14.4379,-665.947
 L 14.8116,-665.994 L 15.1884,-665.994 L 15.5621,-665.947 L 15.927,-665.853 L 16.2773,-665.714 L 16.6075,-665.533
 L 16.9123,-665.312 L 17.1869,-665.054 L 17.427,-664.763 L 17.6289,-664.445 L 17.7893,-664.104 L 17.9057,-663.746
 L 17.9763,-663.376 L 18,-663 L 17.9763,-662.624 L 17.9057,-662.254 L 17.7893,-661.896 L 17.6289,-661.555
 L 17.427,-661.237 L 17.1869,-660.946 L 16.9123,-660.688 L 16.6075,-660.467 L 16.2773,-660.286 L 15.927,-660.147
 L 15.5621,-660.053 L 15.1884,-660.006 z
M -0.847672,-634.527 L -2.52963,-634.739 L -4.17172,-635.161 L -5.74802,-635.785 L -7.23366,-636.602 L -8.60521,-637.598
 L -9.84106,-638.759 L -10.9217,-640.065 L -11.8301,-641.496 L -12.552,-643.03 L -13.0759,-644.643 L -13.3935,-646.308
 L -13.5,-648 L -13.3935,-649.692 L -13.0759,-651.357 L -12.552,-652.97 L -11.8301,-654.504 L -10.9217,-655.935
 L -9.84106,-657.241 L -8.60521,-658.402 L -7.23366,-659.398 L -5.74802,-660.215 L -4.17172,-660.839 L -2.52963,-661.261
 L -0.847672,-661.473 L 0.847672,-661.473 L 2.52963,-661.261 L 4.17172,-660.839 L 5.74802,-660.215 L 7.23366,-659.398
 L 8.60521,-658.402 L 9.84106,-657.241 L 10.9217,-655.935 L 11.8301,-654.504 L 12.552,-652.97 L 13.0759,-651.357
 L 13.3935,-649.692 L 13.5,-648 L 13.3935,-646.308 L 13.0759,-644.643 L 12.552,-643.03 L 11.8301,-641.496
 L 10.9217,-640.065 L 9.84106,-638.759 L 8.60521,-637.598 L 7.23366,-636.602 L 5.74802,-635.785 L 4.17172,-635.161
 L 2.52963,-634.739 L 0.847672,-634.527 z
M 14.8116,-630.006 L 14.4379,-630.053 L 14.0729,-630.147 L 13.7227,-630.286 L 13.3925,-630.467 L 13.0877,-630.688
 L 12.8131,-630.946 L 12.5729,-631.237 L 12.3711,-631.555 L 12.2107,-631.896 L 12.0942,-632.254 L 12.0237,-632.624
 L 12,-633 L 12.0237,-633.376 L 12.0942,-633.746 L 12.2107,-634.104 L 12.3711,-634.445 L 12.5729,-634.763
 L 12.8131,-635.054 L 13.0877,-635.312 L 13.3925,-635.533 L 13.7227,-635.714 L 14.0729,-635.853 L 14.4379,-635.947
 L 14.8116,-635.994 L 15.1884,-635.994 L 15.5621,-635.947 L 15.927,-635.853 L 16.2773,-635.714 L 16.6075,-635.533
 L 16.9123,-635.312 L 17.1869,-635.054 L 17.427,-634.763 L 17.6289,-634.445 L 17.7893,-634.104 L 17.9057,-633.746
 L 17.9763,-633.376 L 18,-633 L 17.9763,-632.624 L 17.9057,-632.254 L 17.7893,-631.896 L 17.6289,-631.555
 L 17.427,-631.237 L 17.1869,-630.946 L 16.9123,-630.688 L 16.6075,-630.467 L 16.2773,-630.286 L 15.927,-630.147
 L 15.5621,-630.053 L 15.1884,-630.006 z
M -15.1884,-630.006 L -15.5621,-630.053 L -15.927,-630.147 L -16.2773,-630.286 L -16.6075,-630.467 L -16.9123,-630.688
 L -17.1869,-630.946 L -17.427,-631.237 L -17.6289,-631.555 L -17.7893,-631.896 L -17.9057,-632.254 L -17.9763,-632.624
 L -18,-633 L -17.9763,-633.376 L -17.9057,-633.746 L -17.7893,-634.104 L -17.6289,-634.445 L -17.427,-634.763
 L -17.1869,-635.054 L -16.9123,-635.312 L -16.6075,-635.533 L -16.2773,-635.714 L -15.927,-635.853 L -15.5621,-635.947
 L -15.1884,-635.994 L -14.8116,-635.994 L -14.4379,-635.947 L -14.0729,-635.853 L -13.7227,-635.714 L -13.3925,-635.533
 L -13.0877,-635.312 L -12.8131,-635.054 L -12.5729,-634.763 L -12.3711,-634.445 L -12.2107,-634.104 L -12.0942,-633.746
 L -12.0237,-633.376 L -12,-633 L -12.0237,-632.624 L -12.0942,-632.254 L -12.2107,-631.896 L -12.3711,-631.555
 L -12.5729,-631.237 L -12.8131,-630.946 L -13.0877,-630.688 L -13.3925,-630.467 L -13.7227,-630.286 L -14.0729,-630.147
 L -14.4379,-630.053 L -14.8116,-630.006 z
M 18.4369,-571.589 L 19.0451,-571.745 L 19.6289,-571.976 L 20.1791,-572.278 L 20.6871,-572.647 L 21.1448,-573.077
 L 21.5451,-573.561 L 21.8815,-574.091 L 22.1489,-574.659 L 22.3429,-575.257 L 22.4606,-575.873 L 22.5,-576.5
 L 22.5,-611.5 L 22.4606,-612.127 L 22.3429,-612.743 L 22.1489,-613.341 L 21.8815,-613.909 L 21.5451,-614.439
 L 21.1448,-614.923 L 20.6871,-615.353 L 20.1791,-615.722 L 19.6289,-616.024 L 19.0451,-616.255 L 18.4369,-616.411
 L 17.8139,-616.49 L -17.8139,-616.49 L -18.4369,-616.411 L -19.0451,-616.255 L -19.6289,-616.024 L -20.1791,-615.722
 L -20.6871,-615.353 L -21.1448,-614.923 L -21.5451,-614.439 L -21.8815,-613.909 L -22.1489,-613.341 L -22.3429,-612.743
 L -22.4606,-612.127 L -22.5,-611.5 L -22.5,-576.5 L -22.4606,-575.873 L -22.3429,-575.257 L -22.1489,-574.659
 L -21.8815,-574.091 L -21.5451,-573.561 L -21.1448,-573.077 L -20.6871,-572.647 L -20.1791,-572.278 L -19.6289,-571.976
 L -19.0451,-571.745 L -18.4369,-571.589 L -17.8139,-571.51 L 17.8139,-571.51 z
M -15.1884,-606.006 L -15.5621,-606.053 L -15.927,-606.147 L -16.2773,-606.286 L -16.6075,-606.467 L -16.9123,-606.688
 L -17.1869,-606.946 L -17.427,-607.237 L -17.6289,-607.555 L -17.7893,-607.896 L -17.9057,-608.254 L -17.9763,-608.624
 L -18,-609 L -17.9763,-609.376 L -17.9057,-609.746 L -17.7893,-610.104 L -17.6289,-610.445 L -17.427,-610.763
 L -17.1869,-611.054 L -16.9123,-611.312 L -16.6075,-611.533 L -16.2773,-611.714 L -15.927,-611.853 L -15.5621,-611.947
 L -15.1884,-611.994 L -14.8116,-611.994 L -14.4379,-611.947 L -14.0729,-611.853 L -13.7227,-611.714 L -13.3925,-611.533
 L -13.0877,-611.312 L -12.8131,-611.054 L -12.5729,-610.763 L -12.3711,-610.445 L -12.2107,-610.104 L -12.0942,-609.746
 L -12.0237,-609.376 L -12,-609 L -12.0237,-608.624 L -12.0942,-608.254 L -12.2107,-607.896 L -12.3711,-607.555
 L -12.5729,-607.237 L -12.8131,-606.946 L -13.0877,-606.688 L -13.3925,-606.467 L -13.7227,-606.286 L -14.0729,-606.147
 L -14.4379,-606.053 L -14.8116,-606.006 z
M 14.8116,-606.006 L 14.4379,-606.053 L 14.0729,-606.147 L 13.7227,-606.286 L 13.3925,-606.467 L 13.0877,-606.688
 L 12.8131,-606.946 L 12.5729,-607.237 L 12.3711,-607.555 L 12.2107,-607.896 L 12.0942,-608.254 L 12.0237,-608.624
 L 12,-609 L 12.0237,-609.376 L 12.0942,-609.746 L 12.2107,-610.104 L 12.3711,-610.445 L 12.5729,-610.763
 L 12.8131,-611.054 L 13.0877,-611.312 L 13.3925,-611.533 L 13.7227,-611.714 L 14.0729,-611.853 L 14.4379,-611.947
 L 14.8116,-611.994 L 15.1884,-611.994 L 15.5621,-611.947 L 15.927,-611.853 L 16.2773,-611.714 L 16.6075,-611.533
 L 16.9123,-611.312 L 17.1869,-611.054 L 17.427,-610.763 L 17.6289,-610.445 L 17.7893,-610.104 L 17.9057,-609.746
 L 17.9763,-609.376 L 18,-609 L 17.9763,-608.624 L 17.9057,-608.254 L 17.7893,-607.896 L 17.6289,-607.555
 L 17.427,-607.237 L 17.1869,-606.946 L 16.9123,-606.688 L 16.6075,-606.467 L 16.2773,-606.286 L 15.927,-606.147
 L 15.5621,-606.053 L 15.1884,-606.006 z
M -0.847672,-580.527 L -2.52963,-580.739 L -4.17172,-581.161 L -5.74802,-581.785 L -7.23366,-582.602 L -8.60521,-583.598
 L -9.84106,-584.759 L -10.9217,-586.065 L -11.8301,-587.496 L -12.552,-589.03 L -13.0759,-590.643 L -13.3935,-592.308
 L -13.5,-594 L -13.3935,-595.692 L -13.0759,-597.357 L -12.552,-598.97 L -11.8301,-600.504 L -10.9217,-601.935
 L -9.84106,-603.241 L -8.60521,-604.402 L -7.23366,-605.398 L -5.74802,-606.215 L -4.17172,-606.839 L -2.52963,-607.261
 L -0.847672,-607.473 L 0.847672,-607.473 L 2.52963,-607.261 L 4.17172,-606.839 L 5.74802,-606.215 L 7.23366,-605.398
 L 8.60521,-604.402 L 9.84106,-603.241 L 10.9217,-601.935 L 11.8301,-600.504 L 12.552,-598.97 L 13.0759,-597.357
 L 13.3935,-595.692 L 13.5,-594 L 13.3935,-592.308 L 13.0759,-590.643 L 12.552,-589.03 L 11.8301,-587.496
 L 10.9217,-586.065 L 9.84106,-584.759 L 8.60521,-583.598 L 7.23366,-582.602 L 5.74802,-581.785 L 4.17172,-581.161
 L 2.52963,-580.739 L 0.847672,-580.527 z
M 14.8116,-576.006 L 14.4379,-576.053 L 14.0729,-576.147 L 13.7227,-576.286 L 13.3925,-576.467 L 13.0877,-576.688
 L 12.8131,-576.946 L 12.5729,-577.237 L 12.3711,-577.555 L 12.2107,-577.896 L 12.0942,-578.254 L 12.0237,-578.624
 L 12,-579 L 12.0237,-579.376 L 12.0942,-579.746 L 12.2107,-580.104 L 12.3711,-580.445 L 12.5729,-580.763
 L 12.8131,-581.054 L 13.0877,-581.312 L 13.3925,-581.533 L 13.7227,-581.714 L 14.0729,-581.853 L 14.4379,-581.947
 L 14.8116,-581.994 L 15.1884,-581.994 L 15.5621,-581.947 L 15.927,-581.853 L 16.2773,-581.714 L 16.6075,-581.533
 L 16.9123,-581.312 L 17.1869,-581.054 L 17.427,-580.763 L 17.6289,-580.445 L 17.7893,-580.104 L 17.9057,-579.746
 L 17.9763,-579.376 L 18,-579 L 17.9763,-578.624 L 17.9057,-578.254 L 17.7893,-577.896 L 17.6289,-577.555
 L 17.427,-577.237 L 17.1869,-576.946 L 16.9123,-576.688 L 16.6075,-576.467 L 16.2773,-576.286 L 15.927,-576.147
 L 15.5621,-576.053 L 15.1884,-576.006 z
M -15.1884,-576.006 L -15.5621,-576.053 L -15.927,-576.147 L -16.2773,-576.286 L -16.6075,-576.467 L -16.9123,-576.688
 L -17.1869,-576.946 L -17.427,-577.237 L -17.6289,-577.555 L -17.7893,-577.896 L -17.9057,-578.254 L -17.9763,-578.624
 L -18,-579 L -17.9763,-579.376 L -17.9057,-579.746 L -17.7893,-580.104 L -17.6289,-580.445 L -17.427,-580.763
 L -17.1869,-581.054 L -16.9123,-581.312 L -16.6075,-581.533 L -16.2773,-581.714 L -15.927,-581.853 L -15.5621,-581.947
 L -15.1884,-581.994 L -14.8116,-581.994 L -14.4379,-581.947 L -14.0729,-581.853 L -13.7227,-581.714 L -13.3925,-581.533
 L -13.0877,-581.312 L -12.8131,-581.054 L -12.5729,-580.763 L -12.3711,-580.445 L -12.2107,-580.104 L -12.0942,-579.746
 L -12.0237,-579.376 L -12,-579 L -12.0237,-578.624 L -12.0942,-578.254 L -12.2107,-577.896 L -12.3711,-577.555
 L -12.5729,-577.237 L -12.8131,-576.946 L -13.0877,-576.688 L -13.3925,-576.467 L -13.7227,-576.286 L -14.0729,-576.147
 L -14.4379,-576.053 L -14.8116,-576.006 z
M 18.4369,-517.589 L 19.0451,-517.745 L 19.6289,-517.976 L 20.1791,-518.278 L 20.6871,-518.647 L 21.1448,-519.077
 L 21.5451,-519.561 L 21.8815,-520.091 L 22.1489,-520.659 L 22.3429,-521.257 L 22.4606,-521.873 L 22.5,-522.5
 L 22.5,-557.5 L 22.4606,-558.127 L 22.3429,-558.743 L 22.1489,-559.341 L 21.8815,-559.909 L 21.5451,-560.439
 L 21.1448,-560.923 L 20.6871,-561.353 L 20.1791,-561.722 L 19.6289,-562.024 L 19.0451,-562.255 L 18.4369,-562.411
 L 17.8139,-562.49 L -17.8139,-562.49 L -18.4369,-562.411 L -19.0451,-562.255 L -19.6289,-562.024 L -20.1791,-561.722
 L -20.6871,-561.353 L -21.1448,-560.923 L -21.5451,-560.439 L -21.8815,-559.909 L -22.1489,-559.341 L -22.3429,-558.743
 L -22.4606,-558.127 L -22.5,-557.5 L -22.5,-522.5 L -22.4606,-521.873 L -22.3429,-521.257 L -22.1489,-520.659
 L -21.8815,-520.091 L -21.5451,-519.561 L -21.1448,-519.077 L -20.6871,-518.647 L -20.1791,-518.278 L -19.6289,-517.976
 L -19.0451,-517.745 L -18.4369,-517.589 L -17.8139,-517.51 L 17.8139,-517.51 z
M -15.1884,-552.006 L -15.5621,-552.053 L -15.927,-552.147 L -16.2773,-552.286 L -16.6075,-552.467 L -16.9123,-552.688
 L -17.1869,-552.946 L -17.427,-553.237 L -17.6289,-553.555 L -17.7893,-553.896 L -17.9057,-554.254 L -17.9763,-554.624
 L -18,-555 L -17.9763,-555.376 L -17.9057,-555.746 L -17.7893,-556.104 L -17.6289,-556.445 L -17.427,-556.763
 L -17.1869,-557.054 L -16.9123,-557.312 L -16.6075,-557.533 L -16.2773,-557.714 L -15.927,-557.853 L -15.5621,-557.947
 L -15.1884,-557.994 L -14.8116,-557.994 L -14.4379,-557.947 L -14.0729,-557.853 L -13.7227,-557.714 L -13.3925,-557.533
 L -13.0877,-557.312 L -12.8131,-557.054 L -12.5729,-556.763 L -12.3711,-556.445 L -12.2107,-556.104 L -12.0942,-555.746
 L -12.0237,-555.376 L -12,-555 L -12.0237,-554.624 L -12.0942,-554.254 L -12.2107,-553.896 L -12.3711,-553.555
 L -12.5729,-553.237 L -12.8131,-552.946 L -13.0877,-552.688 L -13.3925,-552.467 L -13.7227,-552.286 L -14.0729,-552.147
 L -14.4379,-552.053 L -14.8116,-552.006 z
M 14.8116,-552.006 L 14.4379,-552.053 L 14.0729,-552.147 L 13.7227,-552.286 L 13.3925,-552.467 L 13.0877,-552.688
 L 12.8131,-552.946 L 12.5729,-553.237 L 12.3711,-553.555 L 12.2107,-553.896 L 12.0942,-554.254 L 12.0237,-554.624
 L 12,-555 L 12.0237,-555.376 L 12.0942,-555.746 L 12.2107,-556.104 L 12.3711,-556.445 L 12.5729,-556.763
 L 12.8131,-557.054 L 13.0877,-557.312 L 13.3925,-557.533 L 13.7227,-557.714 L 14.0729,-557.853 L 14.4379,-557.947
 L 14.8116,-557.994 L 15.1884,-557.994 L 15.5621,-557.947 L 15.927,-557.853 L 16.2773,-557.714 L 16.6075,-557.533
 L 16.9123,-557.312 L 17.1869,-557.054 L 17.427,-556.763 L 17.6289,-556.445 L 17.7893,-556.104 L 17.9057,-555.746
 L 17.9763,-555.376 L 18,-555 L 17.9763,-554.624 L 17.9057,-554.254 L 17.7893,-553.896 L 17.6289,-553.555
 L 17.427,-553.237 L 17.1869,-552.946 L 16.9123,-552.688 L 16.6075,-552.467 L 16.2773,-552.286 L 15.927,-552.147
 L 15.5621,-552.053 L 15.1884,-552.006 z
M -0.847672,-526.527 L -2.52963,-526.739 L -4.17172,-527.161 L -5.74802,-527.785 L -7.23366,-528.602 L -8.60521,-529.598
 L -9.84106,-530.759 L -10.9217,-532.065 L -11.8301,-533.496 L -12.552,-535.03 L -13.0759,-536.643 L -13.3935,-538.308
 L -13.5,-540 L -13.3935,-541.692 L -13.0759,-543.357 L -12.552,-544.97 L -11.8301,-546.504 L -10.9217,-547.935
 L -9.84106,-549.241 L -8.60521,-550.402 L -7.23366,-551.398 L -5.74802,-552.215 L -4.17172,-552.839 L -2.52963,-553.261
 L -0.847672,-553.473 L 0.847672,-553.473 L 2.52963,-553.261 L 4.17172,-552.839 L 5.74802,-552.215 L 7.23366,-551.398
 L 8.60521,-550.402 L 9.84106,-549.241 L 10.9217,-547.935 L 11.8301,-546.504 L 12.552,-544.97 L 13.0759,-543.357
 L 13.3935,-541.692 L 13.5,-540 L 13.3935,-538.308 L 13.0759,-536.643 L 12.552,-535.03 L 11.8301,-533.496
 L 10.9217,-532.065 L 9.84106,-530.759 L 8.60521,-529.598 L 7.23366,-528.602 L 5.74802,-527.785 L 4.17172,-527.161
 L 2.52963,-526.739 L 0.847672,-526.527 z
M 14.8116,-522.006 L 14.4379,-522.053 L 14.0729,-522.147 L 13.7227,-522.286 L 13.3925,-522.467 L 13.0877,-522.688
 L 12.8131,-522.946 L 12.5729,-523.237 L 12.3711,-523.555 L 12.2107,-523.896 L 12.0942,-524.254 L 12.0237,-524.624
 L 12,-525 L 12.0237,-525.376 L 12.0942,-525.746 L 12.2107,-526.104 L 12.3711,-526.445 L 12.5729,-526.763
 L 12.8131,-527.054 L 13.0877,-527.312 L 13.3925,-527.533 L 13.7227,-527.714 L 14.0729,-527.853 L 14.4379,-527.947
 L 14.8116,-527.994 L 15.1884,-527.994 L 15.5621,-527.947 L 15.927,-527.853 L 16.2773,-527.714 L 16.6075,-527.533
 L 16.9123,-527.312 L 17.1869,-527.054 L 17.427,-526.763 L 17.6289,-526.445 L 17.7893,-526.104 L 17.9057,-525.746
 L 17.9763,-525.376 L 18,-525 L 17.9763,-524.624 L 17.9057,-524.254 L 17.7893,-523.896 L 17.6289,-523.555
 L 17.427,-523.237 L 17.1869,-522.946 L 16.9123,-522.688 L 16.6075,-522.467 L 16.2773,-522.286 L 15.927,-522.147
 L 15.5621,-522.053 L 15.1884,-522.006 z
M -15.1884,-522.006 L -15.5621,-522.053 L -15.927,-522.147 L -16.2773,-522.286 L -16.6075,-522.467 L -16.9123,-522.688
 L -17.1869,-522.946 L -17.427,-523.237 L -17.6289,-523.555 L -17.7893,-523.896 L -17.9057,-524.254 L -17.9763,-524.624
 L -18,-525 L -17.9763,-525.376 L -17.9057,-525.746 L -17.7893,-526.104 L -17.6289,-526.445 L -17.427,-526.763
 L -17.1869,-527.054 L -16.9123,-527.312 L -16.6075,-527.533 L -16.2773,-527.714 L -15.927,-527.853 L -15.5621,-527.947
 L -15.1884,-527.994 L -14.8116,-527.994 L -14.4379,-527.947 L -14.0729,-527.853 L -13.7227,-527.714 L -13.3925,-527.533
 L -13.0877,-527.312 L -12.8131,-527.054 L -12.5729,-526.763 L -12.3711,-526.445 L -12.2107,-526.104 L -12.0942,-525.746
 L -12.0237,-525.376 L -12,-525 L -12.0237,-524.624 L -12.0942,-524.254 L -12.2107,-523.896 L -12.3711,-523.555
 L -12.5729,-523.237 L -12.8131,-522.946 L -13.0877,-522.688 L -13.3925,-522.467 L -13.7227,-522.286 L -14.0729,-522.147
 L -14.4379,-522.053 L -14.8116,-522.006 z
" stroke="black" fill="lightgray" stroke-width="0.5"/>
</svg>
