  0
SECTION
  2
BLOCKS
  0
ENDSEC
  0
SECTION
  2
ENTITIES
  0
LINE
  8
0
 10
48.4369
 20
4536.09
 11
49.0451
 21
4536.24
  0
LINE
  8
0
 10
49.0451
 20
4536.24
 11
49.6289
 21
4536.48
  0
LINE
  8
0
 10
49.6289
 20
4536.48
 11
50.1791
 21
4536.78
  0
LINE
  8
0
 10
50.1791
 20
4536.78
 11
50.6871
 21
4537.15
  0
LINE
  8
0
 10
50.6871
 20
4537.15
 11
51.1448
 21
4537.58
  0
LINE
  8
0
 10
51.1448
 20
4537.58
 11
51.5451
 21
4538.06
  0
LINE
  8
0
 10
51.5451
 20
4538.06
 11
51.8815
 21
4538.59
  0
LINE
  8
0
 10
51.8815
 20
4538.59
 11
52.1489
 21
4539.16
  0
LINE
  8
0
 10
52.1489
 20
4539.16
 11
52.3429
 21
4539.76
  0
LINE
  8
0
 10
52.3429
 20
4539.76
 11
52.4606
 21
4540.37
  0
LINE
  8
0
 10
52.4606
 20
4540.37
 11
52.5
 21
4541
  0
LINE
  8
0
 10
52.5
 20
4541
 11
52.5
 21
4681
  0
LINE
  8
0
 10
52.5
 20
4681
 11
52.4606
 21
4681.63
  0
LINE
  8
0
 10
52.4606
 20
4681.63
 11
52.3429
 21
4682.24
  0
LINE
  8
0
 10
52.3429
 20
4682.24
 11
52.1489
 21
4682.84
  0
LINE
  8
0
 10
52.1489
 20
4682.84
 11
51.8815
 21
4683.41
  0
LINE
  8
0
 10
51.8815
 20
4683.41
 11
51.5451
 21
4683.94
  0
LINE
  8
0
 10
51.5451
 20
4683.94
 11
51.1448
 21
4684.42
  0
LINE
  8
0
 10
51.1448
 20
4684.42
 11
50.6871
 21
4684.85
  0
LINE
  8
0
 10
50.6871
 20
4684.85
 11
50.1791
 21
4685.22
  0
LINE
  8
0
 10
50.1791
 20
4685.22
 11
49.6289
 21
4685.52
  0
LINE
  8
0
 10
49.6289
 20
4685.52
 11
49.0451
 21
4685.76
  0
LINE
  8
0
 10
49.0451
 20
4685.76
 11
48.4369
 21
4685.91
  0
LINE
  8
0
 10
48.4369
 20
4685.91
 11
47.8139
 21
4685.99
  0
LINE
  8
0
 10
47.8139
 20
4685.99
 11
-47.8139
 21
4685.99
  0
LINE
  8
0
 10
-47.8139
 20
4685.99
 11
-48.4369
 21
4685.91
  0
LINE
  8
0
 10
-48.4369
 20
4685.91
 11
-49.0451
 21
4685.76
  0
LINE
  8
0
 10
-49.0451
 20
4685.76
 11
-49.6289
 21
4685.52
  0
LINE
  8
0
 10
-49.6289
 20
4685.52
 11
-50.1791
 21
4685.22
  0
LINE
  8
0
 10
-50.1791
 20
4685.22
 11
-50.6871
 21
4684.85
  0
LINE
  8
0
 10
-50.6871
 20
4684.85
 11
-51.1448
 21
4684.42
  0
LINE
  8
0
 10
-51.1448
 20
4684.42
 11
-51.5451
 21
4683.94
  0
LINE
  8
0
 10
-51.5451
 20
4683.94
 11
-51.8815
 21
4683.41
  0
LINE
  8
0
 10
-51.8815
 20
4683.41
 11
-52.1489
 21
4682.84
  0
LINE
  8
0
 10
-52.1489
 20
4682.84
 11
-52.3429
 21
4682.24
  0
LINE
  8
0
 10
-52.3429
 20
4682.24
 11
-52.4606
 21
4681.63
  0
LINE
  8
0
 10
-52.4606
 20
4681.63
 11
-52.5
 21
4681
  0
LINE
  8
0
 10
-52.5
 20
4681
 11
-52.5
 21
4541
  0
LINE
  8
0
 10
-52.5
 20
4541
 11
-52.4606
 21
4540.37
  0
LINE
  8
0
 10
-52.4606
 20
4540.37
 11
-52.3429
 21
4539.76
  0
LINE
  8
0
 10
-52.3429
 20
4539.76
 11
-52.1489
 21
4539.16
  0
LINE
  8
0
 10
-52.1489
 20
4539.16
 11
-51.8815
 21
4538.59
  0
LINE
  8
0
 10
-51.8815
 20
4538.59
 11
-51.5451
 21
4538.06
  0
LINE
  8
0
 10
-51.5451
 20
4538.06
 11
-51.1448
 21
4537.58
  0
LINE
  8
0
 10
-51.1448
 20
4537.58
 11
-50.6871
 21
4537.15
  0
LINE
  8
0
 10
-50.6871
 20
4537.15
 11
-50.1791
 21
4536.78
  0
LINE
  8
0
 10
-50.1791
 20
4536.78
 11
-49.6289
 21
4536.48
  0
LINE
  8
0
 10
-49.6289
 20
4536.48
 11
-49.0451
 21
4536.24
  0
LINE
  8
0
 10
-49.0451
 20
4536.24
 11
-48.4369
 21
4536.09
  0
LINE
  8
0
 10
-48.4369
 20
4536.09
 11
-47.8139
 21
4536.01
  0
LINE
  8
0
 10
-47.8139
 20
4536.01
 11
47.8139
 21
4536.01
  0
LINE
  8
0
 10
47.8139
 20
4536.01
 11
48.4369
 21
4536.09
  0
LINE
  8
0
 10
-47.2512
 20
4537.51
 11
-47.7495
 21
4537.57
  0
LINE
  8
0
 10
-47.7495
 20
4537.57
 11
-48.2361
 21
4537.7
  0
LINE
  8
0
 10
-48.2361
 20
4537.7
 11
-48.7031
 21
4537.88
  0
LINE
  8
0
 10
-48.7031
 20
4537.88
 11
-49.1433
 21
4538.12
  0
LINE
  8
0
 10
-49.1433
 20
4538.12
 11
-49.5497
 21
4538.42
  0
LINE
  8
0
 10
-49.5497
 20
4538.42
 11
-49.9159
 21
4538.76
  0
LINE
  8
0
 10
-49.9159
 20
4538.76
 11
-50.2361
 21
4539.15
  0
LINE
  8
0
 10
-50.2361
 20
4539.15
 11
-50.5052
 21
4539.57
  0
LINE
  8
0
 10
-50.5052
 20
4539.57
 11
-50.7191
 21
4540.03
  0
LINE
  8
0
 10
-50.7191
 20
4540.03
 11
-50.8743
 21
4540.51
  0
LINE
  8
0
 10
-50.8743
 20
4540.51
 11
-50.9685
 21
4541
  0
LINE
  8
0
 10
-50.9685
 20
4541
 11
-51
 21
4541.5
  0
LINE
  8
0
 10
-51
 20
4541.5
 11
-51
 21
4680.5
  0
LINE
  8
0
 10
-51
 20
4680.5
 11
-50.9685
 21
4681
  0
LINE
  8
0
 10
-50.9685
 20
4681
 11
-50.8743
 21
4681.49
  0
LINE
  8
0
 10
-50.8743
 20
4681.49
 11
-50.7191
 21
4681.97
  0
LINE
  8
0
 10
-50.7191
 20
4681.97
 11
-50.5052
 21
4682.43
  0
LINE
  8
0
 10
-50.5052
 20
4682.43
 11
-50.2361
 21
4682.85
  0
LINE
  8
0
 10
-50.2361
 20
4682.85
 11
-49.9159
 21
4683.24
  0
LINE
  8
0
 10
-49.9159
 20
4683.24
 11
-49.5497
 21
4683.58
  0
LINE
  8
0
 10
-49.5497
 20
4683.58
 11
-49.1433
 21
4683.88
  0
LINE
  8
0
 10
-49.1433
 20
4683.88
 11
-48.7031
 21
4684.12
  0
LINE
  8
0
 10
-48.7031
 20
4684.12
 11
-48.2361
 21
4684.3
  0
LINE
  8
0
 10
-48.2361
 20
4684.3
 11
-47.7495
 21
4684.43
  0
LINE
  8
0
 10
-47.7495
 20
4684.43
 11
-47.2512
 21
4684.49
  0
LINE
  8
0
 10
-47.2512
 20
4684.49
 11
47.2512
 21
4684.49
  0
LINE
  8
0
 10
47.2512
 20
4684.49
 11
47.7495
 21
4684.43
  0
LINE
  8
0
 10
47.7495
 20
4684.43
 11
48.2361
 21
4684.3
  0
LINE
  8
0
 10
48.2361
 20
4684.3
 11
48.7031
 21
4684.12
  0
LINE
  8
0
 10
48.7031
 20
4684.12
 11
49.1433
 21
4683.88
  0
LINE
  8
0
 10
49.1433
 20
4683.88
 11
49.5497
 21
4683.58
  0
LINE
  8
0
 10
49.5497
 20
4683.58
 11
49.9159
 21
4683.24
  0
LINE
  8
0
 10
49.9159
 20
4683.24
 11
50.2361
 21
4682.85
  0
LINE
  8
0
 10
50.2361
 20
4682.85
 11
50.5052
 21
4682.43
  0
LINE
  8
0
 10
50.5052
 20
4682.43
 11
50.7191
 21
4681.97
  0
LINE
  8
0
 10
50.7191
 20
4681.97
 11
50.8743
 21
4681.49
  0
LINE
  8
0
 10
50.8743
 20
4681.49
 11
50.9685
 21
4681
  0
LINE
  8
0
 10
50.9685
 20
4681
 11
51
 21
4680.5
  0
LINE
  8
0
 10
51
 20
4680.5
 11
51
 21
4541.5
  0
LINE
  8
0
 10
51
 20
4541.5
 11
50.9685
 21
4541
  0
LINE
  8
0
 10
50.9685
 20
4541
 11
50.8743
 21
4540.51
  0
LINE
  8
0
 10
50.8743
 20
4540.51
 11
50.7191
 21
4540.03
  0
LINE
  8
0
 10
50.7191
 20
4540.03
 11
50.5052
 21
4539.57
  0
LINE
  8
0
 10
50.5052
 20
4539.57
 11
50.2361
 21
4539.15
  0
LINE
  8
0
 10
50.2361
 20
4539.15
 11
49.9159
 21
4538.76
  0
LINE
  8
0
 10
49.9159
 20
4538.76
 11
49.5497
 21
4538.42
  0
LINE
  8
0
 10
49.5497
 20
4538.42
 11
49.1433
 21
4538.12
  0
LINE
  8
0
 10
49.1433
 20
4538.12
 11
48.7031
 21
4537.88
  0
LINE
  8
0
 10
48.7031
 20
4537.88
 11
48.2361
 21
4537.7
  0
LINE
  8
0
 10
48.2361
 20
4537.7
 11
47.7495
 21
4537.57
  0
LINE
  8
0
 10
47.7495
 20
4537.57
 11
47.2512
 21
4537.51
  0
LINE
  8
0
 10
47.2512
 20
4537.51
 11
-47.2512
 21
4537.51
  0
LINE
  8
0
 10
48.4369
 20
4377.09
 11
49.0451
 21
4377.24
  0
LINE
  8
0
 10
49.0451
 20
4377.24
 11
49.6289
 21
4377.48
  0
LINE
  8
0
 10
49.6289
 20
4377.48
 11
50.1791
 21
4377.78
  0
LINE
  8
0
 10
50.1791
 20
4377.78
 11
50.6871
 21
4378.15
  0
LINE
  8
0
 10
50.6871
 20
4378.15
 11
51.1448
 21
4378.58
  0
LINE
  8
0
 10
51.1448
 20
4378.58
 11
51.5451
 21
4379.06
  0
LINE
  8
0
 10
51.5451
 20
4379.06
 11
51.8815
 21
4379.59
  0
LINE
  8
0
 10
51.8815
 20
4379.59
 11
52.1489
 21
4380.16
  0
LINE
  8
0
 10
52.1489
 20
4380.16
 11
52.3429
 21
4380.76
  0
LINE
  8
0
 10
52.3429
 20
4380.76
 11
52.4606
 21
4381.37
  0
LINE
  8
0
 10
52.4606
 20
4381.37
 11
52.5
 21
4382
  0
LINE
  8
0
 10
52.5
 20
4382
 11
52.5
 21
4522
  0
LINE
  8
0
 10
52.5
 20
4522
 11
52.4606
 21
4522.63
  0
LINE
  8
0
 10
52.4606
 20
4522.63
 11
52.3429
 21
4523.24
  0
LINE
  8
0
 10
52.3429
 20
4523.24
 11
52.1489
 21
4523.84
  0
LINE
  8
0
 10
52.1489
 20
4523.84
 11
51.8815
 21
4524.41
  0
LINE
  8
0
 10
51.8815
 20
4524.41
 11
51.5451
 21
4524.94
  0
LINE
  8
0
 10
51.5451
 20
4524.94
 11
51.1448
 21
4525.42
  0
LINE
  8
0
 10
51.1448
 20
4525.42
 11
50.6871
 21
4525.85
  0
LINE
  8
0
 10
50.6871
 20
4525.85
 11
50.1791
 21
4526.22
  0
LINE
  8
0
 10
50.1791
 20
4526.22
 11
49.6289
 21
4526.52
  0
LINE
  8
0
 10
49.6289
 20
4526.52
 11
49.0451
 21
4526.76
  0
LINE
  8
0
 10
49.0451
 20
4526.76
 11
48.4369
 21
4526.91
  0
LINE
  8
0
 10
48.4369
 20
4526.91
 11
47.8139
 21
4526.99
  0
LINE
  8
0
 10
47.8139
 20
4526.99
 11
-47.8139
 21
4526.99
  0
LINE
  8
0
 10
-47.8139
 20
4526.99
 11
-48.4369
 21
4526.91
  0
LINE
  8
0
 10
-48.4369
 20
4526.91
 11
-49.0451
 21
4526.76
  0
LINE
  8
0
 10
-49.0451
 20
4526.76
 11
-49.6289
 21
4526.52
  0
LINE
  8
0
 10
-49.6289
 20
4526.52
 11
-50.1791
 21
4526.22
  0
LINE
  8
0
 10
-50.1791
 20
4526.22
 11
-50.6871
 21
4525.85
  0
LINE
  8
0
 10
-50.6871
 20
4525.85
 11
-51.1448
 21
4525.42
  0
LINE
  8
0
 10
-51.1448
 20
4525.42
 11
-51.5451
 21
4524.94
  0
LINE
  8
0
 10
-51.5451
 20
4524.94
 11
-51.8815
 21
4524.41
  0
LINE
  8
0
 10
-51.8815
 20
4524.41
 11
-52.1489
 21
4523.84
  0
LINE
  8
0
 10
-52.1489
 20
4523.84
 11
-52.3429
 21
4523.24
  0
LINE
  8
0
 10
-52.3429
 20
4523.24
 11
-52.4606
 21
4522.63
  0
LINE
  8
0
 10
-52.4606
 20
4522.63
 11
-52.5
 21
4522
  0
LINE
  8
0
 10
-52.5
 20
4522
 11
-52.5
 21
4382
  0
LINE
  8
0
 10
-52.5
 20
4382
 11
-52.4606
 21
4381.37
  0
LINE
  8
0
 10
-52.4606
 20
4381.37
 11
-52.3429
 21
4380.76
  0
LINE
  8
0
 10
-52.3429
 20
4380.76
 11
-52.1489
 21
4380.16
  0
LINE
  8
0
 10
-52.1489
 20
4380.16
 11
-51.8815
 21
4379.59
  0
LINE
  8
0
 10
-51.8815
 20
4379.59
 11
-51.5451
 21
4379.06
  0
LINE
  8
0
 10
-51.5451
 20
4379.06
 11
-51.1448
 21
4378.58
  0
LINE
  8
0
 10
-51.1448
 20
4378.58
 11
-50.6871
 21
4378.15
  0
LINE
  8
0
 10
-50.6871
 20
4378.15
 11
-50.1791
 21
4377.78
  0
LINE
  8
0
 10
-50.1791
 20
4377.78
 11
-49.6289
 21
4377.48
  0
LINE
  8
0
 10
-49.6289
 20
4377.48
 11
-49.0451
 21
4377.24
  0
LINE
  8
0
 10
-49.0451
 20
4377.24
 11
-48.4369
 21
4377.09
  0
LINE
  8
0
 10
-48.4369
 20
4377.09
 11
-47.8139
 21
4377.01
  0
LINE
  8
0
 10
-47.8139
 20
4377.01
 11
47.8139
 21
4377.01
  0
LINE
  8
0
 10
47.8139
 20
4377.01
 11
48.4369
 21
4377.09
  0
LINE
  8
0
 10
-47.2512
 20
4378.51
 11
-47.7495
 21
4378.57
  0
LINE
  8
0
 10
-47.7495
 20
4378.57
 11
-48.2361
 21
4378.7
  0
LINE
  8
0
 10
-48.2361
 20
4378.7
 11
-48.7031
 21
4378.88
  0
LINE
  8
0
 10
-48.7031
 20
4378.88
 11
-49.1433
 21
4379.12
  0
LINE
  8
0
 10
-49.1433
 20
4379.12
 11
-49.5497
 21
4379.42
  0
LINE
  8
0
 10
-49.5497
 20
4379.42
 11
-49.9159
 21
4379.76
  0
LINE
  8
0
 10
-49.9159
 20
4379.76
 11
-50.2361
 21
4380.15
  0
LINE
  8
0
 10
-50.2361
 20
4380.15
 11
-50.5052
 21
4380.57
  0
LINE
  8
0
 10
-50.5052
 20
4380.57
 11
-50.7191
 21
4381.03
  0
LINE
  8
0
 10
-50.7191
 20
4381.03
 11
-50.8743
 21
4381.51
  0
LINE
  8
0
 10
-50.8743
 20
4381.51
 11
-50.9685
 21
4382
  0
LINE
  8
0
 10
-50.9685
 20
4382
 11
-51
 21
4382.5
  0
LINE
  8
0
 10
-51
 20
4382.5
 11
-51
 21
4521.5
  0
LINE
  8
0
 10
-51
 20
4521.5
 11
-50.9685
 21
4522
  0
LINE
  8
0
 10
-50.9685
 20
4522
 11
-50.8743
 21
4522.49
  0
LINE
  8
0
 10
-50.8743
 20
4522.49
 11
-50.7191
 21
4522.97
  0
LINE
  8
0
 10
-50.7191
 20
4522.97
 11
-50.5052
 21
4523.43
  0
LINE
  8
0
 10
-50.5052
 20
4523.43
 11
-50.2361
 21
4523.85
  0
LINE
  8
0
 10
-50.2361
 20
4523.85
 11
-49.9159
 21
4524.24
  0
LINE
  8
0
 10
-49.9159
 20
4524.24
 11
-49.5497
 21
4524.58
  0
LINE
  8
0
 10
-49.5497
 20
4524.58
 11
-49.1433
 21
4524.88
  0
LINE
  8
0
 10
-49.1433
 20
4524.88
 11
-48.7031
 21
4525.12
  0
LINE
  8
0
 10
-48.7031
 20
4525.12
 11
-48.2361
 21
4525.3
  0
LINE
  8
0
 10
-48.2361
 20
4525.3
 11
-47.7495
 21
4525.43
  0
LINE
  8
0
 10
-47.7495
 20
4525.43
 11
-47.2512
 21
4525.49
  0
LINE
  8
0
 10
-47.2512
 20
4525.49
 11
47.2512
 21
4525.49
  0
LINE
  8
0
 10
47.2512
 20
4525.49
 11
47.7495
 21
4525.43
  0
LINE
  8
0
 10
47.7495
 20
4525.43
 11
48.2361
 21
4525.3
  0
LINE
  8
0
 10
48.2361
 20
4525.3
 11
48.7031
 21
4525.12
  0
LINE
  8
0
 10
48.7031
 20
4525.12
 11
49.1433
 21
4524.88
  0
LINE
  8
0
 10
49.1433
 20
4524.88
 11
49.5497
 21
4524.58
  0
LINE
  8
0
 10
49.5497
 20
4524.58
 11
49.9159
 21
4524.24
  0
LINE
  8
0
 10
49.9159
 20
4524.24
 11
50.2361
 21
4523.85
  0
LINE
  8
0
 10
50.2361
 20
4523.85
 11
50.5052
 21
4523.43
  0
LINE
  8
0
 10
50.5052
 20
4523.43
 11
50.7191
 21
4522.97
  0
LINE
  8
0
 10
50.7191
 20
4522.97
 11
50.8743
 21
4522.49
  0
LINE
  8
0
 10
50.8743
 20
4522.49
 11
50.9685
 21
4522
  0
LINE
  8
0
 10
50.9685
 20
4522
 11
51
 21
4521.5
  0
LINE
  8
0
 10
51
 20
4521.5
 11
51
 21
4382.5
  0
LINE
  8
0
 10
51
 20
4382.5
 11
50.9685
 21
4382
  0
LINE
  8
0
 10
50.9685
 20
4382
 11
50.8743
 21
4381.51
  0
LINE
  8
0
 10
50.8743
 20
4381.51
 11
50.7191
 21
4381.03
  0
LINE
  8
0
 10
50.7191
 20
4381.03
 11
50.5052
 21
4380.57
  0
LINE
  8
0
 10
50.5052
 20
4380.57
 11
50.2361
 21
4380.15
  0
LINE
  8
0
 10
50.2361
 20
4380.15
 11
49.9159
 21
4379.76
  0
LINE
  8
0
 10
49.9159
 20
4379.76
 11
49.5497
 21
4379.42
  0
LINE
  8
0
 10
49.5497
 20
4379.42
 11
49.1433
 21
4379.12
  0
LINE
  8
0
 10
49.1433
 20
4379.12
 11
48.7031
 21
4378.88
  0
LINE
  8
0
 10
48.7031
 20
4378.88
 11
48.2361
 21
4378.7
  0
LINE
  8
0
 10
48.2361
 20
4378.7
 11
47.7495
 21
4378.57
  0
LINE
  8
0
 10
47.7495
 20
4378.57
 11
47.2512
 21
4378.51
  0
LINE
  8
0
 10
47.2512
 20
4378.51
 11
-47.2512
 21
4378.51
  0
LINE
  8
0
 10
48.4369
 20
4218.09
 11
49.0451
 21
4218.24
  0
LINE
  8
0
 10
49.0451
 20
4218.24
 11
49.6289
 21
4218.48
  0
LINE
  8
0
 10
49.6289
 20
4218.48
 11
50.1791
 21
4218.78
  0
LINE
  8
0
 10
50.1791
 20
4218.78
 11
50.6871
 21
4219.15
  0
LINE
  8
0
 10
50.6871
 20
4219.15
 11
51.1448
 21
4219.58
  0
LINE
  8
0
 10
51.1448
 20
4219.58
 11
51.5451
 21
4220.06
  0
LINE
  8
0
 10
51.5451
 20
4220.06
 11
51.8815
 21
4220.59
  0
LINE
  8
0
 10
51.8815
 20
4220.59
 11
52.1489
 21
4221.16
  0
LINE
  8
0
 10
52.1489
 20
4221.16
 11
52.3429
 21
4221.76
  0
LINE
  8
0
 10
52.3429
 20
4221.76
 11
52.4606
 21
4222.37
  0
LINE
  8
0
 10
52.4606
 20
4222.37
 11
52.5
 21
4223
  0
LINE
  8
0
 10
52.5
 20
4223
 11
52.5
 21
4363
  0
LINE
  8
0
 10
52.5
 20
4363
 11
52.4606
 21
4363.63
  0
LINE
  8
0
 10
52.4606
 20
4363.63
 11
52.3429
 21
4364.24
  0
LINE
  8
0
 10
52.3429
 20
4364.24
 11
52.1489
 21
4364.84
  0
LINE
  8
0
 10
52.1489
 20
4364.84
 11
51.8815
 21
4365.41
  0
LINE
  8
0
 10
51.8815
 20
4365.41
 11
51.5451
 21
4365.94
  0
LINE
  8
0
 10
51.5451
 20
4365.94
 11
51.1448
 21
4366.42
  0
LINE
  8
0
 10
51.1448
 20
4366.42
 11
50.6871
 21
4366.85
  0
LINE
  8
0
 10
50.6871
 20
4366.85
 11
50.1791
 21
4367.22
  0
LINE
  8
0
 10
50.1791
 20
4367.22
 11
49.6289
 21
4367.52
  0
LINE
  8
0
 10
49.6289
 20
4367.52
 11
49.0451
 21
4367.76
  0
LINE
  8
0
 10
49.0451
 20
4367.76
 11
48.4369
 21
4367.91
  0
LINE
  8
0
 10
48.4369
 20
4367.91
 11
47.8139
 21
4367.99
  0
LINE
  8
0
 10
47.8139
 20
4367.99
 11
-47.8139
 21
4367.99
  0
LINE
  8
0
 10
-47.8139
 20
4367.99
 11
-48.4369
 21
4367.91
  0
LINE
  8
0
 10
-48.4369
 20
4367.91
 11
-49.0451
 21
4367.76
  0
LINE
  8
0
 10
-49.0451
 20
4367.76
 11
-49.6289
 21
4367.52
  0
LINE
  8
0
 10
-49.6289
 20
4367.52
 11
-50.1791
 21
4367.22
  0
LINE
  8
0
 10
-50.1791
 20
4367.22
 11
-50.6871
 21
4366.85
  0
LINE
  8
0
 10
-50.6871
 20
4366.85
 11
-51.1448
 21
4366.42
  0
LINE
  8
0
 10
-51.1448
 20
4366.42
 11
-51.5451
 21
4365.94
  0
LINE
  8
0
 10
-51.5451
 20
4365.94
 11
-51.8815
 21
4365.41
  0
LINE
  8
0
 10
-51.8815
 20
4365.41
 11
-52.1489
 21
4364.84
  0
LINE
  8
0
 10
-52.1489
 20
4364.84
 11
-52.3429
 21
4364.24
  0
LINE
  8
0
 10
-52.3429
 20
4364.24
 11
-52.4606
 21
4363.63
  0
LINE
  8
0
 10
-52.4606
 20
4363.63
 11
-52.5
 21
4363
  0
LINE
  8
0
 10
-52.5
 20
4363
 11
-52.5
 21
4223
  0
LINE
  8
0
 10
-52.5
 20
4223
 11
-52.4606
 21
4222.37
  0
LINE
  8
0
 10
-52.4606
 20
4222.37
 11
-52.3429
 21
4221.76
  0
LINE
  8
0
 10
-52.3429
 20
4221.76
 11
-52.1489
 21
4221.16
  0
LINE
  8
0
 10
-52.1489
 20
4221.16
 11
-51.8815
 21
4220.59
  0
LINE
  8
0
 10
-51.8815
 20
4220.59
 11
-51.5451
 21
4220.06
  0
LINE
  8
0
 10
-51.5451
 20
4220.06
 11
-51.1448
 21
4219.58
  0
LINE
  8
0
 10
-51.1448
 20
4219.58
 11
-50.6871
 21
4219.15
  0
LINE
  8
0
 10
-50.6871
 20
4219.15
 11
-50.1791
 21
4218.78
  0
LINE
  8
0
 10
-50.1791
 20
4218.78
 11
-49.6289
 21
4218.48
  0
LINE
  8
0
 10
-49.6289
 20
4218.48
 11
-49.0451
 21
4218.24
  0
LINE
  8
0
 10
-49.0451
 20
4218.24
 11
-48.4369
 21
4218.09
  0
LINE
  8
0
 10
-48.4369
 20
4218.09
 11
-47.8139
 21
4218.01
  0
LINE
  8
0
 10
-47.8139
 20
4218.01
 11
47.8139
 21
4218.01
  0
LINE
  8
0
 10
47.8139
 20
4218.01
 11
48.4369
 21
4218.09
  0
LINE
  8
0
 10
-47.2512
 20
4219.51
 11
-47.7495
 21
4219.57
  0
LINE
  8
0
 10
-47.7495
 20
4219.57
 11
-48.2361
 21
4219.7
  0
LINE
  8
0
 10
-48.2361
 20
4219.7
 11
-48.7031
 21
4219.88
  0
LINE
  8
0
 10
-48.7031
 20
4219.88
 11
-49.1433
 21
4220.12
  0
LINE
  8
0
 10
-49.1433
 20
4220.12
 11
-49.5497
 21
4220.42
  0
LINE
  8
0
 10
-49.5497
 20
4220.42
 11
-49.9159
 21
4220.76
  0
LINE
  8
0
 10
-49.9159
 20
4220.76
 11
-50.2361
 21
4221.15
  0
LINE
  8
0
 10
-50.2361
 20
4221.15
 11
-50.5052
 21
4221.57
  0
LINE
  8
0
 10
-50.5052
 20
4221.57
 11
-50.7191
 21
4222.03
  0
LINE
  8
0
 10
-50.7191
 20
4222.03
 11
-50.8743
 21
4222.51
  0
LINE
  8
0
 10
-50.8743
 20
4222.51
 11
-50.9685
 21
4223
  0
LINE
  8
0
 10
-50.9685
 20
4223
 11
-51
 21
4223.5
  0
LINE
  8
0
 10
-51
 20
4223.5
 11
-51
 21
4362.5
  0
LINE
  8
0
 10
-51
 20
4362.5
 11
-50.9685
 21
4363
  0
LINE
  8
0
 10
-50.9685
 20
4363
 11
-50.8743
 21
4363.49
  0
LINE
  8
0
 10
-50.8743
 20
4363.49
 11
-50.7191
 21
4363.97
  0
LINE
  8
0
 10
-50.7191
 20
4363.97
 11
-50.5052
 21
4364.43
  0
LINE
  8
0
 10
-50.5052
 20
4364.43
 11
-50.2361
 21
4364.85
  0
LINE
  8
0
 10
-50.2361
 20
4364.85
 11
-49.9159
 21
4365.24
  0
LINE
  8
0
 10
-49.9159
 20
4365.24
 11
-49.5497
 21
4365.58
  0
LINE
  8
0
 10
-49.5497
 20
4365.58
 11
-49.1433
 21
4365.88
  0
LINE
  8
0
 10
-49.1433
 20
4365.88
 11
-48.7031
 21
4366.12
  0
LINE
  8
0
 10
-48.7031
 20
4366.12
 11
-48.2361
 21
4366.3
  0
LINE
  8
0
 10
-48.2361
 20
4366.3
 11
-47.7495
 21
4366.43
  0
LINE
  8
0
 10
-47.7495
 20
4366.43
 11
-47.2512
 21
4366.49
  0
LINE
  8
0
 10
-47.2512
 20
4366.49
 11
47.2512
 21
4366.49
  0
LINE
  8
0
 10
47.2512
 20
4366.49
 11
47.7495
 21
4366.43
  0
LINE
  8
0
 10
47.7495
 20
4366.43
 11
48.2361
 21
4366.3
  0
LINE
  8
0
 10
48.2361
 20
4366.3
 11
48.7031
 21
4366.12
  0
LINE
  8
0
 10
48.7031
 20
4366.12
 11
49.1433
 21
4365.88
  0
LINE
  8
0
 10
49.1433
 20
4365.88
 11
49.5497
 21
4365.58
  0
LINE
  8
0
 10
49.5497
 20
4365.58
 11
49.9159
 21
4365.24
  0
LINE
  8
0
 10
49.9159
 20
4365.24
 11
50.2361
 21
4364.85
  0
LINE
  8
0
 10
50.2361
 20
4364.85
 11
50.5052
 21
4364.43
  0
LINE
  8
0
 10
50.5052
 20
4364.43
 11
50.7191
 21
4363.97
  0
LINE
  8
0
 10
50.7191
 20
4363.97
 11
50.8743
 21
4363.49
  0
LINE
  8
0
 10
50.8743
 20
4363.49
 11
50.9685
 21
4363
  0
LINE
  8
0
 10
50.9685
 20
4363
 11
51
 21
4362.5
  0
LINE
  8
0
 10
51
 20
4362.5
 11
51
 21
4223.5
  0
LINE
  8
0
 10
51
 20
4223.5
 11
50.9685
 21
4223
  0
LINE
  8
0
 10
50.9685
 20
4223
 11
50.8743
 21
4222.51
  0
LINE
  8
0
 10
50.8743
 20
4222.51
 11
50.7191
 21
4222.03
  0
LINE
  8
0
 10
50.7191
 20
4222.03
 11
50.5052
 21
4221.57
  0
LINE
  8
0
 10
50.5052
 20
4221.57
 11
50.2361
 21
4221.15
  0
LINE
  8
0
 10
50.2361
 20
4221.15
 11
49.9159
 21
4220.76
  0
LINE
  8
0
 10
49.9159
 20
4220.76
 11
49.5497
 21
4220.42
  0
LINE
  8
0
 10
49.5497
 20
4220.42
 11
49.1433
 21
4220.12
  0
LINE
  8
0
 10
49.1433
 20
4220.12
 11
48.7031
 21
4219.88
  0
LINE
  8
0
 10
48.7031
 20
4219.88
 11
48.2361
 21
4219.7
  0
LINE
  8
0
 10
48.2361
 20
4219.7
 11
47.7495
 21
4219.57
  0
LINE
  8
0
 10
47.7495
 20
4219.57
 11
47.2512
 21
4219.51
  0
LINE
  8
0
 10
47.2512
 20
4219.51
 11
-47.2512
 21
4219.51
  0
LINE
  8
0
 10
48.4369
 20
4059.09
 11
49.0451
 21
4059.24
  0
LINE
  8
0
 10
49.0451
 20
4059.24
 11
49.6289
 21
4059.48
  0
LINE
  8
0
 10
49.6289
 20
4059.48
 11
50.1791
 21
4059.78
  0
LINE
  8
0
 10
50.1791
 20
4059.78
 11
50.6871
 21
4060.15
  0
LINE
  8
0
 10
50.6871
 20
4060.15
 11
51.1448
 21
4060.58
  0
LINE
  8
0
 10
51.1448
 20
4060.58
 11
51.5451
 21
4061.06
  0
LINE
  8
0
 10
51.5451
 20
4061.06
 11
51.8815
 21
4061.59
  0
LINE
  8
0
 10
51.8815
 20
4061.59
 11
52.1489
 21
4062.16
  0
LINE
  8
0
 10
52.1489
 20
4062.16
 11
52.3429
 21
4062.76
  0
LINE
  8
0
 10
52.3429
 20
4062.76
 11
52.4606
 21
4063.37
  0
LINE
  8
0
 10
52.4606
 20
4063.37
 11
52.5
 21
4064
  0
LINE
  8
0
 10
52.5
 20
4064
 11
52.5
 21
4204
  0
LINE
  8
0
 10
52.5
 20
4204
 11
52.4606
 21
4204.63
  0
LINE
  8
0
 10
52.4606
 20
4204.63
 11
52.3429
 21
4205.24
  0
LINE
  8
0
 10
52.3429
 20
4205.24
 11
52.1489
 21
4205.84
  0
LINE
  8
0
 10
52.1489
 20
4205.84
 11
51.8815
 21
4206.41
  0
LINE
  8
0
 10
51.8815
 20
4206.41
 11
51.5451
 21
4206.94
  0
LINE
  8
0
 10
51.5451
 20
4206.94
 11
51.1448
 21
4207.42
  0
LINE
  8
0
 10
51.1448
 20
4207.42
 11
50.6871
 21
4207.85
  0
LINE
  8
0
 10
50.6871
 20
4207.85
 11
50.1791
 21
4208.22
  0
LINE
  8
0
 10
50.1791
 20
4208.22
 11
49.6289
 21
4208.52
  0
LINE
  8
0
 10
49.6289
 20
4208.52
 11
49.0451
 21
4208.76
  0
LINE
  8
0
 10
49.0451
 20
4208.76
 11
48.4369
 21
4208.91
  0
LINE
  8
0
 10
48.4369
 20
4208.91
 11
47.8139
 21
4208.99
  0
LINE
  8
0
 10
47.8139
 20
4208.99
 11
-47.8139
 21
4208.99
  0
LINE
  8
0
 10
-47.8139
 20
4208.99
 11
-48.4369
 21
4208.91
  0
LINE
  8
0
 10
-48.4369
 20
4208.91
 11
-49.0451
 21
4208.76
  0
LINE
  8
0
 10
-49.0451
 20
4208.76
 11
-49.6289
 21
4208.52
  0
LINE
  8
0
 10
-49.6289
 20
4208.52
 11
-50.1791
 21
4208.22
  0
LINE
  8
0
 10
-50.1791
 20
4208.22
 11
-50.6871
 21
4207.85
  0
LINE
  8
0
 10
-50.6871
 20
4207.85
 11
-51.1448
 21
4207.42
  0
LINE
  8
0
 10
-51.1448
 20
4207.42
 11
-51.5451
 21
4206.94
  0
LINE
  8
0
 10
-51.5451
 20
4206.94
 11
-51.8815
 21
4206.41
  0
LINE
  8
0
 10
-51.8815
 20
4206.41
 11
-52.1489
 21
4205.84
  0
LINE
  8
0
 10
-52.1489
 20
4205.84
 11
-52.3429
 21
4205.24
  0
LINE
  8
0
 10
-52.3429
 20
4205.24
 11
-52.4606
 21
4204.63
  0
LINE
  8
0
 10
-52.4606
 20
4204.63
 11
-52.5
 21
4204
  0
LINE
  8
0
 10
-52.5
 20
4204
 11
-52.5
 21
4064
  0
LINE
  8
0
 10
-52.5
 20
4064
 11
-52.4606
 21
4063.37
  0
LINE
  8
0
 10
-52.4606
 20
4063.37
 11
-52.3429
 21
4062.76
  0
LINE
  8
0
 10
-52.3429
 20
4062.76
 11
-52.1489
 21
4062.16
  0
LINE
  8
0
 10
-52.1489
 20
4062.16
 11
-51.8815
 21
4061.59
  0
LINE
  8
0
 10
-51.8815
 20
4061.59
 11
-51.5451
 21
4061.06
  0
LINE
  8
0
 10
-51.5451
 20
4061.06
 11
-51.1448
 21
4060.58
  0
LINE
  8
0
 10
-51.1448
 20
4060.58
 11
-50.6871
 21
4060.15
  0
LINE
  8
0
 10
-50.6871
 20
4060.15
 11
-50.1791
 21
4059.78
  0
LINE
  8
0
 10
-50.1791
 20
4059.78
 11
-49.6289
 21
4059.48
  0
LINE
  8
0
 10
-49.6289
 20
4059.48
 11
-49.0451
 21
4059.24
  0
LINE
  8
0
 10
-49.0451
 20
4059.24
 11
-48.4369
 21
4059.09
  0
LINE
  8
0
 10
-48.4369
 20
4059.09
 11
-47.8139
 21
4059.01
  0
LINE
  8
0
 10
-47.8139
 20
4059.01
 11
47.8139
 21
4059.01
  0
LINE
  8
0
 10
47.8139
 20
4059.01
 11
48.4369
 21
4059.09
  0
LINE
  8
0
 10
-47.2512
 20
4060.51
 11
-47.7495
 21
4060.57
  0
LINE
  8
0
 10
-47.7495
 20
4060.57
 11
-48.2361
 21
4060.7
  0
LINE
  8
0
 10
-48.2361
 20
4060.7
 11
-48.7031
 21
4060.88
  0
LINE
  8
0
 10
-48.7031
 20
4060.88
 11
-49.1433
 21
4061.12
  0
LINE
  8
0
 10
-49.1433
 20
4061.12
 11
-49.5497
 21
4061.42
  0
LINE
  8
0
 10
-49.5497
 20
4061.42
 11
-49.9159
 21
4061.76
  0
LINE
  8
0
 10
-49.9159
 20
4061.76
 11
-50.2361
 21
4062.15
  0
LINE
  8
0
 10
-50.2361
 20
4062.15
 11
-50.5052
 21
4062.57
  0
LINE
  8
0
 10
-50.5052
 20
4062.57
 11
-50.7191
 21
4063.03
  0
LINE
  8
0
 10
-50.7191
 20
4063.03
 11
-50.8743
 21
4063.51
  0
LINE
  8
0
 10
-50.8743
 20
4063.51
 11
-50.9685
 21
4064
  0
LINE
  8
0
 10
-50.9685
 20
4064
 11
-51
 21
4064.5
  0
LINE
  8
0
 10
-51
 20
4064.5
 11
-51
 21
4203.5
  0
LINE
  8
0
 10
-51
 20
4203.5
 11
-50.9685
 21
4204
  0
LINE
  8
0
 10
-50.9685
 20
4204
 11
-50.8743
 21
4204.49
  0
LINE
  8
0
 10
-50.8743
 20
4204.49
 11
-50.7191
 21
4204.97
  0
LINE
  8
0
 10
-50.7191
 20
4204.97
 11
-50.5052
 21
4205.43
  0
LINE
  8
0
 10
-50.5052
 20
4205.43
 11
-50.2361
 21
4205.85
  0
LINE
  8
0
 10
-50.2361
 20
4205.85
 11
-49.9159
 21
4206.24
  0
LINE
  8
0
 10
-49.9159
 20
4206.24
 11
-49.5497
 21
4206.58
  0
LINE
  8
0
 10
-49.5497
 20
4206.58
 11
-49.1433
 21
4206.88
  0
LINE
  8
0
 10
-49.1433
 20
4206.88
 11
-48.7031
 21
4207.12
  0
LINE
  8
0
 10
-48.7031
 20
4207.12
 11
-48.2361
 21
4207.3
  0
LINE
  8
0
 10
-48.2361
 20
4207.3
 11
-47.7495
 21
4207.43
  0
LINE
  8
0
 10
-47.7495
 20
4207.43
 11
-47.2512
 21
4207.49
  0
LINE
  8
0
 10
-47.2512
 20
4207.49
 11
47.2512
 21
4207.49
  0
LINE
  8
0
 10
47.2512
 20
4207.49
 11
47.7495
 21
4207.43
  0
LINE
  8
0
 10
47.7495
 20
4207.43
 11
48.2361
 21
4207.3
  0
LINE
  8
0
 10
48.2361
 20
4207.3
 11
48.7031
 21
4207.12
  0
LINE
  8
0
 10
48.7031
 20
4207.12
 11
49.1433
 21
4206.88
  0
LINE
  8
0
 10
49.1433
 20
4206.88
 11
49.5497
 21
4206.58
  0
LINE
  8
0
 10
49.5497
 20
4206.58
 11
49.9159
 21
4206.24
  0
LINE
  8
0
 10
49.9159
 20
4206.24
 11
50.2361
 21
4205.85
  0
LINE
  8
0
 10
50.2361
 20
4205.85
 11
50.5052
 21
4205.43
  0
LINE
  8
0
 10
50.5052
 20
4205.43
 11
50.7191
 21
4204.97
  0
LINE
  8
0
 10
50.7191
 20
4204.97
 11
50.8743
 21
4204.49
  0
LINE
  8
0
 10
50.8743
 20
4204.49
 11
50.9685
 21
4204
  0
LINE
  8
0
 10
50.9685
 20
4204
 11
51
 21
4203.5
  0
LINE
  8
0
 10
51
 20
4203.5
 11
51
 21
4064.5
  0
LINE
  8
0
 10
51
 20
4064.5
 11
50.9685
 21
4064
  0
LINE
  8
0
 10
50.9685
 20
4064
 11
50.8743
 21
4063.51
  0
LINE
  8
0
 10
50.8743
 20
4063.51
 11
50.7191
 21
4063.03
  0
LINE
  8
0
 10
50.7191
 20
4063.03
 11
50.5052
 21
4062.57
  0
LINE
  8
0
 10
50.5052
 20
4062.57
 11
50.2361
 21
4062.15
  0
LINE
  8
0
 10
50.2361
 20
4062.15
 11
49.9159
 21
4061.76
  0
LINE
  8
0
 10
49.9159
 20
4061.76
 11
49.5497
 21
4061.42
  0
LINE
  8
0
 10
49.5497
 20
4061.42
 11
49.1433
 21
4061.12
  0
LINE
  8
0
 10
49.1433
 20
4061.12
 11
48.7031
 21
4060.88
  0
LINE
  8
0
 10
48.7031
 20
4060.88
 11
48.2361
 21
4060.7
  0
LINE
  8
0
 10
48.2361
 20
4060.7
 11
47.7495
 21
4060.57
  0
LINE
  8
0
 10
47.7495
 20
4060.57
 11
47.2512
 21
4060.51
  0
LINE
  8
0
 10
47.2512
 20
4060.51
 11
-47.2512
 21
4060.51
  0
LINE
  8
0
 10
48.4369
 20
3900.09
 11
49.0451
 21
3900.24
  0
LINE
  8
0
 10
49.0451
 20
3900.24
 11
49.6289
 21
3900.48
  0
LINE
  8
0
 10
49.6289
 20
3900.48
 11
50.1791
 21
3900.78
  0
LINE
  8
0
 10
50.1791
 20
3900.78
 11
50.6871
 21
3901.15
  0
LINE
  8
0
 10
50.6871
 20
3901.15
 11
51.1448
 21
3901.58
  0
LINE
  8
0
 10
51.1448
 20
3901.58
 11
51.5451
 21
3902.06
  0
LINE
  8
0
 10
51.5451
 20
3902.06
 11
51.8815
 21
3902.59
  0
LINE
  8
0
 10
51.8815
 20
3902.59
 11
52.1489
 21
3903.16
  0
LINE
  8
0
 10
52.1489
 20
3903.16
 11
52.3429
 21
3903.76
  0
LINE
  8
0
 10
52.3429
 20
3903.76
 11
52.4606
 21
3904.37
  0
LINE
  8
0
 10
52.4606
 20
3904.37
 11
52.5
 21
3905
  0
LINE
  8
0
 10
52.5
 20
3905
 11
52.5
 21
4045
  0
LINE
  8
0
 10
52.5
 20
4045
 11
52.4606
 21
4045.63
  0
LINE
  8
0
 10
52.4606
 20
4045.63
 11
52.3429
 21
4046.24
  0
LINE
  8
0
 10
52.3429
 20
4046.24
 11
52.1489
 21
4046.84
  0
LINE
  8
0
 10
52.1489
 20
4046.84
 11
51.8815
 21
4047.41
  0
LINE
  8
0
 10
51.8815
 20
4047.41
 11
51.5451
 21
4047.94
  0
LINE
  8
0
 10
51.5451
 20
4047.94
 11
51.1448
 21
4048.42
  0
LINE
  8
0
 10
51.1448
 20
4048.42
 11
50.6871
 21
4048.85
  0
LINE
  8
0
 10
50.6871
 20
4048.85
 11
50.1791
 21
4049.22
  0
LINE
  8
0
 10
50.1791
 20
4049.22
 11
49.6289
 21
4049.52
  0
LINE
  8
0
 10
49.6289
 20
4049.52
 11
49.0451
 21
4049.76
  0
LINE
  8
0
 10
49.0451
 20
4049.76
 11
48.4369
 21
4049.91
  0
LINE
  8
0
 10
48.4369
 20
4049.91
 11
47.8139
 21
4049.99
  0
LINE
  8
0
 10
47.8139
 20
4049.99
 11
-47.8139
 21
4049.99
  0
LINE
  8
0
 10
-47.8139
 20
4049.99
 11
-48.4369
 21
4049.91
  0
LINE
  8
0
 10
-48.4369
 20
4049.91
 11
-49.0451
 21
4049.76
  0
LINE
  8
0
 10
-49.0451
 20
4049.76
 11
-49.6289
 21
4049.52
  0
LINE
  8
0
 10
-49.6289
 20
4049.52
 11
-50.1791
 21
4049.22
  0
LINE
  8
0
 10
-50.1791
 20
4049.22
 11
-50.6871
 21
4048.85
  0
LINE
  8
0
 10
-50.6871
 20
4048.85
 11
-51.1448
 21
4048.42
  0
LINE
  8
0
 10
-51.1448
 20
4048.42
 11
-51.5451
 21
4047.94
  0
LINE
  8
0
 10
-51.5451
 20
4047.94
 11
-51.8815
 21
4047.41
  0
LINE
  8
0
 10
-51.8815
 20
4047.41
 11
-52.1489
 21
4046.84
  0
LINE
  8
0
 10
-52.1489
 20
4046.84
 11
-52.3429
 21
4046.24
  0
LINE
  8
0
 10
-52.3429
 20
4046.24
 11
-52.4606
 21
4045.63
  0
LINE
  8
0
 10
-52.4606
 20
4045.63
 11
-52.5
 21
4045
  0
LINE
  8
0
 10
-52.5
 20
4045
 11
-52.5
 21
3905
  0
LINE
  8
0
 10
-52.5
 20
3905
 11
-52.4606
 21
3904.37
  0
LINE
  8
0
 10
-52.4606
 20
3904.37
 11
-52.3429
 21
3903.76
  0
LINE
  8
0
 10
-52.3429
 20
3903.76
 11
-52.1489
 21
3903.16
  0
LINE
  8
0
 10
-52.1489
 20
3903.16
 11
-51.8815
 21
3902.59
  0
LINE
  8
0
 10
-51.8815
 20
3902.59
 11
-51.5451
 21
3902.06
  0
LINE
  8
0
 10
-51.5451
 20
3902.06
 11
-51.1448
 21
3901.58
  0
LINE
  8
0
 10
-51.1448
 20
3901.58
 11
-50.6871
 21
3901.15
  0
LINE
  8
0
 10
-50.6871
 20
3901.15
 11
-50.1791
 21
3900.78
  0
LINE
  8
0
 10
-50.1791
 20
3900.78
 11
-49.6289
 21
3900.48
  0
LINE
  8
0
 10
-49.6289
 20
3900.48
 11
-49.0451
 21
3900.24
  0
LINE
  8
0
 10
-49.0451
 20
3900.24
 11
-48.4369
 21
3900.09
  0
LINE
  8
0
 10
-48.4369
 20
3900.09
 11
-47.8139
 21
3900.01
  0
LINE
  8
0
 10
-47.8139
 20
3900.01
 11
47.8139
 21
3900.01
  0
LINE
  8
0
 10
47.8139
 20
3900.01
 11
48.4369
 21
3900.09
  0
LINE
  8
0
 10
-47.2512
 20
3901.51
 11
-47.7495
 21
3901.57
  0
LINE
  8
0
 10
-47.7495
 20
3901.57
 11
-48.2361
 21
3901.7
  0
LINE
  8
0
 10
-48.2361
 20
3901.7
 11
-48.7031
 21
3901.88
  0
LINE
  8
0
 10
-48.7031
 20
3901.88
 11
-49.1433
 21
3902.12
  0
LINE
  8
0
 10
-49.1433
 20
3902.12
 11
-49.5497
 21
3902.42
  0
LINE
  8
0
 10
-49.5497
 20
3902.42
 11
-49.9159
 21
3902.76
  0
LINE
  8
0
 10
-49.9159
 20
3902.76
 11
-50.2361
 21
3903.15
  0
LINE
  8
0
 10
-50.2361
 20
3903.15
 11
-50.5052
 21
3903.57
  0
LINE
  8
0
 10
-50.5052
 20
3903.57
 11
-50.7191
 21
3904.03
  0
LINE
  8
0
 10
-50.7191
 20
3904.03
 11
-50.8743
 21
3904.51
  0
LINE
  8
0
 10
-50.8743
 20
3904.51
 11
-50.9685
 21
3905
  0
LINE
  8
0
 10
-50.9685
 20
3905
 11
-51
 21
3905.5
  0
LINE
  8
0
 10
-51
 20
3905.5
 11
-51
 21
4044.5
  0
LINE
  8
0
 10
-51
 20
4044.5
 11
-50.9685
 21
4045
  0
LINE
  8
0
 10
-50.9685
 20
4045
 11
-50.8743
 21
4045.49
  0
LINE
  8
0
 10
-50.8743
 20
4045.49
 11
-50.7191
 21
4045.97
  0
LINE
  8
0
 10
-50.7191
 20
4045.97
 11
-50.5052
 21
4046.43
  0
LINE
  8
0
 10
-50.5052
 20
4046.43
 11
-50.2361
 21
4046.85
  0
LINE
  8
0
 10
-50.2361
 20
4046.85
 11
-49.9159
 21
4047.24
  0
LINE
  8
0
 10
-49.9159
 20
4047.24
 11
-49.5497
 21
4047.58
  0
LINE
  8
0
 10
-49.5497
 20
4047.58
 11
-49.1433
 21
4047.88
  0
LINE
  8
0
 10
-49.1433
 20
4047.88
 11
-48.7031
 21
4048.12
  0
LINE
  8
0
 10
-48.7031
 20
4048.12
 11
-48.2361
 21
4048.3
  0
LINE
  8
0
 10
-48.2361
 20
4048.3
 11
-47.7495
 21
4048.43
  0
LINE
  8
0
 10
-47.7495
 20
4048.43
 11
-47.2512
 21
4048.49
  0
LINE
  8
0
 10
-47.2512
 20
4048.49
 11
47.2512
 21
4048.49
  0
LINE
  8
0
 10
47.2512
 20
4048.49
 11
47.7495
 21
4048.43
  0
LINE
  8
0
 10
47.7495
 20
4048.43
 11
48.2361
 21
4048.3
  0
LINE
  8
0
 10
48.2361
 20
4048.3
 11
48.7031
 21
4048.12
  0
LINE
  8
0
 10
48.7031
 20
4048.12
 11
49.1433
 21
4047.88
  0
LINE
  8
0
 10
49.1433
 20
4047.88
 11
49.5497
 21
4047.58
  0
LINE
  8
0
 10
49.5497
 20
4047.58
 11
49.9159
 21
4047.24
  0
LINE
  8
0
 10
49.9159
 20
4047.24
 11
50.2361
 21
4046.85
  0
LINE
  8
0
 10
50.2361
 20
4046.85
 11
50.5052
 21
4046.43
  0
LINE
  8
0
 10
50.5052
 20
4046.43
 11
50.7191
 21
4045.97
  0
LINE
  8
0
 10
50.7191
 20
4045.97
 11
50.8743
 21
4045.49
  0
LINE
  8
0
 10
50.8743
 20
4045.49
 11
50.9685
 21
4045
  0
LINE
  8
0
 10
50.9685
 20
4045
 11
51
 21
4044.5
  0
LINE
  8
0
 10
51
 20
4044.5
 11
51
 21
3905.5
  0
LINE
  8
0
 10
51
 20
3905.5
 11
50.9685
 21
3905
  0
LINE
  8
0
 10
50.9685
 20
3905
 11
50.8743
 21
3904.51
  0
LINE
  8
0
 10
50.8743
 20
3904.51
 11
50.7191
 21
3904.03
  0
LINE
  8
0
 10
50.7191
 20
3904.03
 11
50.5052
 21
3903.57
  0
LINE
  8
0
 10
50.5052
 20
3903.57
 11
50.2361
 21
3903.15
  0
LINE
  8
0
 10
50.2361
 20
3903.15
 11
49.9159
 21
3902.76
  0
LINE
  8
0
 10
49.9159
 20
3902.76
 11
49.5497
 21
3902.42
  0
LINE
  8
0
 10
49.5497
 20
3902.42
 11
49.1433
 21
3902.12
  0
LINE
  8
0
 10
49.1433
 20
3902.12
 11
48.7031
 21
3901.88
  0
LINE
  8
0
 10
48.7031
 20
3901.88
 11
48.2361
 21
3901.7
  0
LINE
  8
0
 10
48.2361
 20
3901.7
 11
47.7495
 21
3901.57
  0
LINE
  8
0
 10
47.7495
 20
3901.57
 11
47.2512
 21
3901.51
  0
LINE
  8
0
 10
47.2512
 20
3901.51
 11
-47.2512
 21
3901.51
  0
LINE
  8
0
 10
48.4369
 20
3741.09
 11
49.0451
 21
3741.24
  0
LINE
  8
0
 10
49.0451
 20
3741.24
 11
49.6289
 21
3741.48
  0
LINE
  8
0
 10
49.6289
 20
3741.48
 11
50.1791
 21
3741.78
  0
LINE
  8
0
 10
50.1791
 20
3741.78
 11
50.6871
 21
3742.15
  0
LINE
  8
0
 10
50.6871
 20
3742.15
 11
51.1448
 21
3742.58
  0
LINE
  8
0
 10
51.1448
 20
3742.58
 11
51.5451
 21
3743.06
  0
LINE
  8
0
 10
51.5451
 20
3743.06
 11
51.8815
 21
3743.59
  0
LINE
  8
0
 10
51.8815
 20
3743.59
 11
52.1489
 21
3744.16
  0
LINE
  8
0
 10
52.1489
 20
3744.16
 11
52.3429
 21
3744.76
  0
LINE
  8
0
 10
52.3429
 20
3744.76
 11
52.4606
 21
3745.37
  0
LINE
  8
0
 10
52.4606
 20
3745.37
 11
52.5
 21
3746
  0
LINE
  8
0
 10
52.5
 20
3746
 11
52.5
 21
3886
  0
LINE
  8
0
 10
52.5
 20
3886
 11
52.4606
 21
3886.63
  0
LINE
  8
0
 10
52.4606
 20
3886.63
 11
52.3429
 21
3887.24
  0
LINE
  8
0
 10
52.3429
 20
3887.24
 11
52.1489
 21
3887.84
  0
LINE
  8
0
 10
52.1489
 20
3887.84
 11
51.8815
 21
3888.41
  0
LINE
  8
0
 10
51.8815
 20
3888.41
 11
51.5451
 21
3888.94
  0
LINE
  8
0
 10
51.5451
 20
3888.94
 11
51.1448
 21
3889.42
  0
LINE
  8
0
 10
51.1448
 20
3889.42
 11
50.6871
 21
3889.85
  0
LINE
  8
0
 10
50.6871
 20
3889.85
 11
50.1791
 21
3890.22
  0
LINE
  8
0
 10
50.1791
 20
3890.22
 11
49.6289
 21
3890.52
  0
LINE
  8
0
 10
49.6289
 20
3890.52
 11
49.0451
 21
3890.76
  0
LINE
  8
0
 10
49.0451
 20
3890.76
 11
48.4369
 21
3890.91
  0
LINE
  8
0
 10
48.4369
 20
3890.91
 11
47.8139
 21
3890.99
  0
LINE
  8
0
 10
47.8139
 20
3890.99
 11
-47.8139
 21
3890.99
  0
LINE
  8
0
 10
-47.8139
 20
3890.99
 11
-48.4369
 21
3890.91
  0
LINE
  8
0
 10
-48.4369
 20
3890.91
 11
-49.0451
 21
3890.76
  0
LINE
  8
0
 10
-49.0451
 20
3890.76
 11
-49.6289
 21
3890.52
  0
LINE
  8
0
 10
-49.6289
 20
3890.52
 11
-50.1791
 21
3890.22
  0
LINE
  8
0
 10
-50.1791
 20
3890.22
 11
-50.6871
 21
3889.85
  0
LINE
  8
0
 10
-50.6871
 20
3889.85
 11
-51.1448
 21
3889.42
  0
LINE
  8
0
 10
-51.1448
 20
3889.42
 11
-51.5451
 21
3888.94
  0
LINE
  8
0
 10
-51.5451
 20
3888.94
 11
-51.8815
 21
3888.41
  0
LINE
  8
0
 10
-51.8815
 20
3888.41
 11
-52.1489
 21
3887.84
  0
LINE
  8
0
 10
-52.1489
 20
3887.84
 11
-52.3429
 21
3887.24
  0
LINE
  8
0
 10
-52.3429
 20
3887.24
 11
-52.4606
 21
3886.63
  0
LINE
  8
0
 10
-52.4606
 20
3886.63
 11
-52.5
 21
3886
  0
LINE
  8
0
 10
-52.5
 20
3886
 11
-52.5
 21
3746
  0
LINE
  8
0
 10
-52.5
 20
3746
 11
-52.4606
 21
3745.37
  0
LINE
  8
0
 10
-52.4606
 20
3745.37
 11
-52.3429
 21
3744.76
  0
LINE
  8
0
 10
-52.3429
 20
3744.76
 11
-52.1489
 21
3744.16
  0
LINE
  8
0
 10
-52.1489
 20
3744.16
 11
-51.8815
 21
3743.59
  0
LINE
  8
0
 10
-51.8815
 20
3743.59
 11
-51.5451
 21
3743.06
  0
LINE
  8
0
 10
-51.5451
 20
3743.06
 11
-51.1448
 21
3742.58
  0
LINE
  8
0
 10
-51.1448
 20
3742.58
 11
-50.6871
 21
3742.15
  0
LINE
  8
0
 10
-50.6871
 20
3742.15
 11
-50.1791
 21
3741.78
  0
LINE
  8
0
 10
-50.1791
 20
3741.78
 11
-49.6289
 21
3741.48
  0
LINE
  8
0
 10
-49.6289
 20
3741.48
 11
-49.0451
 21
3741.24
  0
LINE
  8
0
 10
-49.0451
 20
3741.24
 11
-48.4369
 21
3741.09
  0
LINE
  8
0
 10
-48.4369
 20
3741.09
 11
-47.8139
 21
3741.01
  0
LINE
  8
0
 10
-47.8139
 20
3741.01
 11
47.8139
 21
3741.01
  0
LINE
  8
0
 10
47.8139
 20
3741.01
 11
48.4369
 21
3741.09
  0
LINE
  8
0
 10
-47.2512
 20
3742.51
 11
-47.7495
 21
3742.57
  0
LINE
  8
0
 10
-47.7495
 20
3742.57
 11
-48.2361
 21
3742.7
  0
LINE
  8
0
 10
-48.2361
 20
3742.7
 11
-48.7031
 21
3742.88
  0
LINE
  8
0
 10
-48.7031
 20
3742.88
 11
-49.1433
 21
3743.12
  0
LINE
  8
0
 10
-49.1433
 20
3743.12
 11
-49.5497
 21
3743.42
  0
LINE
  8
0
 10
-49.5497
 20
3743.42
 11
-49.9159
 21
3743.76
  0
LINE
  8
0
 10
-49.9159
 20
3743.76
 11
-50.2361
 21
3744.15
  0
LINE
  8
0
 10
-50.2361
 20
3744.15
 11
-50.5052
 21
3744.57
  0
LINE
  8
0
 10
-50.5052
 20
3744.57
 11
-50.7191
 21
3745.03
  0
LINE
  8
0
 10
-50.7191
 20
3745.03
 11
-50.8743
 21
3745.51
  0
LINE
  8
0
 10
-50.8743
 20
3745.51
 11
-50.9685
 21
3746
  0
LINE
  8
0
 10
-50.9685
 20
3746
 11
-51
 21
3746.5
  0
LINE
  8
0
 10
-51
 20
3746.5
 11
-51
 21
3885.5
  0
LINE
  8
0
 10
-51
 20
3885.5
 11
-50.9685
 21
3886
  0
LINE
  8
0
 10
-50.9685
 20
3886
 11
-50.8743
 21
3886.49
  0
LINE
  8
0
 10
-50.8743
 20
3886.49
 11
-50.7191
 21
3886.97
  0
LINE
  8
0
 10
-50.7191
 20
3886.97
 11
-50.5052
 21
3887.43
  0
LINE
  8
0
 10
-50.5052
 20
3887.43
 11
-50.2361
 21
3887.85
  0
LINE
  8
0
 10
-50.2361
 20
3887.85
 11
-49.9159
 21
3888.24
  0
LINE
  8
0
 10
-49.9159
 20
3888.24
 11
-49.5497
 21
3888.58
  0
LINE
  8
0
 10
-49.5497
 20
3888.58
 11
-49.1433
 21
3888.88
  0
LINE
  8
0
 10
-49.1433
 20
3888.88
 11
-48.7031
 21
3889.12
  0
LINE
  8
0
 10
-48.7031
 20
3889.12
 11
-48.2361
 21
3889.3
  0
LINE
  8
0
 10
-48.2361
 20
3889.3
 11
-47.7495
 21
3889.43
  0
LINE
  8
0
 10
-47.7495
 20
3889.43
 11
-47.2512
 21
3889.49
  0
LINE
  8
0
 10
-47.2512
 20
3889.49
 11
47.2512
 21
3889.49
  0
LINE
  8
0
 10
47.2512
 20
3889.49
 11
47.7495
 21
3889.43
  0
LINE
  8
0
 10
47.7495
 20
3889.43
 11
48.2361
 21
3889.3
  0
LINE
  8
0
 10
48.2361
 20
3889.3
 11
48.7031
 21
3889.12
  0
LINE
  8
0
 10
48.7031
 20
3889.12
 11
49.1433
 21
3888.88
  0
LINE
  8
0
 10
49.1433
 20
3888.88
 11
49.5497
 21
3888.58
  0
LINE
  8
0
 10
49.5497
 20
3888.58
 11
49.9159
 21
3888.24
  0
LINE
  8
0
 10
49.9159
 20
3888.24
 11
50.2361
 21
3887.85
  0
LINE
  8
0
 10
50.2361
 20
3887.85
 11
50.5052
 21
3887.43
  0
LINE
  8
0
 10
50.5052
 20
3887.43
 11
50.7191
 21
3886.97
  0
LINE
  8
0
 10
50.7191
 20
3886.97
 11
50.8743
 21
3886.49
  0
LINE
  8
0
 10
50.8743
 20
3886.49
 11
50.9685
 21
3886
  0
LINE
  8
0
 10
50.9685
 20
3886
 11
51
 21
3885.5
  0
LINE
  8
0
 10
51
 20
3885.5
 11
51
 21
3746.5
  0
LINE
  8
0
 10
51
 20
3746.5
 11
50.9685
 21
3746
  0
LINE
  8
0
 10
50.9685
 20
3746
 11
50.8743
 21
3745.51
  0
LINE
  8
0
 10
50.8743
 20
3745.51
 11
50.7191
 21
3745.03
  0
LINE
  8
0
 10
50.7191
 20
3745.03
 11
50.5052
 21
3744.57
  0
LINE
  8
0
 10
50.5052
 20
3744.57
 11
50.2361
 21
3744.15
  0
LINE
  8
0
 10
50.2361
 20
3744.15
 11
49.9159
 21
3743.76
  0
LINE
  8
0
 10
49.9159
 20
3743.76
 11
49.5497
 21
3743.42
  0
LINE
  8
0
 10
49.5497
 20
3743.42
 11
49.1433
 21
3743.12
  0
LINE
  8
0
 10
49.1433
 20
3743.12
 11
48.7031
 21
3742.88
  0
LINE
  8
0
 10
48.7031
 20
3742.88
 11
48.2361
 21
3742.7
  0
LINE
  8
0
 10
48.2361
 20
3742.7
 11
47.7495
 21
3742.57
  0
LINE
  8
0
 10
47.7495
 20
3742.57
 11
47.2512
 21
3742.51
  0
LINE
  8
0
 10
47.2512
 20
3742.51
 11
-47.2512
 21
3742.51
  0
LINE
  8
0
 10
48.4369
 20
3582.09
 11
49.0451
 21
3582.24
  0
LINE
  8
0
 10
49.0451
 20
3582.24
 11
49.6289
 21
3582.48
  0
LINE
  8
0
 10
49.6289
 20
3582.48
 11
50.1791
 21
3582.78
  0
LINE
  8
0
 10
50.1791
 20
3582.78
 11
50.6871
 21
3583.15
  0
LINE
  8
0
 10
50.6871
 20
3583.15
 11
51.1448
 21
3583.58
  0
LINE
  8
0
 10
51.1448
 20
3583.58
 11
51.5451
 21
3584.06
  0
LINE
  8
0
 10
51.5451
 20
3584.06
 11
51.8815
 21
3584.59
  0
LINE
  8
0
 10
51.8815
 20
3584.59
 11
52.1489
 21
3585.16
  0
LINE
  8
0
 10
52.1489
 20
3585.16
 11
52.3429
 21
3585.76
  0
LINE
  8
0
 10
52.3429
 20
3585.76
 11
52.4606
 21
3586.37
  0
LINE
  8
0
 10
52.4606
 20
3586.37
 11
52.5
 21
3587
  0
LINE
  8
0
 10
52.5
 20
3587
 11
52.5
 21
3727
  0
LINE
  8
0
 10
52.5
 20
3727
 11
52.4606
 21
3727.63
  0
LINE
  8
0
 10
52.4606
 20
3727.63
 11
52.3429
 21
3728.24
  0
LINE
  8
0
 10
52.3429
 20
3728.24
 11
52.1489
 21
3728.84
  0
LINE
  8
0
 10
52.1489
 20
3728.84
 11
51.8815
 21
3729.41
  0
LINE
  8
0
 10
51.8815
 20
3729.41
 11
51.5451
 21
3729.94
  0
LINE
  8
0
 10
51.5451
 20
3729.94
 11
51.1448
 21
3730.42
  0
LINE
  8
0
 10
51.1448
 20
3730.42
 11
50.6871
 21
3730.85
  0
LINE
  8
0
 10
50.6871
 20
3730.85
 11
50.1791
 21
3731.22
  0
LINE
  8
0
 10
50.1791
 20
3731.22
 11
49.6289
 21
3731.52
  0
LINE
  8
0
 10
49.6289
 20
3731.52
 11
49.0451
 21
3731.76
  0
LINE
  8
0
 10
49.0451
 20
3731.76
 11
48.4369
 21
3731.91
  0
LINE
  8
0
 10
48.4369
 20
3731.91
 11
47.8139
 21
3731.99
  0
LINE
  8
0
 10
47.8139
 20
3731.99
 11
-47.8139
 21
3731.99
  0
LINE
  8
0
 10
-47.8139
 20
3731.99
 11
-48.4369
 21
3731.91
  0
LINE
  8
0
 10
-48.4369
 20
3731.91
 11
-49.0451
 21
3731.76
  0
LINE
  8
0
 10
-49.0451
 20
3731.76
 11
-49.6289
 21
3731.52
  0
LINE
  8
0
 10
-49.6289
 20
3731.52
 11
-50.1791
 21
3731.22
  0
LINE
  8
0
 10
-50.1791
 20
3731.22
 11
-50.6871
 21
3730.85
  0
LINE
  8
0
 10
-50.6871
 20
3730.85
 11
-51.1448
 21
3730.42
  0
LINE
  8
0
 10
-51.1448
 20
3730.42
 11
-51.5451
 21
3729.94
  0
LINE
  8
0
 10
-51.5451
 20
3729.94
 11
-51.8815
 21
3729.41
  0
LINE
  8
0
 10
-51.8815
 20
3729.41
 11
-52.1489
 21
3728.84
  0
LINE
  8
0
 10
-52.1489
 20
3728.84
 11
-52.3429
 21
3728.24
  0
LINE
  8
0
 10
-52.3429
 20
3728.24
 11
-52.4606
 21
3727.63
  0
LINE
  8
0
 10
-52.4606
 20
3727.63
 11
-52.5
 21
3727
  0
LINE
  8
0
 10
-52.5
 20
3727
 11
-52.5
 21
3587
  0
LINE
  8
0
 10
-52.5
 20
3587
 11
-52.4606
 21
3586.37
  0
LINE
  8
0
 10
-52.4606
 20
3586.37
 11
-52.3429
 21
3585.76
  0
LINE
  8
0
 10
-52.3429
 20
3585.76
 11
-52.1489
 21
3585.16
  0
LINE
  8
0
 10
-52.1489
 20
3585.16
 11
-51.8815
 21
3584.59
  0
LINE
  8
0
 10
-51.8815
 20
3584.59
 11
-51.5451
 21
3584.06
  0
LINE
  8
0
 10
-51.5451
 20
3584.06
 11
-51.1448
 21
3583.58
  0
LINE
  8
0
 10
-51.1448
 20
3583.58
 11
-50.6871
 21
3583.15
  0
LINE
  8
0
 10
-50.6871
 20
3583.15
 11
-50.1791
 21
3582.78
  0
LINE
  8
0
 10
-50.1791
 20
3582.78
 11
-49.6289
 21
3582.48
  0
LINE
  8
0
 10
-49.6289
 20
3582.48
 11
-49.0451
 21
3582.24
  0
LINE
  8
0
 10
-49.0451
 20
3582.24
 11
-48.4369
 21
3582.09
  0
LINE
  8
0
 10
-48.4369
 20
3582.09
 11
-47.8139
 21
3582.01
  0
LINE
  8
0
 10
-47.8139
 20
3582.01
 11
47.8139
 21
3582.01
  0
LINE
  8
0
 10
47.8139
 20
3582.01
 11
48.4369
 21
3582.09
  0
LINE
  8
0
 10
-47.2512
 20
3583.51
 11
-47.7495
 21
3583.57
  0
LINE
  8
0
 10
-47.7495
 20
3583.57
 11
-48.2361
 21
3583.7
  0
LINE
  8
0
 10
-48.2361
 20
3583.7
 11
-48.7031
 21
3583.88
  0
LINE
  8
0
 10
-48.7031
 20
3583.88
 11
-49.1433
 21
3584.12
  0
LINE
  8
0
 10
-49.1433
 20
3584.12
 11
-49.5497
 21
3584.42
  0
LINE
  8
0
 10
-49.5497
 20
3584.42
 11
-49.9159
 21
3584.76
  0
LINE
  8
0
 10
-49.9159
 20
3584.76
 11
-50.2361
 21
3585.15
  0
LINE
  8
0
 10
-50.2361
 20
3585.15
 11
-50.5052
 21
3585.57
  0
LINE
  8
0
 10
-50.5052
 20
3585.57
 11
-50.7191
 21
3586.03
  0
LINE
  8
0
 10
-50.7191
 20
3586.03
 11
-50.8743
 21
3586.51
  0
LINE
  8
0
 10
-50.8743
 20
3586.51
 11
-50.9685
 21
3587
  0
LINE
  8
0
 10
-50.9685
 20
3587
 11
-51
 21
3587.5
  0
LINE
  8
0
 10
-51
 20
3587.5
 11
-51
 21
3726.5
  0
LINE
  8
0
 10
-51
 20
3726.5
 11
-50.9685
 21
3727
  0
LINE
  8
0
 10
-50.9685
 20
3727
 11
-50.8743
 21
3727.49
  0
LINE
  8
0
 10
-50.8743
 20
3727.49
 11
-50.7191
 21
3727.97
  0
LINE
  8
0
 10
-50.7191
 20
3727.97
 11
-50.5052
 21
3728.43
  0
LINE
  8
0
 10
-50.5052
 20
3728.43
 11
-50.2361
 21
3728.85
  0
LINE
  8
0
 10
-50.2361
 20
3728.85
 11
-49.9159
 21
3729.24
  0
LINE
  8
0
 10
-49.9159
 20
3729.24
 11
-49.5497
 21
3729.58
  0
LINE
  8
0
 10
-49.5497
 20
3729.58
 11
-49.1433
 21
3729.88
  0
LINE
  8
0
 10
-49.1433
 20
3729.88
 11
-48.7031
 21
3730.12
  0
LINE
  8
0
 10
-48.7031
 20
3730.12
 11
-48.2361
 21
3730.3
  0
LINE
  8
0
 10
-48.2361
 20
3730.3
 11
-47.7495
 21
3730.43
  0
LINE
  8
0
 10
-47.7495
 20
3730.43
 11
-47.2512
 21
3730.49
  0
LINE
  8
0
 10
-47.2512
 20
3730.49
 11
47.2512
 21
3730.49
  0
LINE
  8
0
 10
47.2512
 20
3730.49
 11
47.7495
 21
3730.43
  0
LINE
  8
0
 10
47.7495
 20
3730.43
 11
48.2361
 21
3730.3
  0
LINE
  8
0
 10
48.2361
 20
3730.3
 11
48.7031
 21
3730.12
  0
LINE
  8
0
 10
48.7031
 20
3730.12
 11
49.1433
 21
3729.88
  0
LINE
  8
0
 10
49.1433
 20
3729.88
 11
49.5497
 21
3729.58
  0
LINE
  8
0
 10
49.5497
 20
3729.58
 11
49.9159
 21
3729.24
  0
LINE
  8
0
 10
49.9159
 20
3729.24
 11
50.2361
 21
3728.85
  0
LINE
  8
0
 10
50.2361
 20
3728.85
 11
50.5052
 21
3728.43
  0
LINE
  8
0
 10
50.5052
 20
3728.43
 11
50.7191
 21
3727.97
  0
LINE
  8
0
 10
50.7191
 20
3727.97
 11
50.8743
 21
3727.49
  0
LINE
  8
0
 10
50.8743
 20
3727.49
 11
50.9685
 21
3727
  0
LINE
  8
0
 10
50.9685
 20
3727
 11
51
 21
3726.5
  0
LINE
  8
0
 10
51
 20
3726.5
 11
51
 21
3587.5
  0
LINE
  8
0
 10
51
 20
3587.5
 11
50.9685
 21
3587
  0
LINE
  8
0
 10
50.9685
 20
3587
 11
50.8743
 21
3586.51
  0
LINE
  8
0
 10
50.8743
 20
3586.51
 11
50.7191
 21
3586.03
  0
LINE
  8
0
 10
50.7191
 20
3586.03
 11
50.5052
 21
3585.57
  0
LINE
  8
0
 10
50.5052
 20
3585.57
 11
50.2361
 21
3585.15
  0
LINE
  8
0
 10
50.2361
 20
3585.15
 11
49.9159
 21
3584.76
  0
LINE
  8
0
 10
49.9159
 20
3584.76
 11
49.5497
 21
3584.42
  0
LINE
  8
0
 10
49.5497
 20
3584.42
 11
49.1433
 21
3584.12
  0
LINE
  8
0
 10
49.1433
 20
3584.12
 11
48.7031
 21
3583.88
  0
LINE
  8
0
 10
48.7031
 20
3583.88
 11
48.2361
 21
3583.7
  0
LINE
  8
0
 10
48.2361
 20
3583.7
 11
47.7495
 21
3583.57
  0
LINE
  8
0
 10
47.7495
 20
3583.57
 11
47.2512
 21
3583.51
  0
LINE
  8
0
 10
47.2512
 20
3583.51
 11
-47.2512
 21
3583.51
  0
LINE
  8
0
 10
48.4369
 20
3423.09
 11
49.0451
 21
3423.24
  0
LINE
  8
0
 10
49.0451
 20
3423.24
 11
49.6289
 21
3423.48
  0
LINE
  8
0
 10
49.6289
 20
3423.48
 11
50.1791
 21
3423.78
  0
LINE
  8
0
 10
50.1791
 20
3423.78
 11
50.6871
 21
3424.15
  0
LINE
  8
0
 10
50.6871
 20
3424.15
 11
51.1448
 21
3424.58
  0
LINE
  8
0
 10
51.1448
 20
3424.58
 11
51.5451
 21
3425.06
  0
LINE
  8
0
 10
51.5451
 20
3425.06
 11
51.8815
 21
3425.59
  0
LINE
  8
0
 10
51.8815
 20
3425.59
 11
52.1489
 21
3426.16
  0
LINE
  8
0
 10
52.1489
 20
3426.16
 11
52.3429
 21
3426.76
  0
LINE
  8
0
 10
52.3429
 20
3426.76
 11
52.4606
 21
3427.37
  0
LINE
  8
0
 10
52.4606
 20
3427.37
 11
52.5
 21
3428
  0
LINE
  8
0
 10
52.5
 20
3428
 11
52.5
 21
3568
  0
LINE
  8
0
 10
52.5
 20
3568
 11
52.4606
 21
3568.63
  0
LINE
  8
0
 10
52.4606
 20
3568.63
 11
52.3429
 21
3569.24
  0
LINE
  8
0
 10
52.3429
 20
3569.24
 11
52.1489
 21
3569.84
  0
LINE
  8
0
 10
52.1489
 20
3569.84
 11
51.8815
 21
3570.41
  0
LINE
  8
0
 10
51.8815
 20
3570.41
 11
51.5451
 21
3570.94
  0
LINE
  8
0
 10
51.5451
 20
3570.94
 11
51.1448
 21
3571.42
  0
LINE
  8
0
 10
51.1448
 20
3571.42
 11
50.6871
 21
3571.85
  0
LINE
  8
0
 10
50.6871
 20
3571.85
 11
50.1791
 21
3572.22
  0
LINE
  8
0
 10
50.1791
 20
3572.22
 11
49.6289
 21
3572.52
  0
LINE
  8
0
 10
49.6289
 20
3572.52
 11
49.0451
 21
3572.76
  0
LINE
  8
0
 10
49.0451
 20
3572.76
 11
48.4369
 21
3572.91
  0
LINE
  8
0
 10
48.4369
 20
3572.91
 11
47.8139
 21
3572.99
  0
LINE
  8
0
 10
47.8139
 20
3572.99
 11
-47.8139
 21
3572.99
  0
LINE
  8
0
 10
-47.8139
 20
3572.99
 11
-48.4369
 21
3572.91
  0
LINE
  8
0
 10
-48.4369
 20
3572.91
 11
-49.0451
 21
3572.76
  0
LINE
  8
0
 10
-49.0451
 20
3572.76
 11
-49.6289
 21
3572.52
  0
LINE
  8
0
 10
-49.6289
 20
3572.52
 11
-50.1791
 21
3572.22
  0
LINE
  8
0
 10
-50.1791
 20
3572.22
 11
-50.6871
 21
3571.85
  0
LINE
  8
0
 10
-50.6871
 20
3571.85
 11
-51.1448
 21
3571.42
  0
LINE
  8
0
 10
-51.1448
 20
3571.42
 11
-51.5451
 21
3570.94
  0
LINE
  8
0
 10
-51.5451
 20
3570.94
 11
-51.8815
 21
3570.41
  0
LINE
  8
0
 10
-51.8815
 20
3570.41
 11
-52.1489
 21
3569.84
  0
LINE
  8
0
 10
-52.1489
 20
3569.84
 11
-52.3429
 21
3569.24
  0
LINE
  8
0
 10
-52.3429
 20
3569.24
 11
-52.4606
 21
3568.63
  0
LINE
  8
0
 10
-52.4606
 20
3568.63
 11
-52.5
 21
3568
  0
LINE
  8
0
 10
-52.5
 20
3568
 11
-52.5
 21
3428
  0
LINE
  8
0
 10
-52.5
 20
3428
 11
-52.4606
 21
3427.37
  0
LINE
  8
0
 10
-52.4606
 20
3427.37
 11
-52.3429
 21
3426.76
  0
LINE
  8
0
 10
-52.3429
 20
3426.76
 11
-52.1489
 21
3426.16
  0
LINE
  8
0
 10
-52.1489
 20
3426.16
 11
-51.8815
 21
3425.59
  0
LINE
  8
0
 10
-51.8815
 20
3425.59
 11
-51.5451
 21
3425.06
  0
LINE
  8
0
 10
-51.5451
 20
3425.06
 11
-51.1448
 21
3424.58
  0
LINE
  8
0
 10
-51.1448
 20
3424.58
 11
-50.6871
 21
3424.15
  0
LINE
  8
0
 10
-50.6871
 20
3424.15
 11
-50.1791
 21
3423.78
  0
LINE
  8
0
 10
-50.1791
 20
3423.78
 11
-49.6289
 21
3423.48
  0
LINE
  8
0
 10
-49.6289
 20
3423.48
 11
-49.0451
 21
3423.24
  0
LINE
  8
0
 10
-49.0451
 20
3423.24
 11
-48.4369
 21
3423.09
  0
LINE
  8
0
 10
-48.4369
 20
3423.09
 11
-47.8139
 21
3423.01
  0
LINE
  8
0
 10
-47.8139
 20
3423.01
 11
47.8139
 21
3423.01
  0
LINE
  8
0
 10
47.8139
 20
3423.01
 11
48.4369
 21
3423.09
  0
LINE
  8
0
 10
-47.2512
 20
3424.51
 11
-47.7495
 21
3424.57
  0
LINE
  8
0
 10
-47.7495
 20
3424.57
 11
-48.2361
 21
3424.7
  0
LINE
  8
0
 10
-48.2361
 20
3424.7
 11
-48.7031
 21
3424.88
  0
LINE
  8
0
 10
-48.7031
 20
3424.88
 11
-49.1433
 21
3425.12
  0
LINE
  8
0
 10
-49.1433
 20
3425.12
 11
-49.5497
 21
3425.42
  0
LINE
  8
0
 10
-49.5497
 20
3425.42
 11
-49.9159
 21
3425.76
  0
LINE
  8
0
 10
-49.9159
 20
3425.76
 11
-50.2361
 21
3426.15
  0
LINE
  8
0
 10
-50.2361
 20
3426.15
 11
-50.5052
 21
3426.57
  0
LINE
  8
0
 10
-50.5052
 20
3426.57
 11
-50.7191
 21
3427.03
  0
LINE
  8
0
 10
-50.7191
 20
3427.03
 11
-50.8743
 21
3427.51
  0
LINE
  8
0
 10
-50.8743
 20
3427.51
 11
-50.9685
 21
3428
  0
LINE
  8
0
 10
-50.9685
 20
3428
 11
-51
 21
3428.5
  0
LINE
  8
0
 10
-51
 20
3428.5
 11
-51
 21
3567.5
  0
LINE
  8
0
 10
-51
 20
3567.5
 11
-50.9685
 21
3568
  0
LINE
  8
0
 10
-50.9685
 20
3568
 11
-50.8743
 21
3568.49
  0
LINE
  8
0
 10
-50.8743
 20
3568.49
 11
-50.7191
 21
3568.97
  0
LINE
  8
0
 10
-50.7191
 20
3568.97
 11
-50.5052
 21
3569.43
  0
LINE
  8
0
 10
-50.5052
 20
3569.43
 11
-50.2361
 21
3569.85
  0
LINE
  8
0
 10
-50.2361
 20
3569.85
 11
-49.9159
 21
3570.24
  0
LINE
  8
0
 10
-49.9159
 20
3570.24
 11
-49.5497
 21
3570.58
  0
LINE
  8
0
 10
-49.5497
 20
3570.58
 11
-49.1433
 21
3570.88
  0
LINE
  8
0
 10
-49.1433
 20
3570.88
 11
-48.7031
 21
3571.12
  0
LINE
  8
0
 10
-48.7031
 20
3571.12
 11
-48.2361
 21
3571.3
  0
LINE
  8
0
 10
-48.2361
 20
3571.3
 11
-47.7495
 21
3571.43
  0
LINE
  8
0
 10
-47.7495
 20
3571.43
 11
-47.2512
 21
3571.49
  0
LINE
  8
0
 10
-47.2512
 20
3571.49
 11
47.2512
 21
3571.49
  0
LINE
  8
0
 10
47.2512
 20
3571.49
 11
47.7495
 21
3571.43
  0
LINE
  8
0
 10
47.7495
 20
3571.43
 11
48.2361
 21
3571.3
  0
LINE
  8
0
 10
48.2361
 20
3571.3
 11
48.7031
 21
3571.12
  0
LINE
  8
0
 10
48.7031
 20
3571.12
 11
49.1433
 21
3570.88
  0
LINE
  8
0
 10
49.1433
 20
3570.88
 11
49.5497
 21
3570.58
  0
LINE
  8
0
 10
49.5497
 20
3570.58
 11
49.9159
 21
3570.24
  0
LINE
  8
0
 10
49.9159
 20
3570.24
 11
50.2361
 21
3569.85
  0
LINE
  8
0
 10
50.2361
 20
3569.85
 11
50.5052
 21
3569.43
  0
LINE
  8
0
 10
50.5052
 20
3569.43
 11
50.7191
 21
3568.97
  0
LINE
  8
0
 10
50.7191
 20
3568.97
 11
50.8743
 21
3568.49
  0
LINE
  8
0
 10
50.8743
 20
3568.49
 11
50.9685
 21
3568
  0
LINE
  8
0
 10
50.9685
 20
3568
 11
51
 21
3567.5
  0
LINE
  8
0
 10
51
 20
3567.5
 11
51
 21
3428.5
  0
LINE
  8
0
 10
51
 20
3428.5
 11
50.9685
 21
3428
  0
LINE
  8
0
 10
50.9685
 20
3428
 11
50.8743
 21
3427.51
  0
LINE
  8
0
 10
50.8743
 20
3427.51
 11
50.7191
 21
3427.03
  0
LINE
  8
0
 10
50.7191
 20
3427.03
 11
50.5052
 21
3426.57
  0
LINE
  8
0
 10
50.5052
 20
3426.57
 11
50.2361
 21
3426.15
  0
LINE
  8
0
 10
50.2361
 20
3426.15
 11
49.9159
 21
3425.76
  0
LINE
  8
0
 10
49.9159
 20
3425.76
 11
49.5497
 21
3425.42
  0
LINE
  8
0
 10
49.5497
 20
3425.42
 11
49.1433
 21
3425.12
  0
LINE
  8
0
 10
49.1433
 20
3425.12
 11
48.7031
 21
3424.88
  0
LINE
  8
0
 10
48.7031
 20
3424.88
 11
48.2361
 21
3424.7
  0
LINE
  8
0
 10
48.2361
 20
3424.7
 11
47.7495
 21
3424.57
  0
LINE
  8
0
 10
47.7495
 20
3424.57
 11
47.2512
 21
3424.51
  0
LINE
  8
0
 10
47.2512
 20
3424.51
 11
-47.2512
 21
3424.51
  0
LINE
  8
0
 10
48.4369
 20
3264.09
 11
49.0451
 21
3264.24
  0
LINE
  8
0
 10
49.0451
 20
3264.24
 11
49.6289
 21
3264.48
  0
LINE
  8
0
 10
49.6289
 20
3264.48
 11
50.1791
 21
3264.78
  0
LINE
  8
0
 10
50.1791
 20
3264.78
 11
50.6871
 21
3265.15
  0
LINE
  8
0
 10
50.6871
 20
3265.15
 11
51.1448
 21
3265.58
  0
LINE
  8
0
 10
51.1448
 20
3265.58
 11
51.5451
 21
3266.06
  0
LINE
  8
0
 10
51.5451
 20
3266.06
 11
51.8815
 21
3266.59
  0
LINE
  8
0
 10
51.8815
 20
3266.59
 11
52.1489
 21
3267.16
  0
LINE
  8
0
 10
52.1489
 20
3267.16
 11
52.3429
 21
3267.76
  0
LINE
  8
0
 10
52.3429
 20
3267.76
 11
52.4606
 21
3268.37
  0
LINE
  8
0
 10
52.4606
 20
3268.37
 11
52.5
 21
3269
  0
LINE
  8
0
 10
52.5
 20
3269
 11
52.5
 21
3409
  0
LINE
  8
0
 10
52.5
 20
3409
 11
52.4606
 21
3409.63
  0
LINE
  8
0
 10
52.4606
 20
3409.63
 11
52.3429
 21
3410.24
  0
LINE
  8
0
 10
52.3429
 20
3410.24
 11
52.1489
 21
3410.84
  0
LINE
  8
0
 10
52.1489
 20
3410.84
 11
51.8815
 21
3411.41
  0
LINE
  8
0
 10
51.8815
 20
3411.41
 11
51.5451
 21
3411.94
  0
LINE
  8
0
 10
51.5451
 20
3411.94
 11
51.1448
 21
3412.42
  0
LINE
  8
0
 10
51.1448
 20
3412.42
 11
50.6871
 21
3412.85
  0
LINE
  8
0
 10
50.6871
 20
3412.85
 11
50.1791
 21
3413.22
  0
LINE
  8
0
 10
50.1791
 20
3413.22
 11
49.6289
 21
3413.52
  0
LINE
  8
0
 10
49.6289
 20
3413.52
 11
49.0451
 21
3413.76
  0
LINE
  8
0
 10
49.0451
 20
3413.76
 11
48.4369
 21
3413.91
  0
LINE
  8
0
 10
48.4369
 20
3413.91
 11
47.8139
 21
3413.99
  0
LINE
  8
0
 10
47.8139
 20
3413.99
 11
-47.8139
 21
3413.99
  0
LINE
  8
0
 10
-47.8139
 20
3413.99
 11
-48.4369
 21
3413.91
  0
LINE
  8
0
 10
-48.4369
 20
3413.91
 11
-49.0451
 21
3413.76
  0
LINE
  8
0
 10
-49.0451
 20
3413.76
 11
-49.6289
 21
3413.52
  0
LINE
  8
0
 10
-49.6289
 20
3413.52
 11
-50.1791
 21
3413.22
  0
LINE
  8
0
 10
-50.1791
 20
3413.22
 11
-50.6871
 21
3412.85
  0
LINE
  8
0
 10
-50.6871
 20
3412.85
 11
-51.1448
 21
3412.42
  0
LINE
  8
0
 10
-51.1448
 20
3412.42
 11
-51.5451
 21
3411.94
  0
LINE
  8
0
 10
-51.5451
 20
3411.94
 11
-51.8815
 21
3411.41
  0
LINE
  8
0
 10
-51.8815
 20
3411.41
 11
-52.1489
 21
3410.84
  0
LINE
  8
0
 10
-52.1489
 20
3410.84
 11
-52.3429
 21
3410.24
  0
LINE
  8
0
 10
-52.3429
 20
3410.24
 11
-52.4606
 21
3409.63
  0
LINE
  8
0
 10
-52.4606
 20
3409.63
 11
-52.5
 21
3409
  0
LINE
  8
0
 10
-52.5
 20
3409
 11
-52.5
 21
3269
  0
LINE
  8
0
 10
-52.5
 20
3269
 11
-52.4606
 21
3268.37
  0
LINE
  8
0
 10
-52.4606
 20
3268.37
 11
-52.3429
 21
3267.76
  0
LINE
  8
0
 10
-52.3429
 20
3267.76
 11
-52.1489
 21
3267.16
  0
LINE
  8
0
 10
-52.1489
 20
3267.16
 11
-51.8815
 21
3266.59
  0
LINE
  8
0
 10
-51.8815
 20
3266.59
 11
-51.5451
 21
3266.06
  0
LINE
  8
0
 10
-51.5451
 20
3266.06
 11
-51.1448
 21
3265.58
  0
LINE
  8
0
 10
-51.1448
 20
3265.58
 11
-50.6871
 21
3265.15
  0
LINE
  8
0
 10
-50.6871
 20
3265.15
 11
-50.1791
 21
3264.78
  0
LINE
  8
0
 10
-50.1791
 20
3264.78
 11
-49.6289
 21
3264.48
  0
LINE
  8
0
 10
-49.6289
 20
3264.48
 11
-49.0451
 21
3264.24
  0
LINE
  8
0
 10
-49.0451
 20
3264.24
 11
-48.4369
 21
3264.09
  0
LINE
  8
0
 10
-48.4369
 20
3264.09
 11
-47.8139
 21
3264.01
  0
LINE
  8
0
 10
-47.8139
 20
3264.01
 11
47.8139
 21
3264.01
  0
LINE
  8
0
 10
47.8139
 20
3264.01
 11
48.4369
 21
3264.09
  0
LINE
  8
0
 10
-47.2512
 20
3265.51
 11
-47.7495
 21
3265.57
  0
LINE
  8
0
 10
-47.7495
 20
3265.57
 11
-48.2361
 21
3265.7
  0
LINE
  8
0
 10
-48.2361
 20
3265.7
 11
-48.7031
 21
3265.88
  0
LINE
  8
0
 10
-48.7031
 20
3265.88
 11
-49.1433
 21
3266.12
  0
LINE
  8
0
 10
-49.1433
 20
3266.12
 11
-49.5497
 21
3266.42
  0
LINE
  8
0
 10
-49.5497
 20
3266.42
 11
-49.9159
 21
3266.76
  0
LINE
  8
0
 10
-49.9159
 20
3266.76
 11
-50.2361
 21
3267.15
  0
LINE
  8
0
 10
-50.2361
 20
3267.15
 11
-50.5052
 21
3267.57
  0
LINE
  8
0
 10
-50.5052
 20
3267.57
 11
-50.7191
 21
3268.03
  0
LINE
  8
0
 10
-50.7191
 20
3268.03
 11
-50.8743
 21
3268.51
  0
LINE
  8
0
 10
-50.8743
 20
3268.51
 11
-50.9685
 21
3269
  0
LINE
  8
0
 10
-50.9685
 20
3269
 11
-51
 21
3269.5
  0
LINE
  8
0
 10
-51
 20
3269.5
 11
-51
 21
3408.5
  0
LINE
  8
0
 10
-51
 20
3408.5
 11
-50.9685
 21
3409
  0
LINE
  8
0
 10
-50.9685
 20
3409
 11
-50.8743
 21
3409.49
  0
LINE
  8
0
 10
-50.8743
 20
3409.49
 11
-50.7191
 21
3409.97
  0
LINE
  8
0
 10
-50.7191
 20
3409.97
 11
-50.5052
 21
3410.43
  0
LINE
  8
0
 10
-50.5052
 20
3410.43
 11
-50.2361
 21
3410.85
  0
LINE
  8
0
 10
-50.2361
 20
3410.85
 11
-49.9159
 21
3411.24
  0
LINE
  8
0
 10
-49.9159
 20
3411.24
 11
-49.5497
 21
3411.58
  0
LINE
  8
0
 10
-49.5497
 20
3411.58
 11
-49.1433
 21
3411.88
  0
LINE
  8
0
 10
-49.1433
 20
3411.88
 11
-48.7031
 21
3412.12
  0
LINE
  8
0
 10
-48.7031
 20
3412.12
 11
-48.2361
 21
3412.3
  0
LINE
  8
0
 10
-48.2361
 20
3412.3
 11
-47.7495
 21
3412.43
  0
LINE
  8
0
 10
-47.7495
 20
3412.43
 11
-47.2512
 21
3412.49
  0
LINE
  8
0
 10
-47.2512
 20
3412.49
 11
47.2512
 21
3412.49
  0
LINE
  8
0
 10
47.2512
 20
3412.49
 11
47.7495
 21
3412.43
  0
LINE
  8
0
 10
47.7495
 20
3412.43
 11
48.2361
 21
3412.3
  0
LINE
  8
0
 10
48.2361
 20
3412.3
 11
48.7031
 21
3412.12
  0
LINE
  8
0
 10
48.7031
 20
3412.12
 11
49.1433
 21
3411.88
  0
LINE
  8
0
 10
49.1433
 20
3411.88
 11
49.5497
 21
3411.58
  0
LINE
  8
0
 10
49.5497
 20
3411.58
 11
49.9159
 21
3411.24
  0
LINE
  8
0
 10
49.9159
 20
3411.24
 11
50.2361
 21
3410.85
  0
LINE
  8
0
 10
50.2361
 20
3410.85
 11
50.5052
 21
3410.43
  0
LINE
  8
0
 10
50.5052
 20
3410.43
 11
50.7191
 21
3409.97
  0
LINE
  8
0
 10
50.7191
 20
3409.97
 11
50.8743
 21
3409.49
  0
LINE
  8
0
 10
50.8743
 20
3409.49
 11
50.9685
 21
3409
  0
LINE
  8
0
 10
50.9685
 20
3409
 11
51
 21
3408.5
  0
LINE
  8
0
 10
51
 20
3408.5
 11
51
 21
3269.5
  0
LINE
  8
0
 10
51
 20
3269.5
 11
50.9685
 21
3269
  0
LINE
  8
0
 10
50.9685
 20
3269
 11
50.8743
 21
3268.51
  0
LINE
  8
0
 10
50.8743
 20
3268.51
 11
50.7191
 21
3268.03
  0
LINE
  8
0
 10
50.7191
 20
3268.03
 11
50.5052
 21
3267.57
  0
LINE
  8
0
 10
50.5052
 20
3267.57
 11
50.2361
 21
3267.15
  0
LINE
  8
0
 10
50.2361
 20
3267.15
 11
49.9159
 21
3266.76
  0
LINE
  8
0
 10
49.9159
 20
3266.76
 11
49.5497
 21
3266.42
  0
LINE
  8
0
 10
49.5497
 20
3266.42
 11
49.1433
 21
3266.12
  0
LINE
  8
0
 10
49.1433
 20
3266.12
 11
48.7031
 21
3265.88
  0
LINE
  8
0
 10
48.7031
 20
3265.88
 11
48.2361
 21
3265.7
  0
LINE
  8
0
 10
48.2361
 20
3265.7
 11
47.7495
 21
3265.57
  0
LINE
  8
0
 10
47.7495
 20
3265.57
 11
47.2512
 21
3265.51
  0
LINE
  8
0
 10
47.2512
 20
3265.51
 11
-47.2512
 21
3265.51
  0
LINE
  8
0
 10
48.4369
 20
3105.09
 11
49.0451
 21
3105.24
  0
LINE
  8
0
 10
49.0451
 20
3105.24
 11
49.6289
 21
3105.48
  0
LINE
  8
0
 10
49.6289
 20
3105.48
 11
50.1791
 21
3105.78
  0
LINE
  8
0
 10
50.1791
 20
3105.78
 11
50.6871
 21
3106.15
  0
LINE
  8
0
 10
50.6871
 20
3106.15
 11
51.1448
 21
3106.58
  0
LINE
  8
0
 10
51.1448
 20
3106.58
 11
51.5451
 21
3107.06
  0
LINE
  8
0
 10
51.5451
 20
3107.06
 11
51.8815
 21
3107.59
  0
LINE
  8
0
 10
51.8815
 20
3107.59
 11
52.1489
 21
3108.16
  0
LINE
  8
0
 10
52.1489
 20
3108.16
 11
52.3429
 21
3108.76
  0
LINE
  8
0
 10
52.3429
 20
3108.76
 11
52.4606
 21
3109.37
  0
LINE
  8
0
 10
52.4606
 20
3109.37
 11
52.5
 21
3110
  0
LINE
  8
0
 10
52.5
 20
3110
 11
52.5
 21
3250
  0
LINE
  8
0
 10
52.5
 20
3250
 11
52.4606
 21
3250.63
  0
LINE
  8
0
 10
52.4606
 20
3250.63
 11
52.3429
 21
3251.24
  0
LINE
  8
0
 10
52.3429
 20
3251.24
 11
52.1489
 21
3251.84
  0
LINE
  8
0
 10
52.1489
 20
3251.84
 11
51.8815
 21
3252.41
  0
LINE
  8
0
 10
51.8815
 20
3252.41
 11
51.5451
 21
3252.94
  0
LINE
  8
0
 10
51.5451
 20
3252.94
 11
51.1448
 21
3253.42
  0
LINE
  8
0
 10
51.1448
 20
3253.42
 11
50.6871
 21
3253.85
  0
LINE
  8
0
 10
50.6871
 20
3253.85
 11
50.1791
 21
3254.22
  0
LINE
  8
0
 10
50.1791
 20
3254.22
 11
49.6289
 21
3254.52
  0
LINE
  8
0
 10
49.6289
 20
3254.52
 11
49.0451
 21
3254.76
  0
LINE
  8
0
 10
49.0451
 20
3254.76
 11
48.4369
 21
3254.91
  0
LINE
  8
0
 10
48.4369
 20
3254.91
 11
47.8139
 21
3254.99
  0
LINE
  8
0
 10
47.8139
 20
3254.99
 11
-47.8139
 21
3254.99
  0
LINE
  8
0
 10
-47.8139
 20
3254.99
 11
-48.4369
 21
3254.91
  0
LINE
  8
0
 10
-48.4369
 20
3254.91
 11
-49.0451
 21
3254.76
  0
LINE
  8
0
 10
-49.0451
 20
3254.76
 11
-49.6289
 21
3254.52
  0
LINE
  8
0
 10
-49.6289
 20
3254.52
 11
-50.1791
 21
3254.22
  0
LINE
  8
0
 10
-50.1791
 20
3254.22
 11
-50.6871
 21
3253.85
  0
LINE
  8
0
 10
-50.6871
 20
3253.85
 11
-51.1448
 21
3253.42
  0
LINE
  8
0
 10
-51.1448
 20
3253.42
 11
-51.5451
 21
3252.94
  0
LINE
  8
0
 10
-51.5451
 20
3252.94
 11
-51.8815
 21
3252.41
  0
LINE
  8
0
 10
-51.8815
 20
3252.41
 11
-52.1489
 21
3251.84
  0
LINE
  8
0
 10
-52.1489
 20
3251.84
 11
-52.3429
 21
3251.24
  0
LINE
  8
0
 10
-52.3429
 20
3251.24
 11
-52.4606
 21
3250.63
  0
LINE
  8
0
 10
-52.4606
 20
3250.63
 11
-52.5
 21
3250
  0
LINE
  8
0
 10
-52.5
 20
3250
 11
-52.5
 21
3110
  0
LINE
  8
0
 10
-52.5
 20
3110
 11
-52.4606
 21
3109.37
  0
LINE
  8
0
 10
-52.4606
 20
3109.37
 11
-52.3429
 21
3108.76
  0
LINE
  8
0
 10
-52.3429
 20
3108.76
 11
-52.1489
 21
3108.16
  0
LINE
  8
0
 10
-52.1489
 20
3108.16
 11
-51.8815
 21
3107.59
  0
LINE
  8
0
 10
-51.8815
 20
3107.59
 11
-51.5451
 21
3107.06
  0
LINE
  8
0
 10
-51.5451
 20
3107.06
 11
-51.1448
 21
3106.58
  0
LINE
  8
0
 10
-51.1448
 20
3106.58
 11
-50.6871
 21
3106.15
  0
LINE
  8
0
 10
-50.6871
 20
3106.15
 11
-50.1791
 21
3105.78
  0
LINE
  8
0
 10
-50.1791
 20
3105.78
 11
-49.6289
 21
3105.48
  0
LINE
  8
0
 10
-49.6289
 20
3105.48
 11
-49.0451
 21
3105.24
  0
LINE
  8
0
 10
-49.0451
 20
3105.24
 11
-48.4369
 21
3105.09
  0
LINE
  8
0
 10
-48.4369
 20
3105.09
 11
-47.8139
 21
3105.01
  0
LINE
  8
0
 10
-47.8139
 20
3105.01
 11
47.8139
 21
3105.01
  0
LINE
  8
0
 10
47.8139
 20
3105.01
 11
48.4369
 21
3105.09
  0
LINE
  8
0
 10
-47.2512
 20
3106.51
 11
-47.7495
 21
3106.57
  0
LINE
  8
0
 10
-47.7495
 20
3106.57
 11
-48.2361
 21
3106.7
  0
LINE
  8
0
 10
-48.2361
 20
3106.7
 11
-48.7031
 21
3106.88
  0
LINE
  8
0
 10
-48.7031
 20
3106.88
 11
-49.1433
 21
3107.12
  0
LINE
  8
0
 10
-49.1433
 20
3107.12
 11
-49.5497
 21
3107.42
  0
LINE
  8
0
 10
-49.5497
 20
3107.42
 11
-49.9159
 21
3107.76
  0
LINE
  8
0
 10
-49.9159
 20
3107.76
 11
-50.2361
 21
3108.15
  0
LINE
  8
0
 10
-50.2361
 20
3108.15
 11
-50.5052
 21
3108.57
  0
LINE
  8
0
 10
-50.5052
 20
3108.57
 11
-50.7191
 21
3109.03
  0
LINE
  8
0
 10
-50.7191
 20
3109.03
 11
-50.8743
 21
3109.51
  0
LINE
  8
0
 10
-50.8743
 20
3109.51
 11
-50.9685
 21
3110
  0
LINE
  8
0
 10
-50.9685
 20
3110
 11
-51
 21
3110.5
  0
LINE
  8
0
 10
-51
 20
3110.5
 11
-51
 21
3249.5
  0
LINE
  8
0
 10
-51
 20
3249.5
 11
-50.9685
 21
3250
  0
LINE
  8
0
 10
-50.9685
 20
3250
 11
-50.8743
 21
3250.49
  0
LINE
  8
0
 10
-50.8743
 20
3250.49
 11
-50.7191
 21
3250.97
  0
LINE
  8
0
 10
-50.7191
 20
3250.97
 11
-50.5052
 21
3251.43
  0
LINE
  8
0
 10
-50.5052
 20
3251.43
 11
-50.2361
 21
3251.85
  0
LINE
  8
0
 10
-50.2361
 20
3251.85
 11
-49.9159
 21
3252.24
  0
LINE
  8
0
 10
-49.9159
 20
3252.24
 11
-49.5497
 21
3252.58
  0
LINE
  8
0
 10
-49.5497
 20
3252.58
 11
-49.1433
 21
3252.88
  0
LINE
  8
0
 10
-49.1433
 20
3252.88
 11
-48.7031
 21
3253.12
  0
LINE
  8
0
 10
-48.7031
 20
3253.12
 11
-48.2361
 21
3253.3
  0
LINE
  8
0
 10
-48.2361
 20
3253.3
 11
-47.7495
 21
3253.43
  0
LINE
  8
0
 10
-47.7495
 20
3253.43
 11
-47.2512
 21
3253.49
  0
LINE
  8
0
 10
-47.2512
 20
3253.49
 11
47.2512
 21
3253.49
  0
LINE
  8
0
 10
47.2512
 20
3253.49
 11
47.7495
 21
3253.43
  0
LINE
  8
0
 10
47.7495
 20
3253.43
 11
48.2361
 21
3253.3
  0
LINE
  8
0
 10
48.2361
 20
3253.3
 11
48.7031
 21
3253.12
  0
LINE
  8
0
 10
48.7031
 20
3253.12
 11
49.1433
 21
3252.88
  0
LINE
  8
0
 10
49.1433
 20
3252.88
 11
49.5497
 21
3252.58
  0
LINE
  8
0
 10
49.5497
 20
3252.58
 11
49.9159
 21
3252.24
  0
LINE
  8
0
 10
49.9159
 20
3252.24
 11
50.2361
 21
3251.85
  0
LINE
  8
0
 10
50.2361
 20
3251.85
 11
50.5052
 21
3251.43
  0
LINE
  8
0
 10
50.5052
 20
3251.43
 11
50.7191
 21
3250.97
  0
LINE
  8
0
 10
50.7191
 20
3250.97
 11
50.8743
 21
3250.49
  0
LINE
  8
0
 10
50.8743
 20
3250.49
 11
50.9685
 21
3250
  0
LINE
  8
0
 10
50.9685
 20
3250
 11
51
 21
3249.5
  0
LINE
  8
0
 10
51
 20
3249.5
 11
51
 21
3110.5
  0
LINE
  8
0
 10
51
 20
3110.5
 11
50.9685
 21
3110
  0
LINE
  8
0
 10
50.9685
 20
3110
 11
50.8743
 21
3109.51
  0
LINE
  8
0
 10
50.8743
 20
3109.51
 11
50.7191
 21
3109.03
  0
LINE
  8
0
 10
50.7191
 20
3109.03
 11
50.5052
 21
3108.57
  0
LINE
  8
0
 10
50.5052
 20
3108.57
 11
50.2361
 21
3108.15
  0
LINE
  8
0
 10
50.2361
 20
3108.15
 11
49.9159
 21
3107.76
  0
LINE
  8
0
 10
49.9159
 20
3107.76
 11
49.5497
 21
3107.42
  0
LINE
  8
0
 10
49.5497
 20
3107.42
 11
49.1433
 21
3107.12
  0
LINE
  8
0
 10
49.1433
 20
3107.12
 11
48.7031
 21
3106.88
  0
LINE
  8
0
 10
48.7031
 20
3106.88
 11
48.2361
 21
3106.7
  0
LINE
  8
0
 10
48.2361
 20
3106.7
 11
47.7495
 21
3106.57
  0
LINE
  8
0
 10
47.7495
 20
3106.57
 11
47.2512
 21
3106.51
  0
LINE
  8
0
 10
47.2512
 20
3106.51
 11
-47.2512
 21
3106.51
  0
LINE
  8
0
 10
48.4369
 20
2946.09
 11
49.0451
 21
2946.24
  0
LINE
  8
0
 10
49.0451
 20
2946.24
 11
49.6289
 21
2946.48
  0
LINE
  8
0
 10
49.6289
 20
2946.48
 11
50.1791
 21
2946.78
  0
LINE
  8
0
 10
50.1791
 20
2946.78
 11
50.6871
 21
2947.15
  0
LINE
  8
0
 10
50.6871
 20
2947.15
 11
51.1448
 21
2947.58
  0
LINE
  8
0
 10
51.1448
 20
2947.58
 11
51.5451
 21
2948.06
  0
LINE
  8
0
 10
51.5451
 20
2948.06
 11
51.8815
 21
2948.59
  0
LINE
  8
0
 10
51.8815
 20
2948.59
 11
52.1489
 21
2949.16
  0
LINE
  8
0
 10
52.1489
 20
2949.16
 11
52.3429
 21
2949.76
  0
LINE
  8
0
 10
52.3429
 20
2949.76
 11
52.4606
 21
2950.37
  0
LINE
  8
0
 10
52.4606
 20
2950.37
 11
52.5
 21
2951
  0
LINE
  8
0
 10
52.5
 20
2951
 11
52.5
 21
3091
  0
LINE
  8
0
 10
52.5
 20
3091
 11
52.4606
 21
3091.63
  0
LINE
  8
0
 10
52.4606
 20
3091.63
 11
52.3429
 21
3092.24
  0
LINE
  8
0
 10
52.3429
 20
3092.24
 11
52.1489
 21
3092.84
  0
LINE
  8
0
 10
52.1489
 20
3092.84
 11
51.8815
 21
3093.41
  0
LINE
  8
0
 10
51.8815
 20
3093.41
 11
51.5451
 21
3093.94
  0
LINE
  8
0
 10
51.5451
 20
3093.94
 11
51.1448
 21
3094.42
  0
LINE
  8
0
 10
51.1448
 20
3094.42
 11
50.6871
 21
3094.85
  0
LINE
  8
0
 10
50.6871
 20
3094.85
 11
50.1791
 21
3095.22
  0
LINE
  8
0
 10
50.1791
 20
3095.22
 11
49.6289
 21
3095.52
  0
LINE
  8
0
 10
49.6289
 20
3095.52
 11
49.0451
 21
3095.76
  0
LINE
  8
0
 10
49.0451
 20
3095.76
 11
48.4369
 21
3095.91
  0
LINE
  8
0
 10
48.4369
 20
3095.91
 11
47.8139
 21
3095.99
  0
LINE
  8
0
 10
47.8139
 20
3095.99
 11
-47.8139
 21
3095.99
  0
LINE
  8
0
 10
-47.8139
 20
3095.99
 11
-48.4369
 21
3095.91
  0
LINE
  8
0
 10
-48.4369
 20
3095.91
 11
-49.0451
 21
3095.76
  0
LINE
  8
0
 10
-49.0451
 20
3095.76
 11
-49.6289
 21
3095.52
  0
LINE
  8
0
 10
-49.6289
 20
3095.52
 11
-50.1791
 21
3095.22
  0
LINE
  8
0
 10
-50.1791
 20
3095.22
 11
-50.6871
 21
3094.85
  0
LINE
  8
0
 10
-50.6871
 20
3094.85
 11
-51.1448
 21
3094.42
  0
LINE
  8
0
 10
-51.1448
 20
3094.42
 11
-51.5451
 21
3093.94
  0
LINE
  8
0
 10
-51.5451
 20
3093.94
 11
-51.8815
 21
3093.41
  0
LINE
  8
0
 10
-51.8815
 20
3093.41
 11
-52.1489
 21
3092.84
  0
LINE
  8
0
 10
-52.1489
 20
3092.84
 11
-52.3429
 21
3092.24
  0
LINE
  8
0
 10
-52.3429
 20
3092.24
 11
-52.4606
 21
3091.63
  0
LINE
  8
0
 10
-52.4606
 20
3091.63
 11
-52.5
 21
3091
  0
LINE
  8
0
 10
-52.5
 20
3091
 11
-52.5
 21
2951
  0
LINE
  8
0
 10
-52.5
 20
2951
 11
-52.4606
 21
2950.37
  0
LINE
  8
0
 10
-52.4606
 20
2950.37
 11
-52.3429
 21
2949.76
  0
LINE
  8
0
 10
-52.3429
 20
2949.76
 11
-52.1489
 21
2949.16
  0
LINE
  8
0
 10
-52.1489
 20
2949.16
 11
-51.8815
 21
2948.59
  0
LINE
  8
0
 10
-51.8815
 20
2948.59
 11
-51.5451
 21
2948.06
  0
LINE
  8
0
 10
-51.5451
 20
2948.06
 11
-51.1448
 21
2947.58
  0
LINE
  8
0
 10
-51.1448
 20
2947.58
 11
-50.6871
 21
2947.15
  0
LINE
  8
0
 10
-50.6871
 20
2947.15
 11
-50.1791
 21
2946.78
  0
LINE
  8
0
 10
-50.1791
 20
2946.78
 11
-49.6289
 21
2946.48
  0
LINE
  8
0
 10
-49.6289
 20
2946.48
 11
-49.0451
 21
2946.24
  0
LINE
  8
0
 10
-49.0451
 20
2946.24
 11
-48.4369
 21
2946.09
  0
LINE
  8
0
 10
-48.4369
 20
2946.09
 11
-47.8139
 21
2946.01
  0
LINE
  8
0
 10
-47.8139
 20
2946.01
 11
47.8139
 21
2946.01
  0
LINE
  8
0
 10
47.8139
 20
2946.01
 11
48.4369
 21
2946.09
  0
LINE
  8
0
 10
-47.2512
 20
2947.51
 11
-47.7495
 21
2947.57
  0
LINE
  8
0
 10
-47.7495
 20
2947.57
 11
-48.2361
 21
2947.7
  0
LINE
  8
0
 10
-48.2361
 20
2947.7
 11
-48.7031
 21
2947.88
  0
LINE
  8
0
 10
-48.7031
 20
2947.88
 11
-49.1433
 21
2948.12
  0
LINE
  8
0
 10
-49.1433
 20
2948.12
 11
-49.5497
 21
2948.42
  0
LINE
  8
0
 10
-49.5497
 20
2948.42
 11
-49.9159
 21
2948.76
  0
LINE
  8
0
 10
-49.9159
 20
2948.76
 11
-50.2361
 21
2949.15
  0
LINE
  8
0
 10
-50.2361
 20
2949.15
 11
-50.5052
 21
2949.57
  0
LINE
  8
0
 10
-50.5052
 20
2949.57
 11
-50.7191
 21
2950.03
  0
LINE
  8
0
 10
-50.7191
 20
2950.03
 11
-50.8743
 21
2950.51
  0
LINE
  8
0
 10
-50.8743
 20
2950.51
 11
-50.9685
 21
2951
  0
LINE
  8
0
 10
-50.9685
 20
2951
 11
-51
 21
2951.5
  0
LINE
  8
0
 10
-51
 20
2951.5
 11
-51
 21
3090.5
  0
LINE
  8
0
 10
-51
 20
3090.5
 11
-50.9685
 21
3091
  0
LINE
  8
0
 10
-50.9685
 20
3091
 11
-50.8743
 21
3091.49
  0
LINE
  8
0
 10
-50.8743
 20
3091.49
 11
-50.7191
 21
3091.97
  0
LINE
  8
0
 10
-50.7191
 20
3091.97
 11
-50.5052
 21
3092.43
  0
LINE
  8
0
 10
-50.5052
 20
3092.43
 11
-50.2361
 21
3092.85
  0
LINE
  8
0
 10
-50.2361
 20
3092.85
 11
-49.9159
 21
3093.24
  0
LINE
  8
0
 10
-49.9159
 20
3093.24
 11
-49.5497
 21
3093.58
  0
LINE
  8
0
 10
-49.5497
 20
3093.58
 11
-49.1433
 21
3093.88
  0
LINE
  8
0
 10
-49.1433
 20
3093.88
 11
-48.7031
 21
3094.12
  0
LINE
  8
0
 10
-48.7031
 20
3094.12
 11
-48.2361
 21
3094.3
  0
LINE
  8
0
 10
-48.2361
 20
3094.3
 11
-47.7495
 21
3094.43
  0
LINE
  8
0
 10
-47.7495
 20
3094.43
 11
-47.2512
 21
3094.49
  0
LINE
  8
0
 10
-47.2512
 20
3094.49
 11
47.2512
 21
3094.49
  0
LINE
  8
0
 10
47.2512
 20
3094.49
 11
47.7495
 21
3094.43
  0
LINE
  8
0
 10
47.7495
 20
3094.43
 11
48.2361
 21
3094.3
  0
LINE
  8
0
 10
48.2361
 20
3094.3
 11
48.7031
 21
3094.12
  0
LINE
  8
0
 10
48.7031
 20
3094.12
 11
49.1433
 21
3093.88
  0
LINE
  8
0
 10
49.1433
 20
3093.88
 11
49.5497
 21
3093.58
  0
LINE
  8
0
 10
49.5497
 20
3093.58
 11
49.9159
 21
3093.24
  0
LINE
  8
0
 10
49.9159
 20
3093.24
 11
50.2361
 21
3092.85
  0
LINE
  8
0
 10
50.2361
 20
3092.85
 11
50.5052
 21
3092.43
  0
LINE
  8
0
 10
50.5052
 20
3092.43
 11
50.7191
 21
3091.97
  0
LINE
  8
0
 10
50.7191
 20
3091.97
 11
50.8743
 21
3091.49
  0
LINE
  8
0
 10
50.8743
 20
3091.49
 11
50.9685
 21
3091
  0
LINE
  8
0
 10
50.9685
 20
3091
 11
51
 21
3090.5
  0
LINE
  8
0
 10
51
 20
3090.5
 11
51
 21
2951.5
  0
LINE
  8
0
 10
51
 20
2951.5
 11
50.9685
 21
2951
  0
LINE
  8
0
 10
50.9685
 20
2951
 11
50.8743
 21
2950.51
  0
LINE
  8
0
 10
50.8743
 20
2950.51
 11
50.7191
 21
2950.03
  0
LINE
  8
0
 10
50.7191
 20
2950.03
 11
50.5052
 21
2949.57
  0
LINE
  8
0
 10
50.5052
 20
2949.57
 11
50.2361
 21
2949.15
  0
LINE
  8
0
 10
50.2361
 20
2949.15
 11
49.9159
 21
2948.76
  0
LINE
  8
0
 10
49.9159
 20
2948.76
 11
49.5497
 21
2948.42
  0
LINE
  8
0
 10
49.5497
 20
2948.42
 11
49.1433
 21
2948.12
  0
LINE
  8
0
 10
49.1433
 20
2948.12
 11
48.7031
 21
2947.88
  0
LINE
  8
0
 10
48.7031
 20
2947.88
 11
48.2361
 21
2947.7
  0
LINE
  8
0
 10
48.2361
 20
2947.7
 11
47.7495
 21
2947.57
  0
LINE
  8
0
 10
47.7495
 20
2947.57
 11
47.2512
 21
2947.51
  0
LINE
  8
0
 10
47.2512
 20
2947.51
 11
-47.2512
 21
2947.51
  0
LINE
  8
0
 10
48.4369
 20
2787.09
 11
49.0451
 21
2787.24
  0
LINE
  8
0
 10
49.0451
 20
2787.24
 11
49.6289
 21
2787.48
  0
LINE
  8
0
 10
49.6289
 20
2787.48
 11
50.1791
 21
2787.78
  0
LINE
  8
0
 10
50.1791
 20
2787.78
 11
50.6871
 21
2788.15
  0
LINE
  8
0
 10
50.6871
 20
2788.15
 11
51.1448
 21
2788.58
  0
LINE
  8
0
 10
51.1448
 20
2788.58
 11
51.5451
 21
2789.06
  0
LINE
  8
0
 10
51.5451
 20
2789.06
 11
51.8815
 21
2789.59
  0
LINE
  8
0
 10
51.8815
 20
2789.59
 11
52.1489
 21
2790.16
  0
LINE
  8
0
 10
52.1489
 20
2790.16
 11
52.3429
 21
2790.76
  0
LINE
  8
0
 10
52.3429
 20
2790.76
 11
52.4606
 21
2791.37
  0
LINE
  8
0
 10
52.4606
 20
2791.37
 11
52.5
 21
2792
  0
LINE
  8
0
 10
52.5
 20
2792
 11
52.5
 21
2932
  0
LINE
  8
0
 10
52.5
 20
2932
 11
52.4606
 21
2932.63
  0
LINE
  8
0
 10
52.4606
 20
2932.63
 11
52.3429
 21
2933.24
  0
LINE
  8
0
 10
52.3429
 20
2933.24
 11
52.1489
 21
2933.84
  0
LINE
  8
0
 10
52.1489
 20
2933.84
 11
51.8815
 21
2934.41
  0
LINE
  8
0
 10
51.8815
 20
2934.41
 11
51.5451
 21
2934.94
  0
LINE
  8
0
 10
51.5451
 20
2934.94
 11
51.1448
 21
2935.42
  0
LINE
  8
0
 10
51.1448
 20
2935.42
 11
50.6871
 21
2935.85
  0
LINE
  8
0
 10
50.6871
 20
2935.85
 11
50.1791
 21
2936.22
  0
LINE
  8
0
 10
50.1791
 20
2936.22
 11
49.6289
 21
2936.52
  0
LINE
  8
0
 10
49.6289
 20
2936.52
 11
49.0451
 21
2936.76
  0
LINE
  8
0
 10
49.0451
 20
2936.76
 11
48.4369
 21
2936.91
  0
LINE
  8
0
 10
48.4369
 20
2936.91
 11
47.8139
 21
2936.99
  0
LINE
  8
0
 10
47.8139
 20
2936.99
 11
-47.8139
 21
2936.99
  0
LINE
  8
0
 10
-47.8139
 20
2936.99
 11
-48.4369
 21
2936.91
  0
LINE
  8
0
 10
-48.4369
 20
2936.91
 11
-49.0451
 21
2936.76
  0
LINE
  8
0
 10
-49.0451
 20
2936.76
 11
-49.6289
 21
2936.52
  0
LINE
  8
0
 10
-49.6289
 20
2936.52
 11
-50.1791
 21
2936.22
  0
LINE
  8
0
 10
-50.1791
 20
2936.22
 11
-50.6871
 21
2935.85
  0
LINE
  8
0
 10
-50.6871
 20
2935.85
 11
-51.1448
 21
2935.42
  0
LINE
  8
0
 10
-51.1448
 20
2935.42
 11
-51.5451
 21
2934.94
  0
LINE
  8
0
 10
-51.5451
 20
2934.94
 11
-51.8815
 21
2934.41
  0
LINE
  8
0
 10
-51.8815
 20
2934.41
 11
-52.1489
 21
2933.84
  0
LINE
  8
0
 10
-52.1489
 20
2933.84
 11
-52.3429
 21
2933.24
  0
LINE
  8
0
 10
-52.3429
 20
2933.24
 11
-52.4606
 21
2932.63
  0
LINE
  8
0
 10
-52.4606
 20
2932.63
 11
-52.5
 21
2932
  0
LINE
  8
0
 10
-52.5
 20
2932
 11
-52.5
 21
2792
  0
LINE
  8
0
 10
-52.5
 20
2792
 11
-52.4606
 21
2791.37
  0
LINE
  8
0
 10
-52.4606
 20
2791.37
 11
-52.3429
 21
2790.76
  0
LINE
  8
0
 10
-52.3429
 20
2790.76
 11
-52.1489
 21
2790.16
  0
LINE
  8
0
 10
-52.1489
 20
2790.16
 11
-51.8815
 21
2789.59
  0
LINE
  8
0
 10
-51.8815
 20
2789.59
 11
-51.5451
 21
2789.06
  0
LINE
  8
0
 10
-51.5451
 20
2789.06
 11
-51.1448
 21
2788.58
  0
LINE
  8
0
 10
-51.1448
 20
2788.58
 11
-50.6871
 21
2788.15
  0
LINE
  8
0
 10
-50.6871
 20
2788.15
 11
-50.1791
 21
2787.78
  0
LINE
  8
0
 10
-50.1791
 20
2787.78
 11
-49.6289
 21
2787.48
  0
LINE
  8
0
 10
-49.6289
 20
2787.48
 11
-49.0451
 21
2787.24
  0
LINE
  8
0
 10
-49.0451
 20
2787.24
 11
-48.4369
 21
2787.09
  0
LINE
  8
0
 10
-48.4369
 20
2787.09
 11
-47.8139
 21
2787.01
  0
LINE
  8
0
 10
-47.8139
 20
2787.01
 11
47.8139
 21
2787.01
  0
LINE
  8
0
 10
47.8139
 20
2787.01
 11
48.4369
 21
2787.09
  0
LINE
  8
0
 10
-47.2512
 20
2788.51
 11
-47.7495
 21
2788.57
  0
LINE
  8
0
 10
-47.7495
 20
2788.57
 11
-48.2361
 21
2788.7
  0
LINE
  8
0
 10
-48.2361
 20
2788.7
 11
-48.7031
 21
2788.88
  0
LINE
  8
0
 10
-48.7031
 20
2788.88
 11
-49.1433
 21
2789.12
  0
LINE
  8
0
 10
-49.1433
 20
2789.12
 11
-49.5497
 21
2789.42
  0
LINE
  8
0
 10
-49.5497
 20
2789.42
 11
-49.9159
 21
2789.76
  0
LINE
  8
0
 10
-49.9159
 20
2789.76
 11
-50.2361
 21
2790.15
  0
LINE
  8
0
 10
-50.2361
 20
2790.15
 11
-50.5052
 21
2790.57
  0
LINE
  8
0
 10
-50.5052
 20
2790.57
 11
-50.7191
 21
2791.03
  0
LINE
  8
0
 10
-50.7191
 20
2791.03
 11
-50.8743
 21
2791.51
  0
LINE
  8
0
 10
-50.8743
 20
2791.51
 11
-50.9685
 21
2792
  0
LINE
  8
0
 10
-50.9685
 20
2792
 11
-51
 21
2792.5
  0
LINE
  8
0
 10
-51
 20
2792.5
 11
-51
 21
2931.5
  0
LINE
  8
0
 10
-51
 20
2931.5
 11
-50.9685
 21
2932
  0
LINE
  8
0
 10
-50.9685
 20
2932
 11
-50.8743
 21
2932.49
  0
LINE
  8
0
 10
-50.8743
 20
2932.49
 11
-50.7191
 21
2932.97
  0
LINE
  8
0
 10
-50.7191
 20
2932.97
 11
-50.5052
 21
2933.43
  0
LINE
  8
0
 10
-50.5052
 20
2933.43
 11
-50.2361
 21
2933.85
  0
LINE
  8
0
 10
-50.2361
 20
2933.85
 11
-49.9159
 21
2934.24
  0
LINE
  8
0
 10
-49.9159
 20
2934.24
 11
-49.5497
 21
2934.58
  0
LINE
  8
0
 10
-49.5497
 20
2934.58
 11
-49.1433
 21
2934.88
  0
LINE
  8
0
 10
-49.1433
 20
2934.88
 11
-48.7031
 21
2935.12
  0
LINE
  8
0
 10
-48.7031
 20
2935.12
 11
-48.2361
 21
2935.3
  0
LINE
  8
0
 10
-48.2361
 20
2935.3
 11
-47.7495
 21
2935.43
  0
LINE
  8
0
 10
-47.7495
 20
2935.43
 11
-47.2512
 21
2935.49
  0
LINE
  8
0
 10
-47.2512
 20
2935.49
 11
47.2512
 21
2935.49
  0
LINE
  8
0
 10
47.2512
 20
2935.49
 11
47.7495
 21
2935.43
  0
LINE
  8
0
 10
47.7495
 20
2935.43
 11
48.2361
 21
2935.3
  0
LINE
  8
0
 10
48.2361
 20
2935.3
 11
48.7031
 21
2935.12
  0
LINE
  8
0
 10
48.7031
 20
2935.12
 11
49.1433
 21
2934.88
  0
LINE
  8
0
 10
49.1433
 20
2934.88
 11
49.5497
 21
2934.58
  0
LINE
  8
0
 10
49.5497
 20
2934.58
 11
49.9159
 21
2934.24
  0
LINE
  8
0
 10
49.9159
 20
2934.24
 11
50.2361
 21
2933.85
  0
LINE
  8
0
 10
50.2361
 20
2933.85
 11
50.5052
 21
2933.43
  0
LINE
  8
0
 10
50.5052
 20
2933.43
 11
50.7191
 21
2932.97
  0
LINE
  8
0
 10
50.7191
 20
2932.97
 11
50.8743
 21
2932.49
  0
LINE
  8
0
 10
50.8743
 20
2932.49
 11
50.9685
 21
2932
  0
LINE
  8
0
 10
50.9685
 20
2932
 11
51
 21
2931.5
  0
LINE
  8
0
 10
51
 20
2931.5
 11
51
 21
2792.5
  0
LINE
  8
0
 10
51
 20
2792.5
 11
50.9685
 21
2792
  0
LINE
  8
0
 10
50.9685
 20
2792
 11
50.8743
 21
2791.51
  0
LINE
  8
0
 10
50.8743
 20
2791.51
 11
50.7191
 21
2791.03
  0
LINE
  8
0
 10
50.7191
 20
2791.03
 11
50.5052
 21
2790.57
  0
LINE
  8
0
 10
50.5052
 20
2790.57
 11
50.2361
 21
2790.15
  0
LINE
  8
0
 10
50.2361
 20
2790.15
 11
49.9159
 21
2789.76
  0
LINE
  8
0
 10
49.9159
 20
2789.76
 11
49.5497
 21
2789.42
  0
LINE
  8
0
 10
49.5497
 20
2789.42
 11
49.1433
 21
2789.12
  0
LINE
  8
0
 10
49.1433
 20
2789.12
 11
48.7031
 21
2788.88
  0
LINE
  8
0
 10
48.7031
 20
2788.88
 11
48.2361
 21
2788.7
  0
LINE
  8
0
 10
48.2361
 20
2788.7
 11
47.7495
 21
2788.57
  0
LINE
  8
0
 10
47.7495
 20
2788.57
 11
47.2512
 21
2788.51
  0
LINE
  8
0
 10
47.2512
 20
2788.51
 11
-47.2512
 21
2788.51
  0
LINE
  8
0
 10
48.4369
 20
2628.09
 11
49.0451
 21
2628.24
  0
LINE
  8
0
 10
49.0451
 20
2628.24
 11
49.6289
 21
2628.48
  0
LINE
  8
0
 10
49.6289
 20
2628.48
 11
50.1791
 21
2628.78
  0
LINE
  8
0
 10
50.1791
 20
2628.78
 11
50.6871
 21
2629.15
  0
LINE
  8
0
 10
50.6871
 20
2629.15
 11
51.1448
 21
2629.58
  0
LINE
  8
0
 10
51.1448
 20
2629.58
 11
51.5451
 21
2630.06
  0
LINE
  8
0
 10
51.5451
 20
2630.06
 11
51.8815
 21
2630.59
  0
LINE
  8
0
 10
51.8815
 20
2630.59
 11
52.1489
 21
2631.16
  0
LINE
  8
0
 10
52.1489
 20
2631.16
 11
52.3429
 21
2631.76
  0
LINE
  8
0
 10
52.3429
 20
2631.76
 11
52.4606
 21
2632.37
  0
LINE
  8
0
 10
52.4606
 20
2632.37
 11
52.5
 21
2633
  0
LINE
  8
0
 10
52.5
 20
2633
 11
52.5
 21
2773
  0
LINE
  8
0
 10
52.5
 20
2773
 11
52.4606
 21
2773.63
  0
LINE
  8
0
 10
52.4606
 20
2773.63
 11
52.3429
 21
2774.24
  0
LINE
  8
0
 10
52.3429
 20
2774.24
 11
52.1489
 21
2774.84
  0
LINE
  8
0
 10
52.1489
 20
2774.84
 11
51.8815
 21
2775.41
  0
LINE
  8
0
 10
51.8815
 20
2775.41
 11
51.5451
 21
2775.94
  0
LINE
  8
0
 10
51.5451
 20
2775.94
 11
51.1448
 21
2776.42
  0
LINE
  8
0
 10
51.1448
 20
2776.42
 11
50.6871
 21
2776.85
  0
LINE
  8
0
 10
50.6871
 20
2776.85
 11
50.1791
 21
2777.22
  0
LINE
  8
0
 10
50.1791
 20
2777.22
 11
49.6289
 21
2777.52
  0
LINE
  8
0
 10
49.6289
 20
2777.52
 11
49.0451
 21
2777.76
  0
LINE
  8
0
 10
49.0451
 20
2777.76
 11
48.4369
 21
2777.91
  0
LINE
  8
0
 10
48.4369
 20
2777.91
 11
47.8139
 21
2777.99
  0
LINE
  8
0
 10
47.8139
 20
2777.99
 11
-47.8139
 21
2777.99
  0
LINE
  8
0
 10
-47.8139
 20
2777.99
 11
-48.4369
 21
2777.91
  0
LINE
  8
0
 10
-48.4369
 20
2777.91
 11
-49.0451
 21
2777.76
  0
LINE
  8
0
 10
-49.0451
 20
2777.76
 11
-49.6289
 21
2777.52
  0
LINE
  8
0
 10
-49.6289
 20
2777.52
 11
-50.1791
 21
2777.22
  0
LINE
  8
0
 10
-50.1791
 20
2777.22
 11
-50.6871
 21
2776.85
  0
LINE
  8
0
 10
-50.6871
 20
2776.85
 11
-51.1448
 21
2776.42
  0
LINE
  8
0
 10
-51.1448
 20
2776.42
 11
-51.5451
 21
2775.94
  0
LINE
  8
0
 10
-51.5451
 20
2775.94
 11
-51.8815
 21
2775.41
  0
LINE
  8
0
 10
-51.8815
 20
2775.41
 11
-52.1489
 21
2774.84
  0
LINE
  8
0
 10
-52.1489
 20
2774.84
 11
-52.3429
 21
2774.24
  0
LINE
  8
0
 10
-52.3429
 20
2774.24
 11
-52.4606
 21
2773.63
  0
LINE
  8
0
 10
-52.4606
 20
2773.63
 11
-52.5
 21
2773
  0
LINE
  8
0
 10
-52.5
 20
2773
 11
-52.5
 21
2633
  0
LINE
  8
0
 10
-52.5
 20
2633
 11
-52.4606
 21
2632.37
  0
LINE
  8
0
 10
-52.4606
 20
2632.37
 11
-52.3429
 21
2631.76
  0
LINE
  8
0
 10
-52.3429
 20
2631.76
 11
-52.1489
 21
2631.16
  0
LINE
  8
0
 10
-52.1489
 20
2631.16
 11
-51.8815
 21
2630.59
  0
LINE
  8
0
 10
-51.8815
 20
2630.59
 11
-51.5451
 21
2630.06
  0
LINE
  8
0
 10
-51.5451
 20
2630.06
 11
-51.1448
 21
2629.58
  0
LINE
  8
0
 10
-51.1448
 20
2629.58
 11
-50.6871
 21
2629.15
  0
LINE
  8
0
 10
-50.6871
 20
2629.15
 11
-50.1791
 21
2628.78
  0
LINE
  8
0
 10
-50.1791
 20
2628.78
 11
-49.6289
 21
2628.48
  0
LINE
  8
0
 10
-49.6289
 20
2628.48
 11
-49.0451
 21
2628.24
  0
LINE
  8
0
 10
-49.0451
 20
2628.24
 11
-48.4369
 21
2628.09
  0
LINE
  8
0
 10
-48.4369
 20
2628.09
 11
-47.8139
 21
2628.01
  0
LINE
  8
0
 10
-47.8139
 20
2628.01
 11
47.8139
 21
2628.01
  0
LINE
  8
0
 10
47.8139
 20
2628.01
 11
48.4369
 21
2628.09
  0
LINE
  8
0
 10
-47.2512
 20
2629.51
 11
-47.7495
 21
2629.57
  0
LINE
  8
0
 10
-47.7495
 20
2629.57
 11
-48.2361
 21
2629.7
  0
LINE
  8
0
 10
-48.2361
 20
2629.7
 11
-48.7031
 21
2629.88
  0
LINE
  8
0
 10
-48.7031
 20
2629.88
 11
-49.1433
 21
2630.12
  0
LINE
  8
0
 10
-49.1433
 20
2630.12
 11
-49.5497
 21
2630.42
  0
LINE
  8
0
 10
-49.5497
 20
2630.42
 11
-49.9159
 21
2630.76
  0
LINE
  8
0
 10
-49.9159
 20
2630.76
 11
-50.2361
 21
2631.15
  0
LINE
  8
0
 10
-50.2361
 20
2631.15
 11
-50.5052
 21
2631.57
  0
LINE
  8
0
 10
-50.5052
 20
2631.57
 11
-50.7191
 21
2632.03
  0
LINE
  8
0
 10
-50.7191
 20
2632.03
 11
-50.8743
 21
2632.51
  0
LINE
  8
0
 10
-50.8743
 20
2632.51
 11
-50.9685
 21
2633
  0
LINE
  8
0
 10
-50.9685
 20
2633
 11
-51
 21
2633.5
  0
LINE
  8
0
 10
-51
 20
2633.5
 11
-51
 21
2772.5
  0
LINE
  8
0
 10
-51
 20
2772.5
 11
-50.9685
 21
2773
  0
LINE
  8
0
 10
-50.9685
 20
2773
 11
-50.8743
 21
2773.49
  0
LINE
  8
0
 10
-50.8743
 20
2773.49
 11
-50.7191
 21
2773.97
  0
LINE
  8
0
 10
-50.7191
 20
2773.97
 11
-50.5052
 21
2774.43
  0
LINE
  8
0
 10
-50.5052
 20
2774.43
 11
-50.2361
 21
2774.85
  0
LINE
  8
0
 10
-50.2361
 20
2774.85
 11
-49.9159
 21
2775.24
  0
LINE
  8
0
 10
-49.9159
 20
2775.24
 11
-49.5497
 21
2775.58
  0
LINE
  8
0
 10
-49.5497
 20
2775.58
 11
-49.1433
 21
2775.88
  0
LINE
  8
0
 10
-49.1433
 20
2775.88
 11
-48.7031
 21
2776.12
  0
LINE
  8
0
 10
-48.7031
 20
2776.12
 11
-48.2361
 21
2776.3
  0
LINE
  8
0
 10
-48.2361
 20
2776.3
 11
-47.7495
 21
2776.43
  0
LINE
  8
0
 10
-47.7495
 20
2776.43
 11
-47.2512
 21
2776.49
  0
LINE
  8
0
 10
-47.2512
 20
2776.49
 11
47.2512
 21
2776.49
  0
LINE
  8
0
 10
47.2512
 20
2776.49
 11
47.7495
 21
2776.43
  0
LINE
  8
0
 10
47.7495
 20
2776.43
 11
48.2361
 21
2776.3
  0
LINE
  8
0
 10
48.2361
 20
2776.3
 11
48.7031
 21
2776.12
  0
LINE
  8
0
 10
48.7031
 20
2776.12
 11
49.1433
 21
2775.88
  0
LINE
  8
0
 10
49.1433
 20
2775.88
 11
49.5497
 21
2775.58
  0
LINE
  8
0
 10
49.5497
 20
2775.58
 11
49.9159
 21
2775.24
  0
LINE
  8
0
 10
49.9159
 20
2775.24
 11
50.2361
 21
2774.85
  0
LINE
  8
0
 10
50.2361
 20
2774.85
 11
50.5052
 21
2774.43
  0
LINE
  8
0
 10
50.5052
 20
2774.43
 11
50.7191
 21
2773.97
  0
LINE
  8
0
 10
50.7191
 20
2773.97
 11
50.8743
 21
2773.49
  0
LINE
  8
0
 10
50.8743
 20
2773.49
 11
50.9685
 21
2773
  0
LINE
  8
0
 10
50.9685
 20
2773
 11
51
 21
2772.5
  0
LINE
  8
0
 10
51
 20
2772.5
 11
51
 21
2633.5
  0
LINE
  8
0
 10
51
 20
2633.5
 11
50.9685
 21
2633
  0
LINE
  8
0
 10
50.9685
 20
2633
 11
50.8743
 21
2632.51
  0
LINE
  8
0
 10
50.8743
 20
2632.51
 11
50.7191
 21
2632.03
  0
LINE
  8
0
 10
50.7191
 20
2632.03
 11
50.5052
 21
2631.57
  0
LINE
  8
0
 10
50.5052
 20
2631.57
 11
50.2361
 21
2631.15
  0
LINE
  8
0
 10
50.2361
 20
2631.15
 11
49.9159
 21
2630.76
  0
LINE
  8
0
 10
49.9159
 20
2630.76
 11
49.5497
 21
2630.42
  0
LINE
  8
0
 10
49.5497
 20
2630.42
 11
49.1433
 21
2630.12
  0
LINE
  8
0
 10
49.1433
 20
2630.12
 11
48.7031
 21
2629.88
  0
LINE
  8
0
 10
48.7031
 20
2629.88
 11
48.2361
 21
2629.7
  0
LINE
  8
0
 10
48.2361
 20
2629.7
 11
47.7495
 21
2629.57
  0
LINE
  8
0
 10
47.7495
 20
2629.57
 11
47.2512
 21
2629.51
  0
LINE
  8
0
 10
47.2512
 20
2629.51
 11
-47.2512
 21
2629.51
  0
LINE
  8
0
 10
48.4369
 20
2469.09
 11
49.0451
 21
2469.24
  0
LINE
  8
0
 10
49.0451
 20
2469.24
 11
49.6289
 21
2469.48
  0
LINE
  8
0
 10
49.6289
 20
2469.48
 11
50.1791
 21
2469.78
  0
LINE
  8
0
 10
50.1791
 20
2469.78
 11
50.6871
 21
2470.15
  0
LINE
  8
0
 10
50.6871
 20
2470.15
 11
51.1448
 21
2470.58
  0
LINE
  8
0
 10
51.1448
 20
2470.58
 11
51.5451
 21
2471.06
  0
LINE
  8
0
 10
51.5451
 20
2471.06
 11
51.8815
 21
2471.59
  0
LINE
  8
0
 10
51.8815
 20
2471.59
 11
52.1489
 21
2472.16
  0
LINE
  8
0
 10
52.1489
 20
2472.16
 11
52.3429
 21
2472.76
  0
LINE
  8
0
 10
52.3429
 20
2472.76
 11
52.4606
 21
2473.37
  0
LINE
  8
0
 10
52.4606
 20
2473.37
 11
52.5
 21
2474
  0
LINE
  8
0
 10
52.5
 20
2474
 11
52.5
 21
2614
  0
LINE
  8
0
 10
52.5
 20
2614
 11
52.4606
 21
2614.63
  0
LINE
  8
0
 10
52.4606
 20
2614.63
 11
52.3429
 21
2615.24
  0
LINE
  8
0
 10
52.3429
 20
2615.24
 11
52.1489
 21
2615.84
  0
LINE
  8
0
 10
52.1489
 20
2615.84
 11
51.8815
 21
2616.41
  0
LINE
  8
0
 10
51.8815
 20
2616.41
 11
51.5451
 21
2616.94
  0
LINE
  8
0
 10
51.5451
 20
2616.94
 11
51.1448
 21
2617.42
  0
LINE
  8
0
 10
51.1448
 20
2617.42
 11
50.6871
 21
2617.85
  0
LINE
  8
0
 10
50.6871
 20
2617.85
 11
50.1791
 21
2618.22
  0
LINE
  8
0
 10
50.1791
 20
2618.22
 11
49.6289
 21
2618.52
  0
LINE
  8
0
 10
49.6289
 20
2618.52
 11
49.0451
 21
2618.76
  0
LINE
  8
0
 10
49.0451
 20
2618.76
 11
48.4369
 21
2618.91
  0
LINE
  8
0
 10
48.4369
 20
2618.91
 11
47.8139
 21
2618.99
  0
LINE
  8
0
 10
47.8139
 20
2618.99
 11
-47.8139
 21
2618.99
  0
LINE
  8
0
 10
-47.8139
 20
2618.99
 11
-48.4369
 21
2618.91
  0
LINE
  8
0
 10
-48.4369
 20
2618.91
 11
-49.0451
 21
2618.76
  0
LINE
  8
0
 10
-49.0451
 20
2618.76
 11
-49.6289
 21
2618.52
  0
LINE
  8
0
 10
-49.6289
 20
2618.52
 11
-50.1791
 21
2618.22
  0
LINE
  8
0
 10
-50.1791
 20
2618.22
 11
-50.6871
 21
2617.85
  0
LINE
  8
0
 10
-50.6871
 20
2617.85
 11
-51.1448
 21
2617.42
  0
LINE
  8
0
 10
-51.1448
 20
2617.42
 11
-51.5451
 21
2616.94
  0
LINE
  8
0
 10
-51.5451
 20
2616.94
 11
-51.8815
 21
2616.41
  0
LINE
  8
0
 10
-51.8815
 20
2616.41
 11
-52.1489
 21
2615.84
  0
LINE
  8
0
 10
-52.1489
 20
2615.84
 11
-52.3429
 21
2615.24
  0
LINE
  8
0
 10
-52.3429
 20
2615.24
 11
-52.4606
 21
2614.63
  0
LINE
  8
0
 10
-52.4606
 20
2614.63
 11
-52.5
 21
2614
  0
LINE
  8
0
 10
-52.5
 20
2614
 11
-52.5
 21
2474
  0
LINE
  8
0
 10
-52.5
 20
2474
 11
-52.4606
 21
2473.37
  0
LINE
  8
0
 10
-52.4606
 20
2473.37
 11
-52.3429
 21
2472.76
  0
LINE
  8
0
 10
-52.3429
 20
2472.76
 11
-52.1489
 21
2472.16
  0
LINE
  8
0
 10
-52.1489
 20
2472.16
 11
-51.8815
 21
2471.59
  0
LINE
  8
0
 10
-51.8815
 20
2471.59
 11
-51.5451
 21
2471.06
  0
LINE
  8
0
 10
-51.5451
 20
2471.06
 11
-51.1448
 21
2470.58
  0
LINE
  8
0
 10
-51.1448
 20
2470.58
 11
-50.6871
 21
2470.15
  0
LINE
  8
0
 10
-50.6871
 20
2470.15
 11
-50.1791
 21
2469.78
  0
LINE
  8
0
 10
-50.1791
 20
2469.78
 11
-49.6289
 21
2469.48
  0
LINE
  8
0
 10
-49.6289
 20
2469.48
 11
-49.0451
 21
2469.24
  0
LINE
  8
0
 10
-49.0451
 20
2469.24
 11
-48.4369
 21
2469.09
  0
LINE
  8
0
 10
-48.4369
 20
2469.09
 11
-47.8139
 21
2469.01
  0
LINE
  8
0
 10
-47.8139
 20
2469.01
 11
47.8139
 21
2469.01
  0
LINE
  8
0
 10
47.8139
 20
2469.01
 11
48.4369
 21
2469.09
  0
LINE
  8
0
 10
-47.1954
 20
2471.39
 11
-47.5833
 21
2471.44
  0
LINE
  8
0
 10
-47.5833
 20
2471.44
 11
-47.9619
 21
2471.54
  0
LINE
  8
0
 10
-47.9619
 20
2471.54
 11
-48.3254
 21
2471.68
  0
LINE
  8
0
 10
-48.3254
 20
2471.68
 11
-48.668
 21
2471.87
  0
LINE
  8
0
 10
-48.668
 20
2471.87
 11
-48.9842
 21
2472.1
  0
LINE
  8
0
 10
-48.9842
 20
2472.1
 11
-49.2692
 21
2472.37
  0
LINE
  8
0
 10
-49.2692
 20
2472.37
 11
-49.5184
 21
2472.67
  0
LINE
  8
0
 10
-49.5184
 20
2472.67
 11
-49.7279
 21
2473
  0
LINE
  8
0
 10
-49.7279
 20
2473
 11
-49.8943
 21
2473.35
  0
LINE
  8
0
 10
-49.8943
 20
2473.35
 11
-50.0151
 21
2473.73
  0
LINE
  8
0
 10
-50.0151
 20
2473.73
 11
-50.0884
 21
2474.11
  0
LINE
  8
0
 10
-50.0884
 20
2474.11
 11
-50.1129
 21
2474.5
  0
LINE
  8
0
 10
-50.1129
 20
2474.5
 11
-50.1129
 21
2613.5
  0
LINE
  8
0
 10
-50.1129
 20
2613.5
 11
-50.0884
 21
2613.89
  0
LINE
  8
0
 10
-50.0884
 20
2613.89
 11
-50.0151
 21
2614.27
  0
LINE
  8
0
 10
-50.0151
 20
2614.27
 11
-49.8943
 21
2614.65
  0
LINE
  8
0
 10
-49.8943
 20
2614.65
 11
-49.7279
 21
2615
  0
LINE
  8
0
 10
-49.7279
 20
2615
 11
-49.5184
 21
2615.33
  0
LINE
  8
0
 10
-49.5184
 20
2615.33
 11
-49.2692
 21
2615.63
  0
LINE
  8
0
 10
-49.2692
 20
2615.63
 11
-48.9842
 21
2615.9
  0
LINE
  8
0
 10
-48.9842
 20
2615.9
 11
-48.668
 21
2616.13
  0
LINE
  8
0
 10
-48.668
 20
2616.13
 11
-48.3254
 21
2616.32
  0
LINE
  8
0
 10
-48.3254
 20
2616.32
 11
-47.9619
 21
2616.46
  0
LINE
  8
0
 10
-47.9619
 20
2616.46
 11
-47.5833
 21
2616.56
  0
LINE
  8
0
 10
-47.5833
 20
2616.56
 11
-47.1954
 21
2616.61
  0
LINE
  8
0
 10
-47.1954
 20
2616.61
 11
47.1954
 21
2616.61
  0
LINE
  8
0
 10
47.1954
 20
2616.61
 11
47.5833
 21
2616.56
  0
LINE
  8
0
 10
47.5833
 20
2616.56
 11
47.9619
 21
2616.46
  0
LINE
  8
0
 10
47.9619
 20
2616.46
 11
48.3254
 21
2616.32
  0
LINE
  8
0
 10
48.3254
 20
2616.32
 11
48.668
 21
2616.13
  0
LINE
  8
0
 10
48.668
 20
2616.13
 11
48.9842
 21
2615.9
  0
LINE
  8
0
 10
48.9842
 20
2615.9
 11
49.2692
 21
2615.63
  0
LINE
  8
0
 10
49.2692
 20
2615.63
 11
49.5184
 21
2615.33
  0
LINE
  8
0
 10
49.5184
 20
2615.33
 11
49.7279
 21
2615
  0
LINE
  8
0
 10
49.7279
 20
2615
 11
49.8943
 21
2614.65
  0
LINE
  8
0
 10
49.8943
 20
2614.65
 11
50.0151
 21
2614.27
  0
LINE
  8
0
 10
50.0151
 20
2614.27
 11
50.0884
 21
2613.89
  0
LINE
  8
0
 10
50.0884
 20
2613.89
 11
50.1129
 21
2613.5
  0
LINE
  8
0
 10
50.1129
 20
2613.5
 11
50.1129
 21
2474.5
  0
LINE
  8
0
 10
50.1129
 20
2474.5
 11
50.0884
 21
2474.11
  0
LINE
  8
0
 10
50.0884
 20
2474.11
 11
50.0151
 21
2473.73
  0
LINE
  8
0
 10
50.0151
 20
2473.73
 11
49.8943
 21
2473.35
  0
LINE
  8
0
 10
49.8943
 20
2473.35
 11
49.7279
 21
2473
  0
LINE
  8
0
 10
49.7279
 20
2473
 11
49.5184
 21
2472.67
  0
LINE
  8
0
 10
49.5184
 20
2472.67
 11
49.2692
 21
2472.37
  0
LINE
  8
0
 10
49.2692
 20
2472.37
 11
48.9842
 21
2472.1
  0
LINE
  8
0
 10
48.9842
 20
2472.1
 11
48.668
 21
2471.87
  0
LINE
  8
0
 10
48.668
 20
2471.87
 11
48.3254
 21
2471.68
  0
LINE
  8
0
 10
48.3254
 20
2471.68
 11
47.9619
 21
2471.54
  0
LINE
  8
0
 10
47.9619
 20
2471.54
 11
47.5833
 21
2471.44
  0
LINE
  8
0
 10
47.5833
 20
2471.44
 11
47.1954
 21
2471.39
  0
LINE
  8
0
 10
47.1954
 20
2471.39
 11
-47.1954
 21
2471.39
  0
LINE
  8
0
 10
48.4369
 20
2310.09
 11
49.0451
 21
2310.24
  0
LINE
  8
0
 10
49.0451
 20
2310.24
 11
49.6289
 21
2310.48
  0
LINE
  8
0
 10
49.6289
 20
2310.48
 11
50.1791
 21
2310.78
  0
LINE
  8
0
 10
50.1791
 20
2310.78
 11
50.6871
 21
2311.15
  0
LINE
  8
0
 10
50.6871
 20
2311.15
 11
51.1448
 21
2311.58
  0
LINE
  8
0
 10
51.1448
 20
2311.58
 11
51.5451
 21
2312.06
  0
LINE
  8
0
 10
51.5451
 20
2312.06
 11
51.8815
 21
2312.59
  0
LINE
  8
0
 10
51.8815
 20
2312.59
 11
52.1489
 21
2313.16
  0
LINE
  8
0
 10
52.1489
 20
2313.16
 11
52.3429
 21
2313.76
  0
LINE
  8
0
 10
52.3429
 20
2313.76
 11
52.4606
 21
2314.37
  0
LINE
  8
0
 10
52.4606
 20
2314.37
 11
52.5
 21
2315
  0
LINE
  8
0
 10
52.5
 20
2315
 11
52.5
 21
2455
  0
LINE
  8
0
 10
52.5
 20
2455
 11
52.4606
 21
2455.63
  0
LINE
  8
0
 10
52.4606
 20
2455.63
 11
52.3429
 21
2456.24
  0
LINE
  8
0
 10
52.3429
 20
2456.24
 11
52.1489
 21
2456.84
  0
LINE
  8
0
 10
52.1489
 20
2456.84
 11
51.8815
 21
2457.41
  0
LINE
  8
0
 10
51.8815
 20
2457.41
 11
51.5451
 21
2457.94
  0
LINE
  8
0
 10
51.5451
 20
2457.94
 11
51.1448
 21
2458.42
  0
LINE
  8
0
 10
51.1448
 20
2458.42
 11
50.6871
 21
2458.85
  0
LINE
  8
0
 10
50.6871
 20
2458.85
 11
50.1791
 21
2459.22
  0
LINE
  8
0
 10
50.1791
 20
2459.22
 11
49.6289
 21
2459.52
  0
LINE
  8
0
 10
49.6289
 20
2459.52
 11
49.0451
 21
2459.76
  0
LINE
  8
0
 10
49.0451
 20
2459.76
 11
48.4369
 21
2459.91
  0
LINE
  8
0
 10
48.4369
 20
2459.91
 11
47.8139
 21
2459.99
  0
LINE
  8
0
 10
47.8139
 20
2459.99
 11
-47.8139
 21
2459.99
  0
LINE
  8
0
 10
-47.8139
 20
2459.99
 11
-48.4369
 21
2459.91
  0
LINE
  8
0
 10
-48.4369
 20
2459.91
 11
-49.0451
 21
2459.76
  0
LINE
  8
0
 10
-49.0451
 20
2459.76
 11
-49.6289
 21
2459.52
  0
LINE
  8
0
 10
-49.6289
 20
2459.52
 11
-50.1791
 21
2459.22
  0
LINE
  8
0
 10
-50.1791
 20
2459.22
 11
-50.6871
 21
2458.85
  0
LINE
  8
0
 10
-50.6871
 20
2458.85
 11
-51.1448
 21
2458.42
  0
LINE
  8
0
 10
-51.1448
 20
2458.42
 11
-51.5451
 21
2457.94
  0
LINE
  8
0
 10
-51.5451
 20
2457.94
 11
-51.8815
 21
2457.41
  0
LINE
  8
0
 10
-51.8815
 20
2457.41
 11
-52.1489
 21
2456.84
  0
LINE
  8
0
 10
-52.1489
 20
2456.84
 11
-52.3429
 21
2456.24
  0
LINE
  8
0
 10
-52.3429
 20
2456.24
 11
-52.4606
 21
2455.63
  0
LINE
  8
0
 10
-52.4606
 20
2455.63
 11
-52.5
 21
2455
  0
LINE
  8
0
 10
-52.5
 20
2455
 11
-52.5
 21
2315
  0
LINE
  8
0
 10
-52.5
 20
2315
 11
-52.4606
 21
2314.37
  0
LINE
  8
0
 10
-52.4606
 20
2314.37
 11
-52.3429
 21
2313.76
  0
LINE
  8
0
 10
-52.3429
 20
2313.76
 11
-52.1489
 21
2313.16
  0
LINE
  8
0
 10
-52.1489
 20
2313.16
 11
-51.8815
 21
2312.59
  0
LINE
  8
0
 10
-51.8815
 20
2312.59
 11
-51.5451
 21
2312.06
  0
LINE
  8
0
 10
-51.5451
 20
2312.06
 11
-51.1448
 21
2311.58
  0
LINE
  8
0
 10
-51.1448
 20
2311.58
 11
-50.6871
 21
2311.15
  0
LINE
  8
0
 10
-50.6871
 20
2311.15
 11
-50.1791
 21
2310.78
  0
LINE
  8
0
 10
-50.1791
 20
2310.78
 11
-49.6289
 21
2310.48
  0
LINE
  8
0
 10
-49.6289
 20
2310.48
 11
-49.0451
 21
2310.24
  0
LINE
  8
0
 10
-49.0451
 20
2310.24
 11
-48.4369
 21
2310.09
  0
LINE
  8
0
 10
-48.4369
 20
2310.09
 11
-47.8139
 21
2310.01
  0
LINE
  8
0
 10
-47.8139
 20
2310.01
 11
47.8139
 21
2310.01
  0
LINE
  8
0
 10
47.8139
 20
2310.01
 11
48.4369
 21
2310.09
  0
LINE
  8
0
 10
-45.1341
 20
2450.37
 11
-45.4001
 21
2450.4
  0
LINE
  8
0
 10
-45.4001
 20
2450.4
 11
-45.6598
 21
2450.47
  0
LINE
  8
0
 10
-45.6598
 20
2450.47
 11
-45.9092
 21
2450.57
  0
LINE
  8
0
 10
-45.9092
 20
2450.57
 11
-46.1441
 21
2450.7
  0
LINE
  8
0
 10
-46.1441
 20
2450.7
 11
-46.3611
 21
2450.85
  0
LINE
  8
0
 10
-46.3611
 20
2450.85
 11
-46.5565
 21
2451.04
  0
LINE
  8
0
 10
-46.5565
 20
2451.04
 11
-46.7275
 21
2451.24
  0
LINE
  8
0
 10
-46.7275
 20
2451.24
 11
-46.8712
 21
2451.47
  0
LINE
  8
0
 10
-46.8712
 20
2451.47
 11
-46.9853
 21
2451.71
  0
LINE
  8
0
 10
-46.9853
 20
2451.71
 11
-47.0682
 21
2451.97
  0
LINE
  8
0
 10
-47.0682
 20
2451.97
 11
-47.1185
 21
2452.23
  0
LINE
  8
0
 10
-47.1185
 20
2452.23
 11
-47.1353
 21
2452.5
  0
LINE
  8
0
 10
-47.1353
 20
2452.5
 11
-47.1185
 21
2452.77
  0
LINE
  8
0
 10
-47.1185
 20
2452.77
 11
-47.0682
 21
2453.03
  0
LINE
  8
0
 10
-47.0682
 20
2453.03
 11
-46.9853
 21
2453.29
  0
LINE
  8
0
 10
-46.9853
 20
2453.29
 11
-46.8712
 21
2453.53
  0
LINE
  8
0
 10
-46.8712
 20
2453.53
 11
-46.7275
 21
2453.76
  0
LINE
  8
0
 10
-46.7275
 20
2453.76
 11
-46.5565
 21
2453.96
  0
LINE
  8
0
 10
-46.5565
 20
2453.96
 11
-46.3611
 21
2454.15
  0
LINE
  8
0
 10
-46.3611
 20
2454.15
 11
-46.1441
 21
2454.3
  0
LINE
  8
0
 10
-46.1441
 20
2454.3
 11
-45.9092
 21
2454.43
  0
LINE
  8
0
 10
-45.9092
 20
2454.43
 11
-45.6598
 21
2454.53
  0
LINE
  8
0
 10
-45.6598
 20
2454.53
 11
-45.4001
 21
2454.6
  0
LINE
  8
0
 10
-45.4001
 20
2454.6
 11
-45.1341
 21
2454.63
  0
LINE
  8
0
 10
-45.1341
 20
2454.63
 11
-44.8659
 21
2454.63
  0
LINE
  8
0
 10
-44.8659
 20
2454.63
 11
-44.5999
 21
2454.6
  0
LINE
  8
0
 10
-44.5999
 20
2454.6
 11
-44.3401
 21
2454.53
  0
LINE
  8
0
 10
-44.3401
 20
2454.53
 11
-44.0908
 21
2454.43
  0
LINE
  8
0
 10
-44.0908
 20
2454.43
 11
-43.8559
 21
2454.3
  0
LINE
  8
0
 10
-43.8559
 20
2454.3
 11
-43.6389
 21
2454.15
  0
LINE
  8
0
 10
-43.6389
 20
2454.15
 11
-43.4434
 21
2453.96
  0
LINE
  8
0
 10
-43.4434
 20
2453.96
 11
-43.2725
 21
2453.76
  0
LINE
  8
0
 10
-43.2725
 20
2453.76
 11
-43.1288
 21
2453.53
  0
LINE
  8
0
 10
-43.1288
 20
2453.53
 11
-43.0146
 21
2453.29
  0
LINE
  8
0
 10
-43.0146
 20
2453.29
 11
-42.9318
 21
2453.03
  0
LINE
  8
0
 10
-42.9318
 20
2453.03
 11
-42.8815
 21
2452.77
  0
LINE
  8
0
 10
-42.8815
 20
2452.77
 11
-42.8647
 21
2452.5
  0
LINE
  8
0
 10
-42.8647
 20
2452.5
 11
-42.8815
 21
2452.23
  0
LINE
  8
0
 10
-42.8815
 20
2452.23
 11
-42.9318
 21
2451.97
  0
LINE
  8
0
 10
-42.9318
 20
2451.97
 11
-43.0146
 21
2451.71
  0
LINE
  8
0
 10
-43.0146
 20
2451.71
 11
-43.1288
 21
2451.47
  0
LINE
  8
0
 10
-43.1288
 20
2451.47
 11
-43.2725
 21
2451.24
  0
LINE
  8
0
 10
-43.2725
 20
2451.24
 11
-43.4434
 21
2451.04
  0
LINE
  8
0
 10
-43.4434
 20
2451.04
 11
-43.6389
 21
2450.85
  0
LINE
  8
0
 10
-43.6389
 20
2450.85
 11
-43.8559
 21
2450.7
  0
LINE
  8
0
 10
-43.8559
 20
2450.7
 11
-44.0908
 21
2450.57
  0
LINE
  8
0
 10
-44.0908
 20
2450.57
 11
-44.3401
 21
2450.47
  0
LINE
  8
0
 10
-44.3401
 20
2450.47
 11
-44.5999
 21
2450.4
  0
LINE
  8
0
 10
-44.5999
 20
2450.4
 11
-44.8659
 21
2450.37
  0
LINE
  8
0
 10
-44.8659
 20
2450.37
 11
-45.1341
 21
2450.37
  0
LINE
  8
0
 10
44.8659
 20
2450.37
 11
44.5999
 21
2450.4
  0
LINE
  8
0
 10
44.5999
 20
2450.4
 11
44.3401
 21
2450.47
  0
LINE
  8
0
 10
44.3401
 20
2450.47
 11
44.0908
 21
2450.57
  0
LINE
  8
0
 10
44.0908
 20
2450.57
 11
43.8559
 21
2450.7
  0
LINE
  8
0
 10
43.8559
 20
2450.7
 11
43.6389
 21
2450.85
  0
LINE
  8
0
 10
43.6389
 20
2450.85
 11
43.4434
 21
2451.04
  0
LINE
  8
0
 10
43.4434
 20
2451.04
 11
43.2725
 21
2451.24
  0
LINE
  8
0
 10
43.2725
 20
2451.24
 11
43.1288
 21
2451.47
  0
LINE
  8
0
 10
43.1288
 20
2451.47
 11
43.0146
 21
2451.71
  0
LINE
  8
0
 10
43.0146
 20
2451.71
 11
42.9318
 21
2451.97
  0
LINE
  8
0
 10
42.9318
 20
2451.97
 11
42.8815
 21
2452.23
  0
LINE
  8
0
 10
42.8815
 20
2452.23
 11
42.8647
 21
2452.5
  0
LINE
  8
0
 10
42.8647
 20
2452.5
 11
42.8815
 21
2452.77
  0
LINE
  8
0
 10
42.8815
 20
2452.77
 11
42.9318
 21
2453.03
  0
LINE
  8
0
 10
42.9318
 20
2453.03
 11
43.0146
 21
2453.29
  0
LINE
  8
0
 10
43.0146
 20
2453.29
 11
43.1288
 21
2453.53
  0
LINE
  8
0
 10
43.1288
 20
2453.53
 11
43.2725
 21
2453.76
  0
LINE
  8
0
 10
43.2725
 20
2453.76
 11
43.4434
 21
2453.96
  0
LINE
  8
0
 10
43.4434
 20
2453.96
 11
43.6389
 21
2454.15
  0
LINE
  8
0
 10
43.6389
 20
2454.15
 11
43.8559
 21
2454.3
  0
LINE
  8
0
 10
43.8559
 20
2454.3
 11
44.0908
 21
2454.43
  0
LINE
  8
0
 10
44.0908
 20
2454.43
 11
44.3401
 21
2454.53
  0
LINE
  8
0
 10
44.3401
 20
2454.53
 11
44.5999
 21
2454.6
  0
LINE
  8
0
 10
44.5999
 20
2454.6
 11
44.8659
 21
2454.63
  0
LINE
  8
0
 10
44.8659
 20
2454.63
 11
45.1341
 21
2454.63
  0
LINE
  8
0
 10
45.1341
 20
2454.63
 11
45.4001
 21
2454.6
  0
LINE
  8
0
 10
45.4001
 20
2454.6
 11
45.6598
 21
2454.53
  0
LINE
  8
0
 10
45.6598
 20
2454.53
 11
45.9092
 21
2454.43
  0
LINE
  8
0
 10
45.9092
 20
2454.43
 11
46.1441
 21
2454.3
  0
LINE
  8
0
 10
46.1441
 20
2454.3
 11
46.3611
 21
2454.15
  0
LINE
  8
0
 10
46.3611
 20
2454.15
 11
46.5565
 21
2453.96
  0
LINE
  8
0
 10
46.5565
 20
2453.96
 11
46.7275
 21
2453.76
  0
LINE
  8
0
 10
46.7275
 20
2453.76
 11
46.8712
 21
2453.53
  0
LINE
  8
0
 10
46.8712
 20
2453.53
 11
46.9853
 21
2453.29
  0
LINE
  8
0
 10
46.9853
 20
2453.29
 11
47.0682
 21
2453.03
  0
LINE
  8
0
 10
47.0682
 20
2453.03
 11
47.1185
 21
2452.77
  0
LINE
  8
0
 10
47.1185
 20
2452.77
 11
47.1353
 21
2452.5
  0
LINE
  8
0
 10
47.1353
 20
2452.5
 11
47.1185
 21
2452.23
  0
LINE
  8
0
 10
47.1185
 20
2452.23
 11
47.0682
 21
2451.97
  0
LINE
  8
0
 10
47.0682
 20
2451.97
 11
46.9853
 21
2451.71
  0
LINE
  8
0
 10
46.9853
 20
2451.71
 11
46.8712
 21
2451.47
  0
LINE
  8
0
 10
46.8712
 20
2451.47
 11
46.7275
 21
2451.24
  0
LINE
  8
0
 10
46.7275
 20
2451.24
 11
46.5565
 21
2451.04
  0
LINE
  8
0
 10
46.5565
 20
2451.04
 11
46.3611
 21
2450.85
  0
LINE
  8
0
 10
46.3611
 20
2450.85
 11
46.1441
 21
2450.7
  0
LINE
  8
0
 10
46.1441
 20
2450.7
 11
45.9092
 21
2450.57
  0
LINE
  8
0
 10
45.9092
 20
2450.57
 11
45.6598
 21
2450.47
  0
LINE
  8
0
 10
45.6598
 20
2450.47
 11
45.4001
 21
2450.4
  0
LINE
  8
0
 10
45.4001
 20
2450.4
 11
45.1341
 21
2450.37
  0
LINE
  8
0
 10
45.1341
 20
2450.37
 11
44.8659
 21
2450.37
  0
LINE
  8
0
 10
-45.1341
 20
2315.37
 11
-45.4001
 21
2315.4
  0
LINE
  8
0
 10
-45.4001
 20
2315.4
 11
-45.6598
 21
2315.47
  0
LINE
  8
0
 10
-45.6598
 20
2315.47
 11
-45.9092
 21
2315.57
  0
LINE
  8
0
 10
-45.9092
 20
2315.57
 11
-46.1441
 21
2315.7
  0
LINE
  8
0
 10
-46.1441
 20
2315.7
 11
-46.3611
 21
2315.85
  0
LINE
  8
0
 10
-46.3611
 20
2315.85
 11
-46.5565
 21
2316.04
  0
LINE
  8
0
 10
-46.5565
 20
2316.04
 11
-46.7275
 21
2316.24
  0
LINE
  8
0
 10
-46.7275
 20
2316.24
 11
-46.8712
 21
2316.47
  0
LINE
  8
0
 10
-46.8712
 20
2316.47
 11
-46.9853
 21
2316.71
  0
LINE
  8
0
 10
-46.9853
 20
2316.71
 11
-47.0682
 21
2316.97
  0
LINE
  8
0
 10
-47.0682
 20
2316.97
 11
-47.1185
 21
2317.23
  0
LINE
  8
0
 10
-47.1185
 20
2317.23
 11
-47.1353
 21
2317.5
  0
LINE
  8
0
 10
-47.1353
 20
2317.5
 11
-47.1185
 21
2317.77
  0
LINE
  8
0
 10
-47.1185
 20
2317.77
 11
-47.0682
 21
2318.03
  0
LINE
  8
0
 10
-47.0682
 20
2318.03
 11
-46.9853
 21
2318.29
  0
LINE
  8
0
 10
-46.9853
 20
2318.29
 11
-46.8712
 21
2318.53
  0
LINE
  8
0
 10
-46.8712
 20
2318.53
 11
-46.7275
 21
2318.76
  0
LINE
  8
0
 10
-46.7275
 20
2318.76
 11
-46.5565
 21
2318.96
  0
LINE
  8
0
 10
-46.5565
 20
2318.96
 11
-46.3611
 21
2319.15
  0
LINE
  8
0
 10
-46.3611
 20
2319.15
 11
-46.1441
 21
2319.3
  0
LINE
  8
0
 10
-46.1441
 20
2319.3
 11
-45.9092
 21
2319.43
  0
LINE
  8
0
 10
-45.9092
 20
2319.43
 11
-45.6598
 21
2319.53
  0
LINE
  8
0
 10
-45.6598
 20
2319.53
 11
-45.4001
 21
2319.6
  0
LINE
  8
0
 10
-45.4001
 20
2319.6
 11
-45.1341
 21
2319.63
  0
LINE
  8
0
 10
-45.1341
 20
2319.63
 11
-44.8659
 21
2319.63
  0
LINE
  8
0
 10
-44.8659
 20
2319.63
 11
-44.5999
 21
2319.6
  0
LINE
  8
0
 10
-44.5999
 20
2319.6
 11
-44.3401
 21
2319.53
  0
LINE
  8
0
 10
-44.3401
 20
2319.53
 11
-44.0908
 21
2319.43
  0
LINE
  8
0
 10
-44.0908
 20
2319.43
 11
-43.8559
 21
2319.3
  0
LINE
  8
0
 10
-43.8559
 20
2319.3
 11
-43.6389
 21
2319.15
  0
LINE
  8
0
 10
-43.6389
 20
2319.15
 11
-43.4434
 21
2318.96
  0
LINE
  8
0
 10
-43.4434
 20
2318.96
 11
-43.2725
 21
2318.76
  0
LINE
  8
0
 10
-43.2725
 20
2318.76
 11
-43.1288
 21
2318.53
  0
LINE
  8
0
 10
-43.1288
 20
2318.53
 11
-43.0146
 21
2318.29
  0
LINE
  8
0
 10
-43.0146
 20
2318.29
 11
-42.9318
 21
2318.03
  0
LINE
  8
0
 10
-42.9318
 20
2318.03
 11
-42.8815
 21
2317.77
  0
LINE
  8
0
 10
-42.8815
 20
2317.77
 11
-42.8647
 21
2317.5
  0
LINE
  8
0
 10
-42.8647
 20
2317.5
 11
-42.8815
 21
2317.23
  0
LINE
  8
0
 10
-42.8815
 20
2317.23
 11
-42.9318
 21
2316.97
  0
LINE
  8
0
 10
-42.9318
 20
2316.97
 11
-43.0146
 21
2316.71
  0
LINE
  8
0
 10
-43.0146
 20
2316.71
 11
-43.1288
 21
2316.47
  0
LINE
  8
0
 10
-43.1288
 20
2316.47
 11
-43.2725
 21
2316.24
  0
LINE
  8
0
 10
-43.2725
 20
2316.24
 11
-43.4434
 21
2316.04
  0
LINE
  8
0
 10
-43.4434
 20
2316.04
 11
-43.6389
 21
2315.85
  0
LINE
  8
0
 10
-43.6389
 20
2315.85
 11
-43.8559
 21
2315.7
  0
LINE
  8
0
 10
-43.8559
 20
2315.7
 11
-44.0908
 21
2315.57
  0
LINE
  8
0
 10
-44.0908
 20
2315.57
 11
-44.3401
 21
2315.47
  0
LINE
  8
0
 10
-44.3401
 20
2315.47
 11
-44.5999
 21
2315.4
  0
LINE
  8
0
 10
-44.5999
 20
2315.4
 11
-44.8659
 21
2315.37
  0
LINE
  8
0
 10
-44.8659
 20
2315.37
 11
-45.1341
 21
2315.37
  0
LINE
  8
0
 10
44.8659
 20
2315.37
 11
44.5999
 21
2315.4
  0
LINE
  8
0
 10
44.5999
 20
2315.4
 11
44.3401
 21
2315.47
  0
LINE
  8
0
 10
44.3401
 20
2315.47
 11
44.0908
 21
2315.57
  0
LINE
  8
0
 10
44.0908
 20
2315.57
 11
43.8559
 21
2315.7
  0
LINE
  8
0
 10
43.8559
 20
2315.7
 11
43.6389
 21
2315.85
  0
LINE
  8
0
 10
43.6389
 20
2315.85
 11
43.4434
 21
2316.04
  0
LINE
  8
0
 10
43.4434
 20
2316.04
 11
43.2725
 21
2316.24
  0
LINE
  8
0
 10
43.2725
 20
2316.24
 11
43.1288
 21
2316.47
  0
LINE
  8
0
 10
43.1288
 20
2316.47
 11
43.0146
 21
2316.71
  0
LINE
  8
0
 10
43.0146
 20
2316.71
 11
42.9318
 21
2316.97
  0
LINE
  8
0
 10
42.9318
 20
2316.97
 11
42.8815
 21
2317.23
  0
LINE
  8
0
 10
42.8815
 20
2317.23
 11
42.8647
 21
2317.5
  0
LINE
  8
0
 10
42.8647
 20
2317.5
 11
42.8815
 21
2317.77
  0
LINE
  8
0
 10
42.8815
 20
2317.77
 11
42.9318
 21
2318.03
  0
LINE
  8
0
 10
42.9318
 20
2318.03
 11
43.0146
 21
2318.29
  0
LINE
  8
0
 10
43.0146
 20
2318.29
 11
43.1288
 21
2318.53
  0
LINE
  8
0
 10
43.1288
 20
2318.53
 11
43.2725
 21
2318.76
  0
LINE
  8
0
 10
43.2725
 20
2318.76
 11
43.4434
 21
2318.96
  0
LINE
  8
0
 10
43.4434
 20
2318.96
 11
43.6389
 21
2319.15
  0
LINE
  8
0
 10
43.6389
 20
2319.15
 11
43.8559
 21
2319.3
  0
LINE
  8
0
 10
43.8559
 20
2319.3
 11
44.0908
 21
2319.43
  0
LINE
  8
0
 10
44.0908
 20
2319.43
 11
44.3401
 21
2319.53
  0
LINE
  8
0
 10
44.3401
 20
2319.53
 11
44.5999
 21
2319.6
  0
LINE
  8
0
 10
44.5999
 20
2319.6
 11
44.8659
 21
2319.63
  0
LINE
  8
0
 10
44.8659
 20
2319.63
 11
45.1341
 21
2319.63
  0
LINE
  8
0
 10
45.1341
 20
2319.63
 11
45.4001
 21
2319.6
  0
LINE
  8
0
 10
45.4001
 20
2319.6
 11
45.6598
 21
2319.53
  0
LINE
  8
0
 10
45.6598
 20
2319.53
 11
45.9092
 21
2319.43
  0
LINE
  8
0
 10
45.9092
 20
2319.43
 11
46.1441
 21
2319.3
  0
LINE
  8
0
 10
46.1441
 20
2319.3
 11
46.3611
 21
2319.15
  0
LINE
  8
0
 10
46.3611
 20
2319.15
 11
46.5565
 21
2318.96
  0
LINE
  8
0
 10
46.5565
 20
2318.96
 11
46.7275
 21
2318.76
  0
LINE
  8
0
 10
46.7275
 20
2318.76
 11
46.8712
 21
2318.53
  0
LINE
  8
0
 10
46.8712
 20
2318.53
 11
46.9853
 21
2318.29
  0
LINE
  8
0
 10
46.9853
 20
2318.29
 11
47.0682
 21
2318.03
  0
LINE
  8
0
 10
47.0682
 20
2318.03
 11
47.1185
 21
2317.77
  0
LINE
  8
0
 10
47.1185
 20
2317.77
 11
47.1353
 21
2317.5
  0
LINE
  8
0
 10
47.1353
 20
2317.5
 11
47.1185
 21
2317.23
  0
LINE
  8
0
 10
47.1185
 20
2317.23
 11
47.0682
 21
2316.97
  0
LINE
  8
0
 10
47.0682
 20
2316.97
 11
46.9853
 21
2316.71
  0
LINE
  8
0
 10
46.9853
 20
2316.71
 11
46.8712
 21
2316.47
  0
LINE
  8
0
 10
46.8712
 20
2316.47
 11
46.7275
 21
2316.24
  0
LINE
  8
0
 10
46.7275
 20
2316.24
 11
46.5565
 21
2316.04
  0
LINE
  8
0
 10
46.5565
 20
2316.04
 11
46.3611
 21
2315.85
  0
LINE
  8
0
 10
46.3611
 20
2315.85
 11
46.1441
 21
2315.7
  0
LINE
  8
0
 10
46.1441
 20
2315.7
 11
45.9092
 21
2315.57
  0
LINE
  8
0
 10
45.9092
 20
2315.57
 11
45.6598
 21
2315.47
  0
LINE
  8
0
 10
45.6598
 20
2315.47
 11
45.4001
 21
2315.4
  0
LINE
  8
0
 10
45.4001
 20
2315.4
 11
45.1341
 21
2315.37
  0
LINE
  8
0
 10
45.1341
 20
2315.37
 11
44.8659
 21
2315.37
  0
ENDSEC
  0
SECTION
  2
OBJECTS
  0
DICTIONARY
  0
ENDSEC
  0
EOF
