<?xml version="1.0" standalone="no"?>
<!DOCTYPE svg PUBLIC "-//W3C//DTD SVG 1.1//EN" "http://www.w3.org/Graphics/SVG/1.1/DTD/svg11.dtd">
<svg width="38mm" height="147mm" viewBox="-19 -288 38 147" xmlns="http://www.w3.org/2000/svg" version="1.1">
<title>OpenSCAD Model</title>
<path d="
M 14.6869,-258.089 L 15.2951,-258.245 L 15.8789,-258.476 L 16.4291,-258.778 L 16.9371,-259.147 L 17.3948,-259.577
 L 17.7951,-260.061 L 18.1315,-260.591 L 18.3989,-261.159 L 18.5929,-261.757 L 18.7106,-262.373 L 18.75,-263
 L 18.75,-283 L 18.7106,-283.627 L 18.5929,-284.243 L 18.3989,-284.841 L 18.1315,-285.409 L 17.7951,-285.939
 L 17.3948,-286.423 L 16.9371,-286.853 L 16.4291,-287.222 L 15.8789,-287.524 L 15.2951,-287.755 L 14.6869,-287.911
 L 14.0639,-287.99 L -14.0639,-287.99 L -14.6869,-287.911 L -15.2951,-287.755 L -15.8789,-287.524 L -16.4291,-287.222
 L -16.9371,-286.853 L -17.3948,-286.423 L -17.7951,-285.939 L -18.1315,-285.409 L -18.3989,-284.841 L -18.5929,-284.243
 L -18.7106,-283.627 L -18.75,-283 L -18.75,-263 L -18.7106,-262.373 L -18.5929,-261.757 L -18.3989,-261.159
 L -18.1315,-260.591 L -17.7951,-260.061 L -17.3948,-259.577 L -16.9371,-259.147 L -16.4291,-258.778 L -15.8789,-258.476
 L -15.2951,-258.245 L -14.6869,-258.089 L -14.0639,-258.01 L 14.0639,-258.01 z
M -13.7982,-258.509 L -14.3901,-258.584 L -14.9678,-258.732 L -15.5224,-258.952 L -16.0452,-259.239 L -16.5278,-259.59
 L -16.9626,-259.998 L -17.3428,-260.458 L -17.6624,-260.962 L -17.9164,-261.501 L -18.1008,-262.069 L -18.2125,-262.655
 L -18.25,-263.25 L -18.25,-282.75 L -18.2125,-283.345 L -18.1008,-283.931 L -17.9164,-284.499 L -17.6624,-285.038
 L -17.3428,-285.542 L -16.9626,-286.002 L -16.5278,-286.41 L -16.0452,-286.761 L -15.5224,-287.048 L -14.9678,-287.268
 L -14.3901,-287.416 L -13.7982,-287.491 L 13.7982,-287.491 L 14.3901,-287.416 L 14.9678,-287.268 L 15.5224,-287.048
 L 16.0452,-286.761 L 16.5278,-286.41 L 16.9626,-286.002 L 17.3428,-285.542 L 17.6624,-285.038 L 17.9164,-284.499
 L 18.1008,-283.931 L 18.2125,-283.345 L 18.25,-282.75 L 18.25,-263.25 L 18.2125,-262.655 L 18.1008,-262.069
 L 17.9164,-261.501 L 17.6624,-260.962 L 17.3428,-260.458 L 16.9626,-259.998 L 16.5278,-259.59 L 16.0452,-259.239
 L 15.5224,-258.952 L 14.9678,-258.732 L 14.3901,-258.584 L 13.7982,-258.509 z
M 14.6869,-219.089 L 15.2951,-219.245 L 15.8789,-219.476 L 16.4291,-219.778 L 16.9371,-220.147 L 17.3948,-220.577
 L 17.7951,-221.061 L 18.1315,-221.591 L 18.3989,-222.159 L 18.5929,-222.757 L 18.7106,-223.373 L 18.75,-224
 L 18.75,-244 L 18.7106,-244.627 L 18.5929,-245.243 L 18.3989,-245.841 L 18.1315,-246.409 L 17.7951,-246.939
 L 17.3948,-247.423 L 16.9371,-247.853 L 16.4291,-248.222 L 15.8789,-248.524 L 15.2951,-248.755 L 14.6869,-248.911
 L 14.0639,-248.99 L -14.0639,-248.99 L -14.6869,-248.911 L -15.2951,-248.755 L -15.8789,-248.524 L -16.4291,-248.222
 L -16.9371,-247.853 L -17.3948,-247.423 L -17.7951,-246.939 L -18.1315,-246.409 L -18.3989,-245.841 L -18.5929,-245.243
 L -18.7106,-244.627 L -18.75,-244 L -18.75,-224 L -18.7106,-223.373 L -18.5929,-222.757 L -18.3989,-222.159
 L -18.1315,-221.591 L -17.7951,-221.061 L -17.3948,-220.577 L -16.9371,-220.147 L -16.4291,-219.778 L -15.8789,-219.476
 L -15.2951,-219.245 L -14.6869,-219.089 L -14.0639,-219.01 L 14.0639,-219.01 z
M -13.7982,-219.509 L -14.3901,-219.584 L -14.9678,-219.732 L -15.5224,-219.952 L -16.0452,-220.239 L -16.5278,-220.59
 L -16.9626,-220.998 L -17.3428,-221.458 L -17.6624,-221.962 L -17.9164,-222.501 L -18.1008,-223.069 L -18.2125,-223.655
 L -18.25,-224.25 L -18.25,-243.75 L -18.2125,-244.345 L -18.1008,-244.931 L -17.9164,-245.499 L -17.6624,-246.038
 L -17.3428,-246.542 L -16.9626,-247.002 L -16.5278,-247.41 L -16.0452,-247.761 L -15.5224,-248.048 L -14.9678,-248.268
 L -14.3901,-248.416 L -13.7982,-248.491 L 13.7982,-248.491 L 14.3901,-248.416 L 14.9678,-248.268 L 15.5224,-248.048
 L 16.0452,-247.761 L 16.5278,-247.41 L 16.9626,-247.002 L 17.3428,-246.542 L 17.6624,-246.038 L 17.9164,-245.499
 L 18.1008,-244.931 L 18.2125,-244.345 L 18.25,-243.75 L 18.25,-224.25 L 18.2125,-223.655 L 18.1008,-223.069
 L 17.9164,-222.501 L 17.6624,-221.962 L 17.3428,-221.458 L 16.9626,-220.998 L 16.5278,-220.59 L 16.0452,-220.239
 L 15.5224,-219.952 L 14.9678,-219.732 L 14.3901,-219.584 L 13.7982,-219.509 z
M 14.6869,-180.089 L 15.2951,-180.245 L 15.8789,-180.476 L 16.4291,-180.778 L 16.9371,-181.147 L 17.3948,-181.577
 L 17.7951,-182.061 L 18.1315,-182.591 L 18.3989,-183.159 L 18.5929,-183.757 L 18.7106,-184.373 L 18.75,-185
 L 18.75,-205 L 18.7106,-205.627 L 18.5929,-206.243 L 18.3989,-206.841 L 18.1315,-207.409 L 17.7951,-207.939
 L 17.3948,-208.423 L 16.9371,-208.853 L 16.4291,-209.222 L 15.8789,-209.524 L 15.2951,-209.755 L 14.6869,-209.911
 L 14.0639,-209.99 L -14.0639,-209.99 L -14.6869,-209.911 L -15.2951,-209.755 L -15.8789,-209.524 L -16.4291,-209.222
 L -16.9371,-208.853 L -17.3948,-208.423 L -17.7951,-207.939 L -18.1315,-207.409 L -18.3989,-206.841 L -18.5929,-206.243
 L -18.7106,-205.627 L -18.75,-205 L -18.75,-185 L -18.7106,-184.373 L -18.5929,-183.757 L -18.3989,-183.159
 L -18.1315,-182.591 L -17.7951,-182.061 L -17.3948,-181.577 L -16.9371,-181.147 L -16.4291,-180.778 L -15.8789,-180.476
 L -15.2951,-180.245 L -14.6869,-180.089 L -14.0639,-180.01 L 14.0639,-180.01 z
M -13.7875,-180.681 L -14.3579,-180.753 L -14.9148,-180.896 L -15.4494,-181.107 L -15.9532,-181.384 L -16.4184,-181.722
 L -16.8375,-182.116 L -17.204,-182.559 L -17.5121,-183.044 L -17.7569,-183.565 L -17.9346,-184.111 L -18.0423,-184.676
 L -18.0784,-185.25 L -18.0784,-204.75 L -18.0423,-205.324 L -17.9346,-205.889 L -17.7569,-206.435 L -17.5121,-206.956
 L -17.204,-207.441 L -16.8375,-207.884 L -16.4184,-208.278 L -15.9532,-208.616 L -15.4494,-208.893 L -14.9148,-209.104
 L -14.3579,-209.247 L -13.7875,-209.319 L 13.7875,-209.319 L 14.3579,-209.247 L 14.9148,-209.104 L 15.4494,-208.893
 L 15.9532,-208.616 L 16.4184,-208.278 L 16.8375,-207.884 L 17.204,-207.441 L 17.5121,-206.956 L 17.7569,-206.435
 L 17.9346,-205.889 L 18.0423,-205.324 L 18.0784,-204.75 L 18.0784,-185.25 L 18.0423,-184.676 L 17.9346,-184.111
 L 17.7569,-183.565 L 17.5121,-183.044 L 17.204,-182.559 L 16.8375,-182.116 L 16.4184,-181.722 L 15.9532,-181.384
 L 15.4494,-181.107 L 14.9148,-180.896 L 14.3579,-180.753 L 13.7875,-180.681 z
M 14.6869,-141.089 L 15.2951,-141.245 L 15.8789,-141.476 L 16.4291,-141.778 L 16.9371,-142.147 L 17.3948,-142.577
 L 17.7951,-143.061 L 18.1315,-143.591 L 18.3989,-144.159 L 18.5929,-144.757 L 18.7106,-145.373 L 18.75,-146
 L 18.75,-166 L 18.7106,-166.627 L 18.5929,-167.243 L 18.3989,-167.841 L 18.1315,-168.409 L 17.7951,-168.939
 L 17.3948,-169.423 L 16.9371,-169.853 L 16.4291,-170.222 L 15.8789,-170.524 L 15.2951,-170.755 L 14.6869,-170.911
 L 14.0639,-170.99 L -14.0639,-170.99 L -14.6869,-170.911 L -15.2951,-170.755 L -15.8789,-170.524 L -16.4291,-170.222
 L -16.9371,-169.853 L -17.3948,-169.423 L -17.7951,-168.939 L -18.1315,-168.409 L -18.3989,-167.841 L -18.5929,-167.243
 L -18.7106,-166.627 L -18.75,-166 L -18.75,-146 L -18.7106,-145.373 L -18.5929,-144.757 L -18.3989,-144.159
 L -18.1315,-143.591 L -17.7951,-143.061 L -17.3948,-142.577 L -16.9371,-142.147 L -16.4291,-141.778 L -15.8789,-141.476
 L -15.2951,-141.245 L -14.6869,-141.089 L -14.0639,-141.01 L 14.0639,-141.01 z
M -13.6325,-144.145 L -13.8953,-144.178 L -14.1519,-144.244 L -14.3982,-144.341 L -14.6304,-144.469 L -14.8447,-144.625
 L -15.0378,-144.806 L -15.2067,-145.01 L -15.3487,-145.234 L -15.4615,-145.473 L -15.5434,-145.725 L -15.593,-145.986
 L -15.6096,-146.25 L -15.6096,-165.75 L -15.593,-166.014 L -15.5434,-166.275 L -15.4615,-166.527 L -15.3487,-166.766
 L -15.2067,-166.99 L -15.0378,-167.194 L -14.8447,-167.375 L -14.6304,-167.531 L -14.3982,-167.659 L -14.1519,-167.756
 L -13.8953,-167.822 L -13.6325,-167.855 L 13.6325,-167.855 L 13.8953,-167.822 L 14.1519,-167.756 L 14.3982,-167.659
 L 14.6304,-167.531 L 14.8447,-167.375 L 15.0378,-167.194 L 15.2067,-166.99 L 15.3487,-166.766 L 15.4615,-166.527
 L 15.5434,-166.275 L 15.593,-166.014 L 15.6096,-165.75 L 15.6096,-146.25 L 15.593,-145.986 L 15.5434,-145.725
 L 15.4615,-145.473 L 15.3487,-145.234 L 15.2067,-145.01 L 15.0378,-144.806 L 14.8447,-144.625 L 14.6304,-144.469
 L 14.3982,-144.341 L 14.1519,-144.244 L 13.8953,-144.178 L 13.6325,-144.145 z
" stroke="black" fill="lightgray" stroke-width="0.5"/>
</svg>
