  0
SECTION
  2
BLOCKS
  0
ENDSEC
  0
SECTION
  2
ENTITIES
  0
LINE
  8
0
 10
11.5633
 20
-84.7721
 11
15.2196
 21
-84.3698
  0
LINE
  8
0
 10
15.2196
 20
-84.3698
 11
18.6261
 21
-83.6993
  0
LINE
  8
0
 10
18.6261
 20
-83.6993
 11
21.7828
 21
-82.7606
  0
LINE
  8
0
 10
21.7828
 20
-82.7606
 11
24.6897
 21
-81.5536
  0
LINE
  8
0
 10
24.6897
 20
-81.5536
 11
27.3469
 21
-80.0785
  0
LINE
  8
0
 10
27.3469
 20
-80.0785
 11
29.7542
 21
-78.3351
  0
LINE
  8
0
 10
29.7542
 20
-78.3351
 11
31.8736
 21
-76.3538
  0
LINE
  8
0
 10
31.8736
 20
-76.3538
 11
33.667
 21
-74.1647
  0
LINE
  8
0
 10
33.667
 20
-74.1647
 11
35.1342
 21
-71.7679
  0
LINE
  8
0
 10
35.1342
 20
-71.7679
 11
36.2755
 21
-69.1634
  0
LINE
  8
0
 10
36.2755
 20
-69.1634
 11
37.0906
 21
-66.3512
  0
LINE
  8
0
 10
37.0906
 20
-66.3512
 11
37.5797
 21
-63.3313
  0
LINE
  8
0
 10
37.5797
 20
-63.3313
 11
37.7428
 21
-60.1036
  0
LINE
  8
0
 10
37.7428
 20
-60.1036
 11
37.6251
 21
-57.6346
  0
LINE
  8
0
 10
37.6251
 20
-57.6346
 11
37.272
 21
-55.3076
  0
LINE
  8
0
 10
37.272
 20
-55.3076
 11
36.6836
 21
-53.1225
  0
LINE
  8
0
 10
36.6836
 20
-53.1225
 11
35.8598
 21
-51.0795
  0
LINE
  8
0
 10
35.8598
 20
-51.0795
 11
34.8007
 21
-49.1785
  0
LINE
  8
0
 10
34.8007
 20
-49.1785
 11
33.5061
 21
-47.4194
  0
LINE
  8
0
 10
33.5061
 20
-47.4194
 11
31.9763
 21
-45.8023
  0
LINE
  8
0
 10
31.9763
 20
-45.8023
 11
30.2218
 21
-44.343
  0
LINE
  8
0
 10
30.2218
 20
-44.343
 11
28.253
 21
-43.0573
  0
LINE
  8
0
 10
28.253
 20
-43.0573
 11
26.0699
 21
-41.945
  0
LINE
  8
0
 10
26.0699
 20
-41.945
 11
23.6726
 21
-41.0063
  0
LINE
  8
0
 10
23.6726
 20
-41.0063
 11
21.0609
 21
-40.2411
  0
LINE
  8
0
 10
21.0609
 20
-40.2411
 11
18.2348
 21
-39.6494
  0
LINE
  8
0
 10
18.2348
 20
-39.6494
 11
15.1945
 21
-39.2312
  0
LINE
  8
0
 10
15.1945
 20
-39.2312
 11
17.623
 21
-38.6322
  0
LINE
  8
0
 10
17.623
 20
-38.6322
 11
19.8647
 21
-37.9031
  0
LINE
  8
0
 10
19.8647
 20
-37.9031
 11
21.9197
 21
-37.0439
  0
LINE
  8
0
 10
21.9197
 20
-37.0439
 11
23.7879
 21
-36.0546
  0
LINE
  8
0
 10
23.7879
 20
-36.0546
 11
25.4694
 21
-34.9351
  0
LINE
  8
0
 10
25.4694
 20
-34.9351
 11
26.9642
 21
-33.6854
  0
LINE
  8
0
 10
26.9642
 20
-33.6854
 11
28.2722
 21
-32.3057
  0
LINE
  8
0
 10
28.2722
 20
-32.3057
 11
29.4003
 21
-30.8129
  0
LINE
  8
0
 10
29.4003
 20
-30.8129
 11
30.3549
 21
-29.224
  0
LINE
  8
0
 10
30.3549
 20
-29.224
 11
31.1359
 21
-27.5392
  0
LINE
  8
0
 10
31.1359
 20
-27.5392
 11
31.7434
 21
-25.7584
  0
LINE
  8
0
 10
31.7434
 20
-25.7584
 11
32.1773
 21
-23.8815
  0
LINE
  8
0
 10
32.1773
 20
-23.8815
 11
32.4376
 21
-21.9087
  0
LINE
  8
0
 10
32.4376
 20
-21.9087
 11
32.5244
 21
-19.8398
  0
LINE
  8
0
 10
32.5244
 20
-19.8398
 11
32.3765
 21
-16.9218
  0
LINE
  8
0
 10
32.3765
 20
-16.9218
 11
31.9328
 21
-14.205
  0
LINE
  8
0
 10
31.9328
 20
-14.205
 11
31.1932
 21
-11.6894
  0
LINE
  8
0
 10
31.1932
 20
-11.6894
 11
30.1579
 21
-9.37491
  0
LINE
  8
0
 10
30.1579
 20
-9.37491
 11
28.8267
 21
-7.2616
  0
LINE
  8
0
 10
28.8267
 20
-7.2616
 11
28.5957
 21
-6.99013
  0
LINE
  8
0
 10
28.5957
 20
-6.99013
 11
47.3139
 21
-6.99013
  0
LINE
  8
0
 10
47.3139
 20
-6.99013
 11
47.9369
 21
-6.91142
  0
LINE
  8
0
 10
47.9369
 20
-6.91142
 11
48.5451
 21
-6.75528
  0
LINE
  8
0
 10
48.5451
 20
-6.75528
 11
49.1289
 21
-6.52412
  0
LINE
  8
0
 10
49.1289
 20
-6.52412
 11
49.6791
 21
-6.22163
  0
LINE
  8
0
 10
49.6791
 20
-6.22163
 11
50.1871
 21
-5.85255
  0
LINE
  8
0
 10
50.1871
 20
-5.85255
 11
50.6448
 21
-5.42273
  0
LINE
  8
0
 10
50.6448
 20
-5.42273
 11
51.0451
 21
-4.93892
  0
LINE
  8
0
 10
51.0451
 20
-4.93892
 11
51.3815
 21
-4.40877
  0
LINE
  8
0
 10
51.3815
 20
-4.40877
 11
51.6489
 21
-3.84062
  0
LINE
  8
0
 10
51.6489
 20
-3.84062
 11
51.8429
 21
-3.24344
  0
LINE
  8
0
 10
51.8429
 20
-3.24344
 11
51.9606
 21
-2.62666
  0
LINE
  8
0
 10
51.9606
 20
-2.62666
 11
52
 21
-2
  0
LINE
  8
0
 10
52
 20
-2
 11
52
 21
2
  0
LINE
  8
0
 10
52
 20
2
 11
51.9606
 21
2.62666
  0
LINE
  8
0
 10
51.9606
 20
2.62666
 11
51.8429
 21
3.24344
  0
LINE
  8
0
 10
51.8429
 20
3.24344
 11
51.6489
 21
3.84062
  0
LINE
  8
0
 10
51.6489
 20
3.84062
 11
51.3815
 21
4.40877
  0
LINE
  8
0
 10
51.3815
 20
4.40877
 11
51.0451
 21
4.93892
  0
LINE
  8
0
 10
51.0451
 20
4.93892
 11
50.6448
 21
5.42273
  0
LINE
  8
0
 10
50.6448
 20
5.42273
 11
50.1871
 21
5.85255
  0
LINE
  8
0
 10
50.1871
 20
5.85255
 11
49.6791
 21
6.22163
  0
LINE
  8
0
 10
49.6791
 20
6.22163
 11
49.1289
 21
6.52412
  0
LINE
  8
0
 10
49.1289
 20
6.52412
 11
48.5451
 21
6.75528
  0
LINE
  8
0
 10
48.5451
 20
6.75528
 11
47.9369
 21
6.91142
  0
LINE
  8
0
 10
47.9369
 20
6.91142
 11
47.3139
 21
6.99013
  0
LINE
  8
0
 10
47.3139
 20
6.99013
 11
-47.3139
 21
6.99013
  0
LINE
  8
0
 10
-47.3139
 20
6.99013
 11
-47.9369
 21
6.91142
  0
LINE
  8
0
 10
-47.9369
 20
6.91142
 11
-48.5451
 21
6.75528
  0
LINE
  8
0
 10
-48.5451
 20
6.75528
 11
-49.1289
 21
6.52412
  0
LINE
  8
0
 10
-49.1289
 20
6.52412
 11
-49.6791
 21
6.22163
  0
LINE
  8
0
 10
-49.6791
 20
6.22163
 11
-50.1871
 21
5.85255
  0
LINE
  8
0
 10
-50.1871
 20
5.85255
 11
-50.6448
 21
5.42273
  0
LINE
  8
0
 10
-50.6448
 20
5.42273
 11
-51.0451
 21
4.93892
  0
LINE
  8
0
 10
-51.0451
 20
4.93892
 11
-51.3815
 21
4.40877
  0
LINE
  8
0
 10
-51.3815
 20
4.40877
 11
-51.6489
 21
3.84062
  0
LINE
  8
0
 10
-51.6489
 20
3.84062
 11
-51.8429
 21
3.24344
  0
LINE
  8
0
 10
-51.8429
 20
3.24344
 11
-51.9606
 21
2.62666
  0
LINE
  8
0
 10
-51.9606
 20
2.62666
 11
-52
 21
2
  0
LINE
  8
0
 10
-52
 20
2
 11
-52
 21
-2
  0
LINE
  8
0
 10
-52
 20
-2
 11
-51.9606
 21
-2.62666
  0
LINE
  8
0
 10
-51.9606
 20
-2.62666
 11
-51.8429
 21
-3.24344
  0
LINE
  8
0
 10
-51.8429
 20
-3.24344
 11
-51.6489
 21
-3.84062
  0
LINE
  8
0
 10
-51.6489
 20
-3.84062
 11
-51.3815
 21
-4.40877
  0
LINE
  8
0
 10
-51.3815
 20
-4.40877
 11
-51.0451
 21
-4.93892
  0
LINE
  8
0
 10
-51.0451
 20
-4.93892
 11
-50.6448
 21
-5.42273
  0
LINE
  8
0
 10
-50.6448
 20
-5.42273
 11
-50.1871
 21
-5.85255
  0
LINE
  8
0
 10
-50.1871
 20
-5.85255
 11
-49.6791
 21
-6.22163
  0
LINE
  8
0
 10
-49.6791
 20
-6.22163
 11
-49.1289
 21
-6.52412
  0
LINE
  8
0
 10
-49.1289
 20
-6.52412
 11
-48.5451
 21
-6.75528
  0
LINE
  8
0
 10
-48.5451
 20
-6.75528
 11
-47.9369
 21
-6.91142
  0
LINE
  8
0
 10
-47.9369
 20
-6.91142
 11
-47.3139
 21
-6.99013
  0
LINE
  8
0
 10
-47.3139
 20
-6.99013
 11
-29.8364
 21
-6.99013
  0
LINE
  8
0
 10
-29.8364
 20
-6.99013
 11
-29.8364
 21
-84.9062
  0
LINE
  8
0
 10
-29.8364
 20
-84.9062
 11
7.65721
 21
-84.9062
  0
LINE
  8
0
 10
7.65721
 20
-84.9062
 11
11.5633
 21
-84.7721
  0
LINE
  8
0
 10
14.8116
 20
-2.99408
 11
14.4379
 21
-2.94685
  0
LINE
  8
0
 10
14.4379
 20
-2.94685
 11
14.0729
 21
-2.85316
  0
LINE
  8
0
 10
14.0729
 20
-2.85316
 11
13.7227
 21
-2.71448
  0
LINE
  8
0
 10
13.7227
 20
-2.71448
 11
13.3925
 21
-2.53297
  0
LINE
  8
0
 10
13.3925
 20
-2.53297
 11
13.0877
 21
-2.31154
  0
LINE
  8
0
 10
13.0877
 20
-2.31154
 11
12.8131
 21
-2.05363
  0
LINE
  8
0
 10
12.8131
 20
-2.05363
 11
12.5729
 21
-1.76335
  0
LINE
  8
0
 10
12.5729
 20
-1.76335
 11
12.3711
 21
-1.44525
  0
LINE
  8
0
 10
12.3711
 20
-1.44525
 11
12.2107
 21
-1.10437
  0
LINE
  8
0
 10
12.2107
 20
-1.10437
 11
12.0942
 21
-0.746063
  0
LINE
  8
0
 10
12.0942
 20
-0.746063
 11
12.0237
 21
-0.375992
  0
LINE
  8
0
 10
12.0237
 20
-0.375992
 11
12
 21
0
  0
LINE
  8
0
 10
12
 20
0
 11
12.0237
 21
0.375992
  0
LINE
  8
0
 10
12.0237
 20
0.375992
 11
12.0942
 21
0.746063
  0
LINE
  8
0
 10
12.0942
 20
0.746063
 11
12.2107
 21
1.10437
  0
LINE
  8
0
 10
12.2107
 20
1.10437
 11
12.3711
 21
1.44525
  0
LINE
  8
0
 10
12.3711
 20
1.44525
 11
12.5729
 21
1.76335
  0
LINE
  8
0
 10
12.5729
 20
1.76335
 11
12.8131
 21
2.05363
  0
LINE
  8
0
 10
12.8131
 20
2.05363
 11
13.0877
 21
2.31154
  0
LINE
  8
0
 10
13.0877
 20
2.31154
 11
13.3925
 21
2.53297
  0
LINE
  8
0
 10
13.3925
 20
2.53297
 11
13.7227
 21
2.71448
  0
LINE
  8
0
 10
13.7227
 20
2.71448
 11
14.0729
 21
2.85316
  0
LINE
  8
0
 10
14.0729
 20
2.85316
 11
14.4379
 21
2.94685
  0
LINE
  8
0
 10
14.4379
 20
2.94685
 11
14.8116
 21
2.99408
  0
LINE
  8
0
 10
14.8116
 20
2.99408
 11
15.1884
 21
2.99408
  0
LINE
  8
0
 10
15.1884
 20
2.99408
 11
15.5621
 21
2.94685
  0
LINE
  8
0
 10
15.5621
 20
2.94685
 11
15.927
 21
2.85316
  0
LINE
  8
0
 10
15.927
 20
2.85316
 11
16.2773
 21
2.71448
  0
LINE
  8
0
 10
16.2773
 20
2.71448
 11
16.6075
 21
2.53297
  0
LINE
  8
0
 10
16.6075
 20
2.53297
 11
16.9123
 21
2.31154
  0
LINE
  8
0
 10
16.9123
 20
2.31154
 11
17.1869
 21
2.05363
  0
LINE
  8
0
 10
17.1869
 20
2.05363
 11
17.427
 21
1.76335
  0
LINE
  8
0
 10
17.427
 20
1.76335
 11
17.6289
 21
1.44525
  0
LINE
  8
0
 10
17.6289
 20
1.44525
 11
17.7893
 21
1.10437
  0
LINE
  8
0
 10
17.7893
 20
1.10437
 11
17.9057
 21
0.746063
  0
LINE
  8
0
 10
17.9057
 20
0.746063
 11
17.9763
 21
0.375992
  0
LINE
  8
0
 10
17.9763
 20
0.375992
 11
18
 21
0
  0
LINE
  8
0
 10
18
 20
0
 11
17.9763
 21
-0.375992
  0
LINE
  8
0
 10
17.9763
 20
-0.375992
 11
17.9057
 21
-0.746063
  0
LINE
  8
0
 10
17.9057
 20
-0.746063
 11
17.7893
 21
-1.10437
  0
LINE
  8
0
 10
17.7893
 20
-1.10437
 11
17.6289
 21
-1.44525
  0
LINE
  8
0
 10
17.6289
 20
-1.44525
 11
17.427
 21
-1.76335
  0
LINE
  8
0
 10
17.427
 20
-1.76335
 11
17.1869
 21
-2.05363
  0
LINE
  8
0
 10
17.1869
 20
-2.05363
 11
16.9123
 21
-2.31154
  0
LINE
  8
0
 10
16.9123
 20
-2.31154
 11
16.6075
 21
-2.53297
  0
LINE
  8
0
 10
16.6075
 20
-2.53297
 11
16.2773
 21
-2.71448
  0
LINE
  8
0
 10
16.2773
 20
-2.71448
 11
15.927
 21
-2.85316
  0
LINE
  8
0
 10
15.927
 20
-2.85316
 11
15.5621
 21
-2.94685
  0
LINE
  8
0
 10
15.5621
 20
-2.94685
 11
15.1884
 21
-2.99408
  0
LINE
  8
0
 10
15.1884
 20
-2.99408
 11
14.8116
 21
-2.99408
  0
LINE
  8
0
 10
29.8116
 20
-2.99408
 11
29.4379
 21
-2.94685
  0
LINE
  8
0
 10
29.4379
 20
-2.94685
 11
29.0729
 21
-2.85316
  0
LINE
  8
0
 10
29.0729
 20
-2.85316
 11
28.7227
 21
-2.71448
  0
LINE
  8
0
 10
28.7227
 20
-2.71448
 11
28.3925
 21
-2.53297
  0
LINE
  8
0
 10
28.3925
 20
-2.53297
 11
28.0877
 21
-2.31154
  0
LINE
  8
0
 10
28.0877
 20
-2.31154
 11
27.8131
 21
-2.05363
  0
LINE
  8
0
 10
27.8131
 20
-2.05363
 11
27.5729
 21
-1.76335
  0
LINE
  8
0
 10
27.5729
 20
-1.76335
 11
27.3711
 21
-1.44525
  0
LINE
  8
0
 10
27.3711
 20
-1.44525
 11
27.2107
 21
-1.10437
  0
LINE
  8
0
 10
27.2107
 20
-1.10437
 11
27.0942
 21
-0.746063
  0
LINE
  8
0
 10
27.0942
 20
-0.746063
 11
27.0237
 21
-0.375992
  0
LINE
  8
0
 10
27.0237
 20
-0.375992
 11
27
 21
0
  0
LINE
  8
0
 10
27
 20
0
 11
27.0237
 21
0.375992
  0
LINE
  8
0
 10
27.0237
 20
0.375992
 11
27.0942
 21
0.746063
  0
LINE
  8
0
 10
27.0942
 20
0.746063
 11
27.2107
 21
1.10437
  0
LINE
  8
0
 10
27.2107
 20
1.10437
 11
27.3711
 21
1.44525
  0
LINE
  8
0
 10
27.3711
 20
1.44525
 11
27.5729
 21
1.76335
  0
LINE
  8
0
 10
27.5729
 20
1.76335
 11
27.8131
 21
2.05363
  0
LINE
  8
0
 10
27.8131
 20
2.05363
 11
28.0877
 21
2.31154
  0
LINE
  8
0
 10
28.0877
 20
2.31154
 11
28.3925
 21
2.53297
  0
LINE
  8
0
 10
28.3925
 20
2.53297
 11
28.7227
 21
2.71448
  0
LINE
  8
0
 10
28.7227
 20
2.71448
 11
29.0729
 21
2.85316
  0
LINE
  8
0
 10
29.0729
 20
2.85316
 11
29.4379
 21
2.94685
  0
LINE
  8
0
 10
29.4379
 20
2.94685
 11
29.8116
 21
2.99408
  0
LINE
  8
0
 10
29.8116
 20
2.99408
 11
30.1884
 21
2.99408
  0
LINE
  8
0
 10
30.1884
 20
2.99408
 11
30.5621
 21
2.94685
  0
LINE
  8
0
 10
30.5621
 20
2.94685
 11
30.927
 21
2.85316
  0
LINE
  8
0
 10
30.927
 20
2.85316
 11
31.2773
 21
2.71448
  0
LINE
  8
0
 10
31.2773
 20
2.71448
 11
31.6075
 21
2.53297
  0
LINE
  8
0
 10
31.6075
 20
2.53297
 11
31.9123
 21
2.31154
  0
LINE
  8
0
 10
31.9123
 20
2.31154
 11
32.1869
 21
2.05363
  0
LINE
  8
0
 10
32.1869
 20
2.05363
 11
32.427
 21
1.76335
  0
LINE
  8
0
 10
32.427
 20
1.76335
 11
32.6289
 21
1.44525
  0
LINE
  8
0
 10
32.6289
 20
1.44525
 11
32.7893
 21
1.10437
  0
LINE
  8
0
 10
32.7893
 20
1.10437
 11
32.9057
 21
0.746063
  0
LINE
  8
0
 10
32.9057
 20
0.746063
 11
32.9763
 21
0.375992
  0
LINE
  8
0
 10
32.9763
 20
0.375992
 11
33
 21
0
  0
LINE
  8
0
 10
33
 20
0
 11
32.9763
 21
-0.375992
  0
LINE
  8
0
 10
32.9763
 20
-0.375992
 11
32.9057
 21
-0.746063
  0
LINE
  8
0
 10
32.9057
 20
-0.746063
 11
32.7893
 21
-1.10437
  0
LINE
  8
0
 10
32.7893
 20
-1.10437
 11
32.6289
 21
-1.44525
  0
LINE
  8
0
 10
32.6289
 20
-1.44525
 11
32.427
 21
-1.76335
  0
LINE
  8
0
 10
32.427
 20
-1.76335
 11
32.1869
 21
-2.05363
  0
LINE
  8
0
 10
32.1869
 20
-2.05363
 11
31.9123
 21
-2.31154
  0
LINE
  8
0
 10
31.9123
 20
-2.31154
 11
31.6075
 21
-2.53297
  0
LINE
  8
0
 10
31.6075
 20
-2.53297
 11
31.2773
 21
-2.71448
  0
LINE
  8
0
 10
31.2773
 20
-2.71448
 11
30.927
 21
-2.85316
  0
LINE
  8
0
 10
30.927
 20
-2.85316
 11
30.5621
 21
-2.94685
  0
LINE
  8
0
 10
30.5621
 20
-2.94685
 11
30.1884
 21
-2.99408
  0
LINE
  8
0
 10
30.1884
 20
-2.99408
 11
29.8116
 21
-2.99408
  0
LINE
  8
0
 10
44.8116
 20
-2.99408
 11
44.4379
 21
-2.94685
  0
LINE
  8
0
 10
44.4379
 20
-2.94685
 11
44.0729
 21
-2.85316
  0
LINE
  8
0
 10
44.0729
 20
-2.85316
 11
43.7227
 21
-2.71448
  0
LINE
  8
0
 10
43.7227
 20
-2.71448
 11
43.3925
 21
-2.53297
  0
LINE
  8
0
 10
43.3925
 20
-2.53297
 11
43.0877
 21
-2.31154
  0
LINE
  8
0
 10
43.0877
 20
-2.31154
 11
42.8131
 21
-2.05363
  0
LINE
  8
0
 10
42.8131
 20
-2.05363
 11
42.5729
 21
-1.76335
  0
LINE
  8
0
 10
42.5729
 20
-1.76335
 11
42.3711
 21
-1.44525
  0
LINE
  8
0
 10
42.3711
 20
-1.44525
 11
42.2107
 21
-1.10437
  0
LINE
  8
0
 10
42.2107
 20
-1.10437
 11
42.0942
 21
-0.746063
  0
LINE
  8
0
 10
42.0942
 20
-0.746063
 11
42.0237
 21
-0.375992
  0
LINE
  8
0
 10
42.0237
 20
-0.375992
 11
42
 21
0
  0
LINE
  8
0
 10
42
 20
0
 11
42.0237
 21
0.375992
  0
LINE
  8
0
 10
42.0237
 20
0.375992
 11
42.0942
 21
0.746063
  0
LINE
  8
0
 10
42.0942
 20
0.746063
 11
42.2107
 21
1.10437
  0
LINE
  8
0
 10
42.2107
 20
1.10437
 11
42.3711
 21
1.44525
  0
LINE
  8
0
 10
42.3711
 20
1.44525
 11
42.5729
 21
1.76335
  0
LINE
  8
0
 10
42.5729
 20
1.76335
 11
42.8131
 21
2.05363
  0
LINE
  8
0
 10
42.8131
 20
2.05363
 11
43.0877
 21
2.31154
  0
LINE
  8
0
 10
43.0877
 20
2.31154
 11
43.3925
 21
2.53297
  0
LINE
  8
0
 10
43.3925
 20
2.53297
 11
43.7227
 21
2.71448
  0
LINE
  8
0
 10
43.7227
 20
2.71448
 11
44.0729
 21
2.85316
  0
LINE
  8
0
 10
44.0729
 20
2.85316
 11
44.4379
 21
2.94685
  0
LINE
  8
0
 10
44.4379
 20
2.94685
 11
44.8116
 21
2.99408
  0
LINE
  8
0
 10
44.8116
 20
2.99408
 11
45.1884
 21
2.99408
  0
LINE
  8
0
 10
45.1884
 20
2.99408
 11
45.5621
 21
2.94685
  0
LINE
  8
0
 10
45.5621
 20
2.94685
 11
45.927
 21
2.85316
  0
LINE
  8
0
 10
45.927
 20
2.85316
 11
46.2773
 21
2.71448
  0
LINE
  8
0
 10
46.2773
 20
2.71448
 11
46.6075
 21
2.53297
  0
LINE
  8
0
 10
46.6075
 20
2.53297
 11
46.9123
 21
2.31154
  0
LINE
  8
0
 10
46.9123
 20
2.31154
 11
47.1869
 21
2.05363
  0
LINE
  8
0
 10
47.1869
 20
2.05363
 11
47.427
 21
1.76335
  0
LINE
  8
0
 10
47.427
 20
1.76335
 11
47.6289
 21
1.44525
  0
LINE
  8
0
 10
47.6289
 20
1.44525
 11
47.7893
 21
1.10437
  0
LINE
  8
0
 10
47.7893
 20
1.10437
 11
47.9057
 21
0.746063
  0
LINE
  8
0
 10
47.9057
 20
0.746063
 11
47.9763
 21
0.375992
  0
LINE
  8
0
 10
47.9763
 20
0.375992
 11
48
 21
0
  0
LINE
  8
0
 10
48
 20
0
 11
47.9763
 21
-0.375992
  0
LINE
  8
0
 10
47.9763
 20
-0.375992
 11
47.9057
 21
-0.746063
  0
LINE
  8
0
 10
47.9057
 20
-0.746063
 11
47.7893
 21
-1.10437
  0
LINE
  8
0
 10
47.7893
 20
-1.10437
 11
47.6289
 21
-1.44525
  0
LINE
  8
0
 10
47.6289
 20
-1.44525
 11
47.427
 21
-1.76335
  0
LINE
  8
0
 10
47.427
 20
-1.76335
 11
47.1869
 21
-2.05363
  0
LINE
  8
0
 10
47.1869
 20
-2.05363
 11
46.9123
 21
-2.31154
  0
LINE
  8
0
 10
46.9123
 20
-2.31154
 11
46.6075
 21
-2.53297
  0
LINE
  8
0
 10
46.6075
 20
-2.53297
 11
46.2773
 21
-2.71448
  0
LINE
  8
0
 10
46.2773
 20
-2.71448
 11
45.927
 21
-2.85316
  0
LINE
  8
0
 10
45.927
 20
-2.85316
 11
45.5621
 21
-2.94685
  0
LINE
  8
0
 10
45.5621
 20
-2.94685
 11
45.1884
 21
-2.99408
  0
LINE
  8
0
 10
45.1884
 20
-2.99408
 11
44.8116
 21
-2.99408
  0
LINE
  8
0
 10
-0.18837
 20
-2.99408
 11
-0.562134
 21
-2.94685
  0
LINE
  8
0
 10
-0.562134
 20
-2.94685
 11
-0.927048
 21
-2.85316
  0
LINE
  8
0
 10
-0.927048
 20
-2.85316
 11
-1.27733
 21
-2.71448
  0
LINE
  8
0
 10
-1.27733
 20
-2.71448
 11
-1.60747
 21
-2.53297
  0
LINE
  8
0
 10
-1.60747
 20
-2.53297
 11
-1.91226
 21
-2.31154
  0
LINE
  8
0
 10
-1.91226
 20
-2.31154
 11
-2.1869
 21
-2.05363
  0
LINE
  8
0
 10
-2.1869
 20
-2.05363
 11
-2.42705
 21
-1.76335
  0
LINE
  8
0
 10
-2.42705
 20
-1.76335
 11
-2.62891
 21
-1.44525
  0
LINE
  8
0
 10
-2.62891
 20
-1.44525
 11
-2.78932
 21
-1.10437
  0
LINE
  8
0
 10
-2.78932
 20
-1.10437
 11
-2.90575
 21
-0.746063
  0
LINE
  8
0
 10
-2.90575
 20
-0.746063
 11
-2.97633
 21
-0.375992
  0
LINE
  8
0
 10
-2.97633
 20
-0.375992
 11
-3
 21
0
  0
LINE
  8
0
 10
-3
 20
0
 11
-2.97633
 21
0.375992
  0
LINE
  8
0
 10
-2.97633
 20
0.375992
 11
-2.90575
 21
0.746063
  0
LINE
  8
0
 10
-2.90575
 20
0.746063
 11
-2.78932
 21
1.10437
  0
LINE
  8
0
 10
-2.78932
 20
1.10437
 11
-2.62891
 21
1.44525
  0
LINE
  8
0
 10
-2.62891
 20
1.44525
 11
-2.42705
 21
1.76335
  0
LINE
  8
0
 10
-2.42705
 20
1.76335
 11
-2.1869
 21
2.05363
  0
LINE
  8
0
 10
-2.1869
 20
2.05363
 11
-1.91226
 21
2.31154
  0
LINE
  8
0
 10
-1.91226
 20
2.31154
 11
-1.60747
 21
2.53297
  0
LINE
  8
0
 10
-1.60747
 20
2.53297
 11
-1.27733
 21
2.71448
  0
LINE
  8
0
 10
-1.27733
 20
2.71448
 11
-0.927048
 21
2.85316
  0
LINE
  8
0
 10
-0.927048
 20
2.85316
 11
-0.562134
 21
2.94685
  0
LINE
  8
0
 10
-0.562134
 20
2.94685
 11
-0.18837
 21
2.99408
  0
LINE
  8
0
 10
-0.18837
 20
2.99408
 11
0.18837
 21
2.99408
  0
LINE
  8
0
 10
0.18837
 20
2.99408
 11
0.562134
 21
2.94685
  0
LINE
  8
0
 10
0.562134
 20
2.94685
 11
0.927048
 21
2.85316
  0
LINE
  8
0
 10
0.927048
 20
2.85316
 11
1.27733
 21
2.71448
  0
LINE
  8
0
 10
1.27733
 20
2.71448
 11
1.60747
 21
2.53297
  0
LINE
  8
0
 10
1.60747
 20
2.53297
 11
1.91226
 21
2.31154
  0
LINE
  8
0
 10
1.91226
 20
2.31154
 11
2.1869
 21
2.05363
  0
LINE
  8
0
 10
2.1869
 20
2.05363
 11
2.42705
 21
1.76335
  0
LINE
  8
0
 10
2.42705
 20
1.76335
 11
2.62891
 21
1.44525
  0
LINE
  8
0
 10
2.62891
 20
1.44525
 11
2.78932
 21
1.10437
  0
LINE
  8
0
 10
2.78932
 20
1.10437
 11
2.90575
 21
0.746063
  0
LINE
  8
0
 10
2.90575
 20
0.746063
 11
2.97633
 21
0.375992
  0
LINE
  8
0
 10
2.97633
 20
0.375992
 11
3
 21
0
  0
LINE
  8
0
 10
3
 20
0
 11
2.97633
 21
-0.375992
  0
LINE
  8
0
 10
2.97633
 20
-0.375992
 11
2.90575
 21
-0.746063
  0
LINE
  8
0
 10
2.90575
 20
-0.746063
 11
2.78932
 21
-1.10437
  0
LINE
  8
0
 10
2.78932
 20
-1.10437
 11
2.62891
 21
-1.44525
  0
LINE
  8
0
 10
2.62891
 20
-1.44525
 11
2.42705
 21
-1.76335
  0
LINE
  8
0
 10
2.42705
 20
-1.76335
 11
2.1869
 21
-2.05363
  0
LINE
  8
0
 10
2.1869
 20
-2.05363
 11
1.91226
 21
-2.31154
  0
LINE
  8
0
 10
1.91226
 20
-2.31154
 11
1.60747
 21
-2.53297
  0
LINE
  8
0
 10
1.60747
 20
-2.53297
 11
1.27733
 21
-2.71448
  0
LINE
  8
0
 10
1.27733
 20
-2.71448
 11
0.927048
 21
-2.85316
  0
LINE
  8
0
 10
0.927048
 20
-2.85316
 11
0.562134
 21
-2.94685
  0
LINE
  8
0
 10
0.562134
 20
-2.94685
 11
0.18837
 21
-2.99408
  0
LINE
  8
0
 10
0.18837
 20
-2.99408
 11
-0.18837
 21
-2.99408
  0
LINE
  8
0
 10
-45.1884
 20
-2.99408
 11
-45.5621
 21
-2.94685
  0
LINE
  8
0
 10
-45.5621
 20
-2.94685
 11
-45.927
 21
-2.85316
  0
LINE
  8
0
 10
-45.927
 20
-2.85316
 11
-46.2773
 21
-2.71448
  0
LINE
  8
0
 10
-46.2773
 20
-2.71448
 11
-46.6075
 21
-2.53297
  0
LINE
  8
0
 10
-46.6075
 20
-2.53297
 11
-46.9123
 21
-2.31154
  0
LINE
  8
0
 10
-46.9123
 20
-2.31154
 11
-47.1869
 21
-2.05363
  0
LINE
  8
0
 10
-47.1869
 20
-2.05363
 11
-47.427
 21
-1.76335
  0
LINE
  8
0
 10
-47.427
 20
-1.76335
 11
-47.6289
 21
-1.44525
  0
LINE
  8
0
 10
-47.6289
 20
-1.44525
 11
-47.7893
 21
-1.10437
  0
LINE
  8
0
 10
-47.7893
 20
-1.10437
 11
-47.9057
 21
-0.746063
  0
LINE
  8
0
 10
-47.9057
 20
-0.746063
 11
-47.9763
 21
-0.375992
  0
LINE
  8
0
 10
-47.9763
 20
-0.375992
 11
-48
 21
0
  0
LINE
  8
0
 10
-48
 20
0
 11
-47.9763
 21
0.375992
  0
LINE
  8
0
 10
-47.9763
 20
0.375992
 11
-47.9057
 21
0.746063
  0
LINE
  8
0
 10
-47.9057
 20
0.746063
 11
-47.7893
 21
1.10437
  0
LINE
  8
0
 10
-47.7893
 20
1.10437
 11
-47.6289
 21
1.44525
  0
LINE
  8
0
 10
-47.6289
 20
1.44525
 11
-47.427
 21
1.76335
  0
LINE
  8
0
 10
-47.427
 20
1.76335
 11
-47.1869
 21
2.05363
  0
LINE
  8
0
 10
-47.1869
 20
2.05363
 11
-46.9123
 21
2.31154
  0
LINE
  8
0
 10
-46.9123
 20
2.31154
 11
-46.6075
 21
2.53297
  0
LINE
  8
0
 10
-46.6075
 20
2.53297
 11
-46.2773
 21
2.71448
  0
LINE
  8
0
 10
-46.2773
 20
2.71448
 11
-45.927
 21
2.85316
  0
LINE
  8
0
 10
-45.927
 20
2.85316
 11
-45.5621
 21
2.94685
  0
LINE
  8
0
 10
-45.5621
 20
2.94685
 11
-45.1884
 21
2.99408
  0
LINE
  8
0
 10
-45.1884
 20
2.99408
 11
-44.8116
 21
2.99408
  0
LINE
  8
0
 10
-44.8116
 20
2.99408
 11
-44.4379
 21
2.94685
  0
LINE
  8
0
 10
-44.4379
 20
2.94685
 11
-44.0729
 21
2.85316
  0
LINE
  8
0
 10
-44.0729
 20
2.85316
 11
-43.7227
 21
2.71448
  0
LINE
  8
0
 10
-43.7227
 20
2.71448
 11
-43.3925
 21
2.53297
  0
LINE
  8
0
 10
-43.3925
 20
2.53297
 11
-43.0877
 21
2.31154
  0
LINE
  8
0
 10
-43.0877
 20
2.31154
 11
-42.8131
 21
2.05363
  0
LINE
  8
0
 10
-42.8131
 20
2.05363
 11
-42.5729
 21
1.76335
  0
LINE
  8
0
 10
-42.5729
 20
1.76335
 11
-42.3711
 21
1.44525
  0
LINE
  8
0
 10
-42.3711
 20
1.44525
 11
-42.2107
 21
1.10437
  0
LINE
  8
0
 10
-42.2107
 20
1.10437
 11
-42.0942
 21
0.746063
  0
LINE
  8
0
 10
-42.0942
 20
0.746063
 11
-42.0237
 21
0.375992
  0
LINE
  8
0
 10
-42.0237
 20
0.375992
 11
-42
 21
0
  0
LINE
  8
0
 10
-42
 20
0
 11
-42.0237
 21
-0.375992
  0
LINE
  8
0
 10
-42.0237
 20
-0.375992
 11
-42.0942
 21
-0.746063
  0
LINE
  8
0
 10
-42.0942
 20
-0.746063
 11
-42.2107
 21
-1.10437
  0
LINE
  8
0
 10
-42.2107
 20
-1.10437
 11
-42.3711
 21
-1.44525
  0
LINE
  8
0
 10
-42.3711
 20
-1.44525
 11
-42.5729
 21
-1.76335
  0
LINE
  8
0
 10
-42.5729
 20
-1.76335
 11
-42.8131
 21
-2.05363
  0
LINE
  8
0
 10
-42.8131
 20
-2.05363
 11
-43.0877
 21
-2.31154
  0
LINE
  8
0
 10
-43.0877
 20
-2.31154
 11
-43.3925
 21
-2.53297
  0
LINE
  8
0
 10
-43.3925
 20
-2.53297
 11
-43.7227
 21
-2.71448
  0
LINE
  8
0
 10
-43.7227
 20
-2.71448
 11
-44.0729
 21
-2.85316
  0
LINE
  8
0
 10
-44.0729
 20
-2.85316
 11
-44.4379
 21
-2.94685
  0
LINE
  8
0
 10
-44.4379
 20
-2.94685
 11
-44.8116
 21
-2.99408
  0
LINE
  8
0
 10
-44.8116
 20
-2.99408
 11
-45.1884
 21
-2.99408
  0
LINE
  8
0
 10
-30.1884
 20
-2.99408
 11
-30.5621
 21
-2.94685
  0
LINE
  8
0
 10
-30.5621
 20
-2.94685
 11
-30.927
 21
-2.85316
  0
LINE
  8
0
 10
-30.927
 20
-2.85316
 11
-31.2773
 21
-2.71448
  0
LINE
  8
0
 10
-31.2773
 20
-2.71448
 11
-31.6075
 21
-2.53297
  0
LINE
  8
0
 10
-31.6075
 20
-2.53297
 11
-31.9123
 21
-2.31154
  0
LINE
  8
0
 10
-31.9123
 20
-2.31154
 11
-32.1869
 21
-2.05363
  0
LINE
  8
0
 10
-32.1869
 20
-2.05363
 11
-32.427
 21
-1.76335
  0
LINE
  8
0
 10
-32.427
 20
-1.76335
 11
-32.6289
 21
-1.44525
  0
LINE
  8
0
 10
-32.6289
 20
-1.44525
 11
-32.7893
 21
-1.10437
  0
LINE
  8
0
 10
-32.7893
 20
-1.10437
 11
-32.9057
 21
-0.746063
  0
LINE
  8
0
 10
-32.9057
 20
-0.746063
 11
-32.9763
 21
-0.375992
  0
LINE
  8
0
 10
-32.9763
 20
-0.375992
 11
-33
 21
0
  0
LINE
  8
0
 10
-33
 20
0
 11
-32.9763
 21
0.375992
  0
LINE
  8
0
 10
-32.9763
 20
0.375992
 11
-32.9057
 21
0.746063
  0
LINE
  8
0
 10
-32.9057
 20
0.746063
 11
-32.7893
 21
1.10437
  0
LINE
  8
0
 10
-32.7893
 20
1.10437
 11
-32.6289
 21
1.44525
  0
LINE
  8
0
 10
-32.6289
 20
1.44525
 11
-32.427
 21
1.76335
  0
LINE
  8
0
 10
-32.427
 20
1.76335
 11
-32.1869
 21
2.05363
  0
LINE
  8
0
 10
-32.1869
 20
2.05363
 11
-31.9123
 21
2.31154
  0
LINE
  8
0
 10
-31.9123
 20
2.31154
 11
-31.6075
 21
2.53297
  0
LINE
  8
0
 10
-31.6075
 20
2.53297
 11
-31.2773
 21
2.71448
  0
LINE
  8
0
 10
-31.2773
 20
2.71448
 11
-30.927
 21
2.85316
  0
LINE
  8
0
 10
-30.927
 20
2.85316
 11
-30.5621
 21
2.94685
  0
LINE
  8
0
 10
-30.5621
 20
2.94685
 11
-30.1884
 21
2.99408
  0
LINE
  8
0
 10
-30.1884
 20
2.99408
 11
-29.8116
 21
2.99408
  0
LINE
  8
0
 10
-29.8116
 20
2.99408
 11
-29.4379
 21
2.94685
  0
LINE
  8
0
 10
-29.4379
 20
2.94685
 11
-29.0729
 21
2.85316
  0
LINE
  8
0
 10
-29.0729
 20
2.85316
 11
-28.7227
 21
2.71448
  0
LINE
  8
0
 10
-28.7227
 20
2.71448
 11
-28.3925
 21
2.53297
  0
LINE
  8
0
 10
-28.3925
 20
2.53297
 11
-28.0877
 21
2.31154
  0
LINE
  8
0
 10
-28.0877
 20
2.31154
 11
-27.8131
 21
2.05363
  0
LINE
  8
0
 10
-27.8131
 20
2.05363
 11
-27.5729
 21
1.76335
  0
LINE
  8
0
 10
-27.5729
 20
1.76335
 11
-27.3711
 21
1.44525
  0
LINE
  8
0
 10
-27.3711
 20
1.44525
 11
-27.2107
 21
1.10437
  0
LINE
  8
0
 10
-27.2107
 20
1.10437
 11
-27.0942
 21
0.746063
  0
LINE
  8
0
 10
-27.0942
 20
0.746063
 11
-27.0237
 21
0.375992
  0
LINE
  8
0
 10
-27.0237
 20
0.375992
 11
-27
 21
0
  0
LINE
  8
0
 10
-27
 20
0
 11
-27.0237
 21
-0.375992
  0
LINE
  8
0
 10
-27.0237
 20
-0.375992
 11
-27.0942
 21
-0.746063
  0
LINE
  8
0
 10
-27.0942
 20
-0.746063
 11
-27.2107
 21
-1.10437
  0
LINE
  8
0
 10
-27.2107
 20
-1.10437
 11
-27.3711
 21
-1.44525
  0
LINE
  8
0
 10
-27.3711
 20
-1.44525
 11
-27.5729
 21
-1.76335
  0
LINE
  8
0
 10
-27.5729
 20
-1.76335
 11
-27.8131
 21
-2.05363
  0
LINE
  8
0
 10
-27.8131
 20
-2.05363
 11
-28.0877
 21
-2.31154
  0
LINE
  8
0
 10
-28.0877
 20
-2.31154
 11
-28.3925
 21
-2.53297
  0
LINE
  8
0
 10
-28.3925
 20
-2.53297
 11
-28.7227
 21
-2.71448
  0
LINE
  8
0
 10
-28.7227
 20
-2.71448
 11
-29.0729
 21
-2.85316
  0
LINE
  8
0
 10
-29.0729
 20
-2.85316
 11
-29.4379
 21
-2.94685
  0
LINE
  8
0
 10
-29.4379
 20
-2.94685
 11
-29.8116
 21
-2.99408
  0
LINE
  8
0
 10
-29.8116
 20
-2.99408
 11
-30.1884
 21
-2.99408
  0
LINE
  8
0
 10
-8.95287
 20
0.373032
 11
-8.89465
 21
0.552185
  0
LINE
  8
0
 10
-8.89465
 20
0.552185
 11
-8.81445
 21
0.722626
  0
LINE
  8
0
 10
-8.81445
 20
0.722626
 11
-8.71352
 21
0.881668
  0
LINE
  8
0
 10
-8.71352
 20
0.881668
 11
-8.59344
 21
1.02681
  0
LINE
  8
0
 10
-8.59344
 20
1.02681
 11
-8.45613
 21
1.15576
  0
LINE
  8
0
 10
-8.45613
 20
1.15576
 11
-8.30373
 21
1.26648
  0
LINE
  8
0
 10
-8.30373
 20
1.26648
 11
-8.13866
 21
1.35724
  0
LINE
  8
0
 10
-8.13866
 20
1.35724
 11
-7.96352
 21
1.42657
  0
LINE
  8
0
 10
-7.96352
 20
1.42657
 11
-7.78107
 21
1.47342
  0
LINE
  8
0
 10
-7.78107
 20
1.47342
 11
-7.59418
 21
1.49704
  0
LINE
  8
0
 10
-7.59418
 20
1.49704
 11
-7.40581
 21
1.49704
  0
LINE
  8
0
 10
-7.40581
 20
1.49704
 11
-7.21892
 21
1.47342
  0
LINE
  8
0
 10
-7.21892
 20
1.47342
 11
-7.03647
 21
1.42657
  0
LINE
  8
0
 10
-7.03647
 20
1.42657
 11
-6.86133
 21
1.35724
  0
LINE
  8
0
 10
-6.86133
 20
1.35724
 11
-6.69626
 21
1.26648
  0
LINE
  8
0
 10
-6.69626
 20
1.26648
 11
-6.54385
 21
1.15576
  0
LINE
  8
0
 10
-6.54385
 20
1.15576
 11
-6.40654
 21
1.02681
  0
LINE
  8
0
 10
-6.40654
 20
1.02681
 11
-6.28647
 21
0.881668
  0
LINE
  8
0
 10
-6.28647
 20
0.881668
 11
-6.18553
 21
0.722626
  0
LINE
  8
0
 10
-6.18553
 20
0.722626
 11
-6.10533
 21
0.552185
  0
LINE
  8
0
 10
-6.10533
 20
0.552185
 11
-6.04712
 21
0.373032
  0
LINE
  8
0
 10
-6.04712
 20
0.373032
 11
-6.01183
 21
0.187988
  0
LINE
  8
0
 10
-6.01183
 20
0.187988
 11
-6
 21
0
  0
LINE
  8
0
 10
-6
 20
0
 11
-6.01183
 21
-0.187988
  0
LINE
  8
0
 10
-6.01183
 20
-0.187988
 11
-6.04712
 21
-0.373032
  0
LINE
  8
0
 10
-6.04712
 20
-0.373032
 11
-6.10533
 21
-0.552185
  0
LINE
  8
0
 10
-6.10533
 20
-0.552185
 11
-6.18553
 21
-0.722626
  0
LINE
  8
0
 10
-6.18553
 20
-0.722626
 11
-6.28647
 21
-0.881668
  0
LINE
  8
0
 10
-6.28647
 20
-0.881668
 11
-6.40654
 21
-1.02681
  0
LINE
  8
0
 10
-6.40654
 20
-1.02681
 11
-6.54385
 21
-1.15576
  0
LINE
  8
0
 10
-6.54385
 20
-1.15576
 11
-6.69626
 21
-1.26648
  0
LINE
  8
0
 10
-6.69626
 20
-1.26648
 11
-6.86133
 21
-1.35724
  0
LINE
  8
0
 10
-6.86133
 20
-1.35724
 11
-7.03647
 21
-1.42657
  0
LINE
  8
0
 10
-7.03647
 20
-1.42657
 11
-7.21892
 21
-1.47342
  0
LINE
  8
0
 10
-7.21892
 20
-1.47342
 11
-7.40581
 21
-1.49704
  0
LINE
  8
0
 10
-7.40581
 20
-1.49704
 11
-7.59418
 21
-1.49704
  0
LINE
  8
0
 10
-7.59418
 20
-1.49704
 11
-7.78107
 21
-1.47342
  0
LINE
  8
0
 10
-7.78107
 20
-1.47342
 11
-7.96352
 21
-1.42657
  0
LINE
  8
0
 10
-7.96352
 20
-1.42657
 11
-8.13866
 21
-1.35724
  0
LINE
  8
0
 10
-8.13866
 20
-1.35724
 11
-8.30373
 21
-1.26648
  0
LINE
  8
0
 10
-8.30373
 20
-1.26648
 11
-8.45613
 21
-1.15576
  0
LINE
  8
0
 10
-8.45613
 20
-1.15576
 11
-8.59344
 21
-1.02681
  0
LINE
  8
0
 10
-8.59344
 20
-1.02681
 11
-8.71352
 21
-0.881668
  0
LINE
  8
0
 10
-8.71352
 20
-0.881668
 11
-8.81445
 21
-0.722626
  0
LINE
  8
0
 10
-8.81445
 20
-0.722626
 11
-8.89465
 21
-0.552185
  0
LINE
  8
0
 10
-8.89465
 20
-0.552185
 11
-8.95287
 21
-0.373032
  0
LINE
  8
0
 10
-8.95287
 20
-0.373032
 11
-8.98816
 21
-0.187988
  0
LINE
  8
0
 10
-8.98816
 20
-0.187988
 11
-9
 21
0
  0
LINE
  8
0
 10
-9
 20
0
 11
-8.98816
 21
0.187988
  0
LINE
  8
0
 10
-8.98816
 20
0.187988
 11
-8.95287
 21
0.373032
  0
LINE
  8
0
 10
7.40581
 20
-1.49704
 11
7.21892
 21
-1.47342
  0
LINE
  8
0
 10
7.21892
 20
-1.47342
 11
7.03647
 21
-1.42657
  0
LINE
  8
0
 10
7.03647
 20
-1.42657
 11
6.86133
 21
-1.35724
  0
LINE
  8
0
 10
6.86133
 20
-1.35724
 11
6.69626
 21
-1.26648
  0
LINE
  8
0
 10
6.69626
 20
-1.26648
 11
6.54385
 21
-1.15576
  0
LINE
  8
0
 10
6.54385
 20
-1.15576
 11
6.40654
 21
-1.02681
  0
LINE
  8
0
 10
6.40654
 20
-1.02681
 11
6.28647
 21
-0.881668
  0
LINE
  8
0
 10
6.28647
 20
-0.881668
 11
6.18553
 21
-0.722626
  0
LINE
  8
0
 10
6.18553
 20
-0.722626
 11
6.10533
 21
-0.552185
  0
LINE
  8
0
 10
6.10533
 20
-0.552185
 11
6.04712
 21
-0.373032
  0
LINE
  8
0
 10
6.04712
 20
-0.373032
 11
6.01183
 21
-0.187988
  0
LINE
  8
0
 10
6.01183
 20
-0.187988
 11
6
 21
0
  0
LINE
  8
0
 10
6
 20
0
 11
6.01183
 21
0.187988
  0
LINE
  8
0
 10
6.01183
 20
0.187988
 11
6.04712
 21
0.373032
  0
LINE
  8
0
 10
6.04712
 20
0.373032
 11
6.10533
 21
0.552185
  0
LINE
  8
0
 10
6.10533
 20
0.552185
 11
6.18553
 21
0.722626
  0
LINE
  8
0
 10
6.18553
 20
0.722626
 11
6.28647
 21
0.881668
  0
LINE
  8
0
 10
6.28647
 20
0.881668
 11
6.40654
 21
1.02681
  0
LINE
  8
0
 10
6.40654
 20
1.02681
 11
6.54385
 21
1.15576
  0
LINE
  8
0
 10
6.54385
 20
1.15576
 11
6.69626
 21
1.26648
  0
LINE
  8
0
 10
6.69626
 20
1.26648
 11
6.86133
 21
1.35724
  0
LINE
  8
0
 10
6.86133
 20
1.35724
 11
7.03647
 21
1.42657
  0
LINE
  8
0
 10
7.03647
 20
1.42657
 11
7.21892
 21
1.47342
  0
LINE
  8
0
 10
7.21892
 20
1.47342
 11
7.40581
 21
1.49704
  0
LINE
  8
0
 10
7.40581
 20
1.49704
 11
7.59418
 21
1.49704
  0
LINE
  8
0
 10
7.59418
 20
1.49704
 11
7.78107
 21
1.47342
  0
LINE
  8
0
 10
7.78107
 20
1.47342
 11
7.96352
 21
1.42657
  0
LINE
  8
0
 10
7.96352
 20
1.42657
 11
8.13866
 21
1.35724
  0
LINE
  8
0
 10
8.13866
 20
1.35724
 11
8.30373
 21
1.26648
  0
LINE
  8
0
 10
8.30373
 20
1.26648
 11
8.45613
 21
1.15576
  0
LINE
  8
0
 10
8.45613
 20
1.15576
 11
8.59344
 21
1.02681
  0
LINE
  8
0
 10
8.59344
 20
1.02681
 11
8.71352
 21
0.881668
  0
LINE
  8
0
 10
8.71352
 20
0.881668
 11
8.81445
 21
0.722626
  0
LINE
  8
0
 10
8.81445
 20
0.722626
 11
8.89465
 21
0.552185
  0
LINE
  8
0
 10
8.89465
 20
0.552185
 11
8.95287
 21
0.373032
  0
LINE
  8
0
 10
8.95287
 20
0.373032
 11
8.98816
 21
0.187988
  0
LINE
  8
0
 10
8.98816
 20
0.187988
 11
9
 21
0
  0
LINE
  8
0
 10
9
 20
0
 11
8.98816
 21
-0.187988
  0
LINE
  8
0
 10
8.98816
 20
-0.187988
 11
8.95287
 21
-0.373032
  0
LINE
  8
0
 10
8.95287
 20
-0.373032
 11
8.89465
 21
-0.552185
  0
LINE
  8
0
 10
8.89465
 20
-0.552185
 11
8.81445
 21
-0.722626
  0
LINE
  8
0
 10
8.81445
 20
-0.722626
 11
8.71352
 21
-0.881668
  0
LINE
  8
0
 10
8.71352
 20
-0.881668
 11
8.59344
 21
-1.02681
  0
LINE
  8
0
 10
8.59344
 20
-1.02681
 11
8.45613
 21
-1.15576
  0
LINE
  8
0
 10
8.45613
 20
-1.15576
 11
8.30373
 21
-1.26648
  0
LINE
  8
0
 10
8.30373
 20
-1.26648
 11
8.13866
 21
-1.35724
  0
LINE
  8
0
 10
8.13866
 20
-1.35724
 11
7.96352
 21
-1.42657
  0
LINE
  8
0
 10
7.96352
 20
-1.42657
 11
7.78107
 21
-1.47342
  0
LINE
  8
0
 10
7.78107
 20
-1.47342
 11
7.59418
 21
-1.49704
  0
LINE
  8
0
 10
7.59418
 20
-1.49704
 11
7.40581
 21
-1.49704
  0
LINE
  8
0
 10
22.4058
 20
-1.49704
 11
22.2189
 21
-1.47342
  0
LINE
  8
0
 10
22.2189
 20
-1.47342
 11
22.0365
 21
-1.42657
  0
LINE
  8
0
 10
22.0365
 20
-1.42657
 11
21.8613
 21
-1.35724
  0
LINE
  8
0
 10
21.8613
 20
-1.35724
 11
21.6963
 21
-1.26648
  0
LINE
  8
0
 10
21.6963
 20
-1.26648
 11
21.5439
 21
-1.15576
  0
LINE
  8
0
 10
21.5439
 20
-1.15576
 11
21.4065
 21
-1.02681
  0
LINE
  8
0
 10
21.4065
 20
-1.02681
 11
21.2865
 21
-0.881668
  0
LINE
  8
0
 10
21.2865
 20
-0.881668
 11
21.1855
 21
-0.722626
  0
LINE
  8
0
 10
21.1855
 20
-0.722626
 11
21.1053
 21
-0.552185
  0
LINE
  8
0
 10
21.1053
 20
-0.552185
 11
21.0471
 21
-0.373032
  0
LINE
  8
0
 10
21.0471
 20
-0.373032
 11
21.0118
 21
-0.187988
  0
LINE
  8
0
 10
21.0118
 20
-0.187988
 11
21
 21
0
  0
LINE
  8
0
 10
21
 20
0
 11
21.0118
 21
0.187988
  0
LINE
  8
0
 10
21.0118
 20
0.187988
 11
21.0471
 21
0.373032
  0
LINE
  8
0
 10
21.0471
 20
0.373032
 11
21.1053
 21
0.552185
  0
LINE
  8
0
 10
21.1053
 20
0.552185
 11
21.1855
 21
0.722626
  0
LINE
  8
0
 10
21.1855
 20
0.722626
 11
21.2865
 21
0.881668
  0
LINE
  8
0
 10
21.2865
 20
0.881668
 11
21.4065
 21
1.02681
  0
LINE
  8
0
 10
21.4065
 20
1.02681
 11
21.5439
 21
1.15576
  0
LINE
  8
0
 10
21.5439
 20
1.15576
 11
21.6963
 21
1.26648
  0
LINE
  8
0
 10
21.6963
 20
1.26648
 11
21.8613
 21
1.35724
  0
LINE
  8
0
 10
21.8613
 20
1.35724
 11
22.0365
 21
1.42657
  0
LINE
  8
0
 10
22.0365
 20
1.42657
 11
22.2189
 21
1.47342
  0
LINE
  8
0
 10
22.2189
 20
1.47342
 11
22.4058
 21
1.49704
  0
LINE
  8
0
 10
22.4058
 20
1.49704
 11
22.5942
 21
1.49704
  0
LINE
  8
0
 10
22.5942
 20
1.49704
 11
22.7811
 21
1.47342
  0
LINE
  8
0
 10
22.7811
 20
1.47342
 11
22.9635
 21
1.42657
  0
LINE
  8
0
 10
22.9635
 20
1.42657
 11
23.1387
 21
1.35724
  0
LINE
  8
0
 10
23.1387
 20
1.35724
 11
23.3037
 21
1.26648
  0
LINE
  8
0
 10
23.3037
 20
1.26648
 11
23.4561
 21
1.15576
  0
LINE
  8
0
 10
23.4561
 20
1.15576
 11
23.5934
 21
1.02681
  0
LINE
  8
0
 10
23.5934
 20
1.02681
 11
23.7135
 21
0.881668
  0
LINE
  8
0
 10
23.7135
 20
0.881668
 11
23.8145
 21
0.722626
  0
LINE
  8
0
 10
23.8145
 20
0.722626
 11
23.8947
 21
0.552185
  0
LINE
  8
0
 10
23.8947
 20
0.552185
 11
23.9529
 21
0.373032
  0
LINE
  8
0
 10
23.9529
 20
0.373032
 11
23.9882
 21
0.187988
  0
LINE
  8
0
 10
23.9882
 20
0.187988
 11
24
 21
0
  0
LINE
  8
0
 10
24
 20
0
 11
23.9882
 21
-0.187988
  0
LINE
  8
0
 10
23.9882
 20
-0.187988
 11
23.9529
 21
-0.373032
  0
LINE
  8
0
 10
23.9529
 20
-0.373032
 11
23.8947
 21
-0.552185
  0
LINE
  8
0
 10
23.8947
 20
-0.552185
 11
23.8145
 21
-0.722626
  0
LINE
  8
0
 10
23.8145
 20
-0.722626
 11
23.7135
 21
-0.881668
  0
LINE
  8
0
 10
23.7135
 20
-0.881668
 11
23.5934
 21
-1.02681
  0
LINE
  8
0
 10
23.5934
 20
-1.02681
 11
23.4561
 21
-1.15576
  0
LINE
  8
0
 10
23.4561
 20
-1.15576
 11
23.3037
 21
-1.26648
  0
LINE
  8
0
 10
23.3037
 20
-1.26648
 11
23.1387
 21
-1.35724
  0
LINE
  8
0
 10
23.1387
 20
-1.35724
 11
22.9635
 21
-1.42657
  0
LINE
  8
0
 10
22.9635
 20
-1.42657
 11
22.7811
 21
-1.47342
  0
LINE
  8
0
 10
22.7811
 20
-1.47342
 11
22.5942
 21
-1.49704
  0
LINE
  8
0
 10
22.5942
 20
-1.49704
 11
22.4058
 21
-1.49704
  0
LINE
  8
0
 10
-22.5942
 20
-1.49704
 11
-22.7811
 21
-1.47342
  0
LINE
  8
0
 10
-22.7811
 20
-1.47342
 11
-22.9635
 21
-1.42657
  0
LINE
  8
0
 10
-22.9635
 20
-1.42657
 11
-23.1387
 21
-1.35724
  0
LINE
  8
0
 10
-23.1387
 20
-1.35724
 11
-23.3037
 21
-1.26648
  0
LINE
  8
0
 10
-23.3037
 20
-1.26648
 11
-23.4561
 21
-1.15576
  0
LINE
  8
0
 10
-23.4561
 20
-1.15576
 11
-23.5934
 21
-1.02681
  0
LINE
  8
0
 10
-23.5934
 20
-1.02681
 11
-23.7135
 21
-0.881668
  0
LINE
  8
0
 10
-23.7135
 20
-0.881668
 11
-23.8145
 21
-0.722626
  0
LINE
  8
0
 10
-23.8145
 20
-0.722626
 11
-23.8947
 21
-0.552185
  0
LINE
  8
0
 10
-23.8947
 20
-0.552185
 11
-23.9529
 21
-0.373032
  0
LINE
  8
0
 10
-23.9529
 20
-0.373032
 11
-23.9882
 21
-0.187988
  0
LINE
  8
0
 10
-23.9882
 20
-0.187988
 11
-24
 21
0
  0
LINE
  8
0
 10
-24
 20
0
 11
-23.9882
 21
0.187988
  0
LINE
  8
0
 10
-23.9882
 20
0.187988
 11
-23.9529
 21
0.373032
  0
LINE
  8
0
 10
-23.9529
 20
0.373032
 11
-23.8947
 21
0.552185
  0
LINE
  8
0
 10
-23.8947
 20
0.552185
 11
-23.8145
 21
0.722626
  0
LINE
  8
0
 10
-23.8145
 20
0.722626
 11
-23.7135
 21
0.881668
  0
LINE
  8
0
 10
-23.7135
 20
0.881668
 11
-23.5934
 21
1.02681
  0
LINE
  8
0
 10
-23.5934
 20
1.02681
 11
-23.4561
 21
1.15576
  0
LINE
  8
0
 10
-23.4561
 20
1.15576
 11
-23.3037
 21
1.26648
  0
LINE
  8
0
 10
-23.3037
 20
1.26648
 11
-23.1387
 21
1.35724
  0
LINE
  8
0
 10
-23.1387
 20
1.35724
 11
-22.9635
 21
1.42657
  0
LINE
  8
0
 10
-22.9635
 20
1.42657
 11
-22.7811
 21
1.47342
  0
LINE
  8
0
 10
-22.7811
 20
1.47342
 11
-22.5942
 21
1.49704
  0
LINE
  8
0
 10
-22.5942
 20
1.49704
 11
-22.4058
 21
1.49704
  0
LINE
  8
0
 10
-22.4058
 20
1.49704
 11
-22.2189
 21
1.47342
  0
LINE
  8
0
 10
-22.2189
 20
1.47342
 11
-22.0365
 21
1.42657
  0
LINE
  8
0
 10
-22.0365
 20
1.42657
 11
-21.8613
 21
1.35724
  0
LINE
  8
0
 10
-21.8613
 20
1.35724
 11
-21.6963
 21
1.26648
  0
LINE
  8
0
 10
-21.6963
 20
1.26648
 11
-21.5439
 21
1.15576
  0
LINE
  8
0
 10
-21.5439
 20
1.15576
 11
-21.4065
 21
1.02681
  0
LINE
  8
0
 10
-21.4065
 20
1.02681
 11
-21.2865
 21
0.881668
  0
LINE
  8
0
 10
-21.2865
 20
0.881668
 11
-21.1855
 21
0.722626
  0
LINE
  8
0
 10
-21.1855
 20
0.722626
 11
-21.1053
 21
0.552185
  0
LINE
  8
0
 10
-21.1053
 20
0.552185
 11
-21.0471
 21
0.373032
  0
LINE
  8
0
 10
-21.0471
 20
0.373032
 11
-21.0118
 21
0.187988
  0
LINE
  8
0
 10
-21.0118
 20
0.187988
 11
-21
 21
0
  0
LINE
  8
0
 10
-21
 20
0
 11
-21.0118
 21
-0.187988
  0
LINE
  8
0
 10
-21.0118
 20
-0.187988
 11
-21.0471
 21
-0.373032
  0
LINE
  8
0
 10
-21.0471
 20
-0.373032
 11
-21.1053
 21
-0.552185
  0
LINE
  8
0
 10
-21.1053
 20
-0.552185
 11
-21.1855
 21
-0.722626
  0
LINE
  8
0
 10
-21.1855
 20
-0.722626
 11
-21.2865
 21
-0.881668
  0
LINE
  8
0
 10
-21.2865
 20
-0.881668
 11
-21.4065
 21
-1.02681
  0
LINE
  8
0
 10
-21.4065
 20
-1.02681
 11
-21.5439
 21
-1.15576
  0
LINE
  8
0
 10
-21.5439
 20
-1.15576
 11
-21.6963
 21
-1.26648
  0
LINE
  8
0
 10
-21.6963
 20
-1.26648
 11
-21.8613
 21
-1.35724
  0
LINE
  8
0
 10
-21.8613
 20
-1.35724
 11
-22.0365
 21
-1.42657
  0
LINE
  8
0
 10
-22.0365
 20
-1.42657
 11
-22.2189
 21
-1.47342
  0
LINE
  8
0
 10
-22.2189
 20
-1.47342
 11
-22.4058
 21
-1.49704
  0
LINE
  8
0
 10
-22.4058
 20
-1.49704
 11
-22.5942
 21
-1.49704
  0
LINE
  8
0
 10
-37.5942
 20
-1.49704
 11
-37.7811
 21
-1.47342
  0
LINE
  8
0
 10
-37.7811
 20
-1.47342
 11
-37.9635
 21
-1.42657
  0
LINE
  8
0
 10
-37.9635
 20
-1.42657
 11
-38.1387
 21
-1.35724
  0
LINE
  8
0
 10
-38.1387
 20
-1.35724
 11
-38.3037
 21
-1.26648
  0
LINE
  8
0
 10
-38.3037
 20
-1.26648
 11
-38.4561
 21
-1.15576
  0
LINE
  8
0
 10
-38.4561
 20
-1.15576
 11
-38.5934
 21
-1.02681
  0
LINE
  8
0
 10
-38.5934
 20
-1.02681
 11
-38.7135
 21
-0.881668
  0
LINE
  8
0
 10
-38.7135
 20
-0.881668
 11
-38.8145
 21
-0.722626
  0
LINE
  8
0
 10
-38.8145
 20
-0.722626
 11
-38.8947
 21
-0.552185
  0
LINE
  8
0
 10
-38.8947
 20
-0.552185
 11
-38.9529
 21
-0.373032
  0
LINE
  8
0
 10
-38.9529
 20
-0.373032
 11
-38.9882
 21
-0.187988
  0
LINE
  8
0
 10
-38.9882
 20
-0.187988
 11
-39
 21
0
  0
LINE
  8
0
 10
-39
 20
0
 11
-38.9882
 21
0.187988
  0
LINE
  8
0
 10
-38.9882
 20
0.187988
 11
-38.9529
 21
0.373032
  0
LINE
  8
0
 10
-38.9529
 20
0.373032
 11
-38.8947
 21
0.552185
  0
LINE
  8
0
 10
-38.8947
 20
0.552185
 11
-38.8145
 21
0.722626
  0
LINE
  8
0
 10
-38.8145
 20
0.722626
 11
-38.7135
 21
0.881668
  0
LINE
  8
0
 10
-38.7135
 20
0.881668
 11
-38.5934
 21
1.02681
  0
LINE
  8
0
 10
-38.5934
 20
1.02681
 11
-38.4561
 21
1.15576
  0
LINE
  8
0
 10
-38.4561
 20
1.15576
 11
-38.3037
 21
1.26648
  0
LINE
  8
0
 10
-38.3037
 20
1.26648
 11
-38.1387
 21
1.35724
  0
LINE
  8
0
 10
-38.1387
 20
1.35724
 11
-37.9635
 21
1.42657
  0
LINE
  8
0
 10
-37.9635
 20
1.42657
 11
-37.7811
 21
1.47342
  0
LINE
  8
0
 10
-37.7811
 20
1.47342
 11
-37.5942
 21
1.49704
  0
LINE
  8
0
 10
-37.5942
 20
1.49704
 11
-37.4058
 21
1.49704
  0
LINE
  8
0
 10
-37.4058
 20
1.49704
 11
-37.2189
 21
1.47342
  0
LINE
  8
0
 10
-37.2189
 20
1.47342
 11
-37.0365
 21
1.42657
  0
LINE
  8
0
 10
-37.0365
 20
1.42657
 11
-36.8613
 21
1.35724
  0
LINE
  8
0
 10
-36.8613
 20
1.35724
 11
-36.6963
 21
1.26648
  0
LINE
  8
0
 10
-36.6963
 20
1.26648
 11
-36.5439
 21
1.15576
  0
LINE
  8
0
 10
-36.5439
 20
1.15576
 11
-36.4065
 21
1.02681
  0
LINE
  8
0
 10
-36.4065
 20
1.02681
 11
-36.2865
 21
0.881668
  0
LINE
  8
0
 10
-36.2865
 20
0.881668
 11
-36.1855
 21
0.722626
  0
LINE
  8
0
 10
-36.1855
 20
0.722626
 11
-36.1053
 21
0.552185
  0
LINE
  8
0
 10
-36.1053
 20
0.552185
 11
-36.0471
 21
0.373032
  0
LINE
  8
0
 10
-36.0471
 20
0.373032
 11
-36.0118
 21
0.187988
  0
LINE
  8
0
 10
-36.0118
 20
0.187988
 11
-36
 21
0
  0
LINE
  8
0
 10
-36
 20
0
 11
-36.0118
 21
-0.187988
  0
LINE
  8
0
 10
-36.0118
 20
-0.187988
 11
-36.0471
 21
-0.373032
  0
LINE
  8
0
 10
-36.0471
 20
-0.373032
 11
-36.1053
 21
-0.552185
  0
LINE
  8
0
 10
-36.1053
 20
-0.552185
 11
-36.1855
 21
-0.722626
  0
LINE
  8
0
 10
-36.1855
 20
-0.722626
 11
-36.2865
 21
-0.881668
  0
LINE
  8
0
 10
-36.2865
 20
-0.881668
 11
-36.4065
 21
-1.02681
  0
LINE
  8
0
 10
-36.4065
 20
-1.02681
 11
-36.5439
 21
-1.15576
  0
LINE
  8
0
 10
-36.5439
 20
-1.15576
 11
-36.6963
 21
-1.26648
  0
LINE
  8
0
 10
-36.6963
 20
-1.26648
 11
-36.8613
 21
-1.35724
  0
LINE
  8
0
 10
-36.8613
 20
-1.35724
 11
-37.0365
 21
-1.42657
  0
LINE
  8
0
 10
-37.0365
 20
-1.42657
 11
-37.2189
 21
-1.47342
  0
LINE
  8
0
 10
-37.2189
 20
-1.47342
 11
-37.4058
 21
-1.49704
  0
LINE
  8
0
 10
-37.4058
 20
-1.49704
 11
-37.5942
 21
-1.49704
  0
LINE
  8
0
 10
37.4058
 20
-1.49704
 11
37.2189
 21
-1.47342
  0
LINE
  8
0
 10
37.2189
 20
-1.47342
 11
37.0365
 21
-1.42657
  0
LINE
  8
0
 10
37.0365
 20
-1.42657
 11
36.8613
 21
-1.35724
  0
LINE
  8
0
 10
36.8613
 20
-1.35724
 11
36.6963
 21
-1.26648
  0
LINE
  8
0
 10
36.6963
 20
-1.26648
 11
36.5439
 21
-1.15576
  0
LINE
  8
0
 10
36.5439
 20
-1.15576
 11
36.4065
 21
-1.02681
  0
LINE
  8
0
 10
36.4065
 20
-1.02681
 11
36.2865
 21
-0.881668
  0
LINE
  8
0
 10
36.2865
 20
-0.881668
 11
36.1855
 21
-0.722626
  0
LINE
  8
0
 10
36.1855
 20
-0.722626
 11
36.1053
 21
-0.552185
  0
LINE
  8
0
 10
36.1053
 20
-0.552185
 11
36.0471
 21
-0.373032
  0
LINE
  8
0
 10
36.0471
 20
-0.373032
 11
36.0118
 21
-0.187988
  0
LINE
  8
0
 10
36.0118
 20
-0.187988
 11
36
 21
0
  0
LINE
  8
0
 10
36
 20
0
 11
36.0118
 21
0.187988
  0
LINE
  8
0
 10
36.0118
 20
0.187988
 11
36.0471
 21
0.373032
  0
LINE
  8
0
 10
36.0471
 20
0.373032
 11
36.1053
 21
0.552185
  0
LINE
  8
0
 10
36.1053
 20
0.552185
 11
36.1855
 21
0.722626
  0
LINE
  8
0
 10
36.1855
 20
0.722626
 11
36.2865
 21
0.881668
  0
LINE
  8
0
 10
36.2865
 20
0.881668
 11
36.4065
 21
1.02681
  0
LINE
  8
0
 10
36.4065
 20
1.02681
 11
36.5439
 21
1.15576
  0
LINE
  8
0
 10
36.5439
 20
1.15576
 11
36.6963
 21
1.26648
  0
LINE
  8
0
 10
36.6963
 20
1.26648
 11
36.8613
 21
1.35724
  0
LINE
  8
0
 10
36.8613
 20
1.35724
 11
37.0365
 21
1.42657
  0
LINE
  8
0
 10
37.0365
 20
1.42657
 11
37.2189
 21
1.47342
  0
LINE
  8
0
 10
37.2189
 20
1.47342
 11
37.4058
 21
1.49704
  0
LINE
  8
0
 10
37.4058
 20
1.49704
 11
37.5942
 21
1.49704
  0
LINE
  8
0
 10
37.5942
 20
1.49704
 11
37.7811
 21
1.47342
  0
LINE
  8
0
 10
37.7811
 20
1.47342
 11
37.9635
 21
1.42657
  0
LINE
  8
0
 10
37.9635
 20
1.42657
 11
38.1387
 21
1.35724
  0
LINE
  8
0
 10
38.1387
 20
1.35724
 11
38.3037
 21
1.26648
  0
LINE
  8
0
 10
38.3037
 20
1.26648
 11
38.4561
 21
1.15576
  0
LINE
  8
0
 10
38.4561
 20
1.15576
 11
38.5934
 21
1.02681
  0
LINE
  8
0
 10
38.5934
 20
1.02681
 11
38.7135
 21
0.881668
  0
LINE
  8
0
 10
38.7135
 20
0.881668
 11
38.8145
 21
0.722626
  0
LINE
  8
0
 10
38.8145
 20
0.722626
 11
38.8947
 21
0.552185
  0
LINE
  8
0
 10
38.8947
 20
0.552185
 11
38.9529
 21
0.373032
  0
LINE
  8
0
 10
38.9529
 20
0.373032
 11
38.9882
 21
0.187988
  0
LINE
  8
0
 10
38.9882
 20
0.187988
 11
39
 21
0
  0
LINE
  8
0
 10
39
 20
0
 11
38.9882
 21
-0.187988
  0
LINE
  8
0
 10
38.9882
 20
-0.187988
 11
38.9529
 21
-0.373032
  0
LINE
  8
0
 10
38.9529
 20
-0.373032
 11
38.8947
 21
-0.552185
  0
LINE
  8
0
 10
38.8947
 20
-0.552185
 11
38.8145
 21
-0.722626
  0
LINE
  8
0
 10
38.8145
 20
-0.722626
 11
38.7135
 21
-0.881668
  0
LINE
  8
0
 10
38.7135
 20
-0.881668
 11
38.5934
 21
-1.02681
  0
LINE
  8
0
 10
38.5934
 20
-1.02681
 11
38.4561
 21
-1.15576
  0
LINE
  8
0
 10
38.4561
 20
-1.15576
 11
38.3037
 21
-1.26648
  0
LINE
  8
0
 10
38.3037
 20
-1.26648
 11
38.1387
 21
-1.35724
  0
LINE
  8
0
 10
38.1387
 20
-1.35724
 11
37.9635
 21
-1.42657
  0
LINE
  8
0
 10
37.9635
 20
-1.42657
 11
37.7811
 21
-1.47342
  0
LINE
  8
0
 10
37.7811
 20
-1.47342
 11
37.5942
 21
-1.49704
  0
LINE
  8
0
 10
37.5942
 20
-1.49704
 11
37.4058
 21
-1.49704
  0
LINE
  8
0
 10
-10.8317
 20
-32.66
 11
-10.8317
 21
-12.1096
  0
LINE
  8
0
 10
-10.8317
 20
-12.1096
 11
2.63266
 21
-12.1096
  0
LINE
  8
0
 10
2.63266
 20
-12.1096
 11
5.48701
 21
-12.32
  0
LINE
  8
0
 10
5.48701
 20
-12.32
 11
7.90225
 21
-12.9511
  0
LINE
  8
0
 10
7.90225
 20
-12.9511
 11
9.87834
 21
-14.0029
  0
LINE
  8
0
 10
9.87834
 20
-14.0029
 11
11.4153
 21
-15.4754
  0
LINE
  8
0
 10
11.4153
 20
-15.4754
 11
12.5131
 21
-17.3686
  0
LINE
  8
0
 10
12.5131
 20
-17.3686
 11
13.1718
 21
-19.6825
  0
LINE
  8
0
 10
13.1718
 20
-19.6825
 11
13.3914
 21
-22.4171
  0
LINE
  8
0
 10
13.3914
 20
-22.4171
 11
13.1745
 21
-25.1346
  0
LINE
  8
0
 10
13.1745
 20
-25.1346
 11
12.5236
 21
-27.4341
  0
LINE
  8
0
 10
12.5236
 20
-27.4341
 11
11.4389
 21
-29.3154
  0
LINE
  8
0
 10
11.4389
 20
-29.3154
 11
9.92023
 21
-30.7787
  0
LINE
  8
0
 10
9.92023
 20
-30.7787
 11
7.96768
 21
-31.8239
  0
LINE
  8
0
 10
7.96768
 20
-31.8239
 11
5.58124
 21
-32.451
  0
LINE
  8
0
 10
5.58124
 20
-32.451
 11
2.76091
 21
-32.66
  0
LINE
  8
0
 10
2.76091
 20
-32.66
 11
-10.8317
 21
-32.66
  0
LINE
  8
0
 10
-10.8317
 20
-70.7978
 11
-10.8317
 21
-46.7039
  0
LINE
  8
0
 10
-10.8317
 20
-46.7039
 11
5.27365
 21
-46.7039
  0
LINE
  8
0
 10
5.27365
 20
-46.7039
 11
7.06956
 21
-46.7663
  0
LINE
  8
0
 10
7.06956
 20
-46.7663
 11
8.73926
 21
-46.9537
  0
LINE
  8
0
 10
8.73926
 20
-46.9537
 11
10.2827
 21
-47.2659
  0
LINE
  8
0
 10
10.2827
 20
-47.2659
 11
11.7
 21
-47.7031
  0
LINE
  8
0
 10
11.7
 20
-47.7031
 11
12.991
 21
-48.2651
  0
LINE
  8
0
 10
12.991
 20
-48.2651
 11
14.1559
 21
-48.952
  0
LINE
  8
0
 10
14.1559
 20
-48.952
 11
15.1945
 21
-49.7638
  0
LINE
  8
0
 10
15.1945
 20
-49.7638
 11
16.1003
 21
-50.6914
  0
LINE
  8
0
 10
16.1003
 20
-50.6914
 11
16.8668
 21
-51.7254
  0
LINE
  8
0
 10
16.8668
 20
-51.7254
 11
17.4939
 21
-52.866
  0
LINE
  8
0
 10
17.4939
 20
-52.866
 11
17.9817
 21
-54.1131
  0
LINE
  8
0
 10
17.9817
 20
-54.1131
 11
18.3301
 21
-55.4667
  0
LINE
  8
0
 10
18.3301
 20
-55.4667
 11
18.5391
 21
-56.9268
  0
LINE
  8
0
 10
18.5391
 20
-56.9268
 11
18.6088
 21
-58.4934
  0
LINE
  8
0
 10
18.6088
 20
-58.4934
 11
18.3459
 21
-61.7578
  0
LINE
  8
0
 10
18.3459
 20
-61.7578
 11
17.5571
 21
-64.52
  0
LINE
  8
0
 10
17.5571
 20
-64.52
 11
16.2424
 21
-66.78
  0
LINE
  8
0
 10
16.2424
 20
-66.78
 11
14.4018
 21
-68.5378
  0
LINE
  8
0
 10
14.4018
 20
-68.5378
 11
12.0354
 21
-69.7934
  0
LINE
  8
0
 10
12.0354
 20
-69.7934
 11
9.14308
 21
-70.5467
  0
LINE
  8
0
 10
9.14308
 20
-70.5467
 11
5.7249
 21
-70.7978
  0
LINE
  8
0
 10
5.7249
 20
-70.7978
 11
-10.8317
 21
-70.7978
  0
LINE
  8
0
 10
-12.0942
 20
-0.746063
 11
-12.2107
 21
-1.10437
  0
LINE
  8
0
 10
-12.2107
 20
-1.10437
 11
-12.3711
 21
-1.44525
  0
LINE
  8
0
 10
-12.3711
 20
-1.44525
 11
-12.5729
 21
-1.76335
  0
LINE
  8
0
 10
-12.5729
 20
-1.76335
 11
-12.8131
 21
-2.05363
  0
LINE
  8
0
 10
-12.8131
 20
-2.05363
 11
-13.0877
 21
-2.31154
  0
LINE
  8
0
 10
-13.0877
 20
-2.31154
 11
-13.3925
 21
-2.53297
  0
LINE
  8
0
 10
-13.3925
 20
-2.53297
 11
-13.7227
 21
-2.71448
  0
LINE
  8
0
 10
-13.7227
 20
-2.71448
 11
-14.0729
 21
-2.85316
  0
LINE
  8
0
 10
-14.0729
 20
-2.85316
 11
-14.4379
 21
-2.94685
  0
LINE
  8
0
 10
-14.4379
 20
-2.94685
 11
-14.8116
 21
-2.99408
  0
LINE
  8
0
 10
-14.8116
 20
-2.99408
 11
-15.1884
 21
-2.99408
  0
LINE
  8
0
 10
-15.1884
 20
-2.99408
 11
-15.5621
 21
-2.94685
  0
LINE
  8
0
 10
-15.5621
 20
-2.94685
 11
-15.927
 21
-2.85316
  0
LINE
  8
0
 10
-15.927
 20
-2.85316
 11
-16.2773
 21
-2.71448
  0
LINE
  8
0
 10
-16.2773
 20
-2.71448
 11
-16.6075
 21
-2.53297
  0
LINE
  8
0
 10
-16.6075
 20
-2.53297
 11
-16.9123
 21
-2.31154
  0
LINE
  8
0
 10
-16.9123
 20
-2.31154
 11
-17.1869
 21
-2.05363
  0
LINE
  8
0
 10
-17.1869
 20
-2.05363
 11
-17.427
 21
-1.76335
  0
LINE
  8
0
 10
-17.427
 20
-1.76335
 11
-17.6289
 21
-1.44525
  0
LINE
  8
0
 10
-17.6289
 20
-1.44525
 11
-17.7893
 21
-1.10437
  0
LINE
  8
0
 10
-17.7893
 20
-1.10437
 11
-17.9057
 21
-0.746063
  0
LINE
  8
0
 10
-17.9057
 20
-0.746063
 11
-17.9763
 21
-0.375992
  0
LINE
  8
0
 10
-17.9763
 20
-0.375992
 11
-18
 21
0
  0
LINE
  8
0
 10
-18
 20
0
 11
-17.9763
 21
0.375992
  0
LINE
  8
0
 10
-17.9763
 20
0.375992
 11
-17.9057
 21
0.746063
  0
LINE
  8
0
 10
-17.9057
 20
0.746063
 11
-17.7893
 21
1.10437
  0
LINE
  8
0
 10
-17.7893
 20
1.10437
 11
-17.6289
 21
1.44525
  0
LINE
  8
0
 10
-17.6289
 20
1.44525
 11
-17.427
 21
1.76335
  0
LINE
  8
0
 10
-17.427
 20
1.76335
 11
-17.1869
 21
2.05363
  0
LINE
  8
0
 10
-17.1869
 20
2.05363
 11
-16.9123
 21
2.31154
  0
LINE
  8
0
 10
-16.9123
 20
2.31154
 11
-16.6075
 21
2.53297
  0
LINE
  8
0
 10
-16.6075
 20
2.53297
 11
-16.2773
 21
2.71448
  0
LINE
  8
0
 10
-16.2773
 20
2.71448
 11
-15.927
 21
2.85316
  0
LINE
  8
0
 10
-15.927
 20
2.85316
 11
-15.5621
 21
2.94685
  0
LINE
  8
0
 10
-15.5621
 20
2.94685
 11
-15.1884
 21
2.99408
  0
LINE
  8
0
 10
-15.1884
 20
2.99408
 11
-14.8116
 21
2.99408
  0
LINE
  8
0
 10
-14.8116
 20
2.99408
 11
-14.4379
 21
2.94685
  0
LINE
  8
0
 10
-14.4379
 20
2.94685
 11
-14.0729
 21
2.85316
  0
LINE
  8
0
 10
-14.0729
 20
2.85316
 11
-13.7227
 21
2.71448
  0
LINE
  8
0
 10
-13.7227
 20
2.71448
 11
-13.3925
 21
2.53297
  0
LINE
  8
0
 10
-13.3925
 20
2.53297
 11
-13.0877
 21
2.31154
  0
LINE
  8
0
 10
-13.0877
 20
2.31154
 11
-12.8131
 21
2.05363
  0
LINE
  8
0
 10
-12.8131
 20
2.05363
 11
-12.5729
 21
1.76335
  0
LINE
  8
0
 10
-12.5729
 20
1.76335
 11
-12.3711
 21
1.44525
  0
LINE
  8
0
 10
-12.3711
 20
1.44525
 11
-12.2107
 21
1.10437
  0
LINE
  8
0
 10
-12.2107
 20
1.10437
 11
-12.0942
 21
0.746063
  0
LINE
  8
0
 10
-12.0942
 20
0.746063
 11
-12.0237
 21
0.375992
  0
LINE
  8
0
 10
-12.0237
 20
0.375992
 11
-12
 21
0
  0
LINE
  8
0
 10
-12
 20
0
 11
-12.0237
 21
-0.375992
  0
LINE
  8
0
 10
-12.0237
 20
-0.375992
 11
-12.0942
 21
-0.746063
  0
ENDSEC
  0
SECTION
  2
OBJECTS
  0
DICTIONARY
  0
ENDSEC
  0
EOF
