solid OpenSCAD_Model
  facet normal 0.998027 0.0627865 0
    outer loop
      vertex 62.5 0 13
      vertex 62.0072 7.83333 0
      vertex 62.0072 7.83333 13
    endloop
  endfacet
  facet normal 0.998027 0.0627865 0
    outer loop
      vertex 62.0072 7.83333 0
      vertex 62.5 0 13
      vertex 62.5 0 0
    endloop
  endfacet
  facet normal -0.998027 0.0627865 0
    outer loop
      vertex -62.5 0 0
      vertex -62.0072 7.83333 13
      vertex -62.0072 7.83333 0
    endloop
  endfacet
  facet normal -0.998027 0.0627865 0
    outer loop
      vertex -62.0072 7.83333 13
      vertex -62.5 0 0
      vertex -62.5 0 13
    endloop
  endfacet
  facet normal 0 1 -0
    outer loop
      vertex 3.92441 62.3767 0
      vertex -3.92441 62.3767 13
      vertex 3.92441 62.3767 13
    endloop
  endfacet
  facet normal 0 1 0
    outer loop
      vertex -3.92441 62.3767 13
      vertex 3.92441 62.3767 0
      vertex -3.92441 62.3767 0
    endloop
  endfacet
  facet normal 0 -1 0
    outer loop
      vertex -3.92441 -62.3767 0
      vertex 3.92441 -62.3767 13
      vertex -3.92441 -62.3767 13
    endloop
  endfacet
  facet normal 0 -1 -0
    outer loop
      vertex 3.92441 -62.3767 13
      vertex -3.92441 -62.3767 0
      vertex 3.92441 -62.3767 0
    endloop
  endfacet
  facet normal 0.684551 0.728965 -0
    outer loop
      vertex 45.5605 42.7842 0
      vertex 39.839 48.1571 13
      vertex 45.5605 42.7842 13
    endloop
  endfacet
  facet normal 0.684551 0.728965 0
    outer loop
      vertex 39.839 48.1571 13
      vertex 45.5605 42.7842 0
      vertex 39.839 48.1571 0
    endloop
  endfacet
  facet normal -0.684551 0.728965 0
    outer loop
      vertex -39.839 48.1571 0
      vertex -45.5605 42.7842 13
      vertex -39.839 48.1571 13
    endloop
  endfacet
  facet normal -0.684551 0.728965 0
    outer loop
      vertex -45.5605 42.7842 13
      vertex -39.839 48.1571 0
      vertex -45.5605 42.7842 0
    endloop
  endfacet
  facet normal -0.368122 0.929778 0
    outer loop
      vertex -19.3136 59.441 0
      vertex -26.6112 56.5517 13
      vertex -19.3136 59.441 13
    endloop
  endfacet
  facet normal -0.368122 0.929778 0
    outer loop
      vertex -26.6112 56.5517 13
      vertex -19.3136 59.441 0
      vertex -26.6112 56.5517 0
    endloop
  endfacet
  facet normal 0.90483 0.425774 0
    outer loop
      vertex 58.111 23.0078 13
      vertex 54.7692 30.1096 0
      vertex 54.7692 30.1096 13
    endloop
  endfacet
  facet normal 0.90483 0.425774 0
    outer loop
      vertex 54.7692 30.1096 0
      vertex 58.111 23.0078 13
      vertex 58.111 23.0078 0
    endloop
  endfacet
  facet normal 0.982285 0.187391 0
    outer loop
      vertex 62.0072 7.83333 13
      vertex 60.5364 15.5431 0
      vertex 60.5364 15.5431 13
    endloop
  endfacet
  facet normal 0.982285 0.187391 0
    outer loop
      vertex 60.5364 15.5431 0
      vertex 62.0072 7.83333 13
      vertex 62.0072 7.83333 0
    endloop
  endfacet
  facet normal 0.844329 0.535825 0
    outer loop
      vertex 54.7692 30.1096 13
      vertex 50.5636 36.7366 0
      vertex 50.5636 36.7366 13
    endloop
  endfacet
  facet normal 0.844329 0.535825 0
    outer loop
      vertex 50.5636 36.7366 0
      vertex 54.7692 30.1096 13
      vertex 54.7692 30.1096 0
    endloop
  endfacet
  facet normal 0.368122 0.929778 -0
    outer loop
      vertex 26.6112 56.5517 0
      vertex 19.3136 59.441 13
      vertex 26.6112 56.5517 13
    endloop
  endfacet
  facet normal 0.368122 0.929778 0
    outer loop
      vertex 19.3136 59.441 13
      vertex 26.6112 56.5517 0
      vertex 19.3136 59.441 0
    endloop
  endfacet
  facet normal 0.248697 0.968581 -0
    outer loop
      vertex 19.3136 59.441 0
      vertex 11.7113 61.393 13
      vertex 19.3136 59.441 13
    endloop
  endfacet
  facet normal 0.248697 0.968581 0
    outer loop
      vertex 11.7113 61.393 13
      vertex 19.3136 59.441 0
      vertex 11.7113 61.393 0
    endloop
  endfacet
  facet normal 0.481752 0.876307 -0
    outer loop
      vertex 33.4892 52.7705 0
      vertex 26.6112 56.5517 13
      vertex 33.4892 52.7705 13
    endloop
  endfacet
  facet normal 0.481752 0.876307 0
    outer loop
      vertex 26.6112 56.5517 13
      vertex 33.4892 52.7705 0
      vertex 26.6112 56.5517 0
    endloop
  endfacet
  facet normal -0.90483 0.425774 0
    outer loop
      vertex -58.111 23.0078 0
      vertex -54.7692 30.1096 13
      vertex -54.7692 30.1096 0
    endloop
  endfacet
  facet normal -0.90483 0.425774 0
    outer loop
      vertex -54.7692 30.1096 13
      vertex -58.111 23.0078 0
      vertex -58.111 23.0078 13
    endloop
  endfacet
  facet normal -0.770508 0.637431 0
    outer loop
      vertex -50.5636 36.7366 0
      vertex -45.5605 42.7842 13
      vertex -45.5605 42.7842 0
    endloop
  endfacet
  facet normal -0.770508 0.637431 0
    outer loop
      vertex -45.5605 42.7842 13
      vertex -50.5636 36.7366 0
      vertex -50.5636 36.7366 13
    endloop
  endfacet
  facet normal -0.951058 0.309014 0
    outer loop
      vertex -60.5364 15.5431 0
      vertex -58.111 23.0078 13
      vertex -58.111 23.0078 0
    endloop
  endfacet
  facet normal -0.951058 0.309014 0
    outer loop
      vertex -58.111 23.0078 13
      vertex -60.5364 15.5431 0
      vertex -60.5364 15.5431 13
    endloop
  endfacet
  facet normal -0.125332 0.992115 0
    outer loop
      vertex -3.92441 62.3767 0
      vertex -11.7113 61.393 13
      vertex -3.92441 62.3767 13
    endloop
  endfacet
  facet normal -0.125332 0.992115 0
    outer loop
      vertex -11.7113 61.393 13
      vertex -3.92441 62.3767 0
      vertex -11.7113 61.393 0
    endloop
  endfacet
  facet normal 0.125332 -0.992115 0
    outer loop
      vertex 3.92441 -62.3767 0
      vertex 11.7113 -61.393 13
      vertex 3.92441 -62.3767 13
    endloop
  endfacet
  facet normal 0.125332 -0.992115 0
    outer loop
      vertex 11.7113 -61.393 13
      vertex 3.92441 -62.3767 0
      vertex 11.7113 -61.393 0
    endloop
  endfacet
  facet normal 0.951058 0.309014 0
    outer loop
      vertex 60.5364 15.5431 13
      vertex 58.111 23.0078 0
      vertex 58.111 23.0078 13
    endloop
  endfacet
  facet normal 0.951058 0.309014 0
    outer loop
      vertex 58.111 23.0078 0
      vertex 60.5364 15.5431 13
      vertex 60.5364 15.5431 0
    endloop
  endfacet
  facet normal 0.770508 0.637431 0
    outer loop
      vertex 50.5636 36.7366 13
      vertex 45.5605 42.7842 0
      vertex 45.5605 42.7842 13
    endloop
  endfacet
  facet normal 0.770508 0.637431 0
    outer loop
      vertex 45.5605 42.7842 0
      vertex 50.5636 36.7366 13
      vertex 50.5636 36.7366 0
    endloop
  endfacet
  facet normal 0.125332 0.992115 -0
    outer loop
      vertex 11.7113 61.393 0
      vertex 3.92441 62.3767 13
      vertex 11.7113 61.393 13
    endloop
  endfacet
  facet normal 0.125332 0.992115 0
    outer loop
      vertex 3.92441 62.3767 13
      vertex 11.7113 61.393 0
      vertex 3.92441 62.3767 0
    endloop
  endfacet
  facet normal 0.587785 0.809017 -0
    outer loop
      vertex 39.839 48.1571 0
      vertex 33.4892 52.7705 13
      vertex 39.839 48.1571 13
    endloop
  endfacet
  facet normal 0.587785 0.809017 0
    outer loop
      vertex 33.4892 52.7705 13
      vertex 39.839 48.1571 0
      vertex 33.4892 52.7705 0
    endloop
  endfacet
  facet normal -0.844329 0.535825 0
    outer loop
      vertex -54.7692 30.1096 0
      vertex -50.5636 36.7366 13
      vertex -50.5636 36.7366 0
    endloop
  endfacet
  facet normal -0.844329 0.535825 0
    outer loop
      vertex -50.5636 36.7366 13
      vertex -54.7692 30.1096 0
      vertex -54.7692 30.1096 13
    endloop
  endfacet
  facet normal -0.982285 0.187391 0
    outer loop
      vertex -62.0072 7.83333 0
      vertex -60.5364 15.5431 13
      vertex -60.5364 15.5431 0
    endloop
  endfacet
  facet normal -0.982285 0.187391 0
    outer loop
      vertex -60.5364 15.5431 13
      vertex -62.0072 7.83333 0
      vertex -62.0072 7.83333 13
    endloop
  endfacet
  facet normal 0 0 1
    outer loop
      vertex 50 0 13
      vertex 62.5 0 13
      vertex 62.0072 7.83333 13
    endloop
  endfacet
  facet normal 0 0 1
    outer loop
      vertex 49.6057 6.26666 13
      vertex 62.0072 7.83333 13
      vertex 60.5364 15.5431 13
    endloop
  endfacet
  facet normal 0 0 1
    outer loop
      vertex 62.5 0 13
      vertex 50 0 13
      vertex 62.0072 -7.83333 13
    endloop
  endfacet
  facet normal 0 0 1
    outer loop
      vertex 48.4292 12.4345 13
      vertex 60.5364 15.5431 13
      vertex 58.111 23.0078 13
    endloop
  endfacet
  facet normal -0 0 1
    outer loop
      vertex 49.6057 -6.26666 13
      vertex 62.0072 -7.83333 13
      vertex 50 0 13
    endloop
  endfacet
  facet normal 0 0 1
    outer loop
      vertex 46.4888 18.4062 13
      vertex 58.111 23.0078 13
      vertex 54.7692 30.1096 13
    endloop
  endfacet
  facet normal 0 0 1
    outer loop
      vertex 62.0072 -7.83333 13
      vertex 49.6057 -6.26666 13
      vertex 60.5364 -15.5431 13
    endloop
  endfacet
  facet normal 0 0 1
    outer loop
      vertex 43.8153 24.0877 13
      vertex 54.7692 30.1096 13
      vertex 50.5636 36.7366 13
    endloop
  endfacet
  facet normal -0 0 1
    outer loop
      vertex 48.4292 -12.4345 13
      vertex 60.5364 -15.5431 13
      vertex 49.6057 -6.26666 13
    endloop
  endfacet
  facet normal 0 0 1
    outer loop
      vertex 60.5364 -15.5431 13
      vertex 48.4292 -12.4345 13
      vertex 58.111 -23.0078 13
    endloop
  endfacet
  facet normal 0 0 1
    outer loop
      vertex 62.0072 7.83333 13
      vertex 49.6057 6.26666 13
      vertex 50 0 13
    endloop
  endfacet
  facet normal 0 0 1
    outer loop
      vertex 60.5364 15.5431 13
      vertex 48.4292 12.4345 13
      vertex 49.6057 6.26666 13
    endloop
  endfacet
  facet normal 0 0 1
    outer loop
      vertex 58.111 23.0078 13
      vertex 46.4888 18.4062 13
      vertex 48.4292 12.4345 13
    endloop
  endfacet
  facet normal 0 0 1
    outer loop
      vertex 40.4509 29.3893 13
      vertex 50.5636 36.7366 13
      vertex 45.5605 42.7842 13
    endloop
  endfacet
  facet normal 0 0 1
    outer loop
      vertex 54.7692 30.1096 13
      vertex 43.8153 24.0877 13
      vertex 46.4888 18.4062 13
    endloop
  endfacet
  facet normal 0 0 1
    outer loop
      vertex 50.5636 36.7366 13
      vertex 40.4509 29.3893 13
      vertex 43.8153 24.0877 13
    endloop
  endfacet
  facet normal 0 0 1
    outer loop
      vertex 36.4484 34.2274 13
      vertex 45.5605 42.7842 13
      vertex 39.839 48.1571 13
    endloop
  endfacet
  facet normal 0 0 1
    outer loop
      vertex 45.5605 42.7842 13
      vertex 36.4484 34.2274 13
      vertex 40.4509 29.3893 13
    endloop
  endfacet
  facet normal 0 0 1
    outer loop
      vertex 31.8712 38.5257 13
      vertex 39.839 48.1571 13
      vertex 33.4892 52.7705 13
    endloop
  endfacet
  facet normal 0 0 1
    outer loop
      vertex 39.839 48.1571 13
      vertex 31.8712 38.5257 13
      vertex 36.4484 34.2274 13
    endloop
  endfacet
  facet normal 0 0 1
    outer loop
      vertex 33.4892 52.7705 13
      vertex 26.7913 42.2164 13
      vertex 31.8712 38.5257 13
    endloop
  endfacet
  facet normal 0 0 1
    outer loop
      vertex 26.6112 56.5517 13
      vertex 26.7913 42.2164 13
      vertex 33.4892 52.7705 13
    endloop
  endfacet
  facet normal 0 0 1
    outer loop
      vertex 26.6112 56.5517 13
      vertex 21.289 45.2414 13
      vertex 26.7913 42.2164 13
    endloop
  endfacet
  facet normal 0 0 1
    outer loop
      vertex 19.3136 59.441 13
      vertex 21.289 45.2414 13
      vertex 26.6112 56.5517 13
    endloop
  endfacet
  facet normal 0 0 1
    outer loop
      vertex 19.3136 59.441 13
      vertex 15.4508 47.5528 13
      vertex 21.289 45.2414 13
    endloop
  endfacet
  facet normal 0 0 1
    outer loop
      vertex 11.7113 61.393 13
      vertex 15.4508 47.5528 13
      vertex 19.3136 59.441 13
    endloop
  endfacet
  facet normal 0 0 1
    outer loop
      vertex 11.7113 61.393 13
      vertex 9.36907 49.1144 13
      vertex 15.4508 47.5528 13
    endloop
  endfacet
  facet normal 0 0 1
    outer loop
      vertex 3.92441 62.3767 13
      vertex 9.36907 49.1144 13
      vertex 11.7113 61.393 13
    endloop
  endfacet
  facet normal 0 0 1
    outer loop
      vertex 3.92441 62.3767 13
      vertex 3.13953 49.9013 13
      vertex 9.36907 49.1144 13
    endloop
  endfacet
  facet normal 0 0 1
    outer loop
      vertex 3.92441 62.3767 13
      vertex -3.13953 49.9013 13
      vertex 3.13953 49.9013 13
    endloop
  endfacet
  facet normal -0 0 1
    outer loop
      vertex -3.92441 62.3767 13
      vertex -3.13953 49.9013 13
      vertex 3.92441 62.3767 13
    endloop
  endfacet
  facet normal 0 0 1
    outer loop
      vertex -3.92441 62.3767 13
      vertex -9.36907 49.1144 13
      vertex -3.13953 49.9013 13
    endloop
  endfacet
  facet normal -0 0 1
    outer loop
      vertex -11.7113 61.393 13
      vertex -9.36907 49.1144 13
      vertex -3.92441 62.3767 13
    endloop
  endfacet
  facet normal 0 0 1
    outer loop
      vertex -11.7113 61.393 13
      vertex -15.4508 47.5528 13
      vertex -9.36907 49.1144 13
    endloop
  endfacet
  facet normal -0 0 1
    outer loop
      vertex -19.3136 59.441 13
      vertex -15.4508 47.5528 13
      vertex -11.7113 61.393 13
    endloop
  endfacet
  facet normal 0 0 1
    outer loop
      vertex -19.3136 59.441 13
      vertex -21.289 45.2414 13
      vertex -15.4508 47.5528 13
    endloop
  endfacet
  facet normal -0 0 1
    outer loop
      vertex -26.6112 56.5517 13
      vertex -21.289 45.2414 13
      vertex -19.3136 59.441 13
    endloop
  endfacet
  facet normal 0 0 1
    outer loop
      vertex -26.6112 56.5517 13
      vertex -26.7913 42.2164 13
      vertex -21.289 45.2414 13
    endloop
  endfacet
  facet normal -0 0 1
    outer loop
      vertex -33.4892 52.7705 13
      vertex -26.7913 42.2164 13
      vertex -26.6112 56.5517 13
    endloop
  endfacet
  facet normal 0 0 1
    outer loop
      vertex -26.7913 42.2164 13
      vertex -33.4892 52.7705 13
      vertex -31.8712 38.5257 13
    endloop
  endfacet
  facet normal -0 0 1
    outer loop
      vertex -39.839 48.1571 13
      vertex -31.8712 38.5257 13
      vertex -33.4892 52.7705 13
    endloop
  endfacet
  facet normal 0 0 1
    outer loop
      vertex -31.8712 38.5257 13
      vertex -39.839 48.1571 13
      vertex -36.4484 34.2274 13
    endloop
  endfacet
  facet normal -0 0 1
    outer loop
      vertex -45.5605 42.7842 13
      vertex -36.4484 34.2274 13
      vertex -39.839 48.1571 13
    endloop
  endfacet
  facet normal 0 0 1
    outer loop
      vertex -36.4484 34.2274 13
      vertex -45.5605 42.7842 13
      vertex -40.4509 29.3893 13
    endloop
  endfacet
  facet normal -0 0 1
    outer loop
      vertex -50.5636 36.7366 13
      vertex -40.4509 29.3893 13
      vertex -45.5605 42.7842 13
    endloop
  endfacet
  facet normal 0 0 1
    outer loop
      vertex -40.4509 29.3893 13
      vertex -50.5636 36.7366 13
      vertex -43.8153 24.0877 13
    endloop
  endfacet
  facet normal -0 0 1
    outer loop
      vertex -54.7692 30.1096 13
      vertex -43.8153 24.0877 13
      vertex -50.5636 36.7366 13
    endloop
  endfacet
  facet normal 0 0 1
    outer loop
      vertex -43.8153 24.0877 13
      vertex -54.7692 30.1096 13
      vertex -46.4888 18.4062 13
    endloop
  endfacet
  facet normal 0 0 1
    outer loop
      vertex -46.4888 18.4062 13
      vertex -58.111 23.0078 13
      vertex -48.4292 12.4345 13
    endloop
  endfacet
  facet normal -0 0 1
    outer loop
      vertex -58.111 23.0078 13
      vertex -46.4888 18.4062 13
      vertex -54.7692 30.1096 13
    endloop
  endfacet
  facet normal -0 0 1
    outer loop
      vertex 46.4888 -18.4062 13
      vertex 58.111 -23.0078 13
      vertex 48.4292 -12.4345 13
    endloop
  endfacet
  facet normal 0 0 1
    outer loop
      vertex 58.111 -23.0078 13
      vertex 46.4888 -18.4062 13
      vertex 54.7692 -30.1096 13
    endloop
  endfacet
  facet normal -0 0 1
    outer loop
      vertex 43.8153 -24.0877 13
      vertex 54.7692 -30.1096 13
      vertex 46.4888 -18.4062 13
    endloop
  endfacet
  facet normal 0 0 1
    outer loop
      vertex 54.7692 -30.1096 13
      vertex 43.8153 -24.0877 13
      vertex 50.5636 -36.7366 13
    endloop
  endfacet
  facet normal -0 0 1
    outer loop
      vertex 40.4509 -29.3893 13
      vertex 50.5636 -36.7366 13
      vertex 43.8153 -24.0877 13
    endloop
  endfacet
  facet normal 0 0 1
    outer loop
      vertex 50.5636 -36.7366 13
      vertex 40.4509 -29.3893 13
      vertex 45.5605 -42.7842 13
    endloop
  endfacet
  facet normal -0 0 1
    outer loop
      vertex 36.4484 -34.2274 13
      vertex 45.5605 -42.7842 13
      vertex 40.4509 -29.3893 13
    endloop
  endfacet
  facet normal 0 0 1
    outer loop
      vertex 45.5605 -42.7842 13
      vertex 36.4484 -34.2274 13
      vertex 39.839 -48.1571 13
    endloop
  endfacet
  facet normal -0 0 1
    outer loop
      vertex 31.8712 -38.5257 13
      vertex 39.839 -48.1571 13
      vertex 36.4484 -34.2274 13
    endloop
  endfacet
  facet normal 0 0 1
    outer loop
      vertex 39.839 -48.1571 13
      vertex 31.8712 -38.5257 13
      vertex 33.4892 -52.7705 13
    endloop
  endfacet
  facet normal -0 0 1
    outer loop
      vertex 26.7913 -42.2164 13
      vertex 33.4892 -52.7705 13
      vertex 31.8712 -38.5257 13
    endloop
  endfacet
  facet normal 0 0 1
    outer loop
      vertex 26.7913 -42.2164 13
      vertex 26.6112 -56.5517 13
      vertex 33.4892 -52.7705 13
    endloop
  endfacet
  facet normal -0 0 1
    outer loop
      vertex 21.289 -45.2414 13
      vertex 26.6112 -56.5517 13
      vertex 26.7913 -42.2164 13
    endloop
  endfacet
  facet normal 0 0 1
    outer loop
      vertex 21.289 -45.2414 13
      vertex 19.3136 -59.441 13
      vertex 26.6112 -56.5517 13
    endloop
  endfacet
  facet normal -0 0 1
    outer loop
      vertex 15.4508 -47.5528 13
      vertex 19.3136 -59.441 13
      vertex 21.289 -45.2414 13
    endloop
  endfacet
  facet normal 0 0 1
    outer loop
      vertex 15.4508 -47.5528 13
      vertex 11.7113 -61.393 13
      vertex 19.3136 -59.441 13
    endloop
  endfacet
  facet normal -0 0 1
    outer loop
      vertex 9.36907 -49.1144 13
      vertex 11.7113 -61.393 13
      vertex 15.4508 -47.5528 13
    endloop
  endfacet
  facet normal 0 0 1
    outer loop
      vertex 9.36907 -49.1144 13
      vertex 3.92441 -62.3767 13
      vertex 11.7113 -61.393 13
    endloop
  endfacet
  facet normal -0 0 1
    outer loop
      vertex 3.13953 -49.9013 13
      vertex 3.92441 -62.3767 13
      vertex 9.36907 -49.1144 13
    endloop
  endfacet
  facet normal -0 0 1
    outer loop
      vertex -3.13953 -49.9013 13
      vertex 3.92441 -62.3767 13
      vertex 3.13953 -49.9013 13
    endloop
  endfacet
  facet normal 0 0 1
    outer loop
      vertex -3.13953 -49.9013 13
      vertex -3.92441 -62.3767 13
      vertex 3.92441 -62.3767 13
    endloop
  endfacet
  facet normal 0 0 1
    outer loop
      vertex -9.36907 -49.1144 13
      vertex -3.92441 -62.3767 13
      vertex -3.13953 -49.9013 13
    endloop
  endfacet
  facet normal 0 0 1
    outer loop
      vertex -9.36907 -49.1144 13
      vertex -11.7113 -61.393 13
      vertex -3.92441 -62.3767 13
    endloop
  endfacet
  facet normal 0 0 1
    outer loop
      vertex -15.4508 -47.5528 13
      vertex -11.7113 -61.393 13
      vertex -9.36907 -49.1144 13
    endloop
  endfacet
  facet normal 0 0 1
    outer loop
      vertex -15.4508 -47.5528 13
      vertex -19.3136 -59.441 13
      vertex -11.7113 -61.393 13
    endloop
  endfacet
  facet normal 0 0 1
    outer loop
      vertex -21.289 -45.2414 13
      vertex -19.3136 -59.441 13
      vertex -15.4508 -47.5528 13
    endloop
  endfacet
  facet normal 0 0 1
    outer loop
      vertex -21.289 -45.2414 13
      vertex -26.6112 -56.5517 13
      vertex -19.3136 -59.441 13
    endloop
  endfacet
  facet normal 0 0 1
    outer loop
      vertex -26.7913 -42.2164 13
      vertex -26.6112 -56.5517 13
      vertex -21.289 -45.2414 13
    endloop
  endfacet
  facet normal 0 0 1
    outer loop
      vertex -33.4892 -52.7705 13
      vertex -26.7913 -42.2164 13
      vertex -31.8712 -38.5257 13
    endloop
  endfacet
  facet normal 0 0 1
    outer loop
      vertex -26.7913 -42.2164 13
      vertex -33.4892 -52.7705 13
      vertex -26.6112 -56.5517 13
    endloop
  endfacet
  facet normal 0 0 1
    outer loop
      vertex -39.839 -48.1571 13
      vertex -31.8712 -38.5257 13
      vertex -36.4484 -34.2274 13
    endloop
  endfacet
  facet normal 0 0 1
    outer loop
      vertex -31.8712 -38.5257 13
      vertex -39.839 -48.1571 13
      vertex -33.4892 -52.7705 13
    endloop
  endfacet
  facet normal 0 0 1
    outer loop
      vertex -45.5605 -42.7842 13
      vertex -36.4484 -34.2274 13
      vertex -40.4509 -29.3893 13
    endloop
  endfacet
  facet normal 0 0 1
    outer loop
      vertex -50.5636 -36.7366 13
      vertex -40.4509 -29.3893 13
      vertex -43.8153 -24.0877 13
    endloop
  endfacet
  facet normal 0 0 1
    outer loop
      vertex -36.4484 -34.2274 13
      vertex -45.5605 -42.7842 13
      vertex -39.839 -48.1571 13
    endloop
  endfacet
  facet normal 0 0 1
    outer loop
      vertex -54.7692 -30.1096 13
      vertex -43.8153 -24.0877 13
      vertex -46.4888 -18.4062 13
    endloop
  endfacet
  facet normal 0 0 1
    outer loop
      vertex -58.111 -23.0078 13
      vertex -46.4888 -18.4062 13
      vertex -48.4292 -12.4345 13
    endloop
  endfacet
  facet normal 0 0 1
    outer loop
      vertex -60.5364 -15.5431 13
      vertex -48.4292 -12.4345 13
      vertex -49.6057 -6.26666 13
    endloop
  endfacet
  facet normal 0 0 1
    outer loop
      vertex -40.4509 -29.3893 13
      vertex -50.5636 -36.7366 13
      vertex -45.5605 -42.7842 13
    endloop
  endfacet
  facet normal 0 0 1
    outer loop
      vertex -62.0072 -7.83333 13
      vertex -49.6057 -6.26666 13
      vertex -50 0 13
    endloop
  endfacet
  facet normal -0 0 1
    outer loop
      vertex -60.5364 15.5431 13
      vertex -48.4292 12.4345 13
      vertex -58.111 23.0078 13
    endloop
  endfacet
  facet normal 0 0 1
    outer loop
      vertex -48.4292 12.4345 13
      vertex -60.5364 15.5431 13
      vertex -49.6057 6.26666 13
    endloop
  endfacet
  facet normal 0 0 1
    outer loop
      vertex -43.8153 -24.0877 13
      vertex -54.7692 -30.1096 13
      vertex -50.5636 -36.7366 13
    endloop
  endfacet
  facet normal -0 0 1
    outer loop
      vertex -62.0072 7.83333 13
      vertex -49.6057 6.26666 13
      vertex -60.5364 15.5431 13
    endloop
  endfacet
  facet normal 0 0 1
    outer loop
      vertex -46.4888 -18.4062 13
      vertex -58.111 -23.0078 13
      vertex -54.7692 -30.1096 13
    endloop
  endfacet
  facet normal 0 0 1
    outer loop
      vertex -49.6057 6.26666 13
      vertex -62.0072 7.83333 13
      vertex -50 0 13
    endloop
  endfacet
  facet normal 0 0 1
    outer loop
      vertex -48.4292 -12.4345 13
      vertex -60.5364 -15.5431 13
      vertex -58.111 -23.0078 13
    endloop
  endfacet
  facet normal 0 0 1
    outer loop
      vertex -62.5 0 13
      vertex -50 0 13
      vertex -62.0072 7.83333 13
    endloop
  endfacet
  facet normal 0 0 1
    outer loop
      vertex -49.6057 -6.26666 13
      vertex -62.0072 -7.83333 13
      vertex -60.5364 -15.5431 13
    endloop
  endfacet
  facet normal 0 0 1
    outer loop
      vertex -50 0 13
      vertex -62.5 0 13
      vertex -62.0072 -7.83333 13
    endloop
  endfacet
  facet normal -0.481752 0.876307 0
    outer loop
      vertex -26.6112 56.5517 0
      vertex -33.4892 52.7705 13
      vertex -26.6112 56.5517 13
    endloop
  endfacet
  facet normal -0.481752 0.876307 0
    outer loop
      vertex -33.4892 52.7705 13
      vertex -26.6112 56.5517 0
      vertex -33.4892 52.7705 0
    endloop
  endfacet
  facet normal -0.587785 0.809017 0
    outer loop
      vertex -33.4892 52.7705 0
      vertex -39.839 48.1571 13
      vertex -33.4892 52.7705 13
    endloop
  endfacet
  facet normal -0.587785 0.809017 0
    outer loop
      vertex -39.839 48.1571 13
      vertex -33.4892 52.7705 0
      vertex -39.839 48.1571 0
    endloop
  endfacet
  facet normal -0.248697 0.968581 0
    outer loop
      vertex -11.7113 61.393 0
      vertex -19.3136 59.441 13
      vertex -11.7113 61.393 13
    endloop
  endfacet
  facet normal -0.248697 0.968581 0
    outer loop
      vertex -19.3136 59.441 13
      vertex -11.7113 61.393 0
      vertex -19.3136 59.441 0
    endloop
  endfacet
  facet normal 0.998027 -0.0627865 0
    outer loop
      vertex 62.0072 -7.83333 13
      vertex 62.5 0 0
      vertex 62.5 0 13
    endloop
  endfacet
  facet normal 0.998027 -0.0627865 0
    outer loop
      vertex 62.5 0 0
      vertex 62.0072 -7.83333 13
      vertex 62.0072 -7.83333 0
    endloop
  endfacet
  facet normal 0.982285 -0.187391 0
    outer loop
      vertex 60.5364 -15.5431 13
      vertex 62.0072 -7.83333 0
      vertex 62.0072 -7.83333 13
    endloop
  endfacet
  facet normal 0.982285 -0.187391 0
    outer loop
      vertex 62.0072 -7.83333 0
      vertex 60.5364 -15.5431 13
      vertex 60.5364 -15.5431 0
    endloop
  endfacet
  facet normal -0.684551 -0.728965 0
    outer loop
      vertex -45.5605 -42.7842 0
      vertex -39.839 -48.1571 13
      vertex -45.5605 -42.7842 13
    endloop
  endfacet
  facet normal -0.684551 -0.728965 -0
    outer loop
      vertex -39.839 -48.1571 13
      vertex -45.5605 -42.7842 0
      vertex -39.839 -48.1571 0
    endloop
  endfacet
  facet normal -0.90483 -0.425774 0
    outer loop
      vertex -54.7692 -30.1096 0
      vertex -58.111 -23.0078 13
      vertex -58.111 -23.0078 0
    endloop
  endfacet
  facet normal -0.90483 -0.425774 0
    outer loop
      vertex -58.111 -23.0078 13
      vertex -54.7692 -30.1096 0
      vertex -54.7692 -30.1096 13
    endloop
  endfacet
  facet normal -0.770508 -0.637431 0
    outer loop
      vertex -45.5605 -42.7842 0
      vertex -50.5636 -36.7366 13
      vertex -50.5636 -36.7366 0
    endloop
  endfacet
  facet normal -0.770508 -0.637431 0
    outer loop
      vertex -50.5636 -36.7366 13
      vertex -45.5605 -42.7842 0
      vertex -45.5605 -42.7842 13
    endloop
  endfacet
  facet normal 0 0 -1
    outer loop
      vertex 50 0 0
      vertex 62.5 0 0
      vertex 62.0072 -7.83333 0
    endloop
  endfacet
  facet normal 0 0 -1
    outer loop
      vertex 49.6057 -6.26666 0
      vertex 62.0072 -7.83333 0
      vertex 60.5364 -15.5431 0
    endloop
  endfacet
  facet normal 0 0 -1
    outer loop
      vertex 62.5 0 0
      vertex 50 0 0
      vertex 62.0072 7.83333 0
    endloop
  endfacet
  facet normal 0 0 -1
    outer loop
      vertex 48.4292 -12.4345 0
      vertex 60.5364 -15.5431 0
      vertex 58.111 -23.0078 0
    endloop
  endfacet
  facet normal 0 0 -1
    outer loop
      vertex 49.6057 6.26666 0
      vertex 62.0072 7.83333 0
      vertex 50 0 0
    endloop
  endfacet
  facet normal 0 0 -1
    outer loop
      vertex 46.4888 -18.4062 0
      vertex 58.111 -23.0078 0
      vertex 54.7692 -30.1096 0
    endloop
  endfacet
  facet normal -0 0 -1
    outer loop
      vertex 62.0072 7.83333 0
      vertex 49.6057 6.26666 0
      vertex 60.5364 15.5431 0
    endloop
  endfacet
  facet normal 0 0 -1
    outer loop
      vertex 43.8153 -24.0877 0
      vertex 54.7692 -30.1096 0
      vertex 50.5636 -36.7366 0
    endloop
  endfacet
  facet normal 0 0 -1
    outer loop
      vertex 48.4292 12.4345 0
      vertex 60.5364 15.5431 0
      vertex 49.6057 6.26666 0
    endloop
  endfacet
  facet normal -0 0 -1
    outer loop
      vertex 60.5364 15.5431 0
      vertex 48.4292 12.4345 0
      vertex 58.111 23.0078 0
    endloop
  endfacet
  facet normal 0 0 -1
    outer loop
      vertex 62.0072 -7.83333 0
      vertex 49.6057 -6.26666 0
      vertex 50 0 0
    endloop
  endfacet
  facet normal 0 0 -1
    outer loop
      vertex 60.5364 -15.5431 0
      vertex 48.4292 -12.4345 0
      vertex 49.6057 -6.26666 0
    endloop
  endfacet
  facet normal 0 0 -1
    outer loop
      vertex 58.111 -23.0078 0
      vertex 46.4888 -18.4062 0
      vertex 48.4292 -12.4345 0
    endloop
  endfacet
  facet normal 0 0 -1
    outer loop
      vertex 40.4509 -29.3893 0
      vertex 50.5636 -36.7366 0
      vertex 45.5605 -42.7842 0
    endloop
  endfacet
  facet normal 0 0 -1
    outer loop
      vertex 54.7692 -30.1096 0
      vertex 43.8153 -24.0877 0
      vertex 46.4888 -18.4062 0
    endloop
  endfacet
  facet normal 0 0 -1
    outer loop
      vertex 50.5636 -36.7366 0
      vertex 40.4509 -29.3893 0
      vertex 43.8153 -24.0877 0
    endloop
  endfacet
  facet normal 0 0 -1
    outer loop
      vertex 36.4484 -34.2274 0
      vertex 45.5605 -42.7842 0
      vertex 39.839 -48.1571 0
    endloop
  endfacet
  facet normal 0 0 -1
    outer loop
      vertex 45.5605 -42.7842 0
      vertex 36.4484 -34.2274 0
      vertex 40.4509 -29.3893 0
    endloop
  endfacet
  facet normal 0 0 -1
    outer loop
      vertex 31.8712 -38.5257 0
      vertex 39.839 -48.1571 0
      vertex 33.4892 -52.7705 0
    endloop
  endfacet
  facet normal 0 0 -1
    outer loop
      vertex 39.839 -48.1571 0
      vertex 31.8712 -38.5257 0
      vertex 36.4484 -34.2274 0
    endloop
  endfacet
  facet normal 0 0 -1
    outer loop
      vertex 33.4892 -52.7705 0
      vertex 26.7913 -42.2164 0
      vertex 31.8712 -38.5257 0
    endloop
  endfacet
  facet normal 0 0 -1
    outer loop
      vertex 26.6112 -56.5517 0
      vertex 26.7913 -42.2164 0
      vertex 33.4892 -52.7705 0
    endloop
  endfacet
  facet normal 0 0 -1
    outer loop
      vertex 26.6112 -56.5517 0
      vertex 21.289 -45.2414 0
      vertex 26.7913 -42.2164 0
    endloop
  endfacet
  facet normal 0 0 -1
    outer loop
      vertex 19.3136 -59.441 0
      vertex 21.289 -45.2414 0
      vertex 26.6112 -56.5517 0
    endloop
  endfacet
  facet normal 0 0 -1
    outer loop
      vertex 19.3136 -59.441 0
      vertex 15.4508 -47.5528 0
      vertex 21.289 -45.2414 0
    endloop
  endfacet
  facet normal 0 0 -1
    outer loop
      vertex 11.7113 -61.393 0
      vertex 15.4508 -47.5528 0
      vertex 19.3136 -59.441 0
    endloop
  endfacet
  facet normal 0 0 -1
    outer loop
      vertex 11.7113 -61.393 0
      vertex 9.36907 -49.1144 0
      vertex 15.4508 -47.5528 0
    endloop
  endfacet
  facet normal 0 0 -1
    outer loop
      vertex 3.92441 -62.3767 0
      vertex 9.36907 -49.1144 0
      vertex 11.7113 -61.393 0
    endloop
  endfacet
  facet normal 0 0 -1
    outer loop
      vertex 3.92441 -62.3767 0
      vertex 3.13953 -49.9013 0
      vertex 9.36907 -49.1144 0
    endloop
  endfacet
  facet normal 0 0 -1
    outer loop
      vertex 3.92441 -62.3767 0
      vertex -3.13953 -49.9013 0
      vertex 3.13953 -49.9013 0
    endloop
  endfacet
  facet normal 0 0 -1
    outer loop
      vertex -3.92441 -62.3767 0
      vertex -3.13953 -49.9013 0
      vertex 3.92441 -62.3767 0
    endloop
  endfacet
  facet normal 0 0 -1
    outer loop
      vertex -3.92441 -62.3767 0
      vertex -9.36907 -49.1144 0
      vertex -3.13953 -49.9013 0
    endloop
  endfacet
  facet normal 0 0 -1
    outer loop
      vertex -11.7113 -61.393 0
      vertex -9.36907 -49.1144 0
      vertex -3.92441 -62.3767 0
    endloop
  endfacet
  facet normal 0 0 -1
    outer loop
      vertex -11.7113 -61.393 0
      vertex -15.4508 -47.5528 0
      vertex -9.36907 -49.1144 0
    endloop
  endfacet
  facet normal 0 0 -1
    outer loop
      vertex -19.3136 -59.441 0
      vertex -15.4508 -47.5528 0
      vertex -11.7113 -61.393 0
    endloop
  endfacet
  facet normal 0 0 -1
    outer loop
      vertex -19.3136 -59.441 0
      vertex -21.289 -45.2414 0
      vertex -15.4508 -47.5528 0
    endloop
  endfacet
  facet normal 0 0 -1
    outer loop
      vertex -26.6112 -56.5517 0
      vertex -21.289 -45.2414 0
      vertex -19.3136 -59.441 0
    endloop
  endfacet
  facet normal 0 0 -1
    outer loop
      vertex -26.6112 -56.5517 0
      vertex -26.7913 -42.2164 0
      vertex -21.289 -45.2414 0
    endloop
  endfacet
  facet normal 0 0 -1
    outer loop
      vertex -33.4892 -52.7705 0
      vertex -26.7913 -42.2164 0
      vertex -26.6112 -56.5517 0
    endloop
  endfacet
  facet normal -0 0 -1
    outer loop
      vertex -26.7913 -42.2164 0
      vertex -33.4892 -52.7705 0
      vertex -31.8712 -38.5257 0
    endloop
  endfacet
  facet normal 0 0 -1
    outer loop
      vertex -39.839 -48.1571 0
      vertex -31.8712 -38.5257 0
      vertex -33.4892 -52.7705 0
    endloop
  endfacet
  facet normal -0 0 -1
    outer loop
      vertex -31.8712 -38.5257 0
      vertex -39.839 -48.1571 0
      vertex -36.4484 -34.2274 0
    endloop
  endfacet
  facet normal 0 0 -1
    outer loop
      vertex -45.5605 -42.7842 0
      vertex -36.4484 -34.2274 0
      vertex -39.839 -48.1571 0
    endloop
  endfacet
  facet normal -0 0 -1
    outer loop
      vertex -36.4484 -34.2274 0
      vertex -45.5605 -42.7842 0
      vertex -40.4509 -29.3893 0
    endloop
  endfacet
  facet normal 0 0 -1
    outer loop
      vertex -50.5636 -36.7366 0
      vertex -40.4509 -29.3893 0
      vertex -45.5605 -42.7842 0
    endloop
  endfacet
  facet normal -0 0 -1
    outer loop
      vertex -40.4509 -29.3893 0
      vertex -50.5636 -36.7366 0
      vertex -43.8153 -24.0877 0
    endloop
  endfacet
  facet normal 0 0 -1
    outer loop
      vertex -54.7692 -30.1096 0
      vertex -43.8153 -24.0877 0
      vertex -50.5636 -36.7366 0
    endloop
  endfacet
  facet normal -0 0 -1
    outer loop
      vertex -43.8153 -24.0877 0
      vertex -54.7692 -30.1096 0
      vertex -46.4888 -18.4062 0
    endloop
  endfacet
  facet normal -0 0 -1
    outer loop
      vertex -46.4888 -18.4062 0
      vertex -58.111 -23.0078 0
      vertex -48.4292 -12.4345 0
    endloop
  endfacet
  facet normal 0 0 -1
    outer loop
      vertex -58.111 -23.0078 0
      vertex -46.4888 -18.4062 0
      vertex -54.7692 -30.1096 0
    endloop
  endfacet
  facet normal 0 0 -1
    outer loop
      vertex 46.4888 18.4062 0
      vertex 58.111 23.0078 0
      vertex 48.4292 12.4345 0
    endloop
  endfacet
  facet normal -0 0 -1
    outer loop
      vertex 58.111 23.0078 0
      vertex 46.4888 18.4062 0
      vertex 54.7692 30.1096 0
    endloop
  endfacet
  facet normal 0 0 -1
    outer loop
      vertex 43.8153 24.0877 0
      vertex 54.7692 30.1096 0
      vertex 46.4888 18.4062 0
    endloop
  endfacet
  facet normal -0 0 -1
    outer loop
      vertex 54.7692 30.1096 0
      vertex 43.8153 24.0877 0
      vertex 50.5636 36.7366 0
    endloop
  endfacet
  facet normal 0 0 -1
    outer loop
      vertex 40.4509 29.3893 0
      vertex 50.5636 36.7366 0
      vertex 43.8153 24.0877 0
    endloop
  endfacet
  facet normal -0 0 -1
    outer loop
      vertex 50.5636 36.7366 0
      vertex 40.4509 29.3893 0
      vertex 45.5605 42.7842 0
    endloop
  endfacet
  facet normal 0 0 -1
    outer loop
      vertex 36.4484 34.2274 0
      vertex 45.5605 42.7842 0
      vertex 40.4509 29.3893 0
    endloop
  endfacet
  facet normal -0 0 -1
    outer loop
      vertex 45.5605 42.7842 0
      vertex 36.4484 34.2274 0
      vertex 39.839 48.1571 0
    endloop
  endfacet
  facet normal 0 0 -1
    outer loop
      vertex 31.8712 38.5257 0
      vertex 39.839 48.1571 0
      vertex 36.4484 34.2274 0
    endloop
  endfacet
  facet normal -0 0 -1
    outer loop
      vertex 39.839 48.1571 0
      vertex 31.8712 38.5257 0
      vertex 33.4892 52.7705 0
    endloop
  endfacet
  facet normal 0 0 -1
    outer loop
      vertex 26.7913 42.2164 0
      vertex 33.4892 52.7705 0
      vertex 31.8712 38.5257 0
    endloop
  endfacet
  facet normal 0 0 -1
    outer loop
      vertex 26.7913 42.2164 0
      vertex 26.6112 56.5517 0
      vertex 33.4892 52.7705 0
    endloop
  endfacet
  facet normal 0 0 -1
    outer loop
      vertex 21.289 45.2414 0
      vertex 26.6112 56.5517 0
      vertex 26.7913 42.2164 0
    endloop
  endfacet
  facet normal 0 0 -1
    outer loop
      vertex 21.289 45.2414 0
      vertex 19.3136 59.441 0
      vertex 26.6112 56.5517 0
    endloop
  endfacet
  facet normal 0 0 -1
    outer loop
      vertex 15.4508 47.5528 0
      vertex 19.3136 59.441 0
      vertex 21.289 45.2414 0
    endloop
  endfacet
  facet normal 0 0 -1
    outer loop
      vertex 15.4508 47.5528 0
      vertex 11.7113 61.393 0
      vertex 19.3136 59.441 0
    endloop
  endfacet
  facet normal 0 0 -1
    outer loop
      vertex 9.36907 49.1144 0
      vertex 11.7113 61.393 0
      vertex 15.4508 47.5528 0
    endloop
  endfacet
  facet normal 0 0 -1
    outer loop
      vertex 9.36907 49.1144 0
      vertex 3.92441 62.3767 0
      vertex 11.7113 61.393 0
    endloop
  endfacet
  facet normal 0 0 -1
    outer loop
      vertex 3.13953 49.9013 0
      vertex 3.92441 62.3767 0
      vertex 9.36907 49.1144 0
    endloop
  endfacet
  facet normal 0 0 -1
    outer loop
      vertex -3.13953 49.9013 0
      vertex 3.92441 62.3767 0
      vertex 3.13953 49.9013 0
    endloop
  endfacet
  facet normal 0 0 -1
    outer loop
      vertex -3.13953 49.9013 0
      vertex -3.92441 62.3767 0
      vertex 3.92441 62.3767 0
    endloop
  endfacet
  facet normal 0 0 -1
    outer loop
      vertex -9.36907 49.1144 0
      vertex -3.92441 62.3767 0
      vertex -3.13953 49.9013 0
    endloop
  endfacet
  facet normal 0 0 -1
    outer loop
      vertex -9.36907 49.1144 0
      vertex -11.7113 61.393 0
      vertex -3.92441 62.3767 0
    endloop
  endfacet
  facet normal 0 0 -1
    outer loop
      vertex -15.4508 47.5528 0
      vertex -11.7113 61.393 0
      vertex -9.36907 49.1144 0
    endloop
  endfacet
  facet normal 0 0 -1
    outer loop
      vertex -15.4508 47.5528 0
      vertex -19.3136 59.441 0
      vertex -11.7113 61.393 0
    endloop
  endfacet
  facet normal 0 0 -1
    outer loop
      vertex -21.289 45.2414 0
      vertex -19.3136 59.441 0
      vertex -15.4508 47.5528 0
    endloop
  endfacet
  facet normal 0 0 -1
    outer loop
      vertex -21.289 45.2414 0
      vertex -26.6112 56.5517 0
      vertex -19.3136 59.441 0
    endloop
  endfacet
  facet normal 0 0 -1
    outer loop
      vertex -26.7913 42.2164 0
      vertex -26.6112 56.5517 0
      vertex -21.289 45.2414 0
    endloop
  endfacet
  facet normal 0 0 -1
    outer loop
      vertex -33.4892 52.7705 0
      vertex -26.7913 42.2164 0
      vertex -31.8712 38.5257 0
    endloop
  endfacet
  facet normal 0 0 -1
    outer loop
      vertex -26.7913 42.2164 0
      vertex -33.4892 52.7705 0
      vertex -26.6112 56.5517 0
    endloop
  endfacet
  facet normal 0 0 -1
    outer loop
      vertex -39.839 48.1571 0
      vertex -31.8712 38.5257 0
      vertex -36.4484 34.2274 0
    endloop
  endfacet
  facet normal 0 0 -1
    outer loop
      vertex -31.8712 38.5257 0
      vertex -39.839 48.1571 0
      vertex -33.4892 52.7705 0
    endloop
  endfacet
  facet normal 0 0 -1
    outer loop
      vertex -45.5605 42.7842 0
      vertex -36.4484 34.2274 0
      vertex -40.4509 29.3893 0
    endloop
  endfacet
  facet normal 0 0 -1
    outer loop
      vertex -50.5636 36.7366 0
      vertex -40.4509 29.3893 0
      vertex -43.8153 24.0877 0
    endloop
  endfacet
  facet normal 0 0 -1
    outer loop
      vertex -36.4484 34.2274 0
      vertex -45.5605 42.7842 0
      vertex -39.839 48.1571 0
    endloop
  endfacet
  facet normal 0 0 -1
    outer loop
      vertex -54.7692 30.1096 0
      vertex -43.8153 24.0877 0
      vertex -46.4888 18.4062 0
    endloop
  endfacet
  facet normal 0 0 -1
    outer loop
      vertex -58.111 23.0078 0
      vertex -46.4888 18.4062 0
      vertex -48.4292 12.4345 0
    endloop
  endfacet
  facet normal 0 0 -1
    outer loop
      vertex -60.5364 15.5431 0
      vertex -48.4292 12.4345 0
      vertex -49.6057 6.26666 0
    endloop
  endfacet
  facet normal 0 0 -1
    outer loop
      vertex -40.4509 29.3893 0
      vertex -50.5636 36.7366 0
      vertex -45.5605 42.7842 0
    endloop
  endfacet
  facet normal 0 0 -1
    outer loop
      vertex -62.0072 7.83333 0
      vertex -49.6057 6.26666 0
      vertex -50 0 0
    endloop
  endfacet
  facet normal 0 0 -1
    outer loop
      vertex -60.5364 -15.5431 0
      vertex -48.4292 -12.4345 0
      vertex -58.111 -23.0078 0
    endloop
  endfacet
  facet normal -0 0 -1
    outer loop
      vertex -48.4292 -12.4345 0
      vertex -60.5364 -15.5431 0
      vertex -49.6057 -6.26666 0
    endloop
  endfacet
  facet normal 0 0 -1
    outer loop
      vertex -43.8153 24.0877 0
      vertex -54.7692 30.1096 0
      vertex -50.5636 36.7366 0
    endloop
  endfacet
  facet normal 0 0 -1
    outer loop
      vertex -62.0072 -7.83333 0
      vertex -49.6057 -6.26666 0
      vertex -60.5364 -15.5431 0
    endloop
  endfacet
  facet normal 0 0 -1
    outer loop
      vertex -46.4888 18.4062 0
      vertex -58.111 23.0078 0
      vertex -54.7692 30.1096 0
    endloop
  endfacet
  facet normal -0 0 -1
    outer loop
      vertex -49.6057 -6.26666 0
      vertex -62.0072 -7.83333 0
      vertex -50 0 0
    endloop
  endfacet
  facet normal 0 0 -1
    outer loop
      vertex -48.4292 12.4345 0
      vertex -60.5364 15.5431 0
      vertex -58.111 23.0078 0
    endloop
  endfacet
  facet normal 0 0 -1
    outer loop
      vertex -62.5 0 0
      vertex -50 0 0
      vertex -62.0072 -7.83333 0
    endloop
  endfacet
  facet normal 0 0 -1
    outer loop
      vertex -49.6057 6.26666 0
      vertex -62.0072 7.83333 0
      vertex -60.5364 15.5431 0
    endloop
  endfacet
  facet normal 0 0 -1
    outer loop
      vertex -50 0 0
      vertex -62.5 0 0
      vertex -62.0072 7.83333 0
    endloop
  endfacet
  facet normal 0.481752 -0.876307 0
    outer loop
      vertex 26.6112 -56.5517 0
      vertex 33.4892 -52.7705 13
      vertex 26.6112 -56.5517 13
    endloop
  endfacet
  facet normal 0.481752 -0.876307 0
    outer loop
      vertex 33.4892 -52.7705 13
      vertex 26.6112 -56.5517 0
      vertex 33.4892 -52.7705 0
    endloop
  endfacet
  facet normal 0.90483 -0.425774 0
    outer loop
      vertex 54.7692 -30.1096 13
      vertex 58.111 -23.0078 0
      vertex 58.111 -23.0078 13
    endloop
  endfacet
  facet normal 0.90483 -0.425774 0
    outer loop
      vertex 58.111 -23.0078 0
      vertex 54.7692 -30.1096 13
      vertex 54.7692 -30.1096 0
    endloop
  endfacet
  facet normal -0.951058 -0.309014 0
    outer loop
      vertex -58.111 -23.0078 0
      vertex -60.5364 -15.5431 13
      vertex -60.5364 -15.5431 0
    endloop
  endfacet
  facet normal -0.951058 -0.309014 0
    outer loop
      vertex -60.5364 -15.5431 13
      vertex -58.111 -23.0078 0
      vertex -58.111 -23.0078 13
    endloop
  endfacet
  facet normal 0.684551 -0.728965 0
    outer loop
      vertex 39.839 -48.1571 0
      vertex 45.5605 -42.7842 13
      vertex 39.839 -48.1571 13
    endloop
  endfacet
  facet normal 0.684551 -0.728965 0
    outer loop
      vertex 45.5605 -42.7842 13
      vertex 39.839 -48.1571 0
      vertex 45.5605 -42.7842 0
    endloop
  endfacet
  facet normal 0.368122 -0.929778 0
    outer loop
      vertex 19.3136 -59.441 0
      vertex 26.6112 -56.5517 13
      vertex 19.3136 -59.441 13
    endloop
  endfacet
  facet normal 0.368122 -0.929778 0
    outer loop
      vertex 26.6112 -56.5517 13
      vertex 19.3136 -59.441 0
      vertex 26.6112 -56.5517 0
    endloop
  endfacet
  facet normal 0.248697 -0.968581 0
    outer loop
      vertex 11.7113 -61.393 0
      vertex 19.3136 -59.441 13
      vertex 11.7113 -61.393 13
    endloop
  endfacet
  facet normal 0.248697 -0.968581 0
    outer loop
      vertex 19.3136 -59.441 13
      vertex 11.7113 -61.393 0
      vertex 19.3136 -59.441 0
    endloop
  endfacet
  facet normal 0.844329 -0.535825 0
    outer loop
      vertex 50.5636 -36.7366 13
      vertex 54.7692 -30.1096 0
      vertex 54.7692 -30.1096 13
    endloop
  endfacet
  facet normal 0.844329 -0.535825 0
    outer loop
      vertex 54.7692 -30.1096 0
      vertex 50.5636 -36.7366 13
      vertex 50.5636 -36.7366 0
    endloop
  endfacet
  facet normal 0.770508 -0.637431 0
    outer loop
      vertex 45.5605 -42.7842 13
      vertex 50.5636 -36.7366 0
      vertex 50.5636 -36.7366 13
    endloop
  endfacet
  facet normal 0.770508 -0.637431 0
    outer loop
      vertex 50.5636 -36.7366 0
      vertex 45.5605 -42.7842 13
      vertex 45.5605 -42.7842 0
    endloop
  endfacet
  facet normal 0.951058 -0.309014 0
    outer loop
      vertex 58.111 -23.0078 13
      vertex 60.5364 -15.5431 0
      vertex 60.5364 -15.5431 13
    endloop
  endfacet
  facet normal 0.951058 -0.309014 0
    outer loop
      vertex 60.5364 -15.5431 0
      vertex 58.111 -23.0078 13
      vertex 58.111 -23.0078 0
    endloop
  endfacet
  facet normal -0.125332 -0.992115 0
    outer loop
      vertex -11.7113 -61.393 0
      vertex -3.92441 -62.3767 13
      vertex -11.7113 -61.393 13
    endloop
  endfacet
  facet normal -0.125332 -0.992115 -0
    outer loop
      vertex -3.92441 -62.3767 13
      vertex -11.7113 -61.393 0
      vertex -3.92441 -62.3767 0
    endloop
  endfacet
  facet normal -0.587785 -0.809017 0
    outer loop
      vertex -39.839 -48.1571 0
      vertex -33.4892 -52.7705 13
      vertex -39.839 -48.1571 13
    endloop
  endfacet
  facet normal -0.587785 -0.809017 -0
    outer loop
      vertex -33.4892 -52.7705 13
      vertex -39.839 -48.1571 0
      vertex -33.4892 -52.7705 0
    endloop
  endfacet
  facet normal -0.844329 -0.535825 0
    outer loop
      vertex -50.5636 -36.7366 0
      vertex -54.7692 -30.1096 13
      vertex -54.7692 -30.1096 0
    endloop
  endfacet
  facet normal -0.844329 -0.535825 0
    outer loop
      vertex -54.7692 -30.1096 13
      vertex -50.5636 -36.7366 0
      vertex -50.5636 -36.7366 13
    endloop
  endfacet
  facet normal -0.982285 -0.187391 0
    outer loop
      vertex -60.5364 -15.5431 0
      vertex -62.0072 -7.83333 13
      vertex -62.0072 -7.83333 0
    endloop
  endfacet
  facet normal -0.982285 -0.187391 0
    outer loop
      vertex -62.0072 -7.83333 13
      vertex -60.5364 -15.5431 0
      vertex -60.5364 -15.5431 13
    endloop
  endfacet
  facet normal -0.998027 -0.0627865 0
    outer loop
      vertex -62.0072 -7.83333 0
      vertex -62.5 0 13
      vertex -62.5 0 0
    endloop
  endfacet
  facet normal -0.998027 -0.0627865 0
    outer loop
      vertex -62.5 0 13
      vertex -62.0072 -7.83333 0
      vertex -62.0072 -7.83333 13
    endloop
  endfacet
  facet normal 0.587785 -0.809017 0
    outer loop
      vertex 33.4892 -52.7705 0
      vertex 39.839 -48.1571 13
      vertex 33.4892 -52.7705 13
    endloop
  endfacet
  facet normal 0.587785 -0.809017 0
    outer loop
      vertex 39.839 -48.1571 13
      vertex 33.4892 -52.7705 0
      vertex 39.839 -48.1571 0
    endloop
  endfacet
  facet normal -0.248697 -0.968581 0
    outer loop
      vertex -19.3136 -59.441 0
      vertex -11.7113 -61.393 13
      vertex -19.3136 -59.441 13
    endloop
  endfacet
  facet normal -0.248697 -0.968581 -0
    outer loop
      vertex -11.7113 -61.393 13
      vertex -19.3136 -59.441 0
      vertex -11.7113 -61.393 0
    endloop
  endfacet
  facet normal -0.368122 -0.929778 0
    outer loop
      vertex -26.6112 -56.5517 0
      vertex -19.3136 -59.441 13
      vertex -26.6112 -56.5517 13
    endloop
  endfacet
  facet normal -0.368122 -0.929778 -0
    outer loop
      vertex -19.3136 -59.441 13
      vertex -26.6112 -56.5517 0
      vertex -19.3136 -59.441 0
    endloop
  endfacet
  facet normal -0.481752 -0.876307 0
    outer loop
      vertex -33.4892 -52.7705 0
      vertex -26.6112 -56.5517 13
      vertex -33.4892 -52.7705 13
    endloop
  endfacet
  facet normal -0.481752 -0.876307 -0
    outer loop
      vertex -26.6112 -56.5517 13
      vertex -33.4892 -52.7705 0
      vertex -26.6112 -56.5517 0
    endloop
  endfacet
  facet normal -0.904828 -0.425778 0
    outer loop
      vertex 46.4888 18.4062 0
      vertex 43.8153 24.0877 13
      vertex 43.8153 24.0877 0
    endloop
  endfacet
  facet normal -0.904828 -0.425778 0
    outer loop
      vertex 43.8153 24.0877 13
      vertex 46.4888 18.4062 0
      vertex 46.4888 18.4062 13
    endloop
  endfacet
  facet normal -0.844335 -0.535816 0
    outer loop
      vertex 43.8153 24.0877 0
      vertex 40.4509 29.3893 13
      vertex 40.4509 29.3893 0
    endloop
  endfacet
  facet normal -0.844335 -0.535816 0
    outer loop
      vertex 40.4509 29.3893 13
      vertex 43.8153 24.0877 0
      vertex 43.8153 24.0877 13
    endloop
  endfacet
  facet normal -0.36811 -0.929782 0
    outer loop
      vertex 15.4508 47.5528 0
      vertex 21.289 45.2414 13
      vertex 15.4508 47.5528 13
    endloop
  endfacet
  facet normal -0.36811 -0.929782 -0
    outer loop
      vertex 21.289 45.2414 13
      vertex 15.4508 47.5528 0
      vertex 21.289 45.2414 0
    endloop
  endfacet
  facet normal 0.36811 -0.929782 0
    outer loop
      vertex -21.289 45.2414 0
      vertex -15.4508 47.5528 13
      vertex -21.289 45.2414 13
    endloop
  endfacet
  facet normal 0.36811 -0.929782 0
    outer loop
      vertex -15.4508 47.5528 13
      vertex -21.289 45.2414 0
      vertex -15.4508 47.5528 0
    endloop
  endfacet
  facet normal 0.904828 -0.425778 0
    outer loop
      vertex -46.4888 18.4062 13
      vertex -43.8153 24.0877 0
      vertex -43.8153 24.0877 13
    endloop
  endfacet
  facet normal 0.904828 -0.425778 0
    outer loop
      vertex -43.8153 24.0877 0
      vertex -46.4888 18.4062 13
      vertex -46.4888 18.4062 0
    endloop
  endfacet
  facet normal -0.998026 0.0627961 0
    outer loop
      vertex 49.6057 -6.26666 0
      vertex 50 0 13
      vertex 50 0 0
    endloop
  endfacet
  facet normal -0.998026 0.0627961 0
    outer loop
      vertex 50 0 13
      vertex 49.6057 -6.26666 0
      vertex 49.6057 -6.26666 13
    endloop
  endfacet
  facet normal -0.36811 0.929782 0
    outer loop
      vertex 21.289 -45.2414 0
      vertex 15.4508 -47.5528 13
      vertex 21.289 -45.2414 13
    endloop
  endfacet
  facet normal -0.36811 0.929782 0
    outer loop
      vertex 15.4508 -47.5528 13
      vertex 21.289 -45.2414 0
      vertex 15.4508 -47.5528 0
    endloop
  endfacet
  facet normal -0.684549 -0.728967 0
    outer loop
      vertex 31.8712 38.5257 0
      vertex 36.4484 34.2274 13
      vertex 31.8712 38.5257 13
    endloop
  endfacet
  facet normal -0.684549 -0.728967 -0
    outer loop
      vertex 36.4484 34.2274 13
      vertex 31.8712 38.5257 0
      vertex 36.4484 34.2274 0
    endloop
  endfacet
  facet normal -0.125322 -0.992116 0
    outer loop
      vertex 3.13953 49.9013 0
      vertex 9.36907 49.1144 13
      vertex 3.13953 49.9013 13
    endloop
  endfacet
  facet normal -0.125322 -0.992116 -0
    outer loop
      vertex 9.36907 49.1144 13
      vertex 3.13953 49.9013 0
      vertex 9.36907 49.1144 0
    endloop
  endfacet
  facet normal 0.998026 -0.0627961 0
    outer loop
      vertex -50 0 13
      vertex -49.6057 6.26666 0
      vertex -49.6057 6.26666 13
    endloop
  endfacet
  facet normal 0.998026 -0.0627961 0
    outer loop
      vertex -49.6057 6.26666 0
      vertex -50 0 13
      vertex -50 0 0
    endloop
  endfacet
  facet normal 0.98229 -0.187369 0
    outer loop
      vertex -49.6057 6.26666 13
      vertex -48.4292 12.4345 0
      vertex -48.4292 12.4345 13
    endloop
  endfacet
  facet normal 0.98229 -0.187369 0
    outer loop
      vertex -48.4292 12.4345 0
      vertex -49.6057 6.26666 13
      vertex -49.6057 6.26666 0
    endloop
  endfacet
  facet normal 0.770507 -0.637431 0
    outer loop
      vertex -40.4509 29.3893 13
      vertex -36.4484 34.2274 0
      vertex -36.4484 34.2274 13
    endloop
  endfacet
  facet normal 0.770507 -0.637431 0
    outer loop
      vertex -36.4484 34.2274 0
      vertex -40.4509 29.3893 13
      vertex -40.4509 29.3893 0
    endloop
  endfacet
  facet normal 0.125322 -0.992116 0
    outer loop
      vertex -9.36907 49.1144 0
      vertex -3.13953 49.9013 13
      vertex -9.36907 49.1144 13
    endloop
  endfacet
  facet normal 0.125322 -0.992116 0
    outer loop
      vertex -3.13953 49.9013 13
      vertex -9.36907 49.1144 0
      vertex -3.13953 49.9013 0
    endloop
  endfacet
  facet normal 0.684549 -0.728967 0
    outer loop
      vertex -36.4484 34.2274 0
      vertex -31.8712 38.5257 13
      vertex -36.4484 34.2274 13
    endloop
  endfacet
  facet normal 0.684549 -0.728967 0
    outer loop
      vertex -31.8712 38.5257 13
      vertex -36.4484 34.2274 0
      vertex -31.8712 38.5257 0
    endloop
  endfacet
  facet normal -0.587779 0.809022 0
    outer loop
      vertex 31.8712 -38.5257 0
      vertex 26.7913 -42.2164 13
      vertex 31.8712 -38.5257 13
    endloop
  endfacet
  facet normal -0.587779 0.809022 0
    outer loop
      vertex 26.7913 -42.2164 13
      vertex 31.8712 -38.5257 0
      vertex 26.7913 -42.2164 0
    endloop
  endfacet
  facet normal -0.770507 0.637431 0
    outer loop
      vertex 36.4484 -34.2274 0
      vertex 40.4509 -29.3893 13
      vertex 40.4509 -29.3893 0
    endloop
  endfacet
  facet normal -0.770507 0.637431 0
    outer loop
      vertex 40.4509 -29.3893 13
      vertex 36.4484 -34.2274 0
      vertex 36.4484 -34.2274 13
    endloop
  endfacet
  facet normal 0.125322 0.992116 -0
    outer loop
      vertex -3.13953 -49.9013 0
      vertex -9.36907 -49.1144 13
      vertex -3.13953 -49.9013 13
    endloop
  endfacet
  facet normal 0.125322 0.992116 0
    outer loop
      vertex -9.36907 -49.1144 13
      vertex -3.13953 -49.9013 0
      vertex -9.36907 -49.1144 0
    endloop
  endfacet
  facet normal -0.248701 0.96858 0
    outer loop
      vertex 15.4508 -47.5528 0
      vertex 9.36907 -49.1144 13
      vertex 15.4508 -47.5528 13
    endloop
  endfacet
  facet normal -0.248701 0.96858 0
    outer loop
      vertex 9.36907 -49.1144 13
      vertex 15.4508 -47.5528 0
      vertex 9.36907 -49.1144 0
    endloop
  endfacet
  facet normal -0.98229 -0.187369 0
    outer loop
      vertex 49.6057 6.26666 0
      vertex 48.4292 12.4345 13
      vertex 48.4292 12.4345 0
    endloop
  endfacet
  facet normal -0.98229 -0.187369 0
    outer loop
      vertex 48.4292 12.4345 13
      vertex 49.6057 6.26666 0
      vertex 49.6057 6.26666 13
    endloop
  endfacet
  facet normal -0.951053 -0.309028 0
    outer loop
      vertex 48.4292 12.4345 0
      vertex 46.4888 18.4062 13
      vertex 46.4888 18.4062 0
    endloop
  endfacet
  facet normal -0.951053 -0.309028 0
    outer loop
      vertex 46.4888 18.4062 13
      vertex 48.4292 12.4345 0
      vertex 48.4292 12.4345 13
    endloop
  endfacet
  facet normal -0.770507 -0.637431 0
    outer loop
      vertex 40.4509 29.3893 0
      vertex 36.4484 34.2274 13
      vertex 36.4484 34.2274 0
    endloop
  endfacet
  facet normal -0.770507 -0.637431 0
    outer loop
      vertex 36.4484 34.2274 13
      vertex 40.4509 29.3893 0
      vertex 40.4509 29.3893 13
    endloop
  endfacet
  facet normal 0 -1 0
    outer loop
      vertex -3.13953 49.9013 0
      vertex 3.13953 49.9013 13
      vertex -3.13953 49.9013 13
    endloop
  endfacet
  facet normal 0 -1 -0
    outer loop
      vertex 3.13953 49.9013 13
      vertex -3.13953 49.9013 0
      vertex 3.13953 49.9013 0
    endloop
  endfacet
  facet normal -0.248701 -0.96858 0
    outer loop
      vertex 9.36907 49.1144 0
      vertex 15.4508 47.5528 13
      vertex 9.36907 49.1144 13
    endloop
  endfacet
  facet normal -0.248701 -0.96858 -0
    outer loop
      vertex 15.4508 47.5528 13
      vertex 9.36907 49.1144 0
      vertex 15.4508 47.5528 0
    endloop
  endfacet
  facet normal -0.587779 -0.809022 0
    outer loop
      vertex 26.7913 42.2164 0
      vertex 31.8712 38.5257 13
      vertex 26.7913 42.2164 13
    endloop
  endfacet
  facet normal -0.587779 -0.809022 -0
    outer loop
      vertex 31.8712 38.5257 13
      vertex 26.7913 42.2164 0
      vertex 31.8712 38.5257 0
    endloop
  endfacet
  facet normal -0.481764 -0.876301 0
    outer loop
      vertex 21.289 45.2414 0
      vertex 26.7913 42.2164 13
      vertex 21.289 45.2414 13
    endloop
  endfacet
  facet normal -0.481764 -0.876301 -0
    outer loop
      vertex 26.7913 42.2164 13
      vertex 21.289 45.2414 0
      vertex 26.7913 42.2164 0
    endloop
  endfacet
  facet normal 0.951053 -0.309028 0
    outer loop
      vertex -48.4292 12.4345 13
      vertex -46.4888 18.4062 0
      vertex -46.4888 18.4062 13
    endloop
  endfacet
  facet normal 0.951053 -0.309028 0
    outer loop
      vertex -46.4888 18.4062 0
      vertex -48.4292 12.4345 13
      vertex -48.4292 12.4345 0
    endloop
  endfacet
  facet normal 0.844335 -0.535816 0
    outer loop
      vertex -43.8153 24.0877 13
      vertex -40.4509 29.3893 0
      vertex -40.4509 29.3893 13
    endloop
  endfacet
  facet normal 0.844335 -0.535816 0
    outer loop
      vertex -40.4509 29.3893 0
      vertex -43.8153 24.0877 13
      vertex -43.8153 24.0877 0
    endloop
  endfacet
  facet normal 0.248701 -0.96858 0
    outer loop
      vertex -15.4508 47.5528 0
      vertex -9.36907 49.1144 13
      vertex -15.4508 47.5528 13
    endloop
  endfacet
  facet normal 0.248701 -0.96858 0
    outer loop
      vertex -9.36907 49.1144 13
      vertex -15.4508 47.5528 0
      vertex -9.36907 49.1144 0
    endloop
  endfacet
  facet normal 0.481764 -0.876301 0
    outer loop
      vertex -26.7913 42.2164 0
      vertex -21.289 45.2414 13
      vertex -26.7913 42.2164 13
    endloop
  endfacet
  facet normal 0.481764 -0.876301 0
    outer loop
      vertex -21.289 45.2414 13
      vertex -26.7913 42.2164 0
      vertex -21.289 45.2414 0
    endloop
  endfacet
  facet normal 0.587779 -0.809022 0
    outer loop
      vertex -31.8712 38.5257 0
      vertex -26.7913 42.2164 13
      vertex -31.8712 38.5257 13
    endloop
  endfacet
  facet normal 0.587779 -0.809022 0
    outer loop
      vertex -26.7913 42.2164 13
      vertex -31.8712 38.5257 0
      vertex -26.7913 42.2164 0
    endloop
  endfacet
  facet normal -0.998026 -0.0627961 0
    outer loop
      vertex 50 0 0
      vertex 49.6057 6.26666 13
      vertex 49.6057 6.26666 0
    endloop
  endfacet
  facet normal -0.998026 -0.0627961 0
    outer loop
      vertex 49.6057 6.26666 13
      vertex 50 0 0
      vertex 50 0 13
    endloop
  endfacet
  facet normal 0.998026 0.0627961 0
    outer loop
      vertex -49.6057 -6.26666 13
      vertex -50 0 0
      vertex -50 0 13
    endloop
  endfacet
  facet normal 0.998026 0.0627961 0
    outer loop
      vertex -50 0 0
      vertex -49.6057 -6.26666 13
      vertex -49.6057 -6.26666 0
    endloop
  endfacet
  facet normal 0.98229 0.187369 0
    outer loop
      vertex -48.4292 -12.4345 13
      vertex -49.6057 -6.26666 0
      vertex -49.6057 -6.26666 13
    endloop
  endfacet
  facet normal 0.98229 0.187369 0
    outer loop
      vertex -49.6057 -6.26666 0
      vertex -48.4292 -12.4345 13
      vertex -48.4292 -12.4345 0
    endloop
  endfacet
  facet normal -0.125322 0.992116 0
    outer loop
      vertex 9.36907 -49.1144 0
      vertex 3.13953 -49.9013 13
      vertex 9.36907 -49.1144 13
    endloop
  endfacet
  facet normal -0.125322 0.992116 0
    outer loop
      vertex 3.13953 -49.9013 13
      vertex 9.36907 -49.1144 0
      vertex 3.13953 -49.9013 0
    endloop
  endfacet
  facet normal -0.684549 0.728967 0
    outer loop
      vertex 36.4484 -34.2274 0
      vertex 31.8712 -38.5257 13
      vertex 36.4484 -34.2274 13
    endloop
  endfacet
  facet normal -0.684549 0.728967 0
    outer loop
      vertex 31.8712 -38.5257 13
      vertex 36.4484 -34.2274 0
      vertex 31.8712 -38.5257 0
    endloop
  endfacet
  facet normal -0.98229 0.187369 0
    outer loop
      vertex 48.4292 -12.4345 0
      vertex 49.6057 -6.26666 13
      vertex 49.6057 -6.26666 0
    endloop
  endfacet
  facet normal -0.98229 0.187369 0
    outer loop
      vertex 49.6057 -6.26666 13
      vertex 48.4292 -12.4345 0
      vertex 48.4292 -12.4345 13
    endloop
  endfacet
  facet normal -0.951053 0.309028 0
    outer loop
      vertex 46.4888 -18.4062 0
      vertex 48.4292 -12.4345 13
      vertex 48.4292 -12.4345 0
    endloop
  endfacet
  facet normal -0.951053 0.309028 0
    outer loop
      vertex 48.4292 -12.4345 13
      vertex 46.4888 -18.4062 0
      vertex 46.4888 -18.4062 13
    endloop
  endfacet
  facet normal -0.904828 0.425778 0
    outer loop
      vertex 43.8153 -24.0877 0
      vertex 46.4888 -18.4062 13
      vertex 46.4888 -18.4062 0
    endloop
  endfacet
  facet normal -0.904828 0.425778 0
    outer loop
      vertex 46.4888 -18.4062 13
      vertex 43.8153 -24.0877 0
      vertex 43.8153 -24.0877 13
    endloop
  endfacet
  facet normal -0.844335 0.535816 0
    outer loop
      vertex 40.4509 -29.3893 0
      vertex 43.8153 -24.0877 13
      vertex 43.8153 -24.0877 0
    endloop
  endfacet
  facet normal -0.844335 0.535816 0
    outer loop
      vertex 43.8153 -24.0877 13
      vertex 40.4509 -29.3893 0
      vertex 40.4509 -29.3893 13
    endloop
  endfacet
  facet normal 0.684549 0.728967 -0
    outer loop
      vertex -31.8712 -38.5257 0
      vertex -36.4484 -34.2274 13
      vertex -31.8712 -38.5257 13
    endloop
  endfacet
  facet normal 0.684549 0.728967 0
    outer loop
      vertex -36.4484 -34.2274 13
      vertex -31.8712 -38.5257 0
      vertex -36.4484 -34.2274 0
    endloop
  endfacet
  facet normal 0.951053 0.309028 0
    outer loop
      vertex -46.4888 -18.4062 13
      vertex -48.4292 -12.4345 0
      vertex -48.4292 -12.4345 13
    endloop
  endfacet
  facet normal 0.951053 0.309028 0
    outer loop
      vertex -48.4292 -12.4345 0
      vertex -46.4888 -18.4062 13
      vertex -46.4888 -18.4062 0
    endloop
  endfacet
  facet normal 0.770507 0.637431 0
    outer loop
      vertex -36.4484 -34.2274 13
      vertex -40.4509 -29.3893 0
      vertex -40.4509 -29.3893 13
    endloop
  endfacet
  facet normal 0.770507 0.637431 0
    outer loop
      vertex -40.4509 -29.3893 0
      vertex -36.4484 -34.2274 13
      vertex -36.4484 -34.2274 0
    endloop
  endfacet
  facet normal 0.904828 0.425778 0
    outer loop
      vertex -43.8153 -24.0877 13
      vertex -46.4888 -18.4062 0
      vertex -46.4888 -18.4062 13
    endloop
  endfacet
  facet normal 0.904828 0.425778 0
    outer loop
      vertex -46.4888 -18.4062 0
      vertex -43.8153 -24.0877 13
      vertex -43.8153 -24.0877 0
    endloop
  endfacet
  facet normal -0.481764 0.876301 0
    outer loop
      vertex 26.7913 -42.2164 0
      vertex 21.289 -45.2414 13
      vertex 26.7913 -42.2164 13
    endloop
  endfacet
  facet normal -0.481764 0.876301 0
    outer loop
      vertex 21.289 -45.2414 13
      vertex 26.7913 -42.2164 0
      vertex 21.289 -45.2414 0
    endloop
  endfacet
  facet normal 0 1 -0
    outer loop
      vertex 3.13953 -49.9013 0
      vertex -3.13953 -49.9013 13
      vertex 3.13953 -49.9013 13
    endloop
  endfacet
  facet normal 0 1 0
    outer loop
      vertex -3.13953 -49.9013 13
      vertex 3.13953 -49.9013 0
      vertex -3.13953 -49.9013 0
    endloop
  endfacet
  facet normal 0.587779 0.809022 -0
    outer loop
      vertex -26.7913 -42.2164 0
      vertex -31.8712 -38.5257 13
      vertex -26.7913 -42.2164 13
    endloop
  endfacet
  facet normal 0.587779 0.809022 0
    outer loop
      vertex -31.8712 -38.5257 13
      vertex -26.7913 -42.2164 0
      vertex -31.8712 -38.5257 0
    endloop
  endfacet
  facet normal 0.844335 0.535816 0
    outer loop
      vertex -40.4509 -29.3893 13
      vertex -43.8153 -24.0877 0
      vertex -43.8153 -24.0877 13
    endloop
  endfacet
  facet normal 0.844335 0.535816 0
    outer loop
      vertex -43.8153 -24.0877 0
      vertex -40.4509 -29.3893 13
      vertex -40.4509 -29.3893 0
    endloop
  endfacet
  facet normal 0.248701 0.96858 -0
    outer loop
      vertex -9.36907 -49.1144 0
      vertex -15.4508 -47.5528 13
      vertex -9.36907 -49.1144 13
    endloop
  endfacet
  facet normal 0.248701 0.96858 0
    outer loop
      vertex -15.4508 -47.5528 13
      vertex -9.36907 -49.1144 0
      vertex -15.4508 -47.5528 0
    endloop
  endfacet
  facet normal 0.36811 0.929782 -0
    outer loop
      vertex -15.4508 -47.5528 0
      vertex -21.289 -45.2414 13
      vertex -15.4508 -47.5528 13
    endloop
  endfacet
  facet normal 0.36811 0.929782 0
    outer loop
      vertex -21.289 -45.2414 13
      vertex -15.4508 -47.5528 0
      vertex -21.289 -45.2414 0
    endloop
  endfacet
  facet normal 0.481764 0.876301 -0
    outer loop
      vertex -21.289 -45.2414 0
      vertex -26.7913 -42.2164 13
      vertex -21.289 -45.2414 13
    endloop
  endfacet
  facet normal 0.481764 0.876301 0
    outer loop
      vertex -26.7913 -42.2164 13
      vertex -21.289 -45.2414 0
      vertex -26.7913 -42.2164 0
    endloop
  endfacet
endsolid OpenSCAD_Model
